<?xml version="1.0" encoding="utf-8"?>
<!-- Generator: Adobe Illustrator 25.3.0, SVG Export Plug-In . SVG Version: 6.00 Build 0)  -->
<svg version="1.1" id="Layer_1" xmlns="http://www.w3.org/2000/svg" xmlns:xlink="http://www.w3.org/1999/xlink" x="0px" y="0px"
	 viewBox="0 0 170 120" style="enable-background:new 0 0 170 120;" xml:space="preserve">
<style type="text/css">
	.st0{fill:#FFFFFF;}
	.st1{fill:#002D5D;}
	.st2{fill:#00783F;}
</style>
<g>
	<rect x="37.8626404" y="29" class="st0" width="94.2747192" height="62"/>
	<g>
		<g>
			<g>
				<path class="st1" d="M59.1975708,70.0451126h-2.3554535v8.999054h-2.1743546v-8.999054h-2.3554535v-1.7816849h6.8852615
					V70.0451126z"/>
				<path class="st1" d="M64.3009567,68.2634277c0.9056931,0,1.6100311,0.229126,2.1137924,0.6869812
					c0.5029907,0.4582443,0.7552567,1.1548767,0.7552567,2.0910416c0,0.7247772-0.1465759,1.3164902-0.4381866,1.7743454
					c-0.2916107,0.458252-0.745224,0.7525635-1.3585358,0.8833237v0.0300827
					c0.5431061,0.0806198,0.9411774,0.2565155,1.1926727,0.52845c0.2514954,0.2719421,0.4073334,0.7097397,0.468277,1.313797
					c0.0200577,0.2013474,0.0347137,0.4204407,0.0447388,0.6565094c0.0100327,0.2368393,0.0200653,0.5010605,0.0300903,0.7926712
					c0.0200577,0.573967,0.0509186,1.0117645,0.0910339,1.3137894c0.060173,0.3020325,0.1913223,0.5083923,0.3926697,0.6190948
					v0.0906525h-2.3560333c-0.1103134-0.151207-0.1805191-0.3247833-0.21138-0.5211258
					c-0.0300827-0.1963348-0.0501404-0.3999939-0.060173-0.6113739l-0.060173-2.0686646
					c-0.0200577-0.42276-0.1257477-0.7548752-0.31707-0.9963379c-0.1913223-0.2418518-0.5134048-0.362587-0.9664421-0.362587
					h-1.1625862v4.5600891h-2.1743546V68.2634277H64.3009567z M63.3647919,72.9743347
					c0.523243,0,0.9261322-0.1230469,1.2077179-0.3699112c0.2815781-0.2464828,0.42276-0.661911,0.42276-1.2459106
					c0-0.9963379-0.5029907-1.4946976-1.5097427-1.4946976h-1.026619v3.1105194H63.3647919z"/>
				<path class="st1" d="M74.226532,68.2634277l3.1676025,10.7807388h-2.5137939l-0.5531311-2.2800446h-3.1845779
					l-0.5531387,2.2800446h-2.5137939l3.1676025-10.7807388H74.226532z M73.9083023,74.9824371l-1.1564102-4.8466797h-0.0335617
					l-1.1564102,4.8466797H73.9083023z"/>
				<path class="st1" d="M78.422493,68.2634277h2.1743546v10.7807388H78.422493V68.2634277z"/>
				<path class="st1" d="M88.9503784,75.6466675h0.0354919v-7.3832397h2.3317261v10.7807388h-2.8972092l-3.1089706-7.5494919
					h-0.0354919v7.5494919h-2.3315353V68.2634277h2.9321213L88.9503784,75.6466675z"/>
				<path class="st1" d="M93.2381439,68.2634277h2.1743546v10.7807388h-2.1743546V68.2634277z"/>
				<path class="st1" d="M103.4645844,75.6466675h0.0354919v-7.3832397h2.3317261v10.7807388h-2.8972092l-3.1089706-7.5494919
					h-0.0354919v7.5494919h-2.3317261V68.2634277h2.932312L103.4645844,75.6466675z"/>
				<path class="st1" d="M113.2956619,70.8454971c-0.0528488-0.21138-0.1384811-0.4054031-0.2561264-0.5816803
					c-0.1180344-0.1758881-0.2680817-0.321701-0.450531-0.4378052c-0.1828384-0.1153259-0.4034729-0.1735764-0.6623001-0.1735764
					c-0.6125336,0-1.0541916,0.2919998-1.3249741,0.8759918c-0.2711716,0.5836105-0.4065628,1.5498581-0.4065628,2.8987503
					c0,0.6445541,0.0235291,1.2281647,0.0709763,1.7515945c0.0466766,0.5234375,0.132309,0.968956,0.2561264,1.3361664
					c0.1234283,0.3675995,0.3000946,0.6491852,0.5299911,0.84552c0.2295074,0.1963348,0.5269012,0.2943115,0.8917999,0.2943115
					c0.1531372,0,0.3209305-0.0351028,0.5037689-0.10569c0.1824493-0.0702057,0.3533249-0.1758957,0.5122452-0.31707
					c0.1589203-0.1407928,0.2912216-0.3193817,0.3973007-0.5357742c0.1060715-0.2164001,0.1589203-0.4705963,0.1589203-0.7625885
					v-1.1020279h-1.6779175v-1.6007767h4.1161118v5.813324h-1.8727188v-0.996727h-0.0354843
					c-0.3062668,0.42276-0.6742554,0.7224731-1.1039581,0.8983612c-0.4300842,0.1762772-0.9450302,0.2642288-1.5456161,0.2642288
					c-0.777626,0-1.4106064-0.1157227-1.8993301-0.3471603c-0.4887161-0.2314377-0.8717422-0.5890045-1.1483078-1.0719376
					c-0.2765732-0.4833221-0.4621048-1.0796585-0.556221-1.7893982c-0.0945053-0.7097397-0.1415634-1.5325012-0.1415634-2.4686661
					c0-0.9056931,0.0678864-1.7010651,0.2032776-2.3857346c0.1353912-0.6842804,0.367981-1.2555466,0.6977844-1.7134018
					c0.3294067-0.4582443,0.7652817-0.8027039,1.3072357-1.0345306c0.5415573-0.2314301,1.2189026-0.3471527,2.0316315-0.3471527
					c1.3893967,0,2.3907471,0.2943115,3.0032883,0.883316c0.6121521,0.588623,0.9184189,1.4318314,0.9184189,2.5288391h-2.4378052
					C113.3751221,71.2632446,113.3485031,71.0568771,113.2956619,70.8454971z"/>
			</g>
			<g>
				<path class="st1" d="M48.7763329,81.4391556c0.0833168-0.0142746,0.1760864-0.0254593,0.2779198-0.032402
					c0.1016388-0.0073318,0.204628-0.0123444,0.3091621-0.0146561c0.1043396-0.0023193,0.2075195-0.004631,0.3091583-0.0073318
					c0.1018333-0.0023117,0.1969147-0.0034714,0.2858276-0.0034714c0.3809052,0,0.7045326,0.0605621,0.9706841,0.1812897
					c0.2661552,0.1207352,0.4825478,0.293541,0.6497612,0.518425c0.1668282,0.2248764,0.2869835,0.4944992,0.3600769,0.8084869
					c0.0730972,0.3143692,0.1095505,0.6649933,0.1095505,1.0514984c0,0.3479233-0.0351028,0.6815796-0.10569,1.0005798
					c-0.0703964,0.3193817-0.1892014,0.5998077-0.3562202,0.8412704c-0.1670227,0.2418518-0.3874664,0.4351044-0.661335,0.5801392
					c-0.2740593,0.1450348-0.6173592,0.2175522-1.0295105,0.2175522c-0.0678864,0-0.153904-0.0011597-0.2582436-0.0034714
					c-0.1045341-0.0027008-0.2127304-0.0073318-0.3249779-0.0146561c-0.1122475-0.0073318-0.2165871-0.0131149-0.3130188-0.0181351
					c-0.0966263-0.0046234-0.1710701-0.0119553-0.2231445-0.0215988V81.4391556z M49.9896431,81.8815842
					c-0.0522652,0-0.1083908,0-0.1683693,0c-0.0599823,0-0.1186142,0.0023117-0.1760864,0.0073318
					c-0.0574722,0.0046234-0.1108971,0.0096436-0.1604614,0.014267c-0.0495682,0.0050201-0.0900688,0.0100327-0.1213112,0.0146637
					v4.1334686c0.0208282,0.004631,0.0586281,0.0084839,0.1134033,0.0107956
					c0.054966,0.0023193,0.1122475,0.0050201,0.172226,0.0073318c0.0599823,0.0023117,0.1174545,0.004631,0.1722298,0.0073318
					c0.054966,0.0023117,0.0952759,0.0034714,0.1215057,0.0034714c0.2867889,0,0.5269051-0.0578613,0.7201538-0.1739655
					c0.193058-0.1161041,0.3456116-0.2719421,0.457859-0.4678879c0.1122475-0.1955643,0.1919022-0.42276,0.2387657-0.6815872
					c0.0470619-0.2584381,0.070591-0.5330734,0.070591-0.823143c0-0.2561264-0.0210228-0.5076218-0.0626831-0.754097
					c-0.041851-0.2464828-0.1162949-0.4651947-0.2231445-0.6561279c-0.1070366-0.1909332-0.253231-0.3456116-0.4383774-0.464035
					C50.5205994,81.9409866,50.2818336,81.8815842,49.9896431,81.8815842z"/>
				<path class="st1" d="M52.8860817,81.4391556H55.32061v0.5002899h-1.8474503v1.7188034h1.6987495v0.5002975h-1.6987495v1.8565063
					h1.8866005v0.5002899h-2.4736786V81.4391556z"/>
				<path class="st1" d="M57.4500275,84.9126434l0.140789,0.7760849h0.0156212l0.1566086-0.7903595l1.017746-3.4592133h0.6026993
					l-1.6595993,5.1560364h-0.3130188l-1.6831284-5.1560364h0.6497612L57.4500275,84.9126434z"/>
				<path class="st1" d="M59.8687401,81.4391556h2.4345245v0.5002899h-1.8474464v1.7188034h1.6987495v0.5002975h-1.6987495
					v1.8565063h1.8866005v0.5002899h-2.4736786V81.4391556z"/>
				<path class="st1" d="M65.8650894,86.5153427h-2.6380005v-5.0761871h0.5870781v4.5758972h2.0509224V86.5153427z"/>
				<path class="st1" d="M65.8650894,83.9772491c0-0.8605576,0.1488876-1.5132141,0.4462891-1.957962
					c0.2973938-0.4447403,0.7515869-0.6669235,1.3621979-0.6669235c0.3286438,0,0.6079102,0.0613327,0.8376083,0.1847687
					c0.2295074,0.1234283,0.416008,0.2985535,0.5596924,0.5257492c0.1434937,0.2271881,0.2491837,0.5029831,0.31707,0.8266144
					c0.0676956,0.3240128,0.1016388,0.6865997,0.1016388,1.0877533c0,0.8605652-0.1500473,1.5132141-0.4501419,1.957962
					s-0.7552567,0.6673126-1.3658676,0.6673126c-0.323822,0-0.6003876-0.0617218-0.829895-0.1851501
					c-0.2296982-0.1230469-0.4175491-0.2985535-0.5635529-0.5257492c-0.1461868-0.2271957-0.2518768-0.5026093-0.31707-0.826622
					C65.8976822,84.7413788,65.8650894,84.3787918,65.8650894,83.9772491z M66.4836044,83.9772491
					c0,0.2854385,0.0221786,0.556221,0.0665359,0.8123474c0.0443573,0.2561188,0.1134033,0.4810028,0.2075195,0.6742554
					c0.0939255,0.1932449,0.2164001,0.3479233,0.3677979,0.4640274s0.3340378,0.1739655,0.5481186,0.1739655
					c0.3913193,0,0.6887207-0.1739655,0.8923874-0.5218887c0.2034683-0.3483124,0.3052979-0.882164,0.3052979-1.6027069
					c0-0.280426-0.0223694-0.5485077-0.0665359-0.8050156c-0.0443573-0.2561264-0.1135941-0.4821625-0.2075195-0.6777267
					c-0.0939255-0.1959457-0.2165909-0.3517838-0.3679886-0.4678879s-0.3365479-0.1739655-0.5556412-0.1739655
					c-0.3863068,0-0.6811981,0.1739655-0.8846664,0.5218964C66.585434,82.7228622,66.4836044,83.2570953,66.4836044,83.9772491z"/>
				<path class="st1" d="M70.3272018,81.4900742c0.1668243-0.0435944,0.3444519-0.0725174,0.5323029-0.0871811
					c0.187851-0.014267,0.3730011-0.0215988,0.5558319-0.0215988c0.2086792,0,0.414856,0.0215988,0.6183243,0.0651855
					c0.2036667,0.0435944,0.3874664,0.123436,0.5519791,0.2391586c0.1643219,0.1161041,0.2974014,0.275795,0.399231,0.4786835
					c0.1018295,0.2032852,0.1525574,0.4617233,0.1525574,0.7760925c0,0.3043365-0.0482178,0.5631638-0.1448441,0.7756958
					c-0.0966263,0.2129211-0.2243042,0.3857269-0.3834152,0.5188065c-0.1593018,0.1326904-0.3419495,0.2295074-0.5481186,0.2896805
					c-0.2061691,0.0605621-0.4187088,0.0906448-0.6379929,0.0906448c-0.0208359,0-0.0547791,0-0.1016464,0
					c-0.0470581,0-0.0966187-0.0007706-0.1488876-0.0034714c-0.0520706-0.0023117-0.1029892-0.0057831-0.1525574-0.0107956
					c-0.0497589-0.004631-0.0848618-0.0096436-0.10569-0.0146561v1.9290237h-0.5870743V81.4900742z M71.4465866,81.8815842
					c-0.104538,0-0.2048264,0.0034714-0.3014526,0.0108032c-0.0966263,0.0073242-0.1735764,0.0181274-0.2308578,0.0327835v2.1608582
					c0.0208282,0.0096436,0.0534286,0.0158081,0.0977859,0.0181274c0.0443573,0.0027008,0.090065,0.0050125,0.1371231,0.0073242
					c0.0468674,0.0023193,0.0925751,0.0034714,0.1369324,0.0034714c0.0443649,0,0.0769577,0,0.0977859,0
					c0.1461868,0,0.2869797-0.0165863,0.42276-0.0505295c0.135582-0.0339432,0.2557373-0.0956573,0.3600769-0.1851501
					c0.1043396-0.0891037,0.1892014-0.2102203,0.2543869-0.3625793c0.0651855-0.1519775,0.0979767-0.3444595,0.0979767-0.5762787
					c0-0.2032852-0.0300903-0.3722305-0.0900726-0.5076218c-0.0599747-0.1353912-0.1382828-0.2441635-0.2349014-0.3263245
					c-0.0966263-0.0821609-0.2100296-0.1404114-0.3404083-0.1739655
					C71.7231522,81.8985596,71.5875702,81.8815842,71.4465866,81.8815842z"/>
				<path class="st1" d="M77.2552719,83.1795654l0.0703964-0.7687607H77.294426l-0.2505341,0.7182312l-1.1037598,2.2044373
					h-0.195755l-1.1585388-2.2044373l-0.2428131-0.7182312h-0.03125l0.1095505,0.7687607v3.3357773h-0.5635529v-5.0761871h0.4931564
					l1.3230515,2.4945068l0.1955643,0.5947952h0.0156174l0.1880493-0.601738l1.2524567-2.4875641h0.5166855v5.0761871h-0.5870819
					V83.1795654z"/>
				<path class="st1" d="M78.8442841,81.4391556h2.4345322v0.5002899H79.431366v1.7188034h1.6987457v0.5002975H79.431366v1.8565063
					h1.8865967v0.5002899h-2.4736786V81.4391556z"/>
				<path class="st1" d="M83.0400543,83.2956696l-0.3367462-0.7976913h-0.0233383l0.0860214,0.7976913v3.2196732h-0.5635529
					v-5.1560364h0.3521729l2.0275803,3.2921982l0.3209305,0.7614288h0.0312424l-0.0860138-0.7614288v-3.2123489h0.563736v5.1560364
					h-0.3602676L83.0400543,83.2956696z"/>
				<path class="st1" d="M89.3029404,81.9394455h-1.3465805v4.5758972H87.369278v-4.5758972h-1.3465805v-0.5002899h3.2802429
					V81.9394455z"/>
				<path class="st1" d="M91.2828827,85.841095c0.0991364,0.0628738,0.2387695,0.1218872,0.4188995,0.1774292
					c0.1801376,0.0555496,0.384964,0.0833206,0.6144714,0.0833206c0.2923813,0,0.5296021-0.0663452,0.7124405-0.1994247
					c0.1828308-0.1326904,0.2738647-0.3417511,0.2738647-0.6271896c0-0.1886215-0.0520706-0.352562-0.1562195-0.4929657
					c-0.1045303-0.1400146-0.2349091-0.2696228-0.3915176-0.3880386c-0.156601-0.1184235-0.3247833-0.2345276-0.5049133-0.3479309
					c-0.1801376-0.1137924-0.3483124-0.2395401-0.504921-0.377243s-0.2869797-0.2958527-0.3915176-0.4748306
					c-0.1045303-0.178978-0.156601-0.3942184-0.156601-0.6453247c0-0.4061737,0.1319199-0.7070389,0.3953705-0.9029922
					s0.6067505-0.293541,1.0295105-0.293541c0.2607498,0,0.4929581,0.0215988,0.6966248,0.0651932
					c0.2036667,0.0435867,0.3679886,0.0991287,0.4933472,0.1666336l-0.187851,0.4786911
					c-0.0941162-0.0532379-0.2287369-0.1014481-0.4034729-0.1450348s-0.3768539-0.0651932-0.6063614-0.0651932
					c-0.2819672,0-0.4906464,0.0640335-0.6264267,0.1920929c-0.1357727,0.128067-0.2036667,0.2889099-0.2036667,0.4821625
					c0,0.1693344,0.0520782,0.3190002,0.1566086,0.4497604c0.1045303,0.1303787,0.2349091,0.2538071,0.3915176,0.3699112
					c0.156601,0.1157227,0.3247833,0.2329865,0.5049133,0.3514023c0.1801376,0.1188049,0.3483124,0.2503357,0.504921,0.3953705
					s0.2869797,0.3093567,0.3915176,0.4929657c0.1041412,0.1839905,0.156601,0.4015427,0.156601,0.6526489
					c0,0.4254608-0.1357727,0.7591171-0.4073257,1.0009689c-0.2711716,0.2414627-0.6549683,0.362587-1.1506271,0.362587
					c-0.3132172,0-0.5701141-0.026619-0.7710724-0.0798492c-0.2009659-0.0532303-0.3614273-0.1137924-0.4813919-0.1812897
					L91.2828827,85.841095z"/>
				<path class="st1" d="M94.6726685,81.4391556h2.4347229v0.5002899h-1.847641v1.7188034h1.6987457v0.5002975h-1.6987457v1.8565063
					h1.8865967v0.5002899h-2.4736786V81.4391556z"/>
				<path class="st1" d="M98.0308228,81.4900742c0.1720352-0.0385742,0.3614273-0.0663528,0.5674057-0.0833206
					c0.2063675-0.0169754,0.3953781-0.0254593,0.5677948-0.0254593c0.2032776,0,0.3965302,0.0227585,0.5789795,0.0686569
					c0.1828384,0.0462875,0.3417587,0.123436,0.4775314,0.2322159c0.1357803,0.1087723,0.2441711,0.2514954,0.3251724,0.4277725
					c0.0806198,0.1766586,0.1211166,0.3976822,0.1211166,0.6634521c0,0.4015427-0.0898743,0.7228546-0.2700119,0.9647064
					c-0.18013,0.2418518-0.4188995,0.4034729-0.7162933,0.4856339l0.2973938,0.2684631l1.0804291,2.0231476h-0.6811981
					l-1.1741562-2.2117691l-0.5870819-0.1087723v2.3205414h-0.5870819V81.4900742z M98.6179047,83.8322144h0.4698181
					c0.2973938,0,0.5323029-0.0844727,0.7043381-0.2538071c0.1724243-0.1689529,0.2584381-0.4277725,0.2584381-0.7757034
					c0-0.2661514-0.0717468-0.4860153-0.2152328-0.6599808c-0.1434937-0.1739655-0.3564148-0.2611389-0.6380005-0.2611389
					c-0.1045303,0-0.2129211,0.0034714-0.3247833,0.0108032c-0.1126328,0.0073242-0.1971054,0.0181274-0.2545776,0.0327835
					V83.8322144z"/>
				<path class="st1" d="M102.6888885,84.9126434l0.1411743,0.7760849h0.0154266l0.1566086-0.7903595l1.0175552-3.4592133h0.60289
					l-1.6594009,5.1560364h-0.3132172l-1.6833191-5.1560364h0.6499557L102.6888885,84.9126434z"/>
				<path class="st1" d="M105.2250519,81.4391556h0.5870819v5.0761871h-0.5870819V81.4391556z"/>
				<path class="st1" d="M109.7967148,86.319397c-0.1307678,0.1018295-0.2950821,0.1743469-0.4933472,0.2175522
					c-0.1982651,0.0435867-0.4069443,0.0655746-0.6260376,0.0655746c-0.2769547,0-0.5323105-0.0486069-0.7672195-0.1450348
					c-0.2349091-0.096817-0.4374161-0.2503433-0.6067505-0.4605637c-0.1697235-0.2102203-0.3012543-0.4821625-0.3953705-0.8158188
					c-0.0941162-0.3336487-0.1407928-0.7348099-0.1407928-1.2038574c0-0.4833145,0.0532303-0.8918076,0.1604614-1.2254562
					c0.1068497-0.3336563,0.2491837-0.6044388,0.4266205-0.8123474c0.1774368-0.2075195,0.3822556-0.3575745,0.6144638-0.4493713
					c0.2322083-0.0918045,0.4709778-0.1377106,0.716301-0.1377106c0.2503357,0,0.4578552,0.0169754,0.6221771,0.0505295
					c0.164711,0.0339432,0.3066559,0.0752182,0.4266205,0.123436l-0.1407928,0.4929581
					c-0.1045303-0.0532303-0.2268066-0.0941162-0.3679886-0.1230469c-0.1407852-0.0293121-0.3027954-0.0435867-0.4852448-0.0435867
					c-0.1828384,0-0.3548737,0.0374146-0.5164871,0.1122513c-0.1620102,0.0752182-0.3055038,0.1959457-0.4308624,0.3625793
					c-0.1249771,0.1670227-0.2244949,0.3857346-0.2973938,0.656517c-0.0732956,0.2707825-0.1095505,0.601738-0.1095505,0.993248
					c0,0.7058868,0.1303787,1.2362595,0.3915176,1.5919037c0.2607498,0.3552551,0.6079025,0.532692,1.0410767,0.532692
					c0.1774368,0,0.3367462-0.0227585,0.4775314-0.0686569c0.1407928-0.0459061,0.2607574-0.100296,0.3598862-0.1631699
					L109.7967148,86.319397z"/>
				<path class="st1" d="M110.5168686,81.4391556h2.4347229v0.5002899h-1.847641v1.7188034h1.6987457v0.5002975h-1.6987457
					v1.8565063h1.8865967v0.5002899h-2.4736786V81.4391556z"/>
				<path class="st1" d="M113.8356781,85.841095c0.0991364,0.0628738,0.2387695,0.1218872,0.4188995,0.1774292
					c0.1801376,0.0555496,0.384964,0.0833206,0.6144714,0.0833206c0.2923813,0,0.5296021-0.0663452,0.7124405-0.1994247
					c0.1828308-0.1326904,0.2738647-0.3417511,0.2738647-0.6271896c0-0.1886215-0.0520706-0.352562-0.1562195-0.4929657
					c-0.1045303-0.1400146-0.2349091-0.2696228-0.3915176-0.3880386c-0.156601-0.1184235-0.3247833-0.2345276-0.5049133-0.3479309
					c-0.1801376-0.1137924-0.3483124-0.2395401-0.504921-0.377243s-0.2869797-0.2958527-0.3915176-0.4748306
					c-0.1045303-0.178978-0.156601-0.3942184-0.156601-0.6453247c0-0.4061737,0.1319199-0.7070389,0.3953705-0.9029922
					s0.6067505-0.293541,1.0295105-0.293541c0.2607498,0,0.4929581,0.0215988,0.6966248,0.0651932
					c0.2036667,0.0435867,0.3679886,0.0991287,0.4933472,0.1666336l-0.187851,0.4786911
					c-0.0941162-0.0532379-0.2287369-0.1014481-0.4034729-0.1450348s-0.3768539-0.0651932-0.6063614-0.0651932
					c-0.2819672,0-0.4906464,0.0640335-0.6264267,0.1920929c-0.1357727,0.128067-0.2036667,0.2889099-0.2036667,0.4821625
					c0,0.1693344,0.0520782,0.3190002,0.1566086,0.4497604c0.1045303,0.1303787,0.2349091,0.2538071,0.3915176,0.3699112
					c0.156601,0.1157227,0.3247833,0.2329865,0.5049133,0.3514023c0.1801376,0.1188049,0.3483124,0.2503357,0.504921,0.3953705
					s0.2869797,0.3093567,0.3915176,0.4929657c0.1041412,0.1839905,0.156601,0.4015427,0.156601,0.6526489
					c0,0.4254608-0.1357727,0.7591171-0.4073257,1.0009689c-0.2711716,0.2414627-0.6549683,0.362587-1.1506271,0.362587
					c-0.3132172,0-0.5701065-0.026619-0.7710724-0.0798492s-0.3614273-0.1137924-0.4813919-0.1812897L113.8356781,85.841095z"/>
				<path class="st1" d="M121.5232544,86.5153427h-2.6380005v-5.0761871h0.5870819v4.5758972h2.0509186V86.5153427z"/>
				<path class="st1" d="M124.2399445,81.9394455h-1.3465805v4.5758972h-0.5870819v-4.5758972h-1.3465729v-0.5002899h3.2802353
					V81.9394455z"/>
				<path class="st1" d="M124.8501663,81.4391556c0.0833206-0.0142746,0.1758957-0.0254593,0.2777252-0.032402
					c0.1018295-0.0073318,0.2048187-0.0123444,0.3093567-0.0146561c0.1041412-0.0023193,0.2075195-0.004631,0.3093491-0.0073318
					c0.1014481-0.0023117,0.1967239-0.0034714,0.2854462-0.0034714c0.3810959,0,0.7047272,0.0605621,0.9708786,0.1812897
					c0.2661514,0.1207352,0.4825439,0.293541,0.6495667,0.518425c0.1670227,0.2248764,0.2869797,0.4944992,0.3602676,0.8084869
					c0.0729065,0.3143692,0.1095428,0.6649933,0.1095428,1.0514984c0,0.3479233-0.0350952,0.6815796-0.1056824,1.0005798
					c-0.0705872,0.3193817-0.1890106,0.5998077-0.3560257,0.8412704c-0.1670227,0.2418518-0.3876572,0.4351044-0.6615295,0.5801392
					c-0.2742538,0.1450348-0.6171646,0.2175522-1.0295105,0.2175522c-0.0678864,0-0.1539078-0.0011597-0.2584381-0.0034714
					c-0.1045303-0.0027008-0.212532-0.0073318-0.3247833-0.0146561c-0.1122437-0.0073318-0.2167816-0.0131149-0.3132095-0.0181351
					c-0.0964355-0.0046234-0.1708832-0.0119553-0.2229538-0.0215988V81.4391556z M126.0636673,81.8815842
					c-0.0524597,0-0.1083832,0-0.1685638,0c-0.0597839,0-0.1188049,0.0023117-0.1758881,0.0073318
					c-0.0574722,0.0046234-0.1110916,0.0096436-0.1604614,0.014267c-0.0497589,0.0050201-0.0902634,0.0100327-0.1215057,0.0146637
					v4.1334686c0.0208282,0.004631,0.0586319,0.0084839,0.1134033,0.0107956
					c0.0547714,0.0023193,0.1122437,0.0050201,0.1724167,0.0073318c0.0597916,0.0023117,0.1172638,0.004631,0.1720352,0.0073318
					c0.0547791,0.0023117,0.0952759,0.0034714,0.1215057,0.0034714c0.2869873,0,0.5269089-0.0578613,0.7201614-0.1739655
					c0.1928635-0.1161041,0.3456116-0.2719421,0.4578552-0.4678879c0.1122513-0.1955643,0.1917114-0.42276,0.2387695-0.6815872
					c0.0470581-0.2584381,0.0705872-0.5330734,0.0705872-0.823143c0-0.2561264-0.0208282-0.5076218-0.0628738-0.754097
					c-0.0416565-0.2464828-0.1161041-0.4651947-0.2229538-0.6561279c-0.106842-0.1909332-0.2530365-0.3456116-0.4381866-0.464035
					C126.5944366,81.9409866,126.3556671,81.8815842,126.0636673,81.8815842z"/>
			</g>
			<g>
				<path class="st1" d="M46.1439285,86.1300049v0.4389572H46.02705c-0.4678879,0-0.8993263-0.2268066-0.9870796-0.6800385
					c-0.2484093,0.4678879-0.8187103,0.6800385-1.3450356,0.6800385c-0.9724236,0-1.601162-0.7240143-1.601162-1.5645142
					c0-0.5924835,0.3436852-1.0966263,0.8773422-1.3454208C42.642086,83.447258,42.43013,83.0376129,42.43013,82.6283569
					c0-0.6507263,0.5409851-1.2281647,1.3012543-1.2281647c0.4898758,0,0.8993301,0.233757,1.1332741,0.5920944
					l-0.3803291,0.2484131c-0.167984-0.2557373-0.4459038-0.3872757-0.7529449-0.3872757
					c-0.4972038,0-0.8480225,0.3510132-0.8480225,0.804245c0,0.4385757,0.3143692,0.8405075,0.8991318,0.8405075h1.0821648
					v-0.6287384h0.4678879v0.6360626h0.6651878v0.3876572h-0.6651878V84.98246c0,0.5847626,0.0948906,1.1475449,0.7018318,1.1475449
					H46.1439285z M44.8646584,85.0333786V83.893158h-1.0601768c-0.796917,0-1.2574768,0.4752197-1.2574768,1.0966339
					c0,0.6140747,0.4387665,1.1255569,1.1623955,1.1255569C44.3894386,86.1153488,44.8426704,85.6474533,44.8646584,85.0333786z"/>
			</g>
		</g>
		<path class="st1" d="M69.1829834,33.4645119c-2.1379242,0-3.1326294,0-3.5587845,0h-0.2845001H55.0590363v4.7821465h3.2425346
			v20.6854591h-3.2425346v4.7821426h10.2806625h0.2845001c0.4261551,0,1.4208603,0,3.5587845,0
			c5.3381958,0,12.2333679-1.2233391,14.9024429-9.3418465V42.8063583
			C81.4163513,34.687851,74.5211792,33.4645119,69.1829834,33.4645119z M67.9596634,59.1545372
			c-1.7794113,0-2.3354645-0.1112099-2.3354645-0.1112099v-20.796669c0,0,0.4448395-0.1112099,1.8906021-0.1112099
			s9.2306137-0.1112366,9.2306137,10.5651627C76.7454147,59.3769798,69.7390594,59.1545372,67.9596634,59.1545372z"/>
		<path class="st2" d="M107.8857651,51.5408745c-1.0744019,4.4543495-4.62043,7.7248955-8.8322983,7.7248955
			c-5.0633698,0-8.5177155-4.7249374-8.5177155-10.5534439s3.4543457-10.553421,8.5177155-10.553421
			c3.5633392,0,6.6495285,2.3416405,8.1667709,5.7595596h0.2197647h3.3363647h1.2233353V33.4988403h-4.5597v3.1786003
			c-0.6968384-0.6084633-1.4081726-1.1625404-2.1130447-1.6559601c-2.2242355-1.5569687-5.0045395-2.1130219-7.228775-2.1130219
			c-6.450325,0-15.458519,4.0036507-15.458519,16.4594116c0,10.1203232,9.008194,15.1248665,16.4594116,15.1248665
			c4.8933563,0,11.3436584-1.8906021,14.2351837-10.3427429L107.8857651,51.5408745z"/>
	</g>
</g>
</svg>
