<?xml version="1.0" encoding="utf-8"?>
<!-- Generator: Adobe Illustrator 25.3.0, SVG Export Plug-In . SVG Version: 6.00 Build 0)  -->
<svg version="1.1" id="Layer_1" xmlns="http://www.w3.org/2000/svg" xmlns:xlink="http://www.w3.org/1999/xlink" x="0px" y="0px"
	 viewBox="0 0 170 80" style="enable-background:new 0 0 170 80;" xml:space="preserve">
<style type="text/css">
	.st0{fill:#FFFFFF;}
	.st1{fill:url(#SVGID_1_);}
	.st2{opacity:0.4;}
	.st3{fill:#15375C;}
	.st4{fill:none;stroke:#221E20;stroke-width:0.7433132;}
	.st5{fill:url(#SVGID_2_);}
	.st6{fill:none;stroke:#221E20;stroke-width:0.9626866;}
	.st7{fill:url(#SVGID_3_);}
	.st8{fill:url(#SVGID_4_);}
	.st9{fill:none;stroke:#211F1F;stroke-width:0.7895082;}
	.st10{fill:url(#SVGID_5_);}
	.st11{fill:url(#SVGID_6_);}
	.st12{fill:url(#SVGID_7_);}
	.st13{fill:url(#SVGID_8_);}
	.st14{fill:url(#SVGID_9_);}
	.st15{fill:url(#SVGID_10_);}
	.st16{fill:url(#SVGID_11_);}
	.st17{fill:url(#SVGID_12_);}
	.st18{fill:url(#SVGID_13_);}
	.st19{fill:url(#SVGID_14_);}
	.st20{opacity:0.47;fill:#FFFFFF;}
	.st21{fill:url(#SVGID_15_);}
	.st22{fill:url(#SVGID_16_);}
	.st23{fill:url(#SVGID_17_);}
	.st24{fill:url(#SVGID_18_);}
	.st25{fill:url(#SVGID_19_);}
	.st26{fill:url(#SVGID_20_);}
	.st27{fill:url(#SVGID_21_);}
	.st28{fill:url(#SVGID_22_);}
</style>
<g>
	<path class="st0" d="M141.7956543,13.7799273H28.2043648c-0.9397907,0-1.7043648,0.7612514-1.7043648,1.6969585l0,0l0,0l0,0l0,0
		v49.0462303c0,0.9357071,0.7645741,1.6969528,1.7043648,1.6969528h113.5912933
		c0.9397736,0,1.7043457-0.7612457,1.7043457-1.6969528V15.4768858v-0.0001297v0.3154173v-0.0001297v-0.3151579
		C143.5,14.5411787,142.7354279,13.7799273,141.7956543,13.7799273z"/>
	<path class="st0" d="M142.1681061,14.1801357H27.896225c-0.5381451,0-0.9759579,0.4378128-0.9759579,0.9759569v20.2077675
		v0.0000725v0.4575691v0.0000763v28.9462357c0,0.538147,0.4378128,0.9759598,0.9759579,0.9759598h114.2718811
		c0.5381317,0,0.9759521-0.4378128,0.9759521-0.9759598V35.821579v-0.0000763v-0.4575691v-0.0000725V15.1560926
		C143.1440582,14.6179485,142.7062378,14.1801357,142.1681061,14.1801357z"/>
	<g>
		<linearGradient id="SVGID_1_" gradientUnits="userSpaceOnUse" x1="85.0498505" y1="36.0167351" x2="85.0498505" y2="65.26091">
			<stop  offset="0" style="stop-color:#035F9C"/>
			<stop  offset="0.2318115" style="stop-color:#045C97"/>
			<stop  offset="0.5022534" style="stop-color:#085389"/>
			<stop  offset="0.7908975" style="stop-color:#0F4572"/>
			<stop  offset="1" style="stop-color:#15375C"/>
		</linearGradient>
		<path class="st1" d="M27.3779049,36.0167351v28.7258568c0,0.2862549,0.2320595,0.5183182,0.5183163,0.5183182h114.2718811
			c0.2862549,0,0.5183105-0.2320633,0.5183105-0.5183182l0.0353851-28.7258568H27.3779049z"/>
	</g>
	<g>
		<g class="st2">
			<polygon class="st3" points="109.4224854,36.39785 85.9242935,36.346035 122.2336884,63.9726601 142.1510162,48.818222 
				142.1510162,36.4700279 134.9735413,36.4541969 122.2336884,46.1475372 			"/>
		</g>
		<g class="st2">
			<polygon class="st3" points="130.5580139,36.444458 113.8609543,36.4076347 122.2336884,42.7781715 			"/>
		</g>
	</g>
	<path class="st4" d="M45.0273018,58.945343"/>
	<path class="st4" d="M46.227253,36.0654907"/>
	<g>
		<g>
			
				<linearGradient id="SVGID_2_" gradientUnits="userSpaceOnUse" x1="27.3779049" y1="25.1110497" x2="142.6864166" y2="25.1110497">
				<stop  offset="0" style="stop-color:#DC052B"/>
				<stop  offset="1" style="stop-color:#005A99"/>
			</linearGradient>
			<path class="st5" d="M27.8962212,14.6377802h114.2718811c0.2862549,0,0.5183105,0.2320576,0.5183105,0.5183153v20.4282246
				H27.3779049V15.1560955C27.3779049,14.8698378,27.6099644,14.6377802,27.8962212,14.6377802z"/>
		</g>
		<path class="st0" d="M33.1454163,33.1236153l2.3866234-15.9645672h6.6084976c2.1969986,0,3.780365,0.3174133,4.7521477,0.9571667
			c0.9705009,0.638195,1.45961,1.6631947,1.45961,3.0809002c0,0.9123116-0.1770172,1.6786652-0.5289879,2.3088646
			c-0.35532,0.6286564-0.904377,1.1485138-1.6456299,1.5585022c0.6349907,0.2756577,1.1271896,0.6902885,1.4747887,1.2516479
			c0.341423,0.56394,0.5212708,1.2065258,0.5212708,1.9388371c0,1.6165295-0.5351677,2.8338852-1.5970039,3.6461315
			c-1.0633774,0.820509-2.6467438,1.222517-4.7575493,1.222517H33.1454163z M38.5912209,29.424366h2.4941711
			c0.8161201,0,1.4058304-0.130991,1.772728-0.3914299c0.3681793-0.258379,0.5526581-0.6825619,0.5526581-1.260416
			c0-0.496376-0.1644096-0.8509312-0.490654-1.0636692c-0.329071-0.2155685-0.8948555-0.3220711-1.7037735-0.3220711h-2.1810493
			L38.5912209,29.424366z M39.4199524,23.5477486h2.0891953c0.7662086,0,1.3191261-0.1170616,1.6602936-0.3622837
			c0.3337059-0.2405777,0.5068626-0.6361332,0.5068626-1.1851215c0-0.4595013-0.1561775-0.7831154-0.4600372-0.9667206
			c-0.3054047-0.1830692-0.9110641-0.2787437-1.8169823-0.2787437h-1.512352L39.4199524,23.5477486z"/>
		<polygon class="st0" points="48.7321091,33.1236305 51.1635017,17.1590633 63.4781799,17.1590633 62.8915558,20.9570713 
			55.5541573,20.9570713 55.1975517,23.1514549 61.7275772,23.1514549 61.1592216,26.7016582 54.6454048,26.7016582 
			54.3091316,29.2593651 62.1263771,29.2593651 61.5811768,33.1236305 		"/>
		<polygon class="st0" points="66.8724289,33.1236305 68.6263733,21.2188015 64.1026993,21.2188015 64.7755127,17.1590633 
			78.6843567,17.1590633 77.9925079,21.2188015 73.6769791,21.2188015 71.9485016,33.1236305 		"/>
		<polygon class="st0" points="77.5970535,33.1236305 80.0052872,17.1590633 91.2056503,17.1590633 90.59021,21.070797 
			84.3977432,21.070797 83.9948349,23.593689 89.2592468,23.593689 88.6667023,27.3947811 83.4334259,27.3947811 
			82.6005783,33.1236305 		"/>
		<path class="st0" d="M90.2615967,33.1237259l2.3701553-15.9645672h7.3759995c2.0567703,0,3.5601196,0.3437271,4.5090027,1.0340176
			c0.9517212,0.6923504,1.4266815,1.7727814,1.4266815,3.2554703c0,1.0634003-0.2552338,1.9821491-0.7695541,2.7448997
			c-0.5161285,0.7658482-1.271019,1.3625259-2.2641602,1.7895412c0.7088394,0.2697258,1.2097855,0.627367,1.5097809,1.0556736
			c0.3033447,0.4301167,0.4523163,1.0017853,0.4523163,1.7157917c0,0.1521435-0.0028305,0.3122673-0.0149155,0.4806538
			c-0.0105591,0.1753426-0.0265045,0.3512039-0.0478592,0.5358315l-0.1711044,1.6198654
			c-0.0216064,0.152916-0.0370483,0.2607079-0.04142,0.3285255c0,0.0696106-0.0043793,0.1356335-0.0043793,0.2034512
			c0,0.2065372,0.0414276,0.3762112,0.120163,0.4992085c0.0789871,0.1278915,0.2022324,0.2235641,0.3704987,0.292923v0.4087143
			h-5.3737717c-0.0277863-0.1003189-0.0478516-0.212738-0.0586624-0.3300667
			c-0.0092545-0.1188736-0.0169754-0.2465134-0.0169754-0.385231c0-0.0941315,0.0077209-0.2130051,0.0169754-0.3574066
			c0.0108109-0.1433601,0.0265045-0.3192215,0.0478592-0.5198402l0.224617-1.6085186
			c0.0128632-0.0943832,0.0226364-0.1915836,0.0321655-0.2900925c0.0048828-0.1031494,0.0092545-0.2374935,0.0092545-0.4100018
			c0-0.6812553-0.1919403-1.1621609-0.5796738-1.433176c-0.383873-0.2728119-1.0623474-0.4130878-2.0351639-0.4130878h-1.3054962
			l-0.8704071,5.7474213H90.2615967z M96.5261002,23.9761658h2.4298477c0.762352,0,1.3232422-0.1291809,1.68396-0.3958073
			c0.3625259-0.2650833,0.5426331-0.6812553,0.5426331-1.244173c0-0.4837379-0.1559296-0.8380413-0.4754715-1.0541306
			c-0.3164749-0.2207165-0.8377457-0.3248901-1.5578995-0.3248901h-2.1537781L96.5261002,23.9761658z"/>
		<polygon class="st0" points="106.3612213,33.1236305 108.7938995,17.1590633 121.1067734,17.1590633 120.5250473,20.9570713 
			113.1840363,20.9570713 112.8266678,23.1514549 119.3605499,23.1514549 118.7873077,26.7016582 112.2755508,26.7016582 
			111.9418411,29.2593651 119.7542038,29.2593651 119.2079773,33.1236305 		"/>
		<path class="st0" d="M120.7020111,33.1235847l2.3647537-15.9643154h6.3342209c1.6000977,0,2.8379211,0.179985,3.7191315,0.5394363
			c0.8799438,0.3620319,1.648468,0.9770279,2.305069,1.8431778c0.4384308,0.5794125,0.7788239,1.2779484,1.0168152,2.0994968
			c0.2351532,0.8184319,0.353775,1.7090874,0.353775,2.6690865c0,2.8547688-0.7500153,5.0370331-2.2502747,6.5486031
			c-1.4958801,1.5092392-3.662262,2.2645149-6.4976044,2.2645149H120.7020111z M126.3217468,29.1607952h1.1742706
			c0.7999115,0,1.410202-0.0626545,1.8203278-0.1848793c0.4165497-0.1186066,0.7801056-0.3313427,1.100174-0.6286583
			c0.3800201-0.3560982,0.6957092-0.9092121,0.937561-1.6474552c0.248291-0.738512,0.3679199-1.5288506,0.3679199-2.3674126
			c0-1.2036781-0.2274323-2.0515251-0.6915894-2.5432568c-0.4600372-0.4883976-1.2555695-0.7320595-2.3884277-0.7320595h-1.1459656
			L126.3217468,29.1607952z"/>
	</g>
	<g>
		<path class="st6" d="M27.2081146,39.9276009"/>
		<g>
			<g>
				<g>
					
						<linearGradient id="SVGID_3_" gradientUnits="userSpaceOnUse" x1="34.2223167" y1="52.656147" x2="42.4294319" y2="60.8632622">
						<stop  offset="0.005618" style="stop-color:#541614"/>
						<stop  offset="0.3249708" style="stop-color:#C6764A"/>
						<stop  offset="0.561798" style="stop-color:#F9C8AB"/>
						<stop  offset="0.7713603" style="stop-color:#C5794F"/>
						<stop  offset="0.7923077" style="stop-color:#C07146"/>
						<stop  offset="1" style="stop-color:#7C3822"/>
					</linearGradient>
					<path class="st7" d="M38.3194351,60.380806l-6.7129974-5.1087799l0.2960262,3.2817078l6.4169712,4.8824654l6.4276161-4.8905602
						l0.2991714-3.2830238L38.3194351,60.380806z"/>
				</g>
				<g>
					
						<linearGradient id="SVGID_4_" gradientUnits="userSpaceOnUse" x1="34.9525604" y1="61.6038399" x2="41.697506" y2="54.8588905">
						<stop  offset="0.005618" style="stop-color:#541614"/>
						<stop  offset="0.3249708" style="stop-color:#C6764A"/>
						<stop  offset="0.561798" style="stop-color:#F9C8AB"/>
						<stop  offset="0.7713603" style="stop-color:#C5794F"/>
						<stop  offset="0.7923077" style="stop-color:#C07146"/>
						<stop  offset="1" style="stop-color:#7C3822"/>
					</linearGradient>
					<polygon class="st8" points="31.8498344,57.9702644 31.902462,58.5537415 38.3194389,63.4361877 44.7470512,58.5456467 
						44.8002701,57.9616547 38.3193512,62.797184 					"/>
				</g>
			</g>
		</g>
		<g>
			<path class="st9" d="M29.496109,40.8949013"/>
			<g>
				<g>
					<path class="st0" d="M39.498436,54.9508743l-0.0336838,1.1752167l0.460125-0.351059l0.0291061-1.0152588
						C39.8024864,54.8267632,39.650589,54.8902283,39.498436,54.9508743z"/>
				</g>
				<g>
					<path class="st0" d="M38.5328217,55.2938461l-0.0261765,1.5631714l0.4558411-0.3477478l0.0228462-1.3652
						C38.8344955,55.1971474,38.6836052,55.2467613,38.5328217,55.2938461z"/>
				</g>
				<g>
					<path class="st0" d="M37.5757408,55.5543327l-0.0046501,0.960392l0.4482651,0.3410301l0.0068092-1.4141655
						C37.8756561,55.482151,37.7254791,55.519558,37.5757408,55.5543327z"/>
				</g>
				<g>
					<path class="st0" d="M36.6242981,55.738739l0.0004044,0.0559502l0.4523277,0.3441429l-0.0033684-0.4781647
						C36.9231339,55.6894722,36.7732506,55.7156639,36.6242981,55.738739z"/>
				</g>
				<g>
					<path class="st0" d="M43.4369431,52.4798241l-0.0500488,0.6554337l0.4790916-0.3655014l0.059124-0.7744141
						C43.7673378,52.1598091,43.605793,52.3220863,43.4369431,52.4798241z"/>
				</g>
				<g>
					<path class="st0" d="M40.4759789,54.5142174l-0.035183,0.8672295l0.4645576-0.3544235l0.0304947-0.7519417
						C40.783329,54.3582802,40.6300392,54.4379196,40.4759789,54.5142174z"/>
				</g>
				<g>
					<path class="st0" d="M42.4485054,53.3068657l-0.0367966,0.5709572l0.4741859-0.3617516l0.0375252-0.5825539
						C42.7671471,53.0626259,42.6087685,53.1869011,42.4485054,53.3068657z"/>
				</g>
				<g>
					<path class="st0" d="M41.4697266,53.9660873L41.435257,54.622757l0.4693146-0.3580627l0.0313416-0.596489
						C41.7817612,53.771347,41.6264038,53.8707161,41.4697266,53.9660873z"/>
				</g>
				<g>
					<g>
						<path class="st0" d="M35.0153236,41.3600349l-0.0251122-0.5871277h-0.358387l-0.0917091,0.0039444l0.0384598,0.8991928
							C34.7226944,41.5670357,34.8682594,41.4616508,35.0153236,41.3600349z"/>
					</g>
					<g>
						<path class="st0" d="M35.9451294,40.7752686l-0.0000725-0.0023613h-0.1870804l-0.2628288,0.0080452l0.0079803,0.2586555
							C35.6494598,40.9481354,35.7967453,40.8599319,35.9451294,40.7752686z"/>
					</g>
					<g>
						<path class="st0" d="M32.3663101,43.8233528l-0.2392883-3.0504456h-0.4513035l0.2811909,3.5844955
							C32.0878487,44.1770973,32.224369,43.9990654,32.3663101,43.8233528z"/>
					</g>
					<g>
						<path class="st0" d="M34.0216331,42.1197777c0.0276031-0.0234871,0.0561256-0.0449982,0.0838585-0.0681801
							l-0.0699081-1.2786903h-0.4504967l0.0904808,1.6546478C33.7889519,42.3236542,33.9033432,42.2203827,34.0216331,42.1197777z"
							/>
					</g>
					<g>
						<path class="st0" d="M33.2203674,42.8639297l-0.1391945-2.0910225h-0.4508247l0.1690483,2.5397339
							C32.9356079,43.1607971,33.0752792,43.0108109,33.2203674,42.8639297z"/>
					</g>
				</g>
			</g>
		</g>
		<path class="st0" d="M45.7697334,41.1856155c-0.5171547-0.6002846-1.1764145-1.0407143-1.936718-1.3186226
			c-1.7464294-0.6384163-4.0254669-0.4187813-6.3411293,0.6960869c-1.0292282,0.4953117-2.0110016,1.1439934-2.9185028,1.9279251
			c-2.2899895,1.9786339-3.7958279,4.5955582-4.0280399,6.9998169c-0.1497822,1.5506973,0.230772,2.9033928,1.1003628,3.9121704
			c1.7051544,1.9786682,4.9544334,2.2233276,8.2774162,0.6228867c1.0293236-0.4950142,2.0119095-1.1444283,2.9203644-1.9296303
			c2.2900009-1.9782639,3.7957573-4.5949631,4.0274925-6.9991379
			C47.0203896,43.5468903,46.6396866,42.1938019,45.7697334,41.1856155z M42.5062027,51.6978645
			c-3.6750984,3.17556-8.3531342,3.7764702-10.4496193,1.3442612c-2.0968723-2.4323463-0.8194866-6.9778214,2.8542976-10.1524048
			c3.6737099-3.1733475,8.3517494-3.7756042,10.4478378-1.3431091
			C47.4571075,43.9787979,46.178791,48.5247612,42.5062027,51.6978645z"/>
		<linearGradient id="SVGID_5_" gradientUnits="userSpaceOnUse" x1="32.1723747" y1="47.050312" x2="40.2088737" y2="47.050312">
			<stop  offset="0.005618" style="stop-color:#541614"/>
			<stop  offset="0.3249708" style="stop-color:#C6764A"/>
			<stop  offset="0.561798" style="stop-color:#F9C8AB"/>
			<stop  offset="0.7713603" style="stop-color:#C5794F"/>
			<stop  offset="0.7923077" style="stop-color:#C07146"/>
			<stop  offset="1" style="stop-color:#7C3822"/>
		</linearGradient>
		<path class="st10" d="M35.5079689,49.8627205l-0.4715157,0.5880966l-1.9249611,2.068676
			c0,0-2.3608208-2.0300102,0.4037971-6.5255203c2.2064514-3.5878792,6.6935844-4.4128418,6.6935844-4.4128418
			s-6.3392715,2.0837326-6.0878563,6.6955032C34.1964798,49.6714516,35.5079689,49.8627205,35.5079689,49.8627205"/>
		<path class="st0" d="M35.0352745,50.4569626l-2.5271072,3.0902367c0,0-3.0479736-2.5119858-0.1991692-6.9555931
			c2.6324959-4.109539,7.4221039-4.8994637,7.4221039-4.8994637s-5.893856,2.0020676-6.2291832,6.6352501
			C33.3576508,50.3267822,35.0352745,50.4569626,35.0352745,50.4569626"/>
		
			<linearGradient id="SVGID_6_" gradientUnits="userSpaceOnUse" x1="-174.2589264" y1="239.9651184" x2="-177.817215" y2="235.5980988" gradientTransform="matrix(0.9887404 -0.1496407 0.1496407 0.9887404 178.6069794 -211.8968353)">
			<stop  offset="0" style="stop-color:#FFFFFF"/>
			<stop  offset="0" style="stop-color:#FFFFFF"/>
			<stop  offset="0.85" style="stop-color:#808080"/>
		</linearGradient>
		<path class="st11" d="M43.9027023,42.1175194c0.0115891,0.0155144,0.0241661,0.0321198,0.0375633,0.0501785
			c0.1836777,0.2199402,0.3229637,0.4615593,0.4224586,0.7205315c0.5320091,1.1382828,1.0165634,3.3346901-0.8206749,6.3203773
			c-2.2050247,3.5878525-6.4177208,4.5209084-6.4177208,4.5209084s0.3203659-0.0794411,0.8155518-0.2765312
			c-0.3867302,0.1439438-0.6242294,0.2107048-0.6242294,0.2107048s3.0764503-0.9939613,4.6427574-3.7794266
			c-0.2694359,0.2869568-0.556366,0.5706062-0.8605003,0.849926c-2.1941719,2.011364-4.2157135,2.7986641-5.8348846,2.8910599
			c-0.9729004,0.056015-1.8006859-0.1395111-2.4337807-0.4703979l-0.2852859,0.3485947
			c-0.0018044,0.0033951-0.0039978,0.006649-0.0062332,0.0096931c0.7485313,0.5315094,1.6731606,0.8294449,2.6879349,0.8835068
			c0.1773796,0.0044022,0.3556747,0.0005684,0.5337181-0.0093765c1.8241806-0.104187,3.6520424-0.9307594,5.0535507-1.9118385
			c0.2467842-0.1855812,0.4908524-0.3856621,0.7304459-0.599102c3.3141174-2.9516563,4.5943565-7.0290718,2.8033447-9.2799301
			c-0.0064507-0.0070534-0.0125122-0.0143929-0.0183334-0.0215607c-0.0767784-0.0864563-0.1451187-0.1754608-0.2152481-0.2616005
			C44.0457497,42.2451172,43.9751091,42.1798897,43.9027023,42.1175194"/>
		<path class="st0" d="M42.1641235,45.285717c-0.6248474-0.2164116-2.5119972,0.5248947-6.5854225,4.5220451
			c-0.4716759,0.4629631,3.2843018-3.6699867,3.2843018-3.6699867l0.9991722-0.8715019l3.5892944-3.018734
			c0,0,2.6614151,2.7573624-0.1536331,7.2234383c-1.9260025,3.0572853-5.9821854,4.1927109-5.9821854,4.1927109
			s4.6253777-1.4940796,5.420311-5.9529572C42.8411446,47.1171227,42.8296738,45.51511,42.1641235,45.285717"/>
		<linearGradient id="SVGID_7_" gradientUnits="userSpaceOnUse" x1="37.3156509" y1="51.3038712" x2="42.7663841" y2="51.3038712">
			<stop  offset="0.005618" style="stop-color:#541614"/>
			<stop  offset="0.3249708" style="stop-color:#C6764A"/>
			<stop  offset="0.561798" style="stop-color:#F9C8AB"/>
			<stop  offset="0.7713603" style="stop-color:#C5794F"/>
			<stop  offset="0.7923077" style="stop-color:#C07146"/>
			<stop  offset="1" style="stop-color:#7C3822"/>
		</linearGradient>
		<path class="st12" d="M42.7663841,48.9440498c-0.2473488,0.3161507-0.5170174,0.6297188-0.8079758,0.9402122
			c-1.5663071,2.7854652-4.6427574,3.7794266-4.6427574,3.7794266s0.2374992-0.066761,0.6242294-0.2107048
			C39.2156639,52.9461746,41.6513939,51.6600571,42.7663841,48.9440498"/>
		
			<linearGradient id="SVGID_8_" gradientUnits="userSpaceOnUse" x1="-169.5491638" y1="237.2680969" x2="-179.0821381" y2="236.1517944" gradientTransform="matrix(0.9887404 -0.1496407 0.1496407 0.9887404 178.6069794 -211.8968353)">
			<stop  offset="0.005618" style="stop-color:#541614"/>
			<stop  offset="0.3249708" style="stop-color:#C6764A"/>
			<stop  offset="0.561798" style="stop-color:#F9C8AB"/>
			<stop  offset="0.7713603" style="stop-color:#C5794F"/>
			<stop  offset="0.7923077" style="stop-color:#C07146"/>
			<stop  offset="1" style="stop-color:#7C3822"/>
		</linearGradient>
		<path class="st13" d="M44.3202553,42.7998047c0.8000984,1.7012215,0.1519432,3.9672203-1.5538712,6.1442451
			c-1.1149902,2.7160072-3.5507202,4.0021248-4.8265038,4.508934c-0.4951859,0.1970901-0.8155518,0.2765312-0.8155518,0.2765312
			s4.2126961-0.9330559,6.4177208-4.5209084c1.8372383-2.9856873,1.352684-5.1820946,0.8206749-6.3203773
			C44.3490219,42.8578949,44.3343773,42.828476,44.3202553,42.7998047"/>
		<g>
			
				<linearGradient id="SVGID_9_" gradientUnits="userSpaceOnUse" x1="-178.6882935" y1="238.3177185" x2="-169.8175201" y2="232.9042816" gradientTransform="matrix(0.9887404 -0.1496407 0.1496407 0.9887404 178.6069794 -211.8968353)">
				<stop  offset="0.005618" style="stop-color:#541614"/>
				<stop  offset="0.3249708" style="stop-color:#C6764A"/>
				<stop  offset="0.561798" style="stop-color:#F9C8AB"/>
				<stop  offset="0.7713603" style="stop-color:#C5794F"/>
				<stop  offset="0.7923077" style="stop-color:#C07146"/>
				<stop  offset="1" style="stop-color:#7C3822"/>
			</linearGradient>
			<path class="st14" d="M41.8737259,45.2537842c-0.4648972,0.026577-1.259594,0.3502426-2.4928551,1.2414742l0.3203926,0.4630661
				l-0.5837555-0.2687454c-0.1510696,0.1133041-0.3082809,0.2347832-0.4714661,0.3642159l0.340023,0.4927864l-0.6089592-0.2761345
				c-0.1444817,0.1176682-0.2937126,0.2423363-0.4470825,0.3721771L38.322834,48.21278l-0.6912842-0.3133888
				c-0.6125755,0.53368-1.2949448,1.1645432-2.053051,1.9084053c-0.0245209,0.023941-0.0705299,0.054924-0.0705299,0.054924
				l-0.4716644,0.5881233l-1.2701836,1.5581169c-0.3193703-0.0758095,0.8388367,0.2164383,1.8122559,0.2628593
				c1.0647774,0.0507774,2.3866234-0.4225731,3.973877-1.1787491c1.0238152-0.4872551,2.0642128-1.3551064,2.9297218-2.3859978
				c0.1057014-0.3143692,0.1916962-0.6461105,0.2539864-0.9963417c0.1051826-0.5936089,0.0937119-2.1956215-0.5718384-2.4250145
				C42.0871201,45.2591171,41.9908867,45.247345,41.8737259,45.2537842"/>
			
				<linearGradient id="SVGID_10_" gradientUnits="userSpaceOnUse" x1="-179.9683685" y1="239.7588196" x2="-169.8173523" y2="233.5641022" gradientTransform="matrix(0.9887404 -0.1496407 0.1496407 0.9887404 178.6069794 -211.8968353)">
				<stop  offset="0.005618" style="stop-color:#541614"/>
				<stop  offset="0.3249708" style="stop-color:#C6764A"/>
				<stop  offset="0.561798" style="stop-color:#F9C8AB"/>
				<stop  offset="0.7713603" style="stop-color:#C5794F"/>
				<stop  offset="0.7923077" style="stop-color:#C07146"/>
				<stop  offset="1" style="stop-color:#7C3822"/>
			</linearGradient>
			<path class="st15" d="M43.8119888,42.0071487c0.0115852,0.0155144,0.1148911,0.1424789,0.1282768,0.1605492
				c0.1733055,0.2339516,0.2934799,0.465004,0.4224586,0.7205315c0.5661659,1.121685,1.0165634,3.3346901-0.8206749,6.3203773
				c-2.2050247,3.5878525-6.4175606,4.5208817-6.4175606,4.5208817s0.3204117-0.0794487,0.8156052-0.2765388
				c-0.3869438,0.1439781-0.624279,0.2107124-0.624279,0.2107124s3.0762863-0.9939346,4.6425934-3.7793999
				c-0.2694359,0.2869568-0.556366,0.5706062-0.8605003,0.849926c-2.1941719,2.011364-4.2158737,2.7986908-5.8348846,2.8910599
				c-0.9731026,0.0560532-1.8006859-0.1395111-2.433567-0.4704361l-0.2857132,0.348671
				c-0.0018044,0.0033913-0.0039444,0.0066376-0.0060196,0.009655c0.7485313,0.5315094,1.6731606,0.8294449,2.6877213,0.8835449
				c0.1775932,0.004364,0.3556747,0.0005684,0.5339317-0.0094147c1.8240204-0.1041603,3.6522026-0.9307899,5.0535507-1.9118385
				c0.2467842-0.1855812,0.4908524-0.3856621,0.7304459-0.599102c3.3141174-2.9516563,4.6074181-7.0125504,2.8163795-9.2636223
				c-0.0064507-0.0070534-0.0490608-0.0639763-0.054718-0.07127c-0.0756683-0.0975838-0.1300964-0.1537895-0.2011452-0.2391701
				C44.0279045,42.2109566,43.8843918,42.069519,43.8119888,42.0071487"/>
		</g>
		<polygon class="st0" points="37.4501991,47.3874969 36.9935379,47.9578018 38.8817291,48.6899719 37.9945831,47.4022827 
			39.5250397,48.0772972 38.6688004,46.7576447 40.1528816,47.4582939 39.1478462,45.8078499 		"/>
		
			<linearGradient id="SVGID_11_" gradientUnits="userSpaceOnUse" x1="-184.5625" y1="233.4326935" x2="-171.271637" y2="233.4326935" gradientTransform="matrix(0.9887404 -0.1496407 0.1496407 0.9887404 178.6069794 -211.8968353)">
			<stop  offset="0.005618" style="stop-color:#541614"/>
			<stop  offset="0.3249708" style="stop-color:#C6764A"/>
			<stop  offset="0.561798" style="stop-color:#F9C8AB"/>
			<stop  offset="0.7713603" style="stop-color:#C5794F"/>
			<stop  offset="0.7923077" style="stop-color:#C07146"/>
			<stop  offset="1" style="stop-color:#7C3822"/>
		</linearGradient>
		<path class="st16" d="M43.8119888,42.0071487c0,0-0.004818-0.0014839-0.0072365-0.0031967
			c-0.0526161,0.0173569-0.41922,0.1451416-0.9710426,0.5011864l0.0867882-0.0587196
			c-1.7092247,1.119812-3.6841011,3.3098335-3.8327522,3.4519272l-0.0997429,0.10252l-1.0414352-0.5179634l0.6188126,0.9266777
			c-0.0726128,0.0728149-0.1452942,0.1408653-0.2184525,0.2152634l-1.1592941-0.5670853l0.717308,0.9940453l0.0089455,0.0028
			c-0.0757446,0.0783539-0.1506577,0.1552925-0.2250862,0.2342758l-0.0009155-0.0013313l-1.1612396-0.6069031l0.7149849,1.0372734
			l0.0351372,0.0157433c-0.3808098,0.420742-0.7780457,0.8885498-1.2526016,1.478344
			c-0.1836128,0.2186356-0.3392754,0.442276-0.5161972,0.6507149c-0.1751556-0.0333633-1.3181725-0.306015-1.3878021-1.591465
			c-0.1677322-3.0735664,2.593071-5.0250511,4.4528465-5.9840584c0.4866676-0.2966957,0.8762283-0.4852867,1.2857323-0.6262436
			L39.730175,41.686615c0,0-4.789402,0.7898331-7.4218979,4.8993835c-0.4528236,0.7061653-0.7567177,1.3637848-0.947382,1.9699745
			c0.181036-0.6085434,0.4471302-1.226738,0.7929668-1.8366547c0.598484-1.0559769,1.4364128-2.0856628,2.4863853-2.9940834
			c1.8607025-1.610096,4.0003471-2.5039711,5.8707047-2.6111794c1.2000694-0.0684471,1.9817848,0.1134529,2.9326591,0.6652412
			L43.8119888,42.0071487z"/>
		<g>
			
				<linearGradient id="SVGID_12_" gradientUnits="userSpaceOnUse" x1="38.7603836" y1="43.9226265" x2="43.8119888" y2="43.9226265">
				<stop  offset="0.005618" style="stop-color:#541614"/>
				<stop  offset="0.3249708" style="stop-color:#C6764A"/>
				<stop  offset="0.561798" style="stop-color:#F9C8AB"/>
				<stop  offset="0.7713603" style="stop-color:#C5794F"/>
				<stop  offset="0.7923077" style="stop-color:#C07146"/>
				<stop  offset="1" style="stop-color:#7C3822"/>
			</linearGradient>
			<path class="st17" d="M38.7603836,45.6692924c0,0,3.1860619-3.5556297,4.6832275-3.8899956
				c0,0,0.0714569,0.0386009,0.1742706,0.1021919c0.1028137,0.0635948,0.1941071,0.1256599,0.1941071,0.1256599
				l-4.8060684,4.0588036L38.7603836,45.6692924"/>
		</g>
		<linearGradient id="SVGID_13_" gradientUnits="userSpaceOnUse" x1="36.0641251" y1="46.4591293" x2="39.122715" y2="46.4591293">
			<stop  offset="0.005618" style="stop-color:#541614"/>
			<stop  offset="0.3249708" style="stop-color:#C6764A"/>
			<stop  offset="0.561798" style="stop-color:#F9C8AB"/>
			<stop  offset="0.7713603" style="stop-color:#C5794F"/>
			<stop  offset="0.7923077" style="stop-color:#C07146"/>
			<stop  offset="1" style="stop-color:#7C3822"/>
		</linearGradient>
		<polygon class="st18" points="38.52882,46.4760971 39.122715,45.8365631 37.3967476,44.9562111 38.1520424,46.1888428 
			36.6488228,45.6609001 37.4017906,46.8753319 36.0641251,46.2626953 37.0726395,47.9620476 		"/>
		
			<linearGradient id="SVGID_14_" gradientUnits="userSpaceOnUse" x1="-170.7425385" y1="234.2254791" x2="-180.6235046" y2="234.2254791" gradientTransform="matrix(0.9887404 -0.1496407 0.1496407 0.9887404 178.6069794 -211.8968353)">
			<stop  offset="0.005618" style="stop-color:#541614"/>
			<stop  offset="0.3249708" style="stop-color:#C6764A"/>
			<stop  offset="0.561798" style="stop-color:#F9C8AB"/>
			<stop  offset="0.7713603" style="stop-color:#C5794F"/>
			<stop  offset="0.7923077" style="stop-color:#C07146"/>
			<stop  offset="1" style="stop-color:#7C3822"/>
		</linearGradient>
		<path class="st19" d="M37.9474182,45.4882774l0.6111336,0.9113312l0.0068283,0.0099716
			c-0.074276,0.0719414-0.1472054,0.1438522-0.2184525,0.2152634l-0.0079384-0.0037155l-1.1506653-0.5579643l0.717308,0.9940453
			l0.0089722,0.0030022c-0.0753555,0.0780792-0.150631,0.1550789-0.2247238,0.2342148l-0.0012779-0.0012665l-1.1610603-0.6071434
			l0.7149925,1.0372581l0.0165787,0.0293541c-0.3812256,0.4209137-0.7206497,0.8136063-1.1949883,1.4033623
			c-0.1537132,0.1909904-0.3544235,0.4562378-0.5263596,0.6752815c0,0,0.034832-0.0391235,0.0995102-0.1105537
			c0.2501297-0.276165,0.9475403-1.0362968,1.8187256-1.900631l0.1755486,0.0793037L38.322834,48.21278l-0.3930244-0.5701218
			l-0.1184959-0.1716042c0.1060562-0.1032104,0.2139549-0.2070465,0.322834-0.3107414l0.2427979,0.1101608l0.6091194,0.2761078
			l-0.3401833-0.4927559l-0.1559029-0.225956c0.1036148-0.0960846,0.2061005-0.1892052,0.3114891-0.2839012l0.31604,0.1456108
			l0.5837555,0.2687454l-0.3203926-0.4630661l-0.1989899-0.2880287c0.3354797-0.2910576,0.6722412-0.5670471,0.9993973-0.8130913
			c-0.1545372,0.027729,2.088089-1.0650749,2.1242867-1.0706558c0.0246811-0.0038872,0.6008797-0.4761734,0.7427444-0.8798294
			c0.1842575-0.5258064-0.1005135-1.0090103-0.1268654-0.9915581c-1.7092361,1.1197166-3.6841278,3.3096313-3.8327789,3.4518204
			c-0.0340157,0.0326195-0.0673866,0.0652237-0.1006622,0.0969505l-0.0159073-0.0075264L37.9474182,45.4882774
			 M43.8056564,42.0093079c-0.0526123,0.0173721-0.4191742,0.1455727-0.9712563,0.501236
			c0.015892,0.0407906,0.0293121,0.082325,0.0411453,0.1247787c0.1508942,0.5623627-0.1017342,1.1875496-0.6185379,1.7071609
			c0.1020164-0.0030441,0.1958313,0.0098915,0.2795067,0.0402222c0.6572762,0.2397575,0.9643059,1.2604065,0.700386,2.8844948
			c-0.099865,0.6117935-0.262413,1.168972-0.4705162,1.6768494c1.7058144-2.1770248,2.3539696-4.4430237,1.5538712-6.1442451
			c-0.0847778-0.1724014-0.169445-0.3171997-0.2443848-0.4343643c-0.0775833-0.1177788-0.1480522-0.2254639-0.242424-0.3360558
			c-0.0113449-0.0124397-0.0214577-0.0222359-0.0214577-0.0222359"/>
		<path class="st20" d="M42.9381104,42.6607323c0.1074371,0.8397179-0.9486656,1.7198753-2.358963,1.9661865
			c-1.4109077,0.246418-2.641304-0.2344017-2.7487411-1.0741196c-0.107399-0.8394089,0.9519615-1.6987228,2.3597565-1.9661179
			C41.5966644,41.3195343,42.8307114,41.8213234,42.9381104,42.6607323z"/>
		<g>
			<path class="st0" d="M47.624855,43.9419632c-0.0109253-0.291584-0.0171661-0.4581947-0.0171661-0.4581947
				s-0.004776,0.1662865-0.0131302,0.4573212c-0.0030289,0.145607-0.0253372,0.3212852-0.0408554,0.5234032
				c-0.0156059,0.2022514-0.0575638,0.427597-0.0899696,0.6749763c-0.0237808,0.1224709-0.0486603,0.250061-0.074276,0.3821068
				c-0.0252457,0.1321564-0.0521469,0.268631-0.0897865,0.4066658c-0.0348892,0.1386528-0.0707855,0.2810936-0.1074181,0.4266815
				c-0.0438843,0.1435432-0.0886879,0.2902527-0.1343155,0.4393959c-0.0425987,0.1501541-0.098053,0.29879-0.1529541,0.4496307
				c-0.0571022,0.149971-0.1042023,0.3059311-0.1714058,0.4554863c-0.0633469,0.1510277-0.1271553,0.3032455-0.1912384,0.4560814
				c-0.0672035,0.1514397-0.1425781,0.2999191-0.2135468,0.4503708l-0.1086998,0.2245178l-0.1191673,0.2185936
				c-0.0806084,0.144783-0.1554337,0.29216-0.2396202,0.4325562c-0.1258698,0.2023468-0.2458649,0.4050369-0.3725624,0.5978127
				l0.0022049-0.023777c-0.1630516,0.2490082-0.336113,0.4947777-0.5189934,0.7366714l-0.3184853,3.4912987L38.2848892,59.1292
				l-3.9817429-3.0295715l0.3612671-0.1398239l-0.0029373-0.0013084c-0.1972961-0.0001144-0.390461-0.0065422-0.5804138-0.01717
				c-0.2887383-0.0160408-0.5687561-0.0434456-0.8377533-0.0827408l4.7691841,3.628643l0.2723961,0.2072601l0.2723961-0.2072601
				l6.3685799-4.8456573l0.1576347-0.1199265l0.0179977-0.1972275l0.2927742-3.2095375
				c0.0325012-0.0477867,0.0637169-0.0938759,0.0966759-0.1424866c0.0865746-0.1300011,0.1647949-0.2697105,0.2495346-0.4076538
				c0.1732445-0.273613,0.3226166-0.573597,0.4819984-0.8715858c0.0774841-0.1503143,0.1451492-0.3073769,0.2183189-0.461544
				l0.1078758-0.2325058l0.0969505-0.2379227c0.0630722-0.1592407,0.1301842-0.316143,0.1888504-0.475708
				c0.0554504-0.1605721,0.1107216-0.3205032,0.1655312-0.4791946c0.0583878-0.1568527,0.0966721-0.3198128,0.144783-0.4763031
				c0.0459938-0.1574059,0.0923576-0.3121033,0.1259613-0.4680405c0.0364456-0.1545601,0.0722504-0.3065491,0.1073227-0.4552994
				c0.0275421-0.150177,0.0544434-0.297142,0.0806999-0.4402008c0.0289192-0.1420746,0.0471878-0.2822647,0.0639915-0.4177513
				c0.0171661-0.1350746,0.033783-0.2656021,0.0496674-0.3908997c0.0166168-0.2528419,0.0437012-0.4812164,0.0460892-0.6870041
				C47.6208153,44.2654953,47.6314659,44.0875931,47.624855,43.9419632z"/>
			<path class="st0" d="M30.4420433,38.3600426l15.6745796-0.001194l-0.1291733,1.3026733l-0.3150864,0.0357132
				c0.1937141,0.0926819,0.3716393,0.1947708,0.5332222,0.3054008c0.0660095,0.0448494,0.129818,0.0908012,0.1897697,0.1386795
				L46.61689,37.899807l-16.6692352,0.0088577l0.7244606,7.5939522c-0.0493011,0.1090698-0.0962143,0.2196083-0.1459751,0.3288574
				c-0.071703,0.1637878-0.1456089,0.326725-0.205101,0.4962273c-0.062521,0.1674118-0.1251354,0.3348274-0.1874733,0.5015717
				c-0.0534325,0.169548-0.1065884,0.3384552-0.15938,0.5060272c-0.0561867,0.16576-0.0959396,0.3356972-0.1391811,0.5015984
				c-0.0408554,0.1667213-0.0897884,0.3281441-0.1187096,0.4926224c-0.0326824,0.1627769-0.0649071,0.3228226-0.0963058,0.4795151
				c-0.0277271,0.1572227-0.0469151,0.3126755-0.0695915,0.4625092c-0.0108337,0.0749168-0.021574,0.1488686-0.0321331,0.2216721
				c-0.0066109,0.0734024-0.0132198,0.1457214-0.0196476,0.2168045c-0.0125771,0.1417084-0.0246048,0.278595-0.0362644,0.4100189
				c-0.006609,0.2646599-0.021574,0.5043259-0.0160656,0.7188835c0.0087223,0.2144432,0.0078945,0.4004478,0.0222168,0.5517006
				c0.0296555,0.3026466,0.0466404,0.4756165,0.0466404,0.4756165s-0.0042248-0.1732903-0.0117531-0.4765091
				c-0.0031204-0.1515999,0.0112934-0.3355637,0.0179043-0.5466537c0.0097313-0.2109756,0.0420475-0.4475212,0.0672035-0.706192
				c0.0207481-0.1283264,0.0423241-0.2619743,0.064724-0.4003296c0.011385-0.0691795,0.022953-0.1394806,0.0346127-0.2108841
				c0.0155163-0.070694,0.0313072-0.1424408,0.0472813-0.2152023c0.032959-0.1452179,0.0624294-0.2954865,0.1005306-0.4471283
				c0.0417728-0.1507263,0.0843716-0.3047142,0.1277065-0.4613152c0.0394764-0.1578217,0.0989685-0.312336,0.150198-0.4714851
				c0.0536156-0.158371,0.1037445-0.3202286,0.1700306-0.4775658c0.0627041-0.1586685,0.1259613-0.3186226,0.1893997-0.4791946
				c0.0717945-0.156971,0.1439571-0.3146057,0.2161179-0.4721947c0.0686722-0.1592865,0.1514835-0.3116913,0.2317257-0.4645042
				c0.0728951-0.1337204,0.1392727-0.270195,0.2151985-0.400425l-0.0816174-0.8938026L30.4420433,38.3600426z"/>
		</g>
		<linearGradient id="SVGID_15_" gradientUnits="userSpaceOnUse" x1="31.1633034" y1="47.5762405" x2="39.916317" y2="47.5762405">
			<stop  offset="0.005618" style="stop-color:#541614"/>
			<stop  offset="0.3249708" style="stop-color:#C6764A"/>
			<stop  offset="0.561798" style="stop-color:#F9C8AB"/>
			<stop  offset="0.7713603" style="stop-color:#C5794F"/>
			<stop  offset="0.7923077" style="stop-color:#C07146"/>
			<stop  offset="1" style="stop-color:#7C3822"/>
		</linearGradient>
		<path class="st21" d="M32.3090019,46.8098297c-0.4508533,0.7409859-0.7563725,1.4288406-0.9471798,2.064167
			c-0.017292,0.057148-0.0337448,0.1146049-0.0491829,0.171196c-0.045208,0.1644783-0.0821533,0.3257561-0.1125298,0.4831772
			c-0.0645027,0.6350174-0.1213875,2.1016197,0.5423946,3.1688118c0.1711521,0.2757912,0.4742165,0.5776863,0.7964096,0.814518
			c0.2279015-0.2760124,0.7632942-0.9321785,1.2253571-1.4992485c-2.9260998-1.2451859-1.1349258-7.8848343,5.4980011-10.154747
			c0.2435913-0.0833511,0.4225006-0.1435204,0.4761658-0.1635246c0.0142937-0.0052338,0.1203079-0.033226,0.1203079-0.033226
			l0.0575714-0.0201721C39.916317,41.6407814,35.0153275,42.3618927,32.3090019,46.8098297z"/>
	</g>
	<g>
		<g>
			<polygon class="st3" points="49.2215042,57.5433121 51.9456902,42.0398788 55.3334045,42.0398788 53.1585541,54.3780899 
				59.6186028,54.3780899 59.0717964,57.5433121 			"/>
			<polygon class="st3" points="60.3878212,57.5433121 63.112011,42.0398788 73.4825897,42.0398788 72.9357834,45.205101 
				65.9507599,45.205101 65.4531174,48.0626945 71.1837921,48.0626945 70.6343842,51.1860542 64.9028854,51.1860542 
				64.3269577,54.3780899 71.307663,54.3780899 70.7610855,57.5433121 			"/>
			<path class="st3" d="M81.3686829,57.5433121l-0.4391708-3.5759392h-4.6344681l-1.6938934,3.5759392h-3.6674042
				l7.663002-15.5034332h4.1149216l2.2149277,15.5034332H81.3686829z M80.5308609,50.802002l-0.554924-4.5418777
				L77.814415,50.802002H80.5308609z"/>
			<path class="st3" d="M88.5890884,57.5433121c-1.0998688,0-1.8667755-0.2773857-2.3442383-0.8478012
				c-0.4916077-0.5875511-0.6303024-1.4341621-0.4236755-2.5884018l1.5472336-8.7820854
				c0.3670654-2.1787262,1.6431656-3.2851448,3.7926941-3.2851448h4.8097305c1.0965881,0,1.8630524,0.2760468,2.3431854,0.8439293
				c0.4951859,0.5853157,0.6411819,1.4319267,0.4464722,2.5881042l-0.3788376,2.096489h-3.383316l0.3581314-2.0947037
				c0.0254745-0.1376495,0.0266647-0.2133293,0.0239792-0.2508698c-0.0324707-0.0078964-0.0945969-0.0177269-0.2042389-0.0177269
				h-4.0151062c-0.3165665,0-0.3959732,0.0372429-0.4504929,0.4047585l-1.5076065,8.5024643
				c-0.0256271,0.138546-0.0245819,0.2122841-0.0208588,0.2465477c0.0296478,0.008194,0.0901337,0.0192184,0.201561,0.0192184
				h4.0151138c0.3313141,0,0.4025192-0.0336685,0.4740295-0.4201012l0.3700485-2.1026001h-3.0339813l0.5523911-3.0816498h6.3959961
				l-0.9446411,5.4829407c-0.3904572,2.1817017-1.6734085,3.2866325-3.8138428,3.2866325H88.5890884z"/>
			<path class="st3" d="M101.7835922,57.5433121c-1.0998611,0-1.8667755-0.2773857-2.3442307-0.8478012
				c-0.4916153-0.5875511-0.6303024-1.4341621-0.4236832-2.5884018l2.1116867-12.0672302h3.3876419l-2.1173477,12.0715523
				c-0.0257721,0.1392899-0.0247345,0.2131767-0.0210037,0.2474403c0.0296402,0.008194,0.090126,0.0192184,0.201561,0.0192184
				h4.0151062c0.3313141,0,0.4025269-0.0336685,0.4740295-0.4201012l2.0903854-11.9181099h3.3871918l-2.1380539,12.2178421
				c-0.3901596,2.1806602-1.673111,3.2855911-3.8135529,3.2855911H101.7835922z"/>
			<polygon class="st3" points="112.0166702,57.5433121 114.7407837,42.0398788 125.1115189,42.0398788 124.5646362,45.205101 
				117.5794601,45.205101 117.0820389,48.0626945 122.8125687,48.0626945 122.2633057,51.1860542 116.5317383,51.1860542 
				115.9558029,54.3780899 122.9363632,54.3780899 122.3897858,57.5433121 			"/>
			<polygon class="st3" points="130.83638,57.5433121 132.9135132,45.7162247 129.8393097,46.6994438 130.3815765,43.6247978 
				134.3208618,42.0398788 136.9478455,42.0398788 134.2237244,57.5433121 			"/>
		</g>
		<g>
			
				<linearGradient id="SVGID_16_" gradientUnits="userSpaceOnUse" x1="49.8673553" y1="49.3590851" x2="60.2644539" y2="49.3590851">
				<stop  offset="0.005618" style="stop-color:#541614"/>
				<stop  offset="0.3249708" style="stop-color:#C6764A"/>
				<stop  offset="0.561798" style="stop-color:#F9C8AB"/>
				<stop  offset="0.7713603" style="stop-color:#C5794F"/>
				<stop  offset="0.7923077" style="stop-color:#C07146"/>
				<stop  offset="1" style="stop-color:#7C3822"/>
			</linearGradient>
			<polygon class="st22" points="49.8673553,57.1108017 52.5915451,41.6073685 55.9792557,41.6073685 53.8044052,53.9455795 
				60.2644539,53.9455795 59.7176514,57.1108017 			"/>
			
				<linearGradient id="SVGID_17_" gradientUnits="userSpaceOnUse" x1="61.0336761" y1="49.3590851" x2="74.1284409" y2="49.3590851">
				<stop  offset="0.005618" style="stop-color:#541614"/>
				<stop  offset="0.3249708" style="stop-color:#C6764A"/>
				<stop  offset="0.561798" style="stop-color:#F9C8AB"/>
				<stop  offset="0.7713603" style="stop-color:#C5794F"/>
				<stop  offset="0.7923077" style="stop-color:#C07146"/>
				<stop  offset="1" style="stop-color:#7C3822"/>
			</linearGradient>
			<polygon class="st23" points="61.0336761,57.1108017 63.7578621,41.6073685 74.1284409,41.6073685 73.5816422,44.7725906 
				66.596611,44.7725906 66.0989685,47.6301842 71.8296509,47.6301842 71.2802353,50.7535439 65.5487366,50.7535439 
				64.9728088,53.9455795 71.9535217,53.9455795 71.4069366,57.1108017 			"/>
			
				<linearGradient id="SVGID_18_" gradientUnits="userSpaceOnUse" x1="71.5795975" y1="49.3590851" x2="85.5724487" y2="49.3590851">
				<stop  offset="0.005618" style="stop-color:#541614"/>
				<stop  offset="0.3249708" style="stop-color:#C6764A"/>
				<stop  offset="0.561798" style="stop-color:#F9C8AB"/>
				<stop  offset="0.7713603" style="stop-color:#C5794F"/>
				<stop  offset="0.7923077" style="stop-color:#C07146"/>
				<stop  offset="1" style="stop-color:#7C3822"/>
			</linearGradient>
			<path class="st24" d="M82.014534,57.1108017l-0.4391708-3.5759392h-4.6344681l-1.6938858,3.5759392h-3.6674118
				l7.663002-15.5034332h4.1149216l2.2149277,15.5034332H82.014534z M81.176712,50.3694916l-0.554924-4.5418777
				l-2.1615143,4.5418777H81.176712z"/>
			
				<linearGradient id="SVGID_19_" gradientUnits="userSpaceOnUse" x1="86.3745041" y1="49.3590851" x2="99.4896011" y2="49.3590851">
				<stop  offset="0.005618" style="stop-color:#541614"/>
				<stop  offset="0.3249708" style="stop-color:#C6764A"/>
				<stop  offset="0.561798" style="stop-color:#F9C8AB"/>
				<stop  offset="0.7713603" style="stop-color:#C5794F"/>
				<stop  offset="0.7923077" style="stop-color:#C07146"/>
				<stop  offset="1" style="stop-color:#7C3822"/>
			</linearGradient>
			<path class="st25" d="M89.2349396,57.1108017c-1.0998611,0-1.8667755-0.2773857-2.3442307-0.8478012
				c-0.4916153-0.5875473-0.6303024-1.4341621-0.4236832-2.5884018l1.5472336-8.7820854
				c0.3670654-2.1787224,1.6431656-3.2851448,3.7926941-3.2851448h4.8097305c1.0965881,0,1.8630524,0.2760468,2.3431931,0.8439331
				c0.4951782,0.5853119,0.6411743,1.4319229,0.4464645,2.5881004l-0.3788376,2.0964928h-3.383316l0.3581314-2.0947075
				c0.0254745-0.1376495,0.0266647-0.2133255,0.0239868-0.2508698c-0.0324783-0.0078926-0.0945969-0.0177269-0.2042465-0.0177269
				h-4.0151062c-0.3165665,0-0.3959732,0.0372429-0.4504929,0.4047585l-1.5076065,8.5024643
				c-0.0256195,0.138546-0.0245819,0.2122879-0.0208511,0.2465515c0.0296402,0.008194,0.090126,0.0192146,0.2015533,0.0192146
				h4.0151138c0.3313141,0,0.4025269-0.0336647,0.4740295-0.4201012l0.3700485-2.1026001h-3.0339737l0.5523911-3.081646h6.3959885
				l-0.9446335,5.4829369c-0.3904572,2.1817055-1.6734085,3.2866325-3.8138504,3.2866325H89.2349396z"/>
			
				<linearGradient id="SVGID_20_" gradientUnits="userSpaceOnUse" x1="99.5690079" y1="49.3590851" x2="113.1907806" y2="49.3590851">
				<stop  offset="0.005618" style="stop-color:#541614"/>
				<stop  offset="0.3249708" style="stop-color:#C6764A"/>
				<stop  offset="0.561798" style="stop-color:#F9C8AB"/>
				<stop  offset="0.7713603" style="stop-color:#C5794F"/>
				<stop  offset="0.7923077" style="stop-color:#C07146"/>
				<stop  offset="1" style="stop-color:#7C3822"/>
			</linearGradient>
			<path class="st26" d="M102.4294434,57.1108017c-1.0998611,0-1.8667755-0.2773857-2.3442307-0.8478012
				c-0.4916077-0.5875473-0.6303024-1.4341621-0.4236755-2.5884018l2.1116867-12.0672302h3.3876343l-2.1173477,12.0715523
				c-0.0257721,0.1392899-0.0247269,0.2131805-0.0210037,0.2474442c0.0296478,0.008194,0.090126,0.0192146,0.201561,0.0192146
				h4.0151062c0.3313141,0,0.4025269-0.0336647,0.4740372-0.4201012l2.0903778-11.9181099h3.3871918l-2.1380539,12.2178421
				c-0.3901596,2.1806641-1.673111,3.2855911-3.8135529,3.2855911H102.4294434z"/>
			<linearGradient id="SVGID_21_" gradientUnits="userSpaceOnUse" x1="112.662529" y1="49.3590851" x2="125.75737" y2="49.3590851">
				<stop  offset="0.005618" style="stop-color:#541614"/>
				<stop  offset="0.3249708" style="stop-color:#C6764A"/>
				<stop  offset="0.561798" style="stop-color:#F9C8AB"/>
				<stop  offset="0.7713603" style="stop-color:#C5794F"/>
				<stop  offset="0.7923077" style="stop-color:#C07146"/>
				<stop  offset="1" style="stop-color:#7C3822"/>
			</linearGradient>
			<polygon class="st27" points="112.662529,57.1108017 115.3866425,41.6073685 125.75737,41.6073685 125.2104874,44.7725906 
				118.2253113,44.7725906 117.72789,47.6301842 123.4584198,47.6301842 122.9091644,50.7535439 117.1775894,50.7535439 
				116.6016617,53.9455795 123.582222,53.9455795 123.0356369,57.1108017 			"/>
			
				<linearGradient id="SVGID_22_" gradientUnits="userSpaceOnUse" x1="130.4851685" y1="49.3590851" x2="137.593689" y2="49.3590851">
				<stop  offset="0.005618" style="stop-color:#541614"/>
				<stop  offset="0.3249708" style="stop-color:#C6764A"/>
				<stop  offset="0.561798" style="stop-color:#F9C8AB"/>
				<stop  offset="0.7713603" style="stop-color:#C5794F"/>
				<stop  offset="0.7923077" style="stop-color:#C07146"/>
				<stop  offset="1" style="stop-color:#7C3822"/>
			</linearGradient>
			<polygon class="st28" points="131.4822388,57.1108017 133.5593567,45.2837181 130.4851685,46.2669373 131.02742,43.1922913 
				134.9667053,41.6073685 137.593689,41.6073685 134.8695831,57.1108017 			"/>
		</g>
		<g>
			<path class="st0" d="M52.9545898,42.0398788h2.509346l-2.1748199,12.3382111h6.4618492l-0.3973999,2.3003006h-8.9711914
				L52.9545898,42.0398788z"/>
			<path class="st0" d="M64.1208878,42.0398788h9.494072l-0.3973999,2.3003006h-6.9845963l-0.6482239,3.7224998h5.7297897
				l-0.3972626,2.2583847h-5.7299271l-0.731926,4.0570259h6.9845963l-0.3972626,2.3003006h-9.4940758L64.1208878,42.0398788z"/>
			<path class="st0" d="M81.9579468,53.1023254h-5.290741l-1.6938553,3.5760651H72.27565l7.2355576-14.6385117h3.4714127
				l2.0912476,14.6385117h-2.6767349L81.9579468,53.1023254z M81.6652069,50.8020287l-0.7946701-6.5034981l-3.0949631,6.5034981
				H81.6652069z"/>
			<path class="st0" d="M86.8926697,53.7506866l1.5475464-8.7831039c0.3345261-1.9864655,1.421936-2.9277039,3.3667526-2.9277039
				h4.8097763c1.9448166,0,2.6977005,0.9412384,2.3631744,2.9277039l-0.3136978,1.7357712h-2.5094833l0.2717896-1.5893326
				c0.1046524-0.5645294-0.0417862-0.7738419-0.6064453-0.7738419h-4.0151138c-0.5437088,0-0.7946701,0.2093124-0.8782272,0.7738419
				l-1.5056381,8.4902267c-0.1046524,0.5648003,0.0627441,0.7738419,0.6064453,0.7738419h4.0151138
				c0.5645294,0,0.7946625-0.2090416,0.8991852-0.7738419l0.4600067-2.6138649h-3.0322266l0.3973999-2.2167358h5.520752
				l-0.8574066,4.9770393c-0.355484,1.9867325-1.442894,2.9277039-3.3877106,2.9277039h-4.8097763
				C87.2900696,56.6783905,86.5371857,55.7374191,86.8926697,53.7506866z"/>
			<path class="st0" d="M100.0872116,53.7506866l2.0493393-11.7108078h2.5094757l-2.0283813,11.5643692
				c-0.1046524,0.5648003,0.0627441,0.7738419,0.6064453,0.7738419h4.0151138c0.5643921,0,0.7946701-0.2090416,0.8991928-0.7738419
				l2.0283737-11.5643692h2.509346l-2.0493393,11.7108078c-0.355484,1.9867325-1.4638519,2.9277039-3.3875732,2.9277039h-4.8097763
				C100.4846115,56.6783905,99.7317276,55.7374191,100.0872116,53.7506866z"/>
			<path class="st0" d="M115.7497177,42.0398788h9.4940796l-0.3973999,2.3003006h-6.9847336l-0.6480942,3.7224998h5.72966
				l-0.3971329,2.2583847h-5.7299271l-0.731926,4.0570259h6.9844666l-0.3971329,2.3003006h-9.494072L115.7497177,42.0398788z"/>
			<path class="st0" d="M134.1091156,44.6540146l-3.0738678,0.9828873l0.3764496-2.1331711l3.6386719-1.4638519h2.0283661
				l-2.5722198,14.6385117h-2.5093384L134.1091156,44.6540146z"/>
		</g>
	</g>
</g>
</svg>
