<?xml version="1.0" encoding="utf-8"?>
<!-- Generator: Adobe Illustrator 25.3.0, SVG Export Plug-In . SVG Version: 6.00 Build 0)  -->
<svg version="1.1" id="Layer_1" xmlns="http://www.w3.org/2000/svg" xmlns:xlink="http://www.w3.org/1999/xlink" x="0px" y="0px"
	 viewBox="0 0 120 90" style="enable-background:new 0 0 120 90;" xml:space="preserve">
<style type="text/css">
	.st0{fill:url(#SVGID_1_);}
	.st1{fill:url(#SVGID_2_);}
	.st2{fill:url(#SVGID_3_);}
	.st3{fill:url(#SVGID_4_);}
	.st4{fill:url(#SVGID_5_);}
	.st5{fill:url(#SVGID_6_);}
	.st6{fill:url(#SVGID_7_);}
	.st7{fill:url(#SVGID_8_);}
	.st8{fill:url(#SVGID_9_);}
</style>
<g>
	<g>
		<g>
			
				<radialGradient id="SVGID_1_" cx="64.0669022" cy="84.9335709" r="67.580162" gradientTransform="matrix(1.3659163 0 0 1.3659163 -21.954977 -16.4662323)" gradientUnits="userSpaceOnUse">
				<stop  offset="0" style="stop-color:#FBBD00"/>
				<stop  offset="0.357576" style="stop-color:#E20613"/>
				<stop  offset="0.660606" style="stop-color:#BD1622"/>
				<stop  offset="1" style="stop-color:#640E06"/>
			</radialGradient>
			<path class="st0" d="M64.5575562,66.6722107c-1.9491577,0-3.5287514-1.5795898-3.5287514-3.5287437V30.3632317
				c0-1.9487286,1.5795937-3.5287476,3.5287514-3.5287476c1.9487686,0,3.5287857,1.580019,3.5287857,3.5287476v32.7802353
				C68.0863419,65.0926208,66.5063248,66.6722107,64.5575562,66.6722107z"/>
		</g>
		
			<radialGradient id="SVGID_2_" cx="64.06707" cy="84.9347992" r="67.5814819" gradientTransform="matrix(1.3659163 0 0 1.3659163 -21.954977 -16.4662323)" gradientUnits="userSpaceOnUse">
			<stop  offset="0" style="stop-color:#FBBD00"/>
			<stop  offset="0.357576" style="stop-color:#E20613"/>
			<stop  offset="0.660606" style="stop-color:#BD1622"/>
			<stop  offset="1" style="stop-color:#640E06"/>
		</radialGradient>
		<path class="st1" d="M56.6690788,11.7288485c-6.4476891,0.6405802-12.3645782,3.112236-17.2156487,6.8941679l3.999321,5.7165279
			c3.7195702-2.9800663,8.2571831-4.9791088,13.2163277-5.6034718V11.7288485z"/>
		
			<radialGradient id="SVGID_3_" cx="84.8064804" cy="87.9927902" r="73.3087387" gradientTransform="matrix(1.3659163 0 0 1.3659163 -21.954977 -16.4662323)" gradientUnits="userSpaceOnUse">
			<stop  offset="0" style="stop-color:#9C9B9B"/>
			<stop  offset="0.672727" style="stop-color:#3C3C3B"/>
			<stop  offset="1" style="stop-color:#1D1D1B"/>
		</radialGradient>
		<path class="st2" d="M61.6564903,11.6000004v6.9822807C75.5050964,19.4410992,86.509552,30.9738884,86.509552,45.0349045
			c0,14.6176147-11.8915329,26.5100021-26.5095749,26.5100021c-0.7162209,0-1.4253731-0.0291138-2.1278877-0.08564
			l4.8560524,6.9407349c17.1878052-1.3925552,30.749176-15.8247948,30.749176-33.365097
			C93.4773178,27.1313,79.34935,12.4666929,61.6564903,11.6000004z"/>
		
			<radialGradient id="SVGID_4_" cx="64.0674591" cy="84.9338303" r="67.580246" gradientTransform="matrix(1.3659163 0 0 1.3659163 -21.954977 -16.4662323)" gradientUnits="userSpaceOnUse">
			<stop  offset="0" style="stop-color:#FBBD00"/>
			<stop  offset="0.357576" style="stop-color:#E20613"/>
			<stop  offset="0.660606" style="stop-color:#BD1622"/>
			<stop  offset="1" style="stop-color:#640E06"/>
		</radialGradient>
		<path class="st3" d="M56.588459,25.8875542c-1.9246368,0-3.4838829,1.5600548-3.4838829,3.4834576v22.6058636
			l-14.6180382-22.413805c0.001236-0.0017033,0.0025101-0.003746,0.0033188-0.005022L38.39217,29.4183865l-0.9826889-1.506464
			c-0.1405106-0.2161522-0.3021774-0.4085941-0.4784431-0.5819244l-2.6163368-3.7399616
			c-4.8614597,5.8125591-7.7920227,13.2924404-7.7920227,21.4448681c0,16.336483,11.7635002,29.9755859,27.2640228,32.8966141
			l-6.9016151-9.8650894C38.890152,63.4963837,33.489975,54.8846207,33.489975,45.0349045
			c0-2.9073219,0.4713821-5.7052917,1.3405838-8.3245239L53.6703262,65.59729
			c0.6547127,1.0042648,1.7629242,1.5812531,2.9185143,1.5812531c0.3296776,0,0.6634407-0.0469971,0.9918404-0.1446457
			c1.4777718-0.4394073,2.4912338-1.7978745,2.4912338-3.3396645V29.3710117
			C60.0719147,27.4476089,58.5118179,25.8875542,56.588459,25.8875542z"/>
		<g>
			<linearGradient id="SVGID_5_" gradientUnits="userSpaceOnUse" x1="40.0975456" y1="63.7561378" x2="40.0975456" y2="27.2313175">
				<stop  offset="0" style="stop-color:#FFFFFF"/>
				<stop  offset="1" style="stop-color:#FFFFFF;stop-opacity:0"/>
			</linearGradient>
			<path class="st4" d="M52.2819405,52.9998703L36.1915321,28.3297119
				c-0.0785789-0.1209736-0.1741791-0.2365417-0.2843437-0.3454266l-0.0935173-0.0922832l-1.5962372-2.2812996
				c-4.0783215,5.5011864-6.3042812,12.201252-6.3042812,19.0663033c0,1.8173714,0.1550236,3.6035805,0.4497528,5.3482018
				c1.4407845,0.4128113,2.9243488,0.787735,4.4466038,1.1203041c-0.5033875-2.0967331-0.7681923-4.2649727-0.7681923-6.4685059
				c0-2.9946251,0.4751244-5.946003,1.4129028-8.7705765l0.9270096-2.7950745l12.940712,19.8419914
				c1.0978279,0.0407372,2.205658,0.0631676,3.3221741,0.0631676
				C51.1924133,53.0165138,51.7373886,53.0098724,52.2819405,52.9998703z"/>
			<linearGradient id="SVGID_6_" gradientUnits="userSpaceOnUse" x1="56.5587273" y1="63.7556992" x2="56.5587273" y2="27.2315311">
				<stop  offset="0" style="stop-color:#FFFFFF"/>
				<stop  offset="1" style="stop-color:#FFFFFF;stop-opacity:0"/>
			</linearGradient>
			<path class="st5" d="M56.5593452,26.9491997c-1.1389885,0-2.064724,0.9257336-2.064724,2.0642967V52.932106
				c1.3937912-0.0598488,2.7705574-0.1542168,4.1282082-0.2780876v-23.640522
				C58.6228294,27.8749332,57.6974831,26.9491997,56.5593452,26.9491997z"/>
			<linearGradient id="SVGID_7_" gradientUnits="userSpaceOnUse" x1="49.022316" y1="63.7551727" x2="49.022316" y2="27.2313213">
				<stop  offset="0" style="stop-color:#FFFFFF"/>
				<stop  offset="1" style="stop-color:#FFFFFF;stop-opacity:0"/>
			</linearGradient>
			<path class="st6" d="M56.6690788,12.7913456c-5.5244675,0.5611525-10.7409286,2.5269499-15.2935219,5.7867641
				l2.3669434,3.3828716c3.8168335-2.7293949,8.2829361-4.4553299,12.9265785-5.0140133V12.7913456z"/>
			<linearGradient id="SVGID_8_" gradientUnits="userSpaceOnUse" x1="76.6983185" y1="63.7553444" x2="76.6983185" y2="27.2316074">
				<stop  offset="0" style="stop-color:#FFFFFF"/>
				<stop  offset="1" style="stop-color:#FFFFFF;stop-opacity:0"/>
			</linearGradient>
			<path class="st7" d="M61.6564903,12.6670523v4.1368933c14.1844978,0.8492832,25.5497932,12.3276291,26.211956,26.5607433
				c1.4108582-0.9419518,2.7052994-1.938343,3.8717041-2.9821548
				C89.7078629,25.2756634,77.1142349,13.4722366,61.6564903,12.6670523z"/>
			<linearGradient id="SVGID_9_" gradientUnits="userSpaceOnUse" x1="64.5284576" y1="63.7563896" x2="64.5284576" y2="27.2315845">
				<stop  offset="0" style="stop-color:#FFFFFF"/>
				<stop  offset="1" style="stop-color:#FFFFFF;stop-opacity:0"/>
			</linearGradient>
			<path class="st8" d="M64.5280533,27.8957481c-1.1630783,0-2.1091995,0.9465046-2.1091995,2.1095867v22.215147
				c1.4328651-0.197464,2.8399811-0.430645,4.2192154-0.696682v-21.518465
				C66.6380692,28.8422527,65.6915665,27.8957481,64.5280533,27.8957481z"/>
		</g>
	</g>
</g>
</svg>
