<?xml version="1.0" encoding="utf-8"?>
<!-- Generator: Adobe Illustrator 25.3.0, SVG Export Plug-In . SVG Version: 6.00 Build 0)  -->
<svg version="1.1" id="Layer_1" xmlns="http://www.w3.org/2000/svg" xmlns:xlink="http://www.w3.org/1999/xlink" x="0px" y="0px"
	 viewBox="0 0 400 200" style="enable-background:new 0 0 400 200;" xml:space="preserve">
<style type="text/css">
	.st0{fill:#FFFFFF;}
</style>
<g>
	<path class="st0" d="M38.1532021,89.5199661c2.338459,0.4033737,4.6874466,0.8085785,7.12323,1.2287445
		c-0.1515846,0.8222275-0.2904129,1.5308762-0.412178,2.2424393c-2.0426636,11.9365845,0.7833557,22.5814133,8.6984634,31.7484741
		c5.9818993,6.9280701,13.6268196,11.102829,22.6712456,12.4219971c20.7322083,3.02388,38.2689209-10.6135864,42.3962402-28.7723083
		c4.7438354-20.8711624-8.5958633-40.7288513-28.53936-45.1509476c-8.2202988-1.8227043-16.1058655-0.8148651-23.7103729,2.6996994
		c-3.6853638,1.7032623-7.0730591,3.8704376-10.1285706,6.5499191c-0.150116,0.1316452-0.3159752,0.2453308-0.5849876,0.4524536
		c-1.6297798-1.8338242-3.2415924-3.6474228-4.8517303-5.4591446c10.6865349-10.6629715,32.6417198-18.2242546,53.1947899-6.7320137
		c20.7795792,11.6188927,28.9151077,37.6775246,18.3315353,59.0684319
		c-10.6885986,21.603157-36.1377258,30.9354935-58.0882797,21.5348434
		C41.5145454,131.6143646,33.3368607,107.7862396,38.1532021,89.5199661z"/>
	<path class="st0" d="M57.8994637,93.0526657c5.9029312,0.9859924,11.8256874,1.9753036,17.7484474,2.9646072
		c0.0539169-0.0858841,0.1078339-0.1717834,0.1617432-0.2576675c-1.8054047-2.2637558-3.8162308-4.3560867-5.7194061-6.5372543
		c-1.923996-2.2050171-3.8843384-4.3783188-5.8229675-6.5590134c7.1221924-7.3372803,20.5265656-9.6306458,30.8586426-2.0361633
		c10.1749649,7.4789886,12.8071899,21.699646,5.9766159,32.2952728
		c-6.9245148,10.7413406-20.9740219,14.271019-32.0506821,8.0215302
		C57.2751503,114.2995224,54.9117622,101.0094681,57.8994637,93.0526657z"/>
	<path class="st0" d="M242.1600037,60.4446907c3.1036987,0,6.0699158,0,9.2108917,0
		c0,0.5185547-0.0000305,0.992466-0.0000305,1.4663811c0.000061,7.5836563,0.0047455,15.1673126-0.0034027,22.7509613
		c-0.0017853,1.6447678,0.1980286,3.2532272,0.7584076,4.8030014c1.1832581,3.2727432,3.5261383,5.13311,6.9734344,5.4758377
		c1.280304,0.1272736,2.6206665,0.1159821,3.8813782-0.1159668c3.2109985-0.5907745,5.2878723-2.5634079,6.2692566-5.6708984
		c0.4452515-1.4096909,0.5887146-2.8642807,0.586731-4.3424759c-0.0101013-7.5836411-0.0046387-15.167305-0.0046082-22.7509613
		c0-0.4842148,0-0.9684334,0-1.6038666c3.0680847-0.1268921,6.0617371-0.0264816,9.1501465-0.0641785
		c0.0429077,0.359684,0.1113892,0.6666832,0.1114807,0.9737129c0.0036621,8.1952248,0.0161133,16.3905067-0.0118408,24.5856438
		c-0.0082397,2.4209976-0.4673157,4.7848663-1.3037415,7.0579453c-1.8137207,4.9289703-5.2606812,8.16922-10.2851257,9.6600342
		c-4.3939209,1.3037033-8.8545227,1.3599319-13.2794189,0.2008743c-6.3329468-1.6588745-10.1019135-5.8557053-11.5158691-12.1739578
		c-0.361969-1.6173096-0.5553131-3.3051682-0.5671082-4.9624634c-0.0571899-8.0317383-0.0267792-16.0641174-0.0242157-24.0962677
		C242.1064911,61.2780075,242.1378784,60.9179764,242.1600037,60.4446907z"/>
	<path class="st0" d="M327.3410645,102.8818665c-0.4177856,0.0313263-0.649231,0.0634384-0.8807983,0.0637741
		c-2.6077576,0.0037613-5.2159119-0.0217972-7.8230286,0.0186768c-0.7208862,0.0111847-1.0891418-0.2072372-1.3560181-0.8975525
		c-0.9540405-2.4680023-1.9760437-4.9097977-2.975708-7.3601303c-0.1684875-0.4129715-0.3535461-0.8191833-0.5460815-1.2635574
		c-6.0119324,0-11.9932251,0-18.0976257,0c-1.282135,3.121315-2.5773621,6.2746429-3.8822937,9.4515762
		c-3.1046143,0-6.1490173,0-9.1951294,0c0.0679321-1.0076981,15.5122375-37.7088242,17.9660034-42.6983719
		c2.7963257,0,5.6344604,0,8.6289978,0C315.1993103,74.3449631,321.2463074,88.5572739,327.3410645,102.8818665z
		 M299.0363464,85.1055527c3.8854675,0,7.5299683,0,11.3508606,0c-1.8653259-4.6050797-3.6873169-9.0884247-5.55896-13.5512619
		c-0.0840149,0.0096054-0.1679688,0.0192032-0.2519836,0.028801
		C302.7502747,76.0401535,300.9243164,80.4972229,299.0363464,85.1055527z"/>
	<path class="st0" d="M202.1755371,96.783493c1.8343353-2.1983032,3.6044464-4.319603,5.4414215-6.5210342
		c0.3828735,0.2761459,0.7393036,0.5223618,1.084259,0.7837219c2.4960785,1.8912888,5.191803,3.3701782,8.2971344,3.988327
		c1.8492279,0.368103,3.7146149,0.5427933,5.5762177,0.1293793c0.7071991-0.1570511,1.4076996-0.4086838,2.0643768-0.7170486
		c2.4381714-1.1449738,2.7095947-4.9856567,0.1748505-6.2771149c-1.1911163-0.6068802-2.4337006-1.149353-3.7065887-1.5511398
		c-2.2888489-0.7224808-4.6435699-1.2396469-6.9220886-1.9903488c-1.6934204-0.5579224-3.3791199-1.2205582-4.9464111-2.0632172
		c-3.3469238-1.799469-5.0653839-4.6833115-5.3244781-8.4933014c-0.1176605-1.7301178-0.0389557-3.4210663,0.4399414-5.074501
		c1.0270081-3.5458603,3.34935-5.9909248,6.6240387-7.5828857c2.4295044-1.1810799,5.0353699-1.6524696,7.7020569-1.649128
		c3.7856598,0.0047455,7.4632721,0.675293,10.8945618,2.3479271c1.2405396,0.6047058,2.4137573,1.3508949,3.5994263,2.062912
		c0.4470825,0.2684631,0.8424988,0.6228714,1.3395386,0.9968567c-1.6098022,2.3368378-3.1745911,4.6083527-4.7930145,6.9577255
		c-0.6030884-0.37397-1.1470947-0.7151871-1.6948395-1.0502777c-2.3831329-1.4578781-4.8953552-2.5892715-7.6888733-2.9849243
		c-1.3822174-0.1957703-2.7699127-0.2053452-4.1207275,0.1836166c-1.5274811,0.4398422-2.7735291,1.2324295-3.0775452,2.9501114
		c-0.2459412,1.3895187,0.09375,2.6242523,1.2892761,3.4504166c0.6948853,0.4801788,1.4742432,0.890686,2.2741852,1.1557388
		c1.8916626,0.62677,3.8282166,1.1167984,5.7281647,1.7202148c2.0155182,0.6401138,4.0279083,1.2992096,6.0050812,2.0467987
		c0.9046326,0.3420486,1.7541809,0.8655014,2.5725708,1.393692c3.155304,2.0364609,4.7522583,4.9725876,4.7605133,8.7117462
		c0.0031281,1.4141312-0.0810852,2.8669357-0.4052429,4.2358627c-0.8730469,3.6870728-3.2012939,6.242485-6.5818481,7.877037
		c-1.7789612,0.8601456-3.6658936,1.3926468-5.618927,1.5764999c-7.3742828,0.6942444-14.0570831-1.096199-19.9211578-5.7059174
		C202.8957825,97.419548,202.5709839,97.1213989,202.1755371,96.783493z"/>
	<path class="st0" d="M137.9734955,60.4606094c3.4976196,0,6.8219604,0,10.2496185,0
		c3.6646423,9.86483,7.3344574,19.7435532,10.9894867,29.58255c0.1112976,0.0229187,0.1464233,0.0393448,0.1781921,0.0343475
		c0.0384674-0.006073,0.0885315-0.0201569,0.1083069-0.048439c0.0687714-0.0983963,0.1447906-0.1976624,0.1859894-0.3085022
		c3.6179504-9.7329941,7.2328796-19.4671173,10.8678284-29.2545586c3.287796,0,6.5641479,0,10.0077209,0
		c-5.7452393,14.3125191-11.4434509,28.5079079-17.15065,42.725666c-2.7951813,0-5.5119324,0-8.2846222,0
		C149.4172974,88.9709473,143.718399,74.7730942,137.9734955,60.4606094z"/>
	<path class="st0" d="M341.9878235,94.5025177c7.1942749,0,14.1516724,0,21.1872559,0c0,2.8196945,0,5.5334244,0.000824,8.247467
		c-0.8683472,0.251152-27.8399048,0.3608246-30.2606812,0.1233673c-0.2579041-0.8590622-0.316803-41.0027618-0.0491028-42.4081078
		c2.9816589,0,5.976532,0,9.1217041,0C341.9878235,71.7840729,341.9878235,83.0514603,341.9878235,94.5025177z"/>
	<path class="st0" d="M186.4186249,60.4620056c3.1025238,0,6.0995178,0,9.1671448,0c0,14.1437378,0,28.222702,0,42.4830475
		c-3.0434418,0.0059662-6.0689545,0.0059891-9.1671448-0.0008163
		C186.4186249,88.7339935,186.4186249,74.6563416,186.4186249,60.4620056z"/>
	<path class="st0" d="M201.6201324,140.0675201c-1.9908905,0-3.6532593-0.0084229-5.3154449,0.0046997
		c-0.5556793,0.0044098-0.7632751-0.4057922-1.0084686-0.7705688c-1.2946625-1.9261627-2.611557-3.838501-3.8548584-5.7974548
		c-0.4667816-0.7354431-0.9920654-1.0777435-1.8757629-1.0082703c-0.9259491,0.0727844-1.8621063,0.0162659-2.9648285,0.0162659
		c-0.0922241,2.5150604,0.0066376,4.943222-0.0602875,7.4614716c-1.6213226,0-3.1870422,0-4.7516022,0
		c-0.2839508-0.838913-0.3575439-21.7229691-0.0709686-23.1903915c0.2947235-0.0244598,0.6089172-0.0727158,0.9231873-0.0732117
		c3.1766968-0.0051117,6.3535309-0.0173187,9.5300293,0.0084686c0.8094635,0.0065765,1.6261444,0.0911255,2.4254303,0.22435
		c4.6124878,0.768837,6.9315338,4.2285995,6.2969818,8.8496017c-0.3389587,2.4684753-1.662262,4.2875519-3.896759,5.4237976
		c-0.2866669,0.1457672-0.5691833,0.2996216-0.9828033,0.5178833c0.5241547,1.0098572,1.208786,1.8563995,1.8035126,2.7546082
		c0.5843964,0.8825989,1.1933899,1.7488708,1.7901306,2.6233063
		C200.223114,138.0139923,200.8368683,138.9170837,201.6201324,140.0675201z M186.6499176,128.1403503
		c2.3042603-0.0447083,4.4996948,0.2277222,6.6685181-0.2052917c1.6754761-0.3345108,2.6296997-1.6516495,2.6007843-3.3604126
		c-0.0321655-1.9023361-1.2687683-3.1787033-3.3669891-3.2930984c-1.7459106-0.0951614-3.5002594-0.0385513-5.2508545-0.0403442
		c-0.1937103-0.0001907-0.3874664,0.0575333-0.6514587,0.0995865
		C186.6499176,123.5642853,186.6499176,125.7448959,186.6499176,128.1403503z"/>
	<path class="st0" d="M217.1708527,140.5084381c-6.094101-0.1073761-10.9804993-3.9580994-12.1153259-9.6277618
		c-1.4087067-7.0379791,3.2707672-13.5199356,10.4174194-14.4316177c3.9333191-0.5017548,7.4916229,0.3974915,10.3923798,3.1419449
		c3.4703979,3.2834015,4.5323792,7.3873901,3.3147888,11.9627991c-1.2171021,4.5735931-4.3314819,7.3531494-8.8742828,8.5230103
		C219.2910767,140.3381348,218.217392,140.3706055,217.1708527,140.5084381z M224.3627167,128.362915
		c0-0.1630096,0.0061493-0.3262787-0.0009155-0.4889755c-0.1713104-3.9510498-3.5003357-7.4543533-8.0866852-6.8903656
		c-3.2220001,0.3961945-5.5791168,2.7425842-6.1483459,6.1953049c-0.605545,3.6730347,1.6019592,7.343811,5.0303955,8.3648071
		C219.9578094,136.9733124,224.3937225,133.5166473,224.3627167,128.362915z"/>
	<path class="st0" d="M175.4156189,119.5598755c-0.9933624,1.1942673-1.9963989,2.400177-3.0233612,3.6348343
		c-0.5230713-0.3608932-0.9473572-0.6677322-1.3854523-0.9533844c-1.6294098-1.0624161-3.4213409-1.4289703-5.3511047-1.3066025
		c-2.7272644,0.1729355-5.8004761,2.4821625-6.2161102,6.5284119c-0.2616272,2.5469055,0.3971405,4.8353424,2.3272858,6.667572
		c2.6421661,2.5081635,7.1469269,2.0327911,9.2510681,0.6661987c0.2540131-0.164978,0.4671478-0.5707703,0.4898834-0.8803253
		c0.0652466-0.8885956,0.022995-1.7850952,0.022995-2.8592377c-1.7424164-0.0274506-3.4243011-0.0539551-5.1490479-0.081131
		c0-1.4337463,0-2.7282867,0-4.1760178c3.2408142-0.1504288,6.4774628-0.0360184,9.7863617-0.0644913
		c0.059021,0.3072968,0.1530914,0.5722122,0.1541595,0.8374939c0.0113678,2.8114014,0.0022278,5.622879,0.0137787,8.4342651
		c0.002121,0.5162354-0.0986176,0.9179382-0.5564117,1.256012c-4.1819153,3.088562-8.7984161,4.0648346-13.7447052,2.4523468
		c-4.9036713-1.5986023-7.4020844-5.2832489-7.8471222-10.3237305c-0.5387726-6.101944,3.4331818-11.480545,9.4190826-12.7578049
		c3.9015808-0.8325043,7.6162262-0.2830887,10.9485931,2.0771408c0.1991119,0.1410294,0.3910675,0.2941666,0.5728912,0.4567261
		C175.2155304,119.2460175,175.2711639,119.359108,175.4156189,119.5598755z"/>
	<path class="st0" d="M234.1437836,116.7528687c1.661377,0,3.1997833,0,4.8737488,0
		c0.0255737,0.4583282,0.0699158,0.8896179,0.0705414,1.3209839c0.0055237,3.8287125,0.002533,7.6574173,0.0044556,11.4861298
		c0.0002289,0.4478455-0.0102844,0.8978577,0.0274048,1.3432159c0.2981873,3.5237122,2.5957031,5.4093628,6.322113,4.8145447
		c2.1518555-0.3434906,3.5388489-1.918808,3.8234711-4.1846619c0.0910187-0.7245941,0.1016846-1.4625549,0.103653-2.194519
		c0.0098877-3.6657562,0.0045929-7.3315582,0.0046844-10.9973526c0-0.482666,0.0000305-0.965332,0.0000305-1.5407333
		c1.6913605,0,3.2529297,0,4.8954926,0c0.0268555,0.3771362,0.0735931,0.7313309,0.0739746,1.0855789
		c0.004776,4.1952896,0.0231781,8.3907547-0.0131378,12.5857315c-0.0083923,0.9691925-0.1204071,1.9573822-0.3382874,2.9013977
		c-0.9154053,3.9665222-3.5944214,6.3251038-7.868515,6.9165192c-1.7420044,0.2410278-3.4997559,0.1975861-5.2191162-0.238205
		c-3.5985413-0.9120636-5.7375793-3.244873-6.5152435-6.8375397c-0.1796875-0.830246-0.2862091-1.6928558-0.2918854-2.5414886
		c-0.0291138-4.3580093-0.0151978-8.7163239-0.0127258-13.0745392
		C234.0845947,117.3593979,234.1170044,117.1208725,234.1437836,116.7528687z"/>
	<path class="st0" d="M264.8600464,139.9945831c-1.7122803,0-3.2752075,0-4.9278564,0c0-7.7493134,0-15.4209976,0-23.1811829
		c0.2335205-0.0355301,0.4605103-0.0998611,0.687561-0.1001053c3.0942078-0.0033112,6.1891785-0.0388031,9.2823486,0.0194778
		c2.2109985,0.0416565,4.2360229,0.6870651,5.9548035,2.1672592c3.3981018,2.9264069,3.7579956,10.5012589-2.1096802,13.1177444
		c-1.3547058,0.6040802-2.7824097,0.9108734-4.2589722,0.9610901c-1.098114,0.0373535-2.1982117,0.012085-3.2973328,0.0253601
		c-0.3968201,0.004776-0.7932129,0.0405426-1.3308716,0.0698395
		C264.8600464,135.40802,264.8600464,137.6647949,264.8600464,139.9945831z M264.9221497,128.4936676
		c1.7317505,0,3.3232117,0.0868988,4.8977051-0.0387421c0.7253113-0.0578613,1.5200806-0.3977203,2.1035156-0.8445282
		c1.2597656-0.9647522,1.54245-2.3347092,1.1339111-3.8430481c-0.4161072-1.536377-1.5490417-2.2753601-3.0243225-2.4449463
		c-1.1673584-0.1341858-2.3576965-0.0776138-3.5379333-0.0856628c-0.5120239-0.0034866-1.0243225,0.0434952-1.572876,0.0692596
		C264.9221497,123.740097,264.9221497,126.0425873,264.9221497,128.4936676z"/>
</g>
</svg>
