<?xml version="1.0" encoding="utf-8"?>
<!-- Generator: Adobe Illustrator 25.3.0, SVG Export Plug-In . SVG Version: 6.00 Build 0)  -->
<svg version="1.1" id="Layer_1" xmlns="http://www.w3.org/2000/svg" xmlns:xlink="http://www.w3.org/1999/xlink" x="0px" y="0px"
	 viewBox="0 0 400 200" style="enable-background:new 0 0 400 200;" xml:space="preserve">
<style type="text/css">
	.st0{fill:none;}
	.st1{fill:#009ADE;}
	.st2{fill:#FFFFFF;}
	.st3{fill:#CE0E2D;}
</style>
<g>
	<polygon class="st0" points="194.4552917,65.5894241 194.4552917,65.5898666 194.4552917,65.5898666 	"/>
	<path class="st0" d="M190.1855469,138.3853455c-0.7155151-0.147049-1.4784241-0.2238617-2.2678833-0.2286835
		c-0.9992981-0.0061493-1.9988098-0.0076904-2.9980927-0.0076904l-1.779541,0.0010986l-1.7819672,0.0010986l-0.5903931-0.0002136
		c-0.7815704,0-1.5642395,0.0563965-2.3260498,0.16745c-1.8622894,0.2710571-2.7463531,1.1276855-2.9561768,2.864212
		c-0.2436218,2.0167999-0.161087,4.0454559-0.0375214,6.29776c0.0592499,1.0791779,0.4620056,1.8565674,1.2312775,2.376297
		c0.5910645,0.3994598,1.3232422,0.6154175,2.4480743,0.7223053c0.7040863,0.0667267,1.4090576,0.0809937,2.1170959,0.0809937
		l0.9275208-0.0057068l0.9597931-0.0057068c0.3601685,0,0.7212067,0.0037384,0.9964294,0.0147095
		c0.390686-0.0140533,0.7833252-0.0184326,1.1768646-0.0184326l0.8965607,0.0050354l0.8803406,0.0050507
		c0.8441162,0,1.8361664-0.0195312,2.7909088-0.1639557c1.8067474-0.2736816,2.6754456-1.0728149,2.9043732-2.6725922
		c0.3107758-2.1686859,0.3118744-4.4751892,0.0035095-6.8556671
		C192.5952148,139.5301514,191.7706299,138.7110596,190.1855469,138.3853455z"/>
	<path class="st0" d="M251.6536865,83.5687637c0.2475739-3.4317856,0.2372589-6.8523788-0.0309448-10.1669617
		c-0.1292877-1.600441-0.6742554-2.8363342-1.6656342-3.7787781c-0.9573822-0.9097443-2.1798706-1.483902-4.0878143-1.9195709
		c-2.9320221-0.6691971-5.9051056-0.768837-8.6813049-0.776741c-2.7151794-0.0076828-5.4316711-0.0098724-8.1468658-0.0098724
		l-5.6349182,0.0021896l-5.6362305,0.0021973h-4.0197754l-4.019989,0.0002213
		c-4.8191223,0-9.6378021-0.0010986-14.5117798-0.0065842c0.0151367,7.8852463,0.014267,15.7715912,0.0035095,23.6961212
		l20.5994873-0.0217285c8.0331726-0.0065842,16.0663452-0.0131683,24.0995331-0.0269928
		c2.5093079-0.003952,4.6953278-0.3129807,6.6831512-0.9441986
		C249.7810822,88.6093369,251.4328918,86.6305008,251.6536865,83.5687637z"/>
	<path class="st0" d="M285.7153931,147.452713c0.1604309-2.1267548,0.1542969-4.253067-0.018219-6.3199158
		c-0.1376038-1.6491699-0.8243713-2.4302979-2.4489441-2.7858582c-0.3044128-0.0667114-0.6176147-0.0998535-0.9281921-0.129715
		c-0.6255188-0.059906-1.2521362-0.0724182-1.8822632-0.0724182l-0.8397217,0.0050507l-0.8748474,0.0052643
		c-0.3320618,0-0.6654663-0.0032959-0.9095154-0.0140533c-0.3625793,0.0138245-0.7278137,0.018219-1.0945435,0.018219
		l-0.7903442-0.0043945l-0.7745667-0.0043793c-0.6340637,0-1.2714233,0.0122833-1.9085693,0.0739594
		c-2.1011047,0.2032471-3.2869263,1.2740784-3.5248413,3.1824646c-0.2914734,2.3396454-0.2713013,4.5555115,0.0596924,6.5861359
		c0.1880798,1.1542511,0.8100891,1.8743591,1.9573059,2.2659149c0.5563965,0.1900635,1.0118103,0.2875214,1.433197,0.3068237
		c1.6261292,0.0748444,3.2529297,0.1194,4.8792725,0.1194c1.5626831,0,3.0797424-0.0423584,4.5096436-0.1257629
		C284.6711121,150.4363251,285.5558167,149.5652161,285.7153931,147.452713z"/>
	<path class="st0" d="M104.483551,146.1950989c0.1496811-1.3157806,0.0976639-2.65065,0.0425797-4.0636597l-0.012291-0.3193512
		c-0.0237045-0.6215668-0.1560516-1.2023163-0.3928757-1.7255554c-0.5039215-1.1129761-1.4187164-1.6682587-3.0584488-1.8570099
		c-0.6274872-0.0722046-1.2565155-0.0891113-1.8671112-0.0891113l-0.9889755,0.0103149l-0.9341049,0.0098724
		c-0.2265015,0-0.4473038-0.0026245-0.6173935-0.0089874l-1.3234634-0.0024261l-1.1114502-0.0019684
		c-0.5001907,0-0.9823914,0.0017548-1.4645844,0.0083466c-0.8897705,0.0118408-1.5916672,0.0912933-2.2084045,0.2493286
		c-1.5989075,0.410202-1.9614944,1.2062531-2.1217117,1.9432678l-0.0337982,1.3293915
		c-0.0513611,1.7828369-0.0996475,3.4666748,0.1319046,5.135376c0.1845856,1.3282928,0.7857361,2.0598297,1.9492035,2.3717041
		c0.4058151,0.1086426,0.7690506,0.1716309,1.1110001,0.1924896c1.1777344,0.0717621,2.3561172,0.0904236,3.5345078,0.0904236
		c0.6775284,0,1.3550644-0.0061493,2.0326004-0.0125122c0.6836777-0.0061493,1.3671341-0.0122986,2.1366348-0.0122986
		c0.001976,0,0.0043869,0,0.0065842,0c0.9031601,0,1.6948166-0.07901,2.4204178-0.2411957
		C103.4833755,148.8058167,104.2855759,147.9349213,104.483551,146.1950989z"/>
	<path class="st0" d="M88.8083115,155.9992523c0.0827408,0.3127594,0.2563477,0.6751251,0.9165421,0.991394
		c0.7760849,0.3717957,1.6836319,0.5530853,2.7748871,0.5539703c0.7135239,0.0008698,1.4274902,0.0079041,2.141243,0.0151367
		c0.7444763,0.0074615,1.4887314,0.0149231,2.2329865,0.0149231c1.5734482,0,2.7816849-0.0342407,3.9174881-0.1112671
		c0.5680161-0.0384064,1.0609665-0.1090851,1.5071716-0.2157593c1.4505386-0.3463287,2.0163574-0.9970856,2.1765747-2.6379242
		c0.0250244-0.2523956,0.0511398-0.5054626,0.063652-0.7585144c-0.6241989,0.3331604-1.3500214,0.5785522-2.1805267,0.7385406
		c-1.1698303,0.2251892-2.3071747,0.2640381-3.2656403,0.2725983c-1.1691666,0.0103149-2.3387756,0.0153656-3.5081635,0.0153656
		c-1.1680756,0-2.335701-0.0050507-3.5037766-0.0144806c-1.3418961-0.0107574-2.474411-0.1457367-3.5110168-0.421402
		c0.1253204,0.2177124,0.2216721,0.5111694,0.2100449,0.8930511
		C88.7727509,155.568634,88.7646332,155.8335419,88.8083115,155.9992523z"/>
	<path class="st1" d="M109.2546005,154.8066101c0.0449905-6.6895294,0.0116272-13.3792725,0.021286-20.0687866
		c0.0004425-0.3057404-0.0967865-0.3851929-0.3621445-0.3851929c-0.0125046,0-0.025238,0-0.0384064,0.0004425
		c-0.3037567,0.0076752-0.6075211,0.0098724-0.911499,0.0098724c-0.4053802,0-0.8109741-0.003952-1.2163544-0.003952
		c-0.0063629,0-0.0127335,0-0.0188751,0c-0.6395645,0.0002289-0.6395645,0.0004425-0.6397858,0.6428528
		c-0.0002213,0.4659576,0,0.9319153,0,1.3978729c0,0.4486237,0,0.8972321,0,1.3456268
		c-0.6683121-1.5482025-1.6559753-2.7101288-3.2643204-3.2676086c-0.8908691-0.3088074-1.8137817-0.4130554-2.7481079-0.4159088
		c-1.1505127-0.0035248-2.3005829-0.004837-3.4513168-0.004837c-1.3789902,0-2.7584229,0.0017548-4.137413,0.0037384
		c-0.9823914,0.0013123-1.957756,0.082077-2.9261017,0.259201c-3.1580887,0.5776672-5.1716003,2.4048309-5.6858368,5.5427399
		c-0.4442291,2.7108002-0.466835,5.4795227,0.0559616,8.1903229c0.4819794,2.4987793,2.0279922,4.1593628,4.473877,4.9611206
		c1.2014313,0.3937378,2.4373245,0.5164337,3.6859436,0.526535c1.1643372,0.0094299,2.3284607,0.0144806,3.4930191,0.0144806
		c1.1654358,0,2.3313141-0.0050507,3.4965286-0.0153656c1.0124588-0.0090027,2.025795-0.0561829,3.0272827-0.2488861
		c1.6392975-0.3158264,2.9825134-1.022995,3.6391907-2.6717224c0.0133896-0.0337982,0.0322647-0.0638733,0.0730896-0.0638733
		c0.014267,0,0.0316086,0.0037231,0.0522385,0.0125122c0,1.0207977,0.0087738,2.0501556-0.0043945,3.079071
		c-0.0052643,0.4145966-0.0513535,0.829422-0.0917358,1.2429199c-0.1992874,2.0411682-1.1766357,3.1681824-3.1708298,3.644455
		c-0.5658188,0.1352081-1.1432648,0.2093964-1.724884,0.2489014c-1.3350983,0.0904236-2.6706314,0.1141205-4.0070419,0.1141205
		c-1.4582291,0-2.9173279-0.0283051-4.3755493-0.0298462c-1.1472244-0.0010986-2.2872009-0.177124-3.3450928-0.6838989
		c-0.8035126-0.384964-1.3901825-0.9628601-1.6237106-1.8462677c-0.0899811-0.3408508-0.0825195-0.6931152-0.0719833-1.0422974
		c0.0063629-0.2061005-0.0658493-0.2954254-0.2798386-0.2954254c-0.0026321,0-0.0052719,0-0.0079041,0
		c-0.426445,0.003952-0.8528976,0.0059204-1.2793427,0.0059204c-0.4389648,0-0.8779221-0.0019684-1.3168793-0.006134
		c-0.0024185,0-0.0050507,0-0.0074615,0c-0.210701,0-0.2772064,0.0833893-0.2831345,0.291687
		c-0.0230408,0.8384094,0.0447769,1.6612396,0.3568802,2.4498291c0.83358,2.1063385,2.5231323,3.1216583,4.6147766,3.6352386
		c0.5094147,0.1248932,1.044281,0.1092987,1.5392075,0.3011322c3.4952164,0,6.9904327,0,10.4856491,0
		c0.0572815-0.1139069,0.1689987-0.0867004,0.2618332-0.0935059c0.8144913-0.060791,1.6144943-0.2080688,2.4033051-0.4143677
		C107.2729187,160.2988586,109.232872,158.032074,109.2546005,154.8066101z M105.7977905,146.3445587
		c-0.2640305,2.3205566-1.5062866,3.63591-3.7945862,4.1477356c-0.8941574,0.1999359-1.8034592,0.2730255-2.7092514,0.2730255
		c-0.0041733,0-0.0081253,0-0.0120773,0c-0.0250168,0-0.0495987,0-0.0746231,0c-1.3627472,0-2.7261505,0.0248108-4.089119,0.0248108
		c-1.2051697,0-2.4105453-0.0193176-3.6150513-0.0928497c-0.4661789-0.0283051-0.9231339-0.114563-1.3728485-0.2350616
		c-1.777565-0.4764862-2.6756744-1.7308197-2.9168854-3.4673309c-0.3074875-2.2145538-0.1520996-4.446228-0.1103973-6.671524
		c0.0015335-0.0818787,0.0254593-0.1637421,0.041481-0.2449493c0.3371201-1.6998596,1.4959717-2.5499115,3.0740356-2.9546356
		c0.8247986-0.2115784,1.6715546-0.2793884,2.5191879-0.290802c0.488121-0.0065918,0.9762421-0.0085602,1.4823608-0.0085602
		c0.7523804,0,1.5447006,0.0043793,2.4349136,0.0043793c0.1999435,0.0065918,0.4060364,0.0092316,0.6173935,0.0092316
		c0.6051025,0,1.2538834-0.0202026,1.9230804-0.0202026c0.6599731,0,1.3401413,0.0195312,2.0185547,0.0976715
		c1.7902985,0.2060852,3.3115082,0.8581696,4.1119537,2.625412c0.3193436,0.7056274,0.4804382,1.4575653,0.5096283,2.2204742
		C105.8937073,143.2885284,105.9707413,144.8226929,105.7977905,146.3445587z"/>
	<path class="st2" d="M110.1296616,133.4951324c-0.3083649-0.3085938-0.7172546-0.4653015-1.2159195-0.4653015
		c-0.3643341,0.0083313-0.6571198,0.0103149-0.9499054,0.0103149l-0.6018143-0.0017548l-0.6145401-0.0019836
		c-1.0238724,0.0002289-1.6122971,0.3173676-1.8528519,1.0313416c-0.4927292-0.3529205-1.0374756-0.6318817-1.636879-0.8397369
		c-0.9384918-0.3252563-1.9777298-0.48526-3.1774063-0.4887695l-3.4552689-0.0050507l-4.1391678,0.0037231
		c-1.087738,0.0015411-2.1515579,0.0961304-3.162262,0.2809448c-3.7671509,0.6891632-6.1654053,3.0435181-6.7531738,6.6300354
		c-0.4898758,2.9884338-0.4688034,5.9002686,0.0625534,8.6545258c0.4699097,2.4364471,1.8227768,4.2706299,3.9455872,5.3761597
		l-0.6880646,0.0032806l-1.3045883-0.006134c-0.9387207-0.0002289-1.5989151,0.6483307-1.6250305,1.5769501
		c-0.0322647,1.1735687,0.1103973,2.1182098,0.4490585,2.9739532c0.9071045,2.2920227,2.7158356,3.7421265,5.5293503,4.4330597
		c0.2530594,0.0618896,0.5105057,0.0983276,0.7679596,0.1321259c0.2477951,0.0326996,0.4615631,0.060791,0.6086197,0.11763
		L90.5465851,163h0.2473526h10.4856491h0.815361l0.0774765-0.154068c0.729332-0.0818787,1.4002838-0.2122498,2.1070099-0.397049
		c3.9767532-1.0398865,6.2720718-3.8222351,6.2977448-7.6332855c0.0291977-4.3230896,0.0254593-8.6461792,0.0219498-12.9692688
		l-0.0006561-7.1065369C110.59935,134.2262115,110.4415436,133.8074493,110.1296616,133.4951324z M101.2795868,161.6772003
		c-3.4952164,0-6.9904327,0-10.4856491,0c-0.4949265-0.1918335-1.0297928-0.176239-1.5392075-0.3011322
		c-2.0916443-0.5135803-3.7811966-1.5289001-4.6147766-3.6352386c-0.3121033-0.7885895-0.379921-1.6114197-0.3568802-2.4498291
		c0.005928-0.2082977,0.0724335-0.291687,0.2831345-0.291687c0.0024109,0,0.005043,0,0.0074615,0
		c0.4389572,0.0041656,0.8779144,0.006134,1.3168793,0.006134c0.426445,0,0.8528976-0.0019684,1.2793427-0.0059204
		c0.0026321,0,0.0052719,0,0.0079041,0c0.2139893,0,0.2862015,0.089325,0.2798386,0.2954254
		c-0.0105362,0.3491821-0.0179977,0.7014465,0.0719833,1.0422974c0.2335281,0.8834076,0.8201981,1.4613037,1.6237106,1.8462677
		c1.0578918,0.5067749,2.1978683,0.6828003,3.3450928,0.6838989c1.4582214,0.0015411,2.9173203,0.0298462,4.3755493,0.0298462
		c1.3364105,0,2.6719437-0.0236969,4.0070419-0.1141205c0.5816193-0.039505,1.1590652-0.1136932,1.724884-0.2489014
		c1.994194-0.4762726,2.9715424-1.6032867,3.1708298-3.644455c0.0403824-0.4134979,0.0864716-0.8283234,0.0917358-1.2429199
		c0.0131683-1.0289154,0.0043945-2.0582733,0.0043945-3.079071c-0.0206299-0.0087891-0.0379715-0.0125122-0.0522385-0.0125122
		c-0.0408249,0-0.0597,0.0300751-0.0730896,0.0638733c-0.6566772,1.6487274-1.9998932,2.355896-3.6391907,2.6717224
		c-1.0014877,0.1927032-2.0148239,0.2398834-3.0272827,0.2488861c-1.1652145,0.0103149-2.3310928,0.0153656-3.4965286,0.0153656
		c-1.1645584,0-2.3286819-0.0050507-3.4930191-0.0144806c-1.2486191-0.0101013-2.4845123-0.1327972-3.6859436-0.526535
		c-2.4458847-0.8017578-3.9918976-2.4623413-4.473877-4.9611206c-0.5227966-2.7108002-0.5001907-5.4795227-0.0559616-8.1903229
		c0.5142365-3.1379089,2.5277481-4.9650726,5.6858368-5.5427399c0.9683456-0.177124,1.9437103-0.2578888,2.9261017-0.259201
		c1.3789902-0.0019836,2.7584229-0.0037384,4.137413-0.0037384c1.1507339,0,2.3008041,0.0013123,3.4513168,0.004837
		c0.9343262,0.0028534,1.8572388,0.1071014,2.7481079,0.4159088c1.608345,0.5574799,2.5960083,1.7194061,3.2643204,3.2676086
		c0-0.4483948,0-0.8970032,0-1.3456268c0-0.4659576-0.0002213-0.9319153,0-1.3978729
		c0.0002213-0.6424103,0.0002213-0.6426239,0.6397858-0.6428528c0.0061417,0,0.0125122,0,0.0188751,0
		c0.4053802,0,0.8109741,0.003952,1.2163544,0.003952c0.303978,0,0.6077423-0.0021973,0.911499-0.0098724
		c0.0131683-0.0004425,0.0259018-0.0004425,0.0384064-0.0004425c0.265358,0,0.362587,0.0794525,0.3621445,0.3851929
		c-0.0096588,6.6895142,0.0237045,13.3792572-0.021286,20.0687866c-0.0217285,3.2254639-1.9816818,5.4922485-5.3098755,6.3627167
		c-0.7888107,0.2062988-1.5888138,0.3535767-2.4033051,0.4143677
		C101.4485855,161.5904999,101.3368683,161.5632935,101.2795868,161.6772003z M88.5697327,154.4418335
		c1.0366058,0.2756653,2.1691208,0.4106445,3.5110168,0.421402c1.1680756,0.0094299,2.335701,0.0144806,3.5037766,0.0144806
		c1.1693878,0,2.3389969-0.0050507,3.5081635-0.0153656c0.9584656-0.0085602,2.0958099-0.0474091,3.2656403-0.2725983
		c0.8305054-0.1599884,1.5563278-0.4053802,2.1805267-0.7385406c-0.0125122,0.2530518-0.0386276,0.5061188-0.063652,0.7585144
		c-0.1602173,1.6408386-0.7260361,2.2915955-2.1765747,2.6379242c-0.4462051,0.1066742-0.9391556,0.1773529-1.5071716,0.2157593
		c-1.1358032,0.0770264-2.3440399,0.1112671-3.9174881,0.1112671c-0.7442551,0-1.4885101-0.0074615-2.2329865-0.0149231
		c-0.7137527-0.0072327-1.4277191-0.014267-2.141243-0.0151367c-1.0912552-0.000885-1.9988022-0.1821747-2.7748871-0.5539703
		c-0.6601944-0.3162689-0.8338013-0.6786346-0.9165421-0.991394c-0.0436783-0.1657104-0.0355606-0.4306183-0.0285339-0.6643677
		C88.7914047,154.9530029,88.6950531,154.6595459,88.5697327,154.4418335z"/>
	<path class="st2" d="M105.8355408,141.7613831c-0.0291901-0.7629089-0.1902847-1.5148468-0.5096283-2.2204742
		c-0.8004456-1.7672424-2.3216553-2.4193268-4.1119537-2.625412c-0.6784134-0.0781403-1.3585815-0.0976715-2.0185547-0.0976715
		c-0.6691971,0-1.3179779,0.0202026-1.9230804,0.0202026c-0.2113571,0-0.41745-0.0026398-0.6173935-0.0092316
		c-0.890213,0-1.6825333-0.0043793-2.4349136-0.0043793c-0.5061188,0-0.9942398,0.0019684-1.4823608,0.0085602
		c-0.8476334,0.0114136-1.6943893,0.0792236-2.5191879,0.290802c-1.578064,0.4047241-2.7369156,1.254776-3.0740356,2.9546356
		c-0.0160217,0.0812073-0.0399475,0.1630707-0.041481,0.2449493c-0.0417023,2.225296-0.1970901,4.4569702,0.1103973,6.671524
		c0.2412109,1.7365112,1.1393204,2.9908447,2.9168854,3.4673309c0.4497147,0.1204987,0.9066696,0.2067566,1.3728485,0.2350616
		c1.2045059,0.0735321,2.4098816,0.0928497,3.6150513,0.0928497c1.3629684,0,2.7263718-0.0248108,4.089119-0.0248108
		c0.0250244,0,0.0496063,0,0.0746231,0c0.003952,0,0.0079041,0,0.0120773,0c0.9057922,0,1.815094-0.0730896,2.7092514-0.2730255
		c2.2882996-0.5118256,3.5305557-1.827179,3.7945862-4.1477356
		C105.9707413,144.8226929,105.8937073,143.2885284,105.8355408,141.7613831z M99.2939529,149.4427338
		c-0.0021973,0-0.0046082,0-0.0065842,0c-0.7695007,0-1.4529572,0.0061493-2.1366348,0.0122986
		c-0.677536,0.0063629-1.355072,0.0125122-2.0326004,0.0125122c-1.1783905,0-2.3567734-0.0186615-3.5345078-0.0904236
		c-0.3419495-0.0208588-0.7051849-0.083847-1.1110001-0.1924896c-1.1634674-0.3118744-1.7646179-1.0434113-1.9492035-2.3717041
		c-0.2315521-1.6687012-0.1832657-3.3525391-0.1319046-5.135376l0.0337982-1.3293915
		c0.1602173-0.7370148,0.5228043-1.5330658,2.1217117-1.9432678c0.6167374-0.1580353,1.318634-0.2374878,2.2084045-0.2493286
		c0.482193-0.0065918,0.9643936-0.0083466,1.4645844-0.0083466l1.1114502,0.0019684l1.3234634,0.0024261
		c0.1700897,0.0063629,0.390892,0.0089874,0.6173935,0.0089874l0.9341049-0.0098724l0.9889755-0.0103149
		c0.6105957,0,1.239624,0.0169067,1.8671112,0.0891113c1.6397324,0.1887512,2.5545273,0.7440338,3.0584488,1.8570099
		c0.236824,0.5232391,0.3691711,1.1039886,0.3928757,1.7255554l0.012291,0.3193512
		c0.0550842,1.4130096,0.1071014,2.747879-0.0425797,4.0636597c-0.1979752,1.7398224-1.0001755,2.6107178-2.7691803,3.0064392
		C100.9887695,149.3637238,100.197113,149.4427338,99.2939529,149.4427338z"/>
	<path class="st3" d="M167.1324921,115.4903259c1.1257172-3.5358124,1.5403137-7.1780777,1.6226044-10.856781
		c0.0867004-3.8751297,0.0338135-7.7535553,0.0579529-11.6304474c0.0021973-0.3531418-0.0935059-0.4350128-0.4385223-0.4350128
		c-0.0004425,0-0.000885,0-0.0013123,0c-6.8982544,0.0041733-13.7956238,0.0065918-20.6940918,0.0065918
		c-7.6306458,0-15.2623901-0.0028534-22.8932648-0.0094452c-0.0002213,0-0.0006561,0-0.0008774,0
		c-0.4016495,0-0.4468613,0.1347656-0.4444427,0.4789047c0.0144806,2.1798782,0.0274277,4.360405-0.0072479,6.5398407
		c-0.0083389,0.5164337,0.1380539,0.6097107,0.6202545,0.6097107c0.0017548,0,0.0032883,0,0.005043,0
		c11.3334961-0.0147018,22.6672058-0.0089951,34.0009155-0.0208435c0.0013123,0,0.0024109,0,0.0035095,0
		c0.4185486,0,0.5566101,0.075058,0.5502472,0.5335541c-0.0298615,2.0797882-0.0122986,4.1602325-0.0133972,6.240242
		c-0.0006561,1.1992416-0.0849304,2.3916702-0.3013458,3.5726929c-0.7356873,4.0145035-2.9625397,6.7735825-6.8449097,8.1490631
		c-2.28479,0.8094406-4.6551666,1.1053009-7.0578156,1.1081543c-6.1493835,0.0078964-12.2976685,0.0111923-18.4470444,0.0111923
		c-6.4823303,0-12.9659805-0.0037308-19.4483109-0.0105362c-2.1664886-0.0021973-4.3116837-0.2427444-6.4070511-0.8359985
		c-3.8395844-1.0875244-6.563324-3.3942566-7.8907394-7.2210999c-0.7047501-2.0323868-0.9516602-4.1411438-0.9536362-6.278656
		c-0.0087814-8.7368317-0.0065842-17.4736557-0.0013199-26.2104874c0.0008774-1.5155029,0.1308136-3.0220184,0.4497147-4.5072327
		c0.9722977-4.5302811,3.5845413-7.5738068,8.0711441-8.93853c2.2325516-0.6790695,4.5250168-0.9402542,6.8396454-0.9426651
		c2.0341415-0.001976,4.0684967-0.0028534,6.1026382-0.0028534c8.3002777,0,16.6003494,0.0151443,24.9006271,0.0353317
		c2.0110931,0.0048294,4.0226288,0.0698013,6.0310822,0.1957779c2.5567169,0.1604385,5.1011505,0.3933105,7.5937805,1.0394592
		c3.5424042,0.9187393,5.8456268,3.0200348,6.5301819,6.7110291c0.3285522,1.7723007,0.4516907,3.5604019,0.4328156,5.3601303
		c-0.0024261,0.2265015-0.0234833,0.4058228,0.3134155,0.4058228c0.0015259,0,0.0028534,0,0.0043793,0
		c1.3563843-0.0065842,2.7127686-0.0090027,4.0691528-0.0090027s2.7127686,0.0024185,4.0691681,0.0052719
		c0.0008698,0,0.0015259,0,0.0024109,0c0.2293549,0,0.3180237-0.0658493,0.3193359-0.3090286
		c0.0144958-2.5130463-0.0035095-5.0225754-0.5943451-7.487114c-0.7774048-3.2421494-2.3341675-6.0216446-4.8847504-8.2070045
		c-1.9340515-1.6570702-4.1639557-2.7755394-6.5685883-3.5656662c-4.0390778-1.3271942-8.215332-1.7665901-12.4350586-1.7773476
		c-5.254776-0.0133858-10.5088959-0.0171165-15.7636871-0.0171165c-6.5365448,0-13.0722122,0.0057068-19.6085358,0.0057068
		c-0.3246078,0-0.6507568,0-0.9753647,0c-0.0017548,0-0.0032959,0-0.0048294,0
		c-2.5139236,0-5.0146713,0.1654854-7.4925995,0.5998383c-3.0542755,0.5350914-5.9676514,1.4590988-8.5636597,3.2120819
		c-3.3740616,2.2786407-5.4051208,5.5122337-6.5979919,9.3371086c-1.1856308,3.801384-1.541626,7.7228317-1.5506287,11.6695175
		c-0.0168991,7.4370651-0.1121521,14.8750153,0.0572815,22.3114243c0.0717697,3.1493149,0.4593735,6.2619781,1.3127136,9.3057175
		c1.7207184,6.1381912,5.5076218,10.3083038,11.6447144,12.2480698c3.4256363,1.0829086,6.9570694,1.467659,10.5247116,1.488945
		c2.7546844,0.0164642,5.508934,0.0212936,8.3634872,0.0212936c4.0785904,0,8.3617401-0.0098801,13.1402512-0.0098801
		c0.992485-0.0103149,2.0264511-0.0138245,3.0951004-0.0138245c2.8330536,0,5.9090576,0.0258942,9.0950165,0.0258942
		c2.6625061,0,5.4020538-0.0182114,8.1411591-0.084938c2.4816589-0.0603561,4.9336853-0.3880386,7.3442383-1.0036774
		C161.404068,124.8401642,165.2914886,121.2718658,167.1324921,115.4903259z"/>
	<path class="st2" d="M170.1294861,97.1391907c-0.0010986-1.3759155-0.0024109-2.7520523,0.0061493-4.1279755
		c0.0013123-0.1999435,0.0050507-0.8089981-0.4705658-1.287468c-0.475174-0.4784622-1.0888367-0.4784622-1.2905426-0.4784622
		l-20.6954041,0.0068054c-7.6304321,0-15.261734-0.0028534-22.8921661-0.0094376c-0.2032394,0-0.818222,0-1.2986603,0.4837341
		c-0.4762726,0.4795609-0.4720993,1.0951996-0.4703445,1.326973c0.014267,2.1695557,0.0274353,4.3399887-0.0072479,6.5095444
		c-0.0039444,0.2510834-0.0147018,0.9187469,0.4955902,1.4371567c0.5080948,0.5164337,1.1660919,0.5164337,1.4472504,0.5164337
		l18.296257-0.0120697l14.9312134-0.0083389c-0.0107574,1.238739-0.0083466,2.4636536-0.0059357,3.6887894l0.0019836,1.7611084
		c-0.0004425,1.2205276-0.0919647,2.3115616-0.2796173,3.3349915c-0.6619568,3.6124191-2.6199341,5.9483414-5.9856567,7.1407776
		c-1.9520416,0.6915741-4.1165619,1.0291367-6.6175232,1.0322113c-6.148941,0.0076828-12.2965698,0.0111923-18.4455185,0.0111923
		c-6.4818954,0-12.9648819-0.003952-19.4469986-0.0107574c-2.2095032-0.0021896-4.1878891-0.259201-6.0479813-0.7859573
		c-3.5726929-1.011795-5.8629608-3.0992737-7.0014038-6.3818054c-0.5906143-1.7027283-0.8785782-3.6152725-0.8805542-5.8465042
		c-0.0087738-8.7361679-0.0065842-17.4723358-0.0013123-26.2082901c0.0006561-1.5337219,0.1382675-2.9175415,0.4200821-4.2304688
		c0.8917465-4.1551895,3.2349091-6.755806,7.162941-7.9506531c1.9505157-0.5934753,4.0623474-0.8829651,6.4559937-0.8853836
		l6.1013184-0.003067c8.2991867,0,16.5983658,0.015358,24.8973312,0.0353317
		c1.9810333,0.0048294,3.9835663,0.0697937,5.9516296,0.193367c2.7623749,0.1731644,5.0684509,0.4095459,7.3446808,0.9997253
		c3.2320557,0.8381958,4.9992981,2.640564,5.561615,5.6717987c0.295639,1.5947342,0.4299622,3.2647552,0.4106445,5.1050949
		c-0.0037384,0.2436218-0.0122986,0.81427,0.4420319,1.2753983c0.2098236,0.2131119,0.587326,0.4670486,1.1939697,0.4670486
		c1.3651581-0.0068054,2.7193451-0.0089951,4.0735321-0.0089951l4.0663147,0.005043
		c0.9659271,0,1.6421356-0.6680908,1.6471863-1.624588c0.0160217-2.7625885-0.0204163-5.2571945-0.6307831-7.8024979
		c-0.8715515-3.6354675-2.6583405-6.630703-5.310318-8.902977c-1.92659-1.6507072-4.2216797-2.8995476-7.0163269-3.8178482
		c-3.7368469-1.2279892-7.9383545-1.8309021-12.8446045-1.8434105c-5.2558746-0.013607-10.5111084-0.0173378-15.766983-0.0173378
		l-9.8048172,0.0028534l-9.8037186,0.0030708l-0.9751434-0.0002213c-2.8209763,0-5.3465271,0.2028008-7.7259064,0.619812
		c-3.696701,0.647686-6.580658,1.7338905-9.0754852,3.4188347c-3.4008408,2.2966347-5.7299576,5.5804901-7.1205826,10.039444
		c-1.0879593,3.4884109-1.5997849,7.3207397-1.6105423,12.0601883l-0.0197525,5.092804
		c-0.0265579,5.651825-0.053772,11.4956894,0.0772552,17.2517624c0.0796738,3.4987259,0.5252151,6.6495743,1.3614349,9.6327438
		c1.87677,6.6945724,6.0890274,11.1194992,12.519783,13.1520996c3.2223969,1.0188217,6.7928925,1.5258255,10.9153824,1.5504074
		c2.7573242,0.0164642,5.5139847,0.021286,8.3713913,0.021286l6.0510559-0.0046082l7.0891953-0.0050507
		c1.0017014-0.0103149,2.0312881-0.0140381,3.0953293-0.0140381c1.3730621,0,2.8031921,0.0061493,4.2754517,0.0125122
		c1.5651093,0.0065765,3.1776276,0.0135956,4.8193359,0.0135956c2.6730499,0,5.4233551-0.0184326,8.1734314-0.0853729
		c2.6034698-0.0634308,5.1737976-0.4148102,7.6392059-1.0445023c6.3392334-1.61866,10.5482025-5.5629349,12.5096893-11.7235031
		c1.0519562-3.303833,1.5872803-6.8716965,1.6847229-11.228363
		C170.1334381,102.1560593,170.1314545,99.6476288,170.1294861,97.1391907z M140.0704193,127.4221191
		c-3.1859589,0-6.2619629-0.0258942-9.0950165-0.0258942c-1.0686493,0-2.1026154,0.0035095-3.0951004,0.0138245
		c-4.778511,0-9.0616608,0.0098801-13.1402512,0.0098801c-2.8545532,0-5.6088028-0.0048294-8.3634872-0.0212936
		c-3.5676422-0.021286-7.0990753-0.4060364-10.5247116-1.488945c-6.1370926-1.9397659-9.923996-6.1098785-11.6447144-12.2480698
		c-0.8533401-3.0437393-1.2409439-6.1564026-1.3127136-9.3057175c-0.1694336-7.436409-0.0741806-14.8743591-0.0572815-22.3114243
		c0.0090027-3.9466858,0.3649979-7.8681335,1.5506287-11.6695175c1.1928711-3.8248749,3.2239304-7.0584679,6.5979919-9.3371086
		c2.5960083-1.7529831,5.5093842-2.6769905,8.5636597-3.2120819c2.4779282-0.4343529,4.9786758-0.5998383,7.4925995-0.5998383
		c0.0015335,0,0.0030746,0,0.0048294,0c0.3246078,0,0.6507568,0,0.9753647,0c6.5363235,0,13.071991-0.0057068,19.6085358-0.0057068
		c5.2547913,0,10.5089111,0.0037308,15.7636871,0.0171165c4.2197266,0.0107574,8.3959808,0.4501534,12.4350586,1.7773476
		c2.4046326,0.7901268,4.6345367,1.908596,6.5685883,3.5656662c2.5505829,2.18536,4.1073456,4.9648552,4.8847504,8.2070045
		c0.5908356,2.4645386,0.6088409,4.9740677,0.5943451,7.487114c-0.0013123,0.2431793-0.0899811,0.3090286-0.3193359,0.3090286
		c-0.000885,0-0.0015411,0-0.0024109,0c-1.3563995-0.0028534-2.7127838-0.0052719-4.0691681-0.0052719
		s-2.7127686,0.0024185-4.0691528,0.0090027c-0.0015259,0-0.0028534,0-0.0043793,0
		c-0.3368988,0-0.3158417-0.1793213-0.3134155-0.4058228c0.0188751-1.7997284-0.1042633-3.5878296-0.4328156-5.3601303
		c-0.6845551-3.6909943-2.9877777-5.7922897-6.5301819-6.7110291c-2.49263-0.6461487-5.0370636-0.8790207-7.5937805-1.0394592
		c-2.0084534-0.1259766-4.019989-0.1909485-6.0310822-0.1957779c-8.3002777-0.0201874-16.6003494-0.0353317-24.9006271-0.0353317
		c-2.0341415,0-4.0684967,0.0008774-6.1026382,0.0028534c-2.3146286,0.0024109-4.6070938,0.2635956-6.8396454,0.9426651
		c-4.4866028,1.3647232-7.0988464,4.4082489-8.0711441,8.93853c-0.3189011,1.4852142-0.4488373,2.9917297-0.4497147,4.5072327
		c-0.0052643,8.7368317-0.0074615,17.4736557,0.0013199,26.2104874c0.001976,2.1375122,0.2488861,4.2462692,0.9536362,6.278656
		c1.3274155,3.8268433,4.0511551,6.1335754,7.8907394,7.2210999c2.0953674,0.5932541,4.2405624,0.8338013,6.4070511,0.8359985
		c6.4823303,0.0068054,12.9659805,0.0105362,19.4483109,0.0105362c6.1493759,0,12.2976608-0.0032959,18.4470444-0.0111923
		c2.4026489-0.0028534,4.7730255-0.2987137,7.0578156-1.1081543c3.88237-1.3754807,6.1092224-4.1345596,6.8449097-8.1490631
		c0.2164154-1.1810226,0.3006897-2.3734512,0.3013458-3.5726929c0.0010986-2.0800095-0.0164642-4.1604538,0.0133972-6.240242
		c0.0063629-0.4584961-0.1316986-0.5335541-0.5502472-0.5335541c-0.0010986,0-0.0021973,0-0.0035095,0
		c-11.3337097,0.0118484-22.6674194,0.0061417-34.0009155,0.0208435c-0.0017548,0-0.0032883,0-0.005043,0
		c-0.4822006,0-0.6285934-0.093277-0.6202545-0.6097107c0.0346756-2.1794357,0.0217285-4.3599625,0.0072479-6.5398407
		c-0.0024185-0.3441391,0.0427933-0.4789047,0.4444427-0.4789047c0.0002213,0,0.0006561,0,0.0008774,0
		c7.6308746,0.0065918,15.262619,0.0094452,22.8932648,0.0094452c6.898468,0,13.7958374-0.0024185,20.6940918-0.0065918
		c0.0004272,0,0.0008698,0,0.0013123,0c0.3450165,0,0.4407196,0.081871,0.4385223,0.4350128
		c-0.0241394,3.8768921,0.0287476,7.7553177-0.0579529,11.6304474c-0.0822906,3.6787033-0.4968872,7.3209686-1.6226044,10.856781
		c-1.8410034,5.7815399-5.7284241,9.3498383-11.5766754,10.8431778c-2.410553,0.6156387-4.8625793,0.9433212-7.3442383,1.0036774
		C145.4724731,127.4039078,142.7329254,127.4221191,140.0704193,127.4221191z"/>
	<path class="st3" d="M261.460022,107.0012894c-0.2754211-2.7612686-1.1599426-5.2475357-3.2570801-7.1833496
		c-1.5745239-1.4536133-3.4662323-2.315506-5.484787-2.9416809c-0.9494629-0.294548-1.9248352-0.4872513-2.9511261-0.7130966
		c0.1755829-0.194458,0.3336182-0.1720657,0.4786835-0.1867752c1.5407562-0.1551743,3.0584564-0.4275436,4.5351105-0.9033737
		c3.3400574-1.0765533,5.7225037-3.1583176,6.8493042-6.5481796c0.5774536-1.7376175,0.7730103-3.5362549,0.778717-5.3550873
		c0.0079041-2.5288467-0.0050354-5.0579071-0.035553-7.5865326c-0.026123-2.1651688-0.2192688-4.3162918-0.7137451-6.4305344
		c-0.6694031-2.862236-1.9513855-5.3610115-4.3248596-7.2009125c-1.7371674-1.3469467-3.7263184-2.1618729-5.8295898-2.7226448
		c-3.7087708-0.9889755-7.5075226-1.2418137-11.3190155-1.2466431c-18.3739624-0.0223885-36.7481384-0.0087814-55.1223145-0.0190964
		c-0.0004425,0-0.0006561,0-0.0010986,0c-0.4014282,0-0.4881287,0.1204948-0.4881287,0.5037079
		c0.0092163,22.5664635,0.0094452,45.1331444-0.0013123,67.6998291c-0.0002289,0.402092,0.1200562,0.4857101,0.4883423,0.4857101
		c0.0043945,0,0.0087738,0,0.0131683,0c1.3996277-0.0079041,2.7990265-0.0129471,4.1988678-0.0129471
		c1.346283,0,2.6930084,0.0048294,4.0393066,0.016243c0.0094299,0,0.0186462,0.0002136,0.0276489,0.0002136
		c0.4472961,0,0.5796509-0.1031494,0.5787659-0.5893021c-0.017334-8.653862-0.0087738-17.3077316-0.0234833-25.9615936
		c-0.0008698-0.4604645,0.1240082-0.5651627,0.5706482-0.5651627c0.000885,0,0.0019684,0,0.0028534,0
		c15.3117828,0.0120773,30.6233368,0.0076828,45.9351196,0.0127335c1.765274,0.0006561,3.5189209,0.1435394,5.2512817,0.5129242
		c3.4912567,0.7444763,5.7115173,2.8150482,6.5896454,6.2885284c0.3682861,1.4569092,0.5421143,2.9414673,0.5432129,4.4438095
		c0.0035248,5.1090469,0.0061493,10.2183151-0.0083313,15.3273621c-0.0013123,0.3992386,0.082962,0.5289459,0.4936066,0.5289459
		c0.0054932,0,0.0109711,0,0.0166779,0c1.2865906-0.0100937,2.5729675-0.0153656,3.8597717-0.0153656
		c1.2929688,0,2.5863647,0.0052719,3.879303,0.0164642c0.0074768,0,0.0147095,0,0.0219421,0
		c0.4137268,0,0.5236816-0.0996399,0.5221558-0.5372849c-0.0180054-5.3588181-0.0131836-10.7176361-0.0103149-16.0762329
		C261.5640564,109.0268707,261.5607605,108.0122147,261.460022,107.0012894z M239.9231567,91.8850708
		c-15.1607819,0.0258942-30.3213501,0.0263367-45.4819031,0.0493774c-0.0010986,0-0.0024109,0-0.0035095,0
		c-0.4453278,0-0.5412445-0.1229095-0.5405884-0.554184c0.0131683-8.4205551,0.014267-16.8408966-0.0028534-25.2612381
		c-0.0010986-0.46595,0.1466217-0.5291595,0.5533142-0.5291595c0.0021973,0,0.0043945,0,0.0065765,0
		c0.0004425,0,0.0006714,0,0.0010986,0v-0.0004425v0.0004425c5.0919342,0.0076828,10.1829834,0.0089951,15.2749176,0.0089951
		c2.6796265,0,5.3601379-0.0004349,8.0397644-0.0004349c3.7574921,0,7.5136566-0.0041733,11.2711487-0.0041733
		c2.716507,0,5.4340973,0.0021973,8.1506042,0.0098801c3.0117035,0.0085526,6.0190125,0.1358566,8.9718933,0.8098755
		c1.7343292,0.3959427,3.3808594,0.9920502,4.7047577,2.2503281c1.3243408,1.2587128,1.9309845,2.8764954,2.0727692,4.6310196
		c0.2791748,3.4515381,0.2807159,6.9184418,0.0318298,10.36866c-0.2714996,3.7634201-2.431839,6.0916595-5.9685364,7.2147369
		C244.701004,91.6102753,242.3233795,91.8811188,239.9231567,91.8850708z"/>
	<path class="st2" d="M262.8862,110.0426254c0.0004578-0.9161148,0.0010986-2.0563049-0.1099548-3.1725845
		c-0.3423767-3.4319992-1.5449219-6.0567627-3.6760559-8.0239563c-1.0960693-1.0118027-2.3831177-1.8258514-3.9646759-2.4976807
		c0.0171204-0.0054855,0.0340118-0.0109711,0.0509186-0.0164566c3.8962097-1.255867,6.4862671-3.7421341,7.6989136-7.3898849
		c0.5625305-1.6928482,0.8392944-3.5797119,0.8460693-5.7681427c0.0081482-2.5356522-0.0050354-5.0712967-0.035553-7.6067276
		c-0.0300598-2.4943848-0.2749939-4.6911621-0.7484131-6.7156372c-0.8116455-3.4704132-2.3824463-6.0692749-4.8024292-7.9451675
		c-1.6873779-1.3083191-3.7478485-2.2751274-6.2990723-2.9552956c-3.3266602-0.8871346-6.9219513-1.2852707-11.6581116-1.2911987
		c-11.0470581-0.013607-22.0941315-0.0140457-33.1412048-0.0144844l-21.9822083-0.0046082h-0.0006561
		c-1.1175995,0-1.8118134,0.6996994-1.8118134,1.8262901c0.0090027,22.5666847,0.0092163,45.1329231-0.0015259,67.699173
		c0,0.2148666-0.0004425,0.8684845,0.5249939,1.3601151c0.4797821,0.4490585,1.065567,0.4490585,1.2861481,0.4490585
		c1.4176178-0.0079041,2.8148193-0.0129547,4.2120361-0.0129547c1.3425598,0,2.6855469,0.0046082,4.0281067,0.0160217
		c0.0057068,0,0.0116272,0,0.0175629,0c0.2921295,0,0.9253235-0.0098724,1.4176178-0.5030441
		c0.5067749-0.5076599,0.5054626-1.1639023,0.5052338-1.4110336c-0.0092163-4.5574951-0.0111847-9.1147766-0.0131683-13.6720505
		l-0.0098724-11.5279541c9.5181732,0.0061493,18.9937744,0.0070267,28.4695892,0.0081253l16.7153625,0.0030746
		c1.8245239,0.0004349,3.4519653,0.1588974,4.9758148,0.4837265c3.0145569,0.6428604,4.8408508,2.3826752,5.5831299,5.3190918
		c0.3327332,1.3160019,0.5019531,2.7022324,0.5028229,4.1205139c0.0037384,5.1075134,0.0061493,10.2152405-0.0081177,15.3227539
		c-0.000885,0.2374802-0.0028534,0.8697968,0.4889984,1.3634109c0.4905396,0.4920731,1.120224,0.4920731,1.3271942,0.4920731
		c1.3102875-0.0103149,2.5931549-0.0153656,3.8764496-0.0153656c1.2892151,0,2.5788879,0.0052643,3.8678894,0.016243
		c0.0050354,0,0.0103149,0,0.0155945,0c0.2769775,0,0.8886719-0.0090027,1.3708496-0.4929504
		c0.4947205-0.4962463,0.4925232-1.1320801,0.4916382-1.371315c-0.016449-4.9371948-0.0136108-9.8743896-0.0109558-14.811142
		L262.8862,110.0426254z M261.0515747,126.6554794c-0.0072327,0-0.0144653,0-0.0219421,0
		c-1.2929382-0.0111923-2.5863342-0.0164642-3.879303-0.0164642c-1.2868042,0-2.5731812,0.0052719-3.8597717,0.0153656
		c-0.0057068,0-0.0111847,0-0.0166779,0c-0.4106445,0-0.4949188-0.1297073-0.4936066-0.5289459
		c0.0144806-5.1090469,0.0118561-10.2183151,0.0083313-15.3273621c-0.0010986-1.5023422-0.1749268-2.9869003-0.5432129-4.4438095
		c-0.8781281-3.4734802-3.0983887-5.5440521-6.5896454-6.2885284c-1.7323608-0.3693848-3.4860077-0.5122681-5.2512817-0.5129242
		c-15.3117828-0.0050507-30.6233368-0.0006561-45.9351196-0.0127335c-0.000885,0-0.0019684,0-0.0028534,0
		c-0.44664,0-0.5715179,0.1046982-0.5706482,0.5651627c0.0147095,8.653862,0.0061493,17.3077316,0.0234833,25.9615936
		c0.000885,0.4861526-0.1314697,0.5893021-0.5787659,0.5893021c-0.0090027,0-0.018219-0.0002136-0.0276489-0.0002136
		c-1.3462982-0.0114136-2.6930237-0.016243-4.0393066-0.016243c-1.3998413,0-2.7992401,0.005043-4.1988678,0.0129471
		c-0.0043945,0-0.0087738,0-0.0131683,0c-0.3682861,0-0.4885712-0.0836182-0.4883423-0.4857101
		c0.0107574-22.5666809,0.0105286-45.1333618,0.0013123-67.6998291c0-0.383213,0.0867004-0.5037079,0.4881287-0.5037079
		c0.0004425,0,0.0006561,0,0.0010986,0c18.374176,0.0103149,36.7483521-0.0032921,55.1223145,0.0190964
		c3.8114929,0.0048294,7.6102448,0.2576675,11.3190155,1.2466431c2.1032715,0.5607719,4.0924225,1.3756981,5.8295898,2.7226448
		c2.3734741,1.839901,3.6554565,4.3386765,4.3248596,7.2009125c0.4944763,2.1142426,0.6876221,4.2653656,0.7137451,6.4305344
		c0.0305176,2.5286255,0.043457,5.0576859,0.035553,7.5865326c-0.0057068,1.8188324-0.2012634,3.6174698-0.778717,5.3550873
		c-1.1268005,3.3898621-3.5092468,5.4716263-6.8493042,6.5481796c-1.4766541,0.4758301-2.9943542,0.7481995-4.5351105,0.9033737
		c-0.1450653,0.0147095-0.3031006-0.0076828-0.4786835,0.1867752c1.0262909,0.2258453,2.0016632,0.4185486,2.9511261,0.7130966
		c2.0185547,0.6261749,3.9102631,1.4880676,5.484787,2.9416809c2.0971375,1.9358139,2.9816589,4.422081,3.2570801,7.1833496
		c0.1007385,1.0109253,0.1040344,2.0255814,0.1033936,3.0406723c-0.0028687,5.3585968-0.0076904,10.7174149,0.0103149,16.0762329
		C261.5752563,126.5558395,261.4653015,126.6554794,261.0515747,126.6554794z"/>
	<path class="st2" d="M252.9729767,83.6640167c0.2488861-3.4502182,0.247345-6.9171219-0.0318298-10.36866
		c-0.1417847-1.7545242-0.7484283-3.3723068-2.0727692-4.6310196c-1.3238983-1.2582779-2.9704285-1.8543854-4.7047577-2.2503281
		c-2.9528809-0.6740189-5.9601898-0.8013229-8.9718933-0.8098755c-2.716507-0.0076828-5.4340973-0.0098801-8.1506042-0.0098801
		c-3.7574921,0-7.5136566,0.0041733-11.2711487,0.0041733c-2.6796265,0-5.3601379,0.0004349-8.0397644,0.0004349
		c-5.0919342,0-10.1829834-0.0013123-15.2749176-0.0089951l0,0c-0.0004272,0-0.0006561,0-0.0010986,0
		c-0.002182,0-0.0043793,0-0.0065765,0c-0.4066925,0-0.5544128,0.0632095-0.5533142,0.5291595
		c0.0171204,8.4203415,0.0160217,16.840683,0.0028534,25.2612381c-0.0006561,0.4312744,0.0952606,0.554184,0.5405884,0.554184
		c0.0010986,0,0.0024109,0,0.0035095,0c15.160553-0.0230408,30.3211212-0.0234833,45.4819031-0.0493774
		c2.4002228-0.003952,4.7778473-0.2747955,7.0812836-1.0063171
		C250.5411377,89.7556763,252.7014771,87.4274368,252.9729767,83.6640167z M215.8214264,90.5892563l-20.5994873,0.0217285
		c0.0107574-7.92453,0.0116272-15.8108749-0.0035095-23.6961212c4.8739777,0.0054855,9.6926575,0.0065842,14.5117798,0.0065842
		l4.019989-0.0002213h4.0197754l5.6362305-0.0021973l5.6349182-0.0021896c2.7151947,0,5.4316864,0.0021896,8.1468658,0.0098724
		c2.7761993,0.0079041,5.7492828,0.1075439,8.6813049,0.776741c1.9079437,0.4356689,3.1304321,1.0098267,4.0878143,1.9195709
		c0.9913788,0.9424438,1.5363464,2.1783371,1.6656342,3.7787781c0.2682037,3.3145828,0.2785187,6.7351761,0.0309448,10.1669617
		c-0.2207947,3.0617371-1.8726044,5.0405731-5.0495758,6.0493011c-1.9878235,0.631218-4.1738434,0.9402466-6.6831512,0.9441986
		C231.8877716,90.576088,223.854599,90.5826721,215.8214264,90.5892563z"/>
	<path class="st1" d="M312.860199,88.069191c2.4500427-7.6604996,4.1681519-15.4594879,4.3336182-23.5427094
		c0.0965881-4.7161751-0.4413757-9.3434677-1.6871338-13.9073296c-0.9088745-3.3299446-2.857605-5.7543182-5.7905273-7.4704285
		c-2.0082397-1.1750946-4.1613464-1.9906807-6.3945312-2.6069794c-5.2591858-1.4511986-10.6498108-1.9445915-16.0744934-2.1370735
		c-1.5934143-0.0564079-3.186615-0.0820847-4.7807007-0.0820847c-1.96521,0-3.9310913,0.0390663-5.8965454,0.1071053
		c-2.8086853,0.0974503-5.6138306,0.2488899-8.4152832,0.4576149c-4.2774353,0.3184662-8.5450134,0.7446938-12.8050995,1.2497177
		c-4.0772705,0.4835129-8.1451111,1.0337486-12.2041779,1.6482925c-4.8625641,0.7359161-9.7128448,1.5501862-14.5460052,2.460804
		c-2.4678345,0.4650803-4.9317169,0.9505692-7.3973541,1.4268379c0.0831909,0.0410423,0.1626434,0.0566254,0.2396851,0.0566254
		c0.0397186,0,0.0787811-0.0041695,0.1174164-0.0111923c2.6331024-0.4734154,5.2798004-0.852459,7.9319916-1.2009926
		c5.8225861-0.7651062,11.6692963-1.2468643,17.5368652-1.443737c1.686264-0.0566254,3.3725281-0.085598,5.0594482-0.085598
		c1.9055176,0,3.8119202,0.0370941,5.7174377,0.112812c4.589325,0.1826096,9.1549377,0.5886459,13.6891785,1.3346558
		c5.0794067,0.8357811,10.0502014,2.071888,14.8339844,4.0002365c4.9338989,1.9891472,9.4602356,4.6340942,13.2798157,8.3808327
		c3.8694458,3.7956848,6.5218506,8.3237724,7.9945679,13.5397072c1.7975159,6.3668823,1.7180786,12.8116837,0.7528076,19.2839203
		c-0.7888184,5.2899017-2.2005005,10.4250641-3.9444885,15.4737549c-1.2887878,3.7304993-2.7654419,7.3863754-4.3959656,11.048172
		c0.2998047-0.0693588,0.3320923-0.2756653,0.4187622-0.4229355c1.6937256-2.8800125,3.2555542-5.8309174,4.7311096-8.8281326
		C308.1681519,100.8093338,310.7876587,94.5495529,312.860199,88.069191z"/>
	<path class="st2" d="M316.7827454,50.2708397c-0.9878845-3.6194382-3.0808411-6.3225517-6.3987122-8.2636299
		c-1.9336243-1.1316376-4.1288452-2.0279922-6.7106018-2.7404251c-5.9075012-1.6302948-11.85672-2.0233803-16.3793335-2.1840401
		C285.6859741,37.025898,284.0783081,37,282.4697266,37c-1.9836426,0-3.9649048,0.0392876-5.9457092,0.1077652
		c-2.8407288,0.0985451-5.6895752,0.2534981-8.4677429,0.4604683c-4.1137085,0.3063927-8.3209229,0.717041-12.862381,1.2552032
		c-4.0474243,0.4800034-8.1677246,1.036602-12.2465363,1.6539993c-5.024765,0.760498-9.9345245,1.5912285-14.5929871,2.4689255
		c-1.7038116,0.3211021-3.4058838,0.6518555-5.1077271,0.9826126l-2.2955322,0.4453239l-3.8667908,0.746891l3.5336151,1.7384987
		c0.2596436,0.1277351,0.5366211,0.192482,0.8237152,0.192482h0.1180725l0.2335205-0.0320435
		c2.2463837-0.4038429,4.6735992-0.7712517,7.8701019-1.1913376c5.757843-0.756546,11.615097-1.2387428,17.4089203-1.4332008
		c1.6715546-0.0559692,3.3428955-0.0847206,5.0151062-0.0847206c1.88797,0,3.7770233,0.0366554,5.6647644,0.1117172
		c4.8952942,0.1946793,9.3200073,0.6259537,13.5271912,1.3181953c5.4859009,0.9025002,10.2466431,2.18536,14.5541382,3.9216614
		c5.24646,2.1151276,9.4490356,4.7642479,12.8481445,8.098362c3.6617737,3.5920067,6.2349548,7.9506531,7.6477661,12.9550095
		c1.5672913,5.5513,1.7953186,11.5027084,0.7174683,18.7293015c-0.7036438,4.7196884-1.974884,9.7036362-3.886322,15.2369385
		c-1.2069092,3.4936752-2.631134,7.072731-4.3540344,10.9421616l-1.079834,2.4245911l2.5861206-0.5980835
		c0.8612366-0.1990662,1.1663208-0.8384171,1.2666016-1.0484543c1.6013184-2.7250595,3.164032-5.6410675,4.7719421-8.906929
		c3.2364502-6.5749512,5.7775879-12.7976379,7.7687073-19.0231781c2.8475342-8.902977,4.2442932-16.5033417,4.3961792-23.9186783
		C318.6164856,59.657547,318.0333252,54.8522606,316.7827454,50.2708397z M300.0147095,116.1621552
		c1.6305237-3.6617966,3.1071777-7.3176727,4.3959656-11.048172c1.743988-5.0486908,3.1556702-10.1838531,3.9444885-15.4737549
		c0.965271-6.4722366,1.0447083-12.917038-0.7528076-19.2839203c-1.4727173-5.2159348-4.1251221-9.7440224-7.9945679-13.5397072
		c-3.8195801-3.7467384-8.3459167-6.3916855-13.2798157-8.3808327c-4.783783-1.9283485-9.7545776-3.1644554-14.8339844-4.0002365
		c-4.5342407-0.7460098-9.0998535-1.1520462-13.6891785-1.3346558c-1.9055176-0.0757179-3.8119202-0.112812-5.7174377-0.112812
		c-1.6869202,0-3.3731842,0.0289726-5.0594482,0.085598c-5.867569,0.1968727-11.7142792,0.6786308-17.5368652,1.443737
		c-2.6521912,0.3485336-5.2988892,0.7275772-7.9319916,1.2009926c-0.0386353,0.0070229-0.0776978,0.0111923-0.1174164,0.0111923
		c-0.0770416,0-0.1564941-0.015583-0.2396851-0.0566254c2.4656372-0.4762688,4.9295197-0.9617577,7.3973541-1.4268379
		c4.8331604-0.9106178,9.6834412-1.7248878,14.5460052-2.460804c4.0590668-0.6145439,8.1269073-1.1647797,12.2041779-1.6482925
		c4.2600861-0.505024,8.5276642-0.9312515,12.8050995-1.2497177c2.8014526-0.208725,5.6065979-0.3601646,8.4152832-0.4576149
		c1.9654541-0.0680389,3.9313354-0.1071053,5.8965454-0.1071053c1.5940857,0,3.1872864,0.0256767,4.7807007,0.0820847
		c5.4246826,0.192482,10.8153076,0.6858749,16.0744934,2.1370735c2.2331848,0.6162987,4.3862915,1.4318848,6.3945312,2.6069794
		c2.9329224,1.7161102,4.8816528,4.1404839,5.7905273,7.4704285c1.2457581,4.5638618,1.7837219,9.1911545,1.6871338,13.9073296
		c-0.1654663,8.0832214-1.8835754,15.8822098-4.3336182,23.5427094c-2.0725403,6.4803619-4.6920471,12.7401428-7.6956177,18.8418961
		c-1.4755554,2.9972153-3.037384,5.9481201-4.7311096,8.8281326
		C300.3468018,115.8864899,300.3145142,116.0927963,300.0147095,116.1621552z"/>
	<path class="st3" d="M288.288147,126.1241226c-0.0158081-3.8103867-0.0096741-7.6207809-0.0096741-11.4311676
		c0.0002136-18.7192001-0.0015259-37.4381866,0.0105286-56.1573868c0.0002441-0.4521294-0.1149902-0.5737228-0.5546265-0.5737228
		c-0.0065613,0-0.0135803,0-0.0203857,0c-1.3599243,0.0109749-2.7200317,0.0166817-4.0799255,0.0166817
		c-1.352417,0-2.7048645-0.0057068-4.0570679-0.0171204c-0.0101013,0-0.0202026-0.0002174-0.0300903-0.0002174
		c-0.4569397,0-0.6075134,0.0930595-0.6066284,0.6121292c0.0186462,11.2481155,0.0140381,22.4962311,0.0140381,33.7443466
		c0,11.2645721,0.0030823,22.5293655-0.0109558,33.7941666c-0.0006714,0.438736,0.1086426,0.5434265,0.5276184,0.5434265
		c0.0065918,0,0.0131531,0,0.0199585,0c1.3776855-0.0105362,2.755127-0.0158005,4.1328125-0.0158005
		c1.3847046,0,2.7696228,0.0052643,4.1540833,0.0158005c0.0052795,0,0.0103149,0,0.0153809,0
		C288.2108765,126.6552582,288.2896729,126.5218201,288.288147,126.1241226z"/>
	<path class="st2" d="M289.6012878,107.6733398c-0.0002136-16.3791122-0.0002136-32.757782,0.0105286-49.1368942
		c0-0.2392349,0.0002136-0.8737488-0.4826355-1.375042c-0.5032654-0.5223618-1.1742249-0.5223618-1.3948059-0.5223618
		c-1.3875427,0.0111961-2.743927,0.0166817-4.1003113,0.0166817c-1.3486938,0-2.6973877-0.0054855-4.0458984-0.0168991h-0.0057068
		l-0.0357666-0.0002213c-0.2495422,0-0.912384,0-1.4184875,0.507c-0.4589233,0.4598083-0.5111694,1.0361633-0.5107422,1.4299088
		c0.0158081,9.3895607,0.0151672,18.7791252,0.0144958,28.1689034l-0.0004272,5.5732498l0.0002136,5.1621628
		c0.0004272,9.5434113,0.000885,19.0868301-0.0112,28.6302414c-0.0002136,0.2398911-0.0010986,0.8774796,0.4947205,1.3741684
		c0.4931641,0.4938278,1.1423645,0.4938278,1.3557129,0.4938278c1.4044495-0.0107574,2.7783813-0.0160217,4.152771-0.0160217
		c1.3811951,0,2.763031,0.0052643,4.1440125,0.0158005c0.0032654,0,0.0068054,0,0.0105286,0
		c0.2407532,0,0.8607788-0.007019,1.3445129-0.4925156c0.4914246-0.4931641,0.4890137-1.1274643,0.487915-1.3662567
		c-0.0122986-2.9746094-0.0112-5.9487762-0.0101013-8.9227295l0.0006714-2.5033875V107.6733398z M287.777832,126.6552582
		c-1.3844604-0.0105362-2.7693787-0.0158005-4.1540833-0.0158005c-1.3776855,0-2.755127,0.0052643-4.1328125,0.0158005
		c-0.0068054,0-0.0133667,0-0.0199585,0c-0.4189758,0-0.5282898-0.1046906-0.5276184-0.5434265
		c0.0140381-11.264801,0.0109558-22.5295944,0.0109558-33.7941666c0-11.2481155,0.0046082-22.4962311-0.0140381-33.7443466
		c-0.000885-0.5190697,0.1496887-0.6121292,0.6066284-0.6121292c0.0098877,0,0.019989,0.0002174,0.0300903,0.0002174
		c1.3522034,0.0114136,2.7046509,0.0171204,4.0570679,0.0171204c1.3598938,0,2.7200012-0.0057068,4.0799255-0.0166817
		c0.0068054,0,0.0138245,0,0.0203857,0c0.4396362,0,0.5548706,0.1215935,0.5546265,0.5737228
		c-0.0120544,18.7192001-0.0103149,37.4381866-0.0105286,56.1573868c0,3.8103867-0.006134,7.6207809,0.0096741,11.4311676
		c0.0015259,0.3976974-0.0772705,0.5311356-0.4949341,0.5311356
		C287.788147,126.6552582,287.7831116,126.6552582,287.777832,126.6552582z"/>
	<path class="st1" d="M287.2765503,135.4245758c-1.3921509-0.8627777-2.9438782-1.2170258-4.5546265-1.3021851
		c-1.3978882-0.0737305-2.7970581-0.1011658-4.1962585-0.1011658c-1.379425,0-2.7586365,0.0265503-4.1365356,0.0612335
		c-2.6091614,0.0656128-4.9571533,0.7975769-6.3361511,3.4829102c0-1.0223236-0.0166626-1.9109955,0.0085754-2.798584
		c0.0092163-0.3254852-0.0950317-0.4148102-0.3807983-0.4148102c-0.0133972,0-0.0274353,0.0002136-0.0419312,0.0006561
		c-0.3952942,0.0107574-0.7912292,0.0193176-1.1867371,0.0193176c-0.3368835,0-0.6733398-0.0063629-1.0091553-0.0228271
		c-0.0329285-0.0015411-0.0643005-0.0024109-0.0939331-0.0024109c-0.3737793,0-0.4883423,0.1360779-0.4872437,0.5708618
		c0.0160217,7.3211823,0.0112,14.6425934,0.0112,21.9637756c0,1.3642883,0.0149231,2.7290039-0.0096741,4.0930786
		c-0.0063477,0.3638916,0.0983276,0.4696808,0.4225159,0.4696808c0.0177612,0,0.0359802-0.0002136,0.0548706-0.0008698
		c0.4187622-0.0133972,0.8379517-0.0210724,1.2571716-0.0210724c0.3963623,0,0.7927551,0.0068054,1.1882629,0.0223846
		c0.0208435,0.0008698,0.0408325,0.0013123,0.059906,0.0013123c0.3535767,0,0.4332581-0.1424408,0.4310608-0.5056763
		c-0.0158081-2.6289368-0.0083313-5.2580719-0.0083313-7.8870087c0-0.3884735,0-0.7769623,0-1.1834259
		c0.176239,0.0660553,0.1797485,0.197525,0.2221069,0.2965088c0.4993286,1.1691742,1.3937073,1.8723907,2.5949097,2.2218018
		c0.8855896,0.2576599,1.7942505,0.3496246,2.710144,0.3531342c1.2738647,0.0050507,2.547699,0.0074615,3.8215637,0.0074615
		c1.2055969,0,2.4112244-0.0021973,3.6168213-0.007019c1.2152405-0.0050507,2.4226074-0.1119385,3.6156921-0.3608246
		c2.9739685-0.6202545,4.8421631-2.3387756,5.4119263-5.3842773c0.2557068-1.3680115,0.2605286-2.7450256,0.2427673-4.1251221
		c-0.019989-1.5609436,0.1031494-3.1280212-0.1878967-4.6786499
		C289.941925,138.195282,289.0505981,136.5241699,287.2765503,135.4245758z M287.0342407,147.5521393
		c-0.2087097,2.7645721-1.6291809,4.1661682-4.3972778,4.3276978c-1.5280151,0.0891113-3.0571289,0.1281738-4.5866699,0.1281738
		c-1.6465454,0-3.2937317-0.0452118-4.9400635-0.1209259c-0.6147461-0.0283203-1.2141418-0.1764679-1.7994995-0.3761902
		c-1.5967102-0.5451813-2.569458-1.6715546-2.8356934-3.3049164c-0.3764038-2.3093719-0.3542175-4.6542969-0.0667114-6.9625549
		c0.3239441-2.5986481,2.062439-4.0792542,4.710022-4.3353882c0.6797485-0.0658417,1.3594666-0.0801086,2.0358887-0.0801086
		c0.524353,0,1.0467224,0.0085602,1.5649109,0.0085602c0.3498535,0,0.6983643-0.003952,1.0440674-0.0171204
		c0.3217468,0.0098724,0.6415405,0.0131683,0.9599915,0.0131683c0.57547,0,1.1463318-0.0105438,1.7145691-0.0105438
		c0.6722717,0,1.3408203,0.0147095,2.0082397,0.0785828c0.3634644,0.0348969,0.729126,0.0763702,1.0851135,0.1542969
		c2.162323,0.4731903,3.2972412,1.7297211,3.4842529,3.9677429
		C287.1966553,143.195694,287.1982117,145.3792877,287.0342407,147.5521393z"/>
	<path class="st2" d="M287.9733887,134.3003998c-1.4540405-0.9011841-3.1488647-1.3912811-5.1816711-1.4988251
		c-1.4211426-0.0750732-2.8435974-0.1029358-4.2660522-0.1029358c-1.3903809,0-2.7807922,0.0265503-4.1698914,0.0614471
		c-2.053009,0.0518036-3.7276306,0.5142365-5.0493469,1.4015961c-0.0737305-0.24823-0.199707-0.4646301-0.3768311-0.6470184
		c-0.3132019-0.3219757-0.7330627-0.4852753-1.2486267-0.4852753c-0.4613342,0.0114136-0.8452148,0.0197601-1.2288818,0.0197601
		c-0.315155,0-0.6298828-0.0057068-0.9439697-0.0210724c-0.0085449,0-0.0169067,0-0.025238,0
		c-0.6832275,0-1.1158447,0.1661377-1.4393616,0.4905396c-0.5065613,0.5076447-0.5050049,1.181015-0.504364,1.4020233
		c0.01297,5.9441681,0.012085,11.8883514,0.0114136,17.8327332l-0.0004272,4.1279755l0.0024109,1.1265869
		c0.0028687,0.9810791,0.0059204,1.9619293-0.0116272,2.9427795c-0.0037231,0.2061005-0.0149231,0.832489,0.4716492,1.3278503
		c0.3182678,0.3239594,0.7466736,0.4883423,1.2732239,0.4883423c0.501709-0.0146942,0.9068909-0.0221558,1.3120422-0.0221558
		c0.3790283,0,0.7578735,0.0065765,1.1362305,0.0214996c0.0043945,0,0.0085754,0,0.01297,0
		c0.6261597,0,1.0493164-0.1635132,1.3673401-0.4835052c0.4907532-0.4938354,0.4866028-1.1388855,0.4852905-1.3509064
		c-0.0114136-1.9068298-0.0105591-3.8141174-0.0092163-5.7213898c0.3452148,0.1804047,0.7209778,0.3298798,1.1259155,0.4477386
		c0.9233398,0.2686462,1.9292297,0.4011993,3.0744629,0.4055939l3.8266296,0.0076904l3.6220703-0.0072479
		c1.3851624-0.0057068,2.6543884-0.132782,3.8806458-0.3887024c3.5656433-0.7435913,5.7933655-2.9691162,6.441925-6.4358063
		c0.2778625-1.4867554,0.2840271-2.9228058,0.2651367-4.3854218c-0.0050354-0.3902283-0.0006409-0.780899,0.0035095-1.1717987
		c0.01297-1.2060394,0.0263367-2.4533386-0.2139893-3.7337952
		C291.1389465,137.403183,289.913147,135.5027008,287.9733887,134.3003998z M290.5046692,144.8714142
		c0.0177612,1.3800964,0.0129395,2.7571106-0.2427673,4.1251221c-0.5697632,3.0455017-2.4379578,4.7640228-5.4119263,5.3842773
		c-1.1930847,0.2488861-2.4004517,0.3557739-3.6156921,0.3608246c-1.2055969,0.0048218-2.4112244,0.007019-3.6168213,0.007019
		c-1.2738647,0-2.547699-0.0024109-3.8215637-0.0074615c-0.9158936-0.0035095-1.8245544-0.0954742-2.710144-0.3531342
		c-1.2012024-0.349411-2.0955811-1.0526276-2.5949097-2.2218018c-0.0423584-0.0989838-0.0458679-0.2304535-0.2221069-0.2965088
		c0,0.4064636,0,0.7949524,0,1.1834259c0,2.6289368-0.0074768,5.2580719,0.0083313,7.8870087
		c0.0021973,0.3632355-0.0774841,0.5056763-0.4310608,0.5056763c-0.0190735,0-0.0390625-0.0004425-0.059906-0.0013123
		c-0.3955078-0.0155792-0.7919006-0.0223846-1.1882629-0.0223846c-0.41922,0-0.8384094,0.0076752-1.2571716,0.0210724
		c-0.0188904,0.0006561-0.0371094,0.0008698-0.0548706,0.0008698c-0.3241882,0-0.4288635-0.1057892-0.4225159-0.4696808
		c0.0245972-1.3640747,0.0096741-2.7287903,0.0096741-4.0930786c0-7.3211823,0.0048218-14.6425934-0.0112-21.9637756
		c-0.0010986-0.4347839,0.1134644-0.5708618,0.4872437-0.5708618c0.0296326,0,0.0610046,0.0008698,0.0939331,0.0024109
		c0.3358154,0.0164642,0.6722717,0.0228271,1.0091553,0.0228271c0.3955078,0,0.7914429-0.0085602,1.1867371-0.0193176
		c0.0144958-0.0004425,0.0285339-0.0006561,0.0419312-0.0006561c0.2857666,0,0.3900146,0.089325,0.3807983,0.4148102
		c-0.025238,0.8875885-0.0085754,1.7762604-0.0085754,2.798584c1.3789978-2.6853333,3.7269897-3.4172974,6.3361511-3.4829102
		c1.3778992-0.0346832,2.7571106-0.0612335,4.1365356-0.0612335c1.3992004,0,2.7983704,0.0274353,4.1962585,0.1011658
		c1.6107483,0.0851593,3.1624756,0.4394073,4.5546265,1.3021851c1.7740479,1.0995941,2.6653748,2.7707062,3.0402222,4.7681885
		C290.6078186,141.7433929,290.4846802,143.3104706,290.5046692,144.8714142z"/>
	<path class="st2" d="M283.5311279,137.0548706c-0.3559875-0.0779266-0.7216492-0.1194-1.0851135-0.1542969
		c-0.6674194-0.0638733-1.335968-0.0785828-2.0082397-0.0785828c-0.5682373,0-1.1390991,0.0105438-1.7145691,0.0105438
		c-0.3184509,0-0.6382446-0.0032959-0.9599915-0.0131683c-0.3457031,0.0131683-0.6942139,0.0171204-1.0440674,0.0171204
		c-0.5181885,0-1.0405579-0.0085602-1.5649109-0.0085602c-0.6764221,0-1.3561401,0.014267-2.0358887,0.0801086
		c-2.647583,0.256134-4.3860779,1.7367401-4.710022,4.3353882c-0.2875061,2.3082581-0.3096924,4.653183,0.0667114,6.9625549
		c0.2662354,1.6333618,1.2389832,2.7597351,2.8356934,3.3049164c0.5853577,0.1997223,1.1847534,0.3478699,1.7994995,0.3761902
		c1.6463318,0.0757141,3.2935181,0.1209259,4.9400635,0.1209259c1.529541,0,3.0586548-0.0390625,4.5866699-0.1281738
		c2.7680969-0.1615295,4.1885681-1.5631256,4.3972778-4.3276978c0.1639709-2.1728516,0.1624146-4.3564453-0.0188599-6.5295258
		C286.8283691,138.7845917,285.6934509,137.5280609,283.5311279,137.0548706z M273.1710205,150.5658112
		c-0.4213867-0.0193024-0.8768005-0.1167603-1.433197-0.3068237c-1.1472168-0.3915558-1.7692261-1.1116638-1.9573059-2.2659149
		c-0.3309937-2.0306244-0.3511658-4.2464905-0.0596924-6.5861359c0.237915-1.9083862,1.4237366-2.9792175,3.5248413-3.1824646
		c0.637146-0.061676,1.2745056-0.0739594,1.9085693-0.0739594l0.7745667,0.0043793l0.7903442,0.0043945
		c0.3667297,0,0.7319641-0.0043945,1.0945435-0.018219c0.2440491,0.0107574,0.5774536,0.0140533,0.9095154,0.0140533
		l0.8748474-0.0052643l0.8397217-0.0050507c0.630127,0,1.2567444,0.0125122,1.8822632,0.0724182
		c0.3105774,0.0298615,0.6237793,0.0630035,0.9281921,0.129715c1.6245728,0.3555603,2.3113403,1.1366882,2.4489441,2.7858582
		c0.1725159,2.0668488,0.1786499,4.193161,0.018219,6.3199158c-0.1595764,2.1125031-1.044281,2.9836121-3.1554565,3.1067352
		c-1.4299011,0.0834045-2.9469604,0.1257629-4.5096436,0.1257629
		C276.4239502,150.6852112,274.7971497,150.6406555,273.1710205,150.5658112z"/>
	<path class="st1" d="M192.6406403,134.8076172c-1.3249969-0.4192047-2.6866455-0.6189423-4.0680542-0.6880646
		c-1.2150421-0.0608063-2.4305267-0.0781403-3.646225-0.0781403c-1.3464966,0-2.6934509,0.021286-4.0397339,0.0287476
		c-1.664093,0.0090027-3.3191986,0.1760254-4.9308319,0.6437378c-2.9719696,0.8623352-4.8553314,2.7281342-5.1819153,5.8719635
		c-0.2769928,2.6651306-0.3193512,5.3557434,0.0496063,8.013855c0.3384247,2.4395142,1.739151,4.1543121,4.0353546,5.1068573
		c0.9424438,0.3908844,1.9243927,0.6255188,2.9285126,0.7848511c1.4248657,0.2258453,2.8569641,0.2554779,4.29039,0.2554779
		c0.5102844,0,1.0205841-0.0037231,1.5308685-0.0037231c0.1676788,0,0.3358002,0.0004272,0.503479,0.0015259
		c0.6810455,0,1.3620911,0.0070343,2.0431366,0.0070343c0.4172363,0,0.8348999-0.0026398,1.2521362-0.0112
		c1.6820984-0.0348969,3.3529968-0.1819458,4.9777985-0.6575623c2.820755-0.8261261,4.7058716-2.5834961,5.092804-5.5631561
		c0.3538055-2.7243958,0.3500824-5.4889679,0.0043945-8.2133636
		C197.1197815,137.449707,195.3617554,135.6690674,192.6406403,134.8076172z M194.0865784,148.0057983
		c-0.3239594,2.2624054-1.7176514,3.4449615-4.0158234,3.7928314c-0.9957886,0.1507874-1.9942017,0.1788788-2.9888763,0.1788788
		c-0.5943451,0-1.1869507-0.0098724-1.7769012-0.0098724c-0.3775177,0-0.754364,0.003952-1.1292267,0.0175629
		c-0.349411-0.0105438-0.6970673-0.0138397-1.0440674-0.0138397c-0.6320953,0-1.26091,0.0112-1.8873138,0.0112
		c-0.7497406,0-1.4963989-0.0160217-2.2422028-0.0869141c-1.0848846-0.1029358-2.1399231-0.3189087-3.0634918-0.9428864
		c-1.2012177-0.8118591-1.7362976-2.0315094-1.8113708-3.3999634c-0.1194-2.1737213-0.216629-4.3636932,0.0449982-6.5288544
		c0.2866364-2.3728027,1.6840668-3.6657562,4.078598-4.0145111c0.8348999-0.121582,1.6733093-0.1810608,2.5167694-0.1810608
		c0.0061493,0,0.0120697,0,0.018219,0c0.1909485,0.0002136,0.3814545,0.0002136,0.5721741,0.0002136
		c1.1871643,0,2.3743286-0.0024109,3.5615082-0.0024109c1.0019226,0,2.0042877,0.0017548,3.0062103,0.0079041
		c0.8474121,0.0050354,1.6908722,0.0840607,2.5259857,0.2556915c2.0484009,0.4209595,3.3703308,1.6142731,3.6407318,3.703064
		C194.4026184,143.1877899,194.4287415,145.6169891,194.0865784,148.0057983z"/>
	<path class="st2" d="M193.0398712,133.5467072c-1.3335571-0.4220581-2.7733459-0.6667786-4.4012299-0.7482147
		c-1.2369843-0.0618896-2.4746246-0.0796661-3.7122803-0.0796661c-0.8182068,0-1.6366577,0.0076752-2.4550934,0.0155792
		l-1.5918884,0.0131683c-1.9841003,0.0107574-3.7151337,0.2383575-5.2923126,0.6959686
		c-3.6431427,1.0572357-5.7624359,3.4796295-6.1287537,7.0055847c-0.3173676,3.0536194-0.2993622,5.7791138,0.0550995,8.3325348
		c0.3985748,2.8732147,2.0716553,4.9988708,4.8386383,6.146759c0.951889,0.3946228,1.9775238,0.6709442,3.22789,0.8693542
		c1.5824585,0.2508698,3.1512909,0.2719269,4.4978027,0.2719269l0.7701569-0.0019684l0.7607117-0.0017548l0.4949188,0.0013123
		l1.0232239,0.0037384l1.0284729,0.0035095c0.4264526,0,0.8531189-0.0028534,1.2793579-0.0116272
		c2.1546326-0.0445557,3.7961121-0.2638245,5.3221588-0.7104645c3.5145264-1.0293579,5.6006775-3.3330231,6.0328369-6.6623077
		c0.3658752-2.8163605,0.3674164-5.6930847,0.004837-8.5502625
		C198.3817902,136.887619,196.3917694,134.6078949,193.0398712,133.5467072z M197.4779663,148.5198212
		c-0.3869324,2.97966-2.272049,4.73703-5.092804,5.5631561c-1.6248016,0.4756165-3.2957001,0.6226654-4.9777985,0.6575623
		c-0.4172363,0.0085602-0.8348999,0.0112-1.2521362,0.0112c-0.6810455,0-1.3620911-0.0070343-2.0431366-0.0070343
		c-0.1676788-0.0010986-0.3358002-0.0015259-0.503479-0.0015259c-0.5102844,0-1.0205841,0.0037231-1.5308685,0.0037231
		c-1.4334259,0-2.8655243-0.0296326-4.29039-0.2554779c-1.0041199-0.1593323-1.9860687-0.3939667-2.9285126-0.7848511
		c-2.2962036-0.9525452-3.6969299-2.6673431-4.0353546-5.1068573c-0.3689575-2.6581116-0.3265991-5.3487244-0.0496063-8.013855
		c0.3265839-3.1438293,2.2099457-5.0096283,5.1819153-5.8719635c1.6116333-0.4677124,3.2667389-0.6347351,4.9308319-0.6437378
		c1.346283-0.0074615,2.6932373-0.0287476,4.0397339-0.0287476c1.2156982,0,2.4311829,0.017334,3.646225,0.0781403
		c1.3814087,0.0691223,2.7430573,0.2688599,4.0680542,0.6880646c2.7211151,0.8614502,4.4791412,2.6420898,4.8417206,5.4988403
		C197.8280487,143.0308533,197.8317719,145.7954254,197.4779663,148.5198212z"/>
	<path class="st2" d="M190.451767,137.0897675c-0.8351135-0.1716309-1.6785736-0.2506561-2.5259857-0.2556915
		c-1.0019226-0.0061493-2.0042877-0.0079041-3.0062103-0.0079041c-1.1871796,0-2.3743439,0.0024109-3.5615082,0.0024109
		c-0.1907196,0-0.3812256,0-0.5721741-0.0002136c-0.0061493,0-0.0120697,0-0.018219,0
		c-0.8434601,0-1.6818695,0.0594788-2.5167694,0.1810608c-2.3945312,0.3487549-3.7919617,1.6417084-4.078598,4.0145111
		c-0.2616272,2.1651611-0.1643982,4.3551331-0.0449982,6.5288544c0.0750732,1.368454,0.6101532,2.5881042,1.8113708,3.3999634
		c0.9235687,0.6239777,1.9786072,0.8399506,3.0634918,0.9428864c0.7458038,0.0708923,1.4924622,0.0869141,2.2422028,0.0869141
		c0.6264038,0,1.2552185-0.0112,1.8873138-0.0112c0.3470001,0,0.6946564,0.0032959,1.0440674,0.0138397
		c0.3748627-0.0136108,0.751709-0.0175629,1.1292267-0.0175629c0.5899506,0,1.1825562,0.0098724,1.7769012,0.0098724
		c0.9946747,0,1.9930878-0.0280914,2.9888763-0.1788788c2.298172-0.3478699,3.691864-1.530426,4.0158234-3.7928314
		c0.3421631-2.3888092,0.31604-4.8180084,0.0059204-7.2129669
		C193.8220978,138.7040405,192.5001678,137.5107269,190.451767,137.0897675z M192.7771606,147.8183746
		c-0.2289276,1.5997772-1.0976257,2.3989105-2.9043732,2.6725922c-0.9547424,0.1444244-1.9467926,0.1639557-2.7909088,0.1639557
		l-0.8803406-0.0050507l-0.8965607-0.0050354c-0.3935394,0-0.7861786,0.0043793-1.1768646,0.0184326
		c-0.2752228-0.0109711-0.636261-0.0147095-0.9964294-0.0147095l-0.9597931,0.0057068l-0.9275208,0.0057068
		c-0.7080383,0-1.4130096-0.014267-2.1170959-0.0809937c-1.1248322-0.1068878-1.8570099-0.3228455-2.4480743-0.7223053
		c-0.7692719-0.5197296-1.1720276-1.2971191-1.2312775-2.376297c-0.1235657-2.2523041-0.2061005-4.2809601,0.0375214-6.29776
		c0.2098236-1.7365265,1.0938873-2.5931549,2.9561768-2.864212c0.7618103-0.1110535,1.5444794-0.16745,2.3260498-0.16745
		l0.5903931,0.0002136l1.7819672-0.0010986l1.779541-0.0010986c0.9992828,0,1.9987946,0.0015411,2.9980927,0.0076904
		c0.7894592,0.0048218,1.5523682,0.0816345,2.2678833,0.2286835c1.585083,0.3257141,2.409668,1.1448059,2.5951233,2.5773621
		C193.089035,143.3431854,193.0879364,145.6496887,192.7771606,147.8183746z"/>
	<path class="st1" d="M243.2875519,154.0364532c-0.0057068-0.0322723-0.0008698-0.0665131-0.0008698-0.0996552
		c0-6.3561249-0.003952-12.7124786,0.0096588-19.0683899c0.0008698-0.3904572-0.0921936-0.5210419-0.4495087-0.5210419
		c-0.0230408,0-0.0471802,0.0004425-0.0724182,0.0015411c-0.382782,0.0160217-0.7662048,0.0219421-1.1496429,0.0219421
		c-0.4486084,0-0.8974457-0.0081177-1.3458405-0.018219c-0.0109711-0.0002136-0.0215149-0.0004425-0.0320435-0.0004425
		c-0.2807159,0-0.4027557,0.0904236-0.3579712,0.3915558c0.0144806,0.0976715,0.0021973,0.199295,0.0021973,0.2991486
		c0,3.7269897,0.0092163,7.4541931-0.0030823,11.1813965c-0.0098724,2.993042-1.109024,4.4956055-3.7789917,5.2190094
		c-0.2240906,0.060791-0.4525757,0.1075439-0.6808319,0.1503448c-1.6706848,0.3127594-3.3549652,0.3933105-5.0416718,0.3933105
		c-0.6896057,0-1.3796539-0.0133972-2.0692596-0.0300751c-1.4270477-0.0344543-2.8567352-0.1650543-4.1933746-0.7563324
		c-1.1158295-0.4933777-1.7944641-1.3265228-2.0216217-2.5345459c-0.1176453-0.6261749-0.1240082-1.256958-0.1253204-1.8866425
		c-0.0076904-3.9602966-0.0116425-7.9203644,0.0068054-11.8804474c0.0017548-0.4165649-0.1025085-0.5522003-0.4740753-0.5522003
		c-0.026123,0-0.0537872,0.0006561-0.0827484,0.0019684c-0.3834381,0.0173492-0.7675171,0.0248108-1.1520538,0.0248108
		c-0.4145966,0-0.8294067-0.0087891-1.2433472-0.0228271c-0.0184326-0.0006561-0.036438-0.000885-0.053772-0.000885
		c-0.3309784,0-0.4240417,0.1209412-0.4229431,0.4769287c0.0127258,4.3926697-0.0107574,8.785553,0.0155792,13.178009
		c0.0149231,2.5044708,0.9365234,4.5381775,3.2671814,5.7387238c1.1397552,0.5871124,2.3710327,0.8662872,3.6422577,0.9404755
		c1.0124664,0.0592651,2.0249329,0.075058,3.038269,0.075058c1.1641083,0,2.3284607-0.0210724,3.4927979-0.0210724
		c0.2012634,0,0.4029694,0.0006714,0.6044464,0.0021973c0.0412598,0.0002289,0.0823059,0.0004425,0.1235657,0.0004425
		c0.9562683,0,1.9101257-0.0807648,2.8525696-0.2605286c1.6836395-0.3210907,3.1157379-1.0401001,4.0252686-2.5718536
		c0.1490173-0.2510834,0.2778625-0.5140228,0.4159088-0.7714691c0.0337982,0.0081177,0.0673828,0.016449,0.1009674,0.0245819
		c0,0.9637299,0.0100861,1.9276886-0.0059357,2.8912048c-0.0048218,0.2965088,0.0880127,0.3990173,0.3713684,0.3990173
		c0.0092163,0,0.0186462-0.0002289,0.0283051-0.0004425c0.3963776-0.0090027,0.7931976-0.0138245,1.1900177-0.0138245
		c0.3854065,0,0.7705994,0.0046082,1.1557922,0.0140381c0.0131683,0.0004425,0.0258942,0.0004425,0.0384064,0.0004425
		C243.2045898,154.4517059,243.3452759,154.3606262,243.2875519,154.0364532z"/>
	<path class="st2" d="M242.8470612,133.0245667c-0.4922943,0.0179901-0.8572845,0.0236969-1.22229,0.0236969
		c-0.438736,0-0.8777008-0.0081177-1.3162079-0.0179901c-0.000885,0-0.00177,0-0.0026398,0
		c-0.7514954,0-1.1546783,0.2998047-1.3715363,0.5515442c-0.2161865,0.2508698-0.4530029,0.6898193-0.3537903,1.3570404
		l-0.0105438,3.4565887c0.0019836,2.608078,0.003952,5.2163696-0.0046082,7.8244476
		c-0.0079041,2.3853149-0.7150574,3.3813019-2.8023071,3.9466858c-0.1907349,0.0518036-0.3847504,0.0906525-0.5785522,0.1270752
		c-1.3697815,0.2563629-2.8495026,0.3707123-4.7980499,0.3707123c-0.6788483,0-1.3585815-0.0133972-2.0374298-0.0298462
		c-1.2277679-0.0296326-2.5246735-0.1281891-3.6901093-0.6435242c-0.7253876-0.3208771-1.1129761-0.8048248-1.2567444-1.5695038
		c-0.0930634-0.4942627-0.1013947-1.0150909-0.1027069-1.644989c-0.0076904-3.9572296-0.0116425-7.9142303,0.0067902-11.8714447
		c0.0010986-0.2190399,0.003952-0.8847198-0.4975586-1.3884277c-0.3254852-0.3267975-0.7624664-0.4927368-1.2990875-0.4927368
		h-0.0296326l-0.1121521,0.0032959c-0.3641205,0.0164642-0.7284546,0.0234833-1.0930176,0.0234833
		c-0.3994446,0-0.7993469-0.0083313-1.1981354-0.0219421c-0.0032959,0-0.0068054,0-0.0101013,0
		c-0.6116943,0-1.0330811,0.1617584-1.3497925,0.4793396c-0.48703,0.4887848-0.4852753,1.116272-0.4846191,1.3225861
		c0.0052643,1.84758,0.0041809,3.6953735,0.0030823,5.5431824c-0.0013275,2.5461884-0.0028534,5.0925903,0.0124969,7.6387634
		c0.019104,3.2311859,1.3596802,5.5548248,3.9840088,6.9065857c1.2227173,0.6299133,2.6260681,0.9949036,4.17099,1.0851135
		c1.0379181,0.060791,2.0762787,0.0772552,3.1152954,0.0772552l1.7582397-0.0105286l1.7345581-0.0103149l0.5947876,0.0019684
		c0.0028534,0,0.0059204,0,0.0087738,0c1.1988068,0,2.2391357-0.0954742,3.224823-0.2833405
		c1.1902313-0.2271729,2.1963348-0.6184998,3.0307922-1.1829987c0.0724335,0.2701721,0.2049866,0.5041504,0.3966064,0.698822
		c0.3125305,0.3178101,0.7271271,0.4788971,1.2323761,0.4788971c0.4448853-0.0094299,0.831604-0.0140381,1.2183228-0.0140381
		c0.3744354,0,0.7488708,0.0043945,1.1230774,0.0136108c0.0010986,0,0.0024261,0,0.0035095,0
		c0.7846527,0,1.1952972-0.3116608,1.4143372-0.5730591c0.2058716-0.2458191,0.4264526-0.6634979,0.348526-1.2828674
		l0.0021973-3.4684296c-0.0004425-5.1926727-0.0010986-10.3855591,0.0098724-15.5780182
		c0.0006714-0.2142181,0.0019836-0.8658447-0.4920654-1.3609924
		C243.8053131,133.1880798,243.3746948,133.0245667,242.8470612,133.0245667z M242.8731842,154.4512634
		c-0.3851929-0.0094299-0.7703857-0.0140381-1.1557922-0.0140381c-0.3968201,0-0.7936401,0.0048218-1.1900177,0.0138245
		c-0.0096588,0.0002136-0.0190887,0.0004425-0.0283051,0.0004425c-0.2833557,0-0.3761902-0.1025085-0.3713684-0.3990173
		c0.0160217-0.9635162,0.0059357-1.927475,0.0059357-2.8912048c-0.0335846-0.0081329-0.0671692-0.0164642-0.1009674-0.0245819
		c-0.1380463,0.2574463-0.2668915,0.5203857-0.4159088,0.7714691c-0.9095306,1.5317535-2.341629,2.2507629-4.0252686,2.5718536
		c-0.9424438,0.1797638-1.8963013,0.2605286-2.8525696,0.2605286c-0.0412598,0-0.0823059-0.0002136-0.1235657-0.0004425
		c-0.2014771-0.0015259-0.403183-0.0021973-0.6044464-0.0021973c-1.1643372,0-2.3286896,0.0210724-3.4927979,0.0210724
		c-1.0133362,0-2.0258026-0.0157928-3.038269-0.075058c-1.271225-0.0741882-2.5025024-0.353363-3.6422577-0.9404755
		c-2.330658-1.2005463-3.2522583-3.2342529-3.2671814-5.7387238c-0.0263367-4.3924561-0.0028534-8.7853394-0.0155792-13.178009
		c-0.0010986-0.3559875,0.0919647-0.4769287,0.4229431-0.4769287c0.017334,0,0.0353394,0.0002289,0.053772,0.000885
		c0.4139404,0.0140381,0.8287506,0.0228271,1.2433472,0.0228271c0.3845367,0,0.7686157-0.0074615,1.1520538-0.0248108
		c0.0289612-0.0013123,0.0566254-0.0019684,0.0827484-0.0019684c0.3715668,0,0.4758301,0.1356354,0.4740753,0.5522003
		c-0.0184479,3.960083-0.0144958,7.9201508-0.0068054,11.8804474c0.0013123,0.6296844,0.0076752,1.2604675,0.1253204,1.8866425
		c0.2271576,1.2080231,0.9057922,2.0411682,2.0216217,2.5345459c1.3366394,0.5912781,2.7663269,0.7218781,4.1933746,0.7563324
		c0.6896057,0.0166779,1.3796539,0.0300751,2.0692596,0.0300751c1.6867065,0,3.3709869-0.0805511,5.0416718-0.3933105
		c0.2282562-0.0428009,0.4567413-0.0895538,0.6808319-0.1503448c2.6699677-0.7234039,3.7691193-2.2259674,3.7789917-5.2190094
		c0.0122986-3.7272034,0.0030823-7.4544067,0.0030823-11.1813965c0-0.0998535,0.0122833-0.2014771-0.0021973-0.2991486
		c-0.0447845-0.3011322,0.0772552-0.3915558,0.3579712-0.3915558c0.0105286,0,0.0210724,0.0002289,0.0320435,0.0004425
		c0.4483948,0.0101013,0.8972321,0.018219,1.3458405,0.018219c0.3834381,0,0.766861-0.0059204,1.1496429-0.0219421
		c0.025238-0.0010986,0.0493774-0.0015411,0.0724182-0.0015411c0.3573151,0,0.4503784,0.1305847,0.4495087,0.5210419
		c-0.0136108,6.3559113-0.0096588,12.712265-0.0096588,19.0683899c0,0.0331421-0.004837,0.0673828,0.0008698,0.0996552
		c0.057724,0.324173-0.082962,0.4152527-0.3759613,0.4152527
		C242.8990784,154.4517059,242.8863525,154.4517059,242.8731842,154.4512634z"/>
	<path class="st1" d="M150.1412506,135.6052094c-1.1042023-0.8827515-2.421524-1.2121887-3.7873383-1.3882141
		c-1.0820312-0.1393738-2.1669312-0.1716309-3.2526855-0.1716309c-0.9393768,0-1.8791962,0.0241394-2.8183441,0.0241394
		c-0.0867004,0-0.1736145-0.0002136-0.2600861-0.0006561c-0.0116272,0-0.0234833,0-0.0351105,0
		c-0.7861786,0-1.5651093,0.1376038-2.3199005,0.3786011c-1.455368,0.464859-2.5613403,1.358139-3.375824,2.6818237
		c0-0.7975922-0.0083313-1.5951843,0.0046082-2.392334c0.0041656-0.2651215-0.0658417-0.3834229-0.3430481-0.3834229
		c-0.0065765,0-0.0131683,0-0.0199738,0.0002136c-0.4128418,0.0079041-0.8256836,0.0120697-1.238739,0.0120697
		c-0.4025269,0-0.8052673-0.0041656-1.2075806-0.0131683c-0.0081177-0.0002136-0.0160217-0.0002136-0.0236969-0.0002136
		c-0.2791748,0-0.3296661,0.1200562-0.3294373,0.3803558c0.006134,6.4401855,0.0068054,12.8806-0.0015411,19.3210144
		c-0.0002136,0.2910309,0.0678253,0.3985748,0.3555603,0.3985748c0.0100861,0,0.0208435-0.0002136,0.031601-0.0004425
		c0.4347839-0.0111847,0.8697968-0.0193024,1.3050232-0.0193024c0.3805847,0,0.7611542,0.0063629,1.1408539,0.0221558
		c0.0305176,0.0013275,0.0594788,0.0019836,0.0871429,0.0019836c0.3733368,0,0.4962463-0.1231384,0.4940491-0.5642853
		c-0.0210724-4.0605927-0.0136108-8.1211853-0.0116425-12.181778c0.0013275-2.6148834,1.7198486-4.5660553,4.3147583-4.7965088
		c0.9303741-0.0825348,1.8620605-0.1246643,2.7937622-0.1246643c1.278244,0,2.5562744,0.0792236,3.8281555,0.2418671
		c2.2213593,0.2839966,3.1692963,1.3489227,3.3598022,3.569397c0.0682526,0.7975922,0.1029358,1.5942993,0.0746155,2.391449
		c-0.0122833,0.3406372,0.0943756,0.4358826,0.3957214,0.4358826c0.0169067,0,0.0344696-0.0002136,0.0524597-0.0008698
		c0.3744354-0.0118561,0.7490845-0.0166931,1.1237335-0.0166931c0.4075775,0,0.8153687,0.0057068,1.2225037,0.0147095
		c0.0109711,0.0002289,0.0217285,0.0004425,0.0320435,0.0004425c0.2717133,0,0.3757477-0.0825195,0.3689423-0.3873901
		c-0.0269928-1.18013,0.0430298-2.3633575-0.0948181-3.5397644
		C151.8301392,137.9894104,151.3848267,136.5996704,150.1412506,135.6052094z"/>
	<path class="st2" d="M153.3206329,139.344696c-0.1604462-1.3691101-0.5787659-3.3534241-2.3532562-4.772583
		c-1.4463806-1.1562195-3.1348267-1.4981689-4.4444733-1.6669464c-1.2558594-0.1617584-2.4882355-0.1826172-3.4216766-0.1826172
		c-0.4754028,0-0.9507904,0.0061493-1.4264069,0.0122986l-1.3919373,0.0118561l-0.2528381-0.0004425
		c-0.9312592-0.0002136-1.8471527,0.1483612-2.7645721,0.4411469c-0.6389008,0.2041168-1.2297363,0.4813232-1.7703247,0.8300781
		c-0.0763702-0.1931458-0.1876526-0.3643341-0.3338318-0.5127106c-0.212677-0.2161865-0.5947876-0.4738464-1.2077942-0.4738464
		c-0.4492645,0.0079041-0.8539886,0.0122833-1.2587128,0.0122833c-0.3926544,0-0.7852936-0.003952-1.1777344-0.0129395
		c-0.0006561,0-0.0013123,0-0.0019684,0c-0.796936,0-1.200119,0.3851776-1.3746033,0.6147614
		c-0.2954254,0.3893585-0.3292236,0.8079071-0.3289948,1.0888367c0.0061493,6.4393158,0.0065765,12.8788452-0.0017548,19.318161
		c0,0.1753693-0.0004425,0.7065125,0.3781586,1.1590729c0.2153168,0.2572327,0.6156464,0.5638428,1.3002014,0.5638428
		c0.4887848-0.0116272,0.9128113-0.0195312,1.3366241-0.0195312c0.3621521,0,0.7242889,0.0057068,1.0857697,0.0208435
		c0.0061493,0,0.0125122,0,0.0186615,0c0.6770935,0,1.1147308-0.1667938,1.4393463-0.4929504
		c0.5054626-0.5080872,0.5019531-1.1775055,0.5008545-1.3974304c-0.0175629-3.4021454-0.015152-6.8040771-0.0127411-10.2062378
		l0.0013275-1.9682922c0.0008698-1.9461212,1.2211761-3.3119507,3.1089172-3.4796295
		c0.8928528-0.0794525,1.7933807-0.1196136,2.6767883-0.1196136c1.2286377,0,2.4603577,0.0779114,3.6604767,0.2313232
		c1.5734558,0.2010498,2.0692596,0.7328491,2.2097168,2.3703766c0.0711212,0.8327179,0.0943756,1.5626984,0.0704498,2.2314606
		c-0.0193024,0.539917,0.1325684,0.9817352,0.4516907,1.3124847c0.3156128,0.32724,0.7414093,0.4929504,1.2659607,0.4929504
		c0.4545441-0.0127258,0.8153687-0.017334,1.1761932-0.017334c0.3979187,0,0.796051,0.0054779,1.1935272,0.014267
		c0.0013275,0,0.0024261,0,0.0037384,0c0.5686646,0,0.98349-0.1613159,1.2938385-0.4784698
		c0.3131866-0.3202209,0.4661713-0.7442627,0.4547577-1.2600403c-0.0083466-0.3649902-0.007019-0.7293243-0.0057068-1.0936584
		C153.420929,141.0845184,153.4237823,140.2254639,153.3206329,139.344696z M151.7326965,143.425705
		c-0.0103149,0-0.0210724-0.0002136-0.0320435-0.0004425c-0.407135-0.0090027-0.8149261-0.0147095-1.2225037-0.0147095
		c-0.374649,0-0.7492981,0.004837-1.1237335,0.0166931c-0.0179901,0.0006561-0.035553,0.0008698-0.0524597,0.0008698
		c-0.3013458,0-0.4080048-0.0952454-0.3957214-0.4358826c0.0283203-0.7971497-0.0063629-1.5938568-0.0746155-2.391449
		c-0.190506-2.2204742-1.138443-3.2854004-3.3598022-3.569397c-1.2718811-0.1626434-2.5499115-0.2418671-3.8281555-0.2418671
		c-0.9317017,0-1.8633881,0.0421295-2.7937622,0.1246643c-2.5949097,0.2304535-4.3134308,2.1816254-4.3147583,4.7965088
		c-0.0019684,4.0605927-0.0094299,8.1211853,0.0116425,12.181778c0.0021973,0.4411469-0.1207123,0.5642853-0.4940491,0.5642853
		c-0.0276642,0-0.0566254-0.0006561-0.0871429-0.0019836c-0.3796997-0.0157928-0.7602692-0.0221558-1.1408539-0.0221558
		c-0.4352264,0-0.8702393,0.0081177-1.3050232,0.0193024c-0.0107574,0.0002289-0.0215149,0.0004425-0.031601,0.0004425
		c-0.287735,0-0.3557739-0.1075439-0.3555603-0.3985748c0.0083466-6.4404144,0.0076752-12.8808289,0.0015411-19.3210144
		c-0.0002289-0.2602997,0.0502625-0.3803558,0.3294373-0.3803558c0.0076752,0,0.0155792,0,0.0236969,0.0002136
		c0.4023132,0.0090027,0.8050537,0.0131683,1.2075806,0.0131683c0.4130554,0,0.8258972-0.0041656,1.238739-0.0120697
		c0.0068054-0.0002136,0.0133972-0.0002136,0.0199738-0.0002136c0.2772064,0,0.3472137,0.1183014,0.3430481,0.3834229
		c-0.0129395,0.7971497-0.0046082,1.5947418-0.0046082,2.392334c0.8144836-1.3236847,1.9204559-2.2169647,3.375824-2.6818237
		c0.7547913-0.2409973,1.5337219-0.3786011,2.3199005-0.3786011c0.0116272,0,0.0234833,0,0.0351105,0
		c0.0864716,0.0004425,0.1733856,0.0006561,0.2600861,0.0006561c0.9391479,0,1.8789673-0.0241394,2.8183441-0.0241394
		c1.0857544,0,2.1706543,0.0322571,3.2526855,0.1716309c1.3658142,0.1760254,2.683136,0.5054626,3.7873383,1.3882141
		c1.243576,0.9944611,1.6888885,2.384201,1.8655701,3.8933411c0.1378479,1.1764069,0.0678253,2.3596344,0.0948181,3.5397644
		C152.1084442,143.3431854,152.0044098,143.425705,151.7326965,143.425705z"/>
</g>
</svg>
