<?xml version="1.0" encoding="utf-8"?>
<!-- Generator: Adobe Illustrator 25.3.0, SVG Export Plug-In . SVG Version: 6.00 Build 0)  -->
<svg version="1.1" id="Layer_1" xmlns="http://www.w3.org/2000/svg" xmlns:xlink="http://www.w3.org/1999/xlink" x="0px" y="0px"
	 viewBox="0 0 750.2 400.1" style="enable-background:new 0 0 750.2 400.1;" xml:space="preserve">

<g>
	<path class="st0" d="M299.6,233.6v-14.4v-10.6c-26.2,10.8-52.3,24.1-78.5,37.3c15.1-8.8,30.3-17.5,45.3-25.7
		c-53.6,23.5-106.8,52.6-159.5,66.4c13.4-6.1,26.7-13.1,40-20.6c10.5-3.2,21-6.9,31.6-10.8c16.4-9,32.7-18.4,49-27.7
		c23.7-8.7,47.7-17.5,72-24.5v-14c-21.8,7.9-43.5,17.4-65.1,27.2c-19.8,12-39.8,24.6-60,36.4c-3.2-2.5-6.4-5.2-9.5-7.8
		c-20,7.7-39.9,14.3-59.7,18.6v12.9c9.9-1.7,19.8-4,29.8-6.8c-9.9,4-19.9,7.7-29.8,10.8v20.6c3.1-1.4,6.3-2.9,9.4-4.5
		c0.7,0.3,1.4,0.6,2.1,0.9c-3.8,1.6-7.7,3.2-11.5,4.7v9.9c38-9.3,76.4-26.6,115.1-44.3C246.6,255.6,273,243.5,299.6,233.6z"/>
	<path class="st0" d="M351.4,146.7l1-4.6c-2.6,0.7-5.1,1.4-7.7,2.1C346.9,145,349.1,145.8,351.4,146.7z"/>
	<path class="st0" d="M337.1,155.6c4.3-0.9,8.6-1.8,12.8-2.5l1.4-6.2c-9.7,1.4-19.4,3.4-29.1,5.9L337.1,155.6z"/>
	<path class="st0" d="M230.5,197.6c11.5-5.1,22.9-10.2,34.4-15.1c-3.7,2.7-7.5,5.5-11.3,8.3c1.6-0.6,3.2-1.2,4.8-1.8
		c13.8-7.4,27.5-14.3,41.2-20.5v-6.2c-1.6,0.4-3.2,0.9-4.7,1.4C273.6,173.6,252.1,185.4,230.5,197.6z"/>
	<path class="st0" d="M115.1,230.5c-3.3,1.2-6.5,2.3-9.8,3.4v8.2v0.6c0.5-0.3,0.9-0.6,1.4-0.8c2.9-2,6-3.9,9.1-5.9
		c22.5-4,45.2-11,68.2-19.1c6.2-2.2,12.4-4.5,18.7-6.8c6.4-2.9,12.9-5.7,19.3-8.7c10.9-8.3,21.7-16.5,32.5-24.4
		c-5.4,1.9-10.8,3.9-16.1,5.9c-33.2,14.6-66.2,30-99.1,40.6C131.2,226.1,123.1,228.5,115.1,230.5z"/>
	<path class="st0" d="M271.2,260.6c-3.9,1.8-7.8,3.6-11.8,5.4c-32.2,15-64.3,31.5-96.1,45.3c5.4-1,10.8-2.1,16.2-3.3
		c-16.6,7.6-33.1,14.6-49.6,20.6c-8.2,3-16.4,5.6-24.6,8v14v2.5c1.6,0.3,7.8,1.7,16.8,3.3c27.5-11,55-25.2,82.6-39.9
		c-12.9,7.7-25.8,15.4-38.7,22.7c3-1.4,6-2.8,9.1-4.3c21.8-12.2,43.5-25.3,65.3-37.9c3.3,0.5,6.6,1,9.9,1.6
		c16.4-8.1,32.9-15.9,49.3-22.9v-9.3v-1v-4.8v-12.7c-0.8,0.6-1.6,1.2-2.5,1.8C288.5,253,279.9,256.7,271.2,260.6z"/>
	<path class="st0" d="M241.1,318.4c-3.1,1.6-6.2,3.2-9.2,4.7c-22.1,13.1-44.3,26.5-66.5,38.9c-3.2-0.7-6.4-1.5-9.5-2.4
		c-1,0.5-2.1,0.9-3.1,1.4c8.4,1.1,17.2,2.1,25.8,2.7c32.1-17,64.3-35.7,96.6-52.3c2.1-0.1,4.2-0.2,6.3-0.4c6-3.1,12.1-6.1,18.1-9
		v-11c-32.7,15.2-65.3,33.7-97.8,51.3C214.9,334.4,228,326.3,241.1,318.4z"/>
	<path class="st0" d="M228.4,349c5.8-1.7,11.6-3.4,17.5-5.2c-13.3,6.8-26.6,13.7-39.8,20.5c9.9-0.3,20.3-1.1,30.5-2.2
		c21-12.3,42-24.4,62.9-35.2v-11.2c-6.1,2.2-12.1,4.5-18.2,6.8C263.7,331,246,340,228.4,349z"/>
	<path class="st0" d="M153.5,49.6c0-0.1,0-0.1,0-0.2l-27.8,8.4c9.4-0.2,18.8-1.1,28.2-2.4C153.6,52.8,153.5,50.8,153.5,49.6z"/>
	<path class="st0" d="M118.8,116.8c-0.3,0.8-0.5,1.6-0.6,2.3c2.2-0.7,4.5-1.3,6.7-2c2.6-0.8,5.2-1.7,7.8-2.6
		C128,115.4,123.4,116.2,118.8,116.8z"/>
	<path class="st0" d="M115.5,127.2l0.5-2.1c0.2-0.9,0.4-2,0.7-3.1c-5,0.6-10.1,1.1-15.1,1.4c5.2-1.1,10.5-2.5,15.7-4
		c0.2-0.8,0.4-1.6,0.6-2.5c-5.9,0.8-11.8,1.3-17.6,1.6c-15.9,0.7-31.8-0.6-47.6-4.6c-2.1-0.5-4.1-1.1-6.2-1.7l3,13.8
		c14.3,5.2,28.7,8,43.2,9c-6,1.8-12,3.3-18.1,4.5c-7.5-0.2-15.1-0.9-22.6-2.2l2,9c17.4,3.2,34.8,3.3,52.3,1.2
		C108.3,144.8,113.2,137.8,115.5,127.2z"/>
	<path class="st0" d="M279.7,94.6c0.1,0.2,0.2,0.4,0.3,0.7c18.4-6.1,36.9-11.1,55.4-13.9c4.7-0.9,9.4-1.7,14.1-2.4l-52.1-15.8
		c-2.4,0.6-4.9,1.3-7.3,1.9c-3.3,0.9-6.6,1.9-9.9,2.8c-5.3,1.6-10.6,3.3-15.8,5C270.2,78,274.7,84.9,279.7,94.6z"/>
	<path class="st0" d="M116.7,126.1l-0.5,2.2c-1.9,8.8-5.5,15.3-8.1,19.1c2.1-0.3,4.2-0.6,6.3-0.9c-2.4,0.8-4.8,1.5-7.2,2.2
		c-0.6,0.9-1.2,1.5-1.5,1.9c-0.1,0.1-0.2,0.2-0.4,0.4v1.1c7.8-1,15.6-2.4,23.4-4.2c35.3-9.4,70.9-25.7,106.5-41
		c-10.7,5.5-21.5,11.1-32.3,16.6c2.5-1,5-2,7.6-3c18.2-9,36.3-18.1,54.5-26.3c2.8,1.1,5.7,2.2,8.5,3.4c1.7-0.6,3.5-1.2,5.2-1.8
		c-4.2-9.4-9.5-16.9-15.8-22.2c-6.7,2.2-13.4,4.6-20,6.9c-0.5,0.8-0.9,1.6-1.4,2.3c-8.5,13.2-21.6,20.2-38,20.3h-1.9
		c-3,0-6-0.2-8.8-0.7c-6.8,2.4-13.6,4.6-20.4,6.8c-18.4,5.7-36.6,10.4-54.8,12.8C117.3,123.5,117,124.9,116.7,126.1z"/>
	<path class="st0" d="M129,88.8c-1.3,2.3-2.4,4.7-3.5,7.3c-0.9,2.1-1.7,4.1-2.4,6.2c7.3-1.2,14.6-2.6,21.9-4.4
		c-0.6-0.4-1.3-0.8-1.9-1.2c-1.7-1.1-3.5-2.2-5.2-3.3c9.6-1.5,19.2-3.6,28.8-6.1c-1-1.3-2-2.6-3-4c-1.2-1.9-2.3-3.8-3.3-5.7
		c-7,2.9-14.1,5.6-21.1,8C135.8,86.6,132.4,87.7,129,88.8z"/>
	<path class="st0" d="M251.6,49.4l-0.3,0.1c0,2-0.3,6.8-1.2,11.7c6.7-2.1,13.5-4.2,20.3-6.1L251.6,49.4z"/>
	<path class="st0" d="M94.4,104.8c9.1-0.2,18.3-1,27.5-2.4c0.9-2.6,1.9-5.2,3-7.9c0.8-1.9,1.6-3.6,2.4-5.3c-0.7,0.2-1.3,0.4-2,0.6
		c-6.1,1.8-12.1,3.3-18.2,4.6c-11.8,2.5-23.7,3.9-35.5,4.1C62,98.6,52.4,97.8,42.8,96l0.3,1.2c6.2,2.1,12.3,3.7,18.5,4.9
		C72.5,104.2,83.4,105,94.4,104.8z"/>
	<path class="st0" d="M285.4,110.2c0.7,2.7,1.3,5.2,1.7,7.6c2.7-1,5.5-2,8.2-3c1.8,0.3,3.6,0.6,5.4,0.9c20.1-7,40.3-12.2,60.5-14.3
		l1.3-5.9c-1.1,0.1-2.2,0.1-3.3,0.2c1.1-0.2,2.3-0.4,3.4-0.6l0.7-3c-6.6,0.3-13.2,0.9-19.8,1.9C324.1,97.2,304.7,103,285.4,110.2z"
		/>
	<path class="st0" d="M139.5,174.9c1.2,0.7,2.5,1.3,3.7,1.9c19.6-6,39.2-13.6,58.9-21.8c3.5-1.7,7-3.4,10.5-5.2
		c24.4-11.1,48.8-22.4,73.2-31.7c-0.5-2.4-1.2-4.9-1.9-7.6c-16.9,6.3-33.7,13.6-50.6,21.1c11-5.8,22-11.4,33-16.8
		c-2.6,1-5.2,2-7.8,3c-18.5,8.9-37.1,18.5-55.7,27.8c-2.7-1.1-5.4-2.3-8.1-3.4c-20.7,8-41.2,15.4-61.7,20.5
		c-9.3,2.9-18.6,5.3-27.9,7.1V180c18-3.2,36.1-8.6,54.2-15.1C152.8,168.5,146.2,171.8,139.5,174.9z"/>
	<path class="st0" d="M354,118.6c-9.2,0.7-18.3,2-27.4,3.7c-8.5,1.1-17,2.7-25.5,4.4c-3.8,1.1-7.5,2.3-11.3,3.6
		c1.4,5.2,3.4,9.4,5.2,12.5c15.1-6.2,30.2-11.4,45.3-15.3c-1,0.8-2.1,1.6-3.1,2.4c-3.6,2.8-7.3,5.6-11,8.6c3.6-1,7.3-2,10.9-2.9
		c-0.8-0.3-1.7-0.6-2.5-0.9c6.7-1.5,13.4-2.8,20.1-3.7l2.6-11.8c-3.9,0.4-7.8,0.9-11.7,1.5C348.4,120,351.2,119.3,354,118.6z"/>
	<path class="st0" d="M220.1,178.2c12.6-6.3,25.1-12.7,37.7-18.7c12-5.8,24-11.2,35.9-16.1c-1.8-3.2-3.7-7.5-5.1-12.6
		c-10.8,3.6-21.6,7.6-32.3,11.7c4.9-0.7,9.9-1.3,14.9-2c-28.9,10.8-57.5,23.6-86,34.6c-0.6,0.4-1.1,0.7-1.7,1.1
		c-2.9,1-5.8,1.9-8.8,2.9c-7.6,2.8-15.2,5.5-22.8,8c-4.3,3.1-8.5,6.1-12.8,9.1c-11.4,2.7-22.7,4.8-34,6v11.7
		c8.2-0.9,16.5-2.3,24.8-4.1C159.8,202.3,189.9,190.4,220.1,178.2z"/>
	<path class="st0" d="M585,253.4c-20.2-12.3-40.2-25.4-60.2-38.1c-25.4-12-50.9-23.6-76.5-32.5v15.5c28.1,7.6,55.9,18.2,83.4,28.8
		c16.3,9.7,32.7,19.6,49,29c10.6,4.1,21.1,7.9,31.6,11.3c10.1,6,20.2,11.6,30.4,16.8v-5.8c-6.1-2.2-12.2-4.7-18.3-7.3
		c6.1,1.8,12.2,3.3,18.3,4.7v-13.9c-16-4.3-32.1-10-48.2-16.6C591.4,248,588.2,250.7,585,253.4z"/>
	<path class="st0" d="M414.7,140.3c-4.2-1.3-8.4-2.5-12.6-3.6c-1.9-0.3-3.8-0.5-5.8-0.8l2.5,11.4c1.8,0.4,3.5,0.9,5.3,1.4
		c6.7,1,13.3,2.4,19.9,3.9l14.9-2.9c-10.5-2.8-21-5.1-31.6-6.7C409.9,142.1,412.3,141.2,414.7,140.3z"/>
	<path class="st0" d="M505.7,188.8c-3.8-2.9-7.5-5.8-11.3-8.6c11.5,5.1,23,10.4,34.4,15.8c-21.6-12.7-43.1-25-64.5-35.4
		c-3.7-1.1-7.4-2.2-11.1-3.3c-1.7-1.2-3.4-2.4-5-3.6v6.7c17.5,7.7,35,16.8,52.6,26.6C502.5,187.6,504.1,188.2,505.7,188.8z"/>
	<path class="st0" d="M521.1,180.7c-5.4-2.1-10.7-4.1-16.1-6.1c10.7,8.3,21.6,16.8,32.5,25.5c6.5,3,12.9,6.1,19.3,9
		c6.2,2.4,12.5,4.8,18.7,7.1c22.6,8.4,45,15.5,67.3,19.7v-6c-7.5-2-15-4.3-22.6-6.8C587.4,211.9,554.3,195.9,521.1,180.7z"/>
	<path class="st0" d="M538.2,246.3c-29.9-15.8-59.9-31.7-89.9-43.7V214v15.2c30.5,10.9,60.7,25.4,90.8,39.8
		c34.8,16.6,69.3,32.9,103.6,43v-12v-14c-49.5-15.2-99.5-43.4-149.9-66.5C507.9,228,523,237.2,538.2,246.3z"/>
	<path class="st0" d="M579.9,311.2c5.4,1.2,10.8,2.4,16.2,3.4c-31.9-14.4-63.9-31.6-96.1-47.2c-3.9-1.9-7.8-3.8-11.8-5.6
		c-8.6-4.1-17.3-8-26-11.6c-4.6-3.6-9.2-7.1-13.8-10.5h-0.1v17c0.6,0.3,1.2,0.5,1.9,0.8c-0.6,0.1-1.2,0.2-1.9,0.3v2.2v2.5v9.9
		c20.3,8.5,40.6,18.4,60.8,28.8c3.3-0.5,6.7-1.1,9.9-1.6c21.7,13.2,43.5,26.8,65.3,39.6c3,1.5,6,3,9.1,4.5
		c-12.9-7.6-25.8-15.6-38.7-23.7c25.1,14,50.2,27.4,75.2,38.5c7-2.7,11.6-4.8,12.7-5.4v-1.9v-13.8c-4.4-1.5-8.7-3-13.1-4.7
		C613,326.4,596.5,319.1,579.9,311.2z"/>
	<path class="st0" d="M594,367.6c-22.2-12.9-44.3-26.9-66.5-40.6c-3.1-1.7-6.2-3.3-9.2-5c13.1,8.3,26.2,16.8,39.4,25.1
		c-36.4-20.6-72.8-42.2-109.3-59v11.3c9.9,4.7,19.8,9.7,29.6,15c2.1,0.1,4.2,0.2,6.3,0.4c32.9,17.6,65.7,37.6,98.4,55.6
		c1.1,0.6,2.1,1.2,3.2,1.8c7.4-1.7,14.4-3.6,20.9-5.6c-1-0.5-2.1-1-3.1-1.4C600.4,366,597.2,366.8,594,367.6z"/>
	<path class="st0" d="M531,354c-17.6-9.4-35.3-18.8-53-27.5c-9.9-4-19.8-7.8-29.7-11.4v9.8c27.2,13.9,54.4,30.4,81.6,47.2
		c2.8,1.7,5.7,3.5,8.5,5.2c1.8,0.1,3.6,0.1,5.3,0.1c6.9,0,13.9-0.5,20.8-1.4c-17-9-34-18.4-51.1-27.5
		C519.4,350.4,525.2,352.2,531,354z"/>
	<path class="st0" d="M448.3,332.1v0.4c0.3,0.1,0.5,0.3,0.8,0.4C448.8,332.6,448.6,332.4,448.3,332.1z"/>
	<path class="st0" d="M659.3,113.5c-10.1-0.5-20.3-1.8-30.5-3.8c0,0.1,0.1,0.2,0.1,0.4c1.9,0.7,3.8,1.3,5.6,1.9
		c7.8,2.6,15.6,4.8,23.4,6.6c-9.2-0.5-18.4-1.7-27.7-3.5c0.8,3.3,1.4,6.3,2,9c0.2,1.2,0.5,2.3,0.7,3.3c1.5,7.1,4.2,12.6,6.2,15.9
		c0.6,1,1.3,2.1,1.9,3c9.3,1.8,18.5,3,27.7,3.5c3.4,0.9,6.8,1.6,10.2,2.3c2.1,0.1,4.2,0.1,6.3,0.2c-13.5-1.8-26.9-5.2-40.2-9.7
		c17.3,2.8,34.5,3.6,51.6,1.4l2.1-9.6c-4.6,0.5-9.2,0.9-13.8,1c-6-1.3-12.1-2.9-18.1-4.7c11.4-0.8,22.8-2.8,34.1-6.3l3.3-15
		C689.4,113,674.4,114.2,659.3,113.5z"/>
	<path class="st0" d="M626.8,109.3c0.2,0.1,0.4,0.1,0.6,0.2v-0.1C627.1,109.3,626.9,109.3,626.8,109.3z"/>
	<path class="st0" d="M472.2,86.8c5.6-8.9,13-15.9,21.3-21.4c-4.8-1.6-9.5-3.2-14.3-4.7c-3.1-1-6.3-1.9-9.4-2.8l-51.6,15.7
		c1.9,0.4,3.9,0.7,5.8,1.1C440.1,77.3,456.1,81.5,472.2,86.8z"/>
	<path class="st0" d="M473.5,87.2c4.1,1.4,8.3,2.8,12.4,4.3c2.9-1.2,5.7-2.3,8.5-3.5c18.1,8.6,36.3,18.1,54.5,27.5
		c2.5,1,5.1,2.1,7.6,3.1c-10.8-5.7-21.5-11.6-32.3-17.3c35.7,16,71.2,32.9,106.7,42.7c2.6,0.6,5.2,1.2,7.9,1.7
		c-0.1-0.2-0.2-0.4-0.4-0.6c-2.1-3.5-5-9.3-6.6-16.8c-0.2-0.9-0.4-1.9-0.6-2.9l-0.1-0.4c-0.6-3-1.3-6.4-2.3-10.2
		c-13.9-2.7-27.8-6.6-41.7-11.1c-13.7-4.5-27.5-9.6-41.4-14.8c4.5,0.4,9.1,0.8,13.6,1.1C538,82,516.5,73.4,495,65.9
		C486.3,71.1,479.1,78.2,473.5,87.2z"/>
	<path class="st0" d="M687.8,92.6c-11.9-0.1-23.7-1.7-35.5-4.3c-6.1-1.3-12.1-2.9-18.2-4.8c-4.7-1.4-9.3-3-13.9-4.6
		c-3.6-1.3-7.2-2.6-10.8-4.1c3.5,3.5,6.7,7.4,9.4,11.8c0.9,0.2,1.9,0.3,2.8,0.5c-0.6,0.4-1.2,0.8-1.7,1.2c1.1,1.8,2.1,3.6,3,5.5
		c14.1,3.1,28.1,5.1,42.1,5.4c11,0.2,21.9-0.7,32.8-2.9c3.3-0.7,6.6-1.5,10-2.4l0.6-2.6C701.5,92.3,694.6,92.7,687.8,92.6z"/>
	<path class="st0" d="M521.2,47.7c-2.1,0.1-7.5,0.2-9.4,0.3l-1.5,0.1c-1.5,0.1-3,0.2-4.3,0.3c-1.9,0.1-3.5,0.2-4.8,0.3
		c-1.1,0.1-1.6,0.1-1.8,0.2h-0.1l-2.4,0.7c4.7,1.5,9.4,3,14.2,4.6L521.2,47.7z"/>
	<path class="st0" d="M512.6,54.7c35.2,11.7,70,25.3,104.5,31.6c-3.1-4.7-6.6-8.9-10.5-12.6c-2.7-1.1-5.4-2.2-8.1-3.4
		c-16.4-7-32.8-15.1-49.2-23.3c-1.4,0-2.9,0-4.3,0c-2.7,0-5.4,0-8.3,0.1c3,2.2,6,4.5,9.1,6.8c-5.9-2.2-11.8-4.4-17.8-6.6
		c-1.9,0.1-3.9,0.1-5.8,0.2c-0.1,0.7-0.5,1.3-1.1,1.7L512.6,54.7z"/>
	<path class="st0" d="M621.1,93.4c-0.8-1.5-1.5-3-2.4-4.4c-0.8,0.5-1.5,1-2.3,1.5c-0.6,0.4-1.3,0.8-1.9,1.2
		C616.7,92.4,618.9,92.9,621.1,93.4z"/>
	<path class="st0" d="M693.7,157l0.1-0.5c-0.1,0-0.3,0-0.4,0C693.5,156.6,693.6,156.8,693.7,157z"/>
	<path class="st0" d="M462.4,109.8c0.8-2.7,1.6-5.5,2.7-8.4c-16.4-5.9-32.8-10.8-49.2-13.7c-10.3-1.5-20.5-2.3-30.8-2.1l0.4,1.6
		c4.9,0.6,9.8,1.4,14.7,2.4c-4.7-0.3-9.5-0.5-14.2-0.4l1.2,5.5c23.9,1.2,47.7,7.2,71.5,15.8C459.9,110.3,461.2,110.1,462.4,109.8z"
		/>
	<path class="st0" d="M564.6,138.4c-2.7,1.2-5.4,2.4-8.1,3.6c-18.6-9.7-37.2-19.8-55.7-29c-2.6-1.1-5.2-2.1-7.8-3.1
		c11,5.6,22,11.5,33,17.5c-19.9-9.2-39.8-18.2-59.7-25.5c-1,2.7-1.9,5.3-2.6,7.8c0.1,0,0.2,0,0.3-0.1c27.6,10.2,55.2,23.6,82.7,36.6
		c3.5,1.8,7,3.6,10.5,5.4c19.7,8.5,39.3,16.5,58.9,22.7c1.3-0.7,2.5-1.3,3.7-2c-6.6-3.2-13.3-6.7-19.9-10.2
		c14.3,5.4,28.6,10,42.8,13.4v-10.9c-5.5-1.4-11-3-16.5-4.8C605.8,154.4,585.3,146.8,564.6,138.4z"/>
	<path class="st0" d="M422.2,131.3c3.6,0.9,7.3,1.9,10.9,3c-3.7-3.1-7.4-6.1-11-9c-1-0.8-2.1-1.6-3.1-2.5c12.3,3.3,24.6,7.5,37,12.5
		c0.9-2.4,1.8-5.2,2.5-8.2c0.2-1,0.4-2.1,0.7-3.3c0.1-0.4,0.2-0.9,0.3-1.4c-0.4-0.1-0.8-0.3-1.2-0.4c-8.5-1.9-17-3.4-25.5-4.6
		c-9.1-1.8-18.2-3.1-27.4-3.9c2.8,0.7,5.6,1.4,8.4,2.2c-7.5-1.2-15-2-22.5-2.4l2.6,11.9c10.3,1,20.5,2.8,30.8,5.2
		C423.9,130.7,423.1,131,422.2,131.3z"/>
	<path class="st0" d="M460.5,122.7c-0.2,0.7-0.3,1.5-0.5,2.2c-0.2,1.2-0.5,2.3-0.7,3.3c-0.6,2.7-1.4,5.3-2.2,7.5
		c14.8,6,29.6,13,44.4,20.4c12.6,6.3,25.1,12.9,37.7,19.5c30.3,12.7,60.3,25.2,90.1,33c4.5,1,8.9,1.9,13.4,2.6v-12.1
		c-7.5-1.2-15-2.8-22.6-4.6c-4.2-3-8.5-6.2-12.7-9.4c-7.6-2.6-15.2-5.4-22.8-8.3c-2.9-1-5.8-2-8.8-3c-0.6-0.4-1.1-0.8-1.7-1.2
		c-28.5-11.6-57.2-24.9-86-36.2c5,0.6,10,1.3,14.9,2C488.9,132.7,474.7,127.3,460.5,122.7z"/>
</g>
</svg>
