<?xml version="1.0" encoding="utf-8"?>
<!-- Generator: Adobe Illustrator 25.3.0, SVG Export Plug-In . SVG Version: 6.00 Build 0)  -->
<svg version="1.1" id="Layer_1" xmlns="http://www.w3.org/2000/svg" xmlns:xlink="http://www.w3.org/1999/xlink" x="0px" y="0px"
	 viewBox="0 0 750.2 400.1" style="enable-background:new 0 0 750.2 400.1;" xml:space="preserve">
<g>
	<polygon points="643.3,161.7 643.3,161.7 643.3,166.6 	"/>
	<path d="M299.6,309.3l-96.5,15.1L105.2,309l0,44c5.1,1.1,57.3,12,95.3,11.5c40.5-0.6,93.8-10.6,99-11.6L299.6,309.3z"/>
	<polygon points="299.6,286.5 299.6,256.1 203.1,271.2 105.2,255.7 105.2,286.2 203.1,301.7 	"/>
	<polygon points="299.7,224.9 299.7,202.8 203.1,217.9 105.2,202.4 105.2,224.6 203.1,240.1 	"/>
	<path d="M105.2,150.9l0,12.1l97.9,15.5l96.6-15.2l0-12.1c-0.4-0.1-0.9-0.4-1.2-0.7c-0.2-0.2-0.3-0.4-0.6-0.7l-94.9,14.9l-96.6-15.3
		c-0.4,0.5-0.7,0.9-0.9,1.2C105.4,150.6,105.3,150.8,105.2,150.9z"/>
	<path d="M203.1,111.4l-78.9-12.5c-0.7,1.7-1.3,3.5-1.9,5.2l80.8,12.8l79-12.4c-0.6-1.7-1.2-3.4-1.9-5.2L203.1,111.4z"/>
	<path d="M642.7,309.4l-96.2,15.1l-98.1-15.5l0,44.1c0.1,0,0.1,0,0.2,0l0.2,0.1c0.5,0.2,48.2,24.4,95.1,24.4
		c45.1,0,94.6-22.5,98.9-24.5L642.7,309.4z"/>
	<polygon points="642.7,286.5 642.7,256.1 546.5,271.2 448.3,255.7 448.3,286.1 546.5,301.7 	"/>
	<polygon points="642.8,224.9 642.8,202.8 546.5,217.9 448.3,202.4 448.3,224.5 546.5,240.1 	"/>
	<path d="M449,150.4c-0.2,0.3-0.5,0.5-0.8,0.6l0,11.9l98.2,15.6l96.4-15.2l0-12.6c-0.6-0.2-1-0.5-1.4-0.9c0,0,0,0-0.1-0.1l-95,14.9
		l-96.6-15.3c0,0.1-0.1,0.1-0.1,0.2C449.5,149.9,449.2,150.2,449,150.4z"/>
	<path d="M546.5,111.4l-79-12.5c-0.7,1.7-1.4,3.5-2,5.2l81,12.8l79.3-12.5c-0.6-1.7-1.2-3.4-2-5.2L546.5,111.4z"/>
</g>
</svg>
