<?xml version="1.0" encoding="utf-8"?>
<!-- Generator: Adobe Illustrator 25.3.0, SVG Export Plug-In . SVG Version: 6.00 Build 0)  -->
<svg version="1.1" id="Layer_1" xmlns="http://www.w3.org/2000/svg" xmlns:xlink="http://www.w3.org/1999/xlink" x="0px" y="0px"
	 viewBox="0 0 750.2 400.1" style="enable-background:new 0 0 750.2 400.1;" xml:space="preserve">
<polygon points="146.6,151.2 143.3,151.2 142.9,152.9 "/>
<polygon points="299.7,177.1 299.7,172.8 297,171.3 297,175.5 "/>
<polygon points="297,290.2 290.7,290.2 299.6,291.9 299.6,288.2 297.3,287.7 297,287.7 "/>
<polygon points="297,151.1 297,154.8 299.7,158.9 299.7,153.6 297.1,149.6 253.2,149.5 253.2,151.1 "/>
<polygon points="299.7,247.5 299.7,245.3 297,244.9 297,247.1 "/>
<polygon points="296.2,236.5 299.7,237 299.7,234.9 297.6,234.6 282.1,203.2 283.3,202.6 299.7,212 299.7,207.8 283.5,198.4 
	280.5,199.9 279.3,197.5 276.9,197.5 "/>
<polygon points="253.2,197.5 253.2,197.5 253.2,197.5 "/>
<polygon points="286.5,243.8 289,243.8 288.9,243.7 266.1,197.5 263.7,197.5 "/>
<polygon points="252.8,197.4 252.8,193.4 250.8,197.4 "/>
<polygon points="297.3,287.7 299.6,285.4 299.6,282.4 297,285 297,287.7 "/>
<polygon points="299.6,259.3 299.6,257.2 297,256.8 297,258.9 "/>
<polygon points="253.2,223.2 253.2,228 258.4,217.4 271.4,243.8 273.8,243.8 258.4,212.5 "/>
<polygon points="237.9,254.1 216.1,257.3 217,259.4 239.3,256.1 245.4,243.9 243,243.9 "/>
<polygon points="210.1,243.9 209.1,243.9 209.1,250.7 221,277.4 252.8,283.3 252.8,279.5 250.9,279.2 244.7,273.1 252.8,271.9 
	252.8,269.7 252.8,269.8 240.1,271.6 247.1,278.5 235.7,276.4 231.9,275.7 223.6,274.2 217,259.4 216.1,257.3 212,248.2 
	229.4,245.7 230.3,243.9 226.9,243.9 211.1,246.2 "/>
<path d="M123.2,101.6c-0.2,0.7-0.5,1.4-0.7,2.1l1.9,1h4.6L123.2,101.6z"/>
<path d="M121.6,103.2c0.2-0.7,0.5-1.4,0.7-2.1l-1.7-0.9v2.4L121.6,103.2z"/>
<polygon points="47.2,81.6 43.9,100.8 45.1,106.4 49.5,80.9 "/>
<polygon points="76.5,102.6 47.6,117.8 48.1,120 76.8,104.8 76.5,104.8 "/>
<path d="M151.6,66l-1.3-7.5h-2.2l1.4,8.4c0.3-0.2,0.6-0.3,1-0.5L151.6,66z"/>
<path d="M151.8,67.1c-0.7,0.3-1.4,0.6-2,1l6.3,36.6h2.2L151.8,67.1z"/>
<polygon points="121.3,59.1 120.7,59.3 120.7,62.6 122,63.3 "/>
<polygon points="62.5,89.8 64.9,76.2 62.6,76.9 59.7,93.8 76.5,85 76.5,82.5 "/>
<path d="M128.6,86.8c0.4-0.6,0.7-1.3,1.1-1.9l-9-4.7v2.4L128.6,86.8z"/>
<path d="M136.6,75.9c0.6-0.6,1.2-1.2,1.9-1.8l-2.7-15.7h-2.2L136.6,75.9z"/>
<path d="M136.9,77.7l2.1,12.1l-8.1-4.3c-0.4,0.6-0.7,1.2-1.1,1.8l12.1,6.4l-3.1-17.9C138.1,76.5,137.5,77.1,136.9,77.7z"/>
<path d="M288.8,131.3c-0.3-0.9-0.5-1.9-0.7-2.9l-34.9-0.1v2.9L288.8,131.3z"/>
<path d="M290.1,131.3l16.9,0l14,21.2l4,0.8l-16.4-24.9l-19.3,0C289.6,129.4,289.8,130.3,290.1,131.3z"/>
<polygon points="275.3,56.5 271.9,55.5 272.4,57.1 271.4,58.3 275.1,58.3 275.6,57.7 "/>
<polygon points="252.8,86.9 252.8,82.3 235.3,104.7 239,104.7 "/>
<polygon points="253.2,54.1 253.2,58.3 253.6,58.3 254.2,57.6 "/>
<path d="M217.6,104.7l3.9-5.1c-1.6,0.7-3.3,1.2-5,1.7l-2,2.6l-1.7-1.8c-1.2,0.2-2.5,0.4-3.7,0.6v0.8l1.1,1.1H217.6z"/>
<path d="M250.5,58.5c-0.2,1.6-0.5,3.3-0.8,5l3.2-4.1v-0.9H250.5z"/>
<path d="M164.6,151.2l0.3,0.7v-0.8h3.6l-2.5-5.6l9.7,5.6H209v-1.6l-26.2-0.1l26.2-33.7v-4.7l-12.7,16.3l-21.5-22.6H169l7.3,42.4
	l-11.5-6v10H164.6z M171.5,106.6l22.5,23.7L180.2,148l-2-2.1L171.5,106.6z"/>
<polygon points="214.4,197.4 224,197.4 241.8,188.9 237.6,197.4 240,197.4 252.8,171.4 252.8,166.6 244.4,183.5 218.4,196 
	227.6,152.4 252.8,152.5 252.8,151.2 209.1,151.2 209.1,152.4 223.8,152.4 "/>
<polygon points="350.8,110 360.3,82.3 357.5,81.4 350,103.4 334.7,80.2 306.8,80.1 315.6,68.7 312.7,67.9 300.9,83 333.1,83.1 "/>
<path d="M283,107.1c-0.2-0.8-0.5-1.5-0.7-2.3h-22.6l-1.8,2.3L283,107.1z"/>
<path d="M283.9,104.8c0.3,0.8,0.5,1.5,0.7,2.3l35.5,0.1l30,45.6l0.9-4l-29.3-44.5l-24.6,0v0.6H283.9z"/>
<polygon points="322.5,70.8 322.4,71 323.1,71 "/>
<polygon points="351.1,79.5 348.3,78.6 348.2,78.8 348,78.6 343.7,77.2 349,85.4 "/>
<polygon points="126.9,243.9 120.7,255.3 120.7,263 131,243.9 "/>
<polygon points="160,190.5 163.1,197.4 164.8,197.4 164.8,201.2 183.8,243.8 187.8,243.8 167.1,197.5 164.9,197.5 164.9,192.5 
	160.3,182.2 152,197.4 156.2,197.4 "/>
<polygon points="209.1,290.1 213,290.1 209.1,289.4 "/>
<polygon points="209,293.1 209,290.2 204.6,290.2 205.6,292.5 "/>
<polygon points="299.6,327.1 289.2,336.5 294.7,336.5 299.6,332 "/>
<polygon points="299.6,309.8 299.6,306.1 253.2,297.5 253.2,301.2 "/>
<path d="M118.7,116.9c-0.4,1.6-0.8,3.2-1.1,4.6l2.9,3.1v-6.7L118.7,116.9z"/>
<path d="M100.8,107.5L51,133.6l0.9,4.1l16.9,17.7l4.3-0.8l-19.1-20l23.6-12.4l25.3,26.6l2.8-0.6c0.2-0.3,0.5-0.6,0.8-1L81,120.3
	l19.8-10.4l11.6,6.1l4.5,4.7c0.3-1.3,0.6-2.8,1-4.3L100.8,107.5z"/>
<path d="M107.4,148.1c-0.8,1.1-1.4,1.9-1.9,2.4c-0.1,0.1-0.2,0.2-0.4,0.4l0,0.2h4.3l0.1-0.6L107.4,148.1z"/>
<polygon points="209,243.8 209,241.4 207.6,238.4 209,238.2 209,234.1 206.3,235.4 191.8,203.2 193,197.5 185.3,197.5 206,243.8 "/>
<polygon points="105.3,330.6 105.3,336 105.7,336.5 110.8,336.5 "/>
<polygon points="105.2,305.3 105.2,309 120.5,307.4 120.5,303.7 "/>
<polygon points="105.2,325.4 105.2,329.1 120.5,327.5 120.5,323.8 "/>
<polygon points="154.2,290.1 158.1,290.1 156.3,286.1 "/>
<polygon points="209,330 173.1,323.4 164.8,304.9 164.8,313.9 170.5,326.7 205.3,333.1 201.6,336.5 207.1,336.5 209,334.8 "/>
<path d="M124.4,356.1l-0.1,0.6c1.2,0.2,2.4,0.4,3.6,0.6l0.5-2.4l-7.7-8.1v5.3L124.4,356.1z"/>
<polygon points="153,243.9 128,290.1 132.2,290.1 157.2,243.9 "/>
<polygon points="190.6,306.3 183.4,290.2 179.4,290.2 188,309.6 209,313.4 209,309.7 "/>
<path d="M215,363.9c2-0.1,3.9-0.2,5.9-0.4l29.8-27h-5.5L215,363.9z"/>
<polygon points="162.7,243.9 158.6,243.9 164.9,257.8 164.9,248.8 "/>
<polygon points="260.4,322.9 253.2,329.4 253.2,334.4 268.4,320.6 253.2,317.8 253.2,321.6 "/>
<path d="M138.3,349.4l-2,9.3c1.2,0.2,2.4,0.4,3.6,0.6l2.3-11l-11.1-11.7h-5.1L138.3,349.4z"/>
<path d="M153.7,357.2l-6.5,3.1c4.9,0.7,10.1,1.4,15.3,1.9L153.7,357.2z"/>
<polygon points="164.8,332.1 164.8,335.8 168.3,336.5 185.2,336.5 185.7,335.9 "/>
<polygon points="105.2,200.3 105.2,204.1 110.2,197.5 107.3,197.5 "/>
<path d="M123.2,197.4h2.9l10.1-13.3l-7.2,13.3h4.2l25-46.2H154l-6.7,12.4l-17.2,8.2l4.3-20.6h-3.7l-5.1,24.2l-5,1.4v2.4l21-6
	L123.2,197.4z M139.5,171.4l4.9-2.3l-0.6,1.1L139.5,171.4z"/>
<polygon points="120.5,209.9 114.3,213 120.5,204.7 120.5,200.9 105.2,221.1 105.2,224.9 109.4,219.3 119.8,214.4 105.2,241.3 
	105.2,243.8 108.1,243.8 120.5,220.7 "/>
<polygon points="159.6,140.9 150.2,136 148,146.4 159.6,140.9 "/>
<polygon points="174.4,163.5 176.9,151.7 175.7,151.1 168.5,151.1 174,163.3 "/>
<polygon points="146.6,151.2 154,151.2 156.6,146.4 "/>
<polygon points="146.9,134.2 122.5,121.4 137.5,137.1 134.5,151.2 143.3,151.2 "/>
<polygon points="129,197.4 126.1,197.4 120.5,204.7 120.5,209.9 122.8,208.9 "/>
<polygon points="120.5,151.2 120.5,151.1 109.5,151.1 105.2,171.5 105.2,181.2 120.7,176.8 120.7,151.2 "/>
<polygon points="120.7,151.2 130.8,151.2 133.5,138.2 120.5,124.6 120.5,151.1 120.7,151.1 "/>
<polygon points="105.2,151.1 105.2,153.8 105.6,151.6 "/>
<polygon points="76.5,151.1 76.5,153.9 90.8,151.1 "/>
<polygon points="252.8,152.5 252.8,166.6 258.4,155.2 267.1,172.7 284.8,164.2 297,171.3 297,154.8 295.6,152.5 "/>
<polygon points="219.3,234.6 220.1,232.8 215.3,235.1 "/>
<polygon points="176.9,169.7 189.3,197.5 198.8,152.4 180.5,152.3 "/>
<polygon points="209,234.1 222.7,227.5 237.6,197.4 224,197.4 213.3,202.5 214.4,197.4 209.1,197.4 209.1,152.4 202.5,152.4 
	193,197.5 209,197.5 "/>
<path d="M209,104.8v6.2l3.3-4.2l-2.1-2.2h-1.1v-1.1l-0.7-0.8c-1.6,0.2-3.2,0.3-4.9,0.3l-1.9,0c-13.4,0-24.7-4.8-33.1-13.8l1.9,10.8
	l4.5,4.7H209z"/>
<path d="M250.8,56.2c-0.1,0.5-0.1,0.9-0.2,1.4L251,57L250.8,56.2z"/>
<polygon points="268.7,176 279.3,197.5 297,197.5 297,175.5 284.6,168.4 "/>
<polygon points="265.6,281.9 265.3,279.8 272.1,273.1 262.7,271.7 258.4,263.2 254.2,271.7 252.8,271.9 252.8,279.5 "/>
<polygon points="264.1,269.8 276.8,271.6 267.6,280.6 267.9,282.3 273.9,283.4 288.2,269.5 267.6,266.5 258.4,247.9 252.8,259.3 
	252.8,269.7 258.4,258.3 "/>
<polygon points="271.4,243.8 258.8,243.8 269,264.6 292.8,268 276.5,283.9 294.7,287.2 297,285 297,258.9 277.5,256.1 "/>
<polygon points="252.8,243.9 252.8,254.4 258.1,243.8 253.2,243.8 253.2,228 245.4,243.9 "/>
<polygon points="297,243.8 289,243.8 297,244.9 "/>
<polygon points="220.7,236.5 209,238.2 209,241.4 210.1,243.9 226.9,243.9 228,243.7 250.8,197.4 240,197.4 "/>
<polygon points="252.8,171.4 252.8,193.4 258.4,182 266.1,197.5 276.9,197.5 258.4,160.1 "/>
<polygon points="286.5,243.8 273.8,243.8 279,254.1 297,256.8 297,247.1 287.4,245.7 "/>
<polygon points="253.2,223.2 253.2,197.5 230.3,243.9 243,243.9 "/>
<polygon points="258.4,186.9 253.2,197.5 263.7,197.5 "/>
<polygon points="123.5,58.5 133.6,58.5 133.1,55.6 "/>
<polygon points="120.7,80.2 120.7,62.6 116.8,60.5 76.5,72.7 76.5,82.5 100.8,69.7 "/>
<polygon points="100.8,92.3 76.8,104.8 120.5,104.8 120.5,104.7 120.7,104.7 120.7,102.7 "/>
<path d="M120.5,104.8v1.8c0.2-0.6,0.4-1.3,0.6-1.9h-0.5v0.1H120.5z"/>
<path d="M162,136.5l1.9,4.2l0.9,0.5v-36.5h-6.5l3.4,19.6l-37.2-19.6h-2.3c-0.6,1.8-1.1,3.5-1.6,5.2v8l40.1,21.1L162,136.5z"/>
<path d="M164.9,84.9v19.9h4.1l-3.2-18.8C165.5,85.7,165.2,85.3,164.9,84.9z"/>
<path d="M153.7,52.9l-3.7,3.6l0.3,2h4C154,56.3,153.8,54.5,153.7,52.9z"/>
<polygon points="156.1,104.7 129,104.7 158.8,120.3 "/>
<path d="M148.1,55.3l5.4-5.3c0-0.2,0-0.3,0-0.5c0-0.1,0-0.1,0-0.2l-18.3,5.6l0.6,3.5h12.4l-0.5-2.8L148.1,55.3z"/>
<polygon points="120.7,100.3 120.7,82.7 100.8,72.2 76.5,85 76.5,102.6 100.8,89.8 "/>
<path d="M297,63.1l-1.1-0.3l-19.8,25.4c1.2,2,2.3,4.2,3.5,6.5c1.6,3.2,2.9,6.4,4,9.6l13.4,0V63.1z"/>
<path d="M282,104.2c-0.9-2.8-2-5.6-3.2-8.3c-1-2.4-2.2-4.6-3.4-6.7l-11.7,15L282,104.2z"/>
<polygon points="209,115.7 209,149.5 253.2,149.5 253.2,131.2 214.8,131.1 235.3,104.7 217.6,104.7 "/>
<polygon points="253.2,49.8 251.8,49.4 253.2,54.1 "/>
<path d="M252.8,67.1v15.1l8.1-10.3C258.3,70,255.6,68.4,252.8,67.1z"/>
<path d="M253.6,58.3l-0.8,1.1v6.5c3.3,1.4,6.2,3,8.9,4.9l9.7-12.5H253.6z"/>
<path d="M274.6,85.5L293,61.9l-11.7-3.5h-6.2L264,72.6C267.9,76,271.3,80.2,274.6,85.5z"/>
<path d="M252.8,104.7H239l-18.3,23.5l32.5,0.1v-23.5h6.4l14.3-18.4c-3.1-5.1-6.7-9.3-10.7-12.8l-10.3,13.2V104.7z"/>
<path d="M164.9,362.5c0.9,0.1,1.7,0.2,2.6,0.3l-1.8-13.6l12.1-10.9l-9.5-1.7h-3.4V362.5z"/>
<polygon points="155,320.3 147.3,334.7 131,336.4 131.2,336.6 164.8,336.6 164.8,335.8 161.7,335.2 "/>
<polygon points="145,331.3 155.4,312.1 164.3,332 164.8,332.1 164.8,313.9 156,294.4 139.2,325.5 120.5,327.5 120.5,336.5 
	110.8,336.5 120.7,346.8 120.7,336.6 126.1,336.6 123.3,333.6 "/>
<path d="M169.5,350.6l1.7,12.6c2.9,0.3,5.8,0.5,8.8,0.7l-0.9-7l22.6-20.4h-16.4L169.5,350.6z"/>
<path d="M105.3,336.5l0,12.2l1,2.4l-1,0l0,2c1.5,0.3,7.2,1.5,15.4,3v-3.8l-14.9-15.7H105.3z"/>
<polygon points="154.2,290.1 132.2,290.1 123,307.1 120.5,307.4 120.5,323.8 136.9,322.1 "/>
<polygon points="158.1,290.1 164.8,304.9 164.8,290.1 "/>
<polygon points="164.9,290.2 179.4,290.2 164.9,257.8 "/>
<polygon points="157.2,243.9 158.6,243.9 158,242.4 "/>
<path d="M253.2,321.6l-44.2-8.1V330l4.3,0.8l-4.3,3.9v1.7h-1.9l-24.1,21.8l0.8,5.8c5.8,0.3,11.5,0.5,16.8,0.4c2.8,0,5.6-0.1,8.5-0.2
	v-27.7h36.2l7.9-7.1V321.6z"/>
<polygon points="161.7,144.7 158.2,151.2 164.6,151.2 "/>
<polygon points="167.1,197.5 185.3,197.5 164.9,151.9 164.9,192.5 "/>
<polygon points="126.9,243.9 152,197.4 133.2,197.4 120.5,220.7 120.5,243.8 108.1,243.8 105.2,249 105.2,283.8 120.7,255.3 
	120.7,243.9 "/>
<polygon points="252.8,290.1 213,290.1 253.2,297.5 253.2,290.2 290.7,290.2 252.8,283.3 "/>
<polygon points="206,243.8 187.8,243.8 208.1,289.2 209.1,289.4 209.1,250.7 "/>
<path d="M297,353.4v-16.9h-2.3l-23.5,21.2C283.1,355.9,292.5,354.2,297,353.4z"/>
<polygon points="128,290.1 120.7,290.1 120.7,263 106.8,288.7 105.2,288.9 105.2,290.2 120.5,290.2 120.5,303.7 120.7,303.7 "/>
<polygon points="162.7,243.9 164.8,243.9 164.8,201.2 163.1,197.4 156.2,197.4 131,243.9 153,243.9 158.3,234.1 "/>
<polygon points="164.9,248.8 183.4,290.2 204.6,290.2 183.8,243.8 164.9,243.8 "/>
<polygon points="209,309.7 253.2,317.8 253.2,301.2 209,293.1 "/>
<path d="M253.2,334.4l-2.4,2.2h2.1v23.7c4.1-0.5,8-1.1,11.8-1.6l24.6-22.2h-36V334.4z"/>
<polygon points="120.7,197.4 120.7,179.2 105.2,183.6 105.2,194.3 114.7,191.6 110.2,197.5 120.5,197.5 120.5,200.9 123.2,197.4 "/>
<polygon points="105.2,196.7 105.2,197.5 107.3,197.5 108.7,195.7 "/>
<polygon points="573.8,151.2 570.5,151.2 574.2,152.9 "/>
<path d="M449,150.4c-0.2,0.3-0.5,0.5-0.8,0.6v0h15.6v-1.5l-14.2,0C449.5,149.9,449.2,150.2,449,150.4z"/>
<polygon points="420,149.6 417.1,154 420.1,153.4 420.1,151.1 432.3,151.1 439.8,149.6 "/>
<polygon points="463.9,197.5 463.9,197.5 463.9,197.5 "/>
<polygon points="448.3,203.1 448.3,207.9 453.4,197.5 451,197.5 "/>
<polygon points="464.3,197.4 466.2,197.4 464.3,193.4 "/>
<polygon points="458.7,212.5 448.3,233.5 448.3,238.4 458.7,217.4 463.9,228 463.9,223.2 "/>
<polygon points="479.2,254.1 474.1,243.9 471.7,243.9 477.8,256.1 500.1,259.4 501,257.3 "/>
<polygon points="508,250.7 508,243.9 507,243.9 506,246.2 490.2,243.9 486.8,243.9 487.7,245.7 505.1,248.2 501,257.3 500.1,259.4 
	493.5,274.2 485.2,275.7 481.4,276.4 470,278.5 477,271.6 464.3,269.8 464.3,269.7 464.3,271.9 472.4,273.1 466.2,279.2 
	464.3,279.5 464.3,283.3 496.1,277.4 "/>
<polygon points="592.7,104.7 596.4,102.7 596.4,100.3 588.1,104.7 "/>
<polygon points="640.2,104.8 677.2,124.3 668.1,71.1 665.8,70.4 674.4,120.3 640.6,102.6 640.6,104.8 "/>
<polygon points="568.9,58.5 566.7,58.5 558.8,104.7 561,104.7 "/>
<polygon points="553,63.9 552.2,68.3 552.2,81 555.3,63.1 554.9,62.7 552.2,60.2 552.2,63.2 "/>
<path d="M511.9,48l-1,0.1l8.4,0.9l2-1.3C519.1,47.8,513.8,47.9,511.9,48z"/>
<path d="M538.8,47.1c-5.3,0.1-10.8,0.2-16.6,0.4c-0.1,0.7-0.5,1.2-1,1.6l18.7,2l7.4,7.2h3.1L538.8,47.1z"/>
<polygon points="598.1,58.3 599.5,50.4 597.4,49.8 596.5,54.8 596.5,58.3 "/>
<polygon points="612.2,54.3 609.3,53.4 599.8,58.3 604.5,58.3 "/>
<polygon points="595.9,58.5 595.1,63.3 596.4,62.6 596.4,58.5 "/>
<polygon points="652.7,66.5 650.4,65.8 654.5,89.8 640.6,82.5 640.6,85 657.4,93.8 "/>
<polygon points="596.4,82.7 596.4,80.2 578.1,89.8 583.5,58.5 581.3,58.5 575.3,93.8 "/>
<path d="M408.5,128.4l-10.3,15.7l0.9,4l11-16.7l47.3-0.1c0.3-0.9,0.5-1.9,0.8-2.9L408.5,128.4z"/>
<path d="M459.3,128.3C459.3,128.3,459.3,128.3,459.3,128.3c-0.2,1-0.5,2-0.7,2.9l5.3,0v-2.9L459.3,128.3z"/>
<path d="M471.2,91.1c-0.5,0.9-1,1.9-1.5,2.8l8.4,10.8h3.6L471.2,91.1z"/>
<path d="M464.3,82.3v4.7l4.5,5.8c0.5-0.9,1-1.9,1.5-2.8L464.3,82.3z"/>
<path d="M499.2,63.3l-4.1,2.6c-0.3,0.2-0.6,0.4-0.9,0.5l13.8,1.5v-3.7L499.2,63.3z"/>
<path d="M506.9,104.7l1.1-1.1v-5.3l-5.4,5.7l-16-20.5l1.2-1.3l-2.4-0.3l-4-5.1c-0.7,0.7-1.3,1.4-2,2.2l20,25.7H506.9z"/>
<path d="M497.2,63L468.3,60l-1-1.3l-2.9,0.9L478.8,78c0.6-0.7,1.3-1.4,2-2.1L471.5,64l20.8,2.2c1.5-1,3-2,4.5-2.9L497.2,63z"/>
<path d="M552.3,151.2v-10l-11.5,6l7.3-42.4h-5.8l-21.5,22.6l-12.7-16.3v4.7l26.2,33.7l-26.2,0.1v1.6h33.2l9.7-5.6l-2.5,5.6h3.6v0.8
	l0.3-0.7H552.3z M536.9,148l-13.8-17.7l22.5-23.7l-6.7,39.3L536.9,148z"/>
<polygon points="479.5,197.4 475.3,188.9 493.1,197.4 502.7,197.4 493.2,152.4 508,152.4 508,151.2 464.3,151.2 464.3,152.5 
	489.5,152.4 498.7,196 472.7,183.5 464.3,166.6 464.3,171.4 477.1,197.4 "/>
<polygon points="410.3,80.1 396.5,80.1 386.8,83.1 416.2,83 410.6,75.8 407.7,76.7 "/>
<polygon points="420.1,104.8 420.1,104.2 395.5,104.3 390.9,111.3 391.7,115.3 397,107.2 459.3,107.1 457.5,104.8 "/>
<polygon points="586.1,243.9 596.4,263 596.4,255.3 590.2,243.9 "/>
<polygon points="552.3,197.4 554,197.4 557.1,190.5 560.9,197.4 565.1,197.4 556.8,182.2 552.2,192.5 552.2,197.5 550,197.5 
	529.3,243.8 533.3,243.8 552.3,201.2 "/>
<polygon points="508,290.1 508,289.4 504.1,290.1 "/>
<polygon points="512.5,290.2 508.1,290.2 508.1,293.1 511.5,292.5 "/>
<polygon points="448.3,300.4 448.3,304.1 463.9,301.2 463.9,297.5 "/>
<polygon points="640.8,189.5 640.6,189.5 640.6,191.9 642.8,192.5 642.8,181.5 640.6,171.2 640.6,189 "/>
<polygon points="642.8,161.2 642.8,155.9 640.6,158.2 640.6,163.5 "/>
<path d="M632.1,129.8c-0.1-0.5-0.3-1-0.4-1.5c-0.2-0.9-0.4-1.8-0.6-2.8l-23.7,24.9l0.1,0.6h4.3L632.1,129.8z"/>
<path d="M604.7,116l11.6-6.1l12.9,6.8c-0.2-0.9-0.4-1.8-0.7-2.8l-12.2-6.4l-19.8,10.4v6.7L604.7,116z"/>
<path d="M698.7,134.6l-5.8,6.1l-4.7-27.3l19.9-20.9l1.5-7L687.4,109l-5-29.4l21.6,2.3l-19-5.7l-3.2-0.3l-0.1-0.7l-2.3-0.7l12.5,72.7
	l-61.6-32.4c0.2,1,0.5,1.9,0.7,2.8l5.3,2.8l-3.8,4c0.2,1.1,0.4,2.1,0.6,3c0.1,0.5,0.2,0.9,0.3,1.3l6.2-6.5l23.6,12.4L649.4,149
	l4.3,0.8l12.8-13.5l20.4,10.7l-7.2,7.5l4.3,0.8l6.2-6.6l4.4,2.3l-1-5.9l3.5-3.7L698.7,134.6z"/>
<polygon points="640.6,350.9 642.6,350.9 642.7,348.4 640.6,348.4 "/>
<polygon points="510.8,235.4 508.1,234.1 508.1,238.2 509.5,238.4 508.1,241.4 508.1,243.8 511.1,243.8 531.8,197.5 524.1,197.5 
	525.2,203.2 "/>
<polygon points="624.3,290.2 635.2,291.4 628.8,307.1 596.5,303.7 596.5,307.4 627.3,310.7 620.9,326.4 596.5,323.8 596.5,327.5 
	613.1,329.3 606.3,336.5 611.4,336.5 620.9,326.5 616.8,336.5 620.2,336.5 639.1,290.2 "/>
<polygon points="558.9,290.1 562.9,290.1 560.7,286.1 "/>
<polygon points="546.6,326.7 552.3,313.9 552.3,304.9 544,323.4 508.1,330 508.1,334.8 510,336.5 515.5,336.5 511.8,333.1 "/>
<path d="M588.7,354.9l3.3,15.8c1.2-0.3,2.4-0.6,3.6-0.9l-2.9-13.7l3.7-3.9v-5.3L588.7,354.9z"/>
<path d="M560.1,376.6c2.3-0.2,4.6-0.5,7-0.9l-3-1.4L560.1,376.6z"/>
<polygon points="559.9,243.9 584.9,290.1 589.1,290.1 564.1,243.9 "/>
<polygon points="537.7,290.2 533.7,290.2 526.5,306.3 508.1,309.7 508.1,313.4 529.1,309.6 "/>
<path d="M466.4,336.6l40.5,36.6c0.4,0.1,0.7,0.2,1.1,0.2v-4.2l-36.2-32.7H466.4z"/>
<polygon points="552.2,248.8 552.2,257.8 558.4,243.9 554.4,243.9 "/>
<polygon points="456.7,322.9 463.9,321.6 463.9,317.8 448.7,320.6 463.9,334.4 463.9,329.4 "/>
<polygon points="574.8,348.3 578.2,364.2 563.4,357.2 552.2,363.7 552.2,367.9 563.6,361.3 583.3,370.8 578.8,349.4 591,336.6 
	585.9,336.6 "/>
<polygon points="531.9,336.5 548.8,336.5 552.3,335.8 552.3,332.1 531.3,335.9 "/>
<polygon points="642.7,333 642.7,330.5 639,330.5 642.7,321.6 642.7,313.2 634.6,333 "/>
<polygon points="642.8,244.7 642.8,240.9 609.8,197.5 606.9,197.5 "/>
<polygon points="642.8,205.6 642.8,203.2 623.1,197.5 614.8,197.5 "/>
<path d="M580.9,184.1l10.1,13.3h2.9l-18.5-24.3l21,6v-2.4l-5-1.4l-5.1-24.2h-3.7l4.3,20.6l-17.2-8.2l-6.7-12.4h-4.2l25,46.2h4.2
	L580.9,184.1z M572.7,169l4.9,2.3l-4.3-1.2L572.7,169z"/>
<polygon points="602.8,213 596.5,209.9 596.5,220.7 609,243.8 613.2,243.8 597.3,214.4 607.7,219.3 626.3,243.8 629.1,243.8 
	596.5,200.9 596.5,204.7 "/>
<polygon points="642.7,269.7 642.7,265.6 640.6,264.6 640.6,268.7 "/>
<polygon points="642.7,265.4 642.7,261.7 640.6,258.9 640.6,262.7 "/>
<polygon points="642.1,274.4 640.6,278 640.6,286.4 642.7,281.3 642.7,270.8 640.6,270.6 640.6,274.3 "/>
<polygon points="642.8,221.1 642.8,218.1 639.8,217.2 "/>
<polygon points="569.1,146.4 566.8,136 557.5,140.9 557.5,140.9 "/>
<polygon points="540.2,151.7 542.7,163.5 543.1,163.3 548.6,151.1 541.4,151.1 "/>
<polygon points="560.5,146.4 563.1,151.2 570.5,151.2 "/>
<polygon points="579.6,137.1 594.6,121.4 570.2,134.2 573.8,151.2 582.6,151.2 "/>
<polygon points="594.3,208.9 596.5,209.9 596.5,204.7 591,197.4 588.1,197.4 "/>
<polygon points="596.4,151.2 596.4,176.8 614.1,181.9 607.6,151.1 596.5,151.1 596.5,151.2 "/>
<polygon points="586.3,151.2 596.4,151.2 596.4,151.1 596.5,151.1 596.5,124.6 583.6,138.2 "/>
<polygon points="626.9,269.1 640.6,270.6 640.6,268.7 621.8,259.7 "/>
<polygon points="640.6,171.2 640.6,163.5 639.3,164.9 "/>
<polygon points="618.1,183 640.6,189.5 640.6,189 635.3,163.8 640.6,158.2 640.6,151.1 611.9,151.1 611.5,151.6 "/>
<polygon points="613.2,243.8 618.8,254.2 640.6,264.6 640.6,262.7 626.3,243.8 "/>
<polygon points="448.3,152.5 448.3,171.9 450,172.7 458.7,155.2 464.3,166.6 464.3,152.5 "/>
<polygon points="421.1,153.2 424.7,152.5 421.5,152.5 "/>
<polygon points="508,67.9 508,98.3 534.2,70.7 "/>
<polygon points="501.8,235.1 497,232.8 497.8,234.6 "/>
<polygon points="540.2,169.7 536.6,152.3 518.3,152.4 527.8,197.5 "/>
<polygon points="502.7,197.4 503.8,202.5 493.1,197.4 479.5,197.4 494.4,227.5 508.1,234.1 508.1,197.5 524.1,197.5 514.5,152.4 
	508,152.4 508,197.4 "/>
<path d="M508.1,48.2c-0.7,0-1.4,0.1-2,0.1c-1.9,0.1-3.5,0.2-4.8,0.3c-1.1,0.1-1.6,0.1-1.8,0.2l-0.1,0l-14,4.3l-17.5,5.3h36.6
	l3.7-2.4V48.2z"/>
<polygon points="508,103.6 508,104.7 506.9,104.7 504.9,106.9 508.1,111.1 508.1,104.8 542.3,104.8 546.7,100.1 552.2,68.3 
	552.2,63.2 547.3,58.3 508.1,58.3 508.1,57.5 506.7,58.5 508,58.5 508,64.2 542,67.8 "/>
<polygon points="448.3,176 448.3,176.2 448.4,176 "/>
<polygon points="462.9,271.7 458.7,263.2 454.4,271.7 448.3,272.6 448.3,276.4 451.8,279.8 451.4,281.9 464.3,279.5 464.3,271.9 "/>
<polygon points="449.5,280.6 448.3,279.4 448.3,282.5 449.2,282.3 "/>
<polygon points="458.7,247.9 449.5,266.5 448.3,266.7 448.3,270.5 453,269.8 458.7,258.3 464.3,269.7 464.3,259.3 "/>
<polygon points="448.3,243.8 448.3,264 458.3,243.8 "/>
<polygon points="463.9,243.8 459,243.8 464.3,254.4 464.3,243.9 471.7,243.9 463.9,228 "/>
<polygon points="508.1,238.2 496.4,236.5 477.1,197.4 466.2,197.4 489.1,243.7 490.2,243.9 507,243.9 508.1,241.4 "/>
<polygon points="464.3,193.4 464.3,171.4 458.7,160.1 448.3,181.1 448.3,197.5 451,197.5 458.7,182 "/>
<polygon points="486.8,243.9 463.9,197.5 463.9,223.2 474.1,243.9 "/>
<polygon points="453.4,197.5 463.9,197.5 458.7,186.9 "/>
<polygon points="599.8,58.3 598.1,58.3 597.9,59.3 "/>
<polygon points="583.7,57.4 583.5,58.5 585.2,58.5 "/>
<path d="M596.5,49.6l-2.9-0.9l-0.2,0c-1.5-0.1-4.6-0.2-8.2-0.4l-1.3,7.8l3.5,2.4h8.5l0.6-3.7V49.6z"/>
<path d="M596.4,66.1v14.1l10.9-5.7C604,71.3,600.4,68.5,596.4,66.1z"/>
<path d="M637.3,61.8l0.2,1.4l-6-3.2l-5.8-1.8h-21.3l-8,4.2v1.9c4.2,2.7,8.3,5.8,12,9.4l7.9-4.2l24.3,12.8V62.8L637.3,61.8z"/>
<path d="M624.2,96.7c1.2,2.8,2.2,5.5,3.1,8.1h13L624,96.3C624,96.4,624.1,96.6,624.2,96.7z"/>
<path d="M596.5,104.7v0.1h29.3c-0.8-2.3-1.6-4.6-2.7-6.9c-0.4-0.9-0.8-1.8-1.2-2.7l-5.7-3l-19.9,10.5v2H596.5z"/>
<polygon points="555.1,136.5 556.5,139 596.5,117.9 596.5,104.8 596.4,104.8 596.4,104.7 592.7,104.7 555.5,124.3 558.8,104.7 
	552.3,104.7 552.3,141.2 553.2,140.7 "/>
<polygon points="552.2,104.8 552.2,81 548.1,104.8 "/>
<polygon points="552.2,58.3 550.4,58.3 552.2,60.2 "/>
<path d="M557.6,47.2c-1.8,0-3.5-0.1-5.2-0.1v11.4h14.4l0.3-2L557.6,47.2z"/>
<polygon points="558.3,120.3 588.1,104.7 561,104.7 "/>
<path d="M583.1,48.2c-3.7-0.1-7.7-0.3-11.4-0.5l10.2,7L583.1,48.2z"/>
<path d="M581.7,56.1l-10-6.9c-0.5-0.4-0.9-0.9-1-1.6c-3.4-0.1-6.7-0.3-9.9-0.3l8.2,8l0.4,0.4l-0.5,2.8h12.4L581.7,56.1z"/>
<path d="M616.3,89.8l4,2.1c-3.2-6-7-11.3-11.4-15.9l-12.5,6.6v17.6L616.3,89.8z"/>
<path d="M616.3,72.2l-6.3,3.3c4.9,5,9.1,10.9,12.5,17.5l18.2,9.5V85L616.3,72.2z"/>
<polygon points="453.4,104.2 427.4,70.8 420.1,73 420.1,104.2 "/>
<polygon points="499.5,104.7 481.8,104.7 502.3,131.1 463.9,131.2 463.9,149.5 508.1,149.5 508.1,115.7 "/>
<polygon points="464.3,59.6 450,63.9 464.3,82.3 "/>
<path d="M447,64.8l-16.7,5.1l27.2,35h6.4v0.1c0.1-0.4,0.2-0.7,0.4-1.1V86.9L447,64.8z"/>
<path d="M478.1,104.7h-12.8c-0.5,1.4-0.9,2.8-1.4,4.2v19.4l32.5-0.1L478.1,104.7z"/>
<polygon points="548.8,336.5 539.3,338.2 551.4,349.2 549.3,365.3 552.2,363.7 552.2,336.5 "/>
<polygon points="585.9,336.6 586.1,336.4 569.8,334.7 562,320.3 555.4,335.2 552.3,335.8 552.3,336.6 "/>
<polygon points="596.5,336.5 596.5,327.5 577.9,325.5 561.1,294.4 552.3,313.9 552.3,332.1 552.8,332 561.7,312.1 572.1,331.3 
	593.8,333.6 591,336.6 596.4,336.6 596.4,346.8 606.3,336.5 "/>
<path d="M547.5,350.6l-15.6-14.1h-16.4l22.6,20.4l-2.7,20.4c2.8,0.2,5.6,0.3,8.4,0.3c2.8,0,5.6-0.1,8.4-0.3v-9.4l-7.5,4.3
	L547.5,350.6z"/>
<path d="M596.4,352.2v17.4c10.4-2.8,19.7-6,27.3-8.8l9.4-9.8l-22.2,0.1l5.9-14.5h-5.4L596.4,352.2z"/>
<polygon points="584.9,290.1 562.9,290.1 580.2,322.1 596.5,323.8 596.5,307.4 594.1,307.1 "/>
<polygon points="552.3,290.1 552.3,304.9 558.9,290.1 "/>
<polygon points="552.2,290.2 552.2,257.8 537.7,290.2 "/>
<polygon points="558.4,243.9 559.9,243.9 559.1,242.4 "/>
<path d="M508.1,334.8l-4.3-3.9l4.3-0.8v-16.6l-44.2,8.1v7.9l7.9,7.1H508v32.7l3.3,3l-0.2,1.8c6.7,1.3,13.6,2.3,20.6,2.9l2.5-18.7
	L510,336.5h-1.9V334.8z"/>
<polygon points="552.5,151.2 558.9,151.2 555.4,144.7 "/>
<polygon points="552.2,192.5 552.2,151.9 531.8,197.5 550,197.5 "/>
<polygon points="596.4,243.9 596.4,255.3 612.6,285.3 636.6,287.9 640.6,278 640.6,274.3 624.6,272.6 609,243.8 596.5,243.8 
	596.5,220.7 583.9,197.4 565.1,197.4 590.2,243.9 "/>
<polygon points="464.3,290.1 464.3,283.3 448.3,286.2 448.3,290.2 463.9,290.2 463.9,297.5 504.1,290.1 "/>
<polygon points="508,250.7 508,289.4 508.9,289.2 529.3,243.8 511.1,243.8 "/>
<path d="M631.7,357.7c4-1.6,7-2.9,8.9-3.8v-3l-2.5,0L631.7,357.7z"/>
<polygon points="596.4,263 596.4,290.1 589.1,290.1 596.4,303.7 596.5,303.7 596.5,290.2 624.3,290.2 610.3,288.7 "/>
<polygon points="564.1,243.9 586.1,243.9 560.9,197.4 554,197.4 552.3,201.2 552.3,243.9 554.4,243.9 558.8,234.1 "/>
<polygon points="552.2,248.8 552.2,243.8 533.3,243.8 512.5,290.2 533.7,290.2 "/>
<polygon points="508.1,293.1 463.9,301.2 463.9,317.8 508.1,309.7 "/>
<path d="M463.9,336.5h-15.6l0,16.6c0.1,0,0.1,0,0.2,0l0.2,0.1c0.2,0.1,6,3.1,15.6,6.9v-23.4h2.1l-2.4-2.2V336.5z"/>
<polygon points="640.6,243.8 629.1,243.8 640.6,258.9 "/>
<polygon points="596.4,197.4 593.9,197.4 596.5,200.9 596.5,197.5 606.9,197.5 602.4,191.6 623.1,197.5 640.6,197.5 640.6,191.9 
	596.4,179.2 "/>
<polygon points="640.6,290.2 640.6,286.4 639.1,290.2 "/>
<polygon points="620.2,336.5 615.3,348.4 640.6,348.4 640.6,336.5 "/>
<polygon points="609.8,197.5 614.8,197.5 608.3,195.7 "/>
</svg>
