<?xml version="1.0" encoding="utf-8"?>
<!-- Generator: Adobe Illustrator 25.3.0, SVG Export Plug-In . SVG Version: 6.00 Build 0)  -->
<svg version="1.1" id="Layer_1" xmlns="http://www.w3.org/2000/svg" xmlns:xlink="http://www.w3.org/1999/xlink" x="0px" y="0px"
	 viewBox="0 0 750.2 400.1" style="enable-background:new 0 0 750.2 400.1;" xml:space="preserve">
<g>
	<path d="M591.4,182.5l4.4-0.9c2,0,4.3,0.3,6.8,0.1c1.7-0.1,4.3-1.1,6.3-2.7l20.7-4.2c0.4-0.3,0.8-0.5,1.2-0.8l-21.1,4.3
		c0.6-0.6,1.1-1.3,1.4-2l21-4.2c0-0.2,0-0.4-0.1-0.6l-20.8,4.2c0.1-0.5,0.2-1,0.1-1.6l20.1-4.1c-0.1-0.2-0.3-0.4-0.4-0.5l-19.8,4
		c-0.1-0.5-0.3-1-0.6-1.5c0,0-0.1-0.1-0.1-0.1l5.9-1.2c-0.9,0.1-1.7,0.1-2.5-0.1l-3.8,0.8c-0.4-0.5-1-1-1.6-1.4l3.4-0.7
		c-0.1-0.2-0.2-0.3-0.3-0.5l-3.8,0.8c-1-0.5-2.1-0.9-3.3-1.1l6.6-1.3c0-0.2,0-0.4-0.1-0.6l-8.2,1.6c-2.4-0.3-4.8-0.1-6.1,0.1
		c-2.7,0.5-5,1.5-7.3,2.6l-12.8,2.6c0.3,0.1,0.6,0.3,0.9,0.4l9.5-1.9c-2,0.9-4.2,1.6-6.7,1.8c-0.9,0.1-1.8,0.1-2.8,0.1
		c1.3,0.1,2.7,0.4,4.2,0.9l-1.8,0.4c0.3,0.1,0.5,0.3,0.8,0.4l2.1-0.4c0.9,0.3,1.8,0.7,2.7,1.2l-2.4,0.5c0.3,0.1,0.6,0.3,0.8,0.4
		l2.4-0.5c0.8,0.4,1.5,0.8,2.2,1.3l-2.3,0.5c0.2,0.1,0.4,0.3,0.7,0.5l2.3-0.5c0.6,0.4,1.1,0.8,1.6,1.2l-2.5,0.5
		c0.2,0.2,0.4,0.3,0.5,0.5l2.5-0.5c0.6,0.5,1.2,1,1.7,1.4l-2.6,0.5C591,182.2,591.2,182.3,591.4,182.5z"/>
	<path d="M587.9,187.3c-1.3,0-2.7,0-4,0.3c-6.3,1-12.2-2-18.3-3.1c-0.2,0.6-0.3,1.2-0.5,1.9c-1.7,5.6-5.1,3.9-7.7,0.1
		c-0.5-0.8-1-1.4-1.5-2l-12.1,0.5c-2.8-2.9-3.6-4.7-3.2-5.8c-0.3,0-0.6,0-0.9,0c-4.6,0.2-7.4,4.9-10,8.3c-3.3,4.3-6.7,4.2-11.3,4.2
		c-4.2,0-5.5,3.4-7.9,5.8c2.2,0.5,4.5,0.9,6.6,1.6c0.5,0.1,0.9,0.3,1.4,0.5c0.5,0.2,0.9,0.4,1.4,0.6c0.6,0.2,1.2,0.2,1.8,0.4
		c0.8,0.2,1.3,0.6,2.2,0.3c0.5-0.1,1.1-0.5,1.6-0.4c0.6,0.1,0.9,0.7,1.6,0.9c1,0.2,3.6-1.4,4.3-0.2c0.4,0.8-0.3,1.4-1.1,1.8
		c3,0.5,6,0.5,7.6-0.9c4.5-3.6,5.5-16.7,15.7-5.9c3.2,3.4,5.4,6.2,9,6c0.3-0.4,0.7-0.8,1-1.2c0.8-0.9,1.6-1.8,2.5-2.6
		c0.7-0.6,2.2-2.1,3.2-1.2c0.1,0.1,0.2,0.2,0.3,0.3c0.7-0.8,1.4-1.5,2.3-2c1.9-1.1,4.2,0,6.7,0.2C584.4,196,586.1,191.5,587.9,187.3
		z"/>
	<path d="M512.8,202c-0.1,0-0.1,0-0.2,0c-1.4-0.2-2.9-0.3-4.3-0.2c0.9,0.2,1.9,0.4,2.8,0.5C511.7,202.3,512.3,202.2,512.8,202z"/>
	<path d="M469,249.8c1.6,0.4,2.9,2,4.5,2.6c2.4,0.9,5.4,1.1,7.9,1.1c7.6,0.2,11.4-5.7,18.6-6.1c0.8,0,1.5-0.1,2.3-0.1
		c6.6,0.9,15.1-2,14.4-10.5c-0.1-0.9-0.3-1.8-0.7-2.6l17.6-3.6c0.7-0.3,1.4-0.6,2-1l-19.9,4c-0.2-0.3-0.4-0.5-0.6-0.7
		c-0.3-0.3-0.7-0.5-1.1-0.7l26.8-5.4c1.8-0.7,3.6-1.2,5.6-1.4c0.8-0.1,1.6-0.2,2.4-0.2l51.9-10.5c-0.1,0-0.2,0-0.4,0
		c-0.4,0-0.8-0.1-1.2-0.2c0,0-0.1,0-0.1,0l-4.7,1c-2,1.1-4.8,1.6-7.4,1.5L513,231.9c-0.7-0.1-1.3,0-1.8,0.4l-7.3,1.5
		c-0.5,0.2-1,0.4-1.5,0.5c-0.7,0.2-1.6,0.5-2.5,0.9l10.7-2.2c-0.5,0.6-0.8,1.4-1.3,2l-6.6,1.3c-0.7-0.2-1.5-0.3-2.1-0.5
		c-2.3-0.4-4.5-0.1-6.4,1.4c-0.7,0.6-1.2,1.4-1.8,2.1c-1,1-3,1.8-2.3-0.5c0.3-0.9,2.1-2.4,0.5-2.9c-1.5-0.5-3.2,0.6-4.7,0.6
		c-2.2,0-0.6-1.6-1.8-2.3c-0.5-0.3-1.3,0.5-1.7,0.8c-0.2,0.1-0.9,0.9-1.1,0.4c-0.1-0.2,0.5-0.7,0.6-0.9c0.3-0.3,0.5-0.6,0.6-1.1
		c0.2-0.9,0.1-1.9,0.3-2.8c0.2-1.4,0.9-3.1,0.6-4.5c-1.8,0-2.9,4.5-4.2,5.6c-0.8,0.7-1.7,1.2-2.5,1.9c-0.7,0.6-1.7,1-2.6,1.3
		c-1.1,0.3-1.9,0.1-3-0.2c-0.1,0-0.1,0-0.2-0.1c-0.4,2.2-3.3,4.2-4.9,5.6c-4.4,3.7-10,9.9-17.4,10.1l0,6.8c2.6-0.7,5.4-1.9,6.7-2.2
		C459.5,254,464.1,248.5,469,249.8z"/>
	<path d="M634.3,330.4c-0.5-0.2-2.1-0.9-3.9-1.4c-1.6-1.5-2.8-3.3-5-4c-1.8-0.6-3.8-0.2-5.7,0.2c-4.2,1-7.8,3.3-11.7,5
		c-1.4,0.6-3.2,1.5-4.8,1.4c-6.5-0.3-11.7-7.5-16.9-3.7c-1.7,1.3-0.7,5-3.2,5.9c-3.3,1.1-7.2-1.9-10.6-4.1c-3.2-2-8-6.6-12.7-10.2
		l9.8-2c-1.1,0-2.2,0-3.3,0.1l-7.2,1.5c-0.6-0.5-1.3-0.9-1.9-1.3l2.2-0.4c-0.2-0.1-0.4-0.3-0.6-0.5l-2.3,0.5
		c-0.8-0.5-1.5-0.9-2.3-1.3l11-2.2c0.5-0.3,0.9-0.6,1.4-0.9l-13.3,2.7c-1.3-0.6-2.5-0.9-3.6-0.8c-6.2,0.5-4,3.3,0,6.1l-28,5.6
		c0.1,0.2,0.3,0.3,0.4,0.5l28.2-5.7c0.7,0.5,1.4,0.9,2.1,1.3l-29,5.8c0.1,0.2,0.3,0.3,0.4,0.5l29.3-5.9c0.7,0.4,1.5,0.9,2.2,1.3
		l-30.4,6.1c0.1,0.2,0.2,0.3,0.3,0.5l30.8-6.2c0.8,0.5,1.6,0.9,2.3,1.3l-32.1,6.5c0.1,0.1,0.2,0.3,0.3,0.4c-1.4-0.5-3-0.3-4.4-0.8
		c-1.1-0.4-2-0.9-2.8-1.3c-0.9-0.4-1.8-0.7-3-0.7c-1.1,0.4-2.3,0.7-3.5,1c-0.6,0.2-1.2,0.3-1.8,0.4c-2.4,0.8-5,0.5-6.8-1.4
		c-3.8-3.4-7.8-5.7-12.1-7.5c-0.5-0.2-0.9-0.5-1.4-0.7c-13.6-6.2-21.4,2.8-33.2,2.1c-0.9,0.9-2.1,2-3.3,1.8c-0.3,0-0.5-0.1-0.7-0.2
		c-0.2-0.1-0.5-0.2-0.7-0.2c-0.6,0-1.3,0.3-1.9,0.6l-0.2,0.1c-0.8,0.4-1.9,1-2.8,1l0,2.2c0.4,0.5,0.9,1.1,1.5,1.7
		c7.1,7.3,12.6-0.9,18.4-0.8c7.5,0.2,14.3,4.7,21.8,3.4c0.7-0.1,1.4-0.2,2-0.3c5-0.7,9.9,0.4,14.3,3.3c0.5,0.3,1,0.6,1.5,0.8
		c1.5,0.7,3.5,1.8,5.2,2c1.7,0.2,3.4-0.8,5.1-0.6c6,0.8-3.8,8.2,4.4,9.7c5.2,1,8.7-1.5,13.6-1.3c1.9,0.1,4.2,0.6,6.1,0.4
		c1.5-0.1,1.4-0.7,2.3-1.7c1.5-1.5,4.7-1.2,6.6-1.2c2.6,0,5.1-0.5,7.6-1.5c0.6-0.2,3.7-2.8,5.6-4.4c0.2,0.1,0.4,0.1,0.6,0.2l6.7-1.4
		c-0.3-0.1-0.8-0.2-1.4-0.3l-0.2,0c1.1-0.5,1.8-1.6,1.6-3.3c1.1-0.3,2.1-0.5,3.2-0.3c3.7,1,5.4,3.5,6.8,5.7
		c-0.3-0.1-0.5-0.1-0.7-0.2c0,0,0,0,0,0l-8.3,1.7c0.2,0.1,0.4,0.1,0.7,0.2c0.2,0,0.3,0.1,0.5,0.2l8-1.6c0.3,0.4,0.6,0.8,0.9,1.2
		c0.2-0.1,0.4-0.2,0.7-0.3c1.1-0.5,2.2-1,3.4-1.4c2.2-0.8,4.3-2,6.4-3.1c2.8-1.6,5.7-3.2,8.9-3.9c2.9-0.7,10.9-0.3,14.1,2
		c0.6,0.4,1,0.8,1.2,1.3c0.4-0.2,0.8-0.4,1.3-0.5c1.3-0.5,2.5-0.6,3.7-1.2c1.5-0.8,3.1-1.5,4.8-1.9c1.9,0.2,4.5-0.4,5.8-0.1
		c2.5,0.5,3,3,4.1,5c0.4,0.6,0.6,1.3,0.8,2l-1.9,0.4c-0.5,0.3-1,0.5-1.5,0.9l3.7-0.7c0.3,0.6,0.6,1.1,1.1,1.5l-7.1,1.4
		c-0.2,0.2-0.5,0.5-0.7,0.7l8.6-1.7c0.1,0,0.2,0.1,0.3,0.1c0.7,0.2,1,0.3,1.2,0.6c0.1,0.2,0.2,0.4,0.2,0.7l-12.8,2.6
		c-1.4,0.9-2.7,1-4,0.8l-20.3,4.1c0.1,0.2,0.2,0.4,0.3,0.5l37-7.5c0.1,0.6,0.3,1,0.5,1.4l0-1.5l0-0.6l0-1.7l0-0.6l0-1.8l0-0.5l0-7.7
		c0,0-0.1,0-0.1,0C639.9,331,636.9,331.3,634.3,330.4z"/>
	<path d="M448.3,324.1l0,1c0.4-0.3,0.6-0.8,0.9-1.2C448.9,323.9,448.6,324,448.3,324.1z"/>
	<path d="M610.3,127.8c-0.8-0.4-2-0.7-3-0.9c1.5-0.3,3.5,0,5.1,0.3c0,0-0.1-0.1-0.1-0.1c-0.4-0.2-0.8-0.5-1.2-0.7
		c-2.1-1-4.6-1.4-6.8-1.1c-1.8,0.2-5,1.3-2.8,3.5c0.4,0.4,0.8,0.7,1.3,1c1.1,0.7,2.2,1.1,3.4,1.3c-0.4-0.7-0.7-1.4-0.7-2
		c0.2,0.3,0.5,0.6,0.9,0.9c1.5,0.5,4.6,0.7,5.7,1.8c1.1,1,1.3,3.4,2.9,5c-0.2-0.1-0.4-0.1-0.7-0.2c1,1.2,2.2,2.5,3.5,3.3
		c0,0,0.1,0,0.1,0l0.2,0c1.5-0.3,2.9-0.2,4.4,0c0.6,0,1.2,0.1,1.9,0.1c4.5,0.1,7.9-0.1,10.9-0.9c-0.7-1.5-1.3-3.1-1.9-4.9
		c-0.7-0.3-1.4-0.4-2.3-0.2c-2.1,0.4-3.3,2.4-5,3.5c-2.4-0.2-4.6-1.1-7.1-3.1C615.8,131.8,614,129.5,610.3,127.8z"/>
	<path d="M460.8,121.2c-0.3,1.3-0.5,2.6-0.8,3.7c-0.2,1.2-0.5,2.3-0.7,3.3c-0.1,0.3-0.1,0.5-0.2,0.7c0.6,0.1,1.1,0.1,1.7,0.5
		c0.1,0.1,0.2,0.2,0.3,0.3c0,0.1,0.1,0.2,0.1,0.2c1.2,0.7,3.2,0.7,4.8,0.6c0.4,0,0.9,0,1.2,0c1.9,0,3.6,0,5.5,0.4
		c1.1,0.2,2.3,0.3,3.6,0.3c2.6,0.1,5.6,0.2,8,2c0.7,0.6,1.1,1.3,1.5,2.1c0.4,0.7,0.8,1.4,1.4,1.9c1.5,1.1,3.5,0.9,5.1,0.7
		c0.5,0,1-0.1,1.4-0.1c1.6,0,3.1,0.2,4.6,0.5c1.2,0.2,2.3,0.4,3.4,0.5c2.4,0.1,4.8-0.3,7.1-0.7c1.6-0.3,3.2-0.5,4.8-0.6
		c1-0.1,6.2-0.1,7.8,1.4c0.4,0.3,0.5,0.7,0.5,1.1c0,1.4-0.2,2.6-0.6,3.5c0.8,0,1.4,0.2,2,0.6c0,0.1,0,0.3,0,0.5l0.5-0.1
		c0.5,0.4,1,0.9,1.5,1.3c0,0,0.1,0.1,0.1,0.1l-0.7,0.2c0.1,0.2,0.2,0.4,0.3,0.5l0.9-0.2c0.4,0.4,0.8,1,1.2,1.5l-0.4,0.1
		c0.2,0.2,0.3,0.3,0.5,0.5l0.3-0.1c0.5,0.5,0.9,1.1,1.4,1.4l0,0c0.2,0.1,0.3,0.3,0.5,0.4c0,0,0,0,0.1,0.1l0.2,0
		c0.3,0.1,0.6,0.2,0.9,0.1c0.5-0.1,0.9-0.3,1.1-0.5l10.2-2.1c0.7,0.4,1.4,0.7,2.1,0.9c0.4,0.1,0.9,0.2,1.3,0.2l-14.6,2.9
		c0.1,0.2,0.2,0.4,0.4,0.5l16.5-3.3c1.3,0.1,2.6,0.4,3.9,0.8l-17.8,3.6c1-0.1,2-0.4,3.1,0l15.8-3.2c0.9,0.3,1.7,0.7,2.5,1.3
		l-16.1,3.3c0.2,0.2,0.4,0.3,0.5,0.5l16.1-3.3c0.6,0.5,1.3,1,1.9,1.3l-16.1,3.2c0.2,0.1,0.5,0.2,0.7,0.2c0.2,0,0.3,0.1,0.5,0.1
		l7.6-1.5c0.5-0.2,1-0.4,1.5-0.3l6.7-1.3c3,1.3,6.5,1.2,9.8,0.8c3.1-0.3,5.9,0.5,8.4-2.3c1.8-2,2-1.4,2,1.3c-0.1,6,3.8,1.9,6,0
		c3.2-2.7,6.7-1.7,10.1,0l-2.2,0.4c-0.2,0.2-0.4,0.5-0.6,0.7l3.6-0.7c0.8,0.4,1.6,0.8,2.3,1.2l-7.6,1.5c-0.1,0.2-0.3,0.4-0.5,0.7
		l8.8-1.8c0.1,0,0.1,0.1,0.2,0.1c0.9,0.5,1.8,0.8,2.6,1.1l-13,2.6c-0.2,0.2-0.3,0.5-0.5,0.7l14.7-3c0.3,0.1,0.6,0.2,0.9,0.2
		c1.3,0.3,2.6,0.4,3.9,0.4l-21.1,4.3c-0.4,0.3-0.7,0.6-1.1,0.8l37.4-7.5c0.2,0,0.3,0.1,0.5,0.1c0.6,0.1,1.2,0.3,1.8,0.4
		c0.8,0.1,1.5,0.2,2.3,0.3l-81.5,16.4c-0.2,0-0.4,0.1-0.6,0.1l-6.2,1.3c0.3,0.1,0.6,0.1,0.9,0.1c0.4,0,0.7,0,1.1,0.1l73-14.7
		c1.9-1,4.6-1.4,7.3-1.5l19.4-3.9c-1.1-0.2-2.3,0.5-3.4,0.5c-0.5,0-1,0-1.5-0.1l-7.1,1.4c-0.6-0.5-1.3-0.9-2-1.4l4.4-0.9
		c-0.4-0.1-0.9-0.2-1.3-0.3l-3.8,0.8c-0.7-0.4-1.3-0.8-2-1.2l2.2-0.4c-0.5-0.1-1.1-0.2-1.6-0.3l-1.3,0.3c-3.2-1.6-6.3-2.8-8.4-3
		c-1.1-0.1-2.3,0-3.5,0.1c-1.8,0.1-3.3-1.2-4.4-2.7c-0.9-1.2-0.9-2.5-2.5-2.8c-1.1-0.2-2.4-0.4-3.4-0.3c-2.8,0.3-6,1.5-8.2-0.5
		c-2-1.6-4.4-2.3-6.6-3.5c-0.4-0.2-0.8-0.5-1.2-0.8c-1-0.7-1.7-2.4-0.8-3.2c0.4-0.5,0.9-0.9,1.4-1.3c0.5-0.4,1.1-0.8,1.6-1.1
		c0.8-0.5,1.6-0.9,2.2-1.7c0.9-1.4,1.2-3.3,0.6-4.9c-0.1-0.2-0.2-0.4-0.3-0.7c-0.1,0.1-0.3,0.2-0.4,0.2c-2.5,1.5-3,4.1-5.2,5.9
		c-1,0.8-2,1.6-3.1,2.2c0,1.5,0.8,3-0.3,4.5c-0.5,0.7-1.1,1.4-1.6,1.9c-0.8,0.8-1.7,1.1-2.8,1.5c-0.4,0.2-0.9,0.3-1.3,0.5
		c-2.2,0.7-4.7,1.1-6.7,1.5c-3.2,0.6-6.3,1.1-9.6,1c-1,0-1.5-0.5-2.3-1.1c-0.9-0.7-2.2-0.7-3-1.6c-0.3-0.4-0.5-0.9-0.7-1.3
		c-0.2-0.4-0.5-0.7-0.9-1.1c-0.8-0.9-0.6-1.8,0.1-2.6c0.4-0.4,0.7-0.9,1.2-1.2c0.5-0.4,1.4-0.6,2-0.7c0.6-0.2,1.2-0.3,1.8-0.4
		c1.1-0.1,2.2-0.1,3.3-0.2c0.8-0.1,1.9-0.2,2.9-0.5c-0.5-0.2-1-0.5-1.6-1c-1.3-1-1.8-2.6-3.7-3c-2.6-0.6-3,2-5,2.5
		c-2.1,0.5-7.6-2.9-9-4.7c-0.7-0.9-0.8-1.7-0.5-2.4c-0.7,0.1-1.3,0.5-2,1.4c-1,1.2-0.7,2.9-1.7,4c-0.9,1.2-2.2,0.9-3.3,1.9
		c-2.2,2.1-3.2,4.9-5.7,4.4c-0.5-0.1-1-0.3-1.7-0.7c-3.4-4.6-7.3-7.8-13.1-7.3c-0.6-0.1-1.2-0.1-1.8-0.2c-1.8-0.2-3.6-0.4-5.4-0.7
		c-1.7-0.3-4.7-0.3-5.9-1.7c-0.5-0.6-0.5-1.6-0.9-2.2c-0.5-0.6-1.3-0.8-1.6-1.1c-0.9-1.1-1-2.8-2.3-3.6c-1.1-0.8-2.4-0.3-3.6-0.7
		c-1.8-0.7-2.7-2.6-4.2-3.6c-2.2-1.4-1.6,0-3.3,0.9c-1.6,0.9-4.5-0.4-6.4-0.6c-1.9-0.2-4.2-3.7-6.4-2.2c-1.2,0.8-0.5,2.6-2.4,2.9
		c-2.9,0.5-5.6-0.8-8-2.4c-0.3-0.2-0.6-0.5-0.9-0.7c-0.5,1.8-0.9,3.5-1.2,5.1c0.2,0.6,0.2,1.3,0,1.8
		C461.3,120.7,461.1,121,460.8,121.2z"/>
	<path d="M616.8,93.1l3.8-0.8c-0.1-0.2-0.2-0.4-0.3-0.5l-4.4,0.9c-1.2-0.5-2.4-0.8-3.6-0.7c-0.9,0.1-3.7,1.1-4.8,2.4l-5.9,1.2
		c0.2,0.2,0.4,0.3,0.5,0.5l4.9-1c-0.1,0.4-0.1,0.8,0.3,1.1c0.1,0.2,0.5,0.3,0.9,0.4l-4.6,0.9c0.1,0.1,0.1,0.1,0.2,0.2
		c0.1,0.1,0.2,0.2,0.3,0.3l5.7-1.1c0.6,0.1,1.2,0.2,1.5,0.4c0.4,0.2,0.9,0.5,1.3,0.8l-7.1,1.4c0.2,0.2,0.3,0.3,0.5,0.5l7.3-1.5
		c0.9,0.6,1.7,1,2.8,1.2l-8.7,1.7c0.2,0.2,0.4,0.3,0.5,0.5l11.9-2.4c1.4-0.2,2.8-0.3,4.1-0.1c-0.2-0.5-0.4-1-0.6-1.5
		c-0.2-0.4-0.4-0.9-0.6-1.3c-0.1-0.2-0.2-0.4-0.2-0.5c0-0.1-0.1-0.1-0.1-0.2c-0.8-0.2-1.6-0.6-2.4-1l1.8-0.4
		c-0.1-0.2-0.2-0.4-0.3-0.5l-2.3,0.5C618.3,94,617.5,93.5,616.8,93.1z"/>
	<path d="M641.9,226.3c-0.3,0-0.7,0-1.2,0c-1,0.2-2,0.4-2.7,0.7c-4.7,1.4-9.1,5.8-14.2,5.3c-3.1-0.3-6.9-2.6-5.5-6.6
		c0.6-1.8,1.9-2.5,3.6-2.8c2.1-0.4,3.9-0.7,5.9-1.5c0.1,0,0.2-0.1,0.3-0.1c1.2-0.5,1.5-0.8,1.5-1.4c0,0,0-0.1,0-0.1c0,0,0,0,0,0
		c0-0.1,0-0.2,0-0.3c-0.1-0.4-0.2-1-0.2-1.8c1-0.4,1.9-1.6,2.9-1.8c1.2-0.3,2.2,0.6,3.3-0.3c1-0.8,1.3-2.2,0.1-2.8
		c-1.3-0.7-4.1,1.1-5.4,1.5c-1.5,0.5-3,0.6-4.4,1.2c-2,0.9-3.7,2.6-5.6,3.7c-0.9,0.6-1.9,0.9-2.7,1.6c-0.8,0.7-1.2,2.1-2.5,2.2
		c-2.7,0.2-3.5-3.9-4.5-4.1c-0.5-0.1-1-0.1-1.4-0.1c-0.5,0-0.9,0.1-1.4,0.2c-0.7-0.1-1.5,0.2-2.1,0.7c-1.2,0.9-2.4,1.3-3.7,1.5
		c-0.4,0.1-0.8,0.1-1.3,0.1c-1.3,0.1-2.4-0.2-3.8,0.2c-1.2,0.4-2.4,1.1-3.5,1.8c-1.1,0.8-2,1.7-3.1,2.5c-0.9,0.6-1.6,1.7-2.6,2.2
		c-0.5,0.3-1,0.4-1.5,0.7c-0.8,0.6-1.2,1.4-1.6,2.2c-0.4,0.8-1.5,1.8-1.4,2.7c0.1,1.6,2.2,1.2,3.1,1.1c1.1-0.2,2.2-0.3,3.3-0.4
		c1-0.1,1.9-0.4,2.9-0.6c6-0.9,18.4,0,22.6,5.2c2.3,2.9,2.3,6.9,6.6,8.4c0.5,0.2,1,0.3,1.4,0.3c2,0.3,4.8-0.6,6.5-1.8
		c1.3-0.9,3.3-1.2,4.8-1.2c1.7,0.1,3.4,1.1,5.1,1.3c0.6,0.1,1.4,0.2,2.1,0.2c0.3-0.1,0.6-0.2,1-0.3l0-19.5c-0.2,0-0.4,0-0.6,0.1
		C642.1,226.3,642,226.3,641.9,226.3z"/>
	<path d="M638.5,258.7c-1.9-0.2-3.4,0.5-5.3,0.5c-1.4,0-3-0.9-4.3-1.5c-2.7-1.3-5.7-3.1-8.7-3c-1.8,0.1-3.4,0.9-4.8,2.2
		c-2.4,2.5,0.4,5,2.3,6.5c1.6,1.2,3.4,2.2,5.3,2.6c3.3,0.8,6.7,0.1,9.8-1.1c1.4-0.5,2.9-0.6,4.4-0.5c1.9,0.2,2.8,1.7,4.5,2.1
		c0.3,0.1,0.6,0.1,0.9,0.2l0-7.6C641.3,259.5,640,258.9,638.5,258.7z"/>
	<path d="M632.8,323.2c0.5,1.2,3.8,3,5.1,3c1.5,0.1,3.2-0.5,4.8-1.1l0-4.9c-1.7,0.7-3.8,1.6-5.6,1.6
		C635.7,321.9,631.8,320.6,632.8,323.2z"/>
	<path d="M640.9,307.7c-0.4-0.1-0.9-0.1-1.4-0.1c0,0,0,0,0,0l0,0c-0.2,0-0.3,0-0.5,0.1l-7,1.4c0.1,0,0.3,0.1,0.4,0.1
		c0.2,0.1,0.5,0.1,0.7,0.2l5.2-1.1c0,0.1,0,0.2,0,0.4c0,0.6,0.3,1,0.8,1.2l-3.4,0.7c0.2,0.1,0.4,0.3,0.6,0.5l3.9-0.8
		c0.3,0.1,0.6,0.1,0.8,0.2c0.6,0.2,1.1,0.6,1.6,1l-5.7,1.1c0,0.2-0.1,0.5-0.3,0.6l6-1.2l0-0.6l0-3.9
		C642.1,307.8,641.5,307.7,640.9,307.7z"/>
	<path d="M642.7,301.5l0-2.6c-0.2,0.1-0.4,0.2-0.6,0.4C640.4,300.8,641.5,301,642.7,301.5z"/>
	<path d="M448.5,182.7l12.6-2.5c-0.5-0.1-1-0.2-1.5-0.3l-11.3,2.3l0,0.6l0,0.3c0.3,0.1,0.6,0.1,1,0.2
		C449,183,448.8,182.9,448.5,182.7z"/>
	<path d="M477,200.3c1,0.3,1.9,0.4,2.9,0.4c0,0,0,0,0.1,0c0.4,0,0.8,0.1,1.1,0.1c0.3,0.1,0.6,0.1,1,0.1c1.2,0,2.6-1.3,3.6-2.3
		c-1.1-2-1.1-4.5-3.9-6.5c-1.5-1.1-3.9-0.8-5.6-1.4c-2.2-0.8-3.4-1.9-5.8-2c-1.8-0.1-2.8,0.6-3.9,1.2l-8.8,1.8
		c0.2,0.2,0.3,0.3,0.5,0.5l6.2-1.2c0.2,0.1,0.5,0.1,0.7,0.2c1,0.2,1.9,0.5,2.6,0.9l-7.9,1.6c0.1,0.1,0.3,0.2,0.5,0.3
		c0.1,0.1,0.2,0.1,0.3,0.1l7.8-1.6c0.7,0.5,1.4,1,1.9,1.7c0.4,0.5,0.8,1.1,1.1,1.5C473.1,198,474.1,199.4,477,200.3z"/>
	<path d="M448.7,283.6c-0.1-0.1-0.2-0.1-0.3-0.2l0,6.2c0.4,0.2,0.7,0.3,1.1,0.4C455,291.4,451.3,285.2,448.7,283.6z"/>
	<path d="M448.7,268.3c0-0.1-0.1-0.1-0.1-0.2c-0.1,0.1-0.2,0.2-0.3,0.3l0,4.7c1.3-0.6,2.8-0.8,4.3-1.1
		C451,270.7,449.4,269.3,448.7,268.3z"/>
	<path d="M451.1,152.6c0.9-0.1,2.3,0.7,3.4,1c3.7-1.3,0.6-3.7-1.6-5.4c-0.5-0.4-1-0.7-1.5-0.9c-0.5,0.8-1.1,1.6-1.7,2.3
		c-0.3,0.3-0.5,0.6-0.7,0.8c-0.2,0.3-0.5,0.5-0.8,0.6l0,3.7C449.4,154,449.7,152.8,451.1,152.6z"/>
	<path d="M572,368c1.7-0.9,2.6-2,0.8-3.4c-0.4,0.3-0.9,0.6-1.3,0.9c-1.9,1.2-4,1.9-6.1,2.6c-1.6,0.6-3,1.6-4.4,2.5
		c-0.9,0.6-2,1-2.9,1.6c-0.6,0.4-1.1,0.7-1.7,0.9c-0.4,0.1-0.7,0.3-1,0.6c-0.4,0.3-0.7,0.5-1.2,0.6c-0.9,0.4-1.9,0.7-2.9,0.6
		c-6.5-0.3-11.5-7.5-16.8-3.7c-1.7,1.2-0.8,4.8-3,5.7c4.1,0.3,8.1,0.5,12.2,0.5c11.4,0,23.1-1.4,34.3-3.6c0.2-0.8,0-1.7-0.8-2.8
		C575.8,369.2,574,368.3,572,368z"/>
	<path d="M498.5,358.1c-2.3,0.2-3.4,0.7-3.7,1.4l-20.8,4.2c0.3,0.1,0.7,0.3,1.1,0.4l19.7-4c0.1,0.5,0.4,1,0.9,1.6l-17.3,3.5
		c0.4,0.1,0.7,0.2,1.1,0.4l16.7-3.4c0.4,0.4,0.9,0.8,1.5,1.3l-15.2,3.1c0.4,0.1,0.8,0.2,1.1,0.4l14.7-3c0.6,0.5,1.3,0.9,2,1.4
		l-13.3,2.7c0.4,0.1,0.8,0.2,1.2,0.4l12.8-2.6c3.7,2.4,7.9,4.5,8.8,5.2c1.2,0.9,1.9,2.1,2.4,3.3c4.8,0.9,9.7,1.7,14.6,2.2
		c-2-0.9-4-2.3-5.9-3.5C515.2,369.4,504.5,357.5,498.5,358.1z"/>
	<path d="M505.4,79.7c-1.1,1.1-2.8,1.9-4.3,2c-1.6,0.1-2.8-0.7-4-1.7c-1.8-1.6-2.9-3.6-4.3-5.6c-1.1-1.7-2.7-3.5-4.8-3.2
		c-0.3,0-0.6,0.1-0.9,0.3c-0.8,0.7-1.6,1.3-2.4,2c-0.2,0.2-0.5,0.5-0.7,0.7c-1.1,1.1-2.3,2.2-3.3,3.4c0.3,0.5,0.1,1.7,0.1,1.7
		c-0.2,0.7-0.7,1.1-1.1,1.3c-0.7,0.4-1.4,0.7-2.2,0.9c-0.7,0.9-1.3,1.8-2,2.7c0.2,0.1,0.4,0.2,0.6,0.3l-0.9,0.2
		c-0.2,0.2-0.3,0.5-0.5,0.7l2.4-0.5c0.3,0.1,0.6,0.2,0.9,0.3c0.8,0.3,1.7,0.5,2.5,0.8l-7.2,1.5c-0.1,0.2-0.3,0.4-0.4,0.7l8.8-1.8
		c-0.1,0-0.1-0.1-0.2-0.1c0.7,0.2,1.5,0.9,2,1.3c0,0,0.1,0.1,0.1,0.1l-11.8,2.4c-0.1,0.2-0.3,0.4-0.4,0.7l12.6-2.5
		c0.3,0.3,0.6,0.7,0.8,1.1c0.1,0.2,0.2,0.3,0.4,0.5l-14.8,3c-0.1,0.2-0.2,0.4-0.3,0.7l15.6-3.1c0.3,0.5,0.7,0.9,1,1.4l-17.5,3.5
		c-0.1,0.2-0.2,0.4-0.3,0.7l18.2-3.7c0.2,0.2,0.3,0.4,0.5,0.7c0.3,0.3,0.5,0.6,0.7,0.9l-20.2,4.1c-0.1,0.1-0.1,0.3-0.2,0.4
		c0.7,0,1.4-0.1,2.1-0.2l5.9-1.2c1.4-0.4,2.7-0.7,4.1-0.8l8.8-1.8c0.9,0.9,1.4,0.7,3.3,1.5c1,0.4,1.5,0.9,2,1.4l-4.3,0.9
		c0,0,0.1,0.1,0.1,0.1c0.1,0.1,0.1,0.3,0.2,0.4l4.4-0.9c0.2,0.3,0.5,0.7,0.7,1.1l-5,1c-0.1,0.2-0.2,0.4-0.3,0.6l5.6-1.1c0,0,0,0,0,0
		c0.1,0.2,0.3,0.4,0.4,0.6c0.2,0.3,0.4,0.6,0.7,0.9l-14.2,2.9c-0.6,0.3-1.3,0.6-1.9,0.7c-0.9,0.2-1.7,0.3-2.5,0.2l-13.6,2.7
		c-0.1,0.2-0.1,0.4-0.2,0.6l32.9-6.6c0.5,0.6,1.1,1.1,1.9,1.3l-25.3,5.1c0.5,0.1,0.9,0.2,1.4,0.3l25.4-5.1c1.6,0.1,3-0.3,4.4-0.9
		l7.1-1.4c-0.1-0.2-0.4-0.3-0.9-0.4l-4,0.8c0.5-0.2,0.9-0.4,1.4-0.6c0.7-0.3,1.5-0.6,2.3-0.8c4.2-0.9,8.9,2.1,13.4,1.3
		c2.8-0.5,4.8-2.5,7.8-2.6c1.6,0,4.1,0.6,5.5,1.5c0.7,0.4,1.3,1.2,1.9,1.7L480.9,113c0.2,0.2,0.3,0.3,0.5,0.5l58.7-11.8
		c0.4,0.1,0.8,0.1,1.4,0c0.3-0.1,0.5-0.2,0.7-0.4l4.7-1c-0.8-0.1-1.7-0.1-2.5-0.1l-1.7,0.3c0.5-1,0.3-2.5,1-3.5
		c0.8-1.2,2.9-1.8,4.2-2.1c2.7-0.8,10.6-0.4,10.9-4.7c0.2-2.9-3.4-3.6-4.9-4.9c-1.4-1.1-3.1-4-2.3-5.9c0.8-1.8,2.7-1.8,4.1-2.7
		c1.7-1.1,2-2.7,0.2-3.3c-1.5-0.5-3,0-4.1,1.2c-2.1,2.4-1.9,6.6-4.2,8.7c-2.6,2.3-7.8,3-11.4,3.7c-3.5,0.7-18.1,3.8-17.3-5.4
		c0.3-3.5,6.3-3.1,8.7-3.7c1.4-0.4,7-1.9,3.8-4.1c-0.8-0.5-1.9-0.7-3-0.7c-1.7,0-3.6,0.2-4.9,0c-1.9-0.3-3.7-0.9-5.6-0.9
		c-1.8,0-2.3-0.2-3.7-1.3c-1.6-1.2-2.7-1.2-4.7-1.1c-1.7,0.1-3-0.7-4.6-0.8c-2.2-0.2-2.6,1.2-0.7,2.4c1.5,1,4,0.4,4.7,2.3
		C510,76.1,506.9,78.2,505.4,79.7z"/>
	<path d="M571,50.8c1,0,2,0,2.9-0.1l-2.2-1.5c-0.5-0.4-0.9-0.9-1-1.6c-1.1,0-2.1-0.1-3.1-0.1C569.2,49.1,570.4,50.8,571,50.8z"/>
	<path d="M527.9,55.6c1.2,4.5,11.7,1.3,13.7,1.1c3.2-0.2,9.4,2.9,12.3,1.5c0.6-0.3,1.4-1.5,2-2.9c-0.1-0.8-0.2-1.6,0-2.3
		c0.2-1.1,0.8-2,1.6-2.7c0.6-0.5,1.9-0.7,2.4-1.3c0.3-0.5,0.4-1.1,0.4-1.8c-5.3-0.1-10.4-0.2-15.2-0.2h0c-1.1,0-2.3,0-3.4,0
		c-0.1,0.2-0.1,0.4-0.2,0.6c-1.2,2.6-3.5,2.3-5.8,2c0.1,0,0.1,0.1,0.2,0.1C531.4,50.5,526.7,51.1,527.9,55.6
		C527.9,55.6,527.9,55.6,527.9,55.6z"/>
	<path d="M509.9,56.4l-1.9,1.2C508.8,57.5,509.4,57,509.9,56.4z"/>
	<path d="M628.5,319.6l14.2-2.9l0-0.6l-14.9,3C628,319.3,628.3,319.5,628.5,319.6z"/>
	<path d="M637.4,320.2l5.3-1.1l0-0.6l-6.4,1.3C636.6,319.9,637,320,637.4,320.2z"/>
	<path d="M627.1,317.7l15.5-3.1l0-0.6l-15.4,3.1C627.2,317.2,627.1,317.5,627.1,317.7z"/>
	<path d="M619.4,311.6l-11.1,2.2c0.2,0.2,0.5,0.3,0.7,0.4l10.2-2.1C619.3,312,619.3,311.8,619.4,311.6z"/>
	<path d="M618.2,314.8c0.3-0.2,0.5-0.5,0.6-0.7l-7.3,1.5c0.4,0.1,0.7,0.3,1.1,0.4L618.2,314.8z"/>
	<path d="M640.5,302.7l-4.5,0.9c0.4,0.1,0.7,0.2,1.1,0.3c0,0,0,0,0.1,0l4.6-0.9C641.3,303,640.9,302.9,640.5,302.7z"/>
	<path d="M636,306l-29.9,6c0.2,0.2,0.3,0.3,0.5,0.5l30.8-6.2C637,306.2,636.5,306.1,636,306z"/>
	<path d="M641.4,305.5l1.3-0.3l0-0.6l-2.3,0.5C640.7,305.2,641.1,305.4,641.4,305.5z"/>
	<path d="M588.8,308.7c2.4,0.1,3.3-0.4,3.6-0.9l-4.3,0.9C588.3,308.7,588.6,308.7,588.8,308.7z"/>
	<path d="M633.9,285.5l8.8-1.8l0-0.6l-10.3,2.1C632.9,285.3,633.4,285.4,633.9,285.5z"/>
	<path d="M641.9,286.2c0.1,0,0.2,0,0.3,0.1l0.6-0.1l0-0.6l-2.2,0.4C640.9,286,641.4,286.1,641.9,286.2z"/>
	<path d="M627.7,277l-6.4,1.3c-0.2,0.1-0.4,0.2-0.5,0.4c-0.2,0.1-0.3,0.3-0.4,0.4l6.9-1.4C627.5,277.5,627.6,277.2,627.7,277z"/>
	<path d="M618.4,281.8l8.1-1.6c0-0.2,0.1-0.4,0.1-0.6l-7.4,1.5C619,281.3,618.8,281.6,618.4,281.8z"/>
	<path d="M631.7,271.5l-1.9,0.4c-0.2,0.2-0.4,0.4-0.5,0.7l1.9-0.4C631.4,272,631.6,271.7,631.7,271.5z"/>
	<path d="M608.4,279.2l0.5-0.1C609.1,278,608.7,278.8,608.4,279.2z"/>
	<path d="M628.2,275.2l0.9-0.2c0.2-0.2,0.3-0.5,0.5-0.7l-1.1,0.2C628.4,274.8,628.3,275,628.2,275.2z"/>
	<path d="M594.2,274.8c-0.7-0.4-1.5-0.7-2.3-0.9c-2.4-0.7-5-0.9-7.4-1.7c-1.7-0.5-2.3-1.2-2.9-2.9c-0.5-1.2-1.1-2.5-1.9-3.4
		c-0.6-0.7-1.2-1.1-2.1-1.4c-1.1-0.3-1.7-0.7-2.5-1.6c-1.6-1.7-2.8-3.7-4.6-5.2c-2.3-1.9-5.2-2.5-8-3.3c-3.3-0.9-6.7-2.2-10.1-1.3
		c-3.5,0.9-5.1,3.9-9.2,3c-1.4-0.3-2.1-1.4-3.9-1.5c-1.7-0.1-3.2,0.8-4.8,0.8c-1.5,0-2.8-0.8-4.3-0.7c-1.6,0.1-2.2,0.5-2.1,1.2
		c-0.1,0-0.3-0.1-0.4-0.1l-20.8,4.2c0.4,0.1,0.7,0.2,1,0.4l20.3-4.1c0.2,0.4,0.7,0.9,1.2,1.5l-19.2,3.9c0.3,0.1,0.6,0.3,0.8,0.4
		l18.9-3.8c0,0,0.1,0.1,0.1,0.1c0.5,0.5,1.1,0.9,1.7,1.3l-19.3,3.9c0.1,0.2,0.1,0.4,0.1,0.6l19.9-4c1,0.5,2,0.9,3.1,1.1l-26.3,5.3
		c0.1,0.2,0.2,0.4,0.3,0.5l27.5-5.6c0.2,0,0.3,0,0.5,0.1c3-0.4,6.1-0.8,9.1-1.5c1.4-0.3,3.1-0.3,4.9,0.1l-41.1,8.3
		c0.1,0.2,0.3,0.3,0.4,0.5l42-8.5c1.1,0.3,2.1,0.7,3.1,1.1l-37.7,7.6c0.6,0.1,1.1,0.2,1.6,0.3l36.9-7.4c0.7,0.4,1.4,0.8,2,1.2
		c0,0,0.1,0.1,0.1,0.1l-35.1,7.1c0.3,0.1,0.7,0.3,1,0.4l34.7-7c0.2,0.2,0.5,0.5,0.7,0.7c0.2,0.3,0.5,0.5,0.7,0.8l-5.2,1
		c0,0-0.1,0-0.1-0.1c-0.1-0.1-0.3-0.1-0.4-0.2c0.1,0.1,0.2,0.2,0.4,0.3l-28.3,5.7c0.2,0.2,0.3,0.3,0.4,0.5l8.8-1.8c0,0,0,0,0,0
		c0.5,0.6,1,0.9,1.6,0.9l-29.3,5.9c-7.7,0.7-22.9,2.8-16.2,9.2c3.1,2.9,9.2,3.1,12.5,3.4c5,0.4,10.6,1.9,15.1,1
		c1.1-0.2,2.1-0.5,3-0.8c0.9-0.3,1.8-0.6,2.7-0.9c3.8-1.7,7.9-1.1,11.9-0.7c1.4,0.1,2.7,0.2,4,0.3c4,0.3,8.1,0.9,12.2,2
		c7,2,15.1,6.1,21.5,5c1.4-0.2,2.3-1.1,3.1-2.1l8.5-1.7c0.1,0.1,0.2,0.2,0.2,0.3c0.2,0.4,0.4,0.8,0.5,1.2l-8.4,1.7
		c0.2,0.2,0.4,0.3,0.5,0.5l8.1-1.6c0.1,0.6,0.2,1.1,0.3,1.7l-7,1.4c0.1,0.2,0.3,0.3,0.4,0.5l6.7-1.4c0.2,0.7,0.4,1.5,0.9,2.1
		l-6.3,1.3c0.1,0.2,0.2,0.4,0.2,0.5l6.4-1.3c0.5,0.7,0.7,0.9,0.9,1.6l-6.9,1.4c0,0.2,0.1,0.4,0.1,0.6l7-1.4c0,0,0,0.1,0,0.1
		c0.1,0.6-0.1,1.1-0.2,1.6l-6.7,1.3c0,0.2,0,0.4,0.1,0.6l6.7-1.3c0,0.1,0.1,0.2,0.2,0.3c0.4,0.6,1.3,0.8,1.9,0.7
		c1.4-0.1,2.6-0.9,4-0.5l-12.2,2.5c0.1,0.2,0.2,0.4,0.4,0.5l7.2-1.4c0-0.1,0-0.1,0.2,0l5.4-1.1c0.9,0.4,1.7,0.7,2.6,1.1l-6.2,1.2
		c0.2,0.1,0.4,0.3,0.7,0.5l6.5-1.3c0.8,0.3,1.5,0.8,2.2,1.3l-6,1.2c1.1,0.1,2.4-0.1,3.7-0.2l2.9-0.6c0.6,0.5,1.2,0.9,1.8,1.3
		l-1.4,0.3c0.1,0.2,0.2,0.4,0.3,0.5l1.9-0.4c0.5,0.3,1.1,0.5,1.7,0.6c2.3,0.3,5-0.1,6.8-1.8c0.2-0.2,0.3-0.3,0.5-0.5l17.1-3.5
		c-0.2-0.2-0.3-0.3-0.3-0.5l-16.4,3.3c0.3-0.5,0.5-1.1,0.8-1.7c0-0.1,0.1-0.1,0.1-0.2l20.3-4.1c-0.4-0.1-0.7-0.3-1.1-0.4l-18.8,3.8
		c0.3-0.6,0.4-1.2,0.2-1.8l14.6-2.9c-0.1-0.2-0.1-0.4-0.2-0.6l-14.6,3c-0.1-0.1-0.2-0.3-0.3-0.4c-0.5-0.6-1-0.7-1.6-0.8l16.7-3.4
		c0.2-0.3,0.5-0.5,0.8-0.7l-20.1,4c-0.8-0.2-1.6-0.4-2.5-0.2c-1.2,0.2-2.1,0.6-3.3,0c-0.2-0.1-0.3-0.2-0.4-0.3l28.9-5.8
		c0.1-0.2,0.2-0.4,0.3-0.6l-29.9,6c-0.5-0.4-1-0.9-1.5-1.4l31.1-6.3c-0.1-0.2-0.2-0.3-0.3-0.5l-31.2,6.3c-0.4-0.5-0.9-1-1.3-1.5
		l31.1-6.3c-0.1-0.1-0.1-0.1-0.2-0.2c-0.1-0.1-0.2-0.2-0.4-0.3l-30.9,6.2c0,0,0,0,0,0c-0.5-0.7-1-1.3-1.3-2l28.8-5.8
		c-0.3-0.1-0.6-0.3-0.9-0.4l-28.2,5.7c-0.3-0.5-0.5-1.1-0.7-1.6l27-5.4c-0.2-0.2-0.2-0.4-0.2-0.5l-27,5.4c-0.2-0.4-0.3-0.8-0.5-1.2
		c-0.1-0.1-0.2-0.3-0.2-0.4l36.5-7.4c-1,0-2.1,0-3.1,0l-33.9,6.8c-0.7-0.6-1.6-0.8-2.3-1.3l31.1-6.3c-0.1-0.1-0.3-0.2-0.3-0.3
		c-0.1-0.1-0.1-0.1-0.2-0.2l-31.1,6.3c-0.1-0.1-0.2-0.3-0.3-0.5c-0.1-0.3-0.3-0.6-0.4-0.9l16-3.2c-0.4-0.1-0.7-0.2-1-0.4l-15.2,3.1
		c-0.1-0.5-0.2-1-0.1-1.5c0-0.1,0-0.1,0.1-0.2l14-2.8c-0.1-0.2-0.1-0.4-0.1-0.6l-13.7,2.8c0.3-0.6,0.8-1.2,0.9-1.9l12-2.4
		c-0.1-0.2-0.1-0.4,0-0.6l-11.9,2.4c0-0.5,0-1.2-0.1-1.8l13-2.6c0-0.1,0-0.1-0.1-0.2c-0.1-0.1-0.1-0.2-0.2-0.3l-12.7,2.6
		c0-0.4,0-0.7,0-1c0-0.2,0-0.4-0.1-0.6l8.7-1.7c-0.8,0-1.6-0.1-2.3-0.1l-6.5,1.3c-0.2-0.7-0.7-1.2-1.2-1.5l0.9-0.2
		C594.9,274.8,594.6,274.8,594.2,274.8z"/>
	<path d="M497,276.6l17.6-3.6c-0.3-0.1-0.6-0.3-0.9-0.4l-16.7,3.4C497.1,276.2,497,276.4,497,276.6z"/>
	<path d="M497.1,278.9l22-4.4c-0.4-0.1-0.9-0.2-1.4-0.3l-20.7,4.2C497,278.6,497,278.8,497.1,278.9z"/>
	<path d="M498.7,271.6l8.5-1.7c-0.4-0.1-0.8-0.2-1.2-0.3l-6.8,1.4C499,271.1,498.8,271.4,498.7,271.6z"/>
	<path d="M497.7,273.7c-0.1,0.2-0.1,0.4-0.2,0.5l13.7-2.8c-0.3-0.1-0.6-0.3-0.9-0.4L497.7,273.7
		C497.7,273.6,497.7,273.6,497.7,273.7z"/>
	<path d="M503.3,256.8l16.8-3.4c-0.3-0.1-0.6-0.3-1-0.4l-15.9,3.2C503.3,256.4,503.3,256.6,503.3,256.8z"/>
	<path d="M524.4,254.9c-0.4-0.1-0.7-0.2-1.1-0.4l-19.3,3.9c0.1,0.2,0.3,0.3,0.4,0.5L524.4,254.9z"/>
	<path d="M504.8,251.3c-0.1,0.2-0.3,0.4-0.4,0.7l8.6-1.7c-0.3-0.1-0.7-0.3-1-0.4L504.8,251.3z"/>
	<path d="M503.5,254.5l13.1-2.6c-0.3-0.1-0.6-0.3-0.9-0.4l-12,2.4C503.6,254.1,503.6,254.3,503.5,254.5z"/>
	<path d="M494.4,162.1l9.3-1.9c0.2-0.2,0.4-0.4,0.5-0.7l-11.1,2.2c0.2,0.1,0.4,0.1,0.6,0.2C493.9,162,494.2,162,494.4,162.1z"/>
	<path d="M513.2,153.2l-34.7,7c0.3,0.2,0.7,0.3,1,0.4l32.9-6.6C512.6,153.7,512.9,153.4,513.2,153.2z"/>
	<path d="M507.5,156.7l-18.7,3.8c0.4,0.1,0.8,0.2,1.2,0.4l16.1-3.3C506.6,157.2,507,156.9,507.5,156.7z"/>
	<path d="M473.2,157.2c-0.4-0.1-0.8-0.2-1.2-0.3l-4.3,0.9c0.3,0.2,0.6,0.3,1,0.4L473.2,157.2z"/>
	<path d="M515,148.7c0-0.2,0-0.4,0.1-0.6l-38.4,7.8c0,0.2,0,0.4,0,0.6L515,148.7C515,148.7,515,148.7,515,148.7z"/>
	<path d="M514.4,151.2c0.1-0.2,0.2-0.4,0.2-0.6l-39.6,8c0.3,0.1,0.6,0.2,1,0.4L514.4,151.2z"/>
	<path d="M514.5,144.2c-0.1-0.2-0.2-0.4-0.3-0.5l-41.5,8.4c0.2,0.2,0.4,0.3,0.6,0.5L514.5,144.2z"/>
	<path d="M515,145.8l-40,8.1c0.2,0.2,0.4,0.3,0.5,0.5l39.6-8C515.1,146.2,515,146,515,145.8z"/>
	<path d="M467.7,148.4c0.2,0.1,0.4,0.3,0.7,0.5l29.9-6c-0.3-0.1-0.6-0.3-0.8-0.4L467.7,148.4z"/>
	<path d="M512.4,142.3c-0.3-0.1-0.5-0.2-0.9-0.2c-0.2,0-0.4,0-0.7-0.1l-40.6,8.2c0.2,0.2,0.4,0.3,0.6,0.5L512.4,142.3z"/>
	<path d="M484.2,141.1c-0.4-0.1-0.8-0.2-1.2-0.3c0,0,0,0,0,0l-21.2,4.3c0.2,0.2,0.4,0.3,0.5,0.5L484.2,141.1z"/>
	<path d="M495.4,141.2c-0.3-0.1-0.7-0.2-1-0.3c-0.1,0-0.3,0-0.4,0l-29.8,6c0.3,0.2,0.6,0.3,0.8,0.4L495.4,141.2z"/>
	<path d="M469.9,139.3c-0.3-0.1-0.7-0.3-1-0.4l-10.5,2.1c0.1,0.2,0.2,0.3,0.4,0.5L469.9,139.3z"/>
	<path d="M474.1,140.8c-0.4-0.1-0.8-0.2-1.2-0.4l-13,2.6c0.2,0.2,0.3,0.3,0.5,0.5L474.1,140.8z"/>
	<path d="M456.9,137.7l5.2-1.1c-0.4-0.1-0.8-0.2-1.2-0.4l-4,0.8C457,137.3,456.9,137.5,456.9,137.7z"/>
	<path d="M466.6,138.1c-0.4-0.1-0.7-0.3-1.1-0.4l-8.1,1.6c0.1,0.2,0.2,0.4,0.3,0.5L466.6,138.1z"/>
	<path d="M501.5,372c0.4,0.1,0.9,0.2,1.3,0.3l2.8-0.6c-0.2-0.1-0.4-0.3-0.6-0.5L501.5,372z"/>
	<path d="M507,373.2c0.5,0.1,1,0.2,1.4,0.3l0.9-0.2c-0.3-0.2-0.6-0.3-0.9-0.4L507,373.2z"/>
	<path d="M502.5,367.1l-11,2.2c0.4,0.1,0.8,0.2,1.2,0.3l10-2C502.6,367.5,502.5,367.3,502.5,367.1z"/>
	<path d="M503.4,369.3l-7,1.4c0.4,0.1,0.8,0.2,1.3,0.3l6-1.2C503.6,369.6,503.5,369.5,503.4,369.3z"/>
	<path d="M481,357.6l-15.1,3c0.3,0.1,0.7,0.3,1,0.4l15-3C481.7,357.9,481.4,357.7,481,357.6z"/>
	<path d="M496.9,356.8l-5.2,1.1c-0.1,0-0.1,0.1-0.2,0.1c-1.7,0.9-3.4,1.3-5.3,1.2c-0.2,0-0.3,0-0.5-0.1l-15.8,3.2
		c0.3,0.1,0.7,0.3,1,0.4l26.4-5.3C497.2,357.1,497.1,356.9,496.9,356.8z"/>
	<path d="M475.8,354.4l-16.8,3.4c0.3,0.1,0.6,0.3,0.9,0.4l16.5-3.3C476.3,354.7,476,354.6,475.8,354.4z"/>
	<path d="M478.6,356.2l-15.7,3.2c0.3,0.1,0.6,0.3,1,0.4l15.5-3.1C479.1,356.5,478.8,356.4,478.6,356.2z"/>
	<path d="M470.6,350.8l-18.8,3.8c0.3,0.1,0.6,0.3,0.9,0.4l18.6-3.8C471.1,351.1,470.9,351,470.6,350.8z"/>
	<path d="M473.3,352.7l-17.9,3.6c0.3,0.1,0.6,0.3,0.9,0.4l17.6-3.5C473.7,353,473.5,352.8,473.3,352.7z"/>
	<path d="M462.2,350.4c-0.5,0.3-1.1,0.6-1.6,0.9l7.7-1.6c-0.4-0.1-0.8-0.3-1.2-0.3L462.2,350.4z"/>
	<path d="M581.7,222.7l-12.8,2.6c0.2,0.2,0.3,0.3,0.5,0.5l11.4-2.3C581,223.2,581.3,222.9,581.7,222.7z"/>
	<path d="M601.3,219.3c0-0.2,0.1-0.4,0.1-0.6l-2.1,0.4c0.1,0.2,0.1,0.4,0.2,0.5L601.3,219.3z"/>
	<path d="M572.5,227.3c0.2,0,0.4,0,0.7,0l5.6-1.1c0.2-0.2,0.3-0.4,0.5-0.7l-7.9,1.6c0.3,0.1,0.6,0.2,1,0.2
		C572.4,227.3,572.4,227.3,572.5,227.3z"/>
	<path d="M560.5,224.7c0.1,0,0.2,0.1,0.3,0.1c0.2,0,0.5-0.1,0.7-0.3L560.5,224.7z"/>
	<path d="M606.4,215.6c0.5-0.1,1.2,0,1.8,0l1.5-0.3c0.4-0.3,0.6-0.6,0.7-0.7l-43.7,8.8c0.3,0.1,0.5,0.2,0.7,0.4c0,0,0,0,0.1,0
		l22.7-4.6c0.3-0.2,0.7-0.3,1.1-0.4c0.3,0,0.5,0,0.8,0l3.4-0.7c0.3-0.3,0.6-0.5,1-0.5c0.1,0,0.4,0.1,0.8,0.2l7.8-1.6
		C605.5,216,605.9,215.8,606.4,215.6z"/>
	<path d="M553.2,219.8l25.1-5.1c-0.4-0.1-0.8-0.2-1.2-0.4l-22.4,4.5C554.3,219.3,553.7,219.6,553.2,219.8z"/>
	<path d="M512.7,228l36.8-7.4c-0.7,0-1.4-0.1-2.1-0.2l-33.8,6.8C513.3,227.5,513,227.8,512.7,228z"/>
	<path d="M581.3,215.9l-71.6,14.4c-0.4,0.3-0.8,0.6-1.2,0.8l73.8-14.9C582,216.2,581.7,216.1,581.3,215.9z"/>
	<path d="M521.7,221c-0.5,0.3-0.9,0.6-1.4,0.9l17.8-3.6c-0.5-0.1-1.1-0.2-1.6-0.3L521.7,221z"/>
	<path d="M557.5,216.1c-0.2,0.2-0.4,0.5-0.6,0.7l16.1-3.3c-0.6-0.1-1.2-0.2-1.8-0.2L557.5,216.1z"/>
	<path d="M516.2,225l27.2-5.5c-0.4-0.1-0.8-0.2-1.2-0.3l-25,5C516.8,224.5,516.5,224.8,516.2,225z"/>
	<path d="M577.1,342.9c0.4,0.1,0.8,0.2,1.1,0.4l7.9-1.6c-0.2-0.2-0.4-0.3-0.6-0.5L577.1,342.9z"/>
	<path d="M584.9,343.7l-1.8,0.4C583.7,344,584.4,343.9,584.9,343.7z"/>
	<path d="M575,338.6l-7.4,1.5c0.4,0.1,0.9,0.2,1.3,0.3l7.7-1.6C576.1,338.8,575.5,338.7,575,338.6z"/>
	<path d="M577,320.2l-5.2,1c0.4,0.1,0.8,0.2,1.2,0.3l4.2-0.8C577.2,320.5,577.1,320.4,577,320.2z"/>
	<path d="M576.3,322.7c0.3,0,0.5,0,0.7-0.1L576.3,322.7z"/>
	<path d="M565,320.5c0.6,0,1.1,0,1.7,0.1l8.7-1.8c-0.1,0-0.1-0.1-0.2-0.1c-0.3-0.1-0.5-0.2-0.8-0.3l-10.3,2.1
		C564.5,320.5,564.8,320.5,565,320.5z"/>
	<path d="M534.7,320c-0.2-0.2-0.3-0.3-0.5-0.5L517,323c0.3,0.1,0.6,0.3,0.9,0.4L534.7,320z"/>
	<path d="M538.4,321.6c-0.5-0.1-0.9-0.2-1.4-0.3l-17.1,3.4c0.2,0.2,0.4,0.3,0.6,0.5L538.4,321.6z"/>
	<path d="M510.7,320.3l23.4-4.7c0.4-0.3,0.8-0.6,1.2-0.8l-25.7,5.2c0.2,0.1,0.4,0.1,0.5,0.2C510.3,320.2,510.5,320.3,510.7,320.3z"
		/>
	<path d="M573.3,307.1l-1.4,0.3c-0.5,0.2-1,0.5-1.4,0.9l3.1-0.6C573.6,307.3,573.5,307.2,573.3,307.1z"/>
	<path d="M533.3,318.1c-0.1-0.2-0.1-0.4-0.1-0.6l-19.5,3.9c0.3,0.1,0.6,0.3,0.9,0.4L533.3,318.1z"/>
	<path d="M562.9,311.7c-0.8,0.1-1.9,0.3-2.9,0.4l-1.9,0.4c-1.1,0.3-2.2,0.6-3,1.2l16.9-3.4c0.3-0.2,0.6-0.5,0.9-0.8l-5.6,1.1
		C565.8,311.3,564.4,311.4,562.9,311.7z"/>
	<path d="M493,319.2l43.6-8.8c-0.1-0.2-0.2-0.4-0.3-0.5l-44.2,8.9c0.1,0.1,0.3,0.1,0.4,0.2C492.7,319.1,492.8,319.2,493,319.2z"/>
	<path d="M500.5,319.8c1.1-0.2,2.2-0.4,3.4-0.4l33.2-6.7c0-0.2,0.1-0.4,0-0.6l-40.4,8.2c0.6,0,1.2-0.1,1.8-0.2
		C499.1,320,499.8,319.9,500.5,319.8z"/>
	<path d="M482.4,316.1l33.8-6.8c-0.4-0.1-0.7-0.2-1-0.4l-35.2,7.1C480.7,316.2,481.6,316,482.4,316.1z"/>
	<path d="M533.6,307.5l-5.5,1.1c-0.3,0.2-0.5,0.3-0.8,0.5c-0.2,0.1-0.4,0.3-0.6,0.4l7.8-1.6c-0.1-0.1-0.3-0.1-0.4-0.2
		C533.9,307.7,533.8,307.6,533.6,307.5z"/>
	<path d="M487.3,317.5l33.3-6.7c-0.1,0-0.1,0-0.2,0c-0.3-0.1-0.6-0.2-1-0.3l-33.7,6.8c0.1,0,0.3,0.1,0.4,0.1
		C486.5,317.4,486.9,317.5,487.3,317.5z"/>
	<path d="M509.1,306.1c-0.3-0.1-0.6-0.3-0.9-0.4l-41.8,8.4c0.4,0.1,0.9,0.2,1.3,0.3L509.1,306.1z"/>
	<path d="M477.4,314.8l35.1-7.1c-0.3-0.1-0.6-0.3-0.9-0.4l-35.7,7.2C476.4,314.5,476.9,314.6,477.4,314.8
		C477.4,314.8,477.4,314.8,477.4,314.8z"/>
	<path d="M501.7,302.8c-0.2-0.1-0.5-0.2-0.7-0.3l-52.6,10.6l0,0.6L502,303C501.9,302.9,501.8,302.9,501.7,302.8z"/>
	<path d="M505,304.1l-56.1,11.3c0.6,0.1,1.4,0,2.1-0.2c0.9-0.2,1.7-0.4,2.3-0.5c2.4-0.4,4.7-0.9,7-1.1l45.5-9.2
		c-0.1-0.1-0.3-0.1-0.4-0.2C505.3,304.3,505.1,304.2,505,304.1z"/>
	<path d="M475.4,303.7c-0.3-0.1-0.7-0.2-1-0.4l-20,4c0.1,0.2,0.2,0.4,0.3,0.5L475.4,303.7z"/>
	<path d="M489.5,302.6c-0.9,0.5-1.9,0.8-2.9,1.1l10.7-2.2c-0.5-0.1-1.1-0.2-1.7-0.3L489.5,302.6
		C489.5,302.6,489.5,302.6,489.5,302.6z"/>
	<path d="M479.6,304.6l-25,5c0,0,0,0.1,0,0.1c-0.1,0.2-0.1,0.4-0.2,0.5l28.2-5.7C481.6,304.7,480.6,304.7,479.6,304.6z"/>
	<path d="M466.7,300.2l-18.4,3.7l0,0.6l19.4-3.9C467.4,300.4,467.1,300.3,466.7,300.2z"/>
	<path d="M470.7,301.7l-18.7,3.8c0.3,0.1,0.5,0.3,0.8,0.4l18.9-3.8c-0.2-0.1-0.4-0.2-0.6-0.2C471,301.8,470.9,301.8,470.7,301.7z"/>
	<path d="M448.8,299.7C448.8,299.7,448.8,299.7,448.8,299.7l6.8-1.4c-0.2-0.1-0.5-0.3-0.7-0.4l-6.5,1.3l0,0.4
		C448.6,299.6,448.8,299.7,448.8,299.7z"/>
	<path d="M458.3,299.6l-10,2l0,0.6l11.4-2.3C459.3,299.8,458.8,299.7,458.3,299.6z"/>
	<path d="M450.5,294.3l-2.1,0.4l0,0.6l2.7-0.5C450.8,294.6,450.6,294.4,450.5,294.3z"/>
	<path d="M452.6,296.2l-4.2,0.9l0,0.6l4.8-1C453,296.5,452.8,296.4,452.6,296.2z"/>
	<path d="M448.3,292.4l0,0.6l0.7-0.1C448.8,292.7,448.6,292.6,448.3,292.4z"/>
	<path d="M615.7,358.2l26.9-5.4l0-0.6l-28,5.7C615,358,615.4,358.1,615.7,358.2z"/>
	<path d="M624.2,358.8l9.1-1.8c1-0.4,1.9-0.8,2.8-1.2l-15,3C622.2,358.9,623.2,358.9,624.2,358.8z"/>
	<path d="M608.9,354.9l33.8-6.8l0-0.6l-34.4,6.9C608.4,354.6,608.7,354.8,608.9,354.9z"/>
	<path d="M611.9,356.7l30.8-6.2l0-0.6l-31.6,6.4C611.3,356.4,611.6,356.5,611.9,356.7z"/>
	<path d="M606.8,353.2l35.9-7.2l0-0.6l-36.3,7.3C606.5,352.9,606.6,353,606.8,353.2z"/>
	<path d="M604.3,346.7l14.2-2.9c-0.3-0.1-0.6-0.3-0.9-0.4l-13.1,2.7C604.4,346.2,604.4,346.4,604.3,346.7z"/>
	<path d="M621.1,345l-16.9,3.4c0,0.1,0,0.3,0.1,0.4c0,0,0,0.1,0,0.1l17.6-3.6C621.7,345.3,621.4,345.2,621.1,345z"/>
	<path d="M612.2,342.2c-1.6,0-3.4,0.3-4.9,1L612.2,342.2z"/>
	<path d="M468.5,197.2l2.2-0.4c0.1-0.2,0.2-0.4,0.1-0.6l-4,0.8c0.2,0,0.4,0.1,0.6,0.1C467.7,197,468.1,197.1,468.5,197.2z"/>
	<path d="M494.7,187.2l9.9-2c1.2-0.7,2.7-1,4.1-0.8l9.4-1.9c0.2-0.2,0.3-0.4,0.5-0.7l-26.7,5.4c0.2,0,0.4,0,0.6,0
		C493.3,187.2,494,187.2,494.7,187.2z"/>
	<path d="M514.9,184.9l-3.1,0.6c0.3,0.1,0.6,0.2,0.9,0.2C513.5,185.7,514.2,185.3,514.9,184.9z"/>
	<path d="M463.2,195.3c0.3,0.1,0.5,0.3,0.8,0.4l6.2-1.3c-0.1-0.2-0.2-0.4-0.2-0.5L463.2,195.3z"/>
	<path d="M520.4,177.4c-0.2-0.2-0.4-0.3-0.8-0.4l-64.1,12.9c0.3,0.1,0.5,0.3,0.7,0.4L520.4,177.4z"/>
	<path d="M520.2,179.2l-45.1,9.1c1.2-0.1,2.4-0.1,3.4-0.3c1.2-0.2,2.5-0.4,3.8-0.5l37.5-7.6C519.9,179.6,520.1,179.4,520.2,179.2z"
		/>
	<path d="M490.3,178.6c-0.1-0.1-0.2-0.2-0.3-0.2l-4.2,0.8c0.1,0.2,0.3,0.3,0.5,0.5l4.3-0.9C490.4,178.8,490.4,178.7,490.3,178.6z"/>
	<path d="M503.5,175.9c-0.3,0.2-0.6,0.4-0.9,0.6l7.7-1.5c-0.1-0.2-0.4-0.3-0.7-0.4l-5.5,1.1C503.8,175.7,503.6,175.8,503.5,175.9z"
		/>
	<path d="M473.6,181.7l-25.3,5.1l0,0.6l27.6-5.6C475.1,181.8,474.3,181.8,473.6,181.7z"/>
	<path d="M492,180.3l-4.6,0.9c0,0.3-0.3,0.5-0.6,0.7l5.8-1.2C492.5,180.7,492.2,180.5,492,180.3z"/>
	<path d="M510.9,176.6l-12.8,2.6c-0.4,0.2-0.9,0.6-1.4,0.9l14.6-3C511.1,176.9,511,176.8,510.9,176.6z"/>
	<path d="M452.7,188.9l30.1-6.1c-0.5-0.1-1-0.2-1.4-0.3l-30,6.1C451.8,188.6,452.3,188.8,452.7,188.9z"/>
	<path d="M466,180.9l-17.8,3.6l0,0.6l19.6-3.9C467.2,181.1,466.6,181,466,180.9z"/>
	<path d="M449.3,177.7l-1,0.2l0,0.6l2.4-0.5C450.2,178,449.7,177.9,449.3,177.7z"/>
	<path d="M454.9,179l-6.6,1.3l0,0.6l8.1-1.6C455.9,179.2,455.4,179.1,454.9,179z"/>
	<path d="M618.6,101.3l-9,1.8c0.3,0.2,0.5,0.3,0.8,0.4l7.4-1.5C618.1,101.8,618.3,101.6,618.6,101.3z"/>
	<path d="M587.9,103.6c0.2-0.2,0.4-0.5,0.6-0.7l-9.5,1.9c0.6,0.1,1.1,0.2,1.7,0.2L587.9,103.6z"/>
	<path d="M591.8,97.6l-50.8,10.3c0.6,0.1,1.1,0.2,1.7,0.2l48.8-9.8C591.5,98,591.6,97.8,591.8,97.6z"/>
	<path d="M590.3,100.2l-16.7,3.4c0.4,0.1,0.9,0.2,1.3,0.3l15-3C590,100.7,590.1,100.4,590.3,100.2z"/>
	<path d="M567.1,105.5c0.3-0.3,0.5-0.5,0.8-0.8l-17.8,3.6c1.3-0.1,2.6-0.2,3.8-0.2L567.1,105.5z"/>
	<path d="M609,89.4l-45.4,9.2c0,0-0.1,0.1-0.1,0.1c-0.6,0.4-1.4,0.7-2.1,0.9l48-9.7C609.3,89.8,609.1,89.6,609,89.4z"/>
	<path d="M526.4,106.1c1-0.1,2.1-0.1,3.2,0l25.8-5.2c-0.8-0.1-1.7-0.1-2.5-0.1L526.4,106.1z"/>
	<path d="M516.9,108l-32.5,6.6c0.3,0,0.6,0.1,1,0.1c0.4,0,0.7,0,1.1,0.1l26.9-5.4C514.5,108.9,515.7,108.4,516.9,108z"/>
	<path d="M615.4,88.7l2.9-0.6c-0.1-0.2-0.2-0.4-0.3-0.5l-2.3,0.5C615.5,88.3,615.5,88.5,615.4,88.7z"/>
	<path d="M611,91.4l-12,2.4c0.3,0.1,0.5,0.3,0.8,0.4l12.2-2.5C611.6,91.7,611.3,91.6,611,91.4z"/>
	<path d="M593.7,94.9l-58.8,11.9c0.5,0.1,1,0.2,1.5,0.3l56.6-11.4C593.2,95.3,593.5,95.1,593.7,94.9z"/>
	<path d="M504,113l-6.6,1.3c1.9-0.2,3.9-0.5,5.7-1C503.4,113.2,503.7,113.1,504,113z"/>
	<path d="M613.4,91.5l6-1.2c-0.1-0.2-0.2-0.4-0.3-0.5l-4.9,1C614,91,613.7,91.3,613.4,91.5z"/>
	<path d="M606.7,85.8c-0.1-0.2-0.3-0.4-0.4-0.5l-31,6.2c0,0.2,0,0.4,0,0.6L606.7,85.8z"/>
	<path d="M528.2,101.7c-1.5,0.2-3,0.3-4.5,0.3l-44.5,9c0.1,0.2,0.3,0.3,0.4,0.5L528.2,101.7z"/>
	<path d="M607.7,87.4l-33.4,6.7c-0.1,0.1-0.2,0.1-0.3,0.2c-0.6,0.3-1.2,0.3-1.8,0.2l-6.3,1.3c-0.2,0.2-0.4,0.5-0.5,0.7l42.6-8.6
		C608,87.7,607.9,87.5,607.7,87.4z"/>
	<path d="M616.3,85.6c-0.1,0.2-0.1,0.4-0.2,0.6l0.8-0.2c-0.1-0.2-0.2-0.4-0.3-0.5L616.3,85.6z"/>
	<path d="M467.9,108.7l-4.1,0.8c-0.1,0.2-0.1,0.4-0.2,0.6l2.5-0.5C466.6,109.3,467.2,109,467.9,108.7z"/>
	<path d="M598.8,82.9c-0.4-0.1-0.8-0.2-1.3-0.3l-23,4.6c0,0.2,0,0.4,0.1,0.6L598.8,82.9z"/>
	<path d="M575,89.5c0,0.2,0.1,0.4,0.1,0.6l29.7-6c-0.3-0.2-0.6-0.3-0.8-0.4L575,89.5z"/>
	<path d="M477.5,109.1c0.2,0.1,0.4,0.3,0.5,0.5l39.3-7.9c-0.7-0.1-1.4-0.1-2.1-0.2L477.5,109.1z"/>
	<path d="M465.1,105.2l9.9-2c-0.2-0.1-0.4-0.3-0.6-0.5l-9.1,1.8C465.2,104.8,465.2,105,465.1,105.2z"/>
	<path d="M593.2,81.1L575,84.8c-0.1,0.2-0.2,0.4-0.3,0.6l19.6-4C593.9,81.4,593.6,81.2,593.2,81.1z"/>
	<path d="M492.1,95.5c-0.3-0.1-0.7-0.3-1-0.4l-7.3,1.5c0.2,0.1,0.5,0.2,0.8,0.4c0,0,0.1,0,0.1,0L492.1,95.5z"/>
	<path d="M467,100c-0.1,0.2-0.2,0.4-0.3,0.6l5.2-1c-0.3-0.2-0.6-0.3-1-0.4L467,100z"/>
	<path d="M465.8,103.2l7.7-1.6c-0.1-0.2-0.2-0.3-0.4-0.5l-7.1,1.4C466,102.8,465.9,103,465.8,103.2z"/>
	<path d="M632.1,199.3l10.7-2.2l0-0.6l-11.8,2.4C631.3,199.1,631.7,199.2,632.1,199.3z"/>
	<path d="M641.3,199.8l1.5-0.3l0-0.6l-5.8,1.2C638.4,200.1,639.9,200,641.3,199.8z"/>
	<path d="M625.5,195.9l17.3-3.5l0-0.6l-17.9,3.6C625.1,195.6,625.3,195.8,625.5,195.9z"/>
	<path d="M628.4,197.7l14.5-2.9l0-0.6l-15.2,3.1C627.8,197.5,628.1,197.6,628.4,197.7z"/>
	<path d="M621.7,192.1l21.1-4.3l0-0.6l-21.4,4.3C621.5,191.7,621.6,191.9,621.7,192.1z"/>
	<path d="M623.4,194.1l19.4-3.9l0-0.6l-19.9,4C623.1,193.8,623.2,193.9,623.4,194.1z"/>
	<path d="M618.8,188.1l24-4.8l0-0.6l-24.5,4.9C618.5,187.8,618.7,187.9,618.8,188.1z"/>
	<path d="M620.4,190.2l22.4-4.5l0-0.6l-22.8,4.6C620.2,189.8,620.3,190,620.4,190.2z"/>
	<path d="M631.1,180.4l-32.7,6.6c0.3,0.1,0.7,0.3,1,0.4l32.7-6.6C631.8,180.7,631.4,180.5,631.1,180.4z"/>
	<path d="M638.4,181.3l-22.6,4.5c0.3,0.1,0.5,0.3,0.8,0.4l26.2-5.3l0-0.6l-0.5,0.1C641.3,180.8,639.9,181.1,638.4,181.3z"/>
	<path d="M628.3,177.3c-0.1-0.2-0.1-0.4-0.1-0.6l-35.1,7.1c0.2,0.2,0.4,0.3,0.6,0.5L628.3,177.3z"/>
	<path d="M629.7,179.4c-0.2-0.2-0.3-0.3-0.5-0.5l-33.4,6.7c0.3,0.2,0.5,0.3,0.8,0.4L629.7,179.4z"/>
	<path d="M627.5,168.3c-2,0.1-4.3,0.7-6.6,1.3L627.5,168.3z"/>
	<path d="M642.8,160.3l0-0.3l-0.5,0.1C642.5,160.1,642.7,160.2,642.8,160.3z"/>
	<path d="M642.3,155.4l-13.7,2.8c0.8,0,1.4,0.1,2,0.1c0.2,0,0.5,0,0.7,0l11.4-2.3C642.6,155.8,642.4,155.6,642.3,155.4z"/>
	<path d="M611.7,161.6l-43.8,8.8c0.5,0.1,1,0.2,1.5,0.3l42-8.5C611.5,162,611.6,161.8,611.7,161.6z"/>
	<path d="M548.4,174.6c1.6-0.3,3-0.7,4.5-1.2l-9,1.8C545.2,175.4,547.2,174.8,548.4,174.6z"/>
	<path d="M639,159l3.8-0.8l0-0.6l-5.3,1.1C638,158.8,638.5,158.9,639,159z"/>
	<path d="M611,164.7c0-0.2,0-0.4,0-0.6l-38.2,7.7c0.3,0.1,0.7,0.2,1,0.4L611,164.7z"/>
	<path d="M534.4,173.1l6.3-1.3c-0.3-0.1-0.6-0.3-0.9-0.4l-5.9,1.2c0,0,0,0,0,0C533.9,172.9,534.1,173,534.4,173.1z"/>
	<path d="M583.6,163.2c-0.4,0-0.9-0.1-1.3-0.3l-29.7,6c-0.1,0.2-0.2,0.4-0.4,0.7L583.6,163.2z"/>
	<path d="M547.8,165.3c0.4,0.1,0.8,0.2,1.2,0.4l29-5.9c-0.2-0.2-0.4-0.3-0.7-0.5L547.8,165.3z"/>
	<path d="M551.6,166.9c0.2,0.2,0.4,0.3,0.6,0.5l28.2-5.7c-0.2-0.2-0.4-0.3-0.6-0.5L551.6,166.9z"/>
	<path d="M528.6,165.1l41.1-8.3c-0.4-0.1-0.7-0.2-1.1-0.4l-40.3,8.1C528.4,164.8,528.5,164.9,528.6,165.1z"/>
	<path d="M541.1,164.4c0.7,0,1.5,0,2.4,0.1l30.8-6.2c-0.4-0.1-0.8-0.2-1.2-0.4L541.1,164.4z"/>
	<path d="M537.2,165.7c0.5-0.3,1.1-0.7,1.7-0.9l-8.1,1.6c0.5,0.1,1,0.2,1.5,0.3L537.2,165.7z"/>
	<path d="M529.8,159.6l3.6-0.7C532,158.7,530.7,158.7,529.8,159.6z"/>
	<path d="M562.1,154.8l-8.5,1.7c0.1,0.2,0.3,0.4,0.3,0.5l9.6-1.9C563,155.1,562.6,155,562.1,154.8z"/>
	<path d="M528.4,162c0,0.1,0,0.1-0.1,0.2l12.3-2.5c-0.7-0.1-1.4-0.1-2-0.2l-10,2C528.5,161.7,528.5,161.9,528.4,162z"/>
	<path d="M168.2,232.5l-4.4,0.9c-2,0-4.3-0.3-6.8-0.1c-1.7,0.1-4.3,1.1-6.3,2.7l-20.7,4.2c-0.4,0.3-0.8,0.5-1.2,0.8l21.1-4.3
		c-0.6,0.6-1.1,1.3-1.4,2l-21,4.2c0,0.2,0,0.4,0.1,0.6l20.8-4.2c-0.1,0.5-0.2,1-0.1,1.6l-20.1,4.1c0.1,0.2,0.3,0.4,0.4,0.5l19.8-4
		c0.1,0.5,0.3,1,0.6,1.5c0,0,0.1,0.1,0.1,0.1l-5.9,1.2c0.9-0.1,1.7-0.1,2.5,0.1l3.8-0.8c0.4,0.5,1,1,1.6,1.4l-3.4,0.7
		c0.1,0.2,0.2,0.3,0.3,0.5l3.8-0.8c1,0.5,2.1,0.9,3.3,1.1l-6.6,1.3c0,0.2,0,0.4,0.1,0.6l8.2-1.6c2.4,0.3,4.8,0.1,6.1-0.1
		c2.7-0.5,5-1.5,7.3-2.6l12.8-2.6c-0.3-0.1-0.6-0.3-0.9-0.4l-9.5,1.9c2-0.9,4.2-1.6,6.7-1.8c0.9-0.1,1.8-0.1,2.8-0.1
		c-1.3-0.1-2.7-0.4-4.2-0.9l1.8-0.4c-0.3-0.1-0.5-0.3-0.8-0.4l-2.1,0.4c-0.9-0.3-1.8-0.7-2.7-1.2l2.4-0.5c-0.3-0.1-0.6-0.3-0.8-0.4
		l-2.4,0.5c-0.8-0.4-1.5-0.8-2.2-1.3l2.3-0.5c-0.2-0.1-0.4-0.3-0.7-0.5l-2.3,0.5c-0.6-0.4-1.1-0.8-1.6-1.2l2.5-0.5
		c-0.2-0.2-0.4-0.3-0.5-0.5l-2.5,0.5c-0.6-0.5-1.2-1-1.7-1.4l2.6-0.5C168.6,232.8,168.4,232.6,168.2,232.5z"/>
	<path d="M171.7,227.7c1.3,0,2.7,0,4-0.3c6.3-1,12.2,2,18.3,3.1c0.2-0.6,0.3-1.2,0.5-1.9c1.7-5.6,5.1-3.9,7.7-0.1
		c0.5,0.8,1,1.4,1.5,2l12.1-0.5c2.8,2.9,3.6,4.7,3.2,5.8c0.3,0,0.6,0,0.9,0c4.6-0.2,7.4-4.9,10-8.3c3.3-4.3,6.7-4.2,11.3-4.2
		c4.2,0,5.5-3.4,7.9-5.8c-2.2-0.5-4.5-0.9-6.6-1.6c-0.5-0.1-0.9-0.3-1.4-0.5c-0.5-0.2-0.9-0.4-1.4-0.6c-0.6-0.2-1.2-0.2-1.8-0.4
		c-0.8-0.2-1.3-0.6-2.2-0.3c-0.5,0.1-1.1,0.5-1.6,0.4c-0.6-0.1-0.9-0.7-1.6-0.9c-1-0.2-3.6,1.4-4.3,0.2c-0.4-0.8,0.3-1.4,1.1-1.8
		c-3-0.5-6-0.5-7.6,0.9c-4.5,3.6-5.5,16.7-15.7,5.9c-3.2-3.4-5.4-6.2-9-6c-0.3,0.4-0.7,0.8-1,1.2c-0.8,0.9-1.6,1.8-2.5,2.6
		c-0.7,0.6-2.2,2.1-3.2,1.2c-0.1-0.1-0.2-0.2-0.3-0.3c-0.7,0.8-1.4,1.5-2.3,2c-1.9,1.1-4.2,0-6.7-0.2
		C175.1,219,173.5,223.5,171.7,227.7z"/>
	<path d="M246.8,212.9c0.1,0,0.1,0,0.2,0c1.4,0.2,2.9,0.3,4.3,0.2c-0.9-0.2-1.9-0.4-2.8-0.5C247.8,212.7,247.3,212.8,246.8,212.9z"
		/>
	<path d="M159.1,108.8l6.2-1.2c-0.2-0.1-0.4-0.3-0.7-0.5l-6.5,1.3c-0.8-0.3-1.5-0.8-2.2-1.3l6-1.2c-1.1-0.1-2.4,0.1-3.7,0.2
		l-2.9,0.6c-0.6-0.5-1.2-0.9-1.8-1.3l1.4-0.3c-0.1-0.2-0.2-0.4-0.3-0.5l-1.9,0.4c-0.5-0.3-1.1-0.5-1.7-0.6c-2.3-0.3-5,0.1-6.8,1.8
		c-0.2,0.2-0.3,0.3-0.5,0.5l-17.1,3.5c0.2,0.2,0.3,0.3,0.3,0.5l16.4-3.3c-0.3,0.5-0.5,1.1-0.8,1.7c0,0.1-0.1,0.1-0.1,0.2l-20.3,4.1
		c0.4,0.1,0.7,0.3,1.1,0.4l18.8-3.8c-0.3,0.6-0.4,1.2-0.2,1.8l-14.6,2.9c0.1,0.2,0.1,0.4,0.2,0.6l14.6-3c0.1,0.1,0.2,0.3,0.3,0.4
		c0.5,0.6,1,0.7,1.6,0.8l-16.7,3.4c-0.2,0.3-0.5,0.5-0.8,0.7l20.1-4c0.8,0.2,1.6,0.4,2.5,0.2c1.2-0.2,2.1-0.6,3.3,0
		c0.2,0.1,0.3,0.2,0.4,0.3l-28.9,5.8c-0.1,0.2-0.2,0.4-0.3,0.6l29.9-6c0.5,0.4,1,0.9,1.5,1.4l-31.1,6.3c0.1,0.2,0.2,0.3,0.3,0.5
		l31.2-6.3c0.4,0.5,0.9,1,1.3,1.5l-31.1,6.3c0.1,0.1,0.1,0.1,0.2,0.2c0.1,0.1,0.2,0.2,0.4,0.3l30.9-6.2c0,0,0,0,0,0
		c0.5,0.7,1,1.3,1.3,2l-28.8,5.8c0.3,0.1,0.6,0.3,0.9,0.4l28.2-5.7c0.3,0.5,0.5,1.1,0.7,1.6l-27,5.4c0.2,0.2,0.2,0.4,0.2,0.5l27-5.4
		c0.2,0.4,0.3,0.8,0.5,1.2c0.1,0.1,0.2,0.3,0.2,0.4l-36.5,7.4c1,0,2.1,0,3.1,0l33.9-6.8c0.7,0.6,1.6,0.8,2.3,1.3l-31.1,6.3
		c0.1,0.1,0.3,0.2,0.3,0.3c0.1,0.1,0.1,0.1,0.2,0.2l31.1-6.3c0.1,0.1,0.2,0.3,0.3,0.5c0.1,0.3,0.3,0.6,0.4,0.9l-16,3.2
		c0.4,0.1,0.7,0.2,1,0.4l15.2-3.1c0.1,0.5,0.2,1,0.1,1.5c0,0.1,0,0.1-0.1,0.2l-14,2.8c0.1,0.2,0.1,0.4,0.1,0.6l13.7-2.8
		c-0.3,0.6-0.8,1.2-0.9,1.9l-12,2.4c0.1,0.2,0.1,0.4,0,0.6l11.9-2.4c0,0.5,0,1.2,0.1,1.8l-13,2.6c0,0.1,0,0.1,0.1,0.2
		c0.1,0.1,0.1,0.2,0.2,0.3l12.7-2.6c0,0.4,0,0.7,0,1c0,0.2,0,0.4,0.1,0.6l-8.7,1.7c0.8,0,1.6,0.1,2.3,0.1l6.5-1.3
		c0.2,0.7,0.7,1.2,1.2,1.5l-0.9,0.2c0.4,0,0.7,0,1.1,0c0.7,0.4,1.5,0.7,2.3,0.9c2.4,0.7,5,0.9,7.4,1.7c1.7,0.5,2.3,1.2,2.9,2.9
		c0.5,1.2,1.1,2.5,1.9,3.4c0.6,0.7,1.2,1.1,2.1,1.4c1.1,0.3,1.7,0.7,2.5,1.6c1.6,1.7,2.8,3.7,4.6,5.2c2.3,1.9,5.2,2.5,8,3.3
		c3.3,0.9,6.7,2.2,10.1,1.3c3.5-0.9,5.1-3.9,9.2-3c1.4,0.3,2.1,1.4,3.9,1.5c1.7,0.1,3.2-0.8,4.8-0.8c1.5,0,2.8,0.8,4.3,0.7
		c1.6-0.1,2.2-0.5,2.1-1.2c0.1,0,0.3,0.1,0.4,0.1l20.8-4.2c-0.4-0.1-0.7-0.2-1-0.4l-20.3,4.1c-0.2-0.4-0.7-0.9-1.2-1.5l19.2-3.9
		c-0.3-0.1-0.6-0.3-0.8-0.4l-18.9,3.8c0,0-0.1-0.1-0.1-0.1c-0.5-0.5-1.1-0.9-1.7-1.3l19.3-3.9c-0.1-0.2-0.1-0.4-0.1-0.6l-19.9,4
		c-1-0.5-2-0.9-3.1-1.1l26.3-5.3c-0.1-0.2-0.2-0.4-0.3-0.5l-27.5,5.6c-0.2,0-0.3,0-0.5-0.1c-3,0.4-6.1,0.8-9.1,1.5
		c-1.4,0.3-3.1,0.3-4.9-0.1l41.1-8.3c-0.1-0.2-0.3-0.3-0.4-0.5l-42,8.5c-1.1-0.3-2.1-0.7-3.1-1.1l37.7-7.6c-0.6-0.1-1.1-0.2-1.6-0.3
		l-36.9,7.4c-0.7-0.4-1.4-0.8-2-1.2c0,0-0.1-0.1-0.1-0.1l35.1-7.1c-0.3-0.1-0.7-0.3-1-0.4l-34.7,7c-0.2-0.2-0.5-0.5-0.7-0.7
		c-0.2-0.3-0.5-0.5-0.7-0.8l5.2-1c0,0,0.1,0,0.1,0.1c0.1,0.1,0.3,0.1,0.4,0.2c-0.1-0.1-0.2-0.2-0.4-0.3l28.3-5.7
		c-0.2-0.2-0.3-0.3-0.4-0.5l-8.8,1.8c0,0,0,0,0,0c-0.5-0.6-1-0.9-1.6-0.9l29.3-5.9c7.7-0.7,22.9-2.8,16.2-9.2
		c-3.1-2.9-9.2-3.1-12.5-3.4c-5-0.4-10.6-1.9-15.1-1c-1.1,0.2-2.1,0.5-3,0.8c-0.9,0.3-1.8,0.6-2.7,0.8c-3.8,1.7-7.9,1.1-11.9,0.7
		c-1.4-0.1-2.7-0.2-4-0.3c-4-0.3-8.1-0.9-12.2-2c-7-2-15.1-6.1-21.5-5c-1.4,0.2-2.3,1.1-3.1,2.1l-8.5,1.7c-0.1-0.1-0.2-0.2-0.2-0.3
		c-0.2-0.4-0.4-0.8-0.5-1.2l8.4-1.7c-0.2-0.2-0.4-0.3-0.5-0.5l-8.1,1.6c-0.1-0.6-0.2-1.1-0.3-1.7l7-1.4c-0.1-0.2-0.3-0.3-0.4-0.5
		l-6.7,1.4c-0.2-0.7-0.4-1.5-0.9-2.1l6.3-1.3c-0.1-0.2-0.2-0.4-0.2-0.5l-6.4,1.3c-0.5-0.7-0.7-0.9-0.9-1.6l6.9-1.4
		c0-0.2-0.1-0.4-0.1-0.6l-7,1.4c0,0,0-0.1,0-0.1c-0.1-0.6,0.1-1.1,0.2-1.6l6.7-1.3c0-0.2,0-0.4-0.1-0.6l-6.7,1.3
		c0-0.1-0.1-0.2-0.2-0.3c-0.4-0.6-1.3-0.8-1.9-0.7c-1.4,0.1-2.6,0.9-4,0.5l12.2-2.5c-0.1-0.2-0.2-0.4-0.4-0.5l-7.2,1.4
		c0,0.1,0,0.1-0.2,0l-5.4,1.1C160.9,109.5,160,109.1,159.1,108.8z"/>
	<path d="M290.6,165.1c-1.6-0.4-2.9-2-4.5-2.6c-2.4-0.9-5.4-1.1-7.9-1.1c-7.6-0.2-11.4,5.7-18.6,6.1c-0.8,0-1.5,0.1-2.3,0.1
		c-6.6-0.9-15.1,2-14.4,10.5c0.1,0.9,0.3,1.8,0.7,2.6l-17.6,3.6c-0.7,0.3-1.4,0.6-2,1l19.9-4c0.2,0.3,0.4,0.5,0.6,0.7
		c0.3,0.3,0.7,0.5,1.1,0.7l-26.8,5.4c-1.8,0.7-3.6,1.2-5.6,1.4c-0.8,0.1-1.6,0.2-2.4,0.2l-51.9,10.5c0.1,0,0.2,0,0.4,0
		c0.4,0,0.8,0.1,1.2,0.2c0,0,0.1,0,0.1,0l4.7-1c2-1.1,4.8-1.6,7.4-1.5l73.9-14.9c0.7,0.1,1.3,0,1.8-0.4l7.3-1.5
		c0.5-0.2,1-0.4,1.5-0.5c0.7-0.2,1.6-0.5,2.5-0.9l-10.7,2.2c0.5-0.6,0.8-1.4,1.3-2l6.6-1.3c0.7,0.2,1.5,0.3,2.1,0.5
		c2.3,0.4,4.5,0.1,6.4-1.4c0.7-0.6,1.2-1.4,1.8-2.1c1-1,3-1.8,2.3,0.5c-0.3,0.9-2.1,2.4-0.5,2.9c1.5,0.5,3.2-0.6,4.7-0.6
		c2.2,0,0.6,1.6,1.8,2.3c0.5,0.3,1.3-0.5,1.7-0.8c0.2-0.1,0.9-0.9,1.1-0.4c0.1,0.2-0.5,0.7-0.6,0.9c-0.3,0.3-0.5,0.6-0.6,1.1
		c-0.2,0.9-0.1,1.9-0.3,2.8c-0.2,1.4-0.9,3.1-0.6,4.5c1.8,0,2.9-4.5,4.2-5.6c0.8-0.7,1.7-1.2,2.5-1.9c0.7-0.6,1.7-1,2.6-1.3
		c1.1-0.3,1.9-0.1,3,0.2c0.1,0,0.1,0,0.2,0.1c0.4-2.2,3.3-4.2,4.9-5.6c1.7-1.5,3.7-3.4,5.9-5.1l0-7.2
		C296.8,164,293.7,166,290.6,165.1z"/>
	<path d="M237.4,88.1c-0.1,0.1-0.2,0.2-0.3,0.3l0.4-0.1C237.5,88.3,237.5,88.2,237.4,88.1z"/>
	<path d="M246.3,83.6c0.6-0.2,1.2-0.3,1.8-0.4c2.4-0.8,5-0.5,6.8,1.4c3.8,3.4,7.8,5.7,12.1,7.5c0.5,0.2,0.9,0.5,1.4,0.7
		c3.7,1.7,6.9,2.2,9.9,2.2c-2.4-5.3-5.2-10-8.3-14c-0.2,0-0.4,0-0.5,0.1c-0.7,0.1-1.4,0.2-2,0.3c-5,0.7-9.9-0.4-14.3-3.3
		c-0.5-0.3-1-0.6-1.5-0.8c-1.5-0.7-3.5-1.8-5.2-2c-0.3,0-0.6,0-0.9,0c-1.1,2.5-2.5,5.1-4.1,7.6c-0.3,0.5-0.6,0.9-0.9,1.4
		c0.7,0.3,1.4,0.5,2.4,0.5C244,84.3,245.2,83.9,246.3,83.6z"/>
	<path d="M137,80.8c-1.3,0.7-2.6,1.2-4,1.6c-1,1.4-2,2.9-3,4.5c1.2,1.3,2.4,2.6,4.1,3.1c1.8,0.6,3.8,0.2,5.7-0.2
		c4.2-1,7.8-3.3,11.7-5c1.4-0.6,3.2-1.5,4.8-1.4c3.9,0.2,7.3,2.9,10.6,4.1c-1.1-1.4-2.2-2.8-3.2-4.3c-0.6-0.8-1.1-1.7-1.6-2.6
		c-1.5,0.7-3.1,1.3-4.8,1.7c-2.9,0.7-10.9,0.3-14.1-2c-0.6-0.4-1-0.8-1.2-1.3c-0.4,0.2-0.8,0.4-1.3,0.5
		C139.4,80.1,138.2,80.2,137,80.8z"/>
	<path d="M111,282.2c1.1-1,2.1-2.2,3.2-3.1c-2.3-0.1-4.4-1.1-6.5-2.1c-0.3,0-0.6,0.1-0.9,0.1c-0.7,0.1-1.1,0.3-1.6,0.5l0,3.4
		c1,0.3,2.1,0.4,2.7,0.6C108.9,281.9,110,282.1,111,282.2z"/>
	<path d="M141.8,274.9c0,0-0.1,0-0.1,0l-0.2,0c-1.5,0.3-2.9,0.2-4.4,0c-0.6,0-1.2-0.1-1.9-0.1c-5.7-0.2-9.9,0.3-13.4,1.6
		c-0.8,0.3-1.5,0.6-2.2,1c0.5,0.1,1,0.2,1.6,0.4c2.9,0.9,4.4,3.5,7.2,3c2.1-0.4,3.3-2.4,5-3.5c2.4,0.2,4.6,1.1,7.1,3.1
		c3.2,2.6,5,5,8.8,6.6c0.8,0.4,2,0.7,3,0.9c-1.5,0.3-3.5,0-5.1-0.3c0,0,0.1,0.1,0.1,0.1c0.4,0.2,0.8,0.5,1.2,0.7
		c2.1,1,4.6,1.4,6.8,1.1c1.8-0.2,5-1.3,2.8-3.5c-0.4-0.4-0.8-0.7-1.3-1c-1.1-0.7-2.2-1.1-3.4-1.3c0.4,0.7,0.7,1.4,0.7,2
		c-0.2-0.3-0.5-0.6-0.9-0.9c-1.5-0.5-4.6-0.7-5.7-1.8c-1.1-1-1.3-3.4-2.9-5c0.2,0.1,0.4,0.1,0.7,0.2
		C144.4,276.9,143.1,275.6,141.8,274.9z"/>
	<path d="M105.3,265.6C105.2,265.6,105.2,265.6,105.3,265.6l0,1c0.3-0.1,0.6-0.2,0.9-0.4C105.8,266.1,105.5,265.9,105.3,265.6z"/>
	<path d="M298.4,285.1c0-0.1-0.1-0.2-0.1-0.2c-1.2-0.7-3.2-0.7-4.8-0.6c-0.4,0-0.9,0-1.2,0c-1.9,0-3.6,0-5.5-0.4
		c-1.1-0.2-2.3-0.3-3.6-0.3c-2.6-0.1-5.6-0.2-8-2c-0.7-0.6-1.1-1.3-1.5-2.1c-0.4-0.7-0.8-1.4-1.4-1.9c-1.5-1.1-3.5-0.9-5.1-0.7
		c-0.5,0-1,0.1-1.4,0.1c-1.6,0-3.1-0.2-4.6-0.5c-1.2-0.2-2.3-0.4-3.4-0.5c-2.4-0.1-4.8,0.3-7.1,0.7c-1.6,0.3-3.2,0.5-4.8,0.6
		c-1,0.1-6.2,0.1-7.8-1.4c-0.4-0.3-0.5-0.7-0.5-1.1c0-1.4,0.2-2.6,0.6-3.5c-0.8,0-1.4-0.2-2-0.6c0-0.1,0-0.3,0-0.5l-0.5,0.1
		c-0.5-0.4-1-0.9-1.5-1.3c0,0-0.1-0.1-0.1-0.1l0.7-0.2c-0.1-0.2-0.2-0.4-0.3-0.5l-0.9,0.2c-0.4-0.4-0.8-1-1.2-1.5l0.4-0.1
		c-0.2-0.2-0.3-0.3-0.5-0.5l-0.3,0.1c-0.5-0.5-0.9-1.1-1.4-1.4l0,0c-0.2-0.1-0.3-0.3-0.5-0.4c0,0,0,0-0.1-0.1l-0.2,0
		c-0.3-0.1-0.6-0.2-0.9-0.1c-0.5,0.1-0.9,0.3-1.1,0.5l-10.2,2.1c-0.7-0.4-1.4-0.7-2.1-0.9c-0.4-0.1-0.9-0.2-1.3-0.2l14.6-2.9
		c-0.1-0.2-0.2-0.4-0.4-0.5l-16.5,3.3c-1.3-0.1-2.6-0.4-3.9-0.8l17.8-3.6c-1,0.1-2,0.4-3.1,0l-15.8,3.2c-0.9-0.3-1.7-0.7-2.5-1.3
		l16.1-3.3c-0.2-0.2-0.4-0.3-0.5-0.5l-16.1,3.3c-0.6-0.5-1.3-1-1.9-1.3l16.1-3.2c-0.2-0.1-0.5-0.2-0.7-0.2c-0.2,0-0.3-0.1-0.5-0.1
		l-7.6,1.5c-0.5,0.2-1,0.4-1.5,0.3l-6.7,1.3c-3-1.3-6.5-1.2-9.8-0.8c-3.1,0.3-5.9-0.5-8.4,2.3c-1.8,2-2,1.4-2-1.3c0.1-6-3.8-1.9-6,0
		c-3.2,2.7-6.7,1.7-10.1,0l2.2-0.4c0.2-0.2,0.4-0.5,0.6-0.7l-3.6,0.7c-0.8-0.4-1.6-0.8-2.3-1.2l7.6-1.5c0.1-0.2,0.3-0.4,0.5-0.7
		l-8.8,1.8c-0.1,0-0.1-0.1-0.2-0.1c-0.9-0.5-1.8-0.8-2.6-1.1l13-2.6c0.2-0.2,0.3-0.5,0.5-0.7l-14.7,3c-0.3-0.1-0.6-0.2-0.9-0.2
		c-1.3-0.3-2.6-0.4-3.9-0.4l21.1-4.3c0.4-0.3,0.7-0.6,1.1-0.8l-37.4,7.5c-0.2,0-0.3-0.1-0.5-0.1c-0.6-0.1-1.2-0.3-1.8-0.4
		c-0.8-0.1-1.5-0.2-2.3-0.3l81.5-16.4c0.2,0,0.4-0.1,0.6-0.1l6.2-1.3c-0.3-0.1-0.6-0.1-0.9-0.1c-0.4,0-0.7,0-1.1-0.1l-73,14.7
		c-1.9,1-4.6,1.4-7.3,1.5l-19.4,3.9c1.1,0.2,2.3-0.5,3.4-0.5c0.5,0,1,0,1.5,0.1l7.1-1.4c0.6,0.5,1.3,0.9,2,1.4l-4.4,0.9
		c0.4,0.1,0.9,0.2,1.3,0.3l3.8-0.8c0.7,0.4,1.3,0.8,2,1.2l-2.2,0.4c0.5,0.1,1.1,0.2,1.6,0.3l1.3-0.3c3.2,1.6,6.3,2.8,8.4,3
		c1.1,0.1,2.3,0,3.5-0.1c1.8-0.1,3.3,1.2,4.4,2.7c0.9,1.2,0.9,2.5,2.5,2.8c1.1,0.2,2.4,0.4,3.4,0.3c2.8-0.3,6-1.5,8.2,0.5
		c2,1.6,4.4,2.3,6.6,3.5c0.4,0.2,0.8,0.5,1.2,0.8c1,0.7,1.7,2.4,0.8,3.2c-0.4,0.5-0.9,0.9-1.4,1.3c-0.5,0.4-1.1,0.8-1.6,1.1
		c-0.8,0.5-1.6,0.9-2.2,1.7c-0.9,1.4-1.2,3.3-0.6,4.9c0.1,0.2,0.2,0.4,0.3,0.7c0.1-0.1,0.3-0.2,0.4-0.2c2.5-1.5,3-4.1,5.2-5.9
		c1-0.8,2-1.6,3.1-2.2c0-1.5-0.8-3,0.3-4.5c0.5-0.7,1.1-1.4,1.6-1.9c0.8-0.8,1.7-1.1,2.8-1.5c0.4-0.2,0.9-0.3,1.3-0.5
		c2.2-0.7,4.7-1.1,6.7-1.5c3.2-0.6,6.3-1.1,9.6-1c1,0,1.5,0.5,2.3,1.1c0.9,0.7,2.2,0.7,3,1.6c0.3,0.4,0.5,0.9,0.7,1.3
		c0.2,0.4,0.5,0.7,0.9,1.1c0.8,0.9,0.6,1.8-0.1,2.6c-0.4,0.4-0.7,0.9-1.2,1.2c-0.5,0.4-1.4,0.6-2,0.7c-0.6,0.2-1.2,0.3-1.8,0.4
		c-1.1,0.1-2.2,0.1-3.3,0.2c-0.8,0.1-1.9,0.2-2.9,0.5c0.5,0.2,1,0.5,1.6,1c1.3,1,1.8,2.6,3.7,3c2.6,0.6,3-2,5-2.5
		c2.1-0.5,7.6,2.9,9,4.7c0.7,0.9,0.8,1.7,0.5,2.4c0.7-0.1,1.3-0.5,2-1.4c1-1.2,0.7-2.9,1.7-4c0.9-1.2,2.2-0.9,3.3-1.9
		c2.2-2.1,3.2-4.9,5.7-4.4c0.5,0.1,1,0.3,1.7,0.7c3.4,4.6,7.3,7.8,13.1,7.3c0.6,0.1,1.2,0.1,1.8,0.2c1.8,0.2,3.6,0.4,5.4,0.7
		c1.7,0.3,4.7,0.3,5.9,1.7c0.5,0.6,0.5,1.6,0.9,2.2c0.5,0.6,1.3,0.8,1.6,1.1c0.9,1.1,1,2.8,2.3,3.6c1.1,0.8,2.4,0.3,3.6,0.7
		c1.8,0.7,2.7,2.6,4.2,3.6c2.2,1.4,1.6,0,3.3-0.9c1.6-0.9,4.5,0.4,6.4,0.6c1.9,0.2,4.2,3.7,6.4,2.2c1.2-0.8,0.5-2.6,2.4-2.9
		c2.9-0.5,5.6,0.8,8,2.4c0.5,0.4,1.2,0.9,1.8,1.5c-0.2,0.2-0.4,0.4-0.7,0.5l1-0.2c0.5,0.4,1,0.7,1.4,0.8l0-1.1l0-0.6l0-3.3
		c-1.2-0.5-1.9-2.5-1.5-3.7c0.3-0.8,0.8-1.2,1.5-1.5l0-7.4c-0.3-0.1-0.6-0.2-0.9-0.4C298.6,285.3,298.5,285.2,298.4,285.1z"/>
	<path d="M105.2,183.3c0.1,0,0.2,0,0.3,0c1,0.2,1.9,0.4,2.8,1c1.7,1.1,2.2,3.7,4,4.4c0.5,0.2,1.1,0.3,1.7,0.3c0.3-0.1,0.7-0.1,1-0.2
		c0.8,0,1.6-0.1,2.4-0.2c0.1,0,0.2,0,0.3,0c0.3,0,0.7,0,1.2,0c1-0.2,2-0.4,2.7-0.7c4.7-1.4,9.1-5.8,14.2-5.3
		c3.1,0.3,6.9,2.6,5.5,6.6c-0.6,1.8-1.9,2.5-3.6,2.8c-2.1,0.4-3.9,0.7-5.9,1.5c-0.1,0-0.2,0.1-0.3,0.1c-1.2,0.5-1.5,0.8-1.5,1.4
		c0,0,0,0.1,0,0.1c0,0,0,0,0,0c0,0.1,0,0.2,0,0.3c0.1,0.4,0.2,1,0.2,1.8c-1,0.4-1.9,1.6-2.9,1.8c-1.2,0.3-2.2-0.6-3.3,0.3
		c-1,0.8-1.3,2.2-0.1,2.8c1.3,0.7,4.1-1.1,5.4-1.5c1.5-0.5,3-0.6,4.4-1.2c2-0.9,3.7-2.6,5.6-3.7c0.9-0.6,1.9-0.9,2.7-1.6
		c0.8-0.7,1.2-2.1,2.5-2.2c2.7-0.2,3.5,3.9,4.5,4.1c0.5,0.1,1,0.1,1.4,0.1c0.5,0,0.9-0.1,1.4-0.2c0.7,0.1,1.5-0.2,2.1-0.7
		c1.2-0.9,2.4-1.3,3.7-1.5c0.4-0.1,0.8-0.1,1.3-0.1c1.3-0.1,2.4,0.2,3.8-0.2c1.2-0.4,2.4-1.1,3.5-1.8c1.1-0.8,2-1.7,3.1-2.5
		c0.9-0.6,1.6-1.7,2.6-2.2c0.5-0.3,1-0.4,1.5-0.7c0.8-0.6,1.2-1.4,1.6-2.2c0.4-0.8,1.5-1.8,1.4-2.7c-0.1-1.6-2.2-1.2-3.1-1.1
		c-1.1,0.2-2.2,0.3-3.3,0.4c-1,0.1-1.9,0.4-2.9,0.6c-6,0.9-18.4,0-22.6-5.2c-2.3-2.9-2.3-6.9-6.6-8.4c-0.5-0.2-1-0.3-1.4-0.3
		c-2-0.3-4.8,0.6-6.5,1.8c-1.3,0.9-3.3,1.2-4.8,1.2c-1.7-0.1-3.4-1.1-5.1-1.3c-0.6-0.1-1.4-0.2-2.1-0.2c-0.4,0.1-0.7,0.3-1.1,0.3
		c-0.9,0.1-1.5-0.5-1.8-1.4c-0.4-1.3-0.8-2.5-1.4-3.7c-0.3-0.6-0.7-1-1.1-1.5c-0.3-0.4-0.8-1.6-0.9-2.2c-0.2-1.2-0.4-0.6,0.4-1.7
		c0.8-1.2,2.7-2.5,4-3c1.8-0.7,3.4,0.1,5.1,0.3c1.9,0.2,3.4-0.5,5.3-0.5c1.4,0,3,0.9,4.3,1.5c2.7,1.3,5.7,3.1,8.7,3
		c1.8-0.1,3.4-0.9,4.8-2.2c2.4-2.5-0.4-5-2.3-6.5c-1.6-1.2-3.4-2.2-5.3-2.6c-3.3-0.8-6.7-0.1-9.8,1.1c-1.4,0.5-2.9,0.6-4.4,0.5
		c-1.9-0.2-2.8-1.7-4.5-2.1c-1.5-0.4-3-0.4-4.5-1c-1.4-0.5-2.8-1.3-4.2-1.6c-1.5,2.4-2.8,4-3.5,4.8c-0.1,0.1-0.2,0.2-0.4,0.4l0,32.2
		c0.1,0,0.2,0,0.2,0C105.4,183.1,105.3,183.2,105.2,183.3L105.2,183.3z"/>
	<path d="M260.6,312.5l25.3-5.1c-0.5-0.1-0.9-0.2-1.4-0.3l-25.4,5.1c-1.6-0.1-3,0.3-4.4,0.9l-7.1,1.4c0.1,0.2,0.4,0.3,0.9,0.4l4-0.8
		c-0.5,0.2-0.9,0.4-1.4,0.6c-0.7,0.3-1.5,0.6-2.3,0.8c-4.2,0.9-8.9-2.1-13.4-1.3c-2.8,0.5-4.8,2.5-7.8,2.6c-1.6,0-4.1-0.6-5.5-1.5
		c-0.7-0.4-1.3-1.2-1.9-1.7l58.5-11.8c-0.2-0.2-0.3-0.3-0.5-0.5l-58.7,11.8c-0.4-0.1-0.8-0.1-1.4,0c-0.3,0.1-0.5,0.2-0.7,0.4l-4.7,1
		c0.8,0.1,1.7,0.1,2.5,0.1l1.7-0.3c-0.5,1-0.3,2.5-1,3.5c-0.8,1.2-2.9,1.8-4.2,2.1c-2.7,0.8-10.6,0.4-10.9,4.7
		c-0.2,2.9,3.4,3.6,4.9,4.9c1.4,1.1,3.1,4,2.3,5.9c-0.8,1.8-2.7,1.8-4.1,2.7c-1.7,1.1-2,2.7-0.2,3.3c1.5,0.5,3,0,4.1-1.2
		c2.1-2.4,1.9-6.6,4.2-8.7c2.6-2.3,7.8-3,11.4-3.7c3.5-0.7,18.1-3.8,17.3,5.4c-0.3,3.5-6.3,3.1-8.7,3.7c-1.4,0.4-7,1.9-3.8,4.1
		c0.8,0.5,1.9,0.7,3,0.7c1.7,0,3.6-0.2,4.9,0c1.9,0.3,3.7,0.9,5.6,0.9c1.8,0,2.3,0.2,3.7,1.3c1.6,1.2,2.7,1.2,4.7,1.1
		c1.7-0.1,3,0.7,4.6,0.8c2.2,0.2,2.6-1.2,0.7-2.4c-1.5-1-4-0.4-4.7-2.3c-0.9-2.6,2.2-4.6,3.7-6.1c1.1-1.1,2.8-1.9,4.3-2
		c1.6-0.1,2.8,0.7,4,1.7c1.8,1.6,2.9,3.6,4.3,5.6c1.1,1.7,2.7,3.5,4.8,3.2c2.6-0.4,3.5-4,6.2-3.8c1.2,0.1,2.8,1.3,3.9,1.7
		c2.1,0.8,4.2,1.4,6.4,2.1c0.5,0.2,1,0.4,1.5,0.6c1.4,0.6,2.8,1.4,4.5,2.4c1.1,0.7,2.1,1.6,3.2,2.6c0.1,0,0.2,0.1,0.3,0.2
		c0.8,0.8,1.5,1.4,2.1,1.9l0-14c-0.3,0-0.5,0-0.8-0.1c-2.3-0.1-4.6,0.3-7,0.7c-4.1,0.7-8.4,1.4-12.8-0.3c-0.5-0.2-0.3-1.9-0.3-1.9
		c0.2-0.7,0.7-1.1,1.1-1.3c1.3-0.8,3-1.1,4.7-1.3c2.6-0.3,5.2-0.3,7.7-0.2c1.2,0,2.5,0,3.7,0c0.6,0,1.3-0.1,1.9-0.1
		c0.6,0,1.1-0.1,1.7-0.1l0-2c-1.8,0-3.6,0.1-5.2,0.7c-2.3,1-4.5,1.1-6.6,0.7l11.9-2.4l0-0.6l-13.2,2.7c-1-0.3-2-0.7-3-1.1l16.2-3.3
		l0-0.6l-17.2,3.5c-0.3-0.1-0.6-0.2-0.9-0.3c-0.8-0.3-1.7-0.5-2.5-0.8l20.7-4.2l0-0.6l-21.8,4.4c0.1,0,0.1,0.1,0.2,0.1
		c-0.7-0.2-1.5-0.9-2-1.3c0,0-0.1-0.1-0.1-0.1l23.6-4.8l0-0.6l-24.1,4.9c-0.3-0.3-0.6-0.7-0.8-1.1c-0.1-0.2-0.2-0.3-0.4-0.5
		l25.3-5.1l0-0.6l-25.7,5.2c-0.3-0.5-0.7-0.9-1-1.4l26.7-5.4l0-0.1c-0.4-0.1-0.8-0.2-1.3-0.3l-25.9,5.2c-0.2-0.2-0.3-0.4-0.5-0.7
		c-0.3-0.3-0.5-0.6-0.7-0.9l22.1-4.5c-1.3-0.1-2.5,0-3.8,0.2l-5.9,1.2c-1.4,0.4-2.7,0.7-4.1,0.8l-8.8,1.8c-0.9-0.9-1.4-0.7-3.3-1.5
		c-1-0.4-1.5-0.9-2-1.4l4.3-0.9c0,0-0.1-0.1-0.1-0.1c-0.1-0.1-0.1-0.3-0.2-0.4l-4.4,0.9c-0.2-0.3-0.5-0.7-0.7-1.1l5-1
		c0.1-0.2,0.2-0.4,0.3-0.6l-5.6,1.1c0,0,0,0,0,0c-0.1-0.2-0.3-0.4-0.4-0.6c-0.2-0.3-0.4-0.6-0.7-0.9l14.2-2.9
		c0.6-0.3,1.3-0.6,1.9-0.7c0.9-0.2,1.7-0.3,2.5-0.2l18.1-3.7l0-0.6l-37.2,7.5C261.9,313.3,261.3,312.8,260.6,312.5z"/>
	<path d="M231.7,359.3c-1.2-4.5-11.7-1.3-13.7-1.1c-3.2,0.2-9.4-2.9-12.3-1.5c-0.6,0.3-1.4,1.5-2,2.9c0.1,0.8,0.2,1.6,0,2.3
		c-0.2,1-0.7,1.9-1.5,2.6c9.2-0.2,19.1-0.8,28.9-1.8C231.8,361.9,232.1,360.9,231.7,359.3C231.7,359.4,231.7,359.4,231.7,359.3z"/>
	<path d="M186.3,364.2c0.9,0,1.7,0.1,2.6,0.1c-0.1-0.1-0.3-0.2-0.3-0.1C187.8,364.2,187.1,364.2,186.3,364.2z"/>
	<path d="M155.4,357.8c-2.1-1.1-1.6,1.1-3,1c-2.1-0.2-2.6-1.9-4.6-2.7c-2.4-1-7.6-2.9-10-3.1c-4.4-0.3-7.1,2.3-11.5,1.5
		c-1.7-0.3-3.3-0.9-4.9-1.4c-0.6-0.2-1.1-0.1-1.7-0.2c-0.8-0.1-1.5-0.6-2.3-0.8c-0.8-0.2-2.2-0.7-3-0.3c-1,0.5-0.3,1.1,0.2,1.5
		c1.7,1.4,4,2,6,2.7c11.2,2,27.1,4.7,43.7,6.5c-2-0.8-4-1.9-6-2.7C157.3,359.3,156.5,358.4,155.4,357.8z"/>
	<path d="M248.4,360.8c2-0.2,3.9-0.5,5.8-0.7c0.4-0.5,0.7-1.1,0.8-2c-0.9-0.5-1.8-0.8-2.5-0.8C250.4,357.1,249.2,358.7,248.4,360.8z
		"/>
	<path d="M124.9,97.2l6.8-1.4c-0.2-0.2-0.4-0.3-0.7-0.5l-5.9,1.2C125.1,96.8,125,97,124.9,97.2z"/>
	<path d="M124,99.6l8.3-1.7c0.1-0.2,0.2-0.4,0.2-0.6l-8.2,1.7C124.2,99.1,124.1,99.4,124,99.6z"/>
	<path d="M140.2,103.3l11.1-2.2c-0.2-0.2-0.5-0.3-0.7-0.4l-10.2,2.1C140.3,102.9,140.2,103.1,140.2,103.3z"/>
	<path d="M121.4,107.1l6.2-1.3c-0.1,0-0.3-0.1-0.4-0.1c-0.2-0.1-0.5-0.1-0.7-0.2l-4.9,1C121.5,106.7,121.5,106.9,121.4,107.1z"/>
	<path d="M141.3,100.1c-0.3,0.2-0.5,0.5-0.6,0.7l7.3-1.5c-0.4-0.1-0.7-0.3-1.1-0.4L141.3,100.1z"/>
	<path d="M122.4,104c-0.1,0.2-0.1,0.4-0.2,0.6l1.7-0.3c-0.2-0.1-0.4-0.3-0.6-0.5L122.4,104z"/>
	<path d="M119.9,112.1l3.7-0.7c-0.4-0.1-0.7-0.2-1.1-0.3c0,0,0,0-0.1,0l-2.3,0.5C120.1,111.6,120,111.9,119.9,112.1z"/>
	<path d="M123.5,109l29.9-6c-0.2-0.2-0.3-0.3-0.5-0.5l-30.8,6.2C122.6,108.8,123,108.9,123.5,109z"/>
	<path d="M170.7,106.3c-2.4-0.1-3.3,0.4-3.6,0.9l4.3-0.9C171.3,106.3,171,106.3,170.7,106.3z"/>
	<path d="M115.5,131.5c0.5,0.1,1,0.2,1.4,0.3l10.3-2.1c-0.5-0.1-1-0.2-1.5-0.3L115.5,131.5z"/>
	<path d="M117.7,128.8c-0.1,0-0.2,0-0.3-0.1L116,129c0,0.2-0.1,0.4-0.1,0.6l3.3-0.7C118.6,128.9,118.2,128.9,117.7,128.8z"/>
	<path d="M131.8,138l6.4-1.3c0.2-0.1,0.4-0.2,0.5-0.4c0.2-0.1,0.3-0.3,0.4-0.4l-6.9,1.4C132.1,137.5,132,137.7,131.8,138z"/>
	<path d="M141.2,133.1l-8.1,1.6c0,0.2-0.1,0.4-0.1,0.6l7.4-1.5C140.6,133.7,140.8,133.4,141.2,133.1z"/>
	<path d="M127.9,143.4l1.9-0.4c0.2-0.2,0.4-0.4,0.5-0.7l-1.9,0.4C128.2,143,128,143.2,127.9,143.4z"/>
	<path d="M151.2,135.8l-0.5,0.1C150.5,137,150.8,136.2,151.2,135.8z"/>
	<path d="M131.4,139.8l-0.9,0.2c-0.2,0.2-0.3,0.5-0.5,0.7l1.1-0.2C131.2,140.2,131.3,140,131.4,139.8z"/>
	<path d="M262.6,138.4l-17.6,3.6c0.3,0.1,0.6,0.3,0.9,0.4l16.7-3.4C262.5,138.8,262.5,138.6,262.6,138.4z"/>
	<path d="M262.5,136l-22,4.4c0.4,0.1,0.9,0.2,1.4,0.3l20.7-4.2C262.6,136.4,262.6,136.2,262.5,136z"/>
	<path d="M260.9,143.4l-8.5,1.7c0.4,0.1,0.8,0.2,1.2,0.3l6.8-1.4C260.6,143.8,260.8,143.6,260.9,143.4z"/>
	<path d="M261.9,141.3c0.1-0.2,0.1-0.4,0.2-0.5l-13.7,2.8c0.3,0.1,0.6,0.3,0.9,0.4L261.9,141.3C261.9,141.4,261.9,141.3,261.9,141.3
		z"/>
	<path d="M256.3,158.1l-16.8,3.4c0.3,0.1,0.6,0.3,1,0.4l15.9-3.2C256.3,158.5,256.3,158.3,256.3,158.1z"/>
	<path d="M235.2,160c0.4,0.1,0.7,0.2,1.1,0.4l19.3-3.9c-0.1-0.2-0.3-0.3-0.4-0.5L235.2,160z"/>
	<path d="M254.7,163.7c0.1-0.2,0.3-0.4,0.4-0.7l-8.6,1.7c0.3,0.1,0.7,0.3,1,0.4L254.7,163.7z"/>
	<path d="M256.1,160.5l-13.1,2.6c0.3,0.1,0.6,0.3,0.9,0.4l12-2.4C256,160.9,256,160.7,256.1,160.5z"/>
	<path d="M265.2,252.9l-9.3,1.9c-0.2,0.2-0.4,0.4-0.5,0.7l11.1-2.2c-0.2-0.1-0.4-0.1-0.6-0.2C265.6,253,265.4,252.9,265.2,252.9z"/>
	<path d="M246.4,261.8l34.7-7c-0.3-0.2-0.7-0.3-1-0.4l-32.9,6.6C247,261.3,246.7,261.5,246.4,261.8z"/>
	<path d="M252.1,258.3l18.7-3.8c-0.4-0.1-0.8-0.2-1.2-0.4l-16.1,3.3C253,257.7,252.6,258,252.1,258.3z"/>
	<path d="M286.4,257.8c0.4,0.1,0.8,0.2,1.2,0.3l4.3-0.9c-0.3-0.2-0.6-0.3-1-0.4L286.4,257.8z"/>
	<path d="M244.6,266.2c0,0.2,0,0.4-0.1,0.6l38.4-7.8c0-0.2,0-0.4,0-0.6L244.6,266.2C244.6,266.2,244.6,266.2,244.6,266.2z"/>
	<path d="M245,264.4l39.6-8c-0.3-0.1-0.6-0.2-1-0.4l-38.5,7.8C245.1,263.9,245.1,264.2,245,264.4z"/>
	<path d="M245.1,270.8c0.1,0.2,0.2,0.4,0.3,0.5l41.5-8.4c-0.2-0.2-0.4-0.3-0.6-0.5L245.1,270.8z"/>
	<path d="M244.5,268.5c0,0.2,0,0.4,0.1,0.6l40-8.1c-0.2-0.2-0.4-0.3-0.5-0.5L244.5,268.5z"/>
	<path d="M291.8,266.6c-0.2-0.1-0.4-0.3-0.7-0.5l-29.9,6c0.3,0.1,0.6,0.3,0.8,0.4L291.8,266.6z"/>
	<path d="M247.1,272.7c0.3,0.1,0.5,0.2,0.9,0.2c0.2,0,0.4,0,0.7,0.1l40.6-8.2c-0.2-0.2-0.4-0.3-0.6-0.5L247.1,272.7z"/>
	<path d="M275.3,273.9c0.4,0.1,0.8,0.2,1.2,0.3c0,0,0,0,0,0l21.2-4.3c-0.2-0.2-0.4-0.3-0.5-0.5L275.3,273.9z"/>
	<path d="M264.2,273.8c0.3,0.1,0.7,0.2,1,0.3c0.1,0,0.3,0,0.4,0l29.8-6c-0.3-0.2-0.6-0.3-0.8-0.4L264.2,273.8z"/>
	<path d="M290.8,276l8.9-1.8l0-0.6l-9.9,2C290.1,275.8,290.4,275.9,290.8,276z"/>
	<path d="M299.6,271.9c-0.2-0.2-0.3-0.3-0.5-0.5l-13.7,2.8c0.4,0.1,0.8,0.2,1.2,0.4L299.6,271.9z"/>
	<path d="M298.6,278.6l1-0.2l0-0.6l-2.2,0.4C297.8,278.4,298.2,278.5,298.6,278.6z"/>
	<path d="M294.1,277.2l5.6-1.1l0-0.6l-6.6,1.3C293.4,276.9,293.7,277.1,294.1,277.2z"/>
	<path d="M177.9,192.3l12.8-2.6c-0.2-0.2-0.3-0.3-0.5-0.5l-11.4,2.3C178.6,191.8,178.2,192,177.9,192.3z"/>
	<path d="M158.3,195.6c0,0.2-0.1,0.4-0.1,0.6l2.1-0.4c-0.1-0.2-0.1-0.4-0.2-0.5L158.3,195.6z"/>
	<path d="M187.1,187.6c-0.2,0-0.4,0-0.7,0l-5.6,1.1c-0.2,0.2-0.3,0.4-0.5,0.7l7.9-1.6c-0.3-0.1-0.6-0.2-1-0.2
		C187.2,187.6,187.1,187.6,187.1,187.6z"/>
	<path d="M199,190.3c-0.1,0-0.2-0.1-0.3-0.1c-0.2,0-0.5,0.1-0.7,0.3L199,190.3z"/>
	<path d="M192.2,191.1C192.2,191.1,192.2,191.1,192.2,191.1l-22.8,4.5c-0.3,0.2-0.7,0.3-1.1,0.4c-0.3,0-0.5,0-0.8,0l-3.4,0.7
		c-0.3,0.3-0.6,0.5-1,0.5c-0.1,0-0.4-0.1-0.8-0.2l-7.8,1.6c-0.4,0.3-0.8,0.5-1.3,0.7c-0.5,0.1-1.2,0-1.8,0l-1.5,0.3
		c-0.4,0.3-0.6,0.6-0.7,0.7l43.7-8.8C192.7,191.4,192.5,191.3,192.2,191.1z"/>
	<path d="M206.4,195.1l-25.1,5.1c0.4,0.1,0.8,0.2,1.2,0.4l22.4-4.5C205.3,195.7,205.8,195.4,206.4,195.1z"/>
	<path d="M246.9,186.9l-36.8,7.4c0.7,0,1.4,0.1,2.1,0.2l33.8-6.8C246.3,187.5,246.6,187.2,246.9,186.9z"/>
	<path d="M178.2,199l71.6-14.4c0.4-0.3,0.8-0.6,1.2-0.8l-73.8,14.9C177.6,198.8,177.9,198.9,178.2,199z"/>
	<path d="M237.9,194c0.5-0.3,0.9-0.6,1.4-0.9l-17.8,3.6c0.5,0.1,1.1,0.2,1.6,0.3L237.9,194z"/>
	<path d="M202.1,198.9c0.2-0.2,0.4-0.5,0.6-0.7l-16.1,3.3c0.6,0.1,1.2,0.2,1.8,0.2L202.1,198.9z"/>
	<path d="M243.4,189.9l-27.2,5.5c0.4,0.1,0.8,0.2,1.2,0.3l25-5C242.8,190.5,243.1,190.2,243.4,189.9z"/>
	<path d="M241.8,91.6l-10,2c-0.3,0.3-0.7,0.5-1,0.8l11.9-2.4C242.3,91.8,242.1,91.7,241.8,91.6z"/>
	<path d="M239,89.8l-3.8,0.8c-0.2,0.2-0.5,0.5-0.7,0.7l5.2-1C239.4,90.1,239.2,89.9,239,89.8z"/>
	<path d="M249.5,94.8c-0.2-0.1-0.4-0.1-0.6-0.2l-23.4,4.7c-0.4,0.3-0.8,0.6-1.2,0.8L250,95C249.9,95,249.7,94.9,249.5,94.8z"/>
	<path d="M186.2,107.9l1.4-0.3c0.5-0.2,1-0.5,1.4-0.9l-3.1,0.6C185.9,107.6,186,107.8,186.2,107.9z"/>
	<path d="M245.9,93.5c-0.3-0.1-0.6-0.3-0.9-0.4l-17.5,3.5c-0.4,0.2-0.8,0.4-1.2,0.7c0,0,0,0.1,0,0.1L245.9,93.5z"/>
	<path d="M196.7,103.3c0.5-0.1,1.1-0.2,1.7-0.3c-0.6,0-1.3-0.1-1.9-0.2l-8.9,1.8c-0.3,0.2-0.6,0.5-0.9,0.8l5.6-1.1
		C193.7,103.6,195.2,103.5,196.7,103.3z"/>
	<path d="M267.1,95.9c-0.2-0.1-0.3-0.1-0.5-0.2l-43.6,8.8c0.1,0.2,0.2,0.4,0.3,0.5l44.2-8.9C267.4,96.1,267.2,96,267.1,95.9z"/>
	<path d="M261.1,94.9c-0.7,0.1-1.4,0.2-2,0.3c-1.1,0.2-2.2,0.4-3.4,0.4l-33.2,6.7c0,0.2-0.1,0.4,0,0.6l40.4-8.2
		C262.3,94.7,261.7,94.8,261.1,94.9z"/>
	<path d="M279.7,99c-0.8-0.2-1.7,0-2.5-0.1l-33.8,6.8c0.4,0.1,0.7,0.2,1,0.4L279.7,99z"/>
	<path d="M226,107.4l5.5-1.1c0.3-0.2,0.5-0.3,0.8-0.5c0.2-0.1,0.4-0.3,0.6-0.4l-7.8,1.6c0.1,0.1,0.3,0.1,0.4,0.2
		C225.6,107.3,225.8,107.4,226,107.4z"/>
	<path d="M240.2,104.6l33.7-6.8c-0.1,0-0.3-0.1-0.4-0.1c-0.4-0.1-0.8-0.1-1.1-0.1l-33.3,6.7c0.1,0,0.1,0,0.2,0
		C239.6,104.3,239.9,104.4,240.2,104.6z"/>
	<path d="M281.7,103.2c-0.1-0.2-0.1-0.4-0.2-0.6l-31,6.2c0.3,0.1,0.6,0.3,0.9,0.4L281.7,103.2z"/>
	<path d="M280.9,101c-0.1-0.2-0.1-0.4-0.2-0.6l-33.6,6.8c0.3,0.1,0.6,0.3,0.9,0.4L280.9,101z"/>
	<path d="M282.9,106.9l-25.3,5.1c0.1,0,0.2,0.1,0.3,0.1c0.2,0.1,0.5,0.2,0.7,0.3l24.4-4.9C283,107.3,282.9,107.1,282.9,106.9z"/>
	<path d="M254.6,110.8l27.7-5.6c-0.1-0.2-0.1-0.4-0.2-0.6l-28.5,5.7c0.1,0.1,0.3,0.1,0.4,0.2C254.3,110.7,254.4,110.8,254.6,110.8z"
		/>
	<path d="M270,112.4C270,112.4,270.1,112.4,270,112.4c1-0.5,2-0.9,3-1.2l-10.7,2.2c0.5,0.1,1.1,0.2,1.7,0.3L270,112.4z"/>
	<path d="M280,110.4l3.7-0.7c-0.1-0.2-0.1-0.4-0.2-0.6l-6.5,1.3C278,110.3,279,110.3,280,110.4z"/>
	<path d="M155.3,68.3l-9.1,1.8c-0.5,0.3-0.9,0.6-1.4,0.9l10.3-2.1C155.2,68.7,155.2,68.5,155.3,68.3z"/>
	<path d="M155.3,66.1c0,0,0-0.1,0-0.1l-1.3,0.3c-0.9,0.4-1.8,0.7-2.6,1.1l4-0.8C155.3,66.4,155.3,66.2,155.3,66.1z"/>
	<path d="M147.4,72.8c1.6,0,3.4-0.3,4.9-1L147.4,72.8z"/>
	<path d="M291.1,217.8l-2.2,0.4c-0.1,0.2-0.2,0.4-0.1,0.6l4-0.8c-0.2,0-0.4-0.1-0.6-0.1C291.9,217.9,291.5,217.8,291.1,217.8z"/>
	<path d="M264.9,227.7l-9.9,2c-1.2,0.7-2.7,1-4.1,0.8l-9.4,1.9c-0.2,0.2-0.3,0.4-0.5,0.7l26.7-5.4c-0.2,0-0.4,0-0.6,0
		C266.3,227.7,265.6,227.7,264.9,227.7z"/>
	<path d="M299,220.9l-7.8,1.6c-0.7-0.5-1.4-1-1.9-1.7c-0.4-0.5-0.8-1.1-1.1-1.5c-1.6-2.2-2.6-3.6-5.6-4.5c-1-0.3-1.9-0.4-2.9-0.4
		c0,0,0,0-0.1,0c-0.4,0-0.8-0.1-1.1-0.1c-0.3-0.1-0.6-0.1-1-0.1c-1.2,0-2.6,1.3-3.6,2.3c1.1,2,1.1,4.5,3.9,6.5
		c1.5,1.1,3.9,0.8,5.6,1.4c2.2,0.8,3.4,1.9,5.8,2c1.8,0.1,2.8-0.6,3.9-1.2l6.6-1.3l0-0.6l-4.5,0.9c-0.2-0.1-0.5-0.1-0.7-0.2
		c-1-0.2-1.9-0.5-2.6-0.9l7.8-1.6l0,0c-0.1-0.1-0.3-0.2-0.4-0.3C299.2,220.9,299.1,220.9,299,220.9z"/>
	<path d="M244.7,230l3.1-0.6c-0.3-0.1-0.6-0.2-0.9-0.2C246.1,229.2,245.4,229.6,244.7,230z"/>
	<path d="M296.4,219.6c-0.3-0.1-0.5-0.3-0.8-0.4l-6.2,1.3c0.1,0.2,0.2,0.4,0.2,0.5L296.4,219.6z"/>
	<path d="M240,238l59.7-12l0-0.6l-60.5,12.2C239.4,237.8,239.6,237.9,240,238z"/>
	<path d="M239.4,235.8l45.1-9.1c-1.2,0.1-2.4,0.1-3.4,0.3c-1.2,0.2-2.5,0.4-3.8,0.5l-37.5,7.6C239.7,235.3,239.5,235.5,239.4,235.8z
		"/>
	<path d="M269.3,236.3c0.1,0.1,0.2,0.2,0.3,0.2l4.2-0.8c-0.1-0.2-0.3-0.3-0.5-0.5l-4.3,0.9C269.1,236.2,269.2,236.2,269.3,236.3z"/>
	<path d="M256.1,239.1c0.3-0.2,0.6-0.4,0.9-0.6l-7.7,1.5c0.1,0.2,0.4,0.3,0.7,0.4l5.5-1.1C255.8,239.3,255.9,239.2,256.1,239.1z"/>
	<path d="M286,233.2l13.6-2.8l0-0.6l-16,3.2C284.5,233.1,285.3,233.2,286,233.2z"/>
	<path d="M267.5,234.6l4.6-0.9c0-0.3,0.3-0.5,0.6-0.7l-5.8,1.2C267.1,234.3,267.3,234.4,267.5,234.6z"/>
	<path d="M248.7,238.4l12.8-2.6c0.4-0.2,0.9-0.6,1.4-0.9l-14.6,3C248.5,238,248.6,238.2,248.7,238.4z"/>
	<path d="M278.2,232.5l21.5-4.3l0-0.6l-22.9,4.6C277.2,232.2,277.7,232.3,278.2,232.5z"/>
	<path d="M299.7,235l0-0.5l-1.2,0.2C298.9,234.9,299.3,234.9,299.7,235z"/>
	<path d="M293.5,234l6.1-1.2l0-0.6l-7.9,1.6C292.3,233.9,292.9,233.9,293.5,234z"/>
	<path d="M141,313.6l9-1.8c-0.3-0.2-0.5-0.3-0.8-0.4l-7.4,1.5C141.5,313.1,141.2,313.4,141,313.6z"/>
	<path d="M171.7,311.4c-0.2,0.2-0.4,0.5-0.6,0.7l9.5-1.9c-0.6-0.1-1.1-0.2-1.7-0.2L171.7,311.4z"/>
	<path d="M167.8,317.4l50.8-10.3c-0.6-0.1-1.1-0.2-1.7-0.2l-48.8,9.8C168.1,317,168,317.2,167.8,317.4z"/>
	<path d="M169.3,314.7l16.7-3.4c-0.4-0.1-0.9-0.2-1.3-0.3l-15,3C169.6,314.3,169.4,314.5,169.3,314.7z"/>
	<path d="M192.5,309.5c-0.3,0.3-0.5,0.5-0.8,0.8l17.8-3.6c-1.3,0.1-2.6,0.2-3.8,0.2L192.5,309.5z"/>
	<path d="M150.6,325.5l45.4-9.2c0,0,0.1-0.1,0.1-0.1c0.6-0.4,1.4-0.7,2.1-0.9l-48,9.7C150.3,325.2,150.4,325.4,150.6,325.5z"/>
	<path d="M233.2,308.9c-1,0.1-2.1,0.1-3.2,0l-25.8,5.2c0.8,0.1,1.7,0.1,2.5,0.1L233.2,308.9z"/>
	<path d="M242.7,307l32.5-6.6c-0.3,0-0.6-0.1-1-0.1c-0.4,0-0.7,0-1.1-0.1l-26.9,5.4C245.1,306.1,243.9,306.6,242.7,307z"/>
	<path d="M148.6,323.6l12-2.4c-0.3-0.1-0.5-0.3-0.8-0.4l-12.2,2.5C148,323.3,148.3,323.4,148.6,323.6z"/>
	<path d="M165.9,320.1l58.8-11.9c-0.5-0.1-1-0.2-1.5-0.3l-56.6,11.4C166.3,319.6,166.1,319.9,165.9,320.1z"/>
	<path d="M255.6,302l6.6-1.3c-1.9,0.2-3.9,0.5-5.7,1C256.2,301.8,255.9,301.9,255.6,302z"/>
	<path d="M142.8,331.2l-11.1,2.2c0.3-0.3,0.5-0.8,0.7-1.6c0-0.1,0-0.2,0-0.3l10.8-2.2c0.1-0.2,0.1-0.4,0.2-0.6l-11,2.2
		c0-0.6-0.1-1.1-0.3-1.7l11.8-2.4c0.1-0.2,0.2-0.4,0.2-0.6l-12.2,2.5c-0.1-0.3-0.2-0.6-0.3-0.9c-0.1-0.2-0.2-0.5-0.3-0.7l13.9-2.8
		c0.2-0.3,0.5-0.6,0.8-0.8l-14.9,3c-0.2-0.6-0.4-1.1-0.5-1.6l13-2.6c1.2,0.5,2.4,0.8,3.6,0.7c0.9-0.1,3.7-1.1,4.8-2.4l5.9-1.2
		c-0.2-0.2-0.4-0.3-0.5-0.5l-4.9,1c0.1-0.4,0.1-0.8-0.3-1.1c-0.1-0.2-0.5-0.3-0.9-0.4l4.6-0.9c-0.1-0.1-0.1-0.1-0.2-0.2
		c-0.1-0.1-0.2-0.2-0.3-0.3l-5.7,1.1c-0.6-0.1-1.2-0.2-1.5-0.4c-0.4-0.2-0.9-0.5-1.3-0.8l7.1-1.4c-0.2-0.2-0.3-0.3-0.5-0.5l-7.3,1.5
		c-0.9-0.6-1.7-1-2.8-1.2l8.7-1.7c-0.2-0.2-0.4-0.3-0.5-0.5l-11.9,2.4c-2,0.3-4.1,0.5-5.7-0.4c-1.6-0.9-2.6-2.8-4.3-3.7
		c-3-1.7-6.7-1.1-10-1.3c0,0.1,0.1,0.1,0.1,0.2c0.8,0.8,1.8,1.3,2.9,1.7l0.2,0.1c1.4,0.6,2.8,1.1,4.1,1.9c0.1,0.1,0.3,0.2,0.4,0.3
		c0.3,0.2,0.5,0.3,0.8,0.4c0.1,0,0.2,0.1,0.4,0.1c0.2,0,0.3,0,0.5,0.1c0.5,0.2,1,0.7,1.3,1.1c0.1,0.1,0.2,0.2,0.3,0.4
		c0.3,0.3,0.5,0.8,0.5,1.1c0,0.2-0.2,0.6-0.6,0.8c-0.4,0.2-0.8,0.1-1.1-0.1l0.9-0.2c-0.4-0.1-0.7-0.1-1.1-0.2c-0.1,0-0.3,0-0.4,0
		c-0.1,0-0.2,0-0.2,0c-0.1,0-0.2,0-0.3,0l-3.1,0.6c-0.5,0.2-1,0.5-1.4,0.9l4.4-0.9c0,0.1,0,0.2,0,0.3c0,0.5,0,1.1-1,1.3
		c-1,0.2-2.1-0.2-2.9-0.5l-0.2-0.1c-1.3-0.5-2.6-1-4.4-1.9c-0.9-0.4-1.8-1-2.6-1.5c-1.8-1.1-3.7-2.2-5.8-2.5
		c-2.1-0.3-4.3,0.1-6.4,0.5l0,10.1c2.1,1.4,2,4,3.6,6.2c0.8,1,1.9,3.1,2.9,3.7c1.7,1,3.7-0.4,5.3-0.8c1.4-0.3,2.4-0.1,3.4,0.2
		l-11.5,2.3c-0.4,0.3-0.8,0.6-1.2,0.8l13.6-2.8c0.8,0.4,1.6,0.8,2.6,1.1c0.1,0,0.2,0,0.2,0.1l-19,3.8l0,0.6l37.3-7.5
		C142.7,331.6,142.7,331.4,142.8,331.2z"/>
	<path d="M152.9,329.2c0.1,0.2,0.3,0.4,0.4,0.5l31-6.2c0-0.2,0-0.4,0-0.6L152.9,329.2z"/>
	<path d="M231.4,313.3c1.5-0.2,3-0.3,4.5-0.3l44.5-9c-0.1-0.2-0.3-0.3-0.4-0.5L231.4,313.3z"/>
	<path d="M151.8,327.6l33.4-6.7c0.1-0.1,0.2-0.1,0.3-0.2c0.6-0.3,1.2-0.3,1.8-0.2l6.3-1.3c0.2-0.2,0.4-0.5,0.5-0.7l-42.6,8.6
		C151.6,327.2,151.7,327.4,151.8,327.6z"/>
	<path d="M141,336.1l-35.7,7.2l0,0.6l35.3-7.1C140.7,336.5,140.9,336.3,141,336.1z"/>
	<path d="M291.7,306.3l7.9-1.6l0-0.6l-6.1,1.2C292.9,305.7,292.3,306,291.7,306.3z"/>
	<path d="M160.8,332.1c0.4,0.1,0.8,0.2,1.3,0.3l23-4.6c0-0.2,0-0.4-0.1-0.6L160.8,332.1z"/>
	<path d="M142.1,333.5l-36.8,7.4l0,0.6l36.6-7.4C141.9,333.9,142,333.7,142.1,333.5z"/>
	<path d="M184.6,325.5c0-0.2-0.1-0.4-0.1-0.6l-29.7,6c0.3,0.2,0.6,0.3,0.8,0.4L184.6,325.5z"/>
	<path d="M282.1,305.8c-0.2-0.1-0.4-0.3-0.5-0.5l-39.3,7.9c0.7,0.1,1.4,0.1,2.1,0.2L282.1,305.8z"/>
	<path d="M285.1,312.3l14.5-2.9l0-0.6l-15,3C284.7,311.9,284.9,312.1,285.1,312.3z"/>
	<path d="M122.8,342l-17.5,3.5l0,0.3c0.3,0,0.7,0,1,0l13.6-2.7C120.8,342.8,121.8,342.4,122.8,342z"/>
	<path d="M137.2,339.7c0.1-0.1,0.3-0.1,0.4-0.2c0.4-0.2,0.7-0.4,1-0.7l-9.8,2c1.2-0.1,2.4-0.1,3.6-0.1L137.2,339.7z"/>
	<path d="M166.4,333.8l18.2-3.7c0.1-0.2,0.2-0.4,0.3-0.6l-19.6,4C165.6,333.6,166,333.7,166.4,333.8z"/>
	<path d="M267.5,319.4c0.3,0.1,0.7,0.3,1,0.4l7.3-1.5c-0.2-0.1-0.5-0.2-0.8-0.4c0,0-0.1,0-0.1,0L267.5,319.4z"/>
	<path d="M294.7,314.5c0.2-0.2,0.3-0.5,0.5-0.7l-7.6,1.5c0.3,0.2,0.6,0.3,1,0.4L294.7,314.5z"/>
	<path d="M299.3,310.6l-13.3,2.7c0.1,0.2,0.2,0.3,0.4,0.5l12.5-2.5C299.1,311.1,299.2,310.9,299.3,310.6z"/>
	<path d="M127.5,215.7l-22.3,4.5l0,0.6l23.4-4.7C128.3,215.9,127.9,215.8,127.5,215.7z"/>
	<path d="M118.3,215.2l-5.9,1.2c-1.3,0.3-2.6,0.6-3.9,0.8c-0.2,0-0.4,0.1-0.6,0.1l-2.6,0.5l0,0.6l17.4-3.5
		C121.1,214.9,119.7,215,118.3,215.2z"/>
	<path d="M134,219l-28.8,5.8l0,0.6l29.5-5.9C134.5,219.3,134.2,219.2,134,219z"/>
	<path d="M131.2,217.2l-26,5.2l0,0.6l26.8-5.4C131.7,217.5,131.5,217.4,131.2,217.2z"/>
	<path d="M137.8,222.9l-32.6,6.6l0,0.6l33-6.7C138.1,223.3,138,223.1,137.8,222.9z"/>
	<path d="M136.2,220.9l-31,6.3l0,0.6l31.5-6.3C136.5,221.2,136.4,221,136.2,220.9z"/>
	<path d="M108.4,234l32.9-6.6c-0.2-0.2-0.3-0.3-0.5-0.5l-32.8,6.6C108.1,233.6,108.3,233.8,108.4,234z"/>
	<path d="M139.5,225.3c-0.1-0.2-0.2-0.3-0.4-0.5l-34,6.9l0,0.3c0.2,0.1,0.3,0.1,0.5,0.2L139.5,225.3z"/>
	<path d="M108.3,238.6l6.3-1.3c0-0.2,0-0.4,0-0.6l-7,1.4C107.9,238.3,108.1,238.5,108.3,238.6z"/>
	<path d="M127.5,234.2c0.3,0.1,0.7,0.2,1,0.4l32.7-6.6c-0.3-0.1-0.7-0.3-1-0.4L127.5,234.2z"/>
	<path d="M121.2,233.7l22.6-4.5c-0.3-0.1-0.5-0.3-0.8-0.4l-37.8,7.6l0,0.6l12.1-2.4C118.3,234.1,119.7,233.8,121.2,233.7z"/>
	<path d="M131.3,237.6c0.1,0.2,0.1,0.4,0.1,0.6l35.1-7.1c-0.2-0.2-0.4-0.3-0.6-0.5L131.3,237.6z"/>
	<path d="M105.7,243.4l8.9-1.8c0.2-0.2,0.3-0.4,0.4-0.7l-9.1,1.8C105.7,243,105.6,243.2,105.7,243.4z"/>
	<path d="M108.5,240.5l6.4-1.3c0-0.2-0.1-0.4-0.1-0.6l-6.1,1.2C108.7,240,108.6,240.2,108.5,240.5z"/>
	<path d="M129.9,235.5c0.2,0.2,0.3,0.3,0.5,0.5l33.4-6.7c-0.3-0.2-0.5-0.3-0.8-0.4L129.9,235.5z"/>
	<path d="M107.8,247l-2.6,0.5l0,0.6l3-0.6C108.1,247.4,108,247.2,107.8,247z"/>
	<path d="M105.9,245.1l-0.7,0.1l0,0.6l1.2-0.2C106.2,245.4,106.1,245.2,105.9,245.1z"/>
	<path d="M132.1,246.6c2-0.1,4.3-0.7,6.6-1.3L132.1,246.6z"/>
	<path d="M111.2,250.9l-6,1.2l0,0.6l6.5-1.3C111.5,251.2,111.3,251,111.2,250.9z"/>
	<path d="M109.7,249.2c-0.1-0.1-0.2-0.2-0.3-0.3l-4.2,0.8l0,0.6l4.6-0.9C109.8,249.3,109.7,249.2,109.7,249.2z"/>
	<path d="M111,256.2l6.2-1.3c-0.3-0.1-0.6-0.3-0.9-0.4l-6.9,1.4C109.9,256,110.5,256.1,111,256.2z"/>
	<path d="M113.3,252.7l-8.1,1.6l0,0.6l8.8-1.8C113.8,253,113.5,252.9,113.3,252.7z"/>
	<path d="M131,256.8c-0.8,0-1.4-0.1-2-0.1c-0.2,0-0.5,0-0.7,0l-11.4,2.3c0.1,0.2,0.2,0.3,0.4,0.5L131,256.8z"/>
	<path d="M147.9,253.4l43.8-8.8c-0.5-0.1-1-0.2-1.5-0.3l-42,8.5C148.1,253,148,253.2,147.9,253.4z"/>
	<path d="M206.7,241.5l9-1.8c-1.4-0.1-3.4,0.4-4.5,0.6C209.6,240.6,208.1,241,206.7,241.5z"/>
	<path d="M122,256.2c-0.5-0.1-1-0.2-1.5-0.3l-6,1.2c0.3,0.1,0.6,0.3,0.8,0.4L122,256.2z"/>
	<path d="M148.5,250.3c0,0.2,0,0.4,0,0.6l38.2-7.7c-0.3-0.1-0.7-0.2-1-0.4L148.5,250.3z"/>
	<path d="M225.2,241.9l-6.3,1.3c0.3,0.1,0.6,0.3,0.9,0.4l5.9-1.2c0,0,0,0,0,0C225.7,242.1,225.5,242,225.2,241.9z"/>
	<path d="M176,251.8c0.4,0,0.9,0.1,1.3,0.3l29.7-6c0.1-0.2,0.2-0.4,0.4-0.7L176,251.8z"/>
	<path d="M211.8,249.7c-0.4-0.1-0.8-0.2-1.2-0.4l-29,5.9c0.2,0.2,0.4,0.3,0.7,0.5L211.8,249.7z"/>
	<path d="M208,248.1c-0.2-0.2-0.4-0.3-0.6-0.5l-28.2,5.7c0.2,0.2,0.4,0.3,0.6,0.5L208,248.1z"/>
	<path d="M231,249.9l-41.1,8.3c0.4,0.1,0.7,0.2,1.1,0.4l40.3-8.1C231.2,250.2,231.1,250,231,249.9z"/>
	<path d="M218.5,250.6c-0.7,0-1.5,0-2.4-0.1l-30.8,6.2c0.4,0.1,0.8,0.2,1.2,0.4L218.5,250.6z"/>
	<path d="M220.7,250.2l8.1-1.6c-0.5-0.1-1-0.2-1.5-0.3l-4.9,1C221.9,249.6,221.3,249.9,220.7,250.2z"/>
	<path d="M229.8,255.4l-3.6,0.7C227.6,256.3,228.8,256.3,229.8,255.4z"/>
	<path d="M197.5,260.1l8.5-1.7c-0.1-0.2-0.3-0.4-0.3-0.5l-9.6,1.9C196.5,259.9,197,260,197.5,260.1z"/>
	<path d="M231.1,252.9c0-0.1,0-0.1,0.1-0.2l-12.3,2.5c0.7,0.1,1.4,0.1,2,0.2l10-2C231,253.2,231.1,253.1,231.1,252.9z"/>
	<path d="M272.8,76.4c0.1,0.7,0.1,3.5-0.5,5.7c1.5,2.1,2.9,4.4,4.3,6.9c2.9-2.8,4.6-6.1,4.2-10.5c0.1-0.6,0.1-1.2,0.2-1.8
		c0.2-1.8,0.4-3.6,0.7-5.4c0.3-1.7,0.3-4.7,1.7-5.9c0.6-0.5,1.6-0.5,2.2-0.9c0.6-0.5,0.8-1.3,1.1-1.6c1-0.8,2.4-1,3.3-1.9l-17.8-5.4
		c0,0.3,0.1,0.6,0.1,0.9c0,1.6-0.3,3.1-0.5,4.6c-0.2,1.2-0.4,2.3-0.5,3.4c-0.1,2.4,0.3,4.8,0.7,7.1
		C272.4,73.2,272.7,74.8,272.8,76.4z"/>
	<path d="M284.5,105.9c-0.1-0.5-0.3-1-0.8-1.6c0.2,0.5,0.3,1,0.5,1.5C284.3,105.9,284.4,105.9,284.5,105.9z"/>
	<path d="M360.8,98.3c0,0.1-0.1,0.1-0.1,0.2c-0.7-4.3-1.4-9-5.8-7.9c0,0,0,0,0,0c-4.5,1.2-1.3,11.7-1.1,13.7
		c0.2,3.2-2.9,9.4-1.5,12.3c0.3,0.6,1.5,1.4,2.9,2c0.8-0.1,1.6-0.2,2.3,0c0.1,0,0.1,0,0.2,0l3.5-16.1
		C360.4,101.4,360.6,99.9,360.8,98.3z"/>
	<path d="M250.5,65l-0.6-2.9c-0.1,0.5-0.2,1-0.3,1.5l0.2,1.2L250.5,65z"/>
	<path d="M255.5,67.1l-3.6-17.6l-0.3-0.1l-0.3,0.1l3.5,17.3C255,66.9,255.2,67,255.5,67.1z"/>
	<path d="M252.9,65.9l-2.1-10.2c-0.1,0.6-0.1,1.2-0.2,1.9l1.6,8.1C252.4,65.7,252.6,65.8,252.9,65.9z"/>
	<path d="M260.7,70.1L256.9,51l-0.6-0.2l3.8,18.9C260.3,69.8,260.5,70,260.7,70.1z"/>
	<path d="M258,68.5l-3.7-18.3l-0.6-0.2l3.6,18.1C257.6,68.2,257.8,68.3,258,68.5z"/>
	<path d="M266.3,74.8l-4.5-22.3l-0.6-0.2l4.4,21.8C265.8,74.3,266.1,74.6,266.3,74.8z"/>
	<path d="M263.4,72.2l-4.1-20.5l-0.6-0.2l4.1,20.1C263,71.8,263.2,72,263.4,72.2z"/>
	<path d="M268,60.2l-1.3-6.2l-0.6-0.2l1.5,7.2C267.7,60.7,267.9,60.4,268,60.2z"/>
	<path d="M268.3,74.3c0-0.2,0-0.4,0.1-0.7l-4.1-20.4l-0.6-0.2l4.5,22.2C268.2,74.9,268.3,74.6,268.3,74.3z"/>
	<path d="M269.5,57c0-0.1,0-0.3,0-0.4l-0.4-1.9l-0.6-0.2l0.7,3.6C269.3,57.7,269.4,57.4,269.5,57z"/>
	<path d="M305.4,143.5l1.3,6.3l0.6,0.1l-1.6-8.2C305.5,142.4,305.4,142.9,305.4,143.5z"/>
	<path d="M302.3,105.4l9.2,45.4l0.6,0.1l-9.5-47.2C302.5,104.2,302.4,104.8,302.3,105.4z"/>
	<path d="M306.5,137.6l2.5,12.6l0.6,0.1l-2.8-14.1C306.7,136.7,306.6,137.2,306.5,137.6z"/>
	<path d="M302.1,112.8c0.1,1.3,0.2,2.6,0.2,3.8l2.7,13.2c0.3,0.3,0.5,0.5,0.8,0.8L302.1,112.8z"/>
	<path d="M311.7,126.2c-0.4-0.6-0.7-1.4-0.9-2.1l5.6,27.6l0.6,0.1l-5.1-25.5C311.8,126.3,311.8,126.3,311.7,126.2z"/>
	<path d="M309.6,118.1c0.1-0.8,0.1-1.7,0.1-2.5l-5.3-26.4c0.1,1,0.1,2.1,0,3.2L309.6,118.1z"/>
	<path d="M299.2,63.8l-0.6-0.2l2.5,12.4c0.5,1.2,0.9,2.4,1.3,3.6L299.2,63.8z"/>
	<path d="M303.4,99.1l10.5,52.1l0.6,0.1l-10.8-53.7C303.6,98.1,303.5,98.6,303.4,99.1z"/>
	<path d="M297.4,66.7l-0.7-3.7l-0.2-0.1c0.2,1,0.4,1.9,0.7,2.9C297.2,66.1,297.3,66.4,297.4,66.7z"/>
	<path d="M318.3,138.1l2.9,14.5l0.6,0.1l-3-14.7C318.7,138.1,318.5,138.1,318.3,138.1z"/>
	<path d="M308.4,86.4l-4.3-21.1l-0.6-0.2l5.2,25.8C308.6,89.4,308.5,87.9,308.4,86.4z"/>
	<path d="M316.1,136.8c-0.3-0.6-0.3-1.2-0.2-1.8l-1.3-6.3c-0.2-0.2-0.5-0.4-0.7-0.5l4.8,24l0.6,0.1l-3.1-15.1
		C316.2,137,316.2,136.9,316.1,136.8z"/>
	<path d="M322.6,137.3l3.3,16.1l0.6,0.1l-3.3-16.3C323,137.3,322.8,137.3,322.6,137.3z"/>
	<path d="M320.4,137.8l3.1,15.2l0.6,0.1l-3.1-15.5C320.8,137.7,320.6,137.8,320.4,137.8z"/>
	<path d="M308.9,78l-2.4-12l-0.6-0.2l2.9,14.3C308.8,79.4,308.8,78.7,308.9,78z"/>
	<path d="M325,137.5l3.3,16.5l0.6,0.1l-3.3-16.3C325.4,137.6,325.2,137.5,325,137.5z"/>
	<path d="M322.8,70.9l-11.7-3.5l-0.3-0.1l-1.8-0.6l-0.6-0.2l-0.2-0.1c0.1,0.4,0.3,0.8,0.4,1.1l1.4,7.1c0.2-0.1,0.3-0.4,0.4-0.9
		l-0.8-4c0.2,0.5,0.4,0.9,0.6,1.4c0.3,0.7,0.6,1.5,0.8,2.3c0.9,4.2-2.1,8.9-1.3,13.4c0.5,2.8,2.5,4.8,2.6,7.8c0,1.6-0.6,4.1-1.5,5.5
		c-0.4,0.7-1.2,1.3-1.7,1.9l-7.6-37.6l-0.6-0.2l7.8,38.6c-0.1,0.4-0.1,0.8,0,1.4c0.1,0.3,0.2,0.5,0.4,0.7l1,4.7
		c0.1-0.8,0.1-1.7,0.1-2.5l-0.3-1.7c1,0.5,2.5,0.3,3.5,1c1.2,0.8,1.8,2.9,2.1,4.2c0.8,2.7,0.4,10.6,4.7,10.9
		c2.9,0.2,3.6-3.4,4.9-4.9c1.1-1.4,4-3.1,5.9-2.3c1.8,0.8,1.8,2.7,2.7,4.1c1.1,1.7,2.7,2,3.3,0.2c0.5-1.5,0-3-1.2-4.1
		c-2.4-2.1-6.6-1.9-8.7-4.2c-2.3-2.6-3-7.8-3.7-11.4c-0.7-3.5-3.8-18.1,5.4-17.3c3.5,0.3,3.1,6.3,3.7,8.7c0.4,1.4,1.9,7,4.1,3.8
		c0.5-0.8,0.7-1.9,0.7-3c0-1.7-0.2-3.6,0-4.9c0.3-1.9,0.9-3.7,0.9-5.6c0-1.8,0.2-2.3,1.3-3.7c0.2-0.3,0.4-0.5,0.5-0.8l-16.8-5.1
		L322.8,70.9z"/>
	<path d="M114.2,131.9c0.5-1.4,0.9-3,1.2-4.6C115,128.9,114.5,130.4,114.2,131.9z"/>
	<path d="M119.8,86c0.3,0.9,0.6,1.8,0.8,2.7c1.7,3.8,1.1,7.9,0.7,11.9c-0.1,1.4-0.2,2.7-0.3,4c0,0.3,0,0.5-0.1,0.8
		c1.1-3.6,2.4-7.3,4-10.9c0.6-1.4,1.2-2.6,1.8-3.9c0.1-0.3,0.3-0.6,0.4-0.9c0.4-0.8,0.8-1.5,1.1-2.2c0.1-0.3,0.3-0.5,0.4-0.8
		c0.4-0.8,0.9-1.5,1.3-2.3c0.1-0.2,0.3-0.5,0.4-0.7c0.4-0.7,0.9-1.3,1.3-2c0.2-0.2,0.3-0.4,0.5-0.6c0.2-0.3,0.5-0.7,0.7-1
		c0.1-1.3,0.2-2.5,0.1-3.8l0.6,2.9c0.2-0.2,0.3-0.4,0.5-0.6l-1.4-7.1c-0.4-4.4-1.2-11.2-3.1-15l-8.1,2.5c-1,3-1.2,6.6-1.4,8.9
		c-0.4,5-1.9,10.6-1,15.1C119.3,84.1,119.5,85.1,119.8,86z"/>
	<path d="M95.6,112.7c-0.5-6.2-3.3-4-6.1,0l-5.6-28c-0.2,0.1-0.3,0.3-0.5,0.4l5.7,28.2c-0.5,0.7-0.9,1.4-1.3,2.1l-5.8-29
		c-0.2,0.1-0.3,0.3-0.5,0.4l5.9,29.3c-0.4,0.7-0.9,1.5-1.3,2.2L79.8,88c-0.2,0.1-0.3,0.2-0.5,0.3l6.2,30.8c-0.5,0.8-0.9,1.6-1.3,2.3
		l-6.5-32.1c-0.1,0.1-0.3,0.2-0.4,0.3c0.5-1.4,0.3-3,0.8-4.4c0.4-1.1,0.9-2,1.3-2.8c0.4-0.9,0.7-1.8,0.7-3c-0.4-1.1-0.7-2.3-1-3.5
		c-0.2-0.6-0.3-1.2-0.4-1.8c-0.2-0.7-0.4-1.3-0.4-2l-7.3,2.2c-0.2,0.5-0.3,1-0.3,1.5c-0.2,1.7,0.8,3.4,0.6,5.1
		c-0.8,6-8.2-3.8-9.7,4.4c-1,5.2,1.5,8.7,1.3,13.6c-0.1,1.9-0.6,4.2-0.4,6.1c0.1,1.5,0.7,1.4,1.7,2.3c1.5,1.5,1.2,4.7,1.2,6.6
		c0,2.6,0.5,5.1,1.5,7.6c0.2,0.6,2.8,3.7,4.4,5.6c-0.1,0.2-0.1,0.4-0.2,0.6l1.4,6.7c0.1-0.3,0.2-0.8,0.3-1.4l0-0.2
		c0.5,1.1,1.6,1.8,3.3,1.6c0.3,1.1,0.5,2.1,0.3,3.2c-1,3.7-3.5,5.4-5.7,6.8c0.1-0.3,0.1-0.5,0.2-0.7c0,0,0,0,0,0l-1.7-8.3
		c-0.1,0.2-0.1,0.4-0.2,0.7c0,0.2-0.1,0.3-0.2,0.5l1.6,8c-0.4,0.3-0.8,0.6-1.2,0.9c0.1,0.2,0.2,0.4,0.3,0.7c0.5,1.1,1,2.2,1.4,3.4
		c0.6,1.7,1.5,3.3,2.3,4.9l10.5-2.1c0-1.1-0.3-2.3-1.1-3.4c-1.3-1.7-5-0.7-5.9-3.2c-1.1-3.3,1.9-7.2,4.1-10.6c2-3.2,6.6-8,10.2-12.7
		l2,9.8c0-1.1,0-2.2-0.1-3.3l-1.5-7.2c0.5-0.6,0.9-1.3,1.3-1.9l0.4,2.2c0.1-0.2,0.3-0.4,0.5-0.6l-0.5-2.3c0.5-0.8,0.9-1.5,1.3-2.3
		l2.2,11c0.3,0.5,0.6,0.9,0.9,1.4l-2.7-13.3C95.4,115,95.7,113.8,95.6,112.7z"/>
	<path d="M105.6,148.1c0,0,0.1-0.1,0.1-0.1l-0.2-1.2c-0.2,0-0.4,0-0.6,0.1l0.3,1.3L105.6,148.1z"/>
	<path d="M102.7,147.8l0.2,0.8l0.6-0.1l-0.2-1.1C103.1,147.5,102.9,147.6,102.7,147.8z"/>
	<path d="M137.5,75l-3.1-15.2c-0.2,0-0.4-0.1-0.6-0.1l3.2,15.8C137.2,75.4,137.3,75.2,137.5,75z"/>
	<path d="M135.5,77L132,59.7c-0.2,0-0.4,0-0.6,0.1l3.6,17.8C135.2,77.4,135.4,77.2,135.5,77z"/>
	<path d="M140.9,68.7l-1.4-6.8c-0.2-0.2-0.4-0.4-0.7-0.5l1.7,8.5C140.6,69.5,140.8,69.1,140.9,68.7z"/>
	<path d="M139.1,73.6c0.1-0.2,0.2-0.4,0.3-0.6l-2.5-12.5c0,0-0.1,0-0.1,0c-0.2-0.1-0.4-0.1-0.5-0.2l2.7,13.5
		C139,73.7,139,73.6,139.1,73.6z"/>
	<path d="M67.2,140.9l1.6,7.9c0.2-0.2,0.3-0.4,0.5-0.6l-1.7-8.4C67.4,140.2,67.3,140.5,67.2,140.9z"/>
	<path d="M66.7,147.6l-0.4-1.8C66.4,146.5,66.5,147.1,66.7,147.6z"/>
	<path d="M71.8,137.7l-1.5-7.4c-0.1,0.4-0.2,0.9-0.3,1.3l1.6,7.7C71.6,138.8,71.7,138.3,71.8,137.7z"/>
	<path d="M88.8,135.8l0.8,4.2c0.2-0.1,0.4-0.2,0.5-0.3l-1-5.2C89.1,135,89,135.4,88.8,135.8z"/>
	<path d="M87.9,139.7l-0.1-0.7C87.7,139.3,87.7,139.5,87.9,139.7z"/>
	<path d="M89.9,127.8c0,0.6,0,1.1-0.1,1.7l1.8,8.7c0-0.1,0.1-0.1,0.1-0.2c0.1-0.3,0.2-0.5,0.3-0.8l-2.1-10.3
		C89.9,127.2,89.9,127.5,89.9,127.8z"/>
	<path d="M90.9,96.9l-3.5-17.3c-0.1,0.3-0.3,0.6-0.4,0.9l3.4,16.9C90.6,97.2,90.7,97.1,90.9,96.9z"/>
	<path d="M89.1,99.8l-3.4-17.1c-0.2,0.2-0.3,0.4-0.5,0.6l3.6,17.9C88.9,100.7,89,100.2,89.1,99.8z"/>
	<path d="M95.6,98l-5.2-25.7c-0.1,0.2-0.1,0.4-0.2,0.5c-0.1,0.2-0.1,0.4-0.2,0.6l4.7,23.4C95.1,97.2,95.4,97.6,95.6,98z"/>
	<path d="M103.3,136.1l-0.3-1.4c-0.2-0.5-0.5-1-0.9-1.4l0.6,3.1C103.1,136.4,103.3,136.3,103.3,136.1z"/>
	<path d="M92.9,95.9l-3.9-19.5c-0.1,0.3-0.3,0.6-0.4,0.9l3.8,18.7C92.5,96,92.7,95.9,92.9,95.9z"/>
	<path d="M98.7,125.6c-0.1-0.8-0.3-1.9-0.4-2.9l-0.4-1.9c-0.3-1.1-0.6-2.2-1.2-3l3.4,16.9c0.2,0.3,0.5,0.6,0.8,0.9l-1.1-5.6
		C99.1,128.6,99,127.1,98.7,125.6z"/>
	<path d="M100.5,99l-6.4-31.7l-0.6,0.2l6.4,31.8C100.2,99.2,100.3,99.1,100.5,99z"/>
	<path d="M98.3,99.8L91.9,68l-0.6,0.2l6.4,31.5C97.9,99.8,98.1,99.8,98.3,99.8z"/>
	<path d="M101.5,77.9l-2.4-12L98.5,66l2.6,12.9C101.2,78.6,101.4,78.2,101.5,77.9z"/>
	<path d="M102.7,96.9c0.1-0.2,0.1-0.4,0.2-0.5l-1.1-5.5c-0.2-0.3-0.3-0.5-0.5-0.8c-0.1-0.2-0.3-0.4-0.4-0.6l1.6,7.8
		C102.5,97.1,102.6,97,102.7,96.9z"/>
	<path d="M99.7,83.1c0.1-0.3,0.2-0.6,0.3-1l-3.1-15.5l-0.6,0.2l3.3,16.5C99.6,83.2,99.7,83.1,99.7,83.1z"/>
	<path d="M102.9,64.7l1.4,7.1c0.1-0.3,0.3-0.6,0.4-0.9l-1.3-6.4L102.9,64.7z"/>
	<path d="M103.1,74.4l-1.8-9.2l-0.6,0.2l2,9.9C102.8,75,103,74.7,103.1,74.4z"/>
	<path d="M107.6,64.4c0.1-0.2,0.2-0.5,0.3-0.7l-0.1-0.4l-0.6,0.2l0.3,1.3C107.5,64.6,107.5,64.5,107.6,64.4z"/>
	<path d="M106.1,68.2c0.1-0.2,0.1-0.3,0.2-0.5l-0.8-3.8l-0.6,0.2l0.9,4.5C105.9,68.5,106,68.3,106.1,68.2z"/>
	<path d="M513,48c-0.5,2-1.2,4-1.6,6.1l9.9-6.3C519.4,47.8,515.3,47.9,513,48z"/>
	<path d="M449.4,147.2c0.7-0.9,1.7-2.3,2.8-4.1c2-3.3,4.7-8.8,6.2-15.9c0.2-1,0.4-2.1,0.7-3.3c1.1-5.4,2.5-12.2,5-19.6
		c0.2-1.6,0.5-3.4,1.3-4.2c0.1-0.1,0.2-0.2,0.3-0.2c0.5-1.2,0.9-2.4,1.5-3.6c1.7-4,3.7-7.7,6-11.1l-0.3-1.3c0.1-1,0.4-1.9,0.8-2.9
		c0.1-0.1,0.1-0.3,0.2-0.4l0.5,2.7c0.2-0.2,0.3-0.4,0.5-0.6l-0.6-2.9c0.4-0.7,0.7-1.4,0.9-2.1c0.1-0.4,0.2-0.9,0.2-1.3l0.9,4.4
		c0.2-0.2,0.3-0.4,0.5-0.6l-1.2-6.1c0.1-1.3,0.4-2.6,0.8-3.9l1.7,8.5c0.2-0.2,0.3-0.4,0.5-0.5l-1.8-9.1c0.3-0.9,0.7-1.7,1.3-2.5
		l2,10c0.2-0.2,0.3-0.3,0.5-0.5l-2-10.1c0.5-0.6,1-1.3,1.3-1.9l2.1,10.6c0.2-0.2,0.3-0.3,0.5-0.5l-0.6-2.8c-0.2-0.5-0.4-1-0.3-1.5
		l-1.3-6.7c1.1-2.7,1.2-5.7,0.9-8.7l-9.8,3c0.2,1.8,0.4,3.6,0.4,5.5c0,1-0.5,1.5-1.1,2.3c-0.7,0.9-0.7,2.2-1.6,3
		c-0.4,0.3-0.9,0.5-1.3,0.7c-0.4,0.2-0.7,0.5-1.1,0.9c-0.9,0.8-1.8,0.6-2.6-0.1c-0.4-0.4-0.9-0.7-1.2-1.2c-0.4-0.5-0.6-1.4-0.7-2
		c-0.2-0.6-0.3-1.2-0.4-1.8c-0.1-1.1-0.1-2.2-0.2-3.3c0-0.3-0.1-0.6-0.1-0.9l-2.6,0.8c-0.8,0.7-1.5,1.3-1.8,2.5c-0.6,2.6,2,3,2.5,5
		c0.5,2.1-2.9,7.6-4.7,9c-0.9,0.7-1.7,0.8-2.4,0.5c0.1,0.7,0.5,1.3,1.4,2c1.2,1,2.9,0.7,4,1.7c1.2,0.9,0.9,2.2,1.9,3.3
		c2.1,2.2,4.9,3.2,4.4,5.7c-0.1,0.5-0.3,1-0.7,1.7c-4.6,3.4-7.8,7.3-7.3,13.1c-0.1,0.6-0.1,1.2-0.2,1.8c-0.2,1.8-0.4,3.6-0.7,5.4
		c-0.3,1.7-0.3,4.7-1.7,5.9c-0.6,0.5-1.6,0.5-2.2,0.9c-0.6,0.5-0.8,1.3-1.1,1.6c-1.1,0.9-2.8,1-3.6,2.3c-0.8,1.1-0.3,2.4-0.7,3.6
		c-0.7,1.8-2.6,2.7-3.6,4.2c-1.4,2.2,0,1.6,0.9,3.3c0.9,1.6-0.4,4.5-0.6,6.4c-0.2,1.9-3.7,4.2-2.2,6.4c0.6,0.9,1.9,0.7,2.6,1.5
		l6.2-1.2C449.1,147.6,449.2,147.4,449.4,147.2z"/>
	<path d="M496.8,63.3l0.3-0.2l-2.6-12.8l-0.6,0.2l2.6,12.9C496.6,63.4,496.7,63.4,496.8,63.3z"/>
	<path d="M434.5,78.9l-2-9.7l-0.6,0.2l2.3,11.2C434.3,80,434.4,79.4,434.5,78.9z"/>
	<path d="M434.6,68.6l-0.4,0.1l0.5,2.7C434.7,70.4,434.7,69.5,434.6,68.6z"/>
	<path d="M432.5,91.9l-4.3-21.4l-0.6,0.2l4.9,24.4C432.5,94,432.4,93,432.5,91.9z"/>
	<path d="M441,137.2c0-0.3,0.1-0.6,0.1-1c0-0.4,0-0.7,0.1-1.1l-5.4-26.9c-0.5-1.2-0.9-2.4-1.3-3.6L441,137.2z"/>
	<path d="M433.5,85.1l-3.1-15.2l-0.6,0.2l3.3,16.6C433.3,86.1,433.4,85.6,433.5,85.1z"/>
	<path d="M439.7,118.4c-0.1-0.3-0.2-0.6-0.3-0.9l1.3,6.6C440.6,122.2,440.3,120.2,439.7,118.4z"/>
	<path d="M428.4,97.8l9,44.5c0.2-0.1,0.3-0.3,0.5-0.4l-9.8-48.6C428.3,94.8,428.4,96.3,428.4,97.8z"/>
	<path d="M428,81.3c0.1-0.4,0.1-0.8,0-1.4c-0.1-0.3-0.2-0.5-0.4-0.7l-1-4.7c-0.1,0.8-0.1,1.7-0.1,2.5l0.3,1.7c-1-0.5-2.5-0.3-3.5-1
		c-1.2-0.8-1.8-2.9-2.1-4.2c-0.1-0.2-0.1-0.5-0.2-0.9l-10.3,3.1c1.3,2.7,1.9,6.6,2.5,9.4c0.7,3.5,3.8,18.1-5.4,17.3
		c-3.5-0.3-3.1-6.3-3.7-8.7c-0.4-1.4-1.9-7-4.1-3.8c-0.5,0.8-0.7,1.9-0.7,3c0,1.7,0.2,3.6,0,4.9c-0.3,1.9-0.9,3.7-0.9,5.6
		c0,1.8-0.2,2.3-1.3,3.7c-1.2,1.6-1.2,2.7-1.1,4.7c0.1,1.7-0.7,3-0.8,4.6c-0.2,2.2,1.2,2.6,2.4,0.7c1-1.5,0.4-4,2.3-4.7
		c2.6-0.9,4.6,2.2,6.1,3.7c1.1,1.1,1.9,2.8,2,4.3c0.1,1.6-0.7,2.8-1.7,4c-1.6,1.8-3.6,2.9-5.6,4.3c-1.7,1.1-3.5,2.7-3.2,4.8
		c0.4,2.6,4,3.5,3.8,6.2c-0.1,1.2-1.3,2.8-1.7,3.9c-0.4,1-0.7,2-1,3l2.4,10.6l2.8-0.5c-0.1-0.9-0.3-1.9-0.4-2.9
		c-0.7-4.1-1.4-8.4,0.3-12.8c0.2-0.5,1.9-0.3,1.9-0.3c0.7,0.2,1.1,0.7,1.3,1.1c0.8,1.3,1.1,3,1.3,4.7c0.3,2.6,0.3,5.2,0.2,7.7
		c0,0.5,0,1,0,1.6l1.2-0.2c-0.7-2-0.7-4-0.4-5.9l1.1,5.7l0.6-0.1l-1.4-6.9c0.3-1,0.7-2,1.1-3l1.9,9.6l0.6-0.1l-2.1-10.5
		c0.1-0.3,0.2-0.6,0.3-0.9c0.3-0.8,0.5-1.7,0.8-2.5l2.7,13.6l0.6-0.1l-2.9-14.6c0,0.1-0.1,0.1-0.1,0.2c0.2-0.7,0.9-1.5,1.3-2
		c0,0,0.1-0.1,0.1-0.1l3.3,16.2l0.6-0.1l-3.3-16.5c0.3-0.3,0.7-0.6,1.1-0.8c0.2-0.1,0.3-0.2,0.5-0.4l3.5,17.4l0.6-0.1l-3.6-17.6
		c0.5-0.3,0.9-0.7,1.4-1l3.7,18.4l0.6-0.1l-3.8-18.7c0.2-0.2,0.4-0.3,0.7-0.5c0.3-0.3,0.6-0.5,0.9-0.7l3.9,19.5l0.5-0.1
		c0-0.4-0.1-0.7-0.1-1.1l-1.2-5.9c-0.4-1.4-0.7-2.7-0.8-4.1l-1.8-8.8c0.9-0.9,0.7-1.4,1.5-3.3c0.4-1,0.9-1.5,1.4-2l0.9,4.3
		c0,0,0.1-0.1,0.1-0.1c0.1-0.1,0.3-0.1,0.4-0.2l-0.9-4.4c0.3-0.2,0.7-0.5,1.1-0.7l1,5c0.2,0.1,0.4,0.2,0.6,0.3l-1.1-5.6c0,0,0,0,0,0
		c0.2-0.1,0.4-0.3,0.6-0.4c0.3-0.2,0.6-0.4,0.9-0.7l2.9,14.2c0.3,0.6,0.6,1.3,0.7,1.9c0.2,0.9,0.3,1.7,0.2,2.5l1.5,7.7l0.6-0.1
		l-5.4-26.6c0.6-0.5,1.1-1.1,1.3-1.9l5.1,25.3c0.1-0.5,0.2-0.9,0.3-1.4l-5.1-25.4c0.1-1.6-0.3-3-0.9-4.4l-1.4-7.1
		c-0.2,0.1-0.3,0.4-0.4,0.9l0.8,4c-0.2-0.5-0.4-0.9-0.6-1.4c-0.3-0.7-0.6-1.5-0.8-2.3c-0.9-4.2,2.1-8.9,1.3-13.4
		c-0.5-2.8-2.5-4.8-2.6-7.8c0-1.6,0.6-4.1,1.5-5.5c0.4-0.7,1.2-1.3,1.7-1.9l11.8,58.5c0.2-0.2,0.3-0.3,0.5-0.5L428,81.3z"/>
	<path d="M428,106.2l7.6,37.8c0.1-0.2,0.3-0.4,0.5-0.5l-7.9-39.3C428.1,104.8,428,105.5,428,106.2z"/>
	<path d="M429.2,147l0.9,4.5l0.6-0.1l-1-4.9C429.5,146.7,429.3,146.8,429.2,147z"/>
	<path d="M421.6,130.4l1.5,7.3c0.1-0.2,0.2-0.5,0.4-0.8c0,0,0-0.1,0-0.1l-1.5-7.4C421.9,129.7,421.7,130.1,421.6,130.4z"/>
	<path d="M425.7,150.6l0.3,1.7l0.6-0.1l-0.5-2.6C425.9,149.8,425.7,150.2,425.7,150.6z"/>
	<path d="M427.6,148.3l0.7,3.5l0.6-0.1l-0.8-3.7C427.9,148.1,427.8,148.2,427.6,148.3z"/>
	<path d="M497.2,52.1l-0.5-2.4l-0.6,0.2l0.8,3.8C497,53.1,497,52.6,497.2,52.1z"/>
	<path d="M495,64.4L492.3,51l-0.6,0.2l2.7,13.6C494.6,64.6,494.8,64.5,495,64.4z"/>
	<path d="M491,67.1l-3-14.8l-0.6,0.2l3,15C490.7,67.3,490.8,67.2,491,67.1z"/>
	<path d="M493.1,65.7l-2.8-14l-0.6,0.2l2.9,14.2C492.7,65.9,492.9,65.8,493.1,65.7z"/>
	<path d="M487,70.2l-3.3-16.5l-0.6,0.2l3.4,16.7C486.6,70.4,486.8,70.3,487,70.2z"/>
	<path d="M489,68.6L485.9,53l-0.5,0.1l-0.1,0l3.2,15.8C488.7,68.8,488.8,68.7,489,68.6z"/>
	<path d="M483,67.9c0.2-0.1,0.4-0.3,0.5-0.3l-1.9-9.6c-0.1,0.5-0.2,1-0.3,1.4L483,67.9z"/>
	<path d="M641.3,71.5c0.5,6.2,3.3,4,6.1,0l5.6,28c0.2-0.1,0.3-0.3,0.5-0.4l-5.7-28.2c0.5-0.7,0.9-1.4,1.3-2.1l5.8,29
		c0.2-0.1,0.3-0.3,0.5-0.4L649.7,68c0.4-0.7,0.8-1.4,1.2-2.1l-6.6-2c0,0.1-0.1,0.1-0.1,0.2l0-0.2l-0.6-0.2l0.2,1.1
		c-0.5,0.8-0.9,1.5-1.3,2.3l-0.8-3.9L641,63l1,5C641.5,69.3,641.2,70.5,641.3,71.5z"/>
	<path d="M657.6,95.9l-6-29.8l-0.6-0.2l6.1,30.3C657.3,96.2,657.4,96,657.6,95.9z"/>
	<path d="M674,85.1c0.1-1.9,0.6-4.2,0.4-6.1c-0.1-1.5-0.7-1.4-1.7-2.3c-1-1.1-1.2-2.9-1.2-4.6l-7.1-2.1c0.5,1.3,0.9,2.7,1.3,4.3
		c0.6,2.5,0.9,5.1,0.5,7.7l-2.5-12.2l-0.6-0.2l2.8,13.9c-0.2,1.2-0.6,2.3-1.1,3.4l-3.6-17.9l-0.6-0.2l3.8,18.9
		c-0.3,0.7-0.7,1.3-1.2,1.9l-4.3-21.3l-0.6-0.2l4.5,22.2c-0.2,0.3-0.5,0.6-0.7,0.8c-0.2,0.3-0.5,0.5-0.7,0.7l-4.9-24.3l-0.6-0.2
		l5,25c-0.5,0.6-1,1.2-1.3,2l-5.6-27.5l-0.6-0.2l5.7,28.2c0.1-0.1,0.3-0.2,0.4-0.3c-0.5,1.4-0.3,3-0.8,4.4c-0.4,1.1-0.9,2-1.3,2.8
		c-0.4,0.9-0.7,1.8-0.7,3c0.4,1.1,0.7,2.3,1,3.5c0.2,0.6,0.3,1.2,0.4,1.8c0.8,2.4,0.5,5-1.4,6.8c-3.4,3.8-5.7,7.8-7.5,12.1
		c-0.2,0.5-0.5,0.9-0.7,1.4c-3.3,7.3-2.3,12.9-0.7,18.3c0,0,0.1,0,0.1,0l9.2,1.7c1-6.4,4.2-12.4,3.2-19c-0.1-0.7-0.2-1.4-0.3-2
		c-0.7-5,0.4-9.9,3.3-14.3c0.3-0.5,0.6-1,0.8-1.5c0.7-1.5,1.8-3.5,2-5.2c0.2-1.7-0.8-3.4-0.6-5.1c0.8-6,8.2,3.8,9.7-4.4
		C676.3,93.6,673.8,90.1,674,85.1z"/>
	<path d="M697.5,79.9c-1.1,2.4-1.6,4.7,0.1,7c1.3,1.7,5,0.7,5.8,3.2c1.1,3.2-1.9,7.1-4.1,10.5c-3.6,5.7-15.4,16.4-14.9,22.3
		c0.2,2.3,0.7,3.4,1.4,3.7l5.7,28.4c0.1-0.5,0.2-0.9,0.3-1.4l-5.4-27c0.5-0.1,1-0.4,1.6-0.9l4.7,23.1c0.1-0.6,0.2-1.1,0.3-1.7
		l-4.4-21.9c0.4-0.4,0.8-0.9,1.3-1.5l3.8,19c0.1-0.5,0.2-1,0.3-1.5l-3.7-18.1c0.5-0.6,0.9-1.3,1.4-2l3.3,16.2c0,0,0-0.1,0-0.1
		c0.1-0.4,0.2-0.7,0.3-1l-3.2-15.8c2.4-3.7,4.5-7.9,5.2-8.8c2.1-2.7,5.6-2.6,7-5c1.8-3-1.2-5.8-0.4-8.6c0.8-2.8,2.5-4.4,4.2-5.7
		l2-8.8L697.5,79.9z"/>
	<path d="M696.4,135.9c-1.7,6.9-4.1,13.3-2.6,20.4l7-31.6c-0.4,0.4-0.7,0.9-0.9,1.2C698.3,129,697.3,132.5,696.4,135.9z"/>
	<path d="M590.1,60.3l1.1,0.7c0.2-0.2,0.5-0.4,0.7-0.7l0.3,1.3l0.7,0.5l-0.5-2.4c0-0.1,0.1-0.1,0.1-0.2c0.1-0.2,0.3-0.5,0.4-0.8
		c0.1-0.2,0.2-0.5,0.4-0.7l1,5c0,0,0,0,0,0l0,0l0.2,0.2c0.2,0.1,0.3,0.2,0.5,0.3l0-0.1c0.3-0.2,0.5-0.5,0.8-0.7
		c0.2-0.2,0.3-0.5,0.5-0.7c0-0.1,0.1-0.1,0.1-0.2l0.6,2.9c0.2,0.1,0.5,0.3,0.7,0.5l-0.8-4c0.4-0.6,0.9-1.1,1.4-1.6l1.3,6.5
		c-0.1,0.1-0.1,0.1-0.2,0.2c0.1,0.1,0.2,0.1,0.3,0.2c0.2,0.2,0.5,0.3,0.7,0.5c0.7,0.5,1.4,1,2.1,1.6c0.2,0.2,0.5,0.4,0.7,0.5
		c0.6,0.5,1.3,1,1.9,1.6c0.2,0.2,0.5,0.4,0.7,0.6c0,0,0,0,0,0c0,0,0,0,0-0.1l0.1-0.1c0.7-1.1,1.5-2,2.3-2.9c0.5-0.6,1.1-1.2,1.6-1.9
		c0.5-0.7,1.3-1.7,2.7-1.2l0.1,0l0,0.1c0.1,0.2,0.1,0.5,0.1,0.7c0,0.7-0.3,1.5-0.5,2.2c-0.1,0.3-0.2,0.5-0.3,0.7
		c-0.1,0.5-0.3,0.9-0.4,1.4c-0.3,1.3-0.7,2.7-1.5,3.9c-0.1,0.2-0.3,0.4-0.4,0.6c2.2,2.2,4.2,4.6,6.1,7.1c0.1-0.8,0.1-1.7,0.2-2.5
		c0.3-4,0.9-8.1,2-12.2c0.9-3.3,2.3-6.8,3.4-10.3l-9.8-2.9l-0.6-0.2l-0.5-0.1c0,0.3,0,0.6,0,0.9c-0.1,1-0.3,1.9-0.5,2.7l-0.8-4
		l-0.6-0.2l1,5.1c-0.4,0.7-0.9,1.3-1.4,1.6l-1.5-7.2l-0.6-0.2l1.6,7.7c-0.5,0.2-1.1,0.4-1.6,0.3l-1.7-8.6l-0.6-0.2l1.8,8.7
		c-0.7-0.1-1.4-0.5-2-1l-1.1-5.3c0.3-0.7,0.5-1.5,1-2.1c0.1-0.1,0.2-0.2,0.2-0.4l-1.8-0.5l-0.6-0.2l-1.7-0.5l-0.6-0.2l-1.9-0.6
		l-0.6-0.2l-2.6-0.8l-0.2,0c-1.3-0.1-3.6-0.2-6.4-0.3c-1,0.8-2,1.6-2.8,2.6c-1,1.2-1.6,2.5-2.1,3.9l7.3,5L590.1,60.3z"/>
	<path d="M701.2,110.8l1.3,6.6l0.3-1.4l-1.1-5.4C701.6,110.6,701.4,110.7,701.2,110.8z"/>
	<path d="M703.4,110l0.4,1.8l0.3-1.4l-0.1-0.6C703.8,109.9,703.6,110,703.4,110z"/>
	<path d="M700.1,125.4l-1.9-9.5c-0.1,0.2-0.3,0.4-0.5,0.6l2,9.7C699.8,126,700,125.7,700.1,125.4z"/>
	<path d="M699.4,113l1.9,9.6c0.1-0.2,0.1-0.3,0.2-0.5l0.2-0.7l-1.9-9.2C699.6,112.4,699.5,112.7,699.4,113z"/>
	<path d="M693.6,119l2.9,14.4c0.1-0.3,0.3-0.6,0.4-1l-2.8-13.6C693.9,118.9,693.8,119,693.6,119z"/>
	<path d="M695.7,118.1l2.3,11.6c0.1-0.3,0.3-0.6,0.4-0.9l-2.2-11.1C696.1,117.9,695.9,118,695.7,118.1z"/>
	<path d="M684,140.4l3.1,15.5l0.6,0.1l-3.3-16.5C684.3,139.8,684.2,140.1,684,140.4z"/>
	<path d="M683.2,124.6l1.1,5.2c0,0.1,0.1,0.1,0.1,0.2c0.9,1.7,1.3,3.4,1.2,5.3c0,0.2,0,0.3-0.1,0.5l4.2,20.7l0.6,0.1l-6.5-32.4
		C683.5,124.3,683.4,124.4,683.2,124.6z"/>
	<path d="M680.9,145.7l1.9,9.5l0.6,0.1l-2.1-10.3C681.2,145.2,681,145.4,680.9,145.7z"/>
	<path d="M682.7,142.9l2.6,12.7l0.6,0.1l-2.7-13.5C683,142.4,682.8,142.7,682.7,142.9z"/>
	<path d="M677.3,150.9l0.7,3.4l0.6,0.1l-0.8-4.2C677.6,150.4,677.4,150.6,677.3,150.9z"/>
	<path d="M679.1,148.2l1.3,6.5l0.6,0.1l-1.5-7.3C679.4,147.8,679.3,148,679.1,148.2z"/>
	<path d="M676,153.9l0.4,0.1l-0.2-0.8C676.1,153.4,676,153.6,676,153.9z"/>
	<path d="M649.9,103.7l-3.4-16.9c-0.2,0.2-0.3,0.3-0.5,0.5l3.5,17.3C649.6,104.3,649.7,104,649.9,103.7z"/>
	<path d="M651.7,100.9l-3.6-17.9c-0.1,0.5-0.2,0.9-0.3,1.4l3.4,17.1C651.3,101.3,651.5,101.1,651.7,100.9z"/>
	<path d="M641.2,86.2l5.2,25.7c0.1-0.2,0.1-0.4,0.2-0.5c0.1-0.2,0.1-0.4,0.2-0.6L642,87.4C641.7,87,641.5,86.6,641.2,86.2z"/>
	<path d="M648.3,106.9l-3.8-18.7c-0.2,0.1-0.4,0.1-0.6,0.1l3.9,19.5C648.1,107.5,648.2,107.2,648.3,106.9z"/>
	<path d="M640.2,66.4l-0.8-4l-0.6-0.2l0.2,1.1C639.2,64.5,639.6,65.5,640.2,66.4z"/>
	<path d="M636.3,85.2l8.9,44.2c0.1-0.1,0.1-0.3,0.2-0.4c0.1-0.2,0.1-0.3,0.2-0.5l-8.8-43.6C636.7,85,636.5,85.1,636.3,85.2z"/>
	<path d="M646.5,123c-0.1-0.7-0.2-1.4-0.3-2c-0.2-1.1-0.4-2.2-0.4-3.4l-6.7-33.2c-0.2,0-0.4-0.1-0.6,0l8.2,40.4
		C646.7,124.3,646.6,123.7,646.5,123z"/>
	<path d="M635.7,105.3c-0.1,0.4-0.2,0.7-0.4,1l7.1,35.2c0.2-0.8,0-1.7,0.1-2.5L635.7,105.3z"/>
	<path d="M635.6,94.2c0.1,0.2,0.3,0.4,0.4,0.6l-1.6-7.8c-0.1,0.1-0.1,0.3-0.2,0.4c-0.1,0.2-0.1,0.4-0.2,0.5l1.1,5.5
		C635.3,93.7,635.4,94,635.6,94.2z"/>
	<path d="M637.2,101.2c-0.1,0.3-0.2,0.6-0.3,1l6.8,33.7c0-0.1,0.1-0.3,0.1-0.4c0.1-0.4,0.1-0.8,0.1-1.1l-6.7-33.3
		C637.2,101,637.2,101.1,637.2,101.2z"/>
	<path d="M638.5,142l-6-29.6c-0.1,0.3-0.3,0.6-0.4,0.9l5.4,26.9C637.8,140.9,638.2,141.4,638.5,142z"/>
	<path d="M641.2,144.2C641.2,144.1,641.2,144.1,641.2,144.2l-7.1-35.2c-0.1,0.3-0.3,0.6-0.4,0.9l7.2,35.7
		C641,145.1,641.1,144.6,641.2,144.2z"/>
	<path d="M632.9,127.3c0.4,2,0.9,3.8,1.5,5.5l-3.5-17.2c-0.1,0.1-0.1,0.3-0.2,0.4c-0.1,0.2-0.1,0.3-0.2,0.5c0.6,2.7,1.2,5.2,1.7,7.5
		C632.5,125.2,632.7,126.3,632.9,127.3z"/>
</g>
</svg>
