<?xml version="1.0" encoding="utf-8"?>
<!-- Generator: Adobe Illustrator 25.3.0, SVG Export Plug-In . SVG Version: 6.00 Build 0)  -->
<svg version="1.1" id="Layer_1" xmlns="http://www.w3.org/2000/svg" xmlns:xlink="http://www.w3.org/1999/xlink" x="0px" y="0px"
	 viewBox="0 0 750.2 400.1" style="enable-background:new 0 0 750.2 400.1;" xml:space="preserve">
<polygon points="643.3,161.7 643.3,161.7 643.3,166.6 "/>
<rect x="196.6" y="115.3" width="0.1" height="17.5"/>
<polygon points="196.9,244.4 197,244.4 197,217.9 196.8,217.9 196.8,244.4 "/>
<polygon points="196.8,159.5 196.9,159.5 197,159.5 197,132.9 196.8,132.9 "/>
<rect x="196.6" y="284.7" width="0.1" height="17.5"/>
<polygon points="196.9,328.9 197,328.9 197,302.3 196.8,302.3 196.8,328.9 "/>
<path d="M107.5,302.3l-2.2,2.7l0,34.9l13.1,15.7c3.3,0.6,7.1,1.3,11.3,2V329h-22.1L107.5,302.3L107.5,302.3z"/>
<path d="M138.2,359c7.8,1.2,16.3,2.4,25.1,3.4V329h-0.1L138.2,359z"/>
<path d="M196.9,328.9L196.9,328.9l-0.1-26.5h0v-0.1L174.5,329h-11.1l29.6,35.5c1.3,0,2.6,0,3.9,0.1V328.9z"/>
<path d="M274,357.3c11.2-1.7,19.8-3.3,23.7-4V329h-0.1L274,357.3z"/>
<polygon points="166.8,302.3 166.8,284.7 166.5,284.7 151.9,302.3 152.1,302.3 129.9,329 152.2,329 152.2,302.3 152.3,302.3 
	174.5,329 174.5,302.3 "/>
<polygon points="107.3,284.7 122,302.3 122,284.7 "/>
<polygon points="136.9,302.3 136.9,284.7 137.2,284.7 151.9,302.3 151.9,284.7 163.3,284.7 163.3,244.5 163.2,244.5 129.7,284.7 
	136.7,284.7 122,302.3 107.7,302.3 129.9,329 129.9,302.3 "/>
<polygon points="167,284.7 181.7,302.3 181.7,284.7 "/>
<polygon points="196.6,302.2 196.6,284.7 196.4,284.7 181.7,302.3 196.6,302.3 "/>
<polygon points="107.6,244.5 107.6,217.9 107.5,217.9 105.2,220.6 105.2,255.3 129.7,284.7 129.7,244.5 "/>
<polygon points="196.8,244.4 196.8,217.9 196.8,217.9 196.8,217.8 174.5,244.5 163.4,244.5 196.9,284.7 196.9,244.4 "/>
<path d="M299.6,302.2h-13.3v-17.5h11.4v-40.2h-0.1l-33.5,40.2h-7.4l14.7,17.6v-17.6h14.7l-14.7,17.6h14.7L263.9,329h-22.3v-26.6h0.1
	l22.2,26.6v-26.6h-7.4v-17.6h-0.2l-14.7,17.6h0L219.3,329h11.1l-29.6,35.5c9.5-0.1,19.6-0.8,29.7-1.7V329h0.1l25.7,30.8
	c2.7-0.4,5.3-0.7,7.8-1.1V329h22.1v-26.6h0.1l13.3,15.9L299.6,302.2z"/>
<polygon points="226.6,302.3 226.6,284.7 226.8,284.7 241.5,302.3 241.5,284.7 230.5,284.7 230.5,244.5 230.6,244.5 264.1,284.7 
	264.1,244.5 286.2,244.5 286.2,217.9 286.3,217.9 286.3,217.9 299.7,233.9 299.7,217.7 286.3,217.7 286.3,200 271.4,217.9 
	286.1,217.9 263.9,244.5 241.6,244.5 241.6,217.9 241.7,217.9 263.9,244.5 263.9,217.9 256.5,217.9 256.5,200 241.5,217.9 
	241.5,217.9 219.3,244.5 230.4,244.5 196.9,284.7 197,284.7 211.7,302.3 211.7,284.7 226.4,284.7 211.7,302.3 197.1,302.3 
	219.3,329 219.3,302.3 "/>
<polygon points="122,200 107.1,200 122,217.9 "/>
<polygon points="129.9,217.9 136.9,217.9 136.9,200 122,217.9 107.7,217.9 129.9,244.5 "/>
<polygon points="151.9,217.9 151.9,200 136.9,200 "/>
<polygon points="166.8,217.9 166.8,200 151.9,217.9 152.1,217.9 129.9,244.5 152.2,244.5 152.2,217.9 152.3,217.9 174.5,244.5 
	174.5,217.9 "/>
<polygon points="181.7,217.9 181.7,200 166.8,200 "/>
<polygon points="196.6,217.7 196.6,200 181.7,217.9 196.6,217.9 "/>
<polygon points="211.7,200 196.8,200 211.7,217.9 "/>
<polygon points="219.3,217.9 226.6,217.9 226.6,200 211.7,217.9 197.1,217.9 219.3,244.5 "/>
<polygon points="241.5,200 226.6,200 241.5,217.9 "/>
<polygon points="271.4,217.9 271.4,200 256.5,200 "/>
<path d="M129.7,159.6h-22.1v-11.7c-0.9,1.2-1.6,2.1-2,2.6c-0.1,0.1-0.2,0.2-0.4,0.4l0,19.5l24.5,29.4V159.6z"/>
<polygon points="163.3,199.8 163.3,159.6 163.2,159.6 129.7,199.8 "/>
<polygon points="196.9,159.5 196.8,159.5 196.8,132.9 196.8,132.9 196.8,132.9 174.5,159.6 163.4,159.6 196.9,199.8 "/>
<polygon points="297.7,199.8 297.7,159.6 297.6,159.6 264.1,199.8 "/>
<polygon points="174.5,132.9 166.8,132.9 166.8,115.3 166.5,115.3 151.9,132.9 152.1,132.9 129.9,159.6 152.2,159.6 152.2,132.9 
	152.3,132.9 174.5,159.6 "/>
<path d="M122,115.3h-2.9c-1,4.1-1.8,7.8-2.4,10.7l-0.1,0.4l5.5,6.6V115.3z"/>
<path d="M129.9,132.9h7.1v-17.6h0.2l14.7,17.6v-17.6h11.4V82.6c-0.9-1.5-1.8-3-2.6-4.5l-31,37.2h7L122,132.9h-7.1
	c-0.7,2.2-1.5,4.2-2.3,6l17.2,20.7V132.9z"/>
<polygon points="167,115.3 181.7,132.9 181.7,115.3 "/>
<polygon points="196.6,115.3 196.4,115.3 181.7,132.9 196.6,132.9 196.6,132.8 "/>
<path d="M129.7,87.5c-1.5,2.6-3,5.5-4.3,8.5c-1.4,3.3-2.6,6.6-3.6,9.8l7.9,9.5V87.5z"/>
<path d="M196.9,102.9c-4.6-0.4-8.8-1.4-12.8-2.9l12.8,15.4V102.9z"/>
<path d="M264.1,159.6h22.1v-26.6h0.1v0l5.6,6.7c-0.9-2-1.8-4.3-2.6-6.8h-3v-12.9c-0.3-1.2-0.6-2.5-0.9-3.8l-14,16.8h14.7l-22.2,26.6
	h-22.3v-26.6h0.1l22.2,26.6v-26.6h-7.4v-17.6h-0.2l-14.7,17.6h0l-22.2,26.6h11.1l-33.5,40.2h33.6v-40.2h0.1l33.5,40.2V159.6z"/>
<path d="M285.2,115.3c-1.4-5.6-3.2-11.9-5.9-18.3l-15.2,18.3h-7.4l14.7,17.6v-17.6H285.2z"/>
<path d="M152.2,67c-4.7,2.1-8.9,4.8-12.7,8.2h12.7V67z"/>
<path d="M219.3,132.9h7.3v-17.6h0.2l14.7,17.6v-17.6h-11V94.6c-6.5,4.9-14.4,7.7-23.3,8.3l-10.3,12.4h0.1l14.7,17.6v-17.6h14.7
	l-14.7,17.6h-14.6l22.2,26.6V132.9z"/>
<path d="M261.8,72.7l2.1,2.5v-0.7C263.2,73.8,262.5,73.2,261.8,72.7z"/>
<path d="M264.1,75.1h0.6c-0.2-0.1-0.3-0.3-0.5-0.4l-0.3,0.4h-18.4c-1.1,2.6-2.5,5.1-4.1,7.7c-0.6,1-1.3,2-2,2.9l24.7,29.6V75.1z"/>
<rect x="544.9" y="118.2" width="0.1" height="18.1"/>
<polygon points="544.8,224.1 544.6,224.1 544.6,251.5 544.7,251.5 544.8,251.5 "/>
<polygon points="544.8,49.1 544.6,49.1 544.6,76.5 544.7,76.5 544.8,76.5 "/>
<polygon points="544.8,136.4 544.6,136.4 544.6,163.8 544.7,163.8 544.8,163.8 "/>
<rect x="544.9" y="293.2" width="0.1" height="18.1"/>
<polygon points="544.8,311.4 544.6,311.4 544.6,338.8 544.7,338.8 544.8,338.8 "/>
<path d="M642.7,342.4l0-20.4l-8.5-10.6h-0.1v27.5h-22.1v26c6.8-2.2,12.8-4.5,17.7-6.4L642.7,342.4z"/>
<path d="M578.4,338.9L578.4,338.9l-0.1,34.9c8.2-1.6,16.2-3.6,23.6-5.8L578.4,338.9z"/>
<path d="M547.2,377.4l31.1-38.5h-11.1l-22.3-27.6v0.1h0v27.4h-0.1v38.7C545.6,377.5,546.4,377.5,547.2,377.4z"/>
<path d="M448.4,344.3l0,8.8c0.1,0,0.1,0,0.2,0l0.2,0.1c0.1,0.1,4.1,2.1,10.7,4.9L448.4,344.3z"/>
<polygon points="589.4,311.4 589.4,338.9 611.8,338.9 589.5,311.4 589.8,311.4 575.1,293.2 574.8,293.2 574.8,311.4 567.1,311.4 
	567.1,338.9 589.4,311.4 "/>
<polygon points="619.6,293.2 619.6,311.4 634.3,293.2 "/>
<polygon points="604.7,293.2 604.7,311.4 611.8,311.4 611.8,338.9 634,311.4 619.6,311.4 604.9,293.2 611.9,293.2 578.4,251.6 
	578.3,251.6 578.3,293.2 589.8,293.2 589.8,311.4 604.4,293.2 "/>
<polygon points="559.9,293.2 559.9,311.4 574.6,293.2 "/>
<polygon points="559.9,311.4 545.2,293.2 545,293.2 545,311.3 545,311.4 "/>
<polygon points="642.8,234.8 634.2,224.1 634.1,224.1 634.1,251.6 611.9,251.6 611.9,293.2 642.7,255 "/>
<polygon points="567.1,251.6 544.9,224 544.9,224.1 544.8,224.1 544.8,251.5 544.7,251.5 544.7,293.2 578.2,251.6 "/>
<path d="M542.3,377.5l-31.1-38.6h11.1l-22.2-27.5h0l-14.7-18.2h-0.2v18.2h-7.4v27.5l22.2-27.5h0.1v27.5h-22.3l-22.2-27.5h14.7
	l-14.7-18.2h14.7v18.2l14.7-18.2h-7.4l-29.2-36.2l0,36.2h7v18.1h-7l0,8.8l7-8.7h0.1v27.5h22.1v26c3.1,1.1,6.4,2.2,9.9,3.2l23.6-29.2
	h0.1v35.2C521.2,376.1,531.8,377.4,542.3,377.5z"/>
<polygon points="511.1,251.6 511.1,293.2 500.1,293.2 500.1,311.4 514.8,293.2 515,293.2 515,311.4 522.3,311.4 522.3,338.9 
	544.6,311.4 529.9,311.4 515.3,293.2 529.9,293.2 529.9,311.4 544.6,293.2 544.7,293.2 511.2,251.6 522.3,251.6 500.1,224.1 
	500.1,224.1 485.2,205.6 485.2,224.1 477.7,224.1 477.7,251.6 499.9,224.1 500,224.1 500,251.6 477.7,251.6 455.5,224.1 
	470.3,224.1 455.3,205.6 455.3,224 448.3,224 448.3,232.8 455.3,224.1 455.3,224.1 455.4,224.1 455.4,251.6 477.5,251.6 
	477.5,293.2 511,251.6 "/>
<polygon points="619.6,205.6 619.6,224.1 634.5,205.6 "/>
<polygon points="604.7,224.1 611.8,224.1 611.8,251.6 634,224.1 619.6,224.1 604.7,205.6 "/>
<polygon points="604.7,205.6 589.8,205.6 589.8,224.1 "/>
<polygon points="589.4,224.1 589.4,224.1 589.4,251.6 611.8,251.6 589.5,224.1 589.8,224.1 574.8,205.6 574.8,224.1 567.1,224.1 
	567.1,251.6 "/>
<polygon points="559.9,205.6 559.9,224.1 574.8,205.6 "/>
<polygon points="545,224 545,224.1 559.9,224.1 545,205.6 "/>
<polygon points="529.9,205.6 529.9,224.1 544.9,205.6 "/>
<polygon points="515,224.1 522.3,224.1 522.3,251.6 544.6,224.1 529.9,224.1 515,205.6 "/>
<polygon points="515,205.6 500.1,205.6 500.1,224.1 "/>
<polygon points="485.2,205.6 470.3,205.6 470.3,224.1 "/>
<path d="M642.8,167.1l0-16.4c-0.6-0.2-1-0.5-1.4-0.9c-0.9-1.1-2.1-2.9-3.1-4.7c-1.3-2.1-2.8-5.1-4.2-8.8h-0.1v27.5h-22.1v41.5
	L642.8,167.1z"/>
<polygon points="578.4,163.9 578.3,163.9 578.3,205.4 611.9,205.4 "/>
<polygon points="544.9,136.3 544.9,136.4 544.8,136.4 544.8,163.8 544.7,163.8 544.7,205.4 578.2,163.9 567.1,163.9 "/>
<polygon points="448.3,169.2 448.3,205.4 477.5,205.4 "/>
<polygon points="589.5,136.4 589.8,136.4 575.1,118.2 574.8,118.2 574.8,136.4 567.1,136.4 567.1,163.9 589.4,136.4 589.4,136.4 
	589.4,163.9 611.8,163.9 "/>
<path d="M629.6,118.2h-10v18.2l11-13.6C630.3,121.3,630,119.8,629.6,118.2z"/>
<polygon points="578.4,76.6 578.3,76.6 578.3,118.2 589.8,118.2 589.8,136.4 604.4,118.2 604.7,118.2 604.7,136.4 611.8,136.4 
	611.8,163.9 634,136.4 619.6,136.4 604.9,118.2 611.9,118.2 "/>
<polygon points="559.9,118.2 559.9,136.4 574.6,118.2 "/>
<polygon points="545.2,118.2 545,118.2 545,136.2 545,136.4 559.9,136.4 "/>
<path d="M623.2,97.9c-3-7.1-6.8-13.3-11.3-18.6v38.8l13-16.1C624.4,100.7,623.8,99.3,623.2,97.9z"/>
<polygon points="578.2,76.6 567.1,76.6 544.9,49 544.9,49.1 544.8,49.1 544.8,76.5 544.7,76.5 544.7,118.2 "/>
<path d="M465.7,103.5c-1.9,5.2-3.2,10.2-4.2,14.7h8.8v18.2l14.7-18.2h-7.4L465.7,103.5z"/>
<path d="M460.3,124c-0.1,0.3-0.1,0.7-0.2,1c-0.2,1.2-0.5,2.3-0.7,3.3c-0.6,3-1.5,5.7-2.4,8h13.3L460.3,124z"/>
<path d="M511.2,163.9h11.1l-22.2-27.5h0l-14.7-18.2h-0.2v18.2h-7.4v27.5l22.2-27.5h0.1v27.5h-22.3l-21.2-26.3
	c-0.3,0.9-0.7,1.7-1.1,2.5v23.9h22.1v41.5l33.5-41.5H511.2l-0.1,41.5h33.6L511.2,163.9z"/>
<path d="M583,57l-11.3-7.8c-0.1,0-0.1-0.1-0.1-0.1h-4.4v27.5L583,57z"/>
<path d="M589.4,61.4v15.2h20c-4-4.2-8.4-7.8-13.4-10.7c-0.1,0-0.1-0.1-0.1-0.1L589.4,61.4z"/>
<path d="M559.9,47.3v1.8l1.4-1.8C560.9,47.3,560.4,47.3,559.9,47.3z"/>
<path d="M545,47.1L545,47.1C545,47.1,545,47.1,545,47.1l0,1.9v0.1h14.9l-1.5-1.8C553.8,47.1,549.3,47.1,545,47.1z"/>
<path d="M529.9,47.3v1.8l1.5-1.8C530.9,47.3,530.4,47.3,529.9,47.3z"/>
<path d="M544.6,49.1h-14.6l-1.4-1.8c-2.1,0.1-4.2,0.1-6.3,0.2c-0.1,0.6-0.4,1.1-0.9,1.5h1v27.5L544.6,49.1z"/>
<path d="M514.8,118.2h0.2v18.2h7.3v27.5l22.2-27.5h-14.6l-14.7-18.2h14.7v18.2l14.7-18.2h0.1l-33.5-41.5h11.1l-15-18.6l-7.3,4.7
	v13.9h-18.4c-1.4,1.5-2.8,3.1-4.1,4.7v36.8L511,76.6h0.1v41.5h-11v18.2L514.8,118.2z"/>
<path d="M284.2,106h12.2v-0.1h-12.3C284.2,105.9,284.2,106,284.2,106z"/>
<polygon points="296.6,106 296.6,106.2 325.9,106.2 325.9,106.1 325.9,106 "/>
<polygon points="326.6,72.1 326.1,72.4 326.1,72.5 328.1,72.5 "/>
<polygon points="296.5,106 296.6,106 296.6,106 325.9,106 325.9,106.1 360.2,106.1 361.7,99.4 326.1,72.6 326.1,83.7 "/>
<polygon points="277.1,75.8 277.1,76 296.6,76 296.6,83.7 326.1,83.7 299.8,64 294.8,62.4 "/>
<path d="M259.9,51.9l-9.5,7.1c-0.3,1.8-0.6,3.7-1,5.6l2.4,0.9c4.7,1.8,8.5,4.1,12,7h13.2V61.1h13.3L259.9,51.9z"/>
<path d="M277.1,76.3v13.5c0.2,0.4,0.4,0.8,0.7,1.2h18.8L277.1,76.3z"/>
<path d="M284.2,105.9h12.3h0.1V91l-13.9,10.5C283.2,102.9,283.7,104.4,284.2,105.9z"/>
<polygon points="299.6,148.5 312,150.8 326.1,150.8 326.1,153.5 348.9,157.9 349.1,157.2 326.1,139.8 326.1,139.7 352.9,139.7 
	358.2,115.5 326.1,139.6 326.1,128.5 "/>
<path d="M286.1,113.1c0.7,2.8,1.2,5.5,1.7,7.9h8.8L286.1,113.1z"/>
<path d="M291.7,135.9h4.9v-7.3h29.5l-29.5-22.2v14.6l-7.6,5.7c0,0.2,0.1,0.5,0.1,0.7C289.8,130.5,290.7,133.3,291.7,135.9z"/>
<rect x="89.6" y="105.9" width="19.4" height="0.1"/>
<path d="M109.1,106.2h11.6c0-0.1,0-0.1,0.1-0.2h-11.6V106.2z"/>
<path d="M138.6,72.4L138.6,72.4l1.9,0.1c3-2.4,6.4-4.3,10.2-6.1l5.1-2.3l-0.5-1.5c-0.2-0.8-0.4-1.6-0.5-2.4L138.6,72.4z"/>
<path d="M138.6,72.6v1.4c0.3-0.3,0.6-0.5,0.9-0.8L138.6,72.6z"/>
<path d="M124.9,94.5c0.1-0.3,0.2-0.5,0.3-0.7L109,106h0.1v0h11.6C121.9,102.3,123.3,98.4,124.9,94.5z"/>
<polygon points="138.6,61.4 138.6,53.9 113.8,61.4 "/>
<path d="M110.3,62.5l-5.1,1.5L89.6,75.8V76h19.5v7.7h21.4c0.9-1.4,1.8-2.8,2.8-4L110.3,62.5z"/>
<polygon points="77.1,72.5 89.6,72.5 89.6,68.7 "/>
<polygon points="89.6,91 109.1,91 89.6,76.3 "/>
<polygon points="109.1,105.9 109.1,91 89.6,105.6 89.6,105.9 108.9,105.9 "/>
<polygon points="45,106.1 89.6,106.1 54.2,79.5 45.1,82.2 45.1,83.7 40.8,86.9 "/>
<polygon points="40.1,83.7 40.2,83.7 45.1,83.7 43.7,82.7 "/>
<polygon points="53.8,146.4 56.3,157.9 66.4,155.9 "/>
<path d="M52.4,139.7h37.2v11h2.6l13.4-2.7l-16-12v-0.2h19.5v-7.3h6.1c0.1-0.4,0.2-0.9,0.3-1.3l0.5-2.1c0.7-3.1,1.5-7.1,2.7-11.6
	l-9.5-7.2v14.6l-19.5,14.7v-14.7h19.5l-19.5-14.7v-0.1l-38.3,28.8L52.4,139.7z"/>
<path d="M444.2,106h19.4c0,0,0,0,0,0v-0.1h-19.4V106z"/>
<polygon points="389.7,106 389.7,106.2 399.6,106.2 399.6,106.1 399.6,106 "/>
<path d="M481.6,75l-17.9-13.5v-0.1h29.5V50.8l-7.8,2.4l-18.1,5.5l-3.6,2.7v-0.2l-19.5,14.7V76h19.5v7.7h10.5
	C476.4,80.6,478.9,77.7,481.6,75z"/>
<polygon points="459.1,61.1 463.7,61.1 462.4,60.1 "/>
<polygon points="421.6,72.5 444.2,72.5 444.2,65.6 "/>
<polygon points="444.2,91 463.7,91 444.2,76.3 "/>
<path d="M463.7,91l-19.5,14.7v0.2h19.4h0c0-0.1,0.1-0.2,0.1-0.3V91z"/>
<polygon points="405.9,77.3 399.7,79.2 399.7,83.7 386.9,93.4 389.7,106 399.6,106 399.6,106.1 444.2,106.1 "/>
<polygon points="384.7,83.7 384.7,83.7 399.7,83.7 395.4,80.5 "/>
<polygon points="394.7,128.5 399.7,128.5 393.7,124 "/>
<path d="M444.2,106.2v-0.1l-44.5,33.5v-11.1l-4.3,3.2l4.3,19.1h0v0.2l1.4,6.1l17.2-3.4l-18.6-14v-0.1h44.5v9l4.7-0.9
	c0.1-0.2,0.3-0.4,0.5-0.6c0.7-0.9,1.7-2.3,2.8-4.1c0.1-0.2,0.2-0.4,0.4-0.6l-8.4-6.3v-0.2h11.6c1-2.5,2-5.4,2.7-8.7
	c0.2-0.8,0.4-1.7,0.6-2.7l-14.8,11.2v-14.7h15.6c0.2-0.8,0.4-1.7,0.5-2.5L444.2,106.2z"/>
<rect x="631.7" y="105.9" width="19.4" height="0.1"/>
<polygon points="651.2,106 651.2,106.2 680.6,106.2 680.6,106.1 680.6,106 "/>
<polygon points="685.7,76.4 680.7,74.9 680.7,83.7 651.1,106 651.2,106 651.2,106 680.6,106 680.6,106.1 705.1,106.1 708,93.1 "/>
<polygon points="661.1,69 646.6,64.6 631.7,75.8 631.7,76 651.2,76 651.2,83.7 680.7,83.7 "/>
<path d="M631.7,61.1h3.2l-23.3-7L597.1,65c3.4,2.2,6.7,4.7,9.8,7.6h24.8V61.1z"/>
<polygon points="631.7,91 651.2,91 631.7,76.3 "/>
<polygon points="631.7,105.9 651.1,105.9 651.2,105.9 651.2,91 631.7,105.6 "/>
<path d="M627.7,106.1h4l-5.4-4.1C626.8,103.4,627.3,104.8,627.7,106.1z"/>
<polygon points="697.6,139.7 701,124.4 680.7,139.6 680.7,128.5 652.7,149.6 659.4,150.8 680.7,150.8 680.7,154.8 693.7,157.2 
	695.1,150.7 680.7,139.8 680.7,139.7 "/>
<path d="M631.7,106.1l-3.2,2.4c1.4,4.7,2.4,9,3.2,12.9v-0.5h19.5l-19.5-14.7V106.1z"/>
<path d="M651.2,120.9l-16.6,12.5c0.3,0.9,0.6,1.7,0.9,2.5h15.6v-7.3h29.5l-29.5-22.2V120.9z"/>
<path d="M639.2,143.2c1,1.7,2.1,3.3,2.9,4.3c0.3,0.1,3.3,0.7,4,0.8c1.2,0.2,1.7,0.3,1.9,0.4l0.7,0.1l-10.9-8.2
	C638.2,141.6,638.7,142.5,639.2,143.2z"/>
<path d="M587.2,58.3v-10c-3.4-0.1-7.6-0.3-11.6-0.5l-1.7,1.3L587.2,58.3z"/>
</svg>
