<?xml version="1.0" encoding="utf-8"?>
<!-- Generator: Adobe Illustrator 25.3.0, SVG Export Plug-In . SVG Version: 6.00 Build 0)  -->
<svg version="1.1" id="Layer_1" xmlns="http://www.w3.org/2000/svg" xmlns:xlink="http://www.w3.org/1999/xlink" x="0px" y="0px"
	 viewBox="0 0 750.2 400.1" style="enable-background:new 0 0 750.2 400.1;" xml:space="preserve">
<g>
	<polygon points="643.3,166.6 643.3,161.7 643.3,161.7 	"/>
	<path d="M202.5,131.2l58.9-58.9c-0.6-0.5-1.3-1-1.9-1.4l-57,57l-57.2-57.2c-0.7,0.4-1.3,0.9-2,1.4l58.3,58.3L202.5,131.2z"/>
	<path d="M202.6,161.2l72.5-72.5c-0.4-0.7-0.8-1.4-1.2-2.1l-71.3,71.3l-71.9-71.9c-0.4,0.7-0.8,1.4-1.3,2.1l72.4,72.4L202.6,161.2z"
		/>
	<path d="M202.7,191.1l81.1-81.1c-0.2-0.8-0.5-1.7-0.8-2.6l-80.3,80.3l-81.2-81.2c-0.3,0.9-0.5,1.7-0.8,2.6l81.1,81.1L202.7,191.1z"
		/>
	<path d="M202.8,224.1l87.7-87.7c-0.3-0.8-0.6-1.6-0.9-2.5l-86.8,86.8l-87.9-87.9c-0.3,0.9-0.6,1.7-0.8,2.5l87.9,87.9L202.8,224.1z"
		/>
	<polygon points="203,254.1 299.7,157.3 299.7,154 203,250.8 105.2,153 105.2,156.3 202.1,253.3 	"/>
	<polygon points="203.1,284.1 299.7,187.4 299.7,184.1 203.1,280.7 105.2,182.8 105.2,186.2 202.2,283.2 	"/>
	<polygon points="203.2,314.1 299.7,217.6 299.7,214.2 203.2,310.7 105.2,212.7 105.2,216.1 202.4,313.2 	"/>
	<polygon points="203.3,343 299.7,246.7 299.7,243.3 203.3,339.7 105.2,241.6 105.2,245 202.5,342.2 	"/>
	<path d="M212.3,364.1l87.3-87.3l0-3.3l-90.8,90.8C210,364.2,211.2,364.1,212.3,364.1z"/>
	<path d="M198.2,364.5l-93-93l0,3.3l89.7,89.7C196,364.5,197.1,364.5,198.2,364.5z"/>
	<path d="M299.6,306.9l0-3.3l-58,58c1.3-0.1,2.5-0.3,3.8-0.4L299.6,306.9z"/>
	<path d="M166.6,362.7l-61.3-61.3l0,3.3l57.6,57.6C164.1,362.4,165.3,362.6,166.6,362.7z"/>
	<path d="M299.6,337.1l0-3.3l-23.2,23.2c1.4-0.2,2.7-0.4,4-0.6L299.6,337.1z"/>
	<path d="M132,358l-26.8-26.8l0,3.3l22.7,22.7C129.3,357.5,130.6,357.8,132,358z"/>
	<path d="M202.5,145.9l66.4-66.4c-0.5-0.6-1-1.2-1.6-1.8l-64.8,64.8l-65.2-65.2c-0.5,0.6-1.1,1.2-1.6,1.8l66,66L202.5,145.9z"/>
	<path d="M202.6,175.9l77.3-77.3c-0.3-0.8-0.6-1.6-1-2.4l-76.3,76.3l-77-77c-0.1,0.2-0.1,0.3-0.2,0.5c-0.3,0.6-0.5,1.3-0.8,1.9
		l77.1,77.1L202.6,175.9z"/>
	<path d="M202.7,205.8l84-84c-0.2-0.9-0.4-1.8-0.6-2.7l-83.4,83.4l-84.3-84.3c-0.2,0.9-0.4,1.8-0.6,2.7l84.1,84.1L202.7,205.8z"/>
	<path d="M202.8,238.8l92.6-92.6c-0.4-0.6-0.8-1.3-1.3-2.1l-91.4,91.4l-92.3-92.3c-0.4,0.8-0.8,1.5-1.2,2.1L202,238L202.8,238.8z"/>
	<polygon points="203,268.8 299.7,172 299.7,168.7 203,265.4 105.2,167.7 105.2,171 202.1,267.9 	"/>
	<polygon points="203.1,298.8 299.7,202.1 299.7,198.8 203.1,295.4 105.2,197.5 105.2,200.9 202.2,297.9 	"/>
	<polygon points="203.2,330.7 299.7,234.3 299.7,230.9 203.2,327.4 105.2,229.4 105.2,232.7 202.4,329.9 	"/>
	<polygon points="203.3,356.7 299.6,260.4 299.6,257 203.3,353.4 105.2,255.3 105.2,258.6 202.5,355.9 	"/>
	<path d="M227,363.1l72.6-72.6l0-3.3l-76.2,76.2C224.6,363.3,225.8,363.2,227,363.1z"/>
	<path d="M184.2,364.1l-78.9-78.9l0,3.3l75.4,75.4C181.8,364,183,364,184.2,364.1z"/>
	<path d="M151,360.8L105.2,315l0,3.3l41.9,41.9C148.4,360.5,149.7,360.7,151,360.8z"/>
	<path d="M299.6,320.6l0-3.3l-42.4,42.4c1.3-0.2,2.6-0.4,3.9-0.5L299.6,320.6z"/>
	<path d="M292.8,354.1c1.6-0.3,3-0.5,4.1-0.7l2.7-2.7l0-3.3L292.8,354.1z"/>
	<path d="M115.4,355l-10.1-10.1l0,3.3l5.9,5.9C112.4,354.4,113.8,354.7,115.4,355z"/>
	<path d="M201.5,115.1l0.8,0.8l14.7-14.7c-1.4,0.4-2.9,0.8-4.4,1l-10.3,10.3L192,102.2c-1.5-0.3-3-0.6-4.4-1L201.5,115.1z"/>
	<path d="M251.6,66.6c-0.2-0.1-0.4-0.2-0.6-0.3l-1.9-0.5l-0.4,0.4c-0.4,1.6-1,3.2-1.6,4.9L251.6,66.6z"/>
	<path d="M156.1,66.3l-0.6-0.6l-1.5,0.4c-0.3,0.1-0.7,0.3-1,0.4l4.7,4.7C157.1,69.6,156.6,67.9,156.1,66.3z"/>
	<polygon points="543.5,89.7 510.1,56.3 508.1,57.6 542.7,92.2 543.5,93.1 581,55.6 579,54.2 	"/>
	<path d="M543.7,119.7l-51.8-51.8c-0.7,0.4-1.3,0.9-2,1.4l52.9,52.9l0.8,0.8L599,67.7c-0.7-0.4-1.4-0.9-2-1.3L543.7,119.7z"/>
	<path d="M543.8,149.7l-67.1-67.1c-0.5,0.6-0.9,1.3-1.4,1.9l67.7,67.7l0.8,0.8l70.6-70.6c-0.5-0.6-1-1.3-1.5-1.9L543.8,149.7z"/>
	<path d="M543.9,182.7l-78.5-78.5c-0.3,0.8-0.6,1.7-0.8,2.5l78.5,78.5l0.8,0.8l81.8-81.8c-0.3-0.8-0.6-1.6-0.9-2.5L543.9,182.7z"/>
	<path d="M544,212.6L459.4,128c0,0.1,0,0.2-0.1,0.3c-0.2,0.8-0.4,1.6-0.6,2.4l84.4,84.4l0.8,0.8l87.7-87.7c-0.2-0.9-0.4-1.8-0.6-2.8
		L544,212.6z"/>
	<path d="M544.1,242.6l-93.8-93.8c-0.2,0.3-0.4,0.5-0.6,0.8c-0.3,0.3-0.5,0.6-0.7,0.8c-0.1,0.1-0.2,0.2-0.2,0.2l94.5,94.5l0.8,0.8
		l96.8-96.8c-0.4-0.6-0.9-1.3-1.4-2L544.1,242.6z"/>
	<polygon points="544.3,272.6 448.3,176.6 448.3,180 543.4,275.1 544.3,275.9 642.8,177.4 642.8,174 	"/>
	<polygon points="544.3,301.6 448.3,205.5 448.3,208.9 543.5,304.1 544.3,304.9 642.8,206.5 642.8,203.1 	"/>
	<polygon points="544.5,331.6 448.3,235.4 448.3,238.7 543.6,334.1 544.5,334.9 642.8,236.6 642.8,233.3 	"/>
	<polygon points="544.6,361.5 448.3,265.3 448.3,268.6 543.8,364 544.6,364.9 642.7,266.7 642.7,263.4 	"/>
	<path d="M559.6,376.6c1.3-0.1,2.5-0.3,3.8-0.4l79.4-79.4l0-3.3L559.6,376.6z"/>
	<path d="M448.3,298.5l78,78c1.2,0.1,2.5,0.3,3.7,0.4l-81.7-81.7L448.3,298.5z"/>
	<path d="M491.8,369.4L448.3,326l0,3.3L487,368C488.6,368.5,490.2,369,491.8,369.4z"/>
	<path d="M598.3,369c1.6-0.4,3.2-0.9,4.7-1.3l39.7-39.7l0-3.3L598.3,369z"/>
	<path d="M542.6,62.3l0.8,0.8l15.8-15.8c-1.1,0-2.2-0.1-3.3-0.1l-12.6,12.6l-12.5-12.5c-1.1,0-2.2,0.1-3.3,0.1L542.6,62.3z"/>
	<polygon points="501.1,62 499.1,63.3 542.7,106.9 543.5,107.8 589.7,61.6 587.7,60.2 543.5,104.4 	"/>
	<path d="M483.7,74.5c-0.6,0.5-1.1,1.1-1.7,1.7l60.7,60.7l0.8,0.8l63.5-63.5c-0.6-0.5-1.2-1.1-1.7-1.6l-61.7,61.7L483.7,74.5z"/>
	<path d="M470.9,91.5c-0.4,0.7-0.8,1.5-1.1,2.2l73.1,73.1l0.8,0.8l76.3-76.3c-0.4-0.7-0.8-1.4-1.2-2.1l-75.1,75.1L470.9,91.5z"/>
	<path d="M462.1,115.6c-0.2,0.9-0.4,1.8-0.6,2.7l81.6,81.6l0.8,0.8l85.1-85.1c-0.2-0.9-0.4-1.8-0.7-2.7l-84.4,84.4L462.1,115.6z"/>
	<path d="M455.8,139.1c-0.4,0.8-0.7,1.6-1.1,2.3l88.4,88.4l0.8,0.8l91.3-91.3c-0.3-0.7-0.7-1.5-1-2.4L544,227.3L455.8,139.1z"/>
	<polygon points="448.3,161.4 448.3,164.8 543.3,259.8 544.1,260.6 642.8,161.9 642.8,158.6 544.1,257.3 	"/>
	<polygon points="448.3,193.3 448.3,196.7 543.4,291.8 544.3,292.6 642.8,194.1 642.8,190.7 544.3,289.3 	"/>
	<polygon points="448.3,219.2 448.3,222.6 543.5,317.8 544.3,318.6 642.8,220.2 642.8,216.8 544.3,315.3 	"/>
	<polygon points="448.3,249.1 448.3,252.4 543.6,347.7 544.5,348.6 642.7,250.3 642.8,247 544.5,345.2 	"/>
	<path d="M448.3,278.9l0,3.3l95.2,95.2c0.1,0,0.2,0,0.3,0c0.6,0,1.3,0,1.9,0l97-97l0-3.3l-98.1,98.1L448.3,278.9z"/>
	<path d="M448.3,312.2l61.7,61.7c1.4,0.3,2.7,0.5,4.1,0.8l-65.8-65.8L448.3,312.2z"/>
	<path d="M642.7,307.2l-67.1,67.1c1.4-0.3,2.8-0.5,4.1-0.8l63-63L642.7,307.2z"/>
	<path d="M471.4,362.7l-23.1-23.1l0,3.3l17.6,17.6C467.7,361.3,469.5,362,471.4,362.7z"/>
	<path d="M642.7,338.3l-24.4,24.4c1.8-0.6,3.6-1.3,5.2-1.9l19.2-19.2L642.7,338.3z"/>
	<path d="M543.4,77.8l28.5-28.5l-0.2-0.1c-0.5-0.4-0.9-0.9-1-1.6c-0.2,0-0.3,0-0.5,0l-26.8,26.8l-24.1-24.1l-2,1.3l25.3,25.3
		L543.4,77.8z"/>
</g>
</svg>
