<?xml version="1.0" encoding="utf-8"?>
<!-- Generator: Adobe Illustrator 25.3.0, SVG Export Plug-In . SVG Version: 6.00 Build 0)  -->
<svg version="1.1" id="Layer_1" xmlns="http://www.w3.org/2000/svg" xmlns:xlink="http://www.w3.org/1999/xlink" x="0px" y="0px"
	 viewBox="0 0 750.2 400.1" style="enable-background:new 0 0 750.2 400.1;" xml:space="preserve">
<g>
	<polygon points="643.3,161.7 643.3,166.6 643.3,161.7 	"/>
	<path d="M262.4,338.5l-19.9,22.2l-37-6.7l-9.5,10.6c1.5,0,3,0,4.5,0c3.2,0,6.4-0.1,9.7-0.3l0.8-0.9l3.8,0.7
		c14.3-0.8,29.2-2.5,42.5-4.3l10.6-11.8l25,4.6l-1.8,2.1c4.4-0.8,7.4-1.3,8.4-1.5l0-7.9l-0.1,0.1L262.4,338.5z"/>
	<path d="M251.3,297.2l-19.5,20.6l-34.7-6.9l-19.5,20.6l-34.7-6.9l-19.5,20.6l-18.3-3.6l0,7.1l15.6,3.1l-3.3,3.5
		c4.1,0.8,9,1.7,14.5,2.6l3.6-3.8l34.7,6.9l19.5-20.6l34.7,6.9l19.5-20.6l34.7,6.9l19.5-20.6l1.4,0.3l0-23.5L286,304L251.3,297.2z
		 M161.8,352.2l-23.5-4.6l13.2-14l23.5,4.6L161.8,352.2z M216,338.4l-23.5-4.6l13.1-14l23.5,4.6L216,338.4z M270.1,324.6l-23.5-4.6
		l13.2-14l23.5,4.6L270.1,324.6z"/>
	<path d="M269.9,270.9l-32.4-7l-19,19.1l-32.4-7l-19,19.1l-32.4-7l-19,19.1l-10.4-2.2l0,5.8l11.4,2.5l-11.4,11.5l0,7.6l10.1,2.2
		l19-19.1l32.4,7l19-19.1l32.4,7l19-19.1l32.4,7l19-19.1l10.9,2.4l0-5.9l-12-2.6l12-12.1l0-6.9l-10.7-2.3L269.9,270.9z M155.2,314.2
		l-21.9-4.7l12.9-12.9l21.9,4.7L155.2,314.2z M206.7,302l-21.9-4.7l12.9-12.9l21.9,4.7L206.7,302z M258.1,289.9l-21.9-4.7l12.9-12.9
		L271,277L258.1,289.9z"/>
	<path d="M253.8,237.8l-30.1-7.2l-18.6,17.6l-30.1-7.2l-18.6,17.6l-30.1-7.2l-18.6,17.6l-2.4-0.6l0,4.4l7.2,1.7l-7.2,6.9l0,10.7
		l9.2,2.2l18.6-17.6l30.1,7.2l18.6-17.6l30.1,7.2l18.6-17.6l30.1,7.2l18.6-17.6l20.4,4.9l0-10.2l-4.9,4.6l-20.4-4.8l12.6-11.9
		l12.7,3l0-4.4l-27.3-6.5L253.8,237.8z M148.6,276.2l-20.4-4.8l12.6-11.9l20.4,4.8L148.6,276.2z M197.3,265.7l-20.4-4.8l12.6-11.9
		l20.4,4.8L197.3,265.7z M246.1,255.3l-20.4-4.8l12.6-11.9l20.4,4.8L246.1,255.3z"/>
	<path d="M255.9,188.6l-18.1,16.1l-27.9-7.3l-18.1,16.1l-27.9-7.3l-18.1,16.1l-27.9-7.3l-12.7,11.2l0,9l3.1,0.8l-3.1,2.7l0,13.3
		l8.4,2.2l18.1-16.1l27.9,7.3l18.1-16.1l27.9,7.3l18.1-16.1l27.9,7.3l18.1-16.1l27.9,7.3l2.1-1.8l0-35.5l-16,14.1L255.9,188.6z
		 M142,238.2l-18.8-4.9l12.3-10.9l18.8,4.9L142,238.2z M188,229.4l-18.8-4.9l12.3-10.9l18.8,4.9L188,229.4z M234,220.6l-18.8-4.9
		l12.3-10.9l18.8,4.9L234,220.6z M280,211.8l-18.8-4.9l12.3-10.9l18.8,4.9L280,211.8z"/>
	<path d="M265,164.5l-25.6-7.4l-17.7,14.6l-25.6-7.4l-17.7,14.6l-25.6-7.4l-17.7,14.6l-25.6-7.4l-4.3,3.6l0,30l7.5,2.2l17.7-14.6
		L156,207l17.7-14.6l25.6,7.4l17.7-14.6l25.6,7.4l17.7-14.6l25.6,7.4l13.9-11.4l0-5.1l-8.5-2.5l8.5-7l0-4.8l-17.1-5L265,164.5z
		 M135.4,200.2l-17.3-5l12-9.8l17.3,5L135.4,200.2z M178.7,193l-17.3-5l12-9.8l17.3,5L178.7,193z M222,185.9l-17.3-5l12-9.8l17.3,5
		L222,185.9z M265.3,178.8l-17.3-5l12-9.8l17.3,5L265.3,178.8z"/>
	<polygon points="211.2,150.3 233.5,157.6 249.6,145.5 234.8,140.6 245.2,132.7 222.9,125.5 206.8,137.6 221.6,142.4 	"/>
	<polygon points="249.6,145.5 250.5,145.8 251.7,144.9 250.8,144.5 	"/>
	<polygon points="251.7,144.9 274.1,152.1 290.2,140 275.4,135.2 285.8,127.3 263.4,120 247.4,132.1 262.2,136.9 	"/>
	<polygon points="127.9,161.9 128.8,162.2 130,161.2 129.1,160.9 	"/>
	<polygon points="130,161.2 152.4,168.5 168.4,156.4 153.6,151.6 164.1,143.7 141.7,136.4 125.7,148.5 140.5,153.3 	"/>
	<path d="M127.9,161.9l-14.8-4.8l10.5-7.9l-13.8-4.5c-1.8,3-3.4,5-4.2,5.9c-0.1,0.1-0.2,0.2-0.4,0.4l0,21l6.6,2.2L127.9,161.9z"/>
	<polygon points="125.7,148.5 124.7,148.2 123.5,149.1 124.5,149.4 	"/>
	<polygon points="168.4,156.4 169.4,156.7 170.6,155.8 169.6,155.5 	"/>
	<path d="M287.8,126.8c0-0.1,0-0.1,0-0.2l-0.7-0.2l-1.2,0.9l0.9,0.3L287.8,126.8z"/>
	<polygon points="170.6,155.8 193,163.1 209,150.9 194.2,146.1 204.7,138.2 182.3,130.9 166.2,143.1 181.1,147.9 	"/>
	<polygon points="247.4,132.1 246.4,131.8 245.2,132.7 246.2,133 	"/>
	<path d="M291.9,139.7c-0.1-0.2-0.2-0.3-0.2-0.5l-0.3-0.1l-1.2,0.9l0.9,0.3L291.9,139.7z"/>
	<polygon points="209,150.9 210,151.2 211.2,150.3 210.2,150 	"/>
	<polygon points="166.2,143.1 165.3,142.8 164.1,143.7 165,144 	"/>
	<polygon points="206.8,137.6 205.9,137.3 204.7,138.2 205.6,138.5 	"/>
	<path d="M148.8,130l16.8-11.5l21,7.7l16.8-11.5l21,7.7l16.8-11.5l21,7.7l16.8-11.5l4.2,1.5c-0.5-1.7-1.1-3.5-1.7-5.2l-8.1,5.5
		l-14.2-5.2l11.4-7.8l9.5,3.5c-0.5-1.2-1-2.4-1.5-3.6c-0.8-1.9-1.7-3.7-2.7-5.5l-10.9,7.4l-21-7.7l-16.8,11.5l-5.6-2.1
		c-5.5,2.3-11.6,3.5-18.3,3.6l-1.9,0c-2.7,0-5.3-0.2-7.8-0.6l-4.2,2.9l-21-7.7l-16.8,11.5l-21-7.7l-9.5,6.5c-0.4,1.2-0.7,2.3-1,3.4
		l13.5,4.9l-11.4,7.8l-4.8-1.8c-0.3,1.3-0.5,2.5-0.8,3.6l-0.5,2.2c-0.2,0.8-0.4,1.7-0.6,2.5l12.2-8.3L148.8,130z M232.9,99.7
		l14.2,5.2l-11.4,7.8l-14.2-5.2L232.9,99.7z M195.1,103.5l14.2,5.2l-11.4,7.8l-14.2-5.2L195.1,103.5z M157.2,107.4l14.2,5.2
		l-11.4,7.8l-14.2-5.2L157.2,107.4z"/>
	<path d="M161.6,81.5l1.4,0.6c-0.9-1.4-1.7-2.8-2.4-4.2l-9.9,6l-12.7-5.3l11.1-6.8l10.8,4.5c-1.8-3.7-3-7.4-4-10.8l-1.9,0.5
		c-9.7,3.8-17.3,10.1-23.2,19.3l14.3,6L161.6,81.5z"/>
	<path d="M251,66.4l-2.1-0.6c-0.4,1.3-0.8,2.6-1.2,4l4.7-2.8C251.8,66.7,251.4,66.5,251,66.4z"/>
	<path d="M265.6,76c-0.9-0.9-1.8-1.7-2.7-2.5l-6.7,4.1l-9.9-4.2c-1.1,2.7-2.4,5.4-4.1,8.1l8.4,3.5L265.6,76z"/>
	<path d="M558.3,376.1l-19.9-22.2l-37,6.7l-19.9-22.2l-33.2,6.1l0,8.5c0.1,0,0.1,0,0.2,0l0.2,0.1c0.1,0,1.9,1,5.2,2.5l-2.9-3.2
		l25-4.6l13.4,15l-11.9,2.2c5.2,1.8,10.9,3.6,17,5.3l1.3-0.2l0.7,0.8c5.6,1.5,11.4,2.8,17.4,3.9l-6.1-6.8l25-4.6l12.8,14.2
		c17-0.2,34.6-3.6,50-7.7l-0.4-0.4L558.3,376.1z"/>
	<path d="M601,324.7l-34.7,6.9l-19.5-20.6l-34.7,6.9l-19.5-20.6L458,304l-9.7-10.3l0,21.7l17,18l34.7-6.9l19.5,20.6l34.7-6.9
		l19.5,20.6l34.7-6.9l8.5,9.1c4.7-1.6,8.9-3.2,12.5-4.6l-6.2-6.6l19.4-3.9l0-7.1l-22.2,4.3L601,324.7z M473.9,324.6l-13.2-14
		l23.5-4.6l13.2,14L473.9,324.6z M528,338.4l-13.1-14l23.5-4.6l13.1,14L528,338.4z M582.2,352.2l-13.2-14l23.5-4.6l13.2,14
		L582.2,352.2z"/>
	<path d="M609.4,288.1l-32.4,7L558,276l-32.4,7l-19-19.1l-32.4,7l-19-19.1l-6.8,1.5l0,11.7l8.1,8.1l-8.1,1.7l0,5.9l7-1.5l19,19.1
		l32.4-7l19,19.1l32.4-7l19,19.1l32.4-7l19,19.1l14-3l0-5.9l-2.4,0.5l-12.9-12.9l15.3-3.3l0-5.8l-14.3,3L609.4,288.1z M485.9,289.9
		L473.1,277l21.9-4.7l12.9,12.9L485.9,289.9z M537.4,302l-12.9-12.9l21.9-4.7l12.9,12.9L537.4,302z M588.8,314.2L576,301.2l21.9-4.7
		l12.9,12.9L588.8,314.2z"/>
	<path d="M617.8,251.6l-30.1,7.2l-18.6-17.6l-30.1,7.2l-18.6-17.6l-30.1,7.2l-18.6-17.6l-23.3,5.5l0,4.4l8.8-2.1l12.6,11.9
		l-20.4,4.8l-0.9-0.9l0,5.5l16.5-3.9l18.6,17.6l30.1-7.2l18.6,17.6l30.1-7.2l18.6,17.6l30.1-7.2l18.6,17.6l13.1-3.1l0-6.1
		l-11.1-10.6l11.2-2.6l0-4.4l-6.4,1.5L617.8,251.6z M498,255.3l-12.6-11.9l20.4-4.8l12.6,11.9L498,255.3z M546.7,265.7l-12.6-11.9
		l20.4-4.8l12.6,11.9L546.7,265.7z M595.4,276.2l-12.6-11.9l20.4-4.8l12.6,11.9L595.4,276.2z"/>
	<path d="M598.3,222.3l-18.1-16.1l-27.9,7.3l-18.1-16.1l-27.9,7.3l-18.1-16.1l-27.9,7.3l-12-10.6l0,33.4l26-6.8l18.1,16.1l27.9-7.3
		l18.1,16.1l27.9-7.3l18.1,16.1l27.9-7.3l18.1,16.1l12.3-3.2l0-8.8l-7-6.2l7-1.8l0-4.5L626.2,215L598.3,222.3z M464,211.8
		l-12.3-10.9l18.8-4.9l12.3,10.9L464,211.8z M510,220.6l-12.3-10.9l18.8-4.9l12.3,10.9L510,220.6z M556,229.4l-12.3-10.9l18.8-4.9
		l12.3,10.9L556,229.4z M602,238.2l-12.3-10.9l18.8-4.9l12.3,10.9L602,238.2z"/>
	<path d="M608.9,185.9l-17.7-14.6l-25.6,7.4l-17.7-14.6l-25.6,7.4l-17.7-14.6l-25.6,7.4l-17.7-14.6l-13.1,3.8l0,9.2l4.5,3.7
		l-4.5,1.3l0,9.6l9.9,8.1l25.6-7.4l17.7,14.6l25.6-7.4l17.7,14.6l25.6-7.4L588,207l25.6-7.4l17.7,14.6l11.4-3.3l0-11l-2.9-2.3
		l2.9-0.8l0-11.4l-8.3-6.8L608.9,185.9z M478.7,178.8l-12-9.8l17.3-5l12,9.8L478.7,178.8z M522,185.9l-12-9.8l17.3-5l12,9.8
		L522,185.9z M565.3,193l-12-9.8l17.3-5l12,9.8L565.3,193z M608.6,200.2l-12-9.8l17.3-5l12,9.8L608.6,200.2z"/>
	<polygon points="498.8,132.7 497.6,131.8 496.7,132.1 497.9,133 	"/>
	<polygon points="618.4,148.5 602.3,136.4 579.9,143.7 590.4,151.6 575.6,156.4 591.6,168.5 614,161.2 603.6,153.3 	"/>
	<polygon points="539.4,138.2 538.2,137.3 537.2,137.6 538.4,138.5 	"/>
	<polygon points="579.9,143.7 578.7,142.8 577.8,143.1 579,144 	"/>
	<polygon points="577.8,143.1 561.7,130.9 539.4,138.2 549.8,146.1 535,150.9 551.1,163.1 573.4,155.8 563,147.9 	"/>
	<polygon points="537.2,137.6 521.2,125.5 498.8,132.7 509.3,140.6 494.4,145.5 510.5,157.6 532.9,150.3 522.4,142.4 	"/>
	<path d="M496.7,132.1L480.6,120l-20.9,6.8c-0.1,0.5-0.2,0.9-0.3,1.3l9.3,7l-13,4.2c-0.2,0.5-0.5,1-0.7,1.5l14.9,11.3l22.4-7.3
		l-10.5-7.9L496.7,132.1z"/>
	<polygon points="573.4,155.8 574.7,156.7 575.6,156.4 574.4,155.5 	"/>
	<polygon points="620.5,149.1 619.3,148.2 618.4,148.5 619.6,149.4 	"/>
	<polygon points="532.9,150.3 534.1,151.2 535,150.9 533.8,150 	"/>
	<polygon points="492.3,144.9 493.5,145.8 494.4,145.5 493.2,144.5 	"/>
	<polygon points="614,161.2 615.2,162.2 616.2,161.9 615,160.9 	"/>
	<path d="M641.5,149.8c-0.9-1.1-2.1-2.9-3.1-4.7c-0.3-0.5-0.6-1-0.9-1.5l-17,5.5L631,157l-14.8,4.8l16.1,12.1l10.6-3.4l0-19.8
		C642.3,150.6,641.8,150.3,641.5,149.8z"/>
	<path d="M481.7,118.6l21-7.7l16.8,11.5l21-7.7l16.8,11.5l21-7.7l16.8,11.5l21-7.7l16.8,11.5l0.1,0c-0.6-1.7-1.1-3.5-1.5-5.5
		c-0.2-0.9-0.4-1.9-0.6-2.9l-0.1-0.4c-0.3-1.2-0.5-2.5-0.8-3.9l-8.4,3.1l-11.4-7.8l14.2-5.2l3.9,2.6c-0.2-0.8-0.4-1.6-0.6-2.4
		l-14.5-9.9l-21,7.7l-16.8-11.5l-21,7.7l-16.8-11.5l-21,7.7l-16.8-11.5l-21,7.7l-8.2-5.6c-1,1.8-1.9,3.7-2.7,5.7c0,0,0,0,0,0l5.4-2
		l11.4,7.8l-14.2,5.2l-5.3-3.7c-0.2,0.7-0.4,1.3-0.6,1.9l0.4-0.2L481.7,118.6z M586.8,107.4l11.4,7.8l-14.2,5.2l-11.4-7.8
		L586.8,107.4z M549,103.5l11.4,7.8l-14.2,5.2l-11.4-7.8L549,103.5z M511.1,99.7l11.4,7.8l-14.2,5.2l-11.4-7.8L511.1,99.7z"/>
	<path d="M512.2,77.2l16.4,10l18.8-7.9l16.4,10l18.8-7.9l16.4,10l17-7.1c-2.7-3.9-5.7-7.3-9-10.4l-1.1,0.5l-16.4-10l-18.8,7.9
		l-16.4-10l-18.8,7.9l-16.4-10L500.3,68l-4.4-2.7l-0.8,0.5c-0.8,0.5-1.7,1-2.5,1.6l7.9,4.8l-12.7,5.3l-4.5-2.7
		c-0.9,0.8-1.7,1.7-2.5,2.6l12.6,7.7L512.2,77.2z M594.9,71.9l11.1,6.8L593.3,84l-11.1-6.8L594.9,71.9z M559.8,69.8l11.1,6.8
		l-12.7,5.3l-11.1-6.8L559.8,69.8z M524.6,67.7l11.1,6.8L523,79.7L511.9,73L524.6,67.7z"/>
	<path d="M573.9,50.7l-2.2-1.5c-0.5-0.4-0.9-0.9-1-1.6c-3.6-0.2-7.1-0.3-10.6-0.4l9.9,5.3L573.9,50.7z"/>
	<path d="M547.9,47.1c-1,0-1.9,0-2.8,0h0c-5.1,0-10.6,0.1-16.3,0.3l8.9,4.7L547.9,47.1z"/>
</g>
</svg>
