<?xml version="1.0" encoding="utf-8"?>
<!-- Generator: Adobe Illustrator 25.3.0, SVG Export Plug-In . SVG Version: 6.00 Build 0)  -->
<svg version="1.1" id="Layer_1" xmlns="http://www.w3.org/2000/svg" xmlns:xlink="http://www.w3.org/1999/xlink" x="0px" y="0px"
	 viewBox="0 0 750.2 400.1" style="enable-background:new 0 0 750.2 400.1;" xml:space="preserve">
<g>
	<path d="M134.3,161.7l17.3,2.5l6.7-38.5c-8.4-0.9-13.9-1.7-15.9-1.9C140.4,133.1,137.5,146.5,134.3,161.7z"/>
	<path d="M413.2,159.3l17.3,2.5l6.3-36c-8.4-0.9-13.9-1.7-15.9-1.9C418.9,132.6,416.1,145,413.2,159.3z"/>
	<path d="M329,123c-2.3,0.4-8.8,1.4-18.9,2.6l6.5,37.4l20.4-3C333.9,145,331,132,329,123z"/>
	<path d="M607.3,123c-2.3,0.4-8.8,1.4-18.9,2.6l6.5,37.2l20.3-3C612.2,144.9,609.3,131.9,607.3,123z"/>
</g>
</svg>
