<?xml version="1.0" encoding="utf-8"?>
<!-- Generator: Adobe Illustrator 25.3.0, SVG Export Plug-In . SVG Version: 6.00 Build 0)  -->
<svg version="1.1" id="Layer_1" xmlns="http://www.w3.org/2000/svg" xmlns:xlink="http://www.w3.org/1999/xlink" x="0px" y="0px"
	 viewBox="0 0 750.2 400.1" style="enable-background:new 0 0 750.2 400.1;" xml:space="preserve">
<g>
	<path d="M140.6,132.2c-0.3,1.2-0.6,2.5-0.8,3.8l16.4,2.4l0.7-3.8L140.6,132.2z"/>
	<path d="M133.3,166.6c-0.3,1.3-0.5,2.5-0.8,3.8l17.6,2.6l0.7-3.8L133.3,166.6z"/>
	<path d="M126.5,201.1c-0.2,1.3-0.5,2.6-0.7,3.8l18.3,2.7l0.7-3.8L126.5,201.1z"/>
	<path d="M120.4,235.7c-0.2,1.3-0.4,2.6-0.6,3.9l18.3,2.7l0.7-3.8L120.4,235.7z"/>
	<path d="M115.8,270.6c-0.1,1.3-0.2,2.6-0.3,3.9l16.6,2.4l0.7-3.8L115.8,270.6z"/>
	<path d="M419.1,131.6c-0.3,1.2-0.6,2.5-0.8,3.8l16.3,2.4l0.7-3.8L419.1,131.6z"/>
	<path d="M411.8,166.1c-0.3,1.3-0.5,2.5-0.8,3.8l17.6,2.6l0.7-3.8L411.8,166.1z"/>
	<path d="M404.9,200.6c-0.2,1.3-0.5,2.6-0.7,3.8l18.3,2.7l0.7-3.8L404.9,200.6z"/>
	<path d="M398.8,235.2c-0.2,1.3-0.4,2.6-0.6,3.9l18.3,2.7l0.7-3.8L398.8,235.2z"/>
	<path d="M394.1,270.1c-0.1,1.3-0.2,2.6-0.3,3.9l16.7,2.4l0.7-3.8L394.1,270.1z"/>
	<path d="M311.8,135.3l0.7,3.8l19.4-2.8c-0.3-1.3-0.6-2.6-0.8-3.8L311.8,135.3z"/>
	<path d="M339.2,170.7c-0.3-1.3-0.5-2.6-0.8-3.8l-20.6,3l0.7,3.8L339.2,170.7z"/>
	<path d="M345.9,205.3c-0.2-1.3-0.5-2.6-0.7-3.8l-21.4,3.1l0.7,3.8L345.9,205.3z"/>
	<path d="M351.9,239.9c-0.2-1.3-0.4-2.6-0.6-3.9l-21.4,3.1l0.7,3.8L351.9,239.9z"/>
	<path d="M356.3,274.8c-0.1-1.3-0.2-2.6-0.3-3.9l-20,2.9l0.7,3.8L356.3,274.8z"/>
	<path d="M591.3,136.4l0.6,3.9l18.6-2.7c-0.3-1.3-0.6-2.6-0.8-3.8L591.3,136.4z"/>
	<path d="M617.8,171.9c-0.3-1.3-0.5-2.6-0.8-3.8l-20.6,3l0.2,1.7l0.4,2.2L617.8,171.9z"/>
	<path d="M624.5,206.5c-0.2-1.3-0.5-2.6-0.7-3.8l-21.4,3.1l0.7,3.8L624.5,206.5z"/>
	<path d="M630.4,241.1c-0.2-1.3-0.4-2.6-0.6-3.9l-21.4,3.1l0.7,3.8L630.4,241.1z"/>
	<path d="M634.7,276c-0.1-1.3-0.2-2.6-0.3-3.9l-19.9,2.9l0.7,3.8L634.7,276z"/>
</g>
</svg>
