<?xml version="1.0" encoding="utf-8"?>
<!-- Generator: Adobe Illustrator 25.3.0, SVG Export Plug-In . SVG Version: 6.00 Build 0)  -->
<svg version="1.1" id="Layer_1" xmlns="http://www.w3.org/2000/svg" xmlns:xlink="http://www.w3.org/1999/xlink" x="0px" y="0px"
	 viewBox="0 0 750.2 400.1" style="enable-background:new 0 0 750.2 400.1;" xml:space="preserve">
<g>
	<path d="M427.2,179.4v0.5l9.4-54.1c-8.4-0.9-13.9-1.7-15.9-1.9c-4.9,22-14.7,67.3-21.1,106.1h16.6L427.2,179.4z"/>
	<path d="M328.9,123c-2.2,0.4-8.7,1.4-18.8,2.6l9.4,54.1v-0.3l11.1,50.6h19.7C343.7,190.7,333.8,144.7,328.9,123z"/>
	<path d="M607.4,122.9c-2.3,0.4-8.8,1.4-18.9,2.6l9.5,54.3l0-0.4l11.1,50.6h19.7C622.2,190.7,612.3,144.7,607.4,122.9z"/>
	<path d="M148.7,179.4l0.1,1.5l9.6-55.1c-8.4-0.9-13.9-1.7-15.9-1.9c-4.9,22-14.7,67.3-21.1,106.1h16.3L148.7,179.4z"/>
</g>
</svg>
