<?xml version="1.0" encoding="utf-8"?>
<!-- Generator: Adobe Illustrator 25.3.0, SVG Export Plug-In . SVG Version: 6.00 Build 0)  -->
<svg version="1.1" id="Layer_1" xmlns="http://www.w3.org/2000/svg" xmlns:xlink="http://www.w3.org/1999/xlink" x="0px" y="0px"
	 viewBox="0 0 750.2 400.1" style="enable-background:new 0 0 750.2 400.1;" xml:space="preserve">
<g>
	<path d="M351.3,254.6L351.3,254.6L351.3,254.6l-0.1,0l0,0l-19-2.3l1.2,7.1l18.7,2.3l0,0l0.1,0l0.1,0l0,0l2.6-1
		c-0.3-2.3-0.6-4.7-0.9-7.1L351.3,254.6z"/>
	<path d="M330,239.5l1.1,6.5l19.4,2.4l0.1,0l2.5-0.9c-0.3-2.1-0.6-4.2-1-6.4l-2.2,0.8L330,239.5z"/>
	<path d="M325.4,213.3l3.3,19l20.2,2.2l0,0l0.1,0l0.1,0l0,0l1.9-0.7c-1-6-2.1-12.3-3.2-18.6l-1,0.4L325.4,213.3z"/>
	<path d="M335,268.5l2.4,13.9c6.1-1.3,12.5-2.7,19.1-4.4c-0.1-2.5-0.4-5.3-0.6-8.2l-2.6,1L335,268.5z"/>
	<path d="M397.8,254.6L397.8,254.6L397.8,254.6l-0.1,0l0,0L396,254c-0.3,2.4-0.6,4.8-0.9,7.1l1.6,0.6l0,0l0.1,0l0.1,0l0,0l16.6-2
		l1.2-7.1L397.8,254.6z"/>
	<path d="M399.1,241.9l-1.2-0.5c-0.3,2.2-0.7,4.3-1,6.4l1.5,0.6l0.1,0l17.3-2.1l1.1-6.5L399.1,241.9z"/>
	<path d="M399,234.2l0.9,0.3l0,0l0.1,0l0.1,0l0,0l18.1-2l3.3-19l-19.3,2.1l0,0C401,222,400,228.2,399,234.2z"/>
	<path d="M411.8,268.8l-16.1,2l-1.5-0.6c-0.3,2.8-0.5,5.4-0.6,7.8c5.5,1.4,10.8,2.7,16,3.8L411.8,268.8z"/>
	<path d="M136.4,252.3l-18.7,2.3c-0.3,2.4-0.6,4.8-0.9,7.1l18.4-2.2L136.4,252.3z"/>
	<path d="M138.6,239.5l-19.1,2.3c-0.3,2.2-0.7,4.4-1,6.5l19-2.3L138.6,239.5z"/>
	<path d="M120.6,234.5l19.2-2.1l3.3-19l-19.3,2.1C122.7,221.9,121.6,228.3,120.6,234.5z"/>
	<path d="M133.5,268.5l-17.8,2.2c-0.2,2.6-0.4,5-0.6,7.3c5.5,1.4,10.8,2.7,16,3.8L133.5,268.5z"/>
	<path d="M632.3,253.8l-2.3,0.9l0,0l-0.1,0l-0.1,0l0,0l-19.2-2.4l0.2,1.8l0.9,5.3l19.1,2.3l0,0l0.1,0l0.1,0l0,0l2.2-0.8
		C632.9,258.6,632.6,256.2,632.3,253.8z"/>
	<path d="M629.2,248.4l2.2-0.8c-0.3-2.1-0.6-4.2-1-6.4l-1.9,0.7l-20.2-2.5l0.2,1.7l0.8,4.8L629.2,248.4L629.2,248.4z"/>
	<path d="M607,232.3l20.6,2.2l0,0l0.1,0l0.1,0l0,0l1.6-0.6c-1-6-2.1-12.3-3.2-18.6l-0.7,0.2l-21.7-2.4L607,232.3z"/>
	<path d="M613.3,268.5l2.4,13.9c6.1-1.3,12.5-2.7,19.1-4.4c-0.1-2.5-0.4-5.2-0.6-8.1l-2.2,0.8L613.3,268.5z"/>
</g>
</svg>
