<?xml version="1.0" encoding="utf-8"?>
<!-- Generator: Adobe Illustrator 25.3.0, SVG Export Plug-In . SVG Version: 6.00 Build 0)  -->
<svg version="1.1" id="Layer_1" xmlns="http://www.w3.org/2000/svg" xmlns:xlink="http://www.w3.org/1999/xlink" x="0px" y="0px"
	 viewBox="0 0 750.2 400.1" style="enable-background:new 0 0 750.2 400.1;" xml:space="preserve">
<g>
	<path d="M129.1,187.6c-2.9,14.6-5.7,29.9-8,44.1l0.3,0.1l18.7-0.6l7.7-44.2L129.1,187.6z"/>
	<path d="M426,187l-18.6,0.6c-2.9,14.6-5.7,29.8-8,44l0.6,0.2l18.4-0.6L426,187z"/>
	<path d="M350.6,231.7c-2.4-14.3-5.2-29.5-8-44.1l-21.8-0.7l7.7,44.2l21.9,0.7L350.6,231.7z"/>
	<path d="M599.1,186.9l7.7,44.2l22.1,0.7c-2.4-14.3-5.2-29.5-8-44.2L599.1,186.9z"/>
</g>
</svg>
