<?xml version="1.0" encoding="utf-8"?>
<!-- Generator: Adobe Illustrator 25.3.0, SVG Export Plug-In . SVG Version: 6.00 Build 0)  -->
<svg version="1.1" id="Layer_1" xmlns="http://www.w3.org/2000/svg" xmlns:xlink="http://www.w3.org/1999/xlink" x="0px" y="0px"
	 viewBox="0 0 750.2000122 400.1000061" style="enable-background:new 0 0 750.2000122 400.1000061;" xml:space="preserve">
<g>
	<path d="M203.0547485,160.0074768c0.0032349-0.0026855,0.0066528-0.005249,0.0098877-0.0079346
		c-2.2319946-1.7672119-4.9248047-3.2538452-7.9744873-4.4989014c-0.7477417-0.2774658-1.5193481-0.5303955-2.307373-0.7661743
		C196.482666,156.1062317,199.9353027,157.8431091,203.0547485,160.0074768z"/>
	<path d="M203.05896,160.0102844c0.0545044,0.0378418,0.111145,0.072876,0.1654053,0.1109619
		c-0.0502319-0.0404663-0.1047974-0.0783081-0.1555176-0.1184692
		C203.0656128,160.0053406,203.0621948,160.0077209,203.05896,160.0102844z"/>
	<path d="M296.7545776,145.5118103c-1.6939697-3.4158936-3.4428711-9.5514526-3.8206787-20.5772095
		c-0.2046509-6.0088501-0.4400635-13.1179199-0.8095093-20.4512329c-29.0330811,1.3477173-73.0280762-4.237793-88.921814,14.6010742
		c-15.9887695-18.9516602-61.8793335-13.0292358-91.0237427-14.6514893
		c-0.3706665,7.3508301-0.6057129,14.4768066-0.8114014,20.5016479c-0.3778687,11.0257568-2.12677,17.1613159-3.8207397,20.5772095
		c-1.2965698,2.6192017-2.5744629,3.6329956-3.1554565,3.9830322l0.0018921,4.3763428
		c14.6768188-2.1121826,45.3605957-5.8001709,69.9194336-3.1062622c4.2420044,0.4014282,8.3704224,1.0703735,12.3019409,2.0665283
		c3.0443115,0.7283936,5.8872681,1.6124878,8.475647,2.6691895c3.0354004,1.1266479,5.725647,2.605835,7.9786987,4.4955444
		c2.2530518-1.8897095,4.9432373-3.3688965,7.9786377-4.4955444c23.5841064-9.6282349,68.618103-4.7219238,88.9177856-1.8818359
		l0.0040283-4.0890503C299.4202271,149.2151794,298.0973511,148.2243958,296.7545776,145.5118103z"/>
	<path d="M203.2243652,160.1212463c2.6665039-2.2422485,6.0401611-3.9877319,9.9274292-5.3255005
		c-0.7171021,0.21875-1.4208984,0.4512939-2.1043091,0.704895c-3.0496826,1.2450562-5.7424927,2.7316895-7.9744873,4.4989014
		C203.1224365,160.0410461,203.175354,160.0793762,203.2243652,160.1212463z"/>
	<path d="M142.8956909,52.1075134l-16.1817627,4.9210815c7.7028198,4.0979614,24.7971191,13.522522,31.696228,19.9904785
		C155.1008911,68.1096497,148.8096313,59.2065735,142.8956909,52.1075134z"/>
	<path d="M265.2510376,52.9773254c-5.6981812,6.9490967-11.6190186,15.4937744-14.7940063,24.041748
		c6.5437622-6.1347656,22.2635498-14.9317017,30.4390869-19.3188477L265.2510376,52.9773254z"/>
</g>
</svg>
