<?xml version="1.0" encoding="utf-8"?>
<!-- Generator: Adobe Illustrator 25.3.0, SVG Export Plug-In . SVG Version: 6.00 Build 0)  -->
<svg version="1.1" id="Layer_1" xmlns="http://www.w3.org/2000/svg" xmlns:xlink="http://www.w3.org/1999/xlink" x="0px" y="0px"
	 viewBox="0 0 750.2 400.1" style="enable-background:new 0 0 750.2 400.1;" xml:space="preserve">
<path d="M291.8,99.2c-0.7-11.1-1.7-22.2-3.4-30.5c-1-4.7-2.1-7.6-3.5-9.8l-33.3-10.1c0,0.2,0,0.5,0,0.8c0,2.8-0.9,8-4.5,13
	c-4.9,6.9-13.5,13.3-19.7,16.1c-5.9,2.6-14,4.7-14,4.7l-0.5,0.1l0-0.1c-3.8,0.9-7.6,1.5-11.4,1.5c-0.4,0-0.7,0-1.1,0
	c-2.9-0.1-5.7-0.5-8.4-1.1l0,0.1l-0.5-0.1c0,0-7.3-1.4-13.9-5.1c-4.7-2.7-11.6-8.3-17-13.4c-0.4-0.3-0.7-0.6-1.1-0.9l-0.1-0.1
	l-0.1-0.2c-0.5-0.5-0.9-0.9-1.3-1.3c-3.7-3.8-4.2-8-4.2-11.3c0-1.1-0.1-1.9,0-2.5l-34.4,10.4c-1.5,2.2-2.4,4.7-3.4,9.4
	c-1.1,5-1.9,11.1-2.5,17.6c-0.4,4-0.7,8.2-0.9,12.4l90.6,14.4L291.8,99.2z"/>
</svg>
