<?xml version="1.0" encoding="utf-8"?>
<!-- Generator: Adobe Illustrator 25.3.0, SVG Export Plug-In . SVG Version: 6.00 Build 0)  -->
<svg version="1.1" id="Layer_1" xmlns="http://www.w3.org/2000/svg" xmlns:xlink="http://www.w3.org/1999/xlink" x="0px" y="0px"
	 viewBox="0 0 750.2000122 400.1000061" style="enable-background:new 0 0 750.2000122 400.1000061;" xml:space="preserve">
<g>
	<path d="M153.6558228,51.3764343c0.0001831-0.5546875-0.0223389-1.0474854-0.0328979-1.4814453l-34.8564453,10.2454834
		c-1.1790771,2.0233154-2.0041504,4.4700317-2.8696899,8.5758667c-0.4771729,2.2531738-0.8981934,4.7333984-1.2753296,7.3618774
		l43.7954712-12.8729248c-0.1731567-0.1719971-0.3547974-0.3479614-0.5223389-0.5172119
		C154.1659546,58.910614,153.6575928,54.651947,153.6558228,51.3764343z"/>
	<path d="M289.1264648,72.5657043c-0.227478-1.3334351-0.4641724-2.6327515-0.7219849-3.8493652
		c-0.9942627-4.7171021-2.05896-7.6161499-3.5426025-9.8189697l-33.3435669-10.0656128
		c0.0113525,0.2245483,0.0196533,0.4698486,0.0196533,0.7564697c-0.0025635,2.4542847-0.6794434,6.6411743-3.1756592,10.9955444
		L289.1264648,72.5657043z"/>
</g>
</svg>
