<?xml version="1.0" encoding="utf-8"?>
<!-- Generator: Adobe Illustrator 25.3.0, SVG Export Plug-In . SVG Version: 6.00 Build 0)  -->
<svg version="1.1" id="Layer_1" xmlns="http://www.w3.org/2000/svg" xmlns:xlink="http://www.w3.org/1999/xlink" x="0px" y="0px"
	 viewBox="0 0 750.2000122 400.1000061" style="enable-background:new 0 0 750.2000122 400.1000061;" xml:space="preserve">

<path class="st0" d="M115.8967896,68.7163391c-1.0614624,5.0119629-1.8580322,11.1035156-2.4668579,17.6030884
	c-1.2182007,13.0006104-1.687561,27.6341553-2.0625,38.6151733c-0.0307007,0.8964844-0.0735474,1.7491455-0.1216431,2.5821533
	l17.4234619-53.694397l6.2601929-19.2922363l-15.6264648,4.7521973
	C117.8256226,61.4881897,116.8879395,64.01474,115.8967896,68.7163391z"/>
<path class="st0" d="M292.9338989,124.9346008c-0.560791-16.4667358-1.3410645-41.1726685-4.5294189-56.2182617
	c-0.9942627-4.7171021-2.05896-7.6161499-3.5426025-9.8189697l-15.3754272-4.6414795l6.3491821,19.5664673l17.1766968,52.9338379
	C292.9824219,126.1628113,292.9553223,125.5589294,292.9338989,124.9346008z"/>
</svg>
