<?xml version="1.0" encoding="utf-8"?>
<!-- Generator: Adobe Illustrator 25.3.0, SVG Export Plug-In . SVG Version: 6.00 Build 0)  -->
<svg version="1.1" id="Layer_1" xmlns="http://www.w3.org/2000/svg" xmlns:xlink="http://www.w3.org/1999/xlink" x="0px" y="0px"
	 viewBox="0 0 750.2 400.1" style="enable-background:new 0 0 750.2 400.1;" xml:space="preserve">
<polygon points="299.9,225.9 300,167.4 104.4,167.4 104.4,225.9 "/>
<path d="M107.1,353.4c2,0.1,4.8,0.3,8.4,0.5c7,0.4,16.7,0.9,27.2,1.5c21.1,1.1,45.6,2.1,59.3,2.1c24.1,0,81.2-3.3,95.1-4.1
	c1.2-0.1,2.1-0.1,2.6-0.2l0.1-103.8H104.4l0,103.9C105,353.3,105.9,353.3,107.1,353.4z"/>
<polygon points="447.6,225.9 643.1,225.9 643.2,167.4 447.6,167.4 "/>
<path d="M447.6,249.4l0,103.9c0.1,0,0.3,0.1,0.6,0.1c0.9,0.1,2.6,0.3,5.9,0.5c10.7,0.6,23.3,5.4,38.1,10c14.8,4.6,31.8,9,51.3,9
	c0.5,0,1.1,0,1.6,0c19-0.2,35.1-4.6,49.3-9.1c14.2-4.5,26.5-9.1,38-9.7c7.2-0.4,9.7-0.7,10.4-0.9l0.1-103.8H447.6z"/>
</svg>
