<?xml version="1.0" encoding="utf-8"?>
<!-- Generator: Adobe Illustrator 25.3.0, SVG Export Plug-In . SVG Version: 6.00 Build 0)  -->
<svg version="1.1" id="Layer_1" xmlns="http://www.w3.org/2000/svg" xmlns:xlink="http://www.w3.org/1999/xlink" x="0px" y="0px"
	 viewBox="0 0 750.2 400.1" style="enable-background:new 0 0 750.2 400.1;" xml:space="preserve">
<style type="text/css">
	.st0{fill:none;}
</style>
<g>
	<polygon class="st0" points="470.3,311.4 455.5,311.4 477.7,338.9 477.7,311.4 485.2,311.4 485.2,293.2 485.4,293.2 500.1,311.4 
		500.1,293.2 511.1,293.2 511.1,251.6 511,251.6 477.5,293.2 484.9,293.2 	"/>
	<polygon class="st0" points="477.7,251.6 477.7,224.1 485.2,224.1 485.2,205.6 470.3,224.1 455.5,224.1 	"/>
	<polygon class="st0" points="151.9,302.3 137.2,284.7 136.9,284.7 136.9,302.3 129.9,302.3 129.9,329 152.1,302.3 	"/>
	<polygon class="st0" points="152.1,217.9 151.9,217.9 136.9,200 136.9,217.9 129.9,217.9 129.9,244.5 	"/>
	<polygon class="st0" points="611.8,338.9 611.8,311.4 604.7,311.4 604.7,293.2 604.4,293.2 589.8,311.4 589.5,311.4 	"/>
	<polygon class="st0" points="500,224.1 499.9,224.1 477.7,251.6 500,251.6 	"/>
	<polygon class="st0" points="611.8,251.6 611.8,224.1 604.7,224.1 604.7,205.6 589.8,224.1 589.5,224.1 	"/>
	<polygon class="st0" points="522.3,251.6 522.3,224.1 515,224.1 515,205.6 500.1,224.1 500.1,224.1 	"/>
	<polygon class="st0" points="271.4,284.7 271.4,302.3 286.1,284.7 	"/>
	<polygon class="st0" points="500,311.4 499.9,311.4 477.7,338.9 500,338.9 	"/>
	<polygon class="st0" points="455.6,293.2 470.3,311.4 470.3,293.2 	"/>
	<polygon class="st0" points="515.3,293.2 529.9,311.4 529.9,293.2 	"/>
	<polygon class="st0" points="515,311.4 515,293.2 514.8,293.2 500.1,311.4 500.1,311.4 522.3,338.9 522.3,311.4 	"/>
	<polygon class="st0" points="89.6,135.6 109.1,120.9 89.6,120.9 	"/>
	<polygon class="st0" points="241.6,217.9 241.6,244.5 263.9,244.5 241.7,217.9 	"/>
	<polygon class="st0" points="522.3,163.9 522.3,136.4 515,136.4 515,118.2 514.8,118.2 500.1,136.4 500.1,136.4 	"/>
	<polygon class="st0" points="611.8,163.9 611.8,136.4 604.7,136.4 604.7,118.2 604.4,118.2 589.8,136.4 589.5,136.4 	"/>
	<polygon class="st0" points="256.5,217.9 263.9,217.9 263.9,244.5 286.1,217.9 271.4,217.9 256.5,200 	"/>
	<polygon class="st0" points="230.5,244.5 230.5,284.7 241.5,284.7 241.5,302.3 256.2,284.7 256.5,284.7 256.5,302.3 263.9,302.3 
		263.9,329 286.1,302.3 271.4,302.3 256.7,284.7 264.1,284.7 230.6,244.5 	"/>
	<polygon class="st0" points="241.5,302.3 226.8,284.7 226.6,284.7 226.6,302.3 219.3,302.3 219.3,329 241.5,302.3 	"/>
	<polygon class="st0" points="152.1,132.9 151.9,132.9 137.2,115.3 136.9,115.3 136.9,132.9 129.9,132.9 129.9,159.6 	"/>
	<polygon class="st0" points="241.5,217.9 241.5,217.9 226.6,200 226.6,217.9 219.3,217.9 219.3,244.5 	"/>
	<polygon class="st0" points="226.4,115.3 211.7,115.3 211.7,132.9 	"/>
	<polygon class="st0" points="241.6,302.3 241.6,329 263.9,329 241.7,302.3 	"/>
	<polygon class="st0" points="241.7,132.9 241.6,132.9 241.6,159.6 263.9,159.6 	"/>
	<polygon class="st0" points="211.7,284.7 211.7,302.3 226.4,284.7 	"/>
	<polygon class="st0" points="515.3,118.2 529.9,136.4 529.9,118.2 	"/>
	<polygon class="st0" points="500,163.9 500,136.4 499.9,136.4 477.7,163.9 	"/>
	<polygon class="st0" points="241.5,132.9 241.5,132.9 226.8,115.3 226.6,115.3 226.6,132.9 219.3,132.9 219.3,159.6 	"/>
	<rect x="196.6" y="115.3" width="0.1" height="17.5"/>
	<polygon points="196.8,159.5 196.9,159.5 197,159.5 197,132.9 196.8,132.9 	"/>
	<path d="M129.7,159.6H119c0.3,7.7,0.3,16.7-0.6,26.7l11.2,13.5V159.6z"/>
	<polygon points="163.3,199.8 163.3,159.6 163.2,159.6 129.7,199.8 	"/>
	<polygon points="196.9,159.5 196.8,159.5 196.8,132.9 196.8,132.9 196.8,132.9 174.5,159.6 163.4,159.6 196.9,199.8 	"/>
	<path d="M285.6,174l-21.5,25.8h23.5C286.3,190.5,285.7,181.8,285.6,174z"/>
	<polygon points="174.5,132.9 166.8,132.9 166.8,115.3 166.5,115.3 151.9,132.9 152.1,132.9 129.9,159.6 152.2,159.6 152.2,132.9 
		152.3,132.9 174.5,159.6 	"/>
	<path d="M122,115.3h-2.9c-1,4.1-1.8,7.8-2.4,10.7l-0.1,0.4l5.5,6.6V115.3z"/>
	<path d="M129.9,132.9h7.1v-17.6h0.2l14.7,17.6v-17.6h11.4V82.6c-0.1-0.1-0.1-0.2-0.2-0.3c-0.9-1.4-1.7-2.8-2.4-4.1l-31,37.2h7
		L122,132.9h-6.2c0.5,2.2,1.3,6.4,2,12.2l12.1,14.5V132.9z"/>
	<polygon points="167,115.3 181.7,132.9 181.7,115.3 	"/>
	<polygon points="196.6,115.3 196.4,115.3 181.7,132.9 196.6,132.9 196.6,132.8 	"/>
	<path d="M129.7,87.5c-1.5,2.6-3,5.5-4.3,8.5c-1.4,3.3-2.6,6.6-3.6,9.8l7.9,9.5V87.5z"/>
	<path d="M196.9,102.9c-4.6-0.4-8.8-1.4-12.8-2.9l12.8,15.4V102.9z"/>
	<path d="M285.2,115.3c-1.4-5.6-3.2-11.9-5.9-18.3l-15.2,18.3h-7.4l14.7,17.6v-17.6H285.2z"/>
	<path d="M264.1,159.6h21.8c0.1-1.7,0.2-3.3,0.3-4.8v-21.8h0.1v0l2.5,3c0.2-1.1,0.4-2,0.6-2.7c0-0.1-0.1-0.3-0.1-0.5h-3v-12.9
		c-0.3-1.2-0.6-2.5-0.9-3.8l-14,16.8h14.7l-22.2,26.6h-22.3v-26.6h0.1l22.2,26.6v-26.6h-7.4v-17.6h-0.2l-14.7,17.6h0l-22.2,26.6
		h11.1l-33.5,40.2h33.6v-40.2h0.1l33.5,40.2V159.6z"/>
	<path d="M152.2,67c-4.7,2.1-8.9,4.8-12.6,8.1h12.6V67z"/>
	<path d="M219.3,132.9h7.3v-17.6h0.2l14.7,17.6v-17.6h-11V94.7c-6.5,4.8-14.4,7.6-23.3,8.3l-10.3,12.4h0.1l14.7,17.6v-17.6h14.7
		l-14.7,17.6h-14.6l22.2,26.6V132.9z"/>
	<path d="M264.1,75.1h0.6c-0.2-0.1-0.3-0.3-0.5-0.4l-0.3,0.4h-18.3c-1.1,2.6-2.5,5.2-4.1,7.7c-0.7,1-1.4,2-2.1,2.9l24.7,29.6V75.1z"
		/>
	<path d="M261.8,72.7l2.1,2.5v-0.7C263.2,73.8,262.5,73.2,261.8,72.7z"/>
	<polygon points="196.9,244.4 197,244.4 197,217.9 196.8,217.9 196.8,244.4 	"/>
	<rect x="196.6" y="284.7" width="0.1" height="17.5"/>
	<polygon points="196.9,328.9 197,328.9 197,302.3 196.8,302.3 196.8,328.9 	"/>
	<path d="M129.7,329h-22.1v-26.6h-0.1l-2.3,2.8l0,18.3l-0.4,15.9L127,366c0.9,0.2,1.7,0.3,2.6,0.5V329z"/>
	<path d="M163.3,329L163.3,329l-31.6,37.8c4.8,0.8,10,1.6,15.5,2.4h16.1V329z"/>
	<polygon points="196.9,328.9 196.8,328.9 196.8,302.3 196.8,302.3 196.8,302.2 174.5,329 163.4,329 196.9,369.2 	"/>
	<path d="M265.6,367.3c15.2-2.2,27.2-4.4,32.1-5.3V329h-0.1L265.6,367.3z"/>
	<polygon points="166.8,302.3 166.8,284.7 166.5,284.7 151.9,302.3 152.1,302.3 129.9,329 152.2,329 152.2,302.3 152.3,302.3 
		174.5,329 174.5,302.3 	"/>
	<polygon points="107.3,284.7 122,302.3 122,284.7 	"/>
	<polygon points="136.9,302.3 136.9,284.7 137.2,284.7 151.9,302.3 151.9,284.7 163.3,284.7 163.3,244.5 163.2,244.5 129.7,284.7 
		136.7,284.7 122,302.3 107.7,302.3 129.9,329 129.9,302.3 	"/>
	<polygon points="167,284.7 181.7,302.3 181.7,284.7 	"/>
	<polygon points="196.6,302.2 196.6,284.7 196.4,284.7 181.7,302.3 196.6,302.3 	"/>
	<path d="M107.6,244.5v-6.6c-0.8,2.2-1.6,4.5-2.4,6.7l0,10.6l24.5,29.4v-40.2H107.6z"/>
	<polygon points="196.8,244.4 196.8,217.9 196.8,217.9 196.8,217.8 174.5,244.5 163.4,244.5 196.9,284.7 196.9,244.4 	"/>
	<path d="M299.5,315.3l0-13.1h-13.3v-17.5h11.4v-40.2h-0.1l-33.5,40.2h-7.4l14.7,17.6v-17.6h14.7l-14.7,17.6h14.7L263.9,329h-22.3
		v-26.6h0.1l22.2,26.6v-26.6h-7.4v-17.6h-0.2l-14.7,17.6h0L219.3,329h11.1l-33.5,40.2h33.6V329h0.1l32.3,38.8
		c0.4-0.1,0.8-0.1,1.2-0.2V329h22.1v-26.6h0.1l13.6,16.3l0-3.4H299.5z"/>
	<path d="M226.6,302.3v-17.6h0.2l14.7,17.6v-17.6h-11v-40.2h0.1l33.5,40.2v-40.2h22.1v-26.6h0.1v0l6.8,8.1c-0.8-2.8-1.5-5.5-2.1-8.3
		h-4.7V200l-14.9,17.9h14.7l-22.2,26.6h-22.3v-26.6h0.1l22.2,26.6v-26.6h-7.4V200l-14.9,17.9h0l-22.2,26.6h11.1l-33.5,40.2h0.1
		l14.7,17.6v-17.6h14.7l-14.7,17.6h-14.6l22.2,26.6v-26.6H226.6z"/>
	<path d="M122,200h-5.2c-0.5,3.2-1,6.4-1.7,9.7l6.9,8.2V200z"/>
	<path d="M129.9,217.9h7.1V200L122,217.9h-8.7c-0.4,1.7-0.9,3.5-1.3,5.3l17.8,21.4V217.9z"/>
	<polygon points="151.9,217.9 151.9,200 136.9,200 	"/>
	<polygon points="166.8,217.9 166.8,200 151.9,217.9 152.1,217.9 129.9,244.5 152.2,244.5 152.2,217.9 152.3,217.9 174.5,244.5 
		174.5,217.9 	"/>
	<polygon points="181.7,217.9 181.7,200 166.8,200 	"/>
	<polygon points="196.6,217.7 196.6,200 181.7,217.9 196.6,217.9 	"/>
	<polygon points="211.7,200 196.8,200 211.7,217.9 	"/>
	<polygon points="219.3,217.9 226.6,217.9 226.6,200 211.7,217.9 197.1,217.9 219.3,244.5 	"/>
	<polygon points="241.5,200 226.6,200 241.5,217.9 	"/>
	<polygon points="271.4,217.9 271.4,200 256.5,200 	"/>
	<rect x="544.9" y="118.2" width="0.1" height="18.1"/>
	<polygon points="544.8,224.1 544.6,224.1 544.6,251.5 544.7,251.5 544.8,251.5 	"/>
	<polygon points="544.8,49.1 544.6,49.1 544.6,76.5 544.7,76.5 544.8,76.5 	"/>
	<polygon points="544.8,136.4 544.6,136.4 544.6,163.8 544.7,163.8 544.8,163.8 	"/>
	<path d="M642.8,242.3c-1.6-4.3-3-8.6-4.2-12.8l-4.4-5.4h-0.1v27.5h-22.1v41.5l30.8-38.2L642.8,242.3z"/>
	<polygon points="567.1,251.6 544.9,224 544.9,224.1 544.8,224.1 544.8,251.5 544.7,251.5 544.7,293.2 578.2,251.6 	"/>
	<path d="M511.1,251.6v41.5h-11v18.2l14.7-18.2h0.2v18.2h7.3v27.5l22.2-27.5h-14.6l-14.7-18.2h14.7v18.2l14.7-18.2h0.1L511.1,251.6
		h11.2l-22.2-27.5h0l-14.9-18.5v18.5h-7.4v27.5l22.2-27.5h0.1v27.5h-22.3l-22.2-27.5h14.7l-12.7-15.7c-0.7,3.4-1.4,6.9-2.3,10.4v5.1
		H454c-0.2,0.9-0.5,1.7-0.7,2.6l2-2.5v0h0.1v27.5h22.1v41.5L511.1,251.6L511.1,251.6z"/>
	<path d="M632.9,205.6h-13.2v18.5l13.6-16.8C633.1,206.7,633,206.2,632.9,205.6z"/>
	<polygon points="604.7,224.1 611.8,224.1 611.8,251.6 634,224.1 619.6,224.1 604.7,205.6 	"/>
	<polygon points="604.7,205.6 589.8,205.6 589.8,224.1 	"/>
	<polygon points="589.4,224.1 589.4,224.1 589.4,251.6 611.8,251.6 589.5,224.1 589.8,224.1 574.8,205.6 574.8,224.1 567.1,224.1 
		567.1,251.6 	"/>
	<polygon points="559.9,205.6 559.9,224.1 574.8,205.6 	"/>
	<polygon points="545,224 545,224.1 559.9,224.1 545,205.6 	"/>
	<polygon points="529.9,205.6 529.9,224.1 544.9,205.6 	"/>
	<polygon points="515,224.1 522.3,224.1 522.3,251.6 544.6,224.1 529.9,224.1 515,205.6 	"/>
	<polygon points="515,205.6 500.1,205.6 500.1,224.1 	"/>
	<polygon points="485.2,205.6 470.3,205.6 470.3,224.1 	"/>
	<path d="M629.6,163.9h-17.7v41.5l18.1-22.5C629.6,176.1,629.5,169.7,629.6,163.9z"/>
	<polygon points="578.4,163.9 578.3,163.9 578.3,205.4 611.9,205.4 	"/>
	<polygon points="578.2,163.9 567.1,163.9 544.9,136.3 544.9,136.4 544.8,136.4 544.8,163.8 544.7,163.8 544.7,205.4 	"/>
	<path d="M460.8,184.7c-0.5,6.5-1.3,13.5-2.6,20.8h19.4L460.8,184.7z"/>
	<polygon points="589.4,136.4 589.4,136.4 589.4,163.9 611.8,163.9 589.5,136.4 589.8,136.4 575.1,118.2 574.8,118.2 574.8,136.4 
		567.1,136.4 567.1,163.9 	"/>
	<path d="M629.6,118.2h-10v18.2l11-13.6C630.3,121.3,630,119.8,629.6,118.2z"/>
	<path d="M604.7,118.2v18.2h7.1v27.5l20.1-24.9c0.2-1,0.3-1.9,0.5-2.7h-12.7l-14.7-18.2h7l-33.5-41.5h-0.1v41.5h11.4v18.2l14.7-18.2
		H604.7z"/>
	<polygon points="559.9,118.2 559.9,136.4 574.6,118.2 	"/>
	<polygon points="545.2,118.2 545,118.2 545,136.2 545,136.4 559.9,136.4 	"/>
	<path d="M624.9,102.1c-0.5-1.4-1.1-2.8-1.7-4.2c-3-7.1-6.8-13.3-11.3-18.6v38.8L624.9,102.1z"/>
	<polygon points="578.2,76.6 567.1,76.6 544.9,49 544.9,49.1 544.8,49.1 544.8,76.5 544.7,76.5 544.7,118.2 	"/>
	<path d="M460.4,124.2c0,0.2-0.1,0.5-0.1,0.7c-0.2,1.2-0.5,2.3-0.7,3.3c-0.4,1.9-0.9,3.7-1.5,5.4c0.2,0.7,0.3,1.7,0.5,2.7h11.6
		L460.4,124.2z"/>
	<path d="M544.7,205.4l-33.5-41.5h11.1l-22.2-27.5h0l-14.7-18.2h-0.2v18.2h-7.4v27.5l22.2-27.5h0.1v27.5h-22.3l-18.2-22.6
		c0.8,5.6,1.6,13.3,1.9,22.6h16.2v41.5l33.5-41.5h0.1v41.5H544.7z"/>
	<path d="M465.8,103.6c-1.8,5.2-3.1,10.1-4.1,14.6h8.6v18.2l14.7-18.2h-7.4L465.8,103.6z"/>
	<path d="M583,57l-11.3-7.8c-0.1,0-0.1-0.1-0.1-0.1h-4.4v27.5L583,57z"/>
	<path d="M609.5,76.6c-4-4.2-8.4-7.8-13.4-10.7c-0.1,0-0.1-0.1-0.1-0.1l-6.5-4.5v15.2H609.5z"/>
	<path d="M559.9,47.3v1.8l1.4-1.8C560.9,47.3,560.4,47.3,559.9,47.3z"/>
	<path d="M545,47.1L545,47.1C545,47.1,545,47.1,545,47.1l0,1.9v0.1h14.9l-1.5-1.8C553.8,47.1,549.3,47.1,545,47.1z"/>
	<path d="M529.9,47.3v1.8l1.5-1.8C530.9,47.3,530.4,47.3,529.9,47.3z"/>
	<path d="M544.6,49.1h-14.6l-1.4-1.8c-2,0.1-4.1,0.1-6.1,0.2c-0.1,0.6-0.4,1.2-0.9,1.5h0.9v27.5L544.6,49.1z"/>
	<path d="M514.8,118.2h0.2v18.2h7.3v27.5l22.2-27.5h-14.6l-14.7-18.2h14.7v18.2l14.7-18.2h0.1l-33.5-41.5h11.1l-15-18.5l-7.4,4.7
		v13.8h-18.3c-1.5,1.6-2.9,3.2-4.2,4.9v36.6L511,76.6h0.1v41.5h-11v18.2L514.8,118.2z"/>
	<path d="M284.2,106h12.2v-0.1h-12.3C284.2,105.9,284.2,106,284.2,106z"/>
	<polygon points="296.6,106 296.6,106.2 325.9,106.2 325.9,106.1 325.9,106 	"/>
	<polygon points="326.6,72.1 326.1,72.4 326.1,72.5 328.1,72.5 	"/>
	<polygon points="296.5,106 296.6,106 296.6,106 325.9,106 325.9,106.1 360.1,106.1 361.6,99.4 326.1,72.6 326.1,83.7 	"/>
	<polygon points="277.1,75.8 277.1,76 296.6,76 296.6,83.7 326.1,83.7 299.9,64 294.8,62.5 	"/>
	<path d="M259.9,51.9l-9.5,7.1c-0.3,1.8-0.6,3.7-1,5.6l2.4,0.9c4.7,1.8,8.5,4.1,12,7h13.2V61.1h13.2L259.9,51.9z"/>
	<path d="M277.1,76.3v13.5c0.2,0.4,0.4,0.8,0.7,1.2h18.8L277.1,76.3z"/>
	<path d="M284.2,105.9h12.3h0.1V91l-13.9,10.5C283.2,102.9,283.7,104.4,284.2,105.9z"/>
	<polygon points="326.1,139 326.1,128.5 315.4,136.6 	"/>
	<polygon points="326.8,139.1 329.5,139.7 352.8,139.7 358,115.6 	"/>
	<path d="M296.6,128.5h29.5l-29.5-22.2v14.6l-7.6,5.7c0,0.2,0.1,0.5,0.1,0.7c0.3,1.2,0.6,2.4,0.9,3.6l0-0.1l6.5,1.5V128.5z"/>
	<path d="M286.1,113.1c0.7,2.8,1.2,5.5,1.7,7.9h8.8L286.1,113.1z"/>
	<rect x="89.6" y="105.9" width="19.4" height="0.1"/>
	<path d="M109.1,106.2h11.5c0-0.1,0-0.1,0.1-0.2h-11.6V106.2z"/>
	<path d="M138.6,72.4L138.6,72.4l1.8,0.1c3-2.4,6.4-4.3,10.2-6.1l5-2.3l-0.5-1.4c-0.2-0.8-0.4-1.6-0.5-2.4L138.6,72.4z"/>
	<path d="M138.6,72.6V74c0.3-0.3,0.6-0.5,0.9-0.8L138.6,72.6z"/>
	<path d="M120.7,106c1.2-3.8,2.6-7.7,4.2-11.5c0.1-0.2,0.2-0.5,0.3-0.7L109,106h0.1v0H120.7z"/>
	<polygon points="138.6,61.4 138.6,53.9 113.8,61.4 	"/>
	<path d="M89.6,75.8V76h19.5v7.7h21.3c0.9-1.4,1.8-2.8,2.8-4l-22.9-17.3l-5.1,1.5L89.6,75.8z"/>
	<polygon points="77.1,72.5 89.6,72.5 89.6,68.7 	"/>
	<polygon points="89.6,91 109.1,91 89.6,76.3 	"/>
	<polygon points="109.1,105.9 109.1,91 89.6,105.6 89.6,105.9 108.9,105.9 	"/>
	<polygon points="45,106.1 89.6,106.1 54.2,79.5 45.1,82.2 45.1,83.7 40.8,86.9 	"/>
	<polygon points="40.1,83.7 40.2,83.7 45.1,83.7 43.7,82.7 	"/>
	<path d="M52.4,139.7h22.9l14.8-3.3l-0.5-0.3v-0.2h3.1l16.4-3.6v-3.7h6c0.1-0.4,0.2-0.9,0.3-1.3l0.5-2.1c0.7-3.1,1.5-7.1,2.7-11.6
		l-9.5-7.1v14.6l-19.5,14.7v-14.7h19.5l-19.5-14.7v-0.1l-38.3,28.8L52.4,139.7z"/>
	<path d="M444.2,106h19.4c0,0,0,0,0,0v-0.1h-19.4V106z"/>
	<polygon points="389.7,106 389.7,106.2 399.6,106.2 399.6,106.1 399.6,106 	"/>
	<path d="M444.2,75.8V76h19.5v7.7h10.5c2.3-3.2,4.7-6.1,7.4-8.7l-17.9-13.5v-0.1h29.5V50.9l-7.9,2.4L467,58.8l-3.3,2.5v-0.2
		L444.2,75.8z"/>
	<polygon points="459.5,61.1 463.7,61.1 462.5,60.2 	"/>
	<polygon points="421.7,72.5 444.2,72.5 444.2,65.7 	"/>
	<polygon points="444.2,91 463.7,91 444.2,76.3 	"/>
	<path d="M444.2,105.6v0.2h19.4h0c0-0.1,0.1-0.2,0.1-0.3V91L444.2,105.6z"/>
	<polygon points="405.9,77.3 401.1,78.8 399.7,79.2 399.7,83.7 386.9,93.4 389.7,106 399.6,106 399.6,106.1 444.2,106.1 	"/>
	<polygon points="384.7,83.7 384.7,83.7 399.7,83.7 395.4,80.5 	"/>
	<polygon points="394.7,128.5 399.7,128.5 393.7,124 	"/>
	<path d="M399.7,139.8L399.7,139.8l16-0.1l28.5-6.1v-12.7h15.6c0.2-0.8,0.4-1.7,0.5-2.5l-16.1-12.1v-0.1l-44.5,33.5v-11.1l-4.3,3.2
		l2.6,11.7l5.1-1.1L399.7,139.8z"/>
	<path d="M447.8,132.9l9.7-2.1l0,0.1c0.3-0.9,0.5-1.7,0.7-2.7c0.1-0.4,0.2-0.7,0.3-1.1c0-0.1,0-0.2,0.1-0.3c0.1-0.7,0.3-1.5,0.5-2.3
		c0,0,0-0.1,0-0.1L447.8,132.9z"/>
	<rect x="631.7" y="105.9" width="19.4" height="0.1"/>
	<polygon points="651.2,106 651.2,106.2 680.6,106.2 680.6,106.1 680.6,106 	"/>
	<polygon points="685.9,76.5 680.7,75 680.7,83.7 651.1,106 651.2,106 651.2,106 680.6,106 680.6,106.1 705.1,106.1 708,93.1 	"/>
	<polygon points="661.3,69.1 646.5,64.7 631.7,75.8 631.7,76 651.2,76 651.2,83.7 680.7,83.7 	"/>
	<path d="M631.7,61.1h2.9l-23.1-7L597.1,65c3.4,2.2,6.7,4.7,9.8,7.6h24.8V61.1z"/>
	<polygon points="631.7,91 651.2,91 631.7,76.3 	"/>
	<polygon points="631.7,105.9 651.1,105.9 651.2,105.9 651.2,91 631.7,105.6 	"/>
	<path d="M627.7,106.1h4l-5.4-4.1C626.8,103.4,627.3,104.8,627.7,106.1z"/>
	<polygon points="697.6,139.7 701,124.4 680.7,139.6 680.7,128.5 667.7,138.3 683.2,141.7 680.7,139.8 680.7,139.7 	"/>
	<path d="M631.7,106.1l-3.2,2.4c1.4,4.6,2.4,8.9,3.2,12.7v-0.3h19.5l-19.5-14.7V106.1z"/>
	<polygon points="651.2,120.9 637,131.6 651.2,134.7 651.2,128.5 680.7,128.5 651.2,106.3 	"/>
	<path d="M573.9,49.2l13.4,9.2v-9.9c-3.4-0.1-7.7-0.3-11.7-0.5L573.9,49.2z"/>
	<rect x="544.9" y="293.2" width="0.1" height="18.1"/>
	<polygon points="544.8,311.4 544.6,311.4 544.6,338.8 544.7,338.8 544.8,338.8 	"/>
	<path d="M643.2,322.6l-9.1-11.3h-0.1v27.5h-22.1v34.6c2.7-0.9,5.3-1.8,7.7-2.6l23.6-29.2L643.2,322.6z"/>
	<path d="M578.4,338.9L578.4,338.9l-0.1,41.5h9.2c7.1-1.7,13.8-3.6,20-5.5L578.4,338.9z"/>
	<polygon points="578.2,338.9 567.1,338.9 544.9,311.3 544.9,311.4 544.8,311.4 544.8,338.8 544.7,338.8 544.7,380.5 	"/>
	<path d="M448.1,344l-0.4,17.2c0,0,0.3,0.3,0.4,0.3l0,0c0,0,0,0,0,0c0,0.1,0.1,0.1,0.2,0.2c0.1,0,0.1,0.1,0.2,0.1
		c0,0,8.2,4.2,21.3,9.1L448.1,344z"/>
	<polygon points="589.4,311.4 589.4,338.9 611.8,338.9 589.5,311.4 589.8,311.4 575.1,293.2 574.8,293.2 574.8,311.4 567.1,311.4 
		567.1,338.9 589.4,311.4 	"/>
	<polygon points="619.6,293.2 619.6,311.4 634.3,293.2 	"/>
	<polygon points="604.7,293.2 604.7,311.4 611.8,311.4 611.8,338.9 634,311.4 619.6,311.4 604.9,293.2 611.9,293.2 578.4,251.6 
		578.3,251.6 578.3,293.2 589.8,293.2 589.8,311.4 604.4,293.2 	"/>
	<polygon points="559.9,293.2 559.9,311.4 574.6,293.2 	"/>
	<polygon points="559.9,311.4 545.2,293.2 545,293.2 545,311.3 545,311.4 	"/>
	<path d="M511.2,338.9h11.1l-22.2-27.5h0l-14.7-18.2h-0.2v18.2h-7.4v27.5l22.2-27.5h0.1v27.5h-22.3l-22.2-27.5h14.7l-14.7-18.2h14.7
		v18.2l14.7-18.2h-7.4l-29-35.9l0,35.9h6.8v18.1h-6.8l0,8.5l6.7-8.4h0.1v27.5h22.1v34.7c1.4,0.5,2.9,1,4.3,1.5l29.2-36.2H511.2
		l-0.1,41.5h33.6L511.2,338.9z"/>
</g>
</svg>
