<?xml version="1.0" encoding="utf-8"?>
<!-- Generator: Adobe Illustrator 25.3.0, SVG Export Plug-In . SVG Version: 6.00 Build 0)  -->
<svg version="1.1" id="Layer_1" xmlns="http://www.w3.org/2000/svg" xmlns:xlink="http://www.w3.org/1999/xlink" x="0px" y="0px"
	 viewBox="0 0 750.2 400.1" style="enable-background:new 0 0 750.2 400.1;" xml:space="preserve">
<g>
	<path d="M299.6,245.8c-2-5.3-3.8-10.5-5.3-15.7c-24.8,8-59.6,7.6-71.9,17c-11.8,9-85.5,6.8-117.1,9l0,17c7.2-2.5,17-4.3,31.2-3.9
		c35.1,1.2,84.4,13.2,98.6-0.6c14.2-13.8-1.5-15,38.9-15c12.5,0,20.5-2.9,25.7-6.8L299.6,245.8z"/>
	<path d="M179.3,293.6c-40.3-4.1-49.3-15-74.1-0.8l0,15.7c2.6-1,5.5-2.2,9-3.5c24.7-9.6,49.3,4.2,89.7,9
		c40.4,4.8,52.7-19.2,71.2-30.6c10-6.2,18.6-5.8,24.4-4.2l0-11.5c-10.5,0.9-24.9,3.9-32.6,8C254.6,282.2,225.9,298.4,179.3,293.6z"
		/>
	<path d="M164.7,178.7c-9.1-4.4-26.9-3.4-45.6-2.8c-0.2,5.5-0.6,11.5-1.4,17.8c35-6,21.2-1.9,37.5,8.6c17.2,11,66.4-9.8,102.7-17.4
		c11.7-2.5,20.8-2.9,28-2.4c-0.3-5.7-0.4-11-0.3-16C251.1,170.5,178.2,185.3,164.7,178.7z"/>
	<path d="M114.5,212.8c2.3,0.4,4.7,1,7.3,2c20.3,7.8,36.8,29,75.6,16.9c38.8-12.2,60.5-30.3,86.5-25.4c1.7,0.3,3.3,0.6,4.8,0.9
		c-1-5.5-1.7-10.8-2.2-15.8c-23.7-6.8-31.8,4.8-68.6,15.8c-44.9,13.3-76.1,2.7-89.5-1.5c-3.3-1-7.6-1.7-12.2-2.1
		C115.8,206.6,115.2,209.6,114.5,212.8z"/>
	<path d="M299.6,253.8c-23.7,11.5-54.8,13.9-57.3,17.7c-2.2,3.4,36.7-5.1,57.3-10.6L299.6,253.8z"/>
	<path d="M105.5,243.7c23.2,0.8,41.8-2.3,40.1-4.3c-1.6-1.9-23.8-0.1-37.1-4.5C107.6,237.8,106.6,240.8,105.5,243.7z"/>
	<path d="M115.8,133.2c0.7,3,1.9,9.3,2.6,18.2c6.1-0.4,13.8,0,26.4,2.1c33.9,5.6,58.7,1.1,77.9-2.3c9.2-1.6,37.2-1.2,63.8-0.3
		c0.9-8.5,2.1-14.7,2.8-17.7c-0.1-0.2-0.1-0.5-0.2-0.7c0-0.1-0.1-0.2-0.1-0.3c-0.1-0.5-0.3-0.9-0.4-1.4c-23.9,2.5-61,5.7-62.6,1.1
		c-1.3-4,28.2-21.4,53-35.3c-0.1-0.3-0.2-0.6-0.4-0.8c-2.3-5.2-5-9.8-8-13.8c-18.2,11.7-42.8,26.3-57.1,29.6
		c-24.8,5.6-40.7,22.6-66.6,24.8C134.7,137.6,123.8,135.6,115.8,133.2z"/>
	<path d="M255.6,68.5c-1.5-0.8-3-1.5-4.6-2.1l-2.1-0.6c-0.5,1.9-1.1,3.9-1.9,5.8c4.5-1.8,7.3-2.9,7.3-2.9S254.8,68.7,255.6,68.5z"/>
	<path d="M126.1,94.5c-0.2,0.5-0.4,1-0.7,1.5c-2.8,6.5-4.7,13.1-6.2,18.9c11.7,1.9,19.2,1.3,29-1c12.1-2.8,23.7-8.8,34.5-14.5
		c-4.3-1.8-8.2-4.4-11.7-7.6c-6.4,2.5-12.9,4-19.4,4C143.2,95.9,134.5,95.2,126.1,94.5z"/>
	<path d="M155.9,65.7l-1.8,0.5c-6.5,2.5-12,6.2-16.7,11c6.6-2.8,13.1-6.2,19.1-9.7C156.3,66.9,156.1,66.3,155.9,65.7z"/>
	<path d="M286.1,118.9c-0.5-2.4-1.2-5-1.9-7.7c-7.2,1.7-9.4,2.4-9.4,5C274.7,117.5,279.4,118.4,286.1,118.9z"/>
	<path d="M272.4,314.8c8.9-11.3,19.3-15.1,27.1-16.2l0-10.2c-2.6-0.7-5.6-0.8-9.3,0.1c-15.8,3.6-37,26.4-55.5,39.5
		c-18.5,13.2-51.4-1.2-94.5-4.2c-20.9-1.4-29.6-0.9-35.2,2.4l-0.7,30.5l0,0.4c18.8-5.8,14.7-25.4,25.6-24.9
		c12.3,0.6,62.3,15.6,96.6,16.2S256,335.8,272.4,314.8z"/>
	<path d="M178.6,354.7c-35.6-3-45.7-11-41.8-0.6c1.4,3.6,22.6,9.6,52.7,10.2c15.1,0.3,20.9,3.7,27.6,8.3c15.1-1,30.7-2.8,44.3-4.7
		c-1.7-0.5-3.5-0.7-5.4-0.6C236.2,367.9,214.2,357.7,178.6,354.7z"/>
	<path d="M286.8,329.6c-11.7,13.1-17.5,27.5-15.2,36.9c2.7-0.4,5.3-0.8,7.8-1.2c5.6-7.9,14.6-21.3,20.6-31.8l0-15.6
		C296.6,319.8,292,323.8,286.8,329.6z"/>
	<path d="M515.7,179.2c11.4-8.7,80.7-6.9,113.9-8.8c-0.1-6,0.2-11.5,0.5-16.4c-6.9,2-16,3.4-28.5,3c-35.1-1.2-84.4-13.2-98.6,0.6
		c-14.2,13.8,1.5,15-38.9,15c-0.9,0-1.9,0-2.7,0.1c-0.1,6-0.5,12.5-1.3,19.5C481.9,188,505.9,186.7,515.7,179.2z"/>
	<path d="M633,132.9c-0.4-1.5-0.9-3-1.2-4.6c-0.2-0.9-0.4-1.9-0.6-2.9l-0.1-0.4c-0.4-1.8-0.8-3.8-1.3-5.9c-1.8,0.7-3.8,1.5-6,2.3
		c-24.7,9.6-49.3-4.2-89.7-9s-52.7,19.2-71.2,30.6c-1,0.6-1.9,1.1-2.9,1.6c0.4,2.9,0.7,6.3,1,10c3.9-1.1,7.4-2.4,10.1-3.9
		c12.3-6.6,41.1-22.8,87.7-18c40.3,4.1,49.3,15,74.1,0.8C632.9,133.3,632.9,133.1,633,132.9z"/>
	<path d="M448.6,260.4c32.5-3.3,110.7-19.5,124.8-12.7c13,6.3,43.6,1.5,69.4,2.9l0-8.3c-1.4-3.9-2.7-7.8-3.9-11.6
		c-3.8-0.1-8.1,0.3-13,1.1c-42,7.4-25.9,3.3-43-7.7c-17.2-11-66.4,9.8-102.7,17.4c-13.8,2.9-23.8,3-31.6,2.1L448.6,260.4z"/>
	<path d="M450.8,234.9c24.3,7.3,32.1-4.5,69.3-15.6c44.9-13.3,76.1-2.7,89.5,1.5c6.7,2.1,17.7,2.7,27.2,2.3
		c-0.9-3.2-1.6-6.4-2.3-9.6c-4.9,1-11,0.9-18.2-1.9c-20.3-7.8-36.8-29-75.6-16.9c-38.4,12-60,29.8-85.6,25.6
		C453.8,225.1,452.4,230,450.8,234.9z"/>
	<path d="M495.7,155c1.5-2.3-16.4,0.9-34.5,5c0.1,1.4,0.1,2.8,0.1,4.3C478.6,159.5,494,157.6,495.7,155z"/>
	<path d="M462.3,115.4c-0.8,3.5-1.5,6.7-2,9.5c-0.2,1.2-0.5,2.3-0.7,3.3c-0.4,1.9-0.9,3.7-1.4,5.3c14-8.2,30.4-24.6,45.1-35.1
		c18.5-13.2,51.4,1.2,94.5,4.2c13.3,0.9,21.7,1,27.4,0.2c-0.6-1.6-1.2-3.3-1.9-4.9c-1.8-4.2-3.9-8.2-6.3-11.8
		c-2.2,4.7-4.1,8.4-8.9,8.2c-12.3-0.6-62.3-15.6-96.6-16.2c-34.2-0.6-29.4,12.6-45.9,33.5C464.5,113,463.4,114.2,462.3,115.4z"/>
	<path d="M502.3,61.3c15.2,3,33,8.4,57.1,10.4c35.6,3,45.7,11,41.8,0.6c-1.4-3.6-22.6-9.6-52.7-10.2c-17.4-0.3-22.5-4.9-30.8-10.6
		L502.3,61.3z"/>
	<path d="M630.9,192c-0.4-3.2-0.6-6.3-0.9-9.4c-22-0.5-39.2,2.5-37.6,4.3C594.1,188.9,617.8,186.9,630.9,192z"/>
	<path d="M463.3,310.2c0-1.5-6.4-2.5-14.7-2.9l0,9.2C460,313.8,463.3,313.4,463.3,310.2z"/>
	<path d="M590.9,289.9c26-2.3,45.2,9,45.2,9l6.9-0.7l0-26.9c-17.4,2-20.4,6.5-49.9,1.6c-33.9-5.6-58.7-1.1-77.9,2.3
		c-9.6,1.7-39.3,1.1-66.7,0.2l0,20.2c23.9-2.5,61.8-5.8,63.3-1.2c1.5,4.5-37.6,26.9-63.6,41.1l-0.5,21.8
		c12.8-8.9,55.5-37.8,76.5-42.6C549.2,309.1,565,292.2,590.9,289.9z"/>
	<path d="M589.8,312.5c-19.2,4.5-37.3,16.9-53.1,23.7c-15.8,6.8-53.1,21.5-53.1,21.5s-15.6,3-24.9,8.7c9.5,4.1,25,10,42.8,14.3
		c22.2-14.2,52.6-50.1,84.9-50.1c19.6,0,40.7,3.3,56.8,3.5l0-17.1C614.7,309.6,605.1,308.9,589.8,312.5z"/>
	<path d="M575.1,362.8c-23.7,14.8-22.6,13.9-10.2,13.1s40.7-13.1,56.5-11.3c6.5,0.7,12.4,0.1,17-1c3-1.3,4.7-2.1,4.7-2.1v-3.3h0
		l0-8.6C627.7,333.8,596,349.8,575.1,362.8z"/>
	<path d="M280.7,58.2l-14.9-4.5c-0.3,4-0.9,8.7-1.9,14.4c-0.2,1.3-0.4,2.7-0.6,4c6.3,5.1,11.1,12.3,16.4,22.6
		c5.5,10.8,7.3,22.4,8.8,29.8c0.2,1,0.4,2,0.6,2.9c0.3,1.2,0.6,2.4,0.9,3.6l0-0.1l14.9,3.4c-6.2-23.3-22-38.9-24.2-63.9
		C280.4,66.1,280.4,62,280.7,58.2z"/>
	<path d="M321.5,70.6L302,64.7c0.3,2.2,0.8,4.4,1.4,6.8c4.5,19.2,16.9,37.3,23.7,53.1c1.8,4.2,4.2,10,6.7,16.2l17.8,4l1.8-8.3
		c-15.2-18.3-32-39.5-32-61.6C321.5,73.4,321.5,72,321.5,70.6z"/>
	<path d="M349.4,79c1.4,2.5,2.9,4.9,4.3,7.2c3.4,5.5,6,9.7,8,12.7l2.9-13.4c-0.2-0.6-0.3-1.3-0.5-2L349.4,79z"/>
	<path d="M147.5,67.9c1-0.5,2-1,3.1-1.5l5-2.3l-0.5-1.4c-0.5-2.3-0.9-4.5-1.1-6.3c-0.4-2.6-0.5-4.7-0.5-6.2c0-0.2,0-0.4,0-0.6
		c0,0,0-0.1,0-0.1c0,0,0,0,0,0c0,0,0,0,0,0l-5.5,1.7c0.1,2.7,0.1,5.5,0,8.6C147.9,62.3,147.7,65.1,147.5,67.9z"/>
	<path d="M115.4,127.2l0.5-2.1c1.5-6.9,3.9-18.4,8.7-29.8c2.4-18.1,6-29.3,6.8-39.2l-15.9,4.8c-1.2,18.1-8.8,38.4-12.1,66.3
		c-0.3,2.2-0.4,4.3-0.5,6.4l11.6-2.6C114.8,129.8,115.1,128.5,115.4,127.2z"/>
	<path d="M69.4,141l14.5-3.2c-0.1-17.9,6.9-41.7,9.3-70.2L82,71.1C77.9,89.7,71.2,117.7,69.4,141z"/>
	<path d="M53,112.8c-0.2,7.8-1.2,13.1-2.7,17.4l3.1,14.3l2.1-0.5c2.7-11.9,5.7-25.5,7.1-42.2c0.9-11,2.3-19.6,3.5-26l-9.8,3
		C54.6,87.7,53.3,99.4,53,112.8z"/>
	<path d="M510.6,54.5c-0.4-2.2-0.7-4.3-0.9-6.3c-1.3,0.1-2.6,0.2-3.7,0.3c-1.9,0.1-3.5,0.2-4.8,0.3c-1.1,0.1-1.6,0.1-1.8,0.2h-0.1
		l-3.6,1.1c0.5,4.2,1,8.5,1.5,13L510.6,54.5z"/>
	<path d="M521.1,47.8c-1.1,0-3,0.1-4.8,0.1c0.2,0.9,0.3,1.7,0.5,2.6L521.1,47.8z"/>
	<path d="M457.5,130.8L457.5,130.8c0.3-0.8,0.5-1.7,0.7-2.6c0.1-0.4,0.2-0.7,0.3-1.1c0-0.1,0-0.2,0.1-0.3c0.1-0.7,0.3-1.5,0.5-2.3
		c0-0.2,0.1-0.5,0.1-0.7c0.6-2.7,1.2-5.8,2-9.2c1.2-4.9,2.8-10.4,5-16.1c0.3-0.8,0.6-1.6,1-2.3c2.2-5,4.8-9.6,7.9-13.7
		c-0.2-6.4,0.1-15.7,0.7-26.3l-16.3,4.9c0,12.6-0.7,22.3-3.1,23c-2,0.6-7.3-7-13.6-18L426.6,71c4.4,9.3,7.8,18,9,24.6
		c2.5,13.9,8.7,25.2,13.8,36.9L457.5,130.8z"/>
	<path d="M403.1,78.1l-2.1,0.6l-16.4,5l2,9c10.9,14.4,23,30.5,28.1,47.2l12.4-2.6c-4.6-10.7-10-20.8-13.6-30.1
		C410.9,100,406.8,88.6,403.1,78.1z"/>
	<path d="M579.9,48.1c-2.7-0.1-5.4-0.2-8-0.3l7.8,5.4C579.7,51.6,579.8,49.9,579.9,48.1z"/>
	<path d="M624.2,96.7c0.7,1.7,1.4,3.3,2,4.9c3.2,8.5,4.9,16.3,6.2,22.4c0.2,1.2,0.5,2.3,0.7,3.3c0.3,1.2,0.6,2.4,0.9,3.5l0.1,0
		c1.2-5.3,2.4-11,3.4-16.9c4.7-28.8-6.1-43.8-16.4-57l-18.2-5.5c2.9,6.1,7.2,15.2,10.4,27.4C617.5,84.1,621.3,90,624.2,96.7z"/>
	<path d="M594.5,63.4c0.8,0.5,1.6,0.9,2.3,1.4c-0.5-4.3-1.3-9.8-2.2-15.7l-0.9-0.3l-0.3-0.1c-0.7,0-1.6-0.1-2.8-0.1
		c1,5.1,1.8,9.9,2.5,13.8L594.5,63.4z"/>
	<path d="M636.2,61.6c5.8,7.5,11.8,15.1,16.4,22.2c7.8,12,4.4,29.3-0.4,51.1l12.7,2.8c3.6-15.1,6.9-31.2,7.7-44.8
		c0.6-9.5-0.1-16-1.7-20.9L636.2,61.6z"/>
	<path d="M691.2,78.1c-3.3,16.3-10.6,35.2-14.1,62.3l8.9,2c0.4-3.7,0.8-7.7,1-11.8c1.6-26.2,11.6-24,21.6-47.2L691.2,78.1z"/>
</g>
</svg>
