<?xml version="1.0" encoding="utf-8"?>
<!-- Generator: Adobe Illustrator 25.3.0, SVG Export Plug-In . SVG Version: 6.00 Build 0)  -->
<svg version="1.1" id="Layer_1" xmlns="http://www.w3.org/2000/svg" xmlns:xlink="http://www.w3.org/1999/xlink" x="0px" y="0px"
	 viewBox="0 0 750.2 400.1" style="enable-background:new 0 0 750.2 400.1;" xml:space="preserve">
<g>
	<path d="M119.4,114c-0.5,1.8-0.9,3.5-1.3,5.1c16.1,22.7,31.4,49.9,46.5,78.5c32.6,61.8,64.2,129.7,100.6,169.7
		c1.8-0.3,3.6-0.5,5.4-0.8c-37.2-38.1-69.2-106.1-102.1-168.9C152.6,167.3,136.4,138.1,119.4,114z"/>
	<path d="M116.3,127.6l-0.1,0.6c-0.2,1.1-0.5,2.1-0.8,3.1c0.1,0.3,0.3,1.3,0.6,2.8c13.2,18.7,25.9,40.5,38.4,63.6
		c32.2,59.4,62.9,127.2,97.6,171.5c1.6-0.2,3.3-0.4,4.9-0.6c-35.3-42.7-66.3-110.5-98.6-170.9C144.7,172.2,130.8,148,116.3,127.6z"
		/>
	<path d="M118.2,148.3c0.3,2.4,0.5,5.1,0.7,7.9c8.6,12.8,16.9,26.7,25.2,41.4c32.1,57.2,62.3,125.1,95.9,173c1.5-0.2,3-0.3,4.5-0.5
		c-34-46.5-64.4-114.4-96.5-172.4C138.3,180,128.4,163.3,118.2,148.3z"/>
	<path d="M119.2,168c0,2.2,0,4.5-0.1,6.8c4.8,7.3,9.5,14.9,14.1,22.8c32.3,54.9,62.3,123.1,95.3,174.1c1.4-0.1,2.9-0.3,4.3-0.4
		c-33.2-49.8-63.2-117.9-95.4-173.7C131.4,187.3,125.4,177.4,119.2,168z"/>
	<path d="M118.5,185.3c-0.2,2-0.4,4-0.6,6.1c1.3,2.1,2.7,4.2,4,6.3c32.8,52.4,62.9,121,95.5,174.9c1.4-0.1,2.8-0.2,4.2-0.3
		c-32.7-52.8-62.7-121.2-95.3-174.7C123.7,193.4,121.1,189.3,118.5,185.3z"/>
	<path d="M260.8,71.9c7.3,12.5,14.6,24.4,22.2,35.3c-1-3.3-2.2-6.8-3.7-10.2c-0.2-0.4-0.3-0.7-0.5-1.1c-3-6.7-6.5-12.4-10.5-17.1
		C266,76.2,263.5,73.8,260.8,71.9z"/>
	<path d="M289.4,133.3c-0.1-0.2-0.1-0.5-0.2-0.7c0-0.1-0.1-0.2-0.1-0.3c-0.4-1.4-0.8-2.8-1.1-4.3c-0.2-0.9-0.4-1.8-0.6-2.9
		c0-0.1,0-0.2-0.1-0.3c0-0.2-0.1-0.4-0.1-0.6c-12.4-16.9-24.4-36.7-36.1-57.8c0,0-0.1,0-0.1-0.1l-2.1-0.6c-0.2,0.8-0.5,1.7-0.7,2.5
		c13.3,24.2,26.9,46.8,41.1,65.5C289.3,133.6,289.4,133.4,289.4,133.3z"/>
	<path d="M287.6,142.6c-14.6-19.2-28.5-42.4-42.1-67.3c-0.6,1.3-1.2,2.6-1.9,3.8c14,25.6,28.2,49.6,43.2,69.2
		C287.1,146.2,287.4,144.3,287.6,142.6z"/>
	<path d="M286,158.1c-15.9-20.7-30.9-46.2-45.7-73.5c-0.7,1-1.5,2.1-2.3,3c15.4,28.6,31.1,55.4,47.7,76.8
		C285.7,162.2,285.8,160.1,286,158.1z"/>
	<path d="M285.6,175.3c-18.1-22.9-35-52.2-51.7-83.4c-0.9,0.8-1.8,1.5-2.7,2.3c17.6,33.1,35.5,64.3,54.7,88.3
		C285.7,179.9,285.7,177.6,285.6,175.3z"/>
	<path d="M155.9,65.7l-0.9,0.2c0.6,1.1,1.3,2.2,1.9,3.3C156.6,68.1,156.3,66.9,155.9,65.7z"/>
	<path d="M138.5,76.1c23,35.7,44.5,79.7,66.4,121.6c29.6,56.6,59.8,109.5,95,133.2l0-6.2c-33.6-23.3-62.7-73.1-91.1-127.1
		c-22.3-42.4-44.1-87.4-67.4-124.1C140.4,74.3,139.5,75.2,138.5,76.1z"/>
	<path d="M630.9,124c-0.3-1.6-0.7-3.4-1.1-5.3c-20,29.2-38.9,65.4-57.7,101.8c-30.7,59.6-61.3,120-96.7,152.3c1.6,0.6,3.3,1.1,5,1.7
		c34.8-34.2,65-95,95.6-154C593.8,185.9,611.8,151.8,630.9,124z"/>
	<path d="M631.5,141.2c0.6-3.8,1.1-6.6,1.5-8.3c-0.1-0.2-0.1-0.4-0.2-0.6c-17.6,25.5-34.3,56.4-50.8,88.2
		c-30.3,58.2-60,119.5-93.9,156.5c1.5,0.5,3.1,0.9,4.7,1.4c33.4-38.5,62.9-100.1,93.1-157.8C600.7,192.1,615.7,164.5,631.5,141.2z"
		/>
	<path d="M629.7,162.2c0.1-2.7,0.2-5.2,0.4-7.6c-13,19.8-25.6,42.4-38,65.9c-30,56.9-59.2,118.9-91.9,159.8c1.5,0.4,3,0.7,4.5,1.1
		c32.4-42.2,61.4-104.5,91.4-160.8C607,199.8,618.1,179.9,629.7,162.2z"/>
	<path d="M629.9,180.1c-0.1-2.3-0.2-4.5-0.3-6.6c-9.3,14.5-18.4,30.4-27.3,47c-30,55.4-58.7,118.1-90.6,162.3
		c1.4,0.3,2.9,0.5,4.3,0.8c31.6-45.4,60.2-108.3,90.3-163.1C614,206.4,621.9,192.8,629.9,180.1z"/>
	<path d="M631.4,196.2c-0.3-2-0.5-4-0.7-5.9c-6.1,9.6-12,19.8-18,30.3c-30.1,53.7-58.6,116.9-89.9,164.1c1.4,0.2,2.8,0.4,4.2,0.5
		c31-48.3,59.5-111.7,89.7-164.6C621.6,212.1,626.5,203.9,631.4,196.2z"/>
	<path d="M633.8,210.7c-0.4-1.8-0.7-3.6-1-5.4c-3.1,4.9-6.2,10-9.3,15.2c-30.5,51.7-58.9,115.3-89.7,165.2c1.4,0.1,2.8,0.2,4.2,0.2
		c30.6-50.9,59.1-114.6,89.7-165.5C629.8,217.2,631.8,213.9,633.8,210.7z"/>
	<path d="M461.8,117.8C473.2,102.6,484.2,85,495,66c-2.4,1.4-4.7,3-6.9,4.8c-7.7,13-15.4,25.2-23.4,36.3
		C463.4,110.9,462.5,114.5,461.8,117.8z"/>
	<path d="M458.2,133.3c0,0.1-0.1,0.2-0.1,0.4c0.3,1.3,0.6,3.1,1,5.3c18.2-22.7,35.2-51.9,51.9-83.2l-6,3.8
		C490,87.2,474.6,112.9,458.2,133.3z"/>
	<path d="M460.4,148.2c0.2,1.9,0.4,3.9,0.5,6c22.8-28.3,43.8-66.8,64.6-106.8c-1,0-2.1,0.1-3.1,0.1c-0.1,0.7-0.5,1.3-1.1,1.7
		l-0.8,0.5C501.2,86.6,481.5,121.8,460.4,148.2z"/>
	<path d="M461.4,171.1c26.4-31.8,50.3-77.7,74.2-124c-1.3,0-2.6,0.1-3.8,0.1c-22.7,43.8-45.5,86.8-70.4,117.2
		C461.4,166.6,461.4,168.8,461.4,171.1z"/>
	<path d="M460.3,189.8c30.6-35.1,57.8-89.6,85.3-142.7c-0.2,0-0.4,0-0.6,0h0c-1,0-2.1,0-3.2,0c-26,50.5-52,101.4-80.9,135.4
		C460.8,184.8,460.6,187.3,460.3,189.8z"/>
	<path d="M457.2,210.5c35.7-37.7,66.7-102.5,98.4-163.3c-1.3,0-2.5,0-3.8-0.1c-30,57.8-59.5,118.4-93.1,155.2
		C458.2,205,457.8,207.7,457.2,210.5z"/>
	<path d="M498.4,220.5c-15.7,24.4-32.2,44.9-49.8,58.2l0,6.2c19.3-14.2,37.2-37.2,54.3-64.5c29.7-47.5,57.2-108.2,86.4-159.3l-2.9-2
		C556.7,111.6,528.8,173.3,498.4,220.5z"/>
	<path d="M595.9,65.8l-1.9-1.3c-28.5,49.1-55.4,108.2-84.1,156c-19.2,32-39.3,58.9-61.3,74.5l0,6.2c23.6-16.4,45-45.9,65.5-80.7
		c28.2-48,54.7-106.1,82.9-154c-0.3-0.2-0.6-0.4-0.9-0.6C596,65.9,596,65.9,595.9,65.8z"/>
	<path d="M531.3,220.5c-25.7,46.9-52.4,87.9-82.8,106.8l-0.1,6.2c32.1-19.4,60-63.2,86.9-113c25.5-47.1,50.1-99.6,76.5-141.3
		c-0.8-1-1.7-1.9-2.6-2.9C582.4,119.3,557.4,173,531.3,220.5z"/>
	<path d="M278.7,57.6c8.6,24.7,21.6,51.4,36.2,78.8l4.4,1c-14.4-27.2-27.3-53.8-35.8-78.4L278.7,57.6z"/>
	<path d="M266.1,53.8c9,25.2,22.4,52.3,37.2,80l4.4,1c-14.7-27.6-28-54.6-36.8-79.6L266.1,53.8z"/>
	<path d="M268.8,77.5c-4-8.9-7.5-17.6-10.6-26.1l-4.8-1.5c2.5,6.9,5.3,13.9,8.4,21C264.4,72.8,266.7,75,268.8,77.5z"/>
	<path d="M288.8,125.9c0.9,1.8,1.9,3.5,2.9,5.3l4.4,1c-3.4-6.3-6.7-12.5-9.9-18.7c1,4.1,1.6,7.9,2.3,11
		C288.6,125,288.7,125.4,288.8,125.9z"/>
	<path d="M253,66c-0.9-2.1-1.8-4.3-2.7-6.4c-0.2,1.6-0.5,3.3-0.9,4.9l2.4,0.9C252.2,65.7,252.6,65.8,253,66z"/>
	<path d="M355.6,80.9c1.7,5.9,3.7,12,6,18.1l1.7-7.6c-1-3-1.9-6-2.8-9L355.6,80.9z"/>
	<path d="M342.8,77c3.8,12.7,8.9,25.9,15,39.5l1.4-6.4c-4.6-10.9-8.5-21.5-11.5-31.7L342.8,77z"/>
	<path d="M330.1,73.1c5.8,18.6,14.3,38.4,24.4,58.9l1.3-5.7C347.2,108.3,340,91,335,74.6L330.1,73.1z"/>
	<path d="M317.3,69.3c7.5,23.5,19.4,48.9,33,75.2l1.3,0.3l0.8-3.8c-12.5-24.5-23.3-48.2-30.3-70.2L317.3,69.3z"/>
	<path d="M304.6,65.4c7.9,23.9,20.1,49.8,34.1,76.4l4.5,1c-13.8-26.5-25.9-52.2-33.7-75.9L304.6,65.4z"/>
	<path d="M291.9,61.6c8.2,24.3,20.9,50.6,35.1,77.6l4.5,1c-14.1-26.8-26.6-53-34.7-77.1L291.9,61.6z"/>
	<path d="M150.6,66.4L150.6,66.4c-1.8-5-3.5-9.8-5-14.6l-4,1.2c1.6,5,3.5,10.1,5.5,15.2C148.2,67.6,149.4,67,150.6,66.4z"/>
	<path d="M141.6,71.6c-2.3-5.6-4.5-11.2-6.4-16.7l-3.9,1.2c2.2,5.9,4.6,11.9,7.1,18C139.5,73.2,140.6,72.4,141.6,71.6z"/>
	<path d="M133.9,78.9c-3.2-7.1-6.1-14.1-8.7-20.9l-3.8,1.1c3,7.6,6.4,15.3,10,23.2C132.2,81.1,133,79.9,133.9,78.9z"/>
	<path d="M127.7,88.4c-4.5-9.3-8.7-18.5-12.4-27.5l-3.7,1.1c4.2,10,9,20.1,14.1,30.5C126.4,91.1,127.1,89.7,127.7,88.4z"/>
	<path d="M122.9,99.6c-6.2-12.1-12-24.1-17.1-35.7l-3.6,1.1c5.7,12.8,12.2,25.9,19.2,39.2C121.8,102.7,122.3,101.1,122.9,99.6z"/>
	<path d="M119,111.8c-8.2-15.3-15.9-30.4-22.7-45.1l-3.6,1.1c7.5,15.9,16,32.4,25,49C118.1,115.2,118.5,113.6,119,111.8z"/>
	<path d="M115.4,127.2l0.5-2.1c0,0,0-0.1,0-0.1C105.6,106.2,95.7,87.6,87,69.5l-3.5,1.1c9.4,19.3,20.2,39.2,31.3,59.3
		C115,129,115.2,128.1,115.4,127.2z"/>
	<path d="M109.7,132.1c-11.2-20.2-22.2-40.3-31.9-59.8l-3.5,1c9.8,19.5,20.8,39.4,31.9,59.5L109.7,132.1z"/>
	<path d="M65.4,76.1c10,19.3,20.9,39,31.9,58.8l3.4-0.8c-11-19.8-22-39.7-31.9-59L65.4,76.1z"/>
	<path d="M56.5,78.8c10.1,19.1,21,38.6,31.8,58.1l3.4-0.8c-10.8-19.5-21.8-39.1-31.8-58.3L56.5,78.8z"/>
	<path d="M47.7,81.4c10.2,19,21,38.2,31.6,57.4l3.4-0.8c-10.6-19.3-21.5-38.6-31.7-57.6L47.7,81.4z"/>
	<path d="M40.1,83.7l0.9,4.4c9.6,17.5,19.5,35.2,29.1,52.8l3.5-0.8c-10.4-19-21.2-38.1-31.4-57L40.1,83.7z"/>
	<path d="M47.7,118.3c4.5,8.2,9.1,16.4,13.5,24.5l3.5-0.8c-6.4-11.7-12.9-23.5-19.5-35.2L47.7,118.3z"/>
	<path d="M53.4,144.6l2.1-0.5c-1.2-2.3-2.5-4.6-3.8-6.9L53.4,144.6z"/>
	<path d="M153.5,50.2c0-0.2,0-0.4,0-0.6c0,0,0-0.1,0-0.1c0,0,0,0,0,0c0,0,0,0,0,0l-0.9,0.3c0.3,1.2,0.7,2.4,1.1,3.6
		C153.6,52.1,153.5,51,153.5,50.2z"/>
	<path d="M465.4,100.6c-5.8-12.6-10.8-25-14.8-36.8l-3.9,1.2c4.6,13.1,10.4,26.7,17,40.6C464.2,104,464.8,102.3,465.4,100.6z"/>
	<path d="M471.1,88.6c-3.9-9.6-7.3-18.9-10-28l-4.1,1.2c3.2,10,7.1,20.4,11.7,31.1C469.4,91.4,470.2,90,471.1,88.6z"/>
	<path d="M478.4,78.4c-2.5-7.2-4.7-14.3-6.4-21.1l-4.2,1.3c2,7.6,4.6,15.5,7.6,23.5C476.3,80.9,477.3,79.6,478.4,78.4z"/>
	<path d="M487.2,70c-1.6-5.5-2.9-10.8-3.9-16.1l-4.4,1.3c1.2,5.8,2.8,11.7,4.7,17.8C484.8,72,486,71,487.2,70z"/>
	<path d="M496.8,63.3l0.6-0.4c-0.9-4.3-1.7-8.6-2.2-12.7l-4.6,1.4c0.7,4.5,1.6,9.1,2.7,13.8C494.5,64.8,495.6,64,496.8,63.3z"/>
	<path d="M508.6,55.8c-0.3-2.5-0.5-5-0.7-7.4c-0.7,0-1.3,0.1-1.9,0.1c-1.1,0.1-2.1,0.1-3.1,0.2c0.3,3.3,0.7,6.6,1.2,10L508.6,55.8z"
		/>
	<path d="M521.1,47.8c-1.2,0.1-3.2,0.1-5.1,0.2c0,1,0.1,2,0.1,3L521.1,47.8z"/>
	<path d="M395.9,133.6c1.7,3.1,3.4,6.2,5.1,9.2l3.5-0.7c-3.7-6.8-7.5-13.5-11.2-20.2L395.9,133.6z"/>
	<path d="M388.8,102.2c6.8,12.8,14,25.8,21.2,38.7l3.5-0.7c-9.5-17.2-18.9-34.3-27.5-51L388.8,102.2z"/>
	<path d="M388.9,82.4c9.2,18.5,19.6,37.5,30.1,56.6l3.5-0.7c-10.6-19.2-21-38.3-30.1-56.9L388.9,82.4z"/>
	<path d="M401.1,78.8l-3,0.9c9,18.7,19.4,38,30.1,57.4l3.5-0.7c-10.7-19.6-21.1-39-30-57.8L401.1,78.8z"/>
	<path d="M407.3,76.9c8.8,18.9,19.1,38.5,29.9,58.3l3.5-0.7c-10.9-20-21.1-39.7-29.8-58.6L407.3,76.9z"/>
	<path d="M420.4,72.9l-3.6,1.1c8.4,19.1,18.7,39,29.6,59.2l3.5-0.7C438.9,112.1,428.7,92.1,420.4,72.9z"/>
	<path d="M457.5,130.8L457.5,130.8c0.2-0.6,0.4-1.3,0.6-2.1c-10.6-20.2-20.3-39.9-28-58.8l-3.7,1.1c8,19.3,18.1,39.5,29.1,60.2
		L457.5,130.8z"/>
	<path d="M461.2,114.6C453,98.3,445.8,82.3,440,67l-3.8,1.2c6.5,16.7,14.6,34.1,23.8,51.9C460.3,118.4,460.7,116.5,461.2,114.6z"/>
	<path d="M691,78.1c4,9.9,8.5,20.1,13.5,30.5l1.3-5.8c-3.6-7.9-7-15.6-10-23.2L691,78.1z"/>
	<path d="M708.4,83.3l-4.8-1.4c1.4,3.6,2.9,7.2,4.5,10.9l1.5-6.6C709.1,85.2,708.8,84.2,708.4,83.3z"/>
	<path d="M573.5,47.9c-0.6,0-1.1,0-1.7-0.1l2.4,1.7C574,48.9,573.8,48.4,573.5,47.9z"/>
	<path d="M590,60.3c-2-4-3.9-8-5.7-12c-1.3-0.1-2.7-0.1-4.1-0.2c1.2,2.7,2.5,5.3,3.8,8L590,60.3z"/>
	<path d="M633.9,130.9l4.3,0.9c-2.3-4.2-4.6-8.3-6.9-12.5c0.4,1.6,0.7,3.2,1,4.7c0.2,1.2,0.5,2.3,0.7,3.3
		C633.3,128.6,633.6,129.8,633.9,130.9z"/>
	<path d="M606.2,71.9c-3.8-7.6-7.4-15.1-10.7-22.5l-1.8-0.6l-0.3-0.1c-0.6,0-1.4-0.1-2.3-0.1c2.7,6,5.6,12,8.6,18.1
		C601.9,68.3,604.1,70,606.2,71.9z"/>
	<path d="M603.2,51.7c11.7,26.2,26.7,53.9,42.1,81.8l4.4,1c-15.3-27.7-30.2-55.2-41.7-81.3L603.2,51.7z"/>
	<path d="M615.6,55.4c11.3,25.8,26,53,41.2,80.5l4.4,1c-15.1-27.4-29.6-54.4-40.8-80.1L615.6,55.4z"/>
	<path d="M628.1,59.1c11,25.4,25.3,52.2,40.2,79.3l4.4,1c-14.8-27-29-53.6-39.9-78.8L628.1,59.1z"/>
	<path d="M640.5,62.9c10.7,24.9,24.6,51.4,39.3,78.1l4.4,1c-14.6-26.6-28.4-52.8-38.9-77.6L640.5,62.9z"/>
	<path d="M653,66.6c10.3,24.5,23.9,50.5,38.3,76.9l4.4,1c-14.3-26.2-27.8-52-38-76.4L653,66.6z"/>
	<path d="M665.5,70.4c8.9,21.4,20.3,43.9,32.6,66.8l1.1-5.2c-11-20.7-21-40.9-29-60.2L665.5,70.4z"/>
	<path d="M678,74.2c6.5,15.9,14.4,32.5,23.1,49.4l1.2-5.4c-7.3-14.5-14-28.8-19.6-42.5L678,74.2z"/>
	<path d="M188.4,197.7c-19.7-38.2-39.4-76.5-60.4-107.3c-0.7,1.3-1.3,2.7-2,4.1c20.3,29.5,39.5,66.2,58.5,103.2
		C219.9,266,255,335.4,297.5,362.1c1.6-0.3,2.5-0.5,2.5-0.5v-2.2v-1.9C258,332.3,223.2,265.1,188.4,197.7z"/>
	<path d="M178.5,197.7c-18-34.7-36-68.7-55.2-96.1c-0.6,1.6-1.1,3.1-1.6,4.6c18.4,26.2,35.8,58.4,53,91.5
		c33.6,64.6,66.5,132.9,105.3,167.5c2.2-0.4,4.3-0.7,6.3-1C246.3,332.2,212.6,263.6,178.5,197.7z"/>
	<path d="M115.8,206.3c31.5,48.8,60.3,113.3,91,166.8c1.3,0,2.7-0.1,4-0.2c-31.9-54.6-61.6-121.8-94.2-172.2
		C116.4,202.6,116.1,204.4,115.8,206.3z"/>
	<path d="M112.8,220.1c28.9,44.6,55.6,102.6,83.5,153.3c0.2,0,0.3,0,0.5,0c0.3,0,0.6,0,0.9,0c0.3,0,0.7,0,1,0c0.6,0,1.1,0,1.7,0
		c-28.9-51.8-56.4-112.2-86.3-158.4C113.7,216.6,113.3,218.3,112.8,220.1z"/>
	<path d="M109.2,232.8c26.6,40.6,51.2,92.6,76.6,140.2c1.3,0.1,2.7,0.1,4,0.2c-26.3-48.8-51.7-103-79.2-145.1
		C110.2,229.6,109.7,231.2,109.2,232.8z"/>
	<path d="M105.1,244.6l0,0.2c24.4,36.7,47.1,83.3,70.2,127.5c1.3,0.1,2.7,0.2,4,0.3c-24-45.6-47.4-94.2-72.6-132.4
		C106.2,241.7,105.7,243.2,105.1,244.6z"/>
	<path d="M105.2,263.1c20.6,31.8,40.1,70.3,59.7,108.3c1.3,0.1,2.7,0.3,4,0.4c-20.9-40.4-41.7-82-63.7-115.7L105.2,263.1z"/>
	<path d="M105.2,281.5c16.9,26.5,33,57.5,49.1,88.7c1.3,0.2,2.7,0.3,4.1,0.5c-17.4-33.8-34.9-67.6-53.2-96.2L105.2,281.5z"/>
	<path d="M105.2,299.9c13.1,21,25.8,44.6,38.4,68.8c1.4,0.2,2.7,0.4,4.1,0.6c-13.9-26.9-27.9-53.2-42.5-76.4L105.2,299.9z"/>
	<path d="M105.2,318.4c9.3,15.2,18.4,31.6,27.4,48.5c1.4,0.2,2.8,0.5,4.2,0.7c-10.4-19.7-20.9-38.9-31.6-56.3L105.2,318.4z"/>
	<path d="M104.9,336.4c5.5,9.1,10.9,18.7,16.3,28.5c1.4,0.3,2.9,0.5,4.4,0.8c-6.8-12.5-13.6-24.7-20.6-36.1L104.9,336.4z"/>
	<path d="M104.5,354.3c1.6,2.7,3.3,5.5,4.9,8.3c1.3,0.3,2.9,0.6,4.6,0.9c-3.1-5.5-6.2-10.9-9.3-16.1L104.5,354.3z"/>
	<path d="M288,202.4c-0.3-1.6-0.5-3.2-0.7-4.8c-0.1-1.1-0.3-2.1-0.4-3.2c-21.3-25.7-41-60.5-60.3-97.3c-1,0.6-2,1.1-3,1.6
		c19.4,37.1,39.2,72.5,60.5,98.9C285.4,199.3,286.7,200.9,288,202.4z"/>
	<path d="M292.8,225c-0.8-3-1.6-6-2.2-9c-5.1-5.6-10.1-11.8-15-18.4c-20-26.9-38.7-61.3-57.2-96.8c-1.1,0.3-2.2,0.7-3.3,0.9
		c18,34.8,36.2,68.7,55.5,95.9C277.9,207.8,285.2,217,292.8,225z"/>
	<path d="M299.6,248.5l0-2.7c-0.7-1.9-1.4-3.7-2-5.5c-12-11.4-23.5-26-34.6-42.6c-18.5-27.7-36-61.1-53.5-94.9
		c-1.2,0.1-2.4,0.2-3.7,0.3c17.2,33.4,34.4,66.6,52.6,94.6C271.5,218,285.2,235.6,299.6,248.5z"/>
	<path d="M299.6,265.2l0-6.3c-17.1-14.9-33-36.3-48.4-61.2c-17.7-28.6-34.6-61.8-51.5-94.6c-1.3,0-2.7-0.1-3.9-0.3
		c16.9,32.6,33.7,65.8,51.1,94.9C263.6,225.3,280.9,249.2,299.6,265.2z"/>
	<path d="M299.6,281.7l0-6.3c-21.3-17.6-40.8-45.5-59.5-77.7c-17.4-29.9-34.2-63.6-51.1-96.1c-1.6-0.4-3.1-0.9-4.6-1.5
		c17.2,32.7,34.1,66.9,51.6,97.6C255.9,232.7,276.7,263.2,299.6,281.7z"/>
	<path d="M299.6,298.1l0-6.3c-25.4-19.9-48.2-54.6-70.2-94.2c-18.1-32.6-35.7-68.6-53.7-102.1c-2.7-1.9-5.3-4.1-7.5-6.6
		c19.3,35.1,38,73.6,57.3,108.8C248.6,240,272.6,277.4,299.6,298.1z"/>
	<path d="M299.5,314.4l0-6.2c-29.4-21.8-55.4-63.8-80.6-110.5c-23.2-43-45.6-90.2-69.4-129.4c-1.1,0.6-2.2,1.2-3.2,1.8
		c23.6,38.3,45.9,84.7,68.7,127.6C241.4,247.1,268.6,292,299.5,314.4z"/>
	<path d="M198.8,197.7c-21.2-40.9-42.2-83-64.5-116.9c-0.8,1.1-1.6,2.2-2.4,3.3c21.9,32.8,42.5,73.6,63.1,113.6
		c32.7,63.3,65.7,124.6,105,149.4v-6.1C262.3,316.5,230.3,258.4,198.8,197.7z"/>
	<path d="M555.9,220.5c22.2-42.7,44.1-86.9,67.6-122c-0.1-0.2-0.2-0.4-0.3-0.7c-0.5-1.2-1-2.3-1.6-3.5
		c-24.2,36.3-46.7,82.3-69.5,126.1c-32.2,61.7-65.1,119.2-104.4,139.6l0,1c0,0,0.3,0.3,0.4,0.3l0,0c0,0,0,0,0,0
		c0,0.1,0.1,0.1,0.2,0.2c0.1,0,0.1,0.1,0.2,0.1c0,0,1.4,0.7,3.9,1.9C491.2,340.9,523.9,282.3,555.9,220.5z"/>
	<path d="M565.9,220.5c20.2-39.1,40.3-78.5,61.8-110c-0.4-1.6-0.9-3.1-1.5-4.8c-22.3,32.9-43.1,74.2-64.1,114.7
		c-31.5,60.9-63.2,120.2-100.5,147.1c1.7,0.7,3.5,1.4,5.4,2.2C503.5,340.7,534.7,280.9,565.9,220.5z"/>
	<path d="M636.1,220.5c-0.1-0.5-0.2-1-0.4-1.4c-0.3,0.5-0.6,0.9-0.9,1.4c-31,49.4-59.5,113.1-90,165.6c1.4,0,2.8,0,4.2-0.1
		c29.7-52,57.6-114,88-161.9C636.7,222.9,636.4,221.7,636.1,220.5z"/>
	<path d="M639.2,231.9c-28.9,45.2-55.5,103.3-83.5,153.7c1.4-0.1,2.8-0.2,4.2-0.4c27-49.3,52.8-105.1,80.8-148.7
		C640.2,235,639.7,233.4,639.2,231.9z"/>
	<path d="M643.1,244.2c-26.4,40.9-51,92.9-76.3,140.2c1.4-0.2,2.8-0.4,4.2-0.6c23.9-45,47.1-93.6,72.1-132.5L643.1,244.2z"/>
	<path d="M643.1,262.6c-22.5,35.6-43.6,78.8-65.2,119.9c1.4-0.3,2.9-0.6,4.3-0.9c20.1-38.6,39.9-78.6,60.9-112L643.1,262.6z"/>
	<path d="M643.1,281c-18.5,29.8-36.1,64.7-53.9,99c1.5-0.4,2.9-0.7,4.4-1.1c16.3-31.6,32.5-63.3,49.5-90.8L643.1,281z"/>
	<path d="M643.1,299.6c-14.5,23.8-28.4,50.5-42.3,77.4c1.5-0.4,3-0.9,4.5-1.3c12.4-24,24.9-47.6,37.8-69L643.1,299.6z"/>
	<path d="M617.3,371.7c8.5-16.2,17.2-32,25.9-46.8l0-7.1c-10.4,17.4-20.6,36.2-30.6,55.5C614.2,372.8,615.8,372.3,617.3,371.7z"/>
	<path d="M630.1,367c4.3-8,8.7-15.8,13.1-23.3l0-7.2c-6.1,10.4-12.1,21.2-18.1,32.4C626.9,368.2,628.5,367.6,630.1,367z"/>
	<path d="M643.2,361.4v-3.3h0l0-2.8c-1.6,2.7-3.1,5.5-4.7,8.2C641.5,362.2,643.2,361.4,643.2,361.4z"/>
	<path d="M453.9,224.3c-0.8,2.9-1.7,5.9-2.6,8.9c4.2-3.8,8.3-8.1,12.4-12.6c36.7-41.3,68.7-110.7,101.8-173.1
		c-1.3,0-2.6-0.1-3.8-0.1c-33.6,63.8-66.2,133.9-104,173.2C456.4,221.8,455.2,223,453.9,224.3z"/>
	<path d="M448.5,245.9l0,6.3c10.2-8.4,20-19.2,29.5-31.7c34-44.7,64.2-111.4,95.9-169.8l-2.3-1.6c-0.2-0.1-0.4-0.3-0.5-0.5
		c-32.3,60-63.3,128.1-98.4,171.9C464.9,230.3,456.9,238.9,448.5,245.9z"/>
	<path d="M448.6,262.4l0,6.3c14.9-11.6,28.9-28.3,42.4-48.1C522.6,174,551.3,110.5,581.5,56l-2.9-2c-30.8,55.9-60,120.6-92.5,166.6
		C474.1,237.5,461.7,251.9,448.6,262.4z"/>
	<path d="M448.6,311.2l0,6.2c27.9-18.1,52.6-54.5,76.3-96.8c26.9-48,52.5-103.5,79.9-148.4c-0.9-0.8-1.9-1.6-2.9-2.3
		c-27.7,46.1-53.7,102.6-81.1,150.7C498.3,260,474.8,293.7,448.6,311.2z"/>
	<path d="M448.1,343.5l-0.1,6.1c36.4-20.1,67.4-72,97.5-129.1c24-45.4,47.4-94.2,72.6-132.7c-0.7-1.2-1.5-2.3-2.3-3.5
		c-25.7,39.8-49.6,89.9-74.2,136.1C512.7,274.8,482.9,323.6,448.1,343.5z"/>
</g>
</svg>
