<?xml version="1.0" encoding="utf-8"?>
<!-- Generator: Adobe Illustrator 25.3.0, SVG Export Plug-In . SVG Version: 6.00 Build 0)  -->
<svg version="1.1" id="Layer_1" xmlns="http://www.w3.org/2000/svg" xmlns:xlink="http://www.w3.org/1999/xlink" x="0px" y="0px"
	 viewBox="0 0 750.2 400.1" style="enable-background:new 0 0 750.2 400.1;" xml:space="preserve">
<g>
	<path d="M166.2,225.8h-34.4c-0.5,0-0.9,0.4-0.9,0.8v0.4H111c-0.3,1.1-0.6,2.3-1,3.4h20.9v0.4c0,0.4,0.4,0.8,0.9,0.8h34.4
		c0.5,0,0.9-0.4,0.9-0.8v-0.4h36.5c0.4,0,0.7-0.3,0.7-0.6v-0.3h36v0.3c0,0.3,0.3,0.6,0.7,0.6h34.6v0.4c0,0.4,0.4,0.8,0.9,0.8h18.1
		c-0.6-1.9-1.2-3.9-1.7-5.8h-16.4c-0.5,0-0.9,0.4-0.9,0.8v0.4h-34.6c-0.4,0-0.7,0.3-0.7,0.6v0.5h-36v-0.5c0-0.3-0.3-0.6-0.7-0.6
		h-36.5v-0.4C167.1,226.2,166.7,225.8,166.2,225.8z"/>
	<path d="M166.2,217.3h-34.4c-0.5,0-0.9,0.4-0.9,0.8v0.4h-17.6c-0.3,1.1-0.5,2.3-0.8,3.4h18.5v0.4c0,0.4,0.4,0.8,0.9,0.8h34.4
		c0.5,0,0.9-0.4,0.9-0.8v-0.4h36.5c0.4,0,0.7-0.3,0.7-0.6V221h36v0.3c0,0.3,0.3,0.6,0.7,0.6h34.6v0.4c0,0.4,0.4,0.8,0.9,0.8h15.7
		c-0.5-1.9-1-3.9-1.4-5.8h-14.3c-0.5,0-0.9,0.4-0.9,0.8v0.4h-34.6c-0.4,0-0.7,0.3-0.7,0.6v0.5h-36v-0.5c0-0.3-0.3-0.6-0.7-0.6h-36.5
		v-0.4C167.1,217.7,166.7,217.3,166.2,217.3z"/>
	<path d="M276.6,208.8c-0.5,0-0.9,0.4-0.9,0.8v0.4h-34.6c-0.4,0-0.7,0.3-0.7,0.6v0.5h-36v-0.5c0-0.3-0.3-0.6-0.7-0.6h-36.5v-0.4
		c0-0.4-0.4-0.8-0.9-0.8h-34.4c-0.5,0-0.9,0.4-0.9,0.8v0.4h-15.8c-0.2,1.1-0.5,2.2-0.7,3.4h16.5v0.4c0,0.4,0.4,0.8,0.9,0.8h34.4
		c0.5,0,0.9-0.4,0.9-0.8v-0.4h36.5c0.4,0,0.7-0.3,0.7-0.6v-0.3h36v0.3c0,0.3,0.3,0.6,0.7,0.6h34.6v0.4c0,0.4,0.4,0.8,0.9,0.8h13.7
		c-0.4-2-0.8-3.9-1.2-5.8H276.6z"/>
	<path d="M264.7,75.1h-19.1c-0.5,1.1-1,2.3-1.6,3.4h24C266.9,77.3,265.8,76.2,264.7,75.1z"/>
	<path d="M161.6,79.7c-1.1-1.9-2-3.9-2.8-5.8h-17.8c-2.1,1.7-4,3.7-5.8,5.8H161.6z"/>
	<path d="M157.7,71.2c0-0.1-0.1-0.2-0.1-0.4c-0.6-1.8-1.2-3.5-1.6-5.2l-1.8,0.5c-3.5,1.4-6.7,3-9.6,5H157.7z"/>
	<path d="M248.7,66.6c-0.3,1.1-0.6,2.2-1,3.4h10.5c-0.7-0.4-1.3-0.8-2-1.2c-1.5-0.8-3-1.6-4.6-2.2H248.7z"/>
	<path d="M277.2,121h9.3c-0.2-1.1-0.5-2.2-0.8-3.4h-8.6c-0.4,0-0.7,0.3-0.7,0.6v0.5h-36v-0.5c0-0.3-0.3-0.6-0.7-0.6h-36.5v-0.4
		c0-0.4-0.4-0.8-0.9-0.8h-34.4c-0.5,0-0.9,0.4-0.9,0.8v0.4h-34.4c-0.4,0-0.7,0.3-0.7,0.6v0.5h-13.6c-0.1,0.5-0.2,0.9-0.3,1.4h13.9
		v0.3c0,0.3,0.3,0.6,0.7,0.6H167v0.4c0,0.4,0.4,0.8,0.9,0.8h34.4c0.5,0,0.9-0.4,0.9-0.8V121h36.5c0.4,0,0.7-0.3,0.7-0.6v-0.3h36v0.3
		C276.5,120.8,276.8,121,277.2,121z"/>
	<path d="M277.2,112.6h7.3c-0.3-1.1-0.6-2.2-0.9-3.4h-6.4c-0.4,0-0.7,0.3-0.7,0.6v0.5h-36v-0.5c0-0.3-0.3-0.6-0.7-0.6h-36.5v-0.4
		c0-0.4-0.4-0.8-0.9-0.8h-34.4c-0.5,0-0.9,0.4-0.9,0.8v0.4h-34.4c-0.4,0-0.7,0.3-0.7,0.6v0.5h-11.4c-0.1,0.5-0.3,0.9-0.4,1.4h11.8
		v0.3c0,0.3,0.3,0.6,0.7,0.6H167v0.4c0,0.4,0.4,0.8,0.9,0.8h34.4c0.5,0,0.9-0.4,0.9-0.8v-0.4h36.5c0.4,0,0.7-0.3,0.7-0.6v-0.3h36
		v0.3C276.5,112.3,276.8,112.6,277.2,112.6z"/>
	<path d="M277.2,104.1h4.8c-0.4-1.1-0.8-2.3-1.2-3.4h-3.6c-0.4,0-0.7,0.3-0.7,0.6v0.5h-36v-0.5c0-0.3-0.3-0.6-0.7-0.6h-21
		c-4.7,1.6-9.8,2.4-15.3,2.4h-1.9l-0.1,0c-6.8,0-13.1-1.2-18.7-3.6h-15c-0.5,0-0.9,0.4-0.9,0.8v0.4h-34.4c-0.4,0-0.7,0.3-0.7,0.6
		v0.5h-8.7c-0.2,0.5-0.3,0.9-0.5,1.4h9.2v0.3c0,0.3,0.3,0.6,0.7,0.6H167v0.4c0,0.4,0.4,0.8,0.9,0.8h34.4c0.5,0,0.9-0.4,0.9-0.8v-0.4
		h36.5c0.4,0,0.7-0.3,0.7-0.6v-0.3h36v0.3C276.5,103.8,276.8,104.1,277.2,104.1z"/>
	<path d="M126,94.7h5.8V95c0,0.3,0.3,0.6,0.7,0.6H167V96c0,0.4,0.4,0.8,0.9,0.8h9.7c-2.7-1.6-5.2-3.6-7.5-5.8h-2.3
		c-0.5,0-0.9,0.4-0.9,0.8v0.4h-34.4c-0.4,0-0.7,0.3-0.7,0.6v0.5h-5.2C126.4,93.8,126.2,94.2,126,94.7z"/>
	<path d="M276.5,92.8v0.5h-36v-0.5c0-0.3-0.3-0.6-0.7-0.6h-6.3c-1.4,1.2-2.8,2.4-4.3,3.4h10.6c0.4,0,0.7-0.3,0.7-0.6v-0.3h36V95
		c0,0.3,0.3,0.6,0.7,0.6h1.5c-0.5-1.2-1.1-2.3-1.6-3.4C276.7,92.3,276.5,92.5,276.5,92.8z"/>
	<path d="M131.8,86.2v0.3c0,0.3,0.3,0.6,0.7,0.6h34c-0.9-1.1-1.7-2.2-2.5-3.4h-31.5c-0.4,0-0.7,0.3-0.7,0.6v0.5h-0.5
		c-0.3,0.5-0.6,0.9-0.9,1.4H131.8z"/>
	<path d="M240.5,84.8v-0.5c0,0,0,0,0,0c-0.7,1-1.4,1.9-2.1,2.8h1.4c0.4,0,0.7-0.3,0.7-0.6v-0.3h33.2c-0.3-0.5-0.6-0.9-0.9-1.4H240.5
		z"/>
	<path d="M167.5,88.2c-0.2-0.2-0.4-0.4-0.6-0.7C167,87.9,167.2,88.1,167.5,88.2z"/>
	<path d="M279.3,160.9v-0.5c0-0.3-0.3-0.6-0.7-0.6h-36.5v-0.4c0-0.4-0.4-0.8-0.9-0.8h-34.4c-0.5,0-0.9,0.4-0.9,0.8v0.4h-34.4
		c-0.4,0-0.7,0.3-0.7,0.6v0.5h-35.8v-0.5c0-0.3-0.3-0.6-0.7-0.6H119c0,1.1,0.1,2.2,0.1,3.4h15c0.4,0,0.7-0.3,0.7-0.6v-0.3h35.8v0.3
		c0,0.3,0.3,0.6,0.7,0.6h34.4v0.4c0,0.4,0.4,0.8,0.9,0.8h34.4c0.5,0,0.9-0.4,0.9-0.8v-0.4h36.5c0.4,0,0.7-0.3,0.7-0.6v-0.3h6.4
		c0-0.5,0-0.9,0.1-1.4H279.3z"/>
	<path d="M279.3,152.4v-0.5c0-0.3-0.3-0.6-0.7-0.6h-36.5v-0.4c0-0.4-0.4-0.8-0.9-0.8h-34.4c-0.5,0-0.9,0.4-0.9,0.8v0.4h-34.4
		c-0.4,0-0.7,0.3-0.7,0.6v0.5h-35.8v-0.5c0-0.3-0.3-0.6-0.7-0.6h-15.7c0.1,1.1,0.2,2.2,0.3,3.4h15.4c0.4,0,0.7-0.3,0.7-0.6v-0.3
		h35.8v0.3c0,0.3,0.3,0.6,0.7,0.6h34.4v0.4c0,0.4,0.4,0.8,0.9,0.8h34.4c0.5,0,0.9-0.4,0.9-0.8v-0.4h36.5c0.4,0,0.7-0.3,0.7-0.6v-0.3
		h6.9c0-0.5,0.1-0.9,0.1-1.4H279.3z"/>
	<path d="M279.3,143.9v-0.5c0-0.3-0.3-0.6-0.7-0.6h-36.5v-0.4c0-0.4-0.4-0.8-0.9-0.8h-34.4c-0.5,0-0.9,0.4-0.9,0.8v0.4h-34.4
		c-0.4,0-0.7,0.3-0.7,0.6v0.5h-35.8v-0.5c0-0.3-0.3-0.6-0.7-0.6h-16.7c0.1,1.1,0.3,2.2,0.4,3.4h16.2c0.4,0,0.7-0.3,0.7-0.6v-0.3
		h35.8v0.3c0,0.3,0.3,0.6,0.7,0.6h34.4v0.4c0,0.4,0.4,0.8,0.9,0.8h34.4c0.5,0,0.9-0.4,0.9-0.8v-0.4h36.5c0.4,0,0.7-0.3,0.7-0.6v-0.3
		h7.9c0.1-0.5,0.1-0.9,0.2-1.4H279.3z"/>
	<path d="M279.3,135.4v-0.5c0-0.3-0.3-0.6-0.7-0.6h-36.5v-0.4c0-0.4-0.4-0.8-0.9-0.8h-34.4c-0.5,0-0.9,0.4-0.9,0.8v0.4h-34.4
		c-0.4,0-0.7,0.3-0.7,0.6v0.5h-35.8v-0.5c0-0.3-0.3-0.6-0.7-0.6h-18.1c0.2,0.9,0.4,2.1,0.6,3.4h17.5c0.4,0,0.7-0.3,0.7-0.6v-0.3
		h35.8v0.3c0,0.3,0.3,0.6,0.7,0.6h34.4v0.4c0,0.4,0.4,0.8,0.9,0.8h34.4c0.5,0,0.9-0.4,0.9-0.8v-0.4h36.5c0.4,0,0.7-0.3,0.7-0.6v-0.3
		h9.3c0.1-0.5,0.2-1,0.3-1.4H279.3z"/>
	<path d="M206.7,130.4h34.4c0.5,0,0.9-0.4,0.9-0.8v-0.4h36.5c0.4,0,0.7-0.3,0.7-0.6v-0.3h8.7c0-0.1-0.1-0.2-0.1-0.3
		c-0.1-0.4-0.2-0.7-0.2-1.1h-8.4v-0.5c0-0.3-0.3-0.6-0.7-0.6h-36.5v-0.4c0-0.4-0.4-0.8-0.9-0.8h-34.4c-0.5,0-0.9,0.4-0.9,0.8v0.4
		h-34.4c-0.4,0-0.7,0.3-0.7,0.6v0.5h-35.8v-0.5c0-0.3-0.3-0.6-0.7-0.6h-17.5c0,0.1,0,0.2-0.1,0.2l-0.5,2.2c-0.1,0.3-0.2,0.7-0.2,1
		h18.2c0.4,0,0.7-0.3,0.7-0.6v-0.3h35.8v0.3c0,0.3,0.3,0.6,0.7,0.6h34.4v0.4C205.8,130,206.2,130.4,206.7,130.4z"/>
	<path d="M274.9,201.8v-0.4c0-0.4-0.4-0.8-0.9-0.8h-34.4c-0.5,0-0.9,0.4-0.9,0.8v0.4h-34.4c-0.4,0-0.7,0.3-0.7,0.6v0.5h-32.1v-0.5
		c0-0.3-0.3-0.6-0.7-0.6h-36.5v-0.4c0-0.4-0.4-0.8-0.9-0.8h-16.4c-0.3,1.9-0.6,3.8-1,5.8h17.4c0.5,0,0.9-0.4,0.9-0.8v-0.4h36.5
		c0.4,0,0.7-0.3,0.7-0.6v-0.3h32.1v0.3c0,0.3,0.3,0.6,0.7,0.6h34.4v0.4c0,0.4,0.4,0.8,0.9,0.8H274c0.5,0,0.9-0.4,0.9-0.8v-0.4h13.6
		c-0.2-1.1-0.4-2.3-0.6-3.4H274.9z"/>
	<path d="M133.2,192.1h-15.3c-0.2,1.9-0.5,3.8-0.7,5.8h16c0.5,0,0.9-0.4,0.9-0.8v-0.4h36.5c0.4,0,0.7-0.3,0.7-0.6v-0.3h32.1v0.3
		c0,0.3,0.3,0.6,0.7,0.6h34.4v0.4c0,0.4,0.4,0.8,0.9,0.8H274c0.5,0,0.9-0.4,0.9-0.8v-0.4h12.3c-0.1-1.1-0.3-2.3-0.4-3.4h-11.9v-0.4
		c0-0.4-0.4-0.8-0.9-0.8h-34.4c-0.5,0-0.9,0.4-0.9,0.8v0.4h-34.4c-0.4,0-0.7,0.3-0.7,0.6v0.5h-32.1v-0.5c0-0.3-0.3-0.6-0.7-0.6
		h-36.5v-0.4C134.1,192.5,133.7,192.1,133.2,192.1z"/>
	<path d="M133.2,183.6h-14.5c-0.1,1.9-0.3,3.8-0.5,5.8h15c0.5,0,0.9-0.4,0.9-0.8v-0.4h36.5c0.4,0,0.7-0.3,0.7-0.6v-0.3h32.1v0.3
		c0,0.3,0.3,0.6,0.7,0.6h34.4v0.4c0,0.4,0.4,0.8,0.9,0.8H274c0.5,0,0.9-0.4,0.9-0.8v-0.4h11.4c-0.1-1.1-0.2-2.3-0.3-3.4h-11.2v-0.4
		c0-0.4-0.4-0.8-0.9-0.8h-34.4c-0.5,0-0.9,0.4-0.9,0.8v0.4h-34.4c-0.4,0-0.7,0.3-0.7,0.6v0.5h-32.1v-0.5c0-0.3-0.3-0.6-0.7-0.6
		h-36.5v-0.4C134.1,184,133.7,183.6,133.2,183.6z"/>
	<path d="M133.2,175.1h-14.1c-0.1,1.9-0.1,3.8-0.3,5.8h14.4c0.5,0,0.9-0.4,0.9-0.8v-0.4h36.5c0.4,0,0.7-0.3,0.7-0.6v-0.3h32.1v0.3
		c0,0.3,0.3,0.6,0.7,0.6h34.4v0.4c0,0.4,0.4,0.8,0.9,0.8H274c0.5,0,0.9-0.4,0.9-0.8v-0.4h10.9c-0.1-1.1-0.1-2.3-0.1-3.4h-10.7v-0.4
		c0-0.4-0.4-0.8-0.9-0.8h-34.4c-0.5,0-0.9,0.4-0.9,0.8v0.4h-34.4c-0.4,0-0.7,0.3-0.7,0.6v0.5h-32.1V177c0-0.3-0.3-0.6-0.7-0.6h-36.5
		v-0.4C134.1,175.5,133.7,175.1,133.2,175.1z"/>
	<path d="M274.9,167.4c0-0.4-0.4-0.8-0.9-0.8h-34.4c-0.5,0-0.9,0.4-0.9,0.8v0.4h-34.9c-0.4,0-0.7,0.3-0.7,0.6v0.5h-31.6v-0.5
		c0-0.3-0.3-0.6-0.7-0.6h-36.5v-0.4c0-0.4-0.4-0.8-0.9-0.8h-14c0,1.9,0,3.8,0,5.8h14c0.5,0,0.9-0.4,0.9-0.8v-0.4h36.5
		c0.4,0,0.7-0.3,0.7-0.6v-0.3H203v0.3c0,0.3,0.3,0.6,0.7,0.6h34.9v0.4c0,0.4,0.4,0.8,0.9,0.8H274c0.5,0,0.9-0.4,0.9-0.8v-0.4h10.7
		c0-1.1,0-2.3,0-3.4h-10.7V167.4z"/>
	<path d="M276.6,251.3c-0.5,0-0.9,0.4-0.9,0.8v0.4h-34.6c-0.4,0-0.7,0.3-0.7,0.6v0.5h-36v-0.5c0-0.3-0.3-0.6-0.7-0.6h-36.5v-0.4
		c0-0.4-0.4-0.8-0.9-0.8h-34.4c-0.5,0-0.9,0.4-0.9,0.8v0.4h-25.7l0,3.4h25.7v0.4c0,0.4,0.4,0.8,0.9,0.8h34.4c0.5,0,0.9-0.4,0.9-0.8
		v-0.4h36.5c0.4,0,0.7-0.3,0.7-0.6V255h36v0.3c0,0.3,0.3,0.6,0.7,0.6h34.6v0.4c0,0.4,0.4,0.8,0.9,0.8h23l0-5.8H276.6z"/>
	<path d="M276.6,248.6h23l0-2.8c-0.4-1-0.7-2-1.1-3h-21.9c-0.5,0-0.9,0.4-0.9,0.8v0.4h-34.6c-0.4,0-0.7,0.3-0.7,0.6v0.5h-36v-0.5
		c0-0.3-0.3-0.6-0.7-0.6h-36.5v-0.4c0-0.4-0.4-0.8-0.9-0.8h-34.4c-0.5,0-0.9,0.4-0.9,0.8v0.4h-25.4c-0.1,0.2-0.2,0.4-0.2,0.6l0,2.7
		h25.7v0.4c0,0.4,0.4,0.8,0.9,0.8h34.4c0.5,0,0.9-0.4,0.9-0.8v-0.4h36.5c0.4,0,0.7-0.3,0.7-0.6v-0.3h36v0.3c0,0.3,0.3,0.6,0.7,0.6
		h34.6v0.4C275.7,248.2,276.1,248.6,276.6,248.6z"/>
	<path d="M276.6,240.1h20.9c-0.7-1.9-1.3-3.9-1.9-5.8h-19c-0.5,0-0.9,0.4-0.9,0.8v0.4h-34.6c-0.4,0-0.7,0.3-0.7,0.6v0.5h-36v-0.5
		c0-0.3-0.3-0.6-0.7-0.6h-36.5v-0.4c0-0.4-0.4-0.8-0.9-0.8h-34.4c-0.5,0-0.9,0.4-0.9,0.8v0.4h-22.5c-0.4,1.1-0.7,2.3-1.1,3.4h23.6
		v0.4c0,0.4,0.4,0.8,0.9,0.8h34.4c0.5,0,0.9-0.4,0.9-0.8v-0.4h36.5c0.4,0,0.7-0.3,0.7-0.6V238h36v0.3c0,0.3,0.3,0.6,0.7,0.6h34.6
		v0.4C275.7,239.7,276.1,240.1,276.6,240.1z"/>
	<path d="M277.2,295c-0.4,0-0.7,0.3-0.7,0.6v0.5h-36v-0.5c0-0.3-0.3-0.6-0.7-0.6h-36.5v-0.4c0-0.4-0.4-0.8-0.9-0.8h-34.4
		c-0.5,0-0.9,0.4-0.9,0.8v0.4h-34.4c-0.4,0-0.7,0.3-0.7,0.6v0.5h-26.7l0,1.4h26.7v0.3c0,0.3,0.3,0.6,0.7,0.6H167v0.4
		c0,0.4,0.4,0.8,0.9,0.8h34.4c0.5,0,0.9-0.4,0.9-0.8v-0.4h36.5c0.4,0,0.7-0.3,0.7-0.6v-0.3h36v0.3c0,0.3,0.3,0.6,0.7,0.6h22.4l0-3.4
		H277.2z"/>
	<path d="M277.2,286.5c-0.4,0-0.7,0.3-0.7,0.6v0.5h-36v-0.5c0-0.3-0.3-0.6-0.7-0.6h-36.5v-0.4c0-0.4-0.4-0.8-0.9-0.8h-34.4
		c-0.5,0-0.9,0.4-0.9,0.8v0.4h-34.4c-0.4,0-0.7,0.3-0.7,0.6v0.5h-26.7l0,1.4h26.7v0.3c0,0.3,0.3,0.6,0.7,0.6H167v0.4
		c0,0.4,0.4,0.8,0.9,0.8h34.4c0.5,0,0.9-0.4,0.9-0.8v-0.4h36.5c0.4,0,0.7-0.3,0.7-0.6V289h36v0.3c0,0.3,0.3,0.6,0.7,0.6h22.4l0-3.4
		H277.2z"/>
	<path d="M277.2,281.4h22.4l0-3.4h-22.4c-0.4,0-0.7,0.3-0.7,0.6v0.5h-36v-0.5c0-0.3-0.3-0.6-0.7-0.6h-36.5v-0.4
		c0-0.4-0.4-0.8-0.9-0.8h-34.4c-0.5,0-0.9,0.4-0.9,0.8v0.4h-34.4c-0.4,0-0.7,0.3-0.7,0.6v0.5h-26.7l0,1.4h26.7v0.3
		c0,0.3,0.3,0.6,0.7,0.6H167v0.4c0,0.4,0.4,0.8,0.9,0.8h34.4c0.5,0,0.9-0.4,0.9-0.8v-0.4h36.5c0.4,0,0.7-0.3,0.7-0.6v-0.3h36v0.3
		C276.5,281.1,276.8,281.4,277.2,281.4z"/>
	<path d="M202.3,268.3h-34.4c-0.5,0-0.9,0.4-0.9,0.8v0.4h-34.4c-0.4,0-0.7,0.3-0.7,0.6v0.5h-26.7l0,1.4h26.7v0.3
		c0,0.3,0.3,0.6,0.7,0.6H167v0.4c0,0.4,0.4,0.8,0.9,0.8h34.4c0.5,0,0.9-0.4,0.9-0.8v-0.4h36.5c0.4,0,0.7-0.3,0.7-0.6v-0.3h36v0.3
		c0,0.3,0.3,0.6,0.7,0.6h22.4l0-3.4h-22.4c-0.4,0-0.7,0.3-0.7,0.6v0.5h-36v-0.5c0-0.3-0.3-0.6-0.7-0.6h-36.5v-0.4
		C203.2,268.7,202.8,268.3,202.3,268.3z"/>
	<path d="M277.2,261.1c-0.4,0-0.7,0.3-0.7,0.6v0.5h-36v-0.5c0-0.3-0.3-0.6-0.7-0.6h-36.5v-0.4c0-0.4-0.4-0.8-0.9-0.8h-34.4
		c-0.5,0-0.9,0.4-0.9,0.8v0.4h-34.4c-0.4,0-0.7,0.3-0.7,0.6v0.5h-26.7l0,1.4h26.7v0.3c0,0.3,0.3,0.6,0.7,0.6H167v0.4
		c0,0.4,0.4,0.8,0.9,0.8h34.4c0.5,0,0.9-0.4,0.9-0.8v-0.4h36.5c0.4,0,0.7-0.3,0.7-0.6v-0.3h36v0.3c0,0.3,0.3,0.6,0.7,0.6h22.4l0-3.4
		H277.2z"/>
	<path d="M132,340.5c0.4,0,0.7-0.3,0.7-0.6v-0.3h35.8v0.3c0,0.3,0.3,0.6,0.7,0.6h34.4v0.4c0,0.4,0.4,0.8,0.9,0.8h34.4
		c0.5,0,0.9-0.4,0.9-0.8v-0.4h36.5c0.4,0,0.7-0.3,0.7-0.6v-0.3H300v-1.4h-22.8v-0.5c0-0.3-0.3-0.6-0.7-0.6H240v-0.4
		c0-0.4-0.4-0.8-0.9-0.8h-34.4c-0.5,0-0.9,0.4-0.9,0.8v0.4h-34.4c-0.4,0-0.7,0.3-0.7,0.6v0.5h-35.8v-0.5c0-0.3-0.3-0.6-0.7-0.6
		h-27.2l-0.1,3.4H132z"/>
	<path d="M204.6,333.2h34.4c0.5,0,0.9-0.4,0.9-0.8V332h36.5c0.4,0,0.7-0.3,0.7-0.6v-0.3h22.7l0-1.4h-22.7v-0.5
		c0-0.3-0.3-0.6-0.7-0.6H240v-0.4c0-0.4-0.4-0.8-0.9-0.8h-34.4c-0.5,0-0.9,0.4-0.9,0.8v0.4h-34.4c-0.4,0-0.7,0.3-0.7,0.6v0.5h-35.8
		v-0.5c0-0.3-0.3-0.6-0.7-0.6h-27L105,332H132c0.4,0,0.7-0.3,0.7-0.6v-0.3h35.8v0.3c0,0.3,0.3,0.6,0.7,0.6h34.4v0.4
		C203.7,332.8,204.1,333.2,204.6,333.2z"/>
	<path d="M204.6,324.7h34.4c0.5,0,0.9-0.4,0.9-0.8v-0.4h36.5c0.4,0,0.7-0.3,0.7-0.6v-0.3h22.7l0-1.4h-22.7v-0.5
		c0-0.3-0.3-0.6-0.7-0.6H240v-0.4c0-0.4-0.4-0.8-0.9-0.8h-34.4c-0.5,0-0.9,0.4-0.9,0.8v0.4h-34.4c-0.4,0-0.7,0.3-0.7,0.6v0.5h-35.8
		v-0.5c0-0.3-0.3-0.6-0.7-0.6h-26.9l0,3.3l0,0.1H132c0.4,0,0.7-0.3,0.7-0.6v-0.3h35.8v0.3c0,0.3,0.3,0.6,0.7,0.6h34.4v0.4
		C203.7,324.3,204.1,324.7,204.6,324.7z"/>
	<path d="M132,311.6h-26.9l0,3.4H132c0.4,0,0.7-0.3,0.7-0.6v-0.3h35.8v0.3c0,0.3,0.3,0.6,0.7,0.6h34.4v0.4c0,0.4,0.4,0.8,0.9,0.8
		h34.4c0.5,0,0.9-0.4,0.9-0.8V315h36.5c0.4,0,0.7-0.3,0.7-0.6v-0.3h22.3l0-1.4h-22.3v-0.5c0-0.3-0.3-0.6-0.7-0.6H240v-0.4
		c0-0.4-0.4-0.8-0.9-0.8h-34.4c-0.5,0-0.9,0.4-0.9,0.8v0.4h-34.4c-0.4,0-0.7,0.3-0.7,0.6v0.5h-35.8v-0.5
		C132.8,311.9,132.4,311.6,132,311.6z"/>
	<path d="M277.2,303.7c0-0.3-0.3-0.6-0.7-0.6H240v-0.4c0-0.4-0.4-0.8-0.9-0.8h-34.4c-0.5,0-0.9,0.4-0.9,0.8v0.4h-34.4
		c-0.4,0-0.7,0.3-0.7,0.6v0.5h-35.8v-0.5c0-0.3-0.3-0.6-0.7-0.6h-26.9l0,3.4H132c0.4,0,0.7-0.3,0.7-0.6v-0.3h35.8v0.3
		c0,0.3,0.3,0.6,0.7,0.6h34.4v0.4c0,0.4,0.4,0.8,0.9,0.8h34.4c0.5,0,0.9-0.4,0.9-0.8v-0.4h36.5c0.4,0,0.7-0.3,0.7-0.6v-0.3h22.3
		l0-1.4h-22.3V303.7z"/>
	<path d="M249.8,369.5h-10.3c-0.5,0-0.9,0.4-0.9,0.8v0.4h-34.4c-0.4,0-0.7,0.3-0.7,0.6v0.5h-32.1v-0.5c0-0.3-0.3-0.6-0.7-0.6h-12
		c10.1,1.2,20.6,2.2,30.7,2.5h14.2v0.1C218.5,372.9,234.9,371.3,249.8,369.5z"/>
	<path d="M274.9,362.2v-0.4c0-0.4-0.4-0.8-0.9-0.8h-34.4c-0.5,0-0.9,0.4-0.9,0.8v0.4h-34.4c-0.4,0-0.7,0.3-0.7,0.6v0.5h-32.1v-0.5
		c0-0.3-0.3-0.6-0.7-0.6h-36.5v-0.4c0-0.4-0.4-0.8-0.9-0.8h-28.8v0.6c0,0,0,0,0,0c0,0-0.1,0,0,0h0c0,0,0.1,0,0.2,0c0,0,0,0,0,0v0
		c0,0,11,2.4,26.8,5.1h1.6c0.5,0,0.9-0.4,0.9-0.8v-0.4h36.5c0.4,0,0.7-0.3,0.7-0.6v-0.3h32.1v0.3c0,0.3,0.3,0.6,0.7,0.6h34.4v0.4
		c0,0.4,0.4,0.8,0.9,0.8h30c1.9-0.3,3.7-0.6,5.4-0.8v-0.4h2.4c9-1.4,16-2.7,19.7-3.4H274.9z"/>
	<path d="M133.2,352.5h-28.7l-0.1,4.1l0,1.7h28.8c0.5,0,0.9-0.4,0.9-0.8v-0.4h36.5c0.4,0,0.7-0.3,0.7-0.6v-0.3h32.1v0.3
		c0,0.3,0.3,0.6,0.7,0.6h34.4v0.4c0,0.4,0.4,0.8,0.9,0.8H274c0.5,0,0.9-0.4,0.9-0.8v-0.4H300v-3v-0.4h-25.1v-0.4
		c0-0.4-0.4-0.8-0.9-0.8h-34.4c-0.5,0-0.9,0.4-0.9,0.8v0.4h-34.4c-0.4,0-0.7,0.3-0.7,0.6v0.5h-32.1v-0.5c0-0.3-0.3-0.6-0.7-0.6
		h-36.5v-0.4C134.1,352.8,133.7,352.5,133.2,352.5z"/>
	<path d="M274.9,345.2v-0.4c0-0.4-0.4-0.8-0.9-0.8h-34.4c-0.5,0-0.9,0.4-0.9,0.8v0.4h-34.9c-0.4,0-0.7,0.3-0.7,0.6v0.5h-31.6v-0.5
		c0-0.3-0.3-0.6-0.7-0.6h-36.5v-0.4c0-0.4-0.4-0.8-0.9-0.8h-28.5l-0.1,5.8h28.6c0.5,0,0.9-0.4,0.9-0.8v-0.4h36.5
		c0.4,0,0.7-0.3,0.7-0.6v-0.3H203v0.3c0,0.3,0.3,0.6,0.7,0.6h34.9v0.4c0,0.4,0.4,0.8,0.9,0.8H274c0.5,0,0.9-0.4,0.9-0.8v-0.4H300
		v-3.4H274.9z"/>
	<path d="M472.4,223.1c0.5,0,0.9-0.4,0.9-0.8v-0.4h34.6c0.4,0,0.7-0.3,0.7-0.6V221h36v0.3c0,0.3,0.3,0.6,0.7,0.6h36.5v0.4
		c0,0.4,0.4,0.8,0.9,0.8h34.4c0.5,0,0.9-0.4,0.9-0.8v-0.4h18.3c-0.3-1.1-0.6-2.3-0.9-3.4h-17.4v-0.4c0-0.4-0.4-0.8-0.9-0.8h-34.4
		c-0.5,0-0.9,0.4-0.9,0.8v0.4h-36.5c-0.4,0-0.7,0.3-0.7,0.6v0.5h-36v-0.5c0-0.3-0.3-0.6-0.7-0.6h-34.6v-0.4c0-0.4-0.4-0.8-0.9-0.8
		h-16.7c-0.4,1.9-0.9,3.8-1.5,5.8H472.4z"/>
	<path d="M472.4,214.6c0.5,0,0.9-0.4,0.9-0.8v-0.4h34.6c0.4,0,0.7-0.3,0.7-0.6v-0.3h36v0.3c0,0.3,0.3,0.6,0.7,0.6h36.5v0.4
		c0,0.4,0.4,0.8,0.9,0.8h34.4c0.5,0,0.9-0.4,0.9-0.8v-0.4h16.3c-0.2-1.1-0.5-2.3-0.7-3.4h-15.6v-0.4c0-0.4-0.4-0.8-0.9-0.8h-34.4
		c-0.5,0-0.9,0.4-0.9,0.8v0.4h-36.5c-0.4,0-0.7,0.3-0.7,0.6v0.5h-36v-0.5c0-0.3-0.3-0.6-0.7-0.6h-34.6v-0.4c0-0.4-0.4-0.8-0.9-0.8
		h-14.8c-0.4,1.9-0.8,3.8-1.2,5.8H472.4z"/>
	<path d="M582.7,79.7h29.5c-1.7-2.1-3.5-4-5.5-5.8h-24c-0.5,0-0.9,0.4-0.9,0.8v0.4h-36.5c-0.4,0-0.7,0.3-0.7,0.6v0.5h-36v-0.5
		c0-0.3-0.3-0.6-0.7-0.6h-24.7c-1.1,1.1-2.1,2.2-3.2,3.4h27.9c0.4,0,0.7-0.3,0.7-0.6v-0.3h36v0.3c0,0.3,0.3,0.6,0.7,0.6h36.5v0.4
		C581.8,79.4,582.2,79.7,582.7,79.7z"/>
	<path d="M581.8,66.2v0.4h-36.5c-0.4,0-0.7,0.3-0.7,0.6v0.5h-36v-0.5c0-0.3-0.3-0.6-0.7-0.6h-13.9c-1.7,1.1-3.3,2.2-4.9,3.4h18.9
		c0.4,0,0.7-0.3,0.7-0.6v-0.3h36v0.3c0,0.3,0.3,0.6,0.7,0.6h36.5v0.4c0,0.4,0.4,0.8,0.9,0.8h20.9c-2.4-2-4.9-3.7-7.6-5.3
		c-0.1,0-0.1-0.1-0.1-0.1l-0.6-0.4h-12.6C582.2,65.4,581.8,65.8,581.8,66.2z"/>
	<path d="M582.7,57c-0.5,0-0.9,0.4-0.9,0.8v0.4h-36.5c-0.4,0-0.7,0.3-0.7,0.6v0.5h-36v-0.5c0-0.3-0.3-0.6-0.7-0.6h-0.6l-5.3,3.4h5.9
		c0.4,0,0.7-0.3,0.7-0.6v-0.3h36v0.3c0,0.3,0.3,0.6,0.7,0.6h36.5V62c0,0.4,0.4,0.8,0.9,0.8h8.7L583,57H582.7z"/>
	<path d="M544.6,52.2v0.3c0,0.3,0.3,0.6,0.7,0.6h32l-4.9-3.4h-27.1c-0.4,0-0.7,0.3-0.7,0.6v0.5h-25.8l-2.2,1.4H544.6z"/>
	<path d="M546.6,122.2h34.4c0.5,0,0.9-0.4,0.9-0.8V121h34.4c0.4,0,0.7-0.3,0.7-0.6v-0.3H630c-0.1-0.5-0.2-0.9-0.3-1.4h-12.6v-0.5
		c0-0.3-0.3-0.6-0.7-0.6H582v-0.4c0-0.4-0.4-0.8-0.9-0.8h-34.4c-0.5,0-0.9,0.4-0.9,0.8v0.4h-36.5c-0.4,0-0.7,0.3-0.7,0.6v0.5h-36
		v-0.5c0-0.3-0.3-0.6-0.7-0.6h-10c-0.3,1.2-0.5,2.3-0.7,3.4h10.7c0.4,0,0.7-0.3,0.7-0.6v-0.3h36v0.3c0,0.3,0.3,0.6,0.7,0.6h36.5v0.4
		C545.7,121.9,546.1,122.2,546.6,122.2z"/>
	<path d="M617.1,110.3v-0.5c0-0.3-0.3-0.6-0.7-0.6H582v-0.4c0-0.4-0.4-0.8-0.9-0.8h-34.4c-0.5,0-0.9,0.4-0.9,0.8v0.4h-36.5
		c-0.4,0-0.7,0.3-0.7,0.6v0.5h-36v-0.5c0-0.3-0.3-0.6-0.7-0.6H464c-0.3,1.1-0.7,2.3-0.9,3.4h8.7c0.4,0,0.7-0.3,0.7-0.6v-0.3h36v0.3
		c0,0.3,0.3,0.6,0.7,0.6h36.5v0.4c0,0.4,0.4,0.8,0.9,0.8h34.4c0.5,0,0.9-0.4,0.9-0.8v-0.4h34.4c0.4,0,0.7-0.3,0.7-0.6v-0.3H628
		c-0.1-0.5-0.3-0.9-0.4-1.4H617.1z"/>
	<path d="M617.1,101.8v-0.5c0-0.3-0.3-0.6-0.7-0.6H582v-0.4c0-0.4-0.4-0.8-0.9-0.8h-34.4c-0.5,0-0.9,0.4-0.9,0.8v0.4h-36.5
		c-0.4,0-0.7,0.3-0.7,0.6v0.5h-36v-0.5c0-0.3-0.3-0.6-0.7-0.6h-4.9c-0.4,1.1-0.9,2.3-1.3,3.4h6.1c0.4,0,0.7-0.3,0.7-0.6v-0.3h36v0.3
		c0,0.3,0.3,0.6,0.7,0.6h36.5v0.4c0,0.4,0.4,0.8,0.9,0.8h34.4c0.5,0,0.9-0.4,0.9-0.8v-0.4h34.4c0.4,0,0.7-0.3,0.7-0.6v-0.3h8.2
		c-0.2-0.5-0.3-0.9-0.5-1.4H617.1z"/>
	<path d="M617.1,93.3v-0.5c0-0.3-0.3-0.6-0.7-0.6H582v-0.4c0-0.4-0.4-0.8-0.9-0.8h-34.4c-0.5,0-0.9,0.4-0.9,0.8v0.4h-36.5
		c-0.4,0-0.7,0.3-0.7,0.6v0.5h-36v-0.5c0-0.3-0.3-0.6-0.7-0.6h-1c-0.6,1.1-1.1,2.2-1.7,3.4h2.7c0.4,0,0.7-0.3,0.7-0.6v-0.3h36V95
		c0,0.3,0.3,0.6,0.7,0.6h36.5V96c0,0.4,0.4,0.8,0.9,0.8h34.4c0.5,0,0.9-0.4,0.9-0.8v-0.4h34.4c0.4,0,0.7-0.3,0.7-0.6v-0.3h4.7
		c-0.2-0.5-0.5-0.9-0.7-1.4H617.1z"/>
	<path d="M582,83.7v-0.4c0-0.4-0.4-0.8-0.9-0.8h-34.4c-0.5,0-0.9,0.4-0.9,0.8v0.4h-36.5c-0.4,0-0.7,0.3-0.7,0.6v0.5h-33.3
		c-0.3,0.5-0.6,0.9-0.9,1.4h34.2v0.3c0,0.3,0.3,0.6,0.7,0.6h36.5v0.4c0,0.4,0.4,0.8,0.9,0.8h34.4c0.5,0,0.9-0.4,0.9-0.8v-0.4h34.4
		c0.4,0,0.7-0.3,0.7-0.6v-0.1c-0.6-0.9-1.2-1.8-1.8-2.6H582z"/>
	<path d="M469.6,162.2v0.3c0,0.3,0.3,0.6,0.7,0.6h36.5v0.4c0,0.4,0.4,0.8,0.9,0.8h34.4c0.5,0,0.9-0.4,0.9-0.8v-0.4h34.4
		c0.4,0,0.7-0.3,0.7-0.6v-0.3h35.8v0.3c0,0.3,0.3,0.6,0.7,0.6h14.8c0-1.2,0.1-2.3,0.1-3.4h-15c-0.4,0-0.7,0.3-0.7,0.6v0.5h-35.8
		v-0.5c0-0.3-0.3-0.6-0.7-0.6h-34.4v-0.4c0-0.4-0.4-0.8-0.9-0.8h-34.4c-0.5,0-0.9,0.4-0.9,0.8v0.4h-36.5c-0.4,0-0.7,0.3-0.7,0.6v0.5
		h-8.3c0,0.5,0,0.9,0,1.4H469.6z"/>
	<path d="M614.8,154.6H630c0.1-1.2,0.2-2.3,0.3-3.4h-15.5c-0.4,0-0.7,0.3-0.7,0.6v0.5h-35.8v-0.5c0-0.3-0.3-0.6-0.7-0.6h-34.4v-0.4
		c0-0.4-0.4-0.8-0.9-0.8h-34.4c-0.5,0-0.9,0.4-0.9,0.8v0.4h-36.5c-0.4,0-0.7,0.3-0.7,0.6v0.5h-8.8c0,0.5,0.1,0.9,0.1,1.4h8.7v0.3
		c0,0.3,0.3,0.6,0.7,0.6h36.5v0.4c0,0.4,0.4,0.8,0.9,0.8h34.4c0.5,0,0.9-0.4,0.9-0.8v-0.4h34.4c0.4,0,0.7-0.3,0.7-0.6v-0.3h35.8v0.3
		C614.1,154.4,614.4,154.6,614.8,154.6z"/>
	<path d="M469.6,145.3v0.3c0,0.3,0.3,0.6,0.7,0.6h36.5v0.4c0,0.4,0.4,0.8,0.9,0.8h34.4c0.5,0,0.9-0.4,0.9-0.8v-0.4h34.4
		c0.4,0,0.7-0.3,0.7-0.6v-0.3h35.8v0.3c0,0.3,0.3,0.6,0.7,0.6h16c0.1-1.2,0.3-2.3,0.4-3.4h-16.5c-0.4,0-0.7,0.3-0.7,0.6v0.5h-35.8
		v-0.5c0-0.3-0.3-0.6-0.7-0.6h-34.4v-0.4c0-0.4-0.4-0.8-0.9-0.8h-34.4c-0.5,0-0.9,0.4-0.9,0.8v0.4h-36.5c-0.4,0-0.7,0.3-0.7,0.6v0.5
		h-9.7c0.1,0.5,0.1,0.9,0.2,1.4H469.6z"/>
	<path d="M469.6,136.8v0.3c0,0.3,0.3,0.6,0.7,0.6h36.5v0.4c0,0.4,0.4,0.8,0.9,0.8h34.4c0.5,0,0.9-0.4,0.9-0.8v-0.4h34.4
		c0.4,0,0.7-0.3,0.7-0.6v-0.3h35.8v0.3c0,0.3,0.3,0.6,0.7,0.6h17.3c0.2-1.3,0.4-2.5,0.6-3.4h-17.9c-0.4,0-0.7,0.3-0.7,0.6v0.5h-35.8
		v-0.5c0-0.3-0.3-0.6-0.7-0.6h-34.4v-0.4c0-0.4-0.4-0.8-0.9-0.8h-34.4c-0.5,0-0.9,0.4-0.9,0.8v0.4h-36.5c-0.4,0-0.7,0.3-0.7,0.6v0.5
		h-11.1c0.1,0.4,0.2,0.9,0.3,1.4H469.6z"/>
	<path d="M614.8,129.2H632c-0.1-0.3-0.1-0.6-0.2-0.9c-0.2-0.8-0.3-1.6-0.5-2.5h-16.4c-0.4,0-0.7,0.3-0.7,0.6v0.5h-35.8v-0.5
		c0-0.3-0.3-0.6-0.7-0.6h-34.4v-0.4c0-0.4-0.4-0.8-0.9-0.8h-34.4c-0.5,0-0.9,0.4-0.9,0.8v0.4h-36.5c-0.4,0-0.7,0.3-0.7,0.6v0.5h-9.7
		c-0.1,0.4-0.2,0.9-0.3,1.3c0,0,0,0.1,0,0.1h10v0.3c0,0.3,0.3,0.6,0.7,0.6h36.5v0.4c0,0.4,0.4,0.8,0.9,0.8h34.4
		c0.5,0,0.9-0.4,0.9-0.8v-0.4h34.4c0.4,0,0.7-0.3,0.7-0.6v-0.3h35.8v0.3C614.1,128.9,614.4,129.2,614.8,129.2z"/>
	<path d="M474.1,205.6c0,0.4,0.4,0.8,0.9,0.8h34.4c0.5,0,0.9-0.4,0.9-0.8v-0.4h34.4c0.4,0,0.7-0.3,0.7-0.6v-0.3h32.1v0.3
		c0,0.3,0.3,0.6,0.7,0.6h36.5v0.4c0,0.4,0.4,0.8,0.9,0.8H633c-0.4-2-0.7-3.9-1-5.8h-16.3c-0.5,0-0.9,0.4-0.9,0.8v0.4h-36.5
		c-0.4,0-0.7,0.3-0.7,0.6v0.5h-32.1v-0.5c0-0.3-0.3-0.6-0.7-0.6h-34.4v-0.4c0-0.4-0.4-0.8-0.9-0.8H475c-0.5,0-0.9,0.4-0.9,0.8v0.4
		h-15.3c-0.2,1.1-0.4,2.2-0.6,3.4h15.9V205.6z"/>
	<path d="M615.8,197.9h15.9c-0.3-2-0.5-3.9-0.7-5.8h-15.1c-0.5,0-0.9,0.4-0.9,0.8v0.4h-36.5c-0.4,0-0.7,0.3-0.7,0.6v0.5h-32.1v-0.5
		c0-0.3-0.3-0.6-0.7-0.6h-34.4v-0.4c0-0.4-0.4-0.8-0.9-0.8H475c-0.5,0-0.9,0.4-0.9,0.8v0.4h-14.1c-0.1,1.1-0.3,2.2-0.4,3.4h14.6v0.4
		c0,0.4,0.4,0.8,0.9,0.8h34.4c0.5,0,0.9-0.4,0.9-0.8v-0.4h34.4c0.4,0,0.7-0.3,0.7-0.6v-0.3h32.1v0.3c0,0.3,0.3,0.6,0.7,0.6h36.5v0.4
		C614.8,197.6,615.3,197.9,615.8,197.9z"/>
	<path d="M509.4,183.6H475c-0.5,0-0.9,0.4-0.9,0.8v0.4h-13.3c-0.1,1.1-0.2,2.2-0.3,3.4h13.6v0.4c0,0.4,0.4,0.8,0.9,0.8h34.4
		c0.5,0,0.9-0.4,0.9-0.8v-0.4h34.4c0.4,0,0.7-0.3,0.7-0.6v-0.3h32.1v0.3c0,0.3,0.3,0.6,0.7,0.6h36.5v0.4c0,0.4,0.4,0.8,0.9,0.8h14.8
		c-0.2-2-0.4-3.9-0.5-5.8h-14.3c-0.5,0-0.9,0.4-0.9,0.8v0.4h-36.5c-0.4,0-0.7,0.3-0.7,0.6v0.5h-32.1v-0.5c0-0.3-0.3-0.6-0.7-0.6
		h-34.4v-0.4C510.4,184,510,183.6,509.4,183.6z"/>
	<path d="M509.4,175.1H475c-0.5,0-0.9,0.4-0.9,0.8v0.4h-12.8c0,1.1-0.1,2.2-0.2,3.4h13v0.4c0,0.4,0.4,0.8,0.9,0.8h34.4
		c0.5,0,0.9-0.4,0.9-0.8v-0.4h34.4c0.4,0,0.7-0.3,0.7-0.6v-0.3h32.1v0.3c0,0.3,0.3,0.6,0.7,0.6h36.5v0.4c0,0.4,0.4,0.8,0.9,0.8h14.2
		c-0.1-2-0.2-3.9-0.3-5.8h-13.9c-0.5,0-0.9,0.4-0.9,0.8v0.4h-36.5c-0.4,0-0.7,0.3-0.7,0.6v0.5h-32.1V177c0-0.3-0.3-0.6-0.7-0.6
		h-34.4v-0.4C510.4,175.5,510,175.1,509.4,175.1z"/>
	<path d="M461.4,171.2h12.7v0.4c0,0.4,0.4,0.8,0.9,0.8h34.4c0.5,0,0.9-0.4,0.9-0.8v-0.4h34.9c0.4,0,0.7-0.3,0.7-0.6v-0.3h31.6v0.3
		c0,0.3,0.3,0.6,0.7,0.6h36.5v0.4c0,0.4,0.4,0.8,0.9,0.8h13.8c0-2-0.1-3.9,0-5.8h-13.8c-0.5,0-0.9,0.4-0.9,0.8v0.4h-36.5
		c-0.4,0-0.7,0.3-0.7,0.6v0.5H546v-0.5c0-0.3-0.3-0.6-0.7-0.6h-34.9v-0.4c0-0.4-0.4-0.8-0.9-0.8H475c-0.5,0-0.9,0.4-0.9,0.8v0.4
		h-12.7C461.4,169,461.4,170.1,461.4,171.2z"/>
	<path d="M618.1,252.5v-0.4c0-0.4-0.4-0.8-0.9-0.8h-34.4c-0.5,0-0.9,0.4-0.9,0.8v0.4h-36.5c-0.4,0-0.7,0.3-0.7,0.6v0.5h-36v-0.5
		c0-0.3-0.3-0.6-0.7-0.6h-34.6v-0.4c0-0.4-0.4-0.8-0.9-0.8h-23.8l0,5.8h23.8c0.5,0,0.9-0.4,0.9-0.8v-0.4h34.6c0.4,0,0.7-0.3,0.7-0.6
		V255h36v0.3c0,0.3,0.3,0.6,0.7,0.6h36.5v0.4c0,0.4,0.4,0.8,0.9,0.8h34.4c0.5,0,0.9-0.4,0.9-0.8v-0.4h25l0-3.4H618.1z"/>
	<path d="M582.7,248.6h34.4c0.5,0,0.9-0.4,0.9-0.8v-0.4h25l0-3.4h-25v-0.4c0-0.4-0.4-0.8-0.9-0.8h-34.4c-0.5,0-0.9,0.4-0.9,0.8v0.4
		h-36.5c-0.4,0-0.7,0.3-0.7,0.6v0.5h-36v-0.5c0-0.3-0.3-0.6-0.7-0.6h-34.6v-0.4c0-0.4-0.4-0.8-0.9-0.8h-23.8l0,5.8h23.8
		c0.5,0,0.9-0.4,0.9-0.8v-0.4h34.6c0.4,0,0.7-0.3,0.7-0.6v-0.3h36v0.3c0,0.3,0.3,0.6,0.7,0.6h36.5v0.4
		C581.8,248.2,582.2,248.6,582.7,248.6z"/>
	<path d="M582.7,240.1h34.4c0.5,0,0.9-0.4,0.9-0.8v-0.4h23.4c-0.4-1.1-0.8-2.3-1.1-3.4h-22.3v-0.4c0-0.4-0.4-0.8-0.9-0.8h-34.4
		c-0.5,0-0.9,0.4-0.9,0.8v0.4h-36.5c-0.4,0-0.7,0.3-0.7,0.6v0.5h-36v-0.5c0-0.3-0.3-0.6-0.7-0.6h-34.6v-0.4c0-0.4-0.4-0.8-0.9-0.8
		H451c-0.6,1.9-1.3,3.8-2,5.8h23.4c0.5,0,0.9-0.4,0.9-0.8v-0.4h34.6c0.4,0,0.7-0.3,0.7-0.6V238h36v0.3c0,0.3,0.3,0.6,0.7,0.6h36.5
		v0.4C581.8,239.7,582.2,240.1,582.7,240.1z"/>
	<path d="M472.4,225.8h-18.8c-0.5,1.9-1.1,3.8-1.7,5.8h20.5c0.5,0,0.9-0.4,0.9-0.8v-0.4h34.6c0.4,0,0.7-0.3,0.7-0.6v-0.3h36v0.3
		c0,0.3,0.3,0.6,0.7,0.6h36.5v0.4c0,0.4,0.4,0.8,0.9,0.8h34.4c0.5,0,0.9-0.4,0.9-0.8v-0.4h20.7c-0.3-1.1-0.7-2.3-1-3.4h-19.7v-0.4
		c0-0.4-0.4-0.8-0.9-0.8h-34.4c-0.5,0-0.9,0.4-0.9,0.8v0.4h-36.5c-0.4,0-0.7,0.3-0.7,0.6v0.5h-36v-0.5c0-0.3-0.3-0.6-0.7-0.6h-34.6
		v-0.4C473.3,226.2,472.9,225.8,472.4,225.8z"/>
	<path d="M471.8,298.4c0.4,0,0.7-0.3,0.7-0.6v-0.3h36v0.3c0,0.3,0.3,0.6,0.7,0.6h36.5v0.4c0,0.4,0.4,0.8,0.9,0.8h34.4
		c0.5,0,0.9-0.4,0.9-0.8v-0.4h34.4c0.4,0,0.7-0.3,0.7-0.6v-0.3h25.9l0-1.4h-25.9v-0.5c0-0.3-0.3-0.6-0.7-0.6H582v-0.4
		c0-0.4-0.4-0.8-0.9-0.8h-34.4c-0.5,0-0.9,0.4-0.9,0.8v0.4h-36.5c-0.4,0-0.7,0.3-0.7,0.6v0.5h-36v-0.5c0-0.3-0.3-0.6-0.7-0.6h-23.2
		l0,3.4H471.8z"/>
	<path d="M546.6,291.1h34.4c0.5,0,0.9-0.4,0.9-0.8v-0.4h34.4c0.4,0,0.7-0.3,0.7-0.6V289h26l0-1.4h-26v-0.5c0-0.3-0.3-0.6-0.7-0.6
		H582v-0.4c0-0.4-0.4-0.8-0.9-0.8h-34.4c-0.5,0-0.9,0.4-0.9,0.8v0.4h-36.5c-0.4,0-0.7,0.3-0.7,0.6v0.5h-36v-0.5
		c0-0.3-0.3-0.6-0.7-0.6h-23.2l0,3.4h23.2c0.4,0,0.7-0.3,0.7-0.6V289h36v0.3c0,0.3,0.3,0.6,0.7,0.6h36.5v0.4
		C545.7,290.7,546.1,291.1,546.6,291.1z"/>
	<path d="M617.1,279.2v-0.5c0-0.3-0.3-0.6-0.7-0.6H582v-0.4c0-0.4-0.4-0.8-0.9-0.8h-34.4c-0.5,0-0.9,0.4-0.9,0.8v0.4h-36.5
		c-0.4,0-0.7,0.3-0.7,0.6v0.5h-36v-0.5c0-0.3-0.3-0.6-0.7-0.6h-23.2l0,3.4h23.2c0.4,0,0.7-0.3,0.7-0.6v-0.3h36v0.3
		c0,0.3,0.3,0.6,0.7,0.6h36.5v0.4c0,0.4,0.4,0.8,0.9,0.8h34.4c0.5,0,0.9-0.4,0.9-0.8v-0.4h34.4c0.4,0,0.7-0.3,0.7-0.6v-0.3h26l0-1.4
		H617.1z"/>
	<path d="M617.1,270.7v-0.5c0-0.3-0.3-0.6-0.7-0.6H582v-0.4c0-0.4-0.4-0.8-0.9-0.8h-34.4c-0.5,0-0.9,0.4-0.9,0.8v0.4h-36.5
		c-0.4,0-0.7,0.3-0.7,0.6v0.5h-36v-0.5c0-0.3-0.3-0.6-0.7-0.6h-23.2l0,3.4h23.2c0.4,0,0.7-0.3,0.7-0.6v-0.3h36v0.3
		c0,0.3,0.3,0.6,0.7,0.6h36.5v0.4c0,0.4,0.4,0.8,0.9,0.8h34.4c0.5,0,0.9-0.4,0.9-0.8v-0.4h34.4c0.4,0,0.7-0.3,0.7-0.6v-0.3h26l0-1.4
		H617.1z"/>
	<path d="M617.1,262.2v-0.5c0-0.3-0.3-0.6-0.7-0.6H582v-0.4c0-0.4-0.4-0.8-0.9-0.8h-34.4c-0.5,0-0.9,0.4-0.9,0.8v0.4h-36.5
		c-0.4,0-0.7,0.3-0.7,0.6v0.5h-36v-0.5c0-0.3-0.3-0.6-0.7-0.6h-23.2l0,3.4h23.2c0.4,0,0.7-0.3,0.7-0.6v-0.3h36v0.3
		c0,0.3,0.3,0.6,0.7,0.6h36.5v0.4c0,0.4,0.4,0.8,0.9,0.8h34.4c0.5,0,0.9-0.4,0.9-0.8v-0.4h34.4c0.4,0,0.7-0.3,0.7-0.6v-0.3h26l0-1.4
		H617.1z"/>
	<path d="M616.9,337.1c-0.4,0-0.7,0.3-0.7,0.6v0.5h-35.8v-0.5c0-0.3-0.3-0.6-0.7-0.6h-34.4v-0.4c0-0.4-0.4-0.8-0.9-0.8h-34.4
		c-0.5,0-0.9,0.4-0.9,0.8v0.4h-36.5c-0.4,0-0.7,0.3-0.7,0.6v0.5h-23.5l0,1.4h23.5v0.3c0,0.3,0.3,0.6,0.7,0.6H509v0.4
		c0,0.4,0.4,0.8,0.9,0.8h34.4c0.5,0,0.9-0.4,0.9-0.8v-0.4h34.4c0.4,0,0.7-0.3,0.7-0.6v-0.3h35.8v0.3c0,0.3,0.3,0.6,0.7,0.6h26.3
		l0-3.4H616.9z"/>
	<path d="M616.9,332h26.3l0-3.4h-26.3c-0.4,0-0.7,0.3-0.7,0.6v0.5h-35.8v-0.5c0-0.3-0.3-0.6-0.7-0.6h-34.4v-0.4
		c0-0.4-0.4-0.8-0.9-0.8h-34.4c-0.5,0-0.9,0.4-0.9,0.8v0.4h-36.5c-0.4,0-0.7,0.3-0.7,0.6v0.5h-23.3l0,1.4h23.3v0.3
		c0,0.3,0.3,0.6,0.7,0.6H509v0.4c0,0.4,0.4,0.8,0.9,0.8h34.4c0.5,0,0.9-0.4,0.9-0.8V332h34.4c0.4,0,0.7-0.3,0.7-0.6v-0.3h35.8v0.3
		C616.2,331.7,616.5,332,616.9,332z"/>
	<path d="M616.9,323.5h26.3l0-3.4h-26.3c-0.4,0-0.7,0.3-0.7,0.6v0.5h-35.8v-0.5c0-0.3-0.3-0.6-0.7-0.6h-34.4v-0.4
		c0-0.4-0.4-0.8-0.9-0.8h-34.4c-0.5,0-0.9,0.4-0.9,0.8v0.4h-36.5c-0.4,0-0.7,0.3-0.7,0.6v0.5h-23.1l0,1.4h23.1v0.3
		c0,0.3,0.3,0.6,0.7,0.6H509v0.4c0,0.4,0.4,0.8,0.9,0.8h34.4c0.5,0,0.9-0.4,0.9-0.8v-0.4h34.4c0.4,0,0.7-0.3,0.7-0.6v-0.3h35.8v0.3
		C616.2,323.2,616.5,323.5,616.9,323.5z"/>
	<path d="M544.3,310.4h-34.4c-0.5,0-0.9,0.4-0.9,0.8v0.4h-36.5c-0.4,0-0.7,0.3-0.7,0.6v0.5h-23.1l0,1.4h23.1v0.3
		c0,0.3,0.3,0.6,0.7,0.6H509v0.4c0,0.4,0.4,0.8,0.9,0.8h34.4c0.5,0,0.9-0.4,0.9-0.8V315h34.4c0.4,0,0.7-0.3,0.7-0.6v-0.3h35.8v0.3
		c0,0.3,0.3,0.6,0.7,0.6H643l0-3.4h-26.1c-0.4,0-0.7,0.3-0.7,0.6v0.5h-35.8v-0.5c0-0.3-0.3-0.6-0.7-0.6h-34.4v-0.4
		C545.3,310.8,544.9,310.4,544.3,310.4z"/>
	<path d="M616.9,303.1c-0.4,0-0.7,0.3-0.7,0.6v0.5h-35.8v-0.5c0-0.3-0.3-0.6-0.7-0.6h-34.4v-0.4c0-0.4-0.4-0.8-0.9-0.8h-34.4
		c-0.5,0-0.9,0.4-0.9,0.8v0.4h-36.5c-0.4,0-0.7,0.3-0.7,0.6v0.5h-23.1l0,1.4h23.1v0.3c0,0.3,0.3,0.6,0.7,0.6H509v0.4
		c0,0.4,0.4,0.8,0.9,0.8h34.4c0.5,0,0.9-0.4,0.9-0.8v-0.4h34.4c0.4,0,0.7-0.3,0.7-0.6v-0.3h35.8v0.3c0,0.3,0.3,0.6,0.7,0.6H643
		l0-3.4H616.9z"/>
	<path d="M578.3,379.1c-0.4,0-0.7,0.3-0.7,0.6v0.5h-32.1v-0.5c0-0.3-0.3-0.6-0.7-0.6h-34.4v-0.4c0-0.4-0.4-0.8-0.9-0.8h-18.2
		c6,1.7,12.5,3.3,19.1,4.6v-0.1h34.4c0.4,0,0.7-0.3,0.7-0.6v-0.3h32.1v0.3c0,0.3,0.2,0.5,0.5,0.6c5.1-1,10-2.1,14.8-3.3H578.3z"/>
	<path d="M610.4,374c4.8-1.6,9.3-3.1,13.2-4.6h-7.8c-0.5,0-0.9,0.4-0.9,0.8v0.4h-36.5c-0.4,0-0.7,0.3-0.7,0.6v0.5h-32.1v-0.5
		c0-0.3-0.3-0.6-0.7-0.6h-34.4v-0.4c0-0.4-0.4-0.8-0.9-0.8H475c-0.5,0-0.9,0.4-0.9,0.8v0.4h-4.7c3.9,1.5,8.3,3.1,13,4.6h27.1
		c0.5,0,0.9-0.4,0.9-0.8V374h34.4c0.4,0,0.7-0.3,0.7-0.6v-0.3h32.1v0.3c0,0.3,0.3,0.6,0.7,0.6H610.4z"/>
	<path d="M615.8,361c-0.5,0-0.9,0.4-0.9,0.8v0.4h-36.5c-0.4,0-0.7,0.3-0.7,0.6v0.5h-32.1v-0.5c0-0.3-0.3-0.6-0.7-0.6h-34.4v-0.4
		c0-0.4-0.4-0.8-0.9-0.8H475c-0.5,0-0.9,0.4-0.9,0.8v0.4h-24.6c1.3,0.6,3.8,1.8,7.4,3.4h17.3v0.4c0,0.4,0.4,0.8,0.9,0.8h34.4
		c0.5,0,0.9-0.4,0.9-0.8v-0.4h34.4c0.4,0,0.7-0.3,0.7-0.6v-0.3h32.1v0.3c0,0.3,0.3,0.6,0.7,0.6h36.5v0.4c0,0.4,0.4,0.8,0.9,0.8h14.9
		c7.9-3.1,12.6-5.4,12.6-5.4V361H615.8z"/>
	<path d="M447.8,357.1h26.3v0.4c0,0.4,0.4,0.8,0.9,0.8h34.4c0.5,0,0.9-0.4,0.9-0.8v-0.4h34.4c0.4,0,0.7-0.3,0.7-0.6v-0.3h32.1v0.3
		c0,0.3,0.3,0.6,0.7,0.6h36.5v0.4c0,0.4,0.4,0.8,0.9,0.8h27.4v-0.2h0l0-5.6h-27.4c-0.5,0-0.9,0.4-0.9,0.8v0.4h-36.5
		c-0.4,0-0.7,0.3-0.7,0.6v0.5h-32.1v-0.5c0-0.3-0.3-0.6-0.7-0.6h-34.4v-0.4c0-0.4-0.4-0.8-0.9-0.8H475c-0.5,0-0.9,0.4-0.9,0.8v0.4
		h-26.2L447.8,357.1z"/>
	<path d="M509.4,344H475c-0.5,0-0.9,0.4-0.9,0.8v0.4h-26l-0.1,3.4h26.1v0.4c0,0.4,0.4,0.8,0.9,0.8h34.4c0.5,0,0.9-0.4,0.9-0.8v-0.4
		h34.9c0.4,0,0.7-0.3,0.7-0.6v-0.3h31.6v0.3c0,0.3,0.3,0.6,0.7,0.6h36.5v0.4c0,0.4,0.4,0.8,0.9,0.8h27.4l0-5.8h-27.4
		c-0.5,0-0.9,0.4-0.9,0.8v0.4h-36.5c-0.4,0-0.7,0.3-0.7,0.6v0.5H546v-0.5c0-0.3-0.3-0.6-0.7-0.6h-34.9v-0.4
		C510.4,344.4,510,344,509.4,344z"/>
</g>
</svg>
