<?xml version="1.0" encoding="utf-8"?>
<!-- Generator: Adobe Illustrator 25.3.0, SVG Export Plug-In . SVG Version: 6.00 Build 0)  -->
<svg version="1.1" id="Layer_1" xmlns="http://www.w3.org/2000/svg" xmlns:xlink="http://www.w3.org/1999/xlink" x="0px" y="0px"
	 viewBox="0 0 750.2 400.1" style="enable-background:new 0 0 750.2 400.1;" xml:space="preserve">
<style type="text/css">
	.st0{fill:none;}
</style>
<g>
	<path class="st0" d="M479.7,259.4c6.4,0,12.6,0,18.8,0c0-3.2,0-6.2,0-9.4c-6.4,0-12.6,0-18.8,0
		C479.7,253.2,479.7,256.3,479.7,259.4z"/>
	<path class="st0" d="M451.3,278.5c0,3.1,0,6.2,0,9.3c3.2,0,6.3,0,9.4,0c0-3.2,0-6.3,0-9.3C457.6,278.5,454.4,278.5,451.3,278.5z"/>
	<path class="st0" d="M460.8,335.4c0-3.3,0-6.4,0-9.5c3.2,0,6.3,0,9.4,0c0,0,0,0,0,0c0,0,0,0,0,0c0-6.3,0-12.6,0-18.8
		c-3.3,0-6.4,0-9.6,0c0,3.2,0,6.2,0,9.4c-3.2,0-6.3,0-9.4,0c0,6.4,0,12.7,0,18.9c0,0,0,0,0,0c0,0,0,0,0,0.1
		C454.4,335.4,457.5,335.4,460.8,335.4z"/>
	<path class="st0" d="M536.5,98.3c0-3.3,0-6.3,0-9.5c-3.2,0-6.3,0-9.4,0c0,0,0,0,0,0c0,0,0,0,0,0c0,6.3,0,12.5,0,19
		c3.3,0,6.3,0,9.6,0c0,6.4,0,12.6,0,18.9c3.2,0,6.3,0,9.4,0c0-3.1,0-6.2,0-9.5c3.2,0,6.4,0,9.5,0c0-3.1,0-6.2,0-9.5
		c-3.2,0-6.3,0-9.4,0c0-3.2,0-6.3,0-9.4c0,0,0,0,0,0l0-0.1c0,0,0,0.1,0,0.1c0,0,0,0,0-0.1C542.9,98.3,539.8,98.3,536.5,98.3z"/>
	<path class="st0" d="M508.2,117.4c0,15.9,0,31.6,0,47.4c6.4,0,12.6,0,18.9,0c0,0,0,0,0,0c0,0,0,0,0,0c0-9.4,0-18.9,0-28.5
		c-3.3,0-6.3,0-9.4,0c0-3.2,0-6.3,0-9.5c3.2,0,6.2,0,9.2,0c0-3.2,0-6.2,0-9.5c-3.2,0-6.2,0-9.4,0c0-6.4,0-12.5,0-18.8
		c-3.2,0-6.2,0-9.5,0c0,3.2,0,6.2,0,9.4c-3.3,0-6.3,0-9.4,0c0,0,0,0,0,0c0,0,0,0,0,0c0,3.1,0,6.2,0,9.5
		C501.9,117.4,505,117.4,508.2,117.4z"/>
	<path class="st0" d="M460.7,231c3.2,0,6.3,0,9.4,0c0-3.1,0-6.2,0-9.4c-3.3,0-6.4,0-9.4,0C460.7,224.7,460.7,227.8,460.7,231z"/>
	<path class="st0" d="M470.2,136.3c-3.1,0-6.2,0-9.3,0c0,3.2,0,6.3,0,9.4c3.2,0,6.3,0,9.3,0C470.2,142.6,470.2,139.4,470.2,136.3z"
		/>
	<path class="st0" d="M517.6,79.4c0,3.1,0,6.2,0,9.5c3.3,0,6.3,0,9.4,0c0,0,0,0,0,0c0,0,0,0,0,0c0-3.1,0-6.3,0-9.4c0,0,0,0-0.1,0
		c0,0,0,0,0,0C523.9,79.4,520.8,79.4,517.6,79.4z"/>
	<path class="st0" d="M489.2,155.2c0,3.3,0,6.3,0,9.4c3.2,0,6.2,0,9.3,0c0-9.5,0-18.9,0-28.3c-6.3,0-12.6,0-18.8,0
		c0,3.1,0,6.2,0,9.5c-3.2,0-6.4,0-9.5,0c0,3.1,0,6.3,0,9.4c0,0,0,0,0,0c0,0,0,0,0,0C476.5,155.2,482.8,155.2,489.2,155.2z"/>
	<path class="st0" d="M584,107.9c0,3.2,0,6.3,0,9.4c3.1,0,6.3,0,9.4,0c0-6.3,0-12.6,0-18.9c-9.4,0-18.9,0-28.3,0c0,3.2,0,6.3,0,9.5
		C571.4,107.9,577.6,107.9,584,107.9z"/>
	<path class="st0" d="M517.6,79.4c0-3.1,0-6.2,0-9.3c-3.2,0-6.3,0-9.3,0c0,3.2,0,6.2,0,9.3C511.4,79.4,514.5,79.4,517.6,79.4z"/>
	<path class="st0" d="M119.1,363.7c6.5,0,12.7,0,18.9,0c0-9.5,0-18.9,0-28.3c-3.2,0-6.3,0-9.3,0c0,0,0,0,0,0c0,0,0,0-0.1,0
		c0,6.3,0,12.6,0,18.9c-3.3,0-6.4,0-9.4,0c0,0,0,0,0,0.1c0,0,0,0,0,0C119.1,357.5,119.1,360.6,119.1,363.7z"/>
	<path class="st0" d="M251.8,316.4c-3.1,0-6.2,0-9.4,0c0,3.2,0,6.3,0,9.3c3.2,0,6.2,0,9.4,0C251.8,322.6,251.8,319.5,251.8,316.4z"
		/>
	<path class="st0" d="M242.4,344.8c-3.3,0-6.3,0-9.6,0c0-3.2,0-6.3,0-9.3c-3.2,0-6.2,0-9.4,0c0,3.1,0,6.2,0,9.4c-3.2,0-6.3,0-9.4,0
		c0,3.3,0,6.3,0,9.4c6.2,0,12.5,0,19,0c0,3.2,0,6.4,0,9.5c3.1,0,6.3,0,9.4,0c0,0,0,0,0-0.1c0,0,0,0,0,0
		C242.4,357.5,242.4,351.2,242.4,344.8z"/>
	<path class="st0" d="M621.9,344.9c3.3,0,6.4,0,9.5,0c0,0,0,0,0,0c0,0,0,0,0.1,0c0-6.3,0-12.6,0-18.9c0,0,0,0-0.1,0c0,0,0,0,0,0
		c-3.1,0-6.3,0-9.4,0c0,0,0,0,0,0.1c0,0,0,0,0,0C621.9,332.2,621.9,338.5,621.9,344.9z"/>
	<path class="st0" d="M119.2,126.8c0,3.2,0,6.3,0,9.4c3.2,0,6.3,0,9.3,0c0-3.1,0-6.3,0-9.4C125.5,126.8,122.4,126.8,119.2,126.8z"/>
	<path class="st0" d="M460.8,354.3c0,3.3,0,6.3,0,9.4c3.2,0,6.2,0,9.4,0c0-3.2,0-6.2,0-9.4c3.3,0,6.3,0,9.4,0c0-3.1,0-6.2,0-9.5
		c3.2,0,6.4,0,9.5,0c0-3.1,0-6.3,0-9.4c0,0,0,0,0,0c0,0,0,0,0,0c-3.1,0-6.2,0-9.5,0c0-3.3,0-6.3,0-9.5c-3.2,0-6.3,0-9.4,0
		c0,0,0,0,0,0c0,0,0,0,0,0c0,6.3,0,12.6,0,18.9c-6.4,0-12.7,0-18.9,0c0,0,0,0,0,0c0,0,0,0-0.1,0c0,3.1,0,6.3,0,9.4c0,0,0,0,0.1,0
		c0,0,0,0,0,0C454.4,354.3,457.5,354.3,460.8,354.3z"/>
	<path class="st0" d="M593.4,70c-3.2,0-6.3,0-9.3,0c0,3.2,0,6.2,0,9.4c3.2,0,6.3,0,9.3,0C593.4,76.2,593.4,73.1,593.4,70z"/>
	<path class="st0" d="M546,316.4c0-6.4,0-12.7,0-19c-3.1,0-6.2,0-9.5,0c0,3.2,0,6.3,0,9.5c-3.2,0-6.3,0-9.4,0c0,9.5,0,18.9,0,28.4
		c3.1,0,6.2,0,9.5,0c0-3.2,0-6.3,0-9.3c3.2,0,6.3,0,9.4,0c0,6.4,0,12.6,0,18.8c0,0,0,0,0,0c0,0,0,0,0,0.1c3.1,0,6.3,0,9.4,0
		c0,0,0,0,0-0.1c0,0,0,0,0,0c0-9.5,0-18.9,0-28.4C552.4,316.4,549.3,316.4,546,316.4z"/>
	<path class="st0" d="M574.5,240.4c3.2,0,6.3,0,9.3,0c0-3.2,0-6.2,0-9.4c-3.2,0-6.3,0-9.3,0C574.5,234.2,574.5,237.3,574.5,240.4z"
		/>
	<path class="st0" d="M498.7,363.8c-3.3,0-6.4,0-9.5,0c0,0,0,0,0,0c0,0,0,0,0,0c0,3.1,0,6.3,0,9.4c0,0,0,0,0,0c0,0,0,0,0,0.1
		c3.1,0,6.3,0,9.4,0c0,0,0,0,0-0.1c0,0,0,0,0,0C498.7,370.1,498.7,367,498.7,363.8z"/>
	<path class="st0" d="M593.3,269c0-6.4,0-12.6,0-18.8c-3.2,0-6.2,0-9.3,0c0,6.4,0,12.6,0,18.8C587.1,269,590.2,269,593.3,269z"/>
	<path class="st0" d="M584,335.4c-3.2,0-6.4,0-9.5,0c0,3.1,0,6.3,0,9.4c0,0,0,0,0.1,0c0,0,0,0,0,0c6.3,0,12.6,0,18.9,0c0,0,0,0,0,0
		c0,0,0,0,0.1,0c0-6.3,0-12.6,0-18.9c0,0,0,0-0.1,0c0,0,0,0,0,0c-3.1,0-6.3,0-9.4,0C584,329,584,332.1,584,335.4z"/>
	<path class="st0" d="M498.6,212.1c3.2,0,6.4,0,9.5,0c0-3.1,0-6.1,0-9.4c3.2,0,6.2,0,9.5,0c0-3.3,0-6.4,0-9.5c-6.3,0-12.6,0-19,0
		c0-6.5,0-12.7,0-18.9c-3.2,0-6.2,0-9.4,0c0,12.6,0,25.2,0,37.8c-3.3,0-6.3,0-9.4,0c0,0,0,0,0,0c0,0,0,0,0,0c0,3.1,0,6.2,0,9.4
		c6.5,0,12.7,0,19,0C498.6,218.5,498.6,215.4,498.6,212.1z"/>
	<path class="st0" d="M498.6,269.1c-6.4,0-12.6,0-18.8,0c0,3.2,0,6.2,0,9.4c3.2,0,6.2,0,9.4,0c0,3.3,0,6.3,0,9.4c3.1,0,6.3,0,9.4,0
		C498.6,281.7,498.6,275.4,498.6,269.1z"/>
	<path class="st0" d="M479.7,363.8c3.3,0,6.4,0,9.4,0c0,0,0,0,0,0c0,0,0,0,0,0c0-3.1,0-6.3,0-9.4c-3.1,0-6.3,0-9.4,0
		C479.7,357.5,479.7,360.6,479.7,363.8z"/>
	<path class="st0" d="M565,297.4c0-6.2,0-12.5,0-18.8c3.2,0,6.2,0,9.5,0c0,6.3,0,12.5,0,18.8c6.3,0,12.5,0,18.8,0c0-6.4,0-12.6,0-19
		c-3.2,0-6.2,0-9.4,0c0-3.3,0-6.3,0-9.4c-15.7,0-31.5,0-47.3,0c0,6.4,0,12.6,0,19c3.2,0,6.2,0,9.4,0c0,3.3,0,6.3,0,9.4
		C552.4,297.4,558.7,297.4,565,297.4z"/>
	<path class="st0" d="M498.5,354.3c0-3.2,0-6.3,0-9.4c-3.2,0-6.3,0-9.3,0c0,3.1,0,6.3,0,9.4C492.3,354.3,495.4,354.3,498.5,354.3z"
		/>
	<path class="st0" d="M536.6,193.2c-3.2,0-6.4,0-9.5,0c0,3.1,0,6.2,0,9.3c6.3,0,12.5,0,18.9,0c0-6.2,0-12.4,0-18.8
		c3.2,0,6.3,0,9.5,0c0-3.3,0-6.4,0-9.5c-6.3,0-12.6,0-18.9,0C536.6,180.4,536.6,186.7,536.6,193.2z"/>
	<path class="st0" d="M555.5,155.2c3.2,0,6.4,0,9.5,0c0-12.6,0-25.2,0-37.9c-3.3,0-6.4,0-9.4,0c0,3.1,0,6.2,0,9.5
		c-3.2,0-6.4,0-9.5,0c0,6.3,0,12.5,0,19c-3.3,0-6.4,0-9.4,0c0,3.2,0,6.2,0,9.4c3.1,0,6.2,0,9.4,0c0,3.2,0,6.3,0,9.4
		c3.3,0,6.3,0,9.4,0C555.5,161.6,555.5,158.5,555.5,155.2z"/>
	<path class="st0" d="M536.5,164.7c-3.3,0-6.4,0-9.4,0c0,0,0,0,0,0c0,0,0,0,0,0c0,3.1,0,6.3,0,9.4c3.1,0,6.3,0,9.4,0
		C536.5,171,536.5,167.9,536.5,164.7z"/>
	<path class="st0" d="M565,164.7c-3.1,0-6.3,0-9.4,0c0,3.1,0,6.3,0,9.4c3.1,0,6.3,0,9.4,0C565,171,565,167.9,565,164.7z"/>
	<path class="st0" d="M612.4,221.6C612.4,221.6,612.4,221.6,612.4,221.6c0-3.1,0-6.3,0-9.4c-3.1,0-6.2,0-9.4,0c0,3.3,0,6.4,0,9.4
		C606.1,221.6,609.2,221.6,612.4,221.6C612.4,221.6,612.4,221.6,612.4,221.6z"/>
	<path class="st0" d="M565,297.5c0,3.1,0,6.3,0,9.4c3.1,0,6.2,0,9.4,0c0-3.3,0-6.4,0-9.4C571.3,297.5,568.2,297.5,565,297.5z"/>
	<path class="st0" d="M602.9,221.6c-3.1,0-6.2,0-9.3,0c0,6.4,0,12.6,0,18.9c3.2,0,6.3,0,9.3,0C602.9,234.2,602.9,227.9,602.9,221.6z
		"/>
	<path class="st0" d="M555.5,316.4c3.1,0,6.3,0,9.4,0c0,0,0,0,0,0c0,0,0,0,0,0c0-3.1,0-6.3,0-9.4c-3.1,0-6.2,0-9.4,0
		C555.5,310.1,555.5,313.3,555.5,316.4z"/>
	<path class="st0" d="M612.4,221.6C612.4,221.6,612.4,221.6,612.4,221.6C612.4,221.6,612.4,221.6,612.4,221.6
		c-0.1,3.2-0.1,6.3-0.1,9.5c3.3,0,6.4,0,9.5,0c0,0,0,0,0-0.1c0,0,0,0,0,0c0-3.1,0-6.2,0-9.5C618.6,221.6,615.5,221.6,612.4,221.6z"
		/>
	<path class="st0" d="M565,316.4c0,6.3,0,12.6,0,18.9c3.3,0,6.4,0,9.5,0c0-3.1,0-6.2,0-9.5c3.2,0,6.4,0,9.5,0c0-3.1,0-6.2,0-9.5
		C577.5,316.4,571.3,316.4,565,316.4C565,316.4,565,316.4,565,316.4C565,316.4,565,316.4,565,316.4z"/>
	<path class="st0" d="M479.7,212.1c0-6.3,0-12.6,0-18.9c-3.3,0-6.4,0-9.5,0c0,3.1,0,6.1,0,9.4c-3.2,0-6.2,0-9.5,0c0,3.3,0,6.4,0,9.5
		C467.1,212.1,473.4,212.1,479.7,212.1C479.7,212.1,479.7,212.1,479.7,212.1C479.7,212.1,479.7,212.1,479.7,212.1z"/>
	<path class="st0" d="M527.1,193.1c0-6.3,0-12.6,0-18.9c-6.3,0-12.5,0-18.8,0c0,3.2,0,6.3,0,9.5c3.2,0,6.2,0,9.4,0
		c0,3.2,0,6.3,0,9.4C520.8,193.1,523.9,193.1,527.1,193.1z"/>
	<path class="st0" d="M536.6,212.2c0,3.2,0,6.3,0,9.3c3.1,0,6.2,0,9.3,0c0-3.2,0-6.3,0-9.3C542.8,212.2,539.7,212.2,536.6,212.2z"/>
	<path class="st0" d="M555.5,250c3.1,0,6.2,0,9.4,0c0-6.4,0-12.7,0-18.9c-3.1,0-6.2,0-9.4,0C555.5,237.5,555.5,243.7,555.5,250z"/>
	<path class="st0" d="M536.6,250.1c0,3.1,0,6.2,0,9.3c6.4,0,12.6,0,18.9,0c0-3.2,0-6.3,0-9.3C549.2,250.1,542.9,250.1,536.6,250.1z"
		/>
	<path class="st0" d="M574.5,60.4C574.5,60.4,574.5,60.4,574.5,60.4C574.5,60.4,574.5,60.4,574.5,60.4c-3.2-0.1-6.3-0.1-9.5-0.1
		c0,0,0,0,0,0.1c0,0,0,0,0,0c0,6.3,0,12.6,0,18.9c0,0,0,0,0.1,0c0,0,0,0,0,0c3.1,0,6.2,0,9.5,0C574.5,72.9,574.5,66.7,574.5,60.4z"
		/>
	<path class="st0" d="M574.5,193.2c-6.2,0-12.5,0-18.8,0c0,6.3,0,12.5,0,18.9c6.2,0,12.4,0,18.9,0c0,3.3,0,6.4,0,9.5
		c3.1,0,6.2,0,9.5,0c0-3.2,0-6.3,0-9.5c3.2,0,6.3,0,9.4,0c0-3.2,0-6.3,0-9.4c-6.2,0-12.5,0-19,0
		C574.5,199.4,574.5,196.3,574.5,193.2z"/>
	<path class="st0" d="M584,183.7c0-3.2,0-6.2,0-9.5c-6.5,0-12.7,0-19,0c0,3.1,0,6.1,0,9.4c3.1,0,6.2,0,9.5,0c0,3.3,0,6.4,0,9.5
		c6.2,0,12.5,0,19,0c0,3.2,0,6.4,0,9.5c3.1,0,6.2,0,9.4,0c0-6.4,0-12.7,0-18.9C596.7,183.7,590.4,183.7,584,183.7z"/>
	<path class="st0" d="M565,231c3.1,0,6.3,0,9.4,0c0-3.1,0-6.3,0-9.4c-3.1,0-6.2,0-9.4,0C565,224.8,565,227.9,565,231z"/>
	<path class="st0" d="M138.1,126.8c0-3.1,0-6.2,0-9.4c-3.2,0-6.3,0-9.4,0c0,3.1,0,6.3,0,9.4C131.8,126.8,134.9,126.8,138.1,126.8z"
		/>
	<path class="st0" d="M583.9,126.7c0-3.2,0-6.3,0-9.3c-3.1,0-6.2,0-9.3,0c0,3.2,0,6.3,0,9.3C577.8,126.7,580.8,126.7,583.9,126.7z"
		/>
	<path class="st0" d="M498.6,325.9c-3.1,0-6.2,0-9.5,0c0,3.3,0,6.4,0,9.5c0,0,0,0,0,0c0,0,0,0,0,0c3.1,0,6.2,0,9.5,0
		C498.7,332.1,498.7,329,498.6,325.9C498.7,325.9,498.6,325.9,498.6,325.9C498.6,325.9,498.6,325.9,498.6,325.9z"/>
	<path class="st0" d="M536.5,240.6c3.2,0,6.3,0,9.4,0c0-3.2,0-6.2,0-9.4c-3,0-6.1,0-9.4,0c0-3.3,0-6.4,0-9.5c-3.1,0-6.1,0-9.4,0
		c0-3.2,0-6.3,0-9.5c-6.4,0-12.7,0-19,0c0,3.1,0,6.2,0,9.5c-3.2,0-6.4,0-9.5,0c0,6.3,0,12.6,0,19c3.3,0,6.3,0,9.4,0c0,0,0,0,0,0l0,0
		c0,0,0,0,0,0c0,0,0,0,0,0c0-3.1,0-6.1,0-9.3c6.3,0,12.5,0,18.8,0c0,3,0,6.1,0,9.3c-6.3,0-12.6,0-18.8,0c0,0,0,0,0,0c0,0,0,0,0,0
		c0,6.3,0,12.6,0,19c3.3,0,6.4,0,9.5,0c0,0,0,0,0,0c0,0,0,0,0,0c0-3.1,0-6.2,0-9.5c6.4,0,12.7,0,18.9,0
		C536.5,246.9,536.5,243.9,536.5,240.6z"/>
	<path class="st0" d="M517.6,259.5c0,9.5,0,18.9,0,28.4c0,0,0,0,0,0c0,0,0,0,0,0c3.1,0,6.2,0,9.3,0c0-9.6,0-19,0-28.5
		C523.8,259.5,520.7,259.5,517.6,259.5C517.6,259.5,517.6,259.5,517.6,259.5C517.6,259.5,517.6,259.5,517.6,259.5z"/>
	<path class="st0" d="M517.6,287.9c-6.3,0-12.6,0-18.9,0c0,3.1,0,6.2,0,9.4c3.1,0,6.2,0,9.4,0c0,3.2,0,6.2,0,9.4
		c-6.2,0-12.4,0-18.9,0c0-6.3,0-12.5,0-18.8c-3.1,0-6.2,0-9.4,0c0,9.6,0,18.9,0,28.5c6.3,0,12.5,0,18.8,0c0,3.2,0,6.3,0,9.4
		c0,0,0,0,0,0c0,0,0,0,0,0c3.1,0,6.2,0,9.5,0c0,6.4,0,12.6,0,18.8c6.4,0,12.6,0,18.9,0c0-3.2,0-6.3,0-9.3c-3.1,0-6.1,0-9.3,0
		c0-9.5,0-18.9,0-28.5c3.1,0,6.2,0,9.3,0c0-3.1,0-6.2,0-9.5c-3.2,0-6.3,0-9.4,0C517.6,294.1,517.6,291.1,517.6,287.9
		C517.6,288,517.6,288,517.6,287.9C517.6,288,517.6,288,517.6,287.9z"/>
	<path class="st0" d="M602.8,126.7c0-3.2,0-6.2,0-9.4c-3.2,0-6.3,0-9.3,0c0,3.1,0,6.2,0,9.4C596.7,126.7,599.8,126.7,602.8,126.7z"
		/>
	<path class="st0" d="M232.9,202.7c0,3.1,0,6.3,0,9.4c3.1,0,6.2,0,9.5,0c0-3.3,0-6.4,0-9.4c0,0,0,0,0,0c0,0,0,0,0,0
		C239.2,202.6,236.1,202.7,232.9,202.7z"/>
	<path class="st0" d="M456.5,104.2c0-6.3,0-12.6,0-18.8c-3.3,0-6.3,0-9.5,0c0,3.2,0,6.2,0,9.4c-3.2,0-6.3,0-9.4,0c0,3.3,0,6.3,0,9.4
		C443.9,104.2,450.2,104.2,456.5,104.2z"/>
	<path class="st0" d="M185.5,240.6c-3.2,0-6.3,0-9.4,0c0,3.1,0,6.3,0,9.4c3.1,0,6.3,0,9.4,0C185.5,246.9,185.5,243.9,185.5,240.6z"
		/>
	<path class="st0" d="M437.5,113.8C437.5,113.7,437.5,113.7,437.5,113.8C437.6,113.7,437.6,113.7,437.5,113.8c0-3.2,0-6.3,0-9.5
		c-3.1,0-6.2,0-9.4,0c0,3.3,0,6.4,0,9.4C431.2,113.7,434.4,113.7,437.5,113.8z"/>
	<path class="st0" d="M204.4,250c3.2,0,6.4,0,9.5,0c0-6.2,0-12.5,0-18.8c-6.3,0-12.5,0-18.9,0c0,6.2,0,12.4,0,18.9
		c-3.3,0-6.4,0-9.5,0c0,3.1,0,6.2,0,9.5c3.2,0,6.3,0,9.5,0c0,3.2,0,6.3,0,9.4c3.2,0,6.3,0,9.4,0C204.4,262.7,204.4,256.5,204.4,250z
		"/>
	<path class="st0" d="M232.9,240.5c3.1,0,6.3,0,9.4,0c0-3.1,0-6.3,0-9.4c-3.1,0-6.3,0-9.4,0C232.9,234.3,232.9,237.4,232.9,240.5z"
		/>
	<path class="st0" d="M280.3,231.1c0-3.2,0-6.4,0-9.5c-6.3,0-12.5,0-19,0c0-3.3,0-6.4,0-9.4c-3.2,0-6.2,0-9.4,0c0,3.1,0,6.2,0,9.4
		c-3.2,0-6.3,0-9.4,0c0,3.3,0,6.3,0,9.4c3.1,0,6.2,0,9.5,0c0,3.2,0,6.4,0,9.5c12.6,0,25.2,0,37.9,0c0-3.3,0-6.4,0-9.4
		C286.7,231.1,283.6,231.1,280.3,231.1z"/>
	<path class="st0" d="M185.5,221.5c3.2,0,6.3,0,9.3,0c0-3.2,0-6.2,0-9.3c-3.2,0-6.3,0-9.3,0C185.5,215.3,185.5,218.4,185.5,221.5z"
		/>
	<path class="st0" d="M223.5,250.1c-3.3,0-6.4,0-9.5,0c0,6.2,0,12.5,0,19c-3.2,0-6.4,0-9.5,0c0,3.1,0,6.2,0,9.4c6.4,0,12.7,0,18.9,0
		c0-6.2,0-12.5,0-18.9c3.2,0,6.2,0,9.5,0c0-6.5,0-12.7,0-19c-3.1,0-6.1,0-9.4,0C223.5,243.7,223.5,246.8,223.5,250.1z"/>
	<path class="st0" d="M176,231.1c-6.4,0-12.6,0-18.9,0c0,3.1,0,6.2,0,9.4c6.4,0,12.7,0,18.9,0C176,237.5,176,234.4,176,231.1z"/>
	<path class="st0" d="M214,202.6c6.3,0,12.6,0,18.9,0c0-6.3,0-12.5,0-18.8c-3.2,0-6.3,0-9.5,0c0,3.2,0,6.2,0,9.4c-3.2,0-6.3,0-9.4,0
		C214,196.3,214,199.5,214,202.6z"/>
	<path class="st0" d="M195,174.2c0,3.2,0,6.4,0,9.5c3.1,0,6.1,0,9.4,0c0,3.2,0,6.2,0,9.5c3.3,0,6.4,0,9.5,0c0-6.3,0-12.6,0-19
		c6.5,0,12.7,0,18.9,0c0-3.2,0-6.2,0-9.4c-12.6,0-25.2,0-37.8,0c0-3.3,0-6.3,0-9.4c0,0,0,0,0,0c0,0,0,0,0,0c-3.1,0-6.2,0-9.4,0
		c0,6.5,0,12.7,0,19C188.6,174.2,191.7,174.2,195,174.2z"/>
	<path class="st0" d="M409,123.2c-3.2,0-6.3,0-9.3,0c0,3.1,0,6.2,0,9.4c3.2,0,6.3,0,9.3,0C409,129.4,409,126.4,409,123.2z"/>
	<path class="st0" d="M428.1,113.8c-3.1,0-6.2,0-9.3,0c0,6.4,0,12.6,0,18.9c3.2,0,6.3,0,9.3,0C428.1,126.4,428.1,120.1,428.1,113.8z
		"/>
	<path class="st0" d="M166.5,221.5c3.2,0,6.2,0,9.4,0c0-3,0-6.1,0-9.4c3.3,0,6.4,0,9.5,0c0-3.1,0-6.1,0-9.4c3.2,0,6.3,0,9.5,0
		c0-6.4,0-12.7,0-19c-3.1,0-6.2,0-9.5,0c0-3.2,0-6.4,0-9.5c-6.3,0-12.6,0-19,0c0,3.3,0,6.3,0,9.4c0,0,0,0,0,0l0,0c0,0,0,0,0,0
		c0,0,0,0,0,0c3.1,0,6.1,0,9.3,0c0,6.3,0,12.5,0,18.8c-3,0-6.1,0-9.3,0c0-6.3,0-12.6,0-18.8c0,0,0,0,0,0c0,0,0,0,0,0
		c-6.3,0-12.6,0-19,0c0,3.3,0,6.4,0,9.5c0,0,0,0,0,0c0,0,0,0,0,0c3.1,0,6.2,0,9.5,0c0,6.4,0,12.7,0,18.9c3.1,0,6.2,0,9.4,0
		C166.5,215.3,166.5,218.4,166.5,221.5z"/>
	<path class="st0" d="M157,212.1c-3.1,0-6.2,0-9.3,0c0,6.4,0,12.6,0,18.9c3.2,0,6.3,0,9.3,0C157,224.8,157,218.4,157,212.1z"/>
	<path class="st0" d="M447.1,113.7c-3.3,0-6.4,0-9.5,0c0,0,0,0,0,0c0,0,0,0-0.1,0c0,3.1,0,6.2,0,9.5c3.3,0,6.4,0,9.5,0
		c0,0,0,0,0-0.1c0,0,0,0,0,0C447.1,120.1,447.1,117,447.1,113.7z"/>
	<path class="st0" d="M185.5,278.5c0-3.1,0-6.2,0-9.3c-6.4,0-12.6,0-18.9,0c0,3.2,0,6.3,0,9.3C172.9,278.5,179.2,278.5,185.5,278.5z
		"/>
	<path class="st0" d="M611.1,65.6c0,3.1,0,6.2,0,9.4c3.2,0,6.3,0,9.3,0c0-3.2,0-6.2,0-9.4C617.2,65.6,614.1,65.6,611.1,65.6z"/>
	<path class="st0" d="M213.9,212.1c0-3.2,0-6.4,0-9.5c-3.1,0-6.2,0-9.3,0c0,6.3,0,12.5,0,18.9c6.2,0,12.4,0,18.8,0
		c0,3.2,0,6.3,0,9.5c3.3,0,6.4,0,9.5,0c0-6.3,0-12.6,0-18.9C226.6,212.1,220.4,212.1,213.9,212.1z"/>
	<path class="st0" d="M138.1,259.5c0,3.1,0,6.2,0,9.3c6.4,0,12.6,0,18.8,0c0-3.2,0-6.2,0-9.3C150.6,259.5,144.3,259.5,138.1,259.5z"
		/>
	<path class="st0" d="M304.9,85.3c-3.3,0-6.4,0-9.5,0c0,3.1,0,6.1,0,9.4c-3.2,0-6.2,0-9.5,0c0,3.3,0,6.4,0,9.5c6.3,0,12.6,0,18.9,0
		c0,0,0,0,0,0c0,0,0,0,0,0C304.9,98,304.9,91.7,304.9,85.3z"/>
	<path class="st0" d="M185.5,288C185.5,288,185.5,288,185.5,288C185.5,288,185.5,288,185.5,288c-3.2-0.1-6.3-0.1-9.5-0.1
		c0,3.3,0,6.4,0,9.5c0,0,0,0,0.1,0c0,0,0,0,0,0c3.1,0,6.2,0,9.5,0C185.5,294.1,185.5,291.1,185.5,288z"/>
	<path class="st0" d="M176,259.4c0-3.2,0-6.3,0-9.3c-3.1,0-6.2,0-9.4,0c0,3.2,0,6.3,0,9.3C169.8,259.4,172.9,259.4,176,259.4z"/>
	<path class="st0" d="M280.4,250.2c0,3.2,0,6.2,0,9.3c3.2,0,6.3,0,9.3,0c0-3.1,0-6.2,0-9.3C286.5,250.2,283.5,250.2,280.4,250.2z"/>
	<path class="st0" d="M289.8,269c-3.1,0-6.2,0-9.4,0c0,3.2,0,6.3,0,9.3c3.2,0,6.2,0,9.4,0C289.8,275.2,289.8,272.1,289.8,269z"/>
	<path class="st0" d="M658.5,103.6c0,3.1,0,6.2,0,9.4c3.2,0,6.3,0,9.3,0c0-3.2,0-6.2,0-9.4C664.6,103.6,661.5,103.6,658.5,103.6z"/>
	<path class="st0" d="M147.7,155.3c0,6.4,0,12.6,0,18.8c3.2,0,6.2,0,9.4,0c0-6.4,0-12.6,0-18.8C153.9,155.3,150.8,155.3,147.7,155.3
		z"/>
	<path class="st0" d="M251.8,164.8c-3.3,0-6.3,0-9.4,0c0,3.2,0,6.2,0,9.3c9.5,0,18.9,0,28.3,0c0-6.3,0-12.6,0-18.8
		c-3.1,0-6.2,0-9.5,0c0-3.2,0-6.4,0-9.5c-3.1,0-6.3,0-9.4,0c0,0,0,0,0,0c0,0,0,0,0,0C251.8,152.1,251.8,158.3,251.8,164.8z"/>
	<path class="st0" d="M157,107.8C157,107.8,157.1,107.8,157,107.8C157.1,107.8,157.1,107.9,157,107.8c3.2,0.1,6.3,0.1,9.5,0.1
		c0-3.3,0-6.4,0-9.5c0,0,0,0-0.1,0c0,0,0,0,0,0c-3.1,0-6.3,0-9.4,0c0,0,0,0,0,0.1c0,0,0,0,0,0C157,101.5,157,104.7,157,107.8z"/>
	<path class="st0" d="M85.9,118.4c-3.3,0-6.4,0-9.5,0c0,3.1,0,6.1,0,9.4c-3.2,0-6.2,0-9.5,0c0,3.3,0,6.4,0,9.5c6.3,0,12.6,0,18.9,0
		c0,0,0,0,0,0c0,0,0,0,0,0C85.9,131,85.9,124.7,85.9,118.4z"/>
	<path class="st0" d="M251.9,107.9c-3.2,0-6.4,0-9.5,0c0,3.1,0,6.3,0,9.4c3.1,0,6.2,0,9.5,0c0,3.2,0,6.4,0,9.5c3.1,0,6.2,0,9.5,0
		c0-9.6,0-19,0-28.4c0,0,0,0-0.1,0c0,0,0,0,0,0c-3.1,0-6.3,0-9.4,0C251.9,101.5,251.9,104.5,251.9,107.9z"/>
	<path class="st0" d="M270.8,145.7c0-3.1,0-6.2,0-9.3c-3.2,0-6.3,0-9.4,0c0,3.2,0,6.3,0,9.3C264.5,145.7,267.7,145.7,270.8,145.7z"
		/>
	<path class="st0" d="M195,306.9c6.3,0,12.6,0,18.8,0c0-3.3,0-6.3,0-9.5c-3.2,0-6.2,0-9.4,0c0-3.2,0-6.3,0-9.4c-3.3,0-6.3,0-9.4,0
		C195,294.3,195,300.6,195,306.9z"/>
	<path class="st0" d="M185.5,287.9C185.5,288,185.5,288,185.5,287.9c3.1,0,6.3,0,9.4,0c0-3.1,0-6.2,0-9.4c-3.3,0-6.4,0-9.4,0
		C185.5,281.6,185.5,284.8,185.5,287.9C185.5,287.9,185.5,287.9,185.5,287.9z"/>
	<path class="st0" d="M147.6,202.5c0-3.2,0-6.3,0-9.3c0,0,0,0,0,0c0,0,0,0,0,0c-9.5,0-18.9,0-28.4,0c0,0,0,0,0,0c0,0,0,0,0,0
		c0,3.1,0,6.2,0,9.3C128.7,202.5,138.1,202.5,147.6,202.5z"/>
	<path class="st0" d="M195,155.3c6.3,0,12.6,0,18.9,0c0-3.3,0-6.4,0-9.5c-3.1,0-6.1,0-9.4,0c0-3.2,0-6.2,0-9.5c-3.3,0-6.4,0-9.5,0
		C195,142.6,195,148.9,195,155.3C195,155.2,195,155.2,195,155.3C195,155.2,195,155.3,195,155.3z"/>
	<path class="st0" d="M195,126.8c-3.1,0-6.3,0-9.4,0c0,3.1,0,6.3,0,9.4c3.1,0,6.3,0,9.4,0C195,133.1,195,130,195,126.8z"/>
	<path class="st0" d="M166.6,126.8c6.3,0,12.5,0,18.8,0c0-3.1,0-6.2,0-9.4c-9.4,0-18.8,0-28.4,0c0-3.3,0-6.4,0-9.5c0,0,0,0,0,0
		c0,0,0,0,0-0.1c-3.1,0-6.3,0-9.4,0.1c0,6.2,0,12.5,0,19c-3.2,0-6.4,0-9.5,0c0,3.1,0,6.2,0,9.5c-3.2,0-6.4,0-9.5,0
		c0,3.1,0,6.2,0,9.5c9.6,0,18.9,0,28.4,0c0,3.2,0,6.3,0,9.4c3.1,0,6.2,0,9.5,0c0,3.3,0,6.4,0,9.4c3.2,0,6.3,0,9.4,0
		c0-6.4,0-12.6,0-18.8c-3.1,0-6.1,0-9.3,0C166.6,139.4,166.6,133.2,166.6,126.8z"/>
	<path class="st0" d="M176,145.7c3.1,0,6.2,0,9.4,0c0-3.3,0-6.4,0-9.4c-3.1,0-6.2,0-9.4,0C176,139.5,176,142.6,176,145.7z"/>
	<path d="M147.5,193.1C147.5,193.2,147.5,193.2,147.5,193.1L147.5,193.1C147.6,193.1,147.6,193.1,147.5,193.1z"/>
	<path d="M166.6,183.7C166.5,183.7,166.5,183.7,166.6,183.7C166.5,183.7,166.5,183.7,166.6,183.7L166.6,183.7z"/>
	<path d="M147.5,193.1c0-3.1,0-6.2,0-9.5c6.4,0,12.7,0,19,0c0-3.1,0-6.2,0-9.4c6.4,0,12.7,0,19,0c0,0,0,0,0,0c0,0,0,0,0,0
		c0-6.2,0-12.5,0-19c3.2,0,6.3,0,9.4,0c0-6.3,0-12.6,0-18.9c0,0,0,0,0,0c0,0,0,0,0,0c-3.1,0-6.3,0-9.4,0c0,0,0,0,0,0c0,0,0,0,0,0
		c0,3.1,0,6.2,0,9.4c-3.2,0-6.3,0-9.4,0c0,0,0,0,0,0c0,0,0,0,0,0c0,6.2,0,12.5,0,18.8c-3.1,0-6.2,0-9.4,0c0-3,0-6.1,0-9.4
		c-3.3,0-6.4,0-9.5,0c0-3.1,0-6.1,0-9.4c-9.5,0-18.9,0-28.4,0c0-3.3,0-6.4,0-9.5c0,0,0,0,0,0c0,0,0,0,0,0c-3.1,0-6.1,0-9.3,0
		c0-3.1,0-6.2,0-9.4c3.1,0,6.2,0,9.3,0c0,0,0,0,0,0c0,0,0,0,0,0c0-3.1,0-6.3,0-9.4c0,0,0,0,0,0c0,0,0,0,0,0c-3.1,0-6.2,0-9.4,0
		c0-0.8,0-1.6,0-2.4c-1.1,4.3-1.9,8.1-2.5,11.1l-0.5,2.2c-0.2,1.1-0.5,2.1-0.8,3.1c0.3,1.1,2.4,9.9,3.4,24c0.1,0,0.2,0,0.3,0
		c0,2.2,0,4.5,0,6.7c0,0.9,0.1,1.8,0.1,2.7c3.1,0,6.1,0,9.4,0c0-3.2,0-6.3,0-9.4c3.2,0,6.2,0,9.4,0c0,6.2,0,12.4,0,18.8
		c-6.3,0-12.5,0-18.8,0c0,0,0,0,0,0c0,0,0,0,0,0c0,0.3,0,0.5,0,0.8c0,6.1,0,12.1,0,18.2C128.6,193.1,138.1,193.1,147.5,193.1z
		 M147.7,174.1c0-6.2,0-12.4,0-18.8c3.1,0,6.2,0,9.4,0c0,6.2,0,12.5,0,18.8C153.9,174.1,150.9,174.1,147.7,174.1z"/>
	<path d="M195,155.2C195,155.2,195,155.2,195,155.2C195,155.2,195,155.3,195,155.2L195,155.2z"/>
	<path d="M119.2,193.1C119.1,193.1,119.1,193.1,119.2,193.1L119.2,193.1C119.2,193.2,119.2,193.2,119.2,193.1z"/>
	<path d="M270.9,82.1c0,2.2,0,4.5,0,6.7c1.5,0,2.9,0,4.3,0C273.9,86.4,272.4,84.2,270.9,82.1z"/>
	<path d="M166.6,88.9c0.5,0,1.1,0,1.6,0c-0.6-0.6-1.1-1.2-1.6-1.9C166.5,87.6,166.5,88.2,166.6,88.9
		C166.5,88.9,166.5,88.9,166.6,88.9C166.6,88.9,166.6,88.9,166.6,88.9z"/>
	<path d="M251.9,98.4c3.1,0,6.3,0,9.4,0c0-6.3,0-12.6,0-18.8c2.6,0,5.1,0,7.6,0c-0.2-0.2-0.4-0.5-0.6-0.7c-3.1-3.5-6.5-6.5-10.1-8.8
		c-2.1,0-4.2,0-6.3,0c0,3.2,0,6.2,0,9.3c-2.8,0-5.5,0-8.2,0c-0.6,1.2-1.3,2.4-2.1,3.5c-1.4,2.2-3,4.2-4.7,6.1c4.9,0,9.9,0,15,0
		C251.8,92.1,251.8,95.2,251.9,98.4C251.9,98.3,251.9,98.3,251.9,98.4C251.9,98.4,251.9,98.4,251.9,98.4z"/>
	<path d="M261.4,98.3C261.4,98.3,261.3,98.3,261.4,98.3C261.3,98.4,261.3,98.4,261.4,98.3L261.4,98.3z"/>
	<path d="M157.1,79.4c1.4,0,2.9,0,4.3,0c-1.6-2.9-2.8-5.8-3.8-8.6c-0.6-1.8-1.2-3.5-1.6-5.2l-1.8,0.5c-2.7,1-5.1,2.3-7.5,3.7
		c3.5,0,6.9,0,10.4,0C157,73.2,157,76.3,157.1,79.4C157,79.4,157.1,79.4,157.1,79.4C157.1,79.4,157.1,79.4,157.1,79.4z"/>
	<path d="M242.4,202.6C242.4,202.6,242.4,202.6,242.4,202.6C242.4,202.6,242.4,202.7,242.4,202.6L242.4,202.6z"/>
	<path d="M251.8,145.7C251.8,145.8,251.8,145.8,251.8,145.7C251.9,145.8,251.9,145.8,251.8,145.7L251.8,145.7z"/>
	<path d="M195,155.3C195,155.3,195,155.3,195,155.3C195,155.3,195,155.2,195,155.3L195,155.3z"/>
	<path d="M223.4,145.8L223.4,145.8C223.4,145.8,223.4,145.8,223.4,145.8C223.4,145.8,223.4,145.8,223.4,145.8L223.4,145.8z"/>
	<path d="M213.9,145.8c0,3.1,0,6.2,0,9.5c-6.4,0-12.6,0-18.9,0c0,3.1,0,6.2,0,9.4c12.6,0,25.2,0,37.8,0c0,3.2,0,6.2,0,9.4
		c-6.2,0-12.4,0-18.9,0c0,6.5,0,12.7,0,19c0,0,0,0,0,0c0,0,0,0,0,0c3.1,0,6.1,0,9.4,0c0-3.2,0-6.2,0-9.4c3.2,0,6.3,0,9.5,0
		c0,6.3,0,12.6,0,18.8c0,0,0,0,0,0c0,0,0,0,0,0c3.1,0,6.3,0,9.4,0c0-6.2,0-12.5,0-18.9c14.6,0,29,0,43.6,0
		c-0.7-10.9-0.4-20.6,0.2-28.5c-5.1,0-10.2,0-15.3,0c0,0,0,0,0,0c0,0,0,0,0,0c0,6.2,0,12.5,0,18.8c-9.5,0-18.8,0-28.3,0
		c0-3,0-6.1,0-9.3c3,0,6.1,0,9.4,0c0-6.5,0-12.7,0-19c-3.1,0-6.1,0-9.4,0c0,3.1,0,6.2,0,9.4c-6.4,0-12.6,0-19.1,0c0-3.1,0-6.2,0-9.3
		C220.2,145.8,217.1,145.8,213.9,145.8C214,145.8,214,145.8,213.9,145.8C213.9,145.8,213.9,145.8,213.9,145.8z"/>
	<path d="M242.4,202.7C242.4,202.7,242.4,202.6,242.4,202.7L242.4,202.7C242.4,202.7,242.4,202.7,242.4,202.7z"/>
	<path d="M242.4,212.1c-3.2,0-6.4,0-9.5,0c0,0,0,0,0,0c0,0,0,0,0,0c0,6.3,0,12.6,0,18.9c0,0,0,0,0,0c0,0,0,0,0,0c3.1,0,6.3,0,9.4,0
		c0,0,0,0,0,0c0,0,0,0,0,0c0-3.1,0-6.2,0-9.4c3.1,0,6.2,0,9.4,0c0-3.2,0-6.3,0-9.4c3.2,0,6.2,0,9.4,0c0,3.1,0,6.1,0,9.4
		c6.5,0,12.7,0,19,0c0,0,0,0,0,0c0,0,0,0,0,0c0-3.1,0-6.1,0-9.4c3.2,0,6.3,0,9.4,0c-0.7-3.3-1.3-6.5-1.7-9.7c-2.6,0-5.1,0-7.7,0
		c0-3.1,0-6.1,0-9.2c-3.2,0-6.2,0-9.5,0c0,3,0,6.1,0,9.4c-9.6,0-19,0-28.5,0C242.4,205.7,242.4,208.8,242.4,212.1z"/>
	<path d="M261.3,145.8C261.3,145.8,261.3,145.8,261.3,145.8C261.3,145.7,261.4,145.7,261.3,145.8c0-3.1,0-6.2,0-9.4
		c3.1,0,6.2,0,9.4,0c0,3.1,0,6.2,0,9.3c0,0,0,0,0,0c0,0,0,0,0,0c3.1,0,6.1,0,9.4,0c0-3.2,0-6.2,0-9.5c2.9,0,5.6,0,8.5,0
		c0.2-1.2,0.5-2.3,0.7-3.1c-0.1-0.2-0.1-0.5-0.2-0.7c0-0.1-0.1-0.2-0.1-0.3c-0.4-1.4-0.8-2.8-1.1-4.3c-0.1-0.4-0.2-0.8-0.3-1.2
		c-5.6,0-11.2,0-17,0c0-9.6,0-19,0-28.4c-3.2,0-6.3,0-9.4,0c0,9.4,0,18.8,0,28.4c-3.2,0-6.4,0-9.5,0c0,0,0,0,0,0c0,0,0,0,0,0
		c0,6.3,0,12.6,0,18.9C255,145.8,258.2,145.8,261.3,145.8z"/>
	<path d="M251.9,145.7C251.9,145.7,251.9,145.7,251.9,145.7L251.9,145.7C251.9,145.8,251.9,145.8,251.9,145.7z"/>
	<path d="M261.4,98.4C261.4,98.4,261.4,98.4,261.4,98.4L261.4,98.4C261.3,98.4,261.4,98.4,261.4,98.4z"/>
	<path d="M280.4,99.7c0,2.7,0,5.3,0,8c0.9,0,1.8,0,2.8,0C282.4,105.1,281.4,102.5,280.4,99.7z"/>
	<path d="M128.6,117.3c3.1,0,6.2,0,9.4,0c0,3.3,0,6.4,0,9.4c0,0,0,0,0,0c0,0,0,0,0,0c3.1,0,6.2,0,9.5,0c0-6.5,0-12.7,0-19
		c0,0,0,0,0,0c0,0,0,0,0,0c-3.1,0-6.2,0-9.5,0c0-3.2,0-6.3,0-9.3c-3.2,0-6.3,0-9.4,0C128.6,104.9,128.6,111.1,128.6,117.3
		C128.6,117.3,128.6,117.3,128.6,117.3C128.6,117.3,128.6,117.3,128.6,117.3z"/>
	<path d="M157.1,88.9c0-3.1,0-6.3,0-9.4c0,0,0,0,0,0c0,0,0,0,0,0c-6.3,0-12.5,0-18.8,0c0,3.3,0,6.4,0,9.5
		C144.6,88.9,150.8,88.9,157.1,88.9C157,88.9,157,88.9,157.1,88.9C157,88.9,157.1,88.9,157.1,88.9z"/>
	<path d="M157.1,107.8C157.1,107.8,157,107.8,157.1,107.8C157,107.8,157,107.9,157.1,107.8L157.1,107.8z"/>
	<path d="M157,98.3C157,98.4,157,98.4,157,98.3C157,98.4,157.1,98.4,157,98.3C157.1,98.4,157,98.3,157,98.3z"/>
	<path d="M147.6,107.9c3.1,0,6.3,0,9.4-0.1c0-3.1,0-6.3,0-9.4c-3.1,0-6.2,0-9.5,0C147.5,101.7,147.5,104.7,147.6,107.9
		C147.5,107.8,147.5,107.9,147.6,107.9C147.6,107.9,147.6,107.9,147.6,107.9z"/>
	<path d="M166.6,98.3C166.5,98.3,166.5,98.3,166.6,98.3C166.5,98.4,166.5,98.4,166.6,98.3L166.6,98.3z"/>
	<path d="M157.1,98.3C157.1,98.3,157,98.3,157.1,98.3C157,98.3,157.1,98.4,157.1,98.3C157.1,98.4,157.1,98.4,157.1,98.3z"/>
	<path d="M166.5,98.3c0-3.1,0-6.3,0.1-9.4c0,0,0,0,0,0c0,0,0,0,0,0c-3.1,0-6.3,0-9.4,0c0,0,0,0,0,0c0,0,0,0,0,0c0,3.1,0,6.3,0,9.4
		C160.2,98.3,163.4,98.3,166.5,98.3z"/>
	<path d="M157.1,107.9C157.1,107.9,157.1,107.8,157.1,107.9L157.1,107.9C157,107.9,157.1,107.9,157.1,107.9z"/>
	<path d="M166.6,107.9c-3.2,0-6.4,0-9.5,0c0,3.1,0,6.2,0,9.5c9.6,0,18.9,0,28.4,0c0,3.2,0,6.3,0,9.4c0,0,0,0,0,0c0,0,0,0,0,0
		c3.1,0,6.3,0,9.4,0c0,0,0,0,0,0c0,0,0,0,0,0c0-8,0-16,0-24.1c-3.4-0.4-6.6-1.2-9.6-2.2c0,2.4,0,4.9,0,7.3c-3.2,0-6.2,0-9.4,0
		c0-3.2,0-6.2,0-9.4c-3.3,0-6.3,0-9.4,0C166.6,101.5,166.6,104.5,166.6,107.9z"/>
	<path d="M166.6,98.4C166.6,98.4,166.6,98.4,166.6,98.4L166.6,98.4C166.5,98.4,166.5,98.4,166.6,98.4z"/>
	<path d="M185.5,126.8C185.5,126.8,185.5,126.8,185.5,126.8C185.5,126.8,185.5,126.8,185.5,126.8c-6.3,0-12.6,0-18.9,0
		c0,6.4,0,12.7,0,19c3.2,0,6.3,0,9.3,0c0,0,0,0,0,0c0,0,0,0,0,0c0-3.1,0-6.2,0-9.4c3.3,0,6.4,0,9.4,0c0,0,0,0,0,0c0,0,0,0,0,0
		C185.5,133.1,185.5,130,185.5,126.8z"/>
	<path d="M138.1,126.8C138.1,126.8,138.1,126.8,138.1,126.8C138.1,126.8,138.1,126.8,138.1,126.8c-3.2,0-6.3,0-9.5,0c0,0,0,0,0,0
		c0,0,0,0,0,0c0,3.1,0,6.3,0,9.4c0,0,0,0,0,0c0,0,0,0,0,0c3.1,0,6.2,0,9.5,0C138.1,133,138.1,129.9,138.1,126.8z"/>
	<path d="M195,126.8c0,3.1,0,6.3,0,9.4c0,0,0,0,0,0c0,0,0,0,0,0c3.1,0,6.2,0,9.5,0c0,3.2,0,6.3,0,9.5c3.2,0,6.3,0,9.4,0c0,0,0,0,0,0
		c0,0,0,0,0,0c0-6.3,0-12.6,0-19C207.5,126.8,201.2,126.8,195,126.8C195,126.8,195,126.8,195,126.8C195,126.8,195,126.8,195,126.8z"
		/>
	<path d="M242.4,117.3c0-3.1,0-6.3,0-9.4c0,0,0,0,0,0c0,0,0,0,0,0c-3.1,0-6.2,0-9.4,0c0-5.1,0-10.1,0-15.1c-2.9,2.5-6,4.5-9.4,6.1
		c0,9.4,0,18.7,0,27.9c3.2,0,6.2,0,9.4,0c0-3.2,0-6.2,0-9.4C236.2,117.3,239.3,117.3,242.4,117.3
		C242.4,117.3,242.4,117.3,242.4,117.3C242.4,117.3,242.4,117.3,242.4,117.3z"/>
	<path d="M242.4,107.9c3.1,0,6.2,0,9.5,0c0-3.3,0-6.4,0-9.5c0,0,0,0,0,0c0,0,0,0,0,0c-3.1,0-6.2,0-9.5,0
		C242.4,101.7,242.4,104.7,242.4,107.9C242.4,107.8,242.4,107.9,242.4,107.9C242.4,107.9,242.4,107.9,242.4,107.9z"/>
	<path d="M251.9,126.8c0-3.1,0-6.2,0-9.5c-3.3,0-6.4,0-9.5,0c0,0,0,0,0,0c0,0,0,0,0,0c0,3.1,0,6.2,0,9.5
		C245.7,126.8,248.8,126.8,251.9,126.8C251.9,126.8,251.9,126.8,251.9,126.8C251.9,126.8,251.9,126.8,251.9,126.8z"/>
	<path d="M204.4,103.1c0,4.7,0,9.4,0,14.1c3.3,0,6.4,0,9.5,0c0-5.1,0-10.2,0-15.2C210.9,102.6,207.8,103,204.4,103.1z"/>
	<path d="M223.4,145.7C223.4,145.7,223.4,145.7,223.4,145.7C223.4,145.7,223.4,145.8,223.4,145.7L223.4,145.7
		C223.4,145.8,223.4,145.8,223.4,145.7z"/>
	<path d="M232.8,145.7c0-3.2,0-6.3,0-9.3c-3.2,0-6.2,0-9.3,0c0,3.2,0,6.3,0,9.3C226.6,145.7,229.7,145.7,232.8,145.7z"/>
	<path d="M289.9,344.8c0-9.4,0-18.8,0-28.2c3.3,0,6.7,0,10,0l0-1.3h-0.4l0-17.9c-0.1,0-0.2,0-0.2,0c0,3.2,0,6.3,0,9.5
		c-6.4,0-12.6,0-18.9,0c0-6.2,0-12.4,0-18.8c6.2,0,12.4,0,18.8,0c0-3.2,0-6.2,0-9.4c0.1,0,0.2,0,0.4,0l0-9.6c-3.3,0-6.5,0-9.8,0
		c0-3.1,0-6.3,0-9.4c3.1,0,6.1,0,9.4,0c0-5,0-9.9,0-14.8c-1.8-4.6-3.3-9.2-4.7-13.7c-1.6,0-3.2,0-4.7,0c0,0,0,0,0,0c0,0,0,0,0,0
		c0,3.1,0,6.2,0,9.4c-12.7,0-25.3,0-37.9,0c0,0,0,0,0,0c0,0,0,0,0,0c0,3.1,0,6.2,0,9.4c6.4,0,12.6,0,18.9,0c0,3.2,0,6.2,0,9.4
		c-3,0-6.1,0-9.3,0c0,3.2,0,6.3,0,9.6c3.1,0,6.1,0,9.3,0c0,6.4,0,12.5,0,18.9c-6.2,0-12.4,0-18.9,0c0,3.3,0,6.4,0,9.5
		c3.1,0,6.2,0,9.5,0c0,3.3,0,6.4,0,9.5c3.2,0,6.2,0,9.4,0c0,3.2,0,6.2,0,9.5c3.2,0,6.3,0,9.5,0c0,15.9,0,31.6,0,47.4
		c2.5,0,4.9,0,7.3,0c0.7-0.1,1.4-0.2,2.1-0.4c0-3,0-5.9,0-9c3.1,0,6.2,0,9.4,0c0,2.4,0,4.8,0,7.3c0.5-0.1,0.8-0.2,0.8-0.2v-2.2v-5.3
		v-9.3C296.6,344.8,293.3,344.8,289.9,344.8z M280.4,269c3.1,0,6.2,0,9.4,0c0,3.1,0,6.1,0,9.3c-3.1,0-6.2,0-9.4,0
		C280.4,275.3,280.4,272.3,280.4,269z M289.8,250.2c0,3.1,0,6.2,0,9.3c-3.1,0-6.1,0-9.3,0c0-3.1,0-6.2,0-9.3
		C283.5,250.2,286.5,250.2,289.8,250.2z"/>
	<path d="M251.9,297.5C251.9,297.4,251.9,297.4,251.9,297.5C251.9,297.4,251.9,297.4,251.9,297.5L251.9,297.5z"/>
	<path d="M223.4,278.5c-6.2,0-12.5,0-18.9,0c0-3.2,0-6.3,0-9.4c0,0,0,0,0,0c0,0,0,0,0,0c-3.1,0-6.1,0-9.4,0c0-3.1,0-6.2,0-9.4
		c-3.2,0-6.3,0-9.5,0c0-3.3,0-6.4,0-9.5c0,0,0,0,0,0c0,0,0,0,0,0c-3.1,0-6.3,0-9.4,0c0-3.1,0-6.3,0-9.4c0,0,0,0,0,0c0,0,0,0,0,0
		c-6.2,0-12.5,0-18.9,0c0-3.2,0-6.3,0-9.4c0,0,0,0,0,0c0,0,0,0,0,0c-3.1,0-6.2,0-9.3,0c0-6.3,0-12.5,0-18.9c3.1,0,6.2,0,9.3,0
		c0,0,0,0,0,0c0,0,0,0,0,0c0-6.2,0-12.5,0-18.9c-3.2,0-6.4,0-9.5,0c0,3.1,0,6.2,0,9.3c-9.5,0-18.9,0-28.5,0c0-3.1,0-6.2,0-9.3
		c-0.5,0-0.9,0-1.4,0c-1,8.9-2.7,18.4-5.3,28.4c2.2,0,4.4,0,6.6,0c0-3.2,0-6.3,0-9.4c6.4,0,12.6,0,19,0c0,15.8,0,31.5,0,47.3
		c-3.1,0-6.1,0-9.4,0c0,3.2,0,6.2,0,9.4c-6.4,0-12.6,0-19,0c0-6.3,0-12.6,0-18.8c0,0,0,0,0,0c0,0,0,0,0,0c-1.5,0-3,0-4.5,0l0,28.4
		c4.6,0,9.3,0,14,0c0,3.3,0,6.4,0,9.6c9.6,0,18.9,0,28.4,0c0,3.2,0,6.3,0,9.4c3.1,0,6.1,0,9.4,0c0-6.3,0-12.5,0-18.9
		c3.3,0,6.4,0,9.5,0c0,0,0,0,0,0c0,0,0,0,0,0c0-3.1,0-6.1,0-9.3c6.3,0,12.5,0,18.9,0c0,3.1,0,6.2,0,9.3c0,0,0,0,0,0c0,0,0,0,0,0
		c3.1,0,6.2,0,9.4,0c0,3.2,0,6.3,0,9.4c0,0,0,0,0,0c0,0,0,0,0,0c3.1,0,6.2,0,9.4,0c0,3.1,0,6.2,0,9.4c3.2,0,6.2,0,9.4,0
		c0,3.2,0,6.3,0,9.5c-6.3,0-12.5,0-18.8,0c0,0,0,0,0,0c0,0,0,0,0,0c0,3.1,0,6.2,0,9.3c9.5,0,18.9,0,28.5,0
		C223.4,303.7,223.4,291.1,223.4,278.5C223.4,278.5,223.4,278.5,223.4,278.5C223.4,278.5,223.4,278.5,223.4,278.5z M156.9,268.9
		c-6.2,0-12.4,0-18.8,0c0-3.1,0-6.2,0-9.3c6.2,0,12.5,0,18.8,0C156.9,262.7,156.9,265.7,156.9,268.9z M166.6,250.1
		c3.1,0,6.2,0,9.4,0c0,3.1,0,6.1,0,9.3c-3.1,0-6.2,0-9.4,0C166.6,256.4,166.6,253.3,166.6,250.1z"/>
	<path d="M119.1,193.1C119.1,193.2,119.1,193.2,119.1,193.1C119.1,193.2,119.1,193.2,119.1,193.1L119.1,193.1z"/>
	<path d="M147.5,193.2C147.6,193.2,147.6,193.2,147.5,193.2C147.6,193.2,147.6,193.2,147.5,193.2L147.5,193.2z"/>
	<path d="M147.6,297.5C147.6,297.4,147.6,297.4,147.6,297.5C147.6,297.4,147.6,297.4,147.6,297.5L147.6,297.5z"/>
	<path d="M242.4,363.8C242.4,363.8,242.4,363.8,242.4,363.8C242.4,363.8,242.4,363.8,242.4,363.8L242.4,363.8z"/>
	<path d="M242.4,306.9c-3.2,0-6.2,0-9.4,0c0,6.3,0,12.6,0,19c-6.4,0-12.6,0-19,0c0,3.2,0,6.3,0,9.5c-3.2,0-6.2,0-9.4,0
		c0,3.2,0,6.2,0,9.5c-3.2,0-6.3,0-9.5,0c0,3.2,0,6.2,0,9.4c-3.2,0-6.2,0-9.6,0c0,3.3,0,6.4,0,9.5c-3.1,0-6.2,0-9.4,0
		c0,2.9,0,5.8,0,8.6c3.2,0.2,6.3,0.5,9.5,0.6c0-3.1,0-6.1,0-9.2c3.1,0,6.1,0,9.3,0c0,3.1,0,6.2,0,9.3c-1.8,0-3.7,0-5.6,0
		c1.3,0,2.5,0.1,3.8,0.1c0,0,0,0,0,0c0.6,0,1.2,0,1.8,0c0.2,0,0.3,0,0.5,0c0.5,0,0.9,0,1.4,0c0.3,0,0.6,0,0.9,0c0.3,0,0.7,0,1,0
		c0.6,0,1.2,0,1.9,0c1.3,0,2.7,0,4.1-0.1c0-6.3,0-12.5,0-18.9c3.1,0,6.2,0,9.3,0c0,0,0,0,0,0c0,0,0,0,0,0c0-3.1,0-6.1,0-9.4
		c3.1,0,6.2,0,9.4,0c0-3.2,0-6.3,0-9.4c3.2,0,6.2,0,9.4,0c0,3,0,6.1,0,9.3c3.2,0,6.3,0,9.6,0c0,6.4,0,12.7,0,19c6.3,0,12.6,0,18.8,0
		c0-3.3,0-6.3,0-9.5c-3.2,0-6.2,0-9.2,0c0-6.3,0-12.6,0-18.9c3.2,0,6.3,0,9.3,0c0-6.3,0-12.5,0-19c-3.3,0-6.3,0-9.4,0
		c0-6.3,0-12.6-0.1-18.9c-3.1,0-6.2,0-9.4,0C242.4,300.6,242.4,303.7,242.4,306.9z M242.5,316.4c3.1,0,6.2,0,9.4,0
		c0,3.1,0,6.1,0,9.3c-3.1,0-6.2,0-9.4,0C242.5,322.7,242.5,319.7,242.5,316.4z"/>
	<path d="M147.5,297.5C147.6,297.5,147.6,297.5,147.5,297.5L147.5,297.5C147.5,297.4,147.5,297.4,147.5,297.5z"/>
	<path d="M251.8,297.5C251.9,297.5,251.9,297.5,251.8,297.5L251.8,297.5C251.8,297.4,251.8,297.4,251.8,297.5z"/>
	<path d="M261.4,335.3C261.3,335.3,261.3,335.3,261.4,335.3C261.3,335.3,261.3,335.4,261.4,335.3L261.4,335.3z"/>
	<path d="M128.6,306.9L128.6,306.9C128.6,306.9,128.6,306.9,128.6,306.9C128.6,306.9,128.6,306.9,128.6,306.9L128.6,306.9z"/>
	<path d="M119.1,354.3C119.1,354.3,119.1,354.3,119.1,354.3C119.1,354.3,119.1,354.3,119.1,354.3
		C119.2,354.3,119.1,354.3,119.1,354.3z"/>
	<path d="M138,297.5c0,3.2,0,6.3,0,9.5c-3.2,0-6.3,0-9.4,0c0,9.5,0,18.9,0,28.4c3.1,0,6.1,0,9.3,0c0,9.5,0,18.9,0,28.3
		c-6.2,0-12.4,0-18.9,0c0-3.1,0-6.2,0-9.3c-4.9,0-9.8,0-14.7,0l-0.1,2.3l0,2.4v2.5c0,0,0,0,0,0c0,0-0.1,0,0,0h0c0,0,0.1,0,0.2,0
		c0,0,0,0,0,0v0c0,0,30,6.6,61.9,9.8c0-2.5,0-5,0-7.7c-6.4,0-12.6,0-19.1,0c0-22.2,0-44.3,0-66.4C144.4,297.5,141.3,297.5,138,297.5
		z"/>
	<path d="M128.6,335.3C128.6,335.3,128.6,335.3,128.6,335.3L128.6,335.3C128.6,335.4,128.6,335.4,128.6,335.3z"/>
	<path d="M52.8,126.8L52.8,126.8C52.7,126.8,52.7,126.8,52.8,126.8C52.8,126.8,52.8,126.8,52.8,126.8z"/>
	<path d="M49.5,126.8l2.1,9.5c0.4,0,0.8,0,1.1,0c0-3.3,0-6.4,0-9.5C51.7,126.8,50.6,126.8,49.5,126.8z"/>
	<path d="M105.2,287.9l0,9.5c1.5,0,2.9,0,4.4,0c0-3.2,0-6.2,0-9.5C108.1,287.9,106.6,287.9,105.2,287.9z"/>
	<path d="M109.7,325.8C109.7,325.8,109.7,325.8,109.7,325.8C109.7,325.8,109.7,325.8,109.7,325.8
		C109.7,325.8,109.7,325.8,109.7,325.8z"/>
	<path d="M105.2,316.5l0,6.9l-0.1,2.4c1.5,0,3,0,4.5,0c0-3.1,0-6.2,0-9.3C108.2,316.5,106.7,316.5,105.2,316.5z"/>
	<path d="M119.2,354.3C119.1,354.3,119.1,354.3,119.2,354.3C119.1,354.3,119.2,354.3,119.2,354.3
		C119.2,354.3,119.2,354.3,119.2,354.3z"/>
	<path d="M128.6,335.3C128.6,335.4,128.6,335.4,128.6,335.3C128.6,335.4,128.6,335.4,128.6,335.3L128.6,335.3z"/>
	<path d="M119.1,335.4C119.1,335.4,119.1,335.4,119.1,335.4C119.1,335.4,119.1,335.4,119.1,335.4
		C119.2,335.4,119.2,335.4,119.1,335.4C119.2,335.3,119.1,335.4,119.1,335.4z"/>
	<path d="M128.6,335.4c-3.1,0-6.3,0-9.4,0c0,6.3,0,12.6,0,18.9c3.1,0,6.2,0,9.4,0C128.6,347.9,128.6,341.7,128.6,335.4z"/>
	<path d="M242.4,363.8C242.4,363.8,242.4,363.8,242.4,363.8L242.4,363.8C242.4,363.8,242.4,363.8,242.4,363.8z"/>
	<path d="M232.9,363.8C232.9,363.8,232.9,363.8,232.9,363.8c0,2.5,0,5,0,7.5c3.2-0.3,6.3-0.6,9.5-1c0-2.2,0-4.3,0-6.5
		C239.2,363.8,236.1,363.8,232.9,363.8C232.9,363.8,232.9,363.8,232.9,363.8z"/>
	<path d="M128.6,306.9C128.6,306.9,128.6,306.9,128.6,306.9C128.6,306.9,128.6,306.9,128.6,306.9L128.6,306.9
		C128.6,306.9,128.6,306.9,128.6,306.9z"/>
	<path d="M119.3,297.6c0,3.2,0,6.2,0,9.3c3.2,0,6.3,0,9.3,0c0-3.1,0-6.2,0-9.3C125.3,297.6,122.3,297.6,119.3,297.6z"/>
	<path d="M109.7,325.8c0,3.2,0,6.3,0,9.5c3.3,0,6.3,0,9.4,0c0-3.1,0-6.2,0-9.5C115.9,325.8,112.8,325.8,109.7,325.8z"/>
	<path d="M109.7,325.8C109.7,325.8,109.7,325.8,109.7,325.8C109.7,325.8,109.7,325.8,109.7,325.8
		C109.7,325.8,109.7,325.8,109.7,325.8z"/>
	<path d="M119.1,335.3C119.1,335.4,119.1,335.4,119.1,335.3C119.1,335.4,119.1,335.4,119.1,335.3
		C119.1,335.4,119.2,335.3,119.1,335.3C119.1,335.3,119.1,335.3,119.1,335.3z"/>
	<path d="M270.7,344.7c0-3.2,0-6.2,0-9.3c-3.2,0-6.3,0-9.3,0c0,3.1,0,6.2,0,9.3C264.6,344.7,267.7,344.7,270.7,344.7z"/>
	<path d="M261.4,335.3C261.4,335.3,261.3,335.4,261.4,335.3C261.3,335.4,261.3,335.4,261.4,335.3
		C261.4,335.4,261.4,335.3,261.4,335.3z"/>
	<path d="M185.5,288C185.5,288,185.5,288,185.5,288C185.5,288,185.5,288,185.5,288L185.5,288z"/>
	<path d="M185.5,325.9C185.5,325.9,185.5,325.9,185.5,325.9C185.5,325.9,185.5,325.9,185.5,325.9L185.5,325.9z"/>
	<path d="M176,297.5C176,297.5,176,297.5,176,297.5C176,297.4,176,297.4,176,297.5L176,297.5z"/>
	<path d="M166.6,344.8C166.5,344.8,166.5,344.8,166.6,344.8C166.5,344.8,166.5,344.8,166.6,344.8L166.6,344.8z"/>
	<path d="M195,306.9c0-6.3,0-12.6,0-18.9c0,0,0,0,0,0c0,0,0,0,0,0c-3.1,0-6.3,0-9.4,0.1c0,3.1,0,6.2,0,9.5c-3.2,0-6.4,0-9.5,0
		c0,6.3,0,12.5,0,18.8c-3.3,0-6.4,0-9.6,0c0-3.1,0-6.2,0-9.3c-3.2,0-6.2,0-9.3,0c0,12.6,0,25.2,0,37.8c3.2,0,6.3,0,9.3,0
		c0-6.3,0-12.6,0-19c6.5,0,12.7,0,19,0c0-6.3,0-12.6,0-18.9C188.8,306.9,191.9,306.9,195,306.9C195,306.9,195,306.9,195,306.9
		C195,306.9,195,306.9,195,306.9z"/>
	<path d="M242.4,240.5c-3.1,0-6.3,0-9.4,0c0,0,0,0,0,0c0,0,0,0,0,0c0,6.3,0,12.5,0,19c-3.2,0-6.3,0-9.5,0c0,6.4,0,12.6,0,18.9
		c0,0,0,0,0,0c0,0,0,0,0,0c3.1,0,6.2,0,9.5,0c0-3.3,0-6.4,0-9.4c3.2,0,6.2,0,9.4,0c0,3.2,0,6.2,0,9.3c3.3,0,6.3,0,9.3,0
		c0-6.3,0-12.5,0-18.9c-3.2,0-6.2,0-9.4,0C242.4,253.1,242.4,246.8,242.4,240.5C242.4,240.6,242.4,240.6,242.4,240.5
		C242.4,240.6,242.4,240.6,242.4,240.5z"/>
	<path d="M176,287.9c3.2,0,6.4,0,9.5,0c0-3.1,0-6.3,0-9.4c0,0,0,0,0,0c0,0,0,0,0,0c-6.3,0-12.6,0-18.9,0c0,0,0,0,0,0c0,0,0,0,0,0
		c0,6.3,0,12.6,0,18.9c3.3,0,6.4,0,9.5,0C176,294.3,176,291.3,176,287.9z"/>
	<path d="M176,297.4C176,297.4,176,297.4,176,297.4L176,297.4C176,297.4,176,297.4,176,297.4z"/>
	<path d="M185.5,287.9C185.5,288,185.5,288,185.5,287.9L185.5,287.9C185.5,287.9,185.5,287.9,185.5,287.9z"/>
	<path d="M251.9,240.5c0-3.1,0-6.2,0-9.5c-3.3,0-6.4,0-9.5,0c0,0,0,0,0,0c0,0,0,0,0,0c0,3.1,0,6.3,0,9.4c0,0,0,0,0,0c0,0,0,0,0,0
		C245.5,240.6,248.7,240.6,251.9,240.5C251.9,240.6,251.9,240.6,251.9,240.5C251.9,240.6,251.9,240.6,251.9,240.5z"/>
	<path d="M194.8,335.2c0-3.2,0-6.2,0-9.3c-3.2,0-6.3,0-9.3,0c0,3.1,0,6.2,0,9.3C188.8,335.2,191.8,335.2,194.8,335.2z"/>
	<path d="M185.5,325.9C185.5,325.9,185.5,325.9,185.5,325.9C185.5,325.9,185.5,325.9,185.5,325.9
		C185.5,325.9,185.5,325.9,185.5,325.9z"/>
	<path d="M166.6,344.8C166.6,344.8,166.5,344.9,166.6,344.8C166.5,344.9,166.5,344.9,166.6,344.8
		C166.6,344.8,166.6,344.8,166.6,344.8z"/>
	<path d="M175.9,354.2c0-3.2,0-6.2,0-9.3c-3.2,0-6.3,0-9.3,0c0,3.1,0,6.2,0,9.3C169.8,354.2,172.9,354.2,175.9,354.2z"/>
	<path d="M280.3,221.6c0,3.1,0,6.2,0,9.5c3.3,0,6.4,0,9.5,0c0,0,0,0,0,0c0,0,0,0,0,0c0-3.1,0-6.2,0-9.5
		C286.5,221.6,283.4,221.6,280.3,221.6C280.3,221.6,280.3,221.6,280.3,221.6C280.3,221.6,280.3,221.6,280.3,221.6z"/>
	<path d="M299.4,325.9c0,3.2,0,6.3,0,9.3c0.2,0,0.4,0,0.6,0l0-9.3C299.8,325.9,299.6,325.9,299.4,325.9z"/>
	<path d="M119.2,174.2c0-0.3,0-0.7,0-1C119.1,173.5,119.1,173.9,119.2,174.2C119.1,174.2,119.1,174.2,119.2,174.2
		C119.2,174.2,119.2,174.2,119.2,174.2z"/>
	<path d="M109.7,240.5c0-3,0-6.1,0-9.1c-0.9,3-1.9,6.1-3,9.2C107.6,240.6,108.6,240.6,109.7,240.5
		C109.6,240.6,109.6,240.6,109.7,240.5C109.6,240.5,109.7,240.5,109.7,240.5z"/>
	<path d="M109.7,250.1c6.3,0,12.5,0,18.8,0c0-3.3,0-6.4,0-9.5c-6.4,0-12.6,0-18.8,0c0,0,0,0,0,0c0,0,0,0,0,0
		C109.6,243.7,109.6,246.9,109.7,250.1C109.6,250,109.6,250.1,109.7,250.1C109.6,250.1,109.7,250.1,109.7,250.1z"/>
	<path d="M232.9,231.1C232.9,231.1,232.9,231.1,232.9,231.1C232.9,231.1,232.9,231.1,232.9,231.1c-3.2,0-6.3,0-9.6,0
		c0-3.3,0-6.3,0-9.5c-6.4,0-12.6,0-18.8,0c0-6.3,0-12.6,0-18.9c3.2,0,6.3,0,9.3,0c0,0,0,0,0,0c0,0,0,0,0,0c0-3.1,0-6.3,0-9.4
		c0,0,0,0,0,0c0,0,0,0,0,0c-3.1,0-6.2,0-9.5,0c0-3.2,0-6.3,0-9.5c-3.2,0-6.3,0-9.4,0c0,0,0,0,0,0c0,0,0,0,0,0c0,6.3,0,12.5,0,19
		c-3.2,0-6.3,0-9.5,0c0,3.3,0,6.3,0,9.4c-3.1,0-6.2,0-9.5,0c0,3.3,0,6.4,0,9.4c-3.2,0-6.2,0-9.4,0c0-3.2,0-6.2,0-9.4
		c-3.3,0-6.3,0-9.4,0c0,0,0,0,0,0c0,0,0,0,0,0c0,6.3,0,12.6,0,18.9c0,0,0,0,0,0c0,0,0,0,0,0c6.3,0,12.6,0,18.9,0c0,3.3,0,6.4,0,9.4
		c0,0,0,0,0,0c0,0,0,0,0,0c3.1,0,6.2,0,9.4,0c0,3.3,0,6.4,0,9.4c0,0,0,0,0,0c0,0,0,0,0,0c3.1,0,6.2,0,9.5,0c0-6.5,0-12.7,0-18.9
		c6.4,0,12.6,0,18.9,0c0,6.4,0,12.6,0,18.8c0,0,0,0,0,0c0,0,0,0,0,0c3.1,0,6.2,0,9.5,0c0-3.3,0-6.4,0-9.5c3.3,0,6.3,0,9.4,0
		c0,0,0,0,0,0c0,0,0,0,0,0C232.9,237.4,232.9,234.3,232.9,231.1z M194.9,221.5c-3,0-6.1,0-9.3,0c0-3.1,0-6.2,0-9.3
		c3.1,0,6.1,0,9.3,0C194.9,215.3,194.9,218.3,194.9,221.5z"/>
	<path d="M166.6,183.7C166.6,183.7,166.5,183.7,166.6,183.7C166.5,183.7,166.5,183.7,166.6,183.7
		C166.6,183.7,166.6,183.7,166.6,183.7z"/>
	<path d="M166.6,202.5c3.2,0,6.3,0,9.3,0c0-6.3,0-12.5,0-18.8c-3.2,0-6.3,0-9.3,0C166.6,190,166.6,196.2,166.6,202.5z"/>
	<path d="M195,183.7C195,183.7,195,183.7,195,183.7C195,183.7,195,183.7,195,183.7c0-3.2,0-6.3,0-9.5c-3.3,0-6.4,0-9.5,0
		c0,0,0,0,0,0c0,0,0,0,0,0c0,3.1,0,6.2,0,9.5C188.8,183.7,191.9,183.7,195,183.7z"/>
	<path d="M214,269c0-6.5,0-12.7,0-19c0,0,0,0,0,0c0,0,0,0,0,0c-3.1,0-6.2,0-9.5,0c0,6.5,0,12.7,0,19c0,0,0,0,0,0c0,0,0,0,0,0
		C207.6,269,210.7,269,214,269z"/>
	<path d="M232.9,363.8c0-3.1,0-6.2,0-9.5c-6.5,0-12.7,0-19,0c0,0,0,0,0,0c0,0,0,0,0,0c0,3.1,0,6.2,0,9.5
		C220.4,363.8,226.6,363.8,232.9,363.8C232.9,363.8,232.9,363.8,232.9,363.8C232.9,363.8,232.9,363.8,232.9,363.8z"/>
	<path d="M270.8,145.7c-3.1,0-6.3,0-9.4,0c0,0,0,0,0,0c0,0,0,0,0,0c0,3.1,0,6.2,0,9.5c3.3,0,6.4,0,9.5,0c0,0,0,0,0,0c0,0,0,0,0,0
		C270.8,152.1,270.8,148.9,270.8,145.7C270.8,145.8,270.8,145.8,270.8,145.7C270.8,145.7,270.8,145.7,270.8,145.7z"/>
	<path d="M214,202.6C213.9,202.6,213.9,202.6,214,202.6C213.9,202.6,213.9,202.7,214,202.6c0,3.2,0,6.3,0,9.5c6.5,0,12.7,0,19,0
		c0,0,0,0,0,0c0,0,0,0,0,0c0-3.1,0-6.3,0-9.4c0,0,0,0,0,0c0,0,0,0,0,0C226.6,202.6,220.3,202.6,214,202.6z"/>
	<path d="M546.1,98.4C546.1,98.3,546.1,98.3,546.1,98.4L546.1,98.4C546,98.4,546,98.4,546.1,98.4z"/>
	<path d="M555.5,107.8c0,3.3,0,6.4,0,9.5c0,0,0,0,0,0c0,0,0,0,0,0c3.1,0,6.2,0,9.4,0c0,12.7,0,25.3,0,37.9c0,0,0,0,0,0c0,0,0,0,0,0
		c3.1,0,6.2,0,9.4,0c0-6.4,0-12.6,0-18.9c3.2,0,6.2,0,9.4,0c0,3,0,6.1,0,9.3c3.2,0,6.3,0,9.6,0c0-3.1,0-6.1,0-9.3
		c6.4,0,12.5,0,18.9,0c0,6.2,0,12.4,0,18.9c3.3,0,6.4,0,9.5,0c0-3.1,0-6.2,0-9.5c3.1,0,6,0,9,0c0.2-1.4,0.3-2.7,0.5-3.9
		c0-1.8,0-3.6,0-5.5c0.3,0,0.6,0,0.9,0c0.3-1.4,0.5-2.5,0.7-3.3c-0.4-1.5-0.9-3-1.2-4.6c-0.2-0.7-0.3-1.5-0.5-2.3c0,0.2,0,0.4,0,0.7
		c-6.2,0-12.4,0-18.8,0c0-6.2,0-12.4,0-18.8c-3.2,0-6.2,0-9.4,0c0-3.2,0-6.3,0-9.6c-3.3,0-6.4,0-9.5,0c0-6.3,0-12.6,0-18.9
		c3.2,0,6.3,0,9.5,0c0,3.1,0,6.1,0,9.3c5.2,0,10.4,0,15.6,0c-2-3.4-4.2-6.5-6.6-9.4c-3.1,0-6,0-9,0c0-0.6-0.1-1.2-0.1-1.8
		c0-2.3,0-4.7,0-7c-2.2-1.7-4.4-3.3-6.8-4.7c-0.1,0-0.1-0.1-0.1-0.1l-7.9-5.4c-4.6,0-9.1,0-13.6,0c0,6.2,0,12.5,0,19
		c-3.2,0-6.4,0-9.5,0c0,3.1,0,6.2,0,9.5c-3.3,0-6.3,0-9.6,0c0,3.2,0,6.3,0,9.5c-3.2,0-6.3,0-9.4,0c0,3.1,0,6.1,0,9.4
		C549.2,107.8,552.3,107.8,555.5,107.8z M574.6,117.3c3.1,0,6.2,0,9.3,0c0,3.1,0,6.1,0,9.3c-3.1,0-6.2,0-9.3,0
		C574.6,123.6,574.6,120.6,574.6,117.3z M593.5,117.3c3.1,0,6.1,0,9.3,0c0,3.1,0,6.2,0,9.4c-3,0-6.1,0-9.3,0
		C593.5,123.5,593.5,120.4,593.5,117.3z M584.1,70c3,0,6.1,0,9.3,0c0,3.1,0,6.2,0,9.4c-3.1,0-6.1,0-9.3,0
		C584.1,76.2,584.1,73.2,584.1,70z M565.1,98.4c9.5,0,18.9,0,28.3,0c0,6.3,0,12.6,0,18.9c-3.1,0-6.3,0-9.4,0c0-3.1,0-6.1,0-9.4
		c-6.3,0-12.6,0-18.9,0C565.1,104.6,565.1,101.6,565.1,98.4z"/>
	<path d="M565,79.4C565,79.4,565,79.4,565,79.4C565,79.4,565,79.4,565,79.4L565,79.4z"/>
	<path d="M574.5,60.4C574.5,60.4,574.5,60.4,574.5,60.4L574.5,60.4C574.5,60.4,574.5,60.4,574.5,60.4z"/>
	<path d="M621.9,155.2C621.9,155.2,621.9,155.2,621.9,155.2C621.9,155.2,621.9,155.2,621.9,155.2L621.9,155.2z"/>
	<path d="M623.2,97.9c-0.5-1.1-0.9-2.1-1.4-3.1c0,4.3,0,8.6,0,13c1.7,0,3.4,0,5,0C625.8,104.6,624.7,101.3,623.2,97.9z"/>
	<path d="M470.2,155.2C470.2,155.2,470.2,155.2,470.2,155.2C470.2,155.2,470.2,155.2,470.2,155.2L470.2,155.2z"/>
	<path d="M470.2,193.2c3.1,0,6.2,0,9.5,0c0,6.4,0,12.6,0,18.9c3.1,0,6.2,0,9.4,0c0-12.6,0-25.2,0-37.8c3.2,0,6.2,0,9.4,0
		c0,6.2,0,12.4,0,18.9c6.5,0,12.7,0,19,0c0,0,0,0,0,0c0,0,0,0,0,0c0-3.1,0-6.1,0-9.4c-3.2,0-6.2,0-9.4,0c0-3.2,0-6.3,0-9.5
		c6.3,0,12.6,0,18.8,0c0,0,0,0,0,0c0,0,0,0,0,0c0-3.1,0-6.3,0-9.4c-6.2,0-12.5,0-18.9,0c0-15.8,0-31.5,0-47.4c-3.2,0-6.3,0-9.6,0
		c0-3.3,0-6.4,0-9.5c-3.1,0-6.2,0-9.4,0c0-3.2,0-6.2,0-9.4c-3.2,0-6.2,0-9.4,0c0-3.2,0-6.2,0-9.5c-2.4,0-4.8,0-7.2,0
		c-1.6,2.8-3.1,5.8-4.5,8.9c-0.1,0.2-0.2,0.4-0.3,0.6c0.8,0,1.5,0,2.3,0c0,3.1,0,6.1,0,9.3c3.2,0,6.3,0,9.5,0c0,9.6,0,19.1,0,28.5
		c0,0,0,0,0,0c0,0,0,0,0,0c6.2,0,12.5,0,18.8,0c0,9.5,0,18.8,0,28.3c-3,0-6.1,0-9.3,0c0-3,0-6.1,0-9.4c-6.5,0-12.7,0-19,0
		c0,3.1,0,6.1,0,9.4c3.1,0,6.2,0,9.4,0c0,6.4,0,12.6,0,19.1c-3.1,0-6.2,0-9.3,0C470.2,186.8,470.2,190,470.2,193.2
		C470.2,193.1,470.2,193.1,470.2,193.2C470.2,193.1,470.2,193.2,470.2,193.2z"/>
	<path d="M479.7,212.1C479.7,212.1,479.7,212.1,479.7,212.1C479.7,212.1,479.7,212.1,479.7,212.1L479.7,212.1z"/>
	<path d="M527.1,164.7C527.1,164.7,527.1,164.7,527.1,164.7C527.1,164.7,527.1,164.7,527.1,164.7L527.1,164.7z"/>
	<path d="M498.6,107.8C498.6,107.8,498.6,107.8,498.6,107.8C498.6,107.8,498.7,107.8,498.6,107.8L498.6,107.8z"/>
	<path d="M470.2,183.7C470.2,183.7,470.2,183.7,470.2,183.7C470.2,183.7,470.2,183.7,470.2,183.7L470.2,183.7z"/>
	<path d="M498.7,107.8C498.7,107.8,498.6,107.8,498.7,107.8L498.7,107.8C498.7,107.8,498.7,107.8,498.7,107.8z"/>
	<path d="M527.1,88.8C527.1,88.8,527.1,88.9,527.1,88.8C527.1,88.9,527.1,88.9,527.1,88.8L527.1,88.8z"/>
	<path d="M527.1,79.4C527.1,79.4,527.1,79.4,527.1,79.4C527.1,79.4,527.1,79.4,527.1,79.4L527.1,79.4z"/>
	<path d="M527.1,50.9C527.1,50.9,527.1,50.9,527.1,50.9L527.1,50.9C527.1,50.9,527.1,50.9,527.1,50.9z"/>
	<path d="M508.1,107.8c0-3.1,0-6.2,0-9.4c3.2,0,6.3,0,9.5,0c0,6.3,0,12.4,0,18.8c3.2,0,6.2,0,9.4,0c0,3.2,0,6.3,0,9.5
		c-3.1,0-6.1,0-9.2,0c0,3.2,0,6.2,0,9.5c3,0,6.1,0,9.4,0c0,9.6,0,19,0,28.5c3.1,0,6.2,0,9.4,0c0,3.2,0,6.4,0,9.5c0,0,0,0,0,0
		c0,0,0,0,0,0c6.3,0,12.6,0,18.9,0c0,0,0,0,0,0c0,0,0,0,0,0c0-3.1,0-6.3,0-9.4c0,0,0,0,0,0c0,0,0,0,0,0c-3.1,0-6.2,0-9.4,0
		c0-3.1,0-6.2,0-9.4c-3.2,0-6.3,0-9.4,0c0-3.2,0-6.2,0-9.4c3.1,0,6.1,0,9.4,0c0-6.5,0-12.7,0-19c0,0,0,0,0,0c0,0,0,0,0,0
		c-3.1,0-6.1,0-9.4,0c0-6.3,0-12.5,0-18.9c-3.2,0-6.3,0-9.6,0c0-6.4,0-12.7,0-19c-3.1,0-6.2,0-9.4,0c0-3.2,0-6.4,0-9.5
		c3.1,0,6.3,0,9.4-0.1c0-6.3,0-12.6,0-18.9c-3.1,0-6.1,0-9.3,0c0-3,0-5.9,0-8.9l-9.6,6.2c0,0.9,0,1.9,0,2.8c-1.5,0-2.9,0-4.4,0
		l-5.1,3.3c0,2.1,0,4.1,0,6.1c-3.2,0-6.1,0-9.3,0c-3.5,2.7-6.7,5.7-9.7,9.1c0,0.1,0,0.3,0,0.4c3.2,0,6.3,0,9.5,0c0,3.2,0,6.2,0,9.4
		c3.2,0,6.2,0,9.5,0c0,6.5,0,12.7,0,19C501.7,107.8,504.8,107.8,508.1,107.8z M508.2,70c3,0,6.1,0,9.3,0c0,3.1,0,6.2,0,9.3
		c-3.1,0-6.1,0-9.3,0C508.2,76.2,508.2,73.2,508.2,70z"/>
	<path d="M527.1,164.7C527.1,164.7,527.1,164.7,527.1,164.7L527.1,164.7C527.1,164.7,527.1,164.7,527.1,164.7z"/>
	<path d="M527.1,60.4C527.1,60.4,527.1,60.4,527.1,60.4C527.1,60.4,527.1,60.4,527.1,60.4L527.1,60.4z"/>
	<path d="M522.4,47.5c-0.1,0.7-0.5,1.3-1.1,1.7l-2.7,1.7c2.8,0,5.6,0,8.4,0c0-1.2,0-2.4,0-3.5C525.5,47.4,524,47.5,522.4,47.5z"/>
	<path d="M470.2,145.8C470.2,145.8,470.2,145.8,470.2,145.8C470.2,145.7,470.2,145.7,470.2,145.8c-3.1,0-6.2,0-9.4,0
		c0-3.1,0-6.2,0-9.4c3.1,0,6.2,0,9.3,0c0,0,0,0,0,0c0,0,0,0,0,0c0-3.1,0-6.1,0-9.4c-3.2,0-6.2,0-9.5,0c0-1.5,0-2.9,0-4.3
		c-0.2,0.8-0.3,1.6-0.5,2.4c-0.2,1.2-0.5,2.3-0.7,3.3c-0.4,1.9-0.9,3.7-1.5,5.4c0.8,3.6,2.1,11.2,2.8,21.6c3.1,0,6.1,0,9.2,0
		C470.2,152.1,470.2,148.9,470.2,145.8z"/>
	<path d="M470.2,155.2C470.2,155.2,470.2,155.2,470.2,155.2L470.2,155.2C470.2,155.2,470.2,155.2,470.2,155.2z"/>
	<path d="M565,79.4C565,79.4,565,79.4,565,79.4L565,79.4C565,79.4,565,79.4,565,79.4z"/>
	<path d="M565,60.4c-3.1,0-6.2,0-9.5,0c0-3.3,0-6.4,0-9.4c-3.2,0-6.3,0-9.3,0c0,6.3,0,12.5,0,18.8c3.1,0,6.2,0,9.4,0
		c0,3.2,0,6.3,0,9.4c3.3,0,6.3,0,9.4,0C565,73,565,66.7,565,60.4z"/>
	<path d="M565,60.4C565,60.4,565,60.4,565,60.4C565,60.4,565,60.4,565,60.4L565,60.4z"/>
	<path d="M527.1,79.4C527.1,79.4,527.1,79.4,527.1,79.4L527.1,79.4C527.1,79.4,527.1,79.4,527.1,79.4z"/>
	<path d="M527.1,88.8C527.1,88.8,527.1,88.8,527.1,88.8L527.1,88.8C527.1,88.9,527.1,88.8,527.1,88.8z"/>
	<path d="M536.5,88.8c0,3.2,0,6.2,0,9.5c3.3,0,6.4,0,9.5,0c0-6.3,0-12.6,0-18.9c-6.4,0-12.7,0-18.9,0c0,3.1,0,6.3,0,9.4
		C530.2,88.8,533.3,88.8,536.5,88.8z"/>
	<path d="M546.1,98.3C546,98.3,546,98.3,546.1,98.3C546,98.3,546,98.3,546.1,98.3C546,98.4,546.1,98.3,546.1,98.3z"/>
	<path d="M574.5,60.4c0-3.1,0-6.2,0-9.3l-0.1,0c-3.2,0-6.3,0-9.4,0c0,3.2,0,6.3,0,9.3C568.2,60.4,571.3,60.4,574.5,60.4z"/>
	<path d="M565,60.4C565,60.4,565,60.4,565,60.4L565,60.4C565,60.4,565,60.4,565,60.4z"/>
	<path d="M574.5,60.4C574.5,60.4,574.5,60.4,574.5,60.4C574.5,60.4,574.5,60.4,574.5,60.4L574.5,60.4z"/>
	<path d="M527.1,60.4C527.1,60.4,527.1,60.4,527.1,60.4L527.1,60.4C527.1,60.4,527.1,60.4,527.1,60.4z"/>
	<path d="M527.1,51C527.1,51,527.1,51,527.1,51C527.1,50.9,527.1,50.9,527.1,51L527.1,51z"/>
	<path d="M536.4,60.4c0-3.2,0-6.3,0-9.4c-3.2,0-6.3,0-9.3,0c0,3.1,0,6.3,0,9.4C530.2,60.4,533.3,60.4,536.4,60.4z"/>
	<path d="M555.5,126.8c0-3.3,0-6.4,0-9.5c0,0,0,0,0,0c0,0,0,0,0,0c-3.1,0-6.2,0-9.5,0c0,3.3,0,6.4,0,9.5c0,0,0,0,0,0c0,0,0,0,0,0
		C549.2,126.8,552.3,126.8,555.5,126.8z"/>
	<path d="M470.2,136.3c0,3.1,0,6.3,0,9.4c0,0,0,0,0,0c0,0,0,0,0,0c3.1,0,6.2,0,9.5,0c0-3.3,0-6.4,0-9.5c0,0,0,0,0,0c0,0,0,0,0,0
		C476.5,136.2,473.4,136.2,470.2,136.3C470.2,136.2,470.2,136.2,470.2,136.3C470.2,136.3,470.2,136.3,470.2,136.3z"/>
	<path d="M342.8,142.2c0,0.2,0,0.4,0,0.6l8.9,2l0.6-2.6C349.1,142.2,346,142.2,342.8,142.2z"/>
	<path d="M304.8,104.3C304.8,104.3,304.9,104.3,304.8,104.3L304.8,104.3C304.8,104.3,304.8,104.3,304.8,104.3z"/>
	<path d="M295.4,123.2c6.2,0,12.5,0,18.8,0c0,3.1,0,6.2,0,9.4c-3,0-6.1,0-9.4,0c0,0.5,0,1,0,1.5l28.4,6.4c0-2.6,0-5.2,0-7.9
		c-3.1,0-6.2,0-9.4,0c0-6.4,0-12.7,0-19c0,0,0,0,0,0c0,0,0,0,0,0c-6.2,0-12.5,0-19,0c0-3.2,0-6.3,0-9.4c-6.3,0-12.6,0-18.9,0
		c0,0,0,0,0,0c0,0,0,0,0,0c0,2.5,0,5.1,0,7.6c0.2,0.6,0.3,1.2,0.4,1.8c3,0,5.9,0,9,0C295.3,117,295.3,120.1,295.4,123.2
		C295.4,123.2,295.4,123.2,295.4,123.2C295.4,123.2,295.4,123.2,295.4,123.2z"/>
	<path d="M333.3,132.7C333.3,132.7,333.3,132.7,333.3,132.7C333.3,132.7,333.3,132.7,333.3,132.7L333.3,132.7z"/>
	<path d="M295.4,75.8L295.4,75.8C295.4,75.8,295.4,75.8,295.4,75.8C295.4,75.8,295.4,75.8,295.4,75.8L295.4,75.8z"/>
	<path d="M295.4,85.3c3.1,0,6.2,0,9.5,0c0,6.4,0,12.6,0,18.9c3.1,0,6.2,0,9.4,0c0-12,0-23.9,0-35.9l-9.5-2.9c0,3.4,0,6.9,0,10.4
		c-3.1,0-6.2,0-9.3,0C295.4,79,295.4,82.1,295.4,85.3C295.4,85.3,295.4,85.3,295.4,85.3C295.4,85.3,295.4,85.3,295.4,85.3z"/>
	<path d="M342.8,85.3c0-2.7,0-5.4,0-8.3l-3.6-1.1c-1.9,0-3.8,0-5.8,0c0-0.6,0-1.2,0-1.7l-9.7-2.9c0,4.6,0,9.3,0,14.1
		C330.2,85.3,336.5,85.3,342.8,85.3C342.7,85.3,342.7,85.3,342.8,85.3C342.8,85.3,342.8,85.3,342.8,85.3z"/>
	<path d="M304.9,104.3C304.9,104.3,304.9,104.3,304.9,104.3C304.9,104.2,304.8,104.2,304.9,104.3L304.9,104.3z"/>
	<path d="M333.3,104.3c6.3,0,12.5,0,19,0c0,3.2,0,6.3,0,9.5c2.1,0,4.1,0,6.1,0l4.2-19.1c-3.4,0-6.9,0-10.3,0c0-3.2,0-6.3,0-9.3
		c0,0,0,0,0,0c0,0,0,0,0,0c-3.1,0-6.3,0-9.4,0c0,0,0,0,0,0c0,0,0,0,0,0c0,3.1,0,6.2,0,9.5c-3.2,0-6.3,0-9.5,0
		C333.3,98.1,333.3,101.2,333.3,104.3C333.3,104.2,333.3,104.2,333.3,104.3C333.3,104.3,333.3,104.3,333.3,104.3z"/>
	<path d="M333.3,132.7C333.3,132.7,333.3,132.7,333.3,132.7C333.3,132.7,333.3,132.7,333.3,132.7
		C333.3,132.7,333.3,132.7,333.3,132.7z"/>
	<path d="M352.1,132.7c0-3.2,0-6.3,0-9.3c-6.3,0-12.5,0-18.8,0c0,3.2,0,6.3,0,9.3C339.6,132.7,345.8,132.7,352.1,132.7z"/>
	<path d="M323.8,113.8c3.1,0,6.2,0,9.5,0c0-3.3,0-6.4,0-9.5c0,0,0,0,0,0c0,0,0,0,0,0c-3.1,0-6.2,0-9.5,0
		C323.8,107.6,323.8,110.6,323.8,113.8C323.8,113.7,323.8,113.7,323.8,113.8C323.8,113.8,323.8,113.8,323.8,113.8z"/>
	<path d="M290,130.9L290,130.9l5.4,1.1c0-3,0-5.9,0-8.8c0,0,0,0,0,0c0,0,0,0,0,0c-2.4,0-4.7,0-7.1,0c0.1,0.4,0.2,0.9,0.3,1.3
		c0.2,1,0.4,2,0.6,2.9C289.4,128.6,289.7,129.8,290,130.9z"/>
	<path d="M285.9,104.2c0-3.1,0-6.2,0-9.5c3.2,0,6.3,0,9.5,0c0-3.2,0-6.3,0-9.4c0,0,0,0,0,0c0,0,0,0,0,0c-6.3,0-12.6,0-19,0
		c0,1.1,0,2.2,0,3.2c1.1,1.9,2.2,3.9,3.3,6.1c1.6,3.2,2.9,6.4,4,9.6C284.4,104.3,285.1,104.3,285.9,104.2
		C285.9,104.3,285.9,104.3,285.9,104.2C285.9,104.3,285.9,104.2,285.9,104.2z"/>
	<path d="M276.3,75.7c0-3.2,0-6.2,0-9.4c-3.2,0-6.2,0-9.4,0c0-3.3,0-6.3,0-9.4c0,0,0,0,0,0c0,0,0,0,0,0c-3.1,0-6.3,0-9.4,0
		c0,0,0,0,0,0c0,0,0,0,0,0c0,3.1,0,6.2,0,9.4c-1.2,0-2.4,0-3.6,0c5.3,2.3,9.6,5.4,13.5,9.4C270.3,75.7,273.3,75.7,276.3,75.7z"/>
	<path d="M257.5,56.8c0-1.9,0-3.8,0-5.7l-5.9-1.8l-0.4,0.1c0,1.4-0.2,4.2-0.6,7.4C253,56.9,255.2,56.9,257.5,56.8
		C257.4,56.9,257.5,56.9,257.5,56.8C257.5,56.9,257.5,56.8,257.5,56.8z"/>
	<path d="M266.9,56.9c3.1,0,6.2,0,9.4,0l-9.4-2.8C266.9,55,266.9,55.9,266.9,56.9C266.9,56.8,266.9,56.9,266.9,56.9
		C266.9,56.9,266.9,56.9,266.9,56.9z"/>
	<path d="M286,66.4c0,3.2,0,6.2,0,9.3c3.2,0,6.3,0,9.3,0c0-3.1,0-6.2,0-9.3C292.1,66.4,289,66.4,286,66.4z"/>
	<path d="M295.3,75.8C295.3,75.8,295.3,75.8,295.3,75.8C295.3,75.8,295.4,75.8,295.3,75.8L295.3,75.8
		C295.4,75.8,295.4,75.8,295.3,75.8z"/>
	<path d="M352.3,85.3c3.1,0,6.2,0,9.5,0c0-0.9,0-1.7,0-2.6l-9.5-2.9C352.2,81.6,352.2,83.5,352.3,85.3
		C352.2,85.3,352.2,85.3,352.3,85.3C352.2,85.3,352.3,85.3,352.3,85.3z"/>
	<path d="M85.8,137.3C85.9,137.3,85.9,137.3,85.8,137.3L85.8,137.3C85.8,137.3,85.8,137.3,85.8,137.3z"/>
	<path d="M66.9,137.3C66.9,137.3,66.9,137.3,66.9,137.3C66.9,137.3,66.9,137.3,66.9,137.3c0,1.5,0,2.9,0,4.3l19-4.2c0,0,0,0,0,0
		C79.5,137.3,73.2,137.3,66.9,137.3z"/>
	<path d="M85.8,89.8c0,6.4,0,12.6,0,19.1c-3.1,0-6.2,0-9.3,0c0,3.1,0,6.3-0.1,9.4c0,0,0,0,0,0c0,0,0,0,0,0c3.1,0,6.2,0,9.5,0
		c0,6.4,0,12.6,0,18.9c0.1,0,0.2,0,0.3,0l9.1-2c0-11.9,0-23.8,0-35.8c3.2,0,6.2,0,9.4,0c0,6.2,0,12.4,0,18.9c4.3,0,8.5,0,12.6,0
		c0.7-2.9,1.5-6.1,2.4-9.4c-1.8,0-3.6,0-5.4,0c0-3.2,0-6.3,0-9.5c2.8,0,5.7,0,8.5,0c0.6-1.6,1.3-3.3,2-4.9c0.7-1.6,1.4-3.1,2.1-4.6
		c-4.2,0-8.3,0-12.6,0c0-9.6,0-19.1,0-28.7l-9.7,2.9c0,8.6,0,17.1,0,25.7c-3,0-6.1,0-9.3,0c0-3,0-6.1,0-9.4c-6.5,0-12.7,0-19,0
		c0,3.1,0,6.1,0,9.4C79.5,89.8,82.6,89.8,85.8,89.8z"/>
	<path d="M76.4,108.9L76.4,108.9C76.4,108.9,76.4,108.9,76.4,108.9C76.4,108.9,76.4,108.9,76.4,108.9L76.4,108.9z"/>
	<path d="M85.9,137.3C85.9,137.3,85.9,137.3,85.9,137.3C85.9,137.3,85.9,137.3,85.9,137.3L85.9,137.3z"/>
	<path d="M76.4,80.5C76.4,80.4,76.4,80.4,76.4,80.5L76.4,80.5C76.4,80.5,76.4,80.5,76.4,80.5z"/>
	<path d="M152.2,52c-2.4,0-4.8,0-7.2,0l-21.1,6.4c0,1,0,2,0,3.1c3,0,6.1,0,9.4,0c0,6.1,0,12.2,0,18.2c4.7-6,10.2-9.9,17.3-13.2
		l1.7-0.7C152.3,61.1,152.3,56.5,152.2,52C152.2,52,152.2,52,152.2,52C152.2,52,152.2,52,152.2,52z"/>
	<path d="M76.4,80.4C76.4,80.4,76.4,80.4,76.4,80.4C76.4,80.4,76.4,80.4,76.4,80.4L76.4,80.4z"/>
	<path d="M57.5,80.5c6.3,0,12.6,0,18.9,0c0-2.6,0-5.1,0-7.7l-19,5.8C57.4,79.1,57.4,79.8,57.5,80.5C57.4,80.4,57.4,80.4,57.5,80.5
		C57.5,80.4,57.5,80.4,57.5,80.5z"/>
	<path d="M153.5,50.2c0-0.2,0-0.4,0-0.6c0,0,0-0.1,0-0.1c0,0,0,0,0,0c0,0,0,0,0,0l-1.3,0.4c0,0.7,0,1.5,0,2.2c0,0,0,0,0,0
		c0,0,0,0,0,0c0.4,0,0.9,0,1.3,0C153.6,51.3,153.5,50.7,153.5,50.2z"/>
	<path d="M114.4,131c0.3-1,0.6-2,0.8-3.1c-0.3,0-0.6,0-1,0c0,1.1,0,2.1,0,3.2L114.4,131z"/>
	<path d="M57.4,137.3c-1.9,0-3.7,0-5.6,0l1.6,7.3l4-0.9C57.5,141.6,57.5,139.5,57.4,137.3C57.4,137.3,57.4,137.3,57.4,137.3
		C57.4,137.3,57.4,137.3,57.4,137.3z"/>
	<path d="M66.9,137.3c0-3.1,0-6.2,0-9.5c3.2,0,6.3,0,9.5,0c0-3.2,0-6.3,0-9.4c0,0,0,0,0,0c0,0,0,0,0,0c-6.3,0-12.6,0-19,0
		c0,6.5,0,12.7,0,19c0,0,0,0,0,0c0,0,0,0,0,0C60.6,137.3,63.7,137.3,66.9,137.3C66.9,137.3,66.9,137.3,66.9,137.3
		C66.9,137.3,66.9,137.3,66.9,137.3z"/>
	<path d="M45.6,108.8c3.9,0,7.8,0,11.7,0c0-3.2,0-6.2,0-9.4c-3.2,0-6.2,0-9.4,0c0-3.3,0-6.3,0-9.4c0,0,0,0,0,0c0,0,0,0,0,0
		c-2.1,0-4.3,0-6.4,0L45.6,108.8z"/>
	<path d="M48,89.9c3.1,0,6.2,0,9.5,0c0-3.3,0-6.4,0-9.5c0,0,0,0,0,0c0,0,0,0,0,0c-2.1,0-4.2,0-6.3,0l-3.2,1
		C47.9,84.3,47.9,87.1,48,89.9C47.9,89.9,47.9,89.9,48,89.9C47.9,89.9,48,89.9,48,89.9z"/>
	<path d="M47.8,118.9c0-0.2,0-0.4,0-0.6c0,0-0.1,0-0.1,0L47.8,118.9z"/>
	<path d="M67,99.5c0,3.2,0,6.2,0,9.3c3.2,0,6.3,0,9.3,0c0-3.1,0-6.2,0-9.3C73.1,99.5,70.1,99.5,67,99.5z"/>
	<path d="M76.4,108.9C76.4,108.9,76.4,108.9,76.4,108.9C76.4,108.9,76.4,108.9,76.4,108.9L76.4,108.9
		C76.4,108.9,76.4,108.9,76.4,108.9z"/>
	<path d="M85.9,69.9L82.2,71c1.2,0,2.4,0,3.7,0C85.9,70.6,85.9,70.2,85.9,69.9z"/>
	<path d="M465.9,99.4c0-7.9,0-15.7,0-23.6c-12.6,0-25.2,0-37.8,0c0,0,0,0,0,0c0,0,0,0,0,0c0,6.2,0,12.5,0,18.9c-3.2,0-6.3,0-9.4,0
		c0,0,0,0,0,0c0,0,0,0,0,0c0,3.1,0,6.1,0,9.4c-3.1,0-6.2,0-9.4,0c0,3.2,0,6.3,0,9.5c-3.3,0-6.4,0-9.5,0c0,0,0,0,0,0c0,0,0,0,0,0
		c0,3.1,0,6.3,0,9.4c-2,0-4.1,0-6.1,0l4.5,20.3l30-6.4c0-1.5,0-2.9,0-4.4c0,0,0,0,0,0c0,0,0,0,0,0c-3.1,0-6.1,0-9.3,0
		c0-6.3,0-12.5,0-18.9c3.1,0,6.2,0,9.3,0c0,0,0,0,0,0c0,0,0,0,0,0c0-3.1,0-6.2,0-9.4c3.2,0,6.3,0,9.4,0c0,0,0,0,0,0c0,0,0,0,0,0
		c0-3.1,0-6.2,0-9.4c3.1,0,6.2,0,9.4,0c0-3.2,0-6.2,0-9.4c3.2,0,6.3,0,9.5,0c0,6.3,0,12.5,0,18.8c0,0,0,0,0,0c0,0,0,0,0,0
		c2.5,0,5,0,7.6,0C464.7,102.7,465.2,101.1,465.9,99.4z M399.7,123.2c3.1,0,6.1,0,9.3,0c0,3.1,0,6.2,0,9.4c-3,0-6.1,0-9.3,0
		C399.7,129.5,399.7,126.4,399.7,123.2z"/>
	<path d="M510.3,48.2c-1.5,0.1-3,0.2-4.3,0.3c-1.9,0.1-3.5,0.2-4.8,0.3c-1.1,0.1-1.6,0.1-1.8,0.2h-0.1l-14,4.3l-9.9,3
		c0,0.1,0,0.3,0,0.4c-0.5,0-1,0-1.5,0L456.5,62c0,1.4,0,2.8,0,4.2c6.3,0,12.6,0,19,0c0,5.3,0,10.5,0,15.8c2.9-3.8,6.1-7.2,9.6-10.3
		c0-1.8,0-3.5,0-5.4c2.3,0,4.5,0,6.9,0c0.8-0.6,1.6-1.1,2.4-1.6c0-2.7,0-5.2,0-8c4.3,0,8.4,0,12.6,0l6.4-4.1c0-1.6,0-3.1,0-4.7
		c-0.6,0-1.2,0-1.6,0.1L510.3,48.2z"/>
	<path d="M447.1,123.2C447.1,123.2,447.1,123.2,447.1,123.2C447,123.2,447,123.2,447.1,123.2L447.1,123.2z"/>
	<path d="M437.6,113.8C437.6,113.7,437.6,113.7,437.6,113.8C437.6,113.7,437.6,113.7,437.6,113.8L437.6,113.8z"/>
	<path d="M456.5,104.2c-6.3,0-12.6,0-18.9,0c0,0,0,0,0,0c0,0,0,0,0,0c0,3.1,0,6.3,0.1,9.4c3.1,0,6.2,0,9.5,0c0,3.2,0,6.4,0,9.5
		c4.1,0,8.2,0,12.2,0c0.5-2.6,1.1-5.5,1.9-8.6c0.1-0.3,0.1-0.6,0.2-0.8c-1.6,0-3.2,0-4.9,0C456.5,110.4,456.5,107.4,456.5,104.2
		C456.5,104.3,456.5,104.3,456.5,104.2C456.5,104.2,456.5,104.2,456.5,104.2z"/>
	<path d="M428.1,75.8c0-1.7,0-3.5,0-5.2l-17.4,5.3C416.6,75.8,422.3,75.8,428.1,75.8C428.1,75.8,428.1,75.8,428.1,75.8
		C428.1,75.8,428.1,75.8,428.1,75.8z"/>
	<path d="M437.5,113.8C437.6,113.8,437.6,113.8,437.5,113.8L437.5,113.8C437.5,113.7,437.5,113.7,437.5,113.8z"/>
	<path d="M437.5,113.8c-3.1,0-6.3,0-9.4,0c0,0,0,0,0,0c0,0,0,0,0,0c0,6.3,0,12.6,0,18.9c0,0,0,0,0,0c0,0,0,0,0,0
		c6.3,0,12.6,0,18.9,0c0-3.3,0-6.4,0-9.5c-3.1,0-6.2,0-9.5,0C437.5,120,437.5,116.9,437.5,113.8z"/>
	<path d="M447,123.2C447,123.2,447,123.2,447,123.2L447,123.2C447,123.2,447,123.2,447,123.2z"/>
	<path d="M399.7,85.3c0-2,0-4,0-6.1l-14.9,4.5l0.4,1.6C390,85.3,394.8,85.3,399.7,85.3C399.6,85.3,399.6,85.3,399.7,85.3
		C399.6,85.3,399.7,85.3,399.7,85.3z"/>
	<path d="M399.7,113.7c0-3.1,0-6.2,0-9.5c-3.5,0-7,0-10.4,0l1.1,4.8l1.1,4.7C394.2,113.8,396.9,113.8,399.7,113.7
		C399.6,113.8,399.7,113.8,399.7,113.7C399.7,113.7,399.7,113.7,399.7,113.7z"/>
	<path d="M418.6,94.8c0-3.1,0-6.2,0-9.5c-6.5,0-12.7,0-19,0c0,0,0,0,0,0c0,0,0,0,0,0c0,3.1,0,6.2,0,9.5
		C406.1,94.8,412.3,94.8,418.6,94.8C418.6,94.8,418.6,94.8,418.6,94.8C418.6,94.8,418.6,94.8,418.6,94.8z"/>
	<path d="M582.7,48.2c-3.5-0.1-7.4-0.3-10.9-0.4l10.9,7.5C582.7,52.9,582.7,50.6,582.7,48.2z"/>
	<path d="M639.5,103.5C639.5,103.5,639.5,103.5,639.5,103.5C639.5,103.5,639.5,103.6,639.5,103.5L639.5,103.5z"/>
	<path d="M594.5,63.4c1.2,0.7,2.4,1.5,3.6,2.3c1.1,0,2.3,0,3.4,0c0,0.8,0,1.6,0,2.4c6,4.5,11.5,10.1,16,16.6c4.1,0,8.2,0,12.4,0
		c0,6.2,0,12.4,0,18.9c3.3,0,6.4,0,9.5,0c0-3.1,0-6.2,0-9.5c3.3,0,6.4,0,9.5,0c0-3.2,0-6.2,0-9.4c3.2,0,6.2,0,9.5,0
		c0-3.2,0-6.3,0-9.5c7.5,0,15,0,22.5,0l-32.1-9.6c0,3.2,0,6.4,0,9.6c-6.2,0-12.4,0-18.8,0c0-5,0-10.1,0-15.2L611,54
		c0,3.9,0,7.7,0,11.6c-3.1,0-6.3,0-9.4,0c0-3.1,0-6.1,0-9.4c-5.9,0-11.7,0-17.5,0L594.5,63.4z M620.4,75c-3,0-6.1,0-9.3,0
		c0-3.1,0-6.2,0-9.4c3.1,0,6.1,0,9.3,0C620.4,68.8,620.4,71.8,620.4,75z"/>
	<path d="M658.3,136.3c0-1.4,0-2.9,0-4.3c-6.6,0-13.1,0-19.7,0L658.3,136.3z"/>
	<path d="M677.4,94C677.4,94.1,677.4,94.1,677.4,94C677.4,94.1,677.4,94.1,677.4,94L677.4,94z"/>
	<path d="M639.5,103.6C639.5,103.6,639.5,103.5,639.5,103.6L639.5,103.6C639.5,103.6,639.5,103.6,639.5,103.6z"/>
	<path d="M648.9,113c0,3.2,0,6.2,0,9.4c6.3,0,12.6,0,19,0c0,5.4,0,10.6,0,15.9l28.5,6.2c0-1,0-2.1,0-3.1c0,0,0,0,0,0c0,0,0,0,0,0
		c-3.1,0-6.1,0-9.4,0c0-3.1,0-6.2,0-9.4c-3.2,0-6.3,0-9.4,0c0-3.2,0-6.2,0-9.4c3,0,6.1,0,9.3,0c0-3.2,0-6.3,0-9.6
		c5.7,0,11.2,0,16.7,0l2.3-10.3c0-2.8,0-5.7,0-8.5c-3.3,0-6.3,0-9.5,0c0,3.2,0,6.2,0,9.2c-6.3,0-12.6,0-18.9,0c0-3.2,0-6.3,0-9.3
		c-6.3,0-12.5,0-19,0c0,3.3,0,6.3,0,9.4c-6.3,0-12.6,0-18.9,0.1c0,3.1,0,6.2,0,9.4C642.7,113,645.7,113,648.9,113z M667.8,112.9
		c-3,0-6.1,0-9.3,0c0-3.1,0-6.2,0-9.4c3.1,0,6.1,0,9.3,0C667.8,106.7,667.8,109.7,667.8,112.9z"/>
	<path d="M686.8,84.7c-3.2,0-6.2,0-9.3,0c0,3.2,0,6.3,0,9.3c3.1,0,6.2,0,9.3,0C686.8,90.8,686.8,87.7,686.8,84.7z"/>
	<path d="M677.4,94C677.4,94,677.4,94.1,677.4,94C677.4,94.1,677.4,94.1,677.4,94C677.4,94,677.4,94,677.4,94z"/>
	<path d="M696.4,141.5c0.3,0,0.5,0,0.8,0l4.2-19c-1.7,0-3.3,0-5.1,0C696.3,129,696.3,135.2,696.4,141.5
		C696.3,141.5,696.3,141.5,696.4,141.5C696.4,141.5,696.4,141.5,696.4,141.5z"/>
	<path d="M631.4,212.1c0.9,0,1.8,0,2.7,0c-1.2-5.7-2.1-11.1-2.8-16.4C631.3,201.2,631.3,206.6,631.4,212.1
		C631.4,212.1,631.4,212.1,631.4,212.1C631.4,212.1,631.4,212.1,631.4,212.1z"/>
	<path d="M621.9,259.5C621.9,259.5,621.9,259.5,621.9,259.5C621.9,259.5,621.9,259.5,621.9,259.5L621.9,259.5z"/>
	<path d="M593.5,325.9C593.4,325.9,593.4,325.9,593.5,325.9C593.4,325.9,593.4,325.9,593.5,325.9L593.5,325.9z"/>
	<path d="M602.9,287.9c3.3,0,6.4,0,9.6,0c0-9.6,0-18.9,0-28.4c3.2,0,6.3,0,9.4,0c0-3.1,0-6.1,0-9.4c-6.3,0-12.5,0-18.9,0
		c0-3.3,0-6.4,0-9.5c0,0,0,0,0,0c0,0,0,0,0,0c-3.1,0-6.1,0-9.3,0c0-6.3,0-12.5,0-18.9c3.1,0,6.2,0,9.3,0c0,0,0,0,0,0c0,0,0,0,0,0
		c0-3.1,0-6.2,0-9.4c3.2,0,6.3,0,9.4,0c0,0,0,0,0,0c0,0,0,0,0,0c0-3.1,0-6.2,0-9.4c3.1,0,6.2,0,9.4,0c0-3.2,0-6.2,0-9.4
		c3.1,0,6.1,0,9.2,0c-0.4-3.3-0.7-6.5-0.9-9.6c-9.1,0-18.1,0-27.2,0c0,0,0,0,0,0c0,0,0,0,0,0c0,6.2,0,12.5,0,18.9
		c-3.2,0-6.3,0-9.4,0c0,0,0,0,0,0c0,0,0,0,0,0c0,3.1,0,6.1,0,9.4c-3.1,0-6.2,0-9.4,0c0,3.2,0,6.3,0,9.5c-3.3,0-6.4,0-9.5,0
		c0,0,0,0,0,0c0,0,0,0,0,0c0,3.1,0,6.3,0,9.4c-3.1,0-6.3,0-9.4,0c0,0,0,0,0,0c0,0,0,0,0,0c0,6.2,0,12.5,0,18.9c-3.2,0-6.3,0-9.4,0
		c0,0,0,0,0,0c0,0,0,0,0,0c0,3.1,0,6.2,0,9.3c-6.3,0-12.5,0-18.9,0c0-3.1,0-6.2,0-9.3c0,0,0,0,0,0c0,0,0,0,0,0c-6.2,0-12.5,0-18.9,0
		c0,3.2,0,6.4,0,9.5c3.1,0,6.2,0,9.3,0c0,9.5,0,18.9,0,28.5c-3.1,0-6.2,0-9.3,0c0,3.1,0,6.1,0,9.4c3.1,0,6.2,0,9.4,0
		c0,3.3,0,6.4,0,9.5c0,0,0,0,0,0c0,0,0,0,0,0c3.1,0,6.1,0,9.4,0c0-3.2,0-6.2,0-9.5c3.3,0,6.4,0,9.5,0c0,0,0,0,0,0c0,0,0,0,0,0
		c0-3.1,0-6.2,0-9.4c-3.2,0-6.3,0-9.4,0c0-6.4,0-12.6,0-19c15.8,0,31.5,0,47.3,0c0,3.1,0,6.1,0,9.4c3.2,0,6.2,0,9.4,0
		c0,6.4,0,12.6,0,19c-6.3,0-12.6,0-18.8,0c0,0,0,0,0,0c0,0,0,0,0,0c0,3.1,0,6.2,0,9.4c-3.2,0-6.3,0-9.4,0c0,0,0,0,0,0c0,0,0,0,0,0
		c0,3.1,0,6.3,0,9.4c6.2,0,12.5,0,18.9,0c0,3.2,0,6.4,0,9.5c0,0,0,0,0,0c0,0,0,0,0,0c3.1,0,6.3,0,9.4,0c0-6.3,0-12.6,0-19
		c3.3,0,6.4,0,9.5,0C602.9,300.6,602.9,294.4,602.9,287.9z M584,250.2c3.1,0,6.2,0,9.3,0c0,6.2,0,12.4,0,18.8c-3.1,0-6.2,0-9.3,0
		C584,262.7,584,256.5,584,250.2z M583.8,231.1c0,3.1,0,6.2,0,9.4c-3,0-6.1,0-9.3,0c0-3.1,0-6.2,0-9.4
		C577.6,231.1,580.6,231.1,583.8,231.1z"/>
	<path d="M517.6,259.5C517.6,259.5,517.6,259.5,517.6,259.5C517.6,259.5,517.6,259.5,517.6,259.5L517.6,259.5z"/>
	<path d="M565,316.4C565,316.4,565,316.4,565,316.4C565,316.4,565,316.4,565,316.4L565,316.4z"/>
	<path d="M517.6,288C517.6,288,517.6,288,517.6,288C517.6,288,517.6,288,517.6,288L517.6,288z"/>
	<path d="M602.9,306.9C602.9,306.9,602.9,306.9,602.9,306.9L602.9,306.9C602.9,306.9,602.9,306.9,602.9,306.9z"/>
	<path d="M517.6,287.9C517.6,287.9,517.6,287.9,517.6,287.9C517.6,288,517.6,288,517.6,287.9L517.6,287.9z"/>
	<path d="M508.1,240.5C508.1,240.6,508.1,240.6,508.1,240.5C508.1,240.6,508.1,240.6,508.1,240.5L508.1,240.5z"/>
	<path d="M517.6,259.5C517.6,259.5,517.6,259.5,517.6,259.5C517.6,259.5,517.6,259.5,517.6,259.5L517.6,259.5z"/>
	<path d="M489.1,335.3C489.1,335.4,489.1,335.4,489.1,335.3L489.1,335.3C489.2,335.3,489.2,335.3,489.1,335.3z"/>
	<path d="M460.7,316.4c0-3.2,0-6.2,0-9.4c3.2,0,6.3,0,9.6,0c0,6.3,0,12.5,0,18.8c3.1,0,6.1,0,9.4,0c0,3.2,0,6.2,0,9.5
		c3.3,0,6.4,0,9.5,0c0-3.1,0-6.2,0-9.5c3.2,0,6.4,0,9.5,0c0-3.1,0-6.1,0-9.4c-6.3,0-12.5,0-18.8,0c0-9.5,0-18.9,0-28.5
		c3.1,0,6.2,0,9.4,0c0,0,0,0,0,0c0,0,0,0,0,0c0-3.1,0-6.2,0-9.4c-3.2,0-6.3,0-9.4,0c0-3.2,0-6.2,0-9.4c6.2,0,12.4,0,18.8,0
		c0,6.3,0,12.5,0,18.8c0,0,0,0,0,0c0,0,0,0,0,0c6.3,0,12.6,0,18.9,0c0-9.5,0-18.9,0-28.4c-3.1,0-6.2,0-9.5,0c0-6.4,0-12.7,0-19
		c-3.1,0-6.2,0-9.4,0c0-6.4,0-12.7,0-19c0,0,0,0,0,0c0,0,0,0,0,0c-6.2,0-12.5,0-19,0c0-3.2,0-6.3,0-9.4c-6.3,0-12.6,0-18.9,0
		c0,0,0,0,0,0c0,0,0,0,0,0c0,3.1,0,6.3,0,9.4c0,0,0,0,0,0c0,0,0,0,0,0c3.1,0,6.2,0,9.4,0c0,3.2,0,6.3,0,9.4c0,0,0,0,0,0c0,0,0,0,0,0
		c6.2,0,12.5,0,18.8,0c0,3.1,0,6.2,0,9.4c-3,0-6.1,0-9.4,0c0,3.3,0,6.4,0,9.5c-3.1,0-6.1,0-9.4,0c0,9.5,0,18.9,0,28.4
		c-3.3,0-6.4,0-9.5,0c0,0,0,0,0,0c0,0,0,0,0,0c0,3.1,0,6.1,0,9.3c-3.1,0-6.2,0-9.4,0c0-3.1,0-6.2,0-9.3c0,0,0,0,0,0c0,0,0,0,0,0
		c-0.9,0-1.8,0-2.7,0l0,45.2l-0.3,11.7c1,0,1.9,0,2.9,0c0-6.2,0-12.5,0-18.9C454.4,316.4,457.5,316.4,460.7,316.4z M498.5,250.1
		c0,3.1,0,6.2,0,9.4c-6.2,0-12.4,0-18.8,0c0-3.1,0-6.2,0-9.4C485.9,250.1,492.2,250.1,498.5,250.1z"/>
	<path d="M451.2,335.3C451.2,335.4,451.2,335.4,451.2,335.3L451.2,335.3C451.3,335.3,451.2,335.3,451.2,335.3z"/>
	<path d="M470.2,325.9C470.2,325.9,470.2,325.9,470.2,325.9C470.2,325.9,470.2,325.9,470.2,325.9L470.2,325.9z"/>
	<path d="M479.7,212.1C479.7,212.1,479.7,212.1,479.7,212.1C479.7,212.1,479.7,212.1,479.7,212.1L479.7,212.1z"/>
	<path d="M498.7,325.9C498.7,325.9,498.6,325.9,498.7,325.9C498.6,325.9,498.6,325.9,498.7,325.9L498.7,325.9z"/>
	<path d="M621.9,164.7c2.6,0,5.1,0,7.7,0c0.1-3.4,0.2-6.5,0.4-9.4c-2.7,0-5.4,0-8.1,0C621.9,158.3,621.9,161.4,621.9,164.7z"/>
	<path d="M621.9,155.2C621.9,155.2,621.9,155.2,621.9,155.2L621.9,155.2C621.9,155.2,621.9,155.2,621.9,155.2z"/>
	<path d="M621.9,269.1c3.2,0,6.3,0,9.5,0c0,3.2,0,6.3,0,9.4c3.9,0,7.8,0,11.7,0l0-18.9c-7.1,0-14.1,0-21.2,0
		C621.9,262.7,621.9,265.8,621.9,269.1z"/>
	<path d="M621.9,259.5C621.9,259.5,621.9,259.5,621.9,259.5C621.9,259.5,621.9,259.5,621.9,259.5
		C621.9,259.5,621.9,259.5,621.9,259.5z"/>
	<path d="M631.4,278.5C631.4,278.5,631.4,278.5,631.4,278.5C631.4,278.4,631.4,278.4,631.4,278.5L631.4,278.5z"/>
	<path d="M498.7,373.3C498.7,373.3,498.7,373.3,498.7,373.3C498.7,373.3,498.6,373.3,498.7,373.3L498.7,373.3z"/>
	<path d="M546,326c-3.1,0-6.2,0-9.4,0c0,3,0,6.1,0,9.3c-3.3,0-6.4,0-9.5,0c0,0,0,0,0,0c0,0,0,0,0,0c0,3.1,0,6.1,0,9.3
		c-6.3,0-12.5,0-18.9,0c0-6.2,0-12.4,0-18.8c-3.3,0-6.4,0-9.5,0c0,3.1,0,6.2,0,9.5c-3.2,0-6.4,0-9.5,0c0,3.1,0,6.3,0,9.4
		c0,0,0,0,0,0c0,0,0,0,0,0c3.1,0,6.1,0,9.3,0c0,3.1,0,6.2,0,9.4c-3.1,0-6.2,0-9.3,0c0,0,0,0,0,0c0,0,0,0,0,0c0,3.1,0,6.3,0,9.4
		c3.1,0,6.2,0,9.5,0c0,3.2,0,6.4,0,9.5c3.1,0,6.2,0,9.5,0c0,3.1,0,5.9,0,8.9c1.1,0.2,2.3,0.5,3.4,0.7c2,0,4,0,6,0c0,0.4,0,0.7,0,1.1
		c3.1,0.5,6.3,0.9,9.4,1.3c0-0.8,0-1.6,0-2.5c3.3,0,6.3,0,9.4,0c0-6.4,0-12.6,0-18.9c-9.5,0-18.9,0-28.2,0c0-3.3,0-6.3,0-9.5
		c9.5,0,18.8,0,28.3,0c0-3.2,0-6.3,0-9.5c3.3,0,6.3,0,9.4,0C546,338.6,546,332.4,546,326z"/>
	<path d="M489.2,363.8C489.2,363.8,489.2,363.8,489.2,363.8C489.2,363.8,489.2,363.8,489.2,363.8L489.2,363.8z"/>
	<path d="M546,344.8C546,344.8,546,344.9,546,344.8L546,344.8C546,344.8,546,344.8,546,344.8z"/>
	<path d="M498.6,325.9C498.6,325.9,498.7,325.9,498.6,325.9C498.7,325.9,498.7,325.9,498.6,325.9L498.6,325.9z"/>
	<path d="M489.1,335.4C489.2,335.4,489.2,335.4,489.1,335.4C489.2,335.4,489.2,335.4,489.1,335.4L489.1,335.4z"/>
	<path d="M489.1,373.3C489.1,373.3,489.1,373.3,489.1,373.3L489.1,373.3C489.2,373.3,489.2,373.3,489.1,373.3z"/>
	<path d="M489.1,363.8c-3.1,0-6.2,0-9.4,0c0-3.2,0-6.4,0-9.5c0,0,0,0,0,0c0,0,0,0,0,0c-3.1,0-6.2,0-9.4,0c0,3.2,0,6.3,0,9.4
		c-3.2,0-6.2,0-9.4,0c0-3,0-6.1,0-9.4c-3.3,0-6.4,0-9.5,0c0,2.9,0,5.8,0,8.7c4.7,2.2,15,6.8,28.5,11.3c0-0.4,0-0.7,0-1.1
		c3.3,0,6.3,0,9.4,0C489.1,370.1,489.1,367,489.1,363.8z"/>
	<path d="M489.1,363.8C489.2,363.8,489.2,363.8,489.1,363.8L489.1,363.8C489.1,363.8,489.1,363.8,489.1,363.8z"/>
	<path d="M451.3,354.3L451.3,354.3C451.2,354.3,451.3,354.3,451.3,354.3C451.3,354.3,451.3,354.3,451.3,354.3z"/>
	<path d="M640.7,354.3c-3.2,0-6.2,0-9.4,0c0-3.3,0-6.3,0-9.4c-3.1,0-6.2,0-9.5,0c0-6.4,0-12.7,0-19c-3.1,0-6.2,0-9.5,0
		c0,12.7,0,25.3,0,38c-3.2,0-6.2,0-9.3,0c0,3.2,0,6.3,0,9.4c3.3,0,6.5,0,9.8,0c7.2-2.4,13.6-4.8,18.5-6.8c0-0.9,0-1.8,0-2.8
		c2.3,0,4.5,0,6.7,0c1.1-0.5,2-0.9,2.8-1.2C640.7,359.8,640.7,357.1,640.7,354.3z"/>
	<path d="M621.9,325.9C621.9,325.9,621.9,325.9,621.9,325.9C621.9,325.9,621.9,325.9,621.9,325.9
		C621.9,325.9,621.9,325.9,621.9,325.9z"/>
	<path d="M631.3,344.9C631.3,344.9,631.4,344.9,631.3,344.9L631.3,344.9C631.3,344.8,631.3,344.9,631.3,344.9z"/>
	<path d="M593.3,379c0-1.9,0-3.8,0-5.6c-12.6,0-25.1,0-37.8,0c0,3.2,0,6.2,0,9.5c-3.2,0-6.3,0-9.3,0c0,1.1,0,2.2,0,3.2
		c6.3-0.1,12.7-0.6,18.9-1.5c0-0.6,0-1.2,0-1.8c3.2,0,6.2,0,9.4,0c0,0.1,0,0.2,0,0.3C581,382,587.3,380.6,593.3,379z"/>
	<path d="M574.5,354.4c-3.3,0-6.4,0-9.4,0c0,3.2,0,6.2,0,9.3c9.5,0,18.9,0,28.3,0c0-6.3,0-12.6,0-18.8c-6.3,0-12.6,0-18.9,0
		C574.5,348,574.5,351.1,574.5,354.4z"/>
	<path d="M574.5,344.9C574.5,344.9,574.5,344.9,574.5,344.9C574.5,344.9,574.5,344.8,574.5,344.9L574.5,344.9z"/>
	<path d="M593.4,344.9C593.4,344.9,593.4,344.9,593.4,344.9L593.4,344.9C593.4,344.8,593.4,344.9,593.4,344.9z"/>
	<path d="M602.9,306.9C602.9,306.9,602.9,306.9,602.9,306.9C602.9,306.9,602.9,306.9,602.9,306.9
		C602.9,306.9,602.9,306.9,602.9,306.9z"/>
	<path d="M631.4,325.9C631.4,325.9,631.3,325.9,631.4,325.9C631.3,325.9,631.3,325.9,631.4,325.9L631.4,325.9z"/>
	<path d="M621.9,325.9C621.9,325.9,621.9,325.9,621.9,325.9C621.9,325.9,621.9,325.9,621.9,325.9
		C621.9,325.9,621.9,325.9,621.9,325.9z"/>
	<path d="M631.3,306.9c-3.2,0-6.3,0-9.5,0c0-3.2,0-6.2,0-9.3c-3.2,0-6.2,0-9.5,0c0,3.2,0,6.2,0,9.4c-3.3,0-6.3,0-9.4,0
		c0,3.1,0,6.2,0,9.5c6.4,0,12.6,0,19,0c0,3.2,0,6.3,0,9.4c3.1,0,6.3,0,9.4,0C631.3,319.6,631.3,313.3,631.3,306.9z"/>
	<path d="M565,316.4C565,316.4,565,316.4,565,316.4C565,316.4,565,316.4,565,316.4L565,316.4z"/>
	<path d="M574.5,344.8C574.5,344.8,574.5,344.9,574.5,344.8L574.5,344.8C574.5,344.8,574.5,344.8,574.5,344.8z"/>
	<path d="M574.5,335.4C574.5,335.4,574.5,335.4,574.5,335.4C574.5,335.4,574.5,335.4,574.5,335.4c-3.1,0-6.2,0-9.5,0
		c0-6.4,0-12.6,0-18.9c-3.1,0-6.3,0-9.4,0c0,0,0,0,0,0c0,0,0,0,0,0c0,9.5,0,18.9,0,28.4c6.3,0,12.6,0,18.9,0
		C574.5,341.7,574.5,338.5,574.5,335.4z"/>
	<path d="M555.5,344.9C555.5,344.9,555.5,344.8,555.5,344.9C555.5,344.8,555.5,344.8,555.5,344.9L555.5,344.9z"/>
	<path d="M640.9,297.4c0,6.5,0,12.7,0,18.9c0.8,0,1.5,0,2.3,0l0-1l-0.2,0l0-17.9C642.3,297.4,641.6,297.4,640.9,297.4z"/>
	<path d="M451.3,344.8C451.3,344.8,451.2,344.8,451.3,344.8L451.3,344.8C451.3,344.9,451.3,344.8,451.3,344.8z"/>
	<path d="M470.2,325.9C470.2,325.9,470.2,325.9,470.2,325.9L470.2,325.9C470.2,325.9,470.2,325.9,470.2,325.9z"/>
	<path d="M470.2,325.9c-3.1,0-6.1,0-9.4,0c0,3.1,0,6.2,0,9.5c-3.3,0-6.4,0-9.5,0c0,3.1,0,6.3,0,9.4c6.2,0,12.5,0,18.9,0
		C470.2,338.5,470.2,332.2,470.2,325.9z"/>
	<path d="M451.2,335.4C451.2,335.4,451.3,335.4,451.2,335.4C451.3,335.4,451.3,335.4,451.2,335.4L451.2,335.4z"/>
	<path d="M593.5,344.8c3.1,0,6.2,0,9.3,0c0-6.4,0-12.6,0-18.9c-3.2,0-6.3,0-9.3,0C593.5,332.2,593.5,338.5,593.5,344.8z"/>
	<path d="M593.5,325.9C593.5,325.9,593.5,325.9,593.5,325.9L593.5,325.9C593.4,325.9,593.4,325.9,593.5,325.9z"/>
	<path d="M593.5,344.9C593.5,344.9,593.5,344.8,593.5,344.9C593.4,344.8,593.4,344.8,593.5,344.9L593.5,344.9z"/>
	<path d="M640.7,344.8c0-6.4,0-12.6,0-18.9c-3.2,0-6.3,0-9.3,0c0,6.3,0,12.6,0,18.9C634.5,344.8,637.6,344.8,640.7,344.8z"/>
	<path d="M631.4,344.9C631.4,344.9,631.4,344.8,631.4,344.9C631.4,344.8,631.3,344.8,631.4,344.9L631.4,344.9z"/>
	<path d="M631.4,325.9C631.4,325.9,631.4,325.9,631.4,325.9L631.4,325.9C631.3,325.9,631.4,325.9,631.4,325.9z"/>
	<path d="M555.5,344.9C555.5,344.9,555.5,344.9,555.5,344.9L555.5,344.9C555.5,344.8,555.5,344.9,555.5,344.9z"/>
	<path d="M546,344.9C546,344.9,546,344.9,546,344.9C546.1,344.9,546.1,344.8,546,344.9L546,344.9z"/>
	<path d="M546.1,354.2c3.2,0,6.3,0,9.4,0c0-3.2,0-6.3,0-9.3c-3.1,0-6.3,0-9.4,0C546.1,348,546.1,351.1,546.1,354.2z"/>
	<path d="M448.1,344.9l-0.2,9.4c1.1,0,2.2,0,3.3,0c0-3.1,0-6.3,0-9.4C450.2,344.9,449.1,344.9,448.1,344.9z"/>
	<path d="M451.2,344.8C451.2,344.8,451.2,344.9,451.2,344.8C451.2,344.9,451.3,344.9,451.2,344.8L451.2,344.8z"/>
	<path d="M451.3,354.3C451.3,354.3,451.2,354.3,451.3,354.3C451.2,354.3,451.2,354.3,451.3,354.3L451.3,354.3z"/>
	<path d="M631.4,278.5C631.4,278.5,631.3,278.4,631.4,278.5C631.3,278.5,631.3,278.5,631.4,278.5
		C631.4,278.5,631.4,278.5,631.4,278.5z"/>
	<path d="M622,278.5c0,3.2,0,6.3,0,9.3c3.2,0,6.2,0,9.3,0c0-3.2,0-6.3,0-9.3C628.2,278.5,625.1,278.5,622,278.5z"/>
	<path d="M489.2,377.3c3,0.9,6.2,1.8,9.4,2.6c0-2.2,0-4.4,0-6.6c-3.1,0-6.3,0-9.4,0C489.2,374.7,489.2,376,489.2,377.3z"/>
	<path d="M489.1,373.3C489.2,373.3,489.2,373.3,489.1,373.3C489.2,373.3,489.2,373.3,489.1,373.3L489.1,373.3z"/>
	<path d="M498.6,373.3C498.6,373.3,498.7,373.3,498.6,373.3L498.6,373.3C498.6,373.3,498.6,373.3,498.6,373.3z"/>
	<path d="M612.4,221.6C612.4,221.6,612.4,221.6,612.4,221.6C612.4,221.6,612.4,221.6,612.4,221.6L612.4,221.6z"/>
	<path d="M643.1,249.9l0-6.6c-0.9-2.3-1.6-4.6-2.4-6.8c0,1.4,0,2.7,0,4.1c-3.1,0-6.2,0-9.3,0c0,3.2,0,6.2,0,9.3
		C635.4,249.9,639.2,249.9,643.1,249.9z"/>
	<path d="M621.9,231.1C621.9,231.1,621.9,231.1,621.9,231.1C621.9,231,621.9,231,621.9,231.1L621.9,231.1z"/>
	<path d="M612.4,212.1c0,3.1,0,6.3,0.1,9.4c3.1,0,6.2,0,9.5,0c0,3.2,0,6.4,0,9.5c5.7,0,11.4,0,17.1,0c-1-3.2-1.9-6.3-2.7-9.4
		c-1.6,0-3.3,0-4.9,0c0-3.3,0-6.4,0-9.5c0,0,0,0,0,0c0,0,0,0,0,0C625,212.1,618.7,212.1,612.4,212.1
		C612.4,212.1,612.4,212.1,612.4,212.1C612.4,212.1,612.4,212.1,612.4,212.1z"/>
	<path d="M565,164.7c0,3.1,0,6.3,0,9.4c0,0,0,0,0,0c0,0,0,0,0,0c6.3,0,12.5,0,19,0c0,3.2,0,6.3,0,9.5c6.4,0,12.6,0,18.9,0
		c0,0,0,0,0,0c0,0,0,0,0,0c0-3.1,0-6.2,0-9.5c-3.3,0-6.4,0-9.4,0c0-3.2,0-6.2,0-9.4c3.2,0,6.2,0,9.3,0c0-3.3,0-6.3,0-9.3
		c-6.3,0-12.5,0-18.9,0c0,3.2,0,6.2,0,9.4C577.5,164.7,571.3,164.7,565,164.7C565,164.7,565,164.7,565,164.7
		C565,164.7,565,164.7,565,164.7z"/>
	<path d="M621.9,231.1C621.9,231.1,621.9,231.1,621.9,231.1L621.9,231.1C621.9,231.1,621.9,231.1,621.9,231.1z"/>
	<path d="M612.4,221.6C612.4,221.6,612.4,221.6,612.4,221.6L612.4,221.6C612.4,221.6,612.4,221.6,612.4,221.6z"/>
	<path d="M612.4,221.6c-3.1,0-6.3,0-9.4,0c0,0,0,0,0,0c0,0,0,0,0,0c0,6.3,0,12.6,0,18.9c0,0,0,0,0,0c0,0,0,0,0,0
		c6.3,0,12.6,0,18.9,0c0-3.3,0-6.4,0-9.5c-3.1,0-6.2,0-9.5,0C612.4,227.9,612.4,224.7,612.4,221.6z"/>
	<path d="M565,155.2c-3.1,0-6.2,0-9.5,0c0,3.3,0,6.4,0,9.5c0,0,0,0,0,0c0,0,0,0,0,0c3.1,0,6.3,0,9.4,0c0,0,0,0,0,0c0,0,0,0,0,0
		C565,161.5,565,158.4,565,155.2C565,155.2,565,155.2,565,155.2C565,155.2,565,155.2,565,155.2z"/>
	<path d="M517.7,306.9c0,9.6,0,19,0,28.5c3.2,0,6.3,0,9.3,0c0,0,0,0,0,0c0,0,0,0,0,0c0-9.5,0-18.9,0-28.4c0,0,0,0,0,0c0,0,0,0,0,0
		C523.9,306.9,520.8,306.9,517.7,306.9z"/>
	<path d="M489.1,306.8c6.5,0,12.7,0,18.9,0c0-3.2,0-6.2,0-9.4c-3.2,0-6.2,0-9.4,0c0-3.3,0-6.3,0-9.4c0,0,0,0,0,0c0,0,0,0,0,0
		c-3.1,0-6.3,0-9.4,0c0,0,0,0,0,0c0,0,0,0,0,0C489.1,294.3,489.1,300.5,489.1,306.8z"/>
	<path d="M546,316.4c3.3,0,6.4,0,9.5,0c0,0,0,0,0,0c0,0,0,0,0,0c0-3.1,0-6.2,0-9.4c3.3,0,6.4,0,9.4,0c0,0,0,0,0,0c0,0,0,0,0,0
		c0-3.1,0-6.3,0-9.4c0,0,0,0,0,0c0,0,0,0,0,0c-6.3,0-12.6,0-18.9,0c0,0,0,0,0,0c0,0,0,0,0,0C546,303.7,546,310,546,316.4z"/>
	<path d="M574.5,278.6c-3.3,0-6.4,0-9.5,0c0,6.4,0,12.6,0,18.8c0,0,0,0,0,0c0,0,0,0,0,0c3.1,0,6.3,0,9.4,0c0,0,0,0,0,0c0,0,0,0,0,0
		C574.5,291.1,574.5,284.9,574.5,278.6z"/>
	<path d="M574.5,212.1c-6.5,0-12.7,0-18.9,0c0-6.4,0-12.6,0-18.9c6.4,0,12.6,0,18.8,0c0,0,0,0,0,0c0,0,0,0,0,0c0-3.1,0-6.2,0-9.5
		c-3.3,0-6.4,0-9.5,0c0-3.3,0-6.3,0-9.4c0,0,0,0,0,0c0,0,0,0,0,0c-3.1,0-6.3,0-9.4,0c0,0,0,0,0,0c0,0,0,0,0,0c0,3.1,0,6.2,0,9.5
		c-3.3,0-6.3,0-9.5,0c0,6.4,0,12.6,0,18.8c-6.3,0-12.6,0-18.9,0c0-3.2,0-6.3,0-9.3c0,0,0,0,0,0c0,0,0,0,0,0c-3.1,0-6.3,0-9.4,0
		c0,0,0,0,0,0c0,0,0,0,0,0c0,3.1,0,6.2,0,9.5c-3.2,0-6.3,0-9.5,0c0,3.2,0,6.3,0,9.4c0,0,0,0,0,0c0,0,0,0,0,0c6.3,0,12.5,0,19,0
		c0,3.2,0,6.3,0,9.5c3.3,0,6.3,0,9.4,0c0,3.1,0,6.2,0,9.5c3.3,0,6.4,0,9.4,0c0,3.2,0,6.2,0,9.4c-3.2,0-6.2,0-9.4,0
		c0,3.3,0,6.3,0,9.4c0,0,0,0,0,0c0,0,0,0,0,0c6.3,0,12.6,0,18.9,0c0,0,0,0,0,0c0,0,0,0,0,0c0-6.3,0-12.6,0-18.9c3.3,0,6.4,0,9.4,0
		c0,0,0,0,0,0c0,0,0,0,0,0c0-3.1,0-6.2,0-9.4c3.3,0,6.4,0,9.4,0c0,0,0,0,0,0c0,0,0,0,0,0C574.5,218.5,574.5,215.3,574.5,212.1z
		 M545.9,221.6c-3.1,0-6.2,0-9.3,0c0-3.1,0-6.1,0-9.3c3.1,0,6.2,0,9.3,0C545.9,215.3,545.9,218.3,545.9,221.6z"/>
	<path d="M508.1,240.5C508.1,240.5,508.1,240.6,508.1,240.5C508.1,240.6,508.1,240.6,508.1,240.5
		C508.1,240.5,508.1,240.5,508.1,240.5z"/>
	<path d="M527,240.5c0-3.2,0-6.3,0-9.3c-6.3,0-12.5,0-18.8,0c0,3.2,0,6.3,0,9.3C514.4,240.5,520.7,240.5,527,240.5z"/>
	<path d="M508.1,212.1C508.1,212.1,508.1,212.1,508.1,212.1C508.1,212.1,508.1,212.1,508.1,212.1c-3.2,0-6.3,0-9.5,0
		c0,3.3,0,6.4,0,9.5c0,0,0,0,0,0c0,0,0,0,0,0c3.1,0,6.2,0,9.5,0C508.1,218.3,508.1,215.2,508.1,212.1z"/>
	<path d="M574.5,193.1C574.5,193.1,574.5,193.1,574.5,193.1C574.5,193.1,574.5,193.2,574.5,193.1c0,3.2,0,6.3,0,9.5
		c6.5,0,12.7,0,19,0c0,0,0,0,0,0c0,0,0,0,0,0c0-3.1,0-6.2,0-9.5C587,193.1,580.7,193.1,574.5,193.1z"/>
	<path d="M574.5,335.3C574.5,335.4,574.5,335.4,574.5,335.3C574.5,335.4,574.5,335.4,574.5,335.3c3.2,0,6.3,0,9.5,0
		c0-3.3,0-6.4,0-9.5c0,0,0,0,0,0c0,0,0,0,0,0c-3.1,0-6.2,0-9.5,0C574.5,329.2,574.5,332.3,574.5,335.3z"/>
	<path d="M451.3,269c0-3.1,0-6.2,0-9.5c-0.9,0-1.8,0-2.7,0l0,9.5C449.4,269,450.3,269,451.3,269C451.2,269,451.2,269,451.3,269
		C451.2,269,451.3,269,451.3,269z"/>
	<path d="M470.2,231c-3.1,0-6.2,0-9.4,0c0-3.3,0-6.4,0-9.4c0,0,0,0,0,0c0,0,0,0,0,0c-2,0-4,0-6,0c-1,3.9-2.2,7.9-3.4,11.9
		c0,2.3,0,4.6,0,6.9c6.4,0,12.7,0,19,0C470.2,237.2,470.2,234.2,470.2,231C470.2,231.1,470.2,231.1,470.2,231
		C470.2,231,470.2,231,470.2,231z"/>
	<path d="M451.3,278.5c3.1,0,6.3,0,9.4,0c0,0,0,0,0,0c0,0,0,0,0,0c0-3.1,0-6.2,0-9.5c-3.3,0-6.4,0-9.5,0c0,0,0,0,0,0c0,0,0,0,0,0
		C451.2,272.2,451.2,275.3,451.3,278.5C451.2,278.5,451.2,278.5,451.3,278.5C451.2,278.5,451.3,278.5,451.3,278.5z"/>
	<path d="M479.7,354.3C479.7,354.3,479.7,354.3,479.7,354.3C479.7,354.3,479.7,354.3,479.7,354.3c3.2,0,6.3,0,9.5,0c0,0,0,0,0,0
		c0,0,0,0,0,0c0-3.1,0-6.3,0-9.4c0,0,0,0,0,0c0,0,0,0,0,0c-3.1,0-6.2,0-9.5,0C479.7,348.1,479.7,351.2,479.7,354.3z"/>
	<path d="M460.7,212.1c0-3.1,0-6.2,0-9.5c3.2,0,6.3,0,9.5,0c0-3.2,0-6.3,0-9.4c0,0,0,0,0,0c0,0,0,0,0,0c-3.4,0-6.8,0-10.2,0
		c-0.7,6-1.7,12.4-3.1,19C458.1,212.1,459.4,212.1,460.7,212.1C460.7,212.1,460.7,212.1,460.7,212.1
		C460.7,212.1,460.7,212.1,460.7,212.1z"/>
	<path d="M461.3,174.3c-0.1,3-0.2,6.1-0.5,9.3c3.2,0,6.3,0,9.3,0c0-3.1,0-6.2,0-9.3C467.1,174.3,464.2,174.3,461.3,174.3z"/>
	<path d="M470.2,183.7C470.2,183.7,470.2,183.6,470.2,183.7C470.2,183.6,470.2,183.6,470.2,183.7
		C470.2,183.7,470.2,183.7,470.2,183.7z"/>
	<path d="M527.1,193.1C527.1,193.1,527.1,193.2,527.1,193.1C527.1,193.2,527.1,193.2,527.1,193.1c3.2,0,6.3,0,9.5,0
		c0-6.5,0-12.7,0-19c0,0,0,0,0,0c0,0,0,0,0,0c-3.1,0-6.3,0-9.4,0c0,0,0,0,0,0c0,0,0,0,0,0C527.1,180.5,527.1,186.8,527.1,193.1z"/>
</g>
</svg>
