<?xml version="1.0" encoding="utf-8"?>
<!-- Generator: Adobe Illustrator 25.3.0, SVG Export Plug-In . SVG Version: 6.00 Build 0)  -->
<svg version="1.1" id="Layer_1" xmlns="http://www.w3.org/2000/svg" xmlns:xlink="http://www.w3.org/1999/xlink" x="0px" y="0px"
	 viewBox="0 0 200 100" style="enable-background:new 0 0 200 100;" xml:space="preserve">
<style type="text/css">
	.st0{fill:#FFFFFF;}
</style>
<g>
	<polygon class="st0" points="66.4,34.5 50.8,34.5 50.8,19 35.5,19 35.5,34.5 19.9,34.5 19.9,50 35.4,50 35.4,81 50.9,81 50.9,50 
		66.4,50 66.4,57.8 54.9,57.8 54.9,73.3 66.4,73.3 66.4,81 81.9,81 81.9,34.5 	"/>
	<g>
		<polygon class="st0" points="93.3,38.8 88.4,38.8 88.4,34.5 103.5,34.5 103.5,38.8 98.6,38.8 98.6,53.8 93.3,53.8 		"/>
		<path class="st0" d="M120.3,54.3l-2.1-1.9c-1.1,1.3-2.7,1.6-5,1.6h-2.5c-4.5,0-6.7-1.5-6.7-4.9v-2.4c0-2.4,1-3.8,3.2-4.1
			c-1.1-0.9-1.6-1.9-1.6-3.3v-1c0-2.9,1.9-4,6-4h1.5c4.1,0,6,1.1,6,4v2.1h-4.2V39c0-0.7-0.4-1-1.4-1h-2c-0.9,0-1.4,0.3-1.4,1v0.6
			c0,0.3,0.2,0.7,0.4,0.9l6,5.3v-2.1h4.2v3.2c0,0.9-0.1,1.7-0.5,2.3l2.6,2.3L120.3,54.3z M109.5,44.7c-0.8,0.1-0.9,0.7-0.9,2v1.8
			c0,1.3,0.6,1.8,2.1,1.8h3c0.7,0,1.1-0.1,1.3-0.6L109.5,44.7z"/>
		<path class="st0" d="M129.2,34.5h8l5.4,19.3H137l-0.9-3.4H130l-0.9,3.4h-5.5L129.2,34.5z M135.3,46.5l-1.9-8h-0.3l-2,8H135.3z"/>
		<path class="st0" d="M89.1,59.8H93c2,0,2.7,0.5,2.7,2.1v1.4c0,1.7-0.7,2.1-2.7,2.1h-2.8V69h-1L89.1,59.8z M94.6,62
			c0-1-0.5-1.2-1.7-1.2h-2.8v3.7h2.8c1.1,0,1.7-0.1,1.7-1.2V62z"/>
		<path class="st0" d="M100.3,59.7h1.2c2.5,0,3.3,0.8,3.3,3.1v3.1c0,2.4-0.9,3.1-3.3,3.1h-1.2c-2.4,0-3.3-0.8-3.3-3.1v-3.1
			C97,60.5,97.9,59.7,100.3,59.7 M100.6,60.7c-0.9,0-1.5,0-2.1,0.5c-0.5,0.4-0.5,1-0.5,2v2.6c0,1,0,1.6,0.5,2s1.2,0.5,2.1,0.5h0.6
			c0.9,0,1.5,0,2.1-0.5c0.5-0.4,0.5-1,0.5-2v-2.6c0-1,0-1.6-0.5-2s-1.1-0.4-2.1-0.4L100.6,60.7L100.6,60.7z"/>
		<polygon class="st0" points="106.7,59.8 108.8,67.8 110.9,59.8 112.3,59.8 114.4,67.8 116.5,59.8 117.6,59.8 115.1,69 113.8,69 
			111.6,60.9 109.4,69 108.1,69 105.6,59.8 		"/>
		<polygon class="st0" points="119,59.8 125.5,59.8 125.5,60.8 120,60.8 120,63.8 125.3,63.8 125.3,64.7 120,64.7 120,68 125.5,68 
			125.5,69 119,69 		"/>
		<path class="st0" d="M127.1,59.8h4.1c2,0,2.7,0.5,2.7,2.1v1.4c0,1-0.4,1.5-1.2,1.6c0.9,0.2,1.2,0.7,1.2,1.8V69h-1.1v-1.9
			c0-1.3-0.3-1.7-1.5-1.7h-3.2V69h-1L127.1,59.8z M128.1,60.8v3.7h2.9c1.3,0,1.8-0.1,1.8-1.3v-1.1c0-1.2-0.6-1.3-1.8-1.3L128.1,60.8
			z"/>
		<rect x="135.9" y="59.8" class="st0" width="1" height="9.2"/>
		<polygon class="st0" points="139.1,59.8 140.7,59.8 145.6,68 145.6,59.8 146.6,59.8 146.6,69 145.1,69 140.1,60.8 140.1,69 
			139.1,69 		"/>
		<path class="st0" d="M151.8,59.7h1.2c2.2,0,3.3,0.7,3.3,2.4v0.4h-1v-0.1c0-1.4-0.7-1.7-2.3-1.7h-0.8c-0.9,0-1.5,0-2.1,0.5
			c-0.5,0.4-0.5,1-0.5,2v2.6c0,1,0,1.6,0.5,2s1.2,0.5,2.1,0.5h0.8c0.8,0,1.4,0,1.9-0.4c0.4-0.4,0.5-0.9,0.5-1.8v-0.6h-2.5v-0.9h3.6
			V66c0,2.4-0.9,3.1-3.3,3.1H152c-2.4,0-3.3-0.8-3.3-3.1v-3.1C148.5,60.5,149.4,59.7,151.8,59.7"/>
		<polygon class="st0" points="89.1,71.7 90.7,71.7 93.9,79.9 97,71.7 98.6,71.7 98.6,80.9 97.6,80.9 97.6,72.6 94.5,80.9 
			93.2,80.9 90.1,72.6 90.1,80.9 89.1,80.9 		"/>
		<path class="st0" d="M103.3,71.7h1.7l3.4,9.2h-1l-0.9-2.3h-4.6l-0.9,2.3h-1L103.3,71.7z M106.1,77.6l-1.8-4.9H104l-1.8,4.9H106.1z
			"/>
		<rect x="109.6" y="71.7" class="st0" width="1" height="9.2"/>
		<polygon class="st0" points="112.8,71.7 114.4,71.7 119.3,79.9 119.3,71.7 120.3,71.7 120.3,80.9 118.8,80.9 113.8,72.7 
			113.8,80.9 112.8,80.9 		"/>
		<polygon class="st0" points="121.3,71.7 128.1,71.7 128.1,72.7 125.2,72.7 125.2,80.9 124.2,80.9 124.2,72.7 121.3,72.7 		"/>
		<polygon class="st0" points="129.1,71.7 135.5,71.7 135.5,72.7 130.1,72.7 130.1,75.7 135.4,75.7 135.4,76.6 130.1,76.6 
			130.1,79.9 135.5,79.9 135.5,80.9 129.1,80.9 		"/>
		<polygon class="st0" points="137.2,71.7 138.7,71.7 143.7,79.9 143.7,71.7 144.7,71.7 144.7,80.9 143.1,80.9 138.2,72.7 
			138.2,80.9 137.2,80.9 		"/>
		<path class="st0" d="M149.3,71.7h1.7l3.4,9.2h-1l-0.9-2.3h-4.6l-0.9,2.3h-1L149.3,71.7z M152.1,77.6l-1.8-4.9H150l-1.8,4.9H152.1z
			"/>
		<polygon class="st0" points="155.6,71.7 157.2,71.7 162.1,79.9 162.1,71.7 163.1,71.7 163.1,80.9 161.6,80.9 156.6,72.7 
			156.6,80.9 155.6,80.9 		"/>
		<path class="st0" d="M167.8,71.6h1.1c2.2,0,3.1,0.6,3.1,2.6v0.4h-1v-0.3c0-1.5-0.5-1.8-2.1-1.8h-0.7c-0.8,0-1.4,0-1.8,0.4
			c-0.4,0.4-0.5,1-0.5,2v2.6c0,0.9,0,1.6,0.5,2s1,0.4,1.8,0.4h0.7c1.6,0,2.1-0.3,2.1-1.9c0-0.1,0-0.3,0-0.4h1v0.6
			c0,2.1-0.8,2.7-3.1,2.7h-1.1c-2.3,0-3-0.8-3-3.1v-3.1C164.8,72.4,165.5,71.6,167.8,71.6"/>
		<polygon class="st0" points="173.7,71.7 180.1,71.7 180.1,72.7 174.7,72.7 174.7,75.7 179.9,75.7 179.9,76.6 174.7,76.6 
			174.7,79.9 180.1,79.9 180.1,80.9 173.7,80.9 		"/>
	</g>
</g>
</svg>
