<?xml version="1.0" encoding="utf-8"?>
<!-- Generator: Adobe Illustrator 25.3.0, SVG Export Plug-In . SVG Version: 6.00 Build 0)  -->
<svg version="1.1" id="Layer_1" xmlns="http://www.w3.org/2000/svg" xmlns:xlink="http://www.w3.org/1999/xlink" x="0px" y="0px"
	 viewBox="0 0 200 100" style="enable-background:new 0 0 200 100;" xml:space="preserve">
<style type="text/css">
	.st0{fill-rule:evenodd;clip-rule:evenodd;fill:#FFFFFF;}
	.st1{fill-rule:evenodd;clip-rule:evenodd;fill:#F18A46;}
	.st2{fill-rule:evenodd;clip-rule:evenodd;fill:#FF8300;}
	.st3{fill-rule:evenodd;clip-rule:evenodd;fill:#B1B1B1;}
	.st4{fill:#FF8300;}
	.st5{fill:#FFFFFF;}
</style>
<g>
	<g>
		<polygon class="st0" points="60.1,68.1 68.6,42.6 57.8,26.8 		"/>
		<polygon class="st0" points="74,50.4 69.5,44.2 63.3,69 		"/>
		<polygon class="st1" points="57.8,26.8 68.6,42.6 69.5,39.2 57.3,19 		"/>
		<polygon class="st0" points="78.2,56.7 74.8,51.8 66.3,70.2 		"/>
		<polygon class="st0" points="90.3,74.6 74,81 93.4,79.4 		"/>
		<polygon class="st0" points="89.2,73.2 86.4,69 72.7,77.8 		"/>
		<polygon class="st0" points="85.5,67.5 82.6,63.5 71.1,75 		"/>
		<polygon class="st0" points="81.8,62 79.1,58.1 68.8,72.5 		"/>
		<polygon class="st1" points="69.5,44.2 74,50.4 75,48.4 70.4,40.8 		"/>
		<polygon class="st1" points="74.8,51.8 78.2,56.7 79.3,55.5 75.7,49.8 		"/>
		<polygon class="st1" points="79.1,58.1 81.8,62 82.6,61.2 80,56.7 		"/>
		<polygon class="st1" points="82.6,63.5 85.5,67.5 86.2,67 83.5,62.6 		"/>
		<polygon class="st1" points="86.4,69 89.2,73.2 89.7,72.9 87.1,68.6 		"/>
		<polygon class="st1" points="90.3,74.6 93.4,79.2 90.6,74.4 		"/>
		<polygon class="st2" points="53.6,68.1 45.1,42.6 55.9,26.8 		"/>
		<polygon class="st2" points="39.8,50.4 44.2,44.2 50.4,69 		"/>
		<polygon class="st3" points="55.9,26.8 45.1,42.6 44.2,39.2 56.2,19 		"/>
		<polygon class="st2" points="35.5,56.7 38.9,51.8 47.4,70.2 		"/>
		<polygon class="st2" points="23.5,74.6 39.8,81 20.1,79.4 		"/>
		<polygon class="st2" points="24.5,73.2 27.2,69 41,77.8 		"/>
		<polygon class="st2" points="28.3,67.5 31.1,63.5 42.6,75 		"/>
		<polygon class="st2" points="32,62 34.6,58.1 44.7,72.5 		"/>
		<polygon class="st3" points="44.2,44.2 39.8,50.4 38.7,48.4 43.3,40.8 		"/>
		<polygon class="st3" points="38.9,51.8 35.5,56.7 34.5,55.5 37.8,49.8 		"/>
		<polygon class="st3" points="34.6,58.1 32,62 31.1,61.2 33.7,56.7 		"/>
		<polygon class="st3" points="31.1,63.5 28.3,67.5 27.5,67 30.2,62.6 		"/>
		<polygon class="st3" points="27.2,69 24.5,73.2 24,72.9 26.7,68.6 		"/>
		<polygon class="st3" points="23.5,74.6 20.3,79.2 23.1,74.4 		"/>
		<path class="st4" d="M96.6,77.3h2.7v-6l0,0c0.9,1.2,2.5,1.9,4.1,1.9c3.5,0,5.1-3,5.1-6.2c0-3.5-1.8-6.4-5.7-6.4
			c-1.6,0-3,0.5-3.7,1.9l0,0V61h-2.5V77.3z M105.8,66.8c0,2.1-0.9,4.3-3.4,4.3c-2.1,0-3.4-1.8-3.4-4.3c0-2.5,1.1-4.3,3.4-4.3
			C104.6,62.6,105.8,64.7,105.8,66.8z"/>
		<path class="st4" d="M110.6,72.9h2.7v-5.7c0-2.7,1.4-4.1,3.2-4.1c0.4,0,0.7,0,1.1,0.2v-2.5c-0.2,0-0.4,0-1.1,0
			c-1.6,0-3.2,1.4-3.5,2.7l0,0v-2.3h-2.3L110.6,72.9L110.6,72.9z"/>
		<path class="st4" d="M123.9,73.2c3.9,0,6-2.7,6-6.4s-2.1-6.4-6-6.4s-6,2.7-6,6.4C117.9,70.5,120,73.2,123.9,73.2 M123.9,71.1
			c-2.3,0-3.4-2.1-3.4-4.3c0-2.2,1.1-4.3,3.4-4.3s3.4,2.1,3.4,4.3C127.3,69,126.2,71.1,123.9,71.1z"/>
		<path class="st4" d="M142.9,64.9c-0.2-3-2.7-4.3-5.3-4.3c-3.9,0-5.8,2.8-5.8,6.4c0,3.5,2.1,6.2,5.8,6.2c3,0,5-1.8,5.5-4.8h-2.7
			c-0.2,1.8-1.2,2.7-2.8,2.7c-2.3,0-3.2-2.1-3.2-4.1c0-3.7,1.9-4.4,3.4-4.4c1.4,0,2.5,0.7,2.7,2.3C140.4,64.9,142.9,64.9,142.9,64.9
			z"/>
		<path class="st4" d="M147.1,65.8c0-1.8,1.2-3.2,3.2-3.2c1.8,0,2.8,1.4,3,3.2H147.1z M155.8,67.5c0.4-3.5-1.9-6.9-5.7-6.9
			c-3.5,0-5.8,2.8-5.8,6.4c0,3.7,2.1,6.4,5.8,6.4c2.7,0,4.8-1.4,5.5-4.1h-2.5c-0.5,1.2-1.4,1.9-2.8,1.9c-2.1,0-3.2-1.6-3.2-3.5
			L155.8,67.5L155.8,67.5z"/>
		<path class="st4" d="M157.2,69c0,2.8,2.3,4.3,5.3,4.3c2.5,0,5.3-1.1,5.3-3.9c0-2.3-1.9-3-3.9-3.5c-1.9-0.4-3.9-0.7-3.9-1.9
			c0-1.1,1.4-1.2,2.1-1.2c1.2,0,2.1,0.4,2.5,1.6h2.8c-0.4-2.7-2.5-3.7-5-3.7c-2.1,0-5,0.9-5,3.4s1.9,3.2,3.9,3.5
			c2,0.3,3.9,0.5,3.9,1.9s-1.6,1.6-2.7,1.6c-1.4,0-2.5-0.5-2.7-2.1H157.2L157.2,69z"/>
		<path class="st4" d="M169.3,69c0,2.8,2.3,4.3,5.3,4.3c2.5,0,5.3-1.1,5.3-3.9c0-2.3-1.9-3-3.9-3.5c-1.9-0.4-3.9-0.7-3.9-1.9
			c0-1.1,1.4-1.2,2.1-1.2c1.2,0,2.1,0.4,2.5,1.6h2.8c-0.4-2.7-2.5-3.7-5-3.7c-2.1,0-5,0.9-5,3.4s1.9,3.2,3.9,3.5
			c1.9,0.4,3.9,0.5,3.9,1.9s-1.6,1.6-2.7,1.6c-1.4,0-2.5-0.5-2.7-2.1H169.3L169.3,69z"/>
		<path class="st5" d="M120.7,38.7c-0.5-5.5-5.1-8.7-10.8-8.7c-7.6,0-12.2,6-12.2,13.5S102.3,57,109.9,57c6.2,0,10.5-4.3,10.8-10.3
			h-4.4c-0.4,3.7-2.5,6.7-6.6,6.7c-5.5,0-7.8-4.8-7.8-9.7s2.3-9.7,7.8-9.7c3.7,0,5.7,2.1,6.4,5.1h4.6V38.7z"/>
		<path class="st5" d="M123.2,47.7c0.2,6.4,4.8,9.2,10.6,9.2c5.1,0,10.1-2.3,10.1-8c0-2.7-1.6-5.5-5-6.6c-1.2-0.4-6.9-1.9-7.4-1.9
			c-1.8-0.5-3-1.4-3-3.4c0-2.7,2.7-3.4,4.6-3.4c3,0,5.3,1.2,5.5,4.4h4.4c0-5.3-4.4-8.1-9.7-8.1c-4.6,0-9.4,2.5-9.4,7.4
			c0,2.7,1.2,5.3,5.7,6.6c3.5,0.9,5.8,1.4,7.6,2.1c1.1,0.4,2.1,1.2,2.1,3.2c0,1.9-1.4,3.9-5.5,3.9c-3.5,0-6.6-1.6-6.6-5.5
			C127.3,47.7,123.2,47.7,123.2,47.7z"/>
		<polygon class="st5" points="152.3,56.2 156.9,56.2 162,36.5 162.2,36.5 167.3,56.2 171.7,56.2 178.8,30.5 174.2,30.5 169.6,50.2 
			169.4,50.2 164.5,30.5 159.9,30.5 154.7,50.2 154.7,50.2 150.1,30.5 145.5,30.5 		"/>
	</g>
</g>
</svg>
