<?xml version="1.0" encoding="utf-8"?>
<!-- Generator: Adobe Illustrator 25.3.0, SVG Export Plug-In . SVG Version: 6.00 Build 0)  -->
<svg version="1.1" id="Layer_1" xmlns="http://www.w3.org/2000/svg" xmlns:xlink="http://www.w3.org/1999/xlink" x="0px" y="0px"
	 viewBox="0 0 750.2 400.1" style="enable-background:new 0 0 750.2 400.1;" xml:space="preserve">
<g>
	<path d="M596.7,168.2c-2.7,0.5-5,1.5-7.3,2.6l-12.8,2.6c0.3,0.1,0.6,0.3,0.9,0.4c1.3,0.1,2.7,0.4,4.2,0.9l-1.8,0.4
		c0.3,0.1,0.5,0.3,0.8,0.4l2.1-0.4c0.9,0.3,1.8,0.7,2.7,1.2l-2.4,0.5c0.3,0.1,0.6,0.3,0.8,0.4l2.4-0.5c0.8,0.4,1.5,0.8,2.2,1.3
		l-2.3,0.5c0.2,0.1,0.4,0.3,0.7,0.5l2.3-0.5c0.6,0.4,1.1,0.8,1.6,1.2l-2.5,0.5c0.2,0.2,0.4,0.3,0.5,0.5l2.5-0.5
		c0.6,0.5,1.2,1,1.7,1.4l-2.6,0.5c0.2,0.2,0.4,0.3,0.6,0.5l4.4-0.9c2,0,4.3,0.3,6.8,0.1c1.1-0.1,2.6-0.5,4.1-1.3v-11.6
		c-0.6-0.2-1.2-0.4-1.8-0.5l1.8-0.4v-0.6l-3.5,0.7C600.4,167.8,598,168,596.7,168.2z"/>
	<path d="M510.4,197.4c2.2,0.5,4.5,0.9,6.6,1.6c0.5,0.1,0.9,0.3,1.4,0.5c0.5,0.2,0.9,0.4,1.4,0.6c0.6,0.2,1.2,0.2,1.8,0.4
		c0.8,0.2,1.3,0.6,2.2,0.3c0.5-0.1,1.1-0.5,1.6-0.4c0.6,0.1,0.9,0.7,1.6,0.9c1,0.2,3.6-1.4,4.3-0.2c0.4,0.8-0.3,1.4-1.1,1.8
		c3,0.5,6,0.5,7.6-0.9c4.5-3.6,5.5-16.7,15.7-5.9c3.2,3.4,5.4,6.2,9,6c0.3-0.4,0.7-0.8,1-1.2c0.8-0.9,1.6-1.8,2.5-2.6
		c0.7-0.6,2.2-2.1,3.2-1.2c0.1,0.1,0.2,0.2,0.3,0.3c0.7-0.8,1.4-1.5,2.3-2c1.9-1.1,4.2,0,6.7,0.2c5.8,0.5,7.5-4,9.3-8.2
		c-1.3,0-2.7,0-4,0.3c-6.3,1-12.2-2-18.3-3.1c-0.2,0.6-0.3,1.2-0.5,1.9c-1.7,5.6-5.1,3.9-7.7,0.1c-0.5-0.8-1-1.4-1.5-2l-12.1,0.5
		c-2.8-2.9-3.6-4.7-3.2-5.8c-0.3,0-0.6,0-0.9,0c-4.6,0.2-7.4,4.9-10,8.3c-3.3,4-6.7,4-11.3,4C514.1,191.6,512.8,195,510.4,197.4z"/>
	<path d="M512.8,202c-0.1,0-0.1,0-0.2,0c-1.4-0.2-2.9-0.3-4.3-0.3c0.9,0.2,1.9,0.4,2.8,0.5C511.7,202.3,512.3,202.2,512.8,202z"/>
	<path d="M599.4,214.3L599.4,214.3l-4.8,1c-1,0.5-2.2,0.9-3.4,1.2l9.8-2c-0.1,0-0.2,0-0.4,0C600.2,214.5,599.8,214.4,599.4,214.3z"
		/>
	<path d="M587.2,216.8L513,231.9c-0.7-0.1-1.3,0-1.8,0.4l-7.3,1.5c-0.5,0.2-1,0.4-1.5,0.5c-0.7,0.2-1.6,0.5-2.5,0.9l10.7-2.2
		c-0.5,0.6-0.8,1.4-1.3,2l-6.6,1.3c-0.7-0.2-1.5-0.3-2.1-0.5c-2.3-0.4-4.5-0.1-6.4,1.4c-0.7,0.6-1.2,1.4-1.8,2.1c-1,1-3,1.8-2.3-0.5
		c0.3-0.9,2.1-2.4,0.5-2.9c-0.5-0.2-1.1-0.1-1.6-0.1v11.1h19.4c4.9-1,9.1-4.2,8.6-10.3c-0.1-0.9-0.3-1.8-0.7-2.6l17.6-3.6
		c0.7-0.3,1.4-0.6,2-1l-19.9,4c-0.2-0.3-0.4-0.5-0.6-0.7c-0.3-0.3-0.7-0.5-1.1-0.7l26.8-5.4c1.8-0.7,3.6-1.2,5.6-1.4
		c0.8-0.1,1.6-0.2,2.4-0.2l42-8.5C589.8,216.8,588.5,216.8,587.2,216.8z"/>
	<path d="M604.2,125.4c-1.8,0.2-5,1.3-2.8,3.5c0.4,0.4,0.8,0.7,1.3,1c1.1,0.7,2.2,1.1,3.4,1.3c-0.4-0.7-0.7-1.4-0.7-2
		c0.2,0.3,0.5,0.6,0.9,0.9v-4.8C605.6,125.3,604.9,125.3,604.2,125.4z"/>
	<path d="M604.3,144.1c-1.1-0.2-2.4-0.4-3.4-0.3c-2.8,0.3-6,1.5-8.2-0.5c-2-1.6-4.4-2.3-6.6-3.5c-0.4-0.2-0.8-0.5-1.2-0.8
		c-1-0.7-1.7-2.4-0.8-3.2c0.4-0.5,0.9-0.9,1.4-1.3c0.5-0.4,1.1-0.8,1.6-1.1c0.8-0.5,1.6-0.9,2.2-1.7c0.9-1.4,1.2-3.3,0.6-4.9
		c-0.1-0.2-0.2-0.4-0.3-0.7c-0.1,0.1-0.3,0.2-0.4,0.2c-2.5,1.5-3,4.1-5.2,5.9c-1,0.8-2,1.6-3.1,2.2c0,1.5,0.8,3-0.3,4.5
		c-0.5,0.7-1.1,1.4-1.6,1.9c-0.8,0.8-1.7,1.1-2.8,1.5c-0.4,0.2-0.9,0.3-1.3,0.5c-2.2,0.7-4.7,1.1-6.7,1.5c-3.2,0.6-6.3,1.1-9.6,1
		c-1,0-1.5-0.5-2.3-1.1c-0.9-0.7-2.2-0.7-3-1.6c-0.3-0.4-0.5-0.9-0.7-1.3c-0.2-0.4-0.5-0.7-0.9-1.1c-0.8-0.9-0.6-1.8,0.1-2.6
		c0.4-0.4,0.7-0.9,1.2-1.2c0.5-0.4,1.4-0.6,2-0.7c0.6-0.2,1.2-0.3,1.8-0.4c1.1-0.1,2.2-0.1,3.3-0.2c0.8-0.1,1.9-0.2,2.9-0.5
		c-0.5-0.2-1-0.5-1.6-1c-1.3-1-1.8-2.6-3.7-3c-2.6-0.6-3,2-5,2.5c-2.1,0.5-7.6-2.9-9-4.7c-0.7-0.9-0.8-1.7-0.5-2.4
		c-0.7,0.1-1.3,0.5-2,1.4c-1,1.2-0.7,2.9-1.7,4c-0.9,1.2-2.2,0.9-3.3,1.9c-2.2,2.1-3.2,4.9-5.7,4.4c-0.5-0.1-1-0.3-1.7-0.7
		c-3.4-4.6-7.3-7.8-13.1-7.3c-0.6-0.1-1.2-0.1-1.8-0.2c-1.8-0.2-3.6-0.4-5.4-0.7c-1.7-0.3-4.7-0.3-5.9-1.7c-0.5-0.6-0.5-1.6-0.9-2.2
		H489v13.2c1.1,0.2,2.3,0.1,3.3,0c0.5,0,1-0.1,1.4-0.1c1.6,0,3.1,0.2,4.6,0.5c1.2,0.2,2.3,0.4,3.4,0.5c2.4,0.1,4.8-0.3,7.1-0.7
		c1.6-0.3,3.2-0.5,4.8-0.6c1-0.1,6.2-0.1,7.8,1.4c0.4,0.3,0.5,0.7,0.5,1.1c0,1.4-0.2,2.6-0.6,3.5c0.8,0,1.4,0.2,2,0.6
		c0,0.1,0,0.3,0,0.5l0.5-0.1c0.5,0.4,1,0.9,1.5,1.3l0.1,0.1l-0.7,0.2c0.1,0.2,0.2,0.4,0.3,0.5l0.9-0.2c0.4,0.4,0.8,1,1.2,1.5
		l-0.4,0.1c0.2,0.2,0.3,0.3,0.5,0.5l0.3-0.1c0.5,0.5,0.9,1.1,1.4,1.4c0.2,0.1,0.3,0.3,0.5,0.4c0,0,0,0,0.1,0.1h0.2
		c0.3,0.1,0.6,0.2,0.9,0.1c0.5-0.1,0.9-0.3,1.1-0.5l10.2-2.1c0.7,0.4,1.4,0.7,2.1,0.9c0.4,0.1,0.9,0.2,1.3,0.2l-14.6,2.9
		c0.1,0.2,0.2,0.4,0.4,0.5l16.5-3.3c1.3,0.1,2.6,0.4,3.9,0.8l-17.8,3.6c1-0.1,2-0.4,3.1,0l15.8-3.2c0.9,0.3,1.7,0.7,2.5,1.3L539,155
		c0.2,0.2,0.4,0.3,0.5,0.5l16.1-3.3c0.6,0.5,1.3,1,1.9,1.3l-16.1,3.2c0.2,0.1,0.5,0.2,0.7,0.2s0.3,0.1,0.5,0.1l7.6-1.5
		c0.5-0.2,1-0.4,1.5-0.3l6.7-1.3c1.1,0.5,2.3,0.8,3.6,0.9l-8.4,1.7c0.1,0.2,0.3,0.4,0.3,0.5l9.6-1.9c-0.4,0-0.8-0.1-1.2-0.2
		c1.9,0.2,4,0.1,5.9-0.2c3.1-0.3,5.9,0.5,8.4-2.3c1.8-2,2-1.4,2,1.3c-0.1,6,3.8,1.9,6,0c3.2-2.7,6.7-1.7,10.1,0l-2.2,0.4
		c-0.2,0.2-0.4,0.5-0.6,0.7l3.6-0.7c0.8,0.4,1.6,0.8,2.3,1.2l-7.6,1.5c-0.1,0.2-0.3,0.4-0.5,0.7l8.8-1.8c0.1,0,0.1,0.1,0.2,0.1
		c0.9,0.5,1.8,0.8,2.6,1.1l-13,2.6c-0.2,0.2-0.3,0.5-0.5,0.7l14.7-3c0.3,0.1,0.6,0.2,0.9,0.2c1,0.2,1.9,0.3,2.9,0.4v-11.7
		C605.8,145.2,605.5,144.3,604.3,144.1z"/>
	<path d="M545,172.7l-6.2,1.3c0.3,0.1,0.6,0.1,0.9,0.1c0.4,0,0.7,0,1.1,0.1l65.5-13.2v-0.6l-60.7,12.2
		C545.4,172.6,545.2,172.7,545,172.7z"/>
	<path d="M585.1,162.9l21.2-4.3V158l-20.1,4.1C585.8,162.4,585.5,162.7,585.1,162.9z"/>
	<path d="M602.1,221.1c-0.4,0.1-0.8,0.1-1.3,0.1c-1.3,0.1-2.4-0.2-3.8,0.2c-1.2,0.4-2.4,1.1-3.5,1.8c-1.1,0.8-2,1.7-3.1,2.5
		c-0.9,0.6-1.6,1.7-2.6,2.2c-0.5,0.3-1,0.4-1.5,0.7c-0.8,0.6-1.2,1.4-1.6,2.2c-0.4,0.8-1.5,1.8-1.4,2.7c0.1,1.6,2.2,1.2,3.1,1.1
		c1.1-0.2,2.2-0.3,3.3-0.4c1-0.1,1.9-0.4,2.9-0.6c3.4-0.5,8.8-0.4,13.7,0.7v-15c-0.2,0.1-0.3,0.2-0.5,0.3
		C604.6,220.5,603.4,220.9,602.1,221.1z"/>
	<path d="M493.7,161.9c0.2,0.1,0.5,0.1,0.7,0.2l9.3-1.9c0.2-0.2,0.4-0.4,0.5-0.7l-11.1,2.2C493.3,161.8,493.5,161.8,493.7,161.9z"/>
	<path d="M513.2,153.2l-24.2,4.9v0.6l23.4-4.7C512.6,153.7,512.9,153.4,513.2,153.2z"/>
	<path d="M506.1,157.6c0.5-0.4,0.9-0.7,1.4-0.9l-18.5,3.8v0.1c0.3,0.1,0.7,0.2,1,0.3L506.1,157.6z"/>
	<path d="M515.1,148.1l-26.1,5.3v0.6l26-5.3C515,148.5,515,148.3,515.1,148.1z"/>
	<path d="M514.6,150.6l-25.6,5.2v0.6l25.5-5.2C514.4,151,514.5,150.8,514.6,150.6z"/>
	<path d="M514.2,143.7l-25.2,5v0.6l25.5-5.1C514.4,144,514.3,143.8,514.2,143.7z"/>
	<path d="M515,145.8l-26,5.3v0.6l26.1-5.3C515.1,146.2,515.1,146,515,145.8z"/>
	<path d="M497.5,142.5l-8.5,1.7v0.6l9.3-1.9C498,142.8,497.7,142.6,497.5,142.5z"/>
	<path d="M511.5,142.1c-0.1-0.1-0.4-0.1-0.6-0.1l-21.9,4.4v0.6l23.4-4.7C512.1,142.2,511.9,142.1,511.5,142.1z"/>
	<path d="M494.4,140.9c-0.1,0-0.3,0-0.4,0l-5,1v0.6l6.4-1.3C495.1,141.1,494.7,141,494.4,140.9z"/>
	<path d="M569.4,225.8l11.4-2.3c0.2-0.3,0.5-0.6,0.9-0.8l-12.8,2.6C569.1,225.5,569.2,225.6,569.4,225.8z"/>
	<path d="M601.4,218.7l-2.1,0.4c0.1,0.2,0.1,0.4,0.2,0.5l1.8-0.4C601.3,219.1,601.4,218.9,601.4,218.7z"/>
	<path d="M572.4,227.3c0,0,0,0,0.1,0c0.2,0,0.4,0,0.7,0l5.6-1.1c0.2-0.2,0.3-0.4,0.5-0.7l-7.9,1.6
		C571.7,227.2,572,227.3,572.4,227.3z"/>
	<path d="M560.9,224.8c0.2-0.1,0.4-0.2,0.7-0.3l-1,0.2C560.7,224.7,560.8,224.8,560.9,224.8z"/>
	<path d="M567.4,223.8l22.8-4.5c0.3-0.2,0.7-0.3,1.1-0.4c0.3,0,0.5,0,0.8,0l3.4-0.7c0.3-0.3,0.6-0.5,1-0.5c0.1,0,0.4,0.1,0.8,0.2
		l7.8-1.6c0.4-0.3,0.7-0.5,1.2-0.7v-0.2l-39.6,8C566.9,223.5,567.1,223.6,567.4,223.8z"/>
	<path d="M553.2,219.8l25.1-5.1c-0.4-0.1-0.8-0.2-1.2-0.4l-22.4,4.5C554.3,219.3,553.7,219.6,553.2,219.8z"/>
	<path d="M512.7,228l36.8-7.4c-0.7,0-1.4-0.1-2.1-0.2l-33.8,6.8C513.3,227.5,513,227.8,512.7,228z"/>
	<path d="M581.3,215.9l-71.6,14.4c-0.4,0.4-0.7,0.6-1.1,0.9l73.8-14.9C582,216.2,581.7,216.1,581.3,215.9z"/>
	<path d="M521.7,221c-0.5,0.3-0.9,0.6-1.4,0.9l17.8-3.6c-0.5-0.1-1.1-0.2-1.6-0.3L521.7,221z"/>
	<path d="M557.5,216.1c-0.2,0.2-0.4,0.5-0.6,0.7l16.1-3.3c-0.6-0.1-1.2-0.2-1.8-0.2L557.5,216.1z"/>
	<path d="M516.2,225l27.2-5.5c-0.4-0.1-0.8-0.2-1.2-0.3l-25,5C516.8,224.5,516.5,224.8,516.2,225z"/>
	<path d="M518.7,181.8l-26.7,5.4c0.2,0,0.4,0,0.6,0c0.7,0,1.4,0,2.2,0l9.9-2c1.2-0.7,2.7-1,4.1-0.8l9.4-1.9
		C518.4,182.3,518.5,182.1,518.7,181.8z"/>
	<path d="M514.9,184.9l-3.1,0.6c0.3,0.1,0.6,0.2,0.9,0.2C513.5,185.7,514.2,185.3,514.9,184.9z"/>
	<path d="M519.6,177l-30.6,6.2v0.6l31.4-6.4C520.2,177.2,520,177.1,519.6,177z"/>
	<path d="M520.2,179.2l-31.2,6.3v0.6l30.8-6.2C519.9,179.6,520.1,179.4,520.2,179.2z"/>
	<path d="M490.3,178.6c-0.1-0.1-0.2-0.2-0.3-0.2l-1,0.2v0.5l1.6-0.3C490.4,178.8,490.4,178.7,490.3,178.6z"/>
	<path d="M502.6,176.5l7.7-1.5c-0.1-0.2-0.4-0.3-0.7-0.4l-5.5,1.1c-0.3,0-0.5,0.1-0.6,0.2C503.2,176.1,502.9,176.3,502.6,176.5z"/>
	<path d="M492,180.3l-3,0.6v0.6l3.6-0.7C492.5,180.7,492.2,180.5,492,180.3z"/>
	<path d="M510.9,176.6l-12.8,2.6c-0.4,0.2-0.9,0.6-1.4,0.9l14.6-3C511.1,176.9,511,176.8,510.9,176.6z"/>
	<path d="M599.4,187.4l6.9-1.4v-0.6l-7.9,1.6C598.7,187.1,599.1,187.3,599.4,187.4z"/>
	<path d="M593.7,184.4l12.6-2.6v-0.6l-13.2,2.7C593.3,184.1,593.5,184.2,593.7,184.4z"/>
	<path d="M596.6,186l9.7-1.9v-0.6l-10.5,2.1C596.1,185.8,596.3,185.9,596.6,186z"/>
	<path d="M569.4,170.7l36.9-7.5v-0.5l-38.4,7.7C568.4,170.5,568.9,170.6,569.4,170.7z"/>
	<path d="M552.9,173.5l-9,1.8c1.4,0.1,3.4-0.4,4.5-0.6C550,174.4,551.5,173.9,552.9,173.5z"/>
	<path d="M573.8,172.2l32.5-6.6V165l-33.5,6.8C573.1,171.9,573.5,172,573.8,172.2z"/>
	<path d="M534.4,173.1l6.3-1.3c-0.3-0.1-0.6-0.3-0.9-0.4l-5.9,1.2C533.9,172.9,534.1,173,534.4,173.1z"/>
	<path d="M583.6,163.2c-0.4,0-0.9-0.1-1.3-0.3l-29.7,6c-0.1,0.2-0.2,0.4-0.4,0.7L583.6,163.2z"/>
	<path d="M547.8,165.3c0.4,0.1,0.8,0.2,1.2,0.4l29-5.9c-0.2-0.2-0.4-0.3-0.7-0.5L547.8,165.3z"/>
	<path d="M551.6,166.9c0.2,0.2,0.4,0.3,0.6,0.5l28.2-5.7c-0.2-0.2-0.4-0.3-0.6-0.5L551.6,166.9z"/>
	<path d="M528.6,165.1l41.1-8.3c-0.4-0.1-0.7-0.2-1.1-0.4l-40.3,8.1C528.4,164.8,528.5,164.9,528.6,165.1z"/>
	<path d="M541.1,164.4c0.7,0,1.5,0,2.4,0.1l30.8-6.2c-0.4-0.1-0.8-0.2-1.2-0.4L541.1,164.4z"/>
	<path d="M530.8,166.4c0.5,0.1,1,0.2,1.5,0.3l4.9-1c0.5-0.3,1.1-0.6,1.7-0.9L530.8,166.4z"/>
	<path d="M529.8,159.6l3.6-0.7C532,158.7,530.7,158.7,529.8,159.6z"/>
	<path d="M528.4,162c0,0.1,0,0.1-0.1,0.2l12.3-2.5c-0.7-0.1-1.4-0.1-2-0.2l-10,2C528.5,161.7,528.5,161.9,528.4,162z"/>
</g>
</svg>
