<?xml version="1.0" encoding="utf-8"?>
<!-- Generator: Adobe Illustrator 25.3.0, SVG Export Plug-In . SVG Version: 6.00 Build 0)  -->
<svg version="1.1" id="Layer_1" xmlns="http://www.w3.org/2000/svg" xmlns:xlink="http://www.w3.org/1999/xlink" x="0px" y="0px"
	 viewBox="0 0 750.2 400.1" style="enable-background:new 0 0 750.2 400.1;" xml:space="preserve">
<g>
	<path d="M170.8,234.2l-2.5,0.5c-0.6-0.5-1.2-1-1.7-1.4l2.6-0.5c-0.6,0-0.8-0.2-1-0.3l-4.4,0.9c-1.2,0-2.5-0.1-3.9-0.1v2.9h10.2
		c-0.5-0.3-0.9-0.7-1.3-1l2.5-0.5C171.1,234.5,170.9,234.4,170.8,234.2z"/>
	<path d="M171.3,236.2h1.8c-0.1-0.1-0.2-0.2-0.4-0.3L171.3,236.2z"/>
	<path d="M241.1,215.4c-0.5-0.2-0.9-0.4-1.4-0.6c-0.6-0.2-1.2-0.2-1.8-0.4c-0.8-0.2-1.3-0.6-2.2-0.3c-0.5,0.1-1.1,0.5-1.6,0.4
		c-0.6-0.1-0.9-0.7-1.6-0.9c-1-0.2-3.6,1.4-4.3,0.2c-0.4-0.8,0.3-1.4,1.1-1.8c-3-0.5-6-0.5-7.6,0.9c-4.5,3.6-5.5,16.7-15.7,5.9
		c-3.2-3.4-5.4-6.2-9-6c-0.3,0.4-0.7,0.8-1,1.2c-0.8,0.9-1.6,1.8-2.5,2.6c-0.7,0.6-2.2,2.1-3.2,1.2c-0.1-0.1-0.2-0.2-0.3-0.3
		c-0.7,0.8-1.4,1.5-2.3,2c-1.9,1.1-4.2,0-6.7-0.2c-5.9-0.3-7.5,4.2-9.3,8.4c1.3,0,2.7,0,4-0.3c6.3-1,12.2,2,18.3,3.1
		c0.2-0.6,0.3-1.2,0.5-1.9c1.7-5.6,5.1-3.9,7.7-0.1c0.5,0.8,1,1.4,1.5,2l12.1-0.5c2.8,2.9,3.6,4.7,3.2,5.8c0.3,0,0.6,0,0.9,0
		c4.6-0.2,7.4-4.9,10-8.3c3.3-4.3,6.7-4.2,11.3-4.2c1.3,0,2.3-0.3,3.1-0.8v-6.1c-0.6-0.2-1.2-0.3-1.8-0.5
		C242,215.8,241.6,215.6,241.1,215.4z"/>
	<path d="M162.8,193.6c1.2-0.4,2.4-1.1,3.5-1.8c1.1-0.8,2-1.7,3.1-2.5c0.9-0.6,1.6-1.7,2.6-2.2c0.5-0.3,1-0.4,1.5-0.7
		c0.8-0.6,1.2-1.4,1.6-2.2c0.4-0.8,1.5-1.8,1.4-2.7c-0.1-1.6-2.2-1.2-3.1-1.1c-1.1,0.2-2.2,0.3-3.3,0.4c-1,0.1-1.9,0.4-2.9,0.6
		c-1.9,0.3-4.5,0.4-7.3,0.2v12.2C160.8,193.8,161.7,193.9,162.8,193.6z"/>
	<path d="M207.1,161.5c0.8-0.2,1.5-0.5,2.2-0.9h-10.9C201.3,161.4,204.2,162.3,207.1,161.5z"/>
	<path d="M243.9,160.6l-4.4,0.9c0.3,0.1,0.6,0.3,1,0.4l3.8-0.8v-0.5H243.9z"/>
	<path d="M243.9,163.5l0.4-0.1v-0.6l-1.3,0.3C243.3,163.2,243.6,163.4,243.9,163.5z"/>
	<path d="M190.2,189.2l-11.4,2.3c-0.2,0.3-0.6,0.5-0.9,0.8l12.8-2.6C190.5,189.5,190.4,189.4,190.2,189.2z"/>
	<path d="M160.1,195.3l-0.2,0v0.5l0.4-0.1C160.2,195.6,160.2,195.4,160.1,195.3z"/>
	<path d="M187.2,187.6L187.2,187.6c-0.3,0-0.5,0-0.8,0l-5.6,1.1c-0.2,0.2-0.3,0.4-0.5,0.7l7.9-1.6
		C187.9,187.7,187.6,187.6,187.2,187.6z"/>
	<path d="M160.6,200.4l4.7-1c1-0.5,2.2-0.9,3.4-1.2l-8.8,1.8v0.3c0.2,0,0.4,0.1,0.6,0.1H160.6z"/>
	<path d="M213.2,189.5c-0.8,0.1-1.6,0.2-2.4,0.2l-42,8.5c1.3-0.2,2.6-0.3,3.9-0.3l71.6-14.4V183l-25.5,5.1
		C217,188.8,215.2,189.3,213.2,189.5z"/>
	<path d="M242.9,178.1c0.1,0.9,0.3,1.8,0.7,2.6l-17.6,3.6c-0.7,0.3-1.4,0.6-2,1l19.9-4c0.1,0.2,0.3,0.4,0.4,0.5v-9.6
		C243.3,173.7,242.7,175.7,242.9,178.1z"/>
	<path d="M198.7,190.2c-0.2,0-0.5,0.1-0.7,0.3l1-0.2C198.9,190.3,198.8,190.2,198.7,190.2z"/>
	<path d="M192.2,191.1l-22.8,4.5c-0.3,0.2-0.7,0.3-1.1,0.4c-0.3,0-0.5,0-0.8,0l-3.4,0.7c-0.3,0.3-0.6,0.5-1,0.5
		c-0.1,0-0.4-0.1-0.8-0.2l-2.4,0.5v0.7l33-6.6C192.7,191.4,192.5,191.3,192.2,191.1z"/>
	<path d="M206.4,195.1l-25.1,5.1c0.4,0.1,0.8,0.2,1.2,0.4l22.4-4.5C205.3,195.7,205.8,195.4,206.4,195.1z"/>
	<path d="M212.2,194.5l32.1-6.5v-0.6l-34.2,6.9C210.8,194.3,211.5,194.4,212.2,194.5z"/>
	<path d="M178.2,199l66.1-13.3v-0.6l-67.1,13.5C177.6,198.8,177.9,198.9,178.2,199z"/>
	<path d="M237.9,194c0.5-0.3,0.9-0.6,1.4-0.9l-17.8,3.6c0.5,0.1,1.1,0.2,1.6,0.3L237.9,194z"/>
	<path d="M202.1,198.9c0.2-0.2,0.4-0.5,0.6-0.7l-16.1,3.3c0.6,0.1,1.2,0.2,1.8,0.2L202.1,198.9z"/>
	<path d="M243.4,189.9l-27.2,5.5c0.4,0.1,0.8,0.2,1.2,0.3l25-5C242.8,190.5,243.1,190.2,243.4,189.9z"/>
	<path d="M241,233.1l3.3-0.7v-0.6l-2.8,0.6C241.3,232.6,241.2,232.8,241,233.1z"/>
	<path d="M239.4,235.8l4.9-1v-0.6l-4.5,0.9C239.7,235.3,239.5,235.5,239.4,235.8z"/>
	<path d="M160.2,227.6l-0.3,0.1v0.6l1.3-0.3C160.9,227.9,160.5,227.7,160.2,227.6z"/>
	<path d="M165.9,230.6l-6,1.2v0.6l6.6-1.3C166.3,230.9,166.1,230.8,165.9,230.6z"/>
	<path d="M163,228.9l-3.1,0.6v0.6l3.9-0.8C163.5,229.1,163.3,229,163,228.9z"/>
</g>
</svg>
