<?xml version="1.0" encoding="utf-8"?>
<!-- Generator: Adobe Illustrator 25.3.0, SVG Export Plug-In . SVG Version: 6.00 Build 0)  -->
<svg version="1.1" id="Layer_1" xmlns="http://www.w3.org/2000/svg" xmlns:xlink="http://www.w3.org/1999/xlink" x="0px" y="0px"
	 viewBox="0 0 750.2 400.1" style="enable-background:new 0 0 750.2 400.1;" xml:space="preserve">
<g>
	<path d="M206,218.8c-3.2-3.4-5.4-6.2-9-6c-0.3,0.4-0.7,0.8-1,1.2c-0.8,0.9-1.6,1.8-2.5,2.6c-0.7,0.6-2.2,2.1-3.2,1.2
		c-0.1-0.1-0.2-0.2-0.3-0.3c-0.7,0.8-1.4,1.5-2.3,2c-1.9,1.1-4.2,0-6.7-0.2c-3.2-0.2-5.1,1.1-6.5,2.9h35.6
		C208.9,221.5,207.6,220.5,206,218.8z"/>
	<path d="M241.1,215.4c-0.5-0.2-0.9-0.4-1.4-0.6c-0.6-0.2-1.2-0.2-1.8-0.4c-0.8-0.2-1.3-0.6-2.2-0.3c-0.5,0.1-1.1,0.5-1.6,0.4
		c-0.6-0.1-0.9-0.7-1.6-0.9c-1-0.2-3.6,1.4-4.3,0.2c-0.4-0.8,0.3-1.4,1.1-1.8c-3-0.5-6-0.5-7.6,0.9c-2.6,2.1-4,7.3-6.7,9.3h29.8
		c1.7-1.2,2.8-3.2,4.3-4.7c-2.2-0.5-4.5-0.9-6.6-1.6C242,215.8,241.6,215.6,241.1,215.4z"/>
	<path d="M246.8,212.9c0.1,0,0.1,0,0.2,0c1.4,0.2,2.9,0.3,4.3,0.2c-0.9-0.2-1.9-0.4-2.8-0.5C247.8,212.7,247.3,212.8,246.8,212.9z"
		/>
	<path d="M151.9,196.1c0.7,0.1,1.5-0.2,2.1-0.7c1.2-0.9,2.4-1.3,3.7-1.5c0.4-0.1,0.8-0.1,1.3-0.1c1.3-0.1,2.4,0.2,3.8-0.2
		c1.2-0.4,2.4-1.1,3.5-1.8c1.1-0.8,2-1.7,3.1-2.5c0.9-0.6,1.6-1.7,2.6-2.2c0.5-0.3,1-0.4,1.5-0.7c0.8-0.6,1.2-1.4,1.6-2.2
		c0.4-0.8,1.5-1.8,1.4-2.7c-0.1-1.6-2.2-1.2-3.1-1.1c-1.1,0.2-2.2,0.3-3.3,0.4c-1,0.1-1.9,0.4-2.9,0.6c-6,0.9-18.4,0-22.6-5.2
		c-2.6-2.9-2.6-6.9-6.8-8.4c-0.5-0.2-1-0.3-1.4-0.3c-2-0.3-4.8,0.6-6.5,1.8c-1.2,0.8-2.9,1.1-4.3,1.2v15.9c3.3-1.8,6.6-3.9,10.3-3.6
		c3.1,0.3,6.9,2.6,5.5,6.6c-0.6,1.8-1.9,2.5-3.6,2.8c-2.1,0.4-3.9,0.7-5.9,1.5c-0.1,0-0.2,0.1-0.3,0.1c-1.2,0.5-1.5,0.8-1.5,1.4v0.1
		c0,0.1,0,0.2,0,0.3c0.1,0.4,0.2,1,0.2,1.8c-1,0.4-1.9,1.6-2.9,1.8c-0.6,0.2-1.2,0-1.8-0.1v3.2c1.3-0.3,2.9-1.3,3.8-1.5
		c1.5-0.5,3-0.6,4.4-1.2c2-0.9,3.7-2.6,5.6-3.7c0.9-0.6,1.9-0.9,2.7-1.6c0.8-0.7,1.2-2.1,2.5-2.2c2.7-0.2,3.5,3.9,4.5,4.1
		c0.5,0.1,1,0.1,1.4,0.1C151,196.3,151.4,196.2,151.9,196.1z"/>
	<path d="M277.5,214.1c-1.2,0-2.6,1.3-3.6,2.3c1,1.8,1.1,3.9,3.1,5.8h1.7v-8c-0.1,0-0.1,0-0.2,0
		C278.2,214.1,277.9,214.1,277.5,214.1z"/>
	<path d="M190.2,189.2l-11.4,2.3c-0.2,0.3-0.6,0.5-0.9,0.8l12.8-2.6C190.5,189.5,190.4,189.4,190.2,189.2z"/>
	<path d="M158.2,196.2l2.1-0.4c-0.1-0.2-0.1-0.4-0.2-0.5l-1.8,0.3C158.3,195.8,158.2,196,158.2,196.2z"/>
	<path d="M187.2,187.6L187.2,187.6c-0.3,0-0.5,0-0.8,0l-5.6,1.1c-0.2,0.2-0.3,0.4-0.5,0.7l7.9-1.6
		C187.9,187.7,187.6,187.6,187.2,187.6z"/>
	<path d="M159.3,200.2c0.4,0,0.8,0.1,1.2,0.2h0.1l4.7-1c1-0.5,2.2-0.9,3.4-1.2l-9.8,2C159,200.2,159.1,200.2,159.3,200.2z"/>
	<path d="M266.3,165.5c-2,1-4.2,1.9-6.7,2c-0.8,0-1.5,0.1-2.3,0.1c-6.6-0.9-15.1,2-14.4,10.5c0.1,0.9,0.3,1.8,0.7,2.6l-17.6,3.6
		c-0.7,0.3-1.4,0.6-2,1l19.9-4c0.2,0.3,0.4,0.5,0.6,0.7c0.3,0.3,0.7,0.5,1.1,0.7l-26.8,5.4c-1.8,0.7-3.6,1.2-5.6,1.4
		c-0.8,0.1-1.6,0.2-2.4,0.2l-42,8.5c1.3-0.2,2.6-0.3,3.9-0.3l73.9-14.9c0.7,0.1,1.3,0,1.8-0.4l7.3-1.5c0.5-0.2,1-0.4,1.5-0.5
		c0.7-0.2,1.6-0.5,2.5-0.9l-10.7,2.2c0.5-0.6,0.8-1.4,1.3-2l6.6-1.3c0.7,0.2,1.5,0.3,2.1,0.5c2.3,0.4,4.5,0.1,6.4-1.4
		c0.7-0.6,1.2-1.4,1.8-2.1c1-1,3-1.8,2.3,0.5c-0.3,0.9-2.1,2.4-0.5,2.9c1.5,0.5,3.2-0.6,4.7-0.6c2.2,0,0.6,1.6,1.8,2.3
		c0.5,0.3,1.3-0.5,1.7-0.8c0.2-0.1,0.9-0.9,1.1-0.4c0.1,0.2-0.5,0.7-0.6,0.9c-0.3,0.3-0.5,0.6-0.6,1.1c-0.2,0.9-0.1,1.9-0.3,2.8
		c-0.2,1.4-0.9,3.1-0.6,4.5c1,0,1.8-1.4,2.5-2.8v-20.5H266.3z"/>
	<path d="M198.7,190.2c-0.2,0-0.5,0.1-0.7,0.3l1-0.2C198.9,190.3,198.8,190.2,198.7,190.2z"/>
	<path d="M192.2,191.1l-22.8,4.5c-0.3,0.2-0.7,0.3-1.1,0.4c-0.3,0-0.5,0-0.8,0l-3.4,0.7c-0.3,0.3-0.6,0.5-1,0.5
		c-0.1,0-0.4-0.1-0.8-0.2l-7.8,1.6c-0.4,0.3-0.8,0.5-1.3,0.7c-0.5,0.1-1.2,0-1.8,0l-1.5,0.3c-0.4,0.3-0.6,0.6-0.7,0.7l43.7-8.8
		C192.7,191.4,192.5,191.3,192.2,191.1z"/>
	<path d="M206.4,195.1l-25.1,5.1c0.4,0.1,0.8,0.2,1.2,0.4l22.4-4.5C205.3,195.7,205.8,195.4,206.4,195.1z"/>
	<path d="M246.9,186.9l-36.8,7.4c0.7,0,1.4,0.1,2.1,0.2l33.8-6.8C246.3,187.5,246.6,187.2,246.9,186.9z"/>
	<path d="M251,183.8l-73.8,14.9c0.4,0.1,0.7,0.2,1,0.3l71.6-14.4C250.2,184.3,250.6,184,251,183.8z"/>
	<path d="M237.9,194c0.5-0.3,0.9-0.6,1.4-0.9l-17.8,3.6c0.5,0.1,1.1,0.2,1.6,0.3L237.9,194z"/>
	<path d="M202.1,198.9c0.2-0.2,0.4-0.5,0.6-0.7l-16.1,3.3c0.6,0.1,1.2,0.2,1.8,0.2L202.1,198.9z"/>
	<path d="M243.4,189.9l-27.2,5.5c0.4,0.1,0.8,0.2,1.2,0.3l25-5C242.8,190.5,243.1,190.2,243.4,189.9z"/>
	<path d="M127.5,215.6l-1.9,0.4v0.6l3-0.6C128.2,215.9,127.9,215.7,127.5,215.6z"/>
	<path d="M134.1,219l-8.5,1.7v0.6l9.1-1.8C134.5,219.3,134.3,219.2,134.1,219z"/>
	<path d="M131.2,217.3l-5.6,1.1v0.6l6.4-1.3C131.7,217.5,131.5,217.4,131.2,217.3z"/>
	<path d="M129.9,222.2h2.9l3.9-0.8c-0.1-0.2-0.3-0.3-0.4-0.5L129.9,222.2z"/>
</g>
</svg>
