<?xml version="1.0" encoding="utf-8"?>
<!-- Generator: Adobe Illustrator 25.3.0, SVG Export Plug-In . SVG Version: 6.00 Build 0)  -->
<svg version="1.1" id="Layer_1" xmlns="http://www.w3.org/2000/svg" xmlns:xlink="http://www.w3.org/1999/xlink" x="0px" y="0px"
	 viewBox="0 0 750.2 400.1" style="enable-background:new 0 0 750.2 400.1;" xml:space="preserve">
<g>
	<path d="M126.9,187.6l-0.7-0.2c-2.7,14.5-5.4,29.4-7.8,43.5l2.9,0.8l15.7-0.5l7.6-44.2L126.9,187.6z"/>
	<path d="M422.1,187.1l-16.4,0.5c-2.7,14.5-5.4,29.4-7.8,43.5l2.1,0.6l14.5-0.4L422.1,187.1z"/>
	<path d="M342,187.5l-18.2-0.6l7.8,44.2l18.3,0.6C347.5,217.5,344.8,202.3,342,187.5z"/>
	<path d="M604.4,187l7.8,44.2l17.2,0.5l0.2,0c-2.4-14.3-5.1-29.4-7.9-44.1L604.4,187z"/>
</g>
</svg>
