<?xml version="1.0" encoding="utf-8"?>
<!-- Generator: Adobe Illustrator 25.3.0, SVG Export Plug-In . SVG Version: 6.00 Build 0)  -->
<svg version="1.1" id="Layer_1" xmlns="http://www.w3.org/2000/svg" xmlns:xlink="http://www.w3.org/1999/xlink" x="0px" y="0px"
	 viewBox="0 0 750.2 400.1" style="enable-background:new 0 0 750.2 400.1;" xml:space="preserve">
<g>
	<path d="M391.7,273.4c-0.7,5.7-1.1,10.8-1.4,15.1c4.7,0.8,9.4,1.5,14,2l2.4-14L391.7,273.4z"/>
	<path d="M622.6,290.6c4.8-0.6,9.6-1.3,14.5-2.1c-0.3-4.1-0.7-8.9-1.3-14.2l-15.5,3.3L622.6,290.6z"/>
	<path d="M129.1,277.2l-17-3.6c-0.6,5.6-1.1,10.6-1.4,14.9c5.4,0.9,10.7,1.7,16,2.3L129.1,277.2z"/>
	<path d="M342,290.7c5.1-0.6,10.2-1.3,15.4-2.2c-0.2-4.2-0.7-9-1.3-14.4l-16.4,3.5L342,290.7z"/>
</g>
</svg>
