<?xml version="1.0" encoding="utf-8"?>
<!-- Generator: Adobe Illustrator 25.3.0, SVG Export Plug-In . SVG Version: 6.00 Build 0)  -->
<svg version="1.1" id="Layer_1" xmlns="http://www.w3.org/2000/svg" xmlns:xlink="http://www.w3.org/1999/xlink" x="0px" y="0px"
	 viewBox="0 0 750.2 400.1" style="enable-background:new 0 0 750.2 400.1;" xml:space="preserve">
<g>
	<path d="M132.8,153.7l17.2,2.6l7.3-42.4c-8.4-0.9-13.9-1.7-15.9-2C139.2,121.9,136.2,136.7,132.8,153.7z"/>
	<path d="M117,239.9c-3.1,19.5-5.5,36.9-6.2,48.6c5.4,0.9,10.7,1.7,16,2.3l8.3-48.1L117,239.9z"/>
	<path d="M420.9,111.9c-2.2,10.1-5.3,25-8.7,42.2l15.2,2.3l7.4-42.8C427.5,112.9,422.8,112.2,420.9,111.9z"/>
	<path d="M396.4,240.3c-3.1,19.4-5.4,36.5-6.1,48.2c4.7,0.8,9.4,1.5,14,2l8.2-47.7L396.4,240.3z"/>
	<path d="M326.6,111.1c-2.1,0.4-7.5,1.3-15.7,2.3l7.5,42.7l17-2.6C331.9,136.1,328.8,121.1,326.6,111.1z"/>
	<path d="M357.4,288.5c-0.7-11.8-3-29.2-6.2-48.8l-17.7,2.7l8.5,48.3C347.1,290.1,352.2,289.4,357.4,288.5z"/>
	<path d="M606.2,111.1c-2.1,0.4-7.1,1.2-14.8,2.2l7.5,42.4l16.1-2.5C611.5,136,608.3,121,606.2,111.1z"/>
	<path d="M637.1,288.5c-0.7-11.8-3.1-29.4-6.3-49.1l-16.8,2.6l8.6,48.7C627.4,290,632.2,289.3,637.1,288.5z"/>
</g>
</svg>
