<?xml version="1.0" encoding="utf-8"?>
<!-- Generator: Adobe Illustrator 25.3.0, SVG Export Plug-In . SVG Version: 6.00 Build 0)  -->
<svg version="1.1" id="Layer_1" xmlns="http://www.w3.org/2000/svg" xmlns:xlink="http://www.w3.org/1999/xlink" x="0px" y="0px"
	 viewBox="0 0 750.2 400.1" style="enable-background:new 0 0 750.2 400.1;" xml:space="preserve">
<g>
	<path d="M138.7,158.1l11.5-3.1l7.1-41.1c-1.5-0.2-3-0.3-4.3-0.5L138.7,158.1z"/>
	<path d="M314.5,112.9c-1.1,0.1-2.3,0.3-3.6,0.5l7.3,41.4l11.4,3.1L314.5,112.9z"/>
	<path d="M413.9,145.5l14.1,7.6l6.8-39.5c-7.3-0.7-12-1.4-13.9-1.7C419.1,120.3,416.7,132,413.9,145.5z"/>
	<path d="M606.2,111.1c-2.1,0.4-7.1,1.2-14.8,2.2l7.1,40.3l14.9-8C610.6,131.6,608,119.5,606.2,111.1z"/>
</g>
</svg>
