<?xml version="1.0" encoding="utf-8"?>
<!-- Generator: Adobe Illustrator 25.3.0, SVG Export Plug-In . SVG Version: 6.00 Build 0)  -->
<svg version="1.1" id="Layer_1" xmlns="http://www.w3.org/2000/svg" xmlns:xlink="http://www.w3.org/1999/xlink" x="0px" y="0px"
	 viewBox="0 0 750.2 400.1" style="enable-background:new 0 0 750.2 400.1;" xml:space="preserve">
<g>
	<path d="M124.4,197.5c-2.4,12.7-4.6,25.5-6.6,37.6l18.2,2.8l6.5-37.6L124.4,197.5z"/>
	<path d="M114.2,257.7c-1.7,12.1-3,22.8-3.4,30.8c5.4,0.9,10.7,1.7,16,2.3l5.2-30.4L114.2,257.7z"/>
	<path d="M137.5,130.4c-2.2,10.8-4.8,23.7-7.5,37.5l17.6,2.7l6.5-37.6L137.5,130.4z"/>
	<path d="M403.8,197.7c-2.3,12.7-4.6,25.5-6.6,37.6l16.2,2.5l6.5-37.6L403.8,197.7z"/>
	<path d="M393.7,258c-1.7,12-2.9,22.6-3.4,30.5c4.7,0.8,9.4,1.5,14,2l5.2-30.1L393.7,258z"/>
	<path d="M417,130.6c-2.2,10.9-4.8,23.7-7.5,37.5l15.6,2.4l6.5-37.6L417,130.6z"/>
	<path d="M350.4,234.7c-2-12.1-4.3-24.9-6.6-37.6l-17.7,2.7l6.6,37.6L350.4,234.7z"/>
	<path d="M357.4,288.5c-0.5-8.1-1.7-18.9-3.5-31.2l-17.3,2.7l5.4,30.7C347.1,290.1,352.2,289.4,357.4,288.5z"/>
	<path d="M338.1,167.5c-2.7-13.8-5.3-26.7-7.6-37.5l-16.3,2.5l6.6,37.6L338.1,167.5z"/>
	<path d="M630,234.8c-2-12.1-4.3-24.9-6.6-37.6l-16.8,2.6l6.6,37.6L630,234.8z"/>
	<path d="M637.1,288.5c-0.5-8.1-1.8-18.8-3.5-31.1l-16.4,2.5l5.4,30.7C627.4,290,632.2,289.3,637.1,288.5z"/>
	<path d="M617.8,167.6c-2.7-13.8-5.3-26.7-7.6-37.5l-15.4,2.4l6.6,37.6L617.8,167.6z"/>
</g>
</svg>
