<?xml version="1.0" encoding="utf-8"?>
<!-- Generator: Adobe Illustrator 25.3.0, SVG Export Plug-In . SVG Version: 6.00 Build 0)  -->
<svg version="1.1" id="Layer_1" xmlns="http://www.w3.org/2000/svg" xmlns:xlink="http://www.w3.org/1999/xlink" x="0px" y="0px"
	 viewBox="0 0 750.2 400.1" style="enable-background:new 0 0 750.2 400.1;" xml:space="preserve">
<g>
	<path d="M139.5,216.9l8.5-49.5l-17.5-2.5c-3.1,15.8-6.3,32.8-9.3,49.4L139.5,216.9z"/>
	<path d="M417.1,216.5l8.5-49.5l-15.5-2.2c-3.1,15.8-6.3,32.8-9.3,49.4L417.1,216.5z"/>
	<path d="M346.8,213.8c-2.9-16.6-6.2-33.7-9.3-49.4l-17.3,2.5l8.7,49.5L346.8,213.8z"/>
	<path d="M626,213.7l-1.7-11.8c-2.3-12.8-4.8-25.6-7.2-37.7l-16.3,2.3l8.7,49.5L626,213.7z"/>
</g>
</svg>
