<?xml version="1.0" encoding="utf-8"?>
<!-- Generator: Adobe Illustrator 25.3.0, SVG Export Plug-In . SVG Version: 6.00 Build 0)  -->
<svg version="1.1" id="Layer_1" xmlns="http://www.w3.org/2000/svg" xmlns:xlink="http://www.w3.org/1999/xlink" x="0px" y="0px"
	 viewBox="0 0 240.9 34" style="enable-background:new 0 0 240.9 34;" xml:space="preserve">
<style type="text/css">
	.st0{fill:#FFFFFF;}
	.st1{font-family:'Arial-BoldMT';}
	.st2{font-size:9.2355px;}
	.st3{fill:none;stroke:#000000;stroke-width:0.894;stroke-miterlimit:10;}
	.st4{fill:#1E1E1C;}
	.st5{fill:#EA0029;}
	.st6{fill:#965F36;}
	.st7{fill:#FFDD00;}
	.st8{font-size:6.0891px;}
	.st9{fill:#00AE42;}
</style>
<g>
	<rect x="3.8" y="6.2" width="36.1" height="21.1"/>
	<g>
		<text transform="matrix(1 0 0 1 5.2368 20.0051)" class="st0 st1 st2">BLACK</text>
	</g>
</g>
<g>
	<rect x="43.2" y="6.4" class="st3" width="36.1" height="21.1"/>
	<g>
		<text transform="matrix(1 0 0 1 46.8682 20.2336)" class="st4 st1 st2">WHITE</text>
	</g>
</g>
<g>
	<rect x="82.5" y="6.4" class="st5" width="36.1" height="21.1"/>
	<g>
		<text transform="matrix(1 0 0 1 90.0278 20.2336)" class="st4 st1 st2">185C</text>
	</g>
</g>
<g>
	<rect x="122" y="6.4" class="st6" width="36.1" height="21.1"/>
	<g>
		<text transform="matrix(1 0 0 1 126.9316 20.2336)" class="st4 st1 st2">4635C</text>
	</g>
</g>
<g>
	<rect x="160.2" y="6.1" class="st7" width="36.1" height="21.1"/>
	<g>
		<text transform="matrix(1 0 0 1 162.7227 17.5729)" class="st4 st1 st8">YELLOW C</text>
	</g>
</g>
<g>
	<rect x="199.7" y="6.1" class="st9" width="36.1" height="21.1"/>
	<g>
		<text transform="matrix(1 0 0 1 207.2246 19.9641)" class="st4 st1 st2">354C</text>
	</g>
</g>
</svg>
