<?xml version="1.0" encoding="utf-8"?>
<!-- Generator: Adobe Illustrator 25.3.0, SVG Export Plug-In . SVG Version: 6.00 Build 0)  -->
<svg version="1.1" id="Layer_1" xmlns="http://www.w3.org/2000/svg" xmlns:xlink="http://www.w3.org/1999/xlink" x="0px" y="0px"
	 viewBox="0 0 400 140" style="enable-background:new 0 0 400 140;" xml:space="preserve">
<style type="text/css">
	.st0{fill:#FFFFFF;}
	.st1{fill:#454B4F;}
	.st2{fill:url(#SVGID_1_);}
	.st3{fill:url(#SVGID_2_);}
	.st4{fill:url(#SVGID_3_);}
	.st5{fill:url(#SVGID_4_);}
	.st6{fill:url(#SVGID_5_);}
	.st7{fill:url(#SVGID_6_);}
	.st8{fill:url(#SVGID_7_);}
	.st9{fill:url(#SVGID_8_);}
	.st10{fill:url(#SVGID_9_);}
	.st11{fill:url(#SVGID_10_);}
	.st12{fill:url(#SVGID_11_);}
</style>
<g>
	<rect x="149.5431824" class="st0" width="100.9136276" height="140"/>
	<g>
		<g>
			<g>
				<path class="st1" d="M154.1194763,133.9246674c0.2119904,0.1387482,0.5109863,0.2697601,0.8963013,0.3925476
					c0.3852997,0.1232758,0.8235321,0.1846771,1.3152008,0.1846771c0.6255646,0,1.133667-0.1469727,1.524765-0.4409027
					c0.3908691-0.2939301,0.5864105-0.7565765,0.5864105-1.3874664c0-0.4172211-0.1116638-0.7802734-0.335022-1.0906525
					c-0.223587-0.3098907-0.502533-0.5960846-0.8377991-0.8581085c-0.335022-0.2620239-0.6951904-0.5187225-1.0807343-0.7701111
					c-0.3852997-0.2509155-0.7454681-0.5288849-1.0807343-0.8339386c-0.335022-0.3045654-0.6144562-0.6545868-0.8375549-1.0505219
					c-0.2236023-0.3954544-0.3352661-0.8711624-0.3352661-1.4276047c0-0.8982315,0.2820892-1.563446,0.8462524-1.9966049
					c0.5639343-0.4331665,1.2985229-0.6497498,2.2032928-0.6497498c0.5583649,0,1.0555878,0.0483475,1.4911652,0.1445541
					c0.4355927,0.096199,0.7875366,0.2189941,1.055603,0.3688583l-0.4022217,1.0587387
					c-0.200882-0.1179581-0.4887695-0.2248001-0.8627014-0.3210068c-0.3744354-0.096199-0.8073578-0.1445465-1.2985229-0.1445465
					c-0.6033325,0-1.0502777,0.1421356-1.3405914,0.4254303c-0.2905426,0.2832947-0.4355774,0.6386261-0.4355774,1.0664673
					c0,0.3741837,0.1114349,0.7058258,0.335022,0.9944382c0.2233582,0.2886124,0.5027771,0.5612717,0.8378143,0.8179855
					c0.335022,0.2566986,0.6954193,0.5158234,1.0807343,0.7778625c0.3852997,0.2620239,0.745697,0.5530548,1.080719,0.874054
					c0.3350372,0.3209991,0.614212,0.6845551,0.8378143,1.0906372c0.2233429,0.4065857,0.335022,0.8876038,0.335022,1.4435577
					c0,0.9407806-0.2905579,1.6790009-0.87117,2.2131958c-0.5810852,0.5351715-1.4019775,0.8020325-2.4631195,0.8020325
					c-0.6703033,0-1.220459-0.0589905-1.6504669-0.1764526c-0.4300232-0.1174774-0.7735138-0.2509155-1.0304565-0.4007721
					L154.1194763,133.9246674z"/>
				<path class="st1" d="M161.022522,129.8023529c0-1.9028168,0.3183441-3.3463745,0.9550476-4.330658
					c0.6366882-0.9833221,1.6083984-1.4754639,2.91539-1.4754639c0.7036438,0,1.301178,0.1363297,1.7928314,0.4089966
					c0.4914246,0.2726593,0.8905029,0.6603775,1.1979675,1.1631546c0.3069916,0.5022964,0.5332336,1.1119156,0.6785126,1.8283768
					c0.1450348,0.7164612,0.2177887,1.5184937,0.2177887,2.4055939c0,1.9033203-0.3212433,3.3468628-0.9632568,4.3306732
					c-0.6424866,0.9837952-1.6171112,1.4754639-2.9238434,1.4754639c-0.6927795,0-1.2847443-0.1363373-1.7761688-0.4089966
					c-0.4916534-0.2726593-0.893631-0.6598969-1.2064209-1.162674s-0.5390472-1.111908-0.6785126-1.8283691
					C161.0921478,131.4919891,161.022522,130.6899567,161.022522,129.8023529z M162.3461914,129.8023529
					c0,0.6308899,0.0473785,1.2298737,0.1423645,1.7964783c0.0947571,0.5670776,0.2429352,1.0640564,0.444046,1.4914093
					c0.2011108,0.4278412,0.4633789,0.7701263,0.7875214,1.026825c0.3236694,0.2567139,0.7145233,0.3848267,1.1728363,0.3848267
					c0.8377991,0,1.4744873-0.3848267,1.9100647-1.1549377c0.4355927-0.7696381,0.6533813-1.9511719,0.6533813-3.5446014
					c0-0.6197662-0.0476227-1.2134247-0.1423798-1.7800293c-0.0950012-0.56707-0.2429199-1.0669479-0.4440308-1.4996262
					c-0.2011261-0.4331665-0.463623-0.7783432-0.7875366-1.0345688c-0.3241425-0.2567062-0.7203217-0.3852997-1.1894989-0.3852997
					c-0.8269348,0-1.4578247,0.3852997-1.8934021,1.1549377
					C162.5639801,127.0278931,162.3461914,128.2094269,162.3461914,129.8023529z"/>
				<path class="st1" d="M176.2194977,135.4160767h-5.6465912v-11.2274323h1.2566986v10.1208344h4.3898926V135.4160767z"/>
				<path class="st1" d="M182.9045105,124.1886444h1.2064362v7.5223389c0,1.3579865-0.276535,2.3393707-0.8293457,2.9431915
					c-0.5530548,0.6042938-1.3379211,0.9064484-2.3541107,0.9064484c-1.1841888,0-2.0471344-0.2939301-2.5888367-0.8822784
					c-0.5419312-0.5878601-0.8126526-1.4918976-0.8126526-2.7106476v-7.7790527h1.2566986v7.1534729
					c0,0.5772247,0.0389099,1.0640564,0.1172333,1.4595032c0.0780792,0.3959503,0.206665,0.7164612,0.3855438,0.9625397
					c0.1783905,0.2460632,0.4019775,0.4225311,0.6700439,0.5293732c0.2680817,0.1068268,0.5975342,0.1600189,0.9886475,0.1600189
					c0.7372437,0,1.2482452-0.2455902,1.5329895-0.7377319c0.2849884-0.4916687,0.4273529-1.2830505,0.4273529-2.373703V124.1886444
					z"/>
				<path class="st1" d="M192.4382172,125.295723h-2.8817902v10.1203537h-1.2567139V125.295723h-2.8820343v-1.1070786h7.0205383
					V125.295723z"/>
				<path class="st1" d="M193.9963531,124.1886444h1.2566986v11.2274323h-1.2566986V124.1886444z"/>
				<path class="st1" d="M197.2970428,129.8023529c0-1.9028168,0.3183441-3.3463745,0.9550323-4.330658
					c0.6366882-0.9833221,1.6084137-1.4754639,2.9151459-1.4754639c0.7039032,0,1.3014374,0.1363297,1.7930908,0.4089966
					c0.4911804,0.2726593,0.8905029,0.6603775,1.1979675,1.1631546c0.3069763,0.5022964,0.5332336,1.1119156,0.6787567,1.8283768
					c0.1450195,0.7164612,0.2175446,1.5184937,0.2175446,2.4055939c0,1.9033203-0.3210144,3.3468628-0.963501,4.3306732
					c-0.6424866,0.9837952-1.6166229,1.4754639-2.9238586,1.4754639c-0.6927643,0-1.2845001-0.1363373-1.7756653-0.4089966
					c-0.4916687-0.2726593-0.8938904-0.6598969-1.2066803-1.162674c-0.3127747-0.5027771-0.539032-1.111908-0.6784973-1.8283691
					C197.3666534,131.4919891,197.2970428,130.6899567,197.2970428,129.8023529z M198.6204681,129.8023529
					c0,0.6308899,0.0473633,1.2298737,0.1426086,1.7964783c0.0947571,0.5670776,0.242691,1.0640564,0.4438019,1.4914093
					c0.2011108,0.4278412,0.463623,0.7701263,0.7875214,1.026825c0.3238983,0.2567139,0.7150116,0.3848267,1.172821,0.3848267
					c0.8378143,0,1.4745026-0.3848267,1.91008-1.1549377c0.4360657-0.7696381,0.6536102-1.9511719,0.6536102-3.5446014
					c0-0.6197662-0.0473785-1.2134247-0.1421204-1.7800293c-0.0952454-0.56707-0.2431793-1.0669479-0.4442902-1.4996262
					c-0.2011108-0.4331665-0.463623-0.7783432-0.7875214-1.0345688c-0.3239136-0.2567062-0.7203369-0.3852997-1.1897583-0.3852997
					c-0.8266754,0-1.4575653,0.3852997-1.8931427,1.1549377
					C198.8384857,127.0278931,198.6204681,128.2094269,198.6204681,129.8023529z"/>
				<path class="st1" d="M208.6402588,128.2949829l-0.7208099-1.7645493h-0.0502777l0.1846771,1.7645493v7.1210938h-1.206665
					v-11.4038925h0.7541656l4.3393555,7.2820816l0.6869812,1.6838226h0.0671997l-0.1842041-1.6838226v-7.1056213h1.206192
					v11.4038849h-0.7705994L208.6402588,128.2949829z"/>
				<path class="st1" d="M215.7777863,133.9246674c0.2117462,0.1387482,0.5109863,0.2697601,0.8963013,0.3925476
					c0.3852997,0.1232758,0.8237762,0.1846771,1.3154449,0.1846771c0.6250763,0,1.133667-0.1469727,1.524765-0.4409027
					c0.390625-0.2939301,0.5864105-0.7565765,0.5864105-1.3874664c0-0.4172211-0.1121521-0.7802734-0.335022-1.0906525
					c-0.2238312-0.3098907-0.5027771-0.5960846-0.8377991-0.8581085c-0.3355103-0.2620239-0.6956787-0.5187225-1.0809784-0.7701111
					c-0.3852997-0.2509155-0.7454681-0.5288849-1.0804901-0.8339386c-0.335022-0.3045654-0.6144562-0.6545868-0.8377991-1.0505219
					c-0.2238312-0.3954544-0.335022-0.8711624-0.335022-1.4276047c0-0.8982315,0.2818451-1.563446,0.8460236-1.9966049
					c0.5636902-0.4331665,1.2985229-0.6497498,2.2030334-0.6497498c0.5588531,0,1.0558319,0.0483475,1.4914093,0.1445541
					c0.4355927,0.096199,0.7875366,0.2189941,1.0553589,0.3688583l-0.4017334,1.0587387
					c-0.2011108-0.1179581-0.4887695-0.2248001-0.8629456-0.3210068c-0.3746643-0.096199-0.8073425-0.1445465-1.2985229-0.1445465
					c-0.6033325,0-1.0500336,0.1421356-1.3405914,0.4254303c-0.2905426,0.2832947-0.4355774,0.6386261-0.4355774,1.0664673
					c0,0.3741837,0.1116791,0.7058258,0.335022,0.9944382c0.2233582,0.2886124,0.5027771,0.5612717,0.8378143,0.8179855
					c0.335022,0.2566986,0.6951904,0.5158234,1.0809631,0.7778625c0.3853149,0.2620239,0.7454681,0.5530548,1.0804901,0.874054
					c0.3350372,0.3209991,0.6139832,0.6845551,0.8378143,1.0906372c0.2233429,0.4065857,0.335022,0.8876038,0.335022,1.4435577
					c0,0.9407806-0.2905426,1.6790009-0.87117,2.2131958c-0.5810852,0.5351715-1.4019775,0.8020325-2.4631195,0.8020325
					c-0.6700592,0-1.2206879-0.0589905-1.6504669-0.1764526c-0.4302673-0.1174774-0.7735138-0.2509155-1.0302124-0.4007721
					L215.7777863,133.9246674z"/>
				<path class="st1" d="M232.2312164,135.4160767h-5.6465912v-11.2274323h1.2569427v10.1208344h4.3896484V135.4160767z"/>
				<path class="st1" d="M238.0450745,125.295723h-2.8817902v10.1203537h-1.2569427V125.295723h-2.8817902v-1.1070786h7.0205231
					V125.295723z"/>
				<path class="st1" d="M239.3518219,124.1886444c0.1783905-0.0319061,0.3770752-0.0560837,0.595108-0.0720367
					c0.2175598-0.0159531,0.4380035-0.0265884,0.6618347-0.0319061c0.2228699-0.0053177,0.4438019-0.0106354,0.6618347-0.0159531
					c0.2175446-0.0053177,0.4210663-0.0082169,0.6115417-0.0082169c0.815094,0,1.5078583,0.1339111,2.0773468,0.4007721
					c0.5699768,0.2673416,1.0331268,0.6497421,1.3908691,1.1467209c0.357254,0.4974594,0.6139679,1.093544,0.7705994,1.7887344
					c0.1561584,0.6951904,0.2344666,1.4701385,0.2344666,2.3253479c0,0.7701263-0.0754089,1.5078583-0.2262421,2.2136841
					c-0.1508331,0.7053375-0.4046478,1.325592-0.7623901,1.8602753c-0.3572693,0.5346832-0.8291016,0.9625244-1.4155121,1.2830505
					c-0.5864105,0.3209991-1.3212433,0.4815063-2.2035217,0.4815063c-0.1450348,0-0.3297119-0.0028992-0.5525818-0.0082092
					c-0.2238312-0.0053253-0.4553986-0.0159607-0.6956635-0.0319214c-0.2402802-0.0164337-0.463623-0.0299683-0.6700592-0.0401154
					c-0.2069092-0.0111237-0.3659668-0.0270691-0.4776306-0.0483398V124.1886444z M241.9488678,125.1671295
					c-0.1116791,0-0.2320557,0-0.3601685,0c-0.1286011,0-0.2542877,0.0057983-0.3770905,0.0159531
					c-0.1227875,0.011116-0.2373657,0.0217514-0.3432312,0.0323868c-0.106369,0.0106354-0.1929016,0.0212708-0.259613,0.0319061
					v9.1423492c0.0444794,0.0106354,0.1252136,0.0188599,0.242691,0.0236969
					c0.1174774,0.0057983,0.2402649,0.0111237,0.368866,0.0164337c0.1281128,0.0053253,0.2509003,0.0106354,0.3683777,0.0159607
					c0.1174774,0.0053101,0.2035217,0.0077362,0.259613,0.0077362c0.6144409,0,1.1283417-0.1281128,1.541687-0.3848267
					c0.4128571-0.2566986,0.7396698-0.6013947,0.9799347-1.0345612s0.4104462-0.9354553,0.5110016-1.50737
					s0.1508331-1.1791077,0.1508331-1.8206329c0-0.5666046-0.0444794-1.1225586-0.1339111-1.6678772
					c-0.089447-0.5453262-0.2484894-1.0292435-0.4776459-1.4517746c-0.2291565-0.4220428-0.5419312-0.7643204-0.9383545-1.0263443
					S242.5744324,125.1671295,241.9488678,125.1671295z"/>
			</g>
		</g>
		<g>
			<g>
				<path class="st1" d="M158.9758759,97.4823914v23.6436539h-4.4382324V97.4823914H158.9758759z"/>
				<path class="st1" d="M162.9384003,97.4823914h9.9264984v3.9990234h-5.488266v6.068634h5.1493683v3.8240204h-5.1493683v9.751976
					h-4.4382324V97.4823914z"/>
				<path class="st1" d="M175.7099457,116.4255447c0.9146729,0.5259857,2.473053,0.9117737,3.7604523,0.9117737
					c2.1005554,0,3.116745-1.122551,3.116745-2.6656952c0-1.7191162-1.0161896-2.5612717-2.9472961-3.8588257
					c-3.1169891-1.9647064-4.3026276-4.4553909-4.3026276-6.5951004c0-3.7887344,2.4391937-6.9460831,7.2160797-6.9460831
					c1.4906921,0,2.9136963,0.4210739,3.5912476,0.8421555l-0.7113953,3.9642105
					c-0.643692-0.4210739-1.626297-0.8068619-2.9136963-0.8068619c-1.8972626,0-2.8119354,1.1926498-2.8119354,2.4553986
					c0,1.4029465,0.6775513,2.1397095,3.1508331,3.6833344c3.015213,1.8941269,4.1331787,4.2799072,4.1331787,6.7705917
					c0,4.3147125-3.082901,7.155899-7.5549774,7.155899c-1.8295898,0-3.6250763-0.4911804-4.3703003-0.9470596
					L175.7099457,116.4255447z"/>
				<path class="st1" d="M194.9513855,97.833374c1.3889313-0.2808838,3.1508331-0.4563675,4.8448029-0.4563675
					c2.4389648,0,4.607193,0.350975,6.0981293,1.7539215c1.388916,1.2980347,1.7955017,2.8764725,1.7955017,4.9112778
					c0,2.5259781-1.1858826,4.8058853-3.5233154,5.9284363v0.0700989c1.5581207,0.6313705,2.3374329,2.1401901,2.7778473,4.6656876
					c0.4404144,2.6308899,1.0505219,5.5426559,1.4570923,6.4196167h-4.6415253
					c-0.2712097-0.6666641-0.7792969-3.0519638-1.1181946-5.6480408c-0.4065704-2.946579-1.1177216-3.7882462-2.6086426-3.7882462
					h-0.6434631v9.4362869h-4.4382324V97.833374z M199.3896179,108.1466217h0.7793121
					c1.9308624,0,3.049057-1.6137314,3.049057-3.683342c0-1.9995117-0.7793121-3.4377441-2.7783356-3.507843
					c-0.3727417,0-0.8131561,0.0348053-1.0500336,0.1401978V108.1466217z"/>
				<path class="st1" d="M215.311264,97.4823914v23.6436539h-4.4379883V97.4823914H215.311264z"/>
				<path class="st1" d="M218.7654419,116.4255447c0.9146729,0.5259857,2.4732971,0.9117737,3.7606964,0.9117737
					c2.1005554,0,3.116745-1.122551,3.116745-2.6656952c0-1.7191162-1.0161896-2.5612717-2.9475403-3.8588257
					c-3.116745-1.9647064-4.3021393-4.4553909-4.3021393-6.5951004c0-3.7887344,2.4389496-6.9460831,7.2158356-6.9460831
					c1.4909363,0,2.9136963,0.4210739,3.5910034,0.8421555l-0.7111511,3.9642105
					c-0.6439362-0.4210739-1.6262817-0.8068619-2.9136963-0.8068619c-1.8970184,0-2.8116913,1.1926498-2.8116913,2.4553986
					c0,1.4029465,0.6773071,2.1397095,3.150589,3.6833344c3.015213,1.8941269,4.1329346,4.2799072,4.1329346,6.7705917
					c0,4.3147125-3.082901,7.155899-7.5547333,7.155899c-1.8293457,0-3.6248322-0.4911804-4.3703003-0.9470596
					L218.7654419,116.4255447z"/>
				<path class="st1" d="M232.6213531,97.4823914h4.4379883v10.6289368h0.067688
					c0.3727264-0.9818726,0.7454529-2.034317,1.1181946-3.0519638l3.049057-7.576973h4.8784027l-5.1157684,10.2784424
					l5.1834564,13.3652115h-4.8445587l-3.320282-9.787262l-1.0161896,1.9294128v7.8578491h-4.4379883V97.4823914z"/>
			</g>
		</g>
		<g>
			
				<linearGradient id="SVGID_1_" gradientUnits="userSpaceOnUse" x1="156.8844604" y1="51.1076279" x2="241.2120361" y2="51.1076279">
				<stop  offset="0" style="stop-color:#1571A7"/>
				<stop  offset="1" style="stop-color:#1C2042"/>
			</linearGradient>
			<polygon class="st2" points="232.1372833,50.5967255 233.2433929,43.8276443 222.6537018,41.4902649 224.6288452,33.8278465 
				210.19487,31.2687511 215.6243744,23.3754292 199.0937653,21.9836311 199.0937653,21.9701862 182.4721375,23.3825855 
				187.9016113,31.2759075 173.4676514,33.8350029 175.4427948,41.4974213 164.8530884,43.8348007 165.9592133,50.6038818 
				156.8844604,53.0847778 176.0006409,71.0469131 199.0027618,80.0700073 199.0027618,80.2450714 222.0958405,71.1862946 
				241.2120361,53.0776215 			"/>
			<g>
				
					<linearGradient id="SVGID_2_" gradientUnits="userSpaceOnUse" x1="176.7013702" y1="29.7547092" x2="199.0228119" y2="29.7547092">
					<stop  offset="0" style="stop-color:#115C99"/>
					<stop  offset="1" style="stop-color:#1C2042"/>
				</linearGradient>
				<polygon class="st3" points="182.457428,23.382597 176.7013702,30.0680866 199.0228119,36.1268196 199.0228119,27.0153561 				
					"/>
				
					<linearGradient id="SVGID_3_" gradientUnits="userSpaceOnUse" x1="167.785965" y1="43.3683128" x2="199.0228119" y2="43.3683128">
					<stop  offset="0" style="stop-color:#115C99"/>
					<stop  offset="1" style="stop-color:#1C2042"/>
				</linearGradient>
				<polygon class="st4" points="173.4581146,33.8350182 167.785965,40.4230423 199.0228119,52.9016113 199.0228119,42.5764236 				
					"/>
				
					<linearGradient id="SVGID_4_" gradientUnits="userSpaceOnUse" x1="186.2719727" y1="12.5351191" x2="199.0228119" y2="12.5351191">
					<stop  offset="0" style="stop-color:#115C99"/>
					<stop  offset="1" style="stop-color:#1C2042"/>
				</linearGradient>
				<polygon class="st5" points="186.2719727,18.9521122 199.0228119,20.9278011 199.0228119,4.142437 				"/>
				
					<linearGradient id="SVGID_5_" gradientUnits="userSpaceOnUse" x1="153.3397064" y1="72.1631622" x2="199.0228119" y2="72.1631622">
					<stop  offset="0" style="stop-color:#115C99"/>
					<stop  offset="1" style="stop-color:#1C2042"/>
				</linearGradient>
				<polygon class="st6" points="156.8844604,53.084774 153.3397064,57.2019272 199.0228119,91.2415543 199.0228119,80.1056824 				
					"/>
				
					<linearGradient id="SVGID_6_" gradientUnits="userSpaceOnUse" x1="159.6345215" y1="58.0851097" x2="199.0228119" y2="58.0851097">
					<stop  offset="0" style="stop-color:#115C99"/>
					<stop  offset="1" style="stop-color:#1C2042"/>
				</linearGradient>
				<polygon class="st7" points="164.8485107,43.8347969 159.6345215,49.8906898 199.0228119,72.3354187 199.0228119,60.3169174 
									"/>
			</g>
			<g>
				
					<linearGradient id="SVGID_7_" gradientUnits="userSpaceOnUse" x1="221.3909302" y1="29.7547092" x2="199.0694733" y2="29.7547092">
					<stop  offset="0" style="stop-color:#0F5584"/>
					<stop  offset="1" style="stop-color:#0E80C4"/>
				</linearGradient>
				<polygon class="st8" points="215.6348724,23.382597 221.3909302,30.0680866 199.0694733,36.1268196 199.0694733,27.0153561 				
					"/>
				
					<linearGradient id="SVGID_8_" gradientUnits="userSpaceOnUse" x1="230.3063354" y1="43.3683128" x2="199.0694733" y2="43.3683128">
					<stop  offset="0" style="stop-color:#0F5584"/>
					<stop  offset="1" style="stop-color:#0E80C4"/>
				</linearGradient>
				<polygon class="st9" points="224.6341705,33.8350182 230.3063354,40.4230423 199.0694733,52.9016113 199.0694733,42.5764236 
									"/>
				
					<linearGradient id="SVGID_9_" gradientUnits="userSpaceOnUse" x1="211.8203278" y1="12.5351191" x2="199.0694733" y2="12.5351191">
					<stop  offset="0" style="stop-color:#0F5584"/>
					<stop  offset="1" style="stop-color:#0E80C4"/>
				</linearGradient>
				<polygon class="st10" points="211.8203278,18.9521122 199.0694733,20.9278011 199.0694733,4.142437 				"/>
				
					<linearGradient id="SVGID_10_" gradientUnits="userSpaceOnUse" x1="244.752594" y1="72.1631622" x2="199.0694733" y2="72.1631622">
					<stop  offset="0" style="stop-color:#0F5584"/>
					<stop  offset="1" style="stop-color:#0E80C4"/>
				</linearGradient>
				<polygon class="st11" points="241.2078247,53.084774 244.752594,57.2019272 199.0694733,91.2415543 199.0694733,80.1056824 				
					"/>
				
					<linearGradient id="SVGID_11_" gradientUnits="userSpaceOnUse" x1="238.4577637" y1="58.0851097" x2="199.0694733" y2="58.0851097">
					<stop  offset="0" style="stop-color:#0F5584"/>
					<stop  offset="1" style="stop-color:#0E80C4"/>
				</linearGradient>
				<polygon class="st12" points="233.2437744,43.8347969 238.4577637,49.8906898 199.0694733,72.3354187 199.0694733,60.3169174 
									"/>
			</g>
		</g>
	</g>
</g>
</svg>
