<?xml version="1.0" encoding="utf-8"?>
<!-- Generator: Adobe Illustrator 25.3.0, SVG Export Plug-In . SVG Version: 6.00 Build 0)  -->
<svg version="1.1" id="Layer_1" xmlns="http://www.w3.org/2000/svg" xmlns:xlink="http://www.w3.org/1999/xlink" x="0px" y="0px"
	 viewBox="0 0 400 140" style="enable-background:new 0 0 400 140;" xml:space="preserve">
<g>
	<path d="M103.8849716,17.2528992c-1.6213455-0.649395-3.7622223-1.4919481-6.4216614-1.4919481
		c-3.3088455,0-5.3835754,1.6870241-5.3835754,4.0866976c0,2.0766582,1.4258041,3.5671635,4.7341614,6.0971966l2.1413574,1.6213493
		c5.5129776,4.1513844,9.2105026,7.5906048,9.2105026,13.6230984c0,6.2265968-4.5410309,12.5193405-14.0759964,12.5193405
		c-5.1247711,0-8.4978333-1.6874962-10.5730515-2.7902794l2.5305252-5.6433334
		c2.7236557,1.4272461,4.993927,2.3364182,7.6538467,2.3364182c3.7622299,0,5.2541733-2.2702751,5.2541733-4.3469315
		c0-2.5300331-1.9458084-4.0224686-5.2541733-6.6157608l-2.0105133-1.5581093
		c-5.1899567-4.0205364-8.8227768-7.5891418-8.8227768-13.3613911c0-6.097682,5.0605545-12.0654907,14.141655-12.0654907
		c3.2426987,0,6.0325012,0.6489229,9.0168839,1.8164101L103.8849716,17.2528992z"/>
	<path d="M119.7153854,12.5183983v8.4968853h5.7727356v5.0586243h-5.2541809v17.0613461
		c0,2.7888374,0,4.6052475,2.5300446,4.6052475c0.8430252,0,1.4262848-0.1950607,2.1399078-0.389164l1.2978516,5.1238098
		c-3.4377594,1.102787-6.8108292,1.102787-7.3955383,1.102787c-7.1999817,0-8.1719208-4.7346497-8.1719208-9.1457939V26.0739079
		h-4.1518707v-5.0586243h4.6052475l0.2588043-8.4968853H119.7153854z"/>
	<path d="M141.0601196,20.3659191c10.3132935,0,14.5293732,7.9797649,14.5293732,16.2825336
		c0,9.6643562-5.3188782,17.0599022-15.2429962,17.0599022c-9.4707489,0-14.6602249-7.2656555-14.6602249-16.3472366
		C125.6862717,27.7614479,131.134552,20.3659191,141.0601196,20.3659191 M140.6709595,48.6477852
		c3.3730621,0,4.7988739-4.2803001,4.7988739-11.9346313c0-7.3303566-1.1674957-11.2866802-4.6694794-11.2866802
		c-4.280777,0-4.9944,5.7727337-4.9944,11.4160824C135.805954,43.6533737,136.7778931,48.6477852,140.6709595,48.6477852"/>
	<path d="M166.814621,21.0150776l0.4538574,5.0591259c2.401123-4.6699486,6.4216614-5.7085209,9.2766418-5.7085209
		c6.4216614,0,9.4055634,4.4116306,9.4055634,10.5088272v22.1846714h-9.6006317V33.9231071
		c0-2.1394272,0.1950684-6.9402199-3.697998-6.9402199c-3.242218,0-4.6699524,3.9563236-4.6699524,7.9787941v18.0974998h-9.5996552
		V21.0150776H166.814621z"/>
	<path d="M216.4415131,37.1028595H198.667984c0,7.5891457,2.8549957,10.8975182,7.20047,10.8975182
		c2.5947418,0,5.5139313-1.7521935,6.7456512-2.4653473l2.5947418,4.7356224
		c-1.8806305,1.102787-6.0967255,3.4377594-11.2866821,3.4377594c-9.2747192,0-15.3719177-6.8108215-15.3719177-16.7363968
		c0-10.7671585,7.1338501-16.6060371,14.9832306-16.6060371c9.6653442,0,12.9080353,7.84939,12.9080353,14.8552856V37.1028595z
		 M207.8152466,32.4314537c0-1.232172,0-7.1352806-4.1513977-7.1352806c-3.5681305,0-4.5405579,3.7622223-4.6709137,7.1352806
		H207.8152466z"/>
	<path d="M234.6080627,53.0592384l-0.5180817-4.8650093c-2.1413574,3.5024643-5.0595856,5.5144196-9.1457825,5.5144196
		c-5.7085266,0-8.823288-4.3469315-8.823288-8.8232613c0-6.7456512,6.0325165-9.405571,17.3858185-13.1677933
		c0-3.9558372-1.8811188-5.3835716-5.7741852-5.3835716c-3.3088531,0-6.0325012,1.1674862-7.7827606,2.140871l-2.0766754-5.0600815
		c4.0867004-1.9462833,7.9788055-3.0490704,12.0650024-3.0490704c9.146286,0,12.7791138,4.1518707,12.7791138,10.4441261v10.5088425
		c0,2.2702713,0.1294098,7.9136047,1.0385742,11.7405281H234.6080627z M233.5067291,36.3242874
		c-6.4878082,2.7883644-8.4336243,4.0205498-8.4336243,7.3936119c0,2.7907677,2.0766602,4.022953,3.7622223,4.022953
		c4.2807922,0,4.671402-5.3840561,4.671402-9.7956886V36.3242874z"/>
	<path d="M268.0197449,27.3720932c-0.9739075-0.4533768-2.855011-1.2978458-5.1899719-1.2978458
		c-3.6328125,0-7.3308411,2.9838963-7.3308411,10.8328152c0,4.8654976,1.5566711,11.0935364,6.8774719,11.0935364
		c2.4638672,0,4.4743958-1.1032562,5.8369446-1.8815804l2.3349915,4.9301949
		c-1.8164368,0.9719391-5.1899719,2.6594353-10.1838989,2.6594353c-9.7952118,0-14.9837189-7.5896301-14.9837189-16.6702538
		c0-10.3799267,6.8113098-16.6726685,15.8924103-16.6726685c3.2426758,0,6.0325012,0.7141113,8.9502563,2.0766582
		L268.0197449,27.3720932z"/>
	<path d="M280.0863037,21.0150776l0.3244324,8.0430222c1.2336426-3.2427006,3.5039062-8.4963989,8.0444641-8.4963989
		c1.1013489,0,2.0752258,0.2597752,2.9829407,0.4533768l-1.5571289,8.3027821
		c-0.5180969-0.1289139-1.6208801-0.3886757-2.4638977-0.3886757c-2.6594238,0-6.2927246,1.5561638-6.2927246,10.768116v13.3618813
		h-9.5992126V21.0150776H280.0863037z"/>
	<path d="M317.1322021,37.1028595h-17.7730103c0,7.5891457,2.8544922,10.8975182,7.1999512,10.8975182
		c2.5947571,0,5.5139465-1.7521935,6.7456665-2.4653473l2.5952148,4.7356224
		c-1.8811035,1.102787-6.0971985,3.4377594-11.2871704,3.4377594c-9.2746887,0-15.3718872-6.8108215-15.3718872-16.7363968
		c0-10.7671585,7.1338501-16.6060371,14.9832153-16.6060371c9.6653442,0,12.90802,7.84939,12.90802,14.8552856V37.1028595z
		 M308.5059509,32.4314537c0-1.232172,0-7.1352806-4.1513977-7.1352806c-3.5681152,0-4.5405579,3.7622223-4.6708984,7.1352806
		H308.5059509z"/>
	<polygon points="148.3448944,5.1257577 153.3161316,12.1234455 153.3161316,5.1257577 155.2049713,5.1257577 
		155.2049713,16.5577679 153.473053,16.5577679 148.484436,9.5600958 148.484436,16.5577679 146.5955963,16.5577679 
		146.5955963,5.1257577 	"/>
	<path d="M161.6953888,16.5576363l-0.120697-1.3509512c-0.6402435,1.2476301-1.7145386,1.5247774-2.4769287,1.5247774
		c-1.7145386,0-2.5116882-1.1790686-2.5116882-2.8057375V8.000411h2.5633392v5.1107855
		c0,0.5716686-0.051651,1.8526134,0.9878845,1.8526134c0.8657074,0,1.2461853-1.0569162,1.2461853-2.1292896V8.000411h2.5638275
		v8.5572252H161.6953888z"/>
	<path d="M167.5112915,8.0005875l0.1216736,1.3514519c0.537384-1.1259642,1.5069122-1.5238199,2.408371-1.5238199
		c0.8830872,0,1.8869019,0.3804836,2.2862091,1.5064325c0.5200043-1.0395288,1.5233307-1.5064325,2.4064331-1.5064325
		c1.8197937,0,2.5131378,1.2983322,2.5131378,2.8752718v5.8543358h-2.5643158v-5.2141066
		c0-0.7092772,0-1.7492924-0.9347687-1.7492924c-1.1776276,0-1.2138367,1.5769243-1.2138367,2.754549v4.2088499h-2.5633545
		v-5.2141066c0-0.7440367,0-1.7492924-0.9347687-1.7492924c-1.2118988,0-1.2118988,1.8009529-1.2118988,2.7719364v4.1914625
		h-2.5648041V8.0005875H167.5112915z"/>
	<path d="M180.9977875,4v5.1783743c0.5731201-0.9347649,1.334549-1.3499928,2.2359924-1.3499928
		c1.7666931,0,2.8404999,1.5407209,2.8404999,4.1557312c0,2.8419561-1.0569153,4.7476892-2.996933,4.7476892
		c-1.4200134,0-2.06073-1.0569172-2.3735962-1.5769253l-0.7957153,1.402626h-1.473114V4H180.9977875z M182.1942596,14.9636631
		c0.9521332,0,1.2118988-1.2635584,1.2118988-2.7540636c0-1.2119122-0.1723785-2.6150246-1.1602478-2.6150246
		c-1.0226288,0-1.2481232,1.5064335-1.2481232,2.6323977C180.9977875,13.2665167,181.1030579,14.9636631,182.1942596,14.9636631"/>
	<path d="M193.7944794,12.2972727h-4.7462463c0,2.0259542,0.7628784,2.9090586,1.9226379,2.9090586
		c0.6938324,0,1.4721527-0.4678612,1.8024139-0.6576166l0.6918945,1.2635727
		c-0.5026245,0.2945204-1.6281128,0.9193087-3.0138245,0.9193087c-2.477417,0-4.1055145-1.8198004-4.1055145-4.4690981
		c0-2.876215,1.9057312-4.4343228,4.002182-4.4343228c2.5802612,0,3.4464569,2.095017,3.4464569,3.9664617V12.2972727z
		 M191.4908905,11.0491409c0-0.3288078,0-1.9052458-1.1085968-1.9052458c-0.9521332,0-1.2118988,1.0047693-1.2476196,1.9052458
		H191.4908905z"/>
	<path d="M196.7192841,8.0005875l0.0864258,2.1481218c0.3288116-0.8657179,0.9347687-2.2688298,2.1476288-2.2688298
		c0.2950134,0,0.5547791,0.0690479,0.7961884,0.120708l-0.4147339,2.2171688
		c-0.1400299-0.0342731-0.434082-0.1033201-0.6581116-0.1033201c-0.7107391,0-1.6817017,0.4152279-1.6817017,2.8747702v3.5686207
		h-2.5633545V8.0005875H196.7192841z"/>
	<polygon points="137.4901123,57.4161148 139.5522919,65.1076355 141.6487427,57.4161148 144.887085,57.4161148 
		144.887085,68.8481216 142.3237305,68.8481216 142.3237305,59.7023315 139.8641968,68.8481216 138.4263153,68.8481216 
		136.0010529,59.7023315 136.0010529,68.8481216 134.2517548,68.8481216 134.2517548,57.4161148 	"/>
	<path d="M149.895752,60.118679c2.7540741,0,3.8800354,2.129776,3.8800354,4.3469429
		c0,2.5802536-1.4200134,4.5564804-4.0712433,4.5564804c-2.5285797,0-3.9143066-1.9400253-3.9143066-4.3652802
		C145.7902374,62.0929871,147.2450104,60.118679,149.895752,60.118679 M149.7924347,67.6706467
		c0.9004669,0,1.2809448-1.1428452,1.2809448-3.1881332c0-1.9569092-0.3119049-3.0138245-1.2466736-3.0138245
		c-1.142868,0-1.3340607,1.5426369-1.3340607,3.0485992C148.4926453,66.3366013,148.7528839,67.6706467,149.7924347,67.6706467"/>
	<path d="M157.138855,58.0220108v2.2688293h1.5407257v1.3514519h-1.4026337v4.5550346c0,0.745491,0,1.2302551,0.6764526,1.2302551
		c0.2235413,0,0.3804626-0.0511703,0.5711823-0.1028366l0.3461914,1.3673859
		c-0.9173737,0.2954865-1.8193054,0.2954865-1.9743042,0.2954865c-1.923111,0-2.1828766-1.2650299-2.1828766-2.4431381V61.642292
		h-1.1085815v-1.3514519h1.2292938l0.0704803-2.2688293H157.138855z"/>
	<path d="M162.8383942,60.118679c2.7540741,0,3.8800354,2.129776,3.8800354,4.3469429
		c0,2.5802536-1.4200134,4.5564804-4.0712433,4.5564804c-2.5285797,0-3.9143066-1.9400253-3.9143066-4.3652802
		C158.7328796,62.0929871,160.1876526,60.118679,162.8383942,60.118679 M162.7350769,67.6706467
		c0.9004669,0,1.2809448-1.1428452,1.2809448-3.1881332c0-1.9569092-0.3119049-3.0138245-1.2466736-3.0138245
		c-1.1428528,0-1.3335876,1.5426369-1.3335876,3.0485992C161.4357605,66.3366013,161.6955261,67.6706467,162.7350769,67.6706467"/>
	<path d="M169.7514496,60.2909431l0.0873871,2.1481247c0.3288116-0.8657188,0.9347534-2.2683449,2.1481171-2.2683449
		c0.2945251,0,0.5542908,0.069046,0.7957153,0.1202202l-0.4152374,2.2176552
		c-0.1390686-0.0347595-0.4331055-0.1038055-0.6571503-0.1038055c-0.7111969,0-1.6802521,0.4147568-1.6802521,2.8747711v3.5686188
		h-2.5647888v-8.5572395H169.7514496z"/>
	<path d="M183.4565277,59.3389397c-0.3993073-0.1733246-0.9878845-0.3988113-1.7676392-0.3988113
		c-1.7835846,0-2.7714539,1.559063-2.7714539,4.3131409c0,2.2866859,0.5716705,4.1745644,2.4595337,4.1745644
		c0.2085876,0,0.2945251-0.0168991,0.5373993-0.0516586v-2.9105225h-1.3688354v-1.5580902h3.9321899v5.2657623
		c-0.9521484,0.4495163-1.9057312,0.8488159-3.3431396,0.8488159c-3.065979,0-5.3174133-2.200264-5.3174133-5.8200607
		c0-3.6376534,2.2514343-5.9426842,5.4912415-5.9426842c1.3335876,0,2.2171631,0.3292809,2.7714539,0.5547676
		L183.4565277,59.3389397z"/>
	<path d="M187.5462036,60.2909431l0.0878754,2.1481247c0.3283234-0.8657188,0.9347534-2.2683449,2.1481171-2.2683449
		c0.2940521,0,0.5542908,0.069046,0.7952271,0.1202202l-0.4147644,2.2176552
		c-0.1395416-0.0347595-0.4335632-0.1038055-0.657608-0.1038055c-0.7112122,0-1.6802521,0.4147568-1.6802521,2.8747711v3.5686188
		h-2.5648041v-8.5572395H187.5462036z"/>
	<path d="M194.2177429,60.118679c2.7540741,0,3.8800354,2.129776,3.8800354,4.3469429
		c0,2.5802536-1.4200134,4.5564804-4.0707703,4.5564804c-2.5290527,0-3.9147797-1.9400253-3.9147797-4.3652802
		C190.1122284,62.0929871,191.5670013,60.118679,194.2177429,60.118679 M194.1144257,67.6706467
		c0.9004669,0,1.2809448-1.1428452,1.2809448-3.1881332c0-1.9569092-0.3114319-3.0138245-1.2466736-3.0138245
		c-1.142868,0-1.3335876,1.5426369-1.3335876,3.0485992C192.8151093,66.3366013,193.0748749,67.6706467,194.1144257,67.6706467"/>
	<path d="M203.850769,68.8479767l-0.1207123-1.3509521c-0.6407318,1.2476349-1.7150116,1.5247803-2.477417,1.5247803
		c-1.7145233,0-2.5116882-1.1785965-2.5116882-2.8057404v-5.925312h2.5638428v5.1107903
		c0,0.5716629-0.0521545,1.8526077,0.987381,1.8526077c0.8662109,0,1.2466736-1.0569153,1.2466736-2.1297607v-4.8336372h2.5633698
		v8.5572243H203.850769z"/>
	<path d="M209.6721649,60.2908401l0.1221466,1.3688393c0.5026398-1.0052567,1.4200134-1.5407181,2.3895416-1.5407181
		c1.5769348,0,2.8931274,1.2461853,2.8931274,4.2774086c0,2.668129-1.0395355,4.6255264-2.9795532,4.6255264
		c-0.9516602,0-1.6797791-0.5195236-2.112381-1.2993088V72h-2.5643311V60.2908401H209.6721649z M211.1969452,67.2542419
		c0.9004822,0,1.1776276-1.1602402,1.1776276-2.7371597c0-1.7488251-0.2771454-2.6319275-1.1259613-2.6319275
		c-1.0912018,0-1.2635651,1.559063-1.2635651,2.7197876C209.9850464,65.5054321,210.0714569,67.2542419,211.1969452,67.2542419"/>
</g>
</svg>
