<?xml version="1.0" encoding="utf-8"?>
<!-- Generator: Adobe Illustrator 25.3.0, SVG Export Plug-In . SVG Version: 6.00 Build 0)  -->
<svg version="1.1" id="Layer_1" xmlns="http://www.w3.org/2000/svg" xmlns:xlink="http://www.w3.org/1999/xlink" x="0px" y="0px"
	 viewBox="0 0 170 80" style="enable-background:new 0 0 170 80;" xml:space="preserve">
<style type="text/css">
	.st0{fill:#FFFFFF;}
	.st1{fill:#A7A8A9;}
	.st2{fill:#194F90;}
	.st3{fill:#D7282F;}
</style>
<g>
	<g>
		<rect x="36.6241074" y="9" class="st0" width="96.7517853" height="62"/>
	</g>
	<g>
		<g>
			<path class="st1" d="M75.1667862,29.3123112H67.242424c-0.2886047,0-0.4532776,0.0825005-0.4946976,0.247509
				c-0.0274963,0.1716366,0.1030502,0.2574558,0.3916473,0.2574558h3.544693
				c-0.2196808,1.0374298-0.437706,2.0679035-0.654068,3.0914154c-0.2166977,1.0235138-0.4347229,2.0576324-0.6543961,3.1016922
				c-0.027504,0.1716347,0.0960846,0.2574501,0.3707657,0.2574501c0.2952271,0,0.4569244-0.0858154,0.4844208-0.2574501
				c0.2196808-1.0440598,0.4360504-2.0781784,0.6491013-3.1016922c0.2130508-1.0235119,0.4294205-2.0539856,0.6491013-3.0914154
				h3.5347519c0.3021851,0,0.4668579-0.0858192,0.4943619-0.2574558
				C75.5995178,29.3948116,75.4689713,29.3123112,75.1667862,29.3123112 M64.8209763,30.6933422
				c0.0410843-0.2060966,0.0271683-0.393301-0.04142-0.5616264c-0.0685883-0.1683197-0.1852188-0.3127861-0.3502274-0.4330597
				c-0.1650085-0.1199455-0.3777313-0.2143803-0.6388245-0.2833023c-0.261097-0.0685883-0.559967-0.1030426-0.8966103-0.1030426
				h-0.8757401c-1.2985268,0-2.1020279,0.3402843-2.411171,1.0201988c-0.2405548,0.5152397-0.4844208,1.0251694-0.7319336,1.5301342
				c-0.2471809,0.5049667-0.4910469,1.0152359-0.7316017,1.530468c-0.0821724,0.0550041-0.1646767,0.1096802-0.2471809,0.1646805
				s-0.1683235,0.1100006-0.2574539,0.1650047c-0.0344582-0.5702362-0.0656052-1.1351738-0.0927734-1.6951447
				c-0.027504-0.559967-0.058651-1.1249008-0.0927773-1.6951427c-0.0550041-0.6799145-0.7249756-1.0201988-2.0095863-1.0201988
				h-0.8449211c-0.6868744,0-1.255455,0.1272354-1.7054176,0.3813744s-0.7196732,0.5874672-0.8088074,0.9996567
				l-1.1027031,5.3273144c-0.0410881,0.1716309,0.0788574,0.2574501,0.3608284,0.2574501
				c0.2816429,0,0.4430046-0.0858192,0.4840927-0.2574501l1.1027069-5.3273144
				c0.0275002-0.1169624,0.0858154-0.2269669,0.1752777-0.3300171c0.0891304-0.1030483,0.2041054-0.1921787,0.3452568-0.2677231
				c0.1404915-0.0755444,0.2988701-0.1355171,0.4738197-0.1802521c0.1752815-0.0447292,0.3624878-0.0672626,0.5616226-0.0672626
				h0.8654671c0.8038368,0,1.2193375,0.1891956,1.2471695,0.5669289c0.0546722,0.9413395,0.1063614,1.8720779,0.1544075,2.7925453
				c0.0480423,0.9204674,0.0993996,1.8478928,0.1544037,2.78228c-0.0410881,0.1785927,0.0825043,0.2677231,0.3711014,0.2677231
				c0.2952271,0,0.4638786-0.0891304,0.5049667-0.2677231c0.4396896-0.9343872,0.8793793-1.8618126,1.3190727-2.78228
				c0.4393578-0.9204674,0.8826904-1.8512058,1.3293419-2.7925453c0.1921768-0.3777332,0.6832237-0.5669289,1.4734764-0.5669289
				h0.8757362c0.1921768,0,0.3691139,0.0225334,0.5308075,0.0672626c0.1613655,0.044735,0.2952271,0.1047077,0.4019203,0.1802521
				c0.1063576,0.0755444,0.1852188,0.1646748,0.236908,0.2677231c0.0513535,0.1030502,0.0632858,0.2130547,0.0361137,0.3300171
				c-0.1855507,0.8999252-0.3711014,1.7875843-0.5566521,2.6636562c-0.1852188,0.8757324-0.3707695,1.7637329-0.556324,2.6636581
				c-0.0410843,0.1716309,0.0788612,0.2574501,0.3608322,0.2574501c0.281311,0,0.4430046-0.0858192,0.4840889-0.2574501
				L64.8209763,30.6933422z M49.6011276,34.4182816c0.0275002-0.1613617,0.0583153-0.3247108,0.0927734-0.4893875
				c0.0341301-0.1991348,0.0168991-0.3846855-0.0516891-0.5566559c-0.0685883-0.1716309-0.1852188-0.3194084-0.3502274-0.4430008
				s-0.3727608-0.2196846-0.6232567-0.2886009c-0.2511559-0.0685883-0.5410805-0.1030464-0.8707657-0.1030464h-4.6371269
				c-0.9068794,0-1.3087997-0.2816391-1.2057495-0.844923l0.2060928-0.9993248
				c0.0205421-0.1239243,0.0755463-0.2372417,0.1650085-0.3402901c0.0891304-0.1030445,0.2024498-0.1921787,0.3399582-0.2677231
				c0.1375046-0.0755463,0.2972107-0.1341934,0.4791183-0.1752777c0.1819077-0.04109,0.3727608-0.061964,0.5718956-0.061964
				h6.1520233c0.1096725,0,0.2180214-0.0308113,0.3243828-0.0927753c0.1063576-0.0616264,0.1666641-0.1269035,0.1802483-0.1954918
				c0.0414162-0.1650085-0.0891304-0.247509-0.3913155-0.247509h-6.1520195c-0.6868706,0-1.255455,0.1272354-1.7054176,0.3813744
				c-0.4499588,0.2541389-0.7196732,0.5874672-0.8088036,0.9996567c-0.0344582,0.1646748-0.0636177,0.3313427-0.0874748,0.4996624
				c-0.024189,0.1683197-0.0533447,0.3349876-0.0878067,0.4996624c-0.0410843,0.1994686-0.0255127,0.3830318,0.0463905,0.5513515
				c0.0722313,0.1683273,0.1908531,0.3144455,0.3555298,0.4380379c0.1650085,0.1235886,0.3744164,0.2200089,0.6285553,0.2885971
				S42.7178345,33.0737,43.0475197,33.0737h4.636795c0.3777275,0,0.6527405,0.0460587,0.824379,0.1388321
				c0.1716309,0.0927773,0.2799797,0.2200127,0.3247147,0.3813744c0.0447273,0.1613655,0.0447273,0.3538704,0,0.577198
				c-0.044735,0.2233238-0.0944328,0.4688492-0.149437,0.7365723c-0.0205421,0.1235886-0.0772018,0.2372398-0.1699791,0.3402901
				c-0.0927734,0.1027145-0.2097397,0.1921806-0.3502274,0.2677231c-0.1411514,0.0755463-0.3008575,0.1338615-0.4794502,0.1752777
				c-0.1785927,0.0410881-0.3641472,0.0616302-0.556324,0.0616302h-6.2444649c-0.2886009,0-0.4499626,0.0861473-0.4844208,0.2577858
				c-0.013916,0.0825005,0.0258446,0.149437,0.118618,0.2007942c0.0927773,0.0516853,0.2077522,0.0775299,0.3452606,0.0775299
				h6.1619606c0.3296852,0,0.6371689-0.034462,0.9224548-0.1030426c0.2849541-0.0685883,0.535778-0.1633568,0.7521439-0.2836304
				c0.2163696-0.1199455,0.3949585-0.2644119,0.5357819-0.4327316c0.1408195-0.1683273,0.2319374-0.3555298,0.2730255-0.5616264
				C49.5428085,34.743,49.5736237,34.5796509,49.6011276,34.4182816"/>
		</g>
		<g>
			<path class="st1" d="M47.02491,36.537674h-6.1618538c-0.1799088,0-0.3368416-0.0367241-0.4665985-0.1090431
				c-0.1860542-0.1030579-0.2747154-0.2706718-0.2430038-0.4596405c0.0359154-0.1787758,0.1763496-0.4654617,0.7299881-0.4654617
				h6.2446899c0.1731148,0,0.3413734-0.0186081,0.500248-0.055172c0.1559639-0.0360794,0.2967186-0.0873642,0.4180603-0.1522408
				c0.1138992-0.0613174,0.2093544-0.1338005,0.2828064-0.2151794c0.0605087-0.0673027,0.0964241-0.1371956,0.1090431-0.2137222
				c0.0566254-0.2769814,0.1064568-0.5219269,0.1507874-0.7450333c0.0368881-0.1837921,0.0381813-0.3391075,0.0042076-0.4617424
				c-0.0165024-0.0601845-0.0556564-0.1491699-0.2028847-0.2287674c-0.0918922-0.0496712-0.2892761-0.1090469-0.7060394-0.1090469
				h-4.6368446c-0.3497849,0-0.6665649-0.0375328-0.9409599-0.1116333c-0.2824783-0.0760384-0.5225754-0.187027-0.7128372-0.3295631
				c-0.1993217-0.1494904-0.3455772-0.3306923-0.4352074-0.5390739c-0.0922203-0.2158279-0.112606-0.451067-0.0614815-0.700058
				c0.033329-0.1600094,0.0618057-0.321312,0.0851021-0.4843941c0.0249138-0.1737595,0.0546837-0.3459015,0.0905991-0.5157795
				c0.1045151-0.4839077,0.4170914-0.8754349,0.9296341-1.1651974c0.4860115-0.2743912,1.1011314-0.4135284,1.8282051-0.4135284
				h6.151825c0.1766739,0,0.4277687,0.0203838,0.565609,0.1972179c0.0770111,0.0985298,0.100956,0.2263412,0.0673065,0.3598175
				c-0.0252419,0.1291065-0.1258736,0.2510948-0.2967186,0.3502712c-0.1439934,0.0838051-0.2951012,0.1263561-0.4494476,0.1263561
				h-6.151825c-0.1792641,0-0.3533478,0.0187664-0.5170746,0.0558167c-0.1575813,0.035593-0.2970428,0.0863953-0.4145012,0.1507854
				c-0.1106644,0.060833-0.2019119,0.1321812-0.2711563,0.2121048c-0.059864,0.0687599-0.0948067,0.139946-0.1077499,0.2180901
				l-0.207737,1.0090714c-0.0378571,0.2067661,0.0317116,0.2902489,0.0543594,0.3177528
				c0.0711861,0.0850983,0.2831306,0.2279587,0.9073067,0.2279587h4.6371689c0.3497849,0,0.6646233,0.0376968,0.9364281,0.1117935
				c0.279892,0.0771751,0.5173988,0.1878357,0.7066879,0.3294029c0.2012634,0.1507835,0.3468742,0.3358688,0.432621,0.5500793
				c0.0854263,0.2145309,0.1074295,0.4470177,0.0653648,0.6911583c-0.0352707,0.1702003-0.0653648,0.3306923-0.0922203,0.4890823
				c-0.0281525,0.1643791-0.0598602,0.3305321-0.0948067,0.4983063c-0.0485382,0.2441406-0.1582298,0.4703178-0.3258438,0.6706123
				c-0.1601677,0.1915588-0.3640213,0.3567429-0.6060562,0.4907036c-0.2345924,0.1307259-0.5089836,0.2344322-0.8144417,0.3078804
				C47.7021561,36.5006256,47.3721085,36.537674,47.02491,36.537674z M40.7080612,36.0199547
				c0.0465965,0.0139122,0.0973969,0.0197372,0.154995,0.0197372H47.02491c0.3080444,0,0.5989418-0.0323563,0.8642731-0.0960999
				c0.2614479-0.0629387,0.493454-0.1501427,0.6892166-0.2591858c0.1886444-0.1043549,0.3452568-0.2305489,0.46595-0.3748627
				c0.1148682-0.1375198,0.1867027-0.2847481,0.2197075-0.4505806c0.0342979-0.1637268,0.0647163-0.3240623,0.0915718-0.4824524
				v-0.0001602c0.0281525-0.1642151,0.059536-0.3305321,0.0944824-0.4983063
				c0.0249176-0.145771,0.012619-0.2839394-0.0391502-0.4135323c-0.0517731-0.1295891-0.1394615-0.2396049-0.2682457-0.3360329
				c-0.1391373-0.1040306-0.3209877-0.1873512-0.5400467-0.2476959c-0.228447-0.0624504-0.499279-0.094162-0.8047333-0.094162
				h-4.6371689c-0.6393852,0-1.0613289-0.133152-1.289772-0.4070587c-0.1604958-0.1925278-0.2145309-0.4387684-0.1608162-0.7317657
				l0.2070885-1.0047035c0.026207-0.1596851,0.1012764-0.3154869,0.2210007-0.4534912
				c0.1074295-0.1242542,0.2446251-0.232975,0.4077072-0.3226051c0.1585503-0.0868797,0.3416939-0.1540222,0.5442543-0.1998081
				c0.1999702-0.0451393,0.4109421-0.0681133,0.6270905-0.0681133h6.151825c0.0524178,0,0.1041908-0.0121346,0.1572571-0.0368881
				c-0.0135918-0.0004845-0.0281525-0.0008087-0.0440063-0.0008087h-6.151825c-0.640358,0-1.1729622,0.1174583-1.5832558,0.3491383
				c-0.3886147,0.2197094-0.6135025,0.4929695-0.6875992,0.835474c-0.0330048,0.1579056-0.0614815,0.3193684-0.0844536,0.4821281
				c-0.0245934,0.1734371-0.0550079,0.345417-0.0906029,0.515295c-0.0307388,0.149168-0.0203857,0.281023,0.0317116,0.402853
				c0.0553322,0.1284561,0.145607,0.2387962,0.2760086,0.3366776c0.1391373,0.1043549,0.3222847,0.1875153,0.5439339,0.2472153
				c0.2323265,0.0627708,0.5051003,0.0944824,0.811203,0.0944824h4.6368446c0.4242058,0,0.7325745,0.0551682,0.9428978,0.1689072
				c0.232975,0.1258698,0.3827896,0.3056183,0.4462128,0.5340614c0.0546837,0.1983528,0.0563011,0.4313278,0.0042076,0.6922913
				c-0.0449791,0.2237511-0.0948105,0.4696693-0.1498184,0.737915c-0.0265312,0.1613007-0.1041908,0.3182373-0.2287674,0.4567261
				c-0.1122818,0.1240921-0.252388,0.2316818-0.4170876,0.3203392c-0.16082,0.0859108-0.3426704,0.152729-0.5413437,0.1986771
				c-0.1960869,0.0451393-0.4018822,0.0679512-0.6125298,0.0679512h-6.2446899
				C40.8129005,36.0015106,40.7510986,36.0084686,40.7080612,36.0199547z M63.2341232,36.5271606
				c-0.2559509,0-0.4300346-0.0627747-0.5319595-0.1920433c-0.0559769-0.0710258-0.1138992-0.1933365-0.0708618-0.3724365
				c0.1837883-0.8925819,0.3695221-1.7811241,0.5546074-2.6572037c0.1857338-0.8757591,0.3711433-1.7630043,0.5565529-2.662384
				c0.0155296-0.0671425,0.0106773-0.1172962-0.0152092-0.1685829c-0.033329-0.0663338-0.0851021-0.1240921-0.1579056-0.1758633
				c-0.0825119-0.0582447-0.1915588-0.1064568-0.3242226-0.1433449c-0.1397858-0.0386677-0.2960739-0.0582428-0.4646568-0.0582428
				h-0.8755951c-0.685009,0-1.1059837,0.1449623-1.2515907,0.4308414c-0.4436226,0.9354572-0.8869209,1.8662224-1.326664,2.7869606
				c-0.4361801,0.9132919-0.8723602,1.8332176-1.3088646,2.7602615c-0.0495033,0.1735992-0.212265,0.431488-0.7396927,0.431488
				c-0.2588615,0-0.4352112-0.0634193-0.539402-0.1939812c-0.052742-0.0664978-0.1077499-0.1778069-0.0821877-0.3389473
				c-0.0543594-0.9246178-0.1051636-1.8422775-0.1524048-2.7531471c-0.0482101-0.9200859-0.0999832-1.8502045-0.1543465-2.7911644
				c-0.0216789-0.2886295-0.6351776-0.3323116-0.9988785-0.3323116h-0.8655624
				c-0.1773224,0-0.3452568,0.0200615-0.4996033,0.0595379c-0.1556396,0.0396385-0.2960701,0.0928669-0.4180603,0.15839
				c-0.113575,0.060833-0.2057953,0.1318569-0.2747154,0.2114563c-0.0630989,0.0726433-0.1025734,0.1459332-0.1210175,0.2239151
				l-1.1011276,5.3207207c-0.0420647,0.1750526-0.1896172,0.4560814-0.7280464,0.4560814
				c-0.2559471,0-0.4300346-0.0627747-0.5319595-0.1920433c-0.0559769-0.0710258-0.1138992-0.1933365-0.0708618-0.3724365
				l1.1008034-5.3197498c0.1048393-0.4847164,0.4174156-0.8762436,0.9299583-1.1660061
				c0.4860115-0.2743912,1.1011276-0.4135284,1.8282051-0.4135284h0.8448563c1.430851,0,2.190609,0.4201622,2.2575874,1.2490025
				c0.0346222,0.5762882,0.0656853,1.1422234,0.0935135,1.7029781c0.0200615,0.4193573,0.0427132,0.8412971,0.0673027,1.2659912
				l0.0851021-0.0566254c0.2316818-0.4952316,0.4665947-0.985775,0.7041016-1.4714603
				c0.2468872-0.5038071,0.4902153-1.0123081,0.7299881-1.5261459c0.351078-0.7714043,1.2383232-1.1637402,2.6368179-1.1637402
				h0.8759193c0.3565826,0,0.679512,0.0373726,0.9597282,0.1111469c0.2896004,0.0763645,0.5326042,0.1849251,0.7218971,0.3226051
				c0.2022324,0.1473904,0.3481674,0.3292389,0.4345627,0.540535c0.0870438,0.2138824,0.105484,0.4507408,0.0550079,0.7044239
				l-0.0003204,0.0017796l-1.1027489,5.3271923C63.920105,36.2461319,63.7725525,36.5271606,63.2341232,36.5271606z
				 M63.1273422,36.022541c0.0245934,0.0035591,0.0592155,0.0066338,0.106781,0.0066338
				c0.0378571,0,0.2268257-0.0032349,0.2420349-0.066494l1.1008072-5.3186169
				c0.0313873-0.1582279,0.0223236-0.2951012-0.0281525-0.4183826c-0.0514526-0.1261959-0.1384888-0.2328129-0.2659836-0.326004
				c-0.1391373-0.100956-0.3261604-0.1829815-0.5559006-0.2436523c-0.2388-0.0627728-0.5190163-0.0946465-0.8328857-0.0946465
				h-0.8759193c-1.1855812,0-1.9207458,0.2941303-2.1847839,0.8741417c-0.2420349,0.5190144-0.4866562,1.030426-0.7348404,1.5366611
				c-0.2462425,0.5034847-0.4895706,1.0124683-0.7296638,1.5263081l-0.0294456,0.0629349l-0.3048096,0.2036896
				c-0.0850983,0.0564651-0.1734352,0.1129303-0.2646828,0.1693954l-0.3543167,0.219059l-0.025238-0.4157944
				c-0.0346222-0.5711136-0.0656853-1.1370468-0.0931892-1.6979637c-0.0271835-0.558979-0.0582466-1.1229725-0.0925446-1.6924648
				c-0.0420647-0.519825-0.6348572-0.7859669-1.7608986-0.7859669h-0.8448563c-0.640358,0-1.172966,0.1174583-1.5832596,0.3491383
				c-0.3886147,0.2197094-0.6134987,0.4929695-0.6875992,0.835474l-1.0920677,5.2765503
				c0.0245934,0.0035591,0.0592155,0.0066338,0.106781,0.0066338c0.0378571,0,0.2268257-0.0032349,0.2420349-0.066494
				l1.1008034-5.3197498c0.0381851-0.1627579,0.1155167-0.3094997,0.2307091-0.4426517
				c0.1090469-0.1255474,0.2488327-0.2347546,0.4161186-0.3242226c0.1572609-0.0844536,0.3355484-0.1524048,0.5300179-0.2019119
				c0.1944695-0.0498295,0.4041481-0.0750694,0.6228867-0.0750694h0.8655624c0.9529343,0,1.4564171,0.2682438,1.4955673,0.7974529
				c0.0546875,0.9459743,0.1064568,1.8770657,0.1546707,2.7981243c0.0478897,0.9199257,0.0993385,1.8466454,0.1543465,2.7806473
				l0.0016174,0.0244293c0.0258865,0.0046921,0.0647163,0.0088997,0.1210175,0.0088997
				c0.0407715,0,0.2459183-0.0035591,0.2620964-0.074585l0.0174751-0.0501518
				c0.4397392-0.9349747,0.8798027-1.8628273,1.3198624-2.7835617c0.4390945-0.920414,0.8823929-1.8508549,1.3289299-2.7921391
				c0.2404137-0.4725819,0.8108788-0.709116,1.6984482-0.709116h0.8755951c0.213562,0,0.4145012,0.0257244,0.5973206,0.0763645
				c0.188324,0.0520954,0.3497887,0.125061,0.4792175,0.2169571c0.1394615,0.0988522,0.245594,0.2197075,0.3158073,0.359169
				c0.0779877,0.1562881,0.0967484,0.3237381,0.0563049,0.4981461c-0.184761,0.8943634-0.3701706,1.7825794-0.5559044,2.658823
				C63.4913673,34.268116,63.3091927,35.1395035,63.1273422,36.022541z M69.7464142,36.5168037
				c-0.2472153,0-0.4187088-0.0601845-0.5241928-0.1839523c-0.0579224-0.0677872-0.120697-0.1855698-0.0925446-0.3619194
				l1.2473831-5.9046135h-3.2377014c-0.2591858,0-0.4374695-0.0613174-0.544899-0.1876736
				c-0.0575943-0.0674648-0.120369-0.1844387-0.0925446-0.3581982c0.0543594-0.2200317,0.2226181-0.4570503,0.7406693-0.4570503
				h7.9240494c0.1769943,0,0.4277649,0.0203838,0.5656052,0.1972179c0.0770111,0.0985298,0.1009598,0.2263412,0.0673065,0.3598175
				c-0.0236206,0.1532135-0.1569366,0.4458866-0.7358093,0.4458866h-3.3328323
				c-0.2054749,0.9704056-0.4080276,1.9348221-0.6073532,2.8929329c-0.2129135,1.0239525-0.4293823,2.0582657-0.6490936,3.1024437
				C70.4485703,36.2242928,70.3165512,36.5168037,69.7464142,36.5168037z M69.630249,36.0100861
				c0.0245895,0.004528,0.0617981,0.0087357,0.1161652,0.0087357c0.1627579,0,0.2281189-0.0323563,0.2381516-0.0435219
				c0.2222977-1.0600357,0.4387665-2.0940208,0.65168-3.1173286c0.2129135-1.0237942,0.4293823-2.0545464,0.6490936-3.0922546
				l0.0417404-0.1973801h3.7366562c0.0498276,0,0.0899506-0.0027504,0.1226349-0.0067959
				c-0.0064697-0.0001621-0.0129471-0.0001621-0.0197372-0.0001621h-7.9240494
				c-0.0446548,0-0.0841293,0.0025883-0.1177826,0.0067959c0.0045242,0.0001621,0.0097046,0.0001621,0.0145569,0.0001621h3.8521729
				L69.630249,36.0100861z M66.9617157,29.544714L66.9617157,29.544714L66.9617157,29.544714z"/>
		</g>
		<g>
			<path class="st2" d="M83.0553436,31.210165c0.7425385,1.7405376,1.4449768,3.2358837,2.4022293,4.7716503
				c0.467186,0.7491646,0.9297409,1.4681778,1.5685654,2.0188675c0.2799835,0.2415504,0.6928406,0.5420761,1.2846146,0.5172272
				c0.6905136-0.0291595,1.7120438,0.010273,1.5682373,0.8008499c-0.114975,0.6302147-0.8184128,0.9420052-1.3846741,1.1176147
				c-0.5142441,0.1593781-1.1789093,0.2226677-1.8353043,0.1504326c-1.1457748-0.1265755-2.1368256-0.6375046-2.8362808-1.2180138
				c-1.5427322-1.2806358-2.3989182-3.054306-3.2700119-4.821682c-0.1371765,0.094429-0.2713699,0.261425-0.400589,0.4171562
				c-1.8823547,2.2680321-3.9462814,4.3757019-6.5065613,6.0059013c-2.0400696,1.2991867-4.3481979,2.3160744-7.5078735,2.5195236
				c-0.7279587,0.0467148-2.7975159,0.1958199-2.7862511-0.5506897c0.0069618-0.4489708,0.5311432-0.7256393,0.8343163-0.8508911
				c0.4194794-0.1732864,0.8449249-0.1901855,1.4347153-0.1666603c1.1434555,0.0453911,2.1762466-0.1076889,3.0198441-0.3170929
				c1.7594299-0.4367142,3.2454987-1.265728,4.5045929-2.1855354c2.6122971-1.9081955,4.5373917-4.324337,6.4399567-6.940609
				c-1.1610184-2.4774456-2.2647247-5.1384525-3.8872986-7.1907825c-0.2753448-0.3482399-0.5258408-0.6934948-0.8843536-0.9678459
				c-0.1739502-0.1332035-0.3654709-0.2425461-0.566925-0.3502312c-0.2975464-0.1587143-0.8747406-0.250494-0.9012451-0.7007847
				c-0.0334702-0.573225,0.6418076-0.9482994,1.0344467-1.1345177c0.5112534-0.2422066,1.1573715-0.3528805,1.7852631-0.2335968
				c1.1689758,0.222332,2.0029602,0.9164944,2.6361618,1.6686401c1.3366318,1.5867958,2.2312546,3.5145397,3.2199707,5.405508
				c2.340271-3.241518,4.6835175-6.6205406,7.5078735-9.5598736c1.3826904-1.4393463,2.7859268-2.8661041,4.4379959-4.1043272
				c1.5579681-1.1679831,3.5284576-2.3538532,6.0062332-2.5360918c0.5274887-0.038764,1.3644638-0.055994,1.4012375,0.4337282
				c0.0155792,0.2084131-0.1272278,0.4396887-0.2335892,0.5506907c-0.3744202,0.3913145-0.9393539,0.4850807-1.651741,0.5838213
				c-1.8873215,0.2624254-3.1656418,1.3157616-4.3544922,2.302495
				C90.3206711,20.6403656,86.6802216,26.1386471,83.0553436,31.210165"/>
		</g>
		<g>
			<path class="st2" d="M94.2168198,28.5408096c-0.4582443,2.0997143-0.9738159,4.4820633-1.4181442,6.6901245
				c-0.0748825,0.3717613-0.115303,0.8021736-0.3001938,1.0009804c-0.2723618,0.2929077-1.4446487,0.4330673-1.5851364-0.0997314
				c-0.0616302-0.2335968,0.0878067-0.6676521,0.1500931-0.9678497c0.45858-2.2054138,0.9555893-4.4138031,1.4015808-6.6069565
				c-0.7839584-0.0304813-1.5549927-0.0165672-2.5526581-0.0165672c-0.6096725,0-2.1013718,0.1785927-2.2355652-0.3671227
				c-0.1361771-0.5523491,0.3856812-0.7547951,0.8843536-0.7839584c0.8929672-0.0526829,1.8230438,0,2.7693481,0h5.5224762
				c0.7703705,0,2.2454987-0.1845551,2.3690948,0.3836956c0.2011261,0.9241123-1.2769928,0.7673855-2.1020355,0.7673855H94.2168198z
				"/>
		</g>
		<g>
			<path class="st2" d="M101.157402,27.3895626h5.6225357c1.9343719,0,4.2425003-0.2349224,4.8717194,1.0844841
				c0.2249832,0.4718285,0.0284958,1.0841503-0.0834961,1.5851383c-0.2451935,1.0964108-0.9728241,1.6477642-1.9519348,1.9684982
				c-0.967186,0.3167648-2.3614731,0.2335968-3.6871719,0.2335968c-0.4075546,0-0.9860764-0.0192184-1.0009842,0.3005257
				c-0.0099411,0.2090797,0.4062271,0.3734207,0.5503616,0.4668655c1.2551193,0.8127785,2.3883057,1.5380859,3.6871643,2.3525238
				c0.2137222,0.1338615,0.4479752,0.2859497,0.4506302,0.5506897c0.004303,0.4459877-0.6606979,0.7031059-1.2849503,0.5506897
				c-0.2292786-0.0563278-0.4618835-0.2465172-0.6838837-0.3840218c-1.0887909-0.673954-2.1371536-1.3488922-3.2365417-2.052002
				c-0.4675293-0.2988701-1.1693115-0.6073494-1.2514801-1.2014427c-0.0712433-0.5165634,0.250824-0.8999252,0.5172272-1.1176167
				c0.8740768-0.7147026,2.5794907-0.6341896,4.170929-0.6341896c0.887001,0,1.5606155-0.0503654,1.8687668-0.6504211
				c0.0811768-0.1587143,0.1318665-0.4048996,0.1835632-0.6172924c0.0516891-0.2143803,0.1570511-0.4529457,0.133194-0.6507568
				c-0.0589752-0.4963455-0.7667236-0.6080093-1.3846741-0.6172867c-1.9807663-0.0304813-4.0268021,0.0225296-5.9893341,0
				c-0.4506226,2.1656475-0.9456482,4.476757-1.4015808,6.6901169c-0.0954208,0.4625549-0.0947571,0.9065552-0.4171524,1.1179504
				c-0.4085464,0.268055-1.3111191,0.194828-1.4512787-0.1500969c-0.0997314-0.2448616,0.083168-0.7852783,0.1501007-1.1179504
				c0.5125809-2.5553055,1.0881271-5.1241989,1.6013718-7.6579704
				C101.1391754,27.416069,101.1378555,27.3922157,101.157402,27.3895626"/>
		</g>
		<g>
			<path class="st2" d="M118.6422043,27.4062977c1.4847412-0.0705757,3.4817429-0.0699139,3.9207687,1.0510197
				c0.0891266,0.2276306,0.1010513,0.5692463,0.1166306,0.9009151c0.0907898,1.9227753,0.2173538,3.7358761,0.3170929,5.7395039
				c0.0298233,0.6010513,0.1623535,1.0364342-0.2501602,1.2846107c-0.3180923,0.1908493-1.280304,0.2137146-1.4516068-0.1504326
				c-0.0795288-0.1686478-0.0506973-0.6056862-0.0666046-0.9174843c-0.0947571-1.8429222-0.2047653-3.6802101-0.3170929-5.5390377
				c-0.0185547-0.3071537,0.0099411-0.6901875-0.0834961-0.8843517c-0.2034454-0.4224586-1.1050262-0.3502254-1.7518082-0.3502254
				c-0.7809677,0-1.3936157-0.0231972-1.768364,0.333662c-0.200798,0.1908493-0.3233948,0.6159611-0.4671936,0.9174843
				c-0.9479752,1.9910278-1.9237671,4.0373993-2.8531876,6.056591c-0.2137146,0.4642105-0.3677902,0.7342567-1.1676483,0.6838875
				c-0.2978745-0.0188828-0.6623459-0.1278915-0.7007828-0.4171524c-0.0228653-0.1716385,0.0980759-0.336647,0.1835632-0.5172272
				c0.9632111-2.0321159,1.9184647-4.0672169,2.8694153-6.0897293c0.145462-0.3091412,0.2783279-0.6457863,0.4506226-0.9174843
				C116.1763611,27.7170963,117.3052444,27.4699154,118.6422043,27.4062977"/>
		</g>
		<g>
			<path class="st2" d="M116.9571381,31.6606579c0.5178833-0.0457211,1.2958755-0.0165634,1.9519272-0.0165634
				c0.5911102,0,1.4343796-0.0636177,1.5016403,0.4171619c0.1163025,0.8310013-1.1364975,0.7339172-1.9519272,0.7339172
				c-0.6736221,0-2.2140274,0.1663361-2.3525314-0.3671265C115.970726,31.9065151,116.5270538,31.6987629,116.9571381,31.6606579"/>
		</g>
		<g>
			<path class="st1" d="M67.639534,53.8222847c-0.0185547-2.6871796-0.0268402-5.4008713-0.0268402-8.1410675
				c0-0.4612274-0.2332611-1.2345772-1.7948761-1.2345772c-1.5152283,0-1.7412033,0.7733498-1.7412033,1.2345772
				c0,2.7421837,0.0082855,5.457859,0.0268402,8.1473618c0.0175629,2.6875153,0.0268402,5.3909302,0.0268402,8.1095886
				c0,0.5718956-0.3161011,1.0477028-0.9665222,1.4545898c-0.7087402,0.4440002-1.6547241,0.6689796-2.8120995,0.6689796H48.309391
				c-1.1610222,0-2.1275444-0.2263069-2.8730659-0.6732864c-0.6812363-0.4078827-1.012249-0.8823624-1.012249-1.4502831V45.7438431
				c0-0.4728241-0.2332611-1.2660561-1.7948761-1.2660561c-1.5619431,0-1.7952118,0.793232-1.7952118,1.2660561v16.1943245
				c0,1.415493,0.6958199,2.5678978,2.0675735,3.426075c1.3041611,0.8157654,3.0950623,1.2296066,5.3230057,1.2296066
				c2.0450401,0,4.0635757-0.0049667,6.0549393-0.0158997c1.9900398-0.0102768,4.0065842-0.0155792,6.0502968-0.0155792
				c1.0377655,0,2.0079346-0.1156311,2.8843307-0.3439331c0.8816986-0.230278,1.6563797-0.5486984,2.3018341-0.9469757
				c0.6623459-0.4092026,1.1881866-0.9029007,1.5639267-1.4675102c0.389328-0.5858116,0.5864792-1.2133713,0.5864792-1.8657837
				C67.6663742,59.2175217,67.6570969,56.5121155,67.639534,53.8222847z"/>
		</g>
		<g>
			<path class="st1" d="M48.2244072,67.0437622c-2.3132439,0-4.1844826-0.4366608-5.5612984-1.2980194
				c-1.512394-0.9461365-2.2792702-2.2271767-2.2792702-3.8075218V45.7438965c0-0.4025307,0.1621132-1.7160873,2.2452927-1.7160873
				c2.082859,0,2.2449722,1.3135567,2.2449722,1.7160873V61.938221c0,0.2528763,0.0821877,0.6384163,0.7934074,1.0642433
				c0.6743317,0.4043083,1.5631943,0.6092911,2.6419983,0.6092911h12.0421982c1.0716858,0,1.9372482-0.2020721,2.5733986-0.6003952
				c0.6769218-0.4235611,0.7552261-0.8154106,0.7552261-1.0731392c0-2.6392441-0.0090599-5.3666687-0.0268555-8.1067085
				c-0.0177956-2.5907097-0.0268555-5.256813-0.0268555-8.1502304c0-0.3952484,0.158226-1.684536,2.1912575-1.684536
				c2.0828552,0,2.2449646,1.2892876,2.2449646,1.684536c0,2.889534,0.0087357,5.5514297,0.0268631,8.1379356v0.0001602
				c0.0177917,2.7444115,0.0268555,5.4760399,0.0268555,8.1188431c0,0.7422829-0.2229462,1.4538269-0.6620407,2.1147346
				c-0.411911,0.6193237-0.984642,1.1580734-1.7020035,1.6013718c-0.683075,0.421463-1.4988098,0.7576523-2.4245567,0.999527
				c-0.913456,0.2379913-1.9220428,0.3585205-2.9982567,0.3585205c-2.0430565,0-4.0586128,0.0051804-6.0479546,0.0155334
				C52.289814,67.0387497,50.2707024,67.0437622,48.2244072,67.0437622z M42.6291313,44.9276733
				c-0.892746,0-1.3451042,0.2747192-1.3451042,0.8162231V61.938221c0,1.2496529,0.6245003,2.2739296,1.8563538,3.044529
				c1.2315331,0.7704315,2.9419556,1.1611481,5.0840263,1.1611481c2.0443535,0,4.0621719-0.0050125,6.0524864-0.0158539
				c1.990963-0.0103531,4.008461-0.0155334,6.0528107-0.0155334c0.999527,0,1.9317474-0.1108246,2.7707825-0.3293991
				c0.8390312-0.219223,1.5725784-0.5203094,2.1792831-0.8945236c0.6060562-0.3745422,1.0859222-0.8235016,1.425354-1.3339424
				s0.5112457-1.0543709,0.5112457-1.6164246c0-2.6408615-0.0090561-5.3705482-0.0268555-8.113018v0.000164
				c-0.0177994-2.5886078-0.0268555-5.252449-0.0268555-8.1440849c0-0.5206337-0.4523621-0.7846718-1.34478-0.7846718
				c-1.291069,0-1.291069,0.5905266-1.291069,0.7846718c0,2.8913155,0.0087357,5.5553131,0.0268555,8.1442451
				c0.0177994,2.7421455,0.0268555,5.471508,0.0268555,8.1126938c0,0.7293396-0.3963776,1.3470497-1.1778145,1.8359718
				c-0.7814369,0.4892426-1.8078194,0.7374268-3.0509987,0.7374268H48.3095093
				c-1.2441521,0-2.2886543-0.2480164-3.1043892-0.7372665c-0.8167038-0.4887619-1.231205-1.1066284-1.231205-1.836132V45.7438965
				C43.9739151,45.2023926,43.521553,44.9276733,42.6291313,44.9276733z"/>
		</g>
		<g>
			<path class="st1" d="M99.8060226,60.4305954c-0.0182266-0.4857445-0.0265045-0.977459-0.0265045-1.4738083
				c0-0.6918411-0.1964874-1.3445816-0.5841599-1.9403343c-0.3760757-0.5758743-0.8919678-1.0748749-1.534111-1.4837494
				c-0.6295471-0.4002609-1.398262-0.7150345-2.2852631-0.9357071c-0.8760681-0.2170296-1.8449097-0.3270378-2.879364-0.3270378
				h-14.418663c-3.8104248,0-3.8435593-1.6053505-3.8544922-2.1328468l0.0003281-3.0350876
				c-0.0281677-0.5795174,0.2872696-1.0463753,0.9638748-1.4496193c0.7508163-0.4473114,1.7233047-0.6739502,2.8902893-0.6739502
				h19.207222c0.4095306,0,0.8001862-0.1199455,1.1610184-0.3561935c0.4207993-0.2763367,0.6338577-0.6033707,0.6338577-0.9724884
				c0-0.4492989-0.2332687-1.2030983-1.7948761-1.2030983h-19.207222c-2.227272,0-4.0181808,0.4135132-5.3230057,1.2296066
				c-1.3717499,0.8585091-2.0672379,2.0109138-2.0672379,3.4257431c0,0.507618,0.0082855,1.0205307,0.0271683,1.5384178
				c0.0172272,0.5069542,0.0265045,1.008934,0.0265045,1.5059471c0,0.6951561,0.1974869,1.3439217,0.5864792,1.9284096
				c0.3747482,0.5642776,0.9009171,1.0583038,1.5639343,1.4671822c0.6467743,0.3995972,1.4131699,0.7133789,2.277977,0.9320641
				c0.8561859,0.2173615,1.8346329,0.3276978,2.9081802,0.3276978h14.418663c1.1119843,0,1.9532623,0.1285591,2.5013046,0.3820381
				c0.5198746,0.2412148,0.873085,0.5543327,1.0795059,0.9579086c0.2170334,0.4261055,0.3273697,0.9539299,0.3273697,1.5682411
				v2.2282715c0,0.5672569-0.3330002,1.0414047-1.0178833,1.4496193c-0.750824,0.4473114-1.7233124,0.6739464-2.8902969,0.6739464
				H73.0743637c-1.6086578,0-1.8488846,0.7736893-1.8488846,1.234581c0,0.3035126,0.1341934,0.7269669,0.7730179,1.0208664
				c0.3982773,0.1835632,0.8505554,0.2766724,1.3449249,0.2766724h19.1531982c2.1550522,0,3.9177856-0.4131851,5.2398453-1.2282867
				c1.3912964-0.8578415,2.0967255-2.0109138,2.0967255-3.4273987c0-0.5076141-0.0092773-1.0095978-0.0271683-1.5069427V60.4305954z
				"/>
		</g>
		<g>
			<path class="st1" d="M92.4967117,67.0437622H73.3432846c-0.5597916,0-1.0755692-0.1069412-1.5331039-0.3179092
				c-0.9001923-0.4140167-1.0347977-1.0734634-1.0347977-1.4295578c0-0.3952484,0.1659927-1.6845398,2.2990036-1.6845398h19.4223251
				c1.0852737,0,1.9802856-0.205471,2.65979-0.610424c0.7157516-0.4264717,0.7982635-0.8110428,0.7982635-1.0631104v-2.2283058
				c0-0.5424728-0.0935135-1.0013046-0.2782745-1.3638725c-0.1585541-0.3098221-0.4423294-0.5567093-0.8678284-0.7540932
				c-0.335228-0.1551552-1.0092392-0.3402405-2.3119507-0.3402405h-14.418869c-1.1105118,0-2.1262131-0.1148682-3.0186386-0.3415337
				c-0.9079514-0.2295761-1.7168961-0.5610809-2.4038467-0.9854507c-0.7176895-0.4424896-1.2904205-0.9810791-1.7023315-1.6007271
				c-0.4390945-0.659771-0.6617126-1.3925095-0.6617126-2.1776657c0-0.4737167-0.0087357-0.9752579-0.026207-1.490715
				c-0.0181198-0.5020294-0.027504-1.0250893-0.027504-1.5536499c0-1.5801849,0.7668686-2.8610573,2.2786179-3.8071938
				c1.3771362-0.8613586,3.2483826-1.298027,5.5616226-1.298027h19.2074661c2.0828552,0,2.2449722,1.2651825,2.2449722,1.6529884
				c0,0.3645096-0.1452866,0.8942032-0.8367691,1.3485031c-0.4361801,0.2855568-0.9098969,0.4301949-1.4082031,0.4301949H78.0778427
				c-1.0849457,0-1.9799576,0.205471-2.65979,0.610424c-0.6853333,0.4085159-0.7581406,0.7710838-0.744873,1.0412674
				l0.0003204,3.0569839c0.0093842,0.4536552,0.0349503,1.6829185,3.4043427,1.6829185h14.418869
				c1.0710373,0,2.0760574,0.1143837,2.9872513,0.3400764c0.934166,0.2323303,1.7476349,0.5664215,2.4187317,0.9928932
				c0.6969833,0.4437866,1.2583847,0.9878769,1.6693268,1.6175575c0.4365005,0.6702881,0.6575089,1.405777,0.6575089,2.1862411
				c0,0.5004082,0.0087357,0.9906273,0.026207,1.4569016l0.0003204,0.0176315
				c0.0177994,0.4932938,0.0271835,1.0056763,0.0271835,1.5068932c0,1.5830956-0.7775574,2.8651009-2.3106537,3.8102684
				C96.5786209,66.6080704,94.7365036,67.0437622,92.4967117,67.0437622z M73.0743866,64.5116196
				c-0.9283371,0-1.398819,0.2640381-1.398819,0.7846756c0,0.0931854,0,0.3769608,0.5109329,0.6120453
				c0.3391037,0.1562805,0.7280426,0.2355576,1.1567841,0.2355576h19.1534271c2.0705566,0,3.7537994-0.3907166,5.0034485-1.1613083
				c1.2496567-0.7704391,1.8828888-1.7945557,1.8828888-3.0443687c0-0.4905396-0.0090561-0.9920807-0.0268555-1.4908752
				l0.4497757-0.0168266l-0.4497757,0.0168266c-0.0177917-0.4775963-0.0268555-0.9789772-0.0268555-1.490551
				c0-0.6033096-0.1718216-1.1736107-0.5112534-1.6948929c-0.3400726-0.5211182-0.8105545-0.9752579-1.3984909-1.3496323
				c-0.5885849-0.374218-1.3127441-0.6699638-2.1524277-0.8786736c-0.840004-0.2080574-1.7722244-0.3137054-2.7704544-0.3137054
				h-14.418869c-2.82061,0-4.2686157-0.8657265-4.3042068-2.5732384v-3.0446854
				c-0.0355911-0.7215767,0.3624039-1.3467255,1.1836395-1.836132c0.8212357-0.4892464,1.8712387-0.7372665,3.1205673-0.7372665
				h19.2074661c0.320343,0,0.6280594-0.0951309,0.9144287-0.2828064c0.4303513-0.2826424,0.4303513-0.5185318,0.4303513-0.5960274
				c0-0.4997635-0.4523544-0.7531242-1.34478-0.7531242H78.0778427c-2.1417465,0-3.8524933,0.3907204-5.0843506,1.1611519
				c-1.2486725,0.7814369-1.8557053,1.7772408-1.8557053,3.0442047c0,0.5177193,0.0090637,1.0299416,0.0268555,1.5220985
				c0.0177994,0.526783,0.0268555,1.038517,0.0268555,1.5222664c0,0.604763,0.1718216,1.1697235,0.5109329,1.6791954
				c0.3394318,0.5109253,0.8189697,0.959404,1.4256744,1.3334579c0.6089706,0.3761559,1.3328094,0.6717415,2.1520996,0.87883
				c0.8205872,0.2083817,1.7618713,0.3140297,2.7976379,0.3140297h14.418869c1.1774902,0,2.0825348,0.1425362,2.6902084,0.4235611
				c0.6151199,0.2853966,1.037384,0.6652718,1.291069,1.1614761c0.2501221,0.4908638,0.3769608,1.0872154,0.3769608,1.7730331
				v2.2283058c0,0.7290192-0.4164352,1.3468857-1.2376709,1.836132c-0.8209152,0.4892502-1.8709183,0.7372665-3.1205673,0.7372665
				H73.0743866z"/>
		</g>
		<g>
			<path class="st1" d="M129.4983521,64.9176254c-0.785614-2.8525162-1.5619507-5.6848259-2.3293457-8.4959297
				c-0.7716827-2.8250198-1.552002-5.6705818-2.3405914-8.5373535c-0.591774-2.278965-3.0552979-3.4376678-7.3203278-3.4376678
				h-2.528801c-4.2650299,0-6.7285538,1.1587029-7.321991,3.443634c-0.7879257,2.8617973-1.559288,5.7136574-2.312767,8.549942
				c-0.748497,2.8173981-1.5152206,5.6493759-2.2981873,8.4972572c-0.0927734,0.1742859-0.1381607,0.3333282-0.1381607,0.4844208
				c0,0.4493027,0.2332611,1.2031021,1.7952042,1.2031021c1.5380859,0,1.8250275-0.7253036,1.847229-1.2021027
				c0.7485046-2.8488808,1.4973373-5.6821823,2.2461624-8.500576c0.7528152-2.8336334,1.5231781-5.6828423,2.312439-8.5482864
				c0.1126556-0.4771271,0.4565887-0.8213921,1.0559845-1.068573c0.6772614-0.2796555,1.6242371-0.4211349,2.8140869-0.4211349
				h2.528801c2.3051376,0,3.6069794,0.4999924,3.8694077,1.4860687c0.7531357,2.8667641,1.5152283,5.7133217,2.2872467,8.5393333
				c0.7660675,2.8074608,1.5417404,5.6357918,2.3260193,8.4846725c0.0225372,0.476799,0.3028412,1.1994553,1.7935562,1.1994553
				c1.561615,0,1.7948761-0.7537994,1.7948761-1.2034378C129.5791931,65.1946335,129.5533447,65.0422134,129.4983521,64.9176254"/>
		</g>
		<g>
			<path class="st1" d="M104.7032852,67.0749893c-2.0831833,0-2.2452927-1.2651825-2.2452927-1.6529846
				c0-0.2116241,0.0546875-0.4243698,0.1666412-0.6487732c0.8005295-2.9116974,1.5693436-5.7539864,2.2850952-8.4485664
				c0.7506943-2.8267593,1.5292206-5.7046432,2.3135681-8.55373c0.6500626-2.5022125,3.260025-3.774189,7.7561111-3.774189
				h2.5287476c4.4960861,0,7.1054001,1.2698746,7.7557907,3.7745132c0.7869339,2.8607368,1.5674057,5.7065849,2.3391342,8.5318871
				c0.7646103,2.8015213,1.5382767,5.6243973,2.3213272,8.4670105c0.0705414,0.1742477,0.1048431,0.3777771,0.1048431,0.6203003
				c0,0.3878021-0.1621094,1.6533051-2.2449722,1.6533051c-1.8864441,0-2.1993408-1.0603561-2.2397919-1.5743561
				c-0.7801437-2.8342018-1.5518723-5.6480179-2.3138885-8.441288c-0.7571716-2.7715874-1.5269547-5.6460762-2.2883301-8.5433731
				c-0.2530365-0.9506645-2.0071411-1.1504745-3.4341125-1.1504745h-2.5287476c-1.131218,0-2.0200806,0.1302414-2.6423187,0.3871574
				c-0.6005554,0.2475357-0.7377548,0.5340652-0.7901688,0.7560349c-0.7814407,2.8384094-1.5589905,5.7130585-2.3151855,8.5603638
				c-0.744873,2.8042717-1.4900742,5.6229401-2.2349396,8.4571457
				C106.9573135,66.0089722,106.6408615,67.0749893,104.7032852,67.0749893z M114.9794083,44.8966103
				c-4.0343399,0-6.3511429,1.0453148-6.8866653,3.1068153c-0.7853165,2.8528061-1.5631943,5.7281036-2.3132401,8.5522728
				c-0.7199554,2.7109184-1.4936295,5.5710068-2.2993317,8.500988l-0.0365677,0.0917358
				c-0.0566254,0.1071014-0.0854187,0.1991577-0.0854187,0.2735825c0,0.4997635,0.4523544,0.7531204,1.3451004,0.7531204
				c0.9034271,0,1.3739014-0.2601547,1.39785-0.7731857l0.0142365-0.0933533
				c0.7484283-2.8492432,1.4978333-5.6829605,2.2465897-8.5017929c0.7568436-2.8498955,1.5353699-5.7272911,2.3132401-8.5522728
				c0.1430206-0.6068649,0.5756454-1.0587387,1.318573-1.3650055c0.7316055-0.3020554,1.7359848-0.4551086,2.9856339-0.4551086
				h2.5287476c2.5345688,0,3.9825745,0.6123657,4.3042068,1.8202782c0.7607269,2.8958397,1.5301895,5.7675781,2.2863846,8.5364151
				c0.7659073,2.8073463,1.5415192,5.6353989,2.3258667,8.4840012l0.0155334,0.0980453
				c0.0242691,0.5114059,0.4766235,0.770752,1.3441315,0.770752c0.8924179,0,1.34478-0.2535172,1.34478-0.7534409
				c0-0.1291122-0.0142365-0.2271576-0.0423889-0.2913818l-0.0223236-0.0621262
				c-0.7856445-2.8528099-1.5618973-5.6853943-2.329422-8.4967804c-0.7714081-2.8248177-1.5518723-5.6700211-2.3404236-8.5364189
				c-0.5358429-2.0637665-2.8523254-3.1071396-6.8863449-3.1071396H114.9794083z"/>
		</g>
		<g>
			<path class="st1" d="M116.1784134,44.4432907h-1.2932281c-4.2650299,0-6.7285538,1.1587067-7.321991,3.4439697
				c-0.7882614,2.8614693-1.559288,5.7133217-2.3130951,8.5496063c-0.7481689,2.81707-1.5148926,5.6490479-2.2981873,8.4965973
				c-0.0927734,0.1746216-0.1378326,0.3336639-0.1378326,0.4847565c0,0.449295,0.2332611,1.2030945,1.7948761,1.2030945
				c1.5384216,0,1.8253632-0.7253036,1.8475571-1.2021027c0.7485046-2.848877,1.4973373-5.6818466,2.2458344-8.5002441
				c0.7531433-2.8336296,1.5235062-5.6828423,2.312439-8.5482788c0.1129837-0.4771347,0.4569168-0.8213997,1.0559845-1.0685806
				c0.6775894-0.2793198,1.6245651-0.4211349,2.814415-0.4211349h1.2932281h0.4499588v-0.4499626v-1.5377579v-0.4499626H116.1784134
				z"/>
		</g>
		<g>
			<path class="st1" d="M104.6088028,67.0712662c-2.0828552,0-2.2449722-1.2651825-2.2449722-1.6529846
				c0-0.2117844,0.0546875-0.42453,0.1663208-0.6489334c0.7982635-2.901989,1.5670776-5.7441177,2.2850952-8.4479179
				c0.7714005-2.9018288,1.5499268-5.7797127,2.3138885-8.55373c0.6497421-2.5023727,3.260025-3.7743492,7.7561111-3.7743492
				h2.1931992v3.3375206h-2.1931992c-1.130249,0-2.0197601,0.1302414-2.6429672,0.3871613
				c-0.5995865,0.2475357-0.7371063,0.5343857-0.7898483,0.7565193c-0.7714005,2.8028145-1.5489578,5.6776237-2.3151855,8.5600395
				c-0.744545,2.8039474-1.489418,5.6222916-2.2346115,8.4564972
				C106.8634796,66.005249,106.547348,67.0712662,104.6088028,67.0712662z M114.8852463,44.8932152
				c-4.0343399,0-6.3511429,1.0454712-6.8866653,3.1071358c-0.7652512,2.7777367-1.5428085,5.6530342-2.3135681,8.5521126
				c-0.7225418,2.7203026-1.4958878,5.5802269-2.299324,8.5003395l-0.0362396,0.0912476
				c-0.056633,0.1071014-0.0854263,0.1993256-0.0854263,0.274231c0,0.4997635,0.4523544,0.7531204,1.34478,0.7531204
				c0.904068,0,1.3745499-0.2599945,1.3981705-0.7728577l0.0142365-0.0936737
				c0.7487564-2.8492508,1.4978333-5.6826439,2.2462692-8.5014725c0.7668686-2.885006,1.5453949-5.7624016,2.3132401-8.5521126
				c0.1439896-0.6073532,0.5766144-1.0589027,1.3182526-1.3651657c0.733223-0.3020592,1.7376022-0.4551125,2.9862747-0.4551125
				h1.2930145v-1.5377922H114.8852463z"/>
		</g>
	</g>
	<g>
		<g>
			<path class="st2" d="M113.2446136,66.5928955v-2.6649704h0.2517471v2.6649704H113.2446136z"/>
		</g>
		<g>
			<path class="st2" d="M114.3473663,64.2686539H114.33992v2.3242416h-0.2514191v-2.6649704h0.2847519l1.5398941,2.328125h0.0074463
				v-2.328125h0.2517395v2.6649704h-0.292511L114.3473663,64.2686539z"/>
		</g>
		<g>
			<path class="st2" d="M118.5706787,64.7015915c-0.0521011-0.22715-0.148201-0.3886108-0.2889557-0.4850388
				c-0.1404343-0.0960999-0.3242264-0.14431-0.5513763-0.14431c-0.1604919,0-0.2986603,0.0323563-0.4144974,0.0964203
				c-0.1161652,0.0640717-0.2116165,0.1504669-0.2870102,0.2588654c-0.0750732,0.1087189-0.1307297,0.2339401-0.1663208,0.3756714
				c-0.0359192,0.1420517-0.0537109,0.2918625-0.0537109,0.4497681c0,0.148201,0.0152054,0.293808,0.0462723,0.4368286
				c0.0307388,0.1430206,0.0818634,0.2708359,0.1536942,0.38311c0.0715103,0.1122818,0.1676178,0.2028885,0.2886353,0.2721329
				c0.1206894,0.0689163,0.2724457,0.1035385,0.4552689,0.1035385c0.1132507,0,0.2171173-0.0184402,0.3109589-0.0556488
				c0.0935135-0.0368881,0.1756973-0.0880127,0.2459106-0.1533813c0.0705414-0.065361,0.1297607-0.1426926,0.1776428-0.2313538
				c0.0482178-0.0889816,0.0844574-0.1863785,0.109375-0.292511h0.2627411
				c-0.0297699,0.1284561-0.0728073,0.2498016-0.1297531,0.3646698c-0.0566254,0.1145477-0.1313705,0.2151794-0.2239151,0.3015747
				s-0.2048264,0.1549911-0.3365173,0.2054672c-0.1323471,0.0504761-0.2870102,0.0757141-0.4646606,0.0757141
				c-0.2048187,0-0.3798752-0.037529-0.5254822-0.1129227c-0.145607-0.0750732-0.2646866-0.1769943-0.3572311-0.3051376
				c-0.0925369-0.1284561-0.1598434-0.2769775-0.2015839-0.4462051c-0.0420685-0.1689072-0.0631027-0.3484955-0.0631027-0.5384293
				c0-0.2540131,0.0313873-0.4701614,0.0944901-0.6478043c0.0627747-0.1776428,0.1498108-0.3226013,0.2608032-0.4348831
				c0.1109848-0.1122818,0.2417068-0.1935005,0.3924942-0.2443008c0.1504593-0.0504761,0.3145142-0.0757179,0.492157-0.0757179
				c0.135582,0,0.2621002,0.0177994,0.3792343,0.0537148c0.1171341,0.0355949,0.2210007,0.0893097,0.3109512,0.16082
				c0.0899582,0.0718307,0.1640549,0.1598434,0.2222977,0.264679c0.0579224,0.1048431,0.0980453,0.2265091,0.1200485,0.3646698
				H118.5706787z"/>
		</g>
	</g>
	<g>
		<g>
			<path class="st3" d="M112.6458817,55.4075546c1.3803635-0.121933,3.4552307-0.0443993,5.2043762-0.0443993
				c1.5758667,0,3.8243484-0.1689835,4.003273,1.1119804c0.3098068,2.2160149-3.0297852,1.9575691-5.2043839,1.9575691
				c-1.7952118,0-5.9021835,0.4430046-6.271965-0.9791145C110.015686,56.063282,111.4990997,55.5089493,112.6458817,55.4075546"/>
		</g>
	</g>
</g>
</svg>
