<?xml version="1.0" encoding="utf-8"?>
<!-- Generator: Adobe Illustrator 25.3.0, SVG Export Plug-In . SVG Version: 6.00 Build 0)  -->
<svg version="1.1" id="Layer_1" xmlns="http://www.w3.org/2000/svg" xmlns:xlink="http://www.w3.org/1999/xlink" x="0px" y="0px"
	 viewBox="0 0 120 90" style="enable-background:new 0 0 120 90;" xml:space="preserve">
<style type="text/css">
	.st0{fill:#FFFFFF;}
</style>
<g>
	<path class="st0" d="M63.3366089,60.8664551c1.4267578,0,2.5834961-1.1564331,2.5834961-2.5834351V34.2843018
		c0-1.4266968-1.1567383-2.5834351-2.5834961-2.5834351c-1.427002,0-2.5834351,1.1567383-2.5834351,2.5834351V58.28302
		C60.7531738,59.710022,61.9096069,60.8664551,63.3366089,60.8664551z"/>
	<path class="st0" d="M57.5614014,25.7719116v-1.3098145v-3.0423584v-0.777832
		c-4.7203979,0.4689331-9.0522461,2.2784424-12.6037598,5.0472412l2.9279785,4.1851196
		C50.6087646,27.6925659,53.9307861,26.2290649,57.5614014,25.7719116z"/>
	<path class="st0" d="M61.2127075,20.5475464v0.781189v3.0286865v1.3019409
		c10.1387329,0.6287231,18.1951904,9.0719604,18.1951904,19.3662109c0,10.7016602-8.7059326,19.4082031-19.4078979,19.4082031
		c-0.524353,0-1.0435181-0.0213013-1.5578613-0.0626831l3.5551758,5.0813599
		c12.583313-1.0195312,22.5117188-11.5855103,22.5117188-24.4268799
		C84.5090332,31.9181519,74.1658325,21.1820679,61.2127075,20.5475464z"/>
	<path class="st0" d="M60.0526733,58.6862183V33.5578613c0-1.4081421-1.1422119-2.5502319-2.550293-2.5502319
		c-1.4090576,0-2.5505981,1.1420898-2.5505981,2.5502319v16.5499878L44.2498169,33.6984863
		c0.0008545-0.0012817,0.0018311-0.0027466,0.0023804-0.0036621l-0.0714722-0.1022949l-0.7194824-1.1028442
		c-0.1028442-0.1582642-0.2211914-0.2991333-0.3502197-0.4260864l-1.9154663-2.7380371
		c-3.5591431,4.2554321-5.7045898,9.7315063-5.7045898,15.7000122c0,11.960083,8.6121216,21.9453735,19.9602051,24.0839233
		l-5.0527344-7.2223511c-5.8531494-3.3457642-9.8067017-9.6505127-9.8067017-16.8615723
		c0-2.128479,0.3451538-4.1769409,0.9815063-6.0944824l13.7927246,21.1483765
		c0.4793701,0.7352295,1.2906494,1.1576538,2.1367188,1.1576538c0.241333,0,0.4856567-0.0344238,0.7261353-0.105896
		C59.3106689,60.8095093,60.0526733,59.8150024,60.0526733,58.6862183z"/>
</g>
</svg>
