<?xml version="1.0" encoding="utf-8"?>
<!-- Generator: Adobe Illustrator 25.3.0, SVG Export Plug-In . SVG Version: 6.00 Build 0)  -->
<svg version="1.1" id="Layer_1" xmlns="http://www.w3.org/2000/svg" xmlns:xlink="http://www.w3.org/1999/xlink" x="0px" y="0px"
	 viewBox="0 0 170 120" style="enable-background:new 0 0 170 120;" xml:space="preserve">
<g>
	<g>
		<path id="SVGID_1_" d="M26.5326576,81.6171112h1.2085743L27.74123,74.6732941h-1.2085762L26.5326576,81.6171112z
			 M53.4446411,74.6732788l-1.5268898,5.2925034l-1.6387558-5.2925034l-1.1671295,0.0000076l-1.6387482,5.2770691
			l-1.5268974-5.2770691h-1.2635612l2.1519394,6.9438171h1.2365379l1.6243248-5.138176l1.6252708,5.1381683h1.2355995
			l2.152874-6.9438171H53.4446411z M55.9582863,81.6170959h1.2085762l-0.0000038-6.9438171h-1.2085762L55.9582863,81.6170959z
			 M100.5764999,74.6732559l-1.527832,5.2925034l-1.6378098-5.2925034l-1.1670685,0.0000076l-1.6387482,5.2770691
			l-1.5278397-5.2770691h-1.2636261l2.1529388,6.9438171h1.2356033l1.625206-5.138176l1.6253281,5.1381683h1.2345428
			l2.1529312-6.9438171H100.5764999z M112.1165237,75.8403625l-0.0000076-1.1671066h-1.2086334l0.0000076,6.9438171h1.2086334
			v-3.6797714c0-1.6387787,1.1245651-2.1663895,2.1663513-2.1249161v-1.2635574
			C113.4080429,74.5488281,112.5611191,74.8680954,112.1165237,75.8403625 M36.9479294,75.6320572
			c1.0416718,0,2.0264778,0.6385345,2.2348251,2.0139847h-4.6375542
			C34.7390671,76.4374619,35.641922,75.6320572,36.9479294,75.6320572 M33.3086624,78.1456833
			c0,2.0834351,1.486393,3.6527557,3.7222176,3.6527557c1.388958,0,2.4441757-0.6250305,3.0547333-1.5693283l-1.0272522-0.5825882
			c-0.3472252,0.5690842-1.0407906,1.0127792-1.9995155,1.0127792c-1.2915268,0-2.2782745-0.7089462-2.5136452-1.9580383h5.8181686
			c0.0279617-0.1803741,0.0415039-0.3607483,0.0415039-0.5411148c-0.0000038-1.9445419-1.360054-3.6672287-3.4569435-3.6672287
			C34.7805672,74.4929199,33.3086624,76.0902176,33.3086624,78.1456833 M76.7327881,78.1456604
			c0-1.4159622,1.0696945-2.4856491,2.4721375-2.4856491c1.3880768,0,2.4587173,1.0696793,2.4587173,2.4856491
			c0,1.4169235-1.0706406,2.486618-2.4587173,2.486618C77.8024902,80.6322784,76.7327881,79.5625916,76.7327881,78.1456604
			 M76.7327881,75.8683548v-1.1950836h-1.208519l0.0000076,9.7217255h1.2085114v-3.972023
			c0.5556335,0.8468704,1.4440079,1.3754501,2.6246185,1.3754501c1.9300461-0.0000076,3.5138092-1.5973053,3.5138092-3.6527634
			c0-2.0554657-1.5837708-3.6527634-3.5138168-3.6527634C78.1767883,74.492897,77.288414,75.0205078,76.7327881,75.8683548
			 M85.1341248,78.1456604c0-1.4024658,1.0695801-2.4721527,2.4441147-2.4721527
			c1.3879547,0,2.4576492,1.0696869,2.4576492,2.4721451c0.0000076,1.4034271-1.0696945,2.473114-2.4576492,2.473114
			C86.2037048,80.6187668,85.1341248,79.5490799,85.1341248,78.1456604 M83.9254913,78.1456604
			c0,2.0554581,1.625206,3.6527557,3.6527481,3.6527557s3.6662903-1.5972977,3.6662903-3.6527634
			c0-2.0554581-1.6387558-3.6527634-3.6662979-3.6527634C85.5506973,74.492897,83.9254837,76.0901947,83.9254913,78.1456604
			 M106.0619278,75.632019c1.0417938,0,2.0275345,0.6385345,2.2358246,2.0139847l-4.6384964,0.0000076
			C103.854126,76.4374237,104.7569809,75.632019,106.0619278,75.632019 M102.4227219,78.1456528
			c0,2.0834274,1.4863892,3.6527557,3.7231598,3.6527557c1.3890152,0,2.4431686-0.6250305,3.0547256-1.5693283l-1.0282516-0.5825882
			c-0.3472214,0.5690842-1.0407333,1.0127792-1.9995117,1.0127792c-1.2915268,0-2.2772751-0.7089462-2.513588-1.9580383
			l5.8191071-0.0000076c0.0280228-0.1803665,0.0415649-0.3607407,0.0415649-0.5411148
			c0-1.9445343-1.3609924-3.6672287-3.4580002-3.6672287C103.8955688,74.4928818,102.4227142,76.0901871,102.4227219,78.1456528
			 M59.7354851,72.4712067l0.0000038,2.2020721h-1.3754768v1.1671143h1.3754768v3.7636795
			c0,1.7352295,0.9722672,2.2917786,3.0556755,2.0130234v-1.0831985c-1.2365417,0.0559464-1.8470993,0.1253967-1.8470993-0.9298248
			v-3.7636871h1.8470955v-1.1671066h-1.8470993v-2.2020721H59.7354851z M26.3243065,72.6052933
			c0,0.4436951,0.3607655,0.8044357,0.8189049,0.8044357c0.4446564,0,0.8054218-0.3607407,0.8054218-0.8044357
			c0-0.4446564-0.3607655-0.81987-0.8054237-0.81987C26.68507,71.7854233,26.3243065,72.1606369,26.3243065,72.6052933
			 M55.7499352,72.605278c0,0.4436951,0.3607674,0.8044434,0.8189049,0.8044434
			c0.4446564-0.0000076,0.806366-0.3607483,0.806366-0.8044434c0-0.4446564-0.3617096-0.81987-0.806366-0.81987
			C56.1107025,71.785408,55.7499352,72.1606216,55.7499352,72.605278 M30.1149921,74.4649506v0.2083435H29.003849v1.1671066
			h1.1111431l0.0000038,5.7767105h1.2086334l-0.0000019-5.7767105h1.8326149v-1.1671066h-1.8326149v-0.2083435
			c-0.0000019-1.2076187,0.624979-1.6792831,1.8326149-1.5828323l-0.0000038-1.1661453
			c-0.1176834-0.0086823-0.2324219-0.0125351-0.3433952-0.0125351
			C31.0486946,71.7034378,30.1149921,72.7287521,30.1149921,74.4649506 M23.4856377,81.6171112h1.1999226L24.6855545,71.47966
			l-1.1999207,0.0000076L23.4856377,81.6171112z M64.2206192,71.3773956l0.0000076,10.2397003l1.2085724-0.0000076v-3.6797638
			c0-1.6387787,0.9028549-2.2917786,2.0130539-2.2917786c1.0697021,0,1.722702,0.6394958,1.722702,1.7786331l0.0000076,4.1929092
			h1.2075729v-4.2623596c-0.0000076-1.7786331-1.0687027-2.861824-2.6930313-2.861824
			c-0.9732056,0-1.7361832,0.3617096-2.2503052,1.1806107v-4.2961197H64.2206192z M36.5032578,48.69981
			c-0.4465981,0.4813118-0.670372,1.197979-0.6703682,2.1499939v5.850975
			c0.0000038,2.3033524-0.1341057,3.795517-0.4051514,4.4774551c-0.3289146,0.7754974-0.851696,1.4034233-1.5683403,1.8857002
			c-0.7176437,0.4813118-1.4815636,0.7224503-2.2908115,0.7224503c-0.8343296,0-1.4960461-0.2160568-1.9830914-0.6443176
			c-0.4881039-0.4282608-0.8266754-1.0214653-1.0137691-1.7796021c-0.1900387-0.7581367-0.2816429-1.6947174-0.2816448-2.8107033
			l-0.0000038-7.7019539c0-0.9520149-0.2247715-1.6686821-0.670372-2.1499939
			c-0.4466-0.4822769-1.0349636-0.7224503-1.7622623-0.7224503c-0.7166462,0.0000038-1.2934685,0.2363205-1.7274704,0.7128143
			c-0.3839016,0.421505-0.5999603,1.0330353-0.6443501,1.8365059l0.0000057,10.4084854
			c0.0530434,1.6484222,0.3501701,2.9341698,0.8912601,3.8562813c0.5044708,0.8449478,1.2191734,1.5095291,2.1412792,1.9908371
			c0.9221649,0.4813156,1.9648399,0.7234116,3.1280861,0.7234116c0.9635506,0,1.8210754-0.1215286,2.5733967-0.3607407
			c0.7523766-0.2421036,1.4458847-0.6095963,2.0805817-1.1024857c0.6346359-0.4938507,1.2384796-1.1044159,1.8152466-1.8326492
			v0.6163483c0,0.8574829,0.2141151,1.5249557,0.6433487,2.0004807c0.4272919,0.4764862,0.9722672,0.713768,1.6300964,0.713768
			c0.6568909,0,1.1950951-0.2295609,1.6117897-0.6877213c0.4176331-0.458168,0.6269798-1.1458893,0.6269798-2.0612564
			l-0.0000038-13.9416428c-0.0000038-0.9635887-0.2180061-1.6831474-0.6530075-2.1596298
			c-0.4350624-0.4764938-1.0108833-0.7128105-1.7265854-0.7128105C37.5314522,47.9773598,36.9497986,48.2175331,36.5032578,48.69981
			 M57.4726257,48.6997986c-0.4408302,0.4813156-0.6597748,1.1979828-0.6597748,2.1499939l0.0000076,13.7641678
			c0,0.9414062,0.2189445,1.6638565,0.6597748,2.1683121c0.4417725,0.5054245,1.0137138,0.7581406,1.7188187,0.7581406
			s1.2866974-0.2469254,1.7438927-0.7398148c0.460083-0.4938507,0.6886826-1.223053,0.6886826-2.1866379l-0.0000076-13.9059639
			c0-0.8574867-0.2285995-1.526886-0.6886826-2.0081978c-0.4571953-0.4822769-1.0387917-0.7224503-1.7438965-0.7224503
			S57.9143982,48.2175255,57.4726257,48.6997986 M76.4366531,48.699791
			c-0.4417725,0.4813118-0.6626587,1.197979-0.6626587,2.1499939v13.7641678
			c0.0000076,0.9413986,0.2208939,1.6638489,0.6626663,2.1683121c0.438942,0.5054245,1.0118866,0.7581329,1.7169266,0.7581329
			c0.7050476,0,1.2876434-0.2469177,1.7448425-0.7398071c0.458252-0.4938507,0.6877365-1.223053,0.6877365-2.1866379
			l-0.0000076-13.9059639c0-0.8574867-0.2294846-1.526886-0.6877365-2.0081978
			c-0.4571991-0.4822769-1.0397949-0.7224503-1.7448425-0.7224503S76.8755951,48.217514,76.4366531,48.699791
			 M101.4687576,63.6185188c-0.5517502-0.5102463-0.8276215-1.130455-0.8276215-1.8596573
			c0-0.7050858,0.2344284-1.2539177,0.7041016-1.6474571c0.4698029-0.3935356,0.9636154-0.6578255,1.4815674-0.7928619
			c0.5160675-0.1360016,1.4478912-0.3472404,2.7933426-0.6346779c1.3446274-0.2874374,2.3708725-0.5613708,3.0760422-0.8189049
			v0.6867638c0,1.6677055-0.2180634,2.8676147-0.6520615,3.5939217c-0.3761902,0.6597557-0.9674988,1.1979752-1.7719193,1.6146622
			s-1.683136,0.6250305-2.6350937,0.6250305C102.7439194,64.3853378,102.0223846,64.1297302,101.4687576,63.6185188
			 M100.376915,48.7161827c-1.2693863,0.5179596-2.2030945,1.1767502-2.8029938,1.9754028
			c-0.5980148,0.7996178-0.8980255,1.6204491-0.8980255,2.466362c0,0.5411186,0.1967468,0.9838448,0.5893021,1.3310776
			c0.3936157,0.3472404,0.861412,0.5198975,1.4005585,0.5198936c0.6000214,0,0.9905701-0.1089935,1.1738968-0.3269806
			c0.1813278-0.2160568,0.4928741-0.6655426,0.9326477-1.3465195c0.4417725-0.6819382,0.9704361-1.1931496,1.5876465-1.5345993
			c0.615448-0.3404922,1.5365524-0.5112114,2.7576675-0.5112114c1.4208069-0.0000038,2.3583984,0.2970772,2.8117065,0.8902779
			c0.4514313,0.5941582,0.7070541,1.5249557,0.7668686,2.7943115c-1.0118866,0.2932243-1.9493637,0.5430374-2.8117142,0.7475281
			c-0.8632889,0.2073784-1.9001389,0.4330864-3.1106567,0.6790428c-1.2105179,0.2478905-1.9686661,0.4060783-2.2735062,0.4755249
			c-1.457428,0.318306-2.603302,0.9404449-3.4366913,1.8683434c-0.8343277,0.9288635-1.2519608,2.0506363-1.2519608,3.3672523
			c0,0.9751663,0.2526779,1.8799171,0.7581482,2.7142525c0.5044174,0.8353043,1.2250061,1.4960251,2.1587067,1.9831161
			c0.9335861,0.4871063,2.0177689,0.7311325,3.2505417,0.7311325c1.3532257,0,2.5715103-0.2266693,3.659462-0.6780853
			c1.0860596-0.453331,2.2107468-1.130455,3.3740463-2.036171c0.5410309,0.8806381,1.0503922,1.553894,1.5336075,2.0188141
			c0.4813385,0.4629822,0.9693832,0.6954346,1.4631958,0.6954346c0.5874252,0,1.1131439-0.2035141,1.5770569-0.607666
			c0.4640198-0.4060745,0.6964493-0.8545914,0.6964493-1.3484497c0-0.282608-0.1495361-0.9143906-0.4504852-1.8953438
			c-0.2980118-0.9809456-0.4494324-1.9242821-0.4494324-2.8280678c0.0115433-0.9626198,0.0211945-1.8393974,0.0269623-2.6264763
			c0.0057678-0.7870712,0.0096588-1.7439079,0.0096588-2.8733978c-0.0000076-1.7853928-0.2508011-3.2187195-0.7494431-4.2999763
			c-0.4997025-1.0803032-1.3542862-1.8712349-2.563858-2.3708687c-1.2105179-0.4986801-2.8743515-0.7484932-4.9886627-0.7484932
			C103.226181,47.9416428,101.6452484,48.1991806,100.376915,48.7161827 M66.6368179,42.1794243
			c-0.4311752,0.4919167-0.6442947,1.2211227-0.6442947,2.1847115l0.0000153,20.2498245
			c0,0.9404373,0.2218246,1.6638489,0.6607132,2.1683044c0.4417725,0.5054321,1.01371,0.7581406,1.7188187,0.7581406
			c0.7156982,0,1.302124-0.2440338,1.7535477-0.7320938c0.4523697-0.4861374,0.6790237-1.2182312,0.6790237-2.1943588
			l-0.0000076-20.2498169c0-0.9761314-0.2237701-1.7072639-0.6693726-2.1943588
			c-0.4475403-0.4870987-1.0349655-0.7311363-1.7632065-0.7311363S67.0651093,41.6846085,66.6368179,42.1794243
			 M45.4417343,41.7463455c-0.3511124,0.2064171-0.6230965,0.4736023-0.8111916,0.8015442
			c-0.1880951,0.3173409-0.3018951,0.6964073-0.343399,1.1362457c-0.0414429,0.4407997-0.0616951,1.0484657-0.0616951,1.8249321
			l0.0000076,15.5977859c0,1.4931259,0.1205711,2.6853142,0.3617096,3.5775261
			c0.2411385,0.8931732,0.7494354,1.5934372,1.5249519,2.0979004c0.7755165,0.5054245,1.9146233,0.7581329,3.4183807,0.7581329
			c1.5867081,0,2.8029976-0.2064133,3.648922-0.6173096c0.8458672-0.4109039,1.2683907-1.0031357,1.2683907-1.780571
			c0-0.4581604-0.155304-0.8430176-0.4659119-1.1536026c-0.3115501-0.3115501-0.6616592-0.4668388-1.0503883-0.4668388
			c-0.2701035,0-0.6452904,0.0482254-1.1266251,0.1495018c-0.4822769,0.09935-0.8632355,0.1495056-1.1458778,0.1495056
			c-0.5170097,0-0.8893166-0.1263542-1.1188545-0.3781013c-0.2296028-0.2536774-0.3704224-0.5825882-0.4234657-0.9867401
			c-0.0530434-0.4060745-0.0781212-0.9848061-0.078125-1.7371597l-0.0000038-8.8478394l0.8970299-0.0000038
			c0.9530106,0,1.6841393-0.1292534,2.1953201-0.3867874c0.5112419-0.2594604,0.7658615-0.7108727,0.7658615-1.3580856
			c0-0.5035019-0.1793823-0.9182587-0.537262-1.2423477c-0.3588257-0.3231239-0.8777199-0.4842033-1.5586853-0.4842033H49.038559
			l-0.0000038-3.2785149c0-0.8111839-0.04533-1.4371834-0.1331062-1.877018
			c-0.0887222-0.4398384-0.298069-0.8131218-0.6259842-1.1198425c-0.4928741-0.4572029-1.0455589-0.6867676-1.658062-0.6867676
			C46.1873436,41.4376869,45.7947884,41.5399361,45.4417343,41.7463455 M86.0831146,41.7463264
			c-0.3539352,0.2064171-0.6240387,0.4735985-0.8111343,0.8015442c-0.1880341,0.3173409-0.3028336,0.6964073-0.343338,1.1362457
			c-0.0415649,0.4407997-0.0627518,1.0484657-0.0627518,1.8249321l0.0000076,15.5977821
			c0,1.4931297,0.1205673,2.685318,0.362648,3.5775261c0.2392578,0.8931732,0.748497,1.5934448,1.5240707,2.0979004
			c0.7745132,0.5054321,1.9146194,0.7581406,3.4192657,0.7581406c1.585762,0,2.8011093-0.2064133,3.6480408-0.6173172
			c0.8468094-0.4108963,1.2692719-1.0031357,1.2692642-1.7805634c0-0.4581604-0.1571808-0.8430176-0.4677887-1.1536064
			c-0.3096695-0.3115501-0.6606598-0.4668427-1.0485077-0.4668427c-0.269043,0-0.6461716,0.0482292-1.1275101,0.1495056
			c-0.4822769,0.09935-0.8642349,0.1495056-1.1449356,0.1495056c-0.517952,0-0.8911972-0.1263542-1.1198502-0.3781013
			c-0.2296066-0.2536774-0.3704224-0.582592-0.4234085-0.9867401c-0.0531006-0.4060745-0.0791245-0.9848099-0.0791245-1.7371597
			l-0.0000076-8.8478432h0.8999176c0.9511261,0,1.6821976-0.1292534,2.1934357-0.3867874
			c0.5101852-0.2594604,0.7658005-0.7108727,0.7658005-1.3580856c0-0.5035019-0.1783829-0.9182587-0.537262-1.2423477
			c-0.3587646-0.3231239-0.8767166-0.4842033-1.5586853-0.4842033h-1.7632065v-3.2785149
			c0-0.8111839-0.0434494-1.4371834-0.1321106-1.877018c-0.0878372-0.4398384-0.2970657-0.8131218-0.6260376-1.1198425
			c-0.4928741-0.4572029-1.0465012-0.6867676-1.6551208-0.6867676
			C86.8287811,41.4376678,86.434227,41.5399132,86.0831146,41.7463264 M57.5439758,42.0521049
			c-0.4880447,0.4407997-0.7311287,1.0012093-0.7311249,1.6821823c0,0.753315,0.2373085,1.334938,0.7128181,1.744873
			c0.4755058,0.4118652,1.0484428,0.6173134,1.7188148,0.6173134c0.6462326,0,1.2047501-0.2093124,1.6744843-0.6259956
			c0.4687386-0.416687,0.7050476-0.9954185,0.7050476-1.7361908c0-0.7639275-0.240139-1.344593-0.7224159-1.7448845
			c-0.4822769-0.3983536-1.0340195-0.5989799-1.6571198-0.5989799
			C58.5982475,41.3904228,58.0310783,41.6113014,57.5439758,42.0521049 M76.5061111,42.0520935
			c-0.4870987,0.4408035-0.7321243,1.0012093-0.7321243,1.6821861c0,0.753315,0.2392578,1.3349342,0.7137604,1.744873
			c0.4765091,0.4118652,1.0485077,0.6173134,1.7198792,0.6173134c0.6452332,0,1.2027435-0.2093124,1.6725388-0.6259995
			c0.4716797-0.416687,0.7059937-0.9954147,0.7059937-1.7361908c-0.0000076-0.7639236-0.2402039-1.3445892-0.7224808-1.7448807
			c-0.4822693-0.3983536-1.0349579-0.5989799-1.6560593-0.5989799
			C77.5603867,41.3904152,76.9941635,41.6112938,76.5061111,42.0520935 M130.7101593,35.6049995
			c-1.1517639,0-2.330368,0.4456215-3.214859,1.3339729l-9.6609497,9.6600075
			c-0.439888,0.4417686-0.6578293,1.0185699-0.6559448,1.5963364c-0.0028229,0.5768013,0.2151184,1.1555328,0.6559525,1.5963326
			c0.8757706,0.8758087,2.2965775,0.8758087,3.1723557,0l9.6638947-9.6638641
			c0.0135345-0.013504,0.0163574-0.0163956,0.0462646-0.0183258c0.0289612,0.0019302,0.035675,0.0048218,0.0482788,0.0183258
			l9.6146851,9.6156235c-1.5558624,0.7224503-2.6294403,2.2927399-2.6352081,4.1253929v9.098629
			c0,0.0212173-0.0462799,0.066555-0.0685272,0.0675163l-13.9174881-0.0009537c-0.0241394,0-0.0685272-0.0434074-0.0685272-0.066555
			v-6.5676422c0-1.2394485-1.0050583-2.2435455-2.2425385-2.2435455c-1.2385406,0-2.2425385,1.0041008-2.2425385,2.2435455
			v6.5869331c0.0076599,2.5184517,2.0341339,4.5440102,4.5536041,4.5517235l13.9174881,0.0019226
			c2.5194702-0.0096512,4.5459595-2.0332794,4.5537262-4.5536537l0.0028229-9.0986252
			c0-0.0231514,0.0424957-0.066555,0.0646362-0.0675201h0.7803955c0.6500702-0.0067558,1.3184967-0.0858498,2.0467377-0.5121841
			c0.7031555-0.3665276,1.3734741-1.3551979,1.3899536-2.3004532v-0.0684853c0-0.0183296-0.0010529-0.0366516-0.0019989-0.0559502
			c0-0.0028915,0-0.004818,0-0.0067482c0-0.0038528,0-0.0077171,0-0.0125389
			c-0.0404968-1.2307701-0.616272-1.9426079-1.1767273-2.5280914l-11.3990784-11.4000473
			c-0.884491-0.884491-2.0583954-1.3310776-3.2129822-1.3310776H130.7101593z"/>
	</g>
</g>
</svg>
