<?xml version="1.0" encoding="utf-8"?>
<!-- Generator: Adobe Illustrator 25.3.0, SVG Export Plug-In . SVG Version: 6.00 Build 0)  -->
<svg version="1.1" id="Layer_1" xmlns="http://www.w3.org/2000/svg" xmlns:xlink="http://www.w3.org/1999/xlink" x="0px" y="0px"
	 viewBox="0 0 750.2 400.1" style="enable-background:new 0 0 750.2 400.1;" xml:space="preserve">
<g>
	<path d="M397.5,143.6l54.7-12.5c0.1-1.6,0.2-3.3,0.3-5.1c0,0,0,0,0,0v-1.2c0.2-4.9,0.4-10.4,0.6-15.9c0.1-2.4,0.2-4.8,0.4-7.2
		c0-0.8,0.1-1.6,0.1-2.4c0.2-3.2,0.4-6.4,0.7-9.5c0.1-1.5,0.3-3.1,0.4-4.6c0.2-1.5,0.3-3,0.5-4.4c0.1-0.7,0.2-1.4,0.3-2.1
		c1.2-8.3,2.9-15.2,5.3-18.8l-62.3,19l-14.5,4.4L397.5,143.6z"/>
	<path d="M53,144.6l56.9-13.5c0.3-1.9,0.4-4,0.5-6.3c0,0,0,0,0,0c0.2-6.2,0.5-13.5,0.8-21.1c0.6-12.6,1.7-25.8,3.8-35.3
		c0.9-4.2,1.3-6.4,2.7-8.9L39.4,83.3L53,144.6z"/>
	<path d="M286.3,59.5c1.2,2.3,2,4.8,2.9,8.7c3.2,15.2,4,39.9,4.6,56.4c0.1,2.4,0.2,4.6,0.4,6.5l58,13.8l0.2,0L366,83.3L286.1,59
		C286.2,59.2,286.3,59.3,286.3,59.5z"/>
	<path d="M638.1,106.2c0.1,1.6,0.2,3.2,0.2,4.8c0.1,1.6,0.1,3.2,0.2,4.7c0.1,3.1,0.2,6.1,0.3,8.9v1.2c0.1,1.5,0.1,2.8,0.2,4.1
		c0,0.5,0.1,0.9,0.1,1.4l57.7,13.5l13.7-61.3l-80.1-24.2c3.2,4.8,5.1,15.5,6.3,27.8C637.3,93.2,637.7,99.8,638.1,106.2z"/>
</g>
</svg>
