<?xml version="1.0" encoding="utf-8"?>
<!-- Generator: Adobe Illustrator 25.3.0, SVG Export Plug-In . SVG Version: 6.00 Build 0)  -->
<svg version="1.1" id="Layer_1" xmlns="http://www.w3.org/2000/svg" xmlns:xlink="http://www.w3.org/1999/xlink" x="0px" y="0px"
	 viewBox="0 0 750.2 400.1" style="enable-background:new 0 0 750.2 400.1;" xml:space="preserve">
<g>
	<path d="M104.4,356.8v2.4v2.5c0,0,0.1,0,0.2,0c4.3,0.9,57.2,12.2,95.8,11.6c42.9-0.6,99.5-11.7,99.5-11.7v-2.2v-22.7l-0.1-22.1
		H104.4L104.4,356.8z"/>
	<polygon points="299.7,265.8 104.3,265.8 104.3,280.6 299.7,280.6 299.7,271.9 	"/>
	<path d="M104.3,246.9l0,2.7h195.4v-3.2c-0.1-0.3-0.2-0.6-0.4-0.9H104.8C104.7,245.9,104.5,246.4,104.3,246.9z"/>
</g>
</svg>
