<?xml version="1.0" encoding="utf-8"?>
<!-- Generator: Adobe Illustrator 25.3.0, SVG Export Plug-In . SVG Version: 6.00 Build 0)  -->
<svg version="1.1" id="Layer_1" xmlns="http://www.w3.org/2000/svg" xmlns:xlink="http://www.w3.org/1999/xlink" x="0px" y="0px"
	 viewBox="0 0 750.2 400.1" style="enable-background:new 0 0 750.2 400.1;" xml:space="preserve">
<g>
	<path d="M113,218.2c-0.6,2.8-1.3,5.7-2.1,8.7c-1.7,6.5-3.9,13.1-6.5,19.9l0,87.5l0,19.3l0,3.3v2.4v2.5c0,0,0.1,0,0.2,0
		c0-3.9,0.1-7.1,0.1-8.2c0-0.2,0-0.3,0-0.3v0.3v8.2c2.8,0.6,21.6,4.6,44.3,7.7c-3.3-7.3-8.6-16.6-16.7-28.4
		C122.2,326.2,116.7,279.9,113,218.2z"/>
	<path d="M299.7,246.4c-2.5-6.4-4.5-12.6-6.1-18.7c-0.6-2.1-1.1-4.1-1.6-6.2c-3.7,60-9.2,104.9-19.1,119.5
		c-7.7,11.3-13,20.4-16.3,27.5c24.3-3.3,43.4-7,43.4-7v-2.2v-5.9v-16.8l-0.2-64.8V246.4z"/>
	<path d="M453.6,225c0,0.1-0.1,0.2-0.1,0.3c-1.6,6-3.5,12.2-5.8,18.5l0,95.7l0,21.7c0,0,0,0,0.1,0.1c0-4.6,0.1-8.2,0.1-8.2v8.3
		c0.1,0.1,0.2,0.1,0.2,0.1c0.1,0.1,0.2,0.2,0.4,0.2c0,0,1.8,0.9,5,2.4c4.9,2.2,13.1,5.8,23.5,9.4c-1.3-2.2-2.6-4.5-4-6.9
		C462.8,349.5,457.3,296.1,453.6,225z"/>
	<path d="M643.1,243.4c-2.2-6.1-4.1-12.1-5.6-17.9c-0.2-0.6-0.3-1.2-0.5-1.8c-3.7,71.8-9.2,125.7-19.4,142.9
		c-1.3,2.2-2.5,4.3-3.7,6.4c10.2-3.4,18.5-6.8,23.6-9c3.7-1.6,5.7-2.5,5.7-2.5v-3.3l0.1-85.9l0-0.4h-0.2V243.4z"/>
	<path d="M296.7,145.4c-1.3-2.6-2.6-6.7-3.3-13.3c-2,6.5-15.4,54.1,6.4,112.2l0.1-94.9C299.4,149.1,298,148.1,296.7,145.4z"/>
	<path d="M110.8,131.9c-0.7,6.8-2,11-3.3,13.6c-0.2,0.3-0.3,0.6-0.5,0.9s-0.3,0.5-0.5,0.8c-0.6,0.9-1.2,1.5-1.7,1.9
		c-0.1,0.1-0.2,0.2-0.3,0.2s-0.2,0.1-0.3,0.2v95.1C126.7,185.7,112.5,137.4,110.8,131.9z"/>
	<path d="M643.2,148.9c-1.7-2-4.1-6.7-5.1-17.2H638c-1.4,4.3-15.6,51.3,5.1,109.4L643.2,148.9z"/>
	<path d="M453.2,132.4c-1.1,11.1-3.9,15.6-5.6,17.2v92.1C467.9,185.6,455.4,139.8,453.2,132.4z"/>
	<path d="M397.7,144.3l3,13.5l46.5-9.1c1.5-1.8,3.9-6.2,4.9-16.8L397.7,144.3z"/>
	<path d="M104.6,148.1c0.5-0.5,1.3-1.4,2.1-3.1c1.2-2.4,2.5-6.5,3.2-13.1l-56.7,13.5l2.9,13l47.7-9.7l0.2-0.1
		C104.1,148.5,104.4,148.4,104.6,148.1z"/>
	<path d="M294.3,131.9c0.7,6.4,2,10.4,3.2,12.9c0.8,1.6,1.6,2.5,2.1,3.1c0.2,0.2,0.3,0.2,0.4,0.3c0.1,0.1,0.2,0.1,0.2,0.2l0.2,0.1
		l49,10l2.8-12.9l0,0L294.3,131.9z"/>
	<path d="M639.2,132c1,10.3,3.4,14.7,4.9,16.5l49.8,9.2l2.7-12.3L639.2,132z"/>
</g>
</svg>
