<?xml version="1.0" encoding="utf-8"?>
<!-- Generator: Adobe Illustrator 25.3.0, SVG Export Plug-In . SVG Version: 6.00 Build 0)  -->
<svg version="1.1" id="Layer_1" xmlns="http://www.w3.org/2000/svg" xmlns:xlink="http://www.w3.org/1999/xlink" x="0px" y="0px"
	 viewBox="0 0 750.2 400.1" style="enable-background:new 0 0 750.2 400.1;" xml:space="preserve">
<style type="text/css">
	.st0{fill:none;stroke:#000000;stroke-width:0;stroke-linecap:round;stroke-linejoin:round;}
</style>
<g>
	<line class="st0" x1="643.3" y1="166.6" x2="643.3" y2="161.7"/>
	<path d="M630.4,59.2c3.2,4.8,5.1,15.5,6.3,27.8c0.6,6.2,1,12.7,1.4,19.2c0.1,1.6,0.2,3.2,0.2,4.8c0.1,1.6,0.1,3.2,0.2,4.7
		c0.1,3.1,0.2,6.1,0.3,8.9v1.2c0.5,14.9,3.5,20.6,5.3,22.7l49.8,9.2l16.6-74.3L630.4,59.2z"/>
	<path d="M288.4,68.7c-1-4.7-2.1-7.6-3.5-9.8l-33.3-10c-0.5-0.1-0.9-0.1-0.9-0.1c0,1.9-0.3,5.7-0.9,9.1c-2.9,19-14.7,44.4-46.3,44.6
		h-1.9c-31,0-43.1-24.7-46.4-43.5c-0.7-3.6-1-10.1-1-10.1l-34.9,10.6c-1.5,2.2-2.4,4.7-3.4,9.4c-1.1,5-1.9,11.1-2.5,17.6
		c-1.2,13-1.7,27.6-2.1,38.6c-0.1,2.2-0.2,4.2-0.4,6l0.3-0.1l0.1,0.3c0.1,0.2,3.3,9.7,5.1,25.3h171.5c1.8-15.7,5-25.2,5.1-25.4
		l0.1-0.3l0.2,0.1c-0.1-1.2-0.2-2.5-0.3-3.9c0-0.1,0-0.3,0-0.4c0-0.6-0.1-1.1-0.1-1.7C292.3,108.4,291.6,83.7,288.4,68.7z"/>
	<path d="M452.5,124.8c0.2-4.9,0.4-10.4,0.6-15.9c0.1-2.4,0.2-4.8,0.4-7.2c0-0.8,0.1-1.6,0.1-2.4c0.2-3.2,0.4-6.4,0.7-9.5
		c0.1-1.5,0.3-3.1,0.4-4.6c0.2-1.5,0.3-3,0.5-4.4c0.1-0.7,0.2-1.4,0.3-2.1c1.2-8.3,2.9-15.2,5.3-18.8l-62.3,19l-14.5,4.4l13.4,60.2
		l54.7-12.5c0.1-1.6,0.2-3.3,0.3-5.1c0,0,0,0,0,0V124.8z"/>
	<path d="M109.9,131.1c0.3-1.9,0.4-4,0.5-6.3c0,0,0,0,0,0c0.2-6.2,0.5-13.5,0.8-21.1c0.6-12.6,1.7-25.8,3.8-35.3
		c0.9-4.2,1.3-6.4,2.7-8.9L39.4,83.3L53,144.6L109.9,131.1z"/>
	<path d="M286.1,59c0.1,0.2,0.2,0.3,0.2,0.5c1.2,2.3,2,4.8,2.9,8.7c3.2,15.2,4,39.9,4.6,56.4c0.1,2.4,0.2,4.6,0.4,6.5l58,13.8l0.2,0
		L366,83.3L286.1,59z"/>
</g>
</svg>
