<?xml version="1.0" encoding="utf-8"?>
<!-- Generator: Adobe Illustrator 25.3.0, SVG Export Plug-In . SVG Version: 6.00 Build 0)  -->
<svg version="1.1" id="Layer_1" xmlns="http://www.w3.org/2000/svg" xmlns:xlink="http://www.w3.org/1999/xlink" x="0px" y="0px"
	 viewBox="0 0 750.2 400.1" style="enable-background:new 0 0 750.2 400.1;" xml:space="preserve">
<style type="text/css">
	.st0{fill:none;stroke:#000000;stroke-width:0;stroke-linecap:round;stroke-linejoin:round;}
</style>
<g>
	<line class="st0" x1="643.3" y1="161.7" x2="643.3" y2="166.6"/>
	<path d="M291.6,219.9c-4-17.5-5.1-33.4-4.8-46.8H117.5c0.3,13.4-0.8,29.4-4.8,46.8H291.6z"/>
	<path d="M416.6,73.5l14.3,62.5l21.3-4.9c0.1-1.6,0.2-3.3,0.3-5.1c0,0,0,0,0,0v-1.2c0.2-4.9,0.4-10.4,0.6-15.9
		c0-0.5,0.1-1.1,0.1-1.6l-9.6-42L416.6,73.5z"/>
	<path d="M74,72.8l14.6,63.4l21.3-5.1c0.3-1.9,0.4-4,0.5-6.3c0,0,0,0,0,0c0.2-4.8,0.4-10.3,0.6-16.1l-10.2-44.1L74,72.8z"/>
	<path d="M305.6,64.9l-12,52.4c0.1,2.5,0.2,5,0.3,7.2c0.1,2.4,0.2,4.6,0.4,6.5l23.7,5.6l14.6-63.6L305.6,64.9z"/>
	<path d="M647.3,64.3l-9.4,39.7c0,0.7,0.1,1.5,0.1,2.2c0.1,1.6,0.2,3.2,0.2,4.8c0.1,1.6,0.1,3.2,0.2,4.7c0.1,3.1,0.2,6.1,0.3,8.9
		v1.2c0.1,1.5,0.1,2.8,0.2,4.1c0,0.5,0.1,0.9,0.1,1.4l20.2,4.7l14.9-63.5L647.3,64.3z"/>
</g>
</svg>
