<?xml version="1.0" encoding="utf-8"?>
<!-- Generator: Adobe Illustrator 25.3.0, SVG Export Plug-In . SVG Version: 6.00 Build 0)  -->
<svg version="1.1" id="Layer_1" xmlns="http://www.w3.org/2000/svg" xmlns:xlink="http://www.w3.org/1999/xlink" x="0px" y="0px"
	 viewBox="0 0 750.2 400.1" style="enable-background:new 0 0 750.2 400.1;" xml:space="preserve">
<g>
	<path d="M292.1,105.4h-180c-0.4,7-0.6,13.8-0.8,19.7c-0.1,2.2-0.2,4.2-0.4,6l0.3-0.1l0.1,0.3c0.1,0.2,2.6,7.6,4.4,20.1h172.9
		c1.8-12.6,4.4-20,4.4-20.2l0.1-0.3l0.2,0.1c-0.1-1.2-0.2-2.5-0.3-3.9c0-0.1,0-0.3,0-0.4c0-0.6-0.1-1.1-0.1-1.7
		C292.7,119.2,292.5,112.4,292.1,105.4z"/>
</g>
</svg>
