<?xml version="1.0" encoding="utf-8"?>
<!-- Generator: Adobe Illustrator 25.3.0, SVG Export Plug-In . SVG Version: 6.00 Build 0)  -->
<svg version="1.1" id="Layer_1" xmlns="http://www.w3.org/2000/svg" xmlns:xlink="http://www.w3.org/1999/xlink" x="0px" y="0px"
	 viewBox="0 0 240.8999939 34" style="enable-background:new 0 0 240.8999939 34;" xml:space="preserve">
<style type="text/css">
	.st0{fill:#691C32;}
	.st1{fill:#E1251B;}
	.st2{fill:#B12028;}
	.st3{fill:#FFB71B;}
	.st4{fill:#98989A;}
	.st5{fill:#6F7271;}
	.st6{fill:#3D4543;}
	.st7{fill:#1D1D1B;}
	.st8{fill:#FFFFFF;}
	.st9{font-family:'Arial-BoldMT';}
	.st10{font-size:3.3436899px;}
	.st11{font-size:4.9809175px;}
	.st12{font-size:4.3475065px;}
</style>
<path class="st0" d="M136.2996674,5.8310599h23.1337128c0.3453522,0,0.3453522,1.3259106,0.3453522,2.6515985v14.5700779
	c0,1.3279171,0,1.3279171-0.3453522,1.3279171h-23.1337128c-0.345932,0-0.345932,0-0.345932-1.3279171V8.4826584
	C135.9537354,7.1569705,135.9537354,5.8310599,136.2996674,5.8310599z"/>
<path class="st1" d="M216.2806702,5.9145565h23.1336975c0.3453522,0,0.3453522,1.3259106,0.3453522,2.651598v14.5700798
	c0,1.3279152,0,1.3279152-0.3453522,1.3279152h-23.1336975c-0.345932,0-0.345932,0-0.345932-1.3279152V8.5661545
	C215.9347382,7.2404671,215.9347382,5.9145565,216.2806702,5.9145565z"/>
<path class="st2" d="M188.486084,5.9145565h23.1336975c0.3453522,0,0.3453522,1.3259106,0.3453522,2.651598v14.5700798
	c0,1.3279152,0,1.3279152-0.3453522,1.3279152H188.486084c-0.345932,0-0.345932,0-0.345932-1.3279152V8.5661545
	C188.140152,7.2404671,188.140152,5.9145565,188.486084,5.9145565z"/>
<path class="st3" d="M161.8416138,5.9145565h23.1337128c0.3453522,0,0.3453522,1.3259106,0.3453522,2.651598v14.5700798
	c0,1.3279152,0,1.3279152-0.3453522,1.3279152h-23.1337128c-0.345932,0-0.345932,0-0.345932-1.3279152V8.5661545
	C161.4956818,7.2404671,161.4956818,5.9145565,161.8416138,5.9145565z"/>
<path class="st4" d="M56.5518532,6.2213058h23.133709c0.3453522,0,0.3453522,1.3259106,0.3453522,2.651598v14.5700798
	c0,1.3279152,0,1.3279152-0.3453522,1.3279152h-23.133709c-0.345932,0-0.345932,0-0.345932-1.3279152V8.8729038
	C56.2059212,7.5472164,56.2059212,6.2213058,56.5518532,6.2213058z"/>
<path class="st5" d="M28.7572689,6.2213058h23.133707c0.3453522,0,0.3453522,1.3259106,0.3453522,2.651598v14.5700798
	c0,1.3279152,0,1.3279152-0.3453522,1.3279152h-23.133707c-0.3459339,0-0.3459339,0-0.3459339-1.3279152V8.8729038
	C28.411335,7.5472164,28.411335,6.2213058,28.7572689,6.2213058z"/>
<path class="st6" d="M2.1128051,6.2213058h23.133707c0.3453541,0,0.3453541,1.3259106,0.3453541,2.651598v14.5700798
	c0,1.3279152,0,1.3279152-0.3453541,1.3279152H2.1128051c-0.3459334,0-0.3459334,0-0.3459334-1.3279152V8.8729038
	C1.7668717,7.5472164,1.7668717,6.2213058,2.1128051,6.2213058z"/>
<g>
	<path class="st7" d="M82.3712082,6.2722106h23.1337051c0.3453522,0,0.3453522,1.3259106,0.3453522,2.6515975v14.5700788
		c0,1.3279171,0,1.3279171-0.3453522,1.3279171H82.3712082c-0.3459396,0-0.3459396,0-0.3459396-1.3279171V8.9238081
		C82.0252686,7.5981212,82.0252686,6.2722106,82.3712082,6.2722106z"/>
</g>
<text transform="matrix(1 0 0 1 87.8476562 17.3554688)" class="st8 st9 st10">BLACK</text>
<g>
	<path class="st7" d="M130.9003296,7.4593811c0.019104,0.4442673,0.019104,1.0113888,0.019104,1.4128208v14.5700798
		c0,0.0298519,0,0.0596218,0,0.0891323l-21.3474197-0.000145c-0.0000076-0.02948-0.0000076-0.0591698-0.0000076-0.0889874V8.8722019
		c0-0.4014359,0-0.9686089,0.0191422-1.4128208H130.9003296 M131.8128662,6.220602h-23.1337051
		c-0.345932,0-0.345932,1.3259087-0.345932,2.6515999v14.5700798c0,1.3279209,0,1.3279209,0.345932,1.3279209h23.1337051
		c0.3453522,0,0.3453522,0,0.3453522-1.3279209V8.8722019C132.1582184,7.5465107,132.1582184,6.220602,131.8128662,6.220602
		L131.8128662,6.220602z"/>
</g>
<text transform="matrix(1 0 0 1 114.15625 17.3037109)" class="st7 st9 st10">WHITE</text>
<text transform="matrix(1 0 0 1 139.8066406 17.175293)" class="st8 st9 st11">7421C</text>
<text transform="matrix(1 0 0 1 192.2333984 16.9970703)" class="st8 st9 st11">7621C</text>
<text transform="matrix(1 0 0 1 6.3457031 17.0576172)" class="st8 st9 st11">446C</text>
<text transform="matrix(1 0 0 1 33.5146484 17.0576172)" class="st8 st9 st11">424C</text>
<text transform="matrix(1 0 0 1 222.265625 16.9970703)" class="st8 st9 st11">485C</text>
<text transform="matrix(1 0 0 1 166.4228516 16.6479492)" class="st7 st9 st11">1235C</text>
<g>
	<text transform="matrix(1 0 0 1 61.9179688 13.7651367)"><tspan x="0" y="0" class="st7 st9 st12">COOL</tspan><tspan x="-3.3837891" y="5.2172852" class="st7 st9 st12">GRAY 7C</tspan></text>
</g>
</svg>
