<?xml version="1.0" encoding="utf-8"?>
<!-- Generator: Adobe Illustrator 25.3.0, SVG Export Plug-In . SVG Version: 6.00 Build 0)  -->
<svg version="1.1" id="Layer_1" xmlns="http://www.w3.org/2000/svg" xmlns:xlink="http://www.w3.org/1999/xlink" x="0px" y="0px"
	 viewBox="0 0 240.8999939 34" style="enable-background:new 0 0 240.8999939 34;" xml:space="preserve">
<style type="text/css">
	.st0{fill:#194F90;}
	.st1{fill:#A7A8A9;}
	.st2{fill:#D7282F;}
	.st3{font-family:'Arial-BoldMT';}
	.st4{font-size:5.0073686px;}
	.st5{fill:#FFFFFF;}
	.st6{font-size:7.4592113px;}
	.st7{font-size:6.5106421px;}
</style>
<path class="st0" d="M91.3928757,2.2585568h34.6440659c0.517189,0,0.517189,1.9856277,0.517189,3.970921v21.8195343
	c0,1.9886322,0,1.9886322-0.517189,1.9886322H91.3928757c-0.5180511,0-0.5180511,0-0.5180511-1.9886322V6.2294779
	C90.8748245,4.2441845,90.8748245,2.2585568,91.3928757,2.2585568z"/>
<path class="st1" d="M131.0074463,2.2585568h34.6440582c0.5171814,0,0.5171814,1.9856277,0.5171814,3.970921v21.8195343
	c0,1.9886322,0,1.9886322-0.5171814,1.9886322h-34.6440582c-0.5180664,0-0.5180664,0-0.5180664-1.9886322V6.2294779
	C130.4893799,4.2441845,130.4893799,2.2585568,131.0074463,2.2585568z"/>
<path class="st2" d="M169.9632568,2.1823113h34.6440582c0.5171814,0,0.5171814,1.9856274,0.5171814,3.9709213v21.8195362
	c0,1.9886322,0,1.9886322-0.5171814,1.9886322h-34.6440582c-0.5180664,0-0.5180664,0-0.5180664-1.9886322V6.1532326
	C169.4451904,4.1679387,169.4451904,2.1823113,169.9632568,2.1823113z"/>
<g>
	<path d="M85.299324,3.7880025c0.0286255,0.6653175,0.0286255,1.5146179,0.0286255,2.1157913v21.8195305
		c0,0.0447445,0,0.0892582-0.0000076,0.1334896H53.3589363c-0.0000114-0.0442181-0.0000114-0.0887604-0.0000114-0.1334896V5.9037938
		c0-0.6011753,0-1.4505596,0.0286713-2.1157913H85.299324 M86.6659088,1.9328638H52.0218353
		c-0.5180473,0-0.5180473,1.9856299-0.5180473,3.9709301v21.8195305c0,1.9886303,0,1.9886303,0.5180473,1.9886303h34.6440735
		c0.5171814,0,0.5171814,0,0.5171814-1.9886303V5.9037938C87.1830902,3.9184937,87.1830902,1.9328638,86.6659088,1.9328638
		L86.6659088,1.9328638z"/>
</g>
<text transform="matrix(1 0 0 1 60.2213554 18.5300312)" class="st3 st4">WHITE</text>
<text transform="matrix(1 0 0 1 95.6110077 17.3381367)" class="st5 st3 st6">7686C</text>
<text transform="matrix(1 0 0 1 174.1808319 18.6433125)" class="st5 st3 st6">1795C</text>
<g>
	<text transform="matrix(1 0 0 1 138.6295624 14.4978056)"><tspan x="0" y="0" class="st3 st7">COOL</tspan><tspan x="-5.0673828" y="7.8125" class="st3 st7">GRAY 6C</tspan></text>
</g>
</svg>
