<?xml version="1.0" encoding="utf-8"?>
<!-- Generator: Adobe Illustrator 25.3.0, SVG Export Plug-In . SVG Version: 6.00 Build 0)  -->
<svg version="1.1" id="Layer_1" xmlns="http://www.w3.org/2000/svg" xmlns:xlink="http://www.w3.org/1999/xlink" x="0px" y="0px"
	 viewBox="0 0 240.8999939 34" style="enable-background:new 0 0 240.8999939 34;" xml:space="preserve">
<style type="text/css">
	.st0{fill:#002D5D;}
	.st1{fill:#00783F;}
	.st2{fill:#1D1D1B;}
	.st3{font-family:'Arial-BoldMT';}
	.st4{font-size:4.930501px;}
	.st5{fill:#FFFFFF;}
	.st6{font-size:7.3447051px;}
</style>
<path class="st0" d="M106.3720703,3.4840178h34.1122437c0.5092468,0,0.5092468,1.9551463,0.5092468,3.9099641v21.4845848
	c0,1.9581051,0,1.9581051-0.5092468,1.9581051h-34.1122437c-0.5101013,0-0.5101013,0-0.5101013-1.9581051V7.3939819
	C105.861969,5.4391642,105.861969,3.4840178,106.3720703,3.4840178z"/>
<path class="st1" d="M145.3785095,3.4840178h34.1122437C180,3.4840178,180,5.4391642,180,7.3939819v21.4845848
	c0,1.9581051,0,1.9581051-0.5092468,1.9581051h-34.1122437c-0.5101013,0-0.5101013,0-0.5101013-1.9581051V7.3939819
	C144.8684082,5.4391642,144.8684082,3.4840178,145.3785095,3.4840178z"/>
<g>
	<path class="st2" d="M100.3720627,4.9899845c0.028183,0.6551037,0.028183,1.4913731,0.028183,2.0833111v21.4845791
		c0,0.0440578,0,0.0878963-0.0000153,0.1314507H68.9219742c-0.0000153-0.043539-0.0000153-0.0874081-0.0000153-0.1314507V7.0732956
		c0-0.5919437,0-1.4282932,0.0282364-2.0833111H100.3720627 M101.7176514,3.1633244h-34.112236
		c-0.5101166,0-0.5101166,1.9551506-0.5101166,3.9099712v21.4845791c0,1.9581108,0,1.9581108,0.5101166,1.9581108h34.112236
		c0.5092545,0,0.5092545,0,0.5092545-1.9581108V7.0732956C102.2269058,5.118475,102.2269058,3.1633244,101.7176514,3.1633244
		L101.7176514,3.1633244z"/>
</g>
<text transform="matrix(1 0 0 1 75.6806641 19.5058594)" class="st2 st3 st4">WHITE</text>
<text transform="matrix(1 0 0 1 112.71875 20.2539062)" class="st5 st3 st6">648C</text>
<text transform="matrix(1 0 0 1 151.8066406 20.2539062)" class="st5 st3 st6">7732C</text>
</svg>
