<?xml version="1.0" encoding="utf-8"?>
<!-- Generator: Adobe Illustrator 25.3.0, SVG Export Plug-In . SVG Version: 6.00 Build 0)  -->
<svg version="1.1" id="Layer_1" xmlns="http://www.w3.org/2000/svg" xmlns:xlink="http://www.w3.org/1999/xlink" x="0px" y="0px"
	 viewBox="0 0 750.2 400.1" style="enable-background:new 0 0 750.2 400.1;" xml:space="preserve">
<style type="text/css">
	.st0{fill:#EDEFEF;}
	.st1{fill:#6E6E6D;stroke:#6E6E6D;stroke-miterlimit:10;}
	.st2{fill:#6E6E6D;}
	.st3{fill:none;stroke:#6E6E6D;stroke-width:0;stroke-linecap:round;stroke-linejoin:round;}
	.st4{fill:#4D4E4E;}
	.st5{fill:#1F1F1D;}
	.st6{fill:#1E1F1D;}
</style>
<g>
	<path class="st0" d="M202,372.6c15.4-0.2,28.7-3,40.9-6.6c-12.3,0.5-26.6,0.8-42.7,0.8c-16.7,0-31.1-0.4-43.2-0.9
		C170.1,369.6,185.2,372.8,202,372.6z"/>
	<path class="st1" d="M300,360.3c-0.1,0-0.3,0.1-0.5,0.1c-0.2,0-0.4,0-0.7,0.1c-1.4,0.2-3.7,0.4-7,0.8c-4.8,0.5-11.7,1.1-20.6,1.8
		c-2,0.1-4,0.3-6.2,0.4c-2.2,0.1-4.4,0.3-6.8,0.4c-15.3,0.8-34.7,1.5-58.1,1.5c-12.3,0-23.3-0.2-33.2-0.5
		c-6.6-0.2-12.6-0.5-18.1-0.8c-8.2-0.5-15.3-1-21.2-1.5c-1-0.1-1.9-0.2-2.9-0.3c-6.5-0.6-11.3-1.2-14.7-1.6c-1-0.1-1.8-0.2-2.5-0.3
		c-0.7-0.1-1.3-0.2-1.8-0.3c-0.4-0.1-0.8-0.2-1-0.2v-4.9l-1.5-0.1v6.2l1.2,0.2c0.2,0.1,0.5,0.1,1,0.2c1,0.1,2.5,0.3,4.4,0.6
		c1.7,0.2,4.1,0.6,7,0.9l-0.3,0.1c5.7,1.3,16.9,4.8,23.5,6.9c2.8,0.9,5.7,1.8,8.6,2.7c14.5,4.5,32,9.1,51.8,9.1c0.5,0,1.1,0,1.5-0.1
		c19-0.2,35.2-4.5,49.8-9.1c2.3-0.7,4.6-1.5,6.9-2.2c5.5-1.7,15.5-4.8,21.3-6.4c9.4-0.8,15.8-1.5,19-1.9l1.1-0.2L300,360.3l0.2,1.5
		l1.3-0.2v-6.8l-1.5,0.1V360.3z M200.2,366.8c16.2,0,30.4-0.3,42.7-0.8c-12.2,3.5-25.6,6.4-40.9,6.6c-16.8,0.2-31.9-3-45-6.7
		C169.1,366.4,183.5,366.8,200.2,366.8z M263.9,367.1c-4,1.2-8.1,2.6-12.5,3.9c-14.2,4.5-30.3,8.8-49.3,9.1c-0.5,0-1.1,0-1.6,0
		c-8.5,0-16.6-0.8-24.2-2.2c-3.3-0.6-6.4-1.2-9.5-2c-2.1-0.5-4.1-1-6.1-1.5c-3-0.8-5.9-1.6-8.7-2.5c-0.9-0.3-1.9-0.6-2.8-0.9
		c-3.8-1.2-7.4-2.3-10.8-3.5c-5.8-1.9-11.2-3.6-16.3-4.7c1.7,0.2,3.6,0.4,5.6,0.5c2,0.2,4.1,0.3,6.3,0.5c1.1,0.1,2.3,0.2,3.5,0.3
		c3.6,0.3,7.4,0.5,11.6,0.8c2.8,0.9,5.6,1.7,8.6,2.5c1,0.3,2,0.5,3,0.8c2,0.5,4,1,6.1,1.5c10.4,2.4,21.7,4.2,34,4.2
		c0.5,0,1.1,0,1.6,0c2.3,0,4.6-0.1,6.9-0.3s4.5-0.4,6.6-0.6c1.1-0.1,2.2-0.3,3.2-0.4c4.3-0.6,8.4-1.4,12.3-2.2c1-0.2,2-0.4,2.9-0.7
		c3.9-0.9,7.7-2,11.3-3c0.9-0.3,1.8-0.5,2.7-0.8c0.9-0.3,1.8-0.5,2.6-0.8c1.2,0,2.4-0.1,3.5-0.2s2.3-0.1,3.4-0.2
		c4.4-0.2,8.6-0.5,12.3-0.8c0.9-0.1,1.9-0.1,2.8-0.2s1.8-0.1,2.6-0.2c-2.8,0.7-5.6,1.5-8.6,2.4C265.9,366.4,264.9,366.7,263.9,367.1
		z"/>
	<path class="st1" d="M643.1,355v5.5c-0.7,0.2-3.2,0.5-10.4,0.9c-11.5,0.6-23.8,5.2-38,9.7c-11.5,3.7-24.3,7.2-38.9,8.6
		c-3.4,0.3-6.8,0.5-10.4,0.5c-0.5,0-1.1,0-1.6,0c-8.5,0-16.6-0.8-24.2-2.2c-3.3-0.6-6.4-1.2-9.5-2c-2.1-0.5-4.1-1-6.1-1.5
		c-3-0.8-5.9-1.6-8.7-2.5c-0.9-0.3-1.9-0.6-2.8-0.9c-5.5-1.7-10.8-3.5-15.7-5c-3.3-1-6.5-2-9.5-2.8c-4.6-1.2-8.8-2-12.9-2.2
		c-1.2-0.1-2.2-0.2-3.1-0.2c-1.1-0.1-1.9-0.2-2.4-0.2c-0.1,0-0.3,0-0.4,0c-0.3,0-0.5-0.1-0.6-0.1V355c-0.2,0-0.3-0.1-0.4-0.1
		l-1.2-0.2v7.1l1.2,0.2c0.1,0,0.4,0.1,0.7,0.1c1.2,0.2,3.2,0.3,6,0.5c8.4,0.5,18.1,3.6,29.2,7.2c2.8,0.9,5.6,1.8,8.6,2.7
		c14.5,4.5,32,9.1,51.8,9.1c0.5,0,1.1,0,1.7,0c19-0.2,35.2-4.5,49.8-9.1c2.4-0.7,4.7-1.5,7-2.2c11.4-3.7,21.2-6.9,30.6-7.4
		c7.2-0.4,9.7-0.7,10.6-0.9l1.2-0.2v-7.1l-1.1,0.2C643.5,354.9,643.3,355,643.1,355z"/>
	<path class="st1" d="M590.2,365.4c-10.3,3.1-21.7,6-34.4,7.2c-3.4,0.3-6.8,0.5-10.4,0.5c-0.5,0-1.1,0-1.6,0
		c-8.5,0-16.6-0.8-24.2-2.2c-3.3-0.6-6.4-1.2-9.5-2c-2.1-0.5-4.1-1-6.1-1.5c-2.5-0.7-4.9-1.3-7.2-2h-3c2.3,0.7,4.6,1.4,6.9,2
		c1,0.3,2,0.5,3,0.8c2,0.5,4,1,6.1,1.5c10.4,2.4,21.7,4.2,33.9,4.2c0.5,0,1.1,0,1.6,0c3.6,0,7.1-0.2,10.5-0.5
		c14-1.3,26.4-4.6,37.6-8.1H590.2z"/>
	<path class="st1" d="M712.4,82.3L712.4,82.3L598.1,47.9l-0.3-0.5l-7-12.2l-0.3-0.6l-0.6-0.1c-0.6-0.1-16-3.6-44.5-3.6
		c-28.5,0-43.6,3.4-44.2,3.5l-0.6,0.1l-0.3,0.6l-8.1,13.9l-0.1,0.1L383.8,81.9l0-0.1l-7,2.2l16.7,77.7l6.6-2.3l46.2-9v202.3v0.8v1.2
		l1.2,0.2c0.1,0,0.2,0,0.4,0.1v5.6c0.1,0,0.3,0.1,0.6,0.1c0.1,0,0.2,0,0.4,0c0.6,0.1,1.3,0.1,2.4,0.2c0.8,0.1,1.8,0.1,3.1,0.2
		c4,0.2,8.3,1,12.9,2.2c3,0.8,6.2,1.7,9.5,2.8c4.9,1.5,10.2,3.3,15.7,5c0.9,0.3,1.9,0.6,2.8,0.9c2.8,0.9,5.7,1.7,8.7,2.5
		c2,0.5,4,1,6.1,1.5c3.1,0.7,6.3,1.4,9.5,2c7.6,1.3,15.7,2.2,24.2,2.2c0.5,0,1.1,0,1.6,0c3.6,0,7-0.2,10.4-0.5
		c14.6-1.3,27.4-4.9,38.9-8.6c14.2-4.5,26.5-9.1,38-9.7c7.2-0.4,9.7-0.7,10.4-0.9V355c0.2,0,0.4-0.1,0.5-0.1l1.1-0.2l0.1,0
		l0.2-204.5c0.2,0,0.4,0.1,0.6,0.1c0.4,0.1,0.9,0.1,1.2,0.2l0.1,0.1l42.4,7.8l11.8,3.3l16.4-76.4l0.3-1.3L712.4,82.3z M555.9,373.5
		c-3.4,0.3-6.9,0.5-10.5,0.5c-0.5,0-1.1,0-1.6,0c-12.2,0-23.6-1.8-33.9-4.2c-2.1-0.5-4.1-1-6.1-1.5c-1-0.3-2-0.5-3-0.8
		c-2.4-0.7-4.7-1.4-6.9-2h3c2.4,0.7,4.8,1.4,7.2,2c2,0.5,4,1,6.1,1.5c3.1,0.7,6.3,1.4,9.5,2c7.6,1.3,15.7,2.2,24.2,2.2
		c0.5,0,1.1,0,1.6,0c3.6,0,7-0.2,10.4-0.5c12.7-1.2,24.1-4,34.4-7.2h3.2C582.3,368.9,569.9,372.2,555.9,373.5z M448.6,290L448.6,290
		L448.6,290z M643.3,166.6v-4.9V166.6z"/>
	<path class="st1" d="M103.2,150.3l0.1,204.5l1.5,0.1v4.9c0.2,0,0.6,0.1,1,0.2c0.5,0.1,1.1,0.2,1.8,0.3c0.7,0.1,1.5,0.2,2.5,0.3
		c3.4,0.4,8.3,1,14.7,1.6c0.9,0.1,1.9,0.2,2.9,0.3c5.9,0.5,13,1,21.2,1.5c5.5,0.3,11.5,0.6,18.1,0.8c9.8,0.3,20.9,0.5,33.2,0.5
		c23.3,0,42.7-0.6,58.1-1.5c2.4-0.1,4.6-0.3,6.8-0.4c2.2-0.1,4.2-0.3,6.2-0.4c8.9-0.6,15.7-1.3,20.6-1.8c3.2-0.3,5.6-0.6,7-0.8
		c0.2,0,0.5-0.1,0.7-0.1c0.2,0,0.4-0.1,0.5-0.1v-5.4l1.5-0.1h0l0.2-204.3l47.3,9.4l0,0.1l7.4,2.3l16.9-78.2l-5.9-1.7l0-0.1L254.2,48
		l-6.8-11.9v0l0,0l-0.7-1.2l-0.1,0l0-0.1c-0.3-0.2-2.2-1.1-8.5-2.1c-8.3-1.2-20.8-1.9-36.2-1.9c-36.6,0-43.7,3.6-44.4,4l0,0
		l-0.2,0.1l-0.4,0.5l-7.5,13.5L37.8,82.3l0,0L32.1,84L49,162.3l7.3-2.4l0,0L103.2,150.3z M299.6,353.7c-0.3,0-0.8,0-1.3,0.1
		c-0.3,0-0.5,0-0.8,0.1c-0.4,0-0.9,0.1-1.4,0.1c-0.8,0-1.6,0.1-2.6,0.1c-0.3,0-0.6,0-1,0.1c-2.3,0.1-5.1,0.3-8.2,0.5
		c-0.4,0-0.9,0-1.3,0.1c-22.8,1.3-61.7,3.3-80.6,3.3c-13.3,0-36.7-0.9-57.3-2c-0.7,0-1.3-0.1-2-0.1c-0.7,0-1.3-0.1-2-0.1
		c-2.6-0.1-5.1-0.3-7.6-0.4c-0.6,0-1.2-0.1-1.8-0.1c-2.4-0.1-4.7-0.3-6.9-0.4c-0.5,0-1.1-0.1-1.6-0.1c-2.1-0.1-4.1-0.2-6-0.3
		c-0.5,0-0.9-0.1-1.3-0.1c-0.9,0-1.8-0.1-2.5-0.1c-2.4-0.1-4.3-0.3-5.8-0.4c-0.3,0-0.6,0-0.8-0.1c-0.8-0.1-1.4-0.1-1.8-0.1l0-0.3
		l-0.1,0v-0.1c-0.1,0-0.2,0-0.3,0l-0.1-203.7c0.6-0.4,1.9-1.4,3.2-4c1.7-3.4,3.4-9.6,3.8-20.6c0.4-11,0.9-25.6,2.1-38.6
		c0.6-6.5,1.4-12.6,2.5-17.6c1-4.7,1.9-7.2,3.4-9.4l29.4-9l-4,7.2l-0.3,0.5l0.1,0.6l7.5,31.2l0.5,1.9l1.7-1L175.1,79
		c6.1,2.5,16.8,6.2,18.8,9.9c-0.2,0.8-0.3,1.6-0.3,2.5v57.8v1.5h1.5h13.7h1.5v-1.5V91.6c0.7-1.6,4.9-10.8,16.1-14.2l23.6,13.4l1.7,1
		l0.5-1.9l7.5-31.2l0.1-0.6l-0.3-0.5l-4.4-7.7l29.6,8.9c1.4,2.2,2.5,5.1,3.5,9.8c3.2,15,3.9,39.7,4.5,56.2c0.4,11,2.1,17.2,3.8,20.6
		c1.3,2.7,2.7,3.7,3.2,4l-0.1,122.5h0l0,18.1h0l0.1,63.6C299.9,353.6,299.7,353.6,299.6,353.7z M202.1,49.7c-21.9,0-33,1.3-38.5,2.4
		c-0.5-1.3-1-2.6-1.4-3.9c4.7-1.1,15.7-2.7,39.8-2.7c24.8,0,35.6,1.5,40.1,2.6c-0.4,1.4-0.9,2.7-1.4,3.9
		C235.5,51,224.4,49.7,202.1,49.7z M211.4,77.2c-3.7,1.1-6.8,2.2-9.4,3.5c-4.7-2.2-13.3-5.6-23.5-6.6c-1.7-1.4-9.4-8.7-14.4-20.6
		c5.4-1.1,16.3-2.3,37.9-2.3c22.1,0,33,1.2,38.2,2.2c-5,12-12.8,19.2-14.5,20.7C222.5,74.6,216.9,75.6,211.4,77.2z M178.7,76.9
		l0.1-0.1c1.9,0.9,4.5,2.2,7,3.7c0.1,0.2,0.2,0.4,0.3,0.6c0.3,0.5,0.8,1,1.4,1.3c-3.6-1.8-7.8-3.3-11-4.4L178.7,76.9z M188,82.7
		c0.1,0,0.2,0.1,0.2,0.1c0.4,0.2,0.9,0.3,1.4,0.3c0.7,0.6,1.4,1.1,2.1,1.7C190.6,84.1,189.4,83.4,188,82.7z"/>
	<path class="st1" d="M299.9,290L299.9,290l-0.1-18.1h0l0.1-122.5c-0.5-0.3-1.9-1.3-3.2-4c-1.7-3.4-3.4-9.6-3.8-20.6
		c-0.6-16.5-1.3-41.2-4.5-56.2c-1-4.7-2.1-7.6-3.5-9.8l-29.6-8.9l4.4,7.7l0.3,0.5l-0.1,0.6l-7.5,31.2l-0.5,1.9l-1.7-1l-23.6-13.4
		c-11.3,3.4-15.5,12.6-16.1,14.2v57.5v1.5h-1.5h-13.7h-1.5v-1.5V91.4c-0.1-0.9,0-1.7,0.3-2.5c-2-3.8-12.7-7.4-18.8-9.9l-20.9,11.9
		l-1.7,1l-0.5-1.9l-7.5-31.2l-0.1-0.6l0.3-0.5l4-7.2l-29.4,9c-1.5,2.2-2.4,4.7-3.4,9.4c-1.1,5-1.9,11.1-2.5,17.6
		c-1.2,13-1.7,27.6-2.1,38.6c-0.4,11-2.1,17.2-3.8,20.6c-1.3,2.6-2.6,3.6-3.2,4l0.1,203.7c0.1,0,0.2,0,0.3,0v0.1l0.1,0l0,0.3
		c0.4,0,1,0.1,1.8,0.1c0.3,0,0.5,0,0.8,0.1c1.5,0.1,3.4,0.2,5.8,0.4c0.8,0,1.7,0.1,2.5,0.1c0.4,0,0.9,0.1,1.3,0.1
		c1.8,0.1,3.8,0.2,6,0.3c0.5,0,1.1,0.1,1.6,0.1c2.2,0.1,4.5,0.2,6.9,0.4c0.6,0,1.2,0.1,1.8,0.1c2.5,0.1,5,0.3,7.6,0.4
		c0.6,0,1.3,0.1,2,0.1c0.7,0,1.3,0.1,2,0.1c20.6,1.1,44,2,57.3,2c18.8,0,57.8-2,80.6-3.3c0.5,0,0.9-0.1,1.3-0.1
		c3.1-0.2,5.9-0.3,8.2-0.5c0.3,0,0.7,0,1-0.1c0.9-0.1,1.8-0.1,2.6-0.1c0.5,0,1-0.1,1.4-0.1c0.3,0,0.6,0,0.8-0.1c0.5,0,1,0,1.3-0.1
		c0.2,0,0.3,0,0.4-0.1L299.9,290z"/>
	<path class="st1" d="M187.6,82.5c-0.6-0.3-1.1-0.8-1.4-1.3c-0.1-0.2-0.2-0.4-0.3-0.6c-2.5-1.5-5.1-2.9-7-3.7l-0.1,0.1l-2.1,1.2
		C179.8,79.2,184,80.7,187.6,82.5z"/>
	<path class="st1" d="M189.6,83.1c-0.5,0-0.9-0.1-1.4-0.3c-0.1,0-0.2-0.1-0.2-0.1c1.3,0.7,2.6,1.4,3.7,2.1
		C191.1,84.2,190.4,83.7,189.6,83.1z"/>
	<path class="st1" d="M275.4,363.7c-0.8,0.1-1.7,0.1-2.6,0.2s-1.8,0.1-2.8,0.2c-3.8,0.3-7.9,0.5-12.3,0.8c-1.1,0.1-2.2,0.1-3.4,0.2
		s-2.3,0.1-3.5,0.2c-0.9,0.3-1.8,0.5-2.6,0.8c-0.9,0.3-1.8,0.5-2.7,0.8c-3.6,1.1-7.4,2.1-11.3,3c-1,0.2-2,0.5-2.9,0.7
		c-4,0.9-8.1,1.6-12.3,2.2c-1.1,0.1-2.1,0.3-3.2,0.4c-2.2,0.3-4.4,0.5-6.6,0.6s-4.5,0.3-6.9,0.3c-0.5,0-1.1,0-1.6,0
		c-12.3,0-23.6-1.8-34-4.2c-2.1-0.5-4.1-1-6.1-1.5c-1-0.3-2-0.5-3-0.8c-2.9-0.8-5.8-1.7-8.6-2.5c-4.2-0.3-8-0.5-11.6-0.8
		c-1.2-0.1-2.3-0.2-3.5-0.3c-2.2-0.2-4.3-0.3-6.3-0.5c-2-0.2-3.8-0.4-5.6-0.5c5.1,1.2,10.5,2.9,16.3,4.7c3.5,1.1,7.1,2.3,10.8,3.5
		c0.9,0.3,1.9,0.6,2.8,0.9c2.8,0.9,5.7,1.7,8.7,2.5c2,0.5,4,1,6.1,1.5c3.1,0.7,6.3,1.4,9.5,2c7.6,1.3,15.7,2.2,24.2,2.2
		c0.5,0,1.1,0,1.6,0c19-0.3,35.1-4.6,49.3-9.1c4.4-1.3,8.5-2.7,12.5-3.9c1-0.3,2-0.6,3-0.9C269.8,365.2,272.6,364.4,275.4,363.7z"/>
	<path class="st2" d="M300,360.3c-0.1,0-0.3,0.1-0.5,0.1c-0.2,0-0.4,0-0.7,0.1c-1.4,0.2-3.7,0.4-7,0.8c-4.8,0.5-11.7,1.1-20.6,1.8
		c-2,0.1-4,0.3-6.2,0.4c-2.2,0.1-4.4,0.3-6.8,0.4c-15.3,0.8-34.7,1.5-58.1,1.5c-12.3,0-23.3-0.2-33.2-0.5
		c-6.6-0.2-12.6-0.5-18.1-0.8c-8.2-0.5-15.3-1-21.2-1.5c-1-0.1-1.9-0.2-2.9-0.3c-6.5-0.6-11.3-1.2-14.7-1.6c-1-0.1-1.8-0.2-2.5-0.3
		c-0.7-0.1-1.3-0.2-1.8-0.3c-0.4-0.1-0.8-0.2-1-0.2v-4.9l-1.5-0.1v6.2l1.2,0.2c0.2,0.1,0.5,0.1,1,0.2c1,0.1,2.5,0.3,4.4,0.6
		c1.7,0.2,4.1,0.6,7,0.9l-0.3,0.1c5.7,1.3,16.9,4.8,23.5,6.9c2.8,0.9,5.7,1.8,8.6,2.7c14.5,4.5,32,9.1,51.8,9.1c0.5,0,1.1,0,1.5-0.1
		c19-0.2,35.2-4.5,49.8-9.1c2.3-0.7,4.6-1.5,6.9-2.2c5.5-1.7,15.5-4.8,21.3-6.4c9.4-0.8,15.8-1.5,19-1.9l1.1-0.2L300,360.3l0.2,1.5
		l1.3-0.2v-6.8l-1.5,0.1V360.3z M200.2,366.8c16.2,0,30.4-0.3,42.7-0.8c-12.2,3.5-25.6,6.4-40.9,6.6c-16.8,0.2-31.9-3-45-6.7
		C169.1,366.4,183.5,366.8,200.2,366.8z M263.9,367.1c-4,1.2-8.1,2.6-12.5,3.9c-14.2,4.5-30.3,8.8-49.3,9.1c-0.5,0-1.1,0-1.6,0
		c-8.5,0-16.6-0.8-24.2-2.2c-3.3-0.6-6.4-1.2-9.5-2c-2.1-0.5-4.1-1-6.1-1.5c-3-0.8-5.9-1.6-8.7-2.5c-0.9-0.3-1.9-0.6-2.8-0.9
		c-3.8-1.2-7.4-2.3-10.8-3.5c-5.8-1.9-11.2-3.6-16.3-4.7c1.7,0.2,3.6,0.4,5.6,0.5c2,0.2,4.1,0.3,6.3,0.5c1.1,0.1,2.3,0.2,3.5,0.3
		c3.6,0.3,7.4,0.5,11.6,0.8c2.8,0.9,5.6,1.7,8.6,2.5c1,0.3,2,0.5,3,0.8c2,0.5,4,1,6.1,1.5c10.4,2.4,21.7,4.2,34,4.2
		c0.5,0,1.1,0,1.6,0c2.3,0,4.6-0.1,6.9-0.3s4.5-0.4,6.6-0.6c1.1-0.1,2.2-0.3,3.2-0.4c4.3-0.6,8.4-1.4,12.3-2.2c1-0.2,2-0.4,2.9-0.7
		c3.9-0.9,7.7-2,11.3-3c0.9-0.3,1.8-0.5,2.7-0.8c0.9-0.3,1.8-0.5,2.6-0.8c1.2,0,2.4-0.1,3.5-0.2s2.3-0.1,3.4-0.2
		c4.4-0.2,8.6-0.5,12.3-0.8c0.9-0.1,1.9-0.1,2.8-0.2s1.8-0.1,2.6-0.2c-2.8,0.7-5.6,1.5-8.6,2.4C265.9,366.4,264.9,366.7,263.9,367.1
		z"/>
	<path class="st2" d="M643.1,355v5.5c-0.7,0.2-3.2,0.5-10.4,0.9c-11.5,0.6-23.8,5.2-38,9.7c-11.5,3.7-24.3,7.2-38.9,8.6
		c-3.4,0.3-6.8,0.5-10.4,0.5c-0.5,0-1.1,0-1.6,0c-8.5,0-16.6-0.8-24.2-2.2c-3.3-0.6-6.4-1.2-9.5-2c-2.1-0.5-4.1-1-6.1-1.5
		c-3-0.8-5.9-1.6-8.7-2.5c-0.9-0.3-1.9-0.6-2.8-0.9c-5.5-1.7-10.8-3.5-15.7-5c-3.3-1-6.5-2-9.5-2.8c-4.6-1.2-8.8-2-12.9-2.2
		c-1.2-0.1-2.2-0.2-3.1-0.2c-1.1-0.1-1.9-0.2-2.4-0.2c-0.1,0-0.3,0-0.4,0c-0.3,0-0.5-0.1-0.6-0.1V355c-0.2,0-0.3-0.1-0.4-0.1
		l-1.2-0.2v7.1l1.2,0.2c0.1,0,0.4,0.1,0.7,0.1c1.2,0.2,3.2,0.3,6,0.5c8.4,0.5,18.1,3.6,29.2,7.2c2.8,0.9,5.6,1.8,8.6,2.7
		c14.5,4.5,32,9.1,51.8,9.1c0.5,0,1.1,0,1.7,0c19-0.2,35.2-4.5,49.8-9.1c2.4-0.7,4.7-1.5,7-2.2c11.4-3.7,21.2-6.9,30.6-7.4
		c7.2-0.4,9.7-0.7,10.6-0.9l1.2-0.2v-7.1l-1.1,0.2C643.5,354.9,643.3,355,643.1,355z"/>
	<path class="st2" d="M590.2,365.4c-10.3,3.1-21.7,6-34.4,7.2c-3.4,0.3-6.8,0.5-10.4,0.5c-0.5,0-1.1,0-1.6,0
		c-8.5,0-16.6-0.8-24.2-2.2c-3.3-0.6-6.4-1.2-9.5-2c-2.1-0.5-4.1-1-6.1-1.5c-2.5-0.7-4.9-1.3-7.2-2h-3c2.3,0.7,4.6,1.4,6.9,2
		c1,0.3,2,0.5,3,0.8c2,0.5,4,1,6.1,1.5c10.4,2.4,21.7,4.2,33.9,4.2c0.5,0,1.1,0,1.6,0c3.6,0,7.1-0.2,10.5-0.5
		c14-1.3,26.4-4.6,37.6-8.1H590.2z"/>
	<path class="st2" d="M712.4,82.3L712.4,82.3L598.1,47.9l-0.3-0.5l-7-12.2l-0.3-0.6l-0.6-0.1c-0.6-0.1-16-3.6-44.5-3.6
		c-28.5,0-43.6,3.4-44.2,3.5l-0.6,0.1l-0.3,0.6l-8.1,13.9l-0.1,0.1L383.8,81.9l0-0.1l-7,2.2l16.7,77.7l6.6-2.3l46.2-9v202.3v0.8v1.2
		l1.2,0.2c0.1,0,0.2,0,0.4,0.1v5.6c0.1,0,0.3,0.1,0.6,0.1c0.1,0,0.2,0,0.4,0c0.6,0.1,1.3,0.1,2.4,0.2c0.8,0.1,1.8,0.1,3.1,0.2
		c4,0.2,8.3,1,12.9,2.2c3,0.8,6.2,1.7,9.5,2.8c4.9,1.5,10.2,3.3,15.7,5c0.9,0.3,1.9,0.6,2.8,0.9c2.8,0.9,5.7,1.7,8.7,2.5
		c2,0.5,4,1,6.1,1.5c3.1,0.7,6.3,1.4,9.5,2c7.6,1.3,15.7,2.2,24.2,2.2c0.5,0,1.1,0,1.6,0c3.6,0,7-0.2,10.4-0.5
		c14.6-1.3,27.4-4.9,38.9-8.6c14.2-4.5,26.5-9.1,38-9.7c7.2-0.4,9.7-0.7,10.4-0.9V355c0.2,0,0.4-0.1,0.5-0.1l1.1-0.2l0.1,0
		l0.2-204.5c0.2,0,0.4,0.1,0.6,0.1c0.4,0.1,0.9,0.1,1.2,0.2l0.1,0.1l42.4,7.8l11.8,3.3l16.4-76.4l0.3-1.3L712.4,82.3z M555.9,373.5
		c-3.4,0.3-6.9,0.5-10.5,0.5c-0.5,0-1.1,0-1.6,0c-12.2,0-23.6-1.8-33.9-4.2c-2.1-0.5-4.1-1-6.1-1.5c-1-0.3-2-0.5-3-0.8
		c-2.4-0.7-4.7-1.4-6.9-2h3c2.4,0.7,4.8,1.4,7.2,2c2,0.5,4,1,6.1,1.5c3.1,0.7,6.3,1.4,9.5,2c7.6,1.3,15.7,2.2,24.2,2.2
		c0.5,0,1.1,0,1.6,0c3.6,0,7-0.2,10.4-0.5c12.7-1.2,24.1-4,34.4-7.2h3.2C582.3,368.9,569.9,372.2,555.9,373.5z M448.6,290L448.6,290
		L448.6,290z M643.3,166.6v-4.9V166.6z"/>
	<path class="st2" d="M103.2,150.3l0.1,204.5l1.5,0.1v4.9c0.2,0,0.6,0.1,1,0.2c0.5,0.1,1.1,0.2,1.8,0.3c0.7,0.1,1.5,0.2,2.5,0.3
		c3.4,0.4,8.3,1,14.7,1.6c0.9,0.1,1.9,0.2,2.9,0.3c5.9,0.5,13,1,21.2,1.5c5.5,0.3,11.5,0.6,18.1,0.8c9.8,0.3,20.9,0.5,33.2,0.5
		c23.3,0,42.7-0.6,58.1-1.5c2.4-0.1,4.6-0.3,6.8-0.4c2.2-0.1,4.2-0.3,6.2-0.4c8.9-0.6,15.7-1.3,20.6-1.8c3.2-0.3,5.6-0.6,7-0.8
		c0.2,0,0.5-0.1,0.7-0.1c0.2,0,0.4-0.1,0.5-0.1v-5.4l1.5-0.1h0l0.2-204.3l47.3,9.4l0,0.1l7.4,2.3l16.9-78.2l-5.9-1.7l0-0.1L254.2,48
		l-6.8-11.9v0l0,0l-0.7-1.2l-0.1,0l0-0.1c-0.3-0.2-2.2-1.1-8.5-2.1c-8.3-1.2-20.8-1.9-36.2-1.9c-36.6,0-43.7,3.6-44.4,4l0,0
		l-0.2,0.1l-0.4,0.5l-7.5,13.5L37.8,82.3l0,0L32.1,84L49,162.3l7.3-2.4l0,0L103.2,150.3z M299.6,353.7c-0.3,0-0.8,0-1.3,0.1
		c-0.3,0-0.5,0-0.8,0.1c-0.4,0-0.9,0.1-1.4,0.1c-0.8,0-1.6,0.1-2.6,0.1c-0.3,0-0.6,0-1,0.1c-2.3,0.1-5.1,0.3-8.2,0.5
		c-0.4,0-0.9,0-1.3,0.1c-22.8,1.3-61.7,3.3-80.6,3.3c-13.3,0-36.7-0.9-57.3-2c-0.7,0-1.3-0.1-2-0.1c-0.7,0-1.3-0.1-2-0.1
		c-2.6-0.1-5.1-0.3-7.6-0.4c-0.6,0-1.2-0.1-1.8-0.1c-2.4-0.1-4.7-0.3-6.9-0.4c-0.5,0-1.1-0.1-1.6-0.1c-2.1-0.1-4.1-0.2-6-0.3
		c-0.5,0-0.9-0.1-1.3-0.1c-0.9,0-1.8-0.1-2.5-0.1c-2.4-0.1-4.3-0.3-5.8-0.4c-0.3,0-0.6,0-0.8-0.1c-0.8-0.1-1.4-0.1-1.8-0.1l0-0.3
		l-0.1,0v-0.1c-0.1,0-0.2,0-0.3,0l-0.1-203.7c0.6-0.4,1.9-1.4,3.2-4c1.7-3.4,3.4-9.6,3.8-20.6c0.4-11,0.9-25.6,2.1-38.6
		c0.6-6.5,1.4-12.6,2.5-17.6c1-4.7,1.9-7.2,3.4-9.4l29.4-9l-4,7.2l-0.3,0.5l0.1,0.6l7.5,31.2l0.5,1.9l1.7-1L175.1,79
		c6.1,2.5,16.8,6.2,18.8,9.9c-0.2,0.8-0.3,1.6-0.3,2.5v57.8v1.5h1.5h13.7h1.5v-1.5V91.6c0.7-1.6,4.9-10.8,16.1-14.2l23.6,13.4l1.7,1
		l0.5-1.9l7.5-31.2l0.1-0.6l-0.3-0.5l-4.4-7.7l29.6,8.9c1.4,2.2,2.5,5.1,3.5,9.8c3.2,15,3.9,39.7,4.5,56.2c0.4,11,2.1,17.2,3.8,20.6
		c1.3,2.7,2.7,3.7,3.2,4l-0.1,122.5h0l0,18.1h0l0.1,63.6C299.9,353.6,299.7,353.6,299.6,353.7z M202.1,49.7c-21.9,0-33,1.3-38.5,2.4
		c-0.5-1.3-1-2.6-1.4-3.9c4.7-1.1,15.7-2.7,39.8-2.7c24.8,0,35.6,1.5,40.1,2.6c-0.4,1.4-0.9,2.7-1.4,3.9
		C235.5,51,224.4,49.7,202.1,49.7z M211.4,77.2c-3.7,1.1-6.8,2.2-9.4,3.5c-4.7-2.2-13.3-5.6-23.5-6.6c-1.7-1.4-9.4-8.7-14.4-20.6
		c5.4-1.1,16.3-2.3,37.9-2.3c22.1,0,33,1.2,38.2,2.2c-5,12-12.8,19.2-14.5,20.7C222.5,74.6,216.9,75.6,211.4,77.2z M178.7,76.9
		l0.1-0.1c1.9,0.9,4.5,2.2,7,3.7c0.1,0.2,0.2,0.4,0.3,0.6c0.3,0.5,0.8,1,1.4,1.3c-3.6-1.8-7.8-3.3-11-4.4L178.7,76.9z M188,82.7
		c0.1,0,0.2,0.1,0.2,0.1c0.4,0.2,0.9,0.3,1.4,0.3c0.7,0.6,1.4,1.1,2.1,1.7C190.6,84.1,189.4,83.4,188,82.7z"/>
	<path class="st2" d="M299.9,290L299.9,290l-0.1-18.1h0l0.1-122.5c-0.5-0.3-1.9-1.3-3.2-4c-1.7-3.4-3.4-9.6-3.8-20.6
		c-0.6-16.5-1.3-41.2-4.5-56.2c-1-4.7-2.1-7.6-3.5-9.8l-29.6-8.9l4.4,7.7l0.3,0.5l-0.1,0.6l-7.5,31.2l-0.5,1.9l-1.7-1l-23.6-13.4
		c-11.3,3.4-15.5,12.6-16.1,14.2v57.5v1.5h-1.5h-13.7h-1.5v-1.5V91.4c-0.1-0.9,0-1.7,0.3-2.5c-2-3.8-12.7-7.4-18.8-9.9l-20.9,11.9
		l-1.7,1l-0.5-1.9l-7.5-31.2l-0.1-0.6l0.3-0.5l4-7.2l-29.4,9c-1.5,2.2-2.4,4.7-3.4,9.4c-1.1,5-1.9,11.1-2.5,17.6
		c-1.2,13-1.7,27.6-2.1,38.6c-0.4,11-2.1,17.2-3.8,20.6c-1.3,2.6-2.6,3.6-3.2,4l0.1,203.7c0.1,0,0.2,0,0.3,0v0.1l0.1,0l0,0.3
		c0.4,0,1,0.1,1.8,0.1c0.3,0,0.5,0,0.8,0.1c1.5,0.1,3.4,0.2,5.8,0.4c0.8,0,1.7,0.1,2.5,0.1c0.4,0,0.9,0.1,1.3,0.1
		c1.8,0.1,3.8,0.2,6,0.3c0.5,0,1.1,0.1,1.6,0.1c2.2,0.1,4.5,0.2,6.9,0.4c0.6,0,1.2,0.1,1.8,0.1c2.5,0.1,5,0.3,7.6,0.4
		c0.6,0,1.3,0.1,2,0.1c0.7,0,1.3,0.1,2,0.1c20.6,1.1,44,2,57.3,2c18.8,0,57.8-2,80.6-3.3c0.5,0,0.9-0.1,1.3-0.1
		c3.1-0.2,5.9-0.3,8.2-0.5c0.3,0,0.7,0,1-0.1c0.9-0.1,1.8-0.1,2.6-0.1c0.5,0,1-0.1,1.4-0.1c0.3,0,0.6,0,0.8-0.1c0.5,0,1,0,1.3-0.1
		c0.2,0,0.3,0,0.4-0.1L299.9,290z"/>
	<path class="st2" d="M187.6,82.5c-0.6-0.3-1.1-0.8-1.4-1.3c-0.1-0.2-0.2-0.4-0.3-0.6c-2.5-1.5-5.1-2.9-7-3.7l-0.1,0.1l-2.1,1.2
		C179.8,79.2,184,80.7,187.6,82.5z"/>
	<path class="st2" d="M189.6,83.1c-0.5,0-0.9-0.1-1.4-0.3c-0.1,0-0.2-0.1-0.2-0.1c1.3,0.7,2.6,1.4,3.7,2.1
		C191.1,84.2,190.4,83.7,189.6,83.1z"/>
	<line class="st3" x1="448.6" y1="290" x2="448.6" y2="290"/>
	<line class="st3" x1="643.3" y1="166.6" x2="643.3" y2="161.7"/>
	<path class="st2" d="M275.4,363.7c-0.8,0.1-1.7,0.1-2.6,0.2s-1.8,0.1-2.8,0.2c-3.8,0.3-7.9,0.5-12.3,0.8c-1.1,0.1-2.2,0.1-3.4,0.2
		s-2.3,0.1-3.5,0.2c-0.9,0.3-1.8,0.5-2.6,0.8c-0.9,0.3-1.8,0.5-2.7,0.8c-3.6,1.1-7.4,2.1-11.3,3c-1,0.2-2,0.5-2.9,0.7
		c-4,0.9-8.1,1.6-12.3,2.2c-1.1,0.1-2.1,0.3-3.2,0.4c-2.2,0.3-4.4,0.5-6.6,0.6s-4.5,0.3-6.9,0.3c-0.5,0-1.1,0-1.6,0
		c-12.3,0-23.6-1.8-34-4.2c-2.1-0.5-4.1-1-6.1-1.5c-1-0.3-2-0.5-3-0.8c-2.9-0.8-5.8-1.7-8.6-2.5c-4.2-0.3-8-0.5-11.6-0.8
		c-1.2-0.1-2.3-0.2-3.5-0.3c-2.2-0.2-4.3-0.3-6.3-0.5c-2-0.2-3.8-0.4-5.6-0.5c5.1,1.2,10.5,2.9,16.3,4.7c3.5,1.1,7.1,2.3,10.8,3.5
		c0.9,0.3,1.9,0.6,2.8,0.9c2.8,0.9,5.7,1.7,8.7,2.5c2,0.5,4,1,6.1,1.5c3.1,0.7,6.3,1.4,9.5,2c7.6,1.3,15.7,2.2,24.2,2.2
		c0.5,0,1.1,0,1.6,0c19-0.3,35.1-4.6,49.3-9.1c4.4-1.3,8.5-2.7,12.5-3.9c1-0.3,2-0.6,3-0.9C269.8,365.2,272.6,364.4,275.4,363.7z"/>
	<polygon class="st0" points="202.3,59.5 203.3,57.8 201.3,57.8 	"/>
	<path class="st0" d="M198.1,66.6c0-0.1-0.1-0.2-0.2-0.2h-0.1v0.4h0.1C198.1,66.9,198.1,66.8,198.1,66.6z"/>
	<path class="st0" d="M225.8,74.2c1.7-1.5,9.5-8.7,14.5-20.7c-5.2-1-16.1-2.2-38.2-2.2c-21.6,0-32.5,1.3-37.9,2.3
		c5,11.9,12.8,19.2,14.4,20.6c10.2,1,18.8,4.4,23.5,6.6c2.5-1.3,5.7-2.5,9.4-3.5C216.9,75.6,222.5,74.6,225.8,74.2z M205.3,57.8
		h-1.5l-1.3,2.4c0,0.1-0.1,0.1-0.2,0.1s-0.2,0-0.2-0.1l-1.3-2.4h-1.4c-0.1,0-0.2-0.1-0.2-0.2s0.1-0.2,0.2-0.2h1.1l-0.7-1.3
		c-0.1-0.1,0-0.3,0.1-0.3c0.1-0.1,0.3,0,0.3,0.1l0.8,1.5h2.5l0.8-1.5c0.1-0.1,0.2-0.2,0.3-0.1c0.1,0.1,0.2,0.2,0.1,0.3l-0.7,1.3h1.2
		c0.1,0,0.2,0.1,0.2,0.2S205.4,57.8,205.3,57.8z M206.8,66.3h0.2l-0.3,0.3L207,67h-0.2l-0.2-0.2V67h-0.1v-0.7h0.1v0.2L206.8,66.3z
		 M206.1,66.9c0.1,0,0.1,0,0.1-0.1v-0.4h0.1v0.4c0,0.2-0.1,0.2-0.3,0.2c-0.1,0-0.3-0.1-0.3-0.2v-0.4h0.1v0.4
		C206,66.8,206,66.9,206.1,66.9z M205.4,66.6v0.1h-0.2v0.1h0.3V67h-0.4v-0.7h0.4v0.1h-0.3v0.2H205.4z M205.2,63.3l-0.8-1v1H204v-1.8
		h0.4l0.8,1.1v-1.1h0.4v1.8H205.2z M204.5,66.7V67h-0.1v-0.7h0.1v0.3h0.2v-0.3h0.1V67h-0.1v-0.3H204.5z M203.8,66.4v-0.1h0.5v0.1
		h-0.2V67H204v-0.5H203.8z M202.7,65.3h-0.6v-1.1h0.2v0.9h0.4V65.3z M202.8,66.3V67h-0.1v-0.7H202.8z M202.3,66.6
		c0,0.2-0.1,0.3-0.3,0.3h-0.3v-0.7h0.3C202.2,66.3,202.3,66.4,202.3,66.6z M202,63.3l-0.4-0.5l-0.4,0.5h-0.5l0.6-0.9l-0.6-0.9h0.5
		l0.3,0.5l0.3-0.5h0.5l-0.6,0.8l0.6,0.9H202z M201.6,66.6v0.1h-0.2v0.1h0.3V67h-0.4v-0.7h0.4v0.1h-0.3v0.2H201.6z M200.1,66.9
		c0.1,0,0.2,0,0.2-0.1c0,0,0,0,0,0h-0.2v-0.1h0.3c0,0.2-0.1,0.4-0.3,0.4c-0.2,0-0.3-0.2-0.3-0.3c0-0.2,0.1-0.3,0.3-0.3
		c0.1,0,0.2,0,0.2,0.1l-0.1,0.1c0,0-0.1-0.1-0.1-0.1c-0.1,0-0.2,0.1-0.2,0.2C199.9,66.8,200,66.9,200.1,66.9z M200,63.3
		c-0.5,0-0.9-0.4-0.9-0.9c0-0.5,0.4-0.9,0.9-0.9c0.5,0,0.9,0.4,0.9,0.9C200.9,62.9,200.5,63.3,200,63.3z M199.7,66.3V67h-0.1v-0.7
		H199.7z M199.2,66.7L199.2,66.7c-0.2-0.1-0.3-0.1-0.3-0.2c0-0.1,0.1-0.2,0.2-0.2c0.1,0,0.2,0.1,0.2,0.2h-0.1c0,0,0-0.1-0.1-0.1
		c-0.1,0-0.1,0-0.1,0.1c0,0,0,0.1,0.1,0.1l0.1,0c0.1,0,0.2,0.1,0.2,0.2c0,0.1-0.1,0.2-0.2,0.2c-0.1,0-0.2-0.1-0.2-0.2h0.1
		c0,0,0,0.1,0.1,0.1C199.2,66.9,199.3,66.8,199.2,66.7C199.3,66.7,199.2,66.7,199.2,66.7z M200.5,66.3h0.1l0.2,0.4v-0.4h0.1V67h-0.1
		l-0.2-0.4V67h-0.1V66.3z M198.8,66.6v0.1h-0.2v0.1h0.3V67h-0.4v-0.7h0.4v0.1h-0.3v0.2H198.8z M197.7,66.3h0.3
		c0.2,0,0.3,0.1,0.3,0.3c0,0.2-0.1,0.3-0.3,0.3h-0.3V66.3z M203.5,67h-0.1l-0.2-0.4V67H203v-0.7h0.1l0.2,0.4v-0.4h0.1V67z
		 M202.9,63.2l-0.2-0.4h1.2v0.4H202.9z M202.4,62.6l-0.1-0.2l0.1-0.1h0h1.4v0.4H202.4z M202.6,61.9l0.2-0.4h1v0.4H202.6z"/>
	<path class="st0" d="M201.9,66.4v0.4h0.1c0.1,0,0.2-0.1,0.2-0.2s-0.1-0.2-0.2-0.2H201.9z"/>
	<path class="st0" d="M200,61.9c-0.3,0-0.5,0.2-0.5,0.5s0.2,0.5,0.5,0.5c0.3,0,0.5-0.2,0.5-0.5S200.3,61.9,200,61.9z"/>
	<path class="st4" d="M194.9,48.9c0.3-0.4,0.5-0.7,0.8-1.1c-0.5,0-1.1,0-1.6,0C194.3,48.1,194.6,48.5,194.9,48.9z"/>
	<path class="st4" d="M203,47.4c-0.4,0-0.8,0.3-0.8,0.6c0,0.3,0.3,0.6,0.8,0.6c0.4,0,0.7-0.3,0.8-0.6
		C203.8,47.7,203.4,47.4,203,47.4z"/>
	<path class="st4" d="M227.6,48c-0.5,0-0.9,0.2-1,0.6c-0.1,0.3,0.2,0.6,0.7,0.6c0.5,0,0.9-0.2,1-0.6C228.4,48.3,228.1,48,227.6,48z"
		/>
	<path class="st4" d="M218.7,49.3c0.4-0.4,0.7-0.8,1.1-1.1c-0.6,0-1.2,0-1.8-0.1C218.2,48.5,218.4,48.9,218.7,49.3z"/>
	<path class="st4" d="M169.5,49.8c0.2-0.4,0.4-0.7,0.6-1.1c-0.6,0-1.2,0.1-1.8,0.1C168.6,49.1,169,49.5,169.5,49.8z"/>
	<path class="st4" d="M178.5,47.8c-0.5,0-0.8,0.3-0.7,0.6c0.1,0.3,0.5,0.6,1,0.6c0.4,0,0.7-0.3,0.7-0.6
		C179.4,48,179,47.8,178.5,47.8z"/>
	<path class="st4" d="M240.8,52c0.5-1.3,0.9-2.6,1.4-3.9c-4.5-1-15.3-2.6-40.1-2.6c-24.2,0-35.1,1.6-39.8,2.7
		c0.4,1.4,0.9,2.7,1.4,3.9c5.5-1.1,16.6-2.4,38.5-2.4C224.4,49.7,235.5,51,240.8,52z M236.9,49.3c0.2-0.4,0.3-0.9,0.4-1.3
		c0.3,0,0.5,0,0.8,0c-0.2,0.7-0.5,1.5-0.8,2.2c-0.2,0-0.5,0-0.7,0c-0.3-0.5-0.7-0.9-1-1.4c-0.1,0.4-0.3,0.9-0.4,1.3
		c-0.3,0-0.5,0-0.8,0c0.2-0.7,0.5-1.4,0.7-2.2c0.2,0,0.5,0,0.7,0C236.3,48.3,236.6,48.8,236.9,49.3z M234.4,48.7
		c0,0.2-0.1,0.3-0.1,0.5c-0.9,0-1.7-0.1-2.5-0.1c-0.1-0.1-0.1-0.2-0.2-0.3c0.1-0.1,0.2-0.1,0.2-0.2c0,0,0,0,0,0
		C232.6,48.6,233.5,48.6,234.4,48.7z M232.8,47.7c0.6,0,1.2,0.1,1.8,0.1c0,0.2-0.1,0.3-0.1,0.5c-0.8,0-1.5-0.1-2.2-0.1
		C232.5,48,232.6,47.9,232.8,47.7z M185.2,48.4c-0.8,0-1.6,0-2.3,0.1c-0.1-0.1-0.2-0.2-0.3-0.3c0-0.1,0.1-0.1,0.1-0.2c0,0,0,0,0,0
		c0.8,0,1.6,0,2.4-0.1C185.1,48.1,185.1,48.3,185.2,48.4z M183.3,47.2c0.6,0,1.1,0,1.6,0c0,0.1,0,0.3,0.1,0.4c-0.7,0-1.4,0-2.1,0.1
		C183.1,47.5,183.2,47.3,183.3,47.2z M169.6,50.3c-0.1,0-0.2,0-0.2-0.1c-0.6-0.5-1.1-0.9-1.7-1.4c-0.4,0-0.8,0-1.3,0.1
		c-0.1,0-0.3-0.1-0.3-0.1c0-0.1,0.1-0.2,0.2-0.2c0.3,0,0.7,0,1,0c-0.3-0.3-0.6-0.5-0.9-0.8c-0.1-0.1-0.1-0.2,0-0.2
		c0.1,0,0.2,0,0.3,0c0.4,0.3,0.7,0.6,1.1,0.9c0.8,0,1.5-0.1,2.3-0.1c0.2-0.3,0.3-0.6,0.5-1c0-0.1,0.2-0.1,0.3-0.1
		c0.1,0,0.2,0.1,0.1,0.2c-0.2,0.3-0.3,0.5-0.4,0.8c0.4,0,0.7,0,1.1-0.1c0.1,0,0.2,0.1,0.3,0.1c0,0.1-0.1,0.1-0.2,0.2
		c-0.4,0-0.9,0-1.4,0.1c-0.3,0.5-0.5,1-0.7,1.5C169.7,50.2,169.7,50.2,169.6,50.3z M178.9,49.5c-0.9,0-1.7-0.4-1.9-1
		c-0.1-0.6,0.5-1.1,1.4-1.1c0.9,0,1.7,0.4,1.8,1C180.4,49,179.8,49.4,178.9,49.5z M182.3,49.3c-0.2-0.2-0.5-0.4-0.7-0.6
		c-0.2,0.2-0.3,0.5-0.5,0.7c-0.3,0-0.6,0-0.9,0c0.3-0.4,0.6-0.7,0.8-1.1c-0.4-0.3-0.8-0.7-1.2-1c0.3,0,0.6,0,0.9,0
		c0.2,0.2,0.4,0.4,0.7,0.6c0.2-0.2,0.3-0.4,0.5-0.6c0.3,0,0.6,0,0.9,0c-0.3,0.3-0.5,0.7-0.8,1c0.4,0.4,0.8,0.7,1.2,1.1
		C182.9,49.3,182.6,49.3,182.3,49.3z M183.7,49.3c-0.2-0.1-0.3-0.3-0.5-0.4c0.7,0,1.3,0,2-0.1c0,0.1,0,0.3,0.1,0.4
		C184.8,49.3,184.3,49.3,183.7,49.3z M187.7,49.2c-0.5-0.4-1-0.8-1.5-1.2c0.1,0.4,0.1,0.8,0.2,1.3c-0.2,0-0.5,0-0.7,0
		c-0.1-0.7-0.2-1.4-0.3-2.1c0.2,0,0.4,0,0.7,0c0.5,0.4,1,0.8,1.5,1.2c0-0.4-0.1-0.8-0.1-1.3c0.2,0,0.5,0,0.7,0
		c0.1,0.7,0.1,1.4,0.2,2.1C188.2,49.2,187.9,49.2,187.7,49.2z M197.4,47.8c-0.4,0-0.8,0-1.3,0c-0.3,0.5-0.7,1-1,1.5
		c0,0-0.1,0.1-0.2,0.1c-0.1,0-0.1,0-0.2-0.1c-0.4-0.5-0.8-1-1.2-1.4c-0.4,0-0.8,0-1.2,0c-0.1,0-0.2-0.1-0.2-0.1
		c0-0.1,0.1-0.1,0.2-0.2c0.3,0,0.6,0,0.9,0c-0.2-0.3-0.4-0.5-0.7-0.8c-0.1-0.1,0-0.2,0.1-0.2c0.1,0,0.2,0,0.3,0.1
		c0.3,0.3,0.5,0.6,0.8,0.9c0.7,0,1.4,0,2.1,0c0.2-0.3,0.5-0.6,0.7-0.9c0.1-0.1,0.2-0.1,0.3-0.1c0.1,0,0.1,0.1,0.1,0.2
		c-0.2,0.3-0.4,0.5-0.6,0.8c0.3,0,0.7,0,1,0c0.1,0,0.2,0.1,0.2,0.1C197.6,47.7,197.5,47.8,197.4,47.8z M201.5,48
		c0-0.6,0.6-1.1,1.5-1.1c0.9,0,1.5,0.5,1.5,1.1c0,0.6-0.7,1.1-1.5,1.1C202.1,49.1,201.5,48.6,201.5,48z M206.2,49.1
		c-0.2-0.2-0.4-0.4-0.6-0.7c-0.2,0.2-0.4,0.4-0.6,0.6c-0.3,0-0.6,0-0.8,0c0.3-0.4,0.7-0.7,1-1.1c-0.3-0.3-0.6-0.7-0.9-1
		c0.3,0,0.6,0,0.8,0c0.2,0.2,0.3,0.4,0.5,0.6c0.2-0.2,0.4-0.4,0.5-0.6c0.3,0,0.6,0,0.9,0c-0.3,0.3-0.6,0.7-1,1
		c0.3,0.4,0.6,0.7,0.9,1.1C206.8,49.1,206.5,49.1,206.2,49.1z M209,49.1c-0.5,0-1,0-1.5,0c-0.1-0.1-0.3-0.3-0.4-0.4
		c0.6,0,1.2,0,1.9,0C209.1,48.8,209,49,209,49.1z M209.1,48.3c-0.7,0-1.5,0-2.2,0c-0.1-0.1-0.1-0.2-0.2-0.3c0.1-0.1,0.1-0.1,0.2-0.2
		c0,0,0,0,0,0c0.8,0,1.5,0,2.3,0C209.1,48,209.1,48.1,209.1,48.3z M209.1,47.5c-0.7,0-1.3,0-2,0c0.1-0.1,0.3-0.3,0.4-0.4
		c0.5,0,1,0,1.6,0C209.2,47.2,209.1,47.3,209.1,47.5z M212.1,49.2c-0.2,0-0.4,0-0.6,0c-0.4-0.4-0.8-0.9-1.2-1.3
		c0,0.4-0.1,0.8-0.1,1.3c-0.2,0-0.5,0-0.7,0c0-0.7,0.1-1.4,0.1-2.1c0.2,0,0.4,0,0.6,0c0.4,0.4,0.8,0.9,1.2,1.3
		c0-0.4,0.1-0.8,0.1-1.3c0.2,0,0.5,0,0.7,0C212.2,47.8,212.1,48.5,212.1,49.2z M221.7,48.2c-0.5,0-0.9,0-1.4,0c-0.5,0.5-1,1-1.5,1.5
		c0,0-0.1,0.1-0.2,0.1c-0.1,0-0.1,0-0.2-0.1c-0.3-0.5-0.7-1.1-1-1.6c-0.4,0-0.8,0-1.3,0c-0.1,0-0.2-0.1-0.2-0.2
		c0-0.1,0.1-0.2,0.2-0.2c0.3,0,0.7,0,1,0c-0.2-0.3-0.4-0.6-0.6-0.9c-0.1-0.1,0-0.2,0.1-0.2c0.1,0,0.2,0,0.3,0.1
		c0.2,0.3,0.5,0.7,0.7,1c0.8,0,1.5,0,2.3,0.1c0.3-0.3,0.6-0.7,0.9-1c0.1-0.1,0.2-0.1,0.3-0.1c0.1,0,0.1,0.1,0.1,0.2
		c-0.3,0.3-0.5,0.6-0.8,0.8c0.4,0,0.8,0,1.2,0c0.1,0,0.2,0.1,0.2,0.2C221.9,48.1,221.8,48.2,221.7,48.2z M225.8,48.5
		c0.1-0.6,0.9-1.1,1.9-1c1,0,1.6,0.5,1.4,1.2c-0.2,0.6-1,1.1-1.9,1C226.3,49.6,225.7,49.1,225.8,48.5z M230.8,49.8
		c-0.2-0.2-0.3-0.5-0.5-0.7c-0.3,0.2-0.5,0.4-0.8,0.6c-0.3,0-0.6,0-0.9,0c0.5-0.3,0.9-0.7,1.4-1c-0.3-0.4-0.5-0.7-0.8-1.1
		c0.3,0,0.6,0,0.9,0c0.1,0.2,0.3,0.4,0.4,0.6c0.2-0.2,0.5-0.4,0.7-0.6c0.3,0,0.6,0,1,0c-0.4,0.3-0.9,0.7-1.3,1
		c0.3,0.4,0.5,0.8,0.8,1.2C231.4,49.8,231.1,49.8,230.8,49.8z M232.3,49.9c-0.1-0.2-0.2-0.3-0.3-0.5c0.7,0,1.4,0.1,2.1,0.1
		c0,0.2-0.1,0.3-0.1,0.5C233.4,49.9,232.9,49.9,232.3,49.9z"/>
	<path class="st5" d="M170.5,48.7c0.5,0,0.9,0,1.4-0.1c0.1,0,0.2-0.1,0.2-0.2c0-0.1-0.1-0.1-0.3-0.1c-0.4,0-0.7,0-1.1,0.1
		c0.1-0.3,0.3-0.5,0.4-0.8c0-0.1,0-0.2-0.1-0.2c-0.1,0-0.2,0-0.3,0.1c-0.2,0.3-0.4,0.6-0.5,1c-0.8,0-1.5,0.1-2.3,0.1
		c-0.4-0.3-0.7-0.6-1.1-0.9c-0.1-0.1-0.2-0.1-0.3,0c-0.1,0-0.1,0.1,0,0.2c0.3,0.3,0.6,0.5,0.9,0.8c-0.3,0-0.7,0-1,0
		c-0.1,0-0.2,0.1-0.2,0.2c0,0.1,0.2,0.1,0.3,0.1c0.4,0,0.9,0,1.3-0.1c0.6,0.5,1.1,0.9,1.7,1.4c0.1,0,0.1,0.1,0.2,0.1
		c0.1,0,0.1,0,0.2-0.1C170,49.7,170.3,49.2,170.5,48.7z M168.2,48.8c0.6,0,1.2-0.1,1.8-0.1c-0.2,0.4-0.4,0.7-0.6,1.1
		C169,49.5,168.6,49.1,168.2,48.8z"/>
	<path class="st5" d="M180.3,48.3c-0.1-0.6-0.9-1.1-1.8-1c-0.9,0-1.6,0.5-1.4,1.1c0.1,0.6,0.9,1.1,1.9,1
		C179.8,49.4,180.4,49,180.3,48.3z M178.8,49c-0.4,0-0.9-0.2-1-0.6c-0.1-0.3,0.3-0.6,0.7-0.6c0.5,0,0.9,0.2,0.9,0.6
		C179.5,48.7,179.2,49,178.8,49z"/>
	<path class="st5" d="M182.8,47.2c-0.3,0-0.6,0-0.9,0c-0.2,0.2-0.3,0.4-0.5,0.6c-0.2-0.2-0.4-0.4-0.7-0.6c-0.3,0-0.6,0-0.9,0
		c0.4,0.3,0.8,0.7,1.2,1c-0.3,0.4-0.6,0.7-0.8,1.1c0.3,0,0.6,0,0.9,0c0.2-0.2,0.3-0.5,0.5-0.7c0.2,0.2,0.5,0.4,0.7,0.6
		c0.3,0,0.6,0,0.9,0c-0.4-0.4-0.8-0.7-1.2-1.1C182.3,47.9,182.5,47.5,182.8,47.2z"/>
	<path class="st5" d="M187.4,47.1c0,0.4,0.1,0.8,0.1,1.3c-0.5-0.4-1-0.8-1.5-1.2c-0.2,0-0.4,0-0.7,0c0.1,0.7,0.2,1.4,0.3,2.1
		c0.2,0,0.5,0,0.7,0c-0.1-0.4-0.1-0.8-0.2-1.3c0.5,0.4,1,0.8,1.5,1.2c0.2,0,0.4,0,0.6,0c-0.1-0.7-0.2-1.4-0.2-2.1
		C187.9,47.1,187.7,47.1,187.4,47.1z"/>
	<path class="st5" d="M185,47.1c-0.5,0-1.1,0-1.6,0c-0.1,0.2-0.2,0.3-0.4,0.5c0.7,0,1.4,0,2.1-0.1C185,47.4,185,47.3,185,47.1z"/>
	<path class="st5" d="M183.3,48.9c0.2,0.1,0.3,0.3,0.5,0.4c0.5,0,1,0,1.5,0c0-0.1,0-0.3-0.1-0.4C184.6,48.8,183.9,48.8,183.3,48.9z"
		/>
	<path class="st5" d="M182.7,48c0,0.1-0.1,0.1-0.1,0.2c0.1,0.1,0.2,0.2,0.3,0.3c0.8,0,1.6,0,2.3-0.1c0-0.1,0-0.3-0.1-0.4
		C184.3,48,183.5,48,182.7,48C182.7,48,182.7,48,182.7,48z"/>
	<path class="st5" d="M204.5,48c0-0.6-0.6-1.1-1.5-1.1c-0.9,0-1.5,0.4-1.5,1.1c0,0.6,0.6,1.1,1.5,1.1
		C203.8,49.1,204.5,48.6,204.5,48z M203,48.6c-0.4,0-0.8-0.3-0.8-0.6c0-0.3,0.4-0.6,0.8-0.6c0.4,0,0.7,0.3,0.7,0.6
		C203.7,48.4,203.4,48.6,203,48.6z"/>
	<path class="st5" d="M207.1,47c-0.3,0-0.6,0-0.9,0c-0.2,0.2-0.4,0.4-0.5,0.6c-0.2-0.2-0.3-0.4-0.5-0.6c-0.3,0-0.6,0-0.8,0
		c0.3,0.3,0.6,0.7,0.9,1c-0.3,0.4-0.7,0.7-1,1.1c0.3,0,0.6,0,0.8,0c0.2-0.2,0.4-0.4,0.6-0.6c0.2,0.2,0.4,0.4,0.6,0.7
		c0.3,0,0.6,0,0.9,0c-0.3-0.4-0.6-0.7-0.9-1.1C206.4,47.7,206.8,47.3,207.1,47z"/>
	<path class="st5" d="M211.4,48.3c-0.4-0.4-0.8-0.9-1.2-1.3c-0.2,0-0.4,0-0.6,0c0,0.7-0.1,1.4-0.1,2.1c0.2,0,0.5,0,0.7,0
		c0-0.4,0.1-0.8,0.1-1.3c0.4,0.4,0.8,0.9,1.2,1.3c0.2,0,0.4,0,0.6,0c0.1-0.7,0.1-1.4,0.2-2.1c-0.2,0-0.5,0-0.7,0
		C211.5,47.5,211.5,47.9,211.4,48.3z"/>
	<path class="st5" d="M207.2,47.4c0.7,0,1.3,0,2,0c0-0.1,0-0.3,0-0.4c-0.5,0-1.1,0-1.6,0C207.4,47.1,207.3,47.3,207.2,47.4z"/>
	<path class="st5" d="M207.6,49.1c0.5,0,1,0,1.5,0c0-0.1,0-0.3,0-0.4c-0.6,0-1.3,0-1.9,0C207.3,48.8,207.4,48.9,207.6,49.1z"/>
	<path class="st5" d="M206.8,47.8c-0.1,0.1-0.1,0.1-0.2,0.2c0.1,0.1,0.1,0.2,0.2,0.3c0.7,0,1.5,0,2.2,0c0-0.1,0-0.3,0-0.4
		C208.3,47.8,207.6,47.8,206.8,47.8C206.8,47.8,206.8,47.8,206.8,47.8z"/>
	<path class="st5" d="M197.4,47.5c-0.3,0-0.7,0-1,0c0.2-0.3,0.4-0.5,0.6-0.8c0.1-0.1,0-0.2-0.1-0.2c-0.1,0-0.2,0-0.3,0.1
		c-0.2,0.3-0.5,0.6-0.7,0.9c-0.7,0-1.4,0-2.1,0c-0.3-0.3-0.5-0.6-0.8-0.9c-0.1-0.1-0.2-0.1-0.3-0.1c-0.1,0-0.1,0.1-0.1,0.2
		c0.2,0.3,0.4,0.5,0.7,0.8c-0.3,0-0.6,0-0.9,0c-0.1,0-0.2,0.1-0.2,0.2c0,0.1,0.1,0.1,0.2,0.1c0.4,0,0.8,0,1.2,0
		c0.4,0.5,0.8,1,1.2,1.4c0,0,0.1,0.1,0.2,0.1c0.1,0,0.1,0,0.2-0.1c0.3-0.5,0.7-1,1-1.5c0.4,0,0.8,0,1.3,0c0.1,0,0.2-0.1,0.2-0.1
		C197.6,47.5,197.5,47.5,197.4,47.5z M194.9,48.9c-0.3-0.4-0.6-0.7-0.9-1.1c0.5,0,1.1,0,1.6,0C195.4,48.1,195.2,48.5,194.9,48.9z"/>
	<path class="st5" d="M229.1,48.7c0.2-0.6-0.5-1.1-1.4-1.2c-1,0-1.7,0.4-1.9,1c-0.1,0.6,0.4,1.1,1.4,1.2
		C228.1,49.7,229,49.3,229.1,48.7z M227.3,49.2c-0.4,0-0.8-0.3-0.7-0.6c0.1-0.3,0.5-0.6,1-0.6c0.5,0,0.8,0.3,0.7,0.6
		C228.2,49,227.8,49.2,227.3,49.2z"/>
	<path class="st5" d="M232.3,47.7c-0.3,0-0.7,0-1,0c-0.2,0.2-0.5,0.4-0.7,0.6c-0.1-0.2-0.3-0.4-0.4-0.6c-0.3,0-0.6,0-0.9,0
		c0.3,0.4,0.5,0.7,0.8,1.1c-0.5,0.3-0.9,0.7-1.4,1c0.3,0,0.6,0,0.9,0c0.3-0.2,0.5-0.4,0.8-0.6c0.2,0.2,0.3,0.5,0.5,0.7
		c0.3,0,0.6,0,1,0c-0.3-0.4-0.5-0.8-0.8-1.2C231.4,48.4,231.8,48,232.3,47.7z"/>
	<path class="st5" d="M234.5,50c0.3,0,0.5,0,0.8,0c0.1-0.4,0.3-0.9,0.4-1.3c0.4,0.5,0.7,0.9,1,1.4c0.2,0,0.5,0,0.7,0
		c0.3-0.7,0.5-1.5,0.8-2.2c-0.3,0-0.5,0-0.8,0c-0.1,0.4-0.3,0.9-0.4,1.3c-0.3-0.5-0.7-0.9-1.1-1.4c-0.2,0-0.5,0-0.7,0
		C234.9,48.6,234.7,49.3,234.5,50z"/>
	<path class="st5" d="M234.5,48.3c0-0.2,0.1-0.3,0.1-0.5c-0.6,0-1.2-0.1-1.8-0.1c-0.2,0.1-0.4,0.3-0.6,0.4
		C233,48.2,233.7,48.2,234.5,48.3z"/>
	<path class="st5" d="M234.1,49.5c-0.7,0-1.4-0.1-2.1-0.1c0.1,0.2,0.2,0.3,0.3,0.5c0.6,0,1.1,0.1,1.7,0.1
		C234,49.8,234.1,49.7,234.1,49.5z"/>
	<path class="st5" d="M231.8,48.5C231.8,48.5,231.8,48.5,231.8,48.5c-0.1,0.1-0.2,0.1-0.2,0.2c0.1,0.1,0.1,0.2,0.2,0.3
		c0.8,0,1.7,0.1,2.5,0.1c0-0.2,0.1-0.3,0.1-0.5C233.5,48.6,232.6,48.6,231.8,48.5z"/>
	<path class="st5" d="M221.7,47.9c-0.4,0-0.8,0-1.2,0c0.3-0.3,0.5-0.6,0.8-0.8c0.1-0.1,0-0.2-0.1-0.2c-0.1,0-0.2,0-0.3,0.1
		c-0.3,0.3-0.6,0.7-0.9,1c-0.8,0-1.5,0-2.3-0.1c-0.2-0.3-0.4-0.7-0.7-1c-0.1-0.1-0.2-0.1-0.3-0.1c-0.1,0-0.2,0.1-0.1,0.2
		c0.2,0.3,0.4,0.6,0.6,0.9c-0.3,0-0.7,0-1,0c-0.1,0-0.2,0.1-0.2,0.2c0,0.1,0.1,0.2,0.2,0.2c0.4,0,0.8,0,1.3,0c0.3,0.5,0.7,1.1,1,1.6
		c0,0.1,0.1,0.1,0.2,0.1c0.1,0,0.2,0,0.2-0.1c0.5-0.5,1-1,1.5-1.5c0.5,0,0.9,0,1.4,0c0.1,0,0.2-0.1,0.3-0.2
		C222,48,221.9,47.9,221.7,47.9z M218.7,49.3c-0.2-0.4-0.5-0.8-0.7-1.2c0.6,0,1.2,0,1.8,0.1C219.4,48.5,219,48.9,218.7,49.3z"/>
	<path class="st6" d="M200.9,62.4c0-0.5-0.4-0.9-0.9-0.9c-0.5,0-0.9,0.4-0.9,0.9c0,0.5,0.4,0.9,0.9,0.9
		C200.5,63.3,200.9,62.9,200.9,62.4z M200,62.9c-0.3,0-0.5-0.2-0.5-0.5s0.2-0.5,0.5-0.5s0.5,0.2,0.5,0.5S200.3,62.9,200,62.9z"/>
	<polygon class="st6" points="202.5,61.5 202,61.5 201.7,62 201.3,61.5 200.8,61.5 201.4,62.4 200.8,63.3 201.3,63.3 201.7,62.7 
		202,63.3 202.6,63.3 201.9,62.3 	"/>
	<polygon class="st6" points="205.6,61.5 205.2,61.5 205.2,62.6 204.4,61.5 204,61.5 204,63.3 204.4,63.3 204.4,62.2 205.2,63.3 
		205.6,63.3 	"/>
	<polygon class="st6" points="203.8,61.5 202.8,61.5 202.6,61.9 203.8,61.9 	"/>
	<polygon class="st6" points="203.8,62.9 202.6,62.9 202.9,63.2 203.8,63.2 	"/>
	<polygon class="st6" points="203.8,62.2 202.4,62.2 202.3,62.2 202.2,62.3 202.4,62.6 203.8,62.6 	"/>
	<path class="st6" d="M205.3,57.3h-1.2l0.7-1.3c0.1-0.1,0-0.3-0.1-0.3c-0.1-0.1-0.3,0-0.3,0.1l-0.8,1.5h-2.5l-0.8-1.5
		c-0.1-0.1-0.2-0.2-0.3-0.1c-0.1,0.1-0.2,0.2-0.1,0.3l0.7,1.3h-1.1c-0.1,0-0.2,0.1-0.2,0.2s0.1,0.2,0.2,0.2h1.4l1.3,2.4
		c0,0.1,0.1,0.1,0.2,0.1s0.2,0,0.2-0.1l1.3-2.4h1.5c0.1,0,0.2-0.1,0.2-0.2S205.4,57.3,205.3,57.3z M203.3,57.8l-1,1.7l-1-1.7H203.3z
		"/>
	<path class="st6" d="M198.3,66.6c0-0.2-0.1-0.3-0.3-0.3h-0.3V67h0.3C198.2,67,198.3,66.8,198.3,66.6z M197.9,66.4h0.1
		c0.1,0,0.2,0.1,0.2,0.2s-0.1,0.2-0.2,0.2h-0.1V66.4z"/>
	<polygon class="st6" points="198.8,66.4 198.8,66.3 198.4,66.3 198.4,67 198.8,67 198.8,66.9 198.5,66.9 198.5,66.7 198.8,66.7 
		198.8,66.6 198.5,66.6 198.5,66.4 	"/>
	<path class="st6" d="M199.2,66.9c-0.1,0-0.1,0-0.1-0.1h-0.1c0,0.1,0.1,0.2,0.2,0.2c0.1,0,0.2-0.1,0.2-0.2c0-0.1-0.1-0.2-0.2-0.2
		l-0.1,0c-0.1,0-0.1-0.1-0.1-0.1c0,0,0-0.1,0.1-0.1c0.1,0,0.1,0,0.1,0.1h0.1c0-0.1-0.1-0.2-0.2-0.2c-0.1,0-0.2,0.1-0.2,0.2
		c0,0.1,0,0.1,0.2,0.2l0.1,0C199.2,66.7,199.3,66.7,199.2,66.9C199.3,66.8,199.2,66.9,199.2,66.9z"/>
	<rect x="199.5" y="66.3" class="st6" width="0.1" height="0.7"/>
	<path class="st6" d="M200.1,66.4c0.1,0,0.1,0,0.1,0.1l0.1-0.1c-0.1-0.1-0.1-0.1-0.2-0.1c-0.2,0-0.3,0.2-0.3,0.3
		c0,0.2,0.1,0.3,0.3,0.3c0.2,0,0.3-0.1,0.3-0.4h-0.3v0.1h0.2c0,0,0,0,0,0c0,0.1-0.1,0.1-0.2,0.1c-0.1,0-0.2-0.1-0.2-0.2
		C199.9,66.5,200,66.4,200.1,66.4z"/>
	<polygon class="st6" points="200.7,66.6 200.9,67 201,67 201,66.3 200.9,66.3 200.9,66.7 200.7,66.3 200.5,66.3 200.5,67 200.7,67 
			"/>
	<polygon class="st6" points="201.6,66.4 201.6,66.3 201.2,66.3 201.2,67 201.6,67 201.6,66.9 201.3,66.9 201.3,66.7 201.6,66.7 
		201.6,66.6 201.3,66.6 201.3,66.4 	"/>
	<path class="st6" d="M201.8,66.3V67h0.3c0.2,0,0.3-0.1,0.3-0.3c0-0.2-0.1-0.3-0.3-0.3H201.8z M202.2,66.6c0,0.1-0.1,0.2-0.2,0.2
		h-0.1v-0.4h0.1C202.1,66.4,202.2,66.5,202.2,66.6z"/>
	<rect x="202.7" y="66.3" class="st6" width="0.1" height="0.7"/>
	<polygon class="st6" points="203.3,66.7 203.1,66.3 203,66.3 203,67 203.1,67 203.1,66.6 203.4,67 203.5,67 203.5,66.3 203.3,66.3 
			"/>
	<polygon class="st6" points="204.1,67 204.1,66.4 204.3,66.4 204.3,66.3 203.8,66.3 203.8,66.4 204,66.4 204,67 	"/>
	<polygon class="st6" points="204.9,67 204.9,66.3 204.8,66.3 204.8,66.6 204.5,66.6 204.5,66.3 204.4,66.3 204.4,67 204.5,67 
		204.5,66.7 204.8,66.7 204.8,67 	"/>
	<polygon class="st6" points="205.5,66.4 205.5,66.3 205.1,66.3 205.1,67 205.5,67 205.5,66.9 205.2,66.9 205.2,66.7 205.4,66.7 
		205.4,66.6 205.2,66.6 205.2,66.4 	"/>
	<path class="st6" d="M205.8,66.3v0.4c0,0.2,0.1,0.2,0.3,0.2c0.1,0,0.3-0.1,0.3-0.2v-0.4h-0.1v0.4c0,0.1-0.1,0.1-0.1,0.1
		c-0.1,0-0.1,0-0.1-0.1v-0.4H205.8z"/>
	<polygon class="st6" points="206.5,66.3 206.5,67 206.6,67 206.6,66.7 206.8,67 207,67 206.7,66.6 207,66.3 206.8,66.3 206.6,66.5 
		206.6,66.3 	"/>
	<polygon class="st6" points="202.3,64.2 202.1,64.2 202.1,65.3 202.7,65.3 202.7,65.1 202.3,65.1 	"/>
</g>
</svg>
