<?xml version="1.0" encoding="utf-8"?>
<!-- Generator: Adobe Illustrator 25.3.0, SVG Export Plug-In . SVG Version: 6.00 Build 0)  -->
<svg version="1.1" id="Layer_1" xmlns="http://www.w3.org/2000/svg" xmlns:xlink="http://www.w3.org/1999/xlink" x="0px" y="0px"
	 viewBox="0 0 750.2 400.1" style="enable-background:new 0 0 750.2 400.1;" xml:space="preserve">
<style type="text/css">
	.st0{fill:#6B6B6B;stroke:#6B6B6B;stroke-width:1.25;}
</style>
<g>
	<path class="st0" d="M327.8,110.9l-0.2-0.6c0-0.1,0.1-0.2,0.1-0.3c0-0.1,0-0.4-0.3-0.6l-0.1-0.4l-2.1,0.2l0,0H325h-0.1
		c-3.1,0.2-11.7,0.8-22.9,1.4c-10.8,0.5-24.6,1.1-38.8,1.5c-0.1-1.4-0.3-2.3-0.6-2.8c-0.9-1.4-2.6-2.3-4.7-2.5
		c-2.2-0.2-6.6,0.3-11.6,5.7c-3.5,0.1-7,0.1-10.4,0.1v0.8l-0.1-0.8h-0.1c-3.3,0-6.7,0-10.2-0.1c-4.9-5.2-9.3-5.7-11.4-5.5
		c-2.1,0.2-3.8,1.1-4.7,2.5c-0.3,0.5-0.5,1.4-0.6,2.7c-14.3-0.4-28.2-1-39.1-1.6c-11.2-0.6-19.7-1.2-22.9-1.4h-0.1l-0.5,0.1h-0.3
		v-0.1h-0.3l-1.3-0.1l-0.1,0.4c-0.2,0.2-0.3,0.4-0.3,0.6c0,0.1,0,0.2,0.1,0.3l-0.2,0.5h0.1c-2.9,12-27.8,122.3-30.3,167.6v0.6
		l0.6,0.2c5.7,1.5,11.3,2.8,16.6,3.9v0.2l1.6,0.3v-0.1c52.8,11.2,85.6,7.2,85.9,7.2l0.4-0.1l17.1-40.5l17.1,40.5l0.4,0.1
		c0.1,0,5.8,0.7,16.2,0.7c14.2,0,37.1-1.3,66.6-7.3v0.1l1.6-0.3v-0.2c6.3-1.3,12.8-2.8,19.6-4.6l0.6-0.2v-0.6
		c-2.5-45.3-27.4-155.7-30.3-167.6L327.8,110.9z"/>
	<path class="st0" d="M606,110.9L606,110.9l-0.1-0.6c0-0.1,0.1-0.2,0.1-0.3c0-0.1,0-0.4-0.3-0.6l-0.1-0.4l-2.1,0.2l0,0h-0.2h-0.1
		c-3.1,0.2-11.7,0.8-22.9,1.4c-17.8,0.9-43.7,1.9-66.1,2v0.8l-0.1-0.8H514c-22.3,0-48.2-1.1-66-2c-11.2-0.6-19.7-1.2-22.9-1.4H425
		l-0.5,0.1h-0.3v-0.1h-0.3l-1.3-0.1l-0.1,0.4c-0.2,0.2-0.3,0.4-0.3,0.6c0,0.1,0,0.2,0.1,0.3l-0.2,0.5h0.1
		c-2.9,12-27.8,122.3-30.3,167.6v0.6l0.6,0.2c5.7,1.5,11.3,2.8,16.7,4v0.1l1.6,0.3v-0.1c52.8,11.2,85.5,7.3,85.9,7.2l0.4-0.1
		l17.1-40.5l17.1,40.5l0.4,0.1c0.1,0,5.8,0.7,16.2,0.7c14.2,0,37.2-1.3,66.6-7.3v0.1l1.6-0.3v-0.2c6.3-1.3,12.8-2.8,19.6-4.6
		l0.6-0.2v-0.6C633.8,233.2,608.9,122.8,606,110.9z"/>
</g>
</svg>
