<?xml version="1.0" encoding="utf-8"?>
<!-- Generator: Adobe Illustrator 25.3.0, SVG Export Plug-In . SVG Version: 6.00 Build 0)  -->
<svg version="1.1" id="Layer_1" xmlns="http://www.w3.org/2000/svg" xmlns:xlink="http://www.w3.org/1999/xlink" x="0px" y="0px"
	 viewBox="0 0 750.20001 400.10001" style="enable-background:new 0 0 750.20001 400.10001;" xml:space="preserve">
<style type="text/css">
	.st0{fill:none;}
	.st1{fill:#EDEFEF;}
	.st2{fill:#4D4E4E;}
	.st3{fill:#88898C;}
	.st4{fill:#1F1F1D;}
	.st5{fill:#6E6E6D;}
</style>
<g>
	<path class="st0" d="M185.30005,48.30002h-0.00006c0,0.04999,0.02502,0.12494,0.05005,0.19995
		C185.32501,48.42496,185.30005,48.35001,185.30005,48.30002z"/>
	<path class="st0" d="M185.20001,48.30002c-0.59998,0-1,0.09998-1.59998,0.09998c0,0.20001-0.10004,0.29999-0.29999,0.5h0.09998
		c0.20001-0.20001,0.29999-0.29999,0.29999-0.5C184.29999,48.39999,184.70001,48.30002,185.20001,48.30002z"/>
	<path class="st0" d="M197.89978,47.60037c-0.10022,0.20001-0.3999,0.49982-0.59979,0.79962
		C197.49994,48.20004,197.79974,47.90024,197.89978,47.60037z"/>
	<path class="st0" d="M194.40002,48.89999c0.39996,0.5,0.79999,0.79999,1.09998,1.20001
		C195.20001,49.60001,194.79999,49.30002,194.40002,48.89999z"/>
	<path class="st0" d="M217.39996,49.19998c-0.09998,0-0.19995-0.09998-0.19995-0.19995c0-0.10004,0-0.10004,0.09998-0.10004
		c-0.10004,0-0.10004,0-0.10004,0c-0.09998,0-0.20001,0-0.20001,0.10004c0,0.09998,0.10004,0.19995,0.20001,0.19995
		c0.5,0.10004,0.90002,0,1.29999,0.10004c0.23346,0.4668,0.51776,0.88269,0.77802,1.32263
		c0.05969-0.01166,0.11969-0.02338,0.17944-0.03503c-0.25507-0.42664-0.53015-0.83319-0.75739-1.2876
		C218.29999,49.19998,217.89996,49.30002,217.39996,49.19998z"/>
	<path class="st0" d="M221.70001,49.00003c0.29999-0.30005,0.70001-0.70001,1-1c-0.09998-0.10004-0.09998-0.10004-0.20001,0
		c-0.29871,0.29871-0.69641,0.69635-0.99585,0.99585c0.03302,0.00031,0.06256,0.00415,0.09589,0.00415H221.70001z"/>
	<path class="st0" d="M218.40002,49.00003c-0.10004-0.40002-0.40002-0.70001-0.5-1c-0.09802-0.09802-0.00378-0.1947,0.09412-0.19861
		c-0.03741-0.0011-0.07202-0.0014-0.09418-0.0014h-0.09998c-0.10004,0-0.20001,0.09998-0.10004,0.20001
		c0.09802,0.29395,0.29242,0.59027,0.4884,0.97827c0.03723,0.00702,0.0744,0.00934,0.11163,0.02173H218.40002z"/>
	<path class="st0" d="M197.00006,48.80002c-0.40002,0.59998-0.70001,1.09998-1.10004,1.69995
		c-0.09998,0.10004-0.09998,0.10004-0.20001,0.10004h0.09998c0.09998,0,0.09998,0,0.20001-0.09998
		c0.40002-0.60004,0.70001-1.10004,1.09998-1.70001c0.40002,0.09998,0.80005,0,1.30005,0
		C197.80005,48.69998,197.50006,48.80002,197.00006,48.80002z"/>
	<path class="st0" d="M195.5,50.49997c-0.39996-0.5-1-1.09998-1.39996-1.59998c-0.04999,0-0.07501,0-0.10004,0
		c0.39996,0.5,1,1.10004,1.39996,1.60004c0,0,0.10004,0.09998,0.20001,0.09998h0.00006
		C195.60004,50.49997,195.5,50.49997,195.5,50.49997z"/>
	<path class="st0" d="M192.89996,48.89999c0.40002,0.10004,0.80005,0,1.10004,0c-0.02496,0-0.04999,0-0.09998,0
		C193.62555,48.89999,193.26532,48.89999,192.89996,48.89999z"/>
	<path class="st0" d="M221.59296,49.5076c0.37024,0.013,0.745,0.09241,1.20703,0.09241h0.10004
		c-0.40002,0-0.79999-0.09998-1.29999-0.09998C221.59778,49.50278,221.59521,49.50491,221.59296,49.5076z"/>
	<path class="st0" d="M198.20001,48.39999c0,0,0,0-0.00006,0c-0.29999,0-0.59998,0-0.89996,0c0,0.10004,0,0.10004,0,0.10004
		C197.5,48.39999,197.90002,48.39999,198.20001,48.39999z"/>
	<path class="st0" d="M192.70001,48.80002c0-0.10004,0.09998-0.20001,0.20001-0.20001c0.29999,0.09998,0.70001,0,1,0
		c-0.29999-0.29999-0.60004-0.5-0.79999-0.79999c-0.10004,0-0.10004-0.10004,0-0.20001c0.09973,0,0.09991,0,0.09991,0
		c0-0.09998-0.09998-0.09998-0.19995,0c-0.10004,0.09998-0.10004,0.20001,0,0.20001c0.29999,0.29999,0.59998,0.5,0.79999,0.79999
		c-0.29999-0.09998-0.70001,0-1,0c-0.09998,0-0.20001,0.09998-0.20001,0.20001c0,0.09998,0.09998,0.20001,0.20001,0.09998h-0.09998
		V48.80002z"/>
	<path class="st0" d="M197.5,47.50003c0-0.10004,0.10004-0.10004,0.10004-0.10004s0,0-0.00006,0
		c-0.10004,0-0.20001,0-0.29999,0.10004c-0.20001,0.39996-0.5,0.69995-0.70001,1.09998c-0.70001,0-1.49994,0-2.19995,0.09998
		c0.79999-0.09998,1.59998-0.09998,2.39996-0.09998C197,48.19998,197.29999,47.89999,197.5,47.50003z"/>
	<polygon class="st0" points="193.20007,47.59995 193.19995,47.60001 193.20001,47.60001 	"/>
	<path class="st0" d="M193.29999,47.54544c0.03149,0.00989,0.0636,0.01825,0.09991,0.0545
		C193.39984,47.53647,193.35516,47.52811,193.29999,47.54544z"/>
	<path class="st0" d="M214.40002,46.80002c-3.74628-0.16467-7.5246-0.22028-11.28101-0.2005
		c-0.03497,0.00037-0.07001,0.00031-0.10492,0.00067c0.61237,0.00836,1.22424,0.01691,1.83722,0.02795
		C208.0354,46.62662,211.22961,46.67807,214.40002,46.80002z"/>
	<path class="st0" d="M180.29999,48.60001c0.11139,0.11139,0.23108,0.20599,0.35327,0.29572
		c0.14941,0.03583,0.30035,0.07166,0.45062,0.10754c-0.19086-0.13202-0.38477-0.25793-0.56897-0.40326
		C180.44775,48.60001,180.3587,48.60001,180.29999,48.60001z"/>
	<path class="st0" d="M183.19995,48.60001c-0.07605,0-0.10376,0-0.1521,0c-0.24652,0.32233-0.48187,0.59998-0.64783,0.59998
		c0.05554,0.05554,0.11877,0.10327,0.18042,0.15265c0.05042,0.01178,0.10059,0.02362,0.151,0.03546
		c0.1405-0.21375,0.34888-0.4953,0.56854-0.78809H183.19995z"/>
	<path class="st0" d="M185.08887,49.93094c0.05286,0.0119,0.10608,0.02417,0.15887,0.03607
		c0.11743,0.00647,0.2348,0.01343,0.35223,0.03302c0,0.0166,0.01202,0.0332,0.0166,0.0498
		c0.03723,0.00836,0.07397,0.01642,0.11121,0.02472c-0.01129-0.07001-0.02777-0.13257-0.02777-0.17456
		C185.4834,49.89999,185.28931,49.91769,185.08887,49.93094z"/>
	<path class="st0" d="M214.5,46.89999c0.26678,0,0.49219-0.03113,0.70032-0.07349c-0.26758-0.008-0.52472-0.02649-0.80029-0.02649
		c-2.48541-0.08197-4.9834-0.12146-7.47858-0.12964C209.4566,46.72739,211.9892,46.80289,214.5,46.89999z"/>
	<path class="st0" d="M235.65582,45.36899c-0.86749-0.10815-1.74377-0.21045-2.63324-0.30341
		c0.87427,0.10468,1.73651,0.21924,2.59064,0.34021C235.62738,45.39413,235.64166,45.38083,235.65582,45.36899z"/>
	<path class="st0" d="M188,49.30002c0-0.40002-0.09998-0.79999-0.20001-1.20001C187.79999,48.50003,187.90002,48.89999,188,49.30002
		z"/>
	<path class="st0" d="M186.5,48.10001c-0.20001-0.09998-0.5,0-0.70001,0C186,48.19998,186.29999,48.10001,186.5,48.10001z"/>
	<path class="st0" d="M196.00006,51.80002c-0.21832,0.00427-0.43463,0.01044-0.6524,0.01526
		c0.45001,0.02844,0.81512,0.02795,1.05237-0.01526c-0.09998,0-0.19995,0-0.29999,0H196.00006z"/>
	<path class="st0" d="M186.26636,50.19437c0.06744,0.01495,0.13586,0.03033,0.20312,0.04517
		c0.15082-0.00635,0.30865-0.03955,0.43054-0.03955C186.72003,50.11002,186.46259,50.17905,186.26636,50.19437z"/>
	<path class="st0" d="M188.59998,48.10001c0.06366,0.44556,0.12732,0.85687,0.19098,1.27295
		c-0.06366-0.47131-0.12726-0.92743-0.19092-1.37292c-0.30005,0.09998-0.60004,0.09998-0.80005,0.09998
		C188.10004,48.10001,188.29999,48.19998,188.59998,48.10001z"/>
	<path class="st0" d="M186.70001,49.00009c0,0.39996,0.09998,0.79999,0.20001,1.19989
		C186.90002,49.80002,186.79999,49.40005,186.70001,49.00009z"/>
	<path class="st0" d="M186.70001,49.00003c0.5,0.39996,0.89996,0.79999,1.5,1.19995c-0.5-0.39996-1-0.79999-1.5-1.20001V49.00003z"
		/>
	<path class="st0" d="M186.19647,50.1788c0.00006,0.00006,0.00024,0,0.00031,0.00006
		c-0.09906-0.69293-0.19879-1.38586-0.39679-2.07886C185.9978,48.89133,186.09753,49.58322,186.19647,50.1788z"/>
	<path class="st0" d="M210,48.80002c0,0.09998,0,0.29999,0,0.39996h0.10004c0-0.09998,0-0.29999,0-0.39996
		c-0.70001-0.10004-1.5-0.10004-2.30005-0.10004C208.60004,48.69998,209.29999,48.69998,210,48.80002z"/>
	<path class="st0" d="M207.75781,48.69998h-0.0578c-0.09998,0.10004-0.09998,0.10004-0.20001,0.20001
		c0.10004-0.09998,0.10004-0.09998,0.29999-0.20001H207.75781z"/>
	<path class="st0" d="M208.29999,49.60001c0.60004-0.09998,1.20001,0,1.80005,0c-0.70001,0-1.30005-0.09998-2-0.09998
		C208.20001,49.50003,208.20001,49.60001,208.29999,49.60001z"/>
	<path class="st0" d="M208.59998,47.80002c-0.04999,0.04999-0.12494,0.12494-0.19995,0.19995
		c0.07501-0.07501,0.15002-0.14996,0.20001-0.19995H208.59998z"/>
	<path class="st0" d="M208.30005,48.19998h-0.00006l-0.09998,0.10004c0.70001-0.10004,1.39996,0,2,0v-0.10004
		C209.60004,48.30002,208.90002,48.19998,208.30005,48.19998z"/>
	<path class="st0" d="M212.60004,49.19998c-0.40002-0.39996-0.70001-0.79999-1.20001-1.29999c-0.20001,0-0.5,0-0.70001-0.09998
		c0,0.04999,0,0.07501,0,0.09998c0.20001,0.10004,0.5,0.10004,0.70001,0.10004c0.5,0.39996,0.79999,0.79999,1.20001,1.29999
		c0.09998-0.5,0.09998-0.90002,0.19995-1.20001c0.20001-0.09998,0.5,0,0.79999,0.09998
		c-0.04999,0.34998-0.07501,0.70001-0.09998,1.04999c0.02496-0.34998,0.05005-0.70001,0.10004-1.04999
		c0-0.09998,0-0.09998,0-0.19995c-0.29999,0-0.60004-0.10004-0.79999-0.10004
		C212.70001,48.30002,212.70001,48.69998,212.60004,49.19998z"/>
	<path class="st0" d="M210.56067,49.49283c-0.00476-0.47198,0.06641-0.98193,0.13934-1.4928
		C210.62427,48.45468,210.54944,48.96683,210.56067,49.49283z"/>
	<path class="st0" d="M206.70001,49.30002c-0.10004,0.09998-0.20001,0.20001-0.30005,0.29999
		c-0.19995,0.09998-0.29999,0.20001-0.39996,0.29999c-0.26666,0-0.53326,0-0.79999,0c-0.03357,0.03357-0.06,0.06-0.09998,0.09998
		c0.29999,0,0.59998,0,0.89996,0c0.20001-0.09998,0.29999-0.19995,0.40002-0.29999c0.09998-0.09998,0.19995-0.20001,0.29999-0.29999
		c0.20001,0.20001,0.40002,0.40002,0.59998,0.70001c0.40002,0,0.60004,0,0.90002,0
		c-0.02515-0.03351-0.04681-0.06653-0.07068-0.09998c-0.26141,0-0.46283,0-0.82935,0
		C207.09998,49.69998,206.89996,49.50003,206.70001,49.30002z"/>
	<path class="st0" d="M211.30005,50.10001c0.04999-0.20001,0.07495-0.40002,0.09998-0.60004
		c-0.02502,0.20001-0.04999,0.40002-0.10004,0.60004H211.30005z"/>
	<path class="st0" d="M207.70001,49.19998c-0.09998-0.09998-0.09998-0.19995-0.20001-0.29999
		C207.59998,49.00003,207.59998,49.10001,207.70001,49.19998z"/>
	<path class="st0" d="M207.20001,47.89999c-0.29999,0.20001-0.40002,0.40002-0.59998,0.59998l-0.00055-0.00055l0.00049,0.00061
		C206.90002,48.30002,207,48.10001,207.20001,47.89999z"/>
	<path class="st0" d="M203.90002,48.19998c0.39996,0,0.79999,0.30005,0.79999,0.60004
		C204.70001,48.50003,204.40002,48.19998,203.90002,48.19998z"/>
	<path class="st0" d="M207.20001,49.00003c0.32837,0.24628,0.52734,0.55719,0.8075,0.82764
		c-0.20844-0.30475-0.39874-0.59607-0.70752-0.8277c0.10004-0.5,0.5-0.79999,0.80005-1.09998h-0.00006
		C207.70001,48.19998,207.40002,48.50003,207.20001,49.00003z"/>
	<path class="st0" d="M205.28778,47.89999c-0.02924,0-0.05853,0-0.08777,0c0.28571,0.28571,0.48566,0.66248,0.84918,1.04315
		c0.01843-0.01215,0.03046-0.03302,0.05078-0.04315C205.82922,48.53903,205.55853,48.18747,205.28778,47.89999z"/>
	<path class="st0" d="M198.30005,48.39999c0.09998,0,0.20001,0.09998,0.39996,0.20001c0,0.09998-0.09998,0.20001-0.19995,0.20001
		c0,0,0.00018,0,0.09998,0c0.09998,0,0.19995-0.10004,0.19989-0.20001c-0.19995-0.09998-0.29999-0.20001-0.39996-0.20001
		C198.35004,48.39999,198.32501,48.39999,198.30005,48.39999z"/>
	<path class="st1" d="M161.40002,366.60001c11.89996,3.10004,25.5,5.60004,40.59998,5.5
		c13.70001-0.09998,25.79999-2.39996,36.79999-5.39996c-11.39996,0.39996-24.29999,0.59998-38.59998,0.59998
		C185.40002,367.30002,172.5,367.00003,161.40002,366.60001z"/>
	<path class="st1" d="M209.90002,51.89999c-1.6496-0.0733-3.31207-0.11218-4.97382-0.13666
		c2.34717,0.21088,4.36517,0.5752,4.97528,1.06323c0.31696-0.2179,1.33557-0.50726,2.75812-0.83795
		c-0.88135-0.03265-1.76666-0.06311-2.65955-0.08862H209.90002z"/>
	<path class="st2" d="M215.20032,46.82651c-0.20813,0.04236-0.43353,0.07349-0.70032,0.07349
		c-2.5108-0.09711-5.0434-0.17261-7.57855-0.22961c-10.38629-0.03412-20.70496,0.53088-29.79907,1.36371
		c1.12091,0.27783,2.30981,0.56873,3.53088,0.86163c-0.12219-0.08972-0.24188-0.18433-0.35327-0.29572
		c0.05872,0,0.14777,0,0.23492,0c-0.08008-0.06317-0.16052-0.12561-0.23492-0.20001c0.10004,0,0.20001,0,0.30005,0
		c0.09998,0,0.29999,0,0.39996,0s0.09998,0,0.20001,0h0.09998c0.10004,0.10004,0.30005,0.29999,0.5,0.5
		c0.10004,0.10004,0.10004,0.10004,0.10004,0.10004c0.09998-0.10004,0.29999-0.40002,0.39996-0.60004c0,0,0.10004,0,0.20001,0
		s0.29999,0,0.40002,0c0.09998,0,0.09998,0,0.19995,0h0.10004c-0.05109,0.06812-0.10162,0.13391-0.15216,0.20001
		c0.04834,0,0.07605,0,0.1521,0h0.10004c-0.21967,0.29279-0.42804,0.57434-0.56854,0.78809
		c0.12897,0.03021,0.25751,0.06055,0.3866,0.09064c-0.03931-0.02057-0.07867-0.03937-0.11804-0.07874
		c0-0.09998,0.10004-0.09998,0-0.20001c0.90002,0,1.70001,0,2.5-0.09998c0,0.09998,0.10004,0.29999,0.10004,0.40002
		c-0.69977,0-1.33105,0.0683-2.01166,0.08746c0.50201,0.11615,1.00256,0.23083,1.50049,0.34344
		c0.20044-0.01324,0.39453-0.03094,0.61115-0.03094c0,0.04199,0.01648,0.10455,0.02777,0.17456
		c0.1568,0.0351,0.31287,0.06976,0.46869,0.10425c-0.09894-0.59558-0.19867-1.28748-0.39648-2.0788c0.20001,0,0.5-0.09998,0.70001,0
		c0.5,0.40002,1,0.70001,1.5,1.20001c-0.09998-0.40002-0.20001-0.79999-0.20001-1.20001c0.20001,0,0.5,0,0.80005-0.09998
		c0.06366,0.4455,0.12726,0.90161,0.19092,1.37292c0.03638,0.23761,0.07269,0.4726,0.10907,0.72705v0.02496c0,0,0,0.02325,0,0.03284
		c0,0.01233,0,0.0141,0,0.04218c-0.20001-0.09998-0.5,0-0.70001,0c-0.60004-0.39996-1-0.79999-1.5-1.19995c0,0.00006,0,0,0,0.00006
		c0.09998,0.39996,0.20001,0.79993,0.20001,1.19989c-0.12189,0-0.27972,0.0332-0.43054,0.03955
		c1.62909,0.35889,3.18842,0.68384,4.5816,0.94623c0.51343-0.01099,1.01428-0.02789,1.53296-0.03632
		c0.72363-0.01184,1.45215-0.02124,2.18433-0.02856c1.46448-0.01465,2.94415-0.02087,4.43164-0.02087c0.89996,0,1.79999,0,2.70001,0
		c1,0,1.89996,0,2.89996,0c3.40002,0.04999,6.80005,0.10004,10.10004,0.1875c0.29846,0.00793,0.58282,0.02112,0.87958,0.02966
		c1.10406-0.22504,2.29144-0.45862,3.49835-0.69452c-0.26025-0.43994-0.54456-0.85583-0.77802-1.32263
		c-0.39996-0.10004-0.79999,0-1.29999-0.10004c-0.09998,0-0.20001-0.09998-0.20001-0.19995
		c0-0.10004,0.10004-0.10004,0.20001-0.10004c0,0,0,0,0.10004,0s0.10004,0,0.10004,0
		c0.26276,0.08765,0.52557,0.02875,0.78833,0.07831c-0.19598-0.388-0.39038-0.68433-0.4884-0.97827
		c-0.09998-0.10004,0-0.20001,0.10004-0.20001h0.09998c0.02216,0,0.05676,0.00031,0.09418,0.0014
		c0.00201-0.00006,0.00385-0.0014,0.00586-0.0014c0.10004,0,0.40002,0,0.60004,0.09998c0.29999,0.20001,0.39996,0.60004,0.69995,1
		c0.76672,0,1.44507,0.08826,2.20416,0.09589c0.29944-0.2995,0.69714-0.69714,0.99585-0.99585
		c0.10004-0.10004,0.10004-0.10004,0.20001,0c0.04999,0,0.07501,0,0.10004,0c0.09998-0.10004,0.09998-0.10004,0.19995,0
		c0.10004,0,0.10004,0.09998,0,0.19995c-0.39996,0.20001-0.69995,0.60004-1,0.80005c0.02496,0,0.04999,0,0.09998,0
		c0.03156,0,0.06366,0,0.10004,0c0.29999,0,0.59998,0,0.90002,0.09998c0.09998,0,0.09998,0.09998,0.09998,0.20001
		c0,0.09998-0.09998,0.20001-0.20001,0.29999h-0.09998h-0.10004c-0.46204,0-0.83679-0.07941-1.20703-0.09241
		c-0.25897,0.30927-0.54407,0.56616-0.82831,0.82489c4.54303-0.88654,8.99878-1.7674,10.03088-2.30591
		c0.41449-0.21625,0.79883-0.40027,1.17029-0.57452c-4.5036-0.19714-9.21844-0.17865-13.86584-0.45203
		C217.15442,46.92117,216.19482,46.85635,215.20032,46.82651z M183.92346,48.89688
		c-0.17346,0.00311-0.34845,0.00311-0.52344,0.00311h-0.09998c0.19995-0.20001,0.29999-0.29999,0.29999-0.5
		c0.59998,0,1-0.09998,1.59998-0.09998h0.09998h0.00006c0,0.04999,0.02496,0.12494,0.04999,0.19995
		c0.02496,0.07501,0.04999,0.15002,0.04999,0.20001C184.95007,48.85001,184.44379,48.88748,183.92346,48.89688z M198.60004,48.80002
		c-0.09979,0-0.09998,0-0.09998,0H198.5c0,0,0,0-0.09998,0c-0.5,0-0.90002,0.09998-1.30005,0
		c-0.39996,0.59998-0.69995,1.09998-1.09998,1.70001c-0.10004,0.09998-0.10004,0.09998-0.20001,0.09998h-0.09998h-0.09998h-0.00006
		c-0.09998,0-0.20001-0.09998-0.20001-0.09998c-0.39996-0.5-1-1.10004-1.39996-1.60004c-0.29999,0-0.70001,0.10004-1.10004,0
		h-0.09991h-0.00006c-0.10004,0.10004-0.20001,0-0.20001-0.09998c0-0.10004,0.10004-0.20001,0.20001-0.20001
		c0.29999,0,0.70001-0.09998,1,0c-0.20001-0.29999-0.5-0.5-0.79999-0.79999c-0.10004,0-0.10004-0.10004,0-0.20001
		c0.09998-0.09998,0.19995-0.09998,0.19995,0c0.00006-0.00006,0.00006,0,0.00012-0.00006
		c0.00006-0.06348,0.04474-0.07184,0.09991-0.0545c0.05518-0.01733,0.09985-0.00897,0.09991,0.0545
		c0.00006,0.00006,0.00006,0,0.00012,0.00006c0.29999,0.5,0.70001,0.79999,1,1.09998
		c0.70001-0.09998,1.49994-0.09998,2.19995-0.09998c0.20001-0.40002,0.5-0.70001,0.70001-1.09998
		c0.09998-0.10004,0.19995-0.10004,0.29999-0.10004c0.00006,0,0.00006,0,0.00006,0c0.09991,0,0.09998,0,0.19995,0
		c0.10004,0,0.10004,0.10004,0.10004,0.20001c-0.00006,0.00012-0.00018,0.00024-0.00024,0.00037
		c-0.10004,0.29987-0.39984,0.59967-0.59979,0.79962c0.29999,0,0.59998,0,0.89996,0c0.00006,0,0.00006,0,0.00006,0
		c0.05005,0,0.07501,0,0.10004,0c0.02496,0,0.04999,0,0.09991,0c0.09998,0,0.20001,0.10004,0.39996,0.20001
		C198.79999,48.69998,198.70001,48.80002,198.60004,48.80002z M203.79999,49.89999c-0.79999,0-1.5-0.5-1.5-1.09998
		c0-0.70001,0.70001-1.10004,1.60004-1.10004c0.89996,0.10004,1.59998,0.5,1.5,1.20001
		C205.20001,49.50003,204.70001,49.89999,203.79999,49.89999z M208.20001,50.10001c-0.29999,0-0.5,0-0.90002,0
		c-0.19995-0.29999-0.39996-0.5-0.59998-0.70001c-0.10004,0.09998-0.20001,0.20001-0.29999,0.29999
		c-0.10004,0.10004-0.20001,0.20001-0.40002,0.29999c-0.29999,0-0.59998,0-0.89996,0
		c0.03998-0.03998,0.06641-0.06641,0.09998-0.09998c-0.03333,0-0.06671,0-0.10004,0c0.20001-0.20001,0.30005-0.29999,0.5-0.5
		c0.17969-0.17969,0.28595-0.34967,0.44922-0.45685c-0.36353-0.38068-0.56348-0.75745-0.84918-1.04315
		c0.02924,0,0.05853,0,0.08777,0c-0.02924-0.03107-0.05853-0.07074-0.08777-0.09998c0.29999,0,0.59998,0,0.89996,0
		c0.10004,0.20001,0.29999,0.39996,0.40002,0.5c0,0.09949,0.09851,0.19843,0.09949,0.1994l0.00055,0.00055
		c0.19995-0.19995,0.29999-0.39996,0.59998-0.59998c0.29999,0,0.59998,0,0.89996,0h0.00006
		c-0.30005,0.29999-0.70001,0.59998-0.80005,1.09998c0.30878,0.23163,0.49908,0.52295,0.70752,0.8277
		c0.0611,0.05896,0.12085,0.11865,0.1925,0.17236c-0.02515,0-0.04681,0-0.07068,0
		C208.1532,50.03348,208.17487,50.0665,208.20001,50.10001z M210.10004,49.89999v0.10004c-0.5,0.09998-1,0-1.5,0
		c-0.10004-0.20001-0.30005-0.30005-0.5-0.40002c0.09998,0,0.09998,0,0.19995,0c-0.09998,0-0.09998-0.09998-0.19995-0.09998
		c0.69995,0,1.29999,0.09998,2,0.09998C210.10004,49.69998,210.10004,49.80002,210.10004,49.89999z M210.10004,49.19998H210
		c-0.79999,0.10004-1.5,0-2.29999,0c-0.10004-0.09998-0.10004-0.19995-0.20001-0.29999
		c0.10004-0.09998,0.10004-0.09998,0.20001-0.20001h0.0578h0.04218c0.80005,0,1.60004,0,2.30005,0.10004
		C210.10004,48.89999,210.10004,49.10001,210.10004,49.19998z M210.30005,48.19998h-0.00006h-0.09998v0.10004
		c-0.60004,0-1.29999-0.10004-2,0l0.09998-0.10004h-0.09998c0.04999-0.04999,0.125-0.125,0.20001-0.20001
		s0.14996-0.14996,0.19995-0.19995h0.00006c0.375,0,0.80621,0.05615,1.25153,0.04218
		c0.14844-0.0047,0.29846-0.01721,0.44843-0.04218h0.00006C210.30005,47.89999,210.30005,48.10001,210.30005,48.19998z
		 M213.60004,48.19998c-0.04999,0.34998-0.07507,0.70001-0.10004,1.04999c-0.02502,0.35004-0.04999,0.70001-0.09998,1.05005
		c-0.20001-0.10004-0.5-0.10004-0.70001-0.10004c-0.5-0.39996-0.79999-0.79999-1.20001-1.29999
		c-0.04999,0.20001-0.07501,0.39996-0.09998,0.59998c-0.02502,0.20001-0.04999,0.40002-0.09998,0.60004h-0.00006
		c-0.19995-0.09998-0.5-0.09998-0.69995-0.09998c-0.02704-0.16211-0.0376-0.33246-0.03937-0.5072
		c-0.01123-0.526,0.0636-1.03815,0.13934-1.4928c0-0.05005,0-0.07501,0-0.10004c0-0.02496,0-0.04999,0-0.09998
		c0.20001,0.09998,0.5,0.09998,0.70001,0.09998c0.5,0.5,0.79999,0.90002,1.20001,1.29999
		c0.09998-0.5,0.09998-0.89996,0.20001-1.29999c0.19995,0,0.5,0.10004,0.79999,0.10004
		C213.60004,48.10001,213.60004,48.10001,213.60004,48.19998z"/>
	<path class="st2" d="M203.0141,46.60019c-0.76984,0.00824-1.5437,0.00122-2.31097,0.01544
		c-8.3653,0.15527-16.54236,0.6604-23.90131,1.33881c0.00482,0.00116,0.0097,0.00238,0.01453,0.0036
		c8.57031-0.78418,18.24597-1.3252,28.03497-1.3299C204.23834,46.6171,203.62646,46.60855,203.0141,46.60019z"/>
	<path class="st2" d="M203.90002,48.19998c-0.5,0-0.80005,0.30005-0.80005,0.60004s0.30005,0.59998,0.80005,0.59998
		c0.39996,0,0.79999-0.20001,0.79999-0.59998C204.70001,48.50003,204.29999,48.19998,203.90002,48.19998z"/>
	<path class="st2" d="M194.40002,48.89999c0.39996,0.40002,0.79999,0.70001,1.09998,1.20001
		c0.29999-0.5,0.5-0.90002,0.70001-1.20001C195.70001,48.89999,195,48.80002,194.40002,48.89999z"/>
	<path class="st2" d="M219.29706,49.65921c0.11865,0.24231,0.22754,0.5069,0.40295,0.74078
		c0.09998-0.09998,0.29999-0.20001,0.39996-0.29999c0.15002-0.15002,0.30005-0.29999,0.43756-0.4375
		c0.13745-0.13745,0.26251-0.26251,0.36249-0.36249c-0.5,0-1.20001,0-1.90002-0.10004
		C219.12457,49.32455,219.21283,49.48715,219.29706,49.65921z"/>
	<path class="st3" d="M176.75214,47.94211c11.37616-1.07269,24.7088-1.73975,37.64789-1.24213
		c-3.74731-0.12354-7.52344-0.13928-11.28101-0.10046c3.75641-0.01978,7.53473,0.03583,11.28101,0.2005
		c0.27557,0,0.53271,0.01849,0.80029,0.02649c0.99451,0.02985,1.9541,0.09467,2.89966,0.17352
		c4.6474,0.27338,9.36224,0.25488,13.86584,0.45203c1.38464-0.64948,2.51343-1.11224,3.6474-2.04626
		c-0.85413-0.12097-1.71637-0.23553-2.59064-0.34021c-19.69305-2.05829-44.39148-0.49689-61.8609,1.45709
		C172.42456,46.85031,174.41815,47.36191,176.75214,47.94211z"/>
	<path class="st3" d="M214.40002,46.80002c-3.17041-0.12195-6.36462-0.1734-9.54871-0.17188
		c-9.789,0.0047-19.46466,0.54572-28.03497,1.3299c0.10211,0.02539,0.2027,0.05048,0.30603,0.07605
		c9.09412-0.83282,19.41278-1.39783,29.79907-1.36371C209.41663,46.67856,211.91461,46.71805,214.40002,46.80002z"/>
	<path class="st3" d="M204.79999,51.10001c-1,0-1.89996,0-2.89996,0c-0.90002,0-1.80005,0-2.70001,0
		c-1.48749,0-2.96716,0.00623-4.43164,0.02087c-0.73218,0.00732-1.46069,0.01672-2.18433,0.02856
		c-0.51868,0.00842-1.01953,0.02533-1.53296,0.03632c1.78406,0.33606,3.28247,0.56531,4.29657,0.62952
		c0.21777-0.00482,0.43408-0.01099,0.6524-0.01526h0.09998c0.10004,0,0.20001,0,0.29999,0
		c1.7879-0.32562,5.44189-0.31384,8.52618-0.03668c1.66174,0.02448,3.32422,0.06335,4.97382,0.13666h0.10004
		c0.89288,0.02551,1.7782,0.05597,2.65955,0.08862c0.90167-0.20966,1.96246-0.43549,3.12-0.67145
		c-0.29675-0.00854-0.58112-0.02173-0.87958-0.02966C211.60004,51.20004,208.20001,51.14999,204.79999,51.10001z"/>
	<path class="st4" d="M183.04785,48.60001c0.05054-0.0661,0.10107-0.1319,0.15216-0.20001h-0.10004c-0.09998,0-0.09998,0-0.19995,0
		c-0.10004,0-0.30005,0-0.40002,0s-0.20001,0-0.20001,0c-0.09998,0.20001-0.29999,0.5-0.39996,0.60004c0,0,0,0-0.10004-0.10004
		c-0.19995-0.20001-0.39996-0.39996-0.5-0.5h-0.09998c-0.10004,0-0.10004,0-0.20001,0s-0.29999,0-0.39996,0
		c-0.10004,0-0.20001,0-0.30005,0c0.0744,0.0744,0.15485,0.13684,0.23492,0.20001c0.1842,0.14532,0.37811,0.27124,0.56897,0.40326
		c0.48956,0.11688,0.98206,0.23334,1.47656,0.34937c-0.06165-0.04938-0.12488-0.09711-0.18042-0.15265
		C182.56598,49.19998,182.80133,48.92233,183.04785,48.60001z"/>
	<path class="st4" d="M186.90002,50.19998c-0.10004-0.3999-0.20001-0.79993-0.20001-1.19989c0-0.00006,0,0,0-0.00006v-0.00006
		c0.5,0.40002,1,0.80005,1.5,1.20001c0.20001,0,0.5-0.09998,0.70001,0c0-0.02808,0-0.02985,0-0.04218c0-0.00958,0-0.03284,0-0.03284
		v-0.02496c-0.03638-0.25446-0.07269-0.48944-0.10907-0.72705c-0.06366-0.41608-0.12732-0.82739-0.19098-1.27295
		c-0.29999,0.09998-0.49994,0-0.79999,0C187.90002,48.50003,188,48.89999,188,49.30002c-0.5-0.5-1-0.79999-1.5-1.20001
		c-0.20001,0-0.5,0.09998-0.70001,0c0.198,0.69299,0.29773,1.38593,0.39679,2.07886c0.02313,0.00507,0.04645,0.01044,0.06958,0.0155
		C186.46259,50.17905,186.72003,50.11002,186.90002,50.19998z"/>
	<path class="st4" d="M185.29999,48.30002h-0.09998c-0.5,0-0.90002,0.09998-1.5,0.09998c0,0.20001-0.09998,0.29999-0.29999,0.5
		c0.17499,0,0.34998,0,0.52344-0.00311c0.52032-0.0094,1.02661-0.04688,1.47656-0.1969c0-0.04999-0.02502-0.125-0.04999-0.20001
		C185.32501,48.42496,185.29999,48.35001,185.29999,48.30002z"/>
	<path class="st4" d="M185.24774,49.96701c0.12341,0.02783,0.24597,0.0553,0.36884,0.08282
		c-0.00458-0.0166-0.0166-0.0332-0.0166-0.0498C185.48254,49.98044,185.36517,49.97348,185.24774,49.96701z"/>
	<path class="st4" d="M185.5,49.10001c-0.79999,0.09998-1.59998,0.09998-2.5,0.09998c0.10004,0.10004,0,0.10004,0,0.20001
		c0.03937,0.03937,0.07874,0.05817,0.11804,0.07874c0.15686,0.03656,0.31348,0.07245,0.47034,0.10876
		c0.6806-0.01917,1.31189-0.08746,2.01166-0.08746C185.60004,49.39999,185.5,49.19998,185.5,49.10001z"/>
	<path class="st4" d="M205.40002,48.89999c0.09998-0.70001-0.60004-1.09998-1.5-1.20001c-0.90002,0-1.60004,0.40002-1.60004,1.10004
		c0,0.59998,0.70001,1.09998,1.5,1.09998C204.70001,49.89999,205.20001,49.50003,205.40002,48.89999z M203.90002,49.39999
		c-0.5,0-0.80005-0.29999-0.80005-0.59998s0.30005-0.60004,0.80005-0.60004s0.79999,0.30005,0.79999,0.60004
		C204.70001,49.19998,204.29999,49.39999,203.90002,49.39999z"/>
	<path class="st4" d="M208.00751,49.82767c-0.28015-0.27045-0.47913-0.58136-0.8075-0.82764
		c0.20001-0.5,0.5-0.80005,0.89996-1.10004c-0.29999,0-0.59998,0-0.89996,0c-0.20001,0.20001-0.29999,0.40002-0.60004,0.60004
		l-0.00049-0.00061c-0.00098-0.00098-0.09949-0.09991-0.09949-0.1994c-0.10004-0.10004-0.29999-0.29999-0.40002-0.5
		c-0.29999,0-0.59998,0-0.89996,0c0.02924,0.02924,0.05853,0.06891,0.08777,0.09998c0.27075,0.28748,0.54144,0.63904,0.81219,1
		c-0.02032,0.01013-0.03235,0.03101-0.05078,0.04315c-0.16327,0.10718-0.26953,0.27716-0.44922,0.45685
		c-0.19995,0.20001-0.29999,0.29999-0.5,0.5c0.03333,0,0.06671,0,0.10004,0c0.26672,0,0.53333,0,0.79999,0
		c0.09998-0.09998,0.20001-0.20001,0.39996-0.29999c0.10004-0.09998,0.20001-0.20001,0.30005-0.29999
		c0.19995,0.20001,0.39996,0.39996,0.59998,0.70001c0.36652,0,0.56793,0,0.82935,0c0.02386,0,0.04553,0,0.07068,0
		C208.12836,49.94632,208.0686,49.88663,208.00751,49.82767z"/>
	<path class="st4" d="M212.79999,48.10001c-0.09998,0.29999-0.09998,0.70001-0.19995,1.20001
		c-0.40002-0.5-0.70001-0.90002-1.20001-1.29999c-0.20001,0-0.5,0-0.70001-0.10004c0,0.02502,0,0.04999,0,0.10004
		c-0.07294,0.51086-0.1441,1.02081-0.13934,1.4928c0.00177,0.17474,0.01233,0.34509,0.03937,0.5072c0.19995,0,0.5,0,0.69995,0.09998
		c0.05005-0.20001,0.07501-0.40002,0.10004-0.60004c0.02496-0.20001,0.04999-0.39996,0.09998-0.59998
		c0.40002,0.5,0.70001,0.90002,1.20001,1.29999c0.20001,0,0.5,0,0.70001,0.10004c0.04999-0.35004,0.07495-0.70001,0.09998-1.05005
		c0.02496-0.34998,0.04999-0.70001,0.09998-1.04999C213.29999,48.10001,213,48.00003,212.79999,48.10001z"/>
	<path class="st4" d="M209.85156,47.84219c-0.44531,0.01398-0.87653-0.04218-1.25153-0.04218
		c-0.04999,0.04999-0.125,0.12494-0.20001,0.19995s-0.15002,0.15002-0.20001,0.20001h0.09998h0.00006
		c0.59998,0,1.29999,0.10004,1.89996,0h0.09998h0.00006c0-0.09998,0-0.29999,0-0.39996h-0.00006
		C210.15002,47.82498,210,47.83749,209.85156,47.84219z"/>
	<path class="st4" d="M208.29999,49.60001c-0.09998,0-0.09998,0-0.19995,0c0.19995,0.09998,0.39996,0.20001,0.5,0.40002
		c0.5,0,1,0.09998,1.5,0v-0.10004c0-0.09998,0-0.20001,0-0.29999C209.5,49.60001,208.90002,49.50003,208.29999,49.60001z"/>
	<path class="st4" d="M207.79999,48.69998c-0.19995,0.10004-0.19995,0.10004-0.29999,0.20001
		c0.10004,0.10004,0.10004,0.20001,0.20001,0.29999c0.79999,0,1.5,0.10004,2.29999,0c0-0.09998,0-0.29999,0-0.39996
		C209.29999,48.69998,208.60004,48.69998,207.79999,48.69998z"/>
	<path class="st4" d="M198.70001,48.60001c-0.19995-0.10004-0.29999-0.20001-0.39996-0.20001c-0.02502,0-0.04999,0-0.10004,0
		c-0.29999,0-0.70001,0-0.90002,0.10004c0,0,0,0,0-0.10004c0.19989-0.2998,0.49957-0.59961,0.59979-0.79962
		c0.00006-0.00012,0.00018-0.00024,0.00024-0.00037c0-0.09998,0-0.20001-0.10004-0.20001c-0.09998,0-0.10004,0-0.19995,0
		c0,0-0.10004,0-0.10004,0.10004c-0.20001,0.39996-0.5,0.69995-0.70001,1.09998c-0.79999,0-1.59998,0-2.39996,0.09998
		c-0.29999-0.29999-0.70001-0.59998-1-1.09998c-0.00006-0.00006-0.00006,0-0.00012-0.00006
		c-0.03632-0.03625-0.06842-0.04462-0.09991-0.0545c-0.05518-0.01733-0.09985-0.00897-0.09991,0.0545
		c0,0.00006-0.00006,0-0.00006,0.00006h-0.00006c0,0-0.00018,0-0.09991,0c-0.10004,0.09998-0.10004,0.20001,0,0.20001
		c0.19995,0.29999,0.5,0.5,0.79999,0.79999c-0.29999,0-0.70001,0.09998-1,0c-0.10004,0-0.20001,0.09998-0.20001,0.20001v0.09998
		h0.09998h0.00006h0.09991c0.36536,0,0.72559,0,1.00006,0c0.04999,0,0.07501,0,0.09998,0c0.02502,0,0.05005,0,0.10004,0
		c0.39996,0.5,1,1.09998,1.39996,1.59998c0,0,0.10004,0,0.10004,0.10004h0.09998c0.10004,0,0.10004,0,0.20001-0.10004
		c0.40002-0.59998,0.70001-1.09998,1.10004-1.69995c0.5,0,0.79999-0.10004,1.39996,0c0.09998,0,0.09998,0,0.09998,0h0.00006
		C198.60004,48.80002,198.70001,48.69998,198.70001,48.60001z M195.5,50.10001c-0.29999-0.40002-0.70001-0.70001-1.09998-1.20001
		c0.59998-0.09998,1.29999,0,1.79999,0C196,49.19998,195.79999,49.60001,195.5,50.10001z"/>
	<path class="st4" d="M221.59296,49.5076c0.00226-0.00269,0.00482-0.00482,0.00708-0.00757c0.5,0,0.89996,0.09998,1.29999,0.09998
		H223c0.10004-0.09998,0.20001-0.20001,0.20001-0.29999c0-0.10004,0-0.20001-0.09998-0.20001
		c-0.30005-0.09998-0.60004-0.09998-0.90002-0.09998c-0.03638,0-0.06848,0-0.10004,0c-0.04999,0-0.07501,0-0.09998,0
		c0.30005-0.20001,0.60004-0.60004,1-0.80005c0.10004-0.09998,0.10004-0.19995,0-0.19995
		c-0.09998-0.10004-0.09998-0.10004-0.19995,0c-0.02502,0-0.05005,0-0.10004,0c-0.29999,0.29999-0.70001,0.69995-1,1h-0.09998
		c-0.03333,0-0.06287-0.00385-0.09589-0.00415c-0.75909-0.00763-1.43744-0.09589-2.20416-0.09589
		c-0.29999-0.39996-0.39996-0.79999-0.69995-1c-0.20001-0.09998-0.5-0.09998-0.60004-0.09998
		c-0.00201,0-0.00385,0.00134-0.00586,0.0014c-0.0979,0.00391-0.19214,0.10059-0.09412,0.19861
		c0.09998,0.29999,0.39996,0.59998,0.5,1h-0.10004c-0.03723-0.01239-0.0744-0.01471-0.11163-0.02173
		c-0.26276-0.04956-0.52557,0.00934-0.78833-0.07831c0,0,0,0-0.10004,0c-0.09998,0-0.09998,0-0.09998,0.10004
		c0,0.09998,0.09998,0.19995,0.19995,0.19995c0.5,0.10004,0.90002,0,1.30005,0.10004
		c0.22723,0.45441,0.50232,0.86096,0.75739,1.2876c0.43481-0.0849,0.87109-0.17004,1.30725-0.25513
		C221.04889,50.07376,221.33398,49.81686,221.59296,49.5076z M220.53754,49.66251c-0.13751,0.13751-0.28754,0.28748-0.43756,0.4375
		c-0.09998,0.09998-0.29999,0.20001-0.39996,0.29999c-0.17542-0.23389-0.2843-0.49847-0.40295-0.74078
		c-0.08423-0.17206-0.17249-0.33466-0.29706-0.45923c0.70001,0.10004,1.40002,0.10004,1.90002,0.10004
		C220.80005,49.39999,220.67499,49.52505,220.53754,49.66251z"/>
	<path class="st5" d="M327,75.60001c-8.5-4.5-18.29999-9-29.29999-13.40002c0-0.09998,0-0.09998,0-0.20001
		c-6.09998-2.39996-12.5-4.89996-19.39996-7.19995l-0.90002-0.30005l-17.9928-6.09692c0,0-6.0235-20.49445-10.54114-24.44739
		c-2.52222-2.20691-19.38818-4.51764-46.11755-4.51764s-42.16461,2.07056-46.30579,4.70587s-6.5882,15.97681-10.54114,24.44739
		c-5.4588,1.12939-38.00159,13.40875-38.00159,13.40875c-11.5,4.59998-21.5,9.09998-30,13.69995
		c-12,6.30005-20.70001,17.5-23.79999,30.80005c-10.70001,45.09998-11.10004,117.29999-9.5,170
		c1.19995,38.20001,3.5,72.5,5.19995,94.5l0.10004,1.79999v0.29999c0.29999,3.29999,0.5,5.59998,0.59998,6.79999l0.20001,1.79999
		H91.5l0.60004-10.79999l9.59998-158l0.40002,25l0.09998,116.59998v6.20001c0,0.5,0.40002,0.90002,0.90002,1l1,0.20001h0.09998
		h0.09998c0.20001,0.10004,0.40002,0.10004,0.60004,0.10004c0.09998,0,0.29999,0,0.39996,0.09998h0.10004
		c1,0.10004,2.59998,0.29999,4.29999,0.60004c1.29999,0.20001,3.40002,0.5,6.09998,0.79999H116h0.09998
		c0.30005,0.09998,1.30005,0.20001,1.70001,0.29999c0.29999,0.09998,0.5,0.09998,0.60004,0.09998
		c3.29999,0.70001,7.5,2.10004,14.5,4.40002c2,0.70001,4.29999,1.39996,6.89996,2.20001
		c2.90002,0.89996,5.90002,1.89996,8.60004,2.70001c14.39996,4.5,31.89996,9,52.09998,9c0.20001,0,0.29999,0,0.5,0
		s0.40002,0,0.60004,0s0.39996,0,0.69995,0c19.10004-0.20001,35.20001-4.5,49.90002-9.10004
		c1.20001-0.39996,2.29999-0.70001,3.5-1.09998c1.10004-0.40002,2.29999-0.70001,3.5-1.10004
		c5.29999-1.70001,15.29999-4.70001,21.10004-6.29999h0.09998h0.10004c8.89996-0.70001,15.20001-1.39996,19-1.89996l2.39996-0.40002
		c0.20001,0,0.20001-0.09998,0.20001-0.09998s0.10004-0.10004,0.10004-0.70001l0.70001-124.90002l0.09998-25.79999l9.70001,162
		h0.10004l0.5,8.79999H354l0.20001-1.79999c0.10004-1.20001,0.29999-3.5,0.60004-6.79999l0.20001-2.20001
		c1-12.70001,3.89996-50.60004,5.20001-94.29999c1.5-42.70001,2.20001-121.5-9.40002-170
		C347.70001,93.30002,339,82.00003,327,75.60001z M233.02258,45.06558c0.88947,0.09296,1.76575,0.19525,2.63324,0.30341
		c-0.01416,0.01184-0.02844,0.02515-0.0426,0.0368c-1.13397,0.93402-2.26276,1.39679-3.6474,2.04626
		c-0.37146,0.17426-0.7558,0.35828-1.17029,0.57452c-1.0321,0.53851-5.48785,1.41937-10.03088,2.30591
		c-0.43616,0.08508-0.87244,0.17023-1.30725,0.25513c-0.05975,0.01166-0.11975,0.02338-0.17944,0.03503
		c-1.20691,0.2359-2.39429,0.46948-3.49835,0.69452c-1.15753,0.23596-2.21832,0.46179-3.12,0.67145
		c-1.42255,0.33069-2.44116,0.62006-2.75812,0.83795c-0.61011-0.48804-2.62811-0.85236-4.97528-1.06323
		c-3.08429-0.27716-6.73828-0.28894-8.52618,0.03668c-0.23724,0.04321-0.60236,0.0437-1.05237,0.01526
		c-1.0141-0.06421-2.51251-0.29346-4.29657-0.62952c-1.39319-0.26239-2.95251-0.58734-4.5816-0.94623
		c-0.06726-0.01483-0.13568-0.03021-0.20312-0.04517c-0.02313-0.00507-0.04645-0.01044-0.06958-0.0155
		c-0.00006-0.00006-0.00024,0-0.00031-0.00006c-0.15582-0.03448-0.31189-0.06915-0.46869-0.10425
		c-0.03723-0.0083-0.07397-0.01636-0.11121-0.02472c-0.12286-0.02753-0.24542-0.05499-0.36884-0.08282
		c-0.0528-0.0119-0.10602-0.02417-0.15887-0.03607c-0.49792-0.11261-0.99847-0.22729-1.50049-0.34344
		c-0.15686-0.03632-0.31348-0.0722-0.47034-0.10876c-0.12909-0.03009-0.25763-0.06042-0.3866-0.09064
		c-0.05042-0.01184-0.10059-0.02368-0.151-0.03546c-0.49451-0.11603-0.987-0.23248-1.47656-0.34937
		c-0.15027-0.03589-0.30121-0.07172-0.45062-0.10754c-1.22107-0.29291-2.40997-0.5838-3.53088-0.86163
		c-0.10333-0.02557-0.20392-0.05066-0.30603-0.07605c-0.00482-0.00122-0.0097-0.00244-0.01453-0.0036
		c7.35895-0.67841,15.53601-1.18353,23.90131-1.33881c0.76727-0.01422,1.54114-0.0072,2.31097-0.01544
		c0.03491-0.00037,0.06995-0.00031,0.10492-0.00067c3.75757-0.03882,7.53369-0.02307,11.28101,0.10046
		c-12.93909-0.49762-26.27173,0.16943-37.64789,1.24213c-2.33398-0.5802-4.32758-1.0918-5.59045-1.41943
		C188.6311,44.5687,213.32953,43.00729,233.02258,45.06558z M202,372.10001c-15.09998,0.10004-28.70001-2.39996-40.59998-5.5
		c11.09998,0.40002,24,0.70001,38.79999,0.70001c14.29999,0,27.20001-0.20001,38.59998-0.59998
		C227.79999,369.70004,215.70001,372.00003,202,372.10001z"/>
	<path class="st5" d="M696.40002,106.50003C693.30005,93.19998,684.5,81.89999,672.5,75.60001c-7.5-4-16-8-25.59998-11.90002
		c0-0.09998,0-0.20001,0-0.29999c-6.59998-2.70001-13.59998-5.40002-21.20001-8.09998l-0.1828-0.06854
		c-0.20673-0.05994-0.41272-0.13385-0.61719-0.23151c-5.89471-2.81476-22.90521-5.65576-22.90521-5.65576
		s-4.01184-16.67084-9.28241-23.63556c-8.20673-10.8446-85.72815-6.59924-92.36444-1.69409
		c-4.32941,3.19995-8.65881,18.36499-11.1059,25.70612c-3.19995,0.18823-13.44202,3.67932-13.44202,3.67932l-0.90002,0.29999
		c-4,1.40002-8.39996,3-13.09998,4.70001l-3.10004,1.09998c-0.70001,0.30005-1.39996,0.5-2.20001,0.80005
		c-0.29999,0.09998-0.70001,0.29999-1,0.39996c-0.59998,0.20001-1.20001,0.40002-1.79999,0.70001
		c-0.59998,0.20001-1.09998,0.40002-1.70001,0.70001c-11.29999,4.59998-21,9-28.79999,13.20001
		c-11.89996,6.39996-20.59998,17.70001-23.89996,30.89996c-10.70001,45.10004-11.10004,117.30005-9.5,170.00006
		c1.20001,38.20001,3.5,72.5,5.20001,94.5l0.09998,1.79999v0.29999c0.29999,3.29999,0.5,5.59998,0.60004,6.79999l0.20001,1.79999
		H437l0.60004-10.29999l8.70001-144.20001v58l-0.79999,74.70001c0,1,0.29999,1.70001,0.79999,2.20001
		c0.5,0.39996,1.09998,0.59998,1.89996,0.59998c0.10004,0,0.20001,0,0.29999,0h0.10004h0.09998l1.10004,0.20001h0.20001
		c0.20001,0,0.39996,0.10004,0.5,0.10004c0.89996,0.09998,2.29999,0.20001,4.09998,0.39996h0.10004l1.79999,0.10004
		c5.70001,0.29999,10.09998,1.29999,15.39996,3.39996c2.5,1,5.40002,2.10004,8.79999,3.20001h0.10004
		c2.70001,0.90002,5.5,1.79999,8.5,2.70001c14.29999,4.40002,36.69995,9.10004,57.09998,9.10004h1.70001
		c19.20001-0.20001,35.40002-4.5,50-9.10004c1.40002-0.39996,2.70001-0.79999,4.09998-1.29999l0.20001-0.09998
		c0.90002-0.29999,1.90002-0.60004,2.79999-0.90002l0.20001-0.09998c1.20001-0.40002,2.29999-0.79999,3.5-1.10004
		c9.70001-3.20001,17.40002-5.70001,25.59998-6.09998c5.20001-0.29999,8.20001-0.60004,9.70001-0.90002l0.20001-0.20001
		l0.20001-0.09998c0.40002-0.10004,0.70001-0.5,0.70001-1v-5.70001h-0.09998l0.09998-1.10004c0.09998-1,0.59998-6-0.20001-24.39996
		v-9l-0.20001-26.40002L645,221.80002l0.20001-13.10004l0.59998-12.5l0.29999-4.89996l12.5,181.40002h0.20001l0.40002,8.89996
		h40.90002l0.20001-1.79999c0.09998-1.20001,0.29999-3.5,0.59998-6.79999l0.20001-2.20001h-0.20001
		c1-12.59998,3.90002-50.59998,5.20001-94.39996C707.29999,233.89999,708,155.10001,696.40002,106.50003z"/>
</g>
</svg>
