<?xml version="1.0" encoding="utf-8"?>
<!-- Generator: Adobe Illustrator 25.3.0, SVG Export Plug-In . SVG Version: 6.00 Build 0)  -->
<svg version="1.1" id="Layer_1" xmlns="http://www.w3.org/2000/svg" xmlns:xlink="http://www.w3.org/1999/xlink" x="0px" y="0px"
	 viewBox="0 0 750.20001 400.10001" style="enable-background:new 0 0 750.20001 400.10001;" xml:space="preserve">
<style type="text/css">
	.st0{fill:#EDEFEF;}
	.st1{fill:#4D4E4E;stroke:#88898C;stroke-width:0.976;}
	.st2{fill:#6D6D6C;}
	.st3{fill:#1E1F1D;}
</style>
<path class="st0" d="M173.28978,180.44983L152.11336,55.93244c0,0-10.84999-16.67661,12.78673-2.83244
	s36.12384,9.2952,36.12384,9.2952l47.77606-13.64462l7.5014,99.51109l-87.2469,44.04697L173.28978,180.44983z"/>
<path class="st1" d="M241.61905,57.3442c0.29999-2.59998,0.39996-6.25882,0.39996-7.05881
	c-42.88086,35.05591-73.90565,3.08827-80.30568,0.98823c0,0.80005,0.26466,3.10585,0.56471,5.50587
	C190.9368,84.87356,219.45439,77.67358,241.61905,57.3442z"/>
<path class="st0" d="M141.1868,332.10245c0,0-26.50001,22-27.30001,24.79999c-0.9,2.79999,35.80001,28.79999,91.7,26
	s87.29999-26,87.29999-26l-71.5-37.79999l-44.60001,6.79999L141.1868,332.10245z"/>
<g>
	<path class="st2" d="M240.07837,53.88583c-1.03644,11.79346-4.53137,23.35175-9.91284,32.44299
		c-6.79395,11.47754-15.96535,17.84717-25.82471,17.93604h-1.80762c-0.10094,0.00092-0.19977,0.00134-0.30037,0.00134
		c-11.26628,0-20.37503-5.6463-27.11369-16.79626c-5.01569-8.29822-8.54378-19.44067-10.33777-32.49744
		c12.56104,10.83875,24.60327,16.16003,36.67714,16.16003c1.09666,0,2.19481-0.04395,3.29247-0.13135
		c11.19775-0.8916,22.35352-6.24512,35.10791-16.84766C239.94934,54.0784,240.00885,53.97836,240.07837,53.88583
		 M240.07916,50.88562c-0.90051,0-1.77534,0.40619-2.35539,1.1412c-12.16457,10.06873-22.72263,15.14871-33.21092,15.98383
		c-1.01573,0.08087-2.04337,0.12189-3.05434,0.12189c-11.32745,0-22.68358-5.04764-34.71725-15.43137
		c-0.55734-0.4809-1.25612-0.72867-1.96048-0.7287c-0.48967-0.00003-0.98196,0.11966-1.43164,0.36398
		c-1.09651,0.59576-1.70972,1.80811-1.53986,3.0444c1.84599,13.43512,5.56065,25.06793,10.7424,33.6409
		c7.31653,12.10608,17.30272,18.24445,29.68115,18.24445l0.32712-0.00146l1.78087,0.00012
		c10.97792-0.09882,21.05653-6.9913,28.40631-19.40787c5.57164-9.41251,9.23659-21.38376,10.31972-33.70853
		c0.11725-1.33426-0.66418-2.58463-1.91487-3.06396C240.80174,50.95029,240.43837,50.88562,240.07916,50.88562L240.07916,50.88562z"
		/>
	<g>
		<path class="st2" d="M189.8208,357.46503c-38.34717,0-84.74268-2.64062-85.20654-2.66699
			c-0.18994-0.01172-0.37012-0.05762-0.53418-0.13184c-0.67432-0.14648-1.17969-0.74707-1.18018-1.46484l-0.09326-189.74121
			c0-0.49854,0.24707-0.96436,0.65967-1.24316c0.92285-0.62451,9.21875-6.53369,16.13135-21.49658
			c9.2124-19.94238,11.39014-46.23389,6.85449-82.74121l-0.13525-1.08838c-0.09033-0.72363,0.35303-1.40723,1.05078-1.62012
			l26.39062-8.05078c0.14502-0.04443,0.29248-0.06543,0.4375-0.06543c0.56934,0,1.10645,0.32568,1.35889,0.86426l0.41943,0.91016
			c0.0835,0.18164,0.12939,0.37793,0.13574,0.57764c0.21826,7.05908,2.51514,22.83936,9.74023,37.20898
			c8.44922,16.80469,20.84619,25.6875,35.8501,25.6875h1.80713c15.08838-0.07422,27.48486-9.05859,35.84277-25.98145
			c6.03857-12.22803,9.07959-27.16748,9.41455-36.54932c0.00781-0.22021,0.06396-0.43604,0.16504-0.63184
			c0.22852-0.44531,0.23633-0.6123,0.23633-0.61914c0.00586-0.18896,0.04736-0.41895,0.12207-0.59229
			c0.23682-0.55078,0.78809-0.9082,1.38721-0.9082c0.25098,0,0.79932,0.08105,1.21143,0.16162
			c0.04932,0.00928,0.09814,0.02148,0.14648,0.03613l25.67969,7.74658c0.7002,0.21094,1.146,0.896,1.05518,1.62158l-0.16113,1.29297
			c-4.53564,36.50684-2.35742,62.79834,6.85449,82.74072c6.09863,13.20117,13.28174,19.34863,15.33789,20.91797
			c0.37207,0.28418,0.59033,0.72559,0.58984,1.19336l-0.08936,109.06885c0,0.03711-0.00146,0.07422-0.00391,0.11133l0.2041,81.18457
			c0.00195,0.80859-0.63672,1.47266-1.44482,1.50293c-0.56592,0.02051-57.10791,2.09766-99.53418,2.69043
			C197.16748,357.43964,193.56689,357.46503,189.8208,357.46503z"/>
		<path class="st2" d="M250.67458,48.62079c0.06104,0,0.43962,0.03906,0.92548,0.13358l25.67955,7.7468l-0.16095,1.293
			c-4.57178,36.79736-2.35352,63.34769,6.98093,83.55518c5.71317,12.36641,12.46768,18.94586,15.78946,21.48163l-0.08899,109.06909
			h-0.00464L300,353.20007c0,0-56.59999,2.08975-99.5,2.68982c-3.46574,0.05157-7.03879,0.07513-10.6844,0.07513
			c-38.74586,0-85.11559-2.66501-85.11559-2.66501v-0.09995c-0.10004,0-0.2,0-0.3,0l-0.09318-189.74106
			c2.86877-1.94078,10.39068-8.55482,16.65263-22.10968c9.3345-20.20706,11.55322-46.75732,6.98145-83.55518l-0.13554-1.08887
			l26.39036-8.0509c0,0,0.15656,0.33502,0.41483,0.8985c0.22545,7.2955,2.54399,23.20728,9.89923,37.83649
			c8.72118,17.34525,21.58104,26.51367,37.1904,26.51367H202h1.50732c15.70264-0.07718,28.56154-9.35059,37.1875-26.81738
			c6.1759-12.50519,9.2314-27.71216,9.56905-37.15979c0.246-0.4791,0.40222-0.91772,0.40222-1.3038
			C250.66525,48.62122,250.66817,48.62079,250.67458,48.62079 M250.67455,45.62079c-1.19864,0-2.29082,0.71442-2.76445,1.81549
			c-0.13008,0.30246-0.2092,0.62396-0.23483,0.9512c-0.01614,0.03766-0.04152,0.09283-0.08012,0.16809
			c-0.20119,0.39175-0.31363,0.82303-0.32936,1.26318c-0.32959,9.22217-3.32091,23.91116-9.26082,35.93848
			c-8.08891,16.37936-20.02309,25.07465-34.51236,25.14587L202,110.90305h-0.29982c-14.39896,0-26.33235-8.59689-34.51013-24.8613
			c-7.1075-14.13657-9.36659-29.64597-9.5809-36.58154c-0.01237-0.40002-0.10469-0.79355-0.27147-1.15738
			c-0.26395-0.57596-0.424-0.91837-0.424-0.91837c-0.50391-1.07837-1.57898-1.73047-2.71785-1.73053
			c-0.29051-0.00003-0.58504,0.04239-0.87546,0.13098L126.93,53.83585c-1.395,0.42557-2.28181,1.79276-2.10163,3.24002
			l0.13554,1.08887c4.49954,36.21658,2.36172,62.24954-6.72791,81.92651c-6.74191,14.59377-14.7224,20.28236-15.61018,20.88295
			c-0.82528,0.55832-1.3195,1.48991-1.319,2.48627L101.4,353.20151c0.00069,1.38065,0.9339,2.54306,2.20379,2.89175
			c0.28836,0.11313,0.59893,0.18311,0.92408,0.20178c0.46454,0.02673,46.89977,2.66998,85.28773,2.66998
			c3.75522,0,7.36499-0.02542,10.72903-0.07547c42.44073-0.59363,98.99974-2.67062,99.56606-2.69156
			c1.61563-0.05963,2.89337-1.38879,2.88931-3.00549l-0.20416-81.13242c0.00275-0.05219,0.00418-0.10471,0.00421-0.15756
			l0.08899-109.06911c0.00079-0.93617-0.43555-1.819-1.17963-2.38704c-1.98688-1.51672-8.93222-7.46706-14.88641-20.35522
			c-9.08932-19.67682-11.22696-45.70978-6.72726-81.92715l0.16092-1.29227c0.18057-1.45078-0.71094-2.8205-2.1106-3.24271
			l-25.67955-7.7468c-0.09654-0.02911-0.19446-0.05334-0.29341-0.07263C252.01105,45.77805,251.17723,45.62079,250.67455,45.62079
			L250.67455,45.62079z"/>
	</g>
	<g>
		<path class="st2" d="M201.7002,113.90302c-15.60938,0-28.46924-9.16846-37.19043-26.51367
			c-7.43262-14.7832-9.72559-30.89062-9.90918-38.07812c-0.01904-0.75049,0.52002-1.3999,1.26123-1.51904l6.41406-1.03125
			c0.07959-0.0127,0.15918-0.01904,0.23828-0.01904c0.33203,0,0.65723,0.11035,0.92236,0.31738
			c0.32861,0.25586,0.53564,0.6377,0.57178,1.05273c1.38818,15.95361,5.20264,29.51807,11.03076,39.22656
			c6.74365,11.23291,15.88867,16.92822,27.18164,16.92773l2.12646-0.00146c9.84912-0.08545,19.02295-6.45557,25.81836-17.93604
			c6.31738-10.67236,10.04785-24.74316,10.23584-38.60498c0.00586-0.43164,0.19775-0.84033,0.52637-1.12061
			c0.27344-0.2334,0.61914-0.35889,0.97363-0.35889c0.07178,0,0.14453,0.00537,0.21631,0.01562l6.89844,1.00635
			c0.74414,0.1084,1.29297,0.75146,1.28369,1.50342c-0.11816,9.32617-3.17432,25.29492-9.60498,38.31592
			c-8.62598,17.4668-21.48486,26.74023-37.1875,26.81738c-0.00244,0-0.00488,0-0.00732,0H201.7002z"/>
		<path class="st2" d="M241.90143,47.74423l6.89856,1.00635c-0.19995,15.76013-9.89995,63.47815-45.3,63.65234h-1.5
			c-0.09995,0-0.19994,0-0.29997,0c-35.20003,0-45.20003-47.45685-45.59998-63.12988l6.41411-1.03107
			c2.57654,29.61664,14.15926,57.52444,39.7074,57.52444c0.10805,0,0.21696-0.00049,0.32552-0.0015
			c0.03334-0.00031,0.06668-0.00043,0.10002-0.00043c0.06667,0,0.13332,0.00043,0.19997,0.00043h1.5
			C226.94281,105.5687,241.52498,75.50888,241.90143,47.74423 M241.90135,44.74423c-0.70889,0-1.40027,0.2514-1.94675,0.7175
			c-0.65746,0.56076-1.04117,1.37778-1.05289,2.24182c-0.18451,13.6076-3.83917,27.40744-10.02687,37.86105
			c-6.51759,11.01099-15.23766,17.11954-24.55385,17.20044l-1.47395-0.00012l-0.09097-0.00018l-0.10899-0.00021l-0.12701,0.00052
			l-0.29851,0.00137c-10.72966,0-19.44235-5.45053-25.89598-16.20016c-5.71205-9.51431-9.45447-22.85657-10.82271-38.58429
			c-0.07224-0.83029-0.48663-1.59317-1.14388-2.10568c-0.53059-0.41379-1.18094-0.63431-1.84482-0.63434
			c-0.15846,0-0.3176,0.01257-0.47617,0.03806l-6.41412,1.03107c-1.48305,0.2384-2.56119,1.5369-2.52287,3.03851
			c0.18658,7.31183,2.51718,23.69363,10.06868,38.71338c8.99258,17.88596,22.31613,27.33997,38.53032,27.33997h0.29997h1.5
			c16.32368-0.08029,29.64545-9.64255,38.5399-27.65305c7.50694-15.20093,9.66701-31.64261,9.75987-38.96124
			c0.01907-1.50391-1.07843-2.78955-2.56673-3.00662l-6.89856-1.00635C242.19012,44.75461,242.04533,44.74423,241.90135,44.74423
			L241.90135,44.74423z"/>
	</g>
	<g>
		<path class="st2" d="M201.48096,71.13153c-12.38037-0.00146-24.67041-5.53125-37.57324-16.90674
			c-0.27441-0.2417-0.45068-0.57568-0.49609-0.93896C163.02979,50.22919,163,48.6203,163,48.19989
			c0-0.48096,0.23047-0.93262,0.62012-1.21484c0.25928-0.1875,0.56787-0.28516,0.87988-0.28516
			c0.15723,0,0.31494,0.02441,0.46777,0.07471c1.29883,0.42627,2.93945,1.65137,5.20996,3.34668
			c6.14844,4.59082,16.43945,12.27393,30.84619,12.27393c11.89795,0,24.45654-5.33496,37.32666-15.85645
			c0.27295-0.22363,0.60986-0.33887,0.94922-0.33887c0.21826,0,0.43799,0.04736,0.64258,0.14453
			c0.52344,0.24854,0.85742,0.77588,0.85742,1.35547c0,0.88477-0.10742,2.84912-0.40967,5.47217
			c-0.04443,0.3833-0.23438,0.73486-0.53125,0.98145c-13.93408,11.58301-26.12793,16.97803-38.37354,16.97803
			C201.4834,71.13153,201.48242,71.13153,201.48096,71.13153z"/>
		<path class="st2" d="M239.29987,47.69998c0,0.79999-0.09998,2.70001-0.39996,5.29999
			c-11.87694,9.87311-24.07668,16.63153-37.41898,16.63153c-11.22507,0-23.25993-4.78757-36.58084-16.53149
			c-0.30005-2.40002-0.40002-4.09998-0.40002-4.90002c4.18048,1.37173,16.51814,15.69522,36.5238,15.69522
			C211.64545,63.8952,224.42871,59.85742,239.29987,47.69998 M239.30034,44.69995c-0.67958,0-1.35281,0.23068-1.89926,0.6774
			c-12.59529,10.29691-24.83435,15.51785-36.37721,15.51785c-13.90829,0-23.94916-7.4967-29.94836-11.97586
			c-2.47371-1.84692-4.10793-3.06708-5.64012-3.56982c-0.30568-0.10031-0.62131-0.14954-0.93509-0.14957
			c-0.62437,0-1.24164,0.19492-1.76006,0.57043c-0.77898,0.56424-1.24017,1.46774-1.24017,2.4296
			c0,1.1817,0.1582,3.15262,0.42319,5.27219c0.09081,0.7262,0.3705-3.67075,0.91949-3.18678
			c13.18991,11.62842,25.87796,16.65879,38.63817,16.65879c12.61882,0,25.91974-4.83924,40.13814-16.65879
			c0.59349-0.49335,0.17261,3.82511,0.26108,3.05845c0.3098-2.68503,0.41974-4.71841,0.41974-5.64386
			c0-1.15894-0.66757-2.21423-1.71477-2.71075C240.17564,44.7951,239.73663,44.69995,239.30034,44.69995L239.30034,44.69995z"/>
	</g>
	<g>
		<path class="st2" d="M543.7998,379.29999c-45.47949,0-91.7666-22.4707-95.71387-24.43066
			c-0.17383-0.02441-0.31152-0.06055-0.40625-0.08594c-0.19629-0.02832-0.38086-0.0957-0.54492-0.19336
			c-0.54785-0.22266-0.93457-0.76074-0.93457-1.38867l-0.09375-190.34326c0-0.46924,0.21875-0.91113,0.5918-1.19482
			c2.05957-1.56641,9.25488-7.70703,15.36914-20.94287c9.21191-19.93945,11.38965-46.23096,6.85449-82.74121l-0.11328-0.90918
			c-0.09082-0.72607,0.35547-1.41113,1.05664-1.62207l29.20312-8.78467c0.08008-0.02441,0.16309-0.0415,0.24707-0.05225
			l0.36328-0.04492c0.06152-0.00732,0.12305-0.01123,0.18457-0.01123c0.39258,0,0.77246,0.1543,1.05469,0.43359
			c0.1748,0.17236,0.30176,0.38232,0.37402,0.60986c3.38867,1.49268,7.38379,5.37158,7.56934,5.55371
			c12.32227,10.86035,24.67383,16.39307,36.65723,16.39209c15.39844-0.00146,27.99121-8.82324,37.24219-16.5083
			c0.0293-0.02344,0.05859-0.04639,0.08887-0.06787c0.98047-0.69873,2.00781-1.51855,2.91406-2.24219
			c2.14062-1.70801,3.7959-2.97754,5.14746-3.51904c0.21484-0.58057,0.77246-0.979,1.40625-0.979
			c0.02539,0,0.05176,0.00049,0.07812,0.00195c0.84375,0.04346,1.30273,0.07373,1.30273,0.07373
			c0.12793,0.0083,0.25391,0.03271,0.375,0.07324l0.30078,0.1001l25.94141,7.92725c0.75586,0.23096,1.20312,1.00928,1.02148,1.77832
			l-0.07715,0.32764l-0.18262,1.46924c-4.53516,36.51025-2.35742,62.80176,6.85449,82.74121
			c6.89062,14.91406,15.17773,20.84668,16.10059,21.47412c0.41113,0.2793,0.65625,0.74463,0.65625,1.2417l-0.08789,107.61572
			c0.12988,0.22656,0.19922,0.48438,0.19922,0.75l-0.09961,81.2998c-0.00098,0.57812-0.33301,1.10449-0.85547,1.35254
			C643.32324,354.70233,591.0918,379.29999,543.7998,379.29999z"/>
		<path class="st2" d="M592.31879,47.72769c0.82922,0.0426,1.28125,0.07233,1.28125,0.07233l0.29999,0.09998l25.97711,7.93832
			l-0.09589,0.40652l-0.19238,1.54932c-4.57129,36.79929-2.35352,63.34961,6.98145,83.55521
			c6.23901,13.50459,13.72504,20.11734,16.61786,22.08549l-0.08813,108.36513h0.20001l-0.09998,81.30002
			c0,0-51.90002,24.70001-99.40002,24.70001s-95.29999-24.39996-95.29999-24.39996c-0.30005,0-0.5-0.10004-0.60007-0.10004v-0.09998
			c-0.09995,0-0.19998,0-0.19998,0l-0.09344-190.34314c3.30994-2.5172,10.0903-9.1006,15.82214-21.50754
			c9.33496-20.2056,11.55273-46.75592,6.98145-83.55521l-0.11301-0.90961L499.5,48.10001l0.36285-0.04535l-0.06601,0.59009
			c2.6553,0.74072,6.64551,4.24072,8.0166,5.58005c13.923,12.27518,26.47049,16.81937,37.70139,16.81937
			c0.00073,0,0.00305,0,0.00372,0c15.06934-0.00146,27.76465-8.18454,38.20117-16.85449
			c1.00098-0.71335,2.00684-1.51511,2.97949-2.2915c1.9375-1.5459,4.34863-3.47021,5.51367-3.48047L592.31879,47.72769
			 M592.31689,44.72766c-1.01709,0-1.93549,0.51285-2.48059,1.31485c-1.40503,0.68216-2.98456,1.89603-5.00507,3.50821
			c-0.93823,0.74887-1.90472,1.52032-2.8526,2.19583c-0.0603,0.04294-0.11896,0.08817-0.1759,0.1355
			c-9.05713,7.52405-21.36639,16.16064-36.28448,16.16211c-11.75549,0-23.42096-5.24036-35.66614-16.02145
			c-0.64957-0.62918-4.12436-3.91721-7.44366-5.55551c-0.12289-0.19708-0.26944-0.3811-0.43805-0.54755
			c-0.56485-0.55762-1.32355-0.86502-2.10736-0.86502c-0.12369,0-0.24796,0.00766-0.37222,0.02319l-0.36285,0.04535
			c-0.16666,0.02084-0.3313,0.05563-0.49216,0.10397l-29.20285,8.78458c-1.4006,0.42133-2.29324,1.79123-2.11288,3.24268
			l0.11298,0.90961c4.49936,36.22025,2.36157,62.2532-6.72772,81.92715c-5.97101,12.92461-12.92551,18.86501-14.91476,20.37785
			c-0.7464,0.56764-1.18445,1.45164-1.18399,2.38934l0.09344,190.34315c0.00058,1.21472,0.72305,2.26053,1.7616,2.73181
			c0.2785,0.15247,0.58371,0.26199,0.90695,0.31976c0.06616,0.01685,0.14462,0.03568,0.23413,0.05411
			c5.36328,2.67752,50.47656,24.49283,96.19736,24.49283c47.62988,0,98.54504-23.9707,100.68921-24.99118
			c1.04382-0.49673,1.70941-1.54913,1.71082-2.70514l0.09998-81.29999c0.00049-0.37231-0.06824-0.73749-0.1991-1.07849
			l0.08722-107.28792c0.00079-0.99394-0.49072-1.92369-1.31244-2.4828c-0.88721-0.60359-8.86182-6.3172-15.58203-20.86334
			c-9.08929-19.67395-11.22711-45.70691-6.72772-81.92722l0.17242-1.38858l0.05859-0.24829
			c0.36304-1.53906-0.53082-3.09567-2.04309-3.5578l-25.94165-7.92746l-0.26337-0.0878
			c-0.24316-0.08112-0.49634-0.13071-0.75214-0.14755c0,0-0.46716-0.03079-1.32404-0.0748
			C592.42059,44.72897,592.36853,44.72766,592.31689,44.72766L592.31689,44.72766z"/>
	</g>
	<g>
		<path class="st2" d="M200.7002,387.79999c-38.73584,0-87.00586-19.85352-92.38232-22.11719
			c-0.70605-0.29785-1.07471-1.0791-0.85498-1.81348c0.19287-0.64355,0.78467-1.06934,1.43604-1.06934
			c0.09082,0,0.18262,0.00781,0.2749,0.02539c7.57178,1.40625,16.68164,3.03906,26.83789,4.48926
			c0.07568,0.01074,0.15039,0.02734,0.22314,0.0498c9.39453,2.84668,41.80859,12.13574,64.46533,12.13574
			c23.56689,0,56.75635-9.44238,66.36719-12.33691c0.07568-0.02246,0.15332-0.03906,0.23193-0.0498
			c10.70703-1.44727,20.18994-2.98242,28.0542-4.29297c0.08301-0.01367,0.16602-0.02051,0.24756-0.02051
			c0.66162,0,1.2583,0.43848,1.44287,1.09375c0.20752,0.73633-0.17334,1.51074-0.88281,1.79785
			C290.55029,367.95428,240.20117,387.79999,200.7002,387.79999z"/>
		<path class="st2" d="M295.59998,364.30002c-18.09998,7.29999-61.39998,22-94.89998,22c-33.2,0-74.7-14.79999-91.80003-22
			c7,1.29999,16.40003,3,26.90003,4.5c16.5,5,44.79997,12.20001,64.89999,12.20001c20.40004,0,49.20003-7.10004,66.8-12.40002
			C278.59998,367.10001,288.39996,365.50003,295.59998,364.30002 M108.89774,361.29965
			c-1.30228-0.00009-2.48565,0.8512-2.87159,2.13943c-0.43974,1.46786,0.29741,3.03122,1.70966,3.62585
			c5.40515,2.27585,53.93522,22.23508,92.96418,22.23508c39.78566,0,90.38362-19.9437,96.02211-22.21774
			c1.41934-0.57245,2.18024-2.12152,1.76575-3.59476c-0.3688-1.31091-1.56317-2.18784-2.88547-2.18784
			c-0.1637,0-0.32928,0.01343-0.49561,0.04114c-7.86105,1.31021-10.62717,1.76056-21.29956,3.20276
			c8.18823-0.84705-7.02072,2.13828-7.17224,2.1839c-9.56055,2.87903-42.57027,12.27261-65.93498,12.27261
			c-22.45062,0-54.68521-9.23935-64.02997-12.07108c-0.14587-0.04422-7.84102-2.36386-7.99193-2.38544
			c-10.13792-1.44827-11.67863-1.79065-19.23035-3.19312C109.26338,361.31622,109.07933,361.29965,108.89774,361.29965
			L108.89774,361.29965z"/>
	</g>
	<g>
		<path class="st2" d="M185.47656,366.90253c-38.05127,0-80.48291-3.6709-80.90723-3.70801
			c-0.77441-0.06738-1.36914-0.7168-1.36914-1.49414v-7.40039c0-0.44141,0.19385-0.85938,0.53027-1.14453
			c0.27295-0.23145,0.61719-0.35547,0.96973-0.35547c0.08203,0,0.16455,0.00684,0.24658,0.02051
			c4.68848,0.78125,44.48438,3.77441,80.78125,3.77441c2.62012,0,5.22803-0.0166,7.79736-0.0498
			c45.26123-0.68945,97.25781-2.14648,105.06689-3.49609l0.36328-0.1416c0.1626-0.06152,0.28125-0.10254,0.37109-0.14844
			c0.2124-0.10645,0.44287-0.15918,0.67334-0.15918c0.27393,0,0.54688,0.0752,0.78711,0.22363
			c0.44336,0.27246,0.71289,0.75586,0.71289,1.27637v7.5c0,0.7998-0.62744,1.45898-1.42578,1.49805
			c-0.63574,0.03125-64.07275,3.15332-106.5083,3.74707C190.90088,366.88397,188.19873,366.90253,185.47656,366.90253z"/>
		<path class="st2" d="M300,354.10001v5.29999v2.20001c0,0-63.55505,3.14484-106.45509,3.74481
			c-2.66141,0.03961-5.35567,0.05811-8.07263,0.05811c-38.42432,0-80.77227-3.70294-80.77227-3.70294v-2.39996v-5
			c4.47774,0.74628,44.49996,3.79416,81.02711,3.79416c2.62889,0,5.23969-0.01578,7.81779-0.04935
			c39.40004-0.59998,97.35512-2.0448,105.45509-3.54486C299.5,354.30002,299.79999,354.19998,300,354.10001 M299.99985,351.09998
			c-0.44928,0-0.89963,0.10086-1.31595,0.30411c-0.0705,0.03036-0.15692,0.06174-0.26407,0.10269
			c-0.07181,0.0274-0.14941,0.05707-0.23355,0.08963c-8.1795,1.32959-59.73961,2.76434-104.68706,3.44876
			c-2.4955,0.03247-5.11266,0.04901-7.77213,0.04901c-36.22231,0-75.87181-2.97638-80.53394-3.75336
			c-0.16421-0.02734-0.32919-0.04083-0.49321-0.04083c-0.70485,0-1.39325,0.2486-1.93907,0.71097
			c-0.67287,0.57004-1.06087,1.40723-1.06087,2.28906v5v2.39996c0,1.55557,1.18903,1.85303,2.73869,1.98856
			c0.42478,0.03714,42.91922,3.71432,81.03357,3.71432c2.78096,0,5.51202-0.01965,8.11731-0.05847
			c42.4593-0.59378,105.92264-3.71664,106.55869-3.74811c1.59729-0.07904,2.85175-0.39706,2.85175-1.99628v-2.20001v-5.29999
			c0-1.0397-0.5383-2.00528-1.4227-2.55191C301.09552,351.25031,300.54843,351.09998,299.99985,351.09998L299.99985,351.09998z"/>
	</g>
	<g>
		<path class="st2" d="M543.7998,387.59979c-45.81152,0-92.44238-22.79883-95.79297-24.46875
			c-0.57324-0.16602-0.93652-0.58984-1.10742-0.81348c-0.30664-0.27441-0.49902-0.67383-0.49902-1.11719v-6.80078
			c0-0.52051,0.27051-1.00488,0.71387-1.27734c0.24023-0.14844,0.5127-0.22266,0.78613-0.22266
			c0.18262,0,0.36426,0.0332,0.53809,0.09961l0.06152,0.00098c0.23828,0,0.47266,0.05664,0.68457,0.16504
			c0.4707,0.24121,47.64648,24.13574,94.03516,24.13574l0.57422-0.00098c27.09473,0,61.57227-8.53711,97.08594-24.04004
			c0.94531-0.41211,1.55664-0.67676,1.7998-0.7666c0.16895-0.0625,0.34473-0.09375,0.52051-0.09375
			c0.30273,0,0.60156,0.0918,0.85645,0.26855c0.40332,0.28027,0.64355,0.74023,0.64355,1.23145v7.5
			c0,0.5791-0.33301,1.10547-0.85547,1.35449C643.32227,363.00214,591.0918,387.59979,543.7998,387.59979z"/>
		<path class="st2" d="M643.20001,353.89999v7.5c0,0-51.90002,24.70001-99.40002,24.70001S448.5,361.69998,448.5,361.69998
			c-0.29999,0-0.5-0.5-0.59998-0.5v-6.79999c0.20001,0.10004,0.39996,0.10004,0.59998,0.10004
			c0,0,47.41025,24.30115,94.72052,24.30115c0.19135,0,0.38812-0.0004,0.57947-0.00122
			C590.10004,378.79996,640.5,354.89999,643.20001,353.89999 M643.19977,350.89999c-0.35095,0-0.70355,0.06152-1.04169,0.18677
			c-0.30005,0.11111-0.76404,0.31287-1.87793,0.79907c-35.32849,15.42126-69.59247,23.91412-96.48016,23.91412l-0.57947,0.00122
			c-46.05347,0-92.88443-23.73114-93.35208-23.97086c-0.3667-0.18796-0.76752-0.29803-1.17737-0.32419
			c-0.25912-0.07086-0.52527-0.10614-0.79092-0.10614c-0.54855-0.00003-1.09549,0.15027-1.57724,0.448
			c-0.88449,0.5466-1.42288,1.51224-1.42288,2.552v6.79999c0,0.84134,0.34641,1.60187,0.90433,2.14664
			c0.48865,0.58771,1.0408,0.98337,1.65381,1.1882c4.63498,2.32571,50.17871,24.56519,96.34183,24.56519
			c47.62982,0,98.5451-23.97073,100.68921-24.99112c1.04504-0.49738,1.71082-1.55151,1.71082-2.70889v-7.5
			c0-0.98178-0.48041-1.90143-1.28619-2.46228C644.40393,351.08282,643.80444,350.89999,643.19977,350.89999L643.19977,350.89999z"
			/>
	</g>
	<line class="st2" x1="643.29999" y1="166.60001" x2="643.29999" y2="163.51334"/>
	<g>
		<path class="st2" d="M545.38672,71.13153c-12.37891,0-24.66895-5.53027-37.57324-16.90674
			c-1.37109-1.33936-5.36133-4.83936-8.0166-5.58008c-0.70801-0.19775-1.16895-0.88037-1.08691-1.61133
			c0.08105-0.73145,0.68164-1.29541,1.41602-1.33154c0.66406-0.03271,1.28223-0.04736,1.85742-0.04736
			c4.37598,0,6.40137,0.83545,7.04004,1.17236c1.27441,0.46826,2.87598,1.66357,5.06055,3.29443
			c6.14844,4.59082,16.43848,12.27393,30.84473,12.27393c11.8457,0,24.3457-5.2876,37.15625-15.71777
			c0.07227-0.09082,0.1543-0.17383,0.24512-0.24658c1.38574-1.10693,3.24707-1.66846,5.53125-1.66846
			c2.52051,0,4.70801,0.69824,4.80078,0.72803c0.69922,0.22656,1.13184,0.92725,1.02051,1.6543
			c-0.11133,0.72754-0.7334,1.2666-1.46973,1.27295c-1.16504,0.01025-3.57617,1.93457-5.51367,3.48047
			c-0.97266,0.77588-1.97852,1.57812-2.97949,2.2915C569.80469,65.74774,557.62207,71.13153,545.38672,71.13153z"/>
		<path class="st2" d="M587.86096,46.26254c2.31287,0,4.33905,0.65509,4.33905,0.65509
			c-2.3595,0.02045-5.96991,3.65009-9.39496,6.08234c-11.87695,9.87311-24.07666,16.63153-37.41895,16.63153
			c-11.22504,0-23.25995-4.78757-36.58087-16.53149c0,0-4.98846-4.8913-8.60522-5.90002
			c0.6377-0.03152,1.23135-0.04565,1.7836-0.04565c4.75134,0.00003,6.42166,1.04565,6.42166,1.04565
			c4.18042,1.37173,16.51813,15.69522,36.5238,15.69522c10.62158,0,23.40485-4.03778,38.276-16.19522v-0.00006l0.06036-0.09686
			C584.56042,46.56921,586.27765,46.26254,587.86096,46.26254 M587.86096,43.26254c-2.63232,0-4.80823,0.67157-6.46722,1.996
			c-0.13086,0.10449-0.25256,0.21957-0.36383,0.34393c-12.49786,10.14767-24.64252,15.29272-36.10083,15.29272
			c-13.90839,0-23.94922-7.49673-29.94843-11.97589c-2.32208-1.73373-3.90454-2.91519-5.35715-3.46933
			c-0.93301-0.46606-3.21692-1.29562-7.63986-1.29565c-0.61951,0-1.26947,0.01657-1.93173,0.04932
			c-1.46979,0.07263-2.66989,1.20065-2.83334,2.66312c-0.16342,1.46249,0.75803,2.82761,2.17551,3.22293
			c2.08206,0.58069,5.59003,3.4693,7.31213,5.15366c0.03699,0.03622,0.07626,0.07275,0.11508,0.10699
			c13.18994,11.62845,25.80463,17.28116,38.56482,17.28116c12.59338,0,25.06757-5.48248,39.25037-17.25287
			c1.01831-0.72833,2.02399-1.53088,2.99762-2.3078c1.41083-1.12582,3.76648-3.00558,4.62915-3.15387
			c1.45526-0.03036,2.68121-1.10266,2.90216-2.54501c0.22284-1.45462-0.64227-2.85611-2.04248-3.30884
			C592.86945,43.98117,590.56854,43.26254,587.86096,43.26254L587.86096,43.26254z"/>
	</g>
	<g>
		<path class="st2" d="M102.73535,164.1618c-0.21582,0-0.43115-0.04639-0.63086-0.13916
			c-0.38281-0.17725-0.67285-0.50732-0.7998-0.90967l-1.54541-4.89941c-0.11621-0.09863-0.21777-0.21729-0.29932-0.35449
			c-0.4209-0.70996-0.24121-1.60205,0.46631-2.02686c0.02539-0.01904,7.47314-5.10303,13.69287-18.57617
			c8.54248-18.48535,10.50293-43.34619,6.16943-78.23779c-0.09912-0.79932,0.4502-1.53418,1.24463-1.66504l5.1748-0.854
			c0.08105-0.01318,0.16309-0.02002,0.24414-0.02002c0.32178,0,0.63721,0.10352,0.89795,0.29834
			c0.32715,0.24463,0.54053,0.61182,0.59082,1.0166c4.57178,36.79785,2.35303,63.34814-6.98145,83.55518
			c-7.24268,15.67773-16.18408,22.08398-17.64453,22.6958C103.12939,164.12323,102.93213,164.1618,102.73535,164.1618z"/>
		<path class="st2" d="M126.45203,57.97928c4.53558,36.50684,2.35809,62.79895-6.85414,82.74127
			c-6.94817,15.03932-15.5675,21.39879-16.86242,21.9411l-1.7879-5.66615c-0.04115,0.01845-0.12928,0.05232-0.2494,0.123
			c0.07556-0.04553,7.83918-5.27489,14.28272-19.23346c8.66632-18.75403,10.66498-43.87439,6.2965-79.05164L126.45203,57.97928
			 M126.45209,54.97928c-0.16266,0-0.32597,0.01321-0.48861,0.04007l-5.17464,0.85413
			c-1.58866,0.26221-2.687,1.73178-2.48858,3.32965c4.297,34.60159,2.3769,59.20343-6.04266,77.42349
			c-5.8982,12.77719-12.93253,17.79297-13.21172,17.98784c-1.33221,0.87766-1.74886,2.65607-0.92525,4.03906
			c0.10459,0.17564,0.22436,0.33673,0.35658,0.48259l1.3973,4.42828c0.25368,0.80396,0.83395,1.46407,1.5987,1.81877
			c0.39985,0.18546,0.83087,0.27847,1.26228,0.27847c0.39374,0,0.78779-0.07747,1.15884-0.23285
			c1.86797-0.78229,11.01828-7.41394,18.42696-23.45003c9.45708-20.47241,11.71564-47.28131,7.10786-84.36935
			c-0.10066-0.81021-0.52719-1.54443-1.1812-2.03317C127.72601,55.18616,127.09505,54.97928,126.45209,54.97928L126.45209,54.97928z
			"/>
	</g>
	<g>
		<path class="st2" d="M302.32422,164.1618c-0.19678,0-0.39404-0.03857-0.57959-0.1167
			c-1.46045-0.61182-10.40186-7.01758-17.64502-22.6958c-9.33447-20.20752-11.55273-46.75781-6.98096-83.55518
			c0.05078-0.40479,0.26367-0.77197,0.59082-1.0166c0.26074-0.19482,0.57666-0.29834,0.89795-0.29834
			c0.08154,0,0.16309,0.00684,0.24414,0.02002l5.1748,0.854c0.79443,0.13086,1.34375,0.86572,1.24463,1.66504
			c-4.3335,34.8916-2.37305,59.75244,6.16943,78.2373c6.21924,13.47363,13.66748,18.55762,13.7417,18.60742
			c0.6748,0.45068,0.875,1.35986,0.44434,2.04736c-0.09717,0.15479-0.21777,0.28662-0.35449,0.39258l-1.51709,4.81006
			c-0.12695,0.40234-0.41699,0.73242-0.7998,0.90967C302.75537,164.11542,302.54004,164.1618,302.32422,164.1618z"/>
		<path class="st2" d="M278.60736,57.97928l5.17468,0.85413c-4.36847,35.17725-2.36987,60.29761,6.29651,79.05164
			c6.44354,13.95857,14.20715,19.18793,14.28271,19.23346c-0.12012-0.07068-0.20825-0.10455-0.24945-0.123l-1.78784,5.66615
			c-1.29492-0.54231-9.91425-6.90178-16.86243-21.9411C276.24933,120.77823,274.07184,94.48611,278.60736,57.97928
			 M278.60733,54.97925c-0.64307,0-1.27386,0.20685-1.7959,0.59698c-0.65399,0.48877-1.08054,1.22296-1.18121,2.0332
			c-4.6077,37.08804-2.34915,63.89694,7.10788,84.3692c7.40872,16.03621,16.55905,22.66786,18.427,23.45015
			c0.371,0.15538,0.76514,0.23286,1.15884,0.23286c0.43146,0,0.8624-0.093,1.2623-0.27849
			c0.76477-0.35471,1.345-1.01483,1.59869-1.8188l1.39722-4.42813c0.13229-0.1459,0.25201-0.30699,0.35666-0.48271
			c0.82361-1.383,0.40695-3.16141-0.92526-4.03906c-0.27917-0.19487-7.31348-5.21063-13.21121-17.98677
			c-8.42007-18.22101-10.34018-42.82288-6.04315-77.42456c0.19843-1.59787-0.8999-3.06747-2.48859-3.32968l-5.17468-0.85413
			C278.93338,54.99249,278.7699,54.97925,278.60733,54.97925L278.60733,54.97925z"/>
	</g>
	<g>
		<path class="st2" d="M445.20508,164.1618c-0.21582,0-0.43066-0.04639-0.63086-0.13916
			c-0.38281-0.17725-0.67285-0.50732-0.7998-0.90967l-1.54785-4.90527c-0.11328-0.09766-0.21289-0.21387-0.29297-0.34814
			c-0.4209-0.7085-0.24707-1.59912,0.45898-2.02539c0.02832-0.02051,7.47852-5.10938,13.69531-18.57812
			c8.54297-18.48438,10.50391-43.34473,6.1709-78.23779c-0.09961-0.79932,0.44922-1.53418,1.24414-1.66504l5.1748-0.854
			c0.08105-0.01318,0.16309-0.02002,0.24414-0.02002c0.32129,0,0.63672,0.10352,0.89844,0.29834
			c0.32617,0.24463,0.54004,0.61182,0.58984,1.0166c4.57129,36.79932,2.35352,63.34961-6.98145,83.55518
			c-7.24316,15.67822-16.18359,22.08447-17.64355,22.6958C445.59961,164.12323,445.40234,164.1618,445.20508,164.1618z"/>
		<path class="st2" d="M468.92181,57.97928c4.53558,36.50684,2.35803,62.79895-6.85413,82.74127
			c-6.94824,15.03932-15.56757,21.39879-16.86243,21.9411l-1.7879-5.66615c-0.04114,0.01845-0.12933,0.05232-0.24939,0.123
			c0.07556-0.04553,7.83917-5.27489,14.28265-19.23346c8.66638-18.75403,10.66504-43.87439,6.29657-79.05164L468.92181,57.97928
			 M468.92188,54.97928c-0.16266,0-0.32596,0.01321-0.48862,0.04007l-5.17462,0.85413
			c-1.58868,0.26221-2.68701,1.73178-2.48859,3.32965c4.297,34.60162,2.37686,59.20346-6.04269,77.42346
			c-5.89816,12.77722-12.93246,17.79298-13.21167,17.98785c-1.33231,0.87772-1.74893,2.65634-0.92511,4.03937
			c0.10458,0.17555,0.22424,0.33652,0.35641,0.48232l1.39731,4.42827c0.25369,0.80397,0.83395,1.4641,1.59875,1.81879
			c0.39978,0.18542,0.83087,0.27846,1.26224,0.27846c0.39377,0,0.78778-0.07745,1.15887-0.23286
			c1.86795-0.78233,11.01825-7.41409,18.42691-23.45001c9.45709-20.4725,11.71564-47.28143,7.10788-84.36935
			c-0.10068-0.81021-0.52722-1.54443-1.18121-2.03317C470.1958,55.18616,469.56485,54.97928,468.92188,54.97928L468.92188,54.97928z
			"/>
	</g>
	<g>
		<path class="st2" d="M644.79395,164.1618c-0.19727,0-0.39355-0.03857-0.5791-0.1167
			c-1.46094-0.61133-10.40137-7.01758-17.64453-22.6958c-9.32031-20.17334-11.50098-46.95752-6.8623-84.2915
			c0.0498-0.40479,0.26367-0.77197,0.59082-1.0166c0.26074-0.19482,0.57617-0.29834,0.89746-0.29834
			c0.08105,0,0.16309,0.00684,0.24414,0.02002l5.1748,0.85449c0.79492,0.13135,1.34375,0.86572,1.24414,1.66504
			c-4.33887,34.94189-2.35938,60.77441,6.05078,78.97314c6.21777,13.46924,13.66797,18.55811,13.74219,18.60791
			c0.6748,0.45068,0.87402,1.35986,0.44434,2.04688c-0.09766,0.15527-0.21777,0.28662-0.35449,0.39258l-1.51758,4.81006
			c-0.12695,0.40234-0.41699,0.73242-0.7998,0.90967C645.22461,164.11542,645.00977,164.1618,644.79395,164.1618z"/>
		<path class="st2" d="M621.19659,57.24301l5.17462,0.85413c-4.36847,35.17725-2.48926,61.03387,6.17712,79.7879
			c6.44348,13.95856,14.20709,19.18793,14.28265,19.23344c-0.12006-0.07068-0.20825-0.10454-0.24939-0.12297l-1.78784,5.66614
			c-1.29492-0.5423-9.91425-6.90179-16.86243-21.9411C618.71912,120.77823,616.66101,93.74985,621.19659,57.24301
			 M621.19653,54.24301c-0.64301,0-1.27386,0.20685-1.79584,0.59695c-0.65405,0.48874-1.08057,1.22293-1.18121,2.03317
			c-4.67426,37.62286-2.45361,64.66574,6.9884,85.1055c7.40875,16.03627,16.55908,22.66789,18.42706,23.45015
			c0.37097,0.15538,0.76514,0.23286,1.15881,0.23286c0.43146,0,0.86237-0.093,1.26227-0.27847
			c0.76477-0.35472,1.34503-1.01485,1.59869-1.8188l1.39728-4.42833c0.13214-0.14581,0.25195-0.30695,0.35651-0.48251
			c0.82367-1.38301,0.40686-3.1615-0.92529-4.03914c-0.27917-0.19485-7.31342-5.21048-13.21106-17.98671
			c-8.28992-17.9393-10.22742-43.50558-5.92383-78.16083c0.19843-1.5979-0.8999-3.06744-2.48859-3.32968l-5.17456-0.8541
			C621.52258,54.25623,621.35913,54.24301,621.19653,54.24301L621.19653,54.24301z"/>
	</g>
</g>
<g>
	<path class="st2" d="M284.09961,141.34933c-9.33447-20.20752-11.55273-46.75781-6.98096-83.55518l0.16095-1.29303
		l-25.67957-7.74677c-0.53687-0.10443-0.94275-0.14117-0.93396-0.13232c0,0.38611-0.15619,0.82477-0.40222,1.30383
		c-0.33765,9.44763-3.39313,24.6546-9.56903,37.15979c-8.62598,17.4668-21.48486,26.74023-37.1875,26.81738H202h-0.2998
		c-15.60938,0-28.46924-9.16846-37.19043-26.51367c-7.35522-14.62921-9.67377-30.54102-9.89923-37.83649
		c-0.25824-0.56348-0.41479-0.8985-0.41479-0.8985l-26.39038,8.0509l0.13556,1.08887
		c4.57178,36.79785,2.35303,63.34814-6.98145,83.55518c-6.26196,13.55487-13.78387,20.16888-16.65265,22.10968l0.0932,189.74103
		c0.09998,0,0.19995,0,0.29999,0v0.09998c0,0,55.5,3.18982,95.79999,2.58984c42.90002-0.60004,99.5-2.68982,99.5-2.68982
		l-0.20459-81.29999h0.00464l0.08899-109.06909C296.56726,160.2952,289.81274,153.71573,284.09961,141.34933z"/>
	<path class="st2" d="M201.70001,112.40292c0.10004,0,0.20001,0,0.29999,0h1.5
		c35.40002-0.17419,45.10004-47.89221,45.29999-63.65234l-6.89856-1.00635c-0.37646,27.76465-14.95862,57.82446-37.55438,58.02069
		h-1.5c-0.09998,0-0.19995-0.00092-0.29999,0c-25.7749,0.23798-37.4455-27.78107-40.0329-57.52295l-6.41412,1.03107
		C156.5,64.94608,166.5,112.40292,201.70001,112.40292z"/>
	<path class="st2" d="M238.8999,52.99997c0.29999-2.59998,0.39996-4.5,0.39996-5.29999
		c-42.88086,35.05591-68.39978,2.60004-74.7998,0.5c0,0.80005,0.09998,2.5,0.40002,4.90002
		C194.0545,78.80301,217.03076,71.17947,238.8999,52.99997z"/>
	<path class="st2" d="M626.57031,141.34933c-9.33496-20.20557-11.55273-46.75586-6.98145-83.55518l0.19238-1.54932l0.09589-0.40652
		l-25.97711-7.93833l-0.29999-0.09998c0,0-0.45203-0.02972-1.28125-0.07233l-0.1059,0.69
		c-1.16504,0.01025-3.57617,1.93457-5.51367,3.48047c-0.97266,0.77637-1.97852,1.57812-2.97949,2.2915
		c-10.43652,8.66992-23.13184,16.85303-38.20117,16.85449c-11.23145,0.00098-23.78125-4.54346-37.70508-16.81934
		c-1.37109-1.33936-5.36133-4.83936-8.0166-5.58008l0.06598-0.59009L499.5,48.10001l-29.20282,8.78455l0.11298,0.90961
		c4.57129,36.79932,2.35352,63.34961-6.98145,83.55518c-5.73187,12.40698-12.51221,18.99036-15.82214,21.50757l0.09344,190.34314
		c0,0,0.10004,0,0.20001,0v0.09998c0.10004,0,0.29999,0.10004,0.60004,0.10004c0,0,47.79999,24.39996,95.29999,24.39996
		s99.40002-24.70001,99.40002-24.70001l0.09998-81.29999h-0.20001l0.08813-108.36517
		C640.29535,161.46671,632.80933,154.85397,626.57031,141.34933z"/>
	<path class="st2" d="M200.70001,381.00003c-20.10004,0-48.40002-7.20001-64.90002-12.20001
		c-10.5-1.5-19.90002-3.20001-26.90002-4.5c17.10004,7.20001,58.60004,22,91.80005,22c33.5,0,76.79999-14.70001,94.89996-22
		c-7.20001,1.20001-17,2.79999-28.09998,4.29999C249.90002,373.89999,221.10004,381.00003,200.70001,381.00003z"/>
	<path class="st2" d="M193.54492,358.04483c-38.39996,0.5-84.04492-2.94482-88.84491-3.74481v5v2.39996
		c0,0,48.54492,4.24487,88.84491,3.64484C236.44495,364.74484,300,361.60001,300,361.60001v-2.20001v-5.29999
		c-0.20001,0.09998-0.5,0.20001-1,0.39996C290.90002,356.00003,232.94495,357.44485,193.54492,358.04483z"/>
	<path class="st2" d="M448.5,354.50003c-0.20001,0-0.39996,0-0.59998-0.10004v6.79999c0.09998,0,0.29999,0.5,0.59998,0.5
		c0,0,47.79999,24.40002,95.29999,24.40002s99.40002-24.70001,99.40002-24.70001v-7.5
		c-2.70001,1-53.09998,24.89996-99.40002,24.89996C496.29999,379.00003,448.5,354.50003,448.5,354.50003z"/>
	<line class="st2" x1="643.29999" y1="166.60001" x2="643.29999" y2="163.51334"/>
	<path class="st2" d="M508.40527,48.19998c0,0-2.08087-1.3028-8.20526-1c3.61676,1.00873,8.60522,5.90002,8.60522,5.90002
		c29.15448,25.703,52.13068,18.07947,73.99982-0.10004c3.42505-2.43225,7.03546-6.06189,9.39496-6.08234
		c0,0-5.74786-1.85864-8.93457,0.68542l0,0l-0.06036,0.09686v0.00006C540.32422,82.75589,514.80524,50.30002,508.40527,48.19998z"/>
	<path class="st2" d="M126.45203,57.97928l-5.17462,0.85413c4.36847,35.17725,2.36981,60.29761-6.29651,79.05164
		c-6.44354,13.95856-14.20715,19.18793-14.28271,19.23346c0.12012-0.07068,0.20825-0.10455,0.24939-0.12299l1.7879,5.66614
		c1.29492-0.5423,9.91425-6.90179,16.86243-21.9411C128.81012,120.77823,130.98761,94.48611,126.45203,57.97928z"/>
	<path class="st2" d="M290.07855,137.88504c-8.66638-18.75403-10.66498-43.87439-6.29651-79.05164l-5.17468-0.85413
		c-4.53552,36.50684-2.35803,62.79895,6.85419,82.74127c6.94818,15.03931,15.5675,21.3988,16.86243,21.9411l1.78784-5.66614
		c0.0412,0.01843,0.12933,0.05231,0.24945,0.12299C304.28571,157.07297,296.52209,151.8436,290.07855,137.88504z"/>
	<path class="st2" d="M468.92181,57.97928l-5.17462,0.85413c4.36847,35.17725,2.36981,60.29761-6.29657,79.05164
		c-6.44348,13.95856-14.20709,19.18793-14.28265,19.23346c0.12006-0.07068,0.20825-0.10455,0.24939-0.12299l1.7879,5.66614
		c1.29486-0.5423,9.91418-6.90179,16.86243-21.9411C471.27985,120.77823,473.4574,94.48611,468.92181,57.97928z"/>
	<path class="st2" d="M632.54834,137.88504c-8.66638-18.75403-10.54559-44.61065-6.17712-79.7879l-5.17462-0.85413
		c-4.53558,36.50684-2.47748,63.53521,6.73474,83.47754c6.94818,15.03931,15.5675,21.3988,16.86243,21.9411l1.78784-5.66614
		c0.04114,0.01843,0.12933,0.05231,0.24939,0.12299C646.75543,157.07297,638.99182,151.8436,632.54834,137.88504z"/>
</g>
<g>
	<g>
		<path class="st3" d="M200.49722,84.7403c-0.54825,0-0.95752,0.39264-0.95752,0.92309c0,0.53305,0.40927,0.93351,0.95752,0.93351
			c0.54826,0,0.95757-0.40046,0.95757-0.93351C201.45479,85.13554,201.04549,84.7403,200.49722,84.7403z M200.50227,86.19122
			c-0.26274,0-0.48761-0.22882-0.48761-0.52524c0-0.29643,0.22234-0.52005,0.48761-0.52005
			c0.2653,0,0.47752,0.22362,0.47752,0.52005C200.9798,85.9624,200.76758,86.19122,200.50227,86.19122z"/>
		<polygon class="st3" points="203.07793,84.7533 202.5322,84.7533 202.1987,85.27074 201.86774,84.7533 201.32961,84.7533 
			201.91827,85.6478 201.28917,86.57607 201.82985,86.57607 202.1987,86.0118 202.57516,86.57607 203.12846,86.57607 
			202.49431,85.62437 		"/>
		<polygon class="st3" points="205.88118,84.7533 205.88118,85.85062 205.07777,84.7533 204.67102,84.7533 204.67102,86.57607 
			205.10301,86.57607 205.10301,85.48396 205.90648,86.57607 206.3107,86.57607 206.3107,84.7533 		"/>
		<polygon class="st3" points="203.14252,85.13296 204.3873,85.13296 204.3873,84.7533 203.39497,84.7533 		"/>
		<polygon class="st3" points="203.44391,86.57089 204.3873,86.57089 204.3873,86.19123 203.18961,86.19123 		"/>
		<polygon class="st3" points="202.91626,85.46813 202.81284,85.62337 202.95967,85.84779 204.3873,85.84779 204.3873,85.46813 
			202.91936,85.46813 		"/>
		<path class="st3" d="M206.24522,80.62144c0-0.13832-0.11214-0.25047-0.25044-0.25047h-1.26955l0.7439-1.33904
			c0.06718-0.12092,0.02361-0.2734-0.09729-0.34057c-0.121-0.06723-0.27342-0.02361-0.34058,0.09731l-0.87904,1.5823h-2.56918
			l-0.87906-1.5823c-0.06718-0.12093-0.21967-0.16444-0.34058-0.09731c-0.12091,0.06718-0.16449,0.21965-0.09732,0.34057
			l0.74393,1.33904h-1.13055c-0.13831,0-0.25046,0.11214-0.25046,0.25047c0,0.13831,0.11215,0.25046,0.25046,0.25046h1.40884
			l1.36038,2.44872c0.04417,0.0795,0.12799,0.12881,0.21895,0.12881c0.09094,0,0.17476-0.04931,0.21892-0.12881l1.36041-2.44872
			h1.54782C206.13309,80.8719,206.24522,80.75976,206.24522,80.62144z M202.86763,82.68326l-1.00632-1.81136h2.0126
			L202.86763,82.68326z"/>
	</g>
	<g>
		<path class="st3" d="M198.09966,89.75186h0.27133c0.19904,0,0.31462,0.15075,0.31462,0.34778
			c0,0.19596-0.11559,0.34472-0.31462,0.34472h-0.27133V89.75186z M198.37099,90.3207c0.1156,0,0.17493-0.10247,0.17493-0.22106
			c0-0.11858-0.05933-0.22413-0.17493-0.22413h-0.13164v0.44519H198.37099z"/>
		<path class="st3" d="M199.25824,90.3207v0.12366h-0.44321v-0.6925h0.43414v0.12365h-0.29443v0.1648h0.25829v0.12565h-0.25829
			v0.15474H199.25824z"/>
		<path class="st3" d="M199.35258,90.24034h0.13969c0.00099,0.05027,0.04927,0.09149,0.11359,0.09149
			c0.06233,0,0.10355-0.03223,0.10355-0.08144c0-0.03822-0.02817-0.06532-0.08749-0.08344l-0.08443-0.0241
			c-0.15175-0.04022-0.17885-0.13165-0.17885-0.19397c0-0.12365,0.10654-0.20602,0.23917-0.20602
			c0.13065,0,0.2312,0.07937,0.2312,0.21101h-0.13971c0-0.04921-0.03423-0.08743-0.09448-0.08743
			c-0.05426,0-0.09549,0.03316-0.09549,0.07944c0,0.01704,0.005,0.05319,0.07738,0.0733l0.07738,0.02211
			c0.10454,0.02917,0.19603,0.08443,0.19603,0.20202c0,0.1377-0.1176,0.21008-0.24831,0.21008
			C199.45412,90.45341,199.35258,90.36292,199.35258,90.24034z"/>
		<path class="st3" d="M199.97661,89.75186h0.13971v0.6925h-0.13971V89.75186z"/>
		<path class="st3" d="M200.24281,90.09865c0-0.19704,0.15475-0.35577,0.35378-0.35577c0.10454,0,0.19595,0.04322,0.25629,0.11053
			l-0.10155,0.08743c-0.03914-0.04221-0.09441-0.06831-0.15474-0.06831c-0.12059,0-0.21408,0.10247-0.21408,0.22613
			c0,0.12358,0.09349,0.23012,0.21408,0.23012c0.09042,0,0.1618-0.04322,0.17992-0.1156
			c0.002-0.00499,0.00299-0.01105,0.004-0.01704h-0.19597v-0.1136h0.34871c0,0.25629-0.13763,0.37089-0.33665,0.37089
			S200.24281,90.29461,200.24281,90.09865z"/>
		<path class="st3" d="M201.56027,89.75186v0.6925h-0.12564l-0.25124-0.43414v0.43414h-0.13969v-0.6925h0.12964l0.24724,0.42915
			v-0.42915H201.56027z"/>
		<path class="st3" d="M202.17212,90.3207v0.12366h-0.44319v-0.6925h0.43414v0.12365h-0.29445v0.1648h0.25829v0.12565h-0.25829
			v0.15474H202.17212z"/>
		<path class="st3" d="M202.30568,89.75186h0.27135c0.19902,0,0.31462,0.15075,0.31462,0.34778
			c0,0.19596-0.1156,0.34472-0.31462,0.34472h-0.27135V89.75186z M202.57703,90.3207c0.11559,0,0.17491-0.10247,0.17491-0.22106
			c0-0.11858-0.05933-0.22413-0.17491-0.22413h-0.13165v0.44519H202.57703z"/>
		<path class="st3" d="M203.26024,89.75186h0.13971v0.6925h-0.13971V89.75186z"/>
		<path class="st3" d="M204.08531,89.75186v0.6925h-0.12566l-0.25122-0.43414v0.43414h-0.13969v-0.6925h0.12964l0.24722,0.42915
			v-0.42915H204.08531z"/>
		<path class="st3" d="M204.91829,89.87551h-0.19098v0.56885h-0.13969v-0.56885h-0.19096v-0.12365h0.52164V89.87551z"/>
		<path class="st3" d="M205.56036,89.75186v0.6925h-0.13969v-0.28139h-0.25829v0.28139h-0.13971v-0.6925h0.13971v0.28545h0.25829
			v-0.28545H205.56036z"/>
		<path class="st3" d="M206.17221,90.3207v0.12366H205.729v-0.6925h0.43414v0.12365h-0.29443v0.1648h0.25829v0.12565h-0.25829
			v0.15474H206.17221z"/>
		<path class="st3" d="M206.53781,90.19712v-0.44526h0.13969v0.4372c0,0.09349,0.06033,0.13164,0.12465,0.13164
			c0.06532,0,0.12566-0.03815,0.12566-0.13164v-0.4372h0.13969v0.44526c0,0.15981-0.12366,0.25629-0.26535,0.25629
			C206.66147,90.45341,206.53781,90.35693,206.53781,90.19712z"/>
		<path class="st3" d="M207.58394,90.44436l-0.21608-0.24324v0.24324h-0.13969v-0.6925h0.13969v0.23618l0.17186-0.23618h0.17386
			l-0.26228,0.34479l0.32262,0.34771H207.58394z"/>
	</g>
	<path class="st3" d="M202.6519,87.59187h0.23079v0.93996h0.4334v0.20416h-0.66418V87.59187z"/>
</g>
<g>
	<g>
		<path class="st3" d="M170.36162,60.16977c-0.52983-0.42588-1.15913-0.37143-1.48235,0.14974
			c-0.32454,0.52271-0.16222,1.26005,0.3891,1.70392c0.55147,0.4433,1.19591,0.35498,1.49876-0.18491
			C171.06725,61.30253,170.89131,60.59646,170.36162,60.16977z M169.5123,61.62234c-0.26205-0.21067-0.34782-0.62083-0.1702-0.91431
			c0.17761-0.29388,0.52693-0.33715,0.7856-0.12932c0.25865,0.20816,0.33736,0.59628,0.16591,0.89486
			C170.12215,61.77176,169.77679,61.83496,169.5123,61.62234z"/>
		<path class="st3" d="M172.89091,62.10672c-0.18123-0.12948-0.36198-0.2601-0.54222-0.39209
			c-0.20528,0.09658-0.41141,0.19171-0.61845,0.28562c-0.01378-0.25823-0.02635-0.5159-0.03764-0.77365
			c-0.17651-0.13329-0.35252-0.26796-0.528-0.40392c0.02094,0.44994,0.04567,0.90094,0.07425,1.35266
			c-0.38405,0.15695-0.77103,0.30944-1.16083,0.45724c0.18225,0.14139,0.36505,0.28157,0.54836,0.42029
			c0.23123-0.09658,0.46141-0.19495,0.69057-0.29486c0.02193,0.28659,0.04541,0.57359,0.07048,0.86091
			c0.18909,0.13807,0.37866,0.27501,0.56877,0.41032c-0.04646-0.48357-0.0885-0.96617-0.12608-1.44788
			C172.18626,62.42678,172.53989,62.26878,172.89091,62.10672z"/>
		<path class="st3" d="M175.72169,63.99547c-0.17867,0.39136-0.35732,0.78239-0.53596,1.17376
			c-0.10089-0.56516-0.19514-1.12976-0.28285-1.69371c-0.13768-0.08921-0.27512-0.17915-0.41231-0.26966
			c-0.31076,0.641-0.62151,1.28193-0.93228,1.92286c0.15067,0.09942,0.30161,0.19811,0.45287,0.29607
			c0.18321-0.38586,0.36642-0.77203,0.54964-1.15788c0.09253,0.56419,0.19165,1.12944,0.29735,1.69493
			c0.14255,0.08856,0.28534,0.17655,0.42839,0.2635c0.29176-0.65308,0.58356-1.30599,0.87531-1.95899
			C176.01486,64.1768,175.86815,64.08654,175.72169,63.99547z"/>
		<path class="st3" d="M172.7502,62.54565c0.4166,0.29639,0.8358,0.58599,1.25748,0.86853
			c0.0654-0.13313,0.13084-0.26601,0.19623-0.39914c-0.33377-0.2238-0.66599-0.45165-0.99658-0.6842
			C173.05544,62.4032,172.90306,62.47483,172.7502,62.54565z"/>
		<path class="st3" d="M172.28461,64.25403c0.32515,0.22817,0.65178,0.45213,0.9799,0.67188
			c0.06541-0.13313,0.13081-0.26601,0.19621-0.39914c-0.4137-0.27719-0.82504-0.56112-1.23395-0.85127
			C172.24532,63.86826,172.26462,64.0611,172.28461,64.25403z"/>
		<path class="st3" d="M172.34084,62.72926c-0.06293,0.02836-0.12593,0.05672-0.18901,0.085
			c0.00856,0.11295,0.01733,0.22558,0.02638,0.33853c0.48326,0.34679,0.96999,0.68452,1.46004,1.01292
			c0.06541-0.13297,0.13081-0.26601,0.19621-0.39914c-0.50035-0.33529-0.99724-0.68031-1.49049-1.03512
			C172.34291,62.73072,172.34187,62.7299,172.34084,62.72926z"/>
	</g>
	<g>
		<path class="st3" d="M186.07143,68.9207c-0.59688-0.20564-1.16466,0.08135-1.33324,0.69376
			c-0.16936,0.61459,0.16449,1.24887,0.78564,1.46376c0.62126,0.21423,1.19643-0.10809,1.34129-0.73079
			C187.00877,69.73008,186.66829,69.12595,186.07143,68.9207z M185.64915,70.60874
			c-0.29521-0.10185-0.47697-0.45675-0.38612-0.80022c0.09091-0.34348,0.40295-0.51493,0.69432-0.41454
			c0.2914,0.10047,0.46167,0.43787,0.37769,0.78394C186.25105,70.52342,185.94727,70.71124,185.64915,70.60874z"/>
		<path class="st3" d="M188.90248,69.81824c-0.20093-0.05598-0.40161-0.11319-0.60208-0.17185
			c-0.16618,0.16699-0.33347,0.3331-0.50183,0.49823c-0.07774-0.23927-0.15422-0.47862-0.22945-0.71806
			c-0.19711-0.06102-0.39403-0.12325-0.59068-0.18677c0.13226,0.41777,0.26843,0.8349,0.40846,1.25187
			c-0.3166,0.29031-0.63692,0.57764-0.96088,0.86189c0.2043,0.06619,0.40884,0.13102,0.61363,0.19454
			c0.19006-0.17696,0.37877-0.3549,0.56619-0.53389c0.09244,0.26318,0.18648,0.52619,0.28203,0.78889
			c0.21024,0.06126,0.42068,0.12122,0.63138,0.17947c-0.16505-0.44095-0.32568-0.88255-0.48184-1.32471
			C188.32903,70.38073,188.61737,70.1007,188.90248,69.81824z"/>
		<path class="st3" d="M192.01419,70.5756c-0.06721,0.43625-0.13438,0.87251-0.2016,1.30883
			c-0.23756-0.49993-0.46863-1.0015-0.69319-1.50443c-0.15082-0.03452-0.30154-0.06969-0.45216-0.10566
			c-0.12692,0.72122-0.25386,1.44252-0.38078,2.16375c0.16541,0.03962,0.33096,0.07835,0.4966,0.11587
			c0.07278-0.43309,0.14557-0.86578,0.21834-1.29871c0.22923,0.50188,0.46492,1.00198,0.70709,1.50054
			c0.1554,0.03225,0.31085,0.06385,0.46642,0.0948c0.10619-0.72585,0.21237-1.45152,0.31854-2.17744
			C192.33359,70.64148,192.17386,70.60906,192.01419,70.5756z"/>
		<path class="st3" d="M188.88248,70.28561c0.46165,0.1277,0.92442,0.24859,1.38818,0.36259
			c0.02719-0.15006,0.05438-0.30013,0.08156-0.4501c-0.36708-0.0901-0.73357-0.18475-1.09933-0.28368
			C189.13004,70.03872,189.00656,70.16236,188.88248,70.28561z"/>
		<path class="st3" d="M188.88103,72.07493c0.35963,0.09682,0.71991,0.18968,1.08076,0.27824
			c0.02719-0.15006,0.05437-0.30013,0.08156-0.45019c-0.455-0.11182-0.90904-0.22995-1.36205-0.35497
			C188.74718,71.72368,188.81375,71.89951,188.88103,72.07493z"/>
		<path class="st3" d="M188.54866,70.60995c-0.05124,0.05008-0.1026,0.10015-0.15407,0.14999
			c0.03638,0.10363,0.073,0.20734,0.10985,0.3109c0.53612,0.15103,1.07373,0.29267,1.61269,0.4249
			c0.02718-0.14998,0.05435-0.30004,0.08154-0.4501c-0.55031-0.13507-1.09923-0.28011-1.64653-0.43471
			C188.55098,70.61053,188.54982,70.61036,188.54866,70.60995z"/>
	</g>
	<path class="st3" d="M182.30672,68.34971c0.0285-0.0897-0.01797-0.19276-0.10376-0.23061
		c-0.26271-0.11449-0.52484-0.23101-0.78635-0.35028c0.24998-0.21893,0.498-0.43998,0.74405-0.66248
		c0.06664-0.06013,0.0722-0.17113,0.01297-0.24754c-0.05923-0.07681-0.16116-0.08961-0.22797-0.02966
		c-0.2915,0.26147-0.58575,0.52044-0.8828,0.77697c-0.52809-0.24527-1.05368-0.5005-1.57652-0.76538
		c-0.05376-0.42677-0.10419-0.85313-0.15129-1.27909c-0.01079-0.09789-0.09114-0.17308-0.1797-0.1683
		c-0.08852,0.00462-0.15222,0.0871-0.14174,0.18491c0.03871,0.36098,0.07982,0.72235,0.12331,1.08382
		c-0.22955-0.11838-0.45853-0.23878-0.68697-0.36105c-0.08374-0.04457-0.17975-0.01102-0.21431,0.07641
		c-0.03458,0.08702,0.00566,0.1943,0.08997,0.23992c0.28618,0.1533,0.57323,0.30336,0.86111,0.45067
		c0.08276,0.66142,0.17348,1.32407,0.2722,1.98727c0.0096,0.06482,0.05142,0.12186,0.10902,0.15006
		c0.05762,0.02811,0.12206,0.02163,0.16809-0.01556c0.47293-0.38569,0.93935-0.7777,1.39922-1.17595
		c0.32021,0.14747,0.64133,0.29105,0.96332,0.43123C182.18489,68.48219,182.27818,68.43989,182.30672,68.34971z M179.74332,68.71392
		c-0.07266-0.48965-0.14096-0.97889-0.20493-1.4678c0.41222,0.20694,0.82613,0.40789,1.24159,0.60276
		C180.43799,68.14066,180.09242,68.42911,179.74332,68.71392z"/>
	<g>
		<path class="st3" d="M202.99077,71.56284c-0.61716,0.0141-1.07869,0.48973-1.07982,1.13235
			c-0.00111,0.64546,0.47758,1.1326,1.11989,1.11687c0.64232-0.01458,1.10339-0.52538,1.07925-1.16994
			C204.08617,72.0033,203.60786,71.54793,202.99077,71.56284z M203.02792,73.3204c-0.30521,0.0077-0.5686-0.26666-0.57141-0.62594
			c-0.00282-0.35911,0.24757-0.63314,0.54874-0.64043c0.30127-0.00721,0.54968,0.25483,0.55963,0.6137
			C203.57484,73.02667,203.33611,73.31303,203.02792,73.3204z"/>
		<path class="st3" d="M205.90271,71.41942c-0.20499,0.01734-0.41005,0.03371-0.61519,0.04845
			c-0.1142,0.2178-0.22966,0.43495-0.34634,0.6517c-0.13557-0.20055-0.26996-0.40165-0.40312-0.60341
			c-0.20239,0.01134-0.40483,0.02155-0.60728,0.03046c0.23314,0.35133,0.46999,0.70088,0.71045,1.04881
			c-0.22459,0.38844-0.45338,0.77527-0.68628,1.16039c0.21036-0.00891,0.4207-0.01929,0.63097-0.03111
			c0.13412-0.23555,0.26674-0.47166,0.39789-0.70842c0.15569,0.2182,0.31285,0.43584,0.47148,0.65243
			c0.21506-0.01564,0.43004-0.03297,0.64494-0.05145c-0.27077-0.36211-0.53743-0.72641-0.7999-1.09274
			C205.50476,72.15733,205.70557,71.78899,205.90271,71.41942z"/>
		<path class="st3" d="M209.05513,71.04556c0.04938,0.43941,0.09875,0.87906,0.14815,1.31839
			c-0.35594-0.39266-0.70598-0.78953-1.05006-1.18989c-0.15233,0.02026-0.3047,0.03987-0.45714,0.05859
			c0.06657,0.73216,0.13316,1.46432,0.19974,2.19649c0.16742-0.02067,0.33478-0.04222,0.50208-0.0645
			c-0.0432-0.43828-0.0864-0.87631-0.12959-1.31467c0.34818,0.39752,0.70229,0.79147,1.06226,1.18113
			c0.15628-0.02366,0.3125-0.04845,0.46864-0.07389c-0.08751-0.72916-0.175-1.45841-0.2625-2.18749
			C209.37625,70.99589,209.21573,71.02117,209.05513,71.04556z"/>
		<path class="st3" d="M206.0049,71.87196c0.47089-0.04076,0.94141-0.08872,1.41145-0.14326
			c-0.01312-0.1525-0.02623-0.30531-0.03934-0.4578c-0.37209,0.04335-0.74448,0.08224-1.11708,0.11676
			C206.17561,71.5493,206.09059,71.71071,206.0049,71.87196z"/>
		<path class="st3" d="M206.46732,73.5779c0.36624-0.03436,0.73227-0.07293,1.09802-0.11546
			c-0.01311-0.15258-0.02623-0.3054-0.03934-0.45781c-0.46117,0.05364-0.92276,0.1008-1.3847,0.14148
			C206.24931,73.29034,206.35797,73.43424,206.46732,73.5779z"/>
		<path class="st3" d="M205.77243,72.29872c-0.03561,0.0658-0.07135,0.13143-0.10718,0.19714
			c0.06134,0.08597,0.12291,0.17202,0.18469,0.25767c0.54733-0.04505,1.09421-0.09934,1.64047-0.16295
			c-0.01311-0.15241-0.02623-0.30523-0.03934-0.4578c-0.55777,0.0649-1.11621,0.12016-1.67511,0.16562
			C205.7748,72.29856,205.77362,72.29856,205.77243,72.29872z"/>
	</g>
	<path class="st3" d="M199.29417,72.35277c0.00363-0.09561-0.06657-0.17793-0.15689-0.18272
		c-0.27649-0.0154-0.5529-0.03306-0.82921-0.05347c0.17863-0.29753,0.35498-0.59604,0.52907-0.89584
		c0.04716-0.08111,0.02393-0.18871-0.05141-0.24017c-0.07538-0.05161-0.17448-0.02779-0.22192,0.05283
		c-0.20676,0.35271-0.4167,0.70421-0.62982,1.05433c-0.55898-0.0453-1.11745-0.1004-1.67529-0.16505
		c-0.15964-0.38683-0.31598-0.77429-0.46904-1.16241c-0.03516-0.08937-0.12953-0.13102-0.2113-0.09561
		c-0.08182,0.03638-0.12032,0.13734-0.08546,0.2268c0.12852,0.32929,0.2594,0.65826,0.39265,0.9865
		c-0.24533-0.0303-0.49052-0.06255-0.73558-0.09683c-0.08986-0.0128-0.17091,0.05413-0.18105,0.14974
		c-0.01012,0.09521,0.0551,0.18272,0.14551,0.19576c0.30698,0.04278,0.6142,0.08265,0.92163,0.11951
		c0.24687,0.59976,0.5016,1.19758,0.76419,1.79337c0.02557,0.05817,0.07945,0.09788,0.14075,0.10387
		c0.06123,0.00592,0.12013-0.02212,0.15373-0.07478c0.34483-0.536,0.68219-1.07564,1.01193-1.61852
		c0.33861,0.02609,0.67738,0.04862,1.01627,0.0675C199.21387,72.52252,199.29047,72.44895,199.29417,72.35277z M196.97955,73.61307
		c-0.19373-0.43998-0.38315-0.88109-0.56827-1.32333c0.43942,0.04942,0.87924,0.09253,1.31937,0.12997
		C197.48441,72.81932,197.23404,73.21733,196.97955,73.61307z"/>
	<g>
		<path class="st3" d="M219.86418,67.71796c-0.59315,0.22307-0.92191,0.83418-0.7643,1.45023
			c0.15825,0.61791,0.74083,0.92371,1.3582,0.69059c0.61737-0.2327,0.9382-0.87736,0.75562-1.48717
			C221.03281,67.76756,220.45732,67.49465,219.86418,67.71796z M220.33394,69.38891
			c-0.29333,0.11133-0.61568-0.06271-0.70702-0.40594c-0.09138-0.34258,0.08299-0.69003,0.37253-0.79926
			c0.28955-0.10931,0.59462,0.05745,0.69284,0.39777C220.79053,68.92203,220.63016,69.27709,220.33394,69.38891z"/>
		<path class="st3" d="M222.64912,66.58877c-0.19452,0.08686-0.38937,0.17243-0.58455,0.2567
			c-0.05701,0.2477-0.11528,0.49516-0.17485,0.74253c-0.18086-0.14585-0.36067-0.29283-0.53946-0.44054
			c-0.19322,0.07973-0.38672,0.15849-0.58054,0.23595c0.31242,0.25718,0.62804,0.51144,0.94681,0.7627
			c-0.1217,0.44857-0.24777,0.89697-0.37819,1.34505c0.20142-0.08022,0.40251-0.16174,0.60332-0.24446
			c0.07175-0.27152,0.14195-0.5428,0.21062-0.81432c0.20471,0.15582,0.41069,0.31074,0.61794,0.46396
			c0.20456-0.08856,0.4088-0.1785,0.61267-0.2699c-0.35196-0.25418-0.70038-0.51169-1.04518-0.77316
			C222.44528,67.43178,222.54909,67.01028,222.64912,66.58877z"/>
		<path class="st3" d="M225.61896,65.14471c0.15634,0.404,0.3127,0.808,0.46904,1.21208
			c-0.44305-0.25297-0.88118-0.51209-1.31432-0.77689c-0.14307,0.07195-0.28635,0.14326-0.42981,0.21383
			c0.24522,0.67852,0.49045,1.35704,0.73567,2.03573c0.15756-0.07746,0.3149-0.15574,0.47198-0.23498
			c-0.15002-0.40498-0.30006-0.80995-0.45009-1.215c0.43645,0.26058,0.87784,0.5155,1.3241,0.76424
			c0.14615-0.07722,0.29207-0.155,0.43777-0.23352c-0.26483-0.66847-0.52965-1.33694-0.79448-2.00534
			C225.91911,64.98557,225.76917,65.06546,225.61896,65.14471z"/>
		<path class="st3" d="M222.85986,66.98726c0.44667-0.20029,0.89157-0.40772,1.33461-0.62188
			c-0.05037-0.14172-0.10074-0.28319-0.15111-0.42507c-0.35069,0.16935-0.70256,0.33481-1.05556,0.49564
			C222.94588,66.6198,222.90323,66.80357,222.85986,66.98726z"/>
		<path class="st3" d="M223.72929,68.46301c0.34686-0.15849,0.6927-0.32103,1.03745-0.48787
			c-0.05037-0.14179-0.10074-0.28327-0.15111-0.42506c-0.43466,0.2101-0.87108,0.41396-1.30916,0.61094
			C223.44684,68.26239,223.58778,68.36302,223.72929,68.46301z"/>
		<path class="st3" d="M222.7397,67.47562c-0.01831,0.07527-0.03676,0.15047-0.0553,0.22558
			c0.08069,0.06133,0.16159,0.12276,0.24268,0.18361c0.51965-0.23045,1.03702-0.47012,1.55188-0.7192
			c-0.05037-0.14163-0.10074-0.28343-0.15111-0.42507c-0.52571,0.25426-1.05403,0.49881-1.58479,0.73362
			C222.74193,67.47472,222.74081,67.4752,222.7397,67.47562z"/>
	</g>
	<path class="st3" d="M216.40359,70.17233c-0.02019-0.09334-0.10794-0.14828-0.19626-0.12227
		c-0.2702,0.07819-0.5408,0.15387-0.81177,0.22712c0.09851-0.34493,0.19464-0.69011,0.28841-1.03552
		c0.02541-0.0931-0.02357-0.18871-0.1088-0.21286c-0.08533-0.0239-0.17496,0.03168-0.20064,0.12511
		c-0.11205,0.4074-0.22742,0.81448-0.34612,1.22116c-0.54904,0.14414-1.09958,0.27833-1.6514,0.40295
		c-0.24872-0.31714-0.49442-0.63606-0.73706-0.95677c-0.05571-0.07357-0.15677-0.08264-0.22641-0.0209
		c-0.06956,0.0619-0.08153,0.1721-0.02611,0.24576c0.20454,0.27242,0.41125,0.54385,0.62015,0.81384
		c-0.24306,0.05283-0.48637,0.10387-0.72992,0.15306c-0.08932,0.01807-0.15059,0.10866-0.1368,0.20395
		c0.01378,0.09512,0.09793,0.15687,0.18784,0.13888c0.3051-0.0615,0.60985-0.126,0.91422-0.1935
		c0.38495,0.49176,0.77716,0.97938,1.17654,1.46222c0.03891,0.04684,0.10054,0.06725,0.16092,0.05235
		c0.06038-0.01467,0.10997-0.06199,0.12935-0.12325c0.1994-0.62901,0.39082-1.25859,0.57425-1.88939
		c0.33232-0.08865,0.66409-0.18069,0.99527-0.27647C216.3681,70.36226,216.42375,70.26583,216.40359,70.17233z M214.48666,72.15595
		c-0.29478-0.35651-0.58563-0.71579-0.87254-1.07742c0.43436-0.09982,0.86789-0.20565,1.30054-0.31738
		C214.77637,71.22649,214.6337,71.69159,214.48666,72.15595z"/>
	<path class="st3" d="M233.65364,60.65667c-0.04381-0.08111-0.14357-0.10056-0.22299-0.0423
		c-0.24313,0.17696-0.48715,0.35149-0.73206,0.52376c0.00645-0.36665,0.01057-0.73273,0.01234-1.098
		c0.00047-0.09877-0.0719-0.17153-0.16119-0.16222c-0.08946,0.00891-0.16219,0.09691-0.16301,0.19536
		c-0.00349,0.43139-0.01027,0.86359-0.02029,1.2966c-0.49719,0.34412-0.99799,0.6786-1.50211,1.00336
		c-0.32416-0.20978-0.64581-0.42256-0.96495-0.63833c-0.07318-0.04943-0.17389-0.02107-0.2254,0.06417
		c-0.05145,0.08524-0.03453,0.19431,0.03851,0.24414c0.26953,0.18401,0.54086,0.366,0.81404,0.54588
		c-0.22249,0.14107-0.44563,0.28011-0.66937,0.41721c-0.08212,0.05096-0.11789,0.15987-0.07986,0.24527
		c0.03804,0.08532,0.13594,0.11352,0.21854,0.06287c0.28032-0.17194,0.55966-0.34663,0.83798-0.52449
		c0.50198,0.32589,1.00998,0.64481,1.52388,0.95612c0.05008,0.03063,0.1152,0.02642,0.17017-0.01037
		c0.05492-0.03671,0.09093-0.10072,0.09386-0.16602c0.03076-0.67512,0.05362-1.34845,0.06863-2.01984
		c0.30064-0.20978,0.59998-0.42304,0.89796-0.64011C233.66821,60.85162,233.69746,60.73818,233.65364,60.65667z M232.30142,63.2736
		c-0.37939-0.22995-0.75557-0.46412-1.12849-0.70194c0.39642-0.25742,0.7908-0.52092,1.18297-0.79026
		C232.34204,62.27778,232.32388,62.77528,232.30142,63.2736z"/>
</g>
<path class="st2" d="M101.7,361.69998c0,0-0.78886,2.23923,6.03581,5.36496c6.82467,3.1257,20.94228-4.49783,20.94228-4.49783
	l-3.95293-12.98819L101.7,361.69998z"/>
<path class="st2" d="M302.86169,361.69998c0,0,0.78888,2.23923-6.0358,5.36496c-6.82468,3.1257-20.94229-4.49783-20.94229-4.49783
	l3.95294-12.98819L302.86169,361.69998z"/>
</svg>
