<?xml version="1.0" encoding="utf-8"?>
<!-- Generator: Adobe Illustrator 25.3.0, SVG Export Plug-In . SVG Version: 6.00 Build 0)  -->
<svg version="1.1" id="Layer_1" xmlns="http://www.w3.org/2000/svg" xmlns:xlink="http://www.w3.org/1999/xlink" x="0px" y="0px"
	 viewBox="0 0 750.2 400.1" style="enable-background:new 0 0 750.2 400.1;" xml:space="preserve">
<style type="text/css">
	.st0{fill:none;}
	.st1{fill:#6B6B6B;}
	.st2{fill:#EDEFEF;}
	.st3{fill:#BBB8B8;}
	.st4{fill:#B0B0B0;}
	.st5{fill:#4C4949;}
	.st6{fill:#4B4C4C;}
	.st7{fill:#88898C;}
	.st8{fill:#1D1D1B;}
</style>
<g>
	<path class="st0" d="M173.5,49.9c0,0,0.1,0,0.2,0C173.6,49.9,173.5,49.8,173.5,49.9c-0.4,0-0.8,0-1.1,0c0,0,0,0.1-0.1,0.1
		C172.7,49.9,173.1,49.9,173.5,49.9z"/>
	<path class="st0" d="M168.2,49.4c0.4,0.3,0.8,0.7,1.2,1c0.8,0,1.6-0.2,2.4-0.2c0.1-0.3,0.2-0.7,0.4-1.1c0.1-0.1,0.2-0.2,0.3-0.2
		c0,0,0,0,0.1,0c0-0.1-0.1-0.1-0.2-0.1c-0.2,0-0.3,0.1-0.3,0.2c-0.1,0.3-0.2,0.7-0.4,1.1c-0.8,0-1.6,0.2-2.4,0.2
		C168.9,50,168.5,49.6,168.2,49.4c-0.2-0.2-0.3-0.2-0.4-0.2c-0.1,0.1-0.1,0.2,0,0.2l0,0l0.1-0.1C168,49.4,168.1,49.3,168.2,49.4z"/>
	<path class="st0" d="M200.5,62.7c0-0.1-0.1-0.1-0.1-0.1C200.4,62.6,200.5,62.6,200.5,62.7z"/>
	<path class="st0" d="M183.7,48.4c0.6,0,1-0.1,1.5-0.1l0,0C184.6,48.3,184.2,48.4,183.7,48.4c-0.1,0.2-0.2,0.3-0.4,0.5h0.1
		C183.6,48.7,183.7,48.6,183.7,48.4z"/>
	<path class="st0" d="M167.8,50.5c0.4-0.2,0.7-0.2,1.1-0.2l-0.1-0.1c-0.3,0.1-0.7,0.1-1.1,0.2c-0.2,0-0.3,0.1-0.2,0.2
		c0,0.1,0.1,0.1,0.1,0.1l0,0C167.5,50.5,167.7,50.5,167.8,50.5z"/>
	<path class="st0" d="M179.6,50.9c-0.9,0.1-1.8-0.4-1.9-1c0-0.1-0.1-0.1-0.1-0.2c0,0.1,0,0.2,0.1,0.3
		C177.9,50.6,178.8,51.1,179.6,50.9c0.7,0,1.3-0.5,1.2-0.9C180.8,50.5,180.3,50.9,179.6,50.9z"/>
	<path class="st0" d="M170.8,51.4c-0.3-0.3-0.6-0.5-0.9-0.8c0.6,0,1.1-0.1,1.7-0.2l0,0c-0.6,0-1.2,0.1-1.8,0.2
		C170.1,50.9,170.5,51.1,170.8,51.4z"/>
	<path class="st0" d="M185.6,49.1C185.6,49.1,185.5,49.1,185.6,49.1c-0.1,0.1,0,0.3,0,0.4C185.6,49.4,185.5,49.2,185.6,49.1z"/>
	<path class="st0" d="M209.9,51.9L209.9,51.9c10.5,0.4,20.3,1.2,27.1,2.4l0.1-0.1c-6.8-1.2-16.7-2-27.1-2.3H209.9z"/>
	<polygon class="st0" points="199.8,62.5 200,62.5 200,62.5 	"/>
	<path class="st0" d="M200.1,62.3C200.1,62.4,200.1,62.4,200.1,62.3C200.1,62.4,200.1,62.4,200.1,62.3
		C200.1,62.4,200.1,62.4,200.1,62.3L200.1,62.3c0,0.1,0,0.1,0.1,0.1h0.1l0,0C200.2,62.4,200.2,62.4,200.1,62.3c0.1,0,0.1,0,0.1,0
		C200.2,62.3,200.2,62.3,200.1,62.3C200.2,62.3,200.1,62.3,200.1,62.3z"/>
	<path class="st0" d="M200.4,62.4L200.4,62.4c0.1-0.1,0-0.2-0.1-0.2l0,0C200.3,62.2,200.4,62.3,200.4,62.4L200.4,62.4z"/>
	<path class="st0" d="M196,51.8c-10.2,0.2-19.8,1-26.2,2.4l0.1,0.1C176.3,52.8,185.9,52.1,196,51.8L196,51.8z"/>
	<path class="st0" d="M200.3,62.7C200.4,62.7,200.4,62.7,200.3,62.7C200.4,62.7,200.4,62.7,200.3,62.7
		C200.3,62.6,200.3,62.6,200.3,62.7C200.4,62.6,200.3,62.7,200.3,62.7z"/>
	<path class="st0" d="M201.3,62.3C201.2,62.3,201.2,62.3,201.3,62.3c-0.1,0-0.1,0-0.1,0H201.3L201.3,62.3z"/>
	<path class="st0" d="M186.2,50.2c-0.1-0.7-0.2-1.4-0.4-2.1C186,48.9,186.1,49.6,186.2,50.2z"/>
	<path class="st0" d="M185.7,49.9c-0.7,0-1.3,0.1-1.9,0.1C184.4,50,185,49.9,185.7,49.9c-0.1,0.2,0,0.3,0,0.4h0.1
		C185.8,50.2,185.7,50,185.7,49.9z"/>
	<path class="st0" d="M186.7,49c0,0.4,0.1,0.8,0.2,1.2C186.9,49.8,186.8,49.4,186.7,49z"/>
	<path class="st0" d="M188,49.3c0-0.4-0.1-0.8-0.2-1.2C187.8,48.5,187.9,48.9,188,49.3z"/>
	<path class="st0" d="M186.5,48.1c-0.2-0.1-0.5,0-0.7,0C186,48.2,186.3,48.1,186.5,48.1z"/>
	<path class="st0" d="M186.2,50.2c0.2,0.1,0.5,0,0.7,0C186.7,50.1,186.4,50.2,186.2,50.2z"/>
	<path class="st0" d="M183.1,48.4c-0.1,0-0.1,0-0.2,0C183,48.4,183,48.4,183.1,48.4L183.1,48.4z"/>
	<path class="st0" d="M179.1,49.1c-0.4,0-0.7,0.3-0.7,0.6C178.5,49.4,178.7,49.2,179.1,49.1c0.5,0,0.8,0.3,1,0.7c0-0.1,0-0.1,0-0.2
		C179.9,49.3,179.6,49.1,179.1,49.1z"/>
	<path class="st0" d="M181.2,48.5c-0.1,0-0.1,0-0.2,0C181.1,48.5,181.1,48.5,181.2,48.5L181.2,48.5z"/>
	<path class="st0" d="M184.2,50.5c-0.2-0.2-0.3-0.3-0.4-0.5C183.9,50.3,184,50.4,184.2,50.5z"/>
	<path class="st0" d="M182.3,48.5c0.1,0,0.2,0,0.2,0C182.4,48.5,182.3,48.5,182.3,48.5c-0.2,0.1-0.4,0.3-0.5,0.5c0,0,0,0,0.1,0.1
		C182,49,182.2,48.7,182.3,48.5z"/>
	<path class="st0" d="M186.7,49c0.5,0.4,0.9,0.8,1.5,1.2C187.7,49.8,187.2,49.4,186.7,49L186.7,49z"/>
	<path class="st0" d="M180.4,48.6c0.1,0,0.2,0,0.3,0C180.6,48.6,180.5,48.6,180.4,48.6c0.3,0.4,0.8,0.6,1.2,1
		c-0.3,0.4-0.4,0.7-0.7,1.1h0.1c0.3-0.4,0.4-0.7,0.7-1.1C181.3,49.2,180.8,49,180.4,48.6z"/>
	<path class="st0" d="M182.2,50c0.2,0.2,0.5,0.4,0.6,0.6h0.1C182.7,50.4,182.4,50.2,182.2,50L182.2,50z"/>
	<rect x="200.6" y="62.3" class="st0" width="0" height="0.5"/>
	<polygon class="st0" points="203.2,58.4 203,58.7 203.1,58.7 203.3,58.4 	"/>
	<polygon class="st0" points="209.8,65.3 196.1,65.3 196.1,65.4 209.9,65.5 209.8,51.9 	"/>
	<path class="st0" d="M209.8,51.9h0.1c-4.5-0.2-9.1-0.2-13.5-0.1C200.9,51.7,205.3,51.8,209.8,51.9z"/>
	<rect x="203.2" y="62.3" class="st0" width="0.1" height="0.5"/>
	<path class="st0" d="M202.6,62.7C202.7,62.7,202.7,62.7,202.6,62.7c0.1-0.1,0.1-0.1,0.1-0.1C202.7,62.6,202.7,62.7,202.6,62.7z"/>
	<path class="st0" d="M202.6,62.8c0.2,0,0.3-0.1,0.2-0.2l0,0C202.8,62.7,202.8,62.8,202.6,62.8z"/>
	<path class="st0" d="M200.9,62.5L200.9,62.5L200.9,62.5c0-0.2,0.1-0.3,0.3-0.3c0,0,0,0-0.1,0c-0.2,0-0.3,0.1-0.3,0.3
		s0.1,0.3,0.3,0.3l0,0C201,62.7,200.9,62.6,200.9,62.5z"/>
	<polygon class="st0" points="204,59 204,58.9 202.9,58.9 202.8,59 202.8,59.1 202.9,59 	"/>
	<path class="st0" d="M201,62.5C201,62.5,201,62.6,201,62.5l0.1,0.1h0.2c0,0,0,0,0-0.1H201z"/>
	<path class="st0" d="M201.1,62.8C201.1,62.8,201.2,62.8,201.1,62.8C201.2,62.8,201.1,62.8,201.1,62.8L201.1,62.8z"/>
	<polygon class="st0" points="202.1,62.5 202.3,62.5 202.3,62.5 	"/>
	<path class="st0" d="M201.2,62.7C201.2,62.7,201.3,62.7,201.2,62.7C201.3,62.6,201.3,62.6,201.2,62.7L201.2,62.7
		C201.2,62.6,201.2,62.7,201.2,62.7L201.2,62.7z"/>
	<polygon class="st0" points="205.2,62.5 205.4,62.5 205.4,62.5 	"/>
	<polygon class="st0" points="204.6,53.8 204.6,53.8 203.9,55 	"/>
	<path class="st0" d="M201.6,55.4l1.1,1.9L201.6,55.4z"/>
	<path class="st0" d="M203.1,57.3c-0.1,0.1-0.1,0.1-0.2,0.1C203,57.4,203.1,57.4,203.1,57.3z"/>
	<path class="st0" d="M200.5,55.4c-0.1,0-0.2-0.1-0.2-0.2c0-0.1,0.1-0.2,0.2-0.2c-0.1,0-0.2,0.1-0.2,0.2
		C200.3,55.3,200.4,55.4,200.5,55.4z"/>
	<polygon class="st0" points="202.1,55.4 202,55.4 202.8,56.8 	"/>
	<path class="st0" d="M200.9,53.7c0.1,0,0.2,0,0.3,0.1C201.1,53.7,201,53.6,200.9,53.7z"/>
	<polygon class="st0" points="206.5,62.3 206.4,62.3 206.4,62.4 	"/>
	<polygon class="st0" points="206.5,62.8 206.4,62.7 206.4,62.8 206.5,62.9 206.6,62.9 206.5,62.8 	"/>
	<path class="st0" d="M201,58.4c-0.4,0-0.8,0.3-0.7,0.7C200.3,58.7,200.6,58.4,201,58.4z"/>
	<rect x="205.1" y="62.3" class="st0" width="0" height="0.5"/>
	<rect x="206.2" y="62.8" class="st0" width="0.1" height="0.1"/>
	<path class="st0" d="M205.9,62.8c0.1,0,0.2-0.1,0.2-0.2v-0.3l0,0v0.3C206.1,62.7,206,62.8,205.9,62.8z"/>
	<path class="st0" d="M200.8,54c0-0.1,0-0.2,0.1-0.3C200.8,53.8,200.7,53.9,200.8,54z"/>
	<path class="st0" d="M199.5,62.8C199.4,62.8,199.4,62.8,199.5,62.8h-0.2C199.4,62.8,199.4,62.8,199.5,62.8l-0.2-0.1v-0.3h-0.1v-0.1
		h-0.1v0.6h0.2C199.4,62.9,199.4,62.9,199.5,62.8z"/>
	<path class="st0" d="M207.8,48.7c0.8,0,1.5,0,2.2,0.1c0,0.1,0,0.3,0,0.4h0.1c0-0.1,0-0.3,0-0.4C209.4,48.7,208.6,48.7,207.8,48.7
		L207.8,48.7z"/>
	<path class="st0" d="M208.3,48.2C208.3,48.2,208.2,48.3,208.3,48.2c0.6,0,1.3,0.1,1.9,0.1v-0.1C209.6,48.3,208.9,48.2,208.3,48.2z"
		/>
	<path class="st0" d="M232.6,51.1c0.1,0.1,0.1,0.2,0.3,0.4C232.8,51.3,232.8,51.2,232.6,51.1z"/>
	<path class="st0" d="M222.6,48h0.1C222.6,47.9,222.6,47.9,222.6,48c-0.4,0.3-0.8,0.7-1.1,1h0.1C221.9,48.7,222.3,48.3,222.6,48z"/>
	<path class="st0" d="M212.8,47.9c-0.1,0.4-0.1,0.8-0.2,1.3c-0.4-0.4-0.7-0.8-1.2-1.3c-0.2,0-0.5,0-0.7-0.1c0,0.1,0,0.1,0,0.2
		c0,0,0,0,0-0.1c0.2,0.1,0.5,0.1,0.7,0.1c0.5,0.4,0.8,0.8,1.2,1.3c0.1-0.5,0.1-0.9,0.2-1.2c0.2-0.1,0.5,0,0.8,0.1c0-0.1,0-0.1,0-0.2
		C213.3,48,213,47.9,212.8,47.9z"/>
	<path class="st0" d="M242,50.2c-7.2-1.7-15.4-2.7-23.9-3.2c-1.2-0.1-2.4-0.2-3.7-0.2c-18.2-0.6-37.1,0.9-50.3,2.7l0.1,0.1
		c13.2-1.8,32.1-3.4,50.3-2.7c1.2,0,2.5,0.1,3.7,0.3c8.4,0.5,16.6,1.5,23.7,3.2C242,50.3,242,50.3,242,50.2c0.3-0.2,0.5-0.3,0.7-0.5
		l0.2-0.1c0,0,0,0-0.1,0l-0.2,0.1C242.4,49.9,242.2,50,242,50.2z"/>
	<path class="st0" d="M208.1,49.5c0.1,0,0.1,0.1,0.2,0.1c0.6-0.1,1.2,0,1.8,0v-0.1C209.4,49.6,208.8,49.5,208.1,49.5z"/>
	<path class="st0" d="M207.3,49c0.1-0.5,0.5-0.8,0.8-1.1C207.7,48.2,207.4,48.5,207.3,49c0.3,0.3,0.5,0.7,0.9,1.1h0.1
		C207.9,49.7,207.7,49.3,207.3,49z"/>
	<path class="st0" d="M206.1,49c-0.2,0.2-0.3,0.3-0.5,0.5C205.8,49.3,206,49.1,206.1,49L206.1,49z"/>
	<path class="st0" d="M217.9,48c-0.1-0.1,0-0.2,0.1-0.2h-0.1c-0.1,0-0.2,0.1-0.1,0.2c0.1,0.3,0.3,0.6,0.5,1h0.1
		C218.3,48.6,218,48.3,217.9,48z"/>
	<path class="st0" d="M233.1,49.7c0.2-0.1,0.3-0.2,0.5-0.3c0.5,0.1,1.1,0.1,1.6,0.2v-0.1c-0.5-0.1-1.1,0-1.7-0.2
		c-0.2,0.1-0.4,0.3-0.6,0.4C233,49.7,233,49.7,233.1,49.7z"/>
	<path class="st0" d="M228.5,51c0.8,0,1.5-0.4,1.6-0.9C229.9,50.6,229.2,51,228.5,51z"/>
	<path class="st0" d="M229.5,51h0.1c0.5-0.3,0.9-0.6,1.4-0.8c-0.2-0.4-0.5-0.7-0.7-1.1c0.2,0,0.6,0,0.8,0.1c0.1,0.1,0.2,0.4,0.3,0.6
		c0.2-0.1,0.5-0.4,0.7-0.5c0.3,0,0.6,0,0.8,0.1c0,0,0.1,0,0.1-0.1c-0.3,0-0.7,0-0.9-0.1c-0.2,0.1-0.5,0.4-0.7,0.5
		c-0.1-0.1-0.2-0.4-0.3-0.6c-0.3-0.1-0.6-0.1-0.9-0.1c0.2,0.4,0.5,0.7,0.7,1.1C230.5,50.3,229.9,50.7,229.5,51z"/>
	<path class="st0" d="M232.3,51.3C232.4,51.3,232.4,51.3,232.3,51.3c-0.1-0.4-0.3-0.8-0.6-1.1l0,0C232,50.6,232.2,50.9,232.3,51.3z"
		/>
	<path class="st0" d="M228.9,48.9c-1,0-1.7,0.4-1.9,0.9C227.2,49.3,228,48.9,228.9,48.9z"/>
	<path class="st0" d="M219.7,51c-0.3-0.6-0.7-1.1-1-1.7c-0.4-0.1-0.8,0-1.3-0.1c-0.1,0-0.2-0.1-0.2-0.2c0-0.1,0.1-0.1,0.1-0.1l0,0
		c-0.1,0-0.2,0-0.2,0.1s0.1,0.2,0.2,0.2c0.5,0.1,0.9,0,1.3,0.1C218.9,49.9,219.3,50.4,219.7,51C219.6,51.1,219.7,51.1,219.7,51
		C219.8,51.1,219.8,51.1,219.7,51C219.8,51.1,219.7,51.1,219.7,51z"/>
	<path class="st0" d="M232.5,50.3c0.8,0,1.6,0.1,2.3,0.2v-0.1C234.1,50.4,233.2,50.2,232.5,50.3c-0.2-0.1-0.2,0-0.3,0
		C232.4,50.3,232.3,50.2,232.5,50.3z"/>
	<path class="st0" d="M221.6,49.5c0.5,0,0.8,0.1,1.3,0.1l0,0C222.5,49.6,222.1,49.5,221.6,49.5L221.6,49.5z"/>
	<path class="st0" d="M235.1,51.5c0.2-0.6,0.6-1.3,0.7-1.9c0.1,0.1,0.4,0.1,0.6,0.1c0.3,0.6,0.6,1,0.8,1.5c0.2-0.3,0.3-0.8,0.5-1.2
		c0.2,0,0.5,0.1,0.8,0v-0.1c-0.3,0.1-0.6,0-0.8,0c-0.2,0.4-0.3,0.9-0.5,1.2c-0.2-0.5-0.6-0.9-0.8-1.5c-0.2,0-0.5,0-0.6-0.2
		C235.6,50.1,235.2,50.8,235.1,51.5C235,51.5,235,51.5,235.1,51.5z"/>
	<path class="st0" d="M207.2,47.9c-0.3,0.2-0.4,0.4-0.6,0.6l-0.1-0.1c0,0,0.1,0.1,0.1,0.2C206.9,48.3,207,48.1,207.2,47.9z"/>
	<path class="st0" d="M238.8,366.7c-11.4,0.4-24.3,0.6-38.6,0.6c-14.8,0-27.7-0.3-38.8-0.7c11.9,3.1,25.5,5.6,40.6,5.5
		C215.7,372,227.8,369.7,238.8,366.7z"/>
	<path class="st0" d="M192.9,48.9c0.4,0.1,0.9,0,1.1,0C193.7,48.9,193.3,48.9,192.9,48.9L192.9,48.9z"/>
	<path class="st0" d="M203.9,48.2c0.4,0,0.8,0.3,0.8,0.6C204.7,48.5,204.4,48.2,203.9,48.2z"/>
	<path class="st0" d="M192.9,48.6c0.3,0.1,0.7,0,1,0c-0.3-0.3-0.6-0.5-0.8-0.8c-0.1,0-0.1-0.1,0-0.2c0,0,0,0,0.1,0
		c-0.1-0.1-0.2-0.1-0.2,0c-0.1,0.1-0.1,0.2,0,0.2c0.3,0.3,0.6,0.5,0.8,0.8C193.5,48.5,193.1,48.6,192.9,48.6c-0.2,0-0.3,0.1-0.3,0.2
		c0,0.1,0.1,0.2,0.2,0.1l0,0v-0.1C192.7,48.7,192.8,48.6,192.9,48.6z"/>
	<path class="st0" d="M194.2,48.9c-0.1,0-0.1,0-0.2,0c0.4,0.5,1,1.1,1.4,1.6c0,0,0.1,0.1,0.2,0.1c0.1,0,0.1,0,0.1,0
		c-0.1,0-0.1-0.1-0.1-0.1C195.2,50,194.6,49.4,194.2,48.9z"/>
	<path class="st0" d="M197.1,48.8L197.1,48.8c0.4,0.1,0.8,0,1.3,0c0,0,0,0,0.1,0C197.9,48.7,197.6,48.8,197.1,48.8z"/>
	<path class="st0" d="M196.8,48.6c0.2-0.4,0.5-0.7,0.7-1.1l0.1-0.1l0,0c-0.1,0-0.2,0-0.3,0.1c-0.2,0.4-0.5,0.7-0.7,1.1
		c-0.7,0-1.5,0-2.2,0.1l0,0C195.2,48.6,196,48.6,196.8,48.6z"/>
	<path class="st0" d="M194.4,48.9c0.4,0.5,0.8,0.8,1.1,1.2C195.2,49.6,194.8,49.3,194.4,48.9z"/>
	<path class="st0" d="M188.6,48c-0.3,0.1-0.6,0.1-0.8,0.1C188.1,48.1,188.3,48.2,188.6,48c0.1,0.8,0.2,1.4,0.3,2.1l0,0
		C188.8,49.4,188.7,48.7,188.6,48z"/>
	<path class="st0" d="M206.1,49c-0.3-0.4-0.6-0.8-0.9-1.1C205.5,48.2,205.7,48.6,206.1,49z"/>
	<path class="st0" d="M205.1,50L205.1,50c0.2-0.2,0.3-0.3,0.5-0.5C205.4,49.7,205.3,49.8,205.1,50z"/>
	<path class="st0" d="M198.2,48.4L198.2,48.4c-0.2,0-0.6,0-0.9,0c0,0,0,0,0,0.1C197.5,48.4,197.9,48.4,198.2,48.4z"/>
	<line class="st0" x1="489.2" y1="18.3" x2="489.2" y2="18.1"/>
	<path class="st1" d="M652.2,152.2l0.4,0.3l1.3-11.3c0,0-3.1-6.7-3.1-18s-0.7-33.2-2-42.6c-0.8-5.5-1.8-12.4-2.5-17.3
		c-6.6-2.7-12.8-5.2-20.4-7.9l-0.8-0.3l0.2-0.9c0.4-1.9,1-5.9,0.4-10.9c-0.8-6.5-3.8-16.1-14-24.5c-3.8-3-25.7-5-55.8-5.1h-0.7
		c-22.6,0-53,1.3-64.6,4.9l-0.3,0.1l-0.3,0.3c-17.4,13.7-16.5,26.9-14.3,33.6l0.3,0.9l-0.9,0.3c-7.6,2.6-16,5.5-25.6,9.5
		c-0.7,4.8-1.7,12.1-2.5,17.5c-1.3,9.4-2,31.3-2,42.6s-3.4,19.2-3.4,19.2l1.4,9.9v0.1l2.8-0.3l-0.4,82.1l-0.1,15.5l0.3,36.1
		l-0.1,73.9c0,1,0.3,1.7,0.8,2.2c0.5,0.4,1.1,0.6,1.9,0.6c0.1,0,0.2,0,0.3,0h0.1h0.1l1.1,0.2h0.2c0.2,0,0.4,0.1,0.5,0.1
		c0.9,0.1,2.3,0.2,4.1,0.4h0.1l1.8,0.1c5.7,0.3,10.1,1.3,15.4,3.4c2.5,1,5.4,2.1,8.8,3.2h0.1c2.7,0.9,5.5,1.8,8.5,2.7
		c14.3,4.4,36.7,9.1,57.1,9.1h1.7c19.2-0.2,35.4-4.5,50-9.1c1.4-0.4,2.7-0.8,4.1-1.3l0.2-0.1c0.9-0.3,1.9-0.6,2.8-0.9l0.2-0.1
		c1.2-0.4,2.3-0.8,3.5-1.1c9.7-3.2,17.4-5.7,25.6-6.1c5.2-0.3,8.2-0.6,9.7-0.9l0.2-0.2l0.2-0.1c0.4-0.1,0.7-0.5,0.7-1v-5.7h-0.1
		l0.1-1.1c0.1-1,0.6-6-0.2-24.4v-9l-0.2-26.4l0.1-72.3l0.2-13.1l0.2-13.3l0.4-6.2l3.7-36.4L652.2,152.2z"/>
	<path class="st2" d="M209.9,65.5H196v-0.2V51.9c-10.1,0.2-19.7,0.9-26.1,2.4c3.3,2.6,6.8,5.3,10.1,7.7c5,3.7,9.7,7.2,13.6,10.6
		l9.7,7.8l10.1-7.8c3.9-3.4,8.6-6.9,13.5-10.6c3.3-2.6,6.8-5.1,10.1-7.7c-6.8-1.2-16.7-2-27.1-2.3L209.9,65.5L209.9,65.5z"/>
	<path class="st3" d="M199.3,62.4v0.3h0.1v-0.1C199.4,62.5,199.4,62.4,199.3,62.4z"/>
	<polygon class="st3" points="206.5,62.8 206.4,62.6 206.4,62.7 	"/>
	<path class="st3" d="M201.3,62.6L201.3,62.6L201.3,62.6L201.3,62.6z"/>
	<polygon class="st3" points="206.4,62.5 206.5,62.3 206.4,62.4 	"/>
	<path class="st3" d="M201.3,62.3L201.3,62.3h-0.1c-0.1,0-0.1,0.1-0.1,0.2l0,0h0.3c0,0,0,0,0,0.1h0.1v-0.2L201.3,62.3
		C201.3,62.4,201.3,62.4,201.3,62.3z"/>
	<path class="st3" d="M201.2,62.7C201.2,62.7,201.2,62.6,201.2,62.7L201.2,62.7l-0.1-0.1C201.1,62.7,201.1,62.7,201.2,62.7z"/>
	<path class="st3" d="M201.1,62.8L201.1,62.8L201.1,62.8L201.1,62.8z"/>
	<path class="st3" d="M200.1,62.3C200.1,62.4,200.1,62.4,200.1,62.3C200.1,62.4,200.1,62.4,200.1,62.3
		C200.1,62.4,200.1,62.4,200.1,62.3C200.1,62.4,200.1,62.4,200.1,62.3z"/>
	<path class="st3" d="M196.1,51.9v13.4h13.7V51.9c-4.5-0.1-8.9-0.2-13.4-0.1C196.3,51.8,196.2,51.8,196.1,51.9L196.1,51.9
		L196.1,51.9L196.1,51.9z M200.7,62.8L200.7,62.8h-0.1v-0.5l0,0h0.1V62.8z M201.8,62.8L201.8,62.8l-0.3-0.3v0.3h-0.1v-0.1
		c0,0-0.1,0.1-0.2,0.1l0,0h-0.1c-0.2,0-0.3-0.1-0.3-0.3s0.1-0.3,0.3-0.3h0.1l0,0c0.1,0,0.2,0,0.2,0.1h0.1l0.2,0.3v-0.3h0.1V62.8z
		 M202.3,62.4h-0.2v0.1L202.3,62.4L202.3,62.4v0.2h-0.2v0.1h0.2v0.1H202v-0.5L202.3,62.4L202.3,62.4z M202,59.8h-0.4l0.5-0.7
		l-0.5-0.7h0.4h0.1l0.2,0.4l0.3-0.4h0.4l-0.4,0.7l0.4,0.7h-0.4l-0.3-0.4L202,59.8z M202.8,59l0.1-0.1h1.1V59v0.2h-1.1L202.8,59
		L202.8,59L202.8,59z M203.1,58.7H203l0.2-0.3h0.1h0.7v0.3H203.1z M203.2,61.3v0.2h-0.5v-0.9h0.2v0.7H203.2z M202.8,62.6
		c0.1,0.1,0,0.2-0.2,0.2h-0.2v-0.5h0.2C202.8,62.3,202.9,62.4,202.8,62.6C202.8,62.5,202.8,62.5,202.8,62.6L202.8,62.6z M203.3,62.8
		L203.3,62.8h-0.2v-0.5h0.1h0.1L203.3,62.8L203.3,62.8z M203.1,59.5h0.9v0.3h-0.7L203.1,59.5z M203.8,62.8L203.8,62.8l-0.3-0.3v0.3
		h-0.1v-0.5h0.1l0.2,0.3v-0.3h0.1V62.8z M204.4,62.4h-0.1v0.4h-0.1v-0.4H204v-0.1L204.4,62.4L204.4,62.4z M204.9,62.8h-0.1v-0.2
		h-0.2v0.2l0,0h-0.1v-0.5h0.1l0,0v0.2h0.2v-0.2h0.1V62.8z M205.4,62.4h-0.2v0.1L205.4,62.4L205.4,62.4v0.2h-0.2v0.1h0.2v0.1h-0.3
		l0,0v-0.5l0,0L205.4,62.4L205.4,62.4z M205.5,59.8h-0.3l-0.6-0.8v0.8l0,0h-0.3h-0.1v-1.4h0.1h0.3l0,0l0.6,0.9v-0.9h0.3V59.8z
		 M206.2,62.8v-0.5h0.1h0.1h0.1h0.1l-0.2,0.3l0.3,0.2h-0.2l0.1,0.1h-0.1l-0.1-0.1l0,0h-0.1v0.1L206.2,62.8L206.2,62.8z M205.7,62.3
		L205.7,62.3l0.1,0.3c0,0.1,0,0.1,0.1,0.1s0.1,0,0.1-0.1v-0.3h0.1l0,0v0.3c0,0.1-0.1,0.2-0.2,0.2c-0.1,0-0.2,0-0.2-0.2L205.7,62.3
		L205.7,62.3z M200.5,55h0.9l-0.6-1c-0.1-0.1,0-0.2,0.1-0.3s0.2,0,0.3,0.1l0.7,1.2h2l0.7-1.2l0,0c0.1-0.1,0.2-0.2,0.3-0.1
		c0,0,0.1,0,0.1,0.1c0.1,0.1,0.1,0.1,0,0.2l-0.6,1h1c0.1,0,0.2,0.1,0.2,0.2c0,0.1-0.1,0.2-0.2,0.2h-1.2l-1.1,1.9l0,0
		c0,0.1-0.1,0.1-0.2,0.1c-0.1,0-0.2,0-0.2-0.1l-1.1-1.9h-1.1c-0.1,0-0.2-0.1-0.2-0.2C200.3,55.1,200.4,55,200.5,55z M201,58.4
		c0.4,0,0.7,0.3,0.7,0.7s-0.3,0.7-0.7,0.7s-0.8-0.3-0.7-0.7C200.2,58.7,200.6,58.4,201,58.4z M199.7,62.3h0.3v0.1
		c0-0.1,0.1-0.2,0.2-0.2l0,0l0,0c0.1,0,0.2,0.1,0.2,0.2h-0.1h-0.1v-0.1c0,0,0,0,0,0.1c0,0,0,0,0.1,0.1l0,0c0,0,0.1,0,0.1,0.1
		c0.1,0,0.1,0.1,0.1,0.1c0,0.1-0.1,0.2-0.2,0.2c-0.1,0-0.2-0.1-0.2-0.2l0,0h0.1c-0.1-0.1-0.1-0.2-0.2-0.3L199.7,62.3l0.1,0.2h0.2
		l0,0v0.1h-0.2v0.1h0.2v0.1h-0.3V62.3z M199.1,62.3L199.1,62.3h0.2h0.1c0.1,0,0.2,0.1,0.2,0.3c0,0.1-0.1,0.1-0.1,0.2
		c0,0.1-0.1,0.1-0.2,0.1h-0.2V62.3z"/>
	<path class="st3" d="M200.3,62.7L200.3,62.7h-0.1C200.2,62.7,200.3,62.8,200.3,62.7z"/>
	<path class="st3" d="M202.7,62.6c0-0.1,0-0.2-0.1-0.2h-0.1v0.3h0.1C202.7,62.7,202.7,62.6,202.7,62.6z"/>
	<polygon class="st3" points="203.6,55.4 202.1,55.4 202.8,56.8 	"/>
	<path class="st3" d="M201,59.5c0.2,0,0.4-0.2,0.4-0.4s-0.2-0.4-0.4-0.4s-0.4,0.2-0.4,0.4S200.8,59.5,201,59.5z"/>
	<polygon class="st4" points="209.9,65.5 209.9,52 209.9,51.9 209.8,51.9 	"/>
	<polygon class="st4" points="196.1,65.3 196.1,51.9 196,51.9 196,65.3 196,65.5 209.9,65.5 196.1,65.4 	"/>
	<path class="st5" d="M201,59.8c0.4,0,0.7-0.3,0.7-0.7s-0.3-0.7-0.7-0.7s-0.7,0.3-0.7,0.7C200.2,59.5,200.6,59.8,201,59.8z
		 M201,58.7c0.2,0,0.4,0.2,0.4,0.4s-0.2,0.4-0.4,0.4s-0.4-0.2-0.4-0.4S200.8,58.7,201,58.7z"/>
	<polygon class="st5" points="203,59.8 202.6,59.1 203,58.4 202.6,58.4 202.3,58.8 202.1,58.4 202,58.4 201.6,58.4 202.1,59.1 
		201.6,59.8 202,59.8 202.3,59.4 202.6,59.8 	"/>
	<polygon class="st5" points="205.2,59.3 204.6,58.4 204.6,58.4 204.3,58.4 204.2,58.4 204.2,59.8 204.3,59.8 204.6,59.8 
		204.6,59.8 204.6,59 205.2,59.8 205.5,59.8 205.5,58.4 205.2,58.4 	"/>
	<polygon class="st5" points="204,58.4 203.3,58.4 203.1,58.7 204,58.7 	"/>
	<polygon class="st5" points="204,59.5 203.1,59.5 203.3,59.8 204,59.8 	"/>
	<polygon class="st5" points="202.9,59.2 204,59.2 204,59 202.9,59 202.8,59.1 202.8,59.1 	"/>
	<path class="st5" d="M200.3,55.2c0,0.1,0.1,0.2,0.2,0.2h1.1l0,0l1.1,1.9c0,0.1,0.1,0.1,0.2,0.1c0.1,0,0.1,0,0.2-0.1l0,0l1.1-1.9
		h1.2c0.1,0,0.2-0.1,0.2-0.2c0-0.1-0.1-0.2-0.2-0.2h-1l0.6-1c0.1-0.1,0-0.1,0-0.2c0,0,0-0.1-0.1-0.1c-0.1-0.1-0.2,0-0.3,0.1l0,0
		l-0.7,1.2h-2l-0.7-1.2c-0.1-0.1-0.2-0.1-0.3-0.1c-0.1,0.1-0.1,0.2-0.1,0.3l0.6,1h-0.9C200.4,55,200.3,55.1,200.3,55.2z M202.1,55.4
		h1.5l-0.8,1.4l-0.8-1.4H202.1z"/>
	<path class="st5" d="M199.3,62.4c0.1,0,0.1,0.1,0.1,0.2v0.1c0,0.1,0,0.1-0.1,0.1h0.1c0,0,0,0,0.1,0s0.1-0.1,0.1-0.2
		c0-0.2-0.1-0.3-0.2-0.3L199.3,62.4L199.3,62.4L199.3,62.4L199.3,62.4z"/>
	<polygon class="st5" points="200,62.7 199.8,62.7 199.8,62.6 200,62.6 200,62.5 199.8,62.5 199.8,62.5 199.8,62.4 200,62.4 
		200,62.3 199.7,62.3 199.7,62.8 200,62.8 	"/>
	<path class="st5" d="M200.3,62.6L200.3,62.6c0.1,0.1,0.1,0.1,0.1,0.1S200.4,62.7,200.3,62.6C200.3,62.8,200.2,62.7,200.3,62.6
		l-0.2,0.1l0,0c0,0.1,0.1,0.2,0.2,0.2c0.1,0,0.2-0.1,0.2-0.2C200.5,62.6,200.4,62.6,200.3,62.6C200.4,62.5,200.3,62.5,200.3,62.6
		L200.3,62.6c-0.1-0.1-0.2-0.1-0.2-0.1l0,0c0,0,0,0,0-0.1l0,0c0,0,0,0,0-0.1c0,0,0,0,0.1,0l0,0c0,0,0,0,0,0.1h0.1c0,0,0,0,0-0.1
		s-0.1-0.1-0.1-0.1l0,0c-0.1,0-0.2,0.1-0.2,0.2C200.1,62.5,200.1,62.6,200.3,62.6L200.3,62.6z"/>
	<rect x="200.6" y="62.3" class="st5" width="0.1" height="0.5"/>
	<path class="st5" d="M201.7,62.6l-0.2-0.3h-0.1v0.2h-0.1h-0.2h0.1h0.1l0,0l0,0c0,0.1-0.1,0.1-0.1,0.1l0,0c-0.1,0-0.1,0-0.1-0.1
		v-0.1l0,0c0-0.1,0.1-0.1,0.1-0.2c0,0,0,0,0.1,0c0,0,0,0,0.1,0c0,0,0,0,0,0.1l0.1-0.1c0-0.1-0.1-0.1-0.2-0.1l0,0
		c-0.2,0-0.3,0.1-0.3,0.3l0,0l0,0c0,0.1,0.1,0.2,0.2,0.3c0,0,0,0,0.1,0c0,0,0,0,0.1,0l0,0C201.5,62.7,201.6,62.7,201.7,62.6
		l-0.1,0.1h0.1v-0.3l0.2,0.3h0.1v-0.5h-0.1v0.4H201.7z"/>
	<polygon class="st5" points="202,62.8 202.3,62.8 202.3,62.7 202.1,62.7 202.1,62.6 202.3,62.6 202.3,62.5 202.1,62.5 202.1,62.5 
		202.1,62.4 202.3,62.4 202.3,62.3 202,62.3 	"/>
	<path class="st5" d="M202.6,62.3h-0.2v0.5h0.2c0.2,0,0.2-0.1,0.2-0.2l0,0C202.9,62.4,202.8,62.3,202.6,62.3z M202.6,62.7h-0.1v-0.3
		h0.1c0.1,0,0.1,0.1,0.1,0.2C202.7,62.6,202.7,62.6,202.6,62.7C202.7,62.7,202.7,62.7,202.6,62.7z"/>
	<rect x="203.1" y="62.3" class="st5" width="0.1" height="0.5"/>
	<polygon class="st5" points="203.7,62.6 203.5,62.3 203.4,62.3 203.4,62.8 203.5,62.8 203.5,62.5 203.7,62.8 203.8,62.8 
		203.8,62.3 203.7,62.3 	"/>
	<polygon class="st5" points="204,62.4 204.2,62.4 204.2,62.8 204.3,62.8 204.3,62.4 204.4,62.4 204.4,62.3 204,62.3 	"/>
	<polygon class="st5" points="204.8,62.5 204.6,62.5 204.6,62.3 204.6,62.3 204.5,62.3 204.5,62.8 204.6,62.8 204.6,62.8 
		204.6,62.6 204.8,62.6 204.8,62.8 204.9,62.8 204.9,62.3 204.8,62.3 	"/>
	<polygon class="st5" points="205.1,62.8 205.4,62.8 205.4,62.7 205.2,62.7 205.2,62.6 205.4,62.6 205.4,62.5 205.2,62.5 
		205.2,62.5 205.2,62.4 205.4,62.4 205.4,62.3 205.1,62.3 	"/>
	<path class="st5" d="M205.9,62.8c0.1,0,0.2-0.1,0.2-0.2v-0.3H206v0.3c0,0.1,0,0.1-0.1,0.1s-0.1,0-0.1-0.1v-0.3h-0.1v0.3
		C205.7,62.8,205.8,62.8,205.9,62.8z"/>
	<polygon class="st5" points="206.5,62.8 206.5,62.8 206.7,62.8 206.4,62.6 	"/>
	<polygon class="st5" points="206.4,62.8 206.4,62.8 206.4,62.7 206.4,62.6 206.6,62.3 206.5,62.3 206.4,62.5 206.4,62.4 
		206.4,62.3 206.3,62.3 206.2,62.3 206.2,62.8 206.3,62.8 	"/>
	<polygon class="st5" points="202.7,60.6 202.7,61.5 203.2,61.5 203.2,61.3 202.9,61.3 202.9,60.6 	"/>
	<path class="st6" d="M214.5,46.9c-18.1-0.7-37.1,0.9-50.3,2.7c1.2,1.1,2.6,2.2,4,3.3l0.5,0.4l0.1,0.1c7.1-1.9,18.5-2.3,30.4-2.3
		c0.9,0,1.8,0,2.7,0c1,0,1.9,0,2.9,0c6.8,0.1,13.6,0.2,19.6,0.6c0.9,0.1,1.8,0.1,2.7,0.2c2.3,0.2,4.5,0.4,6.5,0.7
		c1.5,0.2,2.9,0.4,4.4,0.7c0.1,0,0.2,0,0.2,0h0.1l0.6-0.5c1-0.8,2-1.6,3-2.4c-7.2-1.7-15.3-2.7-23.7-3.2
		C217,47,215.7,46.9,214.5,46.9z M185.5,49.1C185.5,49.1,185.6,49.1,185.5,49.1c0,0.1,0.1,0.3,0.1,0.4c-0.8,0-1.5,0.1-2.3,0.1
		c-0.1-0.1-0.2-0.1-0.3-0.2c0-0.1,0.1-0.1,0-0.2C183.9,49.2,184.7,49.2,185.5,49.1L185.5,49.1z M183.6,48.4c0.6,0,1-0.1,1.6-0.1l0,0
		h0.1c0,0.1,0.1,0.3,0.1,0.4c-0.6,0.2-1.3,0.2-2,0.2l0,0h-0.1C183.5,48.7,183.6,48.6,183.6,48.4z M173.6,50.3c-0.5,0-1,0.1-1.5,0.1
		c-0.3,0.7-0.5,1.2-0.7,1.8c0,0,0,0.1-0.1,0.1s-0.1,0-0.2,0c-0.6-0.5-1.3-1-1.9-1.5c-0.4,0-0.8,0.1-1.3,0.1
		c-0.1-0.1-0.2-0.1-0.3-0.2c-0.1,0-0.1-0.1-0.1-0.1c-0.1-0.1,0-0.2,0.2-0.2c0.4-0.1,0.8-0.1,1.1-0.2c-0.3-0.2-0.6-0.4-0.9-0.7
		c-0.1,0-0.1,0-0.1-0.1l0,0c-0.1,0-0.1-0.1,0-0.2c0.1,0,0.2,0,0.3,0.1c0.4,0.3,0.8,0.7,1.2,1c0.8,0,1.6-0.2,2.4-0.2
		c0.2-0.4,0.3-0.8,0.4-1.1c0-0.1,0.1-0.2,0.3-0.2c0.1,0,0.1,0.1,0.2,0.1c0.1,0,0.1,0.1,0.1,0.2c-0.2,0.2-0.2,0.5-0.3,0.8
		c0.3,0,0.7,0,1-0.1c0.1,0,0.2,0.1,0.3,0.1s0.2,0.1,0.2,0.2C174,50.3,173.8,50.3,173.6,50.3z M179.6,51c-0.8,0.1-1.7-0.4-1.9-1
		c-0.1-0.1-0.1-0.2-0.1-0.3c-0.1-0.5,0.5-0.9,1.3-1c0.9-0.1,1.7,0.4,1.9,1c0,0.1,0,0.2,0,0.3C180.9,50.4,180.3,50.9,179.6,51z
		 M182.9,50.6L182.9,50.6h-0.1c-0.2-0.2-0.4-0.4-0.6-0.6c-0.1,0.1-0.3,0.4-0.4,0.6c-0.2,0.1-0.6,0-0.8,0.1l0,0h-0.1
		c0.3-0.4,0.4-0.7,0.7-1.1c-0.4-0.4-0.9-0.6-1.3-1c0.1,0,0.3,0,0.4,0c0.1,0,0.2,0,0.4,0c0.1,0,0.1,0,0.2,0l0,0h0.1
		c0.2,0.2,0.4,0.4,0.5,0.5c0.1-0.2,0.3-0.4,0.4-0.5c0.1,0,0.2,0,0.3,0s0.2,0,0.4,0c0.1,0,0.1,0,0.2,0l0,0h0.1
		c-0.3,0.4-0.6,0.8-0.7,1c0.4,0.4,0.9,0.7,1.3,1.1C183.5,50.6,183.3,50.5,182.9,50.6z M185.7,50.4c-0.4,0-1,0.1-1.5,0.1
		c-0.2-0.1-0.3-0.2-0.4-0.5c0.6,0,1.2-0.1,1.9-0.1C185.7,50,185.8,50.2,185.7,50.4C185.8,50.3,185.7,50.3,185.7,50.4
		C185.7,50.3,185.7,50.4,185.7,50.4z M188.9,50.2c-0.2-0.1-0.5,0-0.7,0c-0.6-0.4-1-0.8-1.5-1.2l0,0c0.1,0.4,0.2,0.8,0.2,1.2
		c-0.2,0-0.5,0.1-0.7,0c-0.1-0.6-0.2-1.3-0.4-2.1c0.2,0,0.5-0.1,0.7,0c0.5,0.4,1,0.7,1.5,1.2c-0.1-0.4-0.2-0.8-0.2-1.2
		c0.2,0,0.5,0,0.8-0.1C188.7,48.7,188.8,49.4,188.9,50.2C188.9,50.1,188.9,50.1,188.9,50.2C188.9,50.1,188.9,50.2,188.9,50.2z
		 M198.6,48.8c-0.1,0-0.1,0-0.1,0s0,0-0.1,0c-0.5,0-0.9,0.1-1.3,0c-0.4,0.6-0.7,1.1-1.1,1.7c-0.1,0.1-0.1,0.1-0.2,0.1h-0.1h-0.1
		c-0.1,0-0.2-0.1-0.2-0.1c-0.4-0.5-1-1.1-1.4-1.6c-0.3,0-0.7,0.1-1.1,0h-0.1l0,0c-0.1,0.1-0.2,0-0.2-0.1s0.1-0.2,0.2-0.2
		c0.3,0,0.7-0.1,1,0c-0.2-0.3-0.5-0.5-0.8-0.8c-0.1,0-0.1-0.1,0-0.2c0.1-0.1,0.2-0.1,0.2,0c0.1-0.1,0.2-0.1,0.2,0
		c0.3,0.5,0.7,0.8,1,1.1c0.7-0.1,1.5-0.1,2.2-0.1c0.2-0.4,0.5-0.7,0.7-1.1c0.1-0.1,0.2-0.1,0.3-0.1l0,0c0.1,0,0.1,0,0.2,0
		c0.1,0,0.1,0.1,0.1,0.2c-0.1,0.3-0.4,0.6-0.6,0.8c0.3,0,0.6,0,0.9,0l0,0c0.1,0,0.1,0,0.2,0c0.1,0,0.2,0.1,0.4,0.2
		C198.8,48.7,198.7,48.8,198.6,48.8z M203.8,49.9c-0.8,0-1.5-0.5-1.5-1.1c0-0.7,0.7-1.1,1.6-1.1c0.9,0.1,1.6,0.5,1.5,1.2
		C205.2,49.5,204.7,49.9,203.8,49.9z M208.2,50.1c-0.3,0-0.5,0-0.9,0c-0.2-0.3-0.4-0.5-0.6-0.7c-0.1,0.1-0.2,0.2-0.3,0.3
		s-0.2,0.2-0.4,0.3c-0.3,0-0.6,0-0.9,0l0,0l0,0c0.2-0.2,0.3-0.3,0.5-0.5s0.3-0.3,0.5-0.5l0,0c-0.4-0.4-0.6-0.8-0.9-1.1
		c0.3,0,0.6,0,0.9,0c0.1,0.2,0.3,0.3,0.4,0.5l0.1,0.1c0.2-0.2,0.3-0.4,0.6-0.6c0.3,0,0.6,0,0.9,0c-0.3,0.3-0.7,0.6-0.8,1.1
		C207.7,49.3,207.9,49.7,208.2,50.1C208.3,50.1,208.2,50.1,208.2,50.1z M210.1,49.6c0,0.1,0,0.2,0,0.3V50c-0.5,0.1-1,0-1.5,0
		c-0.1-0.2-0.3-0.3-0.5-0.4c0.1,0,0.1,0,0.2,0c-0.1,0-0.1-0.1-0.2-0.1C208.8,49.5,209.4,49.6,210.1,49.6
		C210.1,49.5,210.1,49.6,210.1,49.6z M210.1,49.2H210c-0.8,0.1-1.5,0-2.3,0c-0.1-0.1-0.1-0.2-0.2-0.3c0.1-0.1,0.1-0.1,0.2-0.2h0.1
		l0,0c0.8,0,1.6,0,2.3,0.1C210.1,48.9,210.1,49.1,210.1,49.2z M210.3,48.2h-0.1v0.1c-0.6,0-1.3-0.1-2,0l0.1-0.1h-0.1
		c0.1-0.1,0.3-0.3,0.4-0.4c0.5,0,1.1,0.1,1.7,0C210.3,47.9,210.3,48.1,210.3,48.2z M213.6,48.2c-0.1,0.7-0.1,1.4-0.2,2.1
		c-0.2-0.1-0.5-0.1-0.7-0.1c-0.5-0.4-0.8-0.8-1.2-1.3c-0.1,0.4-0.1,0.8-0.2,1.2c-0.2-0.1-0.5-0.1-0.7-0.1c-0.1-0.7,0-1.4,0.1-2
		c0-0.1,0-0.1,0-0.2c0.2,0.1,0.5,0.1,0.7,0.1c0.5,0.5,0.8,0.9,1.2,1.3c0.1-0.5,0.1-0.9,0.2-1.3c0.2,0,0.5,0.1,0.8,0.1
		C213.6,48.1,213.6,48.1,213.6,48.2L213.6,48.2z M234.4,51.7c-0.5-0.1-1-0.2-1.5-0.2c-0.2-0.2-0.2-0.3-0.3-0.4
		c0.7,0.1,1.4,0.1,2,0.2C234.5,51.4,234.5,51.6,234.4,51.7z M234.7,50.9c-0.7-0.2-1.6-0.2-2.3-0.3c-0.1-0.1-0.2-0.2-0.2-0.3
		c0.1,0,0.1-0.1,0.2-0.1c0.8,0,1.7,0.2,2.4,0.2v0.1h0.1C234.8,50.6,234.8,50.8,234.7,50.9z M236.4,49.6c0.2,0.6,0.6,1,0.8,1.5
		c0.2-0.3,0.3-0.8,0.5-1.2c0.2,0,0.5,0.1,0.8,0V50l0,0c-0.3,0.7-0.6,1.4-0.9,2.1c-0.2-0.1-0.3-0.1-0.6-0.1c-0.3-0.6-0.5-1.1-0.8-1.5
		c-0.2,0.3-0.3,0.8-0.5,1.2c-0.2-0.1-0.5,0-0.7,0c0-0.1,0-0.1,0.1-0.2c0,0,0,0-0.1,0c0.2-0.7,0.6-1.4,0.8-2.1
		C235.9,49.6,236.2,49.6,236.4,49.6z M235.2,49.5C235.2,49.5,235.2,49.6,235.2,49.5C235.2,49.6,235.2,49.6,235.2,49.5
		c-0.1,0.2-0.1,0.4-0.2,0.5c-0.7-0.1-1.3-0.2-2-0.2l0.1-0.1c-0.1,0-0.1,0-0.2,0c0.2-0.1,0.4-0.3,0.6-0.4
		C234.1,49.5,234.7,49.4,235.2,49.5z M231.1,49.1c0.1,0.2,0.2,0.5,0.3,0.6c0.2-0.1,0.5-0.4,0.7-0.5c0.2,0.1,0.6,0.1,0.9,0.1
		c0,0-0.1,0-0.1,0.1h0.1c-0.4,0.2-0.9,0.5-1.3,0.8c0.3,0.4,0.5,0.8,0.7,1.1c0,0,0,0-0.1,0c0,0,0,0.1,0.1,0.1c-0.2,0-0.6,0-0.8-0.1
		c-0.1-0.2-0.2-0.4-0.4-0.7c-0.4,0.2-0.6,0.4-0.9,0.6c-0.2,0-0.6,0-0.8-0.1c0,0,0.1,0,0.1-0.1h-0.1c0.4-0.3,1-0.7,1.4-0.9
		c-0.2-0.4-0.5-0.7-0.7-1.1C230.5,49,230.8,49,231.1,49.1z M227,49.8c0.2-0.5,0.9-0.9,1.9-0.9c0.8,0.2,1.4,0.7,1.2,1.2
		c-0.1,0.5-0.8,0.9-1.6,0.9c-0.1,0-0.2,0-0.3,0C227.4,50.9,226.8,50.4,227,49.8z M219.2,48.9c0.8,0,1.5,0.1,2.3,0.1
		c0.3-0.3,0.7-0.7,1-1c0.1-0.1,0.1-0.1,0.2,0c0.1,0,0.1,0,0.2,0c0.1,0,0.1,0.1,0,0.2c-0.4,0.2-0.7,0.6-1,0.8l0,0c0.1,0,0.1,0,0.2,0
		c0.3,0,0.6,0,0.9,0.1c0.1,0,0.1,0.1,0.1,0.2c0,0.1-0.1,0.2-0.2,0.3h-0.1l0,0c-0.5,0-0.9-0.1-1.3-0.1c-0.5,0.6-1.1,1-1.6,1.6h-0.1
		h-0.1c0,0,0,0-0.1,0c0,0-0.1,0-0.1-0.1c-0.3-0.6-0.7-1.1-1-1.7c-0.4-0.1-0.8,0-1.3-0.1c-0.1,0-0.2-0.1-0.2-0.2
		c0-0.1,0.1-0.1,0.2-0.1l0,0c0,0,0,0,0.1,0c0.3,0.1,0.5,0,0.9,0.1c-0.2-0.4-0.4-0.7-0.5-1c-0.1-0.1,0-0.2,0.1-0.2h0.1l0,0
		c0.1,0,0.4,0,0.5,0.1C218.8,48.1,218.9,48.5,219.2,48.9z"/>
	<path class="st6" d="M228.3,50.6c0.5,0,0.9-0.2,1-0.6c0.1-0.4-0.1-0.7-0.6-0.7s-0.9,0.3-1,0.6C227.5,50.3,227.8,50.6,228.3,50.6z"
		/>
	<path class="st6" d="M203.9,48.2c-0.5,0-0.8,0.3-0.8,0.6s0.3,0.6,0.8,0.6c0.4,0,0.8-0.2,0.8-0.6C204.7,48.5,204.3,48.2,203.9,48.2z
		"/>
	<path class="st6" d="M179.1,49.2c-0.4,0-0.6,0.2-0.7,0.5v0.1c0.1,0.4,0.5,0.6,1,0.6c0.3,0,0.6-0.3,0.7-0.6
		C179.9,49.4,179.6,49.1,179.1,49.2z"/>
	<path class="st6" d="M170.8,51.4c0.1,0.1,0.3,0.2,0.4,0.3c0.1-0.4,0.3-0.9,0.4-1.3c-0.6,0.1-1.1,0.2-1.7,0.2
		C170.2,50.9,170.5,51.1,170.8,51.4z"/>
	<path class="st6" d="M194.4,48.9c0.4,0.4,0.8,0.7,1.1,1.2c0.3-0.5,0.5-0.9,0.7-1.2C195.7,48.9,195,48.8,194.4,48.9z"/>
	<path class="st6" d="M220.1,50.1c0.3-0.3,0.6-0.6,0.8-0.8c-0.5,0-1.2,0-1.9-0.1c0.3,0.3,0.4,0.8,0.7,1.2
		C219.9,50.3,220,50.2,220.1,50.1z"/>
	<path class="st7" d="M164,49.4c13.2-1.8,32.2-3.4,50.4-2.7C196.2,46.1,177.2,47.6,164,49.4l0.1,0.1c13.2-1.8,32.1-3.3,50.3-2.7
		c1.3,0,2.5,0.1,3.7,0.2c8.5,0.5,16.7,1.5,23.9,3.2c0.2-0.2,0.4-0.3,0.6-0.5l0.2-0.1c-23.9-5.9-59.1-3.6-79.5-0.8
		C163.5,49,163.8,49.2,164,49.4z"/>
	<path class="st7" d="M233.6,52.6c-2-0.3-4.2-0.5-6.5-0.7c-0.9-0.1-1.8-0.1-2.7-0.2c-6-0.4-12.8-0.5-19.6-0.6c-1,0-1.9,0-2.9,0
		c-0.9,0-1.8,0-2.7,0c-11.9,0-23.3,0.4-30.4,2.3l0.3,0.2c0.2,0.2,0.4,0.3,0.6,0.5l0.1,0.1c6.4-1.4,16-2.2,26.2-2.4h0.1
		c0.1,0,0.2,0,0.3,0c4.4-0.1,9-0.1,13.5,0.1h0.1c10.5,0.3,20.3,1.1,27.1,2.3c0,0,0,0,0.1-0.1c0.2-0.1,0.5-0.3,0.7-0.5l0.3-0.3
		c-0.1,0-0.1,0-0.2,0C236.5,53,235.1,52.8,233.6,52.6z"/>
	<path class="st8" d="M173.7,49.9c-0.1,0-0.1,0-0.2,0c-0.4,0-0.8,0-1.2,0.1c0,0,0-0.1,0.1-0.1c0.1-0.3,0.2-0.6,0.3-0.8
		c0-0.1-0.1-0.1-0.1-0.2c0,0,0,0-0.1,0s-0.2,0.1-0.3,0.2c-0.2,0.4-0.3,0.8-0.4,1.1c-0.8,0-1.6,0.2-2.4,0.2c-0.4-0.3-0.8-0.7-1.2-1
		c-0.1-0.1-0.2,0-0.3-0.1l-0.1,0.1c0,0.1,0,0.1,0.1,0.1c0.3,0.3,0.6,0.5,0.9,0.7l0.1,0.1c-0.4,0-0.7,0-1.1,0.2c-0.1,0-0.3,0-0.2,0.2
		l0,0c0.1,0.1,0.2,0.1,0.3,0.2c0.5,0,0.9-0.1,1.3-0.1c0.6,0.5,1.3,1,1.9,1.5c0.1,0,0.1,0,0.2,0c0.1,0,0.1-0.1,0.1-0.1
		c0.2-0.6,0.4-1.1,0.7-1.8c0.5,0,1-0.1,1.5-0.1c0.2,0,0.4,0,0.3-0.2C173.8,50,173.7,49.9,173.7,49.9z M171.6,50.4
		c-0.1,0.4-0.3,0.9-0.4,1.3c-0.1-0.1-0.2-0.2-0.4-0.3c-0.3-0.3-0.7-0.5-1-0.8C170.4,50.5,171,50.4,171.6,50.4L171.6,50.4z"/>
	<path class="st8" d="M178.9,48.7c-0.8,0.1-1.3,0.5-1.3,1c0,0.1,0,0.1,0.1,0.2c0.1,0.6,1,1.1,1.9,1c0.7,0,1.2-0.4,1.2-0.9
		c0-0.1,0-0.2,0-0.3C180.6,49.1,179.8,48.6,178.9,48.7z M180.1,49.8c-0.1,0.3-0.3,0.6-0.7,0.6c-0.5,0-0.9-0.2-1-0.6v-0.1
		c0-0.3,0.3-0.6,0.7-0.6c0.5,0,0.8,0.2,1,0.5C180.1,49.7,180.1,49.7,180.1,49.8z"/>
	<path class="st8" d="M183.2,48.4h-0.1c-0.1,0-0.1,0-0.2,0c-0.1,0-0.3,0-0.4,0c-0.1,0-0.2,0-0.2,0c-0.1,0.2-0.3,0.5-0.4,0.6
		c0,0,0,0-0.1-0.1c-0.2-0.2-0.4-0.4-0.5-0.5h-0.1c-0.1,0-0.1,0-0.2,0c-0.1,0-0.3,0-0.4,0c-0.1,0-0.2,0-0.3,0c0.4,0.4,0.9,0.6,1.3,1
		c-0.3,0.4-0.4,0.7-0.7,1.1l0,0c0.2-0.1,0.6,0,0.8-0.1c0.1-0.2,0.3-0.4,0.4-0.6l0,0c0.2,0.2,0.5,0.4,0.7,0.6l0,0
		c0.4-0.1,0.6,0,0.9-0.1c-0.4-0.4-0.9-0.7-1.3-1.1C182.6,49.2,182.9,48.8,183.2,48.4z"/>
	<path class="st8" d="M187.8,48.1c0.1,0.4,0.2,0.8,0.2,1.2c-0.5-0.5-1-0.8-1.5-1.2c-0.2,0-0.5,0.1-0.7,0c0.2,0.7,0.3,1.4,0.4,2.1
		c0.2,0,0.5-0.1,0.7,0c-0.1-0.4-0.2-0.8-0.2-1.2l0,0l0,0c0.5,0.4,1,0.8,1.5,1.2c0.2,0,0.5-0.1,0.7,0v-0.1c-0.1-0.7-0.2-1.3-0.3-2
		C188.3,48.2,188.1,48.1,187.8,48.1z"/>
	<path class="st8" d="M183.4,48.9L183.4,48.9c0.7,0,1.4,0,2-0.2c0-0.1-0.1-0.3-0.1-0.4h-0.1c-0.5,0-0.9,0.1-1.5,0.1
		C183.7,48.6,183.6,48.7,183.4,48.9z"/>
	<path class="st8" d="M183.8,50c0.1,0.2,0.2,0.3,0.4,0.5c0.5,0,1.1-0.1,1.5-0.1v-0.1c0-0.1-0.1-0.2-0.1-0.3
		C185,49.9,184.4,50,183.8,50z"/>
	<path class="st8" d="M183,49.4c0.1,0.1,0.2,0.1,0.3,0.2c0.8,0,1.5-0.1,2.3-0.1c0-0.1-0.1-0.3-0.1-0.4l0,0c-0.8,0.1-1.6,0.1-2.5,0.1
		C183.1,49.3,183,49.3,183,49.4z"/>
	<path class="st8" d="M205.4,48.9c0.1-0.7-0.6-1.1-1.5-1.2c-0.9,0-1.6,0.4-1.6,1.1c0,0.6,0.7,1.1,1.5,1.1
		C204.7,49.9,205.2,49.5,205.4,48.9z M203.9,49.4c-0.5,0-0.8-0.3-0.8-0.6s0.3-0.6,0.8-0.6s0.8,0.3,0.8,0.6
		C204.7,49.2,204.3,49.4,203.9,49.4z"/>
	<path class="st8" d="M207.2,49c0.2-0.5,0.5-0.8,0.9-1.1c-0.3,0-0.6,0-0.9,0c-0.2,0.2-0.3,0.4-0.6,0.6c0,0-0.1-0.1-0.1-0.2
		c-0.1-0.1-0.3-0.3-0.4-0.5c-0.3,0-0.6,0-0.9,0c0.3,0.3,0.6,0.7,0.9,1.1l0,0l0,0c-0.2,0.1-0.3,0.3-0.5,0.5s-0.3,0.3-0.5,0.5l0,0
		c0.3,0,0.6,0,0.9,0c0.1-0.1,0.2-0.2,0.4-0.3c0.1-0.1,0.2-0.2,0.3-0.3c0.2,0.2,0.4,0.4,0.6,0.7c0.4,0,0.6,0,0.9,0
		C207.8,49.7,207.6,49.3,207.2,49z"/>
	<path class="st8" d="M212.8,48.1c-0.1,0.3-0.1,0.7-0.2,1.2c-0.4-0.5-0.7-0.9-1.2-1.3c-0.2,0-0.5,0-0.7-0.1c0,0,0,0,0,0.1
		c-0.1,0.7-0.2,1.4-0.1,2c0.2,0,0.5,0,0.7,0.1c0.1-0.4,0.1-0.8,0.2-1.2c0.4,0.5,0.7,0.9,1.2,1.3c0.2,0,0.5,0,0.7,0.1
		c0.1-0.7,0.1-1.4,0.2-2.1l0,0C213.3,48.1,213,48,212.8,48.1z"/>
	<path class="st8" d="M208.6,47.8c-0.1,0.1-0.3,0.3-0.4,0.4h0.1c0.6,0,1.3,0.1,1.9,0h0.1c0-0.1,0-0.3,0-0.4
		C209.7,47.9,209.1,47.8,208.6,47.8z"/>
	<path class="st8" d="M208.3,49.6c-0.1,0-0.1,0-0.2,0c0.2,0.1,0.4,0.2,0.5,0.4c0.5,0,1,0.1,1.5,0v-0.1c0-0.1,0-0.2,0-0.3
		C209.5,49.6,208.9,49.5,208.3,49.6z"/>
	<path class="st8" d="M207.8,48.7C207.8,48.7,207.7,48.7,207.8,48.7c-0.2,0.1-0.2,0.1-0.3,0.2c0.1,0.1,0.1,0.2,0.2,0.3
		c0.8,0,1.5,0.1,2.3,0c0-0.1,0-0.3,0-0.4C209.3,48.7,208.6,48.7,207.8,48.7z"/>
	<path class="st8" d="M198.2,48.4c-0.3,0-0.7,0-0.9,0.1c0,0,0,0,0-0.1c0.2-0.3,0.5-0.6,0.6-0.8c0-0.1,0-0.2-0.1-0.2s-0.1,0-0.2,0
		c0,0-0.1,0-0.1,0.1c-0.2,0.4-0.5,0.7-0.7,1.1c-0.8,0-1.6,0-2.4,0.1l0,0c-0.3-0.3-0.7-0.6-1-1.1c-0.1-0.1-0.2-0.1-0.2,0
		c0,0,0,0-0.1,0c-0.1,0.1-0.1,0.2,0,0.2c0.2,0.3,0.5,0.5,0.8,0.8c-0.3,0-0.7,0.1-1,0c-0.1,0-0.2,0.1-0.2,0.2v0.1h0.1l0,0
		c0.4,0,0.8,0,1.1,0c0.1,0,0.1,0,0.2,0c0.4,0.5,1,1.1,1.4,1.6c0,0,0.1,0,0.1,0.1h0.1c0.1,0,0.1,0,0.2-0.1c0.4-0.6,0.7-1.1,1.1-1.7
		l0,0c0.5,0,0.8-0.1,1.4,0h0.1c0.1,0,0.2-0.1,0.2-0.2c-0.2-0.1-0.3-0.2-0.4-0.2C198.3,48.4,198.3,48.4,198.2,48.4z M195.5,50.1
		c-0.3-0.4-0.7-0.7-1.1-1.2c0.6-0.1,1.3,0,1.8,0C196,49.2,195.8,49.6,195.5,50.1z"/>
	<path class="st8" d="M228.2,51c0.1,0,0.2,0,0.3,0c0.7,0,1.4-0.4,1.6-0.9c0.2-0.5-0.4-1-1.2-1.2c-0.9,0-1.7,0.4-1.9,0.9
		C226.8,50.4,227.4,50.9,228.2,51z M227.7,49.9c0.1-0.3,0.5-0.6,1-0.6s0.7,0.3,0.6,0.7c-0.1,0.4-0.5,0.6-1,0.6
		S227.5,50.3,227.7,49.9z"/>
	<path class="st8" d="M231.4,49.8c-0.1-0.2-0.2-0.5-0.3-0.6c-0.2-0.1-0.6-0.1-0.8-0.1c0.2,0.4,0.5,0.7,0.7,1.1
		c-0.5,0.2-0.9,0.5-1.4,0.8c0,0-0.1,0-0.1,0.1c0.2,0.1,0.6,0.1,0.8,0.1c0.3-0.2,0.5-0.4,0.9-0.6c0.2,0.3,0.3,0.5,0.4,0.7
		c0.2,0.1,0.6,0.1,0.8,0.1c0,0,0-0.1-0.1-0.1c-0.2-0.4-0.4-0.7-0.6-1.1l0,0c0.4-0.3,0.9-0.6,1.3-0.8h-0.1c-0.2-0.1-0.5-0.1-0.8-0.1
		C231.9,49.4,231.6,49.7,231.4,49.8z"/>
	<path class="st8" d="M237.7,50c-0.2,0.4-0.3,0.9-0.5,1.2c-0.2-0.5-0.5-0.9-0.8-1.5c-0.2,0-0.5,0-0.6-0.1c-0.2,0.6-0.5,1.3-0.7,1.9
		c0,0.1,0,0.1-0.1,0.2c0.2,0,0.5-0.1,0.7,0c0.2-0.4,0.3-0.9,0.5-1.2c0.3,0.4,0.5,0.9,0.8,1.5c0.3,0,0.4,0,0.6,0.1
		c0.3-0.7,0.6-1.4,0.9-2.1l0,0C238.2,50.1,237.9,50,237.7,50z"/>
	<path class="st8" d="M233.1,49.7l-0.1,0.1c0.7,0,1.3,0.1,2,0.2c0.1-0.1,0.1-0.3,0.2-0.4l0,0c-0.5-0.1-1.1-0.1-1.6-0.2
		C233.4,49.5,233.3,49.6,233.1,49.7z"/>
	<path class="st8" d="M232.9,51.5c0.5,0,1,0.1,1.5,0.2c0.1-0.1,0.1-0.3,0.2-0.4c-0.6-0.1-1.3-0.1-2-0.2
		C232.8,51.2,232.8,51.3,232.9,51.5z"/>
	<path class="st8" d="M232.5,50.3c-0.2-0.1-0.1,0-0.3,0c0,0.1,0.1,0.2,0.2,0.3c0.7,0.1,1.6,0.1,2.3,0.3c0.1-0.1,0.1-0.3,0.2-0.4
		h-0.1C234.1,50.4,233.3,50.3,232.5,50.3z"/>
	<path class="st8" d="M218,47.8c-0.1,0-0.2,0.1-0.1,0.2c0.1,0.3,0.4,0.6,0.5,1h-0.1c-0.3-0.1-0.6,0-0.9-0.1c0,0,0,0-0.1,0
		s-0.1,0-0.1,0.1s0.1,0.2,0.2,0.2c0.5,0.1,0.9,0,1.3,0.1c0.3,0.6,0.7,1.1,1,1.7c0,0.1,0.1,0.1,0.1,0.1h0.1c0,0,0,0,0.1,0
		c0.5-0.6,1.1-1,1.6-1.6l0,0c0.5,0,0.9,0.1,1.3,0.1h0.1c0.1-0.1,0.2-0.2,0.2-0.3s0-0.2-0.1-0.2c-0.3-0.1-0.6-0.1-0.9-0.1
		c-0.1,0-0.2,0-0.2,0l0,0c0.3-0.2,0.6-0.6,1-0.8c0.1-0.1,0.1-0.2,0-0.2c-0.1-0.1-0.1-0.1-0.2,0h-0.1c-0.3,0.3-0.7,0.7-1,1h-0.1
		c-0.8,0-1.5-0.1-2.3-0.1c-0.3-0.4-0.4-0.8-0.7-1C218.4,47.8,218.1,47.8,218,47.8L218,47.8z M220.9,49.3c-0.2,0.2-0.5,0.5-0.8,0.8
		c-0.1,0.1-0.3,0.2-0.4,0.3c-0.3-0.4-0.4-0.9-0.7-1.2C219.7,49.3,220.4,49.3,220.9,49.3z"/>
	<path class="st1" d="M156.6,377.1c-3-0.8-5.8-1.7-8.6-2.5C150.7,375.5,153.6,376.3,156.6,377.1z"/>
	<path class="st1" d="M148,374.6c-1.4-0.5-2.8-1-4.3-1.4C145.1,373.7,146.6,374.1,148,374.6z"/>
	<path class="st1" d="M302.5,123.4c0-11.3-0.7-33.2-2-42.6c-0.8-6.1-2-13.9-2.7-18.7c-6.1-2.4-12.5-4.9-19.4-7.2l-0.9-0.3l0.3-0.9
		c0.8-2.4,2-7.5,1.1-13.9c-1.2-7.9-5.4-15.3-12.4-21.9c-0.1,0-0.1-0.1-0.2-0.1l-0.2-0.1l-0.1-0.2c-1.9-2.7-24.5-4.1-67.2-4.1
		c-30.2,0-47.5,0.7-54.5,2.3l-0.3,0.1l-0.8,0.2c-2.4,0.7-2.5,1.3-2.6,1.8l-0.1,0.3l-0.2,0.2c-15.2,14.6-12.9,29.2-11.2,34.7l0.3,0.9
		l-0.9,0.3c-7.2,2.5-14.1,5-20.5,7.6c-0.7,4.8-1.9,12.9-2.8,19.1c-1.3,9.4-2,31.3-2,42.6s-2.8,18.1-2.8,18.1l1.7,11l-0.8,19.2
		l0.8,1.2l-0.3,23.6l-0.2,6.8l0.6,34.7l0.1,116.6v6.2c0,0.5,0.4,0.9,0.9,1l1,0.2h0.1h0.1c0.2,0.1,0.4,0.1,0.6,0.1
		c0.1,0,0.3,0,0.4,0.1h0.1c1,0.1,2.6,0.3,4.3,0.6c1.3,0.2,3.4,0.5,6.1,0.8h0.2h0.1c0.3,0.1,1.3,0.2,1.7,0.3c0.3,0.1,0.5,0.1,0.6,0.1
		c3.3,0.7,7.5,2.1,14.5,4.4c2,0.7,4.3,1.4,6.9,2.2c2.9,0.9,5.9,1.9,8.6,2.7c14.4,4.5,31.9,9,52.1,9c0.2,0,0.3,0,0.5,0s0.4,0,0.6,0
		s0.4,0,0.7,0c19.1-0.2,35.2-4.5,49.9-9.1c1.2-0.4,2.3-0.7,3.5-1.1c1.1-0.4,2.3-0.7,3.5-1.1c5.3-1.7,15.3-4.7,21.1-6.3h0.1h0.1
		c8.9-0.7,15.2-1.4,19-1.9l2.4-0.4c0.2,0,0.2-0.1,0.2-0.1s0.1-0.1,0.1-0.7l0.7-124.9l0.2-52.3l0,0l0.4-11.5l0.8-1.2l-0.8-19.2
		l1.7-11C305.3,141.5,302.5,134.7,302.5,123.4z M242.8,49.6C242.8,49.6,242.9,49.6,242.8,49.6l-0.1,0.1c-0.2,0.2-0.4,0.3-0.6,0.5
		c-0.1,0.1-0.1,0.1-0.2,0.2c-1,0.8-2,1.7-3,2.4l-0.6,0.5h-0.1l-0.3,0.3c-0.2,0.2-0.5,0.4-0.7,0.5c0,0,0,0-0.1,0.1l-0.1,0.1
		c-3.3,2.6-6.8,5.2-10.1,7.7c-4.9,3.7-9.6,7.2-13.5,10.6l-10.1,7.8l-9.7-7.8c-3.9-3.4-8.6-6.9-13.6-10.6c-3.3-2.4-6.7-5.1-10.1-7.7
		l-0.1-0.1l-0.1-0.1c-0.2-0.2-0.4-0.3-0.6-0.5l-0.3-0.2l-0.1-0.1l-0.5-0.4c-1.4-1.1-2.7-2.2-4-3.3l-0.1-0.1l-0.1-0.1
		c-0.2-0.2-0.5-0.4-0.7-0.6C183.8,45.9,218.9,43.6,242.8,49.6z M161.4,366.6c11.1,0.4,24,0.7,38.8,0.7c14.3,0,27.2-0.2,38.6-0.6
		c-11,3-23.1,5.3-36.8,5.4C186.9,372.2,173.3,369.7,161.4,366.6z"/>
	<path class="st1" d="M214.4,46.7c-18.2-0.7-37.2,0.9-50.4,2.7C177.2,47.6,196.2,46.1,214.4,46.7z"/>
</g>
</svg>
