<?xml version="1.0" encoding="utf-8"?>
<!-- Generator: Adobe Illustrator 25.3.0, SVG Export Plug-In . SVG Version: 6.00 Build 0)  -->
<svg version="1.1" id="Layer_1" xmlns="http://www.w3.org/2000/svg" xmlns:xlink="http://www.w3.org/1999/xlink" x="0px" y="0px"
	 viewBox="0 0 750.2 400.1" style="enable-background:new 0 0 750.2 400.1;" xml:space="preserve">
<path d="M116.7,121.3c0.4-1.7,0.8-3.6,1.3-5.6l-11.9-52l-2.4,0.7L116.7,121.3z"/>
<polygon points="83.9,137.8 86.3,137.3 71.8,74.1 69.4,74.9 "/>
<path d="M287.6,120.2c0.3,1.5,0.6,3,0.9,4.3c0.1,0.6,0.2,1.1,0.3,1.6L303.2,65l-2.4-0.7L287.6,120.2z"/>
<polygon points="320.2,137.6 322.6,138.2 337.3,75.3 334.9,74.6 "/>
<path d="M459.5,122.4c0.4-1.8,0.8-3.7,1.2-5.7l-12-52.3l-2.4,0.7L459.5,122.4z"/>
<polygon points="426.3,137.5 428.8,137 414.4,74.7 412,75.4 "/>
<path d="M642.4,63.4l-12.1,51.4c0.5,1.9,0.9,3.7,1.3,5.4l13.2-56.2L642.4,63.4z"/>
<polygon points="676.5,73.7 661.7,137 664.1,137.5 678.9,74.4 "/>
<path d="M119.1,161.4c0.1,2.5,0.1,5.1,0.1,7.8h166.4c0-2.7,0.1-5.3,0.2-7.8H119.1z"/>
<path d="M294.8,231.7c-0.8-2.6-1.5-5.2-2.2-7.8H111.8c-0.7,2.6-1.4,5.2-2.3,7.8H294.8z"/>
</svg>
