<?xml version="1.0" encoding="utf-8"?>
<!-- Generator: Adobe Illustrator 25.3.0, SVG Export Plug-In . SVG Version: 6.00 Build 0)  -->
<svg version="1.1" id="Layer_1" xmlns="http://www.w3.org/2000/svg" xmlns:xlink="http://www.w3.org/1999/xlink" x="0px" y="0px"
	 viewBox="0 0 750.2 400.1" style="enable-background:new 0 0 750.2 400.1;" xml:space="preserve">
<path d="M111.3,225.9h181.8c-6.2-22.4-7.8-42.6-7.5-58.5H119.2C119.3,183.3,117.5,203.5,111.3,225.9z"/>
<path d="M104.4,361.6L104.4,361.6c0,0,0.1,0,0.3,0c0,0,0,0,0,0v0c0,0,49,10.8,88.4,11.6c0,0,0,0,0,0c0.6,0,1.2,0,1.8,0
	c0.2,0,0.3,0,0.5,0c0.5,0,0.9,0,1.4,0c0.3,0,0.6,0,0.9,0c0.3,0,0.7,0,1,0c0.6,0,1.2,0,1.9,0c42.9-0.6,99.5-11.7,99.5-11.7v-2.2v-5.3
	v-17.4c0,0,0,0,0,0l-0.1-21.4h-0.4l0.1-65.9H105.1l0,74l-0.8,33.2l0,2.4V361.6C104.4,361.6,104.4,361.6,104.4,361.6
	C104.3,361.6,104.3,361.6,104.4,361.6z"/>
<path d="M453.5,225.9h184c-6.3-22.4-8-42.6-7.9-58.5H461.4C461.5,183.3,459.7,203.5,453.5,225.9z"/>
<path d="M448.5,249.4l0,74.3l-0.9,37.5c0,0,0.3,0.3,0.4,0.3l0,0c0,0,0,0,0,0c0,0.1,0.1,0.1,0.2,0.2c0.1,0,0.1,0.1,0.2,0.1
	c0,0,47.8,24.4,95.3,24.4s99.4-24.7,99.4-24.7v-3.3h0l0-42.8l-0.2,0l0.1-65.9H448.5z"/>
</svg>
