<?xml version="1.0" encoding="utf-8"?>
<!-- Generator: Adobe Illustrator 25.3.0, SVG Export Plug-In . SVG Version: 6.00 Build 0)  -->
<svg version="1.1" id="Layer_1" xmlns="http://www.w3.org/2000/svg" xmlns:xlink="http://www.w3.org/1999/xlink" x="0px" y="0px"
	 viewBox="0 0 750.2 400.1" style="enable-background:new 0 0 750.2 400.1;" xml:space="preserve">
<path d="M287.1,195.8c-0.1-0.5-0.1-1.1-0.2-1.6l-7.8,0.9L287.1,195.8z"/>
<polygon points="299.6,276.8 279.1,279.2 299.6,281 "/>
<path d="M117.6,194.2c-0.1,0.5-0.1,1.1-0.2,1.6l8-0.7L117.6,194.2z"/>
<polygon points="105.2,276.8 105.2,280.9 125.4,279.2 "/>
<path d="M631.3,195.8c-0.1-0.6-0.2-1.2-0.2-1.7l-8.5,1L631.3,195.8z"/>
<polygon points="642.7,280.9 642.7,276.8 622.7,279.2 "/>
<path d="M469,195.1l-9.2-1.1c-0.1,0.6-0.2,1.3-0.2,1.9L469,195.1z"/>
<polygon points="448.6,276.8 448.6,281 469,279.2 "/>
</svg>
