<?xml version="1.0" encoding="utf-8"?>
<!-- Generator: Adobe Illustrator 25.3.0, SVG Export Plug-In . SVG Version: 6.00 Build 0)  -->
<svg version="1.1" id="Layer_1" xmlns="http://www.w3.org/2000/svg" xmlns:xlink="http://www.w3.org/1999/xlink" x="0px" y="0px"
	 viewBox="0 0 750.2 400.1" style="enable-background:new 0 0 750.2 400.1;" xml:space="preserve">
<path d="M248.9,65.8c-1.4,5.4-3.8,11.4-7.4,17c-8.5,13.2-21.6,20.2-38,20.3h-1.9l-0.1,0c-16.2,0-29.3-6.9-37.9-19.9
	c-0.2-0.3-0.4-0.6-0.6-0.9c-2.4-3.8-4.2-7.6-5.5-11.4c-0.6-1.8-1.2-3.5-1.6-5.2l-1.8,0.5c-10.2,4-18,10.7-24,20.6
	c-1.7,2.8-3.2,5.9-4.7,9.2c-0.6,1.5-1.2,3-1.8,4.5l79.5,12.6l77.7-12.2c-0.5-1.3-1-2.6-1.6-3.9c-0.2-0.4-0.3-0.7-0.5-1.1
	c-3-6.7-6.5-12.4-10.5-17.1c-3.6-4.2-7.7-7.5-12.1-10c-1.7-0.9-3.4-1.7-5.1-2.4L248.9,65.8z"/>
</svg>
