<?xml version="1.0" encoding="utf-8"?>
<!-- Generator: Adobe Illustrator 25.3.0, SVG Export Plug-In . SVG Version: 6.00 Build 0)  -->
<svg version="1.1" id="Layer_1" xmlns="http://www.w3.org/2000/svg" xmlns:xlink="http://www.w3.org/1999/xlink" x="0px" y="0px"
	 viewBox="0 0 750.2 400.1" style="enable-background:new 0 0 750.2 400.1;" xml:space="preserve">
<path d="M270.6,55.1l-7.1,17.1c1,0.8,2,1.7,2.9,2.7l7.8-18.7L270.6,55.1z"/>
<path d="M138.2,74.4c1-0.9,2-1.7,3-2.5l-6.6-16.8l-3.6,1.1L138.2,74.4z"/>
<path d="M472.5,57l7.7,19.4c0.9-1,1.9-1.9,2.9-2.8L476.1,56L472.5,57z"/>
<path d="M621.2,57l-3.6-1.1l-2.9,7.2l-5,12.1c1,1,1.9,2,2.8,3.1L621.2,57z"/>
</svg>
