<?xml version="1.0" encoding="utf-8"?>
<!-- Generator: Adobe Illustrator 25.3.0, SVG Export Plug-In . SVG Version: 6.00 Build 0)  -->
<svg version="1.1" id="Layer_1" xmlns="http://www.w3.org/2000/svg" xmlns:xlink="http://www.w3.org/1999/xlink" x="0px" y="0px"
	 viewBox="0 0 750.2 400.1" style="enable-background:new 0 0 750.2 400.1;" xml:space="preserve">
<path d="M140.4,53.3l3.8,16.5c2-1.2,4.1-2.4,6.3-3.4l5-2.3l-0.5-1.4c-0.5-2.3-0.9-4.5-1.1-6.3c-0.4-2.6-0.5-4.7-0.5-6.2
	c0-0.2,0-0.4,0-0.6c0,0,0-0.1,0-0.1c0,0,0,0,0,0c0,0,0,0,0,0L140.4,53.3z"/>
<path d="M251.9,65.5c3.1,1.2,5.9,2.6,8.4,4.3l3.9-16.6l-12.5-3.8l-0.4,0.1c-0.1,2.5-0.5,9.1-1.8,15.1L251.9,65.5z"/>
<path d="M484.3,53.6l3.7,15.8c2.8-2.2,5.8-4.2,8.9-6l24.3-15.5c-2.2,0.1-7.4,0.2-9.3,0.3l-1.5,0.1c-1.5,0.1-3,0.2-4.3,0.3
	c-1.9,0.1-3.5,0.2-4.8,0.3c-1.1,0.1-1.6,0.1-1.8,0.2h-0.1l-14,4.3L484.3,53.6z"/>
<path d="M593.4,48.7c-3.3-0.2-13.5-0.6-21.5-0.9l22.7,15.6c3.7,2.1,7.2,4.6,10.5,7.5l4-17.4l-15.4-4.6L593.4,48.7z"/>
</svg>
