<?xml version="1.0" encoding="utf-8"?>
<!-- Generator: Adobe Illustrator 25.3.0, SVG Export Plug-In . SVG Version: 6.00 Build 0)  -->
<svg version="1.1" id="Layer_1" xmlns="http://www.w3.org/2000/svg" xmlns:xlink="http://www.w3.org/1999/xlink" x="0px" y="0px"
	 viewBox="0 0 750.2 400.1" style="enable-background:new 0 0 750.2 400.1;" xml:space="preserve">
<path d="M140.4,53.3l3.8,16.5c2-1.2,4.1-2.4,6.3-3.4l5-2.3l-0.5-1.4c-0.5-2.3-0.9-4.5-1.1-6.3c-0.4-2.6-0.5-4.7-0.5-6.2
	c0-0.2,0-0.4,0-0.6c0,0,0-0.1,0-0.1c0,0,0,0,0,0c0,0,0,0,0,0L140.4,53.3z"/>
<path d="M251.9,65.5c3.1,1.2,5.9,2.6,8.4,4.3l3.9-16.6l-12.5-3.8l-0.4,0.1c-0.1,2.5-0.5,9.1-1.8,15.1L251.9,65.5z"/>
<path d="M484.3,53.6l3.7,15.8c2.8-2.2,5.8-4.2,8.9-6l24.3-15.5c-2.2,0.1-7.4,0.2-9.3,0.3l-1.5,0.1c-1.5,0.1-3,0.2-4.3,0.3
	c-1.9,0.1-3.5,0.2-4.8,0.3c-1.1,0.1-1.6,0.1-1.8,0.2h-0.1l-14,4.3L484.3,53.6z"/>
<path d="M593.4,48.7c-3.3-0.2-13.5-0.6-21.5-0.9l22.7,15.6c3.7,2.1,7.2,4.6,10.5,7.5l4-17.4l-15.4-4.6L593.4,48.7z"/>
<path d="M119.2,172.5c-0.3,13.3-1.8,29-6,46.3h178.1c-4.1-17.3-5.6-33.1-5.7-46.3H119.2z"/>
<path d="M105.2,306.3l0,17.1l-0.8,33.2l0,2.4v2.5c0,0,0,0,0,0c0,0-0.1,0,0,0h0c0,0,0.1,0,0.2,0c0,0,0,0,0,0v0
	c0,0,34.1,7.5,68.2,10.4h50.9c37.6-3,76.2-10.5,76.2-10.5v-2.2v-5.3v-17.4c0,0,0,0,0,0l-0.1-21.4h-0.4l0-9H105.2z"/>
<path d="M452.4,229.7h186.2c-6.4-21.6-8.7-41.2-9-57.2H461.4C461.1,188.5,458.8,208.1,452.4,229.7z"/>
<path d="M448.6,306.3l0,17.4l-0.9,37.5c0,0,0.3,0.3,0.4,0.3l0,0c0,0,0,0,0,0c0,0.1,0.1,0.1,0.2,0.2c0.1,0,0.1,0.1,0.2,0.1
	c0,0,47.8,24.4,95.3,24.4s99.4-24.7,99.4-24.7v-3.3h0l0-42.8l-0.2,0l0-9H448.6z"/>
</svg>
