<?xml version="1.0" encoding="utf-8"?>
<!-- Generator: Adobe Illustrator 25.3.0, SVG Export Plug-In . SVG Version: 6.00 Build 0)  -->
<svg version="1.1" id="Layer_1" xmlns="http://www.w3.org/2000/svg" xmlns:xlink="http://www.w3.org/1999/xlink" x="0px" y="0px"
	 viewBox="0 0 750.2 400.1" style="enable-background:new 0 0 750.2 400.1;" xml:space="preserve">
<g>
	<polygon points="159.9,234.8 230.8,234.9 244.3,234.9 244.3,234.5 230.8,234.5 159.9,234.6 	"/>
	<polygon points="159.9,225 230.8,225.1 244.3,225.1 244.3,224.7 230.8,224.7 159.9,224.8 	"/>
	<polygon points="159.9,215.5 159.9,215.7 230.8,215.8 244.3,215.8 244.3,215.4 230.8,215.4 	"/>
	<polygon points="159.9,205.7 159.9,205.9 230.8,206 244.3,206 244.3,205.6 230.8,205.6 	"/>
	<polygon points="159.9,196 159.9,196.2 230.8,196.3 244.3,196.3 244.3,195.9 230.8,195.9 	"/>
	<polygon points="159.9,186.4 230.8,186.5 244.3,186.5 244.3,186.1 230.8,186.1 159.9,186.2 	"/>
	<polygon points="159.9,176.6 230.8,176.7 244.3,176.7 244.3,176.3 230.8,176.3 159.9,176.4 	"/>
	<polygon points="159.9,166.6 159.9,166.8 230.8,166.9 244.3,166.9 244.3,166.5 230.7,166.5 	"/>
	<polygon points="175.7,229.4 176.6,230.1 230.8,230.2 244.3,230.2 244.3,229.3 230.8,229.2 	"/>
	<polygon points="235.1,220.9 233.9,219.9 230.8,219.9 164.7,220.1 165.5,220.8 230.8,220.9 	"/>
	<polygon points="164.5,210.3 159.9,210.3 159.9,211 164.5,211 223.4,211.1 222.3,210.2 	"/>
	<polygon points="164.5,200.5 159.9,200.5 159.9,201.2 164.5,201.2 211.7,201.3 210.6,200.4 	"/>
	<polygon points="164.5,190.7 159.9,190.7 159.9,191.4 164.5,191.4 200,191.5 199,190.7 	"/>
	<polygon points="234.5,191.6 244.3,191.6 244.3,190.6 233.3,190.6 	"/>
	<polygon points="164.5,181 159.9,181 159.9,181.6 164.5,181.6 188.4,181.7 187.4,180.9 	"/>
	<polygon points="221.6,180.9 222.8,181.9 230.8,181.9 244.3,181.9 244.3,180.9 230.8,180.9 	"/>
	<polygon points="210,171.1 211.1,172 230.8,172 244.3,172 244.3,171 230.8,171 	"/>
	<polygon points="164.5,171.2 159.9,171.2 159.9,171.9 164.5,171.9 176.7,171.9 175.8,171.2 	"/>
	<polygon points="198.4,161.3 199.4,162.2 230.8,162.2 244.3,162.2 244.3,161.2 230.8,161.2 	"/>
	<polygon points="165,162.1 164.2,161.4 159.9,161.4 159.9,162.1 164.5,162.1 	"/>
</g>
</svg>
