<?xml version="1.0" encoding="utf-8"?>
<!-- Generator: Adobe Illustrator 25.3.0, SVG Export Plug-In . SVG Version: 6.00 Build 0)  -->
<svg version="1.1" id="Layer_1" xmlns="http://www.w3.org/2000/svg" xmlns:xlink="http://www.w3.org/1999/xlink" x="0px" y="0px"
	 viewBox="0 0 750.2 400.1" style="enable-background:new 0 0 750.2 400.1;" xml:space="preserve">
<g>
	<path d="M329.6,97.1c-0.9,0-2.6,0.3-5,0.7c0.7,3.4,1.5,7.4,2.4,11.8c2.2,10.7,4.9,23.9,7.7,38.5c12.2,29.8,17,67.9,17,67.9
		s-2.5-10.4-8.3-22.4c2.3,12.3,4.6,24.7,6.6,36.4h5.8C347.5,181.6,335.2,122.7,329.6,97.1z"/>
	<path d="M427.2,98.5c-2.8-0.3-4.7-0.5-5.8-0.7c-5.3,26-16.4,84.3-24.1,132.2h6.2C410.9,183.6,421.4,127.4,427.2,98.5z"/>
	<path d="M131.5,193c-5.9,12.3-8.5,22.9-8.5,22.9s4.6-36.1,16.1-65.5c3.8-20.5,7.3-39,9.9-51.9c-2.6-0.3-4.5-0.5-5.6-0.7
		c-5.3,26-16.4,84.3-24.1,132.2h6C127.2,218.1,129.3,205.6,131.5,193z"/>
	<path d="M607.5,97c-1.1,0.2-3.1,0.5-5.9,0.9c0.7,3.4,1.5,7.3,2.4,11.7c3.1,15.3,7.2,35.8,11.5,57.8l0.1,0.1
		c4,20.6,8.1,42.4,11.6,62.5h6.7C625.5,181.6,613.1,122.6,607.5,97z"/>
</g>
</svg>
