<?xml version="1.0" encoding="utf-8"?>
<!-- Generator: Adobe Illustrator 25.3.0, SVG Export Plug-In . SVG Version: 6.00 Build 0)  -->
<svg version="1.1" id="Layer_1" xmlns="http://www.w3.org/2000/svg" xmlns:xlink="http://www.w3.org/1999/xlink" x="0px" y="0px"
	 viewBox="0 0 750.2 400.1" style="enable-background:new 0 0 750.2 400.1;" xml:space="preserve">
<g>
	<path d="M120.1,225.7l5.8,1.2c2.3-14.6,5-30.1,7.6-45.3l-5.7-1.2C125.1,195.6,122.5,211.1,120.1,225.7z"/>
	<path d="M398,225.9l6,1.2c2.3-14.6,5-30.1,7.6-45.3l-5.9-1.2C403,195.7,400.4,211.2,398,225.9z"/>
	<path d="M347,181.5l-5.5,1.1c2.9,15.2,5.7,30.6,8.3,45.2l5.6-1.2C352.8,212.1,349.9,196.7,347,181.5z"/>
	<path d="M624.2,177.9l-6.3,1.3c2.9,15.1,5.8,30.5,8.3,45.2l6.4-1.3C630,208.4,627.1,193,624.2,177.9z"/>
</g>
</svg>
