<?xml version="1.0" encoding="utf-8"?>
<!-- Generator: Adobe Illustrator 25.3.0, SVG Export Plug-In . SVG Version: 6.00 Build 0)  -->
<svg version="1.1" id="Layer_1" xmlns="http://www.w3.org/2000/svg" xmlns:xlink="http://www.w3.org/1999/xlink" x="0px" y="0px"
	 viewBox="0 0 750.2 400.1" style="enable-background:new 0 0 750.2 400.1;" xml:space="preserve">
<g>
	<path d="M124.8,197.5c-2.2,12.9-4.4,25.7-6.2,37.7l5.9,0.9c1.9-12,4-24.8,6.2-37.7L124.8,197.5z"/>
	<path d="M115.2,257.9c-1.8,12.9-3.1,24-3.5,32c2,0.5,3.9,1,5.8,1.4c0.5-8.1,1.8-19.4,3.6-32.5L115.2,257.9z"/>
	<path d="M137.1,130.3c-2.2,11.4-4.6,24.2-7,37.6l5.7,0.9c2.4-13.2,4.7-26,6.9-37.6L137.1,130.3z"/>
	<path d="M402.7,197.6c-2.2,12.9-4.4,25.7-6.2,37.7l6,0.9c1.9-12,4-24.8,6.2-37.7L402.7,197.6z"/>
	<path d="M393.1,257.9c-1.8,12.9-3.1,24.1-3.5,32c2,0.5,4,1,6,1.4c0.5-8.1,1.8-19.4,3.6-32.5L393.1,257.9z"/>
	<path d="M415,130.3c-2.2,11.4-4.6,24.2-7,37.6l5.9,0.9c2.4-13.2,4.7-26,6.9-37.6L415,130.3z"/>
	<path d="M356.6,233.8c-2-12-4.4-24.8-6.8-37.6l-5.6,0.9c2.4,12.8,4.7,25.6,6.7,37.6L356.6,233.8z"/>
	<path d="M364.2,289.7c-0.5-8.3-1.9-19.9-4-33.4l-5.6,0.9c2.1,13.6,3.6,25.4,4.1,33.8C360.5,290.6,362.4,290.1,364.2,289.7z"/>
	<path d="M344.1,166.5c-2.6-13.4-5.2-26.1-7.6-37.5l-5.4,0.8c2.3,11.4,4.8,24.2,7.4,37.5L344.1,166.5z"/>
	<path d="M634.6,234.1c-2.1-12-4.4-24.8-6.8-37.6l-6.4,1c2.4,12.8,4.7,25.6,6.7,37.6L634.6,234.1z"/>
	<path d="M642.2,289.8c-0.5-8.2-2-19.7-4-33.1l-6.5,1c2.1,13.6,3.5,25.2,4.1,33.6C637.9,290.8,640,290.3,642.2,289.8z"/>
	<path d="M614.4,129.4l-6.2,1c2.3,11.3,4.7,23.9,7.3,37l0.1,0.1c0,0.1,0.1,0.3,0.1,0.4l6.4-1C619.4,153.6,616.8,140.8,614.4,129.4z"
		/>
</g>
</svg>
