<?xml version="1.0" encoding="utf-8"?>
<!-- Generator: Adobe Illustrator 25.3.0, SVG Export Plug-In . SVG Version: 6.00 Build 0)  -->
<svg version="1.1" id="Layer_1" xmlns="http://www.w3.org/2000/svg" xmlns:xlink="http://www.w3.org/1999/xlink" x="0px" y="0px"
	 viewBox="0 0 750.2 400.1" style="enable-background:new 0 0 750.2 400.1;" xml:space="preserve">
<g>
	<path d="M116.8,246.7c-2.6,17.7-4.5,33-5.1,43.2c2,0.5,3.9,1,5.8,1.4c0.6-10.3,2.6-25.8,5.2-43.7L116.8,246.7z"/>
	<path d="M133.4,149.8l5.7,0.9c2.5-13.8,5-26.7,7.1-37.6l-5.6-0.9C138.5,122.8,136.1,135.7,133.4,149.8z"/>
	<path d="M128.1,179.3c-2.2,12.5-4.5,25.3-6.5,37.6l5.8,0.9c2-12.3,4.2-25.1,6.4-37.7L128.1,179.3z"/>
	<path d="M394.3,249.7c-2.4,16.4-4.1,30.6-4.7,40.2c2,0.5,4,1,6,1.4c0.6-9.7,2.4-24,4.8-40.6L394.3,249.7z"/>
	<path d="M410.8,152.8l5.9,0.9c2.5-13.7,4.9-26.5,7.1-37.6l-5.8-0.9C415.8,126,413.4,138.9,410.8,152.8z"/>
	<path d="M405.4,182.3c-2.2,12.6-4.4,25.3-6.5,37.7l6,0.9c2-12.3,4.2-25,6.4-37.7L405.4,182.3z"/>
	<path d="M364.2,289.7c-0.6-9.8-2.5-24.1-5.1-40.8l-5.6,0.9c2.7,16.8,4.6,31.3,5.3,41.3C360.5,290.6,362.4,290.1,364.2,289.7z"/>
	<path d="M328.2,115.5c2.2,10.8,4.8,23.6,7.5,37.5l5.5-0.8c-2.8-13.9-5.5-26.8-7.7-37.5L328.2,115.5z"/>
	<path d="M354,219.2c-2.2-12.3-4.6-25-7-37.6l-5.6,0.9c2.4,12.5,4.8,25.3,7,37.6L354,219.2z"/>
	<path d="M642.2,289.8c-0.6-9.8-2.6-24.3-5.2-41.1l-6.5,1c2.7,17,4.7,31.6,5.3,41.6C637.9,290.8,640,290.3,642.2,289.8z"/>
	<path d="M605.2,115.5c2.2,10.8,4.7,23.7,7.5,37.5l6.4-1c-2.8-13.9-5.5-26.8-7.8-37.5L605.2,115.5z"/>
	<path d="M631.9,219c-2.2-12.3-4.6-25-7-37.6l-6.4,1c2.4,12.5,4.8,25.3,7,37.6L631.9,219z"/>
</g>
</svg>
