<?xml version="1.0" encoding="utf-8"?>
<!-- Generator: Adobe Illustrator 25.3.0, SVG Export Plug-In . SVG Version: 6.00 Build 0)  -->
<svg version="1.1" id="Layer_1" xmlns="http://www.w3.org/2000/svg" xmlns:xlink="http://www.w3.org/1999/xlink" x="0px" y="0px"
	 viewBox="0 0 750.2 400.1" style="enable-background:new 0 0 750.2 400.1;" xml:space="preserve">
<g>
	<path d="M126.9,187.6l-0.3-0.1c-2.6,14.7-5.1,29.6-7.3,43.6l2.1,0.6l3.8-0.1c2.2-14.1,4.8-29.2,7.4-44.2L126.9,187.6z"/>
	<path d="M410.6,187.5l-5.1,0.2l-1-0.3c-2.6,14.7-5.1,29.6-7.3,43.6l2.8,0.8l3.3-0.1C405.5,217.5,408,202.4,410.6,187.5z"/>
	<path d="M355.9,230.1c-2.4-13.9-5.1-28.8-7.9-43.4l-3.2,0.9l-2.4-0.1c2.8,14.9,5.6,30,8,44.2L355.9,230.1z"/>
	<path d="M623.8,187.6l-4.4-0.1c2.8,14.9,5.6,30,8,44.2l1.9,0.1l4.6-1.3c-2.4-13.9-5.2-28.8-8-43.4L623.8,187.6z"/>
</g>
</svg>
