<?xml version="1.0" encoding="utf-8"?>
<!-- Generator: Adobe Illustrator 25.3.0, SVG Export Plug-In . SVG Version: 6.00 Build 0)  -->
<svg version="1.1" id="Layer_1" xmlns="http://www.w3.org/2000/svg" xmlns:xlink="http://www.w3.org/1999/xlink" x="0px" y="0px"
	 viewBox="0 0 750.2 400.1" style="enable-background:new 0 0 750.2 400.1;" xml:space="preserve">
<g>
	<path d="M334.9,121.7l8.2,68.2l-0.4-1c2.6,13.9,5.2,27.9,7.5,41.1h5.7C349.6,193.7,341.1,151.4,334.9,121.7z"/>
	<path d="M427.2,98.5c-2.8-0.3-4.7-0.5-5.8-0.7c-5.3,26-16.4,84.3-24.1,132.2h6.2C410.9,183.6,421.4,127.4,427.2,98.5z"/>
	<path d="M132.6,187.2l-1.2,2.7l9.4-78.5C135,140.9,126,189.2,119.4,230h6C127.6,216.3,130.1,201.7,132.6,187.2z"/>
	<path d="M607.5,97c-1.1,0.2-3.1,0.5-5.9,0.9c0.7,3.4,1.5,7.3,2.4,11.7c3.1,15.3,7.2,35.8,11.5,57.8l0.1,0.1
		c4,20.6,8.1,42.4,11.6,62.5h6.7C625.5,181.6,613.1,122.6,607.5,97z"/>
</g>
</svg>
