<?xml version="1.0" encoding="utf-8"?>
<!-- Generator: Adobe Illustrator 25.3.0, SVG Export Plug-In . SVG Version: 6.00 Build 0)  -->
<svg version="1.1" id="Layer_1" xmlns="http://www.w3.org/2000/svg" xmlns:xlink="http://www.w3.org/1999/xlink" x="0px" y="0px"
	 viewBox="0 0 750.2 400.1" style="enable-background:new 0 0 750.2 400.1;" xml:space="preserve">
<g>
	<path d="M122.9,208.9l5.8,1.1c2.1-12.7,4.4-25.8,6.7-38.5l-5.7-1.1C127.4,183.1,125.1,196.1,122.9,208.9z"/>
	<path d="M400.9,208.2l6,1.1c2.1-12.7,4.4-25.8,6.7-38.5l-5.9-1.1C405.4,182.3,403.1,195.4,400.9,208.2z"/>
	<path d="M344.5,168.6l-5.5,1c2.4,12.6,4.9,25.6,7.2,38.4l5.6-1C349.5,194.2,347,181.2,344.5,168.6z"/>
	<path d="M629.7,206.9c-2.4-12.8-4.9-25.8-7.3-38.3l-6.3,1.2c2.4,12.6,4.9,25.6,7.2,38.4L629.7,206.9z"/>
</g>
</svg>
