<?xml version="1.0" encoding="utf-8"?>
<!-- Generator: Adobe Illustrator 25.3.0, SVG Export Plug-In . SVG Version: 6.00 Build 0)  -->
<svg version="1.1" id="Layer_1" xmlns="http://www.w3.org/2000/svg" xmlns:xlink="http://www.w3.org/1999/xlink" x="0px" y="0px"
	 viewBox="0 0 750.2 400.1" style="enable-background:new 0 0 750.2 400.1;" xml:space="preserve">
<g>
	<path d="M127.8,215.2c2.7-16.3,5.7-33.3,8.6-49.5l-5.7-0.8c-2.9,16.1-6,33.1-8.7,49.5L127.8,215.2z"/>
	<path d="M406,214.9c2.7-16.3,5.7-33.3,8.6-49.5l-5.9-0.8c-2.9,16.1-6,33.1-8.7,49.5L406,214.9z"/>
	<path d="M353.1,214.2c-3-16.4-6.2-33.3-9.4-49.4l-5.6,0.8c3.1,16.1,6.4,33.1,9.3,49.4L353.1,214.2z"/>
	<path d="M621.6,164.9l-6.4,0.9c0.1,0.5,0.2,1.1,0.3,1.6l0.1,0.1c3,15.6,6.1,31.9,9,47.7l6.5-0.9C628.1,197.9,624.8,181,621.6,164.9
		z"/>
</g>
</svg>
