<?xml version="1.0" encoding="utf-8"?>
<!-- Generator: Adobe Illustrator 25.3.0, SVG Export Plug-In . SVG Version: 6.00 Build 0)  -->
<svg version="1.1" id="Layer_1" xmlns="http://www.w3.org/2000/svg" xmlns:xlink="http://www.w3.org/1999/xlink" x="0px" y="0px"
	 viewBox="0 0 750.2 400.1" style="enable-background:new 0 0 750.2 400.1;" xml:space="preserve">
<g>
	<path d="M149.1,98.5c-2.6-0.3-4.5-0.5-5.6-0.7c-3.9,19.4-11.1,56.7-17.7,94.3l5.8,0.7C137.9,156.4,144.8,120,149.1,98.5z"/>
	<path d="M427.2,98.5c-2.8-0.3-4.7-0.5-5.8-0.7c-3.9,19.4-11.1,56.8-17.7,94.4l6,0.7C416,156.5,422.9,120,427.2,98.5z"/>
	<path d="M329.7,97c-1,0.1-2.7,0.4-5.1,0.8c0.7,3.4,1.5,7.4,2.4,11.8c4.3,21.3,10.7,52.9,16.6,84.5l5.6-0.7
		C342,154.9,333.9,116.4,329.7,97z"/>
	<path d="M607.5,97c-1.1,0.2-3.1,0.5-5.9,0.9c0.7,3.4,1.5,7.3,2.4,11.7c3.1,15.3,7.2,35.8,11.5,57.8l0.1,0.1
		c1.7,8.9,3.5,18,5.2,27.1l6.5-0.8C619.9,155.1,611.8,116.4,607.5,97z"/>
</g>
</svg>
