<?xml version="1.0" encoding="utf-8"?>
<!-- Generator: Adobe Illustrator 25.3.0, SVG Export Plug-In . SVG Version: 6.00 Build 0)  -->
<svg version="1.1" id="Layer_1" xmlns="http://www.w3.org/2000/svg" xmlns:xlink="http://www.w3.org/1999/xlink" x="0px" y="0px"
	 viewBox="0 0 750.2 400.1" style="enable-background:new 0 0 750.2 400.1;" xml:space="preserve">
<g>
	<path d="M329.7,97c-1,0.1-2.7,0.4-5.1,0.8c0.7,3.4,1.5,7.4,2.4,11.8c3.8,18.6,9.1,45,14.4,72.5l10.4,47.9h4.1
		C347.6,181.6,335.3,122.6,329.7,97z"/>
	<path d="M412,179.5c5.6-31.8,11.4-62.2,15.2-81c-2.8-0.3-4.7-0.5-5.8-0.7c-5.3,26-16.4,84.3-24.1,132.2h4.6L412,179.5z"/>
	<path d="M607.5,97c-1.1,0.2-3.1,0.5-5.9,0.9c0.7,3.4,1.5,7.3,2.4,11.7c3.1,15.3,7.2,35.8,11.5,57.8l0.1,0.1
		c1.9,9.9,3.9,20.1,5.8,30.2l7,32.3h5.4C625.5,181.6,613.1,122.6,607.5,97z"/>
	<path d="M133.5,181.4c5.7-32.4,11.6-63.6,15.5-82.9c-2.6-0.3-4.5-0.5-5.6-0.7c-5.2,26-16.3,84.3-24,132.2h3.5L133.5,181.4z"/>
</g>
</svg>
