<?xml version="1.0" encoding="utf-8"?>
<!-- Generator: Adobe Illustrator 25.3.0, SVG Export Plug-In . SVG Version: 6.00 Build 0)  -->
<svg version="1.1" id="Layer_1" xmlns="http://www.w3.org/2000/svg" xmlns:xlink="http://www.w3.org/1999/xlink" x="0px" y="0px"
	 viewBox="0 0 750.2 400.1" style="enable-background:new 0 0 750.2 400.1;" xml:space="preserve">
<g>
	<path d="M137.8,157.9c4.3-23.5,8.4-44.9,11.3-59.4c-2.6-0.3-4.5-0.5-5.6-0.7c-2.8,13.7-7.2,36.3-11.9,61.7l3-0.8L137.8,157.9z"/>
	<path d="M340.7,149.7c-4.4-21.8-8.4-40.8-11-52.7c-1,0.1-2.7,0.4-5.1,0.8c0.7,3.4,1.5,7.4,2.4,11.8c2.6,13,6,29.8,9.6,48.1l2.8-5.6
		L340.7,149.7z"/>
	<path d="M412.3,144.6l5.5,2.9c3.6-19.4,6.9-36.7,9.4-49.1c-2.8-0.3-4.7-0.5-5.8-0.7C419.2,108.7,415.9,125.4,412.3,144.6z"/>
	<path d="M607.5,97c-1.1,0.2-3.1,0.5-5.9,0.9c0.7,3.4,1.5,7.3,2.4,11.7c2.1,10.4,4.7,23.1,7.4,37.1l5.9-3.2
		C613.4,124.3,609.9,107.7,607.5,97z"/>
</g>
</svg>
