<?xml version="1.0" encoding="utf-8"?>
<!-- Generator: Adobe Illustrator 25.3.0, SVG Export Plug-In . SVG Version: 6.00 Build 0)  -->
<svg version="1.1" id="Layer_1" xmlns="http://www.w3.org/2000/svg" xmlns:xlink="http://www.w3.org/1999/xlink" x="0px" y="0px"
	 viewBox="0 0 750.2 400.1" style="enable-background:new 0 0 750.2 400.1;" xml:space="preserve">
<g>
	<path d="M132.7,186.4l-5.8-0.9c-2.3,12.9-4.5,26-6.6,38.5l5.8,0.9C128.2,212.4,130.4,199.4,132.7,186.4z"/>
	<path d="M410.8,186.5l-6-0.9c-2.3,12.9-4.5,26-6.6,38.5l6,0.9C406.3,212.6,408.5,199.5,410.8,186.5z"/>
	<path d="M624.9,181.4l-6.4,0.9c2.5,12.8,4.9,25.9,7.1,38.5l6.5-0.9C629.8,207.3,627.3,194.2,624.9,181.4z"/>
	<path d="M347.6,184.4l-5.6,0.9c2.4,12.9,4.9,25.9,7.1,38.4l5.6-0.9C352.5,210.3,350,197.3,347.6,184.4z"/>
</g>
</svg>
