<?xml version="1.0" encoding="utf-8"?>
<!-- Generator: Adobe Illustrator 25.3.0, SVG Export Plug-In . SVG Version: 6.00 Build 0)  -->
<svg version="1.1" id="Layer_1" xmlns="http://www.w3.org/2000/svg" xmlns:xlink="http://www.w3.org/1999/xlink" x="0px" y="0px"
	 viewBox="0 0 750.2 400.1" style="enable-background:new 0 0 750.2 400.1;" xml:space="preserve">
<g>
	<path d="M158.4,125.8c-8.4-0.9-13.9-1.7-15.9-1.9c-4.9,22.1-14.6,67.3-21.1,106.1h18.9L158.4,125.8z"/>
	<path d="M436.7,125.7c-8.4-0.9-13.9-1.7-15.9-1.9c-5,22.1-14.7,67.4-21.2,106.2h18.9L436.7,125.7z"/>
	<path d="M607.3,123c-2.3,0.4-8.8,1.4-18.9,2.6L606.6,230h22C622.1,190.7,612.2,144.8,607.3,123z"/>
	<path d="M328.9,123.1c-2.3,0.4-8.8,1.4-18.9,2.6L328.2,230h22C343.7,190.7,333.8,144.8,328.9,123.1z"/>
</g>
</svg>
