<?xml version="1.0" encoding="utf-8"?>
<!-- Generator: Adobe Illustrator 25.3.0, SVG Export Plug-In . SVG Version: 6.00 Build 0)  -->
<svg version="1.1" id="Layer_1" xmlns="http://www.w3.org/2000/svg" xmlns:xlink="http://www.w3.org/1999/xlink" x="0px" y="0px"
	 viewBox="0 0 750.2 400.1" style="enable-background:new 0 0 750.2 400.1;" xml:space="preserve">
<g>
	<path d="M436.7,125.8c-8.4-0.9-13.9-1.7-15.9-1.9c-1.1,5.1-2.5,11.4-4.1,18.6l16.6,2.9L436.7,125.8z"/>
	<path d="M607.3,123c-2.3,0.4-8.8,1.4-18.9,2.6l3.1,18.1l19.9-1.5C609.9,134.7,608.5,128.2,607.3,123z"/>
	<path d="M158.4,125.8c-8.4-0.9-13.9-1.7-15.9-1.9c-1.2,5.4-2.7,12.3-4.4,20.1l16.6,2.8L158.4,125.8z"/>
	<path d="M329,123c-2.3,0.4-8.8,1.4-18.9,2.6l3.9,22.3l19.6-3.7C331.9,135.9,330.2,128.6,329,123z"/>
</g>
</svg>
