<?xml version="1.0" encoding="utf-8"?>
<!-- Generator: Adobe Illustrator 25.3.0, SVG Export Plug-In . SVG Version: 6.00 Build 0)  -->
<svg version="1.1" id="Layer_1" xmlns="http://www.w3.org/2000/svg" xmlns:xlink="http://www.w3.org/1999/xlink" x="0px" y="0px"
	 viewBox="0 0 750.2 400.1" style="enable-background:new 0 0 750.2 400.1;" xml:space="preserve">
<g>
	<path d="M127.1,197.9c-2.4,12.7-4.7,25.6-6.7,37.6l18.3,2.8l6.5-37.6L127.1,197.9z"/>
	<path d="M117.1,258.2c-0.9,7.4-1.6,14.1-2,19.9c5.5,1.4,10.8,2.7,16,3.8l3.6-20.9L117.1,258.2z"/>
	<path d="M140.9,130.9c-2.2,10.1-5,23.1-8,37.4l17.5,2.7l6.5-37.6L140.9,130.9z"/>
	<path d="M405.4,198c-2.4,12.7-4.7,25.6-6.7,37.6l18.3,2.8l6.5-37.6L405.4,198z"/>
	<path d="M395.5,258.2c-0.9,7.4-1.6,14.1-2,19.8c5.5,1.4,10.8,2.7,16,3.8l3.6-20.8L395.5,258.2z"/>
	<path d="M419.2,131c-2.2,10.1-5,23.1-8,37.4l17.5,2.7l6.5-37.6L419.2,131z"/>
	<path d="M351.1,234.6c-2-12.1-4.3-24.9-6.7-37.6l-21.3,3.3l6.6,37.6L351.1,234.6z"/>
	<path d="M356.5,278c-0.4-6-1.1-13-2.1-20.8l-20.8,3.2l3.8,22C343.6,281.1,349.9,279.7,356.5,278z"/>
	<path d="M338.5,167.4c-3-14.4-5.8-27.5-8-37.4l-19.1,2.9l6.6,37.6L338.5,167.4z"/>
	<path d="M629.5,234.9c-2-12.1-4.3-24.9-6.7-37.6l-21.3,3.3l6.6,37.6L629.5,234.9z"/>
	<path d="M634.8,278c-0.3-5.9-1.1-12.8-2-20.5l-20.8,3.2l3.8,21.7C621.9,281.1,628.3,279.7,634.8,278z"/>
	<path d="M616.9,167.7c-3-14.4-5.8-27.4-8-37.4l-19.2,2.9l6.6,37.6L616.9,167.7z"/>
</g>
</svg>
