<?xml version="1.0" encoding="utf-8"?>
<!-- Generator: Adobe Illustrator 25.3.0, SVG Export Plug-In . SVG Version: 6.00 Build 0)  -->
<svg version="1.1" id="Layer_1" xmlns="http://www.w3.org/2000/svg" xmlns:xlink="http://www.w3.org/1999/xlink" x="0px" y="0px"
	 viewBox="0 0 750.2 400.1" style="enable-background:new 0 0 750.2 400.1;" xml:space="preserve">
<g>
	<path d="M158.4,125.8c-8.4-0.9-13.9-1.7-15.9-1.9c-3.4,15.1-9,41.1-14.3,68.5l18.2,2.1L158.4,125.8z"/>
	<path d="M436.7,125.8c-8.4-0.9-13.9-1.7-15.9-1.9c-3.4,15.2-9.1,41.2-14.4,68.7l18.2,2.1L436.7,125.8z"/>
	<path d="M329,123c-2.3,0.4-8.8,1.4-18.9,2.6l12.4,71l21.3-2.5C338.3,165.6,332.4,138.3,329,123z"/>
	<path d="M607.3,123c-2.3,0.4-8.8,1.4-18.9,2.6l12.4,71.3l21.3-2.5C616.7,165.8,610.8,138.4,607.3,123z"/>
</g>
</svg>
