<?xml version="1.0" encoding="utf-8"?>
<!-- Generator: Adobe Illustrator 25.3.0, SVG Export Plug-In . SVG Version: 6.00 Build 0)  -->
<svg version="1.1" id="Layer_1" xmlns="http://www.w3.org/2000/svg" xmlns:xlink="http://www.w3.org/1999/xlink" x="0px" y="0px"
	 viewBox="0 0 240.9 34" style="enable-background:new 0 0 240.9 34;" xml:space="preserve">
<style type="text/css">
	.st0{fill:#201751;}
	.st1{fill:#FFFFFF;}
	.st2{font-family:'Arial-BoldMT';}
	.st3{font-size:9.586px;}
	.st4{fill:none;stroke:#343434;stroke-width:0.591;stroke-linecap:square;stroke-miterlimit:10;}
	.st5{fill:#020203;}
	.st6{font-size:9.4573px;}
</style>
<path d="M83.3,10.9h68.4c1,0,1,1,1,2v11.2c0,1,0,1-1,1H83.3c-1,0-1,0-1-1V13C82.3,12,82.3,10.9,83.3,10.9"/>
<path class="st0" d="M9.3,10.8h68.4c1,0,1,1,1,2V24c0,1,0,1-1,1H9.3c-1,0-1,0-1-1V12.8C8.3,11.8,8.3,10.8,9.3,10.8"/>
<text transform="matrix(1 0 0 1 34.0823 21.6672)" class="st1 st2 st3">274C</text>
<text transform="matrix(1 0 0 1 104.3951 22.3098)" class="st1 st2 st3">BLACK</text>
<g>
	<path class="st4" d="M158.5,10.5h67.2c1,0,1,1,1,2v11c0,1,0,1-1,1h-67.2c-1,0-1,0-1-1v-11C157.5,11.5,157.5,10.5,158.5,10.5z"/>
	<text transform="matrix(1 0 0 1 178.7277 21.1243)" class="st5 st2 st6">WHITE</text>
</g>
</svg>
