<?xml version="1.0" encoding="utf-8"?>
<!-- Generator: Adobe Illustrator 25.3.0, SVG Export Plug-In . SVG Version: 6.00 Build 0)  -->
<svg version="1.1" id="Layer_1" xmlns="http://www.w3.org/2000/svg" xmlns:xlink="http://www.w3.org/1999/xlink" x="0px" y="0px"
	 viewBox="0 0 240.9 34" style="enable-background:new 0 0 240.9 34;" xml:space="preserve">
<style type="text/css">
	.st0{fill:#1B2D42;}
	.st1{fill:#79ACE4;}
	.st2{fill:#FFFFFF;}
	.st3{font-family:'Arial-BoldMT';}
	.st4{font-size:9.7251px;}
</style>
<path class="st0" d="M125.8,10.5h69.4c1,0,1,1,1,2.1V24c0,1,0,1-1,1h-69.4c-1,0-1,0-1-1V12.6C124.8,11.6,124.8,10.5,125.8,10.5"/>
<path class="st1" d="M50.8,10.4h69.4c1,0,1,1,1,2.1v11.4c0,1,0,1-1,1H50.8c-1,0-1,0-1-1V12.4C49.8,11.4,49.8,10.4,50.8,10.4"/>
<text transform="matrix(1 0 0 1 75.9224 21.4083)" class="st2 st3 st4">2142C</text>
<text transform="matrix(1 0 0 1 147.1684 22.0597)" class="st2 st3 st4">2965C</text>
</svg>
