<?xml version="1.0" encoding="utf-8"?>
<!-- Generator: Adobe Illustrator 25.3.0, SVG Export Plug-In . SVG Version: 6.00 Build 0)  -->
<svg version="1.1" id="Layer_1" xmlns="http://www.w3.org/2000/svg" xmlns:xlink="http://www.w3.org/1999/xlink" x="0px" y="0px"
	 viewBox="0 0 240.9 34" style="enable-background:new 0 0 240.9 34;" xml:space="preserve">
<style type="text/css">
	.st0{fill:#E1251B;}
	.st1{fill:#FFFFFF;}
	.st2{font-family:'Arial-BoldMT';}
	.st3{font-size:6.7511px;}
	.st4{fill:#FFFFFF;stroke:#221F20;stroke-width:0.6895;stroke-miterlimit:10;}
	.st5{fill:#010202;}
	.st6{font-size:11.0709px;}
</style>
<path class="st0" d="M44.1,8.4H118c1.2,0,1.2,1.2,1.2,2.3v12.9c0,1.2,0,1.2-1.2,1.2H44.1c-1.2,0-1.2,0-1.2-1.2V10.7
	C42.9,9.5,42.9,8.4,44.1,8.4"/>
<text transform="matrix(1 0 0 1 70.7886 18.8332)" class="st1 st2 st3">485C</text>
<path class="st4" d="M127,8.9h73.4c1.2,0,1.2,1.2,1.2,2.3v12.9c0,1.2,0,1.2-1.2,1.2H127c-1.2,0-1.2,0-1.2-1.2V11.3
	C125.8,10.1,125.8,8.9,127,8.9z"/>
<text transform="matrix(1 0 0 1 146.1055 21.3801)" class="st5 st2 st6">WHITE</text>
</svg>
