<?xml version="1.0" encoding="utf-8"?>
<!-- Generator: Adobe Illustrator 25.3.0, SVG Export Plug-In . SVG Version: 6.00 Build 0)  -->
<svg version="1.1" id="Layer_1" xmlns="http://www.w3.org/2000/svg" xmlns:xlink="http://www.w3.org/1999/xlink" x="0px" y="0px"
	 viewBox="0 0 750.2 400.1" style="enable-background:new 0 0 750.2 400.1;" xml:space="preserve">
<style type="text/css">
	.st0{fill:none;}
	.st1{fill:#EDEFEF;}
	.st2{fill:#BBB8B8;}
	.st3{fill:#B0B0B0;}
	.st4{fill:#4D4A4A;}
	.st5{fill:#4C4D4D;}
	.st6{fill:#88898C;}
	.st7{fill:#1E1E1C;}
	.st8{fill:#6D6D6C;}
</style>
<g>
	<path class="st0" d="M200.3,62.4L200.3,62.4c0.1-0.1,0-0.1,0-0.2C200.3,62.2,200.3,62.3,200.3,62.4L200.3,62.4z"/>
	<path class="st0" d="M200.3,62.7L200.3,62.7L200.3,62.7C200.3,62.6,200.3,62.7,200.3,62.7z"/>
	<path class="st0" d="M209.9,51.9L209.9,51.9c10.4,0.4,20.3,1.2,27.1,2.4l0.1-0.1l0,0c-6.8-1.2-16.6-2-27.1-2.3H209.9z"/>
	<path class="st0" d="M172.3,50c0.4-0.1,0.8-0.1,1.2-0.1h0.1c-0.1,0-0.2-0.1-0.3-0.1c-0.3,0.1-0.6,0.1-0.9,0.1l0,0
		C172.3,49.9,172.3,50,172.3,50z"/>
	<path class="st0" d="M200.1,62.3C200.1,62.4,200.1,62.4,200.1,62.3C200.1,62.4,200.1,62.4,200.1,62.3c0,0.2,0,0.2,0,0.2
		s0.1,0,0.2,0.1c0-0.1,0.1-0.1,0,0h0.1l0,0c0-0.1-0.1-0.1-0.1-0.1C200.2,62.4,200.2,62.4,200.1,62.3L200.1,62.3L200.1,62.3z"/>
	<path class="st0" d="M180,62L180,62L180,62c5,3.7,9.7,7.2,13.6,10.6l9.7,7.8l-9.7-7.8C189.7,69.2,185,65.7,180,62z"/>
	<path class="st0" d="M199.5,62.8C199.4,62.8,199.4,62.8,199.5,62.8h-0.2C199.4,62.8,199.4,62.8,199.5,62.8l-0.2-0.1v-0.3l0.1-0.1
		h-0.1h-0.2v0.6h0.2C199.4,62.9,199.5,62.9,199.5,62.8z"/>
	<path class="st0" d="M200.3,62.6c-0.2,0-0.2-0.1-0.3-0.2c0.1,0.1,0.1,0.2,0.2,0.3L200.3,62.6z"/>
	<path class="st0" d="M201,58.4c-0.4,0-0.8,0.3-0.7,0.7C200.3,58.7,200.6,58.4,201,58.4z"/>
	<path class="st0" d="M200.4,62.6C200.5,62.6,200.5,62.7,200.4,62.6C200.5,62.7,200.5,62.7,200.4,62.6z"/>
	<path class="st0" d="M203.1,57.3c-0.1,0.1-0.1,0.1-0.2,0.1C203,57.4,203.1,57.4,203.1,57.3z"/>
	<path class="st0" d="M200.8,54c0-0.1,0-0.2,0.1-0.3C200.8,53.8,200.7,53.9,200.8,54z"/>
	<polygon class="st0" points="202.1,55.4 202,55.4 202.8,56.8 	"/>
	<path class="st0" d="M205.9,62.8c0.1,0,0.2-0.1,0.2-0.2v-0.3l0,0v0.3C206.1,62.7,206,62.8,205.9,62.8z"/>
	<path class="st0" d="M200.9,53.7c0.1,0,0.2,0,0.3,0.1C201.1,53.7,201,53.6,200.9,53.7z"/>
	<path class="st0" d="M201.6,55.4l1.1,1.9L201.6,55.4z"/>
	<path class="st0" d="M204.8,53.7c-0.1,0-0.1,0.1-0.2,0.1l-0.7,1.2l0.7-1.2C204.7,53.7,204.7,53.7,204.8,53.7z"/>
	<path class="st0" d="M205,54c0.1-0.1,0.1-0.1,0-0.2C205,53.9,205.1,53.9,205,54z"/>
	<path class="st0" d="M180.5,48.6c-0.1,0-0.2,0-0.2,0c0.4,0.4,0.8,0.6,1.2,0.9l0.1-0.1C181.3,49.1,180.9,48.9,180.5,48.6z"/>
	<path class="st0" d="M182.4,49.2c0.1,0.1,0.2,0.2,0.3,0.2c0.1-0.2,0.4-0.5,0.6-0.8h-0.1c-0.1,0-0.1,0-0.2,0
		C182.8,48.9,182.6,49.2,182.4,49.2z"/>
	<polygon class="st0" points="206.3,62.8 206.3,62.8 206.2,62.8 206.3,62.9 	"/>
	<path class="st0" d="M179.6,50.9c-0.9,0.1-1.8-0.4-1.9-1c-0.1-0.1-0.1-0.1-0.1-0.2c0,0.1,0,0.2,0.1,0.3
		C177.9,50.6,178.8,51.1,179.6,50.9c0.7,0,1.3-0.5,1.2-0.9C180.8,50.5,180.3,50.9,179.6,50.9z"/>
	<path class="st0" d="M179.1,49.2c0.5-0.1,0.8,0.2,1,0.6c0-0.1,0-0.1,0-0.2C179.9,49.3,179.6,49.1,179.1,49.2
		c-0.4-0.1-0.7,0.2-0.7,0.5C178.5,49.4,178.7,49.2,179.1,49.2z"/>
	<path class="st0" d="M182.8,50.4c-0.2-0.2-0.5-0.4-0.7-0.6c-0.1,0.2-0.3,0.4-0.4,0.6c-0.2,0.1-0.4,0-0.6,0.1c0,0.1-0.1,0.2-0.2,0.2
		h0.1c0.2-0.1,0.6,0,0.8-0.1c0.1-0.2,0.3-0.5,0.4-0.6c0.2,0.2,0.4,0.4,0.6,0.6h0.1c0.4-0.1,0.6,0,1,0.1c-0.1-0.1-0.3-0.2-0.4-0.4
		C183.3,50.4,183.1,50.3,182.8,50.4z"/>
	<path class="st0" d="M183.8,50c0.6,0,1.2-0.1,1.8,0c0,0.1,0.1,0.2,0.1,0.3v0.1l0,0c0,0,0,0,0-0.1c0.1-0.2,0-0.4,0-0.4
		C185,49.9,184.4,50,183.8,50z"/>
	<path class="st0" d="M186.7,49c0,0.4,0.1,0.8,0.2,1.2C186.9,49.8,186.8,49.4,186.7,49z"/>
	<path class="st0" d="M179.4,50.4c0.4,0,0.6-0.3,0.7-0.6C180,50.1,179.7,50.4,179.4,50.4z"/>
	<path class="st0" d="M171.9,50.2c0.1-0.3,0.2-0.7,0.4-1.1c0.1-0.1,0.2-0.2,0.3-0.2c-0.1,0-0.1-0.1-0.2-0.1c-0.2,0-0.3,0.1-0.3,0.2
		c-0.1,0.3-0.2,0.7-0.4,1.1c-0.8,0-1.5,0.2-2.3,0.2l0.1,0.1C170.3,50.4,171.1,50.2,171.9,50.2z"/>
	<path class="st0" d="M184.2,50.5c-0.2-0.2-0.3-0.3-0.4-0.5C183.9,50.3,184,50.4,184.2,50.5z"/>
	<path class="st0" d="M171.6,50.4c-0.6,0-1.2,0.1-1.8,0.2c0.3,0.3,0.7,0.5,1,0.8c-0.3-0.3-0.6-0.5-0.9-0.8
		C170.5,50.6,171,50.5,171.6,50.4z"/>
	<path class="st0" d="M169.2,50.8c0.6,0.5,1.3,1,1.9,1.5h0.1C170.6,51.8,169.9,51.3,169.2,50.8C169.3,50.8,169.2,50.8,169.2,50.8z"
		/>
	<path class="st0" d="M171.6,50.4L171.6,50.4c-0.1,0.2-0.1,0.4-0.2,0.7C171.5,50.8,171.6,50.6,171.6,50.4z"/>
	<path class="st0" d="M167.9,50.5c0.4-0.2,0.7-0.2,1.1-0.2l-0.1-0.1c-0.3-0.2-0.6-0.4-0.9-0.7c-0.1,0-0.1,0-0.1-0.1l0.1-0.1
		c0.1,0.1,0.1,0.1,0.2,0.1c0,0,0,0-0.1-0.1s-0.2-0.1-0.3-0.1c-0.1,0.1-0.1,0.2,0,0.2c0,0.1,0,0.1,0.1,0.1c0.3,0.3,0.6,0.5,0.9,0.7
		c-0.3,0.1-0.7,0.1-1.1,0.2c-0.2,0-0.3,0.1-0.2,0.2c0,0,0,0.1,0.1,0.1c0.1,0.1,0.2,0.1,0.3,0.2h0.1c-0.1-0.1-0.2-0.1-0.3-0.2
		C167.6,50.5,167.8,50.5,167.9,50.5z"/>
	<path class="st0" d="M185.3,48.3L185.3,48.3c0,0,0,0.1,0,0.2C185.3,48.4,185.3,48.4,185.3,48.3z"/>
	<path class="st0" d="M183.7,48.4c0.6,0,1-0.1,1.5-0.1C184.6,48.3,184.2,48.4,183.7,48.4c-0.1,0.2-0.2,0.3-0.4,0.5h0.1
		C183.6,48.7,183.7,48.6,183.7,48.4z"/>
	<path class="st0" d="M178.9,48.7c-0.8,0.1-1.4,0.5-1.3,1C177.6,49.2,178.1,48.8,178.9,48.7z"/>
	<path class="st0" d="M185.4,48.7c-0.5,0.2-1,0.2-1.5,0.2C184.4,48.9,185,48.9,185.4,48.7z"/>
	<rect x="205.1" y="62.3" class="st0" width="0" height="0.5"/>
	<path class="st0" d="M188.3,51.3c1.4,0,2.8-0.1,4.3-0.1C191.1,51.2,189.7,51.2,188.3,51.3z"/>
	<path class="st0" d="M178.4,51.8c1.2-0.1,2.5-0.2,3.8-0.3C180.9,51.6,179.6,51.7,178.4,51.8z"/>
	<path class="st0" d="M201.4,62.8L201.4,62.8l0.1-0.1L201.4,62.8L201.4,62.8z"/>
	<path class="st0" d="M174.9,52.2c1.1-0.2,2.3-0.3,3.5-0.4C177.2,52,176,52.1,174.9,52.2z"/>
	<path class="st0" d="M209.8,51.9h0.1c-4.5-0.2-9.1-0.2-13.5-0.1C200.9,51.7,205.3,51.8,209.8,51.9z"/>
	<path class="st0" d="M164.9,49.3c-0.3,0-0.6,0.1-0.9,0.1C164.3,49.4,164.6,49.3,164.9,49.3L164.9,49.3z"/>
	<rect x="200.6" y="62.3" class="st0" width="0" height="0.5"/>
	<polygon class="st0" points="209.8,65.3 196.1,65.3 196.1,65.4 209.9,65.5 209.8,51.9 	"/>
	<path class="st0" d="M194.8,51.1c1.5,0,2.9,0,4.4,0C197.7,51.1,196.2,51.1,194.8,51.1z"/>
	<path class="st0" d="M184.2,51.4c1.3-0.1,2.7-0.1,4.1-0.2C186.9,51.3,185.5,51.4,184.2,51.4z"/>
	<path class="st0" d="M243.9,46.7c-3.4-0.7-7-1.2-10.9-1.6c3.8,0.4,7.3,1,10.7,1.8C243.8,46.8,243.8,46.8,243.9,46.7z"/>
	<path class="st0" d="M242.9,49.6c0.2-0.4,0.5-0.7,0.8-1.1l-0.6,0.6L242.9,49.6z"/>
	<path class="st0" d="M244.5,47.8c0.3-0.3,0.6-0.5,0.8-0.7c-0.2-0.1-0.5-0.1-0.8-0.2l0,0l0,0l0,0c0,0-0.1,0.1-0.2,0.1
		c0.2,0.1,0.4,0.1,0.6,0.1L244.5,47.8z"/>
	<path class="st0" d="M237,54.3c-3.3,2.6-6.8,5.1-10.1,7.7C230.2,59.5,233.7,56.9,237,54.3z"/>
	<path class="st0" d="M206.9,46.7c2.5,0.1,5.1,0.1,7.6,0.2c0.3,0,0.5,0,0.7-0.1c-0.3,0-0.5,0-0.8,0
		C211.9,46.7,209.4,46.7,206.9,46.7z"/>
	<path class="st0" d="M214.4,46.8c-3.8-0.2-7.7-0.2-11.5-0.2c0.7,0,1.3,0,2,0C208,46.6,211.2,46.7,214.4,46.8z"/>
	<path class="st0" d="M239.2,52.6c-0.1,0.1-0.2,0.2-0.3,0.2C239,52.7,239.1,52.7,239.2,52.6z"/>
	<path class="st0" d="M201.2,62.2c0,0.1-0.1,0.1-0.1,0.2c0,0,0-0.1,0.1-0.1h0.1h0.1l0,0C201.4,62.2,201.3,62.2,201.2,62.2z"/>
	<path class="st0" d="M202.6,62.7L202.6,62.7L202.6,62.7z"/>
	<rect x="203.2" y="62.3" class="st0" width="0.1" height="0.5"/>
	<path class="st0" d="M202.6,62.4L202.6,62.4C202.7,62.4,202.7,62.4,202.6,62.4C202.7,62.4,202.7,62.4,202.6,62.4z"/>
	<path class="st0" d="M202.6,62.8c0.2,0,0.3-0.1,0.2-0.2C202.8,62.7,202.8,62.8,202.6,62.8z"/>
	<path class="st0" d="M204.6,59l0.6,0.8L204.6,59z"/>
	<polygon class="st0" points="206.4,62.7 206.4,62.8 206.5,62.9 206.6,62.9 206.5,62.8 206.5,62.8 	"/>
	<polygon class="st0" points="203.2,58.4 203,58.7 203.1,58.7 203.3,58.4 	"/>
	<path class="st0" d="M186.2,50.2c-0.1-0.7-0.2-1.4-0.4-2.1C186,48.9,186.1,49.6,186.2,50.2z"/>
	<polygon class="st0" points="205.4,62.5 205.4,62.4 205.2,62.5 	"/>
	<polygon class="st0" points="206.5,62.3 206.4,62.3 206.4,62.4 	"/>
	<path class="st0" d="M201.1,62.4L201.1,62.4L201.1,62.4L201.1,62.4z"/>
	<path class="st0" d="M201.6,62.6L201.6,62.6L201.6,62.6C201.7,62.6,201.7,62.6,201.6,62.6z"/>
	<path class="st0" d="M201.2,62.7c-0.1,0-0.1,0-0.1-0.1L201.2,62.7c-0.1-0.1-0.2-0.2-0.2-0.3s0-0.1,0.1-0.2c-0.2,0-0.3,0.1-0.3,0.3
		S200.9,62.8,201.2,62.7L201.2,62.7c0.1,0.1,0.2,0,0.2,0c-0.1,0-0.1,0-0.1,0C201.2,62.7,201.2,62.7,201.2,62.7z"/>
	<path class="st0" d="M201.1,62.5c0,0.1,0,0.1,0.1,0.1c0,0,0.1,0,0.1-0.1h-0.1H201.1z"/>
	<polygon class="st0" points="202.3,62.5 202.3,62.4 202.1,62.5 	"/>
	<polygon class="st0" points="201.6,62.6 201.8,62.8 201.8,62.6 201.7,62.6 	"/>
	<polygon class="st0" points="204,59 204,58.9 202.9,58.9 202.8,59 202.8,59.1 202.9,59 	"/>
	<polygon class="st0" points="201.8,62.3 201.7,62.3 201.7,62.4 201.8,62.5 	"/>
	<path class="st0" d="M204.9,53.7L204.9,53.7L204.9,53.7z"/>
	<path class="st0" d="M208.3,49.6c0.6-0.1,1.2,0,1.8,0c-0.7,0-1.3-0.1-2-0.1C208.2,49.5,208.2,49.6,208.3,49.6z"/>
	<path class="st0" d="M207.8,48.7L207.8,48.7c-0.2,0.1-0.2,0.1-0.3,0.2C207.6,48.8,207.6,48.8,207.8,48.7L207.8,48.7z"/>
	<path class="st0" d="M218.4,49c-0.1-0.4-0.4-0.7-0.5-1c-0.1-0.1,0-0.2,0.1-0.2h-0.1h-0.1c-0.1,0-0.2,0.1-0.1,0.2
		c0.1,0.3,0.3,0.6,0.5,1h0.1H218.4z"/>
	<path class="st0" d="M219.7,51c-0.3-0.6-0.7-1.1-1-1.7c-0.4-0.1-0.8,0-1.3-0.1c-0.1,0-0.2-0.1-0.2-0.2c0-0.1,0-0.1,0.1-0.1
		c-0.1,0-0.1,0-0.1,0c-0.1,0-0.2,0-0.2,0.1s0.1,0.2,0.2,0.2c0.5,0.1,0.9,0,1.3,0.1c0.3,0.6,0.7,1.1,1,1.7
		C219.5,51.1,219.6,51.1,219.7,51C219.7,51.1,219.7,51.1,219.7,51L219.7,51C219.8,51.1,219.7,51.1,219.7,51z"/>
	<path class="st0" d="M207.7,49.2c-0.1-0.1-0.1-0.2-0.2-0.3C207.6,49,207.6,49.1,207.7,49.2z"/>
	<path class="st0" d="M210.3,47.8L210.3,47.8c-0.1,0-0.3,0-0.4,0C210,47.8,210.1,47.8,210.3,47.8z"/>
	<path class="st0" d="M208.6,47.8c0,0-0.1,0.1-0.2,0.2C208.5,47.9,208.6,47.9,208.6,47.8L208.6,47.8z"/>
	<path class="st0" d="M210,48.8c0,0.1,0,0.3,0,0.4h0.1c0-0.1,0-0.3,0-0.4c-0.7-0.1-1.5-0.1-2.3-0.1C208.6,48.7,209.3,48.7,210,48.8z
		"/>
	<path class="st0" d="M207.2,49c0.3,0.2,0.5,0.6,0.8,0.8C207.8,49.5,207.6,49.2,207.2,49c0.2-0.5,0.6-0.8,0.9-1.1l0,0
		C207.7,48.2,207.4,48.5,207.2,49z"/>
	<path class="st0" d="M205.3,47.9C205.3,47.9,205.2,47.9,205.3,47.9c0.2,0.3,0.4,0.7,0.8,1c0,0,0,0,0.1,0
		C205.8,48.5,205.6,48.2,205.3,47.9z"/>
	<path class="st0" d="M207.2,47.9c-0.3,0.2-0.4,0.4-0.6,0.6l0,0l0,0C206.9,48.3,207,48.1,207.2,47.9z"/>
	<path class="st0" d="M208.3,48.2L208.3,48.2l-0.1,0.1c0.7-0.1,1.4,0,2,0v-0.1C209.6,48.3,208.9,48.2,208.3,48.2z"/>
	<path class="st0" d="M219.3,49.7c-0.1-0.2-0.2-0.3-0.3-0.5C219.1,49.3,219.2,49.5,219.3,49.7z"/>
	<path class="st0" d="M221.7,49c0.3-0.3,0.7-0.7,1-1c-0.1-0.1-0.1-0.1-0.2,0c-0.3,0.3-0.7,0.7-1,1C221.5,49,221.6,49,221.7,49
		L221.7,49z"/>
	<path class="st0" d="M221.6,49.5c0.4,0,0.7,0.1,1.2,0.1h0.1C222.5,49.6,222.1,49.5,221.6,49.5L221.6,49.5z"/>
	<path class="st0" d="M207.3,50c-0.2-0.3-0.4-0.5-0.6-0.7c-0.1,0.1-0.2,0.2-0.3,0.3c-0.2,0.1-0.3,0.2-0.4,0.3c-0.3,0-0.5,0-0.8,0
		l-0.1,0.1c0.3,0,0.6,0,0.9,0c0.2-0.1,0.3-0.2,0.4-0.3c0.1-0.1,0.2-0.2,0.3-0.3C206.9,49.6,207.1,49.8,207.3,50
		c0.4,0.1,0.6,0.1,0.9,0.1c0,0,0-0.1-0.1-0.1C207.9,50,207.7,50,207.3,50z"/>
	<path class="st0" d="M234.9,50.5L234.9,50.5c-0.1,0-0.1,0.1-0.1,0.2C234.8,50.6,234.9,50.6,234.9,50.5z"/>
	<path class="st0" d="M235.1,51.5c0.2-0.6,0.5-1.3,0.7-1.9c0.1,0.1,0.4,0.1,0.6,0.1c0.3,0.6,0.6,1,0.8,1.5c0.2-0.3,0.3-0.8,0.5-1.2
		c0.2,0,0.5,0.1,0.8,0v-0.1c-0.3,0.1-0.6,0-0.8,0c-0.2,0.4-0.3,0.9-0.5,1.2c-0.2-0.5-0.6-0.9-0.8-1.5c-0.2,0-0.5,0-0.6-0.2
		C235.6,50.1,235.2,50.8,235.1,51.5L235.1,51.5z"/>
	<path class="st0" d="M164.1,49.5l0.1,0.1c1.3,1.1,2.6,2.2,4,3.3l0.5,0.4l0.1,0.1l0.3,0.2c0.2,0.2,0.4,0.3,0.6,0.5l0.1,0.1l0.1,0.1
		l0,0l0,0c6.4-1.5,16-2.2,26.1-2.4h0.1c0.1-0.1,0.2-0.1,0.3-0.1c-0.1,0-0.2,0-0.3,0H196c-10.2,0.2-19.8,1-26.2,2.4l-0.1-0.1
		c-0.2-0.2-0.4-0.3-0.6-0.5l-0.3-0.2c1.3-0.4,2.8-0.7,4.4-0.9c-1.6,0.3-3.1,0.6-4.4,0.9l-0.1-0.1l-0.5-0.4c-1-0.8-2.2-2.3-3.2-3.5
		C164.7,49.4,164.4,49.5,164.1,49.5l-0.1-0.1c-0.2-0.2-0.8-1.4-1-1.9c-0.5,0.1-1,0.1-1.5,0.2C161.7,47.9,163.9,49.2,164.1,49.5
		L164.1,49.5z"/>
	<path class="st0" d="M233.1,49.7c0.2-0.1,0.3-0.2,0.5-0.3c0.5,0.1,1.1,0.1,1.6,0.2v-0.1c-0.5-0.1-1.1,0-1.7-0.2
		c-0.2,0.1-0.4,0.3-0.6,0.4C233,49.7,233,49.7,233.1,49.7z"/>
	<path class="st0" d="M237.6,52.1c0.3-0.7,0.6-1.4,0.9-2.1C238.2,50.7,237.9,51.4,237.6,52.1L237.6,52.1z"/>
	<path class="st0" d="M232.5,50.3c0.8,0,1.6,0.1,2.3,0.2v-0.1C234.1,50.4,233.2,50.2,232.5,50.3c-0.2-0.1-0.2,0-0.3,0
		C232.4,50.3,232.3,50.2,232.5,50.3z"/>
	<path class="st0" d="M232.4,51.4L232.4,51.4L232.4,51.4z"/>
	<path class="st0" d="M236,51.1c-0.1,0.2-0.2,0.4-0.2,0.6C235.8,51.5,235.9,51.3,236,51.1z"/>
	<path class="st0" d="M232.3,51.3c0.1,0,0.1,0,0.1,0c-0.2-0.3-0.4-0.7-0.7-1.1c0.4-0.3,0.9-0.6,1.3-0.8c-0.4,0.2-0.9,0.5-1.3,0.8
		C231.9,50.6,232.1,50.9,232.3,51.3z"/>
	<path class="st0" d="M228.5,51c0.8,0,1.5-0.4,1.6-0.9C229.9,50.6,229.2,51,228.5,51z"/>
	<path class="st0" d="M232.6,51.1c0.1,0.1,0.1,0.2,0.3,0.4C232.8,51.3,232.8,51.2,232.6,51.1z"/>
	<path class="st0" d="M211.3,50.1c0-0.2,0.1-0.4,0.1-0.6C211.4,49.7,211.4,49.9,211.3,50.1L211.3,50.1z"/>
	<path class="st0" d="M210.6,49.5c0-0.5,0.1-1,0.1-1.5C210.6,48.5,210.5,49,210.6,49.5z"/>
	<path class="st0" d="M229.5,51h0.1l0,0c0.5-0.3,0.9-0.6,1.4-0.8c-0.2-0.4-0.5-0.7-0.7-1.1c0.2,0,0.6,0,0.8,0.1
		c0.1,0.1,0.2,0.4,0.3,0.6c0.2-0.1,0.5-0.4,0.7-0.5c0.3,0,0.6,0,0.8,0.1l0,0c0-0.1,0.1-0.1,0.1-0.1c-0.3,0-0.7,0-0.9-0.1
		c-0.2,0.1-0.5,0.4-0.7,0.5c-0.1-0.1-0.2-0.4-0.3-0.6c-0.3-0.1-0.6-0.1-0.9-0.1c0.2,0.4,0.5,0.7,0.7,1.1
		C230.5,50.3,229.9,50.7,229.5,51z"/>
	<path class="st0" d="M228.9,48.9c-1,0-1.7,0.4-1.9,0.9C227.2,49.3,228,48.9,228.9,48.9z"/>
	<path class="st0" d="M212.6,49.2c-0.4-0.4-0.7-0.8-1.2-1.3c-0.2,0-0.5,0-0.7-0.1v0.1c0.2,0.1,0.5,0.1,0.7,0.1
		C211.9,48.4,212.2,48.8,212.6,49.2c0.1-0.4,0.1-0.8,0.2-1.1c0.2-0.1,0.5,0,0.8,0.1c0,0.3-0.1,0.7-0.1,1c0-0.3,0.1-0.7,0.1-1
		c0-0.1,0-0.1,0-0.2c-0.3,0-0.6-0.1-0.8-0.1C212.7,48.3,212.7,48.7,212.6,49.2z"/>
	<path class="st0" d="M235,51.7c0.1-0.1,0.1-0.1,0.1-0.2C235,51.6,235,51.6,235,51.7z"/>
	<path class="st0" d="M188,49.3c0-0.4-0.1-0.8-0.2-1.2C187.8,48.5,187.9,48.9,188,49.3z"/>
	<path class="st0" d="M192.7,48.8c0-0.1,0.1-0.2,0.2-0.2c0.3,0.1,0.7,0,1,0c-0.3-0.3-0.6-0.5-0.8-0.8c-0.1,0-0.1-0.1,0-0.2
		c0.1,0,0.1,0,0.1,0c0-0.1-0.1-0.1-0.2,0c-0.1,0.1-0.1,0.2,0,0.2c0.3,0.3,0.6,0.5,0.8,0.8c-0.3-0.1-0.7,0-1,0
		C192.7,48.6,192.6,48.7,192.7,48.8C192.6,48.9,192.7,49,192.7,48.8L192.7,48.8L192.7,48.8z"/>
	<path class="st0" d="M198.3,48.4c0.1,0,0.2,0.1,0.4,0.2c0,0.1-0.1,0.2-0.2,0.2c0,0,0,0,0.1,0s0.2-0.1,0.2-0.2
		C198.6,48.5,198.5,48.4,198.3,48.4C198.4,48.4,198.3,48.4,198.3,48.4z"/>
	<path class="st0" d="M193.2,47.6L193.2,47.6L193.2,47.6z"/>
	<path class="st0" d="M196.8,48.6c0.2-0.4,0.5-0.7,0.7-1.1c0-0.1,0.1-0.1,0.1-0.1l0,0c-0.1,0-0.2,0-0.3,0.1
		c-0.2,0.4-0.5,0.7-0.7,1.1c-0.7,0-1.5,0-2.2,0.1l0,0C195.2,48.6,196,48.6,196.8,48.6z"/>
	<path class="st0" d="M195.5,50.5c-0.4-0.5-1-1.1-1.4-1.6H194c0.4,0.5,1,1.1,1.4,1.6C195.4,50.5,195.5,50.6,195.5,50.5L195.5,50.5
		C195.6,50.5,195.5,50.5,195.5,50.5z"/>
	<path class="st0" d="M197,48.8c-0.4,0.6-0.7,1.1-1.1,1.7c-0.1,0.1-0.1,0.1-0.2,0.1h0.1c0.1,0,0.1,0,0.2-0.1
		C196.4,49.9,196.7,49.4,197,48.8c0.5,0.1,0.9,0,1.4,0C197.8,48.7,197.5,48.8,197,48.8z"/>
	<path class="st0" d="M194.4,48.9c0.4,0.5,0.8,0.8,1.1,1.2C195.2,49.6,194.8,49.3,194.4,48.9z"/>
	<path class="st0" d="M192.9,48.9c0.4,0.1,0.8,0,1.1,0c0,0,0,0-0.1,0C193.6,48.9,193.3,48.9,192.9,48.9z"/>
	<path class="st0" d="M198.2,48.4L198.2,48.4c-0.3,0-0.6,0-0.9,0c0,0.1,0,0.1,0,0.1C197.5,48.4,197.9,48.4,198.2,48.4z"/>
	<path class="st0" d="M186.7,49c0.5,0.4,0.9,0.8,1.5,1.2C187.7,49.8,187.2,49.4,186.7,49L186.7,49z"/>
	<path class="st0" d="M186.2,50.2c0.2,0.1,0.5,0,0.7,0C186.7,50.1,186.4,50.2,186.2,50.2z"/>
	<path class="st0" d="M186.5,48.1c-0.2-0.1-0.5,0-0.7,0C186,48.2,186.3,48.1,186.5,48.1z"/>
	<path class="st0" d="M197.9,47.6c-0.1,0.2-0.4,0.5-0.6,0.8C197.5,48.2,197.8,47.9,197.9,47.6z"/>
	<path class="st0" d="M188.6,48.1c0.1,0.4,0.1,0.9,0.2,1.3C188.7,48.9,188.7,48.4,188.6,48.1c-0.3,0-0.6,0-0.8,0
		C188.1,48.1,188.3,48.2,188.6,48.1z"/>
	<path class="st0" d="M193.3,47.5C193.3,47.6,193.4,47.6,193.3,47.5C193.4,47.5,193.4,47.5,193.3,47.5z"/>
	<path class="st0" d="M203.9,48.2c0.4,0,0.8,0.3,0.8,0.6C204.7,48.5,204.4,48.2,203.9,48.2z"/>
	<path class="st1" d="M238.8,366.7c-11.4,0.4-24.3,0.6-38.6,0.6c-14.8,0-27.7-0.3-38.8-0.7c11.9,3.1,25.5,5.6,40.6,5.5
		C215.7,372,227.8,369.7,238.8,366.7z"/>
	<path class="st1" d="M209.9,65.5H196v-0.2V51.9c-10.1,0.2-19.7,0.9-26.1,2.4l0,0c3.4,2.6,6.8,5.3,10.1,7.7l0,0
		c5,3.7,9.7,7.2,13.6,10.6l9.7,7.8l10.1-7.8c3.9-3.4,8.6-6.9,13.5-10.6l0,0c3.3-2.6,6.8-5.1,10.1-7.7c-6.8-1.2-16.7-2-27.1-2.3
		L209.9,65.5L209.9,65.5z"/>
	<path class="st2" d="M199.3,62.4v0.3h0.1v-0.1C199.4,62.5,199.4,62.4,199.3,62.4z"/>
	<polygon class="st2" points="206.5,62.8 206.4,62.6 206.4,62.7 	"/>
	<polygon class="st2" points="206.4,62.5 206.5,62.3 206.4,62.4 	"/>
	<path class="st2" d="M201.2,62.3C201.2,62.3,201.1,62.3,201.2,62.3C201.1,62.4,201.1,62.4,201.2,62.3c-0.1,0.1-0.1,0.2-0.1,0.2h0.1
		h0.1h0.1v-0.2H201.2C201.3,62.3,201.2,62.3,201.2,62.3z"/>
	<path class="st2" d="M201.2,62.7l-0.1-0.1C201.1,62.7,201.1,62.7,201.2,62.7z"/>
	<polygon class="st2" points="202.1,62.5 202.3,62.4 202.1,62.4 	"/>
	<polygon class="st2" points="205.2,62.5 205.4,62.4 205.2,62.4 	"/>
	<path class="st2" d="M209.8,65.3V51.9c-4.5-0.1-8.9-0.2-13.4-0.1c-0.1,0-0.2,0-0.3,0.1v13.4H209.8z M200.7,62.8L200.7,62.8h-0.1
		v-0.5l0,0h0.1V62.8z M202.3,62.4L202.3,62.4v0.2h-0.2v0.1h0.2v0.1H202v-0.1h-0.1l-0.1-0.1l0,0v0.2l-0.2-0.2l0,0l0,0l0,0
		c0,0-0.1,0-0.1,0.1v0.1h-0.1v-0.1c0,0-0.1,0.1-0.2,0.1h-0.1c-0.2,0-0.3-0.1-0.3-0.3s0.1-0.3,0.3-0.3c0-0.1,0.1-0.1,0.2-0.1
		c0.1,0,0.2,0,0.2,0.1l-0.1,0.1h0.1l0.2,0.3v-0.2v-0.1h0.1v0.2v0.1h0.1v-0.4h0.1v0.1L202.3,62.4L202.3,62.4z M202,59.8h-0.4l0.5-0.7
		l-0.5-0.7h0.4h0.1l0.2,0.4l0.3-0.4h0.4l-0.4,0.7l0.4,0.7h-0.4l-0.3-0.4L202,59.8z M203.2,61.3v0.2h-0.5v-0.9h0.2v0.7H203.2z
		 M203.1,59.5h0.9v0.3h-0.7L203.1,59.5z M202.9,59.2l-0.1-0.1l0,0V59l0.1-0.1h1.1V59v0.2H202.9z M203.1,58.7H203l0.2-0.3h0.1h0.7
		v0.3H203.1z M202.6,62.8h-0.2v-0.5h0.2c0.2,0,0.3,0.1,0.2,0.3C202.9,62.7,202.8,62.8,202.6,62.8z M203.3,62.8L203.3,62.8h-0.2v-0.5
		h0.1h0.1L203.3,62.8z M203.8,62.8L203.8,62.8l-0.3-0.3v0.3h-0.1v-0.5h0.1l0.2,0.3v-0.3h0.1V62.8z M204.4,62.4h-0.1v0.4h-0.1v-0.4
		H204v-0.1L204.4,62.4L204.4,62.4z M204.9,62.8h-0.1v-0.2h-0.2v0.2l0,0h-0.1v-0.5h0.1l0,0v0.2h0.2v-0.2h0.1V62.8z M205.4,62.4
		L205.4,62.4v0.2h-0.2v0.1h0.2v0.1h-0.3l0,0v-0.5l0,0l0,0L205.4,62.4L205.4,62.4z M205.5,59.8h-0.3l-0.6-0.8v0.8l0,0h-0.3h-0.1v-1.4
		h0.1h0.3l0,0l0.6,0.9v-0.9h0.3V59.8z M206.2,62.3L206.2,62.3h0.2h0.1h0.1l-0.2,0.3l0.3,0.2h-0.2l0.1,0.1h-0.1l-0.1-0.1h-0.1v0.1
		l-0.1-0.1V62.3z M205.7,62.3L205.7,62.3l0.1,0.3c0,0.1,0,0.1,0.1,0.1s0.1,0,0.1-0.1v-0.3h0.1l0,0v0.3c0,0.1-0.1,0.2-0.2,0.2
		s-0.2,0-0.2-0.2L205.7,62.3L205.7,62.3z M200.5,55h0.9l-0.6-1c-0.1-0.1,0-0.2,0.1-0.3s0.2,0,0.3,0.1l0.7,1.2h2l0.7-1.2
		c0.1-0.1,0.1-0.1,0.2-0.1c0,0,0.1,0,0.2,0c0,0,0,0,0.1,0v0.1c0.1,0.1,0.1,0.1,0,0.2l-0.6,1h1c0.1,0,0.2,0.1,0.2,0.2
		c0,0.1-0.1,0.2-0.2,0.2h-1.2l-1.1,1.9l0,0c0,0.1-0.1,0.1-0.2,0.1c-0.1,0-0.2,0-0.2-0.1l-1.1-1.9h-1.1c-0.1,0-0.2-0.1-0.2-0.2
		C200.3,55.1,200.4,55,200.5,55z M201,58.4c0.4,0,0.7,0.3,0.7,0.7s-0.3,0.7-0.7,0.7s-0.8-0.3-0.7-0.7
		C200.2,58.7,200.6,58.4,201,58.4z M199.7,62.3h0.3v0.1c0-0.1,0.1-0.2,0.2-0.2c0,0,0,0,0.1,0s0.1,0.1,0.1,0.2h-0.1l0,0h-0.1
		c0,0,0,0,0.1,0.1c0,0,0.1,0,0.1,0.1l0,0l0,0l0.1,0.1c0,0.1-0.1,0.2-0.2,0.2c-0.1,0-0.2-0.1-0.2-0.2h0.1c-0.1-0.1-0.1-0.2-0.2-0.3
		L199.7,62.3l0.1,0.2h0.2v0.1h-0.2v0.1h0.2v0.1h-0.3V62.3z M199.1,62.3h0.2h0.1c0.1,0,0.2,0.1,0.2,0.3c0,0.1,0,0.2-0.1,0.2
		c0,0.1-0.1,0.1-0.2,0.1h-0.2V62.3z"/>
	<path class="st2" d="M201.3,62.2C201.2,62.2,201.2,62.2,201.3,62.2c0,0,0.1,0,0.1,0.1c0-0.1,0-0.1,0-0.1
		C201.3,62.2,201.3,62.2,201.3,62.2z"/>
	<path class="st2" d="M200.3,62.7L200.3,62.7L200.3,62.7z"/>
	<path class="st2" d="M202.6,62.4L202.6,62.4l-0.1,0.3h0.1l0,0c0.1-0.1,0.1-0.1,0.1-0.1C202.7,62.6,202.7,62.5,202.6,62.4
		C202.7,62.4,202.7,62.4,202.6,62.4z"/>
	<polygon class="st2" points="203.6,55.4 202.1,55.4 202.8,56.8 	"/>
	<path class="st2" d="M201,59.5c0.2,0,0.4-0.2,0.4-0.4s-0.2-0.4-0.4-0.4s-0.4,0.2-0.4,0.4S200.8,59.5,201,59.5z"/>
	<polygon class="st3" points="209.9,65.5 209.9,52 209.9,51.9 209.8,51.9 	"/>
	<polygon class="st3" points="196,65.5 209.9,65.5 196.1,65.4 196.1,65.3 196.1,51.9 196,51.9 196,65.3 	"/>
	<path class="st4" d="M201,59.8c0.4,0,0.7-0.3,0.7-0.7s-0.3-0.7-0.7-0.7s-0.7,0.3-0.7,0.7C200.2,59.5,200.6,59.8,201,59.8z
		 M201,58.7c0.2,0,0.4,0.2,0.4,0.4s-0.2,0.4-0.4,0.4s-0.4-0.2-0.4-0.4S200.8,58.7,201,58.7z"/>
	<polygon class="st4" points="203,59.8 202.6,59.1 203,58.4 202.6,58.4 202.3,58.8 202.1,58.4 202,58.4 201.6,58.4 202.1,59.1 
		201.6,59.8 202,59.8 202.3,59.4 202.6,59.8 	"/>
	<polygon class="st4" points="205.2,59.3 204.6,58.4 204.6,58.4 204.3,58.4 204.2,58.4 204.2,59.8 204.3,59.8 204.6,59.8 
		204.6,59.8 204.6,59 204.6,59 205.2,59.8 205.5,59.8 205.5,58.4 205.2,58.4 	"/>
	<polygon class="st4" points="204,58.4 203.3,58.4 203.1,58.7 204,58.7 	"/>
	<polygon class="st4" points="204,59.8 204,59.5 203.1,59.5 203.3,59.8 	"/>
	<polygon class="st4" points="204,59 202.9,59 202.8,59.1 202.8,59.1 202.9,59.2 204,59.2 	"/>
	<path class="st4" d="M200.5,55.4h1.1l0,0l1.1,1.9c0,0.1,0.1,0.1,0.2,0.1c0.1,0,0.1,0,0.2-0.1l0,0l1.1-1.9h1.2
		c0.1,0,0.2-0.1,0.2-0.2c0-0.1-0.1-0.2-0.2-0.2h-1l0.6-1c0.1-0.1,0-0.1,0-0.2c0,0,0,0,0-0.1c0,0,0,0-0.1,0c0,0-0.1,0-0.2,0
		c-0.1,0-0.1,0.1-0.1,0.1l-0.7,1.2h-2l-0.7-1.2c-0.1-0.1-0.2-0.1-0.3-0.1c-0.1,0.1-0.1,0.2-0.1,0.3l0.6,1h-0.9
		c-0.1,0-0.2,0.1-0.2,0.2C200.3,55.3,200.4,55.4,200.5,55.4z M202.1,55.4h1.5l-0.8,1.4l-0.8-1.4H202.1z"/>
	<path class="st4" d="M199.4,62.6L199.4,62.6c0,0.2,0,0.2-0.1,0.2h0.1c0,0,0,0,0.1,0s0.1-0.1,0.1-0.2c0-0.2-0.1-0.3-0.2-0.3
		l-0.1,0.1C199.4,62.4,199.4,62.5,199.4,62.6z"/>
	<polygon class="st4" points="200,62.7 199.8,62.7 199.8,62.6 200,62.6 200,62.5 199.8,62.5 199.8,62.4 200,62.4 200,62.3 
		199.7,62.3 199.7,62.8 200,62.8 	"/>
	<path class="st4" d="M200.3,62.7L200.3,62.7C200.3,62.7,200.3,62.6,200.3,62.7h-0.1h-0.1c0,0.1,0.1,0.2,0.2,0.2
		c0.1,0,0.2-0.1,0.2-0.2C200.5,62.7,200.5,62.6,200.3,62.7L200.3,62.7C200.4,62.6,200.3,62.6,200.3,62.7L200.3,62.7z"/>
	<path class="st4" d="M200.3,62.6c-0.1-0.1-0.2-0.1-0.2-0.1s0,0,0-0.1l0,0c0,0,0,0,0-0.1c0,0,0,0,0.1,0v0.1h0.1l0,0c0,0,0,0,0-0.1
		v-0.1h-0.1c-0.1,0-0.2,0.1-0.2,0.2C200.1,62.5,200.1,62.6,200.3,62.6z"/>
	<path class="st4" d="M200.3,62.6C200.4,62.5,200.3,62.5,200.3,62.6L200.3,62.6z"/>
	<rect x="200.6" y="62.3" class="st4" width="0.1" height="0.5"/>
	<line class="st0" x1="201.6" y1="62.6" x2="201.6" y2="62.7"/>
	<line class="st0" x1="201.7" y1="62.6" x2="201.6" y2="62.6"/>
	<polygon class="st4" points="201.7,62.4 201.7,62.6 201.8,62.6 201.8,62.6 201.8,62.5 	"/>
	<path class="st4" d="M201.5,62.3L201.5,62.3L201.5,62.3l-0.1,0.2h-0.1c0,0.1-0.1,0.1-0.1,0.1c-0.1,0-0.1,0-0.1-0.1v-0.1l0,0l0,0
		c0-0.1,0.1-0.1,0.1-0.2c0,0,0,0,0.1,0c0,0,0,0,0.1,0C201.4,62.2,201.4,62.2,201.5,62.3L201.5,62.3c0-0.2-0.1-0.2-0.2-0.2
		c-0.1,0-0.2,0-0.2,0.1c0,0-0.1,0.1-0.1,0.2c0,0.1,0.1,0.2,0.2,0.3c0,0,0,0,0.1,0c0,0,0,0,0.1,0h0.1c0,0,0.1,0,0.1-0.1
		c0,0,0,0,0.1,0L201.5,62.3z"/>
	<polyline class="st0" points="201.3,62.5 201.2,62.5 201.1,62.5 	"/>
	<polygon class="st4" points="202,62.2 201.9,62.2 201.9,62.6 201.8,62.6 201.9,62.7 202,62.7 202,62.8 202.3,62.8 202.3,62.7 
		202.1,62.7 202.1,62.6 202.3,62.6 202.3,62.5 202.1,62.5 202.1,62.4 202.3,62.4 202.3,62.3 202,62.3 	"/>
	<path class="st4" d="M202.6,62.3h-0.2v0.5h0.2c0.2,0,0.2-0.1,0.2-0.2C202.9,62.4,202.8,62.3,202.6,62.3z M202.6,62.7L202.6,62.7
		L202.6,62.7h-0.1v-0.3h0.1l0,0c0,0,0.1,0,0.1,0.1C202.7,62.5,202.7,62.6,202.6,62.7C202.7,62.6,202.7,62.6,202.6,62.7z"/>
	<rect x="203.1" y="62.3" class="st4" width="0.1" height="0.5"/>
	<polygon class="st4" points="203.7,62.6 203.5,62.3 203.4,62.3 203.4,62.8 203.5,62.8 203.5,62.5 203.7,62.8 203.8,62.8 
		203.8,62.3 203.7,62.3 	"/>
	<polygon class="st4" points="204,62.4 204.2,62.4 204.2,62.8 204.3,62.8 204.3,62.4 204.4,62.4 204.4,62.3 204,62.3 	"/>
	<polygon class="st4" points="204.8,62.5 204.6,62.5 204.6,62.3 204.6,62.3 204.5,62.3 204.5,62.8 204.6,62.8 204.6,62.8 
		204.6,62.6 204.8,62.6 204.8,62.8 204.9,62.8 204.9,62.3 204.8,62.3 	"/>
	<polygon class="st4" points="205.1,62.3 205.1,62.8 205.4,62.8 205.4,62.7 205.2,62.7 205.2,62.6 205.4,62.6 205.4,62.5 
		205.2,62.5 205.2,62.4 205.4,62.4 205.4,62.3 	"/>
	<path class="st4" d="M205.9,62.8c0.1,0,0.2-0.1,0.2-0.2v-0.3H206v0.3c0,0.1,0,0.1-0.1,0.1s-0.1,0-0.1-0.1v-0.3h-0.1v0.3
		C205.7,62.8,205.8,62.8,205.9,62.8z"/>
	<polygon class="st4" points="206.5,62.8 206.7,62.8 206.4,62.6 	"/>
	<polygon class="st4" points="206.3,62.8 206.4,62.8 206.4,62.7 206.4,62.6 206.6,62.3 206.5,62.3 206.4,62.5 206.4,62.4 
		206.4,62.3 206.3,62.3 206.2,62.3 206.2,62.8 	"/>
	<polygon class="st4" points="202.7,60.6 202.7,61.5 203.2,61.5 203.2,61.3 202.9,61.3 202.9,60.6 	"/>
	<path class="st5" d="M215.2,46.8c-0.2,0-0.4,0.1-0.7,0.1c-2.5-0.1-5-0.2-7.6-0.2c-15.4-0.1-30.6,1.2-41.9,2.7
		c1,1.2,2.2,2.7,3.2,3.5l0.5,0.4l0.1,0.1c1.3-0.4,2.8-0.7,4.4-0.9c0.5-0.1,1.1-0.2,1.6-0.2c1.1-0.2,2.3-0.3,3.5-0.4s2.5-0.2,3.8-0.3
		c0.7,0,1.3-0.1,2-0.1c1.3-0.1,2.7-0.1,4.1-0.2s2.8-0.1,4.3-0.1c0.7,0,1.5,0,2.2,0c1.5,0,2.9,0,4.4,0c0.9,0,1.8,0,2.7,0
		c1,0,1.9,0,2.9,0c3.4,0,6.8,0.1,10.1,0.2c1.6,0,3.3,0.1,4.9,0.2c1.6,0.1,3.1,0.1,4.6,0.2c0.5,0,0.9,0.1,1.3,0.1
		c0.4,0,0.9,0,1.4,0.1c2.3,0.2,4.5,0.4,6.5,0.7c1.5,0.2,2.9,0.4,4.4,0.7c0.1,0,0.2,0,0.2,0l0,0h0.1l0.6-0.5c0.1-0.1,0.2-0.2,0.3-0.2
		c0.7-0.7,2-2.5,3.1-3.9c-7.1-1.6-15.8-1.1-24.2-1.6C217.2,46.9,216.2,46.9,215.2,46.8z M173.7,50.3c-0.5,0-1,0.1-1.5,0.1
		c-0.3,0.7-0.5,1.2-0.7,1.8c0,0,0,0.1-0.1,0.1h-0.1h-0.1c0,0,0,0-0.1,0c-0.6-0.5-1.3-1-1.9-1.5c-0.4,0-0.7,0.1-1.2,0.1l0,0h-0.1
		c-0.1-0.1-0.2-0.1-0.3-0.2c-0.1,0-0.1-0.1-0.1-0.1c-0.1-0.1,0-0.2,0.2-0.2c0.4-0.1,0.8-0.1,1.1-0.2c-0.3-0.2-0.6-0.4-0.9-0.7
		c-0.1,0-0.1,0-0.1-0.1c-0.1,0-0.1-0.1,0-0.2c0.1,0,0.2,0,0.3,0.1c0,0,0,0,0.1,0.1h0.1c0.4,0.3,0.7,0.6,1.1,0.9
		c0.8,0,1.5-0.2,2.3-0.2c0.2-0.4,0.3-0.8,0.4-1.1c0-0.1,0.1-0.2,0.3-0.2c0.1,0,0.1,0.1,0.2,0.1c0.1,0,0.1,0,0.1,0
		c0,0.1,0.1,0.1,0.1,0.2c-0.1,0.1-0.2,0.3-0.2,0.4c-0.1,0.1-0.1,0.3-0.2,0.4c0.3,0,0.6,0,0.9-0.1c0.1,0,0.2,0.1,0.3,0.1
		c0,0,0,0,0.1,0c0,0,0.1,0.1,0.3,0.2C174.1,50.3,173.9,50.3,173.7,50.3z M185.6,49.5c-0.8,0-1.5,0.1-2.3,0.1
		c-0.1-0.1-0.2-0.1-0.3-0.2c0-0.1,0.1-0.1,0-0.2c0.9,0,1.7,0,2.5-0.1C185.5,49.2,185.6,49.4,185.6,49.5z M183.6,48.4
		c0.6,0,1-0.1,1.6-0.1h0.1l0,0c0,0,0,0.1,0,0.2c0,0.1,0,0.2,0,0.2c-0.4,0.2-1,0.2-1.5,0.2c-0.2,0-0.3,0-0.5,0h-0.1
		C183.5,48.7,183.6,48.6,183.6,48.4z M179.6,51c-0.8,0.1-1.7-0.4-1.9-1c-0.1-0.1-0.1-0.2-0.1-0.3l0,0l0,0c-0.1-0.5,0.5-0.9,1.3-1
		c0.9-0.1,1.7,0.4,1.9,1c0,0.1,0,0.2,0,0.3C180.9,50.4,180.3,50.9,179.6,51z M182.9,50.6h-0.1c-0.2-0.2-0.4-0.4-0.6-0.6
		c-0.1,0.1-0.3,0.4-0.4,0.6c-0.2,0.1-0.6,0-0.8,0.1h-0.1c0.1-0.1,0.1-0.2,0.2-0.2c-0.1,0-0.1,0-0.2,0c0.3-0.4,0.4-0.6,0.6-1
		c-0.4-0.3-0.8-0.6-1.2-0.9c0.1,0,0.1,0,0.2,0c-0.1-0.1-0.2-0.1-0.2-0.2c0.1,0,0.2,0,0.3,0s0.3,0,0.4,0s0.1,0,0.2,0h0.1
		c0.1,0.1,0.3,0.3,0.5,0.5c0.1,0.1,0.1,0.1,0.1,0.1c0.1-0.1,0.3-0.4,0.4-0.6c0,0,0.1,0,0.2,0s0.3,0,0.4,0c0.1,0,0.1,0,0.2,0h0.1
		c-0.1,0.1-0.1,0.1-0.2,0.2c0,0,0.1,0,0.2,0h0.1c-0.2,0.3-0.5,0.6-0.6,0.8c0.3,0.3,0.7,0.5,1,0.9c-0.1,0-0.2,0-0.2,0
		c0.1,0.1,0.3,0.2,0.4,0.4C183.5,50.6,183.3,50.5,182.9,50.6z M185.7,50.3C185.7,50.4,185.7,50.4,185.7,50.3c-0.4,0.1-1,0.2-1.5,0.2
		c-0.2-0.1-0.3-0.2-0.4-0.5c0.6,0,1.2-0.1,1.9-0.1C185.7,50,185.8,50.2,185.7,50.3z M188.9,50.1L188.9,50.1
		C188.9,50.2,188.9,50.2,188.9,50.1c-0.2,0-0.5,0.1-0.7,0.1c-0.6-0.4-1-0.8-1.5-1.2l0,0c0.1,0.4,0.2,0.8,0.2,1.2
		c-0.2,0-0.5,0.1-0.7,0c-0.1-0.6-0.2-1.3-0.4-2.1c0.2,0,0.5-0.1,0.7,0c0.5,0.4,1,0.7,1.5,1.2c-0.1-0.4-0.2-0.8-0.2-1.2
		c0.2,0,0.5,0,0.8-0.1c0.1,0.4,0.1,0.9,0.2,1.4C188.8,49.6,188.9,49.8,188.9,50.1L188.9,50.1z M198.6,48.8
		C198.5,48.8,198.5,48.8,198.6,48.8h-0.1c0,0,0,0-0.1,0c-0.5,0-0.9,0.1-1.3,0c-0.4,0.6-0.7,1.1-1.1,1.7c-0.1,0.1-0.1,0.1-0.2,0.1
		h-0.1h-0.1l0,0c-0.1,0-0.2-0.1-0.2-0.1c-0.4-0.5-1-1.1-1.4-1.6c-0.3,0-0.7,0.1-1.1,0h-0.1l0,0c-0.1,0.1-0.2,0-0.2-0.1
		s0.1-0.2,0.2-0.2c0.3,0,0.7-0.1,1,0c-0.2-0.3-0.5-0.5-0.8-0.8c-0.1,0-0.1-0.1,0-0.2c0.1-0.1,0.2-0.1,0.2,0l0,0c0-0.1,0-0.1,0.1-0.1
		s0.1,0,0.1,0.1l0,0c0.3,0.5,0.7,0.8,1,1.1c0.7-0.1,1.5-0.1,2.2-0.1c0.2-0.4,0.5-0.7,0.7-1.1c0.1-0.1,0.2-0.1,0.3-0.1l0,0
		c0.1,0,0.1,0,0.2,0c0.1,0,0.1,0.1,0.1,0.2l0,0c-0.1,0.3-0.4,0.6-0.6,0.8c0.3,0,0.6,0,0.9,0l0,0c0.1,0,0.1,0,0.1,0s0,0,0.1,0
		s0.2,0.1,0.4,0.2C198.8,48.7,198.7,48.8,198.6,48.8z M203.8,49.9c-0.8,0-1.5-0.5-1.5-1.1c0-0.7,0.7-1.1,1.6-1.1
		c0.9,0.1,1.6,0.5,1.5,1.2C205.2,49.5,204.7,49.9,203.8,49.9z M207.3,50.1c-0.2-0.3-0.4-0.5-0.6-0.7c-0.1,0.1-0.2,0.2-0.3,0.3
		s-0.2,0.2-0.4,0.3c-0.3,0-0.6,0-0.9,0l0.1-0.1h-0.1c0.2-0.2,0.3-0.3,0.5-0.5s0.3-0.3,0.4-0.5c-0.4-0.4-0.6-0.8-0.8-1h0.1l-0.1-0.1
		c0.3,0,0.6,0,0.9,0c0.1,0.2,0.3,0.4,0.4,0.5c0,0.1,0.1,0.2,0.1,0.2l0,0c0.2-0.2,0.3-0.4,0.6-0.6c0.3,0,0.6,0,0.9,0l0,0
		c-0.3,0.3-0.7,0.6-0.8,1.1c0.3,0.2,0.5,0.5,0.7,0.8c0.1,0.1,0.1,0.1,0.2,0.2c0,0,0,0-0.1,0c0,0,0,0.1,0.1,0.1
		C207.9,50.1,207.7,50.1,207.3,50.1z M210.1,49.9L210.1,49.9c-0.5,0.2-1,0.1-1.5,0.1c-0.1-0.2-0.3-0.3-0.5-0.4c0.1,0,0.1,0,0.2,0
		c-0.1,0-0.1-0.1-0.2-0.1c0.7,0,1.3,0.1,2,0.1C210.1,49.7,210.1,49.8,210.1,49.9z M210.1,49.2H210c-0.8,0.1-1.5,0-2.3,0
		c-0.1-0.1-0.1-0.2-0.2-0.3c0.1-0.1,0.1-0.1,0.2-0.2h0.1l0,0c0.8,0,1.6,0,2.3,0.1C210.1,48.9,210.1,49.1,210.1,49.2z M210.3,48.2
		L210.3,48.2h-0.1v0.1c-0.6,0-1.3-0.1-2,0l0.1-0.1h-0.1c0,0,0.1-0.1,0.2-0.2s0.1-0.1,0.2-0.2l0,0l0,0c0.4,0,0.8,0.1,1.3,0
		c0.1,0,0.3,0,0.4,0l0,0l0,0C210.3,47.9,210.3,48.1,210.3,48.2z M213.6,48.2c0,0.3-0.1,0.7-0.1,1c0,0.4,0,0.7-0.1,1.1
		c-0.2-0.1-0.5-0.1-0.7-0.1c-0.5-0.4-0.8-0.8-1.2-1.3c0,0.2-0.1,0.4-0.1,0.6c0,0.2,0,0.4-0.1,0.6l0,0l0,0c-0.2-0.1-0.5-0.1-0.7-0.1
		c0-0.2,0-0.3,0-0.5c0-0.5,0.1-1,0.1-1.5c0-0.1,0-0.1,0-0.1s0,0,0-0.1c0.2,0.1,0.5,0.1,0.7,0.1c0.5,0.5,0.8,0.9,1.2,1.3
		c0.1-0.5,0.1-0.9,0.2-1.3c0.2,0,0.5,0.1,0.8,0.1C213.6,48.1,213.6,48.1,213.6,48.2z M234.4,51.7c-0.5-0.1-1-0.2-1.5-0.2
		c-0.2-0.2-0.2-0.3-0.3-0.4c0.7,0.1,1.4,0.1,2,0.2C234.5,51.4,234.5,51.6,234.4,51.7z M234.9,50.5c0,0-0.1,0.1-0.1,0.2
		c0,0.1,0,0.2-0.1,0.2c-0.7-0.2-1.6-0.2-2.3-0.3c-0.1-0.1-0.2-0.2-0.2-0.3c0.1,0,0.1-0.1,0.2-0.1c0.8,0,1.7,0.2,2.4,0.2v0.1
		L234.9,50.5L234.9,50.5L234.9,50.5L234.9,50.5z M236.4,49.6c0.2,0.6,0.6,1,0.8,1.5c0.2-0.3,0.3-0.8,0.5-1.2c0.2,0,0.5,0.1,0.8,0V50
		c-0.3,0.7-0.6,1.4-0.9,2.1l0,0l0,0c-0.2-0.1-0.2-0.1-0.4-0.1c-0.1,0-0.1,0-0.2,0c-0.3-0.6-0.5-1.1-0.8-1.5
		c-0.1,0.1-0.2,0.4-0.2,0.6c-0.1,0.2-0.1,0.4-0.2,0.6c-0.2-0.1-0.5,0-0.7,0c0-0.1,0-0.1,0.1-0.2l0,0c0,0,0,0-0.1,0
		c0.2-0.7,0.6-1.4,0.8-2.1C235.9,49.6,236.2,49.6,236.4,49.6z M235.2,49.5C235.2,49.5,235.2,49.6,235.2,49.5
		C235.2,49.6,235.2,49.6,235.2,49.5c-0.1,0.2-0.1,0.4-0.2,0.5c-0.7-0.1-1.3-0.2-2-0.2l0.1-0.1c-0.1,0-0.1,0-0.2,0
		c0.2-0.1,0.4-0.3,0.6-0.4C234.1,49.5,234.7,49.4,235.2,49.5z M231.1,49.1c0.1,0.2,0.2,0.5,0.3,0.6c0.2-0.1,0.5-0.4,0.7-0.5
		c0.2,0.1,0.6,0.1,0.9,0.1c0,0-0.1,0-0.1,0.1h0.1c-0.4,0.2-0.9,0.5-1.3,0.8c0.3,0.4,0.5,0.8,0.7,1.1c0,0,0,0-0.1,0
		c0.1,0,0.1,0.1,0.1,0.1l0,0l0,0l0,0c0,0-0.1,0-0.2,0c-0.2,0-0.5,0-0.6-0.1c-0.1-0.2-0.2-0.4-0.4-0.7c-0.4,0.2-0.6,0.4-0.9,0.6
		c-0.1,0-0.2,0-0.4,0s-0.3,0-0.4-0.1c0-0.1,0.1-0.1,0.1-0.1l0,0l0,0h-0.1c0.4-0.3,1-0.7,1.4-0.9c-0.2-0.4-0.5-0.7-0.7-1.1
		C230.5,49,230.8,49,231.1,49.1z M227,49.8c0.2-0.5,0.9-0.9,1.9-0.9c0.4,0.1,0.7,0.3,1,0.5c0.1,0.1,0.2,0.2,0.2,0.3s0,0.1,0,0.2
		c0,0.1,0,0.1,0,0.2l0,0c-0.1,0.5-0.8,0.9-1.6,0.9c-0.1,0-0.2,0-0.3,0C227.4,50.9,226.8,50.4,227,49.8z M219.3,48.9
		c0.8,0,1.4,0.1,2.2,0.1c0.3-0.3,0.7-0.7,1-1c0.1-0.1,0.1-0.1,0.2,0h0.1c0.1-0.1,0.1-0.1,0.2,0c0.1,0,0.1,0.1,0,0.2
		c-0.4,0.2-0.7,0.6-1,0.8c0,0,0,0,0.1,0h0.1c0.3,0,0.6,0,0.9,0.1c0.1,0,0.1,0.1,0.1,0.2c0,0.1-0.1,0.2-0.2,0.3h-0.1h-0.1
		c-0.5,0-0.8-0.1-1.2-0.1c-0.5,0.6-1.1,1-1.6,1.6c-0.1,0-0.1,0-0.1,0l0,0h-0.1h-0.1c0,0,0,0-0.1,0c0,0-0.1,0-0.1-0.1
		c-0.3-0.6-0.7-1.1-1-1.7c-0.4-0.1-0.8,0-1.3-0.1c-0.1,0-0.2-0.1-0.2-0.2c0-0.1,0.1-0.1,0.2-0.1c0,0,0,0,0.1,0s0.1,0,0.1,0
		c0.3,0.1,0.5,0,0.8,0.1c-0.2-0.4-0.4-0.7-0.5-1c-0.1-0.1,0-0.2,0.1-0.2h0.1h0.1l0,0c0.1,0,0.4,0,0.6,0.1
		C218.9,48.1,219,48.5,219.3,48.9z"/>
	<path class="st5" d="M164.9,49.3c10.8-1.4,25.3-2.6,40-2.7c-0.7,0-1.3,0-2,0s-1.5,0-2.2,0C187.5,46.9,174.7,48,164.9,49.3
		L164.9,49.3z"/>
	<path class="st5" d="M228.3,50.6c0.5,0,0.9-0.2,1-0.6c0.1-0.4-0.1-0.7-0.6-0.7s-0.9,0.3-1,0.6C227.5,50.3,227.8,50.6,228.3,50.6z"
		/>
	<path class="st5" d="M203.9,48.2c-0.5,0-0.8,0.3-0.8,0.6s0.3,0.6,0.8,0.6c0.4,0,0.8-0.2,0.8-0.6C204.7,48.5,204.3,48.2,203.9,48.2z
		"/>
	<path class="st5" d="M179.4,50.4c0.3,0,0.6-0.3,0.7-0.6c-0.2-0.4-0.5-0.7-1-0.6c-0.4,0-0.6,0.2-0.7,0.5v0.1
		C178.5,50.2,178.9,50.4,179.4,50.4z"/>
	<path class="st5" d="M171.6,50.4L171.6,50.4c-0.6,0.1-1.1,0.2-1.7,0.2c0.3,0.3,0.6,0.5,0.9,0.8l0,0c0.2,0.1,0.3,0.2,0.4,0.3
		c0-0.2,0.1-0.4,0.2-0.6C171.5,50.8,171.5,50.6,171.6,50.4z"/>
	<path class="st5" d="M194.4,48.9c0.4,0.4,0.8,0.7,1.1,1.2c0.3-0.5,0.5-0.9,0.7-1.2C195.7,48.9,195,48.8,194.4,48.9z"/>
	<path class="st5" d="M220.5,49.7c0.1-0.1,0.3-0.3,0.4-0.4c-0.5,0-1.2,0-1.9-0.1c0.1,0.1,0.2,0.3,0.3,0.5s0.2,0.5,0.4,0.7
		c0.1-0.1,0.3-0.2,0.4-0.3C220.2,49.9,220.4,49.8,220.5,49.7z"/>
	<path class="st6" d="M214.4,46.7c-4.5-0.2-9.2-0.2-13.7-0.1c0.7,0,1.5,0,2.2,0c3.8,0,7.7,0,11.5,0.2c0.3,0,0.5,0,0.8,0
		c1,0,2,0.1,2.9,0.2c8.4,0.5,17,0,24.2,1.6c0.6-0.7,1.1-1.4,1.4-1.8c-3.3-0.8-6.9-1.4-10.7-1.8c-23-2.4-52.9,0.1-70.1,2.5
		c0.3,0.5,0.9,1.7,1,1.9C177.2,47.6,196.2,46,214.4,46.7z"/>
	<path class="st6" d="M243.7,48.5c0.2-0.3,0.5-0.5,0.7-0.8l0.5-0.6c-0.2-0.1-0.4-0.1-0.6-0.1c-0.1,0.1-0.2,0.1-0.2,0.2l-1,1.9
		L243.7,48.5z"/>
	<path class="st6" d="M214.4,46.8c-3.2-0.1-6.4-0.2-9.5-0.2c-14.7,0-29.1,1.2-40,2.7c-0.3,0-0.6,0.1-0.9,0.1l0.1,0.1
		c0.3,0,0.6-0.1,0.9-0.1c11.3-1.5,26.6-2.8,41.9-2.7C209.4,46.7,211.9,46.7,214.4,46.8z"/>
	<path class="st6" d="M233.6,52.6c-2-0.3-4.2-0.5-6.5-0.7c-0.5,0-0.9-0.1-1.4-0.1s-0.9-0.1-1.3-0.1c-1.5-0.1-3-0.2-4.6-0.2
		c-1.6-0.1-3.2-0.1-4.9-0.2c-3.3-0.1-6.7-0.1-10.1-0.2c-1,0-1.9,0-2.9,0c-0.9,0-1.8,0-2.7,0c-1.5,0-3,0-4.4,0c-0.7,0-1.5,0-2.2,0
		c-1.4,0-2.9,0.1-4.3,0.1s-2.8,0.1-4.1,0.2c-0.7,0-1.3,0.1-2,0.1c-1.3,0.1-2.6,0.2-3.8,0.3s-2.4,0.2-3.5,0.4
		c-0.6,0.1-1.1,0.2-1.6,0.2c-1.6,0.3-3.1,0.6-4.4,0.9l0.3,0.2c0.2,0.2,0.4,0.3,0.6,0.5l0.1,0.1c6.4-1.4,16-2.2,26.2-2.4h0.1
		c0.1,0,0.2,0,0.3,0c4.4-0.1,9-0.1,13.5,0.1h0.1c10.5,0.3,20.3,1.1,27.1,2.3c0.1-0.1,0.1-0.1,0.1-0.1c0.2-0.1,0.5-0.3,0.7-0.5
		l0.3-0.3c0,0-0.1,0-0.2,0C236.5,53,235.1,52.8,233.6,52.6z"/>
	<path class="st7" d="M173.7,49.9C173.7,49.9,173.6,49.9,173.7,49.9c-0.1,0-0.2,0-0.2,0c-0.4,0-0.8,0-1.2,0.1c0,0,0-0.1,0.1-0.1l0,0
		c0.1-0.1,0.1-0.3,0.2-0.4c0-0.1,0.1-0.3,0.2-0.4c0-0.1-0.1-0.1-0.1-0.2c0,0,0,0-0.1,0s-0.2,0.1-0.3,0.2c-0.2,0.4-0.3,0.8-0.4,1.1
		c-0.8,0-1.6,0.2-2.4,0.2l-0.1-0.1c-0.4-0.3-0.7-0.6-1.1-0.9h-0.1c-0.1,0-0.1,0-0.2-0.1l-0.1,0.1c0,0.1,0,0.1,0.1,0.1
		c0.3,0.3,0.6,0.5,0.9,0.7l0.1,0.1c-0.4,0-0.7,0-1.1,0.2c-0.1,0-0.3,0-0.2,0.2c0.1,0.1,0.2,0.1,0.3,0.2l0,0c0.5,0,0.8-0.1,1.2-0.1
		h0.1c0.6,0.5,1.3,1,1.9,1.5c0,0,0,0,0.1,0h0.1c0.1,0,0.1-0.1,0.1-0.1c0.2-0.6,0.4-1.1,0.7-1.8c0.5,0,1-0.1,1.5-0.1
		c0.2,0,0.4,0,0.3-0.2C173.8,50,173.7,49.9,173.7,49.9z M171.2,51.7c-0.1-0.1-0.2-0.2-0.4-0.3l0,0c-0.3-0.3-0.7-0.5-1-0.8
		c0.6-0.1,1.2-0.2,1.8-0.2l0,0l0,0c0,0.2-0.1,0.4-0.2,0.7C171.3,51.3,171.2,51.5,171.2,51.7z"/>
	<path class="st7" d="M179.6,50.9c0.7,0,1.2-0.4,1.2-0.9c0-0.1,0-0.2,0-0.3c-0.2-0.6-1-1.1-1.9-1c-0.8,0.1-1.3,0.5-1.3,1l0,0l0,0
		c0,0.1,0,0.1,0.1,0.2C177.8,50.5,178.7,51,179.6,50.9z M178.4,49.7c0-0.3,0.3-0.6,0.7-0.6c0.5,0,0.8,0.2,1,0.5c0,0.1,0,0.1,0,0.2
		c-0.1,0.3-0.3,0.6-0.7,0.6c-0.5,0-0.9-0.2-1-0.6V49.7z"/>
	<path class="st7" d="M182.1,49.8c0.2,0.2,0.5,0.4,0.7,0.6c0.3-0.1,0.5,0,0.7-0.1c0.1,0,0.1,0,0.2,0c-0.3-0.3-0.7-0.6-1-0.9
		c-0.1-0.1-0.2-0.2-0.3-0.2c0.2,0,0.4-0.3,0.6-0.6c0.1-0.1,0.1-0.1,0.2-0.2h-0.1c-0.1,0-0.1,0-0.2,0c-0.1,0-0.3,0-0.4,0
		s-0.2,0-0.2,0c-0.1,0.2-0.3,0.5-0.4,0.6c0,0,0,0-0.1-0.1c-0.2-0.2-0.4-0.4-0.5-0.5h-0.1c-0.1,0-0.1,0-0.2,0s-0.3,0-0.4,0
		c-0.1,0-0.2,0-0.3,0c0.1,0.1,0.2,0.1,0.2,0.2c0.4,0.3,0.7,0.5,1.1,0.8l-0.1,0.1c-0.2,0.3-0.3,0.6-0.6,1c0,0,0.1,0,0.2,0
		c0.2,0,0.5,0,0.6-0.1C181.8,50.2,182,50,182.1,49.8z"/>
	<path class="st7" d="M188.6,48.1c-0.3,0.1-0.5,0-0.8,0c0.1,0.4,0.2,0.8,0.2,1.2c-0.5-0.5-1-0.8-1.5-1.2c-0.2,0-0.5,0.1-0.7,0
		c0.2,0.7,0.3,1.4,0.4,2.1c0.2,0,0.5-0.1,0.7,0c-0.1-0.4-0.2-0.8-0.2-1.2l0,0l0,0c0.5,0.4,1,0.8,1.5,1.2c0.2,0,0.5-0.1,0.7,0l0,0
		l0,0l0,0c0-0.3-0.1-0.5-0.1-0.7C188.7,49,188.7,48.5,188.6,48.1z"/>
	<path class="st7" d="M183.4,48.9c0.2,0,0.3,0,0.5,0c0.5,0,1,0,1.5-0.2c0,0,0-0.1,0-0.2c0-0.1-0.1-0.1-0.1-0.2h-0.1
		c-0.5,0-0.9,0.1-1.5,0.1C183.7,48.6,183.6,48.7,183.4,48.9z"/>
	<path class="st7" d="M185.7,50.3c0-0.1-0.1-0.2-0.1-0.3c-0.6-0.1-1.2,0-1.8,0c0.1,0.2,0.2,0.3,0.4,0.5
		C184.7,50.5,185.3,50.4,185.7,50.3C185.7,50.4,185.7,50.4,185.7,50.3L185.7,50.3z"/>
	<path class="st7" d="M183,49.4c0.1,0.1,0.2,0.1,0.3,0.2c0.8,0,1.5-0.1,2.3-0.1c0-0.1-0.1-0.3-0.1-0.4c-0.8,0.1-1.6,0.1-2.5,0.1
		C183.1,49.3,183,49.3,183,49.4z"/>
	<path class="st7" d="M205.4,48.9c0.1-0.7-0.6-1.1-1.5-1.2c-0.9,0-1.6,0.4-1.6,1.1c0,0.6,0.7,1.1,1.5,1.1
		C204.7,49.9,205.2,49.5,205.4,48.9z M203.9,49.4c-0.5,0-0.8-0.3-0.8-0.6s0.3-0.6,0.8-0.6s0.8,0.3,0.8,0.6
		C204.7,49.2,204.3,49.4,203.9,49.4z"/>
	<path class="st7" d="M206.4,49.6c0.1-0.1,0.2-0.2,0.3-0.3c0.2,0.2,0.4,0.4,0.6,0.7c0.4,0,0.6,0,0.8,0c0,0,0,0,0.1,0
		c-0.1-0.1-0.1-0.1-0.2-0.2c-0.3-0.3-0.5-0.6-0.8-0.8c0.2-0.5,0.5-0.8,0.9-1.1c-0.3,0-0.6,0-0.9,0c-0.2,0.2-0.3,0.4-0.6,0.6l0,0
		c0,0-0.1-0.1-0.1-0.2c-0.1-0.1-0.3-0.3-0.4-0.5c-0.3,0-0.6,0-0.9,0l0.1,0.1c0.3,0.3,0.5,0.6,0.8,1c0,0,0,0-0.1,0
		c-0.2,0.1-0.3,0.3-0.4,0.5c-0.2,0.2-0.3,0.3-0.5,0.5h0.1c0.3,0,0.5,0,0.8,0C206.1,49.8,206.2,49.7,206.4,49.6z"/>
	<path class="st7" d="M212.8,48.1c-0.1,0.3-0.1,0.7-0.2,1.2c-0.4-0.5-0.7-0.9-1.2-1.3c-0.2,0-0.5,0-0.7-0.1c0,0,0,0,0,0.1
		c-0.1,0.5-0.1,1-0.1,1.5c0,0.2,0,0.3,0,0.5c0.2,0,0.5,0,0.7,0.1l0,0c0.1-0.2,0.1-0.4,0.1-0.6c0-0.2,0-0.4,0.1-0.6
		c0.4,0.5,0.7,0.9,1.2,1.3c0.2,0,0.5,0,0.7,0.1c0-0.4,0.1-0.7,0.1-1.1c0-0.3,0-0.7,0.1-1C213.3,48.1,213,48,212.8,48.1z"/>
	<path class="st7" d="M209.9,47.8c-0.4,0-0.9,0-1.3,0l0,0c0,0-0.1,0.1-0.2,0.2s-0.2,0.2-0.2,0.2h0.1l0,0c0.6,0,1.3,0.1,1.9,0h0.1
		l0,0c0-0.1,0-0.3,0-0.4l0,0C210.1,47.8,210,47.8,209.9,47.8z"/>
	<path class="st7" d="M208.3,49.6c-0.1,0-0.1,0-0.2,0c0.2,0.1,0.4,0.2,0.5,0.4c0.5,0,1,0.1,1.5,0v-0.1c0-0.1,0-0.2,0-0.3
		C209.5,49.6,208.9,49.5,208.3,49.6z"/>
	<path class="st7" d="M207.8,48.7c-0.2,0.1-0.2,0.1-0.3,0.2c0.1,0.1,0.1,0.2,0.2,0.3c0.8,0,1.5,0.1,2.3,0c0-0.1,0-0.3,0-0.4
		C209.3,48.7,208.6,48.7,207.8,48.7z"/>
	<line class="st0" x1="207.8" y1="48.7" x2="207.8" y2="48.7"/>
	<path class="st7" d="M198.7,48.6c-0.2-0.1-0.3-0.2-0.4-0.2c0,0,0,0-0.1,0c-0.3,0-0.7,0-0.9,0.1c0,0,0,0,0-0.1
		c0.2-0.3,0.5-0.6,0.6-0.8l0,0c0-0.1,0-0.2-0.1-0.2s-0.1,0-0.2,0c0,0-0.1,0-0.1,0.1c-0.2,0.4-0.5,0.7-0.7,1.1c-0.8,0-1.6,0-2.4,0.1
		l0,0c-0.3-0.3-0.7-0.6-1-1.1l0,0c0,0-0.1,0-0.1-0.1c-0.1,0-0.1,0-0.1,0.1l0,0l0,0c0,0,0,0-0.1,0c-0.1,0.1-0.1,0.2,0,0.2
		c0.2,0.3,0.5,0.5,0.8,0.8c-0.3,0-0.7,0.1-1,0c-0.1,0-0.2,0.1-0.2,0.2v0.1h0.1l0,0h0.1c0.4,0,0.7,0,1,0h0.1h0.1
		c0.4,0.5,1,1.1,1.4,1.6c0,0,0.1,0,0.1,0.1h0.1c0.1,0,0.1,0,0.2-0.1c0.4-0.6,0.7-1.1,1.1-1.7c0.5,0,0.8-0.1,1.4,0c0.1,0,0.1,0,0.1,0
		l0,0C198.6,48.8,198.7,48.7,198.7,48.6z M195.5,50.1c-0.3-0.4-0.7-0.7-1.1-1.2c0.6-0.1,1.3,0,1.8,0C196,49.2,195.8,49.6,195.5,50.1
		z"/>
	<path class="st7" d="M228.2,51c0.1,0,0.2,0,0.3,0c0.7,0,1.4-0.4,1.6-0.9l0,0c0-0.1,0-0.1,0-0.2c0-0.1,0-0.1,0-0.2
		c0-0.1-0.1-0.2-0.2-0.3c-0.2-0.2-0.6-0.4-1-0.5c-0.9,0-1.7,0.4-1.9,0.9C226.8,50.4,227.4,50.9,228.2,51z M227.7,49.9
		c0.1-0.3,0.5-0.6,1-0.6s0.7,0.3,0.6,0.7c-0.1,0.4-0.5,0.6-1,0.6S227.5,50.3,227.7,49.9z"/>
	<path class="st7" d="M232.1,49.3c-0.2,0.1-0.5,0.4-0.7,0.5c-0.1-0.2-0.2-0.5-0.3-0.6c-0.2-0.1-0.6-0.1-0.8-0.1
		c0.2,0.4,0.5,0.7,0.7,1.1c-0.5,0.2-0.9,0.5-1.4,0.8l0,0c0,0-0.1,0-0.1,0.1c0.1,0,0.2,0.1,0.4,0.1c0.1,0,0.3,0,0.4,0
		c0.3-0.2,0.5-0.4,0.9-0.6c0.2,0.3,0.3,0.5,0.4,0.7c0.2,0.1,0.4,0.1,0.6,0.1c0.1,0,0.1,0,0.2,0l0,0l0,0c0,0,0-0.1-0.1-0.1
		c-0.2-0.4-0.4-0.7-0.6-1.1c0.4-0.3,0.9-0.6,1.3-0.8h-0.1l0,0C232.7,49.3,232.4,49.3,232.1,49.3z"/>
	<path class="st7" d="M237.7,50c-0.2,0.4-0.3,0.9-0.5,1.2c-0.2-0.5-0.5-0.9-0.8-1.5c-0.2,0-0.5,0-0.6-0.1c-0.2,0.6-0.5,1.3-0.7,1.9
		l0,0c0,0.1,0,0.1-0.1,0.2c0.2,0,0.5-0.1,0.7,0c0.1-0.2,0.2-0.4,0.2-0.6c0.1-0.2,0.2-0.4,0.2-0.6c0.3,0.4,0.5,0.9,0.8,1.5
		c0.1,0,0.1,0,0.2,0c0.2,0,0.3,0,0.4,0.1l0,0c0.3-0.7,0.6-1.4,0.9-2.1C238.2,50.1,237.9,50,237.7,50z"/>
	<path class="st7" d="M233.1,49.7l-0.1,0.1c0.7,0,1.3,0.1,2,0.2c0.1-0.1,0.1-0.3,0.2-0.4l0,0c-0.5-0.1-1.1-0.1-1.6-0.2
		C233.4,49.5,233.3,49.6,233.1,49.7z"/>
	<path class="st7" d="M232.9,51.5c0.5,0,1,0.1,1.5,0.2c0.1-0.1,0.1-0.3,0.2-0.4c-0.6-0.1-1.3-0.1-2-0.2
		C232.8,51.2,232.8,51.3,232.9,51.5z"/>
	<path class="st7" d="M234.8,50.5c-0.7-0.1-1.5-0.2-2.3-0.2c-0.2-0.1-0.1,0-0.3,0c0,0.1,0.1,0.2,0.2,0.3c0.7,0.1,1.6,0.1,2.3,0.3
		c0,0,0.1-0.1,0.1-0.2C234.8,50.6,234.8,50.6,234.8,50.5h0.1H234.8L234.8,50.5z"/>
	<path class="st7" d="M218,47.8c-0.1,0-0.2,0.1-0.1,0.2c0.1,0.3,0.4,0.6,0.5,1h-0.1h-0.1c-0.3,0-0.5,0-0.8-0.1c0,0,0,0-0.1,0
		s-0.1,0-0.1,0.1s0.1,0.2,0.2,0.2c0.5,0.1,0.9,0,1.3,0.1c0.3,0.6,0.7,1.1,1,1.7c0,0.1,0.1,0.1,0.1,0.1h0.1l0,0c0,0,0,0,0.1,0
		c0.5-0.6,1.1-1,1.6-1.6l0,0c0.5,0,0.9,0.1,1.3,0.1h0.1c0.1-0.1,0.2-0.2,0.2-0.3s0-0.2-0.1-0.2c-0.3-0.1-0.6-0.1-0.9-0.1h-0.1H222
		c0.3-0.2,0.6-0.6,1-0.8c0.1-0.1,0.1-0.2,0-0.2c-0.1-0.1-0.1-0.1-0.2,0h-0.1c-0.3,0.3-0.7,0.7-1,1h-0.1h-0.1c-0.8,0-1.4-0.1-2.2-0.1
		c-0.3-0.4-0.4-0.8-0.7-1C218.4,47.8,218.1,47.8,218,47.8L218,47.8z M219.3,49.7c-0.1-0.2-0.2-0.3-0.3-0.5c0.7,0.1,1.4,0.1,1.9,0.1
		c-0.1,0.1-0.2,0.2-0.4,0.4c-0.1,0.1-0.3,0.3-0.4,0.4c-0.1,0.1-0.3,0.2-0.4,0.3C219.5,50.2,219.4,49.9,219.3,49.7z"/>
	<path class="st8" d="M200.7,46.6c4.5-0.1,9.1-0.1,13.7,0.1c-18.2-0.7-37.2,0.9-50.4,2.7c0.3,0,0.6-0.1,0.9-0.1
		C174.7,48,187.5,46.9,200.7,46.6z"/>
	<path class="st8" d="M244.5,46.9L244.5,46.9C244.6,46.9,244.6,46.9,244.5,46.9z"/>
	<path class="st8" d="M327,75.6c-8.5-4.5-18.3-9-29.3-13.4c0-0.1,0-0.1,0-0.2c-6.1-2.4-12.5-4.9-19.4-7.2l-0.9-0.3l-18-6.1
		c0,0-6-14.5-10.5-18.4c-2.5-2.2-19.4-4.5-46.1-4.5s-42.2,2.1-46.3,4.7s-6.6,10-10.5,18.4c-5.5,1.1-38,13.4-38,13.4
		c-11.5,4.6-21.5,9.1-30,13.7C66,82,57.3,93.2,54.2,106.5c-10.7,45.1-11.1,117.3-9.5,170c1.2,38.2,3.5,72.5,5.2,94.5l0.1,1.8v0.3
		c0.3,3.3,0.5,5.6,0.6,6.8l0.2,1.8h40.8l0.6-10.8l9.6-158l0.4,25l0.1,116.6v6.2c0,0.5,0.4,0.9,0.9,1l1,0.2h0.1h0.1
		c0.2,0.1,0.4,0.1,0.6,0.1c0.1,0,0.3,0,0.4,0.1h0.1c1,0.1,2.6,0.3,4.3,0.6c1.3,0.2,3.4,0.5,6.1,0.8h0.2h0.1c0.3,0.1,1.3,0.2,1.7,0.3
		c0.3,0.1,0.5,0.1,0.6,0.1c3.3,0.7,7.5,2.1,14.5,4.4c2,0.7,4.3,1.4,6.9,2.2c2.9,0.9,5.9,1.9,8.6,2.7c14.4,4.5,31.9,9,52.1,9
		c0.2,0,0.3,0,0.5,0s0.4,0,0.6,0s0.4,0,0.7,0c19.1-0.2,35.2-4.5,49.9-9.1c1.2-0.4,2.3-0.7,3.5-1.1c1.1-0.4,2.3-0.7,3.5-1.1
		c5.3-1.7,15.3-4.7,21.1-6.3h0.1h0.1c8.9-0.7,15.2-1.4,19-1.9l2.4-0.4c0.2,0,0.2-0.1,0.2-0.1s0.1-0.1,0.1-0.7l0.7-124.9l0.1-25.8
		l9.7,162h0.1l0.5,8.8H354l0.2-1.8c0.1-1.2,0.3-3.5,0.6-6.8l0.2-2.2c1-12.7,3.9-50.6,5.2-94.3c1.5-42.7,2.2-121.5-9.4-170
		C347.7,93.3,339,82,327,75.6z M200.2,367.3c14.3,0,27.2-0.2,38.6-0.6c-11,3-23.1,5.3-36.8,5.4c-15.1,0.1-28.7-2.4-40.6-5.5
		C172.5,367,185.4,367.3,200.2,367.3z M244.1,47.2c0,0,0.1-0.1,0.2-0.2c0.1-0.1,0.1-0.1,0.2-0.1l0,0c0.3,0.1,0.5,0.1,0.8,0.2
		c-0.3,0.2-0.6,0.5-0.8,0.7c-0.3,0.2-0.5,0.5-0.7,0.8c-0.3,0.4-0.6,0.7-0.8,1.1l0.2-0.5L244.1,47.2z M163,47.5
		c17.2-2.3,47-4.9,70.1-2.5c3.8,0.4,7.5,0.9,10.9,1.6c-0.1,0-0.1,0.1-0.2,0.2c-0.4,0.4-0.9,1-1.4,1.8c-1.1,1.4-2.3,3.2-3.1,3.9
		c-0.1,0.1-0.2,0.2-0.3,0.2l-0.6,0.5h-0.1l0,0l-0.3,0.3c-0.2,0.2-0.5,0.4-0.7,0.5c0,0,0,0-0.1,0.1l0,0l-0.1,0.1
		c-3.3,2.6-6.8,5.2-10.1,7.7l0,0c-4.9,3.7-9.6,7.2-13.5,10.6l-10.1,7.8l-9.7-7.8c-3.9-3.4-8.6-6.9-13.6-10.6l0,0
		c-3.3-2.4-6.7-5.1-10.1-7.7l0,0l-0.1-0.1l-0.1-0.1c-0.2-0.2-0.4-0.3-0.6-0.5l-0.3-0.2l-0.1-0.1l-0.5-0.4c-1.4-1.1-2.7-2.2-4-3.3
		l-0.1-0.1l-0.1-0.1c-0.2-0.2-2.4-1.5-2.6-1.7C161.9,47.7,162.4,47.6,163,47.5z"/>
	<path class="st8" d="M696.4,106.5c-3.1-13.3-11.9-24.6-23.9-30.9c-7.5-4-16-8-25.6-11.9c0-0.1,0-0.2,0-0.3
		c-6.6-2.7-13.6-5.4-21.2-8.1l-0.2-0.1c-0.2-0.1-0.4-0.1-0.6-0.2c-5.9-2.8-22.9-5.7-22.9-5.7s-3-11.7-8.3-18.6
		c-8.2-10.8-86.7-6.6-93.4-1.7c-4.3,3.2-8.7,13.4-11.1,20.7c-3.2,0.2-13.4,3.7-13.4,3.7l-0.9,0.3c-4,1.4-8.4,3-13.1,4.7l-3.1,1.1
		c-0.7,0.3-1.4,0.5-2.2,0.8c-0.3,0.1-0.7,0.3-1,0.4c-0.6,0.2-1.2,0.4-1.8,0.7c-0.6,0.2-1.1,0.4-1.7,0.7c-11.3,4.6-21,9-28.8,13.2
		c-11.9,6.4-20.6,17.7-23.9,30.9c-10.7,45.1-11.1,117.3-9.5,170c1.2,38.2,3.5,72.5,5.2,94.5l0.1,1.8v0.3c0.3,3.3,0.5,5.6,0.6,6.8
		l0.2,1.8H437l0.6-10.3l8.7-144.2v58l-0.8,74.7c0,1,0.3,1.7,0.8,2.2c0.5,0.4,1.1,0.6,1.9,0.6c0.1,0,0.2,0,0.3,0h0.1h0.1l1.1,0.2h0.2
		c0.2,0,0.4,0.1,0.5,0.1c0.9,0.1,2.3,0.2,4.1,0.4h0.1l1.8,0.1c5.7,0.3,10.1,1.3,15.4,3.4c2.5,1,5.4,2.1,8.8,3.2h0.1
		c2.7,0.9,5.5,1.8,8.5,2.7c14.3,4.4,36.7,9.1,57.1,9.1h1.7c19.2-0.2,35.4-4.5,50-9.1c1.4-0.4,2.7-0.8,4.1-1.3l0.2-0.1
		c0.9-0.3,1.9-0.6,2.8-0.9l0.2-0.1c1.2-0.4,2.3-0.8,3.5-1.1c9.7-3.2,17.4-5.7,25.6-6.1c5.2-0.3,8.2-0.6,9.7-0.9l0.2-0.2l0.2-0.1
		c0.4-0.1,0.7-0.5,0.7-1V355h-0.1l0.1-1.1c0.1-1,0.6-6-0.2-24.4v-9l-0.2-26.4l0.1-72.3l0.2-13.1l0.6-12.5l0.3-4.9l12.5,181.4h0.2
		l0.4,8.9h40.9l0.2-1.8c0.1-1.2,0.3-3.5,0.6-6.8l0.2-2.2h-0.2c1-12.6,3.9-50.6,5.2-94.4C707.3,233.9,708,155.1,696.4,106.5z"/>
</g>
<path class="st8" d="M210.2,74.3c0,0-2.8-1.4-7.7-1.4c-1.6,0-3.5,0.2-5.5,0.6c0,10.6,7,31.6,7,31.6L210.2,74.3z"/>
<g>
	<path class="st8" d="M152.1,61.7c5.4,3.7,10.3,5.7,15.8,7.8c4,1.6,15.4,3.7,18.4,3.7c0.8,0.1,8.4,1.1,8.8,1.1
		c0.4-1.5-3.8-11.3-14.7-14.2c-21.7-8.5-20.7-28.7-20.7-28.7c-6.1,1.9-12,19.3-12,19.3C147.6,51.2,146.8,58,152.1,61.7z"/>
	<path class="st8" d="M196.6,76.3H195c-0.7,0-7.6-0.9-8.9-1.1c-3.4-0.1-14.7-2.1-18.9-3.8c-6.1-2.3-10.8-4.2-16.2-8l0,0
		c-6.6-4.6-5.2-13-5.2-13l0.1-0.2c5.9-17.5,12.1-20.2,13.3-20.6l2.8-0.9l-0.2,2.9c0,0.8-0.7,18.8,19.3,26.6
		c11.5,3.2,16.8,13.7,16,16.7L196.6,76.3z M153.2,60.1c5,3.5,9.5,5.3,15.4,7.5c3.7,1.5,15,3.5,17.6,3.5h0.3c0.5,0.1,3.4,0.5,5.7,0.8
		c-1.5-3-5.5-8.1-12.5-10l-0.2-0.1c-17-6.6-20.8-20.2-21.7-26.8c-3.1,3.4-6.4,10.7-8.2,16.1C149.6,51.9,149.1,57.2,153.2,60.1z"/>
</g>
<g>
	<path class="st8" d="M225.2,60c-10.9,3-13.8,12.7-13.4,14.2c0.4,0,6.6-1,7.4-1.1c2.9,0,14.4-2.1,18.4-3.7c5.5-2.1,10.4-4,15.8-7.8
		c5.3-3.7,4.5-10.5,4.4-11c0,0-5.8-17.4-12-19.3C245.8,31.4,246.9,51.6,225.2,60z"/>
	<path class="st8" d="M211.8,76.3h-1.5l-0.4-1.5c-0.8-2.9,3.2-13.5,14.7-16.7c20-7.8,19.3-25.9,19.3-26.7l-0.1-2.9l2.7,0.9
		c1.2,0.4,7.4,3.1,13.3,20.6l0.1,0.2c0,0.1,1.4,8.4-5.2,13c-5.4,3.8-10.2,5.7-16.3,8c-4.2,1.7-15.5,3.7-18.9,3.8
		C218.4,75.3,212.5,76.3,211.8,76.3z M247.6,35.1c-0.9,6.6-4.7,20.2-21.7,26.8l-0.2,0.1c-7.2,2-10.3,7-11.4,10
		c1.9-0.3,4.1-0.6,4.6-0.7h0.3c2.7,0,13.9-2.1,17.6-3.5c5.9-2.2,10.4-4.1,15.4-7.5c4.1-2.9,3.7-8.1,3.6-8.9
		C254,45.8,250.7,38.5,247.6,35.1z"/>
</g>
</svg>
