<?xml version="1.0" encoding="utf-8"?>
<!-- Generator: Adobe Illustrator 25.3.0, SVG Export Plug-In . SVG Version: 6.00 Build 0)  -->
<svg version="1.1" id="Layer_1" xmlns="http://www.w3.org/2000/svg" xmlns:xlink="http://www.w3.org/1999/xlink" x="0px" y="0px"
	 viewBox="0 0 750.2 400.1" style="enable-background:new 0 0 750.2 400.1;" xml:space="preserve">
<style type="text/css">
	.st0{fill:#6B6B6B;stroke:#6B6B6B;stroke-width:1.25;}
</style>
<g>
	<path class="st0" d="M328.6,84.9l-0.2-0.6c0-0.1,0.1-0.2,0.1-0.3c0-0.1,0-0.4-0.3-0.6l-0.1-0.4l-2.1,0.2h-0.3h-0.1
		c-3.1,0.2-11.7,0.8-22.9,1.4c-10.8,0.5-24.5,1.1-38.7,1.5c-0.1-1.4-0.3-2.4-0.6-2.9c-0.9-1.4-2.6-2.3-4.7-2.5
		c-2.2-0.2-6.6,0.3-11.6,5.7l0.1,0.1c-3.6,0.1-7.1,0.1-10.6,0.1v0.8l-0.1-0.8h-0.1c-3.3,0-6.6,0-10-0.1c-5-5.3-9.3-5.8-11.5-5.6
		c-2.1,0.2-3.8,1.1-4.7,2.5c-0.3,0.5-0.5,1.4-0.6,2.8c-14.3-0.4-28.3-1-39.2-1.6c-11.1-0.6-19.5-1.2-22.8-1.4l0,0h-0.1h-0.1h-0.2v0
		l-0.2,0l-0.2,0l0-0.1l-0.8,0.1l-0.8-0.1l-0.1,0.3c-0.3,0.2-0.3,0.5-0.3,0.6c0,0.1,0,0.2,0.1,0.3c0,0.2-0.1,0.3-0.1,0.5l0,0.1h0
		c-3.4,14.5-32.1,161-34.5,205.6v0.6l0.6,0.2c20.3,5.2,38.8,7,54.6,7c33.5,0,54.8-8,55.1-8.2l0.4-0.1l15.5-64.4l15.1,64.4l0.4,0.1
		c0.5,0.2,49.6,17.3,113.1,0.9l0.6-0.2v-0.6c-2.4-45.8-34.2-192.4-37.2-205.3L328.6,84.9z"/>
	<path class="st0" d="M606.2,84.9l0.2,0l-0.2-0.6c0-0.1,0.1-0.2,0.1-0.3c0-0.1,0-0.4-0.3-0.6l-0.1-0.4l-2.1,0.2h-0.3l0,0h0h-0.1
		c-3.1,0.2-11.7,0.8-22.9,1.4c-17.8,0.9-43.7,1.9-66.1,2v0.8l-0.1-0.8h-0.1c-22.3,0-48.2-1.1-66-2c-11.1-0.6-19.5-1.2-22.8-1.4l0,0
		h-0.1h-0.1H425l0,0l-0.2,0l-0.2,0l0-0.1l-0.8,0.1l-0.8-0.1l-0.1,0.3c-0.3,0.2-0.3,0.5-0.3,0.6c0,0.1,0,0.2,0.1,0.3
		c0,0.2-0.1,0.3-0.1,0.5l0,0.1h0c-3.4,14.5-32.1,161-34.5,205.6v0.6l0.6,0.2c20.3,5.2,38.8,7,54.6,7c33.5,0,54.8-8,55.1-8.2l0.4-0.1
		l15.5-64.4l15.1,64.4l0.4,0.1c0.5,0.2,49.6,17.3,113.1,0.9l0.6-0.2v-0.6C641,244.4,609.2,97.8,606.2,84.9z"/>
</g>
</svg>
