<?xml version="1.0" encoding="utf-8"?>
<!-- Generator: Adobe Illustrator 25.3.0, SVG Export Plug-In . SVG Version: 6.00 Build 0)  -->
<svg version="1.1" id="Layer_1" xmlns="http://www.w3.org/2000/svg" xmlns:xlink="http://www.w3.org/1999/xlink" x="0px" y="0px"
	 viewBox="0 0 750.20001 400.10001" style="enable-background:new 0 0 750.20001 400.10001;" xml:space="preserve">
<style type="text/css">
	.st0{fill:#EDEFEF;}
	.st1{fill:#4B4C4C;stroke:#88898C;stroke-width:0.976;}
	.st2{fill:#6B6B6B;stroke:#6B6B6B;stroke-miterlimit:10;}
	.st3{fill:#6B6B6B;}
	.st4{fill:#1D1D1B;}
	.st5{fill:#1D1E1C;}
</style>
<path class="st0" d="M143.60001,312.29999c0,0-26.5,22-27.3,24.79999c-0.9,2.79999,34.59999,42.79999,90.5,40
	s88.49998-40,88.49998-40l-71.5-37.79999l-44.60001,6.79999L143.60001,312.29999z"/>
<polygon class="st0" points="144.2,66.1 182.39999,45 223.10001,46.7 237.3,48.5 251.5,73.4 229.5,129.3 151,115.2 "/>
<path class="st1" d="M167.89999,55.7c15-12.1,53.89999-11,68.5,0l3.10001-11c-26.3-6.3-46.8-6.6-73.10001-0.3L167.89999,55.7z"/>
<g>
	<g>
		<path class="st2" d="M178.60001,77.5c4,2.3,8.3,3.6,10.89999,4.3c2.39999-16.7-7.2-17.8-15.7-24.3c-7.2-5.4-8.5-10.1-8-15.8
			c-4.2,2.5-9.3,5.6-10,6.2c-0.10001,0.7-1.5,8.7,3.8,14.1C164.89999,67.4,173.10001,74.5,178.60001,77.5z"/>
		<path class="st2" d="M190.8,83.7L189.2,83.3c-2.89999-0.8-7.2-2.2-11.3-4.4c-5.60001-3.1-13.89999-10.3-19.3-15.7
			c-6-6.1-4.3-15.1-4.2-15.5l0.10001-0.5l0.3-0.3c0.8-0.8,6-3.9,10.2-6.4l2.10001-1l0.2,2.5c-0.39999,5.2,0.7,9.4,7.39999,14.5
			c1.7,1.3,3.5,2.4,5.2,3.4c6.8,4.1,13.10001,8,11.10001,22.3L190.8,83.7z M157.2,48.8c-0.2,1.8-0.7,8,3.5,12.2
			c5.2,5.3,13.3,12.2,18.60001,15.2l0,0c3.10001,1.8,6.5,3,8.89999,3.7c1.10001-10.9-3.60001-13.7-9.89999-17.6
			c-1.8-1.1-3.60001-2.2-5.39999-3.6c-6.60001-5-8.5-9.4-8.7-14.3C160.39999,46.7,158.10001,48.2,157.2,48.8z"/>
	</g>
	<g>
		<path class="st2" d="M200.39999,83.5c3.89999,0.1,7.89999-0.4,12-1.4c-0.2-1-0.5-3.1-0.39999-5.6c-2.8,0.6-5.60001,1-8.2,1.2
			c-3.5,0.2-7.2-0.3-11-1.2c0.10001,2.7-0.3,5-0.5,6C194.89999,83,197.60001,83.4,200.39999,83.5z"/>
		<path class="st2" d="M201.39999,85c-0.39999,0-0.7,0-1.10001,0l0,0c-2.7-0.1-5.5-0.4-8.39999-1.2L190.5,83.5l0.2-1.4
			c0.2-1,0.5-3.2,0.39999-5.7v-2l1.89999,0.5c3.89999,0.9,7.5,1.3,10.60001,1.2c2.39999-0.1,5.10001-0.5,7.89999-1.1l1.89999-0.4
			l-0.10001,1.9c-0.10001,2.5,0.2,4.6,0.3,5.4l0.2,1.4l-1.3,0.3C208.89999,84.5,205.10001,85,201.39999,85z M194,81.2
			c2.2,0.5,4.3,0.7,6.39999,0.8l0,0c3.3,0.1,6.8-0.3,10.3-1c-0.10001-0.7-0.2-1.6-0.2-2.7c-2.3,0.4-4.60001,0.7-6.60001,0.8
			c-2.89999,0.1-6.10001-0.2-9.60001-0.9C194.2,79.4,194.10001,80.4,194,81.2z"/>
	</g>
	<g>
		<path class="st2" d="M231.10001,57.8c-8.39999,6.3-17.8,7.5-15.8,23.6c2.8-0.8,7.39999-2.2,11-3.8c5.8-2.6,14.2-8.7,18.89999-15.4
			c4.3-6,4-13.3,3.89999-14.2c-0.60001-0.6-5.7-3.7-9.89999-6.2C239.89999,48.4,238.5,52.2,231.10001,57.8z"/>
		<path class="st2" d="M214,83.3l-0.2-1.7C212.10001,67.9,218.39999,64,225,60c1.7-1,3.5-2.1,5.2-3.4l0,0c7.3-5.5,8.2-8.8,7.5-14.6
			l-0.3-2.8L240,40.6c4.2,2.5,9.39999,5.6,10.2,6.4l0.3,0.3l0.10001,0.5C250.8,49,251,56.7,246.5,63.1C241.60001,70,233,76.3,227,79
			c-3.60001,1.6-8.10001,3-11.2,3.9L214,83.3z M232,58.9c-1.8,1.4-3.60001,2.5-5.39999,3.6c-6.2,3.8-10.8,6.6-10,16.9
			c2.60001-0.8,6.2-1.9,9.10001-3.3c5.60001-2.5,13.7-8.4,18.3-14.9c3.39999-4.8,3.7-10.6,3.7-12.5c-0.89999-0.6-3.2-2-6.8-4.2
			C240.89999,50.3,238.39999,54.1,232,58.9L232,58.9z"/>
	</g>
	<g>
		<path class="st2" d="M199.89999,39.4c14.10001-0.3,27.3,2.9,35.5,8.3c0.8-1.8,1.10001-3.3,1-4.4c-0.2-1.6-0.2-2.5-0.10001-3
			c-24.3-8.3-46.5-8.2-67.60001,0.1c0.10001,0.5,0.10001,1.4-0.10001,2.9c-0.10001,1.1,0.2,2.7,1,4.5
			C176.5,42.7,187.2,39.7,199.89999,39.4z"/>
		<path class="st2" d="M169,50.1l-0.8-1.7c-0.89999-2-1.3-3.8-1.10001-5.3S167.2,40.9,167.2,40.6l-0.2-1.2l1.10001-0.4
			c21.5-8.5,43.89999-8.6,68.60001-0.1l1.2,0.6l-0.2,1.1c0,0.3-0.10001,0.9,0.10001,2.6c0.2,1.4-0.2,3.3-1.10001,5.2L236,50l-1.5-1
			c-8-5.3-21-8.3-34.60001-8.1l0,0c-12.3,0.3-22.7,3.1-29.39999,8.1L169,50.1z M201.7,37.9c12.7,0,24.7,2.8,32.90001,7.6
			c0.2-0.8,0.3-1.5,0.3-2C234.8,42.7,234.8,42,234.8,41.4c-23.2-7.7-44.3-7.7-64.5,0.1c0,0.6-0.10001,1.2-0.10001,2
			c-0.10001,0.5,0,1.2,0.3,2c7.2-4.6,17.60001-7.3,29.5-7.6l0,0C200.5,37.9,201.10001,37.9,201.7,37.9z"/>
	</g>
	<g>
		<path class="st2" d="M227.60001,57.7c-6.8,4.4-10.39999,7.9-10.39999,7.9c-5.2,4.7-4.10001,14-3.8,16.3
			c0.39999-0.1,1.10001-0.3,2-0.5c-2-16.1,7.39999-17.2,15.8-23.6c7.39999-5.6,8.8-9.4,8.10001-15.9c-0.7-0.4-1.39999-0.8-2-1.2
			c0,0.4,0,1.1,0.10001,2.5C237.7,46.9,234.39999,53.2,227.60001,57.7z"/>
		<path class="st2" d="M212.10001,83.8l-0.3-1.6c-0.39999-2.8-1.5-12.5,4.3-17.6l0,0c0,0,3.60001-3.5,10.60001-8
			c6.8-4.4,9.39999-10.3,9.10001-13.1c-0.10001-1.2-0.2-2.2-0.10001-2.8l0.2-1.8l2,0.8c0.60001,0.4,1.3,0.7,2,1.1l0.60001,0.4
			l0.10001,0.7c0.89999,7.5-1.2,11.7-8.7,17.3c-1.8,1.4-3.60001,2.5-5.39999,3.6c-6.5,4-11.3,6.9-9.8,18.6l0.2,1.3l-1.2,0.3
			c-0.89999,0.2-1.60001,0.4-2,0.5L212.10001,83.8z"/>
	</g>
	<g>
		<path class="st2" d="M173.8,57.6c8.5,6.4,18.10001,7.5,15.7,24.3c0.8,0.2,1.39999,0.4,1.8,0.4c0.39999-2.2,1.7-11.9-3.5-16.7
			c0,0-3.60001-3.5-10.5-7.9c-6.89999-4.5-10.2-10.8-9.8-14.5c0.2-1.4,0.10001-2.2,0.10001-2.5c-0.60001,0.4-1.3,0.7-1.89999,1.1
			C165.3,47.5,166.60001,52.2,173.8,57.6z"/>
		<path class="st2" d="M192.60001,84.1l-1.5-0.3c-0.39999-0.1-1.10001-0.2-1.89999-0.5l-1.3-0.3l0.2-1.3
			c1.7-12.3-3.10001-15.2-9.7-19.3c-1.8-1.1-3.60001-2.2-5.39999-3.6c-7.8-5.9-9.10001-11.1-8.60001-17.1l0.10001-0.8l4.7-2.2
			l0.10001,1.8c0.10001,0.7,0,1.6-0.10001,2.8c-0.3,2.8,2.3,8.7,9.10001,13.1c6.7,4.4,10.3,7.7,10.7,8.1c5.7,5.2,4.5,15.1,4,18
			L192.60001,84.1z"/>
	</g>
	<g>
		<path class="st2" d="M592.20001,47.2c-4.09998-3.1-18.79999-12.6-46.5-12.6s-41.70001,9.6-45.5,12.6
			c5.39999-0.4,25.29999-1.8,45.59998-1.8C566,45.4,586.5,46.8,592.20001,47.2z"/>
		<path class="st2" d="M597.09998,49l-5-0.4c-5.79999-0.4-26.20001-1.8-46.29999-1.8c-20.20001,0-39.89999,1.3-45.5,1.8L495.5,49
			l3.70001-3c3.70001-3,18.09998-13,46.40002-13c28.29999,0,43.5,9.9,47.40002,13L597.09998,49z M545.59998,36
			c-20.70001,0-33.5,5.4-40.10001,9.3c8.69998-0.6,24.30002-1.4,40.19998-1.4c15.79999,0,31.79999,0.8,40.79999,1.4
			C579.59998,41.4,566.29999,36,545.59998,36z"/>
	</g>
	<g>
		<g>
			<path class="st2" d="M250.8,365.20001c9.49998-0.39999,17.8-0.89999,24.59999-1.5c-7.39999,1.89999-15.29999,4.60001-24,7.29999
				c-14.2,4.5-30.3,8.79999-49.3,9.10001c-0.5,0-1.10001,0-1.60001,0c-19.5,0-36.5-4.39999-51.3-9
				c-10-3.10001-19-6.29999-27.1-8.20001c6.9,0.70001,15.8,1.39999,26.9,2.10001c14.8,4.60001,31.89999,9.10001,51.59999,9.10001
				c0.5,0,1.10001,0,1.60001,0C220.8,373.79999,236.8,369.60001,250.8,365.20001z"/>
			<path class="st2" d="M200.5,381.70001c-19.8,0-37.3-4.60001-51.8-9.10001c-2.89999-0.89999-5.8-1.79999-8.60001-2.70001
				c-6.60001-2.10001-17.8-5.60001-23.5-6.89999l5.5-1.5c8.10001,0.79999,17.10001,1.5,26.8,2l0.39999,0.10001
				c14.7,4.60001,32.5,9.20001,52.7,9c18.5-0.20001,34.09999-4.29999,48.3-8.79999l0.39999-0.10001
				c8.60001-0.39999,16.89999-0.89999,24.5-1.5l6.29999,1.29999c-5.39999,1.39999-16.79999,4.89999-22.79999,6.79999
				c-2.29999,0.70001-4.60001,1.5-6.89999,2.20001c-14.60001,4.60001-30.8,8.89999-49.8,9.10001
				C201.60001,381.70001,201,381.70001,200.5,381.70001z M137.2,365.79999c1.3,0.39999,2.60001,0.79999,3.89999,1.20001
				c2.8,0.89999,5.60001,1.79999,8.5,2.70001c14.7,4.5,32.40001,9.20001,52.40001,8.89999c18.60001-0.20001,34.5-4.5,48.89999-9
				c2.39999-0.70001,4.7-1.5,6.89999-2.20001C259.19998,367,260.5,366.5,261.89999,366.10001
				c-3.60001,0.20001-7.2,0.39999-10.89999,0.60001c-14.3,4.5-30.10001,8.60001-48.89999,8.79999
				c-20.5,0.29999-38.5-4.39999-53.39999-9.10001C144.7,366.29999,140.89999,366,137.2,365.79999z"/>
		</g>
		<g>
			<path class="st2" d="M300,360.29999v-6c-6.79999,0.39999-71.60001,4.29999-97.7,4.29999c-26.2,0-91.1-3.79999-97.5-4.20001
				v5.39999c0.2,0,0.6,0.10001,1,0.20001c1,0.20001,2.4,0.39999,4.3,0.60001c3.9,0.5,9.7,1.20001,17.6,1.89999
				c15.8,1.39999,39.7,2.79999,72.50001,2.79999c57.39999,0,91.10001-3.89999,98.60001-4.79999
				C299.29999,360.39999,299.70001,360.39999,300,360.29999z"/>
			<path class="st2" d="M200.2,366.79999c-33.90001,0-58.2-1.5-72.7-2.79999c-8.2-0.70001-14.1-1.5-17.6-2
				c-1.9-0.29999-3.4-0.5-4.4-0.60001c-0.5-0.10001-0.8-0.10001-1-0.20001l-1.2-0.20001v-8.20001l1.6,0.10001
				c7.2,0.39999,71.4,4.20001,97.4,4.20001s90.3-3.79999,97.59999-4.29999l1.60001-0.10001v8.89999l-1.29999,0.20001l-0.20001-1.5
				l0.10001,1.5L299,362C290.10001,363.10001,256.89999,366.79999,200.2,366.79999z M106.3,358.5c0.9,0.20001,2.3,0.39999,4,0.60001
				c3.5,0.5,9.4,1.20001,17.5,1.89999c14.39999,1.29999,38.59999,2.79999,72.40001,2.79999
				c56.20001,0,89.29999-3.70001,98.29999-4.79999v-3.10001c-12.29999,0.70001-71.39999,4.20001-96.2,4.20001
				s-83.8-3.39999-96-4.10001V358.5z"/>
		</g>
		<g>
			<path class="st2" d="M300.10001,149.8c0,0-7.5-8-10.60001-22.1c-1.5-7-3.79999-19.9-9.29999-32.4S265.89999,70.6,251.5,65
				l-4.7-1.3c-5,6.6-13.2,12.6-19.10001,15.3c-5.89999,2.6-14,4.7-14,4.7l-0.5,0.1v-0.1c-3.8,0.9-7.60001,1.5-11.39999,1.5
				c-0.39999,0-0.7,0-1.10001,0C197.8,85.1,195,84.7,192.3,84.1v0.1l-0.5-0.1c0,0-7.3-1.4-13.89999-5.1
				c-4.7-2.7-11.60001-8.3-17-13.4c-0.39999-0.3-0.7-0.6-1.10001-0.9L159.7,64.6l-0.10001-0.2c-0.3-0.3-0.60001-0.6-0.89999-0.8
				l-5.60001,1.6c-14.39999,5.7-23.2,17.8-28.7,30.3s-7.8,25.4-9.3,32.4c-2.8,12.99999-9.3,20.7-10.4,21.9l0.1,203.8
				c0.5,0,1.4,0.10001,2.6,0.20001c2,0.10001,4.8,0.29999,8.4,0.5c7,0.39999,16.7,0.89999,27.2,1.5
				c21.10001,1.10001,45.59999,2.10001,59.3,2.10001c24.10001,0,81.20001-3.29999,95.10001-4.10001
				c1.20001-0.10001,2.10001-0.10001,2.60001-0.20001l0.20001-203.39999L300.10001,149.8L300.10001,149.8z"/>
			<path class="st2" d="M202.3,359.10001c-14.3,0-40.2-1.20001-59.40001-2.10001c-10.89999-0.5-20.9-1.10001-27.2-1.5
				c-3.5-0.20001-6.4-0.39999-8.4-0.5l-4-0.20001L103.2,149l0.4-0.39999c1.2-1.39999,7.4-8.8,10.1-21.3c0.2-0.9,0.4-1.8,0.6-2.8
				c1.6-7.5,3.9-18.7,8.8-29.9c6.9-15.7,16.8-26.1,29.50001-31.1h0.10001l6.39999-1.8l0.60001,0.6c0.3,0.3,0.60001,0.6,0.8,0.8
				l0.2,0.2l0.10001,0.2l0.89999,0.7c6,5.7,12.60001,10.9,16.8,13.3c4.89999,2.8,10.3,4.2,12.39999,4.7v-0.1l1.5,0.3
				c2.7,0.7,5.39999,1,8.10001,1.1c3.89999,0.1,7.89999-0.4,12.10001-1.4l1.5-0.4v0.1c2.39999-0.6,8.3-2.3,12.8-4.3
				c5.39999-2.4,13.5-8.1,18.60001-14.8l0.60001-0.8l5.89999,1.7c12.70001,5,22.60001,15.4,29.5,31.1
				c4.89999,11.1,7.29999,22.4,8.79999,29.9c0.20001,1,0.39999,2,0.60001,2.8c2.70001,12.7,9.10001,20.2,10.10001,21.3l0.70001,0.3
				l-0.20001,205.79999l-4,0.20001C285.89999,355.70001,226.7,359.10001,202.3,359.10001z M106.3,352l1.2,0.10001
				c2,0.10001,4.8,0.29999,8.4,0.5c6.4,0.39999,16.3,0.89999,27.2,1.5c19.2,1,45,2.10001,59.2,2.10001
				c24.39999,0,83.40001-3.39999,94.99998-4.10001L298.5,352l0.20001-201.3c-1.29999-1.5-7.89999-9.5-10.70001-22.60001
				c-0.20001-0.9-0.39999-1.8-0.60001-2.9c-1.5-7.3-3.79999-18.4-8.60001-29.3C272.20001,81,262.89999,71,251,66.3l-3.7-1
				c-5.39999,6.8-13.60001,12.4-19.10001,14.9s-12.7,4.3-14.2,4.7h-0.10001l-2,0.5v-0.1C208,86.2,204.2,86.5,200.5,86.4
				c-2.60001-0.1-5.2-0.4-7.8-1l-1.5-0.2c-0.7-0.1-7.8-1.6-14.2-5.2c-5.3-3-12.7-9.2-17.3-13.6l-1.39999-1.2l-0.10001-0.3
				l-4.60001,1.3C141.7,71,132.3,81,125.8,95.8c-4.8,10.8-7.1,21.9-8.6,29.3c-0.2,1-0.4,2-0.6,2.89999
				c-2.7,12.2-8.5,19.89999-10.4,22.2L106.3,352z"/>
		</g>
		<g>
			<path class="st2" d="M632.79999,355.20001c-11.20001,0.60001-23.5,5.20001-37.79999,9.70001
				c-14.20001,4.5-30.5,8.89999-49.59998,9.10001c-0.5,0-1.09998,0-1.59998,0c-19.59998,0-36.79999-4.5-51.60001-9.10001
				c-14.79999-4.60001-27.39999-9.29999-37.89999-9.89999c-3.89999-0.20001-5.60001-0.39999-6.39999-0.5v6.10001
				c0.10001,0,0.29999,0.10001,0.60001,0.10001c0.89999,0.10001,2.60001,0.29999,5.89999,0.5
				c10.70001,0.60001,23.29999,5.39999,38.10001,10c14.79999,4.60001,31.79999,9,51.29999,9c0.5,0,1.09998,0,1.59998,0
				c19-0.20001,35.09998-4.60001,49.29999-9.10001s26.5-9.10001,38-9.70001c7.20001-0.39999,9.70001-0.70001,10.40002-0.89999
				v-6.10001c-0.20001,0-0.59998,0.10001-1.09998,0.20001C640.59998,354.60001,637.90002,354.89999,632.79999,355.20001z"/>
			<path class="st2" d="M543.79999,381.60001C524,381.60001,506.5,377,492,372.5c-3-0.89999-5.79999-1.79999-8.60001-2.70001
				c-11.10001-3.60001-20.79999-6.70001-29.20001-7.20001c-2.79999-0.20001-4.79999-0.29999-6-0.5
				c-0.29999,0-0.60001-0.10001-0.70001-0.10001l-1.20001-0.20001v-9.10001l1.70001,0.29999
				c0.70001,0.10001,2.29999,0.29999,6.29999,0.5c8.60001,0.5,18.39999,3.60001,29.79999,7.29999
				c2.70001,0.89999,5.60001,1.79999,8.5,2.70001c14.70001,4.60001,32.50003,9.20001,52.69998,9
				c18.70001-0.20001,34.70001-4.5,49.20001-9c2.29999-0.70001,4.59998-1.5,6.90002-2.20001
				c11.59998-3.79999,21.70001-7,31.29999-7.5l0,0c5.29999-0.29999,7.90002-0.5,9.20001-0.70001
				c0.40002-0.10001,0.79999-0.10001,1-0.10001l1.79999-0.29999v9.10001l-1.20001,0.20001
				c-0.90002,0.20001-3.40002,0.5-10.59998,0.89999c-9.40002,0.5-19.20001,3.70001-30.59998,7.39999
				c-2.29999,0.70001-4.59998,1.5-7,2.20001c-14.59998,4.60001-30.79999,8.89999-49.79999,9.10001
				C544.90002,381.60001,544.29999,381.60001,543.79999,381.60001z M449.39999,359.20001
				c0.89999,0.10001,2.5,0.20001,5.10001,0.39999c8.79999,0.5,18.60001,3.70001,29.89999,7.29999
				c2.79999,0.89999,5.60001,1.79999,8.60001,2.70001c14.70001,4.5,32.40002,9.20001,52.40002,8.89999
				c18.59998-0.20001,34.5-4.5,48.90002-9c2.40002-0.70001,4.70001-1.5,7-2.20001c11.59998-3.79999,21.70001-7,31.40002-7.5
				c5-0.29999,7.59998-0.5,9-0.70001V356c-2,0.20001-4.90002,0.39999-8.79999,0.60001l0,0
				c-9.20001,0.5-19.09998,3.70001-30.5,7.39999c-2.20001,0.70001-4.5,1.5-6.90002,2.20001c-14.70001,4.60001-31,8.89999-50,9.20001
				c-20.59998,0.29999-38.70001-4.5-53.70001-9.10001c-2.89999-0.89999-5.79999-1.79999-8.5-2.70001
				c-11.20001-3.60001-20.79999-6.70001-29-7.10001c-2-0.10001-3.70001-0.20001-4.79999-0.29999v3H449.39999z"/>
		</g>
		<g>
			<path class="st2" d="M624.5,97.3c-5.20001-12-13.5-24.3-27.79999-32.7l0,0l-25.09998-17.4c-8-0.3-17.29999-0.6-26.59998-0.6
				c-8.20001,0-16.20001,0.2-23.29999,0.5l-27.39999,17.5l0,0C480,73,471.60001,85.3,466.5,97.3
				c-5.20001,12-7.10001,23.6-8.60001,30.7c-2.60001,12-8.39999,19.60001-10.10001,21.60001L447.89999,353.5
				c0.10001,0,0.29999,0.10001,0.60001,0.10001c0.89999,0.10001,2.60001,0.29999,5.89999,0.5
				c10.70001,0.60001,23.29999,5.39999,38.10001,10c14.79999,4.60001,31.79999,9,51.29999,9c0.5,0,1.09998,0,1.59998,0
				c19-0.20001,35.09998-4.60001,49.29999-9.10001s26.5-9.10001,38-9.70001c7.20001-0.39999,9.70001-0.70001,10.40002-0.89999
				l0.20001-203.60001c-1.5-1.8-7.5-9.39999-10.20001-21.7C631.59998,121,629.70001,109.3,624.5,97.3z"/>
			<path class="st2" d="M543.79999,374.5C524,374.5,506.5,369.89999,492,365.39999c-3-0.89999-5.79999-1.79999-8.60001-2.70001
				c-11.10001-3.60001-20.79999-6.70001-29.20001-7.20001c-2.79999-0.20001-4.79999-0.29999-6-0.5
				c-0.29999,0-0.60001-0.10001-0.70001-0.10001l-1.20001-0.20001v-1.20001V149l0.39999-0.39999c1.70001-2,7.20001-9.2,9.79999-20.9
				c0.20001-1,0.39999-2.1,0.70001-3.3c1.5-7.3,3.60001-17.3,8-27.7c6.39999-14.8,15.89999-26.1,28.39999-33.4l27.80002-17.7
				h0.40002c8.29999-0.3,16.09998-0.5,23.40002-0.5c8.09998,0,17.09998,0.2,26.59998,0.6h0.40002l25.40002,17.6
				c12.5,7.3,22,18.6,28.40002,33.4l0,0c4.5,10.4,6.5,20.4,8,27.7c0.20001,1.2,0.5,2.3,0.70001,3.3
				c2.59998,11.8,8.20001,19.10001,9.90002,21.10001l0.40002,0.39999V149.8l-0.20001,204.90001l-1.20001,0.20001
				c-0.79999,0.20001-3.40002,0.5-10.59998,0.89999c-9.40002,0.5-19.20001,3.70001-30.59998,7.39999
				c-2.29999,0.70001-4.59998,1.5-7,2.20001c-14.59998,4.60001-30.79999,8.89999-49.79999,9.10001
				C544.90002,374.5,544.29999,374.5,543.79999,374.5z M449.39999,352.10001c0.89999,0.10001,2.5,0.20001,5.10001,0.39999
				c8.79999,0.5,18.60001,3.70001,29.89999,7.29999C487.19998,360.69998,490,361.59998,493,362.5
				c14.29999,4.39999,31.5,9,50.90002,9c0.5,0,1,0,1.59998,0c18.59998-0.20001,34.5-4.5,48.90002-9
				c2.40002-0.70001,4.70001-1.5,7-2.20001c11.59998-3.79999,21.70001-7,31.40002-7.5c5-0.29999,7.70001-0.5,9-0.70001
				l0.20001-201.8c-2.09998-2.60001-7.59998-10.2-10.20001-22c-0.20001-1-0.40002-2.1-0.70001-3.3c-1.5-7.2-3.5-17-7.79999-27.1
				c-6.09998-14.2-15.29999-25-27.20001-32l-0.09998-0.1l-24.79999-17.2c-9.40002-0.4-18.09998-0.6-26.09998-0.6
				c-7.09998,0-14.79999,0.2-22.90002,0.5L495,65.9c-11.89999,7-21,17.8-27.20001,32C463.39999,108,461.39999,117.8,460,125
				c-0.20001,1.2-0.5,2.3-0.70001,3.3c-2.5,11.60001-7.89999,19.2-10,21.8L449.39999,352.10001z"/>
		</g>
	</g>
	<g>
		<polygon class="st2" points="33.9,85 50.1,160.39999 54.6,159.2 37.9,83.6 		"/>
		<path class="st2" d="M49,162.3L32.1,84l6.8-2l17.4,77.89999L49,162.3z M35.6,86l15.6,72.60001l1.6-0.39999l-16-72.6L35.6,86z"/>
	</g>
	<g>
		<polygon class="st2" points="378.60001,85 394.70001,159.8 399.20001,158.7 382.60001,83.6 		"/>
		<path class="st2" d="M393.5,161.7L376.79999,84l7-2.2l17.10001,77.3L393.5,161.7z M380.29999,86l15.5,72l1.60001-0.39999l-16-72
			L380.29999,86z"/>
	</g>
	<g>
		<polygon class="st2" points="371.5,85 355.29999,160.39999 350.70001,159.2 367.5,83.6 		"/>
		<path class="st2" d="M356.39999,162.3L349,160l17.20001-78l7.10001,2.1L356.39999,162.3z M352.5,158.10001l1.60001,0.39999
			L369.70001,86l-1.10001-0.4L352.5,158.10001z"/>
	</g>
	<g>
		<polygon class="st2" points="716,85 699.90002,159.8 695.40002,158.7 712.09998,83.6 		"/>
		<path class="st2" d="M701.09998,161.7l-14-3.89999L711,81.9l6.79999,2.1L717.5,85.3L701.09998,161.7z M697.20001,157.60001
			L698.79999,158l15.5-72l-1.09998-0.4L697.20001,157.60001z"/>
	</g>
	<g>
		<path class="st2" d="M251.60001,48.8v0.3c0,2.8-0.7,8.6-4.2,13.6L251.8,64l0,0c14.8,5.8,23.7,18.2,29.3,30.9
			s7.89999,25.6,9.39999,32.6c2.60001,12.2,8.60001,19.7,10,21.3l48.79999,9.7l16.39999-75.1L251.60001,48.8z"/>
		<path class="st2" d="M350.5,160.2l-50.79999-10.10001L299.40002,149.7c-1.79999-2-7.70001-9.60001-10.39999-22
			c-0.20001-0.9-0.39999-1.8-0.60001-2.9c-1.5-7.4-3.89999-18.5-8.70001-29.4c-6.70001-15.2-16.20001-25.3-28.39999-30l-6.39999-1.8
			l1.2-1.7c3.60001-5.2,3.89999-11.1,3.89999-12.8v-2.3l117.40001,35.5L350.5,160.2z M301.29999,147.39999l46.89999,9.3L364,84.4
			L253,50.8c-0.2,2.5-0.89999,6.8-3.3,11L252.3,62.6c12.99998,5.1,23.09999,15.7,30.09999,31.7c5,11.2,7.29999,22.6,8.89999,30
			c0.20001,1,0.39999,2,0.60001,2.9C294.29999,138.2,299.60001,145.39999,301.29999,147.39999z"/>
	</g>
	<g>
		<path class="st2" d="M153.60001,48.8L153.60001,48.8c0,0.2,0.10001,0,0.10001,0.3c0,2.8-0.2,8.6,3.39999,13.6l-4.39999,1.3
			l0.60001-0.2c-14.8,5.8-24,16.7-30.1,31.2c-5.4,12.7-7.9,25.6-9.4,32.6c-2.6,12.2-8.7,19.6-10.1,21.2L56,158.39999l-16.4-75
			L153.60001,48.8z"/>
		<path class="st2" d="M54.8,160.2l-17-77.9L155.2,46.7l-0.10001,1.8c0,0.2,0.10001,0.3,0.10001,0.5v0.4c0,2.8,0,7.9,3.10001,12.3
			l1.2,1.7l-5.7,1.6c-13.39999,5.3-22.7,14.9-29.2,30.4c-4.8,11.4-7.3,23.2-8.8,30.2l-0.5,2.1c-2.6,12.2-8.6,19.8-10.4,21.9
			L104.6,150L54.8,160.2z M41.3,84.4l15.8,72.30001l45.8-9.2c2-2.39999,7.1-9.39999,9.4-20.2l0.5-2.1c1.5-7.1,4.1-19.1,9-30.8
			c6.7-15.9,16.7-26.3,30.49999-31.9v-0.1l2.5-0.7c-2.2-4-2.5-8.2-2.5-11L41.3,84.4z M154.10001,47.5L154.10001,47.5L154.10001,47.5
			z"/>
	</g>
	<g>
		<g>
			<path class="st2" d="M525.5,371.60001c5.79999,0.79999,11.79999,1.29999,18.09998,1.29999c0.5,0,1.09998,0,1.59998,0
				c3.79999,0,7.5-0.29999,11-0.60001L525.5,371.60001z"/>
			<path class="st2" d="M543.59998,374.29999c-6,0-12-0.39999-18.29999-1.29999l0.20001-3l30.79999,0.60001l0.09998,3
				c-3.79999,0.39999-7.5,0.60001-11.20001,0.60001C544.70001,374.29999,544.09998,374.29999,543.59998,374.29999z"/>
		</g>
		<g>
			<path class="st2" d="M511.79999,47.5L511.79999,47.5c-2.10001,0.1-4,0.2-5.79999,0.3c-1.89999,0.1-3.5,0.2-4.79999,0.3
				c-1.10001,0.1-1.60001,0.1-1.89999,0.2l0,0h-0.10001c0,0,0,0-0.10001,0l-14,4.3l-101,30.8l16.60001,74.39999l46.39999-8.89999
				c0.20001-0.2,0.39999-0.5,0.60001-0.8c0.70001-0.89999,1.70001-2.3,2.79999-4.2c2.20001-3.7,4.79999-9.10001,6.29999-16.1
				c1.5-7,3.5-18.7,8.70001-30.9c5.20001-12.1,13.70001-24.6,28.20001-33.1l26-16.6C516.90002,47.3,514.29999,47.4,511.79999,47.5z"
				/>
			<path class="st2" d="M399.5,159.5l-17.20001-77.1l116.79999-35.5c0.29999,0,0.79999-0.1,2-0.2c1.29999-0.1,3-0.2,4.79999-0.3
				c1.70001-0.1,3.70001-0.2,5.79999-0.4l4.70001-0.3l-0.09998,0.1c1.09998-0.1,2.20001-0.1,3.29999-0.1l5.59998-0.2L494.60001,65
				C482.5,72.1,473.20001,83,467,97.5c-4.39999,10.2-6.39999,20.1-7.89999,27.3c-0.20001,1.2-0.5,2.3-0.70001,3.3
				c-1.60001,7.39999-4.39999,13.10001-6.5,16.5c-0.89999,1.60001-1.89999,3-2.89999,4.3c-0.29999,0.3-0.5,0.60001-0.70001,0.8
				L448,150.10001L399.5,159.5z M385.89999,84.4l15.89999,71.6l44.5-8.5c0.10001-0.10001,0.20001-0.2,0.29999-0.3
				c0.60001-0.8,1.60001-2.2,2.70001-4c2-3.3,4.60001-8.60001,6.10001-15.6c0.20001-1,0.39999-2.1,0.70001-3.3
				c1.5-7.3,3.60001-17.3,8.10001-27.8c6.5-15,16.10001-26.4,28.79999-33.8l21.20001-13.6c-0.79999,0-1.59998,0.1-2.29999,0.1
				l-3.70001,0.2c-0.70001,0-1.39999,0.1-2,0.1c-1.89999,0.1-3.5,0.2-4.79999,0.3c-1.20001,0.1-1.60001,0.1-1.70001,0.2l0,0l-14,4.3
				L385.89999,84.4z"/>
		</g>
	</g>
	<g>
		<path class="st2" d="M593.79999,48.2H593.5c-4-0.3-12.40002-0.7-20.40002-1l24.20001,16.6c14.5,8.5,23,21,28.20001,33.1
			s7.20001,23.9,8.70001,30.9S638.29999,140.2,640.5,143.90001c1.09998,1.8,2.20001,3.5,3,4.5
			c0.20001,0.3,4.09998,0.7,4.29999,0.89999l46.29999,8.5l16.59998-74.4L593.79999,48.2z"/>
		<path class="st2" d="M695.20001,159.5l-48.29999-8.89999L646.80005,150.5c-0.29999-0.10001-0.79999-0.10001-1.20001-0.2
			c-2.29999-0.39999-3-0.5-3.40002-1.10001c-0.79999-1.10001-2-2.8-3.09998-4.60001c-2.09998-3.5-4.90002-9.10001-6.5-16.5
			c-0.20001-1-0.40002-2.1-0.70001-3.3c-1.5-7.2-3.5-17-7.90002-27.3c-6.20001-14.4-15.5-25.4-27.5-32.4l-0.09998-0.1L568,45.4
			l5.20001,0.2C582,46,590,46.4,593.60004,46.6l0.59998,0.1l118.20001,35.6L695.20001,159.5z M648.29999,147.8L693,156
			l15.90002-71.6l-115.5-34.7h-0.09998c-2.90002-0.2-8.5-0.5-15-0.8l19.90002,13.6c12.59998,7.4,22.29999,18.8,28.70001,33.8
			c4.5,10.5,6.59998,20.5,8.09998,27.8c0.20001,1.2,0.5,2.3,0.70001,3.3c1.5,7,4.20001,12.3,6.09998,15.60001
			c0.90002,1.5,1.90002,3,2.59998,4c0.40002,0.10001,1.29999,0.2,1.79999,0.3C647.20001,147.5,647.79999,147.60001,648.29999,147.8z
			"/>
	</g>
</g>
<g>
	<g>
		<path class="st3" d="M178.60001,77.5c4,2.3,8.3,3.6,10.89999,4.3c2.39999-16.7-7.2-17.8-15.7-24.3c-7.2-5.4-8.5-10.1-8-15.8
			c-4.2,2.5-9.3,5.6-10,6.2c-0.10001,0.7-1.5,8.7,3.8,14.1C164.89999,67.4,173.10001,74.5,178.60001,77.5z"/>
		<path class="st3" d="M190.8,83.7L189.2,83.3c-2.89999-0.8-7.2-2.2-11.3-4.4c-5.60001-3.1-13.89999-10.3-19.3-15.7
			c-6-6.1-4.3-15.1-4.2-15.5l0.10001-0.5l0.3-0.3c0.8-0.8,6-3.9,10.2-6.4l2.10001-1l0.2,2.5c-0.39999,5.2,0.7,9.4,7.39999,14.5
			c1.7,1.3,3.5,2.4,5.2,3.4c6.8,4.1,13.10001,8,11.10001,22.3L190.8,83.7z M157.2,48.8c-0.2,1.8-0.7,8,3.5,12.2
			c5.2,5.3,13.3,12.2,18.60001,15.2l0,0c3.10001,1.8,6.5,3,8.89999,3.7c1.10001-10.9-3.60001-13.7-9.89999-17.6
			c-1.8-1.1-3.60001-2.2-5.39999-3.6c-6.60001-5-8.5-9.4-8.7-14.3C160.39999,46.7,158.10001,48.2,157.2,48.8z"/>
	</g>
	<g>
		<path class="st3" d="M200.39999,83.5c3.89999,0.1,7.89999-0.4,12-1.4c-0.2-1-0.5-3.1-0.39999-5.6c-2.8,0.6-5.60001,1-8.2,1.2
			c-3.5,0.2-7.2-0.3-11-1.2c0.10001,2.7-0.3,5-0.5,6C194.89999,83,197.60001,83.4,200.39999,83.5z"/>
		<path class="st3" d="M201.39999,85c-0.39999,0-0.7,0-1.10001,0l0,0c-2.7-0.1-5.5-0.4-8.39999-1.2L190.5,83.5l0.2-1.4
			c0.2-1,0.5-3.2,0.39999-5.7v-2l1.89999,0.5c3.89999,0.9,7.5,1.3,10.60001,1.2c2.39999-0.1,5.10001-0.5,7.89999-1.1l1.89999-0.4
			l-0.10001,1.9c-0.10001,2.5,0.2,4.6,0.3,5.4l0.2,1.4l-1.3,0.3C208.89999,84.5,205.10001,85,201.39999,85z M194,81.2
			c2.2,0.5,4.3,0.7,6.39999,0.8l0,0c3.3,0.1,6.8-0.3,10.3-1c-0.10001-0.7-0.2-1.6-0.2-2.7c-2.3,0.4-4.60001,0.7-6.60001,0.8
			c-2.89999,0.1-6.10001-0.2-9.60001-0.9C194.2,79.4,194.10001,80.4,194,81.2z"/>
	</g>
	<g>
		<path class="st3" d="M231.10001,57.8c-8.39999,6.3-17.8,7.5-15.8,23.6c2.8-0.8,7.39999-2.2,11-3.8c5.8-2.6,14.2-8.7,18.89999-15.4
			c4.3-6,4-13.3,3.89999-14.2c-0.60001-0.6-5.7-3.7-9.89999-6.2C239.89999,48.4,238.5,52.2,231.10001,57.8z"/>
		<path class="st3" d="M214,83.3l-0.2-1.7C212.10001,67.9,218.39999,64,225,60c1.7-1,3.5-2.1,5.2-3.4l0,0c7.3-5.5,8.2-8.8,7.5-14.6
			l-0.3-2.8L240,40.6c4.2,2.5,9.39999,5.6,10.2,6.4l0.3,0.3l0.10001,0.5C250.8,49,251,56.7,246.5,63.1C241.60001,70,233,76.3,227,79
			c-3.60001,1.6-8.10001,3-11.2,3.9L214,83.3z M232,58.9c-1.8,1.4-3.60001,2.5-5.39999,3.6c-6.2,3.8-10.8,6.6-10,16.9
			c2.60001-0.8,6.2-1.9,9.10001-3.3c5.60001-2.5,13.7-8.4,18.3-14.9c3.39999-4.8,3.7-10.6,3.7-12.5c-0.89999-0.6-3.2-2-6.8-4.2
			C240.89999,50.3,238.39999,54.1,232,58.9L232,58.9z"/>
	</g>
	<g>
		<path class="st3" d="M199.89999,39.4c14.10001-0.3,27.3,2.9,35.5,8.3c0.8-1.8,1.10001-3.3,1-4.4c-0.2-1.6-0.2-2.5-0.10001-3
			c-24.3-8.3-46.5-8.2-67.60001,0.1c0.10001,0.5,0.10001,1.4-0.10001,2.9c-0.10001,1.1,0.2,2.7,1,4.5
			C176.5,42.7,187.2,39.7,199.89999,39.4z"/>
		<path class="st3" d="M169,50.1l-0.8-1.7c-0.89999-2-1.3-3.8-1.10001-5.3S167.2,40.9,167.2,40.6l-0.2-1.2l1.10001-0.4
			c21.5-8.5,43.89999-8.6,68.60001-0.1l1.2,0.6l-0.2,1.1c0,0.3-0.10001,0.9,0.10001,2.6c0.2,1.4-0.2,3.3-1.10001,5.2L236,50l-1.5-1
			c-8-5.3-21-8.3-34.60001-8.1l0,0c-12.3,0.3-22.7,3.1-29.39999,8.1L169,50.1z M201.7,37.9c12.7,0,24.7,2.8,32.90001,7.6
			c0.2-0.8,0.3-1.5,0.3-2C234.8,42.7,234.8,42,234.8,41.4c-23.2-7.7-44.3-7.7-64.5,0.1c0,0.6-0.10001,1.2-0.10001,2
			c-0.10001,0.5,0,1.2,0.3,2c7.2-4.6,17.60001-7.3,29.5-7.6l0,0C200.5,37.9,201.10001,37.9,201.7,37.9z"/>
	</g>
	<g>
		<path class="st3" d="M227.60001,57.7c-6.8,4.4-10.39999,7.9-10.39999,7.9c-5.2,4.7-4.10001,14-3.8,16.3
			c0.39999-0.1,1.10001-0.3,2-0.5c-2-16.1,7.39999-17.2,15.8-23.6c7.39999-5.6,8.8-9.4,8.10001-15.9c-0.7-0.4-1.39999-0.8-2-1.2
			c0,0.4,0,1.1,0.10001,2.5C237.7,46.9,234.39999,53.2,227.60001,57.7z"/>
		<path class="st3" d="M212.10001,83.8l-0.3-1.6c-0.39999-2.8-1.5-12.5,4.3-17.6l0,0c0,0,3.60001-3.5,10.60001-8
			c6.8-4.4,9.39999-10.3,9.10001-13.1c-0.10001-1.2-0.2-2.2-0.10001-2.8l0.2-1.8l2,0.8c0.60001,0.4,1.3,0.7,2,1.1l0.60001,0.4
			l0.10001,0.7c0.89999,7.5-1.2,11.7-8.7,17.3c-1.8,1.4-3.60001,2.5-5.39999,3.6c-6.5,4-11.3,6.9-9.8,18.6l0.2,1.3l-1.2,0.3
			c-0.89999,0.2-1.60001,0.4-2,0.5L212.10001,83.8z"/>
	</g>
	<g>
		<path class="st3" d="M173.8,57.6c8.5,6.4,18.10001,7.5,15.7,24.3c0.8,0.2,1.39999,0.4,1.8,0.4c0.39999-2.2,1.7-11.9-3.5-16.7
			c0,0-3.60001-3.5-10.5-7.9c-6.89999-4.5-10.2-10.8-9.8-14.5c0.2-1.4,0.10001-2.2,0.10001-2.5c-0.60001,0.4-1.3,0.7-1.89999,1.1
			C165.3,47.5,166.60001,52.2,173.8,57.6z"/>
		<path class="st3" d="M192.60001,84.1l-1.5-0.3c-0.39999-0.1-1.10001-0.2-1.89999-0.5l-1.3-0.3l0.2-1.3
			c1.7-12.3-3.10001-15.2-9.7-19.3c-1.8-1.1-3.60001-2.2-5.39999-3.6c-7.8-5.9-9.10001-11.1-8.60001-17.1l0.10001-0.8l4.7-2.2
			l0.10001,1.8c0.10001,0.7,0,1.6-0.10001,2.8c-0.3,2.8,2.3,8.7,9.10001,13.1c6.7,4.4,10.3,7.7,10.7,8.1c5.7,5.2,4.5,15.1,4,18
			L192.60001,84.1z"/>
	</g>
	<g>
		<path class="st3" d="M592.20001,47.2c-4.09998-3.1-18.79999-12.6-46.5-12.6s-41.70001,9.6-45.5,12.6
			c5.39999-0.4,25.29999-1.8,45.59998-1.8C566,45.4,586.5,46.8,592.20001,47.2z"/>
		<path class="st3" d="M597.09998,49l-5-0.4c-5.79999-0.4-26.20001-1.8-46.29999-1.8c-20.20001,0-39.89999,1.3-45.5,1.8L495.5,49
			l3.70001-3c3.70001-3,18.09998-13,46.40002-13c28.29999,0,43.5,9.9,47.40002,13L597.09998,49z M545.59998,36
			c-20.70001,0-33.5,5.4-40.10001,9.3c8.69998-0.6,24.30002-1.4,40.19998-1.4c15.79999,0,31.79999,0.8,40.79999,1.4
			C579.59998,41.4,566.29999,36,545.59998,36z"/>
	</g>
	<g>
		<g>
			<path class="st3" d="M250.8,365.20001c9.49998-0.39999,17.8-0.89999,24.59999-1.5c-7.39999,1.89999-15.29999,4.60001-24,7.29999
				c-14.2,4.5-30.3,8.79999-49.3,9.10001c-0.5,0-1.10001,0-1.60001,0c-19.5,0-36.5-4.39999-51.3-9
				c-10-3.10001-19-6.29999-27.1-8.20001c6.9,0.70001,15.8,1.39999,26.9,2.10001c14.8,4.60001,31.89999,9.10001,51.59999,9.10001
				c0.5,0,1.10001,0,1.60001,0C220.8,373.79999,236.8,369.60001,250.8,365.20001z"/>
			<path class="st3" d="M200.5,381.70001c-19.8,0-37.3-4.60001-51.8-9.10001c-2.89999-0.89999-5.8-1.79999-8.60001-2.70001
				c-6.60001-2.10001-17.8-5.60001-23.5-6.89999l5.5-1.5c8.10001,0.79999,17.10001,1.5,26.8,2l0.39999,0.10001
				c14.7,4.60001,32.5,9.20001,52.7,9c18.5-0.20001,34.09999-4.29999,48.3-8.79999l0.39999-0.10001
				c8.60001-0.39999,16.89999-0.89999,24.5-1.5l6.29999,1.29999c-5.39999,1.39999-16.79999,4.89999-22.79999,6.79999
				c-2.29999,0.70001-4.60001,1.5-6.89999,2.20001c-14.60001,4.60001-30.8,8.89999-49.8,9.10001
				C201.60001,381.70001,201,381.70001,200.5,381.70001z M137.2,365.79999c1.3,0.39999,2.60001,0.79999,3.89999,1.20001
				c2.8,0.89999,5.60001,1.79999,8.5,2.70001c14.7,4.5,32.40001,9.20001,52.40001,8.89999c18.60001-0.20001,34.5-4.5,48.89999-9
				c2.39999-0.70001,4.7-1.5,6.89999-2.20001C259.19998,367,260.5,366.5,261.89999,366.10001
				c-3.60001,0.20001-7.2,0.39999-10.89999,0.60001c-14.3,4.5-30.10001,8.60001-48.89999,8.79999
				c-20.5,0.29999-38.5-4.39999-53.39999-9.10001C144.7,366.29999,140.89999,366,137.2,365.79999z"/>
		</g>
		<g>
			<path class="st3" d="M300,360.29999v-6c-6.79999,0.39999-71.60001,4.29999-97.7,4.29999c-26.2,0-91.1-3.79999-97.5-4.20001
				v5.39999c0.2,0,0.6,0.10001,1,0.20001c1,0.20001,2.4,0.39999,4.3,0.60001c3.9,0.5,9.7,1.20001,17.6,1.89999
				c15.8,1.39999,39.7,2.79999,72.50001,2.79999c57.39999,0,91.10001-3.89999,98.60001-4.79999
				C299.29999,360.39999,299.70001,360.39999,300,360.29999z"/>
			<path class="st3" d="M200.2,366.79999c-33.90001,0-58.2-1.5-72.7-2.79999c-8.2-0.70001-14.1-1.5-17.6-2
				c-1.9-0.29999-3.4-0.5-4.4-0.60001c-0.5-0.10001-0.8-0.10001-1-0.20001l-1.2-0.20001v-8.20001l1.6,0.10001
				c7.2,0.39999,71.4,4.20001,97.4,4.20001s90.3-3.79999,97.59999-4.29999l1.60001-0.10001v8.89999l-1.29999,0.20001l-0.20001-1.5
				l0.10001,1.5L299,362C290.10001,363.10001,256.89999,366.79999,200.2,366.79999z M106.3,358.5c0.9,0.20001,2.3,0.39999,4,0.60001
				c3.5,0.5,9.4,1.20001,17.5,1.89999c14.39999,1.29999,38.59999,2.79999,72.40001,2.79999
				c56.20001,0,89.29999-3.70001,98.29999-4.79999v-3.10001c-12.29999,0.70001-71.39999,4.20001-96.2,4.20001
				s-83.8-3.39999-96-4.10001V358.5z"/>
		</g>
		<g>
			<path class="st3" d="M300.10001,149.8c0,0-7.5-8-10.60001-22.1c-1.5-7-3.79999-19.9-9.29999-32.4S265.89999,70.6,251.5,65
				l-4.7-1.3c-5,6.6-13.2,12.6-19.10001,15.3c-5.89999,2.6-14,4.7-14,4.7l-0.5,0.1v-0.1c-3.8,0.9-7.60001,1.5-11.39999,1.5
				c-0.39999,0-0.7,0-1.10001,0C197.8,85.1,195,84.7,192.3,84.1v0.1l-0.5-0.1c0,0-7.3-1.4-13.89999-5.1
				c-4.7-2.7-11.60001-8.3-17-13.4c-0.39999-0.3-0.7-0.6-1.10001-0.9L159.7,64.6l-0.10001-0.2c-0.3-0.3-0.60001-0.6-0.89999-0.8
				l-5.60001,1.6c-14.39999,5.7-23.2,17.8-28.7,30.3s-7.8,25.4-9.3,32.4c-2.8,12.99999-9.3,20.7-10.4,21.9l0.1,203.8
				c0.5,0,1.4,0.10001,2.6,0.20001c2,0.10001,4.8,0.29999,8.4,0.5c7,0.39999,16.7,0.89999,27.2,1.5
				c21.10001,1.10001,45.59999,2.10001,59.3,2.10001c24.10001,0,81.20001-3.29999,95.10001-4.10001
				c1.20001-0.10001,2.10001-0.10001,2.60001-0.20001l0.20001-203.39999L300.10001,149.8L300.10001,149.8z"/>
			<path class="st3" d="M202.3,359.10001c-14.3,0-40.2-1.20001-59.40001-2.10001c-10.89999-0.5-20.9-1.10001-27.2-1.5
				c-3.5-0.20001-6.4-0.39999-8.4-0.5l-4-0.20001L103.2,149l0.4-0.39999c1.2-1.39999,7.4-8.8,10.1-21.3c0.2-0.9,0.4-1.8,0.6-2.8
				c1.6-7.5,3.9-18.7,8.8-29.9c6.9-15.7,16.8-26.1,29.50001-31.1h0.10001l6.39999-1.8l0.60001,0.6c0.3,0.3,0.60001,0.6,0.8,0.8
				l0.2,0.2l0.10001,0.2l0.89999,0.7c6,5.7,12.60001,10.9,16.8,13.3c4.89999,2.8,10.3,4.2,12.39999,4.7v-0.1l1.5,0.3
				c2.7,0.7,5.39999,1,8.10001,1.1c3.89999,0.1,7.89999-0.4,12.10001-1.4l1.5-0.4v0.1c2.39999-0.6,8.3-2.3,12.8-4.3
				c5.39999-2.4,13.5-8.1,18.60001-14.8l0.60001-0.8l5.89999,1.7c12.70001,5,22.60001,15.4,29.5,31.1
				c4.89999,11.1,7.29999,22.4,8.79999,29.9c0.20001,1,0.39999,2,0.60001,2.8c2.70001,12.7,9.10001,20.2,10.10001,21.3l0.70001,0.3
				l-0.20001,205.79999l-4,0.20001C285.89999,355.70001,226.7,359.10001,202.3,359.10001z M106.3,352l1.2,0.10001
				c2,0.10001,4.8,0.29999,8.4,0.5c6.4,0.39999,16.3,0.89999,27.2,1.5c19.2,1,45,2.10001,59.2,2.10001
				c24.39999,0,83.40001-3.39999,94.99998-4.10001L298.5,352l0.20001-201.3c-1.29999-1.5-7.89999-9.5-10.70001-22.60001
				c-0.20001-0.9-0.39999-1.8-0.60001-2.9c-1.5-7.3-3.79999-18.4-8.60001-29.3C272.20001,81,262.89999,71,251,66.3l-3.7-1
				c-5.39999,6.8-13.60001,12.4-19.10001,14.9s-12.7,4.3-14.2,4.7h-0.10001l-2,0.5v-0.1C208,86.2,204.2,86.5,200.5,86.4
				c-2.60001-0.1-5.2-0.4-7.8-1l-1.5-0.2c-0.7-0.1-7.8-1.6-14.2-5.2c-5.3-3-12.7-9.2-17.3-13.6l-1.39999-1.2l-0.10001-0.3
				l-4.60001,1.3C141.7,71,132.3,81,125.8,95.8c-4.8,10.8-7.1,21.9-8.6,29.3c-0.2,1-0.4,2-0.6,2.89999
				c-2.7,12.2-8.5,19.89999-10.4,22.2L106.3,352z"/>
		</g>
		<g>
			<path class="st3" d="M632.79999,355.20001c-11.20001,0.60001-23.5,5.20001-37.79999,9.70001
				c-14.20001,4.5-30.5,8.89999-49.59998,9.10001c-0.5,0-1.09998,0-1.59998,0c-19.59998,0-36.79999-4.5-51.60001-9.10001
				c-14.79999-4.60001-27.39999-9.29999-37.89999-9.89999c-3.89999-0.20001-5.60001-0.39999-6.39999-0.5v6.10001
				c0.10001,0,0.29999,0.10001,0.60001,0.10001c0.89999,0.10001,2.60001,0.29999,5.89999,0.5
				c10.70001,0.60001,23.29999,5.39999,38.10001,10c14.79999,4.60001,31.79999,9,51.29999,9c0.5,0,1.09998,0,1.59998,0
				c19-0.20001,35.09998-4.60001,49.29999-9.10001s26.5-9.10001,38-9.70001c7.20001-0.39999,9.70001-0.70001,10.40002-0.89999
				v-6.10001c-0.20001,0-0.59998,0.10001-1.09998,0.20001C640.59998,354.60001,637.90002,354.89999,632.79999,355.20001z"/>
			<path class="st3" d="M543.79999,381.60001C524,381.60001,506.5,377,492,372.5c-3-0.89999-5.79999-1.79999-8.60001-2.70001
				c-11.10001-3.60001-20.79999-6.70001-29.20001-7.20001c-2.79999-0.20001-4.79999-0.29999-6-0.5
				c-0.29999,0-0.60001-0.10001-0.70001-0.10001l-1.20001-0.20001v-9.10001l1.70001,0.29999
				c0.70001,0.10001,2.29999,0.29999,6.29999,0.5c8.60001,0.5,18.39999,3.60001,29.79999,7.29999
				c2.70001,0.89999,5.60001,1.79999,8.5,2.70001c14.70001,4.60001,32.50003,9.20001,52.69998,9
				c18.70001-0.20001,34.70001-4.5,49.20001-9c2.29999-0.70001,4.59998-1.5,6.90002-2.20001
				c11.59998-3.79999,21.70001-7,31.29999-7.5l0,0c5.29999-0.29999,7.90002-0.5,9.20001-0.70001
				c0.40002-0.10001,0.79999-0.10001,1-0.10001l1.79999-0.29999v9.10001l-1.20001,0.20001
				c-0.90002,0.20001-3.40002,0.5-10.59998,0.89999c-9.40002,0.5-19.20001,3.70001-30.59998,7.39999
				c-2.29999,0.70001-4.59998,1.5-7,2.20001c-14.59998,4.60001-30.79999,8.89999-49.79999,9.10001
				C544.90002,381.60001,544.29999,381.60001,543.79999,381.60001z M449.39999,359.20001
				c0.89999,0.10001,2.5,0.20001,5.10001,0.39999c8.79999,0.5,18.60001,3.70001,29.89999,7.29999
				c2.79999,0.89999,5.60001,1.79999,8.60001,2.70001c14.70001,4.5,32.40002,9.20001,52.40002,8.89999
				c18.59998-0.20001,34.5-4.5,48.90002-9c2.40002-0.70001,4.70001-1.5,7-2.20001c11.59998-3.79999,21.70001-7,31.40002-7.5
				c5-0.29999,7.59998-0.5,9-0.70001V356c-2,0.20001-4.90002,0.39999-8.79999,0.60001l0,0
				c-9.20001,0.5-19.09998,3.70001-30.5,7.39999c-2.20001,0.70001-4.5,1.5-6.90002,2.20001c-14.70001,4.60001-31,8.89999-50,9.20001
				c-20.59998,0.29999-38.70001-4.5-53.70001-9.10001c-2.89999-0.89999-5.79999-1.79999-8.5-2.70001
				c-11.20001-3.60001-20.79999-6.70001-29-7.10001c-2-0.10001-3.70001-0.20001-4.79999-0.29999v3H449.39999z"/>
		</g>
		<g>
			<path class="st3" d="M624.5,97.3c-5.20001-12-13.5-24.3-27.79999-32.7l0,0l-25.09998-17.4c-8-0.3-17.29999-0.6-26.59998-0.6
				c-8.20001,0-16.20001,0.2-23.29999,0.5l-27.39999,17.5l0,0C480,73,471.60001,85.3,466.5,97.3
				c-5.20001,12-7.10001,23.6-8.60001,30.7c-2.60001,12-8.39999,19.60001-10.10001,21.60001L447.89999,353.5
				c0.10001,0,0.29999,0.10001,0.60001,0.10001c0.89999,0.10001,2.60001,0.29999,5.89999,0.5
				c10.70001,0.60001,23.29999,5.39999,38.10001,10c14.79999,4.60001,31.79999,9,51.29999,9c0.5,0,1.09998,0,1.59998,0
				c19-0.20001,35.09998-4.60001,49.29999-9.10001s26.5-9.10001,38-9.70001c7.20001-0.39999,9.70001-0.70001,10.40002-0.89999
				l0.20001-203.60001c-1.5-1.8-7.5-9.39999-10.20001-21.7C631.59998,121,629.70001,109.3,624.5,97.3z"/>
			<path class="st3" d="M543.79999,374.5C524,374.5,506.5,369.89999,492,365.39999c-3-0.89999-5.79999-1.79999-8.60001-2.70001
				c-11.10001-3.60001-20.79999-6.70001-29.20001-7.20001c-2.79999-0.20001-4.79999-0.29999-6-0.5
				c-0.29999,0-0.60001-0.10001-0.70001-0.10001l-1.20001-0.20001v-1.20001V149l0.39999-0.39999c1.70001-2,7.20001-9.2,9.79999-20.9
				c0.20001-1,0.39999-2.1,0.70001-3.3c1.5-7.3,3.60001-17.3,8-27.7c6.39999-14.8,15.89999-26.1,28.39999-33.4l27.80002-17.7
				h0.40002c8.29999-0.3,16.09998-0.5,23.40002-0.5c8.09998,0,17.09998,0.2,26.59998,0.6h0.40002l25.40002,17.6
				c12.5,7.3,22,18.6,28.40002,33.4l0,0c4.5,10.4,6.5,20.4,8,27.7c0.20001,1.2,0.5,2.3,0.70001,3.3
				c2.59998,11.8,8.20001,19.10001,9.90002,21.10001l0.40002,0.39999V149.8l-0.20001,204.90001l-1.20001,0.20001
				c-0.79999,0.20001-3.40002,0.5-10.59998,0.89999c-9.40002,0.5-19.20001,3.70001-30.59998,7.39999
				c-2.29999,0.70001-4.59998,1.5-7,2.20001c-14.59998,4.60001-30.79999,8.89999-49.79999,9.10001
				C544.90002,374.5,544.29999,374.5,543.79999,374.5z M449.39999,352.10001c0.89999,0.10001,2.5,0.20001,5.10001,0.39999
				c8.79999,0.5,18.60001,3.70001,29.89999,7.29999C487.19998,360.69998,490,361.59998,493,362.5
				c14.29999,4.39999,31.5,9,50.90002,9c0.5,0,1,0,1.59998,0c18.59998-0.20001,34.5-4.5,48.90002-9
				c2.40002-0.70001,4.70001-1.5,7-2.20001c11.59998-3.79999,21.70001-7,31.40002-7.5c5-0.29999,7.70001-0.5,9-0.70001
				l0.20001-201.8c-2.09998-2.60001-7.59998-10.2-10.20001-22c-0.20001-1-0.40002-2.1-0.70001-3.3c-1.5-7.2-3.5-17-7.79999-27.1
				c-6.09998-14.2-15.29999-25-27.20001-32l-0.09998-0.1l-24.79999-17.2c-9.40002-0.4-18.09998-0.6-26.09998-0.6
				c-7.09998,0-14.79999,0.2-22.90002,0.5L495,65.9c-11.89999,7-21,17.8-27.20001,32C463.39999,108,461.39999,117.8,460,125
				c-0.20001,1.2-0.5,2.3-0.70001,3.3c-2.5,11.60001-7.89999,19.2-10,21.8L449.39999,352.10001z"/>
		</g>
	</g>
	<g>
		<polygon class="st3" points="33.9,85 50.1,160.39999 54.6,159.2 37.9,83.6 		"/>
		<path class="st3" d="M49,162.3L32.1,84l6.8-2l17.4,77.89999L49,162.3z M35.6,86l15.6,72.60001l1.6-0.39999l-16-72.6L35.6,86z"/>
	</g>
	<g>
		<polygon class="st3" points="378.60001,85 394.70001,159.8 399.20001,158.7 382.60001,83.6 		"/>
		<path class="st3" d="M393.5,161.7L376.79999,84l7-2.2l17.10001,77.3L393.5,161.7z M380.29999,86l15.5,72l1.60001-0.39999l-16-72
			L380.29999,86z"/>
	</g>
	<g>
		<polygon class="st3" points="371.5,85 355.29999,160.39999 350.70001,159.2 367.5,83.6 		"/>
		<path class="st3" d="M356.39999,162.3L349,160l17.20001-78l7.10001,2.1L356.39999,162.3z M352.5,158.10001l1.60001,0.39999
			L369.70001,86l-1.10001-0.4L352.5,158.10001z"/>
	</g>
	<g>
		<polygon class="st3" points="716,85 699.90002,159.8 695.40002,158.7 712.09998,83.6 		"/>
		<path class="st3" d="M701.09998,161.7l-14-3.89999L711,81.9l6.79999,2.1L717.5,85.3L701.09998,161.7z M697.20001,157.60001
			L698.79999,158l15.5-72l-1.09998-0.4L697.20001,157.60001z"/>
	</g>
	<g>
		<path class="st3" d="M251.60001,48.8v0.3c0,2.8-0.7,8.6-4.2,13.6L251.8,64l0,0c14.8,5.8,23.7,18.2,29.3,30.9
			s7.89999,25.6,9.39999,32.6c2.60001,12.2,8.60001,19.7,10,21.3l48.79999,9.7l16.39999-75.1L251.60001,48.8z"/>
		<path class="st3" d="M350.5,160.2l-50.79999-10.10001L299.40002,149.7c-1.79999-2-7.70001-9.60001-10.39999-22
			c-0.20001-0.9-0.39999-1.8-0.60001-2.9c-1.5-7.4-3.89999-18.5-8.70001-29.4c-6.70001-15.2-16.20001-25.3-28.39999-30l-6.39999-1.8
			l1.2-1.7c3.60001-5.2,3.89999-11.1,3.89999-12.8v-2.3l117.40001,35.5L350.5,160.2z M301.29999,147.39999l46.89999,9.3L364,84.4
			L253,50.8c-0.2,2.5-0.89999,6.8-3.3,11L252.3,62.6c12.99998,5.1,23.09999,15.7,30.09999,31.7c5,11.2,7.29999,22.6,8.89999,30
			c0.20001,1,0.39999,2,0.60001,2.9C294.29999,138.2,299.60001,145.39999,301.29999,147.39999z"/>
	</g>
	<g>
		<path class="st3" d="M153.60001,48.8L153.60001,48.8c0,0.2,0.10001,0,0.10001,0.3c0,2.8-0.2,8.6,3.39999,13.6l-4.39999,1.3
			l0.60001-0.2c-14.8,5.8-24,16.7-30.1,31.2c-5.4,12.7-7.9,25.6-9.4,32.6c-2.6,12.2-8.7,19.6-10.1,21.2L56,158.39999l-16.4-75
			L153.60001,48.8z"/>
		<path class="st3" d="M54.8,160.2l-17-77.9L155.2,46.7l-0.10001,1.8c0,0.2,0.10001,0.3,0.10001,0.5v0.4c0,2.8,0,7.9,3.10001,12.3
			l1.2,1.7l-5.7,1.6c-13.39999,5.3-22.7,14.9-29.2,30.4c-4.8,11.4-7.3,23.2-8.8,30.2l-0.5,2.1c-2.6,12.2-8.6,19.8-10.4,21.9
			L104.6,150L54.8,160.2z M41.3,84.4l15.8,72.30001l45.8-9.2c2-2.39999,7.1-9.39999,9.4-20.2l0.5-2.1c1.5-7.1,4.1-19.1,9-30.8
			c6.7-15.9,16.7-26.3,30.49999-31.9v-0.1l2.5-0.7c-2.2-4-2.5-8.2-2.5-11L41.3,84.4z M154.10001,47.5L154.10001,47.5L154.10001,47.5
			z"/>
	</g>
	<g>
		<g>
			<path class="st3" d="M525.5,371.60001c5.79999,0.79999,11.79999,1.29999,18.09998,1.29999c0.5,0,1.09998,0,1.59998,0
				c3.79999,0,7.5-0.29999,11-0.60001L525.5,371.60001z"/>
			<path class="st3" d="M543.59998,374.29999c-6,0-12-0.39999-18.29999-1.29999l0.20001-3l30.79999,0.60001l0.09998,3
				c-3.79999,0.39999-7.5,0.60001-11.20001,0.60001C544.70001,374.29999,544.09998,374.29999,543.59998,374.29999z"/>
		</g>
		<g>
			<path class="st3" d="M511.79999,47.5L511.79999,47.5c-2.10001,0.1-4,0.2-5.79999,0.3c-1.89999,0.1-3.5,0.2-4.79999,0.3
				c-1.10001,0.1-1.60001,0.1-1.89999,0.2l0,0h-0.10001c0,0,0,0-0.10001,0l-14,4.3l-101,30.8l16.60001,74.39999l46.39999-8.89999
				c0.20001-0.2,0.39999-0.5,0.60001-0.8c0.70001-0.89999,1.70001-2.3,2.79999-4.2c2.20001-3.7,4.79999-9.10001,6.29999-16.1
				c1.5-7,3.5-18.7,8.70001-30.9c5.20001-12.1,13.70001-24.6,28.20001-33.1l26-16.6C516.90002,47.3,514.29999,47.4,511.79999,47.5z"
				/>
			<path class="st3" d="M399.5,159.5l-17.20001-77.1l116.79999-35.5c0.29999,0,0.79999-0.1,2-0.2c1.29999-0.1,3-0.2,4.79999-0.3
				c1.70001-0.1,3.70001-0.2,5.79999-0.4l4.70001-0.3l-0.09998,0.1c1.09998-0.1,2.20001-0.1,3.29999-0.1l5.59998-0.2L494.60001,65
				C482.5,72.1,473.20001,83,467,97.5c-4.39999,10.2-6.39999,20.1-7.89999,27.3c-0.20001,1.2-0.5,2.3-0.70001,3.3
				c-1.60001,7.39999-4.39999,13.10001-6.5,16.5c-0.89999,1.60001-1.89999,3-2.89999,4.3c-0.29999,0.3-0.5,0.60001-0.70001,0.8
				L448,150.10001L399.5,159.5z M385.89999,84.4l15.89999,71.6l44.5-8.5c0.10001-0.10001,0.20001-0.2,0.29999-0.3
				c0.60001-0.8,1.60001-2.2,2.70001-4c2-3.3,4.60001-8.60001,6.10001-15.6c0.20001-1,0.39999-2.1,0.70001-3.3
				c1.5-7.3,3.60001-17.3,8.10001-27.8c6.5-15,16.10001-26.4,28.79999-33.8l21.20001-13.6c-0.79999,0-1.59998,0.1-2.29999,0.1
				l-3.70001,0.2c-0.70001,0-1.39999,0.1-2,0.1c-1.89999,0.1-3.5,0.2-4.79999,0.3c-1.20001,0.1-1.60001,0.1-1.70001,0.2l0,0l-14,4.3
				L385.89999,84.4z"/>
		</g>
	</g>
	<g>
		<path class="st3" d="M593.79999,48.2H593.5c-4-0.3-12.40002-0.7-20.40002-1l24.20001,16.6c14.5,8.5,23,21,28.20001,33.1
			s7.20001,23.9,8.70001,30.9S638.29999,140.2,640.5,143.90001c1.09998,1.8,2.20001,3.5,3,4.5
			c0.20001,0.3,4.09998,0.7,4.29999,0.89999l46.29999,8.5l16.59998-74.4L593.79999,48.2z"/>
		<path class="st3" d="M695.20001,159.5l-48.29999-8.89999L646.80005,150.5c-0.29999-0.10001-0.79999-0.10001-1.20001-0.2
			c-2.29999-0.39999-3-0.5-3.40002-1.10001c-0.79999-1.10001-2-2.8-3.09998-4.60001c-2.09998-3.5-4.90002-9.10001-6.5-16.5
			c-0.20001-1-0.40002-2.1-0.70001-3.3c-1.5-7.2-3.5-17-7.90002-27.3c-6.20001-14.4-15.5-25.4-27.5-32.4l-0.09998-0.1L568,45.4
			l5.20001,0.2C582,46,590,46.4,593.60004,46.6l0.59998,0.1l118.20001,35.6L695.20001,159.5z M648.29999,147.8L693,156
			l15.90002-71.6l-115.5-34.7h-0.09998c-2.90002-0.2-8.5-0.5-15-0.8l19.90002,13.6c12.59998,7.4,22.29999,18.8,28.70001,33.8
			c4.5,10.5,6.59998,20.5,8.09998,27.8c0.20001,1.2,0.5,2.3,0.70001,3.3c1.5,7,4.20001,12.3,6.09998,15.60001
			c0.90002,1.5,1.90002,3,2.59998,4c0.40002,0.10001,1.29999,0.2,1.79999,0.3C647.20001,147.5,647.79999,147.60001,648.29999,147.8z
			"/>
	</g>
</g>
<g>
	<path class="st4" d="M177.39999,47.9c0-0.1-0.2-0.1-0.3-0.1c-0.3,0.1-0.7,0.2-1,0.3c0.10001-0.3,0.10001-0.7,0.2-1
		c0-0.1-0.10001-0.2-0.2-0.2c-0.10001,0-0.2,0.1-0.2,0.2c-0.10001,0.4-0.10001,0.8-0.2,1.2c-0.7,0.2-1.3,0.5-2,0.7
		c-0.39999-0.2-0.8-0.5-1.2-0.7c-0.10001-0.1-0.2,0-0.3,0c-0.10001,0.1-0.10001,0.2,0,0.2c0.3,0.2,0.7,0.4,1,0.6
		c-0.3,0.1-0.60001,0.2-0.89999,0.4c-0.10001,0-0.2,0.1-0.10001,0.2c0,0.1,0.2,0.1,0.3,0.1c0.39999-0.1,0.7-0.3,1.10001-0.4
		c0.60001,0.4,1.2,0.7,1.8,1.1c0.10001,0,0.10001,0,0.2,0c0.10001,0,0.10001-0.1,0.10001-0.1c0.10001-0.6,0.2-1.2,0.3-1.9
		c0.39999-0.1,0.8-0.3,1.2-0.4C177.39999,48.1,177.5,48,177.39999,47.9z M175.5,50c-0.39999-0.3-0.89999-0.5-1.3-0.8
		c0.5-0.2,1-0.4,1.5-0.6C175.60001,49.1,175.5,49.6,175.5,50z"/>
	<g>
		<path class="st4" d="M181.60001,45.8c-0.8,0.2-1.2,0.8-0.89999,1.4c0.2,0.6,1,0.9,1.7,0.7s1.10001-0.8,0.89999-1.4
			C183.10001,45.9,182.3,45.6,181.60001,45.8z M182.2,47.4c-0.39999,0.1-0.8-0.1-0.89999-0.4c-0.10001-0.3,0.10001-0.7,0.5-0.8
			s0.7,0.1,0.89999,0.4C182.7,46.9,182.5,47.3,182.2,47.4z"/>
		<path class="st4" d="M185.2,44.9c-0.3,0.1-0.5,0.1-0.8,0.2c-0.10001,0.2-0.2,0.5-0.3,0.7c-0.2-0.2-0.39999-0.3-0.60001-0.5
			c-0.3,0.1-0.5,0.1-0.8,0.2c0.39999,0.3,0.8,0.5,1.2,0.8c-0.2,0.4-0.3,0.8-0.5,1.2c0.2-0.1,0.5-0.1,0.7-0.2
			c0.10001-0.2,0.2-0.5,0.3-0.7c0.2,0.2,0.5,0.3,0.7,0.5c0.3-0.1,0.5-0.1,0.8-0.2c-0.39999-0.3-0.8-0.6-1.2-0.9
			C184.8,45.7,185,45.3,185.2,44.9z"/>
		<path class="st4" d="M189.2,44.1c0.10001,0.4,0.2,0.8,0.3,1.2c-0.5-0.4-0.89999-0.7-1.39999-1c-0.2,0-0.39999,0.1-0.60001,0.1
			c0.2,0.7,0.39999,1.4,0.5,2c0.2,0,0.39999-0.1,0.60001-0.1c-0.10001-0.4-0.2-0.8-0.3-1.2c0.5,0.3,0.89999,0.7,1.39999,1
			c0.2,0,0.39999-0.1,0.60001-0.1c-0.10001-0.7-0.3-1.4-0.39999-2.1C189.60001,44.1,189.39999,44.1,189.2,44.1z"/>
		<path class="st4" d="M185.39999,45.3c0.60001-0.1,1.2-0.2,1.7-0.4c0-0.1-0.10001-0.3-0.10001-0.4
			c-0.5,0.1-0.89999,0.2-1.39999,0.3C185.60001,45,185.5,45.1,185.39999,45.3z"/>
		<path class="st4" d="M186.3,46.8c0.39999-0.1,0.89999-0.2,1.3-0.3c0-0.1-0.10001-0.3-0.10001-0.4
			c-0.60001,0.1-1.10001,0.2-1.60001,0.3C186,46.6,186.10001,46.7,186.3,46.8z"/>
		<path class="st4" d="M185.2,45.7c0,0.1-0.10001,0.1-0.10001,0.2c0.10001,0.1,0.2,0.1,0.3,0.2c0.7-0.1,1.3-0.3,2-0.4
			c0-0.1-0.10001-0.3-0.10001-0.4C186.60001,45.5,185.89999,45.6,185.2,45.7L185.2,45.7z"/>
	</g>
	<g>
		<path class="st4" d="M203.2,43c-0.8,0-1.39999,0.4-1.39999,1.1c0,0.6,0.60001,1.1,1.3,1.1c0.8,0,1.3-0.4,1.39999-1
			C204.60001,43.5,204,43.1,203.2,43z M203.2,44.7c-0.39999,0-0.7-0.3-0.7-0.6s0.3-0.6,0.7-0.6s0.7,0.3,0.7,0.6
			C203.89999,44.5,203.60001,44.7,203.2,44.7z"/>
		<path class="st4" d="M206.89999,43.2c-0.3,0-0.5,0-0.8,0c-0.2,0.2-0.3,0.4-0.5,0.6c-0.10001-0.2-0.3-0.4-0.39999-0.6
			c-0.3,0-0.5,0-0.8,0c0.3,0.3,0.5,0.7,0.8,1.1c-0.3,0.3-0.60001,0.7-0.89999,1c0.3,0,0.5,0,0.8,0c0.2-0.2,0.39999-0.4,0.60001-0.6
			c0.2,0.2,0.3,0.4,0.5,0.7c0.3,0,0.5,0,0.8,0c-0.3-0.4-0.5-0.8-0.8-1.1C206.3,43.8,206.60001,43.5,206.89999,43.2z"/>
		<path class="st4" d="M211,43.5c-0.10001,0.4-0.10001,0.8-0.2,1.3c-0.3-0.5-0.60001-0.9-1-1.4c-0.2,0-0.39999,0-0.60001-0.1
			c-0.10001,0.7-0.2,1.4-0.2,2.1c0.2,0,0.39999,0,0.60001,0.1c0.10001-0.4,0.10001-0.8,0.2-1.2c0.3,0.5,0.60001,0.9,1,1.4
			c0.2,0,0.39999,0,0.60001,0.1c0.10001-0.7,0.2-1.4,0.3-2.1C211.39999,43.6,211.2,43.5,211,43.5z"/>
		<path class="st4" d="M207,43.6c0.60001,0,1.2,0.1,1.8,0.1c0-0.1,0-0.3,0-0.4c-0.5,0-1-0.1-1.39999-0.1
			C207.3,43.3,207.10001,43.5,207,43.6z"/>
		<path class="st4" d="M207.3,45.3c0.39999,0,0.89999,0.1,1.3,0.1c0-0.1,0-0.3,0-0.4c-0.60001,0-1.10001-0.1-1.7-0.1
			C207.10001,45,207.2,45.1,207.3,45.3z"/>
		<path class="st4" d="M206.60001,44c-0.10001,0.1-0.10001,0.1-0.2,0.2c0.10001,0.1,0.10001,0.2,0.2,0.3c0.7,0,1.3,0.1,2,0.1
			c0-0.1,0-0.3,0-0.4C208,44.1,207.3,44,206.60001,44L206.60001,44z"/>
	</g>
	<path class="st4" d="M198.60001,43.9c0-0.1-0.10001-0.2-0.2-0.2c-0.3,0-0.7,0-1,0.1c0.2-0.3,0.39999-0.6,0.5-0.9
		c0-0.1,0-0.2-0.10001-0.2s-0.2,0-0.3,0.1c-0.2,0.4-0.39999,0.7-0.60001,1.1c-0.7,0-1.39999,0.1-2.10001,0.2
		c-0.3-0.3-0.60001-0.6-0.89999-1c-0.10001-0.1-0.2-0.1-0.3,0s-0.10001,0.2,0,0.2c0.2,0.3,0.5,0.5,0.7,0.8
		c-0.3,0-0.60001,0.1-0.89999,0.1c-0.10001,0-0.2,0.1-0.2,0.2c0,0.1,0.10001,0.2,0.2,0.1c0.39999,0,0.8-0.1,1.10001-0.1
		c0.39999,0.5,0.89999,1,1.3,1.5c0,0,0.10001,0.1,0.2,0.1c0.10001,0,0.10001,0,0.2-0.1c0.3-0.6,0.60001-1.1,0.89999-1.7
		c0.39999,0,0.8-0.1,1.3-0.1C198.5,44.1,198.60001,44,198.60001,43.9z M196,45.5c-0.3-0.4-0.60001-0.7-1-1.1
		c0.5-0.1,1.10001-0.1,1.60001-0.1C196.39999,44.6,196.2,45,196,45.5z"/>
	<g>
		<path class="st4" d="M224.8,46.2c-0.8-0.2-1.5,0.1-1.7,0.6c-0.2,0.6,0.2,1.2,0.89999,1.4s1.5,0,1.7-0.6
			C225.89999,47.1,225.5,46.5,224.8,46.2z M224.10001,47.8c-0.39999-0.1-0.60001-0.4-0.39999-0.8c0.10001-0.3,0.5-0.5,0.89999-0.4
			S225.20001,47,225,47.4C224.89999,47.8,224.5,47.9,224.10001,47.8z"/>
		<path class="st4" d="M228.3,47.4c-0.2-0.1-0.5-0.2-0.7-0.3c-0.2,0.1-0.5,0.3-0.7,0.4c-0.10001-0.2-0.10001-0.5-0.2-0.7
			c-0.2-0.1-0.5-0.2-0.7-0.2c0.10001,0.4,0.3,0.8,0.39999,1.2c-0.39999,0.2-0.89999,0.5-1.3,0.7c0.2,0.1,0.5,0.2,0.7,0.2
			c0.3-0.1,0.5-0.3,0.8-0.4c0.10001,0.3,0.2,0.5,0.2,0.8c0.2,0.1,0.5,0.2,0.7,0.2c-0.10001-0.4-0.2-0.9-0.39999-1.3
			C227.5,47.8,227.89999,47.6,228.3,47.4z"/>
		<path class="st4" d="M232.10001,48.8c-0.2,0.4-0.39999,0.8-0.60001,1.1c-0.10001-0.5-0.3-1-0.39999-1.6
			c-0.2-0.1-0.39999-0.1-0.5-0.2c-0.3,0.6-0.7,1.3-1,1.9c0.2,0.1,0.39999,0.1,0.60001,0.2c0.2-0.4,0.39999-0.8,0.60001-1.1
			c0.2,0.5,0.3,1,0.39999,1.6c0.2,0.1,0.3,0.1,0.5,0.2c0.39999-0.6,0.7-1.3,1.10001-1.9C232.5,49,232.3,48.9,232.10001,48.8z"/>
		<path class="st4" d="M228.2,47.8c0.60001,0.2,1.10001,0.4,1.7,0.6C230,48.3,230,48.1,230.09999,48
			c-0.39999-0.2-0.89999-0.3-1.3-0.5C228.60001,47.6,228.39999,47.7,228.2,47.8z"/>
		<path class="st4" d="M227.89999,49.5c0.39999,0.1,0.8,0.3,1.2,0.5c0.10001-0.1,0.10001-0.3,0.2-0.4
			c-0.5-0.2-1.10001-0.4-1.60001-0.6C227.8,49.2,227.8,49.3,227.89999,49.5z"/>
		<path class="st4" d="M227.7,48.1c-0.10001,0-0.10001,0.1-0.2,0.1c0,0.1,0.10001,0.2,0.10001,0.3c0.60001,0.2,1.3,0.4,1.89999,0.7
			c0.10001-0.1,0.10001-0.3,0.2-0.4C229.10001,48.6,228.39999,48.3,227.7,48.1L227.7,48.1z"/>
	</g>
	<path class="st4" d="M220,45.8c0-0.1,0-0.2-0.10001-0.2c-0.3-0.1-0.7-0.2-1-0.2c0.3-0.2,0.60001-0.5,0.89999-0.7
		c0.10001-0.1,0.10001-0.2,0-0.2c-0.10001-0.1-0.2-0.1-0.3,0c-0.3,0.3-0.7,0.6-1,0.9c-0.7-0.1-1.39999-0.3-2.10001-0.4
		c-0.2-0.4-0.3-0.8-0.5-1.1c0-0.1-0.2-0.1-0.3-0.1s-0.2,0.1-0.10001,0.2c0.10001,0.3,0.3,0.6,0.39999,1
		c-0.3-0.1-0.60001-0.1-0.89999-0.2c-0.10001,0-0.2,0-0.2,0.1s0.10001,0.2,0.2,0.2c0.39999,0.1,0.8,0.1,1.10001,0.2
		c0.2,0.6,0.5,1.2,0.7,1.8c0,0.1,0.10001,0.1,0.10001,0.1c0.10001,0,0.10001,0,0.2,0c0.5-0.5,1-0.9,1.5-1.4
		c0.39999,0.1,0.8,0.2,1.2,0.3C219.89999,46,220,45.9,220,45.8z M216.89999,46.6c-0.2-0.4-0.3-0.9-0.5-1.3
		c0.5,0.1,1.10001,0.2,1.60001,0.3C217.7,45.9,217.3,46.3,216.89999,46.6z"/>
</g>
<g>
	<g>
		<path class="st5" d="M200.37761,56.75827c-0.49054,0-0.85672,0.3513-0.85672,0.8259c0,0.47693,0.36618,0.83522,0.85672,0.83522
			c0.49052,0,0.85674-0.3583,0.85674-0.83522C201.23434,57.1119,200.86813,56.75827,200.37761,56.75827z M200.38213,58.05644
			c-0.23509,0-0.43628-0.20473-0.43628-0.46994c0-0.26523,0.19893-0.4653,0.43628-0.4653c0.23737,0,0.42723,0.20007,0.42723,0.4653
			C200.80936,57.85171,200.61949,58.05644,200.38213,58.05644z"/>
		<polygon class="st5" points="202.6866,56.7699 202.19832,56.7699 201.89995,57.23287 201.60382,56.7699 201.12234,56.7699 
			201.64905,57.57023 201.08617,58.40077 201.56992,58.40077 201.89995,57.8959 202.23677,58.40077 202.73181,58.40077 
			202.16441,57.54927 		"/>
		<polygon class="st5" points="205.19472,56.7699 205.19472,57.75169 204.47589,56.7699 204.11195,56.7699 204.11195,58.40077 
			204.49847,58.40077 204.49847,57.42364 205.21735,58.40077 205.57901,58.40077 205.57901,56.7699 		"/>
		<polygon class="st5" points="202.74438,57.10959 203.85812,57.10959 203.85812,56.7699 202.97026,56.7699 		"/>
		<polygon class="st5" points="203.01405,58.39614 203.85811,58.39614 203.85811,58.05645 202.78651,58.05645 		"/>
		<polygon class="st5" points="202.54195,57.40948 202.44942,57.54837 202.58078,57.74917 203.85811,57.74917 203.85811,57.40948 
			202.54472,57.40948 		"/>
		<path class="st5" d="M205.52043,53.07306c0-0.12376-0.10033-0.22409-0.22408-0.22409h-1.13588l0.66557-1.19806
			c0.06012-0.10818,0.02112-0.24461-0.08705-0.30471c-0.10826-0.06015-0.24463-0.02112-0.30472,0.08707l-0.7865,1.41571h-2.29869
			l-0.78651-1.41571c-0.0601-0.1082-0.19653-0.14713-0.30472-0.08707c-0.10818,0.06011-0.14716,0.19653-0.08707,0.30471
			l0.6656,1.19806h-1.01152c-0.12375,0-0.22409,0.10033-0.22409,0.22409c0,0.12375,0.10034,0.22409,0.22409,0.22409h1.26051
			l1.21716,2.19091c0.03952,0.07113,0.1145,0.11524,0.19589,0.11524c0.08138,0,0.15636-0.04412,0.19588-0.11524l1.21718-2.19091
			h1.38486C205.4201,53.29715,205.52043,53.19682,205.52043,53.07306z M202.49844,54.9178l-0.90038-1.62065h1.80072
			L202.49844,54.9178z"/>
	</g>
	<g>
		<path class="st5" d="M198.23245,61.24221h0.24277c0.17807,0,0.28149,0.13488,0.28149,0.31116
			c0,0.17533-0.10342,0.30842-0.28149,0.30842h-0.24277V61.24221z M198.47522,61.75116c0.10342,0,0.15651-0.09168,0.15651-0.19779
			c0-0.1061-0.05309-0.20053-0.15651-0.20053h-0.11778v0.39832H198.47522z"/>
		<path class="st5" d="M199.26906,61.75116v0.11063h-0.39655v-0.61959h0.38844v0.11063h-0.26344v0.14745h0.23109v0.11242h-0.23109
			v0.13845H199.26906z"/>
		<path class="st5" d="M199.35347,61.67926h0.12498c0.00089,0.04498,0.04408,0.08186,0.10164,0.08186
			c0.05576,0,0.09264-0.02884,0.09264-0.07286c0-0.0342-0.02521-0.05844-0.07828-0.07465l-0.07555-0.02156
			c-0.13577-0.03598-0.16002-0.11778-0.16002-0.17354c0-0.11063,0.09532-0.18433,0.21399-0.18433
			c0.1169,0,0.20685,0.07101,0.20685,0.18879h-0.12498c0-0.04402-0.03062-0.07822-0.08453-0.07822
			c-0.04855,0-0.08543,0.02967-0.08543,0.07108c0,0.01525,0.00446,0.0476,0.06923,0.06559l0.06921,0.01978
			c0.09354,0.0261,0.1754,0.07554,0.1754,0.18075c0,0.1232-0.10521,0.18796-0.22217,0.18796
			C199.44432,61.8699,199.35347,61.78893,199.35347,61.67926z"/>
		<path class="st5" d="M199.9118,61.24221h0.12498v0.61959h-0.12498V61.24221z"/>
		<path class="st5" d="M200.14998,61.55248c0-0.17628,0.13844-0.31831,0.31653-0.31831c0.09352,0,0.17532,0.03866,0.22929,0.09889
			l-0.09085,0.07822c-0.03502-0.03777-0.08447-0.06112-0.13844-0.06112c-0.10789,0-0.19154,0.09168-0.19154,0.20232
			c0,0.11057,0.08365,0.20589,0.19154,0.20589c0.0809,0,0.14476-0.03866,0.16096-0.10342
			c0.00179-0.00447,0.00269-0.00989,0.00357-0.01525h-0.17532v-0.10164h0.312c0,0.22931-0.12314,0.33184-0.30121,0.33184
			C200.28842,61.8699,200.14998,61.72781,200.14998,61.55248z"/>
		<path class="st5" d="M201.32874,61.24221v0.61959h-0.11243l-0.22478-0.38843v0.38843h-0.12498v-0.61959h0.11598l0.22121,0.38396
			v-0.38396H201.32874z"/>
		<path class="st5" d="M201.87616,61.75116v0.11063h-0.39653v-0.61959h0.38843v0.11063h-0.26344v0.14745h0.23109v0.11242h-0.23109
			v0.13845H201.87616z"/>
		<path class="st5" d="M201.99565,61.24221h0.24278c0.17807,0,0.28149,0.13488,0.28149,0.31116
			c0,0.17533-0.10342,0.30842-0.28149,0.30842h-0.24278V61.24221z M202.23843,61.75116c0.10342,0,0.15649-0.09168,0.15649-0.19779
			c0-0.1061-0.05307-0.20053-0.15649-0.20053h-0.11778v0.39832H202.23843z"/>
		<path class="st5" d="M202.84972,61.24221h0.125v0.61959h-0.125V61.24221z"/>
		<path class="st5" d="M203.58792,61.24221v0.61959h-0.11243l-0.22478-0.38843v0.38843h-0.12498v-0.61959h0.116l0.22119,0.38396
			v-0.38396H203.58792z"/>
		<path class="st5" d="M204.33319,61.35284h-0.17085v0.50895h-0.125v-0.50895h-0.17085v-0.11063h0.46671V61.35284z"/>
		<path class="st5" d="M204.90767,61.24221v0.61959h-0.12498v-0.25176h-0.23109v0.25176h-0.12498v-0.61959h0.12498v0.2554h0.23109
			v-0.2554H204.90767z"/>
		<path class="st5" d="M205.45509,61.75116v0.11063h-0.39653v-0.61959h0.38843v0.11063h-0.26343v0.14745h0.23108v0.11242h-0.23108
			v0.13845H205.45509z"/>
		<path class="st5" d="M205.78221,61.64059v-0.39838h0.125v0.39117c0,0.08364,0.05397,0.11778,0.11153,0.11778
			c0.05844,0,0.11241-0.03413,0.11241-0.11778v-0.39117h0.125v0.39838c0,0.14298-0.11064,0.22931-0.23741,0.22931
			C205.89285,61.8699,205.78221,61.78357,205.78221,61.64059z"/>
		<path class="st5" d="M206.7182,61.86179l-0.19333-0.21763v0.21763h-0.12498v-0.61959h0.12498v0.21132l0.15378-0.21132h0.15555
			l-0.23466,0.30849l0.28864,0.3111H206.7182z"/>
	</g>
	<path class="st5" d="M202.30542,59.30962h0.2065v0.841h0.38777v0.18267h-0.59427V59.30962z"/>
</g>
</svg>
