<?xml version="1.0" encoding="utf-8"?>
<!-- Generator: Adobe Illustrator 25.3.0, SVG Export Plug-In . SVG Version: 6.00 Build 0)  -->
<svg version="1.1" id="Layer_1" xmlns="http://www.w3.org/2000/svg" xmlns:xlink="http://www.w3.org/1999/xlink" x="0px" y="0px"
	 viewBox="0 0 750.2 400.1" style="enable-background:new 0 0 750.2 400.1;" xml:space="preserve">
<style type="text/css">
	.st0{fill:#6B6B6B;stroke:#6B6B6B;stroke-width:1.25;}
</style>
<g>
	<path class="st0" d="M359.1,289.1c-2.5-46-31.4-182.2-33.7-190.8l-0.1-0.5l-2.4-0.4l-0.1,0c-3.2,0.2-11.7,0.8-22.9,1.4
		c-10.5,0.5-23.9,1.1-37.7,1.5c-0.1-1.4-0.3-2.4-0.6-3c-0.9-1.4-2.6-2.3-4.7-2.5c-2.2-0.2-6.6,0.3-11.6,5.7l0.2,0.2
		c-3.8,0.1-7.6,0.1-11.3,0.1c-3.2,0-6.4,0-9.7-0.1l0.1-0.1c-5-5.4-9.4-5.9-11.6-5.7c-2.1,0.2-3.8,1.1-4.7,2.5
		c-0.3,0.5-0.5,1.5-0.6,2.9c-14.3-0.4-28.3-1-39.2-1.6c-11.1-0.6-19.6-1.2-22.8-1.4l0,0l-0.4,0l-2.1-0.2l-0.1,0.4
		c-0.3,0.2-0.3,0.5-0.3,0.6c0,0.1,0,0.2,0.1,0.3c0,0.1-0.1,0.2-0.1,0.3l0,0.2l0,0c-3.3,13.7-31,145.1-33.5,190.1l0,0.7l0.7,0.1
		c57.1,10.1,109.1-0.7,109.6-0.9l0.5-0.1l14.3-48.1l14.3,48.1l0.5,0.1c0.4,0.1,24.7,5.1,58.3,5.1c15.6,0,33.2-1.1,51.3-4.3l0.7-0.1
		L359.1,289.1z"/>
	<path class="st0" d="M638.6,289.1c-2.5-46-31.4-182.2-33.7-190.8l-0.1-0.5l-2.4-0.4l-0.1,0c-3.2,0.2-11.7,0.8-22.9,1.4
		c-17.6,0.9-43.3,2-65.7,2c-22.3-0.1-48-1.1-65.7-2c-11.1-0.6-19.6-1.2-22.8-1.4l0,0l-0.4,0l-2.1-0.2l-0.1,0.4
		c-0.3,0.2-0.3,0.5-0.3,0.6c0,0.1,0,0.2,0.1,0.3l-0.1,0.5l0,0c-3.3,13.7-31,145.1-33.5,190.1l0,0.7l0.7,0.1
		c57.1,10.1,109.1-0.7,109.6-0.9l0.5-0.1l14.3-48.1l14.3,48.1l0.5,0.1c0.4,0.1,24.7,5.1,58.3,5.1c10.7,0,22.4-0.5,34.6-1.9l0,0.1
		l1.1-0.2c5.1-0.6,10.3-1.3,15.6-2.3l0.7-0.1L638.6,289.1z"/>
</g>
</svg>
