<?xml version="1.0" encoding="utf-8"?>
<!-- Generator: Adobe Illustrator 25.3.0, SVG Export Plug-In . SVG Version: 6.00 Build 0)  -->
<svg version="1.1" id="Layer_1" xmlns="http://www.w3.org/2000/svg" xmlns:xlink="http://www.w3.org/1999/xlink" x="0px" y="0px"
	 viewBox="0 0 750.2000122 400.1000061" style="enable-background:new 0 0 750.2000122 400.1000061;" xml:space="preserve">
<path d="M111,127.6000061c0.7250977-1.9142456,2.6807861-7.104248,5.7476196-13.8261108l-60.1859131,24.8237305L111,127.6000061z"/>
<path d="M633.3046875,114.0892029c-2.098938,4.4770508-14.2401123,32.581543-3.4569702,62.3947144
	c0.1481323-2.3052979,0.2991943-4.477417,0.4522705-6.4838867c2.4000244-31.9000244,6.0999756-39.8000488,7.7000122-41.8000488
	C637.5380249,126.6510925,635.9365234,121.309845,633.3046875,114.0892029z"/>
<path d="M461.2402954,114.3526917c-2.5621338,7.0698242-4.1116943,12.293457-4.5403442,13.84729
	c1.6000366,2,5.2999878,9.9000244,7.7000122,41.8000488c0.0859375,1.1296387,0.1713257,2.3104248,0.2559204,3.5372314
	C473.6848755,145.3717346,463.4434204,119.398407,461.2402954,114.3526917z"/>
<path d="M693.9677734,138.7464294l-59.8830566-25.0814209c2.4786377,6.8035278,4.0463867,11.9697266,4.6152954,13.9349976
	L693.9677734,138.7464294z"/>
<path d="M460.37854,113.6541443l-61.8739624,25.5199585l57.1954346-11.5740967
	C456.295105,125.6336365,457.8833618,120.4630432,460.37854,113.6541443z"/>
<path d="M294.1000366,127.6000061h0.0999756l53.2307129,10.7536621l-59.2147217-24.8015137
	c3.1107788,6.829895,5.0802612,12.1124878,5.7839966,14.0478516H294.1000366z"/>
<path d="M117.7191772,113.9440613c-3.2763062,7.2190552-5.2675171,12.6929321-5.8191528,14.2559814
	c1.5999756,2,5.2000122,10,7.5999756,41.6999512c0.1751099,2.3328247,0.3439331,4.8029175,0.5070801,7.3659668
	C131.5894165,146.8310852,119.5298462,117.9697571,117.7191772,113.9440613z"/>
<path d="M287.5516357,114.4208679c-2.5310059,5.5202637-14.3859253,34.2088013-2.5325928,64.1054688
	c0.1855469-2.9877319,0.3794556-5.8411255,0.5809937-8.5263062c2.4000244-31.8000488,6-39.7000122,7.6000366-41.7000122
	C292.65802,126.7642517,290.7265625,121.4533386,287.5516357,114.4208679z"/>
</svg>
