<?xml version="1.0" encoding="utf-8"?>
<!-- Generator: Adobe Illustrator 25.3.0, SVG Export Plug-In . SVG Version: 6.00 Build 0)  -->
<svg version="1.1" id="Layer_1" xmlns="http://www.w3.org/2000/svg" xmlns:xlink="http://www.w3.org/1999/xlink" x="0px" y="0px"
	 viewBox="0 0 750.2000122 400.1000061" style="enable-background:new 0 0 750.2000122 400.1000061;" xml:space="preserve">
<path d="M122.0311279,234.1037292c3.4677124,50.5282593,8.4472656,88.6641846,16.7313843,104.2791748
	c3.1011353,0.1991577,6.3948975,0.3964233,9.8660278,0.5853271c-11.6154175-15.5564575-21.5321655-61.5275879-26.8950195-120.994873
	C121.8635254,223.2400208,121.9643555,228.6333313,122.0311279,234.1037292z"/>
<path d="M283.2876587,221.5281677c-5.4423828,57.840271-15.2181396,102.3488159-26.6262817,117.5193481
	c3.4758301-0.1870117,6.7745972-0.3831787,9.8798218-0.5817261c8.083313-15.1356812,13.0262451-51.670166,16.4871826-100.2331543
	C283.0797119,232.5780334,283.1674194,226.9934387,283.2876587,221.5281677z"/>
<path d="M467.0992432,253.035614c2.8710938,44.5897217,6.744873,79.9102783,12.5025024,100.2387695
	c2.8825684,1.0374146,6.0517578,2.1116333,9.4741211,3.1769409c-9.3745117-21.7032471-17.315918-66.3969727-22.138916-122.5957642
	C467.03125,240.1294861,467.0881958,246.5502014,467.0992432,253.035614z"/>
<path d="M627.859314,228.1838684c-4.7946167,59.2015991-13.0193481,106.3918457-22.7816162,128.6627197
	c3.4904785-1.1011353,6.677002-2.2160034,9.5645142-3.2958374c6.081665-21.2644043,10.0698242-59.1817017,12.9931641-107.0741577
	C627.6715698,240.2671204,627.7486572,234.1444397,627.859314,228.1838684z"/>
</svg>
