<?xml version="1.0" encoding="utf-8"?>
<!-- Generator: Adobe Illustrator 25.3.0, SVG Export Plug-In . SVG Version: 6.00 Build 0)  -->
<svg version="1.1" id="Layer_1" xmlns="http://www.w3.org/2000/svg" xmlns:xlink="http://www.w3.org/1999/xlink" x="0px" y="0px"
	 viewBox="0 0 750.2000122 400.1000061" style="enable-background:new 0 0 750.2000122 400.1000061;" xml:space="preserve">
<path d="M477.6160889,338.5394592c-0.5341797-0.0172119-1.0484619-0.0343018-1.5756836-0.0514526l-11.8340454-6.3501587
	c-0.4685669,4.9929199-1.0010986,9.7388916-1.6063232,14.1621704c2.3042603,1.0880737,7.5695801,3.4890137,15.0160522,6.2485352
	V338.5394592z"/>
<path d="M477.6160889,296.1336365l-11.0050049-5.9052734c-0.1848145,6.2028809-0.4260864,12.3095093-0.7310791,18.2429199
	l11.736084,6.2976074V296.1336365z"/>
<path d="M628.0978394,288.9529724l-13.3817749,7.1806641v18.6352539l14.1131592-7.5731201
	C628.5238037,301.2547913,628.2823486,295.1490784,628.0978394,288.9529724z"/>
<path d="M614.7160645,338.5394592v14.9837036c10.9257812-4.0908813,17.3162231-7.6392822,17.4839478-7.7231445
	c-0.6444092-4.6603394-1.2092896-9.6640015-1.7019043-14.9351196l-14.2062988,7.6231079
	C615.7645264,338.5051575,615.2503052,338.5222473,614.7160645,338.5394592z"/>
<path d="M118.4689941,330.6091614c-0.2439575,2.1148682-0.4967041,4.1942749-0.7689819,6.1908569
	c1.3743896,0.1195068,2.9099731,0.2492065,4.5831299,0.3856201c2.8738403,0.0994263,5.8775635,0.2005005,9.0050049,0.3023071
	L118.4689941,330.6091614z"/>
<path d="M132.8638916,295.1335754l-11.4460449-6.1419067c-0.2368164,6.2069092-0.5357666,12.2850342-0.90802,18.1480103
	l12.3540649,6.6291504V295.1335754z"/>
<path d="M286.6495361,330.8719788l-12.3294067,6.6159668c3.5751343-0.116394,6.9833984-0.2317505,10.225647-0.3448486
	c1.0131226-0.0845947,1.9671021-0.1659546,2.854248-0.243103
	C287.1347046,334.9543762,286.8880005,332.9300232,286.6495361,330.8719788z"/>
<path d="M283.6885986,289.2609558l-10.9441528,5.8726196v18.6352539l11.855835-6.3618164
	C284.2265625,301.545929,283.9266968,295.4675598,283.6885986,289.2609558z"/>
</svg>
