<?xml version="1.0" encoding="utf-8"?>
<!-- Generator: Adobe Illustrator 25.3.0, SVG Export Plug-In . SVG Version: 6.00 Build 0)  -->
<svg version="1.1" id="Layer_1" xmlns="http://www.w3.org/2000/svg" xmlns:xlink="http://www.w3.org/1999/xlink" x="0px" y="0px"
	 viewBox="0 0 750.2 400.1" style="enable-background:new 0 0 750.2 400.1;" xml:space="preserve">
<g>
	<path d="M125.1,309.1l18.9,4.6l0.7,0.2v-4.6l18.8,4.6l0.1,0v-4.8l18.8,4.6l0.7,0.2v-4.6l18.8,4.6v0l0.1,0l0.1,0v0l18.8-4.6v4.6
		l0.7-0.2l18.8-4.6v4.8l0.1,0l18.8-4.6v4.6l0.7-0.2l18.9-4.6v4.8l5.8-1.4c-0.1-2-0.3-4.1-0.4-6.2l-5.4,1.3v-4.8l-18.9,4.6v-4.6
		l-19.5,4.8v-4.8l-18.9,4.6v-4.6l-19.6,4.8l-0.1,0l-19.5-4.8v4.6l-18.9-4.6v4.8l-19.5-4.8v4.6l-18.9-4.6v4.8l-4.6-1.1
		c-0.1,2.1-0.3,4.1-0.4,6.2l5,1.2V309.1z"/>
</g>
</svg>
