<?xml version="1.0" encoding="utf-8"?>
<!-- Generator: Adobe Illustrator 25.3.0, SVG Export Plug-In . SVG Version: 6.00 Build 0)  -->
<svg version="1.1" id="Layer_1" xmlns="http://www.w3.org/2000/svg" xmlns:xlink="http://www.w3.org/1999/xlink" x="0px" y="0px"
	 viewBox="0 0 750.2000122 400.1000061" style="enable-background:new 0 0 750.2000122 400.1000061;" xml:space="preserve">
<path d="M51.6000366,139.6000061l59.3999634-12c2.5-6.5999756,19.6000366-52.0999756,46.6000366-65.2999878
	c0.1999512-0.1000366,0.3999634-0.2000122,0.5999756-0.3000488c-0.7219238-0.8584595-1.3031006-1.7669067-1.7754517-2.6924438
	c-7.8045654,4.5165405-32.2891846,20.7731323-50.567627,55.9239502c-20.737854,4.4195557-42.6914062,9.2457886-56.890625,12.3893433
	L51.6000366,139.6000061z"/>
<path d="M698.2000122,139.6000061l2.6635132-12.1148071c-14.213501-3.145752-35.8416748-7.8983765-56.2782593-12.2537231
	c-19.1019287-46.6442871-44.4900513-62.5332031-54.4549561-67.190918c-1.1663818-0.098877-2.6358643-0.2195435-4.3303223-0.3405762
	c1.5999756,1.1000366,3.7000122,2.2000122,6.4000244,3.6000366c27.2000122,13.2999878,44.2999878,68.7000122,46.5,76.2999878
	L698.2000122,139.6000061z"/>
<path d="M396.3999634,139.6000061l59.3000488-12c2.2999878-7.5999756,19.4000244-63,46.6000366-76.2999878
	c2.7999878-1.4000244,5-2.6000366,6.7000122-3.7000122c-2.0043945,0.0910645-3.6672363,0.1859741-5.1588135,0.3527222
	c-9.8294678,4.5440063-35.4200439,20.3369141-54.6437988,67.2787476
	c-20.0725098,4.277771-41.2817993,8.9360962-55.4989014,12.0813599L396.3999634,139.6000061z"/>
<path d="M294.1000366,127.6000061h0.0999756l59.4000244,12l2.6231079-11.9310913
	c-14.1917114-3.1422119-36.2627563-7.9950562-57.1078491-12.437439
	c-18.6574707-35.8796387-43.7921143-52.0814819-51.041626-56.1973877c-0.4104004,0.9246826-0.8966675,1.8539429-1.4736328,2.7659302
	c0.2999878,0.2000122,0.5999756,0.2999878,0.8999634,0.5c27,13.2000122,44.1000366,58.7000122,46.5,65.2999878H294.1000366z"/>
</svg>
