<?xml version="1.0" encoding="utf-8"?>
<!-- Generator: Adobe Illustrator 25.3.0, SVG Export Plug-In . SVG Version: 6.00 Build 0)  -->
<svg version="1.1" id="Layer_1" xmlns="http://www.w3.org/2000/svg" xmlns:xlink="http://www.w3.org/1999/xlink" x="0px" y="0px"
	 viewBox="0 0 750.2 400.1" style="enable-background:new 0 0 750.2 400.1;" xml:space="preserve">
<g>
	<path d="M303.2,64.6l-2.4-0.7l-11.8,51.2c0.6,1.4,1.2,2.7,1.7,3.9L303.2,64.6z"/>
	<polygon points="321.4,133.1 323.8,133.6 337.4,74.8 335,74 	"/>
	<path d="M115.5,116.5c0.5-1.2,1.1-2.5,1.7-3.8l-11.4-49.2l-2.4,0.7L115.5,116.5z"/>
	<polygon points="82.8,133.3 85.3,132.8 71.6,73.7 69.2,74.4 	"/>
	<path d="M121.2,106.7h162.7c-0.6-1.1-1.1-2.3-1.8-3.4H122.9C122.3,104.4,121.7,105.6,121.2,106.7z"/>
	<path d="M117.8,152.3c0.1,1.1,0.3,2.2,0.4,3.4h168.7c0.1-1.2,0.3-2.3,0.4-3.4H117.8z"/>
	<path d="M460.1,114.4l-11.6-50.2l-2.4,0.7l12.5,53.9C459,117.5,459.5,116,460.1,114.4z"/>
	<polygon points="427.8,133.2 414.2,74.3 411.8,75 425.4,133.7 	"/>
	<path d="M635.4,117.3l12.2-52.7l-2.4-0.7L633.8,113C634.4,114.5,634.9,116,635.4,117.3z"/>
	<polygon points="668.2,133.6 681.8,74.7 679.4,74 665.8,133.1 	"/>
</g>
</svg>
