<?xml version="1.0" encoding="utf-8"?>
<!-- Generator: Adobe Illustrator 25.3.0, SVG Export Plug-In . SVG Version: 6.00 Build 0)  -->
<svg version="1.1" id="Layer_1" xmlns="http://www.w3.org/2000/svg" xmlns:xlink="http://www.w3.org/1999/xlink" x="0px" y="0px"
	 viewBox="0 0 750.2 400.1" style="enable-background:new 0 0 750.2 400.1;" xml:space="preserve">
<path d="M118.7,161.1c0.1,1.3,0.2,2.6,0.4,3.9H286c0.1-1.3,0.2-2.6,0.4-3.9H118.7z"/>
<path d="M120.1,178.8c0.1,1.3,0.2,2.6,0.2,3.9h164.4c0.1-1.3,0.2-2.6,0.2-3.9H120.1z"/>
<path d="M121,196.2c0.1,1.3,0.1,2.6,0.2,3.9h162.8c0.1-1.3,0.1-2.6,0.2-3.9H121z"/>
<path d="M121.6,213.9c0,1.3,0.1,2.6,0.1,3.9h161.6c0-1.3,0.1-2.6,0.1-3.9H121.6z"/>
<path d="M122,231.3c0,1.3,0,2.6,0.1,3.9h161c0-1.3,0-2.6,0.1-3.9H122z"/>
<path d="M283,249.1H122.1c0,1.3,0,2.6,0,3.9H283C283,251.7,283,250.4,283,249.1z"/>
<path d="M122,266.5c0,1.3,0,2.6-0.1,3.9h161.2c0-1.3,0-2.6-0.1-3.9H122z"/>
<path d="M121.6,284.2c0,1.3-0.1,2.6-0.1,3.9h162.2c0-1.3-0.1-2.6-0.1-3.9H121.6z"/>
<path d="M120.8,301.6c-0.1,1.3-0.1,2.6-0.2,3.9h163.9c-0.1-1.3-0.2-2.6-0.2-3.9H120.8z"/>
<path d="M285.5,319.4H119.6c-0.1,1.3-0.2,2.6-0.4,3.9h166.6C285.7,322,285.6,320.7,285.5,319.4z"/>
</svg>
