<?xml version="1.0" encoding="utf-8"?>
<!-- Generator: Adobe Illustrator 25.3.0, SVG Export Plug-In . SVG Version: 6.00 Build 0)  -->
<svg version="1.1" id="Layer_1" xmlns="http://www.w3.org/2000/svg" xmlns:xlink="http://www.w3.org/1999/xlink" x="0px" y="0px"
	 viewBox="0 0 400 140" style="enable-background:new 0 0 400 140;" xml:space="preserve">
<g>
	<path d="M150.3,74.9c4.9-22.7-18.5-34.5-33.5-33.7C101.9,41.8,84,54.6,85,75.1s20.7,30.9,33.3,29.8
		C131,103.5,145.5,97.6,150.3,74.9z M118.4,96.7c-15.6,1-28.5-5.7-28.4-24.9c0.1-19.3,13.9-28.4,27-28.7s29.3,17.5,28.4,28.4
		S133.8,95.7,118.4,96.7z"/>
	<path d="M117.6,50.2c-11.6,0-21.3,9.1-21,19.5s9.8,20.8,21.6,20.1c11.8-0.8,19-8.3,20.3-18.8C140,60.7,129.2,50.2,117.6,50.2z
		 M117.3,78.2c-4,0-7-3.2-7-7c0-4,3.2-7,7-7s7,3.2,7,7S121.2,78.2,117.3,78.2z"/>
	<path d="M138.2,101.8c-6.4,4.5-11.9,7.5-11.2,8.4c0.6,0.9,7.3-0.8,13.5-5.2c6.4-4.5,10.1-10.2,9.5-11.1
		C149.3,93.1,144.6,97.4,138.2,101.8z"/>
	<path d="M114.7,36c11.4-1.4,21.8,2.2,27.9,3.8c0.3,0,0.1-0.4-0.1-0.6c-34-28.9-83.4,12.1-61.6,50.2c0.1,0.3,0.3,0.4,0.5,0.3
		c0.3,0,0.4-0.3,0.4-0.5C74.2,52.4,94.9,38.5,114.7,36z"/>
	<path d="M230.8,57.2c-1.7,0-2.9,0.5-4,1.7c-1,1.1-1.5,2.7-1.5,4.6c0,1.8,0.5,3.2,1.4,4.3c0.9,1,2.2,1.5,3.7,1.5
		c1.7,0,2.9-0.5,4-1.7c1-1.1,1.5-2.7,1.5-4.6c0-1.8-0.5-3.2-1.4-4.3C233.6,57.8,232.3,57.2,230.8,57.2z M232.8,67.3
		c-0.5,1-1.3,1.4-2.3,1.4c-0.9,0-1.7-0.5-2.3-1.4c-0.5-0.9-0.8-2.3-0.8-4c0-1.7,0.3-3.1,0.9-4c0.6-1,1.4-1.4,2.3-1.4
		c1,0,1.7,0.5,2.3,1.4c0.5,0.9,0.8,2.3,0.8,4C233.7,65,233.5,66.3,232.8,67.3z"/>
	<path d="M191.7,68.1c-0.3,0.3-0.8,0.4-1.7,0.4v0.8c0.4,0,0.8,0,1.1,0s0.9,0,1.7,0c0.4,0,0.9,0,1.7,0c0.8,0,1.3,0,1.7,0
		c1.5,0,2.7-0.1,3.4-0.3c0.8-0.1,1.4-0.4,1.8-0.6c0.6-0.4,1.1-0.9,1.4-1.5c0.3-0.6,0.5-1.4,0.5-2.2c0-1.1-0.4-2-1.1-2.8
		c-0.8-0.6-1.9-1.3-3.6-1.5c1.3-0.3,2.3-0.8,2.9-1.4c0.6-0.8,1-1.7,1-2.8c0-1.5-0.5-2.6-1.5-3.3c-1-0.8-2.6-1-4.6-1
		c-0.3,0-0.8,0-1.7,0s-1.7,0-2.3,0s-1.4,0-2,0c-0.1,0-0.3,0-0.3,0H190c-0.1,0-0.1,0-0.1,0v0.8c0.9,0,1.4,0.1,1.7,0.4
		c0.3,0.3,0.4,0.8,0.4,1.7v12C192,67.3,191.8,67.8,191.7,68.1z M194.3,52.4h1.9c1.7,0,2.8,0.3,3.3,0.9c0.6,0.5,0.9,1.5,0.9,2.9
		c0,1.3-0.3,2.2-0.9,2.8c-0.8,0.5-1.7,0.8-3.1,0.8h-2.2V52.4z M194.3,60.6h1.5c1.8,0,3.1,0.3,3.8,0.9c0.8,0.6,1.1,1.7,1.1,3.1
		c0,1.4-0.4,2.4-1,3.1s-1.9,0.9-3.7,0.9h-1.8C194.3,68.5,194.3,60.6,194.3,60.6z"/>
	<path d="M214.7,68.1c-0.3,0.3-0.8,0.4-1.7,0.4v0.8h6.5v-0.8h-0.3c-0.9,0-1.4-0.1-1.7-0.3c-0.3-0.3-0.4-0.8-0.4-1.7v-5.9h1.9
		c1.1,0,1.9,0.3,2.2,0.6c0.3,0.4,0.5,1.3,0.5,2.7h0.6c0-0.8,0-1.4,0-2s0-1.1,0-1.5c0-0.3,0-0.8,0-1.3c0-0.5,0-1.3,0-2H222
		c-0.1,1.1-0.3,1.9-0.5,2.3c-0.3,0.4-1,0.5-2.2,0.5h-1.9v-7.3h3.8c1.7,0,2.8,0.3,3.4,0.8c0.6,0.5,1,1.5,1.1,2.9h0.6
		c-0.1-1.3-0.1-2.3-0.1-2.9s0-1.1-0.1-1.7h-13v0.8c0.9,0,1.4,0.1,1.7,0.4c0.3,0.3,0.4,0.8,0.4,1.7v12
		C215.1,67.3,215,67.8,214.7,68.1z"/>
	<path d="M273.7,58.1v-0.6c-0.6,0-1.1,0.1-1.5,0.1s-0.6,0-1,0c-0.3,0-0.6,0-0.9,0c-0.4,0-0.9,0-1.4-0.1v0.6h0.3
		c0.4,0,0.6,0.1,0.8,0.3c0.1,0.1,0.4,0.4,0.5,0.9l3.3,10.1l0.5,0.1c0.3-0.8,0.5-1.5,0.8-2.2c0.3-0.6,0.4-1.1,0.6-1.5l2.3-6l2.9,9.5
		l0.5,0.1c0.3-0.5,0.5-1.3,0.9-2.2c0.4-0.9,0.6-1.5,0.8-1.9l2.2-5.7c0.3-0.5,0.4-0.9,0.6-1c0.3-0.1,0.5-0.3,0.9-0.3v-0.6
		c-0.4,0-0.8,0.1-1,0.1s-0.5,0-0.8,0c-0.3,0-0.4,0-0.6,0c-0.3,0-0.6,0-1-0.1v0.6h0.1c0.8,0.1,1.1,0.3,1.1,0.6c0,0.1,0,0.3,0,0.4
		c0,0.1,0,0.3-0.1,0.4l-2.4,7.2l-2-7.2c0-0.1,0-0.3-0.1-0.4c0-0.1,0-0.3,0-0.4c0-0.3,0.4-0.5,1-0.6l0,0v-0.6c-0.5,0-1,0.1-1.4,0.1
		c-0.4,0-0.8,0-1,0s-0.5,0-0.8,0c-0.3,0-0.8,0-1.4-0.1v0.6h0.1c0.8,0.1,1.1,0.3,1.1,0.6c0,0.1,0,0.3,0,0.4c0,0.1-0.1,0.3-0.1,0.4
		l-2.6,6.9l-2.3-7c0-0.1,0-0.1,0-0.3c0-0.1,0-0.3,0-0.4c0-0.3,0.1-0.4,0.3-0.5C272.8,58.3,273.2,58.3,273.7,58.1z"/>
	<path d="M239,68.1c-0.1,0.1-0.8,0.3-1.8,0.4v0.6c0.3,0,0.8,0,1.3,0c0.9,0,1.5,0,1.7,0c0.5,0,1,0,1.7,0s1.3,0,2.2,0.1v-0.6
		c-1.3,0-2.2-0.1-2.4-0.4c-0.3-0.3-0.4-0.6-0.4-1.3v-3.1c0-1.5,0.3-2.9,0.9-4c0.6-1.1,1.3-1.7,2.2-1.7h0.1c-0.1,0.3-0.1,0.4-0.3,0.6
		c0,0.1-0.1,0.4-0.1,0.5c0,0.4,0.1,0.6,0.3,0.9c0.1,0.3,0.4,0.3,0.8,0.3c0.4,0,0.6-0.1,0.8-0.4s0.3-0.5,0.3-0.9c0-0.5-0.1-1-0.5-1.3
		c-0.4-0.4-0.8-0.5-1.3-0.5c-0.6,0-1.3,0.3-1.8,0.8c-0.5,0.5-1,1.4-1.5,2.4v-3.4c-0.6,0.1-1.3,0.1-1.9,0.3c-0.6,0.1-1.3,0.1-1.9,0.1
		v0.6c0.9,0,1.5,0.1,1.7,0.3c0.3,0.1,0.3,0.5,0.3,1.3v7C239.2,67.6,239.2,68,239,68.1z"/>
	<path d="M249.6,57.5c-0.6,0.1-1.3,0.1-2,0.1v0.6c0.9,0,1.5,0.1,1.7,0.3c0.3,0.1,0.3,0.5,0.3,1.3v7c0,0.8-0.1,1.1-0.3,1.3
		c-0.1,0.1-0.8,0.3-1.7,0.4v0.6c0.8,0,1.4-0.1,1.8-0.1s0.8,0,1,0c0.3,0,0.5,0,0.8,0c0.4,0,0.9,0,1.8,0.1v-0.6
		c-0.6-0.1-1-0.1-1.3-0.4c-0.1-0.1-0.3-0.6-0.3-1.3v-5c0.3-1,0.6-1.9,1.3-2.7c0.6-0.6,1.4-1,2.3-1c0.6,0,1.1,0.3,1.5,0.8
		c0.3,0.5,0.5,1.3,0.5,2.4v5.5c0,0.8-0.1,1.1-0.3,1.3c-0.1,0.1-0.8,0.3-1.7,0.4v0.6c0.6,0,1.3-0.1,1.7-0.1c0.5,0,0.9,0,1.1,0
		c0.1,0,0.4,0,0.8,0s0.9,0,1.8,0.1v-0.6c-0.6,0-1-0.1-1.3-0.3c-0.1-0.1-0.3-0.6-0.3-1.4v-5c0.3-1,0.6-1.9,1.3-2.7
		c0.6-0.8,1.4-1,2.3-1c0.6,0,1.1,0.3,1.5,0.8c0.3,0.5,0.5,1.3,0.5,2.4v5.5c0,0.8-0.1,1.1-0.3,1.3c-0.1,0.1-0.8,0.3-1.7,0.4v0.6
		c0.6,0,1.3-0.1,1.7-0.1c0.4,0,0.9,0,1.1,0c0.1,0,0.4,0,0.8,0s0.9,0,1.8,0.1v-0.6c-0.6,0-1-0.1-1.3-0.3c-0.1-0.1-0.3-0.5-0.3-1.3
		v-5.4c0-1.7-0.3-2.7-0.8-3.4c-0.5-0.6-1.4-1-2.7-1c-0.9,0-1.7,0.3-2.3,0.6c-0.6,0.5-1.3,1.1-1.8,2c-0.1-0.9-0.4-1.5-1-2
		c-0.6-0.5-1.4-0.8-2.4-0.8c-0.9,0-1.7,0.3-2.3,0.6c-0.6,0.5-1.3,1.1-1.8,2v-2.4C250.9,57.4,250.2,57.4,249.6,57.5z"/>
	<path d="M163.5,68.1c-0.3,0.3-0.8,0.4-1.7,0.4v0.8h6.5v-0.8h-0.3c-0.9,0-1.4-0.1-1.7-0.3c-0.3-0.3-0.4-0.8-0.4-1.7v-5.9h2
		c1.1,0,1.9,0.3,2.2,0.6c0.3,0.4,0.5,1.3,0.5,2.7h0.6c0-0.8,0-1.4,0-2s0-1.1,0-1.5c0-0.3,0-0.8,0-1.3c0-0.5,0-1.3,0-2h-0.5
		c-0.1,1.1-0.3,1.9-0.5,2.3c-0.3,0.4-1,0.5-2.2,0.5h-1.9v-7.3h3.8c1.7,0,2.8,0.3,3.4,0.8c0.6,0.5,1,1.5,1.1,2.9h0.6
		c-0.1-1.3-0.1-2.3-0.1-2.9s0-1.1-0.1-1.7h-13.3v0.8c0.9,0,1.4,0.1,1.7,0.4c0.3,0.3,0.4,0.8,0.4,1.7v12
		C163.9,67.3,163.7,67.8,163.5,68.1z"/>
	<path d="M188.6,68.4L188.6,68.4c-0.6,0-0.9-0.1-1.1-0.3c-0.3-0.1-0.5-0.5-0.6-1l-5.6-15.7h-0.5L175,67.1c-0.3,0.5-0.4,0.9-0.6,1.1
		c-0.3,0.1-0.6,0.3-1,0.3h-0.1v0.8c0.4,0,0.8,0,1.1-0.1c0.4,0,0.6,0,0.9,0c0.4,0,0.6,0,1,0c0.4,0,0.8,0,1.1,0.1v-0.8
		c-0.5,0-0.9-0.1-1.1-0.3c-0.3-0.1-0.3-0.4-0.3-0.8c0-0.3,0-0.4,0.1-0.8c0.1-0.3,0.3-0.6,0.4-1.3l1-2.7h5.4l1.4,4.1
		c0,0.1,0,0.1,0,0.3s0,0.3,0,0.4c0,0.4-0.1,0.6-0.4,0.8c-0.3,0.1-0.6,0.3-1.1,0.3h-0.1v0.8c0.6,0,1.1,0,1.7-0.1c0.5,0,1,0,1.5,0
		c0.4,0,0.8,0,1.3,0s1,0,1.7,0.1L188.6,68.4L188.6,68.4z M177.5,61.8l2.6-6.9l2.3,6.9H177.5z"/>
	<path d="M301.2,68.1c-0.1,0.1-0.8,0.3-1.8,0.4v0.6c0.3,0,0.8,0,1.3,0c0.9,0,1.5,0,1.7,0c0.5,0,1,0,1.7,0c0.6,0,1.3,0,2.2,0.1v-0.6
		c-1.3,0-2.2-0.1-2.4-0.4c-0.3-0.3-0.4-0.6-0.4-1.3v-3.1c0-1.5,0.3-2.9,0.9-4c0.6-1.1,1.3-1.7,2.2-1.7h0.1c-0.1,0.3-0.1,0.4-0.3,0.6
		c0,0.1-0.1,0.4-0.1,0.5c0,0.4,0.1,0.6,0.3,0.9s0.4,0.3,0.8,0.3s0.6-0.1,0.8-0.4s0.3-0.5,0.3-0.9c0-0.5-0.1-1-0.5-1.3
		c-0.4-0.4-0.8-0.5-1.3-0.5c-0.6,0-1.3,0.3-1.8,0.8c-0.5,0.5-1,1.4-1.5,2.4v-3.4c-0.6,0.1-1.3,0.1-1.9,0.3c-0.6,0.1-1.3,0.1-1.9,0.1
		v0.6c0.9,0,1.5,0.1,1.7,0.3c0.3,0.1,0.3,0.5,0.3,1.3v7C301.5,67.6,301.3,68,301.2,68.1z"/>
	<path d="M296.7,58.9c-0.9-1-2.2-1.5-3.7-1.5c-1.7,0-2.9,0.5-4,1.7c-1,1.1-1.5,2.7-1.5,4.6c0,1.8,0.5,3.2,1.4,4.3
		c0.9,1,2.2,1.5,3.7,1.5c1.7,0,2.9-0.5,4-1.7c1-1.1,1.5-2.7,1.5-4.6C298,61.3,297.6,59.9,296.7,58.9z M295.1,67.3
		c-0.5,1-1.3,1.4-2.3,1.4c-0.9,0-1.7-0.5-2.3-1.4c-0.5-0.9-0.8-2.3-0.8-4c0-1.7,0.3-3.1,0.9-4c0.6-1,1.4-1.4,2.3-1.4
		c1,0,1.7,0.5,2.3,1.4c0.5,0.9,0.8,2.3,0.8,4C296,65,295.6,66.3,295.1,67.3z"/>
	<path d="M310.9,68.1c-0.1,0.1-0.8,0.3-1.7,0.4v0.6c0.8,0,1.4-0.1,1.8-0.1c0.4,0,0.8,0,1,0c0.3,0,0.4,0,0.8,0c0.3,0,0.9,0,1.8,0.1
		v-0.6c-0.6-0.1-1-0.1-1.1-0.3c-0.1-0.1-0.3-0.5-0.3-1.1v-2.6l0.9-0.9l3.4,4c0.1,0.1,0.1,0.1,0.1,0.3c0,0.1,0,0.1,0,0.3
		s0,0.3-0.1,0.3c-0.1,0.1-0.3,0.1-0.6,0.1v0.6c0.8,0,1.3-0.1,1.7-0.1s0.6,0,0.9,0s0.5,0,0.9,0s0.9,0,1.5,0.1v-0.6h-0.1
		c-0.4,0-0.8-0.1-1.1-0.3c-0.4-0.3-0.8-0.6-1.3-1.1l-4.2-4.6l3.7-3.6c0.3-0.3,0.5-0.4,0.8-0.5c0.3-0.1,0.5-0.1,0.9-0.1h0.3v-0.6
		c-0.5,0-1,0.1-1.3,0.1c-0.4,0-0.6,0-0.9,0c-0.1,0-0.4,0-0.8,0c-0.3,0-0.8,0-1.3-0.1v0.6h0.1c0.3,0,0.5,0,0.6,0.1s0.3,0.3,0.3,0.4
		c0,0.1,0,0.3-0.1,0.4c-0.1,0.3-0.3,0.4-0.4,0.5l-4,4V51c-0.5,0.1-1.1,0.1-1.8,0.3c-0.6,0.1-1.3,0.1-1.9,0.1V52
		c0.8,0,1.3,0.1,1.4,0.3c0.3,0.1,0.3,0.6,0.3,1.1v13.3C311.2,67.6,311,68,310.9,68.1z"/>
	<path d="M265.4,83.2c0,1.4,0.4,2.4,1,3.2c0.6,0.8,1.7,1.1,2.8,1.1c0.9,0,1.7-0.3,2.3-0.6c0.6-0.4,1-1,1.3-1.9l-0.4-0.1
		c-0.3,0.6-0.5,1-1,1.4c-0.5,0.3-1,0.5-1.7,0.5c-0.9,0-1.7-0.3-2.2-0.9c-0.5-0.6-0.8-1.5-0.8-2.8v-0.1l5.9-0.1c0,0,0-0.1,0-0.3
		c0-0.1,0-0.1,0-0.3c0-1.1-0.3-1.9-0.9-2.6c-0.6-0.6-1.4-0.9-2.6-0.9s-2.2,0.4-2.9,1.3C265.8,80.8,265.4,81.8,265.4,83.2z M267.9,80
		c0.4-0.5,1-0.8,1.7-0.8c0.6,0,1.1,0.3,1.5,0.6c0.4,0.5,0.5,1.1,0.5,2v0.3l-4.5,0.1C267.1,81.3,267.3,80.5,267.9,80z"/>
	<path d="M219,86.8L219,86.8v0.5c0.6,0,1.1,0,1.4-0.1c0.4,0,0.6,0,0.8,0c0.3,0,0.5,0,0.9,0c0.4,0,0.8,0,1.4,0.1v-0.5
		c-0.6,0-1-0.1-1.3-0.1c-0.1-0.1-0.3-0.4-0.3-1v-6.9c-0.5,0.1-1,0.1-1.5,0.1s-1,0.1-1.5,0.1v0.5c0.8,0,1.3,0,1.4,0.1
		c0.1,0.1,0.3,0.4,0.3,0.9v5.1C220.7,86.4,220.2,86.8,219,86.8z"/>
	<path d="M262.5,80.9c0,0.3,0.1,0.4,0.3,0.6c0.1,0.1,0.3,0.3,0.5,0.3c0.1,0,0.4-0.1,0.5-0.3c0.1-0.1,0.1-0.4,0.1-0.5
		c0-0.6-0.3-1.1-0.9-1.7c-0.5-0.5-1.3-0.6-2-0.6c-1.3,0-2.3,0.4-3.1,1.3c-0.8,0.9-1.1,2-1.1,3.3s0.4,2.3,1,3.1
		c0.6,0.8,1.7,1.1,2.8,1.1c0.9,0,1.7-0.3,2.2-0.6c0.6-0.4,1-1,1.3-1.9l-0.4-0.1c-0.3,0.6-0.5,1-1,1.4c-0.5,0.3-1,0.5-1.7,0.5
		c-0.9,0-1.7-0.3-2-0.9c-0.5-0.6-0.8-1.4-0.8-2.6c0-1.3,0.3-2.2,0.8-2.9c0.5-0.8,1.1-1,1.9-1c0.5,0,0.9,0.1,1.3,0.3
		c0.4,0.1,0.5,0.4,0.5,0.6c0,0,0,0.1-0.1,0.3C262.5,80.6,262.5,80.8,262.5,80.9z"/>
	<path d="M236.3,78.1c0,0.3,0,0.4,0,0.5c0,0.3-0.1,0.4-0.1,0.5c-0.1,0-0.3,0.1-0.6,0.1H235h-0.4v0.5h1.7v6c0,0.5-0.1,0.9-0.3,0.9
		c-0.1,0.1-0.6,0.3-1.4,0.3v0.5c0.8,0,1.3,0,1.5-0.1c0.3,0,0.5,0,0.6,0c0.3,0,0.6,0,1,0s1,0,1.7,0.1v-0.5l0,0
		c-1.3,0-1.9-0.4-1.9-1.1v-6h2.4v-0.5h-2.4v-1.8c0-1,0.1-1.8,0.4-2.2c0.3-0.4,0.6-0.6,1.3-0.6c0.3,0,0.5,0,0.6,0.1
		c0.1,0.1,0.3,0.3,0.3,0.4c0,0,0,0.1-0.1,0.3c-0.1,0.1-0.1,0.3-0.1,0.5c0,0.3,0.1,0.4,0.3,0.5c0.1,0.1,0.3,0.3,0.5,0.3
		c0.3,0,0.4-0.1,0.5-0.3c0.1-0.1,0.1-0.4,0.1-0.6c0-0.5-0.3-0.9-0.6-1.1c-0.4-0.4-0.9-0.5-1.5-0.5c-0.5,0-1,0.1-1.4,0.4
		c-0.4,0.3-0.8,0.5-1,1C236.6,75.9,236.3,76.8,236.3,78.1z"/>
	<path d="M254.4,80c0,0.3,0.1,0.5,0.3,0.6c0.1,0.1,0.3,0.3,0.5,0.3c0.3,0,0.4-0.1,0.5-0.3c0.1-0.1,0.3-0.4,0.3-0.6
		c0-0.4-0.1-0.6-0.4-0.9c-0.3-0.3-0.5-0.4-0.9-0.4c-0.5,0-0.9,0.3-1.3,0.6c-0.4,0.4-0.8,1-1,1.8v-2.3c-0.5,0-0.9,0.1-1.4,0.1
		c-0.5,0-0.9,0.1-1.4,0.1v0.5c0.6,0,1.1,0.1,1.3,0.1c0.1,0.1,0.3,0.4,0.3,0.9v5.1c0,0.5,0,0.8-0.1,0.9c-0.1,0.1-0.5,0.3-1.3,0.3v0.5
		c0.3,0,0.5,0,0.9,0c0.6,0,1,0,1.1,0c0.4,0,0.8,0,1.3,0c0.4,0,1,0,1.5,0.1V87c-0.9,0-1.5-0.1-1.7-0.3c-0.1-0.1-0.3-0.5-0.3-0.9v-2.3
		c0-1.1,0.3-2,0.6-2.9c0.5-0.8,1-1.3,1.5-1.3h0.1c-0.1,0.1-0.1,0.3-0.1,0.4C254.4,79.7,254.4,79.9,254.4,80z"/>
	<path d="M244.9,78.7c-1.1,0-2.2,0.4-2.9,1.3c-0.8,0.8-1.1,1.9-1.1,3.3c0,1.3,0.4,2.3,1,3.1s1.5,1.1,2.7,1.1c1.1,0,2.2-0.4,2.9-1.3
		c0.8-0.8,1.1-1.9,1.1-3.3c0-1.3-0.4-2.3-1-3.1C246.8,79.1,245.9,78.7,244.9,78.7z M246.3,86c-0.4,0.6-1,1-1.7,1s-1.3-0.4-1.7-1
		c-0.4-0.6-0.6-1.7-0.6-2.8c0-1.3,0.3-2.2,0.6-2.9c0.4-0.6,1-1,1.7-1s1.3,0.4,1.7,1c0.4,0.6,0.6,1.7,0.6,2.9
		C246.9,84.3,246.8,85.2,246.3,86z"/>
	<path d="M231.2,86.5c-0.1,0.1-0.5,0.3-1.3,0.3v0.5c0.5,0,1,0,1.3-0.1c0.3,0,0.5,0,0.8,0c0.1,0,0.4,0,0.5,0c0.3,0,0.6,0,1.3,0.1
		v-0.5c-0.5,0-0.8-0.1-0.9-0.3c-0.1-0.1-0.1-0.4-0.1-0.9v-3.8c0-1.1-0.3-1.9-0.6-2.4c-0.4-0.5-1-0.8-2-0.8c-0.6,0-1.3,0.1-1.8,0.5
		c-0.5,0.4-1,0.9-1.4,1.5v-2c-0.4,0-0.8,0.1-1.3,0.1c-0.4,0-0.9,0.1-1.5,0.1v0.5c0.6,0,1,0.1,1.3,0.1c0.1,0.1,0.3,0.4,0.3,0.9v5.1
		c0,0.5,0,0.8-0.1,0.9c-0.1,0.1-0.5,0.3-1.3,0.3v0.5c0.6,0,1,0,1.4-0.1c0.3,0,0.5,0,0.6,0c0.1,0,0.4,0,0.6,0c0.3,0,0.6,0,1.3,0.1
		v-0.5c-0.5,0-0.8-0.1-0.9-0.3c-0.1-0.1-0.1-0.4-0.1-1v-3.4c0-0.8,0.3-1.4,0.9-2c0.6-0.6,1.3-0.9,1.9-0.9c0.5,0,1,0.1,1.3,0.5
		c0.3,0.4,0.4,1,0.4,1.8v4C231.4,86.1,231.3,86.4,231.2,86.5z"/>
	<path d="M299.9,86.5c-0.1,0.1-0.5,0.3-1.3,0.3v0.5c0.6,0,1,0,1.4-0.1c0.3,0,0.5,0,0.6,0s0.4,0,0.6,0c0.3,0,0.6,0,1.3,0.1v-0.5
		c-0.5,0-0.8-0.1-0.9-0.3c-0.1-0.1-0.1-0.4-0.1-1V82c0-0.8,0.3-1.4,0.9-2c0.6-0.6,1.3-0.9,1.9-0.9c0.5,0,1,0.1,1.3,0.5
		c0.3,0.4,0.4,1,0.4,1.8v4c0,0.5,0,0.8-0.1,0.9c-0.1,0.1-0.5,0.3-1.3,0.3V87c0.5,0,1,0,1.3-0.1c0.3,0,0.5,0,0.8,0c0.1,0,0.4,0,0.5,0
		c0.1,0,0.6,0,1.3,0.1v-0.5c-0.5,0-0.8-0.1-0.9-0.3c-0.1-0.1-0.1-0.4-0.1-0.9v-3.8c0-1.1-0.3-1.9-0.6-2.4s-1-0.8-2-0.8
		c-0.6,0-1.3,0.1-1.8,0.5c-0.5,0.4-1,0.9-1.4,1.5v-2c-0.4,0-0.8,0.1-1.3,0.1c-0.4,0-0.9,0.1-1.5,0.1v0.5c0.6,0,1,0.1,1.3,0.1
		c0.1,0.1,0.3,0.4,0.3,0.9v5.1C300.1,86.1,300.1,86.4,299.9,86.5z"/>
	<path d="M310.4,85.2c0,0.8,0.1,1.4,0.4,1.8c0.3,0.4,0.8,0.5,1.4,0.5c0.5,0,1-0.1,1.4-0.5c0.4-0.3,0.6-0.8,0.8-1.3l-0.4-0.1
		c-0.1,0.3-0.3,0.5-0.5,0.6c-0.3,0.1-0.5,0.3-0.8,0.3c-0.4,0-0.6-0.1-0.9-0.4c-0.1-0.3-0.3-0.8-0.3-1.4v-0.4l0.1-4.7h2.2v-0.5h-2.2
		l0.1-2.6h-0.5c-0.1,0.6-0.3,1.1-0.6,1.7c-0.3,0.5-0.8,0.8-1.3,1v0.4h0.9l-0.1,5.2v0.4H310.4z"/>
	<path d="M210.7,83.2c0,1.4,0.4,2.4,1,3.2c0.6,0.8,1.7,1.1,2.8,1.1c0.9,0,1.7-0.3,2.3-0.6c0.6-0.4,1-1,1.3-1.9l-0.4-0.1
		c-0.3,0.6-0.5,1-1,1.4c-0.5,0.3-1,0.5-1.7,0.5c-0.9,0-1.7-0.3-2.2-0.9c-0.5-0.6-0.8-1.5-0.8-2.8v-0.1l5.9-0.1c0,0,0-0.1,0-0.3
		c0-0.1,0-0.1,0-0.3c0-1.1-0.3-1.9-0.9-2.6s-1.4-0.9-2.6-0.9c-1.1,0-2.2,0.4-2.9,1.3C211.1,80.8,210.7,81.8,210.7,83.2z M213,80
		c0.4-0.5,1-0.8,1.7-0.8s1.1,0.3,1.5,0.6c0.4,0.5,0.5,1.1,0.5,2v0.3l-4.5,0.1C212.4,81.3,212.7,80.5,213,80z"/>
	<path d="M221.2,77.2c0.3,0,0.5-0.1,0.8-0.3c0.3-0.3,0.4-0.4,0.4-0.6c0-0.3-0.1-0.4-0.3-0.5c-0.1-0.1-0.4-0.3-0.5-0.3
		c-0.3,0-0.5,0.1-0.6,0.3c-0.3,0.3-0.4,0.4-0.4,0.6c0,0.3,0.1,0.4,0.3,0.5C220.8,77,221,77.2,221.2,77.2z"/>
	<path d="M184.8,86.5c-0.1,0.1-0.5,0.3-1.3,0.3v0.5c0.6,0,1,0,1.3-0.1c0.3,0,0.5,0,0.8,0c0.1,0,0.4,0,0.5,0c0.3,0,0.6,0,1.3,0.1
		v-0.5c-0.5,0-0.8-0.1-0.9-0.3c-0.1-0.1-0.1-0.4-0.1-0.9v-3.8c0-1.1-0.3-1.9-0.6-2.4c-0.4-0.5-1-0.8-2-0.8c-0.6,0-1.3,0.1-1.8,0.5
		c-0.5,0.4-1,0.9-1.4,1.5v-2c-0.4,0-0.8,0.1-1.3,0.1c-0.4,0-0.9,0.1-1.5,0.1v0.5c0.6,0,1,0.1,1.3,0.1c0.1,0.1,0.3,0.4,0.3,0.9v5.1
		c0,0.5,0,0.8-0.1,0.9c-0.1,0.1-0.5,0.3-1.3,0.3v0.5c0.6,0,1,0,1.4-0.1c0.3,0,0.5,0,0.6,0s0.4,0,0.6,0s0.6,0,1.3,0.1v-0.5
		c-0.5,0.1-0.9,0-0.9,0c-0.1-0.1-0.1-0.4-0.1-1v-3.4c0-0.8,0.3-1.4,0.9-2s1.3-0.9,1.9-0.9c0.5,0,1,0.1,1.3,0.5
		c0.3,0.4,0.4,1,0.4,1.8v4C185.1,86.1,184.9,86.4,184.8,86.5z"/>
	<path d="M174.1,82.5c0,0.1-0.1,0.1-0.5,0.1c-0.3,0-0.5,0.1-0.6,0.1c-1.5,0.4-2.6,0.8-3.1,1c-0.5,0.4-0.6,0.9-0.6,1.5s0.1,1,0.5,1.4
		c0.4,0.4,0.9,0.5,1.4,0.5c0.6,0,1.1-0.1,1.5-0.4c0.5-0.3,0.9-0.5,1.3-1c0,0.4,0.1,0.8,0.4,1c0.3,0.3,0.6,0.4,1,0.4
		c0.4,0,0.8-0.1,1.1-0.3c0.3-0.3,0.5-0.5,0.8-0.9L177,86c-0.1,0.1-0.3,0.3-0.4,0.4c-0.1,0.1-0.3,0.1-0.5,0.1c-0.3,0-0.4-0.1-0.5-0.3
		c-0.1-0.1-0.1-0.4-0.1-0.8c0-0.1,0-0.3,0-0.5s0-0.4,0-0.5l0.1-2.8v-0.1c0-1-0.3-1.8-0.6-2.2c-0.4-0.5-1.1-0.6-2-0.6
		c-0.8,0-1.5,0.3-2.2,0.8c-0.6,0.5-0.9,1-0.9,1.5c0,0.3,0,0.4,0.1,0.5c0.1,0.1,0.3,0.1,0.4,0.1c0.3,0,0.4-0.1,0.6-0.3
		c0.1-0.3,0.3-0.5,0.3-0.8c0-0.1,0-0.3,0-0.6c0-0.1,0-0.1,0-0.1c0.3-0.3,0.5-0.4,0.8-0.4c0.3-0.1,0.6-0.1,0.9-0.1
		c0.5,0,0.9,0.1,1.1,0.5c0.3,0.4,0.4,0.9,0.4,1.8v0.3L174.1,82.5z M173.9,85.4c-0.3,0.5-0.6,0.8-1,1c-0.3,0.3-0.6,0.3-1,0.3
		s-0.8-0.1-1-0.4c-0.3-0.3-0.4-0.6-0.4-1c0-0.5,0.3-0.9,0.6-1.3c0.4-0.3,1.4-0.6,2.8-0.9L173.9,85.4z"/>
	<path d="M204.6,78.8c-0.5,0-0.9,0.1-1.4,0.1v0.5c0.6,0,1.1,0.1,1.3,0.1c0.1,0.1,0.3,0.4,0.3,0.9v5.1c0,0.5,0,0.8-0.1,0.9
		c-0.1,0.1-0.5,0.3-1.3,0.3v0.5c0.3,0,0.5,0,0.9,0c0.6,0,1,0,1.1,0c0.4,0,0.8,0,1.3,0c0.4,0,1,0,1.5,0.1v-0.5
		c-0.9,0-1.5-0.1-1.7-0.3c-0.1-0.1-0.3-0.5-0.3-0.9v-2.3c0-1.1,0.3-2,0.6-2.9c0.5-0.8,1-1.3,1.5-1.3h0.1c-0.1,0.1-0.1,0.3-0.1,0.4
		s0,0.3,0,0.4c0,0.3,0.1,0.5,0.3,0.6s0.3,0.3,0.5,0.3s0.4-0.1,0.5-0.3c0.1-0.1,0.3-0.4,0.3-0.6c0-0.4-0.1-0.6-0.4-0.9
		c-0.3-0.3-0.5-0.4-0.9-0.4c-0.5,0-0.9,0.3-1.3,0.6c-0.4,0.4-0.8,1-1,1.8v-2.3C205.5,78.7,205.1,78.8,204.6,78.8z"/>
	<path d="M297.5,82.5c0,0,0-0.1,0-0.3c0-0.1,0-0.1,0-0.3c0-1.1-0.3-1.9-0.9-2.6c-0.6-0.6-1.4-0.9-2.6-0.9s-2.2,0.4-2.9,1.3
		c-0.8,0.8-1.1,1.9-1.1,3.2c0,1.4,0.4,2.4,1,3.2c0.6,0.8,1.7,1.1,2.8,1.1c0.9,0,1.7-0.3,2.3-0.6c0.6-0.4,1-1,1.3-1.9l-0.4-0.1
		c-0.3,0.6-0.5,1-1,1.4c-0.5,0.3-1,0.5-1.7,0.5c-0.9,0-1.7-0.3-2.2-0.9s-0.8-1.5-0.8-2.8v-0.1L297.5,82.5z M292.5,80
		c0.4-0.5,1-0.8,1.7-0.8c0.6,0,1.1,0.3,1.5,0.6c0.4,0.5,0.5,1.1,0.5,2v0.3l-4.5,0.1C291.8,81.3,292,80.5,292.5,80z"/>
	<path d="M285.2,78.7c-0.6,0-1.1,0.1-1.7,0.5s-0.9,0.9-1.3,1.5c-0.1-0.6-0.3-1.1-0.8-1.5c-0.4-0.4-1-0.5-1.7-0.5s-1.1,0.1-1.7,0.5
		c-0.5,0.4-0.9,0.9-1.3,1.5v-2c-0.5,0-0.9,0.1-1.4,0.1s-0.9,0.1-1.4,0.1v0.5c0.6,0,1.1,0.1,1.3,0.1c0.1,0.1,0.3,0.4,0.3,0.9v5.1
		c0,0.5,0,0.8-0.1,0.9s-0.5,0.3-1.3,0.3v0.5c0.5,0,1,0,1.3-0.1c0.3,0,0.5,0,0.8,0c0.1,0,0.4,0,0.6,0c0.3,0,0.6,0,1.3,0.1v-0.5
		c-0.5,0-0.8-0.1-0.9-0.3c-0.1-0.1-0.1-0.4-0.1-1v-3.6c0.1-0.8,0.5-1.4,1-1.9c0.5-0.5,1-0.8,1.7-0.8c0.5,0,0.9,0.1,1.1,0.5
		c0.3,0.4,0.4,1,0.4,1.8v4c0,0.5-0.1,0.9-0.3,0.9c-0.1,0.1-0.5,0.3-1.3,0.3v0.5c0.5,0,0.9,0,1.3-0.1c0.4,0,0.6,0,0.9,0
		c0.1,0,0.4,0,0.5,0c0.3,0,0.6,0,1.3,0.1v-0.5c-0.5,0-0.8-0.1-0.9-0.3c-0.1-0.1-0.1-0.4-0.1-1v-3.6c0.1-0.8,0.5-1.4,1-1.9
		c0.5-0.5,1-0.8,1.7-0.8c0.5,0,0.9,0.1,1,0.5c0.3,0.4,0.4,1,0.4,1.8v4c0,0.5-0.1,0.9-0.3,0.9c-0.1,0.1-0.5,0.1-1.1,0.3V87
		c0.5,0,0.9,0,1.3-0.1c0.4,0,0.6,0,0.9,0c0.1,0,0.3,0,0.5,0c0.3,0,0.6,0,1.3,0.1v-0.5c-0.5,0-0.8-0.1-0.9-0.3
		c-0.1-0.1-0.1-0.4-0.1-0.9v-3.8c0-1.1-0.3-2-0.6-2.4C286.8,78.8,286.1,78.7,285.2,78.7z"/>
	<path d="M188.9,83.3c0,1.3,0.4,2.3,1,3.1c0.6,0.8,1.5,1.1,2.6,1.1c0.5,0,1-0.1,1.4-0.3s0.8-0.5,1.1-0.9v1.1c0.1,0,0.4,0,0.8,0
		c0.8,0,1.4-0.1,1.7-0.1v-0.5c-0.5,0-0.8-0.1-0.9-0.3c-0.1-0.1-0.1-0.4-0.1-0.9V74.1c-0.5,0-0.9,0.1-1.4,0.1c-0.4,0-0.8,0-1.1,0
		h-0.4v0.5c0.6,0,1.1,0.1,1.3,0.1c0.1,0.1,0.3,0.4,0.3,0.9v3.8c-0.4-0.4-0.6-0.5-1-0.8c-0.4-0.1-0.8-0.3-1.1-0.3
		c-1.1,0-2.2,0.4-2.8,1.3C189.1,80.8,188.9,81.8,188.9,83.3z M191.1,80.2c0.4-0.6,1-1,1.8-1c0.4,0,0.8,0.1,1.1,0.3
		c0.4,0.1,0.6,0.5,0.9,0.8v5.4c-0.3,0.4-0.6,0.6-0.9,0.9c-0.4,0.1-0.8,0.3-1.1,0.3c-0.8,0-1.3-0.4-1.8-1c-0.4-0.6-0.6-1.5-0.6-2.8
		C190.4,81.9,190.7,80.9,191.1,80.2z"/>
	<path d="M146.7,37.9c1.8,1.7,3.4,3.3,5,5.2h172.8v-5.2H146.7z"/>
	<path d="M150.1,100.8h174.5v-5.2H154.1C153,97.5,151.6,99.2,150.1,100.8z"/>
</g>
</svg>
