<?xml version="1.0" encoding="utf-8"?>
<!-- Generator: Adobe Illustrator 25.3.0, SVG Export Plug-In . SVG Version: 6.00 Build 0)  -->
<svg version="1.1" id="Layer_1" xmlns="http://www.w3.org/2000/svg" xmlns:xlink="http://www.w3.org/1999/xlink" x="0px" y="0px"
	 viewBox="0 0 240.9 34" style="enable-background:new 0 0 240.9 34;" xml:space="preserve">
<style type="text/css">
	.st0{fill:#E1251B;}
	.st1{fill:#FFFFFF;}
	.st2{font-family:'Arial-BoldMT';}
	.st3{font-size:6.7511px;}
	.st4{font-size:10.9008px;}
</style>
<path class="st0" d="M44.1,8.4H118c1.2,0,1.2,1.2,1.2,2.3v12.9c0,1.2,0,1.2-1.2,1.2H44.1c-1.2,0-1.2,0-1.2-1.2V10.7
	C42.9,9.5,42.9,8.4,44.1,8.4"/>
<text transform="matrix(1 0 0 1 70.7886 18.8332)" class="st1 st2 st3">485C</text>
<path d="M128.5,8.3h72.3c1.1,0,1.1,1.2,1.1,2.3v12.7c0,1.2,0,1.2-1.1,1.2h-72.3c-1.1,0-1.1,0-1.1-1.2V10.6
	C127.4,9.5,127.4,8.3,128.5,8.3z"/>
<text transform="matrix(1.0049 0 0 1 146.3501 20.6047)" class="st1 st2 st4">BLACK</text>
</svg>
