<?xml version="1.0" encoding="utf-8"?>
<!-- Generator: Adobe Illustrator 25.3.0, SVG Export Plug-In . SVG Version: 6.00 Build 0)  -->
<svg version="1.1" id="Layer_1" xmlns="http://www.w3.org/2000/svg" xmlns:xlink="http://www.w3.org/1999/xlink" x="0px" y="0px"
	 viewBox="0 0 240.9 34" style="enable-background:new 0 0 240.9 34;" xml:space="preserve">
<style type="text/css">
	.st0{fill:#FFFFFF;stroke:#231E21;stroke-width:0.5614;stroke-miterlimit:10;}
	.st1{fill:#020203;}
	.st2{font-family:'Arial-BoldMT';}
	.st3{font-size:9.0123px;}
	.st4{fill:#FFFFFF;}
</style>
<path class="st0" d="M57,9h59.8c0.9,0,0.9,1,0.9,1.9v10.5c0,1,0,1-0.9,1H57c-1,0-1,0-1-1V10.9C56,9.9,56,9,57,9z"/>
<text transform="matrix(1.0049 0 0 1 72.6304 19.1448)" class="st1 st2 st3">WHITE</text>
<path d="M123.5,9h59.8c0.9,0,0.9,1,0.9,1.9v10.5c0,1,0,1-0.9,1h-59.8c-1,0-1,0-1-1V10.9C122.6,9.9,122.6,9,123.5,9z"/>
<text transform="matrix(1.0049 0 0 1 138.2598 19.1448)" class="st4 st2 st3">BLACK</text>
</svg>
