<?xml version="1.0" encoding="utf-8"?>
<!-- Generator: Adobe Illustrator 25.3.0, SVG Export Plug-In . SVG Version: 6.00 Build 0)  -->
<svg version="1.1" id="Layer_1" xmlns="http://www.w3.org/2000/svg" xmlns:xlink="http://www.w3.org/1999/xlink" x="0px" y="0px"
	 viewBox="0 0 150 65" style="enable-background:new 0 0 150 65;" xml:space="preserve">
<style type="text/css">
	.st0{fill-rule:evenodd;clip-rule:evenodd;fill:#1A428A;}
	.st1{fill-rule:evenodd;clip-rule:evenodd;fill:#F18A46;}
	.st2{fill-rule:evenodd;clip-rule:evenodd;fill:#FF8300;}
	.st3{fill-rule:evenodd;clip-rule:evenodd;fill:#5F6DB2;}
	.st4{fill:#FF8300;}
	.st5{fill:#1A428A;}
</style>
<g>
	<polygon class="st0" points="52.47821,43.0432 57.25288,28.70762 51.17632,19.79302 	"/>
	<polygon class="st0" points="60.25705,33.10968 57.76394,29.56716 54.28159,43.5559 	"/>
	<polygon class="st1" points="51.17632,19.79302 57.25288,28.70762 57.80186,26.80524 50.91997,15.38983 	"/>
	<polygon class="st0" points="62.66261,36.71582 60.80019,33.92874 55.97053,44.33559 	"/>
	<polygon class="st0" points="69.45493,46.79995 60.26671,50.38983 71.34454,49.51255 	"/>
	<polygon class="st0" points="68.88978,45.94053 67.34371,43.60112 59.60514,48.61572 	"/>
	<polygon class="st0" points="66.75301,42.77182 65.1673,40.45631 58.66745,46.9864 	"/>
	<polygon class="st0" points="64.65539,39.68715 63.17356,37.45517 57.43351,45.5622 	"/>
	<polygon class="st1" points="57.76394,29.56716 60.25705,33.10968 60.90699,32.01931 58.2786,27.6548 	"/>
	<polygon class="st1" points="60.80019,33.92874 62.66261,36.71582 63.29309,36.03421 61.32847,32.77816 	"/>
	<polygon class="st1" points="63.17356,37.45517 64.65539,39.68715 65.19598,39.22482 63.69108,36.7063 	"/>
	<polygon class="st1" points="65.1673,40.45631 66.75301,42.77182 67.17625,42.51859 65.67448,39.97373 	"/>
	<polygon class="st1" points="67.34371,43.60112 68.88978,45.94053 69.15852,45.82619 67.68607,43.38046 	"/>
	<polygon class="st1" points="69.45493,46.79995 71.25986,49.391 69.70495,46.73201 	"/>
	<polygon class="st2" points="48.785,43.0432 44.01022,28.70762 50.08678,19.79302 	"/>
	<polygon class="st2" points="41.00616,33.10968 43.49916,29.56716 46.98162,43.5559 	"/>
	<polygon class="st3" points="50.08678,19.79302 44.01022,28.70762 43.46134,26.80524 50.34323,15.38983 	"/>
	<polygon class="st2" points="38.60049,36.71582 40.46302,33.92874 45.29268,44.33559 	"/>
	<polygon class="st2" points="31.80828,46.79995 40.99649,50.38983 29.91866,49.51255 	"/>
	<polygon class="st2" points="32.37342,45.94053 33.91949,43.60112 41.65806,48.61572 	"/>
	<polygon class="st2" points="34.51008,42.77182 36.0959,40.45631 42.59576,46.9864 	"/>
	<polygon class="st2" points="36.60781,39.68715 38.08954,37.45517 43.82959,45.5622 	"/>
	<polygon class="st3" points="43.49916,29.56716 41.00616,33.10968 40.35611,32.01931 42.9845,27.6548 	"/>
	<polygon class="st3" points="40.46302,33.92874 38.60049,36.71582 37.97011,36.03421 39.93463,32.77816 	"/>
	<polygon class="st3" points="38.08954,37.45517 36.60781,39.68715 36.06722,39.22482 37.57212,36.7063 	"/>
	<polygon class="st3" points="36.0959,40.45631 34.51008,42.77182 34.08685,42.51859 35.58862,39.97373 	"/>
	<polygon class="st3" points="33.91949,43.60112 32.37342,45.94053 32.10459,45.82619 33.57713,43.38046 	"/>
	<polygon class="st3" points="31.80828,46.79995 30.00325,49.391 31.55815,46.73201 	"/>
	<path class="st4" d="M73.08885,48.28691h1.48891v-3.36959h0.02614c0.47021,0.74444,1.39748,1.05791,2.25956,1.05791
		c1.99821,0,2.91253-1.71098,2.91253-3.52644c0-1.97208-1.03175-3.59163-3.1607-3.59163c-0.86198,0-1.67178,0.32654-2.08975,1.09708
		H74.4994v-0.91421h-1.41055V48.28691z M78.28706,42.42265c0,1.17555-0.50941,2.37712-1.86771,2.37712
		c-1.20154,0-1.89381-1.01881-1.89381-2.37712c0-1.43665,0.64-2.39005,1.89381-2.39005
		C77.64706,40.0326,78.28706,41.19498,78.28706,42.42265z"/>
	<path class="st4" d="M81.02979,45.79235h1.48895v-3.21297c0-1.48891,0.80981-2.31168,1.82852-2.31168
		c0.20897,0,0.431,0.0392,0.64,0.0653v-1.43668c-0.13059-0.01303-0.22203-0.03917-0.56164-0.03917
		c-0.91421,0-1.80241,0.77054-1.97221,1.48891h-0.0261v-1.30605h-1.39751V45.79235z"/>
	<path class="st4" d="M88.48746,45.97522c2.16811,0,3.40886-1.48891,3.40886-3.5656c0-2.06355-1.24075-3.55246-3.40886-3.55246
		c-2.16802,0-3.40877,1.48891-3.40877,3.55246C85.0787,44.48631,86.31944,45.97522,88.48746,45.97522 M88.48746,44.79978
		c-1.33218,0-1.91985-1.21465-1.91985-2.39016c0-1.16241,0.58767-2.37702,1.91985-2.37702
		c1.33218,0,1.91994,1.21461,1.91994,2.37702C90.40741,43.58513,89.81964,44.79978,88.48746,44.79978z"/>
	<path class="st4" d="M99.18419,41.29948c-0.14366-1.65871-1.47585-2.44232-3.04312-2.44232
		c-2.22029,0-3.33044,1.59341-3.33044,3.63083c0,1.98525,1.16241,3.48723,3.27816,3.48723c1.73712,0,2.82113-0.96648,3.0954-2.71663
		h-1.48891c-0.14367,0.96647-0.7444,1.54118-1.60648,1.54118c-1.29298,0-1.78921-1.18851-1.78921-2.31179
		c0-2.05048,1.08401-2.45539,1.85455-2.45539c0.82288,0,1.42361,0.44411,1.54115,1.26688H99.18419z"/>
	<path class="st4" d="M101.56131,41.82192c0.03917-1.00571,0.74441-1.78932,1.77618-1.78932
		c1.00574,0,1.64565,0.84891,1.69791,1.78932H101.56131z M106.52432,42.80146c0.24817-2.02445-1.05791-3.9443-3.18683-3.9443
		c-2.01128,0-3.26509,1.64565-3.26509,3.56549c0,2.07672,1.18851,3.55257,3.30426,3.55257
		c1.47588,0,2.72979-0.82288,3.05623-2.29876h-1.41055c-0.26124,0.74451-0.7836,1.12331-1.64568,1.12331
		c-1.24075,0-1.81535-0.94044-1.81535-1.99832H106.52432z"/>
	<path class="st4" d="M107.29493,43.62423c0.02614,1.59341,1.29301,2.35099,2.99093,2.35099
		c1.39748,0,3.01703-0.58778,3.01703-2.19426c0-1.33218-1.09718-1.72391-2.18119-1.97208
		c-1.09708-0.24817-2.19415-0.35267-2.19415-1.08411c0-0.58767,0.79667-0.69217,1.22767-0.69217
		c0.65301,0,1.24078,0.19594,1.37138,0.90114h1.55421c-0.18283-1.50198-1.43665-2.07658-2.82109-2.07658
		c-1.22768,0-2.8211,0.45707-2.8211,1.93291c0,1.37145,1.07095,1.76322,2.16802,1.99832
		c1.08401,0.24817,2.16812,0.3396,2.20728,1.12321c0.03921,0.77061-0.94041,0.88818-1.50198,0.88818
		c-0.79674,0-1.44971-0.31347-1.52808-1.17554H107.29493z"/>
	<path class="st4" d="M114.07343,43.62423c0.0261,1.59341,1.29298,2.35099,2.99089,2.35099
		c1.39748,0,3.01703-0.58778,3.01703-2.19426c0-1.33218-1.09718-1.72391-2.18119-1.97208
		c-1.09708-0.24817-2.19415-0.35267-2.19415-1.08411c0-0.58767,0.79668-0.69217,1.22768-0.69217
		c0.653,0,1.24077,0.19594,1.37138,0.90114h1.55421c-0.18284-1.50198-1.43665-2.07658-2.8211-2.07658
		c-1.22767,0-2.82109,0.45707-2.82109,1.93291c0,1.37145,1.07095,1.76322,2.16801,1.99832
		c1.08401,0.24817,2.16812,0.3396,2.20732,1.12321c0.03917,0.77061-0.94044,0.88818-1.50198,0.88818
		c-0.79678,0-1.44975-0.31347-1.52811-1.17554H114.07343z"/>
	<path class="st5" d="M86.68672,26.51798c-0.30294-3.11101-2.86847-4.90892-6.12091-4.92907
		c-4.32297,0-6.90879,3.43421-6.90879,7.55522s2.58582,7.55512,6.90879,7.55512c3.49476,0,5.93911-2.38372,6.1412-5.83812h-2.46457
		c-0.20206,2.10096-1.43431,3.77763-3.67664,3.77763c-3.09072,0-4.38359-2.72715-4.38359-5.49463
		c0-2.76759,1.29287-5.49473,4.38359-5.49473c2.10096,0,3.17163,1.2121,3.59586,2.86858H86.68672z"/>
	<path class="st5" d="M88.14125,31.54804c0.06062,3.57553,2.72711,5.15121,6.01989,5.15121
		c2.86858,0,5.73716-1.29287,5.73716-4.52502c0-1.49486-0.90905-3.1109-2.80796-3.67653
		c-0.74743-0.22224-3.93921-1.05048-4.16145-1.11114c-1.03019-0.28276-1.7171-0.84839-1.7171-1.85843
		c0-1.45449,1.47468-1.87872,2.64634-1.87872c1.73725,0,2.98983,0.68681,3.11097,2.54534h2.52516
		c0-3.01001-2.52516-4.60583-5.53506-4.60583c-2.60597,0-5.27249,1.35343-5.27249,4.24216
		c0,1.49486,0.72728,2.98983,3.19171,3.65645c1.97971,0.54537,3.29277,0.80799,4.30292,1.19184
		c0.58582,0.22224,1.19181,0.66662,1.19181,1.77773c0,1.09082-0.82824,2.18167-3.05038,2.18167
		c-2.02005,0-3.65634-0.86861-3.65634-3.09072H88.14125z"/>
	<polygon class="st5" points="104.48399,36.35586 107.08984,36.35586 110.03924,25.32606 110.07961,25.32606 112.96834,36.35586 
		115.53397,36.35586 119.51356,21.93229 116.94802,21.93229 114.26125,32.96209 114.22087,32.96209 111.39266,21.93229 
		108.80695,21.93229 105.89803,32.96209 105.8576,32.96209 103.2517,21.93229 100.6861,21.93229 	"/>
</g>
</svg>
