<?xml version="1.0" encoding="utf-8"?>
<!-- Generator: Adobe Illustrator 25.3.0, SVG Export Plug-In . SVG Version: 6.00 Build 0)  -->
<svg version="1.1" id="Layer_1" xmlns="http://www.w3.org/2000/svg" xmlns:xlink="http://www.w3.org/1999/xlink" x="0px" y="0px"
	 viewBox="0 0 400 140" style="enable-background:new 0 0 400 140;" xml:space="preserve">
<style type="text/css">
	.st0{fill:#007167;}
</style>
<g>
	<path class="st0" d="M308.54337,101.42328V38.33646h18.0405v24.22809h8.48199V38.33646h18.16104v63.08681h-18.16104V76.60946
		h-8.48199v24.81382H308.54337z M180.57037,52.10024l0.03041-13.77443h37.75232v13.79311l-22.34071,35.81587h21.26686
		l-0.03148,13.45062h-40.85864l-0.08908-13.45062l22.31082-35.83455H180.57037z M150.83594,101.42328V52.14772h-9.08055V38.33646
		h35.48407v13.81125h-9.08v49.27556H150.83594z M103.16553,101.42328V38.33646h35.12505l0.03094,13.78617h-17.08508
		l-0.0304,10.44192h17.08453v14.04491h-17.08453l-0.04214,11.3856h17.08455l0.04213,13.42822H103.16553z M46.77309,101.42328
		V38.33646h18.15999L75.686,64.78855V38.33646h18.15947v63.08681H75.686L64.81359,74.50283l0.11949,26.92045H46.77309z
		 M277.35843,38.33646h25.6871v13.81125h-16.84555v35.84734h16.84555v13.42822h-25.56549
		c-5.01929,0.11736-9.08157-3.86278-9.08157-8.66122l-0.1163-45.76435C268.28217,42.19817,272.34125,38.33646,277.35843,38.33646
		 M252.2688,101.42328h-30.46529V87.96358h21.98277V76.60946h-11.34882c-4.89767,0-8.95943-3.86171-9.07999-8.77806
		l0.12056-20.83369c0-4.79953,4.06175-8.66124,8.95943-8.66124h26.64148v13.75897h-18.03944v10.46912h11.22929
		c5.01825,0,9.0816,3.86225,8.95996,8.66124v21.53626C261.3504,97.5605,257.28705,101.54063,252.2688,101.42328"/>
</g>
</svg>
