<?xml version="1.0" encoding="utf-8"?>
<!-- Generator: Adobe Illustrator 25.3.0, SVG Export Plug-In . SVG Version: 6.00 Build 0)  -->
<svg version="1.1" id="Layer_1" xmlns="http://www.w3.org/2000/svg" xmlns:xlink="http://www.w3.org/1999/xlink" x="0px" y="0px"
	 viewBox="0 0 750.2 400.1" style="enable-background:new 0 0 750.2 400.1;" xml:space="preserve">
<path d="M185.7,212.1c0,0-0.1,0-0.1,0c0,0.1,0,0.1,0,0.2c0,0,0.1,0,0.1,0C185.7,212.2,185.7,212.2,185.7,212.1z"/>
<path d="M266,174.1c-7.8,0-15.6,0-23.5,0c0-1.4,0-2.8,0-4.2h-9.8c0,1.4,0,2.8,0,4.2c-6.2,0-12.4,0-18.9,0c0,6.5,0,12.7,0,19
	c-3.1,0-6.2,0-9.5,0c0-3.2,0-6.3,0-9.5c-3.2,0-6.3,0-9.4,0c0-3.1,0-6.2,0-9.5c-3.2,0.1-6.3,0.1-9.4,0.1c0-1.4,0-2.9,0-4.3H157
	c0,1.4,0,2.8,0,4.2c-3.1,0-6.2,0-9.4,0c0-1.4,0-2.8,0-4.2h-9.2v23.4c3.1,0,6.2,0,9.3,0c0-3.1,0-6.2,0-9.5c6.4,0,12.6,0,18.9,0
	c0,0,0-0.1,0-0.1c0,0,0,0,0,0c0,0,0,0,0,0s0,0,0,0c0,0,0,0,0,0c0,0,0,0,0,0c0,0,0.1,0,0.1,0c0-3.1,0-6.1,0-9.3c6.4,0,12.7,0,19,0
	c0,3.1,0,6.2,0,9.5c3.3,0,6.4,0,9.5,0c0,6.3,0,12.5,0,19c-3.2,0-6.3,0-9.5,0c0,3.2,0,6.2,0,9.2c3,0,6,0,9.2,0c0,3.1,0,6.2,0,9.3
	c-3,0-6.1,0-9.3,0c0-3,0-6.1,0-9.1c-3.1,0-6.1,0-9.4,0c0,3.3,0,6.4,0,9.4c-3.2,0-6.2,0-9.4,0c0-3.2,0-6.2,0-9.4c-3.3,0-6.3,0-9.4,0
	c0-6.2,0-12.5,0-18.9c-3.2,0-6.4,0-9.5,0c0,3.1,0,6.2,0,9.3c-3.2,0-6.3,0-9.5,0v23.8h9.3c0-4.7,0-9.5,0-14.3c3.1,0,6.2,0,9.3,0
	c0,4.8,0,9.5,0,14.3h66.4c0-1.6,0-3.2,0-4.9c-6.4,0-12.6,0-18.8,0c0-6.3,0-12.6,0-18.9c3.2,0,6.3,0,9.3,0c0,3.1,0,6.2,0,9.5
	c6.4,0,12.6,0,18.8,0c0-3,0-6.2,0-9.2c3.1,0,6.3,0,9.4,0c0-6.2,0-12.5,0-18.9c8,0,15.9,0,23.9,0V174.1z M232.9,202.6
	c-6.3,0-12.6,0-18.9,0c0-3.1,0-6.3,0-9.4c3.1,0,6.1,0,9.4,0c0-3.2,0-6.2,0-9.4c3.2,0,6.3,0,9.5,0
	C232.9,190.1,232.9,196.4,232.9,202.6z"/>
<path d="M242.4,226.5c0-1.5,0-3,0-4.6c3.1,0,6.2,0,9.4,0c0-3.2,0-6.3,0-9.4c3.2,0,6.2,0,9.4,0c0,3.1,0,6.1,0,9.4c1.6,0,3.2,0,4.8,0
	V203c-8,0-15.9,0-23.8,0c0,3.1,0,6.2,0,9.4c-3.1,0-6.3,0-9.3,0c0,4.7,0,9.4,0,14.1H242.4z"/>
<path d="M232.9,212.4c0-0.1,0-0.1,0-0.2c-0.1,0-0.1,0-0.2,0c0,0.1,0,0.1,0,0.2C232.8,212.4,232.8,212.4,232.9,212.4z"/>
<path d="M166.6,183.7c0,0,0,0.1,0,0.1c0,6.3,0,12.4,0,18.7c3.2,0,6.2,0,9.3,0c0-6.3,0-12.5,0-18.8c-3.2,0-6.2,0-9.2,0
	C166.7,183.7,166.6,183.7,166.6,183.7C166.6,183.7,166.6,183.7,166.6,183.7z"/>
</svg>
