<?xml version="1.0" encoding="utf-8"?>
<!-- Generator: Adobe Illustrator 25.3.0, SVG Export Plug-In . SVG Version: 6.00 Build 0)  -->
<svg version="1.1" id="Layer_1" xmlns="http://www.w3.org/2000/svg" xmlns:xlink="http://www.w3.org/1999/xlink" x="0px" y="0px"
	 viewBox="0 0 750.2 400.1" style="enable-background:new 0 0 750.2 400.1;" xml:space="preserve">
<path d="M244.3,174.1c-0.6,0-1.2,0-1.8,0c0-3,0-6.1,0-9.3c0.6,0,1.2,0,1.8,0v-4.2h-49.4c0,1.4,0,2.7,0,4.1c12.6,0,25.2,0,37.8,0
	c0,3.2,0,6.2,0,9.4c-6.2,0-12.4,0-18.9,0c0,6.5,0,12.7,0,19c-3.1,0-6.2,0-9.5,0c0-3.2,0-6.3,0-9.5c-3.2,0-6.3,0-9.4,0
	c0-3.1,0-6.2,0-9.5c-3.2,0.1-6.3,0.1-9.4,0.1c0-4.5,0-9,0-13.6h-9.4c0,1.4,0,2.7,0,4.1c-3.1,0-6.2,0-9.4,0c0-1.3,0-2.7,0-4.1h-6.8
	v23.2c2.2,0,4.5,0,6.7,0c0,0,0-0.1,0-0.1c0,0,0,0,0,0c0,0,0,0,0,0s0,0,0,0c0,0,0,0,0,0c0,0,0,0,0,0c0,0,0.1,0,0.1,0
	c0-3.1,0-6.1,0-9.3c6.4,0,12.7,0,19,0c0,3.1,0,6.2,0,9.5c3.3,0,6.4,0,9.5,0c0,6.3,0,12.5,0,19c-3.2,0-6.3,0-9.5,0c0,3.2,0,6.2,0,9.2
	c3,0,6,0,9.2,0c0,3.1,0,6.2,0,9.3c-3,0-6.1,0-9.3,0c0-3,0-6.1,0-9.1c-3.1,0-6.1,0-9.4,0c0,3.3,0,6.4,0,9.4c-3.2,0-6.2,0-9.4,0
	c0-3.2,0-6.2,0-9.4c-2.4,0-4.7,0-6.9,0v18.8c5.4,0,10.7,0,16.1,0c0,1.8,0,3.4,0,5.1h19c0-1.7,0-3.3,0-5c6.4,0,12.6,0,18.9,0
	c0,1.7,0,3.3,0,5H233c0-1.7,0-3.4,0-5.1c3.1,0,6.2,0,9.4,0c0,1.7,0,3.4,0,5.1h1.9v-4.9c-0.6,0-1.3,0-1.9,0c0-3.1,0-6.2,0-9.4
	c0.6,0,1.3,0,1.9,0V203c-0.7,0-1.4,0-2.1,0c0,3.1,0,6.2,0,9.4c-3.1,0-6.3,0-9.3,0c0,6.2,0,12.5,0,18.7c-3.1,0-6.2,0-9.5,0
	c0-3.3,0-6.3,0-9.5c-6.4,0-12.6,0-18.8,0c0-6.3,0-12.6,0-18.9c3.2,0,6.3,0,9.3,0c0,3.1,0,6.2,0,9.5c6.4,0,12.6,0,18.8,0
	c0-3,0-6.2,0-9.2c3.1,0,6.3,0,9.4,0c0-6.2,0-12.5,0-18.9c0.7,0,1.5,0,2.2,0V174.1z M232.9,202.6c-6.3,0-12.6,0-18.9,0
	c0-3.1,0-6.3,0-9.4c3.1,0,6.1,0,9.4,0c0-3.2,0-6.2,0-9.4c3.2,0,6.3,0,9.5,0C232.9,190.1,232.9,196.4,232.9,202.6z"/>
<path d="M232.9,212.4c0-0.1,0-0.1,0-0.2c-0.1,0-0.1,0-0.2,0c0,0.1,0,0.1,0,0.2C232.8,212.4,232.8,212.4,232.9,212.4z"/>
<path d="M185.7,212.1c0,0-0.1,0-0.1,0c0,0.1,0,0.1,0,0.2c0,0,0.1,0,0.1,0C185.7,212.2,185.7,212.2,185.7,212.1z"/>
<path d="M166.6,183.7c0,0,0,0.1,0,0.1c0,6.3,0,12.4,0,18.7c3.2,0,6.2,0,9.3,0c0-6.3,0-12.5,0-18.8c-3.2,0-6.2,0-9.2,0
	C166.7,183.7,166.6,183.7,166.6,183.7C166.6,183.7,166.6,183.7,166.6,183.7z"/>
</svg>
