<?xml version="1.0" encoding="utf-8"?>
<!-- Generator: Adobe Illustrator 25.3.0, SVG Export Plug-In . SVG Version: 6.00 Build 0)  -->
<svg version="1.1" id="Layer_1" xmlns="http://www.w3.org/2000/svg" xmlns:xlink="http://www.w3.org/1999/xlink" x="0px" y="0px"
	 viewBox="0 0 750.2 400.1" style="enable-background:new 0 0 750.2 400.1;" xml:space="preserve">
<g>
	<polygon points="196.8,217.9 196.8,217.8 189.5,226.5 197,226.5 197,217.9 	"/>
	<polygon points="196.9,199.8 196.9,169.9 172,169.9 	"/>
	<polygon points="241.6,217.9 241.6,217.9 241.6,217.9 	"/>
	<polygon points="248.9,226.5 263.9,226.5 263.9,217.9 256.5,217.9 256.5,200 241.6,217.9 241.7,217.9 	"/>
	<polygon points="241.6,217.9 234.4,226.5 241.6,226.5 	"/>
	<polygon points="138.4,200 138.4,201.8 151.9,217.9 151.9,200 	"/>
	<polygon points="174.5,217.9 166.8,217.9 166.8,200 151.9,217.9 152.1,217.9 144.9,226.5 152.2,226.5 152.2,217.9 152.3,217.9 
		159.5,226.5 174.5,226.5 	"/>
	<polygon points="181.7,200 166.8,200 181.7,217.9 	"/>
	<polygon points="196.6,217.7 196.6,200 181.7,217.9 196.6,217.9 	"/>
	<polygon points="196.8,200 211.7,217.9 211.7,200 	"/>
	<polygon points="226.6,217.9 226.6,200 211.7,217.9 197.1,217.9 204.3,226.5 219.3,226.5 219.3,217.9 	"/>
	<polygon points="241.5,200 226.6,200 241.5,217.9 	"/>
	<polygon points="266,200 256.5,200 266,211.4 	"/>
	<polygon points="163.3,199.8 163.3,169.9 154.6,169.9 138.4,189.4 138.4,199.8 	"/>
	<polygon points="264.2,199.7 264.1,199.8 266,199.8 266,197.5 264.2,199.7 264.2,199.7 	"/>
	<polygon points="239.4,169.9 264.2,199.7 264.2,199.7 264.2,199.7 264.2,169.9 	"/>
	<polygon points="230.6,169.9 221.8,169.9 197,199.7 230.6,199.7 	"/>
</g>
</svg>
