<?xml version="1.0" encoding="utf-8"?>
<!-- Generator: Adobe Illustrator 25.3.0, SVG Export Plug-In . SVG Version: 6.00 Build 0)  -->
<svg version="1.1" id="Layer_1" xmlns="http://www.w3.org/2000/svg" xmlns:xlink="http://www.w3.org/1999/xlink" x="0px" y="0px"
	 viewBox="0 0 750.2 400.1" style="enable-background:new 0 0 750.2 400.1;" xml:space="preserve">
<g>
	<polygon points="196.8,217.9 196.8,217.8 193.1,222.2 197,222.2 197,217.9 	"/>
	<polygon points="196.9,199.8 196.9,165.5 168.3,165.5 	"/>
	<polygon points="245.3,222.2 263.9,222.2 263.9,217.9 256.5,217.9 256.5,200 241.6,217.9 241.7,217.9 	"/>
	<polygon points="241.6,217.9 241.6,217.9 241.6,217.9 	"/>
	<polygon points="241.6,217.9 238,222.2 241.6,222.2 	"/>
	<polygon points="271.3,217.9 271.4,217.9 271.4,217.8 	"/>
	<polygon points="278.7,217.9 278.7,209 271.4,217.8 271.4,217.9 	"/>
	<polygon points="125.6,222.2 129.9,222.2 129.9,217.9 136.9,217.9 136.9,200 125.6,213.6 	"/>
	<polygon points="136.9,200 151.9,217.9 151.9,200 	"/>
	<polygon points="174.5,217.9 166.8,217.9 166.8,200 151.9,217.9 152.1,217.9 148.5,222.2 152.2,222.2 152.2,217.9 152.3,217.9 
		155.9,222.2 174.5,222.2 	"/>
	<polygon points="181.7,200 166.8,200 181.7,217.9 	"/>
	<polygon points="196.6,217.7 196.6,200 181.7,217.9 196.6,217.9 	"/>
	<polygon points="196.8,200 211.7,217.9 211.7,200 	"/>
	<polygon points="226.6,217.9 226.6,200 211.7,217.9 197.1,217.9 200.7,222.2 219.3,222.2 219.3,217.9 	"/>
	<polygon points="241.5,200 226.6,200 241.5,217.9 	"/>
	<polygon points="271.4,217.9 271.4,217.8 271.4,200 256.5,200 271.4,217.8 	"/>
	<polygon points="125.6,165.5 125.6,194.9 129.7,199.8 129.7,165.5 	"/>
	<polygon points="163.3,165.5 158.3,165.5 129.7,199.8 163.3,199.8 	"/>
	<polygon points="264.2,199.7 264.1,199.8 278.7,199.8 278.7,182.2 264.2,199.7 264.2,199.7 	"/>
	<polygon points="235.7,165.5 264.2,199.7 264.2,199.7 264.2,199.7 264.2,165.5 	"/>
	<polygon points="230.6,165.5 225.5,165.5 197,199.7 230.6,199.7 	"/>
</g>
</svg>
