<?xml version="1.0" encoding="utf-8"?>
<!-- Generator: Adobe Illustrator 25.3.0, SVG Export Plug-In . SVG Version: 6.00 Build 0)  -->
<svg version="1.1" id="Layer_1" xmlns="http://www.w3.org/2000/svg" xmlns:xlink="http://www.w3.org/1999/xlink" x="0px" y="0px"
	 viewBox="0 0 400 200" style="enable-background:new 0 0 400 200;" xml:space="preserve">
<style type="text/css">
	.st0{fill:#1D1D1B;}
</style>
<g>
	<path class="st0" d="M143.74094,71.05c1.6138,0.24367,3.25417,0.39804,4.84384,0.75744
		c1.45702,0.32811,2.88268,0.82259,4.28419,1.34365c3.2807,1.22064,5.47105,3.69564,7.3912,6.49867
		c2.17589,3.17214,3.82346,6.62889,5.4614,10.08571c5.46863,11.57167,10.90831,23.15784,16.35278,34.74394
		c0.67543,1.44016,1.30266,2.9044,1.99016,4.44344h-0.7213c-5.37454,0-10.74907-0.00479-16.12361,0.01207
		c-0.47763,0.00243-0.72369-0.13751-0.93114-0.58134c-1.6114-3.44718-3.25899-6.87743-4.87762-10.32453
		c-0.18575-0.39805-0.4101-0.52106-0.84914-0.52106c-12.46663,0.0145-24.93565,0.0145-37.40471,0
		c-0.43905,0-0.65372,0.12788-0.83945,0.52585c-1.63554,3.48096-3.29758,6.94979-4.94277,10.4259
		c-0.13509,0.28703-0.25328,0.47519-0.63925,0.47519c-5.58924-0.01686-11.1833-0.01207-16.77494-0.0145
		c-0.0579,0-0.1158-0.01686-0.26053-0.03615c0.09409-0.2316,0.16888-0.43906,0.26292-0.64165
		c5.35043-11.47523,10.67432-22.96246,16.06818-34.41833c1.81403-3.85487,3.75106-7.65172,5.73154-11.42458
		c1.14824-2.18546,2.59319-4.19733,4.28181-6.01861c2.08903-2.26025,4.78112-3.47125,7.67583-4.21905
		c1.8261-0.47041,3.71974-0.67786,5.58443-1.00347c0.21469-0.03622,0.42455-0.07236,0.63925-0.10858H143.74094z M127.61008,106.6889
		h28.48412c-0.10858-0.27017-0.19058-0.48962-0.28706-0.6995c-1.6693-3.68114-3.33859-7.36227-5.01753-11.04097
		c-1.19406-2.61973-2.39539-5.2371-3.60152-7.85196c-0.48248-1.04934-1.20374-1.90815-2.20724-2.48464
		c-3.03946-1.74648-6.98595-0.60064-8.46707,2.56665c-2.71381,5.8063-5.33353,11.65611-7.98944,17.48655
		C128.22279,105.3236,127.92847,105.98454,127.61008,106.6889"/>
	<path class="st0" d="M334.63864,71.05c1.40393,0.20267,2.8175,0.35461,4.21182,0.61757
		c2.31818,0.43419,4.53021,1.1965,6.61926,2.32305c2.26031,1.22299,3.83307,3.13349,5.29007,5.16944
		c1.98053,2.77174,3.52197,5.79673,4.9838,8.86515c4.02368,8.44053,8.08591,16.8642,12.06857,25.32166
		c2.33026,4.9427,4.53995,9.94091,6.80264,14.91262c0.08685,0.1906,0.15924,0.3884,0.27502,0.66344h-0.66821
		c-5.39627,0-10.79007-0.00729-16.18399,0.01199c-0.47034,0.00243-0.69229-0.1423-0.89011-0.56206
		c-1.6138-3.44711-3.2662-6.87736-4.88248-10.32211c-0.18808-0.4004-0.39319-0.54278-0.83701-0.54278
		c-12.48834,0.0145-24.97913,0.0145-37.46982,0c-0.427,0-0.61758,0.15202-0.78882,0.51863
		c-1.61148,3.42789-3.2518,6.84128-4.8559,10.27153c-0.22195,0.47519-0.48248,0.64163-1.02042,0.63921
		c-5.35287-0.02171-10.71048-0.01442-16.06573-0.01442h-0.71887c0.64648-1.44739,1.23029-2.82483,1.86707-4.17812
		c5.46384-11.61989,10.92523-23.2422,16.40829-34.85252c1.6524-3.4954,3.29517-7.00279,5.50482-10.19909
		c1.68857-2.4412,3.52911-4.70875,6.29123-6.04032c2.33261-1.12413,4.7811-1.84535,7.3309-2.22897
		c0.97455-0.14951,1.95636-0.25081,2.93332-0.37389H334.63864z M346.94122,106.7034
		c-0.08685-0.22431-0.14716-0.40526-0.22437-0.57892c-1.44974-3.19622-2.89478-6.39737-4.35413-9.58881
		c-1.48596-3.24451-2.90198-6.52274-4.50131-9.71181c-1.62347-3.24208-6.44803-4.0526-9.09433-1.5631
		c-0.73572,0.69229-1.29779,1.64519-1.72711,2.57629c-2.82239,6.10304-5.58206,12.2326-8.36337,18.35736
		c-0.06995,0.15202-0.11581,0.31361-0.18573,0.50899H346.94122z"/>
	<path class="st0" d="M25.11016,128.9252v-0.78394V72.89292c0-0.82738,0.00239-0.82981,0.84188-0.82981
		c12.48592,0,24.97669-0.00243,37.46503,0.00243c2.19032,0.00243,4.38793-0.0603,6.57342,0.08443
		c5.71226,0.38112,11.1254,1.82607,16.03197,4.87277c5.48794,3.41096,8.96883,8.30787,10.47651,14.56051
		c1.42809,5.91967,1.37984,11.87077-0.23639,17.75187c-1.92257,6.99079-6.26467,12.0638-12.64514,15.43132
		c-4.37103,2.30619-9.04846,3.56534-13.9502,4.02132c-1.0614,0.09886-2.13003,0.13022-3.19382,0.13022
		c-13.47739,0.00964-26.95477,0.00722-40.43212,0.00722H25.11016z M40.90092,117.47655h0.76948
		c7.49014,0,14.97784,0.02901,22.46795-0.02407c1.48595-0.00964,3.00809-0.17609,4.44822-0.53792
		c4.8728-1.22064,8.56115-3.97788,10.50544-8.72763c1.59454-3.89823,1.73927-7.96533,0.96975-12.05415
		c-1.66686-8.87473-8.93748-12.60172-15.19733-12.63308c-7.7482-0.041-15.49405-0.00964-23.23985-0.00964h-0.72365V117.47655z"/>
	<path class="st0" d="M251.83974,72.02697v11.46072h-0.71651c-10.47404,0-20.94814-0.10851-31.41982,0.04587
		c-5.54823,0.08201-10.20872,2.28683-13.32541,7.10895c-1.44012,2.23375-2.11313,4.7474-2.35437,7.37434
		c-0.29671,3.23965-0.12784,6.44316,1.02522,9.51879c2.00702,5.35526,5.96071,8.44781,11.46794,9.63467
		c1.01315,0.21953,2.07695,0.28946,3.11424,0.29432c10.51509,0.03615,21.02534,0.04101,31.53804,0.05544h0.6658v11.37629
		c-0.20746,0.00964-0.41492,0.02658-0.62236,0.02658c-11.71883,0-23.43767,0.07715-35.15645-0.02901
		c-6.67963-0.05786-12.97084-1.73199-18.57936-5.5072c-5.21292-3.51225-8.38745-8.44052-9.73111-14.54122
		c-1.2785-5.78701-1.20613-11.57888,0.39561-17.29117c2.1035-7.51178,6.94493-12.71023,13.92848-15.9861
		c5.09711-2.39056,10.49336-3.52919,16.11639-3.5364c10.94688-0.01686,21.8938-0.00486,32.84305-0.00486H251.83974z"/>
	<rect x="264.3981" y="72.10412" class="st0" width="15.67492" height="56.79701"/>
</g>
</svg>
