<?xml version="1.0" encoding="utf-8"?>
<!-- Generator: Adobe Illustrator 25.3.0, SVG Export Plug-In . SVG Version: 6.00 Build 0)  -->
<svg version="1.1" id="Layer_1" xmlns="http://www.w3.org/2000/svg" xmlns:xlink="http://www.w3.org/1999/xlink" x="0px" y="0px"
	 viewBox="0 0 400 200" style="enable-background:new 0 0 400 200;" xml:space="preserve">
<style type="text/css">
	.st0{fill:#FFFFFF;}
</style>
<g>
	<path class="st0" d="M143.7,71.1c1.6,0.2,3.3,0.4,4.8,0.8c1.5,0.3,2.9,0.8,4.3,1.3c3.3,1.2,5.5,3.7,7.4,6.5
		c2.2,3.2,3.8,6.6,5.5,10.1c5.5,11.6,10.9,23.2,16.4,34.7c0.7,1.4,1.3,2.9,2,4.4h-0.7c-5.4,0-10.7,0-16.1,0c-0.5,0-0.7-0.1-0.9-0.6
		c-1.6-3.4-3.3-6.9-4.9-10.3c-0.2-0.4-0.4-0.5-0.8-0.5c-12.5,0-24.9,0-37.4,0c-0.4,0-0.7,0.1-0.8,0.5c-1.6,3.5-3.3,6.9-4.9,10.4
		c-0.1,0.3-0.3,0.5-0.6,0.5c-5.6,0-11.2,0-16.8,0c-0.1,0-0.1,0-0.3,0c0.1-0.2,0.2-0.4,0.3-0.6c5.4-11.5,10.7-23,16.1-34.4
		c1.8-3.9,3.8-7.7,5.7-11.4c1.1-2.2,2.6-4.2,4.3-6c2.1-2.3,4.8-3.5,7.7-4.2c1.8-0.5,3.7-0.7,5.6-1c0.2,0,0.4-0.1,0.6-0.1
		C139.9,71.1,143.7,71.1,143.7,71.1z M127.6,106.7h28.5c-0.1-0.3-0.2-0.5-0.3-0.7c-1.7-3.7-3.3-7.4-5-11c-1.2-2.6-2.4-5.2-3.6-7.9
		c-0.5-1-1.2-1.9-2.2-2.5c-3-1.7-7-0.6-8.5,2.6c-2.7,5.8-5.3,11.7-8,17.5C128.2,105.3,127.9,106,127.6,106.7"/>
	<path class="st0" d="M334.6,71.1c1.4,0.2,2.8,0.4,4.2,0.6c2.3,0.4,4.5,1.2,6.6,2.3c2.3,1.2,3.8,3.1,5.3,5.2c2,2.8,3.5,5.8,5,8.9
		c4,8.4,8.1,16.9,12.1,25.3c2.3,4.9,4.5,9.9,6.8,14.9c0.1,0.2,0.2,0.4,0.3,0.7h-0.7c-5.4,0-10.8,0-16.2,0c-0.5,0-0.7-0.1-0.9-0.6
		c-1.6-3.4-3.3-6.9-4.9-10.3c-0.2-0.4-0.4-0.5-0.8-0.5c-12.5,0-25,0-37.5,0c-0.4,0-0.6,0.2-0.8,0.5c-1.6,3.4-3.3,6.8-4.9,10.3
		c-0.2,0.5-0.5,0.6-1,0.6c-5.4,0-10.7,0-16.1,0h-0.7c0.6-1.4,1.2-2.8,1.9-4.2c5.5-11.6,10.9-23.2,16.4-34.9c1.7-3.5,3.3-7,5.5-10.2
		c1.7-2.4,3.5-4.7,6.3-6c2.3-1.1,4.8-1.8,7.3-2.2c1-0.1,2-0.3,2.9-0.4C330.8,71,334.6,71,334.6,71.1z M346.9,106.7
		c-0.1-0.2-0.1-0.4-0.2-0.6c-1.4-3.2-2.9-6.4-4.4-9.6c-1.5-3.2-2.9-6.5-4.5-9.7c-1.6-3.2-6.4-4.1-9.1-1.6c-0.7,0.7-1.3,1.6-1.7,2.6
		c-2.8,6.1-5.6,12.2-8.4,18.4c-0.1,0.2-0.1,0.3-0.2,0.5H346.9z"/>
	<path class="st0" d="M25.1,128.9v-0.8V72.9c0-0.8,0-0.8,0.8-0.8c12.5,0,25,0,37.5,0c2.2,0,4.4-0.1,6.6,0.1c5.7,0.4,11.1,1.8,16,4.9
		c5.5,3.4,9,8.3,10.5,14.6c1.4,5.9,1.4,11.9-0.2,17.8c-1.9,7-6.3,12.1-12.6,15.4c-4.4,2.3-9,3.6-14,4c-1.1,0.1-2.1,0.1-3.2,0.1
		c-13.5,0-27,0-40.4,0H25.1z M40.9,117.5h0.8c7.5,0,15,0,22.5,0c1.5,0,3-0.2,4.4-0.5c4.9-1.2,8.6-4,10.5-8.7c1.6-3.9,1.7-8,1-12.1
		c-1.7-8.9-8.9-12.6-15.2-12.6c-7.7,0-15.5,0-23.2,0h-0.7C40.9,83.5,40.9,117.5,40.9,117.5z"/>
	<path class="st0" d="M251.8,72v11.5h-0.7c-10.5,0-20.9-0.1-31.4,0c-5.5,0.1-10.2,2.3-13.3,7.1c-1.4,2.2-2.1,4.7-2.4,7.4
		c-0.3,3.2-0.1,6.4,1,9.5c2,5.4,6,8.4,11.5,9.6c1,0.2,2.1,0.3,3.1,0.3c10.5,0,21,0,31.5,0.1h0.7v11.4c-0.2,0-0.4,0-0.6,0
		c-11.7,0-23.4,0.1-35.2,0c-6.7-0.1-13-1.7-18.6-5.5c-5.2-3.5-8.4-8.4-9.7-14.5c-1.3-5.8-1.2-11.6,0.4-17.3
		c2.1-7.5,6.9-12.7,13.9-16c5.1-2.4,10.5-3.5,16.1-3.5c10.9,0,21.9,0,32.8,0L251.8,72L251.8,72z"/>
	<rect x="264.4" y="72.1" class="st0" width="15.7" height="56.8"/>
</g>
</svg>
