<?xml version="1.0" encoding="utf-8"?>
<!-- Generator: Adobe Illustrator 25.2.1, SVG Export Plug-In . SVG Version: 6.00 Build 0)  -->
<svg version="1.1" id="Layer_1" xmlns="http://www.w3.org/2000/svg" xmlns:xlink="http://www.w3.org/1999/xlink" x="0px" y="0px"
	 viewBox="0 0 400 140" style="enable-background:new 0 0 400 140;" xml:space="preserve">
<style type="text/css">
	.st0{fill:#1D1D1B;}
</style>
<g>
	<path class="st0" d="M150.1,4.2c0.3,0,0.5,0,0.8,0c3.6,0,7.3,0,10.9,0c1.5,0,2.6,0.6,3.4,2c3.7,6.5,7.4,12.9,11.1,19.4
		c0.1,0.2,0.2,0.4,0.5,0.8c0.1-0.4,0.2-0.7,0.2-0.9c0.8-6.6,1.6-13.2,2.5-19.8c0.1-1,0.6-1.5,1.5-1.5c3.6,0,7.2,0,10.8,0
		c0.1,0,0.2,0,0.4,0.1c-1.9,15-3.8,30.1-5.7,45.1c-0.3,0-0.6,0-0.8,0c-3.8,0-7.5,0-11.3,0c-0.8,0-1.2-0.3-1.5-0.9
		c-4.1-7.1-8.2-14.1-12.4-21.2c-0.1-0.2-0.3-0.4-0.5-0.7c-0.1,0.8-0.2,1.4-0.3,2c-0.6,4.3-1.1,8.6-1.7,12.9
		c-0.2,1.9-0.5,3.9-0.8,5.8c-0.2,1.5-0.8,2.1-2.2,2.1c-3.4,0-6.7,0-10.1,0c-0.1,0-0.1,0-0.3-0.1C146.3,34.3,148.2,19.3,150.1,4.2z"
		/>
	<path class="st0" d="M57.5,49.5c0.2-1.6,0.4-3.2,0.6-4.7c0.4-3.6,0.9-7.1,1.4-10.7c0.4-3.5,0.9-7,1.3-10.6
		c0.5-3.6,0.9-7.2,1.4-10.8c0.3-2.6,0.7-5.2,1-7.8c0-0.4,0.2-0.6,0.6-0.5c0.1,0,0.2,0,0.3,0c7.4,0,14.8,0,22.2,0
		c3.2,0,6.1,0.9,8.5,3.1c2.7,2.5,4,5.6,3.8,9.4c-0.4,5.1-3.1,8.7-7.1,11.3c-0.7,0.5-1.5,0.9-2.2,1.3c4.5,6,6.9,13.1,9.6,20.1
		c-0.4,0-0.6,0-0.8,0c-4.3,0-8.7,0-13,0c-1.2,0-2.1-0.6-2.5-1.8c-1.6-3.7-3.2-7.5-4.8-11.2c-0.5-1.1-1.2-2.1-1.8-3.1
		c-0.2-0.3-0.4-0.5-0.7-0.7c-0.6-0.5-1-0.4-1.1,0.4c-0.4,2.9-0.7,5.7-1.1,8.6c-0.2,2-0.5,3.9-0.8,5.9c-0.2,1.1-0.8,1.7-1.9,1.8
		c-0.2,0-0.4,0-0.6,0c-3.9,0-7.8,0-11.7,0C58,49.5,57.8,49.5,57.5,49.5z M79.9,12.1c-0.9,0-1.9,0-2.8,0c-0.6,0-0.8,0.2-0.8,0.7
		c-0.5,3.9-0.9,7.9-1.4,11.8c-0.1,0.5,0.1,0.6,0.6,0.6c0.8,0,1.6,0,2.4-0.1c0.9-0.1,1.8-0.1,2.7-0.3c2.1-0.5,3.4-2,4.3-4
		c0.9-2.3,1.3-4.6,0.4-7c-0.5-1.2-1.3-1.9-2.6-1.8C81.7,12.1,80.8,12.1,79.9,12.1z"/>
	<path class="st0" d="M124.7,3c5.3,0.1,10.1,1.5,14.2,5.1c2.9,2.5,4.9,5.8,5.7,9.6c1.7,8.9-0.1,17-5.7,24c-4.2,5.2-9.7,8-16.1,8.8
		c-5.6,0.7-10.8-0.2-15.7-3.2c-4.9-3.1-7.9-7.7-8.6-13.6c-1.1-8.1,0.8-15.4,5.9-21.6c3.4-4.1,7.8-6.7,12.8-8.1
		C119.6,3.3,122.1,2.9,124.7,3z M112.5,30c0.1,0.8,0.1,2,0.3,3.2c0.3,2.1,0.9,4.2,2.1,6c2.4,3.6,6.3,4.2,9.7,1.5
		c1.5-1.2,2.6-2.7,3.5-4.4c2.4-4.8,3.1-10,2.8-15.3c-0.2-2.4-0.7-4.8-2-6.8c-2.1-3.3-5.6-4.2-9-2.2c-1.8,1.1-3.2,2.7-4.2,4.6
		C113.3,20.6,112.6,25,112.5,30z"/>
	<path class="st0" d="M261.1,39.2c-0.6,1.3-1.1,2.4-1.6,3.5c-1,2-2,4-2.9,6c-0.2,0.5-0.5,0.7-1.1,0.7c-9.7,0-19.3,0-29,0
		c-0.2,0-0.5,0-0.9,0c0.1-1.2,0.2-2.2,0.4-3.3c0.5-4.3,1.1-8.7,1.6-13c0.4-3.6,0.9-7.1,1.3-10.7c0.4-3.5,0.9-7,1.3-10.6
		c0.3-2.3,0.6-4.6,0.9-6.9c0.1-0.6,0.3-0.8,0.8-0.8c10.7,0,21.3,0,32,0c0.2,0,0.5,0,0.8,0c-0.1,1.2-0.2,2.4-0.4,3.5
		c-0.2,1.4-0.3,2.9-0.5,4.3c-0.2,1.5-1,2.2-2.5,2.2c-5.3,0-10.7,0-16,0c-0.3,0-0.5,0-0.8,0c-0.1,0.7-0.2,1.3-0.3,1.9
		c-0.2,1.5-0.3,3-0.6,4.5c-0.1,0.7,0.1,0.9,0.7,0.9c5.1,0,10.2,0,15.3,0c0.3,0,0.5,0,0.9,0c-0.2,1.5-0.3,2.9-0.5,4.3
		c-0.1,1-0.3,1.9-0.4,2.9c-0.2,1.8-1,2.6-2.7,2.6c-4.6,0-9.1,0-13.7,0c-0.7,0-1,0.2-1.1,1c-0.2,1.9-0.5,3.8-0.7,5.7
		c-0.1,1,0.1,1.3,1.1,1.3c5.8,0,11.7,0,17.5,0C260.4,39.2,260.6,39.2,261.1,39.2z"/>
	<path class="st0" d="M306.7,49.5c-0.3,0-0.6,0-0.8,0c-3.8,0-7.6,0-11.4,0c-1.7,0-2.7-0.5-3.1-2.5c-0.4-1.8-0.9-3.6-1.3-5.3
		c-0.3-1.3-0.9-1.8-2.2-1.8c-2.7,0-5.4,0-8.1,0.1c-1.5,0-2.9,0-4.4,0c-0.5,0-0.8,0.2-1.1,0.7c-1.1,2.3-2.3,4.5-3.4,6.8
		c-0.6,1.3-1.6,2-2.9,2c-2.9,0.1-5.9,0-8.8,0c0,0-0.1,0-0.2-0.1c0.4-0.8,0.8-1.7,1.2-2.5c2.9-5.9,5.9-11.9,8.8-17.8
		c3.7-7.5,7.4-15,11.2-22.5c0.2-0.4,0.5-0.9,0.7-1.4c0.3-0.7,0.7-0.9,1.4-0.9c4.2,0,8.4,0,12.6,0c0.6,0,0.8,0.2,0.9,0.8
		c1.1,4.7,2.3,9.4,3.4,14.1c1.2,5.1,2.5,10.1,3.7,15.2C304.2,39.3,305.4,44.3,306.7,49.5z M284.7,19.6c-0.1,0-0.1,0-0.2,0
		c-2,3.9-3.9,7.8-5.9,11.7c0.2,0.1,0.2,0.1,0.3,0.1c2.4,0,4.9,0,7.3,0c0.9,0,1.2-0.5,1-1.4c-0.7-2.9-1.4-5.8-2.1-8.6
		C285,20.7,284.8,20.1,284.7,19.6z"/>
	<path class="st0" d="M191.1,35.7c1.6,0.7,3.1,1.5,4.7,2.1c3.4,1.3,6.8,2.3,10.5,2.2c1.4,0,2.8-0.3,4.1-0.5c0.9-0.2,1.6-0.8,1.8-1.8
		c0.2-1.2-0.1-2.2-1.1-2.8c-1.5-0.9-3-1.6-4.6-2.3c-2.8-1.2-5.7-2.2-8.3-4c-3.3-2.2-4.7-5.5-4.9-9.4c-0.2-3,0.4-5.9,2.1-8.4
		c2-2.8,4.7-4.6,7.8-5.8c7.5-2.9,14.8-2.4,22,1.1c0.3,0.2,0.5,0.3,0.4,0.7c-0.4,2.8-0.8,5.6-1.2,8.5c0,0.1-0.1,0.2-0.1,0.3
		c-0.2,0-0.3,0-0.5-0.1c-3.1-1.6-6.4-2.5-9.9-2.6c-2.1-0.1-4.2,0.4-6.2,1.2c-0.1,0.1-0.3,0.1-0.4,0.2c-1.6,1-1.8,2.6-0.3,3.7
		c1.1,0.8,2.4,1.4,3.6,1.9c3,1.2,6,2.4,8.7,4.3c7.1,4.8,6.9,14.7,1.9,20.1c-2.8,3-6.2,4.6-10,5.5c-5.4,1.3-10.7,0.8-15.9-0.9
		c-1.8-0.6-3.5-1.2-5.3-1.8c-0.4-0.1-0.5-0.3-0.5-0.7c0.5-3.5,0.9-7,1.3-10.5C191,35.7,191.1,35.7,191.1,35.7z"/>
	<path class="st0" d="M327.2,4.2c-1.5,11.7-2.9,23.2-4.4,34.9c6.1,0,12.2,0,18.4,0c-0.4,3.5-0.9,6.9-1.3,10.4c-0.3,0-0.6,0-0.8,0
		c-9.6,0-19.3,0-28.9,0c-0.2,0-0.4,0-0.6,0c-1.4-0.1-2.2-0.9-2-2.4c0.2-2,0.5-4,0.7-6c0.5-4.3,1.1-8.6,1.6-12.9
		c0.5-4.1,1-8.2,1.6-12.3c0.5-3.6,0.9-7.1,1.3-10.7c0.1-1,0.1-1,1.1-1c4.1,0,8.3,0,12.4,0C326.5,4.2,326.8,4.2,327.2,4.2z"/>
	<path class="st0" d="M338.6,4.1c-2.7,0-4.9,2.2-4.9,4.9c0,0,0,0,0,0c0,2.7,2.2,4.9,4.9,4.9c2.7,0,4.9-2.2,4.9-4.9
		C343.5,6.3,341.3,4.1,338.6,4.1z M338.6,13.2c-2.3,0-4.1-1.8-4.1-4.1s1.8-4.1,4.1-4.1c2.3,0,4.1,1.8,4.1,4.1
		C342.7,11.3,340.8,13.2,338.6,13.2z"/>
	<path class="st0" d="M340.5,10.7c-0.4-0.7-0.8-1.2-1.2-1.3v0c0.9,0,1.5-0.7,1.5-1.5c0-0.6-0.4-1.4-1.8-1.4h-2.4l0,5.3h0.9V9.4h0.5
		c0.7,0,0.9,0.2,1.6,1.4l0.5,0.8h1.1L340.5,10.7z M338.8,8.7h-1.2V7.1h1.4c0.6,0,1,0.3,1,0.8C339.9,8.4,339.4,8.7,338.8,8.7z"/>
</g>
</svg>
