<?xml version="1.0" encoding="utf-8"?>
<!-- Generator: Adobe Illustrator 25.3.0, SVG Export Plug-In . SVG Version: 6.00 Build 0)  -->
<svg version="1.1" id="Layer_1" xmlns="http://www.w3.org/2000/svg" xmlns:xlink="http://www.w3.org/1999/xlink" x="0px" y="0px"
	 viewBox="0 0 750.2 400.1" style="enable-background:new 0 0 750.2 400.1;" xml:space="preserve">
<g>
	<path d="M476.6,55.6c-20.6,7-38.6,14.5-52.2,21.8c-11.5,6.2-19.8,17-22.9,29.6c-10.7,45-11,117-9.4,169.5
		c1.3,41.5,3.9,77.7,5.2,94.4h38.2l0.2,0.1l12.1-199.9V171l-1.3-21.5l0.2-0.2c6.2-4.8,8.5-15.1,11.2-26.9
		c4.1-18.1,9.2-40.6,30.5-54.8c7.8-4,16.8-19,16.8-19l-15.6,3L476.6,55.6z"/>
	<path d="M288.4,122.6c-3.3-14.3-7.1-31-18.8-44.3l-0.1-0.1l-2-2.2l-0.6-0.5c-2.4-2.4-5.1-4.7-8.3-6.9l-5.9-3.9l-0.1,0.1l-5.2,2.6
		l-9,3.5l-7.6,2.2c-4.8,1.1-13.4,2.2-18.9,2.7l-0.1,0.5l-3.5,15.9l-0.7,3.2h-0.1v61.2h93l-0.5-6.8
		C293.5,144.9,291.1,134.5,288.4,122.6z"/>
	<path d="M178.5,73.5l-7.4-1.8c-0.9-0.3-1.9-0.6-2.8-0.9l-0.1-0.1l-9.6-3.8l0,0l0,0V67c-2-1-3.7-2-5.4-3l-0.2,0.3
		c-26.6,13.5-32.3,38.3-36.8,58.1c-2.7,12-5.1,22.3-11.4,27.4l-0.5,6.8H199V86.3c-1.7-2.9-3.2-6.5-3.3-10.5
		C189.8,75.2,181.7,74.2,178.5,73.5z"/>
	<path d="M694.5,107c-3-12.7-11.3-23.5-22.9-29.6c-0.8-0.4-1.6-0.8-2.4-1.3c-0.3-0.2-0.6-0.3-0.9-0.5c-0.5-0.3-1-0.5-1.6-0.8
		c-0.4-0.2-0.8-0.4-1.2-0.6c-0.5-0.2-0.9-0.5-1.4-0.7c-0.4-0.2-0.9-0.4-1.4-0.7c-0.4-0.2-0.8-0.4-1.2-0.6c-0.5-0.2-1-0.5-1.5-0.7
		c-0.4-0.2-0.8-0.4-1.2-0.5c-0.6-0.3-1.1-0.5-1.7-0.8c-0.4-0.2-0.7-0.3-1.1-0.5c-0.6-0.3-1.2-0.5-1.8-0.8c-0.3-0.1-0.6-0.3-1-0.4
		c-0.7-0.3-1.3-0.6-2-0.9c-0.3-0.1-0.6-0.3-0.9-0.4c-0.7-0.3-1.4-0.6-2.1-0.9c-0.3-0.1-0.5-0.2-0.8-0.3c-0.7-0.3-1.5-0.6-2.3-0.9
		c-0.2-0.1-0.5-0.2-0.7-0.3c-0.8-0.3-1.6-0.6-2.4-1c-0.2-0.1-0.4-0.2-0.6-0.3c-0.8-0.3-1.7-0.7-2.6-1c-0.2-0.1-0.4-0.1-0.5-0.2
		c-0.9-0.4-1.8-0.7-2.7-1.1c-0.1-0.1-0.3-0.1-0.4-0.2c-1-0.4-1.9-0.7-2.9-1.1c-0.1,0-0.2-0.1-0.3-0.1c-1-0.4-2.1-0.8-3.1-1.1
		c-0.1,0-0.1,0-0.2-0.1c-1.1-0.4-2.2-0.8-3.3-1.2v-0.1l-1-0.3c-0.5-0.2-1.1-0.4-1.6-0.6h-0.1l-10.3-3.2L593,50.7
		c0,0,4.2,15.3,16.8,22.3c1.3,0.7,2.4,1.6,3.4,2.6c0.1,0.1,0.2,0.2,0.3,0.3c0.7,0.7,1.3,1.4,1.9,2.1c0.2,0.2,0.3,0.4,0.5,0.6
		c0.7,0.8,1.3,1.6,2,2.5l0,0c1.9,2.5,3.5,5.1,4.9,7.7c2.8,5.2,4.9,10.5,6.6,15.8c0,0,0,0,0,0.1c0.3,1,0.6,1.9,0.9,2.9v0.1
		c0.3,1,0.5,1.9,0.8,2.8c0,0.1,0,0.1,0,0.2c0.2,0.9,0.5,1.9,0.7,2.8c0,0.1,0,0.1,0,0.2c0.2,0.9,0.4,1.8,0.7,2.7c0,0.1,0,0.1,0,0.2
		c0.2,0.9,0.4,1.8,0.6,2.7c0,0.1,0,0.1,0,0.2c0.2,0.9,0.4,1.8,0.6,2.6c2.7,11.9,5,22.1,11.2,26.9l0.2,0.1l0.4,21
		c0.4,0.1,0.9,0.5,0.9,0.9l13.7,199.5h38.3c1.3-16.7,4-52.8,5.2-94.4C705.6,224,705.2,152,694.5,107z"/>
	<path d="M115.3,122.4c4.6-20,10.3-45,37.2-58.7c-7.9-6.1-6.2-13.4-6.2-13.4l-15.7,5.4c-0.2,0-0.3-0.1-0.4-0.2l0.1,0.3
		c-20.6,7.1-37.9,14.4-51.4,21.6C67.3,83.5,59,94.3,56,107c-10.7,45-11,117-9.4,169.5c1.3,41.5,3.9,77.7,5.2,94.4H90l0.2,0.1
		l12.1-199.9c0-0.2,0.1-0.4,0.3-0.6l1.4-21v-0.2C110.2,144.5,112.5,134.2,115.3,122.4z"/>
	<path d="M326.1,77.4c-0.8-0.4-1.7-0.9-2.6-1.4c-0.3-0.2-0.7-0.3-1-0.5c-0.5-0.3-1.1-0.6-1.6-0.8c-0.5-0.2-1-0.5-1.4-0.7
		s-0.8-0.4-1.3-0.6c-0.6-0.3-1.2-0.6-1.8-0.8c-0.4-0.2-0.7-0.3-1.1-0.5c-0.7-0.3-1.3-0.6-2-0.9c-0.3-0.1-0.6-0.3-0.9-0.4
		c-0.7-0.3-1.5-0.7-2.2-1c-0.3-0.1-0.5-0.2-0.8-0.3c-0.8-0.4-1.6-0.7-2.4-1.1c-0.2-0.1-0.4-0.2-0.6-0.3c-0.9-0.4-1.8-0.8-2.6-1.1
		c-0.2-0.1-0.3-0.1-0.5-0.2c-0.9-0.4-1.9-0.8-2.8-1.2c-0.1,0-0.2-0.1-0.4-0.1c-1-0.4-2-0.8-3-1.2c-0.1,0-0.2-0.1-0.3-0.1
		c-1-0.4-2.1-0.8-3.2-1.3c-0.1,0-0.1,0-0.2-0.1c-1.1-0.4-2.2-0.9-3.3-1.3H290c-1.1-0.4-2.3-0.9-3.5-1.3l0,0c-3.6-1.3-7.2-2.6-11-4
		l-0.1-0.3l-1.6-0.5L274,55c-0.1,0-0.3,0-0.5,0c-0.1,0-0.3,0-0.5,0l-13.6-4.7c0,0,1.8,7.3-6.2,13.4c0.3,0.1,0.5,0.1,0.8,0.2
		c-0.3,0.1-0.5,0.3-0.8,0.4c25.7,13.9,31.3,38.3,35.8,58.1c2.7,11.9,5.1,22.1,11.3,26.9l0.2,0.1l1.4,20.7c0.2,0.1,0.3,0.3,0.4,0.5
		l0.1,0.1c0.1,0.1,0.1,0.2,0.1,0.4l12,199.8H353c1.3-16.7,4-52.8,5.2-94.4C360,224,359.6,152,348.9,107
		C345.9,94.3,337.6,83.5,326.1,77.4z"/>
</g>
<path d="M209.6,75.9c0,0-2.6-1.3-7-1.3c-1.5,0-3.2,0.1-5,0.5c0,9.6,8.5,16.7,8.5,16.7L209.6,75.9z"/>
</svg>
