<?xml version="1.0" encoding="utf-8"?>
<!-- Generator: Adobe Illustrator 25.3.0, SVG Export Plug-In . SVG Version: 6.00 Build 0)  -->
<svg version="1.1" id="Layer_1" xmlns="http://www.w3.org/2000/svg" xmlns:xlink="http://www.w3.org/1999/xlink" x="0px" y="0px"
	 viewBox="0 0 750.2 400.1" style="enable-background:new 0 0 750.2 400.1;" xml:space="preserve">
<g>
	<path d="M639.7,62.9l-0.4,0.5l0.8-0.4C640,63,639.8,63,639.7,62.9z"/>
	<path d="M612.4,69.4c1.5-4.1,2.8-7.7,3.5-8.6c2.4-2.7,5.4-3.7,6.9-4.1l-10.3-3.2L593,50.7c0,0,4.2,15.3,16.8,22.3
		c0.9,0.5,1.7,1.1,2.5,1.8h0.1c-0.5-0.5-0.9-0.9-1.4-1.3C611.5,72,612,70.7,612.4,69.4z"/>
	<path d="M636,61.5c-0.2-0.1-0.4-0.1-0.5-0.2l0.4,0.4L636,61.5z"/>
	<path d="M625.5,57.6l-1-0.3C624.8,57.4,625.2,57.5,625.5,57.6L625.5,57.6z"/>
	<path d="M458,62.3l1.6,0.7l-0.8-1C458.5,62.2,458.2,62.2,458,62.3z"/>
	<path d="M476.6,55.6c0.2,0.3,0.3,0.5,0.3,0.5c0.2,0.3,0.5,0.5,0.9,0.5c0.1,0,4.5,0.4,7.8,4.3c0.6,0.7,1.6,3.4,2.8,6.7
		c7.8-4,16.8-19,16.8-19l-15.6,3L476.6,55.6z"/>
	<path d="M146.3,50.3l-15.7,5.4c-0.2,0-0.3-0.1-0.4-0.2c0.2,0.1,0.3,0.2,0.5,0.2c0.3,0.1,0.7,0,0.9-0.2c0-0.1,2.7-2.2,10.2,1.8
		c1.4,0.8,3,1.8,4.8,2.9c1.8,1.1,3.7,2.3,5.9,3.5C144.6,57.6,146.3,50.3,146.3,50.3z"/>
	<path d="M265.2,57.3c3.7-1.9,6.2-2.4,7.9-2.4l-13.6-4.7c0,0,1.8,7.3-6.2,13.4c0.3,0.1,0.5,0.1,0.8,0.2c2.3-1.3,4.4-2.5,6.2-3.7
		C262.2,59,263.8,58.1,265.2,57.3z"/>
	<path d="M275.6,56.1l-0.1-0.3l-1.6-0.5L274,55l-0.1,0.5C274.5,55.7,275,55.9,275.6,56.1z"/>
	<path d="M477.8,56.6c-0.4,0-0.7-0.2-0.9-0.5c0,0-0.1-0.2-0.3-0.5c-4.9,1.7-9.6,3.3-14.2,5L477,77.5c3.2-3.6,6.9-7,11.4-9.9
		c-1.2-3.3-2.2-6-2.8-6.7C482.3,57,477.9,56.6,477.8,56.6z"/>
	<path d="M141.8,57.3c-7.5-4-10.2-1.9-10.2-1.8c-0.2,0.2-0.6,0.3-0.9,0.2c-0.2,0-0.3-0.1-0.5-0.2l0.1,0.3c-2.7,0.9-5.3,1.8-7.9,2.8
		l14.2,16.6c4.3-4.3,9.4-8.2,15.8-11.4c-2.2-1.2-4.1-2.4-5.9-3.5C144.8,59.1,143.2,58.1,141.8,57.3z"/>
	<path d="M275.6,56.1c-0.6-0.2-1.1-0.4-1.7-0.6L274,55c-0.1,0-0.3,0-0.5,0c-0.1,0-0.3,0-0.5,0c-1.6,0-4.2,0.5-7.9,2.4
		c-1.4,0.8-3,1.7-4.8,2.9s-3.9,2.4-6.2,3.7c-0.3,0.1-0.5,0.3-0.8,0.4c6.6,3.6,11.9,7.9,16.2,12.6l15.1-17.5
		C281.7,58.2,278.7,57.2,275.6,56.1z"/>
	<path d="M635.5,61.3L635.5,61.3c-0.1,0-0.1-0.1-0.2-0.1c-1-0.4-1.9-0.7-2.9-1.1c-0.1,0-0.2-0.1-0.3-0.1c-1-0.4-2.1-0.8-3.1-1.1
		c-0.1,0-0.1,0-0.2-0.1c-1.1-0.4-2.2-0.8-3.3-1.2c-0.3-0.1-0.7-0.2-1-0.4c-0.5-0.2-1.1-0.4-1.6-0.6h-0.1c-1.5,0.3-4.4,1.3-6.9,4.1
		c-0.7,0.9-2,4.5-3.5,8.6c-0.4,1.3-0.9,2.6-1.4,4c0.5,0.4,0.9,0.9,1.4,1.3c2.3,2.3,4.3,4.7,6.1,7.1l17.4-20.2L635.5,61.3z"/>
</g>
</svg>
