<?xml version="1.0" encoding="utf-8"?>
<!-- Generator: Adobe Illustrator 25.3.0, SVG Export Plug-In . SVG Version: 6.00 Build 0)  -->
<svg version="1.1" id="Layer_1" xmlns="http://www.w3.org/2000/svg" xmlns:xlink="http://www.w3.org/1999/xlink" x="0px" y="0px"
	 viewBox="0 0 750.2000122 400.1000061" style="enable-background:new 0 0 750.2000122 400.1000061;" xml:space="preserve">
<g>
	<path d="M181.0265503,105.4490051h-68.621582c-0.1107788,3.241333-0.1596069,6.3196411-0.2050171,9.4508667
		c-0.0998535,3.2001953-0.0998535,6.6000977-0.1999512,10.1000977c-0.3999023,11.7001953-2.3000488,17.8000488-3.8999023,20.8000488
		c-0.9001465,1.8000488-2,3.1999512-3.2000732,4l-0.1091919,1.5755005h76.8155518
		C182.4844971,138.447052,182.9057007,121.4251404,181.0265503,105.4490051z"/>
	<path d="M220.7390137,105.4490051h-32.5821533c2.5169678,16.0800781,2.8395386,33.0400391,2.5358276,45.9265137h27.4974976
		C217.8887939,138.4911804,218.2155151,121.5342712,220.7390137,105.4490051z"/>
	<path d="M227.2735596,151.3755188h72.8205566L300,149.9999695c-1.1999512-0.8999023-2.1999512-2.1999512-3.1999512-4
		c-1.5-3-3.4000244-9.1000977-3.9000244-20.8000488c-0.0999756-3.5998535-0.2000732-6.8999023-0.2000732-10.0998535
		c-0.0458984-3.2181396-0.0950317-6.3590698-0.2090454-9.651062h-64.6410522
		C225.9714355,121.4236145,226.3953247,138.4477844,227.2735596,151.3755188z"/>
</g>
</svg>
