<?xml version="1.0" encoding="utf-8"?>
<!-- Generator: Adobe Illustrator 25.3.0, SVG Export Plug-In . SVG Version: 6.00 Build 0)  -->
<svg version="1.1" id="Layer_1" xmlns="http://www.w3.org/2000/svg" xmlns:xlink="http://www.w3.org/1999/xlink" x="0px" y="0px"
	 viewBox="0 0 750.2 400.1" style="enable-background:new 0 0 750.2 400.1;" xml:space="preserve">
<g>
	<path d="M170.4,95.1v-2.8l3.6-3.5c8.7-8.3,12.6-12.7,12.7-17.8c0-3.5-1.7-6.7-6.8-6.7c-3.1,0-5.7,1.6-7.2,2.9l-1.5-3.3
		c2.4-2,5.7-3.5,9.6-3.5c7.3,0,10.4,5,10.4,9.9c0,6.3-4.6,11.4-11.7,18.3l-2.7,2.5v0.1h15.3v3.8H170.4z"/>
	<path d="M219.4,61v3l-14.8,31h-4.8L214.6,65v-0.1h-16.7V61H219.4z"/>
</g>
</svg>
