<?xml version="1.0" encoding="utf-8"?>
<!-- Generator: Adobe Illustrator 25.3.0, SVG Export Plug-In . SVG Version: 6.00 Build 0)  -->
<svg version="1.1" id="Layer_1" xmlns="http://www.w3.org/2000/svg" xmlns:xlink="http://www.w3.org/1999/xlink" x="0px" y="0px"
	 viewBox="0 0 750.2000122 400.1000061" style="enable-background:new 0 0 750.2000122 400.1000061;" xml:space="preserve">
<g>
	<path d="M218.1390991,148.7177277c-0.1776123-11.3342285,0.1690063-25.3361206,1.9865723-39.0285034h-31.3572388
		c1.812439,13.689209,2.1555176,27.6925659,1.975769,39.0285034H218.1390991z"/>
	<path d="M227.104248,148.7177277h71.5586548c-0.6484985-0.7446899-1.2584839-1.6298828-1.862854-2.7177734
		c-1.5-3-3.4000244-9.1000977-3.9000244-20.8000488c-0.0999756-3.5998535-0.2000732-6.8999023-0.2000732-10.0998535
		c-0.0258789-1.8156128-0.0524902-3.6054077-0.0906372-5.4108276h-65.2034302
		C226.149231,123.3089752,226.4207764,137.350235,227.104248,148.7177277z"/>
	<path d="M181.4708862,109.6892242h-69.1836548c-0.0365601,1.7444458-0.0620117,3.4682007-0.0872803,5.2106323
		c-0.0998535,3.2001953-0.0998535,6.6000977-0.1999512,10.1000977c-0.3999023,11.7001953-2.3000488,17.8000488-3.8999023,20.8000488
		c-0.5834961,1.166748-1.257019,2.1416016-1.9812012,2.9177246h75.6577759
		C182.4598999,137.3503571,182.7279053,123.3083649,181.4708862,109.6892242z"/>
</g>
</svg>
