<?xml version="1.0" encoding="utf-8"?>
<!-- Generator: Adobe Illustrator 25.3.0, SVG Export Plug-In . SVG Version: 6.00 Build 0)  -->
<svg version="1.1" id="Layer_1" xmlns="http://www.w3.org/2000/svg" xmlns:xlink="http://www.w3.org/1999/xlink" x="0px" y="0px"
	 viewBox="0 0 750.20001 400.10001" style="enable-background:new 0 0 750.20001 400.10001;" xml:space="preserve">
<path d="M188.53418,172.29935c0.64307-6.69385,7.57324-85.60358-19.4541-109.43066
	c-1.21387-1.54443-2.37988-2.30566-3.50146-2.26367c-0.99463,0.01709-1.77881,0.62891-2.19922,1.04639
	c12.64551,9.03271,19.36963,30.396,19.98975,63.51514c0.4248,22.67529-2.32373,43.45312-2.84033,47.13281H188.53418z"/>
<path d="M245.50146,61.6514c-0.42041-0.41748-1.20459-1.0293-2.19971-1.04639c-0.01416-0.00049-0.02881-0.00049-0.04346-0.00049
	c-1.11719,0-2.2583,0.73877-3.39355,2.19629c-27.08887,23.89209-20.16162,102.80469-19.51807,109.49854h8.00537
	c-0.5166-3.67969-3.26514-24.45752-2.84033-47.13281C226.13184,92.04739,232.85596,70.68411,245.50146,61.6514z"/>
</svg>
