<?xml version="1.0" encoding="utf-8"?>
<!-- Generator: Adobe Illustrator 25.3.0, SVG Export Plug-In . SVG Version: 6.00 Build 0)  -->
<svg version="1.1" id="Layer_1" xmlns="http://www.w3.org/2000/svg" xmlns:xlink="http://www.w3.org/1999/xlink" x="0px" y="0px"
	 viewBox="0 0 750.20001 400.10001" style="enable-background:new 0 0 750.20001 400.10001;" xml:space="preserve">
<path d="M262.5,27.30008c-4.09998-0.40021-33.80005-3.30005-59.5-3.30005c-23.59998,0-51,1.80005-58.80005,2.39984
	c3.1001,8.20026,9.80005,15.70026,17.70007,22.60016c20.59998-3,57.79993-5.60016,82.29993,0.89984
	C252.19995,42.89987,259.1001,35.50003,262.5,27.30008z"/>
<path d="M519,46.30008c8.79999-0.10016,18.09998,0,27.20001,0.09979c11.40002,0.10016,22.20001,0.30005,31.90002,0
	c14.90002-0.39984,27.79999-5.89984,32.09998-13.69989c2.09998-3.80011,2-8-0.29999-12.09985
	c-7.90002-5.5-96.29999-6.5-118.59998,0.19995c-0.79999,0.8999-3.60004,4.80005-2.60004,11.19995
	C489.29999,36.39987,501.79999,46.50003,519,46.30008z"/>
</svg>
