<?xml version="1.0" encoding="utf-8"?>
<!-- Generator: Adobe Illustrator 25.3.0, SVG Export Plug-In . SVG Version: 6.00 Build 0)  -->
<svg version="1.1" id="Layer_1" xmlns="http://www.w3.org/2000/svg" xmlns:xlink="http://www.w3.org/1999/xlink" x="0px" y="0px"
	 viewBox="0 0 750.2 400.1" style="enable-background:new 0 0 750.2 400.1;" xml:space="preserve">
<g>
	<path d="M166.2,225.8h-27.8v0.7h28.7C167,226.1,166.7,225.8,166.2,225.8z"/>
	<path d="M166.2,217.3h-27.8v5.8h27.9c0.5,0,0.9-0.4,0.9-0.8v-0.4h36.5c0.4,0,0.7-0.3,0.7-0.6V221h36v0.3c0,0.3,0.3,0.6,0.7,0.6H266
		v-3.4h-24.9c-0.4,0-0.7,0.3-0.7,0.6v0.5h-36v-0.5c0-0.3-0.3-0.6-0.7-0.6h-36.5v-0.4C167.1,217.7,166.7,217.3,166.2,217.3z"/>
	<path d="M166.1,208.8h-27.7v5.8h27.7c0.5,0,0.9-0.4,0.9-0.8v-0.4h36.5c0.4,0,0.7-0.3,0.7-0.6v-0.3h36v0.3c0,0.3,0.3,0.6,0.7,0.6
		H266V210h-25.1c-0.4,0-0.7,0.3-0.7,0.6v0.5h-36v-0.5c0-0.3-0.3-0.6-0.7-0.6H167v-0.4C167,209.2,166.6,208.8,166.1,208.8z"/>
	<path d="M170.8,201.8h-32.4v3.4h32.4c0.4,0,0.7-0.3,0.7-0.6v-0.3h32.1v0.3c0,0.3,0.3,0.6,0.7,0.6h34.4v0.4
		c-0.1,0.4,0.3,0.8,0.8,0.8H266v-5.8h-26.4c-0.5,0-0.9,0.4-0.9,0.8v0.4h-34.4c-0.4,0-0.7,0.3-0.7,0.6v0.5h-32.1v-0.5
		C171.5,202.1,171.2,201.8,170.8,201.8z"/>
	<path d="M170.8,193.3h-32.4v3.4h32.5c0.4,0,0.7-0.3,0.7-0.6v-0.3h32.1v0.3c0,0.3,0.3,0.6,0.7,0.6h34.4v0.4
		c-0.2,0.5,0.2,0.8,0.7,0.8H266v-5.8h-26.4c-0.5,0-0.9,0.4-0.9,0.8v0.4h-34.4c-0.4,0-0.7,0.3-0.7,0.6v0.5h-32.1v-0.5
		C171.5,193.6,171.2,193.3,170.8,193.3z"/>
	<path d="M170.8,184.8h-32.4v3.4h32.1c0.4,0,0.7-0.3,0.7-0.6v-0.3h32.1v0.3c0,0.3,0.3,0.6,0.7,0.6h34.4v0.4c0,0.4,0.4,0.8,0.9,0.8
		H266v-5.8h-26.4c-0.5,0-0.9,0.4-0.9,0.8v0.4h-34.4c-0.4,0-0.7,0.3-0.7,0.6v0.5h-32.1v-0.5C171.5,185.1,171.2,184.8,170.8,184.8z"/>
	<path d="M170.8,176.4h-32.4v3.3h32.2c0.4,0,0.7-0.3,0.7-0.6v-0.3h32.1v0.3c0,0.3,0.3,0.6,0.7,0.6h34.4v0.4c0,0.4,0.4,0.8,0.9,0.8
		H266v-5.8h-26.4c-0.5,0-0.9,0.4-0.9,0.8v0.4h-34.4c-0.4,0-0.7,0.3-0.7,0.6v0.5h-32.1V177C171.5,176.7,171.2,176.4,170.8,176.4z"/>
	<path d="M138.4,171.3h32.3c0.4,0,0.7-0.3,0.7-0.6v-0.3H203v0.3c0,0.3,0.3,0.6,0.7,0.6h34.9v0.4c0,0.4,0.4,0.8,0.9,0.8H266v-2.6
		H138.4V171.3z"/>
</g>
</svg>
