<?xml version="1.0" encoding="utf-8"?>
<!-- Generator: Adobe Illustrator 25.3.0, SVG Export Plug-In . SVG Version: 6.00 Build 0)  -->
<svg version="1.1" id="Layer_1" xmlns="http://www.w3.org/2000/svg" xmlns:xlink="http://www.w3.org/1999/xlink" x="0px" y="0px"
	 viewBox="0 0 750.2 400.1" style="enable-background:new 0 0 750.2 400.1;" xml:space="preserve">
<path d="M262.4,338.5l-0.3,0.3c0.5,0,1.1-0.1,1.6-0.1L262.4,338.5z"/>
<path d="M286.1,325.6c-0.7-6.9-1.3-14.2-1.7-21.9l-33.1-6.6l-19.5,20.6l-34.7-6.9l-19.5,20.6l-34.7-6.9L130.5,338
	c4.7,0.3,10,0.7,15.9,1l5.1-5.4l23.5,4.6l-1.8,1.9c5.3,0.2,10.9,0.3,16.6,0.3l0.1-0.1l0.5,0.1c1.6,0,3.2,0,4.8,0c1,0,2.6,0,4.8,0
	l3.5,0l2.1,0c2.2,0,3.8,0,4.8,0c7.2,0,14.3-0.2,21-0.3l12.8-13.6l34.7,6.9L286.1,325.6z M216,338.4l-23.5-4.6l13.1-14l23.5,4.6
	L216,338.4z M246.7,320l13.2-14l23.5,4.6l-13.2,14L246.7,320z"/>
<path d="M269.7,298.3l13.9-13.9c-0.3-8.7-0.4-17.7-0.5-26.6l-13.1,13.2l-32.4-7l-19,19.1l-32.4-7l-19,19.1l-32.4-7l-13.7,13.8
	c-0.6,10.6-1.4,20.6-2.4,29.6l15.9-16l32.4,7l19-19.1l32.4,7l19-19.1L269.7,298.3z M155.2,314.2l-21.9-4.7l12.9-12.9l21.9,4.7
	L155.2,314.2z M206.7,302l-21.9-4.7l12.9-12.9l21.9,4.7L206.7,302z M236.2,285.2l12.9-12.9L271,277l-12.9,12.9L236.2,285.2z"/>
<path d="M163.2,284l18.6-17.6l30.1,7.2l18.6-17.6l30.1,7.2l18.6-17.6l3.8,0.9c0-1.5,0-2.9,0-4.4l-8.6-2l8.7-8.2c0-3,0.1-6,0.2-8.9
	l-10.9-2.6l-18.6,17.6l-30.1-7.2l-18.6,17.6l-30.1-7.2l-18.6,17.6l-30.1-7.2l-4.1,3.9c-0.1,10.9-0.3,21.8-0.6,32.3l11.5-10.9
	L163.2,284z M238.3,238.5l20.4,4.8l-12.6,11.9l-20.4-4.8L238.3,238.5z M189.5,249l20.4,4.8l-12.6,11.9l-20.4-4.8L189.5,249z
	 M140.8,259.4l20.4,4.8l-12.6,11.9l-20.4-4.8L140.8,259.4z"/>
<path d="M159.6,245.5l18.1-16.1l27.9,7.3l18.1-16.1l27.9,7.3l18.1-16.1l13.7,3.6c0.1-2.3,0.1-4.6,0.2-6.9l-3.6,3.2l-18.8-4.9
	l12.3-10.9l10.5,2.8c0-1.1,0.1-2.1,0.1-3.2l-0.4,0.3l-27.9-7.3l-18.1,16.1l-27.9-7.3l-18.1,16.1l-27.9-7.3l-18.1,16.1l-24-6.3
	c0.3,9.9,0.4,20.2,0.4,30.7l9.5-8.4L159.6,245.5z M227.5,204.8l18.8,4.9L234,220.6l-18.8-4.9L227.5,204.8z M181.5,213.6l18.8,4.9
	L188,229.4l-18.8-4.9L181.5,213.6z M135.4,222.4l18.8,4.9L142,238.2l-18.8-4.9L135.4,222.4z"/>
<path d="M265,164.5l-25.6-7.4l-17.7,14.6l-25.6-7.4l-17.7,14.6l-25.6-7.4l-17.7,14.6l-14.8-4.3c0.2,3.6,0.4,7.3,0.6,11.3l9.2-7.5
	l17.3,5l-12,9.8L121,196c0.2,3.5,0.3,7.2,0.4,10.9l8.9-7.3L156,207l17.7-14.6l25.6,7.4l17.7-14.6l25.6,7.4l17.7-14.6l24.4,7.1
	c0.3-5.5,0.6-10.6,1-15.3c0.6-7.5,1.2-13.6,1.9-18.7l-4.8-1.4L265,164.5z M178.7,193l-17.3-5l12-9.8l17.3,5L178.7,193z M222,185.9
	l-17.3-5l12-9.8l17.3,5L222,185.9z M265.3,178.8l-17.3-5l12-9.8l17.3,5L265.3,178.8z"/>
<polygon points="204.7,138.2 182.3,130.9 166.2,143.1 181.1,147.9 170.6,155.8 193,163.1 209,150.9 194.2,146.1 "/>
<polygon points="245.2,132.7 222.9,125.5 206.8,137.6 221.6,142.4 211.2,150.3 233.5,157.6 249.6,145.5 234.8,140.6 "/>
<polygon points="209,150.9 210,151.2 211.2,150.3 210.2,150 "/>
<polygon points="164.1,143.7 141.7,136.4 125.7,148.5 140.5,153.3 130,161.2 152.4,168.5 168.4,156.4 153.6,151.6 "/>
<polygon points="285.8,127.3 286.8,127.6 288,126.7 287,126.4 "/>
<path d="M247.4,132.1l14.8,4.8l-10.5,7.9l22.4,7.3l15-11.4c0.1-0.4,0.1-0.7,0.2-1l-14-4.6l10.5-7.9l-22.4-7.3L247.4,132.1z"/>
<polygon points="249.6,145.5 250.5,145.8 251.7,144.9 250.8,144.5 "/>
<polygon points="168.4,156.4 169.4,156.7 170.6,155.8 169.6,155.5 "/>
<path d="M117.9,153.3l5.6-4.2l-6.4-2.1C117.4,149,117.7,151,117.9,153.3z"/>
<path d="M119.4,168.2l8.5-6.4l-9.3-3C118.9,161.7,119.1,164.8,119.4,168.2z"/>
<polygon points="127.9,161.9 128.8,162.2 130,161.2 129.1,160.9 "/>
<polygon points="166.2,143.1 165.3,142.8 164.1,143.7 165,144 "/>
<path d="M293.1,128.3L293.1,128.3c0.1,0,0.1,0,0.1,0L293.1,128.3z"/>
<polygon points="206.8,137.6 205.9,137.3 204.7,138.2 205.6,138.5 "/>
<polygon points="123.5,149.1 124.5,149.4 125.7,148.5 124.7,148.2 "/>
<polygon points="247.4,132.1 246.4,131.8 245.2,132.7 246.2,133 "/>
<path d="M293.1,128.3c0-0.2-0.1-2.1-0.3-5.3l-4.8,3.7L293.1,128.3z"/>
<path d="M265.2,97.8l-21-7.7l-16.8,11.5l-21-7.7l-16.8,11.5l-21-7.7l-16.8,11.5l-21-7.7L113.8,113l-1.5-0.6
	c-0.1,1.3-0.2,2.5-0.3,3.7l7.3-5l14.2,5.2l-11.4,7.8l-10.5-3.8c-0.2,4-0.4,6.8-0.4,7.7l0.8,0.6c0.4,0.6,1,1.6,1.6,3.3l14-9.6l21,7.7
	l16.8-11.5l21,7.7l16.8-11.5l21,7.7l16.8-11.5l21,7.7l16.8-11.5l12.9,4.7c-0.5-6.6-1.2-14.5-2.2-22.7l-7.8-2.9L265.2,97.8z
	 M160.1,120.4l-14.2-5.2l11.4-7.8l14.2,5.2L160.1,120.4z M197.9,116.6l-14.2-5.2l11.4-7.8l14.2,5.2L197.9,116.6z M235.8,112.7
	l-14.2-5.2l11.4-7.8l14.2,5.2L235.8,112.7z M273.6,108.9l-14.2-5.2l11.4-7.8l14.2,5.2L273.6,108.9z"/>
<path d="M226.8,78.4c-5.7,2.5-13.6,4.5-13.7,4.6l-0.5,0.1l0-0.1c-1.6,0.4-3.3,0.7-4.9,1l7.8,3.3l16.4-10l18.8,7.9l16.4-10l18.8,7.9
	l3-1.8c-0.4-2.4-0.7-4.8-1.2-7.2l-9-3.8l7.4-4.5c-0.3-1.2-0.5-2.4-0.8-3.6l-6.3,3.8L260.1,58l-16.4,10l-1.6-0.7
	C237.4,72.2,231.3,76.4,226.8,78.4z M254.6,65.5l12.7,5.3l-11.1,6.8l-12.7-5.3L254.6,65.5z"/>
<path d="M126.7,79.4l-11.1,6.8l-0.6-0.3c-0.2,1.7-0.4,3.5-0.6,5.2l12.1-7.4l18.8,7.9l16.4-10l18.8,7.9l10.3-6.3
	c-1-0.2-2.6-0.7-4.6-1.3l-0.1,0.1l-1.7-0.7c-1.1-0.4-2.4-0.9-3.6-1.5l-7.4-3.1l1.1-0.7c-2.8-1.9-5.8-4.4-8.7-6.9l-10.9-4.6l-16.4,10
	l-18.8-7.9l-1.6,1c-0.5,2.5-1,5-1.4,7.6L126.7,79.4z M149.1,71.9l12.7,5.3L150.7,84l-12.7-5.3L149.1,71.9z"/>
<polygon points="141.6,53 141.8,52.9 141.5,53 "/>
<path d="M538.5,353.9l-35.4,6.4c7.1,1.7,14.8,3.2,22.9,4.2l6.9-1.3l1.9,2.1c4.1,0.3,8.2,0.5,12.5,0.5c0.6,0,1.3,0,1.9,0L538.5,353.9
	z"/>
<path d="M481.6,338.5l-18.6,3.4c-0.2,1.5-0.4,3-0.6,4.4c1.3,0.6,3.5,1.6,6.4,2.9l7.2-1.3l5.6,6.2c5.5,1.9,11.9,3.9,19.1,5.7
	L481.6,338.5z"/>
<path d="M632,345.7c-0.1-0.8-0.2-1.7-0.3-2.6l-11.2,2.2L601,324.7l-34.7,6.9l-19.5-20.6l-34.7,6.9l-19.5-20.6l-26.8,5.3
	c-0.1,2.4-0.2,4.9-0.3,7.2l18.6-3.7l13.2,14l-23.5,4.6l-8.6-9.1c-0.4,5.8-0.8,11.3-1.3,16.6l1.3,1.4l34.7-6.9l19.5,20.6l34.7-6.9
	l19.5,20.6l34.7-6.9l1.1,1.1C623.4,350.5,631.8,345.8,632,345.7L632,345.7z M528,338.4l-13.1-14l23.5-4.6l13.1,14L528,338.4z
	 M582.2,352.2l-13.2-14l23.5-4.6l13.2,14L582.2,352.2z"/>
<path d="M558.2,303.4l19,19.1l32.4-7l19,19.1l2-0.4c-0.6-6-1.1-12.4-1.5-19l-1.8-1.8l1.7-0.4c-0.1-1.9-0.2-3.8-0.3-5.8l-0.3,0.1
	l-19-19.1l-32.4,7L558,276l-32.4,7l-19-19.1l-32.4,7l-7.2-7.3c-0.1,8.9-0.2,17.9-0.5,26.6l8,8l32.4-7l19,19.1L558.2,303.4z
	 M597.9,296.5l12.9,12.9l-21.9,4.7L576,301.2L597.9,296.5z M485.9,289.9L473.1,277l21.9-4.7l12.9,12.9L485.9,289.9z M546.4,284.4
	l12.9,12.9l-21.9,4.7l-12.9-12.9L546.4,284.4z"/>
<path d="M513.6,256l18.6,17.6l30.1-7.2l18.6,17.6l30.1-7.2l17.2,16.3c-0.3-10.6-0.5-21.5-0.6-32.3l-9.8-9.3l-30.1,7.2l-18.6-17.6
	l-30.1,7.2l-18.6-17.6l-30.1,7.2l-18.6-17.6l-5.1,1.2c0.1,5.2,0.2,10.5,0.3,15.9l2.8,2.7l-2.8,0.7c0,2.3,0,4.5,0.1,6.8l16.5,15.6
	L513.6,256z M603.2,259.4l12.6,11.9l-20.4,4.8l-12.6-11.9L603.2,259.4z M554.5,249l12.6,11.9l-20.4,4.8l-12.6-11.9L554.5,249z
	 M505.8,238.5l12.6,11.9l-20.4,4.8l-12.6-11.9L505.8,238.5z"/>
<path d="M626.2,215l-27.9,7.3l-18.1-16.1l-27.9,7.3l-18.1-16.1l-27.9,7.3l-18.1-16.1l-22.5,5.9c0,0.9,0.1,1.8,0.1,2.7l4.8-1.3
	l12.3,10.9l-16.6,4.3c0,0.9,0.1,1.8,0.1,2.7l8-2.1l18.1,16.1l27.9-7.3l18.1,16.1l27.9-7.3l18.1,16.1l27.9-7.3l15.3,13.6
	c0-12.1,0.2-24,0.5-35L626.2,215z M510,220.6l-12.3-10.9l18.8-4.9l12.3,10.9L510,220.6z M556,229.4l-12.3-10.9l18.8-4.9l12.3,10.9
	L556,229.4z M602,238.2l-12.3-10.9l18.8-4.9l12.3,10.9L602,238.2z"/>
<path d="M591.2,171.3l-25.6,7.4l-17.7-14.6l-25.6,7.4l-17.7-14.6l-25.6,7.4l-16.8-13.8c0.7,5.2,1.4,11.5,1.9,19.3
	c0.3,4,0.6,8.5,0.9,13.6l18.7-5.4l17.7,14.6l25.6-7.4l17.7,14.6l25.6-7.4L588,207l25.6-7.4l14.6,12c0.4-11.9,0.8-22.8,1.4-31.8
	l-20.7,6L591.2,171.3z M478.7,178.8l-12-9.8l17.3-5l12,9.8L478.7,178.8z M522,185.9l-12-9.8l17.3-5l12,9.8L522,185.9z M565.3,193
	l-12-9.8l17.3-5l12,9.8L565.3,193z M625.9,195.1l-17.3,5l-12-9.8l17.3-5L625.9,195.1z"/>
<path d="M616.2,161.9l14,10.5c0.1-0.8,0.1-1.6,0.2-2.4c0.8-10.9,1.8-19,2.8-25l-12.5,4.1L631,157L616.2,161.9z"/>
<polygon points="494.4,145.5 510.5,157.6 532.9,150.3 522.4,142.4 537.2,137.6 521.2,125.5 498.8,132.7 509.3,140.6 "/>
<polygon points="614,161.2 615.2,162.2 616.2,161.9 615,160.9 "/>
<polygon points="575.6,156.4 591.6,168.5 614,161.2 603.6,153.3 618.4,148.5 602.3,136.4 579.9,143.7 590.4,151.6 "/>
<polygon points="498.8,132.7 497.6,131.8 496.7,132.1 497.9,133 "/>
<path d="M460.1,138c0.5,2.1,1,4.7,1.5,7.9l8.3,6.3l22.4-7.3l-10.5-7.9l14.8-4.8L480.6,120l-22.4,7.3l10.5,7.9L460.1,138z"/>
<polygon points="573.4,155.8 574.7,156.7 575.6,156.4 574.4,155.5 "/>
<path d="M457.3,127.6l0.9-0.3l-1.2-0.9l-0.6,0.2c0,0.1,0,0.2,0,0.3L457.3,127.6z"/>
<polygon points="532.9,150.3 534.1,151.2 535,150.9 533.8,150 "/>
<polygon points="535,150.9 551.1,163.1 573.4,155.8 563,147.9 577.8,143.1 561.7,130.9 539.4,138.2 549.8,146.1 "/>
<polygon points="539.4,138.2 538.2,137.3 537.2,137.6 538.4,138.5 "/>
<polygon points="492.3,144.9 493.5,145.8 494.4,145.5 493.2,144.5 "/>
<polygon points="579.9,143.7 578.7,142.8 577.8,143.1 579,144 "/>
<polygon points="620.5,149.1 619.3,148.2 618.4,148.5 619.6,149.4 "/>
<path d="M464.8,107.1l16.8,11.5l21-7.7l16.8,11.5l21-7.7l16.8,11.5l21-7.7l16.8,11.5l21-7.7l16.8,11.5l2.7-1
	c0.8-2.5,1.6-3.8,2.1-4.5l-0.3,0c0-0.2-0.1-7.2-0.9-17.7l-6.5,2.4l-16.8-11.5l-21,7.7l-16.8-11.5l-21,7.7l-16.8-11.5l-21,7.7
	l-16.8-11.5l-21,7.7L462,86.3l-2.3,0.9c-1.1,8.3-1.9,16.1-2.4,22.7L464.8,107.1z M624.7,111.2l11.4,7.8l-14.2,5.2l-11.4-7.8
	L624.7,111.2z M586.8,107.4l11.4,7.8l-14.2,5.2l-11.4-7.8L586.8,107.4z M549,103.5l11.4,7.8l-14.2,5.2l-11.4-7.8L549,103.5z
	 M511.1,99.7l11.4,7.8l-14.2,5.2l-11.4-7.8L511.1,99.7z M473.2,95.9l11.4,7.8l-14.2,5.2l-11.4-7.8L473.2,95.9z"/>
<path d="M465.4,70.1l-3.2,1.4c-0.7,3.5-1.3,7.1-1.8,10.6l16.7-7l16.4,10l18.8-7.9l16.4,10l18.8-7.9l16.4,10l18.8-7.9l16.4,10
	l18.8-7.9l16.4,10l1.1-0.5c-0.4-3-0.8-6.1-1.2-9.3l-5.4,2.3l-11.1-6.8l12.7-5.3l2.5,1.5c-0.3-1.5-0.5-3.1-0.8-4.6l-7.2-4.4
	l-18.8,7.9l-16.4-10l-18.8,7.9l-16.4-10l-18.8,7.9l-16.4-10L500.3,68l-16.4-10l-18.8,7.9l-1.6-1c-0.3,1.2-0.5,2.4-0.8,3.6
	L465.4,70.1z M594.9,71.9l11.1,6.8L593.3,84l-11.1-6.8L594.9,71.9z M559.8,69.8l11.1,6.8l-12.7,5.3l-11.1-6.8L559.8,69.8z
	 M524.6,67.7l11.1,6.8L523,79.7L511.9,73L524.6,67.7z M489.5,65.5l11.1,6.8l-12.7,5.3l-11.1-6.8L489.5,65.5z"/>
<polygon points="604.8,51.9 594.8,48.9 602.4,53 "/>
<path d="M549.2,46.4c-1.2,0-2.3,0-3.5,0c-2.5,0-5,0-7.4,0.1l-0.5,0.3l-0.4-0.2c-3.3,0.1-6.6,0.1-9.8,0.2l10,5.3L549.2,46.4z"/>
<path d="M514,47.3c-4.3,0.2-8,0.5-10.6,0.6l-3.2,1l5,2.7L514,47.3z"/>
<path d="M570,52.5l10.5-5.1c-2.9-0.2-6.3-0.3-9.9-0.5l-0.5,0.2l-0.5-0.3c-3.4-0.1-7.1-0.3-10.9-0.4L570,52.5z"/>
</svg>
