<?xml version="1.0" encoding="utf-8"?>
<!-- Generator: Adobe Illustrator 25.3.0, SVG Export Plug-In . SVG Version: 6.00 Build 0)  -->
<svg version="1.1" id="Layer_1" xmlns="http://www.w3.org/2000/svg" xmlns:xlink="http://www.w3.org/1999/xlink" x="0px" y="0px"
	 viewBox="0 0 750.2 400.1" style="enable-background:new 0 0 750.2 400.1;" xml:space="preserve">
<g>
	<path d="M293,127.2c-0.2-0.2-0.4-0.3-0.7-0.5c-5.5-3.7-11.2-4.4-17.1-1.7c-2.7,1.2-5.2,0.1-7.7-0.8c-4-1.5-7.6-4-11.1-6.4
		c-2.2-1.5-4.6-2.8-6.9-4.1c-2.8-1.5-5.5-1.4-8.3,0c-1.6,0.8-3.2,1.4-5,1.1c-2.3-0.4-4.1-2.8-3.9-5.2c0-0.7,0.4-1.2,0.8-1.7
		c0.3-0.3,0.7-0.5,1-0.7c2.9-1.7,2.9-4.1,0-6c-0.8-0.6-1.7-0.9-2.7-1.2c-2.5-0.6-5-0.7-7.6-0.7c-0.9,0-1.8,0-2.5,0.9
		c1.8,1,2.9,2.8,2.5,4c-0.3,1-2.1,1.5-4,1.2c-0.9-0.1-1.8-0.4-2.5-1c-1.7,1.8-3.9,2.4-6.3,2.5c-1.9,0-3.8,0.2-5.8,0.3
		c-1.5,0.1-2.7,0.8-3.9,1.6c-0.9,0.6-1.8,1.3-2.8,1.6c-0.3,0.1-0.7,0.2-1-0.1c-0.3-0.4-0.2-0.8,0-1.2c0.5-1.2,1.5-1.8,2.6-2.1
		c1.9-0.5,3.7-1.3,5.5-2.3c1.5-0.8,3.1-0.6,4.6-0.6c0.6,0,1.6,0.3,1.8-0.7c0.2-1.1-0.6-1.7-1.5-1.9c-2.2-0.7-4.4-0.5-6.6-0.7
		c-2.3-0.3-4.7-0.4-6.7-1.7c-0.8-0.5-1.5-1.1-1.9-2c-0.3-0.6-0.4-1.3,0.1-1.8c0.5-0.6,1.1-0.4,1.7-0.1c4,2.6,8.6,3,13.1,3.6
		c0,0,0.1,0,0.2,0c-1.4-2.3-3.5-3.9-5.2-6c-2.4-2.9-5.3-5.3-8.2-7.6c-0.7-0.5-1.4-1-2.2-1.4c-0.9-0.2-1.8-0.3-2.7-0.6l0,0.1
		l-0.5-0.1c0,0-0.4-0.1-0.9-0.2c-0.9,0.4-1.5,1.2-2,2.7c-1.1,3.3-3.1,4.3-6.2,3.1c-1.5-0.6-2.9-1.6-4.2-2.5
		c-1.1-0.7-2.1-1.5-3.3-2.1c-2.2-1.3-4.5-1.6-6.9-0.7c-2.9,1.1-5.8,2.1-8.7,3.1c-1.8,0.6-3.7,0.9-5.5,1.1c-2.7,0.2-4.9-0.7-6.5-3.1
		c-2.3-3.3-5.6-4.6-9.2-5c-2.2-0.3-4.4-0.2-6.5,0.2c-1.4,0.3-2.6,0-3.7-1.2c-1.5-1.6-3.3-2.6-5.6-2.4c-0.9,0.1-1.9-0.2-2.9-0.3
		c-1-0.2-1.8-0.8-2-2c-0.1-0.6-0.3-1-0.5-1.4c-0.9,4.9-1.6,10-2.3,15c1.5-0.4,3-0.9,4.5-1.4c3.6-1.1,7.1-1.6,10.8-0.4
		c2.1-0.5,4.1-1,6.2-1.4c2.6-0.5,4.6,0.7,6.3,2.6c0.5,0.5,0.9,1.2,0.4,1.9c-0.4,0.7-1.1,0.6-1.7,0.5c-1.6-0.3-3.1-1-4.7-0.2
		c2.3,1.6,4.6,2.7,7.4,2.3c0.8-0.1,1.6,0,2.4,0.3c0.9,0.3,1.5,1,1.4,2.1c0,1.1-0.8,1.4-1.6,1.6c-1.7,0.5-3.4,0.5-5.1,0.8
		c-1.1,0.1-2.5,0.1-2.8,1.5c-0.4,1.5,0.9,2.2,1.8,2.8c3.2,2.1,6.5,3,10.1,1.5c0.8-0.4,1.7-0.6,2.7-0.5c0.9,0.1,1.5-0.3,1.9-1.3
		c1-3,3-4.3,5.9-3.2c3.8,1.4,6.9,3.9,8.1,8.4c0.1,0.5,0.4,1,0.6,1.5c1.5,0.9,3,1.7,4.5,2.7c1.4,0.9,2.8,1,4.3,0.9
		c0.3-0.3,0.6-0.6,0.8-1c1.7-2.8,3.7-2.9,6.6-1.7c1.5,0.6,1.7,2.1,1.6,3.5c-0.2,4.5,1.7,7.8,4.8,10.6c0.8-1.1,1.8-1.3,3-1.3
		c4.1,0,7.8,1.6,11.3,3.6c6.9,3.9,14.1,6.7,21.8,7.8c0.3,0,0.5,0,0.8,0.1c4.9,1.7,9.9,1.5,14.9,0.3c3.1-0.8,6.2-0.3,9.2,0.4
		c3.5,0.9,7,1.7,10.5,2.6c1.9,0.5,3.8,1,5.6,2.1c0.5,0.3,1,0.6,1.4,0.9c1.3,1.1,2.7,2.4,2.4,4.4c-0.3,1.9-2,2.4-3.6,2.9
		c-0.8,0.3-1.7,0.3-2.4,0.9c0,0.2,0,0.4,0,0.6c0.1,0.1,0.1,0.2,0,0.3c-0.1,2.1-0.6,4-1.6,5.7c-0.8,1.3-1.8,2.3-3.3,2.7
		c-2.2,0.5-2.8,0.1-3.3-2.1c-0.9-3.9-2.9-5.4-7.6-5.9c-3.4-0.4-6.8-0.1-10.1-0.9c-0.3-0.1-0.6-0.1-0.9-0.3
		c-3.8-1.9-7.9-3.1-12.1-3.5c-0.8-0.1-1.6-0.6-2.4-0.9c-0.8-0.7-1.6-1.3-2.3-2.2c-2.4-3.2-5.7-5-9.2-6.3c-0.7-0.3-1.5-0.8-2.1,0.1
		c-0.5,0.8,0.1,1.5,0.6,2.1c0.8,0.9,1.7,1.9,2.5,2.8c0.1,0.1,0.2,0.3,0.2,0.4l0.1,0c2.7,2.2,5.7,4.2,6.8,8.1
		c0.4,1.2,1.5,1.6,2.6,1.7c0.9,0.1,1.8-0.1,2.7,0.2c1.4,0.5,1.6,1.2,0.5,2.3c-0.3,0.3-0.6,0.6-0.9,0.9c-1,0.9-1.8,0.8-2.6-0.3
		c-0.9-1.3-2.1-1.6-3.5-2c-1.9-0.5-3.6-1.4-5.7-0.7c-0.6,0.2-1.3-0.3-2-0.7c-4.9-3.5-9.9-6.9-14.3-11.1c-2.1-2-4.4-1.7-6.8-0.7
		c-0.4,0.2-0.8,0.5-0.8,1.1c0.1,0.5,0.5,0.7,0.9,0.8c0.6,0.2,1.3,0.3,2,0.3c1.3-0.2,2.5,0.2,3.4,1.4c4.1,1.9,7,5.4,9.9,8.9
		c0.1,0.1,0.2,0.2,0.3,0.2c0.1,0,0.2,0.1,0.3,0.1c0.2,0.2,0.5,0.4,0.7,0.6l0,0c1.8,1.8,3.6,3.4,6.2,3.8c0.7,0.1,1.8,0.6,1.5,1.4
		c-0.3,0.9-1.2,0-1.8-0.2c-2.1-1.1-4.3-2-6-3.8c-1.6-0.5-2.8-1.7-4.2-2.6c-0.8-0.5-1.7-1.2-2.4-0.2c-0.7,1,0,2,0.8,2.6
		c1.4,1,2.4,2.3,3.5,3.5c2.9,3,6.4,4.9,10.4,5c3.4,0.1,6.9-0.3,10.3-0.5c2.6-0.1,5.2-0.2,7.7-0.6c1.3-0.2,2.4,0.3,3.4,1.1
		c1.5,1.1,3.1,1.5,5,1.1c2.3-0.5,4.5,0,6.6,1.2c2,1.1,3,2.8,3.2,5.2c0,0.6,0.2,1.2,0.2,1.8c0.1,1.4,0.3,2.7,1.8,3.1
		c1.4,0.4,2.1-0.6,2.9-1.6c0,0,0-0.1,0.1-0.1c0,0,0.1,0,0.1,0c-0.1,0-0.1,0.1-0.2,0.1c-0.4,3.6-3.4,5.6-6.7,4.3
		c-1.8-0.7-3.4-1.7-5-2.8c-3.5-2.3-7.2-4.3-11-5.8c-1,1-2.2,1.1-3.4,0.6c-1.9-0.8-3.8-1-5.8-0.7c-1.1,0.2-2.3,0-3.2-0.8
		c-2.4-2-4.9-1.9-7.4-0.5c-3.1,1.8-6.2,1.7-9.4,0.4c-2.5-1-4.9-2.2-7.3-3.3c-2.7-1.2-4.4-3.6-5.9-6.2c-0.9-1.7-2.1-3-3.7-4
		c-1.5-0.8-2.5-2.3-2.9-4c-0.6-2.7-2.1-4-4.5-4.7c-2.6-0.8-5.2-1.8-7.7-2.9c-3.8-0.7-7.7-1.5-11.5-2.2c-0.8-0.2-1.4-0.6-1.6-1.6
		c-0.1-1,0.3-1.7,1-2.2c0.8-0.6,1.7-0.7,2.6-1c1.9-0.7,2.2-1.8,1.1-3.6c-0.9-1.4-2.1-2.3-3.6-2.8c-3.1-1.1-6.2-1.1-9.3-0.3
		c-1.4,0.4-2.2,1.3-2.1,2.9c0,0.7,0,1.4,0,2.1c0,0.8-0.3,1.4-0.8,1.8c-0.2,0.2-0.5,0.4-0.8,0.2c-0.4-0.2-0.3-0.5-0.2-0.8
		c0.1-0.4,0.1-0.9,0.1-1.3c0-1.5-0.9-2-2.1-1.4c-0.3,0.2-0.6,0.4-0.9,0.6c-0.6,0.4-1.1,0.6-1.2-0.5c-0.1-1.2-1.1-1.5-2-1.7
		c-2.7-0.8-5.5-1-8.3-1.1c-1.6-0.1-2.8-1-4.1-1.9c-0.5-0.3-0.6-1-0.7-1.6c-0.1-0.7,0.1-1,0.7-0.7c3.4,1.3,7,1,10.3,2.5
		c0.8,0.4,1.8,0.5,2.7,0.3c0.6-0.2,1.4-0.1,1.6-1c0.1-0.8-0.5-1.2-1-1.5c-1.2-0.9-2.5-1.7-3.8-2.5c-0.9-0.5-1.3-1-0.4-2.1
		c1-1.3,1.2-2.8,0.2-4.2c-0.5-0.7-0.4-1,0.3-1.4c0.8-0.5,1.3-1.2,1.1-2.3c-0.2-1.1-1-0.9-1.6-1.1c-1.9-0.5-3.6-1.5-5.3-2.4
		c-1.4-0.7-2.8-1.3-4.3-1.4c0.1,1.1,1,1.6,1.7,2.1c0.5,0.4,1.2,0.8,0.6,1.7c-0.6,0.7-1.3,1.2-2.1,0.5c-0.4-0.3-0.8-0.9-1-1.4
		c-1.3-2.4-5-4.2-7.6-3.5c-1.3,0.3-1.9,1.3-2.1,2.5c-0.2,1.2-0.3,2.5-0.5,3.7c-0.4,2.3-1.8,3-3.8,2.9c-1.2-0.1-2.2-0.3-3.2-0.8
		c-0.5,7.3-0.8,12.6-0.8,14c0,0.1,0.1,0.1,0.1,0.2l0.7,0.5c0.8,1.2,2,3.7,3.3,9.3c4.6,0.9,9,2.7,13.3,4.7c0.8,0.4,1.5,0.9,2.2,1.5
		c1.8,1.5,3.8,1.9,6,1.5c1.6-0.3,3.3-0.7,5-0.8c4.5-0.2,8,1.8,10.8,5.3c2.2,2.8,1.6,5.1-1.7,6.4c-1.7,0.6-3.4,0.2-5.1,0
		c-2.4,0.8-4.9,0.4-7.4,0.2c-1.7-0.1-3.3-0.7-5-0.2c-0.2,0.1-0.5,0.1-0.7,0.2c-0.9,0.4-2.1,0.9-1.9,2c0.2,1.3,1.5,0.9,2.3,0.8
		c2.5-0.4,5,0.1,7.3,1.2c6.8,3.1,13.7,5.6,20.7,8c2.4,0.8,4.9,1.6,7.4,1.3c0.7-0.1,1.5-0.1,1.8-0.7c0.5-1.5,1.5-1.1,2.5-1
		c3.1,0.5,6.2,0.8,9.2,0c2.5-0.7,4.3-2.2,5.1-5c0.8-2.8,1.5-3,4-1.7c4.6,2.4,9.3,4.6,14.5,5.2c2.1,0.2,4.3,0.3,6.4,0.5
		c3.7,0.3,6.1,3.2,6,7.2c-0.1,1.9-0.6,3.8-1.4,5.5c-1.6,3.2-4,4.2-7.3,3.2c-3.4-1-6.3-2.9-9.3-4.9c-4.1-2.7-8.5-3.9-13.1-2.3
		c-9.2,3.1-17.8,1.1-26.4-2.8c-3.8-1.7-7.4-3.7-11.1-5.7c0.9,5.8,4.2,9.2,9.2,11c5,1.8,10.1,2.9,15.4,2.3c1.7-0.2,3.3-0.1,5-0.1
		c0.7,0,1.3,0.2,1.7,0.9c0.4,0.8,0,1.4-0.5,1.9c-0.7,0.8-1.3,1.7-1.7,2.7c3.9,1.3,7.7,2.8,10.5,6.3c0.7,0.9,1.2,2,1.5,3.2
		c0.3,1.6-0.3,2.5-1.8,2.8c-1.3,0.2-2.6-0.2-3.9-0.5c-1.8-0.5-3.5-0.9-5.4-0.9c-2,0-3.2,1-3.4,2.9c-0.2,1.4,0.5,2.3,2.5,2.9
		c2,0.6,4.1,1,6.1,1.4c1.3,0.3,2.5,0.9,3.4,2c2.1,2.3,1.4,4.9-1.5,5.6c-1.8,0.5-3.6,0.4-5.5,0.2c-4-0.6-7.9-1.3-11.8-2
		c0-0.2,0-0.3,0-0.4c0.6-0.5,1.4-0.8,1.2-1.7c-0.2-1-1.1-1.2-1.9-1.3c-1-0.2-1.9,0.2-2.8,0.6c-1.4,0.6-2.7,0.5-3.7-0.6
		c-3.2-3.7-7.3-3.8-11.5-3.7c-1.1,0-2.2,0.1-3.3,0.4c-1.6,0.4-3,0.1-4.5-0.8c-4.4-2.7-9.3-4-14.2-5.4c-2.6-0.7-5.2-1.5-7.7-2.5
		c0.2,3.5,0.3,7.1,0.4,10.8c0.5,0.4,1.2,0.6,2.2,0.6c0.9-0.1,1.6,0.2,2.2,0.8c0.8,0.9,1.9,1.3,3.1,1c1.2-0.3,2.3,0,3.4,0.6
		c2.4,1.4,4.9,1.4,7.3,0c1.3-0.8,2.5-0.7,3.8,0c2.4,1.4,4.6,3,5,6.3c0.4,2.8,2.7,3.3,4.8,3.7c0.8,0.2,1.6,0.3,2.1,1.2
		c0.3,0.4,0.7,0.7,1.1,0.7c2.8,0.1,4.8,2,7.1,3.4c2.8,1.7,5.8,3.1,9.1,3.4c0.8-1.5,1.6-3,2.6-4.4c1.8-2.3,4.1-3.1,6.8-2.6
		c0.9,0.2,1.8,0.5,2.6,0.8c2,0.8,3.8,0.6,5.4-0.9c0.2-0.2,0.6-0.5,0.8-0.4c2,1,3-0.7,4.3-1.6c0.5-0.3,0.8-0.8,1.3-1.2
		c1.5-1.4,2.5-1.4,4.2-0.3c1.6,1.1,2.8,2.7,3.9,4.3c1.3,1.8,2.5,3.7,4.2,5.1c2.6,2.3,4.8,2.1,7-0.7c1-1.3,2-2.6,2.9-4
		c1.9-3,4.4-4,7.6-3.2c0.6,0.2,1.2,0.3,1.8,0.4c1,0,2-0.3,2.9-0.8c2.7-1.3,5.2-1.1,7.6,0.7c0.4,0.3,0.9,0.7,1.5,0.7
		c0.3-1.4,1.3-1.8,2.5-1.9c2.5-0.1,4.9,0.6,7.1,1.6c2.6,1.2,5.1,1,7.6-0.1c2.3-1.1,4.7-1.2,7.1-0.2c1.1,0.4,2,0.1,2.3-1.2
		c0.3-1.4-0.9-1.6-1.7-1.7c-1.2-0.1-2.3,0-3.5-0.2c-0.6-0.1-1.4-0.3-1.4-1c0-0.9,0.9-0.9,1.5-0.9c0.9,0.1,1.6-0.3,2-1.1
		c0.9-1.8,2.5-2.1,4.2-1.9c3.2,0.3,5.9,1.9,8.2,4.3c0.7,0.8,1.4,1.6,2,2.4c1.6,2.2,3.5,4.1,5.4,5.7c0.2-10.4,0.6-20.3,1-29.5
		c-2.3,0.3-4.6,1.7-6,3.8c-0.5,0.8-1,1.6-1.6,2.4c-0.3,0.4-0.8,1-1.4,0.6c-0.6-0.4-0.2-1-0.1-1.5c0.5-2,1-4.1,1.6-6.3
		c-1.2,0.5-2,0.4-2.3-1.2c-0.1-0.9-1-0.9-1.8-0.9c-0.9,0-1.8,0.2-2.7,0.1c-1.4-0.1-1.7-0.7-1-2c0.3-0.6,1.1-1.3,0.3-2
		c-0.7-0.6-1.5,0-2,0.6c-2.7,3.1-5.9,3-9.3,1.7c-0.8-0.3-1.5-0.6-2.3-0.8c-2.1-0.7-3.9-0.1-5.2,1.9c-0.8,1.2-1.7,2.2-3.3,1.8
		c-1.6-0.4-2.5-1.6-2.9-3.2c-0.9-3.6,0.8-7.6,3.9-9.6c3-1.9,6.3-2,9.6-1.4c3.8,0.7,7.4,0.4,10.9-1.4c5-2.5,10-2.9,15.3-1.1
		c0.4,0.1,0.8,0.3,1.1,0.4c0.1-1.9,0.2-3.7,0.4-5.4c0.3-3.8,0.6-7.3,0.9-10.4c-0.1,0-0.2,0-0.2,0c-2.9-0.5-5.9-1.1-8.9-0.7
		c-2.1,0.3-3.5,1.6-4.8,3.1c-0.8,0.9-1.3,0.8-2,0c-1-1-2-2-2.6-3.4c-1-2.2-0.7-4.1,1.2-5.6c2.5-2,5.4-2.6,8.4-3.1
		c2-0.3,3.9-0.4,5.9-0.6c1.1-0.1,2.6,0.3,4.2,0.9c2.1-15.5,4.4-20.4,5.6-21.9l-0.2,0C293,128.3,293,127.9,293,127.2z"/>
	<path d="M154.6,51.6c-0.9,0-1.9-0.2-2.7-0.9c-0.2-0.2-0.5-0.4-0.7-0.6l-5.5,1.6c2.9,1.1,5.9,1.7,9,2.1
		C154.7,53,154.6,52.3,154.6,51.6z"/>
	<path d="M151.7,78.9c1.9-0.6,3.7-1.1,5.6-1.5c0.6-0.1,1.2-0.3,1.7,0.2c2.3,2.6,5.5,3.2,8.5,3.9c4.3,1,8.5,0.1,12.5-1.7
		c0.2-0.1,0.4-0.2,0.5-0.2c-0.8-0.4-1.6-0.8-2.4-1.2c-2.8-1.6-6.3-4.2-9.8-7.1c-2.6,0.7-5.2,0.4-7.7-0.9c-1.9-1-3.7-2.3-5.5-3.4
		c-3.5-2.1-5.3-2-8.5,0.6c-2.1,1.8-4.1,3.6-6.7,4.3c0,0.1,0,0.1,0,0.2C141.7,79,145.1,81,151.7,78.9z"/>
	<path d="M239.9,75.1c2.3-0.2,4.6-0.5,7-0.4c1.4,0.1,2.7,0.4,3.9,1.2c1.1,0.7,1.6,1.8,1.3,3.2c-0.3,1-0.6,2.1-0.9,3.1
		c-0.5,1.7,0,2.6,1.6,2.9c0.6,0.1,1.2,0.2,1.8,0.1c2.6-0.4,4.9,0.5,7,2.1c1.5,1.1,3,2.2,4.5,3.3c2.9,2.1,6.1,3.3,9.6,3.1
		c4.9-0.2,9.5,0.7,13.9,2.8c0.4,0.2,0.7,0.3,1.1,0.5c-0.9-8.8-2.2-18.3-3.8-27c-1.9-0.8-3.9-1.2-6-0.6c-0.9,0.2-1.8,0.5-2.5,1.1
		c-1.4,1.1-2.4,0.8-3.2-0.7c-0.2-0.4-0.5-0.7-0.7-1c-3.1,0.2-5.4-1.5-7.6-3.5c-4-3.5-7.3-7.7-11-11.5c-1.7-1.8-3.7-3.3-5.6-4.8
		c0.1,2.7-0.5,8.6-4.1,13.7c-3.1,4.4-7.8,8.6-12.3,11.7C235.7,74.8,237.8,75.3,239.9,75.1z"/>
	<path d="M272,102.3c-2.5-2-5.1-4-7.2-6.5c-1.5-1.9-3.4-2.7-5.7-2.5c-0.4,0-0.7,0-1.1,0.1c-3.6,0.9-7,0.9-10.1-1.8
		c-1-0.9-2.5-0.9-3.8-1.2c3.5,9,10.2,13.7,18.7,15.8c2,0.5,4.2,0.2,6.2,0.1c2.1-0.1,4,0.4,5.8,1.7c1.6,1.2,3.4,1.9,5.3,2.3
		c0.8,0.1,1.5,0.5,2.1,0.9c1,0.6,2,1,3.2,1.1c0.8,0,1.5,0.2,2.1,0.8c1.4,1.2,3,1.6,4.7,1.5c-0.1-1.9-0.3-4-0.5-6.2
		C284.6,109.2,278.1,107.1,272,102.3z"/>
	<path d="M266.4,314.1c2.3,4.3,5.6,6.5,11.7,4c2.1-0.8,4.1-1.8,5.8-3.5c-0.9-0.7-1.8-1.4-2.7-2.1c-1.3-1-2.7-1.7-4.3-2.1
		c-1.5-0.3-2.6-0.1-3.5,1.5c-0.8,1.4-2,1.6-3.4,0.4c-1.8-1.6-3.9-2.7-6.2-3.4c-1.5-0.4-2.9-0.6-4.2,0.4c-0.7,0.6-1.4,0.3-1.9-0.2
		c-0.6-0.6-1.2-1.3-1.7-2c-1-1.3-2.1-2.3-3.8-2.5c-1.3-0.2-2.1-1.1-2.5-2.4c-0.6-2.2-2.4-3.6-3.1-5.7c-0.3-1-1.6-1.3-2.5-1.6
		c-3.6-0.9-7-2.1-10.7-2.6c-3.7-0.5-6.4-2.8-8.6-5.9c-0.2-0.2-0.3-0.5-0.4-0.7c-2.4-3.7-3.7-3.9-6.7-0.7c-1,1.1-2.1,2-3.6,2.3
		c-0.8,0.2-1.6,0.7-1.9,1.5c-0.6,2.2-2,3.6-3.8,4.6c-2.4,3.1-4.3,3.6-7.8,2.2c-1.1-0.5-2.2-1.1-3.2-1.8c-1.3-0.9-2.7-1.6-4.3-1.8
		c-0.3,0-0.8,0-1-0.3c-2.3-1.9-4.8-1.2-7.2-0.9c-0.4,0.1-0.8,0.1-1.1,0.5c-0.9,1.2-2,1-3,0.5c-2.3-1.2-4.6-1.4-7-0.1
		c-0.6,0.3-1.3,0.5-1.9,0c-2.3-1.8-4.7-1.4-7.1-0.4c-0.5,0.2-1,0.4-1.4,0.5c-0.8,0.1-1.4-0.3-1.8-1c-0.4-0.7,0.1-1.2,0.6-1.7
		c0.7-0.7,1.6-1.1,2.5-1.5c0.2-0.5,0-1.1,0-1.6c0-2.1,0.7-3.8,2.5-4.9c1.1-0.6,2.2-1.2,3.2-1.9c1.6-1.1,1.7-2.5,0.4-3.9
		c-0.4-0.5-0.9-0.9-1.4-1.2c-2.3-1.2-4.4-2.6-6.4-4.5c-0.9-0.9-2.1-0.9-3.3-1c-2.1,0-4.2,0.3-6.2-0.5c-1.1-0.4-1.8-1.1-2.3-2.2
		c-1-2.6-2.6-4.3-5.5-4.4c-3-0.1-5.6-1.3-8-3.2c-4.3-0.9-8.3-2.7-12.5-4.1c-1-0.3-2.1-0.4-3.2-0.4c0,5.1-0.1,10.3-0.2,15.4
		c3.9-0.9,8-0.3,12,0.3c1.4,0.2,2.8,0.6,4.2,0.7c1.7,0,2.7,0.9,3.6,2.3c0.4,0.7,0.9,1.3,1.6,1.7c2.5,1.4,5,2.9,6.4,5.8
		c1.2,0.9,2.7,1.3,3.7,2.5c0.6,0.7,1.3,1.4,1,2.4c-0.3,1.1-1.2,1.2-2.1,1.3c-2.4,0.3-4.6,0-6.8-1.2c-0.9-0.5-1.8-1.1-2.7-1.6
		c-1.5-0.2-2.9-0.6-4.4-0.4c-1.5,0.2-2.6,1.3-2.8,3c-0.2,1.5,0.9,2.1,1.9,2.6c2.2,0.9,4.5,1.2,6.8,1.7c1.6,0.4,2.9,1.3,3.9,2.7
		c1.3,2,0.6,4.1-1.6,4.7c-3.4,0.9-6.9,0.4-10.3-0.3c-2.6-0.5-5.1-1.3-7.8-1.3c-0.7,0-1.2-0.5-1.7-1c-1.7-1.5-3.4-3.1-5.6-3.7
		c-0.2,4-0.4,7.9-0.6,11.8c2.6,0.5,5,1.6,6.7,4.5c1.4,2.4,3.9,2.4,6.3,2.4c0.6-1.1,1.7-1.7,2.6-2.5c0.6-0.5,1.1-0.1,1.7-0.1
		c0.7,0.1,1.7,0.8,1.7-0.9c0-0.5,0.6-0.3,0.9-0.3c1.5,0.2,2.8,0.8,4,1.9c1.6,1.5,2.7,3.4,4,5.1c1.3,1.7,2.5,3.4,4.3,4.6
		c1.9,1.3,3.6,1.2,5.3-0.4c1.1-1,1.9-2.2,2.7-3.3c0.6-0.9,1.3-1.8,1.9-2.8c1.7-2.4,4-3.2,6.7-2.7c2.7,0.5,5.3,1.2,7.7,2.4
		c2.7,1.3,5.1,1,7.3-1.2c1.9-1.9,4.3-2,6.6-1.6c4,0.7,8.1,0.8,12.1,1.4c3.4,0.5,6.7,1.5,9.9,2.7c7.5,2.8,14.9,2.2,22.3,0
		c5.1-1.6,10.2-3.3,15.7-2.8c3.4,0.3,6.8,0.6,10.2,0.9C263.6,310.8,265.3,311.9,266.4,314.1z"/>
	<path d="M123.3,311.7c0.2-0.6,0.8-0.3,1.2-0.1c0.5,0.2,0.9,0.1,1.2-0.3c0.3-0.5,0.1-0.9-0.1-1.4c-1-1.7-2.9-2.2-4.3-3.3
		c-0.2-0.2-0.4-0.3-0.6-0.4c-0.1,2.2-0.3,4.3-0.4,6.4C121.4,313.1,122.5,313.5,123.3,311.7z"/>
	<path d="M124.6,290.7c2-0.1,2.9,1.5,4,2.8c0.3,0.4,0.6,0.7,1,0.9c0.8,0.5,1.8,0.8,2.4,0.1c0.5-0.7-0.4-1.3-0.9-1.8
		c-2.9-2.9-5.8-5.8-9.5-7c0,1.2-0.1,2.4-0.1,3.7c0.1,0,0.3-0.1,0.4,0c0.6,0.1,1.2,0.3,1.7,0.7C123.9,290.3,124.3,290.8,124.6,290.7z
		"/>
	<path d="M193.1,330.5c-0.7-0.4-1.3-0.8-1.8-1.5c-1.2-1.5-1-3.5,0.6-4.7c1.2-0.9,2.6-1,3.9-1.1c2.1-0.2,4.2-0.3,6.2-0.5
		c2.5-0.2,4-1.6,4.3-4.4c-3.9-0.3-7.6-1.8-11.5-2c-3.7-0.2-7.6-0.3-10.3,3.4c-1.3,1.8-2.9,2-4.8,1.2c-0.6-0.3-1.3-0.5-1.9-0.6
		c-1.5-0.2-2.6,0.7-2.6,2.4c0,1.1,0.1,2.2,0.2,3.3c0.3,3.2-0.7,4.8-3.6,5.5c-2,0.5-3.9,0.3-5.9,0.2c-1,0-2-0.2-2.9,0.1
		c-2,0.8-3.9,0.3-5.7-0.6c-2.9-1.4-5.7-2.9-8.9-3.3c-1.7-0.3-2.8-1.7-3.6-3.2c-0.7-1.4-1.4-2.9-2.2-4.3c-1.4-2.4-3.4-2.4-4.9,0
		c-0.5,0.8-0.9,1.7-1.2,2.6c-0.6,1.6-1.1,3.1-1.8,4.7c-2,5.1-4.8,7-9.9,6.4c-2.3-0.3-4.5-0.3-6.7-0.1c-0.1,0.9-0.2,1.9-0.4,2.8
		c9.3,0.8,25.9,2.1,46.3,2.9c-0.1-0.5-0.4-0.9-0.8-1.2c-0.7-0.4-1.5-0.7-2.2-1.1c-0.9-0.4-1.6-1-1.5-2.2c0-1.2,1-1.6,1.8-1.9
		c1.5-0.6,2.9-0.2,4.2,0.8c2.6,1.9,5.1,3.7,8.1,4.7c0.7,0.2,1.3,0.7,1.8,1.2c5.3,0.1,10.8,0.2,16.4,0.3c0.7-0.4,1.5-0.6,2.3-0.9
		c2.3-0.8,3-2.3,2.3-4.8C195.8,332.9,194.7,331.4,193.1,330.5z"/>
	<path d="M223.2,333c-3-1.1-6.1-0.9-9.2-1c-3.8,0-7.6,0.2-11.3,1.3c-2.1,0.6-3.6,1.9-4.4,4.1c-0.4,1-0.8,2.1-1.3,3c0.8,0,1.8,0,3,0
		l3.5,0l2.1,0c2.2,0,3.8,0,4.8,0c5.8,0,11.4-0.1,16.8-0.2c0.6-1,0.7-2.2,0.2-3.5C226.5,334.8,225.1,333.7,223.2,333z"/>
	<path d="M281.8,271.7c-1.3-0.5-2.6-1-3.8-1.6c-0.8-0.3-1.5-0.6-2.4-0.6c-1.1,0.1-1.6,1-1,2c0.2,0.4,0.5,0.7,0.7,1
		c2.6,2.7,5,5.4,8.1,7.5c-0.1-3.1-0.2-6.1-0.2-9.2c0,0.1,0,0.2-0.1,0.3C282.8,271.8,282.4,271.9,281.8,271.7z"/>
	<path d="M275.4,245.1c-1.2-0.1-2.3-0.6-3.3-1.1c-1.5-0.6-3-0.7-4.5-0.2c-1,0.4-1.3,1-0.4,1.9c0.4,0.4,1.1,0.8,0.7,1.6
		c-0.4,0.7-1.1,0.7-1.8,0.7c-1.4-0.1-2.3-0.9-3.2-2c-1.8-2.4-2.5-2.5-5.2-1.2c-3.3,1.6-6.7,3.1-10,4.7c-2.3,2.4-3.6,5.4-4.7,8.6
		c-1.8,4.8-4.5,6.4-9.3,5.6c-1.7-0.3-3.4-0.8-5-1.8c-1.6,1.3-3.3,1.3-5,0.5c-4.2-1.8-8.6-2.7-13.1-3.4c-2.5-0.4-5.1-0.9-7.7-0.2
		c-0.7,0.2-1.3,0.5-1.3,1.5c0.1,1.6,1.7,3.1,3.2,2.6c1.6-0.5,3.3-0.7,4.9-0.9c2.3-0.2,4.2,0.5,5.7,2.4c1.2,1.6,2.8,2.5,4.8,2.3
		c1.5-0.2,2.5,0.6,3.1,2c0.8,1.9,2.4,3.1,3.7,4.4c1.1,1.2,1.9,2.6,2.4,4.1c1.4,0.9,2.7,0.7,3.9-0.5c0.8-0.8,1.7-0.9,2.5,0
		c1,1.1,2.4,1.3,3.6,2.1c-2.1,0-4.1-0.4-6.1,0.1c-0.4,0.1-0.9,0.2-1.3,0.3c-0.9,0.3-1.5,0.9-1.6,2c-0.1,1,0.7,1.5,1.5,1.9
		c2.4,1.1,4.9,1.4,7.4,1.4c2.5,0,5-0.1,7.5-0.1c1.1,0,2.2,0.1,3.3,0.4c3.3,1,6.6,1.8,10,1.9c1.6,0.1,2.9,0.9,3.5,2.5
		c1.2,3.6,3.8,5,7,5.4c3.2,0.5,6.3,1.6,9.5,2c0.9,0.1,1.8,0.1,2.7,0.2c0.5,0.1,0.9,0.2,1.4,0.3c-0.1-3-0.3-6.1-0.4-9.2
		c-2.5-0.9-4.9-1.6-7.3-2.6c-2.4-1-4.5-2.8-6.6-4.3c-1.9-1.3-3.7-2.7-5.8-3.6c-2.7-1.2-4-0.6-5.2,2.2c-0.9,2.1-1.9,3-3.8,2.2
		c-3.9-1.5-8-1.6-11.9-2.4c-0.2,0-0.4-0.1-0.7-0.3c1.8-1.3,1.8-2.9,0.2-4.1c-0.7-0.5-1.5-0.9-2.2-1.5c-1.9-1.7-1.7-3.8,0.4-5.1
		c0.8-0.5,1.7-0.9,2.6-1.2c2.2-0.8,4.2-1.9,5.9-3.8c1.6-1.8,3.8-2,6-1.6c2.8,0.5,5.3,1.8,7.9,3c2.1,1,4.3,2,6.7,0.7
		c1-0.5,2.1-0.1,2.9,0.6c2.4,2,5.3,2.6,8.2,3.1c0.5,0.1,1.1,0.3,1.6,0.6c0.3,0.2,0.6,0.4,0.7,0.7c-0.1-8-0.2-16.1-0.2-24.1
		C280.5,246,278,245.4,275.4,245.1z"/>
	<path d="M284.5,323c-0.5,1.2-1.3,2.1-2.5,2.3c-0.8,0.2-1.6,0.6-2.3,1.2c-2.5,2.5-6.3,1.8-8-1.4c-1.4-2.8-4-4.3-6.7-3.6
		c-2.5,0.6-5,1.3-7.6,1.2c-1.6-0.1-2.6,2.2-1.6,3.4c1.7,2,3.5,4,5.9,5.1c1,0.5,2.1,0.7,3.3,0.3c5.2-1.8,10.3-1.1,15.4,0.8
		c2.5,1,4.9,2.2,7.1,3.7c-0.6-4.8-1.2-9.9-1.7-15.3C285.1,321.5,284.8,322.3,284.5,323z"/>
	<path d="M284.5,59.4c0-0.1-0.1-0.2-0.1-0.3l-1.5-0.5c0.1,0,0.2,0.1,0.3,0.1C283.6,59,284,59.2,284.5,59.4z"/>
	<path d="M278.3,57.7c0.5-0.1,0.9-0.1,1.4,0l-6.5-1.9C274.6,57.1,276.4,57.9,278.3,57.7z"/>
	<path d="M263.9,54.9c2,1.7,4,3.3,6.2,4.7c-0.4-2.1-1-4.2-2.8-5.2c-0.5-0.3-1-0.5-1.4-0.8l-3.6-1C262.6,53.4,263.1,54.3,263.9,54.9z
		"/>
	<path d="M233.8,320.7c-2.4-0.6-4.8-1.2-7.3-1.6c-4.7-0.8-9.4-0.5-14.1-0.5c-0.3,0.2-0.9-0.1-1,0.5c0,0.5,0.4,0.7,0.8,0.9
		c2.8,1.7,5.7,2.2,8.7,0.8c2.6-1.1,5.2-1,7.9-0.1c2.5,0.9,5,2.1,7.8,2.1C235.9,321.7,235,320.9,233.8,320.7z"/>
	<path d="M182,242.2c4.5,3.1,9.3,5.1,14.8,4.3c3.5-0.5,6.9-2,10.4-2.2c2.1-0.1,4.3-1.1,6.3,0.1c2.2,1.3,4.7,1.8,7,2.6
		c0.6,0.2,1.6,0.1,1.5,1.2c-0.1,1.1-1,1.3-1.8,1.2c-1.7-0.1-3.3-0.7-4.7-1.6c-2.8-1.8-7.9-1.4-10.5,0.8c-0.7,0.6-1.4,1.3-0.4,2.2
		c1.2-0.2,2.3-0.1,3.5,0.1c6.6,1.6,12.9,0,19.2-2.1c2.8-1,5.5-2.2,7.9-4.1c0-0.5,0-1.1,0.3-1.6c1.5-2.5,3.4-4.6,6.1-5.5
		c1.2-0.4,2.2-0.4,3.3,0.4c2.1,1.6,4.4,1.6,6.6,0.3c1.9-1.1,3.9-1.4,6-0.9c7.7,1.6,15.5,1.7,23.3,1.8c0.5,0,1-0.2,1.5-0.3
		c-2.5-1.5-5-3-7.9-3.7c-1.9-0.5-2.9-2.3-3.5-4.2c-0.4-1.2-0.6-2.4-0.9-3.6c-0.3,0.1-0.6,0-0.8,0.3c-1.6,1.9-3.8,2.5-6.1,2.7
		c-0.6,0.2-1.2,0.2-1.9,0.2c-1.4,0-2.9,0-4.1-0.9c-1.4,0.7-2.6,0.5-3.9-0.4c-1.7-1.2-3.7-2.1-5.6-2.8c-0.5-0.2-1.1-0.3-1.6,0
		c-0.3,0.3-0.6,0.6-0.9,0.9c-2.2,2.8-4.8,4.1-8.3,3.4c-4.4-0.9-7.9,0.7-10.7,4.5c-1.1,1.5-2.4,2.8-3.9,3.9c-1.7,1.3-3.5,1.9-5.6,1.6
		c-1.2,1-2.7,1.2-4.2,1.1c-1.3-0.1-2.6-0.2-3.9-0.6c-3.8-1.1-7.6-1.4-11.5-0.7C192.1,241.6,187.1,242.6,182,242.2z"/>
	<path d="M131.3,235.1c0.4-0.2,0.7-0.4,1.1-0.6c1-0.7,1.3-1.6,0.8-2.8c-0.7-1.6-1.9-2.6-3.3-3.2c-2.6-1.2-5.2-1.3-7.9-1
		c0.1,7.2,0.2,14.5,0.2,21.9c0.2,0.1,0.5,0.2,0.7,0.2c5.7,1.7,11.7,2,17.6,2.7c0.6,0,1.2,0.1,1.8,0c4.9-0.5,6.3-2.6,6.2-7.7
		c0-2.7-1.3-3.9-3.8-4.1c-2.2-0.2-4.3,0.2-6.5,0.5c-2,0.3-4,0.7-6.1,0.2c-1.6-0.4-2.7-1.6-2.8-3.2
		C129.2,236.4,130.2,235.7,131.3,235.1z"/>
	<path d="M176.4,252.7c-1.8-2-3.6-1.8-5.5,0.2c-2.3,2.5-4.5,5.1-6.7,7.7c3.2,2.2,6.3,2.3,9.4-0.3c0.6-0.5,1.3-1,2.1-1.4
		c1.5-0.8,2.2-0.3,2.3,1.4c0,0.7,0,1.4,0,2.1c0,0.5-0.1,1,0.4,1.3c0.5,0.3,0.9-0.1,1.2-0.4c1.5-1.5,3.3-1.9,5.2-1.8
		c1.8,0.1,3.5,0.2,5.3,0.3c0.7,0,1.4,0.2,2.1-0.3C186.6,259.2,180.7,257.6,176.4,252.7z"/>
	<path d="M181.8,242.2c0.1,0.1,0.1,0.1,0.2,0c0,0-0.1,0-0.1,0L181.8,242.2z"/>
	<path d="M140.4,188.1c1.3,0.3,2.5,0.2,3.8,0c1.8-0.2,3-1.2,3.5-3.1c0.5-1.9-0.2-3.4-1.5-4.6c-1.4-1.2-3-1.9-4.8-1.8
		c-3.4,0.1-6.5,1.5-9.4,3.2C134.7,184,137.4,186.3,140.4,188.1z"/>
	<path d="M133.7,165.1c2.3,0.7,4.5,0.3,6.4-1.3C137.8,163.5,135.7,163.9,133.7,165.1z"/>
	<path d="M141.3,106.8c0.4-1.2-1-1.4-1.8-1.7c-1.4-0.7-3.1-0.9-4-2.4c-0.9-0.2-1.8-0.4-2.7-0.4c-0.8,0-1.8-0.3-2.1,0.9
		c2.7,1.3,5.4,2.6,8.2,3.9C139.7,107.3,140.9,108,141.3,106.8z"/>
	<path d="M201.4,232c-0.7-1.3-1.4-2.5-2.4-3.5c-1.5-1.4-2.9-1.2-4.1,0.5c-0.7,1-1.1,2-1.4,3.2C195.5,233.7,200,233.5,201.4,232z"/>
	<path d="M195.8,271.9c-5.8-0.8-11.5-0.3-17.2,1.1c-2.9,0.7-5.3,2.7-4.5,7.2c3-1.2,6-2.2,9.2-1.2c2.5,0.8,4.8,2.1,7.2,3.1
		c0.8,0,1.6,0,2.4,0c2.3,0,4.6,0.3,6.8-0.3c1.7-0.4,3-2.1,2.7-3.4C201.9,276,198.2,272.2,195.8,271.9z"/>
	<path d="M288.7,74.1c1.5,0,2.1-0.9,1.4-2.1c-0.2-0.3-0.4-0.6-0.6-0.9c-0.4-0.6-0.7-1.1,0.5-1.2c1.2-0.1,1.5-1.1,1.8-2
		c0.6-2.1,0.9-4.2,1.1-6.3l-7.4-2.2C286.7,63.9,287.8,68.9,288.7,74.1C288.7,74.1,288.7,74.1,288.7,74.1z"/>
	<path d="M335.8,113.7c-3.4-1.1-4.4-3.1-3.2-6.2c0.6-1.5,1.7-2.9,2.6-4.2c0.8-1.1,1.5-2.1,2.2-3.3c1.3-2.2,1.7-4.5,0.7-6.9
		c-1.1-2.9-2.2-5.8-3.2-8.7c-0.6-1.8-0.9-3.7-1.1-5.5c-0.2-1.9,0.3-3.5,1.4-4.8l-6.2-1.8c-0.4,0.4-0.9,0.6-1.6,0.6
		c-1.1,0-1.4-0.8-1.7-1.6l-7.2-2.1c-0.5,2-0.5,4,0.4,6.1c0.4,0.8,0.6,1.7,0.5,2.7c-0.1,0.9,0.3,1.5,1.3,1.9c3.1,1,4.4,3,3.3,5.9
		c-1.5,3.8-4.1,6.9-8.7,8.1c-0.5,0.1-1,0.4-1.6,0.6c-0.9,1.5-1.7,3-2.7,4.5c-0.9,1.4-1,2.8-1,4.3c0.3,0.3,0.6,0.6,1,0.8
		c2.9,1.7,3,3.7,1.7,6.6c-0.7,1.5-2.1,1.7-3.7,1.6c-4.6-0.2-8.1,1.7-10.9,4.8c1.1,0.8,1.4,1.8,1.3,3c0,3-0.9,5.7-2.1,8.4l16.1,3.2
		c0-0.4,0-0.7-0.1-1.1c-0.1-1.5-0.8-2.7-1.7-3.9c-0.7-0.9-1.3-1.8-1.6-2.8c-0.1-0.3-0.2-0.7,0.1-1c0.4-0.3,0.9-0.2,1.3,0
		c1.2,0.5,1.8,1.5,2.1,2.6c0.6,1.9,1.4,3.7,2.4,5.5c0.3,0.4,0.4,0.9,0.5,1.4l3.4,0.7c0.1-1.3,0.1-2.5,0.3-3.8
		c0.3-2.3,0.4-4.7,1.8-6.7c0.5-0.8,1.1-1.5,2.1-1.9c0.7-0.3,1.3-0.4,1.9,0.1c0.6,0.5,0.4,1.1,0.1,1.7c-2.3,3.5-2.9,7.4-3.5,11.3
		l1.9,0.4c1.4-1.2,2.6-2.4,4-3.6c3-2.4,5.5-5.3,7.8-8.2c0.9-1.1,1.6-2.2,2.1-3.5C339.4,116,338.6,114.6,335.8,113.7z"/>
	<path d="M301.6,64.9c1.2,0.9,2.6,1.1,4,0.4l-9.9-2.9c-0.2,1.2-0.6,2.3-1.1,3.4c-0.4,0.8-0.6,1.8-0.3,2.7c0.2,0.6,0.1,1.4,1,1.6
		c0.8,0.1,1.2-0.5,1.6-1c0.9-1.2,1.8-2.5,2.6-3.8C300.1,64.5,300.5,64.1,301.6,64.9z"/>
	<path d="M290.8,75.9c-0.6,0-1.3,0-1.9,0c0.8,4.8,1.5,9.8,2.1,14.7c1.3-0.9,2-2,2.5-3.4c1.1-3.1,1.1-6.2,0.3-9.3
		C293.5,76.5,292.5,75.8,290.8,75.9z"/>
	<path d="M309.6,66.5l-1.8-0.5C308.2,66.4,308.8,66.6,309.6,66.5z"/>
	<path d="M361,95.6c-1.1,0.9-2.4,1.5-3.9,1.7c-2.9,0.4-5.1-0.7-6-3.3c-1-2.9-0.8-5.7,0.7-8.4c1-1.9,2.3-3.7,3.5-5.5c0,0,0,0,0-0.1
		l-12.4-3.7c0,0.1,0.1,0.2,0.1,0.3c0.6,1.9,1.1,3.7,1.5,5.6c0.1,0.6,0.4,1.2-0.2,1.7c-2.7,2.3-3.3,5.5-4.1,8.5
		c-1,4.3-0.1,8.5,1.8,12.5c1.5,3.3,3.1,6.5,3.7,10.1c1.1,1.8,1.5,3.9,2,5.9c0.2,0.7-0.2,1.3-0.6,1.9c-2,3.5-3.2,7.3-4.9,11
		c-0.1,0.3-0.1,0.6-0.2,0.9c1.1,0.9,2,2,2.7,3.1l9,1.8l10.3-46.7C363.1,93.8,362.1,94.7,361,95.6z"/>
	<path d="M344.3,118.2c-2.9,1-4.9,2.8-6.1,5.3c-0.8,1.8-0.4,2.6,1.5,3.5c0.5,0.2,1,0.6,1.5,1C342.2,124.7,343.3,121.5,344.3,118.2
		C344.3,118.2,344.3,118.2,344.3,118.2z"/>
	<path d="M117.1,61.5c0.1-0.5,0.2-0.9,0.3-1.4l-10.8,3.2c-0.2,0.6-0.6,1.5,1,1.5c0.5,0,0.4,0.6,0.3,0.9c-0.2,1.5-0.8,2.8-2,4
		c-1.6,1.6-3.5,2.7-5.3,4c-1.8,1.3-3.5,2.5-4.8,4.3c-1.4,1.9-1.2,3.6,0.4,5.3c1,1.1,2.2,1.9,3.5,2.7c1,0.6,1.9,1.3,2.9,1.9
		c2.5,1.7,3.3,4,2.8,6.7c-0.5,2.7-1.3,5.3-2.5,7.7c-1.3,2.7-1,5.1,1.2,7.3c1.9,1.9,2.1,4.3,1.7,6.6c-0.7,4-0.9,8.1-1.4,12.1
		c0,0.2-0.1,0.5-0.1,0.7l6.1-1.2c0.2-4.5,1.6-34.1,6.1-57.5C116,67.3,116.5,64.4,117.1,61.5z"/>
	<path d="M62,101.8c2.1-2.9,2.3-5.9,0.2-8.9c-1.8-2.5-2.7-5.3-3.2-8.3c-0.5-2.9,0-5.5,3.1-7.1c0.7-0.4,1.4-0.8,1.7-1.5
		c0-0.1,0.1-0.1,0.1-0.2l-11.4,3.4c-1.8,4.2-2.7,8.6-3.1,13.2c-0.2,2.1-0.5,4.2-0.7,6.4c-0.1,1.2-0.6,2.1-1.7,2.8
		c-1.1,0.7-2.1,1.5-3.1,2.3l1.5,7c0.4,0.4,0.7,0.8,0.9,1.4c0.7,1.9,2.7,2.7,4.7,2.1c0.6-4.1,2.4-7.6,6.9-9.5
		C59.6,104.4,61,103.3,62,101.8z"/>
	<path d="M93.9,109.5c-1.8-1.3-2-2.9-1.2-4.8c0.3-0.6,0.5-1.3,0.6-1.9c0.2-1.5-0.8-2.6-2.5-2.6c-1.1,0-2.3,0.1-3.4,0.2
		c-3.3,0.3-5-0.7-5.7-3.6c-0.5-2-0.3-3.9-0.2-5.9c0-1,0.2-2-0.1-2.9c-0.8-2-0.3-3.9,0.6-5.7c1.5-2.9,3-5.7,3.4-8.9
		c0.3-1.7,1.7-2.8,3.4-3.6c1.5-0.7,3-1.4,4.4-2.2c0.3-0.2,0.6-0.4,0.9-0.6l-23.8,7c-0.5,1.2-0.9,2.3-1.4,3.4
		c-0.6,1.4-0.4,2.6,0.9,3.6c1.4,1.2,2.2,2.6,2,4.5c-0.1,0.7,0.1,1.5,0.2,2.3c0.1,0.6,0.2,1.2,1,1.2c0.7,0,1.2-0.3,1.5-0.8
		c0.4-0.7,0.7-1.5,1.1-2.2c0.4-0.9,1.1-1.6,2.3-1.5c1.3,0,1.6,1,2,1.8c0.6,1.5,0.2,2.9-0.8,4.2c-1.9,2.6-3.8,5.1-4.9,8.1
		c-0.5,1.3-1.6,2.2-2.7,3c-5.6,3.8-8.3,9.2-11,14.7c-0.9,1.9-1.6,3.9-1.9,6c-0.3,2.1,0.5,3.8,2.3,5.1c4.1,2.7,5.3,5.2,4.1,9.6
		l16.1-3.3c-0.2-2-0.5-4-1.1-6c-0.6-2.1-2-3.6-4.2-4.4c-1.7-0.7-3.5-1.3-4.9-2.4c-1.4-1.1-1.8-2.8-1.1-4.1c0.6-1.2,1.7-1.3,2.6-0.3
		c0.7,0.8,0.9,1.7,1.2,2.7c0.8,2.3,2.3,3,4.9,2.3c2-0.6,3.5-1.6,4.5-3.3c0.4-0.7,0.9-1.3,1.5-1.8c1.6-1.2,3.7-1,4.8,0.6
		c0.9,1.2,1,2.6,1.1,3.9c0.2,2.1,0.3,4.2,0.5,6.2C91,129,92,130.4,94,131l1.4-0.3c0.4-3.7,1.9-7.3,2-11
		C97.6,116,97.8,112.2,93.9,109.5z"/>
	<path d="M451.5,63.2c-0.9,1.5-1.8,3.1-2.7,4.6c-1.6,2.8-1.5,5.5,0,8.3c0.9,1.6,1.4,3.2,1.1,5c-0.4,2.3-2.8,4.1-5.4,3.9
		c-0.7,0-1.3-0.4-1.7-0.8c-0.3-0.3-0.5-0.7-0.7-1c-1.8-2.9-4.2-2.9-6.2,0c-0.6,0.8-1,1.7-1.2,2.7c-0.6,2.5-0.8,5-0.7,7.6
		c0,0.9,0,1.8,0.9,2.5c1-1.8,2.9-2.9,4.2-2.5c1,0.3,1.6,2.1,1.2,4c-0.2,0.9-0.4,1.8-1,2.5c1.9,1.7,2.5,3.9,2.5,6.3
		c0,1.9,0.2,3.8,0.3,5.8c0.1,1.5,0.8,2.7,1.7,3.9c0.7,0.9,1.3,1.8,1.6,2.8c0.1,0.3,0.2,0.7-0.1,1c-0.4,0.3-0.9,0.2-1.3,0
		c-1.2-0.5-1.8-1.5-2.1-2.6c-0.6-1.9-1.4-3.7-2.4-5.5c-0.8-1.5-0.6-3.1-0.6-4.6c0-0.6,0.3-1.6-0.7-1.8c-1.2-0.2-1.7,0.6-2,1.5
		c-0.7,2.2-0.5,4.4-0.8,6.6c-0.3,2.3-0.4,4.7-1.8,6.7c-0.5,0.8-1.1,1.5-2.1,1.9c-0.7,0.3-1.3,0.4-1.9-0.1c-0.6-0.5-0.4-1.1-0.1-1.7
		c2.7-4,3.1-8.6,3.8-13.1c0,0,0-0.1,0-0.2c-2.4,1.4-4.1,3.5-6.2,5.2c-3,2.4-5.5,5.3-7.8,8.2c-0.9,1.1-1.6,2.2-2.1,3.5
		c-0.9,2.6-0.2,3.9,2.6,4.9c3.1,1,4.2,2.8,3.4,5.5l31.4-6.3c0.3-0.2,0.6-0.4,0.9-0.7c0.2-6.5,1.4-39.7,8.4-67.5L451.5,63.2z"/>
	<path d="M407.9,121.4c-0.2-0.7,0.2-1.3,0.6-1.9c2-3.5,3.2-7.3,4.9-11c0.1-0.3,0.1-0.6,0.2-0.9c-2.6-2.2-3.9-4.9-4.2-8
		c-0.2-2-0.2-4.1,0.2-6.1c0.3-2,0.2-3.8-1.5-5.4c-0.7-0.6-0.7-1.4-0.6-2.3c0.4-2.8,1.5-5.5,1.2-8.4c0-0.5-0.1-1-0.2-1.6l-24.3,7.2
		c0,0,0,0.1-0.1,0.1c-0.1,0.1-0.1,0.2-0.2,0.3l5.6,25.4c0.3-1.5,0.4-3,0.1-4.6c-0.6-4.5,0-9,1.1-13.4c0.5-2,1.7-3.8,4.1-4.5
		c1.7-0.5,2.6,0,2.8,1.6c0.3,1.7-0.1,3.5-0.6,5.1c-2.1,7.1-4,14.2-6.4,21.2l5.6,25.3l16.7-3.4c-1.3-2.9-2.6-5.8-3.1-8.9
		C408.8,125.5,408.4,123.4,407.9,121.4z"/>
	<path d="M425,71.1c-0.2,0.7-0.3,1.4-0.4,2.1c2.9-1.1,5.4-2.5,7.5-4.2L425,71.1z"/>
	<path d="M415.9,115.3c-0.5-0.2-1-0.6-1.5-1c-1,3.3-2.1,6.5-3.1,9.8c0,0,0,0,0,0c2.9-1,4.9-2.8,6.1-5.3
		C418.2,117,417.8,116.2,415.9,115.3z"/>
	<path d="M625,338.3c-2.1,0.5-4.1,1-6.2,1.5c-2.6,0.6-4.6-0.7-6.3-2.7c-0.5-0.5-0.9-1.2-0.4-2c0.4-0.7,1.1-0.6,1.7-0.5
		c1.6,0.3,3.1,1.1,4.7,0.2c-2.3-1.6-4.6-2.8-7.4-2.4c-0.8,0.1-1.6,0-2.4-0.3c-0.9-0.4-1.5-1.1-1.4-2.2c0-1.1,0.8-1.5,1.6-1.7
		c1.7-0.5,3.4-0.5,5.1-0.8c1.1-0.1,2.5-0.1,2.8-1.5c0.4-1.5-0.9-2.3-1.8-2.9c-3.2-2.2-6.5-3.1-10.1-1.5c-0.8,0.4-1.7,0.6-2.7,0.5
		c-0.9-0.1-1.5,0.3-1.9,1.3c-1,3.1-3,4.4-5.9,3.3c-3.8-1.5-6.9-4.1-8.1-8.7c-0.1-0.5-0.4-1-0.6-1.6c-1.5-0.9-3-1.7-4.5-2.7
		c-1.4-0.9-2.8-1-4.3-1c-0.3,0.3-0.6,0.6-0.8,1c-1.7,2.9-3.7,3-6.6,1.7c-1.5-0.7-1.7-2.1-1.6-3.7c0.2-4.6-1.7-8.1-4.8-10.9
		c-0.8,1.1-1.8,1.4-3,1.3c-4.1,0-7.8-1.6-11.3-3.7c-6.9-4-14.1-6.9-21.8-8c-0.3,0-0.5,0-0.8-0.1c-4.9-1.7-9.9-1.6-14.9-0.3
		c-3.1,0.8-6.2,0.4-9.2-0.4c-3.5-0.9-7-1.8-10.5-2.7c-1.9-0.5-3.8-1.1-5.6-2.1c-0.5-0.3-1-0.6-1.4-1c-1.3-1.2-2.7-2.5-2.4-4.6
		c0.3-2,2-2.4,3.6-3c0.8-0.3,1.7-0.3,2.4-1c0-0.2,0-0.4,0-0.6c-0.1-0.1-0.1-0.2,0-0.3c0.1-2.1,0.6-4.1,1.6-5.9
		c0.8-1.4,1.8-2.4,3.3-2.8c2.2-0.5,2.8-0.1,3.3,2.2c0.9,4.1,2.9,5.6,7.6,6.2c3.4,0.4,6.8,0.1,10.1,1c0.3,0.1,0.6,0.1,0.9,0.3
		c3.8,2,7.9,3.2,12.1,3.6c0.8,0.1,1.6,0.6,2.4,1c0.8,0.7,1.6,1.4,2.3,2.2c2.4,3.3,5.7,5.1,9.2,6.5c0.7,0.3,1.5,0.8,2.1-0.1
		c0.5-0.8-0.1-1.6-0.6-2.2c-0.8-1-1.7-2-2.5-2.9c-0.1-0.1-0.2-0.3-0.2-0.4l-0.1,0c-2.7-2.3-5.7-4.4-6.8-8.4
		c-0.4-1.3-1.5-1.6-2.6-1.7c-0.9-0.1-1.8,0.1-2.7-0.2c-1.4-0.5-1.6-1.2-0.5-2.3c0.3-0.3,0.6-0.6,0.9-0.9c1-1,1.8-0.9,2.6,0.3
		c0.9,1.4,2.1,1.6,3.5,2c1.9,0.5,3.6,1.5,5.7,0.7c0.6-0.2,1.3,0.3,2,0.7c4.9,3.6,9.9,7.1,14.3,11.4c2.1,2.1,4.4,1.8,6.8,0.7
		c0.4-0.2,0.8-0.5,0.8-1.1c-0.1-0.5-0.5-0.7-0.9-0.8c-0.6-0.2-1.3-0.4-2-0.3c-1.3,0.2-2.5-0.2-3.4-1.4c-4.1-2-7-5.6-9.9-9.2
		c-0.1-0.1-0.2-0.2-0.3-0.2c-0.1,0-0.2-0.1-0.3-0.1c-0.2-0.2-0.5-0.4-0.7-0.6l0,0c-1.8-1.8-3.6-3.5-6.2-3.9
		c-0.7-0.1-1.8-0.6-1.5-1.5c0.3-1,1.2,0,1.8,0.2c2.1,1.1,4.3,2,6,3.9c1.6,0.6,2.8,1.8,4.2,2.7c0.8,0.5,1.7,1.3,2.4,0.2
		c0.7-1.1,0-2.1-0.8-2.7c-1.4-1-2.4-2.4-3.5-3.7c-2.9-3.1-6.4-5.1-10.4-5.2c-3.4-0.1-6.9,0.3-10.3,0.5c-2.6,0.1-5.2,0.2-7.7,0.6
		c-1.3,0.2-2.4-0.4-3.4-1.1c-1.5-1.2-3.1-1.5-5-1.1c-2.3,0.5-4.5,0-6.6-1.2c-2-1.1-3-2.9-3.2-5.3c0-0.6-0.2-1.2-0.2-1.8
		c-0.1-1.4-0.3-2.7-1.8-3.2c-1.4-0.5-2.1,0.7-2.9,1.6c0,0,0,0.1-0.1,0.1c0,0-0.1,0-0.1,0c0.1,0,0.1-0.1,0.2-0.1
		c0.4-3.7,3.4-5.7,6.7-4.5c1.8,0.7,3.4,1.8,5,2.9c3.5,2.4,7.2,4.4,11,6c1-1,2.2-1.1,3.4-0.6c1.9,0.8,3.8,1.1,5.8,0.8
		c1.1-0.2,2.3,0,3.2,0.8c2.4,2.1,4.9,2,7.4,0.5c3.1-1.9,6.2-1.8,9.4-0.4c2.5,1.1,4.9,2.3,7.3,3.4c2.7,1.3,4.4,3.7,5.9,6.4
		c0.9,1.7,2.1,3.1,3.7,4.1c1.5,0.9,2.5,2.4,2.9,4.2c0.6,2.8,2.1,4.2,4.5,4.9c2.6,0.8,5.2,1.8,7.7,3c3.8,0.8,7.7,1.5,11.5,2.3
		c0.8,0.2,1.4,0.6,1.6,1.6c0.1,1-0.3,1.7-1,2.3c-0.8,0.6-1.7,0.7-2.6,1c-1.9,0.7-2.2,1.9-1.1,3.7c0.9,1.5,2.1,2.4,3.6,2.9
		c3.1,1.1,6.2,1.1,9.3,0.3c1.4-0.4,2.2-1.4,2.1-3c0-0.7,0-1.5,0-2.2c0-0.8,0.3-1.4,0.8-1.9c0.2-0.2,0.5-0.4,0.8-0.2
		c0.4,0.2,0.3,0.5,0.2,0.9c-0.1,0.4-0.1,0.9-0.1,1.3c0,1.5,0.9,2.1,2.1,1.4c0.3-0.2,0.6-0.4,0.9-0.6c0.6-0.4,1.1-0.7,1.2,0.5
		c0.1,1.2,1.1,1.5,2,1.8c2.7,0.8,5.5,1,8.3,1.2c1.6,0.1,2.8,1.1,4.1,1.9c0.5,0.3,0.6,1,0.7,1.6c0.1,0.7-0.1,1-0.7,0.7
		c-3.4-1.3-7-1.1-10.3-2.6c-0.8-0.4-1.8-0.6-2.7-0.3c-0.6,0.2-1.4,0.1-1.6,1c-0.1,0.8,0.5,1.2,1,1.6c1.2,0.9,2.5,1.8,3.8,2.6
		c0.9,0.6,1.3,1,0.4,2.1c-1,1.3-1.2,2.9-0.2,4.3c0.5,0.7,0.4,1-0.3,1.4c-0.8,0.5-1.3,1.2-1.1,2.3c0.2,1.1,1,1,1.6,1.2
		c1.9,0.6,3.6,1.6,5.3,2.5c1.4,0.7,2.8,1.3,4.3,1.5c-0.1-1.2-1-1.6-1.7-2.2c-0.5-0.4-1.2-0.9-0.6-1.7c0.6-0.7,1.3-1.2,2.1-0.5
		c0.4,0.4,0.8,0.9,1,1.4c0.7,1.4,2.2,2.5,3.7,3.2c-0.8-11.7-1.2-24.2-1.5-37c-0.5-0.2-1.1-0.5-1.6-0.8c-0.8-0.4-1.5-0.9-2.2-1.5
		c-1.8-1.6-3.8-2-6-1.5c-1.6,0.3-3.3,0.7-5,0.8c-4.5,0.2-8-1.9-10.8-5.5c-2.2-2.9-1.6-5.3,1.7-6.6c1.7-0.7,3.4-0.2,5.1,0
		c2.4-0.9,4.9-0.4,7.4-0.2c1.7,0.1,3.3,0.7,5,0.2c0.2-0.1,0.5-0.1,0.7-0.2c0.9-0.4,2.1-0.9,1.9-2.1c-0.2-1.3-1.5-0.9-2.3-0.8
		c-2.5,0.4-5-0.1-7.3-1.2c-6.8-3.2-13.7-5.8-20.7-8.3c-2.4-0.9-4.9-1.6-7.4-1.4c-0.7,0.1-1.5,0.1-1.8,0.8c-0.5,1.5-1.5,1.2-2.5,1
		c-3.1-0.5-6.2-0.8-9.2,0c-2.5,0.7-4.3,2.3-5.1,5.2c-0.8,2.9-1.5,3.1-4,1.7c-4.6-2.5-9.3-4.8-14.5-5.4c-2.1-0.2-4.3-0.3-6.4-0.5
		c-3.7-0.3-6.1-3.3-6-7.4c0.1-2,0.6-3.9,1.4-5.6c1.6-3.3,4-4.3,7.3-3.3c3.4,1,6.3,3,9.3,5.1c4.1,2.8,8.5,4,13.1,2.4
		c9.2-3.3,17.8-1.1,26.4,2.9c3.8,1.8,7.4,3.9,11.1,5.8c-0.9-6-4.2-9.5-9.2-11.4c-5-1.9-10.1-3-15.4-2.4c-1.7,0.2-3.3,0.1-5,0.1
		c-0.7,0-1.3-0.2-1.7-0.9c-0.4-0.8,0-1.4,0.5-2c0.7-0.9,1.3-1.7,1.7-2.8c-3.9-1.4-7.7-2.9-10.5-6.5c-0.7-1-1.2-2.1-1.5-3.3
		c-0.3-1.6,0.3-2.6,1.8-2.9c1.3-0.2,2.6,0.2,3.9,0.5c1.8,0.5,3.5,1,5.4,0.9c2,0,3.2-1.1,3.4-3c0.2-1.4-0.5-2.4-2.5-3
		c-2-0.6-4.1-1-6.1-1.5c-1.3-0.3-2.5-1-3.4-2.1c-2.1-2.4-1.4-5,1.5-5.8c1.8-0.5,3.6-0.4,5.5-0.2c4,0.6,7.9,1.4,11.8,2.1
		c0,0.2,0,0.3,0,0.4c-0.6,0.5-1.4,0.8-1.2,1.8c0.2,1,1.1,1.2,1.9,1.4c1,0.2,1.9-0.2,2.8-0.6c1.4-0.7,2.7-0.5,3.7,0.7
		c3.2,3.8,7.3,3.9,11.5,3.8c1.1,0,2.2-0.1,3.3-0.4c1.6-0.4,3-0.1,4.5,0.9c4.4,2.7,9.3,4.1,14.2,5.5c0.5,0.2,1.1,0.3,1.6,0.5
		c0.1-3.9,0.2-7.6,0.3-11.3c-0.6-0.3-1.3-0.4-2.1-0.2c-1.2,0.3-2.3,0-3.4-0.6c-2.4-1.4-4.9-1.4-7.3,0c-1.3,0.8-2.5,0.7-3.8,0
		c-2.4-1.4-4.6-3.1-5-6.5c-0.4-2.9-2.7-3.4-4.8-3.9c-0.8-0.2-1.6-0.4-2.1-1.2c-0.3-0.4-0.7-0.7-1.1-0.8c-2.8-0.1-4.8-2.1-7.1-3.5
		c-2.8-1.8-5.8-3.2-9.1-3.5c-0.8,1.6-1.6,3.1-2.6,4.5c-1.8,2.4-4.1,3.2-6.8,2.6c-0.9-0.2-1.8-0.5-2.6-0.8c-2-0.8-3.8-0.6-5.4,0.9
		c-0.2,0.2-0.6,0.5-0.8,0.5c-2-1.1-3,0.8-4.3,1.7c-0.5,0.3-0.8,0.8-1.3,1.2c-1.5,1.4-2.5,1.5-4.2,0.3c-1.6-1.1-2.8-2.8-3.9-4.4
		c-1.3-1.9-2.5-3.8-4.2-5.3c-2.6-2.4-4.8-2.2-7,0.7c-1,1.3-2,2.7-2.9,4.2c-1.9,3.1-4.4,4.2-7.6,3.3c-0.6-0.2-1.2-0.3-1.8-0.4
		c-1,0-2,0.4-2.9,0.8c-2.7,1.4-5.2,1.2-7.6-0.7c-0.4-0.3-0.9-0.7-1.5-0.7c-0.3,1.5-1.3,1.9-2.5,2c-2.5,0.1-4.9-0.7-7.1-1.7
		c-2.6-1.2-5.1-1.1-7.6,0.1c-2.3,1.1-4.7,1.3-7.1,0.3c-1.1-0.5-2-0.1-2.3,1.2c-0.3,1.5,0.9,1.6,1.7,1.7c1.2,0.1,2.3,0,3.5,0.2
		c0.6,0.1,1.4,0.3,1.4,1c0,0.9-0.9,1-1.5,0.9c-0.9-0.1-1.6,0.3-2,1.2c-0.9,1.8-2.5,2.2-4.2,2c-3.2-0.3-5.9-1.9-8.2-4.4
		c-0.7-0.8-1.4-1.6-2-2.5c-3.2-4.6-7.2-7.8-11.6-10.2c0.4,9.8,0.8,20.9,1.1,32.7c0.2-0.1,0.4-0.2,0.7,0c0.5,0.3,0.3,1.1,0.3,1.7
		c3.3,1.2,7.2-0.4,9.2-3.7c0.5-0.8,1-1.7,1.6-2.5c0.3-0.5,0.8-1.1,1.4-0.7c0.6,0.4,0.2,1,0.1,1.5c-0.5,2.1-1,4.2-1.6,6.5
		c1.2-0.5,2-0.4,2.3,1.2c0.1,0.9,1,1,1.8,0.9c0.9,0,1.8-0.2,2.7-0.2c1.4,0.1,1.7,0.8,1,2.1c-0.3,0.6-1.1,1.3-0.3,2
		c0.7,0.7,1.5,0,2-0.6c2.7-3.2,5.9-3.1,9.3-1.8c0.8,0.3,1.5,0.6,2.3,0.8c2.1,0.7,3.9,0.2,5.2-2c0.8-1.3,1.7-2.3,3.3-1.8
		c1.6,0.5,2.5,1.7,2.9,3.3c0.9,3.7-0.8,7.9-3.9,9.9c-3,2-6.3,2.1-9.6,1.4c-3.8-0.7-7.4-0.4-10.9,1.4c-5,2.5-10,3-15.3,1.2
		c-1.5-0.5-2.9-1.2-4.1-2.4c0,5.9,0.1,11.9,0,17.9c0.6,0.1,1.2,0.3,1.8,0.4c2.9,0.6,5.9,1.1,8.9,0.7c2.1-0.3,3.5-1.6,4.8-3.2
		c0.8-0.9,1.3-0.8,2,0c1,1.1,2,2.1,2.6,3.5c1,2.3,0.7,4.3-1.2,5.8c-2.5,2.1-5.4,2.7-8.4,3.2c-2,0.3-3.9,0.4-5.9,0.6
		c-1.2,0.1-3-0.4-4.8-1.2c-0.1,9-0.3,17.9-0.6,26.5c4.4,2,8.9,2,13.6-0.2c2.7-1.3,5.2-0.2,7.7,0.8c4,1.5,7.6,4.1,11.1,6.6
		c2.2,1.6,4.6,2.9,6.9,4.2c2.8,1.6,5.5,1.5,8.3,0c1.6-0.9,3.2-1.4,5-1.1c2.3,0.4,4.1,2.8,3.9,5.4c0,0.7-0.4,1.3-0.8,1.7
		c-0.3,0.3-0.7,0.5-1,0.7c-2.9,1.8-2.9,4.2,0,6.2c0.8,0.6,1.7,1,2.7,1.2c2.5,0.6,5,0.8,7.6,0.7c0.9,0,1.8,0,2.5-0.9
		c-1.8-1-2.9-2.9-2.5-4.2c0.3-1,2.1-1.6,4-1.2c0.9,0.2,1.8,0.4,2.5,1c1.7-1.9,3.9-2.5,6.3-2.5c1.9,0,3.8-0.2,5.8-0.3
		c1.5-0.1,2.7-0.8,3.9-1.7c0.9-0.7,1.8-1.3,2.8-1.6c0.3-0.1,0.7-0.2,1,0.1c0.3,0.4,0.2,0.9,0,1.3c-0.5,1.2-1.5,1.8-2.6,2.1
		c-1.9,0.6-3.7,1.4-5.5,2.4c-1.5,0.8-3.1,0.6-4.6,0.6c-0.6,0-1.6-0.3-1.8,0.7c-0.2,1.2,0.6,1.7,1.5,2c2.2,0.7,4.4,0.5,6.6,0.8
		c2.3,0.3,4.7,0.4,6.7,1.8c0.8,0.5,1.5,1.1,1.9,2.1c0.3,0.7,0.4,1.3-0.1,1.9c-0.5,0.6-1.1,0.4-1.7,0.1c-4-2.7-8.6-3.1-13.1-3.8
		c0,0-0.1,0-0.2,0c1.4,2.4,3.5,4.1,5.2,6.2c2.4,3,5.3,5.5,8.2,7.8c1.1,0.9,2.2,1.6,3.5,2.1c2.6,0.9,3.9,0.2,4.9-2.6
		c1.1-3.4,3.1-4.4,6.2-3.2c1.5,0.6,2.9,1.7,4.2,2.6c1.1,0.8,2.1,1.5,3.3,2.2c2.2,1.3,4.5,1.7,6.9,0.7c2.9-1.1,5.8-2.2,8.7-3.2
		c1.8-0.6,3.7-0.9,5.5-1.1c2.7-0.2,4.9,0.8,6.5,3.2c2.3,3.4,5.6,4.7,9.2,5.2c2.2,0.3,4.4,0.3,6.5-0.2c1.4-0.3,2.6,0,3.7,1.2
		c0.6,0.7,1.2,1.2,1.9,1.6c1.9-0.9,3-1.5,3-1.6l0,0c-0.3-2.2-0.6-4.5-0.8-6.8C629.1,339.1,627.1,339,625,338.3z"/>
	<path d="M483.1,321.2c2.5,2.1,5.1,4.1,7.2,6.8c1.5,2,3.4,2.8,5.7,2.5c0.4,0,0.7,0,1.1-0.1c3.6-0.9,7-0.9,10.1,1.8
		c1,0.9,2.5,1,3.8,1.2c-3.5-9.3-10.2-14.1-18.7-16.3c-2-0.5-4.2-0.2-6.2-0.1c-2.1,0.1-4-0.4-5.8-1.7c-1.6-1.2-3.4-2-5.3-2.4
		c-0.8-0.1-1.5-0.5-2.1-0.9c-1-0.7-2-1-3.2-1.1c-0.8,0-1.5-0.3-2.1-0.8c-0.6-0.5-1.2-0.9-1.8-1.1c-0.1,1.9-0.2,3.8-0.3,5.7
		C471.7,314.5,477.6,316.8,483.1,321.2z"/>
	<path d="M603.3,345.4c-1.9,0.6-3.7,1.1-5.6,1.5c-0.6,0.1-1.2,0.4-1.7-0.2c-2.3-2.7-5.5-3.3-8.5-4.1c-4.3-1-8.5-0.1-12.5,1.8
		c-3.3,1.5-6.5,3.1-10.1,3.7c-1.8,1.1-3.9,1.5-5.9,2c-0.7,0.2-1.3-0.2-1.9-0.6c-3.5-2-7.3-3.2-11-4.9c-0.3-0.1-0.6-0.1-0.9-0.2
		c-2.2,2.6-4.9,3.9-8,4.2c-2,0.2-4.1,0.2-6.1-0.2c-2-0.3-3.8-0.2-5.4,1.5c-0.6,0.7-1.4,0.7-2.3,0.6c-2.8-0.4-5.5-1.5-8.4-1.2
		c-2.3,0.2-4.6,0.5-7,0.4c-1.4-0.1-2.7-0.4-3.9-1.2c-1.1-0.7-1.6-1.8-1.3-3.3c0.3-1.1,0.6-2.1,0.9-3.2c0.5-1.8,0-2.7-1.6-3
		c-0.6-0.1-1.2-0.2-1.8-0.1c-2.6,0.5-4.9-0.5-7-2.2c-1.5-1.1-3-2.3-4.5-3.5c-2.9-2.2-6.1-3.4-9.6-3.2c-4.9,0.2-9.5-0.8-13.9-2.9
		c-0.3-0.1-0.6-0.3-0.9-0.4c-0.6,7-1.3,13.5-2.1,19.5c5.9,2.8,30.6,13.9,62,18c-0.2-0.4-0.4-0.8-0.5-1.3c-0.5-1.7,0-2.6,1.6-2.8
		c1.7-0.3,3.5,0.1,5.1,0.6c5.7,1.7,11.5,3.3,17.2,5.1c13,0,25.1-1.5,35.8-3.6c-0.5-0.8-0.8-1.7-0.9-2.7c-0.4-2.9,0.7-5.1,3.3-6
		c2.9-1,5.7-0.8,8.4,0.7c1.9,1,3.7,2.3,5.5,3.5c0.2,0.1,0.4,0.3,0.7,0.4c3.8-1.1,7.4-2.3,10.6-3.4c1.2-0.9,2.5-1.7,3.9-2.1
		c0-0.1,0-0.1,0-0.2C613.4,345.4,609.9,343.3,603.3,345.4z"/>
	<path d="M631.7,104.8c-0.2,0.6-0.8,0.3-1.2,0.1c-0.5-0.2-0.9-0.1-1.2,0.4c-0.3,0.5-0.1,1,0.1,1.4c1,1.8,2.9,2.3,4.3,3.4
		c1,0.8,2,1.4,3.1,2c-0.2-2.3-0.4-4.8-0.6-7.5c-0.4-0.2-0.8-0.4-1.2-0.6C633.8,103.5,632.5,102.8,631.7,104.8z"/>
	<path d="M636.9,114c-3.7-0.4-7.2-1.1-9.4-5.1c-1.4-2.5-3.9-2.4-6.3-2.5c-0.6,1.2-1.7,1.8-2.6,2.6c-0.6,0.5-1.1,0.1-1.7,0.1
		c-0.7-0.1-1.7-0.8-1.7,0.9c0,0.5-0.6,0.4-0.9,0.3c-1.5-0.2-2.8-0.8-4-2c-1.6-1.6-2.7-3.5-4-5.3c-1.3-1.8-2.5-3.5-4.3-4.8
		c-1.9-1.4-3.6-1.2-5.3,0.4c-1.1,1-1.9,2.2-2.7,3.5c-0.6,1-1.3,1.9-1.9,2.9c-1.7,2.5-4,3.3-6.7,2.8c-2.7-0.5-5.3-1.3-7.7-2.5
		c-2.7-1.3-5.1-1-7.3,1.2c-1.9,1.9-4.3,2.1-6.6,1.7c-4-0.7-8.1-0.9-12.1-1.4c-3.4-0.5-6.7-1.6-9.9-2.8c-7.5-2.9-14.9-2.3-22.3,0
		c-5.1,1.6-10.2,3.4-15.7,2.9c-3.4-0.3-6.8-0.6-10.2-1c-2.3-0.2-4-1.4-5.1-3.7c-2.3-4.5-5.6-6.7-11.7-4.2c-2.1,0.9-4.1,1.9-5.8,3.6
		c0.9,0.7,1.8,1.5,2.7,2.2c1.3,1,2.7,1.8,4.3,2.2c1.5,0.3,2.6,0.1,3.5-1.5c0.8-1.5,2-1.7,3.4-0.4c1.8,1.7,3.9,2.8,6.2,3.5
		c1.5,0.5,2.9,0.7,4.2-0.5c0.7-0.6,1.4-0.4,1.9,0.2c0.6,0.6,1.2,1.4,1.7,2.1c1,1.4,2.1,2.4,3.8,2.6c1.3,0.2,2.1,1.1,2.5,2.4
		c0.6,2.3,2.4,3.7,3.1,5.9c0.3,1.1,1.6,1.4,2.5,1.7c3.6,0.9,7,2.2,10.7,2.7c3.7,0.5,6.4,2.9,8.6,6.1c0.2,0.2,0.3,0.5,0.4,0.7
		c2.4,3.9,3.7,4,6.7,0.8c1-1.1,2.1-2.1,3.6-2.4c0.8-0.2,1.6-0.7,1.9-1.6c0.6-2.3,2-3.7,3.8-4.8c2.4-3.2,4.3-3.7,7.8-2.3
		c1.1,0.5,2.2,1.1,3.2,1.8c1.3,0.9,2.7,1.7,4.3,1.9c0.3,0,0.8,0,1,0.3c2.3,1.9,4.8,1.3,7.2,1c0.4-0.1,0.8-0.1,1.1-0.5
		c0.9-1.2,2-1.1,3-0.5c2.3,1.2,4.6,1.5,7,0.1c0.6-0.3,1.3-0.5,1.9,0c2.3,1.9,4.7,1.4,7.1,0.4c0.5-0.2,1-0.4,1.4-0.5
		c0.8-0.1,1.4,0.3,1.8,1c0.4,0.7-0.1,1.3-0.6,1.7c-0.7,0.7-1.6,1.1-2.5,1.6c-0.2,0.6,0,1.1,0,1.7c0,2.2-0.7,3.9-2.5,5
		c-1.1,0.6-2.2,1.2-3.2,2c-1.6,1.1-1.7,2.6-0.4,4.1c0.4,0.5,0.9,1,1.4,1.3c2.3,1.3,4.4,2.7,6.4,4.6c0.9,0.9,2.1,1,3.3,1
		c2.1,0,4.2-0.3,6.2,0.5c1.1,0.4,1.8,1.1,2.3,2.3c1,2.7,2.6,4.5,5.5,4.5c3,0.1,5.6,1.3,8,3.3c4.3,0.9,8.3,2.8,12.5,4.2
		c0.4,0.1,0.7,0.2,1.1,0.3c0.5-6.2,1.1-11.3,1.7-15.6c-3.8,0.7-7.7,0.2-11.5-0.4c-1.4-0.2-2.8-0.7-4.2-0.7c-1.7,0-2.7-0.9-3.6-2.3
		c-0.4-0.7-0.9-1.3-1.6-1.8c-2.5-1.4-5-3-6.4-6c-1.2-0.9-2.7-1.4-3.7-2.6c-0.6-0.7-1.3-1.4-1-2.5c0.3-1.1,1.2-1.3,2.1-1.4
		c2.4-0.3,4.6,0,6.8,1.3c0.9,0.5,1.8,1.1,2.7,1.6c1.5,0.2,2.9,0.6,4.4,0.4c1.5-0.2,2.6-1.3,2.8-3.1c0.2-1.6-0.9-2.2-1.9-2.6
		c-2.2-1-4.5-1.2-6.8-1.8c-1.6-0.4-2.9-1.3-3.9-2.8c-1.3-2-0.6-4.3,1.6-4.9c3.4-1,6.9-0.4,10.3,0.3c2.6,0.5,5.1,1.3,7.8,1.4
		c0.7,0,1.2,0.6,1.7,1c1.7,1.6,3.4,3.2,5.7,3.8c0.4,0.1,1,0.3,0.8,1c-0.2,0.6-0.6,1.2-1.4,1.1c-0.6-0.1-1.2-0.4-1.7-0.8
		c-0.3-0.3-0.7-0.7-1-0.7c-2,0.1-2.9-1.5-4-2.9c-0.3-0.4-0.6-0.7-1-1c-0.8-0.5-1.8-0.9-2.4-0.1c-0.5,0.7,0.4,1.4,0.9,1.9
		c3.5,3.6,7,7.3,12.1,7.7c0,0,0,0,0,0c0.7-2.1,1.4-3.2,1.9-3.8l-0.3,0C637.6,128.2,637.5,122.6,636.9,114z"/>
	<path d="M488.2,61.9c1.3,0.7,2.5,1.4,3.7,2.3c1.4,1.1,2.8,0.9,4.1-0.2c0,0,0.1-0.1,0.1-0.1c3.3-3.6,5.9-2.2,7.8,1.8
		c1.1,2.3,2.1,4.7,3.8,6.5c2.1,2.1,3.9,2.5,6.4,1c1.4-0.8,2.7-1.9,3.9-2.9c1.8-1.5,1.7-4.7-0.8-5.4c-0.9-0.2-1.9-0.6-2.6-1.4
		c-0.3-0.3-0.5-0.7-0.4-1.2c0.2-0.5,0.6-0.6,1-0.6c0.6,0.1,1.2,0.2,1.8,0.4c0.7,0.2,1.4,0.7,2.2,0.7c2.3,0.2,4.4,0.9,6,2.7
		c0.2,0.2,0.4,0.3,0.7,0.4c3.5,0.6,6.8,2.5,10.4,2.6c1.2,0,2.3,0.2,3.4,0.8c0.6,0.3,1.2,0.8,1.1,1.7c-0.1,0.8-0.7,1.1-1.3,1.3
		c-1.7,0.7-3.6,0.9-5.4,0.9c-1.3,0-2.7,0-3.9,0.3c-2.3,0.6-3.3,2.9-2.4,5.4c0.7,2,2.2,3.2,4,3.9c3,1.2,6.1,1,9.2,1
		c3.8,0,7.6-0.3,11.3-1.4c2.1-0.6,3.6-2,4.4-4.2c0.7-1.7,1.3-3.5,2.4-4.9c1.1-1.4,2.8-1.8,4.1-1.1c1.2,0.6,1.3,1.7,0.3,2.6
		c-0.8,0.7-1.7,0.9-2.7,1.2c-2.3,0.8-3,2.3-2.3,4.9c0.6,2,1.6,3.5,3.3,4.5c0.7,0.4,1.3,0.9,1.8,1.5c1.2,1.6,1,3.7-0.6,4.8
		c-1.2,0.9-2.6,1-3.9,1.1c-2.1,0.2-4.2,0.3-6.2,0.5c-2.5,0.2-4,1.6-4.3,4.5c3.9,0.3,7.6,1.9,11.5,2.1c3.7,0.2,7.6,0.3,10.3-3.5
		c1.3-1.8,2.9-2,4.8-1.2c0.6,0.3,1.3,0.5,1.9,0.6c1.5,0.2,2.6-0.8,2.6-2.5c0-1.1-0.1-2.3-0.2-3.4c-0.3-3.3,0.7-5,3.6-5.7
		c2-0.5,3.9-0.3,5.9-0.2c1,0,2,0.2,2.9-0.1c2-0.8,3.9-0.3,5.7,0.6c2.9,1.5,5.7,3,8.9,3.4c1.7,0.3,2.8,1.7,3.6,3.4
		c0.7,1.5,1.4,3,2.2,4.4c1.4,2.5,3.4,2.5,4.9,0c0.5-0.8,0.9-1.8,1.2-2.7c0.6-1.6,1.1-3.3,1.8-4.9c2-5.2,4.8-7.3,9.9-6.6
		c1.1,0.1,2.2,0.2,3.3,0.2c-0.7-4.5-1.5-9.2-2.4-13.7c-3,0.7-5.9,0.1-8.6-1.4c-2.7-1.5-5.6-2.3-7.7-5c-0.6-0.8-1.6-1.1-2.6-0.4
		c-0.8,0.6-1.6,0.4-2.3-0.2c-6.4-6.2-14.2-8.5-22.4-9.2c-2.1-0.2-4.2-0.5-6.4-0.7c-1.2-0.1-2.1-0.6-2.8-1.7
		c-0.5-0.8-1.1-1.5-1.6-2.2c-2.2-0.1-4.6-0.2-7.1-0.3c-0.4,0.9-1,1.5-2.1,1.9c-1.9,0.7-2.7,2.7-2.1,4.7c4.1,0.6,7.6,2.4,9.5,6.9
		c0.7,1.7,1.8,3.1,3.3,4.1c2.9,2.1,5.9,2.3,8.9,0.2c2.5-1.8,5.3-2.7,8.3-3.2c2.9-0.5,5.5,0,7.1,3.1c0.4,0.7,0.8,1.4,1.5,1.7
		c2.4,1,4.3,2.8,6.3,4.7c1.2,1.1,2.6,1.4,3.9,0.3c1.8-1.5,3.6-0.2,5.4,0c0.7,0.1,0.4,0.8,0,1.1c-0.9,0.6-1.5,1.4-2.1,2.4
		c-0.4,0.6-0.9,0.8-1.6,0.9c-1.8,0.1-3.4-0.3-5.1-0.9c-2.7-1.1-5.4-2.1-8.2-3.3c-1.4-0.6-2.6-0.4-3.6,0.9c-1.2,1.4-2.6,2.2-4.5,2
		c-0.7-0.1-1.5,0.1-2.3,0.2c-0.6,0.1-1.2,0.2-1.2,1c0,0.7,0.3,1.2,0.8,1.5c0.7,0.4,1.5,0.7,2.2,1.1c0.9,0.4,1.6,1.1,1.5,2.3
		c0,1.3-1,1.6-1.8,2c-1.5,0.6-2.9,0.2-4.2-0.8c-2.6-1.9-5.1-3.8-8.1-4.9c-1.3-0.5-2.2-1.6-3-2.7c-3.8-5.6-9.2-8.3-14.7-11
		c-1.9-0.9-3.9-1.6-6-1.9c-2.1-0.3-3.8,0.5-5.1,2.3c-3.1,4.7-5.9,5.5-11.5,3.5c-2.6-0.9-5.1-2.1-7.7-3.2c-1.3-0.6-2.6-0.7-4,0.1
		c-1.1,0.6-2.4,0.4-3.3-0.3c-2.7-2-5.7-2.9-8.8-3.3c-0.6-0.1-1.2-0.3-1.7-0.6c-0.4-0.2-0.9-0.5-0.7-1.1c0.2-0.7,0.7-0.8,1.2-0.7
		c0.6,0.1,1.3,0.3,1.9,0.6c1.1,0.4,2.3,1,3.4,1.4c0.8,0.3,1.8,0.7,2.5-0.4c0.7-1.2-0.2-1.9-0.8-2.6c-1.7-2-3.6-3.8-5.5-5.6
		c-0.4-0.4-0.7-0.8-1.1-1.2l0,0c-1.4-0.9-3-1.4-4.3-2.4c-3.6,0.2-6.7,0.4-9,0.5L478,55.4c1.2,1.4,2.8,2.3,4.2,3.3
		C484,60.1,486.2,60.9,488.2,61.9z"/>
	<path d="M460.9,141.7c1.2,6.3,2.4,15.3,3.4,28.3c1.1,0.4,2.3,0.7,3.5,1c3.9,1,7.9,2,11.9,2.6c1.2,0.2,2.3,0.7,3.3,1.1
		c1.5,0.6,3,0.7,4.5,0.2c1-0.4,1.3-1,0.4-2c-0.4-0.5-1.1-0.9-0.7-1.7c0.4-0.8,1.1-0.8,1.8-0.7c1.4,0.1,2.3,1,3.2,2.1
		c1.8,2.5,2.5,2.6,5.2,1.2c3.3-1.7,6.7-3.2,10-4.9c2.3-2.5,3.6-5.6,4.7-8.9c1.8-5,4.5-6.6,9.3-5.8c1.7,0.3,3.4,0.9,5,1.8
		c1.6-1.4,3.3-1.3,5-0.5c4.2,1.9,8.6,2.8,13.1,3.5c2.5,0.4,5.1,0.9,7.7,0.2c0.7-0.2,1.3-0.5,1.3-1.6c-0.1-1.7-1.7-3.2-3.2-2.7
		c-1.6,0.5-3.3,0.7-4.9,0.9c-2.3,0.2-4.2-0.5-5.7-2.5c-1.2-1.6-2.8-2.6-4.8-2.4c-1.5,0.2-2.5-0.6-3.1-2.1c-0.8-2-2.4-3.2-3.7-4.6
		c-1.1-1.2-1.9-2.7-2.4-4.3c-1.4-0.9-2.7-0.8-3.9,0.5c-0.8,0.9-1.7,1-2.5,0c-1-1.2-2.4-1.4-3.6-2.1c2.1,0,4.1,0.4,6.1-0.1
		c0.4-0.1,0.9-0.2,1.3-0.3c0.9-0.3,1.5-1,1.6-2c0.1-1.1-0.7-1.6-1.5-1.9c-2.4-1.2-4.9-1.5-7.4-1.5c-2.5,0-5,0.1-7.5,0.1
		c-1.1,0-2.2-0.1-3.3-0.4c-3.3-1.1-6.6-1.9-10-2c-1.6-0.1-2.9-0.9-3.5-2.6c-1.2-3.7-3.8-5.1-7-5.6c-3.2-0.5-6.3-1.7-9.5-2.1
		c-0.9-0.1-1.8-0.1-2.7-0.2c-1.5-0.2-2.8-0.8-4.2-1.6c-2.7-1.6-5.7-2.7-8.7-3.3c-0.4-0.1-1-0.1-1.2,0.4c-0.3,0.6,0.1,1,0.4,1.5
		c0.8,1.2,0.7,1.6-0.6,2.1c-0.4,0.2-0.9,0.2-1.4,0.2c-0.3,5.1-0.3,8.4-0.4,9l0.1,0.1l0.2-0.1c0,0,0,0.1,0,0.1c0.8,0.9,2,3.2,3.3,8.9
		c0.4,0.5,0.8,0.9,1.1,1.4c0.5,0.8,1.1,1.6,0.4,2.6C461.3,141.4,461.1,141.6,460.9,141.7z"/>
	<path d="M462.9,71.8c1-0.8,2-1.7,3-2.5c0.8-0.8,1.6-0.8,2.5-0.4c1.5,0.6,3,1,4.6,1c2.8,0.1,5.6,0.7,8.5,0.9c3,0.3,6,0.7,8.9-0.3
		c0.9-0.3,1.5-0.9,1.5-2.1c0.1-1.2-0.7-1.5-1.5-1.8c-3.1-1.3-6.3-1.4-9.6-1.2c-2.6,0.2-5.2,0.5-7.7-0.1c-3.1-0.8-6.1-1.8-9.3-2.1
		c-0.7,3-1.3,6.1-1.9,9.2C462.3,72.2,462.6,72,462.9,71.8z"/>
	<path d="M473.1,90.6c0.8-0.2,1.6-0.6,2.3-1.3c2.5-2.6,6.3-1.9,8,1.5c1.4,2.9,4,4.4,6.7,3.8c2.5-0.6,5-1.4,7.6-1.2
		c1.6,0.1,2.6-2.2,1.6-3.6c-1.7-2.1-3.5-4.1-5.9-5.3c-1-0.5-2.1-0.7-3.3-0.3c-5.2,1.8-10.3,1.1-15.3-0.8c-3.5-1.4-6.7-3.4-9.8-5.7
		c-1.1-0.9-2.4-1.4-3.7-1.5c-1.2,7.1-2.2,14.2-2.9,20.8c1.7-0.1,3.1-1.2,5-3.4c0.6-0.7,1.1-1.4,2-1.4c1.2-0.1,1.9,0.8,1.3,2
		c-0.3,0.7-0.8,1.4,0.1,1.9c0.9,0.5,1.6,0.5,2.3-0.3c0.6-0.8,1-1.7,1.4-2.6C471,91.8,471.8,90.9,473.1,90.6z"/>
	<path d="M466.9,104.7c-1.6,0.2-3.2,0.3-4.8,0.1c-1.7,0.4-3.4,0.9-4.6,2.3c0,0.3,0,0.6-0.1,0.9c0.3,0.2,0.7,0.3,1,0.3
		c2.1-0.1,4,0.7,5.9,1.5c1,0.4,2,0.7,3.1,0.6c1.7-0.2,2.7-1.4,2.5-3.1C469.7,105.4,468.6,104.4,466.9,104.7z"/>
	<path d="M534.1,95.3c-2.6,1.2-5.2,1.1-7.9,0.1c-2.5-0.9-5-2.2-7.8-2.2c0.6,1.1,1.5,1.9,2.7,2.2c2.4,0.6,4.8,1.2,7.3,1.6
		c4.7,0.8,9.4,0.5,14.1,0.5c0.3-0.2,0.9,0.1,1-0.5c0-0.5-0.4-0.7-0.8-0.9C540,94.4,537.1,94,534.1,95.3z"/>
	<path d="M573,176.6c-4.5-3.2-9.3-5.3-14.8-4.5c-3.5,0.5-6.9,2.1-10.4,2.3c-2.1,0.1-4.3,1.1-6.3-0.1c-2.2-1.3-4.7-1.8-7-2.7
		c-0.6-0.2-1.6-0.1-1.5-1.3c0.1-1.2,1-1.3,1.8-1.3c1.7,0.1,3.3,0.7,4.7,1.7c2.8,1.8,7.9,1.5,10.5-0.8c0.7-0.6,1.4-1.3,0.4-2.3
		c-1.2,0.2-2.3,0.1-3.5-0.2c-6.6-1.7-12.9,0-19.2,2.2c-2.8,1-5.5,2.3-7.9,4.3c0,0.6,0,1.1-0.3,1.6c-1.5,2.6-3.4,4.7-6.1,5.7
		c-1.2,0.4-2.2,0.4-3.3-0.4c-2.1-1.6-4.4-1.7-6.6-0.3c-1.9,1.2-3.9,1.4-6,1c-7.7-1.6-15.5-1.7-23.3-1.8c-0.5,0-1,0.2-1.5,0.3
		c2.5,1.5,5,3.1,7.9,3.8c1.9,0.5,2.9,2.3,3.5,4.3c0.4,1.2,0.6,2.5,0.9,3.7c0.3-0.1,0.6,0,0.8-0.3c1.6-1.9,3.8-2.6,6.1-2.8
		c0.6-0.2,1.2-0.3,1.9-0.2c1.4,0,2.9,0,4.1,1c1.4-0.7,2.6-0.6,3.9,0.4c1.7,1.3,3.7,2.1,5.6,2.9c0.5,0.2,1.1,0.4,1.6,0
		c0.3-0.3,0.6-0.6,0.9-0.9c2.2-2.8,4.8-4.3,8.3-3.5c4.4,1,7.9-0.8,10.7-4.7c1.1-1.5,2.4-2.9,3.9-4c1.7-1.3,3.5-2,5.6-1.7
		c1.2-1.1,2.7-1.2,4.2-1.2c1.3,0.1,2.6,0.2,3.9,0.6c3.8,1.1,7.6,1.4,11.5,0.7C562.9,177.2,567.9,176.2,573,176.6z"/>
	<path d="M623.7,184c-0.4,0.2-0.7,0.4-1.1,0.6c-1,0.7-1.3,1.7-0.8,2.9c0.7,1.6,1.9,2.6,3.3,3.3c1.3,0.6,2.6,0.9,3.9,1.1
		c0.4-8.4,0.8-15.8,1.3-21.8c0-0.5,0.1-1,0.1-1.6c-5.2-1.3-10.6-1.7-15.9-2.3c-0.6,0-1.2-0.1-1.8,0c-4.9,0.5-6.3,2.6-6.2,8
		c0,2.8,1.3,4,3.8,4.2c2.2,0.2,4.3-0.3,6.5-0.5c2-0.3,4-0.7,6.1-0.2c1.6,0.4,2.7,1.7,2.8,3.3C625.9,182.6,624.8,183.4,623.7,184z"/>
	<path d="M578.6,165.8c1.8,2.1,3.6,1.9,5.5-0.2c2.3-2.6,4.5-5.3,6.7-8c-3.2-2.2-6.3-2.4-9.4,0.3c-0.6,0.6-1.3,1-2.1,1.4
		c-1.5,0.8-2.2,0.3-2.3-1.5c0-0.7,0-1.5,0-2.2c0-0.5,0.1-1.1-0.4-1.4c-0.5-0.3-0.9,0.1-1.2,0.4c-1.5,1.6-3.3,1.9-5.2,1.8
		c-1.8-0.1-3.5-0.2-5.3-0.3c-0.7,0-1.4-0.2-2.1,0.3C568.4,159,574.3,160.7,578.6,165.8z"/>
	<path d="M573.2,176.6c-0.1-0.1-0.1-0.1-0.2,0c0,0,0.1,0,0.1,0L573.2,176.6z"/>
	<path d="M556.4,340.6c-1.8-0.8-2.6-0.4-3.5,1.5c-0.2,0.5-0.6,1-1,1.5c3.3,1,6.5,2.1,9.8,3.1c0,0,0,0,0,0
		C560.8,343.8,558.9,341.8,556.4,340.6z"/>
	<path d="M614.6,232.6c-1.3-0.3-2.5-0.2-3.8,0c-1.8,0.3-3,1.3-3.5,3.2c-0.5,2,0.2,3.5,1.5,4.7c1.4,1.2,3,2,4.8,1.9
		c3.4-0.1,6.5-1.5,9.4-3.3C620.4,236.8,617.6,234.4,614.6,232.6z"/>
	<path d="M621.3,256.4c-2.3-0.7-4.5-0.3-6.4,1.4C617.2,258,619.3,257.6,621.3,256.4z"/>
	<path d="M613.7,316.6c-0.4,1.3,1,1.4,1.8,1.8c1.4,0.7,3.1,0.9,4,2.5c0.9,0.2,1.8,0.4,2.7,0.5c0.8,0,1.8,0.3,2.1-1
		c-2.7-1.3-5.4-2.7-8.2-4C615.4,316,614.1,315.3,613.7,316.6z"/>
	<path d="M553.6,187.2c0.7,1.3,1.4,2.6,2.4,3.6c1.5,1.4,2.9,1.3,4.1-0.5c0.7-1,1.1-2.1,1.4-3.3C559.5,185.4,555,185.6,553.6,187.2z"
		/>
	<path d="M571.8,138.6c-2.5-0.8-4.8-2.1-7.2-3.2c-0.8,0-1.6,0-2.4,0c-2.3,0-4.6-0.3-6.8,0.3c-1.7,0.5-3,2.1-2.7,3.5
		c0.5,2.5,4.2,6.4,6.6,6.7c5.8,0.8,11.5,0.3,17.2-1.1c2.9-0.7,5.3-2.8,4.5-7.4C578,138.6,574.9,139.6,571.8,138.6z"/>
	<path d="M651.1,66.2c0-0.2,0-0.5,0.1-0.7l-4.9-1.5c-0.1,0.3-0.2,0.6-0.2,1c-0.2,1.3-1.1,2.1-2.4,2.5c-2.3,0.6-3.7,2.4-5.9,3.1
		c-1.1,0.3-1.4,1.6-1.7,2.5c-0.5,2.1-1.2,4.1-1.8,6.2c3.6,22.7,4.3,44.1,4.4,48.2l0.2-0.2c0,0.1,0,0.1,0.1,0.2l0,0l10.9,2.2
		c-0.3-1.2-0.2-2.4,0-3.6c0.7-4,0.9-8.1,1.4-12.1c0.5-3.4,1.6-6.7,2.8-9.9c2.9-7.5,2.3-14.9,0-22.3
		C652.3,76.8,650.5,71.7,651.1,66.2z"/>
	<path d="M697.1,120.1c0.3-2.1-0.5-3.8-2.3-5.1c-4.7-3.1-5.5-5.9-3.5-11.5c0.9-2.6,2.1-5.1,3.2-7.7c0.6-1.3,0.7-2.6-0.1-4
		c-0.6-1.1-0.4-2.4,0.3-3.3c2-2.7,2.9-5.7,3.3-8.8c0-0.1,0-0.2,0.1-0.3l-2-0.6c-0.1,0.2-0.1,0.4-0.2,0.6c-0.2,0.7-0.7,1.4-0.7,2.2
		c-0.2,2.3-0.9,4.4-2.7,6c-0.2,0.2-0.3,0.4-0.4,0.7c-0.6,3.5-2.5,6.8-2.6,10.4c0,1.2-0.2,2.3-0.8,3.4c-0.3,0.6-0.8,1.2-1.7,1.1
		c-0.8-0.1-1.1-0.7-1.3-1.3c-0.7-1.7-0.9-3.6-0.9-5.4c0-1.3,0-2.7-0.3-3.9c-0.6-2.3-2.9-3.3-5.4-2.4c-2,0.7-3.2,2.2-3.9,4
		c-1.2,3-1,6.1-1,9.2c0,3.8,0.3,7.6,1.4,11.3c0.6,2.1,2,3.6,4.2,4.4c1.7,0.7,3.5,1.3,4.9,2.4c1.4,1.1,1.8,2.8,1.1,4.1
		c-0.6,1.2-1.7,1.3-2.6,0.3c-0.7-0.8-0.9-1.7-1.2-2.7c-0.8-2.3-2.3-3-4.9-2.3c-2,0.6-3.5,1.6-4.5,3.3c-0.4,0.7-0.9,1.3-1.5,1.8
		c-1.6,1.2-3.7,1-4.8-0.6c-0.9-1.2-1-2.6-1.1-3.9c-0.2-2.1-0.3-4.2-0.5-6.2c-0.2-2.5-1.6-4-4.5-4.3c-0.3,3.9-1.9,7.6-2.1,11.5
		c-0.1,3.3-0.3,6.8,2.5,9.4l27.4,5.5c3.2-3.3,5.2-7.4,7.2-11.4C696.1,124.2,696.8,122.2,697.1,120.1z"/>
	<path d="M695,138.9l3.3,0.7l0.7-3c-0.4,0.2-0.9,0.5-1.3,0.7C696.7,137.7,695.8,138.2,695,138.9z"/>
	<path d="M700,80c-0.1,0.1-0.1,0.3-0.1,0.4c-0.4,1.1-1,2.3-1.4,3.4c-0.3,0.8-0.7,1.8,0.4,2.5c1.2,0.7,1.9-0.2,2.6-0.8
		c1.5-1.2,2.8-2.5,4.1-3.9L700,80z"/>
	<path d="M687.8,80.4c1.5,1.8,4.7,1.7,5.4-0.8c0.1-0.5,0.3-1,0.5-1.4l-9.4-2.8c0.1,0.4,0.3,0.7,0.6,1.1
		C685.7,77.8,686.7,79.1,687.8,80.4z"/>
	<path d="M660.3,105c0.2,0.3-0.1,0.9,0.5,1c0.5,0,0.7-0.4,0.9-0.8c1.8-2.8,2.2-5.7,0.9-8.7c-1.2-2.6-1.1-5.2-0.1-7.9
		c0.9-2.5,2.2-5,2.2-7.8c-1.1,0.6-1.9,1.5-2.2,2.7c-0.6,2.4-1.2,4.8-1.6,7.3C660.1,95.5,660.4,100.2,660.3,105z"/>
</g>
</svg>
