<?xml version="1.0" encoding="utf-8"?>
<!-- Generator: Adobe Illustrator 25.3.0, SVG Export Plug-In . SVG Version: 6.00 Build 0)  -->
<svg version="1.1" id="Layer_1" xmlns="http://www.w3.org/2000/svg" xmlns:xlink="http://www.w3.org/1999/xlink" x="0px" y="0px"
	 viewBox="0 0 750.2 400.1" style="enable-background:new 0 0 750.2 400.1;" xml:space="preserve">
<g>
	<path d="M119,70c-0.5,0-1,0-1.5,0c-0.6,3.1-1.1,6.2-1.6,9.5c1,0,2.1,0,3.1,0C119,76.3,119,73.2,119,70z"/>
	<path d="M138,306.9c-3.2,0-6.3,0-9.4,0c0,9.5,0,18.9,0,28.4c3.1,0,6.1,0,9.3,0c0,1.1,0,2.1,0,3.1c3,0.2,6.2,0.4,9.6,0.6
		c0-13.9,0-27.7,0-41.6c-3.1,0-6.2,0-9.5,0C138,300.7,138,303.8,138,306.9z"/>
	<path d="M261.4,335.3L261.4,335.3c0-6.3,0-12.5,0-18.9c-3.3,0-6.3,0-9.4,0c0-6.3,0-12.6-0.1-18.9l0,0h-0.1c-3.1,0-6.1,0-9.3,0
		c-0.1,3.1-0.1,6.2-0.1,9.4c-3.2,0-6.2,0-9.4,0c0,6.3,0,12.6,0,19c-6.4,0-12.6,0-19,0c0,3.2,0,6.3,0,9.5c-3.2,0-6.2,0-9.4,0
		c0,1.8,0,3.5,0,5.2h0.9c2.2,0,3.8,0,4.8,0c4.5,0,8.9-0.1,13.2-0.2c0-1.6,0-3.3,0-4.9c3.2,0,6.2,0,9.4,0c0,1.5,0,3.1,0,4.7
		c6.8-0.2,13.2-0.5,19.2-0.8c0-1.3,0-2.7,0-4C255.3,335.4,258.4,335.4,261.4,335.3c0,1.3,0,2.4,0,3.6c3.3-0.2,6.4-0.4,9.3-0.6
		c0-1,0-1.9,0-2.9C267.5,335.4,264.4,335.4,261.4,335.3C261.4,335.4,261.4,335.4,261.4,335.3z M251.9,325.7c-3.1,0-6.2,0-9.4,0
		c0-3,0-6,0-9.3c3.1,0,6.2,0,9.4,0C251.9,319.5,251.9,322.5,251.9,325.7z"/>
	<path d="M261.3,60.5C261.4,60.5,261.4,60.4,261.3,60.5L261.3,60.5z"/>
	<path d="M289.8,117.4c0,3.2,0,6.3,0,9.3c1.1,0,2.1,0,3.2,0c-0.1-1.8-0.3-5.1-0.5-9.3C291.6,117.4,290.7,117.4,289.8,117.4z"/>
	<path d="M270.6,155.6c0-0.1,0-0.3,0-0.4C270.6,155.3,270.6,155.5,270.6,155.6L270.6,155.6z"/>
	<path d="M232.9,212.4c0-0.1,0-0.1,0-0.2c-0.1,0-0.1,0-0.2,0c0,0.1,0,0.1,0,0.2C232.8,212.4,232.8,212.4,232.9,212.4z"/>
	<path d="M283,231.4c0-3.2,0.1-6.4,0.2-9.5c-1,0-2,0-3,0c0,3.1,0,6.2,0,9.5C281.2,231.4,282.1,231.4,283,231.4z"/>
	<path d="M185.7,212.1h-0.1c0,0.1,0,0.1,0,0.2h0.1C185.7,212.2,185.7,212.2,185.7,212.1z"/>
	<path d="M204.4,98.4c0,6.3,0,12.5,0,18.8c3.3,0,6.4,0,9.5,0c0-6.4,0-12.6,0-18.8c-3.1,0-6.2,0-9.3,0c0-3.1,0-6.2,0-9.5
		c-3.3,0-6.4,0-9.5,0c0-1.7,0-3.3,0-4.9c-1-0.2-1.9-0.4-2.9-0.6v0.1l-0.5-0.1c0,0-2.7-0.5-6.2-1.7c0,8.9,0,17.5,0,26.2
		c-3.2,0-6.2,0-9.4,0c0-3.2,0-6.2,0-9.4c-3.3,0-6.3,0-9.4,0c0,3.1,0,6.2,0,9.5c-3.2,0-6.4,0-9.5,0c0,3.1,0,6.2,0,9.5
		c9.6,0,18.9,0,28.4,0c0,3.2,0,6.2,0,9.3c3.1,0,6.2,0,9.4,0c0-9.4,0-18.9,0-28.4C198.3,98.4,201.4,98.4,204.4,98.4z"/>
	<path d="M138.3,259.6c-0.1,0-0.1,0-0.2,0v0.1c0.1,0,0.1,0,0.2,0V259.6z"/>
	<path d="M195.2,288c-0.1,0-0.1,0-0.2,0v0.1c0.1,0,0.1,0,0.2,0V288z"/>
	<path d="M242.5,174.1c0-3,0-6.1,0-9.3c3,0,6.1,0,9.4,0c0-6.5,0-12.7,0-19c-3.1,0-6.1,0-9.4,0c0,3.1,0,6.2,0,9.4
		c-6.4,0-12.6,0-19.1,0c0-3.1,0-6.2,0-9.3c-3.1,0-6.3,0-9.4-0.1c0-6.3,0-12.6,0-19c-6.5,0-12.7,0-19,0c0,3.1,0,6.3,0,9.4
		c-3.1,0-6.3,0-9.4,0c0-3.1,0-6.2,0-9.3c-6.3,0-12.5,0-18.8,0c0,6.4,0,12.7,0,19c3.2,0,6.3,0,9.3,0c0,6.2,0,12.5,0,18.8
		c-3.1,0-6.2,0-9.4,0c0-3,0-6.1,0-9.4c-3.3,0-6.4,0-9.5,0c0-3.1,0-6.1,0-9.4c-9.5,0-18.9,0-28.4,0c0-3.3,0-6.4,0-9.5
		c3.1,0,6.2,0,9.5,0c0-3.3,0-6.4,0-9.5c3.1,0,6.2,0,9.5,0c0-6.5,0-12.7,0-19c3,0,6.2,0,9.2-0.1c0,0.1,0.1,0.1,0,0l0,0
		c0.1,0.1,0.1,0,0,0c0.1,0,0.1,0,0.2,0c0-3.1,0-6.3,0-9.4c-3.1,0-6.2,0-9.5,0c0,3.3,0,6.4,0,9.4c-3.1,0-6.2,0-9.5,0
		c0-3.2,0-6.3,0-9.3c-3.2,0-6.3,0-9.4,0c0,6.4,0,12.6,0,18.8c3.1,0,6.1,0,9.3,0c0,3.3,0,6.4,0,9.4c-3.1,0-6.3,0-9.4,0
		c0-3.1,0-6.3,0-9.4c-3.1,0-6.1,0-9.3,0c0-6.3,0-12.5,0-19c-1.9,0-3.8,0-5.7,0c-1.5,15-2.1,27.6-2.2,29.7l0.8,0.6
		c1.4,2,3.9,8.1,6.1,26.8c0.3,0,0.6,0,0.9,0c0,3.1,0,6.1,0,9.2c0,0.1,0,0.1,0,0.2v0.1c3.1,0,6.2,0,9.4,0c0-3.2,0-6.3,0-9.4
		c3.2,0,6.2,0,9.4,0c0,6.2,0,12.4,0,18.8c-6,0-12.1,0-18.1,0c0.4,5.8,0.8,12.1,1.1,19c8.9,0,17.8,0,26.6,0c0-3.1,0-6.2,0-9.5
		c6.4,0,12.6,0,18.9,0c0,6.3,0,12.4,0,18.7c3.2,0,6.2,0,9.3,0c0-6.3,0-12.5,0-18.8c-3.2,0-6.2,0-9.2,0c0-3.1,0-6.1,0-9.3
		c6.4,0,12.7,0,19,0c0,3.1,0,6.2,0,9.5c3.3,0,6.4,0,9.5,0c0,6.3,0,12.5,0,19c-3.2,0-6.3,0-9.5,0c0,3.2,0,6.2,0,9.2c3,0,6,0,9.2,0
		c0,3.1,0,6.2,0,9.3c-3,0-6.1,0-9.3,0c0-3,0-6.1,0-9.1c-3.1,0-6.1,0-9.4,0c0,3.3,0,6.4,0,9.4c-3.2,0-6.2,0-9.4,0c0-3.2,0-6.2,0-9.4
		c-3.3,0-6.3,0-9.4,0c0-6.2,0-12.5,0-18.9c-3.2,0-6.4,0-9.5,0c0,3.1,0,6.2,0,9.3c-8.8,0-17.4,0-26.3,0c0.1,3.2,0.2,6.4,0.3,9.7
		c5.5,0,10.9,0,16.4,0c0,15.8,0,31.4,0,47.2c6.1,0,12.4,0,18.6,0c0,3.1,0,6.1,0,9.3c-6.2,0-12.4,0-18.8,0c0-3.1,0-6.1,0-9.2
		c-3,0-6,0-9.2,0c0,3.2,0,6.2,0,9.4c-2.2,0-4.4,0-6.6,0c-0.1,6.5-0.3,12.9-0.5,19.1c8.7,0,17.4,0,26.1,0c0,3.2,0,6.3,0,9.4
		c3.1,0,6.1,0,9.4,0c0-6.3,0-12.5,0-18.9c3.3,0,6.4,0,9.5,0c0,6.3,0,12.6,0,18.9c3.3,0,6.4,0,9.5,0c0-3.1,0-6.2,0-9.5
		c3.2,0,6.4,0,9.5,0c0-3.1,0-6.3,0-9.4c3.1,0,6.2,0,9.4,0c0,3.2,0,6.2,0,9.3c3,0,6.1,0,9.2,0c0,3.1,0,6.2,0,9.4c3.2,0,6.2,0,9.4,0
		c0,3.2,0,6.2,0,9.5c-6.3,0-12.5,0-18.8,0c0-6.3,0-12.5,0-18.8c-3,0-6.2,0-9.2,0.1c0,3.1,0,6.2,0,9.5c-3.2,0-6.4,0-9.5,0
		c0,6.3,0,12.5,0,18.8c-3.3,0-6.4,0-9.6,0c0-3.1,0-6.2,0-9.3c-3.2,0-6.2,0-9.3,0c0,10.9,0,21.7,0,32.5c3,0.1,6.1,0.3,9.3,0.4
		c0-4.7,0-9.3,0-14.1c6.4,0,12.6,0,18.8,0c0,3.1,0,6.1,0,9.2c3.3,0,6.3,0,9.3,0c0-3.2,0-6.2,0-9.3c-3.1,0-6.2,0-9.1,0
		c0-6.3,0-12.5,0-18.8c3.3,0,6.4,0,9.5,0c0,3.1,0,6.2,0,9.3c9.5,0,18.9,0,28.5,0c0-12.6,0-25.2,0-37.8c3.1,0,6.2,0,9.5,0
		c0-3.3,0-6.4,0-9.4c3.2,0,6.2,0,9.4,0c0,3.2,0,6.2,0,9.3c3.3,0,6.3,0,9.3,0c0-6.3,0-12.5,0-18.9c-3.2,0-6.2,0-9.4,0
		c0-6.4,0-12.7,0-18.9c3.1,0,6.3,0,9.4,0c0,3.1,0,6.2,0,9.4c6.4,0,12.6,0,18.9,0c0,3.2,0,6.2,0,9.4c-3,0-6.1,0-9.3,0
		c0,3.2,0,6.3,0,9.6c3.1,0,6.1,0,9.3,0c0,6.4,0,12.5,0,18.9c-6.2,0-12.4,0-18.9,0c0,3.3,0,6.4,0,9.5c3.1,0,6.2,0,9.5,0
		c0,3.3,0,6.4,0,9.5c3.2,0,6.2,0,9.4,0c0,3.2,0,6.2,0,9.5c3.2,0,6.3,0,9.5,0c0,7.1,0,14.1,0,21.1c2.6-0.2,5-0.4,7-0.6
		c-1.2-9-2.1-19.2-2.8-30.1c-1.4,0-2.7,0-4.1,0c0-6.2,0-12.4,0-18.8c1.1,0,2.1,0,3.2,0c-0.1-3.2-0.2-6.4-0.3-9.6c-1,0-1.9,0-2.9,0
		c0-3,0-6.1,0-9.3c0.9,0,1.8,0,2.7,0c-0.1-3.2-0.1-6.3-0.1-9.5c-0.9,0-1.7,0-2.6,0c0-3.1,0-6.2,0-9.3c0.8,0,1.7,0,2.6,0
		c0-3.2,0-6.4,0-9.6c-10.4,0-20.8,0-31.1,0c0-3.1,0-6.2,0-9.5c-3.3,0-6.4,0-9.5,0c0-3.1,0-6.2,0-9.4c3.1,0,6.2,0,9.4,0
		c0-3.2,0-6.3,0-9.4c3.2,0,6.2,0,9.4,0c0,3.1,0,6.1,0,9.4c6.5,0,12.7,0,19,0c0-3.1,0-6.1,0-9.4c1.1,0,2.1,0,3.2,0
		c0.1-3.3,0.2-6.5,0.3-9.7c-1.2,0-2.3,0-3.5,0c0-3.1,0-6.1,0-9.2c-3.2,0-6.2,0-9.5,0c0,3,0,6.1,0,9.4c-9.6,0-19,0-28.5,0
		c0,3.1,0,6.2,0,9.4c-3.1,0-6.3,0-9.3,0c0,6.2,0,12.5,0,18.7c-3.1,0-6.2,0-9.5,0c0-3.3,0-6.3,0-9.5c-6.4,0-12.6,0-18.8,0
		c0-6.3,0-12.6,0-18.9c3.2,0,6.3,0,9.3,0c0,3.1,0,6.2,0,9.5c6.4,0,12.6,0,18.8,0c0-3,0-6.2,0-9.2c3.1,0,6.3,0,9.4,0
		c0-6.2,0-12.5,0-18.9c14.1,0,28.2,0,42.4,0c0.3-4.9,0.6-9.5,0.9-13.7c0.4-5.7,0.9-10.6,1.4-14.8c-5.4,0-10.8,0-16.2,0
		c0.2,6.2,0.2,12.2,0.2,18.5C261.3,174.1,252,174.1,242.5,174.1z M128.5,136.3c-3,0-6.1,0-9.3,0c0-3.1,0-6.2,0-9.4
		c3.1,0,6.2,0,9.3,0C128.5,130,128.5,133.2,128.5,136.3z M157,174.1c-3.1,0-6.2,0-9.4,0c0-6.2,0-12.4,0-18.8c3.1,0,6.2,0,9.4,0
		C157,161.5,157,167.7,157,174.1z M233,231.1c3.1,0,6.2,0,9.4,0c0,3.1,0,6.3,0,9.4c-3.1,0-6.3,0-9.4,0
		C233,237.4,233,234.2,233,231.1z M185.4,145.7c-3.1,0-6.2,0-9.4,0c0-3.1,0-6.2,0-9.4c3.3,0,6.4,0,9.4,0
		C185.4,139.4,185.4,142.5,185.4,145.7z M176.1,240.6c3.1,0,6.2,0,9.4,0c0,3.3,0,6.4,0,9.4c-3.1,0-6.3,0-9.4,0
		C176.1,246.9,176.1,243.7,176.1,240.6z M157,231.1c-3,0-6.1,0-9.3,0c0-6.3,0-12.5,0-18.9c3.1,0,6.2,0,9.3,0
		C157,218.5,157,224.8,157,231.1z M157.1,240.5c0-3.2,0-6.3,0-9.4c6.3,0,12.6,0,18.9,0c0,3.3,0,6.4,0,9.4
		C169.8,240.5,163.5,240.5,157.1,240.5z M176,250.1c0,3.1,0,6.1,0,9.3c-3.1,0-6.2,0-9.4,0c0-3,0-6.1,0-9.3
		C169.8,250.1,172.9,250.1,176,250.1z M185.5,278.5c-6.3,0-12.6,0-18.9,0c0-3.1,0-6.1,0-9.3c6.3,0,12.5,0,18.9,0
		C185.5,272.3,185.5,275.4,185.5,278.5z M214,250.1c3.1,0,6.2,0,9.5,0c0-3.3,0-6.4,0-9.5c3.3,0,6.3,0,9.4,0c0,6.3,0,12.5,0,19
		c-3.2,0-6.3,0-9.5,0c0,6.4,0,12.6,0,18.9c-6.2,0-12.5,0-18.9,0c0-3.2,0-6.3,0-9.4c3.1,0,6.2,0,9.5,0C214,262.6,214,256.4,214,250.1
		z M213.9,231.2c0,6.4,0,12.6,0,18.8c-3.1,0-6.2,0-9.5,0c0,6.5,0,12.7,0,19c-3.1,0-6.1,0-9.4,0c0-3.1,0-6.2,0-9.4
		c-3.2,0-6.2,0-9.5,0c0-3.3,0-6.4,0-9.5c3.1,0,6.2,0,9.5,0c0-6.5,0-12.7,0-18.9C201.4,231.2,207.6,231.2,213.9,231.2z M213.8,174.1
		c0,6.5,0,12.7,0,19c-3.1,0-6.2,0-9.5,0c0-3.2,0-6.3,0-9.5c-3.2,0-6.3,0-9.4,0c0-3.1,0-6.2,0-9.5c-3.2,0.1-6.3,0.1-9.4,0.1
		c0-6.2,0-12.5,0-19c3.2,0,6.3,0,9.4,0c0-6.3,0-12.6,0-18.9c3.1,0,6.2,0,9.5,0c0,3.2,0,6.3,0,9.5c3.2,0,6.3,0,9.4,0
		c0,3.1,0,6.2,0,9.5c-6.4,0-12.6,0-18.9,0c0,3.1,0,6.2,0,9.4c12.6,0,25.2,0,37.8,0c0,3.2,0,6.2,0,9.4
		C226.5,174.1,220.3,174.1,213.8,174.1z M232.9,202.6c-6.3,0-12.6,0-18.9,0c0-3.1,0-6.3,0-9.4c3.1,0,6.1,0,9.4,0c0-3.2,0-6.2,0-9.4
		c3.2,0,6.3,0,9.5,0C232.9,190.1,232.9,196.4,232.9,202.6z"/>
	<path d="M280.3,69.9c0-3.2,0-6.3,0-9.4c-6.4,0-12.7,0-18.9,0c0,3.1,0,6.2,0,9.5c-3.3,0-6.4,0-9.6,0c0,3.2,0,6.2,0,9.3
		c-3.2,0-6.3,0-9.4,0c0-4.1,0-8.1,0-12.2c-2.9,3-6.2,5.7-9.5,7.9c0,4.6,0,9.3,0,13.9c6.3,0,12.5,0,18.9,0c0,3.2,0,6.3,0,9.4
		c-3.1,0-6.2,0-9.5,0c0,3.3,0,6.4,0,9.5c-3.1,0-6.2,0-9.4,0c0-6.4,0-12.7,0-18.9c-3.1,0-6.2,0-9.5,0c0-3.1,0-6,0-9.1
		c-3.8,1.4-7.7,2.5-9.4,3c0,5.2,0,10.4,0,15.6c3.1,0,6.1,0,9.4,0c0,9.6,0,19,0,28.3c3.2,0,6.2,0,9.4,0c0-3.2,0-6.2,0-9.4
		c3.3,0,6.3,0,9.4,0c0,3.1,0,6.2,0,9.5c3.3,0,6.4,0,9.5,0c0,6.3,0,12.6,0,18.9c3.1,0,6.3,0,9.4,0c0,3.1,0,6.2,0,9.5
		c3.3,0,6.4,0,9.5,0l0,0c0-3,0-6,0-9c3.1,0,6.1,0,9.4,0c0-3.2,0-6.2,0-9.5c3.2,0,6.3,0,9.5,0c0-3.3,0-6.4,0-9.5c-6.3,0-12.5,0-19,0
		c0.3-10,0.3-19.4,0.3-28.8c-3.2,0-6.3,0-9.4,0c0,9.4,0,18.8,0,28.4c-3.2,0-6.4,0-9.5,0c0-3.1,0-6.2,0-9.5c-3.3,0-6.4,0-9.5,0
		c0-3.1,0-6.3,0-9.4c3.1,0,6.2,0,9.5,0c0-3.3,0-6.4,0-9.5c3.1,0,6.3,0,9.4,0c0-6.3,0-12.6,0-18.8c3.3,0,6.4,0,9.6,0
		c0,3.2,0,6.2,0,9.2c6.3,0,12.6,0,18.8,0c0-0.4,0-0.8,0-1.2c-0.8-6-1.7-12-2.8-17.7C284.7,69.9,282.5,69.9,280.3,69.9z M261.4,136.4
		c3.1,0,6.2,0,9.4,0c0,3.1,0,6.2,0,9.3c-3.1,0-6.3,0-9.4,0C261.4,142.6,261.4,139.6,261.4,136.4z"/>
	<path d="M261.4,98.4C261.4,98.3,261.3,98.3,261.4,98.4L261.4,98.4z"/>
	<path d="M251.9,60.5c3.3,0,6.3,0,9.4,0l0,0c0-2.7,0-5.4,0-8.2L250.2,49c0,0.6,0,1.3-0.1,2.1c0.6,0,1.2,0,1.8,0
		C251.9,54.3,251.9,57.4,251.9,60.5z"/>
	<path d="M261.3,60.5C261.4,60.4,261.3,60.4,261.3,60.5L261.3,60.5z"/>
	<path d="M119.2,337.1c2.7,0.2,5.8,0.5,9.4,0.8c0-0.8,0-1.6,0-2.4c-3.1,0-6.3,0-9.4,0C119.2,335.9,119.2,336.5,119.2,337.1z"/>
	<path d="M280.4,107.8c3.1,0,6.1,0,9.3,0c0-3.2,0-6.2,0-9.3c-3.2,0-6.2,0-9.3,0C280.4,101.7,280.4,104.7,280.4,107.8z"/>
	<path d="M121.1,297.6c-0.2,3.2-0.3,6.3-0.5,9.3c2.7,0,5.4,0,8,0c0-3.1,0-6.2,0-9.3C126,297.6,123.6,297.6,121.1,297.6z"/>
	<path d="M118,335.3c0.4,0,0.8,0,1.1,0c0-3.1,0-6.2,0-9.5C118.8,329.1,118.4,332.3,118,335.3z"/>
	<ellipse cx="125.4" cy="245.3" rx="4.4" ry="6.7"/>
	<path d="M157.1,79.2c-6.3,0-12.5,0-18.8,0c0,3.3,0,6.4,0,9.5c6.4,0,12.6,0,18.8,0c0-3.1,0-6.1,0-9.3c3.1,0,6.2,0,9.4,0
		c0,3.2,0,6.3,0,9.4c-3.1,0-6.3,0-9.4,0c0,3.1,0,6.2,0,9.3c3.1,0,6.3,0,9.4,0c0-2.9,0-6,0.1-9.2c3.1,0,6.1,0,9.4,0c0-4,0-7.9,0-11.9
		c-5.4-3.5-12.3-9.6-17-14.3c-3.7-3.7-4.4-8.6-4.4-11.9c-2,0-3.9,0-5.9,0l-20.1,5.9c0,4.3,0,8.6,0,13c9.5,0,18.9,0,28.5,0
		C157.1,73,157.1,76.1,157.1,79.2z"/>
	<path d="M157.1,98.3C157,98.4,157.1,98.4,157.1,98.3L157.1,98.3z"/>
	<path d="M223.5,136.4c0,3.2,0,6.3,0,9.3c3.1,0,6.2,0,9.3,0c0-3.2,0-6.3,0-9.3C229.6,136.4,226.6,136.4,223.5,136.4z"/>
	<path d="M304.9,104.2c3.1,0,6.2,0,9.4,0c0-12.1,0-24.2,0-36.3l-9.5-2.8c0,3.6,0,7.1,0,10.8c-3.1,0-6.2,0-9.3,0c0,3.1,0,6.3-0.1,9.4
		c3.1,0,6.2,0,9.5,0C304.9,91.7,304.9,97.9,304.9,104.2z"/>
	<path d="M291.5,94.7c1.3,0,2.6,0,3.9,0c0-3.2,0-6.3,0-9.4c-1.7,0-3.3,0-5,0C290.8,88.5,291.2,91.6,291.5,94.7z"/>
	<path d="M304.9,104.2C304.8,104.3,304.9,104.3,304.9,104.2L304.9,104.2z"/>
	<path d="M361.8,81.9l-9.5-2.8c-0.1,2-0.1,4.1,0,6.2c3.1,0,6.2,0,9.5,0C361.8,84.1,361.8,83,361.8,81.9z"/>
	<path d="M352.3,85.3c-3.2,0-6.3,0-9.5,0c0-2.9,0-5.9,0-9l-1.4-0.4c-2.7,0-5.3,0-8,0c0-0.8,0-1.6,0-2.4l-9.7-2.9c0,4.8,0,9.7,0,14.7
		c6.5,0,12.7,0,19,0c0,3.1,0,6.2,0,9.5c-3.2,0-6.3,0-9.5,0c0,3.2,0,6.3,0,9.4c-3.1,0-6.2,0-9.5,0c0,3.3,0,6.4,0,9.5
		c-6.2,0-12.5,0-19,0c0-3.2,0-6.3,0-9.4c-4.1,0-8.3,0-12.4,0c0.3,3.4,0.6,6.6,0.8,9.5c0.7,0,1.4,0,2.2,0c0,3.2,0,6.3,0,9.4
		c-0.5,0-1,0-1.6,0c0.1,2.1,0.2,3.7,0.2,4.5l0.1-0.1h0.1h0.1l1.1,0.2c0-1.5,0-3.1,0-4.6c6.2,0,12.5,0,18.8,0c0,2.8,0,5.5,0,8.4
		l19.1,3.8c0-0.9,0-1.8,0-2.7c-3.1,0-6.2,0-9.4,0c0-6.4,0-12.7,0-19c3.1,0,6.2,0,9.5,0c0-3.3,0-6.4,0-9.5c6.3,0,12.5,0,19,0
		c0,3.2,0,6.3,0,9.5c2.4,0,4.7,0,7,0l4.2-19.1c-3.8,0-7.5,0-11.3,0C352.3,91.5,352.3,88.4,352.3,85.3z"/>
	<path d="M333.3,132.6c6.3,0,12.5,0,18.8,0c0-3.2,0-6.2,0-9.3c-6.3,0-12.5,0-18.8,0C333.3,126.5,333.3,129.6,333.3,132.6z"/>
	<path d="M295.3,75.7c0-3.1,0-6.2,0-9.3c-2.8,0-5.5,0-8.1,0c0.6,3,1.2,6.1,1.7,9.3C291.1,75.7,293.2,75.7,295.3,75.7z"/>
	<path d="M114.4,61l-9.7,2.9c0,8.7,0,17.3,0,26c-3,0-6.1,0-9.3,0c0-3,0-6.1,0-9.4c-6.5,0-12.7,0-19,0c0,3.1,0,6.1,0,9.4
		c3.1,0,6.2,0,9.4,0c0,6.4,0,12.6,0,19.1c-3.1,0-6.2,0-9.3,0c0,3.1,0,6.3-0.1,9.4c-6.3,0-12.6,0-19,0c0,6.5,0,12.7,0,19
		c-2.1,0-4.1,0-6.2,0l0.5,2.3l5.7-1.2c0-0.3,0-0.7,0-1c1.7,0,3.5,0,5.2,0l4.3-0.9c0-2.8,0-5.7,0-8.7c3.2,0,6.3,0,9.5,0
		c0-3.2,0-6.3,0-9.4c3.1,0,6.2,0,9.5,0c0,4.8,0,9.5,0,14.3l9.4-1.9c0-10.4,0-20.8,0-31.3c3.2,0,6.2,0,9.4,0c0,6.2,0,12.4,0,18.9
		c2.1,0,4.1,0,6.1,0c0.6-8.8,1.6-22.4,3.5-35.7C114.4,75.5,114.4,68.2,114.4,61z"/>
	<path d="M76.4,80.4c0-2.7,0-5.4,0-8.1l-19,5.5c0,0.9,0,1.7,0,2.6c-2.9,0-5.8,0-8.8,0l-0.7,0.2c0,3.2,0,6.3,0,9.3
		c-2.4,0-4.8,0-7.1,0l4.2,18.9c4.1,0,8.3,0,12.4,0c0-3.2,0-6.2,0-9.4c-3.2,0-6.2,0-9.4,0c0-3.3,0-6.3,0-9.4c3.1,0,6.2,0,9.5,0
		c0-3.3,0-6.4,0-9.5C63.8,80.5,70.1,80.5,76.4,80.4C76.4,80.5,76.4,80.5,76.4,80.4C76.4,80.5,76.4,80.4,76.4,80.4z"/>
	<path d="M47.8,121.9c0-1.2,0-2.4,0-3.6c-0.3,0-0.5,0-0.8,0L47.8,121.9z"/>
	<path d="M67,99.5c0,3.2,0,6.2,0,9.3c3.2,0,6.3,0,9.3,0c0-3.1,0-6.2,0-9.3C73.1,99.5,70.1,99.5,67,99.5z"/>
	<path d="M85.9,69.4L80.6,71c1.7,0,3.5,0,5.3,0C85.9,70.4,85.9,69.9,85.9,69.4z"/>
	<path d="M463.7,59.6l-7.3,2.2c0,1.5,0,3,0,4.5c1.9,0,3.8,0,5.8,0C462.7,64,463.2,61.8,463.7,59.6z"/>
	<path d="M409.1,75.7L409.1,75.7c6.4,0.1,12.6,0.1,18.9,0.1c0-1.9,0-3.7,0-5.7L409.1,75.7z"/>
	<path d="M456.5,104.3c0.1,0,0.1,0,0.2,0c0.7-8.5,1.9-18.4,3.6-28.5c-10.8,0-21.5,0-32.3,0c0,6.2,0,12.5,0,18.9c-3.2,0-6.3,0-9.4,0
		c0-3.1,0-6.2,0-9.5c-6.5,0-12.7,0-19,0c0-2.2,0-4.5,0-6.7L384,83.2l0.5,2.2c5.1,0,10.1,0,15.2,0c0,3.1,0,6.2,0,9.5
		c6.5,0,12.7,0,19,0c0,3.1,0,6.1,0,9.4c-3.1,0-6.2,0-9.4,0c0,3.2,0,6.3,0,9.5c-3.3,0-6.4,0-9.5,0c0-3.1,0-6.2,0-9.5
		c-3.8,0-7.4,0-11.1,0l2.1,9.6c3.1,0,6,0,8.9,0c0,3.1,0,6.2,0,9.3c3.1,0,6.1,0,9.3,0c0,3.2,0,6.2,0,9.4c-3,0-6.1,0-9.3,0
		c0-3.1,0-6.1,0-9.3c-2.3,0-4.5,0-6.8,0l3.6,16.3l31.7-6.4c0-0.1,0-0.3,0-0.4c0.7,0,1.4,0,2.1,0l16.8-3.4c0-2.1,0-4.1,0-6.1
		c-3.1,0-6.2,0-9.5,0c0-3.2,0-6.4,0-9.5c-3.1,0-6.3,0-9.4,0c0-3.1,0-6.2,0-9.4c3.2,0,6.3,0,9.4,0c0,3.1,0,6.3,0.1,9.4
		c3.1,0,6.2,0,9.5,0c0,3.2,0,6.4,0,9.5c2.8,0,5.6,0,8.5,0c0.2-3.8,0.5-9.6,1-16.4C456.5,105.9,456.5,105.1,456.5,104.3z M428,132.7
		c-3.1,0-6.1,0-9.3,0c0-6.3,0-12.5,0-18.9c3.1,0,6.2,0,9.3,0C428,120.1,428,126.4,428,132.7z M437.6,104.2c0-3.1,0-6.2,0-9.4
		c3.1,0,6.2,0,9.4,0c0-3.2,0-6.2,0-9.4c3.2,0,6.3,0,9.5,0c0,6.3,0,12.5,0,18.8C450.2,104.2,443.9,104.2,437.6,104.2z"/>
	<path d="M573.9,335.4c0.2,0,0.4,0,0.6,0c0-0.1,0-0.1,0-0.2c-0.2,0-0.4,0-0.6,0C573.9,335.3,573.9,335.3,573.9,335.4z"/>
	<path d="M603.1,79.5c0-0.1,0-0.1,0-0.2c-0.1,0-0.1,0-0.2,0c0,0.1,0,0.1,0,0.2C603,79.5,603,79.5,603.1,79.5z"/>
	<path d="M633.1,79.3c-3.7,0-7.4,0-11.1,0c0-3.2,0-6.2,0-9.4c3.2,0,6.3,0,9.4,0c-0.6-3.1-1.3-6.3-2.1-9.3c-5.8,0-11.4,0-17.1,0
		c0,6.4,0,12.5,0,18.9c-3.1,0-6.2,0-9.1,0c0,3,0,6,0,9.1c6.3,0,12.5,0,18.8,0c0,6.3,0,12.6,0,19c3.2,0,6.3,0,9.5,0
		c-0.1,6.5-0.1,12.7-0.1,19c-6.2,0-12.4,0-18.8,0c0-6.2,0-12.4,0-18.8c-3.2,0-6.2,0-9.4,0c0-3.2,0-6.3,0-9.6c-3.3,0-6.4,0-9.5,0
		c0-6.3,0-12.6,0-18.9c3.1,0,6.2,0,9.3,0c0-0.5-0.1-1.1-0.1-1.6c0-8.2,0-16.5,0-24.7c0-0.5,0-1,0-1.6l-1.1-0.3c-2.8,0-5.6,0-8.5,0
		c0,3.2,0,6.2,0,9.4c-6.4,0-12.7,0-18.9,0c0,6.2,0,12.5,0,19c-3.2,0-6.4,0-9.5,0c0,3.1,0,6.2,0,9.5c-3.3,0-6.3,0-9.6,0
		c0,3.2,0,6.3,0,9.5c-3.2,0-6.3,0-9.4,0c0,3.1,0,6.1,0,9.4c3.1,0,6.2,0,9.4,0c0,3.3,0,6.4,0,9.5c-3.1,0-6.2,0-9.5,0
		c0,3.3,0,6.4,0,9.5c-3.1,0-6.1,0-9.4,0c0-6.3,0-12.5,0-18.9c-3.2,0-6.3,0-9.6,0c0-6.4,0-12.7,0-19c-3.1,0-6.2,0-9.4,0
		c0-3.2,0-6.4,0-9.5c3.1,0,6.3,0,9.4-0.1c0-6.3,0-12.6,0-18.9c-3.1,0-6.1,0-9.3,0c0-3.2,0-6.2,0-9.5c3.1,0,6.2,0,9.3,0
		c0-1.4,0-2.8,0-4.2c-7.4,0.2-14,0.6-19,0.9c0,4.2,0,8.5,0,12.8c-3.2,0-6.2,0-9.5,0c0,3.2,0,6.3,0,9.4c-3.2,0-6.2,0-9.4,0
		c0-5.9,0-11.8,0-17.7l-19,5.6c0,0.9,0,1.8,0,2.7c-1.9,0-3.8,0-5.6,0c-0.8,3.1-1.5,6.3-2.1,9.4c5.7,0,11.3,0,17.1,0
		c0,3.2,0,6.2,0,9.5c3.2,0,6.3,0,9.5,0c0,3.2,0,6.2,0,9.4c3.2,0,6.2,0,9.5,0c0,6.5,0,12.7,0,19c3.1,0,6.2,0,9.4,0c0-3.1,0-6.2,0-9.4
		c3.2,0,6.3,0,9.5,0c0,6.3,0,12.4,0,18.8c3.2,0,6.2,0,9.4,0c0,3.2,0,6.3,0,9.5c-3.1,0-6.1,0-9.2,0c0,3.2,0,6.2,0,9.5
		c3,0,6.1,0,9.4,0c0,9.6,0,19,0,28.5c3.1,0,6.2,0,9.4,0c0,3.2,0,6.4,0,9.5c-3,0-6.1,0-9.1,0c0,6.3,0,12.6,0,18.9c-3.1,0-6.3,0-9.4,0
		c0-3.1,0-6.1,0-9.4c-3.1,0-6.2,0-9.4,0c0-3.2,0-6.3,0-9.5c6.2,0,12.4,0,18.5,0c0-3.1,0-6.3,0-9.4c-6.2,0-12.5,0-18.9,0
		c0-15.8,0-31.5,0-47.4c-3.2,0-6.3,0-9.6,0c0-3.3,0-6.4,0-9.5c-3.1,0-6.2,0-9.4,0c0-3.2,0-6.2,0-9.4c-3.2,0-6.2,0-9.4,0
		c0-3.2,0-6.2,0-9.5c-6.4,0-12.6,0-19.1,0c0-3,0-6,0-9c-1,6.4-1.8,12.7-2.4,18.5c3.9,0,7.9,0,11.8,0c0,3.1,0,6.1,0,9.3
		c3.2,0,6.3,0,9.5,0c0,9.6,0,19.1,0,28.5c-3.1,0-6.3,0-9.4,0c0-3.1,0-6.1,0-9.4c-3.2,0-6.2,0-9.5,0c0-3.2,0-6.3,0-9.5
		c-1.4,0-2.7,0-4,0c-0.3,6.1-0.4,10.1-0.5,10.9l0.1,0.1l0.2-0.1v0.1c0.9,1.1,2.6,4.4,4.3,13.2c0-1.7,0-3.4,0-5.2c3.1,0,6.2,0,9.3,0
		c0,3.1,0,6.3,0,9.4c-2.8,0-5.7,0-8.6,0c0.4,2.7,0.9,5.9,1.3,9.5c2.4,0,4.9,0,7.3,0c0-3.1,0-6.3,0-9.4c3.1,0,6.2,0,9.5,0
		c0-3.3,0-6.4,0-9.5c6.2,0,12.5,0,18.8,0c0,9.5,0,18.8,0,28.3c-3,0-6.1,0-9.3,0c0-3,0-6.1,0-9.4c-6.5,0-12.7,0-19,0
		c0,3.1,0,6.1,0,9.4c3.1,0,6.2,0,9.4,0c0,6.4,0,12.6,0,19.1c-3.1,0-6.2,0-9.3,0c0,3.1,0,6.3-0.1,9.4c-1.5,0-3.1,0-4.6,0
		c0.1,3,0.3,6.2,0.4,9.4c1.4,0,2.8,0,4.3,0c0-3.2,0-6.3,0-9.4c3.1,0,6.2,0,9.5,0c0,6.4,0,12.6,0,18.9c3.1,0,6.2,0,9.4,0
		c0-12.6,0-25.2,0-37.8c3.2,0,6.2,0,9.4,0c0,6.2,0,12.4,0,18.9c6.5,0,12.7,0,19,0c0,3.1,0,6.2,0,9.5c-3.2,0-6.3,0-9.5,0
		c0,3.2,0,6.3,0,9.4c-3.1,0-6.2,0-9.5,0c0,3.3,0,6.4,0,9.5c-6.2,0-12.5,0-19,0c0-3.2,0-6.3,0-9.4c-4.5,0-8.9,0-13.4,0
		c0.1,3.1,0.2,6.3,0.3,9.5c1.2,0,2.4,0,3.7,0c0,3.2,0,6.3,0,9.4c-1.2,0-2.3,0-3.5,0c0.1,3.1,0.1,6.2,0.1,9.4c1.1,0,2.3,0,3.4,0
		c0-3.2,0-6.3,0-9.3c6.2,0,12.5,0,18.8,0c0,3.1,0,6.2,0,9.4c-3,0-6.1,0-9.4,0c0,3.3,0,6.4,0,9.5c-3.1,0-6.1,0-9.4,0
		c0,9.5,0,18.9,0,28.4c-1.2,0-2.4,0-3.6,0c-0.2,9.7-0.5,19.4-0.9,28.6c1.5,0,2.9,0,4.5,0c0,6.3,0,12.5,0,18.8c-1.7,0-3.4,0-5.1,0
		c-0.6,6.7-1.2,13.1-2,18.9c2.5,0,5,0,7.6,0c0-6.4,0-12.6,0-18.9c2.9,0,5.8,0,8.9,0c0,3.2,0,6.2,0,9.5c3.3,0,6.4,0,9.5,0
		c0-3.1,0-6.2,0-9.5c3.2,0,6.4,0,9.5,0c0-3.1,0-6.1,0-9.4c-6.3,0-12.5,0-18.8,0c0-9.5,0-18.9,0-28.5c3.1,0,6.2,0,9.4,0
		c0,6.3,0,12.6,0,18.8c6.5,0,12.7,0,18.9,0c0-3.2,0-6.2,0-9.4c-3.2,0-6.2,0-9.4,0c0-3.3,0-6.3,0-9.4c6.3,0,12.6,0,18.9,0
		c0-9.5,0-18.9,0-28.4c-3.1,0-6.2,0-9.5,0c0-6.4,0-12.7,0-19c-3.1,0-6.2,0-9.4,0c0-6.4,0-12.7,0-19c3.1,0,6.2,0,9.5,0
		c0-3.3,0-6.4,0-9.5c6.3,0,12.5,0,19,0c0,3.2,0,6.3,0,9.5c3.3,0,6.3,0,9.4,0c0,3.1,0,6.2,0,9.5c3.3,0,6.4,0,9.4,0c0,3.2,0,6.2,0,9.4
		c-3.2,0-6.2,0-9.4,0c0,3.3,0,6.3,0,9.4c-6.2,0-12.5,0-18.9,0c0,3.2,0,6.4,0,9.5c3.1,0,6.2,0,9.3,0c0,9.5,0,18.9,0,28.5
		c-3.1,0-6.2,0-9.3,0c0,3.1,0,6.1,0,9.4c3.1,0,6.2,0,9.4,0c0,3.3,0,6.3,0,9.4c3.1,0,6.1,0,9.4,0c0-3.2,0-6.2,0-9.5
		c3.3,0,6.4,0,9.5,0c0,6.3,0,12.6,0,19c3.3,0,6.4,0,9.5,0c0,9.5,0,18.9,0,28.4c6.3,0,12.6,0,18.9,0c0-3,0-6.2,0-9.2
		c-2.9,0-5.8,0-8.9,0c0-6.4,0-12.6,0-18.9c-3.1,0-6.3,0-9.4,0c0-3.1,0-6.2,0-9.4c3.3,0,6.4,0,9.4,0c0,3.1,0,6.3,0,9.4
		c6.2,0,12.5,0,18.9,0c0,3.1,0,6.2,0,9.2c2.9,0,6,0,8.9,0c0-6.3,0-12.6,0-19c3.3,0,6.4,0,9.5,0c0-6.3,0-12.5,0-19c3.3,0,6.4,0,9.6,0
		c0-9.6,0-18.9,0-28.4c3.2,0,6.3,0,9.4,0c0-3.1,0-6.1,0-9.4c-6.3,0-12.5,0-18.9,0c0-3.3,0-6.3,0-9.4c-2.9,0-5.9,0-8.8,0
		c0-6.3,0-12.5,0-18.9c3.1,0,6.2,0,9.3,0c0,6.3,0,12.5,0,18.8c6.1,0,12.3,0,18.4,0c0-3.3,0-6.4,0-9.5c-3.1,0-6.2,0-9.5,0
		c0-3.2,0-6.4,0-9.5c-3.1,0-6.3,0-9.4,0c0-3.1,0-6.2,0-9.4c3.2,0,6.3,0,9.4,0c0,3.1,0,6.3,0.1,9.4c3.1,0,6.2,0,9.5,0
		c0,3.2,0,6.4,0,9.5c2,0,3.9,0,5.9,0c0.1-6.5,0.3-12.9,0.4-19c-5.3,0-10.6,0-15.8,0c0-3.1,0-6.2,0-9.4c3.1,0,6.2,0,9.4,0
		c0-3.2,0-6.2,0-9.4c2.4,0,4.7,0,7.1,0c0.2-3.4,0.3-6.6,0.5-9.6c-8.8,0-17.7,0-26.5,0c0-3.1,0-6.2,0-9.5c-3.3,0-6.4,0-9.4,0
		c0-3.2,0-6.2,0-9.4c3.2,0,6.2,0,9.3,0c0-3.3,0-6.3,0-9.3c-6.3,0-12.5,0-18.9,0c0,3.2,0,6.2,0,9.4c-6.4,0-12.7,0-18.9,0
		c0-3.1,0-6.3,0-9.4c3.1,0,6.2,0,9.4,0c0-6.4,0-12.6,0-18.9c3.2,0,6.2,0,9.4,0c0,3,0,6.1,0,9.3c3.2,0,6.3,0,9.6,0c0-3.1,0-6.1,0-9.3
		c6.4,0,12.5,0,18.9,0c0,6.2,0,12.4,0,18.9c3.3,0,6.4,0,9.5,0c0-3.1,0-6.2,0-9.5c3.3,0,6.4,0,9.5,0c0-3.2,0-6.2,0-9.4
		c1.2,0,2.3,0,3.4,0c1.2-4.9,2.4-7,3.1-7.9H637C637.6,128,637.2,104.4,633.1,79.3z M508.2,79.4c0-3.1,0-6.2,0-9.3c3,0,6.1,0,9.3,0
		c0,3.1,0,6.2,0,9.3C514.5,79.4,511.4,79.4,508.2,79.4z M498.6,287.9c-3.1,0-6.3,0-9.4,0c0-3.1,0-6.2,0-9.4c-3.2,0-6.3,0-9.4,0
		c0-3.2,0-6.2,0-9.4c6.2,0,12.4,0,18.8,0C498.6,275.4,498.6,281.6,498.6,287.9z M498.5,250.1c0,3.1,0,6.2,0,9.4
		c-6.2,0-12.4,0-18.8,0c0-3.2,0-6.3,0-9.4C485.9,250.1,492.2,250.1,498.5,250.1z M584.1,70c3,0,6.1,0,9.3,0c0,3.1,0,6.2,0,9.4
		c-3.1,0-6.1,0-9.3,0C584.1,76.3,584.1,73.2,584.1,70z M527.1,202.5c0-3.2,0-6.3,0-9.3c3.1,0,6.2,0,9.5,0c0-6.5,0-12.7,0-19
		c6.3,0,12.6,0,18.9,0c0,3.1,0,6.2,0,9.5c-3.3,0-6.3,0-9.5,0c0,6.4,0,12.6,0,18.8C539.6,202.5,533.4,202.5,527.1,202.5z
		 M564.9,231.1c0,6.2,0,12.5,0,18.9c-3.2,0-6.3,0-9.4,0c0-6.3,0-12.5,0-18.9C558.8,231.1,561.9,231.1,564.9,231.1z M536.6,221.6
		c0-3.1,0-6.1,0-9.3c3.1,0,6.2,0,9.3,0c0,3,0,6,0,9.3C542.8,221.6,539.7,221.6,536.6,221.6z M536.6,250.1c6.3,0,12.6,0,18.9,0
		c0,3.1,0,6.2,0,9.3c-6.3,0-12.5,0-18.9,0C536.6,256.3,536.6,253.2,536.6,250.1z M574.4,306.9c-3.2,0-6.3,0-9.4,0c0-3.1,0-6.3,0-9.4
		c3.1,0,6.3,0,9.4,0C574.4,300.6,574.4,303.7,574.4,306.9z M593.3,297.4c-6.3,0-12.6,0-18.8,0c0-6.3,0-12.5,0-18.8
		c-3.3,0-6.4,0-9.5,0c0,6.4,0,12.6,0,18.8c-6.3,0-12.6,0-18.9,0c0-3.1,0-6.2,0-9.4c-3.2,0-6.3,0-9.4,0c0-6.4,0-12.6,0-19
		c15.8,0,31.5,0,47.3,0c0,3.1,0,6.1,0,9.4c3.2,0,6.2,0,9.4,0C593.3,284.8,593.3,291,593.3,297.4z M565,231c0-3.1,0-6.2,0-9.4
		c3.3,0,6.4,0,9.4,0c0,3.1,0,6.3,0,9.4C571.3,231,568.2,231,565,231z M574.5,240.5c0-3.1,0-6.2,0-9.4c3.1,0,6.1,0,9.3,0
		c0,3.1,0,6.2,0,9.4C580.8,240.5,577.7,240.5,574.5,240.5z M584,269c0-6.2,0-12.5,0-18.8c3.1,0,6.2,0,9.3,0c0,6.2,0,12.4,0,18.8
		C590.2,269,587.1,269,584,269z M584,212c0,3.2,0,6.3,0,9.5c-3.3,0-6.4,0-9.5,0c0-3.1,0-6.2,0-9.5c-6.5,0-12.7,0-18.9,0
		c0-6.4,0-12.6,0-18.9c6.4,0,12.6,0,18.8,0c0,3.1,0,6.2,0,9.5c6.5,0,12.7,0,19,0c0,3.1,0,6.2,0,9.4C590.3,212,587.2,212,584,212z
		 M565,164.8c0,3.1,0,6.2,0,9.4c6.3,0,12.6,0,19,0c0,3.2,0,6.3,0,9.5c6.4,0,12.6,0,18.9,0c0,6.2,0,12.5,0,18.9c-3.2,0-6.3,0-9.4,0
		c0-3.1,0-6.2,0-9.5c-6.5,0-12.7,0-19,0c0-3.1,0-6.2,0-9.5c-3.3,0-6.4,0-9.5,0c0-3.3,0-6.3,0-9.4c-3.1,0-6.3,0-9.4,0
		c0-3.1,0-6.3,0-9.4C558.7,164.8,561.9,164.8,565,164.8z M564.9,155.2c-3.1,0-6.2,0-9.5,0c0,3.3,0,6.4,0,9.5c-3.1,0-6.2,0-9.4,0
		c0-3.1,0-6.2,0-9.4c-3.2,0-6.3,0-9.4,0c0-3.3,0-6.3,0-9.5c3.1,0,6.1,0,9.4,0c0-6.5,0-12.7,0-19c3.1,0,6.2,0,9.5,0
		c0-3.3,0-6.4,0-9.5c3.1,0,6.2,0,9.4,0C564.9,130,564.9,142.6,564.9,155.2z M583.9,126.7c-3.1,0-6.2,0-9.3,0c0-3,0-6.1,0-9.3
		c3.1,0,6.2,0,9.3,0C583.9,120.4,583.9,123.5,583.9,126.7z M584,117.3c0-3.1,0-6.1,0-9.4c-6.3,0-12.6,0-18.9,0c0-3.2,0-6.3,0-9.5
		c9.5,0,18.9,0,28.3,0c0,6.3,0,12.6,0,18.9C590.3,117.3,587.1,117.3,584,117.3z M602.8,126.7c-3,0-6.1,0-9.3,0c0-3.1,0-6.2,0-9.4
		c3.1,0,6.1,0,9.3,0C602.8,120.4,602.8,123.5,602.8,126.7z"/>
	<path d="M536.1,335.1c-3.3,0-6.4,0-9.5,0c0-9.5,0-18.8,0-28.3c-3.1,0-6.2,0-9.3,0c0,9.6,0,19,0,28.5c3.2,0,6.3,0,9.3,0
		c0,3.1,0,6.1,0,9.3c-6.3,0-12.5,0-18.9,0c0-6.2,0-12.4,0-18.8c-3.3,0-6.4,0-9.5,0c0,3.1,0,6.2,0,9.5c-3.2,0-6.4,0-9.5,0
		c0,3.1,0,6.3,0,9.4c-3.1,0-6.2,0-9.5,0c0,3,0,5.8,0,8.5c0.9,0.3,1.9,0.7,2.8,1c2.2,0,4.4,0,6.7,0c0,0.7,0,1.5,0,2.2
		c5.7,1.8,12.2,3.5,19.1,5c0-2.4,0-4.8,0-7.3c9.5,0,18.8,0,28.3,0c0-3.2,0-6.3,0-9.5c3.3,0,6.3,0,9.4,0c0-6.2,0-12.5,0-18.8
		c-3.1,0-6.2,0-9.4,0C536.1,328.8,536.1,331.9,536.1,335.1z M498.5,354.3c-3.1,0-6.2,0-9.3,0c0-3.1,0-6.3,0-9.4c3.1,0,6.1,0,9.3,0
		C498.5,348,498.5,351.1,498.5,354.3z"/>
	<ellipse cx="602.7" cy="240.5" rx="0.4" ry="0.1"/>
	<path d="M583.4,326c0.2,0,0.3,0,0.5,0c0-0.1,0-0.2,0-0.3c-0.2,0-0.3,0-0.5,0C583.4,325.8,583.4,325.9,583.4,326z"/>
	<path d="M574.5,335.2c2.9,0,5.8,0,8.9,0c0-3.2,0-6.2,0-9.2c-2.9-0.1-5.9-0.1-8.9-0.1C574.5,329.1,574.5,332.2,574.5,335.2z"/>
	<path d="M621.8,155.3c0,3.1,0,6.2,0,9.4c3.1,0,5.9,0,8.9,0c0.3-3.5,0.6-6.6,0.9-9.4C628.3,155.3,625.1,155.3,621.8,155.3z"/>
	<path d="M621.9,269.1c2,0,3.9,0,5.8,0c0-3.2-0.1-6.3-0.1-9.5c-1.9,0-3.8,0-5.7,0C621.9,262.7,621.9,265.8,621.9,269.1z"/>
	<path d="M536.5,365.5c0-0.6,0-1.2,0-1.7c-5.3,0-10.7,0-16,0C525.7,364.6,531,365.2,536.5,365.5z"/>
	<path d="M621.8,325.9c-3.1,0-6.2,0-9.5,0c0,9.5,0,18.9,0,28.4c10.3-3.7,17-7.1,19-8.2c0-0.4,0-0.8,0-1.2c-3.1,0-6.2,0-9.5,0
		C621.8,338.5,621.8,332.2,621.8,325.9z"/>
	<path d="M574.5,354.4c-3.3,0-6.4,0-9.4,0c0,3.2,0,6.2,0,9.3c3.4,0,6.8,0,10.2,0c6.5-1,12.5-2.3,18.1-3.7c0-5.1,0-10.1,0-15.2
		c-6.3,0-12.6,0-18.9,0C574.5,348,574.5,351.1,574.5,354.4z"/>
	<path d="M593.4,344.9C593.5,344.9,593.5,344.8,593.4,344.9L593.4,344.9z"/>
	<path d="M612.4,297.6c0,3.2,0,6.2,0,9.4c-3.3,0-6.3,0-9.4,0c0,3.1,0,6.2,0,9.5c6.4,0,12.6,0,18.9,0c0,3.2,0,6.3,0,9.4
		c2.7,0,5.4,0,8.1,0c-0.5-6.1-0.9-12.4-1.2-19c-2.3,0-4.6,0-6.9,0c0-3.2,0-6.2,0-9.3C618.7,297.6,615.7,297.6,612.4,297.6z"/>
	<path d="M555.6,79.2c3.3,0,6.3,0,9.4,0c0-6.3,0-12.6,0-18.9c-3.1,0.1-6.3,0.1-9.5,0.1c0-3.3,0-6.4,0-9.4c-3.2,0-6.3,0-9.3,0
		c0,6.3,0,12.5,0,18.8c3.1,0,6.2,0,9.4,0C555.6,73,555.6,76.1,555.6,79.2z"/>
	<path d="M536.5,98.3c3.3,0,6.4,0,9.5,0c0-6.3,0-12.6,0-18.9c-6.4,0-12.7,0-18.9,0c0,3.1,0,6.3,0,9.4c3.1,0,6.2,0,9.4,0
		C536.5,92,536.5,95,536.5,98.3z"/>
	<path d="M593.5,344.8c3.1,0,6.2,0,9.3,0c0-6.4,0-12.6,0-18.9c-3.2,0-6.3,0-9.3,0C593.5,332.2,593.5,338.5,593.5,344.8z"/>
	<path d="M631.4,344.8c0.2,0,0.3,0,0.5,0c-0.2-1.3-0.4-2.7-0.5-4.2C631.4,342,631.4,343.4,631.4,344.8z"/>
	<path d="M546.1,354.2c3.2,0,6.3,0,9.4,0c0-3.2,0-6.3,0-9.3c-3.1,0-6.3,0-9.4,0C546.1,348,546.1,351.1,546.1,354.2z"/>
	<path d="M574.5,51.1c-3.2,0-6.3,0-9.4,0c0,3.2,0,6.3,0,9.3c3.1,0,6.3,0,9.4,0C574.5,57.3,574.5,54.2,574.5,51.1z"/>
	<path d="M536.4,51c-3.2,0-6.3,0-9.3,0c0,3.1,0,6.3,0,9.4c3.1,0,6.2,0,9.3,0C536.4,57.2,536.4,54.1,536.4,51z"/>
	<path d="M628,287.8c-0.1-3.1-0.2-6.2-0.2-9.3c-1.9,0-3.9,0-5.8,0c0,3.2,0,6.3,0,9.3C624,287.8,626,287.8,628,287.8z"/>
	<path d="M527,231.2c-6.3,0-12.5,0-18.8,0c0,3.2,0,6.3,0,9.3c6.3,0,12.5,0,18.8,0C527,237.3,527,234.2,527,231.2z"/>
	<path d="M470.2,174.3c-2,0-3.8,0-5.7,0c0.2,2.9,0.4,6,0.6,9.3c1.7,0,3.4,0,5.1,0C470.2,180.5,470.2,177.4,470.2,174.3z"/>
	<path d="M649,84.6c3.2,0,6.2,0,9.5,0c0-3.2,0-6.3,0-9.5c8.3,0,16.5,0,24.7,0L648.9,65c0,3.3,0,6.7,0,10.1c-5.1,0-10.2,0-15.5,0
		c1.8,10,2.9,20,3.7,28.6c0.8,0,1.6,0,2.3,0c0-3.1,0-6.2,0-9.5c3.4-0.2,6.4-0.2,9.6-0.2C649,90.8,649,87.8,649,84.6z"/>
	<path d="M696.3,94.2c0,3.2,0,6.2,0,9.2c-6.3,0-12.6,0-18.9,0c0-3.2,0-6.3,0-9.3c-6.3,0-12.5,0-19,0c0,3.3,0,6.3,0,9.4
		c-6.3,0-12.6,0-18.9,0.1c0,3.1,0,6.2,0,9.4c3.1,0,6.2,0,9.4,0c0,3.2,0,6.2,0,9.4c6.3,0,12.6,0,19,0c0,3.7,0,7.4,0,11l19.1,3.8
		c0-1.7,0-3.5,0-5.3c-3.2,0-6.3,0-9.4,0c0-3.2,0-6.2,0-9.4c3,0,6.1,0,9.3,0c0-3.2,0-6.3,0-9.6c5.9,0,11.6,0,17.3,0l1.7-7.5
		c0-3.8,0-7.5,0-11.3C702.6,94.2,699.5,94.2,696.3,94.2z M667.8,112.9c-3,0-6.1,0-9.3,0c0-3.1,0-6.2,0-9.4c3.1,0,6.1,0,9.3,0
		C667.8,106.7,667.8,109.7,667.8,112.9z"/>
	<path d="M677.5,94c3.1,0,6.2,0,9.3,0c0-3.2,0-6.3,0-9.3c-3.2,0-6.2,0-9.3,0C677.5,87.9,677.5,91,677.5,94z"/>
	<path d="M696.3,139.2l2,0.4l3.8-17.1c-1.9,0-3.8,0-5.7,0C696.3,128.2,696.3,133.7,696.3,139.2z"/>
</g>
</svg>
