<?xml version="1.0" encoding="utf-8"?>
<!-- Generator: Adobe Illustrator 25.3.0, SVG Export Plug-In . SVG Version: 6.00 Build 0)  -->
<svg version="1.1" id="Layer_1" xmlns="http://www.w3.org/2000/svg" xmlns:xlink="http://www.w3.org/1999/xlink" x="0px" y="0px"
	 viewBox="0 0 750.2 400.1" style="enable-background:new 0 0 750.2 400.1;" xml:space="preserve">
<g>
	<path d="M119.9,59.4c-1,3.7-1.9,7.8-2.7,12.1c4.3-3.4,8.5-6.7,12.8-10.1c3.4-2.7,6.7-5.3,10.1-8L119.9,59.4z"/>
	<path d="M154.6,51.6c0-1,0-1.8,0.1-2.5l-13.9,4.1c-7.9,6.3-15.8,12.5-23.7,18.8c-0.6,3.4-1.2,7-1.7,10.6
		C128.5,72.2,141.5,61.9,154.6,51.6z"/>
	<path d="M156.5,59.4c-1.3-2.6-1.8-5.3-1.9-7.4c-13.1,10.5-26.2,20.9-39.3,31.3c-0.5,3.3-0.9,6.5-1.2,9.7
		C128.2,81.8,142.3,70.6,156.5,59.4z"/>
	<path d="M125.3,93.4C137,84.1,149,74.6,161.2,65c-0.8-0.8-1.5-1.5-2.2-2.2c-0.8-0.8-1.5-1.8-2.1-2.7c-14.3,11.3-28.6,22.6-42.9,34
		c-0.3,3.1-0.6,6.2-0.9,9.1C117.1,99.9,121.2,96.7,125.3,93.4z"/>
	<path d="M166.7,69.9c-1.6-1.3-3.1-2.7-4.5-4.1c-16.4,13-32.8,26-49.3,39.1c-0.3,2.9-0.5,5.6-0.7,8.2
		C130.4,98.7,148.6,84.3,166.7,69.9z"/>
	<path d="M172.5,74.6c-1.4-1.1-2.9-2.3-4.4-3.5c-18.7,14.8-37.3,29.6-56,44.5c-0.2,2.9-0.3,5.4-0.5,7.4
		C131.8,106.9,152.1,90.8,172.5,74.6z"/>
	<path d="M178.1,78.4c-1.1-0.6-2.4-1.5-3.7-2.4c-12.6,9.9-25.3,20-38.3,30.4c-8.1,6.5-16.4,13.1-24.7,19.7c0,0.9-0.1,1.6-0.1,2
		l0.8,0.6c0.3,0.5,0.7,1.2,1.2,2.3c21.9-17.4,43.9-34.8,65.6-52.1C178.7,78.7,178.4,78.5,178.1,78.4z"/>
	<path d="M114.3,133.7c0.4,1.3,0.8,2.9,1.2,4.8C139.3,119.7,163,101,186.7,82c-1.5-0.5-3.2-1.1-4.9-1.8c-3,2.4-6.1,4.8-9.2,7.3
		C152.9,103.2,133.5,118.5,114.3,133.7z"/>
	<path d="M192.1,83.3l0,0.1l-0.5-0.1c0,0-0.3-0.1-0.9-0.2c-24.9,19.9-49.6,39.6-74.5,59.2c0.2,1.3,0.5,2.7,0.7,4.3
		c26.3-20.9,52.5-41.6,78.8-62.5C194.6,83.8,193.4,83.6,192.1,83.3z"/>
	<path d="M183.9,102.8c7.8-6.3,15.7-12.5,23.6-18.8c-2,0.3-4.1,0.5-6.1,0.5c0,0,0,0,0,0c-27.7,21.8-55.7,44.2-83.8,66.6
		c0.2,1.3,0.3,2.6,0.5,4C140.1,137.7,162,120.3,183.9,102.8z"/>
	<path d="M250.1,50.3c0.4-0.3,0.8-0.7,1.2-1l-1.2-0.4C250.2,49.3,250.2,49.8,250.1,50.3z"/>
	<path d="M259.9,51.8l-3.3-1c-2.6,2-5.2,4.1-7.7,6.1c-0.6,1.9-1.5,3.9-2.9,5.7c-0.1,0.1-0.1,0.2-0.2,0.2
		C250.5,59.3,255.2,55.5,259.9,51.8z"/>
	<path d="M225.9,78.8c-2.6,1.1-5.6,2.1-8,2.8c-32.4,25.7-64.7,51.2-96,76.1c-1,0.8-2.1,1.7-3.1,2.5c0.1,1.1,0.2,2.2,0.3,3.3
		C154.4,135.5,190.1,107.2,225.9,78.8z"/>
	<path d="M265.7,53.6c-49.6,39.4-97.6,77.5-146.2,116c0,0.1,0,0.3,0,0.4c0.1,0.7,0.1,1.5,0.2,2.3c49.4-39.2,98.8-78.4,148.7-118
		L265.7,53.6z"/>
	<path d="M249.8,78.5c8.5-6.8,17.8-14.2,27.2-21.6l-2-0.6c-26.3,21-52.7,41.4-79.4,63c-21.4,17.4-43,33.9-64,50.8
		c-3.8,3-7.6,6.1-11.3,9.1c0,0.6,0.1,1.3,0.1,1.9C163.1,147,206.6,113.1,249.8,78.5z"/>
	<path d="M167.8,152.9c39.9-31.6,77.4-61.5,116.9-92.8c-0.1-0.4-0.2-0.7-0.3-1.1l-0.3-0.1c-49.7,39.3-99.6,79.3-148.9,118.1
		c-4.8,3.8-9.7,7.6-14.5,11.5c0,0.5,0.1,1.1,0.1,1.6C136.3,177.9,151.9,165.5,167.8,152.9z"/>
	<path d="M172.5,158.5c37-29.8,76.4-60.4,114.1-90.4c-0.1-0.4-0.1-0.7-0.2-1.1c-55.3,44-110,87.3-165.2,131.1c0,0.4,0,0.8,0,1.2
		C138.3,185.8,155.5,172.2,172.5,158.5z"/>
	<path d="M288,76.3c0-0.2-0.1-0.4-0.1-0.6c-55.6,44.2-110.9,88-166.4,132.1c0,0.2,0,0.4,0,0.6C176.8,164.5,232.3,120.4,288,76.3z"/>
	<path d="M261.6,106.3c-44.8,35.3-92.5,73.4-139.9,111.1c0,0.1,0,0.1,0,0.2c23.1-18,45.6-36.7,68.6-54.5
		c33.6-26,65.9-52.4,98.9-78.5c0,0,0-0.1,0-0.1C280.3,91.5,271.2,98.7,261.6,106.3z"/>
	<path d="M287.4,337C287.4,336.9,287.4,336.9,287.4,337c-0.1-1.1-0.2-2.2-0.4-3.3c-1.6,1.2-3.1,2.5-4.7,3.7
		C284.1,337.2,285.8,337.1,287.4,337z"/>
	<path d="M286.9,332.8c-0.3-2.5-0.6-5.1-0.8-7.7c-0.2,0.2-0.5,0.4-0.7,0.6c-5.3,4.2-10.6,8.4-16,12.7c4.3-0.3,8.2-0.6,11.6-0.9
		C282.9,335.9,284.9,334.3,286.9,332.8z"/>
	<path d="M285.9,323.5c-0.2-2.3-0.4-4.7-0.6-7.1c-9.6,7.6-19.2,15.2-28.7,22.8c3.7-0.2,7.2-0.4,10.4-0.6
		C273.2,333.5,279.5,328.5,285.9,323.5z"/>
	<path d="M285.1,314.1c-0.2-2.2-0.3-4.4-0.5-6.6c-13.5,10.7-27,21.5-40.6,32.2c3.2-0.1,6.4-0.3,9.4-0.4
		C263.9,330.9,274.5,322.5,285.1,314.1z"/>
	<path d="M274.4,312.7c3.3-2.6,6.7-5.3,10-8c-0.1-2-0.2-4.1-0.3-6.1c-17.5,13.9-35,27.8-52.4,41.5c2.9-0.1,5.8-0.2,8.5-0.3
		C251.5,331,262.9,322,274.4,312.7z"/>
	<path d="M237.9,331.6c15.6-12.3,30.9-24.5,46-36.5c-0.1-1.9-0.2-3.7-0.2-5.6c-21.3,16.8-42.5,33.6-63.7,50.6
		c-0.1,0.1-0.2,0.2-0.3,0.3c2.5,0,5-0.1,7.4-0.1C230.6,337.4,234.2,334.5,237.9,331.6z"/>
	<path d="M283.4,280.5c-25.2,20-50.3,39.9-75.6,60c1,0,1.8,0,2.4,0c1.3,0,2.6,0,3.9,0c23.2-18.5,46.3-37,69.5-55.3
		C283.5,283.7,283.4,282.1,283.4,280.5z"/>
	<path d="M201.6,340.5c27-21.2,54.3-42.9,81.6-64.8c0-1.5-0.1-2.9-0.1-4.4c-18.8,14.9-37.7,29.9-56.5,45
		c-10.1,8.1-20.3,16.1-30.4,24.2c0.9,0,2.2,0,3.7,0L201.6,340.5z"/>
	<path d="M283.1,265.8c0-1.2,0-2.4,0-3.6c-32.7,25.9-65.5,51.9-98.5,78.1c1.5,0,2.9,0,4.4,0.1C220.6,315.3,252.3,290.3,283.1,265.8z
		"/>
	<path d="M283,255.9c0-1,0-1.9,0-2.9c-36.5,29-73.1,58-109.9,87.1c1.2,0,2.4,0.1,3.6,0.1C212.4,311.8,247.6,283.9,283,255.9z"/>
	<path d="M279,249c1.3-1.1,2.6-2.1,4-3.2c0-0.7,0-1.3,0-2c-40.1,31.8-80.8,63.5-121.2,95.9c0.9,0,1.9,0.1,2.8,0.1
		c16.7-13.2,33.5-26.4,50.4-40.1C236.5,282.4,258,265.9,279,249z"/>
	<path d="M275.4,242c2.6-2,5.1-4.1,7.7-6.1c0-0.6,0-1.1,0-1.7c-13.3,10.5-26.7,21.2-40.3,32c-31.4,24.9-61.4,48.7-92,73
		c0.7,0,1.3,0.1,2,0.1C193.8,306.8,234.8,274,275.4,242z"/>
	<path d="M283.2,225.9c0-0.4,0-0.9,0-1.3c-15.1,11.9-30.2,23.9-45.2,36c-31.9,25.7-65.6,52-98.5,78c0.5,0,1,0.1,1.4,0.1
		C188.6,300.9,235.7,263.6,283.2,225.9z"/>
	<path d="M283.4,215.8c0-0.2,0-0.4,0-0.6c-51.3,40.7-102.9,81.7-154.7,122.7c0.3,0,0.5,0,0.8,0.1C181,297.1,232.1,256.5,283.4,215.8
		z"/>
	<path d="M148.9,312.8c43.2-34.1,89.1-70.7,134.8-107.1c0-0.1,0-0.2,0-0.3c-21.4,16.8-42.3,34.1-63.6,50.6
		c-34.7,26.8-68,54.1-102,81c0,0,0.1,0,0.1,0C128.2,329.1,138.2,321.2,148.9,312.8z"/>
	<path d="M51.7,139.5l58.7-11.8c0.2-5.2,2.1-44.3,8.4-68L39.3,83.2L51.7,139.5z"/>
	<path d="M610.4,61.4c7.6,6,15.2,12,22.8,18c-0.9-5.6-2-11.3-3.3-16.8c-2.2-1.8-4.4-3.5-6.7-5.3l-28.8-8.5
		C599.8,53.1,605.1,57.3,610.4,61.4z"/>
	<path d="M580.5,47.4c18,14.3,36.1,28.6,54.2,42.9c-0.4-3.4-0.9-6.9-1.5-10.4c-13.1-10.4-26.3-20.9-39.4-31.3l-1.7-0.5
		C590,48,585.9,47.7,580.5,47.4z"/>
	<path d="M635.9,100.6c-0.3-3.1-0.7-6.3-1.1-9.7c-18.2-14.3-36.4-28.9-54.7-43.5c-3.5-0.2-7.6-0.4-12-0.6
		C590.9,64.9,613.4,82.7,635.9,100.6z"/>
	<path d="M636.7,110.6c-0.2-2.8-0.4-5.8-0.7-8.9c-23.1-18.4-46.2-36.7-69.3-54.9c-3.4-0.1-7-0.2-10.7-0.3c20,15.9,40,31.7,59.2,46.9
		C622.4,99.2,629.6,104.9,636.7,110.6z"/>
	<path d="M637.3,120.4c-0.1-2.3-0.3-5-0.5-8c-27.8-22.1-55.6-44.1-83.1-66c-2.6,0-5.3-0.1-8-0.1c-0.6,0-1.1,0-1.7,0
		C575,71,606.1,95.7,637.3,120.4z"/>
	<path d="M637.6,128.3c0-0.1,0-2.1-0.2-5.5c-32.1-25.5-64.3-51-96.3-76.4c-2.9,0-5.8,0.1-8.7,0.2c35.1,27.9,70,55.5,104.7,83
		c0.3-0.6,0.6-1,0.8-1.3L637.6,128.3z"/>
	<path d="M604.2,106.4c-25.8-20.7-50.7-40.2-75.4-59.7c-2.6,0.1-5.2,0.2-7.6,0.3c37.2,29.5,75.4,59.8,113.5,90
		c0.5-2.2,1-3.9,1.5-5.1C625.4,123.3,614.8,114.8,604.2,106.4z"/>
	<path d="M633.1,145c0.3-1.9,0.6-3.5,0.9-5c-21.8-17.3-43.8-34.7-66.3-52.6c-17.2-13.6-34-27-50.8-40.3c-2.4,0.1-4.6,0.2-6.7,0.4
		c13.1,10.4,26.2,20.8,39.5,31.4c26.6,21.3,53,42.2,79.7,63.2C630.6,143.1,631.8,144.1,633.1,145z"/>
	<path d="M505.2,47.8c-0.7,0-1.3,0.1-1.9,0.1l-3.2,0.9C544.5,84,588,118.6,631.9,153.4c0.2-1.6,0.4-3,0.6-4.4
		C590.1,115.7,548,81.8,505.2,47.8z"/>
	<path d="M495.5,50.3l-3.9,1.2c21.7,17.2,43.4,34.2,64.8,51.4c24.9,19.9,49.7,39.5,74.5,59.2c0.1-1.4,0.3-2.7,0.4-4
		c-38.4-30.7-76.9-61.5-114.5-90.8C509.6,61.5,502.5,55.9,495.5,50.3z"/>
	<path d="M618.5,157.7c-43-34.2-87.8-69.6-132.1-104.8l-3.3,1c49.5,39.2,98.5,78.1,147.2,116.7c0-0.2,0-0.4,0-0.6
		c0.1-0.9,0.1-1.9,0.2-2.8C626.5,164.1,622.5,160.9,618.5,157.7z"/>
	<path d="M477.2,55.6l-2.7,0.8c52.1,41.3,103.6,82.1,155.2,123.1c0.1-0.9,0.1-1.9,0.2-2.8C579,136.5,529,96.8,477.2,55.6z"/>
	<path d="M544.8,119.3C519,98.4,493.5,78.6,468,58.4l-2,0.6c8.5,6.7,16.9,13.4,24.5,19.5c46.3,37.1,92.9,73.3,138.7,109.8
		c0-0.6,0.1-1.3,0.1-1.9c-6.8-5.4-13.6-10.8-20.5-16.3C587.8,153.2,566.3,136.7,544.8,119.3z"/>
	<path d="M605.1,177.1c-46.8-37-94.3-74.9-141.6-112.4c-0.1,0.5-0.2,1-0.3,1.4c36.7,29.1,72,57.1,109.3,86.7
		c19.1,15.1,37.7,29.9,56.2,44.6c0-0.5,0-1.1,0.1-1.6C620.9,189.6,613,183.3,605.1,177.1z"/>
	<path d="M461.8,73.2c-0.1,0.4-0.1,0.7-0.2,1.1c35.3,28,71.8,56.4,106.2,84.2c20.1,16.2,40.3,32.2,60.6,48.1c0-0.4,0-0.8,0-1.2
		C572.7,161.2,517.6,117.6,461.8,73.2z"/>
	<path d="M460.4,82c0,0.2-0.1,0.4-0.1,0.6c56.2,44.5,112.2,89,167.9,133.2c0-0.2,0-0.4,0-0.6C572.1,170.7,516.4,126.5,460.4,82z"/>
	<path d="M478.7,106.3c-6.7-5.3-13.2-10.4-19.5-15.4c0,0,0,0.1,0,0.1c30.1,24,59.9,48.2,90.8,72.1c24,18.6,47.5,38.2,71.7,56.9
		c2.1,1.6,4.2,3.3,6.3,5c0,0,0,0,0-0.1C577.5,184.7,526.4,143.9,478.7,106.3z"/>
	<path d="M463.1,341.3c-0.2,1.7-0.4,3.3-0.6,4.9c2.3,1.1,7.4,3.4,14.6,6.1C472.3,348.7,467.7,345,463.1,341.3z"/>
	<path d="M463.2,340.5c5.4,4.3,10.8,8.5,16.2,12.8c5,1.8,10.9,3.7,17.4,5.5c-11.1-8.8-22-17.5-32.8-26
		C463.7,335.4,463.5,338,463.2,340.5z"/>
	<path d="M464.7,324c-0.2,2.4-0.4,4.8-0.6,7.2c12,9.5,23.9,19,35.9,28.5c4.2,1.1,8.7,2.1,13.4,3C497.2,349.7,481,336.8,464.7,324z"
		/>
	<path d="M465.3,315.1c-0.1,2.3-0.3,4.5-0.4,6.7c17.4,13.8,34.9,27.7,52.3,41.5c3.5,0.6,7.1,1.1,10.8,1.5
		C507,348.1,486.1,331.6,465.3,315.1z"/>
	<path d="M465.8,306.2c-0.1,2.1-0.2,4.1-0.3,6.2c0.1,0.1,0.3,0.2,0.4,0.3c22.7,18.1,44.5,35.3,66.2,52.5c2.9,0.3,5.8,0.4,8.7,0.6
		C516.1,346.1,491,326.2,465.8,306.2z"/>
	<path d="M520.4,340.1c-18.1-14.5-36.1-28.8-54.2-43.1c-0.1,1.9-0.1,3.8-0.2,5.7c12,9.5,24.2,19.2,36.5,28.9
		c14.6,11.6,28.9,22.9,43.1,34.2c0.6,0,1.1,0,1.7,0c1.8,0,3.5,0,5.3-0.1C541.9,357.3,531.2,348.8,520.4,340.1z"/>
	<path d="M466.5,288.1c0,1.6-0.1,3.1-0.1,4.6c30.3,24,60.7,48.4,91.3,72.8c2-0.1,3.9-0.3,5.9-0.4
		C530.9,339.3,498.7,313.7,466.5,288.1z"/>
	<path d="M513.7,316.3c-15.7-12.6-31.3-25-47-37.4c0,1.5-0.1,3-0.1,4.4c29.1,23.2,58.1,46.3,86.6,68.6c5.4,4.2,10.7,8.4,16,12.6
		c1.5-0.2,3.1-0.4,4.6-0.6C553.6,348,533.6,332.2,513.7,316.3z"/>
	<path d="M466.8,269.8c0,1.2,0,2.4,0,3.6c37,29.4,75.1,59.5,113,89.6c1.2-0.2,2.4-0.4,3.6-0.7C544.3,331.3,505.4,300.5,466.8,269.8z
		"/>
	<path d="M466.9,260.6c0,1,0,1.9,0,2.9c40.7,32.3,81.2,64.5,122.8,97.5c1-0.2,1.9-0.5,2.9-0.7C550.4,326.8,508.7,293.7,466.9,260.6z
		"/>
	<path d="M579.6,340.6c-37.5-30.1-75.3-59.6-112.7-89.2c0,0.7,0,1.4,0,2.1c19.3,15.3,38.9,30.5,58.4,46.3
		c24.9,20.1,49.5,39.2,74,58.7c0.7-0.2,1.4-0.4,2-0.6C593.8,351.9,586.4,346.1,579.6,340.6z"/>
	<path d="M497.6,266.2c-10.4-8.2-20.6-16.3-30.7-24.4c0,0.5,0,1.1,0,1.7c46.8,36.9,94.1,74.8,141.4,112.2c0.5-0.2,1-0.3,1.5-0.5
		C572,325.3,535.8,296.6,497.6,266.2z"/>
	<path d="M502.3,260.6c-11.8-9.5-23.7-18.9-35.5-28.3c0,0.4,0,0.9,0,1.3c50.1,39.7,99.8,79.1,150,119.1c0.4-0.1,0.7-0.3,1.1-0.4
		C579.7,321.8,539.8,290.8,502.3,260.6z"/>
	<path d="M466.5,222.8c0,0.2,0,0.4,0,0.6C519.4,265.3,572,307.1,625,349.2c0.2-0.1,0.4-0.2,0.6-0.3
		C572.3,306.8,519.3,264.7,466.5,222.8z"/>
	<path d="M520.2,256c-18.1-14-35.9-28.6-53.9-42.9c0,0.1,0,0.2,0,0.3c42.5,33.8,85,67.7,125.1,99.4c14.2,11.2,27.3,21.6,40.5,32
		c0,0,0-0.1,0-0.1C594.5,315.2,558.2,285.4,520.2,256z"/>
	<path d="M638.6,127.6l0.2-0.2c0,0.1,0,0.1,0.1,0.2l0,0l59.5,12l12.4-56.4l-80.6-23.8C637.3,88,638.4,122.2,638.6,127.6z"/>
</g>
</svg>
