<?xml version="1.0" encoding="utf-8"?>
<!-- Generator: Adobe Illustrator 25.3.0, SVG Export Plug-In . SVG Version: 6.00 Build 0)  -->
<svg version="1.1" id="Layer_1" xmlns="http://www.w3.org/2000/svg" xmlns:xlink="http://www.w3.org/1999/xlink" x="0px" y="0px"
	 viewBox="0 0 750.2 400.1" style="enable-background:new 0 0 750.2 400.1;" xml:space="preserve">
<g>
	<polygon points="202.5,131.2 276.8,56.8 274.2,56.1 202.5,127.8 130.8,56.2 128.2,56.9 201.6,130.4 	"/>
	<path d="M202.6,161.2l85.4-85.4c-0.2-1-0.3-1.9-0.5-2.9l-84.9,84.9l-85.5-85.5c-0.2,0.9-0.3,1.9-0.5,2.8l85.2,85.2L202.6,161.2z"/>
	<path d="M202.7,191.1l88.6-88.6c-0.1-1-0.2-2-0.3-3.1l-88.3,88.3l-89.2-89.2c-0.1,1-0.2,2-0.3,3l88.7,88.7L202.7,191.1z"/>
	<path d="M202.8,224.1L290,137c0.5-1.9,0.9-3.5,1.3-4.7l-88.5,88.5l-89.3-89.3c0.5,1.2,1,2.8,1.5,4.8l87,87L202.8,224.1z"/>
	<path d="M203,254.1l82.5-82.5c0-0.5,0.1-1,0.1-1.5c0.1-0.7,0.1-1.4,0.2-2.1L203,250.8l-83.6-83.6c0.1,1,0.2,1.9,0.2,2.9
		c0,0.2,0,0.5,0.1,0.7l82.5,82.5L203,254.1z"/>
	<path d="M203.1,284.1l80.8-80.8c0-1.2,0.1-2.3,0.1-3.5l-80.9,80.9l-81.9-81.9c0,1.2,0.1,2.3,0.1,3.5l80.9,80.9L203.1,284.1z"/>
	<path d="M203.2,314.1l79.9-79.9c0-1.1,0-2.3,0-3.4l-79.9,79.9L122,229.5c0,1.1,0,2.3,0,3.4l80.3,80.3L203.2,314.1z"/>
	<path d="M203.4,340.5l2.1,0c0.1,0,0.2,0,0.4,0l77.2-77.2c0-1.1,0-2.2,0-3.3l-79.7,79.7l-81.1-81.1c0,1.1,0,2.2,0,3.3l78.6,78.6
		L203.4,340.5z"/>
	<path d="M173.9,340.2l-52.4-52.4c0,1.1-0.1,2.2-0.1,3.2l49,49C171.6,340.1,172.7,340.1,173.9,340.2z"/>
	<path d="M283.8,292.6c0-1.1-0.1-2.1-0.1-3.2L233,340.1c1.2,0,2.3-0.1,3.5-0.1L283.8,292.6z"/>
	<path d="M285.6,320.9c-0.1-1-0.2-2-0.3-3.1l-20.8,20.8c1.2-0.1,2.4-0.2,3.6-0.2L285.6,320.9z"/>
	<path d="M142.7,338.8L120,316.1c-0.1,1-0.2,2.1-0.3,3.1l19.4,19.4C140.2,338.6,141.4,338.7,142.7,338.8z"/>
	<path d="M253.6,50l-2.6-0.8l-0.9,0.9c0,1-0.2,2.3-0.4,3.8L253.6,50z"/>
	<path d="M186.4,81.9c-1.6-0.5-3.5-1.2-5.5-2.1l20.5,20.5l0.8,0.8L224,79.5c-1.7,0.7-3.5,1.3-5.1,1.8l-16.6,16.6L186.4,81.9z"/>
	<path d="M153.8,49.4l-2.6,0.8l3.5,3.5c-0.2-1.3-0.2-2.5-0.1-3.5L153.8,49.4z"/>
	<path d="M202.5,145.9L285.4,63c-0.2-0.9-0.4-1.8-0.7-2.7l-82.2,82.2l-82.7-82.7c-0.2,0.9-0.5,1.8-0.7,2.7l82.5,82.5L202.5,145.9z"
		/>
	<path d="M202.6,175.9l87.2-87.2c-0.1-1-0.2-2-0.4-3l-86.8,86.8L115.1,85c-0.1,1-0.3,2-0.4,3l87.1,87.1L202.6,175.9z"/>
	<path d="M202.7,205.8l89.7-89.7c-0.1-1-0.1-2-0.2-3.1l-89.4,89.4l-90.4-90.4c-0.1,1.1-0.2,2.1-0.2,3.1l89.8,89.8L202.7,205.8z"/>
	<path d="M202.8,238.8l84.2-84.2c0.2-1.3,0.3-2.6,0.5-3.8l-84.7,84.7l-85.3-85.3c0.2,1.2,0.3,2.5,0.5,3.8l84,84L202.8,238.8z"/>
	<path d="M203,268.8l81.6-81.6c0.1-1.2,0.1-2.4,0.2-3.5L203,265.4l-82.6-82.6c0.1,1.2,0.1,2.3,0.2,3.5l81.5,81.5L203,268.8z"/>
	<path d="M203.1,298.8l80.3-80.3c0-1.2,0.1-2.3,0.1-3.4l-80.4,80.4L121.7,214c0,1.1,0.1,2.3,0.1,3.4l80.5,80.5L203.1,298.8z"/>
	<path d="M203.2,330.7L283,251c0-1.1,0-2.2,0-3.3l-79.8,79.8l-81-81c0,1.1,0,2.2,0,3.3l80.2,80.2L203.2,330.7z"/>
	<path d="M219.6,340.4l63.7-63.7c0-1.1-0.1-2.2-0.1-3.3l-67,67C217.3,340.4,218.5,340.4,219.6,340.4z"/>
	<path d="M190.4,340.5L122,272.1c0,1.1,0,2.2-0.1,3.3l65.1,65.1C188.1,340.4,189.2,340.5,190.4,340.5z"/>
	<path d="M159.7,339.6L121,300.9c-0.1,1.1-0.1,2.1-0.2,3.2l35.4,35.4C157.4,339.5,158.5,339.6,159.7,339.6z"/>
	<path d="M284.5,305.6c-0.1-1-0.1-2.1-0.2-3.2l-37.1,37.1c1.2-0.1,2.4-0.1,3.5-0.2L284.5,305.6z"/>
	<path d="M128,337.8l-9.2-9.2c-0.1,1-0.2,2-0.3,3l5.9,5.9C125.5,337.6,126.7,337.7,128,337.8z"/>
	<path d="M286.9,333.3c-0.1-1-0.2-2-0.4-3l-7.3,7.3c1.3-0.1,2.5-0.2,3.6-0.3L286.9,333.3z"/>
	<polygon points="202.4,115.9 264.9,53.3 262.3,52.6 202.4,112.6 142.5,52.7 139.9,53.5 201.5,115.1 	"/>
	<path d="M543.5,89.7l-41.4-41.4l-2.6,0.8l43.2,43.2l0.8,0.8l45.2-45.2c-0.9-0.1-2-0.1-3.1-0.2L543.5,89.7z"/>
	<polygon points="543.7,119.7 479.1,55.1 476.5,55.9 542.8,122.2 543.7,123.1 612.5,54.2 609.9,53.4 	"/>
	<path d="M543.8,149.7l-81-81c-0.2,0.9-0.4,1.9-0.6,2.8l80.8,80.8l0.8,0.8l86.9-86.9c-0.2-0.9-0.4-1.8-0.6-2.7L543.8,149.7z"/>
	<path d="M543.9,182.7l-85.5-85.5c-0.1,1-0.2,2-0.3,3l84.9,84.9l0.8,0.8l91.3-91.3c-0.1-1-0.2-2-0.4-3L543.9,182.7z"/>
	<path d="M544,212.6L456.4,125c-0.1,1.7-0.1,2.8-0.1,3.2l0.1,0.1l0.2-0.1c0,0,0,0.1,0,0.1c0.2,0.2,0.4,0.5,0.6,0.8l86,86l0.8,0.8
		l93.4-93.4c0-1-0.1-2-0.2-3.2L544,212.6z"/>
	<path d="M544.1,242.6L463.6,162c0.1,1.2,0.2,2.4,0.3,3.7l79.4,79.4l0.8,0.8l87.1-87.1c0.1-1.3,0.3-2.6,0.4-3.8L544.1,242.6z"/>
	<path d="M544.3,272.6l-78.7-78.7c0.1,1.1,0.1,2.3,0.1,3.5l77.7,77.7l0.8,0.8l84.8-84.8c0.1-1.2,0.1-2.4,0.2-3.5L544.3,272.6z"/>
	<path d="M544.3,301.6l-77.8-77.8c0,1.1,0,2.3,0.1,3.4l76.9,76.9l0.8,0.8l83.7-83.7c0-1.2,0.1-2.3,0.1-3.4L544.3,301.6z"/>
	<path d="M544.5,331.6L466.9,254c0,1.1,0,2.2,0,3.3l76.7,76.7l0.8,0.8l83.2-83.2c0-1.1,0-2.2,0-3.4L544.5,331.6z"/>
	<path d="M544.6,361.5l-78-78c0,1.1-0.1,2.2-0.1,3.3l77.2,77.2l0.8,0.8l83.3-83.3c0-1.1,0-2.2-0.1-3.3L544.6,361.5z"/>
	<path d="M465.3,315.5l46.9,46.9c1.4,0.3,2.7,0.5,4.1,0.8l-50.8-50.8C465.4,313.4,465.4,314.4,465.3,315.5z"/>
	<path d="M572,364.2c1.3-0.2,2.6-0.4,3.9-0.6l53-53c-0.1-1.1-0.1-2.1-0.2-3.2L572,364.2z"/>
	<path d="M463.1,340.8c-0.1,1-0.2,2-0.4,3l4.9,4.9c1.6,0.7,3.5,1.5,5.7,2.3L463.1,340.8z"/>
	<path d="M613.4,353.9c2-0.7,3.8-1.4,5.5-2.1l12.3-12.3c-0.1-1-0.2-2-0.3-3L613.4,353.9z"/>
	<path d="M542.6,62.3l0.8,0.8l16.5-16.5c-1.1,0-2.2-0.1-3.3-0.1l-13.2,13.2l-13.1-13.1c-1.1,0-2.2,0.1-3.2,0.1L542.6,62.3z"/>
	<polygon points="490.8,51.6 488.2,52.4 542.7,106.9 543.5,107.8 600.6,50.7 598,49.9 543.5,104.4 	"/>
	<polygon points="467.7,58.5 465.1,59.2 542.8,136.9 543.7,137.7 623.9,57.5 621.3,56.8 543.7,134.4 	"/>
	<path d="M460.5,81.1c-0.1,1-0.3,1.9-0.4,2.9l82.9,82.9l0.8,0.8L633,78.5c-0.2-1-0.3-1.9-0.5-2.9l-88.8,88.8L460.5,81.1z"/>
	<path d="M457.2,110.7c-0.1,1.1-0.2,2.1-0.2,3.1l86.1,86.1l0.8,0.8l92.6-92.6c-0.1-1-0.2-2-0.3-3.1l-92.4,92.4L457.2,110.7z"/>
	<path d="M461.4,144.7c0.2,1.2,0.4,2.5,0.6,4l81.2,81.2l0.8,0.8l89.8-89.8c0.3-1.6,0.6-3,0.9-4.3L544,227.3L461.4,144.7z"/>
	<path d="M464.8,177.9c0.1,1.2,0.1,2.3,0.2,3.6l78.3,78.3l0.8,0.8l85.8-85.8c0.1-1.2,0.2-2.4,0.2-3.6l-86.1,86.1L464.8,177.9z"/>
	<path d="M466.2,211.3c0,1.1,0.1,2.3,0.1,3.4l77.1,77.1l0.8,0.8l84.1-84.1c0-1.2,0.1-2.3,0.1-3.5l-84.2,84.2L466.2,211.3z"/>
	<path d="M466.8,237.7c0,1.1,0,2.3,0,3.4l76.7,76.7l0.8,0.8l83.4-83.4c0-1.1,0-2.3,0.1-3.4l-83.5,83.5L466.8,237.7z"/>
	<path d="M466.9,267.6c0,1.1,0,2.2,0,3.3l76.8,76.8l0.8,0.8l83.2-83.2c0-1.1,0-2.2,0-3.3l-83.2,83.2L466.9,267.6z"/>
	<path d="M466.1,300.1l65,65c1.2,0.1,2.4,0.2,3.7,0.3l-68.6-68.6C466.2,297.9,466.1,299,466.1,300.1z"/>
	<path d="M557.6,365.6l70.7-70.7c0-1.1-0.1-2.2-0.1-3.2l-74.1,74.1C555.3,365.7,556.4,365.6,557.6,365.6z"/>
	<path d="M629.5,320.4l-40.8,40.8c1.5-0.3,3-0.7,4.4-1l36.6-36.6C629.7,322.4,629.6,321.4,629.5,320.4z"/>
	<path d="M464.4,328.2l29.8,29.8c1.5,0.4,3,0.8,4.6,1.3l-34.2-34.2C464.6,326.2,464.5,327.2,464.4,328.2z"/>
	<path d="M543.4,77.8l30.7-30.7c-1,0-2.1-0.1-3.2-0.1l-27.5,27.5l-27.2-27.2c-1.1,0.1-2.2,0.1-3.2,0.2l29.6,29.6L543.4,77.8z"/>
</g>
</svg>
