<?xml version="1.0" encoding="utf-8"?>
<!-- Generator: Adobe Illustrator 25.3.0, SVG Export Plug-In . SVG Version: 6.00 Build 0)  -->
<svg version="1.1" id="Layer_1" xmlns="http://www.w3.org/2000/svg" xmlns:xlink="http://www.w3.org/1999/xlink" x="0px" y="0px"
	 viewBox="0 0 750.2 400.1" style="enable-background:new 0 0 750.2 400.1;" xml:space="preserve">

<g>
	<path class="st0" d="M258.5,189c8.9-4.8,17.8-9.4,26.7-13.7c0.1-1.8,0.2-3.6,0.4-5.2c0.1-0.7,0.1-1.3,0.2-2
		c-18.4,9-36.8,19.1-55.3,29.5c11.5-5.1,22.9-10.2,34.4-15.1c-3.7,2.7-7.5,5.5-11.3,8.3C255.3,190.2,256.9,189.6,258.5,189z"/>
	<path class="st0" d="M139.2,223.6c-5.7,1.9-11.5,3.6-17.2,5.1c0,2,0.1,4,0.1,6.1c20.4-4.1,41-10.5,61.8-17.9
		c6.2-2.2,12.4-4.5,18.7-6.8c6.4-2.9,12.9-5.7,19.3-8.7c10.9-8.3,21.7-16.5,32.5-24.4c-5.4,1.9-10.8,3.9-16.1,5.9
		C205.1,197.5,172,212.9,139.2,223.6z"/>
	<path class="st0" d="M250.3,298.4c11-5.5,22.1-10.8,33.2-15.8c-0.2-5-0.3-10-0.3-15c-0.1-4.1-0.1-8.1-0.1-12.2
		c-3.9,1.7-7.8,3.4-11.8,5.2c-3.9,1.8-7.8,3.6-11.8,5.4c-32.2,15-64.3,31.5-96.1,45.3c5.4-1,10.8-2.1,16.2-3.3
		c-16.6,7.6-33.1,14.6-49.6,20.6c-3.8,1.4-7.7,2.7-11.5,4c-0.2,1.5-0.4,3-0.6,4.4c4.5,0.4,10.7,0.9,18.2,1.4
		c6.5-2.8,13.1-5.8,19.6-9c28.4-12.5,56.8-27.3,85.4-41.6c-4,2.3-8.1,4.6-12.1,6.9c-29,15.5-57.9,31.1-86.8,44.1
		c5.3,0.3,11.1,0.6,17.3,0.9c15.1-7.3,30.2-15.2,45.4-23.3c-12.9,7.7-25.8,15.4-38.7,22.7c3-1.4,6-2.8,9.1-4.3
		c21.8-12.2,43.5-25.3,65.3-37.9C243.6,297.4,247,297.9,250.3,298.4z"/>
	<path class="st0" d="M121.2,295.2c-0.2,4.2-0.4,8.4-0.7,12.4c33-9.8,66.3-24.8,99.8-40.1C241.1,258,262,248.4,283,240
		c0-4.8,0.1-9.5,0.2-14.1c-18.7,7.9-37.4,16.8-56,25.7c18.6-9.6,37.3-19,56-27.5c0.1-2.9,0.1-5.7,0.2-8.5
		c-20.8,9.3-41.5,19.8-62.2,30.3c15.1-8.8,30.3-17.5,45.3-25.7c-48.7,21.4-97,47.3-144.9,62.2C121.6,286.7,121.4,291,121.2,295.2z"
		/>
	<path class="st0" d="M121.8,279.4c8.4-4.2,16.9-8.8,25.3-13.5c10.5-3.2,21-6.9,31.6-10.8c16.4-9,32.7-18.4,49-27.7
		c18.5-6.8,37.1-13.6,55.9-19.6c0.1-4.5,0.3-8.8,0.5-13c-16.6,6.5-33.1,13.9-49.6,21.3c-20,12.2-40,24.7-60.2,36.5
		c-3.2-2.5-6.4-5.2-9.5-7.8c-14.3,5.5-28.5,10.5-42.7,14.4c0,4.6-0.1,9.1-0.2,13.6c4.3-1,8.7-2.1,13.1-3.3
		c-4.4,1.8-8.7,3.5-13.1,5.1C121.9,276.1,121.8,277.8,121.8,279.4z"/>
	<path class="st0" d="M231.9,323.1c-9.8,5.8-19.5,11.6-29.3,17.4h0.8h1.5c12.1-7.4,24.2-14.8,36.2-22.2
		C238.1,319.9,235,321.5,231.9,323.1z"/>
	<path class="st0" d="M281.5,311.1c1.1-0.6,2.2-1.1,3.3-1.7c-0.2-3.5-0.4-7.2-0.6-10.9c-26.3,13-52.6,27.7-78.8,42h0.2
		c2.2,0,3.8,0,4.8,0c3.8,0,7.6-0.1,11.3-0.1c17.9-9.9,35.8-19.7,53.7-28.9C277.3,311.3,279.4,311.2,281.5,311.1z"/>
	<path class="st0" d="M281.4,322.6c-11.5,5.4-23.1,11.1-34.6,16.9c13.1-0.6,24.3-1.3,32.7-2c2.5-1.4,4.9-2.7,7.4-4
		c-0.5-4-0.9-8.2-1.3-12.6C284.2,321.6,282.8,322.1,281.4,322.6z"/>
	<path class="st0" d="M154.7,49.1l-29.5,8.7c9.9-0.2,19.9-1.1,29.9-2.6C154.5,52.8,154.5,50.6,154.7,49.1z"/>
	<path class="st0" d="M335.5,81.4c5.3-1.1,10.5-1.9,15.8-2.6L298,63.1c-2.6,0.7-5.3,1.4-7.9,2.1c-1,0.3-2,0.6-3,0.8
		c1.7,8,3.1,17.1,4.1,25.7C305.9,87.3,320.6,83.6,335.5,81.4z"/>
	<path class="st0" d="M51.7,139.5l6.5-1.3c-2.3-0.3-4.7-0.7-7-1.1L51.7,139.5z"/>
	<path class="st1" d="M235.2,106.9c-10.7,5.5-21.5,11.1-32.3,16.6c2.5-1,5-2,7.6-3c18.2-9,36.3-18.1,54.5-26.3
		c2.8,1.1,5.7,2.2,8.5,3.4c5.5-1.9,11.1-3.7,16.7-5.4c-1-8.7-2.3-17.8-4.1-25.8c-2,0.6-3.9,1.1-5.9,1.7c-26.9,8-53.6,18.5-80.1,27.9
		c4.5-0.3,9-0.6,13.6-1c-13.8,5-27.6,9.9-41.4,14.2c-20.3,6.4-40.6,11.3-60.7,13.5c-0.2,2.8-0.2,4.7-0.3,5.5l0.8,0.6
		c1.2,1.8,3.4,6.9,5.4,21.4c3.7-0.7,7.4-1.4,11-2.2C164,138.5,199.6,122.2,235.2,106.9z"/>
	<path class="st0" d="M52.5,113.9c-2.3-0.6-4.6-1.2-6.9-2l3,13.7c10.6,3.9,21.3,6.5,32,8l29.7-6c0-0.9,0.1-2.6,0.3-5
		c-3,0.3-6.1,0.5-9.1,0.7c3.1-0.7,6.1-1.4,9.2-2.2c0.1-1.1,0.1-2.2,0.2-3.5c-3.6,0.4-7.2,0.6-10.8,0.8
		C84.2,119.3,68.3,118,52.5,113.9z"/>
	<path class="st0" d="M111.7,120.9c4.4-1.2,8.8-2.4,13.2-3.8c2.6-0.8,5.2-1.7,7.8-2.6c-6.9,1.3-13.8,2.4-20.7,3.1
		C111.8,118.8,111.8,119.9,111.7,120.9z"/>
	<path class="st0" d="M247.2,62.1c7.8-2.5,15.6-4.9,23.4-7.1l-20.4-6c0.1,2.6-0.5,8.4-3.9,13.4C246.6,62.3,246.9,62.2,247.2,62.1z"
		/>
	<path class="st0" d="M94.4,104.8c5.9-0.1,11.7-0.5,17.6-1.1c0.3-3.4,0.7-7,1.1-10.6c-2,0.5-4,0.9-5.9,1.3
		c-11.8,2.5-23.7,3.9-35.5,4.1c-9.8,0.1-19.7-0.7-29.5-2.6l0.2,1.1c6.4,2.2,12.8,3.9,19.2,5.1C72.5,104.2,83.4,105,94.4,104.8z"/>
	<path class="st0" d="M144.9,97.8c-0.6-0.4-1.3-0.8-1.9-1.2c-1.7-1.1-3.5-2.2-5.2-3.3c16-2.6,32-6.7,48.2-11.5
		c-2.4-0.8-5.2-1.9-7.9-3.4c-2.2-1.2-4.8-3.1-7.5-5.2c-3.2,1.4-6.4,2.8-9.7,4.1c-7.2,3-14.4,5.7-21.7,8.2c-4.6,1.6-9.3,3.1-13.9,4.4
		c-3.7,1.1-7.5,2.1-11.2,3c-0.4,3.7-0.8,7.3-1.1,10.8C123.6,102.4,134.2,100.4,144.9,97.8z"/>
	<path class="st0" d="M292.7,107.5c0.2,2.9,0.4,5.6,0.6,8c0.7-0.2,1.4-0.5,2.1-0.7c1.8,0.3,3.6,0.6,5.4,0.9
		c20.4-7.1,40.8-12.3,61.3-14.4l1.3-5.9c-1.4,0.1-2.8,0.1-4.1,0.2c1.4-0.3,2.8-0.5,4.2-0.8l0.6-2.9c-6.9,0.3-13.8,0.9-20.7,1.9
		C326.5,96.7,309.6,101.6,292.7,107.5z"/>
	<path class="st0" d="M143.3,176.9c19.6-6,39.2-13.6,58.9-21.8c3.5-1.7,7-3.4,10.5-5.2c26.5-12,53.1-24.4,79.7-34
		c-0.2-2.4-0.4-5.1-0.6-8c-19.5,6.9-38.9,15.3-58.3,23.9c11-5.8,22-11.4,33-16.8c-2.6,1-5.2,2-7.8,3c-18.5,8.9-37.1,18.5-55.7,27.8
		c-2.7-1.1-5.4-2.3-8.1-3.4c-20.7,8-41.2,15.4-61.7,20.5c-4.6,1.4-9.2,2.7-13.8,3.9c0.1,1.1,0.2,2.1,0.3,3.2
		c0.2,2.3,0.3,4.6,0.5,7.1c13.1-3.1,26.2-7.3,39.4-12c-6.6,3.4-13.2,6.7-19.9,9.8C140.8,175.6,142,176.2,143.3,176.9z"/>
	<path class="st0" d="M354,118.6c-9.2,0.7-18.3,2-27.4,3.7c-8.5,1.1-17,2.7-25.5,4.4c-1.4,0.4-2.9,0.9-4.3,1.3l24.6,5
		c6.3-2.1,12.7-3.9,19-5.5c-1,0.8-2.1,1.6-3.1,2.4c-2.2,1.6-4.4,3.3-6.5,5.1l5,1c0.5-0.1,0.9-0.2,1.4-0.4c-0.8-0.3-1.7-0.6-2.5-0.9
		c6.9-1.6,13.9-2.9,20.9-3.8l2.6-11.8c-4.2,0.4-8.3,0.9-12.5,1.6C348.4,120,351.2,119.3,354,118.6z"/>
	<path class="st0" d="M271.3,140.5c-28.9,10.8-57.5,23.6-86,34.6c-0.6,0.4-1.1,0.7-1.7,1.1c-2.9,1-5.8,1.9-8.8,2.9
		c-7.6,2.8-15.2,5.5-22.8,8c-4.3,3.1-8.5,6.1-12.8,9.1c-6,1.4-12,2.7-18,3.7c0.1,3.7,0.3,7.6,0.4,11.5c2.8-0.5,5.6-1.1,8.4-1.6
		c29.8-7.5,59.8-19.4,90.1-31.6c12.6-6.3,25.1-12.7,37.7-18.7c10.2-4.9,20.3-9.6,30.5-13.9c1.5-9.5,3.1-14,4.2-16.1
		c-12.1,3.9-24.1,8.3-36.1,13C261.3,141.8,266.3,141.1,271.3,140.5z"/>
	<path class="st0" d="M465.4,189c0.2,4.5,0.4,9.3,0.6,14.3c22.1,6.9,44,15.3,65.7,23.6c16.3,9.7,32.7,19.6,49,29
		c10.6,4.1,21.1,7.9,31.6,11.3c5.1,3,10.3,6,15.4,8.8c0-1.2,0-2.5-0.1-3.7c-1.1-0.5-2.2-0.9-3.3-1.4c1.1,0.3,2.2,0.6,3.3,0.9
		c-0.1-4.9-0.1-9.7-0.1-14.6c-11-3.5-22-7.6-33.1-12.1c-3.1,2.8-6.3,5.5-9.5,8.2c-20.2-12.3-40.2-25.4-60.2-38.1
		C505.1,205.9,485.3,196.8,465.4,189z"/>
	<path class="st0" d="M395.6,135.8l0.8,3.7l9.3-1.9c-1.2-0.3-2.4-0.7-3.5-1C399.9,136.4,397.8,136.1,395.6,135.8z"/>
	<path class="st0" d="M500.9,187c1.6,0.6,3.2,1.2,4.8,1.8c-3.8-2.9-7.5-5.8-11.3-8.6c11.5,5.1,23,10.4,34.4,15.8
		c-21.6-12.7-43.1-25-64.5-35.4c-0.3-0.1-0.7-0.2-1-0.3c0.2,2.3,0.5,4.8,0.7,7.4C476.3,173.6,488.6,180.1,500.9,187z"/>
	<path class="st0" d="M627.8,232.6c0-2.4,0.1-4.7,0.1-7c-2.6-0.8-5.1-1.6-7.7-2.5c-32.8-11.2-65.9-27.2-99.1-42.4
		c-5.4-2.1-10.7-4.1-16.1-6.1c10.7,8.3,21.6,16.8,32.5,25.5c6.5,3,12.9,6.1,19.3,9c6.2,2.4,12.5,4.8,18.7,7.1
		C593.1,222.6,610.5,228.4,627.8,232.6z"/>
	<path class="st0" d="M466.8,236.2c24.2,9.7,48.3,21.3,72.3,32.7c30.1,14.3,60,28.5,89.7,38.6c-0.2-4.7-0.4-9.5-0.6-14.4
		c-0.1-4-0.2-8.1-0.3-12.2c-44.7-15.9-89.7-40.8-135-61.6c15.1,8.6,30.2,17.7,45.3,26.9c-24-12.7-47.9-25.4-72-36.1
		c0.1,3.4,0.2,6.9,0.3,10.4c1.1,0,2.2-0.1,3.3-0.1c20.8,9.6,41.6,20.6,62.4,31.7c-21.8-10.9-43.7-21.7-65.7-31
		C466.6,226.1,466.7,231.1,466.8,236.2z"/>
	<path class="st0" d="M629.5,332.6c-16.5-6.2-33-13.5-49.6-21.5c5.4,1.2,10.8,2.4,16.2,3.4c-31.9-14.4-63.9-31.6-96.1-47.2
		c-3.9-1.9-7.8-3.8-11.8-5.6c-7.1-3.3-14.2-6.5-21.3-9.6c0,4.2,0,8.4,0,12.6c0,2,0,4-0.1,6c0,0.1,0,0.1,0,0.2c0,3.2-0.1,6.4-0.2,9.5
		c14.2,6.5,28.3,13.5,42.5,20.8c3.3-0.5,6.7-1.1,9.9-1.6c21.7,13.2,43.5,26.8,65.3,39.6c3,1.5,6,3,9.1,4.5
		c-12.9-7.6-25.8-15.6-38.7-23.7c20.8,11.6,41.6,22.8,62.3,32.6c7-2.8,11.9-5.1,13.9-6.2c-1.8,0.2-3.6,0.5-5.5,0.7
		c-31.6-14.1-63.2-32.1-94.8-49.7c-4-2.4-8.1-4.8-12.1-7.2c28.6,14.9,57,30.3,85.4,43.4c9,4.5,18.1,8.8,27.1,12.7
		c0.6-0.3,0.9-0.5,1-0.5c-0.5-4-1-8.2-1.4-12.7C630.2,332.9,629.9,332.8,629.5,332.6z"/>
	<path class="st0" d="M518.3,322c13.1,8.3,26.2,16.8,39.4,25.1c-30.4-17.2-60.9-35.2-91.4-50.4c-0.1,3.8-0.3,7.6-0.5,11.3
		c4.1,2.1,8.2,4.2,12.2,6.4c2.1,0.1,4.2,0.2,6.3,0.4c29.2,15.6,58.3,33.1,87.3,49.4c4.5-0.6,8.9-1.3,13.1-2.2
		c-19-11.3-38.1-23.3-57.1-35.1C524.4,325.3,521.4,323.7,518.3,322z"/>
	<path class="st0" d="M531,354c-17.6-9.4-35.3-18.8-53-27.5c-4.4-1.8-8.7-3.5-13.1-5.2c-0.3,4.1-0.6,8.1-1,11.9
		c16.9,9.2,33.9,19.3,50.8,29.6c9.6,1.7,20,2.9,30.8,3c-10.7-5.7-21.3-11.5-32-17.2C519.4,350.4,525.2,352.2,531,354z"/>
	<path class="st0" d="M659.3,113.5c-7.2-0.3-14.4-1.1-21.6-2.2c0,0.6,0.1,1.2,0.1,1.8c6.7,2.1,13.3,4,20,5.5
		c-6.6-0.4-13.2-1.1-19.8-2.1c0.3,5.6,0.5,9.6,0.5,11.2l0.2-0.2c0,0.1,0,0.1,0.1,0.2l59.5,12l1.2-5.3c-4.8,0.6-9.7,1-14.5,1.1
		c-6-1.3-12.1-2.9-18.1-4.7c11.7-0.8,23.3-2.9,34.8-6.5l3.3-15C689.8,113,674.6,114.2,659.3,113.5z"/>
	<path class="st0" d="M459.3,82.8c1.1-7.7,2.6-15.6,4.5-23.2l-46.6,13.8c2.3,0.4,4.6,0.8,6.8,1.3C435.8,76.6,447.5,79.4,459.3,82.8z
		"/>
	<path class="st0" d="M636.9,112.7c0-0.5-0.1-1.1-0.1-1.6c-3.3-0.5-6.7-1.1-10-1.8c2.6,0.9,5.2,1.8,7.8,2.7
		C635.3,112.2,636.1,112.5,636.9,112.7z"/>
	<path class="st0" d="M637.1,116.3c-16.6-2.6-33.3-7.1-50-12.6c-13.7-4.5-27.5-9.6-41.4-14.8c4.5,0.4,9.1,0.8,13.6,1.1
		c-26.5-9.8-53.2-20.8-80.1-29.1c-3.2-1-6.3-1.9-9.5-2.9l-4.8,1.4c-2,7.7-3.5,15.9-4.6,23.8c8.6,2.5,17.1,5.4,25.7,8.4
		c2.9-1.2,5.7-2.3,8.5-3.5c18.1,8.6,36.3,18.1,54.5,27.5c2.5,1,5.1,2.1,7.6,3.1c-10.8-5.7-21.5-11.6-32.3-17.3
		c35.7,16,71.2,32.9,106.7,42.7c0.8,0.2,1.5,0.3,2.3,0.5c1.8-11,3.7-14.9,4.8-16.2h-0.3C637.6,128.2,637.5,123.6,637.1,116.3z"/>
	<path class="st0" d="M621.6,87.1c-1.7,1.2-3.4,2.3-5.2,3.5c-0.6,0.4-1.3,0.8-1.9,1.2c7,1.8,13.9,3.3,20.9,4.5
		c-0.4-4.1-1-8.4-1.6-12.8c-4.5-1.4-9.1-2.9-13.6-4.5c-7.2-2.6-14.5-5.5-21.7-8.6c-16.9-7.2-33.7-15.5-50.5-24c-0.7,0-1.5,0-2.2,0
		c-3.3,0-6.6,0-9.8,0.1c3.3,2.5,6.6,4.9,9.9,7.4c-6.4-2.4-12.9-4.8-19.3-7.2c-9.8,0.3-18.2,0.8-23.2,1.2l-6,1.8
		c5,1.6,10,3.2,14.9,4.8C549.2,66.8,585.6,81.1,621.6,87.1z"/>
	<path class="st0" d="M687.8,92.6c-11.9-0.1-23.7-1.7-35.5-4.3c-5.8-1.3-11.6-2.8-17.4-4.6c0.6,4.4,1.2,8.6,1.6,12.7
		c9.5,1.6,19.1,2.5,28.6,2.7c11,0.2,21.9-0.7,32.8-2.9c3.5-0.7,7.1-1.6,10.6-2.6l0.5-2.5C701.9,92.2,694.8,92.7,687.8,92.6z"/>
	<path class="st0" d="M457.3,110c0.5,0.2,0.9,0.3,1.4,0.5c1.8-0.3,3.6-0.6,5.4-0.9c27.6,10.2,55.2,23.6,82.7,36.6
		c3.5,1.8,7,3.6,10.5,5.4c19.7,8.5,39.3,16.5,58.9,22.7c1.3-0.7,2.5-1.3,3.7-2c-6.6-3.2-13.3-6.7-19.9-10.2
		c10.1,3.8,20.1,7.2,30.1,10.1c0.1-0.7,0.1-1.4,0.2-2.1c0.2-3.2,0.5-6.1,0.7-8.8c-1.6-0.5-3.1-1-4.7-1.5c-20.5-5.4-41-13-61.7-21.4
		c-2.7,1.2-5.4,2.4-8.1,3.6c-18.6-9.7-37.2-19.8-55.7-29c-2.6-1.1-5.2-2.1-7.8-3.1c11,5.6,22,11.5,33,17.5
		c-22.5-10.5-45.1-20.6-67.7-28.3C457.8,102.9,457.5,106.6,457.3,110z"/>
	<path class="st0" d="M416,87.7c-10.5-1.5-20.9-2.3-31.4-2.1l0.3,1.5c5.1,0.6,10.2,1.4,15.3,2.5c-5-0.3-9.9-0.5-14.9-0.4l1.2,5.5
		c23.3,1.1,46.6,6.8,69.8,15c0.3-3.4,0.6-7.1,1-11C443.5,94,429.8,90.2,416,87.7z"/>
	<path class="st0" d="M539.3,175.7c29.9,12.6,59.6,24.9,89.1,32.7c0.1-4.1,0.3-8.1,0.4-11.9c-2.9-0.6-5.7-1.3-8.6-2
		c-4.3-3.1-8.6-6.3-12.8-9.5c-7.6-2.6-15.2-5.4-22.8-8.3c-2.9-1-5.8-2-8.8-3c-0.6-0.4-1.1-0.8-1.7-1.2c-28.5-11.6-57.2-24.9-86-36.2
		c5,0.6,10,1.3,14.9,2c-14.9-6-29.8-11.7-44.7-16.4c-0.6-0.1-1.2-0.2-1.7-0.4c-0.2,3.6-0.2,5.9-0.2,6.5l0.1,0.1l0.2-0.1v0.1
		c0.8,0.9,2,3.2,3.3,8.7c13.9,5.7,27.8,12.3,41.7,19.3C514.2,162.5,526.7,169.1,539.3,175.7z"/>
	<path class="st0" d="M405.4,113.5c2.8,0.7,5.6,1.4,8.4,2.2c-7.7-1.2-15.4-2.1-23.2-2.5l2.6,11.8c10.5,1,21,2.8,31.5,5.3
		c-0.8,0.3-1.7,0.6-2.5,0.9c2.2,0.5,4.3,1.1,6.5,1.7l2.4-0.5c-3-2.5-5.9-4.9-8.9-7.2c-1-0.8-2.1-1.6-3.1-2.5
		c7.8,2.1,15.7,4.6,23.5,7.4l12.8-2.6c0-1,0.1-3.1,0.2-6.1c-7.6-1.6-15.2-3-22.8-4.1C423.7,115.7,414.5,114.3,405.4,113.5z"/>
</g>
</svg>
