<?xml version="1.0" encoding="utf-8"?>
<!-- Generator: Adobe Illustrator 25.3.0, SVG Export Plug-In . SVG Version: 6.00 Build 0)  -->
<svg version="1.1" id="Layer_1" xmlns="http://www.w3.org/2000/svg" xmlns:xlink="http://www.w3.org/1999/xlink" x="0px" y="0px"
	 viewBox="0 0 750.2 400.1" style="enable-background:new 0 0 750.2 400.1;" xml:space="preserve">
<g>
	<path d="M134.4,338.2c4.8,0.3,10.1,0.7,15.9,1c35.1-13.8,70.2-13.8,105.3,0c5.8-0.3,11.2-0.6,15.9-1
		C225.8,317.1,180.1,317.1,134.4,338.2z"/>
	<path d="M203.4,340.5l2.1,0c2.2,0,3.8,0,4.8,0c9.6,0,18.8-0.2,27.4-0.5c-23.1-6.6-46.2-6.6-69.3,0c8.4,0.3,17.4,0.5,26.8,0.5
		c1,0,2.6,0,4.8,0L203.4,340.5z"/>
	<path d="M120.2,312.2c-0.2,2.9-0.4,5.7-0.7,8.5c55.3-22.8,110.7-22.9,166-0.4c-0.2-2.7-0.5-5.5-0.7-8.4
		C230,292,175.1,292.1,120.2,312.2z"/>
	<path d="M118.7,329.1c-0.3,2.7-0.6,5.3-1,7.8c0.7,0.1,1.4,0.1,2.1,0.2c55.4-28,110.8-28,166.2-0.1c0.4,0,0.9-0.1,1.3-0.1
		c0,0,0,0,0,0c-0.4-2.6-0.7-5.4-1-8.2C230.5,303.2,174.6,303.3,118.7,329.1z"/>
	<path d="M283.6,287.7c-0.1-2.6-0.2-5.1-0.3-7.8c-53.9-11.8-107.7-11.7-161.6,0.2c-0.1,2.6-0.2,5.2-0.3,7.8
		C175.6,274.2,229.6,274.2,283.6,287.7z"/>
	<path d="M284.3,303.2c-0.1-2.6-0.3-5.3-0.4-8c-54.2-15.3-108.5-15.3-162.7,0.2c-0.1,2.7-0.3,5.4-0.4,8
		C175.3,285.9,229.8,285.8,284.3,303.2z"/>
	<path d="M122.2,257.8c53.6-7.4,107.2-7.4,160.8-0.1c0-2.5,0-5,0-7.5c-53.6-5.9-107.2-5.9-160.8,0.1
		C122.2,252.8,122.2,255.3,122.2,257.8z"/>
	<path d="M283.2,272.4c-0.1-2.5-0.1-5.1-0.1-7.6c-53.7-8.7-107.3-8.6-161,0.1c0,2.5-0.1,5.1-0.1,7.6
		C175.7,262.3,229.5,262.3,283.2,272.4z"/>
	<path d="M283.2,227.8c0-2.5,0.1-4.9,0.2-7.4c-53.8-0.7-107.7-0.7-161.5,0c0.1,2.4,0.1,4.9,0.2,7.4
		C175.7,225.8,229.4,225.8,283.2,227.8z"/>
	<path d="M283,242.3c0-2.5,0-5,0.1-7.4c-53.7-3.2-107.3-3.2-161,0.1c0,2.5,0,4.9,0.1,7.4C175.8,237.8,229.4,237.8,283,242.3z"/>
	<path d="M284,198.6c0.1-2.5,0.2-5,0.3-7.5c-54.5,4.5-109,4.5-163.5-0.1c0.1,2.4,0.2,4.9,0.3,7.5C175.4,201.7,229.7,201.8,284,198.6
		z"/>
	<path d="M283.5,213.1c0.1-2.5,0.2-5,0.2-7.4c-54.1,1.9-108.2,1.9-162.3,0c0.1,2.4,0.2,4.9,0.2,7.4
		C175.6,213.7,229.6,213.7,283.5,213.1z"/>
	<path d="M285.8,168.2c0.2-2.8,0.4-5.4,0.7-7.8c-55.9,10.9-111.8,10.8-167.7-0.2c0.2,2.4,0.5,5,0.7,7.8
		C174.9,177.3,230.3,177.3,285.8,168.2z"/>
	<path d="M284.8,183.1c0.1-2.6,0.3-5.2,0.5-7.6c-55.1,7.6-110.2,7.5-165.3-0.1c0.2,2.4,0.3,5,0.5,7.6
		C175.2,189.1,230,189.2,284.8,183.1z"/>
	<path d="M290.3,135.8c1.2-4.6,2.3-6.6,3-7.5l-0.2,0c0,0,0-0.6-0.1-1.6c-60.5,21.4-121,21.2-181.6-0.6c0,0.9-0.1,1.5-0.1,1.8
		l0.8,0.6c0.7,1,1.6,3,2.7,6.9C173.3,153.5,231.8,153.6,290.3,135.8z"/>
	<path d="M287.4,152.1c0.4-3.1,0.8-5.8,1.2-8.1c-57.3,15.2-114.7,15.1-172-0.2c0.4,2.4,0.8,5.1,1.2,8.2
		C174.3,164.9,230.8,165,287.4,152.1z"/>
	<path d="M291.2,101.9c-0.3-2.7-0.5-5.5-0.9-8.3c-58.8,31.2-117.5,30.9-176.3-0.8c-0.3,2.9-0.6,5.7-0.9,8.4
		C172.6,130.3,231.9,130.5,291.2,101.9z"/>
	<path d="M292.5,118.1c-0.2-2.4-0.4-5.2-0.6-8.2c-59.8,26.3-119.6,26-179.4-0.7c-0.2,3-0.4,5.8-0.6,8.3
		C172.1,141.7,232.3,141.9,292.5,118.1z"/>
	<path d="M286.7,69c-0.6-2.9-1.2-5.6-1.9-8.2c-55,41.2-110,40.9-165-1.1c-0.7,2.6-1.3,5.4-1.9,8.3C174.2,107.5,230.4,107.8,286.7,69
		z"/>
	<path d="M289.4,85.4c-0.4-2.8-0.8-5.6-1.2-8.4c-57.2,36.4-114.5,36-171.7-1c-0.5,2.8-0.9,5.6-1.3,8.5
		C173.2,118.8,231.3,119.1,289.4,85.4z"/>
	<path d="M146.5,51.5c3.1,2.2,6.1,4.2,9.2,6.1c-1.2-3.3-1.2-6.6-1-8.5L146.5,51.5z"/>
	<path d="M259.3,51.7l-8.6-2.5c-0.2,0.1-0.4,0.3-0.6,0.4c0,2.2-0.4,5.7-2,9.4C251.9,56.8,255.6,54.3,259.3,51.7z"/>
	<path d="M276.6,56.8l-8.9-2.6C257.8,61.4,248,67,238.2,71c-3.9,3.3-8.1,5.9-11.4,7.4c-5.7,2.5-13.6,4.5-13.7,4.6l-0.5,0.1l0-0.1
		c-3.7,0.9-7.5,1.4-11.1,1.4c-0.4,0-0.7,0-1.1,0c-2.8-0.1-5.6-0.5-8.2-1.1l0,0.1l-0.5-0.1c-0.1,0-7.2-1.4-13.5-4.9
		c-2.9-1.6-6.6-4.4-10.2-7.4c-9.9-4-19.9-9.7-29.8-17l-8.9,2.6C178.4,93.8,227.5,93.8,276.6,56.8z"/>
	<path d="M513.1,362.5c21.4-8.1,42.9-7.8,64.3,0.9c4.2-0.7,8.2-1.5,12.1-2.4c-29.4-14.5-58.9-14.9-88.3-1.1
		C504.9,360.8,508.9,361.7,513.1,362.5z"/>
	<path d="M561.7,365.3c-11.1-2.6-22.1-2.8-33.2-0.5c6.1,0.7,12.4,1,18.8,1C552.2,365.9,557,365.7,561.7,365.3z"/>
	<path d="M462.5,346.1c0,0.1,0,0.1,0,0.2c1.6,0.8,4.6,2.2,8.8,3.9c49.4-28.4,98.7-28,148.1,1.4c3.8-1.6,6.8-2.9,9-4
		C573,314.4,517.7,313.9,462.5,346.1z"/>
	<path d="M480.2,353.6c3,1.1,6.2,2.1,9.8,3.2c36.9-19.4,73.8-19,110.7,1.3c3.5-1,6.8-2.1,9.8-3.1
		C567.1,329.7,523.6,329.3,480.2,353.6z"/>
	<path d="M465.6,309.9c-0.2,3-0.3,5.9-0.5,8.7c54.8-22.7,109.7-21.7,164.5,2.8c-0.2-3-0.4-6-0.6-9.1
		C574.6,290.7,520.1,289.9,465.6,309.9z"/>
	<path d="M464.5,327.2c-0.3,3.2-0.5,6.3-0.9,9.3c55.9-29,111.8-27.8,167.7,3.6c-0.4-3.1-0.7-6.4-1-9.8
		C575,302.7,519.8,301.7,464.5,327.2z"/>
	<path d="M466.7,276.6c0,2.7-0.1,5.4-0.2,8.1c53.8-13.7,107.6-13.2,161.4,1.7c-0.1-2.8-0.1-5.5-0.2-8.3
		C574.1,265.1,520.4,264.6,466.7,276.6z"/>
	<path d="M466.4,292.5c-0.1,2.8-0.2,5.6-0.3,8.3c54.2-17.6,108.3-16.9,162.5,2.2c-0.1-2.8-0.2-5.7-0.3-8.6
		C574.3,277.7,520.3,277,466.4,292.5z"/>
	<path d="M466.9,245.5c0,2.6,0,5.2,0,7.8c53.6-7.4,107.1-7.1,160.7,0.9c0-2.7,0-5.3,0-8C574.1,239.7,520.5,239.4,466.9,245.5z"/>
	<path d="M627.7,270.1c0-2.7-0.1-5.4-0.1-8.1c-53.6-9.6-107.2-9.9-160.7-1.1c0,2.6,0,5.3-0.1,7.9
		C520.5,258.4,574.1,258.8,627.7,270.1z"/>
	<path d="M466.3,214.2c0.1,2.5,0.1,5.1,0.2,7.8c53.8-2,107.6-1.9,161.5,0.2c0.1-2.7,0.1-5.3,0.2-7.9
		C574.2,213.5,520.3,213.5,466.3,214.2z"/>
	<path d="M466.7,229.4c0,2.6,0.1,5.2,0.1,7.8c53.6-4.6,107.3-4.4,160.9,0.6c0-2.7,0.1-5.3,0.1-8
		C574.1,226.2,520.4,226.1,466.7,229.4z"/>
	<path d="M465.1,183.4c0.1,2.5,0.3,5.1,0.4,7.9c54.5,3.2,109.1,3.1,163.6-0.4c0.1-2.8,0.3-5.5,0.4-8
		C574.7,187.9,519.9,188.1,465.1,183.4z"/>
	<path d="M628.4,206.5c0.1-2.7,0.2-5.4,0.3-8c-54.3,2.1-108.6,2.1-162.9,0.2c0.1,2.5,0.2,5.1,0.3,7.8
		C520.2,207.1,574.3,207.1,628.4,206.5z"/>
	<path d="M462.3,151c0.3,2.5,0.6,5.2,1,8.2c56,9.5,112,9.1,168.1-1.1c0.3-3.1,0.7-5.9,1-8.4C575.7,162,519,162.5,462.3,151z"/>
	<path d="M464,167c0.1,1,0.2,2,0.2,3.1c0.1,1.5,0.2,3.2,0.3,4.9c55.1,6.3,110.3,6,165.4-0.7c0.1-1.5,0.2-2.9,0.3-4.2
		c0.1-1.4,0.2-2.7,0.3-4C575.1,174.5,519.5,174.8,464,167z"/>
	<path d="M637.4,122.5c-0.1-2.3-0.3-5.3-0.5-8.7c-60,23.2-120,23.9-180.1,2.1c-0.2,3.5-0.3,6.4-0.4,8.5
		C516.8,144,577.1,143.4,637.4,122.5z"/>
	<path d="M458.8,133.2c0.7,2.1,1.4,4.9,2.1,8.8c57.6,13.8,115.3,13.3,172.9-1.7c0.9-4.4,1.8-7.3,2.5-9.2
		C577.2,149.1,518,149.8,458.8,133.2z"/>
	<path d="M634.4,87.6c-0.4-2.9-0.8-5.8-1.3-8.7c-57.6,33-115.1,33.9-172.7,2.9c-0.4,2.9-0.8,5.7-1.2,8.5
		C517.6,119,576,118.1,634.4,87.6z"/>
	<path d="M636.2,104.6c-0.2-2.8-0.5-5.7-0.9-8.7c-59,28.2-118,29-177.1,2.5c-0.3,3-0.6,5.8-0.8,8.5
		C517.1,131.2,576.7,130.4,636.2,104.6z"/>
	<path d="M622.8,57.2l-9.7-2.9c-45.3,30.4-90.7,30.8-136,1.3l-9.8,2.9C519.2,93.3,571,92.9,622.8,57.2z"/>
	<path d="M631.6,70.4c-0.6-2.9-1.2-5.7-1.8-8.6c-55.4,37.5-110.8,38.6-166.3,3.3c-0.6,2.8-1.2,5.6-1.7,8.4
		C518.4,106.7,575,105.7,631.6,70.4z"/>
	<path d="M581.3,47.5c-4.6-0.3-10.3-0.5-16.5-0.7c-13.7,4.3-27.4,4.3-41.1,0.1c-6.4,0.2-12.1,0.6-16.4,0.8
		C532,60,556.6,59.9,581.3,47.5z"/>
	<path d="M602.9,51.4l-9.5-2.8c-32.2,19.3-64.4,19.7-96.5,1.3l-9.6,2.8C525.9,76.5,564.4,76,602.9,51.4z"/>
</g>
</svg>
