<?xml version="1.0" encoding="utf-8"?>
<!-- Generator: Adobe Illustrator 25.3.0, SVG Export Plug-In . SVG Version: 6.00 Build 0)  -->
<svg version="1.1" id="Layer_1" xmlns="http://www.w3.org/2000/svg" xmlns:xlink="http://www.w3.org/1999/xlink" x="0px" y="0px"
	 viewBox="0 0 750.2 400.1" style="enable-background:new 0 0 750.2 400.1;" xml:space="preserve">
<path d="M293.2,128.4C293.2,128.4,293.2,128.3,293.2,128.4L293.2,128.4C293.2,128.3,293.2,128.4,293.2,128.4z"/>
<path d="M274.8,322.1c3.4-2.7,6.8-5.4,10.2-8c-0.1-1.7-0.3-3.5-0.4-5.3c-11.8,9.4-25,16.5-38.2,23.4c-3.7,1.9-7.5,3.8-11.3,5.7
	c-1-1.7-1.7-3.1-2.6-4.6c1.2-0.6,2.3-1.1,3.5-1.6c10.6-5.2,21.3-10.1,31.7-15.6c6.1-3.2,11.6-7.2,16.7-11.9
	c-0.1-2.1-0.2-4.2-0.3-6.3c-0.4,0.4-0.8,0.7-1.2,1.1c-3.8,3.4-8,6.4-12.4,8.9c-12.4,7.1-24.5,14.9-38.2,18.8
	c-0.6,0.2-1.1,0.6-1.6,0.9c-5.4,3-10.9,5.9-16.2,9c-1.9,1.1-2.8-0.2-3.5-1.6c-1-1.8,0.7-2,1.5-2.4c9.1-4.1,18.1-8.4,27.2-12.3
	c16.2-7,30.6-17,44-28.9c-0.1-2.1-0.2-4.2-0.2-6.3c-1.9,2.3-4,4.4-6.5,6.3c-10.6,8-21.6,15.5-32.4,23.2c-1.3,0.9-2.8,1.4-4.3,1.9
	c-0.8,0.3-1.8,0-2.7,0c7.2-7.1,15-13,21.3-20.9c-1.7,0.2-3.2,0.6-4.4,1.5c-5.9,4.2-11.8,8.3-17.5,12.8c-10.1,8-20.6,15-31.9,20.8
	c-6.2,3.2-12.4,6.5-18.6,9.8c2.8,0,5.7,0.1,8.6,0.1c0.5,0,1.2,0,2.1,0c2-1.2,4-2.3,6.1-3.5c0.7-0.4,1.3-0.7,2-0.9
	c1.5-0.4,2.4,0.6,2.4,2.2c0,1.2-0.5,1.8-1.2,2.2c1.7,0,2.9,0,3.7,0c2.1,0,4.3,0,6.4,0c3.2-1.5,6.5-2.9,9.7-4.4c1.5-0.7,2.5,0,3,1.5
	c0.3,1,0.4,1.9-0.2,2.7c4-0.1,7.9-0.2,11.7-0.4c0.2-0.4,1-1,1.5-1.3c9.3-4.7,18.7-9.3,28.1-13.9
	C271.9,323.9,273.5,323.2,274.8,322.1z"/>
<path d="M122.3,68.4c-0.8,0.2-1.5,0.6-2.2,1c-1,0.6-1.9,1.2-2.9,1.8c-0.4,2.1-0.7,4.2-1.1,6.3c2.6-1.9,5.3-3.5,8.4-4.4
	c12.5-3.9,25-6.9,38-6.9c-1.3-1.2-2.5-2.3-3.6-3.4c-0.8-0.8-1.4-1.6-2-2.5c-3.6,0.2-7.1,0.6-10.6,1.3
	C138.3,63.4,130.3,66.1,122.3,68.4z"/>
<path d="M229.2,309.1c7.6-6.3,15.4-12.2,23.1-18.4c2.1-1.7,3.8-2.2,5.8-0.3c2.5,2.4,5.1,2,7.8,0.3c0.9-0.6,1.8-1.1,2.6-1.8
	c6.5-5.3,11.4-11.5,14.6-18.7c-0.2-12.5-0.2-25.2-0.1-37.5c-0.2,1.4-0.3,2.7-0.4,4.1c-0.5,7.2-0.8,14.5-1.3,21.7
	c-0.7,8.6-4,15.9-9.6,22c-2,2.1-4.3,3.4-7.1,3.3c-1.8-0.1-3-1.2-2.5-3.1c0.5-2.1,1.2-4.5,2.5-6c3.7-4.2,6.2-9,8-14.4
	c1.8-5.4,3.5-10.9,5.4-16.4c2.7-7.9,3.1-16.1,1.6-24.2c-2.5-13.4-6.9-26.3-11.5-39c-2.8-7.7-5.7-15.4-10.2-22.2
	c-12.5-19.1-27.8-34.9-46.5-46.5c-9.9-6.1-20.2-11.6-31.8-12.9c-2.9-0.3-5.9-0.7-8.8-0.9c-8.4-0.7-16.8-1.8-25.2-1.7
	c-11.6,0.1-22.5,3.1-32.7,8.1c-0.2,2-0.3,3.9-0.5,5.8c7.7-3.8,15.8-6.6,24.2-8c6.3-1.1,12.8-0.5,19.3-0.7
	c15.9-0.7,30.8,3.3,45.2,10.3c14.4,7,27.6,16,38.2,28.8c18,21.7,27.9,47.7,34.1,75.7c0.8,3.4,0.7,7.1,1,10.7c-2.8,0.3-4-0.8-4.7-3.6
	c-1-4.2-1.9-8.4-3-12.6c-0.4-1.5-1.1-2.9-1.7-4.4c-0.3,0.1-0.6,0.1-0.9,0.2c-0.2,1.1-0.5,2.3-0.4,3.4c0.3,5.2,0.5,10.5,1.1,15.6
	c1.3,10.1-0.2,19.4-4.6,28.4c-5.1,10.4-12.4,18.1-21.9,23.5c-12.4,7.1-25.6,12.3-38.8,17.2c-13.1,4.9-25.5,11.2-37.1,19.3
	c-7.5,5.2-14.8,10.6-22.4,15.7c-3.6,2.4-7.4,4.4-11.2,6.4c-0.8,0.4-1.7,0.6-2.6,0.9c-0.1-0.2-0.3-0.5-0.4-0.7
	c1.6-1.6,3.1-3.3,4.9-4.6c10.8-8,21.4-16.2,32.4-23.7c13-8.8,26.4-17,41.5-20.9c10.2-2.6,20-6.5,29.4-11.5c2.8-1.5,5.3-3.4,7.9-5.3
	c0.6-0.5,0.9-1.6,1.3-2.4c-0.8-0.3-1.8-1-2.5-0.8c-3.5,0.9-7,1.9-10.4,3.2c-4.7,1.8-9.2,4.2-13.9,5.8c-3.1,1-6.4,1.3-9.6,1.6
	c-1.1,0.1-2.5-0.6-3.4-1.4c-1.5-1.3-1.3-2.6,0.5-3.6c1.8-0.9,3.7-1.7,5.6-2.4c8.1-2.7,16.1-5.3,24.2-7.9c3.7-1.1,7.4-1.6,11,0.6
	c0.7,0.5,2.1,0.3,2.9-0.1c1.3-0.7,2.5-1.7,3.5-2.8c3.7-3.9,5.2-9.1,6.3-14.4c2-9.9,1.6-19.8,0.5-29.8c-2.7-23.5-11.5-44.1-25.5-62.1
	c-1.6-2.1-3.8-3.8-5.9-5.3c-0.9-0.7-2.4-0.5-3.6-0.7c0.4,1.2,0.6,2.6,1.3,3.6c2.3,3.2,5,6.1,7.2,9.5c3.5,5.6,6.8,11.3,10,17.1
	c10.4,18.2,13.7,38.1,11.4,59.3c-0.4,3.9-1.2,7.8-2,11.6c-0.2,0.9-0.8,1.7-1.2,2.5c-0.3-0.1-0.5-0.1-0.8-0.2
	c-0.1-1.8-0.4-3.6-0.3-5.4c0.3-4.9,0.9-9.8,1.2-14.6c0.5-8.8,1.3-17.9-2-26.2c-4.3-10.8-9.4-21.3-14.2-31.9
	c-0.1-0.3-0.3-0.6-0.5-0.8c-5.5-6.4-10.8-13.1-16.6-19.1c-5.4-5.6-11.6-10.2-18.5-13.5c-3.4-1.6-4-2.9-2.9-6.7
	c0.2-0.7,0.4-1.4,0.7-2c1-2,0.6-3.9-0.6-5.6c-2.9-4-6.5-6.7-11.4-6.9c-2.4-0.1-4.7-0.1-7.1,0c-1,0-2,0.4-3,0.6
	c0.1,2.8,1.6,3.8,3.5,4.3c2.1,0.5,4.2,0.7,6.3,1.1c3.7,0.8,5,2.6,4.3,5.8c-0.5,2.1-2.2,2.2-5.8,1c-2.4-0.8-4.9-1.2-7.4-1.4
	c-2.6-0.1-5.2,0.1-7.7,0.5c-2,0.3-2.4-0.6-2-2.4c0.5-2.3,1.2-4.5,1.6-6.8c0.6-3.4-0.5-5-3.6-4.6c-4.4,0.6-8.9,1.3-13.2,2.8
	c-12.7,4.5-23.6,11.9-33.7,20.6c0.4,1.8,0.7,3.9,1.1,6.3c4.8-5.2,10.1-9.9,16.6-13.1c6.5-3.2,13.2-6,19.9-8.8
	c1.3-0.6,2.9-0.8,4.3-0.7c0.8,0.1,1.6,1.1,2,1.5c-0.3,3.2-1.5,4.8-3.5,5.7c-3.8,1.6-7.5,3.4-11.4,4.8c-8.6,3.2-15.9,8.4-22.4,15.2
	c-1.5,1.5-2.9,3.1-4.4,4.6c0.3,2.5,0.6,5.3,0.8,8.3c2.1-2.4,4.3-4.7,6.5-7.1c1.1-1.2,2.8-2,4.4-2.6c1.4-0.6,2.1,0.3,1.5,1.8
	c-0.5,1.2-1.2,2.4-1.9,3.5c-2.8,4.5-5.8,8.9-8.5,13.4c-0.4,0.6-0.8,1.3-1.1,1.9c0.2,3.2,0.4,6.5,0.6,10c4.6-10.3,11.1-19,20.3-25.2
	c5-3.4,10-7,15.2-10c13.5-7.8,27.2-9,41-0.4c1.9,1.2,3.8,2.2,5.7,3.3c19.3,11.7,32.8,28.8,39.7,51.7c4.1,13.7,4.5,27.6-0.4,41.4
	c-1.3,3.8-3.5,6.5-6.7,8.7c-7,4.9-14.7,7.7-22.8,9.6c-4.5,1-8.9,2.4-13.5,2.8c-6.6,0.6-11.2,3.8-13.6,10.5c-0.4,1-0.2,2.3-0.3,3.4
	c1-0.1,2-0.2,2.9-0.4c1.6-0.4,3.6-1.7,4.5,0.6c0.8,2.2-1.3,3.1-2.8,3.9c-4.2,2.4-8.4,4.8-12.5,7.2c-1.6,1-3.1,1.6-4.6-0.1
	c-1.3-1.6-1-3.7,0.5-5.6c2.1-2.7,4-5.5,6-8.3c3.1-4.3,5.9-8.9,9.3-12.9c3-3.7,7-5.3,11.6-4.3c1.4,0.3,2.8,0.4,4.2,0.3
	c11.2-1.2,21.7-4.8,31-12c1.9-1.4,3.3-3.9,4.2-6.3c2.5-6.3,0.3-12-2.6-17.6c-2.3-4.4-4.5-8.9-6.2-13.5c-4.7-12.2-9.4-24.4-18.6-33.6
	c-5.6-5.7-11.6-10.8-18.3-14.8c-2.3-1.4-4.6-3-6.8-4.6c-0.6-0.5-1.1-1.3-1.6-1.9c0.1-0.2,0.2-0.4,0.3-0.6c1.1,0.2,2.2,0.3,3.2,0.7
	c8.2,3.2,16.2,7,22.5,13.7c12.2,13.1,22.4,27.6,25.6,46.6c0.3,1.6,1.1,3.1,1.7,4.6c0.3-0.1,0.5-0.1,0.8-0.2c1.2-2,1.4-4.4,1-6.6
	c-0.8-4.8-1.5-9.8-3.2-14.2c-9.2-23.6-24.2-41-46.7-49.9c-6.3-2.5-12.5-3-19-0.3c-12.3,4.9-24.3,10-35,18.5
	c-5.4,4.3-9.5,9.7-12.1,16.3c-1.2,3-2.3,6.1-3.4,9.2c0.2,3.9,0.3,7.9,0.5,12.1c0-0.3,0.1-0.6,0.1-0.9c1.1-7.2,4.5-12.8,8.3-18.3
	c0.4-0.5,1.3-1.1,1.8-0.9c0.7,0.2,1.6,1,1.9,1.7c0.3,0.8,0,1.9-0.4,2.7c-2.4,5.8-5.3,11.4-7.1,17.4c-1.5,4.9-2.8,9.8-4.2,14.7
	c0.1,5.2,0.2,10.6,0.2,16c3.2-14.1,8.1-27.4,14.4-40.2c2-4.2,4.9-8.1,6.1-12.6c1.2-4.4,4.1-6.2,6.9-8.4c2.7-2.2,5.6-4.2,8.5-6.2
	c5.4-3.9,11.4-6.1,17.6-7.6c1-0.2,2-0.2,3-0.3c0,0.2,0.1,0.4,0.1,0.7c-0.7,0.3-1.5,0.6-2.2,0.8c-6.1,1.7-11.3,5-16,9.6
	c-6.8,6.6-12.5,14.1-16.7,22.9c-1.4,3-3,5.9-4.7,8.7c-5.6,9.4-8.9,19.8-11.2,30.5c-0.2,0.8,0.3,2.2,0.8,2.6c0.6,0.4,2.1,0.1,2.5-0.5
	c1.3-1.6,2.5-3.4,3.3-5.4c2.4-5.5,4.9-11,6.8-16.8c3.2-9.7,8-18.3,13.1-26.7c5.9-9.6,13.9-16.2,23.6-20.3c2-0.9,4.3-1.4,6.5-1.2
	c3,0.2,6.1,0.8,8.8,2.1c8.2,4,15,10,20.6,17.6c1.2,1.7,2.6,3.5,2,6.2c-1.7-1-3.1-2.3-4.5-3.6c-3.9-3.6-7.5-7.5-11.6-10.9
	c-8.2-6.7-16.9-7.6-25.9-1.8c-13.4,8.7-22.2,21.5-27.2,37.4c-2.9,9.3-5.2,18.8-7.8,28.2c-3.3,11.7-8.4,22.1-16.9,30.2
	c0,2-0.1,4-0.1,6c4.8-5.2,9.8-10.3,14.6-15.5c1.1-1.2,2-2.8,2.7-4.3c5.1-11.1,8.4-22.9,11.3-34.7c3.5-14.3,8.7-27.5,17.5-38.9
	c4.7-6,10.8-8.3,17.7-8.2c3.9,0,7.6,1.4,10.5,4.4c5.9,6.2,11.8,12.4,17.9,18.4c7.3,7.2,13.3,15.6,18.9,24.3c3,4.7,3.9,10.1,1.8,15.6
	c-0.3,0.9-1.6,1.3-2.4,1.9c-0.3-1-0.9-2-0.8-2.9c0.5-3.6-0.1-6.9-1.9-9.9c-1.8-2.9-3.6-5.9-5.8-8.5c-7.9-9.5-15.9-18.8-24-28.1
	c-3.2-3.7-7.2-6.1-11.6-7.8c-6.9-2.5-13.4-0.2-18.1,5.9c-6.7,8.8-10.4,19-13,29.8c-2.4,10.3-5.1,20.5-7.8,30.7
	c-2.1,7.7-6,14.1-11.4,19.5c-3.5,3.5-6.9,7.3-10.4,10.9c-1,1.1-2.2,1.9-3.2,3c-0.8,0.9-1.8,1.7-2.7,2.6c-0.1,2.4-0.2,4.8-0.3,7.2
	c2.7-3.4,5.6-6.7,8.8-9.7c3.6-3.4,7.3-6.6,10.6-10.3c6.9-7.6,13.3-15.7,15.8-26.3c1.9-7.7,3.2-15.5,5-23.2
	c1.2-5.3,2.7-10.5,4.2-15.7c0.5-1.6,1.4-2.8,3.1-2c1.8,0.8,1.8,2.3,1.3,4c-0.4,1.6-1,3.2-1.3,4.9c-1.1,5.9-3.3,11.4-3.3,17.7
	c0,12.2-3.4,23.1-11,32.3c-1.6,1.9-2.7,4.3-4.2,6.2c-2.5,3.1-5.1,6-7.8,8.8c-1.7,1.8-3.8,3.1-5.5,4.9c-4.4,4.4-8.6,8.8-12.9,13.3
	c-0.6,0.6-0.9,1.5-1.4,2.2c0.1,0.2,0.3,0.4,0.4,0.6c0.9-0.4,1.9-0.6,2.6-1.3c2.8-2.4,5.6-5,8.4-7.5c0.8-0.7,1.8-1.4,2.8-1.7
	c1.7-0.4,2.6,0.8,1.6,2.4c-1.1,1.8-2.4,3.5-3.9,4.8c-2.8,2.5-5.9,4.6-8.8,7c-0.9,0.7-1.6,1.7-2.4,2.6c0.1,0.2,0.2,0.4,0.3,0.6
	c0.9-0.2,1.9-0.2,2.6-0.6c3.6-1.8,7.5-3.3,10.7-5.8c9.1-7.1,17.9-14.5,26.7-22c5.4-4.6,10.1-10.1,12.3-17.3
	c1.3-4.2,2.3-8.5,2.8-12.9c1.4-11.1,1.4-22.2-2.2-32.9c-1.9-5.7-0.5-10.6,2.7-15.1c2.2-3,5-2.6,7,0.5c0.5,0.9,1.1,1.7,1.6,2.6
	c4.4,7.4,8.7,14.7,13.1,22.1c0.8,1.4,2,2.6,2.9,3.9c1.1,1.5,2.2,3.1,3,4.7c1,1.9,0.3,3.1-1.6,2.8c-1.4-0.2-2.9-1.1-4.1-2.1
	c-4.1-3.9-6.5-9.1-9-14.2c-1.4-2.9-2.9-5.8-4.6-8.5c-1-1.7-2.4-3.5-4.5-2.7c-2.2,0.9-1.8,3.3-1.5,5.3c0.6,3.4,1.5,6.7,2,10.1
	c0.8,6,1.6,11.9,2,17.9c0.7,11.2-3.4,20.6-9.9,28.9c-7.5,9.7-16.9,17-26.1,24.6c-7.7,6.3-15.2,13-22.9,19.5
	c-2.6,2.2-5.2,4.5-7.9,6.6c-0.2,2.1-0.4,4.2-0.7,6.3c0.3-0.3,0.6-0.6,0.9-0.9c14.3-13.8,30.6-24.5,46-36.7c0.1-0.1,0.2-0.2,0.4-0.3
	c0.8,0,1.7-0.4,2.3,0c0.5,0.4,1,1.7,0.8,2.2c-0.6,1.4-1.5,3-2.6,3.9c-4.1,3-8.4,5.7-12.6,8.6c-2.7,1.9-5.3,4.1-8.1,5.8
	c-10,6-18.4,14.1-26.4,22.9c4.2,0.4,9.7,0.8,16.2,1.2c10.3-6.3,20.5-12.6,30-20.1c6-4.7,12.5-8.7,19.6-11.3c1-0.4,2.1-0.5,3.2-0.7
	c0.1,0.3,0.2,0.6,0.3,0.9c-2.2,1.7-4.3,3.5-6.6,5.1c-12.4,8.4-24.7,17.1-37.5,25c-0.8,0.5-1.6,1.1-2.5,1.6c2.9,0.2,5.9,0.4,9.1,0.5
	c4.6-2.9,9.3-5.8,13.6-8.5c1.9,0.1,3.6,0.6,4.9,0.1c5.8-2.2,11.5-4.6,17.1-7.1c8.9-4.1,17.7-8.4,26.6-12.5c1.3-0.6,2.9-0.7,4.4-1
	c0.1,0.3,0.2,0.6,0.4,0.9c-1.5,1.1-2.8,2.4-4.4,3.2c-6.9,3.6-13.9,7.1-20.9,10.5c-10.2,5-20.5,9.7-30.6,14.9c4,0.2,8.1,0.3,12.3,0.4
	c6.3-2.8,12.6-5.7,18.9-8.6C206.1,325.8,218.1,318.4,229.2,309.1z M186.9,140c-0.5,0.2-1.2,0.1-2,0.2c-1.2-0.2-2.7-0.4-4.2-0.6
	c-11.9-2-22.8,0.7-33,7.7c-1.4,1-2.9,2-4.5,2.6c-2.5,1.1-3.6,0.1-3.1-2.8c0.2-1.1,1-2.2,1.7-3.2c0.5-0.7,1.3-1,1.9-1.6
	c5-4.9,10.8-7,17.5-7.5c7.5-0.5,15-1.1,22.5,0.4c1.2,0.3,2.5,0.6,3.6,1.2c0.7,0.4,1,1.4,1.5,2.1C188.3,139,187.6,139.6,186.9,140z
	 M172.8,161.3c-3.6,1.2-7.3,2.2-10.8,3.6c-9.5,3.8-17.7,9.5-23.9,18.4c-0.3,0.4-0.6,0.7-1,1.2c-3.9-2.2-3.9-2.3-1.1-5.8
	c9.5-11.5,21.4-17.7,35.2-20.1c1.6-0.3,3.3,0,4.9,0c0.1,0.3,0.1,0.7,0.2,1C175.2,160.2,174,160.9,172.8,161.3z M175.2,246.2
	c-0.2,8.2-2.8,15.6-7.6,21.9c-5.3,7-11.5,13.2-18.4,18.4c-1.9,1.4-3.6,2.9-6.8,3.2c0.7-1.6,1-2.9,1.7-3.7c3-3.5,6-6.9,9.1-10.2
	c4-4.2,8.2-7.9,11.5-12.9c3.4-5.1,5-10.4,5.2-16.5c0.2-5.1,0.6-10.3,1-15.4c0.2-2.4,0.2-5,2.7-7.4c0.4,1.6,0.8,2.7,0.8,3.7
	C174.8,233.5,175.3,239.9,175.2,246.2z M189.9,231.4c0.3-0.1,0.5-0.1,0.8-0.2c0.4,0.7,0.9,1.4,1.3,2.1c0.8,1.8,1.7,3.6,2.4,5.4
	c1.5,4.3,4.5,6.9,8.2,8.7c4.8,2.3,9.3,1.2,12.3-3.1c2.7-3.9,2.4-8.8-0.9-13c-8-10.3-16.1-20.5-24.2-30.8c-2-2.6-4.3-4.7-7.5-5.1
	c-1.9-0.2-3.5,0.3-4.7,1.9c-0.8,1-1.7,2.2-2.7,2.7c-0.9,0.4-2.3,0.2-3.2-0.3c-0.3-0.2-0.3-2.1,0.1-2.8c3-5.8,10.1-10.1,17.3-5.2
	c4.4,3,7.9,7,11.2,11.2c7.1,9.1,14.2,18.3,21.3,27.4c4.8,6.1,3.7,14.5-2.7,19.3c-5.8,4.3-12.2,5.9-19.2,4.6c-3.6-0.7-5.6-3.7-6.7-7
	c-1.4-4.1-2.1-8.5-3-12.8C189.5,233.5,189.8,232.4,189.9,231.4z M200.1,310.9c-6.3,3.3-12.4,6.8-18.6,10.2c-1.3,0.7-2.7,1.2-4.1,1.9
	c-0.2-0.3-0.4-0.6-0.6-1c1.4-1.4,2.7-3,4.3-4.1c5.7-3.9,11.3-8,17.2-11.4c7.9-4.6,16-8.6,24-13.1c6.4-3.6,12.8-7.1,18.9-11.1
	c16.5-10.7,24.9-27.4,28.2-47.4c0.1-0.6,0.1-1.1,0.2-1.7c0-0.1,0.2-0.3,0.3-0.5c0.5,0.3,1.1,0.7,1.6,1c0.6,0.3,1.2,0.5,2,0.8
	c-0.1,0.6-0.1,1.3-0.2,1.9c-2.9,10.9-6.5,21.5-12,31.3c-3.2,5.8-7.4,10.7-12.5,14.5C233.4,293.4,216.8,302.2,200.1,310.9z"/>
<path d="M292.2,114.2c-0.2-2.3-0.4-4.9-0.6-7.6c-6.7-6.7-13.5-13.4-19.9-20.5c-8-8.8-16.7-16.4-25.9-23.1c-0.9,1.2-1.8,2.4-2.9,3.5
	c4.5,3.1,8.8,6.5,12.7,10.4C267.9,89.2,280.1,101.7,292.2,114.2z"/>
<path d="M128.3,86.5c-4.8,0.2-9.4,0.9-13.8,2.3c-0.3,2.3-0.6,4.7-0.8,6.9c6.4-2.5,13.2-3.9,20.2-4c9.2-0.2,18.4,0,27.5,0.3
	c4.6,0.2,9.3,0.6,13.9,1.6c17.7,3.8,34,11.6,49.5,21.4c11.3,7.2,20.8,16.8,28.3,28.4c4.6,7.2,8.7,14.7,13.2,22
	c6.6,10.6,11,22.2,14.4,34.3c1.1,4,2.1,8,2.8,12.1c0.2-5.9,0.4-11.6,0.6-17c-0.8-2.6-1.5-5.3-2.3-7.9c-3.1-10.8-7.8-20.7-13.8-29.8
	c-6.3-9.4-13-18.5-19.5-27.8c-5.8-8.3-13.1-14.6-21.3-19.8c-12.9-8.1-26.4-14.8-40.5-20.1c-6.7-2.5-13.6-3.9-20.7-3.8
	C153.5,85.7,140.9,86,128.3,86.5z"/>
<path d="M288.7,80.6c-0.4-3-0.9-5.9-1.4-8.7c-0.2-0.2-0.4-0.3-0.6-0.5c-6-5-12.1-9.9-18-14.9c-0.8-0.7-1.3-1.6-2-2.4
	c0.1-0.1,0.1-0.1,0.2-0.2l-14.9-4.4c10.8,8.6,21.5,17.4,32.3,26.1C285.8,77,287.4,78.7,288.7,80.6z"/>
<path d="M286.2,66.4c-0.4-2.1-0.9-4-1.4-5.9c-1.1-0.8-2.2-1.5-3.4-2.2l-10.5-3.1c1.2,0.7,2.3,1.4,3.4,2.3
	C278.2,60.3,282.2,63.4,286.2,66.4z"/>
<path d="M278.4,329.9c-5.7,3.6-11.7,6.7-17.9,9c7.8-0.5,14.5-0.9,20-1.4c1.5-0.9,2.9-1.7,4.3-2.6c0.7-0.4,1.4-0.8,2.1-1.2
	c-0.4-2.9-0.7-5.9-1-9.1C283.5,326.5,281,328.3,278.4,329.9z"/>
<path d="M154.9,54.7c-0.2-1.3-0.3-2.5-0.3-3.6c-3.8,0.8-7.5,1.7-11.3,2.5c-8.1,1.7-16,4.1-23.7,7.1c-0.4,1.7-0.9,3.4-1.3,5.3
	C130.1,60.8,142.5,57.6,154.9,54.7z"/>
<path d="M290.2,119.9c-14.1-14.4-28-29.1-42.3-43.4c-2.5-2.5-5.2-4.9-8-7.1c-1.4,1.3-2.8,2.5-4.3,3.6c0.1,0.7-0.1,1.3-0.7,2
	c-0.8,0.9-1.6,0.6-2.2,0c-2.1,1.4-4.2,2.6-6.1,3.4c-2.5,1.1-5.3,2.1-7.8,2.9c10.3,5.8,19.5,13.5,29,20.8c6,4.6,11.6,9.7,17.3,14.7
	c1.7,1.5,2.9,3.6,4.1,5.6c0.4,0.7,0.6,2.3,0.2,2.9c-0.4,0.5-1.8,0.6-2.6,0.3c-5.1-1.6-9.4-4.6-12.9-8.9c-2.2-2.7-4.1-5.8-6.4-8.4
	c-2.9-3.4-5.8-7-9.3-9.5c-8.6-6.4-17.6-11.5-26.8-15.5c-3.1,0.7-6.2,1.1-9.2,1.2c10.3,3.6,20,8.7,29.4,14.8c2.1,1.3,3.9,3.2,5.7,5
	c0.7,0.6,1,1.6,1.5,2.4c-0.1,0.2-0.2,0.4-0.3,0.5c-0.7-0.2-1.5-0.2-2.2-0.6c-1.6-0.9-3.1-1.9-4.6-3C220,94.4,206.5,88.9,193,83.8
	c-1.6-0.6-3.5-0.3-5.2-0.4c-0.1,0.4-0.2,0.8-0.3,1.3c1.8,1,3.4,2.2,5.3,3c5.7,2.5,11.5,4.7,17.1,7.4c17.9,8.5,33.5,20.5,45.3,37.7
	c1.5,2.1,3.1,4.1,4.5,6.2c9.9,14.1,18.8,28.7,25,44.9c0.2-3.7,0.4-7.2,0.7-10.5c-1.3-3.1-2.7-6.1-4-9.2c-4.3-9.9-9.4-19.3-16.5-27.2
	c-1.4-1.6-2.6-3.5-3.9-5.3c-0.5-0.7-0.8-1.6-1.3-2.9c1.1,0.2,1.7,0.2,2.1,0.4c3.6,1.9,7.1,3.9,9.4,7.8c5,8.3,10.1,16.5,15.1,24.8
	c0.2-2.2,0.4-4.3,0.6-6.3c-1.2-1.7-2.4-3.4-3.6-5.1c-2-2.9-3.7-6-5.4-9.1c-0.4-0.7,0.1-2,0.2-3c0.8,0.4,1.9,0.5,2.5,1.2
	c2.5,3.1,4.8,6.2,7.2,9.3c0.4-2.6,0.7-4.8,1.1-6.8c-2.4-2.7-4.8-5.3-7.1-8c-0.7-0.8-1.2-1.8-1.8-2.7c0.2-0.3,0.4-0.6,0.6-0.8
	c1.8,1,3.7,1.7,5.3,2.9c1.4,1.1,2.8,2.2,4.2,3.3c0.4-1.6,0.8-2.9,1.1-4c-5.8-5.3-11.7-10.6-17.5-15.9c-5.7-5.2-11.4-10.6-17-15.9
	c-5.5-5.2-11.1-10.4-16.6-15.7c-1.5-1.4-1.4-2.9-0.2-4.6c1.2-1.8,2.4-1.6,3.8-0.7c1.6,1.1,3.2,2.1,4.6,3.4c3.1,2.9,6.1,5.9,9.1,8.9
	c11.8,11.8,23.7,23.6,35.4,35.5c0.1,0.1,0.3,0.3,0.4,0.4c0-0.6-0.1-2.7-0.3-6C291.9,121.5,291,120.7,290.2,119.9z"/>
<path d="M290.8,97.8c-0.3-3.1-0.7-6.3-1.1-9.5c-0.4,0.4-1.1,0.4-1.9-0.2c-0.6-0.5-1.1-1-1.7-1.5c-12.2-10.8-24.3-21.6-36.5-32.4
	c-0.3,1.3-0.7,2.7-1.2,4.1c2.6,2,5.2,4,7.7,6.3C268.1,75.1,279.5,86.4,290.8,97.8z"/>
<path d="M144.8,73.1c-6.4,0.5-12.8,1.3-18.9,3.9c-2.2,1-4.4,2.3-6.4,3.7c-0.8,0.6-1.3,1.7-2.3,3.1c1.6,0.1,2.4,0.3,3.2,0.2
	c3-0.4,6.1-0.6,9-1.4c16.8-4.9,33.8-5.3,50.9-3.2c-0.7-0.3-1.5-0.7-2.2-1.1c-2.2-1.2-4.9-3.1-7.6-5.3
	C162.1,72.4,153.5,72.4,144.8,73.1z"/>
<path d="M151.8,114.6c6.5-2,13.1-4.2,19.9-2.9c6.7,1.3,13.5,2.7,20,5.1c15.9,5.7,28.8,16.6,40.7,29c7.4,7.7,13.1,16.6,16.9,27.1
	c2.7,7.5,6.3,14.5,9.6,21.7c0.6,1.3,1.6,2.3,2.4,3.5c0.2-0.1,0.5-0.3,0.7-0.4c-0.3-1.5-0.4-3.1-0.9-4.5c-2.6-7.5-5-15.2-8.2-22.4
	c-9-20.6-22-37.4-40.1-49.4c-19.8-13.1-41.8-15.6-64.3-15.6c-4.8,0-9.6,1-14.3,1.7c-2.2,0.4-4.4,1.1-6.3,2.1
	c-5.4,2.6-10.7,5.5-16,8.2c-0.2,2.6-0.3,4.7-0.4,6.4c3.5-2,7.1-4,10.7-5.8c5.1-2.6,10.3-4.8,15.5-7.1c0.9-0.4,2-0.4,3-0.6
	c0.1,0.2,0.2,0.5,0.2,0.7c-1.3,0.9-2.5,1.8-3.8,2.6c-8.3,4.9-16.7,9.7-24.8,14.8c0.5,0.9,1.2,2.3,2,4.7c1.2-0.9,2.3-1.8,3.5-2.7
	C128.5,123.9,139.8,118.2,151.8,114.6z"/>
<path d="M128.6,252c0.7-1.5-0.1-4.7-1.5-5.3c-2-0.8-2.3,1.3-3.2,2.5c-0.2,0.3-0.3,0.6-0.4,0.9c-0.5,0.8-0.9,1.7-1.4,2.5
	c0,3.3,0,6.7-0.1,10c1.1-1.7,2.3-3.3,3.4-5C126.7,255.9,127.7,253.9,128.6,252z"/>
<path d="M203.2,130.8c-0.1,0.3-0.2,0.5-0.3,0.8c0.5,0.8,0.8,1.8,1.4,2.3c3.9,3.1,7.8,6.2,11.8,9.1c0.7,0.5,1.7,0.7,2.5,0.6
	c0.6-0.1,1.4-0.7,1.6-1.2c0.2-0.4-0.1-1.5-0.5-1.9c-4-4-8.2-7.6-13.5-9.3C205.3,131,204.2,131,203.2,130.8z"/>
<path d="M315.7,90.1c0.6-7.1,1.4-14.2,1.7-21.3l-5.1-1.5c0,2.6-0.1,5.2,0.1,7.8C313,91,309,105.9,302,120.3c-1.3,2.7-2.7,5.4-4.2,8
	l5,1c5.7-9.4,10.8-19.3,12-30.4C315.1,96,315.5,93.1,315.7,90.1z"/>
<path d="M360.3,81.5c-0.1,1-0.4,2-0.6,3c-0.3,1.2-1,2.7-2.9,2.3c-1.8-0.4-2.5-1.6-2.6-3.4c-0.1-1.2-0.1-2.4-0.2-3.7l-6.2-1.8
	c0.2,3.6,0.1,7.2-0.2,10.8c-1.4,16.5-5.6,32.2-13.4,47.1l6.4,1.3c1.9-4.6,4.2-9.2,5.6-13.9c2.7-8.8,4.7-17.8,7-26.7
	c0.2-0.7,0.2-1.5,0.4-2.2c0.3-1.6,1.5-2.8,3.1-2.4c1.1,0.3,2.5,1.7,2.5,2.7c0,4,0.1,8.1-0.8,11.9c-2.7,11.2-8.4,21.3-14.1,31.4
	l5.1,1c2.7-4.2,5.2-8.6,7.4-13l8.7-39.7c-0.1-1.1-0.3-2.1-0.5-3.2L360.3,81.5z"/>
<path d="M291.4,94.1c0.6,5.6,1.1,11,1.5,15.7c1.4-2,2.2-4.3,2.3-6.9c0.1-2.4,0.1-4.7,0-7.1c0-1-0.4-2-0.6-3
	C293.1,92.9,292.1,93.4,291.4,94.1z"/>
<path d="M330.6,107c-0.4-0.1-0.8-0.2-1.3-0.3c-1,1.8-2.2,3.4-3,5.3c-2.5,5.7-4.7,11.5-7.4,17.1c-0.5,1.1-1,2.1-1.6,3.2l4.1,0.8
	c3.3-6.8,6.1-13.8,8.8-20.9C330.8,110.6,330.5,108.8,330.6,107z"/>
<path d="M353.6,139.6l0.3-1.2c-0.3,0.3-0.5,0.7-0.7,1.1L353.6,139.6z"/>
<path d="M335.6,74.2c0.5,9.8-0.2,19.6-1.6,29.5c-1.5,10.6-4.9,20.6-9.4,30.1l4.4,0.9c8.7-18.5,12.6-38.1,12.5-58.7L335.6,74.2z"/>
<path d="M289.3,72.8c0.6,1.3,0.8,2.9,0.7,4.3c0,0.4-0.3,0.8-0.6,1.1c0.4,2.3,0.7,4.6,1,6.9c0.7,0.2,1.4,0.3,2.2,0.5
	c3.4,0.6,5-0.5,4.6-3.6c-0.6-4.4-1.3-8.9-2.8-13.2c-0.9-2.7-2-5.3-3.2-7.8l-5.6-1.6c0.8,3,1.6,6.4,2.3,9.8
	C288.3,70.4,288.8,71.6,289.3,72.8z"/>
<path d="M328.4,85.3c0-4.4-0.1-8.9-0.2-13.3l-5.9-1.7c-0.1,3.5-0.2,7-0.3,10.5c-0.2,4.6-0.6,9.3-1.6,13.9
	c-2.7,12.5-7.4,24.3-13.3,35.6l6.1,1.2c4.3-8.3,8.1-16.7,11.4-25.4C327.1,99.3,328.5,92.3,328.4,85.3z"/>
<path d="M308.1,66.1l-11.6-3.4c1.1,2.8,2.1,5.6,2.9,8.4c2,6.5,4.2,13.1,2.9,19.9c-1.3,6.7-2.7,13.5-5.1,20c-1.1,2.9-2.3,5.8-3.7,8.5
	c0.3,4.1,0.4,7,0.4,8.2l0.1-0.1l0.1,0l0.1,0l0.9,0.2c10.8-18.7,12.9-39.1,13-59.9C308.1,67.3,308.1,66.7,308.1,66.1z"/>
<path d="M116.3,70.8c-0.5-0.6-0.9-1.1-1.4-1.7c-1.8-2.2-3.7-4.4-5.6-6.7l-4.9,1.4c3.5,4.7,7,9.4,10.6,14.1
	C115.5,75.6,115.9,73.2,116.3,70.8z"/>
<path d="M118.8,59.7l-4.7,1.4c1.1,1.4,2.2,2.8,3.4,4.1C117.9,63.3,118.3,61.5,118.8,59.7z"/>
<path d="M56.1,114.9c-2.2-4.1-4.7-8.1-7.1-12.1c-0.5-0.8-1.2-1.4-1.8-2.2c-0.2,0.1-0.4,0.2-0.6,0.3c0.3,1.2,0.5,2.4,0.9,3.5
	c3.5,8.1,7,16.2,10.5,24.3c1.3,2.9,2.7,5.8,3.8,8.8l5.7-1.1c-0.6-1.2-1.2-2.4-1.9-3.5C62.4,126.8,59.4,120.8,56.1,114.9z"/>
<path d="M96.1,100.3c3.9,5.7,8,11.3,11.4,17.2c1.1,1.8,2.1,3.6,3.1,5.5c0.3-4.7,0.7-12,1.5-20.4c-3.6-7.2-7.6-14.2-12.3-20.9
	c-3.2-4.5-6.4-9-9.6-13.5l-5,1.5c3.4,5.1,6.9,10.1,10.7,15c4.7,6,8.7,12.5,11.3,19.6c0.4,1,0.5,2.1,0.7,3.2
	c-0.3,0.1-0.6,0.2-0.9,0.3c-1.7-2.2-3.5-4.3-5.1-6.6C95,90.9,88.1,80.9,81.5,70.7l-5.3,1.6c2.5,3.9,4.9,7.8,7.2,11.5
	c-0.1,1.9-0.6,3.6-0.1,4.9c2.2,5.8,4.6,11.5,7.1,17.1c3.6,7.9,7.4,15.8,11.1,23.7l6.3-1.3c-1.6-3-3.1-5.9-4.7-8.9
	c-3.3-6.3-6.8-12.4-10.2-18.6c-0.7-1.3-1.2-2.7-1.9-4.1c0.3-0.2,0.6-0.4,1-0.6C93.4,97.4,95,98.7,96.1,100.3z"/>
<path d="M52,129c-0.1-1.6,0.5-3.5-0.2-4.9c-1.9-3.9-3.9-7.7-6-11.4l5.9,26.9l3.5-0.7c-1-2.7-2-5.3-3-8C52,130.3,52,129.6,52,129z"/>
<path d="M74,80.6c-1.2-2.2-2.4-4.4-3.6-6.6l-4.8,1.4c2.3,4.4,4.3,8.8,6.3,13.4c3.4,7.9,7.1,15.7,10.6,23.6
	c2.9,6.5,6.3,12.9,10.1,18.9l5.9-1.2c-3.1-6.1-6.2-12.2-9.2-18.4C84.1,101.4,79.3,90.8,74,80.6z"/>
<path d="M73.6,105.8c-5.1-9.4-10.1-18.9-15.5-28.2l-6,1.8c8.2,14.4,16.6,28.8,24.9,43.2c0.4,0.7,0.7,1.3,0.9,2
	c0.4,1.5-0.6,2.4-2.2,2.4c-1.9,0-2.4-1.3-2.9-2.6c-6.1-15.6-15-29.9-24.2-44l-5,1.5c4.5,7.9,9.1,15.8,14,23.5
	c6.1,9.6,11,19.7,15.6,29.9l4.6-0.9c-0.1-0.2-0.2-0.3-0.3-0.5c-1.1-1.9,0.2-2.8,1.6-3.5c1.8-1,2,0.7,2.4,1.5
	c0.2,0.5,0.5,1.1,0.7,1.6l5.5-1.1c-1.5-2.6-2.9-5.2-4.3-7.9C80.2,118.1,76.9,111.9,73.6,105.8z"/>
<path d="M113,93.6c0.3-2.8,0.7-5.6,1-8.4c-2.9-4-5.6-8.2-8.4-12.3c-1.8-2.6-3.9-5-5.5-7.6l-5.5,1.6c3.8,5.1,7.5,10.3,11.1,15.6
	C108.2,86.1,110.7,89.8,113,93.6z"/>
<path d="M474.6,122.9c10.6-8,21.6-15.5,32.4-23.2c1.3-0.9,2.8-1.4,4.3-1.9c0.8-0.3,1.8,0,2.7,0c-7.2,7.1-15,13-21.3,20.9
	c1.7-0.2,3.2-0.6,4.4-1.5c5.9-4.2,11.8-8.3,17.5-12.8c10.1-8,20.6-15,31.9-20.8c6.2-3.2,12.4-6.5,18.6-9.8
	c9.6-5.2,19.2-10.3,28.7-15.8c3.2-1.8,6-4.4,8.9-6.8l-5.9-1.7c-1.1,0.5-2.1,1-3.2,1.6c-15.1,8.6-30.2,17.4-45.3,26.1
	c-0.7,0.4-1.3,0.7-2,0.9c-1.5,0.4-2.4-0.6-2.4-2.2c0-1.9,1.3-2.4,2.6-2.9c16-6.3,30.7-15.5,45.2-25c-1.9-0.1-5-0.3-9-0.6
	c-5.7,3.3-11.5,6.7-17.1,10.3C552.7,66.1,539,72,525.3,78.2c-1.5,0.7-2.5,0-3-1.5c-0.4-1.4-0.5-2.7,1.3-3.5
	c4.9-2.3,9.6-4.9,14.4-7.4c6-3.1,12-6.2,18-9.5c4.1-2.2,8.1-4.7,12.1-7.1c0.8-0.5,1.4-1.2,2.2-1.8c-0.1-0.2-0.1-0.3-0.2-0.5
	c-0.2,0-0.3,0-0.5,0c-1,0.2-2.1,0.4-3.1,0.8c-8.1,3.5-16.2,7-24.3,10.5c-4.1,1.7-8.1,3.8-12.3,4.9c-6.4,1.7-13,2.8-19.6,4
	c-1,0.2-2.1-0.2-3.1-0.4c-0.1-0.3-0.2-0.6-0.2-1c1.4-0.8,2.8-1.8,4.3-2.4c9.5-3.7,19.1-7.3,28.7-11c0.6-0.2,1.3-0.2,1.9-0.2
	c1.6-0.1,3.5,0.5,4.9-0.2c3.6-1.7,7.1-3.6,10.6-5.5c-3.8-0.1-7.7-0.1-11.6-0.1c-1.3,0-2.5,0-3.8,0c-6.8,2.4-13.5,4.7-20.2,7.2
	c-19,6.9-37.5,14.8-54.9,25.8c-2,1.2-4.2,2.1-6.3,3c0,0-0.1,0-0.1,0c-0.7,4.4-1.2,8.8-1.7,12.9c4.6-4,9.4-7.7,14.6-11
	c9.8-6.2,20.2-10.7,31.4-12.7c1.6-0.3,3.3,0.2,4.9,0.6c0.6,0.2,1.2,1.2,1.4,1.9c0.1,0.4-0.9,1.2-1.5,1.5
	c-9.3,4.7-18.7,9.3-28.1,13.9c-1.5,0.8-3.2,1.5-4.5,2.6c-6.4,5.1-12.9,10.1-19.3,15.3c-0.2,2.5-0.4,4.8-0.5,6.9
	c0.7-0.7,1.5-1.5,2.2-2.2c13.7-12.8,29.7-21.5,45.9-30c3.7-1.9,7.5-3.8,11.3-5.7c1,1.7,1.7,3.1,2.6,4.6c-1.2,0.6-2.3,1.1-3.5,1.6
	c-10.6,5.2-21.3,10.1-31.7,15.6c-10.8,5.7-20,13.9-27.3,24c-0.1,3.3-0.2,5.4-0.2,5.9l0.1,0.1l0.2-0.1c0,0,0,0.1,0,0.1
	c0.2,0.2,0.3,0.4,0.5,0.8c3-4.9,6.9-9.5,11.6-13.7c3.8-3.4,8-6.4,12.4-8.9c12.4-7.1,24.5-14.9,38.2-18.8c0.6-0.2,1.1-0.6,1.6-0.9
	c5.4-3,10.9-5.9,16.2-9c1.9-1.1,2.8,0.2,3.5,1.6c1,1.8-0.7,2-1.5,2.4c-9.1,4.1-18.1,8.4-27.2,12.3c-17,7.4-32.2,18.1-46.1,30.8
	c-2.8,2.5-5,5.4-6.8,8.6c0.7,2.2,1.4,5.3,2.2,9.5C463.4,134.9,467.8,128.1,474.6,122.9z"/>
<path d="M509.5,348.3c-4.8-3.2-9.4-6.8-13.5-10.9c-10.2-10.1-20.2-20.4-30.2-30.7c-0.1,2.2-0.2,4.4-0.3,6.5c4.9,4.9,9.8,9.9,14.4,15
	c14,15.3,30,27.3,47.7,36.6c4.4,0.5,8.8,0.8,13.4,1c-3.8-1.4-7.5-3.1-11.1-5.2C523,356.6,516.1,352.7,509.5,348.3z"/>
<path d="M637.5,125.1c-1.4,2-2.8,4-4.4,5.7c-5.9,6.4-12,12.6-17.9,19c-1.1,1.2-2,2.8-2.7,4.3c-5.1,11.1-8.4,22.9-11.3,34.7
	c-3.5,14.3-8.7,27.5-17.5,38.9c-4.7,6-10.8,8.3-17.7,8.2c-3.9,0-7.6-1.4-10.5-4.4c-5.9-6.2-11.8-12.4-17.9-18.4
	c-7.3-7.2-13.3-15.6-18.9-24.3c-3-4.7-3.9-10.1-1.8-15.6c0.3-0.9,1.6-1.3,2.4-1.9c0.3,1,0.9,2,0.8,2.9c-0.5,3.6,0.1,6.9,1.9,9.9
	c1.8,2.9,3.6,5.9,5.8,8.5c7.9,9.5,15.9,18.8,24,28.1c3.2,3.7,7.2,6.1,11.6,7.8c6.9,2.5,13.4,0.2,18.1-5.9c6.7-8.8,10.4-19,13-29.8
	c2.4-10.3,5.1-20.5,7.8-30.7c2.1-7.7,6-14.1,11.4-19.5c3.5-3.5,6.9-7.3,10.4-10.9c1-1.1,2.2-1.9,3.2-3c1.9-2,4.2-3.7,5.5-6.1
	c1.3-2.2,2.7-4.3,4.1-6.4c-0.1-1.9-0.2-3.9-0.4-6.1c-4.5,6.7-9.4,12.9-15.1,18.3c-3.6,3.4-7.3,6.6-10.6,10.3
	c-6.9,7.6-13.3,15.7-15.8,26.3c-1.9,7.7-3.2,15.5-5,23.2c-1.2,5.3-2.7,10.5-4.2,15.7c-0.5,1.6-1.4,2.8-3.1,2c-1.8-0.8-1.8-2.3-1.3-4
	c0.4-1.6,1-3.2,1.3-4.9c1.1-5.9,3.3-11.4,3.3-17.7c0-12.2,3.4-23.1,11-32.3c1.6-1.9,2.7-4.3,4.2-6.2c2.5-3.1,5.1-6,7.8-8.8
	c1.7-1.8,3.8-3.1,5.5-4.9c4.4-4.4,8.6-8.8,12.9-13.3c0.6-0.6,0.9-1.5,1.4-2.2c-0.1-0.2-0.3-0.4-0.4-0.6c-0.9,0.4-1.9,0.6-2.6,1.3
	c-2.8,2.4-5.6,5-8.4,7.5c-0.8,0.7-1.8,1.4-2.8,1.7c-1.7,0.4-2.6-0.8-1.6-2.4c1.1-1.8,2.4-3.5,3.9-4.8c2.8-2.5,5.9-4.6,8.8-7
	c0.9-0.7,1.6-1.7,2.4-2.6c-0.1-0.2-0.2-0.4-0.3-0.6c-0.9,0.2-1.9,0.2-2.6,0.6c-3.6,1.8-7.5,3.3-10.7,5.8c-9.1,7.1-17.9,14.5-26.7,22
	c-5.4,4.6-10.1,10.1-12.3,17.3c-1.3,4.2-2.3,8.5-2.8,12.9c-1.4,11.1-1.4,22.2,2.2,32.9c1.9,5.7,0.5,10.6-2.7,15.1
	c-2.2,3-5,2.6-7-0.5c-0.5-0.9-1.1-1.7-1.6-2.6c-4.4-7.4-8.7-14.7-13.1-22.1c-0.8-1.4-2-2.6-2.9-3.9c-1.1-1.5-2.2-3.1-3-4.7
	c-1-1.9-0.3-3.1,1.6-2.8c1.4,0.2,2.9,1.1,4.1,2.1c4.1,3.9,6.5,9.1,9,14.2c1.4,2.9,2.9,5.8,4.6,8.5c1,1.7,2.4,3.5,4.5,2.7
	c2.2-0.9,1.8-3.3,1.5-5.3c-0.6-3.4-1.5-6.7-2-10.1c-0.8-6-1.6-11.9-2-17.9c-0.7-11.2,3.4-20.6,9.9-28.9c7.5-9.7,16.9-17,26.1-24.6
	c7.7-6.3,15.2-13,22.9-19.5c3.2-2.7,6.4-5.6,9.8-8c-0.2-1.8-0.5-3.5-0.8-5.3c-0.5,0.4-0.9,0.9-1.4,1.3c-14.3,13.8-30.6,24.5-46,36.7
	c-0.1,0.1-0.2,0.2-0.4,0.3c-0.8,0-1.7,0.4-2.3,0c-0.5-0.4-1-1.7-0.8-2.2c0.6-1.4,1.5-3,2.6-3.9c4.1-3,8.4-5.7,12.6-8.6
	c2.7-1.9,5.3-4.1,8.1-5.8c10.1-6,18.6-14.2,26.6-23.1c-0.6-3.3-1.2-6.6-1.9-9.9c-15,9.4-30.5,18-44.6,29c-6,4.7-12.5,8.7-19.6,11.3
	c-1,0.4-2.1,0.5-3.2,0.7c-0.1-0.3-0.2-0.6-0.3-0.9c2.2-1.7,4.3-3.5,6.6-5.1c12.4-8.4,24.7-17.1,37.5-25c7.7-4.8,15-10.1,22.2-15.7
	c-0.2-0.8-0.4-1.6-0.6-2.3l0,0l-3.6-1.1c-3.1,2.1-6.1,4.2-9.2,6.3c-3.8,2.6-7.5,5.5-11.4,8c-6,3.9-12.1,7.7-17.8,11.3
	c-1.9-0.1-3.6-0.6-4.9-0.1c-5.8,2.2-11.5,4.6-17.1,7.1c-8.9,4.1-17.7,8.4-26.6,12.5c-1.3,0.6-2.9,0.7-4.4,1
	c-0.1-0.3-0.2-0.6-0.4-0.9c1.5-1.1,2.8-2.4,4.4-3.2c6.9-3.6,13.9-7.1,20.9-10.5c10.4-5.1,20.9-9.8,31.2-15.2
	c6.9-3.6,13.4-7.8,20.1-11.9c3.1-1.9,6.2-3.9,9.2-6.1l-5.8-1.7c-9.9,7.2-20.6,12.8-31.7,17.5c-7.9,3.4-15.7,7.1-23.6,10.6
	c-12.9,5.8-25,13.2-36.1,22.5c-7.6,6.3-15.4,12.2-23.1,18.4c-2.1,1.7-3.8,2.2-5.8,0.3c-2.5-2.4-5.1-2-7.8-0.3
	c-0.9,0.6-1.8,1.1-2.6,1.8c-12,9.7-18.5,22.6-19.2,39c0,0.4,0,0.8,0,1.2c0.1,1.4,0.2,2.9,0.4,4.5c0.8,11.2,1.6,27.3,2.1,45.7
	c1.1,3.9,2.2,7.7,3.3,11.6c3.1,10.8,7.8,20.7,13.8,29.8c6.3,9.4,13,18.5,19.5,27.8c5.8,8.3,13.1,14.6,21.3,19.8
	c12.9,8.1,26.4,14.8,40.5,20.1c6.7,2.5,13.6,3.9,20.7,3.8c12.6-0.1,25.1-0.4,37.7-0.9c2.3-0.1,4.6-0.3,6.8-0.6c-0.2-2-0.3-4-0.5-6
	c-3.9,0.9-7.9,1.4-11.9,1.5c-9.2,0.2-18.4,0-27.5-0.3c-4.6-0.2-9.3-0.6-13.9-1.6c-17.7-3.8-34-11.6-49.5-21.4
	c-11.3-7.2-20.8-16.8-28.3-28.4c-4.6-7.2-8.7-14.7-13.2-22c-6.6-10.6-11-22.2-14.4-34.3c-2.9-10.5-5-21.1-2.5-32.1
	c0.4-1.6,0.5-3.3,0.6-5c0.5-7.2,0.8-14.5,1.3-21.7c0.7-8.6,4-15.9,9.6-22c2-2.1,4.3-3.4,7.1-3.3c1.8,0.1,3,1.2,2.5,3.1
	c-0.5,2.1-1.2,4.5-2.5,6c-3.7,4.2-6.2,9-8,14.4c-1.8,5.4-3.5,10.9-5.4,16.4c-2.7,7.9-3.1,16.1-1.6,24.2c2.5,13.4,6.9,26.3,11.5,39
	c2.8,7.7,5.7,15.4,10.2,22.2c12.5,19.1,27.8,34.9,46.5,46.5c9.9,6.1,20.2,11.6,31.8,12.9c2.9,0.3,5.9,0.7,8.8,0.9
	c8.4,0.7,16.8,1.8,25.2,1.7c8.1-0.1,15.7-1.5,23.1-4.1c-0.1-1.8-0.2-3.6-0.3-5.4c-4.5,1.6-9.1,2.8-13.8,3.7
	c-6.3,1.1-12.8,0.5-19.3,0.7c-15.9,0.7-30.8-3.3-45.2-10.3c-14.4-7-27.6-16-38.2-28.8c-18-21.7-27.9-47.7-34.1-75.7
	c-0.8-3.4-0.7-7.1-1-10.7c2.8-0.3,4,0.8,4.7,3.6c1,4.2,1.9,8.4,3,12.6c0.4,1.5,1.1,2.9,1.7,4.4c0.3-0.1,0.6-0.1,0.9-0.2
	c0.2-1.1,0.5-2.3,0.4-3.4c-0.3-5.2-0.5-10.5-1.1-15.6c-1.3-10.1,0.2-19.4,4.6-28.4c5.1-10.4,12.4-18.1,21.9-23.5
	c12.4-7.1,25.6-12.3,38.8-17.2c13.1-4.9,25.5-11.2,37.1-19.3c7.5-5.2,14.8-10.6,22.4-15.7c3.6-2.4,7.4-4.4,11.2-6.4
	c0.8-0.4,1.7-0.6,2.6-0.9c0.1,0.2,0.3,0.5,0.4,0.7c-1.6,1.6-3.1,3.3-4.9,4.6c-10.8,8-21.4,16.2-32.4,23.7c-13,8.8-26.4,17-41.5,20.9
	c-10.2,2.6-20,6.5-29.4,11.5c-2.8,1.5-5.3,3.4-7.9,5.3c-0.6,0.5-0.9,1.6-1.3,2.4c0.8,0.3,1.8,1,2.5,0.8c3.5-0.9,7-1.9,10.4-3.2
	c4.7-1.8,9.2-4.2,13.9-5.8c3.1-1,6.4-1.3,9.6-1.6c1.1-0.1,2.5,0.6,3.4,1.4c1.5,1.3,1.3,2.6-0.5,3.6c-1.8,0.9-3.7,1.7-5.6,2.4
	c-8.1,2.7-16.1,5.3-24.2,7.9c-3.7,1.1-7.4,1.6-11-0.6c-0.7-0.5-2.1-0.3-2.9,0.1c-1.3,0.7-2.5,1.7-3.5,2.8c-3.7,3.9-5.2,9.1-6.3,14.4
	c-2,9.9-1.6,19.8-0.5,29.8c2.7,23.5,11.5,44.1,25.5,62.1c1.6,2.1,3.8,3.8,5.9,5.3c0.9,0.7,2.4,0.5,3.6,0.7c-0.4-1.2-0.6-2.6-1.3-3.6
	c-2.3-3.2-5-6.1-7.2-9.5c-3.5-5.6-6.8-11.3-10-17.1c-10.4-18.2-13.7-38.1-11.4-59.3c0.4-3.9,1.2-7.8,2-11.6c0.2-0.9,0.8-1.7,1.2-2.5
	c0.3,0.1,0.5,0.1,0.8,0.2c0.1,1.8,0.4,3.6,0.3,5.4c-0.3,4.9-0.9,9.8-1.2,14.6c-0.5,8.8-1.3,17.9,2,26.2c4.3,10.8,9.4,21.3,14.2,31.9
	c0.1,0.3,0.3,0.6,0.5,0.8c5.5,6.4,10.8,13.1,16.6,19.1c5.4,5.6,11.6,10.2,18.5,13.5c3.4,1.6,4,2.9,2.9,6.7c-0.2,0.7-0.4,1.4-0.7,2
	c-1,2-0.6,3.9,0.6,5.6c2.9,4,6.5,6.7,11.4,6.9c2.4,0.1,4.7,0.1,7.1,0c1,0,2-0.4,3-0.6c-0.1-2.8-1.6-3.8-3.5-4.3
	c-2.1-0.5-4.2-0.7-6.3-1.1c-3.7-0.8-5-2.6-4.3-5.8c0.5-2.1,2.2-2.2,5.8-1c2.4,0.8,4.9,1.2,7.4,1.4c2.6,0.1,5.2-0.1,7.7-0.5
	c2-0.3,2.4,0.6,2,2.4c-0.5,2.3-1.2,4.5-1.6,6.8c-0.6,3.4,0.5,5,3.6,4.6c4.4-0.6,8.9-1.3,13.2-2.8c9.5-3.3,18-8.3,25.9-14.2
	c0-2-0.1-4-0.1-6.1c-3,2.5-6.2,4.7-9.8,6.5c-6.5,3.2-13.2,6-19.9,8.8c-1.3,0.6-2.9,0.8-4.3,0.7c-0.8-0.1-1.6-1.1-2-1.5
	c0.3-3.2,1.5-4.8,3.5-5.7c3.8-1.6,7.5-3.4,11.4-4.8c8-2.9,14.9-7.7,21-13.9c0-2.9,0-5.8,0-8.8c-0.5,0.6-1,1.1-1.6,1.7
	c-1.1,1.2-2.8,2-4.4,2.6c-1.4,0.6-2.1-0.3-1.5-1.8c0.5-1.2,1.2-2.4,1.9-3.5c1.8-2.9,3.7-5.8,5.6-8.7c0-3.4,0.1-6.7,0.1-10
	c-4.3,7.4-9.8,13.8-16.9,18.6c-5,3.4-10,7-15.2,10c-13.5,7.8-27.2,9-41,0.4c-1.9-1.2-3.8-2.2-5.7-3.3
	c-19.3-11.7-32.8-28.8-39.7-51.7c-4.1-13.7-4.5-27.6,0.4-41.4c1.3-3.8,3.5-6.5,6.7-8.7c7-4.9,14.7-7.7,22.8-9.6
	c4.5-1,8.9-2.4,13.5-2.8c6.6-0.6,11.2-3.8,13.6-10.5c0.4-1,0.2-2.3,0.3-3.4c-1,0.1-2,0.2-2.9,0.4c-1.6,0.4-3.6,1.7-4.5-0.6
	c-0.8-2.2,1.3-3.1,2.8-3.9c4.2-2.4,8.4-4.8,12.5-7.2c1.6-1,3.1-1.6,4.6,0.1c1.3,1.6,1,3.7-0.5,5.6c-2.1,2.7-4,5.5-6,8.3
	c-3.1,4.3-5.9,8.9-9.3,12.9c-3,3.7-7,5.3-11.6,4.3c-1.4-0.3-2.8-0.4-4.2-0.3c-11.2,1.2-21.7,4.8-31,12c-1.9,1.4-3.3,3.9-4.2,6.3
	c-2.5,6.3-0.3,12,2.6,17.6c2.3,4.4,4.5,8.9,6.2,13.5c4.7,12.2,9.4,24.4,18.6,33.6c5.6,5.7,11.6,10.8,18.3,14.8
	c2.3,1.4,4.6,3,6.8,4.6c0.6,0.5,1.1,1.3,1.6,1.9c-0.1,0.2-0.2,0.4-0.3,0.6c-1.1-0.2-2.2-0.3-3.2-0.7c-8.2-3.2-16.2-7-22.5-13.7
	c-12.2-13.1-22.4-27.6-25.6-46.6c-0.3-1.6-1.1-3.1-1.7-4.6c-0.3,0.1-0.5,0.1-0.8,0.2c-1.2,2-1.4,4.4-1,6.6c0.8,4.8,1.5,9.8,3.2,14.2
	c9.2,23.6,24.2,41,46.7,49.9c6.3,2.5,12.5,3,19,0.3c12.3-4.9,24.3-10,35-18.5c5.4-4.3,9.5-9.7,12.1-16.3c0.2-0.5,0.4-1.1,0.6-1.6
	c0.1-4.1,0.2-8.1,0.3-12c-1.6,4.2-4,7.8-6.5,11.5c-0.4,0.5-1.3,1.1-1.8,0.9c-0.7-0.2-1.6-1-1.9-1.7c-0.3-0.8,0-1.9,0.4-2.7
	c2.4-5.8,5.3-11.4,7.1-17.4c1.2-3.9,2.3-7.9,3.4-11.8c0.4-8.3,0.8-15.6,1.2-21.8c-3.1,15.1-8.3,29.4-15,43c-2,4.2-4.9,8.1-6.1,12.6
	c-1.2,4.4-4.1,6.2-6.9,8.4c-2.7,2.2-5.6,4.2-8.5,6.2c-5.4,3.9-11.4,6.1-17.6,7.6c-1,0.2-2,0.2-3,0.3c0-0.2-0.1-0.4-0.1-0.7
	c0.7-0.3,1.5-0.6,2.2-0.8c6.1-1.7,11.3-5,16-9.6c6.8-6.6,12.5-14.1,16.7-22.9c1.4-3,3-5.9,4.7-8.7c5.6-9.4,8.9-19.8,11.2-30.5
	c0.2-0.8-0.3-2.2-0.8-2.6c-0.6-0.4-2.1-0.1-2.5,0.5c-1.3,1.6-2.5,3.4-3.3,5.4c-2.4,5.5-4.9,11-6.8,16.8c-3.2,9.7-8,18.3-13.1,26.7
	c-5.9,9.6-13.9,16.2-23.6,20.3c-2,0.9-4.3,1.4-6.5,1.2c-3-0.2-6.1-0.8-8.8-2.1c-8.2-4-15-10-20.6-17.6c-1.2-1.7-2.6-3.5-2-6.2
	c1.7,1,3.1,2.3,4.5,3.6c3.9,3.6,7.5,7.5,11.6,10.9c8.2,6.7,16.9,7.6,25.9,1.8c13.4-8.7,22.2-21.5,27.2-37.4
	c2.9-9.3,5.2-18.8,7.8-28.2c3.6-13,9.5-24.3,19.7-32.7c0.9-0.7,1.7-1.5,2.5-2.4c1.1-4.3,2.2-6.2,2.9-7.1l-0.3,0
	C637.6,128.3,637.6,127.1,637.5,125.1z M529.4,120.9c-6.4,3.6-12.8,7.1-18.9,11.1c-16.5,10.7-24.9,27.4-28.2,47.4
	c-0.1,0.6-0.1,1.1-0.2,1.7c0,0.1-0.2,0.3-0.3,0.5c-0.5-0.3-1.1-0.7-1.6-1c-0.6-0.3-1.2-0.5-2-0.8c0.1-0.6,0.1-1.3,0.2-1.9
	c2.9-10.9,6.5-21.5,12-31.3c3.2-5.8,7.4-10.7,12.5-14.5c15.4-11.3,32-20.1,48.7-28.8c6.3-3.3,12.4-6.8,18.6-10.2
	c1.3-0.7,2.7-1.2,4.1-1.9c0.2,0.3,0.4,0.6,0.6,1c-1.4,1.4-2.7,3-4.3,4.1c-5.7,3.9-11.3,8-17.2,11.4
	C545.5,112.4,537.4,116.4,529.4,120.9z M564.7,274.3c0.5-0.2,1.2-0.1,2-0.2c1.2,0.2,2.7,0.4,4.2,0.6c11.9,2,22.8-0.7,33-7.7
	c1.4-1,2.9-2,4.5-2.6c2.5-1.1,3.6-0.1,3.1,2.8c-0.2,1.1-1,2.2-1.7,3.2c-0.5,0.7-1.3,1-1.9,1.6c-5,4.9-10.8,7-17.5,7.5
	c-7.5,0.5-15,1.1-22.5-0.4c-1.2-0.3-2.5-0.6-3.6-1.2c-0.7-0.4-1-1.4-1.5-2.1C563.4,275.3,564,274.6,564.7,274.3z M576.4,168.1
	c0.2-8.2,2.8-15.6,7.6-21.9c5.3-7,11.5-13.2,18.4-18.4c1.9-1.4,3.6-2.9,6.8-3.2c-0.7,1.6-1,2.9-1.7,3.7c-3,3.5-6,6.9-9.1,10.2
	c-4,4.2-8.2,7.9-11.5,12.9c-3.4,5.1-5,10.4-5.2,16.5c-0.2,5.1-0.6,10.3-1,15.4c-0.2,2.4-0.2,5-2.7,7.4c-0.4-1.6-0.8-2.7-0.8-3.7
	C576.9,180.7,576.3,174.4,576.4,168.1z M533,164.6c5.8-4.3,12.2-5.9,19.2-4.6c3.6,0.7,5.6,3.7,6.7,7c1.4,4.1,2.1,8.5,3,12.8
	c0.2,0.9-0.1,2-0.2,3c-0.3,0.1-0.5,0.1-0.8,0.2c-0.4-0.7-0.9-1.4-1.3-2.1c-0.8-1.8-1.7-3.6-2.4-5.4c-1.5-4.3-4.5-6.9-8.2-8.7
	c-4.8-2.3-9.3-1.2-12.3,3.1c-2.7,3.9-2.4,8.8,0.9,13c8,10.3,16.1,20.5,24.2,30.8c2,2.6,4.3,4.7,7.5,5.1c1.9,0.2,3.5-0.3,4.7-1.9
	c0.8-1,1.7-2.2,2.7-2.7c0.9-0.4,2.3-0.2,3.2,0.3c0.3,0.2,0.3,2.1-0.1,2.8c-3,5.8-10.1,10.1-17.3,5.2c-4.4-3-7.9-7-11.2-11.2
	c-7.1-9.1-14.2-18.3-21.3-27.4C525.5,177.8,526.5,169.4,533,164.6z M578.8,253c3.6-1.2,7.3-2.2,10.8-3.6c9.5-3.8,17.7-9.5,23.9-18.4
	c0.3-0.4,0.6-0.7,1-1.2c3.9,2.2,3.9,2.3,1.1,5.8c-9.5,11.5-21.4,17.7-35.2,20.1c-1.6,0.3-3.3,0-4.9,0c-0.1-0.3-0.1-0.7-0.2-1
	C576.4,254.1,577.6,253.4,578.8,253z"/>
<path d="M627.1,341.2c-14.6,4.5-29.3,8-44.8,6.6c-16.7-1.5-32.7-5.7-47.7-13.7c-11.1-5.9-20.8-14.1-30.8-21.8
	c-6-4.6-11.6-9.7-17.3-14.7c-1.7-1.5-2.9-3.6-4.1-5.6c-0.4-0.7-0.6-2.3-0.2-2.9c0.4-0.5,1.8-0.6,2.6-0.3c5.1,1.6,9.4,4.6,12.9,8.9
	c2.2,2.7,4.1,5.8,6.4,8.4c2.9,3.4,5.8,7,9.3,9.5c28.3,20.9,59.7,28.4,93.5,25.6c6.4-0.5,12.8-1.3,18.9-3.9c1.7-0.7,3.4-1.7,5-2.8
	c-0.1-1.4-0.3-2.8-0.4-4.2c-2.7,0.3-5.5,0.5-8.1,1.3c-18.2,5.3-36.5,5.3-55,2.6c-17.2-2.5-32.6-9.6-47.2-19.2
	c-2.1-1.3-3.9-3.2-5.7-5c-0.7-0.6-1-1.6-1.5-2.4c0.1-0.2,0.2-0.4,0.3-0.5c0.7,0.2,1.5,0.2,2.2,0.6c1.6,0.9,3.1,1.9,4.6,3
	c11.8,9.2,25.3,14.6,38.9,19.8c1.6,0.6,3.5,0.3,5.2,0.4c0.1-0.4,0.2-0.8,0.3-1.3c-1.8-1-3.4-2.2-5.3-3c-5.7-2.5-11.5-4.7-17.1-7.4
	c-17.9-8.5-33.5-20.5-45.3-37.7c-1.5-2.1-3.1-4.1-4.5-6.2c-10-14.3-19.1-29.1-25.2-45.5c0.1,4.1,0.1,8.2,0.2,12.5
	c1.1,2.6,2.3,5.2,3.4,7.8c4.3,9.9,9.4,19.3,16.5,27.2c1.4,1.6,2.6,3.5,3.9,5.3c0.5,0.7,0.8,1.6,1.3,2.9c-1.1-0.2-1.7-0.2-2.1-0.4
	c-3.6-1.9-7.1-3.9-9.4-7.8c-4.5-7.4-9-14.8-13.5-22.2c0,2.3,0,4.5,0,6.8c0.5,0.6,0.9,1.3,1.4,1.9c2,2.9,3.7,6,5.4,9.1
	c0.4,0.7-0.1,2-0.2,3c-0.8-0.4-1.9-0.5-2.5-1.2c-1.4-1.8-2.8-3.6-4.2-5.4c0,2.4-0.1,4.9-0.1,7.3c1.1,1.2,2.1,2.3,3.1,3.5
	c0.7,0.8,1.2,1.8,1.8,2.7c-0.2,0.3-0.4,0.6-0.6,0.8c-1.5-0.8-3-1.5-4.5-2.4c0,1.9-0.1,3.7-0.1,5.6c3.8,3.5,7.7,7,11.5,10.5
	c5.7,5.2,11.4,10.6,17,15.9c5.5,5.2,11.1,10.4,16.6,15.7c1.5,1.4,1.4,2.9,0.2,4.6c-1.2,1.8-2.4,1.6-3.8,0.7
	c-1.6-1.1-3.2-2.1-4.6-3.4c-3.1-2.9-6.1-5.9-9.1-8.9c-9.4-9.4-18.7-18.7-28.1-28.1c-0.1,1.8-0.1,3.5-0.2,5.3
	c12.5,12.9,24.9,25.9,37.5,38.6c4.8,4.8,10.1,8.9,15.5,12.8c4,2.9,8.5,4.9,12.8,7.2c0.6,0.3,1.4-0.1,2.2-0.1
	c-0.2-0.8-0.1-1.8-0.6-2.4c-0.6-0.8-1.4-1.4-2.3-1.9c-2.1-1.3-4.4-2.3-6.5-3.7c-2.5-1.8-5-3.7-7.3-5.8c-1.2-1.1-2.5-2.9-1-4.6
	c1.4-1.6,2.5,0.4,3.5,1.2c11.5,9.9,24.3,17,38.3,21.8c2.9,1,5.8,1.8,8.7,2.4c8.6-0.9,16.5-2.4,23.7-4.1c-1.4,0-2.9-0.4-4.4-0.7
	c-1.2-0.3-2.7-1-2.3-2.9c0.4-1.8,1.6-2.5,3.4-2.6c5.9-0.4,11.9-0.5,17.6-1.7c8.1-1.8,16-4.5,24-6.8c0.8-0.2,1.5-0.6,2.2-1
	c0.1-0.1,0.2-0.2,0.4-0.2c-0.2-1.7-0.4-3.4-0.6-5.2C629.9,340.1,628.5,340.7,627.1,341.2z M579.2,356.9c-0.3,1.1-1.7,2.5-2.7,2.5
	c-4,0-8.1,0.1-11.9-0.8c-11.7-2.8-22.3-8.9-32.9-14.9c-1.5-0.8-2.6-2.4-3.8-3.6c0.1-0.3,0.3-0.6,0.4-0.9c1.3,0.3,2.7,0.4,3.9,0.9
	c5.2,2.1,10.3,4.7,15.6,6.3c8.8,2.7,17.8,4.7,26.7,7c0.7,0.2,1.5,0.2,2.2,0.4C578.4,354.1,579.6,355.3,579.2,356.9z"/>
<path d="M462.5,345.8c0,0.2,0,0.3-0.1,0.5c0.6,0.3,1.4,0.6,2.3,1.1c-0.2-0.2-0.4-0.3-0.7-0.5C463.6,346.5,463,346.1,462.5,345.8z"/>
<path d="M465,320.7c-0.1,2.1-0.3,4.2-0.5,6.2c0.3,0.3,0.6,0.6,1,0.9c12.2,10.8,24.3,21.6,36.5,32.3c3.4,0.8,6.9,1.6,10.6,2.3
	c-5.9-3.7-11.6-7.9-17-12.6C485,340.4,474.9,330.6,465,320.7z"/>
<path d="M463.8,334.9c-0.2,2.2-0.5,4.3-0.7,6.4c0.6,0.5,1.2,1.1,1.9,1.6c3.7,3.1,7.4,6.1,11.1,9.1c3.9,1.5,8.5,3.1,13.6,4.6
	c-7.4-6-14.8-12-22.1-18C466.1,337.6,464.9,336.3,463.8,334.9z"/>
<path d="M481.6,54.3l-16.8,4.9c-0.5,1.9-1,3.9-1.4,5.9C469.3,61.1,475.3,57.5,481.6,54.3z"/>
<path d="M461.9,73.1c-0.3,1.8-0.6,3.6-0.9,5.3c2.1-1.6,4.3-3.2,6.5-4.5c16.3-9.5,33.1-17.6,50.3-24.7c0.7-0.3,1.4-0.5,2.1-0.7
	c2.7-0.7,5.4-1,8.1-1.8c-8.4,0.3-15.9,0.7-21.2,1c-6.2,2.7-12.2,5.8-18,9.5c-6.1,3.9-12.3,7.5-18.2,11.5
	C467.8,70.7,464.9,72,461.9,73.1z"/>
<path d="M519.3,268.5c-7.4-7.7-13.1-16.6-16.9-27.1c-2.7-7.5-6.3-14.5-9.6-21.7c-0.6-1.3-1.6-2.3-2.4-3.5c-0.2,0.1-0.5,0.3-0.7,0.4
	c0.3,1.5,0.4,3.1,0.9,4.5c2.6,7.5,5,15.2,8.2,22.4c9,20.6,22,37.4,40.1,49.4c19.8,13.1,41.8,15.6,64.3,15.6c4.8,0,9.6-1,14.3-1.7
	c2.2-0.4,4.4-1.1,6.3-2.1c1.6-0.8,3.2-1.6,4.9-2.4c-0.1-1.9-0.2-3.9-0.2-5.8c-4.7,2.4-9.6,4.4-14.4,6.6c-0.9,0.4-2,0.4-3,0.6
	c-0.1-0.2-0.2-0.5-0.2-0.7c1.3-0.9,2.5-1.8,3.8-2.6c4.5-2.7,9.1-5.3,13.7-8c-0.1-1.7-0.1-3.5-0.2-5.2c-8.9,5.4-18.3,9.7-28.2,12.7
	c-6.5,2-13.1,4.2-19.9,2.9c-6.7-1.3-13.5-2.7-20-5.1C544,291.8,531.1,280.9,519.3,268.5z"/>
<path d="M623,162.3c-0.7,1.5,0.1,4.7,1.5,5.3c2,0.8,2.3-1.3,3.2-2.5c0.2-0.3,0.3-0.6,0.4-0.9c1.1-2,2.2-4.1,3.3-6.1
	c0.5-4.3,0.9-8,1.4-11.2c-2.2,3.3-4.5,6.5-6.7,9.8C624.9,158.4,624,160.3,623,162.3z"/>
<path d="M632.7,101.6c0.9-0.4,1.8-0.8,2.6-1.3c0.2-0.1,0.3-0.2,0.5-0.3c-0.1-1.2-0.3-2.4-0.4-3.7c-0.5,0.6-1.1,1.1-1.6,1.7
	c-0.7,0.8-1.2,1.9-1.7,2.9C632.3,101,632.5,101.3,632.7,101.6z"/>
<path d="M548.5,283.4c0.1-0.3,0.2-0.5,0.3-0.8c-0.5-0.8-0.8-1.8-1.4-2.3c-3.9-3.1-7.8-6.2-11.8-9.1c-0.7-0.5-1.7-0.7-2.5-0.6
	c-0.6,0.1-1.4,0.7-1.6,1.2c-0.2,0.4,0.1,1.5,0.5,1.9c4,4,8.2,7.6,13.5,9.3C546.3,283.3,547.4,283.3,548.5,283.4z"/>
<path d="M461.2,71.5c0.4-2.1,0.8-4.1,1.3-6.2c-4,2.8-7.9,5.7-11.9,8.4c-8.3,5.8-14.6,13.1-19.8,21.3c-8.1,12.9-14.8,26.4-20.1,40.5
	c-0.1,0.4-0.3,0.8-0.4,1.2l7.8-1.6c4.3-13.2,10.6-25.7,18.2-37.7C442.6,87.3,451,78.6,461.2,71.5z"/>
<path d="M384,83.2l0.3,1.5c0.4-0.7,0.9-1.3,1.3-2L384,83.2z"/>
<path d="M697.3,79.2l-4.9-1.5c4,9.4,8,18.7,12,28.1c0.3,0.7,0.6,1.3,0.9,2l1.6-7.2c-1.9-4.1-3.7-8.1-5.5-12.2
	C700,85.3,698.7,82.3,697.3,79.2z"/>
<path d="M423.3,74.4c1-1.3,2-2.5,3-3.7l-12.1,3.6c-2.5,2.7-5.1,5.4-7.6,8c-1.4,1.5-2.9,1.4-4.6,0.2c-1.8-1.2-1.6-2.4-0.7-3.8
	c0.2-0.3,0.4-0.5,0.5-0.8l-9.9,2.9c-2.3,2.7-4.4,5.6-6.5,8.4l1.2,5.3c1.6-2.2,3.3-4.3,5.1-6.3c1.1-1.2,2.9-2.5,4.6-1
	c1.6,1.4-0.4,2.5-1.2,3.5c-2.6,3-5,6.1-7.2,9.3l1.5,6.8c0.8-1.5,1.7-3,2.5-4.5c0.8-1.5,2.4-2.6,3.6-3.8c0.3,0.1,0.6,0.3,0.9,0.4
	c-0.3,1.3-0.4,2.7-0.9,3.9c-1.5,3.7-3.2,7.3-4.6,10.9l2.4,11c2.1-6.7,4.8-13.3,8.2-19.7C407.3,94.2,415.6,84.5,423.3,74.4z"/>
<path d="M691.3,86.4c-1.3-3.4-2.7-6.8-4.2-10.2l-7.2-2.1c2.2,4.8,4.3,9.6,6.3,14.5c0.3,0.7,0.5,1.4,0.7,2.1c0.8,3.4,1.2,7,2.6,10.3
	c3.7,9,7.5,18,11.4,27l2.7-12.2c-1.2-3.2-2.6-6.5-4.2-9.6C696.1,99.8,693.8,93,691.3,86.4z"/>
<path d="M681.8,92.4c-2.5-6.8-5.1-13.5-7.9-20.1l-11.6-3.4c0.6,2.1,1.1,4.3,1.4,6.5c0.3,1.6-0.2,3.3-0.6,4.9
	c-0.2,0.6-1.2,1.2-1.9,1.4c-0.4,0.1-1.2-0.9-1.5-1.5c-2.3-4.7-4.6-9.4-7-14l-5.5-1.6c2.1,3.8,4.1,7.6,6.1,11.4
	c1.9,3.7,3.8,7.5,5.7,11.3c-1.7,1-3.1,1.7-4.6,2.6c-0.6-1.2-1.1-2.3-1.6-3.5c-3.8-7.9-7.5-15.8-11.4-23.6l-7.2-2.1
	c5.5,9.4,10.7,19,13.7,29.5c0.2,0.6,0.6,1.1,0.9,1.6c3,5.4,5.9,10.9,9,16.2c1.1,1.9-0.2,2.8-1.6,3.5c-1.8,1-2-0.7-2.4-1.5
	c-4.1-9.1-8.4-18.1-12.3-27.2c-2.9-6.8-6.4-13.4-10.4-19.6c0.9,3.7,1.6,7.6,2.3,11.4c0.8,1.1,1.6,2.3,2.4,3.4
	c0.9,1.3,1.4,2.8,1.9,4.3c0.3,0.8,0,1.8,0,2.7c-1.1-1.1-2.2-2.2-3.2-3.3c0.5,3.5,1,6.9,1.4,10.2c6,8.2,11.4,16.7,16,25.7
	c2.5,4.9,5,9.7,7.6,14.5l6.9,1.4c-2.7-4.7-5.4-9.4-8.1-14.1c-0.4-0.7-0.7-1.3-0.9-2c-0.4-1.5,0.6-2.4,2.2-2.4c1.9,0,2.4,1.3,2.9,2.6
	c2.2,5.7,4.8,11.3,7.7,16.7l6.9,1.4c-7.9-12.5-13.7-25.9-19.7-39.2c-0.7-1.5,0-2.5,1.5-3c1.4-0.4,2.7-0.5,3.5,1.3
	c2.3,4.9,4.9,9.6,7.4,14.4c3.1,6,6.2,12,9.5,18c1.9,3.4,3.9,6.8,6,10.2l2.8,0.6c0-0.1-0.1-0.2-0.1-0.3c-3.5-8.1-7-16.2-10.5-24.3
	c-1.7-4.1-3.8-8.1-4.9-12.3c-1.7-6.4-2.8-13-4-19.6c-0.2-1,0.2-2.1,0.4-3.1c0.3-0.1,0.6-0.2,1-0.2c0.8,1.4,1.8,2.8,2.4,4.3
	c3.7,9.5,7.3,19.1,11,28.7c0.2,0.6,0.2,1.3,0.2,1.9c0.1,1.6-0.5,3.5,0.2,4.9c2.5,5.1,5.2,10.2,8,15.1c0.9,1.5,2.3,2.8,3.6,4.1
	c0.5,0.5,1.5,0.7,2.7,1.2c-0.3-0.9-0.3-1.3-0.5-1.6C692.2,121.7,687.2,107,681.8,92.4z"/>
<path d="M452.5,126.6c-2-1-3.9-0.6-5.6,0.6c-1.2,0.9-2.3,1.8-3.2,2.8l11.7-2.4c0,0,0-0.1,0-0.1c-0.3-0.1-0.5-0.1-0.8-0.2
	C453.9,127.1,453.2,126.9,452.5,126.6z"/>
<path d="M458.8,85.9c0.3-2.1,0.6-4.2,0.9-6.3c-10.3,9.2-19.2,19.5-26.4,31.2c-4.6,7.5-8.9,15.2-11.3,23.5l6.1-1.2
	c1.4-4,3.1-7.9,5-11.8C439.6,108.1,447.7,96,458.8,85.9z"/>
<path d="M638.6,127.6l0.2-0.2c0,0.1,0,0.1,0.1,0.2l0,0l2.5,0.5c-1-2.1-1.9-4.1-2.9-6.2C638.5,124.6,638.6,126.6,638.6,127.6z"/>
<path d="M710.6,83.1l-6.2-1.8c1.4,3.6,2.8,7.2,3.9,10.8c0.1,0.2,0.2,0.5,0.2,0.7l2.1-9.5C710.7,83.3,710.7,83.2,710.6,83.1z"/>
<path d="M637,101.7c0.4,4.4,0.7,8.4,1,11.9c2.6,5.1,5.2,10.2,7.7,15.3l7.8,1.6c-0.2-0.4-0.4-0.9-0.6-1.3
	C648.4,119.5,643.2,110.3,637,101.7z"/>
<path d="M454,67.2c2.1-1.5,4.1-3.1,6.2-4.5c1.1-0.8,2.2-1.5,3.3-2.3c0.1-0.2,0.1-0.5,0.2-0.7l-23.9,7.1c-0.6,0.6-1.3,1.2-2,1.8
	c-2.7,2.2-5.8,4.1-8.4,6.4c-3.4,2.9-7,5.8-9.5,9.3c-12.6,17-20.3,35.1-23.8,54.2l0.3,1.2l4.8-1c0-0.2,0.1-0.4,0.1-0.6
	c2.5-17.2,9.6-32.6,19.2-47.2c1.3-2.1,3.2-3.9,5-5.7c0.6-0.7,1.6-1,2.4-1.5c0.2,0.1,0.4,0.2,0.5,0.3c-0.2,0.7-0.2,1.5-0.6,2.2
	c-0.9,1.6-1.9,3.1-3,4.6c-9.2,11.8-14.6,25.3-19.8,38.9c-0.6,1.6-0.3,3.5-0.4,5.2c0.4,0.1,0.8,0.2,1.3,0.3c1-1.8,2.2-3.4,3-5.3
	c2.5-5.7,4.7-11.5,7.4-17.1C424.8,94.6,436.8,79,454,67.2z"/>
<path d="M458.1,91.2c-5.8,5.4-11,11.5-15.5,18.3c-4.9,7.4-8.3,15-10.6,22.9l5.7-1.2c0.1-0.2,0.1-0.4,0.2-0.6
	c4.1-11.5,11-21.5,19.2-30.6C457.4,97.2,457.8,94.3,458.1,91.2z"/>
<path d="M452.5,116.1c-0.3,1-0.3,2.1-0.5,3.1c0.3,0.1,0.5,0.2,0.8,0.3c0.8-0.5,1.8-0.8,2.3-1.4c0.2-0.3,0.4-0.6,0.7-0.9
	c0.1-2.5,0.3-5.4,0.6-8.6C454.7,110.9,453.3,113.4,452.5,116.1z"/>
</svg>
