<?xml version="1.0" encoding="utf-8"?>
<!-- Generator: Adobe Illustrator 25.3.0, SVG Export Plug-In . SVG Version: 6.00 Build 0)  -->
<svg version="1.1" id="Layer_1" xmlns="http://www.w3.org/2000/svg" xmlns:xlink="http://www.w3.org/1999/xlink" x="0px" y="0px"
	 viewBox="0 0 750.2 400.1" style="enable-background:new 0 0 750.2 400.1;" xml:space="preserve">
<g>
	<path d="M230.8,138.4l58.8-0.1c0-0.1,0-0.1,0-0.2l-58.9-0.1l-115.4,0.1c0,0,0,0,0,0L230.8,138.4z"/>
	<path d="M230.8,128.6l62.3-0.1c0-0.1,0.1-0.1,0.1-0.2l-0.2,0c0,0,0,0,0,0l-62.2-0.1l-119,0.2l0,0L230.8,128.6z"/>
	<path d="M230.8,118.8l61.7-0.1c0-0.1,0-0.1,0-0.2l-61.7-0.1l-119,0.2c0,0,0,0,0,0L230.8,118.8z"/>
	<path d="M230.8,109l61-0.1c0-0.1,0-0.1,0-0.2l-61-0.1l-118.3,0.2c0,0,0,0,0,0L230.8,109z"/>
	<path d="M230.8,99.2l60.1-0.1c0-0.1,0-0.1,0-0.2l-60.1-0.1L113.4,99c0,0,0,0,0,0L230.8,99.2z"/>
	<path d="M230.8,89.1l-116.3,0.1c0,0,0,0,0,0l116.3,0.1l59-0.1c0-0.1,0-0.1,0-0.2L230.8,89.1z"/>
	<path d="M230.8,79.3l-6.3,0c-0.3,0.1-0.6,0.2-0.8,0.3l7.1,0l57.7-0.1c0-0.1,0-0.1,0-0.2L230.8,79.3z"/>
	<path d="M180.5,79.6c-0.1-0.1-0.3-0.1-0.4-0.2l-64.2,0.1c0,0,0,0,0,0L180.5,79.6z"/>
	<path d="M166.5,69.8c-0.1-0.1-0.1-0.1-0.2-0.2l-48.7,0.1c0,0,0,0,0,0L166.5,69.8z"/>
	<path d="M239.8,69.5c-0.1,0.1-0.2,0.2-0.3,0.3l47.4-0.1c0-0.1,0-0.1,0-0.2L239.8,69.5z"/>
	<path d="M247.8,59.8c0,0.1-0.1,0.2-0.2,0.3l37,0c0-0.1,0-0.1-0.1-0.2L247.8,59.8z"/>
	<path d="M156.8,60c0,0-0.1-0.1-0.1-0.2l-37,0c0,0,0,0,0,0.1L156.8,60z"/>
	<path d="M154.6,50.2c0,0,0-0.1,0-0.1l-3.1,0l-0.5,0.1L154.6,50.2z"/>
	<path d="M250.1,50.3l4.4,0l-1-0.3l-3.5,0C250.2,50.1,250.1,50.2,250.1,50.3z"/>
	<path d="M230.8,332.4l-112.5,0.1c0,0,0,0,0,0.1l112.5,0.1l56-0.1c0-0.1,0-0.1,0-0.2L230.8,332.4z"/>
	<path d="M230.8,323l55-0.1c0-0.1,0-0.1,0-0.2l-55-0.1l-111.5,0.1c0,0,0,0,0,0.1L230.8,323z"/>
	<path d="M230.8,312.9L120.2,313c0,0,0,0,0,0.1l110.6,0.1l54.2-0.1c0-0.1,0-0.1,0-0.2L230.8,312.9z"/>
	<path d="M230.8,303.4l53.5-0.1c0-0.1,0-0.1,0-0.2l-53.5-0.1l-110,0.1c0,0,0,0,0,0.1L230.8,303.4z"/>
	<path d="M230.8,293.6l53-0.1c0-0.1,0-0.1,0-0.2l-53-0.1l-109.5,0.1c0,0,0,0,0,0.1L230.8,293.6z"/>
	<path d="M230.8,283.8l52.7-0.1c0-0.1,0-0.1,0-0.2l-52.7-0.1l-109.2,0.1c0,0,0,0,0,0.1L230.8,283.8z"/>
	<path d="M230.8,274.1l52.4-0.1c0-0.1,0-0.1,0-0.2l-52.4-0.1l-108.9,0.1c0,0,0,0,0,0.1L230.8,274.1z"/>
	<path d="M230.8,264.3l52.2-0.1c0-0.1,0-0.1,0-0.2l-52.2-0.1l-108.7,0.1c0,0,0,0,0,0.1L230.8,264.3z"/>
	<path d="M230.8,254.5l52.2-0.1c0-0.1,0-0.1,0-0.2l-52.2-0.1l-108.6,0.1c0,0,0,0,0,0.1L230.8,254.5z"/>
	<path d="M230.8,244.4l-108.7,0.1c0,0,0,0,0,0.1l108.7,0.1l52.2-0.1c0-0.1,0-0.1,0-0.2L230.8,244.4z"/>
	<path d="M230.8,234.9l52.2-0.1c0-0.1,0-0.1,0-0.2l-52.2-0.1l-108.7,0.1c0,0,0,0,0,0.1L230.8,234.9z"/>
	<path d="M230.8,225.1l52.4-0.1c0-0.1,0-0.1,0-0.2l-52.4-0.1l-108.9,0.1c0,0,0,0,0,0.1L230.8,225.1z"/>
	<path d="M230.8,215.8l52.6-0.1c0-0.1,0-0.1,0-0.2l-52.6-0.1l-109.1,0.1c0,0,0,0,0,0.1L230.8,215.8z"/>
	<path d="M230.8,206l52.9-0.1c0-0.1,0-0.1,0-0.2l-52.9-0.1l-109.4,0.1c0,0,0,0,0,0.1L230.8,206z"/>
	<path d="M230.8,196.3l53.3-0.1c0-0.1,0-0.1,0-0.2l-53.3-0.1L121,196.1c0,0,0,0,0,0.1L230.8,196.3z"/>
	<path d="M230.8,186.5l53.8-0.1c0-0.1,0-0.1,0-0.2l-53.8-0.1l-110.3,0.1c0,0,0,0,0,0.1L230.8,186.5z"/>
	<path d="M230.8,176.7l54.3-0.1c0-0.1,0-0.1,0-0.2l-54.3-0.1L120,176.5c0,0,0,0,0,0.1L230.8,176.7z"/>
	<path d="M230.8,166.9l55-0.1c0-0.1,0-0.1,0-0.2l-55.1-0.1l-111.5,0.1c0,0,0,0,0,0.1L230.8,166.9z"/>
	<path d="M230.8,157.1l56-0.1c0-0.1,0-0.1,0-0.2l-56-0.1l-112.5,0.1c0,0,0,0,0,0.1L230.8,157.1z"/>
	<path d="M230.8,147l-113.7,0.1c0,0,0,0,0,0l113.7,0.1l57.2-0.1c0-0.1,0-0.1,0-0.2L230.8,147z"/>
	<path d="M288.8,142.6l-6.9,0l0.9,0.8l5.9,0C288.7,143.1,288.8,142.9,288.8,142.6z"/>
	<polygon points="176.1,142.6 177,143.4 230.8,143.5 246.5,143.5 245.4,142.5 230.8,142.5 	"/>
	<path d="M131.3,143.2l11.2,0l-0.7-0.6l-10.6,0l-14.9,0.1c0,0.1,0,0.2,0,0.3L131.3,143.2z"/>
	<path d="M130.8,133.4l-0.6-0.5l-16.1,0.1c0,0.1,0.1,0.2,0.1,0.2L130.8,133.4z"/>
	<path d="M291.1,132.8l-21-0.1l1,0.8l19.8-0.1C291,133.3,291.1,133.1,291.1,132.8z"/>
	<polygon points="234.9,133.7 233.7,132.7 230.8,132.7 164.5,132.9 165.3,133.5 230.8,133.7 	"/>
	<path d="M292.8,123.1l-34.3-0.1l1,0.9l33.3-0.1C292.8,123.5,292.8,123.3,292.8,123.1z"/>
	<polygon points="152.8,123.1 153.6,123.7 164.5,123.8 223.2,123.9 222,122.9 164.5,123.1 	"/>
	<path d="M119,123.6l-0.4-0.3l-7.1,0.1c0,0.1,0,0.1,0,0.2L119,123.6z"/>
	<path d="M247.9,114.1l44.3-0.1c0-0.2,0-0.5-0.1-0.7l-45.4-0.1L247.9,114.1z"/>
	<polygon points="141.2,113.3 141.9,113.9 164.5,114 211.5,114.1 210.4,113.2 164.5,113.3 	"/>
	<path d="M291.4,103.5l-56.3-0.1l1.2,1l55.2-0.1C291.4,104,291.4,103.7,291.4,103.5z"/>
	<polygon points="199.8,104.3 198.8,103.4 164.5,103.5 131.3,103.6 129.6,103.6 130.2,104.1 131.3,104.1 164.5,104.2 	"/>
	<path d="M223.4,93.6l1.2,1l6.2,0l59.6-0.2c0-0.2-0.1-0.5-0.1-0.7l-59.6-0.2L223.4,93.6z"/>
	<polygon points="131.3,94.3 164.5,94.4 188.1,94.5 187.2,93.7 164.5,93.7 131.3,93.8 118,93.9 118.4,94.2 	"/>
	<path d="M131.3,84l-16.1,0.1c0,0.1,0,0.2,0,0.3l16.1,0.1l33.2,0.1l11.9,0l-0.9-0.7l-11.1,0L131.3,84z"/>
	<polygon points="282.2,84.6 281.3,83.9 230.8,83.8 211.8,83.8 212.9,84.7 230.8,84.8 	"/>
	<path d="M131.3,74.7l33.2,0.1l0.2,0l-0.8-0.7l-32.6,0.1l-14.6,0.1c0,0.1,0,0.2,0,0.3L131.3,74.7z"/>
	<path d="M232.8,75l37.7-0.1l-1-0.8L234.3,74C233.8,74.3,233.3,74.7,232.8,75z"/>
	<path d="M244.1,65.2l14.8,0l-1-0.9l-13,0C244.6,64.5,244.4,64.9,244.1,65.2z"/>
	<path d="M131.3,64.9L153,65l-0.7-0.6l-21,0.1l-12.7,0.1c0,0.1,0,0.2-0.1,0.3L131.3,64.9z"/>
	<polygon points="141.3,55.2 140.6,54.6 135.9,54.6 134.2,55.2 	"/>
	<path d="M131.3,337.6l32.5,0.1l-0.8-0.7l-31.7,0.1l-10.4,0.1c1.4,0.1,3,0.2,4.7,0.4L131.3,337.6z"/>
	<polygon points="268.6,337.8 267.6,337 230.8,336.9 198.2,337 199.2,337.8 230.8,337.9 	"/>
	<polygon points="186.6,327.2 187.5,328 230.8,328.1 257,328 255.9,327.1 230.8,327.1 	"/>
	<path d="M131.3,327.8l20.8,0.1l-0.7-0.6l-20,0.1l-12.4,0.1c0,0.1,0,0.2,0,0.3L131.3,327.8z"/>
	<polygon points="174.9,317.4 175.8,318.2 230.8,318.3 245.4,318.3 244.2,317.3 230.8,317.3 	"/>
	<path d="M131.3,318.1l9.1,0l-0.7-0.5l-8.4,0l-11.5,0.1c0,0.1,0,0.2,0,0.3L131.3,318.1z"/>
	<path d="M281.6,318.2l3.8,0c0-0.2,0-0.5-0.1-0.7l-4.6,0L281.6,318.2z"/>
	<polygon points="233.7,308.5 232.5,307.5 230.8,307.5 164.5,307.7 163.3,307.7 164.1,308.4 164.5,308.4 230.8,308.5 	"/>
	<path d="M284.6,307.7l-15.6,0l1,0.8l14.7,0C284.6,308.1,284.6,307.9,284.6,307.7z"/>
	<path d="M128.6,308.3l-0.5-0.5l-7.5,0.1c0,0.1,0,0.2,0,0.3L128.6,308.3z"/>
	<polygon points="222,298.7 220.9,297.8 164.5,297.9 151.7,297.9 152.4,298.5 164.5,298.6 	"/>
	<path d="M284.1,297.9l-26.8-0.1l1.1,0.9l25.7-0.1C284.1,298.4,284.1,298.1,284.1,297.9z"/>
	<polygon points="140.1,288.2 140.7,288.7 164.5,288.8 210.3,288.9 209.3,288 164.5,288.1 	"/>
	<path d="M246.7,288.9l37-0.1c0-0.2,0-0.5,0-0.7l-38-0.1L246.7,288.9z"/>
	<path d="M283.3,278.3l-49.4-0.1l1.2,1l48.3-0.1C283.3,278.8,283.3,278.5,283.3,278.3z"/>
	<polygon points="198.6,279.1 197.6,278.2 164.5,278.3 131.3,278.4 128.4,278.4 129,278.9 131.3,278.9 164.5,279 	"/>
	<path d="M131.3,269.1l33.2,0.1l22.5,0.1l-0.9-0.8l-21.5,0.1l-33.2,0.1l-9.2,0.1c0,0.1,0,0.2,0,0.4L131.3,269.1z"/>
	<path d="M222.2,268.4l1.2,1l7.4,0l52.3-0.1c0-0.3,0-0.5,0-0.8l-52.3-0.1L222.2,268.4z"/>
	<path d="M131.3,258.8l-9.1,0.1c0,0.1,0,0.2,0,0.4l9.1,0.1l33.2,0.1l10.8,0l-0.9-0.7l-9.9,0L131.3,258.8z"/>
	<polygon points="210.6,258.6 211.7,259.6 230.8,259.6 281,259.5 280.1,258.7 230.8,258.6 	"/>
	<path d="M131.3,249.6l32.3,0.1l-0.8-0.7l-31.5,0.1l-9.1,0.1c0,0.1,0,0.2,0,0.4L131.3,249.6z"/>
	<polygon points="269.4,249.7 268.4,248.9 230.8,248.8 199,248.9 200,249.7 230.8,249.8 	"/>
	<polygon points="257.8,240 256.7,239.1 230.8,239 187.4,239.1 188.3,239.9 230.8,240 	"/>
	<path d="M131.3,239.8l20.6,0.1l-0.7-0.6l-19.8,0.1l-9.1,0.1c0,0.1,0,0.2,0,0.4L131.3,239.8z"/>
	<path d="M283.1,229.4l-3.7,0l0.9,0.8l2.7,0C283.1,229.9,283.1,229.6,283.1,229.4z"/>
	<path d="M131.3,230l8.8,0l-0.7-0.5l-8.2,0l-9.3,0.1c0,0.1,0,0.2,0,0.4L131.3,230z"/>
	<polygon points="246.1,230.2 245,229.3 230.8,229.2 175.7,229.4 176.6,230.1 230.8,230.2 	"/>
	<polygon points="235.1,220.9 233.9,219.9 230.8,219.9 164.7,220.1 165.5,220.8 230.8,220.9 	"/>
	<path d="M283.3,220.1l-15,0l1,0.8l14,0C283.3,220.6,283.3,220.3,283.3,220.1z"/>
	<path d="M129,220.7l-0.6-0.5l-6.6,0c0,0.1,0,0.2,0,0.4L129,220.7z"/>
	<path d="M283.6,210.3l-26.9-0.1l1.1,0.9l25.8-0.1C283.6,210.8,283.6,210.5,283.6,210.3z"/>
	<polygon points="223.4,211.1 222.3,210.2 164.5,210.3 153.1,210.3 153.8,211 164.5,211 	"/>
	<path d="M246.1,201.3l37.8-0.1c0-0.3,0-0.5,0-0.7l-39-0.1L246.1,201.3z"/>
	<polygon points="141.4,200.6 142.1,201.1 164.5,201.2 211.7,201.3 210.6,200.4 164.5,200.5 	"/>
	<polygon points="200,191.5 199,190.7 164.5,190.7 131.3,190.8 129.8,190.8 130.4,191.3 131.3,191.3 164.5,191.4 	"/>
	<path d="M284.4,190.7l-51.1-0.1l1.2,1l49.9-0.1C284.3,191.2,284.4,191,284.4,190.7z"/>
	<path d="M131.3,181.5l33.2,0.1l23.9,0.1l-1-0.8l-22.9,0.1l-33.2,0.1l-11,0.1c0,0.1,0,0.2,0,0.3L131.3,181.5z"/>
	<path d="M284.9,181.7c0-0.3,0-0.5,0-0.7l-54.1-0.1l-9.2,0l1.2,1l8,0L284.9,181.7z"/>
	<polygon points="210,171.1 211.1,172 230.8,172 280.4,171.9 279.5,171.1 230.8,171 	"/>
	<path d="M131.3,171.3l-11.6,0.1c0,0.1,0,0.2,0,0.3l11.6,0.1l33.2,0.1l12.2,0l-0.9-0.7l-11.3,0L131.3,171.3z"/>
	<polygon points="230.8,162.2 268.8,162.1 267.8,161.3 230.8,161.2 198.4,161.3 199.4,162.2 	"/>
	<path d="M164.5,162.1l0.5,0l-0.8-0.7l-32.8,0.1l-12.5,0.1c0,0.1,0,0.2,0,0.3l12.4,0.1L164.5,162.1z"/>
	<polygon points="186.7,151.5 187.7,152.3 230.8,152.4 257.2,152.4 256.1,151.5 230.8,151.4 	"/>
	<path d="M117.8,151.8c0,0.1,0,0.2,0,0.3l13.5,0.1l21.9,0.1l-0.7-0.6l-21.2,0.1L117.8,151.8z"/>
	<path d="M512.8,138.4l121.5-0.2c0,0,0,0,0,0L512.8,138l-52.7,0.1c0,0.1,0,0.1,0,0.2L512.8,138.4z"/>
	<path d="M512.8,128.6l125-0.2c0,0,0,0,0,0l-125-0.2l-56.2,0.1c0,0.1,0.1,0.1,0.1,0.2L512.8,128.6z"/>
	<path d="M512.8,118.8l124.4-0.2c0,0,0,0,0,0l-124.4-0.2l-56.1,0.1c0,0.1,0,0.1,0,0.2L512.8,118.8z"/>
	<path d="M512.8,108.7l-55.5,0.1c0,0.1,0,0.1,0,0.2l55.5,0.1l123.7-0.2c0,0,0,0,0,0L512.8,108.7z"/>
	<path d="M512.8,99.2l122.9-0.2c0,0,0,0,0,0l-122.9-0.2L458.3,99c0,0.1,0,0.1,0,0.2L512.8,99.2z"/>
	<path d="M512.8,89.4l121.7-0.2c0,0,0,0,0,0l-121.7-0.2l-53.5,0.1c0,0.1,0,0.1,0,0.2L512.8,89.4z"/>
	<path d="M512.8,79.7l120.3-0.2c0,0,0,0,0,0l-120.3-0.2l-52.1,0.1c0,0.1,0,0.1,0,0.2L512.8,79.7z"/>
	<path d="M512.8,69.9l118.6-0.2c0,0,0,0,0,0l-118.6-0.2l-50.3,0.1c0,0.1,0,0.1,0,0.2L512.8,69.9z"/>
	<path d="M512.8,60.1l116.4-0.1c0,0,0,0,0,0l-116.4-0.1l-48.1,0.1c0,0.1,0,0.1-0.1,0.2L512.8,60.1z"/>
	<polygon points="512.8,50.3 599,50.2 598.6,50.1 512.8,50 496.4,50 495.4,50.3 	"/>
	<path d="M512.8,361.8l-3.3,0c0.5,0.1,1.1,0.2,1.6,0.3l1.7,0l71.8-0.1c0.2-0.1,0.5-0.1,0.7-0.2L512.8,361.8z"/>
	<path d="M512.8,352l-36.7,0c0.2,0.1,0.4,0.2,0.7,0.2l36.1,0l105-0.1c0.1,0,0.1,0,0.2-0.1L512.8,352z"/>
	<path d="M512.8,342.2l-49.9,0.1c0,0.1,0,0.1,0,0.2l49.9,0.1l118.8-0.2c0,0,0,0,0,0L512.8,342.2z"/>
	<path d="M512.8,332.4l-48.8,0.1c0,0.1,0,0.1,0,0.2l48.9,0.1l117.7-0.2c0,0,0,0,0,0L512.8,332.4z"/>
	<path d="M512.8,322.6l-48,0.1c0,0.1,0,0.1,0,0.2l48,0.1l116.9-0.1c0,0,0,0,0,0L512.8,322.6z"/>
	<path d="M512.8,312.9l-47.4,0.1c0,0.1,0,0.1,0,0.2l47.4,0.1l116.2-0.1c0,0,0,0,0,0L512.8,312.9z"/>
	<path d="M512.8,303.1l-46.9,0.1c0,0.1,0,0.1,0,0.2l46.9,0.1l115.7-0.1c0,0,0,0,0,0L512.8,303.1z"/>
	<path d="M512.8,293.3l-46.5,0.1c0,0.1,0,0.1,0,0.2l46.5,0.1l115.4-0.1c0,0,0,0,0,0L512.8,293.3z"/>
	<path d="M512.8,283.5l-46.2,0.1c0,0.1,0,0.1,0,0.2l46.2,0.1l115.1-0.1c0,0,0,0,0,0L512.8,283.5z"/>
	<path d="M512.8,273.7l-46.1,0.1c0,0.1,0,0.1,0,0.2l46.1,0.1l114.9-0.1c0,0,0,0,0,0L512.8,273.7z"/>
	<path d="M512.8,263.9l-46,0.1c0,0.1,0,0.1,0,0.2l46,0.1l114.8-0.1c0,0,0,0,0,0L512.8,263.9z"/>
	<path d="M512.8,254.1l-45.9,0.1c0,0.1,0,0.1,0,0.2l45.9,0.1l114.8-0.1c0,0,0,0,0,0L512.8,254.1z"/>
	<path d="M512.8,244.7l114.8-0.1c0,0,0,0,0,0l-114.8-0.1l-46,0.1c0,0.1,0,0.1,0,0.2L512.8,244.7z"/>
	<path d="M627.8,234.8C627.8,234.7,627.8,234.7,627.8,234.8l-114.9-0.2l-46.1,0.1c0,0.1,0,0.1,0,0.2l46.1,0.1L627.8,234.8z"/>
	<path d="M512.8,225.1l115.1-0.1c0,0,0,0,0,0l-115.1-0.1l-46.2,0.1c0,0.1,0,0.1,0,0.2L512.8,225.1z"/>
	<path d="M512.8,215.5l-46.5,0.1c0,0.1,0,0.1,0,0.2l46.5,0.1l115.3-0.1c0,0,0,0,0,0L512.8,215.5z"/>
	<path d="M466.1,205.8c0,0.1,0,0.1,0,0.2l46.8,0.1l115.6-0.1c0,0,0,0,0,0l-115.6-0.1L466.1,205.8z"/>
	<path d="M512.8,195.9l-47.1,0.1c0,0.1,0,0.1,0,0.2l47.1,0.1l116-0.1c0,0,0,0,0,0L512.8,195.9z"/>
	<path d="M512.8,186.1l-47.6,0.1c0,0.1,0,0.1,0,0.2l47.6,0.1l116.5-0.1c0,0,0,0,0,0L512.8,186.1z"/>
	<path d="M512.8,176.3l-48.2,0.1c0,0.1,0,0.1,0,0.2l48.1,0.1l117-0.2c0,0,0,0,0,0L512.8,176.3z"/>
	<path d="M512.8,166.6l-48.9,0.1c0,0.1,0,0.1,0,0.2l48.9,0.1l117.7-0.2c0,0,0,0,0,0L512.8,166.6z"/>
	<path d="M512.8,156.8l-49.8,0.1c0,0.1,0,0.1,0,0.2l49.8,0.1l118.6-0.2c0,0,0,0,0,0L512.8,156.8z"/>
	<path d="M512.8,147l-51.1,0.1c0,0.1,0,0.1,0,0.2l51,0.1l119.9-0.2c0,0,0,0,0,0L512.8,147z"/>
	<path d="M612.4,142.7l-10.6,0l-0.7,0.6l11.2,0l21-0.2c0-0.1,0-0.1,0-0.2L612.4,142.7z"/>
	<path d="M461,142.6c0,0.2,0.1,0.4,0.1,0.5l0.7-0.5L461,142.6z"/>
	<polygon points="498.3,142.5 497.1,143.5 512.8,143.5 566.7,143.4 567.6,142.6 512.8,142.5 	"/>
	<polygon points="578.4,133.5 579.2,132.9 512.8,132.7 510,132.7 508.8,133.7 512.8,133.7 	"/>
	<path d="M635.7,133.1l-22.3-0.2l-0.6,0.5l22.8-0.2C635.7,133.2,635.7,133.2,635.7,133.1z"/>
	<path d="M473.5,132.8l-14.8,0c0.1,0.2,0.2,0.5,0.2,0.7l13.6,0L473.5,132.8z"/>
	<polygon points="590.1,123.7 590.8,123.1 579.2,123.1 521.6,122.9 520.5,123.9 579.2,123.8 	"/>
	<path d="M485.2,123l-28.7,0.1c0,0.3,0,0.5,0,0.7l27.7,0.1L485.2,123z"/>
	<path d="M637.4,123.3l-12.4-0.1l-0.4,0.3l12.8-0.1C637.4,123.4,637.4,123.4,637.4,123.3z"/>
	<polygon points="533.3,113.2 532.2,114.1 579.2,114 601.8,113.9 602.5,113.3 579.2,113.3 	"/>
	<path d="M457,114l38.8,0.1l1.1-0.9l-39.9,0.1C457,113.5,457,113.7,457,114z"/>
	<path d="M636.6,113.6l-0.2,0.1l0.5,0c0,0,0-0.1,0-0.1L636.6,113.6z"/>
	<polygon points="612.4,103.6 579.2,103.5 544.9,103.4 543.9,104.3 579.2,104.2 612.4,104.1 613.5,104.1 614.1,103.6 	"/>
	<path d="M457.8,104.2l49.7,0.1l1.2-1l-50.8,0.1C457.8,103.7,457.8,104,457.8,104.2z"/>
	<polygon points="556.5,93.7 555.6,94.5 579.2,94.4 612.4,94.3 625.3,94.2 625.6,93.9 612.4,93.8 579.2,93.7 	"/>
	<path d="M512.8,94.6l6.2,0l1.2-1l-7.4,0l-54,0.1c0,0.2-0.1,0.5-0.1,0.7L512.8,94.6z"/>
	<path d="M612.4,84.5l21.5-0.2c0-0.1,0-0.1,0-0.2L612.4,84l-33.2-0.1l-11.1,0l-0.9,0.7l11.9,0L612.4,84.5z"/>
	<polygon points="462.4,83.9 461.5,84.6 512.8,84.8 530.8,84.7 531.9,83.8 512.8,83.8 	"/>
	<path d="M612.4,74.7l20-0.2c0-0.1,0-0.1,0-0.2l-19.9-0.2l-32.6-0.1l-0.8,0.7l0.2,0L612.4,74.7z"/>
	<polygon points="542.5,74.9 543.5,74 512.8,74 474.1,74.1 473.1,74.9 512.8,75 	"/>
	<polygon points="554.2,65.1 555.1,64.3 512.8,64.2 485.8,64.3 484.7,65.1 512.8,65.2 	"/>
	<path d="M630.4,64.8c0-0.1,0-0.2-0.1-0.2l-18-0.1l-21-0.1l-0.7,0.6l21.7-0.1L630.4,64.8z"/>
	<polygon points="615.8,55.1 614.2,54.7 612.4,54.7 603,54.6 602.4,55.2 612.4,55.2 	"/>
	<polygon points="565.9,55.3 566.8,54.5 512.8,54.4 497.5,54.4 496.4,55.4 512.8,55.4 	"/>
	<path d="M521,357.4l1.2-1l-9.4,0l-23.8,0.1c1,0.3,2,0.6,3,0.9l20.8,0.1L521,357.4z"/>
	<path d="M557.5,356.6l-0.9,0.8l22.7-0.1l24.3-0.1c0.6-0.2,1.2-0.4,1.8-0.5l-26-0.1L557.5,356.6z"/>
	<path d="M532.7,347.6l1.1-0.9l-21-0.1l-48.5,0.1L464,347c0.4,0.2,0.7,0.3,1.1,0.5l47.7,0.1L532.7,347.6z"/>
	<path d="M612.4,346.9l-33.2-0.1l-10.1,0l-0.9,0.7l11,0l33.2-0.1l16.6-0.1c0.2-0.1,0.3-0.2,0.5-0.2L612.4,346.9z"/>
	<path d="M612.4,337.1l-31.7-0.1l-0.8,0.7l32.5-0.1l18.7-0.1c0-0.1,0-0.1,0-0.2L612.4,337.1z"/>
	<polygon points="544.4,337.8 545.5,337 512.8,336.9 476,337 475,337.8 512.8,337.9 	"/>
	<path d="M612.4,327.3l-20-0.1l-0.7,0.6l20.8-0.1l17.7-0.1c0-0.1,0-0.2,0-0.2L612.4,327.3z"/>
	<polygon points="556.1,328 557.1,327.2 512.8,327.1 487.7,327.1 486.7,328 512.8,328.1 	"/>
	<path d="M612.4,317.6l-8.4,0l-0.7,0.5l9.1,0l17-0.1c0-0.1,0-0.2,0-0.2L612.4,317.6z"/>
	<polygon points="567.8,318.2 568.7,317.4 512.8,317.3 499.4,317.3 498.3,318.3 512.8,318.3 	"/>
	<path d="M465.7,308.4l8,0l1-0.8l-8.9,0C465.7,307.9,465.7,308.2,465.7,308.4z"/>
	<polygon points="512.8,308.5 579.2,308.4 579.5,308.4 580.4,307.7 579.2,307.7 512.8,307.5 511.1,307.5 509.9,308.5 	"/>
	<path d="M615.6,307.8l-0.5,0.5l13.8-0.1c0-0.1,0-0.2,0-0.3L615.6,307.8z"/>
	<polygon points="591.3,298.5 592,297.9 579.2,297.9 522.8,297.8 521.6,298.7 579.2,298.6 	"/>
	<path d="M627.1,298.1l-0.3,0.3l1.6,0c0-0.1,0-0.2,0-0.3L627.1,298.1z"/>
	<path d="M466.1,298.6l19.2,0l1.1-0.9l-20.2,0.1C466.2,298.1,466.1,298.4,466.1,298.6z"/>
	<polygon points="534.4,288 533.3,288.9 579.2,288.8 603,288.7 603.6,288.2 579.2,288.1 	"/>
	<path d="M466.5,288.8l30.5,0.1l1.1-0.9l-31.6,0.1C466.5,288.3,466.5,288.6,466.5,288.8z"/>
	<polygon points="612.4,278.4 579.2,278.3 546,278.2 545,279.1 579.2,279 612.4,278.9 614.7,278.9 615.2,278.4 	"/>
	<path d="M509.8,278.2l-43.1,0.1c0,0.3,0,0.5,0,0.8l41.9,0.1L509.8,278.2z"/>
	<path d="M520.2,269.4l1.2-1l-8.6,0l-46,0.1c0,0.3,0,0.5,0,0.8l46,0.1L520.2,269.4z"/>
	<polygon points="612.4,268.6 579.2,268.5 557.7,268.5 556.7,269.3 579.2,269.2 612.4,269.1 626.4,269 626.8,268.7 	"/>
	<path d="M466.9,258.7c0,0.3,0,0.5,0,0.8l45.9,0.1l19.1,0l1.1-0.9l-20.2-0.1L466.9,258.7z"/>
	<path d="M579.2,258.8l-9.9,0l-0.9,0.7l10.8,0l33.2-0.1l15.2-0.1c0-0.1,0-0.2,0-0.3l-15.2-0.1L579.2,258.8z"/>
	<polygon points="543.7,249.7 544.7,248.9 512.8,248.8 475.2,248.9 474.3,249.7 512.8,249.8 	"/>
	<path d="M612.4,249.1l-31.5-0.1l-0.8,0.7l32.3-0.1l15.2-0.1c0-0.1,0-0.2,0-0.3L612.4,249.1z"/>
	<path d="M612.4,239.3l-19.8-0.1l-0.7,0.6l20.6-0.1l15.3-0.1c0-0.1,0-0.2,0-0.3L612.4,239.3z"/>
	<polygon points="486.9,239.1 485.9,240 512.8,240 555.4,239.9 556.3,239.1 512.8,239 	"/>
	<path d="M612.4,229.5l-8.2,0l-0.7,0.5l8.8,0l15.5-0.1c0-0.1,0-0.2,0-0.3L612.4,229.5z"/>
	<polygon points="498.6,229.3 497.5,230.2 512.8,230.2 567.1,230.1 567.9,229.4 512.8,229.2 	"/>
	<path d="M475.3,220l-8.8,0c0,0.3,0,0.5,0,0.8l7.8,0L475.3,220z"/>
	<polygon points="578.2,220.8 579,220.1 512.8,219.9 509.8,219.9 508.6,220.9 512.8,220.9 	"/>
	<path d="M628,220.3l-12.8-0.1l-0.6,0.5l13.4-0.1C628,220.5,628,220.4,628,220.3z"/>
	<polygon points="589.9,211 590.6,210.3 579.2,210.3 521.4,210.2 520.2,211.1 579.2,211 	"/>
	<path d="M626.8,210.5l-0.3,0.3l1.9,0c0-0.1,0-0.2,0-0.3L626.8,210.5z"/>
	<path d="M487,210.2l-20.8,0.1c0,0.3,0,0.5,0,0.8l19.7,0.1L487,210.2z"/>
	<polygon points="533,200.4 531.9,201.3 579.2,201.2 601.6,201.1 602.2,200.6 579.2,200.5 	"/>
	<path d="M465.9,201.3l31.7,0.1l1.1-0.9l-32.8,0.1C465.9,200.7,465.9,201,465.9,201.3z"/>
	<path d="M465.5,191.5l43.7,0.1l1.2-1l-44.9,0.1C465.5,190.9,465.5,191.2,465.5,191.5z"/>
	<polygon points="612.4,190.8 579.2,190.7 544.7,190.7 543.6,191.5 579.2,191.4 612.4,191.3 613.3,191.3 613.9,190.8 	"/>
	<path d="M520.9,181.8l1.2-1l-9.2,0l-47.9,0.1c0,0.3,0,0.5,0,0.8l47.8,0.1L520.9,181.8z"/>
	<polygon points="612.4,181.5 625.1,181.4 625.4,181.1 612.4,181 579.2,181 556.3,180.9 555.3,181.7 579.2,181.6 	"/>
	<path d="M612.4,171.3l-33.2-0.1l-11.3,0l-0.9,0.7l12.2,0l33.2-0.1l17.8-0.1c0-0.1,0-0.2,0-0.2L612.4,171.3z"/>
	<path d="M464.3,171.1c0,0.3,0,0.5,0.1,0.8l48.5,0.1l19.7-0.1l1.1-0.9l-20.8-0.1L464.3,171.1z"/>
	<polygon points="544.3,162.2 545.3,161.3 512.8,161.2 475.9,161.3 474.9,162.1 512.8,162.2 	"/>
	<path d="M612.4,161.5l-32.8-0.1l-0.8,0.7l0.5,0l33.2-0.1l18.6-0.1c0-0.1,0-0.1,0-0.2L612.4,161.5z"/>
	<polygon points="487.6,151.5 486.5,152.4 512.8,152.4 556,152.3 556.9,151.5 512.8,151.4 	"/>
	<path d="M612.4,151.7l-21.2-0.1l-0.7,0.6l21.9-0.1l19.7-0.1c0-0.1,0-0.1,0-0.2L612.4,151.7z"/>
</g>
</svg>
