<?xml version="1.0" encoding="utf-8"?>
<!-- Generator: Adobe Illustrator 25.3.0, SVG Export Plug-In . SVG Version: 6.00 Build 0)  -->
<svg version="1.1" id="Layer_1" xmlns="http://www.w3.org/2000/svg" xmlns:xlink="http://www.w3.org/1999/xlink" x="0px" y="0px"
	 viewBox="0 0 750.2 400.1" style="enable-background:new 0 0 750.2 400.1;" xml:space="preserve">
<g>
	<path d="M130.8,256.3c0,0.4,0.4,0.8,0.9,0.8h34.4c0.5,0,0.9-0.4,0.9-0.8v-0.4h36.5c0.4,0,0.7-0.3,0.7-0.6V255h36v0.3
		c0,0.3,0.3,0.6,0.7,0.6h34.6v0.4c0,0.4,0.4,0.8,0.9,0.8h6.4c0-1.9,0-3.9,0-5.8h-6.4c-0.5,0-0.9,0.4-0.9,0.8v0.4h-34.6
		c-0.4,0-0.7,0.3-0.7,0.6v0.5h-36v-0.5c0-0.3-0.3-0.6-0.7-0.6h-36.5v-0.4c0-0.4-0.4-0.8-0.9-0.8h-34.4c-0.5,0-0.9,0.4-0.9,0.8v0.4
		h-8.6c0,1.1,0,2.3,0,3.4h8.7V256.3z"/>
	<path d="M276.6,248.6h6.4c0-1.9,0-3.9,0-5.8h-6.4c-0.5,0-0.9,0.4-0.9,0.8v0.4h-34.6c-0.4,0-0.7,0.3-0.7,0.6v0.5h-36v-0.5
		c0-0.3-0.3-0.6-0.7-0.6h-36.5v-0.4c0-0.4-0.4-0.8-0.9-0.8h-34.4c-0.5,0-0.9,0.4-0.9,0.8v0.4h-8.7c0,1.1,0,2.3,0,3.4h8.6v0.4
		c0,0.4,0.4,0.8,0.9,0.8h34.4c0.5,0,0.9-0.4,0.9-0.8v-0.4h36.5c0.4,0,0.7-0.3,0.7-0.6v-0.3h36v0.3c0,0.3,0.3,0.6,0.7,0.6h34.6v0.4
		C275.7,248.2,276.1,248.6,276.6,248.6z"/>
	<path d="M276.6,240.1h6.4c0-1.9,0-3.9,0.1-5.8h-6.5c-0.5,0-0.9,0.4-0.9,0.8v0.4h-34.6c-0.4,0-0.7,0.3-0.7,0.6v0.5h-36v-0.5
		c0-0.3-0.3-0.6-0.7-0.6h-36.5v-0.4c0-0.4-0.4-0.8-0.9-0.8h-34.4c-0.5,0-0.9,0.4-0.9,0.8v0.4h-8.7c0,1.1,0,2.3,0,3.4h8.7v0.4
		c0,0.4,0.4,0.8,0.9,0.8h34.4c0.5,0,0.9-0.4,0.9-0.8v-0.4h36.5c0.4,0,0.7-0.3,0.7-0.6V238h36v0.3c0,0.3,0.3,0.6,0.7,0.6h34.6v0.4
		C275.7,239.7,276.1,240.1,276.6,240.1z"/>
	<path d="M166.2,225.8h-34.4c-0.5,0-0.9,0.4-0.9,0.8v0.4H122c0,1.1,0,2.3,0.1,3.4h8.8v0.4c0,0.4,0.4,0.8,0.9,0.8h34.4
		c0.5,0,0.9-0.4,0.9-0.8v-0.4h36.5c0.4,0,0.7-0.3,0.7-0.6v-0.3h36v0.3c0,0.3,0.3,0.6,0.7,0.6h34.6v0.4c0,0.4,0.4,0.8,0.9,0.8h6.5
		c0-1.9,0.1-3.9,0.1-5.8h-6.6c-0.5,0-0.9,0.4-0.9,0.8v0.4h-34.6c-0.4,0-0.7,0.3-0.7,0.6v0.5h-36v-0.5c0-0.3-0.3-0.6-0.7-0.6h-36.5
		v-0.4C167.1,226.2,166.7,225.8,166.2,225.8z"/>
	<path d="M166.2,217.3h-34.4c-0.5,0-0.9,0.4-0.9,0.8v0.4h-9c0,1.1,0.1,2.3,0.1,3.4h9v0.4c0,0.4,0.4,0.8,0.9,0.8h34.4
		c0.5,0,0.9-0.4,0.9-0.8v-0.4h36.5c0.4,0,0.7-0.3,0.7-0.6V221h36v0.3c0,0.3,0.3,0.6,0.7,0.6h34.6v0.4c0,0.4,0.4,0.8,0.9,0.8h6.7
		c0-1.9,0.1-3.9,0.1-5.8h-6.8c-0.5,0-0.9,0.4-0.9,0.8v0.4h-34.6c-0.4,0-0.7,0.3-0.7,0.6v0.5h-36v-0.5c0-0.3-0.3-0.6-0.7-0.6h-36.5
		v-0.4C167.1,217.7,166.7,217.3,166.2,217.3z"/>
	<path d="M130.8,213.4v0.4c0,0.4,0.4,0.8,0.9,0.8h34.4c0.5,0,0.9-0.4,0.9-0.8v-0.4h36.5c0.4,0,0.7-0.3,0.7-0.6v-0.3h36v0.3
		c0,0.3,0.3,0.6,0.7,0.6h34.6v0.4c0,0.4,0.4,0.8,0.9,0.8h6.9c0.1-1.9,0.1-3.9,0.2-5.8h-7.1c-0.5,0-0.9,0.4-0.9,0.8v0.4h-34.6
		c-0.4,0-0.7,0.3-0.7,0.6v0.5h-36v-0.5c0-0.3-0.3-0.6-0.7-0.6h-36.5v-0.4c0-0.4-0.4-0.8-0.9-0.8h-34.4c-0.5,0-0.9,0.4-0.9,0.8v0.4
		h-9.3c0,1.1,0.1,2.2,0.1,3.4H130.8z"/>
	<path d="M277.2,295c-0.4,0-0.7,0.3-0.7,0.6v0.5h-36v-0.5c0-0.3-0.3-0.6-0.7-0.6h-36.5v-0.4c0-0.4-0.4-0.8-0.9-0.8h-34.4
		c-0.5,0-0.9,0.4-0.9,0.8v0.4h-34.4c-0.4,0-0.7,0.3-0.7,0.6v0.5h-10.7c0,0.5,0,0.9-0.1,1.4h10.7v0.3c0,0.3,0.3,0.6,0.7,0.6H167v0.4
		c0,0.4,0.4,0.8,0.9,0.8h34.4c0.5,0,0.9-0.4,0.9-0.8v-0.4h36.5c0.4,0,0.7-0.3,0.7-0.6v-0.3h36v0.3c0,0.3,0.3,0.6,0.7,0.6h6.9
		c-0.1-1.1-0.1-2.3-0.2-3.4H277.2z"/>
	<path d="M277.2,289.9h6.5c0-1.1-0.1-2.3-0.1-3.4h-6.4c-0.4,0-0.7,0.3-0.7,0.6v0.5h-36v-0.5c0-0.3-0.3-0.6-0.7-0.6h-36.5v-0.4
		c0-0.4-0.4-0.8-0.9-0.8h-34.4c-0.5,0-0.9,0.4-0.9,0.8v0.4h-34.4c-0.4,0-0.7,0.3-0.7,0.6v0.5h-10.3c0,0.5,0,0.9-0.1,1.4h10.4v0.3
		c0,0.3,0.3,0.6,0.7,0.6H167v0.4c0,0.4,0.4,0.8,0.9,0.8h34.4c0.5,0,0.9-0.4,0.9-0.8v-0.4h36.5c0.4,0,0.7-0.3,0.7-0.6V289h36v0.3
		C276.5,289.6,276.8,289.9,277.2,289.9z"/>
	<path d="M277.2,281.4h6.2c0-1.1-0.1-2.3-0.1-3.4h-6.1c-0.4,0-0.7,0.3-0.7,0.6v0.5h-36v-0.5c0-0.3-0.3-0.6-0.7-0.6h-36.5v-0.4
		c0-0.4-0.4-0.8-0.9-0.8h-34.4c-0.5,0-0.9,0.4-0.9,0.8v0.4h-34.4c-0.4,0-0.7,0.3-0.7,0.6v0.5h-10c0,0.5,0,0.9,0,1.4h10.1v0.3
		c0,0.3,0.3,0.6,0.7,0.6H167v0.4c0,0.4,0.4,0.8,0.9,0.8h34.4c0.5,0,0.9-0.4,0.9-0.8v-0.4h36.5c0.4,0,0.7-0.3,0.7-0.6v-0.3h36v0.3
		C276.5,281.1,276.8,281.4,277.2,281.4z"/>
	<path d="M202.3,268.3h-34.4c-0.5,0-0.9,0.4-0.9,0.8v0.4h-34.4c-0.4,0-0.7,0.3-0.7,0.6v0.5H122c0,0.5,0,0.9,0,1.4h9.9v0.3
		c0,0.3,0.3,0.6,0.7,0.6H167v0.4c0,0.4,0.4,0.8,0.9,0.8h34.4c0.5,0,0.9-0.4,0.9-0.8v-0.4h36.5c0.4,0,0.7-0.3,0.7-0.6v-0.3h36v0.3
		c0,0.3,0.3,0.6,0.7,0.6h6c0-1.1,0-2.3-0.1-3.4h-6c-0.4,0-0.7,0.3-0.7,0.6v0.5h-36v-0.5c0-0.3-0.3-0.6-0.7-0.6h-36.5v-0.4
		C203.2,268.7,202.8,268.3,202.3,268.3z"/>
	<path d="M276.5,261.7v0.5h-36v-0.5c0-0.3-0.3-0.6-0.7-0.6h-36.5v-0.4c0-0.4-0.4-0.8-0.9-0.8h-34.4c-0.5,0-0.9,0.4-0.9,0.8v0.4
		h-34.4c-0.4,0-0.7,0.3-0.7,0.6v0.5h-9.7c0,0.5,0,0.9,0,1.4h9.7v0.3c0,0.3,0.3,0.6,0.7,0.6H167v0.4c0,0.4,0.4,0.8,0.9,0.8h34.4
		c0.5,0,0.9-0.4,0.9-0.8v-0.4h36.5c0.4,0,0.7-0.3,0.7-0.6v-0.3h36v0.3c0,0.3,0.3,0.6,0.7,0.6h5.9c0-1.1,0-2.3,0-3.4h-5.8
		C276.8,261.1,276.5,261.3,276.5,261.7z"/>
	<path d="M168.6,339.8c0,0.1,0,0.1,0,0.1c6.6,0.2,13.6,0.4,20.9,0.5h14.2v0.1l1.8,0c2.2,0,3.8,0,4.8,0c27.1-0.1,51.3-1.5,67-2.7
		v-0.1c0-0.3-0.3-0.6-0.7-0.6H240v-0.4c0-0.4-0.4-0.8-0.9-0.8h-34.4c-0.5,0-0.9,0.4-0.9,0.8v0.4h-34.4c-0.4,0-0.7,0.3-0.7,0.6v0.5
		h-34.8c7,0.5,15.2,1,24.3,1.4h10.5V339.8z"/>
	<path d="M132.8,337.7c0-0.3-0.3-0.6-0.7-0.6h-12.7c3.6,0.3,8.2,0.7,13.5,1.1V337.7z"/>
	<path d="M277.2,329.7v-0.5c0-0.3-0.3-0.6-0.7-0.6H240v-0.4c0-0.4-0.4-0.8-0.9-0.8h-34.4c-0.5,0-0.9,0.4-0.9,0.8v0.4h-34.4
		c-0.4,0-0.7,0.3-0.7,0.6v0.5h-35.8v-0.5c0-0.3-0.3-0.6-0.7-0.6h-13.3c-0.1,1.1-0.3,2.3-0.4,3.4H132c0.4,0,0.7-0.3,0.7-0.6v-0.3
		h35.8v0.3c0,0.3,0.3,0.6,0.7,0.6h34.4v0.4c0,0.4,0.4,0.8,0.9,0.8h34.4c0.5,0,0.9-0.4,0.9-0.8V332h36.5c0.4,0,0.7-0.3,0.7-0.6v-0.3
		h9.4c-0.1-0.5-0.1-0.9-0.2-1.4H277.2z"/>
	<path d="M277.2,321.2v-0.5c0-0.3-0.3-0.6-0.7-0.6H240v-0.4c0-0.4-0.4-0.8-0.9-0.8h-34.4c-0.5,0-0.9,0.4-0.9,0.8v0.4h-34.4
		c-0.4,0-0.7,0.3-0.7,0.6v0.5h-35.8v-0.5c0-0.3-0.3-0.6-0.7-0.6h-12.4c-0.1,1.1-0.2,2.3-0.3,3.4H132c0.4,0,0.7-0.3,0.7-0.6v-0.3
		h35.8v0.3c0,0.3,0.3,0.6,0.7,0.6h34.4v0.4c0,0.4,0.4,0.8,0.9,0.8h34.4c0.5,0,0.9-0.4,0.9-0.8v-0.4h36.5c0.4,0,0.7-0.3,0.7-0.6v-0.3
		h8.5c0-0.5-0.1-0.9-0.1-1.4H277.2z"/>
	<path d="M132,311.6h-11.8c-0.1,1.1-0.2,2.3-0.3,3.4h12c0.4,0,0.7-0.3,0.7-0.6v-0.3h35.8v0.3c0,0.3,0.3,0.6,0.7,0.6h34.4v0.4
		c0,0.4,0.4,0.8,0.9,0.8h34.4c0.5,0,0.9-0.4,0.9-0.8V315h36.5c0.4,0,0.7-0.3,0.7-0.6v-0.3h7.8c0-0.5-0.1-0.9-0.1-1.4h-7.7v-0.5
		c0-0.3-0.3-0.6-0.7-0.6H240v-0.4c0-0.4-0.4-0.8-0.9-0.8h-34.4c-0.5,0-0.9,0.4-0.9,0.8v0.4h-34.4c-0.4,0-0.7,0.3-0.7,0.6v0.5h-35.8
		v-0.5C132.8,311.9,132.4,311.6,132,311.6z"/>
	<path d="M132,303.1h-11.2c-0.1,1.1-0.1,2.3-0.2,3.4H132c0.4,0,0.7-0.3,0.7-0.6v-0.3h35.8v0.3c0,0.3,0.3,0.6,0.7,0.6h34.4v0.4
		c0,0.4,0.4,0.8,0.9,0.8h34.4c0.5,0,0.9-0.4,0.9-0.8v-0.4h36.5c0.4,0,0.7-0.3,0.7-0.6v-0.3h7.3c0-0.5-0.1-0.9-0.1-1.4h-7.2v-0.5
		c0-0.3-0.3-0.6-0.7-0.6H240v-0.4c0-0.4-0.4-0.8-0.9-0.8h-34.4c-0.5,0-0.9,0.4-0.9,0.8v0.4h-34.4c-0.4,0-0.7,0.3-0.7,0.6v0.5h-35.8
		v-0.5C132.8,303.4,132.4,303.1,132,303.1z"/>
	<path d="M276.6,79.7h12c-0.3-1.9-0.6-3.9-0.9-5.8h-11c-0.5,0-0.9,0.4-0.9,0.8v0.4h-34.6c-0.4,0-0.7,0.3-0.7,0.6v0.5h-9.5
		c-0.9,0.5-1.7,1-2.5,1.4h12v0.3c0,0.3,0.3,0.6,0.7,0.6h34.6v0.4C275.7,79.4,276.1,79.7,276.6,79.7z"/>
	<path d="M130.8,78.9c0,0.4,0.4,0.8,0.9,0.8h34.4c0.5,0,0.9-0.4,0.9-0.8v-0.4h11.2c-0.1,0-0.2-0.1-0.2-0.1c-1.5-0.8-3.2-2-4.9-3.3
		h-6v-0.4c0-0.4-0.4-0.8-0.9-0.8h-34.4c-0.5,0-0.9,0.4-0.9,0.8v0.4h-14.3c-0.2,1.1-0.4,2.2-0.5,3.4h14.8V78.9z"/>
	<path d="M276.6,71.2h10.5c-0.4-2-0.8-3.9-1.2-5.8h-9.4c-0.5,0-0.9,0.4-0.9,0.8v0.4h-32.9c-0.8,0.9-1.7,1.7-2.5,2.5h0.1v0.3
		c0,0.3,0.3,0.6,0.7,0.6h34.6v0.4C275.7,70.9,276.1,71.2,276.6,71.2z"/>
	<path d="M131.8,71.2h34.4c0.5,0,0.9-0.4,0.9-0.8v-0.1c-1.9-1.6-3.8-3.3-5.5-4.9h-29.9c-0.5,0-0.9,0.4-0.9,0.8v0.4h-12.7
		c-0.2,1.1-0.5,2.2-0.7,3.4h13.4v0.4C130.8,70.9,131.2,71.2,131.8,71.2z"/>
	<path d="M130.8,61.5V62c0,0.4,0.4,0.8,0.9,0.8h27.1c-1.7-1.8-2.8-3.8-3.4-5.8h-23.7c-0.5,0-0.9,0.4-0.9,0.8v0.4H124l-4.1,1.2
		c-0.2,0.7-0.4,1.4-0.6,2.2H130.8z"/>
	<path d="M275.7,57.8v0.4h-27.2c-0.4,1.1-1,2.3-1.7,3.4h28.9v0.4c0,0.4,0.4,0.8,0.9,0.8h8.8c-0.3-1.3-0.6-2.5-0.9-3.7l-7.1-2.1h-0.7
		C276.1,57,275.7,57.3,275.7,57.8z"/>
	<path d="M264,53.1l-11.5-3.4h-2.4c0,0.9-0.1,2.1-0.3,3.4H264z"/>
	<path d="M154.7,49.1l-17.4,5.1h17.6C154.5,52.2,154.5,50.4,154.7,49.1z"/>
	<path d="M277.2,121h15.5c-0.1-1-0.1-2.2-0.2-3.4h-15.3c-0.4,0-0.7,0.3-0.7,0.6v0.5h-36v-0.5c0-0.3-0.3-0.6-0.7-0.6h-36.5v-0.4
		c0-0.4-0.4-0.8-0.9-0.8h-34.4c-0.5,0-0.9,0.4-0.9,0.8v0.4h-34.4c-0.4,0-0.7,0.3-0.7,0.6v0.5h-20c0,0.5-0.1,0.9-0.1,1.4h20.1v0.3
		c0,0.3,0.3,0.6,0.7,0.6H167v0.4c0,0.4,0.4,0.8,0.9,0.8h34.4c0.5,0,0.9-0.4,0.9-0.8V121h36.5c0.4,0,0.7-0.3,0.7-0.6v-0.3h36v0.3
		C276.5,120.8,276.8,121,277.2,121z"/>
	<path d="M277.2,112.6h14.9c-0.1-1.1-0.2-2.2-0.3-3.4h-14.7c-0.4,0-0.7,0.3-0.7,0.6v0.5h-36v-0.5c0-0.3-0.3-0.6-0.7-0.6h-36.5v-0.4
		c0-0.4-0.4-0.8-0.9-0.8h-34.4c-0.5,0-0.9,0.4-0.9,0.8v0.4h-34.4c-0.4,0-0.7,0.3-0.7,0.6v0.5h-19.4c0,0.5-0.1,0.9-0.1,1.4h19.5v0.3
		c0,0.3,0.3,0.6,0.7,0.6H167v0.4c0,0.4,0.4,0.8,0.9,0.8h34.4c0.5,0,0.9-0.4,0.9-0.8v-0.4h36.5c0.4,0,0.7-0.3,0.7-0.6v-0.3h36v0.3
		C276.5,112.3,276.8,112.6,277.2,112.6z"/>
	<path d="M202.3,99.5h-34.4c-0.5,0-0.9,0.4-0.9,0.8v0.4h-34.4c-0.4,0-0.7,0.3-0.7,0.6v0.5h-18.7c0,0.5-0.1,0.9-0.1,1.4h18.8v0.3
		c0,0.3,0.3,0.6,0.7,0.6H167v0.4c0,0.4,0.4,0.8,0.9,0.8h34.4c0.5,0,0.9-0.4,0.9-0.8v-0.4h36.5c0.4,0,0.7-0.3,0.7-0.6v-0.3h36v0.3
		c0,0.3,0.3,0.6,0.7,0.6h14.2c-0.1-1.1-0.2-2.2-0.3-3.4h-13.9c-0.4,0-0.7,0.3-0.7,0.6v0.5h-36v-0.5c0-0.3-0.3-0.6-0.7-0.6h-36.5
		v-0.4C203.2,99.8,202.8,99.5,202.3,99.5z"/>
	<path d="M202.3,91h-34.4c-0.5,0-0.9,0.4-0.9,0.8v0.4h-34.4c-0.4,0-0.7,0.3-0.7,0.6v0.5H114c-0.1,0.5-0.1,0.9-0.2,1.4h17.9V95
		c0,0.3,0.3,0.6,0.7,0.6H167V96c0,0.4,0.4,0.8,0.9,0.8h34.4c0.5,0,0.9-0.4,0.9-0.8v-0.4h36.5c0.4,0,0.7-0.3,0.7-0.6v-0.3h36V95
		c0,0.3,0.3,0.6,0.7,0.6h13.4c-0.1-1.1-0.2-2.2-0.4-3.4h-13c-0.4,0-0.7,0.3-0.7,0.6v0.5h-36v-0.5c0-0.3-0.3-0.6-0.7-0.6h-36.5v-0.4
		C203.2,91.4,202.8,91,202.3,91z"/>
	<path d="M276.5,84.3v0.5h-36v-0.5c0-0.3-0.3-0.6-0.7-0.6h-30.6c-2.6,0.5-5.2,0.7-7.8,0.7c-0.4,0-0.7,0-1.1,0
		c-2.8-0.1-5.6-0.5-8.2-1.1l0,0.1l-0.5-0.1c0,0-1.3-0.3-3.3-0.8h-20.5c-0.5,0-0.9,0.4-0.9,0.8v0.4h-34.4c-0.4,0-0.7,0.3-0.7,0.6v0.5
		h-16.8c-0.1,0.5-0.1,0.9-0.2,1.4h16.9v0.3c0,0.3,0.3,0.6,0.7,0.6H167v0.4c0,0.4,0.4,0.8,0.9,0.8h34.4c0.5,0,0.9-0.4,0.9-0.8v-0.4
		h36.5c0.4,0,0.7-0.3,0.7-0.6v-0.3h36v0.3c0,0.3,0.3,0.6,0.7,0.6h12.4c-0.1-1.1-0.3-2.3-0.5-3.4h-11.9
		C276.8,83.7,276.5,84,276.5,84.3z"/>
	<path d="M279.3,160.9v-0.5c0-0.3-0.3-0.6-0.7-0.6h-36.5v-0.4c0-0.4-0.4-0.8-0.9-0.8h-34.4c-0.5,0-0.9,0.4-0.9,0.8v0.4h-34.4
		c-0.4,0-0.7,0.3-0.7,0.6v0.5h-35.8v-0.5c0-0.3-0.3-0.6-0.7-0.6h-15.5c0.1,1.1,0.2,2.2,0.3,3.4h15.2c0.4,0,0.7-0.3,0.7-0.6v-0.3
		h35.8v0.3c0,0.3,0.3,0.6,0.7,0.6h34.4v0.4c0,0.4,0.4,0.8,0.9,0.8h34.4c0.5,0,0.9-0.4,0.9-0.8v-0.4h36.5c0.4,0,0.7-0.3,0.7-0.6v-0.3
		h6.9c0-0.5,0.1-0.9,0.1-1.4H279.3z"/>
	<path d="M279.3,152.4v-0.5c0-0.3-0.3-0.6-0.7-0.6h-36.5v-0.4c0-0.4-0.4-0.8-0.9-0.8h-34.4c-0.5,0-0.9,0.4-0.9,0.8v0.4h-34.4
		c-0.4,0-0.7,0.3-0.7,0.6v0.5h-35.8v-0.5c0-0.3-0.3-0.6-0.7-0.6h-16.5c0.1,1.1,0.3,2.2,0.4,3.4h16.1c0.4,0,0.7-0.3,0.7-0.6v-0.3
		h35.8v0.3c0,0.3,0.3,0.6,0.7,0.6h34.4v0.4c0,0.4,0.4,0.8,0.9,0.8h34.4c0.5,0,0.9-0.4,0.9-0.8v-0.4h36.5c0.4,0,0.7-0.3,0.7-0.6v-0.3
		h7.8c0.1-0.5,0.1-0.9,0.2-1.4H279.3z"/>
	<path d="M279.3,143.9v-0.5c0-0.3-0.3-0.6-0.7-0.6h-36.5v-0.4c0-0.4-0.4-0.8-0.9-0.8h-34.4c-0.5,0-0.9,0.4-0.9,0.8v0.4h-34.4
		c-0.4,0-0.7,0.3-0.7,0.6v0.5h-35.8v-0.5c0-0.3-0.3-0.6-0.7-0.6h-17.8c0.2,1.1,0.4,2.2,0.6,3.4h17.2c0.4,0,0.7-0.3,0.7-0.6v-0.3
		h35.8v0.3c0,0.3,0.3,0.6,0.7,0.6h34.4v0.4c0,0.4,0.4,0.8,0.9,0.8h34.4c0.5,0,0.9-0.4,0.9-0.8v-0.4h36.5c0.4,0,0.7-0.3,0.7-0.6v-0.3
		h9c0.1-0.5,0.2-0.9,0.2-1.4H279.3z"/>
	<path d="M279.3,135.4v-0.5c0-0.3-0.3-0.6-0.7-0.6h-36.5v-0.4c0-0.4-0.4-0.8-0.9-0.8h-34.4c-0.5,0-0.9,0.4-0.9,0.8v0.4h-34.4
		c-0.4,0-0.7,0.3-0.7,0.6v0.5h-35.8v-0.5c0-0.3-0.3-0.6-0.7-0.6h-19.7c0.3,1,0.6,2.1,0.9,3.4h18.8c0.4,0,0.7-0.3,0.7-0.6v-0.3h35.8
		v0.3c0,0.3,0.3,0.6,0.7,0.6h34.4v0.4c0,0.4,0.4,0.8,0.9,0.8h34.4c0.5,0,0.9-0.4,0.9-0.8v-0.4h36.5c0.4,0,0.7-0.3,0.7-0.6v-0.3H290
		c0.1-0.5,0.2-0.9,0.4-1.4H279.3z"/>
	<path d="M279.3,126.9v-0.5c0-0.3-0.3-0.6-0.7-0.6h-36.5v-0.4c0-0.4-0.4-0.8-0.9-0.8h-34.4c-0.5,0-0.9,0.4-0.9,0.8v0.4h-34.4
		c-0.4,0-0.7,0.3-0.7,0.6v0.5h-35.8v-0.5c0-0.3-0.3-0.6-0.7-0.6h-22.7c-0.1,1.1-0.1,1.8-0.1,2.2l0.8,0.6c0.1,0.2,0.2,0.4,0.4,0.6
		h21.7c0.4,0,0.7-0.3,0.7-0.6v-0.3h35.8v0.3c0,0.3,0.3,0.6,0.7,0.6h34.4v0.4c0,0.4,0.4,0.8,0.9,0.8h34.4c0.5,0,0.9-0.4,0.9-0.8v-0.4
		h36.5c0.4,0,0.7-0.3,0.7-0.6v-0.3H293c0-0.1,0-0.6-0.1-1.4H279.3z"/>
	<path d="M239.5,206.4H274c0.5,0,0.9-0.4,0.9-0.8v-0.4h8.9c0-1.1,0.1-2.3,0.1-3.4h-9v-0.4c0-0.4-0.4-0.8-0.9-0.8h-34.4
		c-0.5,0-0.9,0.4-0.9,0.8v0.4h-34.4c-0.4,0-0.7,0.3-0.7,0.6v0.5h-32.1v-0.5c0-0.3-0.3-0.6-0.7-0.6h-36.5v-0.4c0-0.4-0.4-0.8-0.9-0.8
		h-11.9c0.1,1.9,0.1,3.8,0.2,5.8h11.7c0.5,0,0.9-0.4,0.9-0.8v-0.4h36.5c0.4,0,0.7-0.3,0.7-0.6v-0.3h32.1v0.3c0,0.3,0.3,0.6,0.7,0.6
		h34.4v0.4C238.6,206,239,206.4,239.5,206.4z"/>
	<path d="M239.5,197.9H274c0.5,0,0.9-0.4,0.9-0.8v-0.4h9.2c0-1.1,0.1-2.3,0.2-3.4h-9.4v-0.4c0-0.4-0.4-0.8-0.9-0.8h-34.4
		c-0.5,0-0.9,0.4-0.9,0.8v0.4h-34.4c-0.4,0-0.7,0.3-0.7,0.6v0.5h-32.1v-0.5c0-0.3-0.3-0.6-0.7-0.6h-36.5v-0.4c0-0.4-0.4-0.8-0.9-0.8
		h-12.3c0.1,1.9,0.2,3.8,0.3,5.8h12.1c0.5,0,0.9-0.4,0.9-0.8v-0.4h36.5c0.4,0,0.7-0.3,0.7-0.6v-0.3h32.1v0.3c0,0.3,0.3,0.6,0.7,0.6
		h34.4v0.4C238.6,197.6,239,197.9,239.5,197.9z"/>
	<path d="M133.2,183.6h-12.8c0.1,1.9,0.2,3.8,0.3,5.8h12.4c0.5,0,0.9-0.4,0.9-0.8v-0.4h36.5c0.4,0,0.7-0.3,0.7-0.6v-0.3h32.1v0.3
		c0,0.3,0.3,0.6,0.7,0.6h34.4v0.4c0,0.4,0.4,0.8,0.9,0.8H274c0.5,0,0.9-0.4,0.9-0.8v-0.4h9.6c0.1-1.1,0.1-2.3,0.2-3.4h-9.8v-0.4
		c0-0.4-0.4-0.8-0.9-0.8h-34.4c-0.5,0-0.9,0.4-0.9,0.8v0.4h-34.4c-0.4,0-0.7,0.3-0.7,0.6v0.5h-32.1v-0.5c0-0.3-0.3-0.6-0.7-0.6
		h-36.5v-0.4C134.1,184,133.7,183.6,133.2,183.6z"/>
	<path d="M133.2,175.1h-13.3c0.1,1.9,0.2,3.8,0.4,5.8h12.9c0.5,0,0.9-0.4,0.9-0.8v-0.4h36.5c0.4,0,0.7-0.3,0.7-0.6v-0.3h32.1v0.3
		c0,0.3,0.3,0.6,0.7,0.6h34.4v0.4c0,0.4,0.4,0.8,0.9,0.8H274c0.5,0,0.9-0.4,0.9-0.8v-0.4H285c0.1-1.2,0.1-2.3,0.2-3.4h-10.3v-0.4
		c0-0.4-0.4-0.8-0.9-0.8h-34.4c-0.5,0-0.9,0.4-0.9,0.8v0.4h-34.4c-0.4,0-0.7,0.3-0.7,0.6v0.5h-32.1V177c0-0.3-0.3-0.6-0.7-0.6h-36.5
		v-0.4C134.1,175.5,133.7,175.1,133.2,175.1z"/>
	<path d="M133.2,166.7h-13.9c0.1,1.1,0.2,2.2,0.3,3.4c0.1,0.8,0.1,1.6,0.2,2.4h13.5c0.5,0,0.9-0.4,0.9-0.8v-0.4h36.5
		c0.4,0,0.7-0.3,0.7-0.6v-0.3H203v0.3c0,0.3,0.3,0.6,0.7,0.6h34.9v0.4c0,0.4,0.4,0.8,0.9,0.8H274c0.5,0,0.9-0.4,0.9-0.8v-0.4h10.7
		c0-0.4,0.1-0.8,0.1-1.2c0.1-0.7,0.1-1.5,0.2-2.2h-10.9v-0.4c0-0.4-0.4-0.8-0.9-0.8h-34.4c-0.5,0-0.9,0.4-0.9,0.8v0.4h-34.9
		c-0.4,0-0.7,0.3-0.7,0.6v0.5h-31.6v-0.5c0-0.3-0.3-0.6-0.7-0.6h-36.5v-0.4C134.1,167,133.7,166.7,133.2,166.7z"/>
	<path d="M618.1,252.5v-0.4c0-0.4-0.4-0.8-0.9-0.8h-34.4c-0.5,0-0.9,0.4-0.9,0.8v0.4h-36.5c-0.4,0-0.7,0.3-0.7,0.6v0.5h-36v-0.5
		c0-0.3-0.3-0.6-0.7-0.6h-34.6v-0.4c0-0.4-0.4-0.8-0.9-0.8h-5.5c0,1.9,0,3.9,0,5.8h5.5c0.5,0,0.9-0.4,0.9-0.8v-0.4h34.6
		c0.4,0,0.7-0.3,0.7-0.6V255h36v0.3c0,0.3,0.3,0.6,0.7,0.6h36.5v0.4c0,0.4,0.4,0.8,0.9,0.8h34.4c0.5,0,0.9-0.4,0.9-0.8v-0.4h9.5
		c0-1.1,0-2.3,0-3.4H618.1z"/>
	<path d="M582.7,248.6h34.4c0.5,0,0.9-0.4,0.9-0.8v-0.4h9.5c0-1.1,0-2.3,0-3.4h-9.5v-0.4c0-0.4-0.4-0.8-0.9-0.8h-34.4
		c-0.5,0-0.9,0.4-0.9,0.8v0.4h-36.5c-0.4,0-0.7,0.3-0.7,0.6v0.5h-36v-0.5c0-0.3-0.3-0.6-0.7-0.6h-34.6v-0.4c0-0.4-0.4-0.8-0.9-0.8
		h-5.5c0,1.9,0,3.8,0,5.8h5.5c0.5,0,0.9-0.4,0.9-0.8v-0.4h34.6c0.4,0,0.7-0.3,0.7-0.6v-0.3h36v0.3c0,0.3,0.3,0.6,0.7,0.6h36.5v0.4
		C581.8,248.2,582.2,248.6,582.7,248.6z"/>
	<path d="M472.4,240.1c0.5,0,0.9-0.4,0.9-0.8v-0.4h34.6c0.4,0,0.7-0.3,0.7-0.6V238h36v0.3c0,0.3,0.3,0.6,0.7,0.6h36.5v0.4
		c0,0.4,0.4,0.8,0.9,0.8h34.4c0.5,0,0.9-0.4,0.9-0.8v-0.4h9.6c0-1.1,0-2.3,0-3.4h-9.6v-0.4c0-0.4-0.4-0.8-0.9-0.8h-34.4
		c-0.5,0-0.9,0.4-0.9,0.8v0.4h-36.5c-0.4,0-0.7,0.3-0.7,0.6v0.5h-36v-0.5c0-0.3-0.3-0.6-0.7-0.6h-34.6v-0.4c0-0.4-0.4-0.8-0.9-0.8
		h-5.6c0,1.9,0.1,3.8,0.1,5.8H472.4z"/>
	<path d="M472.4,231.6c0.5,0,0.9-0.4,0.9-0.8v-0.4h34.6c0.4,0,0.7-0.3,0.7-0.6v-0.3h36v0.3c0,0.3,0.3,0.6,0.7,0.6h36.5v0.4
		c0,0.4,0.4,0.8,0.9,0.8h34.4c0.5,0,0.9-0.4,0.9-0.8v-0.4h9.7c0-1.1,0-2.3,0.1-3.4h-9.8v-0.4c0-0.4-0.4-0.8-0.9-0.8h-34.4
		c-0.5,0-0.9,0.4-0.9,0.8v0.4h-36.5c-0.4,0-0.7,0.3-0.7,0.6v0.5h-36v-0.5c0-0.3-0.3-0.6-0.7-0.6h-34.6v-0.4c0-0.4-0.4-0.8-0.9-0.8
		h-5.8c0,1.9,0.1,3.8,0.1,5.8H472.4z"/>
	<path d="M472.4,217.3h-6c0,1.9,0.1,3.8,0.1,5.8h5.8c0.5,0,0.9-0.4,0.9-0.8v-0.4h34.6c0.4,0,0.7-0.3,0.7-0.6V221h36v0.3
		c0,0.3,0.3,0.6,0.7,0.6h36.5v0.4c0,0.4,0.4,0.8,0.9,0.8h34.4c0.5,0,0.9-0.4,0.9-0.8v-0.4h9.9c0-1.1,0.1-2.3,0.1-3.4h-10v-0.4
		c0-0.4-0.4-0.8-0.9-0.8h-34.4c-0.5,0-0.9,0.4-0.9,0.8v0.4h-36.5c-0.4,0-0.7,0.3-0.7,0.6v0.5h-36v-0.5c0-0.3-0.3-0.6-0.7-0.6h-34.6
		v-0.4C473.3,217.7,472.9,217.3,472.4,217.3z"/>
	<path d="M472.4,214.6c0.5,0,0.9-0.4,0.9-0.8v-0.4h34.6c0.4,0,0.7-0.3,0.7-0.6v-0.3h36v0.3c0,0.3,0.3,0.6,0.7,0.6h36.5v0.4
		c0,0.4,0.4,0.8,0.9,0.8h34.4c0.5,0,0.9-0.4,0.9-0.8v-0.4h10.1c0-1.1,0.1-2.3,0.1-3.4h-10.2v-0.4c0-0.4-0.4-0.8-0.9-0.8h-34.4
		c-0.5,0-0.9,0.4-0.9,0.8v0.4h-36.5c-0.4,0-0.7,0.3-0.7,0.6v0.5h-36v-0.5c0-0.3-0.3-0.6-0.7-0.6h-34.6v-0.4c0-0.4-0.4-0.8-0.9-0.8
		h-6.2c0.1,1.9,0.1,3.8,0.2,5.8H472.4z"/>
	<path d="M472.5,297.8v-0.3h36v0.3c0,0.3,0.3,0.6,0.7,0.6h36.5v0.4c0,0.4,0.4,0.8,0.9,0.8h34.4c0.5,0,0.9-0.4,0.9-0.8v-0.4h34.4
		c0.4,0,0.7-0.3,0.7-0.6v-0.3h11.2c0-0.5,0-0.9-0.1-1.4h-11.2v-0.5c0-0.3-0.3-0.6-0.7-0.6H582v-0.4c0-0.4-0.4-0.8-0.9-0.8h-34.4
		c-0.5,0-0.9,0.4-0.9,0.8v0.4h-36.5c-0.4,0-0.7,0.3-0.7,0.6v0.5h-36v-0.5c0-0.3-0.3-0.6-0.7-0.6h-5.5c0,1.1-0.1,2.3-0.1,3.4h5.6
		C472.2,298.4,472.5,298.1,472.5,297.8z"/>
	<path d="M546.6,291.1h34.4c0.5,0,0.9-0.4,0.9-0.8v-0.4h34.4c0.4,0,0.7-0.3,0.7-0.6V289h11c0-0.5,0-0.9,0-1.4h-10.9v-0.5
		c0-0.3-0.3-0.6-0.7-0.6H582v-0.4c0-0.4-0.4-0.8-0.9-0.8h-34.4c-0.5,0-0.9,0.4-0.9,0.8v0.4h-36.5c-0.4,0-0.7,0.3-0.7,0.6v0.5h-36
		v-0.5c0-0.3-0.3-0.6-0.7-0.6h-5.2c0,1.1-0.1,2.3-0.1,3.4h5.3c0.4,0,0.7-0.3,0.7-0.6V289h36v0.3c0,0.3,0.3,0.6,0.7,0.6h36.5v0.4
		C545.7,290.7,546.1,291.1,546.6,291.1z"/>
	<path d="M546.6,282.6h34.4c0.5,0,0.9-0.4,0.9-0.8v-0.4h34.4c0.4,0,0.7-0.3,0.7-0.6v-0.3h10.7c0-0.5,0-0.9,0-1.4h-10.7v-0.5
		c0-0.3-0.3-0.6-0.7-0.6H582v-0.4c0-0.4-0.4-0.8-0.9-0.8h-34.4c-0.5,0-0.9,0.4-0.9,0.8v0.4h-36.5c-0.4,0-0.7,0.3-0.7,0.6v0.5h-36
		v-0.5c0-0.3-0.3-0.6-0.7-0.6h-5c0,1.1,0,2.3-0.1,3.4h5.1c0.4,0,0.7-0.3,0.7-0.6v-0.3h36v0.3c0,0.3,0.3,0.6,0.7,0.6h36.5v0.4
		C545.7,282.3,546.1,282.6,546.6,282.6z"/>
	<path d="M617.1,270.7v-0.5c0-0.3-0.3-0.6-0.7-0.6H582v-0.4c0-0.4-0.4-0.8-0.9-0.8h-34.4c-0.5,0-0.9,0.4-0.9,0.8v0.4h-36.5
		c-0.4,0-0.7,0.3-0.7,0.6v0.5h-36v-0.5c0-0.3-0.3-0.6-0.7-0.6h-4.9c0,1.1,0,2.3,0,3.4h5c0.4,0,0.7-0.3,0.7-0.6v-0.3h36v0.3
		c0,0.3,0.3,0.6,0.7,0.6h36.5v0.4c0,0.4,0.4,0.8,0.9,0.8h34.4c0.5,0,0.9-0.4,0.9-0.8v-0.4h34.4c0.4,0,0.7-0.3,0.7-0.6v-0.3h10.6
		c0-0.5,0-0.9,0-1.4H617.1z"/>
	<path d="M471.8,264.4c0.4,0,0.7-0.3,0.7-0.6v-0.3h36v0.3c0,0.3,0.3,0.6,0.7,0.6h36.5v0.4c0,0.4,0.4,0.8,0.9,0.8h34.4
		c0.5,0,0.9-0.4,0.9-0.8v-0.4h34.4c0.4,0,0.7-0.3,0.7-0.6v-0.3h10.5c0-0.5,0-0.9,0-1.4h-10.5v-0.5c0-0.3-0.3-0.6-0.7-0.6H582v-0.4
		c0-0.4-0.4-0.8-0.9-0.8h-34.4c-0.5,0-0.9,0.4-0.9,0.8v0.4h-36.5c-0.4,0-0.7,0.3-0.7,0.6v0.5h-36v-0.5c0-0.3-0.3-0.6-0.7-0.6h-4.9
		c0,1.1,0,2.3,0,3.4H471.8z"/>
	<path d="M616.9,337.1c-0.4,0-0.7,0.3-0.7,0.6v0.5h-35.8v-0.5c0-0.3-0.3-0.6-0.7-0.6h-34.4v-0.4c0-0.4-0.4-0.8-0.9-0.8h-34.4
		c-0.5,0-0.9,0.4-0.9,0.8v0.4h-36.5c-0.4,0-0.7,0.3-0.7,0.6v0.5h-8.3c-0.1,0.5-0.1,0.9-0.2,1.4h8.5v0.3c0,0.3,0.3,0.6,0.7,0.6H509
		v0.4c0,0.4,0.4,0.8,0.9,0.8h34.4c0.5,0,0.9-0.4,0.9-0.8v-0.4h34.4c0.4,0,0.7-0.3,0.7-0.6v-0.3h35.8v0.3c0,0.3,0.3,0.6,0.7,0.6h14.5
		c-0.1-1.1-0.3-2.2-0.4-3.4H616.9z"/>
	<path d="M616.9,332h13.6c-0.1-1.1-0.2-2.2-0.3-3.4h-13.3c-0.4,0-0.7,0.3-0.7,0.6v0.5h-35.8v-0.5c0-0.3-0.3-0.6-0.7-0.6h-34.4v-0.4
		c0-0.4-0.4-0.8-0.9-0.8h-34.4c-0.5,0-0.9,0.4-0.9,0.8v0.4h-36.5c-0.4,0-0.7,0.3-0.7,0.6v0.5h-7.5c0,0.5-0.1,0.9-0.1,1.4h7.6v0.3
		c0,0.3,0.3,0.6,0.7,0.6H509v0.4c0,0.4,0.4,0.8,0.9,0.8h34.4c0.5,0,0.9-0.4,0.9-0.8V332h34.4c0.4,0,0.7-0.3,0.7-0.6v-0.3h35.8v0.3
		C616.2,331.7,616.5,332,616.9,332z"/>
	<path d="M471.7,322.6v0.3c0,0.3,0.3,0.6,0.7,0.6H509v0.4c0,0.4,0.4,0.8,0.9,0.8h34.4c0.5,0,0.9-0.4,0.9-0.8v-0.4h34.4
		c0.4,0,0.7-0.3,0.7-0.6v-0.3h35.8v0.3c0,0.3,0.3,0.6,0.7,0.6h12.9c-0.1-1.1-0.2-2.2-0.2-3.4h-12.6c-0.4,0-0.7,0.3-0.7,0.6v0.5
		h-35.8v-0.5c0-0.3-0.3-0.6-0.7-0.6h-34.4v-0.4c0-0.4-0.4-0.8-0.9-0.8h-34.4c-0.5,0-0.9,0.4-0.9,0.8v0.4h-36.5
		c-0.4,0-0.7,0.3-0.7,0.6v0.5h-6.8c0,0.5-0.1,0.9-0.1,1.4H471.7z"/>
	<path d="M544.3,310.4h-34.4c-0.5,0-0.9,0.4-0.9,0.8v0.4h-36.5c-0.4,0-0.7,0.3-0.7,0.6v0.5h-6.3c0,0.5-0.1,0.9-0.1,1.4h6.3v0.3
		c0,0.3,0.3,0.6,0.7,0.6H509v0.4c0,0.4,0.4,0.8,0.9,0.8h34.4c0.5,0,0.9-0.4,0.9-0.8V315h34.4c0.4,0,0.7-0.3,0.7-0.6v-0.3h35.8v0.3
		c0,0.3,0.3,0.6,0.7,0.6h12.3c-0.1-1.1-0.1-2.2-0.2-3.4h-12.1c-0.4,0-0.7,0.3-0.7,0.6v0.5h-35.8v-0.5c0-0.3-0.3-0.6-0.7-0.6h-34.4
		v-0.4C545.3,310.8,544.9,310.4,544.3,310.4z"/>
	<path d="M616.2,303.7v0.5h-35.8v-0.5c0-0.3-0.3-0.6-0.7-0.6h-34.4v-0.4c0-0.4-0.4-0.8-0.9-0.8h-34.4c-0.5,0-0.9,0.4-0.9,0.8v0.4
		h-36.5c-0.4,0-0.7,0.3-0.7,0.6v0.5h-5.8c0,0.5,0,0.9-0.1,1.4h5.9v0.3c0,0.3,0.3,0.6,0.7,0.6H509v0.4c0,0.4,0.4,0.8,0.9,0.8h34.4
		c0.5,0,0.9-0.4,0.9-0.8v-0.4h34.4c0.4,0,0.7-0.3,0.7-0.6v-0.3h35.8v0.3c0,0.3,0.3,0.6,0.7,0.6h11.8c-0.1-1.1-0.1-2.3-0.2-3.4h-11.7
		C616.5,303.1,616.2,303.4,616.2,303.7z"/>
	<path d="M509.4,361h-3.7c1.5,0.3,3.1,0.7,4.6,1v-0.2C510.4,361.3,510,361,509.4,361z"/>
	<path d="M544.8,362.2h-33.4c8.1,1.6,16.9,2.8,26,3.4h7.4c0.4,0,0.7-0.3,0.7-0.6v-0.3h22.4c5.6-0.6,11-1.5,16-2.5h-5.6
		c-0.4,0-0.7,0.3-0.7,0.6v0.5h-32.1v-0.5C545.5,362.4,545.2,362.2,544.8,362.2z"/>
	<path d="M509.4,352.5h-32.2c5,1.9,11,3.9,17.8,5.8h14.4c0.5,0,0.9-0.4,0.9-0.8v-0.4h34.4c0.4,0,0.7-0.3,0.7-0.6v-0.3h32.1v0.3
		c0,0.3,0.3,0.6,0.7,0.6H604c3.6-1.1,7-2.3,9.9-3.4h-35.6c-0.4,0-0.7,0.3-0.7,0.6v0.5h-32.1v-0.5c0-0.3-0.3-0.6-0.7-0.6h-34.4v-0.4
		C510.4,352.8,510,352.5,509.4,352.5z"/>
	<path d="M615.8,352.5c-0.5,0-0.9,0.4-0.9,0.8v0.1c0.8-0.3,1.5-0.6,2.2-0.9H615.8z"/>
	<path d="M509.4,344H475c-0.5,0-0.9,0.4-0.9,0.8v0.4h-11.5c0,0.4-0.1,0.7-0.1,1.1c1.1,0.5,2.8,1.3,5.1,2.3h6.6v0.4
		c0,0.4,0.4,0.8,0.9,0.8h34.4c0.5,0,0.9-0.4,0.9-0.8v-0.4h34.9c0.4,0,0.7-0.3,0.7-0.6v-0.3h31.6v0.3c0,0.3,0.3,0.6,0.7,0.6h36.5v0.4
		c0,0.4,0.4,0.8,0.9,0.8h7.8c5.3-2.3,8.3-4,8.4-4.1l0,0c-0.1-0.6-0.1-1.1-0.2-1.7h-16c-0.5,0-0.9,0.4-0.9,0.8v0.4h-36.5
		c-0.4,0-0.7,0.3-0.7,0.6v0.5H546v-0.5c0-0.3-0.3-0.6-0.7-0.6h-34.9v-0.4C510.4,344.4,510,344,509.4,344z"/>
	<path d="M582.7,79.7h34.4c0.5,0,0.9-0.4,0.9-0.8v-0.4H633c-0.2-1.1-0.4-2.3-0.6-3.4h-14.3v-0.4c0-0.4-0.4-0.8-0.9-0.8h-34.4
		c-0.5,0-0.9,0.4-0.9,0.8v0.4h-36.5c-0.4,0-0.7,0.3-0.7,0.6v0.5h-36v-0.5c0-0.3-0.3-0.6-0.7-0.6h-34.6v-0.4c0-0.4-0.4-0.8-0.9-0.8
		h-10.7c-0.3,1.9-0.7,3.9-1,5.8h11.6c0.5,0,0.9-0.4,0.9-0.8v-0.4h34.6c0.4,0,0.7-0.3,0.7-0.6v-0.3h36v0.3c0,0.3,0.3,0.6,0.7,0.6
		h36.5v0.4C581.8,79.4,582.2,79.7,582.7,79.7z"/>
	<path d="M582.7,71.2h34.4c0.5,0,0.9-0.4,0.9-0.8V70h13.4c-0.2-1.1-0.5-2.3-0.7-3.4h-12.7v-0.4c0-0.4-0.4-0.8-0.9-0.8h-34.4
		c-0.5,0-0.9,0.4-0.9,0.8v0.4h-36.5c-0.4,0-0.7,0.3-0.7,0.6v0.5h-36v-0.5c0-0.3-0.3-0.6-0.7-0.6h-34.6v-0.4c0-0.4-0.4-0.8-0.9-0.8
		h-9c-0.4,1.9-0.8,3.8-1.2,5.8h10.2c0.5,0,0.9-0.4,0.9-0.8V70h34.6c0.4,0,0.7-0.3,0.7-0.6v-0.3h36v0.3c0,0.3,0.3,0.6,0.7,0.6h36.5
		v0.4C581.8,70.9,582.2,71.2,582.7,71.2z"/>
	<path d="M472.4,62.7c0.5,0,0.9-0.4,0.9-0.8v-0.4h34.6c0.4,0,0.7-0.3,0.7-0.6v-0.3h36v0.3c0,0.3,0.3,0.6,0.7,0.6h36.5V62
		c0,0.4,0.4,0.8,0.9,0.8h34.4c0.5,0,0.9-0.4,0.9-0.8v-0.4h11.5c-0.2-0.8-0.4-1.7-0.6-2.5l0,0l-3.1-0.9h-7.9v-0.4
		c0-0.4-0.4-0.8-0.9-0.8h-34.4c-0.5,0-0.9,0.4-0.9,0.8v0.4h-36.5c-0.4,0-0.7,0.3-0.7,0.6v0.5h-36v-0.5c0-0.3-0.3-0.6-0.7-0.6h-34.6
		v-0.4c0-0.4-0.3-0.7-0.7-0.7l-7.8,2.3c-0.3,1.1-0.6,2.3-0.8,3.4H472.4z"/>
	<path d="M582.7,54.3h30l-19.6-5.8h-10.4c-0.5,0-0.9,0.4-0.9,0.8v0.4h-36.5c-0.4,0-0.7,0.3-0.7,0.6v0.5h-36v-0.5
		c0-0.3-0.3-0.6-0.7-0.6h-10.4L486,53.1h21.9c0.4,0,0.7-0.3,0.7-0.6v-0.3h36v0.3c0,0.3,0.3,0.6,0.7,0.6h36.5v0.4
		C581.8,53.9,582.2,54.3,582.7,54.3z"/>
	<path d="M546.6,122.2h34.4c0.5,0,0.9-0.4,0.9-0.8V121h34.4c0.4,0,0.7-0.3,0.7-0.6v-0.3h20.2c0-0.4,0-0.9-0.1-1.4h-20.1v-0.5
		c0-0.3-0.3-0.6-0.7-0.6H582v-0.4c0-0.4-0.4-0.8-0.9-0.8h-34.4c-0.5,0-0.9,0.4-0.9,0.8v0.4h-36.5c-0.4,0-0.7,0.3-0.7,0.6v0.5h-36
		v-0.5c0-0.3-0.3-0.6-0.7-0.6h-15c-0.1,1.2-0.1,2.3-0.2,3.4h15.2c0.4,0,0.7-0.3,0.7-0.6v-0.3h36v0.3c0,0.3,0.3,0.6,0.7,0.6h36.5v0.4
		C545.7,121.9,546.1,122.2,546.6,122.2z"/>
	<path d="M546.6,113.8h34.4c0.5,0,0.9-0.4,0.9-0.8v-0.4h34.4c0.4,0,0.7-0.3,0.7-0.6v-0.3h19.7c0-0.5-0.1-0.9-0.1-1.4h-19.6v-0.5
		c0-0.3-0.3-0.6-0.7-0.6H582v-0.4c0-0.4-0.4-0.8-0.9-0.8h-34.4c-0.5,0-0.9,0.4-0.9,0.8v0.4h-36.5c-0.4,0-0.7,0.3-0.7,0.6v0.5h-36
		v-0.5c0-0.3-0.3-0.6-0.7-0.6h-14.4c-0.1,1.2-0.2,2.3-0.2,3.4h14.7c0.4,0,0.7-0.3,0.7-0.6v-0.3h36v0.3c0,0.3,0.3,0.6,0.7,0.6h36.5
		v0.4C545.7,113.4,546.1,113.8,546.6,113.8z"/>
	<path d="M617.1,101.8v-0.5c0-0.3-0.3-0.6-0.7-0.6H582v-0.4c0-0.4-0.4-0.8-0.9-0.8h-34.4c-0.5,0-0.9,0.4-0.9,0.8v0.4h-36.5
		c-0.4,0-0.7,0.3-0.7,0.6v0.5h-36v-0.5c0-0.3-0.3-0.6-0.7-0.6h-13.7c-0.1,1.1-0.2,2.3-0.3,3.4h14c0.4,0,0.7-0.3,0.7-0.6v-0.3h36v0.3
		c0,0.3,0.3,0.6,0.7,0.6h36.5v0.4c0,0.4,0.4,0.8,0.9,0.8h34.4c0.5,0,0.9-0.4,0.9-0.8v-0.4h34.4c0.4,0,0.7-0.3,0.7-0.6v-0.3h19
		c0-0.5-0.1-0.9-0.1-1.4H617.1z"/>
	<path d="M471.8,92.2H459c-0.1,1.1-0.3,2.3-0.4,3.4h13.1c0.4,0,0.7-0.3,0.7-0.6v-0.3h36V95c0,0.3,0.3,0.6,0.7,0.6h36.5V96
		c0,0.4,0.4,0.8,0.9,0.8h34.4c0.5,0,0.9-0.4,0.9-0.8v-0.4h34.4c0.4,0,0.7-0.3,0.7-0.6v-0.3h18.1c-0.1-0.5-0.1-0.9-0.2-1.4h-18v-0.5
		c0-0.3-0.3-0.6-0.7-0.6H582v-0.4c0-0.4-0.4-0.8-0.9-0.8h-34.4c-0.5,0-0.9,0.4-0.9,0.8v0.4h-36.5c-0.4,0-0.7,0.3-0.7,0.6v0.5h-36
		v-0.5C472.5,92.5,472.2,92.2,471.8,92.2z"/>
	<path d="M471.8,87.1c0.4,0,0.7-0.3,0.7-0.6v-0.3h36v0.3c0,0.3,0.3,0.6,0.7,0.6h36.5v0.4c0,0.4,0.4,0.8,0.9,0.8h34.4
		c0.5,0,0.9-0.4,0.9-0.8v-0.4h34.4c0.4,0,0.7-0.3,0.7-0.6v-0.3h17.1c-0.1-0.5-0.1-0.9-0.2-1.4h-16.9v-0.5c0-0.3-0.3-0.6-0.7-0.6H582
		v-0.4c0-0.4-0.4-0.8-0.9-0.8h-34.4c-0.5,0-0.9,0.4-0.9,0.8v0.4h-36.5c-0.4,0-0.7,0.3-0.7,0.6v0.5h-36v-0.5c0-0.3-0.3-0.6-0.7-0.6
		h-11.6c-0.2,1.1-0.3,2.3-0.5,3.4H471.8z"/>
	<path d="M469.6,162.2v0.3c0,0.3,0.3,0.6,0.7,0.6h36.5v0.4c0,0.4,0.4,0.8,0.9,0.8h34.4c0.5,0,0.9-0.4,0.9-0.8v-0.4h34.4
		c0.4,0,0.7-0.3,0.7-0.6v-0.3h35.8v0.3c0,0.3,0.3,0.6,0.7,0.6h16.1c0.1-1.2,0.2-2.3,0.3-3.4h-16.4c-0.4,0-0.7,0.3-0.7,0.6v0.5h-35.8
		v-0.5c0-0.3-0.3-0.6-0.7-0.6h-34.4v-0.4c0-0.4-0.4-0.8-0.9-0.8h-34.4c-0.5,0-0.9,0.4-0.9,0.8v0.4h-36.5c-0.4,0-0.7,0.3-0.7,0.6v0.5
		h-6.2c0,0.5,0.1,0.9,0.1,1.4H469.6z"/>
	<path d="M469.6,153.8v0.3c0,0.3,0.3,0.6,0.7,0.6h36.5v0.4c0,0.4,0.4,0.8,0.9,0.8h34.4c0.5,0,0.9-0.4,0.9-0.8v-0.4h34.4
		c0.4,0,0.7-0.3,0.7-0.6v-0.3h35.8v0.3c0,0.3,0.3,0.6,0.7,0.6h17c0.1-1.2,0.3-2.3,0.4-3.4h-17.4c-0.4,0-0.7,0.3-0.7,0.6v0.5h-35.8
		v-0.5c0-0.3-0.3-0.6-0.7-0.6h-34.4v-0.4c0-0.4-0.4-0.8-0.9-0.8h-34.4c-0.5,0-0.9,0.4-0.9,0.8v0.4h-36.5c-0.4,0-0.7,0.3-0.7,0.6v0.5
		h-7.1c0.1,0.4,0.1,0.9,0.2,1.4H469.6z"/>
	<path d="M469.6,145.3v0.3c0,0.3,0.3,0.6,0.7,0.6h36.5v0.4c0,0.4,0.4,0.8,0.9,0.8h34.4c0.5,0,0.9-0.4,0.9-0.8v-0.4h34.4
		c0.4,0,0.7-0.3,0.7-0.6v-0.3h35.8v0.3c0,0.3,0.3,0.6,0.7,0.6h18.1c0.2-1.2,0.4-2.3,0.6-3.4h-18.7c-0.4,0-0.7,0.3-0.7,0.6v0.5h-35.8
		v-0.5c0-0.3-0.3-0.6-0.7-0.6h-34.4v-0.4c0-0.4-0.4-0.8-0.9-0.8h-34.4c-0.5,0-0.9,0.4-0.9,0.8v0.4h-36.5c-0.4,0-0.7,0.3-0.7,0.6v0.5
		h-8.3c0.1,0.5,0.2,0.9,0.2,1.4H469.6z"/>
	<path d="M469.6,136.8v0.3c0,0.3,0.3,0.6,0.7,0.6h36.5v0.4c0,0.4,0.4,0.8,0.9,0.8h34.4c0.5,0,0.9-0.4,0.9-0.8v-0.4h34.4
		c0.4,0,0.7-0.3,0.7-0.6v-0.3h35.8v0.3c0,0.3,0.3,0.6,0.7,0.6h19.7c0.3-1.3,0.6-2.4,0.9-3.4h-20.6c-0.4,0-0.7,0.3-0.7,0.6v0.5h-35.8
		v-0.5c0-0.3-0.3-0.6-0.7-0.6h-34.4v-0.4c0-0.4-0.4-0.8-0.9-0.8h-34.4c-0.5,0-0.9,0.4-0.9,0.8v0.4h-36.5c-0.4,0-0.7,0.3-0.7,0.6v0.5
		h-10.1c0.1,0.4,0.2,0.9,0.4,1.4H469.6z"/>
	<path d="M469.6,128.6c0,0.3,0.3,0.6,0.7,0.6h36.5v0.4c0,0.4,0.4,0.8,0.9,0.8h34.4c0.5,0,0.9-0.4,0.9-0.8v-0.4h34.4
		c0.4,0,0.7-0.3,0.7-0.6v-0.3h35.8v0.3c0,0.3,0.3,0.6,0.7,0.6h22.6c0.2-0.4,0.4-0.6,0.6-0.8l-0.3,0c0-0.1,0-1-0.1-2.5h-22.7
		c-0.4,0-0.7,0.3-0.7,0.6v0.5h-35.8v-0.5c0-0.3-0.3-0.6-0.7-0.6h-34.4v-0.4c0-0.4-0.4-0.8-0.9-0.8h-34.4c-0.5,0-0.9,0.4-0.9,0.8v0.4
		h-36.5c-0.4,0-0.7,0.3-0.7,0.6v0.5h-13.2c0,0.6,0,1.1,0,1.3l0.1,0.1l0.2-0.1c0,0,0,0.1,0,0.1c0,0,0,0,0,0h13V128.6z"/>
	<path d="M615.8,206.4h12.7c0.1-2,0.1-3.9,0.2-5.8h-12.9c-0.5,0-0.9,0.4-0.9,0.8v0.4h-36.5c-0.4,0-0.7,0.3-0.7,0.6v0.5h-32.1v-0.5
		c0-0.3-0.3-0.6-0.7-0.6h-34.4v-0.4c0-0.4-0.4-0.8-0.9-0.8H475c-0.5,0-0.9,0.4-0.9,0.8v0.4h-8.2c0,1.1,0.1,2.2,0.1,3.4h8v0.4
		c0,0.4,0.4,0.8,0.9,0.8h34.4c0.5,0,0.9-0.4,0.9-0.8v-0.4h34.4c0.4,0,0.7-0.3,0.7-0.6v-0.3h32.1v0.3c0,0.3,0.3,0.6,0.7,0.6h36.5v0.4
		C614.8,206,615.3,206.4,615.8,206.4z"/>
	<path d="M474.1,196.7v0.4c0,0.4,0.4,0.8,0.9,0.8h34.4c0.5,0,0.9-0.4,0.9-0.8v-0.4h34.4c0.4,0,0.7-0.3,0.7-0.6v-0.3h32.1v0.3
		c0,0.3,0.3,0.6,0.7,0.6h36.5v0.4c0,0.4,0.4,0.8,0.9,0.8h13c0.1-2,0.2-3.9,0.2-5.8h-13.2c-0.5,0-0.9,0.4-0.9,0.8v0.4h-36.5
		c-0.4,0-0.7,0.3-0.7,0.6v0.5h-32.1v-0.5c0-0.3-0.3-0.6-0.7-0.6h-34.4v-0.4c0-0.4-0.4-0.8-0.9-0.8H475c-0.5,0-0.9,0.4-0.9,0.8v0.4
		h-8.5c0,1.1,0.1,2.2,0.1,3.4H474.1z"/>
	<path d="M509.4,183.6H475c-0.5,0-0.9,0.4-0.9,0.8v0.4h-8.9c0.1,1.1,0.1,2.2,0.2,3.4h8.7v0.4c0,0.4,0.4,0.8,0.9,0.8h34.4
		c0.5,0,0.9-0.4,0.9-0.8v-0.4h34.4c0.4,0,0.7-0.3,0.7-0.6v-0.3h32.1v0.3c0,0.3,0.3,0.6,0.7,0.6h36.5v0.4c0,0.4,0.4,0.8,0.9,0.8h13.4
		c0.1-2,0.2-3.9,0.3-5.8h-13.7c-0.5,0-0.9,0.4-0.9,0.8v0.4h-36.5c-0.4,0-0.7,0.3-0.7,0.6v0.5h-32.1v-0.5c0-0.3-0.3-0.6-0.7-0.6
		h-34.4v-0.4C510.4,184,510,183.6,509.4,183.6z"/>
	<path d="M509.4,175.1H475c-0.5,0-0.9,0.4-0.9,0.8v0.4h-9.4c0.1,1.1,0.1,2.2,0.2,3.4h9.2v0.4c0,0.4,0.4,0.8,0.9,0.8h34.4
		c0.5,0,0.9-0.4,0.9-0.8v-0.4h34.4c0.4,0,0.7-0.3,0.7-0.6v-0.3h32.1v0.3c0,0.3,0.3,0.6,0.7,0.6h36.5v0.4c0,0.4,0.4,0.8,0.9,0.8h13.8
		c0.1-2,0.2-4,0.4-5.8h-14.2c-0.5,0-0.9,0.4-0.9,0.8v0.4h-36.5c-0.4,0-0.7,0.3-0.7,0.6v0.5h-32.1V177c0-0.3-0.3-0.6-0.7-0.6h-34.4
		v-0.4C510.4,175.5,510,175.1,509.4,175.1z"/>
	<path d="M509.4,166.7H475c-0.5,0-0.9,0.4-0.9,0.8v0.4h-10c0.1,0.7,0.1,1.4,0.2,2.2c0,0.4,0.1,0.8,0.1,1.2h9.8v0.4
		c0,0.4,0.4,0.8,0.9,0.8h34.4c0.5,0,0.9-0.4,0.9-0.8v-0.4h34.9c0.4,0,0.7-0.3,0.7-0.6v-0.3h31.6v0.3c0,0.3,0.3,0.6,0.7,0.6h36.5v0.4
		c0,0.4,0.4,0.8,0.9,0.8h14.3c0.1-0.8,0.1-1.6,0.2-2.4c0.1-1.2,0.2-2.3,0.3-3.4h-14.8c-0.5,0-0.9,0.4-0.9,0.8v0.4h-36.5
		c-0.4,0-0.7,0.3-0.7,0.6v0.5H546v-0.5c0-0.3-0.3-0.6-0.7-0.6h-34.9v-0.4C510.4,167,510,166.7,509.4,166.7z"/>
</g>
</svg>
