<?xml version="1.0" encoding="utf-8"?>
<!-- Generator: Adobe Illustrator 25.3.0, SVG Export Plug-In . SVG Version: 6.00 Build 0)  -->
<svg version="1.1" id="Layer_1" xmlns="http://www.w3.org/2000/svg" xmlns:xlink="http://www.w3.org/1999/xlink" x="0px" y="0px"
	 viewBox="0 0 240.8999939 34" style="enable-background:new 0 0 240.8999939 34;" xml:space="preserve">
<style type="text/css">
	.st0{fill:#FFC629;}
	.st1{fill:#1D1D1B;}
	.st2{font-family:'Arial-BoldMT';}
	.st3{font-size:4.3048768px;}
	.st4{fill:#F8DF8D;}
	.st5{font-size:2.889864px;}
	.st6{fill:#021D49;}
	.st7{fill:#00416B;}
	.st8{fill:#0069A7;}
	.st9{fill:#DB0032;}
	.st10{fill:#6ABF4B;}
	.st11{fill:#7F2629;}
	.st12{fill:#B1B1B1;}
	.st13{fill:#FFFFFF;}
	.st14{font-size:3.7574365px;}
</style>
<g>
	<path class="st0" d="M27.7912121,7.707911h19.9938602c0.298481,0,0.298481,1.1459498,0.298481,2.2917066v12.5925398
		c0,1.1476841,0,1.1476841-0.298481,1.1476841H27.7912121c-0.2989826,0-0.2989826,0-0.2989826-1.1476841V9.9996176
		C27.4922295,8.8538609,27.4922295,7.707911,27.7912121,7.707911z"/>
	<text transform="matrix(1 0 0 1 32.7001953 17.1645508)" class="st1 st2 st3">123C</text>
	<path class="st4" d="M51.3064537,7.707911h19.9938622c0.2984772,0,0.2984772,1.1459498,0.2984772,2.2917066v12.5925398
		c0,1.1476841,0,1.1476841-0.2984772,1.1476841H51.3064537c-0.2989807,0-0.2989807,0-0.2989807-1.1476841V9.9996176
		C51.007473,8.8538609,51.007473,7.707911,51.3064537,7.707911z"/>
	<g>
		<path class="st1" d="M23.3531342,8.6566048c0.0165215,0.3839684,0.0165195,0.8741207,0.0165195,1.2210693v12.5925407
			c0,0.0258217,0,0.0515175-0.0000057,0.0770454L4.9196181,22.5471306
			c-0.0000048-0.0254784-0.0000048-0.0511436-0.0000048-0.0769157V9.8776741c0-0.3469486-0.0000014-0.8371506,0.0165472-1.2210693
			H23.3531342 M24.1418133,7.5859642H4.1479535c-0.2989802,0-0.2989802,1.1459503-0.2989802,2.2917099v12.5925407
			c0,1.1476898,0,1.1476898,0.2989802,1.1476898h19.9938602c0.2984791,0,0.2984791,0,0.2984791-1.1476898V9.8776741
			C24.4402924,8.7319145,24.4402924,7.5859642,24.1418133,7.5859642L24.1418133,7.5859642z"/>
	</g>
	<text transform="matrix(1 0 0 1 8.8813477 17.1645508)" class="st1 st2 st5">WHITE</text>
	<path class="st6" d="M75.1949539,7.707911h19.9938583c0.2984848,0,0.2984848,1.1459498,0.2984848,2.2917066v12.5925398
		c0,1.1476841,0,1.1476841-0.2984848,1.1476841H75.1949539c-0.2989807,0-0.2989807,0-0.2989807-1.1476841V9.9996176
		C74.8959732,8.8538609,74.8959732,7.707911,75.1949539,7.707911z"/>
	<path class="st7" d="M98.3274307,7.8298526h19.9938583c0.2984772,0,0.2984772,1.1459498,0.2984772,2.2917075v12.5925398
		c0,1.1476841,0,1.1476841-0.2984772,1.1476841H98.3274307c-0.2989807,0-0.2989807,0-0.2989807-1.1476841V10.1215601
		C98.02845,8.9758024,98.02845,7.8298526,98.3274307,7.8298526z"/>
	<path class="st8" d="M121.8426743,7.8298526h19.9938583c0.2984772,0,0.2984772,1.1459498,0.2984772,2.2917075v12.5925398
		c0,1.1476841,0,1.1476841-0.2984772,1.1476841h-19.9938583c-0.2989807,0-0.2989807,0-0.2989807-1.1476841V10.1215601
		C121.5436935,8.9758024,121.5436935,7.8298526,121.8426743,7.8298526z"/>
	<path class="st9" d="M145.7311707,7.8298526h19.993866c0.2984772,0,0.2984772,1.1459498,0.2984772,2.2917075v12.5925398
		c0,1.1476841,0,1.1476841-0.2984772,1.1476841h-19.993866c-0.2989807,0-0.2989807,0-0.2989807-1.1476841V10.1215601
		C145.4321899,8.9758024,145.4321899,7.8298526,145.7311707,7.8298526z"/>
	<path class="st10" d="M168.8636475,7.9816012h19.993866c0.2984772,0,0.2984772,1.1459498,0.2984772,2.2917066v12.5925407
		c0,1.1476841,0,1.1476841-0.2984772,1.1476841h-19.993866c-0.2989807,0-0.2989807,0-0.2989807-1.1476841V10.2733078
		C168.5646667,9.1275511,168.5646667,7.9816012,168.8636475,7.9816012z"/>
	<path class="st11" d="M192.378891,7.9816012h19.993866c0.2984772,0,0.2984772,1.1459498,0.2984772,2.2917066v12.5925407
		c0,1.1476841,0,1.1476841-0.2984772,1.1476841h-19.993866c-0.2989807,0-0.2989807,0-0.2989807-1.1476841V10.2733078
		C192.0799103,9.1275511,192.0799103,7.9816012,192.378891,7.9816012z"/>
	<path class="st12" d="M216.267395,7.9816012h19.9938507c0.2984924,0,0.2984924,1.1459498,0.2984924,2.2917066v12.5925407
		c0,1.1476841,0,1.1476841-0.2984924,1.1476841H216.267395c-0.2989807,0-0.2989807,0-0.2989807-1.1476841V10.2733078
		C215.9684143,9.1275511,215.9684143,7.9816012,216.267395,7.9816012z"/>
	<text transform="matrix(1 0 0 1 55.6103516 17.1645508)" class="st1 st2 st3">1205C</text>
	<text transform="matrix(1 0 0 1 79.2744141 17.1645508)" class="st13 st2 st3">2768C</text>
	<text transform="matrix(1 0 0 1 102.7504883 17.1572266)" class="st13 st2 st3">7694C</text>
	<text transform="matrix(1 0 0 1 125.9619141 17.1572266)" class="st13 st2 st3">307C</text>
	<text transform="matrix(1 0 0 1 196.4980469 18.3115234)" class="st13 st2 st3">1815C</text>
	<g>
		<text transform="matrix(1 0 0 1 220.4736328 14.8911133)"><tspan x="0" y="0" class="st1 st2 st14">COOL</tspan><tspan x="-2.9248047" y="4.5092773" class="st1 st2 st14">GRAY 5C</tspan></text>
	</g>
	<text transform="matrix(1 0 0 1 150.6806641 17.1572266)" class="st13 st2 st3">199C</text>
	<text transform="matrix(1 0 0 1 173.7724609 17.8657227)" class="st1 st2 st3">360C</text>
</g>
</svg>
