<?xml version="1.0" encoding="utf-8"?>
<!-- Generator: Adobe Illustrator 25.3.0, SVG Export Plug-In . SVG Version: 6.00 Build 0)  -->
<svg version="1.1" id="Layer_1" xmlns="http://www.w3.org/2000/svg" xmlns:xlink="http://www.w3.org/1999/xlink" x="0px" y="0px"
	 viewBox="0 0 750.2 400.1" style="enable-background:new 0 0 750.2 400.1;" xml:space="preserve">
<g>
	<polygon points="603,245.7 606.3,244.3 606.3,241.3 599,244.5 600,246.9 603.5,246.9 	"/>
	<polygon points="590.4,240.6 593.1,246.9 596.5,246.9 593.3,239.4 	"/>
	<polygon points="606.3,227 604.3,227.9 605.4,230.3 606.3,229.9 	"/>
	<polygon points="606.3,206.2 606.3,203.2 605.2,203.7 	"/>
	<polygon points="605.8,237.8 597.1,217.8 606.3,213.8 606.3,212.7 605.6,211.2 593.1,216.6 602.9,239 	"/>
	<polygon points="584.9,212.5 593.6,232.5 584,236.7 585.1,239.1 597.6,233.7 587.8,211.3 	"/>
	<polygon points="585.5,246.6 576.8,226.6 586.4,222.4 585.3,220 572.9,225.4 582.2,246.9 584.8,246.9 	"/>
	<polygon points="567.1,220.3 564.2,221.5 572.9,241.5 563.3,245.7 563.9,246.9 567.2,246.9 576.9,242.7 	"/>
	<polygon points="556.1,235.6 565.7,231.4 564.6,229 552.2,234.4 557.6,246.9 561,246.9 	"/>
	<polygon points="544,230.3 551.1,246.9 554.6,246.9 546.8,229.1 	"/>
	<polygon points="535.8,244.4 545.4,240.3 544.4,237.8 531.9,243.3 533.5,246.9 536.9,246.9 	"/>
	<polygon points="523.8,239.1 527.2,246.9 530.6,246.9 526.7,237.9 	"/>
	<polygon points="524.2,246.6 523.5,246.9 524.3,246.9 	"/>
	<polygon points="505.9,246.9 506.5,246.9 506.4,246.7 	"/>
	<polygon points="599.4,175.8 606.3,191.6 606.3,183.7 602.3,174.5 	"/>
	<polygon points="599.6,202.3 606.3,199.4 606.3,196.5 598.5,199.9 	"/>
	<polygon points="587.3,188.7 597.1,211.1 600,209.8 591.3,189.8 600.9,185.7 599.8,183.2 	"/>
	<polygon points="582,183.3 579.1,184.6 587.8,204.6 578.2,208.7 579.3,211.1 591.8,205.7 	"/>
	<polygon points="579.7,218.6 571,198.6 580.6,194.5 579.5,192.1 567.1,197.5 576.8,219.9 	"/>
	<polygon points="561.3,192.3 558.4,193.6 567.1,213.6 557.5,217.7 558.6,220.2 571.1,214.7 	"/>
	<polygon points="559,227.6 550.3,207.7 559.9,203.5 558.8,201.1 546.4,206.5 556.1,228.9 	"/>
	<polygon points="541,201.1 538.1,202.4 546.8,222.4 537.3,226.5 538.3,229 550.8,223.5 	"/>
	<polygon points="538.7,236.5 530,216.5 539.6,212.3 538.6,209.9 526.1,215.3 535.8,237.7 	"/>
	<polygon points="518,211.2 526.7,231.2 517.1,235.3 518.1,237.7 530.6,232.3 520.9,209.9 	"/>
	<polygon points="518.6,245.2 509.9,225.2 519.4,221.1 518.4,218.6 505.9,224.1 515.7,246.5 	"/>
	<polygon points="500.6,218.7 497.7,220 506.4,240 496.8,244.1 497.9,246.6 510.3,241.1 	"/>
	<polygon points="489.6,234.1 499.2,229.9 498.1,227.5 489,231.4 489,240.7 491.7,246.9 495.2,246.9 	"/>
	<polygon points="606.3,162.6 606.3,154.7 605.6,153.1 606.3,152.8 606.3,150 601.7,152 	"/>
	<polygon points="593.5,147.8 602.2,167.8 592.6,172 593.7,174.4 606.2,169 596.4,146.6 	"/>
	<polygon points="595,157.7 594,155.3 581.5,160.7 591.2,183.1 594.1,181.9 585.4,161.9 	"/>
	<polygon points="572.4,180.8 573.4,183.2 585.9,177.8 576.2,155.4 573.3,156.6 582,176.6 	"/>
	<polygon points="571,192 573.9,190.7 565.2,170.7 574.7,166.5 573.7,164.1 561.2,169.5 	"/>
	<polygon points="552.6,165.6 561.3,185.6 551.7,189.8 552.7,192.2 565.2,186.8 555.5,164.4 	"/>
	<polygon points="550.3,201 553.1,199.7 544.5,179.7 554,175.6 553,173.1 540.5,178.6 	"/>
	<polygon points="532.3,174.5 541,194.4 531.4,198.6 532.5,201 544.9,195.6 535.2,173.2 	"/>
	<polygon points="532.9,208.5 524.2,188.5 533.8,184.4 532.7,181.9 520.2,187.4 530,209.8 	"/>
	<polygon points="511.2,207.4 512.3,209.8 524.8,204.4 515,182 512.1,183.2 520.8,203.2 	"/>
	<polygon points="509.8,218.6 512.7,217.3 504,197.3 513.6,193.1 512.5,190.7 500.1,196.1 	"/>
	<polygon points="491.9,192 500.5,212 491,216.2 492,218.6 504.5,213.2 494.7,190.8 	"/>
	<polygon points="492.4,226.1 489,218.3 489,226.2 489.5,227.4 	"/>
	<polygon points="493.3,202 492.3,199.5 489,201 489,203.8 	"/>
	<polygon points="596.8,124.9 606,146 606.3,145.9 606.3,138.8 600.2,124.9 	"/>
	<polygon points="590.5,124.9 596.8,139.4 587.2,143.6 588.3,146 600.7,140.6 593.9,124.9 	"/>
	<polygon points="585.8,154.8 588.7,153.5 580,133.5 589.6,129.4 588.5,126.9 576,132.4 	"/>
	<polygon points="567.8,128.3 576.5,148.3 566.9,152.4 568,154.8 580.5,149.4 570.7,127 	"/>
	<polygon points="568.4,162.3 559.7,142.3 569.3,138.2 568.2,135.7 555.8,141.2 565.5,163.6 	"/>
	<polygon points="547.1,137.3 555.8,157.3 546.2,161.4 547.3,163.9 559.8,158.4 550,136 	"/>
	<polygon points="544.8,172.6 547.7,171.3 539,151.4 548.6,147.2 547.5,144.8 535.1,150.2 	"/>
	<polygon points="526.8,146.1 535.5,166.1 526,170.2 527,172.7 539.5,167.2 529.7,144.8 	"/>
	<polygon points="524.5,181.4 527.4,180.2 518.7,160.2 528.3,156 527.3,153.6 514.8,159 	"/>
	<polygon points="509.6,153.6 506.7,154.9 515.4,174.9 505.8,179 506.8,181.4 519.3,176 	"/>
	<polygon points="507.3,188.9 498.6,168.9 508.1,164.8 507.1,162.3 494.6,167.8 504.4,190.2 	"/>
	<polygon points="489,186.3 489,189.2 499,184.8 489.3,162.4 489,162.5 489,169.7 495.1,183.7 	"/>
	<polygon points="582.8,125.6 582.5,124.9 579.1,124.9 579.9,126.8 	"/>
	<polygon points="566.7,124.9 561.3,124.9 562.1,126.9 	"/>
	<polygon points="562.6,134.4 558.5,124.9 555,124.9 559.7,135.7 	"/>
	<polygon points="550,129.3 540.4,133.5 541.4,135.9 553.9,130.5 551.5,124.9 548.1,124.9 	"/>
	<polygon points="541.8,143.4 533.8,124.9 530.4,124.9 539,144.7 	"/>
	<polygon points="529.7,138.1 520.1,142.3 521.2,144.7 533.6,139.3 527.4,124.9 523.9,124.9 	"/>
	<polygon points="518.7,153.5 521.6,152.2 512.9,132.2 522.5,128.1 521.4,125.6 508.9,131.1 	"/>
	<polygon points="500.8,126.9 509.5,146.9 499.9,151.1 501,153.5 513.5,148.1 503.7,125.7 	"/>
	<polygon points="489,140.3 498.5,162.3 501.4,161 492.7,141 502.3,136.8 501.2,134.4 489,139.7 	"/>
	<polygon points="489,155.8 489,158.7 493.2,156.9 489,147.3 489,155.2 489.2,155.7 	"/>
	<polygon points="514.4,124.9 512.6,124.9 512.9,125.5 	"/>
	<polygon points="496.8,124.9 494.9,124.9 495.2,125.6 	"/>
	<polygon points="495.6,133 492.1,124.9 489,124.9 489,125.8 492.7,134.3 	"/>
</g>
</svg>
