<?xml version="1.0" encoding="utf-8"?>
<!-- Generator: Adobe Illustrator 25.3.0, SVG Export Plug-In . SVG Version: 6.00 Build 0)  -->
<svg version="1.1" id="Layer_1" xmlns="http://www.w3.org/2000/svg" xmlns:xlink="http://www.w3.org/1999/xlink" x="0px" y="0px"
	 viewBox="0 0 750.2 400.1" style="enable-background:new 0 0 750.2 400.1;" xml:space="preserve">
<g>
	<polygon points="159.9,236.2 165.4,236.2 159.9,233.8 	"/>
	<polygon points="162.7,211.3 159.9,217.8 159.9,225.6 165.6,212.5 	"/>
	<polygon points="165.2,220 164.1,222.4 173.7,226.6 169.5,236.2 173,236.2 177.7,225.4 	"/>
	<polygon points="186.3,221.5 183.4,220.3 176.5,236.2 179.9,236.2 	"/>
	<polygon points="185.9,229 184.8,231.4 194.4,235.6 194.1,236.2 197.6,236.2 198.4,234.4 	"/>
	<polygon points="206.6,230.3 203.7,229.1 200.6,236.2 204,236.2 	"/>
	<polygon points="159.9,187.2 159.9,196.2 163.2,188.7 	"/>
	<polygon points="172.3,208.7 162.7,204.6 171.4,184.6 168.5,183.3 159.9,203.2 159.9,206.2 171.2,211.1 	"/>
	<polygon points="183.5,197.5 171,192.1 169.9,194.5 179.5,198.6 170.8,218.6 173.7,219.9 	"/>
	<polygon points="193,217.7 183.4,213.6 192.1,193.6 189.2,192.3 179.5,214.7 191.9,220.2 	"/>
	<polygon points="204.2,206.5 191.7,201.1 190.6,203.5 200.2,207.7 191.5,227.6 194.4,228.9 	"/>
	<polygon points="213.3,226.5 203.7,222.4 212.4,202.4 209.5,201.1 199.7,223.5 212.2,229 	"/>
	<polygon points="212,209.9 210.9,212.3 220.5,216.5 211.9,236.2 215.3,236.2 224.4,215.3 	"/>
	<polygon points="232.6,211.2 229.7,209.9 219.9,232.3 228.9,236.2 233,236.2 233.4,235.3 223.9,231.2 	"/>
	<polygon points="244.3,224 232.1,218.6 231.1,221.1 240.7,225.2 235.9,236.2 239.4,236.2 244.3,224.8 	"/>
	<polygon points="244.3,231.6 242.3,236.2 244.3,236.2 	"/>
	<polygon points="165.1,161.9 159.9,173.9 159.9,181.7 169,160.7 168.8,160.6 162.1,160.6 	"/>
	<polygon points="177.1,183.2 178.1,180.8 168.6,176.6 175.6,160.6 172.1,160.6 164.6,177.8 	"/>
	<polygon points="176.7,190.7 179.6,192 189.3,169.5 176.8,164.1 175.8,166.5 185.4,170.7 	"/>
	<polygon points="198.8,189.8 189.3,185.6 198,165.6 195.1,164.4 185.3,186.8 197.8,192.2 	"/>
	<polygon points="196.5,175.6 206.1,179.7 197.4,199.7 200.3,201 210,178.6 197.5,173.1 	"/>
	<polygon points="205.6,195.6 218.1,201 219.1,198.6 209.5,194.4 218.2,174.5 215.3,173.2 	"/>
	<polygon points="216.8,184.4 226.3,188.5 217.6,208.5 220.5,209.8 230.3,187.4 217.8,181.9 	"/>
	<polygon points="239.3,207.4 229.7,203.2 238.4,183.2 235.5,182 225.8,204.4 238.2,209.8 	"/>
	<polygon points="236.9,193.1 244.3,196.3 244.3,193.4 238,190.7 	"/>
	<polygon points="244.3,210.3 244.3,202.4 237.8,217.3 240.7,218.6 	"/>
	<polygon points="182.1,162.3 185,163.6 186.3,160.6 182.8,160.6 	"/>
	<polygon points="204.3,161.4 202.4,160.6 195.8,160.6 203.2,163.9 	"/>
	<polygon points="207.5,160.6 202.8,171.3 205.7,172.6 211,160.6 	"/>
	<polygon points="223.5,172.7 224.6,170.2 215,166.1 217.4,160.6 213.9,160.6 211,167.2 	"/>
	<polygon points="226,181.4 235,160.6 231.6,160.6 223.1,180.2 	"/>
	<polygon points="243.7,181.4 244.3,180 244.3,178.8 235.2,174.9 241.4,160.6 237.9,160.6 231.2,176 	"/>
	<polygon points="243.3,188.9 244.3,189.3 244.3,186.6 	"/>
	<polygon points="244.3,162.7 243.4,162.3 242.4,164.8 244.3,165.6 	"/>
</g>
</svg>
