<?xml version="1.0" encoding="utf-8"?>
<!-- Generator: Adobe Illustrator 25.3.0, SVG Export Plug-In . SVG Version: 6.00 Build 0)  -->
<svg version="1.1" id="Layer_1" xmlns="http://www.w3.org/2000/svg" xmlns:xlink="http://www.w3.org/1999/xlink" x="0px" y="0px"
	 viewBox="0 0 750.2 400.1" style="enable-background:new 0 0 750.2 400.1;" xml:space="preserve">
<g>
	<polygon points="125.6,220 126,219.1 125.6,218.9 	"/>
	<polygon points="125.6,205.6 133.3,209 127.6,222.2 131,222.2 137.2,207.8 125.6,202.8 	"/>
	<polygon points="137.3,222.2 145.3,203.7 142.4,202.4 133.9,222.2 	"/>
	<polygon points="144.9,211.2 143.9,213.6 153.4,217.8 151.5,222.2 155,222.2 157.4,216.6 	"/>
	<polygon points="162.7,211.3 158,222.2 161.4,222.2 165.6,212.5 	"/>
	<polygon points="164.2,222.2 170.3,222.2 165.2,220 	"/>
	<polygon points="186.3,221.5 183.4,220.3 182.6,222.2 186,222.2 	"/>
	<polygon points="130.9,166.9 128,165.6 125.6,171.2 125.6,179.1 	"/>
	<polygon points="131.8,191.1 125.6,188.4 125.6,191.2 130.8,193.5 	"/>
	<polygon points="129.5,176.9 139.1,181.1 130.4,201 133.3,202.3 143,179.9 130.5,174.5 	"/>
	<polygon points="151,202.3 152,199.9 142.4,195.7 151.1,175.8 148.2,174.5 138.5,196.9 	"/>
	<polygon points="149.7,185.7 159.2,189.8 150.5,209.8 153.4,211.1 163.2,188.7 150.7,183.2 	"/>
	<polygon points="158.8,205.7 171.2,211.1 172.3,208.7 162.7,204.6 171.4,184.6 168.5,183.3 	"/>
	<polygon points="169.9,194.5 179.5,198.6 170.8,218.6 173.7,219.9 183.5,197.5 171,192.1 	"/>
	<polygon points="192.1,193.6 189.2,192.3 179.5,214.7 191.9,220.2 193,217.7 183.4,213.6 	"/>
	<polygon points="191.7,201.1 190.6,203.5 200.2,207.7 193.9,222.2 197.3,222.2 204.2,206.5 	"/>
	<polygon points="212.4,202.4 209.5,201.1 200.3,222.2 203.8,222.2 	"/>
	<polygon points="212,209.9 210.9,212.3 220.5,216.5 218,222.2 221.4,222.2 224.4,215.3 	"/>
	<polygon points="227.8,222.2 232.6,211.2 229.7,209.9 224.3,222.2 	"/>
	<polygon points="231.1,221.1 233.7,222.2 240.3,222.2 232.1,218.6 	"/>
	<polygon points="248.4,222.2 251.8,222.2 252.8,220 249.9,218.7 	"/>
	<polygon points="136.6,165.5 136.4,165.5 136.6,165.6 	"/>
	<polygon points="143,165.5 139.5,165.5 136.2,173.1 139.1,174.4 	"/>
	<polygon points="157.9,172 148.3,167.8 149.3,165.5 145.8,165.5 144.3,169 156.8,174.4 	"/>
	<polygon points="156.4,181.9 159.3,183.1 166.9,165.5 163.5,165.5 	"/>
	<polygon points="177.1,183.2 178.1,180.8 168.6,176.6 173.4,165.5 170,165.5 164.6,177.8 	"/>
	<polygon points="175.8,166.5 185.4,170.7 176.7,190.7 179.6,192 189.3,169.5 180,165.5 176.2,165.5 	"/>
	<polygon points="266.4,222.1 266.6,222.2 273.3,222.2 270.3,220.9 278.7,201.6 278.7,200.8 276.1,199.6 	"/>
	<polygon points="277.6,210.8 278.7,211.3 278.7,208.3 278.6,208.3 	"/>
	<polygon points="197.8,192.2 198.8,189.8 189.3,185.6 198,165.6 197.8,165.5 194.6,165.5 185.3,186.8 	"/>
	<polygon points="196.5,175.6 206.1,179.7 197.4,199.7 200.3,201 210,178.6 197.5,173.1 	"/>
	<polygon points="205.6,195.6 218.1,201 219.1,198.6 209.5,194.4 218.2,174.5 215.3,173.2 	"/>
	<polygon points="216.8,184.4 226.3,188.5 217.6,208.5 220.5,209.8 230.3,187.4 217.8,181.9 	"/>
	<polygon points="238.2,209.8 239.3,207.4 229.7,203.2 238.4,183.2 235.5,182 225.8,204.4 	"/>
	<polygon points="238,190.7 236.9,193.1 246.5,197.3 237.8,217.3 240.7,218.6 250.5,196.1 	"/>
	<polygon points="246,213.2 258.5,218.6 259.6,216.2 250,212 258.7,192 255.8,190.8 	"/>
	<polygon points="257.2,202 266.8,206.1 259.8,222.2 263.3,222.2 270.7,205 258.3,199.5 	"/>
	<polygon points="278.7,196.7 278.7,193.8 275.8,192.5 278.7,185.8 278.7,177.8 271.8,193.6 	"/>
	<polygon points="202.8,171.3 205.7,172.6 208.8,165.5 205.3,165.5 	"/>
	<polygon points="223.5,172.7 224.6,170.2 215,166.1 215.3,165.5 211.7,165.5 211,167.2 	"/>
	<polygon points="226,181.4 232.9,165.5 229.5,165.5 223.1,180.2 	"/>
	<polygon points="243.7,181.4 244.7,179 235.2,174.9 239.3,165.5 235.8,165.5 231.2,176 	"/>
	<polygon points="252,168.9 243.3,188.9 246.2,190.2 255.9,167.8 250.7,165.5 244,165.5 	"/>
	<polygon points="265,187.8 255.4,183.7 263.3,165.5 259.9,165.5 251.5,184.8 263.9,190.3 	"/>
	<polygon points="262.6,173.6 272.2,177.8 263.5,197.7 266.4,199 276.2,176.6 263.7,171.2 	"/>
	<polygon points="278.7,166.2 278.7,165.5 277.8,165.5 277.7,165.8 	"/>
	<polygon points="269.4,169.8 272.3,171.1 274.7,165.5 271.3,165.5 	"/>
</g>
</svg>
