<?xml version="1.0" encoding="utf-8"?>
<!-- Generator: Adobe Illustrator 25.3.0, SVG Export Plug-In . SVG Version: 6.00 Build 0)  -->
<svg version="1.1" id="Layer_1" xmlns="http://www.w3.org/2000/svg" xmlns:xlink="http://www.w3.org/1999/xlink" x="0px" y="0px"
	 viewBox="0 0 750.2 400.1" style="enable-background:new 0 0 750.2 400.1;" xml:space="preserve">
<g>
	<path d="M169.2,160.6h-3.9c13.2,24.7,26.2,50.7,39.4,75.6h3.9C195.3,211.4,182.3,185.5,169.2,160.6z"/>
	<path d="M159.9,162.3v7.4c11.7,21.6,23.2,44.3,34.7,66.6h3.9C185.6,211.6,172.9,186.2,159.9,162.3z"/>
	<path d="M159.9,181.4v7.2c8.3,15.5,16.5,31.6,24.8,47.5h3.8C179,217.8,169.5,199.3,159.9,181.4z"/>
	<path d="M159.9,200.7v7.1c5,9.4,9.9,18.9,14.8,28.4h3.7C172.3,224.3,166.1,212.3,159.9,200.7z"/>
	<path d="M159.9,219.8v7.2c1.6,3,3.2,6.1,4.8,9.2h3.8C165.6,230.7,162.8,225.2,159.9,219.8z"/>
	<path d="M244.3,174.7v-7.1c-1.3-2.3-2.6-4.6-4-6.9h-4C239,165.4,241.6,170.1,244.3,174.7z"/>
	<path d="M244.3,193.3v-7.2c-4.9-8.2-9.7-16.8-14.4-25.5h-3.9C232,171.9,238.1,182.8,244.3,193.3z"/>
	<path d="M244.3,212v-7.2c-8.4-14-16.5-28.9-24.7-44.2h-3.9C225.1,178.5,234.6,195.9,244.3,212z"/>
	<path d="M244.3,230.6v-7.2c-11.8-19.5-23.4-40.9-34.8-62.8h-3.9C218.3,185.1,231.1,209.1,244.3,230.6z"/>
	<path d="M236.5,236.2h4.3c-14.1-23.3-27.7-49.3-41.2-75.6h-3.8C209.2,186.7,222.6,212.7,236.5,236.2z"/>
	<path d="M225.7,236.2h4c-13.6-23.8-26.9-49.8-40.2-75.6h-3.8C199,186.2,212.2,212.2,225.7,236.2z"/>
	<path d="M179.6,160.6h-3.8c13.2,25.2,26.2,51.1,39.5,75.6h3.9C205.9,211.9,192.8,185.9,179.6,160.6z"/>
</g>
</svg>
