<?xml version="1.0" encoding="utf-8"?>
<!-- Generator: Adobe Illustrator 25.3.0, SVG Export Plug-In . SVG Version: 6.00 Build 0)  -->
<svg version="1.1" id="Layer_1" xmlns="http://www.w3.org/2000/svg" xmlns:xlink="http://www.w3.org/1999/xlink" x="0px" y="0px"
	 viewBox="0 0 750.2 400.1" style="enable-background:new 0 0 750.2 400.1;" xml:space="preserve">
<g>
	<path d="M230.8,138.4l63.6-0.1c0-0.1,0-0.1,0-0.2l-63.5-0.1l-120.9,0.2c0,0,0,0,0,0L230.8,138.4z"/>
	<path d="M230.8,128.6l62.3-0.1c0-0.1,0-0.1,0-0.2l-62.3-0.1l-119.6,0.2c0,0,0,0,0,0L230.8,128.6z"/>
	<path d="M230.8,118.8l61.9-0.1c0-0.1,0-0.1,0-0.2l-61.9-0.1l-119.2,0.2c0,0,0,0,0,0L230.8,118.8z"/>
	<path d="M230.8,109l61.5-0.1c0-0.1,0-0.1,0-0.2l-61.5-0.1L112,108.8c0,0,0,0,0,0L230.8,109z"/>
	<path d="M230.8,99.2l61-0.1c0-0.1,0-0.1,0-0.2l-61-0.1L112.5,99c0,0,0,0,0,0L230.8,99.2z"/>
	<path d="M230.8,89.1l-117.7,0.2c0,0,0,0,0,0l117.7,0.2l60.3-0.1c0-0.1,0-0.1,0-0.2L230.8,89.1z"/>
	<path d="M179.3,79.6c-0.1-0.1-0.3-0.1-0.4-0.2l-64.7,0.1c0,0,0,0,0,0L179.3,79.6z"/>
	<path d="M230.8,79.3l-5,0c-0.3,0.1-0.5,0.2-0.8,0.3l5.8,0l59.3-0.1c0-0.1,0-0.1,0-0.2L230.8,79.3z"/>
	<path d="M240.8,69.5c-0.1,0.1-0.2,0.2-0.3,0.3l48.1-0.1c0-0.1,0-0.1,0-0.2L240.8,69.5z"/>
	<path d="M165.6,69.8c-0.1-0.1-0.1-0.1-0.2-0.2l-49.6,0.1c0,0,0,0,0,0L165.6,69.8z"/>
	<path d="M155.8,60c0,0-0.1-0.1-0.1-0.1l-36.8,0c0,0,0,0,0,0.1L155.8,60z"/>
	<path d="M248.8,59.8c-0.1,0.1-0.1,0.2-0.2,0.3l36.9,0c0-0.1-0.1-0.1-0.1-0.2L248.8,59.8z"/>
	<path d="M251.5,50.3l4.8,0l-0.9-0.3l-3.8,0C251.5,50.1,251.5,50.2,251.5,50.3z"/>
	<path d="M153.6,50.2c0,0,0-0.1,0-0.1l-4,0l-0.4,0.1L153.6,50.2z"/>
	<polygon points="230.8,352 104.5,352.2 104.5,352.2 230.8,352.3 299.8,352.3 299.8,352.1 	"/>
	<polygon points="230.8,342.6 299.8,342.5 299.8,342.3 230.8,342.2 104.5,342.4 104.5,342.4 	"/>
	<polygon points="230.8,332.4 104.5,332.6 104.5,332.6 230.8,332.8 299.8,332.7 299.8,332.5 	"/>
	<polygon points="230.8,322.6 104.5,322.8 104.5,322.8 230.8,323 299.8,322.9 299.8,322.7 	"/>
	<polygon points="230.8,312.9 104.5,313 104.5,313 230.8,313.2 299.8,313.1 299.8,312.9 	"/>
	<polygon points="230.8,303.4 299.8,303.3 299.8,303.2 230.8,303.1 104.5,303.2 104.5,303.3 	"/>
	<polygon points="230.8,293.6 299.8,293.5 299.8,293.4 230.8,293.3 104.5,293.4 104.5,293.5 	"/>
	<polygon points="230.8,283.8 299.8,283.8 299.8,283.6 230.8,283.5 104.4,283.7 104.4,283.7 	"/>
	<polygon points="230.8,274.1 299.8,274 299.8,273.8 230.8,273.7 104.4,273.9 104.4,273.9 	"/>
	<polygon points="230.8,264.3 299.9,264.2 299.9,264 230.8,263.9 104.4,264.1 104.4,264.1 	"/>
	<polygon points="230.8,254.5 299.9,254.4 299.9,254.2 230.8,254.1 104.4,254.3 104.4,254.3 	"/>
	<polygon points="230.8,244.4 104.4,244.5 104.4,244.5 230.8,244.7 299.9,244.6 299.9,244.4 	"/>
	<polygon points="230.8,234.9 299.9,234.8 299.9,234.7 230.8,234.6 104.4,234.7 104.4,234.7 	"/>
	<polygon points="230.8,225.1 299.9,225 299.9,224.9 230.8,224.8 104.4,224.9 104.4,225 	"/>
	<polygon points="230.8,215.8 299.9,215.7 299.9,215.6 230.8,215.5 104.4,215.6 104.4,215.7 	"/>
	<polygon points="230.8,206 299.9,206 299.9,205.8 230.8,205.7 104.4,205.9 104.4,205.9 	"/>
	<polygon points="230.8,196.3 299.9,196.2 299.9,196 230.8,195.9 104.4,196.1 104.4,196.1 	"/>
	<polygon points="230.8,186.5 299.9,186.4 299.9,186.2 230.8,186.1 104.4,186.3 104.4,186.3 	"/>
	<polygon points="230.8,176.7 299.9,176.6 299.9,176.4 230.8,176.3 104.4,176.5 104.4,176.5 	"/>
	<polygon points="230.8,166.9 300,166.8 300,166.6 230.8,166.6 104.4,166.7 104.4,166.7 	"/>
	<polygon points="230.8,156.8 104.4,156.9 104.4,157 230.8,157.1 300,157 300,156.9 	"/>
	<path d="M230.8,147l-124.2,0.2c0,0,0,0,0,0l124.2,0.2l66.9-0.1c0-0.1-0.1-0.1-0.1-0.2L230.8,147z"/>
	<polygon points="176.1,142.6 177,143.4 230.8,143.5 246.5,143.5 245.4,142.5 230.8,142.5 	"/>
	<path d="M295.6,142.6l-13.7,0l0.9,0.8l13,0C295.7,143.1,295.7,142.9,295.6,142.6z"/>
	<path d="M131.3,143.2l11.2,0l-0.7-0.6l-10.6,0l-22.7,0.2c0,0.1,0,0.1-0.1,0.2L131.3,143.2z"/>
	<polygon points="234.9,133.7 233.7,132.7 230.8,132.7 164.5,132.9 165.3,133.5 230.8,133.7 	"/>
	<path d="M293.5,132.8l-23.3-0.1l1,0.8l22.5-0.1C293.6,133.3,293.5,133.1,293.5,132.8z"/>
	<path d="M130.8,133.4l-0.6-0.5l-19.5,0.1c0,0.1,0,0.1,0,0.2L130.8,133.4z"/>
	<path d="M119,123.6l-0.4-0.3l-7.2,0.1c0,0.1,0,0.1,0,0.2L119,123.6z"/>
	<polygon points="152.8,123.1 153.6,123.7 164.5,123.8 223.2,123.9 222,122.9 164.5,123.1 	"/>
	<path d="M292.9,123.1l-34.4-0.1l1,0.9l33.4-0.1C292.9,123.5,292.9,123.3,292.9,123.1z"/>
	<path d="M247.9,114.1l44.7-0.1c0-0.2,0-0.5,0-0.7l-45.8-0.1L247.9,114.1z"/>
	<polygon points="141.2,113.3 141.9,113.9 164.5,114 211.5,114.1 210.4,113.2 164.5,113.3 	"/>
	<polygon points="199.8,104.3 198.8,103.4 164.5,103.5 131.3,103.6 129.6,103.6 130.2,104.1 131.3,104.1 164.5,104.2 	"/>
	<path d="M292.1,103.5l-57-0.1l1.2,1l55.9-0.1C292.1,104,292.1,103.7,292.1,103.5z"/>
	<polygon points="131.3,94.3 164.5,94.4 188.1,94.5 187.2,93.7 164.5,93.7 131.3,93.8 118,93.9 118.4,94.2 	"/>
	<path d="M223.4,93.6l1.2,1l6.2,0l60.7-0.2c0-0.2,0-0.5,0-0.7l-60.6-0.2L223.4,93.6z"/>
	<path d="M131.3,84l-17.6,0.1c0,0.1,0,0.2,0,0.2l17.7,0.1l33.2,0.1l11.9,0l-0.9-0.7l-11.1,0L131.3,84z"/>
	<polygon points="211.8,83.8 212.9,84.7 230.8,84.8 282.2,84.6 281.3,83.9 230.8,83.8 	"/>
	<path d="M131.3,74.7l33.2,0.1l0.2,0l-0.8-0.7l-32.6,0.1l-16.4,0.1c0,0.1,0,0.2,0,0.3L131.3,74.7z"/>
	<path d="M233.9,75l36.7-0.1l-1-0.8L235.3,74C234.8,74.3,234.4,74.7,233.9,75z"/>
	<path d="M131.3,64.9L153,65l-0.7-0.6l-21,0.1l-14.4,0.1c0,0.1-0.1,0.2-0.1,0.3L131.3,64.9z"/>
	<path d="M245.1,65.2l13.9,0l-1-0.9l-12,0C245.6,64.5,245.3,64.9,245.1,65.2z"/>
	<polygon points="141.3,55.2 140.6,54.6 134.5,54.6 132.8,55.2 	"/>
	<path d="M186.9,357.2l-0.7-0.6l-15.8,0C176.2,356.8,181.8,357,186.9,357.2z"/>
	<path d="M230.8,356.4l-9.4,0l0.7,0.6c4.6-0.2,9.6-0.3,14.6-0.6L230.8,356.4z"/>
	<polygon points="131.3,346.9 105.5,347.1 105.7,347.2 131.3,347.4 164.5,347.5 175.4,347.5 174.6,346.8 164.5,346.8 	"/>
	<polygon points="209.8,346.7 210.9,347.6 230.8,347.7 280.2,347.5 279.3,346.8 230.8,346.7 	"/>
	<polygon points="104.5,337.3 104.5,337.4 131.3,337.6 163.7,337.7 162.9,337 131.3,337.1 	"/>
	<polygon points="198.2,337 199.2,337.8 230.8,337.9 268.6,337.8 267.6,337 230.8,336.9 	"/>
	<polygon points="299.8,327.3 297.2,327.3 292.4,327.2 293.2,327.9 297.2,327.9 299.8,327.9 	"/>
	<polygon points="131.3,327.8 152,327.9 151.3,327.3 131.3,327.3 104.5,327.5 104.5,327.6 	"/>
	<polygon points="257,328 255.9,327.1 230.8,327.1 186.6,327.2 187.5,328 230.8,328.1 	"/>
	<polygon points="131.3,318.1 140.3,318.1 139.7,317.5 131.3,317.6 104.5,317.8 104.5,317.9 	"/>
	<polygon points="174.9,317.4 175.8,318.2 230.8,318.3 245.4,318.3 244.2,317.3 230.8,317.3 	"/>
	<polygon points="299.8,318.1 299.8,317.5 297.2,317.5 280.7,317.4 281.6,318.2 297.2,318.1 	"/>
	<polygon points="233.7,308.5 232.5,307.5 230.8,307.5 164.5,307.7 163.3,307.7 164.1,308.4 164.5,308.4 230.8,308.5 	"/>
	<polygon points="299.8,308.4 299.8,307.7 297.2,307.7 269,307.6 270,308.4 297.2,308.4 	"/>
	<polygon points="128.6,308.3 128.1,307.8 104.5,308 104.5,308.1 	"/>
	<polygon points="151.7,297.9 152.4,298.5 164.5,298.6 222,298.7 220.9,297.8 164.5,297.9 	"/>
	<polygon points="116.9,298.4 116.5,298.1 104.5,298.2 104.5,298.3 	"/>
	<polygon points="299.8,298.6 299.8,297.9 297.2,297.9 257.3,297.8 258.4,298.7 297.2,298.6 	"/>
	<polygon points="245.6,288 246.7,288.9 297.2,288.8 299.8,288.8 299.8,288.1 297.2,288.1 	"/>
	<polygon points="105.1,288.5 105,288.4 104.5,288.4 104.5,288.5 	"/>
	<polygon points="140.1,288.2 140.7,288.7 164.5,288.8 210.3,288.9 209.3,288 164.5,288.1 	"/>
	<polygon points="198.6,279.1 197.6,278.2 164.5,278.3 131.3,278.4 128.4,278.4 129,278.9 131.3,278.9 164.5,279 	"/>
	<polygon points="299.8,279 299.8,278.3 297.2,278.3 233.9,278.2 235.1,279.2 297.2,279 	"/>
	<polygon points="222.2,268.4 223.4,269.4 230.8,269.4 292.7,269.2 291.8,268.5 230.8,268.4 	"/>
	<polygon points="131.3,269.1 164.5,269.2 186.9,269.3 186,268.5 164.5,268.5 131.3,268.6 116.9,268.7 117.2,269 	"/>
	<polygon points="131.3,258.8 105.3,259 105.5,259.1 131.3,259.3 164.5,259.4 175.2,259.5 174.4,258.7 164.5,258.8 	"/>
	<polygon points="210.6,258.6 211.7,259.6 230.8,259.6 281,259.5 280.1,258.7 230.8,258.6 	"/>
	<polygon points="199,248.9 200,249.7 230.8,249.8 269.4,249.7 268.4,248.9 230.8,248.8 	"/>
	<polygon points="104.4,249.3 104.4,249.4 131.3,249.6 163.5,249.6 162.7,249 131.3,249.1 	"/>
	<polygon points="131.3,239.8 151.8,239.8 151.1,239.2 131.3,239.3 104.4,239.5 104.4,239.6 	"/>
	<polygon points="299.9,239.2 297.2,239.2 291.2,239.2 292,239.9 297.2,239.9 299.9,239.9 	"/>
	<polygon points="257.8,240 256.7,239.1 230.8,239 187.4,239.1 188.3,239.9 230.8,240 	"/>
	<polygon points="299.9,230.1 299.9,229.4 297.2,229.4 279.5,229.3 280.4,230.1 297.2,230.1 	"/>
	<polygon points="131.3,230 140.1,230 139.5,229.5 131.3,229.5 104.4,229.7 104.4,229.8 	"/>
	<polygon points="246.1,230.2 245,229.3 230.8,229.2 175.7,229.4 176.6,230.1 230.8,230.2 	"/>
	<polygon points="299.9,220.8 299.9,220.1 297.2,220.1 268.4,220 269.4,220.8 297.2,220.8 	"/>
	<polygon points="235.1,220.9 233.9,219.9 230.8,219.9 164.7,220.1 165.5,220.8 230.8,220.9 	"/>
	<polygon points="129,220.7 128.5,220.2 104.4,220.4 104.4,220.5 	"/>
	<polygon points="223.4,211.1 222.3,210.2 164.5,210.3 153.1,210.3 153.8,211 164.5,211 	"/>
	<polygon points="299.9,211 299.9,210.3 297.2,210.3 256.7,210.2 257.7,211.1 297.2,211 	"/>
	<polygon points="117.2,210.8 116.9,210.5 104.4,210.6 104.4,210.7 	"/>
	<polygon points="299.9,201.2 299.9,200.5 297.2,200.5 245,200.4 246.1,201.3 297.2,201.2 	"/>
	<polygon points="211.7,201.3 210.6,200.4 164.5,200.5 141.4,200.6 142.1,201.1 164.5,201.2 	"/>
	<polygon points="105.5,200.9 105.3,200.8 104.4,200.8 104.4,200.9 	"/>
	<polygon points="200,191.5 199,190.7 164.5,190.7 131.3,190.8 129.8,190.8 130.4,191.3 131.3,191.3 164.5,191.4 	"/>
	<polygon points="299.9,191.4 299.9,190.7 297.2,190.7 233.3,190.6 234.5,191.6 297.2,191.4 	"/>
	<polygon points="292,181.6 291.2,180.9 230.8,180.8 221.6,180.8 222.8,181.8 230.8,181.8 	"/>
	<polygon points="131.3,181 118.2,181.1 118.6,181.4 131.3,181.5 164.5,181.6 188.3,181.7 187.4,180.9 164.5,181 	"/>
	<polygon points="280.4,171.9 279.5,171.1 230.8,171 210,171.1 211.1,172 230.8,172 	"/>
	<polygon points="131.3,171.3 106.7,171.4 106.8,171.6 131.3,171.8 164.5,171.8 176.6,171.9 175.7,171.1 164.5,171.2 	"/>
	<polygon points="164.5,162.1 164.9,162.1 164.1,161.4 131.3,161.5 104.4,161.7 104.4,161.8 131.3,162 	"/>
	<polygon points="198.4,161.3 199.4,162.2 230.8,162.2 268.8,162.1 267.8,161.3 230.8,161.2 	"/>
	<polygon points="292.6,151.6 293.4,152.3 297.2,152.3 300,152.3 300,151.6 297.2,151.6 	"/>
	<polygon points="131.3,152.2 153.2,152.2 152.5,151.6 131.3,151.7 104.4,151.9 104.4,152 	"/>
	<polygon points="186.7,151.5 187.7,152.3 230.8,152.4 257.2,152.4 256.1,151.5 230.8,151.4 	"/>
	<path d="M512.8,138.4l126.1-0.2c0,0,0,0,0,0L512.8,138l-60.5,0.1c0,0.1,0,0.1,0,0.2L512.8,138.4z"/>
	<path d="M512.8,128.6l124.9-0.2c0,0,0,0,0,0l-124.9-0.2l-59.4,0.1c0,0.1,0,0.1,0,0.2L512.8,128.6z"/>
	<path d="M512.8,118.8l124.6-0.2c0,0,0,0,0,0l-124.6-0.2l-59,0.1c0,0.1,0,0.1,0,0.2L512.8,118.8z"/>
	<path d="M512.8,108.7l-58.6,0.1c0,0.1,0,0.1,0,0.2l58.6,0.1l124.2-0.2c0,0,0,0,0,0L512.8,108.7z"/>
	<path d="M512.8,99.2l123.7-0.2c0,0,0,0,0,0l-123.7-0.2L454.8,99c0,0.1,0,0.1,0,0.2L512.8,99.2z"/>
	<path d="M512.8,89.4l123-0.2c0,0,0,0,0,0l-123-0.2l-57.3,0.1c0,0.1,0,0.1,0,0.2L512.8,89.4z"/>
	<path d="M512.8,79.7l121.9-0.2c0,0,0,0,0,0l-121.9-0.2l-56.2,0.1c0,0.1,0,0.1,0,0.2L512.8,79.7z"/>
	<path d="M512.8,69.9l120.3-0.2c0,0,0,0,0,0l-120.3-0.2l-54.5,0.1c0,0.1,0,0.1,0,0.2L512.8,69.9z"/>
	<path d="M512.8,60.1l116.9-0.1c0,0,0,0,0,0l-116.9-0.1l-50.6,0.1c0,0.1-0.1,0.1-0.1,0.2c0,0,0,0,0,0L512.8,60.1z"/>
	<polygon points="512.8,50.3 600.3,50.2 599.9,50.1 512.8,50 493.9,50 493,50.3 	"/>
	<path d="M525.5,371.6c0.8,0.1,1.6,0.2,2.5,0.3l31.6,0c0.6-0.1,1.1-0.1,1.7-0.2L525.5,371.6z"/>
	<path d="M512.8,361.8l-26.8,0c0.3,0.1,0.6,0.2,0.8,0.3l26,0L600,362c0.1,0,0.2-0.1,0.4-0.1L512.8,361.8z"/>
	<polygon points="512.8,352 447.7,352.1 447.7,352.3 512.8,352.3 643,352.2 643,352.2 	"/>
	<polygon points="512.8,342.2 447.7,342.3 447.7,342.5 512.8,342.6 643,342.4 643,342.4 	"/>
	<polygon points="512.8,332.4 447.7,332.5 447.7,332.7 512.8,332.8 643,332.6 643,332.6 	"/>
	<polygon points="512.8,322.6 447.7,322.7 447.7,322.9 512.8,323 643,322.8 643,322.8 	"/>
	<polygon points="512.8,312.9 447.7,312.9 447.7,313.1 512.8,313.2 643,313 643,313 	"/>
	<polygon points="512.8,303.1 447.7,303.2 447.7,303.3 512.8,303.4 643,303.2 643,303.2 	"/>
	<polygon points="512.8,293.3 447.7,293.4 447.7,293.5 512.8,293.6 643,293.5 643,293.5 	"/>
	<polygon points="643,283.7 512.8,283.5 447.7,283.6 447.7,283.8 512.8,283.8 643,283.7 	"/>
	<polygon points="512.8,273.7 447.6,273.8 447.6,274 512.8,274.1 643,273.9 643,273.9 	"/>
	<polygon points="512.8,263.9 447.6,264 447.6,264.2 512.8,264.3 643.1,264.1 643.1,264.1 	"/>
	<polygon points="512.8,254.1 447.6,254.2 447.6,254.4 512.8,254.5 643.1,254.3 643.1,254.3 	"/>
	<polygon points="512.8,244.7 643.1,244.5 643.1,244.5 512.8,244.4 447.6,244.4 447.6,244.6 	"/>
	<polygon points="512.8,234.9 643.1,234.7 643.1,234.7 512.8,234.6 447.6,234.7 447.6,234.8 	"/>
	<polygon points="512.8,225.1 643.1,225 643.1,225 512.8,224.8 447.6,224.9 447.6,225 	"/>
	<polygon points="512.8,215.5 447.6,215.6 447.6,215.7 512.8,215.8 643.1,215.7 643.1,215.7 	"/>
	<polygon points="512.8,205.7 447.6,205.8 447.6,206 512.8,206 643.1,205.9 643.1,205.9 	"/>
	<polygon points="512.8,195.9 447.6,196 447.6,196.2 512.8,196.3 643.1,196.1 643.1,196.1 	"/>
	<polygon points="512.8,186.1 447.6,186.2 447.6,186.4 512.8,186.5 643.1,186.3 643.1,186.3 	"/>
	<polygon points="512.8,176.3 447.6,176.4 447.6,176.6 512.8,176.7 643.1,176.5 643.1,176.5 	"/>
	<polygon points="512.8,166.6 447.6,166.6 447.6,166.8 512.8,166.9 643.2,166.7 643.2,166.7 	"/>
	<polygon points="512.8,156.8 447.6,156.9 447.6,157 512.8,157.1 643.2,156.9 643.2,156.9 	"/>
	<path d="M512.8,147.3l129-0.2c0,0,0,0,0,0l-129-0.2l-63.4,0.1c0,0.1-0.1,0.1-0.1,0.2L512.8,147.3z"/>
	<path d="M461.8,142.6l-10.6,0c-0.1,0.2-0.1,0.5-0.2,0.7l9.9,0L461.8,142.6z"/>
	<path d="M640.1,143C640.1,143,640.1,143,640.1,143l-27.7-0.3l-10.6,0l-0.7,0.6l11.2,0L640.1,143z"/>
	<polygon points="566.7,143.4 567.6,142.6 512.8,142.5 498.3,142.5 497.1,143.5 512.8,143.5 	"/>
	<path d="M473.5,132.8l-20.4,0.1c0,0.2-0.1,0.5-0.1,0.7l19.5,0.1L473.5,132.8z"/>
	<polygon points="578.4,133.5 579.2,132.9 512.8,132.7 510,132.7 508.8,133.7 512.8,133.7 	"/>
	<path d="M638.2,133.1l-24.7-0.2l-0.6,0.5l25.3-0.2C638.2,133.2,638.2,133.2,638.2,133.1z"/>
	<path d="M637.6,123.4l-12.6-0.1l-0.4,0.3l12.9-0.1C637.6,123.4,637.6,123.4,637.6,123.4z"/>
	<path d="M485.2,123l-31.5,0.1c0,0.2,0,0.5,0,0.7l30.5,0.1L485.2,123z"/>
	<polygon points="590.1,123.7 590.8,123.1 579.2,123.1 521.6,122.9 520.5,123.9 579.2,123.8 	"/>
	<path d="M636.6,113.6l-0.2,0.1l0.8,0c0,0,0-0.1,0-0.1L636.6,113.6z"/>
	<polygon points="533.3,113.2 532.2,114.1 579.2,114 601.8,113.9 602.5,113.3 579.2,113.3 	"/>
	<path d="M454,114l41.8,0.1l1.1-0.9l-42.9,0.1C454,113.5,454,113.7,454,114z"/>
	<path d="M454.4,104.2l53,0.1l1.2-1l-54.1,0.1C454.5,103.7,454.5,104,454.4,104.2z"/>
	<polygon points="612.4,103.6 579.2,103.5 544.9,103.4 543.9,104.3 579.2,104.2 612.4,104.1 613.5,104.1 614.1,103.6 	"/>
	<polygon points="612.4,94.3 625.3,94.2 625.6,93.9 612.4,93.8 579.2,93.7 556.5,93.7 555.6,94.5 579.2,94.4 	"/>
	<path d="M455.1,93.7c0,0.2,0,0.5-0.1,0.7l57.8,0.1l6.2,0l1.2-1l-7.4,0L455.1,93.7z"/>
	<path d="M612.4,84.5l23-0.2c0-0.1,0-0.1,0-0.2L612.4,84l-33.2-0.1l-11.1,0l-0.9,0.7l11.9,0L612.4,84.5z"/>
	<polygon points="530.8,84.7 531.9,83.8 512.8,83.8 462.4,83.9 461.5,84.6 512.8,84.8 	"/>
	<path d="M612.4,74.7l21.7-0.2c0-0.1,0-0.1,0-0.2l-21.6-0.2l-32.6-0.1l-0.8,0.7l0.2,0L612.4,74.7z"/>
	<polygon points="542.5,74.9 543.5,74 512.8,74 474.1,74.1 473.1,74.9 512.8,75 	"/>
	<path d="M631.9,64.8c0-0.1,0-0.1-0.1-0.2l-19.4-0.1l-21-0.1l-0.7,0.6l21.7-0.1L631.9,64.8z"/>
	<polygon points="554.2,65.1 555.1,64.3 512.8,64.2 485.8,64.3 484.7,65.1 512.8,65.2 	"/>
	<polygon points="616.7,55.1 615.2,54.7 612.4,54.7 603,54.6 602.4,55.2 612.4,55.2 	"/>
	<polygon points="565.9,55.3 566.8,54.5 512.8,54.4 497.5,54.4 496.4,55.4 512.8,55.4 	"/>
	<path d="M504.1,367.2l5.3,0l1.2-1l-10,0C501.7,366.6,502.9,366.9,504.1,367.2z"/>
	<path d="M579.2,366.4l-33.4-0.1l-1,0.9l34.4-0.1l4.1,0c0.8-0.2,1.6-0.4,2.3-0.7L579.2,366.4z"/>
	<path d="M521,357.4l1.2-1l-9.4,0l-43.9,0.1c0.9,0.3,1.9,0.5,2.9,0.8l41.1,0.1L521,357.4z"/>
	<path d="M612.4,356.7l-33.2-0.1l-21.7-0.1l-0.9,0.8l22.7-0.1l33.2-0.1l3.2,0c0.5-0.1,1.1-0.3,1.6-0.4L612.4,356.7z"/>
	<polygon points="612.4,346.9 579.2,346.8 569.1,346.8 568.2,347.5 579.2,347.5 612.4,347.4 638,347.2 638.1,347.1 	"/>
	<polygon points="532.7,347.6 533.8,346.7 512.8,346.7 464.3,346.8 463.4,347.5 512.8,347.7 	"/>
	<polygon points="612.4,337.1 580.7,337 579.9,337.7 612.4,337.6 643,337.4 643,337.4 	"/>
	<polygon points="544.4,337.8 545.5,337 512.8,336.9 476,337 475,337.8 512.8,337.9 	"/>
	<polygon points="556.1,328 557.1,327.2 512.8,327.1 487.7,327.1 486.7,328 512.8,328.1 	"/>
	<polygon points="447.7,327.9 450.4,327.9 451.3,327.2 447.7,327.3 	"/>
	<polygon points="612.4,327.3 592.4,327.3 591.6,327.9 612.4,327.8 643,327.6 643,327.6 	"/>
	<polygon points="612.4,317.6 604,317.5 603.3,318.1 612.4,318.1 643,317.8 643,317.8 	"/>
	<polygon points="447.7,318.2 462.1,318.2 463,317.4 447.7,317.5 	"/>
	<polygon points="567.8,318.2 568.7,317.4 512.8,317.3 499.4,317.3 498.3,318.3 512.8,318.3 	"/>
	<polygon points="512.8,308.5 579.2,308.4 579.5,308.4 580.4,307.7 579.2,307.7 512.8,307.5 511.1,307.5 509.9,308.5 	"/>
	<polygon points="447.7,308.4 473.7,308.4 474.7,307.6 447.7,307.7 	"/>
	<polygon points="615.6,307.8 615,308.3 643,308 643,308 	"/>
	<polygon points="591.3,298.5 592,297.9 579.2,297.9 522.8,297.8 521.6,298.7 579.2,298.6 	"/>
	<polygon points="627.1,298.1 626.8,298.4 643,298.3 643,298.2 	"/>
	<polygon points="447.7,298.6 485.3,298.7 486.4,297.8 447.7,297.9 	"/>
	<polygon points="447.7,288.8 496.9,288.9 498.1,288 447.7,288.1 	"/>
	<polygon points="603,288.7 603.6,288.2 579.2,288.1 534.4,288 533.3,288.9 579.2,288.8 	"/>
	<polygon points="638.7,288.4 638.6,288.5 643,288.5 643,288.4 	"/>
	<polygon points="509.8,278.2 447.6,278.3 447.6,279 508.6,279.2 	"/>
	<polygon points="612.4,278.4 579.2,278.3 546,278.2 545,279.1 579.2,279 612.4,278.9 614.7,278.9 615.2,278.4 	"/>
	<polygon points="520.2,269.4 521.4,268.4 512.8,268.4 451.8,268.5 451,269.2 512.8,269.4 	"/>
	<polygon points="612.4,268.6 579.2,268.5 557.7,268.5 556.7,269.3 579.2,269.2 612.4,269.1 626.4,269 626.8,268.7 	"/>
	<polygon points="463.5,258.7 462.6,259.5 512.8,259.6 531.9,259.6 533,258.6 512.8,258.6 	"/>
	<polygon points="612.4,258.8 579.2,258.8 569.3,258.7 568.4,259.5 579.2,259.4 612.4,259.3 638.2,259.1 638.3,259 	"/>
	<polygon points="612.4,249.1 580.9,249 580.1,249.6 612.4,249.6 643.1,249.3 643.1,249.3 	"/>
	<polygon points="543.7,249.7 544.7,248.9 512.8,248.8 475.2,248.9 474.3,249.7 512.8,249.8 	"/>
	<polygon points="612.4,239.3 592.6,239.2 591.8,239.8 612.4,239.8 643.1,239.5 643.1,239.5 	"/>
	<polygon points="555.4,239.9 556.3,239.1 512.8,239 486.9,239.1 485.9,240 512.8,240 	"/>
	<polygon points="452.5,239.2 447.6,239.2 447.6,239.9 451.6,239.9 	"/>
	<polygon points="643.1,229.8 643.1,229.7 612.4,229.5 604.2,229.5 603.5,230 612.4,230 	"/>
	<polygon points="464.2,229.3 447.6,229.4 447.6,230.1 463.3,230.1 	"/>
	<polygon points="567.1,230.1 567.9,229.4 512.8,229.2 498.6,229.3 497.5,230.2 512.8,230.2 	"/>
	<polygon points="475.3,220 447.6,220.1 447.6,220.8 474.3,220.8 	"/>
	<polygon points="643.1,220.4 615.2,220.2 614.7,220.7 643.1,220.5 	"/>
	<polygon points="578.2,220.8 579,220.1 512.8,219.9 509.8,219.9 508.6,220.9 512.8,220.9 	"/>
	<polygon points="447.6,211 485.9,211.1 487,210.2 447.6,210.3 	"/>
	<polygon points="521.4,210.2 520.2,211.1 579.2,211 589.9,211 590.6,210.3 579.2,210.3 	"/>
	<polygon points="626.8,210.5 626.4,210.8 643.1,210.7 643.1,210.6 	"/>
	<polygon points="643.1,200.9 643.1,200.8 638.3,200.8 638.2,200.9 	"/>
	<polygon points="533,200.4 531.9,201.3 579.2,201.2 601.6,201.1 602.2,200.6 579.2,200.5 	"/>
	<polygon points="447.6,201.2 497.6,201.3 498.7,200.4 447.6,200.5 	"/>
	<polygon points="447.6,191.4 509.2,191.6 510.4,190.6 447.6,190.7 	"/>
	<polygon points="612.4,190.8 579.2,190.7 544.7,190.7 543.6,191.5 579.2,191.4 612.4,191.3 613.3,191.3 613.9,190.8 	"/>
	<polygon points="452.5,180.9 451.6,181.6 512.8,181.8 520.9,181.8 522,180.8 512.8,180.8 	"/>
	<polygon points="612.4,181.5 625.1,181.4 625.4,181.1 612.4,181 579.2,181 556.3,180.9 555.3,181.7 579.2,181.6 	"/>
	<polygon points="464.2,171.1 463.2,171.9 512.8,172 532.6,172 533.7,171.1 512.8,171 	"/>
	<polygon points="612.4,171.8 636.8,171.6 637,171.4 612.4,171.3 579.2,171.2 567.9,171.1 567,171.9 579.2,171.8 	"/>
	<polygon points="643.2,161.7 612.4,161.5 579.6,161.4 578.7,162.1 579.2,162.1 612.4,162 643.2,161.7 	"/>
	<polygon points="544.3,162.2 545.3,161.3 512.8,161.2 475.9,161.3 474.9,162.1 512.8,162.2 	"/>
	<polygon points="487.6,151.5 486.5,152.4 512.8,152.4 556,152.3 556.9,151.5 512.8,151.4 	"/>
	<polygon points="612.4,151.7 591.2,151.6 590.4,152.2 612.4,152.2 643.2,152 643.2,151.9 	"/>
	<polygon points="447.6,152.3 450.3,152.3 451.1,151.6 447.6,151.6 	"/>
</g>
</svg>
