<?xml version="1.0" encoding="utf-8"?>
<!-- Generator: Adobe Illustrator 25.3.0, SVG Export Plug-In . SVG Version: 6.00 Build 0)  -->
<svg version="1.1" id="Layer_1" xmlns="http://www.w3.org/2000/svg" xmlns:xlink="http://www.w3.org/1999/xlink" x="0px" y="0px"
	 viewBox="0 0 750.2 400.1" style="enable-background:new 0 0 750.2 400.1;" xml:space="preserve">
<g>
	<polygon points="201.3,102 201.3,101.2 200.3,100.9 130.8,82.2 198.5,102.8 197.3,154.7 197.2,156.1 198.8,156.7 299.9,194.2 
		299.9,186.8 202.5,153.2 	"/>
	<path d="M207.8,96.4l1.2,51.1l0,0.8l0.9,0.3l81.9,26.7l-79.9-28.5l1.2-51.9l0-1.5l-1.7-0.6l-93.8-29.9c-0.6,1.5-1.1,3.4-1.6,5.8
		c-0.1,0.4-0.2,0.8-0.3,1.3L207.8,96.4z"/>
	<path d="M149.1,214.8l1.6,0.6l149.1,54.3l0-7.9L154.4,212l-1.2-51.2l0-0.8l-0.9-0.2l-45.8-12.3c-0.2,0.3-0.3,0.5-0.5,0.7l44.4,13.5
		l-1.2,51.9L149.1,214.8z"/>
	<path d="M159.7,155.2l1.2,51.1l0,0.8l0.9,0.3L273.4,244l-109.6-38.5l1.2-51.9l0-1.5l-1.7-0.6l-52.7-16.8c-0.3,2.3-0.8,4.2-1.2,5.9
		L159.7,155.2z"/>
	<path d="M261.3,83.4l-0.7-31.8l-3.7-1.1l-0.8,34.4l0,1.4l1.6,0.6l34.1,12.7c-0.1-1.9-0.2-3.8-0.4-5.7L261.3,83.4z"/>
	<path d="M267.9,78.5l0.9,0.3l22.1,7.2c-0.1-0.7-0.1-1.3-0.2-1.9l-19.9-7.1l0.5-22.1l-3.9-1.2l0.5,24.1L267.9,78.5z"/>
	<polygon points="299.8,338.3 105.4,269.3 104.4,228.4 104.4,273.7 299.8,346.1 	"/>
	<polygon points="116,209.4 114.2,208.8 104.4,205.7 104.4,210.6 110.7,212.4 111.9,263.5 111.9,264.3 112.7,264.6 287.4,325.6 
		114.8,262.8 115.9,210.9 	"/>
	<path d="M139.2,355.1l-34.7-12.3l0,5.5l15.7,5.8C125.6,354.4,132.2,354.8,139.2,355.1z"/>
	<path d="M104.5,333.3l0,2l60.2,21.1c1.1,0,2.3,0.1,3.4,0.1L104.5,333.3z"/>
	<path d="M227.6,130.2l-1.2-51.1c-0.9,0.4-1.9,0.8-2.8,1.1l-1.2,51.5l0,1.4l1.6,0.6l76,28.2l0-6.7L227.6,130.2z"/>
	<path d="M238.1,71.8c-1.7,1.4-3.4,2.6-5.2,3.7l1.1,48.9l0,0.8l0.9,0.3l61.9,20.2c0-0.1-0.1-0.2-0.1-0.3c-0.1-0.2-0.2-0.3-0.2-0.5
		L237,123.7L238.1,71.8z"/>
	<path d="M150.5,49.8l3.1,0.9c0-0.7-0.1-1.4,0-1.8L150.5,49.8z"/>
	<path d="M178.3,137.8l0-0.8l-0.9-0.2L111.6,119c0,0,0,0.1,0,0.1l63.9,19.5l-1.2,51.9l0,1.4l1.6,0.6l124,45.2l0-7.4L179.5,189
		L178.3,137.8z"/>
	<path d="M184.8,132.1l1.2,51.1l0,0.8l0.9,0.3L298.5,221l-109.6-38.5l1.2-51.9l0-1.5l-1.7-0.6l-76.1-24.2c-0.1,2.3-0.2,4.6-0.3,6.9
		L184.8,132.1z"/>
	<polygon points="130.5,246.3 129.3,195 129.3,194.2 128.3,193.9 104.4,187.5 104.4,189.1 126.5,195.8 125.3,247.7 125.2,249.1 
		126.8,249.6 299.8,313.8 299.8,306.4 	"/>
	<polygon points="135.8,189.4 137,240.5 137,241.3 137.8,241.6 299.8,298.2 299.8,298 139.9,239.8 141,187.9 141.1,186.4 
		139.3,185.8 104.4,174.7 104.4,180.4 	"/>
	<path d="M104.5,310.9l0,5.1l111.1,41.2c5.4-0.1,11.4-0.4,17.6-0.6L104.5,310.9z"/>
	<path d="M104.5,303.5l149.2,52.2c0.1,0,0.2,0,0.3,0l-149.6-54.5L104.5,303.5z"/>
	<polygon points="543.8,100.9 542.9,101.2 542.8,102 541.6,153.2 447.6,185.6 447.6,192.9 545.3,156.7 546.9,156.1 546.8,154.7 
		545.6,102.8 613.3,82.2 	"/>
	<path d="M532.8,92.8l-1.7,0.6l0,1.5l1.2,51.9l-79.9,28.5l81.9-26.7l0.9-0.3l0-0.8l1.2-51.1l96.6-27.7c-0.6-2.8-1.4-5.2-2.3-7
		L532.8,92.8z"/>
	<path d="M641.4,146.3l-49.5,13.4L591,160l0,0.8l-1.2,51.2l-142.1,48.6l0,7.9l145.7-53l1.6-0.6l0-1.4l-1.2-51.9l48-14.6
		C641.6,146.8,641.5,146.6,641.4,146.3z"/>
	<path d="M580.9,151.6l-1.7,0.6l0,1.5l1.2,51.9L470.8,244l111.6-36.6l0.9-0.3l0-0.8l1.2-51.1l54.8-15.7c-0.4-1.8-0.7-3.8-1-6.1
		L580.9,151.6z"/>
	<path d="M488,86.2l0-1.4L487.2,52l-3.7,1.1l-0.7,30.3l-27.6,9.5c-0.2,1.9-0.3,3.8-0.4,5.7l31.6-11.7L488,86.2z"/>
	<path d="M473.4,76.9l-17.2,6.2c-0.1,0.7-0.2,1.4-0.2,2l19.5-6.3l0.9-0.3l0-0.8l0.5-22.5l-3.9,1.2L473.4,76.9z"/>
	<polygon points="642.4,272.7 643,272.4 643.1,233.9 642.7,218.8 643.1,218.7 643.1,216.3 640.9,216.9 639.9,217.2 639.9,218 
		638.7,269.3 447.7,337.1 447.7,344.9 	"/>
	<polygon points="631.4,264.6 632.2,264.3 632.2,263.5 633.4,212.4 643.1,209.6 643.1,204.6 629.9,208.8 628.1,209.4 628.2,210.9 
		629.4,262.8 456.8,325.6 	"/>
	<path d="M643,341.6l-85.9,30.5c14-1.4,26.3-4.9,37.4-8.4c7.7-2.4,14.8-4.9,21.6-6.7l26.9-10L643,341.6z"/>
	<path d="M643,334.1l0-2l-110.5,40.2c0.3,0,0.6,0,0.9,0.1L643,334.1z"/>
	<polygon points="520.2,133.6 521.8,133.1 521.8,131.7 520.5,79.8 588.2,59.2 518.7,77.9 517.8,78.2 517.7,79 516.5,130.2 
		447.6,153.9 447.6,160.6 	"/>
	<path d="M506,70.4l0,1.5l1.2,51.9l-56.3,20.1c-0.1,0.3-0.2,0.6-0.3,0.8l58.6-19.1l0.9-0.3l0-0.8l1.2-51.1L596.3,49l-2.5-0.8l0,0
		l-0.3-0.1c0,0-1.5-0.1-4.2-0.2c-2.7-0.2-6.3-0.3-10.9-0.6c0,0-0.1,0-0.1,0l-70.6,22.5L506,70.4z"/>
	<polygon points="569.9,191.8 569.9,190.4 568.7,138.6 636.3,117.9 566.8,136.7 565.9,136.9 565.8,137.8 564.7,189 447.6,229 
		447.6,236.3 568.3,192.4 	"/>
	<path d="M555.8,128.6l-1.7,0.6l0,1.5l1.2,51.9l-107.6,37.8v0l109.6-36l0.9-0.3l0-0.8l1.2-51.1l77.8-22.3c-0.1-2.3-0.2-4.7-0.3-7.1
		L555.8,128.6z"/>
	<polygon points="617.3,249.6 618.9,249.1 618.8,247.7 617.6,195.8 643.1,188 643.1,186.6 615.8,193.9 614.8,194.2 614.8,195 
		613.6,246.3 447.7,305.2 447.7,312.6 	"/>
	<polygon points="607.1,241.3 607.1,240.5 608.3,189.4 643.1,179.4 643.1,173.6 604.8,185.8 603.1,186.4 603.1,187.9 604.3,239.8 
		447.7,296.8 447.7,297 606.3,241.6 	"/>
	<path d="M643,309.7l-151.6,53.8c0.3,0.1,0.6,0.2,0.9,0.3c3.3,1,6.8,2,10.3,3L643,314.8L643,309.7z"/>
	<polygon points="643,302.3 643,299.9 480.6,359.1 	"/>
</g>
</svg>
