<?xml version="1.0" encoding="utf-8"?>
<!-- Generator: Adobe Illustrator 25.3.0, SVG Export Plug-In . SVG Version: 6.00 Build 0)  -->
<svg version="1.1" id="Layer_1" xmlns="http://www.w3.org/2000/svg" xmlns:xlink="http://www.w3.org/1999/xlink" x="0px" y="0px"
	 viewBox="0 0 750.2 400.1" style="enable-background:new 0 0 750.2 400.1;" xml:space="preserve">
<g>
	<polygon points="197,244.4 197,217.9 196.8,217.9 196.8,217.9 196.8,217.8 174.5,244.5 163.4,244.5 196.9,284.7 196.9,244.4 	"/>
	<path d="M107.6,302.3L107.6,302.3l-3.1,3.6l0,33l12.5,15c3.7,0.2,8,0.4,12.7,0.7V329h-22.1V302.3z"/>
	<path d="M141.3,355.3c0.5,0,0.9,0,1.4,0.1c6.7,0.3,13.7,0.7,20.6,1V329h-0.1L141.3,355.3z"/>
	<path d="M196.8,302.3L196.8,302.3L174.5,329h-11.1l23.5,28.2c3.6,0.1,7,0.2,10,0.2v-28.5h0.1v-26.5H196.8L196.8,302.3z"/>
	<path d="M276.3,354.5c9.3-0.5,16.8-0.9,20.8-1.2c0.2,0,0.4,0,0.5,0V329h-0.1L276.3,354.5z"/>
	<polygon points="166.8,302.3 166.8,284.7 166.5,284.7 151.9,302.3 152.1,302.3 129.9,329 152.2,329 152.2,302.3 152.3,302.3 
		174.5,329 174.5,302.3 	"/>
	<polygon points="107.3,284.7 122,302.3 122,284.7 	"/>
	<polygon points="136.9,302.3 136.9,284.7 137.2,284.7 151.9,302.3 151.9,284.7 163.3,284.7 163.3,244.5 163.2,244.5 129.7,284.7 
		136.7,284.7 122,302.3 107.7,302.3 129.9,329 129.9,302.3 	"/>
	<polygon points="167,284.7 181.7,302.3 181.7,284.7 	"/>
	<polygon points="196.6,302.2 196.8,302.2 196.8,284.7 196.6,284.7 196.4,284.7 181.7,302.3 196.6,302.3 	"/>
	<polygon points="107.6,244.5 107.6,217.9 107.5,217.9 104.4,221.5 104.4,254.4 129.7,284.7 129.7,244.5 	"/>
	<path d="M271.4,302.3v-17.6h14.7L271.4,302.3h14.7L263.9,329h-22.3v-26.6h0.1l22.2,26.6v-26.6h-7.4v-17.6h-0.2l-14.7,17.6h0
		L219.3,329h11.1l-23.7,28.4c6.7-0.1,14.9-0.3,23.8-0.7V329h0.1l22.3,26.7c3.8-0.2,7.6-0.4,11.2-0.6V329h22.1v-26.6h0.1l13.5,16.2
		l0-16.3h-13.5v-17.5h11.4v-40.2h-0.1l-33.5,40.2h-7.4L271.4,302.3z"/>
	<polygon points="286.3,200 271.4,217.9 286.1,217.9 263.9,244.5 241.6,244.5 241.6,217.9 241.7,217.9 263.9,244.5 263.9,217.9 
		256.5,217.9 256.5,200 241.5,217.9 241.5,217.9 219.3,244.5 230.4,244.5 196.9,284.7 197,284.7 211.7,302.3 211.7,284.7 
		226.4,284.7 211.7,302.3 197.1,302.3 219.3,329 219.3,302.3 226.6,302.3 226.6,284.7 226.8,284.7 241.5,302.3 241.5,284.7 
		230.5,284.7 230.5,244.5 230.6,244.5 264.1,284.7 264.1,244.5 286.2,244.5 286.2,217.9 286.3,217.9 286.3,217.9 299.9,234.2 
		299.9,217.7 286.3,217.7 	"/>
	<polygon points="107.1,200 122,217.9 122,200 	"/>
	<polygon points="136.9,217.9 136.9,200 122,217.9 107.7,217.9 129.9,244.5 129.9,217.9 	"/>
	<polygon points="151.9,200 136.9,200 151.9,217.9 	"/>
	<polygon points="166.8,217.9 166.8,200 151.9,217.9 152.1,217.9 129.9,244.5 152.2,244.5 152.2,217.9 152.3,217.9 174.5,244.5 
		174.5,217.9 	"/>
	<polygon points="181.7,200 166.8,200 181.7,217.9 	"/>
	<polygon points="196.6,217.7 196.6,200 181.7,217.9 196.6,217.9 	"/>
	<polygon points="196.8,200 211.7,217.9 211.7,200 	"/>
	<polygon points="226.6,217.9 226.6,200 211.7,217.9 197.1,217.9 219.3,244.5 219.3,217.9 	"/>
	<polygon points="241.5,200 226.6,200 241.5,217.9 	"/>
	<polygon points="271.4,200 256.5,200 271.4,217.9 	"/>
	<path d="M129.7,159.6h-22.1v-14.1c0,0,0,0,0,0c-1.3,2.6-2.6,3.6-3.2,4l0,20l25.3,30.3V159.6z"/>
	<polygon points="163.3,159.6 163.2,159.6 129.7,199.8 163.3,199.8 	"/>
	<polygon points="196.9,199.8 196.9,159.5 197,159.5 197,132.9 196.8,132.9 196.8,132.9 196.8,132.9 174.5,159.6 163.4,159.6 	"/>
	<polygon points="297.7,159.6 297.6,159.6 264.1,199.8 297.7,199.8 	"/>
	<polygon points="129.9,159.6 152.2,159.6 152.2,132.9 152.3,132.9 174.5,159.6 174.5,132.9 166.8,132.9 166.8,115.3 166.5,115.3 
		151.9,132.9 152.1,132.9 	"/>
	<path d="M111.7,115.3c-0.1,1.7-0.1,3.4-0.2,5l10.5,12.6v-17.6H111.7z"/>
	<path d="M136.7,115.3L122,132.9h-11.2c-0.1,1.1-0.3,2.2-0.5,3.2l19.6,23.5v-26.6h7.1v-17.6h0.2l14.7,17.6v-17.6h11.4V75.1h-0.1
		l-33.5,40.2H136.7z"/>
	<polygon points="167,115.3 181.7,132.9 181.7,115.3 	"/>
	<polygon points="196.6,132.8 196.8,132.8 196.8,115.3 196.6,115.3 196.4,115.3 181.7,132.9 196.6,132.9 	"/>
	<path d="M114.8,75.1c-0.5,3.5-1,7.3-1.3,11.2c-0.3,2.8-0.5,5.7-0.7,8.7l17,20.3V75.1H114.8z"/>
	<path d="M191.9,83.7L191.9,83.7l-0.5,0c0,0-7.3-1.4-13.9-5.1c-1.6-0.9-3.4-2.1-5.3-3.5h-8.8l33.5,40.2V84.6
		C195.2,84.4,193.5,84.1,191.9,83.7z"/>
	<path d="M230.5,159.6L230.5,159.6l33.6,40.2v-40.2h22.1v-26.6h0.1v0l10.4,12.5c-1.2-2.5-2.5-6.4-3.2-12.6h-7.2v-17.5h6.3
		c-0.4-10.1-0.9-21.6-2-31.8l-26.5,31.8h-7.4l14.7,17.6v-17.6h14.7l-14.7,17.6h14.7l-22.2,26.6h-22.3v-26.6h0.1l22.2,26.6v-26.6
		h-7.4v-17.6h-0.2l-14.7,17.6h0l-22.2,26.6H230.5l-33.6,40.2h33.6V159.6z"/>
	<path d="M129.9,56.1l-10.6,3.2c-0.4,0.6-0.7,1.2-1.1,1.9l11.6,14V56.1z"/>
	<path d="M153.7,48.8l-0.9,0.3l0.8,1C153.6,49.6,153.6,49.2,153.7,48.8z"/>
	<polygon points="152.2,49.3 151.2,49.6 129.9,75.1 152.2,75.1 	"/>
	<path d="M286.2,75.1V61.4c-0.4-0.9-0.9-1.7-1.3-2.5l-5.9-1.8l-15,18h-22.3v-6.3c-3.1,3-6.7,5.6-10,7.6l32.4,38.9V75.1H286.2z"/>
	<path d="M226.6,132.9v-17.6h0.2l14.7,17.6v-17.6h-11V77.1c-1,0.6-2,1.1-3,1.5l-30.6,36.7h0.1l14.7,17.6v-17.6h14.7l-14.7,17.6
		h-14.6l22.2,26.6v-26.6H226.6z"/>
	<path d="M251.5,48.8c0,0.2,0,0.5,0,0.8c0,2-0.4,5-1.9,8.4l14.3,17.1V52.6L251.5,48.8z"/>
	<path d="M634.1,311.4v27.5h-22.1v19.3c7.3-2.2,14.1-3.8,20.6-4.2c0.3,0,0.5,0,0.7,0l9.7-12l0-19.6L634.1,311.4L634.1,311.4z"/>
	<path d="M578.3,338.9v29.4c5.7-1.4,11.1-3,16.2-4.6c1.1-0.3,2.1-0.7,3.1-1L578.3,338.9L578.3,338.9z"/>
	<path d="M544.9,311.4L544.9,311.4h-0.2v27.4h0.1v34c0.2,0,0.3,0,0.5,0c2,0,3.9-0.1,5.9-0.2l27.2-33.7h-11.1L544.9,311.4
		L544.9,311.4z"/>
	<path d="M447.7,353.3c0.1,0,0.3,0.1,0.6,0.1c0.9,0.1,2.6,0.3,5.9,0.5c0.7,0,1.4,0.1,2.1,0.2l-8.5-10.6L447.7,353.3z"/>
	<polygon points="589.8,311.4 575.1,293.2 574.8,293.2 574.8,311.4 567.1,311.4 567.1,338.9 589.4,311.4 589.4,311.4 589.4,338.9 
		611.8,338.9 589.5,311.4 	"/>
	<polygon points="619.6,293.2 619.6,311.4 634.3,293.2 	"/>
	<polygon points="578.3,251.6 578.3,293.2 589.8,293.2 589.8,311.4 604.4,293.2 604.7,293.2 604.7,311.4 611.8,311.4 611.8,338.9 
		634,311.4 619.6,311.4 604.9,293.2 611.9,293.2 578.4,251.6 	"/>
	<polygon points="559.9,293.2 559.9,311.4 574.6,293.2 	"/>
	<polygon points="559.9,311.4 545.2,293.2 545,293.2 544.9,293.2 544.9,311.3 545,311.3 545,311.4 	"/>
	<polygon points="634.1,224.1 634.1,251.6 611.9,251.6 611.9,293.2 643.1,254.6 643.1,235.2 634.2,224.1 	"/>
	<polygon points="567.1,251.6 544.9,224 544.9,224.1 544.8,224.1 544.6,224.1 544.6,251.5 544.7,251.5 544.7,293.2 578.2,251.6 	"/>
	<path d="M500.1,311.4l-14.7-18.2h-0.2v18.2h-7.4v27.5l22.2-27.5H500.1l-0.1,27.5h-22.3l-22.2-27.5h14.7l-14.7-18.2h14.7v18.2
		l14.7-18.2h-7.4l-29.9-37.1l0,37.1h7.7v18.1h-7.7l0,9.6l7.7-9.5h0.1v27.5h22.1v20.2c4.3,1.4,8.9,2.9,13.7,4.4l19.8-24.6h0.1v30
		c8.5,1.9,17.6,3.4,27.4,3.8l-27.3-33.8h11.1L500.1,311.4L500.1,311.4z"/>
	<polygon points="544.7,293.2 511.2,251.6 522.3,251.6 500.1,224.1 500.1,224.1 485.2,205.6 485.2,224.1 477.7,224.1 477.7,251.6 
		499.9,224.1 500,224.1 500,251.6 477.7,251.6 455.5,224.1 470.3,224.1 455.3,205.6 455.3,224 447.6,224 447.6,233.7 455.3,224.1 
		455.3,224.1 455.4,224.1 455.4,251.6 477.5,251.6 477.5,293.2 511,251.6 511.1,251.6 511.1,293.2 500.1,293.2 500.1,311.4 
		514.8,293.2 515,293.2 515,311.4 522.3,311.4 522.3,338.9 544.6,311.4 529.9,311.4 515.3,293.2 529.9,293.2 529.9,311.4 
		544.6,293.2 	"/>
	<polygon points="619.6,205.6 619.6,224.1 634.5,205.6 	"/>
	<polygon points="611.8,224.1 611.8,251.6 634,224.1 619.6,224.1 604.7,205.6 604.7,224.1 	"/>
	<polygon points="589.8,205.6 589.8,224.1 604.7,205.6 	"/>
	<polygon points="589.4,224.1 589.4,251.6 611.8,251.6 589.5,224.1 589.8,224.1 574.8,205.6 574.8,224.1 567.1,224.1 567.1,251.6 
		589.4,224.1 	"/>
	<polygon points="559.9,224.1 574.8,205.6 559.9,205.6 	"/>
	<polygon points="545,224 545,224.1 559.9,224.1 545,205.6 	"/>
	<polygon points="529.9,205.6 529.9,224.1 544.9,205.6 	"/>
	<polygon points="522.3,224.1 522.3,251.6 544.6,224.1 529.9,224.1 515,205.6 515,224.1 	"/>
	<polygon points="500.1,205.6 500.1,224.1 515,205.6 	"/>
	<polygon points="470.3,205.6 470.3,224.1 485.2,205.6 	"/>
	<path d="M634.2,136.4L634.2,136.4l-0.1,27.5h-22.1v41.5l31.2-38.7l0-17.6c-0.8-0.9-1.7-2.5-2.6-4.9L634.2,136.4z"/>
	<polygon points="578.3,163.9 578.3,205.4 611.9,205.4 578.4,163.9 	"/>
	<polygon points="567.1,163.9 544.9,136.3 544.9,136.4 544.8,136.4 544.6,136.4 544.6,163.8 544.7,163.8 544.7,205.4 578.2,163.9 	
		"/>
	<polygon points="447.6,168.3 447.6,205.4 477.5,205.4 	"/>
	<polygon points="589.4,136.4 589.4,163.9 611.8,163.9 589.5,136.4 589.8,136.4 575.1,118.2 574.8,118.2 574.8,136.4 567.1,136.4 
		567.1,163.9 589.4,136.4 	"/>
	<polygon points="619.6,118.2 619.6,136.4 634.3,118.2 	"/>
	<polygon points="604.7,118.2 604.7,136.4 611.8,136.4 611.8,163.9 634,136.4 619.6,136.4 604.9,118.2 611.9,118.2 578.4,76.6 
		578.3,76.6 578.3,118.2 589.8,118.2 589.8,136.4 604.4,118.2 	"/>
	<polygon points="559.9,118.2 559.9,136.4 574.6,118.2 	"/>
	<polygon points="559.9,136.4 545.2,118.2 545,118.2 544.9,118.2 544.9,136.2 545,136.2 545,136.4 	"/>
	<path d="M634.1,74.6v2h-22.1v41.5l23.8-29.5C635.3,83.6,634.8,78.9,634.1,74.6z"/>
	<polygon points="567.1,76.6 544.9,49 544.9,49.1 544.8,49.1 544.6,49.1 544.6,76.5 544.7,76.5 544.7,118.2 578.2,76.6 	"/>
	<path d="M511.1,163.9v41.5h33.6L511.1,163.9h11.2l-22.2-27.5h0l-14.7-18.2h-0.2v18.2h-7.4v27.5l22.2-27.5h0.1v27.5h-22.3
		l-22.2-27.5h14.7l-14.7-18.2h14.7v18.2l14.7-18.2h-7.4l-22.2-27.5c-0.8,9.2-1.2,18.9-1.6,27.5h1.5v18.1h-2.7
		c-0.3,1.7-0.6,3.2-0.9,4.6l3.6-4.4v0h0.1v27.5h22.1v41.5L511.1,163.9L511.1,163.9z"/>
	<polygon points="611.8,53.6 611.8,76.6 626.7,58.1 	"/>
	<path d="M589.8,47.9v1.1l0.9-1.1C590.4,48,590.1,48,589.8,47.9z"/>
	<path d="M589.4,49.1v27.5h22.3L589.4,49.1h0.3l-1-1.2c-2.6-0.2-6.1-0.3-10.4-0.5c-1.1-0.1-2.3-0.1-3.5-0.2v1.9h-7.7v27.5
		L589.4,49.1L589.4,49.1z"/>
	<path d="M559.9,46.6v2.5l1.9-2.4C561.2,46.7,560.6,46.6,559.9,46.6z"/>
	<path d="M557.9,46.6c-4.2-0.1-8.6-0.2-12.9-0.2V49v0.1h14.9L557.9,46.6z"/>
	<path d="M529.9,46.7v2.4l2-2.5C531.3,46.6,530.6,46.6,529.9,46.7z"/>
	<path d="M529.9,49.1l-1.9-2.4c-4.7,0.2-9.1,0.4-13,0.6v1.8h7.3v27.5l22.2-27.5H529.9z"/>
	<polygon points="500.1,48.3 500.1,49.1 500.8,48.2 	"/>
	<path d="M511.1,76.6v41.5h-11v18.2l14.7-18.2h0.2v18.2h7.3v27.5l22.2-27.5h-14.6l-14.7-18.2h14.7v18.2l14.7-18.2h0.1L511.1,76.6
		h11.2l-22.2-27.5h0l-0.6-0.7l-0.2,0l-21.6,6.5v21.8l22.2-27.5h0.1v27.5h-22.3l-14.1-17.5l-1.2,0.4c-0.1,0.2-0.2,0.4-0.3,0.5
		c-2.3,3-3.9,9.1-5.1,16.6h20.5v41.5L511.1,76.6L511.1,76.6z"/>
	<path d="M458.7,64.9l-14.5,10.9V76h11.9C456.8,71.7,457.7,67.9,458.7,64.9z"/>
	<path d="M461,59.9l-4,1.2h3.3C460.5,60.7,460.7,60.3,461,59.9z"/>
	<polygon points="444.2,65 419.6,72.5 444.2,72.5 	"/>
	<path d="M455,84.4l-10.8-8.1V91h10.1C454.5,88.7,454.8,86.5,455,84.4z"/>
	<path d="M444.2,105.9v0.1h9.2c0,0,0-0.1,0-0.1c0.1-2.5,0.3-5,0.4-7.5l-9.6,7.2V105.9z"/>
	<polygon points="399.7,78.6 399.7,83.7 386.5,93.7 389.2,106 389.2,106.2 399.6,106.2 399.6,106.1 444.2,106.1 405.4,76.9 	"/>
	<polygon points="384.1,83.4 384.2,83.7 399.7,83.7 394.9,80.1 	"/>
	<polygon points="394.2,128.5 399.7,128.5 393.1,123.6 	"/>
	<path d="M444.2,136.1v-0.2h7.5c0.3-1.9,0.5-4,0.7-6.4l-8.2,6.2v-14.7h8.5c0.1-2.6,0.2-5.3,0.3-8l-8.8-6.7v-0.1l-44.5,33.5v-11.1
		l-4.7,3.5l4.2,18.8h0.5v2.4l1,4.5l18.1-3.5l-19.1-14.4v-0.1h44.5v9.5l3-0.6c1-1.2,2.3-3.4,3.4-7.6L444.2,136.1z"/>
	<path d="M109.1,106.2h2c0-0.1,0-0.1,0-0.2c0-0.6,0.1-1.1,0.1-1.7L109,106h0.1v0V106.2z"/>
	<path d="M117.6,59.7l-5.8,1.8h5C117,60.8,117.3,60.2,117.6,59.7z"/>
	<path d="M89.6,76h19.5v7.7h3.6c0.6-5.6,1.3-10.8,2.2-15.2c0.2-0.8,0.3-1.5,0.5-2.2l-5.7-4.3l-3.2,1l-17,12.8V76z"/>
	<polygon points="89.6,68.1 75,72.5 89.6,72.5 	"/>
	<polygon points="89.6,91 109.1,91 89.6,76.3 	"/>
	<polygon points="89.6,105.9 89.6,106 108.9,106 108.9,105.9 109.1,105.9 109.1,91 89.6,105.6 	"/>
	<polygon points="45.1,81.6 45.1,83.7 40.3,87.3 44.4,106 44.5,106.2 45,106.2 45,106.1 89.6,106.1 53.6,79 	"/>
	<polygon points="39.4,83.3 39.5,83.7 45.1,83.7 43,82.2 	"/>
	<polygon points="56.1,158.4 66.8,156.2 53.3,146 	"/>
	<path d="M105,147.7l-15.4-11.6v-0.2h19.5v-7.3h1.1c0.1-1.1,0.1-2.4,0.2-3.6c0.2-5.1,0.4-11,0.6-17.1l-2-1.5v14.6l-19.5,14.7v-14.7
		h19.5l-19.5-14.7v-0.1l-38.7,29.1l1,4.5h37.7v11h4.1l10.1-2l0,0l0.2-0.1c0.1-0.1,0.4-0.2,0.6-0.5C104.7,148,104.8,147.9,105,147.7z
		"/>
	<polygon points="327.3,71.5 326.1,72.4 326.1,72.5 330.6,72.5 	"/>
	<polygon points="326.1,83.7 296.5,106 296.6,106 296.6,106 296.6,106.2 325.9,106.2 325.9,106.1 360.9,106.1 362.3,99.9 
		326.1,72.6 	"/>
	<path d="M295.6,61.9l-6.7,5c0.1,0.4,0.2,0.8,0.3,1.3c0.5,2.4,0.9,5.1,1.3,7.9h6.1v7.7h29.5l-28-21.1L295.6,61.9z"/>
	<path d="M293,61.1l-6.9-2.1c0.4,0.7,0.7,1.4,1,2.1H293z"/>
	<path d="M292.1,91h4.5l-4.8-3.6C291.9,88.5,292,89.7,292.1,91z"/>
	<path d="M293,105.9c0,0,0,0.1,0,0.1h3.4v-0.1h0.1V91l-4.2,3.2C292.6,98.1,292.8,102,293,105.9z"/>
	<path d="M326.1,128.5L300,148.2c0.1,0.1,0.2,0.1,0.2,0.1l0.2,0.1l0,0l11.9,2.4h13.8v2.8l23.2,4.7l0.2-0.9l-23.5-17.7v-0.1h27.4
		l5.5-24.9l-32.9,24.8V128.5z"/>
	<path d="M296.6,120.9l-2.9,2.2c0,0.5,0,1,0,1.5c0.2,4.6,0.6,8.3,1.1,11.3h1.8v-7.3h29.5l-29.5-22.2V120.9z"/>
	<path d="M293.6,120.9h3l-3.1-2.3C293.5,119.4,293.6,120.2,293.6,120.9z"/>
	<polygon points="684.6,75.6 680.7,74.4 680.7,83.7 651.1,106 651.2,106 651.2,106 651.2,106.2 680.6,106.2 680.6,106.1 
		705.4,106.1 708.2,93.4 	"/>
	<path d="M647.1,64.2l-12.2,9.2c0.2,0.9,0.3,1.7,0.4,2.6h15.9v7.7h29.5L660,68.1L647.1,64.2z"/>
	<path d="M631.7,61.1h5l-6.4-1.9c0.5,0.7,0.9,1.6,1.4,2.6V61.1z"/>
	<path d="M637,91h14.2l-15.4-11.6C636.3,83,636.7,86.9,637,91z"/>
	<path d="M638,105.9c0,0,0,0.1,0,0.1h13.1v-0.1h0.1V91l-13.5,10.2C637.8,102.7,637.9,104.3,638,105.9z"/>
	<polygon points="680.7,128.5 652.2,150 656.7,150.8 680.7,150.8 680.7,155.3 693.9,157.7 695.4,150.9 680.7,139.8 680.7,139.7 
		697.9,139.7 701.4,124.1 680.7,139.6 	"/>
	<path d="M638.6,120.9h12.6l-13-9.8C638.4,114.5,638.5,117.8,638.6,120.9z"/>
	<path d="M644.1,148.5l5.4,1l-8.1-6.1C642.3,146,643.3,147.6,644.1,148.5z"/>
	<path d="M651.2,120.9l-12.2,9.2c0.2,2.1,0.4,4,0.6,5.7h11.6v-7.3h29.5l-29.5-22.2V120.9z"/>
</g>
</svg>
