<?xml version="1.0" encoding="utf-8"?>
<!-- Generator: Adobe Illustrator 25.3.0, SVG Export Plug-In . SVG Version: 6.00 Build 0)  -->
<svg version="1.1" id="Layer_1" xmlns="http://www.w3.org/2000/svg" xmlns:xlink="http://www.w3.org/1999/xlink" x="0px" y="0px"
	 viewBox="0 0 750.2 400.1" style="enable-background:new 0 0 750.2 400.1;" xml:space="preserve">
<g>
	<path d="M115.1,73.2c5-3.9,9.9-7.8,14.9-11.7c3.7-2.9,7.4-5.8,11.1-8.8l-21.7,6.6c-1.5,2.2-2.4,4.7-3.4,9.4
		C115.6,70.1,115.3,71.6,115.1,73.2z"/>
	<path d="M113.7,84c13.3-10.6,26.7-21.1,40-31.7c0-0.3,0-0.6,0-0.9c0-1.1-0.1-1.9,0-2.5l-11.9,3.6c-8.9,7.1-17.8,14.2-26.7,21.2
		C114.5,76.9,114,80.3,113.7,84z"/>
	<path d="M113.4,86.3c-0.2,2.5-0.4,5.1-0.6,7.6c14.3-11.3,28.6-22.6,42.9-34c-1.5-2.5-2-5.1-2.1-7.3C140.3,63.3,127,74,113.6,84.6
		C113.5,85.1,113.5,85.7,113.4,86.3z"/>
	<path d="M112.2,103.8c4.3-3.4,8.7-6.9,13.1-10.4c11.6-9.2,23.4-18.6,35.4-28.1c0,0-0.1-0.1-0.1-0.1c-0.4-0.3-0.7-0.6-1.1-0.9
		l-0.1-0.1l-0.1-0.2c-0.5-0.5-0.9-0.9-1.3-1.3c-0.7-0.7-1.2-1.4-1.7-2.1c-14.5,11.4-29,22.9-43.4,34.4
		C112.5,98,112.4,100.9,112.2,103.8z"/>
	<path d="M111.8,113.5c18.2-14.4,36.3-28.8,54.4-43.2c-1.6-1.3-3.1-2.7-4.6-4c-16.5,13.1-33,26.2-49.5,39.3
		C112,108.3,111.9,110.9,111.8,113.5z"/>
	<path d="M111.4,123.1c20.1-16,40.3-32,60.6-48.1c-1.4-1.1-2.9-2.3-4.4-3.5c-18.6,14.8-37.3,29.6-55.9,44.4
		C111.6,118.4,111.5,120.8,111.4,123.1z"/>
	<path d="M111.3,126.1c-0.1,2.5-0.3,4.8-0.5,6.8c22.6-18,45.3-35.9,67.7-53.7c-0.3-0.2-0.6-0.3-1-0.5c-1.1-0.6-2.3-1.4-3.6-2.3
		c-12.4,9.8-25,19.8-37.8,30C127.9,112.9,119.6,119.5,111.3,126.1z"/>
	<path d="M110.2,137c-0.6,3.2-1.3,5.6-2.1,7.4c1-0.8,1.9-1.5,2.9-2.3c25.2-19.9,50.3-39.7,75.4-59.8c-1.5-0.5-3.2-1.1-4.9-1.8
		c-2.9,2.3-5.8,4.6-8.7,6.9C151.5,104.3,130.7,120.7,110.2,137z"/>
	<path d="M191.9,83.7L191.9,83.7l-0.5,0c0,0-0.4-0.1-1.1-0.2c-28.3,22.6-56.4,45-84.7,67.2c-0.4,0.3-0.9,0.7-1.3,1l0,4.9
		c30.4-24.1,60.6-48.1,91-72.2C194.2,84.2,193,84,191.9,83.7z"/>
	<path d="M206.8,84.5c-1.8,0.2-3.6,0.4-5.4,0.4c-0.2,0-0.3,0-0.5,0c-31.9,25.1-64.2,51-96.5,76.8l0,4.3c26.5-21,53-41.9,79.5-63.1
		C191.5,96.7,199.2,90.6,206.8,84.5z"/>
	<path d="M251.9,48.9l-0.4-0.1c0,0.1,0,0.2,0,0.4C251.6,49.1,251.8,49,251.9,48.9z"/>
	<path d="M216.9,82.4c-32.1,25.4-64,50.7-95.1,75.4c-5.7,4.6-11.6,9.2-17.4,13.9l0,3.6c39.8-31.6,79.9-63.4,120.2-95.3
		C221.9,80.9,219.1,81.7,216.9,82.4z"/>
	<path d="M257.1,50.5c-2.2,1.7-4.4,3.5-6.6,5.2c-0.6,1.8-1.4,3.7-2.6,5.6c4.1-3.3,8.3-6.6,12.4-9.8L257.1,50.5z"/>
	<path d="M266.1,53.2c-54.9,43.6-107.8,85.6-161.7,128.3l0,2.9c54.7-43.4,109.2-86.6,164.4-130.4L266.1,53.2z"/>
	<path d="M277.3,56.6l-2-0.6c-26.4,21.1-52.9,41.6-79.8,63.3c-21.4,17.4-43,33.9-64,50.8c-9.2,7.3-18.2,14.5-27.1,21.5l0,2
		c47.9-38.3,96.9-76.2,145.4-115.2C258.4,71.6,267.9,64.1,277.3,56.6z"/>
	<path d="M285.3,59.6c-0.1-0.3-0.3-0.5-0.5-0.7l-0.5-0.2c-49.8,39.4-99.8,79.4-149.1,118.4c-10.2,8.1-20.5,16.2-30.8,24.4l0,1.7
		c20.8-16.5,41.8-33.2,63.4-50.2C207.9,121.1,245.6,91.1,285.3,59.6z"/>
	<path d="M288,66.9c-0.1-0.4-0.2-0.7-0.3-1c-61.4,48.8-122,96.8-183.3,145.5l0,1.2c22.7-17.9,45.5-35.9,68.1-54
		C209.9,128.3,249.9,97.3,288,66.9z"/>
	<path d="M289.4,74.5c-61.9,49.1-123.2,97.8-185,146.8l0,0.6c61.4-48.7,123.1-97.8,185.1-146.8C289.5,74.9,289.5,74.7,289.4,74.5z"
		/>
	<path d="M105.5,230.4c4.4-3.5,8.8-7,13.3-10.4c24.2-18.7,47.7-38.3,71.7-56.9c34.1-26.4,66.8-53.1,100.2-79.6c0,0,0-0.1,0-0.1
		c-9.4,7.4-18.9,14.9-28.9,22.9C211.7,145.7,158.2,188.5,105.5,230.4z"/>
	<path d="M297.1,353.3c1.2-0.1,2.1-0.1,2.6-0.2l0-10.7c-4.9,3.8-9.7,7.7-14.6,11.5C290.4,353.7,294.5,353.5,297.1,353.3z"/>
	<path d="M284.7,354c5-4,10.1-8,15.1-12l0-9.2c-9.2,7.3-18.5,14.6-27.7,21.9C276.7,354.5,280.9,354.3,284.7,354z"/>
	<path d="M271.5,354.8c9.4-7.5,18.8-15,28.3-22.5l0-8.8c-13.4,10.6-26.8,21.2-40.2,31.9C263.7,355.2,267.7,355,271.5,354.8z"/>
	<path d="M247,356c3.8-0.2,7.5-0.4,11.2-0.5c13.9-11,27.7-22,41.6-33l0-8.4c-4.8,3.8-9.7,7.7-14.5,11.5
		C272.8,335.5,260,345.7,247,356z"/>
	<path d="M244.7,356.1c18.3-14.5,36.7-29.1,55.1-43.7l0-7.6c-21.8,17.3-43.6,34.6-65.3,51.8C237.9,356.4,241.3,356.3,244.7,356.1z"
		/>
	<path d="M231.5,356.7c22.8-18.1,45.5-36.1,68.4-54.2l0-7c-25.8,20.4-51.6,41-77.6,61.6C225.2,356.9,228.3,356.8,231.5,356.7z"/>
	<path d="M218.4,357.1c18.4-14.5,36.9-29.1,56.1-44.4c8.4-6.7,16.9-13.4,25.4-20.2l0-6.4c-30.1,23.9-60.2,47.7-89.8,71.2
		C212.6,357.3,215.4,357.2,218.4,357.1z"/>
	<path d="M219.9,340.1c-7.3,5.8-14.5,11.6-21.7,17.3c1.3,0,2.6,0,3.7,0c1.1,0,2.2,0,3.4,0c10.8-8.5,21.6-17.1,32.5-25.8
		c21-16.7,41.6-32.9,61.9-49.1l0-5.7c-0.1,0.1-0.1,0.1-0.2,0.2C273,298,246.5,318.8,219.9,340.1z"/>
	<path d="M193,357.3c35.8-28.6,71.3-57,106.9-85l0-4.9c-37.7,29.9-75.1,59.6-113,89.7C188.9,357.2,191,357.3,193,357.3z"/>
	<path d="M175.6,356.8c1.7,0.1,3.4,0.1,5.1,0.2c2.1-1.7,4.3-3.4,6.5-5.1c37.1-28.9,74.9-59.2,112.8-89.4l0-4.3
		c-24.4,19.3-48.8,38.6-73.2,58.2C209.7,329.9,192.7,343.3,175.6,356.8z"/>
	<path d="M168.7,356.5c40.4-32,81-64.1,120-95.2c3.7-2.9,7.4-5.9,11.2-8.9l0-3.6c-44.8,35.6-89.9,71.3-135.4,107.4
		C165.8,356.4,167.3,356.5,168.7,356.5z"/>
	<path d="M156.8,356c48.4-38.4,95.4-75.7,143.1-113.5l0-2.9c-48.8,38.7-97.4,77.3-146.6,116.3C154.5,355.9,155.6,356,156.8,356z"/>
	<path d="M142.3,355.3c0.1,0,0.3,0,0.4,0c0.7,0,1.4,0.1,2.2,0.1c23.3-18.4,46.6-36.6,70.2-55.6c21.4-17.4,43-33.9,64-50.8
		c7-5.6,14-11.1,20.9-16.6l0-2c-45.9,36.6-92.7,72.9-139.2,110.2C154.9,345.3,148.6,350.3,142.3,355.3z"/>
	<path d="M131.2,354.7c0.7,0,1.3,0.1,2,0.1c47.5-37.6,95.2-75.7,142.2-112.8c8.1-6.4,16.3-12.9,24.5-19.4l0-1.7
		c-18.8,14.9-37.7,29.9-57.1,45.3C204.7,296.4,168.8,325,131.2,354.7z"/>
	<path d="M120.1,354.1c0.5,0,1,0.1,1.5,0.1c59.7-47.5,118.7-94.2,178.4-141.6l0-1.2c-20.7,16.3-41.3,32.6-61.8,49.1
		C199.8,291.4,158.9,323.1,120.1,354.1z"/>
	<path d="M109.9,353.5c63.6-50.5,126.6-100.5,190-150.8l0-0.6c-63.3,50.2-127,100.8-190.9,151.4
		C109.3,353.5,109.6,353.5,109.9,353.5z"/>
	<path d="M220.1,256c-39.3,30.4-76.9,61.3-115.7,91.8l0,0.1c14.5-11.5,28.8-22.8,44.4-35.1c48.3-38.1,100-79.4,151-120l0-0.1
		c-2.7,2.1-5.4,4.2-8.1,6.3C267.7,217.8,244.1,237.4,220.1,256z"/>
	<path d="M610.4,61.4c8.2,6.5,16.4,12.9,24.6,19.4c-0.8-6.7-1.9-12.6-3.4-16.9c-2.9-2.3-5.9-4.7-8.8-7l-29-8.8l0,0l-0.1,0
		C599.3,52.6,604.9,57.1,610.4,61.4z"/>
	<path d="M635,81.3c-13.9-11.1-27.9-22.1-41.8-33.2c-0.6,0-1.9-0.1-3.9-0.2c-2.2-0.1-5.1-0.3-8.7-0.4C599,62.1,617.5,76.7,636,91.3
		C635.7,87.9,635.4,84.5,635,81.3z"/>
	<path d="M636,91.9c-18.6-14.6-37.2-29.5-55.9-44.4c-0.6,0-1.1-0.1-1.7-0.1c-3.1-0.2-6.6-0.3-10.2-0.5c23,18.2,45.8,36.3,68.5,54.3
		C636.5,98.1,636.3,95,636,91.9z"/>
	<path d="M637.1,110.9c-0.1-2.8-0.3-5.7-0.4-8.7c-23.3-18.6-46.7-37.1-70-55.4c-3.4-0.1-7-0.2-10.7-0.3c20,15.9,40,31.7,59.1,46.9
		C622.5,99.3,629.8,105.2,637.1,110.9z"/>
	<path d="M637.2,112.7c-27.9-22.2-55.8-44.3-83.5-66.2c-2.9,0-5.9-0.1-8.9-0.1c-0.3,0-0.6,0-0.8,0c31.1,24.7,62.2,49.4,93.5,74.2
		C637.4,118.1,637.3,115.4,637.2,112.7z"/>
	<path d="M637.7,125.9l0-1.2c0-0.6,0-1.2-0.1-1.8c-32.2-25.5-64.4-51-96.5-76.5c-2.9,0-5.8,0.1-8.7,0.2
		c35.4,28.1,70.5,55.9,105.4,83.7C637.8,128.9,637.7,127.5,637.7,125.9z"/>
	<path d="M638.2,133.4c-11.4-9.1-22.8-18.1-34-27c-25.8-20.7-50.7-40.2-75.4-59.7c-2.6,0.1-5.2,0.2-7.6,0.3
		c38.8,30.7,78.6,62.3,118.2,93.8C639,138.8,638.5,136.3,638.2,133.4z"/>
	<path d="M567.7,87.5c-17.1-13.6-33.9-26.9-50.8-40.3c-2.4,0.1-4.6,0.3-6.6,0.4c13.1,10.3,26.2,20.7,39.4,31.4
		c26.6,21.3,53,42.2,79.7,63.2c4.6,3.6,9.2,7.2,13.7,10.8l0-3.8c-0.6-0.7-1.3-1.8-2-3.4C617,126.5,592.7,107.3,567.7,87.5z"/>
	<path d="M505.3,47.9c-1.7,0.1-3.2,0.2-4.4,0.3l-1.5,0.1c48.4,38.3,95.8,76,143.7,114l0-4.9c-2.8-2.2-5.7-4.5-8.5-6.7
		C591.6,116.9,548.8,82.5,505.3,47.9z"/>
	<path d="M494.8,49.7l-3.9,1.2c22,17.4,43.8,34.5,65.5,51.9c28.9,23.2,57.8,45.9,86.7,68.8l0-4.2c-42.3-33.8-84.8-67.9-126.3-100.2
		C509.4,61.3,502.1,55.5,494.8,49.7z"/>
	<path d="M485.7,52.5l-3.2,1c54.1,42.9,107.6,85.3,160.7,127.4l0-3.6c-8.3-6.6-16.6-13.2-24.7-19.6
		C575.3,123.4,530.3,87.8,485.7,52.5z"/>
	<path d="M473.9,56c56.8,45,112.9,89.5,169.2,134.2l0-2.9c-55.6-44.1-110-87.2-166.5-132.1L473.9,56z"/>
	<path d="M544.8,119.3c-26-21.1-51.7-40.9-77.3-61.4l-2,0.6c8.6,6.8,17.2,13.6,25.1,19.9c51,40.9,102.4,80.7,152.6,121l0-2.1
		c-11.3-8.9-22.7-17.9-34.3-27.2C587.8,153.2,566.3,136.7,544.8,119.3z"/>
	<path d="M460.7,62.4c-0.2,0.4-0.4,0.8-0.5,1.3c37.9,30,74,58.8,112.4,89.2c24,19,47.3,37.5,70.6,55.9l0-1.7
		c-12.7-10.1-25.4-20.1-38-30.1C557.4,139.4,509,100.6,460.7,62.4z"/>
	<path d="M458,71.4c36.4,28.9,74.3,58.4,109.9,87.1c24.9,20.1,50.1,39.9,75.2,59.7l0-1.1c-62-49.2-123.1-97.5-184.9-146.7
		C458.1,70.7,458,71.1,458,71.4z"/>
	<path d="M456.6,79.7c62.5,49.4,124.7,98.9,186.5,147.9l0-0.6C580.8,177.6,519,128.5,456.7,79.1C456.6,79.3,456.6,79.5,456.6,79.7z"
		/>
	<path d="M643.1,236.9L643.1,236.9c-0.5-0.4-1.1-0.9-1.6-1.3C642,236,642.6,236.5,643.1,236.9z"/>
	<path d="M621.6,220c4.4,3.4,8.9,6.9,13.3,10.4c-52.7-41.9-106.3-84.7-156.2-124.1c-8-6.3-15.6-12.3-23.1-18.2c0,0,0,0.1,0,0.1
		c31.3,24.9,62.2,50.1,94.3,74.9C573.9,181.7,597.5,201.3,621.6,220z"/>
	<path d="M447.7,353.3c0.1,0,0.3,0.1,0.6,0.1c0.9,0.1,2.6,0.3,5.9,0.5c0.3,0,0.6,0,0.9,0.1c-2.4-1.9-4.9-3.9-7.3-5.8L447.7,353.3z"
		/>
	<path d="M447.7,347.7c2.6,2.1,5.3,4.2,7.9,6.3c4.9,0.4,10.2,1.7,15.9,3.3c-7.9-6.3-15.8-12.5-23.7-18.8L447.7,347.7z"/>
	<path d="M447.7,337.9c8.2,6.5,16.4,13,24.6,19.6c5.8,1.7,11.9,3.8,18.6,5.8c-14.5-11.5-28.8-22.8-43.1-34.2L447.7,337.9z"/>
	<path d="M447.7,319.8l0,8.4c15.1,12,30.2,24,45.3,35.9c5.1,1.6,10.5,3.1,16.1,4.5c-18.3-14.5-36.5-28.9-54-42.8
		C452.6,323.7,450.1,321.7,447.7,319.8z"/>
	<path d="M447.7,318.1c21.5,17.1,43,34.1,64.4,51.1c4,0.9,8.2,1.7,12.5,2.3c-25.6-20.3-51.2-40.6-76.9-61L447.7,318.1z"/>
	<path d="M447.7,308.1c26.8,21.3,53.6,42.6,80.4,63.8c3.2,0.4,6.5,0.6,9.8,0.8c-30.3-24-60.3-47.9-90.3-71.6L447.7,308.1z"/>
	<path d="M447.7,298.2c6.1,4.9,12.2,9.7,18.2,14.5c26,20.8,51,40.4,75.9,60.1c0.6,0,1.2,0,1.8,0c0.5,0,1.1,0,1.6,0
		c1.5,0,3-0.1,4.4-0.1c-33.5-26.5-67.7-53.7-102-80.9L447.7,298.2z"/>
	<path d="M447.6,282.4l0,5.8c18,14.3,36.2,28.7,54.8,43.4c17.4,13.8,34.4,27.3,51.4,40.8c2.1-0.2,4.2-0.4,6.3-0.6
		c-13.2-10.4-26.4-20.9-39.8-31.6C496.1,320.7,472,301.6,447.6,282.4z"/>
	<path d="M447.6,278c38.9,30.7,77.7,61.8,117.1,93.1c1.8-0.3,3.5-0.6,5.3-0.9c-41.2-32.6-81.6-64.8-122.3-97L447.6,278z"/>
	<path d="M447.6,263.8l0,4.4c35.4,28.3,70.9,56.6,105.6,83.7c7.4,5.8,14.6,11.5,21.8,17.3c1.4-0.3,2.8-0.6,4.1-1
		c-22-17.4-43.8-34.5-65.5-51.8C491.7,298.7,469.7,281.3,447.6,263.8z"/>
	<path d="M447.6,258.2c1.3,1.1,2.7,2.1,4,3.2c43.2,34.4,88.3,70,132.9,105.4c1.1-0.3,2.2-0.6,3.3-0.9
		c-47.1-37.4-93.8-74.4-140.2-111.2L447.6,258.2z"/>
	<path d="M447.6,248.2c48.5,38.5,96.5,76.5,146,115.9c0.3-0.1,0.6-0.2,0.9-0.3c0.6-0.2,1.2-0.4,1.8-0.6
		c-49.9-39.6-99.3-78.7-148.7-117.9L447.6,248.2z"/>
	<path d="M447.6,236.1l0,2c4.5,3.6,9.1,7.2,13.7,10.9c21.1,16.9,42.6,33.4,64,50.8c26,21.1,51.7,40.9,77.4,61.4
		c0.7-0.2,1.3-0.4,2-0.6c-8.6-6.8-17.2-13.6-25-19.9C535.6,305.3,491.3,270.8,447.6,236.1z"/>
	<path d="M447.6,226.6l0,1.7c5.8,4.6,11.6,9.2,17.4,13.7c48.5,38.3,97.6,77.6,146.6,116.3c0.5-0.2,1-0.3,1.5-0.5
		c-39-30.9-76.1-60.4-115.6-91.7C480.7,252.8,464.1,239.6,447.6,226.6z"/>
	<path d="M447.6,217.1l0,1.2c57.9,45.9,115.2,91.3,173.2,137.5c0.4-0.1,0.8-0.2,1.2-0.3c-39.4-31.5-80.9-63.7-119.8-95
		C484.2,246,465.9,231.5,447.6,217.1z"/>
	<path d="M447.6,208.4c61.3,48.6,122.2,96.9,183.6,145.7c0.3,0,0.6,0,0.9-0.1c-61.8-48.8-123.3-97.8-184.5-146.3L447.6,208.4z"/>
	<path d="M448.5,199.1c-0.3-0.2-0.6-0.5-0.9-0.7l0,0.1c48.7,38.7,97.8,77.9,143.8,114.2c16.6,13.1,31.6,25,47.1,37.2
		c0,0,0-0.1,0.1-0.1c-39.8-31.1-78.2-62.8-118.4-93.9C496.2,237.4,472.7,217.8,448.5,199.1z"/>
	<path d="M106.7,145.1c1.6-3.2,3.3-9.2,3.7-20.2c0.6-16.5,1.3-41.2,4.6-56.4c0.9-4.2,1.3-6.4,2.7-8.9L39.4,83.3l16.7,75.1l47.7-9.7
		l0,0l0.2-0.1c0.1-0.1,0.4-0.2,0.6-0.5C105.1,147.6,105.9,146.7,106.7,145.1z"/>
	<path d="M630.4,59.2c6.4,9.6,7.6,42.8,8.4,65.4l0,1.2c0.5,14.9,3.5,20.6,5.3,22.7l49.8,9.2l16.6-74.4L630.4,59.2z"/>
</g>
</svg>
