<?xml version="1.0" encoding="utf-8"?>
<!-- Generator: Adobe Illustrator 25.2.1, SVG Export Plug-In . SVG Version: 6.00 Build 0)  -->
<svg version="1.1" id="Layer_1" xmlns="http://www.w3.org/2000/svg" xmlns:xlink="http://www.w3.org/1999/xlink" x="0px" y="0px"
	 viewBox="0 0 150 200" style="enable-background:new 0 0 150 200;" xml:space="preserve">
<style type="text/css">
	.st0{fill:#120E0B;}
	.st1{fill:#93D500;}
	.st2{fill:#A6ACB1;}
	.st3{fill:#FFFFFF;}
	.st4{fill:#707271;}
</style>
<g>
	
		<rect x="12.8" y="37.8" transform="matrix(0.9744 -0.225 0.225 0.9744 -20.5729 19.4343)" class="st0" width="124.4" height="124.4"/>
	<path class="st1" d="M18.8,78.8C18.8,78.8,18.7,78.8,18.8,78.8l-0.3,0.1l-0.4,0.1L17.9,79c0,0-0.1,0-0.1,0c0,0-0.1,0-0.1,0
		l-0.7-0.7c0,0,0-0.1-0.1-0.1c0-0.1,0-0.1,0-0.2l0-0.2l-0.5-2l-0.3-1.1c0-0.1,0-0.2,0.1-0.2l0.7-0.2c0,0,0.1,0,0.1,0
		c0,0,0,0.1,0.1,0.1l0.3,1.4l0.2,0.7l0.2,0.8c0,0,0,0.1,0.1,0.1c0,0,0.1,0,0.1,0l0.5-0.1c0,0,0.1,0,0.1-0.1c0,0,0-0.1,0-0.1
		l-0.2-0.8l-0.2-1l0-0.1c0,0,0-0.1,0-0.2c0-0.1,0-0.1,0-0.2l0.3-0.9c0,0,0.1-0.1,0.1-0.1c0,0,0.1,0,0.1,0l0.1,0l0.7-0.2l0.1,0
		c0,0,0.1,0,0.1,0c0,0,0.1,0,0.1,0l0.7,0.7c0,0,0,0.1,0.1,0.1c0,0.1,0,0.1,0,0.2l0,0.2l0.6,2.4l0.1,0.5c0,0,0,0.1,0,0.1
		c0,0,0,0.1-0.1,0.1l-0.7,0.2c0,0-0.1,0-0.1,0c0,0,0-0.1-0.1-0.1l-0.1-0.6l-0.4-1.6l-0.1-0.6c0,0,0-0.1-0.1-0.1c0,0-0.1,0-0.1,0
		l-0.5,0.1c0,0-0.1,0-0.1,0.1c0,0,0,0.1,0,0.1l0.1,0.6l0.3,1.2l0,0.2c0,0,0,0.1,0,0.2c0,0.1,0,0.1,0,0.2L18.8,78.8
		C18.9,78.7,18.8,78.7,18.8,78.8"/>
	<path class="st1" d="M23,86.7C23,86.8,23,86.8,23,86.7l-0.5,0.2l-2.7,0.6l0,0l0,0c0,0-0.1,0-0.1,0c0,0-0.1,0-0.1,0l-0.7-0.7
		c0,0,0-0.1-0.1-0.1c0-0.1,0-0.1,0-0.2l-0.1-0.6L18.2,84l-0.1-0.2c0,0,0-0.1,0-0.2c0-0.1,0-0.1,0-0.2l0.3-0.9c0,0,0-0.1,0.1-0.1
		c0,0,0.1,0,0.1,0l0.2,0l2.6-0.6l0.4-0.1c0,0,0.1,0,0.1,0c0,0,0,0.1,0.1,0.1l0.3,1.2c0,0,0,0.1,0,0.1c0,0,0,0.1-0.1,0.1l-0.5,0.1
		l-2,0.5l-0.3,0.1c0,0-0.1,0-0.1,0.1c0,0,0,0.1,0,0.1l0.4,1.7c0,0,0,0.1,0.1,0.1c0,0,0.1,0,0.1,0l0.3-0.1l2.2-0.5l0.3-0.1
		c0,0,0.1,0,0.1,0c0,0,0,0.1,0.1,0.1l0.3,1.2C23,86.6,23,86.7,23,86.7"/>
	<path class="st1" d="M24.3,94.9C24.3,95,24.3,95,24.3,94.9C24.2,95,24.2,95,24.1,95l-0.2,0l-1,0.2l-0.1,0c0,0-0.1,0-0.1,0
		c0,0-0.1,0-0.1,0l-0.7-0.7c0,0,0-0.1-0.1-0.1c0-0.1,0-0.1-0.1-0.2l-0.1-0.2l-0.1-0.6l-0.2-0.9c0,0,0-0.1-0.1-0.1c0,0-0.1,0-0.1,0
		l-0.9,0.2c-0.1,0-0.1,0-0.1-0.1l-0.3-1.2c0-0.1,0-0.2,0.1-0.2l0.6-0.1l2.4-0.5l0.9-0.2c0,0,0.1,0,0.1,0c0,0,0,0.1,0.1,0.1l0.6,2.6
		l0.1,0.4l0,0.2c0,0,0,0.1,0,0.2c0,0.1,0,0.1,0,0.2L24.3,94.9z M23.7,93.6l-0.4-1.7l-1,0.2l0.4,1.7L23.7,93.6z"/>
	<path class="st1" d="M25,99.7l-0.6,0.1c0,0,0,0,0,0l0.2,0.7l0.2,0.8l0.2,0.9c0,0,0,0.1,0,0.1c0,0,0,0.1-0.1,0.1l-0.6,0.1
		c-0.1,0-0.1,0-0.1-0.1l-0.2-0.9l-0.2-0.7l-0.2-0.9c0,0,0,0,0,0l-0.6,0.1c0,0,0,0,0,0l0.2,0.7l0.2,1l0.3,1.2c0,0,0,0.1,0,0.1
		c0,0,0,0.1-0.1,0.1l-0.7,0.2c0,0-0.1,0-0.1,0c0,0,0-0.1-0.1-0.1l-0.2-0.9l-0.5-2.1l-0.1-0.3c0,0,0-0.1,0-0.2c0-0.1,0-0.1,0-0.2
		l0.3-0.9c0,0,0-0.1,0.1-0.1c0,0,0.1,0,0.1,0l0.2,0l1.9-0.4l0.3-0.1c0,0,0.1,0,0.1,0c0,0,0.1,0,0.1,0l0.7,0.7c0,0,0,0.1,0.1,0.1
		c0,0.1,0,0.1,0,0.2l0,0.2l0.5,2.4l0.2,0.7c0,0,0,0.1,0,0.1c0,0,0,0.1-0.1,0.1l-0.7,0.2c0,0-0.1,0-0.1,0c0,0,0-0.1-0.1-0.1l-0.2-0.7
		l-0.3-1.4L25,99.7C25.1,99.7,25,99.7,25,99.7"/>
	<path class="st1" d="M24.8,112.2C24.8,112.2,24.7,112.2,24.8,112.2c-0.1,0-0.1,0-0.1-0.1l-0.3-1.4c0,0,0-0.1,0-0.1
		c0-0.1,0-0.1,0-0.1l0.9-1.2c0,0,0,0,0-0.1l-0.2-1c0,0,0,0,0,0l-1.1,0.2c-0.1,0-0.1,0-0.1-0.1l-0.3-1.2c0-0.1,0-0.2,0.1-0.2l1.9-0.4
		l1-0.2l0.9-0.2c0,0,0.1,0,0.1,0c0,0,0,0.1,0.1,0.1l0.9,3.7c0,0,0,0.1,0,0.2c0,0.1,0,0.1,0,0.2l-0.3,0.9c0,0-0.1,0-0.1,0.1
		c0,0-0.1,0-0.1,0l-0.8,0.2l-0.4,0.1l-0.1,0c0,0-0.1,0-0.1,0c0,0-0.1,0-0.1,0l-0.7-0.7L24.8,112.2z M27.4,109.8l-0.5-2.1l-1,0.2
		l0.2,1l0.2,0.9l0,0l0,0.2l0.1,0l0.6-0.1L27.4,109.8z"/>
	<path class="st1" d="M31.7,124.4C31.7,124.4,31.7,124.4,31.7,124.4l-0.8,0.2c0,0-0.1,0-0.1,0c0,0,0-0.1-0.1-0.1l-0.7-2.9
		c0,0,0,0,0,0l-0.6,0.1c0,0,0,0,0,0l0.5,2.2c0,0,0,0.1,0,0.1c0,0,0,0.1-0.1,0.1l-0.7,0.2c0,0-0.1,0-0.1,0c0,0,0-0.1-0.1-0.1
		l-0.5-2.2c0,0,0,0,0,0l-1.3,0.3c-0.1,0-0.1,0-0.1-0.1l-0.3-1.2c0-0.1,0-0.2,0.1-0.2l3.8-0.9c0.1,0,0.1,0,0.1,0.1l1,4.3
		C31.7,124.3,31.7,124.3,31.7,124.4"/>
	<path class="st1" d="M33.6,132.4C33.5,132.4,33.5,132.5,33.6,132.4l-0.5,0.2l-2.7,0.6l0,0l0,0c0,0-0.1,0-0.1,0c0,0-0.1,0-0.1,0
		l-0.7-0.7c0,0,0-0.1-0.1-0.1c0-0.1,0-0.1,0-0.2l-0.1-0.6l-0.4-1.9l-0.1-0.2c0,0,0-0.1,0-0.2c0-0.1,0-0.1,0-0.2l0.3-0.9
		c0,0,0-0.1,0.1-0.1c0,0,0.1,0,0.1,0l0.2,0l2.6-0.6l0.4-0.1c0,0,0.1,0,0.1,0c0,0,0,0.1,0.1,0.1l0.3,1.2c0,0,0,0.1,0,0.1
		c0,0,0,0.1-0.1,0.1l-0.5,0.1l-2,0.5l-0.3,0.1c0,0-0.1,0-0.1,0.1c0,0,0,0.1,0,0.1l0.4,1.7c0,0,0,0.1,0.1,0.1c0,0,0.1,0,0.1,0
		l0.3-0.1l2.2-0.5l0.3-0.1c0,0,0.1,0,0.1,0c0,0,0,0.1,0.1,0.1l0.3,1.2C33.6,132.3,33.6,132.4,33.6,132.4"/>
	<path class="st1" d="M33.8,137.7l-0.6,0.1c0,0,0,0,0,0l0.2,0.7l0.2,0.8l0.2,0.9c0,0,0,0.1,0,0.1c0,0,0,0.1-0.1,0.1l-0.6,0.1
		c-0.1,0-0.1,0-0.1-0.1l-0.2-0.9l-0.2-0.7l-0.2-0.9c0,0,0,0,0,0l-0.6,0.1c0,0,0,0,0,0l0.2,0.7l0.2,1l0.3,1.2c0,0,0,0.1,0,0.1
		c0,0,0,0.1-0.1,0.1l-0.7,0.2c0,0-0.1,0-0.1,0c0,0,0-0.1-0.1-0.1l-0.2-0.9l-0.5-2.1l-0.1-0.3c0,0,0-0.1,0-0.2c0-0.1,0-0.1,0-0.2
		l0.3-0.9c0,0,0-0.1,0.1-0.1c0,0,0.1,0,0.1,0l0.2,0l1.9-0.4l0.3-0.1c0,0,0.1,0,0.1,0c0,0,0.1,0,0.1,0l0.7,0.7c0,0,0,0.1,0.1,0.1
		c0,0.1,0,0.1,0,0.2l0,0.2l0.5,2.4l0.2,0.7c0,0,0,0.1,0,0.1c0,0,0,0.1-0.1,0.1l-0.7,0.2c0,0-0.1,0-0.1,0c0,0,0-0.1-0.1-0.1l-0.2-0.7
		l-0.3-1.4L33.8,137.7C33.8,137.7,33.8,137.7,33.8,137.7"/>
	<path class="st1" d="M34.1,148.6c0,0,0,0.1,0,0.1s0,0.1-0.1,0.1l-0.8,0.2c0,0-0.1,0-0.1,0c0,0,0-0.1-0.1-0.1l-0.9-3.7
		c0-0.1,0-0.2,0.1-0.2l3.8-0.9c0.1,0,0.1,0,0.1,0.1l0.3,1.2c0,0.1,0,0.2-0.1,0.2l-2.8,0.7c0,0-0.1,0-0.1,0.1c0,0,0,0.1,0,0.1
		L34.1,148.6z"/>
	<path class="st2" d="M129.1,109.9c-0.1-0.5,0.2-0.9,0.7-1c0.5-0.1,0.9,0.2,1,0.6c0.1,0.5-0.2,0.9-0.7,1
		C129.7,110.6,129.2,110.4,129.1,109.9 M131.1,109.5c-0.1-0.6-0.8-1-1.4-0.9c-0.6,0.1-1,0.8-0.9,1.4c0.1,0.6,0.8,1,1.4,0.9
		C130.8,110.7,131.2,110.1,131.1,109.5 M129.5,110.3c0,0,0.2-0.2,0.3-0.3c0.1-0.1,0.1-0.1,0.1-0.2c0.1,0.1,0.2,0.2,0.4,0.2
		c0.2,0,0.3-0.2,0.3-0.5l-0.1-0.5l-1.2,0.3l0.1,0.3l0.5-0.1c0,0-0.1,0.1-0.2,0.2c-0.1,0.1-0.1,0.1-0.2,0.2L129.5,110.3z
		 M130.2,109.8c-0.1,0-0.1,0-0.2-0.1l0-0.1l0.2-0.1l0,0.1C130.3,109.7,130.3,109.7,130.2,109.8"/>
	<path class="st2" d="M69,155.1c-0.1-0.5,0.2-0.9,0.7-1c0.5-0.1,0.9,0.2,1,0.6c0.1,0.5-0.2,0.9-0.7,1
		C69.6,155.9,69.1,155.6,69,155.1 M71,154.7c-0.1-0.6-0.8-1-1.4-0.9s-1,0.8-0.9,1.4c0.1,0.6,0.8,1,1.4,0.9
		C70.7,155.9,71.1,155.3,71,154.7 M69.4,155.6c0,0,0.2-0.2,0.3-0.3c0.1-0.1,0.1-0.1,0.1-0.2c0.1,0.1,0.2,0.2,0.4,0.2
		c0.2,0,0.3-0.2,0.3-0.5l-0.1-0.5l-1.2,0.3l0.1,0.3l0.5-0.1c0,0-0.1,0.1-0.2,0.2c-0.1,0.1-0.1,0.1-0.2,0.2L69.4,155.6z M70.1,155
		c-0.1,0-0.1,0-0.2-0.1l0-0.1l0.2-0.1l0,0.1C70.2,154.9,70.2,155,70.1,155"/>
	<path class="st1" d="M122.7,94c-1.1-0.5-1.1-0.8-1.1-0.8l-0.9,0.2c-0.3-0.1-1-0.8-1.3-0.8c-0.3-0.1-0.5,0.2-0.8,0
		c-0.2-0.2-0.3-0.3-0.5-0.3c-0.1,0-1,0.5-1.2,0.6c-0.4,0.5-1.2-0.1-1.6,0.1c-0.2,0.1-0.4,0.2-0.8,0.9c-0.4,0.6-1.7,0-2.2,0.2
		c-0.6,0.2-2.8,1.9-3.5,1.6c-0.7-0.3-0.9-0.8-1.5-0.7c0,0.5-1.7,0.6-2.7,0.3c-0.2-0.1-0.3-0.1-0.6,0.2c-0.6,0.5-1.2,0.5-1.2,0.5
		c-0.5,0.5-2.7,1.9-3.2,1.8c-0.2,0-1.1,0.1-1.1,0.1c-0.9-0.3-0.6-0.7-2.2-0.9c-0.2,0-0.3-0.1-0.8,0c-0.7,0.2-1.3-0.3-1.5-0.3
		c-0.1,0-0.7,0.1-0.7,0.1c-0.6-0.2-1-0.4-1.4-0.4c-0.3,0-0.5,0.2-0.8,0.1c-0.2,0-0.3-0.1-0.5,0.1c-0.2,0.2-0.2,0.2-0.3,0.1
		c0,0.6-0.8,0.5-1.1,0.3l-0.1,0.2C88.9,97,88.8,97,88.7,97c-0.2,0.1-0.2,0.4-0.6,0.5c-0.4,0.1-0.8-0.1-1-0.1
		c-0.1,0.1-0.2,0.2-0.4,0.3c-1-0.1-1.7,0.7-2.1,0.5c-0.2-0.1-0.6-0.5-0.7-0.4c-1.1,0.6-2.4,0.5-3.3,0.8c-0.5,0-1.4-0.1-1.4,0
		c0.1,0.5-0.9,0.6-0.9,0.6c-0.3,0.4-1,1.4-1.5,1.5c-0.5,0.1-1-0.3-1.3-0.3c0,0-1.4,0.4-1.4,0.4c-0.3,0-0.8-0.1-1-0.2
		c-0.3,0.1-1.2,0.5-1.3,0.4c-0.2-0.5-1.4,0.1-1.5-0.1l-1.7,0.3c0-0.1-0.1-0.2-0.2-0.2c-0.2-0.1-0.7,0.1-0.9,0
		c-0.7-0.3-0.9-0.8-2.2-0.6c0.7-0.5,1.5-0.6,2.8-0.4c0,0,0.8-0.3,1,0c0.2,0.2,1.9-0.4,1.9-0.4s-0.1-0.5,1.5-1c0,0,0.1,0,0.1,0
		c0-0.1,0.1-0.3,0.2-0.3c0.1,0,0.1,0,0.3-0.1c0.1-0.1,0.2-0.2,0.3-0.4c0.1-0.2,0.2-0.4,0.3-0.5c0.1-0.1,0.7-0.4,0.8-0.4
		c0.4,0.1,1,0.6,1.6,0.5c0,0,0-0.1,0.4-0.3c0.2-0.1,0.7-0.3,0.9-0.5l0.8-0.2c0.2-0.1,0.4-0.3,0.6-0.3c0.3,0,0.6,0.2,0.9,0.2
		c0.3-0.1,0.4-0.5,0.8-0.5c0.4,0,0.7,0.1,1.2,0c0.3-0.1,0.7-0.4,0.7-0.4l0-0.2c0,0,2-1,4.2-0.8c0-0.1,0.1-0.2,0.3-0.4
		c0.3-0.2,0.3-0.2,0.4-0.4c0.4-0.6,0.7-0.9,1.4-1.1c0.2,0.3,1.5,0.3,1.7,0.4c0.3,0.2,0.8-0.1,1,0c0.3,0,0.6,0.4,0.8,0.4l1.8-0.3
		l-0.1,0.2l1.4-0.2c0.6,0.1,1.2,0.3,1.9,0.4c0.4,0,2.4-1.3,2.4-1.3s0.5,0.2,0.7-0.5c0.1-0.2,0.1-0.5,0.6-0.4
		c0.6,0.1,1.1-0.5,1.6-0.3c0.3,0.1,2.1-0.3,3.2-0.2c0.7,0.1,0.6-0.9,0.9-1.1c0.5-0.3,2.6-0.1,2.9-0.6c0.1,0,0.1,0,0.2,0.1
		c0.1,0.1,0.1,0.1,0.3,0c1.5-1.3,3.2-0.6,4-0.8c0.8-0.4,0.2-1.5,1.5-1.8c0.5-0.1,0.4,0.4,0.4,0.4c0.4,0.2,0.2-0.2,2.6-0.5
		c0-0.3,0.1-0.4,0.2-0.5c0,0,0.1,0.4,0.5,0.4c0.1-0.4,0.6-0.9,0.9-1.2c0.9-1,0.4-1.6,0.4-1.6s-0.1,0-0.2,0c0-0.5,0.2-1.3,0.1-1.9
		c-0.2-0.9-0.8-1.7-1.1-1.7c-0.2,0.3-0.8,0.6-1.1,0.8c-0.6-0.6-1.2-0.3-1.2-0.3c-0.2,0.3-0.8,0.4-0.9,0.5c-0.1-0.4-0.3-0.4-0.5-0.6
		c-0.1-0.1-0.1-0.5-0.4-0.7c-0.7-0.4-1.1-0.9-3.3,0c-0.3,0.1-0.7,0.1-0.9,0c0,0,0.3,0.7,0.1,0.9c-0.1,0.1-0.4,0.2-0.6,0.2
		c-0.3-0.2-0.7,0.1-1.1-0.1c-0.4-0.2-1.2-0.7-3.1-0.4c-0.2,0.2-0.1,0.4-0.3,0.5c-0.3,0.3-1.1,0.2-1.3,0.3c0,0,0-0.1,0-0.2
		c-0.3,0.3-0.6,0-1,0.4c-0.4,0.3-0.4,0.6-0.7,0.7c-0.3,0.1-0.5,0.1-0.7,0.2c-0.6,0.4-2,1.4-2,1.4c-0.2,0.1-0.4,0.8-0.9,1
		c-0.3,0.1-1-0.2-1.3-0.3c-0.8-0.4-1.1-0.1-1.5-0.3c-0.3-0.1-0.5-0.3-1-0.3c-0.5,1.3-0.9,0.5-3,1c-0.3,0.1-0.3,1-0.7,1.1
		c-0.3,0.1-1.2,0.1-2.5-0.1c-0.3,0-1.8,0-2.5,0c-0.5,0-1.7-0.3-2.6-0.1c-2.2,0.7-2.8,1.6-3.1,1.5l-1.4-0.2c-0.2,0-0.4,0.2-0.6,0.2
		c-0.2,0.1-0.3,0.2-0.6,0.2c-0.5-0.1-0.8-0.2-1.1-0.1c-0.3,0.1-0.6,0.4-0.8,0.5c-0.4,0.3-3.2,0.4-3.2,0.4c-0.9,0.2-3,1-2.9,1
		c-0.5,0.4-0.7,0.7-1.2,0.8c-0.4,0.1-0.8-0.2-1.1-0.2c-0.2,0.1-0.3,0.4-0.6,0.4c0.2-0.1,0.4-0.5,0.6-0.7c0.5-0.5,1.3,0,1.6-0.4
		c0.2-0.3,0.5-0.8,0.8-1c0.9-0.8,4-1.5,4.7-1.9c0.2-0.2,0.7-0.4,1.5-0.8c0.4-0.2,1.2-0.5,1.8-1.1c1-0.9,1.1-0.7,2-0.4
		c0.7-0.4,0.8-1.1,1.6-1.2c0.3,0,0.9,0.2,1.2,0c0.6-0.2,0.6-1.4,1.4-1.8c0.4,0.5,1.8,0.4,2.5,0.8c1.1,0.6,3.2-0.4,3.4-0.6
		c0.5-0.1,1.7-0.3,1.7-0.3c0-0.2,0.3-0.9,0.3-1c0.3-0.1,1.4,0.2,1.8,0c1.1-0.5,2.1-0.5,2.1-0.5s2.8-1.4,3-1.5c1.8-1,2.7-2.1,2.9-2.2
		c0.2-0.2,0.5-0.5,0.7-0.6c0.5-0.1,0.9,0.1,1.3,0.1c0.4,0,1.8-0.2,1.8-0.2s2,0.3,2.8,0.3c0.2,0,0.5-0.6,1.1-0.4
		c0.1,0,0.8,0.2,1.9-0.7l0.5-0.1c0.3-0.1,0.5-1.6,1-1.7c0.1,0.1,0.7,0.3,1,0.3c0-0.1,0.3-0.4,0.5-0.4c1.4-0.6,0.8-3.1,0.8-3.1
		c0.3-1.9,0.1-3.3-0.5-4.4c0.1,0,0.8,0.4,1.1,0.9c0,0.1,0.3,1.1,0.3,1.1c0.1,0.2,0.4,0.4,0.5,0.5c0.2,0.3,0.2,0.6,0.4,0.8
		c0.1,0.1,0.3,0,0.3,0.1c0.1,0.1,0.3,0.5,0.4,0.6c0.1,1.3,0.5,2.5,0.8,2.9c0.3,0.4,1,0.9,1.2,1.2l0.2,0.5c0.3,0.4,0.9,0.1,1,0.7
		c-0.3,0.4-0.6,0.3-0.9,0.9c-0.2,0.4-0.5,1.1,0.2,3.3c-0.1,0.1-0.4,0.5-0.6,1.1c0.5,0.2,1.1,0.7,1.4,1.5c0.3,0,0.5,0.2,0.5,0.2
		c0.1,0.3,0.6,0.4,0.7,0.9c-0.1,0.5,0.1,1.4,0.3,1.7c0.7,0.2,1.1,0.5,1.3,1.4c0.1,0.1,0.2,0.5,0.4,0.8c0.9,1.6,1.3,1.8,1.3,1.8
		c0.2,0.2,0.3,0.2,0.5,0.4c0.1,0.2,0.1,0.3,0.2,0.5c-0.3,0.2-0.6,0.4-0.7,0.6c-0.2,0.4,0,0.8-0.2,1.6c0,0.1-0.6,1-0.6,1
		c-0.2,0.5,0.1,1.3-0.6,1.5c-0.2-0.2-0.4-0.3-0.8-0.2c0,0.2,0,0.2-0.1,0.3c-0.1,0.2,0.4,1.5-0.3,1.7c-0.1-0.2-0.4-0.3-0.5-0.5
		C123,94.4,122.9,94,122.7,94 M122.9,106.8c1.2,0.7,1.4-0.1,2.1-0.3c-0.1-0.1,0-0.7,0.1-0.9c0.3,0,0.8,0,0.9,0.1
		c0.2-0.1,0.6-0.1,0.5-0.4c0-0.4,0.1-0.5,0.2-0.6c0.2-0.2,0.7-0.7,0.7-1c0.1-0.6-0.2-1.2-0.1-1.7c0.1-0.3,0.3-0.5,0.7-0.7
		c-0.5-0.6-1.4-0.6-1.7-2.1c-0.5,0.1-1.6,0-2.2-1c0,0,0.1-0.1,0-0.3c-0.2-0.7-0.8-0.7-1-1.2c-0.3-0.6,0.1-1.3-1.1-1.9
		c-0.4-0.2-0.9-0.4-1.1-0.8c-0.2,0.5,0.3,1.4,0.3,2.1c0,0.4-0.2,0.5-0.4,0.8c0,0.3-0.1,0.7-0.1,0.9c0.1,0.4,0.4,1,0.7,1.2
		c-0.2,0.4-0.3,1.5-0.3,2c0,0-0.3,0-0.2,0.3c-0.5,0.1-0.6,0.2-0.6,0.8c-0.2,0-0.5-0.2-0.7-0.2c-0.2,0-0.5,0.2-0.9,0.3
		c-0.2,0-0.5,0-1,0c-0.4,0.1-0.8,0.5-1,0.5c-0.2,0-1.1-0.1-1.4-0.2c-0.5,0.1-0.6,0.6-0.6,0.9c-0.7-0.1-2.1-0.9-2.4-1.3
		c-0.2,0.1-0.4,0.2-0.7,0.8c-0.5,0.8-1,0.6-1.6,0.5l-1,0.3c-0.7-0.6-1,0.2-1.4,0.3c0,0-0.8,0.1-0.9,0.5c-0.2,0.7-1.3,0.8-1.5,1.5
		c-0.3,0.1-2.7,0.1-2.7,0.1l0.1,0.1c-1.5-0.3-2.1,0.9-2.9,1.3c0,0-1.6,0.4-1.7,0.5c-0.4,0.7-0.6,0.2-0.9,0.2l-0.8,0.2
		c-0.9,0-1.9,0.2-2.4,0.7l0-0.2c-0.4,0.1-0.9,0.2-1.3,0.1l-1.5,0.3c0,0-1.2-0.4-1.5-0.5c-0.4,0-0.7,0.3-1.1,0.6
		c-0.5,0.4-0.9,0.4-1.2,0.2c-1.3,0.4-1.8,0.2-2.3-0.5c-1.5,0.3-2,1.3-2.6,1.5c-0.3,0.1-3.3,0-3.9,0.8c-0.3,0-0.9,0.2-1.1,0.4
		c-0.2,0.1-0.6,0.3-0.9,0.3c0,0,0.4,0.4,2.6-0.1c0.3-0.1,1,0.3,1.5,0.4c0.5,0.1,0.9,0.2,1.5,0.2c0.6,0.1,0.9,0.3,1.4,0.5
		c0.5,0.2,0.7,0.1,1.2-0.2c0.3-0.2,0.3-0.3,0.9-0.4c0.6-0.1,0.7-0.1,0.8-0.2c0.4-0.1,0.6-0.2,0.6-0.2c0,0,0.1,0.1,0.1,0.1
		c0.5-0.5,1.4,0.3,1.8,0.1c0.3-0.1,0.9-0.2,1.3-0.4c0.2-0.1,0.2-0.4,0.4-0.5c0,0,0.1,0,0.2,0.1c0,0,0.1-0.1,0.1-0.2
		c0.1,0,0.2,0,0.4,0c0.8-0.3,1.8,1,3.3,0.3c0.5-0.2,0.6-0.7,0.9-1c0,0,0.6,0,0.6,0c0.1-0.1,0.2-0.4,0.3-0.4c0.4-0.2,4.1,0.8,4.4,0.7
		c0.3-0.1,0.4-0.4,0.6-0.4c0.1,0,0.4,0.3,1,0.1c1.4-0.6,1.8-2.1,3-2.5c1-0.3,2-0.2,2.6,0c0.3-0.1,1-0.1,1.2,0
		c0.4-0.1,0.6-0.9,0.7-1.3c0.4-0.1,0.7,0.2,0.9,0.2c0.3-0.1,1.1-0.4,1.3-0.5l0,0.2c0.5-0.1,1.2-0.6,1.5-0.6c0.6,0,1.9,0.9,2.4,0.5
		c0.3-0.2,0.3-0.1,0.6,0c0.3,0.1,0.4,0.1,0.7,0c0.1,0,0.4,0.2,0.5,0.2c0,0,0.1,0,0.3-0.2c0.3,0.3,0.4-0.3,1.4,0.8
		c0,0,0.8-0.2,0.9-0.3c0.9,0.2,1.9,0.7,2,0.6C122.6,107.7,122.8,107,122.9,106.8"/>
	<path class="st3" d="M34.4,72c0,0.1,0,0.1,0,0.2c0,0.1-0.1,0.1-0.1,0.1l-8,1.8c-0.1,0-0.1,0-0.2,0c-0.1,0-0.1-0.1-0.1-0.2l-0.5-2
		c0-0.1,0-0.1,0-0.2c0-0.1,0.1-0.1,0.1-0.1l2.8-0.6c0.1,0,0.1-0.1,0.1-0.1c0-0.1,0-0.1,0-0.2l-0.7-2.9c0-0.1-0.1-0.1-0.1-0.2
		c-0.1,0-0.1-0.1-0.2,0l-2.8,0.6c-0.2,0-0.3,0-0.3-0.2l-0.5-2c0-0.2,0-0.3,0.2-0.3l8-1.8c0.2,0,0.3,0,0.3,0.2l0.5,2
		c0,0.2,0,0.3-0.2,0.3L30.1,67c-0.2,0-0.2,0.1-0.2,0.3l0.7,2.9c0,0.1,0.1,0.1,0.1,0.2c0.1,0,0.1,0,0.2,0l2.7-0.6c0.1,0,0.1,0,0.2,0
		c0.1,0,0.1,0.1,0.1,0.2L34.4,72z"/>
	<path class="st3" d="M34.9,82.1c0,0-0.1,0-0.1,0l-4.6-2.1c-0.1,0-0.1,0-0.2,0c-0.1,0-0.1,0-0.2,0l-2.1,0.5c-0.1,0-0.1,0-0.1,0
		c0,0-0.1-0.1-0.1-0.2L27,78.5c0-0.1,0-0.1,0-0.2c0-0.1,0.1-0.1,0.1-0.1l2.1-0.5c0.1,0,0.1,0,0.2-0.1c0.1,0,0.1-0.1,0.1-0.1l3.3-3.9
		c0,0,0.1-0.1,0.1,0c0,0,0.1,0.1,0.1,0.1l0.5,2c0,0.1,0,0.1,0,0.2c0,0.1,0,0.1-0.1,0.2l-2.1,2.4l2.9,1.2c0.1,0,0.1,0.1,0.1,0.1
		c0,0.1,0.1,0.1,0.1,0.2l0.5,2C34.9,82,34.9,82.1,34.9,82.1"/>
	<path class="st3" d="M35.9,90.9c0,0-0.1,0.1-0.1,0.1c-0.1,0-0.1,0.1-0.2,0.1l-0.3,0.1l-3.6,0.8L31.5,92c-0.1,0-0.1,0-0.2,0
		c-0.1,0-0.1,0-0.2,0l-1.2-1c0-0.1-0.1-0.1-0.1-0.2c0-0.1-0.1-0.2-0.1-0.2L29.6,90l-1-4.3l-0.2-0.9c0-0.2,0-0.3,0.1-0.3l0.8-0.2
		l4.8-1.1L35,83c0.1,0,0.1,0,0.1,0c0,0,0.1,0.1,0.1,0.2l0.2,0.8l0.9,3.8l0.3,1.1c0,0.1,0,0.2,0,0.2c0,0.1,0,0.2,0,0.2L35.9,90.9z
		 M34.3,86.8L34,85.7l-1,0.2l-1.7,0.4l-0.8,0.2l0.3,1.2l0.1,0.6l0.3,1.3l0.7-0.2l1.7-0.4l1-0.2l-0.3-1.3L34.3,86.8z"/>
	<path class="st3" d="M32.5,101.7c0,0-0.1,0.1-0.1,0c0,0-0.1-0.1-0.1-0.1l-0.5-2.1c0-0.1,0-0.1,0-0.2c0-0.1,0-0.1,0.1-0.2l1.5-1.9
		c0,0,0-0.1,0-0.1l-0.3-1.5c0,0,0-0.1-0.1-0.1L31.2,96c-0.1,0-0.2,0-0.2-0.2L30.6,94c0-0.2,0-0.3,0.1-0.3l3.1-0.7l1.7-0.4l1.6-0.4
		c0.1,0,0.1,0,0.1,0c0,0,0.1,0.1,0.1,0.2l1.3,5.7c0,0.1,0,0.2,0,0.2c0,0.1,0,0.2,0,0.2l-0.6,1.4c0,0-0.1,0.1-0.1,0.1
		c-0.1,0-0.1,0.1-0.2,0.1l-1.3,0.3l-0.7,0.2l-0.1,0c0,0-0.1,0-0.1,0c-0.1,0-0.1,0-0.2-0.1l-1.2-1L32.5,101.7z M36.9,97.9l-0.7-3.2
		l-1.6,0.4l0.4,1.5l0.3,1.4l0,0l0.1,0.2l0.1,0l1.1-0.3L36.9,97.9z"/>
	<path class="st3" d="M40.2,109.4c0,0-0.1,0.1-0.1,0.1c-0.1,0-0.1,0.1-0.2,0.1l-0.2,0l-3.5,0.8l-0.5,0.1c-0.1,0-0.1,0-0.2,0
		c-0.1,0-0.1,0-0.2,0l-1.2-1c0-0.1-0.1-0.1-0.1-0.2c0-0.1-0.1-0.2-0.1-0.2l-0.1-0.3l-0.7-3.2l-0.2-0.7c0-0.1,0-0.2,0-0.2
		c0-0.1,0-0.2,0-0.2l0.6-1.4c0,0,0.1-0.1,0.1-0.1c0.1,0,0.1-0.1,0.2-0.1l0.2,0l3.4-0.8l0.5-0.1c0.1,0,0.1,0,0.2,0c0.1,0,0.1,0,0.2,0
		l1.2,1c0,0.1,0.1,0.1,0.1,0.2c0,0.1,0.1,0.2,0.1,0.2l0.1,0.6l0.6,2.8l0.2,0.8c0,0.1,0,0.2,0,0.2c0,0.1,0,0.2,0,0.2L40.2,109.4z
		 M39,107.3l-0.7-3.1l-3.5,0.8l0.7,3.1L39,107.3z"/>
	<path class="st3" d="M40.2,119.2c-0.1,0-0.1,0.1-0.2,0.1l-0.3,0.1l-0.9,0.2l-0.6,0.1c-0.1,0-0.1,0-0.2,0c-0.1,0-0.2,0-0.2,0
		l-1.4-1.1c0-0.1-0.1-0.1-0.1-0.2c0-0.1-0.1-0.2-0.1-0.3l-0.1-0.3l-0.8-3.3l-0.4-1.9c0-0.2,0-0.3,0.2-0.3l1.5-0.3c0.1,0,0.1,0,0.2,0
		c0.1,0,0.1,0.1,0.1,0.2l0.5,2.3l0.3,1.2l0.3,1.4c0,0.1,0.1,0.1,0.1,0.2c0.1,0,0.1,0.1,0.2,0l1-0.2c0.1,0,0.1-0.1,0.1-0.1
		c0-0.1,0-0.1,0-0.2l-0.3-1.3l-0.4-1.7l0-0.2c0-0.1,0-0.2,0-0.3c0-0.1,0-0.2,0-0.3l0.8-1.6c0.1-0.1,0.1-0.1,0.2-0.1
		c0.1,0,0.1-0.1,0.2-0.1l0.2-0.1l1.4-0.3l0.2-0.1c0.1,0,0.1,0,0.2,0c0.1,0,0.2,0,0.2,0l1.4,1.1c0,0.1,0.1,0.1,0.1,0.2
		c0,0.1,0.1,0.2,0.1,0.3l0.1,0.3l0.9,4l0.2,0.9c0,0.1,0,0.1,0,0.2c0,0.1-0.1,0.1-0.1,0.1l-1.5,0.3c-0.1,0-0.1,0-0.2,0
		c-0.1,0-0.1-0.1-0.1-0.2l-0.2-1l-0.6-2.7l-0.2-0.9c0-0.1-0.1-0.1-0.1-0.2c-0.1,0-0.1-0.1-0.2,0l-1,0.2c-0.1,0-0.1,0.1-0.1,0.1
		c0,0.1,0,0.1,0,0.2l0.2,0.9l0.5,2l0.1,0.3c0,0.1,0,0.2,0,0.3c0,0.1,0,0.2,0,0.3l-0.8,1.6C40.4,119.1,40.3,119.1,40.2,119.2"/>
	<path class="st3" d="M44.3,127c0,0-0.1,0.1-0.1,0.1c-0.1,0-0.1,0.1-0.2,0.1l-0.3,0.1l-1.7,0.4l-0.2,0c-0.1,0-0.1,0-0.2,0
		c-0.1,0-0.1,0-0.2,0l-1.2-1c0-0.1-0.1-0.1-0.1-0.2c0-0.1-0.1-0.2-0.1-0.2l-0.1-0.4l-0.2-1l-0.3-1.3c0-0.1,0-0.1-0.1-0.2
		c0,0-0.1-0.1-0.1,0l-1.6,0.4c-0.1,0-0.2,0-0.2-0.2l-0.4-1.8c0-0.2,0-0.3,0.1-0.3l0.9-0.2l4-0.9l1.5-0.3c0.1,0,0.1,0,0.1,0
		c0,0,0.1,0.1,0.1,0.2l0.9,4l0.2,0.7l0.1,0.3c0,0.1,0,0.2,0,0.2c0,0.1,0,0.2,0,0.2L44.3,127z M43.2,125l-0.6-2.6l-1.7,0.4l0.6,2.6
		L43.2,125z"/>
	<path class="st3" d="M46.3,135.6c0,0-0.1,0.1-0.1,0.1c-0.1,0-0.1,0.1-0.2,0.1l-0.2,0l-3.5,0.8l-0.5,0.1c-0.1,0-0.1,0-0.2,0
		c-0.1,0-0.1,0-0.2,0l-1.2-1c0-0.1-0.1-0.1-0.1-0.2c0-0.1-0.1-0.2-0.1-0.2L40,135l-0.7-3.2l-0.2-0.7c0-0.1,0-0.2,0-0.2s0-0.2,0-0.2
		l0.6-1.4c0,0,0.1-0.1,0.1-0.1c0.1,0,0.1-0.1,0.2-0.1l0.2,0l3.4-0.8l0.5-0.1c0.1,0,0.1,0,0.2,0c0.1,0,0.1,0,0.2,0l1.2,1
		c0,0.1,0.1,0.1,0.1,0.2c0,0.1,0.1,0.2,0.1,0.2l0.1,0.6l0.6,2.8l0.2,0.8c0,0.1,0,0.2,0,0.2c0,0.1,0,0.2,0,0.2L46.3,135.6z
		 M45.1,133.6l-0.7-3.1l-3.5,0.8l0.7,3.1L45.1,133.6z"/>
	<path class="st3" d="M42.9,146.5c0,0-0.1,0.1-0.1,0c0,0-0.1-0.1-0.1-0.1l-0.5-2.1c0-0.1,0-0.1,0-0.2c0-0.1,0-0.1,0.1-0.2l1.5-1.9
		c0,0,0-0.1,0-0.1l-0.3-1.5c0,0,0-0.1-0.1-0.1l-1.8,0.4c-0.1,0-0.2,0-0.2-0.2l-0.4-1.8c0-0.2,0-0.3,0.1-0.3l3.1-0.7l1.7-0.4l1.6-0.4
		c0.1,0,0.1,0,0.1,0c0,0,0.1,0.1,0.1,0.2l1.3,5.7c0,0.1,0,0.2,0,0.2c0,0.1,0,0.2,0,0.2l-0.6,1.4c0,0-0.1,0.1-0.1,0.1
		c-0.1,0-0.1,0.1-0.2,0.1l-1.3,0.3l-0.7,0.2l-0.1,0c0,0-0.1,0-0.1,0c-0.1,0-0.1,0-0.2-0.1l-1.2-1L42.9,146.5z M47.3,142.7l-0.7-3.2
		l-1.6,0.4l0.4,1.5l0.3,1.4l0,0l0.1,0.2l0.1,0l1.1-0.3L47.3,142.7z"/>
	<path class="st3" d="M49.8,153.2c-0.1,0-0.1,0-0.1,0s-0.1-0.1-0.1-0.2l-0.4-1.9c0-0.1,0-0.1-0.1-0.2c0,0-0.1-0.1-0.1,0l-4.8,1.1
		c-0.1,0-0.1,0-0.1,0c0,0-0.1-0.1-0.1-0.2l-0.4-1.8c0-0.1,0-0.1,0-0.2c0-0.1,0.1-0.1,0.1-0.1l4.8-1.1c0.1,0,0.1,0,0.1-0.1
		c0-0.1,0-0.1,0-0.2l-0.4-1.9c0-0.1,0-0.1,0-0.2c0-0.1,0.1-0.1,0.1-0.1l1.3-0.3c0.1,0,0.2,0,0.2,0.2l0.4,1.9l0.1,0.5l0.4,1.8
		l0.1,0.5l0.4,1.9c0,0.1,0,0.1,0,0.2c0,0.1-0.1,0.1-0.1,0.1L49.8,153.2z"/>
	<path class="st1" d="M24.2,65.5l8-1.8c0.2-0.1,0.5,0,0.6,0.4l0.5,2c0.1,0.4-0.1,0.6-0.3,0.6l-2.7,0.6c0,0,0,0,0,0l0.7,2.9l2.7-0.6
		c0.1,0,0.3,0,0.4,0.1c0.1,0.1,0.2,0.2,0.2,0.3l0.5,2c0,0.1,0,0.3,0,0.4c-0.1,0.1-0.2,0.2-0.3,0.2l-8,1.8c-0.1,0-0.3,0-0.4-0.1
		c-0.1-0.1-0.2-0.2-0.2-0.3l-0.5-2c0-0.1,0-0.3,0-0.4c0.1-0.1,0.2-0.2,0.3-0.2l2.8-0.6l-0.7-2.9c0,0,0,0,0,0l-2.8,0.7
		c-0.2,0.1-0.5,0-0.6-0.4l-0.5-2C23.8,65.7,24,65.5,24.2,65.5 M32.8,66.2C32.8,66.2,32.8,66.2,32.8,66.2l-0.5-2c0,0,0-0.1,0-0.1
		l-8,1.9c0,0,0,0,0,0l0.5,2c0,0,0,0.1,0,0.1l2.8-0.7c0.1,0,0.3,0,0.4,0.1c0.1,0.1,0.2,0.2,0.2,0.3l0.7,2.9c0,0.1,0,0.3,0,0.4
		c-0.1,0.1-0.2,0.2-0.3,0.2l-2.8,0.6c0,0,0,0,0,0l0.5,2c0,0,0,0,0,0l8-1.8c0,0,0,0,0,0l-0.5-2c0,0,0,0,0,0L31,70.7
		c-0.1,0-0.3,0-0.4-0.1c-0.1-0.1-0.2-0.2-0.2-0.3l-0.7-2.9c-0.1-0.4,0.1-0.6,0.3-0.6L32.8,66.2z"/>
	<path class="st1" d="M32.8,73.4c0.1,0,0.2,0,0.2,0c0.1,0.1,0.2,0.2,0.2,0.3l0.5,2c0,0.1,0,0.2,0,0.3c0,0.1-0.1,0.2-0.1,0.3
		l-1.9,2.1l2.6,1.1c0.1,0,0.2,0.1,0.3,0.2c0.1,0.1,0.1,0.2,0.1,0.3l0.5,2c0,0.1,0,0.3,0,0.3c0,0,0,0,0,0c-0.1,0.1-0.2,0.2-0.4,0.1
		l-4.6-2.1c0,0-0.1,0-0.1,0c-0.1,0-0.1,0-0.1,0l-2.1,0.5c-0.1,0-0.2,0-0.4-0.1c-0.1-0.1-0.2-0.2-0.2-0.3l-0.4-1.8c0-0.1,0-0.2,0-0.3
		c0.1-0.1,0.2-0.2,0.3-0.2l2.1-0.5c0,0,0,0,0.1,0c0,0,0.1,0,0.1-0.1l3.3-3.9C32.7,73.4,32.8,73.4,32.8,73.4 M33.2,76
		C33.2,76,33.2,75.9,33.2,76c0-0.1,0-0.1,0-0.2L32.8,74l-3.1,3.6c-0.1,0.1-0.1,0.1-0.2,0.2c-0.1,0.1-0.2,0.1-0.2,0.1l-2.1,0.5
		l0.4,1.8c0,0,0,0,0,0l2.1-0.5c0.1,0,0.2,0,0.3,0c0.1,0,0.2,0,0.3,0.1l4.4,1.9L34.2,80c0,0,0-0.1-0.1-0.1c0,0,0-0.1-0.1-0.1
		l-2.9-1.2c-0.1,0-0.1-0.1-0.1-0.2c0-0.1,0-0.2,0.1-0.2L33.2,76L33.2,76z"/>
	<path class="st1" d="M28.5,84.3l6.4-1.5c0.1,0,0.3,0,0.4,0.1c0.1,0.1,0.1,0.2,0.2,0.3l1.3,5.7c0,0.1,0,0.2,0,0.3c0,0.1,0,0.2,0,0.3
		c0,0,0,0.1,0,0.1L36.2,91c0,0,0,0.1-0.1,0.1c0,0-0.1,0.1-0.2,0.1c-0.1,0.1-0.2,0.1-0.2,0.1l-4.2,1c-0.1,0-0.2,0-0.3,0
		c-0.1,0-0.2,0-0.2,0c0,0-0.1,0-0.1,0l-1.2-1c0,0,0,0,0,0c-0.1-0.1-0.1-0.2-0.1-0.3c0-0.1-0.1-0.2-0.1-0.3l-1.3-5.7
		C28.1,84.5,28.3,84.3,28.5,84.3 M35,83.3l-6.3,1.5c0,0,0,0,0,0l1.3,5.7c0,0.1,0,0.1,0.1,0.2c0,0.1,0,0.1,0.1,0.1l1.1,1
		c0,0,0.1,0,0.1,0c0.1,0,0.1,0,0.1,0l4.2-1c0,0,0,0,0.1,0c0,0,0.1,0,0.1-0.1l0.6-1.3c0,0,0-0.1,0-0.2c0-0.1,0-0.1,0-0.2L35,83.3
		C35,83.3,35,83.3,35,83.3 M30.5,86.3l3.5-0.8c0.1,0,0.3,0.1,0.3,0.2l0.7,3.1c0,0.1-0.1,0.3-0.2,0.3l-3.5,0.8
		c-0.1,0-0.3-0.1-0.3-0.2l-0.7-3.1C30.3,86.4,30.4,86.3,30.5,86.3 M30.8,86.7l0.6,2.6l3-0.7L33.9,86L30.8,86.7z"/>
	<path class="st1" d="M30.6,93.4L37,92c0.1,0,0.3,0,0.4,0.1c0.1,0.1,0.1,0.2,0.2,0.3l1.3,5.7c0,0.1,0,0.2,0,0.3c0,0.1,0,0.2,0,0.3
		c0,0,0,0.1,0,0.1l-0.6,1.4c0,0,0,0.1-0.1,0.1c0,0-0.1,0.1-0.2,0.1c-0.1,0.1-0.2,0.1-0.2,0.1l-2.1,0.5c-0.1,0-0.2,0-0.3,0
		c-0.1,0-0.1,0-0.2-0.1c0,0,0,0-0.1,0l-1-0.8l-1.5,1.9c0,0,0,0,0,0c-0.1,0.2-0.3,0.2-0.4,0.1c-0.1-0.1-0.2-0.2-0.2-0.3l-0.5-2.1
		c0-0.1,0-0.2,0-0.3c0-0.1,0.1-0.2,0.1-0.3l1.4-1.8l-0.3-1.3l-1.6,0.4c-0.2,0-0.4,0-0.5-0.4L30.3,94C30.2,93.7,30.4,93.5,30.6,93.4
		 M37.1,92.4l-6.3,1.5c0,0,0,0,0,0l0.4,1.8c0,0,0,0,0,0l1.7-0.4c0.1,0,0.3,0,0.4,0.2l0.3,1.5c0,0.2,0,0.3-0.1,0.3l-1.5,1.9
		c0,0,0,0,0,0.1c0,0,0,0.1,0,0.1l0.4,1.9l1.4-1.9c0-0.1,0.1-0.1,0.2-0.1c0.1,0,0.1,0,0.2,0.1l1.2,1c0,0,0.1,0,0.1,0c0,0,0,0,0,0
		l2.1-0.5c0,0,0,0,0.1,0c0,0,0.1,0,0.1-0.1l0.6-1.3c0,0,0-0.1,0-0.2c0-0.1,0-0.1,0-0.2L37.1,92.4C37.1,92.5,37.1,92.4,37.1,92.4
		 M33.2,97.1L33.2,97.1C33.2,97.1,33.2,97.1,33.2,97.1 M34.5,94.9l1.6-0.4c0.1,0,0.3,0.1,0.3,0.2l0.7,3.2c0,0.1-0.1,0.3-0.2,0.3
		l-1.6,0.4c-0.1,0-0.3-0.1-0.3-0.2l-0.7-3.2C34.3,95.1,34.4,94.9,34.5,94.9 M34.8,95.3l0.6,2.7l1.2-0.3L36,95L34.8,95.3z"/>
	<path class="st1" d="M33.9,102.5l4.2-1c0.1,0,0.2,0,0.2,0c0.1,0,0.2,0,0.3,0.1c0,0,0,0,0.1,0l1.2,1c0,0,0,0,0.1,0.1
		c0,0.1,0.1,0.1,0.1,0.2c0,0.1,0.1,0.2,0.1,0.3l1,4.2c0,0.1,0,0.2,0,0.3c0,0.1,0,0.2,0,0.3c0,0,0,0.1,0,0.1l-0.6,1.4
		c0,0,0,0.1-0.1,0.1c0,0-0.1,0.1-0.2,0.1c-0.1,0.1-0.2,0.1-0.2,0.1l-4.2,1c-0.1,0-0.2,0-0.3,0c-0.1,0-0.2,0-0.2,0c0,0-0.1,0-0.1,0
		l-1.2-1c0,0,0,0,0,0c-0.1-0.1-0.1-0.2-0.1-0.3c0-0.1-0.1-0.2-0.1-0.3l-1-4.2c0-0.1,0-0.2,0-0.3c0-0.1,0-0.2,0-0.3c0,0,0,0,0-0.1
		l0.6-1.4c0,0,0,0,0-0.1c0.1-0.1,0.1-0.1,0.2-0.2C33.8,102.6,33.8,102.6,33.9,102.5 M38.4,102.1C38.3,102.1,38.3,102.1,38.4,102.1
		c-0.1,0-0.2,0-0.2,0l-4.2,1c0,0-0.1,0-0.1,0c0,0,0,0-0.1,0l-0.6,1.4c0,0,0,0.1,0,0.2c0,0.1,0,0.1,0,0.2l1,4.2c0,0.1,0,0.1,0.1,0.2
		c0,0.1,0,0.1,0.1,0.1l1.1,1c0,0,0.1,0,0.1,0c0.1,0,0.1,0,0.1,0l4.2-1c0,0,0,0,0.1,0c0,0,0.1,0,0.1-0.1l0.6-1.3c0,0,0-0.1,0-0.2
		c0-0.1,0-0.1,0-0.2l-1-4.2c0-0.1,0-0.1-0.1-0.2c0-0.1,0-0.1-0.1-0.2L38.4,102.1z M34.8,104.8l3.5-0.8c0.1,0,0.3,0.1,0.3,0.2
		l0.7,3.1c0,0.1-0.1,0.3-0.2,0.3l-3.5,0.8c-0.1,0-0.3-0.1-0.3-0.2l-0.7-3.1C34.6,105,34.6,104.8,34.8,104.8 M35.1,105.2l0.6,2.6
		l3-0.7l-0.6-2.6L35.1,105.2z"/>
	<path class="st1" d="M35,112l1.5-0.3c0.1,0,0.3,0,0.4,0.1c0.1,0.1,0.2,0.2,0.2,0.3l1.1,4.9c0,0,0,0,0,0l1-0.2c0,0,0,0,0,0l-0.7-3.2
		c0-0.1,0-0.2,0-0.3c0-0.1,0-0.2,0-0.3c0,0,0-0.1,0-0.1l0.8-1.6c0,0,0,0,0-0.1c0.1-0.1,0.2-0.1,0.3-0.2c0.1,0,0.2-0.1,0.3-0.1
		l1.8-0.4c0.1,0,0.2,0,0.3,0c0.1,0,0.2,0,0.3,0.1c0,0,0,0,0.1,0l1.4,1.1c0,0,0,0,0.1,0.1c0,0.1,0.1,0.2,0.1,0.3
		c0,0.1,0.1,0.2,0.1,0.3l1.2,5.2c0,0.1,0,0.3,0,0.4c-0.1,0.1-0.2,0.2-0.3,0.2l-1.5,0.3c-0.1,0-0.3,0-0.4-0.1
		c-0.1-0.1-0.2-0.2-0.2-0.3l-1.1-4.6c0,0,0,0,0,0l-0.9,0.2c0,0,0,0,0,0l0.7,3.2c0,0.1,0,0.2,0,0.3c0,0.1,0,0.2,0,0.3
		c0,0,0,0.1,0,0.1l-0.8,1.6c0,0,0,0.1-0.1,0.1c-0.1,0-0.1,0.1-0.2,0.1l0,0c-0.1,0.1-0.2,0.1-0.3,0.1l-1.8,0.4c-0.1,0-0.2,0-0.3,0
		c-0.1,0-0.2,0-0.3,0c0,0-0.1,0-0.1,0l-1.4-1.1c0,0,0,0,0,0c-0.1-0.1-0.1-0.2-0.2-0.3c0-0.1-0.1-0.2-0.1-0.3l-1.3-5.5
		C34.5,112.3,34.7,112.1,35,112 M39.2,117.3l-1,0.2c-0.1,0-0.3,0-0.4-0.1c-0.1-0.1-0.2-0.2-0.2-0.3l-1.1-4.9c0,0,0,0,0,0l-1.4,0.3
		c0,0,0,0,0,0l1.3,5.5c0,0.1,0,0.1,0.1,0.2c0,0.1,0.1,0.1,0.1,0.2l1.3,1c0,0,0.1,0,0.1,0c0.1,0,0.1,0,0.2,0L40,119
		c0,0,0.1,0,0.1-0.1c0,0,0.1-0.1,0.1-0.1l0.8-1.5c0-0.1,0-0.1,0-0.2c0-0.1,0-0.2,0-0.2l-0.7-3.2c0-0.1,0-0.3,0-0.4
		c0.1-0.1,0.2-0.2,0.3-0.2l1-0.2c0.1,0,0.3,0,0.4,0.1c0.1,0.1,0.2,0.2,0.2,0.3l1.1,4.6c0,0,0,0,0,0l1.5-0.3c0,0,0,0,0,0l-1.2-5.2
		c0-0.1,0-0.1-0.1-0.2c0-0.1-0.1-0.1-0.1-0.2l-1.4-1c0,0-0.1,0-0.1,0c-0.1,0-0.1,0-0.2,0l-1.8,0.4c0,0-0.1,0-0.2,0.1
		c0,0-0.1,0-0.1,0.1l-0.8,1.5c0,0.1,0,0.1,0,0.2c0,0.1,0,0.2,0,0.2l0.7,3.2c0,0.1,0,0.3,0,0.4C39.5,117.2,39.4,117.3,39.2,117.3"/>
	<path class="st1" d="M37,121.2l6.4-1.5c0.1,0,0.3,0,0.4,0.1c0.1,0.1,0.1,0.2,0.2,0.3l1.2,5c0,0.1,0,0.2,0,0.3c0,0.1,0,0.2,0,0.3
		c0,0,0,0.1,0,0.1l-0.6,1.4c0,0,0,0.1-0.1,0.1c0,0-0.1,0.1-0.2,0.1c-0.1,0.1-0.2,0.1-0.2,0.1l-2.2,0.5c-0.1,0-0.2,0-0.3,0
		c-0.1,0-0.2,0-0.2,0c0,0-0.1,0-0.1,0l-1.2-1c0,0,0,0-0.1-0.1c0-0.1-0.1-0.1-0.1-0.2c0-0.1-0.1-0.2-0.1-0.3l-0.6-2.7c0,0,0,0,0,0
		l-1.5,0.4c-0.2,0-0.4,0-0.5-0.4l-0.4-1.8C36.6,121.4,36.8,121.2,37,121.2 M43.5,120.2l-6.3,1.5c0,0,0,0,0,0l0.4,1.8c0,0,0,0,0,0
		l1.5-0.4c0.1,0,0.3,0,0.4,0.1c0.1,0.1,0.1,0.2,0.2,0.3l0.6,2.7c0,0.1,0,0.1,0.1,0.2c0,0.1,0.1,0.1,0.1,0.2l1.1,0.9c0,0,0.1,0,0.1,0
		c0.1,0,0.1,0,0.1,0l2.2-0.5c0,0,0,0,0.1,0c0,0,0.1,0,0.1-0.1l0.6-1.3c0,0,0-0.1,0-0.2c0-0.1,0-0.1,0-0.2L43.5,120.2
		C43.5,120.2,43.5,120.2,43.5,120.2 M40.9,122.6l1.7-0.4c0.1,0,0.3,0.1,0.3,0.2l0.6,2.6c0,0.1-0.1,0.3-0.2,0.3l-1.7,0.4
		c-0.1,0-0.3-0.1-0.3-0.2l-0.6-2.6C40.7,122.8,40.7,122.6,40.9,122.6 M41.2,123l0.5,2.1l1.2-0.3l-0.5-2.1L41.2,123z"/>
	<path class="st1" d="M40,128.8l4.2-1c0.1,0,0.2,0,0.2,0c0.1,0,0.2,0,0.3,0.1c0,0,0,0,0.1,0l1.2,1c0,0,0,0,0.1,0.1
		c0,0.1,0.1,0.1,0.1,0.2c0,0.1,0.1,0.2,0.1,0.3l1,4.2c0,0.1,0,0.2,0,0.3c0,0.1,0,0.2,0,0.3c0,0,0,0.1,0,0.1l-0.6,1.4
		c0,0,0,0.1-0.1,0.1c0,0-0.1,0.1-0.2,0.1c-0.1,0.1-0.2,0.1-0.2,0.1l-4.2,1c-0.1,0-0.2,0-0.3,0c-0.1,0-0.2,0-0.2,0c0,0-0.1,0-0.1,0
		l-1.2-1c0,0,0,0,0,0c-0.1-0.1-0.1-0.2-0.1-0.3c0-0.1-0.1-0.2-0.1-0.3l-1-4.2c0-0.1,0-0.2,0-0.3c0-0.1,0-0.2,0-0.3c0,0,0,0,0-0.1
		l0.6-1.4c0,0,0,0,0-0.1c0.1-0.1,0.1-0.1,0.2-0.2C39.8,128.8,39.9,128.8,40,128.8 M44.4,128.3C44.4,128.3,44.4,128.3,44.4,128.3
		c-0.1,0-0.2,0-0.2,0l-4.2,1c0,0-0.1,0-0.1,0c0,0,0,0-0.1,0l-0.6,1.4c0,0,0,0.1,0,0.2c0,0.1,0,0.1,0,0.2l1,4.2c0,0.1,0,0.1,0.1,0.2
		c0,0.1,0,0.1,0.1,0.1l1.1,1c0,0,0.1,0,0.1,0c0.1,0,0.1,0,0.1,0l4.2-1c0,0,0,0,0.1,0c0,0,0.1,0,0.1-0.1l0.6-1.3c0,0,0-0.1,0-0.2
		c0-0.1,0-0.1,0-0.2l-1-4.2c0-0.1,0-0.1-0.1-0.2c0-0.1,0-0.1-0.1-0.2L44.4,128.3z M40.8,131l3.5-0.8c0.1,0,0.3,0.1,0.3,0.2l0.7,3.1
		c0,0.1-0.1,0.3-0.2,0.3l-3.5,0.8c-0.1,0-0.3-0.1-0.3-0.2l-0.7-3.1C40.6,131.2,40.7,131.1,40.8,131 M41.2,131.5l0.6,2.6l3-0.7
		l-0.6-2.6L41.2,131.5z"/>
	<path class="st1" d="M41,138.2l6.4-1.5c0.1,0,0.3,0,0.4,0.1c0.1,0.1,0.1,0.2,0.2,0.3l1.3,5.7c0,0.1,0,0.2,0,0.3c0,0.1,0,0.2,0,0.3
		c0,0,0,0.1,0,0.1l-0.6,1.4c0,0,0,0.1-0.1,0.1c0,0-0.1,0.1-0.2,0.1c-0.1,0.1-0.2,0.1-0.2,0.1l-2.1,0.5c-0.1,0-0.2,0-0.3,0
		c-0.1,0-0.1,0-0.2-0.1c0,0,0,0-0.1,0l-1-0.8l-1.5,1.9c0,0,0,0,0,0c-0.1,0.2-0.3,0.2-0.4,0.1c-0.1-0.1-0.2-0.2-0.2-0.3l-0.5-2.1
		c0-0.1,0-0.2,0-0.3c0-0.1,0.1-0.2,0.1-0.3l1.4-1.8l-0.3-1.3l-1.6,0.4c-0.2,0-0.5,0-0.5-0.4l-0.4-1.8
		C40.6,138.4,40.8,138.3,41,138.2 M47.4,137.2l-6.3,1.5c0,0,0,0,0,0l0.4,1.8c0,0,0,0,0,0l1.7-0.4c0.1,0,0.3,0,0.4,0.2l0.3,1.5
		c0,0.2,0,0.3-0.1,0.3l-1.5,1.9c0,0,0,0,0,0.1c0,0,0,0.1,0,0.1l0.4,1.9l1.4-1.9c0-0.1,0.1-0.1,0.2-0.1c0.1,0,0.1,0,0.2,0.1l1.2,1
		c0,0,0.1,0,0.1,0c0,0,0,0,0,0l2.1-0.5c0,0,0,0,0.1,0c0,0,0.1,0,0.1-0.1l0.6-1.3c0,0,0-0.1,0-0.2c0-0.1,0-0.1,0-0.2L47.4,137.2
		C47.4,137.2,47.4,137.2,47.4,137.2 M43.5,141.9L43.5,141.9C43.6,141.9,43.5,141.9,43.5,141.9 M44.8,139.7l1.6-0.4
		c0.1,0,0.3,0.1,0.3,0.2l0.7,3.2c0,0.1-0.1,0.3-0.2,0.3l-1.6,0.4c-0.1,0-0.3-0.1-0.3-0.2l-0.7-3.2C44.6,139.8,44.7,139.7,44.8,139.7
		 M45.2,140.1l0.6,2.7l1.2-0.3l-0.6-2.7L45.2,140.1z"/>
	<path class="st1" d="M48.1,145.9l1.3-0.3c0.2,0,0.4,0,0.5,0.4l1.5,6.6c0,0.1,0,0.2,0,0.3c-0.1,0.1-0.2,0.2-0.3,0.2l-1.3,0.3
		c-0.1,0-0.3,0-0.4-0.1c-0.1-0.1-0.1-0.2-0.2-0.3l-0.4-1.9c0,0,0,0,0,0l-4.7,1.1c-0.1,0-0.2,0-0.3-0.1c-0.1-0.1-0.2-0.2-0.2-0.3
		l-0.4-1.8c0-0.1,0-0.2,0-0.3c0.1-0.1,0.2-0.2,0.3-0.2l4.7-1.1l-0.4-1.9c0-0.1,0-0.2,0-0.3C47.9,146,48,145.9,48.1,145.9
		 M49.5,146.1l-1.2,0.3l0.4,1.9c0,0.1,0,0.2,0,0.3c-0.1,0.1-0.2,0.2-0.3,0.2l-4.7,1.1l0.4,1.8c0,0,0,0,0,0l4.7-1.1
		c0.1,0,0.3,0,0.4,0.1c0.1,0.1,0.1,0.2,0.2,0.3l0.4,1.9c0,0,0,0,0,0l1.2-0.3L49.5,146.1C49.5,146.1,49.5,146.1,49.5,146.1
		 M44.1,151.8L44.1,151.8L44.1,151.8z M48.9,151.1L48.9,151.1L48.9,151.1z"/>
	<path class="st1" d="M36.8,70.7C36.8,70.7,36.8,70.6,36.8,70.7c-0.1-0.4,0.2-0.7,0.5-0.8l1-0.2c1.6-0.4,4.8-1.1,7.2-1.7
		c1.7-0.4,2.4-0.6,2.8-0.6c-1.6-0.9-4.6-2.2-6.1-2.6c-0.1,0.1-0.4,0.4-0.4,0.6L41.5,66L41,65.4c-0.3-0.4-0.4-0.6-0.5-0.8
		c-0.1-0.2-0.1-0.2-0.2-0.2c-0.3-0.1-0.4-0.3-0.4-0.5l0,0c-0.1-0.3,0.1-0.6,0.4-0.9c0.9-1,1.7-2,2.5-2.9c0.6-0.7,1.1-1.3,1.5-1.8
		c-1.2,0.3-3.1,0.7-4.6,1.1c-1.8,0.4-2,0.5-2,0.5c0,0-0.1,0-0.1,0c-0.4,0.1-0.7-0.1-0.8-0.5c0,0,0,0,0,0c-0.1-0.3,0-0.7,0.4-0.8
		c0.1-0.1,0.4-0.4,0.5-0.7c0.1-0.3,0.4-0.6,0.8-0.7c0.3-0.1,0.7,0,1.1,0.2c0.2,0,1.7-0.1,3.9-0.6c1.3-0.3,1.7-0.5,1.8-0.5
		c0.2-0.1,0.3-0.2,0.4-0.2c0.2-0.1,0.3-0.2,0.6-0.6l0.4-0.7l0.4,0.6c0.2,0.3,0.5,0.6,0.7,0.9c0.2,0.2,0.4,0.4,0.5,0.7l0.2,0.2
		l-0.1,0.3c-0.3,0.9-4.2,5.2-5.1,6.2c1.1,0.4,4.7,1.7,6.3,2.9c0,0,0.1,0.1,0.1,0.1c0,0,0.1,0.1,0.1,0.1c0,0,0.1,0,0.1,0
		c0.3-0.1,0.5,0,0.7,0.3c0.1,0.1,0.2,0.3,0.2,0.4c0,0.2,0,0.4-0.1,0.7c-0.2,0.5-0.5,1.3-0.6,1.9c-0.1,0.5-0.4,0.7-0.6,0.7
		c-0.3,0.1-0.6-0.1-0.8-0.5c0,0,0,0-0.1,0l-0.3,0.1c-0.4,0.1-1.3,0.3-2.3,0.5c-5.2,1.2-5.8,1.5-5.9,1.5c-0.1,0.1-0.2,0.1-0.2,0.2
		c-0.2,0.2-0.4,0.3-0.7,0.4c-0.3,0.1-0.6,0-0.8-0.3c-0.1-0.1-0.3-0.3-0.5-0.5c-0.2-0.2-0.5-0.5-0.6-0.6
		C37.1,71.2,36.8,70.9,36.8,70.7"/>
	<path class="st4" d="M50.7,67.3c0,0.2,0,0.3-0.1,0.5c-0.2,0.6-0.5,1.4-0.7,2c-0.1,0.4-0.3,0.5-0.4,0.5c-0.2,0-0.5-0.1-0.6-0.5
		c0,0,0-0.1-0.3-0.1c0,0-0.1,0-0.3,0.1c-0.4,0.1-1.3,0.3-2.3,0.5c-5.1,1.2-5.8,1.5-5.9,1.5c-0.1,0.1-0.2,0.1-0.2,0.2
		c-0.2,0.2-0.4,0.3-0.6,0.3c-0.3,0.1-0.5-0.1-0.7-0.2c-0.1-0.1-0.3-0.3-0.5-0.5c-0.2-0.2-0.6-0.6-0.7-0.7c-0.3,0-0.5-0.2-0.5-0.4
		c0,0,0,0,0-0.1c0-0.3,0.1-0.5,0.4-0.5c0.1,0,0.5-0.1,1-0.2c1.6-0.4,4.8-1.1,7.2-1.7c2.5-0.6,2.9-0.7,3-0.7c0,0,0.1,0,0.1,0
		c0.1,0,0.1,0,0.1,0c-1.4-0.9-5.1-2.5-6.7-2.9c-0.1,0.1-0.5,0.5-0.6,0.7l-0.2,0.4l-0.3-0.3c-0.3-0.4-0.4-0.6-0.5-0.8
		c-0.1-0.2-0.1-0.2-0.2-0.3c-0.2-0.1-0.3-0.2-0.3-0.4c0,0,0,0,0,0c0-0.2,0.1-0.5,0.3-0.7c0.9-1,1.7-2,2.5-2.9
		c0.7-0.8,1.4-1.6,1.8-2.1c0-0.1,0.1-0.1,0.1-0.1c-0.1,0-0.2,0-0.3,0.1c-1.1,0.3-3.3,0.7-4.9,1.1c-1.6,0.4-2,0.5-2,0.5
		c0,0-0.1,0-0.1,0c-0.2,0.1-0.5-0.1-0.6-0.3c0,0,0,0,0,0c-0.1-0.2,0-0.5,0.3-0.6c0.1-0.1,0.4-0.5,0.6-0.8c0.1-0.3,0.3-0.5,0.6-0.5
		c0.3-0.1,0.7,0,1,0.2c0.3,0.1,2-0.1,4.1-0.6c1.3-0.3,1.8-0.5,1.8-0.5c0.1-0.1,0.3-0.2,0.4-0.2c0.2-0.1,0.4-0.2,0.7-0.7l0.2-0.4
		l0.3,0.3c0.2,0.3,0.5,0.6,0.7,0.9c0.2,0.2,0.4,0.4,0.5,0.6l0.1,0.1l-0.1,0.1c-0.4,1-5.2,6.3-5.2,6.3c0,0,0,0,0,0
		c1.8,0.6,5.1,1.9,6.5,3c0,0,0.1,0.1,0.1,0.1c0.1,0,0.2,0.1,0.2,0.2c0,0,0.1-0.1,0.2-0.1c0.2,0,0.4,0,0.5,0.2
		C50.6,67.1,50.6,67.2,50.7,67.3 M51.1,67.2L51.1,67.2c0-0.2-0.1-0.4-0.2-0.5c-0.2-0.3-0.6-0.4-0.9-0.3c0,0,0,0,0,0c0,0,0,0,0,0
		c-0.1,0-0.1-0.1-0.1-0.1c-1.5-1.1-4.7-2.4-6.1-2.9c1.2-1.3,4.6-5.1,4.9-6l0.1-0.1l0.1-0.2l-0.1-0.2l-0.1-0.1
		c-0.2-0.2-0.4-0.4-0.5-0.7c-0.3-0.3-0.5-0.6-0.7-0.9l-0.3-0.3l-0.4-0.5l-0.3,0.6L46,55.2c-0.2,0.4-0.3,0.4-0.5,0.5
		c-0.1,0.1-0.3,0.1-0.4,0.2c0,0-0.4,0.2-1.7,0.5c-2.1,0.5-3.5,0.7-3.8,0.6c-0.4-0.2-0.8-0.3-1.2-0.2c-0.4,0.1-0.8,0.4-0.9,0.8
		c-0.1,0.2-0.3,0.5-0.4,0.6c-0.5,0.2-0.6,0.7-0.5,1c0,0,0,0,0,0.1c0.1,0.5,0.6,0.7,1,0.6c0,0,0.1,0,0.1,0c0,0,0.3-0.1,2-0.5
		c1.3-0.3,2.9-0.7,4.1-0.9c-0.3,0.4-0.7,0.8-1.1,1.3c-0.8,0.9-1.7,1.9-2.5,2.9c-0.2,0.2-0.5,0.6-0.4,1l0,0c0,0.2,0.2,0.4,0.5,0.6
		c0,0,0,0,0,0c0,0,0,0.1,0.1,0.1c0.1,0.2,0.2,0.5,0.5,0.9l0.3,0.3l0.4,0.5l0.3-0.6l0.2-0.4c0.1-0.1,0.2-0.3,0.3-0.4
		c1.3,0.4,3.8,1.4,5.4,2.3c-0.4,0.1-1.1,0.3-2.2,0.5c-2.4,0.6-5.7,1.3-7.2,1.7l0,0c-0.5,0.1-0.9,0.2-1,0.2c-0.4,0.1-0.7,0.5-0.7,1
		c0,0,0,0.1,0,0.1c0.1,0.4,0.4,0.6,0.7,0.7c0.1,0.1,0.4,0.4,0.6,0.6c0.2,0.2,0.4,0.4,0.5,0.5c0.3,0.3,0.7,0.4,1,0.3
		c0.3-0.1,0.5-0.2,0.7-0.4c0.1,0,0.1-0.1,0.2-0.2c0.1-0.1,0.9-0.3,5.8-1.5c1-0.2,1.9-0.4,2.3-0.5c0.1,0,0.1,0,0.2,0
		c0.2,0.5,0.6,0.6,1,0.5c0.2,0,0.6-0.2,0.7-0.8l0,0l0,0c0.1-0.6,0.4-1.4,0.6-1.9C51.1,67.8,51.1,67.5,51.1,67.2"/>
	<path class="st1" d="M45.7,108.1c0-0.2-0.2-1.1,0.1-1.4c0.1-0.1,0.3-0.2,0.4-0.2c0,0,0.1,0,0.1,0c0,0,0,0,0,0
		c0.2-0.4,0.4-0.7,0.6-1.1c0.2-0.4,0.4-0.8,0.6-1.3c0.1-0.2,0.3-0.4,0.5-0.5c0.3-0.1,0.6,0.1,0.9,0.3c0.1,0.1,0.2,0.3,0.2,0.4
		c0.1,0.3,0,0.6-0.1,0.9c-0.2,0.5-0.5,1.1-0.6,1.5c-0.1,0.1-0.1,0.3-0.1,0.3c-0.1,0.2-0.1,0.4,0,0.6c0,0.2,0.1,0.5,0.4,0.7
		c0.7,0.7,4.5,1.2,6,1.1c0,0,0.1,0,0.1,0c0.1,0,0.2-0.1,0.2-0.2c0-0.1,0-0.1,0-0.2c0,0,0-0.1-0.1-0.3c0-0.2-0.1-0.5-0.2-0.8
		c-0.1-0.3-0.2-0.7-0.2-1c-0.1-0.3-0.1-0.3-0.1-0.3c-0.2-0.4-0.3-0.6-0.5-0.7c-0.2-0.1-0.4-0.3-0.5-0.7c0,0,0,0,0-0.1
		c-0.1-0.3,0.1-0.6,0.3-0.8c0.2-0.2,0.5-0.5,0.8-0.9c0.6-0.6,1.2-1.2,1.5-1.5l0,0c0,0,0,0,0,0c0.1-0.1,0.2-0.2,0.4-0.3
		c0.3-0.1,0.5,0.1,0.7,0.4c0.1,0.2,0.2,0.2,0.4,0.4c0.1,0.1,0.2,0.2,0.4,0.3c0.2,0.1,0.2,0.3,0.3,0.5c0,0.2,0,0.4,0,0.5
		c0,0.1,0,0.1,0,0.2c0,0,0.1,0.1,0.2,0.3l0,0c0.2,0.3,0.4,0.8,0.7,1.4c0.3,0.6,0.7,1.4,0.9,1.7l0.1,0.1c0.2,0.3,0.4,0.5,0.5,0.8
		c0,0.2,0,0.4,0,0.7c-0.1,0.3-0.2,0.5-0.3,0.8c-0.2,0.5-0.4,1.1-0.4,1.7c0,0.3-0.2,0.6-0.5,0.7c-0.2,0-0.4,0-0.6-0.1
		c-0.1-0.1-0.2-0.3-0.3-0.5c0-0.1,0-0.1,0-0.2c0,0,0-0.1,0-0.2c0-0.2,0-0.5-0.1-0.8c0-0.1,0-0.1,0-0.1c-0.1-0.2-0.1-0.3-0.2-0.4
		c-0.2-0.4-0.4-0.7-0.6-1.7c-0.1-0.2-0.1-0.8-0.2-1.3c0-0.4-0.1-0.8-0.1-1l-0.1-0.2c0-0.1-0.1-0.3-0.1-0.4c-0.3,0.3-0.9,0.8-1.1,1.1
		c0,0.2,0.1,0.5,0.2,0.9c0.1,0.6,0.3,1.2,0.4,1.7c0.1,0.3,0.1,0.5,0.2,0.6c0.1,0.3,0.2,0.5,0.4,0.7c0.1,0.1,0.2,0.3,0.3,0.5
		c0.1,0.4,0,0.8-0.3,1c-0.2,0.3-0.4,0.7-0.5,1.1c-0.1,0.5-0.4,0.7-0.6,0.7c-0.3,0.1-0.5,0-0.7-0.1c-0.1,0-0.2-0.1-0.2-0.1l-0.1,0
		C52.6,112.8,46.6,111.7,45.7,108.1"/>
	<path class="st4" d="M60.2,108.1c0,0.2,0,0.4,0,0.6c-0.1,0.2-0.1,0.5-0.3,0.8c-0.2,0.5-0.4,1.1-0.4,1.8c0,0.2-0.1,0.4-0.3,0.4
		c-0.1,0-0.3,0-0.4-0.1c-0.1-0.1-0.2-0.2-0.2-0.3c0-0.1,0-0.1,0-0.2c0,0,0-0.1,0-0.2c0-0.2,0-0.6-0.1-0.8c0-0.1,0-0.1-0.1-0.2
		c-0.1-0.2-0.1-0.3-0.2-0.4c-0.2-0.4-0.4-0.7-0.6-1.7c-0.1-0.2-0.1-0.8-0.2-1.3c0-0.4-0.1-0.8-0.1-1c0,0,0,0,0,0
		c0-0.1,0-0.1-0.1-0.2c-0.1-0.2-0.2-0.5-0.2-0.6l0,0l0,0c-0.2,0.1-1.1,0.9-1.4,1.4c0,0.2,0.1,0.6,0.2,1c0.1,0.6,0.3,1.2,0.4,1.7
		c0.1,0.3,0.1,0.5,0.2,0.6c0.1,0.4,0.2,0.6,0.5,0.8c0.1,0.1,0.2,0.3,0.2,0.4c0.1,0.3,0,0.6-0.2,0.9c-0.3,0.3-0.4,0.8-0.5,1.2
		c-0.1,0.3-0.2,0.5-0.5,0.6c-0.2,0-0.4,0-0.6-0.1c-0.1,0-0.2-0.1-0.3-0.1l-0.1,0c-2.2-0.4-8.2-1.5-9-5c0,0-0.2-0.9,0-1.2
		c0.1-0.1,0.2-0.1,0.3-0.2c0.1,0,0.2-0.1,0.2-0.2c0.1-0.4,0.3-0.7,0.5-1.1c0.2-0.4,0.4-0.8,0.6-1.3c0.1-0.2,0.2-0.3,0.4-0.3
		c0.2-0.1,0.5,0.1,0.6,0.3c0.1,0.1,0.1,0.2,0.2,0.4c0.1,0.2,0,0.5-0.1,0.8c-0.2,0.5-0.5,1.1-0.6,1.5c-0.1,0.1-0.1,0.3-0.1,0.3
		c-0.1,0.2-0.1,0.5,0,0.8c0.1,0.3,0.2,0.6,0.5,0.8c0.8,0.7,4.6,1.3,6.2,1.2c0,0,0.1,0,0.1,0c0.2,0,0.3-0.1,0.4-0.3
		c0.1-0.1,0.1-0.2,0.1-0.3c0,0,0,0,0,0c0,0,0-0.1-0.1-0.3c0-0.2-0.1-0.5-0.2-0.8c-0.1-0.3-0.2-0.7-0.2-1c0-0.2-0.1-0.3-0.1-0.4
		c-0.2-0.4-0.4-0.7-0.6-0.9c-0.2-0.1-0.3-0.3-0.4-0.5c0,0,0,0,0,0c0-0.2,0-0.5,0.2-0.6c0.2-0.2,0.5-0.5,0.9-0.9
		c0.5-0.6,1.2-1.2,1.5-1.5l0,0l0,0c0,0,0,0,0.1-0.1c0.1-0.1,0.1-0.2,0.3-0.2c0.3-0.1,0.4,0.2,0.5,0.3c0.2,0.2,0.2,0.3,0.4,0.4
		c0.1,0.1,0.2,0.2,0.4,0.3c0.1,0.1,0.2,0.2,0.2,0.3c0,0.2,0,0.3,0,0.4c0,0.1,0,0.1-0.1,0.2c0,0,0,0,0,0c0,0.1,0.1,0.2,0.2,0.4l0,0
		c0.2,0.2,0.4,0.8,0.7,1.3c0.3,0.7,0.7,1.5,0.9,1.7l0.1,0.1C59.9,107.6,60.1,107.8,60.2,108.1 M60.6,108c-0.1-0.4-0.3-0.6-0.5-0.9
		L60,107c-0.2-0.2-0.6-1.1-0.8-1.6c-0.3-0.6-0.5-1.1-0.7-1.4l0,0c-0.1-0.1-0.1-0.2-0.1-0.2c0,0,0-0.1,0-0.1c0-0.2,0.1-0.4,0-0.6
		c0-0.2-0.2-0.4-0.3-0.6c-0.2-0.1-0.3-0.2-0.4-0.3c-0.2-0.2-0.2-0.2-0.3-0.3c-0.3-0.5-0.7-0.5-0.9-0.5c-0.3,0.1-0.4,0.3-0.5,0.4
		c0,0,0,0,0,0c-0.4,0.3-1,1-1.5,1.5c-0.3,0.4-0.7,0.7-0.8,0.9c-0.3,0.3-0.4,0.6-0.4,1c0,0,0,0,0,0.1c0.1,0.3,0.3,0.6,0.6,0.8
		c0.1,0.1,0.3,0.2,0.4,0.6c0,0,0,0.1,0.1,0.3c0.1,0.3,0.2,0.7,0.2,1c0.1,0.3,0.1,0.6,0.2,0.8c0,0.1,0.1,0.2,0.1,0.3c0,0,0,0,0,0
		c0,0-0.1,0.1-0.1,0.1c0,0,0,0-0.1,0c-1.9,0.2-5.3-0.5-5.9-1c-0.2-0.2-0.3-0.4-0.3-0.6c0-0.2,0-0.4,0-0.5c0-0.1,0.1-0.2,0.1-0.3
		c0.2-0.4,0.4-1,0.6-1.4c0.2-0.4,0.2-0.7,0.2-1.1c0-0.2-0.1-0.4-0.2-0.5c-0.3-0.3-0.7-0.5-1.1-0.4c-0.3,0.1-0.5,0.3-0.7,0.6
		c-0.2,0.4-0.4,0.8-0.6,1.2c-0.2,0.4-0.4,0.8-0.6,1.1c-0.1,0-0.3,0.1-0.4,0.3c-0.3,0.4-0.2,1.2-0.1,1.6c0.9,3.8,7,4.9,9.4,5.3l0.1,0
		l0,0l0,0c0,0,0.1,0,0.2,0.1c0.2,0.1,0.5,0.2,0.8,0.1c0.3-0.1,0.6-0.3,0.8-0.9c0.1-0.4,0.2-0.8,0.4-1c0.3-0.3,0.4-0.8,0.3-1.2
		c-0.1-0.2-0.2-0.4-0.3-0.6c-0.2-0.2-0.3-0.3-0.4-0.6c0-0.1-0.1-0.3-0.1-0.6l0,0c-0.1-0.5-0.3-1.1-0.4-1.7c-0.1-0.3-0.1-0.6-0.2-0.8
		c0.2-0.2,0.5-0.6,0.7-0.8c0,0,0,0.1,0,0.1l0,0c0,0.1,0,0.1,0.1,0.2c0,0.1,0.1,0.6,0.1,0.9c0.1,0.5,0.1,1.1,0.2,1.3
		c0.2,1,0.4,1.4,0.6,1.8c0.1,0.1,0.1,0.2,0.2,0.4l0,0l0,0c0,0,0,0,0,0.1c0.1,0.2,0.1,0.6,0.1,0.7c0,0.1,0,0.1,0,0.2
		c0,0.1,0,0.2,0,0.2c0.1,0.2,0.2,0.4,0.4,0.6c0.2,0.2,0.5,0.2,0.7,0.2c0.4-0.1,0.6-0.4,0.6-0.9c0-0.5,0.2-1.1,0.4-1.6
		c0.1-0.3,0.2-0.6,0.3-0.8C60.6,108.5,60.6,108.3,60.6,108"/>
	<path class="st1" d="M38.8,81.7c0.1-0.4,0.3-0.7,0.6-0.8c0.1,0,0.1-0.1,0.2-0.1c0.2-0.1,0.4,0,0.5,0.1c0.1,0.1,0.2,0.2,0.2,0.2
		c0.1,0,0.3,0,0.9-0.1c0.2,0,0.4-0.1,0.7-0.2c0-0.1,0-0.2-0.1-0.4c0-0.5,0.1-0.7,0.4-0.9c0.1,0,0.1-0.1,0.2-0.5
		c0.8-3,3.7-5.2,6.2-5.8c0.1,0,0.3-0.1,0.4-0.1c0.1,0,0.1,0,0.2,0c0.3-0.1,0.3-0.1,0.5-0.4c0.1-0.1,0.2-0.2,0.3-0.2
		c0.2-0.1,0.5,0,0.6,0.2c0.1,0.2,0.5,0.7,1.5,1.6c0.1,0.1,0.2,0.2,0.2,0.3c0.1,0.3-0.1,0.6-0.2,0.9c0,0.1-0.1,0.2-0.1,0.3
		c0.2,0.4,0.4,1.4,0.7,2.5l0.1,0c0.4,0,0.8,0,1.2-0.1c0.2-0.1,0.4-0.1,0.6-0.2c0.1-0.1,0.2-0.1,0.3-0.2c0.1-0.1,0.3-0.3,0.7-0.4
		c0.3-0.1,0.5,0.1,0.6,0.2c0,0.1,0.1,0.1,0.1,0.2c0,0.1,0,0.2-0.1,0.4c0,0,0,0,0,0.1c0,0.1,0.1,0.2,0.2,0.4c0,0.1,0.1,0.1,0.1,0.1
		c0,0.1,0.1,0.2,0.1,0.3c0,0.2,0,0.4,0,0.6c-0.2,0.3-0.5,0.4-0.6,0.4c-0.1,0-0.2,0-0.4,0.1c-0.1,0-0.2,0-0.3,0.1l-0.1,0
		c-0.6,0.1-1.2,0.2-1.8,0.3c0.1,0.7,0.2,1.3,0.3,1.9c0,0.1,0,0.1,0,0.2c0.1,0.3,0.2,0.5,0.3,0.7c0.1,0.2,0.2,0.4,0.3,0.6
		c0,0.2,0,0.4-0.1,0.6c-0.1,0.2-0.1,0.4-0.2,0.6c-0.1,0.4-0.3,1-0.6,1.3c-0.1,0.1-0.2,0.2-0.3,0.2c-0.2,0.1-0.4,0-0.6-0.1
		c-0.2-0.1-0.4-0.1-0.7-0.1c-0.1,0-0.5,0.1-0.8,0.1c-2.4,0.4-3.7,0.5-4.2,0.2c-1-0.6-1.6-1.4-2.2-2.3c-0.3-0.4-0.6-0.8-1-1.2
		c-0.3-0.1-0.5-0.2-0.7-0.5c-0.2,0-0.4,0.1-0.6,0.1l-0.1,0c-0.1,0-0.4,0.2-0.6,0.3c-0.3,0.2-0.7,0.3-1,0.4c-0.2,0-0.4,0-0.6,0
		c-0.2-0.1-0.5-0.2-0.6-0.7l0,0c0-0.1,0-0.1,0-0.2c0-0.1,0-0.1,0-0.2c0,0,0-0.1,0-0.1L38.8,82L38.8,81.7z M51.5,80.5
		c-0.1,0-0.2,0-0.2,0.1c-0.1,0-0.2,0-0.3,0.1c-0.2,0-0.3,0.1-0.5,0.1c-0.2,0-0.4,0-0.7,0.1c-0.3,0.1-0.6,0.1-0.9,0.3
		c-0.1,0-0.2,0.1-0.4,0.1c-0.4,0.1-0.7,0.1-1.1,0.2c-0.3,0-0.7,0.1-1,0.1l0,0c-0.5,0.1-1.1,0.3-1.8,0.5l-0.2,0c0.5,1,2,2.1,2.2,2.1
		c0.9,0,2.1-0.1,3.2-0.3c0.7-0.2,1.3-0.4,1.8-0.7C51.7,82.9,51.8,82.2,51.5,80.5C51.5,80.5,51.5,80.5,51.5,80.5 M50.1,75.9
		c-0.2,0-0.4,0-0.6,0.1c-1.4,0.3-3.9,2-4.8,4c0.8-0.2,1.4-0.4,2-0.6c0.1,0,0.2-0.1,0.3-0.1c0.6-0.1,1.2-0.2,1.8-0.3
		c0.6-0.1,1.2-0.2,1.8-0.3c0.2,0,0.4-0.1,0.5-0.1c0,0,0.1,0,0.1,0c0-0.1-0.1-0.3-0.1-0.4c0-0.1,0-0.2-0.1-0.2
		c-0.1-0.1-0.2-0.2-0.4-0.3c-0.2-0.2-0.5-0.4-0.6-0.8c-0.1-0.2,0-0.5,0.1-0.7C50.2,76,50.1,75.9,50.1,75.9 M56.8,153.8
		c-0.1-0.2,0-0.5,0.2-0.9c0.4-1,1.7-2.1,3.1-3.4c1.4-1.3,3.1-2.8,3.2-3.6c0,0,0-0.1,0-0.1c-0.1-0.5-0.7-1.2-0.9-1.3
		c-0.5,0.1-1.3,0.2-1.9,0.4c-0.3,0.1-0.7,0.2-1,0.2l-0.1,0c-0.3,0.1-0.7,0.2-1,0.2c-0.5,0.1-0.8,0.2-1,0.2c-0.3,0.1-0.6-0.1-0.7-0.4
		c0,0,0-0.1,0-0.1c-0.1-0.3,0-0.6,0.3-0.8l0,0c0.1-0.1,0.5-0.7,0.6-1.1c0.1-0.5,0.4-0.8,0.8-0.9c0.3-0.1,0.7,0,1,0.1
		c0.2,0,1.4-0.2,4.7-0.9c0.5-0.1,0.8-0.2,1-0.2l0.1,0c0.1,0,0.1,0,0.2,0c-0.1-0.5,0.2-0.9,0.5-0.9c0.2,0,0.4,0,0.5,0.1
		c0.1,0.1,0.3,0.2,0.3,0.5c0,0,0,0,0,0c0.1,0.1,0.3,0.4,1.4,1.5c0,0,0,0,0.1,0.1l0,0l0.1,0.2c0.1,0.1,0.1,0.2,0.2,0.4
		c0,0.2,0,0.4,0,0.5c-0.1,0.2-0.2,0.4-0.5,0.5c-0.1,0-0.1,0-0.2,0c0.3,0.3,0.5,0.6,0.7,1l0,0c0.1,0.2,0.1,0.4,0.2,0.6
		c0.1,0.4,0.1,0.7,0.2,1.1c0.1,0.3,0.1,0.6,0.2,0.9c0.1,0.2,0.1,0.4,0.2,0.5c0,0.1,0.1,0.1,0.1,0.2c0.1,0.2,0.2,0.3,0.3,0.6
		c0,0.1,0,0.1,0,0.2l0,0.1l0,0.1c-0.2,0.4-0.4,0.7-0.5,1c-0.1,0.2-0.2,0.3-0.3,0.4l-0.1,0.2l-0.3,0c-0.4,0-0.7-0.1-0.9-0.2
		c-0.3-0.2-0.7-0.3-1.5-0.2l-0.3,0l-0.2-0.3c-0.3-0.5-0.7-1.2-1.1-1.7c0,0,0,0,0,0.1c0,0.6-0.1,0.9-0.9,1.2
		c-0.4,0.2-3.7,3.9-3.9,5.2c-0.1,0.5-0.2,1-0.6,1.1c-0.3,0.1-0.6-0.1-0.8-0.5c-0.2-0.4-0.6-0.9-0.8-1
		C57.1,154.2,56.9,154,56.8,153.8 M66.8,144.7c-1-1-1.9-1.2-2.9-1c0,0,0,0-0.1,0c0.5,0.8,1.1,1.8,1.5,2.6l0,0c0.2,0.4,0.4,0.7,0.5,1
		c0.2,0.4,1,0.5,1.5,0.4c0.1,0,0.1,0,0.1,0c0-0.1,0-0.3,0-0.6c-0.1-0.3-0.2-0.7-0.3-0.9c0-0.1-0.1-0.2-0.2-0.3
		c-0.1-0.1-0.3-0.3-0.3-0.6l0,0c0,0,0,0,0-0.1C66.6,145.1,66.7,145,66.8,144.7C66.7,144.8,66.8,144.7,66.8,144.7"/>
	<path class="st4" d="M55.8,77.8c0,0.1,0,0.1,0,0.2c0,0,0,0.1-0.1,0.1c0,0,0,0,0,0.1c0,0.1,0.1,0.2,0.2,0.4c0,0.1,0.1,0.1,0.1,0.1
		c0,0.1,0.1,0.2,0.1,0.3c0,0.1,0,0.3,0,0.4c-0.1,0.2-0.3,0.3-0.5,0.3c-0.1,0-0.2,0-0.4,0.1c-0.1,0-0.2,0-0.4,0.1l-0.1,0
		c-0.6,0.1-1.3,0.2-2,0.3c0.1,0.8,0.2,1.4,0.3,2.1c0,0.1,0,0.1,0,0.2c0.1,0.3,0.2,0.6,0.3,0.8c0.1,0.2,0.2,0.3,0.2,0.5
		c0,0.1,0,0.3,0,0.4c-0.1,0.2-0.2,0.4-0.2,0.7c-0.1,0.4-0.2,0.9-0.6,1.3c-0.1,0.1-0.1,0.1-0.2,0.1c-0.2,0-0.3,0-0.5-0.1
		C51.9,86,51.7,86,51.3,86c-0.1,0-0.5,0.1-0.8,0.1c-2.2,0.3-3.6,0.5-4.1,0.2c-0.9-0.5-1.5-1.4-2.1-2.2c-0.3-0.4-0.6-0.9-1-1.3
		c-0.4,0-0.6-0.3-0.7-0.5c-0.2,0.1-0.5,0.1-0.7,0.2l-0.1,0c-0.1,0-0.4,0.2-0.6,0.3c-0.3,0.2-0.6,0.3-0.9,0.4c-0.2,0-0.3,0-0.5,0
		c-0.4-0.1-0.5-0.4-0.5-0.5c0,0,0,0,0,0c0-0.1,0-0.1,0-0.2c0-0.1,0-0.1,0-0.2c0-0.1,0-0.1-0.1-0.2L39,81.9l0-0.2
		c0.1-0.3,0.3-0.6,0.5-0.7c0,0,0.1,0,0.1,0c0.1,0,0.3,0,0.3,0.1c0.1,0.1,0.1,0.1,0.2,0.2c0,0,0,0,0,0c0,0,0,0,0,0c0,0,0,0,0,0
		c0,0,0.3,0.1,1.1-0.1c0.3-0.1,0.5-0.1,0.9-0.2c0,0,0,0,0-0.1c0-0.1-0.1-0.3-0.1-0.5c0-0.4,0.1-0.6,0.3-0.8c0.1-0.1,0.2-0.1,0.3-0.6
		c0.8-3,3.6-5.1,6-5.6c0.1,0,0.3-0.1,0.4-0.1c0.1,0,0.1,0,0.2,0c0.4-0.1,0.5-0.2,0.6-0.5c0-0.1,0.1-0.1,0.2-0.1c0.1,0,0.3,0,0.4,0.1
		c0.2,0.3,0.7,0.9,1.5,1.7c0.1,0.1,0.1,0.1,0.1,0.2c0,0.2-0.1,0.5-0.2,0.8c0,0.1-0.1,0.3-0.1,0.4c0.1,0.3,0.4,1.4,0.7,2.6
		c0,0,0,0,0,0.1c0.1,0,0.2,0,0.3,0c0.4,0,0.8,0,1.2-0.1c0.3-0.1,0.5-0.1,0.6-0.3c0.1-0.1,0.2-0.2,0.3-0.2c0.1-0.1,0.3-0.3,0.6-0.4
		l0,0l0,0c0.1,0,0.3,0,0.3,0.1C55.8,77.7,55.8,77.7,55.8,77.8 M50.4,76.7c0-0.2,0-0.4,0.1-0.8c-0.1-0.1-0.2-0.2-0.3-0.3
		c-0.2,0-0.4,0-0.7,0.1c-1.6,0.4-4.3,2.3-5.2,4.5c0.9-0.3,1.6-0.5,2.4-0.7c0.1,0,0.2-0.1,0.3-0.1c0.6-0.1,1.2-0.2,1.8-0.3
		c0.6-0.1,1.2-0.2,1.8-0.3c0.2,0,0.4-0.1,0.6-0.1c0.1,0,0.1,0,0.2-0.1c0,0,0,0,0.1,0c0-0.2-0.1-0.4-0.1-0.6c0-0.1-0.1-0.2-0.1-0.3
		c-0.1-0.2-0.3-0.3-0.4-0.4C50.7,77.2,50.4,77,50.4,76.7 M44.1,81.9c0.4,1.1,2.2,2.5,2.5,2.5c0.9,0,2.2-0.1,3.3-0.3
		c0.8-0.2,1.4-0.4,1.9-0.8c0.1-0.1,0.2-0.9-0.1-3c-0.1,0-0.2,0-0.3,0c-0.1,0-0.2,0-0.2,0.1c-0.1,0-0.2,0-0.3,0.1
		c-0.2,0-0.3,0.1-0.5,0.1c-0.2,0-0.5,0.1-0.7,0.1c-0.3,0.1-0.6,0.2-0.9,0.3c-0.1,0-0.2,0.1-0.3,0.1c-0.3,0.1-0.7,0.1-1.1,0.2
		c-0.3,0-0.7,0.1-1,0.1l0,0c-0.5,0.1-1.1,0.3-1.8,0.5L44.1,81.9 M68.1,142.8c0,0.1,0,0.3,0,0.4c-0.1,0.2-0.2,0.3-0.3,0.3
		c-0.1,0-0.3,0-0.4-0.1c-0.3-0.2-0.4-0.3-0.7-0.2c0.3,0.2,1.1,0.8,1.4,1.7l0,0l0,0c0.1,0.2,0.1,0.3,0.1,0.5c0.1,0.4,0.1,0.7,0.2,1.1
		c0.1,0.3,0.1,0.6,0.2,0.9c0.1,0.2,0.1,0.4,0.2,0.5c0.1,0.1,0.1,0.2,0.2,0.2c0.1,0.1,0.2,0.3,0.3,0.5c0,0.1,0,0.1,0,0.2l0,0.1l0,0.1
		c-0.2,0.4-0.4,0.7-0.5,1c-0.1,0.2-0.2,0.3-0.3,0.4l-0.1,0.1l-0.1,0c-0.3,0-0.6-0.1-0.8-0.2c-0.4-0.2-0.7-0.3-1.6-0.2l-0.2,0
		l-0.1-0.2c-0.3-0.6-0.8-1.3-1.2-1.8l-0.1-0.1l0-0.1c0-0.2,0-0.3,0-0.5c0,0,0-0.1,0-0.1c-0.1,0.3-0.2,0.7-0.2,1.1
		c0,0.6-0.1,0.8-0.7,1c-0.5,0.2-3.8,4-4,5.4c-0.1,0.5-0.2,0.9-0.4,1l0,0c-0.3,0.1-0.5-0.3-0.5-0.4c-0.2-0.5-0.7-1-0.9-1.1
		c-0.2-0.1-0.3-0.3-0.4-0.4c0-0.2,0-0.4,0.2-0.8c0.4-0.9,1.7-2.1,3.1-3.3c1.5-1.3,3.2-2.9,3.2-3.7c0-0.1,0-0.1,0-0.2
		c-0.1-0.6-0.9-1.4-1.1-1.5c-0.5,0-1.4,0.2-2,0.4c-0.4,0.1-0.7,0.2-1.1,0.3c-0.3,0.1-0.7,0.2-1,0.2c-0.5,0.1-0.8,0.2-1,0.2
		c-0.2,0-0.4-0.1-0.5-0.3c0,0,0-0.1,0-0.1c-0.1-0.2,0-0.5,0.2-0.6l0,0l0,0c0.2-0.1,0.6-0.9,0.7-1.2c0.1-0.5,0.3-0.7,0.7-0.8
		c0.3-0.1,0.6,0,0.9,0.1c0.2,0,1.6-0.2,4.8-0.9c0.5-0.1,0.9-0.2,1-0.2l0,0c0.4-0.1,0.4-0.2,0.3-0.3c-0.1-0.4,0.1-0.6,0.4-0.7
		c0.1,0,0.3,0,0.4,0.1c0.1,0.1,0.2,0.2,0.2,0.4c0,0,0,0,0,0c0.1,0.1,0.3,0.5,1.4,1.5c0.1,0.1,0.2,0.2,0.2,0.2l0,0
		C68,142.6,68,142.7,68.1,142.8 M66.8,145.4C66.8,145.3,66.8,145.3,66.8,145.4c0-0.2,0-0.3,0.1-0.5c0-0.1,0.1-0.2,0.1-0.2
		c-1.1-1.1-2-1.4-3.2-1.1c-0.1,0-0.2,0.1-0.3,0.1c0.5,0.8,1.2,2,1.7,2.9c0.2,0.4,0.4,0.8,0.6,1c0.3,0.5,1.2,0.6,1.7,0.5
		c0.1,0,0.2-0.1,0.2-0.1c0.1-0.2,0.1-0.5,0-0.8c-0.1-0.3-0.2-0.7-0.3-1c0-0.1-0.1-0.2-0.2-0.3C67,145.7,66.9,145.5,66.8,145.4
		 M56.2,77.7c0-0.1-0.1-0.2-0.1-0.3c-0.1-0.2-0.4-0.4-0.8-0.3l0,0l0,0c-0.4,0.1-0.6,0.3-0.8,0.5c-0.1,0.1-0.1,0.1-0.2,0.2
		c-0.1,0.1-0.3,0.2-0.5,0.2c-0.3,0.1-0.7,0.1-1,0.1c-0.2-0.9-0.5-1.8-0.6-2.3c0-0.1,0.1-0.2,0.1-0.2c0.1-0.3,0.3-0.7,0.2-1
		c0-0.2-0.1-0.3-0.2-0.4c-1-0.9-1.3-1.4-1.5-1.6c-0.2-0.3-0.5-0.4-0.8-0.3c-0.2,0-0.4,0.2-0.5,0.3c-0.2,0.3-0.2,0.3-0.4,0.3
		c0,0-0.1,0-0.1,0c-0.1,0-0.3,0-0.4,0.1c-2.5,0.6-5.5,2.8-6.3,5.9c-0.1,0.3-0.1,0.3-0.1,0.3c-0.4,0.3-0.5,0.6-0.4,1.1
		c0,0.1,0,0.2,0,0.2c-0.2,0.1-0.3,0.1-0.5,0.1c-0.4,0.1-0.6,0.1-0.7,0.1c-0.1-0.1-0.1-0.2-0.2-0.2c-0.2-0.1-0.4-0.2-0.6-0.1
		c-0.1,0-0.2,0.1-0.2,0.1c-0.3,0.2-0.6,0.5-0.7,1l0,0.2L38.5,82l0.2,0.2l0.1,0.1c0,0,0,0.1,0,0.1c0,0.1,0,0.2,0,0.2l0,0
		c0.1,0.6,0.5,0.8,0.8,0.8c0.2,0.1,0.4,0.1,0.7,0c0.3-0.1,0.7-0.3,1-0.4c0.2-0.1,0.4-0.2,0.5-0.2l0.1,0c0.1,0,0.3-0.1,0.4-0.1
		c0.2,0.2,0.4,0.4,0.7,0.5c0.3,0.4,0.6,0.8,0.9,1.2c0.7,0.9,1.3,1.7,2.3,2.3c0.5,0.3,1.5,0.3,4.3-0.2c0.3-0.1,0.7-0.1,0.8-0.1
		c0.2,0,0.4,0,0.6,0.1c0.2,0.1,0.4,0.2,0.7,0.1c0.2,0,0.3-0.1,0.4-0.2c0.4-0.4,0.6-1,0.7-1.4c0.1-0.2,0.1-0.4,0.2-0.6
		c0.1-0.2,0.1-0.5,0.1-0.7c-0.1-0.2-0.2-0.4-0.3-0.6c-0.1-0.2-0.2-0.4-0.3-0.7c0-0.1,0-0.1,0-0.2c-0.1-0.5-0.1-1.1-0.2-1.7
		c0.5-0.1,1.1-0.2,1.6-0.3l0.1,0c0.1,0,0.2,0,0.3-0.1c0.1,0,0.3,0,0.4-0.1c0.4-0.1,0.6-0.3,0.7-0.5c0.1-0.2,0.1-0.4,0.1-0.7
		c0-0.1-0.1-0.3-0.1-0.3c0,0,0-0.1-0.1-0.2c-0.1-0.1-0.1-0.2-0.1-0.2C56.2,78,56.2,77.8,56.2,77.7 M50.9,78c0,0,0,0.1,0,0.2
		c0,0.1,0,0.1,0,0.2c-0.1,0-0.3,0.1-0.5,0.1c-0.5,0.1-1.2,0.2-1.8,0.3c-0.6,0.1-1.3,0.2-1.9,0.3c-0.1,0-0.2,0.1-0.3,0.1
		c-0.5,0.1-0.9,0.3-1.5,0.4c1.1-1.8,3.2-3.1,4.5-3.4c0.2,0,0.3-0.1,0.4-0.1c-0.1,0.3-0.1,0.5,0,0.7c0.1,0.4,0.4,0.7,0.6,0.9
		C50.7,77.8,50.8,77.9,50.9,78 M44.7,82.1c0.7-0.2,1.2-0.3,1.7-0.4l0,0c0.3-0.1,0.6-0.1,1-0.1c0.4,0,0.7-0.1,1.1-0.2
		c0.1,0,0.3-0.1,0.4-0.1c0.4-0.1,0.6-0.2,0.9-0.3c0.3-0.1,0.5-0.1,0.7-0.1c0.2,0,0.3,0,0.5-0.1c0.1,0,0.2,0,0.3-0.1c0,0,0.1,0,0.1,0
		c0.2,1.4,0.1,2,0.1,2.3c-0.4,0.3-1,0.5-1.6,0.6c-1.1,0.2-2.2,0.3-3.2,0.3C46.4,83.8,45.3,83,44.7,82.1 M68.5,142.7
		c0-0.2-0.1-0.3-0.2-0.4l-0.3-0.3l0,0c-0.9-0.9-1.2-1.2-1.2-1.3c-0.1-0.3-0.3-0.5-0.4-0.6c-0.2-0.1-0.4-0.2-0.7-0.1
		c-0.4,0.1-0.7,0.5-0.7,1l0,0c-0.1,0-0.5,0.1-1,0.2c-3.6,0.8-4.5,0.9-4.6,0.9c-0.3-0.1-0.7-0.2-1.1-0.1c-0.5,0.1-0.8,0.5-1,1.1
		c-0.1,0.3-0.4,0.9-0.5,1l0,0l0,0c-0.3,0.3-0.4,0.7-0.4,1c0,0.1,0,0.1,0.1,0.2c0.2,0.4,0.5,0.6,1,0.5c0.3,0,0.6-0.1,1.1-0.2
		c0.3-0.1,0.6-0.2,1-0.2l0,0c0.4-0.1,0.7-0.2,1.1-0.3c0.5-0.1,1.3-0.3,1.8-0.4c0.2,0.2,0.7,0.8,0.8,1.2c0,0,0,0.1,0,0.1
		c0,0.7-1.9,2.3-3.1,3.4c-1.4,1.3-2.7,2.5-3.2,3.4c-0.2,0.4-0.3,0.8-0.2,1.1c0.1,0.3,0.3,0.5,0.5,0.6c0.2,0.2,0.6,0.6,0.8,1
		c0.3,0.7,0.7,0.7,1,0.7c0.6-0.1,0.7-0.7,0.7-1.3c0.2-1.2,3.3-4.8,3.8-5.1c0.6-0.2,0.8-0.5,0.9-0.9c0.3,0.4,0.6,0.8,0.8,1.2l0.1,0.2
		l0.1,0.3l0.3,0l0.2,0c0.7-0.1,1,0.1,1.4,0.2c0.3,0.1,0.6,0.3,1,0.2l0.1,0l0.2,0l0.1-0.2l0.1-0.1c0.1-0.1,0.2-0.3,0.3-0.4
		c0.2-0.3,0.4-0.6,0.6-1l0-0.1l0-0.1l0-0.1l0-0.1c0-0.1,0-0.2,0-0.3c-0.1-0.3-0.2-0.5-0.3-0.6c0-0.1-0.1-0.1-0.1-0.2
		c0-0.1-0.1-0.2-0.1-0.4c-0.1-0.3-0.1-0.6-0.2-0.9c-0.1-0.4-0.1-0.7-0.2-1.1c0-0.2-0.1-0.4-0.2-0.6l0,0l0,0l0,0l0,0
		c-0.1-0.3-0.3-0.5-0.5-0.8c0.2-0.1,0.4-0.3,0.5-0.6C68.5,143.1,68.5,142.9,68.5,142.7 M66.4,145.4c0.1,0.3,0.2,0.5,0.4,0.6
		c0.1,0.1,0.1,0.2,0.2,0.2c0.1,0.2,0.2,0.6,0.3,0.9c0,0.2,0,0.3,0,0.4c-0.4,0.1-1.1,0-1.3-0.3c-0.1-0.2-0.3-0.6-0.6-1
		c-0.4-0.7-0.9-1.7-1.4-2.4c0.9-0.1,1.5,0.1,2.4,0.9C66.5,144.9,66.4,145.1,66.4,145.4C66.4,145.4,66.4,145.4,66.4,145.4"/>
	<path class="st1" d="M53.8,133.3c-0.1-0.3,0-0.6,0.3-0.8c0.1-0.2,0.2-0.9,0.2-1.1c0-0.2,0.1-0.4,0.1-0.5c0.1-0.6,0.5-0.7,0.7-0.8
		c0.3-0.1,0.6,0,1.1,0.3c0.1,0,0.8,0,3.4-0.6c0.9-0.2,1.8-0.4,2.3-0.6c0,0,0.4-0.1,0.4-0.1c0.1,0,0.1,0,0.1,0c0-0.2,0-0.4,0.1-0.6
		c0.1-0.2,0.3-0.3,0.4-0.3c0.3-0.1,0.7,0.1,0.9,0.7c0.2,0.6,0.6,1,1,1.3c0.2,0.2,0.4,0.3,0.5,0.5l0,0c0,0.1,0.1,0.2,0.1,0.3
		c0,0.2,0,0.4-0.1,0.6c-0.1,0.2-0.3,0.4-0.5,0.5c0.1,0.4,0.3,1,0.4,1.6c0.2,0.7,0.2,1.2,0.3,1.5c0,0.1,0,0.1,0,0.2
		c0,0.2,0.1,0.3,0.2,0.4c0.1,0.1,0.2,0.3,0.2,0.5c0.1,0.3-0.1,0.9-0.3,1.2c-0.3,0.4-0.7,0.6-1.3,0.8c-0.2,0.1-0.4,0.2-0.6,0.3
		c0,0-0.1,0-0.1,0c-0.3,0.1-0.6-0.1-0.8-0.4c0-0.1-0.1-0.1-0.1-0.2c-0.1-0.3,0-0.6,0.2-0.7c0.6-0.5,1-0.9,1-1.5
		c0-0.4-0.1-1.1-0.2-1.9c-0.2-0.9-0.5-1.6-0.7-1.9c-0.2,0-0.8,0-1.6,0.2c-0.3,0.1-0.5,0.1-0.6,0.2c0,0.4,0.2,1.2,0.4,1.9
		c0.1,0.5,0.2,0.7,0.2,0.7c0,0.1,0.1,0.1,0.1,0.1c0.1,0,0.5,0.1,0.5,0.6l0,0c0.1,0.6-0.2,0.9-0.5,0.9c-0.1,0-0.2,0-0.4,0l0,0
		c-0.3-0.1-0.8-0.1-0.9-0.1c-0.2,0.1-0.4,0-0.5-0.1c-0.2-0.1-0.3-0.2-0.3-0.4c-0.1-0.4,0.1-0.7,0.5-0.8c0.1,0,0.1,0,0.2-0.1
		c0,0,0-0.1,0-0.1c-0.2-1-0.6-2.1-0.7-2.3c-0.1,0-0.4-0.1-1.4,0.2c-1.2,0.3-1.9,0.6-2.1,0.8c-0.1,0.4,0,1.3,0.2,2.3
		c0.2,1,0.6,2,0.8,2.4c0.4,0.7,0.7,0.9,1.4,0.9l0,0c0.3,0,0.6,0.3,0.6,0.5c0,0,0,0.1,0,0.1c0,0.3-0.2,0.6-0.5,0.6
		c-0.3,0.1-1,0.2-1.6,0.2c-0.4,0-1.4-0.3-1.5-1l0,0l0,0c0-0.3,0-0.5,0.1-0.6c-0.5-1.2-0.9-2.9-1-3.6c-0.1-0.5-0.2-0.9-0.2-1.2
		c0-0.2,0-0.3,0-0.4c-0.2,0-0.5-0.2-0.6-0.4C53.9,133.4,53.9,133.4,53.8,133.3"/>
	<path class="st4" d="M65.3,130.9c0,0.2,0,0.3-0.1,0.5c-0.1,0.2-0.2,0.3-0.4,0.3c-0.1,0-0.1,0-0.2,0c0.2,0.5,0.4,1.2,0.5,1.8
		c0.1,0.6,0.2,1.2,0.2,1.4c0,0.1,0,0.2,0,0.2c0,0.2,0.1,0.4,0.2,0.5c0.1,0.1,0.2,0.3,0.2,0.4c0.1,0.2-0.1,0.7-0.3,1.1
		c-0.2,0.3-0.6,0.5-1.2,0.7c-0.2,0.1-0.4,0.2-0.6,0.3c0,0-0.1,0-0.1,0c-0.2,0-0.4-0.1-0.6-0.3c0-0.1,0-0.1-0.1-0.2
		c0-0.2,0-0.4,0.2-0.5c0.6-0.5,1.1-1,1.1-1.7c0-0.5-0.1-1.2-0.2-1.9c-0.2-0.9-0.5-1.7-0.8-2c-0.2-0.1-0.9,0-1.8,0.2
		c-0.5,0.1-0.7,0.2-0.8,0.3c0,0.3,0.2,1.3,0.4,2.1c0.1,0.4,0.2,0.7,0.2,0.8c0.1,0.2,0.2,0.2,0.3,0.2c0.1,0,0.3,0.1,0.4,0.4
		c0,0,0,0,0,0c0.1,0.4-0.2,0.6-0.4,0.7c-0.1,0-0.2,0-0.3,0l0,0l0,0c-0.3-0.1-0.8-0.1-1-0.1c-0.2,0-0.3,0-0.4-0.1
		c-0.1-0.1-0.2-0.2-0.2-0.3c-0.1-0.3,0.1-0.5,0.4-0.6c0.2,0,0.3-0.1,0.4-0.2c0-0.1,0-0.2-0.1-0.3c-0.2-0.8-0.6-2.2-0.8-2.4
		c-0.1,0-0.5-0.1-1.6,0.1c-1.2,0.3-2.1,0.7-2.2,0.9c-0.1,0.5,0,1.5,0.2,2.5c0.2,1,0.6,2,0.8,2.5c0.4,0.8,0.8,1,1.6,1l0,0l0,0
		c0.2,0,0.4,0.2,0.4,0.4c0,0,0,0,0,0.1c0,0.2-0.1,0.4-0.3,0.4c-0.3,0.1-1,0.2-1.5,0.2c-0.4,0-1.2-0.3-1.3-0.8c0,0,0,0,0,0l0,0l0,0
		c0-0.3,0.1-0.4,0.2-0.6c0,0,0,0,0,0c-0.4-1-0.8-2.5-1-3.6c-0.1-0.5-0.2-0.9-0.2-1.2c0-0.2,0-0.3,0-0.5c0,0,0-0.1,0-0.1c0,0,0,0,0,0
		c-0.2,0.1-0.4-0.1-0.5-0.3c0,0,0-0.1,0-0.1c0-0.2,0-0.4,0.2-0.6c0.1-0.1,0.2-0.8,0.3-1.2c0-0.2,0.1-0.4,0.1-0.5
		c0.1-0.5,0.3-0.6,0.5-0.6c0.3-0.1,0.6,0,0.9,0.3c0.1,0,0.7,0,3.5-0.6c0.9-0.2,1.9-0.4,2.3-0.6c0.2,0,0.3-0.1,0.4-0.1
		c0.1,0,0.3-0.1,0.3-0.1c0,0,0,0,0,0c0,0,0,0,0,0c0,0,0,0,0,0c0-0.2,0-0.4,0.1-0.5c0.1-0.1,0.2-0.2,0.3-0.2c0.2-0.1,0.5,0.1,0.6,0.5
		c0.2,0.7,0.7,1.1,1.1,1.4c0.2,0.2,0.4,0.3,0.5,0.4l0,0l0,0C65.3,130.8,65.3,130.8,65.3,130.9 M65.7,130.8L65.7,130.8
		c0-0.1-0.1-0.2-0.1-0.3l0,0l0,0c-0.1-0.2-0.3-0.4-0.5-0.5c-0.4-0.3-0.8-0.6-1-1.2c-0.2-0.7-0.7-0.9-1.1-0.8
		c-0.2,0.1-0.4,0.2-0.6,0.4c-0.1,0.2-0.1,0.3-0.1,0.5c-0.1,0-0.2,0-0.4,0.1c-0.5,0.1-1.4,0.3-2.3,0.6c-2.4,0.6-3.1,0.6-3.3,0.6
		c-0.4-0.3-0.8-0.3-1.2-0.3c-0.2,0-0.7,0.2-0.8,0.9c0,0.1-0.1,0.3-0.1,0.5c0,0.2-0.1,0.8-0.2,1c-0.3,0.2-0.4,0.6-0.3,1
		c0,0,0,0.1,0,0.1c0.1,0.3,0.3,0.4,0.6,0.5c0,0.1,0,0.2,0,0.3c0.1,0.3,0.1,0.7,0.3,1.2c0.2,0.7,0.5,2.3,1,3.5
		c-0.1,0.2-0.2,0.4-0.1,0.7l0,0l0,0c0,0,0,0,0,0.1c0.2,0.8,1.2,1.1,1.7,1.1c0.5,0,1.3-0.1,1.6-0.2c0.4-0.1,0.7-0.4,0.7-0.8
		c0,0,0-0.1,0-0.1c-0.1-0.4-0.4-0.7-0.8-0.7l0,0l0,0c-0.6,0-0.9-0.1-1.3-0.8c-0.2-0.4-0.6-1.4-0.8-2.4c-0.2-0.9-0.3-1.7-0.2-2.2
		c0.2-0.1,0.9-0.4,1.9-0.7c0.7-0.2,1.1-0.2,1.3-0.2c0.2,0.3,0.4,1.3,0.6,2.1c-0.5,0.1-0.8,0.6-0.7,1.1c0.1,0.2,0.2,0.4,0.4,0.5
		c0.2,0.1,0.4,0.2,0.7,0.1c0.1,0,0.5,0,0.8,0.1l0,0l0,0c0.2,0,0.3,0,0.5,0c0.4-0.1,0.8-0.5,0.7-1.2c0,0,0,0,0-0.1
		c-0.1-0.5-0.5-0.7-0.7-0.7c0,0,0,0,0,0c0,0,0,0,0,0c0,0-0.1-0.2-0.2-0.7c-0.1-0.6-0.3-1.3-0.3-1.7c0.1,0,0.2-0.1,0.4-0.1
		c0.7-0.2,1.2-0.2,1.5-0.2c0.2,0.2,0.4,0.9,0.6,1.7c0.2,0.7,0.2,1.4,0.2,1.8c0,0.5-0.4,0.9-1,1.4c-0.3,0.2-0.4,0.6-0.3,0.9
		c0,0.1,0.1,0.2,0.1,0.3c0.2,0.4,0.6,0.6,1,0.5c0.1,0,0.1,0,0.2-0.1c0.2-0.1,0.4-0.2,0.6-0.3c0.6-0.3,1-0.5,1.3-0.9
		c0.2-0.4,0.4-1,0.4-1.4c-0.1-0.2-0.2-0.4-0.3-0.5c-0.1-0.1-0.2-0.2-0.2-0.4c0,0,0-0.1,0-0.2c0-0.4-0.2-1.1-0.3-1.5
		c-0.1-0.5-0.3-1-0.4-1.4c0.2-0.1,0.3-0.3,0.4-0.5C65.7,131.3,65.8,131.1,65.7,130.8"/>
	<path class="st1" d="M46.3,100.7c-0.1-0.3,0.1-0.7,0.5-0.8c0.2-0.1,0.5-0.1,0.7-0.1c0.2,0,0.4-0.1,0.6-0.1c0.5-0.1,0.6-0.2,0.6-0.2
		c0.5-0.7,3.3-6.5,4-8.3c-1.2,0.3-2.4,0.6-3.6,0.9l0,0c-1.3,0.3-2.7,0.7-4,1c-0.3,0.1-0.8-0.1-0.8-0.5c-0.1-0.3,0-0.5,0.3-0.8l0,0
		l0,0l0,0c0.1-0.1,0.2-0.2,0.3-0.4c0.2-0.3,0.4-0.7,0.9-0.8c0.4-0.1,0.7,0,1,0.1l0.1,0c0,0,0.3,0,2-0.4l0.4-0.1l1.1-0.2
		c0.7-0.2,1.4-0.3,2.2-0.6l0.1,0c0.4-0.1,0.9-0.3,1.1-0.6l0.3-1l0.6,0.9c0.4,0.6,0.7,1,1.1,1.3l0.3,0.2L56,90.5
		c-0.7,1.5-1.5,3.1-2.2,4.6l-0.6,1.3c-0.1,0.3-0.3,0.6-0.4,0.9c-0.3,0.5-0.5,1-0.8,1.6c0,0,0.1,0,0.1,0c0.1,0,0.1,0,0.1,0
		c0.6-0.1,1.8-0.4,3-0.7c1.3-0.3,2.5-0.6,3.1-0.7c0.1,0,0.2,0,0.2-0.1c0.1,0,0.1,0,0.2,0c0.1,0,0.1,0,0.2-0.1
		c0.2-0.1,0.3-0.2,0.3-0.3c0.1-0.1,0.2-0.3,0.4-0.4c0.3-0.1,0.8,0.1,0.9,0.6c0.1,0.2,0,0.4-0.1,0.5l0,0l0,0l-0.2-0.1l0.2,0.1
		c-0.2,0.4-0.4,0.7-0.5,1.2l0,0l0,0.1c-0.1,0.2-0.2,0.5-0.5,0.6c-0.2,0.1-0.5,0-0.7-0.4l-0.1,0c-1.1,0.2-2.8,0.7-4.6,1.1
		c-1.8,0.4-3.6,0.8-4.6,1.1c-0.1,0-0.2,0.1-0.4,0.2c-0.2,0.1-0.4,0.3-0.7,0.4c-0.3,0.1-0.5,0-0.7-0.1c-0.2-0.2-0.5-0.2-0.8-0.3
		l-0.1,0C46.7,101.2,46.4,101.1,46.3,100.7"/>
	<path class="st4" d="M60.4,97.2c0,0.2,0,0.3,0,0.4l0,0l0,0c-0.2,0.4-0.4,0.8-0.6,1.2l0,0l0,0c0,0,0,0,0,0.1c0,0.1-0.1,0.4-0.4,0.4
		c-0.4,0.1-0.5-0.3-0.6-0.4c0,0,0,0,0,0c0,0-0.1,0-0.2,0l0,0l0,0c-1.1,0.2-2.8,0.7-4.6,1.1c-1.8,0.4-3.5,0.8-4.6,1.1
		c-0.1,0-0.3,0.1-0.4,0.2c-0.2,0.1-0.4,0.3-0.6,0.3c-0.3,0.1-0.4,0-0.6-0.1c-0.3-0.2-0.5-0.3-0.8-0.4l0,0l0,0l0,0
		c-0.1,0-0.4-0.2-0.4-0.4c0-0.2,0.1-0.5,0.4-0.5c0.2-0.1,0.5-0.1,0.7-0.1c0.2,0,0.4-0.1,0.6-0.1c0.2,0,0.6-0.1,0.8-0.3
		c0.6-0.8,3.7-7.4,4.2-8.7c-1.3,0.3-2.7,0.6-3.9,1c-1.3,0.3-2.7,0.7-4,1c-0.2,0.1-0.5-0.1-0.6-0.3c-0.1-0.3,0.1-0.5,0.2-0.6
		c0,0,0,0,0,0l0,0l0,0c0.2-0.1,0.3-0.3,0.4-0.5c0.2-0.3,0.4-0.6,0.7-0.7c0.3-0.1,0.6,0,0.9,0.1c0,0,0.1,0,0.1,0c0.1,0,0.4,0,2.1-0.4
		l0.3-0.1l0.1,0c0.2,0,0.4-0.1,0.5-0.1c0.2,0,0.4-0.1,0.5-0.1c0.7-0.2,1.4-0.3,2.2-0.6l0.1,0c0.4-0.1,1-0.3,1.2-0.8l0.2-0.6l0.3,0.5
		c0.4,0.6,0.7,1,1.1,1.3l0.2,0.1l-0.1,0.2c-0.7,1.5-1.5,3.1-2.2,4.6c-0.2,0.4-0.4,0.9-0.6,1.3c-0.1,0.3-0.3,0.6-0.4,0.8
		c-0.3,0.6-0.6,1.2-0.9,1.9c0,0,0,0,0,0.1c0,0,0.1,0,0.1,0c0.2,0,0.3-0.1,0.4-0.1c0,0,0.1,0,0.1,0c0.6-0.1,1.8-0.4,3-0.7
		c1.2-0.3,2.5-0.6,3-0.7c0.1,0,0.2,0,0.2-0.1c0.1,0,0.2,0,0.2,0c0.1,0,0.1,0,0.2-0.1c0.3-0.1,0.4-0.2,0.5-0.4
		c0.1-0.1,0.1-0.2,0.3-0.3C60,96.6,60.3,96.8,60.4,97.2 M60.8,97.1c-0.1-0.6-0.7-0.9-1.1-0.8c-0.3,0.1-0.5,0.3-0.6,0.5
		C59,96.9,59,96.9,58.9,97c0,0-0.1,0-0.2,0c-0.1,0-0.1,0-0.2,0c-0.1,0-0.2,0-0.3,0.1c-0.6,0.1-1.8,0.4-3,0.7
		c-1.1,0.3-2.2,0.5-2.9,0.6c0.2-0.4,0.4-0.8,0.6-1.2c0.1-0.3,0.3-0.6,0.4-0.9c0.2-0.4,0.4-0.9,0.6-1.3l0,0c0.7-1.5,1.5-3.1,2.2-4.6
		l0.1-0.2l0.1-0.3l-0.3-0.2l-0.2-0.1c-0.4-0.3-0.7-0.6-1-1.2L54.6,88l-0.5-0.7l-0.3,0.8l-0.2,0.6c-0.1,0.3-0.6,0.4-0.9,0.5l-0.1,0
		l0,0l0,0c-0.7,0.2-1.4,0.4-2.1,0.6c-0.2,0-0.3,0.1-0.5,0.1l0,0c-0.2,0-0.4,0.1-0.5,0.1l-0.1,0L49,90.1c-1.5,0.3-1.9,0.4-1.9,0.4
		c0,0-0.1,0-0.1,0c-0.3-0.1-0.7-0.2-1.1-0.1c-0.5,0.1-0.8,0.5-1,0.8c-0.1,0.2-0.2,0.3-0.3,0.4l0,0l0,0l0,0l0,0l0,0
		c-0.4,0.3-0.4,0.7-0.4,1c0.1,0.5,0.7,0.8,1.1,0.6c1.3-0.3,2.7-0.7,4-1c1-0.3,2.1-0.5,3.2-0.8c-0.9,2.1-3.4,7.2-3.8,7.9
		c0,0-0.2,0.1-0.5,0.2c-0.2,0-0.4,0.1-0.6,0.1c-0.2,0-0.5,0.1-0.7,0.1c-0.6,0.1-0.8,0.6-0.7,1c0.1,0.5,0.5,0.6,0.7,0.7l0,0l0,0l0,0
		l0,0l0,0l0,0c0.3,0.1,0.5,0.2,0.7,0.3c0.2,0.1,0.5,0.3,0.9,0.2c0.3-0.1,0.5-0.2,0.8-0.4c0.1-0.1,0.2-0.2,0.3-0.2
		c1.1-0.2,2.9-0.7,4.6-1.1c1.7-0.4,3.4-0.8,4.5-1c0.3,0.4,0.7,0.4,0.9,0.4c0.5-0.1,0.6-0.5,0.7-0.7l0,0l0,0l0,0l0,0l0,0
		c0.1-0.4,0.3-0.7,0.5-1.1l0,0l0,0l0,0l0,0C60.8,97.6,60.9,97.3,60.8,97.1"/>
	<path class="st1" d="M51.5,122.9c-0.1-0.3,0-0.6,0.2-0.8c0,0,0.2-0.3,0.4-1.4c0.1-0.4,0.3-0.7,0.7-0.8c0.3-0.1,0.6,0,0.9,0.1
		c0.1,0,0.2,0,0.2,0c0.3,0,3.1-0.5,5.2-0.9c0.8-0.2,1.2-0.3,1.4-0.4c0-0.3-0.1-0.9-0.2-1.4c-0.1-0.6-0.3-1-0.4-1.2
		c-0.3-0.4-0.5-0.6-1.3-0.8c-0.3-0.1-0.5-0.3-0.5-0.6c0-0.1,0-0.2,0-0.2c0-0.4,0.3-0.6,0.5-0.7c0.1,0,0.2,0,0.2,0c0.1,0,0.3,0,0.5,0
		c0.7,0,1.1,0.1,1.4,0.2c0.2,0.1,0.8,0.7,0.8,1.1c0,0.2,0,0.4,0,0.5c0,0.2-0.1,0.3,0,0.6c0.1,0.4,0.3,1.2,0.5,2.1
		c0.3,1.2,0.6,2.6,0.9,3.6c0.1,0.5,0.2,0.9,0.3,1.2c0,0.1,0,0.2,0.1,0.2c0.1,0.5,0.2,0.7,0.3,0.9c0.1,0.1,0.1,0.2,0.2,0.4l0.1,0.1
		c0.1,0.1,0.1,0.2,0.1,0.3c0,0,0,0.1,0,0.1c0,0.2,0,0.4-0.1,0.6l-0.1,0.2c-0.1,0.4-0.6,0.5-1.1,0.8c-0.2,0.1-0.4,0.2-0.6,0.2
		c-0.1,0-0.1,0-0.1,0.1c-0.3,0.1-0.6-0.1-0.8-0.4c0-0.1-0.1-0.1-0.1-0.2c-0.1-0.3,0-0.6,0.2-0.8c0.1,0,0.1-0.1,0.2-0.1
		c0.2-0.2,0.4-0.3,0.5-0.9c0.1-0.3,0-0.9-0.2-1.6c-0.1-0.6-0.3-1.2-0.5-1.4c-0.3,0-1.5,0.1-5.8,1.1c-0.8,0.2-1.5,0.4-2.1,0.5
		c-0.4,0.1-0.8,0.2-1,0.2c-0.2,0.1-0.6-0.1-0.7-0.4C51.5,123,51.5,123,51.5,122.9"/>
	<path class="st4" d="M63.7,125.2C63.7,125.2,63.7,125.3,63.7,125.2c0,0.2,0,0.3-0.1,0.6c0,0,0,0.1-0.1,0.2c-0.1,0.3-0.4,0.4-1,0.7
		c-0.2,0.1-0.4,0.2-0.6,0.2c0,0-0.1,0-0.1,0c-0.2,0.1-0.4-0.1-0.6-0.3c0,0,0-0.1-0.1-0.2c0-0.2,0-0.4,0.2-0.6c0.1,0,0.1-0.1,0.2-0.1
		c0.2-0.2,0.4-0.3,0.5-1c0.1-0.4,0-1.1-0.2-1.7c-0.2-0.7-0.4-1.4-0.5-1.6c-0.3,0-1.4,0.1-6,1.1c-0.8,0.2-1.5,0.4-2.1,0.5
		c-0.4,0.1-0.8,0.2-1,0.2c-0.1,0-0.4,0-0.5-0.3c0,0,0-0.1,0-0.1c0-0.2,0-0.4,0.2-0.5c0,0,0.2-0.2,0.5-1.5c0-0.3,0.2-0.6,0.5-0.6
		c0.3-0.1,0.5,0,0.8,0.1c0.1,0,0.2,0,0.3,0c0.3,0,3.3-0.5,5.3-0.9c1.1-0.3,1.5-0.4,1.6-0.4c0-0.3-0.1-1-0.2-1.6
		c-0.1-0.5-0.3-1.1-0.5-1.3c-0.3-0.4-0.6-0.6-1.4-0.9c-0.2-0.1-0.4-0.3-0.4-0.5c0-0.1,0-0.1,0-0.2c0-0.3,0.2-0.5,0.3-0.5
		c0.1,0,0.1,0,0.2,0c0.1,0,0.3,0,0.5,0c0.6,0,1,0.1,1.3,0.2c0.2,0.1,0.7,0.6,0.7,1c0,0.2,0,0.3,0,0.4c0,0.2-0.1,0.4,0,0.7
		c0.1,0.4,0.3,1.2,0.5,2.1c0.3,1.2,0.6,2.6,0.9,3.6c0.1,0.5,0.2,0.9,0.3,1.2c0,0.1,0,0.2,0.1,0.2c0.1,0.6,0.2,0.7,0.4,1
		c0.1,0.1,0.1,0.2,0.2,0.3c0,0,0,0.1,0.1,0.1C63.6,125,63.7,125.1,63.7,125.2 M64.1,125.1L64.1,125.1c0-0.1-0.1-0.3-0.2-0.4
		c0,0,0-0.1-0.1-0.1c-0.1-0.1-0.2-0.3-0.2-0.4c-0.1-0.2-0.2-0.3-0.3-0.8c0-0.1,0-0.1,0-0.2c-0.1-0.3-0.1-0.7-0.3-1.2
		c-0.2-1.1-0.6-2.4-0.9-3.6l0,0c-0.2-0.9-0.4-1.7-0.5-2.1c-0.1-0.3,0-0.4,0-0.6c0-0.2,0.1-0.4,0-0.6c-0.1-0.5-0.7-1.1-1-1.2
		c-0.3-0.1-0.8-0.2-1.4-0.2c-0.2,0-0.4,0-0.5,0c-0.1,0-0.2,0-0.3,0c-0.3,0.1-0.7,0.3-0.7,0.9c0,0.1,0,0.2,0,0.3
		c0.1,0.4,0.4,0.7,0.7,0.8c0.8,0.2,1,0.4,1.2,0.7c0.1,0.1,0.2,0.5,0.4,1.1c0.1,0.5,0.2,0.9,0.2,1.2c-0.2,0.1-0.6,0.2-1.3,0.3
		c-2,0.5-4.8,0.9-5.2,0.9c0,0-0.1,0-0.2,0c-0.3-0.1-0.6-0.1-0.9-0.1c-0.5,0.1-0.8,0.5-0.8,1c-0.2,0.9-0.3,1.2-0.3,1.3
		c-0.3,0.2-0.4,0.6-0.3,0.9c0,0.1,0,0.1,0,0.2c0.2,0.5,0.6,0.6,0.9,0.5c0.3-0.1,0.6-0.1,1-0.2l0,0c0.6-0.1,1.3-0.3,2.1-0.5
		c3.9-0.9,5.2-1.1,5.6-1.1c0.1,0.2,0.3,0.7,0.4,1.3c0.2,0.7,0.2,1.2,0.2,1.5c-0.1,0.5-0.2,0.6-0.4,0.7c-0.1,0-0.1,0.1-0.2,0.2
		c-0.3,0.2-0.4,0.6-0.3,1c0,0.1,0,0.2,0.1,0.2c0.2,0.4,0.6,0.6,1,0.5c0.1,0,0.1,0,0.2-0.1l0,0l0,0c0.1-0.1,0.3-0.2,0.5-0.2
		c0.6-0.2,1.1-0.4,1.3-0.9l0.1-0.1C64.1,125.7,64.1,125.5,64.1,125.1C64.1,125.2,64.1,125.2,64.1,125.1"/>
</g>
</svg>
