<?xml version="1.0" encoding="utf-8"?>
<!-- Generator: Adobe Illustrator 25.3.0, SVG Export Plug-In . SVG Version: 6.00 Build 0)  -->
<svg version="1.1" id="Layer_1" xmlns="http://www.w3.org/2000/svg" xmlns:xlink="http://www.w3.org/1999/xlink" x="0px" y="0px"
	 viewBox="0 0 750.2 400.1" style="enable-background:new 0 0 750.2 400.1;" xml:space="preserve">
<g>
	<polygon points="643.3,161.7 643.3,166.6 643.3,161.7 	"/>
	<path d="M299.7,163l0-11.8c-0.1,0-0.2-0.1-0.3-0.2l-18.4,4.2L299.7,163z"/>
	<polygon points="299.7,245.4 299.7,232.5 281.1,239.3 	"/>
	<polygon points="299.6,308.9 281.1,317.1 299.6,320.2 	"/>
	<polygon points="105.2,162.8 123.4,155.2 105.2,151 	"/>
	<polygon points="105.2,232.7 105.2,245.3 123.4,239.3 	"/>
	<polygon points="105.2,309.1 105.2,320.1 123.4,317.1 	"/>
	<polygon points="642.8,162.8 642.8,151.1 624.7,155.2 	"/>
	<polygon points="642.8,245.2 642.8,232.7 624.7,239.3 	"/>
	<polygon points="642.7,309.2 624.7,317.1 642.7,320.1 	"/>
	<path d="M448.3,151l0,12l18.8-7.8L448.3,151C448.3,151,448.3,151,448.3,151z"/>
	<polygon points="448.3,232.5 448.3,245.4 467,239.3 	"/>
	<polygon points="448.3,308.9 448.3,320.2 467,317.1 	"/>
</g>
</svg>
