<?xml version="1.0" encoding="utf-8"?>
<!-- Generator: Adobe Illustrator 25.3.0, SVG Export Plug-In . SVG Version: 6.00 Build 0)  -->
<svg version="1.1" id="Layer_1" xmlns="http://www.w3.org/2000/svg" xmlns:xlink="http://www.w3.org/1999/xlink" x="0px" y="0px"
	 viewBox="0 0 750.2 400.1" style="enable-background:new 0 0 750.2 400.1;" xml:space="preserve">
<g>
	<polygon points="643.3,161.7 643.3,161.7 643.3,166.6 	"/>
	<path d="M297.6,149.2c-2.4-3.1-7.3-10.4-9.6-21.2c-0.2-0.9-0.4-1.8-0.6-2.9c-0.8-4-1.9-9.2-3.5-14.9H120.5
		c-1.8,6.2-3,11.8-3.8,15.8l-0.5,2.2c-2.3,10.6-7.1,17.9-9.6,21.1H297.6z"/>
	<path d="M290.2,131.7c2.9,9.3,7.4,15.2,8.7,16.6l15.6,3l17.8-77.5l-27-8.2L290.2,131.7z"/>
	<path d="M92,150.8l13.7-2.7c1.8-2.1,7.2-9.2,9.8-20.5L101,65.3l-26.9,8.1L92,150.8z"/>
	<path d="M434.3,150.7l14.6-2.8c0.1-0.2,0.3-0.4,0.5-0.6c0.7-0.9,1.7-2.3,2.8-4.1c1.9-3.1,4.3-8,5.9-14.4l-14.4-62.9l-27,8.2
		L434.3,150.7z"/>
	<path d="M639.2,143.2c1,1.7,2.1,3.3,2.9,4.3c0.3,0.1,3.3,0.7,4,0.8c1.2,0.2,1.7,0.3,1.9,0.4l8,1.5l18.2-77.3l-27-8.1l-14.5,61.4
		c0.1,0.4,0.2,0.8,0.2,1.1C634.5,134.4,637.2,139.9,639.2,143.2z"/>
</g>
</svg>
