<?xml version="1.0" encoding="utf-8"?>
<!-- Generator: Adobe Illustrator 25.3.0, SVG Export Plug-In . SVG Version: 6.00 Build 0)  -->
<svg version="1.1" id="Layer_1" xmlns="http://www.w3.org/2000/svg" xmlns:xlink="http://www.w3.org/1999/xlink" x="0px" y="0px"
	 viewBox="0 0 750.2000122 400.1000061" style="enable-background:new 0 0 750.2000122 400.1000061;" xml:space="preserve">
<g>
	<polygon points="643.3430176,166.5984802 643.3478394,161.7063293 643.3447266,161.7026062 	"/>
	<path d="M279.694458,94.6496277c5.5424805,10.8340454,7.2548828,22.3964844,8.8085938,29.8476562
		c0.2158203,1.0385742,0.4160156,1.9975586,0.6035156,2.8647461c1.0922852,5.0435181,2.7739868,9.2798462,4.4549561,12.6226807
		v-2.3196411l57.2589111,11.5379028l14.2774048-65.4820557L251.5734253,49.3591003l-0.3299561,0.1072998
		c-0.0546265,2.4840088-0.5007935,9.1384888-1.8330688,15.0980835l2.4470215,0.9411621
		C264.6142578,70.5041809,271.6221313,78.8703308,279.694458,94.6496277z"/>
	<path d="M54.3934326,149.0482483l56.4910889-11.3831787v2.4115601c1.7420044-3.3770142,3.4831543-7.6826172,4.602478-12.8508301
		l0.4541016-2.1254883c1.5117188-7.1064453,4.0410156-19,8.9560547-30.5800781
		c6.6132812-15.5854492,14.0193481-22.614624,25.6898804-28.0734253l5.0823364-2.2587891l-0.4737549-1.4563599
		c-1.3706055-6.0641479-1.6524048-10.977417-1.7032471-13.1689453c-0.0014648-0.06073,0.0089111-0.1186523,0.0117188-0.1784668
		L40.1486206,83.7209167L54.3934326,149.0482483z"/>
	<path d="M399.3059082,149.186615l55.5775146-11.1990356c1.3511353-2.9669189,2.6859131-6.6077271,3.6057739-10.8518677
		c0.2177734-1.0078125,0.4462891-2.1142578,0.6914062-3.3066406c1.4960938-7.269043,3.5449219-17.2246094,8.0175781-27.6411133
		c6.3671875-14.8339844,17.1240234-25.5300293,29.5830078-32.8464355l24.4404297-15.6225586
		c-2.1435547,0.0966797-7.4606934,0.1982422-9.3532715,0.2998047l-1.515625,0.0810547l0.0263672-0.0214844
		c-1.5332031,0.0932617-2.9609375,0.1850586-4.2763672,0.2719727c-1.8652344,0.1147461-3.4882812,0.2216797-4.8105469,0.3134766
		c-1.1367188,0.078125-1.6103516,0.1420898-1.8076172,0.1816406l-0.0996094,0.0244141l-14.0205078,4.2753906l-100.6435547,30.574707
		L399.3059082,149.186615z"/>
	<path d="M624.1860962,96.7233582c4.4726562,10.4165039,6.5668945,20.0265503,8.0629883,27.2955933
		c0.2451172,1.1923828,0.4736328,2.2988281,0.6914062,3.3066406c1.1295166,5.2116699,2.8828125,9.5263062,4.5261841,12.7769165
		v-2.437439l57.9674683,11.6806641l14.619751-65.6248169L593.6339722,48.6906433l-0.2050781-0.0336914
		c-3.3271484-0.2275391-13.6297607-0.5932617-21.7000732-0.9448242l22.7988281,15.6484375
		C606.9563599,70.6579285,617.8189087,81.8893738,624.1860962,96.7233582z"/>
</g>
</svg>
