<?xml version="1.0" encoding="utf-8"?>
<!-- Generator: Adobe Illustrator 25.3.0, SVG Export Plug-In . SVG Version: 6.00 Build 0)  -->
<svg version="1.1" id="Layer_1" xmlns="http://www.w3.org/2000/svg" xmlns:xlink="http://www.w3.org/1999/xlink" x="0px" y="0px"
	 viewBox="0 0 750.2 400.1" style="enable-background:new 0 0 750.2 400.1;" xml:space="preserve">
<g>
	<polygon points="643.3,166.6 643.3,161.7 643.3,161.7 	"/>
	<polygon points="299.7,173.1 105.2,173.1 105.2,219.9 299.7,219.9 	"/>
	<path d="M290.2,131.7c2.9,9.3,7.4,15.2,8.7,16.6l15.6,3l17.8-77.5l-27-8.2L290.2,131.7z"/>
	<path d="M92,150.8l13.7-2.7c1.8-2.1,7.2-9.2,9.8-20.5L101,65.3l-26.9,8.1L92,150.8z"/>
	<path d="M434.3,150.7l14.6-2.8c0.1-0.2,0.3-0.4,0.5-0.6c0.7-0.9,1.7-2.3,2.8-4.1c1.9-3.1,4.3-8,5.9-14.4l-14.4-62.9l-27,8.2
		L434.3,150.7z"/>
	<path d="M647.2,64.8l-14.5,61.4c0.1,0.4,0.2,0.8,0.2,1.1c1.5,7.1,4.2,12.6,6.2,15.9c1,1.7,2.1,3.3,2.9,4.3c0.3,0.1,3.3,0.7,4,0.8
		c1.2,0.2,1.7,0.3,1.9,0.4l8,1.5l18.2-77.3L647.2,64.8z"/>
</g>
</svg>
