<?xml version="1.0" encoding="utf-8"?>
<!-- Generator: Adobe Illustrator 25.3.0, SVG Export Plug-In . SVG Version: 6.00 Build 0)  -->
<svg version="1.1" id="Layer_1" xmlns="http://www.w3.org/2000/svg" xmlns:xlink="http://www.w3.org/1999/xlink" x="0px" y="0px"
	 viewBox="0 0 750.2000122 400.1000061" style="enable-background:new 0 0 750.2000122 400.1000061;" xml:space="preserve">
<g>
	<path d="M242.8451538,80.4414368h26.7611084c-5.2595215-6.5413208-11.4848633-11.2665405-18.6343994-14.0877075
		l-2.1310425-0.6044312C247.5921631,70.3923035,245.6992188,75.4806213,242.8451538,80.4414368z"/>
	<path d="M155.9205933,65.6445618l-1.8911133,0.5372925c-7.8320923,3.0863647-14.2345581,7.7498779-19.5045166,14.2595825
		h27.4730835C159.1032715,75.4305115,157.182251,70.297821,155.9205933,65.6445618z"/>
	<polygon points="105.1853638,178.7435608 105.2017212,216.9420471 299.6849365,216.9420471 299.7228394,178.7435608 	"/>
	<polygon points="105.2141113,245.9084167 105.2304688,284.1069031 299.6182861,284.1069031 299.656189,245.9084167 	"/>
	<path d="M105.2424927,312.2396545l0.0174561,40.7439575c5.0537109,1.0810547,57.2822266,12.0400391,95.28125,11.5029297
		c40.4892578-0.5644531,93.8359375-10.5878906,99.0087891-11.578125l0.0403442-40.6687622H105.2424927z"/>
	<path d="M297.1437988,148.6106262c-2.5461426-3.4182129-6.9290161-10.440979-9.131897-20.612854
		c-0.1904297-0.8745117-0.3916016-1.8422852-0.609375-2.8901367c-0.833252-3.9973145-1.9023438-9.1132202-3.4748535-14.6954346
		H120.4047241c-1.7420044,6.1043091-2.9188232,11.6276245-3.7678223,15.6168213l-0.4609375,2.15625
		c-2.1582031,9.9632568-6.5288696,16.9639282-9.1057739,20.425354H297.1437988z"/>
	<path d="M332.3699341,73.8147278l-26.960083-8.1602783l-15.1699219,66.0452881
		c2.8563232,9.3292847,7.439209,15.1779175,8.6762085,16.6417847l15.6397705,2.9881592L332.3699341,73.8147278z"/>
	<path d="M251.2434692,49.4664001c-0.0546265,2.4840088-0.5007935,9.1384888-1.8330688,15.0980835l2.4470215,0.9411621
		c9.4153442,3.689209,15.6975708,9.2243652,21.5889282,18.2090454l6.0201416-25.9128418l-27.8930664-8.442749
		L251.2434692,49.4664001z"/>
	<path d="M91.9533691,150.8191223l13.684021-2.7173462c1.7987671-2.118042,7.2244263-9.2388916,9.7507935-20.4608765
		l-14.4068604-62.3469238l-26.8737793,8.1403809L91.9533691,150.8191223z"/>
	<path d="M130.2016602,84.1074524c5.3894043-8.6673584,11.7076416-13.6016846,20.385376-17.6606445l5.0823364-2.2587891
		l-0.4737549-1.4563599c-1.3706055-6.0641479-1.6524048-10.977417-1.7032471-13.1689453
		c-0.0014648-0.06073,0.0089111-0.1186523,0.0117188-0.1784668l-29.3070068,8.8774414L130.2016602,84.1074524z"/>
	<path d="M443.6713257,65.8112488L416.713623,74.000824l17.6124268,76.6589355l14.6055298-2.8497314
		c0.1445312-0.1757812,0.3066406-0.3764648,0.4960938-0.621582c0.6621094-0.8540039,1.6884766-2.2661133,2.8144531-4.1430664
		c1.8514404-3.085144,4.2976074-8.0187378,5.8754883-14.3800049L443.6713257,65.8112488z"/>
	<path d="M511.8683472,48.0187683l-1.515625,0.0810547l0.0263672-0.0214844
		c-1.5332031,0.0932617-2.9609375,0.1850586-4.2763672,0.2719727c-1.8652344,0.1147461-3.4882812,0.2216797-4.8105469,0.3134766
		c-1.1367188,0.078125-1.6103516,0.1420898-1.8076172,0.1816406l-0.0996094,0.0244141l-14.0205078,4.2753906l-17.2486572,5.2399902
		l5.9360962,25.5507812c6.1308594-8.69104,14.0098267-15.4740601,22.7293091-20.5944824l24.4404297-15.6225586
		C519.078064,47.8156433,513.7609253,47.9172058,511.8683472,48.0187683z"/>
	<path d="M639.187561,143.23526c1.0029297,1.6713867,2.0996094,3.3237305,2.8808594,4.3408203
		c0.3154297,0.1240234,3.2530518,0.6575317,3.9776611,0.7727661c1.2275391,0.1943359,1.6904297,0.2783203,1.9189453,0.3886719
		l8.0148926,1.4744263l18.1708374-77.2941284l-26.9822998-8.1188354l-14.465332,61.4057617
		c0.0800171,0.3806763,0.1603394,0.7642822,0.2373657,1.1208496
		C634.4824829,134.4403381,637.1885376,139.9042053,639.187561,143.23526z"/>
	<path d="M623.5501709,57.6922913l-29.9161987-9.0016479l-0.2050781-0.0336914
		c-3.3271484-0.2275391-13.6297607-0.5932617-21.7000732-0.9448242l22.7988281,15.6484375
		c8.7144165,5.1165771,16.6515503,12.1745605,22.8164062,21.0449829L623.5501709,57.6922913z"/>
</g>
</svg>
