<?xml version="1.0" encoding="utf-8"?>
<!-- Generator: Adobe Illustrator 25.3.0, SVG Export Plug-In . SVG Version: 6.00 Build 0)  -->
<svg version="1.1" id="Layer_1" xmlns="http://www.w3.org/2000/svg" xmlns:xlink="http://www.w3.org/1999/xlink" x="0px" y="0px"
	 viewBox="0 0 200 100" style="enable-background:new 0 0 200 100;" xml:space="preserve">
<style type="text/css">
	.st0{fill:#1E1E1C;}
</style>
<g>
	<path class="st0" d="M65.4,34.8c0.2,0,0.4,0,0.5,0c2.5,0,5,0,7.5,0c1.1,0,1.8,0.4,2.3,1.4c2.5,4.4,5,8.9,7.6,13.3
		c0.1,0.1,0.2,0.3,0.3,0.5c0.1-0.3,0.1-0.5,0.2-0.6c0.6-4.5,1.1-9,1.7-13.5c0.1-0.7,0.4-1,1-1c2.5,0,4.9,0,7.4,0
		c0.1,0,0.1,0,0.3,0.1c-1.3,10.3-2.6,20.6-3.9,30.9c-0.2,0-0.4,0-0.6,0c-2.6,0-5.2,0-7.7,0c-0.5,0-0.8-0.2-1-0.6
		c-2.8-4.8-5.6-9.7-8.5-14.5c-0.1-0.1-0.2-0.3-0.3-0.5c-0.1,0.5-0.2,1-0.2,1.4c-0.4,3-0.8,5.9-1.1,8.9c-0.2,1.3-0.3,2.7-0.5,4
		c-0.1,1-0.6,1.4-1.5,1.4c-2.3,0-4.6,0-6.9,0c0,0-0.1,0-0.2-0.1C62.8,55.4,64.1,45.1,65.4,34.8z"/>
	<path class="st0" d="M2,65.8c0.1-1.1,0.3-2.2,0.4-3.3c0.3-2.4,0.6-4.9,0.9-7.3c0.3-2.4,0.6-4.8,0.9-7.2c0.3-2.5,0.6-5,0.9-7.4
		c0.2-1.8,0.5-3.6,0.7-5.4c0-0.3,0.1-0.4,0.4-0.4c0.1,0,0.2,0,0.2,0c5.1,0,10.1,0,15.2,0c2.2,0,4.2,0.6,5.8,2.1
		c1.9,1.7,2.8,3.9,2.6,6.4c-0.2,3.5-2.2,5.9-4.9,7.8c-0.5,0.3-1,0.6-1.5,0.9c3.1,4.1,4.7,9,6.6,13.8c-0.2,0-0.4,0-0.5,0
		c-3,0-6,0-8.9,0c-0.8,0-1.4-0.4-1.7-1.2c-1.1-2.6-2.2-5.1-3.3-7.7c-0.3-0.7-0.8-1.4-1.2-2.1c-0.1-0.2-0.3-0.4-0.4-0.5
		c-0.4-0.4-0.7-0.3-0.8,0.3c-0.3,2-0.5,3.9-0.7,5.9c-0.2,1.3-0.3,2.7-0.5,4c-0.1,0.8-0.5,1.1-1.3,1.3c-0.1,0-0.3,0-0.4,0
		c-2.7,0-5.3,0-8,0C2.3,65.8,2.2,65.8,2,65.8z M17.3,40.2c-0.6,0-1.3,0-1.9,0c-0.4,0-0.5,0.1-0.6,0.5c-0.3,2.7-0.6,5.4-1,8.1
		c0,0.4,0.1,0.4,0.4,0.4c0.5,0,1.1,0,1.6-0.1c0.6,0,1.2,0,1.8-0.2c1.4-0.3,2.4-1.4,2.9-2.7c0.6-1.5,0.9-3.1,0.3-4.8
		c-0.3-0.9-0.9-1.3-1.8-1.3C18.5,40.2,17.9,40.2,17.3,40.2z"/>
	<path class="st0" d="M48,34c3.6,0.1,6.9,1.1,9.8,3.5c2,1.7,3.4,3.9,3.9,6.6c1.2,6.1-0.1,11.7-3.9,16.4c-2.9,3.5-6.7,5.5-11.1,6
		c-3.8,0.5-7.4-0.1-10.7-2.2c-3.3-2.1-5.4-5.2-5.9-9.3c-0.7-5.5,0.5-10.6,4.1-14.8c2.3-2.8,5.3-4.6,8.8-5.5
		C44.5,34.2,46.3,33.9,48,34z M39.6,52.5c0,0.6,0.1,1.4,0.2,2.2c0.2,1.5,0.6,2.9,1.4,4.1c1.7,2.5,4.3,2.9,6.6,1c1-0.8,1.8-1.9,2.4-3
		c1.6-3.3,2.1-6.8,1.9-10.5c-0.1-1.7-0.5-3.3-1.4-4.7c-1.4-2.3-3.9-2.9-6.1-1.5c-1.3,0.8-2.2,1.9-2.9,3.1
		C40.2,46,39.7,49.1,39.6,52.5z"/>
	<path class="st0" d="M141.4,58.8c-0.4,0.9-0.8,1.6-1.1,2.4c-0.7,1.4-1.3,2.7-2,4.1c-0.2,0.4-0.4,0.5-0.8,0.5c-6.6,0-13.2,0-19.9,0
		c-0.2,0-0.3,0-0.6,0c0.1-0.8,0.2-1.5,0.3-2.3c0.4-3,0.7-5.9,1.1-8.9c0.3-2.4,0.6-4.9,0.9-7.3c0.3-2.4,0.6-4.8,0.9-7.2
		c0.2-1.6,0.4-3.1,0.6-4.7c0-0.4,0.2-0.5,0.6-0.5c7.3,0,14.6,0,21.9,0c0.2,0,0.3,0,0.6,0c-0.1,0.8-0.2,1.6-0.3,2.4
		c-0.1,1-0.2,2-0.4,3c-0.1,1-0.7,1.5-1.7,1.5c-3.7,0-7.3,0-11,0c-0.2,0-0.3,0-0.6,0c-0.1,0.4-0.1,0.9-0.2,1.3c-0.1,1-0.2,2-0.4,3.1
		c-0.1,0.5,0.1,0.6,0.5,0.6c3.5,0,7,0,10.5,0c0.2,0,0.4,0,0.6,0c-0.1,1-0.2,2-0.4,2.9c-0.1,0.7-0.2,1.3-0.3,2
		c-0.1,1.2-0.7,1.8-1.9,1.8c-3.1,0-6.2,0-9.4,0c-0.5,0-0.7,0.1-0.8,0.7c-0.1,1.3-0.3,2.6-0.5,3.9c-0.1,0.7,0.1,0.9,0.7,0.9
		c4,0,8,0,12,0C141,58.8,141.1,58.8,141.4,58.8z"/>
	<path class="st0" d="M172.7,65.8c-0.2,0-0.4,0-0.6,0c-2.6,0-5.2,0-7.8,0c-1.2,0-1.8-0.3-2.1-1.7c-0.3-1.2-0.6-2.4-0.9-3.7
		c-0.2-0.9-0.6-1.2-1.5-1.2c-1.9,0-3.7,0-5.6,0c-1,0-2,0-3,0c-0.4,0-0.6,0.1-0.7,0.5c-0.8,1.6-1.6,3.1-2.3,4.7
		c-0.4,0.9-1.1,1.4-2,1.4c-2,0-4,0-6,0c0,0-0.1,0-0.1-0.1c0.3-0.6,0.6-1.2,0.8-1.7c2-4.1,4-8.1,6-12.2c2.5-5.1,5.1-10.3,7.6-15.4
		c0.2-0.3,0.3-0.6,0.5-0.9c0.2-0.5,0.5-0.6,1-0.6c2.9,0,5.7,0,8.6,0c0.4,0,0.6,0.2,0.6,0.5c0.8,3.2,1.6,6.4,2.4,9.7
		c0.9,3.5,1.7,6.9,2.6,10.4C171,58.8,171.8,62.3,172.7,65.8z M157.6,45.3c0,0-0.1,0-0.1,0c-1.3,2.7-2.7,5.3-4,8
		c0.1,0,0.2,0.1,0.2,0.1c1.7,0,3.3,0,5,0c0.6,0,0.8-0.3,0.7-0.9c-0.5-2-0.9-3.9-1.4-5.9C157.8,46.1,157.7,45.7,157.6,45.3z"/>
	<path class="st0" d="M93.5,56.3c1.1,0.5,2.1,1,3.2,1.5c2.3,0.9,4.7,1.6,7.2,1.5c0.9,0,1.9-0.2,2.8-0.4c0.6-0.1,1.1-0.5,1.2-1.2
		c0.1-0.8-0.1-1.5-0.7-1.9c-1-0.6-2.1-1.1-3.2-1.6c-1.9-0.8-3.9-1.5-5.7-2.7c-2.3-1.5-3.2-3.7-3.4-6.4c-0.1-2.1,0.2-4,1.5-5.7
		c1.4-1.9,3.2-3.2,5.3-4c5.1-2,10.2-1.6,15.1,0.8c0.2,0.1,0.3,0.2,0.3,0.5c-0.3,1.9-0.5,3.9-0.8,5.8c0,0.1,0,0.1-0.1,0.2
		c-0.1,0-0.2,0-0.3-0.1c-2.1-1.1-4.4-1.7-6.8-1.8c-1.5-0.1-2.9,0.3-4.3,0.8c-0.1,0-0.2,0.1-0.3,0.2c-1.1,0.7-1.2,1.7-0.2,2.5
		c0.8,0.5,1.6,0.9,2.5,1.3c2,0.8,4.1,1.7,6,2.9c4.9,3.3,4.7,10.1,1.3,13.7c-1.9,2-4.2,3.1-6.8,3.7c-3.7,0.9-7.3,0.5-10.9-0.6
		c-1.2-0.4-2.4-0.8-3.6-1.3c-0.3-0.1-0.4-0.2-0.3-0.5C92.9,61.2,93.2,58.8,93.5,56.3C93.5,56.4,93.5,56.4,93.5,56.3z"/>
	<path class="st0" d="M186.7,34.8c-1,8-2,15.9-3,23.9c4.2,0,8.3,0,12.6,0c-0.3,2.4-0.6,4.7-0.9,7.1c-0.2,0-0.4,0-0.6,0
		c-6.6,0-13.2,0-19.8,0c-0.1,0-0.3,0-0.4,0c-1,0-1.5-0.6-1.4-1.7c0.2-1.4,0.3-2.7,0.5-4.1c0.4-2.9,0.7-5.9,1.1-8.8
		c0.4-2.8,0.7-5.6,1.1-8.4c0.3-2.4,0.6-4.9,0.9-7.3c0.1-0.7,0.1-0.7,0.7-0.7c2.8,0,5.7,0,8.5,0C186.3,34.8,186.5,34.8,186.7,34.8z"
		/>
	<path class="st0" d="M194.5,34.7c-1.9,0-3.4,1.5-3.4,3.4c0,0,0,0,0,0c0,1.9,1.5,3.4,3.4,3.4c1.9,0,3.4-1.5,3.4-3.4
		C197.9,36.2,196.4,34.7,194.5,34.7z M194.5,40.9c-1.5,0-2.8-1.3-2.8-2.8s1.3-2.8,2.8-2.8c1.5,0,2.8,1.3,2.8,2.8
		C197.4,39.6,196.1,40.9,194.5,40.9z"/>
	<path class="st0" d="M195.9,39.2c-0.3-0.5-0.5-0.8-0.9-0.9v0c0.6,0,1.1-0.5,1.1-1.1c0-0.4-0.3-1-1.2-1h-1.6l0,3.7h0.6v-1.5h0.4
		c0.5,0,0.6,0.2,1.1,1l0.3,0.6h0.7L195.9,39.2z M194.7,37.9h-0.9v-1.1h1c0.4,0,0.7,0.2,0.7,0.5C195.4,37.7,195.1,37.9,194.7,37.9z"
		/>
</g>
</svg>
