<?xml version="1.0" encoding="utf-8"?>
<!-- Generator: Adobe Illustrator 25.3.0, SVG Export Plug-In . SVG Version: 6.00 Build 0)  -->
<svg version="1.1" id="Layer_1" xmlns="http://www.w3.org/2000/svg" xmlns:xlink="http://www.w3.org/1999/xlink" x="0px" y="0px"
	 viewBox="0 0 1010 500" style="enable-background:new 0 0 1010 500;" xml:space="preserve">
<style type="text/css">
	.st0{fill:none;stroke:#475B38;stroke-width:0.931;stroke-miterlimit:10;}
	.st1{fill:#095540;}
	.st2{font-family:'ArialMT';}
	.st3{font-size:8.0982px;}
	.st4{fill:none;stroke:#475B38;stroke-width:1.1117;stroke-miterlimit:10;}
</style>
<g>
	<line class="st0" x1="223.7" y1="123.1" x2="223.7" y2="83"/>
</g>
<text transform="matrix(1 0 0 1 198.2738 68.3517)" class="st1 st2 st3">SUBLIMATED</text>
<text transform="matrix(1 0 0 1 198.2738 77.7517)" class="st1 st2 st3">FABRIC 1</text>
<g>
	<text transform="matrix(1 0 0 1 358.9133 69.8407)" class="st1 st2 st3">Heatset Size Label</text>
</g>
<line class="st0" x1="328.7" y1="110.5" x2="377.3" y2="71.7"/>
<g>
	<line class="st0" x1="468.9" y1="298.3" x2="386.7" y2="298.3"/>
</g>
<g>
	<line class="st0" x1="611.3" y1="298.9" x2="529" y2="298.9"/>
</g>
<text transform="matrix(1 0 0 1 476.2728 296.3517)" class="st1 st2 st3">SUBLIMATED</text>
<text transform="matrix(1 0 0 1 476.2728 305.7517)" class="st1 st2 st3">FABRIC 1</text>
<g>
	<text transform="matrix(1 0 0 1 417.6426 474.1201)" class="st1 st2 st3">HEM BINDING WITH DROP TAIL TO BACK</text>
</g>
<polyline class="st0" points="389.4,410.9 483.1,460.6 666.1,427.8 "/>
<g>
	<text transform="matrix(1 0 0 1 80.5264 150.2993)" class="st1 st2 st3">25mm Sleeve</text>
	<text transform="matrix(1 0 0 1 80.5264 159.9993)" class="st1 st2 st3">Tipping/Cuff</text>
</g>
<line class="st0" x1="168.5" y1="151.1" x2="142.3" y2="152.8"/>
<g>
	<g>
		<text transform="matrix(1 0 0 1 280.3011 36.3746)" class="st1 st2 st3">COLLAR BINDING</text>
	</g>
	<line class="st4" x1="318.9" y1="86" x2="311" y2="42.1"/>
</g>
</svg>
