<?xml version="1.0" encoding="utf-8"?>
<!-- Generator: Adobe Illustrator 25.3.0, SVG Export Plug-In . SVG Version: 6.00 Build 0)  -->
<svg version="1.1" id="Layer_1" xmlns="http://www.w3.org/2000/svg" xmlns:xlink="http://www.w3.org/1999/xlink" x="0px" y="0px"
	 viewBox="0 0 120 60" style="enable-background:new 0 0 120 60;" xml:space="preserve">
<style type="text/css">
	.st0{fill:#1D1D1B;}
	.st1{fill:#E1251B;}
</style>
<g>
	<polygon class="st0" points="8.6325102,35.2232132 11.3332901,35.2232132 11.3332901,38.3616447 17.0272808,38.3616447 
		17.0272808,35.2232132 19.7284508,35.2232132 19.7284508,44.030014 17.0272808,44.030014 17.0272808,40.6958656 
		11.3332901,40.6958656 11.3332901,44.030014 8.6325102,44.030014 	"/>
	<path class="st0" d="M26.2178097,35.2232933h3.515501l4.84161,8.8064003h-3.0044594l-0.8391609-1.5583496h-5.4757595
		l-0.7894592,1.5583496h-3.0161095L26.2178097,35.2232933z M26.2655792,40.5747757h3.4556904l-1.7525005-3.3085098
		L26.2655792,40.5747757z"/>
	<path class="st0" d="M36.3014908,35.2233658h8.1509094c2.0814209,0,2.6402206,1.0344887,2.6402206,2.6157608v0.5591888
		c0,1.1781693-0.2663918,1.8709412-1.5082512,2.1641312v0.0229111c0.803051,0.146389,1.4717484,0.4986115,1.4717484,1.9478302
		v1.4966011h-2.6992493v-1.0605011c0-0.9222717-0.2671585-1.2275009-1.1082611-1.2275009h-4.2447701v2.2879982H36.301487
		C36.301487,44.0297852,36.301487,35.2233658,36.3014908,35.2233658z M39.0038414,39.5516243h4.4641609
		c0.7288895,0,0.9987793-0.2900696,0.9987793-0.9241982V38.336956c0-0.7805214-0.3910484-0.9242096-1.2418594-0.9242096h-4.2210808
		V39.5516243z"/>
	<polygon class="st0" points="48.9197197,35.2232132 59.2118492,35.2232132 59.2118492,37.4125862 55.4159698,37.4125862 
		55.4159698,44.030014 52.7159615,44.030014 52.7159615,37.4125862 48.9197197,37.4125862 	"/>
	<path class="st0" d="M61.0400696,35.2233353h7.3587189c2.5672073,0,3.1869736,1.2892418,3.1869736,3.0161095v0.7537384
		c0,1.3133011-0.5704422,2.8211708-2.4813766,2.8211708h-5.3639107v2.2153816h-2.7004089
		C61.0400658,44.0297356,61.0400658,35.2233353,61.0400696,35.2233353z M63.7404709,39.6269264h4.1969986
		c0.6333466,0,0.8748932-0.413559,0.8748932-0.9381905v-0.3401718c0-0.5964584-0.2908478-0.9358597-1.1059418-0.9358597h-3.9659386
		v2.214222H63.7404709z"/>
	<path class="st0" d="M73.5483322,35.2232132h2.7023392v5.083168c0,1.1187515,0.3992004,1.5579491,1.5074692,1.5579491h2.6747665
		c1.1098328,0,1.5082474-0.4392014,1.5082474-1.5579491v-5.083168h2.7031174v5.6683693
		c0,2.1878204-1.1331329,3.2343483-3.6145096,3.2343483h-3.868866c-2.4817734,0-3.6125565-1.0465393-3.6125565-3.2343483
		C73.5483398,40.8915825,73.5483398,35.2232132,73.5483322,35.2232132z"/>
	<path class="st0" d="M86.8658829,35.2233658h8.1509094c2.0806427,0,2.6406097,1.0344887,2.6406097,2.6157608v0.5591888
		c0,1.1781693-0.2687302,1.8709412-1.5098038,2.1641312v0.0229111c0.8034286,0.146389,1.4717407,0.4986115,1.4717407,1.9478302
		v1.4966011h-2.7007904v-1.0605011c0-0.9222717-0.2679367-1.2275009-1.1055527-1.2275009h-4.2463226v2.2879982h-2.700798
		C86.8658752,44.0297852,86.8658752,35.2233658,86.8658829,35.2233658z M89.5666809,39.5516243h4.4645538
		c0.7288895,0,0.9972229-0.2900696,0.9972229-0.9241982V38.336956c0-0.7805214-0.3890915-0.9242096-1.2410736-0.9242096h-4.2206879
		v2.1388779H89.5666809z"/>
	<polygon class="st0" points="103.7897568,40.9646149 98.9104691,35.2232666 102.1692734,35.2232666 105.1407089,38.8218536 
		108.1067276,35.2232666 111.3674927,35.2232666 106.4878311,40.9646149 106.4878311,44.0300446 103.7897568,44.0300446 	"/>
	<path class="st1" d="M53.6480598,10.860446l0.6659698,6.7754793c0.2193985,2.4914799,1.8915291,4.2560196,3.2735596,4.61483
		c0.38871,0.1002007,0.9346886,0.0850506,0.9346886,0.0850506v1.7924995h-1.0255585
		c0-0.8189793-1.5424194-1.2667103-2.5291519-1.6076698c-1.3385506-0.4648209-3.701889-1.7808495-3.9892387-4.723959
		l-0.6124001-6.9362392C50.3659286,10.8604374,53.6480598,10.8604374,53.6480598,10.860446z"/>
	<path class="st1" d="M49.7523193,10.0807657V6.7936053c0-0.8418899,0.7448006-1.5773602,2.6600113-1.9586902l4.838131-0.6978302
		V2.1814954l1.2713699-0.6815101V4.801125L54.482502,5.647275c-1.3474808,0.2733798-2.1342316,0.9513998-2.1342316,1.8480301
		v2.5854502h-2.5959511V10.0807657z"/>
	<path class="st1" d="M64.175087,10.860446l-0.6659889,6.7754793c-0.2205696,2.4914799-1.8915291,4.2560196-3.273571,4.61483
		c-0.3894806,0.1002007-0.9378014,0.0850506-0.9378014,0.0850506v1.7924995h1.0302315
		c0-0.8189793,1.5400887-1.2667103,2.5275993-1.6076698c1.3385506-0.4648209,3.7030373-1.7808495,3.9904137-4.723959
		l0.6119919-6.9362392C67.457962,10.8604374,64.175087,10.8604374,64.175087,10.860446z"/>
	<path class="st1" d="M68.0700836,10.0807657V6.7936053c0-0.8418899-0.7440338-1.5773602-2.6584625-1.9586902l-4.8396797-0.6978297
		v-1.95559l-1.2706032-0.6815101V4.801125l4.0397415,0.8461499c1.3467026,0.2733798,2.1330566,0.9513998,2.1330566,1.8480301
		v2.5854502h2.5959473V10.0807657z"/>
	<path class="st0" d="M8.73032,49.9726753h2.5862303v4.8691902c0,1.0717812,0.3840599,1.491169,1.4441805,1.491169h2.5629301
		c1.0601301,0,1.4445601-0.4193993,1.4445601-1.491169v-4.8691902h2.5862408v5.4283791
		c0,2.096962-1.0834103,3.0988312-3.45996,3.0988312h-3.7042198c-2.3765402,0-3.4599504-1.0018692-3.4599504-3.0988312v-5.4283791
		H8.73032z"/>
	<polygon class="st0" points="20.9625092,49.9726753 24.9696293,49.9726753 29.8275509,56.1000443 29.8508492,56.1000443 
		29.8508492,49.9726753 32.4370804,49.9726753 32.4370804,58.4066849 28.4295807,58.4066849 23.5720406,52.2789345 
		23.5487404,52.2789345 23.5487404,58.4066849 20.9625092,58.4066849 	"/>
	<rect x="34.1847382" y="49.972744" class="st0" width="2.5862389" height="8.4340019"/>
	<polygon class="st0" points="37.702919,49.9726753 40.5337906,49.9726753 43.8302689,56.2398338 47.1271286,49.9726753 
		49.9580193,49.9726753 45.4262695,58.4066849 42.2342491,58.4066849 	"/>
	<polygon class="st0" points="50.7506294,49.9726753 59.976799,49.9726753 59.976799,51.9294357 53.3368492,51.9294357 
		53.3368492,53.2812042 59.6273117,53.2812042 59.6273117,55.028656 53.3368492,55.028656 53.3368492,56.3796349 
		60.1282501,56.3796349 60.1282501,58.4066849 50.7506294,58.4066849 	"/>
	<path class="st0" d="M61.5497894,49.9725533h7.8049164c1.9921036,0,2.527977,0.9902306,2.527977,2.5046883v0.5354996
		c0,1.1304092-0.2562866,1.7944489-1.4445572,2.0736504v0.0236893c0.7688828,0.1394081,1.4096069,0.4772491,1.4096069,1.8639488
		v1.4325294h-2.586235v-1.0135193c0-0.8853798-0.2562866-1.1766205-1.0597382-1.1766205h-4.0657272v2.1901398h-2.5862389
		C61.5497932,58.406559,61.5497932,49.9725533,61.5497894,49.9725533z M64.1360168,54.119854h4.2750397
		c0.6993866,0,0.9552765-0.2799683,0.9552765-0.8853798v-0.2795906c0-0.7455711-0.3728027-0.8853798-1.1882629-0.8853798h-4.0420609
		C64.1360092,52.0695038,64.1360092,54.119854,64.1360168,54.119854z"/>
	<path class="st0" d="M73.3389664,55.6458054h2.5858536c0.0116501,0.8970413,0.3727875,0.9665413,1.1183624,0.9665413h3.1687164
		c0.5475388,0,1.1067276-0.0578499,1.1067276-0.7106285c0-0.7335396-0.302887-0.780529-3.634697-0.780529
		c-3.8906174,0-4.333313-0.4655991-4.333313-2.5392494c0-1.5261116,0.1397934-2.7027283,3.4013214-2.7027283h3.611412
		c2.9823227,0,3.261528,1.0135193,3.261528,2.4930305v0.2679405h-2.5858536c0-0.6174316-0.0698929-0.8737297-1.2581635-0.8737297
		h-2.8658295c-0.5820999,0-0.9785767,0.1984406-0.9785767,0.6523781c0,0.7339401,0.314537,0.7572403,3.0875626,0.7455902
		c4.0187607-0.0116501,4.9507294,0.2330017,4.9507294,2.6910782c0,2.2716904-0.7688675,2.6444817-4.2051468,2.6444817H76.635437
		c-2.3528519,0-3.2964783-0.4430695-3.2964783-2.2716904C73.3389587,56.2282906,73.3389587,55.6458054,73.3389664,55.6458054z"/>
	<rect x="85.5712204" y="49.972744" class="st0" width="2.5858536" height="8.4340019"/>
	<polygon class="st0" points="89.2871933,49.9726753 99.1424637,49.9726753 99.1424637,52.0692444 95.5081329,52.0692444 
		95.5081329,58.4066849 92.9215088,58.4066849 92.9215088,52.0692444 89.2871933,52.0692444 	"/>
	<polygon class="st0" points="104.012001,55.471035 99.3408432,49.9727554 102.4629669,49.9727554 105.3051071,53.4206848 
		108.1472473,49.9727554 111.269371,49.9727554 106.5982285,55.471035 106.5982285,58.406765 104.012001,58.406765 	"/>
</g>
</svg>
