<?xml version="1.0" encoding="utf-8"?>
<!-- Generator: Adobe Illustrator 25.3.0, SVG Export Plug-In . SVG Version: 6.00 Build 0)  -->
<svg version="1.1" id="Layer_1" xmlns="http://www.w3.org/2000/svg" xmlns:xlink="http://www.w3.org/1999/xlink" x="0px" y="0px"
	 viewBox="0 0 120 60" style="enable-background:new 0 0 120 60;" xml:space="preserve">
<style type="text/css">
	.st0{fill:#FFFFFF;}
	.st1{fill:#E1251B;}
</style>
<g>
	<polygon class="st0" points="8.6255,35.22794 11.32666,35.22794 11.32666,38.36681 17.02144,38.36681 17.02144,35.22794 
		19.723,35.22794 19.723,44.03596 17.02144,44.03596 17.02144,40.70135 11.32666,40.70135 11.32666,44.03596 8.6255,44.03596 	"/>
	<path class="st0" d="M26.21326,35.22802h3.51599l4.84229,8.80762h-3.00488l-0.83928-1.55856h-5.47652l-0.78957,1.55856h-3.01653
		L26.21326,35.22802z M26.26104,40.58024h3.45617l-1.75275-3.30898L26.26104,40.58024z"/>
	<path class="st0" d="M36.29834,35.22809h8.15205c2.08171,0,2.64059,1.03464,2.64059,2.61612v0.55927
		c0,1.17834-0.26643,1.8712-1.50846,2.16443v0.02291c0.80316,0.14641,1.47195,0.49868,1.47195,1.9481v1.49681h-2.69962v-1.06065
		c0-0.9224-0.2672-1.22767-1.10842-1.22767h-4.24536v2.28832h-2.70273V35.22809z M39.00107,39.55695h4.46478
		c0.72899,0,0.99892-0.29011,0.99892-0.92433v-0.29051c0-0.78063-0.3911-0.92434-1.24203-0.92434h-4.22166V39.55695z"/>
	<polygon class="st0" points="48.91833,35.22794 59.21189,35.22794 59.21189,37.41761 55.41549,37.41761 55.41549,44.03596 
		52.7151,44.03596 52.7151,37.41761 48.91833,37.41761 	"/>
	<path class="st0" d="M61.04037,35.22805h7.35975c2.56757,0,3.18742,1.28942,3.18742,3.01653v0.75385
		c0,1.31349-0.57053,2.82157-2.48173,2.82157h-5.36466v2.21569h-2.70078V35.22805z M63.74115,39.63226h4.19758
		c0.63345,0,0.87501-0.41361,0.87501-0.93831v-0.34022c0-0.59654-0.29089-0.93599-1.10609-0.93599h-3.9665V39.63226z"/>
	<path class="st0" d="M73.55038,35.22794h2.70271v5.08387c0,1.11891,0.39926,1.55817,1.50768,1.55817h2.67515
		c1.10999,0,1.50846-0.43926,1.50846-1.55817v-5.08387h2.7035v5.66916c0,2.18812-1.13329,3.2348-3.61501,3.2348h-3.86942
		c-2.48212,0-3.61307-1.04668-3.61307-3.2348V35.22794z"/>
	<path class="st0" d="M86.86979,35.22809h8.15205c2.08093,0,2.64098,1.03464,2.64098,2.61612v0.55927
		c0,1.17834-0.26876,1.8712-1.51001,2.16443v0.02291c0.80354,0.14641,1.47195,0.49868,1.47195,1.9481v1.49681h-2.70116v-1.06065
		c0-0.9224-0.26798-1.22767-1.10571-1.22767h-4.24691v2.28832h-2.70118V35.22809z M89.57097,39.55695h4.46517
		c0.72899,0,0.99735-0.29011,0.99735-0.92433v-0.29051c0-0.78063-0.38915-0.92434-1.24126-0.92434h-4.22127V39.55695z"/>
	<polygon class="st0" points="103.79603,40.97014 98.91606,35.22798 102.17532,35.22798 105.14717,38.82708 108.1136,35.22798 
		111.37482,35.22798 106.49448,40.97014 106.49448,44.036 103.79603,44.036 	"/>
	<path class="st1" d="M53.64734,10.86177l0.66607,6.77643c0.21943,2.49183,1.89179,4.25662,3.27402,4.61547
		c0.38877,0.10021,0.93482,0.08506,0.93482,0.08506v1.79275h-1.0257c0-0.81909-1.54263-1.26689-2.5295-1.60789
		c-1.33874-0.46489-3.7024-1.7811-3.9898-4.72462l-0.61248-6.9372H53.64734z"/>
	<path class="st1" d="M49.75105,10.08198V6.79436c0-0.842,0.74491-1.57758,2.66038-1.95897l4.8388-0.69793V2.1816L58.52178,1.5
		v3.3016l-4.0399,0.84627c-1.34767,0.27342-2.13453,0.95153-2.13453,1.84829v2.58581H49.75105z"/>
	<path class="st1" d="M64.17583,10.86177l-0.66608,6.77643c-0.2206,2.49183-1.89179,4.25662-3.27402,4.61547
		c-0.38954,0.10021-0.93793,0.08506-0.93793,0.08506v1.79275h1.03037c0-0.81909,1.54031-1.26689,2.52795-1.60789
		c1.33873-0.46489,3.70356-1.7811,3.99097-4.72462l0.61208-6.9372H64.17583z"/>
	<path class="st1" d="M68.07137,10.08198V6.79436c0-0.842-0.74414-1.57758-2.65884-1.95897l-4.84036-0.69793V2.1816L59.3014,1.5
		v3.3016l4.0403,0.84627c1.34689,0.27342,2.13335,0.95153,2.13335,1.84829v2.58581H68.07137z"/>
	<path class="st0" d="M8.53671,52.93058c0-2.46968,1.3865-3.05225,3.71639-3.05225h3.04099
		c3.68182,0,4.15952,0.7923,4.13622,3.18043h-2.5866v-0.23303c0-0.60587-0.44274-0.78025-1.21174-0.78025h-2.81963
		c-1.36281,0-1.61914,0.64044-1.61914,1.68906v0.9088c0,1.2234,0.25633,1.68945,1.47933,1.68945h2.76136
		c1.16513,0,1.51468-0.11651,1.51468-1.16513h2.5866v0.79229c0,1.42146-0.51266,2.53999-3.11091,2.53999H12.2531
		c-2.32989,0-3.71639-0.58257-3.71639-3.05305V52.93058z"/>
	<path class="st0" d="M25.19803,52.93066c0-2.47009,1.38651-3.05265,3.71639-3.05265h4.14788
		c2.33027,0,3.71677,0.58257,3.71677,3.05265v2.51629c0,2.47048-1.3865,3.05305-3.71677,3.05305h-4.14788
		c-2.32987,0-3.71639-0.58257-3.71639-3.05305V52.93066z M27.85455,54.6434c0,1.22301,0.25632,1.68945,1.47972,1.68945h3.30859
		c1.22338,0,1.47972-0.46643,1.47972-1.68945v-0.9088c0-1.04861-0.25633-1.68905-1.61953-1.68905h-3.02935
		c-1.36282,0-1.61914,0.64044-1.61914,1.68905V54.6434z"/>
	<polygon class="st0" points="42.62843,49.97149 45.21502,49.97149 45.21502,56.23952 51.02866,56.23952 51.02866,58.40667 
		42.62843,58.40667 	"/>
	<polygon class="st0" points="56.41188,49.97149 58.99847,49.97149 58.99847,56.23952 64.81211,56.23952 64.81211,58.40667 
		56.41188,58.40667 	"/>
	<polygon class="st0" points="70.1953,49.97149 79.42276,49.97149 79.42276,51.92852 72.78189,51.92852 72.78189,53.28048 
		79.07322,53.28048 79.07322,55.02818 72.78189,55.02818 72.78189,56.37934 79.57423,56.37934 79.57423,58.40667 70.1953,58.40667 	
		"/>
	<path class="st0" d="M85.23698,52.93058c0-2.46968,1.3865-3.05225,3.71677-3.05225h3.89156
		c2.93575,0,3.34354,1.05989,3.34354,2.70311v0.26759h-2.53999c0-0.8389-0.47732-0.94376-1.30457-0.94376h-2.80798
		c-1.30494,0-1.64283,0.31459-1.64283,1.75935v1.04863c0,1.44477,0.33789,1.75935,1.64283,1.75935h2.76138
		c0.67577,0,1.35117-0.10487,1.35117-0.92046v-0.24467h-3.21539v-1.7477h5.80197v2.40017c0,2.42347-1.25834,2.53999-4.17078,2.53999
		h-3.11091c-2.33027,0-3.71677-0.58257-3.71677-3.05305V52.93058z"/>
	<polygon class="st0" points="102.08476,49.97149 111.31222,49.97149 111.31222,51.92852 104.67097,51.92852 104.67097,53.28048 
		110.96267,53.28048 110.96267,55.02818 104.67097,55.02818 104.67097,56.37934 111.46329,56.37934 111.46329,58.40667 
		102.08476,58.40667 	"/>
</g>
</svg>
