<?xml version="1.0" encoding="utf-8"?>
<!-- Generator: Adobe Illustrator 25.3.0, SVG Export Plug-In . SVG Version: 6.00 Build 0)  -->
<svg version="1.1" id="Layer_1" xmlns="http://www.w3.org/2000/svg" xmlns:xlink="http://www.w3.org/1999/xlink" x="0px" y="0px"
	 viewBox="0 0 400 140" style="enable-background:new 0 0 400 140;" xml:space="preserve">
<style type="text/css">
	.st0{fill:#FFE90B;}
</style>
<g>
	<g>
		<path class="st0" d="M366.29999,87.1c-1.39999-0.4-3.5-0.2-5.10001-0.2H39.7c-1.6,0-3.7-0.2-5,0.2l-0.1,26.8l5.3,0.1h326.20001
			C366.5,105.5,366.20001,95.8,366.29999,87.1"/>
		<path d="M48.8,55.5l4.2-0.1c2,3.1,4,6.3,5.9,9.6l4.5,7.3c0.8,1.2,1.4,0.8,3.2,0.8h29.7l2.3-7.5h16.8l2.5,7.5H133.8
			c-0.60001-2.3-13.7-34.1-16-39.7c-1-2.3-1.5-5.6-3.2-5.6h-15.5l-17.8,45c-0.6-0.5-15.1-22.5-15.5-23.6c2-3.5,14.1-20,14.5-21.4H64
			c-0.5,1.3-1.7,2.8-2.5,4.2c-1.1,1.7-7.5,11.8-8.3,12.7h-4.3v-17H34.7v1.8V73h14.2L48.8,55.5z M107.3,38.7l4.9,16.1h-10.1
			L107.3,38.7z"/>
		<path d="M336.20001,73V58.1h5.39999C342.30002,58.3,349,71.5,349.5,72.9l16.70001,0.1c-1.5-3-9.5-13.9-11.29999-17.4
			c1.10001-1.1,6.89999-2.8,7.70001-11.2c1.60001-18.7-19.10001-16.6-31.10001-16.6c-2.70001,0-7-0.2-9.5,0.1V73H336.20001z
			 M336.20001,38.4c2.10001,0,6.5-0.2,8.39999,0.1c2.60001,0.5,3.29999,2,3.29999,5c-0.10001,6.1-4.60001,5.2-11.60001,5
			L336.20001,38.4z"/>
		<path d="M152.39999,58.1h5.8c0.8,1.8,6.89999,14,7.7,14.8h16.5L171,55.6c1.3-1.2,7.8-3.1,7.8-12.3c0-16.3-15.3-15.5-26.7-15.5
			c-4,0-10.3-0.4-14,0.1v1.9v43.09999l14.2,0.1L152.39999,58.1z M164,43.5c-0.10001,6.5-5.8,5.1-11.60001,5V38.4
			C159.3,38.3,164.2,37.2,164,43.5"/>
		<path d="M240.89999,73V56h14.89999v17h14.10001V27.8h-14.10001v16.7h-14.89999V27.8c-2.8,0-12.2-0.3-14.2,0.2v44.9L240.89999,73z"
			/>
		<path d="M315.39999,73l0.20001-11.2H292.5v-6.7h18.39999c0-2.3,0.29999-8.1-0.20001-10h-18.20001v-6h22.20001l-0.20001-11.3
			c-4.10001-0.1-34.5-0.3-36.20001,0.2v44.9L315.39999,73z"/>
		<path d="M193.7,71.3c3.8,1.8,8.39999,2.6,13.2,2.6c4.2,0,10.2-0.9,13.3-2.8L218.8,60.9c-1.5,0-8,2.9-14.8,1.3
			c-5.2-1.2-6.2-5.2-6.2-11.3c0-10.3,2.5-13.1,13.60001-12.2c1.8,0.1,6.5,1.2,7.39999,1.1l1.39999-11
			c-8.39999-1.9-18.60001-3.3-26.8,1.3c-3.7,2-5.89999,4.1-7.8,7.9C180.60001,47.2,181.8,65.5,193.7,71.3"/>
		<polygon points="132.3,27.7 121.8,27.7 121.7,37.4 132.3,37.4 		"/>
		<polygon points="93,27.7 82.5,27.7 82.5,37.4 93,37.4 		"/>
	</g>
</g>
</svg>
