<?xml version="1.0" encoding="utf-8"?>
<!-- Generator: Adobe Illustrator 25.3.0, SVG Export Plug-In . SVG Version: 6.00 Build 0)  -->
<svg version="1.1" id="Layer_1" xmlns="http://www.w3.org/2000/svg" xmlns:xlink="http://www.w3.org/1999/xlink" x="0px" y="0px"
	 viewBox="0 0 350 350" style="enable-background:new 0 0 350 350;" xml:space="preserve">
<style type="text/css">
	.st0{fill:#FFFFFF;}
	.st1{fill:#27224E;}
	.st2{fill:#020203;}
</style>
<g>
	<g>
		<g>
			<path class="st0" d="M273,84.4c-0.10001,0.1-0.20001,0.3-0.29999,0.4c0.10001,0.1,0.20001,0.2,0.29999,0.4V84.4z"/>
			<path class="st0" d="M16.6,32.5v86.4h47.2V317.5h222.49998V118.9H333.5V32.5H16.6z M323.79999,109.8h-47.20001v198.60002H73.4
				V109.8H26.2V41.6h297.70001v27.1h0.39999l-0.39999,0.6V109.8H323.79999z"/>
		</g>
		<path class="st0" d="M71.2,310.5h207.59999V111.9H326V39.5H24v72.4h47.2V310.5z"/>
		<path class="st1" d="M18.7,116.9h47.2V315.5H284V116.9h47.20001V34.6H18.7V116.9z M24,39.5h302v72.4h-47.20001V310.5H71.2V111.9
			H24V39.5z"/>
	</g>
	<g>
		<g>
			<path class="st2" d="M186.7,82.7c-0.2,2,0.8,4,2.60001,4.9c1.10001,0.6,2.2,0.8,3.39999,0.7c2.2-0.1,4.3-0.7,6.10001-2
				c0.10001-0.1,0.2-0.1,0.3-0.2c0.8,1.4,1.60001,2.9,2.5,4.4c-0.2,0.2-0.5,0.3-0.7,0.5c-2,1.3-4.2,2-6.5,2.4
				c-1.8,0.3-3.7,0.4-5.5,0.2c-4.2-0.5-7-2.6-8.39999-6.6c-1-2.6-1.10001-5.3-0.89999-8c0.10001-1.5,0.39999-3,1-4.4
				c1.39999-3.6,4.10001-5.7,7.89999-6.3c1.89999-0.3,3.8-0.3,5.60001,0.1c3.2,0.7,5.39999,2.6,6.5,5.6c0.5,1.2,0.8,2.5,0.89999,3.8
				c0.10001,1.5,0.10001,2.9,0.2,4.5C196.60001,82.6,191.7,82.4,186.7,82.7z M194.7,78.3c0.10001-1.3,0-2.5-0.7-3.6
				c-0.2-0.3-0.39999-0.5-0.7-0.7c-1.5-1.2-4.2-1-5.5,0.4c-1,1.1-1.2,2.4-1.3,3.9C189.3,78.4,192,78.4,194.7,78.3z"/>
			<path class="st2" d="M205.39999,93.2c0-8.2,0-16.4,0-24.6c0.2,0,0.39999-0.1,0.60001-0.1c3.39999,0,6.7,0,10.10001,0
				c1.3,0,2.60001,0.2,3.89999,0.6c3.5,1.2,5.7,3.6,6.7,7.2c0.8,3,0.8,6-0.10001,8.9c-1.10001,4.1-3.89999,6.5-8,7.4
				c-1.2,0.3-2.5,0.4-3.7,0.5c-3,0.1-6,0-9,0C205.7,93.3,205.60001,93.3,205.39999,93.2z M211.8,73.1c0,5.2,0,10.3,0,15.5
				c1.2,0.1,2.3,0.1,3.5-0.1c2.5-0.3,4.10001-1.6,4.8-4c0.60001-2.1,0.7-4.2,0.2-6.4c-0.5-2.3-1.8-4-4.2-4.7
				C214.8,73,213.39999,73.1,211.8,73.1z"/>
			<path class="st2" d="M115.4,68c0.2,0,0.5,0,0.9,0c0-0.3,0.1-0.6,0.1-0.8c0.1-0.7,0.1-1.4,0.2-2.1c0.1-0.5,0.3-1,0.9-1.3
				c0.2,0.4,0.4,0.7,0.5,1c0.8,2.1,2,4,3.4,5.7c0.4,0.5,0.8,0.9,1.3,1.3c1.5,1.1,3.2,1.8,5.1,1.5c1-0.2,1.89999-0.3,2.89999-0.4
				c0.3,0,0.5,0,0.8,0c1.8,0,2.5,0.6,2.89999,2.3c0,0.1,0,0.3,0.10001,0.4c0.39999,0.9,0.2,1.8-0.3,2.6c-1,1.6-2.5,2.7-4.2,3.6
				c-0.10001,0-0.10001,0.1-0.2,0.1c-6.5,2-12.2,0.7-17.1-4c-0.9-0.8-1.6-1.9-2-3.1c-0.2-0.6-0.3-1.2,0.1-1.8c0.4-0.6,0.6-1.3,0.9-2
				s0.9-1.3,1.7-1.4c0.3-0.1,0.4-0.1,0.7,0.1c0.3,0.3,0.5,0.3,0.7-0.1C114.9,69.2,115.1,68.6,115.4,68z"/>
			<path class="st2" d="M140,69c-0.60001-0.1-1-0.1-1.39999-0.1c-0.60001-0.1-1.2-0.3-1.5-0.9C137,67.7,136.70001,67.5,136.5,67.3
				c-1-0.9-2-1.8-2.7-3c-0.5-0.9-1.10001-1.7-1.7-2.5c-0.3-0.4-0.39999-0.8-0.3-1.3c0.10001-0.4,0.10001-0.7-0.10001-1.1
				c-0.3-0.7-0.3-1.5-0.2-2.3c0.2-1.3,0.8-2.5,1.60001-3.5s1.7-2,2.60001-2.9c0.7-0.7,1.5-1.1,2.39999-1.4c0.5-0.2,1-0.2,1.5,0
				c1.10001,0.5,2.10001,0.4,3.2,0c1.39999-0.4,2.8-0.8,4.2-1.2c0.5-0.1,1-0.2,1.5-0.3c0.2,0,0.39999,0,0.60001,0.1
				C149.3,48,149.5,48.2,149.5,48.4s-0.10001,0.4-0.3,0.5c-0.3,0.2-0.7,0.3-1,0.5c-0.7,0.3-1.3,0.6-1.60001,1.4
				c-1.2,1.3-1.2,3-1.3,4.6c0,0.1,0,0.2,0,0.2c-0.10001,0.6,0,1.1,0.60001,1.5c0.2,0.2,0.39999,0.5,0.60001,0.7
				c0.3,0.4,0.3,0.8,0.10001,1.3c-0.3,1-0.5,2.1-0.8,3.2c-0.3,1.2-0.60001,2.4-0.89999,3.6c-0.2,0.6-0.5,1.1-0.8,1.6
				c-0.5,0.7-1.2,1.1-2.10001,1.2C141.2,68.8,140.60001,68.9,140,69z"/>
			<path class="st2" d="M123.1,104.5c-0.1-0.3-0.2-0.5-0.3-0.7c-0.4,0-0.7,0-1.1,0s-0.6-0.1-0.8-0.5c-0.1-0.2-0.2-0.4-0.2-0.6
				c-0.2-0.4-0.4-0.8-0.8-1c-0.5-0.2-0.7-0.6-0.6-1.2c0.1-1-0.2-1.9-0.4-2.8c-0.3-1.3-0.6-2.5-1-3.9c0.2,0.1,0.4,0.2,0.5,0.2
				c1,0.7,2.2,1,3.4,1.1c2.7,0.2,5.2-0.4,7.6-1.7c1.2-0.6,2.10001-1.5,2.89999-2.6c0.5-0.7,1-1.5,1.60001-2.3
				c0.2-0.3,0.60001-0.6,0.89999-0.8c0.39999-0.2,0.8-0.4,1.2-0.6c0.89999-0.4,2.5-0.4,3,0.9c0.39999,1.1,0.7,2.2,0.8,3.3
				c0.2,1.9,0.2,3.8-0.2,5.6c-0.2,0.9-0.5,1.7-1.10001,2.4c-0.7,0.9-1.39999,1.7-2.10001,2.5c-0.39999,0.5-1,0.8-1.7,1
				c-0.5,0.1-1,0.4-1.39999,0.6c-1.3,0.8-2.7,1.4-4.3,1.1c-0.5-0.1-1.1,0.1-1.7,0.1c-0.3,0-0.7,0-1-0.2c-0.8-0.4-1.5-0.6-2.4-0.4
				C123.6,104.5,123.4,104.5,123.1,104.5z"/>
			<path class="st2" d="M171.3,79.7c0.10001,0.7-0.39999,0.9-1,1.1c-1.3,0.3-2.60001,0.5-3.89999,0.1c-0.39999-0.1-0.89999,0-1.5,0
				c0,0-0.10001-0.2-0.10001-0.3c-0.2-1.3-1.10001-2.2-2.2-2.8c-1.10001-0.7-2.39999-1-3.60001-1.2
				c-1.89999-0.3-3.89999-0.4-5.8-0.4c-1.2,0-2.39999,0.1-3.7,0.2c-0.39999,0-0.60001-0.1-0.89999-0.4
				c-0.89999-1.1-0.89999-2.8,0.10001-3.9c0.60001-0.6,1.2-1.1,1.89999-1.5c2.10001-1.3,4.39999-2,6.89999-2.5
				c2.3-0.4,4.60001-0.6,6.89999-0.3c1.89999,0.2,3.7,0.6,5.39999,1.4c2.8,1.4,4.39999,3.6,4.89999,6.7
				c0.10001,0.4,0.10001,0.8-0.2,1.2c-0.2,0.3-0.3,0.7-0.3,1.1c-0.10001,0.6-0.39999,0.9-1,1.1
				C172.5,79.4,171.89999,79.5,171.3,79.7z"/>
			<path class="st2" d="M161.5,105.5c-0.5,0.1-0.89999-0.1-1.3-0.5c-1.3-1.3-2.8-2.4-4.5-3.3C155.3,101.5,154.8,101.3,154.3,101.2
				c-0.5-0.2-1-0.3-1.2-0.9c-0.10001-0.2,0-0.4,0-0.6c0.5-0.8,0.5-1.7,0.39999-2.6c0-0.1-0.10001-0.2-0.10001-0.2
				c0.2-1.4-0.7-2.4-1.10001-3.6c-0.10001-0.2-0.2-0.4-0.39999-0.6c-0.3-0.4-0.7-0.8-1-1.2c-0.5-0.7-1.10001-1.3-1.8-1.7
				c-0.60001-0.4-1.2-0.8-1.8-1.3c-0.89999-0.8-0.8-1.4,0.10001-2.1c0.39999-0.3,0.89999-0.6,1.39999-0.9c0.2-0.1,0.5-0.1,0.7-0.1
				c3.60001,0.3,6.89999,1.6,9.89999,3.5c2.39999,1.5,4.39999,3.3,6.10001,5.5c1.3,1.7,2.10001,3.5,2.5,5.6
				c0.2,1.1-0.10001,2.1-0.60001,3c-0.10001,0.2-0.5,0.5-0.7,0.5c-1,0.1-1.8,0.6-2.60001,1.1C163.5,105.3,162.5,105.5,161.5,105.5z"
				/>
			<polygon class="st2" points="230.39999,68.6 246.10001,68.6 246.10001,73.3 236.89999,73.3 236.89999,78.2 245,78.2 245,82.8 
				237,82.8 237,93.3 230.39999,93.3 			"/>
		</g>
	</g>
</g>
</svg>
