<?xml version="1.0" encoding="utf-8"?>
<!-- Generator: Adobe Illustrator 25.3.0, SVG Export Plug-In . SVG Version: 6.00 Build 0)  -->
<svg version="1.1" id="Layer_1" xmlns="http://www.w3.org/2000/svg" xmlns:xlink="http://www.w3.org/1999/xlink" x="0px" y="0px"
	 viewBox="0 0 170 120" style="enable-background:new 0 0 170 120;" xml:space="preserve">
<style type="text/css">
	.st0{fill:#7BA4DD;}
	.st1{fill:#1B2D42;}
	.st2{fill:#B7CBEA;}
	.st3{fill:#FFFFFF;}
	.st4{clip-path:url(#SVGID_2_);}
</style>
<g>
	<rect x="35.9530296" y="2.6822672" class="st0" width="96.9549789" height="74.1176071"/>
	<path class="st1" d="M33.8421936,0.5713503v119.0314331h101.1767273V0.5713503L33.8421936,0.5713503z M35.9530296,76.7998734
		V2.682267l96.9549713,0.0000002v74.1176071H35.9530296z"/>
	<g>
		<path class="st0" d="M41.7960854,87.0859299h4.1142311c2.0870552,0,3.6284714,1.077858,3.6284714,3.3177109
			c0,1.8444366-1.1382523,2.9945602-2.9527473,2.9945602h-1.6596298v2.7189026h-3.1303253V87.0859299z M44.9264107,91.1222153
			h0.3200531c0.5688705,0,1.1857452-0.0955048,1.1857452-0.8264618c0-0.7066956-0.6638527-0.7423172-1.1976166-0.7423172h-0.3081818
			V91.1222153z"/>
		<path class="st0" d="M50.0075111,87.0859299h3.9247818c2.0153008,0,3.7229385,0.8620758,3.7229385,3.1380692
			c0,1.365387-0.5218925,1.9404526-1.7313843,2.3477402v0.0717545c0.1662216,0.1316376,0.3675461,0.2756577,0.545639,0.5389328
			l1.9445801,2.9346771h-3.746685l-1.4226875-2.8985443h-0.0593643v2.8985443h-3.1778183V87.0859299z M53.1853294,91.0865936
			h0.225071c0.5337639,0,1.0670128-0.0841446,1.0670128-0.7547073c0-0.6948242-0.4857559-0.77845-1.0432701-0.77845h-0.2488136
			V91.0865936z"/>
		<path class="st0" d="M58.6355209,87.0859299h6.011322v2.4675064h-2.7385216v0.8620758h2.5015755v2.3477478h-2.5015755v0.8863373
			h2.8334999v2.4675064h-6.1063004V87.0859299z"/>
		<path class="st0" d="M66.7519608,87.0859299h3.3435287l1.2332306,4.742981h0.0831146
			c0.0593643-0.3949051,0.1187286-0.8145905,0.2250671-1.1976166l1.0081711-3.5453644h3.3078995l1.4701767,9.0311737h-3.1421967
			l-0.4382629-4.9468842h-0.0593643c-0.0593643,0.299408-0.1187286,0.6106796-0.2137146,0.8982162l-1.2920837,4.0486679h-1.8970871
			l-1.1620026-3.821022c-0.094986-0.3830261-0.178093-0.7423172-0.2018433-1.1258621h-0.1063385
			c-0.0237427,0.3592834-0.047493,0.7304459-0.083107,1.0902481l-0.3794174,3.856636h-3.1421967L66.7519608,87.0859299z"/>
		<path class="st0" d="M78.1499786,87.0859299h3.2485428v9.0311737h-3.2485428V87.0859299z"/>
		<path class="st0" d="M82.5316086,87.0859299h6.011322v2.4675064h-2.7385178v0.8620758h2.5015717v2.3477478h-2.5015717v0.8863373
			h2.8335037v2.4675064h-6.106308V87.0859299z"/>
		<path class="st0" d="M89.6682816,87.0859299h3.9247742c2.0153046,0,3.7229385,0.8620758,3.7229385,3.1380692
			c0,1.365387-0.5218887,1.9404526-1.7313843,2.3477402v0.0717545c0.1662216,0.1316376,0.3675461,0.2756577,0.545639,0.5389328
			l1.9445801,2.9346771h-3.7466812l-1.4226913-2.8985443h-0.0593643v2.8985443h-3.1778107V87.0859299z M92.8460922,91.0865936
			h0.2250748c0.5337601,0,1.0670166-0.0841446,1.0670166-0.7547073c0-0.6948242-0.4857635-0.77845-1.0432739-0.77845h-0.2488174
			V91.0865936z"/>
		<path class="st0" d="M98.92659,92.8830185l0.1657028,0.1316376c0.5812531,0.4552994,1.2807236,0.8264542,2.0276871,0.8264542
			c0.3200531,0,0.8300781-0.1316299,0.8300781-0.5389252s-0.4269104-0.4429092-0.7232208-0.5027924l-0.6524963-0.1197586
			c-1.2683334-0.2276535-2.3358688-0.9823608-2.3358688-2.395752c0-2.1438446,1.9327087-3.3419724,3.8772888-3.3419724
			c1.0200424,0,1.9564514,0.2519073,2.8340149,0.7908401l-0.8775635,2.3116074
			c-0.5569916-0.3830338-1.1857452-0.6829529-1.8852158-0.6829529c-0.2844315,0-0.6994705,0.1078873-0.6994705,0.4795609
			c0,0.335022,0.4031677,0.3830338,0.6519775,0.4429169l0.7350922,0.1677704
			c1.3757095,0.3112717,2.3714905,1.0541077,2.3714905,2.587265c0,2.1557083-1.9445801,3.2216949-3.8772888,3.2216949
			c-1.1263809,0-2.430336-0.3112793-3.4385071-0.8264618L98.92659,92.8830185z"/>
		<path class="st0" d="M105.9326477,87.0859299h3.1303253v3.0420532h1.9920731v-3.0420532h3.1298141v9.0311737h-3.1298141
			v-3.1380692h-1.9920731v3.1380692h-3.1303253V87.0859299z"/>
		<path class="st0" d="M115.3463364,87.0859299h3.2485428v9.0311737h-3.2485428V87.0859299z"/>
		<path class="st0" d="M119.7522278,87.0859299h4.1142349c2.0870514,0,3.6284714,1.077858,3.6284714,3.3177109
			c0,1.8444366-1.1382523,2.9945602-2.9527512,2.9945602h-1.6596298v2.7189026h-3.1303253V87.0859299z M122.8825531,91.1222153
			h0.3200531c0.5688705,0,1.1857452-0.0955048,1.1857452-0.8264618c0-0.7066956-0.6638489-0.7423172-1.1976166-0.7423172h-0.3081818
			V91.1222153z"/>
		<path class="st0" d="M41.7434349,98.9170532h3.924778c2.0153008,0,3.7229385,0.8620758,3.7229385,3.1380692
			c0,1.365387-0.5218925,1.9404449-1.7313843,2.3477402v0.0717545c0.1662216,0.1316376,0.3680611,0.2756577,0.545639,0.5389252
			l1.9445801,2.9346848h-3.746685l-1.4226875-2.8985443h-0.0593643v2.8985443h-3.1778145V98.9170532z M44.9212494,102.917717
			h0.225071c0.5337639,0,1.0670166-0.0841446,1.0670166-0.7547073c0-0.6948242-0.4857597-0.77845-1.0432701-0.77845h-0.2488174
			V102.917717z"/>
		<path class="st0" d="M58.4625893,98.9170532v5.3417892c0,2.6352768-1.6358833,3.8328934-4.1379738,3.8328934
			c-2.5015755,0-4.1379776-1.1976166-4.1379776-3.8328934v-5.3417892h3.249054v5.0305099
			c0,0.7066956,0.0237465,1.3297653,0.8889236,1.3297653c0.8656921,0,0.8894386-0.6230698,0.8894386-1.3297653v-5.0305099
			H58.4625893z"/>
		<path class="st0" d="M68.9458771,102.6301804c-0.0237503,1.4732819-0.0237503,2.7070312-1.0788879,3.8566437
			c-0.9488068,1.0422363-2.4071121,1.6049118-3.7941818,1.6049118c-2.7271576,0-4.9324265-1.7004166-4.9324265-4.599472
			c0-2.9465561,2.1459045-4.7192383,4.9561768-4.7192383c1.5532913,0,3.6873169,0.7789688,4.3867874,2.3239975l-3.0353394,1.1258698
			c-0.2488174-0.455307-0.7113419-0.6948242-1.2327194-0.6948242c-1.1619987,0-1.8026199,1.0060959-1.8026199,2.096344
			c0,0.9942322,0.6168747,1.9280624,1.67202,1.9280624c0.5100174,0,1.1619949-0.2395248,1.3158264-0.790329H63.930336v-2.1319656
			H68.9458771z"/>
		<path class="st0" d="M69.6603165,98.9170532h3.7823029c1.7313843,0,3.4978714,0.4191666,3.4978714,2.5031204
			c0,0.7908401-0.3912888,1.5692978-1.1738739,1.820694v0.0717545c0.9720383,0.3474121,1.588913,1.065979,1.588913,2.1443558
			c0,1.8563004-1.7076416,2.4912491-3.2728043,2.4912491h-4.4224091V98.9170532z M72.9682236,102.3906631
			c0.4743958,0,1.0081635-0.0480118,1.0081635-0.6710815c0-0.6705627-0.6050034-0.6225586-1.0788879-0.6225586h-0.2255859v1.2936401
			H72.9682236z M72.6719131,105.7919998h0.3675461c0.5337677,0,1.3044739-0.011879,1.3044739-0.7541885
			c0-0.7547073-0.8300705-0.742836-1.3519669-0.742836h-0.3200531V105.7919998z"/>
		<path class="st0" d="M80.4326859,98.9170532l0.9957733,2.3596191h0.094986
			c0.0944672-0.2875366,0.1775742-0.5750656,0.2963028-0.8507233l0.6401062-1.5088959h3.6522217l-3.0590897,5.1383972v3.8927765
			h-3.1778183v-3.8927765l-3.1184464-5.1383972H80.4326859z"/>
	</g>
	<g>
		<path class="st1" d="M95.3797836,51.4444122c-1.0109329-0.603363-1.9892426-0.8640938-2.8696518-0.8640938
			c-2.4783936,0-4.288147,2.1523857-4.288147,4.8262482c0,2.67416,1.4508362,4.6470795,3.9458389,4.6470795
			c1.3209229,0,2.3315353-0.5380936,3.049118-1.190094v0.603054c0,1.4188194-0.5217819,2.3481674-2.3481903,2.3481674
			c-1.4021835,0-1.911644-0.4694481-2.0501709-1.1740837H88.531662c0.1277618,2.3681793,2.1360779,3.032795,4.1579437,3.032795
			c3.3914108,0,4.8262405-1.7284927,4.8262405-4.5165634v-6.3918991c0-0.1954689,0.114212-0.3096771,0.2936859-0.3096771h0.7009354
			v-1.7611313h-2.8043823L95.3797836,51.4444122z M95.1679993,56.7111664
			c-0.4891663,0.7825241-1.5327148,1.4511414-2.6901855,1.4511414c-1.4514465,0-1.891655-1.3209267-1.891655-2.7720604
			c0-1.9402885,1.0109329-2.8859596,2.4783936-2.8859596c0.6356812,0,1.353241,0.1628418,2.103447,0.5217857V56.7111664z"/>
		<path class="st1" d="M113.3374176,54.4282608c0.1468353-1.2882919,1.3209229-2.0871239,2.4946976-2.0871239
			c1.1574631,0,2.2013321,0.8314705,2.3318634,2.0871239H113.3374176z M115.9952774,58.4883041
			c-1.369873,0-2.5110245-0.7335701-2.6415558-2.3478584h6.9952545c0.0160141-0.2120972,0.0160141-0.4078865,0.0160141-0.6033554
			c0-2.9838562-1.5976715-5.0712814-4.565506-5.0712814c-2.8533249,0-4.8914948,2.2013321-4.8914948,4.9407578
			c0,2.9841576,1.8750076,4.989399,5.0383224,4.989399c1.6306076,0,2.9515381-0.6683159,3.8319397-1.891346l-1.2393494-1.1251373
			C118.1150284,57.9828377,117.0548325,58.4883041,115.9952774,58.4883041"/>
		<path class="st1" d="M67.4600677,58.080822c0,0.1957893-0.1139145,0.3096848-0.2933655,0.3096848h-1.1414566v1.7614403h5.0155563
			v-1.7614403h-0.9225845c-0.1794739,0-0.2936707-0.1138954-0.2936707-0.3096848V46.8953094h-4.0926666v1.7608185h1.4348221
			c0.179451,0,0.2933655,0.1142082,0.2933655,0.3099976V58.080822z"/>
		<path class="st1" d="M73.1598358,58.080822c0,0.1957893-0.114212,0.3096848-0.2933655,0.3096848h-0.9546051v1.7614403h4.9004364
			v-1.7614403h-0.9943161c-0.1794739,0-0.2936707-0.1138954-0.2936707-0.3096848V46.8953094H71.748703v1.7608185h1.1177673
			c0.1791534,0,0.2933655,0.1142082,0.2933655,0.3099976V58.080822z"/>
		<path class="st1" d="M109.4390259,58.3906021c-0.1794739,0-0.2936935-0.1142006-0.2936935-0.3096771v-4.2561302
			c0-1.9892349-1.4345016-3.358799-3.3261566-3.358799c-1.5000763,0-2.6578445,0.8151512-3.2449036,1.467762v-5.0386543h-3.8805618
			v1.7608185h1.255661c0.1791458,0,0.2933655,0.1145172,0.2933655,0.3102951v9.1147079
			c0,0.1954765-0.1142197,0.3096771-0.2933655,0.3096771h-1.0928192v1.7611275h5.0875931v-1.7611275h-1.0598755
			c-0.1794662,0-0.2936707-0.1142006-0.2936707-0.3096771v-3.9624634c0.5217896-0.7665062,1.6142807-1.6792374,2.7067947-1.6792374
			c1.0598755,0,1.5000763,0.8804054,1.5000763,2.0378685v3.6038322c0,0.1954765-0.1138992,0.3096771-0.2933655,0.3096771h-1.1088257
			v1.7611275h5.0057297v-1.7611275H109.4390259z"/>
		<path class="st1" d="M124.8266296,58.080822v-3.2282715c0.5707092-1.141758,1.4181976-2.2829056,2.7717438-2.2829056
			c0.1794662,0,0.3749466,0.0160103,0.5870361,0.0486374V50.58041c-1.6795502-0.3426208-3.0324707,0.7172623-3.6854019,2.0215607
			l-0.3420105-1.9076614h-2.9352036v1.7611275h0.9293442c0.1958008,0,0.3263092,0.1142082,0.3263092,0.3096886v5.332016
			c0,0.1628418-0.1305084,0.2933655-0.3263092,0.2933655h-0.9293442v1.7614403h4.907814v-1.7614403h-0.9776688
			C124.9568405,58.3905067,124.8266296,58.2436714,124.8266296,58.080822"/>
		<path class="st1" d="M64.3062744,58.390667c-0.1791687,0-0.2933655-0.1142082-0.2933655-0.3099976v-4.0434113
			c0-1.7124977-0.9783134-3.587513-4.1742516-3.587513c-2.4131355,0-4.0437393,1.206398-4.2392006,3.1469994h2.2010117
			c0.2284164-0.8967247,0.9296722-1.2719841,2.0381889-1.2719841c0.9296532,0,1.8590202,0.538105,1.8919563,1.8263931
			c-0.4078827-0.0163155-0.8647156-0.0326271-1.3375549-0.0326271c-1.7934456,0-5.2504349,0.4565239-5.2504349,3.2608986
			c0,2.119751,1.8590202,3.0004768,3.6364594,3.0004768c1.2064095,0,2.6249084-0.4075737,3.2282715-1.2556648l0.1468353,1.0275612
			h3.0721893V58.390667H64.3062744z M61.5997887,57.1186867c-0.2933693,1.0925102-1.516407,1.4674606-2.3644943,1.4674606
			c-1.0106316,0-1.6955566-0.4075775-1.6955566-1.2556648c0-1.2227287,1.3858795-1.6302948,2.8210068-1.6302948
			c0.4728355,0,0.977993,0.0326271,1.4021873,0.0815697C61.7629318,56.1893349,61.6813507,56.8090096,61.5997887,57.1186867"/>
		<path class="st1" d="M86.6399536,58.390667c-0.1791763,0-0.2933731-0.1142082-0.2933731-0.3099976v-4.0434113
			c0-1.7124977-0.9786148-3.587513-4.1745682-3.587513c-2.4131165,0-4.0434189,1.206398-4.2392044,3.1469994H80.13414
			c0.2277985-0.8967247,0.9293518-1.2719841,2.0378723-1.2719841c0.9296722,0,1.859024,0.538105,1.891655,1.8263931
			c-0.4072647-0.0163155-0.8643951-0.0326271-1.336937-0.0326271c-1.7937469,0-5.2504272,0.4565239-5.2504272,3.2608986
			c0,2.119751,1.858696,3.0004768,3.6361542,3.0004768c1.2067108,0,2.6249084-0.4075737,3.2282715-1.2556648l0.1468353,1.0275612
			h3.1146698V58.390667H86.6399536z M83.9334641,57.1186867c-0.2936859,1.0925102-1.5167084,1.4674606-2.3647995,1.4674606
			c-1.0106277,0-1.6952515-0.4075775-1.6952515-1.2556648c0-1.2227287,1.3855591-1.6302948,2.8207016-1.6302948
			c0.4728241,0,0.9779739,0.0326271,1.4018707,0.0815697C84.0959854,56.1893349,84.0150223,56.8090096,83.9334641,57.1186867"/>
		<path class="st1" d="M50.3150902,54.5749741c0.2120857,0,0.3423119,0.0979004,0.3423119,0.3423233v3.2448883
			c-0.2444229,0.0163193-0.374649,0.0163193-0.5870552,0.0163193c-3.9621429,0-6.3918915-2.2173424-6.3918915-4.6304703
			c0-2.9841576,2.9841499-4.6637077,6.2943039-4.6637077c1.2719803,0,2.3481827,0.1631546,3.2448997,0.3749504v-2.2826042
			c-1.0601768-0.2447319-2.0058556-0.3423119-3.2285728-0.3423119c-5.3483429,0-9.0008087,3.1140633-9.0008087,6.9136734
			c0,4.4346809,4.2721367,6.8478088,9.0171165,6.8478088c1.3532448,0,2.2499771-0.0812683,3.1959534-0.2770576v-5.2014885
			c0-0.2444229,0.1305275-0.3423233,0.3423157-0.3423233h0.8967133v-1.8097649h-5.3316956v1.8097649H50.3150902z"/>
		<g>
			<path class="st2" d="M100.2360611,36.297348v-0.2266579h0.1506119c0.0768433,0,0.15905,0.0168839,0.15905,0.1075401
				c0,0.1122246-0.0837555,0.1191177-0.1775055,0.1191177H100.2360611z M100.2360611,36.3903008h0.1267853l0.1928711,0.3166084
				h0.1236877l-0.2074509-0.3204079c0.1068115-0.0138321,0.1890259-0.0714722,0.1890259-0.2020836
				c0-0.143692-0.085289-0.2067261-0.2574005-0.2067261h-0.2781525v0.7292175h0.1106339V36.3903008z M100.3697662,36.975071
				c0.3442307,0,0.6392899-0.2681618,0.6392899-0.634716c0-0.3626633-0.2950592-0.6300278-0.6392899-0.6300278
				c-0.3480759,0-0.6423645,0.2673645-0.6423645,0.6300278C99.7274017,36.7069092,100.0216904,36.975071,100.3697662,36.975071
				 M99.8541946,36.3403549c0-0.2996292,0.2258835-0.5247879,0.5155716-0.5247879
				c0.2858429,0,0.5124969,0.2251587,0.5124969,0.5247879c0,0.3043213-0.2266541,0.5286789-0.5124969,0.5286789
				C100.0800781,36.8690338,99.8541946,36.6446762,99.8541946,36.3403549"/>
			<path class="st3" d="M84.0620117,41.2981873c-4.325058,0-8.4070892-0.9818726-11.4941101-2.7646828
				c-3.2677689-1.8871536-5.067421-4.4590073-5.067421-7.2417583c0-2.7828159,1.7996521-5.3546677,5.067421-7.2417603
				c3.0870209-1.7828121,7.1690521-2.7646847,11.4941101-2.7646847c4.3251877,0,8.4072189,0.9818726,11.4941788,2.7646866l0,0
				c3.2678909,1.8871536,5.067482,4.4590034,5.067482,7.2417583c0,2.78269-1.7995911,5.3545399-5.067482,7.2417583
				C92.4692307,40.3163147,88.3871994,41.2981873,84.0620117,41.2981873z M84.0620117,22.2956657
				c-4.1504135,0-8.0529938,0.9337711-10.9888077,2.6292629c-2.9421005,1.6990051-4.5623627,3.9601116-4.5623627,6.3668175
				c0,2.406641,1.6202621,4.6677494,4.5623627,6.3668156c2.9358139,1.6954918,6.8383942,2.6292648,10.9888077,2.6292648
				c4.1505432,0,8.0531235-0.933773,10.9889984-2.6292648c2.9420395-1.6991272,4.562294-3.9602356,4.562294-6.3668156
				c0-2.4066429-1.6202545-4.6677513-4.562294-6.3668175l0,0C92.1151352,23.2294369,88.2125549,22.2956657,84.0620117,22.2956657z"
				/>
			<g>
				<defs>
					<path id="SVGID_1_" d="M95.3035889,24.4874306c-3.0115204-1.7392101-7.0037537-2.6969776-11.2415543-2.6969776
						c-4.2377396,0-8.2300262,0.9577675-11.2414856,2.6969776c-3.1049271,1.7930908-4.8148651,4.2096004-4.8148651,6.8043003
						s1.709938,5.0112095,4.8148651,6.8043003c3.0114594,1.7392082,7.003746,2.6969757,11.2414856,2.6969757
						c4.2378006,0,8.2300339-0.9577675,11.2415543-2.6969757c3.104805-1.7930908,4.8148651-4.2096024,4.8148651-6.8043003
						S98.4083939,26.2805214,95.3035889,24.4874306z"/>
				</defs>
				<clipPath id="SVGID_2_">
					<use xlink:href="#SVGID_1_"  style="overflow:visible;"/>
				</clipPath>
				<g id="G-Logo_x5F_thicklines_x5F_highres_x5F_v10CMYK-F.psd_6_" class="st4">
					<g id="G-Logo_x5F_thicklines-LARGEUSE-F2.psd_6_">
						
							<image style="overflow:visible;" width="1500" height="1500" id="G-Logo_x5F_thicklines-LARGEUSE-F2_1_" xlink:href="C279731AC6A5129B.png"  transform="matrix(0.0221312 0 0 0.0221312 67.4648819 14.7033195)">
						</image>
					</g>
				</g>
			</g>
		</g>
	</g>
</g>
</svg>
