<?xml version="1.0" encoding="utf-8"?>
<!-- Generator: Adobe Illustrator 25.3.0, SVG Export Plug-In . SVG Version: 6.00 Build 0)  -->
<svg version="1.1" id="Layer_1" xmlns="http://www.w3.org/2000/svg" xmlns:xlink="http://www.w3.org/1999/xlink" x="0px" y="0px"
	 viewBox="0 0 400 140" style="enable-background:new 0 0 400 140;" xml:space="preserve">
<style type="text/css">
	.st0{fill:#FFFFFF;}
</style>
<g>
	<g>
		<path class="st0" d="M71.6,6.2L50.9,26.9c-1.2,1.2-1.2,3.3,0,4.5l14,14L71.6,6.2z"/>
		<path class="st0" d="M65.3,45.7l11.9,11.9c1.2,1.2,3.3,1.2,4.5,0l11.9-11.9H65.3z"/>
		<path class="st0" d="M108,26.9L86.3,5.3l-4.9,28.6H96l-1.9,11.4L108,31.4C109.2,30.2,109.2,28.2,108,26.9"/>
		<polygon class="st0" points="294.3,19.5 289.2,31.3 288.5,19.5 285.1,19.5 280,31.3 279.3,19.5 274.6,19.5 276.8,39.6 280.4,39.6 
			285.2,28.6 285.9,39.6 289.5,39.6 299.1,19.5 		"/>
		<path class="st0" d="M305.8,23.8c-4.5,0-8.8,3.6-9.6,8.1c-0.4,2.2,0.1,4.3,1.4,5.8c1.3,1.5,3.2,2.4,5.3,2.4c3.9,0,8.6-2.8,9.5-8.1
			c0.4-2.2-0.1-4.3-1.4-5.9C309.9,24.6,308,23.8,305.8,23.8 M305.3,28c0.9,0,1.6,0.4,2.2,1c0.6,0.8,0.9,1.8,0.6,2.9
			c-0.4,1.9-2.2,4-4.5,4c-0.9,0-1.7-0.4-2.3-1c-0.6-0.7-0.8-1.7-0.6-2.9C301.2,29.4,303.7,28,305.3,28"/>
		<path class="st0" d="M324.3,23.8h-0.9c-1.2,0-2,0.4-2.7,0.8l0.1-0.3h-4.2l-2.8,15.4h4.5l1.6-8.5c0.3-1.4,0.9-2.9,3.3-3l0.4,0
			L324.3,23.8z"/>
		<polygon class="st0" points="323.1,39.6 327.6,39.6 331.3,19.5 326.8,19.5 		"/>
		<path class="st0" d="M345.5,19.5l-1,5.5c-0.9-0.8-2.1-1.2-3.7-1.2c-3.7,0-8.3,3.1-9.2,8.1c-0.4,2.3,0.1,4.4,1.3,5.9
			c1.2,1.5,3.1,2.3,5.1,2.3c1.9,0,3.4-0.7,4.3-1.4l-0.2,0.9h4.2l3.7-20.2H345.5z M340.6,28c0.9,0,1.7,0.3,2.2,1
			c0.6,0.7,0.9,1.8,0.7,2.9c-0.4,2-2.3,4.1-4.6,4.1c-0.9,0-1.7-0.4-2.2-1c-0.6-0.8-0.9-1.8-0.6-3C336.4,30.1,338.3,28,340.6,28"/>
		<polygon class="st0" points="128.8,19.5 124.2,19.5 120.4,39.7 130.9,39.7 131.7,35.3 125.8,35.3 		"/>
		<path class="st0" d="M146.6,25.4c-0.7-0.8-2.1-1.6-4.1-1.6c-4.3,0-8.3,3.4-9.1,8c-0.5,2.5,0,4.7,1.3,6.2c1.1,1.4,2.8,2.1,4.8,2.1
			c1.5,0,3.3-0.6,4.7-1.5l-0.2,1h4.2l2.8-15.4h-4.2L146.6,25.4z M137.9,32.1c0.4-2,2.1-4.2,4.6-4.2c0.9,0,1.8,0.4,2.3,1
			c0.6,0.7,0.8,1.7,0.5,2.9c-0.4,2.4-2.3,4.1-4.5,4.1c-1,0-1.8-0.3-2.3-1C137.9,34.2,137.7,33.2,137.9,32.1"/>
		<path class="st0" d="M161.6,23.8c-1.5,0-2.7,0.5-3.5,1.1l0.1-0.6h-4.2l-2.8,15.4h4.5l1.3-7.2c0.2-1.1,0.5-2.6,1.2-3.4
			c0.7-0.9,1.7-1.1,2.2-1.1c0.6,0,1,0.2,1.3,0.5c0.7,0.9,0.4,2.8,0.2,3.5l-1.4,7.7h4.5l1.5-8.2c0.2-1.2,0.7-3.7-0.4-5.5
			C164.9,24.4,162.9,23.8,161.6,23.8"/>
		<path class="st0" d="M182.8,19.5l-1,5.5c-0.9-0.8-2.1-1.2-3.7-1.2c-3.7,0-8.3,3.1-9.2,8.1c-0.4,2.3,0.1,4.4,1.3,5.9
			c1.2,1.5,3.1,2.3,5.1,2.3c1.9,0,3.4-0.7,4.3-1.4l-0.2,0.9h4.2l3.7-20.2H182.8z M177.9,28c0.9,0,1.7,0.3,2.2,1
			c0.6,0.7,0.9,1.8,0.7,2.9c-0.4,2-2.3,4.1-4.6,4.1c-0.9,0-1.7-0.4-2.2-1c-0.6-0.8-0.9-1.8-0.6-3C173.7,30.1,175.6,28,177.9,28"/>
		<path class="st0" d="M194.1,23.8c-2.6,0-5.6,1.8-6.1,4.9c-0.4,2.2,0.6,3.9,2.8,4.7c2.4,0.9,2.6,1,2.5,1.6c-0.1,0.4-0.5,1-1.3,1
			c-0.8,0-1-0.5-1-1.4l0-0.5h-4.5l0,0.5c-0.1,0.8-0.2,2.2,0.6,3.4c0.8,1.3,2.5,2.1,4.4,2.1c2.6,0,5.8-1.9,6.5-5.4
			c0.7-3.5-2.2-4.4-3.5-4.9l-0.1,0c-1.7-0.6-1.8-0.7-1.7-1c0.1-0.3,0.4-0.8,1-0.8c0.4,0,0.6,0.1,0.6,0.7l0,0.5h4.3l0.1-0.4
			c0.2-1.4-0.1-2.6-0.9-3.5C196.8,24.3,195.5,23.8,194.1,23.8"/>
		<path class="st0" d="M209,28c1.8,0,2.2,1.1,2.5,1.8l0.1,0.3h4.8l-0.1-0.6c-0.6-4.2-4-5.7-6.7-5.7c-4.4,0-8.7,3.6-9.5,8
			c-0.4,2.2,0.1,4.3,1.3,5.9c1.3,1.5,3.2,2.4,5.4,2.4c3.5,0,6.7-2,8.6-5.4l0.4-0.8h-5l-0.2,0.2c-1,1.2-2,1.8-3.1,1.8
			c-1,0-1.8-0.3-2.4-1c-0.6-0.7-0.8-1.7-0.6-2.9C205,29.4,207.2,28,209,28"/>
		<path class="st0" d="M231.1,24.3l-0.2,1.2c-0.8-0.8-2.1-1.7-4.1-1.7c-4.3,0-8.3,3.4-9.1,8c-0.5,2.5,0,4.7,1.3,6.2
			c1.1,1.4,2.8,2.1,4.8,2.1c1.5,0,3.3-0.6,4.7-1.5l-0.2,1h4.2l2.8-15.4H231.1z M222.1,32.1c0.4-2,2.1-4.2,4.6-4.2
			c0.9,0,1.8,0.4,2.3,1c0.6,0.7,0.8,1.7,0.5,2.9c-0.4,2.4-2.3,4.1-4.5,4.1c-1,0-1.8-0.3-2.3-1C222.2,34.2,221.9,33.2,222.1,32.1"/>
		<path class="st0" d="M246.4,23.8c-1.6,0-3.1,0.5-4.3,1.4l0.2-0.9H238l-3.7,20.2h4.5l1-5.6c0.7,0.7,1.8,1.3,3.8,1.3
			c4.3,0,8.3-3.6,9.1-8.1c0.4-2.3-0.1-4.5-1.4-6.1C250.2,24.5,248.5,23.8,246.4,23.8 M240.9,32.1c0.5-2.6,2.7-4.1,4.6-4.1
			c0.9,0,1.6,0.4,2.2,1c0.6,0.7,0.8,1.8,0.6,2.9c-0.5,2.8-3,4.1-4.5,4.1c-0.7,0-1.6-0.3-2.3-1.1C240.8,34.2,240.7,33.2,240.9,32.1"
			/>
		<path class="st0" d="M269.3,26c-1.2-1.5-3-2.2-5.2-2.2c-4.5,0-8.6,3.5-9.5,8.1c-0.4,2.3,0.1,4.3,1.3,5.9c1.2,1.5,3.1,2.3,5.3,2.3
			c3.7,0,7-2.7,8.3-5.3l0.1-0.2h-4.9c-0.8,0.8-1.8,1.3-3,1.3c-1.1,0-1.8-0.5-2.1-0.8c-0.3-0.4-0.6-0.7-0.7-1.1h10.9l0.1-0.3
			c0.2-0.4,0.4-1.1,0.6-1.8C271,29.7,270.5,27.6,269.3,26 M259.7,30.2c1.2-2,3-2.3,3.8-2.3c0.6,0,1.5,0.1,2.1,0.7
			c0.4,0.4,0.6,0.9,0.7,1.5H259.7z"/>
	</g>
	<g>
		<path class="st0" d="M71.6,6.2L50.9,26.9c-1.2,1.2-1.2,3.3,0,4.5l14,14L71.6,6.2z"/>
		<path class="st0" d="M65.3,45.7l11.9,11.9c1.2,1.2,3.3,1.2,4.5,0l11.9-11.9H65.3z"/>
		<path class="st0" d="M108,26.9L86.3,5.3l-4.9,28.6H96l-1.9,11.4L108,31.4C109.2,30.2,109.2,28.2,108,26.9"/>
		<polygon class="st0" points="294.3,19.5 289.2,31.3 288.5,19.5 285.1,19.5 280,31.3 279.3,19.5 274.6,19.5 276.8,39.6 280.4,39.6 
			285.2,28.6 285.9,39.6 289.5,39.6 299.1,19.5 		"/>
		<path class="st0" d="M305.8,23.8c-4.5,0-8.8,3.6-9.6,8.1c-0.4,2.2,0.1,4.3,1.4,5.8c1.3,1.5,3.2,2.4,5.3,2.4c3.9,0,8.6-2.8,9.5-8.1
			c0.4-2.2-0.1-4.3-1.4-5.9C309.9,24.6,308,23.8,305.8,23.8 M305.3,28c0.9,0,1.6,0.4,2.2,1c0.6,0.8,0.9,1.8,0.6,2.9
			c-0.4,1.9-2.2,4-4.5,4c-0.9,0-1.7-0.4-2.3-1c-0.6-0.7-0.8-1.7-0.6-2.9C301.2,29.4,303.7,28,305.3,28"/>
		<path class="st0" d="M324.3,23.8h-0.9c-1.2,0-2,0.4-2.7,0.8l0.1-0.3h-4.2l-2.8,15.4h4.5l1.6-8.5c0.3-1.4,0.9-2.9,3.3-3l0.4,0
			L324.3,23.8z"/>
		<polygon class="st0" points="323.1,39.6 327.6,39.6 331.3,19.5 326.8,19.5 		"/>
		<path class="st0" d="M345.5,19.5l-1,5.5c-0.9-0.8-2.1-1.2-3.7-1.2c-3.7,0-8.3,3.1-9.2,8.1c-0.4,2.3,0.1,4.4,1.3,5.9
			c1.2,1.5,3.1,2.3,5.1,2.3c1.9,0,3.4-0.7,4.3-1.4l-0.2,0.9h4.2l3.7-20.2H345.5z M340.6,28c0.9,0,1.7,0.3,2.2,1
			c0.6,0.7,0.9,1.8,0.7,2.9c-0.4,2-2.3,4.1-4.6,4.1c-0.9,0-1.7-0.4-2.2-1c-0.6-0.8-0.9-1.8-0.6-3C336.4,30.1,338.3,28,340.6,28"/>
		<polygon class="st0" points="128.8,19.5 124.2,19.5 120.4,39.7 130.9,39.7 131.7,35.3 125.8,35.3 		"/>
		<path class="st0" d="M146.6,25.4c-0.7-0.8-2.1-1.6-4.1-1.6c-4.3,0-8.3,3.4-9.1,8c-0.5,2.5,0,4.7,1.3,6.2c1.1,1.4,2.8,2.1,4.8,2.1
			c1.5,0,3.3-0.6,4.7-1.5l-0.2,1h4.2l2.8-15.4h-4.2L146.6,25.4z M137.9,32.1c0.4-2,2.1-4.2,4.6-4.2c0.9,0,1.8,0.4,2.3,1
			c0.6,0.7,0.8,1.7,0.5,2.9c-0.4,2.4-2.3,4.1-4.5,4.1c-1,0-1.8-0.3-2.3-1C137.9,34.2,137.7,33.2,137.9,32.1"/>
		<path class="st0" d="M161.6,23.8c-1.5,0-2.7,0.5-3.5,1.1l0.1-0.6h-4.2l-2.8,15.4h4.5l1.3-7.2c0.2-1.1,0.5-2.6,1.2-3.4
			c0.7-0.9,1.7-1.1,2.2-1.1c0.6,0,1,0.2,1.3,0.5c0.7,0.9,0.4,2.8,0.2,3.5l-1.4,7.7h4.5l1.5-8.2c0.2-1.2,0.7-3.7-0.4-5.5
			C164.9,24.4,162.9,23.8,161.6,23.8"/>
		<path class="st0" d="M182.8,19.5l-1,5.5c-0.9-0.8-2.1-1.2-3.7-1.2c-3.7,0-8.3,3.1-9.2,8.1c-0.4,2.3,0.1,4.4,1.3,5.9
			c1.2,1.5,3.1,2.3,5.1,2.3c1.9,0,3.4-0.7,4.3-1.4l-0.2,0.9h4.2l3.7-20.2H182.8z M177.9,28c0.9,0,1.7,0.3,2.2,1
			c0.6,0.7,0.9,1.8,0.7,2.9c-0.4,2-2.3,4.1-4.6,4.1c-0.9,0-1.7-0.4-2.2-1c-0.6-0.8-0.9-1.8-0.6-3C173.7,30.1,175.6,28,177.9,28"/>
		<path class="st0" d="M194.1,23.8c-2.6,0-5.6,1.8-6.1,4.9c-0.4,2.2,0.6,3.9,2.8,4.7c2.4,0.9,2.6,1,2.5,1.6c-0.1,0.4-0.5,1-1.3,1
			c-0.8,0-1-0.5-1-1.4l0-0.5h-4.5l0,0.5c-0.1,0.8-0.2,2.2,0.6,3.4c0.8,1.3,2.5,2.1,4.4,2.1c2.6,0,5.8-1.9,6.5-5.4
			c0.7-3.5-2.2-4.4-3.5-4.9l-0.1,0c-1.7-0.6-1.8-0.7-1.7-1c0.1-0.3,0.4-0.8,1-0.8c0.4,0,0.6,0.1,0.6,0.7l0,0.5h4.3l0.1-0.4
			c0.2-1.4-0.1-2.6-0.9-3.5C196.8,24.3,195.5,23.8,194.1,23.8"/>
		<path class="st0" d="M209,28c1.8,0,2.2,1.1,2.5,1.8l0.1,0.3h4.8l-0.1-0.6c-0.6-4.2-4-5.7-6.7-5.7c-4.4,0-8.7,3.6-9.5,8
			c-0.4,2.2,0.1,4.3,1.3,5.9c1.3,1.5,3.2,2.4,5.4,2.4c3.5,0,6.7-2,8.6-5.4l0.4-0.8h-5l-0.2,0.2c-1,1.2-2,1.8-3.1,1.8
			c-1,0-1.8-0.3-2.4-1c-0.6-0.7-0.8-1.7-0.6-2.9C205,29.4,207.2,28,209,28"/>
		<path class="st0" d="M231.1,24.3l-0.2,1.2c-0.8-0.8-2.1-1.7-4.1-1.7c-4.3,0-8.3,3.4-9.1,8c-0.5,2.5,0,4.7,1.3,6.2
			c1.1,1.4,2.8,2.1,4.8,2.1c1.5,0,3.3-0.6,4.7-1.5l-0.2,1h4.2l2.8-15.4H231.1z M222.1,32.1c0.4-2,2.1-4.2,4.6-4.2
			c0.9,0,1.8,0.4,2.3,1c0.6,0.7,0.8,1.7,0.5,2.9c-0.4,2.4-2.3,4.1-4.5,4.1c-1,0-1.8-0.3-2.3-1C222.2,34.2,221.9,33.2,222.1,32.1"/>
		<path class="st0" d="M246.4,23.8c-1.6,0-3.1,0.5-4.3,1.4l0.2-0.9H238l-3.7,20.2h4.5l1-5.6c0.7,0.7,1.8,1.3,3.8,1.3
			c4.3,0,8.3-3.6,9.1-8.1c0.4-2.3-0.1-4.5-1.4-6.1C250.2,24.5,248.5,23.8,246.4,23.8 M240.9,32.1c0.5-2.6,2.7-4.1,4.6-4.1
			c0.9,0,1.6,0.4,2.2,1c0.6,0.7,0.8,1.8,0.6,2.9c-0.5,2.8-3,4.1-4.5,4.1c-0.7,0-1.6-0.3-2.3-1.1C240.8,34.2,240.7,33.2,240.9,32.1"
			/>
		<path class="st0" d="M269.3,26c-1.2-1.5-3-2.2-5.2-2.2c-4.5,0-8.6,3.5-9.5,8.1c-0.4,2.3,0.1,4.3,1.3,5.9c1.2,1.5,3.1,2.3,5.3,2.3
			c3.7,0,7-2.7,8.3-5.3l0.1-0.2h-4.9c-0.8,0.8-1.8,1.3-3,1.3c-1.1,0-1.8-0.5-2.1-0.8c-0.3-0.4-0.6-0.7-0.7-1.1h10.9l0.1-0.3
			c0.2-0.4,0.4-1.1,0.6-1.8C271,29.7,270.5,27.6,269.3,26 M259.7,30.2c1.2-2,3-2.3,3.8-2.3c0.6,0,1.5,0.1,2.1,0.7
			c0.4,0.4,0.6,0.9,0.7,1.5H259.7z"/>
	</g>
</g>
</svg>
