<?xml version="1.0" encoding="utf-8"?>
<!-- Generator: Adobe Illustrator 25.3.0, SVG Export Plug-In . SVG Version: 6.00 Build 0)  -->
<svg version="1.1" id="Layer_1" xmlns="http://www.w3.org/2000/svg" xmlns:xlink="http://www.w3.org/1999/xlink" x="0px" y="0px"
	 viewBox="0 0 170 120" style="enable-background:new 0 0 170 120;" xml:space="preserve">
<style type="text/css">
	.st0{fill:#FFFFFF;}
	.st1{fill:#1D1D1B;}
</style>
<g>
	<g>
		<path class="st0" d="M81.7790909,76.13871h-1.4109573c-0.6059494,0-1.0972672,0.4913101-1.0972672,1.0972672v1.3479614
			c0,0.3735199,0.1870804,0.7029572,0.4717865,0.9013672c-0.0356674,0.0248871-0.0534592,0.0677185-0.0858994,0.0965347
			c-0.1949463-0.1773911-0.4486389-0.2924271-0.7329559-0.2924271H78.45327v-0.7993317
			c0-0.6059494-0.4913101-1.0972672-1.0972672-1.0972672h-0.9404221c-0.5152512,0-0.9612122,0.3590393-1.0714417,0.8629532
			l-0.2267609,1.0336456h-0.1518021c-0.0609436,0-0.1136169,0.0251923-0.1718826,0.0347214
			c-0.0536194-0.0245667-0.1017227-0.057869-0.1600723-0.0737762c-0.2853394-0.0781021-0.5750885-0.1177902-0.8616867-0.1177902
			c-0.5744553,0-1.0752182,0.1152725-1.4959869,0.3439178c-0.1751099-0.1177826-0.3861237-0.1870728-0.6122513-0.1870728h-1.3328476
			c-0.2991943,0-0.5857925,0.1222-0.7923965,0.3388824c-0.2072372,0.2160492-0.3168335,0.5070572-0.3036041,0.8062592
			c0.0293655,0.6687851,0.043457,1.2782745,0.0448761,1.8366776c-0.1960526-0.6645355-0.4897385-1.2239532-0.8851547-1.6861343
			c-0.8264084-0.9637375-2.0691833-1.4525299-3.6936646-1.4525299c-1.4283562,0-3.6067505,0.4445496-4.4956017,2.9078064
			c-0.1614876-0.5390244-0.3724213-1.0154572-0.6594162-1.4036255c-0.5039101-0.6828003-1.4726791-1.4966202-3.2256622-1.4966202
			c-0.7842102,0-1.460083,0.1417236-2.0124969,0.4213943c-0.1952629-0.1707001-0.4497414-0.27211-0.7231102-0.27211h-1.3637123
			c-0.3124237,0-0.6097336,0.1329041-0.8175964,0.3659668c-0.1466827,0.1640091-0.2162857,0.3706131-0.2459717,0.5846176
			c0.0044098-0.1154327,0.0081902-0.2318802-0.02425-0.3452606c-0.3464394-1.2024612-0.985775-2.079895-1.8997459-2.6090012
			c-0.840271-0.486908-1.9608459-0.7237473-3.4259682-0.7237473c-1.5955086,0-2.8193817,0.3174667-3.7415428,0.9694061
			c-1.0128593,0.7168121-1.5488968,1.7832108-1.5488968,3.0826721c0,0.5631256,0.1007843,1.0796356,0.2985687,1.5344162
			c0.1996765,0.459816,0.4913139,0.8667221,0.8679886,1.2093811c0.3558846,0.3237686,0.8062553,0.5990295,1.3756752,0.8427963
			c0.5190125,0.2223511,1.2326927,0.432106,2.1731186,0.6405945c0.4982414,0.1146393,0.9511337,0.2198334,1.3605614,0.3187256
			c0.3325806,0.0799942,0.6154022,0.177002,0.8396416,0.2872314c0.1354256,0.0661392,0.2330589,0.1398315,0.2916412,0.220459
			c0.0094452,0.0125961,0.0346413,0.0831451,0.0346413,0.228653c0,0.3004532-0.1014099,0.423912-0.2765198,0.5341415
			c-0.2368393,0.1499176-0.7161865,0.3281708-1.6515694,0.3281708c-0.7268944,0-1.30513-0.1108551-1.6736183-0.3218689
			c-0.2834473-0.1618805-0.4522591-0.4018707-0.5467415-0.7772827c-0.1253471-0.4950943-0.5700493-0.8289337-1.0626221-0.8289337
			c-0.0718079,0-0.1436157,0.0069275-0.216053,0.0214157l-1.4500046,0.2897491
			c-0.2910118,0.0579453-0.5454865,0.2311707-0.7061081,0.4799728c-0.1612511,0.2488098-0.2147903,0.5524139-0.1486511,0.8409042
			c0.3829727,1.6692047,1.6906204,3.6583939,5.7489967,3.6583939c1.6704674,0,3.0152817-0.3495865,3.9960175-1.0380554
			c0.6809883-0.4775391,1.1352196-1.1119919,1.398983-1.8465195v4.961319c0,0.605957,0.4913139,1.0972672,1.0972672,1.0972672
			h1.4103241c0.6059532,0,1.0972672-0.4913101,1.0972672-1.0972672v-2.3066559
			c0.4333649,0.144249,0.943573,0.2299118,1.544487,0.2299118c1.2389145,0,3.1329918-0.4548569,3.8868103-2.9889832
			c0.1974716,0.552887,0.4546242,1.0508118,0.8001976,1.4633942c0.8471985,1.0122299,2.0742226,1.525589,3.6470566,1.525589
			c1.5614929,0,2.7929306-0.4894257,3.6602859-1.4531555c0.4375381-0.4865875,0.755867-1.0971069,0.9662476-1.8138428v2.0128937
			c0,0.6059494,0.4913177,1.0972672,1.0972672,1.0972672h1.4109573c0.6059494,0,1.0972672-0.4913177,1.0972672-1.0972672v-4.4205627
			c0-0.9114532,0.1631393-1.3700104,0.301712-1.5955124c0.1089706-0.1788864,0.1996765-0.2305374,0.4031296-0.2305374
			c0.2973099,0,0.4289551,0.0296021,0.4623413,0.0390472c0.0957413,0.0258255,0.1933746,0.0390549,0.2903748,0.0390549
			c0.1769257,0,0.3461304-0.0564499,0.5039139-0.1392822v4.513237c0,1.8890381,1.0430984,3.0171661,2.7904129,3.0171661
			c0.5776062,0,1.1533279-0.0762177,1.7107773-0.225502c0.1236954-0.0331421,0.2363663-0.088028,0.3374634-0.1577072
			c0.1887283,0.1532974,0.4196625,0.2578659,0.681694,0.2578659h1.4109573c0.6059494,0,1.0972672-0.4913177,1.0972672-1.0972672
			v-8.4802017c0-0.3735275-0.1870804-0.7029572-0.4717865-0.9013748c0.2847061-0.19841,0.4717865-0.5278473,0.4717865-0.9013672
			v-1.3479614C82.876358,76.6300201,82.3850403,76.13871,81.7790909,76.13871z M50.5157967,83.2558289
			c-0.2765236-0.3054962-0.6046944-0.5669022-0.9775887-0.7766571c-0.3206139-0.1807785-0.6664238-0.3388824-1.0279808-0.4705276
			c-0.3458061-0.125351-0.7079926-0.2343216-1.0884476-0.3262787l-1.0323868-0.2425079
			c-1.2276535-0.2727432-1.6635399-0.4276962-1.8134537-0.4957275c-0.1769981-0.0806274-0.3124237-0.1719589-0.3823395-0.258255
			c-0.0119705-0.0151138-0.0245667-0.0673981-0.0245667-0.1505432c0-0.2456512,0.0730667-0.309906,0.1845551-0.3804474
			c0.1606216-0.1007843,0.5612335-0.2702255,1.4380379-0.2702255c0.7527199,0,1.1426201,0.1341629,1.3378868,0.2475433
			c0.126606,0.0737,0.3073845,0.2173157,0.4188766,0.6185532c0.1335335,0.4818649,0.5713081,0.8037415,1.056324,0.8037415
			c0.0629883,0,0.126606-0.0056686,0.1902237-0.0170059l1.4733124-0.2588882
			c0.3067551-0.0535431,0.5763474-0.2349472,0.7407494-0.4995041c0.0688934-0.1101532,0.1040115-0.2337646,0.1302299-0.3580933
			c0.0008659,0.0296097-0.0119667,0.0575562-0.0086594,0.0872421c0.0151176,0.1354294,0.0403099,0.5246964,0.0403099,1.6100006
			v2.2119293C51.0109673,83.9250031,50.7933426,83.5624237,50.5157967,83.2558289z M56.5457268,86.6282501
			c-0.0598412,0.0957489-0.1599922,0.2557373-0.6021767,0.2557373c-0.614769,0-0.7596436-0.2147903-0.8220024-0.3080139
			c-0.1291275-0.1914902-0.3458099-0.6865845-0.3458099-1.8474655c0-0.6783905,0.0642471-1.2182083,0.1914864-1.604332
			c0.0900726-0.2733688,0.2053413-0.4686356,0.3338394-0.5637512c0.0548019-0.0409393,0.2292824-0.136055,0.6582336-0.136055
			c0.4365158,0,0.5335159,0.1543274,0.5914688,0.2469177c0.0932236,0.1480255,0.309906,0.6343002,0.309906,1.9476166
			C56.860672,85.9763184,56.6402092,86.4764481,56.5457268,86.6282501z M65.539917,86.5570755
			c-0.0592117,0.089447-0.2179413,0.3269119-0.9013748,0.3269119c-0.5020218,0-0.6765022-0.1637726-0.7917709-0.3414001
			c-0.1681786-0.2601471-0.3684845-0.8050003-0.3684845-1.9236832c0-1.2062378,0.2261314-1.7189636,0.361557-1.9180145
			c0.0680275-0.0988922,0.2261276-0.3313217,0.8849945-0.3313217c0.6374435,0,0.7798004,0.2173157,0.8333435,0.2998276
			c0.1278687,0.1946411,0.3420258,0.7067413,0.3420258,1.9495087C65.9002075,85.8364792,65.6753387,86.3555069,65.539917,86.5570755
			z M78.8425446,86.6874619c-0.1669235,0.0340118-0.2922668,0.0554276-0.3892746,0.0673981v-4.244194h0.4705276
			c0.1231461,0,0.2366028-0.0326767,0.3470688-0.070076v4.2589951c-0.068573-0.0133057-0.135582-0.0354309-0.2059708-0.0354309
			C78.9905701,86.6641541,78.9162445,86.6717148,78.8425446,86.6874619z"/>
		<path class="st0" d="M99.9047775,79.2894135h-1.3404007c-0.2935257,0-0.5694199,0.117157-0.7722473,0.3180923
			c-0.5662689-0.2998276-1.2119064-0.4516296-1.9236755-0.4516296c-1.7851105,0-2.7677383,0.8251572-3.2779465,1.5174026
			c-0.3111649,0.4228134-0.5402069,0.9371185-0.7055588,1.5303192c-0.1214828-0.8590164-0.4072952-1.5304794-0.8716812-2.0285645
			c-0.6450119-0.6916122-1.6018143-1.0424652-2.843956-1.0424652c-0.7798004,0-1.4651184,0.1543274-2.0414658,0.4591904
			c-0.1984177-0.1883392-0.4661179-0.3023453-0.7565002-0.3023453h-1.3322144c-0.3174667,0-0.6191788,0.1392059-0.8276749,0.3791962
			c-0.2084961,0.2399826-0.3023453,0.5593414-0.258255,0.8742828c0.0063019,0.0428314,0.0359039,0.323761,0.0359039,1.6540909
			v6.669899c0,0.6059494,0.4913177,1.0972672,1.0972672,1.0972672h1.4103241c0.6059494,0,1.0972672-0.4913177,1.0972672-1.0972672
			v-4.9143982c0-0.5555649,0.1108551-0.9687729,0.3300629-1.2289124c0.127861-0.1518097,0.3193512-0.3073883,0.7672043-0.3073883
			c0.3899002,0,0.5190277,0.062355,0.549263,0.141098c0.0308609,0.0856628,0.1014099,0.3483276,0.1014099,0.9328613v5.3767395
			c0,0.6059494,0.4913177,1.0972672,1.0972672,1.0972672h1.4185104c0.605957,0,1.0972672-0.4913177,1.0972672-1.0972672v-1.5573273
			c0.1474762,0.4598236,0.3270721,0.8776703,0.5694199,1.2197037c0.1114883,0.1574707,0.2481766,0.3225021,0.413208,0.4824982
			L92.8827744,89.01931c-0.3042374,0.0440979-0.5763474,0.2135315-0.7501984,0.4673767
			c-0.1732178,0.2544785-0.2317963,0.5694199-0.1618805,0.8692474c0.2223511,0.9473572,0.7344513,1.6912537,1.5205536,2.2115402
			c0.7287827,0.4824982,1.6761322,0.7275238,2.8162155,0.7275238c2.9535675,0,4.6479721-1.7025909,4.6479721-4.671257v-6.4815598
			c0-1.1111221,0.0245667-1.5003967,0.0396805-1.633934c0.0346451-0.309906-0.0648804-0.6204376-0.2727432-0.8528671
			C100.5145111,79.4223175,100.2172089,79.2894135,99.9047775,79.2894135z M96.3465347,90.0265045
			c-0.0925903,0-0.1795197-0.0044098-0.2595139-0.013855c0.3376236-0.0251999,0.6601257-0.084404,0.9643631-0.1776276
			C96.855484,90.0265045,96.5921936,90.0265045,96.3465347,90.0265045z M97.1483841,85.976944
			c-0.114006,0.296051-0.2569962,0.5070648-0.4371414,0.6437531c-0.154953,0.117157-0.3155746,0.1694336-0.5209198,0.1694336
			c-0.5045395,0-0.6040649-0.1631393-0.6462631-0.2336884c-0.0913391-0.1492844-0.3023453-0.6361847-0.3023453-1.9299774
			c0-1.2522202,0.2034531-1.7618027,0.3250198-1.9551773c0.0636215-0.1007843,0.1700668-0.2702255,0.6468964-0.2702255
			c0.1914825,0,0.3432922,0.0510254,0.4938354,0.1675568c0.1769943,0.136055,0.3243866,0.3584061,0.4384003,0.6613846
			c0.1404648,0.3728943,0.2116394,0.8427887,0.2116394,1.3964615C97.3575058,85.1624985,97.28759,85.6166534,97.1483841,85.976944z"
			/>
		<path class="st0" d="M129.808136,79.7656097c-0.2047119-0.2979355-0.5429535-0.4761963-0.9045105-0.4761963h-1.4890594
			c-0.4686432,0-0.8849945,0.2973099-1.0374298,0.7407455l-1.3681183,3.9790115l-1.530632-4.0130234
			c-0.1618805-0.4258041-0.5694199-0.7067337-1.0248337-0.7067337h-1.5047989c-0.3634491,0-0.7035904,0.1807785-0.9076767,0.4818649
			c-0.176445,0.2594376-0.205574,0.5765839-0.1312485,0.8760986c-0.1309433-0.1766052-0.2707748-0.3468323-0.4369049-0.4975357
			c-0.7432709-0.674614-1.8008575-1.0172729-3.1431503-1.0172729c-3.0664597,0-4.068222,1.5789795-4.3889923,2.7744293
			c0.0352783-0.2463684,0.067955-0.4943085,0.067955-0.7600403c0-1.3863907-0.4724197-2.4924698-1.4040298-3.2880249
			c-0.8805847-0.7514572-2.0880814-1.1325378-3.5884781-1.1325378h-4.6479492c-0.605957,0-1.0972672,0.4913101-1.0972672,1.0972672
			v11.0432205c0,0.6059494,0.4913101,1.0972672,1.0972672,1.0972672h1.4972458c0.605957,0,1.0972672-0.4913177,1.0972672-1.0972672
			v-3.205513h2.1472931c1.4449615,0,2.6272659-0.4069061,3.5141525-1.2081223
			c0.6224899-0.5627289,1.0193939-1.2651367,1.2220612-2.0776138c-0.0380249,0.2906952,0.0360641,0.5847778,0.2166061,0.8171997
			c0.1719589,0.2198334,0.4201355,0.3659668,0.6941376,0.4087982c-0.0100784,0.008194-0.0207901,0.0170135-0.0308685,0.0251999
			c-0.5794983,0.4717865-1.2711105,1.3530045-1.2711105,2.8729248c0,1.0708084,0.3180923,1.9482498,0.9460907,2.6071091
			c0.6412277,0.6727219,1.5545654,1.014122,2.7141953,1.014122c0.8711319,0,1.6389694-0.1832962,2.281456-0.5448532
			c0.1366882-0.0768433,0.2695923-0.1643982,0.3980865-0.2614059c0.3256531,0.3451843,0.9120865,0.7275238,1.9129791,0.7275238
			c0.4554062,0,0.9064102-0.0522766,1.3410339-0.154953c0.4950943-0.117157,0.8453064-0.5587082,0.8453064-1.0676651v-0.8774338
			c0-0.3306885-0.14991-0.6443787-0.4069061-0.8522415c-0.1971512-0.1599884-0.4415512-0.2450256-0.690361-0.2450256
			c-0.051651,0-0.1026688,0.0037842-0.1543198,0.0113373c-0.0012589-0.0371628-0.0018921-3.7736664-0.0018921-3.7736664
			c0-0.224472-0.0275574-0.4308395-0.0531464-0.6383896l2.5430984,6.3842392
			c-0.2273865,0.5517883-0.5845337,1.1747437-1.0380554,1.1747437c-0.1776276,0-0.3395081-0.0100784-0.4869003-0.0333786
			c-0.0573196-0.0094528-0.1140137-0.0138626-0.1713333-0.0138626c-0.2595139,0-0.5127335,0.092598-0.7124023,0.263298
			c-0.2444,0.2084885-0.3848648,0.5133591-0.3848648,0.8339691v1.0582123c0,0.5152512,0.3590393,0.9612122,0.8623199,1.0714417
			c0.342659,0.075592,0.7376022,0.1121216,1.2068634,0.1121216c0.660759,0,1.2686005-0.1606216,1.807785-0.4774551
			c0.5064316-0.2985687,0.9618378-0.7401199,1.3542633-1.3120575c0.3558884-0.5177689,0.71492-1.2515945,1.0991516-2.2449265
			l3.2603149-8.4802017C130.0575714,80.4427414,130.0122223,80.0635452,129.808136,79.7656097z M106.8984375,82.2832794h-1.9356461
			v-2.1630402h1.873291c1.4733124,0,1.4733124,0.5536728,1.4733124,1.0424652
			C108.3093948,81.7976303,108.2054596,82.2832794,106.8984375,82.2832794z M115.5720139,82.5062561
			c0.0012589-0.0006256,0.1656647-0.1051941,0.7268906-0.1051941c0.3798294,0,0.5555649,0.0768509,0.5965118,0.1184235
			c0.0006256,0.0006256,0.0220413,0.0264511,0.0472412,0.0970001l-0.7565002,0.0126038
			c-0.2343216,0.0056686-0.459816,0.0176315-0.6752396,0.0365295
			C115.5354843,82.556015,115.5657196,82.5112991,115.5720139,82.5062561z M116.8141556,86.1029282
			c-0.1366806,0.2418747-0.3174591,0.4258041-0.5511551,0.5624847c-0.234314,0.1366882-0.5045395,0.2028275-0.8264084,0.2028275
			c-0.1895981,0-0.2695923-0.0371628-0.282196-0.0503922c-0.0188904-0.0195236-0.0547943-0.1051941-0.0547943-0.2941589
			c0-0.268959,0.0573196-0.372261,0.0749512-0.3968277c0.0333862-0.0472412,0.0970078-0.1177902,0.2670746-0.1801529
			c0.1266098-0.0459747,0.4440765-0.1259766,1.1539612-0.1373138l0.3546219-0.0069275
			C116.916832,85.9019928,116.8714752,86.0021439,116.8141556,86.1029282z"/>
		<path class="st0" d="M78.3178482,45.4675102c0,0.6777611,0.1203079,1.2994614,0.3584061,1.8468361
			c0.239357,0.5511513,0.5889435,1.0380554,1.0380554,1.4468536c0.4314728,0.3924217,0.981369,0.7287827,1.6811752,1.0279808
			c0.6475296,0.2771492,1.5463791,0.5417061,2.7406464,0.8068886c0.6399689,0.1461334,1.223877,0.2834511,1.7498322,0.4094276
			c0.451004,0.1089706,0.8358688,0.2406158,1.1432495,0.3917923c0.2198334,0.107708,0.3842316,0.2355766,0.4906845,0.3804512
			c0.0673981,0.0913353,0.1039352,0.2607727,0.1039352,0.4780846c0,0.4503708-0.1448746,0.7256355-0.5013962,0.9511337
			c-0.4856415,0.3073883-1.2774124,0.4692688-2.2890167,0.4692688c-1.0027847,0-1.7781754-0.1524353-2.3053894-0.4541512
			c-0.4384079-0.2506943-0.7086258-0.6298904-0.8503571-1.1936378c-0.1247177-0.4957237-0.5700455-0.829567-1.0626221-0.829567
			c-0.0718079,0-0.1436157,0.0069313-0.2160492,0.0214157l-1.8632126,0.3722649
			c-0.2903824,0.0579529-0.5454865,0.2311707-0.7061081,0.4799767c-0.1612473,0.248806-0.2147903,0.5517845-0.1486511,0.8409042
			c0.4661179,2.0339088,2.0729675,4.4583549,7.0824738,4.4583549c2.0805206,0,3.7472076-0.4295845,4.9547119-1.2767868
			c1.3107986-0.9190063,2.0036774-2.2814598,2.0036774-3.9399567c0-0.6487846-0.0970078-1.2333221-0.2878647-1.737236
			c-0.1921158-0.5095787-0.464859-0.962471-0.8131866-1.347332c-0.3344727-0.3678551-0.7294083-0.6821709-1.1753693-0.9334946
			c-0.3962021-0.2229805-0.8251572-0.4188766-1.275528-0.5832787c-0.4346237-0.1581001-0.8887711-0.2947884-1.3630829-0.4081688
			l-1.3233948-0.3117943c-1.6030655-0.3552589-2.186348-0.5650101-2.3923187-0.6582336
			c-0.2740021-0.1240883-0.4824982-0.2683334-0.6034317-0.4176178c-0.0251999-0.0314941-0.1020432-0.1259766-0.1020432-0.3911591
			c0-0.4245453,0.1530609-0.6084747,0.3842316-0.7533493c0.2865982-0.1807785,0.8686142-0.3955688,2.0137558-0.3955688
			c0.8207474,0,1.4695282,0.1247177,1.876442,0.3602943c0.2097473,0.1222,0.5089493,0.3558884,0.6821671,0.9807396
			c0.1335373,0.4818649,0.571312,0.8043671,1.0563278,0.8043671c0.062355,0,0.1259766-0.0056686,0.1902237-0.0170059
			l1.8928146-0.3319511c0.3067551-0.0535431,0.5757217-0.234951,0.7407532-0.4988747s0.2097549-0.5857964,0.1240845-0.8849945
			c-0.4213943-1.4638596-1.1942673-2.530262-2.2978363-3.1696014c-1.0330124-0.5971336-2.4212952-0.8875122-4.2454529-0.8875122
			c-1.9558029,0-3.5128937,0.3999786-4.6265335,1.1885986C78.9609604,42.6222992,78.3178482,43.9034958,78.3178482,45.4675102z"/>
		<path class="st0" d="M87.1136169,31.116745c7.6670151,0.8163357,13.8789825,6.7032814,15.1053772,14.3161201
			c0.0856628,0.5316277,0.5442276,0.9227905,1.0827789,0.9227905h2.2373657c0.3180923,0,0.6204453-0.1385765,0.8289337-0.3785629
			c0.2084961-0.2406197,0.3023453-0.5593452,0.2569962-0.8742867c-1.4153595-9.8867416-9.3488159-17.4498234-19.292244-18.392767
			c-0.0346451-0.003149-0.0686646-0.0050392-0.103302-0.0050392c-0.2714844,0-0.535408,0.1014118-0.7382355,0.2859707
			c-0.2286453,0.2078629-0.3590317,0.5026512-0.3590317,0.8112965v2.2235088
			C86.1322556,30.5863781,86.555542,31.0575352,87.1136169,31.116745z"/>
		<path class="st0" d="M65.0076599,46.3556557h2.2373657c0.5385513,0,0.9977417-0.3911629,1.0827789-0.9227905
			c1.1923828-7.3993073,6.971611-13.115551,14.3822632-14.2247868c0.5372925-0.0799961,0.9347534-0.5417042,0.9347534-1.0846691
			v-2.2298088c0-0.3162041-0.1366882-0.6166611-0.3747864-0.8251553c-0.2009354-0.1763687-0.4579315-0.2721119-0.7224808-0.2721119
			c-0.0478745,0-0.0963745,0.0031509-0.1448746,0.0100784c-9.5201492,1.2667084-17.1203918,8.7901039-18.4809494,18.2963943
			c-0.0453529,0.3149414,0.0485001,0.633667,0.2569962,0.8742867
			C64.3872147,46.2170792,64.6895599,46.3556557,65.0076599,46.3556557z"/>
		<path class="st0" d="M105.670784,48.8430862h-2.2190933c-0.5656433,0-1.0386887,0.4302139-1.0922318,0.9933357
			c-0.769722,8.0732918-7.1819992,14.5567436-15.245842,15.4159126c-0.558075,0.0598373-0.9813614,0.530365-0.9813614,1.0909653
			v2.2228775c0,0.3086472,0.1303864,0.6034317,0.3590317,0.8113022c0.2028275,0.1845703,0.4661179,0.285965,0.7382355,0.285965
			c0.0346375,0,0.0686569-0.0018921,0.103302-0.0050354c10.3761597-0.9838867,18.5483475-9.2373276,19.4308167-19.6248322
			c0.0264587-0.3061256-0.0774765-0.6091003-0.2847061-0.8352318
			C106.2710724,48.9722137,105.9781723,48.8430862,105.670784,48.8430862z"/>
		<path class="st0" d="M82.4026794,69.5626602c0.0485001,0.0069351,0.0970001,0.0100784,0.1448746,0.0100784
			c0.2645493,0,0.5215454-0.0957413,0.7224808-0.27211c0.2380981-0.2084961,0.3747864-0.5089493,0.3747864-0.8251572v-2.229805
			c0-0.5429611-0.3974609-1.0046768-0.9347534-1.084671c-7.801178-1.1678123-13.7737885-7.469223-14.5233612-15.3252029
			c-0.0541687-0.5624924-0.5265884-0.9927063-1.0922241-0.9927063h-2.2184753c-0.3073807,0-0.6002808,0.1291275-0.8081436,0.3552589
			c-0.2072334,0.2261314-0.3111649,0.5291061-0.2847099,0.8352318
			C64.6322403,60.0267715,72.463028,68.2405243,82.4026794,69.5626602z"/>
	</g>
	<g>
		<g>
			<g>
				<path class="st1" d="M50.3372231,85.8181c0,1.0186005-0.39851,1.8078384-1.1951904,2.3666992
					c-0.7968521,0.5592041-1.918972,0.8386307-3.3661957,0.8386307c-2.6909561,0-4.2506599-0.9350433-4.6791115-2.805809
					l1.4499283-0.289917c0.1672859,0.6637344,0.5224953,1.1508789,1.0659637,1.4617691
					c0.5433006,0.3108902,1.2826424,0.4661713,2.2180252,0.4661713c0.9666748,0,1.7126122-0.1657639,2.2376442-0.4976349
					c0.5252037-0.3315277,0.7877197-0.8190079,0.7877197-1.4617691c0-0.3602829-0.0823746-0.6529007-0.2469559-0.877533
					c-0.1645813-0.2246246-0.3958054-0.410347-0.6935043-0.556488c-0.2978668-0.1464844-0.653244-0.2692871-1.0659637-0.3684082
					c-0.4128876-0.0994568-0.8699226-0.2063599-1.3716125-0.321373c-0.8726273-0.1931686-1.5350075-0.386673-1.9868011-0.5801773
					c-0.4519577-0.1931686-0.8086891-0.4086609-1.0698547-0.6464767c-0.2613297-0.2378235-0.4612617-0.5158997-0.5996246-0.8345718
					c-0.1385307-0.3186722-0.2077141-0.6847076-0.2077141-1.0974274c0-0.9455338,0.3618088-1.6745529,1.0855865-2.1867294
					c0.7236099-0.5118408,1.7594681-0.7679291,3.1075668-0.7679291c1.2540588,0,2.2127838,0.1918106,2.8763466,0.5761108
					c0.6635628,0.3839645,1.1287155,1.0382233,1.3951225,1.9631195l-1.4734383,0.2587967
					c-0.1620407-0.5852509-0.4702301-1.0098038-0.9248962-1.273674c-0.4544983-0.2638702-1.0842323-0.3958054-1.8888626-0.3958054
					c-0.8829498,0-1.5569992,0.1464767-2.0219841,0.4387665c-0.4651527,0.2929611-0.6975632,0.7290268-0.6975632,1.3088608
					c0,0.3399811,0.0901566,0.6207657,0.2704659,0.8426895c0.1801414,0.2222595,0.4401207,0.410347,0.7797699,0.56427
					c0.3396454,0.1542664,1.0162354,0.3437119,2.0299339,0.5683365c0.3396454,0.0781479,0.6779404,0.1579819,1.0148811,0.2388382
					c0.3371086,0.081192,0.6596718,0.1779404,0.9680252,0.2902527c0.3081894,0.1123123,0.59692,0.2442474,0.8660355,0.3958054
					c0.2691116,0.1515579,0.5028725,0.3369446,0.7014503,0.5564957c0.1985779,0.2192154,0.3538551,0.4780045,0.4663391,0.7757034
					C50.2810669,85.0657349,50.3372231,85.4155273,50.3372231,85.8181z"/>
				<path class="st1" d="M59.4393616,84.5873871c0,2.9577026-1.039917,4.4360428-3.1194077,4.4360428
					c-1.306324,0-2.1840248-0.49086-2.6334496-1.4732666h-0.0392418c0.0209732,0.0419464,0.0314598,0.4857864,0.0314598,1.3321991
					v3.3152847H52.267868V82.118515c0-0.8724594-0.0155602-1.4499283-0.0470238-1.7320633h1.3638344
					c0.0050735,0.0209732,0.0130234,0.0953979,0.02351,0.2236099c0.0103188,0.1278763,0.0221596,0.3251038,0.035183,0.5916748
					c0.0130234,0.266243,0.0196228,0.4492569,0.0196228,0.548378h0.0314598
					c0.2506752-0.5223236,0.5825424-0.9049377,0.9952621-1.1481705c0.4127159-0.242897,0.9561882-0.3643417,1.6302376-0.3643417
					c1.0449905,0,1.8261108,0.3501358,2.3435326,1.0503998C59.1807365,81.9879303,59.4393616,83.0880661,59.4393616,84.5873871z
					 M57.9579735,84.6188431c0-1.1806412-0.1593361-2.0246887-0.4780121-2.5314484
					c-0.31884-0.5067673-0.8256035-0.7604904-1.520462-0.7604904c-0.5591965,0-0.9967804,0.1177292-1.3129158,0.3528442
					s-0.5564957,0.6021652-0.7210732,1.1011429c-0.1645813,0.4989853-0.246788,1.1481705-0.246788,1.9475632
					c0,1.1129837,0.1776047,1.9333496,0.5329819,2.4610901c0.3552094,0.5277328,0.9326782,0.7916031,1.7320671,0.7916031
					c0.7000999,0,1.2109222-0.2574387,1.5323029-0.7719879C57.7972832,86.6946182,57.9579735,85.8309555,57.9579735,84.6188431z"/>
				<path class="st1" d="M68.4787445,84.6188431c0,1.4841003-0.326622,2.5889664-0.9796982,3.3152847
					c-0.653244,0.7263184-1.6016541,1.0893021-2.8450546,1.0893021c-1.2383232,0-2.1737061-0.3771973-2.805809-1.1322632
					c-0.6322708-0.7550735-0.9484062-1.8457336-0.9484062-3.2723236c0-2.9259033,1.2669106-4.3890228,3.8012428-4.3890228
					c1.2956619,0,2.2493134,0.3565598,2.860611,1.0696869C68.1730957,82.01297,68.4787445,83.1191864,68.4787445,84.6188431z
					 M66.9973526,84.6188431c0-1.1704941-0.1737137-2.0206299-0.5211411-2.5510712
					c-0.3475952-0.5304489-0.931488-0.7956696-1.7516861-0.7956696c-0.8256035,0-1.4225235,0.2706375-1.7909241,0.8112335
					c-0.3684044,0.5409317-0.5526047,1.3859863-0.5526047,2.5355072c0,1.1180649,0.1814957,1.958046,0.5448227,2.5196152
					c0.3629875,0.5619049,0.9338608,0.8426895,1.7124405,0.8426895c0.8464127,0,1.4512863-0.2716522,1.8144455-0.814949
					C66.8158646,86.6225586,66.9973526,85.7737808,66.9973526,84.6188431z"/>
				<path class="st1" d="M70.3780975,88.866806v-6.5050583c0-0.5957336-0.0157318-1.2540512-0.0470276-1.975296h1.3323746
					c0.0417786,0.9614334,0.0625839,1.5388947,0.0625839,1.7320633h0.0314636
					c0.2246246-0.725975,0.4832535-1.2225952,0.7758789-1.4891663c0.2926178-0.266243,0.7053375-0.3995285,1.2383194-0.3995285
					c0.1880951,0,0.378891,0.0260468,0.5722275,0.0784836v1.2929611c-0.1880951-0.0521011-0.4389343-0.0781479-0.752533-0.0781479
					c-0.5852509,0-1.0319672,0.2520294-1.3401566,0.7560883c-0.3083496,0.5043945-0.4624481,1.2266541-0.4624481,2.1671143
					v4.4204865H70.3780975z"/>
				<path class="st1" d="M79.0646362,88.8042221c-0.4651489,0.1251678-0.9404526,0.1880875-1.4264145,0.1880875
					c-1.1285477,0-1.6929932-0.6400528-1.6929932-1.9201584v-5.6589813h-0.9796982v-1.0267181h1.0346756l0.4154205-1.8964767
					h0.9404602v1.8964767h1.567482v1.0267181h-1.567482v5.3531647c0,0.4076462,0.0666428,0.6935043,0.1997604,0.8582535
					c0.1332855,0.1644135,0.3645096,0.2469559,0.6936722,0.2469559c0.1880951,0,0.4597397-0.0365372,0.8151169-0.1099472V88.8042221
					z"/>
				<path class="st1" d="M80.3684235,78.5840225v-1.3481064h1.4108582v1.3481064H80.3684235z M80.3684235,88.866806v-8.4803543
					h1.4108582v8.4803543H80.3684235z"/>
				<path class="st1" d="M89.4394379,88.866806v-5.3765106c0-0.5591965-0.055481-0.9928894-0.1650848-1.3010788
					c-0.1096115-0.3081818-0.2848434-0.5304413-0.525032-0.6660995c-0.2401886-0.135994-0.5926971-0.2039871-1.0581894-0.2039871
					c-0.6792908,0-1.2144699,0.2327423-1.6062164,0.6975555c-0.3920822,0.4651566-0.5879517,1.1102829-0.5879517,1.936058v4.9140625
					h-1.4108582v-6.6698074c0-0.9874802-0.0157318-1.5909958-0.04702-1.8105469h1.3323669
					c0.0050735,0.0263824,0.0104904,0.0967484,0.015564,0.2117691c0.0054092,0.1150208,0.0118408,0.2469559,0.0196228,0.3958054
					c0.0081177,0.1488495,0.0169144,0.4296341,0.0273972,0.8423538h0.0236816
					c0.3240891-0.5849152,0.6989136-0.999321,1.1244888-1.242218c0.4262543-0.242897,0.9546661-0.3643417,1.5872726-0.3643417
					c0.9296341,0,1.6102829,0.2310562,2.0419464,0.6935043c0.4309845,0.4624481,0.6461411,1.2266541,0.6461411,2.2926178v5.6508636
					H89.4394379z"/>
				<path class="st1" d="M96.3074799,92.1976471c-0.9248962,0-1.6616974-0.1813278-2.2100754-0.5446548
					c-0.5487137-0.3629913-0.9015503-0.8792267-1.0581818-1.547699l1.4184647-0.2039871
					c0.0940475,0.3920822,0.3017578,0.69384,0.6231384,0.9052734c0.3213806,0.2117691,0.7432327,0.3173218,1.2658997,0.3173218
					c1.4056091,0,2.1082458-0.822731,2.1082458-2.4688721v-1.3636627h-0.015564
					c-0.266571,0.5436401-0.6322708,0.952301-1.0974197,1.2266541c-0.4651566,0.2743607-1.008461,0.4113693-1.6302414,0.4113693
					c-1.0395813,0-1.8037872-0.3447266-2.2922821-1.0345078c-0.4888306-0.6897812-0.733078-1.773674-0.733078-3.2526932
					c0-1.499321,0.2628479-2.6058807,0.7878799-3.3190002c0.5250397-0.7131271,1.3230743-1.0700226,2.3944473-1.0700226
					c0.6008072,0,1.1217804,0.1373444,1.5635986,0.4116974c0.4414673,0.2743607,0.782135,0.6647491,1.0226593,1.1715164h0.015564
					c0-0.1566315,0.0104828-0.4282837,0.031456-0.814949c0.0209808-0.386673,0.041954-0.5984421,0.0625839-0.6349792h1.3403244
					c-0.0314636,0.282135-0.04702,0.8673859-0.04702,1.7557449v6.4817123
					C99.8578796,91.0065155,98.6745224,92.1976471,96.3074799,92.1976471z M98.4549713,84.6266251
					c0-0.6897812-0.0940475-1.2838211-0.282135-1.7831421c-0.1880951-0.4986496-0.4533157-0.8802414-0.7956696-1.1441116
					c-0.3420181-0.2638702-0.7300415-0.3958054-1.1637344-0.3958054c-0.7209015,0-1.2462692,0.2611618-1.5754318,0.7838287
					c-0.3291626,0.5223236-0.4935684,1.3687363-0.4935684,2.5392303c0,1.1600113,0.153923,1.9935684,0.4624481,2.5003357
					c0.3081818,0.5067596,0.8359222,0.7601395,1.5832138,0.7601395c0.44384,0,0.8386307-0.1305771,1.1833496-0.3917389
					c0.3447266-0.2615051,0.6112976-0.6363297,0.7993927-1.1248322
					C98.3609238,85.8820343,98.4549713,85.3008499,98.4549713,84.6266251z"/>
				<path class="st1" d="M110.911293,81.1469345c0,1.0449905-0.3406601,1.8758392-1.0226593,2.4922104
					c-0.6820068,0.6167145-1.6082535,0.9248962-2.7784119,0.9248962h-3.2449188v4.3027649h-1.4969482V77.8235321h4.6478195
					c1.2381592,0,2.1968842,0.2902603,2.8761749,0.8700943C110.5716476,79.2734604,110.911293,80.0914612,110.911293,81.1469345z
					 M109.4065628,81.1624985c0-1.42659-0.8569031-2.1397095-2.570694-2.1397095h-2.9705658v4.3575592h3.0331497
					C108.5706406,83.3803482,109.4065628,82.6411819,109.4065628,81.1624985z"/>
				<path class="st1" d="M115.1152725,89.0234299c-0.8518219,0-1.4918747-0.2246246-1.9204941-0.6738815
					c-0.4282837-0.4492493-0.6424255-1.0659637-0.6424255-1.8497849c0-0.8778763,0.2885666-1.5517578,0.8660355-2.0219879
					c0.5771332-0.4702301,1.5087891-0.7212372,2.7939682-0.7523651l1.9045944-0.0314636v-0.4624481
					c0-0.6897812-0.1464767-1.1833496-0.4391022-1.4813843c-0.2926254-0.297699-0.7523651-0.4465485-1.3792267-0.4465485
					c-0.6322708,0-1.0920105,0.1072388-1.3795624,0.3213806c-0.2872086,0.2141342-0.4597397,0.556488-0.5172501,1.0267181
					l-1.4732666-0.1332855c0.2401886-1.5257034,1.3741455-2.288559,3.4015427-2.288559
					c1.0656281,0,1.8677216,0.2442474,2.4059448,0.7327423c0.5382233,0.4885025,0.8071671,1.1951981,0.8071671,2.1200943v3.6522141
					c0,0.4181366,0.0551453,0.7330856,0.1647491,0.944519c0.1096115,0.2117767,0.3186798,0.3173218,0.6268616,0.3173218
					c0.135994,0,0.2902603-0.0182724,0.4624481-0.0548019v0.8778687c-0.3552094,0.0835571-0.7185364,0.1255112-1.0893097,0.1255112
					c-0.5226593,0-0.902565-0.137352-1.1403885-0.411705c-0.2378159-0.2743607-0.3721237-0.7039871-0.4035797-1.289238h-0.0470276
					c-0.3606186,0.6481705-0.7797623,1.1065598-1.25811,1.3755035
					C116.3808289,88.8891296,115.7996368,89.0234299,115.1152725,89.0234299z M115.4363098,87.9655914
					c0.5175934,0,0.9769974-0.1177292,1.3795624-0.3528442c0.4022369-0.2351151,0.7195511-0.5575104,0.952301-0.9678574
					c0.2324066-0.4100113,0.3487778-0.8322067,0.3487778-1.2658997V84.681427l-1.5439682,0.0314636
					c-0.6637344,0.0104904-1.1667786,0.0784836-1.5087967,0.2036514c-0.3423538,0.1255112-0.604866,0.3190155-0.7875443,0.5801773
					c-0.1830215,0.2611618-0.2743607,0.6035156-0.2743607,1.0267181c0,0.4597473,0.1238174,0.8149567,0.3721237,1.0659637
					C114.6227188,87.8400803,114.9765701,87.9655914,115.4363098,87.9655914z"/>
				<path class="st1" d="M122.4065247,92.1976471c-0.386673,0-0.710762-0.0287552-0.9719238-0.0859299v-1.0581818
					c0.1985779,0.0314636,0.4181366,0.04702,0.6583252,0.04702c0.8778687,0,1.5727234-0.645462,2.0848999-1.9360504
					l0.1332932-0.3369446l-3.3623047-8.4411087h1.5047302l1.7868652,4.6870575
					c0.0263901,0.0730743,0.0575104,0.1606903,0.0940475,0.2625198s0.1542664,0.4428253,0.3528442,1.0226593
					c0.1985779,0.5801773,0.3058167,0.9042664,0.321373,0.9719238l0.5487137-1.5439758l1.8572388-5.4001846h1.4891663
					l-3.2604752,8.4803543c-0.3498001,0.9039154-0.67659,1.5764465-0.9796982,2.0182571
					c-0.3027725,0.4414749-0.6387024,0.7706375-1.007103,0.9874802
					C123.2881165,92.0893936,122.8716736,92.1976471,122.4065247,92.1976471z"/>
			</g>
		</g>
		<path class="st1" d="M90.6244812,52.1549759c0,1.3091965-0.5114975,2.3232346-1.5358505,3.0415993
			c-1.0236816,0.7185364-2.4654922,1.0776367-4.325264,1.0776367c-3.4580383,0-5.4622574-1.2017899-6.0128326-3.6055374
			l1.8633194-0.3727989c0.2148209,0.8528366,0.6713486,1.4790192,1.3697586,1.878376
			c0.6982346,0.3995247,1.6481628,0.5992889,2.8501205,0.5992889c1.2420502,0,2.2007751-0.2131271,2.8753281-0.6395454
			c0.6745605-0.4262505,1.0121765-1.052433,1.0121765-1.878376c0-0.463295-0.105545-0.839138-0.3173141-1.1280441
			c-0.2117767-0.2885628-0.5087967-0.5268898-0.8910675-0.7149811c-0.3829498-0.1879234-0.8396454-0.3457375-1.3700943-0.4734459
			c-0.5304413-0.1273651-1.1175537-0.2650528-1.7621689-0.4128876c-1.1214447-0.2483063-1.9724274-0.4967842-2.5531082-0.7452583
			c-0.5808487-0.2483101-1.0390701-0.5253716-1.3748245-0.8308525c-0.3357544-0.3054771-0.5925217-0.6630554-0.770462-1.072731
			c-0.177948-0.4093323-0.2669144-0.8793945-0.2669144-1.4100075c0-1.2151527,0.4649811-2.1517181,1.3949509-2.8098679
			c0.9298019-0.6579819,2.2609863-0.9869728,3.9930573-0.9869728c1.6114578,0,2.8435287,0.2466164,3.6960297,0.7401848
			c0.8531723,0.4935722,1.4505997,1.3345718,1.7929535,2.5229988l-1.8930893,0.3322029
			c-0.2083893-0.7518578-0.6048737-1.2973557-1.1887665-1.6364975c-0.5838928-0.3389702-1.3930969-0.508625-2.4267502-0.508625
			c-1.1349792,0-2.0011826,0.1880913-2.5986023,0.5639381c-0.5977707,0.3761826-0.8964844,0.9367332-0.8964844,1.6819954
			c0,0.4365692,0.1158676,0.7973595,0.3475952,1.0827103c0.2315674,0.2853508,0.5654602,0.5270615,1.0020294,0.725132
			c0.4364014,0.1980743,1.3058167,0.4414749,2.608078,0.7302094c0.4364014,0.1006432,0.8714447,0.2031441,1.3044586,0.3071709
			c0.4330215,0.1041946,0.8477707,0.2283478,1.2435684,0.3726311c0.3964844,0.1444511,0.7672501,0.3139343,1.1129913,0.508625
			c0.3457336,0.1948547,0.6461411,0.4330139,0.9018936,0.7149849c0.2550735,0.282135,0.4546661,0.6143417,0.5987778,0.9971199
			C90.5527649,51.1881294,90.6244812,51.6380615,90.6244812,52.1549759z"/>
		<g>
			<path class="st1" d="M103.3015366,45.2584076h2.2375412c-1.3294296-9.2876701-8.8881836-16.5626793-18.3096542-17.4558811
				v2.2231197C95.4275589,30.8987827,102.0026627,37.1950035,103.3015366,45.2584076z"/>
			<path class="st1" d="M65.0076599,45.2584076h2.2375412c1.257988-7.8095131,7.4648132-13.9620457,15.3024902-15.1349735
				v-2.2301388C73.4868927,29.0992699,66.3006363,36.2253914,65.0076599,45.2584076z"/>
			<path class="st1" d="M103.4519958,49.9401436c-0.8222885,8.6182899-7.6316605,15.4882164-16.2225723,16.4031944v2.2231216
				c9.8136749-0.9303894,17.6047592-8.7855339,18.4411469-18.6263161H103.4519958z"/>
			<path class="st1" d="M67.0947418,49.9401436h-2.2185745c0.8143768,9.5817528,8.2229156,17.2779579,17.671524,18.5355492
				v-2.2301407C74.3223114,65.0146027,67.8923111,58.2994919,67.0947418,49.9401436z"/>
		</g>
	</g>
</g>
</svg>
