<?xml version="1.0" encoding="utf-8"?>
<!-- Generator: Adobe Illustrator 25.3.0, SVG Export Plug-In . SVG Version: 6.00 Build 0)  -->
<svg version="1.1" id="Layer_1" xmlns="http://www.w3.org/2000/svg" xmlns:xlink="http://www.w3.org/1999/xlink" x="0px" y="0px"
	 viewBox="0 0 750.2 400.1" style="enable-background:new 0 0 750.2 400.1;" xml:space="preserve">
<g>
	<path d="M288.4,122.6c-1.6-7-3.3-14.5-6-21.9l-54.9,8.6c-1.5,15.8-0.9,32.3,0,44.5l67.2-10.6C291.9,137.8,290.2,130.5,288.4,122.6z
		"/>
	<path d="M181.5,109.7l-59.2-9.4c-2.8,7.5-4.5,15.1-6.1,22.1c-1.8,7.9-3.4,15-6.1,20.4l71.3,11.3C182.3,142,182.9,125.6,181.5,109.7
		z"/>
	<path d="M220,110.4l-16.9,2.7l-14.2-2.2c2.1,16.2,2.1,32.8,1.6,44.7l12.6,2l15.2-2.4C217.9,143.2,217.9,126.6,220,110.4z"/>
</g>
</svg>
