<?xml version="1.0" encoding="utf-8"?>
<!-- Generator: Adobe Illustrator 25.3.0, SVG Export Plug-In . SVG Version: 6.00 Build 0)  -->
<svg version="1.1" id="Layer_1" xmlns="http://www.w3.org/2000/svg" xmlns:xlink="http://www.w3.org/1999/xlink" x="0px" y="0px"
	 viewBox="0 0 750.2 400.1" style="enable-background:new 0 0 750.2 400.1;" xml:space="preserve">
<g>
	<path d="M667.7,370.6c-2.8-40.7-14.8-215-15.5-220.3c-0.5-3.4-7-6.3-12.4-8.1c1.4,2.8,3.1,5.2,5.3,6.9l0.2,0.1l0.4,21
		c0.4,0.1,0.9,0.5,0.9,0.9l13.7,199.5L667.7,370.6L667.7,370.6z"/>
	<path d="M451.2,143.8c-4.1,1.7-7.9,4-8.2,6.6c-0.7,5.2-12.8,180.4-15.5,220.6h8l0.2,0.1l12.1-199.9V171l-1.3-21.5l0.2-0.2
		C448.5,147.9,450,146,451.2,143.8z"/>
	<path d="M452.4,177.5l1.8,176.4h0.1c3.4,0.2,7.1,0.8,10.9,1.7C458.7,317.3,455.1,253.3,452.4,177.5z"/>
	<path d="M627.5,354.6c1.7-0.2,3.4-0.4,5.1-0.5c1.8-0.1,3.3-0.2,4.6-0.3l2.4-162.6C637,260.4,633.5,318.6,627.5,354.6z"/>
	<path d="M452.4,177l-0.3-33.1c-1.3,2.3-2.8,4.3-4.7,5.7l1.2,19.7l-0.8,183.9c0.1,0,0.3,0.1,0.6,0.1c0.9,0.1,2.6,0.3,5.8,0.5
		l-1.8-176.4L452.4,177z"/>
	<path d="M637.2,353.8c3.8-0.3,5.3-0.5,5.8-0.6l0.2-159.5l0.2-1c1.1-21.7,1.2-21.9,1.4-22.1l-0.4-20.9c-1-0.8-1.9-1.7-2.8-2.8
		l-1.7,25l-0.2,16.3v3L637.2,353.8z"/>
	<path d="M104,149.3c2.9-2.2,4.9-5.7,6.6-9.9c-5.5,1.8-12.6,4.8-13.2,8.4c-0.8,5.4-13.3,188.5-15.7,223.1H90l0.3-0.2l12.1-199.6
		c0-0.2,0.1-0.4,0.3-0.6l1.4-21v-0.2H104z"/>
	<path d="M110.9,190.6v163.3c1.4,0.1,3,0.2,4.8,0.3c1.8,0.1,3.8,0.2,6,0.3C116.4,315.8,113.3,257.9,110.9,190.6z"/>
	<path d="M283.5,354.5c3.9-0.2,7.3-0.4,10-0.6V210.7C291.3,269.4,288.2,319.7,283.5,354.5z"/>
	<path d="M293.6,353.9c1.5-0.1,2.7-0.2,3.7-0.2c1.2-0.1,2.1-0.1,2.6-0.2l0.2-106.8c0.1,0,0.2,0,0.3,0.1v-4.6l0.2-71.3
		c0-0.4,0.2-0.7,0.6-0.9l-1.4-20.2c-2.7-2.1-4.6-5.2-6.2-8.9v66.3v3.4L293.6,353.9L293.6,353.9z"/>
	<path d="M110.9,190.2v-49.1c-1.6,3.6-3.5,6.6-6.1,8.7l-1.4,20.2c0.2,0,0.3,0.1,0.5,0.2c0.2,0.2,0.3,0.5,0.3,0.8l0.1,76.5l0.3,0.1
		l0.1,105.9c0.5,0,1.4,0.1,2.6,0.2c1,0,2.2,0.1,3.6,0.2V190.6V190.2z"/>
	<path d="M300.5,149.3l0.2,0.1l1.4,20.7c0.2,0.1,0.3,0.3,0.4,0.5l0.1,0.1c0.1,0.1,0.1,0.2,0.1,0.4l12,199.8h8.2
		c-2.8-40.1-14.8-215.3-15.5-220.6c-0.5-3.4-6.9-6.3-12.2-8.1C296.6,145.2,298.3,147.6,300.5,149.3z"/>
</g>
</svg>
