<?xml version="1.0" encoding="utf-8"?>
<!-- Generator: Adobe Illustrator 25.3.0, SVG Export Plug-In . SVG Version: 6.00 Build 0)  -->
<svg version="1.1" id="Layer_1" xmlns="http://www.w3.org/2000/svg" xmlns:xlink="http://www.w3.org/1999/xlink" x="0px" y="0px"
	 viewBox="0 0 750.2 400.1" style="enable-background:new 0 0 750.2 400.1;" xml:space="preserve">

<g>
	<path class="st0" d="M218.1,148.7c-0.2-11.3,0.2-25.3,2-39h-31.4c1.8,13.7,2.2,27.7,2,39H218.1z"/>
	<path class="st0" d="M227.1,148.7h71.5c-5.4-5.2-7.7-15-10.2-26.1c-1-4.1-2-8.5-3.2-12.9h-57.8
		C226.1,123.3,226.4,137.4,227.1,148.7z"/>
	<path class="st0" d="M181.5,109.7h-62.2c-1.2,4.4-2.2,8.6-3.1,12.7c-2.5,11.2-4.8,20.9-10.2,26.3h75.8
		C182.5,137.4,182.7,123.3,181.5,109.7z"/>
</g>
</svg>
