<?xml version="1.0" encoding="utf-8"?>
<!-- Generator: Adobe Illustrator 25.3.0, SVG Export Plug-In . SVG Version: 6.00 Build 0)  -->
<svg version="1.1" id="Layer_1" xmlns="http://www.w3.org/2000/svg" xmlns:xlink="http://www.w3.org/1999/xlink" x="0px" y="0px"
	 viewBox="0 0 750.2 400.1" style="enable-background:new 0 0 750.2 400.1;" xml:space="preserve">
<g>
	<polygon points="543,152.3 543.8,153.1 572,124.9 568.6,124.9 543.8,149.7 519,124.9 515.6,124.9 	"/>
	<polygon points="543,185.1 543.8,185.9 604.8,124.9 601.5,124.9 543.9,182.7 489,127.8 489,131.1 	"/>
	<polygon points="544,212.6 489,157.6 489,160.9 543.2,215.1 544,215.9 606.3,153.6 606.3,150.2 	"/>
	<polygon points="489,187.4 489,190.8 543.3,245.1 544.1,245.9 606.3,183.7 606.3,180.3 544.1,242.6 	"/>
	<polygon points="518.6,246.9 489,217.3 489,220.7 515.2,246.9 	"/>
	<polygon points="570,246.9 573.2,246.9 606.3,213.8 606.3,210.5 	"/>
	<polygon points="489,246.3 489,246.9 489.6,246.9 	"/>
	<polygon points="599,246.9 602.3,246.9 606.3,242.9 606.3,239.6 	"/>
	<polygon points="542.8,136.9 543.7,137.7 556.5,124.9 553.2,124.9 543.7,134.4 534.2,124.9 530.8,124.9 	"/>
	<polygon points="543,166.9 543.8,167.7 586.6,124.9 583.2,124.9 543.7,164.4 504.2,124.9 501,124.9 	"/>
	<polygon points="543.1,199.9 543.9,200.7 606.3,138.3 606.3,134.9 543.8,197.4 489,142.5 489,145.8 	"/>
	<polygon points="544,227.3 489,172.3 489,175.7 543.2,229.9 544,230.7 606.3,168.4 606.3,165 	"/>
	<polygon points="557.8,246.9 606.3,198.4 606.3,195 554.4,246.9 	"/>
	<polygon points="489,205.5 530.4,246.9 533.6,246.9 489,202.2 	"/>
	<polygon points="501.8,246.9 489,234.1 489,237.4 498.5,246.9 	"/>
	<polygon points="586.5,246.9 589.9,246.9 606.3,230.5 606.3,227.1 	"/>
</g>
</svg>
