<?xml version="1.0" encoding="utf-8"?>
<!-- Generator: Adobe Illustrator 25.3.0, SVG Export Plug-In . SVG Version: 6.00 Build 0)  -->
<svg version="1.1" id="Layer_1" xmlns="http://www.w3.org/2000/svg" xmlns:xlink="http://www.w3.org/1999/xlink" x="0px" y="0px"
	 viewBox="0 0 170 120" style="enable-background:new 0 0 170 120;" xml:space="preserve">
<style type="text/css">
	.st0{fill:#FFFFFF;}
</style>
<g>
	<g>
		<path class="st0" d="M41.15453,65.59686c0.13599-0.41455,0.24634-0.84027,0.35248-1.26746
			c0.04492-0.18091,0.09949-0.35742,0.13892-0.54041c0.09576-0.44446,0.16156-0.89935,0.22375-1.35535
			c0.02356-0.17291,0.06006-0.34131,0.07867-0.51569c0.06714-0.62982,0.10468-1.26862,0.10474-1.91638
			c0-0.00049,0.00006-0.00098,0.00006-0.00146v-0.00006c0-0.00092-0.00012-0.00177-0.00012-0.00269
			c-0.00012-0.60651-0.03198-1.20538-0.09076-1.79633c-0.02118-0.21277-0.06323-0.41876-0.0918-0.62933
			c-0.0506-0.37378-0.09698-0.74884-0.17017-1.11493c-0.05133-0.25641-0.12372-0.50464-0.18579-0.75702
			c-0.07623-0.31-0.14594-0.62231-0.23804-0.92572c-0.08282-0.27301-0.18524-0.53699-0.28058-0.80432
			c-0.0965-0.27063-0.18689-0.54376-0.29584-0.80823c-0.11481-0.27881-0.24713-0.54803-0.37537-0.81958
			c-0.11322-0.23981-0.2215-0.48199-0.34485-0.71588c-0.14587-0.27649-0.30713-0.54315-0.46667-0.81085
			c-0.1283-0.21527-0.25293-0.43219-0.38977-0.64154c-0.17474-0.26715-0.36279-0.52448-0.55109-0.78156
			c-0.14301-0.19531-0.28369-0.39154-0.43427-0.58075c-0.2002-0.25159-0.41174-0.49335-0.62482-0.7337
			c-0.1026-0.11572-0.19531-0.24017-0.30078-0.35321c0.00262,0.00916,0.0036,0.01984,0.00616,0.02905
			c0.41418,1.47681,0.47406,3.2746,0.15259,5.32678c-0.25037,1.59802-0.72186,3.27979-1.38367,4.98901
			c1.09991,1.28906,2.03137,2.61023,2.75757,3.92834c1.09503,1.98755,1.65466,3.84143,1.67505,5.46222
			c0.00012,0.008,0.0022,0.01685,0.00226,0.02484c0.02466-0.05383,0.0415-0.11169,0.06567-0.16583
			c0.17511-0.39252,0.32892-0.79614,0.47638-1.20276C41.02739,65.94257,41.09679,65.77283,41.15453,65.59686z"/>
		<path class="st0" d="M16.18657,54.44727c1.47089-2.1004,3.1051-3.99194,4.81494-5.59668
			c-2.28577-0.81317-4.44141-1.2392-6.29254-1.2392c-2.38184,0-4.26227,0.6958-5.27966,2.14929
			c-1.26929,1.81256-0.99402,4.57898,0.77539,7.79016c0.62524,1.13477,1.41278,2.27313,2.33215,3.39136
			C13.44914,58.81238,14.66997,56.6134,16.18657,54.44727z"/>
		<path class="st0" d="M32.05589,63.065c-1.82837,1.04413-4.22461,1.88312-6.94244,2.34082
			c-1.38519,0.2334-2.75262,0.34918-4.04919,0.34918c-1.49969,0-2.90448-0.15582-4.13257-0.46545
			c0.71356,0.58478,1.45996,1.1524,2.23743,1.69678c2.15363,1.508,4.39105,2.73962,6.5871,3.64508
			c1.81281-1.61316,3.58856-3.59381,5.17493-5.85962C31.32591,64.20795,31.69969,63.63806,32.05589,63.065z"/>
		<path class="st0" d="M14.11729,64.05316c-0.38208-0.28278-0.69299-0.59564-0.92859-0.9353
			c-0.02441-0.02563-0.04755-0.05164-0.07172-0.07733c-1.83466,5.17651-1.69806,9.72107,0.78851,11.46283
			c2.48694,1.74091,6.80438,0.315,11.04132-3.17926c-2.11749-0.91223-4.2605-2.1123-6.32397-3.55725
			C16.97868,66.61554,15.46562,65.36298,14.11729,64.05316z"/>
		<path class="st0" d="M35.66997,59.17621c-0.14447,0.61865-0.48651,1.23297-0.99329,1.82428
			c-0.76874,1.51526-1.67426,3.02783-2.70483,4.5c-1.51733,2.16644-3.16675,4.0647-4.85663,5.65051
			c1.36554,0.48175,2.70477,0.83252,3.98535,1.03192c3.62213,0.56445,6.31641-0.12274,7.58575-1.9353
			c1.26935-1.81219,0.99402-4.57904-0.77533-7.79065C37.30632,61.35956,36.55034,60.25879,35.66997,59.17621z"/>
		<path class="st0" d="M30.95403,73.12421c-1.48846-0.23199-3.05035-0.65631-4.63953-1.25012
			c-3.25385,2.84265-6.60187,4.50403-9.40833,4.64368c-0.00232,0.00012-0.00476,0.00067-0.00708,0.00079
			c0.01294,0.00562,0.02686,0.0094,0.03979,0.01495c0.4306,0.18561,0.875,0.34399,1.32208,0.49634
			c0.11914,0.04059,0.23328,0.09125,0.35352,0.12939c0.44818,0.14221,0.909,0.2547,1.37158,0.36206
			c0.12903,0.02991,0.2533,0.07141,0.38336,0.09857c0.4632,0.09668,0.93762,0.16125,1.41321,0.2215
			c0.13593,0.01721,0.26752,0.04761,0.40436,0.06177C22.80046,77.96661,23.4229,78,24.05315,78
			c0.61871,0,1.23004-0.03162,1.83264-0.09259c0.2439-0.02472,0.47955-0.07483,0.7204-0.10913
			c0.35352-0.05042,0.71033-0.0907,1.05688-0.16132c0.31696-0.06458,0.62292-0.15717,0.93353-0.23816
			c0.26031-0.06793,0.52612-0.12189,0.78174-0.20099c0.34955-0.10822,0.68616-0.24402,1.02625-0.37262
			c0.20483-0.07745,0.41608-0.1413,0.61725-0.22595c0.36884-0.15515,0.72308-0.33679,1.07892-0.51532
			c0.16016-0.08032,0.32721-0.1485,0.48456-0.2334c0.36603-0.19757,0.71582-0.42004,1.06604-0.64166
			c0.13538-0.08569,0.27802-0.16052,0.41089-0.24963c0.34698-0.23273,0.67627-0.48865,1.00562-0.74426
			c0.12347-0.09589,0.25464-0.18188,0.37555-0.28082c0.31763-0.26001,0.61615-0.5415,0.91516-0.8222
			c0.11145-0.10468,0.23242-0.1991,0.34119-0.30652c-0.00189,0.00067-0.00403,0.0011-0.00592,0.00177
			c-0.94629,0.33752-2.03986,0.51929-3.27588,0.51929C32.64647,73.32648,31.82359,73.25952,30.95403,73.12421z"/>
		<path class="st0" d="M12.13072,61.94165c-1.10101-1.28998-2.03345-2.61206-2.76019-3.93097
			c-1.10175-1.99982-1.66034-3.86365-1.67419-5.49164c-0.00006-0.00842-0.0022-0.01776-0.00226-0.02618
			c-0.02637,0.05737-0.04443,0.11902-0.07025,0.1767c-0.17395,0.38916-0.32703,0.78906-0.47382,1.19214
			c-0.06476,0.17792-0.13568,0.35236-0.19501,0.5329c-0.13538,0.41211-0.24554,0.83521-0.35144,1.25977
			c-0.0459,0.18408-0.10132,0.36383-0.14148,0.55011c-0.0957,0.4436-0.16174,0.89771-0.224,1.35284
			c-0.02393,0.1748-0.06073,0.34509-0.07959,0.52142c-0.06744,0.63147-0.10529,1.27185-0.10529,1.92133v0.00006
			c0,0.61023,0.03192,1.21283,0.09131,1.80737c0.02228,0.22278,0.06683,0.43842,0.09717,0.65875
			c0.05042,0.36627,0.09467,0.7345,0.16687,1.09338c0.05499,0.27362,0.13318,0.53827,0.20044,0.80719
			c0.07373,0.29474,0.13861,0.59283,0.22668,0.88159c0.09039,0.29639,0.20276,0.58252,0.30786,0.87219
			c0.09033,0.24902,0.172,0.50183,0.27289,0.74561c0.12671,0.30609,0.27368,0.60107,0.41656,0.89838
			c0.10284,0.21417,0.19812,0.43231,0.30908,0.64166c0.1618,0.30518,0.34204,0.59839,0.52051,0.89276
			c0.11407,0.18817,0.2218,0.38013,0.34247,0.56372c0.19415,0.29529,0.40491,0.57806,0.6156,0.86096
			c0.12549,0.16852,0.24597,0.34052,0.3772,0.50446c0.22156,0.27692,0.45795,0.54089,0.69519,0.80414
			c0.10229,0.11346,0.19464,0.2359,0.29974,0.34674c-0.00226-0.00732-0.0033-0.01569-0.00555-0.02301
			C10.16399,69.67126,10.57414,65.96588,12.13072,61.94165z"/>
		<path class="st0" d="M21.8098,48.12c1.37543-1.20123,2.78979-2.21533,4.20087-2.99457
			c1.83795-1.0144,3.56543-1.57532,5.10724-1.68274c0.00104-0.00006,0.00214-0.00037,0.00317-0.00043
			c-0.0058-0.00244-0.01196-0.00415-0.01776-0.00659c-0.42236-0.17999-0.85895-0.33179-1.29712-0.4798
			c-0.12317-0.04156-0.24072-0.0946-0.36505-0.13361c-0.43799-0.13733-0.88885-0.24445-1.34052-0.34851
			c-0.13367-0.03082-0.26233-0.07434-0.39716-0.10211c-0.44476-0.0918-0.9007-0.15118-1.35675-0.20947
			c-0.14899-0.01898-0.29321-0.05231-0.4433-0.06763c-0.57361-0.05872-1.15643-0.08569-1.74475-0.08917
			C24.12309,42.00519,24.08879,42,24.05315,42c-0.61823,0-1.229,0.03162-1.83118,0.09253
			c-0.23096,0.02338-0.45416,0.07123-0.68243,0.10321c-0.36615,0.05139-0.73517,0.09393-1.09387,0.16699
			c-0.30463,0.06207-0.59863,0.15137-0.89746,0.22864c-0.27173,0.07025-0.54871,0.12714-0.81531,0.20959
			c-0.34161,0.10565-0.67047,0.23853-1.00305,0.36365c-0.2121,0.07983-0.43048,0.14624-0.63867,0.23376
			c-0.35938,0.151-0.70447,0.32806-1.05157,0.50134c-0.16888,0.08429-0.34467,0.15656-0.51044,0.24591
			c-0.35925,0.19366-0.70245,0.41193-1.04645,0.62872c-0.14142,0.08911-0.28986,0.16748-0.42859,0.26038
			c-0.3432,0.22992-0.66913,0.48267-0.99512,0.73499c-0.12671,0.09802-0.2608,0.18646-0.38483,0.28778
			c-0.31494,0.25745-0.61121,0.53595-0.9079,0.81378c-0.1123,0.1051-0.23401,0.20001-0.34357,0.30792
			c0.0022-0.00079,0.0047-0.00116,0.0069-0.00195C14.0432,46.24091,17.7542,46.591,21.8098,48.12z"/>
		<path class="st0" d="M33.41643,55.40259c0.72705,0.36938,1.30963,0.81689,1.70941,1.336
			c0.46021-1.32068,0.79651-2.61548,0.99066-3.85449c0.55841-3.56555-0.10327-6.20752-1.86359-7.4397
			c-0.72131-0.50519-1.60211-0.75629-2.60779-0.75629c-1.44873,0-3.15588,0.5199-5.02075,1.54938
			c-1.16724,0.64435-2.33868,1.46106-3.48816,2.41809c2.08496,0.90192,4.23639,2.10059,6.35706,3.58539
			C30.90465,53.22943,32.21892,54.29297,33.41643,55.40259z"/>
		<path class="st0" d="M17.22734,55.17596c-0.45349,0.64758-0.87714,1.30212-1.27594,1.95892
			c1.94128-1.18799,4.521-2.09894,7.33606-2.57306c2.89728-0.48743,5.5921-0.44635,7.73053,0.02051
			c-0.66296-0.5368-1.35382-1.05865-2.07104-1.56085c-2.20178-1.54163-4.45502-2.77118-6.62244-3.66632
			C20.51573,50.98291,18.78014,52.95789,17.22734,55.17596z"/>
		<path class="st0" d="M27.22252,55.50568c-1.22998,0-2.50366,0.10291-3.72418,0.30859
			c-2.82214,0.47498-5.38458,1.40027-7.21582,2.60522c-1.6557,1.08954-2.50842,2.28973-2.33899,3.29285
			c0.16858,1.00269,1.367,1.85712,3.28809,2.34332c2.12421,0.53894,4.84833,0.57263,7.67096,0.09766
			c3.44904-0.58069,7.03058-2.07434,8.66577-3.77209c0.33051-0.65356,0.63232-1.30664,0.90686-1.95667
			c-0.00378-0.05603-0.00714-0.11212-0.01654-0.16797C34.14793,56.4176,30.88054,55.50568,27.22252,55.50568z"/>
	</g>
	<path class="st0" d="M56.89175,51.90716c-0.31205-0.89153-0.75781-1.24809-1.58243-1.24809c-0.75781,0-1.315,0.49081-1.315,1.13693
		c0,0.71318,0.57948,1.20325,2.1619,1.85038c0.62405,0.24434,1.00295,0.40066,1.09209,0.44571
		c0.40119,0.15525,0.80238,0.37864,1.2258,0.64612c1.33728,0.89147,2.09505,2.25077,2.09505,3.78836
		c0,2.76361-2.29562,4.79206-5.41589,4.79206c-2.2287,0-3.78885-0.98066-5.0815-3.23144l2.71904-1.78299
		c0.62404,1.24809,1.42643,1.87214,2.42938,1.87214c0.93604,0,1.67157-0.71319,1.67157-1.62673
		c0-0.71318-0.51262-1.22607-1.89447-1.89523c-0.73547-0.33353-1.13667-0.5349-1.20352-0.55692
		c-0.42348-0.22232-0.86918-0.4898-1.29266-0.82435c-1.20352-0.93663-1.80528-2.07249-1.80528-3.38797
		c0-2.36246,1.93899-4.03376,4.68036-4.03376c2.02813,0,3.40999,0.80233,4.21232,2.42905L56.89175,51.90716z"/>
	<path class="st0" d="M68.93356,63.31863c-4.50208,0-7.95665-3.3877-7.95665-7.77809c0-4.34657,3.43228-7.68916,7.88979-7.68916
		c4.47974,0,7.95638,3.3877,7.95638,7.75629C76.82307,59.97604,73.41335,63.31863,68.93356,63.31863z M68.88898,50.99362
		c-2.51852,0-4.4798,1.98362-4.4798,4.52491c0,2.58532,2.02813,4.65781,4.52437,4.65781c2.47389,0,4.43517-2.0284,4.43517-4.61378
		C73.36872,52.95522,71.45201,50.99362,68.88898,50.99362z"/>
	<path class="st0" d="M91.34194,55.76291c0,2.76366-0.2895,3.85651-1.44845,5.21581
		c-1.2701,1.47041-3.18735,2.33991-5.28185,2.33991c-2.09558,0-3.98974-0.84641-5.30495-2.38502
		c-1.22559-1.40334-1.51556-2.42911-1.51556-5.19271v-7.60008h3.4994v7.53295c0,1.64977,0.11169,2.2518,0.62405,3.00907
		c0.62405,0.9586,1.58215,1.4935,2.67452,1.4935c1.11437,0,2.09499-0.5349,2.69701-1.4935
		c0.51235-0.78036,0.57899-1.18097,0.57899-3.07517v-7.46685h3.47685v7.62209H91.34194z"/>
	<path class="st0" d="M103.70545,51.39481h-3.96718v11.61231h-3.52142V51.39481h-4.0343v-3.25399h11.5229
		C103.70544,48.14082,103.70544,51.39481,103.70545,51.39481z"/>
	<path class="st0" d="M117.20542,63.00712h-3.49892v-6.32965h-5.54934v6.32965h-3.4994v-14.8663h3.4994v5.43845h5.54934v-5.43845
		h3.49892V63.00712z"/>
	<path class="st0" d="M140.07869,63.00712h-3.90005l-3.74432-5.61646h-0.66862v5.61646h-3.45483v-14.8663h3.67775
		c2.45161,0,3.32106,0.22291,4.54665,1.09182c1.0472,0.78036,1.6713,2.05047,1.6713,3.43281
		c0,1.69412-0.80238,2.98625-2.45113,3.9449L140.07869,63.00712z M131.76569,54.42563h0.46779
		c1.78299,0,2.58537-0.55692,2.58537-1.78273c0-0.60149-0.26747-1.11438-0.75728-1.40382
		c-0.40167-0.26748-0.69116-0.31259-1.62726-0.31259h-0.66862V54.42563z"/>
	<path class="st0" d="M160.26959,51.90716c-0.31253-0.89153-0.7583-1.24809-1.5827-1.24809
		c-0.75775,0-1.31522,0.49081-1.31522,1.13693c0,0.71318,0.58002,1.20325,2.16217,1.85038
		c0.62405,0.24434,1.00317,0.40066,1.09236,0.44571c0.40067,0.15525,0.80234,0.37864,1.22554,0.64612
		c1.33723,0.89147,2.09505,2.25077,2.09505,3.78836c0,2.76361-2.29588,4.79206-5.41617,4.79206
		c-2.22874,0-3.78836-0.98066-5.08156-3.23144l2.71964-1.78299c0.62405,1.24809,1.42638,1.87214,2.42905,1.87214
		c0.9361,0,1.67184-0.71319,1.67184-1.62673c0-0.71318-0.51289-1.22607-1.8947-1.89523
		c-0.73573-0.33353-1.13638-0.5349-1.20351-0.55692c-0.42375-0.22232-0.86951-0.4898-1.29272-0.82435
		c-1.20352-0.93663-1.80554-2.07249-1.80554-3.38797c0-2.36246,1.93932-4.03376,4.68089-4.03376
		c2.02792,0,3.40973,0.80233,4.21211,2.42905L160.26959,51.90716z"/>
	<polygon class="st0" points="127.37057,59.95295 121.82339,59.95295 121.82339,56.58833 126.37005,56.58833 126.37005,53.60128 
		121.82339,53.60128 121.82339,51.08276 127.37057,51.08276 127.37057,48.14082 118.27941,48.14082 118.27941,63.00712 
		127.37057,63.00712 	"/>
	<polygon class="st0" points="149.12898,48.14082 149.12898,57.23439 142.15327,48.14082 138.98842,48.14082 138.98842,59.69492 
		141.22716,63.00712 142.48782,63.00712 142.48782,54.02497 149.46353,63.00712 152.62837,63.00712 152.62837,48.14082 	"/>
	<g>
		<g>
			<path class="st0" d="M53.37188,68.44135h-2.08847v1.37711h1.77225v0.40826h-1.77225v1.79192h2.16084v0.40852h-2.62862v-4.39405
				h2.55625V68.44135z"/>
			<path class="st0" d="M55.97295,72.42714h-0.435l-1.69307-4.39405h0.48771l1.42955,3.80775l1.35036-3.80775h0.4877
				L55.97295,72.42714z"/>
			<path class="st0" d="M60.86625,68.44135h-2.08847v1.37711h1.77225v0.40826h-1.77225v1.79192h2.16084v0.40852h-2.62862v-4.39405
				h2.55625V68.44135z"/>
			<path class="st0" d="M64.52141,72.42714h-0.56007l-1.23184-1.91698h-0.54041v1.91698h-0.46751v-4.39405h0.4544
				c0.2504,0,0.42818,0,0.55352,0.00656c0.15811,0,0.32277,0.01966,0.47433,0.0527c0.53359,0.11197,0.89595,0.59285,0.89595,1.19225
				c0,0.3296-0.1054,0.63926-0.29655,0.8367c-0.15156,0.16467-0.27007,0.23074-0.57974,0.31622L64.52141,72.42714z
				 M62.18908,70.10163h0.36237h0.08574c0.12507-0.00655,0.23048-0.00655,0.32277-0.01993
				c0.42818-0.03933,0.6917-0.34899,0.6917-0.80366c0-0.2963-0.11196-0.55325-0.31622-0.6917
				c-0.17122-0.11197-0.33588-0.145-0.86948-0.145h-0.27689v1.66028H62.18908z"/>
			<path class="st0" d="M66.61092,70.32556v2.10158h-0.46095v-2.10158l-1.51529-2.29247h0.494l1.25177,1.91044l1.20562-1.91044
				h0.494L66.61092,70.32556z"/>
			<path class="st0" d="M71.67594,68.42824h-1.39021v3.9989h-0.46751v-3.9989h-1.39021v-0.39515h3.24794
				C71.67594,68.03309,71.67594,68.42824,71.67594,68.42824z"/>
			<path class="st0" d="M75.75903,72.42714h-0.46122v-2.20699H72.88v2.20699h-0.46778v-4.39405H72.88v1.77855h2.4178v-1.77855
				h0.46122V72.42714z"/>
			<path class="st0" d="M77.33201,72.42714h-0.46123v-4.39405H77.332C77.33201,68.03309,77.33201,72.42714,77.33201,72.42714z"/>
			<path class="st0" d="M82.05511,72.42714h-0.50737l-2.67476-3.67613v3.67612h-0.46751v-4.39405h0.5071l2.68132,3.6562v-3.6562
				h0.46122C82.05512,68.03307,82.05512,72.42714,82.05511,72.42714z"/>
			<path class="st0" d="M86.53307,68.7906c-0.10541-0.06581-0.18459-0.11852-0.24385-0.145
				c-0.33588-0.18433-0.68514-0.27663-1.04725-0.27663c-1.01474,0-1.77881,0.7971-1.77881,1.85117
				c0,1.04751,0.77063,1.85773,1.76543,1.85773c0.3427,0,0.61933-0.07236,0.94866-0.23704v-1.30447h-0.85636v-0.38859h1.28455
				v1.97625c-0.08548,0.04615-0.14474,0.07919-0.19089,0.09885c-0.37548,0.18459-0.80392,0.27663-1.22555,0.27663
				c-0.68488,0-1.2384-0.24359-1.64037-0.72448c-0.34244-0.40852-0.55325-1.00792-0.55325-1.5811
				c0-1.28481,0.94211-2.25969,2.19362-2.25969c0.49426,0,0.95547,0.13818,1.34406,0.38859
				C86.53306,68.32283,86.53306,68.7906,86.53307,68.7906z"/>
			<path class="st0" d="M92.97415,72.42714h-0.40852l-1.08055-3.64309l-1.06062,3.64309h-0.41507l-1.27799-4.39405h0.46122
				l1.02103,3.68924l1.0344-3.59039h0.47433l1.04751,3.59039l0.99481-3.68924h0.46777L92.97415,72.42714z"/>
			<path class="st0" d="M97.46496,68.44135h-2.08847v1.37711h1.77225v0.40826h-1.77225v1.79192h2.16084v0.40852h-2.62862v-4.39405
				h2.55624C97.46496,68.03312,97.46496,68.44135,97.46496,68.44135z"/>
			<path class="st0" d="M100.61852,68.03309c0.77744,0,1.06062,0.03934,1.41644,0.17123
				c0.70507,0.26351,1.21218,1.11988,1.21218,2.03577c0,0.48744-0.14474,0.97488-0.41508,1.36347
				c-0.17122,0.2504-0.38859,0.4481-0.63899,0.57973c-0.38859,0.21082-0.59285,0.24385-1.56799,0.24385h-0.65866v-4.39405
				C99.96642,68.03308,100.61852,68.03308,100.61852,68.03309z M100.43418,71.99895h0.53359
				c0.50055,0,0.77088-0.05926,1.0344-0.21737c0.47433-0.29,0.77718-0.90251,0.77718-1.57455
				c0-0.52703-0.17777-0.98825-0.50055-1.31103c-0.30311-0.30966-0.65892-0.42818-1.29792-0.42818h-0.5467
				C100.43418,68.46783,100.43418,71.99895,100.43418,71.99895z"/>
			<path class="st0" d="M108.11446,70.22671c0,1.28481-0.92244,2.2728-2.11469,2.2728c-1.18595,0-2.11469-0.99455-2.11469-2.2728
				c0-1.27799,0.92873-2.29247,2.10158-2.29247c1.15948,0,2.0751,0.95522,2.12125,2.20699
				C108.11446,70.16745,108.11446,70.20049,108.11446,70.22671z M105.99976,68.37553c-0.93555,0-1.64718,0.7971-1.64718,1.84462
				c0,1.04751,0.71819,1.83806,1.66685,1.83806c0.92244,0,1.62725-0.79055,1.62725-1.82495c0-0.03278,0-0.06581-0.00655-0.09203
				C107.59397,69.13305,106.89572,68.37553,105.99976,68.37553z"/>
			<path class="st0" d="M109.6544,72.24937c0,0.38203-0.28345,0.6917-0.77744,0.83669
				c0.27007-0.27689,0.35581-0.435,0.35581-0.62589c0-0.1581-0.04615-0.2504-0.2373-0.435
				c0.13189-0.07236,0.17122-0.10541,0.2373-0.16467c0.05926-0.06581,0.09885-0.11852,0.16467-0.24359
				C109.57522,71.84084,109.6544,72.03855,109.6544,72.24937z"/>
			<path class="st0" d="M113.02585,68.03309c0.77744,0,1.06088,0.03934,1.41644,0.17123
				c0.70507,0.26351,1.21218,1.11988,1.21218,2.03577c0,0.48744-0.145,0.97488-0.41508,1.36347
				c-0.17122,0.2504-0.38859,0.4481-0.63899,0.57973c-0.38859,0.21082-0.59285,0.24385-1.56773,0.24385h-0.65892v-4.39405
				C112.37374,68.03308,113.02585,68.03308,113.02585,68.03309z M112.84151,71.99895h0.53359
				c0.50081,0,0.77088-0.05926,1.0344-0.21737c0.47433-0.29,0.77718-0.90251,0.77718-1.57455
				c0-0.52703-0.17777-0.98825-0.50055-1.31103c-0.30311-0.30966-0.65892-0.42818-1.29792-0.42818h-0.5467
				C112.84151,68.46783,112.84151,71.99895,112.84151,71.99895z"/>
			<path class="st0" d="M119.07912,68.44135h-2.08847v1.37711h1.77225v0.40826h-1.77225v1.79192h2.16084v0.40852h-2.62862v-4.39405
				h2.55624C119.07912,68.03312,119.07912,68.44135,119.07912,68.44135z"/>
			<path class="st0" d="M120.44784,72.01862h2.02921v0.40852h-2.49017V68.0331h0.46095
				C120.44784,68.0331,120.44784,72.01862,120.44784,72.01862z"/>
			<path class="st0" d="M123.72096,72.42714h-0.46123v-4.39405h0.46123V72.42714z"/>
			<path class="st0" d="M126.53365,72.42714h-0.43501l-1.69306-4.39405h0.4877l1.42955,3.80775l1.35036-3.80775h0.48769
				L126.53365,72.42714z"/>
			<path class="st0" d="M131.42693,68.44135h-2.08847v1.37711h1.77226v0.40826h-1.77226v1.79192h2.16084v0.40852h-2.62862v-4.39405
				h2.55624V68.44135z"/>
			<path class="st0" d="M135.08208,72.42714H134.522l-1.23184-1.91698h-0.54041v1.91698h-0.46751v-4.39405h0.45441
				c0.25041,0,0.42818,0,0.55351,0.00656c0.15811,0,0.32278,0.01966,0.47433,0.0527
				c0.53358,0.11197,0.89597,0.59285,0.89597,1.19225c0,0.3296-0.10541,0.63926-0.29655,0.8367
				c-0.15157,0.16467-0.27008,0.23074-0.57974,0.31622L135.08208,72.42714z M132.74976,70.10163h0.36237h0.08575
				c0.12506-0.00655,0.23047-0.00655,0.32277-0.01993c0.42818-0.03933,0.6917-0.34899,0.6917-0.80366
				c0-0.2963-0.11195-0.55325-0.31622-0.6917c-0.17122-0.11197-0.33588-0.145-0.86946-0.145h-0.2769V70.10163z"/>
			<path class="st0" d="M137.39972,68.74445c-0.17122-0.27007-0.36893-0.38859-0.6521-0.38859
				c-0.38203,0-0.65211,0.24359-0.65211,0.57974c0,0.145,0.0527,0.28973,0.15129,0.38859
				c0.15837,0.15155,0.32304,0.25696,0.8367,0.51392c0.21738,0.10541,0.38885,0.21082,0.52704,0.30966
				c0.30312,0.22392,0.4877,0.60596,0.4877,1.04096c0,0.75095-0.56007,1.31732-1.30447,1.31732
				c-0.60622,0-1.03441-0.28974-1.31758-0.88258l0.36237-0.23074c0.07237,0.15811,0.11197,0.22418,0.18433,0.30966
				c0.19115,0.2373,0.45467,0.36893,0.75096,0.36893c0.48116,0,0.83014-0.36893,0.83014-0.86948
				c0-0.12534-0.01965-0.2504-0.07236-0.35581c-0.10541-0.23048-0.27663-0.38203-0.69171-0.60596
				c-0.65892-0.35582-0.73784-0.40196-0.90932-0.55352c-0.20401-0.17777-0.32278-0.44811-0.32278-0.75095
				c0-0.5863,0.46777-0.98826,1.13982-0.98826c0.45467,0,0.77087,0.18459,1.00792,0.56663L137.39972,68.74445z"/>
			<path class="st0" d="M143.44592,72.42714h-0.56006l-1.23186-1.91698h-0.54041v1.91698h-0.46751v-4.39405h0.45441
				c0.25041,0,0.42819,0,0.55351,0.00656c0.15811,0,0.32278,0.01966,0.47408,0.0527
				c0.53384,0.11197,0.89622,0.59285,0.89622,1.19225c0,0.3296-0.10541,0.63926-0.2963,0.8367
				c-0.15155,0.16467-0.2706,0.23074-0.58,0.31622L143.44592,72.42714z M141.1136,70.10163h0.36238h0.08574
				c0.12506-0.00655,0.23047-0.00655,0.32277-0.01993c0.42818-0.03933,0.69197-0.34899,0.69197-0.80366
				c0-0.2963-0.11223-0.55325-0.31622-0.6917c-0.17149-0.11197-0.33615-0.145-0.86974-0.145h-0.2769V70.10163z"/>
			<path class="st0" d="M146.66582,68.44135h-2.08821v1.37711h1.77199v0.40826h-1.77199v1.79192h2.16058v0.40852h-2.62836v-4.39405
				h2.55598V68.44135z"/>
			<path class="st0" d="M149.20135,68.74445c-0.17096-0.27007-0.36867-0.38859-0.65237-0.38859
				c-0.38177,0-0.65184,0.24359-0.65184,0.57974c0,0.145,0.05244,0.28973,0.15155,0.38859
				c0.15785,0.15155,0.32251,0.25696,0.83644,0.51392c0.21764,0.10541,0.3886,0.21082,0.52704,0.30966
				c0.3031,0.22392,0.4877,0.60596,0.4877,1.04096c0,0.75095-0.56007,1.31732-1.30475,1.31732
				c-0.60568,0-1.03413-0.28974-1.31732-0.88258l0.36238-0.23074c0.07236,0.15811,0.11169,0.22418,0.18459,0.30966
				c0.19089,0.2373,0.45415,0.36893,0.75096,0.36893c0.48088,0,0.83014-0.36893,0.83014-0.86948
				c0-0.12534-0.01993-0.2504-0.07289-0.35581c-0.10541-0.23048-0.27637-0.38203-0.6917-0.60596
				c-0.65866-0.35582-0.73785-0.40196-0.90881-0.55352c-0.20451-0.17777-0.32303-0.44811-0.32303-0.75095
				c0-0.5863,0.46777-0.98826,1.13954-0.98826c0.45467,0,0.77089,0.18459,1.00845,0.56663L149.20135,68.74445z"/>
			<path class="st0" d="M154.31227,70.1213c0,0.28345,0,0.47433-0.00629,0.57973c-0.00682,0.2373-0.04616,0.46122-0.11853,0.67859
				c-0.22444,0.66548-0.92244,1.15292-1.65399,1.15292c-0.44102,0-0.85637-0.17122-1.19199-0.50055
				c-0.1783-0.16493-0.31622-0.35582-0.40222-0.56007c-0.14474-0.32933-0.17096-0.53359-0.17096-1.29137v-2.14747h0.46777v2.16084
				c0,0.5467,0.01311,0.71792,0.0923,0.96177c0.16466,0.52704,0.67805,0.91563,1.21873,0.91563
				c0.39488,0,0.77036-0.19771,1.01421-0.52048c0.22392-0.2963,0.27689-0.51366,0.28319-1.04752V70.1213v-2.08821h0.46777V70.1213z"
				/>
			<path class="st0" d="M155.80003,72.01862h2.02895v0.40852h-2.49043V68.0331h0.46149V72.01862z"/>
			<path class="st0" d="M160.61937,68.42824h-1.39021v3.9989h-0.46777v-3.9989h-1.38969v-0.39515h3.24768V68.42824z"/>
			<path class="st0" d="M162.82086,68.74445c-0.17096-0.27007-0.36867-0.38859-0.65186-0.38859
				c-0.38229,0-0.65236,0.24359-0.65236,0.57974c0,0.145,0.05243,0.28973,0.15155,0.38859
				c0.15785,0.15155,0.32251,0.25696,0.83644,0.51392c0.21762,0.10541,0.38858,0.21082,0.52702,0.30966
				c0.30312,0.22392,0.48772,0.60596,0.48772,1.04096c0,0.75095-0.56007,1.31732-1.30475,1.31732
				c-0.6057,0-1.03413-0.28974-1.31732-0.88258l0.36237-0.23074c0.07237,0.15811,0.11171,0.22418,0.1846,0.30966
				c0.19089,0.2373,0.45413,0.36893,0.75096,0.36893c0.48088,0,0.83014-0.36893,0.83014-0.86948
				c0-0.12534-0.01993-0.2504-0.07289-0.35581c-0.10541-0.23048-0.27637-0.38203-0.6917-0.60596
				c-0.65866-0.35582-0.73785-0.40196-0.90881-0.55352c-0.20451-0.17777-0.32303-0.44811-0.32303-0.75095
				c0-0.5863,0.46777-0.98826,1.14006-0.98826c0.45415,0,0.77037,0.18459,1.00792,0.56663L162.82086,68.74445z"/>
		</g>
	</g>
</g>
</svg>
