<?xml version="1.0" encoding="utf-8"?>
<!-- Generator: Adobe Illustrator 25.3.0, SVG Export Plug-In . SVG Version: 6.00 Build 0)  -->
<svg version="1.1" id="Layer_1" xmlns="http://www.w3.org/2000/svg" xmlns:xlink="http://www.w3.org/1999/xlink" x="0px" y="0px"
	 viewBox="0 0 750.2 400.1" style="enable-background:new 0 0 750.2 400.1;" xml:space="preserve">
<path d="M146.2,178.1l0.6-3.8l-17.6-2.7c-0.2,1.2-0.5,2.5-0.7,3.8L146.2,178.1z"/>
<path d="M120.2,220.8c-0.2,1.3-0.4,2.5-0.6,3.8l18.2,2.8l0.6-3.8L120.2,220.8z"/>
<path d="M407.4,178.7l15.8,2.4l0.6-3.8l-15.7-2.4C407.9,176.2,407.6,177.4,407.4,178.7z"/>
<path d="M399.1,224.1c-0.2,1.3-0.4,2.5-0.6,3.8l16.2,2.5l0.6-3.8L399.1,224.1z"/>
<path d="M339.6,174.9l-17.4,2.7l0.7,3.8l17.5-2.7C340.1,177.4,339.8,176.2,339.6,174.9z"/>
<path d="M349.2,227.8c-0.2-1.2-0.4-2.5-0.6-3.8l-17.8,2.7l0.7,3.8L349.2,227.8z"/>
<path d="M619.1,174.5l-16.5,2.5l0.7,3.8l16.6-2.5C619.6,177,619.4,175.8,619.1,174.5z"/>
<path d="M611.3,226.2l0.7,3.8l16.9-2.6c-0.2-1.2-0.4-2.5-0.6-3.8L611.3,226.2z"/>
</svg>
