<?xml version="1.0" encoding="utf-8"?>
<!-- Generator: Adobe Illustrator 25.3.0, SVG Export Plug-In . SVG Version: 6.00 Build 0)  -->
<svg version="1.1" id="Layer_1" xmlns="http://www.w3.org/2000/svg" xmlns:xlink="http://www.w3.org/1999/xlink" x="0px" y="0px"
	 viewBox="0 0 750.2 400.1" style="enable-background:new 0 0 750.2 400.1;" xml:space="preserve">
<path d="M121.7,216.6l-0.8-0.3c-0.1,0.5-0.2,0.9-0.2,1.4l0.8,0.3l17.8,0.2l0.2-1.4L121.7,216.6z"/>
<path d="M147.1,173l0.2-1.4l-18-0.2l-0.1,0c-0.1,0.4-0.2,0.9-0.3,1.3l0.1,0L147.1,173z"/>
<path d="M400.6,216.6l-0.2-0.1c-0.1,0.5-0.2,0.9-0.2,1.4l0.2,0.1l16.4,0.2l0.2-1.4L400.6,216.6z"/>
<path d="M424.8,171.6l-16-0.2c-0.1,0.5-0.2,0.9-0.3,1.4l16,0.2L424.8,171.6z"/>
<path d="M347.3,216.6l-18.3,0.2l0.2,1.4l18.3-0.2C347.5,217.5,347.4,217.1,347.3,216.6z"/>
<path d="M338.9,171.4l-17.8,0.2l0.2,1.4l17.8-0.2C339.1,172.3,339,171.9,338.9,171.4z"/>
<path d="M626.3,216.6l-16.7,0.2l0.2,1.4l16.7-0.2l0.6-0.2c-0.1-0.5-0.2-0.9-0.2-1.4L626.3,216.6z"/>
<path d="M618.5,171.4l-16.9,0.2l0.2,1.4l16.9-0.2C618.7,172.3,618.6,171.9,618.5,171.4z"/>
</svg>
