<?xml version="1.0" encoding="utf-8"?>
<!-- Generator: Adobe Illustrator 25.3.0, SVG Export Plug-In . SVG Version: 6.00 Build 0)  -->
<svg version="1.1" id="Layer_1" xmlns="http://www.w3.org/2000/svg" xmlns:xlink="http://www.w3.org/1999/xlink" x="0px" y="0px"
	 viewBox="0 0 750.2 400.1" style="enable-background:new 0 0 750.2 400.1;" xml:space="preserve">
<path d="M356.8,281.4l-11.7,8.9c4.1-0.5,8.1-1.1,12.3-1.8C357.3,286.3,357.1,283.9,356.8,281.4z"/>
<path d="M350.9,238l-16,12.2l3.2,18.2l15.7-12C352.9,250.6,352,244.4,350.9,238z"/>
<path d="M622.6,290.6c4.8-0.6,9.6-1.3,14.5-2.1c-0.2-2.6-0.4-5.4-0.7-8.4L622.6,290.6L622.6,290.6z"/>
<path d="M618.4,266.6l14.9-11.3c-0.9-5.9-1.8-12.1-2.9-18.5l-15.2,11.6L618.4,266.6z"/>
<path d="M390.3,288.5c4.2,0.7,8.3,1.3,12.4,1.8l-11.9-9C390.6,283.9,390.4,286.3,390.3,288.5z"/>
<path d="M411.4,249.1l-14.7-11.2c-1,6.4-2,12.6-2.8,18.5l14.4,11L411.4,249.1z"/>
<path d="M110.8,288.5c4.7,0.8,9.2,1.5,13.8,2l-13.2-10.1C111.2,283.4,110.9,286.1,110.8,288.5z"/>
<path d="M133.9,249.7l-16.5-12.6c-1,6.4-2,12.6-2.9,18.5l16.2,12.3L133.9,249.7z"/>
</svg>
