<?xml version="1.0" encoding="utf-8"?>
<!-- Generator: Adobe Illustrator 25.3.0, SVG Export Plug-In . SVG Version: 6.00 Build 0)  -->
<svg version="1.1" id="Layer_1" xmlns="http://www.w3.org/2000/svg" xmlns:xlink="http://www.w3.org/1999/xlink" x="0px" y="0px"
	 viewBox="0 0 750.2 400.1" style="enable-background:new 0 0 750.2 400.1;" xml:space="preserve">
<path d="M127.6,180.4l17.6,3.7l12.1-70.1c-8.4-0.9-13.9-1.7-15.9-2C138.2,126.9,132.9,152.6,127.6,180.4z"/>
<path d="M118.7,229.4l18,3.7l0.7-3.8l-18.1-3.7C119.1,226.9,118.9,228.2,118.7,229.4z"/>
<path d="M407,180.8l15.7,3.2l12.2-70.5c-7.3-0.7-12-1.4-13.9-1.7C417.7,127,412.3,152.9,407,180.8z"/>
<path d="M398.1,229.9l16.1,3.3l0.7-3.8l-16.1-3.3C398.5,227.3,398.3,228.6,398.1,229.9z"/>
<path d="M326.6,111.1c-2.1,0.4-7.5,1.3-15.7,2.3l12.8,73l17.4-3.6C335.5,153.6,329.9,126.4,326.6,111.1z"/>
<path d="M349.9,231.8c-0.2-1.3-0.4-2.6-0.6-3.9l-17.6,3.7l0.7,3.8L349.9,231.8z"/>
<path d="M606.2,111.1c-2.1,0.4-7.1,1.2-14.8,2.2l12.1,68.9l16.4-3.4C614.6,151.1,609.4,125.7,606.2,111.1z"/>
<path d="M628.9,227.8c-0.2-1.3-0.4-2.6-0.7-3.8l-16.7,3.5l0.7,3.8L628.9,227.8z"/>
</svg>
