<?xml version="1.0" encoding="utf-8"?>
<!-- Generator: Adobe Illustrator 25.3.0, SVG Export Plug-In . SVG Version: 6.00 Build 0)  -->
<svg version="1.1" id="Layer_1" xmlns="http://www.w3.org/2000/svg" xmlns:xlink="http://www.w3.org/1999/xlink" x="0px" y="0px"
	 viewBox="0 0 750.2 400.1" style="enable-background:new 0 0 750.2 400.1;" xml:space="preserve">
<path d="M131.1,162c-0.5,2.5-1,5.1-1.5,7.7l17.5,3.3l1.3-7.7L131.1,162z"/>
<path d="M136.5,234.5l1.3-7.7l-18.1-3.4c-0.4,2.6-0.9,5.2-1.3,7.7L136.5,234.5z"/>
<path d="M410.5,162.9c-0.5,2.5-1,5.1-1.5,7.7l15.5,2.9l1.3-7.7L410.5,162.9z"/>
<path d="M415.2,227.4l-16.1-3c-0.4,2.6-0.9,5.2-1.3,7.7l16.1,3L415.2,227.4z"/>
<path d="M320.2,166.1l1.3,7.7l17.2-3.2c-0.5-2.6-1-5.1-1.5-7.7L320.2,166.1z"/>
<path d="M350,232.1c-0.4-2.5-0.9-5.1-1.3-7.7l-17.7,3.3l1.3,7.7L350,232.1z"/>
<path d="M600.6,165.8l1.4,7.7l16.3-3.1c-0.5-2.6-1-5.1-1.5-7.7L600.6,165.8z"/>
<path d="M629.6,231.8c-0.4-2.5-0.9-5.1-1.3-7.7l-16.8,3.2l1.4,7.7L629.6,231.8z"/>
</svg>
