<?xml version="1.0" encoding="utf-8"?>
<!-- Generator: Adobe Illustrator 25.3.0, SVG Export Plug-In . SVG Version: 6.00 Build 0)  -->
<svg version="1.1" id="Layer_1" xmlns="http://www.w3.org/2000/svg" xmlns:xlink="http://www.w3.org/1999/xlink" x="0px" y="0px"
	 viewBox="0 0 750.2 400.1" style="enable-background:new 0 0 750.2 400.1;" xml:space="preserve">
<path d="M136,137.7l16.8,2.4l4.5-26.1c-8.4-0.9-13.9-1.7-15.9-2C140,118.6,138.1,127.5,136,137.7z"/>
<path d="M415.5,137.6l14.8,2.1l4.5-26.1c-7.3-0.7-12-1.4-13.9-1.7C419.5,118.6,417.6,127.4,415.5,137.6z"/>
<path d="M326.6,111.1c-2.1,0.4-7.5,1.3-15.7,2.3l4.6,26.2l16.6-2.4C329.9,126.8,328,117.8,326.6,111.1z"/>
<path d="M606.2,111.1c-2.1,0.4-7.1,1.2-14.8,2.2l4.6,26l15.7-2.2C609.5,126.7,607.6,117.8,606.2,111.1z"/>
</svg>
