<?xml version="1.0" encoding="utf-8"?>
<!-- Generator: Adobe Illustrator 25.3.0, SVG Export Plug-In . SVG Version: 6.00 Build 0)  -->
<svg version="1.1" id="Layer_1" xmlns="http://www.w3.org/2000/svg" xmlns:xlink="http://www.w3.org/1999/xlink" x="0px" y="0px"
	 viewBox="0 0 750.2 400.1" style="enable-background:new 0 0 750.2 400.1;" xml:space="preserve">
<path d="M144.7,187.1l12.6-73.2c-8.4-0.9-13.9-1.7-15.9-2c-3.5,16.3-9.4,45.1-15.2,75.5l0.7,0.2L144.7,187.1z"/>
<path d="M434.8,113.6c-7.3-0.7-12-1.4-13.9-1.7c-3.5,16.3-9.5,45.2-15.2,75.7l16.4-0.5L434.8,113.6z"/>
<path d="M326.6,111.1c-2.1,0.4-7.5,1.3-15.7,2.3l12.9,73.6l18.2,0.6C336.2,156.6,330.1,127.2,326.6,111.1z"/>
<path d="M606.2,111.1c-2.1,0.4-7.1,1.2-14.8,2.2l13,73.7l17.2,0.5C615.8,156.6,609.7,127.2,606.2,111.1z"/>
</svg>
