<?xml version="1.0" encoding="utf-8"?>
<!-- Generator: Adobe Illustrator 25.3.0, SVG Export Plug-In . SVG Version: 6.00 Build 0)  -->
<svg version="1.1" id="Layer_1" xmlns="http://www.w3.org/2000/svg" xmlns:xlink="http://www.w3.org/1999/xlink" x="0px" y="0px"
	 viewBox="0 0 768 107" style="enable-background:new 0 0 768 107;" xml:space="preserve">
<style type="text/css">
	.st0{fill:#141011;}
	.st1{font-family:'Calibri';}
	.st2{font-size:7.7918px;}
	.st3{fill:none;stroke:#1D1E1C;stroke-width:0.1767;stroke-miterlimit:22.9256;}
	.st4{fill:none;stroke:#D3D0D0;stroke-width:0.1249;stroke-miterlimit:22.9256;}
	.st5{fill-rule:evenodd;clip-rule:evenodd;fill:#E9E9E9;}
	.st6{fill-rule:evenodd;clip-rule:evenodd;fill:#FFFFFF;}
	.st7{fill:#E9E9E9;}
	.st8{font-family:'Arial-BoldMT';}
	.st9{font-size:0.4175px;}
	.st10{fill:#E0121A;}
	.st11{font-size:0.4946px;}
	.st12{fill:#1D1D1B;}
	.st13{fill:#53575A;}
	.st14{fill:#FFFFFF;}
	.st15{fill:none;stroke:#BBBBBB;stroke-width:0.315;stroke-miterlimit:10;}
	.st16{clip-path:url(#SVGID_2_);fill:#1D1D1B;}
	.st17{clip-path:url(#SVGID_4_);fill:#1D1D1B;}
	.st18{fill:#BBBBBB;}
	.st19{fill:#9EA1A2;}
	.st20{font-size:2.1968px;}
</style>
<g>
	<text transform="matrix(1 0 0 1 411.3032 80.6562)" class="st0 st1 st2">Oxen Swingtag </text>
</g>
<g>
	<text transform="matrix(1 0 0 1 487.5752 81.4512)" class="st0 st1 st2">Oxen Polybag</text>
</g>
<g>
	<rect x="486.4" y="14.7" class="st3" width="46.1" height="59.3"/>
	<line class="st4" x1="486.5" y1="19.4" x2="532.4" y2="19.4"/>
	<rect x="486.6" y="14.8" class="st5" width="45.8" height="2.3"/>
	<rect x="486.6" y="16.2" class="st6" width="45.8" height="0.7"/>
	<text transform="matrix(-0.8894 0 0 1 531.0703 16.6672)" class="st7 st8 st9">TOUCH.SEALING T</text>
	<text transform="matrix(-0.8894 0 0 1 527.7002 16.6672)" class="st7 st8 st9">APE.TOUCH.SEALING T</text>
	<text transform="matrix(-0.8894 0 0 1 523.4629 16.6672)" class="st7 st8 st9">APE</text>
	<text transform="matrix(-0.8894 0 0 1 519.0791 16.6672)" class="st7 st8 st9">TOUCH.SEALING T</text>
	<text transform="matrix(-0.8894 0 0 1 515.708 16.6672)" class="st7 st8 st9">APE.TOUCH.SEALING T</text>
	<text transform="matrix(-0.8894 0 0 1 511.4717 16.6672)" class="st7 st8 st9">APE</text>
	<text transform="matrix(-0.8894 0 0 1 507.0869 16.6672)" class="st7 st8 st9">TOUCH.SEALING T</text>
	<text transform="matrix(-0.8894 0 0 1 503.7168 16.6672)" class="st7 st8 st9">APE.TOUCH.SEALING T</text>
	<text transform="matrix(-0.8894 0 0 1 499.4805 16.6672)" class="st7 st8 st9">APE</text>
	<text transform="matrix(-0.8894 0 0 1 495.0957 16.6672)" class="st7 st8 st9">TOUCH.SEALING T</text>
	<text transform="matrix(-0.8894 0 0 1 491.7246 16.6672)" class="st7 st8 st9">APE.TOUCH.SEALING T</text>
	<text transform="matrix(-0.8894 0 0 1 487.4883 16.6672)" class="st7 st8 st9">APE</text>
	<text transform="matrix(-0.8894 0 0 1 532.1611 15.8781)" class="st10 st8 st11">TOUCH.SEALING T</text>
	<text transform="matrix(-0.8894 0 0 1 528.1689 15.8781)" class="st10 st8 st11">APE.REMOVE LINER TO EXPOSE </text>
	<text transform="matrix(-0.8894 0 0 1 521.0293 15.8781)" class="st10 st8 st11">ADHESIVE</text>
	<text transform="matrix(-0.8894 0 0 1 516.1357 15.8781)" class="st10 st8 st11">TOUCH.SEALING T</text>
	<text transform="matrix(-0.8894 0 0 1 512.1436 15.8781)" class="st10 st8 st11">APE.REMOVE LINER TO EXPOSE </text>
	<text transform="matrix(-0.8894 0 0 1 505.0049 15.8781)" class="st10 st8 st11">ADHESIVE</text>
	<text transform="matrix(-0.8894 0 0 1 500.1104 15.8781)" class="st10 st8 st11">TOUCH.SEALING T</text>
	<text transform="matrix(-0.8894 0 0 1 496.1191 15.8781)" class="st10 st8 st11">APE.REMOVE LINER TO EXPOSE </text>
	<text transform="matrix(-0.8894 0 0 1 488.9795 15.8781)" class="st10 st8 st11">ADHESIVE</text>
	<g>
		<path class="st12" d="M501.3,52.8c-2,0-3.4,1.4-3.4,3.3c0,1.9,1.5,3.3,3.4,3.3c2,0,3.4-1.4,3.4-3.3
			C504.7,54.2,503.3,52.8,501.3,52.8z M501.3,58c-0.9,0-1.7-0.8-1.7-1.9c0-1.1,0.8-1.9,1.7-1.9c1,0,1.7,0.8,1.7,1.9
			S502.3,58,501.3,58z"/>
		<polygon class="st12" points="510.6,52.8 508.6,52.8 507.4,54.7 506.2,52.8 504.3,52.8 506.4,56 504.1,59.4 506.1,59.4 
			507.4,57.3 508.8,59.4 510.7,59.4 508.5,55.9 		"/>
		<polygon class="st12" points="520.6,52.8 520.6,56.8 517.7,52.8 516.3,52.8 516.3,59.4 517.8,59.4 517.8,55.4 520.7,59.4 
			522.2,59.4 522.2,52.8 		"/>
		<polygon class="st12" points="510.8,54.2 515.3,54.2 515.3,52.8 511.7,52.8 		"/>
		<polygon class="st12" points="511.9,59.3 515.3,59.3 515.3,58 511,58 		"/>
		<polygon class="st12" points="510,55.4 509.6,55.9 510.1,56.7 515.3,56.7 515.3,55.4 		"/>
		<path class="st12" d="M521.9,38c0-0.5-0.4-0.9-0.9-0.9h-4.6l2.7-4.8c0.2-0.4,0.1-1-0.3-1.2c-0.4-0.2-1-0.1-1.2,0.3l-3.2,5.7h-9.2
			l-3.2-5.7c-0.2-0.4-0.8-0.6-1.2-0.3c-0.4,0.2-0.6,0.8-0.3,1.2l2.7,4.8h-4.1c-0.5,0-0.9,0.4-0.9,0.9s0.4,0.9,0.9,0.9h5.1l4.9,8.8
			c0.2,0.3,0.5,0.5,0.8,0.5s0.6-0.2,0.8-0.5l4.9-8.8h5.6C521.5,38.9,521.9,38.5,521.9,38z M509.8,45.4l-3.6-6.5h7.2L509.8,45.4z"/>
	</g>
</g>
<g>
	<text transform="matrix(1 0 0 1 23.8306 77.1255)" class="st0 st1 st2">Oxen Heat Seal</text>
	<text transform="matrix(1 0 0 1 32.3306 86.5255)" class="st0 st1 st2">Size Label</text>
</g>
<g>
	<g>
		<rect x="196.4" y="38.6" class="st13" width="112.9" height="11.3"/>
	</g>
	<path class="st12" d="M209.2,43.9c0-0.2-0.2-0.4-0.4-0.4H207l1-1.9c0.1-0.2,0-0.4-0.1-0.5c-0.2-0.1-0.4,0-0.5,0.1l-1.2,2.2h-3.6
		l-1.2-2.2c-0.1-0.2-0.3-0.2-0.5-0.1c-0.2,0.1-0.2,0.3-0.1,0.5l1,1.9h-1.6c-0.2,0-0.4,0.2-0.4,0.4s0.2,0.4,0.4,0.4h2l1.9,3.5
		c0.1,0.1,0.2,0.2,0.3,0.2s0.2-0.1,0.3-0.2l1.9-3.5h2.2C209,44.3,209.2,44.1,209.2,43.9z M204.4,46.8l-1.4-2.6h2.8L204.4,46.8z"/>
	<g>
		<path class="st12" d="M217.2,42.2c-1.3,0-2.4,1-2.4,2.3s1,2.3,2.4,2.3s2.4-1,2.4-2.3C219.5,43.2,218.5,42.2,217.2,42.2z
			 M217.2,45.8c-0.6,0-1.2-0.6-1.2-1.3s0.5-1.3,1.2-1.3s1.2,0.5,1.2,1.3C218.3,45.2,217.8,45.8,217.2,45.8z"/>
		<polygon class="st12" points="223.5,42.3 222.2,42.3 221.3,43.5 220.5,42.3 219.2,42.3 220.7,44.5 219.1,46.7 220.4,46.7 
			221.3,45.4 222.3,46.7 223.6,46.7 222.1,44.4 		"/>
		<polygon class="st12" points="230.4,42.3 230.4,45 228.4,42.3 227.4,42.3 227.4,46.7 228.5,46.7 228.5,44.1 230.5,46.7 
			231.5,46.7 231.5,42.3 		"/>
		<polygon class="st12" points="223.7,43.2 226.7,43.2 226.7,42.3 224.3,42.3 		"/>
		<polygon class="st12" points="224.4,46.7 226.7,46.7 226.7,45.8 223.8,45.8 		"/>
		<polygon class="st12" points="223.1,44 222.9,44.4 223.2,45 226.7,45 226.7,44 		"/>
	</g>
	<g>
		<path class="st12" d="M254.4,42.2c-1.3,0-2.4,1-2.4,2.3s1,2.3,2.4,2.3s2.4-1,2.4-2.3C256.7,43.2,255.7,42.2,254.4,42.2z
			 M254.4,45.8c-0.6,0-1.2-0.6-1.2-1.3s0.5-1.3,1.2-1.3s1.2,0.5,1.2,1.3C255.6,45.2,255.1,45.8,254.4,45.8z"/>
		<polygon class="st12" points="260.7,42.3 259.4,42.3 258.6,43.5 257.8,42.3 256.4,42.3 257.9,44.5 256.3,46.7 257.7,46.7 
			258.6,45.4 259.5,46.7 260.9,46.7 259.3,44.4 		"/>
		<polygon class="st12" points="267.6,42.3 267.6,45 265.7,42.3 264.7,42.3 264.7,46.7 265.7,46.7 265.7,44.1 267.7,46.7 
			268.7,46.7 268.7,42.3 		"/>
		<polygon class="st12" points="260.9,43.2 264,43.2 264,42.3 261.5,42.3 		"/>
		<polygon class="st12" points="261.6,46.7 264,46.7 264,45.8 261,45.8 		"/>
		<polygon class="st12" points="260.3,44 260.1,44.4 260.4,45 264,45 264,44 		"/>
	</g>
	<path class="st12" d="M246.4,43.9c0-0.2-0.2-0.4-0.4-0.4h-1.8l1-1.9c0.1-0.2,0-0.4-0.1-0.5c-0.2-0.1-0.4,0-0.5,0.1l-1.2,2.2h-3.6
		l-1.2-2.2c-0.1-0.2-0.3-0.2-0.5-0.1c-0.2,0.1-0.2,0.3-0.1,0.5l1,1.9h-1.6c-0.2,0-0.4,0.2-0.4,0.4s0.2,0.4,0.4,0.4h2l1.9,3.5
		c0.1,0.1,0.2,0.2,0.3,0.2s0.2-0.1,0.3-0.2l1.9-3.5h2.2C246.2,44.3,246.4,44.1,246.4,43.9z M241.6,46.8l-1.4-2.6h2.8L241.6,46.8z"/>
	<g>
		<path class="st12" d="M291.6,42.2c-1.3,0-2.4,1-2.4,2.3s1,2.3,2.4,2.3c1.3,0,2.4-1,2.4-2.3S293,42.2,291.6,42.2z M291.6,45.8
			c-0.6,0-1.2-0.6-1.2-1.3s0.5-1.3,1.2-1.3s1.2,0.5,1.2,1.3C292.8,45.2,292.3,45.8,291.6,45.8z"/>
		<polygon class="st12" points="298,42.3 296.6,42.3 295.8,43.5 295,42.3 293.7,42.3 295.1,44.5 293.6,46.7 294.9,46.7 295.8,45.4 
			296.7,46.7 298.1,46.7 296.5,44.4 		"/>
		<polygon class="st12" points="304.9,42.3 304.9,45 302.9,42.3 301.9,42.3 301.9,46.7 302.9,46.7 302.9,44.1 304.9,46.7 
			305.9,46.7 305.9,42.3 		"/>
		<polygon class="st12" points="298.1,43.2 301.2,43.2 301.2,42.3 298.7,42.3 		"/>
		<polygon class="st12" points="298.9,46.7 301.2,46.7 301.2,45.8 298.2,45.8 		"/>
		<polygon class="st12" points="297.6,44 297.3,44.4 297.7,45 301.2,45 301.2,44 		"/>
	</g>
	<path class="st12" d="M283.6,43.9c0-0.2-0.2-0.4-0.4-0.4h-1.8l1-1.9c0.1-0.2,0-0.4-0.1-0.5c-0.2-0.1-0.4,0-0.5,0.1l-1.2,2.2H277
		l-1.2-2.2c-0.1-0.2-0.3-0.2-0.5-0.1c-0.2,0.1-0.2,0.3-0.1,0.5l1,1.9h-1.6c-0.2,0-0.4,0.2-0.4,0.4s0.2,0.4,0.4,0.4h2l1.9,3.5
		c0.1,0.1,0.2,0.2,0.3,0.2s0.2-0.1,0.3-0.2l1.9-3.5h2.2C283.5,44.3,283.6,44.1,283.6,43.9z M278.9,46.8l-1.4-2.6h2.8L278.9,46.8z"/>
</g>
<g>
	<text transform="matrix(1 0 0 1 223.9268 79.6445)" class="st0 st1 st2">Oxen Neck Tape</text>
</g>
<g>
	<g>
		<path class="st12" d="M38.5,39.4c-2.2,0-3.8,1.6-3.8,3.7c0,2.1,1.6,3.7,3.8,3.7s3.8-1.6,3.8-3.7C42.4,41,40.7,39.4,38.5,39.4z
			 M38.6,45.3c-1.1,0-2-0.9-2-2.1c0-1.2,0.9-2.1,2-2.1s1.9,0.9,1.9,2.1C40.5,44.3,39.6,45.3,38.6,45.3z"/>
		<polygon class="st12" points="48.9,39.5 46.7,39.5 45.4,41.6 44,39.5 41.9,39.5 44.2,43.1 41.7,46.8 43.9,46.8 45.4,44.5 
			46.9,46.8 49.1,46.8 46.6,43 		"/>
		<polygon class="st12" points="60.1,39.5 60.1,43.9 56.9,39.5 55.3,39.5 55.3,46.8 57,46.8 57,42.4 60.2,46.8 61.9,46.8 61.9,39.5 
					"/>
		<polygon class="st12" points="49.2,41 54.2,41 54.2,39.5 50.2,39.5 		"/>
		<polygon class="st12" points="50.4,46.8 54.2,46.8 54.2,45.3 49.3,45.3 		"/>
		<polygon class="st12" points="48.2,42.4 47.8,43 48.4,43.9 54.2,43.9 54.2,42.4 48.3,42.4 		"/>
		<path class="st12" d="M61.6,22.9c0-0.6-0.5-1-1-1h-5.1l3-5.4c0.3-0.5,0.1-1.1-0.4-1.4c-0.5-0.3-1.1-0.1-1.4,0.4l-3.5,6.4H42.9
			l-3.5-6.4c-0.3-0.5-0.9-0.7-1.4-0.4s-0.7,0.9-0.4,1.4l3,5.4h-4.5c-0.6,0-1,0.5-1,1s0.5,1,1,1h5.7l5.5,9.8c0.2,0.3,0.5,0.5,0.9,0.5
			s0.7-0.2,0.9-0.5l5.5-9.8h6.2C61.2,23.9,61.6,23.5,61.6,22.9z M48.1,31.2l-4-7.3h8.1L48.1,31.2z"/>
	</g>
	<g>
		<path class="st12" d="M28.9,59.6H30c0.8,0,1.3,0.6,1.3,1.4c0,0.8-0.5,1.4-1.3,1.4h-1.1V59.6z M30,61.8c0.5,0,0.7-0.4,0.7-0.9
			S30.5,60,30,60h-0.5v1.8C29.5,61.8,30,61.8,30,61.8z"/>
		<path class="st12" d="M33.6,61.8v0.5h-1.8v-2.8h1.7V60h-1.2v0.7h1v0.5h-1v0.6H33.6z"/>
		<path class="st12" d="M33.9,61.5h0.6c0,0.2,0.2,0.4,0.5,0.4s0.4-0.1,0.4-0.3s-0.1-0.3-0.4-0.3l-0.3-0.1C34.1,61,34,60.6,34,60.3
			c0-0.5,0.4-0.8,1-0.8c0.5,0,0.9,0.3,0.9,0.8h-0.6c0-0.2-0.1-0.4-0.4-0.4c-0.2,0-0.4,0.1-0.4,0.3c0,0.1,0,0.2,0.3,0.3l0.3,0.1
			c0.4,0.1,0.8,0.3,0.8,0.8c0,0.6-0.5,0.8-1,0.8C34.3,62.4,33.9,62,33.9,61.5z"/>
		<path class="st12" d="M36.4,59.6H37v2.8h-0.6V59.6z"/>
		<path class="st12" d="M37.5,61c0-0.8,0.6-1.4,1.4-1.4c0.4,0,0.8,0.2,1,0.4l-0.4,0.4c-0.2-0.2-0.4-0.3-0.6-0.3
			c-0.5,0-0.9,0.4-0.9,0.9s0.4,0.9,0.9,0.9c0.4,0,0.6-0.2,0.7-0.5c0,0,0,0,0-0.1h-0.8v-0.5h1.4c0,1-0.6,1.5-1.4,1.5
			S37.5,61.7,37.5,61z"/>
		<path class="st12" d="M42.8,59.6v2.8h-0.5l-1-1.7v1.7h-0.6v-2.8h0.5l1,1.7v-1.7H42.8z"/>
		<path class="st12" d="M45.3,61.8v0.5h-1.8v-2.8h1.7V60H44v0.7h1v0.5h-1v0.6H45.3z"/>
		<path class="st12" d="M45.8,59.6h1.1c0.8,0,1.3,0.6,1.3,1.4c0,0.8-0.5,1.4-1.3,1.4h-1.1V59.6z M46.9,61.8c0.5,0,0.7-0.4,0.7-0.9
			S47.4,60,46.9,60h-0.5v1.8C46.4,61.8,46.9,61.8,46.9,61.8z"/>
		<path class="st12" d="M49.6,59.6h0.6v2.8h-0.6V59.6z"/>
		<path class="st12" d="M52.9,59.6v2.8h-0.5l-1-1.7v1.7h-0.6v-2.8h0.5l1,1.7v-1.7H52.9z"/>
		<path class="st12" d="M56.3,60.1h-0.8v2.3H55v-2.3h-0.8v-0.5h2.1V60.1z"/>
		<path class="st12" d="M58.9,59.6v2.8h-0.6v-1.1h-1v1.1h-0.6v-2.8h0.6v1.1h1v-1.1H58.9z"/>
		<path class="st12" d="M61.3,61.8v0.5h-1.8v-2.8h1.7V60H60v0.7h1v0.5h-1v0.6H61.3z"/>
		<path class="st12" d="M62.8,61.3v-1.8h0.6v1.8c0,0.4,0.2,0.5,0.5,0.5s0.5-0.2,0.5-0.5v-1.8H65v1.8c0,0.6-0.5,1-1.1,1
			C63.3,62.4,62.8,62,62.8,61.3z"/>
		<path class="st12" d="M67,62.3l-0.9-1v1h-0.6v-2.8h0.6v0.9l0.7-0.9h0.7l-1.1,1.4l1.3,1.4C67.7,62.3,67,62.3,67,62.3z"/>
	</g>
	<path class="st12" d="M47.2,50.9h0.9v3.8h1.7v0.8h-2.7L47.2,50.9L47.2,50.9z"/>
</g>
<g>
	<polygon class="st14" points="459.1,17.1 437.5,17.1 437.5,56.6 448.2,67.9 459.1,56.6 	"/>
	<polygon class="st15" points="459.1,17.1 437.5,17.1 437.5,56.6 448.2,67.9 459.1,56.6 	"/>
	<g>
		<g>
			<defs>
				<polygon id="SVGID_1_" points="437.5,17.1 437.5,56.6 448.2,67.9 459.1,56.6 459.1,17.1 				"/>
			</defs>
			<clipPath id="SVGID_2_">
				<use xlink:href="#SVGID_1_"  style="overflow:visible;"/>
			</clipPath>
			<polygon class="st16" points="437.5,52.3 437.5,56.6 448.2,67.9 459.1,56.6 459.1,52.3 448.2,63.6 			"/>
		</g>
		<g>
			<defs>
				<polygon id="SVGID_3_" points="437.5,17.1 437.5,56.6 448.2,67.9 459.1,56.6 459.1,17.1 				"/>
			</defs>
			<clipPath id="SVGID_4_">
				<use xlink:href="#SVGID_3_"  style="overflow:visible;"/>
			</clipPath>
			<rect x="437.5" y="16.9" class="st17" width="21.5" height="3.4"/>
		</g>
	</g>
	<g>
		<path class="st18" d="M449.4,20.2c0,0.4-0.4,0.8-0.8,0.8s-0.8-0.4-0.8-0.8s0.4-0.8,0.8-0.8C449.1,19.4,449.4,19.8,449.4,20.2"/>
		<polygon class="st12" points="436.2,17.1 414.7,17.1 414.7,56.6 425.4,67.9 436.2,56.6 		"/>
		<polygon class="st15" points="436.2,17.1 414.7,17.1 414.7,56.6 425.4,67.9 436.2,56.6 		"/>
		<path class="st19" d="M420.5,51.4c-1.1,0-2,0.8-2,1.9c0,1.1,0.8,1.9,2,1.9c1.1,0,2-0.8,2-1.9S421.7,51.4,420.5,51.4 M420.5,54.4
			c-0.5,0-1-0.5-1-1.1s0.5-1.1,1-1.1s1,0.5,1,1.1S421.1,54.4,420.5,54.4"/>
		<polygon class="st19" points="425.9,51.4 424.7,51.4 424,52.5 423.4,51.4 422.3,51.4 423.5,53.3 422.2,55.2 423.3,55.2 424,54 
			424.8,55.2 426,55.2 424.7,53.2 		"/>
		<polygon class="st19" points="431.6,51.4 431.6,53.7 430,51.4 429.1,51.4 429.1,55.2 430,55.2 430,52.9 431.7,55.2 432.5,55.2 
			432.5,51.4 		"/>
		<polygon class="st19" points="426,52.2 428.6,52.2 428.6,51.4 426.5,51.4 		"/>
		<polygon class="st19" points="426.6,55.2 428.6,55.2 428.6,54.4 426.1,54.4 		"/>
		<polygon class="st19" points="425.5,52.9 425.3,53.2 425.6,53.7 428.6,53.7 428.6,52.9 		"/>
		<path class="st19" d="M432.4,42.9c0-0.3-0.2-0.5-0.5-0.5h-2.6l1.5-2.8c0.1-0.2,0-0.6-0.2-0.7c-0.2-0.1-0.6,0-0.7,0.2l-1.8,3.3
			h-5.3l-1.8-3.3c-0.1-0.2-0.5-0.3-0.7-0.2s-0.3,0.5-0.2,0.7l1.5,2.8h-2.3c-0.3,0-0.5,0.2-0.5,0.5s0.2,0.5,0.5,0.5h2.9l2.8,5.1
			c0.1,0.2,0.3,0.3,0.5,0.3s0.4-0.1,0.5-0.3l2.8-5.1h3.2C432.2,43.4,432.4,43.2,432.4,42.9 M425.4,47.1l-2.1-3.7h4.2L425.4,47.1z"/>
	</g>
	<text transform="matrix(1 0 0 1 421.8406 14.791)" class="st12 st8 st20">FRONT</text>
	<text transform="matrix(1 0 0 1 444.863 14.9424)" class="st12 st8 st20">BACK</text>
	<path class="st18" d="M426.6,20.2c0,0.4-0.4,0.8-0.8,0.8s-0.8-0.4-0.8-0.8s0.4-0.8,0.8-0.8C426.2,19.4,426.6,19.8,426.6,20.2"/>
	<path class="st19" d="M453.1,24.5c0-0.2-0.2-0.3-0.3-0.3H451l1-1.8c0.1-0.2,0-0.4-0.1-0.5c-0.2-0.1-0.4,0-0.5,0.1l-1.2,2.2h-3.5
		l-1.2-2.2c-0.1-0.2-0.3-0.2-0.5-0.1s-0.2,0.3-0.1,0.5l1,1.8h-1.6c-0.2,0-0.3,0.2-0.3,0.3c0,0.2,0.2,0.3,0.3,0.3h1.9l1.9,3.4
		c0.1,0.1,0.2,0.2,0.3,0.2s0.2-0.1,0.3-0.2l1.9-3.4h2.1C453,24.9,453.1,24.7,453.1,24.5 M448.5,27.4l-1.4-2.5h2.8L448.5,27.4z"/>
	<polygon class="st19" points="443.4,29.8 443.2,30.4 443.1,30.4 442.9,30 442.8,30.4 442.7,30.4 442.5,29.8 442.6,29.8 442.7,30.2 
		442.9,29.8 443,29.8 443.1,30.2 443.3,29.8 	"/>
	<polygon class="st19" points="444.4,29.8 444.2,30.4 444.1,30.4 444,30 443.8,30.4 443.7,30.4 443.5,29.8 443.6,29.8 443.7,30.2 
		443.9,29.8 444,29.8 444.2,30.2 444.3,29.8 	"/>
	<polygon class="st19" points="445.5,29.8 445.2,30.4 445.1,30.4 445,30 444.8,30.4 444.7,30.4 444.5,29.8 444.6,29.8 444.8,30.2 
		444.9,29.8 445,29.8 445.2,30.2 445.3,29.8 	"/>
	<path class="st19" d="M445.5,30.3C445.5,30.3,445.5,30.2,445.5,30.3c0.1-0.1,0.2,0,0.2,0C445.7,30.4,445.6,30.4,445.5,30.3
		C445.5,30.4,445.5,30.4,445.5,30.3"/>
	<path class="st19" d="M445.8,30.1c0-0.2,0.1-0.3,0.3-0.3c0.2,0,0.3,0.1,0.3,0.3c0,0.2-0.1,0.3-0.3,0.3S445.8,30.3,445.8,30.1
		 M446.3,30.1c0-0.1-0.1-0.2-0.2-0.2s-0.2,0.1-0.2,0.2s0.1,0.2,0.2,0.2C446.2,30.3,446.3,30.2,446.3,30.1"/>
	<polygon class="st19" points="446.9,30.4 446.8,30.2 446.6,30.4 446.5,30.4 446.7,30.1 446.5,29.8 446.7,29.8 446.8,30 446.9,29.8 
		447.1,29.8 446.9,30.1 447.1,30.4 	"/>
	<path class="st19" d="M447.7,30.1h-0.5c0,0.1,0.1,0.1,0.2,0.1S447.5,30.2,447.7,30.1l0,0.1c-0.1,0.1-0.2,0.2-0.3,0.2
		c-0.2,0-0.3-0.1-0.3-0.3c0-0.2,0.1-0.3,0.3-0.3S447.8,29.9,447.7,30.1C447.8,30.1,447.8,30.1,447.7,30.1 M447.6,30
		c0-0.1-0.1-0.1-0.2-0.1s-0.2,0-0.2,0.1H447.6z"/>
	<path class="st19" d="M448.5,30v0.3h-0.1V30c0-0.1-0.1-0.2-0.1-0.2s-0.2,0-0.2,0.2v0.3H448v-0.6h0.1v0.1c0-0.1,0.1-0.1,0.2-0.1
		C448.4,29.8,448.5,29.9,448.5,30"/>
	<path class="st19" d="M448.6,30.2h0.1c0,0,0,0.1,0.1,0.1s0.1,0,0.1-0.1c0,0,0-0.1-0.1-0.1h-0.1c-0.1,0-0.2-0.1-0.2-0.2
		s0.1-0.2,0.2-0.2s0.2,0.1,0.2,0.2h-0.1c0,0,0-0.1-0.1-0.1s-0.1,0-0.1,0.1c0,0,0,0.1,0.1,0.1h0.1c0.1,0,0.2,0.1,0.2,0.2
		s-0.1,0.2-0.2,0.2C448.7,30.4,448.6,30.3,448.6,30.2"/>
	<path class="st19" d="M449.9,30.1c0,0.2-0.1,0.3-0.3,0.3c-0.1,0-0.2,0-0.2-0.1v0.4h-0.1v-0.9h0.1v0.1c0-0.1,0.1-0.1,0.2-0.1
		S449.9,29.9,449.9,30.1 M449.7,30.1c0-0.1-0.1-0.2-0.2-0.2s-0.2,0.1-0.2,0.2s0.1,0.2,0.2,0.2C449.7,30.3,449.7,30.2,449.7,30.1"/>
	<path class="st19" d="M450,30.1c0-0.2,0.1-0.3,0.3-0.3c0.2,0,0.3,0.1,0.3,0.3c0,0.2-0.1,0.3-0.3,0.3S450,30.3,450,30.1 M450.5,30.1
		c0-0.1-0.1-0.2-0.2-0.2s-0.2,0.1-0.2,0.2s0.1,0.2,0.2,0.2C450.4,30.3,450.5,30.2,450.5,30.1"/>
	<path class="st19" d="M451.2,29.8v0.1h-0.1c-0.1,0-0.2,0.1-0.2,0.3v0.2h-0.1v-0.6h0.1v0.1c0-0.1,0.1-0.2,0.2-0.2
		C451.1,29.8,451.2,29.8,451.2,29.8"/>
	<polygon class="st19" points="451.6,29.9 451.5,29.9 451.5,30.4 451.3,30.4 451.3,29.9 451.2,29.9 451.2,29.8 451.3,29.8 
		451.3,29.6 451.5,29.6 451.5,29.8 451.6,29.8 	"/>
	<path class="st19" d="M451.7,30.2h0.1c0,0,0,0.1,0.1,0.1s0.1,0,0.1-0.1c0,0,0-0.1-0.1-0.1h-0.1c-0.1,0-0.2-0.1-0.2-0.2
		s0.1-0.2,0.2-0.2s0.2,0.1,0.2,0.2h0c0,0,0-0.1-0.1-0.1s-0.1,0-0.1,0.1c0,0,0,0.1,0.1,0.1h0.1c0.1,0,0.2,0.1,0.2,0.2
		s-0.1,0.2-0.2,0.2C451.8,30.4,451.7,30.3,451.7,30.2"/>
	<path class="st19" d="M452.3,30.3C452.3,30.3,452.3,30.2,452.3,30.3c0.1-0.1,0.2,0,0.2,0C452.5,30.4,452.4,30.4,452.3,30.3
		C452.3,30.4,452.3,30.4,452.3,30.3"/>
	<path class="st19" d="M452.6,30.1c0-0.2,0.2-0.3,0.3-0.3c0.1,0,0.2,0,0.2,0.1L453,30c0,0-0.1-0.1-0.2-0.1S452.6,30,452.6,30.1
		c0,0.1,0.1,0.2,0.2,0.2s0.1,0,0.2-0.1l0.1,0.1c-0.1,0.1-0.1,0.1-0.2,0.1C452.7,30.4,452.6,30.3,452.6,30.1"/>
	<path class="st19" d="M453.2,30.1c0-0.2,0.1-0.3,0.3-0.3c0.2,0,0.3,0.1,0.3,0.3c0,0.2-0.1,0.3-0.3,0.3
		C453.4,30.4,453.2,30.3,453.2,30.1 M453.7,30.1c0-0.1-0.1-0.2-0.2-0.2s-0.2,0.1-0.2,0.2s0.1,0.2,0.2,0.2
		C453.6,30.3,453.7,30.2,453.7,30.1"/>
	<path class="st19" d="M455,30v0.3h-0.1V30c0-0.1-0.1-0.2-0.1-0.2c-0.1,0-0.1,0.1-0.2,0.2v0.3h-0.1V30c0-0.1-0.1-0.2-0.1-0.2
		c-0.1,0-0.2,0-0.2,0.2v0.3H454v-0.6h0.1v0.1c0-0.1,0.1-0.1,0.2-0.1s0.2,0,0.2,0.1c0.1-0.1,0.2-0.1,0.2-0.1
		C454.9,29.8,455,29.9,455,30"/>
</g>
</svg>
