<?xml version="1.0" encoding="utf-8"?>
<!-- Generator: Adobe Illustrator 25.3.0, SVG Export Plug-In . SVG Version: 6.00 Build 0)  -->
<svg version="1.1" id="Layer_1" xmlns="http://www.w3.org/2000/svg" xmlns:xlink="http://www.w3.org/1999/xlink" x="0px" y="0px"
	 viewBox="0 0 400 140" style="enable-background:new 0 0 400 140;" xml:space="preserve">
<style type="text/css">
	.st0{fill:#FFFFFF;}
</style>
<g>
	<path class="st0" d="M246.7,87.8c-7.8,0-15-3-20.4-8.3c-5.4-5.3-8.4-12.5-8.4-20.1c0-7.6,3-14.8,8.4-20.1
		c5.4-5.4,12.7-8.3,20.4-8.3c8.4,0,14.9,2.7,20.5,8.4l0.1,0.1l-7.6,7.5l-0.1-0.2c-3.5-4-7.6-5.9-13-5.9c-10.5,0-17.5,7.4-17.5,18.5
		s7,18.5,17.5,18.5c5.2,0,9.6-2,13-5.9l0.1-0.2l7.6,7.4l-0.1,0.1C262.5,84.8,255.1,87.8,246.7,87.8"/>
	<path class="st0" d="M325.3,102.4c0,4-12.1,7.3-27.1,7.3c-15,0-27.1-3.3-27.1-7.3c0-4,12.1-7,27.1-7
		C313.2,95.3,325.3,98.4,325.3,102.4"/>
	<path class="st0" d="M150.3,87.8c-14.2,0-25.9-10.9-27.4-25.4c-0.1-1-0.1-2-0.1-3c0-7.6,2.8-14.8,8-20.1c5.2-5.4,12.1-8.3,19.6-8.3
		c9.7,0,18.5,5.1,23.5,13.6c2.6,4.4,3.5,10.2,3.5,14.2c0,1.2-0.1,2.5-0.2,3.7l0,0.2l-43.2,0c0.8,9.4,7.6,15.7,17,15.7
		c5.5,0,10.1-2.2,14-6.6l0.1-0.1l7.9,7l-0.1,0.1C167.7,84.6,159.7,87.8,150.3,87.8 M134.3,53.8H166c-0.3-2.5-1-4.4-2.1-6.2
		c-3-4.8-7.8-7.4-13.6-7.4c-7.8,0-13.9,4.8-15.8,12.5C134.4,53.2,134.3,53.6,134.3,53.8"/>
	<path class="st0" d="M95.5,87.9c-4.1,0-8.1-0.8-12-2.4c-3.9-1.6-7.2-4-9.8-7.3l-0.6-0.7l-0.1-0.1l8.1-7l0.7,1
		c1.4,2,3.3,3.8,5.8,5.2c2.4,1.4,5.1,2.1,8.1,2.1c1.3,0,2.6-0.1,3.8-0.4c1.2-0.3,2.3-0.7,3.3-1.2c1-0.6,1.7-1.3,2.3-2.2
		c0.6-0.9,0.8-2.1,0.8-3.5c0-2.3-1.1-4-3.3-5.2c-2.3-1.2-5.8-2.3-10.3-3.3c-1.8-0.5-3.7-1-5.5-1.6c-1.9-0.6-3.6-1.5-5.1-2.7
		c-1.5-1.1-2.8-2.6-3.8-4.3c-1-1.7-1.5-3.9-1.5-6.4c0-2.9,0.6-5.4,1.8-7.5c1.2-2.1,2.7-3.8,4.7-5.2c1.9-1.3,4.1-2.3,6.5-3
		c2.4-0.6,4.9-1,7.5-1c3.8,0,7.6,0.8,11.2,2.3c3.6,1.5,6.4,3.8,8.4,6.6l0.2,0.3l-7.9,6.7l-0.2-0.4c-1.2-1.9-2.8-3.4-4.9-4.6
		c-2.1-1.2-4.5-1.8-7.1-1.8c-1.2,0-2.3,0.1-3.5,0.4c-1.2,0.3-2.2,0.7-3.1,1.2c-0.9,0.5-1.6,1.2-2.1,2c-0.5,0.8-0.8,1.8-0.8,3
		c0,2.1,1,3.7,2.8,4.7c2,1.1,5,2.1,9,2.9c2.6,0.6,5,1.3,7.1,2.1c2.2,0.8,4.1,1.9,5.8,3.1c1.6,1.3,2.9,2.8,3.9,4.6
		c0.9,1.8,1.4,3.9,1.4,6.2c0,3.2-0.6,5.9-1.8,8.2c-1.2,2.2-2.9,4-4.9,5.5c-2,1.4-4.3,2.4-6.9,3C100.9,87.5,98.2,87.9,95.5,87.9"/>
	<path class="st0" d="M298.1,87.8c-7.8,0-15-3-20.4-8.3c-5.4-5.3-8.4-12.5-8.4-20.1c0-7.6,3-14.8,8.4-20.1
		c5.4-5.4,12.7-8.3,20.4-8.3c7.8,0,15,3,20.4,8.3c5.4,5.3,8.4,12.5,8.4,20.1c0,7.6-3,14.8-8.4,20.1
		C313.2,84.9,305.9,87.8,298.1,87.8 M298.1,40.8c-10.5,0-17.5,7.4-17.5,18.5c0,11.1,7,18.5,17.5,18.5c10.5,0,17.5-7.5,17.5-18.5
		C315.7,48.3,308.6,40.8,298.1,40.8"/>
	<path class="st0" d="M218.4,32.3c-2-0.9-4.6-1.4-6.2-1.4c-6.4,0-13.2,4.3-16,9.8h-0.1v-8.5h-10.6v54.2h10.6V60.6
		c0-11.8,5.6-18.6,15.3-18.6c1.5,0,2.9,0.3,4.5,0.8l0.2,0.1l2.5-10.5L218.4,32.3z"/>
</g>
</svg>
