<?xml version="1.0" encoding="utf-8"?>
<!-- Generator: Adobe Illustrator 25.3.0, SVG Export Plug-In . SVG Version: 6.00 Build 0)  -->
<svg version="1.1" id="Layer_1" xmlns="http://www.w3.org/2000/svg" xmlns:xlink="http://www.w3.org/1999/xlink" x="0px" y="0px"
	 viewBox="0 0 120 90" style="enable-background:new 0 0 120 90;" xml:space="preserve">
<style type="text/css">
	.st0{fill:#1D1D1B;}
</style>
<g>
	<g>
		<path class="st0" d="M9.4657936,34.7052612l-8.171051,8.1710548c-0.4736845,0.4736824-0.4736845,1.3026314,0,1.7763138
			l5.5263157,5.5263176L9.4657936,34.7052612z"/>
		<path class="st0" d="M6.9789534,50.2973671l4.6973696,4.6973686c0.4736824,0.4736862,1.3026323,0.4736862,1.7763157,0
			l4.6973686-4.6973686C18.1500072,50.2973671,6.9789534,50.2973671,6.9789534,50.2973671z"/>
		<path class="st0" d="M23.8342152,42.8763161l-8.5657883-8.5263176L13.3342161,45.639473h5.7631578l-0.7500019,4.5000038
			l5.4868431-5.4868469C24.3078995,44.1789474,24.3078995,43.389473,23.8342152,42.8763161"/>
		<polygon class="st0" points="97.3736877,39.9552612 95.3605347,44.6131592 95.0842209,39.9552612 93.7421112,39.9552612 
			91.7289505,44.6131592 91.4526367,39.9552612 89.597374,39.9552612 90.4657898,47.889473 91.8868484,47.889473 
			93.7815933,43.5473671 94.0578995,47.889473 95.4789505,47.889473 99.2684326,39.9552612 		"/>
		<path class="st0" d="M101.9131622,41.6526299c-1.7763214,0-3.4736786,1.4210548-3.7894821,3.1973686
			c-0.1578903,0.8684235,0.0394821,1.6973686,0.5526352,2.2894745s1.2631607,0.9473686,2.0920944,0.9473686
			c1.5394745,0,3.3947449-1.1052628,3.75-3.1973686c0.1578979-0.8684196-0.0394745-1.6973686-0.5526276-2.3289452
			C103.5315857,41.9684219,102.7815857,41.6526299,101.9131622,41.6526299 M101.7157898,43.3105278
			c0.3552628,0,0.6315842,0.1578941,0.8684311,0.3947372c0.2368393,0.3157883,0.3552551,0.7105255,0.2368393,1.1447334
			c-0.1578903,0.75-0.8684235,1.578949-1.7763138,1.578949c-0.3552628,0-0.6710587-0.1578941-0.9078903-0.3947372
			c-0.2368469-0.2763138-0.3157883-0.671051-0.2368469-1.1447372
			C100.0973816,43.8631592,101.0842209,43.3105278,101.7157898,43.3105278"/>
		<path class="st0" d="M109.2157898,41.6526299h-0.3552551c-0.4736938,0-0.7894745,0.1578941-1.0657959,0.3157921
			l0.0394745-0.1184235h-1.6578979l-1.1052628,6.078949h1.7763214l0.6315765-3.3552628
			c0.1184158-0.5526314,0.3552628-1.1447372,1.3026276-1.1842117h0.1578903L109.2157898,41.6526299z"/>
		<polygon class="st0" points="108.7421112,47.889473 110.5184326,47.889473 111.9789505,39.9552612 110.2026367,39.9552612 		"/>
		<path class="st0" d="M117.5842209,39.9552612l-0.3947372,2.1710548c-0.3552628-0.3157883-0.828949-0.4736862-1.4605331-0.4736862
			c-1.4605331,0-3.2763138,1.2236862-3.6315842,3.1973686c-0.1578903,0.9078979,0.0394745,1.7368431,0.5131531,2.328949
			c0.4736862,0.5921059,1.2236862,0.9078941,2.0131607,0.9078941c0.75,0,1.3421021-0.2763176,1.6973648-0.5526314
			l-0.0789566,0.3552628h1.6579056l1.4605255-7.9736862h-1.7762985V39.9552612z M115.6500092,43.3105278
			c0.3552628,0,0.6710587,0.1184196,0.8684235,0.3947372c0.2368469,0.2763138,0.3552628,0.7105255,0.2763214,1.1447334
			c-0.1578903,0.7894745-0.9078903,1.6184235-1.8157883,1.6184235c-0.3552628,0-0.6710587-0.1578979-0.8684311-0.3947372
			c-0.2368393-0.3157883-0.3552551-0.7105255-0.2368393-1.1842117
			C113.9921112,44.139473,114.7421112,43.3105278,115.6500092,43.3105278"/>
		<polygon class="st0" points="32.0447426,39.9552612 30.2289505,39.9552612 28.7289524,47.9289474 32.8736877,47.9289474 
			33.189476,46.1921043 30.8605328,46.1921043 		"/>
		<path class="st0" d="M39.0710602,42.2842102c-0.2763138-0.3157883-0.828949-0.6315804-1.6184235-0.6315804
			c-1.6973686,0-3.2763176,1.3421059-3.5921059,3.1578979c-0.1973686,0.9868393,0,1.8552628,0.5131569,2.4473686
			c0.4342117,0.5526314,1.1052666,0.8289452,1.8947372,0.8289452c0.5921059,0,1.3026352-0.2368431,1.8552628-0.5921059
			l-0.0789452,0.3947372h1.6578941l1.1052628-6.078949h-1.6578941L39.0710602,42.2842102z M35.6368446,44.9289474
			c0.1578941-0.7894745,0.828949-1.6578941,1.8157921-1.6578941c0.3552628,0,0.7105293,0.1578941,0.9078979,0.3947334
			c0.2368431,0.2763176,0.3157883,0.6710548,0.1973686,1.1447372c-0.1578941,0.9473686-0.9078979,1.6184235-1.7763176,1.6184235
			c-0.3947372,0-0.7105293-0.1184235-0.9078979-0.3947372C35.6368446,45.7578964,35.5578995,45.3631592,35.6368446,44.9289474"/>
		<path class="st0" d="M44.992115,41.6526299c-0.5921059,0-1.0657883,0.1973686-1.3815804,0.4342117l0.0394745-0.2368431H41.992115
			l-1.1052628,6.078949h1.7763176l0.5131569-2.8421059c0.0789452-0.4342117,0.1973686-1.0263176,0.4736824-1.3421059
			c0.2763176-0.3552628,0.671051-0.4342117,0.8684196-0.4342117c0.2368469,0,0.3947372,0.078949,0.5131607,0.1973686
			c0.2763138,0.3552628,0.1578903,1.1052628,0.0789452,1.3815804l-0.5526276,3.0394745h1.7763138l0.5921059-3.2368431
			c0.0789452-0.4736862,0.2763138-1.4605255-0.1578903-2.1710548C46.2947388,41.889473,45.5052681,41.6526299,44.992115,41.6526299"
			/>
		<path class="st0" d="M53.3605347,39.9552612l-0.3947372,2.1710548c-0.3552628-0.3157883-0.828949-0.4736862-1.4605255-0.4736862
			c-1.4605255,0-3.2763176,1.2236862-3.6315765,3.1973686c-0.1578941,0.9078979,0.0394745,1.7368431,0.5131569,2.328949
			s1.2236862,0.9078941,2.0131607,0.9078941c0.7499962,0,1.3421021-0.2763176,1.6973686-0.5526314l-0.0789452,0.3552628h1.6578941
			l1.4605255-7.9736862h-1.7763214V39.9552612z M51.4263191,43.3105278c0.3552589,0,0.671051,0.1184196,0.8684196,0.3947372
			c0.2368431,0.2763138,0.3552628,0.7105255,0.2763138,1.1447334c-0.1578903,0.7894745-0.9078941,1.6184235-1.8157921,1.6184235
			c-0.3552589,0-0.671051-0.1578979-0.8684196-0.3947372c-0.2368431-0.3157883-0.3552589-0.7105255-0.2368431-1.1842117
			C49.768425,44.139473,50.5184288,43.3105278,51.4263191,43.3105278"/>
		<path class="st0" d="M57.8210602,41.6526299c-1.0263176,0-2.2105293,0.7105293-2.4078979,1.9342117
			c-0.1578903,0.8684196,0.2368469,1.5394745,1.1052666,1.8552628c0.9473648,0.3552628,1.0263176,0.3947372,0.9868431,0.6315804
			c-0.0394783,0.1578941-0.1973686,0.3947334-0.5131607,0.3947334s-0.3947372-0.1973686-0.3947372-0.5526314v-0.1973686h-1.7763138
			v0.1973686c-0.0394783,0.3157883-0.078949,0.8684235,0.2368431,1.3421059
			c0.3157921,0.5131569,0.9868431,0.828949,1.7368393,0.828949c1.0263176,0,2.2894745-0.7500038,2.5657883-2.1315804
			c0.2763176-1.3815804-0.8684196-1.7368431-1.3815765-1.9342117H57.939476
			c-0.671051-0.2368431-0.7105255-0.2763138-0.671051-0.3947372c0.0394783-0.1184196,0.1578941-0.3157883,0.3947372-0.3157883
			c0.1578941,0,0.2368431,0.0394745,0.2368431,0.2763176v0.1973686h1.6973724l0.0394745-0.1578979
			c0.0789452-0.5526314-0.0394745-1.0263138-0.3552589-1.3815765
			C58.8868484,41.8499985,58.3736916,41.6526299,57.8210602,41.6526299"/>
		<path class="st0" d="M63.7026367,43.3105278c0.7105255,0,0.8684235,0.4342079,0.9868393,0.7105255l0.0394821,0.1184196h1.8947372
			l-0.0394745-0.2368431c-0.2368469-1.6578941-1.578949-2.25-2.6447372-2.25c-1.7368431,0-3.4342117,1.4210548-3.75,3.1578979
			c-0.1578941,0.8684196,0.0394745,1.6973648,0.5131569,2.3289452c0.5131607,0.5921059,1.2631569,0.9473686,2.1315765,0.9473686
			c1.3815804,0,2.6447334-0.7894707,3.3947411-2.1315765l0.1578903-0.3157921h-1.9736862l-0.0789413,0.078949
			c-0.3947372,0.4736862-0.7894745,0.7105255-1.22369,0.7105255c-0.3947372,0-0.7105255-0.1184196-0.9473648-0.3947372
			c-0.2368431-0.2763138-0.3157921-0.671051-0.2368431-1.1447372
			C62.1236916,43.8631592,62.9921112,43.3105278,63.7026367,43.3105278"/>
		<path class="st0" d="M72.4263229,41.8499985l-0.0789413,0.4736862c-0.3157959-0.3157883-0.8289566-0.6710548-1.6184235-0.6710548
			c-1.6973724,0-3.2763214,1.3421059-3.5921097,3.1578979c-0.1973724,0.9868393,0,1.8552628,0.5131607,2.4473686
			c0.4342117,0.5526314,1.1052628,0.8289452,1.8947372,0.8289452c0.5921021,0,1.3026276-0.2368431,1.8552628-0.5921059
			l-0.078949,0.3947372h1.6578903l1.1052704-6.078949h-1.6578979V41.8499985z M68.8736954,44.9289474
			c0.1578903-0.7894745,0.828949-1.6578941,1.8157883-1.6578941c0.3552628,0,0.7105255,0.1578941,0.9078979,0.3947334
			c0.2368469,0.2763176,0.3157883,0.6710548,0.1973648,1.1447372c-0.1578903,0.9473686-0.9078903,1.6184235-1.7763138,1.6184235
			c-0.3947372,0-0.7105255-0.1184235-0.9078979-0.3947372S68.7947388,45.3631592,68.8736954,44.9289474"/>
		<path class="st0" d="M78.4657898,41.6526299c-0.6315765,0-1.2236862,0.1973686-1.6973648,0.5526314l0.0789413-0.3552628
			h-1.6973572l-1.4605255,7.9736862h1.7763138l0.3947372-2.2105255c0.2763138,0.2763138,0.7105255,0.5131569,1.5,0.5131569
			c1.6973724,0,3.2763138-1.421051,3.5921097-3.1973686c0.1578903-0.9078941-0.0394745-1.7763176-0.5526276-2.4078941
			C79.9657974,41.9289474,79.2947464,41.6526299,78.4657898,41.6526299 M76.2947388,44.9289474
			c0.1973724-1.0263176,1.0657883-1.6184235,1.8157959-1.6184235c0.3552551,0,0.6315765,0.1578979,0.8684158,0.3947372
			c0.2368469,0.2763176,0.3157959,0.7105255,0.2368469,1.1447372c-0.1973724,1.1052628-1.1842117,1.6184196-1.7763138,1.6184196
			c-0.2763138,0-0.6315842-0.1184196-0.9078979-0.4342079C76.2552719,45.7578964,76.2157974,45.3631592,76.2947388,44.9289474"/>
		<path class="st0" d="M87.5052643,42.5210533c-0.4736862-0.5921059-1.1842117-0.8684235-2.0526352-0.8684235
			c-1.7763138,0-3.3947372,1.3815804-3.75,3.1973686c-0.1578903,0.9078979,0.0394745,1.6973686,0.5131607,2.328949
			c0.4736786,0.5921059,1.2236786,0.9078941,2.0921021,0.9078941c1.4605331,0,2.7631607-1.0657883,3.2763138-2.0921059
			l0.0394745-0.0789452H85.689476c-0.3157883,0.3157883-0.7105255,0.5131569-1.1842117,0.5131569
			c-0.4342117,0-0.7105255-0.1973686-0.828949-0.3157883c-0.1184158-0.1578979-0.2368469-0.2763176-0.2763214-0.4342117h4.3026276
			l0.0394745-0.1184196c0.0789566-0.1578979,0.1578903-0.4342117,0.2368469-0.7105255
			C88.1763229,43.9815788,87.9789505,43.1526299,87.5052643,42.5210533 M83.7157974,44.1789474
			c0.4736938-0.7894745,1.1842117-0.9078941,1.5-0.9078941c0.2368393,0,0.5921021,0.0394745,0.828949,0.2763176
			c0.1578903,0.1578941,0.2368469,0.3552628,0.2763214,0.5921021h-2.6052704V44.1789474z"/>
	</g>
	<g>
		<path class="st0" d="M9.4657936,34.7052612l-8.171051,8.1710548c-0.4736845,0.4736824-0.4736845,1.3026314,0,1.7763138
			l5.5263157,5.5263176L9.4657936,34.7052612z"/>
		<path class="st0" d="M6.9789534,50.2973671l4.6973696,4.6973686c0.4736824,0.4736862,1.3026323,0.4736862,1.7763157,0
			l4.6973686-4.6973686C18.1500072,50.2973671,6.9789534,50.2973671,6.9789534,50.2973671z"/>
		<path class="st0" d="M23.8342152,42.8763161l-8.5657883-8.5263176L13.3342161,45.639473h5.7631578l-0.7500019,4.5000038
			l5.4868431-5.4868469C24.3078995,44.1789474,24.3078995,43.389473,23.8342152,42.8763161"/>
		<polygon class="st0" points="97.3736877,39.9552612 95.3605347,44.6131592 95.0842209,39.9552612 93.7421112,39.9552612 
			91.7289505,44.6131592 91.4526367,39.9552612 89.597374,39.9552612 90.4657898,47.889473 91.8868484,47.889473 
			93.7815933,43.5473671 94.0578995,47.889473 95.4789505,47.889473 99.2684326,39.9552612 		"/>
		<path class="st0" d="M101.9131622,41.6526299c-1.7763214,0-3.4736786,1.4210548-3.7894821,3.1973686
			c-0.1578903,0.8684235,0.0394821,1.6973686,0.5526352,2.2894745s1.2631607,0.9473686,2.0920944,0.9473686
			c1.5394745,0,3.3947449-1.1052628,3.75-3.1973686c0.1578979-0.8684196-0.0394745-1.6973686-0.5526276-2.3289452
			C103.5315857,41.9684219,102.7815857,41.6526299,101.9131622,41.6526299 M101.7157898,43.3105278
			c0.3552628,0,0.6315842,0.1578941,0.8684311,0.3947372c0.2368393,0.3157883,0.3552551,0.7105255,0.2368393,1.1447334
			c-0.1578903,0.75-0.8684235,1.578949-1.7763138,1.578949c-0.3552628,0-0.6710587-0.1578941-0.9078903-0.3947372
			c-0.2368469-0.2763138-0.3157883-0.671051-0.2368469-1.1447372
			C100.0973816,43.8631592,101.0842209,43.3105278,101.7157898,43.3105278"/>
		<path class="st0" d="M109.2157898,41.6526299h-0.3552551c-0.4736938,0-0.7894745,0.1578941-1.0657959,0.3157921
			l0.0394745-0.1184235h-1.6578979l-1.1052628,6.078949h1.7763214l0.6315765-3.3552628
			c0.1184158-0.5526314,0.3552628-1.1447372,1.3026276-1.1842117h0.1578903L109.2157898,41.6526299z"/>
		<polygon class="st0" points="108.7421112,47.889473 110.5184326,47.889473 111.9789505,39.9552612 110.2026367,39.9552612 		"/>
		<path class="st0" d="M117.5842209,39.9552612l-0.3947372,2.1710548c-0.3552628-0.3157883-0.828949-0.4736862-1.4605331-0.4736862
			c-1.4605331,0-3.2763138,1.2236862-3.6315842,3.1973686c-0.1578903,0.9078979,0.0394745,1.7368431,0.5131531,2.328949
			c0.4736862,0.5921059,1.2236862,0.9078941,2.0131607,0.9078941c0.75,0,1.3421021-0.2763176,1.6973648-0.5526314
			l-0.0789566,0.3552628h1.6579056l1.4605255-7.9736862h-1.7762985V39.9552612z M115.6500092,43.3105278
			c0.3552628,0,0.6710587,0.1184196,0.8684235,0.3947372c0.2368469,0.2763138,0.3552628,0.7105255,0.2763214,1.1447334
			c-0.1578903,0.7894745-0.9078903,1.6184235-1.8157883,1.6184235c-0.3552628,0-0.6710587-0.1578979-0.8684311-0.3947372
			c-0.2368393-0.3157883-0.3552551-0.7105255-0.2368393-1.1842117
			C113.9921112,44.139473,114.7421112,43.3105278,115.6500092,43.3105278"/>
		<polygon class="st0" points="32.0447426,39.9552612 30.2289505,39.9552612 28.7289524,47.9289474 32.8736877,47.9289474 
			33.189476,46.1921043 30.8605328,46.1921043 		"/>
		<path class="st0" d="M39.0710602,42.2842102c-0.2763138-0.3157883-0.828949-0.6315804-1.6184235-0.6315804
			c-1.6973686,0-3.2763176,1.3421059-3.5921059,3.1578979c-0.1973686,0.9868393,0,1.8552628,0.5131569,2.4473686
			c0.4342117,0.5526314,1.1052666,0.8289452,1.8947372,0.8289452c0.5921059,0,1.3026352-0.2368431,1.8552628-0.5921059
			l-0.0789452,0.3947372h1.6578941l1.1052628-6.078949h-1.6578941L39.0710602,42.2842102z M35.6368446,44.9289474
			c0.1578941-0.7894745,0.828949-1.6578941,1.8157921-1.6578941c0.3552628,0,0.7105293,0.1578941,0.9078979,0.3947334
			c0.2368431,0.2763176,0.3157883,0.6710548,0.1973686,1.1447372c-0.1578941,0.9473686-0.9078979,1.6184235-1.7763176,1.6184235
			c-0.3947372,0-0.7105293-0.1184235-0.9078979-0.3947372C35.6368446,45.7578964,35.5578995,45.3631592,35.6368446,44.9289474"/>
		<path class="st0" d="M44.992115,41.6526299c-0.5921059,0-1.0657883,0.1973686-1.3815804,0.4342117l0.0394745-0.2368431H41.992115
			l-1.1052628,6.078949h1.7763176l0.5131569-2.8421059c0.0789452-0.4342117,0.1973686-1.0263176,0.4736824-1.3421059
			c0.2763176-0.3552628,0.671051-0.4342117,0.8684196-0.4342117c0.2368469,0,0.3947372,0.078949,0.5131607,0.1973686
			c0.2763138,0.3552628,0.1578903,1.1052628,0.0789452,1.3815804l-0.5526276,3.0394745h1.7763138l0.5921059-3.2368431
			c0.0789452-0.4736862,0.2763138-1.4605255-0.1578903-2.1710548C46.2947388,41.889473,45.5052681,41.6526299,44.992115,41.6526299"
			/>
		<path class="st0" d="M53.3605347,39.9552612l-0.3947372,2.1710548c-0.3552628-0.3157883-0.828949-0.4736862-1.4605255-0.4736862
			c-1.4605255,0-3.2763176,1.2236862-3.6315765,3.1973686c-0.1578941,0.9078979,0.0394745,1.7368431,0.5131569,2.328949
			s1.2236862,0.9078941,2.0131607,0.9078941c0.7499962,0,1.3421021-0.2763176,1.6973686-0.5526314l-0.0789452,0.3552628h1.6578941
			l1.4605255-7.9736862h-1.7763214V39.9552612z M51.4263191,43.3105278c0.3552589,0,0.671051,0.1184196,0.8684196,0.3947372
			c0.2368431,0.2763138,0.3552628,0.7105255,0.2763138,1.1447334c-0.1578903,0.7894745-0.9078941,1.6184235-1.8157921,1.6184235
			c-0.3552589,0-0.671051-0.1578979-0.8684196-0.3947372c-0.2368431-0.3157883-0.3552589-0.7105255-0.2368431-1.1842117
			C49.768425,44.139473,50.5184288,43.3105278,51.4263191,43.3105278"/>
		<path class="st0" d="M57.8210602,41.6526299c-1.0263176,0-2.2105293,0.7105293-2.4078979,1.9342117
			c-0.1578903,0.8684196,0.2368469,1.5394745,1.1052666,1.8552628c0.9473648,0.3552628,1.0263176,0.3947372,0.9868431,0.6315804
			c-0.0394783,0.1578941-0.1973686,0.3947334-0.5131607,0.3947334s-0.3947372-0.1973686-0.3947372-0.5526314v-0.1973686h-1.7763138
			v0.1973686c-0.0394783,0.3157883-0.078949,0.8684235,0.2368431,1.3421059
			c0.3157921,0.5131569,0.9868431,0.828949,1.7368393,0.828949c1.0263176,0,2.2894745-0.7500038,2.5657883-2.1315804
			c0.2763176-1.3815804-0.8684196-1.7368431-1.3815765-1.9342117H57.939476
			c-0.671051-0.2368431-0.7105255-0.2763138-0.671051-0.3947372c0.0394783-0.1184196,0.1578941-0.3157883,0.3947372-0.3157883
			c0.1578941,0,0.2368431,0.0394745,0.2368431,0.2763176v0.1973686h1.6973724l0.0394745-0.1578979
			c0.0789452-0.5526314-0.0394745-1.0263138-0.3552589-1.3815765
			C58.8868484,41.8499985,58.3736916,41.6526299,57.8210602,41.6526299"/>
		<path class="st0" d="M63.7026367,43.3105278c0.7105255,0,0.8684235,0.4342079,0.9868393,0.7105255l0.0394821,0.1184196h1.8947372
			l-0.0394745-0.2368431c-0.2368469-1.6578941-1.578949-2.25-2.6447372-2.25c-1.7368431,0-3.4342117,1.4210548-3.75,3.1578979
			c-0.1578941,0.8684196,0.0394745,1.6973648,0.5131569,2.3289452c0.5131607,0.5921059,1.2631569,0.9473686,2.1315765,0.9473686
			c1.3815804,0,2.6447334-0.7894707,3.3947411-2.1315765l0.1578903-0.3157921h-1.9736862l-0.0789413,0.078949
			c-0.3947372,0.4736862-0.7894745,0.7105255-1.22369,0.7105255c-0.3947372,0-0.7105255-0.1184196-0.9473648-0.3947372
			c-0.2368431-0.2763138-0.3157921-0.671051-0.2368431-1.1447372
			C62.1236916,43.8631592,62.9921112,43.3105278,63.7026367,43.3105278"/>
		<path class="st0" d="M72.4263229,41.8499985l-0.0789413,0.4736862c-0.3157959-0.3157883-0.8289566-0.6710548-1.6184235-0.6710548
			c-1.6973724,0-3.2763214,1.3421059-3.5921097,3.1578979c-0.1973724,0.9868393,0,1.8552628,0.5131607,2.4473686
			c0.4342117,0.5526314,1.1052628,0.8289452,1.8947372,0.8289452c0.5921021,0,1.3026276-0.2368431,1.8552628-0.5921059
			l-0.078949,0.3947372h1.6578903l1.1052704-6.078949h-1.6578979V41.8499985z M68.8736954,44.9289474
			c0.1578903-0.7894745,0.828949-1.6578941,1.8157883-1.6578941c0.3552628,0,0.7105255,0.1578941,0.9078979,0.3947334
			c0.2368469,0.2763176,0.3157883,0.6710548,0.1973648,1.1447372c-0.1578903,0.9473686-0.9078903,1.6184235-1.7763138,1.6184235
			c-0.3947372,0-0.7105255-0.1184235-0.9078979-0.3947372S68.7947388,45.3631592,68.8736954,44.9289474"/>
		<path class="st0" d="M78.4657898,41.6526299c-0.6315765,0-1.2236862,0.1973686-1.6973648,0.5526314l0.0789413-0.3552628
			h-1.6973572l-1.4605255,7.9736862h1.7763138l0.3947372-2.2105255c0.2763138,0.2763138,0.7105255,0.5131569,1.5,0.5131569
			c1.6973724,0,3.2763138-1.421051,3.5921097-3.1973686c0.1578903-0.9078941-0.0394745-1.7763176-0.5526276-2.4078941
			C79.9657974,41.9289474,79.2947464,41.6526299,78.4657898,41.6526299 M76.2947388,44.9289474
			c0.1973724-1.0263176,1.0657883-1.6184235,1.8157959-1.6184235c0.3552551,0,0.6315765,0.1578979,0.8684158,0.3947372
			c0.2368469,0.2763176,0.3157959,0.7105255,0.2368469,1.1447372c-0.1973724,1.1052628-1.1842117,1.6184196-1.7763138,1.6184196
			c-0.2763138,0-0.6315842-0.1184196-0.9078979-0.4342079C76.2552719,45.7578964,76.2157974,45.3631592,76.2947388,44.9289474"/>
		<path class="st0" d="M87.5052643,42.5210533c-0.4736862-0.5921059-1.1842117-0.8684235-2.0526352-0.8684235
			c-1.7763138,0-3.3947372,1.3815804-3.75,3.1973686c-0.1578903,0.9078979,0.0394745,1.6973686,0.5131607,2.328949
			c0.4736786,0.5921059,1.2236786,0.9078941,2.0921021,0.9078941c1.4605331,0,2.7631607-1.0657883,3.2763138-2.0921059
			l0.0394745-0.0789452H85.689476c-0.3157883,0.3157883-0.7105255,0.5131569-1.1842117,0.5131569
			c-0.4342117,0-0.7105255-0.1973686-0.828949-0.3157883c-0.1184158-0.1578979-0.2368469-0.2763176-0.2763214-0.4342117h4.3026276
			l0.0394745-0.1184196c0.0789566-0.1578979,0.1578903-0.4342117,0.2368469-0.7105255
			C88.1763229,43.9815788,87.9789505,43.1526299,87.5052643,42.5210533 M83.7157974,44.1789474
			c0.4736938-0.7894745,1.1842117-0.9078941,1.5-0.9078941c0.2368393,0,0.5921021,0.0394745,0.828949,0.2763176
			c0.1578903,0.1578941,0.2368469,0.3552628,0.2763214,0.5921021h-2.6052704V44.1789474z"/>
	</g>
</g>
</svg>
