<?xml version="1.0" encoding="utf-8"?>
<!-- Generator: Adobe Illustrator 25.3.0, SVG Export Plug-In . SVG Version: 6.00 Build 0)  -->
<svg version="1.1" id="Layer_1" xmlns="http://www.w3.org/2000/svg" xmlns:xlink="http://www.w3.org/1999/xlink" x="0px" y="0px"
	 viewBox="0 0 120 90" style="enable-background:new 0 0 120 90;" xml:space="preserve">
<style type="text/css">
	.st0{fill:#FFFFFF;}
</style>
<g>
	<path class="st0" d="M35.51598,39.70953l0.03713-0.08446c3.45113-0.63356,8.16373-2.49167,8.16373-7.34801
		c0-2.53379-1.22456-4.51849-3.11698-5.74327c0.92754-1.01352,3.82197-2.28042,5.19504-2.28042L45.72064,24
		c-2.11519,0.12658-4.11899,1.05586-6.04854,1.9847C36.92617,24.67568,34.106,24,30.80338,24
		c-8.08926,0-19.07295,6.50341-19.07295,15.75187c0,4.18065,2.22635,7.13675,5.97407,7.13675
		c5.15792,0,7.75554-4.64529,7.75554-9.88181c0-1.18244-0.14851-2.36488-0.25968-3.04055l-0.40819,0.04234
		c0.07404,0.88672,0.22255,1.81578,0.22255,3.16714c0,4.64529-2.37486,8.95274-6.19684,8.95274
		c-2.82018,0-4.11899-3.46285-4.11899-6.20769c0-9.5863,8.83159-15.41403,15.88193-15.41403
		c2.48625,0,5.2693,0.80226,7.23598,2.5338c-11.16933,6.84125-12.69069,27.61837-22.8211,27.61837
		c-2.48603,0-3.8591-1.09776-3.8591-3.37839c0-0.16892,0-0.33784,0.03713-0.50676c0.59361-0.1268,1.33594-0.92884,1.33594-1.98492
		c0-1.18244-0.70521-2.06916-1.85551-2.06916c-1.55849,0-2.33774,1.39348-2.33774,2.99843
		c0,3.46264,3.19124,5.44755,6.34535,5.44755c14.6945,0,16.73543-20.48141,24.15682-27.19607
		c1.07605,1.05564,1.55849,2.57592,1.55849,4.13853c0,5.02525-3.8591,7.26355-7.49565,7.51693l-0.03712,0.33784
		c3.52517,0,5.23217,1.64708,5.23217,5.36331c0,3.92727-2.44912,9.3327-6.34534,9.3327c-1.26169,0-2.00381-0.75992-2.00381-2.19595
		c0-1.22456,0.44531-2.2802,1.44711-2.95588c-0.55648-0.54932-1.22434-0.84481-1.96668-0.84481
		c-1.26147,0-2.30061,1.2669-2.30061,2.7025c0,2.61847,2.48625,3.80091,4.56431,3.80091
		c5.04653,0,10.16732-3.88515,10.16732-10.09306C41.63877,40.63859,38.59605,40.13183,35.51598,39.70953z"/>
	<path class="st0" d="M84.61386,55.10012c2.20768-4.44098,4.17349-9.0283,6.35078-13.54245l-2.9637,0.14677
		c-0.30223,0.91755-1.05824,2.45889-1.93541,4.2206c-2.11693,4.22039-5.41325,8.18414-6.86448,8.18414
		c-0.45378,0-0.78642-0.40384-0.78642-0.99094c0-1.54156,2.02617-5.17485,5.38285-11.56058l-3.20557,0.14677
		c-0.88306,1.85676-1.81499,3.62387-2.60894,5.23271c-0.23257,0.10107-0.47197,0.1623-0.71734,0.1623
		c-0.87717,0-1.30055-0.47723-1.30055-1.57825c0-1.65142,0.78641-3.08268,1.54242-4.40407
		c-2.26804,0.0736-2.78218,0.18369-3.65891,1.24801c-0.6049,0.73387-2.3588,1.54134-5.38329,6.09218l-0.06036-0.07339
		l3.99197-6.82627l-3.44744,0.14677c-0.82047,1.71737-1.65049,3.41522-2.48055,5.10743
		c-0.30937,0.17671-0.63299,0.28757-0.96732,0.28757c-0.87673,0-1.30012-0.47723-1.30012-1.57825
		c0-1.65142,0.78597-3.08268,1.54242-4.40407c-2.26847,0.0736-2.78218,0.18369-3.65935,1.24801
		c-0.6049,0.73387-2.3588,1.54134-5.38285,6.09218l-0.06057-0.07339l3.99176-6.82627l-3.44744,0.14677
		c-1.20551,2.52329-2.42999,5.009-3.64673,7.48705c-0.32229,0.40062-0.6493,0.79559-0.98032,1.17411
		c-2.05635,2.31233-4.17327,3.59682-5.86681,3.59682c-1.72372,0-2.75179-1.46817-2.75179-3.55991
		c0-0.44032,0.06036-0.88108,0.15112-1.3214c2.11692-0.5504,8.70935-2.09174,8.70935-5.65186
		c0-1.46795-1.02806-2.31211-2.75179-2.31211c-3.78028,0-9.0118,4.918-9.0118,9.6154c0,2.64235,1.42127,4.47746,3.71949,4.47746
		c2.23786,0,4.83853-0.95403,7.62071-4.00023c0.13445-0.14811,0.25941-0.2939,0.38835-0.44067
		c-0.62832,1.28381-1.25368,2.56739-1.86976,3.85381l3.05423-0.1103c1.78429-4.00023,4.44554-8.69785,7.86258-11.45028
		l0.06079,0.07339c-0.27227,0.51392-0.45378,1.1744-0.45378,1.79841c0,1.98166,0.99789,3.04598,2.60067,3.04598
		c0.77414,0,1.50378-0.22203,2.17348-0.60601c-1.18887,2.42154-2.37603,4.83031-3.53439,7.24881l3.05445-0.1103
		c1.78429-4.00023,4.44533-8.69785,7.8628-11.45028l0.06036,0.07339c-0.27227,0.51392-0.45378,1.1744-0.45378,1.79841
		c0,1.98166,0.99831,3.04598,2.60066,3.04598c0.67706,0,1.32028-0.16889,1.91891-0.46795
		c-0.99249,2.05613-1.707,3.82317-1.707,5.12887c0,1.24801,0.54411,2.34881,1.87505,2.34881
		c2.53987,0,5.17094-3.55991,6.35033-5.28471l0.06036,0.07339c-2.69143,5.39501-6.56225,15.78118-12.73108,15.78118
		c-1.93541,0-3.41747-1.57846-3.41747-4.14743c0-2.20203,0.99789-3.92684,2.72182-3.92684c0.21148,0,0.39299,0,0.54411,0.03691
		v-0.33046c-0.33263-0.07339-0.87673-0.14677-1.36047-0.14677c-2.23808,0-4.44576,1.2111-4.44576,4.11053
		C65.59237,64.7889,68.37455,66,71.27789,66c5.77584,0,10.1608-4.44098,13.06414-10.42308
		c3.87083-1.2111,7.89276-5.68856,10.61415-10.53273l-0.24187-0.25686C92.32555,48.86094,88.48469,53.77872,84.61386,55.10012z
		 M49.56454,41.55766c0.48396,0,0.81659,0.29355,0.81659,0.95425c0,2.3855-2.93352,5.39479-6.22962,6.20226
		C44.66543,46.25528,47.53837,41.55766,49.56454,41.55766z"/>
	<path class="st0" d="M99.95212,38.21531c0-1.35787-0.69566-2.4222-1.84465-2.4222c-0.96793,0-1.48207,0.80747-1.48207,1.8718
		c0,0.88064,0.48418,1.50465,1.2098,1.50465c0.24187,0,0.48374-0.11008,0.69565-0.14677
		c-0.45378,3.37644-3.02405,4.47746-5.4736,4.99117v0.36694C95.68787,44.01395,99.95212,42.06876,99.95212,38.21531z"/>
	<path class="st0" d="M111.4417,44.9708c-2.57071,4.11031-5.35246,8.44099-9.46558,9.54179v-0.07338
		c1.1794-0.33002,2.32883-1.94497,2.32883-3.85345c0-1.46774-0.6049-2.49558-1.2098-3.44961
		c-0.6049-0.99094-1.20936-1.98188-1.20936-3.33974c0-1.28448,0.63486-2.23873,1.7539-2.23873
		c0.93752,0,1.39088,0.84417,1.39088,1.83488c0,0.91755-0.18152,1.90849-0.6049,2.86274
		c0.18152,0.07339,0.51414,0.18346,0.87717,0.18346c1.149,0,2.02617-1.02763,2.02617-2.4222
		c0-1.8351-1.48206-2.89943-3.41747-2.89943c-2.14689,0-4.44533,1.39478-4.44533,4.14722c0,1.13771,0.6049,2.09196,1.2098,3.08289
		c0.6049,0.95403,1.20979,1.98188,1.20979,3.26636c0,1.90849-1.60278,3.15606-3.08485,3.15606
		c-1.1794,0-2.17728-0.99094-2.17728-2.34881c0-0.55062,0.15112-1.06433,0.36302-1.50465
		c0.21148,0.14677,0.42339,0.18369,0.66526,0.18369c0.63486,0,1.20936-0.55062,1.20936-1.57847
		c0-0.80725-0.5137-1.57803-1.45123-1.57803c-1.42127,0-2.17728,1.79819-2.17728,3.33975c0,2.97281,2.23765,3.92684,4.32417,3.92684
		c5.86659,0,8.92104-4.88087,12.12661-10.01902L111.4417,44.9708z"/>
</g>
</svg>
