<?xml version="1.0" encoding="utf-8"?>
<!-- Generator: Adobe Illustrator 25.3.0, SVG Export Plug-In . SVG Version: 6.00 Build 0)  -->
<svg version="1.1" id="Layer_1" xmlns="http://www.w3.org/2000/svg" xmlns:xlink="http://www.w3.org/1999/xlink" x="0px" y="0px"
	 viewBox="0 0 120 60" style="enable-background:new 0 0 120 60;" xml:space="preserve">
<style type="text/css">
	.st0{fill:#FFFFFF;}
	.st1{fill:#636569;}
	.st2{fill:#E40078;}
	.st3{fill-rule:evenodd;clip-rule:evenodd;fill:#FFFFFF;}
</style>
<g>
	<rect x="8.68548" y="14.13983" class="st0" width="102.62904" height="31.5"/>
	<g>
		<ellipse class="st1" cx="105.79814" cy="40.0412" rx="2.5169" ry="2.46579"/>
		<g>
			<path class="st2" d="M34.86644,39.02401c-0.94053,1.10374-2.27066,1.95962-3.98855,2.56852
				c-1.71881,0.608-3.62279,0.91245-5.71285,0.91245c-2.19457,0-4.11964-0.4688-5.77427-1.40819
				c-1.65464-0.9376-2.9316-2.29999-3.83179-4.08628c-0.9002-1.78539-1.36129-3.88421-1.38421-6.29646v-1.68929
				c0-2.47961,0.42626-4.62692,1.27971-6.44105c0.85345-1.81503,2.08457-3.20257,3.69246-4.16352
				c1.60789-0.96185,3.49261-1.44232,5.65235-1.44232c3.00677,0,5.35809,0.7023,7.05398,2.1069
				c1.69497,1.4055,2.69967,3.45043,3.01318,6.13481H29.7806c-0.23284-1.42167-0.74619-2.46255-1.54188-3.12263
				c-0.79569-0.65919-1.88931-0.98969-3.28269-0.98969c-1.77656,0-3.1296,0.6547-4.05822,1.96231
				c-0.92953,1.30851-1.3998,3.25375-1.4108,5.83574v1.58691c0,2.60534,0.5051,4.57304,1.5153,5.904s2.49067,1.99644,4.4414,1.99644
				c1.96173,0,3.36153-0.40953,4.19756-1.22858v-4.28296h-4.75491v-3.77105h9.98008V39.02401z"/>
			<path class="st2" d="M41.93967,42.55717h-5.051v-25.5793h5.051V42.55717z"/>
			<path class="st2" d="M78.95589,33.10295c0,2.95829-0.64443,5.26366-1.93331,6.91973
				c-1.28888,1.65427-3.08927,2.4823-5.39935,2.4823c-2.04424,0-3.67504-0.76786-4.89425-2.30358l-0.22642,2.35577h-4.52849
				v-25.5793h5.03358v8.37822c1.16054-1.33096,2.68776-1.99644,4.58073-1.99644c2.29908,0,4.1013,0.82803,5.4076,2.4823
				c1.30629,1.65606,1.95989,3.98479,1.95989,6.98798V33.10295z M73.92231,32.74462c0-1.86532-0.30251-3.22771-0.90569-4.08628
				c-0.6041-0.85946-1.5043-1.28875-2.69967-1.28875c-1.60239,0-2.70609,0.64303-3.30928,1.92818v7.28615
				c0.6151,1.29683,1.7298,1.94525,3.34411,1.94525c1.62531,0,2.69326-0.78492,3.20477-2.35477
				C73.80039,35.4236,73.92231,34.28034,73.92231,32.74462z"/>
			<path class="st2" d="M90.83629,42.55717c-0.23284-0.44365-0.4006-1.38853-0.5051-2.04862
				c-1.21921,1.33096-2.80418,1.99644-4.75491,1.99644c-1.84623,0-3.3762-0.52268-4.5899-1.56985
				c-1.21371-1.04627-1.81964-2.36555-1.81964-3.95875c0-1.95602,0.73977-3.45762,2.22024-4.50478
				c1.48047-1.04627,3.62003-1.57524,6.41871-1.58691h2.3165v-1.05794c0-0.85318-0.22368-1.53572-0.67102-2.04763
				c-0.44735-0.51191-1.15229-0.76786-2.11574-0.76786c-0.84795,0-1.51255,0.19937-1.99474,0.59723
				c-0.48219,0.39875-0.72236,0.94478-0.72236,1.6381h-5.03358c0-1.06872,0.33643-2.05841,1.0102-2.96906
				c0.67286-0.90976,1.62531-1.62373,2.85643-2.14193c1.23021-0.5173,2.61259-0.77594,4.1453-0.77594
				c2.322,0,4.16547,0.57118,5.52952,1.71534c1.36404,1.14236,2.04699,2.74993,2.04699,4.82001v8.00282
				c0.01099,1.75216,0.26125,3.47119,0.74894,4.36927v0.29008H90.83629z M86.67357,38.73393
				c0.74252,0,1.42822-0.16255,2.05524-0.48586c0.62702-0.32511,1.09087-0.75978,1.39338-1.30581v-3.17383h-1.88107
				c-2.52,0-3.86113,0.85318-4.02338,2.55954l-0.01742,0.29008c0,0.61429,0.22001,1.12081,0.66186,1.51866
				C85.30311,38.53545,85.90721,38.73393,86.67357,38.73393z"/>
			<path class="st2" d="M102.21159,42.55717h-5.051v-25.5793h5.051V42.55717z"/>
		</g>
		<path class="st3" d="M54.48915,17.34965c-6.821-1.42631-13.60281,2.97016-15.03055,9.82245
			c-1.42773,6.8127,3.01357,13.54599,9.83503,14.97145c6.86069,1.42631,13.60327-2.96994,15.03055-9.82223
			C65.75237,25.50862,61.35025,18.77555,54.48915,17.34965z"/>
		<path class="st1" d="M64.88638,29.99023c0.03033-7.03394-5.71562-12.86548-12.80878-12.99978
			c-7.09335-0.13427-12.88865,5.47907-12.91897,12.51302c-0.03054,7.03349,5.7154,12.86502,12.80849,12.99916
			C59.06049,42.63684,64.85593,37.02443,64.88638,29.99023z M62.30934,36.36235c-0.96352,1.4883-2.21989,2.71839-3.7845,3.67885
			l-0.88097-0.01682c2.47902-1.65802,3.79131-3.67856,3.79131-3.67856L62.30934,36.36235z M61.82481,35.67127
			c0.87646-1.52333,1.4157-3.2478,1.48048-5.36329l0.88679,0.0156c-0.0639,1.94475-0.57624,3.72676-1.49369,5.36448
			L61.82481,35.67127z M63.3077,29.59413c-0.05385-2.30802-0.68645-4.18908-1.67526-5.80283l0.88155,0.01656
			c1.02961,1.74806,1.62647,3.70268,1.68087,5.80317L63.3077,29.59413z M61.15555,23.10014
			c-0.94958-1.35715-2.15751-2.43488-3.36679-3.30275l0.98129,0.01838c1.34681,0.90699,2.4199,1.97592,3.3099,3.30187
			L61.15555,23.10014z M42.01392,22.72956c0.8959-1.26694,1.96843-2.29769,3.34066-3.16762l1.05292,0.01988
			c-1.2831,0.86036-2.40736,1.81405-3.3946,3.1747L42.01392,22.72956z M39.86645,29.15052
			c0.06699-2.11352,0.67324-4.05786,1.70619-5.7497l0.99485,0.02202c-0.98497,1.55699-1.66482,3.42397-1.73198,5.74581
			L39.86645,29.15052z M42.67968,35.98949c1.02775,1.59875,2.34335,2.83121,3.72601,3.82212l-0.97428-0.01818
			c-1.55081-1.01834-2.78941-2.29113-3.74154-3.81598 M46.99496,36.07244c0.72235,1.73692,1.16726,2.49296,2.17342,3.78666
			l-1.54498-0.02423c-1.43992-0.90793-2.91942-2.11516-4.10924-3.82833L46.99496,36.07244z M47.4499,35.39934
			c-0.56307-1.55226-0.94142-3.32151-0.97202-5.40982l5.25117,0.09915c-0.00816,1.86985-0.01821,3.70125-0.02526,5.39094
			L47.4499,35.39934z M50.72947,18.98192c0.40053-0.39507,0.78179-0.71972,1.05157-0.93006
			c-0.00057,0.12678-0.00201,0.45675-0.0042,0.94952L50.72947,18.98192z M46.48109,29.27576
			c0.05583-2.28022,0.53448-4.17712,1.19827-5.74873l4.07767,0.07716c-0.0075,1.74948-0.01612,3.75245-0.02497,5.77082
			L46.48109,29.27576z M51.68154,40.58658c-0.00185,0.48127-0.00135,0.80445-0.00191,0.93072
			c-0.35086-0.29432-0.64814-0.59656-0.98618-0.94991L51.68154,40.58658z M47.97652,22.85068
			c0.6374-1.31828,1.42703-2.4004,2.12643-3.19888l1.67125,0.03159c-0.00383,0.844-0.00849,1.95861-0.01413,3.23861
			L47.97652,22.85068z M50.05869,39.88096c-0.78561-0.95412-1.65579-2.18833-2.33993-3.79464l3.98394,0.07504
			c-0.00658,1.49798-0.014,2.77732-0.01825,3.75001L50.05869,39.88096z M41.28958,35.28258
			c-0.8853-1.6486-1.3861-3.44712-1.43895-5.38345l0.00083-0.03531l0.98958,0.01209l-0.00024,0.01392
			c0.04709,2.10829,0.58588,3.87405,1.43022,5.41156L41.28958,35.28258z M52.37199,39.92467l0.01846-3.7501l3.98943,0.07302
			c-0.69648,1.57386-1.5658,2.76162-2.35988,3.70849L52.37199,39.92467z M56.5439,23.6926
			c0.6522,1.60035,1.12025,3.50992,1.15347,5.79542l-5.27737-0.09989l0.02477-5.77123l4.09907,0.07769l-4.12251-0.07774
			 M58.38472,29.50093c-0.03085-2.26048-0.46547-4.13474-1.11427-5.7923l3.54567,0.06709
			c1.05247,1.59378,1.74518,3.47181,1.80363,5.80573L58.38472,29.50093z M52.42421,22.9348l3.81095,0.07195 M41.52829,29.89576
			l4.26182,0.08302c0.02926,2.07068,0.39258,3.86459,0.93599,5.40669l-3.70565-0.07022
			C42.11815,33.81673,41.57221,32.0469,41.52829,29.89576L41.528,29.88904 M55.2129,40.6531
			c-0.53724,0.26207-1.08755,0.49176-1.52969,0.66181l-0.00652-0.01665c0.20097-0.19196,0.43443-0.42152,0.65514-0.66168
			L55.2129,40.6531z M54.88637,39.97226c0.79982-0.97658,1.57507-2.14519,2.23706-3.70811l3.42356,0.06473
			c-1.17778,1.62464-2.66186,2.7988-4.10666,3.67255L54.88637,39.97226z M57.38438,35.5873
			c0.55069-1.50528,0.94523-3.331,0.99714-5.37261l4.23582,0.08017c-0.06895,2.13711-0.67657,3.9039-1.58056,5.36162
			L57.38438,35.5873z M56.9868,23.0211c-0.59374-1.3408-1.29286-2.40071-1.98389-3.27634l1.58253,0.02958
			c1.30136,0.81521,2.62651,1.87739,3.732,3.30991L56.9868,23.0211z M54.45596,19.05192
			c-0.23459-0.26562-0.46123-0.5034-0.67374-0.71371l0.00262-0.01401c0.46258,0.19218,1.02118,0.44944,1.58633,0.74553
			L54.45596,19.05192z M56.79614,19.09653c-0.65631-0.4008-1.34058-0.75627-1.91937-1.02838l-0.02938-0.02685
			c0.95147,0.23887,1.91422,0.62564,2.76504,1.07083L56.79614,19.09653z M57.29717,40.69292
			c-0.80117,0.39833-1.37834,0.57147-2.1875,0.76088c0.46976-0.21725,0.9071-0.42351,1.48552-0.77441L57.29717,40.69292z
			 M52.4648,19.01451l0.00396-0.95874l-0.0082-0.00016c0.26409,0.2161,0.64885,0.57753,1.04076,0.97846L52.4648,19.01451z
			 M52.44761,22.93531l0.01394-3.23902l1.67423,0.03168c0.74124,0.86728,1.46512,1.93158,2.09938,3.27878L52.44761,22.93531z
			 M57.68677,30.20172c-0.05181,2.08098-0.42655,3.838-1.02619,5.37172l-4.26705-0.08056l0.02328-5.39098L57.68677,30.20172z
			 M53.38658,40.61885c-0.3871,0.38445-0.7429,0.69442-1.00767,0.90541l-0.01143-0.00069l0.00383-0.9242L53.38658,40.61885z
			 M50.43377,41.30023c-0.53411-0.22569-1.08134-0.50345-1.5712-0.76282l-0.00044,0.00267l0.87896,0.01674
			C49.97279,40.82872,50.20824,41.07772,50.43377,41.30023z M47.41945,40.49385l0.0494,0.02746
			c0.58175,0.35741,1.14656,0.661,1.66871,0.91583c-0.86818-0.22252-1.69962-0.53681-2.53407-0.95411L47.41945,40.49385z
			 M46.51768,18.90198c0.97395-0.47933,1.92921-0.8004,2.96917-1.00446c-0.6135,0.25978-1.27449,0.59112-2.03073,1.0224
			L46.51768,18.90198z M48.87464,18.94673c0.56507-0.27287,1.13664-0.51581,1.59824-0.68893l0.03025-0.01196
			c-0.21738,0.20446-0.47087,0.45699-0.71209,0.71814L48.87464,18.94673z M43.89177,22.76696
			c1.10928-1.37601,2.42133-2.37183,3.74709-3.16175l1.59093,0.03016c-0.71549,0.87132-1.40701,1.89796-2.00201,3.19772
			L43.89177,22.76696z M41.53808,29.18194l-0.00031,0.00705c0.0732-2.34775,0.79963-4.2219,1.85077-5.74786l3.54931,0.06688
			c-0.63812,1.59281-1.09121,3.50304-1.1445,5.75402L41.53808,29.18194z"/>
	</g>
</g>
</svg>
