<?xml version="1.0" encoding="utf-8"?>
<!-- Generator: Adobe Illustrator 25.3.0, SVG Export Plug-In . SVG Version: 6.00 Build 0)  -->
<svg version="1.1" id="Layer_1" xmlns="http://www.w3.org/2000/svg" xmlns:xlink="http://www.w3.org/1999/xlink" x="0px" y="0px"
	 viewBox="0 0 170 80" style="enable-background:new 0 0 170 80;" xml:space="preserve">
<style type="text/css">
	.st0{fill:#FFFFFF;}
	.st1{fill:#E30613;}
</style>
<g>
	<rect x="43.62728" y="3" class="st0" width="82.74545" height="73.99999"/>
	<g>
		<path class="st1" d="M69.8928,46.63969c0.08421,0.6768,0.29457,2.19936,1.26197,3.55278
			c1.9769,2.74911,5.59419,2.87598,6.43562,2.87598c3.9538,0,6.81406-1.734,6.81406-4.69456
			c0-3.04514-2.86026-3.80651-7.36091-4.90619c-4.33259-1.0574-10.81014-2.62225-10.81014-9.00872
			c0.00001-4.39855,3.49116-8.4165,10.72593-8.4165c6.26738,0,11.23067,2.74912,11.48314,9.13559l-4.92137,0.29602
			c-0.16825-1.43799-0.63089-5.15992-6.43562-5.15992c-3.02851,0-6.09895,1.14197-6.09895,3.8488
			c0,2.28394,1.80865,3.21447,7.02441,4.39855c4.75312,1.09969,11.31489,2.57997,11.31489,9.51637
			c0,3.97548-2.52376,9.26227-11.81964,9.26226c-9.33781,0-12.07193-5.70967-12.40842-10.27738L69.8928,46.63969z"/>
	</g>
	<g>
		<path class="st1" d="M106.62635,39.0518l-0.00001,17.11258h-2.64032v-14.9855h-0.04626l-4.40054,14.9855l-2.54762,0
			l-4.40053-14.9855h-0.04626l-0.00001,14.9855h-2.64032V39.0518h4.46994l3.93734,13.40799h0.04626l4.00675-13.40799H106.62635z"/>
	</g>
	<g>
		<path d="M110.27419,39.80125v4.45186c0,1.12679,0,2.47442,1.766,2.47442c1.72298,0,1.76582-1.19312,1.76582-2.43032v-4.49596
			h1.2627l-0.00001,4.37451c0,1.48028,0,3.66754-3.01785,3.66753c-3.01803,0-3.03935-2.16521-3.03935-3.63446l0.00001-4.40758
			H110.27419z"/>
		<path d="M117.9698,39.80125v3.78898l3.31766-3.78898h1.60534l-3.00719,3.24772l3.28549,4.66168h-1.59467l-2.54707-3.76693
			l-1.05956,1.15986l-0.00001,2.60707h-1.26269v-7.9094H117.9698z"/>
	</g>
	<g>
		<path d="M65.59202,60.05093h0.56783l0.45541,1.67907c0.01536,0.04753,0.07156,0.26927,0.07681,0.31156h0.01012
			c0.02061-0.11078,0.02567-0.13735,0.07175-0.3009l0.43481-1.68974h0.56294l0.41945,1.68431
			c0.04102,0.17439,0.05115,0.22717,0.06651,0.30632h0.0103c0.02567-0.13193,0.04103-0.2006,0.07157-0.31156l0.48108-1.67907h0.5577
			l-0.83909,2.7352h-0.56294l-0.50132-1.95377h-0.0103c-0.02042,0.1162-0.02042,0.12668-0.05638,0.26403l-0.42451,1.68974l-0.568,0
			L65.59202,60.05093z"/>
		<path d="M69.42907,60.05093l0.56783,0l0.45541,1.67907c0.01536,0.04753,0.07156,0.26927,0.07681,0.31156h0.01012
			c0.02061-0.11078,0.02567-0.13735,0.07175-0.3009l0.43481-1.68973h0.56294l0.41945,1.68431
			c0.04102,0.1744,0.05115,0.22717,0.06651,0.30632h0.0103c0.02567-0.13192,0.04102-0.2006,0.07157-0.31156l0.48107-1.67907h0.55771
			l-0.83909,2.7352h-0.56294l-0.50132-1.95377h-0.0103c-0.02042,0.1162-0.02042,0.12669-0.05638,0.26403l-0.42451,1.68974h-0.568
			L69.42907,60.05093z"/>
		<path d="M73.26594,60.05094h0.56783l0.45541,1.67907c0.01536,0.04753,0.07156,0.26928,0.07681,0.31156h0.01012
			c0.02061-0.11078,0.02567-0.13734,0.07175-0.3009l0.43481-1.68973h0.56294l0.41946,1.68431
			c0.04102,0.1744,0.05114,0.22717,0.0665,0.30632h0.01031c0.02566-0.13192,0.04084-0.2006,0.07156-0.31156l0.48108-1.67907h0.5577
			l-0.83909,2.7352h-0.56294l-0.50131-1.95377h-0.01031c-0.02042,0.1162-0.02042,0.12669-0.0562,0.26403l-0.4247,1.68973h-0.568
			L73.26594,60.05094z"/>
		<path d="M77.09269,62.16301h0.60361l-0.00001,0.62312h-0.6036V62.16301z"/>
		<path d="M78.90369,61.51351c0.0103,0.08458,0.03596,0.27469,0.15361,0.44367c0.24054,0.34319,0.68041,0.35909,0.78288,0.35909
			c0.4809,0,0.82878-0.2165,0.82878-0.58625c0-0.38023-0.34789-0.47511-0.89529-0.61246
			c-0.52716-0.13211-1.3151-0.32747-1.3151-1.1248c0-0.54903,0.42469-1.05071,1.3048-1.05071
			c0.76228,0,1.36606,0.34319,1.39678,1.14053l-0.59854,0.03705c-0.02061-0.17964-0.07681-0.64427-0.78288-0.64427
			c-0.36848,0-0.74186,0.14259-0.74186,0.48053c0,0.28518,0.21994,0.4012,0.85445,0.54921
			c0.57812,0.13717,1.37637,0.32204,1.37637,1.18806c0,0.49625-0.30704,1.15643-1.43781,1.15643
			c-1.13583,0-1.46853-0.71294-1.50937-1.28329L78.90369,61.51351z"/>
		<path d="M85.58057,59.00529v3.78085h-0.58337v-3.31079h-0.01012l-0.97227,3.31079h-0.56277l-0.97227-3.31079h-0.01012v3.31079
			h-0.58337v-3.78085l0.98763,0l0.86981,2.96236h0.01012l0.88517-2.96236H85.58057z"/>
		<path d="M86.94086,59.00529v2.12816c0,0.53854,0,1.18281,0.84414,1.18281c0.82391,0,0.84433-0.57035,0.84433-1.16185v-2.14912
			h0.60378v2.09111c0,0.70752,0,1.75317-1.44287,1.75317c-1.44305,0-1.45317-1.03498-1.45317-1.73726v-2.10702H86.94086z"/>
		<path d="M90.61923,59.00529v1.81118l1.586-1.81118h0.76752l-1.43763,1.55257l1.57082,2.22828h-0.76246l-1.21769-1.8007
			l-0.50656,0.55445v1.24625h-0.60379l0.00001-3.78085H90.61923z"/>
		<path d="M93.56587,62.16302h0.60379v0.62312h-0.60379V62.16302z"/>
		<path d="M97.20865,61.85146c-0.08692,0.48577-0.42469,0.99812-1.17161,0.99812c-1.11034,0-1.23323-1.04565-1.23323-1.43113
			c0-0.78143,0.37878-1.43094,1.25365-1.43094c0.17403,0,0.62421,0.03163,0.89547,0.38548
			c0.16879,0.22174,0.20457,0.41186,0.23023,0.53854l-0.55264,0.09506c-0.03579-0.15307-0.11765-0.53854-0.56277-0.53854
			c-0.61409,0-0.68059,0.65999-0.68059,0.91878c-0.00001,0.32204,0.07156,0.98221,0.66523,0.98221
			c0.50131,0,0.57306-0.45415,0.59854-0.60722L97.20865,61.85146z"/>
		<path d="M98.79429,59.98751c0.77782,0,1.29974,0.57559,1.29974,1.4257c0,0.87649-0.54758,1.43636-1.3048,1.43636
			c-0.63451,0-1.29956-0.41186-1.29956-1.39932C97.48967,60.43642,98.11388,59.98751,98.79429,59.98751z M98.79429,62.36904
			c0.2559,0,0.71638-0.15849,0.71638-0.96631c0-0.63903-0.34283-0.93468-0.71638-0.93468
			c-0.32222,0-0.72144,0.22174-0.72144,0.95041C98.07285,62.1473,98.48219,62.36904,98.79429,62.36904z"/>
		<path d="M100.48257,62.16302h0.60361v0.62313l-0.60361,0V62.16302z"/>
		<path d="M103.59819,62.78615v-0.40662h-0.01012c-0.28156,0.433-0.69595,0.47005-0.84939,0.47005
			c-0.31734,0-0.64481-0.15325-0.76752-0.3909c-0.11765-0.23223-0.12794-0.44873-0.12794-0.69686v-1.71088h0.568v1.38866
			c0,0.40138,0.01012,0.57035,0.08693,0.7077c0.10753,0.18994,0.3018,0.22174,0.41439,0.22174
			c0.23547,0,0.45541-0.13735,0.53222-0.29584c0.07662-0.16355,0.10229-0.33252,0.10229-0.70752v-1.31474l0.568,0v2.7352H103.59819z
			"/>
		<path d="M104.83613,59.0053l0.56783,0v2.08587l0.95167-1.04022h0.71638l-0.96703,1.00318l1.0489,1.73202h-0.64987
			l-0.77763-1.32016l-0.3224,0.3327v0.98746h-0.56783V59.0053z"/>
	</g>
	<g>
		<path d="M69.94708,24.14615c0,0,29.73958-25.66994,43.82674-15.0263c7.04358,6.41749,2.34785,18.46984,2.34785,18.46984
			s2.34786-9.54797-8.60882-14.40022S74.79933,18.19824,69.94708,24.14615z"/>
	</g>
	<g>
		<path d="M53.199,44.0247c0,0-10.95669,19.5655-2.50439,27.23519c11.1132,9.0784,32.40048-5.32181,32.40048-5.32181
			s-19.56551,8.13924-27.54823,0.62608C46.15541,57.48577,53.199,44.0247,53.199,44.0247z"/>
	</g>
</g>
</svg>
