<?xml version="1.0" encoding="utf-8"?>
<!-- Generator: Adobe Illustrator 25.3.0, SVG Export Plug-In . SVG Version: 6.00 Build 0)  -->
<svg version="1.1" id="Layer_1" xmlns="http://www.w3.org/2000/svg" xmlns:xlink="http://www.w3.org/1999/xlink" x="0px" y="0px"
	 viewBox="0 0 400 140" style="enable-background:new 0 0 400 140;" xml:space="preserve">
<style type="text/css">
	.st0{fill-rule:evenodd;clip-rule:evenodd;fill:#221C35;}
	.st1{fill:#221C35;}
</style>
<g>
	<path class="st0" d="M272.15515,9.39758c-3.19843,5.74193-6.89609,11.19114-11.05023,16.28454
		c-8.8313-2.39349-17.95308-3.54448-27.10213-3.41975h-61.36946c0,0,40.92073-17.37793,81.81819-17.37793
		c9.00304,0,14.56303,1.7913,17.70363,4.65273 M261.33755,25.8217h-0.18613c8.4447-2.48921,13.49292-6.1416,13.49292-10.18947
		c0.06433-1.77831-0.44098-3.53069-1.44235-5.00168c4.18747,5.00168,2.32635,12.5391-1.09338,19.40187
		c-3.09885-2.42393-6.8476-3.87323-10.77106-4.16419V25.8217z"/>
	<path class="st0" d="M145.34509,85.42313l7.18848,19.75082h-14.44672L145.34509,85.42313 M123.59361,122.01681h14.63282v-1.30276
		c-2.53574,0-4.65273-0.37222-4.65273-2.32636c0.15146-1.02959,0.44914-2.03229,0.88402-2.97774l2.76837-7.70026h16.28455
		l3.04753,8.16553c0.33199,0.87217,0.52814,1.79015,0.58159,2.72184c0,1.67499-2.58226,2.11699-4.65273,2.11699v1.30276h16.86613
		v-1.30276c-4.21071,0-5.90897-2.58226-7.46762-6.6534l-13.46965-35.82597h-3.65239l-13.39984,35.29092
		c-1.88435,5.00169-2.72185,7.18846-7.77006,7.18846"/>
	<path class="st1" d="M200.71254,118.13179c-2.63641,1.13054-5.48364,1.68571-8.35165,1.62846
		c-14.19081,0-16.00537-12.88805-16.00537-21.26295c0-6.6534,0.86075-17.75015,11.28285-17.75015
		c5.67075-0.20853,10.59979,3.86068,11.46898,9.4683h1.60518l-0.58159-10.16621c-4.03951-1.16529-8.21873-1.77573-12.42278-1.81456
		c-13.95818,0-17.75015,8.81692-17.75015,20.79768c0,13.79533,6.21138,23.63584,19.16924,23.63584
		c3.95065,0.12296,7.89108-0.46809,11.63181-1.74477"/>
	<path class="st1" d="M233.4212,88.21476l-0.44202-8.8867c-3.32269-0.73587-6.71648-1.10256-10.11967-1.09339
		c-8.16553,0-14.56303,3.16386-14.56303,10.93391c-0.1987,3.43124,1.42867,6.7125,4.28052,8.63081
		c6.02527,4.65273,16.77307,6.72318,16.77307,13.72554c0,4.46661-3.69891,8.16553-9.30545,8.16553
		c-6.9791,0-9.9801-4.0246-10.4919-7.46762h-1.62846l0.46527,9.14261c3.67665,0.70055,7.40242,1.1128,11.14328,1.23297
		c8.86345,0,16.00539-3.88503,16.00539-12.12035c0-6.14159-3.44302-8.79365-8.56102-11.79465
		c-5.72285-3.21038-13.42311-5.09474-13.42311-10.86412c0.293-4.15247,3.89677-7.2812,8.04924-6.9882
		c0.03879,0.00275,0.07755,0.00578,0.11629,0.00912c6.9791,0,9.53809,4.0246,10.11967,7.46762"/>
	<path class="st1" d="M254.45152,25.44949c8.9565,0,14.49324,1.76804,17.65709,4.65273
		c-3.18842,5.74263-6.87845,11.19203-11.02695,16.28454c8.49121-2.51247,13.56268-6.16486,13.56268-10.236
		c0.02017-1.44924-0.29846-2.88315-0.93054-4.18745c3.48953,4.97842,1.6517,12.12035-1.55865,18.61091
		c-3.33749-2.60552-7.40219-4.10947-11.63181-4.30377c-8.65514-2.26478-17.57462-3.36015-26.52055-3.25691h-61.36946
		C172.63333,43.01353,213.55406,25.44949,254.45152,25.44949"/>
	<path class="st0" d="M254.45152,45.87495c9.00304,0,14.53978,1.76804,17.70363,4.65273
		c-3.20035,5.74073-6.89792,11.18978-11.05023,16.28454c8.46796-2.4892,13.53943-6.14159,13.53943-10.21273
		c0.05069-1.62576-0.34344-3.23452-1.13992-4.65273c3.93158,5.18779,1.76807,12.91132-1.76804,19.79735
		c1.81595,1.17493,2.98453,3.12541,3.16388,5.28085c0,4.07113-5.32739,7.72352-13.8186,10.21273
		c4.09949-4.7604,7.66461-9.95597,10.63147-15.49358c-6.18814-4.90863-20.75116-8.35165-37.73361-8.35165h-61.34619
		C172.63333,63.39246,213.55406,45.87495,254.45152,45.87495"/>
	<path class="st0" d="M124.687,127.53029c-0.24376-0.01321-0.45206,0.17369-0.46527,0.41745
		c-0.00086,0.01593-0.00086,0.0319,0,0.04782c-0.01323,0.23088,0.16322,0.42879,0.39411,0.44202
		c0.01595,0.0009,0.03194,0.0009,0.0479,0c0.24263,0.02689,0.46112-0.14799,0.48802-0.39062
		c0.00018-0.00162,0.00035-0.00323,0.00051-0.00485c0.01286-0.24379-0.17435-0.45182-0.41813-0.46467
		c-0.00795-0.00042-0.01591-0.00063-0.02388-0.00061 M124.33804,133.18335h0.81422v-4.07114h-0.83749L124.33804,133.18335z"/>
	<path class="st1" d="M126.59461,133.13683h0.72118v-2.32637c0.03191-0.15463,0.08681-0.30362,0.16284-0.442
		c0.13667-0.42897,0.52721-0.72653,0.97707-0.74443c0.69791,0,0.93054,0.55832,0.93054,1.18643v2.32637h0.74445v-2.32637
		c0-1.37254-0.86076-1.72151-1.41908-1.72151c-0.55406-0.02521-1.07202,0.27467-1.32603,0.76772l0,0v-0.67465h-0.83749
		c0,0.32568,0,0.67465,0,1.09338v2.93121"/>
	<path class="st1" d="M131.5265,133.13683h0.74443v-2.32637c-0.02449-0.11502-0.02449-0.23392,0-0.34895
		c0.12407-0.43771,0.52214-0.741,0.97708-0.74443c0.69791,0,0.93054,0.55832,0.93054,1.18643v2.32637h0.72118v-2.32637
		c0-1.37254-0.86076-1.72151-1.41908-1.72151c-0.54988-0.00864-1.05972,0.28654-1.32603,0.76772h-0.02325v-0.67465h-0.62813
		c0,0.32568,0,0.67465,0,1.09338v2.93121"/>
	<path class="st0" d="M136.90041,130.74068c-0.00108-0.62894,0.4888-1.14944,1.11665-1.18645
		c0.56529,0.00565,1.01897,0.46848,1.01332,1.03377c-0.0005,0.05115-0.00485,0.10217-0.01299,0.15268H136.90041 M139.7153,131.25247
		c0,0,0-0.18611,0-0.32568c0.103-0.94518-0.57971-1.79488-1.52489-1.89787c-0.04987-0.00543-0.09995-0.00868-0.1501-0.00975
		c-1.07875,0.03227-1.92709,0.93295-1.89482,2.01172c0.00153,0.05072,0.00502,0.10136,0.01047,0.15181
		c-0.09142,1.03667,0.67488,1.95117,1.71156,2.04259c0.08839,0.0078,0.17723,0.00932,0.26585,0.00461
		c0.46284,0.01157,0.92282-0.07567,1.34929-0.25591l-0.13959-0.53506c-0.35251,0.15036-0.73363,0.22182-1.11665,0.20938
		c-0.70454,0.05452-1.31987-0.47244-1.37439-1.17699c-0.00563-0.07286-0.00502-0.14607,0.00185-0.21883L139.7153,131.25247z"/>
	<path class="st1" d="M140.97154,133.13683h0.72118v-2.14026c0-0.1163,0-0.23262,0-0.34895
		c0.05569-0.5067,0.46826-0.89961,0.97707-0.93054h0.25591v-0.69791h-0.20938c-0.52199,0.02817-0.96947,0.38243-1.11665,0.88402l0,0
		v-0.79097H140.925c0,0.37222,0,0.79097,0,1.25624v2.76837"/>
	<path class="st1" d="M145.83363,132.95071c0.34296,0.18512,0.72693,0.28111,1.11665,0.27916
		c0.95381,0,1.51213-0.5118,1.51213-1.2097s-0.34895-0.95381-1.04686-1.20972c-0.69791-0.25589-0.7677-0.34895-0.7677-0.69791
		c0-0.34894,0.23264-0.53506,0.67465-0.53506c0.28734,0.00327,0.56853,0.08362,0.81422,0.23264l0.18611-0.53506
		c-0.3049-0.17239-0.65012-0.2607-1.00034-0.25589c-0.67654-0.07742-1.28773,0.40825-1.36516,1.08479
		c-0.00388,0.03377-0.00633,0.06767-0.0074,0.10164c0,0.48854,0.3257,0.88402,1.04686,1.13992
		c0.72118,0.25591,0.7677,0.39548,0.7677,0.74443c0,0.34897-0.25589,0.5816-0.79095,0.5816
		c-0.33737-0.00488-0.66705-0.10138-0.95381-0.27916L145.83363,132.95071"/>
	<path class="st1" d="M149.90477,128.36778v0.74443h-0.62811v0.55833h0.62811v2.18678
		c-0.04652,0.37196,0.0536,0.74744,0.27916,1.04686c0.1996,0.22433,0.49127,0.34444,0.79097,0.32568
		c0.21471,0.04588,0.43668,0.04588,0.65138,0v-0.53505h-0.41875c-0.41875,0-0.55833-0.27917-0.55833-0.79097v-2.23331h1.04688
		v-0.55833h-1.04688v-0.95381l-0.69791,0.20938"/>
	<path class="st1" d="M152.81273,133.13683h0.72118v-2.14026c-0.01137-0.11603-0.01137-0.23291,0-0.34895
		c0.04622-0.51132,0.4641-0.90929,0.97707-0.93054h0.23264v-0.69791h-0.20937c-0.51863,0.02371-0.96161,0.38185-1.0934,0.88402l0,0
		v-0.79097h-0.62811c0,0.37222,0,0.79097,0,1.25624V133.13683"/>
	<path class="st0" d="M156.18594,130.74068c0.02197-0.62825,0.51306-1.13939,1.13992-1.18645
		c0.81422,0,1.00034,0.72118,1.00034,1.18645H156.18594 M159.00085,131.25247c0.01439-0.10809,0.01439-0.21759,0-0.32568
		c0.10335-0.94513-0.57904-1.79509-1.52417-1.89845c-0.04239-0.00464-0.08493-0.00769-0.12755-0.00917
		c-1.07877,0.03227-1.92711,0.93295-1.89482,2.01172c0.00151,0.05072,0.005,0.10136,0.01047,0.15181
		c-0.09142,1.03667,0.67487,1.95117,1.71155,2.04259c0.08839,0.0078,0.17725,0.00932,0.26585,0.00461
		c0.45515,0.00967,0.90717-0.07755,1.32603-0.25591l-0.11632-0.53506c-0.35251,0.15036-0.73363,0.22182-1.11665,0.20938
		c-0.70454,0.05452-1.31989-0.47244-1.37439-1.17699c-0.00565-0.07286-0.00502-0.14607,0.00183-0.21883L159.00085,131.25247z"/>
	<path class="st1" d="M160.28035,133.13683h0.72118v-2.32637c-0.01288-0.11595-0.01288-0.23299,0-0.34895
		c0.13666-0.42897,0.52721-0.72653,0.97707-0.74443c0.69791,0,0.93054,0.55832,0.93054,1.18643v2.32637h0.74445v-2.32637
		c0-1.37254-0.86076-1.72151-1.41908-1.72151c-0.55406-0.02521-1.07202,0.27466-1.32603,0.76772l0,0v-0.67465h-0.65138
		c0,0.32568,0,0.67465,0,1.09338v2.93121"/>
	<path class="st0" d="M167.93408,131.41531c0.02403,0.13074,0.02403,0.26476,0,0.39548
		c-0.1395,0.43686-0.54182,0.73627-1.00034,0.74445c-0.79097,0-1.20972-0.65138-1.20972-1.44235
		c0-0.79095,0.51181-1.51213,1.20972-1.51213c0.47346,0.00128,0.8898,0.31354,1.02361,0.7677
		c0.01292,0.10818,0.01292,0.21751,0,0.32568v0.72118 M168.67851,130.22888c0-0.48854,0-0.81422,0-1.11665h-0.62811v0.60484l0,0
		c-0.24973-0.45482-0.73814-0.72617-1.25624-0.69791c-1.06406,0.07054-1.86946,0.99033-1.79892,2.05438
		c0.00191,0.02867,0.00444,0.0573,0.00761,0.08588c-0.10335,0.97096,0.60002,1.84187,1.57098,1.94522
		c0.0423,0.0045,0.08475,0.00748,0.12726,0.00891c0.51772,0.02568,1.00822-0.23296,1.27951-0.67464l0,0v0.46527
		c0.10545,0.65973-0.34387,1.28004-1.00359,1.3855c-0.09892,0.01581-0.19942,0.01927-0.29918,0.01031
		c-0.41185,0.01236-0.81764-0.10126-1.16318-0.32568l-0.18611,0.55832c0.39691,0.2469,0.85899,0.3685,1.32602,0.34897
		c0.53264,0.02759,1.05606-0.14688,1.46561-0.48854c0.4505-0.49968,0.6626-1.16994,0.58159-1.83783L168.67851,130.22888z"/>
	<path class="st1" d="M170.3535,128.36778v0.74443h-0.62811v0.55833h0.62811v2.18678
		c-0.04652,0.37198,0.0536,0.74744,0.27916,1.04686c0.20349,0.21881,0.49242,0.33778,0.79097,0.32568
		c0.21471,0.04588,0.43668,0.04588,0.65138,0v-0.53505h-0.39549c-0.39548,0-0.53505-0.27917-0.53505-0.79097v-2.23331h1.04686
		v-0.55833h-1.04686v-0.95381l-0.72118,0.20938"/>
	<path class="st1" d="M173.28471,133.13683h0.72118v-2.32637c-0.04201-0.14433-0.04201-0.29765,0-0.442
		c0.13667-0.42897,0.52721-0.72653,0.97707-0.74443c0.69791,0,0.93056,0.55832,0.93056,1.2097v2.32637h0.74443v-2.32637
		c0-1.37254-0.88402-1.72151-1.41908-1.72151c-0.51535,0.00676-0.99054,0.27956-1.25624,0.72118l0,0v-2.60552h-0.72118v5.90896"/>
	<path class="st0" d="M180.68256,127.53029c-0.24376-0.01321-0.45207,0.17369-0.46527,0.41745
		c-0.00087,0.01593-0.00087,0.0319,0,0.04782c-0.01323,0.23088,0.16322,0.42879,0.3941,0.44202
		c0.01596,0.0009,0.03195,0.0009,0.0479,0c0.24377,0.01285,0.45181-0.17436,0.46466-0.41814
		c0.00043-0.00795,0.00063-0.01591,0.00061-0.02388c0.01286-0.24377-0.17435-0.45181-0.41812-0.46466
		C180.69847,127.53049,180.69052,127.53028,180.68256,127.53029 M180.31033,133.13683h0.67465v-4.02461h-0.72118
		L180.31033,133.13683z"/>
	<path class="st1" d="M182.59016,133.13683h0.72118v-2.32637c-0.02069-0.14661-0.02069-0.29539,0-0.442
		c0.13667-0.42897,0.52722-0.72653,0.97708-0.74443c0.69791,0,0.93054,0.55832,0.93054,1.18643v2.32637h0.74443v-2.32637
		c0-1.37254-0.86076-1.72151-1.41908-1.72151c-0.55405-0.02521-1.07202,0.27467-1.32602,0.76772l0,0v-0.67465h-0.6514
		c0,0.32568,0,0.67465,0,1.09338v2.93121"/>
	<path class="st1" d="M192.36089,132.43892c-0.28261,0.13777-0.59288,0.20937-0.90727,0.20937
		c-0.83513-0.00085-1.51143-0.67856-1.51057-1.51369c0.00085-0.83392,0.67667-1.50972,1.51057-1.51057
		c0.29012-0.00673,0.57753,0.05714,0.83749,0.18611l0.16284-0.55833c-0.31165-0.14955-0.65488-0.22139-1.00034-0.20937
		c-1.11504-0.07841-2.0825,0.76195-2.1609,1.87698c-0.00563,0.07988-0.0065,0.16002-0.00261,0.24001
		c-0.0779,1.06354,0.72113,1.98886,1.78468,2.06676c0.07187,0.00526,0.14398,0.0065,0.21599,0.00369
		c0.39229,0.00552,0.78114-0.07382,1.13991-0.23262l-0.11632-0.55833"/>
	<path class="st0" d="M195.31537,129.57748c0.86076,0,1.20972,0.86076,1.20972,1.5354c0,0.67465-0.53506,1.55867-1.23297,1.55867
		s-1.20972-0.65138-1.20972-1.5354S194.45462,129.57748,195.31537,129.57748 M195.31537,129.01917
		c-1.09196-0.01657-1.9906,0.85521-2.00717,1.94717c-0.00098,0.06442,0.00119,0.12886,0.0065,0.19307
		c-0.09006,1.04968,0.68787,1.97365,1.73755,2.06372c0.0643,0.00552,0.12883,0.00777,0.19334,0.00674
		c1.09196,0.01657,1.9906-0.85522,2.00717-1.94717c0.00098-0.06444-0.00119-0.12886-0.0065-0.19308
		c0.08994-1.0497-0.6881-1.97356-1.73779-2.06351c-0.05649-0.00484-0.11316-0.00716-0.16983-0.00694H195.31537z"/>
	<path class="st1" d="M198.52576,133.13683h0.72118v-2.32637c-0.01286-0.11595-0.01286-0.23299,0-0.34895
		c0.13666-0.42897,0.52721-0.72653,0.97707-0.74443c0.69791,0,0.93056,0.55832,0.93056,1.18643v2.32637h0.76768v-2.32637
		c0-1.37254-0.86075-1.72151-1.41908-1.72151c-0.55405-0.02521-1.07201,0.27466-1.32602,0.76772l0,0v-0.67465h-0.65138
		c0,0.32568,0,0.67465,0,1.09338v2.93121"/>
	<path class="st1" d="M203.17848,132.95071c0.34987,0.18895,0.74234,0.28506,1.13992,0.27916
		c0.95381,0,1.48888-0.5118,1.48888-1.2097s-0.34897-0.95381-1.04688-1.20972c-0.69791-0.25589-0.7677-0.34895-0.7677-0.69791
		c0-0.34894,0.23264-0.53506,0.67465-0.53506c0.28732,0.00327,0.56853,0.08362,0.81422,0.23264l0.18611-0.53506
		c-0.29764-0.16943-0.63458-0.25769-0.97707-0.25589c-0.67496-0.09023-1.29524,0.38379-1.38547,1.05875
		c-0.00566,0.04236-0.00912,0.08498-0.01035,0.12769c0,0.48854,0.34895,0.88402,1.07011,1.13992
		c0.72118,0.25591,0.74445,0.39548,0.74445,0.74443c0,0.34897-0.25592,0.60487-0.86076,0.60487
		c-0.33685-0.00824-0.66568-0.10449-0.95381-0.27917l-0.18611,0.55833"/>
	<path class="st1" d="M207.24962,128.36778v0.74443h-0.67465v0.55833h0.62813v2.18678
		c-0.04654,0.37196,0.05359,0.74744,0.27916,1.04686c0.2016,0.2215,0.49184,0.34102,0.79095,0.32568
		c0.21471,0.04588,0.43668,0.04588,0.65138,0l-0.02325-0.53505h-0.41875c-0.39548,0-0.53506-0.27917-0.53506-0.79097v-2.23331
		h1.04686v-0.55833h-1.02361v-0.95381l-0.72118,0.20938"/>
	<path class="st1" d="M210.15758,133.13683h0.72118v-2.14026c-0.01137-0.11603-0.01137-0.23291,0-0.34895
		c0.04623-0.51132,0.46408-0.90929,0.97707-0.93054h0.25589v-0.69791h-0.20937c-0.52199,0.02817-0.96947,0.38243-1.11665,0.88402
		l0,0v-0.79097h-0.62811c0,0.37222,0,0.79097,0,1.25624V133.13683"/>
	<path class="st1" d="M216.57832,129.11221h-0.69791v2.46596c0.01534,0.1236,0.01534,0.24861,0,0.37221
		c-0.16458,0.39754-0.547,0.66159-0.97707,0.67465c-0.65138,0-0.88402-0.51181-0.88402-1.2795v-2.32637h-0.74443v2.32637
		c0,1.41908,0.7677,1.76802,1.39581,1.76802c0.54495,0.01332,1.05362-0.27225,1.32602-0.74443l0,0v0.65138h0.62813
		c0-0.32568,0-0.67465,0-1.0934v-2.8149"/>
	<path class="st1" d="M220.85884,132.43892c-0.27528,0.13512-0.57739,0.20667-0.88402,0.20937
		c-0.83514-0.00085-1.51144-0.67856-1.51059-1.51369c0.00087-0.83392,0.67668-1.50972,1.51059-1.51057
		c0.29048-0.01067,0.57886,0.05342,0.83748,0.18611l0.16286-0.55833c-0.31165-0.14955-0.65488-0.22139-1.00034-0.20937
		c-1.11505-0.07841-2.0825,0.76195-2.16092,1.87698c-0.00562,0.07988-0.00648,0.16002-0.00261,0.24001
		c-0.07788,1.06354,0.72115,1.98886,1.7847,2.06676c0.07185,0.00526,0.14397,0.0065,0.21597,0.00369
		c0.39948,0.00189,0.79518-0.07724,1.16319-0.23262l-0.13959-0.55833"/>
	<path class="st1" d="M222.44077,128.36778v0.74443h-0.60486v0.55833h0.60486v2.18678
		c-0.03995,0.37508,0.0686,0.75087,0.30243,1.04686c0.19237,0.22061,0.47539,0.34067,0.7677,0.32568
		c0.21439,0.04887,0.437,0.04887,0.65138,0v-0.53505h-0.41875c-0.41875,0-0.55833-0.27917-0.55833-0.79097v-2.23331h1.04688
		v-0.55833h-1.04688v-0.95381l-0.72118,0.20938"/>
	<path class="st0" d="M225.72093,127.53029c-0.2377-0.05557-0.47545,0.09209-0.53101,0.32979
		c-0.01398,0.05974-0.01535,0.12172-0.00406,0.18202c-0.01321,0.23088,0.16324,0.42877,0.39412,0.442
		c0.01596,0.00092,0.03195,0.00092,0.0479,0c0.24377,0.01285,0.45181-0.17436,0.46466-0.41814
		c0.00041-0.00795,0.00061-0.01591,0.00061-0.02386c0.0132-0.24377-0.17369-0.45208-0.41745-0.46528
		c-0.01593-0.00086-0.03189-0.00086-0.04782,0 M225.27892,133.18335h0.72118v-4.07114h-0.72118V133.18335z"/>
	<path class="st0" d="M229.3268,129.57748c0.86075,0,1.2097,0.86076,1.2097,1.5354c0,0.67465-0.53505,1.55867-1.23296,1.55867
		s-1.20972-0.65138-1.20972-1.5354S228.46605,129.57748,229.3268,129.57748 M229.3268,129.01917
		c-1.09196-0.01657-1.99062,0.85521-2.00719,1.94717c-0.00096,0.06442,0.00119,0.12886,0.00652,0.19307
		c-0.09007,1.04968,0.68785,1.97365,1.73755,2.06372c0.06429,0.00552,0.12881,0.00777,0.19333,0.00674
		c1.07881,0.03064,1.9782-0.81906,2.00885-1.89787c0.00229-0.08089-0.00043-0.16183-0.00818-0.24239
		c0.08995-1.0497-0.68808-1.97356-1.73779-2.06351c-0.05647-0.00484-0.11314-0.00716-0.16982-0.00694H229.3268z"/>
	<path class="st1" d="M232.53719,133.13683h0.72118v-2.32637c-0.01288-0.11595-0.01288-0.23299,0-0.34895
		c0.1454-0.4326,0.54419-0.72937,1.00034-0.74443c0.67464,0,0.93054,0.55832,0.93054,1.18643v2.32637h0.72118v-2.32637
		c0-1.37254-0.86075-1.72151-1.41908-1.72151c-0.55405-0.02521-1.07202,0.27466-1.32602,0.76772l0,0v-0.67465h-0.65138
		c0.02528,0.36403,0.02528,0.72937,0,1.09338v2.93121"/>
</g>
</svg>
