<?xml version="1.0" encoding="utf-8"?>
<!-- Generator: Adobe Illustrator 25.3.0, SVG Export Plug-In . SVG Version: 6.00 Build 0)  -->
<svg version="1.1" id="Layer_1" xmlns="http://www.w3.org/2000/svg" xmlns:xlink="http://www.w3.org/1999/xlink" x="0px" y="0px"
	 viewBox="0 0 240.9 34" style="enable-background:new 0 0 240.9 34;" xml:space="preserve">
<style type="text/css">
	.st0{fill:none;stroke:#000000;stroke-width:0.7926;stroke-miterlimit:10;}
	.st1{fill:#1E1E1C;}
	.st2{font-family:'Arial-BoldMT';}
	.st3{font-size:8.1879px;}
	.st4{fill:#102D69;}
	.st5{fill:#FFFFFF;}
	.st6{fill:#00945E;}
	.st7{fill:#502C1E;}
	.st8{fill:#D5BA8C;}
	.st9{fill:#8E5928;}
	.st10{fill:#A73439;}
</style>
<g>
	<rect x="2.4" y="6.7" class="st0" width="32" height="18.8"/>
	<g>
		<text transform="matrix(1 0 0 1 5.6631 18.9396)" class="st1 st2 st3">WHITE</text>
	</g>
</g>
<g>
	<rect x="36.4" y="6.4" class="st4" width="32" height="18.8"/>
	<g>
		<text transform="matrix(1 0 0 1 43.0508 18.6466)" class="st5 st2 st3">281C</text>
	</g>
</g>
<g>
	<rect x="70.3" y="6.4" class="st6" width="32" height="18.8"/>
	<g>
		<text transform="matrix(1 0 0 1 76.9473 18.6466)" class="st1 st2 st3">340C</text>
	</g>
</g>
<g>
	<rect x="104.5" y="6.4" class="st7" width="32" height="18.8"/>
	<g>
		<text transform="matrix(1 0 0 1 108.1364 18.6466)" class="st5 st2 st3">4625C</text>
	</g>
</g>
<g>
	<rect x="138.7" y="6.4" class="st8" width="32" height="18.8"/>
	<g>
		<text transform="matrix(1 0 0 1 145.3252 18.6466)" class="st1 st2 st3">467C</text>
	</g>
</g>
<g>
	<rect x="172.6" y="6.4" class="st9" width="32" height="18.8"/>
	<g>
		<text transform="matrix(1 0 0 1 179.2217 18.6466)" class="st1 st2 st3">464C</text>
	</g>
</g>
<g>
	<rect x="206.8" y="6.4" class="st10" width="32" height="18.8"/>
	<g>
		<text transform="matrix(1 0 0 1 213.4111 18.6466)" class="st1 st2 st3">1807C</text>
	</g>
</g>
</svg>
