<?xml version="1.0" encoding="utf-8"?>
<!-- Generator: Adobe Illustrator 25.3.0, SVG Export Plug-In . SVG Version: 6.00 Build 0)  -->
<svg version="1.1" id="Layer_1" xmlns="http://www.w3.org/2000/svg" xmlns:xlink="http://www.w3.org/1999/xlink" x="0px" y="0px"
	 viewBox="0 0 750.2 400.1" style="enable-background:new 0 0 750.2 400.1;" xml:space="preserve">
<style type="text/css">
	.st0{fill:#FFFFFF;}
</style>
<path class="st0" d="M384.3,81.2l107.5-32.6l8.4-14.6l1.1-0.2c5.2-1,19.8-3.5,44.1-3.5c24.3,0,39.1,2.5,44.3,3.6l1.1,0.2l0.4,0.8
	l7.2,12.5l114.1,34.3l3.4,1.1h0.1v-62H33v62h1.1l3.6-1.1l111.4-33.3l7.4-13.3l0.6-0.7l0.2-0.1c1.2-0.7,8.9-4.1,44.6-4.1
	c15.1,0,27.6,0.7,36.3,1.9c6.9,1.1,8.5,2.1,8.7,2.2l0.2,0.1l0,0.1l0.7,1.2l6.7,11.7L368,81.8v0.1l3.4,1h7.3l5.6-1.8V81.2z"/>
</svg>
