<?xml version="1.0" encoding="utf-8"?>
<!-- Generator: Adobe Illustrator 25.2.1, SVG Export Plug-In . SVG Version: 6.00 Build 0)  -->
<svg version="1.1" id="Layer_1" xmlns="http://www.w3.org/2000/svg" xmlns:xlink="http://www.w3.org/1999/xlink" x="0px" y="0px"
	 viewBox="0 0 750.2 400.1" style="enable-background:new 0 0 750.2 400.1;" xml:space="preserve">
<style type="text/css">
	.st0{fill:#FFFFFF;}
</style>
<path class="st0" d="M378.1,83.1l4-1.4c0.2-0.1,0.4-0.1,0.7-0.1c0,0,0.1,0,0.1,0c0.2-0.1,0.4-0.2,0.6-0.3l79.7-23.6
	c0.1-0.1,0.3-0.1,0.4-0.1c0.2-0.1,0.4-0.2,0.6-0.3l34.1-10.1c0-0.6,0.2-1.2,0.7-1.6c5-3.9,19.5-13,46.7-13c27.5,0,42.5,9.1,47.7,13
	c0.4,0.3,0.6,0.7,0.7,1.1l35.4,10.4c0.3,0.1,0.5,0.2,0.7,0.4c0,0,0,0,0.1,0c0.2,0,0.4,0,0.6,0.1l80.6,23.8c0.2,0.1,0.3,0.1,0.5,0.2
	c0.1,0,0.3,0,0.4,0c0.2,0,0.5,0,0.7,0.1l3.9,1.4c0.9,0.3,1.5,1.3,1.3,2.3L734,21.9l-714,1l12,61.6c0.2-0.6,0.6-1.1,1.3-1.3l4-1.4
	c0.2-0.1,0.4-0.1,0.7-0.1c0,0,0.1,0,0.1,0c0.2-0.2,0.4-0.3,0.7-0.3l79.5-23.5c0.2-0.1,0.4-0.1,0.6-0.1c0.2-0.1,0.4-0.2,0.6-0.3
	L154,47.3c0.1-0.3,0.3-0.6,0.6-0.9c0.9-0.8,6.8-4.4,10.3-6.4c0.3-0.2,0.6-0.3,0.9-0.3c0,0,0,0,0,0c0.3-0.1,0.5-0.3,0.8-0.5
	c0.2-0.1,0.5-0.2,0.8-0.3c0.2-0.2,0.4-0.3,0.6-0.4c10.8-4.3,22.1-6.4,33.5-6.4c11.3,0,23.2,2.1,35.4,6.3c0.2,0.1,0.4,0.2,0.6,0.3
	c0.4,0,0.8,0.1,1,0.3c0.5,0.4,1.2,0.7,1.9,1.1c0.2,0.1,0.4,0.3,0.6,0.5c8.7,5.2,9.3,5.8,9.6,6.1c0.1,0.1,0.2,0.3,0.3,0.4l34,10
	c0.2,0.1,0.4,0.1,0.5,0.2c0.1,0,0.1,0,0.2,0c0.2,0,0.4,0,0.6,0.1l80.6,23.8c0.3,0.1,0.5,0.2,0.7,0.4c0.1,0,0.1,0,0.2,0
	c0.2,0,0.5,0,0.7,0.1l3.9,1.4c0.9,0.3,1.5,1.3,1.3,2.3l-6.3,29.5h15.7l-6.3-29.5C376.6,84.4,377.1,83.4,378.1,83.1z"/>
</svg>
