<?xml version="1.0" encoding="utf-8"?>
<!-- Generator: Adobe Illustrator 25.3.0, SVG Export Plug-In . SVG Version: 6.00 Build 0)  -->
<svg version="1.1" id="Layer_1" xmlns="http://www.w3.org/2000/svg" xmlns:xlink="http://www.w3.org/1999/xlink" x="0px" y="0px"
	 viewBox="0 0 750.2 400.1" style="enable-background:new 0 0 750.2 400.1;" xml:space="preserve">
<style type="text/css">
	.st0{fill:#FFFFFF;}
</style>
<g>
	<polygon class="st0" points="446.3,226.9 442.6,288.9 446.3,288.9 446.3,284.9 	"/>
	<polygon class="st0" points="302.9,236.6 302.6,288.9 307.7,288.9 303,210.8 	"/>
	<polygon class="st0" points="101.7,212.9 97.1,288.9 102.1,288.9 102.1,237.9 	"/>
	<path class="st0" d="M399.3,106.2c1.4-5.5,3.7-10.7,6.8-15.3H344c3.2,4.7,5.5,10,6.8,15.6c11.6,48.5,10.9,127.3,9.4,170
		c-0.1,4.2-0.3,8.3-0.4,12.4h30.5c-0.2-4.2-0.3-8.4-0.4-12.7C388.2,223.5,388.6,151.3,399.3,106.2z"/>
	<polygon class="st0" points="645.8,196.2 645.2,208.7 645,221.8 644.9,288.9 652.8,288.9 646.1,191.3 	"/>
	<path class="st0" d="M54.1,106.5c1.3-5.7,3.7-10.9,6.8-15.6H7.5v198H45c-0.2-4.1-0.3-8.2-0.4-12.4C43,223.8,43.4,151.6,54.1,106.5z
		"/>
	<path class="st0" d="M706.1,276.4c-0.1,4.2-0.3,8.4-0.4,12.5h37v-198h-53.2c3.2,4.7,5.5,10,6.8,15.6
		C708,155.1,707.3,233.9,706.1,276.4z"/>
</g>
</svg>
