<?xml version="1.0" encoding="utf-8"?>
<!-- Generator: Adobe Illustrator 25.3.0, SVG Export Plug-In . SVG Version: 6.00 Build 0)  -->
<svg version="1.1" id="Layer_1" xmlns="http://www.w3.org/2000/svg" xmlns:xlink="http://www.w3.org/1999/xlink" x="0px" y="0px"
	 viewBox="0 0 750.2 400.1" style="enable-background:new 0 0 750.2 400.1;" xml:space="preserve">
<style type="text/css">
	.st0{fill:#FFFFFF;}
</style>
<g>
	<path class="st0" d="M384.2,81.2l0,0.1l113-34.3l1.7-1.4c3.8-3.1,18.4-13.1,46.7-13.1c29.7,0,45,10.9,47.7,13.1l0.8,0.6l0.2,0
		L713,82l0,0l4.3,1.3V21.9H34v61l3.2-0.9l0,0l0.4-0.1l117-35.5c1.2-1,5.3-3.4,10-6.3l1.7-0.8l0-0.2l1.5-0.5
		c21.7-8.6,44.2-8.6,68.9-0.1l0-0.1l3.4,1.8c4.6,2.8,8.6,5.1,9.9,6.2L368,82l0,0l5.9,1.7l-1.5,7.1h5.4l-1.6-7.2L384.2,81.2z"/>
	<polygon class="st0" points="717.3,90.9 717.3,88.8 716.8,90.9 	"/>
</g>
</svg>
