<?xml version="1.0" encoding="utf-8"?>
<!-- Generator: Adobe Illustrator 25.3.0, SVG Export Plug-In . SVG Version: 6.00 Build 0)  -->
<svg version="1.1" id="Layer_1" xmlns="http://www.w3.org/2000/svg" xmlns:xlink="http://www.w3.org/1999/xlink" x="0px" y="0px"
	 viewBox="0 0 750.2 400.1" style="enable-background:new 0 0 750.2 400.1;" xml:space="preserve">
<g>
	<path class="st0" d="M264.9,182.5c-3.7,2.7-7.5,5.5-11.3,8.3c1.6-0.6,3.2-1.2,4.8-1.8c13.8-7.4,27.5-14.3,41.3-20.5l0-5.5
		c-0.2-0.1-0.4-0.3-0.6-0.5c-1.4,0.4-2.8,0.8-4.2,1.2c-21.4,10-42.9,21.8-64.5,34C242,192.4,253.4,187.3,264.9,182.5z"/>
	<path class="st0" d="M250.3,298.4c16.4-8.1,32.9-15.9,49.4-22.9l0-3.5l0-5.8l0-1l0-4.8l0-12.8c-0.8,0.6-1.7,1.2-2.5,1.9
		c-8.7,3.5-17.3,7.3-26,11.2c-3.9,1.8-7.8,3.6-11.8,5.4c-32.2,15-64.3,31.5-96.1,45.3c5.4-1,10.8-2.1,16.2-3.3
		c-16.6,7.6-33.1,14.6-49.6,20.6c-8.5,3.1-17.1,5.8-25.6,8.2l0,14l0,2.5c0.1,0,0.2,0,0.3,0v0.1c0,0,8.8,0.5,21.8,1.1
		c26-10.8,52.1-24.2,78.3-38.1c-12.9,7.7-25.8,15.4-38.7,22.7c3-1.4,6-2.8,9.1-4.3c21.8-12.2,43.5-25.3,65.3-37.9
		C243.6,297.4,247,297.9,250.3,298.4z"/>
	<path class="st0" d="M115.8,236c22.5-4,45.2-11,68.2-19.1c6.2-2.2,12.4-4.5,18.7-6.8c6.4-2.9,12.9-5.7,19.3-8.7
		c10.9-8.3,21.7-16.5,32.5-24.4c-5.4,1.9-10.8,3.9-16.1,5.9c-33.2,14.6-66.2,30-99.1,40.6c-8.1,2.6-16.2,5-24.2,7
		c-3.6,1.3-7.2,2.5-10.7,3.7l0,8l0,1c0.8-0.5,1.6-0.9,2.3-1.4C109.6,239.9,112.7,238,115.8,236z"/>
	<path class="st0" d="M299.7,233.5l0-14.4l0-10.6c-26.2,10.8-52.4,24.1-78.5,37.4c15.1-8.8,30.3-17.5,45.3-25.7
		c-53.6,23.5-106.8,52.6-159.5,66.4c13.4-6.1,26.7-13.1,40-20.6c10.5-3.2,21-6.9,31.6-10.8c16.4-9,32.7-18.4,49-27.7
		c23.8-8.7,47.8-17.5,72-24.5l0-14c-21.8,7.9-43.5,17.4-65.2,27.2c-20,12.2-40,24.7-60.2,36.5c-3.2-2.5-6.4-5.2-9.5-7.8
		c-20.3,7.9-40.5,14.5-60.6,18.8l0,12.9c10.2-1.8,20.5-4.1,30.8-7c-10.3,4.2-20.5,7.9-30.8,11.1l0,20.7c3.5-1.6,6.9-3.2,10.4-4.9
		c0.7,0.3,1.4,0.6,2.1,0.9c-4.1,1.8-8.3,3.4-12.5,5l0,9.8c38.3-9.2,77-26.7,116-44.5C246.6,255.5,273.1,243.3,299.7,233.5z"/>
	<path class="st0" d="M281.5,311.1c6.1-3.1,12.2-6.1,18.3-9.1l0-11c-32.7,15.2-65.4,33.7-98,51.4c13.1-8,26.3-16.1,39.4-24.1
		c-3.1,1.6-6.2,3.2-9.2,4.7c-18.6,11-37.2,22.2-55.8,32.9c5.7,0.1,11.4,0.1,16.8,0.1c27.4-14.8,54.8-30.5,82.3-44.6
		C277.3,311.3,279.4,311.2,281.5,311.1z"/>
	<path class="st0" d="M281.4,322.6c-17.7,8.3-35.4,17.3-53,26.4c5.8-1.7,11.6-3.4,17.5-5.2c-7.6,3.9-15.2,7.8-22.8,11.8
		c8.7-0.2,17.5-0.4,25.9-0.7c17-9.9,33.9-19.4,50.8-28.1l0-11.1C293.7,317.9,287.5,320.3,281.4,322.6z"/>
	<path class="st0" d="M155,55.3c-0.3-2.2-0.4-4.1-0.4-5.7c-0.3-0.6-0.4-0.9-0.4-0.9l-26.4,8.1l0.1,1C136.9,57.5,145.9,56.6,155,55.3
		z"/>
	<path class="st0" d="M128.4,115.9c1.4-0.5,2.8-0.9,4.2-1.4c-1.4,0.3-2.7,0.5-4.1,0.8C128.5,115.5,128.5,115.7,128.4,115.9z"/>
	<path class="st0" d="M235.2,106.9c-10.7,5.5-21.5,11.1-32.3,16.6c2.5-1,5-2,7.6-3c18.2-9,36.3-18.1,54.5-26.3
		c2.8,1.1,5.7,2.2,8.5,3.4c0.5-0.2,0.9-0.3,1.4-0.5c-0.3-8.5,0.1-17.7,1-27.7c-10.7,3.3-21.4,7-32.1,10.8c-0.9,2.4-1.9,4.7-3,7
		c-1.8,3.6-3.8,6.9-5.9,9.8c10.1-3.9,20.2-7.8,30.4-11.4c-3.4,1.4-6.7,2.9-10.1,4.4c-7.4,3-14.7,6.1-22.1,9.2
		c-7.9,9.7-18,14.7-29.6,14.8H202h-0.3c-1,0-2,0-3-0.1c-7.6,3.2-15.1,6.3-22.7,9.2c-1.6-0.4-3.2-0.8-4.8-1.2
		c7.4-2.8,14.7-5.8,22.1-8.9c-4.8-1.1-9.3-3.2-13.4-6.3c-2.5,0.8-5.1,1.6-7.6,2.4c-15,4.7-29.9,8.6-44.7,11.2
		c-1.5,7.8-3.8,14.8-6.8,21.2c-1.5,3.3-3.2,6.3-4.8,8.8c4.1-0.7,8.3-1.6,12.4-2.5C164,138.5,199.6,122.2,235.2,106.9z"/>
	<path class="st0" d="M251.6,48.7c-0.5-0.1-0.9-0.1-0.9-0.1c0,0.4-0.2,0.8-0.4,1.3c-0.1,3.3-0.6,7.3-1.4,11.6
		c7.5-2.4,15.1-4.7,22.6-6.8L251.6,48.7z"/>
	<path class="st0" d="M130.2,88.4c0.1,4.4,0,8.6-0.2,12.6c5-0.9,9.9-2,14.9-3.2c-0.6-0.4-1.3-0.8-1.9-1.2c-1.7-1.1-3.5-2.2-5.2-3.3
		c8.9-1.4,17.9-3.3,26.9-5.6c-0.1-0.1-0.1-0.2-0.2-0.3c-1.7-3.3-3-6.6-4.2-9.9c-7,2.8-14,5.5-21,7.9
		C136.2,86.5,133.2,87.4,130.2,88.4z"/>
	<path class="st0" d="M139.5,174.9c1.2,0.7,2.5,1.3,3.7,1.9c19.6-6,39.2-13.6,58.9-21.8c3.5-1.7,7-3.4,10.5-5.2
		c21.6-9.8,43.3-19.9,65-28.4c-0.5-2.5-1-5.1-1.4-7.8c-14.3,5.6-28.6,11.8-42.9,18.1c11-5.8,22-11.4,33-16.8c-2.6,1-5.2,2-7.8,3
		c-18.5,8.9-37.1,18.5-55.7,27.8c-2.7-1.1-5.4-2.3-8.1-3.4c-20.7,8-41.2,15.4-61.7,20.5c-9.6,3-19.3,5.5-28.9,7.3l0,10.2
		c18.4-3.2,36.7-8.6,55.2-15.3C152.8,168.5,146.2,171.8,139.5,174.9z"/>
	<path class="st0" d="M220.1,178.2c12.6-6.3,25.1-12.7,37.7-18.7c9.6-4.6,19.2-9,28.8-13.2c-0.9-1.6-1.7-3.2-2.5-5
		c-1.2-2.5-2.2-5.2-3.2-7.9c-8.2,2.9-16.4,5.9-24.5,9.1c4.9-0.7,9.9-1.3,14.9-2c-28.9,10.8-57.5,23.6-86,34.6
		c-0.6,0.4-1.1,0.7-1.7,1.1c-2.9,1-5.8,1.9-8.8,2.9c-7.6,2.8-15.2,5.5-22.8,8c-4.3,3.1-8.5,6.1-12.8,9.1c-11.7,2.8-23.4,4.9-35,6.1
		l0,11.7c8.6-0.9,17.2-2.4,25.8-4.2C159.8,202.3,189.9,190.4,220.1,178.2z"/>
	<path class="st0" d="M643.3,271.7h-0.2l0-9.8c-16.1-4.3-32.3-10.1-48.6-16.7c-3.1,2.8-6.3,5.5-9.5,8.2
		c-20.2-12.3-40.2-25.4-60.2-38.1c-25.6-12.1-51.3-23.9-77.2-32.7l0,15.5c28.3,7.6,56.4,18.3,84.1,29c16.3,9.7,32.7,19.6,49,29
		c10.6,4.1,21.1,7.9,31.6,11.3c10.3,6.1,20.6,11.8,30.9,17l0-5.9c-6.3-2.3-12.6-4.8-18.9-7.5c6.3,1.8,12.6,3.4,18.9,4.9L643.3,271.7
		z"/>
	<path class="st0" d="M505.7,188.8c-3.8-2.9-7.5-5.8-11.3-8.6c11.5,5.1,23,10.4,34.4,15.8c-21.6-12.7-43.1-25-64.5-35.4
		c-3.7-1.1-7.4-2.2-11.1-3.3c-1.3,1.5-2.5,2.8-3.6,3.7c17,7.5,34.1,16.4,51.2,26C502.5,187.6,504.1,188.2,505.7,188.8z"/>
	<path class="st0" d="M521.1,180.7c-5.4-2.1-10.7-4.1-16.1-6.1c10.7,8.3,21.6,16.8,32.5,25.5c6.5,3,12.9,6.1,19.3,9
		c6.2,2.4,12.5,4.8,18.7,7.1c22.7,8.4,45.3,15.6,67.6,19.8l0-5.9c-7.6-2-15.3-4.3-22.9-6.9C587.4,211.9,554.3,195.9,521.1,180.7z"/>
	<path class="st0" d="M538.2,246.3c-30.1-15.9-60.3-31.9-90.6-44l0,11.4l0,15.2c30.7,10.9,61.2,25.6,91.5,40
		c35,16.7,69.7,33.1,104.2,43.2l0-12c-0.2-0.1-0.4-0.2-0.6-0.2c0.2-0.1,0.4-0.2,0.6-0.3l0-13.6c-49.7-15.2-99.9-43.5-150.4-66.7
		C507.9,228,523,237.2,538.2,246.3z"/>
	<path class="st0" d="M579.9,311.2c5.4,1.2,10.8,2.4,16.2,3.4c-31.9-14.4-63.9-31.6-96.1-47.2c-3.9-1.9-7.8-3.8-11.8-5.6
		c-8.6-4.1-17.3-8-26-11.6c-4.6-3.6-9.2-7.1-13.8-10.5c-0.2-0.1-0.5-0.2-0.7-0.2l0,17c0.8,0.3,1.7,0.7,2.5,1
		c-0.8,0.1-1.7,0.3-2.5,0.4l0,1.7l0,2.6l0,9.9c20.6,8.5,41,18.6,61.5,29.1c3.3-0.5,6.7-1.1,9.9-1.6c21.7,13.2,43.5,26.8,65.3,39.6
		c3,1.5,6,3,9.1,4.5c-12.9-7.6-25.8-15.6-38.7-23.7c25.2,14,50.4,27.6,75.5,38.6c8.1-3.2,13-5.5,13-5.5l0-1.7l0-13.9
		c-4.6-1.5-9.1-3.1-13.7-4.9C613,326.4,596.5,319.1,579.9,311.2z"/>
	<path class="st0" d="M594,367.6c-22.2-12.9-44.3-26.9-66.5-40.6c-3.1-1.7-6.2-3.3-9.2-5c13.1,8.3,26.2,16.8,39.4,25.1
		c-36.6-20.7-73.2-42.5-110-59.3l0,11.3c10.1,4.8,20.2,9.9,30.3,15.3c2.1,0.1,4.2,0.2,6.3,0.4c32.9,17.6,65.7,37.6,98.4,55.6
		c1.2,0.7,2.3,1.3,3.5,2c7.4-1.7,14.4-3.7,20.9-5.7c-1.1-0.5-2.3-1.1-3.4-1.6C600.4,366,597.2,366.8,594,367.6z"/>
	<path class="st0" d="M531,354c-17.6-9.4-35.3-18.8-53-27.5c-10-4.1-20-8-30.1-11.5c-0.1,0-0.2-0.1-0.2-0.1l0,9.8
		c27.4,14,54.8,30.6,82.3,47.5c3,1.8,5.9,3.6,8.9,5.5c1.7,0.1,3.3,0.1,5,0.1c7,0,14.1-0.5,21.1-1.5c-17.1-9.1-34.3-18.5-51.4-27.6
		C519.4,350.4,525.2,352.2,531,354z"/>
	<path class="st0" d="M447.7,332.2c0.5,0.2,1,0.5,1.5,0.7c-0.5-0.5-1-0.9-1.5-1.4L447.7,332.2z"/>
	<path class="st0" d="M485.9,91.5c2.9-1.2,5.7-2.3,8.5-3.5c18.1,8.6,36.3,18.1,54.5,27.5c2.5,1,5.1,2.1,7.6,3.1
		c-10.8-5.7-21.5-11.6-32.3-17.3c34.5,15.4,68.9,31.8,103.2,41.7c-0.3-0.6-0.5-1.1-0.8-1.7c-3.9-8.4-6.5-17.9-8-28.7
		c-10.5-2.5-21-5.5-31.6-8.9c-13.7-4.5-27.5-9.6-41.4-14.8c4.5,0.4,9.1,0.8,13.6,1.1c-26.5-9.8-53.2-20.8-80.1-29.1
		c-2.9-0.9-5.8-1.8-8.7-2.6c1.3,10.4,2,20,2.2,28.8C477.1,88.4,481.5,89.9,485.9,91.5z"/>
	<path class="st0" d="M617.7,78c-6.4-2.4-12.8-4.9-19.2-7.7c-7.5-3.2-15-6.6-22.5-10.2c-5.9,4.1-12.4,7.6-19.6,9.4
		c20.5,6.9,40.8,13,61,16.8C617.4,83.7,617.5,80.9,617.7,78z"/>
	<path class="st0" d="M617.3,92.5c0-0.8,0-1.7,0-2.5c-0.3,0.2-0.6,0.4-0.9,0.6c-0.6,0.4-1.3,0.8-1.9,1.2
		C615.5,92.1,616.4,92.3,617.3,92.5z"/>
	<path class="st0" d="M499.8,48.6l0.1-0.6h-0.4l-3.9,1.2c3.4,1,6.8,2.1,10.2,3.2C504,50.9,501.6,49.1,499.8,48.6z"/>
	<path class="st0" d="M643.2,164.7c-5.6-1.4-11.3-3.1-16.9-4.9c-20.5-5.4-41-13-61.7-21.4c-2.7,1.2-5.4,2.4-8.1,3.6
		c-18.6-9.7-37.2-19.8-55.7-29c-2.6-1.1-5.2-2.1-7.8-3.1c11,5.6,22,11.5,33,17.5c-17.9-8.3-35.8-16.4-53.7-23.2
		c-0.2,2.9-0.5,5.6-0.8,8.3c25.2,9.8,50.3,22,75.3,33.8c3.5,1.8,7,3.6,10.5,5.4c19.7,8.5,39.3,16.5,58.9,22.7c1.3-0.7,2.5-1.3,3.7-2
		c-6.6-3.2-13.3-6.7-19.9-10.2c14.4,5.4,28.8,10.1,43.2,13.5L643.2,164.7z"/>
	<path class="st0" d="M539.3,175.7c30.3,12.7,60.3,25.2,90.1,33c4.6,1,9.2,1.9,13.8,2.7l0-12.1c-7.6-1.2-15.3-2.8-23-4.7
		c-4.3-3.1-8.6-6.3-12.8-9.5c-7.6-2.6-15.2-5.4-22.8-8.3c-2.9-1-5.8-2-8.8-3c-0.6-0.4-1.1-0.8-1.7-1.2c-28.5-11.6-57.2-24.9-86-36.2
		c5,0.6,10,1.3,14.9,2c-11.3-4.6-22.7-9-34.1-12.9c-1.2,4.7-2.7,9.1-4.4,13.3c12.4,5.3,24.7,11.2,37.1,17.4
		C514.2,162.5,526.7,169.1,539.3,175.7z"/>
</g>
</svg>
