<?xml version="1.0" encoding="utf-8"?>
<!-- Generator: Adobe Illustrator 25.3.0, SVG Export Plug-In . SVG Version: 6.00 Build 0)  -->
<svg version="1.1" id="Layer_1" xmlns="http://www.w3.org/2000/svg" xmlns:xlink="http://www.w3.org/1999/xlink" x="0px" y="0px"
	 viewBox="0 0 750.2 400.1" style="enable-background:new 0 0 750.2 400.1;" xml:space="preserve">
<g>
	<path d="M289.9,344.8c0-9.4,0-18.8,0-28.2c3.3,0,6.6,0,9.9,0l0-19.2c-0.2,0-0.3,0-0.5,0c0,3.2,0,6.3,0,9.5c-6.4,0-12.6,0-18.9,0
		c0-6.2,0-12.4,0-18.8c6.2,0,12.4,0,18.8,0c0-3.2,0-6.2,0-9.4c0.2,0,0.3,0,0.5,0l0-6.6l0-3c-3.3,0-6.6,0-9.9,0c0-3.1,0-6.3,0-9.4
		c3.1,0,6.1,0,9.4,0c0-6.3,0-12.6,0-18.9c0.2,0,0.3,0,0.5,0l0-19c-0.1,0-0.3,0-0.4,0c0,3.1,0,6.2,0,9.4c-3.3,0-6.4,0-9.5,0
		c0-3.1,0-6.2,0-9.5c-3.3,0-6.4,0-9.5,0c0-3.1,0-6.1,0-9.4c6.3,0,12.5,0,18.9,0c0-3.2,0-6.3,0-9.6c0.2,0,0.4,0,0.5,0l0-9.5
		c-3.3,0-6.6,0-9.9,0c0,3.2,0,6.2,0,9.4c-3.2,0-6.3,0-9.5,0c0-3.1,0-6.1,0-9.2c-3.2,0-6.2,0-9.5,0c0,3,0,6.1,0,9.4
		c-9.6,0-19,0-28.5,0c0,3.1,0,6.2,0,9.4c-3.2,0-6.4,0-9.5,0c0-3.1,0-6.3,0-9.4c3.1,0,6.3,0,9.4,0c0-6.2,0-12.5,0-18.9
		c15.8,0,31.5,0,47.4,0c0-3.2,0-6.3,0-9.6c3.3,0,6.4,0,9.5,0c0-3.1,0-6.2,0-9.4c0.2,0,0.4,0,0.6,0l0-1.9c-1.7-1.4-4.4-3.8-7.3-7.7
		c-7.3,0-14.4,0-21.6,0c0-3.1,0-6.3,0-9.4c3.1,0,6.1,0,9.4,0c0-3.2,0-6.2,0-9.5c0.6,0,1.2,0,1.8,0c-1.2-3-2.2-6.2-3.1-9.5
		c-2.7,0-5.4,0-8.2,0c0-9.6,0-19,0-28.4c-3.2,0-6.3,0-9.4,0c0,9.4,0,18.8,0,28.4c-3.2,0-6.4,0-9.5,0c0-3.1,0-6.2,0-9.5
		c-3.3,0-6.4,0-9.5,0c0-3.1,0-6.3,0-9.4c3.1,0,6.2,0,9.5,0c0-3.3,0-6.4,0-9.5c3.1,0,6.3,0,9.4,0c0-6.3,0-12.6,0-18.8
		c3.3,0,6.4,0,9.6,0c0,3.2,0,6.2,0,9.2c1.3,0,2.6,0,3.9,0c0.1-8.7,0.8-18.1,1.9-28.3c-5.2,0-10.3,0-15.4,0c0,3.1,0,6.2,0,9.5
		c-3.3,0-6.4,0-9.6,0c0,3.2,0,6.2,0,9.3c-2.6,0-5.2,0-7.7,0c-1,2.7-2.1,5.3-3.4,7.8c-0.3,0.6-0.6,1.2-0.9,1.8c4,0,8,0,12.1,0
		c0,3.2,0,6.3,0,9.4c-3.1,0-6.2,0-9.5,0c0,3.3,0,6.4,0,9.5c-3.1,0-6.2,0-9.4,0c0-2.9,0-5.7,0-8.5c-2.9,3.5-6,6.3-9.4,8.6
		c0,6.3,0,12.6,0,18.8c3.2,0,6.2,0,9.4,0c0-3.2,0-6.2,0-9.4c3.3,0,6.3,0,9.4,0c0,3.1,0,6.2,0,9.5c3.3,0,6.4,0,9.5,0
		c0,6.3,0,12.6,0,18.9c3.1,0,6.3,0,9.4,0c0,3.1,0,6.2,0,9.5c3.3,0,6.4,0,9.5,0c0,6.2,0,12.5,0,18.8c-9.5,0-18.8,0-28.3,0
		c0-3,0-6.1,0-9.3c3,0,6.1,0,9.4,0c0-6.5,0-12.7,0-19c-3.1,0-6.1,0-9.4,0c0,3.1,0,6.2,0,9.4c-6.4,0-12.6,0-19.1,0c0-3.1,0-6.2,0-9.3
		c-3.1,0-6.3,0-9.4-0.1c0-6.3,0-12.6,0-19c-6.5,0-12.7,0-19,0c0-4.5,0-9,0-13.5c-4.8-0.9-9.4-2.7-13.5-5.5c-1.8,0-3.6,0-5.5,0
		c0-1.5,0-2.9,0-4.4c-1.6-1.5-3.1-3.2-4.5-5c-1.6,0-3.3,0-4.9,0c0,3.1,0,6.2,0,9.5c-3.2,0-6.4,0-9.5,0c0,3.1,0,6.2,0,9.5
		c9.6,0,18.9,0,28.4,0c0,3.2,0,6.3,0,9.4c-6.3,0-12.5,0-18.8,0c0,6.4,0,12.7,0,19c3.2,0,6.3,0,9.3,0c0,6.2,0,12.5,0,18.8
		c-3.1,0-6.2,0-9.4,0c0-3,0-6.1,0-9.4c-3.3,0-6.4,0-9.5,0c0-3.1,0-6.1,0-9.4c-9.5,0-18.9,0-28.4,0c0-3.3,0-6.4,0-9.5
		c3.1,0,6.2,0,9.5,0c0-3.3,0-6.4,0-9.5c3.1,0,6.2,0,9.5,0c0-6.5,0-12.7,0-19c3.1,0,6.3,0,9.4-0.1c0-3.1,0-6.3,0-9.4
		c-3.1,0-6.2,0-9.5,0c0,3.3,0,6.4,0,9.4c-3.1,0-6.2,0-9.5,0c0-3.2,0-6.3,0-9.3c-2.7,0-5.3,0-7.9,0c-0.2,5.8-0.7,11.3-1.5,16.5
		c0,0.8,0,1.5,0,2.3c-0.1,0-0.2,0-0.4,0c-0.6,3.3-1.3,6.5-2.1,9.5c0.8,0,1.6,0,2.4,0c0,3.1,0,6.3,0,9.4c-1.8,0-3.6,0-5.5,0
		c-0.7,1.8-1.4,3.5-2.2,5.2c-2.7,5.9-5.6,10.4-8.3,13.9c2.2,0,4.4,0,6.5,0c0,3.1,0,6.2,0,9.4c-5,0-9.9,0-14.9,0l0,18.9
		c1.8,0,3.6,0,5.5,0c0-3.2,0-6.2,0-9.4c3.3,0,6.3,0,9.4,0c0,6.3,0,12.6,0,18.9c9.5,0,18.9,0,28.4,0c0-3.1,0-6.2,0-9.5
		c6.4,0,12.7,0,19,0c0-3.1,0-6.2,0-9.4c6.4,0,12.7,0,19,0c0,3.1,0,6.2,0,9.5c3.3,0,6.4,0,9.5,0c0,6.3,0,12.5,0,19
		c-3.2,0-6.3,0-9.5,0c0,3.3,0,6.3,0,9.4c-3.1,0-6.2,0-9.5,0c0,3.3,0,6.4,0,9.4c-3.2,0-6.2,0-9.4,0c0-3.2,0-6.2,0-9.4
		c-3.3,0-6.3,0-9.4,0c0-6.2,0-12.5,0-18.9c-3.2,0-6.4,0-9.5,0c0,3.1,0,6.2,0,9.3c-9.5,0-18.9,0-28.5,0c0-3.1,0-6.2,0-9.3
		c-3.1,0-6.1,0-9.4,0c0,3.1,0,6.2,0,9.4c-1.9,0-3.7,0-5.5,0l0,9.4c1.8,0,3.6,0,5.4,0c0,3.3,0,6.4,0,9.5c-1.8,0-3.6,0-5.4,0l0,19
		c1.8,0,3.6,0,5.4,0c0,3.1,0,6.3,0,9.4c-1.8,0-3.6,0-5.4,0l0,28.4c4.9,0,9.9,0,14.9,0c0,3.3,0,6.4,0,9.6c9.6,0,18.9,0,28.4,0
		c0,3.2,0,6.3,0,9.4c3.1,0,6.1,0,9.4,0c0-6.3,0-12.5,0-18.9c3.3,0,6.4,0,9.5,0c0,6.3,0,12.6,0,18.9c3.3,0,6.4,0,9.5,0
		c0-3.1,0-6.2,0-9.5c3.2,0,6.4,0,9.5,0c0-3.1,0-6.3,0-9.4c3.1,0,6.2,0,9.4,0c0,3.2,0,6.3,0,9.4c-3.1,0-6.3,0-9.4,0.1
		c0,3.1,0,6.2,0,9.5c-3.2,0-6.4,0-9.5,0c0,6.3,0,12.5,0,18.8c-3.3,0-6.4,0-9.6,0c0-3.1,0-6.2,0-9.3c-3.2,0-6.2,0-9.3,0
		c0,12.6,0,25.2,0,37.8c3.2,0,6.3,0,9.3,0c0-6.3,0-12.6,0-19c6.5,0,12.7,0,19,0c0-6.3,0-12.6,0-18.9c3.3,0,6.4,0,9.5,0
		c0,3.1,0,6.2,0,9.3c9.5,0,18.9,0,28.5,0c0-12.6,0-25.2,0-37.8c3.1,0,6.2,0,9.5,0c0-3.3,0-6.4,0-9.4c3.2,0,6.2,0,9.4,0
		c0,3.2,0,6.2,0,9.3c3.3,0,6.3,0,9.3,0c0-6.3,0-12.5,0-18.9c-3.2,0-6.2,0-9.4,0c0-6.4,0-12.7,0-18.9c3.1,0,6.3,0,9.4,0
		c0,3.1,0,6.2,0,9.4c6.4,0,12.6,0,18.9,0c0,3.2,0,6.2,0,9.4c-3,0-6.1,0-9.3,0c0,3.2,0,6.3,0,9.6c3.1,0,6.1,0,9.3,0
		c0,6.4,0,12.5,0,18.9c-6.2,0-12.4,0-18.9,0c0,3.3,0,6.4,0,9.5c3.1,0,6.2,0,9.5,0c0,3.3,0,6.4,0,9.5c3.2,0,6.2,0,9.4,0
		c0,3.2,0,6.2,0,9.5c3.2,0,6.3,0,9.5,0c0,12.6,0,25,0,37.5c11.8-0.4,19.5-0.7,19.5-0.7l0-8.5C296.5,344.8,293.2,344.8,289.9,344.8z
		 M261.4,145.7c0-3.1,0-6.1,0-9.3c3.1,0,6.2,0,9.4,0c0,3.1,0,6.2,0,9.3C267.7,145.7,264.5,145.7,261.4,145.7z M138.1,117.3
		c0,3.3,0,6.4,0,9.4c-3.1,0-6.3,0-9.4,0c0-3.1,0-6.3,0-9.4C131.8,117.3,134.9,117.3,138.1,117.3z M138,174.2c-6.3,0-12.5,0-18.8,0
		c0-3.1,0-6.3,0-9.4c3.1,0,6.2,0,9.4,0c0-3.2,0-6.3,0-9.4c3.2,0,6.2,0,9.4,0C138,161.5,138,167.8,138,174.2z M157,174.1
		c-3.1,0-6.2,0-9.4,0c0-6.2,0-12.4,0-18.8c3.1,0,6.2,0,9.4,0C157,161.5,157,167.7,157,174.1z M289.8,259.5c-3.1,0-6.1,0-9.3,0
		c0-3.1,0-6.2,0-9.3c3,0,6.1,0,9.3,0C289.8,253.3,289.8,256.4,289.8,259.5z M232.9,231.1c-3.1,0-6.2,0-9.5,0c0-3.3,0-6.3,0-9.5
		c-6.4,0-12.6,0-18.8,0c0-6.3,0-12.6,0-18.9c3.2,0,6.3,0,9.3,0c0,3.1,0,6.2,0,9.5c6.5,0,12.7,0,19,0
		C232.9,218.5,232.9,224.8,232.9,231.1z M232.9,202.6c-6.3,0-12.6,0-18.9,0c0-3.1,0-6.3,0-9.4c3.1,0,6.1,0,9.4,0c0-3.2,0-6.2,0-9.4
		c3.2,0,6.3,0,9.5,0C232.9,190.1,232.9,196.4,232.9,202.6z M195,136.3c-3.1,0-6.3,0-9.4,0c0-3.1,0-6.3,0-9.4c3.1,0,6.3,0,9.4,0
		C195,130,195,133.1,195,136.3z M176,145.7c0-3.1,0-6.2,0-9.4c3.3,0,6.4,0,9.4,0c0,3.1,0,6.2,0,9.4
		C182.3,145.7,179.2,145.7,176,145.7z M185.5,174.2c0-6.2,0-12.5,0-19c3.2,0,6.3,0,9.4,0c0-6.3,0-12.6,0-18.9c3.1,0,6.2,0,9.5,0
		c0,3.2,0,6.3,0,9.5c3.2,0,6.3,0,9.4,0c0,3.1,0,6.2,0,9.5c-6.4,0-12.6,0-18.9,0c0,3.1,0,6.2,0,9.4c12.6,0,25.2,0,37.8,0
		c0,3.2,0,6.2,0,9.4c-6.2,0-12.4,0-18.9,0c0,6.5,0,12.7,0,19c-3.1,0-6.2,0-9.5,0c0-3.2,0-6.3,0-9.5c-3.2,0-6.3,0-9.4,0
		c0-3.1,0-6.2,0-9.5C191.7,174.2,188.6,174.2,185.5,174.2z M194.9,212.1c0,3.1,0,6.2,0,9.3c-3,0-6.1,0-9.3,0c0-3.1,0-6.2,0-9.3
		C188.6,212.1,191.7,212.1,194.9,212.1z M185.5,240.6c0,3.3,0,6.4,0,9.4c-3.1,0-6.3,0-9.4,0c0-3.1,0-6.3,0-9.4
		C179.2,240.6,182.3,240.6,185.5,240.6z M176,250.1c0,3.1,0,6.1,0,9.3c-3.1,0-6.2,0-9.4,0c0-3,0-6.1,0-9.3
		C169.8,250.1,172.9,250.1,176,250.1z M138.1,259.5c-3.1,0-6.1,0-9.4,0c0,3.2,0,6.2,0,9.4c-6.4,0-12.6,0-19,0c0-6.3,0-12.6,0-18.8
		c6.3,0,12.5,0,18.8,0c0-3.3,0-6.4,0-9.5c-6.4,0-12.6,0-18.8,0c0-6.3,0-12.6,0-18.9c3.1,0,6.2,0,9.4,0c0-3.2,0-6.3,0-9.4
		c6.4,0,12.6,0,19,0C138.1,228,138.1,243.8,138.1,259.5z M156.9,268.9c-6.2,0-12.4,0-18.8,0c0-3.1,0-6.2,0-9.3c6.2,0,12.5,0,18.8,0
		C156.9,262.7,156.9,265.7,156.9,268.9z M147.7,231.1c0-6.3,0-12.5,0-18.9c3.1,0,6.2,0,9.3,0c0,6.3,0,12.6,0,18.9
		C154,231.1,150.9,231.1,147.7,231.1z M157.1,240.5c0-3.2,0-6.3,0-9.4c6.3,0,12.6,0,18.9,0c0,3.3,0,6.4,0,9.4
		C169.8,240.5,163.5,240.5,157.1,240.5z M166.6,278.5c0-3.1,0-6.1,0-9.3c6.3,0,12.5,0,18.9,0c0,3.1,0,6.2,0,9.3
		C179.2,278.5,172.9,278.5,166.6,278.5z M185.5,259.6c0-3.3,0-6.4,0-9.5c3.1,0,6.2,0,9.5,0c0-6.5,0-12.7,0-18.9c6.4,0,12.6,0,18.9,0
		c0,6.4,0,12.6,0,18.8c-3.1,0-6.2,0-9.5,0c0,6.5,0,12.7,0,19c-3.1,0-6.1,0-9.4,0c0-3.1,0-6.2,0-9.4
		C191.8,259.6,188.8,259.6,185.5,259.6z M213.8,306.9c-6.3,0-12.5,0-18.8,0c0-6.3,0-12.6,0-18.9c3.1,0,6.2,0,9.4,0
		c0,3.1,0,6.2,0,9.4c3.2,0,6.2,0,9.4,0C213.8,300.6,213.8,303.6,213.8,306.9z M232.9,259.6c-3.2,0-6.3,0-9.5,0c0,6.4,0,12.6,0,18.9
		c-6.2,0-12.5,0-18.9,0c0-3.2,0-6.3,0-9.4c3.1,0,6.2,0,9.5,0c0-6.5,0-12.7,0-19c3.1,0,6.2,0,9.5,0c0-3.3,0-6.4,0-9.5
		c3.3,0,6.3,0,9.4,0C232.9,246.9,232.9,253.1,232.9,259.6z M232.9,240.5c0-3.1,0-6.3,0-9.4c3.1,0,6.3,0,9.4,0c0,3.1,0,6.3,0,9.4
		C239.2,240.5,236.1,240.5,232.9,240.5z M251.9,240.5c0-3.1,0-6.2,0-9.5c-3.3,0-6.4,0-9.5,0c0-3.1,0-6.2,0-9.4c3.1,0,6.2,0,9.4,0
		c0-3.2,0-6.3,0-9.4c3.2,0,6.2,0,9.4,0c0,3.1,0,6.1,0,9.4c6.5,0,12.7,0,19,0c0,3.1,0,6.2,0,9.5c3.3,0,6.4,0,9.5,0c0,3.1,0,6.2,0,9.4
		C277.1,240.5,264.5,240.5,251.9,240.5z M280.4,269c3.1,0,6.2,0,9.4,0c0,3.1,0,6.1,0,9.3c-3.1,0-6.2,0-9.4,0
		C280.4,275.3,280.4,272.3,280.4,269z"/>
	<path d="M147.6,193.2C147.6,193.2,147.6,193.2,147.6,193.2C147.6,193.1,147.6,193.1,147.6,193.2
		C147.5,193.2,147.5,193.2,147.6,193.2C147.6,193.2,147.6,193.2,147.6,193.2z"/>
	<path d="M166.6,183.7C166.5,183.7,166.5,183.7,166.6,183.7C166.5,183.7,166.5,183.7,166.6,183.7L166.6,183.7z"/>
	<path d="M119.2,193.1C119.1,193.1,119.1,193.1,119.2,193.1C119.1,193.2,119.1,193.2,119.2,193.1
		C119.1,193.2,119.1,193.2,119.2,193.1C119.2,193.2,119.2,193.2,119.2,193.1z"/>
	<ellipse cx="147.6" cy="297.4" rx="0" ry="0"/>
	<path d="M138,306.9c-3.2,0-6.3,0-9.4,0c0,9.5,0,18.9,0,28.4c3.1,0,6.1,0,9.3,0c0,6.6,0,13.1,0,19.6c3.1,0.1,6.3,0.2,9.6,0.3
		c0-19.4,0-38.6,0-57.8c-3.1,0-6.2,0-9.5,0C138,300.7,138,303.8,138,306.9z"/>
	<path d="M261.4,335.3C261.3,335.3,261.3,335.3,261.4,335.3C261.3,335.3,261.3,335.4,261.4,335.3L261.4,335.3z"/>
	<path d="M242.4,306.9c-3.2,0-6.2,0-9.4,0c0,6.3,0,12.6,0,19c-6.4,0-12.6,0-19,0c0,3.2,0,6.3,0,9.5c-3.2,0-6.2,0-9.4,0
		c0,3.2,0,6.2,0,9.5c-3.2,0-6.3,0-9.5,0c0,3.2,0,6.2,0,9.4c-3.2,0-6.2,0-9.6,0c0,0.6,0,1.2,0,1.8c5.1,0,10.1,0,14.9-0.1
		c1.4,0,2.8,0,4.2-0.1c0-0.5,0-1.1,0-1.6c3.1,0,6.2,0,9.3,0c0,0.5,0,1,0,1.4c6.3-0.1,12.7-0.3,19-0.4c0-0.4,0-0.7,0-1.1
		c-6.5,0-12.7,0-19,0c0-3.1,0-6.1,0-9.4c3.1,0,6.2,0,9.4,0c0-3.2,0-6.3,0-9.4c3.2,0,6.2,0,9.4,0c0,3,0,6.1,0,9.3c3.2,0,6.3,0,9.6,0
		c0,3.5,0,6.9,0,10.3c6.5-0.2,12.9-0.4,18.8-0.5c0-0.1,0-0.2,0-0.3c-3.2,0-6.2,0-9.2,0c0-6.3,0-12.6,0-18.9c3.2,0,6.3,0,9.3,0
		c0-6.3,0-12.5,0-19c-3.3,0-6.3,0-9.4,0c0-6.3,0-12.6-0.1-18.9c-3.1,0-6.2,0-9.4,0C242.4,300.6,242.4,303.7,242.4,306.9z
		 M242.5,316.4c3.1,0,6.2,0,9.4,0c0,3.1,0,6.1,0,9.3c-3.1,0-6.2,0-9.4,0C242.5,322.7,242.5,319.7,242.5,316.4z"/>
	<path d="M251.8,297.5C251.9,297.5,251.9,297.5,251.8,297.5C251.9,297.4,251.9,297.4,251.8,297.5
		C251.9,297.4,251.9,297.4,251.8,297.5C251.8,297.4,251.8,297.4,251.8,297.5z"/>
	<path d="M261.3,60.5C261.3,60.5,261.4,60.5,261.3,60.5C261.4,60.5,261.4,60.4,261.3,60.5L261.3,60.5z"/>
	<path d="M195,155.3C195,155.3,195,155.2,195,155.3C195,155.2,195,155.2,195,155.3C195,155.2,195,155.3,195,155.3
		C195,155.3,195,155.3,195,155.3z"/>
	<path d="M299.8,183.6l0-9.4c-0.2,0-0.3,0-0.5,0c0,3.1,0,6.2,0,9.4C299.5,183.6,299.6,183.6,299.8,183.6z"/>
	<circle cx="299.3" cy="174.2" r="0"/>
	<path d="M242.4,202.7C242.4,202.7,242.4,202.6,242.4,202.7C242.4,202.6,242.4,202.6,242.4,202.7
		C242.4,202.6,242.4,202.7,242.4,202.7C242.4,202.7,242.4,202.7,242.4,202.7z"/>
	<path d="M261.4,98.4C261.4,98.4,261.4,98.4,261.4,98.4C261.4,98.3,261.3,98.3,261.4,98.4C261.3,98.4,261.3,98.4,261.4,98.4
		C261.3,98.4,261.4,98.4,261.4,98.4z"/>
	<path d="M251.9,145.7C251.9,145.7,251.9,145.7,251.9,145.7C251.8,145.8,251.8,145.8,251.9,145.7
		C251.9,145.8,251.9,145.8,251.9,145.7C251.9,145.8,251.9,145.8,251.9,145.7z"/>
	<path d="M251.6,48.7c-0.5-0.1-0.9-0.1-0.9-0.1c0,0.4-0.2,0.8-0.4,1.3c0,0.4,0,0.7-0.1,1.1c0.6,0,1.1,0,1.7,0c0,3.2,0,6.3,0,9.4
		c3.3,0,6.3,0,9.4,0c0-2.9,0-5.8,0-8.8L251.6,48.7z"/>
	<path d="M261.3,60.5C261.3,60.5,261.4,60.4,261.3,60.5C261.4,60.4,261.3,60.4,261.3,60.5C261.3,60.4,261.3,60.5,261.3,60.5z"/>
	<path d="M109.5,287.9c-1.8,0-3.5,0-5.3,0l0,9.5c1.8,0,3.5,0,5.3,0C109.5,294.2,109.5,291.2,109.5,287.9z"/>
	<path d="M104.3,316.5l0,9.3c1.8,0,3.6,0,5.4,0c0-3.1,0-6.2,0-9.3C107.9,316.5,106.1,316.5,104.3,316.5z"/>
	<path d="M109.7,325.8C109.7,325.8,109.7,325.8,109.7,325.8C109.7,325.8,109.7,325.8,109.7,325.8
		C109.7,325.8,109.7,325.8,109.7,325.8z"/>
	<path d="M128.6,335.4C128.6,335.4,128.6,335.4,128.6,335.4C128.6,335.4,128.6,335.4,128.6,335.4
		C128.6,335.3,128.6,335.3,128.6,335.4C128.6,335.4,128.6,335.4,128.6,335.4z"/>
	<path d="M119.2,354.1c1,0,2.1,0.1,3.2,0.2c2,0,4.1,0,6.2,0c0-6.4,0-12.6,0-18.9c-3.1,0-6.3,0-9.4,0
		C119.2,341.6,119.2,347.9,119.2,354.1z"/>
	<path d="M119.3,297.6c0,3.2,0,6.2,0,9.3c3.2,0,6.3,0,9.3,0c0-3.1,0-6.2,0-9.3C125.3,297.6,122.3,297.6,119.3,297.6z"/>
	<path d="M128.6,306.9C128.6,306.9,128.6,306.9,128.6,306.9C128.6,306.9,128.6,306.9,128.6,306.9L128.6,306.9
		C128.6,306.9,128.6,306.9,128.6,306.9C128.6,306.9,128.6,306.9,128.6,306.9C128.6,306.9,128.6,306.9,128.6,306.9z"/>
	<path d="M119.1,335.3C119.1,335.4,119.1,335.4,119.1,335.3C119.1,335.4,119.1,335.4,119.1,335.3
		C119.1,335.4,119.1,335.4,119.1,335.3C119.1,335.4,119.1,335.4,119.1,335.3C119.2,335.4,119.2,335.4,119.1,335.3
		C119.1,335.3,119.1,335.3,119.1,335.3z"/>
	<path d="M109.7,325.8c0,3.2,0,6.3,0,9.5c3.3,0,6.3,0,9.4,0c0-3.1,0-6.2,0-9.5C115.9,325.8,112.8,325.8,109.7,325.8z"/>
	<path d="M109.7,325.8C109.7,325.8,109.7,325.8,109.7,325.8C109.7,325.8,109.7,325.8,109.7,325.8
		C109.7,325.8,109.7,325.8,109.7,325.8z"/>
	<path d="M261.4,335.3C261.4,335.3,261.3,335.4,261.4,335.3C261.3,335.4,261.3,335.4,261.4,335.3
		C261.4,335.4,261.4,335.3,261.4,335.3z"/>
	<path d="M270.7,344.7c0-3.2,0-6.2,0-9.3c-3.2,0-6.3,0-9.3,0c0,3.1,0,6.2,0,9.3C264.6,344.7,267.7,344.7,270.7,344.7z"/>
	<path d="M166.6,344.8C166.5,344.8,166.5,344.8,166.6,344.8C166.5,344.8,166.5,344.8,166.6,344.8L166.6,344.8z"/>
	<path d="M185.5,288C185.5,288,185.5,288,185.5,288C185.5,287.9,185.5,287.9,185.5,288C185.5,288,185.5,288,185.5,288
		C185.5,288,185.5,288,185.5,288z"/>
	<path d="M185.5,325.9C185.5,325.9,185.5,325.9,185.5,325.9C185.5,325.9,185.5,325.9,185.5,325.9L185.5,325.9z"/>
	<ellipse cx="176" cy="297.4" rx="0" ry="0"/>
	<path d="M185.5,325.9C185.5,325.9,185.5,325.9,185.5,325.9C185.5,325.9,185.5,325.9,185.5,325.9
		C185.5,325.9,185.5,325.9,185.5,325.9z"/>
	<path d="M194.8,335.2c0-3.2,0-6.2,0-9.3c-3.2,0-6.3,0-9.3,0c0,3.1,0,6.2,0,9.3C188.8,335.2,191.8,335.2,194.8,335.2z"/>
	<path d="M175.9,354.2c0-3.2,0-6.2,0-9.3c-3.2,0-6.3,0-9.3,0c0,3.1,0,6.2,0,9.3C169.8,354.2,172.9,354.2,175.9,354.2z"/>
	<path d="M166.6,344.8C166.6,344.8,166.5,344.9,166.6,344.8C166.5,344.9,166.5,344.9,166.6,344.8
		C166.6,344.8,166.6,344.8,166.6,344.8z"/>
	<path d="M299.4,335.3c0.2,0,0.3,0,0.5,0l0-9.3c-0.1,0-0.3,0-0.4,0C299.4,329.2,299.4,332.2,299.4,335.3z"/>
	<path d="M175.9,202.5c0-6.3,0-12.5,0-18.8c-3.2,0-6.3,0-9.3,0c0,6.3,0,12.5,0,18.8C169.8,202.5,172.8,202.5,175.9,202.5z"/>
	<path d="M166.6,183.7C166.6,183.7,166.5,183.7,166.6,183.7C166.5,183.7,166.5,183.7,166.6,183.7
		C166.6,183.7,166.6,183.7,166.6,183.7z"/>
	<path d="M157,107.8C157,107.8,157,107.9,157,107.8C157,107.9,157.1,107.9,157,107.8C157.1,107.9,157.1,107.8,157,107.8
		C157.1,107.8,157,107.8,157,107.8z"/>
	<path d="M166.5,91.2c-0.4-0.7-0.8-1.5-1.3-2.3c-2.7,0-5.5,0-8.2,0c0-3.1,0-6.3,0-9.4c1.3,0,2.6,0,3.9,0c-4.3-11.3-6-22.3-6.3-28.5
		c-2.5,0-5.1,0-7.6,0l-18.5,5.7c0,2.3,0,4.5,0,6.8c0.2,2.2,0.5,4.4,0.6,6.5c9.3,0,18.5,0,27.8,0c0,3.3,0,6.4,0,9.5
		c-6.3,0-12.5,0-18.8,0c0,3.3,0,6.4,0,9.5c6.4,0,12.6,0,18.8,0c0,3.1,0,6.3,0,9.4c3.1,0,6.3,0,9.4,0
		C166.5,95.9,166.5,93.6,166.5,91.2z"/>
	<path d="M157.1,98.3C157.1,98.3,157,98.3,157.1,98.3C157,98.4,157,98.4,157.1,98.3C157,98.4,157.1,98.4,157.1,98.3
		C157.1,98.4,157.1,98.4,157.1,98.3z"/>
	<path d="M166.6,98.4C166.6,98.4,166.6,98.4,166.6,98.4C166.5,98.3,166.5,98.3,166.6,98.4C166.5,98.4,166.5,98.4,166.6,98.4
		C166.5,98.4,166.5,98.4,166.6,98.4z"/>
	<path d="M214,112.3c-3,0.9-6.2,1.4-9.5,1.5c0,1.1,0,2.2,0,3.3c3.3,0,6.4,0,9.5,0C214,115.6,214,114,214,112.3z"/>
	<path d="M223.4,145.7C223.4,145.7,223.4,145.7,223.4,145.7C223.4,145.7,223.4,145.8,223.4,145.7L223.4,145.7
		C223.4,145.8,223.4,145.8,223.4,145.7C223.4,145.8,223.4,145.8,223.4,145.7C223.4,145.8,223.4,145.8,223.4,145.7z"/>
	<path d="M232.8,136.4c-3.2,0-6.2,0-9.3,0c0,3.2,0,6.3,0,9.3c3.1,0,6.2,0,9.3,0C232.8,142.5,232.8,139.4,232.8,136.4z"/>
	<path d="M546.1,98.4C546.1,98.3,546.1,98.3,546.1,98.4L546.1,98.4C546,98.4,546,98.4,546.1,98.4z"/>
	<path d="M602.9,306.9C602.9,306.9,602.9,306.9,602.9,306.9C602.9,306.9,602.9,306.9,602.9,306.9L602.9,306.9z"/>
	<path d="M517.6,288C517.6,288,517.6,288,517.6,288C517.6,287.9,517.6,287.9,517.6,288C517.6,288,517.6,288,517.6,288
		C517.6,288,517.6,288,517.6,288z"/>
	<path d="M517.6,259.5C517.6,259.5,517.6,259.5,517.6,259.5C517.6,259.5,517.6,259.5,517.6,259.5
		C517.6,259.5,517.6,259.5,517.6,259.5C517.6,259.5,517.6,259.5,517.6,259.5z"/>
	<path d="M602.9,250.1c0-3.3,0-6.4,0-9.5c6.3,0,12.6,0,18.9,0c0-3.3,0-6.4,0-9.5c-3.1,0-6.2,0-9.5,0c0-3.2,0-6.4,0-9.5
		c-3.1,0-6.3,0-9.4,0c0-3.1,0-6.2,0-9.4c3.2,0,6.3,0,9.4,0c0,3.1,0,6.3,0.1,9.4c3.1,0,6.2,0,9.5,0c0,3.2,0,6.4,0,9.5
		c6.3,0,12.5,0,18.8,0c0,3.3,0,6.4,0,9.6c-3.1,0-6.2,0-9.3,0c0,3.2,0,6.2,0,9.3c3.9,0,7.8,0,11.7,0l0-28.3c-3.9,0-7.8,0-11.8,0
		c0-3.3,0-6.4,0-9.5c3.1,0,6.2,0,9.3,0c0-9.5,0-18.9,0-28.5c-12.6,0-25.2,0-37.8,0c0-3.1,0-6.2,0-9.5c-3.3,0-6.4,0-9.4,0
		c0-3.2,0-6.2,0-9.4c3.2,0,6.2,0,9.3,0c0-3.3,0-6.3,0-9.3c-6.3,0-12.5,0-18.9,0c0,3.2,0,6.2,0,9.4c-6.4,0-12.7,0-18.9,0
		c0-3.1,0-6.3,0-9.4c3.1,0,6.2,0,9.4,0c0-6.4,0-12.6,0-18.9c3.2,0,6.2,0,9.4,0c0,3,0,6.1,0,9.3c3.2,0,6.3,0,9.6,0c0-3.1,0-6.1,0-9.3
		c6.4,0,12.5,0,18.9,0c0,6.2,0,12.4,0,18.9c3.3,0,6.4,0,9.5,0c0-3.1,0-6.2,0-9.5c2.4,0,4.6,0,6.9,0c-0.7-1.4-1.5-2.8-2.2-4.4
		c-2.1-4.5-3.8-9.4-5.2-14.7c-3,0-5.9,0-8.9,0c0-6.2,0-12.4,0-18.8c-3.2,0-6.2,0-9.4,0c0-3.2,0-6.3,0-9.6c-3.3,0-6.4,0-9.5,0
		c0-6.3,0-12.6,0-18.9c3.2,0,6.3,0,9.5,0c0,3.1,0,6.1,0,9.3c4.8,0,9.5,0,14.4,0c0.1-8.7,0.7-18.1,1.9-28.3c-2.3,0-4.6,0-6.9,0
		c0,6.4,0,12.5,0,18.9c-3.2,0-6.3,0-9.3,0c0-0.6-0.1-1.2-0.1-1.8c0-8.2,0-16.5,0-24.7c0-0.6,0-1.2,0-1.9c-3.2,0-6.3,0-9.5,0
		c0,3.2,0,6.2,0,9.4c-6.1,0-12,0-17.8,0c-0.3,0.2-0.7,0.5-1,0.7c0,6,0,12,0,18.3c-3.2,0-6.4,0-9.5,0c0,3.1,0,6.2,0,9.5
		c-3.3,0-6.3,0-9.6,0c0,3.2,0,6.3,0,9.5c-3.2,0-6.3,0-9.4,0c0,3.1,0,6.1,0,9.4c3.1,0,6.2,0,9.4,0c0,3.3,0,6.4,0,9.5
		c-3.1,0-6.2,0-9.5,0c0,3.3,0,6.4,0,9.5c-3.1,0-6.1,0-9.4,0c0-6.3,0-12.5,0-18.9c-3.2,0-6.3,0-9.6,0c0-6.4,0-12.7,0-19
		c-3.1,0-6.2,0-9.4,0c0-3.2,0-6.4,0-9.5c3.1,0,6.3,0,9.4-0.1c0-4.1,0-8.3,0-12.4c-6-2.6-12.4-6.7-19-12.5c0,2,0,4,0,6
		c-3.2,0-6.2,0-9.5,0c0,3.2,0,6.3,0,9.4c-3.2,0-6.2,0-9.4,0c0-6.3,0-12.5,0-18.7l-18.9,5.7l0.1,0.9c0.5,4.2,1,8.2,1.3,12.2
		c2.6,0,5.3,0,7.9,0c0,3.2,0,6.2,0,9.5c3.2,0,6.3,0,9.5,0c0,3.2,0,6.2,0,9.4c3.2,0,6.2,0,9.5,0c0,6.5,0,12.7,0,19c3.1,0,6.2,0,9.4,0
		c0-3.1,0-6.2,0-9.4c3.2,0,6.3,0,9.5,0c0,6.3,0,12.4,0,18.8c3.2,0,6.2,0,9.4,0c0,3.2,0,6.3,0,9.5c-3.1,0-6.1,0-9.2,0
		c0,3.2,0,6.2,0,9.5c3,0,6.1,0,9.4,0c0,9.6,0,19,0,28.5c3.1,0,6.2,0,9.4,0c0,3.2,0,6.4,0,9.5c-3.1,0-6.3,0-9.4,0c0-3.1,0-6.3,0-9.4
		c-6.2,0-12.5,0-18.9,0c0-15.8,0-31.5,0-47.4c-3.2,0-6.3,0-9.6,0c0-3.3,0-6.4,0-9.5c-3.1,0-6.2,0-9.4,0c0-3.2,0-6.2,0-9.4
		c-3.2,0-6.2,0-9.4,0c0-3.2,0-6.2,0-9.5c-2.4,0-4.7,0-7.1,0c0.1,6.7-0.2,12.9-0.7,18.8c2.5,0,5.1,0,7.7,0c0,9.6,0,19.1,0,28.5
		c-3.1,0-6.3,0-9.4,0c0-3.1,0-6.1,0-9.4c-0.6,0-1.1,0-1.6,0c-0.9,3.3-1.9,6.4-3.1,9.4c1.6,0,3.1,0,4.7,0c0,3.1,0,6.3,0,9.4
		c-3,0-5.9,0-9,0c-2.1,3.8-4.2,7-6.2,9.5c5.1,0,10.1,0,15.2,0c0-3.1,0-6.3,0-9.4c3.1,0,6.2,0,9.5,0c0-3.3,0-6.4,0-9.5
		c6.2,0,12.5,0,18.8,0c0,9.5,0,18.8,0,28.3c-3,0-6.1,0-9.3,0c0-3,0-6.1,0-9.4c-6.5,0-12.7,0-19,0c0,3.1,0,6.1,0,9.4
		c3.1,0,6.2,0,9.4,0c0,6.4,0,12.6,0,19.1c-3.1,0-6.2,0-9.3,0c0,3.1,0,6.3-0.1,9.4c-6.3,0-12.6,0-19,0c0,6.5,0,12.7,0,19
		c-1.2,0-2.4,0-3.6,0l0,9.5c1.2,0,2.4,0,3.6,0c0,6.3,0,12.5,0,18.8c6.4,0,12.7,0,19,0c0-3.2,0-6.3,0-9.3c6.2,0,12.5,0,18.8,0
		c0,3.1,0,6.2,0,9.4c-3,0-6.1,0-9.4,0c0,3.3,0,6.4,0,9.5c-3.1,0-6.1,0-9.4,0c0,9.5,0,18.9,0,28.4c-3.3,0-6.4,0-9.5,0
		c0-3.1,0-6.2,0-9.5c-3.3,0-6.4,0-9.5,0c0-3.1,0-6.2,0-9.5c-1.2,0-2.4,0-3.6,0l0,9.5c1.2,0,2.4,0,3.6,0c0,3.1,0,6.3,0,9.4
		c-1.2,0-2.4,0-3.6,0l0,56.9c1.2,0,2.4,0,3.5,0c0-6.2,0-12.5,0-18.9c3.2,0,6.3,0,9.4,0c0-3.2,0-6.2,0-9.4c3.2,0,6.3,0,9.6,0
		c0,6.3,0,12.5,0,18.8c3.1,0,6.1,0,9.4,0c0,3.2,0,6.2,0,9.5c3.3,0,6.4,0,9.5,0c0-3.1,0-6.2,0-9.5c3.2,0,6.4,0,9.5,0
		c0-3.1,0-6.1,0-9.4c-6.3,0-12.5,0-18.8,0c0-9.5,0-18.9,0-28.5c3.1,0,6.2,0,9.4,0c0,6.3,0,12.6,0,18.8c6.5,0,12.7,0,18.9,0
		c0-3.2,0-6.2,0-9.4c-3.2,0-6.2,0-9.4,0c0-3.3,0-6.3,0-9.4c6.3,0,12.6,0,18.9,0c0-9.5,0-18.9,0-28.4c-3.1,0-6.2,0-9.5,0
		c0-6.4,0-12.7,0-19c-3.1,0-6.2,0-9.4,0c0-6.4,0-12.7,0-19c3.1,0,6.2,0,9.5,0c0-3.3,0-6.4,0-9.5c6.3,0,12.5,0,19,0
		c0,3.2,0,6.3,0,9.5c3.3,0,6.3,0,9.4,0c0,3.1,0,6.2,0,9.5c3.3,0,6.4,0,9.4,0c0,3.2,0,6.2,0,9.4c-3.2,0-6.2,0-9.4,0
		c0,3.3,0,6.3,0,9.4c-6.2,0-12.5,0-18.9,0c0,3.2,0,6.4,0,9.5c3.1,0,6.2,0,9.3,0c0,9.5,0,18.9,0,28.5c-3.1,0-6.2,0-9.3,0
		c0,3.1,0,6.1,0,9.4c3.1,0,6.2,0,9.4,0c0,3.3,0,6.4,0,9.5c-3.1,0-6.2,0-9.3,0c0,9.6,0,19,0,28.5c3.2,0,6.3,0,9.3,0
		c0,3.1,0,6.1,0,9.3c-6.3,0-12.5,0-18.9,0c0-6.2,0-12.4,0-18.8c-3.3,0-6.4,0-9.5,0c0,3.1,0,6.2,0,9.5c-3.2,0-6.4,0-9.5,0
		c0,3.1,0,6.3,0,9.4c-3.1,0-6.2,0-9.5,0c0,3.3,0,6.4,0,9.5c-3.1,0-6.2,0-9.4,0c0,2.8,0,5.5,0,8.3c5.5,2.1,11.9,4.3,18.9,6.3
		c0-1.7,0-3.4,0-5.1c-3.1,0-6.2,0-9.4,0c0-3.2,0-6.4,0-9.5c3.1,0,6.3,0,9.4,0c0,3.1,0,6.3,0,9.4c3.1,0,6.2,0,9.5,0
		c0,2.6,0,5.2,0,7.8c2.4,0.6,4.8,1.2,7.3,1.7c0.8,0,1.5,0,2.3,0c0,0.2,0,0.3,0,0.5c9.1,1.9,18.6,3.3,28.3,3.8c0-4.6,0-9.1,0-13.7
		c-9.5,0-18.9,0-28.2,0c0-3.3,0-6.3,0-9.5c9.5,0,18.8,0,28.3,0c0-3.2,0-6.3,0-9.5c3.3,0,6.3,0,9.4,0c0-6.2,0-12.5,0-18.8
		c-3.1,0-6.2,0-9.4,0c0,3,0,6.1,0,9.3c-3.3,0-6.4,0-9.5,0c0-9.5,0-18.9,0-28.4c3.1,0,6.1,0,9.4,0c0-3.2,0-6.2,0-9.5
		c3.3,0,6.4,0,9.5,0c0,6.3,0,12.6,0,19c3.3,0,6.4,0,9.5,0c0,9.5,0,18.9,0,28.4c6.3,0,12.6,0,18.9,0c0-3.1,0-6.3,0-9.4
		c3.1,0,6.2,0,9.5,0c0-3.3,0-6.4,0-9.5c3.1,0,6.3,0,9.4,0c0-6.3,0-12.6,0-19c3.3,0,6.4,0,9.5,0c0-6.3,0-12.5,0-19c3.3,0,6.4,0,9.6,0
		c0-9.6,0-18.9,0-28.4c3.2,0,6.3,0,9.4,0c0-3.1,0-6.1,0-9.4C615.6,250.1,609.3,250.1,602.9,250.1z M612.4,202.7c3.1,0,6.2,0,9.4,0
		c0-3.2,0-6.2,0-9.4c3.2,0,6.3,0,9.5,0c0,6.3,0,12.5,0,18.8c-6.3,0-12.6,0-18.9,0C612.4,209,612.4,205.9,612.4,202.7z M583.9,126.7
		c-3.1,0-6.2,0-9.3,0c0-3,0-6.1,0-9.3c3.1,0,6.2,0,9.3,0C583.9,120.4,583.9,123.5,583.9,126.7z M602.8,117.3c0,3.1,0,6.2,0,9.4
		c-3,0-6.1,0-9.3,0c0-3.1,0-6.2,0-9.4C596.5,117.3,599.6,117.3,602.8,117.3z M584.1,70c3,0,6.1,0,9.3,0c0,3.1,0,6.2,0,9.4
		c-3.1,0-6.1,0-9.3,0C584.1,76.2,584.1,73.2,584.1,70z M565.1,98.4c9.5,0,18.9,0,28.3,0c0,6.3,0,12.6,0,18.9c-3.1,0-6.3,0-9.4,0
		c0-3.1,0-6.1,0-9.4c-6.3,0-12.6,0-18.9,0C565.1,104.6,565.1,101.6,565.1,98.4z M508.2,79.4c0-3.1,0-6.2,0-9.3c3,0,6.1,0,9.3,0
		c0,3.1,0,6.2,0,9.3C514.5,79.4,511.4,79.4,508.2,79.4z M460.7,287.8c-3.1,0-6.2,0-9.4,0c0-3.1,0-6.2,0-9.3c3.1,0,6.3,0,9.4,0
		C460.7,281.6,460.7,284.6,460.7,287.8z M498.5,354.3c-3.1,0-6.2,0-9.3,0c0-3.1,0-6.3,0-9.4c3.1,0,6.1,0,9.3,0
		C498.5,348,498.5,351.1,498.5,354.3z M565,174.2c-3.1,0-6.3,0-9.4,0c0-3.1,0-6.3,0-9.4c3.1,0,6.3,0,9.4,0
		C565,167.9,565,171,565,174.2z M583.8,231.1c0,3.1,0,6.2,0,9.4c-3,0-6.1,0-9.3,0c0-3.1,0-6.2,0-9.4
		C577.6,231.1,580.6,231.1,583.8,231.1z M555.5,231.1c3.3,0,6.4,0,9.4,0c0,6.2,0,12.5,0,18.9c-3.2,0-6.3,0-9.4,0
		C555.5,243.7,555.5,237.5,555.5,231.1z M536.6,145.8c3.1,0,6.1,0,9.4,0c0-6.5,0-12.7,0-19c3.1,0,6.2,0,9.5,0c0-3.3,0-6.4,0-9.5
		c3.1,0,6.2,0,9.4,0c0,12.7,0,25.3,0,37.9c-3.1,0-6.2,0-9.5,0c0,3.3,0,6.4,0,9.5c-3.1,0-6.2,0-9.4,0c0-3.1,0-6.2,0-9.4
		c-3.2,0-6.3,0-9.4,0C536.6,152,536.6,149,536.6,145.8z M451.3,221.6c0-3.1,0-6.3,0-9.4c3.1,0,6.3,0,9.4,0c0,3.1,0,6.3,0,9.4
		C457.6,221.6,454.4,221.6,451.3,221.6z M460.7,231c0-3.3,0-6.4,0-9.4c3.1,0,6.2,0,9.4,0c0,3.2,0,6.3,0,9.4
		C467.1,231,463.9,231,460.7,231z M479.7,250.1c6.2,0,12.5,0,18.8,0c0,3.1,0,6.2,0,9.4c-6.2,0-12.4,0-18.8,0
		C479.7,256.3,479.7,253.2,479.7,250.1z M489.2,287.9c0-3.1,0-6.2,0-9.4c-3.2,0-6.3,0-9.4,0c0-3.2,0-6.2,0-9.4c6.2,0,12.4,0,18.8,0
		c0,6.3,0,12.5,0,18.8C495.5,287.9,492.3,287.9,489.2,287.9z M517.6,202.7c-3.2,0-6.3,0-9.5,0c0,3.2,0,6.3,0,9.4c-3.1,0-6.2,0-9.5,0
		c0,3.3,0,6.4,0,9.5c-6.2,0-12.5,0-19,0c0-3.2,0-6.3,0-9.4c-6.3,0-12.6,0-18.9,0c0-3.1,0-6.2,0-9.5c3.2,0,6.3,0,9.5,0
		c0-3.2,0-6.3,0-9.4c3.1,0,6.2,0,9.5,0c0,6.4,0,12.6,0,18.9c3.1,0,6.2,0,9.4,0c0-12.6,0-25.2,0-37.8c3.2,0,6.2,0,9.4,0
		c0,6.2,0,12.4,0,18.9c6.5,0,12.7,0,19,0C517.6,196.3,517.6,199.4,517.6,202.7z M508.2,183.7c0-3.2,0-6.3,0-9.5c6.3,0,12.6,0,18.8,0
		c0,6.3,0,12.6,0,18.9c-3.1,0-6.3,0-9.4,0c0-3.1,0-6.1,0-9.4C514.5,183.7,511.4,183.7,508.2,183.7z M545.9,221.6c-3.1,0-6.2,0-9.3,0
		c0-3.1,0-6.1,0-9.3c3.1,0,6.2,0,9.3,0C545.9,215.3,545.9,218.3,545.9,221.6z M527.1,202.5c0-3.2,0-6.3,0-9.3c3.1,0,6.2,0,9.5,0
		c0-6.5,0-12.7,0-19c6.3,0,12.6,0,18.9,0c0,3.1,0,6.2,0,9.5c-3.3,0-6.3,0-9.5,0c0,6.4,0,12.6,0,18.8
		C539.6,202.5,533.4,202.5,527.1,202.5z M536.6,250.1c6.3,0,12.6,0,18.9,0c0,3.1,0,6.2,0,9.3c-6.3,0-12.5,0-18.9,0
		C536.6,256.3,536.6,253.2,536.6,250.1z M574.5,325.9c0,3.3,0,6.4,0,9.5c-3.1,0-6.2,0-9.5,0c0-6.4,0-12.6,0-18.9c-3.1,0-6.3,0-9.4,0
		c0-3.1,0-6.2,0-9.4c3.3,0,6.4,0,9.4,0c0,3.1,0,6.3,0,9.4c6.2,0,12.5,0,18.9,0c0,3.2,0,6.4,0,9.5
		C580.8,325.9,577.7,325.9,574.5,325.9z M565,297.5c3.1,0,6.3,0,9.4,0c0,3.1,0,6.2,0,9.4c-3.2,0-6.3,0-9.4,0
		C565,303.8,565,300.6,565,297.5z M593.3,297.4c-6.3,0-12.6,0-18.8,0c0-6.3,0-12.5,0-18.8c-3.3,0-6.4,0-9.5,0c0,6.4,0,12.6,0,18.8
		c-6.3,0-12.6,0-18.9,0c0-3.1,0-6.2,0-9.4c-3.2,0-6.3,0-9.4,0c0-6.4,0-12.6,0-19c15.8,0,31.5,0,47.3,0c0,3.1,0,6.1,0,9.4
		c3.2,0,6.2,0,9.4,0C593.3,284.8,593.3,291,593.3,297.4z M565,231c0-3.1,0-6.2,0-9.4c3.3,0,6.4,0,9.4,0c0,3.1,0,6.3,0,9.4
		C571.3,231,568.2,231,565,231z M584,269c0-6.2,0-12.5,0-18.8c3.1,0,6.2,0,9.3,0c0,6.2,0,12.4,0,18.8C590.2,269,587.1,269,584,269z
		 M593.4,212c-3.1,0-6.2,0-9.4,0c0,3.2,0,6.3,0,9.5c-3.3,0-6.4,0-9.5,0c0-3.1,0-6.2,0-9.5c-6.5,0-12.7,0-18.9,0c0-6.4,0-12.6,0-18.9
		c6.4,0,12.6,0,18.8,0c0,3.1,0,6.2,0,9.5c6.5,0,12.7,0,19,0C593.4,205.7,593.4,208.8,593.4,212z M574.5,193.1c0-3.1,0-6.2,0-9.5
		c-3.3,0-6.4,0-9.5,0c0-3.3,0-6.3,0-9.4c6.3,0,12.5,0,19,0c0,3.2,0,6.3,0,9.5c6.4,0,12.6,0,18.9,0c0,6.2,0,12.5,0,18.9
		c-3.2,0-6.3,0-9.4,0c0-3.1,0-6.2,0-9.5C587,193.1,580.7,193.1,574.5,193.1z M593.6,240.5c0-6.3,0-12.5,0-18.9c3.1,0,6.2,0,9.3,0
		c0,6.3,0,12.6,0,18.9C599.8,240.5,596.7,240.5,593.6,240.5z"/>
	<path d="M621.9,259.5C621.9,259.5,621.9,259.5,621.9,259.5L621.9,259.5C621.9,259.5,621.9,259.5,621.9,259.5z"/>
	<path d="M565,316.4C565,316.4,565,316.4,565,316.4C565,316.4,565,316.4,565,316.4C565,316.4,565,316.4,565,316.4
		C565,316.4,565,316.4,565,316.4z"/>
	<path d="M508.1,240.5C508.1,240.6,508.1,240.6,508.1,240.5C508.1,240.6,508.1,240.6,508.1,240.5L508.1,240.5z"/>
	<path d="M489.1,335.3C489.1,335.4,489.1,335.4,489.1,335.3C489.2,335.4,489.2,335.4,489.1,335.3
		C489.2,335.4,489.2,335.4,489.1,335.3C489.2,335.3,489.2,335.3,489.1,335.3z"/>
	<ellipse cx="451.2" cy="335.4" rx="0" ry="0"/>
	<path d="M631.4,278.5C631.4,278.5,631.4,278.5,631.4,278.5C631.4,278.4,631.4,278.4,631.4,278.5L631.4,278.5z"/>
	<path d="M643.1,271.7l0-12.2c-7.1,0-14.1,0-21.2,0c0,3.1,0,6.2,0,9.5c3.2,0,6.3,0,9.5,0c0,3.2,0,6.3,0,9.4c4,0,7.9,0,11.9,0l0-6.7
		H643.1z"/>
	<path d="M631.3,164.7c0,3.2,0,6.2,0,9.4c4,0,7.9,0,11.9,0l0-9.5c-0.8,0-1.6,0-2.3,0c0-1,0-2,0-3.1c-1.6-1.4-3.7-3.5-5.9-6.3
		c-4.3,0-8.7,0-13,0c0,3.1,0,6.2,0,9.4C625,164.7,628.1,164.7,631.3,164.7z"/>
	<path d="M621.9,259.5C621.9,259.5,621.9,259.5,621.9,259.5C621.9,259.5,621.9,259.5,621.9,259.5
		C621.9,259.5,621.9,259.5,621.9,259.5z"/>
	<path d="M621.9,155.2C621.9,155.2,621.9,155.2,621.9,155.2C621.9,155.2,621.9,155.2,621.9,155.2
		C621.9,155.2,621.9,155.2,621.9,155.2C621.9,155.2,621.9,155.2,621.9,155.2z"/>
	<path d="M470.2,183.7C470.2,183.7,470.2,183.7,470.2,183.7C470.2,183.7,470.2,183.7,470.2,183.7L470.2,183.7z"/>
	<path d="M527.1,164.7C527.1,164.7,527.1,164.7,527.1,164.7C527.1,164.7,527.1,164.7,527.1,164.7
		C527.1,164.7,527.1,164.7,527.1,164.7C527.1,164.7,527.1,164.7,527.1,164.7z"/>
	<path d="M479.7,212.1C479.7,212.1,479.7,212.1,479.7,212.1C479.7,212.1,479.7,212.1,479.7,212.1
		C479.7,212.1,479.7,212.1,479.7,212.1C479.7,212.1,479.7,212.1,479.7,212.1z"/>
	<circle cx="498.6" cy="107.8" r="0"/>
	<ellipse cx="546" cy="344.8" rx="0" ry="0"/>
	<circle cx="498.6" cy="325.9" r="0"/>
	<path d="M489.1,363.8C489.2,363.8,489.2,363.8,489.1,363.8C489.2,363.8,489.2,363.8,489.1,363.8
		C489.2,363.8,489.2,363.8,489.1,363.8C489.1,363.8,489.1,363.8,489.1,363.8z"/>
	<path d="M451.3,354.3C451.3,354.3,451.3,354.3,451.3,354.3C451.3,354.3,451.2,354.3,451.3,354.3
		C451.2,354.3,451.2,354.3,451.3,354.3C451.2,354.3,451.3,354.3,451.3,354.3z"/>
	<path d="M460.8,358.9c0-1.5,0-3,0-4.5c-3.3,0-6.4,0-9.5,0c0,0.1,0,0.2,0,0.3C453.4,355.6,456.6,357.1,460.8,358.9z"/>
	<ellipse cx="631.4" cy="344.8" rx="0" ry="0"/>
	<path d="M621.9,325.9c-3.1,0-6.2,0-9.5,0c0,12.7,0,25.3,0,38c-3.2,0-6.2,0-9.3,0c0,1.4,0,2.7,0,4.1c17.7-5.2,31.6-11.1,37.3-13.6
		c-3,0-6,0-9,0c0-3.3,0-6.3,0-9.4c-3.1,0-6.2,0-9.5,0C621.9,338.5,621.9,332.2,621.9,325.9z"/>
	<path d="M470.2,155.2C470.2,155.2,470.2,155.2,470.2,155.2C470.2,155.2,470.2,155.2,470.2,155.2
		C470.2,155.2,470.2,155.2,470.2,155.2C470.2,155.2,470.2,155.2,470.2,155.2z"/>
	<path d="M555.5,377.2c8.8-0.7,17.7-2.1,26.1-3.8c-8.7,0-17.4,0-26.1,0C555.5,374.7,555.5,376,555.5,377.2z"/>
	<path d="M593.4,344.9C593.4,344.9,593.4,344.9,593.4,344.9C593.5,344.9,593.5,344.8,593.4,344.9
		C593.4,344.8,593.4,344.8,593.4,344.9C593.4,344.8,593.4,344.9,593.4,344.9z"/>
	<path d="M574.5,354.4c-3.3,0-6.4,0-9.4,0c0,3.2,0,6.2,0,9.3c9.5,0,18.9,0,28.3,0c0-6.3,0-12.6,0-18.8c-6.3,0-12.6,0-18.9,0
		C574.5,348,574.5,351.1,574.5,354.4z"/>
	<ellipse cx="621.9" cy="325.9" rx="0" ry="0"/>
	<path d="M621.9,316.5c0,3.2,0,6.3,0,9.4c3.1,0,6.3,0,9.4,0c0-6.3,0-12.5,0-19c-3.2,0-6.3,0-9.5,0c0-3.2,0-6.2,0-9.3
		c-3.2,0-6.2,0-9.5,0c0,3.2,0,6.2,0,9.4c-3.3,0-6.3,0-9.4,0c0,3.1,0,6.2,0,9.5C609.4,316.5,615.6,316.5,621.9,316.5z"/>
	<path d="M602.9,306.9C602.9,306.9,602.9,306.9,602.9,306.9C602.9,306.9,602.9,306.9,602.9,306.9
		C602.9,306.9,602.9,306.9,602.9,306.9z"/>
	<path d="M574.5,344.8C574.5,344.8,574.5,344.9,574.5,344.8C574.5,344.9,574.5,344.9,574.5,344.8
		C574.5,344.9,574.5,344.8,574.5,344.8C574.5,344.8,574.5,344.8,574.5,344.8z"/>
	<path d="M555,69.9c0.2,0,0.4,0,0.6,0c0,3.2,0,6.3,0,9.4c3.3,0,6.3,0,9.4,0c0-4.3,0-8.6,0-12.8C561.8,68,558.5,69.1,555,69.9z"/>
	<path d="M565,79.4C565,79.4,565,79.4,565,79.4C565,79.4,565,79.4,565,79.4C565,79.4,565,79.4,565,79.4C565,79.4,565,79.4,565,79.4z
		"/>
	<path d="M640.9,316.3c0.8,0,1.5,0,2.3,0l0-18.9c-0.8,0-1.6,0-2.3,0C640.9,303.9,640.9,310.1,640.9,316.3z"/>
	<path d="M460.8,335.4c-3.3,0-6.4,0-9.5,0c0,3.1,0,6.3,0,9.4c6.2,0,12.5,0,18.9,0c0-6.4,0-12.6,0-18.9c-3.1,0-6.1,0-9.4,0
		C460.8,329,460.8,332.1,460.8,335.4z"/>
	<circle cx="470.2" cy="325.9" r="0"/>
	<circle cx="527.1" cy="88.9" r="0"/>
	<path d="M546.1,98.3C546,98.3,546,98.3,546.1,98.3C546,98.3,546,98.3,546.1,98.3C546,98.4,546.1,98.3,546.1,98.3z"/>
	<path d="M536.5,88.8c0,3.2,0,6.2,0,9.5c3.3,0,6.4,0,9.5,0c0-6.3,0-12.6,0-18.9c-6.4,0-12.7,0-18.9,0c0,3.1,0,6.3,0,9.4
		C530.2,88.8,533.3,88.8,536.5,88.8z"/>
	<path d="M527.1,79.4C527.1,79.4,527.1,79.4,527.1,79.4C527.1,79.4,527.1,79.4,527.1,79.4C527.1,79.4,527.1,79.4,527.1,79.4
		C527.1,79.4,527.1,79.4,527.1,79.4z"/>
	<path d="M602.8,344.8c0-6.4,0-12.6,0-18.9c-3.2,0-6.3,0-9.3,0c0,6.3,0,12.6,0,18.9C596.6,344.8,599.7,344.8,602.8,344.8z"/>
	<path d="M593.5,325.9C593.5,325.9,593.5,325.9,593.5,325.9C593.4,325.9,593.4,325.9,593.5,325.9
		C593.4,325.9,593.4,325.9,593.5,325.9C593.4,325.9,593.4,325.9,593.5,325.9z"/>
	<path d="M631.4,325.9C631.4,325.9,631.4,325.9,631.4,325.9C631.4,325.9,631.3,325.9,631.4,325.9
		C631.3,325.9,631.3,325.9,631.4,325.9C631.3,325.9,631.4,325.9,631.4,325.9z"/>
	<path d="M640.7,344.8c0-6.4,0-12.6,0-18.9c-3.2,0-6.3,0-9.3,0c0,6.3,0,12.6,0,18.9C634.5,344.8,637.6,344.8,640.7,344.8z"/>
	<path d="M555.5,344.9C555.5,344.9,555.5,344.9,555.5,344.9C555.5,344.9,555.5,344.8,555.5,344.9
		C555.5,344.8,555.5,344.8,555.5,344.9C555.5,344.8,555.5,344.9,555.5,344.9z"/>
	<path d="M546.1,354.2c3.2,0,6.3,0,9.4,0c0-3.2,0-6.3,0-9.3c-3.1,0-6.3,0-9.4,0C546.1,348,546.1,351.1,546.1,354.2z"/>
	<ellipse cx="451.2" cy="344.8" rx="0" ry="0"/>
	<path d="M447.7,353.1c0,0,0.1,0,0.2,0v0.1c0.1,0,0.3,0.1,0.6,0.1c0,0,0.7,0.4,2.1,1c0.2,0,0.4,0,0.7,0c0-3.1,0-6.3,0-9.4
		c-1.2,0-2.3,0-3.5,0L447.7,353.1z"/>
	<path d="M631.4,278.5C631.4,278.5,631.3,278.4,631.4,278.5C631.3,278.5,631.3,278.5,631.4,278.5
		C631.4,278.5,631.4,278.5,631.4,278.5z"/>
	<path d="M622,287.8c3.2,0,6.2,0,9.3,0c0-3.2,0-6.3,0-9.3c-3.1,0-6.2,0-9.3,0C622,281.7,622,284.8,622,287.8z"/>
	<path d="M612.4,221.6C612.4,221.6,612.4,221.6,612.4,221.6C612.4,221.6,612.4,221.6,612.4,221.6
		C612.4,221.6,612.4,221.6,612.4,221.6C612.4,221.6,612.4,221.6,612.4,221.6z"/>
	<path d="M621.9,231.1C621.9,231.1,621.9,231.1,621.9,231.1C621.9,231.1,621.9,231.1,621.9,231.1C621.9,231,621.9,231,621.9,231.1
		C621.9,231.1,621.9,231.1,621.9,231.1z"/>
	<path d="M527,231.2c-6.3,0-12.5,0-18.8,0c0,3.2,0,6.3,0,9.3c6.3,0,12.5,0,18.8,0C527,237.3,527,234.2,527,231.2z"/>
	<path d="M508.1,240.5C508.1,240.5,508.1,240.6,508.1,240.5C508.1,240.6,508.1,240.6,508.1,240.5
		C508.1,240.5,508.1,240.5,508.1,240.5z"/>
	<path d="M451.2,174.1c-1.2,0-2.4,0-3.5,0l0,9.4c1.2,0,2.4,0,3.5,0C451.2,180.4,451.2,177.4,451.2,174.1z"/>
	<path d="M451.3,159.5c-1.4,1.5-2.7,2.6-3.7,3.3l0,1.9c1.2,0,2.4,0,3.7,0C451.3,162.9,451.3,161.2,451.3,159.5z"/>
	<path d="M460.8,174.3c0,3.2,0,6.2,0,9.3c3.2,0,6.3,0,9.3,0c0-3.1,0-6.2,0-9.3C466.9,174.3,463.9,174.3,460.8,174.3z"/>
	<path d="M470.2,183.7C470.2,183.7,470.2,183.6,470.2,183.7C470.2,183.6,470.2,183.6,470.2,183.7
		C470.2,183.7,470.2,183.7,470.2,183.7z"/>
</g>
</svg>
