<?xml version="1.0" encoding="utf-8"?>
<!-- Generator: Adobe Illustrator 25.3.0, SVG Export Plug-In . SVG Version: 6.00 Build 0)  -->
<svg version="1.1" id="Layer_1" xmlns="http://www.w3.org/2000/svg" xmlns:xlink="http://www.w3.org/1999/xlink" x="0px" y="0px"
	 viewBox="0 0 750.2 400.1" style="enable-background:new 0 0 750.2 400.1;" xml:space="preserve">
<g>
	<path d="M136.4,269.3c35.1,1.2,84.4,13.2,98.6-0.6c14.2-13.8-1.5-15,38.9-15c12.6,0,20.7-2.9,25.8-6.9l0-18.7
		c-24.8,10.1-64.1,8.9-77.4,19c-12,9.1-87,6.7-118.1,9.1l0,17.3C111.5,270.9,121.6,268.8,136.4,269.3z"/>
	<path d="M204,314c40.4,4.8,52.7-19.2,71.2-30.6c10.1-6.2,18.7-5.8,24.5-4.2l0-7.3l0-4.3c-10.6,0.9-25,3.8-32.7,8
		c-12.3,6.6-41.1,22.8-87.7,18c-40.8-4.2-49.5-15.3-75-0.2l0,15.5c2.8-1.1,6.1-2.4,10-3.9C138.9,295.4,163.6,309.2,204,314z"/>
	<path d="M112.2,194.6c42-7.4,25.9-3.3,43,7.7c17.2,11,66.4-9.8,102.7-17.4c20.9-4.4,33.4-2.4,41.9,0l0-19.3
		c-20.8-0.9-119.2,20.9-135.1,13.2c-11.6-5.6-36.9-2.4-60.5-2.6l0,19.5C106.7,195.4,109.3,195.1,112.2,194.6z"/>
	<path d="M197.5,231.6c38.8-12.2,60.5-30.3,86.5-25.4c7,1.3,12,2.3,15.8,3l0-12.9c-35-15.7-38.9-1.9-81.8,10.8
		c-44.9,13.3-76.1,2.7-89.5-1.5c-6.1-1.9-15.5-2.6-24.3-2.4l0,9.5c4.8-0.9,10.7-0.7,17.6,2C142.1,222.5,158.7,243.8,197.5,231.6z"/>
	<path d="M242.3,271.5c-2.2,3.4,36.9-5.1,57.4-10.6l0-7.1C276,265.3,244.8,267.7,242.3,271.5z"/>
	<path d="M130,332.2c12.3,0.6,62.3,15.6,96.6,16.2s29.4-12.6,45.9-33.5c9-11.4,19.5-15.2,27.3-16.3l0-10.1c-2.6-0.7-5.7-0.8-9.5,0
		c-15.8,3.6-37,26.4-55.5,39.5c-18.5,13.2-51.4-1.2-94.5-4.2c-22-1.5-30.4-0.9-36,2.9l0,26.6c0.1,0,0.2,0,0.3,0v0.1
		c0,0,2.4,0.1,6.6,0.4C122.3,346,120.7,331.7,130,332.2z"/>
	<path d="M190.8,356.1c-3.9-0.5-8-1-12.2-1.4c-35.6-3-45.7-11-41.8-0.6c0.1,0.3,0.3,0.5,0.6,0.8C153.4,355.5,173,356.1,190.8,356.1z
		"/>
	<path d="M299.9,333.6l0-15.7c-3.3,2-7.9,5.9-13,11.7c-7.3,8.3-12.4,17-14.5,24.7c5.7-0.2,10.7-0.3,14.9-0.5
		C291.6,347.2,296.3,339.9,299.9,333.6z"/>
	<path d="M145.6,239.4c-1.8-2.1-29.4,0.4-41.4-6.4l0,10.6C128,244.6,147.3,241.4,145.6,239.4z"/>
	<path d="M280.4,131.7c-23.3,2.3-52.9,4.3-54.2,0.3c-1.2-3.7,25-19.5,48.8-32.9c-0.3-6.2-0.2-12.8,0.2-19.8
		c-15.8,10.4-38.4,24.3-54.3,30.2c-4.5,2.5-9.4,3.9-14.7,4.3c-20.7,6.9-35.9,20.7-59.1,22.7c-8.8,0.8-16.8,0-23.5-1.4
		c-0.8,2.2-1.7,4.3-2.6,6.4c-1.8,4-3.8,7.3-5.7,10.2c6.6-0.8,14.8-0.7,29.6,1.8c33.9,5.6,58.7,1.1,77.9-2.3
		c9.6-1.7,39.3-1.1,66.7-0.2c-1.8-2.7-3.6-6-5.4-9.7C282.7,138.3,281.5,135.1,280.4,131.7z"/>
	<path d="M148.2,113.9c9.5-2.2,18.7-6.4,27.5-10.8c-2.9-2.8-5.6-6.2-8-10c-5.3,1.8-10.7,2.8-16.1,2.8c-7,0-14.3-0.4-21.4-1
		c-0.1,7.6-0.7,14.6-1.7,21.1C135.4,116.3,141.2,115.6,148.2,113.9z"/>
	<path d="M254.4,68.7c0,0,12.9-2.5,22.3-7.2c0.1-1.3,0.3-2.5,0.5-3.8l0.2-1.3l-25.7-7.7c-0.5-0.1-0.9-0.1-0.9-0.1
		c0,0.4-0.2,0.8-0.4,1.3c-0.2,5.8-1.4,13.8-3.8,22C251.3,70,254.4,68.7,254.4,68.7z"/>
	<path d="M129.9,80.1c9.3-3.1,18.9-8,27.3-13c-1.1-4.7-1.8-8.9-2.2-12.4c-8.6,2.4-18.2,5.3-26.7,6.6
		C129.1,67.9,129.6,74.1,129.9,80.1z"/>
	<path d="M276.9,117.6c-0.2-1.3-0.4-2.7-0.6-4c-1.1,0.7-1.6,1.4-1.6,2.6C274.7,116.7,275.5,117.2,276.9,117.6z"/>
	<path d="M601.6,157.1c-35.1-1.2-84.4-13.2-98.6,0.6c-14.2,13.8,1.5,15-38.9,15c-6.7,0-12.1,0.8-16.5,2.2l0,20.2
		c24.4-6.8,56.3-6.9,68.1-15.9c13.5-10.2,106.8-5.9,127.5-10.2l0-5.7c-1.9-1.2-5.7-4.4-9.9-10.3
		C626.1,155.6,616.2,157.6,601.6,157.1z"/>
	<path d="M534.1,112.4c-40.4-4.8-52.7,19.2-71.2,30.6c-0.1,0.1-0.2,0.1-0.3,0.2c-2.8,5.6-5.7,9.9-8.4,13.2
		c6.5-1.4,12.7-3.3,16.9-5.6c12.3-6.6,41.1-22.8,87.7-18c35.8,3.7,46.9,12.7,66.2,4.7c-1.9-4.6-3.4-9.6-4.6-14.9
		C596.8,129.7,572.6,117,534.1,112.4z"/>
	<path d="M573.3,247.7c13.1,6.3,43.9,1.4,69.8,2.9l0-19.7c-4.8-0.5-10.5-0.3-17.3,0.9c-42,7.4-25.9,3.3-43-7.7
		c-17.2-11-66.4,9.8-102.7,17.4c-14.3,3-24.6,3-32.5,2l0,16.9C479.6,257.4,559.1,240.8,573.3,247.7z"/>
	<path d="M540.5,194.8C501.7,206.9,480,225,454,220.2c-2.3-0.4-4.5-0.8-6.4-1.2l0,14.9c26.8,9.3,33.7-3.1,72.4-14.5
		c44.9-13.3,76.1-2.7,89.5,1.5c8.3,2.6,23.1,2.9,33.6,1.8l0-12.5c-5.2,3.2-14.4,6.4-27,1.6C595.9,203.9,579.4,182.6,540.5,194.8z"/>
	<path d="M495.7,155c1.9-2.9-27,3-48.1,8.2l0,5.5C469.4,160.5,493.5,158.3,495.7,155z"/>
	<path d="M617.4,85.2c-2.4,5.1-4.2,9.3-9.4,9.1c-12.3-0.6-62.3-15.6-96.6-16.2c-28.4-0.5-29.9,8.5-39,23.5
		c-0.5,9.1-1.8,17.3-3.7,24.7c11.3-8.6,23.4-20,34.5-27.9c18.5-13.2,51.4,1.2,94.5,4.2c8.5,0.6,14.9,0.9,20,0.7
		C617.3,97.7,617.2,91.6,617.4,85.2z"/>
	<path d="M482,59.1c12.9-0.4,26.6,3.8,44.4,7.5c-5.9-2.7-12.1-6.7-18.6-12.5c-1.4-1.3-5.4-4.8-8-5.6l0.1-0.6h-0.4l-27.9,8.4
		C474.5,58.1,478.1,59.2,482,59.1z"/>
	<path d="M550.1,70.7c3,0.4,6.1,0.7,9.3,1c35.6,3,45.7,11,41.8,0.6c-1-2.6-12.6-6.5-30.6-8.7C564.3,67.2,557.5,69.9,550.1,70.7z"/>
	<path d="M592.4,187c2.1,2.4,37-1.2,45.2,9.6c2.2,2.9,4,3.3,5.6,2.4l0-15.6C615.4,180.9,590.5,184.7,592.4,187z"/>
	<path d="M643.1,271.7l0-0.3c-17.4,2-20.4,6.5-49.9,1.6c-33.9-5.6-58.7-1.1-77.9,2.3c-9.7,1.7-39.9,1.1-67.6,0.1l0,20.4
		c23.8-2.6,62.6-6,64.2-1.3c1.5,4.6-38.3,27.2-64.2,41.4l0,17.2c0,0,0.1,0,0.2,0v0.1c0.1,0,0.3,0.1,0.6,0.1c0,0,1.1,0.5,3,1.5
		c15.9-10.9,53.5-35.6,72.8-40c24.8-5.6,40.7-22.6,66.6-24.8c26-2.3,45.2,9,45.2,9l7.2-0.7l0-26.6H643.1z"/>
	<path d="M589.8,312.5c-19.2,4.5-37.3,16.9-53.1,23.7c-15.8,6.8-53.1,21.5-53.1,21.5s-7.5,1.5-15.2,4.2c11.1,4.2,25.9,9.1,42.1,12.3
		c21.1-16.4,47.8-43.7,75.9-43.7c19.5,0,40.7,3.3,56.8,3.5l0-17.1C614.7,309.6,605.1,308.9,589.8,312.5z"/>
	<path d="M643.2,349.5c-15.5-15.6-47.2,0.3-68.1,13.3c-23.7,14.8-22.6,13.9-10.2,13.1c10.5-0.7,32.5-9.6,48.5-11.2
		c17.7-5.9,29.7-11.6,29.7-11.6L643.2,349.5z"/>
	<path d="M463.3,310.2c0-1.6-6.8-2.6-15.6-3l0,9.4C459.8,313.8,463.3,313.5,463.3,310.2z"/>
</g>
</svg>
