<?xml version="1.0" encoding="utf-8"?>
<!-- Generator: Adobe Illustrator 25.3.0, SVG Export Plug-In . SVG Version: 6.00 Build 0)  -->
<svg version="1.1" id="Layer_1" xmlns="http://www.w3.org/2000/svg" xmlns:xlink="http://www.w3.org/1999/xlink" x="0px" y="0px"
	 viewBox="0 0 750.2 400.1" style="enable-background:new 0 0 750.2 400.1;" xml:space="preserve">
<g>
	<path d="M202.5,131.2l74.8-74.8l-2.6-0.8l-37.1,37.1c-4.7,7.6-10.3,13.2-16.7,16.7l-18.4,18.4l-18.6-18.6
		c-6.2-3.5-11.6-8.9-16.2-16.2l-37.1-37.1l-2.6,0.8l73.6,73.6L202.5,131.2z"/>
	<path d="M202.6,157.8l-72.5-72.5c0,1.2,0.1,2.3,0.1,3.4l71.6,71.6l0.8,0.8l72.2-72.2c0-1.1,0-2.3,0.1-3.4L202.6,157.8z"/>
	<path d="M202.7,191.1l74.1-74.1c-0.2-1-0.3-1.9-0.5-2.9l-73.6,73.6l-74-74c-0.1,1-0.3,1.9-0.4,2.9l73.6,73.6L202.7,191.1z"/>
	<path d="M202.8,224.1l81.8-81.8c-0.2-0.4-0.3-0.7-0.5-1.1c-0.2-0.4-0.4-0.8-0.5-1.2l-80.7,80.7l-81.1-81.1
		c-0.3,0.6-0.5,1.2-0.8,1.8c-0.1,0.2-0.1,0.3-0.2,0.5l81.3,81.3L202.8,224.1z"/>
	<path d="M203,254.1l93.9-93.9c-0.5-0.5-1.1-1.1-1.6-1.7L203,250.8l-92.7-92.7c-0.6,0.6-1.1,1.2-1.6,1.7l93.5,93.5L203,254.1z"/>
	<polygon points="203.1,284.1 299.8,187.4 299.8,184 203.1,280.7 104.2,181.9 104.2,185.2 202.2,283.2 	"/>
	<polygon points="203.2,314.1 299.8,217.5 299.8,214.2 203.2,310.7 104.2,211.7 104.2,215.1 202.4,313.2 	"/>
	<polygon points="203.3,343 299.7,246.6 299.7,243.3 203.3,339.7 104.2,240.6 104.2,244 202.5,342.2 	"/>
	<path d="M220.8,355.6l78.9-78.9l0-3.3l-82.3,82.3C218.5,355.7,219.7,355.7,220.8,355.6z"/>
	<path d="M189.8,356.1l-85.6-85.6l0,3.3l82.2,82.2C187.6,356.1,188.7,356.1,189.8,356.1z"/>
	<path d="M299.8,306.7l0-3.3L248.2,355c1.2,0,2.3-0.1,3.4-0.1L299.8,306.7z"/>
	<path d="M159.5,355.6l-55.3-55.3l0,3.3l51.8,51.8C157.2,355.6,158.4,355.6,159.5,355.6z"/>
	<path d="M299.9,336.8l0-3.3L279.3,354c1.2,0,2.3-0.1,3.5-0.1L299.9,336.8z"/>
	<path d="M128.6,354.6l-24.3-24.3l0,3.3l20.8,20.8C126.2,354.5,127.4,354.5,128.6,354.6z"/>
	<path d="M150.9,49.7l4,4c-0.1-1.3-0.2-2.5-0.3-3.6l-1.2-1.2L150.9,49.7z"/>
	<path d="M250.1,53.5l4-4l-2.5-0.8c0,0,0,0-0.1,0l-1.2,1.2C250.3,51,250.2,52.2,250.1,53.5z"/>
	<path d="M202.5,145.9l73.1-73.1c0.1-1.2,0.2-2.4,0.3-3.7l-73.4,73.4l-73.4-73.4c0.1,1.2,0.2,2.4,0.3,3.7l72.2,72.2L202.5,145.9z"/>
	<path d="M202.6,175.9l72.6-72.6c-0.1-1-0.1-2.1-0.2-3.2l-72.4,72.4L130,99.9c0,1.1-0.1,2.1-0.2,3.2l71.9,71.9L202.6,175.9z"/>
	<path d="M202.7,205.8l76.8-76.8c-0.3-0.9-0.5-1.7-0.7-2.6l-76.1,76.1l-76.4-76.4c-0.2,0.9-0.5,1.8-0.7,2.6l76.3,76.3L202.7,205.8z"
		/>
	<path d="M202.8,238.8l87.1-87.1c-0.4-0.6-0.9-1.3-1.3-2l-85.8,85.8l-86.1-86.1c-0.4,0.7-0.9,1.4-1.3,2L202,238L202.8,238.8z"/>
	<polygon points="203,268.8 299.8,172 299.8,168.6 203,265.4 104.2,166.7 104.2,170 202.1,267.9 	"/>
	<polygon points="203.1,298.8 299.8,202.1 299.8,198.7 203.1,295.4 104.2,196.6 104.2,199.9 202.2,297.9 	"/>
	<polygon points="203.2,330.7 299.7,234.2 299.7,230.9 203.2,327.4 104.2,228.4 104.2,231.8 202.4,329.9 	"/>
	<path d="M202.5,356c0.5,0,1,0,1.5,0l95.6-95.6l0-3.3l-96.4,96.4l-99-99l0,3.3L202.5,356L202.5,356z"/>
	<path d="M176,356l-71.8-71.8l0,3.3l68.4,68.4C173.8,355.9,174.9,356,176,356z"/>
	<path d="M234.8,355.3l64.9-64.9l0-3.3l-68.4,68.4C232.5,355.4,233.7,355.3,234.8,355.3z"/>
	<path d="M299.8,320.4l0-3.3l-37.5,37.5c1.2,0,2.3-0.1,3.5-0.1L299.8,320.4z"/>
	<path d="M145.4,355.2l-41.1-41.1l0,3.3l37.7,37.7C143.1,355.1,144.2,355.2,145.4,355.2z"/>
	<path d="M114.2,353.9l-10-10l0,3.3l6.4,6.4C111.8,353.8,113,353.8,114.2,353.9z"/>
	<path d="M293.4,353.5c1.4,0,2.5-0.1,3.5-0.1l3-3l0-3.3L293.4,353.5z"/>
	<path d="M201.5,115.1l0.8,0.8l2-2c-0.3,0-0.6,0-0.9,0H202h-0.3c-0.5,0-0.9,0-1.4-0.1L201.5,115.1z"/>
	<path d="M246.6,71.7l18.9-18.9l-2.6-0.8l-15.1,15.1C247.4,68.6,247,70.2,246.6,71.7z"/>
	<path d="M157.3,67.5l-15.1-15.1l-2.6,0.8L158.5,72C158,70.5,157.6,68.9,157.3,67.5z"/>
	<path d="M543.5,89.7l-34.3-34.3c-0.5-0.4-0.9-0.8-1.4-1.2c-1.4-1.3-5.4-4.8-8-5.6l0.1-0.6h-0.4l-0.8,0.2l44,44l0.8,0.8l34.1-34.1
		c-2.9,2.1-6,4.1-9.2,5.8L543.5,89.7z"/>
	<polygon points="543.7,119.7 478.3,54.4 475.8,55.2 542.8,122.2 543.7,123.1 613,53.7 610.4,52.9 	"/>
	<path d="M543.8,149.7l-71.5-71.5c0.1,1.2,0.1,2.4,0.2,3.5l70.4,70.4l0.8,0.8l73.9-73.9c0.1-1.2,0.1-2.4,0.2-3.6L543.8,149.7z"/>
	<path d="M543.9,182.7l-72.2-72.2c-0.1,1-0.2,2-0.4,3l71.8,71.8l0.8,0.8l74.6-74.6c-0.1-1-0.2-2-0.3-3L543.9,182.7z"/>
	<path d="M544,212.6l-77.9-77.9c-0.3,0.8-0.6,1.6-0.9,2.4l78,78l0.8,0.8l80.3-80.3c-0.3-0.8-0.6-1.6-0.9-2.5L544,212.6z"/>
	<path d="M544.1,242.6l-88.4-88.4c-0.5,0.7-1,1.3-1.5,1.9l89,89l0.8,0.8l90.8-90.8c-0.5-0.6-0.9-1.2-1.4-1.9L544.1,242.6z"/>
	<polygon points="544.3,272.6 447.6,175.9 447.6,179.3 543.4,275.1 544.3,275.9 643.2,177 643.2,173.7 	"/>
	<polygon points="544.3,301.6 447.6,204.8 447.6,208.2 543.5,304.1 544.3,304.9 643.2,206.1 643.2,202.8 	"/>
	<polygon points="544.5,331.6 447.6,234.7 447.6,238.1 543.6,334.1 544.5,334.9 643.1,236.2 643.1,232.9 	"/>
	<polygon points="544.6,361.5 447.7,264.6 447.7,267.9 543.8,364 544.6,364.9 643.1,266.4 643.1,263 	"/>
	<path d="M447.7,297.8l78.9,78.9c1.2,0.1,2.5,0.3,3.7,0.4l-82.6-82.6L447.7,297.8z"/>
	<path d="M559.3,376.9c1.3-0.1,2.5-0.3,3.8-0.4l80.2-80.2l0-3.3L559.3,376.9z"/>
	<path d="M597.9,369.4c1.6-0.4,3.1-0.9,4.7-1.3l40.6-40.6l0-3.3L597.9,369.4z"/>
	<path d="M492.1,369.8l-44.5-44.5l0,3.3l39.7,39.7C489,368.9,490.5,369.4,492.1,369.8z"/>
	<polygon points="490,50.9 487.4,51.6 542.7,106.9 543.5,107.8 601.2,50.1 598.6,49.3 543.5,104.4 	"/>
	<path d="M470.9,61.6c0.1,1.3,0.3,2.5,0.4,3.8l71.5,71.5l0.8,0.8l75.4-75.4c0.1-1.3,0.3-2.5,0.4-3.8l-75.8,75.8L470.9,61.6z"/>
	<path d="M542.9,166.9l0.8,0.8l73.6-73.6c0-1.1,0-2.2,0-3.3l-73.5,73.5l-71.1-71.1c0,1.1,0,2.2-0.1,3.3L542.9,166.9z"/>
	<path d="M469.5,123c-0.2,0.9-0.4,1.8-0.7,2.7l74.2,74.2l0.8,0.8l76.8-76.8c-0.2-0.9-0.4-1.8-0.6-2.7l-76.2,76.2L469.5,123z"/>
	<path d="M461.6,144.9c-0.4,0.7-0.8,1.5-1.2,2.2l82.7,82.7l0.8,0.8l84.8-84.8c-0.4-0.7-0.8-1.4-1.1-2.2L544,227.3L461.6,144.9z"/>
	<path d="M448.7,161.9c-0.4,0.3-0.8,0.7-1.1,0.9l0,1.3l95.7,95.7l0.8,0.8l98-98c-0.5-0.4-1.2-0.9-1.8-1.5l-96.2,96.2L448.7,161.9z"
		/>
	<polygon points="447.6,192.6 447.6,196 543.4,291.8 544.3,292.6 643.2,193.7 643.2,190.4 544.3,289.3 	"/>
	<polygon points="447.6,218.5 447.6,221.9 543.5,317.8 544.3,318.6 643.1,219.8 643.2,216.5 544.3,315.3 	"/>
	<polygon points="447.6,248.4 447.6,251.8 543.6,347.7 544.5,348.6 643.1,249.9 643.1,246.6 544.5,345.2 	"/>
	<path d="M447.7,278.3l0,3.3l96.1,96.1c0,0,0,0,0.1,0c0.6,0,1.1,0,1.7,0l97.8-97.8l0-3.3l-98.7,98.7L447.7,278.3z"/>
	<path d="M643.3,306.6l-68,68c1.4-0.3,2.8-0.5,4.1-0.8l63.8-63.8L643.3,306.6z"/>
	<path d="M447.7,311.5l62.7,62.7c1.4,0.3,2.7,0.5,4.1,0.8l-66.8-66.8L447.7,311.5z"/>
	<path d="M643.2,337.8l-25.4,25.4c1.8-0.6,3.6-1.3,5.2-1.9l20.1-20.1L643.2,337.8z"/>
	<path d="M471.9,363.2L447.7,339l0,3.3l18.8,18.8C468.2,361.8,470,362.5,471.9,363.2z"/>
	<path d="M543.4,77.8l7.1-7.1c-1.2,0.1-2.4,0.2-3.6,0.3l-3.5,3.5l-3.9-3.9c-1.4-0.2-2.7-0.5-4.1-0.8l7.2,7.2L543.4,77.8z"/>
</g>
</svg>
