<?xml version="1.0" encoding="utf-8"?>
<!-- Generator: Adobe Illustrator 25.3.0, SVG Export Plug-In . SVG Version: 6.00 Build 0)  -->
<svg version="1.1" id="Layer_1" xmlns="http://www.w3.org/2000/svg" xmlns:xlink="http://www.w3.org/1999/xlink" x="0px" y="0px"
	 viewBox="0 0 750.2 400.1" style="enable-background:new 0 0 750.2 400.1;" xml:space="preserve">
<g>
	<polygon points="146.6,151.2 143.3,151.2 142.9,152.9 	"/>
	<polygon points="299.8,177.1 299.8,172.9 297,171.3 297,175.5 	"/>
	<polygon points="299.7,247.5 299.7,245.3 297,244.9 297,247.1 	"/>
	<polygon points="296.2,236.5 299.7,237 299.7,234.9 297.6,234.6 282.1,203.2 283.3,202.6 299.8,212 299.8,207.8 283.5,198.4 
		280.5,199.9 279.3,197.5 276.9,197.5 	"/>
	<path d="M289.5,151.1c-0.3-0.5-0.6-0.9-0.9-1.4l-35.4-0.1v1.5H289.5z"/>
	<polygon points="297,290.2 290.7,290.2 299.7,291.9 299.7,288.2 297.3,287.7 299.7,285.3 299.7,282.3 297,285 297,287.7 	"/>
	<polygon points="253.2,197.5 253.2,197.5 253.2,197.5 	"/>
	<polygon points="286.5,243.8 289,243.8 288.9,243.7 266.1,197.5 263.7,197.5 	"/>
	<polygon points="252.8,197.4 252.8,193.4 250.8,197.4 	"/>
	<polygon points="299.7,259.3 299.7,257.2 297,256.8 297,258.9 	"/>
	<polygon points="253.2,223.2 253.2,228 258.4,217.4 271.4,243.8 273.8,243.8 258.4,212.5 	"/>
	<polygon points="210.1,243.9 209.1,243.9 209.1,250.7 221,277.4 252.8,283.3 252.8,279.5 250.9,279.2 244.7,273.1 252.8,271.9 
		252.8,269.7 252.8,269.8 240.1,271.6 247.1,278.5 235.7,276.4 231.9,275.7 223.6,274.2 217,259.4 239.3,256.1 245.4,243.9 
		243,243.9 237.9,254.1 216.1,257.3 212,248.2 229.4,245.7 230.3,243.9 226.9,243.9 211.1,246.2 	"/>
	<polygon points="148.2,58.5 156.1,104.7 158.3,104.7 150.4,58.5 	"/>
	<path d="M139,89.8l-8.8-4.7c0,0.8,0,1.6,0.1,2.5l11.6,6.1l-6.1-35.3h-2.2L139,89.8z"/>
	<path d="M280.2,131.3c-0.3-1-0.6-1.9-0.9-2.9l-26.2-0.1v2.9L280.2,131.3z"/>
	<polygon points="275.6,57.7 275,55.7 271.7,54.7 272.4,57.1 271.4,58.3 275.1,58.3 	"/>
	<polygon points="252.8,86.9 252.8,82.3 235.3,104.7 239,104.7 	"/>
	<polygon points="253.2,54.1 253.2,58.3 253.6,58.3 254.2,57.6 	"/>
	<path d="M249.9,58.5l-0.6,0.7c-0.3,2-0.7,4.1-1.2,6.2l4.7-6v-0.9H249.9z"/>
	<path d="M164.9,151.1h3.6l-2.5-5.6l9.7,5.6H209v-1.6l-26.2-0.1l26.2-33.7v-2.3c-0.7,0.1-1.4,0.2-2.1,0.2l-10.6,13.7l-21.5-22.6H169
		l7.3,42.4l-11.5-6v10h-0.2l0.3,0.7V151.1z M171.5,106.6l22.5,23.7L180.2,148l-2-2.1L171.5,106.6z"/>
	<polygon points="214.4,197.4 224,197.4 241.8,188.9 237.6,197.4 240,197.4 252.8,171.4 252.8,166.6 244.4,183.5 218.4,196 
		227.6,152.4 252.8,152.5 252.8,151.2 209.1,151.2 209.1,152.4 223.8,152.4 	"/>
	<path d="M275.5,107.1c-0.1-0.8-0.1-1.5-0.2-2.3h-15.7l-1.8,2.3L275.5,107.1z"/>
	<polygon points="126.9,243.9 120.7,255.3 120.7,263 131,243.9 	"/>
	<polygon points="160,190.5 163.1,197.4 164.8,197.4 164.8,201.2 183.8,243.8 187.8,243.8 167.1,197.5 164.9,197.5 164.9,192.5 
		160.3,182.2 152,197.4 156.2,197.4 	"/>
	<polygon points="209.1,290.1 213,290.1 209.1,289.4 	"/>
	<polygon points="209,293.1 209,290.2 204.6,290.2 205.6,292.5 	"/>
	<polygon points="299.8,326.9 289.2,336.5 294.7,336.5 299.8,331.8 	"/>
	<polygon points="299.8,309.8 299.8,306.1 253.2,297.5 253.2,301.2 	"/>
	<polygon points="209,243.8 209,241.4 207.6,238.4 209,238.2 209,234.1 206.3,235.4 191.8,203.2 193,197.5 185.3,197.5 206,243.8 	
		"/>
	<polygon points="104.3,325.5 104.3,329.2 120.5,327.5 120.5,323.8 	"/>
	<polygon points="104.3,305.4 104.3,309.1 120.5,307.4 120.5,303.7 	"/>
	<polygon points="104.3,329.6 104.3,334.9 105.7,336.5 110.8,336.5 	"/>
	<polygon points="154.2,290.1 158.1,290.1 156.3,286.1 	"/>
	<polygon points="209,330 173.1,323.4 164.8,304.9 164.8,313.9 170.5,326.7 205.3,333.1 201.6,336.5 207.1,336.5 209,334.8 	"/>
	<path d="M122.7,354.3c1.7,0.1,3.4,0.2,5.3,0.2l-7.3-7.7v5.3L122.7,354.3z"/>
	<polygon points="153,243.9 128,290.1 132.2,290.1 157.2,243.9 	"/>
	<polygon points="190.6,306.3 183.4,290.2 179.4,290.2 188,309.6 209,313.4 209,309.7 	"/>
	<path d="M224.3,355.6c1.9,0,3.7-0.1,5.6-0.1l20.8-18.8h-5.5L224.3,355.6z"/>
	<polygon points="162.7,243.9 158.6,243.9 164.9,257.8 164.9,248.8 	"/>
	<polygon points="260.4,322.9 253.2,329.4 253.2,334.4 268.4,320.6 253.2,317.8 253.2,321.6 	"/>
	<path d="M138.3,349.4l-1.2,5.5c1.2,0,2.5,0.1,3.7,0.1l1.4-6.8l-11.1-11.7h-5.1L138.3,349.4z"/>
	<polygon points="164.8,332.1 164.8,335.8 168.3,336.5 185.2,336.5 185.7,335.9 	"/>
	<polygon points="104.2,201.6 104.2,205.4 110.2,197.5 107.3,197.5 	"/>
	<path d="M123.2,197.4h2.9l10.1-13.3l-7.2,13.3h4.2l25-46.2H154l-6.7,12.4l-17.2,8.2l4.3-20.6h-3.7l-5.1,24.2l-5,1.4v2.4l21-6
		L123.2,197.4z M139.5,171.4l4.9-2.3l-0.6,1.1L139.5,171.4z"/>
	<polygon points="120.5,209.9 114.3,213 120.5,204.7 120.5,200.9 104.2,222.4 104.2,226.1 109.4,219.3 119.8,214.4 104.2,243.1 
		104.2,243.8 108.1,243.8 120.5,220.7 	"/>
	<polygon points="159.6,140.9 150.2,136 148,146.4 159.6,140.9 	"/>
	<polygon points="174,163.3 174.4,163.5 176.9,151.7 175.7,151.1 168.5,151.1 	"/>
	<polygon points="156.6,146.4 146.6,151.2 154,151.2 	"/>
	<path d="M146.9,134.2l-19.9-10.5c-0.1,0.6-0.3,1.2-0.4,1.9l11,11.6l-3,14.1h8.8L146.9,134.2z"/>
	<polygon points="129,197.4 126.1,197.4 120.5,204.7 120.5,209.9 122.8,208.9 	"/>
	<path d="M120.5,151.2v-0.1h-4.9c-3,4.6-6,7.9-8.2,10l-3.2,15.1l0,5.4l16.5-4.7v-25.6H120.5z"/>
	<path d="M120.7,151.2h10.1l2.7-12.9l-8.1-8.6c-1.2,4.2-2.7,8.1-4.4,11.8c-0.1,0.3-0.2,0.5-0.4,0.7v8.8h0.1V151.2z"/>
	<path d="M258.4,155.2l8.6,17.5l17.7-8.5l12.2,7v-10.9c-1.9-1.9-4.2-4.4-6.5-7.9l-37.7-0.1v14.1L258.4,155.2z"/>
	<polygon points="219.3,234.6 220.1,232.8 215.3,235.1 	"/>
	<polygon points="189.3,197.5 198.8,152.4 180.5,152.3 176.9,169.7 	"/>
	<polygon points="209,234.1 222.7,227.5 237.6,197.4 224,197.4 213.3,202.5 214.4,197.4 209.1,197.4 209.1,152.4 202.5,152.4 
		193,197.5 209,197.5 	"/>
	<path d="M250,53.8c-0.1,1.5-0.3,3-0.6,4.7h0.4L251,57L250,53.8z"/>
	<path d="M169.6,96l0.7,4.2l4.5,4.7h2.8C174.7,102.4,172.1,99.4,169.6,96z"/>
	<polygon points="268.7,176 279.3,197.5 297,197.5 297,175.5 284.6,168.4 	"/>
	<polygon points="265.6,281.9 265.3,279.8 272.1,273.1 262.7,271.7 258.4,263.2 254.2,271.7 252.8,271.9 252.8,279.5 	"/>
	<polygon points="264.1,269.8 276.8,271.6 267.6,280.6 267.9,282.3 273.9,283.4 288.2,269.5 267.6,266.5 258.4,247.9 252.8,259.3 
		252.8,269.7 258.4,258.3 	"/>
	<polygon points="271.4,243.8 258.8,243.8 269,264.6 292.8,268 276.5,283.9 294.7,287.2 297,285 297,258.9 277.5,256.1 	"/>
	<polygon points="252.8,243.9 252.8,254.4 258.1,243.8 253.2,243.8 253.2,228 245.4,243.9 	"/>
	<polygon points="297,243.8 289,243.8 297,244.9 	"/>
	<polygon points="226.9,243.9 228,243.7 250.8,197.4 240,197.4 220.7,236.5 209,238.2 209,241.4 210.1,243.9 	"/>
	<polygon points="252.8,171.4 252.8,193.4 258.4,182 266.1,197.5 276.9,197.5 258.4,160.1 	"/>
	<polygon points="286.5,243.8 273.8,243.8 279,254.1 297,256.8 297,247.1 287.4,245.7 	"/>
	<polygon points="253.2,223.2 253.2,197.5 230.3,243.9 243,243.9 	"/>
	<polygon points="258.4,186.9 253.2,197.5 263.7,197.5 	"/>
	<path d="M127.8,56.8l0.1,1.1c0,0.2,0,0.4,0.1,0.6h5.6l-0.6-3.3L127.8,56.8z"/>
	<path d="M158.3,104.7l3.4,19.6l-32.1-16.9c-0.5,5-1.2,9.7-2.1,14.1l33.2,17.5l1.4-2.5l1.9,4.2l0.9,0.5v-36.5H158.3z"/>
	<path d="M164.9,88.1v16.7h4.1l-2.3-13.5C166,90.3,165.5,89.2,164.9,88.1z"/>
	<path d="M154.7,51.9l-4.7,4.6l0.3,2h5.1C155.1,56,154.9,53.8,154.7,51.9z"/>
	<path d="M129.7,105.1l29.1,15.3l-2.7-15.6h-26.4C129.7,104.8,129.7,104.9,129.7,105.1z"/>
	<path d="M148.1,55.3l6.3-6.1c-0.1-0.3-0.2-0.5-0.2-0.5l-19.1,5.9l0.7,3.9h12.4l-0.5-2.8L148.1,55.3z"/>
	<path d="M263.7,104.2l11.5,0c-0.3-4.5-0.5-9.3-0.5-14.3L263.7,104.2z"/>
	<path d="M253.2,149.5v-18.3l-38.4-0.1l20.6-26.4h-7.7c-5,4.3-10.5,7.1-16.6,8.4l-2.1,2.7v33.7L253.2,149.5z"/>
	<path d="M251.6,48.7C251.6,48.7,251.6,48.7,251.6,48.7l1.6,5.4v-5L251.6,48.7z"/>
	<polygon points="253.6,58.3 252.8,59.4 252.8,82.3 271.4,58.3 	"/>
	<path d="M252.8,104.7H239l-18.3,23.5l32.5,0.1v-23.5h6.4l15.3-19.7c0.2-8.3,0.9-17.2,2.1-26.8h-2l-22.2,28.6V104.7z"/>
	<path d="M164.9,355.8c0.6,0,1.1,0,1.7,0l-0.9-6.7l12.1-10.9l-9.5-1.7h-3.4V355.8z"/>
	<polygon points="155,320.3 147.3,334.7 131,336.4 131.2,336.6 164.8,336.6 164.8,335.8 161.7,335.2 	"/>
	<polygon points="145,331.3 155.4,312.1 164.3,332 164.8,332.1 164.8,313.9 156,294.4 139.2,325.5 120.5,327.5 120.5,336.5 
		110.8,336.5 120.7,346.8 120.7,336.6 126.1,336.6 123.3,333.6 	"/>
	<path d="M169.5,350.6l0.7,5.3c3.2,0.1,6.5,0.1,9.7,0.1l21.6-19.6h-16.4L169.5,350.6z"/>
	<path d="M104.3,336.5l0,9.8l1.9,4.7l-1.9,0l0,2.3c0.1,0,0.2,0,0.3,0v0.1c0,0,6.2,0.4,16.1,0.8v-2.1l-14.9-15.7H104.3z"/>
	<polygon points="154.2,290.1 132.2,290.1 123,307.1 120.5,307.4 120.5,323.8 136.9,322.1 	"/>
	<polygon points="158.1,290.1 164.8,304.9 164.8,290.1 	"/>
	<polygon points="164.9,290.2 179.4,290.2 164.9,257.8 	"/>
	<polygon points="157.2,243.9 158.6,243.9 158,242.4 	"/>
	<path d="M253.2,321.6l-44.2-8.1V330l4.3,0.8l-4.3,3.9v1.7h-1.9l-21.7,19.6c5.1,0,10.2,0,15-0.1c2.8,0,5.7-0.1,8.7-0.1v-19.3h36.2
		l7.9-7.1V321.6z"/>
	<polygon points="161.7,144.7 158.2,151.2 164.6,151.2 	"/>
	<polygon points="167.1,197.5 185.3,197.5 164.9,151.9 164.9,192.5 	"/>
	<polygon points="126.9,243.9 152,197.4 133.2,197.4 120.5,220.7 120.5,243.8 108.1,243.8 104.2,250.8 104.3,285.3 104.4,285.3 
		120.7,255.3 120.7,243.9 	"/>
	<polygon points="252.8,290.1 213,290.1 253.2,297.5 253.2,290.2 290.7,290.2 252.8,283.3 	"/>
	<polygon points="209.1,289.4 209.1,250.7 206,243.8 187.8,243.8 208.1,289.2 	"/>
	<path d="M297,353.4v-16.9h-2.3l-19.6,17.7C285.2,353.8,293,353.5,297,353.4z"/>
	<polygon points="128,290.1 120.7,290.1 120.7,263 106.8,288.7 104.3,289 104.3,290.2 120.5,290.2 120.5,303.7 120.7,303.7 	"/>
	<polygon points="162.7,243.9 164.8,243.9 164.8,201.2 163.1,197.4 156.2,197.4 131,243.9 153,243.9 158.3,234.1 	"/>
	<polygon points="164.9,248.8 183.4,290.2 204.6,290.2 183.8,243.8 164.9,243.8 	"/>
	<polygon points="209,309.7 253.2,317.8 253.2,301.2 209,293.1 	"/>
	<path d="M253.2,334.4l-2.4,2.2h2.1v18.2c5.9-0.2,11.5-0.3,16.6-0.5l19.8-17.9h-36V334.4z"/>
	<polygon points="120.7,197.4 120.7,179.2 104.2,183.9 104.2,194.6 114.7,191.6 110.2,197.5 120.5,197.5 120.5,200.9 123.2,197.4 	
		"/>
	<polygon points="104.2,197 104.2,197.5 107.3,197.5 108.7,195.7 	"/>
	<polygon points="573.8,151.2 570.5,151.2 574.2,152.9 	"/>
	<path d="M458,151.1h5.9v-1.5l-4.9,0C458.7,150.1,458.3,150.6,458,151.1z"/>
	<polygon points="463.9,197.5 463.9,197.5 463.9,197.5 	"/>
	<polygon points="447.6,204.4 447.6,209.3 453.4,197.5 451,197.5 	"/>
	<polygon points="464.3,197.4 466.2,197.4 464.3,193.4 	"/>
	<polygon points="458.7,212.5 447.6,234.9 447.6,239.7 458.7,217.4 463.9,228 463.9,223.2 	"/>
	<polygon points="508,250.7 508,243.9 507,243.9 506,246.2 490.2,243.9 486.8,243.9 487.7,245.7 505.1,248.2 501,257.3 479.2,254.1 
		474.1,243.9 471.7,243.9 477.8,256.1 500.1,259.4 493.5,274.2 485.2,275.7 481.4,276.4 470,278.5 477,271.6 464.3,269.8 
		464.3,269.7 464.3,271.9 472.4,273.1 466.2,279.2 464.3,279.5 464.3,283.3 496.1,277.4 	"/>
	<polygon points="596.4,102.7 596.4,100.3 588.1,104.7 592.7,104.7 	"/>
	<path d="M567.8,65.1c-0.8,0.4-1.6,0.8-2.4,1.2l-6.6,38.4h2.2L567.8,65.1z"/>
	<path d="M552.2,70.4V81l1.9-10.9C553.5,70.2,552.8,70.3,552.2,70.4z"/>
	<polygon points="598.1,58.3 599.6,49.6 597.5,49 596.5,54.8 596.5,58.3 	"/>
	<polygon points="613.2,53.8 610.3,52.9 599.8,58.3 604.5,58.3 	"/>
	<polygon points="595.9,58.5 595.1,63.3 596.4,62.6 596.4,58.5 	"/>
	<polygon points="578.1,89.8 583.5,58.5 581.3,58.5 575.3,93.8 596.4,82.7 596.4,80.2 	"/>
	<path d="M472.6,97.6l5.5,7.1h3.6l-9-11.6C472.7,94.6,472.7,96.1,472.6,97.6z"/>
	<path d="M508,103.6v-5.3l-5.4,5.7l-16-20.5l1.2-1.3l-2.4-0.3l-14-17.9l36.5,3.9v-3.7l-37.3-4c0.3,2.9,0.6,5.8,0.9,8.6l27.9,35.9
		h7.4L508,103.6z"/>
	<path d="M552.3,151.2v-10l-11.5,6l7.3-42.4h-5.8l-21.5,22.6l-12.7-16.3v4.7l26.2,33.7l-26.2,0.1v1.6h33.2l9.7-5.6l-2.5,5.6h3.6v0.8
		l0.3-0.7H552.3z M536.9,148l-13.8-17.7l22.5-23.7l-6.7,39.3L536.9,148z"/>
	<polygon points="479.5,197.4 475.3,188.9 493.1,197.4 502.7,197.4 493.2,152.4 508,152.4 508,151.2 464.3,151.2 464.3,152.5 
		489.5,152.4 498.7,196 472.7,183.5 464.3,166.6 464.3,171.4 477.1,197.4 	"/>
	<polygon points="586.1,243.9 596.4,263 596.4,255.3 590.2,243.9 	"/>
	<polygon points="552.3,197.4 554,197.4 557.1,190.5 560.9,197.4 565.1,197.4 556.8,182.2 552.2,192.5 552.2,197.5 550,197.5 
		529.3,243.8 533.3,243.8 552.3,201.2 	"/>
	<polygon points="508,290.1 508,289.4 504.1,290.1 	"/>
	<polygon points="512.5,290.2 508.1,290.2 508.1,293.1 511.5,292.5 	"/>
	<polygon points="447.7,300.5 447.7,304.2 463.9,301.2 463.9,297.5 	"/>
	<polygon points="640.6,189.5 640.6,191.9 643.2,192.6 643.2,183.3 640.6,171.2 640.6,189 640.8,189.5 	"/>
	<path d="M624.9,137.4c-0.5-1.2-1-2.5-1.4-3.8l-16,16.9l0.1,0.6h4.3L624.9,137.4z"/>
	<polygon points="643.2,350.9 643.2,348.3 640.6,348.4 640.6,350.9 	"/>
	<path d="M640.6,161.3v2.2l1.1-1.2C641.4,162,641,161.7,640.6,161.3z"/>
	<path d="M604.7,116l11.6-6.1l2.1,1.1c-0.1-0.9-0.2-1.7-0.3-2.6l-1.8-0.9l-19.8,10.4v6.7L604.7,116z"/>
	<polygon points="510.8,235.4 508.1,234.1 508.1,238.2 509.5,238.4 508.1,241.4 508.1,243.8 511.1,243.8 531.8,197.5 524.1,197.5 
		525.2,203.2 	"/>
	<polygon points="635.2,291.4 628.8,307.1 596.5,303.7 596.5,307.4 627.3,310.7 620.9,326.4 596.5,323.8 596.5,327.5 613.1,329.3 
		606.3,336.5 611.4,336.5 620.9,326.5 616.8,336.5 620.2,336.5 639.1,290.2 624.3,290.2 	"/>
	<polygon points="558.9,290.1 562.9,290.1 560.7,286.1 	"/>
	<polygon points="546.6,326.7 552.3,313.9 552.3,304.9 544,323.4 508.1,330 508.1,334.8 510,336.5 515.5,336.5 511.8,333.1 	"/>
	<path d="M559.6,376.9c2.6-0.3,5.2-0.6,7.8-1l-3.3-1.6L559.6,376.9z"/>
	<path d="M588.7,354.9l3.4,16c1.2-0.3,2.4-0.6,3.6-0.9l-2.9-13.9l3.7-3.9v-5.3L588.7,354.9z"/>
	<polygon points="584.9,290.1 589.1,290.1 564.1,243.9 559.9,243.9 	"/>
	<polygon points="537.7,290.2 533.7,290.2 526.5,306.3 508.1,309.7 508.1,313.4 529.1,309.6 	"/>
	<path d="M466.4,336.6l40.9,37c0.2,0.1,0.5,0.1,0.7,0.2v-4.4l-36.2-32.7H466.4z"/>
	<polygon points="552.2,248.8 552.2,257.8 558.4,243.9 554.4,243.9 	"/>
	<polygon points="456.7,322.9 463.9,321.6 463.9,317.8 448.7,320.6 463.9,334.4 463.9,329.4 	"/>
	<polygon points="574.8,348.3 578.2,364.2 563.4,357.2 552.2,363.7 552.2,367.9 563.6,361.3 583.3,370.8 578.8,349.4 591,336.6 
		585.9,336.6 	"/>
	<polygon points="531.9,336.5 548.8,336.5 552.3,335.8 552.3,332.1 531.3,335.9 	"/>
	<polygon points="643.2,205.7 643.2,203.3 623.1,197.5 614.8,197.5 	"/>
	<polygon points="643.1,245.2 643.1,241.4 609.8,197.5 606.9,197.5 	"/>
	<polygon points="643.2,333 643.2,330.5 639,330.5 643.2,320.2 643.3,311.8 634.6,333 	"/>
	<path d="M580.9,184.1l10.1,13.3h2.9l-18.5-24.3l21,6v-2.4l-5-1.4l-5.1-24.2h-3.7l4.3,20.6l-17.2-8.2l-6.7-12.4h-4.2l25,46.2h4.2
		L580.9,184.1z M572.7,169l4.9,2.3l-4.3-1.2L572.7,169z"/>
	<polygon points="602.8,213 596.5,209.9 596.5,220.7 609,243.8 613.2,243.8 597.3,214.4 607.7,219.3 626.3,243.8 629.1,243.8 
		596.5,200.9 596.5,204.7 	"/>
	<polygon points="643,265.7 640.6,264.6 640.6,268.7 643.1,269.9 643.1,262.2 640.6,258.9 640.6,262.7 	"/>
	<polygon points="643.1,271.7 643.1,270.8 640.6,270.6 640.6,274.3 642.1,274.4 640.6,278 640.6,286.4 643.3,279.9 643.3,271.7 	"/>
	<polygon points="643.1,218.2 639.8,217.2 643.1,221.6 	"/>
	<polygon points="569.1,146.4 566.8,136 557.5,140.9 557.5,140.9 	"/>
	<polygon points="540.2,151.7 542.7,163.5 543.1,163.3 548.6,151.1 541.4,151.1 	"/>
	<polygon points="560.5,146.4 563.1,151.2 570.5,151.2 	"/>
	<polygon points="579.6,137.1 594.6,121.4 570.2,134.2 573.8,151.2 582.6,151.2 	"/>
	<polygon points="594.3,208.9 596.5,209.9 596.5,204.7 591,197.4 588.1,197.4 	"/>
	<polygon points="596.4,151.2 596.4,176.8 614.1,181.9 607.6,151.1 596.5,151.1 596.5,151.2 	"/>
	<polygon points="586.3,151.2 596.4,151.2 596.4,151.1 596.5,151.1 596.5,124.6 583.6,138.2 	"/>
	<polygon points="626.9,269.1 640.6,270.6 640.6,268.7 621.8,259.7 	"/>
	<polygon points="639.3,164.9 640.6,171.2 640.6,163.5 	"/>
	<path d="M618.1,183l22.6,6.5V189l-5.3-25.2l3.7-3.9c-2.1-2-4.6-4.9-7.1-8.8h-20l-0.5,0.5L618.1,183z"/>
	<polygon points="640.6,264.6 640.6,262.7 626.3,243.8 613.2,243.8 618.8,254.2 	"/>
	<path d="M457.1,152.5c-3.8,5.4-7.3,8.7-9.5,10.3l0,8.8l2.4,1.2l8.6-17.5l5.6,11.4v-14.1L457.1,152.5z"/>
	<polygon points="534.2,70.7 508,67.9 508,98.3 	"/>
	<polygon points="501.8,235.1 497,232.8 497.8,234.6 	"/>
	<polygon points="540.2,169.7 536.6,152.3 518.3,152.4 527.8,197.5 	"/>
	<polygon points="502.7,197.4 503.8,202.5 493.1,197.4 479.5,197.4 494.4,227.5 508.1,234.1 508.1,197.5 524.1,197.5 514.5,152.4 
		508,152.4 508,197.4 	"/>
	<path d="M506.9,104.7l-2.1,2.2l3.3,4.2v-6.2h34.2l4.5-4.7l5.1-29.6c-2.1,0.3-4.2,0.5-6.3,0.5c-2,0-4-0.1-6.1-0.4l-31.4,33v1.1
		H506.9z"/>
	<path d="M512.8,58.3h-4.7v-3.9c-0.1-0.1-0.2-0.2-0.3-0.3c-1.4-1.3-5.4-4.8-8-5.6l0.1-0.6h-0.4l-29.2,8.8l0.1,0.9
		c0,0.3,0.1,0.5,0.1,0.8H508v5.7l17,1.8C521.1,64.1,517,61.6,512.8,58.3z"/>
	<polygon points="447.6,175.6 447.6,177.6 448.4,176 	"/>
	<polygon points="462.9,271.7 458.7,263.2 454.4,271.7 447.7,272.7 447.7,275.8 451.8,279.8 451.4,281.9 464.3,279.5 464.3,271.9 	
		"/>
	<polygon points="449.5,280.6 447.7,278.8 447.7,282.6 449.2,282.3 	"/>
	<polygon points="458.7,247.9 449.5,266.5 447.7,266.8 447.7,270.6 453,269.8 458.7,258.3 464.3,269.7 464.3,259.3 	"/>
	<polygon points="458.3,243.8 447.6,243.8 447.7,264.6 448,264.6 	"/>
	<polygon points="463.9,243.8 459,243.8 464.3,254.4 464.3,243.9 471.7,243.9 463.9,228 	"/>
	<polygon points="508.1,238.2 496.4,236.5 477.1,197.4 466.2,197.4 489.1,243.7 490.2,243.9 507,243.9 508.1,241.4 	"/>
	<polygon points="464.3,193.4 464.3,171.4 458.7,160.1 447.6,182.5 447.6,197.5 451,197.5 458.7,182 	"/>
	<polygon points="486.8,243.9 463.9,197.5 463.9,223.2 474.1,243.9 	"/>
	<polygon points="453.4,197.5 463.9,197.5 458.7,186.9 	"/>
	<polygon points="599.8,58.3 598.1,58.3 597.9,59.3 	"/>
	<path d="M596.5,54.8v-6.1l-2.6-0.8l-0.3-0.1c0,0-0.5,0-1.3-0.1l-0.1,0.7c-1.2,0-3.6,1.9-5.5,3.5c-0.8,0.6-1.6,1.3-2.4,1.8l-0.8,4.7
		h12.4L596.5,54.8z"/>
	<path d="M596.4,80.2l19.9-10.5l1.9,1c0.3-4,0.8-8.1,1.3-12.4h-15.1l-8,4.2V80.2z"/>
	<path d="M596.5,104.7v0.1h21.3c-0.3-3.9-0.5-7.9-0.5-12.1l-1-0.5l-19.9,10.5v2H596.5z"/>
	<polygon points="555.1,136.5 556.5,139 596.5,117.9 596.5,104.8 596.4,104.8 596.4,104.7 592.7,104.7 555.5,124.3 558.8,104.7 
		552.3,104.7 552.3,141.2 553.2,140.7 	"/>
	<polygon points="552.2,81 548.1,104.8 552.2,104.8 	"/>
	<polygon points="588.1,104.7 561,104.7 558.3,120.3 	"/>
	<path d="M578.3,58.5h3l0.5-2.7C580.6,56.7,579.5,57.6,578.3,58.5z"/>
	<path d="M617.3,90.3c0-5.5,0.3-11.2,0.7-17.3l-1.7-0.9l-19.9,10.5v17.6l19.9-10.5L617.3,90.3z"/>
	<path d="M499.5,104.7h-17.8l20.6,26.4l-35,0.1c-1,3.1-2.1,6.1-3.4,8.9v9.4l44.2-0.1v-33.7L499.5,104.7z"/>
	<path d="M468.2,128.3l28.2-0.1l-18.3-23.5h-5.9C471.6,113.3,470.2,121.1,468.2,128.3z"/>
	<polygon points="548.8,336.5 539.3,338.2 551.4,349.2 549.3,365.3 552.2,363.7 552.2,336.5 	"/>
	<polygon points="585.9,336.6 586.1,336.4 569.8,334.7 562,320.3 555.4,335.2 552.3,335.8 552.3,336.6 	"/>
	<polygon points="596.5,336.5 596.5,327.5 577.9,325.5 561.1,294.4 552.3,313.9 552.3,332.1 552.8,332 561.7,312.1 572.1,331.3 
		593.8,333.6 591,336.6 596.4,336.6 596.4,346.8 606.3,336.5 	"/>
	<path d="M547.5,350.6l-15.6-14.1h-16.4l22.6,20.4l-2.7,20.6c2.8,0.2,5.7,0.3,8.5,0.3c2.8,0,5.6-0.1,8.4-0.2v-9.6l-7.5,4.3
		L547.5,350.6z"/>
	<path d="M596.4,352.2v17.6c10.2-2.8,19.4-5.9,26.9-8.6l9.7-10.2l-22.2,0.1l5.9-14.5h-5.4L596.4,352.2z"/>
	<polygon points="584.9,290.1 562.9,290.1 580.2,322.1 596.5,323.8 596.5,307.4 594.1,307.1 	"/>
	<polygon points="552.3,290.1 552.3,304.9 558.9,290.1 	"/>
	<polygon points="552.2,290.2 552.2,257.8 537.7,290.2 	"/>
	<polygon points="558.4,243.9 559.9,243.9 559.1,242.4 	"/>
	<path d="M508.1,334.8l-4.3-3.9l4.3-0.8v-16.6l-44.2,8.1v7.9l7.9,7.1H508v32.7l3.3,3l-0.3,2.1c6.7,1.3,13.6,2.3,20.6,2.9l2.5-18.9
		L510,336.5h-1.9V334.8z"/>
	<polygon points="552.5,151.2 558.9,151.2 555.4,144.7 	"/>
	<polygon points="552.2,192.5 552.2,151.9 531.8,197.5 550,197.5 	"/>
	<polygon points="609,243.8 596.5,243.8 596.5,220.7 583.9,197.4 565.1,197.4 590.2,243.9 596.4,243.9 596.4,255.3 612.6,285.3 
		636.6,287.9 640.6,278 640.6,274.3 624.6,272.6 	"/>
	<polygon points="464.3,290.1 464.3,283.3 447.7,286.3 447.7,290.2 463.9,290.2 463.9,297.5 504.1,290.1 	"/>
	<polygon points="508,250.7 508,289.4 508.9,289.2 529.3,243.8 511.1,243.8 	"/>
	<path d="M631.3,358.1c4.1-1.6,7.3-3,9.3-3.9v-3.3l-2.5,0L631.3,358.1z"/>
	<polygon points="589.1,290.1 596.4,303.7 596.5,303.7 596.5,290.2 624.3,290.2 610.3,288.7 596.4,263 596.4,290.1 	"/>
	<polygon points="554,197.4 552.3,201.2 552.3,243.9 554.4,243.9 558.8,234.1 564.1,243.9 586.1,243.9 560.9,197.4 	"/>
	<polygon points="552.2,248.8 552.2,243.8 533.3,243.8 512.5,290.2 533.7,290.2 	"/>
	<polygon points="508.1,293.1 463.9,301.2 463.9,317.8 508.1,309.7 	"/>
	<path d="M463.9,336.5h-16.2l0,16.6c0,0,0.1,0,0.2,0v0.1c0.1,0,0.3,0.1,0.6,0.1c0,0,6,3,15.8,7v-23.7h2.1l-2.4-2.2V336.5z"/>
	<polygon points="640.6,243.8 629.1,243.8 640.6,258.9 	"/>
	<polygon points="596.4,197.4 593.9,197.4 596.5,200.9 596.5,197.5 606.9,197.5 602.4,191.6 623.1,197.5 640.6,197.5 640.6,191.9 
		596.4,179.2 	"/>
	<polygon points="640.6,290.2 640.6,286.4 639.1,290.2 	"/>
	<polygon points="640.6,348.4 640.6,336.5 620.2,336.5 615.3,348.4 	"/>
	<polygon points="609.8,197.5 614.8,197.5 608.3,195.7 	"/>
</g>
</svg>
