<?xml version="1.0" encoding="utf-8"?>
<!-- Generator: Adobe Illustrator 25.3.0, SVG Export Plug-In . SVG Version: 6.00 Build 0)  -->
<svg version="1.1" id="Layer_1" xmlns="http://www.w3.org/2000/svg" xmlns:xlink="http://www.w3.org/1999/xlink" x="0px" y="0px"
	 viewBox="0 0 750.2 400.1" style="enable-background:new 0 0 750.2 400.1;" xml:space="preserve">
<g>
	<path d="M299.8,309.3l-96.7,15.2l-98.8-15.7l0,44.5c0.1,0,0.2,0,0.3,0v0.1c0,0,55.5,3.2,95.8,2.6c42.9-0.6,99.5-2.7,99.5-2.7
		L299.8,309.3z"/>
	<polygon points="299.7,286.5 299.7,272 299.7,256 203.1,271.2 104.2,255.5 104.3,286 203.1,301.7 	"/>
	<polygon points="299.7,224.9 299.8,202.8 203.1,217.9 104.2,202.3 104.2,224.4 203.1,240.1 	"/>
	<path d="M105.1,163l98,15.5l96.7-15.2l0-0.4c-2.2-1.8-6.2-5.5-10.3-11.8l-86.4,13.6l-87.3-13.8C111.5,157.3,107.5,161.2,105.1,163z
		"/>
	<path d="M203.1,116.9l72.3-11.4c-0.1-1.8-0.3-3.6-0.4-5.4l-52.2,8.2c-5.8,3.7-12.3,5.6-19.3,5.6H202h-0.3c-7.2,0-13.9-2-19.8-5.9
		L130,99.8c-0.1,1.9-0.2,3.7-0.3,5.5L203.1,116.9z"/>
	<path d="M643.3,309.3l-96.8,15.2l-98.8-15.7l0,44.3c0,0,0.1,0,0.2,0v0.1c0.1,0,0.3,0.1,0.6,0.1c0,0,47.8,24.4,95.3,24.4
		s99.4-24.7,99.4-24.7L643.3,309.3z"/>
	<polygon points="643.3,286.4 643.3,271.7 643.1,271.7 643.1,256 546.5,271.2 447.6,255.6 447.7,286 546.5,301.7 	"/>
	<polygon points="643.1,224.9 643.2,202.8 546.5,217.9 447.6,202.3 447.6,224.4 546.5,240.1 	"/>
	<path d="M447.6,162.8L447.6,162.8l98.9,15.7l96.7-15.2c-2.1-1.3-6.5-5.1-11.1-12l-85.6,13.4l-88.2-14
		C454,157.2,449.9,161,447.6,162.8z"/>
	<path d="M546.5,116.9l71.4-11.2c-0.1-1.8-0.3-3.6-0.4-5.4l-71.1,11.2l-73.9-11.7c-0.1,1.9-0.2,3.7-0.3,5.5L546.5,116.9z"/>
</g>
</svg>
