<?xml version="1.0" encoding="utf-8"?>
<!-- Generator: Adobe Illustrator 25.3.0, SVG Export Plug-In . SVG Version: 6.00 Build 0)  -->
<svg version="1.1" id="Layer_1" xmlns="http://www.w3.org/2000/svg" xmlns:xlink="http://www.w3.org/1999/xlink" x="0px" y="0px"
	 viewBox="0 0 750.2 400.1" style="enable-background:new 0 0 750.2 400.1;" xml:space="preserve">
<g>
	<path d="M631.2,159.6c0.3-2.5,0.5-4.9,0.8-7l-11.3,2.6L631.2,159.6z"/>
	<path d="M620.7,239.3l7,2.3c0-1.6,0-3.3,0.1-4.9L620.7,239.3z"/>
	<path d="M629.2,313.3l-8.5,3.7l8.8,1.5C629.4,316.8,629.3,315.1,629.2,313.3z"/>
	<path d="M463.5,159.6l10.5-4.4l-11.3-2.6C463,154.8,463.2,157.1,463.5,159.6z"/>
	<path d="M467,236.8c0,1.6,0,3.2,0.1,4.9l7-2.3L467,236.8z"/>
	<path d="M465.6,313.4c-0.1,1.7-0.2,3.5-0.3,5.2l8.7-1.5L465.6,313.4z"/>
	<path d="M286.5,159.6c0.3-2.5,0.5-4.8,0.8-6.9l-11.2,2.6L286.5,159.6z"/>
	<path d="M276.1,239.3l6.9,2.3c0-1.6,0-3.2,0-4.8L276.1,239.3z"/>
	<path d="M285,313.1l-8.9,3.9l9.4,1.6C285.3,316.8,285.1,315,285,313.1z"/>
	<path d="M118.6,159.7l10.8-4.5l-11.6-2.6C118.1,154.8,118.4,157.1,118.6,159.7z"/>
	<path d="M122.1,236.6c0,1.7,0,3.4,0,5.1l7.3-2.4L122.1,236.6z"/>
	<path d="M120.1,313c-0.1,1.9-0.3,3.8-0.5,5.7l9.8-1.6L120.1,313z"/>
</g>
</svg>
