<?xml version="1.0" encoding="utf-8"?>
<!-- Generator: Adobe Illustrator 25.3.0, SVG Export Plug-In . SVG Version: 6.00 Build 0)  -->
<svg version="1.1" id="Layer_1" xmlns="http://www.w3.org/2000/svg" xmlns:xlink="http://www.w3.org/1999/xlink" x="0px" y="0px"
	 viewBox="0 0 750.2 400.1" style="enable-background:new 0 0 750.2 400.1;" xml:space="preserve">
<g>
	<path d="M467.1,250.6c0.1,15.4-0.1,31.2-0.7,46.3h162c-0.6-15.1-0.8-30.9-0.7-46.3H467.1z"/>
	<path d="M283.2,105.4H121.8c-5.7,11.2-9.2,20.6-9.9,22.8c1.2,1.5,3.7,6.7,5.8,23.6h169.7c2.1-16.9,4.6-21.9,5.8-23.5
		C292.4,126.2,289,116.7,283.2,105.4z"/>
	<path d="M283,239.4H122.1c0.1,15.4,0,31.2-0.5,46.3h162C283,270.6,282.9,254.7,283,239.4z"/>
	<path d="M292.2,123c0.8,2.1,1.4,3.7,1.8,4.6h0.1h0.1l24.7,5l13.7-59.3l-27-8L292.2,123z"/>
	<path d="M87.9,132.3l23.1-4.7c0.5-1.2,1.5-3.8,2.9-7.4l-12.8-55.3l-27,8L87.9,132.3z"/>
	<path d="M457.1,123.2l-13.3-57.6l-27,8l13.6,59.1l25.3-5.1C456,126.7,456.4,125.2,457.1,123.2z"/>
	<path d="M636.9,121.8c0.9,2.7,1.5,4.7,1.8,5.8l24.6,5L677,73.3l-27-8L636.9,121.8z"/>
</g>
</svg>
