<?xml version="1.0" encoding="utf-8"?>
<!-- Generator: Adobe Illustrator 25.3.0, SVG Export Plug-In . SVG Version: 6.00 Build 0)  -->
<svg version="1.1" id="Layer_1" xmlns="http://www.w3.org/2000/svg" xmlns:xlink="http://www.w3.org/1999/xlink" x="0px" y="0px"
	 viewBox="0 0 750.2 400.1" style="enable-background:new 0 0 750.2 400.1;" xml:space="preserve">
<path d="M285.5,319.6c-0.2-2.3-0.4-4.7-0.6-7.1l-5.8,1.4v-4.8l-18.9,4.6l-0.7,0.2v-4.6l-18.8,4.6l-0.1,0v-4.8l-18.8,4.6l-0.7,0.2
	v-4.6l-18.8,4.6v0l-0.1,0l-0.1,0v0l-18.8-4.6v4.6l-0.7-0.2l-18.8-4.6v4.8l-0.1,0l-18.8-4.6v4.6l-0.7-0.2l-18.9-4.6v4.8l-5-1.2
	c-0.2,2.4-0.4,4.8-0.6,7.2l4.9,1.2v-4.8l19.8,4.8v-4.6l19.1,4.6v-4.8l19.7,4.8v-4.6l19,4.6v0l0.1,0l0.1,0v0l19-4.6v4.6l19.7-4.8v4.8
	l19.1-4.6v4.6l19.8-4.8v4.8L285.5,319.6z"/>
<path d="M125.1,302.9l18.9,4.6v-4.6l19.5,4.8v-4.8l18.9,4.6v-4.6l19.5,4.8l0.1,0l19.6-4.8v4.6l18.9-4.6v4.8l19.5-4.8v4.6l18.9-4.6
	v4.8l5.4-1.3c-0.1-2.1-0.2-4.2-0.4-6.3l-4.6,1.1v-4.8l-19.1,4.6v-4.6l-19.7,4.8v-4.8l-19.1,4.6v-4.6l-19.7,4.8l-19.7-4.8v4.6
	l-19.1-4.6v4.8l-19.7-4.8v4.6l-19.1-4.6v4.8l-3.5-0.9c-0.1,2.1-0.2,4.2-0.4,6.3l4.6,1.1V302.9z"/>
<path d="M133.1,293.8v-5.5l22.7,5.5v-5.4l23.5,5.4v-5.5l22.6,5.5v0l0.1,0l0.1,0v0l22.6-5.2v5.2l23.5-5.7v5.7l22.7-5.2v5.2l12.9-3
	c-0.2-6.1-0.4-12.4-0.6-18.8l-11.5,2.8v-5.5l-23.5,5.7v-5.7l-22.7,5.5v-5.5l-23.5,5.4l-23.5-5.4v5.5l-22.7-5.5v5.7l-23.5-5.7v5.5
	l-10.4-2.5c-0.1,6.3-0.3,12.6-0.6,18.8L133.1,293.8z"/>
<path d="M210.3,340.4c33.9-0.1,63.3-2.3,77.1-3.5c-0.5-3.3-0.9-6.8-1.2-10.4l-14.4,3.5v-5.5l-23.5,5.7v-5.7l-22.7,5.5v-5.5
	l-23.5,5.7l-23.5-5.7v5.5l-22.7-5.5v5.7l-23.5-5.7v5.5l-13.4-3.3c-0.4,3.5-0.8,6.9-1.2,10.1c13.8,1.2,43.2,3.4,77.4,3.6
	c1,0,2.6,0,4.8,0h3.5h2.1C207.7,340.4,209.3,340.4,210.3,340.4z"/>
<path d="M627.6,248l-11,2.7v-5.5l-23.5,5.7v-5.7l-22.7,5.5v-5.5l-23.5,5.4l-23.5-5.4v5.5l-22.7-5.5v5.7l-23.5-5.7v5.5l-10.1-2.5
	c0.2,34.8-0.9,71.9-4.5,98.1c7.2,3.4,43.2,19.6,84.9,19.6c48.6,0,84.3-19.9,84.7-20.1C628.6,319.6,627.5,282.6,627.6,248z"/>
</svg>
