<?xml version="1.0" encoding="utf-8"?>
<!-- Generator: Adobe Illustrator 25.3.0, SVG Export Plug-In . SVG Version: 6.00 Build 0)  -->
<svg version="1.1" id="Layer_1" xmlns="http://www.w3.org/2000/svg" xmlns:xlink="http://www.w3.org/1999/xlink" x="0px" y="0px"
	 viewBox="0 0 400 200" style="enable-background:new 0 0 400 200;" xml:space="preserve">
<style type="text/css">
	.st0{fill:#FFFFFF;}
</style>
<g>
	<polygon class="st0" points="205.7,67 246.7,67 246.7,77.6 217.6,77.6 217.6,88.6 243.2,88.6 243.2,99.2 217.6,99.2 217.6,110.6 
		247.1,110.6 247.1,121.2 205.7,121.2 	"/>
	<polygon class="st0" points="95,67 95,121.2 131.7,121.2 131.7,115.6 101.1,115.6 101.1,67 	"/>
	<g>
		<path class="st0" d="M282.9,94.6c8.1,0,14-4.2,14-11.2v-0.2c0-6.7-5.1-10.7-13.9-10.7h-16.7v22L282.9,94.6L282.9,94.6z M260.1,67
			h23.3c6.7,0,12,2,15.4,5.4c2.6,2.6,4.2,6.4,4.2,10.7v0.2c0,9-6.2,14.3-14.7,15.8l16.7,22.2h-7.5l-15.7-21.1h-0.2h-15.4v21.1h-6.1
			L260.1,67L260.1,67z"/>
	</g>
	<polygon class="st0" points="144.5,121.2 156.3,121.2 156.3,86.7 192.7,134.6 192.7,67 180.9,67 180.9,100.4 144.5,52.5 	"/>
	<g>
		<g>
			<path class="st0" d="M170.9,143.5h-1.5v-2h1.5c0.7,0,1.2,0.3,1.2,1l0,0C172,143.1,171.6,143.5,170.9,143.5 M171.9,144.7
				c1-0.3,1.6-1.1,1.6-2.2l0,0c0-0.7-0.2-1.2-0.6-1.6c-0.4-0.5-1.1-0.7-2-0.7h-3.1v6.9h1.5v-2.2h1.1l1.5,2.2h1.8L171.9,144.7z"/>
			<path class="st0" d="M236.4,143.5h-1.5v-2h1.5c0.7,0,1.2,0.3,1.2,1l0,0C237.6,143.1,237.2,143.5,236.4,143.5 M237.5,144.7
				c1-0.3,1.6-1.1,1.6-2.2l0,0c0-0.7-0.2-1.2-0.6-1.6c-0.4-0.5-1.1-0.7-2-0.7h-3.1v6.9h1.5v-2.2h1.1l1.5,2.2h1.8L237.5,144.7z"/>
		</g>
		<polygon class="st0" points="110.9,139.9 115.9,145.4 115.9,140.2 116.7,140.2 116.7,147.4 111.6,141.8 111.6,147.1 110.9,147.1 
					"/>
		<polygon class="st0" points="137.4,139.9 142.5,145.4 142.5,140.2 143.2,140.2 143.2,147.4 138.2,141.8 138.2,147.1 137.4,147.1 
					"/>
		<polygon class="st0" points="95,140.2 95,147.1 99.6,147.1 99.6,146.4 95.8,146.4 95.8,140.2 		"/>
		<g>
			<path class="st0" d="M107.5,143.6L107.5,143.6c0-1.6-1.1-2.9-2.7-2.9s-2.7,1.3-2.7,2.8l0,0c0,1.6,1.1,2.9,2.7,2.9
				S107.5,145.2,107.5,143.6 M101.3,143.6L101.3,143.6c0-1.9,1.4-3.6,3.5-3.6s3.5,1.7,3.5,3.6l0,0c0,1.9-1.4,3.6-3.5,3.6
				S101.3,145.6,101.3,143.6"/>
			<path class="st0" d="M121.9,146.4c1.7,0,2.8-1.2,2.8-2.7l0,0c0-1.5-1.1-2.7-2.8-2.7h-1.6v5.5h1.6V146.4z M119.6,140.2h2.4
				c2.1,0,3.6,1.5,3.6,3.4l0,0c0,1.9-1.5,3.5-3.6,3.5h-2.4V140.2z"/>
			<path class="st0" d="M134,143.6L134,143.6c0-1.6-1.1-2.9-2.7-2.9c-1.6,0-2.7,1.3-2.7,2.8l0,0c0,1.6,1.1,2.9,2.7,2.9
				C132.9,146.5,134,145.2,134,143.6 M127.9,143.6L127.9,143.6c0-1.9,1.4-3.6,3.5-3.6c2.1,0,3.5,1.7,3.5,3.6l0,0
				c0,1.9-1.4,3.6-3.5,3.6C129.3,147.2,127.9,145.6,127.9,143.6"/>
		</g>
		<path class="st0" d="M263.6,144.6l1.5-3.1l1.5,3.1H263.6z M261.6,147.1h0.8l0.9-1.8h3.6l0.9,1.8h0.8l-3.5-7.2L261.6,147.1z"/>
		<path class="st0" d="M293.1,144.6l1.5-3.1l1.5,3.1H293.1z M291,147.1h0.8l0.9-1.8h3.6l0.9,1.8h0.8l-3.5-7.2L291,147.1z"/>
		<polygon class="st0" points="287.4,145.4 285.2,139.9 283,145.4 281.1,140.2 280.2,140.2 283,147.5 285.2,141.8 285.2,141.8 
			287.4,147.5 290.2,140.2 289.3,140.2 		"/>
		<g>
			<path class="st0" d="M255,143.7v-2.8h2.1c1.1,0,1.7,0.5,1.7,1.4l0,0c0,0.9-0.7,1.4-1.8,1.4L255,143.7L255,143.7z M259.6,142.2
				L259.6,142.2c0-0.6-0.2-1-0.5-1.4c-0.4-0.4-1.1-0.7-1.9-0.7h-2.9v6.9h0.8v-2.7h1.9l0,0l2,2.7h0.9l-2.1-2.8
				C258.8,144.1,259.6,143.4,259.6,142.2"/>
		</g>
		<rect x="271" y="140.2" class="st0" width="0.8" height="6.9"/>
		<polygon class="st0" points="275.5,140.2 274.7,140.2 274.7,147.1 279.3,147.1 279.3,146.4 275.5,146.4 		"/>
		<polygon class="st0" points="304.1,140.2 301.8,143.6 299.5,140.2 298.5,140.2 301.4,144.3 301.4,147.1 302.2,147.1 302.2,144.3 
			305,140.2 		"/>
		<g>
			<path class="st0" d="M163.9,143.6L163.9,143.6c0-1.2-0.9-2.2-2.1-2.2s-2,1-2,2.2l0,0c0,1.2,0.9,2.2,2.1,2.2
				S163.9,144.8,163.9,143.6 M158.3,143.6L158.3,143.6c0-2,1.5-3.6,3.6-3.6s3.6,1.6,3.6,3.6l0,0c0,2-1.5,3.6-3.6,3.6
				S158.3,145.6,158.3,143.6"/>
		</g>
		<polygon class="st0" points="177.4,141.6 175.4,141.6 175.4,140.2 181,140.2 181,141.6 178.9,141.6 178.9,147.1 177.4,147.1 		"/>
		<polygon class="st0" points="183.2,140.2 184.7,140.2 184.7,142.9 187.4,142.9 187.4,140.2 188.9,140.2 188.9,147.1 187.4,147.1 
			187.4,144.3 184.7,144.3 184.7,147.1 183.2,147.1 		"/>
		<polygon class="st0" points="195.4,140.2 200.6,140.2 200.6,141.5 196.9,141.5 196.9,142.9 200.2,142.9 200.2,144.3 196.9,144.3 
			196.9,145.7 200.6,145.7 200.6,147.1 195.4,147.1 		"/>
		<path class="st0" d="M206.9,144.2L206,142l-0.9,2.2H206.9z M205.3,140.1h1.4l2.9,7H208l-0.6-1.6h-2.9l-0.6,1.6h-1.5L205.3,140.1z"
			/>
		<g>
			<path class="st0" d="M211.1,146.1l0.9-1.1c0.6,0.5,1.3,0.8,2,0.8c0.6,0,1-0.2,1-0.7l0,0c0-0.4-0.2-0.6-1.4-0.9
				c-1.4-0.4-2.3-0.7-2.3-2.1l0,0c0-1.3,1-2.1,2.4-2.1c1,0,1.8,0.3,2.5,0.9l-0.8,1.1c-0.6-0.4-1.2-0.7-1.8-0.7s-0.9,0.3-0.9,0.6l0,0
				c0,0.5,0.3,0.6,1.5,0.9c1.4,0.4,2.2,0.9,2.2,2.1l0,0c0,1.4-1,2.1-2.5,2.1C212.9,147.2,211.9,146.8,211.1,146.1"/>
		</g>
		<polygon class="st0" points="220.2,141.6 218.1,141.6 218.1,140.2 223.8,140.2 223.8,141.6 221.7,141.6 221.7,147.1 220.2,147.1 
					"/>
		<polygon class="st0" points="225.9,140.2 231.1,140.2 231.1,141.5 227.4,141.5 227.4,142.9 230.6,142.9 230.6,144.3 227.4,144.3 
			227.4,145.7 231.1,145.7 231.1,147.1 225.9,147.1 		"/>
		<g>
			<path class="st0" d="M149.9,140.1h1.4l3.3,4.3v-4.3h1.5v6.9h-1.3l-3.4-4.4v4.4h-1.5V140.1z"/>
		</g>
		<g>
			<path class="st0" d="M241.4,140.2h1.4l3.3,4.3v-4.3h1.5v6.9h-1.3l-3.4-4.4v4.4h-1.5V140.2z"/>
		</g>
	</g>
</g>
</svg>
