<?xml version="1.0" encoding="utf-8"?>
<!-- Generator: Adobe Illustrator 25.3.0, SVG Export Plug-In . SVG Version: 6.00 Build 0)  -->
<svg version="1.1" id="Layer_1" xmlns="http://www.w3.org/2000/svg" xmlns:xlink="http://www.w3.org/1999/xlink" x="0px" y="0px"
	 viewBox="0 0 750.2 400.1" style="enable-background:new 0 0 750.2 400.1;" xml:space="preserve">
<g>
	<path d="M632.2,345.8c-1.4-10.1-2.4-21.8-3.1-34.3l-82.6,13l-80.8-12.8c-0.7,12.7-1.7,24.5-3.1,34.6c7.2,3.4,43.2,19.6,84.9,19.6
		C596.1,365.9,631.8,346,632.2,345.8z"/>
	<path d="M628.1,288.8c-0.3-10-0.4-20.2-0.5-30.3l-81.2,12.7l-79.4-12.6c0,10.1-0.2,20.4-0.5,30.4l79.8,12.6L628.1,288.8z"/>
	<path d="M546.5,217.9l-80.2-12.7c0.2,7,0.5,14.5,0.6,22.2l79.6,12.6l81.4-12.8c0.1-7.7,0.4-15.2,0.6-22.2L546.5,217.9z"/>
	<path d="M462.6,151.4c0.5,4,1,8.6,1.5,14.1l82.4,13.1l84.2-13.3c0.5-5.4,1-10.1,1.5-14l-85.7,13.5L462.6,151.4z"/>
	<path d="M546.5,111.4l-79-12.5c-0.8,1.8-1.5,3.5-2.2,5.2l81.2,12.9l82.9-13c-0.7-1.7-1.4-3.4-2.2-5.1L546.5,111.4z"/>
	<path d="M205.5,340.4c2.2,0,3.8,0,4.8,0c33.9-0.1,63.3-2.3,77.1-3.5c-1-7.6-1.9-16.2-2.5-25.3l-81.8,12.8l-82.9-13.1
		c-0.6,9.2-1.5,17.8-2.5,25.5c13.8,1.2,43.2,3.4,77.4,3.6c1,0,2.6,0,4.8,0h3.5H205.5z"/>
	<path d="M283.7,289c-0.4-9.9-0.6-20.1-0.7-30.3l-79.9,12.5l-81-12.8c-0.1,10.2-0.3,20.4-0.7,30.3l81.7,12.9L283.7,289z"/>
	<path d="M203.1,217.9l-81.8-13c0.3,7.1,0.4,14.6,0.6,22.2l81.2,12.9l80.1-12.6c0.1-7.6,0.3-15.1,0.6-22.2L203.1,217.9z"/>
	<path d="M117.6,151.1c0.5,4,1,8.6,1.5,14.1l84,13.3l82.8-13c0.5-5.4,1-10.1,1.5-14l-84.3,13.2L117.6,151.1z"/>
	<path d="M122.5,104.1l80.6,12.8l79.6-12.5c-0.9-1.7-1.8-3.3-2.7-5.1l-76.8,12.1l-77.9-12.3C124.3,100.8,123.4,102.5,122.5,104.1z"
		/>
</g>
</svg>
