<?xml version="1.0" encoding="utf-8"?>
<!-- Generator: Adobe Illustrator 25.3.0, SVG Export Plug-In . SVG Version: 6.00 Build 0)  -->
<svg version="1.1" id="Layer_1" xmlns="http://www.w3.org/2000/svg" xmlns:xlink="http://www.w3.org/1999/xlink" x="0px" y="0px"
	 viewBox="0 0 750.2 400.1" style="enable-background:new 0 0 750.2 400.1;" xml:space="preserve">
<g>
	<polygon points="573.8,151.2 570.5,151.2 574.2,152.9 	"/>
	<path d="M462.5,151.1h1.4v-1.5l-1.6,0C462.4,150,462.4,150.5,462.5,151.1z"/>
	<path d="M465.9,197.4h0.3l-0.3-0.7C465.9,196.9,465.9,197.2,465.9,197.4z"/>
	<path d="M507,243.9l-1,2.3l-15.8-2.3h-3.4l0.9,1.8l17.4,2.5l-4.1,9.1l-21.8-3.2l-5.1-10.3h-2.4l6,12.2l22.3,3.2l-6.6,14.8l-8.3,1.5
		l-3.8,0.7l-11.4,2.1l7-6.9l-10-1.5c0,0.7,0,1.4,0,2.2l5.4,0.8l-5.5,5.4c0,1.4-0.1,2.9-0.1,4.3l29.2-5.4l12-26.7v-6.8H507z"/>
	<polygon points="592.7,104.7 596.4,102.7 596.4,100.3 588.1,104.7 	"/>
	<polygon points="665.7,70 674.4,120.3 640.6,102.6 640.6,104.8 640.2,104.8 677.2,124.3 668,70.6 	"/>
	<polygon points="568.9,58.5 566.7,58.5 558.8,104.7 561,104.7 	"/>
	<polygon points="553,63.9 552.2,68.3 552.2,81 555.3,63.1 554.9,62.7 552.2,60.2 552.2,63.2 	"/>
	<path d="M538.1,46.4c-1,0-2,0-3,0.1l0.6,0.6l-4.7-0.5c-7.6,0.2-14.5,0.6-20,0.9c-0.3,0.2-0.5,0.4-0.8,0.6l29.8,3.2l7.4,7.2h3.1
		L538.1,46.4z"/>
	<path d="M509,47.6c-0.3,0-0.6,0-0.9,0v0.1l0.5,0.1C508.7,47.8,508.9,47.7,509,47.6z"/>
	<path d="M596.5,54.9v3.5h1.6l0.4-2.1C597.8,55.8,597.2,55.3,596.5,54.9z"/>
	<path d="M599.5,50.4l-2.1-0.6l-0.7,4.1c0.7,0.4,1.3,0.9,1.9,1.4L599.5,50.4z"/>
	<path d="M600.5,58l-0.7,0.4h1.1C600.8,58.2,600.7,58.1,600.5,58z"/>
	<path d="M609.4,53.3l-8.1,4.2c0.3,0.3,0.6,0.5,0.9,0.8h2.3l7.9-4.1L609.4,53.3z"/>
	<polygon points="596.4,62.6 596.4,58.5 595.9,58.5 595.1,63.3 	"/>
	<polygon points="652.7,66.1 650.4,65.4 654.5,89.8 640.6,82.5 640.6,85 657.4,93.8 	"/>
	<polygon points="596.4,82.7 596.4,80.2 578.1,89.8 583.5,58.5 581.3,58.5 575.3,93.8 	"/>
	<path d="M456.8,128.3c0.4,0.5,0.9,1.4,1.5,2.9l5.6,0v-2.9L456.8,128.3z"/>
	<polygon points="401.8,138.5 405.9,137.7 410.1,131.3 437.6,131.3 452.2,128.3 408.5,128.4 	"/>
	<path d="M470.4,90.1l-6.1-7.8v4.7L469,93C469.4,92,469.9,91.1,470.4,90.1z"/>
	<path d="M471.1,91c-0.5,1-0.9,1.9-1.4,2.9l8.4,10.8h3.6L471.1,91z"/>
	<path d="M508,103.6v-5.3l-5.4,5.7l-16-20.5l1.2-1.3l-2.4-0.3L480,75c-0.6,0.9-1.1,1.7-1.6,2.6l21.1,27.1h7.4L508,103.6z"/>
	<path d="M489.8,62.2c-1,1.1-2,2.2-2.9,3.4l21.2,2.3v-3.7L489.8,62.2z"/>
	<path d="M479.4,74.1L471.5,64l14.2,1.5c1-1.2,1.9-2.3,2.9-3.4L468.3,60l-1-1.3l-3,0.9l13.4,17.2C478.3,75.9,478.8,75,479.4,74.1z"
		/>
	<path d="M552.3,151.2v-10l-11.5,6l7.3-42.4h-5.8l-21.5,22.6l-12.7-16.3v4.7l26.2,33.7l-26.2,0.1v1.6h33.2l9.7-5.6l-2.5,5.6h3.6v0.8
		l0.3-0.7H552.3z M536.9,148l-13.8-17.7l22.5-23.7l-6.7,39.3L536.9,148z"/>
	<path d="M475.3,188.9l17.8,8.5h9.6l-9.5-45l14.8,0v-1.2h-43.7v1.3l25.2,0l9.2,43.6l-26-12.5l-8.4-17v1.9c0,0.5,0.1,1,0.1,1.5
		c0,0.6,0.1,1.3,0.1,2l12.6,25.4h2.4L475.3,188.9z"/>
	<polygon points="410.3,75.4 407.3,76.3 410.3,80.1 394.4,80.1 384.4,83.1 416.2,83 	"/>
	<polygon points="457.5,104.8 420.1,104.8 420.1,104.2 395.5,104.3 390.3,112.1 391.2,116 397,107.2 459.3,107.1 	"/>
	<polygon points="586.1,243.9 596.4,263 596.4,255.3 590.2,243.9 	"/>
	<polygon points="552.3,197.4 554,197.4 557.1,190.5 560.9,197.4 565.1,197.4 556.8,182.2 552.2,192.5 552.2,197.5 550,197.5 
		529.3,243.8 533.3,243.8 552.3,201.2 	"/>
	<polygon points="508,290.1 508,289.4 504.1,290.1 	"/>
	<polygon points="512.5,290.2 508.1,290.2 508.1,293.1 511.5,292.5 	"/>
	<path d="M604.7,116l11.6-6.1l19,10c-0.3-0.9-0.7-1.9-1-3l-18-9.5l-19.8,10.4v6.7L604.7,116z"/>
	<path d="M635.7,120.8l-28.2,29.6l0.1,0.6h4.3l25-26.3C636.6,123.6,636.2,122.3,635.7,120.8z"/>
	<polygon points="687.4,109 682.4,79.6 707.4,82.3 687.8,76.5 681.8,75.8 681.6,74.6 679.3,73.9 690.2,138 692.5,138.5 688.2,113.5 
		708.7,92 710.2,85 	"/>
	<path d="M637.6,124.1l1.9-2l17.5,9.2l7.5,1.5l-29-15.2C636.4,120.1,637.1,122.3,637.6,124.1z"/>
	<polygon points="698.2,139.6 699.5,133.8 694.7,138.9 	"/>
	<polygon points="510.8,235.4 508.1,234.1 508.1,238.2 509.5,238.4 508.1,241.4 508.1,243.8 511.1,243.8 531.8,197.5 524.1,197.5 
		525.2,203.2 	"/>
	<path d="M628.1,290.2h-3.8l3.8,0.4C628.1,290.5,628.1,290.4,628.1,290.2z"/>
	<path d="M627.3,310.7l-6.4,15.7l-24.4-2.6v3.7l16.6,1.8l-6.8,7.2h5.1l9.5-10l-4.1,10h3.4l9-22.1c-0.1-2.4-0.3-4.9-0.4-7.4l-0.1,0.1
		l-32.2-3.4v3.7L627.3,310.7z"/>
	<polygon points="560.7,286.1 558.9,290.1 562.9,290.1 	"/>
	<polygon points="546.6,326.7 552.3,313.9 552.3,304.9 544,323.4 508.1,330 508.1,334.8 510,336.5 515.5,336.5 511.8,333.1 	"/>
	<path d="M588.7,354.9l1.3,6c1.2-0.3,2.4-0.6,3.6-0.9l-0.8-4l3.7-3.9v-5.3L588.7,354.9z"/>
	<polygon points="584.9,290.1 589.1,290.1 564.1,243.9 559.9,243.9 	"/>
	<polygon points="537.7,290.2 533.7,290.2 526.5,306.3 508.1,309.7 508.1,313.4 529.1,309.6 	"/>
	<path d="M487.9,356.1c2.6,0.8,5.3,1.6,8.1,2.4l-24.3-21.9h-5.5L487.9,356.1z"/>
	<polygon points="552.2,248.8 552.2,257.8 558.4,243.9 554.4,243.9 	"/>
	<path d="M574.8,348.3l3.2,15.1c1.2-0.2,2.4-0.4,3.6-0.6l-2.8-13.3l12.2-12.8h-5.1L574.8,348.3z"/>
	<path d="M556,365.7l7.6-4.4l6.6,3.1c2.2-0.3,4.4-0.6,6.6-0.9l-13.3-6.3l-11.2,6.5v2.2C553.5,365.8,554.8,365.8,556,365.7z"/>
	<polygon points="531.3,335.9 531.9,336.5 548.8,336.5 552.3,335.8 552.3,332.1 	"/>
	<path d="M627.9,225.2c0-1.2,0.1-2.4,0.1-3.7l-18.2-24h-2.9L627.9,225.2z"/>
	<path d="M628.6,201.5c0-0.8,0.1-1.6,0.1-2.3l-5.6-1.6h-8.2L628.6,201.5z"/>
	<path d="M586.3,151.2h-3.7l4.3,20.6l-17.2-8.2l-6.7-12.4h-4.2l25,46.2h4.2l-7.2-13.3l10.1,13.3h2.9l-18.5-24.3l21,6v-2.4l-5-1.4
		L586.3,151.2z M573.3,170.1l-0.6-1.1l4.9,2.3L573.3,170.1z"/>
	<path d="M602.8,213l-6.3-3v10.8l12.5,23h4.2l-15.9-29.4l10.4,5l18.6,24.4h1.4c0-0.6,0-1.3,0-1.9l-31.1-40.9v3.8L602.8,213z"/>
	<polygon points="569.1,146.4 566.8,136 557.5,140.9 557.5,140.9 	"/>
	<polygon points="540.2,151.7 542.7,163.5 543.1,163.3 548.6,151.1 541.4,151.1 	"/>
	<polygon points="560.5,146.4 563.1,151.2 570.5,151.2 	"/>
	<polygon points="594.6,121.4 570.2,134.2 573.8,151.2 582.6,151.2 579.6,137.1 	"/>
	<polygon points="596.5,209.9 596.5,204.7 591,197.4 588.1,197.4 594.3,208.9 	"/>
	<polygon points="596.5,151.2 596.4,151.2 596.4,176.8 614.1,181.9 607.6,151.1 596.5,151.1 	"/>
	<polygon points="586.3,151.2 596.4,151.2 596.4,151.1 596.5,151.1 596.5,124.6 583.6,138.2 	"/>
	<path d="M621.8,259.7l5.1,9.4l0.8,0.1c0-2.2,0-4.5-0.1-6.7L621.8,259.7z"/>
	<path d="M618.1,183l11.2,3.2c0.3-6.1,0.7-11.6,1-16.2c0.6-7.6,1.2-13.8,1.9-18.9h-20.3l-0.5,0.5L618.1,183z"/>
	<path d="M618.8,254.2l8.8,4.2c0-4.3,0-8.6,0-12.8l-1.4-1.8h-13.1L618.8,254.2z"/>
	<path d="M462.7,152.5c0.5,3.9,1,8.5,1.4,13.7l0.2,0.4v-14.1L462.7,152.5z"/>
	<polygon points="508,67.9 508,98.3 534.2,70.7 	"/>
	<polygon points="501.8,235.1 497,232.8 497.8,234.6 	"/>
	<polygon points="540.2,169.7 536.6,152.3 518.3,152.4 527.8,197.5 	"/>
	<polygon points="502.7,197.4 503.8,202.5 493.1,197.4 479.5,197.4 494.4,227.5 508.1,234.1 508.1,197.5 524.1,197.5 514.5,152.4 
		508,152.4 508,197.4 	"/>
	<path d="M508,103.6v1.1h-1.1l-2.1,2.2l3.3,4.2v-6.2h34.2l4.5-4.7l5.5-31.9v-5.1l-4.9-4.8h-39.2v-9.1c-1.5,0.9-3.3,1.9-5.3,2.9
		c-3.2,1.6-6.3,3.8-9.2,6.4H508v5.7l34,3.6L508,103.6z"/>
	<path d="M502.3,51.3c2.4-1.2,4.3-2.2,5.8-3.2v-0.4l-0.9-0.1c-1.4,0.1-2.7,0.2-3.9,0.3l-35.5,10.5h24.3
		C495.4,55.5,498.7,53,502.3,51.3z"/>
	<path d="M467.1,243.9h4.7l-4.8-9.7C467,237.4,467,240.6,467.1,243.9z"/>
	<polygon points="508.1,241.4 508.1,238.2 496.4,236.5 477.1,197.4 466.2,197.4 489.1,243.7 490.2,243.9 507,243.9 	"/>
	<path d="M466.1,202c0.3,8.4,0.6,17.6,0.8,27.2l7.3,14.7h12.7L466.1,202z"/>
	<polygon points="597.9,59.3 599.8,58.3 598.1,58.3 	"/>
	<path d="M596.5,54.9c-1.5-1-3.1-2-4.6-2.8c-2.6-1.3-4.9-2.6-6.7-3.7l-1.7,10.1h12.4L596.5,54.9z"/>
	<path d="M596.5,53.8v-4.3l-4.5-1.3c-1.2-0.1-3.4-0.3-6.2-0.5c1.6,1.1,3.7,2.2,6.4,3.6C593.7,52,595.1,52.9,596.5,53.8z"/>
	<path d="M612.5,71.8c-3.2-4.6-6.6-8.8-10.3-12.2l-5.8,3v17.6L612.5,71.8z"/>
	<path d="M637.3,61.6l0.3,1.7l-7-3.7l-4.2-1.2h-21.9l-1.4,0.8c3.7,3.5,7.1,7.7,10.2,12.3l3.1-1.6l24.3,12.8v-20L637.3,61.6z"/>
	<path d="M596.5,104.7v0.1h33.2c-0.9-2.3-1.9-4.7-3-7.1l-10.4-5.4l-19.9,10.5v2H596.5z"/>
	<path d="M630.7,104.8h9.6l-12.3-6.5C628.9,100.6,629.8,102.7,630.7,104.8z"/>
	<polygon points="555.1,136.5 556.5,139 596.5,117.9 596.5,104.8 596.4,104.8 596.4,104.7 592.7,104.7 555.5,124.3 558.8,104.7 
		552.3,104.7 552.3,141.2 553.2,140.7 	"/>
	<polygon points="552.2,104.8 552.2,81 548.1,104.8 	"/>
	<polygon points="552.2,58.3 550.4,58.3 552.2,60.2 	"/>
	<path d="M556.8,46.4c-1.5,0-2.9-0.1-4.4-0.1v12.1h14.4l0.3-2L556.8,46.4z"/>
	<polygon points="558.3,120.3 588.1,104.7 561,104.7 	"/>
	<path d="M583.1,48l-0.6-0.6c-6-0.3-13.9-0.7-22.5-0.9l9.1,8.8l0.4,0.4l-0.5,2.8h12.4L583.1,48z"/>
	<path d="M616.3,89.8l8.9,4.7c-3.3-7-7.1-14.3-11.5-20.9l-17.3,9.1v17.6L616.3,89.8z"/>
	<path d="M616.3,72.2l-1.9,1c4.6,7,8.7,14.6,12.1,22l14.1,7.4V85L616.3,72.2z"/>
	<polygon points="427.1,70.5 420.1,72.6 420.1,104.2 453.4,104.2 	"/>
	<polygon points="499.5,104.7 481.8,104.7 502.3,131.1 463.9,131.2 463.9,149.5 508.1,149.5 508.1,115.7 	"/>
	<polygon points="449.9,63.8 464.3,82.3 464.3,59.5 	"/>
	<path d="M464.3,103.6V86.9l-17.3-22.3l-16.8,5l27.4,35.2h6.3C464,104.4,464.1,104,464.3,103.6z"/>
	<path d="M478.1,104.7H465c-0.4,0.9-0.7,1.7-1,2.6v21l32.5-0.1L478.1,104.7z"/>
	<polygon points="551.4,349.2 549.3,365.3 552.2,363.7 552.2,336.5 548.8,336.5 539.3,338.2 	"/>
	<polygon points="569.8,334.7 562,320.3 555.4,335.2 552.3,335.8 552.3,336.6 585.9,336.6 586.1,336.4 	"/>
	<polygon points="596.5,336.5 596.5,327.5 577.9,325.5 561.1,294.4 552.3,313.9 552.3,332.1 552.8,332 561.7,312.1 572.1,331.3 
		593.8,333.6 591,336.6 596.4,336.6 596.4,346.8 606.3,336.5 	"/>
	<path d="M538,356.8l-1.2,8.7c2.8,0.2,5.7,0.3,8.6,0.3l2-15.3l-15.6-14.1h-16.4L538,356.8z"/>
	<path d="M596.4,352.2v7.2c10.2-2.7,18.7-5.8,24.8-8.4l-10.3,0l5.9-14.5h-5.4L596.4,352.2z"/>
	<polygon points="580.2,322.1 596.5,323.8 596.5,307.4 594.1,307.1 584.9,290.1 562.9,290.1 	"/>
	<polygon points="552.3,290.1 552.3,304.9 558.9,290.1 	"/>
	<polygon points="552.2,290.2 552.2,257.8 537.7,290.2 	"/>
	<polygon points="558.4,243.9 559.9,243.9 559.1,242.4 	"/>
	<path d="M508.1,334.8l-4.3-3.9l4.3-0.8v-16.6l-43,7.9c-0.2,2.9-0.4,5.8-0.7,8.5l7.4,6.7H508v24.9c7.8,1.7,16.3,3.1,25.2,3.8l0.9-7
		L510,336.5h-1.9V334.8z"/>
	<polygon points="552.5,151.2 558.9,151.2 555.4,144.7 	"/>
	<polygon points="552.2,192.5 552.2,151.9 531.8,197.5 550,197.5 	"/>
	<path d="M596.5,220.7l-12.6-23.3h-18.9l25.2,46.5h6.2v11.4l16.2,30l15.4,1.6c-0.1-4.6-0.2-9.3-0.3-14.1l-3.1-0.3L609,243.8h-12.5
		V220.7z"/>
	<path d="M466.4,297l37.7-6.9h-37.5C466.5,292.4,466.5,294.8,466.4,297z"/>
	<polygon points="508,250.7 508,289.4 508.9,289.2 529.3,243.8 511.1,243.8 	"/>
	<polygon points="589.1,290.1 596.4,303.7 596.5,303.7 596.5,290.2 624.3,290.2 610.3,288.7 596.4,263 596.4,290.1 	"/>
	<polygon points="554,197.4 552.3,201.2 552.3,243.9 554.4,243.9 558.8,234.1 564.1,243.9 586.1,243.9 560.9,197.4 	"/>
	<polygon points="552.2,248.8 552.2,243.8 533.3,243.8 512.5,290.2 533.7,290.2 	"/>
	<path d="M466.2,300.8c-0.2,5.7-0.5,11.4-0.9,16.8l42.8-7.9v-16.6L466.2,300.8z"/>
	<path d="M463.9,335.1v1.4h-0.1c-0.4,3.4-0.8,6.7-1.2,9.8c0.4,0.2,1,0.5,1.7,0.8v-10.5h2.1l-2.4-2.1
		C464,334.7,463.9,334.9,463.9,335.1z"/>
	<path d="M593.9,197.4l2.7,3.5v-3.4h10.4l-4.5-6l20.7,6h5.7c0.1-3.1,0.3-6.1,0.4-9l-32.7-9.4v18.2H593.9z"/>
	<path d="M627,348.4c3.3-1.5,5.1-2.6,5.2-2.6c-0.4-3-0.8-6.1-1.1-9.3h-10.8l-4.9,12L627,348.4z"/>
	<polygon points="609.8,197.5 614.8,197.5 608.3,195.7 	"/>
	<polygon points="146.6,151.2 143.3,151.2 142.9,152.9 	"/>
	<path d="M287.5,151.1c0.1-0.5,0.1-1,0.2-1.4l-34.5-0.1v1.5H287.5z"/>
	<path d="M283.7,206.4l-1.6-3.3l1.2-0.6l0.5,0.3c0.1-1.4,0.1-2.8,0.2-4.1l-0.5-0.3l-3,1.4l-1.2-2.4h-2.4l6.6,13.5
		C283.6,209.5,283.7,207.9,283.7,206.4z"/>
	<polygon points="253.2,197.5 253.2,197.5 253.2,197.5 	"/>
	<path d="M283,236.8c0-1.6,0-3.2,0.1-4.7l-17-34.5h-2.4L283,236.8z"/>
	<polygon points="252.8,193.4 250.8,197.4 252.8,197.4 	"/>
	<polygon points="258.4,217.4 271.4,243.8 273.8,243.8 258.4,212.5 253.2,223.2 253.2,228 	"/>
	<polygon points="237.9,254.1 216.1,257.3 212,248.2 229.4,245.7 230.3,243.9 226.9,243.9 211.1,246.2 210.1,243.9 209.1,243.9 
		209.1,250.7 221,277.4 252.8,283.3 252.8,279.5 250.9,279.2 244.7,273.1 252.8,271.9 252.8,269.7 252.8,269.8 240.1,271.6 
		247.1,278.5 235.7,276.4 231.9,275.7 223.6,274.2 217,259.4 239.3,256.1 245.4,243.9 243,243.9 	"/>
	<path d="M123.7,101.9c-0.3,0.6-0.7,1.3-1,1.9l1.7,0.9h4.6L123.7,101.9z"/>
	<path d="M121.9,103.4c0.3-0.6,0.7-1.3,1-1.9l-2.2-1.2v2.4L121.9,103.4z"/>
	<polygon points="47.3,80.8 43.5,102.9 44.8,108.5 49.6,80.1 	"/>
	<polygon points="76.5,104.8 76.5,102.6 46.9,118.1 47.4,120.3 76.8,104.8 	"/>
	<path d="M151.8,66.8c-0.7,0.5-1.3,0.9-1.9,1.4l6.3,36.4h2.2L151.8,66.8z"/>
	<path d="M151.6,65.8l-1.3-7.4h-2.2l1.5,8.8C150.3,66.8,151,66.3,151.6,65.8z"/>
	<path d="M162.3,66.1l2.6,14.9V68.4C164,67.6,163.1,66.8,162.3,66.1z"/>
	<polygon points="121.3,59 120.7,59.2 120.7,62.6 122,63.3 	"/>
	<polygon points="62.5,89.8 65,75.6 62.7,76.3 59.7,93.8 76.5,85 76.5,82.5 	"/>
	<path d="M130.9,88.1c0.4-0.6,0.8-1.2,1.2-1.8l-11.5-6v2.4L130.9,88.1z"/>
	<path d="M131.7,88.5l10.1,5.3l-2.6-15.2c-0.6,0.7-1.2,1.4-1.8,2.2l1.6,9.1l-6-3.1C132.6,87.3,132.2,87.9,131.7,88.5z"/>
	<path d="M139,77.4l-3.3-19h-2.2l3.6,21.1C137.8,78.9,138.4,78.2,139,77.4z"/>
	<polygon points="298.1,128.4 310.2,130.8 308.6,128.4 	"/>
	<path d="M253.2,131.2l38.5,0.1c0.6-1.5,1.1-2.4,1.5-2.9l-40-0.1V131.2z"/>
	<polygon points="275.6,57.7 275.2,56.4 271.9,55.4 272.4,57.1 271.4,58.3 275.1,58.3 	"/>
	<polygon points="252.8,86.9 252.8,82.3 235.3,104.7 239,104.7 	"/>
	<polygon points="253.2,54.1 253.2,58.3 253.6,58.3 254.2,57.6 	"/>
	<path d="M217.6,104.7l31.5-40.5c-0.6-0.4-1.3-0.7-2-1c-0.4-0.2-0.7-0.4-1.1-0.5c0,0,0,0.1-0.1,0.1c-0.3,0.4-0.6,0.8-0.9,1.2
		l0.6-0.1l-14,17.9l-2.4,0.3l1.2,1.3l-16,20.5l-5.4-5.7v5.3l1.1,1.1H217.6z"/>
	<path d="M249.7,63.4l3.1-4v-0.9h-2.9l-1.2,1.5l-1.2,0.1c-0.3,0.6-0.6,1.2-1,1.7c0.3,0.2,0.6,0.3,0.9,0.5
		C248.2,62.7,249,63,249.7,63.4z"/>
	<path d="M209,115.7v-4.7l-12.7,16.3l-21.5-22.6H169l7.3,42.4l-11.5-6v10h-0.2l0.3,0.7v-0.8h3.6l-2.5-5.6l9.7,5.6H209v-1.6
		l-26.2-0.1L209,115.7z M178.2,145.9l-6.7-39.3l22.5,23.7L180.2,148L178.2,145.9z"/>
	<polygon points="214.4,197.4 224,197.4 241.8,188.9 237.6,197.4 240,197.4 252.8,171.4 252.8,166.6 244.4,183.5 218.4,196 
		227.6,152.4 252.8,152.5 252.8,151.2 209.1,151.2 209.1,152.4 223.8,152.4 	"/>
	<polygon points="350,103.4 334.7,80.2 306.8,80.1 315.9,68.4 312.9,67.5 300.9,83 333.1,83.1 350.8,110 360.5,81.6 357.7,80.8 	"/>
	<path d="M284.1,107.1c-0.4-0.8-0.8-1.5-1.2-2.3h-23.3l-1.8,2.3L284.1,107.1z"/>
	<path d="M297,104.2v0.6h-13c0.4,0.8,0.8,1.5,1.2,2.3l34.9,0.1l19.4,29.5l4,0.8l-21.9-33.3L297,104.2z"/>
	<polygon points="322.8,70.5 322.4,71 324.7,71 	"/>
	<polygon points="351.3,78.8 348.5,78 348.2,78.8 347.5,77.7 343.2,76.5 349,85.4 	"/>
	<path d="M122.1,252.6c0,2.6,0,5.2,0,7.8l9-16.6h-4.2L122.1,252.6z"/>
	<polygon points="160,190.5 163.1,197.4 164.8,197.4 164.8,201.2 183.8,243.8 187.8,243.8 167.1,197.5 164.9,197.5 164.9,192.5 
		160.3,182.2 152,197.4 156.2,197.4 	"/>
	<polygon points="213,290.1 209.1,289.4 209.1,290.1 	"/>
	<polygon points="209,293.1 209,290.2 204.6,290.2 205.6,292.5 	"/>
	<path d="M284.6,307c-0.1-1.2-0.2-2.5-0.2-3.8l-31.2-5.7v3.7L284.6,307z"/>
	<path d="M100.8,107.5L50.4,134l0.6,2.7l2.4,2.5l4.2-0.9l-3.7-3.9l23.6-12.4l9.8,10.3l4.2-0.9L81,120.3l19.8-10.4l11.6,6.1l2.3,2.4
		c0.4-0.9,0.8-1.9,1.3-3L100.8,107.5z"/>
	<path d="M116.8,116c-0.5,1.2-1,2.2-1.4,3.3l5.1,5.4v-6.7L116.8,116z"/>
	<polygon points="209,243.8 209,241.4 207.6,238.4 209,238.2 209,234.1 206.3,235.4 191.8,203.2 193,197.5 185.3,197.5 206,243.8 	
		"/>
	<path d="M120.5,307.4L120.5,307.4l0.1-0.9C120.5,306.8,120.5,307.1,120.5,307.4z"/>
	<path d="M119.2,324c-0.1,1.3-0.2,2.5-0.4,3.7l1.7-0.2v-3.7L119.2,324z"/>
	<polygon points="154.2,290.1 158.1,290.1 156.3,286.1 	"/>
	<polygon points="209,330 173.1,323.4 164.8,304.9 164.8,313.9 170.5,326.7 205.3,333.1 201.6,336.5 207.1,336.5 209,334.8 	"/>
	<polygon points="153,243.9 128,290.1 132.2,290.1 157.2,243.9 	"/>
	<polygon points="183.4,290.2 179.4,290.2 188,309.6 209,313.4 209,309.7 190.6,306.3 	"/>
	<path d="M241.8,339.7c1.9-0.1,3.9-0.2,5.7-0.2l3.2-2.9h-5.5L241.8,339.7z"/>
	<polygon points="162.7,243.9 158.6,243.9 164.9,257.8 164.9,248.8 	"/>
	<polygon points="260.4,322.9 253.2,329.4 253.2,334.4 268.4,320.6 253.2,317.8 253.2,321.6 	"/>
	<path d="M127,337.6c1.7,0.1,3.5,0.3,5.4,0.4l-1.3-1.4h-5.1L127,337.6z"/>
	<polygon points="164.8,332.1 164.8,335.8 168.3,336.5 185.2,336.5 185.7,335.9 	"/>
	<path d="M154,151.2l-6.7,12.4l-17.2,8.2l4.3-20.6h-3.7l-5.1,24.2l-5,1.4v2.4l21-6l-18.5,24.3h2.9l10.1-13.3l-7.2,13.3h4.2l25-46.2
		H154z M143.8,170.1l-4.3,1.2l4.9-2.3L143.8,170.1z"/>
	<polygon points="159.6,140.9 150.2,136 148,146.4 159.6,140.9 	"/>
	<polygon points="174,163.3 174.4,163.5 176.9,151.7 175.7,151.1 168.5,151.1 	"/>
	<polygon points="146.6,151.2 154,151.2 156.6,146.4 	"/>
	<polygon points="146.9,134.2 122.5,121.4 137.5,137.1 134.5,151.2 143.3,151.2 	"/>
	<path d="M121.3,203.7c0.1,1.9,0.1,3.8,0.2,5.8l1.3-0.6l6.2-11.5h-2.9L121.3,203.7z"/>
	<path d="M120.5,151.2v-0.1h-2.9c0.7,5.1,1.3,11.3,1.9,18.8c0.2,2.2,0.3,4.6,0.5,7.1l0.7-0.2v-25.6H120.5z"/>
	<polygon points="120.7,151.2 130.8,151.2 133.5,138.2 120.5,124.6 120.5,151.1 120.7,151.1 	"/>
	<path d="M258.4,155.2l8.6,17.5l17.7-8.5l1.2,0.7c0.4-4.7,0.8-8.8,1.3-12.4l-34.5-0.1v14.1L258.4,155.2z"/>
	<path d="M201.3,84.5c-0.4,0-0.7,0-1.1,0c-1.5-0.1-3.1-0.2-4.6-0.4l13.5,14.2V83.8C206.5,84.2,203.8,84.5,201.3,84.5z"/>
	<polygon points="219.3,234.6 220.1,232.8 215.3,235.1 	"/>
	<polygon points="189.3,197.5 198.8,152.4 180.5,152.3 176.9,169.7 	"/>
	<polygon points="209,234.1 222.7,227.5 237.6,197.4 224,197.4 213.3,202.5 214.4,197.4 209.1,197.4 209.1,152.4 202.5,152.4 
		193,197.5 209,197.5 	"/>
	<path d="M209,111.1l3.3-4.2l-2.1-2.2h-1.1v-1.1l-19.8-20.8c-2.6-0.7-7.1-2.1-11.2-4.4c-3.7-2.1-8.7-6-13.2-10l5.4,31.7l4.5,4.7H209
		V111.1z"/>
	<path d="M249.8,53.1c-0.3,1.6-0.7,3.5-1.5,5.4h1.6L251,57L249.8,53.1z"/>
	<path d="M285.6,170c0-0.3,0.1-0.7,0.1-1l-1.1-0.6l-15.9,7.6l10.6,21.5h4.7C284.5,187.3,285,177.9,285.6,170z"/>
	<polygon points="265.6,281.9 265.3,279.8 272.1,273.1 262.7,271.7 258.4,263.2 254.2,271.7 252.8,271.9 252.8,279.5 	"/>
	<path d="M264.1,269.8l12.7,1.8l-9.2,8.9l0.3,1.7l6,1.1l9.3-9.1c0-1.8-0.1-3.7-0.1-5.6l-15.5-2.3l-9.2-18.6l-5.6,11.4v10.4l5.6-11.4
		L264.1,269.8z"/>
	<path d="M269,264.6l14,2c0-3.2-0.1-6.5-0.1-9.7l-5.5-0.8l-6.1-12.4h-12.7L269,264.6z"/>
	<path d="M283.5,285.2c-0.1-2.6-0.2-5.3-0.2-7.9l-6.8,6.6L283.5,285.2z"/>
	<polygon points="252.8,243.9 252.8,254.4 258.1,243.8 253.2,243.8 253.2,228 245.4,243.9 	"/>
	<polygon points="226.9,243.9 228,243.7 250.8,197.4 240,197.4 220.7,236.5 209,238.2 209,241.4 210.1,243.9 	"/>
	<polygon points="258.4,182 266.1,197.5 276.9,197.5 258.4,160.1 252.8,171.4 252.8,193.4 	"/>
	<path d="M283,254.7c0-3.7,0-7.3,0-11h-9.2l5.1,10.4L283,254.7z"/>
	<polygon points="243,243.9 253.2,223.2 253.2,197.5 230.3,243.9 	"/>
	<polygon points="253.2,197.5 263.7,197.5 258.4,186.9 	"/>
	<polygon points="133.1,55.5 123.1,58.5 133.6,58.5 	"/>
	<polygon points="120.7,80.2 120.7,62.6 116.6,60.4 76.5,72.2 76.5,82.5 100.8,69.7 	"/>
	<polygon points="76.8,104.8 120.5,104.8 120.5,104.7 120.7,104.7 120.7,102.7 100.8,92.3 	"/>
	<path d="M120.5,104.8v1.1c0.2-0.4,0.4-0.8,0.6-1.2h-0.5v0.1H120.5z"/>
	<path d="M162,136.5l1.9,4.2l0.9,0.5v-36.5h-6.5l3.4,19.6l-37.2-19.6h-2.2c-0.6,1.1-1.1,2.2-1.7,3.3v9.9l40.1,21.1L162,136.5z"/>
	<polygon points="164.9,104.8 169,104.8 164.9,81 	"/>
	<path d="M154.6,52l-4.6,4.4l0.3,2h5.7C155,56.2,154.7,53.9,154.6,52z"/>
	<polygon points="156.1,104.7 129,104.7 158.8,120.3 	"/>
	<polygon points="147.7,55.7 148.1,55.3 154.3,49.3 135.2,54.9 135.8,58.5 148.2,58.5 	"/>
	<polygon points="120.7,100.3 120.7,82.7 100.8,72.2 76.5,85 76.5,102.6 100.8,89.8 	"/>
	<path d="M296.1,62.6l-21,27c3.2,4.9,6.1,9.9,8.5,14.7l13.3,0V62.8L296.1,62.6z"/>
	<path d="M282.6,104.2c-2.3-4.5-5-9.2-8.1-13.9l-10.8,13.9L282.6,104.2z"/>
	<polygon points="235.3,104.7 217.6,104.7 209,115.7 209,149.5 253.2,149.5 253.2,131.2 214.8,131.1 	"/>
	<polygon points="251.8,49.5 253.2,54.1 253.2,49.9 	"/>
	<path d="M252.8,66.6v15.7l7.4-9.6C257.9,70.4,255.4,68.4,252.8,66.6z"/>
	<path d="M260.8,71.9l10.6-13.6h-17.8l-0.8,1.1v6C255.6,67.3,258.3,69.5,260.8,71.9z"/>
	<path d="M273.4,87l19.7-25.3l-11.3-3.3h-6.8L262.9,74C266.7,77.9,270.3,82.4,273.4,87z"/>
	<path d="M239,104.7l-18.3,23.5l32.5,0.1v-23.5h6.4l13.3-17c-3.2-4.6-6.7-9.1-10.5-13.1l-9.5,12.2v17.8H239z"/>
	<path d="M164.9,339.7c3.5,0.1,7.1,0.3,10.8,0.4l2.1-1.9l-9.5-1.7h-3.4V339.7z"/>
	<polygon points="155,320.3 147.3,334.7 131,336.4 131.2,336.6 164.8,336.6 164.8,335.8 161.7,335.2 	"/>
	<path d="M145,331.3l10.4-19.2l8.9,19.9l0.5,0.1v-18.2l-8.7-19.5l-16.9,31.1l-18.6,2v9h-2.8c0,0.1,0,0.2,0,0.3
		c0.9,0.1,1.9,0.2,3,0.3v-0.5h5.4l-2.9-3L145,331.3z"/>
	<path d="M181,340.2c4.6,0.1,9.3,0.2,14.1,0.2c0.5,0,1.3,0,2.1,0l4.4-3.9h-16.4L181,340.2z"/>
	<polygon points="154.2,290.1 132.2,290.1 123,307.1 120.5,307.4 120.5,323.8 136.9,322.1 	"/>
	<polygon points="158.1,290.1 164.8,304.9 164.8,290.1 	"/>
	<polygon points="164.9,290.2 179.4,290.2 164.9,257.8 	"/>
	<polygon points="157.2,243.9 158.6,243.9 158,242.4 	"/>
	<path d="M253.2,321.6l-44.2-8.1V330l4.3,0.8l-4.3,3.9v1.7h-1.9l-4.4,3.9h0.7h2.1c1.5,0,2.7,0,3.6,0v-3.8h36.2l7.9-7.1V321.6z"/>
	<polygon points="158.2,151.2 164.6,151.2 161.7,144.7 	"/>
	<polygon points="167.1,197.5 185.3,197.5 164.9,151.9 164.9,192.5 	"/>
	<path d="M133.2,197.4l-11.4,21.1c0.2,8.2,0.3,16.7,0.4,25.4h4.8l25.2-46.5H133.2z"/>
	<path d="M213,290.1l40.2,7.4v-7.3h30.6c0-0.4,0-0.9,0-1.3l-30.9-5.7v6.8H213z"/>
	<polygon points="209.1,289.4 209.1,250.7 206,243.8 187.8,243.8 208.1,289.2 	"/>
	<path d="M120.7,303.5l7.3-13.4h-6.6C121.2,294.7,121,299.2,120.7,303.5z"/>
	<polygon points="162.7,243.9 164.8,243.9 164.8,201.2 163.1,197.4 156.2,197.4 131,243.9 153,243.9 158.3,234.1 	"/>
	<polygon points="164.9,248.8 183.4,290.2 204.6,290.2 183.8,243.8 164.9,243.8 	"/>
	<polygon points="209,309.7 253.2,317.8 253.2,301.2 209,293.1 	"/>
	<path d="M252.8,336.6v2.7c15-0.7,27.1-1.7,34.6-2.3c0-0.1,0-0.3-0.1-0.4h-34.2v-2.1l-2.4,2.2H252.8z"/>
	<path d="M120.7,189v-9.9l-0.5,0.2C120.3,182.4,120.5,185.6,120.7,189z"/>
	<path d="M121.2,200.1l2.1-2.7h-2.2C121.1,198.3,121.1,199.2,121.2,200.1z"/>
</g>
</svg>
