<?xml version="1.0" encoding="utf-8"?>
<!-- Generator: Adobe Illustrator 25.3.0, SVG Export Plug-In . SVG Version: 6.00 Build 0)  -->
<svg version="1.1" id="Layer_1" xmlns="http://www.w3.org/2000/svg" xmlns:xlink="http://www.w3.org/1999/xlink" x="0px" y="0px"
	 viewBox="0 0 750.2 400.1" style="enable-background:new 0 0 750.2 400.1;" xml:space="preserve">
<path d="M76.4,108.9L76.4,108.9C76.4,108.9,76.4,108.9,76.4,108.9C76.4,108.9,76.4,108.9,76.4,108.9L76.4,108.9z"/>
<path d="M114.4,108.9c0-3.2,0-6.3,0-9.5c3.2,0,6.4,0,9.6,0c1.7-3.1,3.7-6.3,5.7-9.5c-5.1,0-10.1,0-15.3,0c0-9.6,0-19.3,0-28.9
	l-9.7,2.8c0,8.6,0,17.2,0,25.9c-3,0-6.1,0-9.3,0c0-3,0-6.1,0-9.4c-6.5,0-12.7,0-19,0c0,3.1,0,6.1,0,9.4c3.1,0,6.2,0,9.4,0
	c0,6.4,0,12.6,0,19.1c-3.1,0-6.2,0-9.3,0c0,3.1,0,6.3-0.1,9.4c0,0,0,0,0,0c0,0,0,0,0,0c3.1,0,6.2,0,9.5,0c0,4.8,0,9.5,0,14.3
	l9.4-1.9c0-10.4,0-20.8,0-31.3c3.2,0,6.2,0,9.4,0c0,6.2,0,12.4,0,18.9c3.4,0,6.7,0,10,0c1.2-2.8,2.6-6,4.3-9.4
	C117.5,108.9,116,108.9,114.4,108.9z"/>
<path d="M76.4,80.5C76.4,80.5,76.4,80.5,76.4,80.5C76.4,80.4,76.4,80.4,76.4,80.5L76.4,80.5z"/>
<path d="M152.2,52c-2.3,0-4.6,0-7,0l-21.3,6.3c0,1,0,2.1,0,3.2c3,0,6.1,0,9.4,0c0,7.9,0,15.6,0,23.3c2.9-4,6.1-7.9,9.5-11.4
	c0-0.8,0-1.5,0-2.3c0.8,0,1.6,0,2.4,0c2.2-2.1,4.6-4,7-5.6C152.3,60.9,152.3,56.5,152.2,52C152.2,52,152.2,52,152.2,52
	C152.2,52,152.2,52,152.2,52z"/>
<path d="M76.4,80.4C76.4,80.4,76.4,80.4,76.4,80.4L76.4,80.4C76.4,80.4,76.4,80.4,76.4,80.4z"/>
<path d="M57.4,77.8c0,0.9,0,1.7,0,2.6c0,0,0,0,0,0c0,0,0,0,0,0c6.3,0,12.6,0,18.9,0c0-2.7,0-5.4,0-8.2L57.4,77.8z"/>
<path d="M154.6,49.2l-2.4,0.7c0,0.7,0,1.4,0,2.1c0,0,0,0,0,0c0,0,0,0,0,0c0.8,0,1.5,0,2.3,0C154.5,50.9,154.5,49.9,154.6,49.2z"/>
<path d="M57.4,137.3c-2.1,0-4.2,0-6.3,0l0.5,2.3l5.9-1.2C57.5,138.1,57.5,137.7,57.4,137.3C57.4,137.3,57.4,137.3,57.4,137.3
	C57.4,137.3,57.4,137.3,57.4,137.3z"/>
<path d="M76.4,118.3c-6.3,0-12.6,0-19,0c0,6.5,0,12.7,0,19c0,0,0,0,0,0c0,0,0,0,0,0c1.8,0,3.6,0,5.3,0l4.1-0.8c0-2.9,0-5.7,0-8.7
	c3.2,0,6.3,0,9.5,0C76.4,124.5,76.4,121.5,76.4,118.3C76.4,118.4,76.4,118.3,76.4,118.3C76.4,118.3,76.4,118.3,76.4,118.3z"/>
<path d="M47.9,89.9c-2.4,0-4.8,0-7.3,0l4.2,18.9c4.2,0,8.4,0,12.5,0c0-3.2,0-6.2,0-9.4c-3.2,0-6.2,0-9.4,0C48,96.1,48,93,47.9,89.9
	C48,89.9,47.9,89.9,47.9,89.9C47.9,89.9,47.9,89.9,47.9,89.9z"/>
<path d="M57.4,80.4c-2.9,0-5.8,0-8.7,0l-0.8,0.2c0,3.2,0,6.3,0,9.3c0,0,0,0,0,0c0,0,0,0,0,0c3.1,0,6.2,0,9.5,0
	C57.5,86.6,57.5,83.5,57.4,80.4C57.5,80.4,57.5,80.4,57.4,80.4C57.4,80.4,57.4,80.4,57.4,80.4z"/>
<path d="M47.8,122.4c0-1.4,0-2.7,0-4.1c-0.3,0-0.6,0-0.9,0L47.8,122.4z"/>
<path d="M76.4,108.9C76.4,108.9,76.4,108.9,76.4,108.9C76.4,108.9,76.4,108.9,76.4,108.9L76.4,108.9
	C76.4,108.9,76.4,108.9,76.4,108.9z"/>
<path d="M67,99.5c0,3.2,0,6.2,0,9.3c3.2,0,6.3,0,9.3,0c0-3.1,0-6.2,0-9.3C73.1,99.5,70.1,99.5,67,99.5z"/>
<path d="M85.9,69.4L80.7,71c1.7,0,3.4,0,5.2,0C85.9,70.5,85.9,70,85.9,69.4z"/>
<path d="M565,79.4C565,79.4,565,79.4,565,79.4C565,79.4,565,79.4,565,79.4L565,79.4z"/>
<path d="M621.9,155.2C621.9,155.2,621.9,155.2,621.9,155.2C621.9,155.2,621.9,155.2,621.9,155.2L621.9,155.2z"/>
<path d="M546.1,98.4C546.1,98.3,546.1,98.3,546.1,98.4L546.1,98.4C546,98.4,546,98.4,546.1,98.4z"/>
<path d="M555.5,107.8c0,3.3,0,6.4,0,9.5c0,0,0,0,0,0c0,0,0,0,0,0c3.1,0,6.2,0,9.4,0c0,12.7,0,25.3,0,37.9c0,0,0,0,0,0c0,0,0,0,0,0
	c3.1,0,6.2,0,9.4,0c0-6.4,0-12.6,0-18.9c3.2,0,6.2,0,9.4,0c0,3,0,6.1,0,9.3c3.2,0,6.3,0,9.6,0c0-3.1,0-6.1,0-9.3
	c6.4,0,12.5,0,18.9,0c0,6.2,0,12.4,0,18.9c3.3,0,6.4,0,9.5,0c0-3.1,0-6.2,0-9.5c3.3,0,6.4,0,9.5,0c0-3.2,0-6.2,0-9.4
	c1.2,0,2.3,0,3.4,0c1.3-5,2.4-7.1,3.2-8c-0.6-1.9-2.9-9.6-6.7-19.5c0,6,0,11.9,0,18c-6.2,0-12.4,0-18.8,0c0-6.2,0-12.4,0-18.8
	c-3.2,0-6.2,0-9.4,0c0-3.2,0-6.3,0-9.6c-3.3,0-6.4,0-9.5,0c0-6.3,0-12.6,0-18.9c3.2,0,6.3,0,9.5,0c0,3.1,0,6.1,0,9.3
	c6.3,0,12.5,0,18.8,0c0,6.3,0,12.6,0,19c3.1,0,6.1,0,9.1,0c-4.4-11.1-10.7-24.9-18.6-36.2c0,2.6,0,5.2,0,7.8c-3.2,0-6.3,0-9.3,0
	c0-0.6-0.1-1.2-0.1-1.8c0-5.8,0-11.6,0-17.4c-3-3-6.2-5.5-9.5-7.3c0,2.5,0,5,0,7.6c-6.4,0-12.7,0-18.9,0c0,6.2,0,12.5,0,19
	c-3.2,0-6.4,0-9.5,0c0,3.1,0,6.2,0,9.5c-3.3,0-6.3,0-9.6,0c0,3.2,0,6.3,0,9.5c-3.2,0-6.3,0-9.4,0c0,3.1,0,6.1,0,9.4
	C549.2,107.8,552.3,107.8,555.5,107.8z M574.6,117.3c3.1,0,6.2,0,9.3,0c0,3.1,0,6.1,0,9.3c-3.1,0-6.2,0-9.3,0
	C574.6,123.6,574.6,120.6,574.6,117.3z M593.5,117.3c3.1,0,6.1,0,9.3,0c0,3.1,0,6.2,0,9.4c-3,0-6.1,0-9.3,0
	C593.5,123.5,593.5,120.4,593.5,117.3z M584.1,70c3,0,6.1,0,9.3,0c0,3.1,0,6.2,0,9.4c-3.1,0-6.1,0-9.3,0
	C584.1,76.2,584.1,73.2,584.1,70z M565.1,98.4c9.5,0,18.9,0,28.3,0c0,6.3,0,12.6,0,18.9c-3.1,0-6.3,0-9.4,0c0-3.1,0-6.1,0-9.4
	c-6.3,0-12.6,0-18.9,0C565.1,104.6,565.1,101.6,565.1,98.4z"/>
<path d="M574.5,60.4C574.5,60.4,574.5,60.4,574.5,60.4L574.5,60.4C574.5,60.4,574.5,60.4,574.5,60.4z"/>
<path d="M621.9,259.5C621.9,259.5,621.9,259.5,621.9,259.5C621.9,259.5,621.9,259.5,621.9,259.5L621.9,259.5z"/>
<path d="M602.9,287.9c3.3,0,6.4,0,9.6,0c0-9.6,0-18.9,0-28.4c3.2,0,6.3,0,9.4,0c0-3.1,0-6.1,0-9.4c-6.3,0-12.5,0-18.9,0
	c0-3.3,0-6.4,0-9.5c0,0,0,0,0,0c0,0,0,0,0,0c-3.1,0-6.1,0-9.3,0c0-6.3,0-12.5,0-18.9c3.1,0,6.2,0,9.3,0c0,0,0,0,0,0c0,0,0,0,0,0
	c0-3.1,0-6.2,0-9.4c3.2,0,6.3,0,9.4,0c0,0,0,0,0,0c0,0,0,0,0,0c0-3.1,0-6.2,0-9.4c3.1,0,6.2,0,9.4,0c0-3.2,0-6.2,0-9.4
	c2.4,0,4.7,0,7.1,0c0.2-3.4,0.3-6.6,0.5-9.6c-8.8,0-17.7,0-26.5,0c0,0,0,0,0,0c0,0,0,0,0,0c0,6.2,0,12.5,0,18.9c-3.2,0-6.3,0-9.4,0
	c0,0,0,0,0,0c0,0,0,0,0,0c0,3.1,0,6.1,0,9.4c-3.1,0-6.2,0-9.4,0c0,3.2,0,6.3,0,9.5c-3.3,0-6.4,0-9.5,0c0,0,0,0,0,0c0,0,0,0,0,0
	c0,3.1,0,6.3,0,9.4c-3.1,0-6.3,0-9.4,0c0,0,0,0,0,0c0,0,0,0,0,0c0,6.2,0,12.5,0,18.9c-3.2,0-6.3,0-9.4,0c0,0,0,0,0,0c0,0,0,0,0,0
	c0,3.1,0,6.2,0,9.3c-6.3,0-12.5,0-18.9,0c0-3.1,0-6.2,0-9.3c0,0,0,0,0,0c0,0,0,0,0,0c-6.2,0-12.5,0-18.9,0c0,3.2,0,6.4,0,9.5
	c3.1,0,6.2,0,9.3,0c0,9.5,0,18.9,0,28.5c-3.1,0-6.2,0-9.3,0c0,3.1,0,6.1,0,9.4c3.1,0,6.2,0,9.4,0c0,3.3,0,6.4,0,9.5c0,0,0,0,0,0
	c0,0,0,0,0,0c3.1,0,6.1,0,9.4,0c0-3.2,0-6.2,0-9.5c3.3,0,6.4,0,9.5,0c0,0,0,0,0,0c0,0,0,0,0,0c0-3.1,0-6.2,0-9.4c-3.2,0-6.3,0-9.4,0
	c0-6.4,0-12.6,0-19c15.8,0,31.5,0,47.3,0c0,3.1,0,6.1,0,9.4c3.2,0,6.2,0,9.4,0c0,6.4,0,12.6,0,19c-6.3,0-12.6,0-18.8,0c0,0,0,0,0,0
	c0,0,0,0,0,0c0,3.1,0,6.2,0,9.4c-3.2,0-6.3,0-9.4,0c0,0,0,0,0,0c0,0,0,0,0,0c0,3.1,0,6.3,0,9.4c6.2,0,12.5,0,18.9,0
	c0,3.2,0,6.4,0,9.5c0,0,0,0,0,0c0,0,0,0,0,0c3.1,0,6.3,0,9.4,0c0-6.3,0-12.6,0-19c3.3,0,6.4,0,9.5,0
	C602.9,300.6,602.9,294.4,602.9,287.9z M584,250.2c3.1,0,6.2,0,9.3,0c0,6.2,0,12.4,0,18.8c-3.1,0-6.2,0-9.3,0
	C584,262.7,584,256.5,584,250.2z M583.8,231.1c0,3.1,0,6.2,0,9.4c-3,0-6.1,0-9.3,0c0-3.1,0-6.2,0-9.4
	C577.6,231.1,580.6,231.1,583.8,231.1z"/>
<path d="M602.9,306.9C602.9,306.9,602.9,306.9,602.9,306.9L602.9,306.9C602.9,306.9,602.9,306.9,602.9,306.9z"/>
<path d="M593.5,325.9C593.4,325.9,593.4,325.9,593.5,325.9C593.4,325.9,593.4,325.9,593.5,325.9L593.5,325.9z"/>
<path d="M517.6,288C517.6,288,517.6,288,517.6,288C517.6,288,517.6,288,517.6,288L517.6,288z"/>
<path d="M517.6,259.5C517.6,259.5,517.6,259.5,517.6,259.5C517.6,259.5,517.6,259.5,517.6,259.5L517.6,259.5z"/>
<path d="M565,316.4C565,316.4,565,316.4,565,316.4C565,316.4,565,316.4,565,316.4L565,316.4z"/>
<path d="M508.1,240.5C508.1,240.6,508.1,240.6,508.1,240.5C508.1,240.6,508.1,240.6,508.1,240.5L508.1,240.5z"/>
<path d="M498.6,325.9c0-3.1,0-6.1,0-9.4c-6.3,0-12.5,0-18.8,0c0-9.5,0-18.9,0-28.5c3.1,0,6.2,0,9.4,0c0,0,0,0,0,0c0,0,0,0,0,0
	c0-3.1,0-6.2,0-9.4c-3.2,0-6.3,0-9.4,0c0-3.2,0-6.2,0-9.4c6.2,0,12.4,0,18.8,0c0,6.3,0,12.5,0,18.8c0,0,0,0,0,0c0,0,0,0,0,0
	c6.3,0,12.6,0,18.9,0c0-9.5,0-18.9,0-28.4c-3.1,0-6.2,0-9.5,0c0-6.4,0-12.7,0-19c-3.1,0-6.2,0-9.4,0c0-6.4,0-12.7,0-19c0,0,0,0,0,0
	c0,0,0,0,0,0c-6.2,0-12.5,0-19,0c0-3.2,0-6.3,0-9.4c-4.4,0-8.8,0-13.2,0c0.1,3.1,0.2,6.3,0.3,9.5c1.1,0,2.3,0,3.5,0
	c0,3.2,0,6.3,0,9.4c0,0,0,0,0,0c0,0,0,0,0,0c6.2,0,12.5,0,18.8,0c0,3.1,0,6.2,0,9.4c-3,0-6.1,0-9.4,0c0,3.3,0,6.4,0,9.5
	c-3.1,0-6.1,0-9.4,0c0,9.5,0,18.9,0,28.4c-1.1,0-2.3,0-3.4,0c-0.2,9.7-0.5,19.4-0.9,28.6c1.4,0,2.8,0,4.3,0c0,6.3,0,12.5,0,18.8
	c3.1,0,6.1,0,9.4,0c0,3.2,0,6.2,0,9.5c3.3,0,6.4,0,9.5,0c0-3.1,0-6.2,0-9.5C492.4,325.9,495.5,325.9,498.6,325.9z M498.5,250.1
	c0,3.1,0,6.2,0,9.4c-6.2,0-12.4,0-18.8,0c0-3.1,0-6.2,0-9.4C485.9,250.1,492.2,250.1,498.5,250.1z"/>
<path d="M479.7,212.1C479.7,212.1,479.7,212.1,479.7,212.1C479.7,212.1,479.7,212.1,479.7,212.1L479.7,212.1z"/>
<path d="M489.1,335.3C489.1,335.4,489.1,335.4,489.1,335.3L489.1,335.3C489.2,335.3,489.2,335.3,489.1,335.3z"/>
<path d="M470.2,325.9C470.2,325.9,470.2,325.9,470.2,325.9C470.2,325.9,470.2,325.9,470.2,325.9L470.2,325.9z"/>
<path d="M517.6,287.9C517.6,287.9,517.6,287.9,517.6,287.9C517.6,288,517.6,288,517.6,287.9L517.6,287.9z"/>
<path d="M498.6,325.9C498.6,325.9,498.6,325.9,498.6,325.9L498.6,325.9C498.7,325.9,498.6,325.9,498.6,325.9z"/>
<path d="M517.6,259.5C517.6,259.5,517.6,259.5,517.6,259.5C517.6,259.5,517.6,259.5,517.6,259.5L517.6,259.5z"/>
<path d="M621.9,259.5C621.9,259.5,621.9,259.5,621.9,259.5C621.9,259.5,621.9,259.5,621.9,259.5
	C621.9,259.5,621.9,259.5,621.9,259.5z"/>
<path d="M621.9,164.7c3,0,5.8,0,8.8,0c0.3-3.5,0.6-6.6,0.9-9.4c-3.3,0-6.5,0-9.8,0C621.9,158.3,621.9,161.4,621.9,164.7z"/>
<path d="M621.9,155.2C621.9,155.2,621.9,155.2,621.9,155.2L621.9,155.2C621.9,155.2,621.9,155.2,621.9,155.2z"/>
<path d="M621.9,269.1c2,0,3.9,0,5.8,0c0-3.2-0.1-6.3-0.1-9.5c-1.9,0-3.8,0-5.7,0C621.9,262.7,621.9,265.8,621.9,269.1z"/>
<path d="M479.7,212.1C479.7,212.1,479.7,212.1,479.7,212.1L479.7,212.1C479.7,212.1,479.7,212.1,479.7,212.1z"/>
<path d="M470.2,155.2C470.2,155.2,470.2,155.2,470.2,155.2C470.2,155.2,470.2,155.2,470.2,155.2L470.2,155.2z"/>
<path d="M527.1,164.7C527.1,164.7,527.1,164.7,527.1,164.7C527.1,164.7,527.1,164.7,527.1,164.7L527.1,164.7z"/>
<path d="M498.6,107.8C498.6,107.8,498.6,107.8,498.6,107.8C498.6,107.8,498.7,107.8,498.6,107.8L498.6,107.8z"/>
<path d="M489.1,212.1c0-12.6,0-25.2,0-37.8c3.2,0,6.2,0,9.4,0c0,6.2,0,12.4,0,18.9c6.5,0,12.7,0,19,0c0,0,0,0,0,0c0,0,0,0,0,0
	c0-3.1,0-6.1,0-9.4c-3.2,0-6.2,0-9.4,0c0-3.2,0-6.3,0-9.5c6.3,0,12.6,0,18.8,0c0,0,0,0,0,0c0,0,0,0,0,0c0-3.1,0-6.3,0-9.4
	c-6.2,0-12.5,0-18.9,0c0-15.8,0-31.5,0-47.4c-3.2,0-6.3,0-9.6,0c0-3.3,0-6.4,0-9.5c-3.1,0-6.2,0-9.4,0c0-3.2,0-6.2,0-9.4
	c-3.2,0-6.2,0-9.4,0c0-3.2,0-6.2,0-9.5c-2.6,0-5.1,0-7.7,0c-1.6,3.2-3.1,6.4-4.5,9.5c0.8,0,1.7,0,2.5,0c0,3.1,0,6.1,0,9.3
	c3.2,0,6.3,0,9.5,0c0,9.6,0,19.1,0,28.5c0,0,0,0,0,0c0,0,0,0,0,0c6.2,0,12.5,0,18.8,0c0,9.5,0,18.8,0,28.3c-3,0-6.1,0-9.3,0
	c0-3,0-6.1,0-9.4c-6.5,0-12.7,0-19,0c0,3.1,0,6.1,0,9.4c3.1,0,6.2,0,9.4,0c0,6.4,0,12.6,0,19.1c-3.1,0-6.2,0-9.3,0
	c0,3.1,0,6.3-0.1,9.4c0,0,0,0,0,0c0,0,0,0,0,0c3.1,0,6.2,0,9.5,0c0,6.4,0,12.6,0,18.9C482.8,212.1,485.9,212.1,489.1,212.1z"/>
<path d="M470.2,183.7C470.2,183.7,470.2,183.7,470.2,183.7C470.2,183.7,470.2,183.7,470.2,183.7L470.2,183.7z"/>
<path d="M527.1,60.4C527.1,60.4,527.1,60.4,527.1,60.4L527.1,60.4C527.1,60.4,527.1,60.4,527.1,60.4z"/>
<path d="M527.1,88.8C527.1,88.8,527.1,88.9,527.1,88.8C527.1,88.9,527.1,88.9,527.1,88.8L527.1,88.8z"/>
<path d="M527.1,164.7C527.1,164.7,527.1,164.7,527.1,164.7L527.1,164.7C527.1,164.7,527.1,164.7,527.1,164.7z"/>
<path d="M527.1,50.9C527.1,50.9,527.1,50.9,527.1,50.9C527.1,50.9,527.1,50.9,527.1,50.9L527.1,50.9z"/>
<path d="M498.7,107.8C498.7,107.8,498.6,107.8,498.7,107.8L498.7,107.8C498.7,107.8,498.7,107.8,498.7,107.8z"/>
<path d="M508.1,107.8c0-3.1,0-6.2,0-9.4c3.2,0,6.3,0,9.5,0c0,6.3,0,12.4,0,18.8c3.2,0,6.2,0,9.4,0c0,3.2,0,6.3,0,9.5
	c-3.1,0-6.1,0-9.2,0c0,3.2,0,6.2,0,9.5c3,0,6.1,0,9.4,0c0,9.6,0,19,0,28.5c3.1,0,6.2,0,9.4,0c0,3.2,0,6.4,0,9.5c0,0,0,0,0,0
	c0,0,0,0,0,0c6.3,0,12.6,0,18.9,0c0,0,0,0,0,0c0,0,0,0,0,0c0-3.1,0-6.3,0-9.4c0,0,0,0,0,0c0,0,0,0,0,0c-3.1,0-6.2,0-9.4,0
	c0-3.1,0-6.2,0-9.4c-3.2,0-6.3,0-9.4,0c0-3.2,0-6.2,0-9.4c3.1,0,6.1,0,9.4,0c0-6.5,0-12.7,0-19c0,0,0,0,0,0c0,0,0,0,0,0
	c-3.1,0-6.1,0-9.4,0c0-6.3,0-12.5,0-18.9c-3.2,0-6.3,0-9.6,0c0-6.4,0-12.7,0-19c-3.1,0-6.2,0-9.4,0c0-3.2,0-6.4,0-9.5
	c3.1,0,6.3,0,9.4-0.1c0-6.3,0-12.6,0-18.9c-3.1,0-6.1,0-9.3,0c0-3.2,0-6.2,0-9.5c3.1,0,6.2,0,9.3,0c0-1.4,0-2.8,0-4.3
	c-6.1,0.2-11.6,0.5-16.2,0.7c-0.8,0.6-1.8,1.2-2.8,1.9c0,3.7,0,7.4,0,11.2c-3.2,0-6.2,0-9.5,0c0,3.2,0,6.3,0,9.4c-3.2,0-6.2,0-9.4,0
	c0-2.3,0-4.6,0-6.9c-3.4,3.8-6.6,8.1-9.5,12.7c0,1.2,0,2.5,0,3.7c3.2,0,6.3,0,9.5,0c0,3.2,0,6.2,0,9.4c3.2,0,6.2,0,9.5,0
	c0,6.5,0,12.7,0,19C501.7,107.8,504.8,107.8,508.1,107.8z M508.2,70c3,0,6.1,0,9.3,0c0,3.1,0,6.2,0,9.3c-3.1,0-6.1,0-9.3,0
	C508.2,76.2,508.2,73.2,508.2,70z"/>
<path d="M527.1,79.4C527.1,79.4,527.1,79.4,527.1,79.4C527.1,79.4,527.1,79.4,527.1,79.4L527.1,79.4z"/>
<path d="M489.1,335.4C489.2,335.4,489.2,335.4,489.1,335.4C489.2,335.4,489.2,335.4,489.1,335.4L489.1,335.4z"/>
<path d="M498.6,325.9C498.6,325.9,498.7,325.9,498.6,325.9C498.7,325.9,498.7,325.9,498.6,325.9L498.6,325.9z"/>
<path d="M546,344.8C546,344.8,546,344.9,546,344.8L546,344.8C546,344.8,546,344.8,546,344.8z"/>
<path d="M536.5,365.5c0-0.6,0-1.2,0-1.7c-5.3,0-10.6,0-15.9,0C525.7,364.6,531,365.2,536.5,365.5z"/>
<path d="M546,326c-3.1,0-6.2,0-9.4,0c0,3,0,6.1,0,9.3c-3.3,0-6.4,0-9.5,0c0,0,0,0,0,0c0,0,0,0,0,0c0,3.1,0,6.1,0,9.3
	c-6.3,0-12.5,0-18.9,0c0-6.2,0-12.4,0-18.8c-3.3,0-6.4,0-9.5,0c0,3.1,0,6.2,0,9.5c-3.2,0-6.4,0-9.5,0c0,3.1,0,6.3,0,9.4c0,0,0,0,0,0
	c0,0,0,0,0,0c3.1,0,6.1,0,9.3,0c0,3.1,0,6.2,0,9.4c-3.1,0-6.2,0-9.3,0c0,0,0,0,0,0c0,0,0,0,0,0c0,0.7,0,1.4,0,2.1
	c5.7,1.8,12.2,3.5,19.1,5c0-2.4,0-4.8,0-7.2c9.5,0,18.8,0,28.3,0c0-3.2,0-6.3,0-9.5c3.3,0,6.3,0,9.4,0C546,338.6,546,332.4,546,326z
	"/>
<path d="M621.9,325.9C621.9,325.9,621.9,325.9,621.9,325.9C621.9,325.9,621.9,325.9,621.9,325.9
	C621.9,325.9,621.9,325.9,621.9,325.9z"/>
<path d="M631.3,344.8C631.3,344.8,631.3,344.9,631.3,344.8C631.3,344.9,631.4,344.9,631.3,344.8L631.3,344.8z"/>
<path d="M612.3,354.4c10-3.6,16.7-7,19-8.1c0-0.5,0-0.9,0-1.4c-3.1,0-6.2,0-9.5,0c0-6.4,0-12.7,0-19c-3.1,0-6.2,0-9.5,0
	C612.3,335.5,612.3,344.9,612.3,354.4z"/>
<path d="M470.2,155.2C470.2,155.2,470.2,155.2,470.2,155.2L470.2,155.2C470.2,155.2,470.2,155.2,470.2,155.2z"/>
<path d="M470.2,145.8C470.2,145.8,470.2,145.8,470.2,145.8C470.2,145.7,470.2,145.7,470.2,145.8c-2.8,0-5.6,0-8.5,0
	c0.4,2.7,0.9,5.9,1.3,9.5c2.4,0,4.8,0,7.2,0C470.2,152.1,470.2,148.9,470.2,145.8z"/>
<path d="M470.2,136.2c0-3.1,0-6.1,0-9.4c-3.2,0-6.2,0-9.5,0c0-3.2,0-6.3,0-9.5c-0.2,0-0.4,0-0.6,0c-1.9,5.5-3.1,9.6-3.5,10.9
	c0.9,1.1,2.5,4.2,4.1,12.5c0-1.4,0-2.9,0-4.4C464,136.3,467.1,136.3,470.2,136.2C470.2,136.3,470.2,136.3,470.2,136.2
	C470.2,136.2,470.2,136.2,470.2,136.2z"/>
<path d="M574.5,344.9C574.5,344.9,574.5,344.9,574.5,344.9C574.5,344.9,574.5,344.8,574.5,344.9L574.5,344.9z"/>
<path d="M593.4,344.9C593.4,344.9,593.4,344.9,593.4,344.9L593.4,344.9C593.4,344.8,593.4,344.9,593.4,344.9z"/>
<path d="M574.5,354.4c-3.3,0-6.4,0-9.4,0c0,3.2,0,6.2,0,9.3c3.6,0,7.1,0,10.7,0c6.3-1,12.2-2.2,17.6-3.6c0-5.1,0-10.2,0-15.3
	c-6.3,0-12.6,0-18.9,0C574.5,348,574.5,351.1,574.5,354.4z"/>
<path d="M628.8,306.9c-2.3,0-4.6,0-7,0c0-3.2,0-6.2,0-9.3c-3.2,0-6.2,0-9.5,0c0,3.2,0,6.2,0,9.4c-3.3,0-6.3,0-9.4,0
	c0,3.1,0,6.2,0,9.5c6.4,0,12.6,0,19,0c0,3.2,0,6.3,0,9.4c2.7,0,5.4,0,8.2,0C629.6,319.8,629.1,313.4,628.8,306.9z"/>
<path d="M602.9,306.9C602.9,306.9,602.9,306.9,602.9,306.9C602.9,306.9,602.9,306.9,602.9,306.9
	C602.9,306.9,602.9,306.9,602.9,306.9z"/>
<path d="M621.9,325.9C621.9,325.9,621.9,325.9,621.9,325.9C621.9,325.9,621.9,325.9,621.9,325.9
	C621.9,325.9,621.9,325.9,621.9,325.9z"/>
<path d="M565,316.4C565,316.4,565,316.4,565,316.4C565,316.4,565,316.4,565,316.4L565,316.4z"/>
<path d="M574.5,335.4C574.5,335.4,574.5,335.4,574.5,335.4C574.5,335.4,574.5,335.4,574.5,335.4c-3.1,0-6.2,0-9.5,0
	c0-6.4,0-12.6,0-18.9c-3.1,0-6.3,0-9.4,0c0,0,0,0,0,0c0,0,0,0,0,0c0,9.5,0,18.9,0,28.4c6.3,0,12.6,0,18.9,0
	C574.5,341.7,574.5,338.5,574.5,335.4z"/>
<path d="M574.5,344.8C574.5,344.8,574.5,344.9,574.5,344.8L574.5,344.8C574.5,344.8,574.5,344.8,574.5,344.8z"/>
<path d="M555.5,344.9C555.5,344.9,555.5,344.8,555.5,344.9C555.5,344.8,555.5,344.8,555.5,344.9L555.5,344.9z"/>
<path d="M565,60.4c-3.1,0-6.2,0-9.5,0c0-3.3,0-6.4,0-9.4c-3.2,0-6.3,0-9.3,0c0,6.3,0,12.5,0,18.8c3.1,0,6.2,0,9.4,0
	c0,3.2,0,6.3,0,9.4c3.3,0,6.3,0,9.4,0C565,73,565,66.7,565,60.4z"/>
<path d="M565,60.4C565,60.4,565,60.4,565,60.4C565,60.4,565,60.4,565,60.4L565,60.4z"/>
<path d="M565,79.4C565,79.4,565,79.4,565,79.4L565,79.4C565,79.4,565,79.4,565,79.4z"/>
<path d="M464.7,325.9c-0.5,6.7-1.2,13.1-2,18.9c2.4,0,4.9,0,7.4,0c0-6.4,0-12.6,0-18.9C468.4,325.9,466.6,325.9,464.7,325.9z"/>
<path d="M470.2,325.9C470.2,325.9,470.2,325.9,470.2,325.9L470.2,325.9C470.2,325.9,470.2,325.9,470.2,325.9z"/>
<path d="M546.1,98.3C546,98.3,546,98.3,546.1,98.3C546,98.3,546,98.3,546.1,98.3C546,98.4,546.1,98.3,546.1,98.3z"/>
<path d="M527.1,79.4C527.1,79.4,527.1,79.4,527.1,79.4L527.1,79.4C527.1,79.4,527.1,79.4,527.1,79.4z"/>
<path d="M536.5,88.8c0,3.2,0,6.2,0,9.5c3.3,0,6.4,0,9.5,0c0-6.3,0-12.6,0-18.9c-6.4,0-12.7,0-18.9,0c0,3.1,0,6.3,0,9.4
	C530.2,88.8,533.3,88.8,536.5,88.8z"/>
<path d="M527.1,88.8C527.1,88.8,527.1,88.8,527.1,88.8L527.1,88.8C527.1,88.9,527.1,88.8,527.1,88.8z"/>
<path d="M593.5,344.9C593.5,344.9,593.5,344.8,593.5,344.9C593.4,344.8,593.4,344.8,593.5,344.9L593.5,344.9z"/>
<path d="M593.5,344.8c3.1,0,6.2,0,9.3,0c0-6.4,0-12.6,0-18.9c-3.2,0-6.3,0-9.3,0C593.5,332.2,593.5,338.5,593.5,344.8z"/>
<path d="M593.5,325.9C593.5,325.9,593.5,325.9,593.5,325.9L593.5,325.9C593.4,325.9,593.4,325.9,593.5,325.9z"/>
<path d="M631.4,339.3c0,1.8,0,3.7,0,5.5c0.2,0,0.5,0,0.7,0C631.8,343,631.6,341.2,631.4,339.3z"/>
<path d="M631.4,344.8C631.4,344.8,631.3,344.8,631.4,344.8L631.4,344.8C631.4,344.9,631.4,344.8,631.4,344.8z"/>
<path d="M555.5,344.9C555.5,344.9,555.5,344.9,555.5,344.9L555.5,344.9C555.5,344.8,555.5,344.9,555.5,344.9z"/>
<path d="M546,344.9C546,344.9,546,344.9,546,344.9C546.1,344.9,546.1,344.8,546,344.9L546,344.9z"/>
<path d="M546.1,354.2c3.2,0,6.3,0,9.4,0c0-3.2,0-6.3,0-9.3c-3.1,0-6.3,0-9.4,0C546.1,348,546.1,351.1,546.1,354.2z"/>
<path d="M574.5,60.4C574.5,60.4,574.5,60.4,574.5,60.4C574.5,60.4,574.5,60.4,574.5,60.4L574.5,60.4z"/>
<path d="M565,60.4C565,60.4,565,60.4,565,60.4L565,60.4C565,60.4,565,60.4,565,60.4z"/>
<path d="M574.5,60.4c0-3.1,0-6.2,0-9.3c-3.2,0-6.3,0-9.4,0c0,3.2,0,6.3,0,9.3C568.2,60.4,571.3,60.4,574.5,60.4z"/>
<path d="M527.1,60.4C527.1,60.4,527.1,60.4,527.1,60.4C527.1,60.4,527.1,60.4,527.1,60.4L527.1,60.4z"/>
<path d="M527.1,60.4c3.1,0,6.2,0,9.3,0c0-3.2,0-6.3,0-9.4c-3.2,0-6.3,0-9.3,0C527.1,54.1,527.1,57.2,527.1,60.4z"/>
<path d="M527.1,51C527.1,50.9,527.1,50.9,527.1,51L527.1,51C527.1,51,527.1,51,527.1,51z"/>
<path d="M622,287.8c2.1,0,4.1,0,6.1,0c-0.1-3.1-0.2-6.2-0.2-9.3c-1.9,0-3.9,0-5.8,0C622,281.7,622,284.8,622,287.8z"/>
<path d="M621.9,231.1C621.9,231.1,621.9,231.1,621.9,231.1C621.9,231,621.9,231,621.9,231.1L621.9,231.1z"/>
<path d="M612.4,221.6C612.4,221.6,612.4,221.6,612.4,221.6C612.4,221.6,612.4,221.6,612.4,221.6L612.4,221.6z"/>
<path d="M612.4,212.1c0,3.1,0,6.3,0.1,9.4c3.1,0,6.2,0,9.5,0c0,3.2,0,6.4,0,9.5c2,0,3.9,0,5.9,0c0.1-6.5,0.3-12.9,0.4-19
	C623,212.1,617.7,212.1,612.4,212.1C612.4,212.1,612.4,212.1,612.4,212.1C612.4,212.1,612.4,212.1,612.4,212.1z"/>
<path d="M565,164.7c0,3.1,0,6.3,0,9.4c0,0,0,0,0,0c0,0,0,0,0,0c6.3,0,12.5,0,19,0c0,3.2,0,6.3,0,9.5c6.4,0,12.6,0,18.9,0
	c0,0,0,0,0,0c0,0,0,0,0,0c0-3.1,0-6.2,0-9.5c-3.3,0-6.4,0-9.4,0c0-3.2,0-6.2,0-9.4c3.2,0,6.2,0,9.3,0c0-3.3,0-6.3,0-9.3
	c-6.3,0-12.5,0-18.9,0c0,3.2,0,6.2,0,9.4C577.5,164.7,571.3,164.7,565,164.7C565,164.7,565,164.7,565,164.7
	C565,164.7,565,164.7,565,164.7z"/>
<path d="M621.9,231.1C621.9,231.1,621.9,231.1,621.9,231.1L621.9,231.1C621.9,231.1,621.9,231.1,621.9,231.1z"/>
<path d="M612.4,221.6C612.4,221.6,612.4,221.6,612.4,221.6L612.4,221.6C612.4,221.6,612.4,221.6,612.4,221.6z"/>
<path d="M612.4,221.6c-3.1,0-6.3,0-9.4,0c0,0,0,0,0,0c0,0,0,0,0,0c0,6.3,0,12.6,0,18.9c0,0,0,0,0,0c0,0,0,0,0,0c6.3,0,12.6,0,18.9,0
	c0-3.3,0-6.4,0-9.5c-3.1,0-6.2,0-9.5,0C612.4,227.9,612.4,224.7,612.4,221.6z"/>
<path d="M565,155.2c-3.1,0-6.2,0-9.5,0c0,3.3,0,6.4,0,9.5c0,0,0,0,0,0c0,0,0,0,0,0c3.1,0,6.3,0,9.4,0c0,0,0,0,0,0c0,0,0,0,0,0
	C565,161.5,565,158.4,565,155.2C565,155.2,565,155.2,565,155.2C565,155.2,565,155.2,565,155.2z"/>
<path d="M555.5,126.8c0-3.3,0-6.4,0-9.5c0,0,0,0,0,0c0,0,0,0,0,0c-3.1,0-6.2,0-9.5,0c0,3.3,0,6.4,0,9.5c0,0,0,0,0,0c0,0,0,0,0,0
	C549.2,126.8,552.3,126.8,555.5,126.8z"/>
<path d="M517.7,306.9c0,9.6,0,19,0,28.5c3.2,0,6.3,0,9.3,0c0,0,0,0,0,0c0,0,0,0,0,0c0-9.5,0-18.9,0-28.4c0,0,0,0,0,0c0,0,0,0,0,0
	C523.9,306.9,520.8,306.9,517.7,306.9z"/>
<path d="M489.1,306.8c6.5,0,12.7,0,18.9,0c0-3.2,0-6.2,0-9.4c-3.2,0-6.2,0-9.4,0c0-3.3,0-6.3,0-9.4c0,0,0,0,0,0c0,0,0,0,0,0
	c-3.1,0-6.3,0-9.4,0c0,0,0,0,0,0c0,0,0,0,0,0C489.1,294.3,489.1,300.5,489.1,306.8z"/>
<path d="M546,316.4c3.3,0,6.4,0,9.5,0c0,0,0,0,0,0c0,0,0,0,0,0c0-3.1,0-6.2,0-9.4c3.3,0,6.4,0,9.4,0c0,0,0,0,0,0c0,0,0,0,0,0
	c0-3.1,0-6.3,0-9.4c0,0,0,0,0,0c0,0,0,0,0,0c-6.3,0-12.6,0-18.9,0c0,0,0,0,0,0c0,0,0,0,0,0C546,303.7,546,310,546,316.4z"/>
<path d="M574.5,278.6c-3.3,0-6.4,0-9.5,0c0,6.4,0,12.6,0,18.8c0,0,0,0,0,0c0,0,0,0,0,0c3.1,0,6.3,0,9.4,0c0,0,0,0,0,0c0,0,0,0,0,0
	C574.5,291.1,574.5,284.9,574.5,278.6z"/>
<path d="M574.5,212.1c-6.5,0-12.7,0-18.9,0c0-6.4,0-12.6,0-18.9c6.4,0,12.6,0,18.8,0c0,0,0,0,0,0c0,0,0,0,0,0c0-3.1,0-6.2,0-9.5
	c-3.3,0-6.4,0-9.5,0c0-3.3,0-6.3,0-9.4c0,0,0,0,0,0c0,0,0,0,0,0c-3.1,0-6.3,0-9.4,0c0,0,0,0,0,0c0,0,0,0,0,0c0,3.1,0,6.2,0,9.5
	c-3.3,0-6.3,0-9.5,0c0,6.4,0,12.6,0,18.8c-6.3,0-12.6,0-18.9,0c0-3.2,0-6.3,0-9.3c0,0,0,0,0,0c0,0,0,0,0,0c-3.1,0-6.3,0-9.4,0
	c0,0,0,0,0,0c0,0,0,0,0,0c0,3.1,0,6.2,0,9.5c-3.2,0-6.3,0-9.5,0c0,3.2,0,6.3,0,9.4c0,0,0,0,0,0c0,0,0,0,0,0c6.3,0,12.5,0,19,0
	c0,3.2,0,6.3,0,9.5c3.3,0,6.3,0,9.4,0c0,3.1,0,6.2,0,9.5c3.3,0,6.4,0,9.4,0c0,3.2,0,6.2,0,9.4c-3.2,0-6.2,0-9.4,0c0,3.3,0,6.3,0,9.4
	c0,0,0,0,0,0c0,0,0,0,0,0c6.3,0,12.6,0,18.9,0c0,0,0,0,0,0c0,0,0,0,0,0c0-6.3,0-12.6,0-18.9c3.3,0,6.4,0,9.4,0c0,0,0,0,0,0
	c0,0,0,0,0,0c0-3.1,0-6.2,0-9.4c3.3,0,6.4,0,9.4,0c0,0,0,0,0,0c0,0,0,0,0,0C574.5,218.5,574.5,215.3,574.5,212.1z M545.9,221.6
	c-3.1,0-6.2,0-9.3,0c0-3.1,0-6.1,0-9.3c3.1,0,6.2,0,9.3,0C545.9,215.3,545.9,218.3,545.9,221.6z"/>
<path d="M508.1,240.5C508.1,240.5,508.1,240.6,508.1,240.5C508.1,240.6,508.1,240.6,508.1,240.5
	C508.1,240.5,508.1,240.5,508.1,240.5z"/>
<path d="M527,240.5c0-3.2,0-6.3,0-9.3c-6.3,0-12.5,0-18.8,0c0,3.2,0,6.3,0,9.3C514.4,240.5,520.7,240.5,527,240.5z"/>
<path d="M508.1,212.1C508.1,212.1,508.1,212.1,508.1,212.1C508.1,212.1,508.1,212.1,508.1,212.1c-3.2,0-6.3,0-9.5,0
	c0,3.3,0,6.4,0,9.5c0,0,0,0,0,0c0,0,0,0,0,0c3.1,0,6.2,0,9.5,0C508.1,218.3,508.1,215.2,508.1,212.1z"/>
<path d="M574.5,193.1C574.5,193.1,574.5,193.1,574.5,193.1C574.5,193.1,574.5,193.2,574.5,193.1c0,3.2,0,6.3,0,9.5
	c6.5,0,12.7,0,19,0c0,0,0,0,0,0c0,0,0,0,0,0c0-3.1,0-6.2,0-9.5C587,193.1,580.7,193.1,574.5,193.1z"/>
<path d="M574.5,335.3C574.5,335.4,574.5,335.4,574.5,335.3C574.5,335.4,574.5,335.4,574.5,335.3c3.2,0,6.3,0,9.5,0
	c0-3.3,0-6.4,0-9.5c0,0,0,0,0,0c0,0,0,0,0,0c-3.1,0-6.2,0-9.5,0C574.5,329.2,574.5,332.3,574.5,335.3z"/>
<path d="M470.2,231c-1.1,0-2.2,0-3.3,0c0.1,3.1,0.1,6.2,0.1,9.4c1.1,0,2.1,0,3.2,0C470.2,237.2,470.2,234.2,470.2,231
	C470.2,231.1,470.2,231.1,470.2,231C470.2,231,470.2,231,470.2,231z"/>
<path d="M489.2,354.3c0-3.1,0-6.3,0-9.4c0,0,0,0,0,0c0,0,0,0,0,0c-3.1,0-6.2,0-9.5,0c0,3,0,5.7,0,8.5c1,0.3,2,0.7,3,1.1
	C484.8,354.3,487,354.3,489.2,354.3C489.2,354.3,489.2,354.3,489.2,354.3C489.2,354.3,489.2,354.3,489.2,354.3z"/>
<path d="M470.2,193.1c-1.5,0-3,0-4.4,0c0.1,3,0.3,6.2,0.4,9.4c1.4,0,2.7,0,4.1,0C470.2,199.3,470.2,196.2,470.2,193.1
	C470.2,193.2,470.2,193.1,470.2,193.1C470.2,193.1,470.2,193.1,470.2,193.1z"/>
<path d="M470.2,183.7C470.2,183.7,470.2,183.6,470.2,183.7C470.2,183.6,470.2,183.6,470.2,183.7
	C470.2,183.7,470.2,183.7,470.2,183.7z"/>
<path d="M464.7,174.3c0.2,2.9,0.4,6,0.6,9.3c1.6,0,3.3,0,4.9,0c0-3.1,0-6.2,0-9.3C468.3,174.3,466.5,174.3,464.7,174.3z"/>
<path d="M470.2,145.8c3.1,0,6.2,0,9.5,0c0-3.3,0-6.4,0-9.5c0,0,0,0,0,0c0,0,0,0,0,0c-3.1,0-6.3,0-9.4,0c0,0,0,0,0,0c0,0,0,0,0,0
	C470.2,139.4,470.2,142.6,470.2,145.8C470.2,145.7,470.2,145.7,470.2,145.8C470.2,145.8,470.2,145.8,470.2,145.8z"/>
<path d="M527.1,193.1C527.1,193.1,527.1,193.2,527.1,193.1C527.1,193.2,527.1,193.2,527.1,193.1c3.2,0,6.3,0,9.5,0
	c0-6.5,0-12.7,0-19c0,0,0,0,0,0c0,0,0,0,0,0c-3.1,0-6.3,0-9.4,0c0,0,0,0,0,0c0,0,0,0,0,0C527.1,180.5,527.1,186.8,527.1,193.1z"/>
<path d="M601.6,56.2c-0.6,0-1.2,0-1.9,0c0.6,0.5,1.3,1.1,1.9,1.6C601.6,57.3,601.6,56.7,601.6,56.2z"/>
<path d="M639.5,94c3.3,0,6.4,0,9.5,0c0-3.2,0-6.2,0-9.4c3.2,0,6.2,0,9.5,0c0-3.2,0-6.3,0-9.5c8.2,0,16.3,0,24.4,0l-34.1-10
	c0,3.3,0,6.6,0,10c-6.2,0-12.4,0-18.8,0c0-5.1,0-10.3,0-15.5l-19-5.6c0,3.9,0,7.9,0,11.8c-0.7,0-1.4,0-2.1,0
	c0.7,0.9,1.4,1.8,2.2,2.8c0-0.9,0-1.8,0-2.7c3.1,0,6.1,0,9.3,0c0,3.1,0,6.2,0,9.4c-1.6,0-3.2,0-4.8,0c2,3.1,3.9,6.4,5.6,9.7
	c2.9,0,5.7,0,8.6,0c0,6,0,12.1,0,18.4c0.1,0.2,0.1,0.3,0.2,0.5c3.2,0,6.3,0,9.3,0C639.5,100.4,639.5,97.3,639.5,94z"/>
<path d="M639.5,103.5C639.5,103.5,639.5,103.5,639.5,103.5C639.5,103.5,639.5,103.6,639.5,103.5L639.5,103.5z"/>
<path d="M648.9,113c0,3.2,0,6.2,0,9.4c6.3,0,12.6,0,19,0c0,3.7,0,7.4,0,11.1l19.1,3.8c0-1.7,0-3.5,0-5.3c-3.2,0-6.3,0-9.4,0
	c0-3.2,0-6.2,0-9.4c3,0,6.1,0,9.3,0c0-3.2,0-6.3,0-9.6c5.8,0,11.5,0,17.2,0l1.8-8.1c0-3.6,0-7.2,0-10.7c-3.3,0-6.3,0-9.5,0
	c0,3.2,0,6.2,0,9.2c-6.3,0-12.6,0-18.9,0c0-3.2,0-6.3,0-9.3c-6.3,0-12.5,0-19,0c0,3.3,0,6.3,0,9.4c-6.3,0-12.6,0-18.9,0.1
	c0,3.1,0,6.2,0,9.4C642.7,113,645.7,113,648.9,113z M667.8,112.9c-3,0-6.1,0-9.3,0c0-3.1,0-6.2,0-9.4c3.1,0,6.1,0,9.3,0
	C667.8,106.7,667.8,109.7,667.8,112.9z"/>
<path d="M639.5,103.6C639.5,103.6,639.5,103.5,639.5,103.6L639.5,103.6C639.5,103.6,639.5,103.6,639.5,103.6z"/>
<path d="M677.4,94C677.4,94.1,677.4,94.1,677.4,94C677.4,94.1,677.4,94.1,677.4,94L677.4,94z"/>
<path d="M686.8,84.7c-3.2,0-6.2,0-9.3,0c0,3.2,0,6.3,0,9.3c3.1,0,6.2,0,9.3,0C686.8,90.8,686.8,87.7,686.8,84.7z"/>
<path d="M677.4,94C677.4,94,677.4,94.1,677.4,94C677.4,94.1,677.4,94.1,677.4,94C677.4,94,677.4,94,677.4,94z"/>
<path d="M702,122.5c-1.8,0-3.7,0-5.6,0c0,5.7,0,11.2,0,16.7l1.9,0.4L702,122.5z"/>
<path d="M465.9,75.8c-12.6,0-25.2,0-37.8,0c0,0,0,0,0,0c0,0,0,0,0,0c0,6.2,0,12.5,0,18.9c-3.2,0-6.3,0-9.4,0c0,0,0,0,0,0
	c0,0,0,0,0,0c0,3.1,0,6.1,0,9.4c-3.1,0-6.2,0-9.4,0c0,3.2,0,6.3,0,9.5c-3.3,0-6.4,0-9.5,0c0,0,0,0,0,0c0,0,0,0,0,0
	c0,3.1,0,6.3,0,9.4c-2.3,0-4.5,0-6.8,0l3.6,16.4l31.7-6.4c0-0.2,0-0.3,0-0.5c0,0,0,0,0,0c0,0,0,0,0,0c-3.1,0-6.1,0-9.3,0
	c0-6.3,0-12.5,0-18.9c3.1,0,6.2,0,9.3,0c0,0,0,0,0,0c0,0,0,0,0,0c0-3.1,0-6.2,0-9.4c3.2,0,6.3,0,9.4,0c0,0,0,0,0,0c0,0,0,0,0,0
	c0-3.1,0-6.2,0-9.4c3.1,0,6.2,0,9.4,0c0-3.2,0-6.2,0-9.4c3.2,0,6.3,0,9.5,0c0,6.3,0,12.5,0,18.8c0,0,0,0,0,0c0,0,0,0,0,0
	c2.5,0,4.9,0,7.5,0c0.6-1.5,1.2-2.9,1.9-4.4C465.9,91.8,465.9,83.9,465.9,75.8z M399.7,123.2c3.1,0,6.1,0,9.3,0c0,3.1,0,6.2,0,9.4
	c-3,0-6.1,0-9.3,0C399.7,129.5,399.7,126.4,399.7,123.2z"/>
<path d="M509,47.6c-2.2,0.1-4,0.2-5.6,0.4l-28,8.3c0,0.2,0,0.3,0,0.5c-0.5,0-1.1,0-1.6,0l-17.3,5.1c0,1.5,0,2.9,0,4.4
	c6.3,0,12.6,0,19,0c0,4.8,0,9.6,0,14.4c7.2-12.6,16.3-24.2,26.9-29.3C505.1,49.9,507.3,48.7,509,47.6z"/>
<path d="M447.1,123.2C447.1,123.2,447.1,123.2,447.1,123.2C447,123.2,447,123.2,447.1,123.2L447.1,123.2z"/>
<path d="M437.6,113.8C437.6,113.7,437.6,113.7,437.6,113.8C437.6,113.7,437.6,113.7,437.6,113.8L437.6,113.8z"/>
<path d="M456.5,104.2c-6.3,0-12.6,0-18.9,0c0,0,0,0,0,0c0,0,0,0,0,0c0,3.1,0,6.3,0.1,9.4c3.1,0,6.2,0,9.5,0c0,3.2,0,6.4,0,9.5
	c3.3,0,6.7,0,10,0c0.8-2.5,1.9-5.7,3.3-9.4c-1.3,0-2.5,0-3.8,0C456.5,110.4,456.5,107.4,456.5,104.2
	C456.5,104.3,456.5,104.3,456.5,104.2C456.5,104.2,456.5,104.2,456.5,104.2z"/>
<path d="M428.1,75.8c0-1.8,0-3.7,0-5.6l-18.9,5.6c0,0,0,0,0,0.1C415.6,75.8,421.8,75.8,428.1,75.8C428.1,75.8,428.1,75.8,428.1,75.8
	C428.1,75.8,428.1,75.8,428.1,75.8z"/>
<path d="M447,123.2C447,123.2,447,123.2,447,123.2L447,123.2C447,123.2,447,123.2,447,123.2z"/>
<path d="M437.5,113.8c-3.1,0-6.3,0-9.4,0c0,0,0,0,0,0c0,0,0,0,0,0c0,6.3,0,12.6,0,18.9c0,0,0,0,0,0c0,0,0,0,0,0c0.8,0,1.5,0,2.3,0
	l16.6-3.4c0-2.1,0-4.1,0-6.1c-3.1,0-6.2,0-9.5,0C437.5,120,437.5,116.9,437.5,113.8z"/>
<path d="M437.5,113.8C437.6,113.8,437.6,113.8,437.5,113.8L437.5,113.8C437.5,113.7,437.5,113.7,437.5,113.8z"/>
<path d="M399.7,85.3c0-2.2,0-4.4,0-6.7L384,83.2l0.5,2.1C389.6,85.3,394.6,85.3,399.7,85.3C399.6,85.3,399.6,85.3,399.7,85.3
	C399.6,85.3,399.7,85.3,399.7,85.3z"/>
<path d="M399.7,113.7c0-3.1,0-6.2,0-9.5c-3.8,0-7.4,0-11,0l2.1,9.6C393.8,113.8,396.7,113.8,399.7,113.7
	C399.6,113.8,399.7,113.8,399.7,113.7C399.7,113.7,399.7,113.7,399.7,113.7z"/>
<path d="M418.6,94.8c0-3.1,0-6.2,0-9.5c-6.5,0-12.7,0-19,0c0,0,0,0,0,0c0,0,0,0,0,0c0,3.1,0,6.2,0,9.5
	C406.1,94.8,412.3,94.8,418.6,94.8C418.6,94.8,418.6,94.8,418.6,94.8C418.6,94.8,418.6,94.8,418.6,94.8z"/>
<path d="M333.3,132.7C333.3,132.7,333.3,132.7,333.3,132.7C333.3,132.7,333.3,132.7,333.3,132.7L333.3,132.7z"/>
<path d="M304.8,104.3C304.8,104.3,304.9,104.3,304.8,104.3L304.8,104.3C304.8,104.3,304.8,104.3,304.8,104.3z"/>
<path d="M295.4,123.2c6.2,0,12.5,0,18.8,0c0,2.8,0,5.5,0,8.4l19.1,3.9c0-0.9,0-1.8,0-2.8c-3.1,0-6.2,0-9.4,0c0-6.4,0-12.7,0-19
	c0,0,0,0,0,0c0,0,0,0,0,0c-6.2,0-12.5,0-19,0c0-3.2,0-6.3,0-9.4c-6.3,0-12.6,0-18.9,0c0,0,0,0,0,0c0,0,0,0,0,0c0,1.4,0,2.9,0,4.3
	c0.9,1.8,1.7,3.6,2.4,5.2c2.3,0,4.6,0,7,0C295.3,117,295.3,120.1,295.4,123.2C295.4,123.2,295.4,123.2,295.4,123.2
	C295.4,123.2,295.4,123.2,295.4,123.2z"/>
<path d="M295.4,75.8L295.4,75.8C295.4,75.8,295.4,75.8,295.4,75.8C295.4,75.8,295.4,75.8,295.4,75.8L295.4,75.8z"/>
<path d="M295.4,85.3c3.1,0,6.2,0,9.5,0c0,6.4,0,12.6,0,18.9c3.1,0,6.2,0,9.4,0c0-12.1,0-24.2,0-36.3l-9.5-2.8c0,3.6,0,7.1,0,10.7
	c-3.1,0-6.2,0-9.3,0C295.4,79,295.4,82.1,295.4,85.3C295.4,85.3,295.4,85.3,295.4,85.3C295.4,85.3,295.4,85.3,295.4,85.3z"/>
<path d="M304.9,104.3C304.9,104.3,304.9,104.3,304.9,104.3C304.9,104.2,304.8,104.2,304.9,104.3L304.9,104.3z"/>
<path d="M342.8,85.3c0-2.9,0-5.9,0-8.9l-1.6-0.5c-2.6,0-5.2,0-7.8,0c0-0.8,0-1.5,0-2.3l-9.7-2.9c0,4.8,0,9.6,0,14.6
	C330.2,85.3,336.5,85.3,342.8,85.3C342.7,85.3,342.7,85.3,342.8,85.3C342.8,85.3,342.8,85.3,342.8,85.3z"/>
<path d="M333.3,104.3c6.3,0,12.5,0,19,0c0,3.2,0,6.3,0,9.5c2.4,0,4.7,0,7,0l4.2-19.1c-3.7,0-7.5,0-11.2,0c0-3.2,0-6.3,0-9.3
	c0,0,0,0,0,0c0,0,0,0,0,0c-3.1,0-6.3,0-9.4,0c0,0,0,0,0,0c0,0,0,0,0,0c0,3.1,0,6.2,0,9.5c-3.2,0-6.3,0-9.5,0
	C333.3,98.1,333.3,101.2,333.3,104.3C333.3,104.2,333.3,104.2,333.3,104.3C333.3,104.3,333.3,104.3,333.3,104.3z"/>
<path d="M352.1,132.7c0-3.2,0-6.3,0-9.3c-6.3,0-12.5,0-18.8,0c0,3.2,0,6.3,0,9.3C339.6,132.7,345.8,132.7,352.1,132.7z"/>
<path d="M333.3,132.7C333.3,132.7,333.3,132.7,333.3,132.7C333.3,132.7,333.3,132.7,333.3,132.7
	C333.3,132.7,333.3,132.7,333.3,132.7z"/>
<path d="M323.8,113.8c3.1,0,6.2,0,9.5,0c0-3.3,0-6.4,0-9.5c0,0,0,0,0,0c0,0,0,0,0,0c-3.1,0-6.2,0-9.5,0
	C323.8,107.6,323.8,110.6,323.8,113.8C323.8,113.7,323.8,113.7,323.8,113.8C323.8,113.8,323.8,113.8,323.8,113.8z"/>
<path d="M295.4,123.2C295.4,123.2,295.4,123.2,295.4,123.2C295.4,123.2,295.4,123.2,295.4,123.2c-1.1,0-2.1,0-3.1,0
	c0.8,2,1.4,3.5,1.7,4.4h0.1h0.1l1.2,0.2C295.4,126.3,295.4,124.8,295.4,123.2z"/>
<path d="M285.9,104.2c0-3.1,0-6.2,0-9.5c3.2,0,6.3,0,9.5,0c0-3.2,0-6.3,0-9.4c0,0,0,0,0,0c0,0,0,0,0,0c-6.3,0-12.6,0-19,0
	c0,2.1,0,4.1,0,6.2c2.7,4.3,5.2,8.7,7.3,12.8C284.4,104.3,285.1,104.3,285.9,104.2C285.9,104.3,285.9,104.3,285.9,104.2
	C285.9,104.3,285.9,104.2,285.9,104.2z"/>
<path d="M264.6,75.7c3.9,0,7.8,0,11.8,0c0-3.2,0-6.2,0-9.4c-3.2,0-6.2,0-9.4,0c0-3.3,0-6.3,0-9.4c0,0,0,0,0,0c0,0,0,0,0,0
	c-3.1,0-6.3,0-9.4,0c0,0,0,0,0,0c0,0,0,0,0,0c0,3.1,0,6.2,0,9.4c-1.1,0-2.2,0-3.3,0C257.8,69,261.3,72.2,264.6,75.7z"/>
<path d="M257.5,56.8c0-1.9,0-3.8,0-5.7l-7.3-2.1c0,1.7-0.2,4.6-1.3,7.9C251.9,56.9,254.6,56.9,257.5,56.8
	C257.4,56.9,257.5,56.9,257.5,56.8C257.5,56.9,257.5,56.8,257.5,56.8z"/>
<path d="M266.9,56.9c3.1,0,6.2,0,9.5,0c0,0,0-0.1,0-0.1l-9.5-2.8C266.9,54.9,266.9,55.9,266.9,56.9
	C266.9,56.8,266.9,56.9,266.9,56.9C266.9,56.9,266.9,56.9,266.9,56.9z"/>
<path d="M286,66.4c0,3.2,0,6.2,0,9.3c3.2,0,6.3,0,9.3,0c0-3.1,0-6.2,0-9.3C292.1,66.4,289,66.4,286,66.4z"/>
<path d="M295.3,75.8C295.3,75.8,295.3,75.8,295.3,75.8C295.3,75.8,295.4,75.8,295.3,75.8L295.3,75.8
	C295.4,75.8,295.4,75.8,295.3,75.8z"/>
<path d="M352.3,85.3c3.1,0,6.2,0,9.5,0c0-1.1,0-2.3,0-3.4l-9.5-2.8C352.2,81.2,352.2,83.2,352.3,85.3
	C352.2,85.3,352.2,85.3,352.3,85.3C352.2,85.3,352.3,85.3,352.3,85.3z"/>
<path d="M287.4,336.9c-1.2-8.9-2.1-19.1-2.8-30.1c-1.4,0-2.7,0-4.1,0c0-6.2,0-12.4,0-18.8c1.1,0,2.1,0,3.2,0
	c-0.1-3.2-0.2-6.4-0.3-9.6c-1,0-1.9,0-2.9,0c0-3,0-6.1,0-9.3c0.9,0,1.8,0,2.7,0c-0.1-3.2-0.1-6.3-0.1-9.5c-0.9,0-1.7,0-2.6,0
	c0-3.1,0-6.2,0-9.3c0.8,0,1.7,0,2.5,0c0-3.2,0-6.4,0-9.6c-10.4,0-20.8,0-31.1,0c0,0,0,0,0,0c0,0,0,0,0,0c0,3.1,0,6.2,0,9.4
	c6.4,0,12.6,0,18.9,0c0,3.2,0,6.2,0,9.4c-3,0-6.1,0-9.3,0c0,3.2,0,6.3,0,9.6c3.1,0,6.1,0,9.3,0c0,6.4,0,12.5,0,18.9
	c-6.2,0-12.4,0-18.9,0c0,3.3,0,6.4,0,9.5c3.1,0,6.2,0,9.5,0c0,3.3,0,6.4,0,9.5c3.2,0,6.2,0,9.4,0c0,3.2,0,6.2,0,9.5
	c3.2,0,6.3,0,9.5,0c0,7,0,14,0,21C283,337.3,285.4,337.1,287.4,336.9z"/>
<path d="M251.9,297.5C251.9,297.4,251.9,297.4,251.9,297.5C251.9,297.4,251.9,297.4,251.9,297.5L251.9,297.5z"/>
<path d="M147.5,193.2C147.6,193.2,147.6,193.2,147.5,193.2C147.6,193.2,147.6,193.2,147.5,193.2L147.5,193.2z"/>
<path d="M223.4,278.5c-6.2,0-12.5,0-18.9,0c0-3.2,0-6.3,0-9.4c0,0,0,0,0,0c0,0,0,0,0,0c-3.1,0-6.1,0-9.4,0c0-3.1,0-6.2,0-9.4
	c-3.2,0-6.3,0-9.5,0c0-3.3,0-6.4,0-9.5c0,0,0,0,0,0c0,0,0,0,0,0c-3.1,0-6.3,0-9.4,0c0-3.1,0-6.3,0-9.4c0,0,0,0,0,0c0,0,0,0,0,0
	c-6.2,0-12.5,0-18.9,0c0-3.2,0-6.3,0-9.4c0,0,0,0,0,0c0,0,0,0,0,0c-3.1,0-6.2,0-9.3,0c0-6.3,0-12.5,0-18.9c3.1,0,6.2,0,9.3,0
	c0,0,0,0,0,0c0,0,0,0,0,0c0-6.2,0-12.5,0-18.9c-3.2,0-6.4,0-9.5,0c0,3.1,0,6.2,0,9.3c-8.8,0-17.5,0-26.3,0c0.1,3.2,0.2,6.4,0.3,9.7
	c5.5,0,11,0,16.5,0c0,15.8,0,31.5,0,47.3c-3.1,0-6.1,0-9.4,0c0,3.2,0,6.2,0,9.4c-2.2,0-4.5,0-6.7,0c-0.1,6.5-0.3,12.9-0.5,19.1
	c8.8,0,17.4,0,26.1,0c0,3.2,0,6.3,0,9.4c3.1,0,6.1,0,9.4,0c0-6.3,0-12.5,0-18.9c3.3,0,6.4,0,9.5,0c0,0,0,0,0,0c0,0,0,0,0,0
	c0-3.1,0-6.1,0-9.3c6.3,0,12.5,0,18.9,0c0,3.1,0,6.2,0,9.3c0,0,0,0,0,0c0,0,0,0,0,0c3.1,0,6.2,0,9.4,0c0,3.2,0,6.3,0,9.4
	c0,0,0,0,0,0c0,0,0,0,0,0c3.1,0,6.2,0,9.4,0c0,3.1,0,6.2,0,9.4c3.2,0,6.2,0,9.4,0c0,3.2,0,6.3,0,9.5c-6.3,0-12.5,0-18.8,0
	c0,0,0,0,0,0c0,0,0,0,0,0c0,3.1,0,6.2,0,9.3c9.5,0,18.9,0,28.5,0C223.4,303.7,223.4,291.1,223.4,278.5
	C223.4,278.5,223.4,278.5,223.4,278.5C223.4,278.5,223.4,278.5,223.4,278.5z M156.9,268.9c-6.2,0-12.4,0-18.8,0c0-3.1,0-6.2,0-9.3
	c6.2,0,12.5,0,18.8,0C156.9,262.7,156.9,265.7,156.9,268.9z M166.6,250.1c3.1,0,6.2,0,9.4,0c0,3.1,0,6.1,0,9.3c-3.1,0-6.2,0-9.4,0
	C166.6,256.4,166.6,253.3,166.6,250.1z"/>
<path d="M147.6,297.5C147.6,297.4,147.6,297.4,147.6,297.5C147.6,297.4,147.6,297.4,147.6,297.5L147.6,297.5z"/>
<path d="M147.5,183.7c6.4,0,12.7,0,19,0c0-3.1,0-6.2,0-9.4c6.4,0,12.7,0,19,0c0,0,0,0,0,0c0,0,0,0,0,0c0-6.2,0-12.5,0-19
	c3.2,0,6.3,0,9.4,0c0-6.3,0-12.6,0-18.9c0,0,0,0,0,0c0,0,0,0,0,0c-3.1,0-6.3,0-9.4,0c0,0,0,0,0,0c0,0,0,0,0,0c0,3.1,0,6.2,0,9.4
	c-3.2,0-6.3,0-9.4,0c0,0,0,0,0,0c0,0,0,0,0,0c0,6.2,0,12.5,0,18.8c-3.1,0-6.2,0-9.4,0c0-3,0-6.1,0-9.4c-3.3,0-6.4,0-9.5,0
	c0-3.1,0-6.1,0-9.4c-9.5,0-18.9,0-28.4,0c0-3.3,0-6.4,0-9.5c0,0,0,0,0,0c0,0,0,0,0,0c-3.1,0-6.1,0-9.3,0c0-3.1,0-6.2,0-9.4
	c3.1,0,6.2,0,9.3,0c0,0,0,0,0,0c0,0,0,0,0,0c0-3.1,0-6.3,0-9.4c0,0,0,0,0,0c0,0,0,0,0,0c-3.1,0-6.2,0-9.4,0c0-2.2,0-4.3,0-6.5
	c-4.2,8.8-6.7,15.6-7.3,17.4c1.3,1.6,4,7.4,6.2,27.2c0.3,0,0.6,0,1,0c0,3.1,0,6.2,0,9.4c0,0,0,0,0,0c0,0,0,0,0,0c3.1,0,6.2,0,9.4,0
	c0-3.2,0-6.3,0-9.4c3.2,0,6.2,0,9.4,0c0,6.2,0,12.4,0,18.8c-6,0-12.1,0-18.2,0c0.4,5.8,0.7,12.1,1.1,19c8.9,0,17.8,0,26.7,0
	C147.5,190.1,147.5,187,147.5,183.7z M147.7,155.3c3.1,0,6.2,0,9.4,0c0,6.2,0,12.5,0,18.8c-3.1,0-6.2,0-9.4,0
	C147.7,167.9,147.7,161.7,147.7,155.3z"/>
<path d="M147.5,193.1C147.5,193.2,147.5,193.2,147.5,193.1L147.5,193.1C147.6,193.1,147.6,193.1,147.5,193.1z"/>
<path d="M195,155.2C195,155.2,195,155.2,195,155.2C195,155.2,195,155.3,195,155.2L195,155.2z"/>
<path d="M166.6,183.7C166.5,183.7,166.5,183.7,166.6,183.7C166.5,183.7,166.5,183.7,166.6,183.7L166.6,183.7z"/>
<path d="M251.8,297.5C251.9,297.5,251.9,297.5,251.8,297.5L251.8,297.5C251.8,297.4,251.8,297.4,251.8,297.5z"/>
<path d="M242.4,306.9c-3.2,0-6.2,0-9.4,0c0,6.3,0,12.6,0,19c-6.4,0-12.6,0-19,0c0,3.2,0,6.3,0,9.5c-3.2,0-6.2,0-9.4,0
	c0,1.7,0,3.4,0,5.1h1c2.2,0,3.8,0,4.8,0c4.5,0,8.8-0.1,13.1-0.1c0-1.6,0-3.2,0-4.8c3.2,0,6.2,0,9.4,0c0,1.5,0,3,0,4.6
	c6.8-0.2,13.2-0.5,19.2-0.7c0-1.3,0-2.6,0-4c3.2,0,6.3,0,9.3,0c0-6.3,0-12.5,0-19c-3.3,0-6.3,0-9.4,0c0-6.3,0-12.6-0.1-18.9
	c-3.1,0-6.2,0-9.4,0C242.4,300.6,242.4,303.7,242.4,306.9z M242.5,325.8c0-3,0-6.1,0-9.3c3.1,0,6.2,0,9.4,0c0,3.1,0,6.1,0,9.3
	C248.7,325.8,245.7,325.8,242.5,325.8z"/>
<path d="M128.6,306.9L128.6,306.9C128.6,306.9,128.6,306.9,128.6,306.9C128.6,306.9,128.6,306.9,128.6,306.9L128.6,306.9z"/>
<path d="M147.5,297.5C147.6,297.5,147.6,297.5,147.5,297.5L147.5,297.5C147.5,297.4,147.5,297.4,147.5,297.5z"/>
<path d="M261.4,335.3C261.3,335.3,261.3,335.3,261.4,335.3C261.3,335.3,261.3,335.4,261.4,335.3L261.4,335.3z"/>
<path d="M138,297.5c0,3.2,0,6.3,0,9.5c-3.2,0-6.3,0-9.4,0c0,9.5,0,18.9,0,28.4c3.1,0,6.1,0,9.3,0c0,1,0,2,0,3c3,0.2,6.2,0.4,9.6,0.6
	c0-13.8,0-27.6,0-41.4C144.4,297.5,141.3,297.5,138,297.5z"/>
<path d="M128.6,335.4C128.6,335.4,128.6,335.4,128.6,335.4C128.6,335.3,128.6,335.3,128.6,335.4L128.6,335.4z"/>
<path d="M232.9,88.9c6.2,0,12.5,0,18.9,0c0,3.2,0,6.3,0,9.4c0,0,0,0,0,0c0,0,0,0,0,0c3.1,0,6.3,0,9.4,0c0-6.3,0-12.6,0-18.8
	c1.8,0,3.6,0,5.3,0c-2.9-3.5-6-6.7-9.3-9.5c-1.8,0-3.7,0-5.5,0c0,3.2,0,6.2,0,9.3c-3.2,0-6.3,0-9.4,0c0-4.1,0-8.1,0-12.2
	c-2.9,3-6.2,5.7-9.5,7.9C232.9,79.6,232.9,84.2,232.9,88.9C232.9,88.9,232.9,88.9,232.9,88.9C232.9,88.9,232.9,88.9,232.9,88.9z"/>
<path d="M157.1,79.4c3.1,0,6.2,0,9.4,0c0,3.2,0,6.3,0,9.4c0,0,0,0,0,0c0,0,0,0,0,0c3.1,0,6.1,0,9.4,0c0-4,0-7.9,0-11.8
	c-5.4-3.5-12.3-9.5-17-14.3c0,0,0,0,0-0.1c-0.3,0.1-0.6,0.3-0.9,0.4c-3.6,1.7-6.9,4.1-10.1,6.8c3,0,6.1,0,9.2,0
	C157,73.2,157,76.3,157.1,79.4C157,79.4,157.1,79.4,157.1,79.4C157.1,79.4,157.1,79.4,157.1,79.4z"/>
<path d="M261.4,98.3C261.4,98.3,261.3,98.3,261.4,98.3C261.3,98.4,261.3,98.4,261.4,98.3L261.4,98.3z"/>
<path d="M270.9,85.1c0,1.2,0,2.5,0,3.7c0.9,0,1.7,0,2.6,0C272.6,87.5,271.8,86.3,270.9,85.1z"/>
<path d="M223.4,145.8L223.4,145.8C223.4,145.8,223.4,145.8,223.4,145.8C223.4,145.8,223.4,145.8,223.4,145.8L223.4,145.8z"/>
<path d="M251.8,145.7C251.8,145.8,251.8,145.8,251.8,145.7C251.9,145.8,251.9,145.8,251.8,145.7L251.8,145.7z"/>
<path d="M195,155.3C195,155.3,195,155.3,195,155.3C195,155.3,195,155.2,195,155.3L195,155.3z"/>
<path d="M289.8,126.8C289.8,126.8,289.8,126.8,289.8,126.8L289.8,126.8C289.8,126.8,289.8,126.8,289.8,126.8z"/>
<path d="M242.4,202.6C242.4,202.6,242.4,202.6,242.4,202.6C242.4,202.6,242.4,202.7,242.4,202.6L242.4,202.6z"/>
<path d="M289.8,119.6c0,2.4,0,4.8,0,7.2c0.9,0,1.9,0,2.8,0C292.1,125.2,291.1,122.7,289.8,119.6z"/>
<path d="M270.8,155.3c0,6.2,0,12.5,0,18.8c-9.5,0-18.8,0-28.3,0c0-3,0-6.1,0-9.3c3,0,6.1,0,9.4,0c0-6.5,0-12.7,0-19
	c-3.1,0-6.1,0-9.4,0c0,3.1,0,6.2,0,9.4c-6.4,0-12.6,0-19.1,0c0-3.1,0-6.2,0-9.3c-3.1,0-6.3,0-9.4-0.1c0,0,0,0,0,0c0,0,0,0,0,0
	c0,3.1,0,6.2,0,9.5c-6.4,0-12.6,0-18.9,0c0,3.1,0,6.2,0,9.4c12.6,0,25.2,0,37.8,0c0,3.2,0,6.2,0,9.4c-6.2,0-12.4,0-18.9,0
	c0,6.5,0,12.7,0,19c0,0,0,0,0,0c0,0,0,0,0,0c3.1,0,6.1,0,9.4,0c0-3.2,0-6.2,0-9.4c3.2,0,6.3,0,9.5,0c0,6.3,0,12.6,0,18.8
	c0,0,0,0,0,0c0,0,0,0,0,0c3.1,0,6.3,0,9.4,0c0-6.2,0-12.5,0-18.9c14.1,0,28.2,0,42.4,0c0.3-4.9,0.6-9.6,0.9-13.8
	c0.4-5.7,0.9-10.5,1.4-14.8C281.6,155.2,276.2,155.2,270.8,155.3C270.8,155.2,270.8,155.3,270.8,155.3
	C270.8,155.3,270.8,155.3,270.8,155.3z"/>
<path d="M242.4,212.1c-3.2,0-6.4,0-9.5,0c0,0,0,0,0,0c0,0,0,0,0,0c0,6.3,0,12.6,0,18.9c0,0,0,0,0,0c0,0,0,0,0,0c3.1,0,6.3,0,9.4,0
	c0,0,0,0,0,0c0,0,0,0,0,0c0-3.1,0-6.2,0-9.4c3.1,0,6.2,0,9.4,0c0-3.2,0-6.3,0-9.4c3.2,0,6.2,0,9.4,0c0,3.1,0,6.1,0,9.4
	c6.5,0,12.7,0,19,0c0,0,0,0,0,0c0,0,0,0,0,0c0-3.1,0-6.1,0-9.4c1.1,0,2.1,0,3.2,0c0.1-3.3,0.2-6.5,0.3-9.7c-1.2,0-2.3,0-3.5,0
	c0-3.1,0-6.1,0-9.2c-3.2,0-6.2,0-9.5,0c0,3,0,6.1,0,9.4c-9.6,0-19,0-28.5,0C242.4,205.7,242.4,208.8,242.4,212.1z"/>
<path d="M242.4,202.7C242.4,202.7,242.4,202.6,242.4,202.7L242.4,202.7C242.4,202.7,242.4,202.7,242.4,202.7z"/>
<path d="M289.8,126.8C289.8,126.8,289.8,126.8,289.8,126.8C289.8,126.8,289.8,126.8,289.8,126.8L289.8,126.8z"/>
<path d="M261.4,126.8c-3.2,0-6.4,0-9.5,0c0,0,0,0,0,0c0,0,0,0,0,0c0,6.3,0,12.6,0,18.9c3.1,0,6.3,0,9.4,0c0,0,0,0,0,0c0,0,0,0,0,0
	c0-3.1,0-6.1,0-9.3c3.1,0,6.2,0,9.4,0c0,3.1,0,6.2,0,9.3c0,0,0,0,0,0c0,0,0,0,0,0c3.1,0,6.1,0,9.4,0c0-3.2,0-6.2,0-9.5
	c3.2,0,6.3,0,9.5,0c0-3.3,0-6.4,0-9.5c-6.3,0-12.5,0-19,0c0-9.6,0-19,0-28.4c-3.2,0-6.3,0-9.4,0
	C261.4,107.8,261.4,117.2,261.4,126.8z"/>
<path d="M251.9,145.8C251.9,145.8,251.9,145.8,251.9,145.8C251.9,145.7,251.9,145.7,251.9,145.8L251.9,145.8z"/>
<path d="M261.4,98.4C261.4,98.4,261.4,98.4,261.4,98.4L261.4,98.4C261.3,98.4,261.4,98.4,261.4,98.4z"/>
<path d="M119.1,335.4C119.1,335.4,119.1,335.4,119.1,335.4C119.1,335.4,119.1,335.4,119.1,335.4
	C119.2,335.4,119.2,335.4,119.1,335.4C119.2,335.3,119.1,335.4,119.1,335.4z"/>
<path d="M119.2,336.9c2.7,0.2,5.8,0.5,9.4,0.8c0-0.8,0-1.5,0-2.3c-3.1,0-6.3,0-9.4,0C119.2,335.9,119.2,336.4,119.2,336.9z"/>
<path d="M128.6,335.4C128.6,335.4,128.6,335.4,128.6,335.4L128.6,335.4C128.6,335.4,128.6,335.4,128.6,335.4z"/>
<path d="M280.4,107.8c1.3,0,2.7,0,4,0c-1.2-2.5-2.6-5-4-7.7C280.4,102.7,280.4,105.2,280.4,107.8z"/>
<path d="M128.6,306.9C128.6,306.9,128.6,306.9,128.6,306.9C128.6,306.9,128.6,306.9,128.6,306.9L128.6,306.9
	C128.6,306.9,128.6,306.9,128.6,306.9z"/>
<path d="M121,297.6c-0.2,3.2-0.3,6.3-0.5,9.3c2.7,0,5.4,0,8.1,0c0-3.1,0-6.2,0-9.3C126,297.6,123.5,297.6,121,297.6z"/>
<path d="M119.1,335.3C119.1,335.4,119.1,335.4,119.1,335.3C119.1,335.4,119.1,335.4,119.1,335.3
	C119.1,335.4,119.2,335.3,119.1,335.3C119.1,335.3,119.1,335.3,119.1,335.3z"/>
<path d="M119,325.8c-0.3,3.3-0.7,6.5-1.1,9.5c0.4,0,0.8,0,1.2,0c0-3.1,0-6.2,0-9.5C119.1,325.8,119,325.8,119,325.8z"/>
<path d="M261.4,335.3C261.4,335.3,261.3,335.4,261.4,335.3C261.3,335.4,261.3,335.4,261.4,335.3
	C261.4,335.4,261.4,335.3,261.4,335.3z"/>
<path d="M270.7,338.2c0-0.9,0-1.9,0-2.8c-3.2,0-6.3,0-9.3,0c0,1.1,0,2.3,0,3.4C264.7,338.6,267.8,338.4,270.7,338.2z"/>
<path d="M185.5,288C185.5,288,185.5,288,185.5,288C185.5,288,185.5,288,185.5,288L185.5,288z"/>
<path d="M185.5,325.9C185.5,325.9,185.5,325.9,185.5,325.9C185.5,325.9,185.5,325.9,185.5,325.9L185.5,325.9z"/>
<path d="M176,297.5C176,297.5,176,297.5,176,297.5C176,297.4,176,297.4,176,297.5L176,297.5z"/>
<path d="M195,306.9c0-6.3,0-12.6,0-18.9c0,0,0,0,0,0c0,0,0,0,0,0c-3.1,0-6.3,0-9.4,0.1c0,3.1,0,6.2,0,9.5c-3.2,0-6.4,0-9.5,0
	c0,6.3,0,12.5,0,18.8c-3.3,0-6.4,0-9.6,0c0-3.1,0-6.2,0-9.3c-3.2,0-6.2,0-9.3,0c0,10.8,0,21.6,0,32.4c3,0.1,6.1,0.3,9.3,0.4
	c0-4.6,0-9.2,0-13.9c6.5,0,12.7,0,19,0c0-6.3,0-12.6,0-18.9C188.8,306.9,191.9,306.9,195,306.9C195,306.9,195,306.9,195,306.9
	C195,306.9,195,306.9,195,306.9z"/>
<path d="M242.4,240.5c-3.1,0-6.3,0-9.4,0c0,0,0,0,0,0c0,0,0,0,0,0c0,6.3,0,12.5,0,19c-3.2,0-6.3,0-9.5,0c0,6.4,0,12.6,0,18.9
	c0,0,0,0,0,0c0,0,0,0,0,0c3.1,0,6.2,0,9.5,0c0-3.3,0-6.4,0-9.4c3.2,0,6.2,0,9.4,0c0,3.2,0,6.2,0,9.3c3.3,0,6.3,0,9.3,0
	c0-6.3,0-12.5,0-18.9c-3.2,0-6.2,0-9.4,0C242.4,253.1,242.4,246.8,242.4,240.5C242.4,240.6,242.4,240.6,242.4,240.5
	C242.4,240.6,242.4,240.6,242.4,240.5z"/>
<path d="M176,287.9c3.2,0,6.4,0,9.5,0c0-3.1,0-6.3,0-9.4c0,0,0,0,0,0c0,0,0,0,0,0c-6.3,0-12.6,0-18.9,0c0,0,0,0,0,0c0,0,0,0,0,0
	c0,6.3,0,12.6,0,18.9c3.3,0,6.4,0,9.5,0C176,294.3,176,291.3,176,287.9z"/>
<path d="M185.5,287.9C185.5,288,185.5,288,185.5,287.9L185.5,287.9C185.5,287.9,185.5,287.9,185.5,287.9z"/>
<path d="M176,297.4C176,297.4,176,297.4,176,297.4L176,297.4C176,297.4,176,297.4,176,297.4z"/>
<path d="M251.9,240.5c0-3.1,0-6.2,0-9.5c-3.3,0-6.4,0-9.5,0c0,0,0,0,0,0c0,0,0,0,0,0c0,3.1,0,6.3,0,9.4c0,0,0,0,0,0c0,0,0,0,0,0
	C245.5,240.6,248.7,240.6,251.9,240.5C251.9,240.6,251.9,240.6,251.9,240.5C251.9,240.6,251.9,240.6,251.9,240.5z"/>
<path d="M194.8,335.2c0-3.2,0-6.2,0-9.3c-3.2,0-6.3,0-9.3,0c0,3.1,0,6.2,0,9.3C188.8,335.2,191.8,335.2,194.8,335.2z"/>
<path d="M185.5,325.9C185.5,325.9,185.5,325.9,185.5,325.9C185.5,325.9,185.5,325.9,185.5,325.9
	C185.5,325.9,185.5,325.9,185.5,325.9z"/>
<path d="M280.3,221.6c0,3.1,0,6.2,0,9.5c1,0,1.9,0,2.8,0c0-3.2,0.1-6.4,0.2-9.5C282.3,221.6,281.3,221.6,280.3,221.6
	C280.3,221.6,280.3,221.6,280.3,221.6C280.3,221.6,280.3,221.6,280.3,221.6z"/>
<path d="M119.1,164.7C119.1,164.7,119.1,164.7,119.1,164.7c0,0.3,0,0.6,0,0.9C119.2,165.3,119.2,165,119.1,164.7
	C119.2,164.7,119.2,164.7,119.1,164.7C119.1,164.7,119.1,164.7,119.1,164.7z"/>
<path d="M122.1,240.5c0,3.2,0,6.3,0,9.5c2.1,0,4.2,0,6.4,0c0-3.3,0-6.4,0-9.5C126.3,240.5,124.2,240.5,122.1,240.5z"/>
<path d="M232.9,231.1C232.9,231.1,232.9,231.1,232.9,231.1C232.9,231.1,232.9,231.1,232.9,231.1c-3.2,0-6.3,0-9.6,0
	c0-3.3,0-6.3,0-9.5c-6.4,0-12.6,0-18.8,0c0-6.3,0-12.6,0-18.9c3.2,0,6.3,0,9.3,0c0,0,0,0,0,0c0,0,0,0,0,0c0-3.1,0-6.3,0-9.4
	c0,0,0,0,0,0c0,0,0,0,0,0c-3.1,0-6.2,0-9.5,0c0-3.2,0-6.3,0-9.5c-3.2,0-6.3,0-9.4,0c0,0,0,0,0,0c0,0,0,0,0,0c0,6.3,0,12.5,0,19
	c-3.2,0-6.3,0-9.5,0c0,3.3,0,6.3,0,9.4c-3.1,0-6.2,0-9.5,0c0,3.3,0,6.4,0,9.4c-3.2,0-6.2,0-9.4,0c0-3.2,0-6.2,0-9.4
	c-3.3,0-6.3,0-9.4,0c0,0,0,0,0,0c0,0,0,0,0,0c0,6.3,0,12.6,0,18.9c0,0,0,0,0,0c0,0,0,0,0,0c6.3,0,12.6,0,18.9,0c0,3.3,0,6.4,0,9.4
	c0,0,0,0,0,0c0,0,0,0,0,0c3.1,0,6.2,0,9.4,0c0,3.3,0,6.4,0,9.4c0,0,0,0,0,0c0,0,0,0,0,0c3.1,0,6.2,0,9.5,0c0-6.5,0-12.7,0-18.9
	c6.4,0,12.6,0,18.9,0c0,6.4,0,12.6,0,18.8c0,0,0,0,0,0c0,0,0,0,0,0c3.1,0,6.2,0,9.5,0c0-3.3,0-6.4,0-9.5c3.3,0,6.3,0,9.4,0
	c0,0,0,0,0,0c0,0,0,0,0,0C232.9,237.4,232.9,234.3,232.9,231.1z M194.9,221.5c-3,0-6.1,0-9.3,0c0-3.1,0-6.2,0-9.3c3.1,0,6.1,0,9.3,0
	C194.9,215.3,194.9,218.3,194.9,221.5z"/>
<path d="M166.6,183.7C166.6,183.7,166.5,183.7,166.6,183.7C166.5,183.7,166.5,183.7,166.6,183.7
	C166.6,183.7,166.6,183.7,166.6,183.7z"/>
<path d="M166.6,202.5c3.2,0,6.3,0,9.3,0c0-6.3,0-12.5,0-18.8c-3.2,0-6.3,0-9.3,0C166.6,190,166.6,196.2,166.6,202.5z"/>
<path d="M195,183.7c0-3.1,0-6.2,0-9.5c-3.3,0-6.4,0-9.5,0c0,0,0,0,0,0c0,0,0,0,0,0c0,3.1,0,6.2,0,9.5
	C188.8,183.7,191.9,183.7,195,183.7C195,183.7,195,183.7,195,183.7C195,183.7,195,183.7,195,183.7z"/>
<path d="M214,269c0-6.5,0-12.7,0-19c0,0,0,0,0,0c0,0,0,0,0,0c-3.1,0-6.2,0-9.5,0c0,6.5,0,12.7,0,19c0,0,0,0,0,0c0,0,0,0,0,0
	C207.6,269,210.7,269,214,269z"/>
<path d="M128.6,117.3c3.1,0,6.2,0,9.4,0c0,3.3,0,6.4,0,9.4c0,0,0,0,0,0c0,0,0,0,0,0c3.1,0,6.2,0,9.5,0c0-6.5,0-12.7,0-19
	c0,0,0,0,0,0c0,0,0,0,0,0c-3.1,0-6.2,0-9.5,0c0-3.2,0-6.3,0-9.3c-3.2,0-6.3,0-9.4,0C128.6,104.9,128.6,111.1,128.6,117.3
	C128.6,117.3,128.6,117.3,128.6,117.3C128.6,117.3,128.6,117.3,128.6,117.3z"/>
<path d="M157.1,88.9c0-3.1,0-6.3,0-9.4c0,0,0,0,0,0c0,0,0,0,0,0c-6.2,0-12.3,0-18.5,0c-0.1,0.1-0.2,0.3-0.3,0.4c0,3.1,0,6.1,0,9.1
	C144.6,88.9,150.8,88.9,157.1,88.9C157,88.9,157,88.9,157.1,88.9C157,88.9,157.1,88.9,157.1,88.9z"/>
<path d="M157,98.3C157,98.4,157,98.4,157,98.3C157,98.4,157.1,98.4,157,98.3C157.1,98.4,157,98.3,157,98.3z"/>
<path d="M157.1,107.8C157.1,107.8,157,107.8,157.1,107.8C157,107.8,157,107.9,157.1,107.8L157.1,107.8z"/>
<path d="M147.6,107.9c3.1,0,6.3,0,9.4-0.1c0-3.1,0-6.3,0-9.4c-3.1,0-6.2,0-9.5,0C147.5,101.7,147.5,104.7,147.6,107.9
	C147.5,107.8,147.5,107.9,147.6,107.9C147.6,107.9,147.6,107.9,147.6,107.9z"/>
<path d="M166.6,98.3C166.5,98.3,166.5,98.3,166.6,98.3C166.5,98.4,166.5,98.4,166.6,98.3L166.6,98.3z"/>
<path d="M157.1,98.3C157.1,98.3,157,98.3,157.1,98.3C157,98.3,157.1,98.4,157.1,98.3C157.1,98.4,157.1,98.4,157.1,98.3z"/>
<path d="M166.5,98.3c0-3.1,0-6.3,0.1-9.4c0,0,0,0,0,0c0,0,0,0,0,0c-3.1,0-6.3,0-9.4,0c0,0,0,0,0,0c0,0,0,0,0,0c0,3.1,0,6.3,0,9.4
	C160.2,98.3,163.4,98.3,166.5,98.3z"/>
<path d="M166.6,107.9c-3.2,0-6.4,0-9.5,0c0,3.1,0,6.2,0,9.5c9.6,0,18.9,0,28.4,0c0,3.2,0,6.3,0,9.4c0,0,0,0,0,0c0,0,0,0,0,0
	c3.1,0,6.3,0,9.4,0c0,0,0,0,0,0c0,0,0,0,0,0c0-9.4,0-18.9,0-28.4c3.3,0,6.4,0,9.4,0c0,0,0,0,0,0c0,0,0,0,0,0c0-3.1,0-6.2,0-9.5
	c-3.3,0-6.4,0-9.5,0c0-1.7,0-3.3,0-4.9c-1-0.2-2-0.3-3-0.6h0.1l-0.5-0.1c-0.1,0-2.7-0.5-6.2-1.7c0,8.9,0,17.5,0,26.2
	c-3.2,0-6.2,0-9.4,0c0-3.2,0-6.2,0-9.4c-3.3,0-6.3,0-9.4,0C166.6,101.5,166.6,104.5,166.6,107.9z"/>
<path d="M157.1,107.9C157.1,107.9,157.1,107.8,157.1,107.9L157.1,107.9C157,107.9,157.1,107.9,157.1,107.9z"/>
<path d="M166.6,98.4C166.6,98.4,166.6,98.4,166.6,98.4L166.6,98.4C166.5,98.4,166.5,98.4,166.6,98.4z"/>
<path d="M185.5,126.8C185.5,126.8,185.5,126.8,185.5,126.8C185.5,126.8,185.5,126.8,185.5,126.8c-6.3,0-12.6,0-18.9,0
	c0,6.4,0,12.7,0,19c3.2,0,6.3,0,9.3,0c0,0,0,0,0,0c0,0,0,0,0,0c0-3.1,0-6.2,0-9.4c3.3,0,6.4,0,9.4,0c0,0,0,0,0,0c0,0,0,0,0,0
	C185.5,133.1,185.5,130,185.5,126.8z"/>
<path d="M138.1,126.8C138.1,126.8,138.1,126.8,138.1,126.8C138.1,126.8,138.1,126.8,138.1,126.8c-3.2,0-6.3,0-9.5,0c0,0,0,0,0,0
	c0,0,0,0,0,0c0,3.1,0,6.3,0,9.4c0,0,0,0,0,0c0,0,0,0,0,0c3.1,0,6.2,0,9.5,0C138.1,133,138.1,129.9,138.1,126.8z"/>
<path d="M204.5,136.3c0,3.2,0,6.3,0,9.5c3.2,0,6.3,0,9.4,0c0,0,0,0,0,0c0,0,0,0,0,0c0-6.3,0-12.6,0-19c-6.5,0-12.7,0-19,0
	c0,0,0,0,0,0c0,0,0,0,0,0c0,3.1,0,6.3,0,9.4c0,0,0,0,0,0c0,0,0,0,0,0C198.1,136.3,201.2,136.3,204.5,136.3z"/>
<path d="M214,98.4c3.1,0,6.2,0,9.5,0c0,9.6,0,19,0,28.3c3.2,0,6.2,0,9.4,0c0-3.2,0-6.2,0-9.4c3.3,0,6.3,0,9.4,0c0,0,0,0,0,0
	c0,0,0,0,0,0c0-3.1,0-6.3,0-9.4c0,0,0,0,0,0c0,0,0,0,0,0c-3.1,0-6.2,0-9.4,0c0-6.4,0-12.7,0-18.9c0,0,0,0,0,0c0,0,0,0,0,0
	c-3.1,0-6.2,0-9.5,0c0-3.1,0-6,0-9.1c-3.8,1.4-7.7,2.5-9.4,3C213.9,88,213.9,93.2,214,98.4C213.9,98.3,213.9,98.3,214,98.4
	C214,98.4,214,98.4,214,98.4z"/>
<path d="M251.9,98.4C251.9,98.4,251.9,98.4,251.9,98.4C251.9,98.3,251.9,98.3,251.9,98.4c-3.2,0-6.3,0-9.5,0c0,3.3,0,6.4,0,9.5
	c0,0,0,0,0,0c0,0,0,0,0,0c3.1,0,6.2,0,9.5,0C251.9,104.5,251.9,101.5,251.9,98.4z"/>
<path d="M251.8,126.8C251.9,126.8,251.9,126.8,251.8,126.8C251.9,126.8,251.9,126.8,251.8,126.8c0-3.2,0-6.3,0-9.5
	c-3.3,0-6.4,0-9.5,0c0,0,0,0,0,0c0,0,0,0,0,0c0,3.1,0,6.2,0,9.5C245.7,126.8,248.8,126.8,251.8,126.8z"/>
<path d="M204.4,98.4c0,6.3,0,12.5,0,18.8c3.3,0,6.4,0,9.5,0c0-6.4,0-12.6,0-18.8c0,0,0,0,0,0c0,0,0,0,0,0
	C210.8,98.3,207.6,98.3,204.4,98.4C204.5,98.3,204.4,98.3,204.4,98.4C204.4,98.4,204.4,98.4,204.4,98.4z"/>
<path d="M232.8,145.7c0-3.2,0-6.3,0-9.3c-3.2,0-6.2,0-9.3,0c0,3.2,0,6.3,0,9.3C226.6,145.7,229.7,145.7,232.8,145.7z"/>
<path d="M223.4,145.7C223.4,145.7,223.4,145.7,223.4,145.7C223.4,145.7,223.4,145.8,223.4,145.7L223.4,145.7
	C223.4,145.8,223.4,145.8,223.4,145.7z"/>
<path d="M270.8,145.7c-3.1,0-6.3,0-9.4,0c0,0,0,0,0,0c0,0,0,0,0,0c0,3.1,0,6.2,0,9.5c3.3,0,6.4,0,9.5,0c0,0,0,0,0,0c0,0,0,0,0,0
	C270.8,152.1,270.8,148.9,270.8,145.7C270.8,145.8,270.8,145.8,270.8,145.7C270.8,145.7,270.8,145.7,270.8,145.7z"/>
<path d="M214,202.6C213.9,202.6,213.9,202.6,214,202.6C213.9,202.6,213.9,202.7,214,202.6c0,3.2,0,6.3,0,9.5c6.5,0,12.7,0,19,0
	c0,0,0,0,0,0c0,0,0,0,0,0c0-3.1,0-6.3,0-9.4c0,0,0,0,0,0c0,0,0,0,0,0C226.6,202.6,220.3,202.6,214,202.6z"/>
</svg>
