<?xml version="1.0" encoding="utf-8"?>
<!-- Generator: Adobe Illustrator 25.3.0, SVG Export Plug-In . SVG Version: 6.00 Build 0)  -->
<svg version="1.1" id="Layer_1" xmlns="http://www.w3.org/2000/svg" xmlns:xlink="http://www.w3.org/1999/xlink" x="0px" y="0px"
	 viewBox="0 0 750.2 400.1" style="enable-background:new 0 0 750.2 400.1;" xml:space="preserve">
<path d="M137.3,79.5c-3.6-3.4-6.8-7.1-9.8-11c-1.4-1.9-2.9-3.6-3.2-6.8c1.6,0.7,2.9,1,3.7,1.7c3.5,3,6.9,6,10.2,9.1
	c0.9,0.9,1.9,1.8,2.8,2.7c1-1.1,2.1-2.2,3.2-3.3c-1.1-0.7-2.3-1.4-3.3-2.2c-3.1-2.5-6-5.1-8.8-7.8c-1.6-1.5-2.8-3.3-4.3-4.8l-13.6,4
	c6,7.5,12.2,14.8,18.4,22.1c0.3,0.4,0.7,0.8,1,1.1C134.7,82.7,136,81.1,137.3,79.5z"/>
<path d="M131.1,87.8c-5.8-5.9-11-12.3-16.2-18.7c-1.8-2.2-3.7-4.4-5.5-6.6l-4.9,1.4c5.2,6.9,10.3,13.8,15.6,20.6
	c0.1,0.1,0.2,0.2,0.3,0.4c0,0.8,0.4,1.7,0,2.3c-0.4,0.5-1.7,1-2.2,0.8c-1.4-0.6-3-1.5-3.9-2.6c-3-4.1-5.7-8.4-8.6-12.6
	c-1.8-2.6-3.8-5-5.5-7.6l-5.5,1.6c3.8,5.1,7.5,10.3,11.1,15.5c5.3,7.8,10.4,15.8,14.5,24.2c1.1-2.2,2.3-4.6,3.7-6.9
	c-0.6-1.1-1.3-2.2-1.9-3.3c-1-1.6-1.6-3.1,0.1-4.6c1.6-1.3,3.7-1,5.6,0.5c0.1,0.1,0.2,0.2,0.3,0.3C129,91,130,89.4,131.1,87.8z"/>
<path d="M56.1,114.9c-2.2-4.1-4.7-8.1-7.1-12.1c-0.5-0.8-1.2-1.4-1.8-2.2c-0.2,0.1-0.4,0.2-0.6,0.3c0.3,1.2,0.5,2.4,0.9,3.5
	c3.5,8.1,7,16.2,10.5,24.3c1.3,2.9,2.7,5.9,3.8,8.8l5.7-1.2c-0.6-1.2-1.2-2.4-1.9-3.6C62.4,126.8,59.4,120.8,56.1,114.9z"/>
<path d="M48.6,80.4l-5,1.5c4.5,7.9,9.1,15.8,14,23.4c6.1,9.6,11,19.7,15.6,29.9l4.6-0.9c-0.1-0.2-0.2-0.4-0.3-0.5
	c-1.1-1.9,0.2-2.8,1.6-3.5c1.8-1,2,0.7,2.4,1.5c0.3,0.5,0.5,1.1,0.8,1.6l5.5-1.1c-1.5-2.6-3-5.3-4.3-7.9c-3.2-6.2-6.5-12.4-9.8-18.6
	c-5.1-9.4-10.1-18.9-15.5-28.2l-6,1.8c8.2,14.4,16.6,28.8,24.9,43.1c0.4,0.7,0.7,1.3,0.9,2c0.4,1.5-0.6,2.4-2.2,2.4
	c-1.9,0-2.4-1.3-2.9-2.6C66.8,108.8,57.9,94.5,48.6,80.4z"/>
<path d="M148.7,68.1c1.4-1.1,2.9-2.2,4.4-3.1c-3.9-2.1-7.4-4.7-10.6-7.9c-1.1-1.1-2.2-2.2-3.3-3.3l-5.1,1.5c1.5,1.6,3.1,3.2,4.7,4.6
	C141.9,62.8,145.1,65.6,148.7,68.1z"/>
<path d="M51.6,139.6l3.6-0.7c-1-2.7-2-5.3-3-8c-0.2-0.6-0.2-1.3-0.2-1.9c-0.1-1.6,0.5-3.5-0.2-4.9c-1.9-4-4-7.9-6.2-11.8L51.6,139.6
	z"/>
<path d="M81.5,70.7l-5.3,1.6c2.5,3.9,4.9,7.8,7.2,11.4c-0.1,1.9-0.6,3.6-0.1,4.9c2.2,5.8,4.6,11.5,7.1,17.1
	c3.6,7.9,7.4,15.8,11.1,23.7l6.3-1.3c-1.6-3-3.1-5.9-4.7-8.9c-3.3-6.3-6.8-12.4-10.2-18.6c-0.7-1.3-1.2-2.7-1.9-4.1
	c0.3-0.2,0.6-0.4,1-0.6c1.4,1.4,3,2.7,4.1,4.3c3.9,5.7,8,11.3,11.4,17.2c1.5,2.6,2.9,5.2,4.4,7.8c1-2.7,2.8-6.9,5.1-12
	c-4.5-11.1-10.2-21.7-17.2-31.7c-3.2-4.5-6.4-9-9.5-13.5l-5,1.5c3.3,5.1,6.9,10.1,10.7,14.9c4.7,6,8.7,12.5,11.3,19.6
	c0.4,1,0.5,2.1,0.7,3.2c-0.3,0.1-0.6,0.2-0.9,0.3c-1.7-2.2-3.5-4.3-5.1-6.6C95,90.9,88.1,80.9,81.5,70.7z"/>
<path d="M82.4,112.4c2.9,6.5,6.3,12.9,10.1,19l5.9-1.2c-3.1-6.1-6.2-12.2-9.2-18.4c-5.1-10.4-9.8-20.9-15.2-31.2
	c-1.1-2.2-2.4-4.4-3.6-6.5l-4.8,1.4c2.3,4.4,4.3,8.8,6.3,13.4C75.2,96.7,78.9,104.5,82.4,112.4z"/>
<path d="M156.5,59.5c-1.4-2.6-1.8-5.3-1.9-7.5c-1.1-0.6-2.2-1.2-3.2-1.8l-5.8,1.7c1.3,1.3,2.7,2.5,4,3.8c1.2,1.1,2.8,2,4.3,2.7
	C154.8,58.7,155.6,59.1,156.5,59.5z"/>
<path d="M475.9,351.9c3.9,1.5,8.5,3.1,13.6,4.7c-7.4-5.9-14.7-11.9-22-17.9c-1.3-1-2.5-2.3-3.6-3.6c-0.2,2.2-0.5,4.3-0.7,6.4
	c0.6,0.5,1.1,1,1.7,1.5C468.5,345.9,472.2,348.9,475.9,351.9z"/>
<path d="M509.5,348.3c-4.8-3.2-9.4-6.8-13.5-10.9c-10.1-10.1-20.1-20.3-30.1-30.5c-0.1,2.2-0.2,4.4-0.3,6.5
	c4.8,4.9,9.6,9.7,14.3,14.8c14,15.3,30,27.3,47.7,36.6c4.4,0.5,8.9,0.9,13.5,1c-3.8-1.4-7.5-3.1-11.1-5.2
	C523,356.6,516.1,352.7,509.5,348.3z"/>
<path d="M465.1,320.8c-0.1,2.1-0.3,4.2-0.5,6.2c0.3,0.3,0.5,0.5,0.8,0.7c12.1,10.8,24.3,21.5,36.4,32.3c3.4,0.8,6.9,1.6,10.6,2.3
	c-5.9-3.7-11.5-7.8-16.9-12.6C485,340.5,475,330.7,465.1,320.8z"/>
<path d="M627.1,341.2c-14.6,4.5-29.3,8-44.8,6.6c-16.7-1.5-32.7-5.7-47.7-13.7c-11.1-5.9-20.8-14.1-30.8-21.8
	c-6-4.6-11.6-9.7-17.3-14.7c-1.7-1.5-2.9-3.6-4.1-5.6c-0.4-0.7-0.6-2.3-0.2-2.9c0.4-0.5,1.8-0.6,2.6-0.3c5.1,1.6,9.4,4.6,12.9,8.9
	c2.2,2.7,4.1,5.8,6.4,8.4c2.9,3.4,5.8,7,9.3,9.5c28.3,20.9,59.7,28.4,93.5,25.6c6.4-0.5,12.8-1.3,18.9-3.9c1.8-0.8,3.5-1.8,5.1-2.9
	c-0.1-1.4-0.3-2.7-0.4-4.1c-2.8,0.3-5.6,0.5-8.2,1.3c-18.2,5.3-36.5,5.3-55,2.6c-17.2-2.5-32.6-9.6-47.2-19.2
	c-2.1-1.3-3.9-3.2-5.7-5c-0.7-0.6-1-1.6-1.5-2.4c0.1-0.2,0.2-0.4,0.3-0.5c0.7,0.2,1.5,0.2,2.2,0.6c1.6,0.9,3.1,1.9,4.6,3
	c11.8,9.2,25.3,14.6,38.9,19.8c1.6,0.6,3.5,0.3,5.2,0.4c0.1-0.4,0.2-0.8,0.3-1.3c-1.8-1-3.4-2.2-5.3-3c-5.7-2.5-11.5-4.7-17.1-7.4
	c-17.9-8.5-33.5-20.5-45.3-37.7c-1.5-2.1-3.1-4.1-4.5-6.2c-9.9-14.1-18.9-28.7-25.1-45c0.1,4.1,0.1,8.2,0.2,12.4
	c1.1,2.5,2.1,4.9,3.2,7.4c4.3,9.9,9.4,19.3,16.5,27.2c1.4,1.6,2.6,3.5,3.9,5.3c0.5,0.7,0.8,1.6,1.3,2.9c-1.1-0.2-1.7-0.2-2.1-0.4
	c-3.6-1.9-7.1-3.9-9.4-7.8c-4.4-7.3-8.9-14.6-13.3-21.9c0,2.3,0,4.5,0,6.8c0.4,0.6,0.8,1.1,1.2,1.7c2,2.9,3.7,6,5.4,9.1
	c0.4,0.7-0.1,2-0.2,3c-0.8-0.4-1.9-0.5-2.5-1.2c-1.4-1.7-2.7-3.4-4-5.2c0,2.4-0.1,4.9-0.1,7.3c1,1.1,2,2.2,2.9,3.3
	c0.7,0.8,1.2,1.8,1.8,2.7c-0.2,0.3-0.4,0.6-0.6,0.8c-1.4-0.8-2.9-1.4-4.3-2.2c0,1.9-0.1,3.8-0.1,5.7c3.8,3.4,7.6,6.8,11.3,10.3
	c5.7,5.2,11.4,10.6,17,15.9c5.5,5.2,11.1,10.4,16.6,15.7c1.5,1.4,1.4,2.9,0.2,4.6c-1.2,1.8-2.4,1.6-3.8,0.7
	c-1.6-1.1-3.2-2.1-4.6-3.4c-3.1-2.9-6.1-5.9-9.1-8.9c-9.3-9.3-18.6-18.5-27.9-27.9c-0.1,1.8-0.1,3.5-0.2,5.3
	c12.4,12.8,24.8,25.8,37.4,38.4c4.8,4.8,10.1,8.9,15.5,12.8c4,2.9,8.5,4.9,12.8,7.2c0.6,0.3,1.4-0.1,2.2-0.1
	c-0.2-0.8-0.1-1.8-0.6-2.4c-0.6-0.8-1.4-1.4-2.3-1.9c-2.1-1.3-4.4-2.3-6.5-3.7c-2.5-1.8-5-3.7-7.3-5.8c-1.2-1.1-2.5-2.9-1-4.6
	c1.4-1.6,2.5,0.4,3.5,1.2c11.5,9.9,24.3,17,38.3,21.8c2.9,1,5.9,1.8,8.8,2.5c8.6-0.9,16.7-2.4,23.9-4.1c-1.6,0-3.2-0.4-4.8-0.7
	c-1.2-0.3-2.7-1-2.3-2.9c0.4-1.8,1.6-2.5,3.4-2.6c5.9-0.4,11.9-0.5,17.6-1.7c8.1-1.8,16-4.5,24-6.8c0.8-0.2,1.5-0.6,2.2-1
	c0.2-0.1,0.3-0.2,0.5-0.3c-0.2-1.7-0.4-3.4-0.6-5.2C630,340.1,628.6,340.7,627.1,341.2z M579.2,356.9c-0.3,1.1-1.7,2.5-2.7,2.5
	c-4,0-8.1,0.1-11.9-0.8c-11.7-2.8-22.3-8.9-32.9-14.9c-1.5-0.8-2.6-2.4-3.8-3.6c0.1-0.3,0.3-0.6,0.4-0.9c1.3,0.3,2.7,0.4,3.9,0.9
	c5.2,2.1,10.3,4.7,15.6,6.3c8.8,2.7,17.8,4.7,26.7,7c0.7,0.2,1.5,0.2,2.2,0.4C578.4,354.1,579.6,355.3,579.2,356.9z"/>
<path d="M510.9,47.4c-2,1.5-4.7,3-8.1,4.7c-4.4,2.2-8.6,5.5-12.4,9.5c9-4.5,18.2-8.6,27.4-12.4c0.7-0.3,1.4-0.5,2.1-0.7
	c2.8-0.7,5.7-1.1,8.4-1.9C521.8,46.8,515.8,47.1,510.9,47.4z"/>
<path d="M597.5,55.5c-1.8-1.3-3.7-2.5-5.6-3.4c-14.6,8.3-29.1,16.7-43.6,25.1c-0.7,0.4-1.3,0.7-2,0.9c-1.5,0.4-2.4-0.6-2.4-2.2
	c0-1.9,1.3-2.4,2.6-2.9c14.8-5.8,28.5-14.1,41.9-22.8c-1.7-1-3.2-1.9-4.4-2.8c-0.4,0-0.8,0-1.2-0.1c-5.8,3.4-11.6,6.8-17.3,10.5
	C552.7,66.1,539,72,525.3,78.2c-1.5,0.7-2.5,0-3-1.5c-0.4-1.4-0.5-2.7,1.3-3.5c4.9-2.3,9.6-4.9,14.4-7.4c6-3.1,12-6.2,18-9.5
	c4.1-2.2,8.1-4.7,12.1-7.1c0.8-0.5,1.4-1.2,2.2-1.8c-0.1-0.2-0.2-0.4-0.2-0.6c0,0,0,0-0.1,0c-1.2,0.3-2.4,0.4-3.5,0.9
	c-8.1,3.5-16.2,7-24.3,10.5c-4.1,1.7-8.1,3.8-12.3,4.9c-6.4,1.7-13,2.8-19.6,4c-1,0.2-2.1-0.2-3.1-0.4c-0.1-0.3-0.2-0.6-0.2-1
	c1.4-0.8,2.8-1.8,4.3-2.4c9.5-3.7,19.1-7.3,28.7-11c0.6-0.2,1.3-0.2,1.9-0.2c1.6-0.1,3.5,0.5,4.9-0.2c3.6-1.7,7.2-3.6,10.7-5.6
	c-3.8-0.1-7.8-0.1-11.7-0.1c-1.2,0-2.4,0-3.6,0c-6.9,2.4-13.7,4.8-20.5,7.3c-13,4.8-25.8,10-38.2,16.3c-3,4.1-5.8,8.6-8.3,13.2
	c9.2-5.6,19-9.6,29.5-11.5c1.6-0.3,3.3,0.2,4.9,0.6c0.6,0.2,1.2,1.2,1.4,1.9c0.1,0.4-0.9,1.2-1.5,1.5c-9.3,4.7-18.7,9.3-28.1,13.9
	c-1.5,0.8-3.2,1.5-4.5,2.6c-3.3,2.6-6.5,5.1-9.8,7.7c-1.3,2.9-2.4,5.7-3.5,8.4c12.7-10.8,27.1-18.6,41.6-26.2
	c3.7-1.9,7.5-3.8,11.3-5.7c1,1.7,1.7,3.1,2.6,4.6c-1.2,0.6-2.3,1.1-3.5,1.6c-10.6,5.2-21.3,10.1-31.7,15.6
	c-9.1,4.8-17.1,11.5-23.8,19.5c-1.8,5.3-3,9.1-3.3,10.4c0.1,0.2,0.3,0.4,0.5,0.7c3-4.9,6.9-9.4,11.6-13.6c3.8-3.4,8-6.4,12.4-8.9
	c12.4-7.1,24.5-14.9,38.2-18.8c0.6-0.2,1.1-0.6,1.6-0.9c5.4-3,10.9-5.9,16.2-9c1.9-1.1,2.8,0.2,3.5,1.6c1,1.8-0.7,2-1.5,2.4
	c-9.1,4.1-18.1,8.4-27.2,12.3c-17,7.4-32.2,18.1-46.1,30.8c-2.7,2.5-4.9,5.3-6.7,8.4c0.7,2.2,1.4,5.2,2.2,9.3
	c2.3-7.9,6.6-14.6,13.4-19.7c10.6-8,21.6-15.5,32.4-23.2c1.3-0.9,2.8-1.4,4.3-1.9c0.8-0.3,1.8,0,2.7,0c-7.2,7.1-15,13-21.3,20.9
	c1.7-0.2,3.2-0.6,4.4-1.5c5.9-4.2,11.8-8.3,17.5-12.8c10.1-8,20.6-15,31.9-20.8c6.2-3.2,12.4-6.5,18.6-9.8
	c9.6-5.2,19.2-10.3,28.7-15.8C595.1,57.3,596.3,56.5,597.5,55.5z"/>
<path d="M483.6,257.2c6.3,9.4,13,18.5,19.5,27.8c5.8,8.3,13.1,14.6,21.3,19.8c12.9,8.1,26.4,14.8,40.5,20.1
	c6.7,2.5,13.6,3.9,20.7,3.8c12.6-0.1,25.1-0.4,37.7-0.9c2.3-0.1,4.6-0.3,6.9-0.7c-0.2-2-0.3-4-0.5-6c-3.9,0.9-7.9,1.4-12,1.5
	c-9.2,0.2-18.4,0-27.5-0.3c-4.6-0.2-9.3-0.6-13.9-1.6c-17.7-3.8-34-11.6-49.5-21.4c-11.3-7.2-20.8-16.8-28.3-28.4
	c-4.6-7.2-8.7-14.7-13.2-22c-6.6-10.6-11-22.2-14.4-34.3c-2.9-10.5-5-21.1-2.5-32.1c0.4-1.6,0.5-3.3,0.6-5
	c0.5-7.2,0.8-14.5,1.3-21.7c0.7-8.6,4-15.9,9.6-22c2-2.1,4.3-3.4,7.1-3.3c1.8,0.1,3,1.2,2.5,3.1c-0.5,2.1-1.2,4.5-2.5,6
	c-3.7,4.2-6.2,9-8,14.4c-1.8,5.4-3.5,10.9-5.4,16.4c-2.7,7.9-3.1,16.1-1.6,24.2c2.5,13.4,6.9,26.3,11.5,39
	c2.8,7.7,5.7,15.4,10.2,22.2c12.5,19.1,27.8,34.9,46.5,46.5c9.9,6.1,20.2,11.6,31.8,12.9c2.9,0.3,5.9,0.7,8.8,0.9
	c8.4,0.7,16.8,1.8,25.2,1.7c8.1-0.1,15.8-1.5,23.2-4.1c-0.1-1.8-0.2-3.6-0.3-5.4c-4.5,1.6-9.1,2.8-13.9,3.7
	c-6.3,1.1-12.8,0.5-19.3,0.7c-15.9,0.7-30.8-3.3-45.2-10.3c-14.4-7-27.6-16-38.2-28.8c-18-21.7-27.9-47.7-34.1-75.7
	c-0.8-3.4-0.7-7.1-1-10.7c2.8-0.3,4,0.8,4.7,3.6c1,4.2,1.9,8.4,3,12.6c0.4,1.5,1.1,2.9,1.7,4.4c0.3-0.1,0.6-0.1,0.9-0.2
	c0.2-1.1,0.5-2.3,0.4-3.4c-0.3-5.2-0.5-10.5-1.1-15.6c-1.3-10.1,0.2-19.4,4.6-28.4c5.1-10.4,12.4-18.1,21.9-23.5
	c12.4-7.1,25.6-12.3,38.8-17.2c13.1-4.9,25.5-11.2,37.1-19.3c7.5-5.2,14.8-10.6,22.4-15.7c2.1-1.4,4.2-2.6,6.4-3.8
	c-0.8-1.4-1.6-2.7-2.4-4.1c-10,6.1-19.9,12.3-29.3,19.7c-6,4.7-12.5,8.7-19.6,11.3c-1,0.4-2.1,0.5-3.2,0.7c-0.1-0.3-0.2-0.6-0.3-0.9
	c2.2-1.7,4.3-3.5,6.6-5.1c12.4-8.4,24.7-17.1,37.5-25c2.1-1.3,4.1-2.6,6.1-3.9c-1-1.5-2.1-3.1-3.2-4.5c-1.8,1.3-3.5,2.5-5.3,3.7
	c-6,3.9-12.1,7.7-17.8,11.3c-1.9-0.1-3.6-0.6-4.9-0.1c-5.8,2.2-11.5,4.6-17.1,7.1c-8.9,4.1-17.7,8.4-26.6,12.5
	c-1.3,0.6-2.9,0.7-4.4,1c-0.1-0.3-0.2-0.6-0.4-0.9c1.5-1.1,2.8-2.4,4.4-3.2c6.9-3.6,13.9-7.1,20.9-10.5c10.4-5.1,20.9-9.8,31.2-15.2
	c5.7-2.9,11.2-6.3,16.6-9.7c-1-1.2-2-2.3-3.1-3.4c-7,4.2-14.3,7.8-21.8,11c-7.9,3.4-15.7,7.1-23.6,10.6c-12.9,5.8-25,13.2-36.1,22.5
	c-7.6,6.3-15.4,12.2-23.1,18.4c-2.1,1.7-3.8,2.2-5.8,0.3c-2.5-2.4-5.1-2-7.8-0.3c-0.9,0.6-1.8,1.1-2.6,1.8
	c-12,9.7-18.5,22.6-19.2,38.8c0.2,1.8,0.3,3.8,0.5,5.8c0.9,11.3,1.7,27.7,2.2,46.4c1.1,3.6,2.1,7.3,3.1,10.9
	C472.8,238.1,477.5,248.1,483.6,257.2z M490.3,146.6c3.2-5.8,7.4-10.7,12.5-14.5c15.4-11.3,32-20.1,48.7-28.8
	c6.3-3.3,12.4-6.8,18.6-10.2c1.3-0.7,2.7-1.2,4.1-1.9c0.2,0.3,0.4,0.6,0.6,1c-1.4,1.4-2.7,3-4.3,4.1c-5.7,3.9-11.3,8-17.2,11.4
	c-7.9,4.6-16,8.6-24,13.1c-6.4,3.6-12.8,7.1-18.9,11.1c-16.5,10.7-24.9,27.4-28.2,47.4c-0.1,0.6-0.1,1.1-0.2,1.7
	c0,0.1-0.2,0.3-0.3,0.5c-0.5-0.3-1.1-0.7-1.6-1c-0.6-0.3-1.2-0.5-2-0.8c0.1-0.6,0.1-1.3,0.2-1.9
	C481.2,166.9,484.8,156.4,490.3,146.6z"/>
<path d="M519.2,260c1.6,2.1,3.8,3.8,5.9,5.3c0.9,0.7,2.4,0.5,3.6,0.7c-0.4-1.2-0.6-2.6-1.3-3.6c-2.3-3.2-5-6.1-7.2-9.5
	c-3.5-5.6-6.8-11.3-10-17.1c-10.4-18.2-13.7-38.1-11.4-59.3c0.4-3.9,1.2-7.8,2-11.6c0.2-0.9,0.8-1.7,1.2-2.5
	c0.3,0.1,0.5,0.1,0.8,0.2c0.1,1.8,0.4,3.6,0.3,5.4c-0.3,4.9-0.9,9.8-1.2,14.6c-0.5,8.8-1.3,17.9,2,26.2c4.3,10.8,9.4,21.3,14.2,31.9
	c0.1,0.3,0.3,0.6,0.5,0.8c5.5,6.4,10.8,13.1,16.6,19.1c5.4,5.6,11.6,10.2,18.5,13.5c3.4,1.6,4,2.9,2.9,6.7c-0.2,0.7-0.4,1.4-0.7,2
	c-1,2-0.6,3.9,0.6,5.6c2.9,4,6.5,6.7,11.4,6.9c2.4,0.1,4.7,0.1,7.1,0c1,0,2-0.4,3-0.6c-0.1-2.8-1.6-3.8-3.5-4.3
	c-2.1-0.5-4.2-0.7-6.3-1.1c-3.7-0.8-5-2.6-4.3-5.8c0.5-2.1,2.2-2.2,5.8-1c2.4,0.8,4.9,1.2,7.4,1.4c2.6,0.1,5.2-0.1,7.7-0.5
	c2-0.3,2.4,0.6,2,2.4c-0.5,2.3-1.2,4.5-1.6,6.8c-0.6,3.4,0.5,5,3.6,4.6c4.4-0.6,8.9-1.3,13.2-2.8c9.5-3.3,18-8.3,25.9-14.3
	c0-2-0.1-4-0.1-6c-3,2.5-6.2,4.7-9.8,6.5c-6.5,3.2-13.2,6-19.9,8.8c-1.3,0.6-2.9,0.8-4.3,0.7c-0.8-0.1-1.6-1.1-2-1.5
	c0.3-3.2,1.5-4.8,3.5-5.7c3.8-1.6,7.5-3.4,11.4-4.8c8-2.9,14.9-7.7,21.1-13.9c0-2.9,0-5.8,0-8.7c-0.5,0.6-1,1.1-1.5,1.7
	c-1.1,1.2-2.8,2-4.4,2.6c-1.4,0.6-2.1-0.3-1.5-1.8c0.5-1.2,1.2-2.4,1.9-3.5c1.8-2.9,3.7-5.8,5.6-8.7c0-3.4,0.1-6.7,0.1-10
	c-4.3,7.4-9.8,13.7-16.9,18.5c-5,3.4-10,7-15.2,10c-13.5,7.8-27.2,9-41,0.4c-1.9-1.2-3.8-2.2-5.7-3.3
	c-19.3-11.7-32.8-28.8-39.7-51.7c-4.1-13.7-4.5-27.6,0.4-41.4c1.3-3.8,3.5-6.5,6.7-8.7c7-4.9,14.7-7.7,22.8-9.6
	c4.5-1,8.9-2.4,13.5-2.8c6.6-0.6,11.2-3.8,13.6-10.5c0.4-1,0.2-2.3,0.3-3.4c-1,0.1-2,0.2-2.9,0.4c-1.6,0.4-3.6,1.7-4.5-0.6
	c-0.8-2.2,1.3-3.1,2.8-3.9c4.2-2.4,8.4-4.8,12.5-7.2c1.6-1,3.1-1.6,4.6,0.1c1.3,1.6,1,3.7-0.5,5.6c-2.1,2.7-4,5.5-6,8.3
	c-3.1,4.3-5.9,8.9-9.3,12.9c-3,3.7-7,5.3-11.6,4.3c-1.4-0.3-2.8-0.4-4.2-0.3c-11.2,1.2-21.7,4.8-31,12c-1.9,1.4-3.3,3.9-4.2,6.3
	c-2.5,6.3-0.3,12,2.6,17.6c2.3,4.4,4.5,8.9,6.2,13.5c4.7,12.2,9.4,24.4,18.6,33.6c5.6,5.7,11.6,10.8,18.3,14.8
	c2.3,1.4,4.6,3,6.8,4.6c0.6,0.5,1.1,1.3,1.6,1.9c-0.1,0.2-0.2,0.4-0.3,0.6c-1.1-0.2-2.2-0.3-3.2-0.7c-8.2-3.2-16.2-7-22.5-13.7
	c-12.2-13.1-22.4-27.6-25.6-46.6c-0.3-1.6-1.1-3.1-1.7-4.6c-0.3,0.1-0.5,0.1-0.8,0.2c-1.2,2-1.4,4.4-1,6.6c0.8,4.8,1.5,9.8,3.2,14.2
	c9.2,23.6,24.2,41,46.7,49.9c6.3,2.5,12.5,3,19,0.3c12.3-4.9,24.3-10,35-18.5c5.4-4.3,9.5-9.7,12.1-16.3c0.2-0.5,0.4-1,0.6-1.6
	c0.1-4.1,0.2-8.1,0.3-12c-1.6,4.1-3.9,7.8-6.4,11.5c-0.4,0.5-1.3,1.1-1.8,0.9c-0.7-0.2-1.6-1-1.9-1.7c-0.3-0.8,0-1.9,0.4-2.7
	c2.4-5.8,5.3-11.4,7.1-17.4c1.2-3.9,2.3-7.9,3.4-11.8c0.4-8.3,0.8-15.7,1.2-21.8c-3.1,15.1-8.3,29.4-15,43.1
	c-2,4.2-4.9,8.1-6.1,12.6c-1.2,4.4-4.1,6.2-6.9,8.4c-2.7,2.2-5.6,4.2-8.5,6.2c-5.4,3.9-11.4,6.1-17.6,7.6c-1,0.2-2,0.2-3,0.3
	c0-0.2-0.1-0.4-0.1-0.7c0.7-0.3,1.5-0.6,2.2-0.8c6.1-1.7,11.3-5,16-9.6c6.8-6.6,12.5-14.1,16.7-22.9c1.4-3,3-5.9,4.7-8.7
	c5.6-9.4,8.9-19.8,11.2-30.5c0.2-0.8-0.3-2.2-0.8-2.6c-0.6-0.4-2.1-0.1-2.5,0.5c-1.3,1.6-2.5,3.4-3.3,5.4c-2.4,5.5-4.9,11-6.8,16.8
	c-3.2,9.7-8,18.3-13.1,26.7c-5.9,9.6-13.9,16.2-23.6,20.3c-2,0.9-4.3,1.4-6.5,1.2c-3-0.2-6.1-0.8-8.8-2.1c-8.2-4-15-10-20.6-17.6
	c-1.2-1.7-2.6-3.5-2-6.2c1.7,1,3.1,2.3,4.5,3.6c3.9,3.6,7.5,7.5,11.6,10.9c8.2,6.7,16.9,7.6,25.9,1.8c13.4-8.7,22.2-21.5,27.2-37.4
	c2.9-9.3,5.2-18.8,7.8-28.2c3.6-13,9.5-24.3,19.7-32.7c0.9-0.7,1.7-1.6,2.5-2.4c1.2-4.4,2.3-6.4,2.9-7.2c-0.2-0.5-0.4-1.4-0.8-2.7
	c-1.3,1.8-2.6,3.6-4.1,5.2c-5.9,6.4-12,12.6-17.9,19c-1.1,1.2-2,2.8-2.7,4.3c-5.1,11.1-8.4,22.9-11.3,34.7
	c-3.5,14.3-8.7,27.5-17.5,38.9c-4.7,6-10.8,8.3-17.7,8.2c-3.9,0-7.6-1.4-10.5-4.4c-5.9-6.2-11.8-12.4-17.9-18.4
	c-7.3-7.2-13.3-15.6-18.9-24.3c-3-4.7-3.9-10.1-1.8-15.6c0.3-0.9,1.6-1.3,2.4-1.9c0.3,1,0.9,2,0.8,2.9c-0.5,3.6,0.1,6.9,1.9,9.9
	c1.8,2.9,3.6,5.9,5.8,8.5c7.9,9.5,15.9,18.8,24,28.1c3.2,3.7,7.2,6.1,11.6,7.8c6.9,2.5,13.4,0.2,18.1-5.9c6.7-8.8,10.4-19,13-29.8
	c2.4-10.3,5.1-20.5,7.8-30.7c2.1-7.7,6-14.1,11.4-19.5c3.5-3.5,6.9-7.3,10.4-10.9c1-1.1,2.2-1.9,3.2-3c1.9-2,4.2-3.7,5.5-6.1
	c0.7-1.2,1.4-2.4,2.2-3.5c-0.5-1.4-1-2.8-1.6-4.4c-3.6,5-7.6,9.7-12,13.9c-3.6,3.4-7.3,6.6-10.6,10.3c-6.9,7.6-13.3,15.7-15.8,26.3
	c-1.9,7.7-3.2,15.5-5,23.2c-1.2,5.3-2.7,10.5-4.2,15.7c-0.5,1.6-1.4,2.8-3.1,2c-1.8-0.8-1.8-2.3-1.3-4c0.4-1.6,1-3.2,1.3-4.9
	c1.1-5.9,3.3-11.4,3.3-17.7c0-12.2,3.4-23.1,11-32.3c1.6-1.9,2.7-4.3,4.2-6.2c2.5-3.1,5.1-6,7.8-8.8c1.7-1.8,3.8-3.1,5.5-4.9
	c4.4-4.4,8.6-8.8,12.9-13.3c0.6-0.6,0.9-1.5,1.4-2.2c-0.1-0.2-0.3-0.4-0.4-0.6c-0.9,0.4-1.9,0.6-2.6,1.3c-2.8,2.4-5.6,5-8.4,7.5
	c-0.8,0.7-1.8,1.4-2.8,1.7c-1.7,0.4-2.6-0.8-1.6-2.4c1.1-1.8,2.4-3.5,3.9-4.8c2.8-2.5,5.9-4.6,8.8-7c0.9-0.7,1.6-1.7,2.4-2.6
	c-0.1-0.2-0.2-0.4-0.3-0.6c-0.9,0.2-1.9,0.2-2.6,0.6c-3.6,1.8-7.5,3.3-10.7,5.8c-9.1,7.1-17.9,14.5-26.7,22
	c-5.4,4.6-10.1,10.1-12.3,17.3c-1.3,4.2-2.3,8.5-2.8,12.9c-1.4,11.1-1.4,22.2,2.2,32.9c1.9,5.7,0.5,10.6-2.7,15.1
	c-2.2,3-5,2.6-7-0.5c-0.5-0.9-1.1-1.7-1.6-2.6c-4.4-7.4-8.7-14.7-13.1-22.1c-0.8-1.4-2-2.6-2.9-3.9c-1.1-1.5-2.2-3.1-3-4.7
	c-1-1.9-0.3-3.1,1.6-2.8c1.4,0.2,2.9,1.1,4.1,2.1c4.1,3.9,6.5,9.1,9,14.2c1.4,2.9,2.9,5.8,4.6,8.5c1,1.7,2.4,3.5,4.5,2.7
	c2.2-0.9,1.8-3.3,1.5-5.3c-0.6-3.4-1.5-6.7-2-10.1c-0.8-6-1.6-11.9-2-17.9c-0.7-11.2,3.4-20.6,9.9-28.9c7.5-9.7,16.9-17,26.1-24.6
	c7.7-6.3,15.2-13,22.9-19.5c0.3-0.2,0.6-0.5,0.9-0.7c-0.5-1.2-1.1-2.4-1.7-3.6c-12.1,10.3-25.1,19.2-37.5,29
	c-0.1,0.1-0.2,0.2-0.4,0.3c-0.8,0-1.7,0.4-2.3,0c-0.5-0.4-1-1.7-0.8-2.2c0.6-1.4,1.5-3,2.6-3.9c4.1-3,8.4-5.7,12.6-8.6
	c2.7-1.9,5.3-4.1,8.1-5.8c5.8-3.4,11-7.6,15.9-12.1c-0.8-1.6-1.6-3.1-2.5-4.7c-10.3,7.7-20.5,15.5-31.1,22.7
	c-13,8.8-26.4,17-41.5,20.9c-10.2,2.6-20,6.5-29.4,11.5c-2.8,1.5-5.3,3.4-7.9,5.3c-0.6,0.5-0.9,1.6-1.3,2.4c0.8,0.3,1.8,1,2.5,0.8
	c3.5-0.9,7-1.9,10.4-3.2c4.7-1.8,9.2-4.2,13.9-5.8c3.1-1,6.4-1.3,9.6-1.6c1.1-0.1,2.5,0.6,3.4,1.4c1.5,1.3,1.3,2.6-0.5,3.6
	c-1.8,0.9-3.7,1.7-5.6,2.4c-8.1,2.7-16.1,5.3-24.2,7.9c-3.7,1.1-7.4,1.6-11-0.6c-0.7-0.5-2.1-0.3-2.9,0.1c-1.3,0.7-2.5,1.7-3.5,2.8
	c-3.7,3.9-5.2,9.1-6.3,14.4c-2,9.9-1.6,19.8-0.5,29.8C496.4,221.4,505.2,241.9,519.2,260z M564.7,274.3c0.5-0.2,1.2-0.1,2-0.2
	c1.2,0.2,2.7,0.4,4.2,0.6c11.9,2,22.8-0.7,33-7.7c1.4-1,2.9-2,4.5-2.6c2.5-1.1,3.6-0.1,3.1,2.8c-0.2,1.1-1,2.2-1.7,3.2
	c-0.5,0.7-1.3,1-1.9,1.6c-5,4.9-10.8,7-17.5,7.5c-7.5,0.5-15,1.1-22.5-0.4c-1.2-0.3-2.5-0.6-3.6-1.2c-0.7-0.4-1-1.4-1.5-2.1
	C563.4,275.3,564,274.6,564.7,274.3z M578.8,253c3.6-1.2,7.3-2.2,10.8-3.6c9.5-3.8,17.7-9.5,23.9-18.4c0.3-0.4,0.6-0.7,1-1.2
	c3.9,2.2,3.9,2.3,1.1,5.8c-9.5,11.5-21.4,17.7-35.2,20.1c-1.6,0.3-3.3,0-4.9,0c-0.1-0.3-0.1-0.7-0.2-1
	C576.4,254.1,577.6,253.4,578.8,253z M577.2,187c-0.3-6.3-0.9-12.7-0.8-19c0.2-8.2,2.8-15.6,7.6-21.9c5.3-7,11.5-13.2,18.4-18.4
	c1.9-1.4,3.6-2.9,6.8-3.2c-0.7,1.6-1,2.9-1.7,3.7c-3,3.5-6,6.9-9.1,10.2c-4,4.2-8.2,7.9-11.5,12.9c-3.4,5.1-5,10.4-5.2,16.5
	c-0.2,5.1-0.6,10.3-1,15.4c-0.2,2.4-0.2,5-2.7,7.4C577.6,189.1,577.3,188.1,577.2,187z M558.9,167.1c1.4,4.1,2.1,8.5,3,12.8
	c0.2,0.9-0.1,2-0.2,3c-0.3,0.1-0.5,0.1-0.8,0.2c-0.4-0.7-0.9-1.4-1.3-2.1c-0.8-1.8-1.7-3.6-2.4-5.4c-1.5-4.3-4.5-6.9-8.2-8.7
	c-4.8-2.3-9.3-1.2-12.3,3.1c-2.7,3.9-2.4,8.8,0.9,13c8,10.3,16.1,20.5,24.2,30.8c2,2.6,4.3,4.7,7.5,5.1c1.9,0.2,3.5-0.3,4.7-1.9
	c0.8-1,1.7-2.2,2.7-2.7c0.9-0.4,2.3-0.2,3.2,0.3c0.3,0.2,0.3,2.1-0.1,2.8c-3,5.8-10.1,10.1-17.3,5.2c-4.4-3-7.9-7-11.2-11.2
	c-7.1-9.1-14.2-18.3-21.3-27.4c-4.8-6.1-3.7-14.5,2.7-19.3c5.8-4.3,12.2-5.9,19.2-4.6C555.8,160.7,557.8,163.7,558.9,167.1z"/>
<path d="M464.1,346.9c-0.5-0.3-0.9-0.7-1.4-1c0,0.1,0,0.3-0.1,0.4c0.5,0.2,1.1,0.5,1.9,0.9C464.3,347.1,464.2,347,464.1,346.9z"/>
<path d="M538.7,292.8c19.8,13.1,41.8,15.6,64.3,15.6c4.8,0,9.6-1,14.3-1.7c2.2-0.4,4.4-1.1,6.3-2.1c1.6-0.8,3.3-1.6,4.9-2.5
	c-0.1-1.9-0.2-3.9-0.2-5.8c-4.8,2.4-9.6,4.5-14.5,6.6c-0.9,0.4-2,0.4-3,0.6c-0.1-0.2-0.2-0.5-0.2-0.7c1.3-0.9,2.5-1.8,3.8-2.6
	c4.6-2.7,9.2-5.4,13.7-8.1c-0.1-1.7-0.1-3.5-0.2-5.2c-8.9,5.4-18.3,9.7-28.2,12.7c-6.5,2-13.1,4.2-19.9,2.9
	c-6.7-1.3-13.5-2.7-20-5.1c-15.9-5.7-28.8-16.6-40.7-29c-7.4-7.7-13.1-16.6-16.9-27.1c-2.7-7.5-6.3-14.5-9.6-21.7
	c-0.6-1.3-1.6-2.3-2.4-3.5c-0.2,0.1-0.5,0.3-0.7,0.4c0.3,1.5,0.4,3.1,0.9,4.5c2.6,7.5,5,15.2,8.2,22.4
	C507.6,264,520.6,280.8,538.7,292.8z"/>
<path d="M627.7,165.1c0.2-0.3,0.3-0.6,0.4-0.9c1.1-2,2.2-4.1,3.3-6.1c0.5-4.3,0.9-8.1,1.4-11.2c-2.2,3.3-4.5,6.5-6.7,9.8
	c-1.2,1.7-2.1,3.7-3.1,5.6c-0.7,1.5,0.1,4.7,1.5,5.3C626.5,168.4,626.8,166.3,627.7,165.1z"/>
<path d="M533,270.6c-0.6,0.1-1.4,0.7-1.6,1.2c-0.2,0.4,0.1,1.5,0.5,1.9c4,4,8.2,7.6,13.5,9.3c1,0.3,2.1,0.3,3.1,0.5
	c0.1-0.3,0.2-0.5,0.3-0.8c-0.5-0.8-0.8-1.8-1.4-2.3c-3.9-3.1-7.8-6.2-11.8-9.1C534.9,270.7,533.8,270.5,533,270.6z"/>
<path d="M701.4,88.4c-1.3-3-2.7-6.1-4-9.1l-4.9-1.5c4,9.3,7.9,18.7,12,28c0.3,0.6,0.5,1.2,0.8,1.8l1.6-7.2
	C705,96.4,703.1,92.4,701.4,88.4z"/>
<path d="M384,83.2l0.3,1.5c0.4-0.6,0.8-1.3,1.2-1.9L384,83.2z"/>
<path d="M611.9,56.5c-0.6-0.9-1.1-1.8-1.8-2.6c-0.1-0.1-0.2-0.2-0.3-0.4l-7.3-2.2c1.7,1.8,2.6,3.9,2.5,6.3c0,1.1-0.5,1.9-1.2,2.3
	c2.3,2.3,4.5,4.8,6.6,7.6c-0.2-1.1,0-2.1,1.1-3.3C613.9,61.7,613.5,59.1,611.9,56.5z"/>
<path d="M464.6,69.2c7.2-4.6,14.7-8.7,22-13.2c4.1-2.6,8.5-4.8,12.9-6.8l-24,7.1c-8.4,5.7-16.6,11.7-25,17.5
	c-8.3,5.8-14.6,13.1-19.8,21.3c-8.1,12.9-14.8,26.4-20.1,40.5c-0.2,0.4-0.3,0.8-0.4,1.2l7.8-1.6c4.3-13.2,10.6-25.7,18.2-37.7
	C443.3,86.2,452.9,76.7,464.6,69.2z"/>
<path d="M401.7,78l-10,2.9c-2.2,2.7-4.4,5.5-6.4,8.3l1.2,5.3c1.6-2.2,3.3-4.3,5.1-6.3c1.1-1.2,2.9-2.5,4.6-1
	c1.6,1.4-0.4,2.5-1.2,3.5c-2.6,3-5,6.1-7.2,9.3l1.5,6.9c0.8-1.5,1.7-3,2.5-4.5c0.8-1.5,2.4-2.6,3.6-3.8c0.3,0.1,0.6,0.3,0.9,0.4
	c-0.3,1.3-0.4,2.7-0.9,3.9c-1.5,3.7-3.2,7.3-4.6,10.9l2.4,11c2.1-6.7,4.8-13.3,8.2-19.7c5.9-11.1,14.1-20.8,21.8-30.8
	c0.9-1.2,1.9-2.5,2.9-3.7L414,74.3c-2.5,2.7-5,5.3-7.5,8c-1.4,1.5-2.9,1.4-4.6,0.2c-1.8-1.2-1.6-2.4-0.7-3.8
	C401.4,78.5,401.5,78.2,401.7,78z"/>
<path d="M708.4,92.1c0,0.2,0.1,0.3,0.2,0.4l2.1-9.4l-6.1-1.8C705.9,84.9,707.2,88.5,708.4,92.1z"/>
<path d="M681.8,92.4c-2.5-6.7-5.1-13.4-7.9-20L662.4,69c0.6,2.1,1,4.2,1.4,6.4c0.3,1.6-0.2,3.3-0.6,4.9c-0.2,0.6-1.2,1.2-1.9,1.4
	c-0.4,0.1-1.2-0.9-1.5-1.5c-2.3-4.6-4.6-9.3-6.9-13.9l-5.5-1.6c2.1,3.7,4.1,7.5,6.1,11.3c1.9,3.7,3.8,7.5,5.7,11.3
	c-1.7,1-3.1,1.7-4.6,2.6c-0.6-1.2-1.1-2.3-1.6-3.5c-3.8-7.8-7.5-15.7-11.4-23.5l-7.2-2.1c5.5,9.4,10.7,18.9,13.6,29.4
	c0.2,0.6,0.6,1.1,0.9,1.6c3,5.4,5.9,10.9,9,16.2c1.1,1.9-0.2,2.8-1.6,3.5c-1.8,1-2-0.7-2.4-1.5c-4.1-9.1-8.4-18.1-12.3-27.2
	c-3.6-8.3-8-16.1-13-23.6l-7.5-2.2c5,7,9.9,14,14.9,21c0.9,1.3,1.4,2.8,1.9,4.3c0.3,0.8,0,1.8,0,2.7c-7.1-7.2-13-15-20.9-21.3
	c0.2,1.7,0.6,3.2,1.5,4.4c4.2,5.9,8.3,11.8,12.8,17.5c8,10.1,15,20.6,20.8,31.9c2.5,4.9,5.1,9.7,7.6,14.6l6.9,1.4
	c-2.7-4.7-5.4-9.4-8.2-14.1c-0.4-0.7-0.7-1.3-0.9-2c-0.4-1.5,0.6-2.4,2.2-2.4c1.9,0,2.4,1.3,2.9,2.6c2.2,5.7,4.9,11.3,7.7,16.7
	l6.9,1.4c-7.9-12.6-13.7-26-19.8-39.3c-0.7-1.5,0-2.5,1.5-3c1.4-0.4,2.7-0.5,3.5,1.3c2.3,4.9,4.9,9.6,7.4,14.4c3.1,6,6.2,12,9.5,18
	c1.9,3.5,3.9,6.9,6,10.2l2.8,0.6c0-0.1-0.1-0.2-0.1-0.3c-3.5-8.1-7-16.2-10.5-24.3c-1.7-4.1-3.8-8.1-4.9-12.3
	c-1.7-6.4-2.8-13-4-19.6c-0.2-1,0.2-2.1,0.4-3.1c0.3-0.1,0.6-0.2,1-0.2c0.8,1.4,1.8,2.8,2.4,4.3c3.7,9.5,7.3,19.1,11,28.7
	c0.2,0.6,0.2,1.3,0.2,1.9c0.1,1.6-0.5,3.5,0.2,4.9c2.5,5.1,5.2,10.2,8,15.1c0.9,1.5,2.3,2.8,3.6,4.1c0.5,0.5,1.5,0.7,2.7,1.2
	c-0.3-0.9-0.3-1.3-0.5-1.6C692.2,121.7,687.2,107,681.8,92.4z"/>
<path d="M632.5,109.4c3.4,8.9,5.5,15.8,6.2,18.2l2.6,0.5C638.4,121.9,635.4,115.7,632.5,109.4z"/>
<path d="M401.3,137.9c2.5-17.2,9.6-32.6,19.2-47.2c1.3-2.1,3.2-3.9,5-5.7c0.6-0.7,1.6-1,2.4-1.5c0.2,0.1,0.4,0.2,0.5,0.3
	c-0.2,0.7-0.2,1.5-0.6,2.2c-0.9,1.6-1.9,3.1-3,4.6c-9.2,11.8-14.6,25.3-19.8,38.9c-0.6,1.6-0.3,3.5-0.4,5.2c0.4,0.1,0.8,0.2,1.3,0.3
	c1-1.8,2.2-3.4,3-5.3c2.5-5.7,4.7-11.5,7.4-17.1c8.5-17.9,20.5-33.5,37.7-45.3c2.1-1.5,4.1-3.1,6.2-4.5c1.6-1.1,3.3-2.3,4.9-3.4
	l-25.4,7.5c-0.6,0.6-1.2,1.1-1.9,1.7c-2.7,2.2-5.8,4.1-8.4,6.4c-3.4,2.9-7,5.8-9.5,9.3c-12.6,17-20.3,35.1-23.8,54.2l0.3,1.3l4.8-1
	C401.2,138.4,401.2,138.2,401.3,137.9z"/>
<path d="M454.5,127.3c-0.7-0.2-1.4-0.4-2-0.7c-2-1-3.9-0.6-5.6,0.6c-1.2,0.9-2.3,1.8-3.2,2.8l12-2.4
	C455.3,127.5,455,127.4,454.5,127.3z"/>
<path d="M699.3,106.1c-3.2-6.3-5.5-13.1-8-19.8c-1.3-3.4-2.6-6.8-4.1-10.1l-7.2-2.1c2.2,4.8,4.2,9.5,6.2,14.4
	c0.3,0.7,0.5,1.4,0.7,2.1c0.8,3.4,1.2,7,2.6,10.3c3.7,9,7.5,17.9,11.3,26.8l2.7-12.3C702.3,112.4,700.9,109.2,699.3,106.1z"/>
<path d="M493.3,57.4c-4.7,1.9-9.3,4.1-13.5,6.9c-19.1,12.5-34.9,27.8-46.5,46.5c-4.6,7.5-8.9,15.2-11.3,23.6l6.1-1.2
	c1.4-4,3.1-8,5-11.9c7-14.4,16-27.6,28.8-38.2c6.7-5.5,13.7-10.3,21.2-14.4C486.3,64.4,489.7,60.6,493.3,57.4z"/>
<path d="M615,73.9c7.4,11.2,13.2,24.2,17.2,34.7c-0.4-1.2-0.5-2.5-0.8-3.8c0.3-0.1,0.6-0.2,0.9-0.4c1.1,1.5,2.4,2.8,3.2,4.4
	c3.4,6.7,6.8,13.4,10.1,20.1l7.8,1.6c-0.2-0.5-0.4-0.9-0.6-1.4c-5.8-12.9-13.2-25-22.5-36.1C625,86.8,620.1,80.3,615,73.9z"/>
<path d="M477.8,76.6c-14.2,8.3-26.1,19.1-35.2,32.9c-4.9,7.4-8.3,15-10.7,22.9l5.7-1.2c0.1-0.2,0.1-0.4,0.2-0.6
	c5.7-15.9,16.6-28.8,29-40.7c2-1.9,4.1-3.7,6.2-5.4C474.7,81.9,476.2,79.2,477.8,76.6z"/>
<path d="M463.7,102.1c-0.4-0.2-1.5,0.1-1.9,0.5c-4,4-7.6,8.2-9.3,13.5c-0.3,1-0.3,2.1-0.5,3.1c0.3,0.1,0.5,0.2,0.8,0.3
	c0.8-0.5,1.8-0.8,2.3-1.4c2.4-2.9,4.6-5.9,6.9-8.9c0.8-2,1.6-4.1,2.5-6.3C464.3,102.6,464,102.2,463.7,102.1z"/>
<path d="M353.6,139.6l0.2-1.1c-0.3,0.3-0.5,0.7-0.7,1L353.6,139.6z"/>
<path d="M312.3,67.3c0,2.6-0.1,5.2,0.1,7.8C313,91,309,105.9,302,120.3c-1.3,2.7-2.7,5.4-4.2,8l5,1c5.7-9.4,10.8-19.3,12-30.4
	c0.3-2.9,0.7-5.9,0.9-8.8c0.6-7.1,1.4-14.2,1.7-21.3L312.3,67.3z"/>
<path d="M295.2,102.9c0.1-2.4,0.1-4.7,0-7.1c0-1-0.4-2-0.6-3c-2.8,0.1-3.8,1.6-4.3,3.5c-0.5,2.1-0.7,4.2-1.1,6.3
	c-0.6,3-2,4.4-4.1,4.4c1.3,2.5,2.4,4.9,3.4,7.1C292.4,111.3,295.1,107.8,295.2,102.9z"/>
<path d="M289.3,72.8c0.6,1.3,0.8,2.9,0.7,4.3c-0.1,0.8-1.1,1.6-1.5,2c-3.2-0.3-4.8-1.5-5.7-3.5c-1.6-3.8-3.4-7.5-4.8-11.4
	c-1.1-2.9-2.4-5.6-3.9-8.2l-24-7.1c0,1.2-0.1,3-0.6,5.1c1.7,1.8,3.2,3.8,4.6,5.9c3.4,5,7,10,10,15.2c0.1,0.2,0.2,0.4,0.3,0.5
	c3.8,4.2,7.3,8.8,10.4,13.6c-0.6-7.8-3.4-15.3-8.2-22.3c-1-1.4-2-2.9-2.6-4.5c-1.1-2.5-0.1-3.6,2.8-3.1c1.1,0.2,2.2,1,3.2,1.7
	c0.7,0.5,1,1.3,1.6,1.9c4.9,5,7,10.8,7.5,17.5c0.4,5.5,0.8,10.9,0.4,16.3c0.9,1.6,1.8,3.2,2.6,4.7c0.1-0.2,0.1-0.3,0.2-0.5
	c0.8-2.4,1.2-4.9,1.4-7.4c0.1-2.6-0.1-5.2-0.5-7.7c-0.3-2,0.6-2.4,2.4-2c2.3,0.5,4.5,1.2,6.8,1.6c3.4,0.6,5-0.5,4.6-3.6
	c-0.6-4.4-1.3-8.9-2.8-13.2c-0.9-2.7-2-5.3-3.2-7.8l-7.9-2.3C285.3,63.4,287.3,68.1,289.3,72.8z"/>
<path d="M333.9,103.7c-1.5,10.6-4.9,20.6-9.4,30.1l4.4,0.9c8.7-18.5,12.6-38.1,12.5-58.7l-5.9-1.7C336,84,335.4,93.8,333.9,103.7z"
	/>
<path d="M247.5,62.3c1.2,0.6,2.4,1.2,3.5,1.9c-1-1.6-2-3.2-3.1-4.8c-0.4,0.8-0.8,1.6-1.3,2.4C246.9,62,247.2,62.1,247.5,62.3z"/>
<path d="M307.1,130.2l6.1,1.2c4.3-8.3,8.1-16.7,11.4-25.4c2.5-6.7,3.9-13.6,3.8-20.7c0-4.4-0.1-8.8-0.2-13.3l-5.9-1.8
	c-0.1,3.5-0.2,7-0.3,10.4c-0.2,4.6-0.6,9.3-1.6,13.9C317.7,107.1,313.1,118.9,307.1,130.2z"/>
<path d="M340.5,136.9c1.9-4.6,4.2-9.2,5.6-14c2.7-8.8,4.7-17.8,7-26.7c0.2-0.7,0.2-1.5,0.4-2.2c0.3-1.6,1.5-2.8,3.1-2.4
	c1.1,0.3,2.5,1.7,2.5,2.7c0,4,0.1,8.1-0.8,11.9c-2.7,11.2-8.4,21.4-14.1,31.4l5.1,1c2.7-4.2,5.1-8.5,7.3-12.9l8.8-40
	c-0.1-1-0.3-2-0.5-3l-4.6-1.4c-0.1,1-0.4,2-0.6,2.9c-0.3,1.2-1,2.7-2.9,2.3c-1.8-0.4-2.5-1.6-2.6-3.4c-0.1-1.2-0.1-2.4-0.2-3.6
	l-6.2-1.8c0.2,3.6,0.1,7.1-0.2,10.8c-1.4,16.5-5.6,32.2-13.4,47.1L340.5,136.9z"/>
<path d="M318.9,129.1c-0.5,1.1-1,2.1-1.6,3.2l4.1,0.8c3.3-6.8,6.1-13.8,8.8-20.9c0.6-1.6,0.3-3.5,0.4-5.2c-0.4-0.1-0.8-0.2-1.3-0.3
	c-1,1.8-2.2,3.4-3,5.3C323.8,117.7,321.6,123.5,318.9,129.1z"/>
<path d="M299.4,71.1c2,6.5,4.2,13.1,2.9,19.9c-1.3,6.7-2.7,13.5-5.1,20c-1.4,4-3.2,7.8-5.2,11.5c1,2.4,1.6,4.2,2,5.2h0.1h0.1l1,0.2
	c10.8-18.7,12.9-39.1,12.9-59.9c0-0.6,0-1.2,0-1.8l-11.6-3.4C297.6,65.4,298.5,68.2,299.4,71.1z"/>
<path d="M285.4,173.4c-1.3-3-2.7-6.1-4-9.1c-4.3-9.9-9.4-19.3-16.5-27.2c-1.4-1.6-2.6-3.5-3.9-5.3c-0.5-0.7-0.8-1.6-1.3-2.9
	c1.1,0.2,1.7,0.2,2.1,0.4c3.6,1.9,7.1,3.9,9.4,7.8c5,8.3,10.1,16.5,15.1,24.8c0.2-2.2,0.4-4.3,0.6-6.2c-1.2-1.7-2.4-3.4-3.6-5.1
	c-2-2.9-3.7-6-5.4-9.1c-0.4-0.7,0.1-2,0.2-3c0.8,0.4,1.9,0.5,2.5,1.2c2.4,3.1,4.8,6.2,7.2,9.3c0.4-2.6,0.7-4.8,1.1-6.8
	c-2.4-2.6-4.8-5.2-7.1-7.9c-0.7-0.8-1.2-1.8-1.8-2.7c0.2-0.3,0.4-0.6,0.6-0.8c1.8,1,3.7,1.7,5.3,2.9c1.4,1.1,2.8,2.1,4.1,3.3
	c0.4-1.6,0.8-2.9,1.1-4c-5.8-5.3-11.7-10.6-17.5-15.9c-5.7-5.2-11.4-10.6-17-15.9c-5.5-5.2-11.1-10.4-16.6-15.7
	c-1.5-1.4-1.4-2.9-0.2-4.6c1.2-1.8,2.4-1.6,3.8-0.7c1.6,1.1,3.2,2.1,4.6,3.4c3.1,2.9,6.1,5.9,9.1,8.9c11.8,11.8,23.7,23.6,35.4,35.5
	c0.2,0.2,0.3,0.4,0.5,0.5c0,0,0,0,0,0c-0.4-1.1-1.6-4.4-3.5-8.9c-14-14.3-27.7-28.8-41.7-42.9c-2.5-2.5-5.2-4.9-8-7.1
	c-1.4,1.3-2.8,2.5-4.3,3.6c0.1,0.7-0.1,1.3-0.7,2c-0.8,0.9-1.6,0.6-2.2,0c-2.2,1.5-4.3,2.7-6.2,3.5c-2.4,1.1-5.2,2-7.7,2.8
	c10.3,5.8,19.5,13.5,29,20.8c6,4.6,11.6,9.7,17.3,14.7c1.7,1.5,2.9,3.6,4.1,5.6c0.4,0.7,0.6,2.3,0.2,2.9c-0.4,0.5-1.8,0.6-2.6,0.3
	c-5.1-1.6-9.4-4.6-12.9-8.9c-2.2-2.7-4.1-5.8-6.4-8.4c-2.9-3.4-5.8-7-9.3-9.5c-8.6-6.4-17.5-11.5-26.7-15.5
	c-3.1,0.7-6.2,1.1-9.2,1.2c10.2,3.6,19.9,8.7,29.3,14.8c2.1,1.3,3.9,3.2,5.7,5c0.7,0.6,1,1.6,1.5,2.4c-0.1,0.2-0.2,0.4-0.3,0.5
	c-0.7-0.2-1.5-0.2-2.2-0.6c-1.6-0.9-3.1-1.9-4.6-3C220,94.4,206.5,88.9,193,83.8c-1.6-0.6-3.5-0.3-5.2-0.4c-0.1,0.4-0.2,0.8-0.3,1.3
	c1.8,1,3.4,2.2,5.3,3c5.7,2.5,11.5,4.7,17.1,7.4c17.9,8.5,33.5,20.5,45.3,37.7c1.5,2.1,3.1,4.1,4.5,6.2c9.9,14.1,18.8,28.7,25,44.9
	C284.9,180.2,285.1,176.7,285.4,173.4z"/>
<path d="M260.8,338.8c7.7-0.4,14.4-0.9,19.9-1.4c1.4-0.8,2.8-1.7,4.2-2.6c0.7-0.4,1.4-0.8,2.1-1.2c-0.4-2.9-0.7-5.9-1-9.1
	c-2.5,1.9-5,3.6-7.6,5.3C272.7,333.5,266.9,336.5,260.8,338.8z"/>
<path d="M282.7,104.4c-3.1-6-6.9-12.5-11.3-18.6c-7.9-8.7-16.5-16.2-25.7-22.9c-0.9,1.2-1.8,2.4-2.9,3.5c4.5,3.1,8.8,6.5,12.7,10.4
	C264.7,86,273.7,95.2,282.7,104.4z"/>
<path d="M284.2,194.8c-0.8-2.6-1.5-5.2-2.3-7.8c-3.1-10.8-7.8-20.7-13.8-29.8c-6.3-9.4-13-18.5-19.5-27.8
	c-5.8-8.3-13.1-14.6-21.3-19.8c-12.9-8.1-26.4-14.8-40.5-20.1c-6.7-2.5-13.6-3.9-20.7-3.8c-10.9,0.1-21.9,0.4-32.8,0.7
	c-1.3,1.9-2.6,3.7-3.8,5.6c1.5-0.1,3-0.2,4.5-0.3c9.2-0.2,18.4,0,27.5,0.3c4.6,0.2,9.3,0.6,13.9,1.6c17.7,3.8,34,11.6,49.5,21.4
	c11.3,7.2,20.8,16.8,28.3,28.4c4.6,7.2,8.7,14.7,13.2,22c6.6,10.6,11,22.2,14.4,34.3c1.1,4,2.1,8,2.8,12.1
	C283.7,205.9,283.9,200.2,284.2,194.8z"/>
<path d="M144.2,337.1c-0.8,0.5-1.5,1-2.3,1.4c2.9,0.2,5.9,0.3,9.1,0.5c4.6-2.9,9.1-5.7,13.4-8.4c1.9,0.1,3.6,0.6,4.9,0.1
	c5.8-2.2,11.5-4.6,17.1-7.1c8.9-4.1,17.7-8.4,26.6-12.5c1.3-0.6,2.9-0.7,4.4-1c0.1,0.3,0.2,0.6,0.4,0.9c-1.5,1.1-2.8,2.4-4.4,3.2
	c-6.9,3.6-13.9,7.1-20.9,10.5c-10.1,4.9-20.3,9.6-30.4,14.8c4,0.2,8.1,0.3,12.3,0.4c6.2-2.8,12.4-5.7,18.7-8.5
	c12.9-5.8,25-13.2,36.1-22.5c7.6-6.3,15.4-12.2,23.1-18.4c2.1-1.7,3.8-2.2,5.8-0.3c2.5,2.4,5.1,2,7.8,0.3c0.9-0.6,1.8-1.1,2.6-1.8
	c6.5-5.3,11.4-11.5,14.6-18.7c-0.2-12.5-0.2-25.2-0.1-37.5c-0.2,1.3-0.3,2.7-0.4,4.1c-0.5,7.2-0.8,14.5-1.3,21.7
	c-0.7,8.6-4,15.9-9.6,22c-2,2.1-4.3,3.4-7.1,3.3c-1.8-0.1-3-1.2-2.5-3.1c0.5-2.1,1.2-4.5,2.5-6c3.7-4.2,6.2-9,8-14.4
	c1.8-5.4,3.5-10.9,5.4-16.4c2.7-7.9,3.1-16.1,1.6-24.2c-2.5-13.4-6.9-26.3-11.5-39c-2.8-7.7-5.7-15.4-10.2-22.2
	c-12.5-19.1-27.8-34.9-46.5-46.5c-9.9-6.1-20.2-11.6-31.8-12.9c-2.9-0.3-5.9-0.7-8.8-0.9c-8.4-0.7-16.8-1.8-25.2-1.7
	c-7.2,0-14.2,1.2-20.9,3.4c-1.3,2.3-2.5,4.6-3.6,6.7c5-1.9,10.1-3.3,15.4-4.2c6.3-1.1,12.8-0.5,19.3-0.7
	c15.9-0.7,30.8,3.3,45.2,10.3c14.4,7,27.6,16,38.2,28.8c18,21.7,27.9,47.7,34.1,75.7c0.8,3.4,0.7,7.1,1,10.7c-2.8,0.3-4-0.8-4.7-3.6
	c-1-4.2-1.9-8.4-3-12.6c-0.4-1.5-1.1-2.9-1.7-4.4c-0.3,0.1-0.6,0.1-0.9,0.2c-0.2,1.1-0.5,2.3-0.4,3.4c0.3,5.2,0.5,10.5,1.1,15.6
	c1.3,10.1-0.2,19.4-4.6,28.4c-5.1,10.4-12.4,18.1-21.9,23.5c-12.4,7.1-25.6,12.3-38.8,17.2c-13.1,4.9-25.5,11.2-37.1,19.3
	c-7.5,5.2-14.8,10.6-22.4,15.7c-3.6,2.4-7.4,4.4-11.2,6.4c-0.8,0.4-1.7,0.6-2.6,0.9c-0.1-0.2-0.3-0.5-0.4-0.7
	c1.6-1.6,3.1-3.3,4.9-4.6c10.8-8,21.4-16.2,32.4-23.7c13-8.8,26.4-17,41.5-20.9c10.2-2.6,20-6.5,29.4-11.5c2.8-1.5,5.3-3.4,7.9-5.3
	c0.6-0.5,0.9-1.6,1.3-2.4c-0.8-0.3-1.8-1-2.5-0.8c-3.5,0.9-7,1.9-10.4,3.2c-4.7,1.8-9.2,4.2-13.9,5.8c-3.1,1-6.4,1.3-9.6,1.6
	c-1.1,0.1-2.5-0.6-3.4-1.4c-1.5-1.3-1.3-2.6,0.5-3.6c1.8-0.9,3.7-1.7,5.6-2.4c8.1-2.7,16.1-5.3,24.2-7.9c3.7-1.1,7.4-1.6,11,0.6
	c0.7,0.5,2.1,0.3,2.9-0.1c1.3-0.7,2.5-1.7,3.5-2.8c3.7-3.9,5.2-9.1,6.3-14.4c2-9.9,1.6-19.8,0.5-29.8c-2.7-23.5-11.5-44.1-25.5-62.1
	c-1.6-2.1-3.8-3.8-5.9-5.3c-0.9-0.7-2.4-0.5-3.6-0.7c0.4,1.2,0.6,2.6,1.3,3.6c2.3,3.2,5,6.1,7.2,9.5c3.5,5.6,6.8,11.3,10,17.1
	c10.4,18.2,13.7,38.1,11.4,59.3c-0.4,3.9-1.2,7.8-2,11.6c-0.2,0.9-0.8,1.7-1.2,2.5c-0.3-0.1-0.5-0.1-0.8-0.2
	c-0.1-1.8-0.4-3.6-0.3-5.4c0.3-4.9,0.9-9.8,1.2-14.6c0.5-8.8,1.3-17.9-2-26.2c-4.3-10.8-9.4-21.3-14.2-31.9
	c-0.1-0.3-0.3-0.6-0.5-0.8c-5.5-6.4-10.8-13.1-16.6-19.1c-5.4-5.6-11.6-10.2-18.5-13.5c-3.4-1.6-4-2.9-2.9-6.7
	c0.2-0.7,0.4-1.4,0.7-2c1-2,0.6-3.9-0.6-5.6c-2.9-4-6.5-6.7-11.4-6.9c-2.4-0.1-4.7-0.1-7.1,0c-1,0-2,0.4-3,0.6
	c0.1,2.8,1.6,3.8,3.5,4.3c2.1,0.5,4.2,0.7,6.3,1.1c3.7,0.8,5,2.6,4.3,5.8c-0.5,2.1-2.2,2.2-5.8,1c-2.4-0.8-4.9-1.2-7.4-1.4
	c-2.6-0.1-5.2,0.1-7.7,0.5c-2,0.3-2.4-0.6-2-2.4c0.5-2.3,1.2-4.5,1.6-6.8c0.6-3.4-0.5-5-3.6-4.6c-4.4,0.6-8.9,1.3-13.2,2.8
	c-12.7,4.5-23.6,11.9-33.7,20.6c0.4,1.8,0.7,3.9,1.1,6.3c4.8-5.3,10.1-9.9,16.6-13.1c6.5-3.2,13.2-6,19.9-8.8
	c1.3-0.6,2.9-0.8,4.3-0.7c0.8,0.1,1.6,1.1,2,1.5c-0.3,3.2-1.5,4.8-3.5,5.7c-3.8,1.6-7.5,3.4-11.4,4.8c-8.6,3.2-15.9,8.4-22.4,15.2
	c-1.5,1.6-3,3.1-4.5,4.6c0.3,2.5,0.6,5.3,0.8,8.3c2.2-2.4,4.4-4.8,6.5-7.1c1.1-1.2,2.8-2,4.4-2.6c1.4-0.6,2.1,0.3,1.5,1.8
	c-0.5,1.2-1.2,2.4-1.9,3.5c-2.8,4.5-5.8,8.9-8.5,13.4c-0.4,0.7-0.8,1.3-1.2,2c0.2,3.2,0.4,6.5,0.6,10.1
	c4.6-10.3,11.1-19.1,20.3-25.3c5-3.4,10-7,15.2-10c13.5-7.8,27.2-9,41-0.4c1.9,1.2,3.8,2.2,5.7,3.3c19.3,11.7,32.8,28.8,39.7,51.7
	c4.1,13.7,4.5,27.6-0.4,41.4c-1.3,3.8-3.5,6.5-6.7,8.7c-7,4.9-14.7,7.7-22.8,9.6c-4.5,1-8.9,2.4-13.5,2.8
	c-6.6,0.6-11.2,3.8-13.6,10.5c-0.4,1-0.2,2.3-0.3,3.4c1-0.1,2-0.2,2.9-0.4c1.6-0.4,3.6-1.7,4.5,0.6c0.8,2.2-1.3,3.1-2.8,3.9
	c-4.2,2.4-8.4,4.8-12.5,7.2c-1.6,1-3.1,1.6-4.6-0.1c-1.3-1.6-1-3.7,0.5-5.6c2.1-2.7,4-5.5,6-8.3c3.1-4.3,5.9-8.9,9.3-12.9
	c3-3.7,7-5.3,11.6-4.3c1.4,0.3,2.8,0.4,4.2,0.3c11.2-1.2,21.7-4.8,31-12c1.9-1.4,3.3-3.9,4.2-6.3c2.5-6.3,0.3-12-2.6-17.6
	c-2.3-4.4-4.5-8.9-6.2-13.5c-4.7-12.2-9.4-24.4-18.6-33.6c-5.6-5.7-11.6-10.8-18.3-14.8c-2.3-1.4-4.6-3-6.8-4.6
	c-0.6-0.5-1.1-1.3-1.6-1.9c0.1-0.2,0.2-0.4,0.3-0.6c1.1,0.2,2.2,0.3,3.2,0.7c8.2,3.2,16.2,7,22.5,13.7
	c12.2,13.1,22.4,27.6,25.6,46.6c0.3,1.6,1.1,3.1,1.7,4.6c0.3-0.1,0.5-0.1,0.8-0.2c1.2-2,1.4-4.4,1-6.6c-0.8-4.8-1.5-9.8-3.2-14.2
	c-9.2-23.6-24.2-41-46.7-49.9c-6.3-2.5-12.5-3-19-0.3c-12.3,4.9-24.3,10-35,18.5c-5.4,4.3-9.5,9.7-12.1,16.3
	c-1.2,3.1-2.4,6.2-3.4,9.4c0.2,3.9,0.3,8,0.5,12.2c0.1-0.4,0.1-0.8,0.2-1.2c1.1-7.2,4.5-12.8,8.3-18.3c0.4-0.5,1.3-1.1,1.8-0.9
	c0.7,0.2,1.6,1,1.9,1.7c0.3,0.8,0,1.9-0.4,2.7c-2.4,5.8-5.3,11.4-7.1,17.4c-1.5,5-2.9,10-4.3,14.9c0.1,5.3,0.2,10.6,0.2,16.1
	c3.2-14.2,8.1-27.6,14.4-40.5c2-4.2,4.9-8.1,6.1-12.6c1.2-4.4,4.1-6.2,6.9-8.4c2.7-2.2,5.6-4.2,8.5-6.2c5.4-3.9,11.4-6.1,17.6-7.6
	c1-0.2,2-0.2,3-0.3c0,0.2,0.1,0.4,0.1,0.7c-0.7,0.3-1.5,0.6-2.2,0.8c-6.1,1.7-11.3,5-16,9.6c-6.8,6.6-12.5,14.1-16.7,22.9
	c-1.4,3-3,5.9-4.7,8.7c-5.6,9.4-8.9,19.8-11.2,30.5c-0.2,0.8,0.3,2.2,0.8,2.6c0.6,0.4,2.1,0.1,2.5-0.5c1.3-1.6,2.5-3.4,3.3-5.4
	c2.4-5.5,4.9-11,6.8-16.8c3.2-9.7,8-18.3,13.1-26.7c5.9-9.6,13.9-16.2,23.6-20.3c2-0.9,4.3-1.4,6.5-1.2c3,0.2,6.1,0.8,8.8,2.1
	c8.2,4,15,10,20.6,17.6c1.2,1.7,2.6,3.5,2,6.2c-1.7-1-3.1-2.3-4.5-3.6c-3.9-3.6-7.5-7.5-11.6-10.9c-8.2-6.7-16.9-7.6-25.9-1.8
	c-13.4,8.7-22.2,21.5-27.2,37.4c-2.9,9.3-5.2,18.8-7.8,28.2c-3.3,11.7-8.4,22.2-16.9,30.3c0,2-0.1,4-0.1,6
	c4.9-5.2,9.8-10.3,14.7-15.6c1.1-1.2,2-2.8,2.7-4.3c5.1-11.1,8.4-22.9,11.3-34.7c3.5-14.3,8.7-27.5,17.5-38.9
	c4.7-6,10.8-8.3,17.7-8.2c3.9,0,7.6,1.4,10.5,4.4c5.9,6.2,11.8,12.4,17.9,18.4c7.3,7.2,13.3,15.6,18.9,24.3c3,4.7,3.9,10.1,1.8,15.6
	c-0.3,0.9-1.6,1.3-2.4,1.9c-0.3-1-0.9-2-0.8-2.9c0.5-3.6-0.1-6.9-1.9-9.9c-1.8-2.9-3.6-5.9-5.8-8.5c-7.9-9.5-15.9-18.8-24-28.1
	c-3.2-3.7-7.2-6.1-11.6-7.8c-6.9-2.5-13.4-0.2-18.1,5.9c-6.7,8.8-10.4,19-13,29.8c-2.4,10.3-5.1,20.5-7.8,30.7
	c-2.1,7.7-6,14.1-11.4,19.5c-3.5,3.5-6.9,7.3-10.4,10.9c-1,1.1-2.2,1.9-3.2,3c-0.9,0.9-1.8,1.8-2.7,2.6c-0.1,2.4-0.2,4.9-0.3,7.3
	c2.7-3.5,5.7-6.7,8.9-9.8c3.6-3.4,7.3-6.6,10.6-10.3c6.9-7.6,13.3-15.7,15.8-26.3c1.9-7.7,3.2-15.5,5-23.2
	c1.2-5.3,2.7-10.5,4.2-15.7c0.5-1.6,1.4-2.8,3.1-2c1.8,0.8,1.8,2.3,1.3,4c-0.4,1.6-1,3.2-1.3,4.9c-1.1,5.9-3.3,11.4-3.3,17.7
	c0,12.2-3.4,23.1-11,32.3c-1.6,1.9-2.7,4.3-4.2,6.2c-2.5,3.1-5.1,6-7.8,8.8c-1.7,1.8-3.8,3.1-5.5,4.9c-4.4,4.4-8.6,8.8-12.9,13.3
	c-0.6,0.6-0.9,1.5-1.4,2.2c0.1,0.2,0.3,0.4,0.4,0.6c0.9-0.4,1.9-0.6,2.6-1.3c2.8-2.4,5.6-5,8.4-7.5c0.8-0.7,1.8-1.4,2.8-1.7
	c1.7-0.4,2.6,0.8,1.6,2.4c-1.1,1.8-2.4,3.5-3.9,4.8c-2.8,2.5-5.9,4.6-8.8,7c-0.9,0.7-1.6,1.7-2.4,2.6c0.1,0.2,0.2,0.4,0.3,0.6
	c0.9-0.2,1.9-0.2,2.6-0.6c3.6-1.8,7.5-3.3,10.7-5.8c9.1-7.1,17.9-14.5,26.7-22c5.4-4.6,10.1-10.1,12.3-17.3
	c1.3-4.2,2.3-8.5,2.8-12.9c1.4-11.1,1.4-22.2-2.2-32.9c-1.9-5.7-0.5-10.6,2.7-15.1c2.2-3,5-2.6,7,0.5c0.5,0.9,1.1,1.7,1.6,2.6
	c4.4,7.4,8.7,14.7,13.1,22.1c0.8,1.4,2,2.6,2.9,3.9c1.1,1.5,2.2,3.1,3,4.7c1,1.9,0.3,3.1-1.6,2.8c-1.4-0.2-2.9-1.1-4.1-2.1
	c-4.1-3.9-6.5-9.1-9-14.2c-1.4-2.9-2.9-5.8-4.6-8.5c-1-1.7-2.4-3.5-4.5-2.7c-2.2,0.9-1.8,3.3-1.5,5.3c0.6,3.4,1.5,6.7,2,10.1
	c0.8,6,1.6,11.9,2,17.9c0.7,11.2-3.4,20.6-9.9,28.9c-7.5,9.7-16.9,17-26.1,24.6c-7.7,6.3-15.2,13-22.9,19.5c-2.6,2.2-5.2,4.6-8,6.7
	c-0.2,2.1-0.4,4.3-0.7,6.3c0.3-0.3,0.7-0.7,1-1c14.3-13.8,30.6-24.5,46-36.7c0.1-0.1,0.2-0.2,0.4-0.3c0.8,0,1.7-0.4,2.3,0
	c0.5,0.4,1,1.7,0.8,2.2c-0.6,1.4-1.5,3-2.6,3.9c-4.1,3-8.4,5.7-12.6,8.6c-2.7,1.9-5.3,4.1-8.1,5.8c-10,5.9-18.3,14-26.3,22.8
	c4.3,0.4,9.8,0.8,16.3,1.2c10.2-6.2,20.3-12.6,29.8-20c6-4.7,12.5-8.7,19.6-11.3c1-0.4,2.1-0.5,3.2-0.7c0.1,0.3,0.2,0.6,0.3,0.9
	c-2.2,1.7-4.3,3.5-6.6,5.1C169.3,320.6,157,329.3,144.2,337.1z M186.9,140c-0.5,0.2-1.2,0.1-2,0.2c-1.2-0.2-2.7-0.4-4.2-0.6
	c-11.9-2-22.8,0.7-33,7.7c-1.4,1-2.9,2-4.5,2.6c-2.5,1.1-3.6,0.1-3.1-2.8c0.2-1.1,1-2.2,1.7-3.2c0.5-0.7,1.3-1,1.9-1.6
	c5-4.9,10.8-7,17.5-7.5c7.5-0.5,15-1.1,22.5,0.4c1.2,0.3,2.5,0.6,3.6,1.2c0.7,0.4,1,1.4,1.5,2.1C188.3,139,187.6,139.6,186.9,140z
	 M162,164.8c-9.5,3.8-17.7,9.5-23.9,18.4c-0.3,0.4-0.6,0.7-1,1.2c-3.9-2.2-3.9-2.3-1.1-5.8c9.5-11.5,21.4-17.7,35.2-20.1
	c1.6-0.3,3.3,0,4.9,0c0.1,0.3,0.1,0.7,0.2,1c-1.2,0.6-2.3,1.2-3.6,1.7C169.2,162.5,165.5,163.4,162,164.8z M174.4,227.2
	c0.3,6.3,0.9,12.7,0.8,19c-0.2,8.2-2.8,15.6-7.6,21.9c-5.3,7-11.5,13.2-18.4,18.4c-1.9,1.4-3.6,2.9-6.8,3.2c0.7-1.6,1-2.9,1.7-3.7
	c3-3.5,6-6.9,9.1-10.2c4-4.2,8.2-7.9,11.5-12.9c3.4-5.1,5-10.4,5.2-16.5c0.2-5.1,0.6-10.3,1-15.4c0.2-2.4,0.2-5,2.7-7.4
	C174,225.2,174.4,226.2,174.4,227.2z M189.7,234.4c-0.2-0.9,0.1-2,0.2-3c0.3-0.1,0.5-0.1,0.8-0.2c0.4,0.7,0.9,1.4,1.3,2.1
	c0.8,1.8,1.7,3.6,2.4,5.4c1.5,4.3,4.5,6.9,8.2,8.7c4.8,2.3,9.3,1.2,12.3-3.1c2.7-3.9,2.4-8.8-0.9-13c-8-10.3-16.1-20.5-24.2-30.8
	c-2-2.6-4.3-4.7-7.5-5.1c-1.9-0.2-3.5,0.3-4.7,1.9c-0.8,1-1.7,2.2-2.7,2.7c-0.9,0.4-2.3,0.2-3.2-0.3c-0.3-0.2-0.3-2.1,0.1-2.8
	c3-5.8,10.1-10.1,17.3-5.2c4.4,3,7.9,7,11.2,11.2c7.1,9.1,14.2,18.3,21.3,27.4c4.8,6.1,3.7,14.5-2.7,19.3
	c-5.8,4.3-12.2,5.9-19.2,4.6c-3.6-0.7-5.6-3.7-6.7-7C191.4,243.1,190.6,238.7,189.7,234.4z M198.2,306.5c7.9-4.6,16-8.6,24-13.1
	c6.4-3.6,12.8-7.1,18.9-11.1c16.5-10.7,24.9-27.4,28.2-47.4c0.1-0.6,0.1-1.1,0.2-1.7c0-0.1,0.2-0.3,0.3-0.5c0.5,0.3,1.1,0.7,1.6,1
	c0.6,0.3,1.2,0.5,2,0.8c-0.1,0.6-0.1,1.3-0.2,1.9c-2.9,10.9-6.5,21.5-12,31.3c-3.2,5.8-7.4,10.7-12.5,14.5
	c-15.4,11.3-32,20.1-48.7,28.8c-6.3,3.3-12.4,6.8-18.6,10.2c-1.3,0.7-2.7,1.2-4.1,1.9c-0.2-0.3-0.4-0.6-0.6-1c1.4-1.4,2.7-3,4.3-4.1
	C186.7,314,192.3,310,198.2,306.5z"/>
<path d="M180.3,79.5c-0.7-0.3-1.5-0.7-2.2-1.1c-2.2-1.2-4.9-3.1-7.6-5.3c-8.4-0.7-17-0.7-25.7,0c-0.2,0-0.3,0-0.5,0
	c-2.4,2.3-4.6,4.9-6.8,7.5C151.6,77.7,165.9,77.8,180.3,79.5z"/>
<path d="M162.5,66.2c-1.3-1.2-2.5-2.3-3.6-3.4c0,0,0,0,0-0.1c-0.3,0.1-0.6,0.3-0.9,0.4c-2.2,1.1-4.3,2.3-6.3,3.8
	C155.3,66.4,158.8,66.2,162.5,66.2z"/>
<path d="M259,295.6c-1.7,0.2-3.2,0.6-4.4,1.5c-5.9,4.2-11.8,8.3-17.5,12.8c-10.1,8-20.6,15-31.9,20.8c-6.2,3.1-12.3,6.4-18.4,9.7
	c2.7,0,5.5,0.1,8.3,0.1c0.6,0,1.4,0,2.3,0c2-1.1,3.9-2.3,5.9-3.4c0.7-0.4,1.3-0.7,2-0.9c1.5-0.4,2.4,0.6,2.4,2.2
	c0,1.1-0.4,1.7-1,2.1c1.6,0,2.8,0,3.6,0c2.2,0,4.4,0,6.5,0c3.2-1.4,6.3-2.9,9.5-4.3c1.5-0.7,2.5,0,3,1.5c0.3,1,0.4,1.9-0.1,2.6
	c4-0.1,7.9-0.2,11.6-0.4c0.2-0.4,0.9-1,1.5-1.2c9.3-4.7,18.7-9.3,28.1-13.9c1.5-0.8,3.2-1.5,4.5-2.6c3.4-2.7,6.8-5.4,10.2-8
	c-0.1-1.7-0.3-3.5-0.4-5.3c-11.8,9.4-25,16.5-38.2,23.4c-3.7,1.9-7.5,3.8-11.3,5.7c-1-1.7-1.7-3.1-2.6-4.6c1.2-0.6,2.3-1.1,3.5-1.6
	c10.6-5.2,21.3-10.1,31.7-15.6c6.1-3.2,11.6-7.2,16.7-11.9c-0.1-2.1-0.2-4.2-0.3-6.3c-0.4,0.4-0.8,0.7-1.2,1.1
	c-3.8,3.4-8,6.4-12.4,8.9c-12.4,7.1-24.5,14.9-38.2,18.8c-0.6,0.2-1.1,0.6-1.6,0.9c-5.4,3-10.9,5.9-16.2,9c-1.9,1.1-2.8-0.2-3.5-1.6
	c-1-1.8,0.7-2,1.5-2.4c9.1-4.1,18.1-8.4,27.2-12.3c16.2-7,30.6-17,44-28.9c-0.1-2.1-0.2-4.2-0.2-6.3c-1.9,2.3-4,4.4-6.5,6.3
	c-10.6,8-21.6,15.5-32.4,23.2c-1.3,0.9-2.8,1.4-4.3,1.9c-0.8,0.3-1.8,0-2.7,0C244.8,309.4,252.6,303.4,259,295.6z"/>
<path d="M117.2,115.1c-1.3,3-2.5,5.7-3.3,7.8c2.8-1.5,5.5-3.1,8.3-4.5c5.1-2.6,10.3-4.8,15.5-7.1c0.9-0.4,2-0.4,3-0.6
	c0.1,0.2,0.2,0.5,0.2,0.7c-1.3,0.9-2.5,1.8-3.8,2.6c-8.3,4.9-16.7,9.6-24.8,14.8c0.5,0.9,1.2,2.3,1.9,4.7c1.2-0.9,2.3-1.8,3.5-2.7
	c10.6-7.1,21.9-12.7,34-16.3c6.5-2,13.1-4.2,19.9-2.9c6.7,1.3,13.5,2.7,20,5.1c15.9,5.7,28.8,16.6,40.7,29
	c7.4,7.7,13.1,16.6,16.9,27.1c2.7,7.5,6.3,14.5,9.6,21.7c0.6,1.3,1.6,2.3,2.4,3.5c0.2-0.1,0.5-0.3,0.7-0.4c-0.3-1.5-0.4-3.1-0.9-4.5
	c-2.6-7.5-5-15.2-8.2-22.4c-9-20.6-22-37.4-40.1-49.4c-19.8-13.1-41.8-15.6-64.3-15.6c-4.8,0-9.6,1-14.3,1.7
	c-2.2,0.4-4.4,1.1-6.3,2.1C124.3,111.4,120.8,113.3,117.2,115.1z"/>
<path d="M128.6,252c0.7-1.5-0.1-4.7-1.5-5.3c-2-0.8-2.3,1.3-3.2,2.5c-0.2,0.3-0.3,0.6-0.4,0.9c-0.5,0.9-1,1.8-1.4,2.6
	c0,3.3,0,6.7-0.1,10c1.2-1.7,2.3-3.4,3.5-5.1C126.7,255.9,127.7,253.9,128.6,252z"/>
<path d="M218.6,143.7c0.6-0.1,1.4-0.7,1.6-1.2c0.2-0.4-0.1-1.5-0.5-1.9c-4-4-8.2-7.6-13.5-9.3c-1-0.3-2.1-0.3-3.1-0.5
	c-0.1,0.3-0.2,0.5-0.3,0.8c0.5,0.8,0.8,1.8,1.4,2.3c3.9,3.1,7.8,6.2,11.8,9.1C216.8,143.6,217.8,143.8,218.6,143.7z"/>
</svg>
