<?xml version="1.0" encoding="utf-8"?>
<!-- Generator: Adobe Illustrator 25.3.0, SVG Export Plug-In . SVG Version: 6.00 Build 0)  -->
<svg version="1.1" id="Layer_1" xmlns="http://www.w3.org/2000/svg" xmlns:xlink="http://www.w3.org/1999/xlink" x="0px" y="0px"
	 viewBox="0 0 750.2 400.1" style="enable-background:new 0 0 750.2 400.1;" xml:space="preserve">
<rect x="89.6" y="105.9" width="19.4" height="0.1"/>
<polygon points="44.2,106 44.3,106.2 45,106.2 45,106.1 45,106 "/>
<path d="M109.1,106.2h11.3c0-0.1,0.1-0.1,0.1-0.2h-11.4V106.2z"/>
<path d="M138.6,72.4L138.6,72.4l5.1,0.1c4.3-4.2,9-7.8,14-10.2c0.2-0.1,0.4-0.2,0.6-0.3c-0.8-0.9-1.4-1.9-1.9-2.9L138.6,72.4z"/>
<path d="M129.1,90.9L109,106h0.1v0h11.4C122.9,101.2,125.8,96,129.1,90.9z"/>
<path d="M138.6,78c0.9-1.1,1.9-2.2,2.9-3.2l-2.9-2.1V78z"/>
<path d="M89.6,75.8V76h19.5v7.7H134c0.5-0.7,1.1-1.5,1.7-2.2l-25.5-19.2l-4.3,1.3L89.6,75.8z"/>
<polygon points="138.6,61.4 138.6,53.9 113.1,61.4 "/>
<polygon points="75.4,72.5 89.6,72.5 89.6,68.4 "/>
<polygon points="89.6,91 109.1,91 89.6,76.3 "/>
<polygon points="109.1,105.9 109.1,91 89.6,105.6 89.6,105.9 108.9,105.9 "/>
<polygon points="44.2,106 45,106 45,106.1 89.6,106.1 53.5,79 45.1,81.5 45.1,83.7 40.1,87.5 "/>
<polygon points="39.2,83.2 39.3,83.7 45.1,83.7 42.9,82.1 "/>
<path d="M111,127.6c0.8-2,2.9-7.7,6.3-15.1l-8.2-6.2v14.6l-12.8,9.7L111,127.6z"/>
<polygon points="51.6,139.6 89.6,131.9 89.6,120.9 109.1,120.9 89.6,106.2 89.6,106.1 50.7,135.4 "/>
<rect x="544.9" y="118.2" width="0.1" height="18.1"/>
<polygon points="544.8,224.1 544.6,224.1 544.6,251.5 544.7,251.5 544.8,251.5 "/>
<polygon points="544.8,49.1 544.6,49.1 544.6,76.5 544.7,76.5 544.8,76.5 "/>
<polygon points="544.8,136.4 544.6,136.4 544.6,163.8 544.7,163.8 544.8,163.8 "/>
<rect x="544.9" y="293.2" width="0.1" height="18.1"/>
<polygon points="544.8,311.4 544.6,311.4 544.6,338.8 544.7,338.8 544.8,338.8 "/>
<path d="M631.3,338.9h-19.4v15.6c12.6-4.5,20.1-8.6,20.3-8.7C631.9,343.6,631.6,341.3,631.3,338.9z"/>
<path d="M578.4,338.9L578.4,338.9l-0.1,24.4c6-1,11.7-2.2,16.8-3.6L578.4,338.9z"/>
<path d="M567.1,338.9l-22.3-27.6v0.1h0v27.4h-0.1v27.1c0.9,0,1.8,0,2.8,0c3.1,0,6.2-0.1,9.2-0.2l21.6-26.7H567.1z"/>
<polygon points="589.4,311.4 589.4,338.9 611.8,338.9 589.5,311.4 589.8,311.4 575.1,293.2 574.8,293.2 574.8,311.4 567.1,311.4 
	567.1,338.9 589.4,311.4 "/>
<path d="M628.2,293.2h-8.6v18.2l8.9-11C628.4,298,628.3,295.6,628.2,293.2z"/>
<path d="M604.7,293.2v18.2h7.1v27.5l17.6-21.9c-0.1-1.9-0.2-3.8-0.3-5.7h-9.4l-14.7-18.2h7l-33.5-41.5h-0.1v41.5h11.4v18.2
	l14.7-18.2H604.7z"/>
<polygon points="559.9,293.2 559.9,311.4 574.6,293.2 "/>
<polygon points="559.9,311.4 545.2,293.2 545,293.2 545,311.3 545,311.4 "/>
<path d="M627.6,251.6h-15.7v41.5l15.8-19.6C627.6,266.3,627.6,258.9,627.6,251.6z"/>
<polygon points="567.1,251.6 544.9,224 544.9,224.1 544.8,224.1 544.8,251.5 544.7,251.5 544.7,293.2 578.2,251.6 "/>
<path d="M465.7,311.4h4.5l-4.3-5.3C465.9,307.9,465.8,309.6,465.7,311.4z"/>
<path d="M466.5,293.2h3.7v18.2l14.7-18.2h-7.4l-10.7-13.2C466.8,284.4,466.7,288.8,466.5,293.2z"/>
<path d="M532.4,365.2l-21.2-26.3h11.1l-22.2-27.5h0l-14.7-18.2h-0.2v18.2h-7.4v27.5l22.2-27.5h0.1v27.5h-22.3L465,323.1
	c-0.4,5.5-0.9,10.8-1.5,15.8h14v13.6c5,1.9,11.1,3.9,17.9,5.8l15.6-19.4h0.1v23.2C517.8,363.5,525,364.6,532.4,365.2z"/>
<path d="M466.8,224.1h3.5l-3.6-4.5C466.7,221.1,466.7,222.6,466.8,224.1z"/>
<path d="M515,293.2v18.2h7.3v27.5l22.2-27.5h-14.6l-14.7-18.2h14.7v18.2l14.7-18.2h0.1l-33.5-41.5h11.1l-22.2-27.5h0l-14.9-18.5
	v18.5h-7.4v27.5l22.2-27.5h0.1v27.5h-22.3L467,238.3c0.1,4.4,0.1,8.8,0.1,13.3h10.4v41.5l33.5-41.5h0.1v41.5h-11v18.2l14.7-18.2H515
	z"/>
<path d="M628.5,205.6h-8.8v18.5l8.6-10.7C628.3,210.8,628.4,208.2,628.5,205.6z"/>
<path d="M604.7,224.1h7.1v27.5l16-19.9c0-2.6,0.1-5.1,0.1-7.6h-8.3l-14.9-18.5V224.1z"/>
<polygon points="604.7,205.6 589.8,205.6 589.8,224.1 "/>
<polygon points="589.4,224.1 589.4,224.1 589.4,251.6 611.8,251.6 589.5,224.1 589.8,224.1 574.8,205.6 574.8,224.1 567.1,224.1 
	567.1,251.6 "/>
<polygon points="559.9,205.6 559.9,224.1 574.8,205.6 "/>
<polygon points="545,224 545,224.1 559.9,224.1 545,205.6 "/>
<polygon points="529.9,205.6 529.9,224.1 544.9,205.6 "/>
<polygon points="515,224.1 522.3,224.1 522.3,251.6 544.6,224.1 529.9,224.1 515,205.6 "/>
<polygon points="515,205.6 500.1,205.6 500.1,224.1 "/>
<polygon points="470.3,205.6 470.3,224.1 485.2,205.6 "/>
<path d="M634.1,139.7c0.2-1,0.4-1.9,0.6-2.7l-0.5-0.6h-0.1V139.7z"/>
<path d="M630.3,170c0.2-2.1,0.3-4.2,0.5-6.1h-18.9v41.5l17.5-21.7C629.7,178.6,630,174,630.3,170z"/>
<polygon points="578.4,163.9 578.3,163.9 578.3,205.4 611.9,205.4 "/>
<polygon points="578.2,163.9 567.1,163.9 544.9,136.3 544.9,136.4 544.8,136.4 544.8,163.8 544.7,163.8 544.7,205.4 "/>
<path d="M465.6,190.7c0.2,4.6,0.4,9.6,0.6,14.8h11.3L465.6,190.7z"/>
<polygon points="589.4,136.4 589.4,136.4 589.4,163.9 611.8,163.9 589.5,136.4 589.8,136.4 575.1,118.2 574.8,118.2 574.8,136.4 
	567.1,136.4 567.1,163.9 "/>
<polygon points="634.3,118.2 619.6,118.2 619.6,136.4 "/>
<polygon points="604.7,118.2 604.7,136.4 611.8,136.4 611.8,163.9 634,136.4 619.6,136.4 604.9,118.2 611.9,118.2 578.4,76.6 
	578.3,76.6 578.3,118.2 589.8,118.2 589.8,136.4 604.4,118.2 "/>
<polygon points="559.9,118.2 559.9,136.4 574.6,118.2 "/>
<polygon points="545.2,118.2 545,118.2 545,136.2 545,136.4 559.9,136.4 "/>
<path d="M627.3,99.1c-3.2-7.4-7.1-15.2-11.6-22.5h-3.7v41.5L627.3,99.1z"/>
<polygon points="578.2,76.6 567.1,76.6 544.9,49 544.9,49.1 544.8,49.1 544.8,76.5 544.7,76.5 544.7,118.2 "/>
<path d="M465.5,103.3c-2.3,5.6-4.2,10.7-5.6,14.9h10.4v18.2l14.7-18.2h-7.4L465.5,103.3z"/>
<path d="M458.6,121.9c-1,3.1-1.7,5.3-1.9,6.3c0.7,0.9,1.9,3.1,3.2,8.2h10.4L458.6,121.9z"/>
<path d="M544.7,205.4l-33.5-41.5h11.1l-22.2-27.5h0l-14.7-18.2h-0.2v18.2h-7.4v27.5l22.2-27.5h0.1v27.5h-22.3l-16.3-20.3
	c0.9,5,1.7,11.6,2.5,20.3h13.6v41.5l33.5-41.5h0.1v41.5H544.7z"/>
<path d="M611.8,70.7v5.9l2.2-2.7C613.2,72.8,612.5,71.8,611.8,70.7z"/>
<path d="M588.4,50.3c-1.7-1-3.2-1.9-4.4-2.8c-2.7-0.1-5.8-0.3-9.2-0.5v2h-7.7v27.5L588.4,50.3z"/>
<path d="M592,52.2c0,0-0.1-0.1-0.1-0.1c-0.9-0.4-1.7-0.8-2.5-1.2v25.8h22.3L592,52.2z"/>
<path d="M559.9,46.5v2.6l2-2.5C561.3,46.5,560.6,46.5,559.9,46.5z"/>
<path d="M545.8,46.3c-0.3,0-0.5,0-0.8,0V49v0.1h14.9l-2.1-2.6C553.9,46.4,549.8,46.3,545.8,46.3z"/>
<path d="M529.9,46.6v2.5l2.1-2.6C531.3,46.5,530.6,46.5,529.9,46.6z"/>
<path d="M544.6,49.1h-14.6l-2-2.5c-4.7,0.2-9.1,0.4-12.9,0.6v1.9h7.3v27.5L544.6,49.1z"/>
<path d="M514.8,118.2h0.2v18.2h7.3v27.5l22.2-27.5h-14.6l-14.7-18.2h14.7v18.2l14.7-18.2h0.1l-33.5-41.5h11.1l-19.7-24.4
	c-0.9,0.4-1.7,0.9-2.6,1.4v23h-21c-0.5,0.8-1,1.6-1.5,2.4v39.2L511,76.6h0.1v41.5h-11v18.2L514.8,118.2z"/>
<rect x="631.7" y="105.9" width="19.4" height="0.1"/>
<polygon points="651.2,106 651.2,106.2 680.6,106.2 680.6,106.1 680.6,106 "/>
<polygon points="684.5,75.5 680.7,74.4 680.7,83.7 651.1,106 651.2,106 651.2,106 680.6,106 680.6,106.1 705.6,106.1 708.3,93.4 "/>
<polygon points="660.3,68.3 646.9,64.4 631.7,75.8 631.7,76 651.2,76 651.2,83.7 680.7,83.7 "/>
<path d="M631.7,61.1h4L611.7,54l-7.8,5.9c3.7,3.6,7.1,8,10.2,12.6h17.7V61.1z"/>
<polygon points="631.7,91 651.2,91 631.7,76.3 "/>
<polygon points="631.7,105.9 651.1,105.9 651.2,105.9 651.2,91 631.7,105.6 "/>
<path d="M631.2,106.1h0.5l-0.7-0.5C631.1,105.8,631.1,106,631.2,106.1z"/>
<polygon points="684.4,136.8 698.2,139.6 701.7,123.9 "/>
<polygon points="680.7,136.1 680.7,128.5 672.8,134.5 "/>
<polygon points="651.2,120.9 641.6,128.2 651.2,130.1 651.2,128.5 680.7,128.5 651.2,106.3 "/>
<path d="M631.7,106.1l-0.4,0.3c2.2,5.6,4,10.7,5.3,14.5h14.6l-19.5-14.7V106.1z"/>
<path d="M587.2,47.8c-0.5,0-0.9-0.1-1.4-0.1c0.4,0.3,0.9,0.6,1.4,0.9V47.8z"/>
<path d="M444.2,106h19.1c0,0,0-0.1,0.1-0.1h-19.2V106z"/>
<polygon points="389,106 389.1,106.2 399.6,106.2 399.6,106.1 399.6,106 "/>
<path d="M493.2,51l-25.9,7.6l-3.6,2.7v-0.2l-19.5,14.7V76h19.5v7.7h10c1.9-3.5,3.9-6.9,6.1-10.1l-16-12.1v-0.1h25.5
	c1.3-1.4,2.6-2.7,4-3.9V51z"/>
<polygon points="420.2,72.5 444.2,72.5 444.2,65.4 "/>
<polygon points="458.9,61.1 463.7,61.1 462.4,60.1 "/>
<polygon points="444.2,91 463.7,91 444.2,76.3 "/>
<path d="M463.7,91l-19.5,14.7v0.2h19.2c0.1-0.3,0.2-0.6,0.3-0.9V91z"/>
<polygon points="405.4,76.9 399.7,78.6 399.7,83.7 386.3,93.8 389,106 399.6,106 399.6,106.1 444.2,106.1 "/>
<polygon points="384,83.2 384.1,83.7 399.7,83.7 394.8,80 "/>
<polygon points="394,128.5 399.7,128.5 392.8,123.3 "/>
<path d="M459,117.4l-14.8-11.2v-0.1L401,138.7l43.2-8.7v-9h13.6C458.2,119.8,458.6,118.7,459,117.4z"/>
<path d="M454.5,127.8l1.2-0.2c0.1-0.2,0.2-0.5,0.3-0.8L454.5,127.8z"/>
<polygon points="396.4,139.6 399.7,138.9 399.7,128.5 394.8,132.2 "/>
<path d="M284.6,106h11.9v-0.1h-11.9C284.6,105.9,284.6,106,284.6,106z"/>
<polygon points="296.6,106 296.6,106.2 325.9,106.2 325.9,106.1 325.9,106 "/>
<polygon points="327.1,71.7 326.1,72.4 326.1,72.5 329.9,72.5 "/>
<polygon points="296.5,106 296.6,106 296.6,106 325.9,106 325.9,106.1 361,106.1 362.3,99.9 326.1,72.6 326.1,83.7 "/>
<polygon points="277.1,75.8 277.1,76 296.6,76 296.6,83.7 326.1,83.7 299.1,63.5 295.1,62.2 "/>
<path d="M259.9,51.9l-13.2,10c0.3,0.2,0.6,0.3,0.8,0.5c5,2.4,9.7,6,14,10.2h15.6V61.1h14.1L259.9,51.9z"/>
<polygon points="277.1,76.3 277.1,91 296.6,91 "/>
<path d="M284.5,105.9h11.9h0.1V91l-14.2,10.7C283.1,103.1,283.8,104.5,284.5,105.9z"/>
<polygon points="326.1,134 326.1,128.5 320.3,132.9 "/>
<polygon points="353.6,139.6 359.1,114.8 331.9,135.2 "/>
<path d="M291.4,120.9h5.2l-7.6-5.7C289.9,117.3,290.7,119.2,291.4,120.9z"/>
<path d="M294,127.6h0.1h0.1l4.6,0.9h27.3l-29.5-22.2v14.6l-4,3C293.3,125.6,293.7,126.8,294,127.6z"/>
<rect x="196.6" y="115.3" width="0.1" height="17.5"/>
<polygon points="196.9,244.4 197,244.4 197,217.9 196.8,217.9 196.8,244.4 "/>
<polygon points="196.8,159.5 196.9,159.5 197,159.5 197,132.9 196.8,132.9 "/>
<rect x="196.6" y="284.7" width="0.1" height="17.5"/>
<polygon points="196.9,328.9 197,328.9 197,302.3 196.8,302.3 196.8,328.9 "/>
<path d="M129.7,329h-11c-0.3,2.7-0.6,5.3-1,7.8c3.2,0.3,7.2,0.6,12,1V329z"/>
<path d="M154.6,339.3c2.8,0.1,5.7,0.3,8.7,0.4V329h-0.1L154.6,339.3z"/>
<path d="M196.9,328.9L196.9,328.9l-0.1-26.5h0v-0.1L174.5,329h-11.1l9.2,11c7.2,0.2,14.7,0.4,22.5,0.4c0.5,0,1.1,0,1.8,0V328.9z"/>
<polygon points="166.8,302.3 166.8,284.7 166.5,284.7 151.9,302.3 152.1,302.3 129.9,329 152.2,329 152.2,302.3 152.3,302.3 
	174.5,329 174.5,302.3 "/>
<path d="M121.6,284.7c-0.2,5.5-0.4,10.9-0.7,16.2l1.1,1.4v-17.6H121.6z"/>
<path d="M136.9,302.3v-17.6h0.2l14.7,17.6v-17.6h11.4v-40.2h-0.1l-33.5,40.2h7L122,302.3h-1.2c-0.3,5-0.6,9.9-1,14.6l10.1,12.1
	v-26.6H136.9z"/>
<polygon points="167,284.7 181.7,302.3 181.7,284.7 "/>
<polygon points="196.6,302.2 196.6,284.7 196.4,284.7 181.7,302.3 196.6,302.3 "/>
<path d="M122.1,244.5c0,10.2,0,20.6-0.3,30.8l7.8,9.4v-40.2H122.1z"/>
<polygon points="196.8,244.4 196.8,217.9 196.8,217.9 196.8,217.8 174.5,244.5 163.4,244.5 196.9,284.7 196.9,244.4 "/>
<path d="M283.6,287.6l-12.3,14.7h12.9C284,297.5,283.8,292.6,283.6,287.6z"/>
<path d="M271.4,302.3v-17.6h12.2c-0.2-7.5-0.4-15.1-0.5-22.7l-19,22.7h-7.4L271.4,302.3z"/>
<path d="M264.1,329h22.1v-2.1c-0.7-7-1.3-14.6-1.8-22.5L263.9,329h-22.3v-26.6h0.1l22.2,26.6v-26.6h-7.4v-17.6h-0.2l-14.7,17.6h0
	L219.3,329h11.1l-9.4,11.3c3.2-0.1,6.4-0.1,9.5-0.2V329h0.1l9,10.8c8.9-0.3,17.2-0.7,24.5-1.2V329z"/>
<path d="M283.8,202.9l-12.5,14.9h12C283.5,212.7,283.7,207.7,283.8,202.9z"/>
<path d="M226.6,302.3v-17.6h0.2l14.7,17.6v-17.6h-11v-40.2h0.1l33.5,40.2v-40.2H283c0-7.9,0.1-15.7,0.3-23.3l-19.4,23.3h-22.3v-26.6
	h0.1l22.2,26.6v-26.6h-7.4V200l-14.9,17.9h0l-22.2,26.6h11.1l-33.5,40.2h0.1l14.7,17.6v-17.6h14.7l-14.7,17.6h-14.6l22.2,26.6v-26.6
	H226.6z"/>
<path d="M122,200h-0.9c0.2,5.6,0.4,11.5,0.6,17.5l0.3,0.4V200z"/>
<path d="M129.9,217.9h7.1V200L122,217.9h-0.3c0.1,5.6,0.2,11.4,0.3,17.3l7.8,9.4V217.9z"/>
<polygon points="151.9,217.9 151.9,200 136.9,200 "/>
<polygon points="166.8,217.9 166.8,200 151.9,217.9 152.1,217.9 129.9,244.5 152.2,244.5 152.2,217.9 152.3,217.9 174.5,244.5 
	174.5,217.9 "/>
<polygon points="181.7,217.9 181.7,200 166.8,200 "/>
<polygon points="196.6,217.7 196.6,200 181.7,217.9 196.6,217.9 "/>
<polygon points="211.7,200 196.8,200 211.7,217.9 "/>
<polygon points="219.3,217.9 226.6,217.9 226.6,200 211.7,217.9 197.1,217.9 219.3,244.5 "/>
<polygon points="241.5,200 226.6,200 241.5,217.9 "/>
<polygon points="271.4,217.9 271.4,200 256.5,200 "/>
<path d="M129.7,159.6h-11.1c0.3,3.1,0.6,6.5,0.9,10.3c0.4,5.7,0.8,12.1,1.2,19.1l9,10.8V159.6z"/>
<polygon points="163.3,199.8 163.3,159.6 163.2,159.6 129.7,199.8 "/>
<polygon points="196.9,159.5 196.8,159.5 196.8,132.9 196.8,132.9 196.8,132.9 174.5,159.6 163.4,159.6 196.9,199.8 "/>
<path d="M285.3,174.3l-21.2,25.4H284C284.3,190.5,284.8,181.9,285.3,174.3z"/>
<polygon points="174.5,132.9 166.8,132.9 166.8,115.3 166.5,115.3 151.9,132.9 152.1,132.9 129.9,159.6 152.2,159.6 152.2,132.9 
	152.3,132.9 174.5,159.6 "/>
<path d="M122,115.3h-4.9c-1.3,3-2.4,5.6-3.3,7.8l8.2,9.8V115.3z"/>
<path d="M129.9,132.9h7.1v-17.6h0.2l14.7,17.6v-17.6h11.4V75.1h-0.1l-33.5,40.2h7L122,132.9h-7.9c0.8,2.4,1.6,5.7,2.4,10.6l13.4,16
	V132.9z"/>
<polygon points="167,115.3 181.7,132.9 181.7,115.3 "/>
<polygon points="181.7,132.9 196.6,132.9 196.6,132.8 196.6,115.3 196.4,115.3 "/>
<path d="M129.7,91.6c-3,4.8-5.7,9.6-8,14.1l8,9.6V91.6z"/>
<path d="M196.9,84.2c-1.7-0.2-3.3-0.5-4.9-0.8h0.1l-0.5-0.1c-0.1,0-7.2-1.4-13.5-4.9c-1.5-0.8-3.2-2-4.9-3.3h-9.8l33.5,40.2V84.2z"
	/>
<path d="M264.1,159.6h22.1v-26.6h0.1v0l3.6,4.3c0.4-1.8,0.8-3.2,1.2-4.4h-4.8v-17.5h1.7c-2.3-5.2-5.3-11.4-9-17.8l-14.8,17.8h-7.4
	l14.7,17.6v-17.6h14.7l-14.7,17.6h14.7l-22.2,26.6h-22.3v-26.6h0.1l22.2,26.6v-26.6h-7.4v-17.6h-0.2l-14.7,17.6h0l-22.2,26.6h11.1
	l-33.5,40.2h33.6v-40.2h0.1l33.5,40.2V159.6z"/>
<path d="M152.2,66.5c-3.5,2.4-6.8,5.3-9.9,8.6h9.9V66.5z"/>
<path d="M219.3,132.9h7.3v-17.6h0.2l14.7,17.6v-17.6h-11V76.5c-0.8,0.5-1.5,0.9-2.2,1.2l-31.4,37.6h0.1l14.7,17.6v-17.6h14.7
	l-14.7,17.6h-14.6l22.2,26.6V132.9z"/>
<path d="M264.1,76.6c-0.5-0.5-0.9-1-1.4-1.5h-21.1v-7.3c-3.2,3.2-6.9,6-10.3,8.1l32.8,39.4V76.6z"/>
</svg>
