<?xml version="1.0" encoding="utf-8"?>
<!-- Generator: Adobe Illustrator 25.3.0, SVG Export Plug-In . SVG Version: 6.00 Build 0)  -->
<svg version="1.1" id="Layer_1" xmlns="http://www.w3.org/2000/svg" xmlns:xlink="http://www.w3.org/1999/xlink" x="0px" y="0px"
	 viewBox="0 0 750.2 400.1" style="enable-background:new 0 0 750.2 400.1;" xml:space="preserve">
<g>
	<path d="M543.8,100.9l-0.9,0.2l0,0.8l-1.2,51.2L465,179.6c0.1,2.1,0.3,4.4,0.4,6.7l79.9-29.6l1.6-0.6l0-1.4l-1.2-51.9l67.7-20.6
		L543.8,100.9z"/>
	<path d="M532.8,92.8l-1.7,0.6l0,1.5l1.2,51.9L464.5,171c0,0.1,0,0.2,0,0.4l69.8-22.7l0.9-0.3l0-0.8l1.2-51.1l77.8-22.3
		c-1.3-2-2.7-4-4.1-5.8L532.8,92.8z"/>
	<path d="M591.9,159.7L591,160l0,0.8l-1.2,51.2l-122.7,41.9c0,2.5,0,5,0,7.4l126.3-46l1.6-0.6l0-1.4l-1.2-51.9l38.6-11.8
		c0-0.4,0.1-0.7,0.1-1.1L591.9,159.7z"/>
	<path d="M580.9,151.6l-1.7,0.6l0,1.5l1.2,51.9L470.8,244l111.6-36.6l0.9-0.3l0-0.8l1.2-51.1l49.4-14.2c0.5-2.8,1.1-5,1.6-6.8
		L580.9,151.6z"/>
	<path d="M488,86.2l0-1.4l-0.5-20.1c-1.5,1.8-3,3.7-4.4,5.7l-0.3,12.9l-9.5,3.3c-1.1,2.1-2.1,4.1-3.1,6.2l16.2-6L488,86.2z"/>
	<path d="M627.8,278.1c0-1.6-0.1-3.3-0.1-4.9l-163.5,58c-0.2,2.7-0.5,5.3-0.8,7.8L627.8,278.1z"/>
	<path d="M465,322.8l162.7-56.9c0-0.8,0-1.7,0-2.5L465,322.6C465,322.7,465,322.7,465,322.8z"/>
	<path d="M628.1,209.4l0,1.5l0,2c0-1.2,0.1-2.4,0.1-3.5L628.1,209.4z"/>
	<path d="M632.2,345.5l-46,16.3c27.7-5.8,45.7-15.9,46-16C632.2,345.7,632.2,345.6,632.2,345.5z"/>
	<path d="M552.3,365.8l78.9-27.6c-0.1-0.6-0.1-1.2-0.2-1.8l-80.7,29.4C551,365.9,551.7,365.8,552.3,365.8z"/>
	<path d="M520.2,133.6l1.6-0.6l0-1.4l-1.2-51.9l67.7-20.6l-69.6,18.8l-0.9,0.2l0,0.8l-1.2,51.2l-54.3,18.7c0.3,1.8,0.5,3.8,0.8,6
		L520.2,133.6z"/>
	<path d="M506,70.4l0,1.5l1.2,51.9l-46.4,16.6c0.1,0.3,0.1,0.7,0.2,1l48.2-15.7l0.9-0.3l0-0.8l1.2-51.1l78.4-22.5
		c-2.3-1.2-4.1-2.4-5.6-3.4c-1.6-0.1-3.4-0.2-5.3-0.3l-71,22.6L506,70.4z"/>
	<path d="M569.9,191.8l0-1.4l-1.2-51.9l66.2-20.2c0,0,0,0,0,0l-68,18.3l-0.9,0.2l0,0.8l-1.2,51.2l-97.9,33.5
		c0.1,2.3,0.1,4.5,0.1,6.8l101.4-36.9L569.9,191.8z"/>
	<path d="M555.8,128.6l-1.7,0.6l0,1.5l1.2,51.9l-88.8,31.2c0,0.2,0,0.3,0,0.5l90.8-29.8l0.9-0.3l0-0.8l1.2-51.1l73-20.9
		c-0.7-2-1.6-4.1-2.4-6.2L555.8,128.6z"/>
	<path d="M617.3,249.6l1.6-0.6l0-1.4l-1.2-51.9l11.3-3.5c0-0.7,0.1-1.3,0.1-2l-13.3,3.6l-0.9,0.2l0,0.8l-1.2,51.2l-147.3,52.3
		c-0.1,2.4-0.2,4.8-0.3,7.2L617.3,249.6z"/>
	<path d="M607.1,241.3l0-0.8l1.2-51.1l21.2-6.1c0.1-1.9,0.2-3.7,0.3-5.4l-25,8l-1.7,0.6l0,1.5l1.2,51.9l-137.6,50.1
		c0,0.2,0,0.3,0,0.5l139.7-48.8L607.1,241.3z"/>
	<path d="M629.6,319.7c-0.1-1.7-0.2-3.4-0.3-5.1l-127.7,45.4c3.9,1,8.1,1.9,12.4,2.7L629.6,319.7z"/>
	<path d="M628.7,305.2l-140.3,51.1c0.1,0,0.1,0,0.2,0.1l140.2-49C628.8,306.6,628.8,305.9,628.7,305.2z"/>
	<path d="M197.3,154.7l0,1.4l1.6,0.6l85.6,31.8c0.1-2.4,0.2-4.7,0.4-6.9l-82.4-28.3l-1.2-51.2l0-0.8l-0.9-0.2l-65-17.5
		c0,0-0.1,0.1-0.1,0.1l63.2,19.3L197.3,154.7z"/>
	<path d="M207.8,96.4l1.2,51.1l0,0.8l0.9,0.3l75.5,24.6c0-0.1,0-0.1,0-0.2l-73.5-26.3l1.2-51.9l0-1.5l-1.7-0.6l-65.7-20.9
		c-1.8,1.6-3.4,3.4-5.1,5.2L207.8,96.4z"/>
	<path d="M149.1,214.8l1.6,0.6l132.3,48.2c0-2.5-0.1-5.1-0.1-7.6l-128.6-44l-1.2-51.2l0-0.8l-0.9-0.2l-34.7-9.4
		c0.1,0.4,0.1,0.8,0.2,1.3l32.7,10l-1.2,51.9L149.1,214.8z"/>
	<path d="M159.7,155.2l1.2,51.1l0,0.8l0.9,0.3L273.4,244l-109.6-38.5l1.2-51.9l0-1.5l-1.7-0.6L115,136.2c0.4,1.8,0.9,3.9,1.4,6.5
		L159.7,155.2z"/>
	<path d="M261.3,83.4l-0.2-9.9c-1.5-1.5-3-2.9-4.6-4.2l-0.4,15.5l0,1.4l1.6,0.6l19.1,7.1c-1.4-2.2-2.8-4.5-4.4-6.7L261.3,83.4z"/>
	<path d="M121.7,280.1l155.5,57.7c4-0.3,7.4-0.6,10.2-0.8c-0.1-1-0.3-2.1-0.4-3.1l-165.2-58.6C121.8,276.8,121.8,278.4,121.7,280.1z
		"/>
	<path d="M286,325.2C286,325.2,286,325.2,286,325.2l-164-59.8c0,0.8,0,1.6,0,2.4L286,325.2z"/>
	<path d="M227.6,130.2L226.4,79l0-0.4c-0.9,0.4-1.9,0.8-2.9,1.2l0.1,0l-1.2,51.9l0,1.4l1.6,0.6l62.8,23.3c0.2-2.2,0.5-4.2,0.7-6.1
		L227.6,130.2z"/>
	<path d="M238.1,71c-1.7,1.4-3.5,2.7-5.2,3.9l1.1,49.6l0,0.8l0.9,0.3l53.7,17.5c0-0.3,0.1-0.6,0.1-0.8L237,123.7l1.2-51.9L238.1,71z
		"/>
	<path d="M178.3,137.8l0-0.8l-0.9-0.2l-62.2-16.8c0,0.1-0.1,0.2-0.1,0.2l60.4,18.4l-1.2,51.9l0,1.4l1.6,0.6l107.3,39
		c0-2.3,0.1-4.7,0.1-7L179.5,189L178.3,137.8z"/>
	<path d="M184.8,132.1l1.2,51.1l0,0.8l0.9,0.3l96.6,31.7c0-0.1,0-0.2,0-0.3l-94.6-33.2l1.2-51.9l0-1.5l-1.7-0.6L121,107.1
		c-1,2.1-2,4-2.8,5.9L184.8,132.1z"/>
	<path d="M130.5,246.3l-1.2-51.2l0-0.8l-0.9-0.2l-7.5-2c0,0.7,0.1,1.5,0.1,2.2l5.6,1.7l-1.2,51.9l0,1.4l1.6,0.6l157.8,58.5
		c-0.2-2.4-0.3-4.9-0.4-7.3L130.5,246.3z"/>
	<path d="M135.8,189.4l1.2,51.1l0,0.8l0.8,0.3l146,51c0-0.1,0-0.3,0-0.4l-143.9-52.4l1.2-51.9l0-1.5l-1.7-0.6l-19.2-6.1
		c0.1,1.7,0.2,3.5,0.3,5.3L135.8,189.4z"/>
	<path d="M119.8,316.4c-0.1,1.8-0.3,3.5-0.4,5.2l49.4,18.3c5.9,0.2,12.1,0.4,18.5,0.5L119.8,316.4z"/>
	<path d="M120.4,309.1l89.6,31.3c0.1,0,0.2,0,0.3,0c0.6,0,1.2,0,1.8,0L120.5,307C120.5,307.7,120.4,308.4,120.4,309.1z"/>
</g>
</svg>
