<?xml version="1.0" encoding="utf-8"?>
<!-- Generator: Adobe Illustrator 25.3.0, SVG Export Plug-In . SVG Version: 6.00 Build 0)  -->
<svg version="1.1" id="Layer_1" xmlns="http://www.w3.org/2000/svg" xmlns:xlink="http://www.w3.org/1999/xlink" x="0px" y="0px"
	 viewBox="0 0 200 100" style="enable-background:new 0 0 200 100;" xml:space="preserve">
<style type="text/css">
	.st0{fill:#FFFFFF;}
	.st1{fill:#E20613;}
	.st2{fill:#1D1D1B;}
</style>
<g>
	<rect x="49.1" y="4.7" class="st0" width="102.9" height="92"/>
	<g>
		<path class="st1" d="M81.7,59c0.1,0.8,0.4,2.7,1.6,4.4c2.5,3.4,7,3.6,8,3.6c4.9,0,8.5-2.2,8.5-5.8c0-3.8-3.6-4.7-9.2-6.1
			c-5.4-1.3-13.4-3.3-13.4-11.2c0-5.5,4.3-10.5,13.3-10.5c7.8,0,14,3.4,14.3,11.4l-6.1,0.4c-0.2-1.8-0.8-6.4-8-6.4
			c-3.8,0-7.6,1.4-7.6,4.8c0,2.8,2.2,4,8.7,5.5c5.9,1.4,14.1,3.2,14.1,11.8c0,4.9-3.1,11.5-14.7,11.5c-11.6,0-15-7.1-15.4-12.8
			L81.7,59z"/>
	</g>
	<g>
		<path class="st1" d="M127.4,49.5l0,21.3h-3.3l0-18.6h-0.1l-5.5,18.6h-3.2l-5.5-18.6h-0.1v18.6h-3.3V49.5h5.6l4.9,16.7h0.1l5-16.7
			H127.4z"/>
	</g>
	<g>
		<path class="st2" d="M131.9,50.5V56c0,1.4,0,3.1,2.2,3.1c2.1,0,2.2-1.5,2.2-3l0-5.6l1.6,0v5.4c0,1.8,0,4.6-3.8,4.6
			c-3.8,0-3.8-2.7-3.8-4.5l0-5.5H131.9z"/>
		<path class="st2" d="M141.5,50.5v4.7l4.1-4.7h2l-3.7,4l4.1,5.8h-2l-3.2-4.7l-1.3,1.4l0,3.2h-1.6v-9.8H141.5z"/>
	</g>
	<g>
		<path class="st2" d="M76.4,75.6h0.7l0.6,2.1c0,0.1,0.1,0.3,0.1,0.4h0c0-0.1,0-0.2,0.1-0.4l0.5-2.1h0.7l0.5,2.1
			c0.1,0.2,0.1,0.3,0.1,0.4h0c0-0.2,0.1-0.2,0.1-0.4l0.6-2.1h0.7L80,79h-0.7l-0.6-2.4h0c0,0.1,0,0.2-0.1,0.3L78.1,79h-0.7L76.4,75.6
			z"/>
		<path class="st2" d="M81.2,75.6h0.7l0.6,2.1c0,0.1,0.1,0.3,0.1,0.4h0c0-0.1,0-0.2,0.1-0.4l0.5-2.1h0.7l0.5,2.1
			c0.1,0.2,0.1,0.3,0.1,0.4h0c0-0.2,0.1-0.2,0.1-0.4l0.6-2.1h0.7l-1,3.4h-0.7l-0.6-2.4h0c0,0.1,0,0.2-0.1,0.3L82.9,79h-0.7
			L81.2,75.6z"/>
		<path class="st2" d="M85.9,75.6h0.7l0.6,2.1c0,0.1,0.1,0.3,0.1,0.4h0c0-0.1,0-0.2,0.1-0.4l0.5-2.1h0.7l0.5,2.1
			c0.1,0.2,0.1,0.3,0.1,0.4h0c0-0.2,0.1-0.2,0.1-0.4l0.6-2.1h0.7l-1,3.4h-0.7l-0.6-2.4h0c0,0.1,0,0.2-0.1,0.3L87.7,79h-0.7
			L85.9,75.6z"/>
		<path class="st2" d="M90.7,78.3h0.8V79h-0.8V78.3z"/>
		<path class="st2" d="M92.9,77.5c0,0.1,0,0.3,0.2,0.6c0.3,0.4,0.8,0.4,1,0.4c0.6,0,1-0.3,1-0.7c0-0.5-0.4-0.6-1.1-0.8
			c-0.7-0.2-1.6-0.4-1.6-1.4c0-0.7,0.5-1.3,1.6-1.3c0.9,0,1.7,0.4,1.7,1.4l-0.7,0c0-0.2-0.1-0.8-1-0.8c-0.5,0-0.9,0.2-0.9,0.6
			c0,0.4,0.3,0.5,1.1,0.7c0.7,0.2,1.7,0.4,1.7,1.5c0,0.6-0.4,1.4-1.8,1.4c-1.4,0-1.8-0.9-1.9-1.6L92.9,77.5z"/>
		<path class="st2" d="M101.2,74.3V79h-0.7v-4.1h0L99.3,79h-0.7l-1.2-4.1h0l0,4.1h-0.7v-4.7h1.2l1.1,3.7h0l1.1-3.7H101.2z"/>
		<path class="st2" d="M102.9,74.3V77c0,0.7,0,1.5,1,1.5c1,0,1-0.7,1-1.4v-2.7h0.8v2.6c0,0.9,0,2.2-1.8,2.2c-1.8,0-1.8-1.3-1.8-2.2
			v-2.6H102.9z"/>
		<path class="st2" d="M107.5,74.3v2.3l2-2.3h1l-1.8,1.9l2,2.8h-0.9l-1.5-2.2l-0.6,0.7V79h-0.8v-4.7H107.5z"/>
		<path class="st2" d="M111.2,78.3l0.8,0V79h-0.8V78.3z"/>
		<path class="st2" d="M115.7,77.9c-0.1,0.6-0.5,1.2-1.5,1.2c-1.4,0-1.5-1.3-1.5-1.8c0-1,0.5-1.8,1.6-1.8c0.2,0,0.8,0,1.1,0.5
			c0.2,0.3,0.3,0.5,0.3,0.7l-0.7,0.1c0-0.2-0.1-0.7-0.7-0.7c-0.8,0-0.8,0.8-0.8,1.1c0,0.4,0.1,1.2,0.8,1.2c0.6,0,0.7-0.6,0.7-0.8
			L115.7,77.9z"/>
		<path class="st2" d="M117.7,75.6c1,0,1.6,0.7,1.6,1.8c0,1.1-0.7,1.8-1.6,1.8c-0.8,0-1.6-0.5-1.6-1.7
			C116,76.1,116.8,75.6,117.7,75.6z M117.7,78.5c0.3,0,0.9-0.2,0.9-1.2c0-0.8-0.4-1.2-0.9-1.2c-0.4,0-0.9,0.3-0.9,1.2
			C116.8,78.2,117.3,78.5,117.7,78.5z"/>
		<path class="st2" d="M119.8,78.3h0.8V79h-0.8V78.3z"/>
		<path class="st2" d="M123.6,79v-0.5h0c-0.4,0.5-0.9,0.6-1.1,0.6c-0.4,0-0.8-0.2-1-0.5c-0.1-0.3-0.2-0.6-0.2-0.9v-2.1h0.7v1.7
			c0,0.5,0,0.7,0.1,0.9c0.1,0.2,0.4,0.3,0.5,0.3c0.3,0,0.6-0.2,0.7-0.4c0.1-0.2,0.1-0.4,0.1-0.9v-1.6h0.7V79H123.6z"/>
		<path class="st2" d="M125.2,74.3h0.7v2.6l1.2-1.3h0.9l-1.2,1.2l1.3,2.2h-0.8l-1-1.6l-0.4,0.4V79h-0.7V74.3z"/>
	</g>
	<g>
		<path class="st2" d="M81.8,31c0,0,37-31.9,54.5-18.7c8.8,8,2.9,23,2.9,23s2.9-11.9-10.7-17.9S87.8,23.6,81.8,31z"/>
	</g>
	<g>
		<path class="st2" d="M61,55.7c0,0-13.6,24.3-3.1,33.9C71.7,100.9,98.1,83,98.1,83s-24.3,10.1-34.2,0.8C52.2,72.5,61,55.7,61,55.7z
			"/>
	</g>
</g>
</svg>
