<?xml version="1.0" encoding="utf-8"?>
<!-- Generator: Adobe Illustrator 25.3.0, SVG Export Plug-In . SVG Version: 6.00 Build 0)  -->
<svg version="1.1" id="Layer_1" xmlns="http://www.w3.org/2000/svg" xmlns:xlink="http://www.w3.org/1999/xlink" x="0px" y="0px"
	 viewBox="0 0 170 120" style="enable-background:new 0 0 170 120;" xml:space="preserve">
<style type="text/css">
	.st0{fill:#FFFFFF;}
</style>
<g>
	<g>
		<g>
			<g>
				<path class="st0" d="M83.0106812,86.5389328C61.6282005,85.3060837,44.9043159,72.6419601,45.7299385,58.309124
					c0.823307-14.292614,18.8408623-24.954937,40.1646004-23.7681084l-0.0645752,1.1604462
					c-20.6851578-1.1511803-38.153183,9.020401-38.9397087,22.6744995
					c-0.7887764,13.6931915,15.4449959,25.8066864,36.1872597,27.002655L83.0106812,86.5389328z"/>
			</g>
			<g>
				<path class="st0" d="M83.0151749,86.5397644l0.0668411-1.1603165
					c20.745163,1.1949921,38.2642059-8.9742126,39.0530853-22.6691055
					c0.7888412-13.6943245-15.4466324-25.8079224-36.1917953-27.0029182l-0.0476379-1.1663437
					c21.4992905,1.2378731,38.2254715,13.9015617,37.3997498,28.2360992S104.3999863,87.7716064,83.0151749,86.5397644z"/>
			</g>
			<g>
				<g>
					<path class="st0" d="M78.2196808,59.5347023c-0.535141,9.2900047-5.4611511,16.5622749-11.0025635,16.2430687
						c-5.5414009-0.3192062-9.5997849-8.1090088-9.0646439-17.3990135
						c0.5351372-9.2900047,5.4611511-16.5622711,11.0025558-16.2430687
						C74.696434,42.454895,78.7548141,50.2446976,78.2196808,59.5347023z M69.2606354,40.3023643
						c-8.1817589-0.4712982-15.2954788,7.4984818-15.8889427,17.8010025s5.5580635,19.0364265,13.7398186,19.5077248
						c8.1817627,0.4713058,15.2954865-7.4984741,15.8889465-17.8009987S77.4423904,40.7736626,69.2606354,40.3023643z"/>
				</g>
			</g>
			<g>
				<g>
					
						<ellipse transform="matrix(0.0575084 -0.998345 0.998345 0.0575084 60.6462402 148.9871674)" class="st0" cx="109.2313004" cy="42.3734741" rx="4.6704035" ry="4.5226059"/>
				</g>
				<g>
					<path class="st0" d="M98.3990173,54.1482506l0.1133118-1.9671745l12.5019989-1.1745949l-7.3422852,23.3009758
						c0,0-0.6830673,1.5790939,0.0327301,2.1729584c0.7157974,0.5938721,1.9232941,0.1897354,5.4599533-5.0144882
						c0,0,1.503418,1.3102493,1.5034866,1.3103027c0.0883255,0.0769806-1.0411911,1.8032913-1.1143036,1.9179916
						c-0.8789597,1.3789597-1.8704147,2.6994553-3.0187683,3.8664703c-2.5250168,2.5660706-6.4769897,4.2885284-9.5581818,1.644455
						c-1.1317673-0.9712067-1.5173721-2.3822632-1.239975-3.8284378c0.8462448-4.4118195,5.0011597-16.9226112,5.5653839-19.1796074
						l0.4056015-1.3417244c0.1010056-0.3341179,0.066658-0.6976776-0.1084671-0.9996223
						C101.2976761,54.33535,100.4943695,53.8137665,98.3990173,54.1482506z"/>
				</g>
				<g>
					<path class="st0" d="M97.4493103,40.8421173l0.2011719,9.8697433l-0.9146881-0.0526886
						c0,0-0.483902-3.7794113-2.9101944-6.5441971c-1.4105759-1.6073761-3.765358-2.5032997-5.8750839-1.9657631
						c-2.237648,0.5701294-3.1659241,3.0632515-2.7486725,5.178299c0.3352737,1.6994514,1.5058746,3.0948639,2.8103027,4.1697655
						c0,0,6.1491318,4.2831192,8.8044815,8.5510445c2.6553574,4.2679253-0.4189301,10.8701668-5.3310242,11.8601875
						c-4.9121017,0.9900208-7.2279282-0.9492264-8.490509-1.6436462c-1.2625732-0.6944122-2.1335526-0.4781494-2.4318771,1.1032867
						l-0.7115479,0.0182266l-0.6193542-9.805027l0.9441986,0.05439c0,0,0.7929916,5.3549156,4.9003983,7.9497337
						c4.1074142,2.5948257,8.6888885-0.7724609,8.2193069-4.4408112s-1.913208-4.8172569-4.8197708-7.2938004
						c-2.9065628-2.4765472-7.4058456-4.5415726-6.9421768-10.0212212s4.1084824-8.4077263,8.2729034-7.5757599
						s5.7387161,3.8238525,6.7586517,0.50774L97.4493103,40.8421173z"/>
				</g>
			</g>
		</g>
	</g>
	<g>
		<g>
			<g>
				<path class="st0" d="M53.9142265,35.2742004c1.4012871,2.1843033,1.0596809,4.2729454-0.6916389,5.3964653
					c-1.7779884,1.140625-3.7755585,0.3154526-4.9929657-1.5822182c-1.2808151-1.9965134-1.0914497-4.2246628,0.6776581-5.3595886
					C50.7474937,32.5483131,52.7348671,33.435833,53.9142265,35.2742004z M49.64188,38.140583
					c0.8369675,1.3046494,1.9778328,1.8702393,2.8846016,1.2885246c0.9156685-0.5874252,0.8187904-1.8925171-0.011837-3.1872826
					c-0.7672157-1.1959229-1.9422646-1.8930588-2.8757172-1.2942238
					C48.7232666,35.5350227,48.8112564,36.8458176,49.64188,38.140583z"/>
			</g>
		</g>
		<g>
			<g>
				<path class="st0" d="M114.1444321,34.5760307c-1.1576538,2.3226357-2.9383469,3.1932487-4.5243073,2.4027748
					c-1.6100998-0.8025093-1.7610474-2.8589363-0.7553101-4.8767891c1.0581284-2.1229515,2.887619-3.1922894,4.4896774-2.3937893
					C115.0209503,30.5388222,115.1187363,32.6212387,114.1444321,34.5760307z M110.1766739,32.7165031
					c-0.6914444,1.3872719-0.6794662,2.6134529,0.1416855,3.0227318c0.8292084,0.4132919,1.8175354-0.3799171,2.5037384-1.7566757
					c0.6338272-1.2716637,0.7116776-2.5974026-0.1336365-3.0187244
					C111.8592606,30.5505447,110.8628769,31.3397408,110.1766739,32.7165031z"/>
			</g>
		</g>
		<g>
			<g>
				<path class="st0" d="M119.5407867,38.8871841c-1.5296402,2.0964241-3.4308243,2.6571007-4.8623123,1.6126251
					c-1.4532852-1.0603828-1.2583313-3.1131058,0.0705872-4.934433c1.3981323-1.9161873,3.3806458-2.6646347,4.8266754-1.6095505
					C121.0798874,35.053318,120.8281784,37.1227798,119.5407867,38.8871841z M115.9397278,36.390522
					c-0.9136276,1.2521591-1.1067963,2.463089-0.3656235,3.0038834c0.7484436,0.5460968,1.8554688-0.0707283,2.7621765-1.3134003
					c0.8374939-1.1478081,1.1358719-2.4418755,0.3728867-2.9985809
					C117.9607315,34.5363274,116.8464355,35.14785,115.9397278,36.390522z"/>
			</g>
		</g>
		<g>
			<g>
				<path class="st0" d="M53.2575417,31.1087894l3.7196083-2.2584457l0.7442169,1.2257061l-2.3383026,1.4197521l0.9168701,1.5100613
					l2.1848221-1.3265648l0.7382622,1.2158966l-2.1848221,1.3265648l1.6134529,2.6573257L57.27034,37.7177811L53.2575417,31.1087894
					z"/>
			</g>
		</g>
		<g>
			<g>
				<path class="st0" d="M58.0597458,28.1984215l3.8944168-1.9415379l0.6397858,1.2833099l-2.4481926,1.2205315l0.7882156,1.5810299
					l2.2875023-1.140419l0.6346664,1.2730408l-2.2875023,1.140419l1.3870506,2.7822113l-1.4462242,0.7210083L58.0597458,28.1984215z
					"/>
			</g>
		</g>
		<g>
			<g>
				<path class="st0" d="M65.3274002,24.9926853l2.8144684,7.3970242l-1.5103531,0.5746727l-2.8144722-7.3970261
					L65.3274002,24.9926853z"/>
			</g>
		</g>
		<g>
			<g>
				<path class="st0" d="M73.9020538,30.5115318c-0.2507324,0.2273178-0.8588409,0.5498962-1.7023773,0.7462559
					c-2.3968735,0.557951-4.0177155-0.8145847-4.5293503-3.012516c-0.6129074-2.6329422,0.7330704-4.4909515,2.8316269-4.9794579
					c0.8126831-0.1891785,1.4725266-0.1496983,1.7875824-0.0540867l0.0035477,1.4593925
					c-0.3535385-0.0745831-0.8278503-0.1089916-1.3833618,0.0203209c-1.2447205,0.2897491-2.0171814,1.3505173-1.6174622,3.0676498
					c0.3597488,1.5454254,1.4092255,2.3268929,2.8082581,2.0012226c0.4731979-0.1101532,0.9711914-0.3467484,1.247818-0.5559635
					L73.9020538,30.5115318z"/>
			</g>
		</g>
		<g>
			<g>
				<path class="st0" d="M100.5873718,32.4665985c-0.3279495,0.083622-1.0163116,0.084259-1.8537216-0.1367874
					c-2.3794556-0.6281013-3.1699524-2.5994167-2.5939789-4.781374c0.6899643-2.6138077,2.7487488-3.6263485,4.8320541-3.0764217
					c0.8067703,0.2129631,1.3715057,0.5565281,1.6052322,0.788414l-0.6795578,1.2915249
					c-0.2775803-0.2313004-0.6807022-0.4835949-1.2321701-0.6291656c-1.2356796-0.3261795-2.4146271,0.250021-2.8646011,1.9546719
					c-0.4049759,1.5341949,0.1570206,2.7158203,1.5458908,3.0824375c0.4697647,0.1240025,1.0205841,0.1478481,1.3629456,0.0923405
					L100.5873718,32.4665985z"/>
			</g>
		</g>
		<g>
			<g>
				<path class="st0" d="M78.1532745,26.7615452l-2.5887527,0.3994541l0.27742,1.7978916l2.8914795-0.4461651l0.2167358,1.4046078
					l-4.4885635,0.6926022l-1.1686401-7.5736256l4.3424149-0.6700516l0.2167358,1.4046078l-2.7453308,0.4236126l0.2427444,1.5731525
					l2.5887604-0.3994541L78.1532745,26.7615452z"/>
			</g>
		</g>
		<g>
			<g>
				<path class="st0" d="M86.045166,29.8193588c-0.15271-0.1786461-0.3054199-0.3572845-0.4795227-0.5712585
					c-0.5205078,0.3670998-1.2310486,0.6227283-2.1465454,0.5827732c-1.8652725-0.0814037-2.6407623-1.2273884-2.5938187-2.3030891
					c0.0444489-1.0184689,0.6600037-1.7253876,1.5611649-2.1446686l0.0019989-0.045784
					c-0.3158875-0.3806763-0.5426788-0.9638405-0.5187073-1.5131264c0.04245-0.9727077,0.8556213-2.0034885,2.4004974-1.9360676
					c1.1901169,0.0519409,2.0636826,0.7894554,2.0152359,1.8994713c-0.0339584,0.7781601-0.5206757,1.4219151-1.6083832,1.9133072
					l-0.0134201,0.0452862c0.4248047,0.5115433,0.8695068,1.0927486,1.2301788,1.4983158
					c0.3299484-0.4671459,0.6012115-1.1661549,0.734169-1.8482742l1.5563431,0.0679226
					c-0.2569275,1.1582565-0.6894531,2.1368656-1.4095383,2.8736134c0.4133835,0.5110435,0.8376923,1.0340443,1.2958603,1.5699787
					L86.045166,29.8193588z M84.7955856,28.239933c-0.4596634-0.5016079-1.0585709-1.2271233-1.6570206-1.9640999
					c-0.3303909,0.2148933-0.6309586,0.5342636-0.6529312,1.0377865c-0.0284653,0.6522751,0.4391251,1.2344913,1.2287445,1.2689533
					C84.172081,28.6025486,84.5572281,28.4473743,84.7955856,28.239933z M83.4330215,23.7319164
					c-0.0169754,0.3890839,0.1511765,0.7403793,0.4779816,1.1329994c0.5777206-0.3646126,0.8767929-0.6496563,0.8962708-1.0959587
					c0.0159836-0.3661938-0.1839905-0.7762051-0.6417007-0.7961807
					C83.7192535,22.9532986,83.4505081,23.3313961,83.4330215,23.7319164z"/>
			</g>
		</g>
		<g>
			<g>
				<path class="st0" d="M90.6252441,28.4241467c0.4268875,0.2948723,1.0993805,0.6221294,1.8251419,0.7178631
					c0.7815857,0.103096,1.2373962-0.1662159,1.3022003-0.6574955c0.0618591-0.4689541-0.2600784-0.7840462-1.1217728-1.2271481
					c-1.1931-0.6004162-1.9168472-1.4001865-1.7725143-2.4944115c0.1693726-1.2840252,1.370842-2.1252079,3.1461639-1.8910294
					c0.848587,0.1119347,1.4502945,0.3730545,1.8704147,0.632946l-0.5607834,1.3232841
					c-0.2823181-0.1849155-0.7903061-0.4677505-1.5272141-0.5649548c-0.7369537-0.097208-1.1384201,0.1906242-1.1899719,0.5814133
					c-0.0633316,0.4801216,0.3329773,0.7482357,1.2557907,1.2448254c1.2638931,0.6665535,1.7978516,1.4412899,1.6579285,2.5020218
					c-0.1664276,1.2617016-1.2792282,2.2054558-3.3448334,1.9329872c-0.8597717-0.1134109-1.6789017-0.4486599-2.0722198-0.7390938
					L90.6252441,28.4241467z"/>
			</g>
		</g>
		<g>
			<g>
				<path class="st0" d="M105.8228455,26.2350121l-1.1913452,2.7143078l2.4275436,1.065485l1.1913528-2.7143097l1.4700394,0.6452217
					l-3.1002579,7.0634766l-1.4700394-0.6452179l1.2971344-2.9553394l-2.4275436-1.065485l-1.297142,2.9553375l-1.4797287-0.6494751
					l3.1002579-7.0634766L105.8228455,26.2350121z"/>
			</g>
		</g>
		<g>
			<g>
				<path class="st0" d="M123.0448303,37.0156555l1.2545319,1.2306557l-4.3917694,4.4769707l2.1975021,2.1556854
					l-1.0295715,1.0495491l-3.452034-3.3863449L123.0448303,37.0156555z"/>
			</g>
		</g>
		<g>
			<path class="st0" d="M119.634819,36.0175667"/>
		</g>
	</g>
	<g>
		<path class="st0" d="M53.4145699,80.9305573c1.4454422,0.8791428,2.9276466,1.6990662,4.4415932,2.4577484
			c-0.224472,0.44104-0.4497986,0.8817825-0.6759949,1.3222351c-0.9737549-0.4882126-1.9345741-1.0011597-2.8811798-1.538353
			c-0.3054237,0.5280151-0.6122894,1.055481-0.9205971,1.5823975c0.9090958,0.5163116,1.8310814,1.0108948,2.7648354,1.4833069
			c-0.2279663,0.4354935-0.4567757,0.870636-0.6864586,1.3055191c-0.9545021-0.4832077-1.896843-0.9890442-2.8259506-1.5170593
			c-0.5466461,0.9256973-1.0977516,1.8497009-1.6533318,2.7719421c-0.6153717-0.3503189-1.2251091-0.7098694-1.8288841-1.0785599
			C50.599617,85.4684525,52.021637,83.2051849,53.4145699,80.9305573z"/>
		<path class="st0" d="M60.8381081,84.7857056c-0.6253166,1.4030685-1.2581024,2.8039246-1.8983192,4.2024918
			c-0.5778198,1.2514648-0.3260155,2.1346512,0.664196,2.5414658c1.0157051,0.4147949,1.831852,0.0067596,2.3528481-1.3070831
			c0.5706367-1.4276962,1.1347427-2.8571472,1.6922646-4.2883453c0.5847511,0.2226868,1.1729469,0.4366913,1.7643013,0.6420898
			c-0.5015106,1.4096603-1.0086975,2.8179474-1.5215721,4.2248383c-0.8286667,2.3226013-2.6431236,2.9686203-4.9320526,2.0329666
			c-2.2082787-0.913063-2.9476395-2.5343628-1.7999878-4.8138428c0.6609116-1.3363647,1.3143158-2.6751404,1.960247-4.0163116
			C59.688633,84.2730942,60.2614174,84.5336838,60.8381081,84.7857056z"/>
		<path class="st0" d="M66.9277954,87.1931839c0.6076889,0.094368,1.4904099,0.2906494,2.4550095,0.5564346
			c1.190918,0.3277435,1.98629,0.699295,2.4659119,1.2740555c0.39814,0.4816589,0.5487061,1.0843277,0.3863983,1.8024826
			c-0.2219772,0.9967346-1.1611328,1.5087051-1.9703369,1.5674973c-0.0029297,0.0114975-0.0058594,0.0230103-0.0087814,0.034523
			c0.547821,0.3648529,0.7602081,0.9598389,0.8151627,1.7270737c0.0683975,0.9403763,0.1191406,2.0206299,0.2293167,2.3598175
			c-0.7117386-0.1522369-1.4210205-0.3150787-2.1274643-0.4885483c-0.0922318-0.2550278-0.1432266-0.9406662-0.1503906-1.9597626
			c0.0221634-1.0247192-0.278862-1.3813095-1.0721817-1.6128159c-0.1970444-0.0546951-0.393837-0.1102295-0.5903549-0.166687
			c-0.3031769,1.0045395-0.6086349,2.0086517-0.9163742,3.0122528c-0.6761398-0.194397-1.3492203-0.3985367-2.0189056-0.6125107
			C65.2751999,92.1927795,66.1095352,89.6948166,66.9277954,87.1931839z M67.7364655,91.036026
			c0.2512665,0.0721436,0.5029907,0.1428223,0.755127,0.2120438c0.9607697,0.2629547,1.6470413-0.0359802,1.820137-0.7136993
			c0.1828308-0.713913-0.2412186-1.1948471-1.0887604-1.4374924c-0.4504013-0.123024-0.7150421-0.1622391-0.8554382-0.1776657
			C68.1582947,89.625061,67.947937,90.3306427,67.7364655,91.036026z"/>
		<path class="st0" d="M72.4521942,96.7516251c0.5457916-2.6109543,1.0823441-5.22332,1.6096497-7.8370667
			c0.7206268,0.1416855,1.4437866,0.2711105,2.1690369,0.388176c0.4111023,1.0560226,0.8493347,2.1086502,1.3154144,3.1568604
			c0.3979111,0.9035873,0.8000259,1.9562302,1.0997391,2.8973312c0.013443,0.0015335,0.0268936,0.0030365,0.0403366,0.0045395
			c-0.0125427-1.0641098,0.0767593-2.1409378,0.2164993-3.3311539c0.0909653-0.77388,0.1816101-1.54776,0.2719193-2.3217163
			c0.5742035,0.0657654,1.1493301,0.1237946,1.7251358,0.1741486c-0.235199,2.655365-0.4724426,5.3105927-0.7117157,7.9655991
			c-0.744606-0.0651703-1.4881744-0.141716-2.2303162-0.2296753c-0.5415039-1.099823-1.0518036-2.2051773-1.5316696-3.3150482
			c-0.4014587-0.9221191-0.8015671-2.0318756-1.0550232-3.0261002c-0.013298,0.00177-0.0266037,0.00354-0.0399094,0.0052567
			c-0.1324539,1.0489273-0.3009186,2.1638718-0.5285339,3.4494934c-0.1400528,0.7908554-0.2807846,1.5815887-0.4221878,2.372261
			C73.7361145,96.9955215,73.0932388,96.8779068,72.4521942,96.7516251z"/>
		<path class="st0" d="M84.4231491,90.0941467c-0.0844879,2.6644058-0.1672516,5.3288651-0.2483292,7.9934235
			c-0.7143784-0.0233078-1.4284592-0.057106-2.1418762-0.1013412c0.166069-2.6605606,0.3318329-5.3211136,0.4972992-7.9816742
			C83.1607285,90.043663,83.7918015,90.0735245,84.4231491,90.0941467z"/>
		<path class="st0" d="M87.6989441,91.6372986c-0.7653122,0.0133896-1.5309448,0.013588-2.2963867,0.0004425
			c0.0076981-0.5062103,0.0154953-1.012413,0.0233917-1.5186081c2.1382751,0.0367126,4.2780304-0.0327377,6.4080124-0.208168
			c0.0440826,0.5044556,0.0885086,1.0088959,0.1332703,1.5133438c-0.7750626,0.0638962-1.5513916,0.1140594-2.3284988,0.1505051
			c0.1116714,2.1569672,0.2280502,4.3139496,0.3490982,6.4708176c-0.7135544,0.0336075-1.4277115,0.0567322-2.1421585,0.0693665
			C87.7933884,95.9557419,87.7444687,93.7965088,87.6989441,91.6372986z"/>
		<path class="st0" d="M94.701149,89.609993c0.2039108,1.521637,0.4119568,3.0430145,0.6241455,4.5641098
			c0.1861267,1.3636703,0.8852997,1.9863129,1.9465561,1.8259583c1.0882797-0.1668015,1.5535278-0.9310303,1.2846222-2.3176422
			c-0.2877502-1.509285-0.5703125-3.0190506-0.8476868-4.5293427c0.61689-0.1088028,1.2320633-0.2265854,1.8452225-0.3534698
			c0.3140259,1.4628372,0.6335373,2.9250031,0.9585648,4.3865433c0.5535583,2.4029999-0.6151657,3.8774872-3.0690155,4.2537155
			c-2.3696365,0.3535538-3.8983231-0.645195-4.1549072-3.1790771c-0.1595154-1.4794312-0.3157349-2.9589691-0.4686661-4.4386749
			C93.448143,89.7606277,94.0753021,89.6899185,94.701149,89.609993z"/>
		<path class="st0" d="M101.1718521,88.5526199c0.568367-0.2301331,1.4251328-0.5137405,2.387825-0.7798615
			c1.1884232-0.3289337,2.0615387-0.4182587,2.7728653-0.1725159c0.5929642,0.2078705,1.0389023,0.6455078,1.2827148,1.3412857
			c0.3412552,0.9638748-0.1797943,1.8801422-0.83461,2.3440018c0.0037079,0.011322,0.0074234,0.0225677,0.0111313,0.0338898
			c0.6611786,0.0306625,1.1614456,0.4286118,1.6242752,1.0529022c0.5676956,0.7647095,1.2025604,1.655571,1.4821625,1.8868561
			c-0.6843414,0.234787-1.3726425,0.4591522-2.0645523,0.6729507c-0.2180023-0.1693268-0.6386337-0.7250137-1.199707-1.5878525
			c-0.5387497-0.8827057-0.9854126-1.0327911-1.7836685-0.8243713c-0.1966858,0.0541306-0.393631,0.1074066-0.5908356,0.1597595
			c0.2864761,1.0104294,0.5761566,2.0203705,0.8690491,3.029808c-0.6782227,0.180397-1.3593521,0.3508301-2.0431519,0.5112305
			C102.4289398,93.6672134,101.7910995,91.1111603,101.1718521,88.5526199z M103.9043961,91.4211044
			c0.2521896-0.0669403,0.503952-0.1353531,0.7552795-0.2052231c0.9572449-0.2670517,1.3789673-0.8726196,1.165062-1.5393372
			c-0.2247391-0.7026672-0.8396759-0.8966141-1.6903076-0.6704178c-0.4487839,0.1252518-0.6950836,0.2270584-0.8228073,0.2856979
			C103.5076141,90.0018234,103.7052307,90.711586,103.9043961,91.4211044z"/>
		<path class="st0" d="M114.6895523,88.707283c-0.9941101,0.451683-1.9998932,0.8788834-3.0162048,1.28125
			c0.2434158,0.5860672,0.4883499,1.171814,0.7348099,1.7571411c1.1672287-0.4625702,2.3208313-0.9570541,3.4589767-1.4828491
			c0.2172928,0.4462585,0.4356079,0.8922119,0.6550293,1.3378754c-1.8046494,0.834549-3.6476822,1.5919113-5.5220413,2.2701263
			c-0.972229-2.493454-1.9186325-4.9925995-2.8392258-7.4971466c1.6086502-0.5797501,3.1925354-1.2253113,4.7463226-1.9352036
			c0.2070236,0.449295,0.4150238,0.8983002,0.6240997,1.3470459c-1.0047684,0.459404-2.0219421,0.8924866-3.0501251,1.2989273
			c0.2084885,0.5138626,0.4181824,1.0274506,0.6290512,1.5407715c0.9942627-0.3933105,1.9783554-0.8109589,2.9510498-1.2525711
			C114.2697067,87.8177948,114.4790955,88.2626648,114.6895523,88.707283z"/>
	</g>
</g>
</svg>
