<?xml version="1.0" encoding="utf-8"?>
<!-- Generator: Adobe Illustrator 25.3.0, SVG Export Plug-In . SVG Version: 6.00 Build 0)  -->
<svg version="1.1" id="Layer_1" xmlns="http://www.w3.org/2000/svg" xmlns:xlink="http://www.w3.org/1999/xlink" x="0px" y="0px"
	 viewBox="0 0 400 140" style="enable-background:new 0 0 400 140;" xml:space="preserve">
<g>
	<path d="M237.9052887,10.6869392c1.1346436-1.038022,2.1912689-2.0358486,3.28125-2.9957309
		c2.8117523-2.4761209,6.1142578-3.7124438,9.8467255-3.6376028c6.0621643,0.121551,11.2599182,3.7802525,13.2593689,9.5019188
		c1.993988,5.7061129,0.805542,10.8464079-3.4234924,15.1689119c-4.2772827,4.3718166-8.6606445,8.6396732-12.9867401,12.9638653
		c-3.1204681,3.1191063-6.2245331,6.2546577-9.3309479,9.3878021c-0.1932831,0.1949615-0.3432312,0.4329529-0.5449219,0.69133
		c-0.2818451-0.262558-0.4654083-0.4224243-0.6365814-0.5945854c-7.4944-7.5371971-15.0214539-15.0423279-22.4676056-22.6269226
		c-4.0245361-4.0993462-5.1968231-9.0655289-3.4420471-14.4974146c1.7500916-5.417345,5.6490631-8.6812439,11.2524872-9.6688976
		c4.3570709-0.7679741,8.2979736,0.4053411,11.7147217,3.2315273c0.9843292,0.8141952,1.9092255,1.7002559,2.8629303,2.5516076
		C237.4749603,10.3274794,237.6668091,10.4840469,237.9052887,10.6869392z M237.9428864,20.6028366
		c-0.2547607-0.2251301-0.4797821-0.4191303-0.6995544-0.6189327c-2.3369751-2.1245842-4.6721344-4.2511826-7.0107727-6.3739462
		c-0.2966156-0.2692547-0.5968628-0.5378237-0.9181671-0.7760744c-3.7219086-2.7600155-9.1116943-1.2926397-10.7925873,3.0059338
		c-1.1404419,2.9164982-0.5660706,5.572113,1.6412506,7.8185959c5.7448578,5.8468246,11.5025787,11.6810036,17.2563171,17.5191078
		c0.1553345,0.1575966,0.3236847,0.302372,0.6045074,0.5632477c0.1850739-0.2461128,0.3290863-0.4885063,0.5205841-0.6845169
		c2.1020508-2.1516685,4.201767-4.3057976,6.3211517-6.4403419c3.5853424-3.6110191,7.176178-7.2166786,10.7813873-10.8078613
		c1.6665039-1.6600533,2.4275818-3.6266689,2.2362976-5.9784698c-0.3444214-4.2348576-4.4654388-7.2819223-8.6129303-6.3549213
		c-1.2770844,0.2854385-2.399231,0.8614082-3.3580933,1.7496204c-2.4457703,2.2655764-4.8878479,4.5351334-7.332016,6.8024502
		C238.3804169,20.2120991,238.1759338,20.3924427,237.9428864,20.6028366z"/>
	<path d="M164.1458435,26.911768c0.0128784-11.9720907,9.7719269-21.7034225,21.7545471-21.6927719
		c11.9579773,0.0106282,21.7015686,9.7899761,21.6878052,21.7674103
		c-0.0137634,11.9904385-9.8150482,21.7288227-21.8376465,21.6975384
		C173.845871,48.6529617,164.1329803,38.8647728,164.1458435,26.911768z M171.3013763,26.9590702
		c0.0032196,8.0373859,6.5006714,14.5446949,14.5344696,14.5564823c8.0748444,0.0118484,14.5845184-6.4944763,14.58461-14.5770912
		c0.0000916-8.037365-6.4934845-14.5445595-14.5299072-14.5604067
		C177.8283539,12.3621569,171.2981567,18.8887119,171.3013763,26.9590702z"/>
	<path d="M296.9768982,30.174799c-6.7198181,0-13.379364,0-20.1509399,0c-0.001709,3.631361-0.000824,7.1990604-0.0006409,10.857275
		c7.7845154,0,15.4893494,0,23.2375793,0c0,2.2082024,0,4.3263969,0,6.4963531c-10.213501,0-20.4024963,0-30.6303406,0
		c0-13.6477928,0-27.2557163,0-40.9186363c10.1038513,0,20.1894836,0,30.3225098,0c0,2.1369309,0,4.2527661,0,6.4623704
		c-7.6376343,0-15.242218,0-22.888031,0c0,3.5412798,0,6.989089,0,10.5436506
		c1.6908569,0.027689,3.3597107,0.0091515,5.027832,0.0124989c1.6796265,0.003376,3.3591919,0.0007439,5.0388184,0.0007439
		c1.6545105,0,3.3090515,0,4.9635925,0c1.6747742,0,3.3495483,0,5.0796204,0
		C296.9768982,25.8254395,296.9768982,27.9436207,296.9768982,30.174799z"/>
	<path d="M133.5822296,6.5873775c2.530365,0,4.9779053,0,7.5303802,0c0,5.7387638,0,11.4456177,0,17.1524696
		c0,5.6863766,0,11.3727474,0,17.1336117c7.1213074,0,14.1775513,0,21.2101593,0
		c0.1863403,0.5976601,0.2457886,5.0996933,0.1090851,6.5706177c-0.532608,0.1716537-28.0513611,0.2057076-28.8496246,0.0267982
		C133.5822296,33.8734398,133.5822296,20.2671165,133.5822296,6.5873775z"/>
	<path d="M107.3860703,47.5312004c-2.4612122,0-4.9296265,0-7.4410782,0c0-13.6436615,0-27.2482128,0-40.8512764
		c0.5323181-0.1542439,6.1633301-0.2070799,7.3987732-0.0709076
		C107.4848251,7.1404424,107.5324097,46.522377,107.3860703,47.5312004z"/>
	<path d="M207.4072113,59.0515594c-14.3026581,0-28.5325317,0-42.8499451,0
		c0.047287-0.237114,0.0705261-0.4491119,0.1322937-0.6492043c1.0665894-3.4555702,4.3135681-5.9184265,7.9400482-5.952774
		c3.7347107-0.0353661,7.4700165-0.0105247,11.2050476-0.0106239c5.1137695-0.0001411,10.2276001-0.0159073,15.3412628,0.0074844
		c3.554245,0.0162544,6.6886139,2.23563,7.9290924,5.5563622C207.2255554,58.3255043,207.2976074,58.6663322,207.4072113,59.0515594
		z"/>
	<path d="M280.3744507,83.7100449c-0.3347168,0-0.625061,0-1.0250854,0
		c-0.0184021-2.0622635,0.0025024-4.1215515-0.0116577-6.1798248c-0.0513611-0.0132828-0.1027527-0.0265732-0.1541138-0.0398636
		c-0.8524475,2.0656052-1.7049255,4.131218-2.5492554,6.1771622c-0.7356262,0.1101456-0.742157,0.1128311-0.9856567-0.478775
		c-0.6765747-1.643959-1.3462524-3.2907562-2.0212708-4.9353638c-0.0924072-0.2251663-0.199707-0.4442368-0.3545837-0.6590576
		c-0.1504211,1.0070572-0.0842896,2.013916-0.096283,3.0170822c-0.0122375,1.0210037-0.0027161,2.0422745-0.0027161,3.0995255
		c-0.3791809,0-0.6707153,0-0.9625549,0c-0.17276-0.5262833-0.2348022-6.5400314-0.0745544-7.9020081
		c0.4982605,0,1.0062561,0,1.5799255,0c0.8119202,1.9246063,1.6353149,3.8763733,2.5375671,6.0149918
		c0.8853149-2.1153183,1.6981506-4.057518,2.5248413-6.0327606c0.5270996,0,1.0389709,0,1.5953979,0
		C280.3744507,78.4398956,280.3744507,81.0554047,280.3744507,83.7100449z"/>
	<path d="M196.0194397,83.7239609c-0.2472382,0-0.4435425,0-0.725769,0
		c-0.8474731-2.0521317-1.7043915-4.1271362-2.5613251-6.2021484c-0.0476227,0.0026932-0.0952454,0.0053711-0.142868,0.0080643
		c-0.0058289,0.6733398-0.0139465,1.3466568-0.0168304,2.0200119c-0.0029144,0.6767502-0.0006409,1.3535385-0.0006409,2.030304
		c0,0.6953583,0,1.3907318,0,2.1263657c-0.3730621,0-0.6639404,0-0.9564819,0
		c-0.1519623-0.5278473-0.2061768-6.5458603-0.0635071-7.9028015c0.5020447,0,1.0120239,0,1.5762329,0
		c0.8178406,1.9390717,1.6425629,3.8944855,2.5396118,6.0213318c0.8798981-2.1033401,1.6958923-4.0539246,2.525589-6.0372162
		c0.5193939,0,1.0322571,0,1.5780029,0c0,2.6588745,0,5.2749939,0,7.9261627c-0.337616,0-0.6283112,0-0.9900513,0
		c0-2.0612183,0-4.1057663,0-6.1503143c-0.057251-0.0146561-0.114502-0.0293274-0.1717682-0.0439835
		C197.6981354,79.542099,196.9263611,81.6261749,196.0194397,83.7239609z"/>
	<path d="M125.0921021,75.8365097c0.076355-0.0329056,0.0980682-0.0466156,0.1216583-0.051796
		c0.8426895-0.1854782,1.4223251,0.0382004,1.9103699,0.8429871c1.0124664,1.6695328,2.1500092,3.2632294,3.2391205,4.8860931
		c0.1324463,0.1973495,0.2832642,0.3823624,0.5437012,0.534523c0-2.0653305,0-4.1306686,0-6.2481461
		c0.3780975,0,0.6860962,0,1.0429688,0c0,2.6351852,0,5.2505188,0,7.8428116
		c-0.087265,0.0453949-0.1276093,0.0790787-0.1728363,0.0880051c-0.8012848,0.158165-1.3168945-0.1153259-1.7695312-0.8484116
		c-1.0259399-1.6616135-2.1678543-3.2515869-3.2641144-4.8696747c-0.1381531-0.2039261-0.2853317-0.4017334-0.5688019-0.5851212
		c-0.0096817,0.503273-0.0233231,1.0065079-0.0279694,1.5098343c-0.0048599,0.5263443-0.0010834,1.0527725-0.0010834,1.5791702
		c0,0.5263901,0,1.0527802,0,1.5791702c0,0.5204849,0,1.0409622,0,1.6062622c-0.3937531,0-0.7021255,0-1.0534821,0
		C125.0921021,81.0674438,125.0921021,78.4713211,125.0921021,75.8365097z"/>
	<path d="M248.6831818,79.7373962c0.0002289,2.425087-1.7436218,4.1890411-4.1487885,4.1965942
		c-2.4460297,0.0076675-4.2016449-1.7689514-4.1828918-4.2329636c0.0183868-2.4154892,1.7967987-4.1943893,4.1815796-4.1827087
		C246.9126282,75.5299835,248.6829376,77.3297272,248.6831818,79.7373962z M247.512619,79.7205887
		c-0.0054016-1.4557877-0.7927856-2.6289825-2.0364075-3.0201874c-2.0100708-0.632309-4.1326294,0.7427979-3.9642639,3.3164749
		c0.1022491,1.5629654,1.1282349,2.6765442,2.5128784,2.8611526
		C246.0239868,83.1445541,247.5202942,81.789978,247.512619,79.7205887z"/>
	<path d="M167.3506165,79.0196304c0-1.1052475,0-2.1494446,0-3.2322845c0.3849487,0,0.6987915,0,1.052124,0
		c0,2.6551895,0,5.2718048,0,7.9156418c-0.2141724,0.017868-0.3845062,0.0430145-0.5548248,0.0429306
		c-0.1440735-0.0000687-0.2881165-0.0293579-0.5137634-0.0549698c0-1.1885223,0-2.3528061,0-3.5577164
		c-1.3988647,0-2.7114563,0-4.1094971,0c0,1.1940155,0,2.3582458,0,3.5677795c-0.372467,0-0.6625824,0-0.9588928,0
		c-0.176239-0.4947205-0.2208099-6.9988556-0.0408783-7.9151154c0.282196,0,0.5733795,0,0.9459381,0
		c0.1204376,1.0597458-0.0209961,2.130043,0.081131,3.2337341
		C164.5959015,79.0196304,165.9083405,79.0196304,167.3506165,79.0196304z"/>
	<path d="M207.7851868,81.8053207c-1.2686157,0-2.4913177,0-3.7924652,0
		c-0.2596893,0.610878-0.5301514,1.2470932-0.8116608,1.9092865c-0.3779449,0-0.7463074,0-1.2314301,0
		c1.1374664-2.6890717,2.3258057-5.2915039,3.4713745-7.9328156c0.3527832,0,0.6696014,0,1.0328979,0
		c1.1211243,2.6234207,2.2383881,5.2377853,3.384903,7.9205856c-0.2915039,0.020546-0.4823151,0.0420074-0.6734161,0.0450745
		c-0.1729584,0.0027847-0.3462372-0.0145187-0.5709534-0.0254822
		C208.3260651,83.0863342,208.0567322,82.4484711,207.7851868,81.8053207z M205.9654541,77.3144531
		c-0.0529938,0.0022354-0.1059875,0.0044632-0.1589508,0.0066986c-0.462204,1.1234589-0.924408,2.2469101-1.4156952,3.4410706
		c1.0314484,0,1.9479828,0,2.9743195,0C206.8792572,79.5653992,206.422348,78.4399261,205.9654541,77.3144531z"/>
	<path d="M212.0501862,75.77948c0.3513184,0,0.6449432,0,1.0219116,0c0.1234283,1.0884933-0.0214996,2.1794434,0.0947113,3.3804245
		c0.2315521-0.1987,0.381134-0.3139801,0.5157471-0.4446869c0.8269806-0.8028946,1.6965179-1.5684433,2.4600525-2.4280472
		c0.5619812-0.6326675,1.1838989-0.5794296,2.0317535-0.4768143c-1.3133392,1.259758-2.530899,2.4276505-3.7778625,3.6237488
		c1.360321,1.4226379,2.6680756,2.7902985,3.9758148,4.157959c-0.0189819,0.0514374-0.0379639,0.1028671-0.0569305,0.1543045
		c-0.386734,0-0.7813263,0.0462189-1.1571655-0.0177689c-0.216568-0.0368805-0.4348907-0.2213287-0.5973969-0.3918228
		c-0.9335327-0.9793854-1.8493195-1.9756699-2.7744598-2.9631042c-0.1640778-0.1751328-0.3438721-0.3355408-0.6550446-0.6370773
		c0,1.4289169,0,2.6858902,0,3.9693222c-0.4159393,0-0.7280731,0-1.081131,0
		C212.0501862,81.0664062,212.0501862,78.4700317,212.0501862,75.77948z"/>
	<path d="M174.1114502,75.7795868c0.3333435,0,0.6281433,0,1.0265198,0c1.1089325,2.5929413,2.2329254,5.2211685,3.390976,7.9290009
		c-0.4860382,0-0.8491211,0-1.2520599,0c-0.2597046-0.6155243-0.5204315-1.2334671-0.7952881-1.8848953
		c-1.2533569,0-2.4953003,0-3.8122864,0c-0.2542572,0.5991745-0.5241241,1.2351685-0.8027344,1.8917542
		c-0.3893738,0-0.7571716,0-1.2458191,0C171.7998505,81.0348587,172.9525299,78.4143295,174.1114502,75.7795868z
		 M173.0787048,80.7617416c1.0370941,0,1.953186,0,2.9712982,0c-0.484314-1.1946182-0.9423218-2.3243942-1.4003296-3.4541779
		c-0.0522156,0.0058441-0.1044312,0.0116882-0.1566467,0.0175171
		C174.0319824,78.4453506,173.5709381,79.5656204,173.0787048,80.7617416z"/>
	<path d="M118.1641006,82.701561c1.3968811,0,2.7439194,0,4.1639557,0c0,0.3520432,0,0.6543655,0,1.0037079
		c-1.7293015,0-3.4461746,0-5.1629868,0c-0.1611938-0.5241013-0.2202682-6.4960709-0.0779266-7.8409424
		c0.532196-0.1454544,3.8680191-0.1894302,5.0423889-0.0595703c0,0.2745132,0,0.5566559,0,0.941925
		c-1.3241348,0-2.6363373,0-3.9813919,0c0,0.818512,0,1.5360336,0,2.3327332
		c1.2189789,0.110527,2.4376297-0.0064926,3.6978226,0.0689621c0,0.3288193,0,0.6165924,0,0.9931641
		c-1.2038422,0-2.4183273,0-3.6818619,0C118.1641006,81.0171127,118.1641006,81.8056488,118.1641006,82.701561z"/>
	<path d="M220.5627594,75.7757492c1.6907043,0,3.3357697,0,5.0526428,0
		c0.0141754,0.2895889,0.0270386,0.5531006,0.0443726,0.9074478c-1.3362122,0.1503677-2.6556396-0.0066757-4.0078888,0.0939102
		c-0.1443634,0.7589798-0.051178,1.4967041-0.0603943,2.3235397c1.2446899,0,2.4565582,0,3.7195587,0
		c0,0.3749466,0,0.6615219,0,1.0376587c-1.2052155,0-2.4187927,0-3.6808319,0c0,0.8766403,0,1.6664124,0,2.5620956
		c1.3684998,0,2.7531586,0,4.1685486,0c0,0.3923798,0,0.6798096,0,1.0083618c-1.755188,0-3.4713745,0-5.1813049,0
		C220.4551392,83.1518784,220.4075775,76.8575211,220.5627594,75.7757492z"/>
	<path d="M295.9332581,76.7454681c0,0.8219833,0,1.5585709,0,2.3837814c1.2481689,0,2.4617004,0,3.7019653,0
		c0,0.3753281,0,0.6619568,0,1.0124588c-1.2329407,0-2.4258728,0-3.7100525,0
		c-0.0650024,0.867775-0.022583,1.6756287-0.0291748,2.5646286c1.4282532,0,2.7927856,0,4.2045288,0
		c0,0.366478,0,0.6543274,0,0.9932251c-1.7403259,0-3.4767456,0-5.2592773,0c0-2.6347809,0-5.2308197-0.0004578-7.8268509
		c0.5345459-0.1620407,4.2740173-0.1879959,5.0923157-0.0257339c0.009613,0.1054535,0.0288391,0.2246552,0.0292358,0.3439178
		c0.0004578,0.1459503-0.014801,0.2919464-0.02948,0.5454025c-0.6915283,0.0031357-1.3570251,0.0072937-2.0225525,0.0088501
		C297.2648926,76.7466431,296.6194763,76.7454681,295.9332581,76.7454681z"/>
	<path d="M251.2309113,75.7823105c0.3840027,0,0.6762543,0,1.0327606,0c0.0151062,0.2224579,0.0418549,0.4391403,0.0424957,0.655899
		c0.0040436,1.3269653-0.004837,2.654007,0.007309,3.9808731c0.0029602,0.3221207,0.0346375,0.6520996,0.1118011,0.9639282
		c0.2463531,0.99543,0.8972321,1.5165558,1.8635712,1.5312805c1.0023499,0.0152817,1.6785431-0.5066071,1.9366455-1.5331879
		c0.0782776-0.311264,0.1080627-0.6415863,0.1111755-0.9636536c0.0123901-1.2767792,0.0054626-2.5537567,0.0056458-3.830658
		c0.0000305-0.2454453,0-0.4908905,0-0.7879028c0.3717346,0,0.6796875,0,0.9962158,0
		c0.027771,0.0846634,0.0699158,0.153389,0.0700073,0.222168c0.0023499,1.7023544,0.0467834,3.406395-0.0144043,5.1066055
		c-0.0588379,1.6358032-1.3665771,2.7940674-3.0321503,2.8057022c-1.6808167,0.011734-2.9609985-1.1085815-3.1144257-2.7322845
		c-0.0211334-0.2236786-0.0158234-0.4502335-0.0160065-0.6754532
		C251.2303467,78.9760742,251.2309113,77.4265137,251.2309113,75.7823105z"/>
	<path d="M269.2889709,76.4808578c-0.2489929,0.2302856-0.5004578,0.4628754-0.7751465,0.7169037
		c-0.1867065-0.1355667-0.3360901-0.2605667-0.5006714-0.3605499c-0.5762329-0.350029-1.1838989-0.3841629-1.7991943-0.124855
		c-0.4226074,0.1781082-0.6803284,0.4978714-0.7174988,0.9723511c-0.0369263,0.4714737,0.1444702,0.8402786,0.5507202,1.0701752
		c0.2589111,0.1465073,0.5440063,0.2503433,0.8243103,0.35466c0.3982544,0.1482544,0.8131409,0.2553635,1.2029114,0.422142
		c1.3292847,0.568718,1.758606,2.0147247,0.977478,3.243042c-0.9794922,1.5402374-3.7965088,1.5865936-4.9133911,0.0237122
		c0.2512817-0.218483,0.5080872-0.4417648,0.8001404-0.6956558c0.4731445,0.4753265,0.984375,0.8091125,1.651886,0.8086243
		c0.5234985-0.0003815,0.9941711-0.1279221,1.3545227-0.5286331c0.4937744-0.5491104,0.4022522-1.2941284-0.23349-1.6648788
		c-0.3199158-0.1865692-0.6906738-0.2854614-1.0372314-0.4269257c-0.4391479-0.1792603-0.9051819-0.3136368-1.3100281-0.5517273
		c-1.0684814-0.6283722-1.3696594-2.0389557-0.6976318-3.0811234
		C265.5826111,75.2377167,268.1677856,75.1142731,269.2889709,76.4808578z"/>
	<path d="M99.8994675,82.8123779c0.2864075-0.2437515,0.5491409-0.4673615,0.8283386-0.7049789
		c0.456871,0.4561005,0.9454117,0.8165131,1.5893478,0.7889252c0.3409424-0.0146027,0.698204-0.0804749,1.0112228-0.2114105
		c0.4468842-0.1869431,0.6934814-0.5685425,0.704361-1.0663834c0.0114288-0.5230484-0.2946167-0.8397598-0.745369-1.0192032
		c-0.557373-0.2218933-1.1329651-0.398201-1.6893539-0.6223526c-0.7950363-0.3202972-1.3248825-0.8669968-1.4620667-1.7550049
		c-0.111557-0.7221069,0.0756302-1.3434372,0.5600357-1.8712006c1.0384598-1.1314011,3.2602463-1.1071548,4.3837738,0.1038361
		c-0.2574234,0.2430267-0.5153961,0.4866028-0.7439117,0.7023468c-0.3931351-0.2031326-0.7076645-0.4099884-1.0521393-0.532814
		c-0.4676895-0.1667786-0.9479599-0.0944824-1.3834305,0.1351013c-0.8040085,0.4238586-0.8619995,1.4658661-0.1048203,1.9687805
		c0.2458038,0.1632843,0.5377426,0.2628326,0.8174591,0.3678818c0.3977585,0.1493759,0.8043289,0.275116,1.2060394,0.4141235
		c1.897522,0.6565857,1.6095428,2.9992828,0.5003357,3.848877C103.089325,84.3009949,100.6298981,84.0331268,99.8994675,82.8123779z
		"/>
	<path d="M143.0150909,82.0902481c0.4713593,0.5054626,0.9766693,0.8406525,1.6163635,0.8056488
		c0.3629913-0.0198517,0.7425537-0.1111221,1.0727234-0.2620392c0.4145813-0.1894913,0.6247864-0.58255,0.6263275-1.0398865
		c0.0016174-0.4794083-0.2882843-0.789917-0.7067871-0.9740753c-0.296936-0.1306915-0.6110382-0.2217331-0.9132385-0.3412094
		c-0.4180908-0.1652832-0.8573914-0.2970428-1.2432861-0.519928c-1.1478729-0.6629868-1.4257812-2.2142334-0.6134949-3.2580795
		c0.9888763-1.2707596,3.380722-1.3193436,4.5182343-0.0300446c-0.2446594,0.2279205-0.4920654,0.4584045-0.7694397,0.7168045
		c-0.178833-0.1241837-0.3310089-0.2421494-0.4945984-0.3412704c-0.6015778-0.3645554-1.2360077-0.4074402-1.8677979-0.111145
		c-0.8627014,0.4045944-0.9389038,1.4821396-0.1420441,2.0031738c0.2470703,0.1615677,0.5402832,0.2576904,0.820343,0.362442
		c0.3980865,0.14888,0.8133698,0.254776,1.2041168,0.4197617c1.4750824,0.6228333,1.8411713,2.4260864,0.7393188,3.5911331
		c-1.1488037,1.2146912-3.5607758,1.0941696-4.6663055-0.2888794
		C142.4453125,82.5994339,142.6993866,82.3723831,143.0150909,82.0902481z"/>
	<path d="M114.5439911,82.5150146c-0.9575577,1.4139786-3.0230713,1.694519-4.4105911,1.1916351
		c-1.6569138-0.6005173-2.7584-2.2831421-2.6944733-4.118721c0.0655136-1.8810272,1.1836548-3.382515,2.890892-3.8820419
		c1.5960007-0.4669647,3.2280884-0.0324402,4.0242004,1.10392c-0.2506104,0.1955795-0.5035172,0.3929443-0.7374344,0.5754929
		c-0.0820007-0.0145569-0.1449661-0.0061035-0.1700897-0.0330124c-1.3943481-1.49366-4.1942673-0.9092712-4.7533188,1.6001587
		c-0.1663666,0.7467422-0.1231537,1.4921494,0.1744003,2.2124786c0.8620224,2.0868607,3.5443192,2.1897583,4.5513153,0.9897995
		c0.0633545-0.0754929,0.1430817-0.1372299,0.2783356-0.2650223
		C113.9661179,82.0882721,114.2358322,82.2874451,114.5439911,82.5150146z"/>
	<path d="M235.7578583,83.7155991c-0.3951263,0-0.6851196,0-1.0742493,0c0-0.497406-0.0469513-0.9708939,0.0088348-1.4319534
		c0.1654358-1.3670425-0.2165222-2.5323105-1.0814972-3.6028519c-0.5792236-0.7168808-1.0342865-1.5343781-1.5419464-2.3087769
		c-0.1058044-0.1614227-0.1985931-0.3313828-0.3378754-0.5654373c0.2414703-0.0260925,0.4052582-0.0356903,0.5661316-0.0626678
		c0.5366211-0.0899734,0.8698883,0.1221237,1.1422882,0.6024323c0.5178375,0.9131622,1.1021423,1.7886658,1.6613464,2.6782303
		c0.0250854,0.0399094,0.0745697,0.0644608,0.1600952,0.1356125c0.3555756-0.5468597,0.707962-1.0871277,1.0585022-1.6285934
		c0.20401-0.3151016,0.451004-0.6122208,0.5982513-0.9522552c0.3377991-0.7800369,0.8998413-0.9988861,1.7503052-0.7626266
		c-0.0883636,0.1751633-0.1561432,0.348938-0.2561646,0.5015564c-0.7682495,1.1720963-1.5340576,2.3460159-2.3206787,3.5057526
		c-0.2350769,0.3465881-0.3511353,0.6944199-0.340332,1.1164856
		C235.773819,81.8381042,235.7578583,82.736702,235.7578583,83.7155991z"/>
	<path d="M182.4454346,83.705864c-0.3953247,0-0.707428,0-1.0970764,0c0-2.2964096,0-4.5663986,0-6.9397888
		c-0.881485,0-1.6917572,0-2.544693,0c0-0.3660736,0-0.6290665,0-1.0026093
		c2.0358276-0.0361176,4.0731201-0.0156174,6.182663-0.0110397c0.0146332,0.3126984,0.026947,0.5759506,0.0444183,0.9496994
		c-0.8425446,0-1.6516724,0-2.4891357,0c-0.1808014,0.8610458-0.07164,1.6320648-0.0918427,2.3948669
		c-0.0198669,0.7509079-0.0043335,1.5027542-0.0043335,2.2541809
		C182.4454346,82.1219635,182.4454346,82.892746,182.4454346,83.705864z"/>
	<path d="M156.1688995,76.7750397c-0.8553772,0-1.6485596,0-2.5047607,0c0-0.3554153,0-0.6359253,0-0.9755402
		c2.0093231,0,4.0250244,0,6.1005249,0c0,0.2821121,0,0.5632401,0,0.9478683c-0.8220367,0-1.6330566,0-2.5165253,0
		c0,2.3716125,0,4.6413574,0,6.9555893c-0.3628998,0-0.6533661,0-1.0465851,0
		c-0.0690765-0.7457733-0.0222626-1.5136108-0.0308228-2.2774582c-0.0084229-0.7518845-0.0018311-1.5039444-0.0018311-2.255928
		C156.1688995,78.3961639,156.1688995,77.622757,156.1688995,76.7750397z"/>
	<path d="M140.5010071,75.7925568c0,0.3176193,0,0.5634766,0,0.9164734c-0.8125153,0-1.6229858,0-2.5331879,0
		c0,2.3910675,0,4.677681,0,7.0012741c-0.3922729,0-0.6824799,0-1.0548096,0
		c-0.0904541-2.2745438,0.0054932-4.545784-0.0552521-6.8902969c-0.8137817-0.1740723-1.6415863,0.0037308-2.5004578-0.1186218
		c0-0.2971268,0-0.5784988,0-0.9088287C136.3900757,75.7925568,138.406662,75.7925568,140.5010071,75.7925568z"/>
	<path d="M292.5311279,82.6877975c0,0.3931427,0,0.660553,0,0.9281387c-0.5089722,0.1640091-3.3505554,0.215477-4.6109924,0.0843582
		c-0.1547241-0.522438-0.2049561-6.7023392-0.0567627-7.8961868c0.1513367-0.0181274,0.3162842-0.0489578,0.4820862-0.0544281
		c0.1453857-0.0047989,0.291748,0.0188599,0.5161743,0.0359039c0,2.2919312,0,4.5596848,0,6.9022141
		C290.1062317,82.6877975,291.2717285,82.6877975,292.5311279,82.6877975z"/>
	<path d="M283.5933533,75.779335c0.3329163,0,0.6255188,0,0.9720459,0c0,2.6395569,0,5.2567139,0,7.9219666
		c-0.3106079,0-0.6012268,0-0.8973694,0C283.4996338,83.1955643,283.4334106,77.3376999,283.5933533,75.779335z"/>
</g>
</svg>
