<?xml version="1.0" encoding="utf-8"?>
<!-- Generator: Adobe Illustrator 25.3.0, SVG Export Plug-In . SVG Version: 6.00 Build 0)  -->
<svg version="1.1" id="Layer_1" xmlns="http://www.w3.org/2000/svg" xmlns:xlink="http://www.w3.org/1999/xlink" x="0px" y="0px"
	 viewBox="0 0 120 60" style="enable-background:new 0 0 120 60;" xml:space="preserve">
<style type="text/css">
	.st0{fill:#FFFFFF;}
</style>
<g>
	<g>
		<g>
			<g>
				<path class="st0" d="M5.6613317,18.9793911"/>
			</g>
		</g>
	</g>
	<g>
		<path class="st0" d="M13.627305,20.4558754c0.0209932-0.5866737-0.1675901-1.0266094-0.5446873-1.340868
			c-0.3561745-0.3142605-0.9009333-0.4819221-1.6132116-0.4819221c-0.9637709,0-1.801795,0.6285896-1.801795,1.3827839
			c0,1.1104393,1.340867,1.4666138,2.4512358,1.7598801c2.5350666,0.6495113,6.2224884,0.9009342,6.2224884,4.986517
			c0,3.1844368-3.142663,4.6929665-6.6415005,4.6929665c-3.5197601,0-6.6205082-1.0266094-6.6834168-5.1330433h4.1902652
			c-0.0209932,1.4246979,1.0266085,2.1999569,2.5350666,2.1999569c0.9637709,0,2.1998863-0.5028439,2.1998863-1.5085297
			c0-2.0532894-3.1008196-1.6132832-6.39008-3.0589046c-1.5294518-0.670433-2.2837167-2.0532169-2.2837167-3.6874218
			c0.1676617-3.5825977,3.3103247-4.5672903,6.4739103-4.5672903c3.1216698,0,6.3272429,1.1103678,6.07582,4.7558756H13.627305z"/>
		<path class="st0" d="M21.1644897,20.6234646v-1.592289l3.9806881-1.5084572v3.1007462h2.3046379v2.5141449h-2.3046379v4.1693439
			c0,0.2722721-0.1675911,1.6342049,0.7542629,1.6342049c0.5237656,0,1.0685253,0,1.5294533-0.0629082v2.3674755
			c-0.9009342,0.1676617-1.550375,0.209507-2.1370487,0.209507c-2.7026577,0-4.3368626-0.3771687-4.1273556-3.6035919v-4.7140312
			h-2.0532169v-2.5141449H21.1644897z"/>
		<path class="st0" d="M32.200367,26.6784344c-0.0209923,1.3617897,0.3351822,2.534996,1.8227196,2.534996
			c1.1103668,0,1.801796-0.5237656,1.9484634-1.5083866h3.6873512c-0.1256752,1.3617897-0.9846916,2.3464108-1.9903069,2.9330864
			c-0.9218559,0.5866737-2.0951347,0.8171024-3.3312492,0.8171024c-4.2111874,0-5.8872356-1.8017254-5.8872356-5.929081
			c0-3.3313198,2.4931507-5.2169456,5.6567364-5.2169456c4.274025,0,5.6358871,2.4513073,5.6358871,6.3692284H32.200367z
			 M35.97155,24.5413151c0-0.5656796-0.1676636-1.131361-0.4819221-1.5712948
			c-0.3142586-0.4400063-0.7751846-0.7123508-1.382782-0.670435c-1.3827133,0.0628376-1.7179642,1.0475311-1.8227196,2.2417297
			H35.97155z"/>
		<path class="st0" d="M44.5982513,26.6784344c-0.0209923,1.3617897,0.3351822,2.534996,1.8227158,2.534996
			c1.1103706,0,1.801796-0.5237656,1.9484673-1.5083866h3.6873512c-0.1256752,1.3617897-0.9846954,2.3464108-1.9903107,2.9330864
			c-0.9218559,0.5866737-2.0951309,0.8171024-3.3312454,0.8171024c-4.2111893,0-5.8872375-1.8017254-5.8872375-5.929081
			c0-3.3313198,2.4931526-5.2169456,5.6568069-5.2169456c4.2739563,0,5.6358147,2.4513073,5.6358147,6.3692284H44.5982513z
			 M48.3694344,24.5413151c0-0.5656796-0.1676636-1.131361-0.4819221-1.5712948
			c-0.3142586-0.4400063-0.7751884-0.7123508-1.3827133-0.670435c-1.382782,0.0628376-1.7180367,1.0475311-1.8227882,2.2417297
			H48.3694344z"/>
		<path class="st0" d="M54.0419846,31.1409721V16.0142593h3.9806862v15.1267128H54.0419846z"/>
		<path class="st0" d="M60.6363182,31.1409721V16.0142593h6.9558296c3.7083435,0,6.138588,1.1941986,6.138588,4.8606281
			s-2.4302444,4.8607693-6.138588,4.8607693h-2.765564v5.4053154H60.6363182z M66.9845505,22.8023586
			c1.6551285-0.0628376,2.3465576-0.8171024,2.3465576-1.9274712c0-1.1104393-0.6914291-1.8646336-2.3465576-1.9274712h-2.1579666
			v3.8549423H66.9845505z"/>
		<path class="st0" d="M75.2130203,31.1409721V16.0142593h3.9807587v5.7614899
			c0.9009323-1.0475311,1.9484634-1.4665432,3.2893372-1.4665432c2.2627182,0,3.9387665,1.4665432,3.9387665,3.7921753v7.0395908
			H82.441124v-6.180645c-0.0418396-1.0266075-0.29319-2.1369762-1.5293045-2.1369762
			c-1.9693909,0-1.7180405,2.1579704-1.7180405,2.2837887v6.0338326H75.2130203z"/>
		<path class="st0" d="M95.3000793,31.1409721c-0.0838318-0.3351803-0.0838318-0.6703625-0.0838318-1.4246979H95.174263
			c-0.481781,0.7543354-1.3827133,1.7389584-3.3520966,1.7389584c-2.4931564,0-3.7921753-1.340868-3.7501907-3.4988384
			c0.0418472-2.5560608,2.3883972-3.6036625,5.8243256-3.6036625h1.2570419c0-0.9218559,0.2095032-2.2627239-1.3827133-2.1998138
			c-0.9638443,0.041914-1.2781067,0.9846916-1.2570419,1.6132107h-3.7503281
			c-0.0209198-1.4875355,0.7543335-2.3464832,1.8227921-2.8284035c1.0893707-0.5028439,2.4513016-0.6285191,3.6245117-0.6285191
			c2.1370468,0,4.7140274,0.9008617,4.6720428,3.2683392v5.4054565c0,0.4399357,0.0838318,0.9009342,0.2305679,2.1579704H95.3000793
			z M93.2887039,29.1506653c1.7180405,0,1.8646393-1.6132832,1.8646393-3.0170593
			c-0.838028,0-1.6342087-0.0418453-2.178894,0.2305698c-0.5866776,0.2933369-1.0475311,0.6703625-1.0475311,1.403635
			C91.926918,28.5221462,92.5345154,29.1506653,93.2887039,29.1506653z"/>
		<path class="st0" d="M101.3079529,31.1409721V16.0142593h3.9806213v15.1267128H101.3079529z"/>
		<path class="st0" d="M108.6983948,20.6234646v-1.592289l3.9806213-1.5084572v3.1007462h2.3045654v2.5141449h-2.3045654v4.1693439
			c0,0.2722721-0.1675186,1.6342049,0.7541885,1.6342049c0.5239105,0,1.0685959,0,1.5294571-0.0629082v2.3674755
			c-0.900795,0.1676617-1.5503769,0.209507-2.1369095,0.209507c-2.7027969,0-4.3368607-0.3771687-4.1273575-3.6035919v-4.7140312
			h-2.053215v-2.5141449H108.6983948z"/>
	</g>
	<g>
		<path class="st0" d="M6.1622643,42.224514v-7.5683365h3.3230081l1.2367592,5.1259193h0.020998l1.1950283-5.1259193h3.2600145
			v7.5683365h-1.8342733v-6.3313103l-0.020998-0.0209999l-1.7715445,6.3523102H9.6843557l-1.6668205-6.4048042l-0.0207319,0.0209999
			v6.3838043H6.1622643z"/>
		<path class="st0" d="M19.7674084,42.224514c-0.041996-0.167717-0.041996-0.3354378-0.041996-0.7128677h-0.020998
			c-0.2410793,0.37743-0.6918736,0.8700905-1.677187,0.8700905c-1.2473907,0-1.8972664-0.6708755-1.8762684-1.7505493
			c0.020998-1.2788887,1.1950283-1.8030396,2.9142094-1.8030396h0.6288795c0-0.4611626,0.1047249-1.1320343-0.6918736-1.1005402
			c-0.4821568,0.0208664-0.6395092,0.4926605-0.6288776,0.8070984h-1.8765354
			c-0.0103664-0.744236,0.3774338-1.1740303,0.91222-1.4151115c0.5448856-0.2515755,1.2263927-0.3144379,1.8132744-0.3144379
			c1.0693054,0,2.3586922,0.4506607,2.3376942,1.6351891v2.7044983c0,0.2200813,0.0417309,0.4507942,0.1153564,1.07967H19.7674084z
			 M18.761097,41.2287025c0.8595905,0,0.932951-0.8070946,0.932951-1.5094681c-0.4194298,0-0.8175945-0.0209961-1.0903034,0.1152229
			c-0.2934418,0.1468544-0.5238895,0.3354378-0.5238895,0.7023735C18.079855,40.9142647,18.3836632,41.2287025,18.761097,41.2287025
			z"/>
		<path class="st0" d="M22.7754459,42.224514v-7.5683365h1.9916248v7.5683365H22.7754459z M24.7670708,39.2894402
			l1.8135414-2.3270645h2.1697102l-1.7819118,2.2117081l2.0439873,3.0504303h-2.3584251L24.7670708,39.2894402z"/>
		<path class="st0" d="M29.64048,36.0609207v-1.4047432h2.0126228v1.4047432H29.64048z M29.6511116,42.224514v-5.2621384h1.9916248
			v5.2621384H29.6511116z"/>
		<path class="st0" d="M34.9128532,37.5388947c0.4507904-0.5241547,0.9749451-0.7337379,1.6458206-0.7337379
			c1.1320343,0,1.9706268,0.7337379,1.9706268,1.8972664v3.5220909H36.537674v-3.0922928
			c-0.0209961-0.5136566-0.1467209-1.0691757-0.7652321-1.0691757c-0.9853134,0-0.8595886,1.0796738-0.8595886,1.1425362v3.0189323
			h-1.9916267v-3.9098892c0-0.4717903-0.0106316-0.786232-0.0629959-1.3522491h2.0232582L34.9128532,37.5388947z"/>
		<path class="st0" d="M45.5096931,41.4907799c-0.0313644,0.9014549-0.1153564,1.4884682-0.7338715,2.0754852
			c-0.5345192,0.5136528-1.6245575,0.7337341-2.2850647,0.7337341c-1.1636658,0-2.7044983-0.2829399-2.7044983-1.8029099h1.8555374
			c0.0103683,0.2620773,0.1150932,0.4087982,0.2620773,0.5136566c0.1570854,0.0943604,0.3668022,0.1362228,0.5765152,0.1362228
			c0.8803253,0,1.0376778-0.5660172,1.0376778-1.3417511v-0.5975151h-0.0209999
			c-0.3248024,0.5870171-1.037674,0.8385963-1.7085495,0.8385963c-1.5094681,0-2.3060646-1.2158966-2.3060646-2.6206398
			c0-1.5303307,0.8909569-2.6205025,2.4107895-2.6205025c0.7338676,0,1.2997513,0.3039398,1.6038246,0.922451h0.0209999
			l0.0523605-0.7652321h1.9392662V41.4907799z M42.5221214,37.9581909c-0.8175964,0-0.9956818,0.8175926-0.9956818,1.4674683
			c0,0.6500092,0.1780853,1.4676056,0.9956818,1.4676056c0.8175926,0,0.995945-0.8175964,0.995945-1.4676056
			C43.5180664,38.7757835,43.3397141,37.9581909,42.5221214,37.9581909z"/>
		<path class="st0" d="M52.0076599,42.224514h-2.0966187v-7.5683365h3.5013618c1.2787552,0,2.9349403,0.3459396,2.9349403,1.9497643
			c0,1.1321678-0.869957,1.7295494-1.9286308,1.8554039v0.0418625c1.3417511,0.031498,1.5931931,0.7128716,1.7295494,1.8869019
			c0.0523605,0.6288795,0.167717,1.2263908,0.3458023,1.834404h-2.2747002
			c-0.1153564-0.5241508-0.1780853-1.0691719-0.2304459-1.6038246c-0.083992-0.911953-0.125988-1.2893867-1.1950302-1.2893867
			h-0.7862282V42.224514z M52.8252525,37.8638306c0.6708755,0,1.3207512-0.0943565,1.3207512-0.8700905
			c0-0.7755966-0.6498756-0.869957-1.3207512-0.869957h-0.8175926v1.7400475H52.8252525z"/>
		<path class="st0" d="M63.2020111,39.59338c0,1.9392624-1.4151077,2.7883568-3.0609283,2.7883568
			c-1.6458244,0-3.0609322-0.8490944-3.0609322-2.7883568s1.4151077-2.7882233,3.0609322-2.7882233
			C61.7869034,36.8051567,63.2020111,37.6541176,63.2020111,39.59338z M60.1410828,41.2287025
			c0.8385925,0,1.0169411-0.8910866,1.0169411-1.6353226s-0.1783485-1.6351891-1.0169411-1.6351891
			s-1.0166779,0.8909531-1.0166779,1.6351891S59.3024902,41.2287025,60.1410828,41.2287025z"/>
		<path class="st0" d="M67.4255447,42.224514c-0.0419922-0.167717-0.0419922-0.3354378-0.0419922-0.7128677h-0.0210037
			c-0.2410736,0.37743-0.6918716,0.8700905-1.6771851,0.8700905c-1.2473907,0-1.8972664-0.6708755-1.8762665-1.7505493
			c0.0209961-1.2788887,1.1950302-1.8030396,2.9142075-1.8030396h0.6288834c0-0.4611626,0.1047211-1.1320343-0.6918793-1.1005402
			c-0.4821548,0.0208664-0.6395035,0.4926605-0.6288757,0.8070984h-1.8765335
			c-0.0103683-0.744236,0.3774338-1.1740303,0.9122162-1.4151115c0.5448914-0.2515755,1.2263947-0.3144379,1.8132782-0.3144379
			c1.0693054,0,2.3586884,0.4506607,2.3376923,1.6351891v2.7044983c0,0.2200813,0.0417328,0.4507942,0.1153564,1.07967H67.4255447z
			 M66.4192352,41.2287025c0.8595886,0,0.9329529-0.8070946,0.9329529-1.5094681
			c-0.4194336,0-0.8175964-0.0209961-1.0903091,0.1152229c-0.2934418,0.1468544-0.5238876,0.3354378-0.5238876,0.7023735
			C65.7379913,40.9142647,66.0418015,41.2287025,66.4192352,41.2287025z"/>
		<path class="st0" d="M74.1443939,41.4487839h-0.0419998c-0.2724457,0.6395111-1.0063095,0.9329529-1.7505493,0.9329529
			c-1.4990997,0-2.2013397-1.456974-2.2013397-2.7673607c0-1.3941078,0.70224-2.8092194,2.2640686-2.8092194
			c0.6605072,0,1.321022,0.2305794,1.7088165,0.7756004h0.0210037v-2.9245796h1.9916229v7.5683365h-1.9392624L74.1443939,41.4487839
			z M72.1944962,39.59338c0,0.6918716,0.1573486,1.6353226,0.9749451,1.6353226s0.9749527-0.9434509,0.9749527-1.6353226
			c0-0.70224-0.1049957-1.6351891-0.9749527-1.6351891S72.1944962,38.89114,72.1944962,39.59338z"/>
		<path class="st0" d="M80.0241089,38.5870667c0-0.1780853-0.0313644-0.3354378-0.1257172-0.4401588
			c-0.1049957-0.1153564-0.2727127-0.1887169-0.5451584-0.1887169c-0.2934418,0-0.4717865,0.167717-0.4717865,0.4716568
			c0,0.3879318,0.8072281,0.3669357,2.0546188,0.754734c0.6288757,0.1992149,1.05867,0.5870171,1.05867,1.4466057
			c0,1.3941116-1.310379,1.7505493-2.5157776,1.7505493c-1.2893829,0-2.547142-0.2620773-2.5367737-1.8659058h1.8869019
			c-0.0313644,0.1572189,0.0209961,0.3354378,0.1363525,0.4717941c0.1150894,0.136219,0.2828064,0.2410774,0.4715271,0.2410774
			c0.3877945,0,0.6708679-0.1467209,0.6708679-0.4821587c0-0.9329491-3.1132889-0.3774338-3.1132889-2.2851982
			c0-1.2998848,1.3837433-1.656189,2.4320526-1.656189c1.2473907,0,2.4004211,0.3249397,2.4844131,1.7819099H80.0241089z"/>
		<path class="st0" d="M90.3168793,36.8785172c0.0103683-0.2935753-0.083992-0.5136528-0.2727127-0.6708755
			c-0.1780853-0.1572189-0.4507904-0.2410774-0.8069611-0.2410774c-0.4824219,0-0.9015884,0.3144379-0.9015884,0.6917381
			c0,0.5556526,0.6708755,0.7338715,1.2263947,0.8805923c1.2683868,0.3249359,3.1132965,0.4506607,3.1132965,2.4947777
			c0,1.5933304-1.572464,2.3480644-3.3230133,2.3480644c-1.76091,0-3.3123779-0.5136566-3.3437424-2.5681419h2.0963516
			c-0.0103607,0.712738,0.5137863,1.1006699,1.2683868,1.1006699c0.4821625,0,1.1006699-0.2515793,1.1006699-0.754734
			c0-1.0273094-1.5514603-0.8072319-3.1970139-1.530468c-0.7652359-0.3354378-1.1426697-1.0273094-1.1426697-1.844902
			c0.083992-1.7925453,1.656189-2.285202,3.2390137-2.285202c1.5618362,0,3.165657,0.5556526,3.0399399,2.3795586H90.3168793z"/>
		<path class="st0" d="M96.919838,42.224514c-0.0419998-0.167717-0.0419998-0.3354378-0.0419998-0.7128677H96.856842
			c-0.2410812,0.37743-0.6918716,0.8700905-1.6771851,0.8700905c-1.2473907,0-1.8972702-0.6708755-1.8762741-1.7505493
			c0.0210037-1.2788887,1.1950302-1.8030396,2.9142151-1.8030396h0.6288757c0-0.4611626,0.1047287-1.1320343-0.6918716-1.1005402
			c-0.4821548,0.0208664-0.6395111,0.4926605-0.6288757,0.8070984h-1.8765335
			c-0.0103683-0.744236,0.3774261-1.1740303,0.9119492-1.4151115c0.5451508-0.2515755,1.2266617-0.3144379,1.8135376-0.3144379
			c1.069313,0,2.358696,0.4506607,2.3376999,1.6351891v2.7044983c0,0.2200813,0.0419922,0.4507942,0.1153564,1.07967H96.919838z
			 M95.9135208,41.2287025c0.8595963,0,0.9329529-0.8070946,0.9329529-1.5094681
			c-0.419426,0-0.8175964-0.0209961-1.0903015,0.1152229c-0.2934418,0.1468544-0.5241547,0.3354378-0.5241547,0.7023735
			C95.2320175,40.9142647,95.536087,41.2287025,95.9135208,41.2287025z"/>
		<path class="st0" d="M100.4097672,42.224514v-4.0042458h-0.9853134v-1.2578926h1.0063095
			c-0.0629959-1.7610435,0.3981628-2.4319191,2.1907043-2.4319191c0.3564377,0,0.7128754,0.0523605,1.069313,0.125721v1.2473907
			c-0.1783524-0.0523605-0.3774338-0.1152229-0.5555191-0.1152229c-0.6708755,0-0.7548676,0.5870171-0.7338715,1.1740303h1.2263947
			v1.2578926h-1.2263947v4.0042458H100.4097672z"/>
		<path class="st0" d="M105.9439468,39.9918098c-0.0103683,0.6812401,0.167717,1.2683907,0.9119568,1.2683907
			c0.5555191,0,0.9015884-0.2620773,0.9749451-0.7548676h1.844902c-0.0629883,0.6813736-0.4927902,1.1740303-0.9959412,1.4676056
			c-0.4611588,0.2935715-1.0480423,0.4087982-1.6665573,0.4087982c-2.1069794,0-2.9455719-0.9014549-2.9455719-2.9664421
			c0-1.6668205,1.2473907-2.6101379,2.8302155-2.6101379c2.1383438,0,2.8198547,1.2263947,2.8198547,3.1866531H105.9439468z
			 M107.8308487,38.9225044c0-0.2829399-0.083992-0.5660172-0.2410812-0.7860985
			c-0.1573486-0.220211-0.3877945-0.3564339-0.6918716-0.3354378c-0.6918716,0.0313644-0.8595886,0.5240211-0.9119492,1.1215363
			H107.8308487z"/>
		<path class="st0" d="M112.6415329,37.9476891h0.0209961c0.2307129-0.8700905,0.8805847-1.1635284,1.76091-1.1425323v1.6875534
			c-0.1467209-0.0103683-0.2828064-0.0103683-0.4191666-0.0103683c-1.037674,0.0103683-1.394104,0.6288795-1.3627396,1.6351929
			v2.1069794h-1.9916306v-3.9098892c0-0.4717903-0.0106277-0.786232-0.0629959-1.3522491h2.023262L112.6415329,37.9476891z"/>
	</g>
</g>
</svg>
