<?xml version="1.0" encoding="utf-8"?>
<!-- Generator: Adobe Illustrator 25.3.0, SVG Export Plug-In . SVG Version: 6.00 Build 0)  -->
<svg version="1.1" id="Layer_1" xmlns="http://www.w3.org/2000/svg" xmlns:xlink="http://www.w3.org/1999/xlink" x="0px" y="0px"
	 viewBox="0 0 170.4 28.6" style="enable-background:new 0 0 170.4 28.6;" xml:space="preserve">
<style type="text/css">
	.st0{fill:#6B6B6B;}
</style>
<g>
	<polygon class="st0" points="3.9,0.2 0,28.4 8.1,28.4 8.7,24.3 4.9,24.3 6.1,15.8 9.1,15.8 9.7,11.7 6.7,11.7 7.7,4.3 11.5,4.3 
		12.1,0.2 	"/>
	<polygon class="st0" points="14.1,0.2 10.2,28.4 17.7,28.4 18.3,24.3 15.1,24.3 18.5,0.2 	"/>
	<polygon class="st0" points="23.4,0.2 19.4,28.4 23.8,28.4 27.7,0.2 	"/>
	<polygon class="st0" points="29.4,0.2 28.9,4.3 31.1,4.3 27.8,28.4 32.2,28.4 35.5,4.3 37.8,4.3 38.4,0.2 	"/>
	<polygon class="st0" points="40.1,0.2 36.1,28.4 44.3,28.4 44.8,24.3 41,24.3 42.2,15.8 45.2,15.8 45.8,11.7 42.8,11.7 43.9,4.3 
		47.6,4.3 48.2,0.2 	"/>
	<path class="st0" d="M58.9,14c0.7,0,0.9-0.3,1-1.2l1-7.2c0.1-1,0.1-1.3-0.7-1.3h-1L57.8,14H58.9z M55.4,0.2h6.3
		c3.4,0,4.2,1.1,3.7,4.8l-1.2,8.3c-0.6,3.7-1.6,4.8-5,4.8h-1.9l-1.4,10.2h-4.3L55.4,0.2z"/>
	<path class="st0" d="M73.7,5.6c0.1-0.9,0.1-1.2-0.6-1.2h-1.2l-1.1,7.8H72c0.7,0,0.8-0.3,1-1.2L73.7,5.6z M75.4,24.6
		c-0.2,1.4-0.3,2.7,0,3.8H71c-0.3-0.7-0.2-2,0-3.4l1-7.2c0.1-1,0-1.6-0.8-1.6h-0.9l-1.7,12.1h-4.3l3.9-28.2h6.4
		c3.4,0,4.1,1.1,3.6,4.8l-0.6,4.7c-0.4,2.7-1,4-2.7,4.5c1.5,0.5,1.8,1.8,1.4,4.5L75.4,24.6z"/>
	<path class="st0" d="M102.6,19.9c0.3-2-0.1-2.7-1.9-4.9c-2.1-2.7-2.8-4.1-2.3-7.8l0.3-2.4c0.5-3.7,1.6-4.8,5-4.8h1.7
		c3.4,0,4.1,1.1,3.6,4.8l-0.7,5.2h-4.1l0.6-4.6c0.1-0.9,0.1-1.2-0.6-1.2H104c-0.7,0-0.9,0.3-1,1.2l-0.3,2.3c-0.3,2,0.2,2.8,1.9,4.9
		c2.1,2.7,2.9,4.1,2.4,7.8l-0.5,3.5c-0.5,3.7-1.6,4.8-5,4.8h-1.7c-3.4,0-4.1-1.1-3.6-4.8l0.9-6.3h4.1l-0.8,5.8
		c-0.1,0.9-0.1,1.2,0.6,1.2h0.2c0.7,0,0.9-0.3,1-1.2L102.6,19.9z"/>
	<path class="st0" d="M115.4,14c0.7,0,0.9-0.3,1-1.2l1-7.2c0.1-0.9,0.1-1.2-0.6-1.2h-1l-1.4,9.7h1V14z M112,0.2h6.3
		c3.4,0,4.2,1.1,3.7,4.8l-1.2,8.3c-0.6,3.7-1.6,4.8-5,4.8h-1.9l-1.4,10.2H108L112,0.2z"/>
	<path class="st0" d="M143,5.6c0.1-0.9,0.1-1.2-0.6-1.2h-1.2l-1.1,7.8h1.2c0.7,0,0.8-0.3,1-1.2L143,5.6z M144.7,24.6
		c-0.2,1.4-0.3,2.7,0,3.8h-4.5c-0.3-0.7-0.2-2,0-3.4l1-7.2c0.1-1,0-1.6-0.8-1.6h-0.9l-1.7,12.1h-4.3l3.9-28.2h6.4
		c3.4,0,4.1,1.1,3.6,4.8l-0.6,4.7c-0.4,2.7-1,4-2.7,4.5c1.5,0.5,1.8,1.8,1.4,4.5L144.7,24.6z"/>
	<polygon class="st0" points="149.8,0.2 149.2,4.3 151.5,4.3 148.1,28.4 152.5,28.4 155.9,4.3 158.2,4.3 158.8,0.2 	"/>
	<path class="st0" d="M163.8,19.9c0.3-2-0.1-2.7-1.9-4.9c-2.1-2.7-2.8-4.1-2.3-7.8l0.3-2.4c0.5-3.7,1.6-4.8,5-4.8h1.7
		c3.4,0,4.1,1.1,3.6,4.8l-0.7,5.2h-4.1l0.6-4.6c0.1-0.9,0.1-1.2-0.6-1.2h-0.2c-0.7,0-0.9,0.3-1,1.2l-0.3,2.3c-0.3,2,0.2,2.8,1.9,4.9
		c2.1,2.7,2.9,4.1,2.4,7.8l-0.5,3.5c-0.5,3.7-1.6,4.8-5,4.8H161c-3.4,0-4.1-1.1-3.6-4.8l0.9-6.3h4.1l-0.8,5.8
		c-0.1,0.9-0.1,1.2,0.6,1.2h0.2c0.7,0,0.9-0.3,1-1.2L163.8,19.9z"/>
	<path class="st0" d="M127.6,23.2c-0.1,0.9-0.3,1.2-1,1.2h-0.3c-0.8,0-0.8-0.3-0.7-1.2l1.1-7.8h-4.3l-1.2,8.4
		c-0.5,3.7,0.2,4.8,3.6,4.8h2.1c3.4,0,4.5-1.1,5-4.8l1.2-8.4h-4.4L127.6,23.2z"/>
	<path class="st0" d="M131,0h-2.1c-3.4,0-4.5,1.1-5,4.8l-1.5,11.8h4.3l1.5-11.3c0.1-0.9,0.3-1.2,1-1.2h0.3c0.7,0,0.8,0.3,0.7,1.2
		l-1.6,11.4h4.4l1.6-11.9C135.1,1.1,134.4,0,131,0"/>
	<path class="st0" d="M84.6,5.4c0.1-0.9,0.3-1.2,1-1.2h0.3c0.7,0,0.8,0.3,0.7,1.2l-1,7.3H90l1-7.9C91.5,1.1,90.8,0,87.3,0h-2.1
		c-3.4,0-4.5,1.1-5,4.8l-1.1,7.9h4.3L84.6,5.4z"/>
	<path class="st0" d="M84,23.2c-0.1,0.9-0.3,1.2-1,1.2h-0.3c-0.8,0-0.8-0.3-0.7-1.2l1.1-7.8h-4.3l-1.2,8.4c-0.5,3.7,0.2,4.8,3.6,4.8
		h2.1c3.4,0,4.5-1.1,5-4.8l1.2-8.4h-4.4L84,23.2z"/>
</g>
</svg>
