<?xml version="1.0" encoding="utf-8"?>
<!-- Generator: Adobe Illustrator 25.3.0, SVG Export Plug-In . SVG Version: 6.00 Build 0)  -->
<svg version="1.1" id="Layer_1" xmlns="http://www.w3.org/2000/svg" xmlns:xlink="http://www.w3.org/1999/xlink" x="0px" y="0px"
	 viewBox="0 0 200 90" style="enable-background:new 0 0 200 90;" xml:space="preserve">
<style type="text/css">
	.st0{fill:#FFFFFF;}
</style>
<g>
	<path class="st0" d="M126.5,59.6c-3.8,0-6.6,2.7-6.6,6.4c0,3.7,2.8,6.5,6.6,6.5s6.6-2.8,6.6-6.5C133.2,62.3,130.3,59.6,126.5,59.6z
		 M126.6,69.6c-1.8,0-3.4-1.6-3.4-3.6c0-2.1,1.5-3.6,3.4-3.6c1.8,0,3.3,1.5,3.3,3.6C129.9,68,128.4,69.6,126.6,69.6z"/>
	<polygon class="st0" points="144.4,59.7 140.6,59.7 138.3,63.2 136,59.7 132.3,59.7 136.4,65.9 132,72.3 135.8,72.3 138.3,68.4 
		140.9,72.3 144.8,72.3 140.4,65.7 	"/>
	<polygon class="st0" points="163.9,59.7 163.9,67.3 158.3,59.7 155.5,59.7 155.5,72.3 158.5,72.3 158.5,64.7 164,72.3 166.8,72.3 
		166.8,59.7 	"/>
	<polygon class="st0" points="144.9,62.3 153.5,62.3 153.5,59.7 146.6,59.7 	"/>
	<polygon class="st0" points="147,72.3 153.5,72.3 153.5,69.6 145.2,69.6 	"/>
	<polygon class="st0" points="143.3,64.6 142.6,65.7 143.6,67.2 153.5,67.2 153.5,64.6 	"/>
	<path class="st0" d="M166.4,31c0-1-0.8-1.7-1.7-1.7h-8.8L161,20c0.5-0.8,0.2-1.9-0.7-2.4c-0.8-0.5-1.9-0.2-2.4,0.7l-6.1,11H134
		l-6.1-11c-0.5-0.8-1.5-1.1-2.4-0.7c-0.8,0.5-1.1,1.5-0.7,2.4l5.2,9.3h-7.8c-1,0-1.7,0.8-1.7,1.7s0.8,1.7,1.7,1.7h9.8l9.4,17
		c0.3,0.6,0.9,0.9,1.5,0.9s1.2-0.3,1.5-0.9l9.4-17h10.7C165.6,32.8,166.4,32,166.4,31z M143,45.3l-7-12.6h13.9L143,45.3z"/>
</g>
</svg>
