<?xml version="1.0" encoding="utf-8"?>
<!-- Generator: Adobe Illustrator 25.3.0, SVG Export Plug-In . SVG Version: 6.00 Build 0)  -->
<svg version="1.1" id="Layer_1" xmlns="http://www.w3.org/2000/svg" xmlns:xlink="http://www.w3.org/1999/xlink" x="0px" y="0px"
	 viewBox="0 0 400 140" style="enable-background:new 0 0 400 140;" xml:space="preserve">
<style type="text/css">
	.st0{fill:#FFFFFF;}
	.st1{opacity:0.3;fill:#FFFFFF;}
	.st2{opacity:0.7;fill:#FFFFFF;}
	.st3{fill:url(#SVGID_1_);}
	.st4{fill:none;}
</style>
<g>
	<path class="st0" d="M54,58.2c0.5-1.5,1.4-2.7,2.7-3.6c1.3-0.9,2.9-1.5,5-1.9c2.1-0.4,4.7-0.6,7.9-0.6h58.5V40.2H69.2
		c-1.8,0-3.5,0-5.2,0.1c-4,0.2-7.6,0.6-10.7,1.1c-4.3,0.8-7.9,2.1-10.6,3.9c-2.7,1.8-4.7,4.1-6,7c-1.3,2.9-1.9,6.3-1.9,10.5v14.8
		c0,4.1,0.6,7.6,1.9,10.5c0.1,0.3,0.3,0.6,0.4,0.9c1.3,2.5,3.1,4.5,5.6,6.1c2.7,1.8,6.3,3.1,10.6,3.9c4.3,0.8,9.6,1.2,15.8,1.2h58.9
		V88.4H69.6c-3.2,0-5.8-0.2-7.9-0.6s-3.8-1-5-1.9c-1.3-0.9-2.1-2.1-2.7-3.6c-0.5-1.5-0.7-3.4-0.7-5.6v-1.5h69.3V64.7H53.3v-0.9
		C53.3,61.6,53.5,59.7,54,58.2z"/>
	<path class="st0" d="M233.7,68.5c-3.6-2.6-8.9-3.8-16.1-3.8h-46c-4.2,0-6.4-1.6-6.4-4.8v-2.9c0-1.5,0.5-2.7,1.5-3.5
		c1-0.9,2.7-1.3,5-1.3h66.4V40.2h-69.9c-7.5,0-12.9,1.3-16.4,3.9c-3.5,2.6-5.3,6-5.3,10.1v6.3c0,4.8,1.8,8.4,5.4,10.9
		c3.6,2.6,8.9,3.8,16.1,3.8h46c4.2,0,6.4,1.6,6.4,4.8v3.5c0,1.5-0.5,2.7-1.5,3.5c-1,0.9-2.7,1.3-5,1.3h-67.3v11.9h70.9
		c7.4,0,12.9-1.3,16.4-3.9c3.5-2.6,5.3-6,5.3-10.1v-6.9C239.1,74.7,237.3,71,233.7,68.5z"/>
	<path class="st1" d="M54,58.2c0.5-1.5,1.4-2.7,2.7-3.6c1.3-0.9,2.9-1.5,5-1.9c2.1-0.4,4.7-0.6,7.9-0.6h58.5V40.2H69.2
		c-1.8,0-3.5,0-5.2,0.1c-4,0.2-7.6,0.6-10.7,1.1c-4.3,0.8-7.9,2.1-10.6,3.9c-2.7,1.8-4.7,4.1-6,7c-1.3,2.9-1.9,6.3-1.9,10.5v14.8
		c0,4.1,0.6,7.6,1.9,10.5c0.1,0.3,0.3,0.6,0.4,0.9c1.3,2.5,3.1,4.5,5.6,6.1c2.7,1.8,6.3,3.1,10.6,3.9c4.3,0.8,9.6,1.2,15.8,1.2h58.9
		V88.4H69.6c-3.2,0-5.8-0.2-7.9-0.6s-3.8-1-5-1.9c-1.3-0.9-2.1-2.1-2.7-3.6c-0.5-1.5-0.7-3.4-0.7-5.6v-1.5h69.3V64.7H53.3v-0.9
		C53.3,61.6,53.5,59.7,54,58.2z"/>
	<path class="st1" d="M233.7,68.5c-3.6-2.6-8.9-3.8-16.1-3.8h-46c-4.2,0-6.4-1.6-6.4-4.8v-2.9c0-1.5,0.5-2.7,1.5-3.5
		c1-0.9,2.7-1.3,5-1.3h66.4V40.2h-69.9c-7.5,0-12.9,1.3-16.4,3.9c-3.5,2.6-5.3,6-5.3,10.1v6.3c0,4.8,1.8,8.4,5.4,10.9
		c3.6,2.6,8.9,3.8,16.1,3.8h46c4.2,0,6.4,1.6,6.4,4.8v3.5c0,1.5-0.5,2.7-1.5,3.5c-1,0.9-2.7,1.3-5,1.3h-67.3v11.9h70.9
		c7.4,0,12.9-1.3,16.4-3.9c3.5-2.6,5.3-6,5.3-10.1v-6.9C239.1,74.7,237.3,71,233.7,68.5z"/>
	<path class="st2" d="M50,76.5c-0.1,0.2-0.3,0.3-0.4,0.5c0-0.1,0.1-0.2,0.1-0.3C49.8,76.7,49.9,76.6,50,76.5z"/>
	<linearGradient id="SVGID_1_" gradientUnits="userSpaceOnUse" x1="311.5838" y1="47.2236" x2="311.1079" y2="96.9538">
		<stop  offset="0.1593" style="stop-color:#A3C9DA"/>
		<stop  offset="0.3259" style="stop-color:#F3FAFD"/>
		<stop  offset="0.6984" style="stop-color:#DEEBF3"/>
		<stop  offset="0.9996" style="stop-color:#80B0C9"/>
	</linearGradient>
	<path class="st3" d="M363.1,42.2c-1.3-1.4-4-2-7.8-2h-3.4h-3h-0.3c-1.6,0-3.1,0.1-4.3,0.3c-1.2,0.2-2.2,0.5-3.1,1
		c-0.9,0.5-1.7,1.1-2.4,2c-0.7,0.8-1.4,1.9-2.2,3.3l-25.1,41.2c-0.1,0.1-0.2,0.2-0.2,0.3c-0.1-0.1-0.2-0.2-0.2-0.3L286,46.7
		c-0.7-1.4-1.5-2.5-2.2-3.3c-0.7-0.8-1.5-1.5-2.4-2c-0.9-0.5-2-0.8-3.1-1c-1.2-0.2-2.6-0.3-4.3-0.3h-0.3h-3h-3.4
		c-3.9,0-6.5,0.7-7.8,2c-1.4,1.4-2,3.6-2,6.9v51.3h17.9V53.6l0.7-0.2l22.6,38.5c0.9,1.5,1.8,2.8,2.7,3.9c0.9,1.1,1.9,1.9,3,2.6
		c1.1,0.7,2.3,1.2,3.7,1.5c1.4,0.3,4.8,0.3,6.2,0c1.4-0.3,2.6-0.8,3.7-1.5c1.1-0.7,2.1-1.6,3-2.6c0.9-1.1,1.9-2.4,2.7-3.9l22.6-38.5
		l0.7,0.2v46.8h17.9V49.1C365.1,45.8,364.5,43.5,363.1,42.2z"/>
	<path class="st0" d="M364.7,45.3c-0.2-0.9-0.5-1.6-1-2.3c-0.2-0.3-0.4-0.6-0.6-0.8c-0.7-0.7-1.8-1.3-3.3-1.6
		c-1.3-0.3-2.8-0.4-4.6-0.4h-6.3c-1.6,0-3,0.1-4.2,0.3c-1.2,0.2-2.2,0.5-3.1,1c-0.9,0.5-1.7,1.1-2.4,2c-0.7,0.8-1.4,1.9-2.2,3.3
		L312,87.9c-0.3,0.5-0.6,0.5-0.9,0L286,46.7c-0.7-1.4-1.5-2.5-2.2-3.3c-0.7-0.8-1.5-1.5-2.4-2c-0.9-0.5-2-0.8-3.1-1
		c-1.2-0.2-2.6-0.3-4.3-0.3h-3.3c-4,0-9.9,0.7-11.2,2c-1.4,1.4-2,3.6-2,6.9v51.3h17.9V53.6l0.7-0.2l22.6,38.5
		c0.9,1.5,1.8,2.8,2.7,3.9c0.9,1.1,1.9,1.9,3,2.6c1.1,0.7,2.3,1.2,3.7,1.5c1.4,0.3,4.8,0.3,6.2,0c1.4-0.3,2.6-0.8,3.7-1.5
		c1.1-0.7,2.1-1.6,3-2.6c0.9-1.1,1.9-2.4,2.7-3.9l22.6-38.5l0.7,0.2v46.8h17.9V49.1C365.1,47.6,365,46.4,364.7,45.3z"/>
	<line class="st4" x1="274.9" y1="99.2" x2="274.9" y2="97"/>
	<polygon class="st0" points="311.6,79.7 330.9,46.2 292.2,46.2 	"/>
</g>
</svg>
