<?xml version="1.0" encoding="utf-8"?>
<!-- Generator: Adobe Illustrator 25.3.0, SVG Export Plug-In . SVG Version: 6.00 Build 0)  -->
<svg version="1.1" id="Layer_1" xmlns="http://www.w3.org/2000/svg" xmlns:xlink="http://www.w3.org/1999/xlink" x="0px" y="0px"
	 viewBox="0 0 170 120" style="enable-background:new 0 0 170 120;" xml:space="preserve">
<style type="text/css">
	.st0{fill:none;}
	.st1{fill:#FFFFFF;}
</style>
<g>
	<path class="st0" d="M58.013,48.94244c0.06842-0.0036,0.13922,0,0.20886,0h3.31195
		c0.91138-0.02155,2.00537,0.04449,3.09692-0.05157c0.56561-0.04926,1.12518-0.13208,1.65356-0.35425
		c0.61359-0.25696,0.99304-0.7121,1.12878-1.36292c0.05042-0.245,0.05157-0.49359,0.03955-0.74213
		c-0.04681-0.91986-0.49231-1.47223-1.37976-1.7124c-0.55957-0.15125-1.13232-0.21973-1.70752-0.23419
		c-2.08704-0.04797-4.17529-0.01196-6.26239-0.02032c-0.02997,0-0.06,0.00116-0.08997,0
		c-0.1322-0.01086-0.17535,0.05878-0.16571,0.18005c0.00354,0.03967,0,0.07928,0,0.12012v3.87622
		c0,0.04926,0.00232,0.09973,0,0.14893C57.84125,48.90887,57.90369,48.94849,58.013,48.94244z"/>
	<path class="st1" d="M48.92444,58.93365c0.00836-0.00836,0.01794-0.01794,0.02643-0.02521
		c-0.0564-0.09961-0.16211-0.1441-0.2486-0.20532c-0.77448-0.55957-1.51538-1.15881-2.20471-1.82172
		c-1.11072-1.07233-2.06177-2.25989-2.70422-3.67566c-0.69049-1.51788-0.90417-3.09698-0.57159-4.73846
		c0.22217-1.09521,0.67249-2.09668,1.27649-3.02972c0.89703-1.38336,2.0498-2.52893,3.33466-3.5473
		c1.96576-1.55975,4.1441-2.76428,6.42688-3.78497c4.04199-1.80841,8.27252-3.00806,12.60144-3.88586
		c1.9754-0.39984,3.96399-0.7193,5.96332-0.97748c1.64514-0.21136,3.2951-0.37579,4.94867-0.50555
		c1.48541-0.11646,2.97327-0.19812,4.46344-0.23413c2.73309-0.06366,5.46503-0.06122,8.19568,0.08289
		c1.64758,0.08643,3.29144,0.20526,4.93182,0.36499c1.38458,0.1369,2.76428,0.30261,4.13928,0.50555
		c1.83606,0.27142,3.66248,0.59802,5.47693,0.99188c3.04773,0.66412,6.04498,1.49988,8.96423,2.60699
		c0.42383,0.16217,0.84534,0.32904,1.26801,0.49231c-0.03595-0.05756-0.0816-0.09479-0.13092-0.12604
		c-0.47192-0.31226-0.95581-0.60645-1.4469-0.88745c-2.39331-1.37372-4.92462-2.43884-7.53406-3.32147
		c-4.43225-1.5022-8.98938-2.46411-13.61981-3.10046c-1.85046-0.25464-3.70691-0.44318-5.56824-0.58606
		c-1.47583-0.11407-2.95526-0.20056-4.43469-0.23419c-2.7619-0.06122-5.5238-0.06964-8.28564,0.08289
		c-1.17926,0.06488-2.35852,0.14294-3.5365,0.23779c-1.54541,0.12604-3.08496,0.29779-4.61957,0.50671
		c-1.92737,0.26184-3.84387,0.59082-5.74957,0.98712c-3.05377,0.63641-6.05817,1.44696-8.9906,2.51697
		c-2.53253,0.92456-4.98224,2.0257-7.27704,3.45355c-1.4986,0.93182-2.90234,1.98615-4.12366,3.2699
		c-0.9306,0.97742-1.72321,2.05457-2.25989,3.30225c-0.59082,1.3725-0.81183,2.79669-0.57043,4.28217
		c0.19934,1.22601,0.67603,2.34161,1.34851,3.37671c0.94385,1.45062,2.1651,2.6394,3.52679,3.69128
		c1.91296,1.47705,4.01556,2.63104,6.21552,3.6181C48.40802,58.73077,48.65179,58.86646,48.92444,58.93365z"/>
	<path class="st1" d="M132.87494,52.11639c-0.28223-1.34973-0.909-2.53729-1.73999-3.62286
		c-1.04352-1.36292-2.32477-2.47375-3.72137-3.45721c-1.9754-1.39056-4.11884-2.47253-6.33917-3.40668
		c-0.06958-0.02893-0.13806-0.07806-0.22455-0.06128c0.12604,0.09009,0.24854,0.17773,0.37341,0.26416
		c1.03033,0.71808,1.99945,1.50824,2.86639,2.41846c0.90546,0.94867,1.67279,1.99335,2.19989,3.20264
		c0.61731,1.41455,0.79736,2.88202,0.49841,4.39984c-0.24139,1.22961-0.78302,2.32959-1.50348,3.3443
		c-0.87183,1.22601-1.94653,2.25519-3.13055,3.17377c-1.96814,1.52386-4.13928,2.70184-6.41241,3.69739
		c-4.26898,1.86969-8.73602,3.07648-13.30402,3.9447c-1.52142,0.28943-3.05127,0.52954-4.58588,0.73492
		c-1.32935,0.17889-2.66229,0.32898-3.99762,0.4491c-1.27649,0.11646-2.55536,0.20056-3.83539,0.27014
		c-1.40979,0.07568-2.82074,0.10327-4.23175,0.13452c-0.9931,0.02277-1.98737,0.01562-2.98047-0.01562
		c-1.08313-0.03241-2.16626-0.04681-3.24823-0.10083c-1.52869-0.07568-3.05487-0.18262-4.57758-0.32788
		c-1.29565-0.12488-2.58893-0.26898-3.8786-0.44543c-1.73047-0.23663-3.45367-0.52722-5.1684-0.86938
		c-2.67908-0.53564-5.32324-1.20813-7.92065-2.05707c-1.08441-0.35431-2.15674-0.74451-3.23505-1.13605
		c0.08167,0.05408,0.16333,0.10931,0.24609,0.16217c1.67999,1.06757,3.45721,1.95258,5.29327,2.71869
		c3.49207,1.46021,7.11493,2.49408,10.8111,3.28186c3.4223,0.72888,6.88068,1.21881,10.36316,1.53943
		c1.42535,0.13086,2.85309,0.22095,4.28094,0.29541c1.50818,0.08051,3.01886,0.08527,4.52948,0.1153
		c0.526,0.0108,1.05194-0.00598,1.5791-0.01556c1.38098-0.02283,2.76068-0.05286,4.14044-0.12616
		c1.18164-0.06366,2.35968-0.1441,3.53766-0.24133c1.2381-0.10089,2.47247-0.23053,3.70337-0.38788
		c1.94049-0.24493,3.87146-0.55237,5.79163-0.92584c2.83875-0.55475,5.63788-1.25598,8.38416-2.16388
		c2.63464-0.87061,5.19598-1.91772,7.62048-3.27942c1.69434-0.95349,3.29382-2.04266,4.69641-3.3996
		c1.08075-1.0459,2.00177-2.20831,2.61298-3.59528C133.00824,55.17853,133.2016,53.67389,132.87494,52.11639z"/>
	<path class="st1" d="M52.89142,60.10663c-0.0072,0.10919,0.03241,0.17047,0.15125,0.16571c0.0697-0.00366,0.13934,0,0.20898,0
		c1.41095,0,2.82318,0.00116,4.23529,0c0.3963-0.00122,0.36029,0.04199,0.36029-0.37469c0.00122-2.20831,0-4.41541,0-6.62256
		c0.00122-0.2774,0.00238-0.28101,0.27502-0.28101c1.88885,0,3.77777-0.00116,5.66669,0.00116
		c0.47784,0,0.94861,0.06012,1.41339,0.18134c0.80212,0.21259,1.31012,0.70251,1.52496,1.51074
		c0.20422,0.76483,0.263,1.54541,0.28101,2.33075c0.01324,0.60516,0.0072,1.21283,0.00842,1.81927
		c0.00122,0.42511,0.09845,0.82489,0.27258,1.21045c0.07568,0.16931,0.18018,0.22815,0.36627,0.22815
		c1.68958-0.00598,3.38037-0.0036,5.06989-0.00598c0.06244,0,0.14172,0.03479,0.19092-0.0589
		c-0.35065-0.50195-0.5271-1.07831-0.65558-1.67389c-0.24377-1.13123-0.3075-2.28162-0.35431-3.43323
		c-0.02277-0.56677-0.08643-1.12878-0.17767-1.68719c-0.16931-1.0351-0.7085-1.79767-1.63678-2.28278
		c-0.18365-0.09601-0.36981-0.19092-0.57275-0.29535c0.05884-0.09009,0.14294-0.10327,0.21368-0.13452
		c1.30176-0.58838,2.17834-1.56952,2.66589-2.9024c0.33502-0.91504,0.39746-1.86133,0.28101-2.82074
		c-0.18854-1.55511-0.92944-2.74512-2.33807-3.48486c-0.37823-0.19928-0.7757-0.35535-1.18518-0.47906
		c-1.24884-0.37225-2.53259-0.49359-3.82825-0.49475c-4.01678-0.0036-8.03235-0.00116-12.04907-0.00116
		c-0.43958,0-0.38788-0.03723-0.38788,0.37817c0,6.33197,0,12.66638,0,18.99835
		C52.89142,59.96729,52.89502,60.03693,52.89142,60.10663z M57.84729,48.64105v-3.87622c0-0.04083,0.00354-0.08044,0-0.12012
		c-0.00964-0.12128,0.03351-0.19092,0.16571-0.18005c0.02997,0.00116,0.06,0,0.08997,0
		c2.0871,0.00836,4.17535-0.02765,6.26239,0.02032c0.5752,0.01447,1.14795,0.08295,1.70752,0.23419
		c0.88745,0.24017,1.33295,0.79254,1.37976,1.7124c0.01202,0.24854,0.01086,0.49713-0.03955,0.74213
		c-0.13574,0.65082-0.5152,1.10596-1.12878,1.36292c-0.52838,0.22217-1.08795,0.30499-1.65356,0.35425
		c-1.09155,0.09607-2.18555,0.03003-3.09692,0.05157h-3.31195c-0.06964,0-0.14044-0.0036-0.20886,0
		c-0.10931,0.00604-0.17175-0.03357-0.16571-0.15247C57.84961,48.74078,57.84729,48.69031,57.84729,48.64105z"/>
	<path class="st1" d="M88.52704,56.52136c-0.69049,0.3075-1.42542,0.43237-2.17108,0.47559
		c-0.98352,0.05646-1.96698,0.04321-2.94324-0.11169c-0.7301-0.11646-1.4386-0.29901-2.09186-0.65686
		c-1.01349-0.55481-1.58508-1.38696-1.60187-2.56616c-0.00244-0.23297-0.00726-0.23657-0.25464-0.23657
		c-0.75525-0.00122-1.51062,0-2.26587,0c-0.77582,0-1.55157-0.00238-2.32605,0c-0.20898,0.00122-0.21252,0.00598-0.21381,0.21735
		c-0.0036,0.36749,0.0036,0.73376,0.0481,1.1012c0.16327,1.37012,0.70728,2.55414,1.70514,3.51837
		c0.83099,0.80219,1.82043,1.33777,2.89996,1.7196c1.32098,0.46954,2.69354,0.69049,4.08527,0.75897
		c1.92847,0.09485,3.85461,0.05042,5.75677-0.3363c1.08557-0.22089,2.13629-0.5451,3.10895-1.08429
		c1.15277-0.63763,2.07501-1.49982,2.60822-2.72827c0.47192-1.08557,0.57758-2.22156,0.43585-3.38751
		c-0.18134-1.49506-0.91382-2.64429-2.18311-3.45123c-0.84894-0.53918-1.7868-0.8562-2.75348-1.0976
		c-1.37494-0.3446-2.78473-0.43823-4.18494-0.59314c-1.18396-0.13092-2.37274-0.22583-3.54834-0.42749
		c-0.4696-0.08167-0.93787-0.17175-1.38342-0.34949c-0.40948-0.16455-0.71204-0.43585-0.83337-0.87054
		c-0.17773-0.63049-0.05408-1.19849,0.39508-1.68481c0.18372-0.2005,0.40588-0.34943,0.64484-0.47668
		c0.49713-0.26062,1.03278-0.40588,1.58508-0.49237c0.98712-0.15369,1.979-0.15857,2.97083-0.05042
		c0.57404,0.06244,1.13599,0.18488,1.67035,0.41302c0.99432,0.42029,1.63922,1.12878,1.8385,2.21075
		c0.04565,0.24738,0.05286,0.24854,0.30505,0.24854c1.46021,0.00128,2.92157,0.00128,4.383,0
		c0.25818,0,0.26178-0.0036,0.26062-0.26294c-0.00482-1.42657-0.48517-2.66467-1.48425-3.6889
		c-0.93787-0.96307-2.09546-1.56232-3.35992-1.96698c-1.12274-0.35907-2.27673-0.54041-3.45117-0.61725
		c-1.61273-0.10449-3.21826-0.07324-4.80573,0.25818c-1.40741,0.29419-2.71985,0.81299-3.87384,1.68597
		c-1.4903,1.12518-2.3512,2.58539-2.37646,4.48865c-0.02521,1.96222,0.80328,3.42114,2.53973,4.35303
		c0.67725,0.36389,1.39899,0.61005,2.13989,0.80579c1.47699,0.39142,2.99359,0.49713,4.50427,0.65204
		c1.06635,0.10931,2.13751,0.18134,3.19543,0.36383c0.50916,0.08887,1.01471,0.19336,1.49023,0.40588
		c0.43945,0.19696,0.76489,0.50433,0.89337,0.9787c0.1969,0.71326,0.06128,1.35571-0.4671,1.89606
		C89.16351,56.1972,88.85602,56.3761,88.52704,56.52136z"/>
	<path class="st1" d="M111.6225,40.79468c-1.82526,4.48871-3.65295,8.9762-5.48303,13.46368
		c-0.04321,0.10571-0.06604,0.22577-0.18964,0.34583c-0.06244-0.15131-0.11414-0.26898-0.16217-0.38788
		c-1.79761-4.47906-3.59644-8.95569-5.39294-13.43604c-0.12244-0.30261-0.10925-0.25934-0.38544-0.25934
		c-1.61993-0.00122-3.24109-0.00122-4.86096,0.00116c-0.08643,0-0.17896-0.02399-0.26056,0.03363
		c-0.01678,0.11646,0.05524,0.20776,0.09851,0.30505c0.84052,1.94049,1.68353,3.88104,2.52655,5.82037
		c1.92847,4.43707,3.85815,8.87048,5.77954,13.30878c0.09241,0.21375,0.20056,0.29065,0.43829,0.28821
		c1.48181-0.01202,2.9624-0.01086,4.44427-0.00116c0.21136,0.00232,0.30981-0.06726,0.39386-0.2594
		c2.81958-6.41962,5.64508-12.83569,8.46826-19.25287c0.03119-0.06848,0.09009-0.13336,0.05762-0.21979
		c-0.08771-0.03961-0.17767-0.02283-0.2666-0.02283c-1.59949-0.00116-3.2002-0.00238-4.8009,0
		C111.73297,40.52209,111.75336,40.47168,111.6225,40.79468z"/>
	<path class="st1" d="M65.02197,77.35895l0.29895-0.22693c0.21857-0.17053,0.32904-0.33984,0.32904-0.50671
		c0-0.14172-0.05286-0.26184-0.15845-0.36023c-0.10693-0.09973-0.24982-0.14899-0.42993-0.14899
		c-0.17535,0-0.31226,0.04327-0.41193,0.13092c-0.09961,0.08649-0.14886,0.18854-0.14886,0.30383
		c0,0.13562,0.08405,0.30017,0.25098,0.49353L65.02197,77.35895z"/>
	<path class="st1" d="M118.20135,77.79706c0.13806-0.04681,0.24738-0.12726,0.32544-0.24255
		c0.07806-0.11407,0.11761-0.2594,0.11761-0.43115c0-0.19324-0.05157-0.34937-0.15485-0.46948
		c-0.10327-0.11761-0.2486-0.19336-0.43713-0.22455c-0.09485-0.01324-0.37701-0.02039-0.84778-0.02039h-0.9054v1.45892h0.85858
		C117.71497,77.86786,118.06329,77.84393,118.20135,77.79706z"/>
	<path class="st1" d="M42.82043,82.05963h83.6449v-7.60486h-83.6449V82.05963z M120.93427,75.43707h4.26172v0.97144h-3.10052
		v1.27527h2.88562v0.96906h-2.88562v1.56348h3.21106v0.96906h-4.37225V75.43707z M115.13928,75.43744h2.44244
		c0.61481,0,1.06036,0.05164,1.33893,0.15369c0.27856,0.10327,0.50189,0.28827,0.66888,0.55121
		c0.16687,0.26416,0.25092,0.56677,0.25092,0.9054c0,0.43231-0.12732,0.789-0.38068,1.06995
		c-0.25336,0.27985-0.63281,0.45758-1.13715,0.53076c0.25214,0.14655,0.45868,0.30737,0.62201,0.48273
		c0.16333,0.17413,0.38306,0.48517,0.66046,0.93304l0.70129,1.12158h-1.38702l-0.83929-1.25128
		c-0.29907-0.44666-0.50201-0.72888-0.61121-0.84418c-0.11053-0.11646-0.22699-0.19696-0.34949-0.24011
		c-0.12244-0.04321-0.31824-0.06366-0.58478-0.06366h-0.23535v2.39923h-1.15997V75.43744z M112.86835,75.43707h1.16003v5.74835
		h-1.16003V75.43707z M107.10834,75.43707h1.15991v2.26355h2.27563v-2.26355h1.15997v5.74829h-1.15997v-2.51331h-2.27563v2.51331
		h-1.15991V75.43707z M102.61615,79.16852c-0.07928-0.09607-0.21857-0.17896-0.41675-0.24976
		c-0.13684-0.04681-0.44666-0.12976-0.92944-0.25098c-0.62201-0.15375-1.05908-0.34344-1.31006-0.56799
		c-0.35309-0.31586-0.52954-0.70251-0.52954-1.15759c0-0.29187,0.08282-0.56561,0.24854-0.82141
		c0.16693-0.25452,0.40588-0.44788,0.71808-0.5824c0.31226-0.1333,0.68927-0.19934,1.13123-0.19934
		c0.72174,0,1.26447,0.15729,1.62952,0.47437c0.36505,0.31696,0.55597,0.73846,0.57397,1.26685l-1.16003,0.05157
		c-0.04919-0.29535-0.15601-0.50787-0.32056-0.63879c-0.16333-0.12848-0.4071-0.19336-0.73376-0.19336
		c-0.33862,0-0.60156,0.0697-0.79364,0.20782c-0.12256,0.08881-0.18262,0.2077-0.18262,0.35663
		c0,0.13568,0.05646,0.25336,0.17175,0.34937c0.14648,0.12372,0.50195,0.25104,1.06635,0.38428
		c0.56561,0.13336,0.98224,0.27142,1.2525,0.41309c0.2713,0.14294,0.48267,0.33746,0.63519,0.58484
		c0.15369,0.24615,0.23053,0.55121,0.23053,0.91504c0,0.32904-0.09241,0.63763-0.27496,0.92584s-0.44189,0.50195-0.77692,0.64124
		c-0.33386,0.13928-0.75055,0.21014-1.25012,0.21014c-0.7276,0-1.28485-0.16809-1.67511-0.50433
		c-0.3891-0.33624-0.62201-0.82623-0.69763-1.46863l1.12866-0.10925c0.06848,0.37939,0.20667,0.65686,0.41437,0.83453
		c0.2077,0.17773,0.48755,0.2666,0.84174,0.2666c0.37354,0,0.65442-0.07806,0.84418-0.23657s0.28461-0.34344,0.28461-0.55475
		C102.73621,79.37982,102.69653,79.26337,102.61615,79.16852z M93.70929,75.43689h1.16113v3.11377
		c0,0.49359,0.0144,0.81421,0.04199,0.96069c0.05048,0.23535,0.16931,0.42389,0.35547,0.56555
		c0.18738,0.14288,0.44318,0.21503,0.76733,0.21503c0.3291,0,0.57764-0.06848,0.74451-0.20178
		c0.16693-0.13452,0.26782-0.30023,0.30261-0.49597c0.03363-0.1969,0.05042-0.52228,0.05042-0.97742v-3.17981h1.16003v3.02008
		c0,0.68933-0.03003,1.17682-0.09369,1.46143c-0.06244,0.28577-0.17889,0.52594-0.34705,0.72168
		c-0.16803,0.19696-0.39386,0.35303-0.67609,0.46954c-0.28217,0.1153-0.65082,0.17413-1.10596,0.17413
		c-0.54877,0-0.96539-0.06366-1.24884-0.19092c-0.28339-0.12732-0.50793-0.29065-0.67249-0.49359
		c-0.16449-0.20172-0.2738-0.41547-0.32538-0.63641c-0.07562-0.33026-0.11407-0.81653-0.11407-1.45898
		C93.70923,78.50391,93.70923,75.43689,93.70929,75.43689z M87.9212,75.43719h2.2984c0.45514,0,0.79376,0.01794,1.01709,0.05646
		c0.22339,0.03839,0.42389,0.11646,0.6004,0.23773c0.17651,0.12006,0.32306,0.27979,0.44067,0.47913
		c0.11774,0.2005,0.17657,0.42511,0.17657,0.67365c0,0.26898-0.07202,0.51642-0.21735,0.74091
		c-0.14526,0.22583-0.34222,0.3927-0.59082,0.50555c0.35059,0.10211,0.61957,0.27502,0.80817,0.52234
		c0.18854,0.24622,0.28217,0.53442,0.28217,0.86578c0,0.26184-0.06,0.51642-0.1825,0.76257
		c-0.12128,0.24738-0.28699,0.44427-0.49713,0.59204c-0.21136,0.14764-0.47076,0.23889-0.77814,0.27374
		c-0.19452,0.01923-0.66046,0.03363-1.40015,0.03845h-1.9574V75.43719z M85.65161,75.43707h1.16119v5.74835h-1.16119V75.43707z
		 M79.89856,75.43707h1.12994l2.35242,3.83899v-3.83899h1.07837v5.74829h-1.16486l-2.31757-3.74896v3.74896h-1.07831V75.43707z
		 M77.62048,75.43707h1.16119v5.74835h-1.16119V75.43707z M70.95105,75.43707h1.73755l1.0423,3.92188l1.03156-3.92188h1.74121
		v5.74829h-1.07837v-4.52588l-1.14197,4.52588h-1.11676l-1.13721-4.52588v4.52588h-1.07831V75.43707z M63.03455,78.61505
		c0.21857-0.29419,0.54761-0.54877,0.98346-0.76617c-0.19568-0.23291-0.34338-0.45502-0.44305-0.66528
		c-0.09967-0.21008-0.14893-0.40948-0.14893-0.59796c0-0.34821,0.13934-0.6424,0.41791-0.88379
		c0.2774-0.24255,0.67493-0.36267,1.19-0.36267c0.49597,0,0.88501,0.12726,1.16486,0.38062
		c0.27972,0.25342,0.41907,0.56317,0.41907,0.92828c0,0.23413-0.06964,0.45392-0.20776,0.66412
		c-0.13806,0.20886-0.41785,0.44427-0.8382,0.70959l0.79974,1.05438c0.09369-0.16815,0.17419-0.38672,0.24261-0.65448
		l0.99548,0.22699c-0.09845,0.35181-0.1861,0.61121-0.25824,0.77448c-0.07318,0.16211-0.1524,0.30023-0.23529,0.41071
		c0.12244,0.11407,0.28217,0.24017,0.47675,0.37701c0.19452,0.13696,0.3374,0.22705,0.42865,0.27264l-0.66644,0.85138
		c-0.32666-0.15973-0.64008-0.37946-0.94141-0.65924c-0.23187,0.21014-0.47919,0.36267-0.74097,0.46228
		c-0.26062,0.09967-0.57281,0.14893-0.93304,0.14893c-0.71692,0-1.25488-0.20056-1.61511-0.60284
		c-0.27985-0.31097-0.42035-0.66998-0.42035-1.07471C62.70428,79.2395,62.81482,78.90924,63.03455,78.61505z M54.91687,75.43707
		h1.12872l2.35364,3.83899v-3.83899h1.07837v5.74829h-1.16486l-2.31757-3.74896v3.74896h-1.07831V75.43707z M51.98779,75.43646
		l2.302,5.74951h-1.26208l-0.50195-1.3053h-2.2984l-0.4743,1.3053h-1.23083l2.23828-5.74951H51.98779z M45.01422,75.43707
		l1.45416,4.25446l1.40857-4.25446h1.2309l-2.05823,5.74829h-1.23926l-2.05469-5.74829H45.01422z"/>
	<polygon class="st1" points="51.36096,76.77899 50.58405,78.9104 52.15234,78.9104 	"/>
	<path class="st1" d="M64.69287,80.37781c0.17297,0,0.33868-0.03479,0.49841-0.10205
		c0.15845-0.06842,0.33258-0.18134,0.52112-0.3374l-1.12152-1.38336c-0.25342,0.12848-0.44318,0.28101-0.56921,0.46234
		c-0.12488,0.18005-0.18732,0.36505-0.18732,0.55231c0,0.23779,0.07806,0.43237,0.23291,0.58246
		C64.22223,80.30219,64.43115,80.37781,64.69287,80.37781z"/>
	<path class="st1" d="M90.95209,80.18164c0.17297-0.03125,0.31348-0.10809,0.42273-0.22815
		c0.10803-0.1225,0.16205-0.28577,0.16205-0.48993c0-0.17175-0.04199-0.31824-0.12604-0.43829
		c-0.08282-0.12134-0.20416-0.20898-0.36151-0.26416c-0.15845-0.05408-0.50189-0.08173-1.03027-0.08173h-0.93658v1.53711h1.07471
		C90.57507,80.21649,90.84045,80.20569,90.95209,80.18164z"/>
	<path class="st1" d="M90.68549,77.70435c0.1994-0.02405,0.35547-0.09363,0.46954-0.20654
		c0.11285-0.11407,0.17053-0.26422,0.17053-0.4491c0-0.17773-0.04926-0.323-0.14771-0.43353
		c-0.09729-0.11163-0.24371-0.17767-0.43707-0.20172c-0.1153-0.01202-0.44556-0.01923-0.99188-0.01923h-0.66644v0.00006v1.328
		h0.76013C90.29523,77.72229,90.57623,77.71637,90.68549,77.70435z"/>
	<path class="st1" d="M88.51367,86.64056c0.15369-0.06006,0.27496-0.15369,0.36267-0.28223
		c0.08765-0.12848,0.13086-0.2774,0.13086-0.44672c0-0.20892-0.06122-0.38184-0.18372-0.51752
		c-0.1225-0.13574-0.27856-0.21979-0.4671-0.25464c-0.13806-0.02637-0.41675-0.03961-0.83459-0.03961h-0.56073v1.63074h0.63519
		C88.05377,86.73059,88.35999,86.70178,88.51367,86.64056z"/>
	<path class="st1" d="M47.52551,86.39508c0.19812-0.02521,0.35425-0.09369,0.46826-0.20654
		c0.11414-0.11407,0.17053-0.26416,0.17053-0.4491c0-0.17773-0.04919-0.32306-0.14648-0.43353
		c-0.09851-0.11163-0.24493-0.17767-0.43829-0.20288c-0.11414-0.01086-0.44556-0.01807-0.99188-0.01807H45.9212v1.32812h0.76129
		C47.13397,86.41309,47.41498,86.4071,47.52551,86.39508z"/>
	<path class="st1" d="M42.82043,90.75h83.6449v-7.60486h-83.6449V90.75z M123.25311,87.85925
		c-0.08044-0.09607-0.21857-0.17896-0.41675-0.24976c-0.13684-0.04688-0.44659-0.1297-0.9306-0.25098
		c-0.62201-0.15375-1.05786-0.34344-1.3089-0.56921c-0.35309-0.31464-0.52954-0.70129-0.52954-1.15637
		c0-0.29297,0.08282-0.56561,0.24854-0.82135c0.16693-0.25458,0.40588-0.44794,0.71808-0.58246
		c0.31226-0.13324,0.68927-0.2005,1.13123-0.2005c0.72174,0,1.26447,0.15851,1.62952,0.47552s0.55603,0.73846,0.57397,1.26685
		l-1.16003,0.05048c-0.05042-0.29541-0.15729-0.508-0.32056-0.63763c-0.16333-0.12848-0.40833-0.19336-0.73492-0.19336
		c-0.33746,0-0.6004,0.06964-0.79248,0.20776c-0.12256,0.08765-0.18378,0.2077-0.18378,0.35663
		c0,0.13568,0.05762,0.25214,0.17291,0.34943c0.14648,0.1225,0.50195,0.25098,1.06635,0.38306
		c0.56439,0.13452,0.98224,0.27258,1.2525,0.41431c0.27014,0.14172,0.48267,0.3374,0.63519,0.58362
		c0.15369,0.24738,0.22937,0.55237,0.22937,0.9162c0,0.32904-0.09125,0.63763-0.27386,0.92584
		c-0.18365,0.28699-0.44183,0.50195-0.77686,0.64124c-0.33386,0.13928-0.75171,0.21014-1.25012,0.21014
		c-0.72766,0-1.28601-0.16931-1.67511-0.50433c-0.3891-0.33618-0.62201-0.82617-0.69763-1.46863l1.12866-0.11047
		c0.06848,0.37952,0.20667,0.65808,0.41437,0.83575c0.2077,0.17773,0.48755,0.2666,0.84058,0.2666
		c0.37341,0,0.65558-0.07806,0.84534-0.23773c0.18976-0.15735,0.28461-0.34222,0.28461-0.55359
		C123.37317,88.0694,123.33356,87.9541,123.25311,87.85925z M114.89111,84.82343c0.49469-0.52954,1.14435-0.7937,1.94891-0.7937
		c0.70367,0,1.27527,0.20654,1.71484,0.62317c0.26056,0.245,0.45624,0.59924,0.58716,1.05914l-1.14917,0.27502
		c-0.06732-0.29907-0.21014-0.53436-0.42511-0.70612c-0.21497-0.17291-0.47797-0.2594-0.78656-0.2594
		c-0.42511,0-0.77216,0.15375-1.03632,0.45874c-0.26538,0.30621-0.39868,0.80219-0.39868,1.48663
		c0,0.7265,0.13086,1.24408,0.3927,1.55267c0.26056,0.30865,0.6004,0.46356,1.01831,0.46356
		c0.30859,0,0.5752-0.09851,0.79736-0.29425c0.22211-0.19812,0.38062-0.50439,0.47791-0.92584l1.12512,0.35663
		c-0.17291,0.62683-0.45862,1.09271-0.86096,1.39777c-0.40106,0.30505-0.91022,0.4563-1.52625,0.4563
		c-0.76373,0-1.39172-0.26056-1.88287-0.78174c-0.49115-0.52112-0.73615-1.23444-0.73615-2.13983
		C114.15137,86.09631,114.39752,85.35297,114.89111,84.82343z M112.08777,84.12744h1.16003v5.74835h-1.16003V84.12744z
		 M106.80627,84.12781h4.56683v0.97144h-1.70166v4.77692h-1.15991v-4.77692h-1.70526V84.12781z M104.96088,87.85925
		c-0.08044-0.09607-0.21857-0.17896-0.41675-0.24976c-0.13684-0.04688-0.44666-0.1297-0.9306-0.25098
		c-0.62201-0.15375-1.05792-0.34344-1.30896-0.56921c-0.35303-0.31464-0.52948-0.70129-0.52948-1.15637
		c0-0.29297,0.08276-0.56561,0.24854-0.82135c0.16693-0.25458,0.40588-0.44794,0.71808-0.58246
		c0.31226-0.13324,0.68927-0.2005,1.13123-0.2005c0.72168,0,1.26447,0.15851,1.62952,0.47552
		c0.36383,0.31702,0.55597,0.73846,0.57397,1.26685l-1.16003,0.05048c-0.05042-0.29541-0.15729-0.508-0.32056-0.63763
		c-0.16333-0.12848-0.40833-0.19336-0.73492-0.19336c-0.33746,0-0.60156,0.06964-0.79254,0.20776
		c-0.1225,0.08765-0.18372,0.2077-0.18372,0.35663c0,0.13568,0.05762,0.25214,0.17291,0.34943
		c0.14532,0.1225,0.50195,0.25098,1.06635,0.38306c0.56439,0.13452,0.98224,0.27258,1.2525,0.41431
		c0.27014,0.14172,0.48267,0.3374,0.63519,0.58362c0.15247,0.24738,0.22937,0.55237,0.22937,0.9162
		c0,0.32904-0.09131,0.63763-0.27386,0.92584c-0.18365,0.28699-0.44305,0.50195-0.77692,0.64124
		c-0.3338,0.13928-0.75165,0.21014-1.25006,0.21014c-0.72766,0-1.28607-0.16931-1.67511-0.50433
		c-0.3891-0.33618-0.62207-0.82617-0.69769-1.46863l1.12872-0.11047c0.06848,0.37952,0.2066,0.65808,0.41431,0.83575
		c0.20776,0.17773,0.48755,0.2666,0.84064,0.2666c0.37341,0,0.65558-0.07806,0.84534-0.23773
		c0.18976-0.15735,0.28461-0.34222,0.28461-0.55359C105.08093,88.0694,105.04126,87.9541,104.96088,87.85925z M97.71649,84.1272
		h1.22729l2.30194,5.74957h-1.26208l-0.50189-1.30652h-2.2984l-0.47552,1.30652h-1.22961L97.71649,84.1272z M91.18738,84.17462
		h1.16119v4.73248h2.88562v0.96906h-4.04681V84.17462z M85.7998,84.1272h1.86249c0.70612,0,1.16602,0.03003,1.38092,0.08649
		c0.3291,0.08643,0.60529,0.2738,0.82739,0.56195c0.22217,0.29059,0.33264,0.66284,0.33264,1.12042
		c0,0.35297-0.0636,0.6496-0.19092,0.88977c-0.12854,0.24017-0.29181,0.42993-0.48877,0.56677
		c-0.19812,0.1369-0.39868,0.22815-0.60156,0.27264c-0.2774,0.05402-0.67975,0.08282-1.20453,0.08282h-0.75641v2.1687H85.7998
		V84.1272z M77.49884,85.3866c0.25092-0.46588,0.61841-0.82251,1.10114-1.07111c0.36981-0.18976,0.82733-0.28583,1.37732-0.28583
		c0.71326,0,1.27051,0.15015,1.67157,0.4491c0.40106,0.30023,0.66046,0.7121,0.77454,1.24048l-1.15161,0.21735
		c-0.08167-0.28339-0.23419-0.50555-0.45752-0.67004c-0.22333-0.16333-0.50311-0.245-0.83698-0.245
		c-0.50677,0-0.91022,0.16095-1.20923,0.48273c-0.30017,0.32184-0.4491,0.79736-0.4491,1.4314
		c0,0.68207,0.15125,1.19366,0.45392,1.53467c0.30377,0.34106,0.70123,0.51276,1.19244,0.51276
		c0.24255,0,0.48627-0.04803,0.73126-0.1441s0.45398-0.21014,0.62927-0.34821v-0.72772h-1.32928v-0.96906h2.50122v2.29114
		c-0.24249,0.23419-0.59558,0.44196-1.0567,0.61963c-0.46112,0.18018-0.92822,0.26898-1.40137,0.26898
		c-0.60162,0-1.12512-0.12604-1.57184-0.3783c-0.448-0.25214-0.78302-0.61237-1.00873-1.08191
		c-0.22455-0.46954-0.33746-0.97864-0.33746-1.53107C77.1217,86.38452,77.24786,85.85132,77.49884,85.3866z M71.53497,84.12781
		h1.12872l2.35248,3.83899v-3.83899h1.07837v5.74835h-1.1637l-2.31757-3.74896v3.74896h-1.07831V84.12781z M69.25665,84.12744
		h1.16003v5.74835h-1.16003V84.12744z M63.48773,84.1272h2.12189c0.47797,0,0.84296,0.03723,1.09399,0.10931
		c0.33734,0.09967,0.62561,0.2774,0.86694,0.53076c0.24017,0.25336,0.42389,0.56317,0.54877,0.9306
		c0.12488,0.36749,0.18854,0.82135,0.18854,1.35938c0,0.47192-0.05884,0.88019-0.17773,1.22241
		c-0.14288,0.41907-0.34827,0.75653-0.61481,1.01593c-0.20172,0.19574-0.47314,0.34943-0.81543,0.45868
		c-0.25568,0.08051-0.59912,0.1225-1.02667,0.1225h-2.18549V84.1272z M58.61835,84.17462h1.15997v4.73248h2.88684v0.96906h-4.04681
		V84.17462z M56.32013,84.12744h1.15997v5.74835h-1.15997V84.12744z M50.54865,84.12769h1.15991v3.11377
		c0,0.49353,0.01562,0.81415,0.04321,0.96063c0.05048,0.23541,0.16815,0.42389,0.35547,0.56561
		c0.18738,0.14288,0.44318,0.21497,0.76733,0.21497c0.32904,0,0.57642-0.06848,0.74451-0.20294
		c0.16693-0.13452,0.26782-0.30023,0.30145-0.49597s0.05157-0.52118,0.05157-0.97626v-3.17981h1.16003v3.01886
		c0,0.69049-0.03125,1.17804-0.09369,1.46265c-0.06244,0.28577-0.17889,0.52594-0.34705,0.72168
		c-0.16803,0.19574-0.39386,0.35181-0.67603,0.46954c-0.28345,0.11523-0.65082,0.17291-1.10602,0.17291
		c-0.54993,0-0.96539-0.06366-1.24878-0.18976c-0.28461-0.12726-0.50793-0.29059-0.67249-0.49353s-0.2738-0.41547-0.32544-0.63641
		c-0.07562-0.33026-0.11401-0.81659-0.11401-1.45905V84.12769z M44.76123,84.12793h2.29712
		c0.45514,0,0.79376,0.01801,1.01709,0.05646c0.22339,0.03839,0.42395,0.11646,0.6004,0.23773
		c0.17657,0.12012,0.32306,0.27979,0.44196,0.47913c0.11646,0.20056,0.17651,0.42511,0.17651,0.67365
		c0,0.26898-0.07324,0.51642-0.21857,0.74091c-0.14526,0.22583-0.34222,0.3927-0.5896,0.50562
		c0.35065,0.10205,0.61963,0.27496,0.80817,0.52234c0.18732,0.24493,0.28101,0.53436,0.28101,0.86578
		c0,0.26178-0.06006,0.51636-0.18134,0.76251c-0.12134,0.24738-0.28821,0.44434-0.49835,0.59204
		c-0.21021,0.14771-0.47076,0.23779-0.77814,0.27258c-0.19452,0.02045-0.66046,0.03363-1.40015,0.03961h-1.95612V84.12793z"/>
	<polygon class="st1" points="98.31689,85.46973 97.53998,87.60114 99.10828,87.60114 	"/>
	<path class="st1" d="M47.79211,88.87238c0.17285-0.03119,0.31219-0.10809,0.42145-0.22931
		c0.10803-0.12256,0.16205-0.28461,0.16205-0.48877c0-0.17169-0.04199-0.31824-0.12488-0.43951
		c-0.08398-0.12006-0.2041-0.2077-0.36261-0.26294c-0.15851-0.05408-0.50195-0.08173-1.02911-0.08173H45.9212v1.53711h1.07471
		C47.41382,88.90723,47.6792,88.89642,47.79211,88.87238z"/>
	<path class="st1" d="M66.68555,88.61353c0.12494-0.11169,0.22577-0.29785,0.30383-0.55481
		c0.07922-0.25818,0.11768-0.60883,0.11768-1.0531c0-0.44434-0.03845-0.78534-0.11768-1.02313
		c-0.07806-0.23773-0.18738-0.42389-0.32904-0.55713c-0.1405-0.13336-0.3194-0.22339-0.5368-0.2702
		c-0.16211-0.03601-0.48035-0.0553-0.95343-0.0553h-0.52112v3.80786h0.86694c0.32422,0,0.55835-0.01801,0.70129-0.05524
		C66.40576,88.80566,66.56183,88.72638,66.68555,88.61353z"/>
</g>
</svg>
