<?xml version="1.0" encoding="utf-8"?>
<!-- Generator: Adobe Illustrator 25.3.0, SVG Export Plug-In . SVG Version: 6.00 Build 0)  -->
<svg version="1.1" id="Layer_1" xmlns="http://www.w3.org/2000/svg" xmlns:xlink="http://www.w3.org/1999/xlink" x="0px" y="0px"
	 viewBox="0 0 170 80" style="enable-background:new 0 0 170 80;" xml:space="preserve">
<style type="text/css">
	.st0{fill:#FFFFFF;}
	.st1{fill:#006099;}
</style>
<g>
	<path class="st0" d="M23.6,66V13.7c0-1.6,1.3-2.8,2.8-2.8h117.2c1.6,0,2.8,1.3,2.8,2.8V66c0,1.6-1.3,2.8-2.8,2.8H26.4
		C24.8,68.9,23.6,67.6,23.6,66z"/>
	<path class="st1" d="M26.1,67.2c-0.5,0-0.8-0.4-0.8-0.8V13.5c0-0.5,0.4-0.8,0.8-0.8h117.7c0.5,0,0.8,0.4,0.8,0.8
		c0,6.1,0,44.4,0,52.9c0,0.5-0.4,0.8-0.8,0.8C143.8,67.2,26.1,67.2,26.1,67.2z"/>
	<g>
		<path class="st0" d="M68.7,22.8l-2.1-0.9c-5.6-2.5-11.3-3.8-16.9-3.8s-11.3,1.3-16.9,3.7l-2.1,0.9V50l1.1,1
			c4.8,4.3,10.2,7.6,16.6,10.1l1.3,0.5l1.3-0.5c6.4-2.5,11.8-5.9,16.6-10.1l1.1-1L68.7,22.8z M32.4,23.9l1-0.5
			c5.4-2.4,10.8-3.6,16.2-3.6l0,0c5.4,0,10.9,1.2,16.2,3.6l1,0.5v16.7l0,0h-3.4l0,0l0,0c-8.1-11.9-20.8-11.4-25-9.5l0,0
			c8.9-4.7,16.9-4.2,24.1,2.6h0.9v-7.5c-4.6-1.9-9.2-2.9-13.8-2.9l0,0c-4.6,0-9.2,1-13.8,2.9v8.4h-3.5L32.4,23.9L32.4,23.9z
			 M66.4,49.7c-4.6,4.1-9.9,7.4-16.1,9.8l-0.6,0.3l-0.6-0.3C42.9,57,37.6,53.8,33,49.7l-0.6-0.5V37.1l0,0h3.4l0,0l0,0
			c8.1,11.8,20.8,11.4,25,9.4l0,0c-8.8,4.7-16.7,4.3-24-2.5h-0.9v3.7c4,3.5,8.5,6.2,13.8,8.4c5.3-2.2,9.8-4.9,13.8-8.4v-4.5H67v6.1
			L66.4,49.7z"/>
		<g>
			<g>
				<polygon class="st0" points="76.8,43 74.1,43 74.1,52.6 74.1,55.1 76.8,55.1 82.7,55.1 82.7,52.6 76.8,52.6 				"/>
				<polygon class="st0" points="84.2,43 84.2,45.6 84.2,47.8 84.2,50.3 84.2,52.6 84.2,55.1 86.8,55.1 92.7,55.1 92.7,52.6 
					86.8,52.6 86.8,50.3 92.3,50.3 92.3,47.8 86.8,47.8 86.8,45.6 92.7,45.6 92.7,43 86.8,43 				"/>
				<polygon class="st0" points="139.3,45.6 139.3,43 133.4,43 130.7,43 130.7,45.6 130.7,47.8 130.7,50.3 130.7,52.6 130.7,55.1 
					133.4,55.1 139.3,55.1 139.3,52.6 133.4,52.6 133.4,50.3 138.9,50.3 138.9,47.8 133.4,47.8 133.4,45.6 				"/>
				<path class="st0" d="M99.9,43h-1.4L94,53.3v1.9h2l1.1-2.6h5.5l1.1,2.6h2.1v-1.9L101.3,43H99.9z M98.2,50l1.5-3.5h0.1h0.2
					l1.5,3.5H98.2z"/>
				<path class="st0" d="M112.4,50.5h3.5c-0.5,1.5-1.9,2.3-3.5,2.3c-2.1,0-3.7-1.4-3.7-3.7s1.7-3.7,3.7-3.7c1.2,0,1.9,0.5,2.6,1.3
					l2.5-1.2c-1.1-1.7-2.9-2.6-5.1-2.6c-3.5,0-6.4,2.4-6.4,6.3s2.9,6.3,6.4,6.3c2.3,0,4.2-1,5.4-2.7v-2.2v-0.2v-2.3h-5.4V50.5z"/>
				<path class="st0" d="M126.9,50.1c0,1.5-1.2,2.7-2.6,2.7c-1.5,0-2.6-1.2-2.6-2.7V43H119v7.1c0,2.9,2.4,5.3,5.3,5.3
					s5.3-2.4,5.3-5.3V43h-2.7C126.9,43,126.9,50.1,126.9,50.1z"/>
			</g>
			<g>
				<polygon class="st0" points="114.7,24.5 114.7,27.9 114.7,30.8 114.7,34.2 114.7,37.1 114.7,40.4 118.3,40.4 125.9,40.4 
					125.9,37.1 118.3,37.1 118.3,34.2 125.4,34.2 125.4,30.8 118.3,30.8 118.3,27.9 125.9,27.9 125.9,24.5 118.3,24.5 				"/>
				<path class="st0" d="M139.3,29.9c0-3-2.4-5.4-5.4-5.4H131h-3.5v3.4v4v3.4v5.2h3.5v-5.2h1.4l4.1,5.2h2.7V38l-2.9-3.3
					C138.1,33.8,139.3,32,139.3,29.9z M133.9,31.9H131v-4h2.9c1,0,1.9,0.9,1.9,2S134.9,31.9,133.9,31.9z"/>
				<path class="st0" d="M96.7,33.8c0,2-1.5,3.6-3.4,3.6s-3.4-1.6-3.4-3.6v-9.2h-3.5v9.2c0,3.8,3.1,7,7,7c3.8,0,7-3.1,7-7v-9.2h-3.5
					v9.2H96.7z"/>
				<path class="st0" d="M108.2,24.5h-2.9h-3.5v3.4v4v3.4v5.2h3.5v-5.2h2.9c3,0,5.4-2.4,5.4-5.4C113.5,26.9,111.1,24.5,108.2,24.5z
					 M108.2,31.9h-2.9v-4h2.9c1,0,1.9,0.9,1.9,2C110,31,109.2,31.9,108.2,31.9z"/>
				<path class="st0" d="M81.3,31.2c-1.5-0.4-2.1-0.6-2.1-0.6c-1.8-0.5-1.8-1.2-1.8-1.8c0-0.8,0.8-1.3,2-1.3c2.9,0,5.1,1.4,5.1,1.4
					v-3.6c0,0-1.8-1.1-5.1-1.1c-5.2,0-5.5,3.9-5.5,4.5c0,1,0.1,4,4.3,5.1l1.5,0.4c1.3,0.3,2.1,0.8,2.1,1.6s-0.8,1.5-2.1,1.5
					c-3.4,0-5.5-1.4-5.5-1.4v3.6c0,0,2.7,1.1,5.5,1.1c3.1,0,5.6-2.2,5.6-4.7C85.3,32.5,82.3,31.5,81.3,31.2z"/>
			</g>
		</g>
	</g>
</g>
</svg>
