<?xml version="1.0" encoding="utf-8"?>
<!-- Generator: Adobe Illustrator 25.3.0, SVG Export Plug-In . SVG Version: 6.00 Build 0)  -->
<svg version="1.1" id="Layer_1" xmlns="http://www.w3.org/2000/svg" xmlns:xlink="http://www.w3.org/1999/xlink" x="0px" y="0px"
	 viewBox="0 0 400 140" style="enable-background:new 0 0 400 140;" xml:space="preserve">
<style type="text/css">
	.st0{fill:#1D1D1B;}
</style>
<g>
	<g>
		<polygon class="st0" points="94.17043,87.26544 94.17043,35.71688 203.72624,35.71688 305.82956,8.38983 305.82956,87.26544 
			302.10471,87.26544 301.9808,13.3562 204.10072,39.56853 97.77121,39.56853 97.89806,87.26544 		"/>
	</g>
	<g>
		<path class="st0" d="M262.72665,48.97919l-23.72926-2.65234c0,0-1.03622,1.61317-1.44997,2.79736
			c-0.46519,1.33222-1.03622,2.95744-1.03622,2.95744l26.21545-2.75202L252.7063,85.08797c0,0,4.09933,2.17807,10.21655,2.17807
			c5.99347,0,10.28015-2.1992,10.28015-2.1992l-10.06259-35.75837l26.19424,2.85777c0,0-0.51956-1.9817-0.87009-2.83661
			c-0.49838-1.22044-1.57388-3.00278-1.57388-3.00278l-23.72906,2.58892l4.51309-16.29471c0,0-2.42258-0.49845-4.75186-0.49845
			c-2.59793,0-4.77289,0.51958-4.77289,0.51958L262.72665,48.97919z"/>
	</g>
	<g>
		<path class="st0" d="M154.84073,59.20168c0.06195,0.16225,0.09146,0.29501,0.09735,0.39531
			c0.00296,0.1003-0.02655,0.17701-0.08554,0.22716c-0.05901,0.0531-0.15636,0.08555-0.29501,0.1003
			c-0.13571,0.01475-0.31862,0.0236-0.54872,0.0236s-0.41301-0.0059-0.55167-0.0177c-0.13571-0.0118-0.24191-0.0295-0.30975-0.05605
			c-0.07082-0.02655-0.12392-0.06195-0.15636-0.1062c-0.0354-0.04425-0.06491-0.1003-0.09441-0.1652l-1.2361-3.50471h-5.98279
			l-1.18004,3.46046c-0.02065,0.0649-0.05014,0.12391-0.0885,0.17111c-0.0354,0.0472-0.09145,0.0885-0.1593,0.1239
			c-0.0708,0.03245-0.17111,0.05605-0.3009,0.0708c-0.12981,0.01475-0.29797,0.0236-0.50742,0.0236
			c-0.21536,0-0.38942-0.0118-0.52808-0.0295c-0.1357-0.0177-0.23306-0.0531-0.28911-0.1062
			c-0.05605-0.05015-0.07965-0.12685-0.07671-0.22715c0.00296-0.1003,0.0354-0.23011,0.09441-0.39531l4.82635-13.36688
			c0.0295-0.0826,0.06786-0.14751,0.11801-0.20061c0.0472-0.0531,0.118-0.09145,0.20946-0.12095
			c0.09439-0.0295,0.2124-0.05015,0.35695-0.06195c0.14456-0.0118,0.32747-0.0177,0.54872-0.0177
			c0.23895,0,0.43367,0.0059,0.59003,0.0177c0.15634,0.0118,0.2832,0.03245,0.37761,0.06195
			c0.09735,0.0295,0.1711,0.0708,0.2242,0.12685c0.05016,0.05605,0.09146,0.12391,0.12096,0.2065L154.84073,59.20168z
			 M148.64848,47.4013h-0.0118l-2.48103,7.17463h5.0063L148.64848,47.4013z"/>
		<path class="st0" d="M164.9743,55.84447c0,0.67262-0.12685,1.27444-0.37466,1.79956
			c-0.2478,0.52806-0.59297,0.97353-1.03253,1.34229c-0.4425,0.36581-0.96173,0.64312-1.55765,0.82602
			c-0.59886,0.18586-1.24199,0.28026-1.92937,0.28026c-0.48381,0-0.92928-0.0413-1.34229-0.12391
			c-0.41006-0.0826-0.77588-0.17995-1.10039-0.30091c-0.32156-0.118-0.59297-0.23896-0.81128-0.36581
			s-0.3717-0.23306-0.45726-0.32156c-0.0826-0.09145-0.14751-0.20356-0.18881-0.33926
			c-0.03835-0.13866-0.05899-0.32156-0.05899-0.55167c0-0.16225,0.00589-0.29796,0.02065-0.40711
			c0.01476-0.1062,0.03835-0.19471,0.06786-0.25961c0.0295-0.06785,0.0649-0.1121,0.11211-0.13865
			c0.04425-0.02655,0.09439-0.03835,0.1534-0.03835c0.10326,0,0.25076,0.06195,0.43956,0.18881
			c0.18881,0.1239,0.43367,0.26256,0.72868,0.41006c0.29796,0.14751,0.65492,0.28911,1.07384,0.41597
			c0.4189,0.1298,0.90273,0.19471,1.45145,0.19471c0.41595,0,0.79356-0.0531,1.13873-0.16521
			c0.34515-0.1121,0.64311-0.26846,0.89093-0.47202c0.2478-0.20356,0.43956-0.45432,0.57231-0.75227
			c0.13275-0.29501,0.20061-0.63427,0.20061-1.01188c0-0.40711-0.09441-0.75522-0.27731-1.04433
			c-0.18585-0.28911-0.43071-0.54282-0.73457-0.76112c-0.30385-0.22126-0.65196-0.41891-1.04138-0.60182
			c-0.3894-0.18291-0.78767-0.36581-1.19478-0.55757c-0.40712-0.18881-0.80539-0.39826-1.18889-0.62837
			c-0.38647-0.22716-0.73163-0.49857-1.03549-0.81128c-0.30386-0.30976-0.54872-0.67557-0.74048-1.09448
			c-0.1888-0.41891-0.2832-0.92043-0.2832-1.5075c0-0.59887,0.10916-1.13579,0.33041-1.6078
			c0.21831-0.46906,0.52217-0.86438,0.91158-1.18299c0.38942-0.31861,0.85258-0.56347,1.3895-0.72867
			c0.53691-0.16816,1.11809-0.25076,1.74055-0.25076c0.31862,0,0.64017,0.0295,0.96173,0.0826
			c0.32156,0.05605,0.62543,0.1298,0.91158,0.22421c0.28616,0.09145,0.53987,0.19471,0.76112,0.30976
			c0.22421,0.11506,0.36877,0.20946,0.43958,0.28026c0.0708,0.0708,0.11797,0.1239,0.13866,0.1652
			c0.02359,0.0413,0.04129,0.0944,0.05605,0.15636c0.01476,0.06195,0.02655,0.13865,0.0354,0.22716
			c0.00591,0.0885,0.00885,0.20356,0.00885,0.34516c0,0.13276-0.00591,0.25371-0.01476,0.35696
			c-0.0118,0.10325-0.0295,0.1888-0.05014,0.25961c-0.02361,0.0708-0.05609,0.1239-0.09441,0.15635
			c-0.04131,0.03245-0.0885,0.05015-0.13866,0.05015c-0.08261,0-0.2124-0.0531-0.38646-0.15636
			c-0.17406-0.10325-0.38646-0.2183-0.63722-0.34811c-0.25371-0.1298-0.55167-0.25076-0.89684-0.35696
			c-0.34515-0.10915-0.73161-0.16225-1.16234-0.16225c-0.39825,0-0.74931,0.0531-1.04433,0.16225
			c-0.29796,0.1062-0.54282,0.25076-0.73457,0.42776s-0.33632,0.38941-0.43367,0.63427s-0.14455,0.50447-0.14455,0.77882
			c0,0.40121,0.09145,0.74342,0.2773,1.03253c0.18587,0.28911,0.43367,0.54577,0.74048,0.76998
			c0.30681,0.22126,0.65787,0.42481,1.05023,0.61067s0.79358,0.37171,1.2007,0.56052
			c0.41005,0.18881,0.80832,0.39827,1.20363,0.62247c0.39236,0.22716,0.74048,0.49562,1.05023,0.80243
			c0.30681,0.30681,0.55463,0.66967,0.74342,1.08858C164.87695,54.77654,164.9743,55.27216,164.9743,55.84447z"/>
		<path class="st0" d="M176.55048,49.70533c0,0.71687-0.118,1.36589-0.354,1.94411
			c-0.23897,0.57825-0.57823,1.07088-1.01779,1.48095c-0.4425,0.40711-0.98238,0.72277-1.62254,0.94403
			c-0.64313,0.22421-1.4072,0.33336-2.29813,0.33336h-1.63435v5.18332c0,0.059-0.0177,0.11211-0.05016,0.15636
			s-0.08556,0.07965-0.15636,0.1062c-0.0708,0.0236-0.16521,0.0472-0.28911,0.0649c-0.12096,0.0177-0.27731,0.0295-0.46021,0.0295
			c-0.18587,0-0.33926-0.0118-0.46317-0.0295c-0.12096-0.0177-0.22127-0.0413-0.29501-0.0649
			c-0.07376-0.02655-0.1239-0.06195-0.15341-0.1062c-0.03244-0.04425-0.0472-0.09735-0.0472-0.15636V46.31272
			c0-0.29796,0.07965-0.50742,0.23601-0.63427c0.1534-0.12685,0.32745-0.18881,0.52217-0.18881h3.0799
			c0.31271,0,0.61067,0.0118,0.89682,0.03835c0.28322,0.02655,0.62248,0.0826,1.01189,0.16521
			c0.38942,0.08555,0.78473,0.24486,1.18889,0.48087c0.40416,0.23306,0.74637,0.51921,1.02959,0.86143
			c0.28026,0.33926,0.49857,0.73457,0.64902,1.18299C176.47673,48.66689,176.55048,49.16251,176.55048,49.70533z
			 M174.53851,49.85873c0-0.58412-0.10916-1.07383-0.32747-1.4662c-0.21831-0.39236-0.48972-0.68737-0.81126-0.87913
			c-0.32451-0.19175-0.65788-0.31566-1.00304-0.36876c-0.34221-0.05015-0.67853-0.07671-1.00598-0.07671h-1.76711v5.77334h1.72285
			c0.57822,0,1.05908-0.07375,1.43965-0.22421c0.3835-0.14751,0.70212-0.35401,0.96172-0.61657
			c0.25961-0.26256,0.45728-0.57822,0.59003-0.94403C174.4736,50.68771,174.53851,50.28944,174.53851,49.85873z"/>
		<path class="st0" d="M181.38863,59.59109c0,0.059-0.01474,0.11211-0.04425,0.15636c-0.0295,0.04425-0.0826,0.07965-0.15636,0.1062
			c-0.07375,0.0236-0.1711,0.0472-0.295,0.0649c-0.12096,0.0177-0.27731,0.0295-0.46022,0.0295
			c-0.17996,0-0.33041-0.0118-0.45726-0.0295c-0.12686-0.0177-0.22716-0.0413-0.30092-0.0649
			c-0.07375-0.02655-0.1239-0.06195-0.15344-0.1062c-0.03241-0.04425-0.04716-0.09735-0.04716-0.15636V45.77875
			c0-0.059,0.0177-0.11211,0.05016-0.15636c0.0354-0.04425,0.09146-0.07965,0.16815-0.1062
			c0.07671-0.02655,0.17702-0.0472,0.30092-0.0649c0.12096-0.02062,0.26845-0.0295,0.43956-0.0295
			c0.18291,0,0.33926,0.00888,0.46022,0.0295c0.1239,0.0177,0.22125,0.03835,0.295,0.0649
			c0.07376,0.02655,0.12686,0.06195,0.15636,0.1062c0.02951,0.04425,0.04425,0.09735,0.04425,0.15636V59.59109z"/>
		<path class="st0" d="M194.81451,59.59109c0,0.059-0.01181,0.11211-0.03246,0.15636
			c-0.02361,0.04425-0.0708,0.07965-0.14455,0.10915c-0.07671,0.0295-0.17996,0.0531-0.31271,0.06785
			s-0.31271,0.0236-0.53397,0.0236c-0.19176,0-0.35106-0.00885-0.47202-0.0236c-0.1239-0.01475-0.22127-0.03835-0.29501-0.0708
			c-0.07375-0.0354-0.13275-0.07965-0.17406-0.1416c-0.03835-0.059-0.07375-0.13276-0.10326-0.22126l-1.32458-3.39261
			c-0.15636-0.38351-0.31566-0.73752-0.48383-1.06203c-0.16815-0.32156-0.3658-0.59887-0.59592-0.83488
			c-0.2301-0.23306-0.49857-0.41301-0.81126-0.54282c-0.30977-0.1298-0.68443-0.19471-1.12399-0.19471h-1.27739v6.12735
			c0,0.059-0.0177,0.11211-0.05016,0.15636s-0.08556,0.07965-0.15636,0.1062c-0.0708,0.0236-0.16521,0.0472-0.28911,0.0649
			c-0.12096,0.0177-0.27731,0.0295-0.46021,0.0295c-0.18587,0-0.33926-0.0118-0.46317-0.0295
			c-0.12096-0.0177-0.22127-0.0413-0.29501-0.0649c-0.07376-0.02655-0.1239-0.06195-0.15341-0.1062
			c-0.03244-0.04425-0.0472-0.09735-0.0472-0.15636V46.26847c0-0.28911,0.07671-0.49267,0.2301-0.60772
			c0.15045-0.11506,0.31271-0.17111,0.48383-0.17111h3.05629c0.36581,0,0.66672,0.00885,0.90863,0.02655
			c0.23895,0.0177,0.45726,0.03835,0.64902,0.06195c0.55757,0.09735,1.04729,0.24781,1.47505,0.45432
			c0.42482,0.20946,0.78177,0.47202,1.07384,0.79062c0.28911,0.31861,0.50446,0.68443,0.64902,1.09449
			c0.14455,0.41301,0.21831,0.86733,0.21831,1.36295c0,0.48381-0.0649,0.91453-0.1947,1.29509
			c-0.12981,0.38351-0.31862,0.71982-0.56348,1.01483c-0.24486,0.29206-0.53691,0.54577-0.87912,0.76112
			c-0.33931,0.21536-0.72278,0.39531-1.14464,0.54577c0.23601,0.10325,0.45135,0.23306,0.64607,0.39236
			c0.19176,0.15931,0.3717,0.35106,0.53986,0.57232c0.16521,0.22421,0.32156,0.48087,0.47202,0.76998
			c0.14751,0.28911,0.29501,0.61362,0.44547,0.97648l1.2892,3.17135c0.10326,0.26551,0.1711,0.45432,0.20061,0.56052
			C194.79976,59.44949,194.81451,59.53209,194.81451,59.59109z M191.93227,49.48112c0-0.56347-0.1239-1.03843-0.37761-1.42785
			c-0.25076-0.38941-0.67262-0.66967-1.26854-0.84077c-0.18291-0.05015-0.39236-0.0885-0.62837-0.11211
			c-0.23306-0.02065-0.53691-0.03245-0.91748-0.03245h-1.61075v4.84996h1.8674c0.50447,0,0.94109-0.06195,1.3069-0.18291
			c0.36876-0.1239,0.67262-0.29501,0.91748-0.51331c0.24486-0.21831,0.4248-0.47497,0.53987-0.77293
			C191.87622,50.15374,191.93227,49.82923,191.93227,49.48112z"/>
		<path class="st0" d="M205.5912,59.08958c0,0.1357-0.00885,0.25076-0.02359,0.35106
			c-0.01476,0.1003-0.04131,0.18291-0.07671,0.25076c-0.03836,0.06785-0.07965,0.11506-0.12981,0.14455
			c-0.0472,0.0295-0.10031,0.04425-0.1593,0.04425h-6.90617c-0.17111,0-0.33336-0.05605-0.48381-0.17111
			c-0.15341-0.11505-0.23012-0.31861-0.23012-0.60772V46.26847c0-0.28911,0.07671-0.49267,0.23012-0.60772
			c0.15045-0.11506,0.3127-0.17111,0.48381-0.17111h6.82652c0.06195,0,0.11505,0.01475,0.16225,0.04425
			c0.04721,0.0295,0.0885,0.0767,0.11801,0.14455c0.0295,0.0649,0.0531,0.15046,0.0708,0.25076
			c0.0177,0.1003,0.0295,0.22421,0.0295,0.37171c0,0.13275-0.0118,0.25076-0.0295,0.35106s-0.04131,0.17995-0.0708,0.24486
			c-0.02951,0.06195-0.0708,0.10915-0.11801,0.13866c-0.0472,0.0295-0.1003,0.04425-0.16225,0.04425h-5.62584v4.51365h4.82635
			c0.05901,0,0.11211,0.0177,0.16226,0.05015c0.0472,0.0354,0.0885,0.07965,0.12096,0.1416
			c0.03244,0.059,0.05899,0.13866,0.07375,0.24191c0.01476,0.1062,0.02065,0.22716,0.02065,0.36876
			c0,0.13275-0.00589,0.24781-0.02065,0.34516c-0.01476,0.0944-0.04131,0.17405-0.07375,0.23306
			c-0.03246,0.059-0.07376,0.1003-0.12096,0.12685c-0.05016,0.02655-0.10326,0.03835-0.16226,0.03835h-4.82635v5.15086h5.70549
			c0.05899,0,0.11211,0.01475,0.1593,0.04425c0.05016,0.0295,0.09145,0.0767,0.12981,0.13866
			c0.0354,0.06195,0.06195,0.14455,0.07671,0.24486C205.58235,58.81817,205.5912,58.94207,205.5912,59.08958z"/>
	</g>
	<g>
		<path class="st0" d="M140.12862,86.5343c0.06195,0.16225,0.09145,0.29501,0.09735,0.39532
			c0.00294,0.1003-0.02655,0.177-0.08556,0.22716c-0.05901,0.0531-0.15636,0.08555-0.29501,0.1003
			c-0.1357,0.01475-0.3186,0.0236-0.54871,0.0236c-0.23012,0-0.41302-0.0059-0.55168-0.0177
			c-0.1357-0.0118-0.2419-0.0295-0.30975-0.05605c-0.0708-0.02655-0.1239-0.06195-0.15636-0.1062
			c-0.0354-0.04425-0.0649-0.1003-0.09441-0.16521l-1.23608-3.50471h-5.98279l-1.18004,3.46046
			c-0.02066,0.0649-0.05016,0.1239-0.0885,0.1711c-0.0354,0.0472-0.09146,0.0885-0.15932,0.1239
			c-0.0708,0.03246-0.1711,0.05605-0.3009,0.07081c-0.12981,0.01475-0.29796,0.0236-0.50742,0.0236
			c-0.21536,0-0.38942-0.0118-0.52806-0.0295c-0.13571-0.0177-0.23306-0.0531-0.28912-0.1062
			c-0.05605-0.05015-0.07965-0.12685-0.0767-0.22716c0.00294-0.1003,0.0354-0.23011,0.0944-0.39531l4.82636-13.36688
			c0.0295-0.0826,0.06784-0.14751,0.118-0.20061c0.0472-0.0531,0.11801-0.09145,0.20946-0.12095
			c0.09441-0.0295,0.2124-0.05016,0.35696-0.06195c0.14455-0.0118,0.32745-0.01771,0.54872-0.01771
			c0.23895,0,0.43365,0.00591,0.59001,0.01771c0.15636,0.0118,0.2832,0.03245,0.37761,0.06195
			c0.09735,0.0295,0.17111,0.0708,0.22421,0.12685c0.05016,0.05605,0.09145,0.1239,0.12096,0.2065L140.12862,86.5343z
			 M133.93636,74.73392h-0.0118l-2.48103,7.17463h5.00632L133.93636,74.73392z"/>
		<path class="st0" d="M151.98209,85.17726c0,0.118-0.00589,0.22421-0.0118,0.31271
			c-0.00885,0.08851-0.02065,0.16521-0.03835,0.23306c-0.02066,0.0649-0.04427,0.12685-0.07376,0.177
			c-0.0295,0.0531-0.0826,0.11506-0.15636,0.1888c-0.07375,0.07375-0.2301,0.18881-0.46611,0.33926
			c-0.23601,0.1534-0.53102,0.30091-0.88503,0.44547c-0.35106,0.14455-0.75523,0.26551-1.21249,0.36581
			c-0.45432,0.1003-0.95288,0.15045-1.4957,0.15045c-0.93224,0-1.77596-0.1534-2.52823-0.46612
			c-0.75227-0.31271-1.3954-0.76997-1.92346-1.37769c-0.53102-0.61066-0.93813-1.35999-1.22429-2.25387
			c-0.28616-0.89388-0.42776-1.92052-0.42776-3.0858c0-1.19479,0.1534-2.25682,0.46022-3.192
			c0.30681-0.93518,0.74046-1.72581,1.29509-2.37482c0.55756-0.64902,1.22133-1.14464,1.99721-1.4839
			c0.77588-0.34221,1.63435-0.51331,2.57544-0.51331c0.41301,0,0.81717,0.0413,1.21248,0.118
			c0.39236,0.0767,0.75523,0.177,1.08859,0.29501s0.63132,0.25666,0.89093,0.41006c0.2596,0.15636,0.43956,0.28619,0.53986,0.38351
			c0.09737,0.1003,0.16226,0.177,0.19472,0.2301c0.0295,0.05019,0.0531,0.11211,0.0708,0.18291s0.03244,0.1534,0.04425,0.25076
			c0.0118,0.0944,0.0177,0.20946,0.0177,0.34516c0,0.1475-0.00885,0.27435-0.02361,0.37761s-0.0354,0.19176-0.06786,0.25961
			c-0.0295,0.07081-0.0649,0.12391-0.1062,0.15636c-0.03835,0.03246-0.09145,0.05016-0.15048,0.05016
			c-0.10323,0-0.24777-0.07081-0.43658-0.21536c-0.18585-0.14455-0.4248-0.30386-0.71982-0.47791s-0.65198-0.33631-1.07384-0.48087
			s-0.92633-0.21535-1.5134-0.21535c-0.64313,0-1.22429,0.12685-1.75237,0.38351c-0.52512,0.25666-0.97353,0.63132-1.34523,1.12989
			c-0.37466,0.49561-0.66083,1.10039-0.86734,1.81726c-0.2065,0.71687-0.30681,1.53404-0.30681,2.45152
			c0,0.91158,0.09735,1.71991,0.29501,2.41908c0.19766,0.70212,0.48087,1.28624,0.84962,1.75826
			c0.36876,0.46906,0.82307,0.82603,1.36,1.06793c0.53691,0.23896,1.14464,0.35991,1.82315,0.35991
			c0.57233,0,1.07384-0.0708,1.5016-0.20946c0.42776-0.1416,0.79358-0.29796,1.09744-0.47496
			c0.3009-0.17406,0.54871-0.33041,0.74342-0.47202c0.19174-0.13866,0.34512-0.20946,0.45726-0.20946
			c0.0531,0,0.09735,0.00885,0.1357,0.03245c0.0354,0.02065,0.06491,0.0649,0.08852,0.12685
			c0.02065,0.0649,0.03835,0.15046,0.05014,0.26256C151.9762,84.8675,151.98209,85.00616,151.98209,85.17726z"/>
		<path class="st0" d="M165.29292,86.5343c0.06195,0.16225,0.09145,0.29501,0.09735,0.39532
			c0.00294,0.1003-0.02655,0.177-0.08556,0.22716c-0.05901,0.0531-0.15636,0.08555-0.29501,0.1003
			c-0.1357,0.01475-0.3186,0.0236-0.54872,0.0236c-0.2301,0-0.41301-0.0059-0.55167-0.0177
			c-0.1357-0.0118-0.2419-0.0295-0.30975-0.05605c-0.0708-0.02655-0.1239-0.06195-0.15636-0.1062
			c-0.0354-0.04425-0.0649-0.1003-0.09441-0.16521l-1.23608-3.50471h-5.98279l-1.18004,3.46046
			c-0.02066,0.0649-0.05016,0.1239-0.0885,0.1711c-0.0354,0.0472-0.09146,0.0885-0.15932,0.1239
			c-0.0708,0.03246-0.1711,0.05605-0.3009,0.07081c-0.12981,0.01475-0.29796,0.0236-0.50742,0.0236
			c-0.21536,0-0.38942-0.0118-0.52808-0.0295c-0.1357-0.0177-0.23305-0.0531-0.28911-0.1062
			c-0.05605-0.05015-0.07965-0.12685-0.07669-0.22716c0.00294-0.1003,0.0354-0.23011,0.09439-0.39531l4.82635-13.36688
			c0.02951-0.0826,0.06786-0.14751,0.11801-0.20061c0.0472-0.0531,0.118-0.09145,0.20946-0.12095
			c0.09441-0.0295,0.2124-0.05016,0.35696-0.06195c0.14455-0.0118,0.32745-0.01771,0.54871-0.01771
			c0.23897,0,0.43367,0.00591,0.59003,0.01771c0.15636,0.0118,0.2832,0.03245,0.37761,0.06195
			c0.09735,0.0295,0.17111,0.0708,0.22421,0.12685c0.05014,0.05605,0.09145,0.1239,0.12096,0.2065L165.29292,86.5343z
			 M159.10066,74.73392h-0.0118l-2.48103,7.17463h5.00632L159.10066,74.73392z"/>
		<path class="st0" d="M178.7601,79.80514c0,1.24494-0.15932,2.33353-0.47792,3.26575
			c-0.3186,0.92928-0.78177,1.7022-1.3954,2.31287c-0.61066,0.61067-1.36293,1.06793-2.25092,1.3718
			c-0.89093,0.30681-1.95001,0.45727-3.18021,0.45727h-3.04744c-0.17111,0-0.33336-0.05605-0.48383-0.17111
			c-0.1534-0.11505-0.2301-0.3186-0.2301-0.60772V73.60109c0-0.28911,0.07671-0.49267,0.2301-0.60772
			c0.15047-0.11505,0.31271-0.1711,0.48383-0.1711h3.2569c1.24789,0,2.29813,0.1593,3.15956,0.48382
			c0.85847,0.32156,1.58124,0.78472,2.16241,1.38949c0.58116,0.60477,1.02364,1.3364,1.32458,2.19782
			C178.61259,77.75188,178.7601,78.72246,178.7601,79.80514z M176.74814,79.88479c0-0.77882-0.09737-1.50455-0.28911-2.17422
			c-0.19176-0.67262-0.49562-1.25084-0.90569-1.74055c-0.41301-0.48972-0.93224-0.87323-1.56355-1.14759
			c-0.62837-0.27435-1.4426-0.41006-2.43382-0.41006h-1.94707v11.19855h1.96771c0.92043,0,1.69336-0.11505,2.32468-0.34516
			c0.63132-0.2301,1.15643-0.58117,1.57831-1.05613c0.4248-0.47497,0.74046-1.06794,0.95288-1.78481
			C176.64192,81.7109,176.74814,80.86127,176.74814,79.88479z"/>
		<path class="st0" d="M189.71671,86.4222c0,0.1357-0.0088,0.25076-0.02356,0.35106s-0.04131,0.18291-0.07671,0.25076
			c-0.03835,0.06786-0.07965,0.11506-0.12981,0.14455c-0.0472,0.0295-0.1003,0.04426-0.1593,0.04426h-6.90617
			c-0.1711,0-0.33336-0.05605-0.48381-0.17111c-0.1534-0.11505-0.2301-0.3186-0.2301-0.60772V73.60109
			c0-0.28911,0.07671-0.49267,0.2301-0.60772c0.15045-0.11505,0.31271-0.1711,0.48381-0.1711h6.82652
			c0.06195,0,0.11505,0.01475,0.16226,0.04425c0.0472,0.0295,0.0885,0.07671,0.118,0.14455
			c0.02951,0.0649,0.0531,0.15046,0.0708,0.25076c0.0177,0.1003,0.02951,0.22421,0.02951,0.37171
			c0,0.13275-0.01181,0.25076-0.02951,0.35106s-0.04129,0.17995-0.0708,0.24486c-0.0295,0.06195-0.0708,0.10915-0.118,0.13866
			c-0.04721,0.0295-0.10031,0.04425-0.16226,0.04425h-5.62582v4.51364h4.82635c0.05899,0,0.11211,0.0177,0.16225,0.05016
			c0.04721,0.0354,0.0885,0.07965,0.12096,0.1416c0.03246,0.059,0.05901,0.13866,0.07376,0.24191
			c0.01474,0.10621,0.02065,0.22716,0.02065,0.36877c0,0.13275-0.00591,0.2478-0.02065,0.34516
			c-0.01476,0.0944-0.04131,0.17405-0.07376,0.23306c-0.03246,0.059-0.07375,0.1003-0.12096,0.12685
			c-0.05014,0.02655-0.10326,0.03835-0.16225,0.03835h-4.82635v5.15086h5.70547c0.05901,0,0.11211,0.01475,0.1593,0.04425
			c0.05016,0.0295,0.09146,0.0767,0.12981,0.13866c0.0354,0.06195,0.06195,0.14455,0.07671,0.24486
			S189.71671,86.2747,189.71671,86.4222z"/>
		<path class="st0" d="M208.47935,86.92371c0,0.05901-0.0177,0.11211-0.04721,0.15636c-0.0295,0.04425-0.0826,0.07965-0.1593,0.1062
			c-0.07671,0.02361-0.17406,0.0472-0.29205,0.0649c-0.11801,0.0177-0.27437,0.0295-0.46317,0.0295
			c-0.17702,0-0.32747-0.0118-0.45432-0.0295c-0.12686-0.0177-0.22421-0.0413-0.29796-0.0649
			c-0.07082-0.02655-0.12392-0.06195-0.15341-0.1062c-0.03246-0.04425-0.0472-0.09735-0.0472-0.15636V74.38876h-0.02066
			l-5.07121,12.591c-0.02359,0.05016-0.05605,0.09735-0.09441,0.13276c-0.04129,0.03835-0.1003,0.06785-0.17995,0.0944
			c-0.07671,0.02655-0.17111,0.04425-0.27731,0.05605s-0.23601,0.0177-0.38351,0.0177c-0.15636,0-0.28911-0.00885-0.40121-0.0236
			c-0.10915-0.01476-0.20355-0.0354-0.2773-0.06196c-0.07376-0.0236-0.13275-0.05605-0.17111-0.0944
			c-0.04131-0.0354-0.0708-0.07671-0.08556-0.12096l-4.847-12.591h-0.0118v12.53495c0,0.05901-0.01476,0.11211-0.04721,0.15636
			c-0.0295,0.04425-0.0826,0.07965-0.1593,0.1062c-0.07671,0.02361-0.177,0.0472-0.29796,0.0649s-0.28026,0.0295-0.46907,0.0295
			c-0.18291,0-0.3363-0.0118-0.46021-0.0295c-0.12096-0.0177-0.21831-0.0413-0.29207-0.0649
			c-0.0708-0.02655-0.12096-0.06195-0.14751-0.1062s-0.04129-0.09735-0.04129-0.15636V73.68959
			c0-0.31271,0.0826-0.53397,0.25075-0.66672c0.16521-0.1357,0.34811-0.20061,0.55167-0.20061h1.17415
			c0.2419,0,0.45135,0.02065,0.63426,0.0649c0.17996,0.04425,0.33926,0.11505,0.47202,0.2124
			c0.13571,0.09736,0.25076,0.21831,0.33926,0.36581c0.09146,0.15045,0.17111,0.32451,0.23895,0.52512l4.11539,10.41973h0.0531
			l4.28354-10.38728c0.0826-0.22126,0.17406-0.41302,0.27141-0.56642c0.09735-0.15636,0.20355-0.28026,0.32156-0.37466
			c0.118-0.09145,0.2478-0.1593,0.3894-0.20061c0.14456-0.03835,0.30977-0.059,0.49857-0.059h1.23019
			c0.11211,0,0.22125,0.01475,0.32156,0.05015c0.10326,0.03246,0.1888,0.08556,0.25961,0.15341
			c0.07375,0.0708,0.12979,0.16225,0.177,0.26846c0.04425,0.1062,0.06786,0.23896,0.06786,0.39531V86.92371z"/>
		<path class="st0" d="M216.88712,81.61945v5.30427c0,0.05901-0.01476,0.11211-0.04425,0.15636s-0.0826,0.07965-0.15636,0.1062
			c-0.07375,0.02361-0.17406,0.0472-0.29796,0.0649c-0.12685,0.0177-0.27731,0.0295-0.45432,0.0295
			c-0.18291,0-0.3363-0.0118-0.45726-0.0295c-0.1239-0.0177-0.22125-0.0413-0.29796-0.0649
			c-0.07965-0.02655-0.13275-0.06195-0.16229-0.1062c-0.02946-0.04425-0.04422-0.09735-0.04422-0.15636v-5.30427l-4.07112-8.11866
			c-0.07967-0.1711-0.12981-0.30386-0.14751-0.40121c-0.02066-0.09735,0-0.1711,0.0531-0.22125
			c0.05602-0.0531,0.15636-0.08556,0.3009-0.1003c0.14456-0.01476,0.33926-0.02361,0.58412-0.02361
			c0.22125,0,0.40121,0.00885,0.53987,0.02361c0.1357,0.01475,0.24486,0.0354,0.32745,0.059
			c0.08261,0.02655,0.1416,0.0649,0.18291,0.11211c0.04131,0.04723,0.07965,0.10915,0.11801,0.18291l1.9913,4.13898
			c0.18291,0.39236,0.36876,0.80242,0.55167,1.23314c0.18587,0.43071,0.37466,0.86437,0.56642,1.30099h0.02066
			c0.16815-0.42186,0.34515-0.84373,0.52512-1.26264c0.17995-0.41891,0.36285-0.83192,0.54871-1.23904l2.00311-4.15963
			c0.02066-0.07375,0.0531-0.13571,0.09441-0.18881c0.03836-0.0531,0.09441-0.09145,0.16521-0.118
			c0.0708-0.0236,0.16815-0.04425,0.29501-0.059c0.12685-0.01476,0.28616-0.02361,0.47791-0.02361
			c0.26846,0,0.47792,0.00885,0.62837,0.0295c0.15341,0.0177,0.25667,0.0531,0.31862,0.10326
			c0.05901,0.0531,0.07965,0.12685,0.05901,0.22421c-0.0177,0.09441-0.06786,0.22421-0.15047,0.38941L216.88712,81.61945z"/>
	</g>
</g>
</svg>
