<?xml version="1.0" encoding="utf-8"?>
<!-- Generator: Adobe Illustrator 25.3.0, SVG Export Plug-In . SVG Version: 6.00 Build 0)  -->
<svg version="1.1" id="Layer_1" xmlns="http://www.w3.org/2000/svg" xmlns:xlink="http://www.w3.org/1999/xlink" x="0px" y="0px"
	 viewBox="0 0 170 120" style="enable-background:new 0 0 170 120;" xml:space="preserve">
<style type="text/css">
	.st0{fill:#E50695;}
	.st1{fill:#93D500;}
	.st2{fill:#FFFFFF;}
</style>
<g>
	<path class="st0" d="M48.92446,58.93365c-0.27265-0.06721-0.51642-0.20287-0.76855-0.31699
		c-2.19995-0.98711-4.30258-2.1411-6.21552-3.6181c-1.36171-1.0519-2.58298-2.2407-3.52684-3.69131
		c-0.67246-1.03511-1.14916-2.1507-1.34851-3.37674c-0.24135-1.48542-0.02037-2.90965,0.57044-4.28213
		c0.53672-1.24766,1.32931-2.32484,2.25991-3.30228c1.22128-1.28372,2.62505-2.33804,4.12367-3.26988
		c2.2948-1.42782,4.74446-2.52897,7.27702-3.45356c2.93244-1.07,5.93686-1.88054,8.9906-2.51694
		c1.90569-0.39629,3.82222-0.72531,5.7496-0.98711c1.5346-0.20896,3.07412-0.38068,4.61957-0.50675
		c1.17796-0.09484,2.35724-0.1729,3.53645-0.23776c2.76189-0.15252,5.52378-0.14409,8.28568-0.08289
		c1.47942,0.03364,2.95882,0.12013,4.43465,0.23417c1.86134,0.14292,3.71778,0.33143,5.56828,0.58605
		c4.63042,0.6364,9.18754,1.5983,13.61977,3.1005c2.60944,0.88259,5.14075,1.94775,7.53406,3.32148
		c0.49113,0.28101,0.97501,0.5752,1.44695,0.88743c0.04926,0.03122,0.09492,0.06845,0.13091,0.12606
		c-0.42268-0.1633-0.84419-0.33018-1.26804-0.49231c-2.91925-1.10716-5.91648-1.94292-8.96421-2.60703
		c-1.81444-0.39388-3.64089-0.72047-5.47695-0.99187c-1.37497-0.20295-2.75471-0.36866-4.13928-0.50557
		c-1.64037-0.1597-3.28425-0.27858-4.93179-0.365c-2.73067-0.14409-5.46259-0.14651-8.19567-0.08289
		c-1.49019,0.03606-2.97803,0.11771-4.46346,0.23417c-1.65356,0.12973-3.30352,0.2942-4.94865,0.50557
		c-1.99935,0.25814-3.98793,0.57762-5.96332,0.97743c-4.32896,0.87783-8.55949,2.07748-12.60144,3.88591
		c-2.28278,1.02068-4.46111,2.22517-6.4269,3.78498c-1.28482,1.01833-2.43764,2.16389-3.33467,3.54729
		c-0.60401,0.93302-1.05432,1.93449-1.27647,3.02971c-0.3326,1.64146-0.11888,3.22055,0.57161,4.73845
		c0.64241,1.41579,1.59346,2.60336,2.70421,3.6757c0.68932,0.66286,1.43023,1.2621,2.20472,1.82169
		c0.08649,0.0612,0.19217,0.10569,0.24861,0.20529C48.94241,58.9157,48.93281,58.9253,48.92446,58.93365"/>
	<path class="st1" d="M54.77791,62.65004c1.07828,0.39153,2.15063,0.78174,3.235,1.13604
		c2.59742,0.84895,5.2416,1.52141,7.92067,2.05703c1.71476,0.3422,3.43794,0.6328,5.16838,0.8694
		c1.28967,0.17648,2.58298,0.32058,3.87865,0.44547c1.52266,0.14526,3.0489,0.2522,4.57758,0.32784
		c1.08195,0.05402,2.16506,0.06846,3.24818,0.10085c0.99312,0.03122,1.9874,0.03841,2.98052,0.01561
		c1.41096-0.03122,2.82192-0.05885,4.2317-0.13449c1.28006-0.06963,2.55894-0.15369,3.83541-0.27016
		c1.33532-0.12012,2.6683-0.27023,3.9976-0.44913c1.53461-0.20537,3.06451-0.44548,4.58593-0.73491
		c4.56797-0.86823,9.03502-2.07499,13.30396-3.94469c2.27317-0.99553,4.44432-2.1735,6.41245-3.6974
		c1.18404-0.91858,2.25874-1.94775,3.13055-3.17379c0.72047-1.01467,1.2621-2.11464,1.50346-3.34428
		c0.29896-1.51782,0.11888-2.98529-0.49839-4.39984c-0.52712-1.20926-1.29443-2.25397-2.19988-3.2026
		c-0.86698-0.91022-1.83606-1.70039-2.86641-2.41851c-0.12489-0.08641-0.24736-0.17407-0.37343-0.26415
		c0.08649-0.01678,0.15495,0.03239,0.22457,0.06127c2.22033,0.93419,4.36378,2.01614,6.33916,3.40672
		c1.39659,0.98344,2.67783,2.09426,3.72136,3.45722c0.83099,1.08554,1.45779,2.2731,1.73997,3.62286
		c0.32666,1.55747,0.13332,3.0621-0.50674,4.51154c-0.61119,1.38692-1.53226,2.54934-2.61296,3.59523
		c-1.4026,1.35694-3.00208,2.44614-4.69646,3.39961c-2.42445,1.36171-4.98581,2.40884-7.62046,3.27942
		c-2.74628,0.90788-5.5454,1.60914-8.38418,2.16389c-1.92013,0.3735-3.8511,0.68089-5.7916,0.92583
		c-1.23088,0.15736-2.46527,0.28701-3.70334,0.38786c-1.17803,0.09726-2.35606,0.17773-3.53769,0.24136
		c-1.37974,0.07329-2.75948,0.10334-4.14046,0.12614c-0.52712,0.0096-1.05307,0.02638-1.57909,0.01561
		c-1.51064-0.03005-3.02127-0.03481-4.52949-0.1153c-1.42782-0.07446-2.85556-0.16454-4.28096-0.29544
		c-3.48243-0.32058-6.94082-0.81055-10.36315-1.53944c-3.69615-0.78775-7.31902-1.82162-10.81105-3.28183
		c-1.83606-0.76613-3.61333-1.65114-5.29327-2.71872C54.9412,62.75932,54.85955,62.70412,54.77791,62.65004"/>
	<path class="st1" d="M69.51928,50.83862c0.20295,0.10444,0.38911,0.19936,0.57278,0.29537
		c0.92825,0.48512,1.46747,1.24766,1.63677,2.28278c0.09125,0.55841,0.15487,1.12043,0.17766,1.6872
		c0.04684,1.15157,0.11053,2.30198,0.3543,3.43318c0.12848,0.59558,0.30497,1.17195,0.6556,1.67393
		c-0.04918,0.09367-0.12848,0.05885-0.19093,0.05885c-1.68954,0.00242-3.38033,0-5.06988,0.00601
		c-0.1861,0-0.29061-0.05885-0.36625-0.22816c-0.17414-0.38552-0.2714-0.78533-0.27258-1.21043
		c-0.00124-0.60643,0.00477-1.2141-0.00843-1.81927c-0.01803-0.78533-0.07681-1.5659-0.281-2.33078
		c-0.2149-0.8082-0.72289-1.29816-1.525-1.51071c-0.46475-0.12123-0.93551-0.18133-1.41338-0.18133
		c-1.8889-0.00235-3.7778-0.00117-5.6667-0.00117c-0.27265,0-0.27382,0.00359-0.27499,0.281c0,2.20714,0.00117,4.41428,0,6.62259
		c0,0.41667,0.03598,0.37342-0.36031,0.37467c-1.41213,0.00117-2.82434,0-4.23529,0c-0.06963,0-0.13926-0.00367-0.20896,0
		c-0.11888,0.00476-0.15846-0.05651-0.15128-0.16571c0.00359-0.0697,0-0.13933,0-0.20896c0-6.33198,0-12.66638,0-18.99836
		c0-0.41542-0.05167-0.37819,0.38786-0.37819c4.01674,0,8.0323-0.00242,12.04911,0.00117
		c1.29567,0.00117,2.57939,0.12247,3.82822,0.49472c0.40949,0.12372,0.80695,0.27983,1.18522,0.47911
		c1.40862,0.73975,2.14953,1.92973,2.33804,3.48485c0.11646,0.9594,0.05402,1.90569-0.281,2.82074
		c-0.48755,1.3329-1.36413,2.314-2.66588,2.90239C69.6622,50.73535,69.57813,50.74854,69.51928,50.83862 M61.53381,48.94246
		c0.9114-0.02155,2.00536,0.04449,3.09691-0.0516c0.56561-0.04925,1.12519-0.13207,1.65356-0.35423
		c0.6136-0.25696,0.99304-0.71211,1.12878-1.36295c0.05043-0.24495,0.0516-0.49355,0.03958-0.74209
		c-0.04684-0.9199-0.49231-1.47223-1.37974-1.71241c-0.55959-0.15128-1.13237-0.21973-1.70757-0.23417
		c-2.08701-0.04801-4.17527-0.01202-6.26235-0.02038c-0.02998,0-0.06003,0.00117-0.09,0
		c-0.13215-0.01085-0.17532,0.05878-0.16571,0.18008c0.00359,0.03965,0,0.0793,0,0.12013v3.87623
		c0,0.04926,0.00234,0.09968,0,0.14893c-0.00601,0.11888,0.05643,0.15846,0.16571,0.15245c0.06845-0.00359,0.13926,0,0.20888,0
		H61.53381z"/>
	<path class="st1" d="M77.19846,53.42563c0.75528,0,1.51064-0.00117,2.26591,0c0.24737,0,0.2522,0.00366,0.25462,0.23659
		c0.01678,1.17921,0.58839,2.01137,1.60188,2.5662c0.65326,0.35781,1.36171,0.54039,2.09185,0.65685
		c0.97626,0.15487,1.9597,0.16813,2.94321,0.1117c0.74568-0.04324,1.48059-0.16813,2.17108-0.4756
		c0.32901-0.14527,0.63647-0.32417,0.89101-0.58598c0.52837-0.54039,0.66403-1.1828,0.46709-1.89608
		c-0.12848-0.47435-0.4539-0.78174-0.89336-0.97868c-0.47552-0.21255-0.98109-0.31706-1.49026-0.4059
		c-1.05791-0.1825-2.12908-0.25454-3.19542-0.36382c-1.51064-0.15494-3.02728-0.26063-4.50428-0.65208
		c-0.74091-0.19569-1.46263-0.44188-2.13985-0.80578c-1.73645-0.93184-2.56496-2.39081-2.53974-4.353
		c0.02522-1.90326,0.88618-3.36348,2.37644-4.48867c1.154-0.87299,2.46645-1.39175,3.87382-1.68595
		c1.58752-0.33143,3.193-0.36266,4.80573-0.25821c1.17445,0.07689,2.32844,0.25821,3.45121,0.61727
		c1.26444,0.40465,2.42203,1.00389,3.35989,1.96696c0.99912,1.02427,1.47942,2.26233,1.48425,3.6889
		c0.00117,0.25938-0.00242,0.26297-0.26063,0.26297c-1.46139,0.00125-2.92278,0.00125-4.38298,0
		c-0.2522,0-0.25938-0.00117-0.30505-0.24854c-0.19929-1.08195-0.84418-1.79047-1.83848-2.21073
		c-0.53438-0.22816-1.09631-0.35063-1.67034-0.41308c-0.99187-0.1081-1.98374-0.10327-2.97085,0.05043
		c-0.55233,0.08649-1.08796,0.23175-1.5851,0.49238c-0.23894,0.12724-0.46109,0.27617-0.64484,0.4767
		c-0.44913,0.4863-0.57278,1.05432-0.39504,1.68478c0.1213,0.4347,0.42385,0.70603,0.83334,0.87057
		c0.44555,0.17773,0.91382,0.26781,1.3834,0.34946c1.17562,0.2017,2.36443,0.29662,3.54839,0.42752
		c1.40018,0.15487,2.80997,0.24854,4.18494,0.59316c0.96666,0.24135,1.90451,0.55841,2.75346,1.09756
		c1.26929,0.80695,2.00177,1.95618,2.1831,3.45121c0.14175,1.16601,0.03606,2.30198-0.43587,3.38752
		c-0.5332,1.22846-1.45544,2.09068-2.60819,2.72832c-0.97267,0.53914-2.02339,0.86339-3.10893,1.08429
		c-1.90217,0.3867-3.8283,0.43111-5.75677,0.33627c-1.39176-0.06845-2.76431-0.28943-4.08527-0.75895
		c-1.07953-0.38186-2.06898-0.91741-2.89998-1.7196c-0.99788-0.96424-1.54185-2.14828-1.70515-3.51842
		c-0.04449-0.36742-0.05167-0.73366-0.04808-1.10115c0.00125-0.21138,0.00484-0.21614,0.2138-0.21738
		C75.64692,53.42329,76.42265,53.42563,77.19846,53.42563"/>
	<path class="st1" d="M105.94981,54.60418c0.12364-0.12006,0.14644-0.24011,0.18968-0.34579
		c1.83005-4.4875,3.65775-8.97499,5.48303-13.46373c0.13083-0.323,0.11045-0.27258,0.40465-0.27258
		c1.60072-0.00235,3.20142-0.00117,4.8009,0c0.08891,0,0.17891-0.01678,0.26656,0.02287
		c0.03247,0.08641-0.02638,0.15128-0.05761,0.21973c-2.82316,6.41722-5.64867,12.83327-8.46824,19.25291
		c-0.08407,0.1921-0.1825,0.26173-0.39388,0.25938c-1.48183-0.00967-2.96243-0.01085-4.44425,0.00117
		c-0.23776,0.00242-0.34587-0.07447-0.43829-0.28819c-1.92137-4.43832-3.8511-8.87172-5.77957-13.30879
		c-0.84302-1.93933-1.68603-3.8799-2.52655-5.8204c-0.04324-0.09726-0.11529-0.18858-0.0985-0.30504
		c0.08165-0.05761,0.17414-0.03364,0.26055-0.03364c1.61992-0.00235,3.24108-0.00235,4.861-0.00117
		c0.27616,0,0.26297-0.04324,0.38544,0.25938c1.79648,4.48031,3.5953,8.95696,5.39295,13.43603
		C105.83569,54.33519,105.88736,54.4529,105.94981,54.60418"/>
	<rect x="42.82042" y="74.45479" class="st0" width="83.64491" height="7.60482"/>
	<polygon class="st2" points="45.81039,81.18537 43.7557,75.43706 45.01421,75.43706 46.46841,79.69155 47.87696,75.43706 
		49.10783,75.43706 47.04963,81.18537 	"/>
	<path class="st2" d="M54.28978,81.18599h-1.2621l-0.50191-1.30531h-2.29839l-0.47435,1.30531h-1.2308l2.23829-5.74952h1.22729
		L54.28978,81.18599z M52.15234,78.9104l-0.79141-2.13142l-0.77691,2.13142H52.15234z"/>
	<polygon class="st2" points="54.91687,81.18537 54.91687,75.43706 56.04558,75.43706 58.39923,79.27605 58.39923,75.43706 
		59.47758,75.43706 59.47758,81.18537 58.31274,81.18537 55.99516,77.43641 55.99516,81.18537 	"/>
	<path class="st2" d="M68.02159,80.48352l-0.66643,0.85136c-0.32667-0.15971-0.64007-0.37943-0.94144-0.65923
		c-0.23183,0.21014-0.47919,0.36266-0.74092,0.4623c-0.26063,0.09968-0.57285,0.14893-0.93308,0.14893
		c-0.71688,0-1.25485-0.20057-1.61508-0.60284c-0.27983-0.31101-0.42033-0.67004-0.42033-1.07472
		c0-0.36983,0.11052-0.7001,0.33026-0.99429c0.21856-0.2942,0.54757-0.54874,0.98344-0.76613
		c-0.19569-0.23293-0.34338-0.45507-0.44305-0.66528c-0.09968-0.21014-0.14893-0.40949-0.14893-0.598
		c0-0.34821,0.13933-0.64241,0.41792-0.88376c0.27741-0.2426,0.67488-0.36266,1.18998-0.36266
		c0.49597,0,0.88501,0.12724,1.16484,0.38061c0.27975,0.25337,0.41908,0.56318,0.41908,0.92825
		c0,0.23417-0.06963,0.4539-0.20778,0.66411c-0.13808,0.20889-0.41785,0.4443-0.83818,0.70962l0.79977,1.05439
		c0.09367-0.16814,0.17414-0.3867,0.2426-0.6545l0.99546,0.22699c-0.09843,0.3518-0.18609,0.6112-0.25821,0.77452
		c-0.07322,0.16209-0.15245,0.3002-0.23534,0.41066c0.12247,0.11407,0.28217,0.24017,0.47677,0.37705
		C67.78745,80.34782,67.93037,80.4379,68.02159,80.48352 M64.59085,78.555c-0.25337,0.12849-0.44312,0.28101-0.56919,0.46233
		c-0.12489,0.18008-0.18733,0.36504-0.18733,0.55233c0,0.23776,0.07806,0.43232,0.23293,0.58243
		c0.15494,0.1501,0.3639,0.22574,0.62563,0.22574c0.17297,0,0.33868-0.03481,0.49839-0.10206
		c0.15845-0.06846,0.3326-0.18133,0.52111-0.33744L64.59085,78.555z M65.02197,77.35894l0.29896-0.22691
		c0.21856-0.17056,0.32901-0.33986,0.32901-0.50675c0-0.14167-0.05284-0.2618-0.15845-0.36023
		c-0.10693-0.09968-0.24979-0.14893-0.42994-0.14893c-0.17532,0-0.31223,0.04324-0.4119,0.13091
		c-0.0996,0.08648-0.14886,0.18851-0.14886,0.30379c0,0.13567,0.08407,0.30021,0.25095,0.49355L65.02197,77.35894z"/>
	<polygon class="st2" points="70.95105,81.18537 70.95105,75.43706 72.68861,75.43706 73.7309,79.35892 74.76242,75.43706 
		76.50364,75.43706 76.50364,81.18537 75.42529,81.18537 75.42529,76.65951 74.28331,81.18537 73.16654,81.18537 72.02934,76.65951 
		72.02934,81.18537 	"/>
	<rect x="77.62048" y="75.43706" class="st2" width="1.16118" height="5.74835"/>
	<polygon class="st2" points="79.89856,81.18537 79.89856,75.43706 81.02851,75.43706 83.38091,79.27605 83.38091,75.43706 
		84.45927,75.43706 84.45927,81.18537 83.29443,81.18537 80.97684,77.43641 80.97684,81.18537 	"/>
	<rect x="85.6516" y="75.43706" class="st2" width="1.16118" height="5.74835"/>
	<path class="st2" d="M87.92118,75.4372h2.29839c0.45515,0,0.79376,0.01796,1.01709,0.05643
		c0.2234,0.03841,0.42392,0.11646,0.60041,0.23776c0.17656,0.12006,0.32307,0.27975,0.44071,0.47912
		c0.11771,0.20052,0.17656,0.42509,0.17656,0.67363c0,0.26898-0.07204,0.51642-0.21738,0.74091
		c-0.14526,0.22581-0.3422,0.39271-0.59081,0.50558c0.35063,0.1021,0.61961,0.27499,0.8082,0.52235
		c0.18851,0.24619,0.28218,0.53438,0.28218,0.86578c0,0.2618-0.06003,0.51638-0.1825,0.76254
		c-0.1213,0.24736-0.28701,0.4443-0.49715,0.59203c-0.21137,0.14768-0.47076,0.23893-0.77814,0.27378
		c-0.19452,0.0192-0.66045,0.03361-1.40018,0.03841h-1.95736V75.4372z M89.08244,76.39426v1.32806h0.76012
		c0.45265,0,0.73366-0.00594,0.84294-0.01795c0.19936-0.02404,0.35547-0.09367,0.46951-0.20654
		c0.11287-0.11411,0.17055-0.26422,0.17055-0.44913c0-0.17773-0.04925-0.32301-0.14768-0.43353
		c-0.09734-0.11163-0.24377-0.17767-0.43712-0.20171c-0.11529-0.01202-0.44555-0.0192-0.99187-0.0192H89.08244z M89.08244,78.67938
		v1.53709h1.07469c0.41792,0,0.6833-0.01081,0.79493-0.03485c0.17297-0.03122,0.31348-0.10807,0.42275-0.22816
		c0.10803-0.12247,0.16205-0.28577,0.16205-0.48993c0-0.17172-0.04199-0.31824-0.12606-0.43829
		c-0.08282-0.1213-0.20412-0.20895-0.36148-0.26414c-0.15845-0.05409-0.50191-0.08172-1.03027-0.08172H89.08244z"/>
	<path class="st2" d="M93.70926,75.43691h1.16118v3.11377c0,0.49355,0.01436,0.81417,0.04199,0.96065
		c0.05043,0.23537,0.16928,0.42389,0.35547,0.5656c0.18734,0.14288,0.44313,0.21497,0.7673,0.21497
		c0.32909,0,0.57762-0.06845,0.74451-0.20177c0.16696-0.13449,0.26781-0.30021,0.30263-0.49593
		c0.03364-0.19694,0.05042-0.52232,0.05042-0.97747v-3.1798h1.16v3.0201c0,0.68932-0.02998,1.17683-0.09367,1.46143
		c-0.06245,0.28577-0.17891,0.52595-0.34704,0.72167c-0.16806,0.19694-0.39388,0.35305-0.67606,0.46955
		c-0.28217,0.11526-0.65084,0.17411-1.10599,0.17411c-0.54874,0-0.96541-0.06366-1.24883-0.19093
		c-0.28342-0.1273-0.50792-0.2906-0.67246-0.49355c-0.16454-0.20174-0.27382-0.4155-0.32542-0.63644
		c-0.07564-0.33022-0.11404-0.81651-0.11404-1.459V75.43691z"/>
	<path class="st2" d="M99.22263,79.31497l1.12871-0.1092c0.06845,0.37939,0.20661,0.65681,0.41432,0.83451
		c0.20771,0.17773,0.48754,0.2666,0.84177,0.2666c0.3735,0,0.65443-0.07806,0.84418-0.23656
		c0.18976-0.15853,0.2846-0.34344,0.2846-0.55479c0-0.1357-0.03965-0.25217-0.12006-0.34701
		c-0.0793-0.09608-0.21856-0.17898-0.41674-0.24978c-0.13684-0.04684-0.44665-0.12973-0.92943-0.25095
		c-0.62203-0.15377-1.05908-0.34345-1.3101-0.56802c-0.35305-0.31582-0.52954-0.70251-0.52954-1.15759
		c0-0.29185,0.08282-0.5656,0.24854-0.82139c0.16696-0.25455,0.40589-0.44789,0.71812-0.58238
		c0.31223-0.13332,0.68924-0.19936,1.1312-0.19936c0.72172,0,1.26445,0.15729,1.62952,0.47435
		c0.36507,0.31699,0.55599,0.73849,0.57395,1.26686l-1.16,0.0516c-0.04918-0.29536-0.15604-0.50792-0.32058-0.63882
		c-0.1633-0.12848-0.40707-0.19334-0.73373-0.19334c-0.33862,0-0.60159,0.0697-0.79369,0.20779
		c-0.12254,0.08883-0.18257,0.20771-0.18257,0.35664c0,0.13567,0.05643,0.25338,0.17173,0.34939
		c0.14651,0.12372,0.50198,0.25103,1.06633,0.38428c0.56561,0.13332,0.98228,0.2714,1.2525,0.41308
		c0.27133,0.14292,0.4827,0.33744,0.63523,0.5848c0.15369,0.24619,0.23051,0.55123,0.23051,0.91506
		c0,0.32901-0.09242,0.63761-0.27499,0.92583c-0.1825,0.28819-0.44189,0.50195-0.77691,0.64124
		c-0.33385,0.13929-0.75052,0.21013-1.25008,0.21013c-0.72765,0-1.2849-0.1681-1.67511-0.50433
		C99.5312,80.44739,99.29827,79.95742,99.22263,79.31497"/>
	<polygon class="st2" points="107.10835,81.18537 107.10835,75.43706 108.26827,75.43706 108.26827,77.70063 110.54387,77.70063 
		110.54387,75.43706 111.70387,75.43706 111.70387,81.18537 110.54387,81.18537 110.54387,78.67205 108.26827,78.67205 
		108.26827,81.18537 	"/>
	<rect x="112.86835" y="75.43706" class="st2" width="1.16" height="5.74835"/>
	<path class="st2" d="M115.13925,81.18578v-5.74835h2.44248c0.61478,0,1.06033,0.05167,1.33891,0.15369
		c0.27858,0.10327,0.50191,0.28826,0.66887,0.55123c0.16689,0.26415,0.25095,0.56677,0.25095,0.90539
		c0,0.43228-0.12731,0.78899-0.38068,1.06993c-0.25337,0.27983-0.63281,0.45757-1.13714,0.53078
		c0.25213,0.14651,0.45866,0.30739,0.62196,0.4827c0.16337,0.17414,0.3831,0.48516,0.66051,0.93305l0.70126,1.12157h-1.38699
		l-0.83935-1.25126c-0.29903-0.44668-0.50198-0.7289-0.61118-0.84418c-0.11053-0.11646-0.22699-0.19694-0.34946-0.2401
		c-0.12247-0.04324-0.31824-0.06369-0.5848-0.06369h-0.23534v2.39924H115.13925z M116.29926,77.86788h0.85855
		c0.55717,0,0.90546-0.02396,1.04354-0.0708c0.13808-0.04683,0.24737-0.12731,0.32542-0.2426
		c0.07806-0.11404,0.11763-0.25938,0.11763-0.43111c0-0.19328-0.0516-0.34939-0.15487-0.46951
		c-0.10326-0.11764-0.2486-0.19334-0.43711-0.22457c-0.09484-0.01319-0.37702-0.02037-0.84778-0.02037h-0.90539V77.86788z"/>
	<polygon class="st2" points="120.93429,81.18537 120.93429,75.43706 125.19597,75.43706 125.19597,76.40848 122.09547,76.40848 
		122.09547,77.68377 124.98107,77.68377 124.98107,78.65285 122.09547,78.65285 122.09547,80.21633 125.3065,80.21633 
		125.3065,81.18537 	"/>
	<rect x="42.82042" y="83.14514" class="st1" width="83.64491" height="7.60486"/>
	<path class="st2" d="M44.76121,84.12793h2.29714c0.45515,0,0.79376,0.01799,1.01708,0.05643
		c0.2234,0.03844,0.42393,0.11646,0.60041,0.23776c0.17656,0.12009,0.32307,0.27979,0.44196,0.47911
		c0.11646,0.20057,0.17649,0.4251,0.17649,0.67367c0,0.26899-0.07322,0.51639-0.21856,0.74092
		c-0.14527,0.22578-0.34221,0.39266-0.58957,0.50557c0.35063,0.10207,0.61962,0.27496,0.80813,0.52236
		c0.18734,0.24494,0.281,0.53434,0.281,0.86577c0,0.2618-0.06002,0.51639-0.18132,0.76254
		c-0.1213,0.24737-0.28819,0.44431-0.49832,0.59203c-0.21021,0.14768-0.47076,0.23776-0.77815,0.27258
		c-0.19452,0.02041-0.66044,0.03361-1.40018,0.03961h-1.95611V84.12793z M45.92121,85.08498v1.3281h0.76129
		c0.45148,0,0.73249-0.00597,0.84301-0.018c0.19811-0.02521,0.35423-0.09367,0.46827-0.20654
		c0.11412-0.11408,0.17055-0.26418,0.17055-0.4491c0-0.17773-0.04925-0.32304-0.14651-0.43353
		c-0.09851-0.11166-0.24495-0.1777-0.43829-0.20291c-0.11412-0.01081-0.44555-0.01803-0.99187-0.01803H45.92121z M45.92121,87.37014
		v1.53709h1.07469c0.41792,0,0.68331-0.01081,0.79618-0.03485c0.1729-0.03122,0.31223-0.10807,0.4215-0.22933
		c0.10803-0.12251,0.16205-0.28459,0.16205-0.48875c0-0.17172-0.042-0.31823-0.12489-0.4395
		c-0.08399-0.12009-0.20412-0.20775-0.36265-0.26297c-0.15846-0.05405-0.50191-0.08169-1.0291-0.08169H45.92121z"/>
	<path class="st2" d="M50.54862,84.12767h1.15993v3.11377c0,0.49355,0.01561,0.81417,0.04324,0.96065
		c0.05043,0.23538,0.16813,0.42389,0.35547,0.5656c0.18734,0.14288,0.44313,0.21497,0.7673,0.21497
		c0.32908,0,0.57645-0.06846,0.74451-0.20295c0.16696-0.13449,0.26781-0.30021,0.30145-0.49593
		c0.03364-0.19577,0.0516-0.52119,0.0516-0.9763v-3.17981h1.16001v3.01889c0,0.69049-0.03122,1.17803-0.09367,1.46263
		c-0.06245,0.28577-0.17891,0.52595-0.34704,0.72168c-0.16806,0.19572-0.39388,0.35184-0.67605,0.46955
		c-0.28342,0.11525-0.65084,0.1729-1.10599,0.1729c-0.54992,0-0.96541-0.06366-1.24883-0.18972
		c-0.2846-0.12731-0.50792-0.2906-0.67246-0.49355s-0.27382-0.4155-0.32542-0.63644
		c-0.07564-0.33022-0.11404-0.81656-0.11404-1.45901V84.12767z"/>
	<rect x="56.32013" y="84.12741" class="st2" width="1.16" height="5.74835"/>
	<polygon class="st2" points="58.61837,89.87613 58.61837,84.17461 59.77831,84.17461 59.77831,88.90709 62.66516,88.90709 
		62.66516,89.87613 	"/>
	<path class="st2" d="M63.48772,84.1272h2.1219c0.47794,0,0.84293,0.03723,1.09396,0.10928
		c0.33736,0.09968,0.62563,0.27741,0.86698,0.53078c0.24018,0.25337,0.42385,0.56319,0.54874,0.93063
		c0.12489,0.36745,0.18858,0.82136,0.18858,1.35933c0,0.47193-0.05886,0.8802-0.17774,1.22245
		c-0.14291,0.41908-0.34828,0.75652-0.61485,1.01591c-0.2017,0.19573-0.4731,0.34943-0.81538,0.4587
		c-0.25572,0.08047-0.59917,0.12251-1.02669,0.12251h-2.18552V84.1272z M64.64897,85.09986v3.80785h0.86698
		c0.32417,0,0.55835-0.01803,0.70127-0.05527c0.18851-0.04679,0.34462-0.12606,0.46834-0.23893
		c0.12489-0.1117,0.22574-0.29783,0.30379-0.55479c0.07923-0.25817,0.11771-0.60884,0.11771-1.05314
		c0-0.44431-0.03848-0.78533-0.11771-1.02309c-0.07806-0.23776-0.18733-0.42389-0.32901-0.55717
		c-0.1405-0.13332-0.31941-0.22336-0.5368-0.2702c-0.16212-0.03602-0.48036-0.05526-0.95346-0.05526H64.64897z"/>
	<rect x="69.25667" y="84.12741" class="st2" width="1.16" height="5.74835"/>
	<polygon class="st2" points="71.53497,89.87613 71.53497,84.12778 72.66368,84.12778 75.01616,87.96682 75.01616,84.12778 
		76.09452,84.12778 76.09452,89.87613 74.93085,89.87613 72.61326,86.12717 72.61326,89.87613 	"/>
	<path class="st2" d="M79.99655,87.76303v-0.96905h2.50126v2.29117c-0.24252,0.23418-0.59557,0.44193-1.05673,0.61962
		c-0.46108,0.18015-0.92818,0.26898-1.40136,0.26898c-0.60159,0-1.12511-0.12606-1.57184-0.37827
		c-0.44796-0.25216-0.78298-0.6124-1.00873-1.08195c-0.22456-0.46951-0.33743-0.97864-0.33743-1.53104
		c0-0.598,0.12614-1.13116,0.37709-1.59588c0.25095-0.46592,0.61844-0.82256,1.10115-1.07114
		c0.36983-0.18976,0.82732-0.2858,1.37731-0.2858c0.71329,0,1.27053,0.1501,1.67159,0.4491
		c0.40105,0.3002,0.66044,0.71207,0.77456,1.24044l-1.15165,0.21735c-0.08165-0.28339-0.23418-0.50553-0.4575-0.67004
		c-0.22332-0.16334-0.50315-0.24499-0.83701-0.24499c-0.50674,0-0.91022,0.16092-1.20918,0.48274
		c-0.30021,0.32183-0.44913,0.79736-0.44913,1.43137c0,0.6821,0.15128,1.19365,0.4539,1.53468
		c0.30379,0.34103,0.70126,0.51276,1.19247,0.51276c0.24253,0,0.4863-0.04804,0.73125-0.14409
		c0.24502-0.09609,0.45397-0.21017,0.62929-0.34825v-0.72772H79.99655z"/>
	<path class="st2" d="M85.7998,89.87679v-5.7496h1.86252c0.7061,0,1.16601,0.03004,1.38091,0.08648
		c0.32909,0.08645,0.60526,0.27379,0.8274,0.56197c0.22215,0.2906,0.3326,0.66286,0.3326,1.12039
		c0,0.35301-0.06361,0.64963-0.19093,0.88981c-0.12849,0.24014-0.29178,0.4299-0.48872,0.56677
		c-0.19811,0.13691-0.39871,0.22816-0.60159,0.27261c-0.27741,0.05402-0.67972,0.08286-1.2045,0.08286h-0.75645v2.1687H85.7998z
		 M86.96104,85.09986v1.63073h0.63523c0.4575,0,0.76371-0.02881,0.9174-0.09004c0.15369-0.06007,0.27499-0.15369,0.36266-0.28221
		c0.08765-0.12849,0.1309-0.27738,0.1309-0.44669c0-0.20895-0.06127-0.38189-0.18375-0.51756
		c-0.12247-0.1357-0.27858-0.21977-0.46709-0.25459c-0.13808-0.02642-0.41674-0.03965-0.83458-0.03965H86.96104z"/>
	<polygon class="st2" points="91.1874,89.87613 91.1874,84.17461 92.34858,84.17461 92.34858,88.90709 95.23418,88.90709 
		95.23418,89.87613 	"/>
	<path class="st2" d="M101.24573,89.87675h-1.2621l-0.50191-1.30652h-2.29839l-0.47552,1.30652h-1.22963l2.23829-5.74956h1.22729
		L101.24573,89.87675z M99.10829,87.60116l-0.79141-2.13146l-0.7769,2.13146H99.10829z"/>
	<path class="st2" d="M101.56734,88.00574l1.12871-0.11045c0.06846,0.37947,0.20661,0.65806,0.41433,0.83575
		c0.20771,0.17773,0.48754,0.2666,0.84059,0.2666c0.37343,0,0.6556-0.07806,0.84536-0.23776
		c0.18975-0.15732,0.28459-0.34224,0.28459-0.55358c0-0.13691-0.03965-0.2522-0.12005-0.34704
		c-0.08047-0.09608-0.21856-0.17895-0.41674-0.24978c-0.13684-0.04684-0.44665-0.12969-0.9306-0.25095
		c-0.62203-0.15373-1.05791-0.34345-1.30894-0.5692c-0.35305-0.31464-0.52953-0.7013-0.52953-1.15641
		c0-0.29298,0.08282-0.5656,0.24854-0.82136c0.16695-0.25458,0.40589-0.44792,0.71812-0.58242
		c0.31223-0.13328,0.68925-0.20052,1.1312-0.20052c0.72171,0,1.26445,0.15849,1.62952,0.47552
		c0.36382,0.31703,0.556,0.7385,0.57396,1.26687l-1.16,0.05046c-0.05043-0.2954-0.15729-0.50796-0.32059-0.63765
		c-0.16329-0.12848-0.40831-0.19334-0.7349-0.19334c-0.33744,0-0.60159,0.06966-0.79252,0.20775
		c-0.12254,0.08766-0.18375,0.20775-0.18375,0.35664c0,0.1357,0.05761,0.25217,0.1729,0.34943
		c0.14534,0.12251,0.50198,0.25099,1.06634,0.38306c0.56443,0.13453,0.98227,0.27261,1.2525,0.41428
		c0.27016,0.14172,0.4827,0.33744,0.63522,0.58363c0.15245,0.24736,0.22934,0.55237,0.22934,0.91623
		c0,0.32901-0.09126,0.63761-0.27383,0.92583c-0.18367,0.28698-0.44305,0.50195-0.7769,0.64124
		c-0.33385,0.1393-0.75169,0.21014-1.25008,0.21014c-0.72765,0-1.28606-0.16931-1.6751-0.50433
		C101.8759,89.13815,101.64297,88.64819,101.56734,88.00574"/>
	<polygon class="st2" points="108.51154,89.87613 108.51154,85.09924 106.8063,85.09924 106.8063,84.12778 111.3731,84.12778 
		111.3731,85.09924 109.67146,85.09924 109.67146,89.87613 	"/>
	<rect x="112.08778" y="84.12741" class="st2" width="1.16" height="5.74835"/>
	<path class="st2" d="M118.03249,87.76303l1.12511,0.35667c-0.1729,0.6268-0.45866,1.09272-0.86097,1.39777
		c-0.40106,0.30501-0.91022,0.45628-1.52625,0.45628c-0.76371,0-1.39175-0.26055-1.88289-0.78174
		c-0.49113-0.52115-0.73615-1.23444-0.73615-2.13985c0-0.95585,0.24619-1.69918,0.73975-2.22876
		c0.49473-0.52954,1.14439-0.79372,1.94893-0.79372c0.70368,0,1.27529,0.20654,1.71483,0.62321
		c0.26056,0.24498,0.45625,0.59924,0.58715,1.05915l-1.14916,0.275c-0.06728-0.29904-0.21013-0.53438-0.42509-0.70611
		c-0.21497-0.17294-0.47794-0.25938-0.78658-0.25938c-0.4251,0-0.77214,0.1537-1.03629,0.45874
		c-0.26539,0.30618-0.39871,0.80215-0.39871,1.4866c0,0.72651,0.13091,1.24406,0.39271,1.55267
		c0.26055,0.30864,0.60041,0.46354,1.01833,0.46354c0.30856,0,0.5752-0.09846,0.79736-0.2942
		C117.77669,88.49075,117.93515,88.18453,118.03249,87.76303"/>
	<path class="st2" d="M119.8596,88.00574l1.12871-0.11045c0.06846,0.37947,0.20661,0.65806,0.41432,0.83575
		c0.20772,0.17773,0.48755,0.2666,0.8406,0.2666c0.37343,0,0.6556-0.07806,0.84536-0.23776
		c0.18975-0.15732,0.28459-0.34224,0.28459-0.55358c0-0.13691-0.03965-0.2522-0.12005-0.34704
		c-0.08047-0.09608-0.21856-0.17895-0.41675-0.24978c-0.13683-0.04684-0.44664-0.12969-0.9306-0.25095
		c-0.62203-0.15373-1.05791-0.34345-1.30894-0.5692c-0.35305-0.31464-0.52954-0.7013-0.52954-1.15641
		c0-0.29298,0.08282-0.5656,0.24854-0.82136c0.16696-0.25458,0.4059-0.44792,0.71812-0.58242
		c0.31223-0.13328,0.68925-0.20052,1.1312-0.20052c0.72171,0,1.26444,0.15849,1.62952,0.47552
		c0.36507,0.31703,0.556,0.7385,0.57395,1.26687l-1.16,0.05046c-0.05042-0.2954-0.15728-0.50796-0.32058-0.63765
		c-0.1633-0.12848-0.40832-0.19334-0.73491-0.19334c-0.33744,0-0.60041,0.06966-0.79251,0.20775
		c-0.12254,0.08766-0.18375,0.20775-0.18375,0.35664c0,0.1357,0.05761,0.25217,0.1729,0.34943
		c0.14651,0.12251,0.50198,0.25099,1.06634,0.38306c0.56443,0.13453,0.98227,0.27261,1.2525,0.41428
		c0.27016,0.14172,0.4827,0.33744,0.63522,0.58363c0.15369,0.24736,0.22933,0.55237,0.22933,0.91623
		c0,0.32901-0.09125,0.63761-0.27382,0.92583c-0.18367,0.28698-0.44188,0.50195-0.7769,0.64124
		c-0.33385,0.1393-0.75169,0.21014-1.25008,0.21014c-0.72765,0-1.28606-0.16931-1.6751-0.50433
		C120.16816,89.13815,119.93523,88.64819,119.8596,88.00574"/>
</g>
</svg>
