<?xml version="1.0" encoding="utf-8"?>
<!-- Generator: Adobe Illustrator 25.3.0, SVG Export Plug-In . SVG Version: 6.00 Build 0)  -->
<svg version="1.1" id="Layer_1" xmlns="http://www.w3.org/2000/svg" xmlns:xlink="http://www.w3.org/1999/xlink" x="0px" y="0px"
	 viewBox="0 0 750.2 400.1" style="enable-background:new 0 0 750.2 400.1;" xml:space="preserve">
<g>
	<path d="M156.7,197.9c-0.2,0.8-0.3,1.7-0.5,2.5c0.1,0,0.1,0,0.2,0c2.7-0.5,5.5-0.6,8.2-0.4c0.7,0,1.4,0.2,2.1,0.3
		c0.4-1.5,0.8-2.9,1.2-4.4c0.8-3,1.4-6.1,1.6-9.3c0.1-1.8,0.2-3.5,0.2-5.3c0.1-2.3,0.2-4.5,0.3-6.8c-0.4,0-0.8-0.1-1.2-0.1
		c-3.6-0.3-7.1-0.9-10.6-1.9c0,0.5,0.1,1.1,0.1,1.6c0.1,2.4,0.2,4.7,0.1,7.1C158.3,186.8,157.5,192.3,156.7,197.9z"/>
	<path d="M212.3,209.8c-0.8-0.1-1.5,0-2.2,0.3c-0.5,0.2-0.7,0.8-0.3,1.2c0.2,0.2,0.4,0.4,0.7,0.5c0.5,0.3,1,0.5,1.5,0.7
		c0.1,0,0.1-0.1,0.2-0.1c1.1-0.8,1.1-1.7,0.2-2.6H212.3z"/>
	<path d="M266,179.6c-0.2,0-0.3-0.1-0.5-0.1c0.1,0.2,0.3,0.5,0.4,0.7c0,0,0.1,0,0.1,0V179.6z"/>
	<path d="M257.4,176.6c-1.3-0.6-2.7-1.2-4-1.9c0,0.1,0,0.2,0,0.4c1.4,0.6,2.8,1.3,4.2,1.9C257.5,176.9,257.4,176.7,257.4,176.6z"/>
	<path d="M244.9,170.1C244.9,170.1,244.9,170.1,244.9,170.1c0.3,0,0.5-0.1,0.7-0.1c-0.1,0-0.1-0.1-0.2-0.1h-1
		C244.6,170,244.7,170,244.9,170.1z"/>
	<path d="M164.9,172.7c1.5,0.2,2.9,0.3,4.4,0.3c0-1,0.1-1.9,0.1-2.9c0.7,3.3,1.2,6.7,1.5,10c0.1,1.6,0.3,3.3,0.4,4.9
		c0.2,3.5,0.1,7-0.2,10.5c-0.3,2.5-0.7,4.9-1.3,7.4c-0.1,0.5-0.2,1-0.4,1.5c-0.7,2.9-1.5,5.6-3.2,8.1c0,0.1,0,0.2,0,0.4
		c0.8-0.3,1.2-0.9,1.5-1.4c0.5-1.1,1.1-2.1,1.5-3.2c0.7-2,1.3-4,1.8-6.1c0.1-0.4,0.2-0.8,0.3-1.3c0.7-3.3,1.3-6.5,1.4-9.9
		c0.1-3.5,0.1-6.9,0-10.4c-0.1-3.6-0.5-7.1-1-10.7h-0.4c0,0.2,0,0.4,0.1,0.6c0,0.2,0.1,0.5-0.3,0.5c-0.1-0.4-0.2-0.8-0.3-1.1h-13.5
		c0,0.4,0.1,0.9,0.1,1.3C159.8,171.9,162.3,172.4,164.9,172.7z"/>
	<path d="M145.1,226.5c0.8-1.7,1.7-3.3,2.5-5c0.7-1.4,1.5-2.8,2.3-4.1c0.4-0.7,1.1-1.3,1.7-1.9c0.1-0.1,0.4-0.2,0.7-0.3
		c0.1,0.3,0.2,0.5,0.2,0.6c-0.1,0.5-0.2,1.1-0.4,1.6c-0.5,1.3-1,2.5-1.6,3.8c-0.8,1.8-1.6,3.5-2.5,5.3h0.7c0.3-0.6,0.6-1.2,0.9-1.8
		c1.4-3,2.8-5.9,4.5-8.7c-0.1,0.4-0.2,0.9-0.2,1.3c-0.6,3.1-1.4,6.2-2.3,9.2h3.5c2-3.7,3.9-7.5,5.7-11.3c2.2-4.6,3.8-9.3,5.2-14.1
		c-0.8-0.3-1.7-0.5-2.6-0.6c-2.7-0.2-5.2,0-7.7,0.5c-0.4,2.6-0.8,5.2-1.2,7.8c-0.2,1-0.3,1.9-0.5,2.9c-0.4,0-0.7,0.1-1.1,0.2
		c-0.8,0.3-1.6,0.8-2.1,1.5c-0.6,0.7-1.1,1.4-1.6,2.1c-0.9,1.6-1.8,3.2-2.7,4.9c-0.9,1.8-1.8,3.6-2.7,5.3c-0.1,0.3-0.3,0.5-0.4,0.8
		H145.1z"/>
	<path d="M229.9,174.9c0,0,0.1,0.1,0.1,0.1c0.9,1,1.9,1.9,2.9,2.9c1.1,1.1,2.1,2.1,3.2,3.2c-0.1-0.2-0.1-0.3-0.2-0.5
		c-1.8-1.8-3.7-3.5-5.5-5.3C230.2,175.2,230,175,229.9,174.9z"/>
	<path d="M234.9,178.2c0.3,0.8,0.7,1.6,1,2.4c0.1,0.1,0.2,0.2,0.3,0.3c0.9,2,1.7,4.1,2.5,6.2c0.6,1.4,1,2.9,1.4,4.4
		c0.2,0.7,0.2,1.5,0.1,2.3c-0.1,1.2-0.8,1.6-1.9,1.3c-0.8-0.2-1.5-0.6-2.2-1c-1.7-1-3.2-2.3-4.6-3.6c-3.8-3.4-7.7-6.5-12.1-8.9
		c-0.2-0.1-0.4-0.2-0.6-0.4c-4.2-2.6-8.5-5-13.1-6.7c-0.6-0.2-1.3-0.6-1.8-0.9c-0.7-0.4-1.2-1-1.4-1.8c-0.1-0.6-0.2-1.3-0.3-1.9
		h-6.3c0,1.3,0.2,2.6,0.3,3.9c0.1,1.8,0.2,3.6,0.2,5.5c0,2.7-0.4,5.5-0.7,8.2c-0.1,0.9-0.1,1.7-0.1,2.6c0,0.2,0.2,0.5,0.3,0.7
		c0.6,0,0.9-0.3,1.3-0.6c0.5-0.5,1-1,1.4-1.5c0.8-1.1,1.6-2.2,2.4-3.3c0.9-1.2,1.7-2.5,2.6-3.7c0.4-0.5,0.9-1.1,1.4-1.5
		c0.8-0.7,1.7-1.1,2.7-1.1c0.6,0,1.3,0.1,1.9,0.2c0.9,0.2,1.8,0.5,2.6,0.8c2.8,1,5.4,2.4,8.1,3.7c3.1,1.5,6,3.4,8.7,5.7
		c1.2,1,2.4,2,3.6,3c1.5,1.2,3,2.4,4.6,3.4c0.7,0.4,1.4,0.7,2.1,1c0.9,0.3,1.6-0.1,2-1c0.1-0.3,0.2-0.6,0.2-0.9c0-0.6,0-1.2-0.1-1.8
		c-0.3-2-0.9-3.9-1.6-5.8c-0.5-1.4-1.1-2.7-1.7-4.1c-0.2-0.6-0.5-1.1-0.5-2c0.5,0.6,0.7,1.1,1,1.6c0.5,1.1,1,2.2,1.5,3.4
		c0.8,1.9,1.6,3.8,2.4,5.7c0.6,1.5,1.1,3.1,1.4,4.7c0.1,0.9,0.2,1.7,0.1,2.6c0,0.5-0.1,0.9-0.3,1.3c0.1,0.3,0.2,0.6,0.3,0.9
		c0.2,0.6,0.4,0.9,0.9,1c0.1-0.2,0.2-0.5,0.3-0.8c0.2-0.9,0.3-1.7,0.1-2.6c-0.3-1.3-0.5-2.7-0.9-4c-0.9-3.3-2.4-6.4-3.8-9.5
		c-1.6-3.5-3.2-7.1-4.9-10.6c-0.8-1.7-1.5-3.4-2.2-5.1h-2C232.6,172.7,233.7,175.4,234.9,178.2z"/>
	<path d="M138.8,210.5c0-2.6-0.1-5.1-0.4-7.7v14C138.6,214.7,138.8,212.6,138.8,210.5z"/>
	<path d="M244.6,217.5c-0.6-2.3-0.8-4.6,0.1-6.9c0,0,0-0.1,0-0.2c-0.1,0-0.1,0-0.2,0c-0.5,0.6-0.5,1.3-0.6,2
		c-0.3,2.2,0.1,4.3,0.7,6.3c0.8,2.6,1.9,5.1,3.2,7.6c-5.5-3.8-11.3-7.3-17.4-10.1c-4.6-2.1-9.3-4.1-14.2-5.5c-0.7-0.2-1.3-0.4-2-0.5
		c0.7,0.8,0.7,1.6-0.1,2.3c-0.3,0.3-0.7,0.5-1,0.7c2.1,0.9,4.2,1.9,6.2,2.9c1.9,0.9,3.7,2,5.5,3.1c0.7,0.4,1.2,1,1.8,1.5
		c0.4,0.3,0.5,0.8,0.3,1.2c-0.6,1-0.3,2,0.3,2.9c0.2,0.4,0.5,0.8,0.7,1.2c0.7,0.2,1.4,0.3,2,0.5H242c-2.8-2.2-5.8-4.3-8.8-6.3
		c-1.2-0.8-2.4-1.6-3.6-2.3c-0.3-0.2-0.6-0.5-0.9-0.8c0.8-0.2,1.3,0.1,1.8,0.3c4.2,1.5,8,3.6,11.8,5.9c1.7,1,3.3,2.1,4.8,3.2h1.2
		c-0.4-0.8-0.9-1.6-1.3-2.5C246,221.9,245.2,219.8,244.6,217.5z"/>
	<path d="M181.6,184.9c0.3,1,0.7,2,1.1,2.9c0.1,0.1,0.1,0.3,0.2,0.4c0.2,0.3,0.4,0.7,0.7,0.9c0.7,0.7,1.4,0.8,2.1,0.1
		c0.3-0.3,0.5-0.5,0.7-0.8c-0.7,0.6-1.4,0.4-2.1-0.5c0,0-0.1-0.1-0.1-0.2c-0.3-0.4-0.5-0.7-0.7-1.1c-0.4-0.9-0.8-1.8-1-2.7
		c-0.8-2.7-1.5-5.4-2.2-8.1c-0.5-2-1-3.9-1.5-5.9h-1c0.5,1.8,0.9,3.5,1.3,5.3C179.9,178.4,180.7,181.7,181.6,184.9z"/>
	<path d="M186.9,187.9c0.4-0.5,0.7-1.1,0.9-1.6c0.5-1.3,0.8-2.7,1-4.1c0.4-3.5,0.3-7,0.1-10.6c0-0.6,0-1.1-0.1-1.7h-0.2
		c0,0.8,0.1,1.6,0.1,2.4c0.2,4,0.2,8-0.7,12c-0.3,1.1-0.6,2.3-1.2,3.3c-0.1,0.3-0.3,0.5-0.5,0.8c0.1-0.1,0.2-0.2,0.3-0.3
		C186.8,188,186.8,188,186.9,187.9z"/>
	<path d="M227.9,169.9h-1c0.2,1.5,0.9,2.9,2,4.1c0.3,0.3,0.6,0.6,0.9,0.9c-1-1.1-1.8-2.3-1.9-3.9C228,170.6,228,170.3,227.9,169.9z"
		/>
	<path d="M169.4,223.3c-0.3,0-0.6,0-1-0.1c-0.6-0.1-1.2-0.1-1.8-0.1c-0.5,0-1.1,0-1.6,0.1c-0.1,0-0.3,0.1-0.4,0.1
		c-1,0.3-2,0.5-3,0.7c-1.2,0.2-1.7,0.8-1.9,2c0,0.2-0.1,0.3-0.1,0.5h8.1c0.2,0,0.3,0,0.5-0.1c2.8-0.6,5.4-1.6,7.8-3.1
		c0.5-0.3,1.1-0.7,1.7-0.9c0.2-0.1,0.4-0.1,0.7-0.1c-0.2,0.7-0.5,1.1-0.9,1.5c-0.8,0.9-1.6,1.8-2.3,2.7h2.4c0.2-0.4,0.4-0.9,0.8-1.2
		c0.7-1,1.4-1.9,2.2-2.8c3.4-4.1,6.5-8.5,9.4-13c0.4-0.6,0.7-1.2,1-1.8c0.1-0.2,0.2-0.4-0.1-0.7c-0.2,0.1-0.5,0.1-0.7,0.3
		c-0.6,0.5-1.3,1-1.8,1.6c-1.6,1.8-3.2,3.6-4.8,5.4c-1.5,1.7-3,3.3-4.7,4.8c-1.3,1.2-2.8,2.2-4.4,3c-1.4,0.7-2.9,1.1-4.4,1.2
		C169.9,223.3,169.6,223.3,169.4,223.3z"/>
	<path d="M220.3,198.5c0.7-0.2,1.4-0.2,2.2-0.3c1.7-0.1,3.4-0.1,5.1,0.1c1.7,0.2,3.4,0.7,4.9,1.6c1.4,0.8,2.8,1.7,4.3,2.4
		c1,0.5,2,1,3.1,1.5c0.3-0.5,0.6-0.9,0.9-1.4c-0.2-0.1-0.5-0.1-0.7-0.2c-1-0.4-2-0.9-2.9-1.5c-1.4-0.8-2.8-1.8-4.2-2.6
		c-1.1-0.7-2.2-1.4-3.4-2.1c-3.5-1.9-7.2-2.6-11.1-2.5c-1.8,0-3.3,0.7-4.5,2c-0.4,0.4-0.8,0.9-1.2,1.3c-3.3,3.9-6.7,7.8-10.5,11.3
		c-1.4,1.3-2.9,2.7-4.3,4.1c-0.7,0.7-1.4,1.5-2.1,2.4c-0.4,0.5-0.7,1-0.8,1.6c-0.2,1.2-0.9,2-1.7,2.7c-1.9,1.6-3.8,3.2-5.7,4.7
		c-1.4,1.1-2.8,2.1-4.3,2.9h3.1c1.3-0.8,2.5-1.7,3.7-2.6c2-1.5,4.1-2.9,6.2-4.3c5.9-4.1,11.4-8.8,16.3-14c1.4-1.5,2.8-3.1,4.2-4.7
		C217.6,199.7,218.7,198.8,220.3,198.5z"/>
	<path d="M201.6,221c0-0.2,0-0.4,0.1-0.6c-2.1,1.7-4.2,3.4-6.5,4.9c-0.6,0.4-1.2,0.8-1.9,1.2h0.7c0.6-0.4,1.1-0.7,1.7-1.1
		C197.7,224,199.7,222.5,201.6,221z"/>
	<path d="M265.5,214.3c-0.4,0-0.8-0.1-1.2-0.2c-0.9-0.3-1.8-0.5-2.7-0.8c-1.4-0.5-2.8-1.1-4.2-1.6c-1.3-0.5-2.6-0.9-3.9-1.1
		c-1-0.2-2-0.2-3,0.2c-1.4,0.5-2.3,1.4-2.5,2.9c-0.1,0.5-0.1,1,0,1.5c0,1.2,0.4,2.4,0.9,3.5c0.1,0,0.2,0,0.2-0.1
		c0-0.1-0.1-0.3-0.1-0.4c-0.4-1.3-0.8-2.6-0.7-4c0.1-1.6,1-2.8,2.4-3.1c0.7-0.2,1.4-0.2,2.2-0.2c1,0,1.9,0.2,2.8,0.6
		c1.4,0.5,2.7,1.1,4.1,1.6c1.4,0.5,2.7,1.1,4,1.7c0.8,0.1,1.5,0.2,2.2,0.3v-0.8C265.8,214.3,265.7,214.3,265.5,214.3z"/>
	<path d="M247.5,207.7c-0.1,0-0.1,0.1-0.2,0.1c0,0.1,0,0.2,0,0.3c0.2-0.1,0.3-0.1,0.5-0.2c1.1-0.6,2.2-0.9,3.4-1
		c1.3-0.1,2.5-0.2,3.8-0.2c1.4,0,2.7,0,4.1,0c1.8,0,3.5-0.2,5.2-0.8c0.4,1,0.8,2.1,1.2,3.1c0.2,0.4,0.3,0.9,0.5,1.3v-7.8
		c-0.2-0.5-0.4-1-0.6-1.5c0,0,0,0-0.1,0c-0.4-0.3-0.9-0.4-1.4-0.5c-0.6-0.1-1,0.2-1,0.9c0,0.2,0,0.5,0.1,0.7c0.2,0.7,0.4,1.3,0.6,2
		c0.1,0.1,0.1,0.3,0.2,0.4c-1.1,0.5-2.3,0.9-3.5,1.1c-1.1,0.2-2.3,0.2-3.4,0.3c-1.5,0.1-3.1,0.1-4.6,0.3
		C250.6,206.5,249,206.8,247.5,207.7z"/>
</g>
</svg>
