<?xml version="1.0" encoding="utf-8"?>
<!-- Generator: Adobe Illustrator 25.3.0, SVG Export Plug-In . SVG Version: 6.00 Build 0)  -->
<svg version="1.1" id="Layer_1" xmlns="http://www.w3.org/2000/svg" xmlns:xlink="http://www.w3.org/1999/xlink" x="0px" y="0px"
	 viewBox="0 0 750.2 400.1" style="enable-background:new 0 0 750.2 400.1;" xml:space="preserve">
<path d="M164.6,200c0.7,0,1.4,0.2,2.1,0.3c0.4-1.5,0.8-2.9,1.2-4.4c0.8-3,1.4-6.1,1.6-9.3c0.1-1.8,0.2-3.5,0.2-5.3
	c0.1-2.3,0.2-4.5,0.3-6.8c-0.4,0-0.8-0.1-1.2-0.1c-3-0.3-6-0.7-8.9-1.5v27C161.5,199.9,163.1,199.9,164.6,200z"/>
<path d="M212.3,209.8c-0.8-0.1-1.5,0-2.2,0.3c-0.5,0.2-0.7,0.8-0.3,1.2c0.2,0.2,0.4,0.4,0.7,0.5c0.5,0.3,1,0.5,1.5,0.7
	c0.1,0,0.1-0.1,0.2-0.1c1.1-0.8,1.1-1.7,0.2-2.6H212.3z"/>
<path d="M166,201.1c-0.8-0.3-1.7-0.5-2.6-0.6c-1.2-0.1-2.4-0.1-3.5,0V217c0.3-0.6,0.6-1.2,0.9-1.8C163,210.6,164.6,205.9,166,201.1z
	"/>
<path d="M184.3,187.9c0,0-0.1-0.1-0.1-0.2c-0.3-0.4-0.5-0.7-0.7-1.1c-0.4-0.9-0.8-1.8-1-2.7c-0.8-2.7-1.5-5.4-2.2-8.1
	c-1.3-5.1-2.5-10.1-4.1-15.2H175c1.7,4.8,2.9,9.7,4.1,14.6c0.8,3.2,1.6,6.5,2.5,9.7c0.3,1,0.7,2,1.1,2.9c0.1,0.1,0.1,0.3,0.2,0.4
	c0.2,0.3,0.4,0.7,0.7,0.9c0.7,0.7,1.4,0.8,2.1,0.1c0.3-0.3,0.5-0.5,0.7-0.8C185.7,189,185,188.8,184.3,187.9z"/>
<path d="M244.3,217.6v-1.5c-0.2-1.4-0.3-2.8,0-4.2v-1.2c-0.3,0.5-0.3,1.1-0.4,1.7C243.7,214.2,243.9,215.9,244.3,217.6z"/>
<path d="M184.1,236.2h0.2v-0.1C184.2,236.1,184.1,236.2,184.1,236.2z"/>
<path d="M188.5,160.6c0,0.7-0.1,1.4-0.1,2.1c0,3.2,0.2,6.4,0.4,9.6c0.2,4,0.2,8-0.7,12c-0.3,1.1-0.6,2.3-1.2,3.3
	c-0.1,0.3-0.3,0.5-0.5,0.8c0.1-0.1,0.2-0.2,0.3-0.3c0.1-0.1,0.1-0.1,0.2-0.2c0.4-0.5,0.7-1.1,0.9-1.6c0.5-1.3,0.8-2.7,1-4.1
	c0.4-3.5,0.3-7,0.1-10.6c-0.1-2.5-0.2-5-0.3-7.5c-0.1-1.2,0-2.4,0.1-3.5H188.5z"/>
<path d="M191.2,161.3h4.7c0.5-0.1,1-0.2,1.5-0.2c1.9,0,3.8,0,5.8,0c5,0,10,0,14.9,0c0.4,0,0.9,0.1,1.3-0.1c-0.1-0.1-0.2-0.2-0.2-0.2
	c-0.3-0.1-0.7-0.1-1-0.2h-27.3C191,160.8,191.1,161,191.2,161.3z"/>
<path d="M169.3,173c0-1,0.1-1.9,0.1-2.9c0.7,3.3,1.2,6.7,1.5,10c0.1,1.6,0.3,3.3,0.4,4.9c0.2,3.5,0.1,7-0.2,10.5
	c-0.3,2.5-0.7,4.9-1.3,7.4c-0.1,0.5-0.2,1-0.4,1.5c-0.7,2.9-1.5,5.6-3.2,8.1c0,0.1,0,0.2,0,0.4c0.8-0.3,1.2-0.9,1.5-1.4
	c0.5-1.1,1.1-2.1,1.5-3.2c0.7-2,1.3-4,1.8-6.1c0.1-0.4,0.2-0.8,0.3-1.3c0.7-3.3,1.3-6.5,1.4-9.9c0.1-3.5,0.1-6.9,0-10.4
	c-0.2-5.9-1.1-11.7-2-17.6c-0.1-0.8-0.2-1.6-0.3-2.4h-7c-0.6,0.8-1,1.6-1.2,2.5c-0.4,1.4,0,2.4,1.3,3c1,0.5,2.1,0.6,3.1,0.7
	c0.9,0.1,1.7,0.1,2.6,0c0.2,0.8,0.4,1.6,0.6,2.4c-1.8,0.4-3.8,0.4-5.8,0.1c-1.3-0.2-2.6-0.5-3.8-1.2c-0.1,0-0.1-0.1-0.2-0.1v3.9
	c1.6,0.4,3.3,0.7,5,0.9C166.4,172.9,167.8,173,169.3,173z M170.2,167.1c0-1.1,0.1-2.3,0.1-3.4c0.5,2.2,0.9,4.4,1.1,6.8
	c0,0.2,0.1,0.5-0.3,0.5c-0.1-0.5-0.3-1-0.4-1.4c-0.2-0.8-0.4-1.7-0.7-2.5C170.1,167.1,170.1,167.1,170.2,167.1z"/>
<path d="M160.5,162.3c0.4-0.6,0.8-1.2,1.3-1.7h-1.5c-0.2,0.2-0.3,0.5-0.4,0.8v1.8C160.2,162.9,160.3,162.6,160.5,162.3z"/>
<path d="M229.9,174.9c0,0,0.1,0.1,0.1,0.1c0.9,1,1.9,1.9,2.9,2.9c1.1,1.1,2.1,2.1,3.2,3.2c-0.1-0.2-0.1-0.3-0.2-0.5
	c-1.8-1.8-3.7-3.5-5.5-5.3C230.2,175.2,230,175,229.9,174.9z"/>
<path d="M233.2,220.2c-1.2-0.8-2.4-1.6-3.6-2.3c-0.3-0.2-0.6-0.5-0.9-0.8c0.8-0.2,1.3,0.1,1.8,0.3c4.2,1.5,8,3.6,11.8,5.9
	c0.7,0.4,1.3,0.9,2,1.3V224c-4.4-2.9-9.1-5.5-13.9-7.8c-4.6-2.1-9.3-4.1-14.2-5.5c-0.7-0.2-1.3-0.4-2-0.5c0.7,0.8,0.7,1.6-0.1,2.3
	c-0.3,0.3-0.7,0.5-1,0.7c2.1,0.9,4.2,1.9,6.2,2.9c1.9,0.9,3.7,2,5.5,3.1c0.7,0.4,1.2,1,1.8,1.5c0.4,0.3,0.5,0.8,0.3,1.2
	c-0.6,1-0.3,2,0.3,2.9c0.2,0.4,0.5,0.8,0.7,1.2c2.2,0.5,4.4,1.1,6.6,1.9c1.2,0.4,2.3,1,3.5,1.6c0.6,0.3,1.3,0.8,1.6,1.6
	c-0.2,0-0.3,0.1-0.4,0c-2.6-1.8-5.6-2.7-8.7-3.5c-0.2,0-0.4-0.1-0.6-0.1c0.1-0.2,0.2-0.4,0.2-0.7c-0.7-0.3-1.3-0.2-1.9-0.1
	c-0.8,0.2-1.7,0.4-2.5,0.6c-2.8,0.9-5.6,1.7-8.4,2.6c-0.1,0-0.3,0.1-0.4,0.1c-1.9,0.6-3.7,1.2-5.6,1.8c-4.3,1.4-8.6,2.8-12.8,4.4
	h7.5c1-0.3,2-0.6,3-0.8c1-0.2,2-0.4,3-0.6c0.3-0.1,0.6,0,0.9,0.3c-0.2,0.5-0.5,0.8-0.9,1.1h5.3c2.3-1.4,4.6-2.8,6.8-4.2
	c1.7-1,3.3-2.2,4.9-3.3c0.3-0.2,0.6-0.5,0.9-0.8c2.1,2.7,4.1,5.5,6.1,8.3h5.2c-0.1-0.1-0.1-0.3-0.2-0.4c-0.2-0.4-0.3-0.8-0.3-1.3
	c-0.1-0.4,0.3-0.8,0.7-0.8c0.5,0.1,1,0.1,1.4,0.3c0.6,0.3,1.1,0.5,1.6,0.8v-6.4C240.8,225.5,237.1,222.7,233.2,220.2z"/>
<path d="M237.7,167.1c0.3,0.1,0.6,0.3,0.9,0.4c1.9,0.8,3.8,1.6,5.7,2.4v-0.5c-0.6-0.3-1.2-0.5-1.8-0.8c-1.4-0.6-2.8-1.2-4.2-1.8
	c-2.4-1.1-3.8-3-4.2-5.6c0-0.2-0.1-0.4-0.1-0.6h-0.6c0,0.3,0.1,0.5,0.1,0.8C233.9,164,235.3,165.9,237.7,167.1z"/>
<path d="M195.6,190.1c0,0.2,0.2,0.5,0.3,0.7c0.6,0,0.9-0.3,1.3-0.6c0.5-0.5,1-1,1.4-1.5c0.8-1.1,1.6-2.2,2.4-3.3
	c0.9-1.2,1.7-2.5,2.6-3.7c0.4-0.5,0.9-1.1,1.4-1.5c0.8-0.7,1.7-1.1,2.7-1.1c0.6,0,1.3,0.1,1.9,0.2c0.9,0.2,1.8,0.5,2.6,0.8
	c2.8,1,5.4,2.4,8.1,3.7c3.1,1.5,6,3.4,8.7,5.7c1.2,1,2.4,2,3.6,3c1.5,1.2,3,2.4,4.6,3.4c0.7,0.4,1.4,0.7,2.1,1c0.9,0.3,1.6-0.1,2-1
	c0.1-0.3,0.2-0.6,0.2-0.9c0-0.6,0-1.2-0.1-1.8c-0.3-2-0.9-3.9-1.6-5.8c-0.5-1.4-1.1-2.7-1.7-4.1c-0.2-0.6-0.5-1.1-0.5-2
	c0.5,0.6,0.7,1.1,1,1.6c0.5,1.1,1,2.2,1.5,3.4c0.8,1.9,1.6,3.8,2.4,5.7c0.6,1.5,1.1,3.1,1.4,4.7c0.1,0.9,0.2,1.7,0.1,2.6
	c0,0.5-0.1,0.9-0.3,1.3c0.1,0.3,0.2,0.6,0.3,0.9c0.1,0.3,0.2,0.5,0.3,0.6v-7.3c-0.9-3.2-2.3-6.2-3.7-9.2c-1.6-3.5-3.2-7.1-4.9-10.6
	c-2.2-4.7-3.9-9.5-5.8-14.4h-2.2c0.2,0.5,0.4,1,0.6,1.4c-0.1,0.3-0.2,0.5-0.3,0.8c-0.7,2-1,4-1.1,6c0,2,0.7,3.7,2.1,5.2
	c0.3,0.3,0.6,0.6,0.9,0.9c-1-1.1-1.8-2.3-1.9-3.9c-0.1-1-0.1-2,0-2.9c0.2-1.5,0.5-2.9,1-4.2c0.6,1.5,1.3,3,1.9,4.5
	c1.3,3.3,2.6,6.5,4,9.8c0.3,0.8,0.7,1.6,1,2.4c0.1,0.1,0.2,0.2,0.3,0.3c0.9,2,1.7,4.1,2.5,6.2c0.6,1.4,1,2.9,1.4,4.4
	c0.2,0.7,0.2,1.5,0.1,2.3c-0.1,1.2-0.8,1.6-1.9,1.3c-0.8-0.2-1.5-0.6-2.2-1c-1.7-1-3.2-2.3-4.6-3.6c-3.8-3.4-7.7-6.5-12.1-8.9
	c-0.2-0.1-0.4-0.2-0.6-0.4c-4.2-2.6-8.5-5-13.1-6.7c-0.6-0.2-1.3-0.6-1.8-0.9c-0.7-0.4-1.2-1-1.4-1.8c-0.3-1.3-0.4-2.7-0.4-4.1
	c0-0.7,0.4-1.2,1.1-1.4c0.5-0.1,1-0.3,1.5-0.3c1.8-0.1,3.6-0.1,5.3,0.1c1.9,0.2,3.7,0.5,5.6,0.7c2.1,0.2,4.1,0.7,6.1,1.4
	c0.3,0.1,0.7,0.3,1,0.4c0.4,0.1,0.7,0.1,1.1,0.2c0.5,0,0.8-0.3,0.8-0.7c0-0.5,0-1.1-0.1-1.6c-0.2-0.9-0.5-1.8-0.9-2.7
	c-0.4-1-0.8-2.1-1.3-3.2h-1.5c0.1,0.3,0.2,0.7,0.2,1c0.1,0.6,0.2,1.3,0.2,1.9c0,0.8-0.4,1.2-1.1,1.3c-0.3,0.1-0.5,0.1-0.8,0.1
	c-2.3,0-4.7,0-7-0.4c-3.6-0.5-7.2-0.9-10.8-1.2c-1-0.1-2.1-0.1-3.1,0.1c-1.1,0.3-1.9,0.9-2.2,2c-0.1,0.3-0.2,0.5-0.2,0.8
	c-0.1,1-0.2,2.1-0.2,3.1c0,1.5,0.2,3,0.3,4.5c0.1,1.8,0.2,3.6,0.2,5.5c0,2.7-0.4,5.5-0.7,8.2C195.6,188.4,195.6,189.2,195.6,190.1z"
	/>
<path d="M178.5,225.3c0.7-1,1.4-1.9,2.2-2.8c3.4-4.1,6.5-8.5,9.4-13c0.4-0.6,0.7-1.2,1-1.8c0.1-0.2,0.2-0.4-0.1-0.7
	c-0.2,0.1-0.5,0.1-0.7,0.3c-0.6,0.5-1.3,1-1.8,1.6c-1.6,1.8-3.2,3.6-4.8,5.4c-1.5,1.7-3,3.3-4.7,4.8c-1.3,1.2-2.8,2.2-4.4,3
	c-1.4,0.7-2.9,1.1-4.4,1.2c-0.3,0-0.6,0-0.8,0c-0.3,0-0.6,0-1-0.1c-0.6-0.1-1.2-0.1-1.8-0.1c-0.5,0-1.1,0-1.6,0.1
	c-0.1,0-0.3,0.1-0.4,0.1c-1,0.3-2,0.5-3,0.7c-0.9,0.2-1.4,0.5-1.7,1.2v3c0.1,0.4,0.2,0.8,0.3,1.2c0.5,1.4,1.2,2.6,2,3.9
	c0,0,0,0.1,0.1,0.1c0.2,0.2,0.3,0.5,0.5,0.7c0.7,0.8,1.6,1.4,2.7,1.8c0.4,0.1,0.7,0.2,1.1,0.3h7.3c0.8-0.1,1.5-0.3,2.3-0.5
	c3.6-1,7-2.5,10.2-4.4c3.1-1.9,6.2-3.8,9.3-5.9c2-1.4,4-2.9,5.9-4.4c0-0.2,0-0.4,0.1-0.6c-2.1,1.7-4.2,3.4-6.5,4.9s-4.7,3-7,4.5
	c-2.1,1.3-4.3,2.5-6.5,3.5c-2.8,1.2-5.6,2.1-8.7,2.5c-1.6,0.2-3.2,0.2-4.8-0.1c-1.7-0.4-3.2-1.2-4.1-2.8c-0.1-0.1-0.1-0.2-0.2-0.3
	c-0.1-0.2-0.3-0.5-0.4-0.7c-0.2-0.3-0.3-0.6-0.5-0.9c-0.2-0.4-0.4-0.9-0.5-1.4c-0.3-1.3,0.1-2.1,1.4-2.5c0.8-0.2,1.6-0.4,2.4-0.4
	c0.3,0,0.7-0.1,1-0.1c0.3-0.1,0.6-0.1,1-0.2c2.8-0.6,5.4-1.6,7.8-3.1c0.5-0.3,1.1-0.7,1.7-0.9c0.2-0.1,0.4-0.1,0.7-0.1
	c-0.2,0.7-0.5,1.1-0.9,1.5c-0.8,0.9-1.6,1.8-2.3,2.7c-0.4,0.5-0.8,0.9-1,1.5c-0.4,0.9-0.1,1.7,0.8,2.2c0.3,0.1,0.6,0.2,0.9,0.2
	c0.8,0,1.6-0.1,2.3-0.2c1.8-0.3,3.4-1.1,5-1.9c2.5-1.2,4.7-2.8,6.9-4.4c2-1.5,4.1-2.9,6.2-4.3c5.9-4.1,11.4-8.8,16.3-14
	c1.4-1.5,2.8-3.1,4.2-4.7c0.7-1.2,1.8-2.1,3.4-2.4c0.7-0.2,1.4-0.2,2.2-0.3c1.7-0.1,3.4-0.1,5.1,0.1c1.7,0.2,3.4,0.7,4.9,1.6
	c1.4,0.8,2.8,1.7,4.3,2.4c1,0.5,2,1,3.1,1.5c0.3-0.5,0.6-0.9,0.9-1.4c-0.2-0.1-0.5-0.1-0.7-0.2c-1-0.4-2-0.9-2.9-1.5
	c-1.4-0.8-2.8-1.8-4.2-2.6c-1.1-0.7-2.2-1.4-3.4-2.1c-3.5-1.9-7.2-2.6-11.1-2.5c-1.8,0-3.3,0.7-4.5,2c-0.4,0.4-0.8,0.9-1.2,1.3
	c-3.3,3.9-6.7,7.8-10.5,11.3c-1.4,1.3-2.9,2.7-4.3,4.1c-0.7,0.7-1.4,1.5-2.1,2.4c-0.4,0.5-0.7,1-0.8,1.6c-0.2,1.2-0.9,2-1.7,2.7
	c-1.9,1.6-3.8,3.2-5.7,4.7c-1.7,1.4-3.6,2.6-5.5,3.5c-0.9,0.4-1.8,0.7-2.7,1c-0.3,0.1-0.6,0.1-0.9,0.1c-0.8,0-1.3-0.6-1-1.4
	C177.8,226.3,178.1,225.7,178.5,225.3z"/>
</svg>
