<?xml version="1.0" encoding="utf-8"?>
<!-- Generator: Adobe Illustrator 25.3.0, SVG Export Plug-In . SVG Version: 6.00 Build 0)  -->
<svg version="1.1" id="Layer_1" xmlns="http://www.w3.org/2000/svg" xmlns:xlink="http://www.w3.org/1999/xlink" x="0px" y="0px"
	 viewBox="0 0 200 100" style="enable-background:new 0 0 200 100;" xml:space="preserve">
<style type="text/css">
	.st0{fill-rule:evenodd;clip-rule:evenodd;fill:#1A428A;}
	.st1{fill-rule:evenodd;clip-rule:evenodd;fill:#F18A46;}
	.st2{fill-rule:evenodd;clip-rule:evenodd;fill:#FF8300;}
	.st3{fill-rule:evenodd;clip-rule:evenodd;fill:#5F6DB2;}
	.st4{fill:#FF8300;}
	.st5{fill:#1A428A;}
</style>
<g>
	<polygon class="st0" points="60.6,68.3 69.1,42.9 58.3,27.1 	"/>
	<polygon class="st0" points="74.4,50.7 70,44.4 63.8,69.2 	"/>
	<polygon class="st1" points="58.3,27.1 69.1,42.9 70,39.5 57.8,19.3 	"/>
	<polygon class="st0" points="78.6,57.1 75.3,52.1 66.8,70.6 	"/>
	<polygon class="st0" points="90.7,74.9 74.4,81.3 94,79.7 	"/>
	<polygon class="st0" points="89.7,73.4 86.9,69.2 73.2,78.1 	"/>
	<polygon class="st0" points="85.9,67.8 83.1,63.7 71.6,75.2 	"/>
	<polygon class="st0" points="82.2,62.3 79.6,58.4 69.4,72.7 	"/>
	<polygon class="st1" points="70,44.4 74.4,50.7 75.5,48.7 70.9,41 	"/>
	<polygon class="st1" points="75.3,52.1 78.6,57.1 79.8,55.8 76.3,50.1 	"/>
	<polygon class="st1" points="79.6,58.4 82.2,62.3 83.1,61.5 80.5,57 	"/>
	<polygon class="st1" points="83.1,63.7 85.9,67.8 86.6,67.3 84,62.8 	"/>
	<polygon class="st1" points="86.9,69.2 89.7,73.4 90.2,73.2 87.5,68.9 	"/>
	<polygon class="st1" points="90.7,74.9 93.9,79.5 91.1,74.8 	"/>
	<polygon class="st2" points="54.1,68.3 45.6,42.9 56.4,27.1 	"/>
	<polygon class="st2" points="40.3,50.7 44.7,44.4 50.9,69.2 	"/>
	<polygon class="st3" points="56.4,27.1 45.6,42.9 44.6,39.5 56.8,19.3 	"/>
	<polygon class="st2" points="36,57.1 39.3,52.1 47.9,70.6 	"/>
	<polygon class="st2" points="24,74.9 40.3,81.3 20.6,79.7 	"/>
	<polygon class="st2" points="25,73.4 27.7,69.2 41.4,78.1 	"/>
	<polygon class="st2" points="28.8,67.8 31.6,63.7 43.1,75.2 	"/>
	<polygon class="st2" points="32.5,62.3 35.1,58.4 45.3,72.7 	"/>
	<polygon class="st3" points="44.7,44.4 40.3,50.7 39.1,48.7 43.8,41 	"/>
	<polygon class="st3" points="39.3,52.1 36,57.1 34.9,55.8 38.4,50.1 	"/>
	<polygon class="st3" points="35.1,58.4 32.5,62.3 31.5,61.5 34.2,57 	"/>
	<polygon class="st3" points="31.6,63.7 28.8,67.8 28,67.3 30.7,62.8 	"/>
	<polygon class="st3" points="27.7,69.2 25,73.4 24.5,73.2 27.1,68.9 	"/>
	<polygon class="st3" points="24,74.9 20.8,79.5 23.5,74.8 	"/>
	<path class="st4" d="M97.1,77.6h2.6v-6h0c0.8,1.3,2.5,1.9,4,1.9c3.5,0,5.2-3,5.2-6.2c0-3.5-1.8-6.4-5.6-6.4c-1.5,0-3,0.6-3.7,1.9h0
		v-1.6h-2.5C97.1,61.2,97.1,77.6,97.1,77.6z M106.3,67.2c0,2.1-0.9,4.2-3.3,4.2c-2.1,0-3.4-1.8-3.4-4.2c0-2.5,1.1-4.2,3.4-4.2
		C105.2,62.9,106.3,65,106.3,67.2z"/>
	<path class="st4" d="M111.2,73.1h2.6v-5.7c0-2.6,1.4-4.1,3.2-4.1c0.4,0,0.8,0.1,1.1,0.1v-2.5c-0.2,0-0.4-0.1-1-0.1
		c-1.6,0-3.2,1.4-3.5,2.6h0v-2.3h-2.5L111.2,73.1L111.2,73.1z"/>
	<path class="st4" d="M124.4,73.5c3.8,0,6-2.6,6-6.3c0-3.7-2.2-6.3-6-6.3c-3.8,0-6,2.6-6,6.3C118.4,70.8,120.6,73.5,124.4,73.5
		 M124.4,71.4c-2.4,0-3.4-2.2-3.4-4.2c0-2.1,1-4.2,3.4-4.2c2.4,0,3.4,2.2,3.4,4.2C127.8,69.2,126.8,71.4,124.4,71.4z"/>
	<path class="st4" d="M143.3,65.2c-0.3-2.9-2.6-4.3-5.4-4.3c-3.9,0-5.9,2.8-5.9,6.4c0,3.5,2.1,6.2,5.8,6.2c3.1,0,5-1.7,5.5-4.8h-2.6
		c-0.3,1.7-1.3,2.7-2.8,2.7c-2.3,0-3.2-2.1-3.2-4.1c0-3.6,1.9-4.3,3.3-4.3c1.5,0,2.5,0.8,2.7,2.2L143.3,65.2L143.3,65.2z"/>
	<path class="st4" d="M147.6,66.1c0.1-1.8,1.3-3.2,3.1-3.2c1.8,0,2.9,1.5,3,3.2C153.7,66.1,147.6,66.1,147.6,66.1z M156.3,67.8
		c0.4-3.6-1.9-7-5.6-7c-3.6,0-5.8,2.9-5.8,6.3c0,3.7,2.1,6.3,5.9,6.3c2.6,0,4.8-1.5,5.4-4.1h-2.5c-0.5,1.3-1.4,2-2.9,2
		c-2.2,0-3.2-1.7-3.2-3.5L156.3,67.8L156.3,67.8z"/>
	<path class="st4" d="M157.7,69.3c0,2.8,2.3,4.2,5.3,4.2c2.5,0,5.3-1,5.3-3.9c0-2.4-1.9-3.1-3.9-3.5c-1.9-0.4-3.9-0.6-3.9-1.9
		c0-1,1.4-1.2,2.2-1.2c1.2,0,2.2,0.3,2.4,1.6h2.8c-0.3-2.7-2.5-3.7-5-3.7c-2.2,0-5,0.8-5,3.4c0,2.4,1.9,3.1,3.8,3.5
		c1.9,0.4,3.8,0.6,3.9,2c0.1,1.4-1.7,1.6-2.7,1.6c-1.4,0-2.6-0.6-2.7-2.1L157.7,69.3L157.7,69.3z"/>
	<path class="st4" d="M169.7,69.3c0,2.8,2.3,4.2,5.3,4.2c2.5,0,5.3-1,5.3-3.9c0-2.4-1.9-3.1-3.9-3.5c-1.9-0.4-3.9-0.6-3.9-1.9
		c0-1,1.4-1.2,2.2-1.2c1.2,0,2.2,0.3,2.4,1.6h2.8c-0.3-2.7-2.5-3.7-5-3.7c-2.2,0-5,0.8-5,3.4c0,2.4,1.9,3.1,3.8,3.5
		c1.9,0.4,3.8,0.6,3.9,2c0.1,1.4-1.7,1.6-2.7,1.6c-1.4,0-2.6-0.6-2.7-2.1L169.7,69.3L169.7,69.3z"/>
	<path class="st5" d="M121.2,39c-0.5-5.5-5.1-8.7-10.8-8.7c-7.7,0-12.2,6.1-12.2,13.4S102.7,57,110.4,57c6.2,0,10.5-4.2,10.9-10.3
		h-4.4c-0.4,3.7-2.5,6.7-6.5,6.7c-5.5,0-7.8-4.8-7.8-9.7c0-4.9,2.3-9.7,7.8-9.7c3.7,0,5.6,2.1,6.4,5.1H121.2z"/>
	<path class="st5" d="M123.8,47.9c0.1,6.3,4.8,9.1,10.7,9.1c5.1,0,10.2-2.3,10.2-8c0-2.6-1.6-5.5-5-6.5c-1.3-0.4-7-1.9-7.4-2
		c-1.8-0.5-3-1.5-3-3.3c0-2.6,2.6-3.3,4.7-3.3c3.1,0,5.3,1.2,5.5,4.5h4.5c0-5.3-4.5-8.2-9.8-8.2c-4.6,0-9.3,2.4-9.3,7.5
		c0,2.6,1.3,5.3,5.7,6.5c3.5,1,5.8,1.4,7.6,2.1c1,0.4,2.1,1.2,2.1,3.1c0,1.9-1.5,3.9-5.4,3.9c-3.6,0-6.5-1.5-6.5-5.5L123.8,47.9
		L123.8,47.9z"/>
	<polygon class="st5" points="152.7,56.4 157.3,56.4 162.6,36.9 162.6,36.9 167.8,56.4 172.3,56.4 179.4,30.9 174.8,30.9 170,50.4 
		170,50.4 165,30.9 160.4,30.9 155.2,50.4 155.2,50.4 150.5,30.9 146,30.9 	"/>
</g>
</svg>
