<?xml version="1.0" encoding="utf-8"?>
<!-- Generator: Adobe Illustrator 25.3.0, SVG Export Plug-In . SVG Version: 6.00 Build 0)  -->
<svg version="1.1" id="Layer_1" xmlns="http://www.w3.org/2000/svg" xmlns:xlink="http://www.w3.org/1999/xlink" x="0px" y="0px"
	 viewBox="0 0 400 140" style="enable-background:new 0 0 400 140;" xml:space="preserve">
<style type="text/css">
	.st0{fill:#FFFFFF;}
	.st1{fill:#1D1E1C;}
	.st2{fill:#00A0DF;}
</style>
<g>
	<g>
		<g>
			<path class="st0" d="M207.4,37.5c0.6,0,1.1,0.1,1.7,0.1c47.2,0,94.5,0,141.7,0c1.3,0,1.6,0.3,1.6,1.6c-0.1,20.5,0,41,0,61.5
				c0,1.7,0,1.7-1.7,1.7c-47.2,0-94.4,0-141.6,0c-0.6,0-1.1,0.1-1.7,0.1c-0.6,0-1.2-0.1-1.8-0.1c-52.1,0-104.3,0-156.4,0
				c-1.7,0-1.7,0-1.7-1.7c0-20.5,0-41,0-61.5c0-1.3,0.3-1.6,1.6-1.6c52.2,0,104.4,0,156.5,0C206.2,37.6,206.8,37.5,207.4,37.5z
				 M132.9,69.9c0-7.9,0-15.8,0-23.7c0-0.9-0.2-1.3-1.2-1.2c-3.5,0.1-7.1,0.1-10.6,0c-0.8,0-1.1,0.2-1.1,1.1c0,4.7,0,9.3,0,14
				c0,2.7,0,2.6-2.7,2.7c-1,0-1.2-0.3-1.2-1.2c0-5.1,0-10.3,0-15.4c0-0.8-0.2-1.1-1.1-1.1c-3.6,0-7.2,0.1-10.8,0
				c-0.9,0-1.1,0.3-1,1.1c0.1,2.2,0,4.4,0,6.6c0,13.5,0,27.1,0,40.6c0,0.8,0,1.3,1.1,1.3c3.6-0.1,7.2-0.1,10.8,0c0.8,0,1-0.2,1-1
				c0-5.8,0-11.5,0-17.3c0-2.6,0-2.5,2.6-2.6c1.2-0.1,1.4,0.4,1.4,1.5c0,6.1,0,12.2,0,18.3c0,0.9,0.3,1.1,1.2,1.1
				c3.5-0.1,7.1-0.1,10.6,0c0.9,0,1.1-0.3,1.1-1.2C132.9,85.6,132.9,77.8,132.9,69.9z M330.7,66.6c-0.4-0.2-0.4-0.5-0.5-0.7
				c-2.2-6.6-4.3-13.3-6.4-20c-0.2-0.7-0.5-1-1.2-1c-3,0-6,0-9,0c-0.7,0-1,0.2-1,0.9c0,15.9,0,31.8,0,47.6c0,0.8,0.2,1,1,1
				c2.9,0,5.8-0.1,8.7,0c1,0,1.1-0.3,1.1-1.2c0-6.5,0-13,0-19.5c0-0.3,0-0.7,0-1c0.3,0.3,0.4,0.5,0.5,0.8c2,6.6,3.9,13.1,5.9,19.7
				c0.3,0.9,0.6,1.1,1.5,1.1c3-0.1,6-0.1,9,0c0.9,0,1.2-0.2,1.2-1.1c0-15.8,0-31.6,0-47.4c0-1-0.3-1.1-1.2-1.1c-2.7,0-5.5,0.1-8.2,0
				c-1.1,0-1.5,0.2-1.4,1.4c0.1,5.5,0,11,0,16.5C330.7,64.1,330.7,65.3,330.7,66.6z M180.7,72.9c0.4,0.1,0.4,0.4,0.5,0.6
				c2,6.7,4,13.3,5.9,20c0.2,0.8,0.6,1.1,1.4,1.1c3,0,6.1-0.1,9.1,0c0.9,0,1.1-0.3,1.1-1.2c0-15.8,0-31.6,0-47.4
				c0-0.9-0.2-1.1-1.1-1.1c-2.9,0-5.7,0.1-8.6,0c-1,0-1.2,0.3-1.2,1.3c0,5.3,0,10.6,0,15.8c0,1.5,0,3,0,4.5
				c-0.4-0.4-0.5-0.8-0.7-1.2c-2.1-6.4-4.1-12.7-6.1-19.1c-0.3-1-0.8-1.2-1.7-1.2c-2.8,0.1-5.6,0-8.4,0c-0.8,0-1,0.2-1,1
				c0,15.9,0,31.7,0,47.6c0,0.8,0.2,1,1,1c2.9,0,5.8-0.1,8.7,0c0.9,0,1.1-0.3,1.1-1.1c0-3.7,0-7.4,0-11
				C180.7,79.3,180.7,76.1,180.7,72.9z M221.9,66.6c-0.4-0.2-0.4-0.6-0.5-0.8c-2.1-6.6-4.3-13.2-6.4-19.8c-0.2-0.8-0.6-1-1.4-1
				c-2.9,0-5.8,0-8.7,0c-0.8,0-1.1,0.2-1.1,1.1c0,15.8,0,31.7,0,47.5c0,1,0.4,1,1.1,1c2.8,0,5.6-0.1,8.4,0c1,0,1.3-0.2,1.3-1.2
				c-0.1-4.9,0-9.9,0-14.8c0-1.9,0-3.8,0-5.6c0.3,0.3,0.4,0.7,0.5,1c1.9,6.5,3.9,12.9,5.7,19.4c0.3,1,0.7,1.3,1.8,1.3
				c2.9-0.1,5.7-0.1,8.6,0c1,0,1.4-0.1,1.4-1.3c-0.1-2,0-4,0-6c0-13.7,0-27.3,0-41c0-1.1-0.3-1.4-1.4-1.3c-2.7,0.1-5.5,0.1-8.2,0
				c-1.1,0-1.3,0.3-1.3,1.3C221.9,53,221.9,59.8,221.9,66.6z M250.8,45c-2.8,0-5.6,0-8.4,0c-0.7,0-0.9,0.2-1,0.9
				c-0.6,4.7-1.2,9.4-1.9,14.1c-1.5,11.2-3,22.5-4.5,33.7c-0.1,0.7,0.1,0.9,0.8,0.9c3.9,0,7.7,0,11.6,0c0.8,0,1-0.3,1-1
				c0.1-1.5,0.2-2.9,0.3-4.4c0.2-3.5,0.2-3.5,3.7-3.5c0.1,0,0.2,0,0.3,0c0.7-0.1,1,0.1,1,0.9c0.1,2.3,0.4,4.7,0.5,7
				c0,0.8,0.3,1.1,1.2,1.1c3.6,0,7.3-0.1,10.9,0c1,0,1.4-0.2,1.1-1.2c-0.1-0.2-0.1-0.4-0.1-0.6c-1.2-7.9-2.4-15.8-3.6-23.7
				c-1.1-7.7-2.3-15.3-3.4-23c-0.1-0.8-0.4-1.1-1.3-1.1C256.3,45,253.6,45,250.8,45z M151.1,45c-2.7,0-5.4,0-8.2,0
				c-0.9,0-1.3,0.3-1.3,1.2c-0.2,1.9-0.4,3.8-0.7,5.7c-1.9,13.9-3.7,27.8-5.6,41.7c-0.1,0.8,0,1,0.9,1c3.8,0,7.6-0.1,11.4,0
				c0.8,0,1-0.3,1.1-1c0.1-1.7,0.2-3.4,0.4-5c0.2-2.9,0.2-2.9,3-2.9c0.3,0,0.7,0,1,0c0.7-0.1,0.9,0.2,0.9,0.9
				c0.1,2.2,0.4,4.4,0.5,6.6c0,1.1,0.3,1.5,1.6,1.5c3.5-0.1,6.9-0.1,10.4,0c1.3,0,1.4-0.4,1.2-1.5c-1.2-7.9-2.4-15.8-3.6-23.7
				c-1.2-7.7-2.3-15.5-3.4-23.2c-0.1-1-0.5-1.2-1.5-1.2C156.4,45,153.8,45,151.1,45z M269.7,69.8c0,7.9,0,15.8,0,23.6
				c0,0.9,0.2,1.2,1.1,1.2c3.5-0.1,7-0.1,10.5,0c1.1,0,1.3-0.4,1.3-1.4c0-6.1,0-12.2,0-18.3c0-0.9,0.2-1.2,1.2-1.2c2,0.1,4,0,6,0
				c0.7,0,0.9-0.2,0.9-0.9c0-2.6,0-5.1,0-7.7c0-0.8-0.2-0.9-0.9-0.9c-2,0-4.1,0-6.1,0c-0.7,0-1-0.2-1-0.9c0-2.5,0.1-5,0-7.5
				c0-0.9,0.3-1,1.1-1c2.2,0,4.4,0,6.6,0c1,0,1.4-0.1,1.3-1.2c-0.1-2.5-0.1-5,0-7.5c0-1-0.2-1.2-1.2-1.2c-6.5,0-13,0-19.5,0
				c-1,0-1.2,0.2-1.2,1.2C269.7,54,269.7,61.9,269.7,69.8z M62.8,43.3c0,17.8,0,35.4,0,53c0.2-0.2,0.4-0.3,0.5-0.4
				c8.5-8.5,17-17,25.5-25.5c0.8-0.8,0.1-1-0.2-1.4c-4.6-4.6-9.2-9.2-13.8-13.8C70.9,51.4,67,47.5,62.8,43.3z M307.5,69.8
				c0-7.9,0-15.7,0-23.6c0-0.9-0.2-1.2-1.1-1.2c-3.6,0.1-7.2,0-10.8,0c-0.9,0-1,0.3-1,1.1c0,15.8,0,31.7,0,47.5c0,0.9,0.3,1,1.1,1
				c3.5,0,7.1-0.1,10.6,0c1,0,1.2-0.3,1.2-1.2C307.5,85.5,307.5,77.6,307.5,69.8z"/>
			<path class="st1" d="M132.9,69.9c0,7.8,0,15.7,0,23.5c0,0.9-0.2,1.2-1.1,1.2c-3.5-0.1-7.1-0.1-10.6,0c-0.9,0-1.2-0.2-1.2-1.1
				c0-6.1,0-12.2,0-18.3c0-1.1-0.2-1.5-1.4-1.5c-2.6,0.1-2.6,0-2.6,2.6c0,5.8,0,11.5,0,17.3c0,0.8-0.2,1-1,1c-3.6,0-7.2-0.1-10.8,0
				c-1.1,0-1.1-0.5-1.1-1.3c0-13.5,0-27.1,0-40.6c0-2.2,0-4.4,0-6.6c0-0.8,0.1-1.1,1-1.1c3.6,0.1,7.2,0,10.8,0
				c0.9,0,1.1,0.3,1.1,1.1c0,5.1,0,10.3,0,15.4c0,1,0.2,1.2,1.2,1.2c2.7-0.1,2.7,0,2.7-2.7c0-4.7,0-9.3,0-14c0-0.9,0.2-1.1,1.1-1.1
				c3.5,0,7.1,0.1,10.6,0c1,0,1.2,0.3,1.2,1.2C132.9,54.1,132.9,62,132.9,69.9z"/>
			<path class="st1" d="M330.7,66.6c0-1.3,0-2.5,0-3.7c0-5.5,0-11,0-16.5c0-1.2,0.4-1.4,1.4-1.4c2.7,0.1,5.5,0.1,8.2,0
				c0.9,0,1.2,0.2,1.2,1.1c0,15.8,0,31.6,0,47.4c0,1-0.3,1.1-1.2,1.1c-3-0.1-6-0.1-9,0c-0.9,0-1.3-0.3-1.5-1.1
				c-1.9-6.6-3.9-13.2-5.9-19.7c-0.1-0.3-0.2-0.6-0.5-0.8c0,0.3,0,0.7,0,1c0,6.5,0,13,0,19.5c0,0.9-0.2,1.2-1.1,1.2
				c-2.9-0.1-5.8-0.1-8.7,0c-0.8,0-1-0.2-1-1c0-15.9,0-31.8,0-47.6c0-0.8,0.2-1,1-0.9c3,0,6,0,9,0c0.8,0,1,0.3,1.2,1
				c2.1,6.7,4.3,13.3,6.4,20C330.3,66.1,330.3,66.4,330.7,66.6z"/>
			<path class="st1" d="M180.7,72.9c0,3.2,0,6.4,0,9.6c0,3.7,0,7.4,0,11c0,0.8-0.2,1.1-1.1,1.1c-2.9-0.1-5.8-0.1-8.7,0
				c-0.8,0-1-0.2-1-1c0-15.9,0-31.7,0-47.6c0-0.8,0.2-1,1-1c2.8,0,5.6,0.1,8.4,0c1,0,1.4,0.3,1.7,1.2c2,6.4,4.1,12.7,6.1,19.1
				c0.1,0.4,0.3,0.8,0.7,1.2c0-1.5,0-3,0-4.5c0-5.3,0-10.6,0-15.8c0-0.9,0.1-1.3,1.2-1.3c2.9,0.1,5.7,0.1,8.6,0
				c0.8,0,1.1,0.2,1.1,1.1c0,15.8,0,31.6,0,47.4c0,0.9-0.2,1.2-1.1,1.2c-3-0.1-6.1,0-9.1,0c-0.8,0-1.2-0.2-1.4-1.1
				c-1.9-6.7-3.9-13.3-5.9-20C181.1,73.3,181.1,73,180.7,72.9z"/>
			<path class="st1" d="M221.9,66.6c0-6.9,0-13.6,0-20.4c0-1,0.2-1.3,1.3-1.3c2.7,0.1,5.5,0.1,8.2,0c1.1,0,1.4,0.3,1.4,1.3
				c0,13.7,0,27.3,0,41c0,2-0.1,4,0,6c0.1,1.2-0.4,1.3-1.4,1.3c-2.9-0.1-5.7-0.1-8.6,0c-1.1,0-1.5-0.3-1.8-1.3
				c-1.9-6.5-3.8-12.9-5.7-19.4c-0.1-0.4-0.2-0.7-0.5-1c0,1.9,0,3.8,0,5.6c0,4.9,0,9.9,0,14.8c0,1.1-0.3,1.3-1.3,1.2
				c-2.8-0.1-5.6,0-8.4,0c-0.8,0-1.1-0.1-1.1-1c0-15.8,0-31.7,0-47.5c0-0.9,0.3-1.1,1.1-1.1c2.9,0,5.8,0,8.7,0c0.8,0,1.1,0.2,1.4,1
				c2.1,6.6,4.3,13.2,6.4,19.8C221.5,66.1,221.5,66.4,221.9,66.6z"/>
			<path class="st1" d="M250.8,45c2.7,0,5.5,0,8.2,0c0.9,0,1.2,0.3,1.3,1.1c1.1,7.7,2.3,15.3,3.4,23c1.2,7.9,2.4,15.8,3.6,23.7
				c0,0.2,0,0.4,0.1,0.6c0.3,1-0.1,1.2-1.1,1.2c-3.6-0.1-7.3-0.1-10.9,0c-0.8,0-1.1-0.2-1.2-1.1c-0.1-2.3-0.4-4.7-0.5-7
				c0-0.8-0.3-1-1-0.9c-0.1,0-0.2,0-0.3,0c-3.5,0-3.5,0-3.7,3.5c-0.1,1.5-0.3,2.9-0.3,4.4c0,0.7-0.2,1-1,1c-3.9,0-7.7,0-11.6,0
				c-0.7,0-0.9-0.1-0.8-0.9c1.5-11.2,3-22.4,4.5-33.7c0.6-4.7,1.3-9.4,1.9-14.1c0.1-0.7,0.3-0.9,1-0.9C245.2,45,248,45,250.8,45z
				 M251.5,58.2c-0.4,0-0.4,0.2-0.5,0.4c-0.6,5.1-1.2,10.1-1.8,15.2c-0.1,1-0.8,2.5,0,3c0.7,0.5,2.1,0.1,3.2,0.1
				c0.7,0,0.9-0.1,0.8-0.9c-0.4-4.1-0.8-8.2-1.2-12.3C251.8,61.9,251.7,60,251.5,58.2z"/>
			<path class="st1" d="M151.1,45c2.7,0,5.4,0,8,0c0.9,0,1.3,0.2,1.5,1.2c1.1,7.7,2.3,15.5,3.4,23.2c1.2,7.9,2.3,15.8,3.6,23.7
				c0.2,1.1,0.1,1.6-1.2,1.5c-3.5-0.1-6.9-0.1-10.4,0c-1.2,0-1.5-0.4-1.6-1.5c-0.1-2.2-0.3-4.4-0.5-6.6c0-0.7-0.2-0.9-0.9-0.9
				c-0.3,0-0.7,0-1,0c-2.8,0-2.8,0-3,2.9c-0.1,1.7-0.3,3.4-0.4,5c0,0.7-0.2,1-1.1,1c-3.8-0.1-7.6,0-11.4,0c-0.9,0-1-0.2-0.9-1
				c1.9-13.9,3.7-27.8,5.6-41.7c0.3-1.9,0.5-3.8,0.7-5.7c0.1-0.9,0.4-1.2,1.3-1.2C145.6,45,148.3,45,151.1,45z M151.7,57
				c-0.2,0.2-0.3,0.3-0.3,0.3c-0.6,5.4-1.3,10.8-1.9,16.2c-0.1,1.1-0.7,2.4-0.1,3.1c0.6,0.7,2,0.1,3.1,0.2c0.9,0.1,1.1-0.3,1-1.1
				c-0.5-5.1-1-10.1-1.5-15.2C151.9,59.5,151.8,58.3,151.7,57z"/>
			<path class="st1" d="M269.7,69.8c0-7.9,0-15.8,0-23.6c0-1,0.3-1.2,1.2-1.2c6.5,0,13,0,19.5,0c1,0,1.2,0.3,1.2,1.2
				c-0.1,2.5-0.1,5,0,7.5c0,1.1-0.4,1.3-1.3,1.2c-2.2-0.1-4.4,0-6.6,0c-0.7,0-1.1,0.1-1.1,1c0.1,2.5,0,5,0,7.5c0,0.7,0.2,1,1,0.9
				c2,0,4.1,0,6.1,0c0.7,0,1,0.2,0.9,0.9c0,2.6,0,5.1,0,7.7c0,0.7-0.2,0.9-0.9,0.9c-2,0-4,0-6,0c-0.9,0-1.2,0.3-1.2,1.2
				c0,6.1,0,12.2,0,18.3c0,1-0.2,1.4-1.3,1.4c-3.5-0.1-7-0.1-10.5,0c-1,0-1.1-0.3-1.1-1.2C269.7,85.6,269.7,77.7,269.7,69.8z"/>
			<path class="st2" d="M62.8,43.3c4.1,4.1,8.1,8.1,12,12c4.6,4.6,9.2,9.2,13.8,13.8c0.4,0.4,1,0.6,0.2,1.4
				c-8.5,8.5-17,17-25.5,25.5c-0.1,0.1-0.2,0.2-0.5,0.4C62.8,78.7,62.8,61.2,62.8,43.3z"/>
			<path class="st1" d="M307.5,69.8c0,7.9,0,15.7,0,23.6c0,1-0.2,1.2-1.2,1.2c-3.5-0.1-7.1,0-10.6,0c-0.8,0-1.1-0.1-1.1-1
				c0-15.8,0-31.7,0-47.5c0-0.8,0.2-1.1,1-1.1c3.6,0,7.2,0.1,10.8,0c0.9,0,1.1,0.3,1.1,1.2C307.5,54,307.5,61.9,307.5,69.8z"/>
			<path class="st0" d="M251.5,58.2c0.2,1.8,0.3,3.7,0.5,5.5c0.4,4.1,0.7,8.2,1.2,12.3c0.1,0.8-0.1,1-0.8,0.9
				c-1.1-0.1-2.5,0.4-3.2-0.1c-0.7-0.6-0.1-2,0-3c0.6-5.1,1.2-10.1,1.8-15.2C251.1,58.4,251.1,58.2,251.5,58.2z"/>
			<path class="st0" d="M151.7,57c0.1,1.3,0.2,2.4,0.3,3.6c0.5,5.1,0.9,10.1,1.5,15.2c0.1,0.8-0.1,1.2-1,1.1
				c-1.1-0.1-2.5,0.5-3.1-0.2s0-2,0.1-3.1c0.6-5.4,1.3-10.8,1.9-16.2C151.4,57.3,151.5,57.3,151.7,57z"/>
		</g>
	</g>
</g>
</svg>
