<?xml version="1.0" encoding="utf-8"?>
<!-- Generator: Adobe Illustrator 25.3.0, SVG Export Plug-In . SVG Version: 6.00 Build 0)  -->
<svg version="1.1" id="Layer_1" xmlns="http://www.w3.org/2000/svg" xmlns:xlink="http://www.w3.org/1999/xlink" x="0px" y="0px"
	 viewBox="0 0 200 100" style="enable-background:new 0 0 200 100;" xml:space="preserve">
<style type="text/css">
	.st0{fill-rule:evenodd;clip-rule:evenodd;fill:#1A428A;stroke:#1D1E1C;stroke-width:0.5141;stroke-miterlimit:22.9256;}
	.st1{fill-rule:evenodd;clip-rule:evenodd;fill:#0065A1;}
	.st2{fill:#1D1E1C;}
	.st3{fill:#C8C8C8;}
</style>
<g>
	<path class="st0" d="M100.2,21.6c47,0.4,85,13.4,84.9,29.1c-0.1,15.7-38.4,28.1-85.4,27.7S14.7,65,14.8,49.3
		C15,33.6,53.2,21.2,100.2,21.6L100.2,21.6z"/>
	<path class="st1" d="M100.2,24.1c44.5,0.4,80.6,12.1,80.5,26.3c-0.1,14.1-36.3,25.3-80.9,24.9S19.2,63.2,19.3,49
		C19.5,34.9,55.7,23.8,100.2,24.1L100.2,24.1z"/>
	<g>
		<g>
			<path class="st2" d="M36.3,41.4c1.2,0,2.4,0.2,3.4,0.7c0.1,0,0.1,0.1,0.1,0.1v3.3c0,0.1,0,0.1-0.1,0.1h-0.8c-0.1,0-0.1,0-0.1-0.1
				l-0.4-2.1c0-0.1,0-0.1-0.1-0.2c-0.7-0.4-1.4-0.6-2-0.6c-1.1,0-2,0.5-2.7,1.5c-0.6,0.9-0.9,2-0.9,3.2c0,1.6,0.3,2.9,0.9,3.9
				c0.7,1.1,1.8,1.7,3.2,1.7c1,0,2-0.3,3-1c0.1,0,0.1,0,0.1,0s0,0,0.1,0.1l0.4,0.7c0,0.1,0,0.1-0.1,0.2c-1.5,1.1-3,1.6-4.4,1.6
				c-1.7,0-3-0.6-4-1.7c-1-1.1-1.5-2.6-1.5-4.4c0-1.9,0.6-3.6,1.7-4.9C33,42,34.5,41.4,36.3,41.4z"/>
			<path class="st2" d="M48.3,52.9c-1.1,1.1-2.3,1.6-3.6,1.6s-2.2-0.6-2.7-1.8c-0.2-0.4-0.2-0.8-0.2-1.2c0-1.6,0.8-2.7,2.2-3.4
				c0.4-0.2,0.9-0.4,1.4-0.5c1-0.2,2-0.4,2.8-0.4V45c0-1.5-0.6-2.2-2-2.2c-0.8,0-1.4,0.1-2,0.4c-0.1,0-0.1,0.1-0.1,0.2l-0.4,2.1
				c0,0.1,0,0.1-0.1,0.1h-0.8c-0.1,0-0.1,0-0.1-0.1v-3.1c0-0.1,0-0.1,0.1-0.1c1.4-0.5,2.7-0.8,3.9-0.8c1.8,0,2.9,0.6,3.4,1.7
				c0.2,0.4,0.3,1,0.3,1.6l-0.1,7.6c0,0.1,0,0.1,0.1,0.2l1.7,0.5c0.1,0.1,0.1,0.1,0.1,0.1v0.5c0,0.1-0.1,0.2-0.1,0.2l-3.5,0.5
				c-0.1,0-0.1,0-0.1-0.1L48.3,52.9z M48.2,48.3c-0.9,0-1.6,0.1-2,0.3c-0.1,0-0.3,0.1-0.6,0.2c-0.9,0.3-1.4,1-1.4,2.2
				s0.5,1.8,1.7,1.8c0.3,0,0.7-0.1,1.2-0.3c0.2-0.1,0.6-0.3,1-0.5c0.1-0.1,0.1-0.1,0.1-0.2V48.3z"/>
			<path class="st2" d="M61,41.6c0.3,0,0.6,0.1,1,0.3s0.7,0.4,0.9,0.6c0,0,0,0.1,0.1,0.1c0,0.1,0,0.1,0,0.1l-1.3,2
				c-0.1,0.1-0.1,0.1-0.1,0.1s0,0-0.1,0c-0.4-0.4-0.8-0.6-1.3-0.6c-0.6,0-1.1,0.3-1.5,0.8l-0.8,1c-0.1,0.1-0.1,0.2-0.1,0.3L57.7,53
				c0,0.1,0,0.1,0.1,0.1l2.2,0.2c0.1,0,0.1,0.1,0.1,0.2v0.7c0,0.1,0,0.1-0.1,0.1l-6.5-0.1c-0.1,0-0.1,0-0.1-0.1v-0.7
				c0-0.1,0-0.2,0.1-0.2l1.8-0.2c0.1,0,0.1,0,0.1-0.1l0.1-9.3c0-0.1,0-0.1-0.1-0.1l-1.9-0.3c-0.1,0-0.1,0-0.1-0.1v-0.6
				c0-0.1,0-0.1,0.1-0.1l3.2-0.5c0.1,0,0.1,0,0.2,0h0.7c0.1,0,0.1,0,0.1,0.1v2.6l1.4-1.7C59.7,41.9,60.4,41.6,61,41.6z"/>
			<path class="st2" d="M65.6,36.2C65.6,36.1,65.6,36.1,65.6,36.2l-2.2-0.4c-0.1,0-0.1,0-0.1-0.1v-0.6c0-0.1,0.1-0.1,0.1-0.1
				l3.3-0.5c0.1,0,0.1,0,0.1,0h0.8c0.1,0,0.1,0,0.1,0.1L67.6,53c0,0.1,0,0.1,0.1,0.1l2.1,0.2c0.1,0,0.1,0.1,0.1,0.2v0.7
				c0,0.1,0,0.1-0.1,0.1l-6.5-0.1c-0.1,0-0.1,0-0.1-0.1v-0.7c0-0.1,0-0.2,0.1-0.2l2.1-0.2c0.1,0,0.1,0,0.1-0.1L65.6,36.2z"/>
			<path class="st2" d="M72.3,43.6C72.3,43.5,72.3,43.5,72.3,43.6l-1.6-0.1c-0.1,0-0.1,0-0.1-0.1v-0.1c0-0.1,0-0.1,0.1-0.2l3.4-3.6
				c0.1-0.1,0.1-0.1,0.2-0.1h0.1c0.1,0,0.1,0.1,0.1,0.2v2.6c0,0.1,0,0.1,0.1,0.1h3.5c0.1,0,0.1,0.1,0.1,0.2v1c0,0.1,0,0.2-0.1,0.2
				h-3.5c-0.1,0-0.1,0-0.1,0.1l-0.1,7.5c0,1.4,0.5,2,1.7,2c0.8,0,1.5-0.2,2-0.7h0.1h0.1l0.3,0.7c0,0.1,0,0.1-0.1,0.2
				c-0.7,0.5-1.3,0.8-1.8,1c-0.7,0.2-1.3,0.3-2,0.3s-1.3-0.3-1.8-0.7c-0.5-0.5-0.7-1.1-0.7-1.9L72.3,43.6z"/>
			<path class="st2" d="M85.7,41.8c1.8,0,3.3,0.6,4.3,1.8c1,1.1,1.5,2.7,1.4,4.7c0,1.9-0.6,3.5-1.6,4.7c-1.1,1.3-2.5,1.9-4.3,1.9
				s-3.2-0.6-4.3-1.8c-1-1.1-1.5-2.7-1.5-4.7s0.6-3.5,1.6-4.7C82.5,42.4,83.9,41.8,85.7,41.8z M85.4,43c-1.1,0-2,0.5-2.5,1.5
				c-0.4,0.8-0.7,1.9-0.7,3.2c0,2.6,0.6,4.4,1.9,5.4c0.5,0.3,1.1,0.5,1.7,0.5c2.1,0,3.2-1.6,3.2-4.8c0-1.6-0.2-2.9-0.7-3.9
				C87.7,43.7,86.7,43,85.4,43z"/>
			<path class="st2" d="M96.3,42c0.1,0,0.1,0,0.2,0h0.7c0.1,0,0.1,0,0.1,0.1v1.2c0.8-0.7,1.8-1.1,2.9-1.4c0.4-0.1,0.7-0.1,1.2-0.1
				c2.3,0,3.4,1.4,3.4,4.1l-0.1,7.3c0,0.1,0,0.1,0.1,0.1l1.7,0.2c0.1,0,0.1,0.1,0.1,0.2v0.7c0,0.1,0,0.1-0.1,0.1h-5.7
				c-0.1,0-0.1,0-0.1-0.1v-0.7c0-0.1,0-0.2,0.1-0.2l1.7-0.2c0.1,0,0.1,0,0.1-0.1l0.1-6.5c0-1-0.2-1.8-0.5-2.2
				c-0.4-0.5-1-0.8-1.9-0.8c-1,0-1.9,0.2-2.7,0.6c-0.1,0-0.1,0.1-0.1,0.1l-0.1,8.8c0,0.1,0,0.1,0.1,0.1l1.7,0.2
				c0.1,0,0.1,0.1,0.1,0.2v0.7c0,0.1,0,0.1-0.1,0.1h-5.9c-0.1,0-0.1,0-0.1-0.1v-0.7c0-0.1,0-0.2,0.1-0.2l1.8-0.2
				c0.1,0,0.1,0,0.1-0.1l0.1-9.3c0-0.1,0-0.1-0.1-0.1l-1.9-0.3c-0.1,0-0.1,0-0.1-0.1v-0.6c0-0.1,0-0.1,0.1-0.1L96.3,42z"/>
		</g>
		<g>
			<path class="st2" d="M116.6,36.6c0-0.1,0-0.1-0.1-0.1l-2.1-0.3c-0.1,0-0.1,0-0.1-0.1v-0.6c0-0.1,0.1-0.1,0.1-0.1l3.3-0.5
				c0.1,0,0.1,0,0.1,0h0.8c0.1,0,0.1,0,0.1,0.1l-0.2,18.5c0,0.1,0,0.1,0.1,0.1l2.1,0.2c0.1,0,0.1,0.1,0.1,0.2v0.7
				c0,0.1,0,0.1-0.1,0.1l-6.5-0.1c-0.1,0-0.1,0-0.1-0.1v-0.7c0-0.1,0-0.2,0.1-0.2l2.1-0.2c0.1,0,0.1,0,0.1-0.1L116.6,36.6z"/>
			<path class="st2" d="M128.5,53.6c-1.1,1.1-2.3,1.6-3.6,1.6c-1.3,0-2.2-0.6-2.7-1.8c-0.2-0.4-0.2-0.8-0.2-1.2
				c0-1.6,0.8-2.7,2.2-3.4c0.4-0.2,0.9-0.4,1.4-0.5c1-0.2,2-0.4,2.8-0.4v-2.2c0-1.5-0.6-2.2-2-2.2c-0.8,0-1.4,0.1-2,0.4
				c-0.1,0-0.1,0.1-0.1,0.2l-0.4,2.1c0,0.1,0,0.1-0.1,0.1H123c-0.1,0-0.1,0-0.1-0.1v-3.1c0-0.1,0-0.1,0.1-0.1
				c1.4-0.5,2.7-0.8,3.9-0.8c1.8,0,2.9,0.6,3.4,1.7c0.2,0.4,0.3,1,0.3,1.6l-0.1,7.6c0,0.1,0,0.1,0.1,0.2l1.7,0.5
				c0.1,0.1,0.1,0.1,0.1,0.1v0.5c0,0.1-0.1,0.2-0.1,0.2l-3.5,0.5c-0.1,0-0.1,0-0.1-0.1L128.5,53.6z M128.4,48.9
				c-0.9,0-1.6,0.1-2,0.3c-0.1,0-0.3,0.1-0.6,0.2c-0.9,0.3-1.4,1-1.4,2.2s0.5,1.8,1.7,1.8c0.3,0,0.7-0.1,1.2-0.3
				c0.2-0.1,0.6-0.3,1-0.5c0.1-0.1,0.1-0.1,0.1-0.2V48.9z"/>
			<path class="st2" d="M136.9,42.4c0.1,0,0.1,0,0.2,0h0.7c0.1,0,0.1,0,0.1,0.1v1.2c0.8-0.7,1.8-1.1,2.9-1.4
				c0.4-0.1,0.7-0.1,1.2-0.1c2.3,0,3.4,1.4,3.4,4.1l-0.1,7.3c0,0.1,0,0.1,0.1,0.1l1.7,0.2c0.1,0,0.1,0.1,0.1,0.2v0.7
				c0,0.1,0,0.1-0.1,0.1h-5.7c-0.1,0-0.1,0-0.1-0.1v-0.7c0-0.1,0-0.2,0.1-0.2l1.7-0.2c0.1,0,0.1,0,0.1-0.1l0.1-6.5
				c0-1-0.2-1.8-0.5-2.2c-0.4-0.5-1-0.8-1.9-0.8c-1,0-1.9,0.2-2.7,0.6c-0.1,0-0.1,0.1-0.1,0.1l-0.1,8.8c0,0.1,0,0.1,0.1,0.1l1.7,0.2
				c0.1,0,0.1,0.1,0.1,0.2v0.7c0,0.1,0,0.1-0.1,0.1h-5.9c-0.1,0-0.1,0-0.1-0.1v-0.7c0-0.1,0-0.2,0.1-0.2l1.8-0.2
				c0.1,0,0.1,0,0.1-0.1l0.1-9.3c0-0.1,0-0.1-0.1-0.1l-1.9-0.3c-0.1,0-0.1,0-0.1-0.1v-0.6c0-0.1,0-0.1,0.1-0.1L136.9,42.4z"/>
			<path class="st2" d="M150.9,48.6c0,1.5,0.3,2.8,1,3.7c0.7,1,1.8,1.6,3.1,1.6c1.1,0,2.1-0.3,3.1-0.9h0.1c0,0,0,0.1,0.1,0.1
				l0.4,0.7c0,0.1,0,0.1-0.1,0.2c-1.5,1.1-3,1.6-4.6,1.6c-1.7,0-3.1-0.6-4-1.7c-1-1.1-1.4-2.6-1.4-4.4c0-1.9,0.5-3.5,1.5-4.8
				c1-1.4,2.4-2.1,4.1-2.1c1.5,0,2.7,0.5,3.4,1.4c0.8,0.9,1.1,2.2,1.1,3.8c0,0.3,0,0.6-0.1,0.9c0,0.1,0,0.1-0.1,0.1L150.9,48.6z
				 M153.9,43.6c-1.4,0-2.3,0.8-2.7,2.4c-0.1,0.5-0.2,1-0.2,1.4h5.4C156.4,44.9,155.6,43.6,153.9,43.6z"/>
			<path class="st2" d="M166.9,46.4c-0.1,0-0.1-0.1-0.1-0.1l-0.4-2.2c0-0.1,0-0.1-0.1-0.2c-0.4-0.2-0.9-0.3-1.4-0.3
				c-0.9,0-1.6,0.3-1.9,1c-0.1,0.2-0.2,0.5-0.2,0.8c0,0.9,0.6,1.6,1.9,2.1l1.1,0.5c1.9,0.9,2.9,2,2.9,3.5c0,1.3-0.5,2.3-1.5,3
				c-0.9,0.7-1.9,1-3.1,1c-0.9,0-1.9-0.2-3.1-0.7c-0.1,0-0.1-0.1-0.1-0.2v-3.3c0-0.1,0-0.1,0.1-0.1h0.8c0.1,0,0.1,0,0.1,0.1l0.4,2.3
				c0,0,0,0.1,0.1,0.2c0.6,0.3,1.2,0.5,1.9,0.5c1.5,0,2.3-0.7,2.3-2c0-0.8-0.4-1.4-1.1-1.8c-0.1-0.1-0.4-0.2-0.7-0.4l-1.2-0.5
				c-1.8-0.8-2.8-2-2.8-3.6c0-1.1,0.5-2,1.4-2.7c0.8-0.6,1.8-0.9,2.9-0.9c0.9,0,1.8,0.2,2.8,0.5c0.1,0,0.1,0.1,0.1,0.2v3.2
				c0,0.1,0,0.1-0.1,0.1L166.9,46.4z"/>
		</g>
		<g>
			<path class="st3" d="M37.2,41.4c1.2,0,2.4,0.2,3.4,0.7c0.1,0,0.1,0.1,0.1,0.1v3.3c0,0.1,0,0.1-0.1,0.1h-0.8c-0.1,0-0.1,0-0.1-0.1
				l-0.4-2.1c0-0.1,0-0.1-0.1-0.2c-0.7-0.4-1.4-0.6-2-0.6c-1.1,0-2,0.5-2.7,1.5c-0.6,0.9-0.9,2-0.9,3.2c0,1.6,0.3,2.9,0.9,3.9
				c0.7,1.1,1.8,1.7,3.2,1.7c1,0,2-0.3,3-1c0.1,0,0.1,0,0.1,0s0,0,0.1,0.1l0.4,0.7c0,0.1,0,0.1-0.1,0.2c-1.5,1.1-3,1.6-4.4,1.6
				c-1.7,0-3-0.6-4-1.7c-1-1.1-1.5-2.6-1.5-4.4c0-1.9,0.6-3.6,1.7-4.9C34,42,35.5,41.4,37.2,41.4z"/>
			<path class="st3" d="M49.3,52.9c-1.1,1.1-2.3,1.6-3.6,1.6s-2.2-0.6-2.7-1.8c-0.2-0.4-0.2-0.8-0.2-1.2c0-1.6,0.8-2.7,2.2-3.4
				c0.4-0.2,0.9-0.4,1.4-0.5c1-0.2,2-0.4,2.8-0.4V45c0-1.5-0.6-2.2-2-2.2c-0.8,0-1.4,0.1-2,0.4c-0.1,0-0.1,0.1-0.1,0.2l-0.4,2.1
				c0,0.1,0,0.1-0.1,0.1h-0.8c-0.1,0-0.1,0-0.1-0.1v-3.1c0-0.1,0-0.1,0.1-0.1c1.4-0.5,2.7-0.8,3.9-0.8c1.8,0,2.9,0.6,3.4,1.7
				c0.2,0.4,0.3,1,0.3,1.6l-0.1,7.6c0,0.1,0,0.1,0.1,0.2l1.7,0.5c0.1,0.1,0.1,0.1,0.1,0.1v0.5c0,0.1-0.1,0.2-0.1,0.2l-3.5,0.5
				c-0.1,0-0.1,0-0.1-0.1L49.3,52.9z M49.2,48.3c-0.9,0-1.6,0.1-2,0.3c-0.1,0-0.3,0.1-0.6,0.2c-0.9,0.3-1.4,1-1.4,2.2
				s0.5,1.8,1.7,1.8c0.3,0,0.7-0.1,1.2-0.3c0.2-0.1,0.6-0.3,1-0.5c0.1-0.1,0.1-0.1,0.1-0.2V48.3z"/>
			<path class="st3" d="M62,41.6c0.3,0,0.6,0.1,1,0.3s0.7,0.4,0.9,0.6c0,0,0,0.1,0.1,0.1c0,0.1,0,0.1,0,0.1l-1.3,2
				c-0.1,0.1-0.1,0.1-0.1,0.1s0,0-0.1,0c-0.4-0.4-0.8-0.6-1.3-0.6c-0.6,0-1.1,0.3-1.5,0.8l-0.8,1c-0.1,0.1-0.1,0.2-0.1,0.3L58.7,53
				c0,0.1,0,0.1,0.1,0.1l2.2,0.2c0.1,0,0.1,0.1,0.1,0.2v0.7c0,0.1,0,0.1-0.1,0.1l-6.5-0.1c-0.1,0-0.1,0-0.1-0.1v-0.7
				c0-0.1,0-0.2,0.1-0.2l1.8-0.2c0.1,0,0.1,0,0.1-0.1l0.1-9.3c0-0.1,0-0.1-0.1-0.1l-1.9-0.3c-0.1,0-0.1,0-0.1-0.1v-0.6
				c0-0.1,0-0.1,0.1-0.1l3.2-0.5c0.1,0,0.1,0,0.2,0h0.7c0.1,0,0.1,0,0.1,0.1v2.6l1.4-1.7C60.7,42,61.3,41.6,62,41.6z"/>
			<path class="st3" d="M66.6,36.2C66.6,36.1,66.6,36.1,66.6,36.2l-2.2-0.4c-0.1,0-0.1,0-0.1-0.1v-0.6c0-0.1,0.1-0.1,0.1-0.1
				l3.3-0.5c0.1,0,0.1,0,0.1,0h0.8c0.1,0,0.1,0,0.1,0.1L68.6,53c0,0.1,0,0.1,0.1,0.1l2.1,0.2c0.1,0,0.1,0.1,0.1,0.2v0.7
				c0,0.1,0,0.1-0.1,0.1l-6.5-0.1c-0.1,0-0.1,0-0.1-0.1v-0.7c0-0.1,0-0.2,0.1-0.2l2.1-0.2c0.1,0,0.1,0,0.1-0.1L66.6,36.2z"/>
			<path class="st3" d="M73.3,43.7C73.3,43.6,73.3,43.6,73.3,43.7l-1.6-0.1c-0.1,0-0.1,0-0.1-0.1v-0.1c0-0.1,0-0.1,0.1-0.2l3.4-3.6
				c0.1-0.1,0.1-0.1,0.2-0.1h0.1c0.1,0,0.1,0.1,0.1,0.2v2.6c0,0.1,0,0.1,0.1,0.1h3.5c0.1,0,0.1,0.1,0.1,0.2v1c0,0.1,0,0.2-0.1,0.2
				h-3.5c-0.1,0-0.1,0-0.1,0.1l-0.1,7.5c0,1.4,0.5,2,1.7,2c0.8,0,1.5-0.2,2-0.7h0.1h0.1l0.3,0.7c0,0.1,0,0.1-0.1,0.2
				c-0.7,0.5-1.3,0.8-1.8,1c-0.7,0.2-1.3,0.3-2,0.3s-1.3-0.3-1.8-0.7c-0.5-0.5-0.7-1.1-0.7-1.9L73.3,43.7z"/>
			<path class="st3" d="M86.7,41.8c1.8,0,3.3,0.6,4.3,1.8c1,1.1,1.5,2.7,1.4,4.7c0,1.9-0.6,3.5-1.6,4.7c-1.1,1.3-2.5,1.9-4.3,1.9
				s-3.2-0.6-4.3-1.8c-1-1.1-1.5-2.7-1.5-4.7s0.6-3.5,1.6-4.7C83.5,42.4,84.9,41.8,86.7,41.8z M86.4,43c-1.1,0-2,0.5-2.5,1.5
				c-0.4,0.8-0.7,1.9-0.7,3.2c0,2.6,0.6,4.4,1.9,5.4c0.5,0.3,1.1,0.5,1.7,0.5c2.1,0,3.2-1.6,3.2-4.8c0-1.6-0.2-2.9-0.7-3.9
				C88.7,43.7,87.7,43,86.4,43z"/>
			<path class="st3" d="M97.3,42c0.1,0,0.1,0,0.2,0h0.7c0.1,0,0.1,0,0.1,0.1v1.2c0.8-0.7,1.8-1.1,2.9-1.4c0.4-0.1,0.7-0.1,1.2-0.1
				c2.3,0,3.4,1.4,3.4,4.1l-0.1,7.3c0,0.1,0,0.1,0.1,0.1l1.7,0.2c0.1,0,0.1,0.1,0.1,0.2v0.7c0,0.1,0,0.1-0.1,0.1h-5.7
				c-0.1,0-0.1,0-0.1-0.1v-0.7c0-0.1,0-0.2,0.1-0.2l1.7-0.2c0.1,0,0.1,0,0.1-0.1l0.1-6.5c0-1-0.2-1.8-0.5-2.2
				c-0.4-0.5-1-0.8-1.9-0.8c-1,0-1.9,0.2-2.7,0.6c-0.1,0-0.1,0.1-0.1,0.1l-0.1,8.8c0,0.1,0,0.1,0.1,0.1l1.7,0.2
				c0.1,0,0.1,0.1,0.1,0.2v0.7c0,0.1,0,0.1-0.1,0.1h-5.9c-0.1,0-0.1,0-0.1-0.1v-0.7c0-0.1,0-0.2,0.1-0.2l1.8-0.2
				c0.1,0,0.1,0,0.1-0.1l0.1-9.3c0-0.1,0-0.1-0.1-0.1l-1.9-0.3c-0.1,0-0.1,0-0.1-0.1v-0.6c0-0.1,0-0.1,0.1-0.1L97.3,42z"/>
		</g>
		<g>
			<path class="st3" d="M117.6,36.7C117.6,36.6,117.6,36.6,117.6,36.7l-2.2-0.4c-0.1,0-0.1,0-0.1-0.1v-0.6c0-0.1,0.1-0.1,0.1-0.1
				l3.3-0.5c0.1,0,0.1,0,0.1,0h0.8c0.1,0,0.1,0,0.1,0.1l-0.2,18.5c0,0.1,0,0.1,0.1,0.1l2.1,0.2c0.1,0,0.1,0.1,0.1,0.2v0.7
				c0,0.1,0,0.1-0.1,0.1l-6.5-0.1c-0.1,0-0.1,0-0.1-0.1V54c0-0.1,0-0.2,0.1-0.2l2.1-0.2c0.1,0,0.1,0,0.1-0.1L117.6,36.7z"/>
			<path class="st3" d="M129.5,53.6c-1.1,1.1-2.3,1.6-3.6,1.6c-1.3,0-2.2-0.6-2.7-1.8c-0.2-0.4-0.2-0.8-0.2-1.2
				c0-1.6,0.8-2.7,2.2-3.4c0.4-0.2,0.9-0.4,1.4-0.5c1-0.2,2-0.4,2.8-0.4v-2.2c0-1.5-0.6-2.2-2-2.2c-0.8,0-1.4,0.1-2,0.4
				c-0.1,0-0.1,0.1-0.1,0.2l-0.4,2.1c0,0.1,0,0.1-0.1,0.1H124c-0.1,0-0.1,0-0.1-0.1v-3.1c0-0.1,0-0.1,0.1-0.1
				c1.4-0.5,2.7-0.8,3.9-0.8c1.8,0,2.9,0.6,3.4,1.7c0.2,0.4,0.3,1,0.3,1.6l-0.1,7.6c0,0.1,0,0.1,0.1,0.2l1.7,0.5
				c0.1,0.1,0.1,0.1,0.1,0.1v0.5c0,0.1-0.1,0.2-0.1,0.2l-3.5,0.5c-0.1,0-0.1,0-0.1-0.1L129.5,53.6z M129.3,49c-0.9,0-1.6,0.1-2,0.3
				c-0.1,0-0.3,0.1-0.6,0.2c-0.9,0.3-1.4,1-1.4,2.2s0.5,1.8,1.7,1.8c0.3,0,0.7-0.1,1.2-0.3c0.2-0.1,0.6-0.3,1-0.5
				c0.1-0.1,0.1-0.1,0.1-0.2V49z"/>
			<path class="st3" d="M137.9,42.4c0.1,0,0.1,0,0.2,0h0.7c0.1,0,0.1,0,0.1,0.1v1.2c0.8-0.7,1.8-1.1,2.9-1.4
				c0.4-0.1,0.7-0.1,1.2-0.1c2.3,0,3.4,1.4,3.4,4.1l-0.1,7.3c0,0.1,0,0.1,0.1,0.1l1.7,0.2c0.1,0,0.1,0.1,0.1,0.2v0.7
				c0,0.1,0,0.1-0.1,0.1h-5.7c-0.1,0-0.1,0-0.1-0.1v-0.7c0-0.1,0-0.2,0.1-0.2l1.7-0.2c0.1,0,0.1,0,0.1-0.1l0.1-6.5
				c0-1-0.2-1.8-0.5-2.2c-0.4-0.5-1-0.8-1.9-0.8c-1,0-1.9,0.2-2.7,0.6c-0.1,0-0.1,0.1-0.1,0.1l-0.1,8.8c0,0.1,0,0.1,0.1,0.1l1.7,0.2
				c0.1,0,0.1,0.1,0.1,0.2v0.7c0,0.1,0,0.1-0.1,0.1h-5.9c-0.1,0-0.1,0-0.1-0.1v-0.7c0-0.1,0-0.2,0.1-0.2l1.8-0.2
				c0.1,0,0.1,0,0.1-0.1l0.1-9.3c0-0.1,0-0.1-0.1-0.1l-1.9-0.3c-0.1,0-0.1,0-0.1-0.1v-0.6c0-0.1,0-0.1,0.1-0.1L137.9,42.4z"/>
			<path class="st3" d="M151.9,48.6c0,1.5,0.3,2.8,1,3.7c0.7,1,1.8,1.6,3.1,1.6c1.1,0,2.1-0.3,3.1-0.9h0.1c0,0,0,0.1,0.1,0.1
				l0.4,0.7c0,0.1,0,0.1-0.1,0.2c-1.5,1.1-3,1.6-4.6,1.6c-1.7,0-3.1-0.6-4-1.7c-1-1.1-1.4-2.6-1.4-4.4c0-1.9,0.5-3.5,1.5-4.8
				c1-1.4,2.4-2.1,4.1-2.1c1.5,0,2.7,0.5,3.4,1.4c0.8,0.9,1.1,2.2,1.1,3.8c0,0.3,0,0.6-0.1,0.9c0,0.1,0,0.1-0.1,0.1L151.9,48.6z
				 M154.9,43.6c-1.4,0-2.3,0.8-2.7,2.4c-0.1,0.5-0.2,1-0.2,1.4h5.4C157.4,45,156.6,43.6,154.9,43.6z"/>
			<path class="st3" d="M167.9,46.4c-0.1,0-0.1-0.1-0.1-0.1l-0.4-2.2c0-0.1,0-0.1-0.1-0.2c-0.4-0.2-0.9-0.3-1.4-0.3
				c-0.9,0-1.6,0.3-1.9,1c-0.1,0.2-0.2,0.5-0.2,0.8c0,0.9,0.6,1.6,1.9,2.1l1.1,0.5c1.9,0.9,2.9,2,2.9,3.5c0,1.3-0.5,2.3-1.5,3
				c-0.9,0.7-1.9,1-3.1,1c-0.9,0-1.9-0.2-3.1-0.7c-0.1,0-0.1-0.1-0.1-0.2v-3.3c0-0.1,0-0.1,0.1-0.1h0.8c0.1,0,0.1,0,0.1,0.1l0.4,2.3
				c0,0,0,0.1,0.1,0.2c0.6,0.3,1.2,0.5,1.9,0.5c1.5,0,2.3-0.7,2.3-2c0-0.8-0.4-1.4-1.1-1.8c-0.1-0.1-0.4-0.2-0.7-0.4l-1.2-0.5
				c-1.8-0.8-2.8-2-2.8-3.6c0-1.1,0.5-2,1.4-2.7c0.8-0.6,1.8-0.9,2.9-0.9c0.9,0,1.8,0.2,2.8,0.5c0.1,0,0.1,0.1,0.1,0.2v3.2
				c0,0.1,0,0.1-0.1,0.1L167.9,46.4z"/>
		</g>
	</g>
</g>
</svg>
