<?xml version="1.0" encoding="utf-8"?>
<!-- Generator: Adobe Illustrator 25.3.0, SVG Export Plug-In . SVG Version: 6.00 Build 0)  -->
<svg version="1.1" id="Layer_1" xmlns="http://www.w3.org/2000/svg" xmlns:xlink="http://www.w3.org/1999/xlink" x="0px" y="0px"
	 viewBox="0 0 400 140" style="enable-background:new 0 0 400 140;" xml:space="preserve">
<style type="text/css">
	.st0{fill:#1D1D1B;}
</style>
<g>
	<path class="st0" d="M149.55687,13.68282c0.30812,0,0.53467,0,0.76122,0c3.63066-0.00006,7.26143,0.01747,10.89191-0.00849
		c1.53604-0.01099,2.62961,0.6439,3.41399,2.02807c3.67047,6.47713,7.36766,12.93772,11.05641,19.40353
		c0.11443,0.20057,0.24095,0.39362,0.46181,0.75271c0.11328-0.42038,0.21436-0.67307,0.24718-0.93509
		c0.82483-6.58394,1.64198-13.16893,2.46193-19.75353c0.1226-0.98459,0.58388-1.47735,1.47896-1.4808
		c3.58435-0.01381,7.16876-0.00573,10.75316-0.00297c0.08701,0.00007,0.174,0.03255,0.38695,0.07504
		c-1.88997,15.03765-3.77725,30.05382-5.67186,45.12831c-0.31346,0-0.56406,0-0.81467,0
		c-3.76941-0.00005-7.53906-0.02412-11.308,0.0201c-0.75526,0.00887-1.15538-0.27155-1.53192-0.92091
		c-4.10451-7.07825-8.23544-14.13976-12.36099-21.20468c-0.11563-0.19801-0.25134-0.38322-0.48819-0.74157
		c-0.12015,0.79521-0.2229,1.39774-0.30086,2.00377c-0.55405,4.30682-1.0999,8.61478-1.65504,12.92145
		c-0.24988,1.93832-0.50342,3.87629-0.77721,5.81103c-0.20522,1.45021-0.8036,2.0818-2.19243,2.09887
		c-3.37415,0.04148-6.74913,0.00914-10.12378,0.0033c-0.06419-0.00011-0.12834-0.04014-0.32452-0.10558
		C145.79579,43.77469,147.67244,28.75991,149.55687,13.68282z"/>
	<path class="st0" d="M57.02604,58.91229c0.20205-1.64049,0.38969-3.19323,0.58513-4.7449
		c0.44937-3.56763,0.90425-7.13449,1.35369-10.70211c0.44334-3.51921,0.88289-7.03894,1.32381-10.55849
		c0.45296-3.61569,0.90545-7.23145,1.3584-10.84714c0.32695-2.60995,0.65986-5.21911,0.97543-7.83056
		c0.04633-0.38337,0.18799-0.57627,0.56731-0.54645c0.11496,0.00904,0.23118,0.00032,0.34682,0.00032
		c7.40134-0.00007,14.80272-0.01562,22.20399,0.00719c3.16548,0.00976,6.08813,0.88028,8.53469,3.06669
		c2.74718,2.45506,4.02309,5.6257,3.76199,9.38129c-0.35735,5.14025-3.14468,8.675-7.14459,11.33485
		c-0.7168,0.47666-1.47962,0.87772-2.23823,1.3237c4.51159,6.00989,6.89688,13.08079,9.64847,20.10155
		c-0.36074,0.0225-0.55926,0.0456-0.75778,0.04568c-4.34825,0.002-8.69651,0.00046-13.04477,0.00202
		c-1.21838,0.00044-2.05032-0.59462-2.54496-1.75047c-1.60102-3.74119-3.18053-7.49294-4.8325-11.20947
		c-0.48311-1.08686-1.16919-2.07713-1.78669-3.09547c-0.17039-0.281-0.40622-0.5318-0.65147-0.74747
		c-0.60507-0.5321-1.00922-0.38348-1.11355,0.42577c-0.37023,2.8717-0.71884,5.74644-1.07837,8.61965
		c-0.2457,1.96357-0.47599,3.92958-0.75183,5.88856c-0.15805,1.12244-0.7554,1.67273-1.85002,1.82479
		c-0.20554,0.02855-0.41458,0.04133-0.62202,0.04146c-3.8857,0.00248-7.7714,0.00227-11.6571,0.00094
		C57.4546,58.94418,57.29731,58.9276,57.02604,58.91229z M79.40868,21.54804c-0.92513,0-1.85179,0.03363-2.77479-0.01263
		c-0.5522-0.02768-0.76743,0.15791-0.83595,0.73934c-0.4633,3.93119-0.94723,7.85983-1.44986,11.78575
		c-0.06877,0.53711,0.13815,0.63643,0.56223,0.61983c0.78471-0.03071,1.57119-0.02608,2.35452-0.07679
		c0.89799-0.05813,1.81351-0.0639,2.68587-0.26273c2.11564-0.48219,3.43805-1.97581,4.26908-3.9845
		c0.93498-2.25995,1.31701-4.57416,0.43944-6.9618c-0.45648-1.24197-1.32225-1.8721-2.61399-1.84905
		C81.16661,21.56113,80.28754,21.54845,79.40868,21.54804z"/>
	<path class="st0" d="M124.20324,12.44168c5.27573,0.11192,10.12399,1.54675,14.24776,5.13729
		c2.91621,2.53913,4.91998,5.75989,5.67844,9.62666c1.74762,8.90986-0.08026,17.01271-5.74342,23.966
		c-4.20647,5.16473-9.73685,7.9608-16.14584,8.81804c-5.55315,0.74277-10.83701-0.15786-15.66536-3.23823
		c-4.87883-3.11259-7.86655-7.65354-8.64974-13.57075c-1.0704-8.08712,0.78414-15.40839,5.94718-21.63522
		c3.4092-4.11165,7.77492-6.69063,12.78721-8.0954C119.12871,12.75804,121.63641,12.38244,124.20324,12.44168z M111.96532,39.48145
		c0.06631,0.80463,0.10719,1.99099,0.27264,3.15805c0.3037,2.14238,0.89183,4.19297,2.10935,5.99034
		c2.43809,3.59922,6.32017,4.20082,9.66818,1.5197c1.49817-1.19975,2.63949-2.71016,3.49217-4.44293
		c2.36777-4.81162,3.11189-9.96773,2.78136-15.31231c-0.15053-2.43396-0.73386-4.76637-2.04176-6.83813
		c-2.11095-3.34382-5.64263-4.2028-8.95546-2.1976c-1.83241,1.10913-3.18134,2.70907-4.22641,4.59667
		C112.81485,30.02017,112.09494,34.48281,111.96532,39.48145z"/>
	<path class="st0" d="M260.57593,48.6833c-0.60986,1.29473-1.12015,2.39638-1.64575,3.48998
		c-0.96338,2.00452-1.95087,3.99658-2.8942,6.01129c-0.2466,0.52666-0.54645,0.71958-1.11786,0.71845
		c-9.66663-0.01913-19.3333-0.01347-28.99995-0.01331c-0.24797,0-0.49596,0-0.86533,0
		c0.13077-1.1745,0.23785-2.24546,0.37093-3.31288c0.54039-4.3335,1.08884-8.66589,1.63428-12.9987
		c0.44907-3.56733,0.89995-7.13441,1.34673-10.70205c0.44078-3.51973,0.87589-7.04024,1.31639-10.56001
		c0.28764-2.29817,0.59447-4.59386,0.86107-6.89467c0.06508-0.56172,0.25047-0.75366,0.81783-0.75265
		c10.66104,0.01891,21.32213,0.01367,31.98318,0.01597c0.24628,0.00005,0.49252,0.02883,0.81055,0.0487
		c-0.12878,1.22008-0.24304,2.36576-0.37213,3.50961c-0.16235,1.43875-0.3175,2.87885-0.51141,4.31311
		c-0.19751,1.46072-1.03214,2.22333-2.45087,2.22617c-5.34126,0.01068-10.68253,0.00369-16.0238,0.00332
		c-0.25102-0.00002-0.50204,0-0.83784,0c-0.0899,0.65369-0.18085,1.26564-0.25717,1.87957
		c-0.18456,1.48468-0.31761,2.97836-0.56172,4.45208c-0.12086,0.72962,0.09532,0.87393,0.73129,0.87169
		c5.11079-0.01795,10.22163-0.01093,15.33249-0.00894c0.26932,0.0001,0.53867,0.02376,0.88324,0.04
		c-0.17868,1.4889-0.34381,2.89501-0.5173,4.29999c-0.11819,0.9576-0.26651,1.9115-0.36871,2.87084
		c-0.1868,1.7532-1.03186,2.57372-2.74255,2.57671c-4.55582,0.00797-9.11174,0.01968-13.66731-0.01374
		c-0.73988-0.00543-1.04398,0.16432-1.11592,1.00049c-0.16327,1.89827-0.46545,3.78304-0.68163,5.67699
		c-0.11914,1.04391,0.07826,1.25095,1.07336,1.25126c5.82774,0.00187,11.65549,0.0008,17.48323,0.00074
		C259.85645,48.6833,260.12387,48.6833,260.57593,48.6833z"/>
	<path class="st0" d="M306.19089,58.94546c-0.34305,0-0.59058-0.00001-0.8381,0c-3.79172,0.00013-7.5834-0.00525-11.37506,0.00292
		c-1.68274,0.00363-2.69846-0.49409-3.10809-2.47113c-0.37097-1.79059-0.8584-3.55488-1.29633-5.33026
		c-0.32776-1.32864-0.86942-1.7772-2.22867-1.77264c-2.70398,0.00906-5.4079,0.04441-8.11188,0.06097
		c-1.45651,0.00892-2.91367,0.02564-4.36938-0.01122c-0.5405-0.01368-0.84213,0.1907-1.08075,0.68107
		c-1.10828,2.2779-2.27243,4.52663-3.3533,6.81839c-0.60971,1.29274-1.5831,1.97544-2.89737,2.00032
		c-2.93521,0.05555-5.87201,0.01678-8.80817,0.01326c-0.03922-0.00004-0.0784-0.04147-0.20276-0.11164
		c0.40829-0.84417,0.81305-1.69542,1.22971-2.54026c2.9274-5.9358,5.85376-11.87217,8.78723-17.8047
		c3.71689-7.51703,7.44019-15.03062,11.16083-22.54564c0.22263-0.44965,0.49289-0.88093,0.65826-1.35244
		c0.25323-0.72187,0.68289-0.92657,1.41699-0.91938c4.18439,0.04102,8.36945,0.03528,12.55396,0.0021
		c0.59229-0.00469,0.8085,0.22161,0.94006,0.76494c1.13821,4.69998,2.28763,9.39699,3.44104,14.09292
		c1.24493,5.0686,2.49988,10.13452,3.74652,15.20268C303.69019,48.74493,304.91983,53.76546,306.19089,58.94546z
		 M284.17279,29.01885c-0.05847-0.00505-0.11691-0.01011-0.17538-0.01517c-1.95264,3.88117-3.90527,7.76233-5.87073,11.66901
		c0.16141,0.05943,0.22427,0.10296,0.28699,0.10273c2.42804-0.00872,4.85635-0.00373,7.284-0.04295
		c0.88266-0.01426,1.21777-0.46247,1.00574-1.38177c-0.66534-2.8844-1.37299-5.75816-2.0708-8.63429
		C284.49435,30.14658,284.32681,29.58451,284.17279,29.01885z"/>
	<path class="st0" d="M190.56726,45.11419c1.58374,0.72765,3.09264,1.50788,4.66071,2.12346
		c3.36888,1.32252,6.83191,2.27739,10.46616,2.18107c1.37332-0.0364,2.75153-0.2674,4.10646-0.52888
		c0.91125-0.17586,1.57898-0.77771,1.76724-1.80888c0.2124-1.16333-0.08936-2.20129-1.06616-2.7677
		c-1.48499-0.86105-3.02988-1.63184-4.60588-2.29388c-2.8257-1.18701-5.69739-2.23866-8.30026-3.9517
		c-3.32207-2.18634-4.68469-5.46334-4.91634-9.37719c-0.17865-3.01858,0.35225-5.88512,2.12418-8.36122
		c1.99785-2.79179,4.69145-4.64275,7.77518-5.84124c7.47928-2.9068,14.81697-2.36567,22.00449,1.14682
		c0.31366,0.15327,0.47292,0.29078,0.41692,0.68974c-0.39569,2.81804-0.77045,5.63929-1.15471,8.45909
		c-0.01257,0.09237-0.05579,0.18018-0.09911,0.31478c-0.16248-0.039-0.32558-0.04642-0.46002-0.1151
		c-3.11681-1.59208-6.42068-2.45036-9.87381-2.5837c-2.14122-0.08268-4.22897,0.36998-6.23299,1.18717
		c-0.1499,0.06113-0.29181,0.14637-0.43205,0.23021c-1.64645,0.98402-1.82368,2.55002-0.26237,3.67176
		c1.10602,0.79463,2.3866,1.3588,3.64439,1.88072c2.98358,1.23805,5.97092,2.42818,8.68927,4.27809
		c7.12585,4.84932,6.89687,14.74102,1.93622,20.0588c-2.76552,2.96462-6.19797,4.56406-9.97731,5.47067
		c-5.3667,1.2874-10.65317,0.77688-15.86644-0.90093c-1.76347-0.56755-3.49841-1.2315-5.25107-1.83658
		c-0.36551-0.12619-0.52211-0.31119-0.467-0.73891c0.45013-3.49352,0.88361-6.98939,1.3244-10.48423
		C190.52293,45.1721,190.55826,45.13189,190.56726,45.11419z"/>
	<path class="st0" d="M326.66248,13.68268c-1.46692,11.67756-2.91995,23.24478-4.38495,34.90725c6.13586,0,12.18124,0,18.36819,0
		c-0.43796,3.50263-0.86316,6.90353-1.29474,10.3552c-0.31512,0-0.56485,0-0.81458,0
		c-9.6412,0.00018-19.28241,0.00037-28.92365,0.00039c-0.18494,0-0.37018,0.00471-0.55481-0.00435
		c-1.42261-0.06986-2.16562-0.94288-1.99731-2.42454c0.22598-1.98951,0.49796-3.9733,0.74719-5.95995
		c0.53751-4.28468,1.06915-8.57018,1.61075-12.8543c0.51733-4.09229,1.04889-8.1826,1.56555-12.27498
		c0.45016-3.56576,0.89545-7.13223,1.32721-10.70046c0.12592-1.04049,0.10141-1.04428,1.06696-1.04431
		c4.13855-0.00014,8.2771,0.00001,12.41565,0.00005C326.04086,13.68268,326.28778,13.68268,326.66248,13.68268z"/>
	<path class="st0" d="M338.06165,13.52172c-2.73721,0-4.94617,2.16095-4.94617,4.89817c0,0,0,0,0,0.04802
		c0,2.73719,2.20895,4.94617,4.89813,4.94617c2.73721,0,4.94617-2.20898,4.94617-4.94617
		C343.00784,15.7307,340.79883,13.52172,338.06165,13.52172z M338.06165,22.59771c-2.25699,0-4.12979-1.82478-4.12979-4.1298
		s1.82477-4.12982,4.12979-4.12982c2.25699,0,4.12979,1.8248,4.12979,4.12982
		C342.19144,20.72491,340.3186,22.59771,338.06165,22.59771z"/>
	<path class="st0" d="M340.03049,20.10063c-0.43219-0.72033-0.76831-1.1525-1.24854-1.34458v-0.04802
		c0.91241-0.04802,1.53668-0.6723,1.53668-1.5367c0-0.57626-0.43222-1.3926-1.77676-1.3926h-2.35309l-0.04797,5.33034h0.86435
		v-2.257h0.52823c0.6723,0,0.91241,0.24011,1.58469,1.44063l0.48022,0.81637h1.05646L340.03049,20.10063z M338.25375,18.13176
		h-1.24857v-1.58469h1.39264c0.57626,0,0.96042,0.28813,0.96042,0.76835C339.35825,17.84363,338.92603,18.13176,338.25375,18.13176z
		"/>
</g>
</svg>
