<?xml version="1.0" encoding="utf-8"?>
<!-- Generator: Adobe Illustrator 25.3.0, SVG Export Plug-In . SVG Version: 6.00 Build 0)  -->
<svg version="1.1" id="Layer_1" xmlns="http://www.w3.org/2000/svg" xmlns:xlink="http://www.w3.org/1999/xlink" x="0px" y="0px"
	 viewBox="0 0 120 105" style="enable-background:new 0 0 120 105;" xml:space="preserve">
<style type="text/css">
	.st0{fill:#0A2240;}
	.st1{fill:#FFFFFF;}
	.st2{fill:#CE0E2D;}
</style>
<g>
	<g>
		<path class="st0" d="M41.4,0v1.6h-3.8v1.8h3.1V5h-3.1v2h3.8v1.6h-5.5V0H41.4z"/>
		<path class="st0" d="M48.8,0v8.6H47l-3.1-5.9v5.9h-1.6V0h1.8l3.1,5.9V0H48.8z"/>
		<path class="st0" d="M54.2,2c0-0.3-0.1-0.4-0.4-0.4h-1.9c-0.3,0-0.4,0.1-0.4,0.4v4.6c0,0.3,0.1,0.4,0.4,0.4h1.9
			c0.3,0,0.4-0.1,0.4-0.4V5.4h-1.6V3.8h3.2V7c0,1-0.7,1.7-1.7,1.7h-2.8c-1,0-1.7-0.7-1.7-1.7V1.7c0-1,0.7-1.7,1.7-1.7h2.8
			c1,0,1.7,0.7,1.7,1.7v1.1h-1.7V2H54.2z"/>
		<path class="st0" d="M58.5,0v7h3.6v1.6h-5.2V0H58.5z"/>
		<path class="st0" d="M64.3,8.6h-1.8L65.2,0h2l2.7,8.6h-1.8l-0.6-1.9h-2.7L64.3,8.6z M65.3,5.1h1.8l-0.9-3.2L65.3,5.1z"/>
		<path class="st0" d="M77.2,0v8.6h-1.8l-3.1-5.9v5.9h-1.6V0h1.8l3.1,5.9V0H77.2z"/>
		<path class="st0" d="M82.6,0c1,0,1.7,0.7,1.7,1.7V7c0,1-0.7,1.7-1.7,1.7h-4.4V0H82.6z M82.2,7c0.3,0,0.4-0.1,0.4-0.4V2.1
			c0-0.3-0.1-0.4-0.4-0.4h-2.3V7H82.2z"/>
	</g>
	<g>
		<path class="st0" d="M38.7,16.3l-0.9-2h-0.9v2h-1.1v-5.4h2.7c0.6,0,1.1,0.4,1.1,1.1v1.3c0,0.5-0.3,0.9-0.7,1l0.9,2.1h-1.1V16.3z
			 M38.6,12.1c0-0.2-0.1-0.3-0.3-0.3h-1.4v1.4h1.4c0.2,0,0.3-0.1,0.3-0.3V12.1z"/>
		<path class="st0" d="M44.1,15.2c0,0.6-0.4,1.1-1.1,1.1h-1.7c-0.6,0-1.1-0.4-1.1-1.1v-4.4h1.1V15c0,0.2,0.1,0.3,0.3,0.3h1.2
			c0.2,0,0.3-0.1,0.3-0.3v-4.2h1.1v4.4H44.1z"/>
		<path class="st0" d="M47.5,12.1c0-0.2-0.1-0.3-0.3-0.3H46c-0.2,0-0.3,0.1-0.3,0.3V15c0,0.2,0.1,0.3,0.3,0.3h1.2
			c0.2,0,0.3-0.1,0.3-0.3v-0.8h-1v-1h2v2c0,0.6-0.4,1.1-1.1,1.1h-1.8c-0.6,0-1.1-0.4-1.1-1.1v-3.3c0-0.6,0.4-1.1,1.1-1.1h1.8
			c0.6,0,1.1,0.4,1.1,1.1v0.7h-1.1v-0.5H47.5z"/>
		<path class="st0" d="M51.8,10.8c0.6,0,1.1,0.4,1.1,1.1v0.8c0,0.3-0.1,0.6-0.5,0.8c0.4,0.2,0.5,0.5,0.5,0.8v0.9
			c0,0.6-0.4,1.1-1.1,1.1H49v-5.4h2.8V10.8z M51.6,13c0.2,0,0.3,0,0.3-0.3v-0.6c0-0.2-0.1-0.3-0.3-0.3h-1.4V13H51.6z M51.6,15.2
			c0.2,0,0.3-0.1,0.3-0.3v-0.8c0-0.2-0.1-0.2-0.3-0.2h-1.3v1.3H51.6z"/>
		<path class="st0" d="M54.8,16.3v-1.9l-1.6-3.5h1.2l1,2.3l1-2.3h1.2L56,14.4v1.9H54.8z"/>
		<path class="st0" d="M60.1,10.8v4.4h2.2v1H59v-5.4C59,10.8,60.1,10.8,60.1,10.8z"/>
		<path class="st0" d="M66.3,10.8v1h-2.4V13h2v1h-2v1.2h2.4v1h-3.5v-5.4C62.8,10.8,66.3,10.8,66.3,10.8z"/>
		<path class="st0" d="M67.8,16.3h-1.1l1.7-5.4h1.2l1.7,5.4h-1.1L69.9,15h-1.7L67.8,16.3z M68.5,14h1.1L69,12L68.5,14z"/>
		<path class="st0" d="M74.5,12.1c0-0.2-0.1-0.3-0.3-0.3H73c-0.2,0-0.3,0.1-0.3,0.3V15c0,0.2,0.1,0.3,0.3,0.3h1.2
			c0.2,0,0.3-0.1,0.3-0.3v-0.8h-1v-1h2v2c0,0.6-0.4,1.1-1.1,1.1h-1.8c-0.6,0-1.1-0.4-1.1-1.1v-3.3c0-0.6,0.4-1.1,1.1-1.1h1.8
			c0.6,0,1.1,0.4,1.1,1.1v0.7h-1.1v-0.5H74.5z"/>
		<path class="st0" d="M79.9,15.2c0,0.6-0.4,1.1-1.1,1.1h-1.7c-0.6,0-1.1-0.4-1.1-1.1v-4.4h1.1V15c0,0.2,0.1,0.3,0.3,0.3h1.2
			c0.2,0,0.3-0.1,0.3-0.3v-4.2h1.1v4.4H79.9z"/>
		<path class="st0" d="M84.1,10.8v1h-2.4V13h2v1h-2v1.2h2.4v1h-3.5v-5.4C80.6,10.8,84.1,10.8,84.1,10.8z"/>
	</g>
	<polygon class="st1" points="88.2,18.5 31.8,18.5 37,74.9 37,74.9 38.2,88.4 60,105 81.8,88.4 82.9,76.1 82.9,76.1 	"/>
	<g>
		<polygon class="st2" points="81.8,77.2 80.8,87.8 60,103.7 39.2,87.9 38.2,77.2 60,93.8 		"/>
		<path class="st2" d="M32.9,19.5l5.1,56l21.3,16.2l0.7-19l0.6,19.1l21.3-16.2l5.1-56L32.9,19.5z M52.2,76.4l-11.6-8.8L39.4,55h12.8
			V76.4z M52.2,39.4H38l-1.3-14.2h15.5V39.4z M79.5,67.6l-11.7,8.9V55h12.8L79.5,67.6z M67.8,39.4V25.2h15.5L82,39.4H67.8z"/>
	</g>
	<g>
		<path class="st1" d="M57.6,67.1c0.3,0.6,0.6,1.1,0.7,1.4c-0.3,0-0.5,0-0.6,0c-0.2-0.4-0.3-0.7-0.4-0.9c-0.2,0.4-0.3,0.7-0.4,0.9
			c-0.3,0-0.5,0-0.6,0c0.3-0.6,0.6-1.1,0.7-1.4c-0.4-0.7-0.6-1.1-0.7-1.4c0.3,0,0.5,0,0.6,0c0.2,0.4,0.3,0.7,0.4,0.9
			c0.2-0.4,0.3-0.7,0.4-0.9c0.3,0,0.5,0,0.6,0C58,66.4,57.7,66.9,57.6,67.1z"/>
		<path class="st1" d="M59.4,65.7c0.1,0,0.3,0,0.6,0c0,0.3,0,1,0,2.1c0,0.1,0,0.3,0,0.7c-0.1,0-0.3,0-0.6,0c0-0.2,0-0.6,0-1
			S59.4,66.4,59.4,65.7z"/>
		<path class="st1" d="M61.3,65.7c0.1,0,0.3,0,0.6,0c0,0.3,0,1,0,2.1c0,0.1,0,0.3,0,0.7c-0.1,0-0.3,0-0.6,0c0-0.2,0-0.6,0-1
			S61.3,66.4,61.3,65.7z"/>
		<path class="st1" d="M63.1,65.7c0.1,0,0.3,0,0.6,0c0,0.3,0,1,0,2.1c0,0.1,0,0.3,0,0.7c-0.1,0-0.3,0-0.6,0c0-0.2,0-0.6,0-1
			S63.1,66.4,63.1,65.7z"/>
	</g>
	<g>
		<g>
			<path class="st1" d="M47.4,45.8l0.7,0.3c0,0,0,0,0,0.1c0,0.2,0.1,1,0.6,1.5c0,0.1,0.1,0,0.1-0.1s0-0.1,0-0.2c0-0.1,0.1-0.1,0.2,0
				c0.1,0.3,0.2,0.7,0.7,1.2c0.1,0,0.1,0,0.1-0.1v-0.1c0-0.3,0.1-0.3,0.1-0.2c0.2,0.3,0.4,0.9,0.9,1.2h0.1l1-1.6c0,0,0,0,0-0.1
				s0-0.1,0-0.2v-0.1L51,47c-0.1,0,0-0.2,0-0.1l0.9,0.1c0,0,0.1,0,0.1-0.1s0.1-0.3,0.1-0.4c0-0.1,0-0.1-0.1-0.1h-0.3
				c-0.1,0-0.2,0-0.3-0.1L49.1,45H49c-0.1,0.1-0.2,0-0.1-0.1v-0.1l0.1-0.3c0.1-0.4,0.2-0.8,0.3-1.2v-0.1h-0.1c0,0,0,0,0-0.1
				c0.1-0.1,0.1-0.2,0.1-0.4c0-0.3-0.3-0.5-0.7-0.5h-0.1c0.1,0,0.3,0.1,0.3,0.3c0,0.1,0,0.2-0.1,0.2l0,0c0,0,0,0-0.1,0L48.4,43
				c-0.1,0-0.1,0-0.1-0.1v-0.2c0,0,0-0.1-0.1-0.1h-0.1l0,0c0-0.1,0-0.2-0.1-0.3c-0.2-0.2-0.6-0.3-0.8-0.1l-0.1,0.1
				c0.1,0,0.3,0,0.4,0.1c0,0,0.1,0.1,0.1,0.2c0,0,0,0,0,0.1L47.2,43h-0.1l-0.3-0.2h-0.1l0,0c-0.1-0.1-0.2-0.1-0.3-0.1
				c-0.3-0.1-0.6,0.1-0.7,0.4v0.1c0.1-0.1,0.2-0.2,0.4-0.1c0.1,0,0.2,0.2,0.2,0.3c0,0,0,0,0,0.1l-0.1,0.1c0,0,0,0,0,0.1l0.1,0.3v0.1
				l0,0c0,0,0,0-0.1,0s-0.2,0-0.3,0c-0.3,0.1-0.4,0.4-0.3,0.6c0,0,0,0.1,0.1,0.1c0-0.1,0.1-0.2,0.2-0.3c0.1,0,0.1,0,0.2,0
				c0,0,0,0,0,0.1v0.1c0.1,0.3,0.3,0.4,0.6,0.5h0.3h0.1L47.4,45.8L47.4,45.8z M47.4,44.4l0.3-0.2c0.1,0,0.1,0,0.1,0.1v0.5
				c0,0.1-0.1,0.1-0.2,0v-0.1c0,0,0,0-0.1-0.1l-0.2-0.1C47.4,44.5,47.4,44.4,47.4,44.4z"/>
		</g>
		<g>
			<path class="st1" d="M74.3,48.9c0-0.1-0.1-0.1-0.1,0c-0.1,0.2-0.2,0.4-0.2,0.4h-0.1c0-0.4-0.1-1.5-0.6-2.2h-0.1
				c0,0.2,0,0.4-0.1,0.4c0,0-0.1,0.1-0.1,0c-0.1-0.1-0.2-0.4-0.4-0.5c0,0-0.1,0-0.1,0.1c0,0.5-0.8,0.5-1.1,0.5
				c-0.8,0-1.5-0.3-2.1-0.7c-0.1-0.1-0.3-0.2-0.4-0.2l0,0c-0.1-0.1-0.7-0.3-0.8-0.4v-0.1c0.3,0.1,1.1,0.3,1.3,0.4c0.1,0,0.1,0,0.2,0
				c0.2,0,0.6,0,0.8,0c0.7-0.1,1.3-0.3,1.8-0.8c0.9-0.9,0.1-1.9-0.9-2.2c-2.7-1-4.5,0.7-7.7,1c-1.4,0.1-2.5-0.1-2.9-0.5
				c-0.8-0.6-0.2-1.6,0.7-1.8c-0.6,0.3-0.5,0.8,0.2,0.7c0.4-0.1,0.8-0.1,1.2,0.1h0.1c0-0.4,0.3-0.6,0.6-0.8c0,0,0,0,0.1,0
				s0.3,0.3,0.3,0.6c0,0,0.1,0.1,0.1,0c0.2-0.2,0.3-0.4,0.4-0.6c0,0,0.1-0.1,0.1,0c0.1,0.1,0.1,0.3,0,0.4c0,0.1,0.1,0.1,0.1,0
				c0.4-0.5,0.7-1.2,0-1.5c-1.6-0.5-5.3,0.6-4.9,2.4c0.2,1.2,1.9,1.3,2.3,1.4c2.7,0.3,4.9-0.9,6.6-1.2c0.9-0.1,2-0.1,2.6,0.5
				c0.7,0.7-0.3,1.3-1,1.4c-1.8,0.3-3.7-0.2-5.5-0.2l0,0c-2,0-4.1,0.3-6.1,0.5c-0.1,0-0.1,0.1-0.1,0.1c0,0.2,0.3,0.5,0.4,0.8
				c0.1,0.1,0,0.1-0.1,0.1s-0.5-0.1-0.6-0.1s-0.1,0-0.1,0.1c0,0.2-0.1,0.5-0.3,0.7c0.1-0.3,0.1-0.8,0-1c0-0.1,0-0.1,0.1-0.1h0.1
				c0.1,0,0.1,0,0.1-0.1c-0.1-0.2-0.2-0.5-0.3-0.7c0-0.1,0-0.2,0.1-0.2c0.2,0,0.7-0.1,1-0.1c0,0,0.1-0.1,0-0.1
				c-0.5-0.5-0.8-1-0.9-1.3c0,0,0,0-0.1,0l-0.3,0.2c0,0,0.2-0.5,0.7-0.9c0,0,0.1-0.1,0-0.1c-0.1-0.4-0.5-0.7-0.8-1l-0.1-0.1
				c0.1-0.4,0.3-0.7,0.4-0.9v-0.1h-1.9l0.6-0.2l0.1-0.6c0,0,0-0.1-0.1-0.1L55,40.7c-0.1,0-0.1,0-0.1-0.1v-0.2c0-0.1,0-0.1-0.1,0
				L53,41.6c-0.1,0.1-0.2,0.2-0.3,0.3l-0.2,0.3h1.1c0,0,0,0,0,0.1l-0.7,0.4c-0.1,0-0.1,0-0.2,0l-0.3-0.4l-1,0.3
				c-0.1,0-0.1,0.1-0.1,0.1c0,0.2,0,0.7,0.1,0.9c0,0,0,0,0.1,0.1h0.1l0.4,0.6l0,0v-0.5c0,0,0,0,0.1,0h0.2c0.1,0,0.3,0.1,0.3,0.2
				l0.4,0.5c0.1,0.2,0,0.4-0.2,0.5h-0.1c0,0,0,0-0.1,0c0,0-0.4-0.3-0.5-0.3c0,0-0.1,0,0,0l0.2,0.4v0.1h-0.1c0,0-0.1,0,0,0.1l0.1,0.1
				l0.1,0.1v0.2c0,0,0,0.1,0.1,0l0.1-0.1h0.1l0.1,0.2h0.1l0.1-0.1l0,0l0.3-0.3c0.1-0.1,0.3-0.3,0.5-0.3l0.5-0.2
				c0.1,0,0.2-0.1,0.2-0.2l0.2-0.6c0-0.1,0-0.2-0.1-0.3l-0.6-0.4c-0.1,0-0.1-0.1,0-0.1c0,0,0.4-0.4,0.5-0.5c0,0,0.1,0,0,0l-0.2,0.4
				v0.1l0.6,0.3c0.2,0.1,0.3,0.3,0.2,0.5l-0.3,0.9c0,0.1-0.1,0.2-0.2,0.2l-0.5,0.2c-0.2,0.1-0.3,0.1-0.5,0.3
				c-0.1,0.1-0.2,0.2-0.3,0.3l0,0c-0.2,0.2-0.3,0.3-0.3,0.3l0,0c-0.3,0.4-0.2,1-0.2,1.5c0,0,0,0,0,0.1l-0.5,1c0,0,0,0.1,0,0
				c0.1-0.1,0.4-0.2,0.7-0.3c0.3,0,0.7,0,1.1,0.1c0.3,0.1,0.5-0.6,0.5-0.6s0.1,0.7-0.1,0.9C54,49.1,53.9,49,53.9,49
				c-1.2-0.3-2,0.2-2.8,1l0,0l-1.9,0.5c-0.1,0-0.1,0.1-0.1,0.1c0,0.1,0.1,0.3,0.1,0.3c0,0.1,0,0.1-0.1,0.1l-0.3-0.4l0,0L48.4,50l0,0
				L48,49.7c0,0,0,0-0.1,0l0,0l0,0c-0.1-0.1-0.1-0.2-0.2-0.2c-0.3-0.2-0.6-0.1-0.8,0.2c0,0,0,0.1-0.1,0.1c0.1-0.1,0.3-0.1,0.4,0
				c0.1,0,0.1,0.1,0.1,0.1l0,0l0,0c0,0,0,0,0,0.1v0.3c0,0-0.1,0.1-0.1,0L47,50.2h-0.1l0,0C46.7,50,46.5,50,46.4,50
				c-0.3,0-0.6,0.2-0.6,0.5v0.1c0-0.1,0.2-0.2,0.3-0.2s0.1,0,0.2,0.1l0,0l0,0c0,0,0,0,0,0.1l0.2,0.5v0.1h-0.1l0,0
				c-0.2,0-0.3,0-0.5,0.1c-0.3,0.2-0.3,0.5-0.1,0.8l0.1,0.1c0-0.1,0-0.3,0.1-0.4c0.1-0.1,0.2-0.1,0.3-0.1c0,0,0,0,0.1,0l0.1,0.4l0,0
				l0.3,0.1c0,0,0,0,0,0.1c0,0,0,0,0,0.1c-0.1,0-0.1,0.1-0.1,0.2c-0.1,0.2,0,0.5,0.2,0.6H47c-0.1-0.1-0.1-0.2-0.1-0.3
				s0.1-0.1,0.2-0.2c0,0,0,0,0.1,0h0.4h0.1c0.2-0.1,0.3-0.1,0.5-0.3c0,0,0,0,0.1,0h1.3l0,0l0.4-0.2c0,0,0,0,0.1,0c0.2,0,1.4,0,2.1,0
				c0.1,0,0.1-0.1,0-0.2l0,0c-0.1-0.1,0-0.2,0.1-0.1c0.3,0.1,0.8,0.2,1.3,0.2c0.1,0,0.1-0.1,0-0.2c-0.2-0.1-0.1-0.3,0-0.2
				c1.1,0.2,2.4-0.1,3.3-0.8c0,0,0,0,0-0.1L57,50l0.1-0.4c0-0.1,0.2-0.1,0.2,0c0,0.2,0.1,0.2,0.1,0.2c2.6-0.5,3.4-1.8,5.8-2.5
				c-0.6,0.5-0.9,1.6-0.8,2.1c0,0.1,0.1,0.1,0.1,0l0,0c0-0.1,0.1-0.1,0.1,0c0,0.2,0.1,0.6,0.2,0.8h0.1c0-0.1,0.1-0.2,0.1-0.3h0.1
				l0.2,0.3c0,0,0,0,0,0.1c-0.4,0.8-1.2,1-2,1.2c0,0-0.1,0-0.1,0.1c-0.1,0.3-0.1,0.2-0.2,0V51c0,0,0-0.1-0.1-0.1l-0.2-0.1
				c0,0,0,0,0-0.1c0-0.3-0.1-0.4-0.3-0.6c-0.3-0.2-0.6-0.2-0.8,0.1l-0.1,0.1c0.1-0.1,0.3-0.1,0.4,0c0.1,0,0.1,0.1,0.1,0.2l0,0l0,0
				h-0.1l-0.2,0.2h-0.1l-0.4-0.2h-0.1l0,0c0,0,0,0-0.1,0s-0.1,0-0.2,0c-0.3,0-0.6,0.2-0.6,0.5v0.1c0-0.1,0.2-0.2,0.3-0.2
				c0.3,0,0.4,0.3,0.4,0.4l0,0c-0.1,0-0.3,0-0.4,0.1c-0.3,0.2-0.3,0.5-0.1,0.8l0.1,0.1c0-0.1,0-0.3,0.1-0.4c0.1,0,0.2-0.1,0.2-0.1
				l0,0l0,0l0.2,0.1l0,0c-0.1,0-0.2,0.1-0.2,0.2c-0.1,0.2,0,0.5,0.2,0.6h0.1C59,52.6,59,52.5,59,52.4c0,0,0,0,0-0.1l0,0l0,0l0.5,0.2
				c0,0,0,0,0.1,0l0.8-0.3c0.1,0,0.1,0,0.2,0h3.7c0.1,0,0.1-0.1,0.1-0.1c-0.2-0.3,0.4-0.6,0.6-0.7c0.3-0.2,0.7-0.4,0.8-0.8
				c0-0.1,0-0.1-0.1-0.1l0,0c-0.1,0-0.1,0-0.1-0.1c0.1-0.2,0.3-0.6,0.3-0.9c0-0.1-0.1-0.1-0.1-0.1c-0.2,0.1-0.3,0-0.4,0v-0.1
				l0.1-0.3c0-0.1,0.1-0.1,0.1-0.1l0.6-0.3c0,0-0.5-0.8-0.7-1c-0.1-0.1-0.2-0.1-0.3,0c-0.3,0.1-0.7,0.7-0.9,0.9c0,0.1-0.1,0-0.1-0.1
				c0.1-0.3,0.3-0.9,0.5-1.2c0.1-0.1,0.1-0.1,0-0.2c-0.1-0.1-0.5-0.3-0.7-0.3c1.1,0.1,1.6,0.4,2.2,1.1c0.6,0.7,1.3,1.4,2.2,1.8
				c0.1,0,0.2-0.1,0.2-0.2l0,0c-0.1-0.1,0.1-0.2,0.2-0.2c0.5,0.3,1,0.5,1.3,0.5c0.1,0,0.1,0,0.1-0.1c-0.2-0.7,0.9-0.7,1.4-0.7l0,0
				c0.3,0.3,0.7,0.6,0.6,1.1v0.1l0,0c0.4,0.3,0.3,0.4-0.1,0.2l-0.4-0.2l0,0c0-0.1-0.1-0.1-0.1-0.2c-0.2-0.2-0.6-0.2-0.8,0.1
				l-0.1,0.1c0.1-0.1,0.3-0.1,0.4,0s0.1,0.2,0.1,0.3l0,0L71,51.3c0,0,0,0,0,0.1v0.1l0,0c-0.1-0.1-0.2-0.2-0.4-0.2
				c-0.3,0-0.6,0.2-0.6,0.5v0.1c0-0.1,0.2-0.2,0.3-0.2c0.1,0,0.2,0.1,0.3,0.1c0,0,0,0,0,0.1v0.1l0.3,0.4l0.1,0.1h0.3l0,0
				c-0.1,0.2-0.1,0.6,0.2,0.7c0,0,0.1,0,0.1,0.1c-0.1-0.1-0.1-0.3,0-0.4c0.1-0.1,0.2-0.1,0.3-0.1h0.6c0.1,0,0.1,0,0.1,0l0.3-0.3l0,0
				c-0.1,0.3,0.1,0.5,0.4,0.6h0.1c-0.1-0.1-0.2-0.2-0.1-0.3c0-0.1,0-0.1,0.1-0.1c0,0,0,0,0.1,0l0.4-0.1l0.1-0.1
				C74,51.2,74.6,50.1,74.3,48.9z M54.7,42.6C54.6,42.6,54.6,42.6,54.7,42.6c0-0.1,0.2-0.5,0.2-0.5c0-0.1,0-0.2,0-0.3v-0.1
				c0,0,0,0-0.1,0l-0.5,0.2c0,0-0.1,0,0,0l0.7-0.6h0.1l0.1,0.6c0,0.1,0,0.2-0.1,0.3C55,42.3,54.7,42.5,54.7,42.6z M57.3,47.3
				c-0.1,0-0.1-0.1-0.1,0.1c0,0.1-0.1,0.4-0.3,0.6c-0.1,0-0.1,0-0.1,0c-0.1-0.3-0.3-0.5-0.4-0.7c-0.1-0.1-0.1,0-0.1,0.1
				c0,0.4-0.2,1.2-0.7,1.6c-0.1,0.1-0.1,0.1-0.1,0c-0.1-0.8-0.7-1.4-0.7-1.4s0.6,0.2,0.8,0.6c0,0.1,0.1,0.1,0.1,0
				c0.3-0.3,0.4-1.1,0.4-1.4c0-0.1,0-0.1,0.1-0.1c0.2,0.1,0.5,0.3,0.7,0.6c0,0.1,0.1,0.1,0.1,0c0.1-0.1,0.2-0.3,0.2-0.4
				c0-0.1,0.1-0.1,0.1,0c0.1,0.1,0.3,0.3,0.4,0.6C57.5,47.4,57.4,47.3,57.3,47.3z M73.1,49.6l-0.5-0.7c-0.1-0.1-0.1-0.2-0.2-0.2
				L72,48.4c-0.1,0,0-0.1,0-0.1h0.6c0.1,0,0.2,0.1,0.2,0.2L73.1,49.6C73.2,49.6,73.2,49.6,73.1,49.6z"/>
		</g>
	</g>
	<g>
		<path class="st1" d="M54.4,43.1"/>
	</g>
	<g>
		<path class="st1" d="M54.8,42.2"/>
	</g>
	<g>
		<g>
			<path class="st1" d="M54.5,34.9l0.3,0.1l0,0c0,0.1,0,0.4,0.2,0.7h0.1v-0.1h0.1c0,0.1,0.1,0.3,0.3,0.5c0,0,0.1,0,0,0
				c0,0,0,0,0-0.1s0-0.1,0-0.1c0.1,0.1,0.2,0.4,0.4,0.5l0,0l0.4-0.7l0,0v-0.1c0-0.1,0-0.2,0-0.2c0-0.1,0-0.1,0.1-0.2v-0.1h-0.1h-0.1
				l-1-0.6c-0.1-0.1,0-0.2,0-0.2c0.1-0.2,0.1-0.3,0.1-0.5l0,0l0,0l0,0c0,0,0-0.1,0-0.2c0-0.1-0.1-0.2-0.3-0.2c0,0,0,0-0.1,0
				c0.1,0,0.1,0.1,0.1,0.1v0.1l0,0l0,0h-0.1h-0.1v-0.1l0,0l0,0l0,0c0,0,0-0.1-0.1-0.1c-0.1-0.1-0.2-0.1-0.4,0l0,0c0.1,0,0.1,0,0.2,0
				c0,0,0,0,0,0.1l0,0l-0.1,0.2l0,0l-0.1-0.1l0,0l0,0l-0.1-0.1c-0.1,0-0.3,0-0.3,0.2c0,0,0,0,0,0.1c0-0.1,0.1-0.1,0.2-0.1
				c0.1,0,0.1,0.1,0.1,0.1l0,0l0,0l0,0v0.1l0,0l0,0l0,0h-0.1c-0.1,0-0.2,0.2-0.1,0.3l0,0c0-0.1,0-0.1,0.1-0.1h0.1l0,0l0,0
				c0,0.1,0.1,0.2,0.2,0.2h0.1l0,0L54.5,34.9L54.5,34.9z"/>
		</g>
		<g>
			<path class="st1" d="M66.2,36.3C66.2,36.2,66.2,36.2,66.2,36.3c-0.1,0.1-0.1,0.2-0.2,0.2l0,0c0-0.2,0-0.7-0.3-1h-0.1
				c0,0.1,0,0.2,0,0.2l0,0c0-0.1-0.1-0.2-0.2-0.2l0,0c0,0.2-0.3,0.2-0.5,0.2c-0.3,0-0.6-0.1-0.9-0.3c-0.1,0-0.1-0.1-0.2-0.1l0,0
				c0,0-0.3-0.1-0.3-0.2l0,0c0.1,0,0.5,0.1,0.6,0.2c0,0,0,0,0.1,0s0.2,0,0.3,0c0.3,0,0.6-0.1,0.8-0.3c0.4-0.4,0-0.8-0.4-1
				c-1.2-0.4-1.9,0.3-3.4,0.4c-0.6,0-1.1-0.1-1.3-0.2c-0.4-0.3-0.1-0.7,0.3-0.8c-0.2,0.1-0.2,0.3,0.1,0.3c0.2,0,0.4,0,0.5,0l0,0
				c0-0.2,0.1-0.3,0.3-0.3l0,0c0,0,0.1,0.1,0.1,0.3l0,0c0.1-0.1,0.1-0.2,0.2-0.3l0,0c0,0,0,0.1,0,0.2l0,0c0.2-0.2,0.3-0.5,0-0.6
				c-0.7-0.2-2.3,0.2-2.2,1c0.1,0.5,0.8,0.6,1,0.6c1.2,0.1,2.2-0.4,2.9-0.5c0.4-0.1,0.9-0.1,1.2,0.2s-0.2,0.5-0.4,0.6
				c-0.8,0.1-1.6-0.1-2.4-0.1l0,0c-0.9,0-1.8,0.1-2.6,0.2c0,0-0.1,0,0,0.1c0,0.1,0.1,0.2,0.2,0.4c0,0,0,0.1,0,0
				c-0.1,0-0.2,0-0.2-0.1l0,0c0,0.1-0.1,0.2-0.1,0.3c0-0.1,0-0.3,0-0.5l0,0h0.1c0,0,0.1,0,0,0c0-0.1-0.1-0.2-0.1-0.3v-0.1
				c0.1,0,0.3,0,0.4-0.1l0,0c-0.2-0.2-0.4-0.5-0.4-0.6c0,0,0-0.1,0.2-0.3c0,0,0,0,0-0.1c-0.1-0.2-0.2-0.3-0.4-0.4c0,0,0,0,0-0.1
				c0-0.2,0.1-0.3,0.2-0.4l0,0h-0.6v-0.4l0,0l-0.8,0.2c0,0-0.1,0-0.1-0.1v-0.1l0,0l-0.7,0.6c-0.1,0-0.1,0.1-0.1,0.1l-0.1,0.1h0.5
				l0,0l-0.4,0.2h-0.1l-0.1-0.2l-0.4,0.1c0,0-0.1,0-0.1,0.1s0,0.3,0,0.4l0,0l0,0l0.2,0.3l0,0v-0.2l0,0h0.1c0.1,0,0.1,0,0.1,0.1
				l0.2,0.2c0.1,0.1,0,0.2-0.1,0.2l0,0l0,0l-0.2-0.1c0,0-0.1,0,0,0l0.1,0.2l0,0l0,0l0,0l0.1,0.1l0,0v0.2l0,0c0,0,0.1,0,0.2,0
				l0.1-0.1l0,0l0.1-0.1c0.1-0.1,0.1-0.1,0.2-0.1l0.2-0.1c0,0,0.1,0,0.1-0.1l0.1-0.3c0-0.1,0-0.1-0.1-0.1l-0.3-0.2c0,0,0,0,0-0.1
				l0.2-0.2l0,0l-0.1,0.1l0,0l0.3,0.2c0.1,0.1,0.1,0.1,0.1,0.2l-0.2,0.4l-0.1,0.1l-0.2,0.1c-0.1,0-0.1,0.1-0.2,0.1
				c-0.1,0.1-0.2,0.3-0.2,0.3l0,0c-0.2,0.2-0.1,0.4-0.1,0.6l0,0l-0.3,0.4l0,0c0.1,0,0.2-0.1,0.3-0.1c0.2,0,0.3,0,0.4,0
				c0.1,0,0.2-0.2,0.2-0.2s0,0.3,0,0.4c-0.1,0.1-0.1,0-0.2,0c-0.5-0.1-0.9,0.1-1.2,0.4l0,0L55.2,37c-0.1,0-0.2,0-0.2,0v-0.2l0,0
				l-0.2-0.2l0,0l0,0l0,0c0,0,0-0.1-0.1-0.1c-0.1-0.1-0.3,0-0.3,0.1c0,0,0,0,0,0.1c0,0,0.1,0,0.2,0c0,0,0,0,0.1,0.1l0,0l0,0l0,0v0.1
				l0,0l-0.1-0.1l0,0l0,0c0,0-0.1-0.1-0.2-0.1c-0.1,0-0.3,0.1-0.3,0.2c0,0,0,0,0,0.1c0-0.1,0.1-0.1,0.1-0.1h0.1l0,0l0,0l0,0l0.1,0.2
				l0,0l0,0l0,0c-0.1,0-0.1,0-0.2,0c-0.1,0.1-0.1,0.2-0.1,0.3l0,0c0-0.1,0-0.1,0.1-0.2h0.1l0,0l0.1,0.2l0,0h0.1l0,0l0,0
				c0,0,0,0-0.1,0.1s0,0.2,0.1,0.3l0,0c0,0-0.1-0.1,0-0.1c0,0,0-0.1,0.1-0.1l0,0h0.2l0,0c0.1,0,0.1-0.1,0.2-0.1l0,0h0.6l0,0l0.2-0.1
				l0,0c0.1,0,0.6,0,0.9,0c0,0,0.1-0.1,0-0.1l0,0v-0.1c0.1,0,0.4,0.1,0.6,0.1v-0.1c-0.1,0-0.1-0.1,0-0.1c0.5,0.1,1,0,1.4-0.3l0,0
				l0.1-0.4v-0.2h0.1c0,0.1,0,0.1,0.1,0.1c1.1-0.2,1.5-0.8,2.5-1.1c-0.3,0.2-0.4,0.7-0.3,0.9l0,0l0,0l0,0c0,0.1,0,0.2,0.1,0.3l0,0
				c0-0.1,0-0.1,0.1-0.1l0,0l0.1,0.2l0,0c-0.2,0.4-0.5,0.4-0.9,0.5c0,0-0.1,0-0.1-0.1v-0.2l0,0h-0.1l0,0c0-0.1-0.1-0.2-0.1-0.2
				c-0.1-0.1-0.3-0.1-0.4,0l0,0c0.1,0,0.1,0,0.2,0c0,0,0,0,0,0.1l0,0l0,0l0,0l-0.1,0.1l0,0l-0.2-0.1c0,0,0,0-0.1,0l0,0l0,0h-0.1
				c-0.1,0-0.3,0.1-0.3,0.2c0,0,0,0,0,0.1c0-0.1,0.1-0.1,0.1-0.1c0.1,0,0.2,0.1,0.2,0.2l0,0c-0.1,0-0.1,0-0.2,0
				c-0.1,0.1-0.1,0.2-0.1,0.3l0,0c0-0.1,0-0.1,0.1-0.2h0.1l0,0l0,0l0.1,0.1l0,0l-0.1,0.1c-0.1,0.1,0,0.2,0.1,0.3l0,0
				c0,0-0.1-0.1,0-0.1l0,0l0,0l0,0l0.2,0.1l0,0l0.3-0.1c0,0,0,0,0.1,0h1.6c0,0,0,0,0-0.1c-0.1-0.1,0.2-0.3,0.3-0.3
				c0.1-0.1,0.3-0.2,0.4-0.3c0,0,0-0.1,0,0l0,0c0,0-0.1,0,0,0c0-0.1,0.1-0.3,0.1-0.4c0,0,0,0-0.1,0s-0.1,0-0.2,0l0,0v-0.2
				c0,0,0,0,0-0.1l0.2-0.1c0,0-0.1-0.3-0.5-0.6c-0.1-0.1-0.4-0.2-0.4-0.2c0.5,0,0.7,0.2,1,0.5s0.6,0.6,1,0.8c0,0,0.1,0,0.1-0.1l0,0
				c0,0,0-0.1,0.1-0.1c0.2,0.1,0.4,0.2,0.6,0.2h0.1c-0.1-0.3,0.4-0.3,0.6-0.3l0,0c0.1,0.1,0.3,0.2,0.2,0.5c0,0.1-0.1,0.1-0.1,0.1
				h-0.1l0,0c0,0,0-0.1-0.1-0.1c-0.1-0.1-0.3-0.1-0.4,0l0,0c0.1,0,0.1,0,0.2,0c0,0,0.1,0.1,0,0.1l0,0l-0.1,0.1l0,0l0,0l0,0
				c0,0-0.1-0.1-0.2-0.1s-0.3,0.1-0.3,0.2c0,0,0,0,0,0.1c0-0.1,0.1-0.1,0.1-0.1s0.1,0,0.1,0.1l0,0l0,0l0.1,0.2l0,0h0.1l0,0
				c-0.1,0.1,0,0.2,0.1,0.3c0,0,0,0,0.1,0c0,0,0-0.1,0-0.2h0.1h0.3c0,0,0,0,0.1,0l0.1-0.1l0,0c0,0.1,0,0.2,0.2,0.3c0,0,0,0,0.1,0
				l-0.1-0.1c0,0,0,0,0-0.1l0,0l0.2-0.1l0,0C66.1,37.3,66.4,36.8,66.2,36.3z M57.7,33.5C57.7,33.5,57.6,33.5,57.7,33.5l0.1-0.3v-0.1
				l0,0l-0.2,0.1l0,0l0.3-0.3l0,0l0.1,0.3c0,0.1,0,0.1,0,0.1C57.8,33.4,57.7,33.5,57.7,33.5z M58.8,35.6
				C58.8,35.5,58.7,35.5,58.8,35.6c-0.1,0.1-0.1,0.2-0.2,0.3c0,0,0,0-0.1,0c-0.1-0.1-0.1-0.2-0.2-0.3h-0.1c0,0.2-0.1,0.5-0.3,0.7
				c0,0,0,0-0.1,0c0-0.3-0.3-0.6-0.3-0.6s0.2,0,0.3,0.2l0,0c0.1-0.1,0.1-0.5,0.1-0.6l0,0c0.1,0,0.2,0.1,0.3,0.3c0,0,0,0,0.1,0
				c0,0,0.1-0.1,0.1-0.2c0,0,0,0,0.1,0s0.1,0.2,0.2,0.3C58.9,35.6,58.8,35.6,58.8,35.6z"/>
		</g>
	</g>
	<g>
		<g>
			<path class="st1" d="M54.5,58.4l0.3,0.1l0,0c0,0.1,0,0.4,0.2,0.7h0.1v-0.1h0.1c0,0.1,0.1,0.3,0.3,0.5c0,0,0.1,0,0,0
				c0,0,0,0,0-0.1s0-0.1,0-0.1c0.1,0.1,0.2,0.4,0.4,0.5l0,0l0.4-0.7l0,0v-0.1c0-0.1,0-0.2,0-0.2c0-0.1,0-0.1,0.1-0.2v-0.1h-0.1h-0.1
				l-1-0.6c-0.1-0.1,0-0.2,0-0.2c0.1-0.2,0.1-0.3,0.1-0.5l0,0l0,0l0,0c0,0,0-0.1,0-0.2c0-0.1-0.1-0.2-0.3-0.2c0,0,0,0-0.1,0
				c0.1,0,0.1,0.1,0.1,0.1v0.1l0,0l0,0h-0.1h-0.1V57l0,0l0,0l0,0c0,0,0-0.1-0.1-0.1c-0.1-0.1-0.2-0.1-0.4,0l0,0c0.1,0,0.1,0,0.2,0
				c0,0,0,0,0,0.1l0,0l-0.1,0.2l0,0l-0.1-0.1l0,0l0,0l-0.1-0.1c-0.1,0-0.3,0-0.3,0.2c0,0,0,0,0,0.1c0-0.1,0.1-0.1,0.2-0.1
				c0.1,0,0.1,0.1,0.1,0.1l0,0l0,0l0,0v0.1l0,0l0,0l0,0h-0.1c-0.1,0-0.2,0.2-0.1,0.3l0,0c0-0.1,0-0.1,0.1-0.1h0.1l0,0l0,0
				c0,0.1,0.1,0.2,0.2,0.2h0.1l0,0L54.5,58.4L54.5,58.4z"/>
		</g>
		<g>
			<path class="st1" d="M66.2,59.7L66.2,59.7c-0.1,0.1-0.1,0.2-0.2,0.2l0,0c0-0.2,0-0.7-0.3-1h-0.1c0,0.1,0,0.2,0,0.2l0,0
				c0-0.1-0.1-0.2-0.2-0.2l0,0c0,0.2-0.3,0.2-0.5,0.2c-0.3,0-0.6-0.1-0.9-0.3c-0.1,0-0.1-0.1-0.2-0.1l0,0c0,0-0.3-0.1-0.3-0.2l0,0
				c0.1,0,0.5,0.1,0.6,0.2c0,0,0,0,0.1,0s0.2,0,0.3,0c0.3,0,0.6-0.1,0.8-0.3c0.4-0.4,0-0.8-0.4-1c-1.2-0.4-1.9,0.3-3.4,0.4
				c-0.6,0-1.1-0.1-1.3-0.2c-0.4-0.3-0.1-0.7,0.3-0.8c-0.2,0.1-0.2,0.3,0.1,0.3c0.2,0,0.4,0,0.5,0l0,0c0-0.2,0.1-0.3,0.3-0.3l0,0
				c0,0,0.1,0.1,0.1,0.3l0,0c0.1-0.1,0.1-0.2,0.2-0.3l0,0c0,0,0,0.1,0,0.2l0,0c0.2-0.2,0.3-0.5,0-0.6c-0.7-0.2-2.3,0.2-2.2,1
				c0.1,0.5,0.8,0.6,1,0.6c1.2,0.1,2.2-0.4,2.9-0.5c0.4-0.1,0.9-0.1,1.2,0.2s-0.2,0.5-0.4,0.6c-0.8,0.1-1.6-0.1-2.4-0.1l0,0
				c-0.9,0-1.8,0.1-2.6,0.2c0,0-0.1,0,0,0.1c0,0.1,0.1,0.2,0.2,0.4c0,0,0,0.1,0,0c-0.1,0-0.2,0-0.2-0.1l0,0c0,0.1-0.1,0.2-0.1,0.3
				c0-0.1,0-0.3,0-0.5l0,0h0.1c0,0,0.1,0,0,0c0-0.1-0.1-0.2-0.1-0.3v-0.1c0.1,0,0.3,0,0.4-0.1l0,0c-0.2-0.2-0.4-0.5-0.4-0.6
				c0,0,0-0.1,0.2-0.3c0,0,0,0,0-0.1c-0.1-0.2-0.2-0.3-0.4-0.4c0,0,0,0,0-0.1c0-0.2,0.1-0.3,0.2-0.4l0,0h-0.6v-0.4l0,0l-0.8,0.2
				c0,0-0.1,0-0.1-0.1v-0.1l0,0l-0.7,0.6c-0.1,0-0.1,0.1-0.1,0.1l-0.1,0.1h0.5l0,0L56.8,57h-0.1l-0.1-0.2l-0.4,0.1
				c0,0-0.1,0-0.1,0.1s0,0.3,0,0.4l0,0l0,0l0.2,0.3l0,0v-0.2l0,0h0.1c0.1,0,0.1,0,0.1,0.1l0.2,0.2c0.1,0.1,0,0.2-0.1,0.2l0,0l0,0
				l-0.2-0.1c0,0-0.1,0,0,0l0.1,0.2l0,0l0,0l0,0l0.1,0.1l0,0v0.2l0,0c0,0,0.1,0,0.2,0l0.1-0.1l0,0l0.1-0.1c0.1-0.1,0.1-0.1,0.2-0.1
				l0.2-0.1c0,0,0.1,0,0.1-0.1l0.1-0.3c0-0.1,0-0.1-0.1-0.1l-0.3-0.2c0,0,0,0,0-0.1l0.2-0.2l0,0l-0.1,0.1l0,0l0.3,0.2
				c0.1,0.1,0.1,0.1,0.1,0.2L57.6,58l-0.1,0.1l-0.2,0.1c-0.1,0-0.1,0.1-0.2,0.1c-0.1,0.1-0.2,0.3-0.2,0.3l0,0
				c-0.2,0.2-0.1,0.4-0.1,0.6l0,0l-0.3,0.4l0,0c0.1,0,0.2-0.1,0.3-0.1c0.2,0,0.3,0,0.4,0c0.1,0,0.2-0.2,0.2-0.2s0,0.3,0,0.4
				c-0.1,0.1-0.1,0-0.2,0c-0.5-0.1-0.9,0.1-1.2,0.4l0,0l-0.9,0.2c-0.1,0-0.2,0-0.2,0l0.1-0.1l0,0L54.8,60l0,0l0,0l0,0
				c0,0,0-0.1-0.1-0.1c-0.1-0.1-0.3,0-0.3,0.1c0,0,0,0,0,0.1c0,0,0.1,0,0.2,0c0,0,0,0,0.1,0.1l0,0l0,0l0,0v0.1l0,0l-0.1-0.1l0,0l0,0
				c0,0-0.1-0.1-0.2-0.1c-0.1,0-0.3,0.1-0.3,0.2c0,0,0,0,0,0.1c0-0.1,0.1-0.1,0.1-0.1h0.1l0,0l0,0l0,0l0.1,0.2l0,0l0,0l0,0
				c-0.1,0-0.1,0-0.2,0c-0.1,0.1-0.1,0.2-0.1,0.3l0,0c0-0.1,0-0.1,0.1-0.2h0.1l0,0l0.1,0.2l0,0h0.1l0,0l0,0c0,0,0,0-0.1,0.1
				s0,0.2,0.1,0.3l0,0c0,0-0.1-0.1,0-0.1c0,0,0-0.1,0.1-0.1l0,0h0.2l0,0c0.1,0,0.1-0.1,0.2-0.1l0,0h0.6l0,0l0.2-0.1l0,0
				c0.1,0,0.6,0,0.9,0c0,0,0.1-0.1,0-0.1l0,0v-0.1c0.1,0,0.4,0.1,0.6,0.1v-0.1c-0.1,0-0.1-0.1,0-0.1c0.5,0.1,1,0,1.4-0.3l0,0
				l0.1-0.4v-0.2h0.1c0,0.1,0,0.1,0.1,0.1c1.1-0.2,1.5-0.8,2.5-1.1c-0.3,0.2-0.4,0.7-0.3,0.9l0,0l0,0l0,0c0,0.1,0,0.2,0.1,0.3l0,0
				c0-0.1,0-0.1,0.1-0.1l0,0l0.1,0.2l0,0c-0.2,0.4-0.5,0.4-0.9,0.5c0,0-0.1,0-0.1-0.1v-0.2l0,0h-0.1l0,0c0-0.1-0.1-0.2-0.1-0.2
				c-0.1-0.1-0.3-0.1-0.4,0l0,0c0.1,0,0.1,0,0.2,0c0,0,0,0,0,0.1l0,0l0,0l0,0l-0.1,0.1l0,0l-0.2-0.1c0,0,0,0-0.1,0l0,0l0,0h-0.1
				c-0.1,0-0.3,0.1-0.3,0.2c0,0,0,0,0,0.1c0-0.1,0.1-0.1,0.1-0.1c0.1,0,0.2,0.1,0.2,0.2l0,0c-0.1,0-0.1,0-0.2,0
				c-0.1,0.1-0.1,0.2-0.1,0.3l0,0c0-0.1,0-0.1,0.1-0.2h0.1l0,0l0,0l0.1,0.1l0,0l-0.1,0.1c-0.1,0.1,0,0.2,0.1,0.3l0,0
				c0,0-0.1-0.1,0-0.1l0,0l0,0l0,0l0.2,0.1l0,0l0.3-0.1c0,0,0,0,0.1,0h1.6c0,0,0,0,0-0.1c-0.1-0.1,0.2-0.3,0.3-0.3
				c0.1-0.1,0.3-0.2,0.4-0.3c0,0,0-0.1,0,0l0,0c0,0-0.1,0,0,0c0-0.1,0.1-0.3,0.1-0.4c0,0,0,0-0.1,0s-0.1,0-0.2,0l0,0v-0.2
				c0,0,0,0,0-0.1l0.2-0.1c0,0-0.1-0.3-0.5-0.6c-0.1-0.1-0.4-0.2-0.4-0.2c0.5,0,0.7,0.2,1,0.5s0.6,0.6,1,0.8c0,0,0.1,0,0.1-0.1l0,0
				c0,0,0-0.1,0.1-0.1c0.2,0.1,0.4,0.2,0.6,0.2h0.1C64.3,60,64.8,60,65,60l0,0c0.1,0.1,0.3,0.2,0.2,0.5c0,0.1-0.1,0.1-0.1,0.1H65
				l0,0c0,0,0-0.1-0.1-0.1c-0.1-0.1-0.3-0.1-0.4,0l0,0c0.1,0,0.1,0,0.2,0c0,0,0.1,0.1,0,0.1l0,0l-0.1,0.1l0,0l0,0l0,0
				c0,0-0.1-0.1-0.2-0.1s-0.3,0.1-0.3,0.2c0,0,0,0,0,0.1c0-0.1,0.1-0.1,0.1-0.1s0.1,0,0.1,0.1l0,0l0,0l0.1,0.2l0,0h0.1l0,0
				c-0.1,0.1,0,0.2,0.1,0.3c0,0,0,0,0.1,0c0,0,0-0.1,0-0.2h0.1h0.3c0,0,0,0,0.1,0l0.1-0.1l0,0c0,0.1,0,0.2,0.2,0.3c0,0,0,0,0.1,0
				l-0.1-0.1c0,0,0,0,0-0.1l0,0l0.2-0.1l0,0C66.1,60.7,66.4,60.3,66.2,59.7z M57.7,57C57.7,57,57.6,57,57.7,57l0.1-0.3v-0.1l0,0
				l-0.2,0.1l0,0l0.3-0.3l0,0l0.1,0.3c0,0.1,0,0.1,0,0.1C57.8,56.8,57.7,56.9,57.7,57z M58.8,59C58.8,59,58.7,59,58.8,59
				c-0.1,0.1-0.1,0.2-0.2,0.3c0,0,0,0-0.1,0c-0.1-0.1-0.1-0.2-0.2-0.3h-0.1c0,0.2-0.1,0.5-0.3,0.7c0,0,0,0-0.1,0
				c0-0.3-0.3-0.6-0.3-0.6s0.2,0,0.3,0.2l0,0c0.1-0.1,0.1-0.5,0.1-0.6l0,0c0.1,0,0.2,0.1,0.3,0.3c0,0,0,0,0.1,0c0,0,0.1-0.1,0.1-0.2
				c0,0,0,0,0.1,0s0.1,0.2,0.2,0.3C58.9,59,58.8,59,58.8,59z"/>
		</g>
	</g>
</g>
</svg>
