<?xml version="1.0" encoding="utf-8"?>
<!-- Generator: Adobe Illustrator 25.3.0, SVG Export Plug-In . SVG Version: 6.00 Build 0)  -->
<svg version="1.1" id="Layer_1" xmlns="http://www.w3.org/2000/svg" xmlns:xlink="http://www.w3.org/1999/xlink" x="0px" y="0px"
	 viewBox="0 0 170 80" style="enable-background:new 0 0 170 80;" xml:space="preserve">
<style type="text/css">
	.st0{fill:#FFFFFF;}
</style>
<g>
	<path d="M93.0653152,48.2508583c0.0737915-0.0294838,0.1360855-0.0701408,0.186882-0.1218605
		c0.0507355-0.051609,0.0894852-0.1130295,0.1162949-0.1840935c0.0267029-0.0710678,0.0401154-0.1490555,0.0401154-0.2340202
		c0-0.0830536-0.0138474-0.160553-0.0414734-0.2325439c-0.0277405-0.0719948-0.0669785-0.1338501-0.1177216-0.1855698
		c-0.0507889-0.051609-0.1130829-0.0922661-0.1868744-0.1218033c-0.0738449-0.0294838-0.1569595-0.0443077-0.2492218-0.0443077
		h-0.124588v1.1685066h0.124588C92.907486,48.295166,92.9914169,48.2803955,93.0653152,48.2508583z"/>
	<path d="M86.9917068,47.2983284c-0.05439-0.0516624-0.1172256-0.091774-0.1882935-0.1204414
		c-0.0710068-0.0286102-0.1462708-0.0428886-0.2256241-0.0428886c-0.0793991,0-0.1546097,0.0142784-0.2256775,0.0428886
		c-0.0710678,0.0286674-0.1334152,0.068779-0.1868744,0.1204414c-0.0535736,0.0517197-0.0960236,0.1125946-0.1274185,0.1827354
		c-0.031395,0.0701942-0.0470352,0.1467667-0.0470352,0.2298203c0,0.0831108,0.0156403,0.1596832,0.0470352,0.2298241
		c0.031395,0.0701942,0.0738449,0.1311226,0.1274185,0.1827888c0.0534592,0.0516624,0.1158066,0.0918274,0.1868744,0.1204414
		c0.0710678,0.0286636,0.1462784,0.0428886,0.2256775,0.0428886c0.0479584,0,0.0959778-0.0055046,0.1439896-0.0166206
		l-0.3101501-0.3267212l0.5122299-0.063652l0.144043,0.1522675c0.0664291-0.0922661,0.099678-0.1993561,0.099678-0.3212166
		c0-0.0830536-0.0157013-0.159626-0.0470886-0.2298203C87.0890961,47.410923,87.0461502,47.3500481,86.9917068,47.2983284z"/>
	<path d="M108.9955063,43.7622375c0.2107468-1.2348328,0.316803-2.4908104,0.316803-3.7622643
		c0-3.1259918-0.640686-6.1584091-1.9042969-9.0130501c-1.2218628-2.7604694-2.972084-5.2405415-5.2019501-7.3712769
		c-2.2200089-2.1213074-4.8040085-3.7891865-7.680397-4.9587288c-0.0164566-0.0067024-0.0326462-0.0138969-0.0491028-0.020546
		c-1.0787506-0.435936-2.1818542-0.7942638-3.3050232-1.0748787c-2.0010223-0.5000248-4.0659256-0.7527351-6.1715927-0.7527351
		c-3.287529,0-6.4759216,0.6149082-9.4765091,1.8276138c-2.896225,1.170578-5.4967957,2.8458138-7.7295532,4.9792747
		c-2.2298126,2.1307354-3.9800377,4.6108074-5.2019005,7.3712769c-0.8379173,1.8929024-1.4015427,3.8640137-1.6864624,5.8887482
		c-0.1198959,0.8516502-0.1904182,1.7127838-0.2111244,2.581604c-0.0043068,0.1805534-0.0067062,0.3614883-0.0067062,0.5426979
		c0,0.1846428,0.0023994,0.3689003,0.0068665,0.5528336c0.0711784,2.9307213,0.7084846,5.7741928,1.8974266,8.4602165
		c1.100441,2.4861221,2.630764,4.7437859,4.5526619,6.7246475c0.2121048,0.2186508,0.427597,0.4348488,0.6492386,0.6466293
		c2.2327576,2.133461,4.8333282,3.8087502,7.7295532,4.9792747c3.0005875,1.2127037,6.1889801,1.8276138,9.4765091,1.8276138
		c3.2875824,0,6.4759674-0.6149101,9.4766159-1.8276138c2.896225-1.1705246,5.4967957-2.8458138,7.7294998-4.9792747
		c2.1939468-2.0963478,3.9223251-4.5315132,5.1412964-7.2386284c0.0199432-0.0443611,0.0409851-0.0881233,0.0606537-0.1326485
		C108.1576462,47.3194771,108.6880264,45.5633621,108.9955063,43.7622375z M97.2408447,48.223175h-0.7947006v-0.4181175h0.7947006
		V48.223175z M96.0474319,48.1040955c0,0.10709-0.0179825,0.2039871-0.0540085,0.2907486
		c-0.035965,0.0867615-0.088562,0.1610451-0.1578293,0.2229004c-0.0692139,0.0618553-0.1541214,0.1098137-0.254776,0.1439857
		c-0.1006088,0.0341148-0.2145615,0.0512276-0.3419266,0.0512276c-0.1686172,0-0.3292847-0.0323715-0.4820938-0.0964088
		c-0.0863876-0.0361862-0.1703644-0.0822906-0.2516785-0.1389694l0.2325974-0.4374619
		c0.0812073,0.0719376,0.1615372,0.1255112,0.2408905,0.1606064c0.0793991,0.0350418,0.1578217,0.0525932,0.2353745,0.0525932
		c0.0886154,0,0.1545639-0.0202751,0.197998-0.0609322c0.0433273-0.0405998,0.0650177-0.0867615,0.0650177-0.1384811
		c0-0.0313339-0.0055084-0.0585289-0.0166245-0.0816383c-0.0110092-0.0231056-0.029541-0.0443077-0.0553741-0.0637093
		c-0.0258865-0.0193443-0.0594559-0.037384-0.1010361-0.0540085c-0.0415268-0.0165672-0.0918884-0.0350418-0.1509094-0.0553131
		c-0.0701904-0.0221825-0.138916-0.0466537-0.2062759-0.07341c-0.0674133-0.0267601-0.1273651-0.062294-0.1799545-0.1066017
		c-0.0526505-0.0443077-0.0951004-0.1001129-0.1274185-0.1675301c-0.0322647-0.0673599-0.0484467-0.1527023-0.0484467-0.2560883
		c0-0.1033821,0.0170517-0.1970673,0.0512238-0.2810478c0.0341721-0.0839844,0.0821304-0.1560326,0.1439896-0.2160339
		c0.0618515-0.059948,0.1374969-0.1065979,0.2270432-0.1397896c0.0895386-0.0332451,0.1896515-0.0498657,0.3004456-0.0498657
		c0.1033325,0,0.2113495,0.0143318,0.3239975,0.0429459c0.1125412,0.0286102,0.2205582,0.0705757,0.3239365,0.125946
		l-0.2159729,0.4236717c-0.059082-0.0480118-0.1181564-0.0834923-0.1772308-0.1065979
		c-0.0590744-0.023056-0.1163025-0.0346069-0.171669-0.0346069c-0.0701981,0-0.1273651,0.0166206-0.1716766,0.0498123
		c-0.0443039,0.0332413-0.0664291,0.076622-0.0664291,0.1301422c0,0.0369492,0.0110626,0.0674133,0.0332413,0.0913925
		c0.0221252,0.0239792,0.0512314,0.0447426,0.0871964,0.062294c0.0359726,0.0175476,0.0765762,0.0328064,0.1218033,0.045723
		c0.0452347,0.0129166,0.0899811,0.0267601,0.134346,0.0414734c0.1771698,0.0591316,0.3068237,0.1380463,0.3890076,0.2367439
		c0.051506,0.0620193,0.0868759,0.1358109,0.1060562,0.2213745C96.0417099,47.989975,96.0474319,48.0449638,96.0474319,48.1040955z
		 M86.7100601,53.5025711l0.2881927-0.0266495c0.0244141,0.1354828,0.0710602,0.2337456,0.139946,0.2947845
		c0.0688324,0.0611458,0.1570663,0.0916672,0.2648163,0.0916672c0.0922089,0,0.1729736-0.0210915,0.2424088-0.0633278
		c0.0693741-0.0421829,0.1262741-0.0985336,0.1706848-0.1690559c0.0444717-0.0705223,0.0816422-0.1657295,0.111618-0.2856827
		c0.0299759-0.1199493,0.0450134-0.2420845,0.0450134-0.3664474c0-0.0133553-0.0005417-0.0333557-0.0016327-0.0600052
		c-0.0600052,0.0955353-0.1419678,0.1729813-0.2457886,0.2323837s-0.2162552,0.0891609-0.3372955,0.0891609
		c-0.2021332,0-0.3731003-0.0733032-0.5130463-0.2199593c-0.1399002-0.1465988-0.2099304-0.339798-0.2099304-0.5796471
		c0-0.2476425,0.0730286-0.447052,0.2190857-0.5980682c0.1459961-0.1510162,0.3290024-0.2265511,0.548851-0.2265511
		c0.1588135,0,0.3040543,0.0427818,0.4356613,0.1282883c0.1315613,0.0855103,0.2315674,0.2074242,0.2998581,0.3656883
		c0.0682297,0.1582069,0.1024017,0.3872681,0.1024017,0.6871185c0,0.3120613-0.0338974,0.5605202-0.1015854,0.7454338
		c-0.0677414,0.1849136-0.1685638,0.3256836-0.3023605,0.4222565c-0.1338501,0.0966263-0.2906418,0.1449127-0.4705963,0.1449127
		c-0.1910172,0-0.3470459-0.0529747-0.4680862-0.1590843C86.8072281,53.8437347,86.7344742,53.6946793,86.7100601,53.5025711z
		 M87.8155136,48.8129578l-0.4983902,0.0774994l-0.1910782-0.196579c-0.0812531,0.0369492-0.1675262,0.0659447-0.2589188,0.0872002
		c-0.0913391,0.0211983-0.1878586,0.0318794-0.2893372,0.0318794c-0.1698685,0-0.3253555-0.0281754-0.4665604-0.0844727
		c-0.1412582-0.0562973-0.2626266-0.134285-0.3641586-0.233963c-0.1014786-0.099678-0.1808853-0.2164154-0.2381058-0.3502617
		c-0.0572281-0.1338501-0.0858383-0.2782707-0.0858383-0.4333763c0-0.1550484,0.0286102-0.299469,0.0858383-0.4333191
		c0.0572205-0.1337929,0.1366272-0.2505836,0.2381058-0.3502617c0.101532-0.099678,0.2229004-0.1776657,0.3641586-0.233963
		c0.1412048-0.0562973,0.2966919-0.0844727,0.4665604-0.0844727c0.1679688,0,0.3230133,0.0281754,0.4651489,0.0844727
		s0.2644806,0.134285,0.3669434,0.233963c0.1024017,0.099678,0.1822433,0.2164688,0.2394638,0.3502617
		c0.0572205,0.1338501,0.0858383,0.2782707,0.0858383,0.4333191c0,0.1439857-0.0234909,0.2778358-0.0705795,0.4015465
		c-0.0470886,0.1236572-0.1149368,0.2335281-0.2034988,0.3294449L87.8155136,48.8129578z M88.9050522,47.989212
		c0.0045776,0.063652,0.0184174,0.1213684,0.0415268,0.1730309c0.0230484,0.0517197,0.0595093,0.0937386,0.109375,0.1260033
		c0.0498657,0.0323181,0.119957,0.0484467,0.2104263,0.0484467c0.0904083,0,0.1601105-0.0161285,0.2091064-0.0484467
		c0.0488358-0.0322647,0.085289-0.0742836,0.1093292-0.1260033c0.0239792-0.0516624,0.0383072-0.1093788,0.0429382-0.1730309
		c0.0045776-0.0637093,0.0069275-0.1260033,0.0069275-0.1869316v-1.1352615h0.539917v1.2100334
		c0,0.3249207-0.0743408,0.5620995-0.222847,0.7115898c-0.148674,0.1495438-0.3770752,0.2243156-0.6853714,0.2243156
		c-0.3083038,0-0.5371399-0.0747719-0.6866837-0.2243156c-0.1495514-0.1494904-0.2242661-0.3866692-0.2242661-0.7115898v-1.2100334
		h0.5427017v1.1352615C88.8981323,47.8632088,88.9004211,47.9255028,88.9050522,47.989212z M90.8889694,48.7548065v-2.0877876
		h0.5426941v2.0877876H90.8889694z M93.349144,46.7528534c0.124588,0.0572243,0.2334747,0.1334114,0.3267212,0.2284584
		c0.0931396,0.095047,0.1664963,0.2058411,0.2201233,0.3322792c0.0534592,0.1264343,0.0802765,0.2588692,0.0802765,0.3972931
		c0,0.1366844-0.026268,0.2681885-0.0789185,0.3946266c-0.0525894,0.1264381-0.1255646,0.2376671-0.2187576,0.3336411
		s-0.2021332,0.172596-0.3267136,0.2298203c-0.1246414,0.0572243-0.2589264,0.0858345-0.402916,0.0858345h-0.8029785v-2.0877876
		h0.8029785C93.0911484,46.6670189,93.2245102,46.6956825,93.349144,46.7528534z M89.8684235,52.9178543
		c-0.0600052,0.0955353-0.1419144,0.1729813-0.2457352,0.2323837s-0.2162476,0.0891609-0.3372879,0.0891609
		c-0.2021408,0-0.3731003-0.0733032-0.5130539-0.2199593c-0.1399002-0.1465988-0.2099304-0.339798-0.2099304-0.5796471
		c0-0.2476425,0.0730286-0.447052,0.2190857-0.5980682c0.1460037-0.1510162,0.32901-0.2265511,0.5488586-0.2265511
		c0.1588058,0,0.3040466,0.0427818,0.4356613,0.1282883c0.1315613,0.0855103,0.2315063,0.2074242,0.2997971,0.3656883
		c0.0682831,0.1582069,0.1024551,0.3872681,0.1024551,0.6871185c0,0.3120613-0.0338974,0.5605202-0.1015854,0.7454338
		c-0.0677414,0.1849136-0.1685638,0.3256836-0.3023605,0.4222565c-0.1338425,0.0966263-0.2906952,0.1449127-0.4705963,0.1449127
		c-0.1910172,0-0.3470459-0.0529747-0.4680862-0.1590843c-0.1210938-0.1060524-0.1938553-0.2551079-0.2182159-0.447216
		l0.2881927-0.0266495c0.0244141,0.1354828,0.0710144,0.2337456,0.1399002,0.2947845
		c0.0688324,0.0611458,0.1571198,0.0916672,0.2648621,0.0916672c0.0922089,0,0.1729202-0.0210915,0.2424088-0.0633278
		c0.0693741-0.0421829,0.1262741-0.0985336,0.1706924-0.1690559c0.0444717-0.0705223,0.0816345-0.1657295,0.1116104-0.2856827
		c0.0299759-0.1199493,0.0450134-0.2420845,0.0450134-0.3664474C89.8701096,52.9645042,89.8695679,52.9445038,89.8684235,52.9178543
		z M91.7657928,52.9178543c-0.0599976,0.0955353-0.1419144,0.1729813-0.2457275,0.2323837
		c-0.1038208,0.0594025-0.2162552,0.0891609-0.3373489,0.0891609c-0.2021408,0-0.3730469-0.0733032-0.5130005-0.2199593
		c-0.1399536-0.1465988-0.2099304-0.339798-0.2099304-0.5796471c0-0.2476425,0.0730286-0.447052,0.2190857-0.5980682
		c0.1460037-0.1510162,0.32901-0.2265511,0.5488586-0.2265511c0.1588135,0,0.3040466,0.0427818,0.4356079,0.1282883
		c0.1316147,0.0855103,0.2315674,0.2074242,0.2998505,0.3656883c0.0682907,0.1582069,0.1024628,0.3872681,0.1024628,0.6871185
		c0,0.3120613-0.0338974,0.5605202-0.1016464,0.7454338c-0.0676804,0.1849136-0.1685028,0.3256836-0.3022995,0.4222565
		c-0.1338501,0.0966263-0.2906952,0.1449127-0.4706497,0.1449127c-0.1909637,0-0.3469925-0.0529747-0.4680939-0.1590843
		c-0.1210403-0.1060524-0.1937943-0.2551079-0.2181549-0.447216l0.2881851-0.0266495
		c0.0243607,0.1354828,0.0710144,0.2337456,0.1399002,0.2947845c0.0688324,0.0611458,0.1571198,0.0916672,0.2648621,0.0916672
		c0.0921631,0,0.1729279-0.0210915,0.2423553-0.0633278c0.0694351-0.0421829,0.1263275-0.0985336,0.1707458-0.1690559
		s0.0816422-0.1657295,0.111618-0.2856827c0.0299683-0.1199493,0.0450134-0.2420845,0.0450134-0.3664474
		C91.7674866,52.9645042,91.7668839,52.9445038,91.7657928,52.9178543z M95.0123367,30.9641418h1.7749176v7.8170204v4.7686386
		h-1.7749176v-6.6664467V30.9641418z M91.9286957,35.6792603v3.1195068c0,0.9285469-0.0918884,2.0192299-0.4524002,2.933773
		c-0.0621796,0.1578827-0.1314468,0.3111343-0.2106857,0.4566994l1.126976,1.5062904l-1.0335693,0.7732811l-0.9587402-1.2814255
		c-0.4360428,0.3054085-0.9917145,0.4878693-1.6986694,0.4878693c-2.7870102,0-3.2270889-2.8326225-3.2270889-4.8764877v-3.1195068
		c0-1.1540642,0.1404419-2.5595322,0.7644043-3.5646515c0.4810028-0.7748623,1.249382-1.3118382,2.4626846-1.3118382
		C91.4886169,30.8027706,91.9286957,33.6354523,91.9286957,35.6792603z M82.9477386,46.6088676
		c0.1033325,0,0.2113495,0.0143318,0.3239441,0.0429459c0.1125412,0.0286102,0.2205582,0.0705757,0.3239365,0.125946
		l-0.2159729,0.4236717c-0.059082-0.0480118-0.118103-0.0834923-0.1771774-0.1065979
		c-0.0591278-0.023056-0.1163025-0.0346069-0.171669-0.0346069c-0.0701981,0-0.1274185,0.0166206-0.171669,0.0498123
		c-0.0443115,0.0332413-0.0664902,0.076622-0.0664902,0.1301422c0,0.0369492,0.0110626,0.0674133,0.0332413,0.0913925
		c0.0221252,0.0239792,0.0512314,0.0447426,0.0871964,0.062294c0.036026,0.0175476,0.0765762,0.0328064,0.1218643,0.045723
		c0.0451736,0.0129166,0.0899734,0.0267601,0.134285,0.0414734c0.1771698,0.0591316,0.3068771,0.1380463,0.389061,0.2367439
		c0.082077,0.0988045,0.1231689,0.2275314,0.1231689,0.3862877c0,0.0779877-0.0098114,0.1504135-0.0288849,0.2176132
		c-0.0070801,0.0250664-0.0153122,0.0495377-0.0250702,0.0731354c-0.0360184,0.0867615-0.0886154,0.1610451-0.1578827,0.2229004
		c-0.0692139,0.0618553-0.1541214,0.1098137-0.2547226,0.1439857c-0.1006622,0.0341148-0.2145615,0.0512276-0.34198,0.0512276
		c-0.2639389,0-0.5085297-0.0784225-0.7337723-0.2353783l0.2325974-0.4374619
		c0.0812073,0.0719376,0.1615372,0.1255112,0.2409439,0.1606064c0.0793457,0.0350418,0.1577682,0.0525932,0.235321,0.0525932
		c0.0886154,0,0.1545639-0.0202751,0.197998-0.0609322c0.0433807-0.0405998,0.0650711-0.0867615,0.0650711-0.1384811
		c0-0.0313339-0.0055618-0.0585289-0.0166245-0.0816383c-0.0099716-0.0207634-0.0268097-0.0398369-0.0487747-0.0576057
		c-0.0023956-0.0020142-0.0040359-0.0041962-0.0065918-0.0061035c-0.0258865-0.0193443-0.0595169-0.037384-0.1010971-0.0540085
		c-0.0056152-0.0022316-0.0118256-0.0045776-0.0177689-0.0069199c-0.0379333-0.0147705-0.082077-0.0308456-0.1331406-0.0483932
		c-0.070137-0.0221825-0.1388626-0.0466537-0.2062759-0.07341c-0.0674133-0.0267601-0.1273651-0.062294-0.1799545-0.1066017
		c-0.0425644-0.0358582-0.0781555-0.0796776-0.1074753-0.1306343c-0.0068665-0.012043-0.0137863-0.0240326-0.0198898-0.0368958
		c-0.0323181-0.0673599-0.0485001-0.1527023-0.0485001-0.2560883c0-0.1033821,0.0170517-0.1970673,0.0512238-0.2810478
		c0.0341721-0.0839844,0.0821304-0.1560326,0.144043-0.2160339c0.0617981-0.059948,0.1374969-0.1065979,0.2270432-0.1397896
		C82.7367783,46.6254883,82.8369446,46.6088676,82.9477386,46.6088676z M70.1055603,47.9379807l0.5067291-1.2709618h0.5897827
		l-0.8805389,2.0877876h-0.4319l-0.8778076-2.0877876h0.5898361L70.1055603,47.9379807z M71.6976852,46.6670189h0.5426941v2.0877876
		h-0.5426941V46.6670189z M72.9547501,46.6670189h0.5427017v0.8611336l0.5185013-0.6746941l0.1432724-0.1864395h0.6700592
		l-0.4854126,0.5795937l-0.3425293,0.4089012l0.9054413,1.0992928H74.203476l-0.7060242-0.9054413v0.9054413h-0.5427017V46.6670189z
		 M75.4246292,48.3730431v-1.7060242h0.5427017v2.0877876h-0.1313934h-0.4113083V48.3730431z M78.766655,48.7548065h-0.539917
		l-1.0023422-1.2764664v1.2764664h-0.5427475v-2.0877876h0.5427475l1.0023422,1.2764664v-1.2764664h0.539917V48.7548065z
		 M78.5209198,30.9641418l-1.7958374,8.7834473l-0.7774277,3.8022118h-1.3497696l-2.2030563-11.428215l-0.0510635-0.265028
		l-0.1720505-0.892416h1.6764297l1.4879303,9.2497368l1.4879227-9.2497368h0.7161636H78.5209198z M78.0711975,54.067234v-2.4420319
		h1.7657623v0.2881889h-1.4425812v0.7479401h1.3509674v0.286499h-1.3509674v0.8312149h0.6900558h0.8091431v0.2881889H78.623703
		H78.0711975z M81.56353,53.8298912c-0.0583115,0.0882874-0.1424026,0.1565742-0.252327,0.2049141
		c-0.1099777,0.0482864-0.2343445,0.0724297-0.3731537,0.0724297c-0.2298737,0-0.4050903-0.0477409-0.525589-0.1432762
		c-0.120491-0.0954819-0.1973953-0.237072-0.23069-0.4247093l0.296524-0.0466499
		c0.0166245,0.1188049,0.0630035,0.2098732,0.1390839,0.2731476c0.0760269,0.0633278,0.1824036,0.0949364,0.3189774,0.0949364
		c0.1377182,0,0.2399063-0.0280113,0.3065033-0.0840912c0.0666504-0.0560799,0.1000061-0.1219139,0.1000061-0.1973953
		c0-0.0677414-0.0294876-0.1210403-0.0882874-0.1599007c-0.0411453-0.0267029-0.14328-0.0606003-0.3065567-0.1016388
		c-0.219902-0.0555344-0.3722839-0.1035461-0.4572449-0.1441498c-0.0800552-0.038147-0.1411514-0.0906296-0.1847458-0.1564102
		c-0.0026779-0.0040321-0.0059433-0.0076294-0.0085068-0.0117722c-0.043869-0.0716095-0.0657806-0.1507988-0.0657806-0.2373962
		c0-0.078804,0.0180435-0.1518326,0.0541229-0.2190285c0.0360718-0.0671997,0.0852356-0.1230049,0.1474152-0.1674232
		c0.0466537-0.0344429,0.110199-0.0635986,0.1907425-0.0874672c0.0804977-0.0238724,0.1668777-0.0358086,0.2590332-0.0358086
		c0.0679626,0,0.1317825,0.0049591,0.1916199,0.0145531c0.0624008,0.0099716,0.1204987,0.025013,0.1740112,0.0453949
		c0.1049652,0.0399513,0.1824112,0.09412,0.2323837,0.1624069c0.0499802,0.0683441,0.0844193,0.1596832,0.1032791,0.2740746
		l-0.2931519,0.0399475c-0.0133514-0.091011-0.0519333-0.1621323-0.1157532-0.213253
		c-0.0250168-0.0200005-0.0553207-0.0348778-0.0884018-0.0470886c-0.051445-0.018856-0.1113892-0.0294838-0.1822968-0.0294838
		c-0.1377182,0-0.2360306,0.0227814-0.2948914,0.0682869c-0.0588608,0.0455093-0.0882874,0.0988617-0.0882874,0.1599007
		c0,0.0389137,0.012207,0.0739021,0.0366745,0.1049652c0.0039291,0.0052299,0.0088348,0.0100288,0.0135193,0.0149307
		c0.0242538,0.0255089,0.057663,0.0473061,0.1014252,0.0650177c0.0299683,0.0110626,0.1182556,0.0366249,0.2648621,0.0766258
		c0.2121048,0.0566254,0.3600693,0.1030579,0.4439468,0.13908c0.0838165,0.0360794,0.1496506,0.0886154,0.1973953,0.1574478
		c0.0477371,0.0688858,0.0716095,0.1543961,0.0716095,0.2564697C81.651001,53.6474838,81.6218414,53.7416039,81.56353,53.8298912z
		 M81.4995499,47.1875877l-0.5150146,0.2131996c-0.0480118-0.1144485-0.1103058-0.1965752-0.1868744-0.2464409
		c-0.0766296-0.0498123-0.163826-0.0747757-0.2616501-0.0747757c-0.0812607,0-0.1551056,0.0152626-0.2215347,0.0457268
		c-0.0664368,0.0304108-0.1232224,0.0738449-0.1702576,0.1301422c-0.0470886,0.0562973-0.0840912,0.1241493-0.1107941,0.2034988
		c-0.0267563,0.0794029-0.0401077,0.1680183-0.0401077,0.265789c0,0.0886154,0.0114441,0.1707993,0.0345993,0.2464447
		c0.0230026,0.0756989,0.0576096,0.1412582,0.1038208,0.1966286c0.0461121,0.0553741,0.1033325,0.0982628,0.1716766,0.128727
		c0.0682831,0.0304642,0.1476364,0.0457268,0.2381058,0.0457268c0.0535126,0,0.1052322-0.0059967,0.1550446-0.0180397
		c0.0498657-0.0119896,0.0945587-0.0313377,0.1343384-0.0581512c0.0396729-0.0267029,0.0723724-0.0613098,0.09832-0.1038208
		c0.0258331-0.0424538,0.0433273-0.0941734,0.0525894-0.1550484h-0.4458008v-0.4208946h1.0771103
		c0,0.1107445-0.004631,0.2114029-0.0138397,0.301815c-0.0093231,0.0904694-0.0277405,0.1744499-0.0553741,0.2520027
		c-0.0388031,0.1089439-0.0914459,0.205349-0.1578827,0.2893333c-0.0664291,0.0840378-0.1444702,0.1541214-0.233963,0.2104721
		c-0.0895386,0.0562973-0.187851,0.0992432-0.2948914,0.128727c-0.1070328,0.0294838-0.2196808,0.0443077-0.3377838,0.0443077
		c-0.1625137,0-0.310585-0.0268135-0.4444351-0.0803299c-0.1339035-0.0535202-0.2487335-0.128727-0.3447571-0.2256241
		c-0.0959702-0.0969009-0.1706924-0.213253-0.2242661-0.3489037c-0.0535126-0.1357002-0.0803299-0.2856255-0.0803299-0.4499397
		c0-0.1624603,0.0263824-0.3115158,0.0789719-0.447216c0.0525894-0.1356468,0.1273041-0.2515106,0.2242584-0.3474846
		c0.0969543-0.0959702,0.2136383-0.170742,0.3503189-0.2243156c0.1365204-0.0535164,0.2888412-0.0802765,0.4568634-0.0802765
		c0.1579895,0,0.301651,0.0251236,0.4315186,0.0746613c0.0491638,0.0187492,0.0964661,0.0407104,0.1415939,0.0665436
		c0.1029434,0.0590248,0.1924286,0.1382637,0.2685089,0.2377777C81.4230881,47.0472565,81.4636917,47.1137962,81.4995499,47.1875877
		z M80.7056122,30.9641418h1.7210693v12.585659h-1.7210693V30.9641418z M82.4789429,54.0905571
		c-0.1088867,0-0.1932526-0.0172195-0.2531967-0.051609c-0.0600052-0.0343895-0.1022415-0.0796776-0.1266022-0.1358109
		c-0.0244675-0.0560265-0.0366821-0.174015-0.0366821-0.3539162v-0.0322609v-0.9855537h-0.219902v-0.2332001h0.219902v-0.438118
		l0.2982178-0.1798973v0.6180153h0.3014908v0.2332001h-0.3014908v0.7139854v0.3204536
		c0,0.0855637,0.0052338,0.1404953,0.0158081,0.1649132c0.0105209,0.0244675,0.0277405,0.043869,0.0516129,0.0583115
		c0.0238647,0.0144424,0.0580368,0.0216904,0.1024551,0.0216904c0.0332947,0,0.0771713-0.0039215,0.1316147-0.0117149
		l0.0432739,0.2649193C82.6210785,54.0816765,82.5455399,54.0905571,82.4789429,54.0905571z M83.3817673,54.067234h-0.3414841
		v-0.3414345h0.3414841V54.067234z M85.5973053,54.067234v-0.0502472v-1.8603706
		c-0.0722122,0.0688324-0.1668167,0.1377182-0.28405,0.2065506c-0.1171722,0.0688858-0.2223511,0.1204987-0.3156509,0.1548843
		v-0.2898788c0.1676865-0.078804,0.3142929-0.1742859,0.4398575-0.2864418
		c0.1254044-0.1122131,0.2142334-0.220993,0.2664948-0.3265572h0.1931992v2.4520607h-0.1463242H85.5973053z M98.2791519,48.7548065
		h-0.5427475v-0.0505714v-1.8029289v-0.2342873h0.3833923h0.1593552v1.5551186V48.7548065z M101.0784836,48.7548065h-0.5398712
		l-1.002388-1.2764664v1.2764664h-0.5427017v-1.1660538v-0.9217339h0.5427017l0.2032776,0.2588654l0.7991104,1.017601v-0.8551941
		v-0.4212723h0.5398712v0.6258621V48.7548065z"/>
	<path d="M89.3670349,51.8633614c-0.1332474,0-0.2493286,0.0544434-0.3481369,0.1632767
		c-0.0988617,0.1088867-0.1482925,0.2498779-0.1482925,0.4231262c0,0.1554871,0.0469284,0.2817612,0.14077,0.3789864
		c0.0938492,0.0971718,0.2096024,0.1457291,0.3473206,0.1457291c0.1388092,0,0.2529297-0.0485573,0.342308-0.1457291
		c0.0893784-0.0972252,0.1341248-0.2318382,0.1341248-0.4039993c0-0.1721077-0.0458374-0.3086815-0.1374512-0.4097214
		C89.6060638,51.9139328,89.4958725,51.8633614,89.3670349,51.8633614z"/>
	<path d="M91.2643509,51.8633614c-0.1332474,0-0.2493286,0.0544434-0.3481369,0.1632767
		c-0.0988617,0.1088867-0.1482315,0.2498779-0.1482315,0.4231262c0,0.1554871,0.0469208,0.2817612,0.14077,0.3789864
		c0.0937881,0.0971718,0.2095413,0.1457291,0.3472595,0.1457291c0.1388626,0,0.2529297-0.0485573,0.3423615-0.1457291
		c0.0893784-0.0972252,0.1340714-0.2318382,0.1340714-0.4039993c0-0.1721077-0.045784-0.3086815-0.1374512-0.4097214
		C91.5034409,51.9139328,91.3931885,51.8633614,91.2643509,51.8633614z"/>
	<path d="M87.4696655,51.8633614c-0.133255,0-0.2493362,0.0544434-0.3481369,0.1632767
		c-0.0988617,0.1088867-0.1482925,0.2498779-0.1482925,0.4231262c0,0.1554871,0.0469208,0.2817612,0.14077,0.3789864
		c0.0938492,0.0971718,0.2096024,0.1457291,0.3473206,0.1457291c0.1388092,0,0.2529297-0.0485573,0.3423615-0.1457291
		c0.089325-0.0972252,0.1340637-0.2318382,0.1340637-0.4039993c0-0.1721077-0.0458298-0.3086815-0.1374435-0.4097214
		C87.7086945,51.9139328,87.5984955,51.8633614,87.4696655,51.8633614z"/>
	<path d="M88.7559433,32.3718987c-1.2638245,0-1.4853058,1.4372406-1.5238419,3.4193573
		c-0.0090485,0.4649811-0.0080643,0.9598846-0.0080643,1.4733734c0,2.7021523,0.0433273,4.8927307,1.5319061,4.8927307
		c0.2689514,0,0.4919586-0.0927582,0.676712-0.26334l-1.1129761-1.4875412l1.0335693-0.7732811l0.6963272,0.9307289
		c0.0152588-0.0702515,0.0292664-0.1430054,0.0427322-0.2169075c0.1533585-0.8414574,0.1955414-1.9136658,0.1955414-3.0823898
		C90.2878494,34.5624733,90.1717072,32.3718987,88.7559433,32.3718987z"/>
	<path class="st0" d="M109.0620499,30.2547874c-1.3182144-2.9780273-3.2045212-5.6517887-5.6063919-7.9468384
		c-2.3678589-2.2626228-5.1202621-4.0440769-8.1812363-5.2983646c-0.0401611-0.0164585-0.0797882-0.0338974-0.1200562-0.0501919
		c-0.2952805-0.1192989-0.5922928-0.2331467-0.8908386-0.3416538C91.3092575,15.5438967,88.1977081,15,84.9999466,15
		c-3.5208359,0-6.9373016,0.6592159-10.1543121,1.9593925c-3.1093674,1.2567387-5.9023666,3.0562325-8.3012924,5.3485565
		c-2.4018707,2.2950497-4.2881775,4.968811-5.6063919,7.9468384c-1.1132469,2.5150604-1.7792206,5.1576462-1.9877319,7.8784409
		c-0.0474129,0.6183968-0.0712852,1.2408257-0.0712852,1.866745c0,0.0143318,0.0002747,0.0286102,0.0002747,0.0429459
		c0.0058289,3.3645859,0.6982918,6.6286774,2.0587425,9.70224c1.3182144,2.9780273,3.2045212,5.6517868,5.6063919,7.9468384
		c2.3989258,2.2923775,5.191925,4.0918694,8.3012924,5.3485565C78.062645,64.3407288,81.4791107,65,84.9999466,65
		c3.5209427,0,6.937355-0.6592712,10.1544189-1.959446c3.1093674-1.2566872,5.9023132-3.056179,8.3012924-5.3485565
		c2.4018707-2.2950516,4.2881775-4.968811,5.6063919-7.9468384c0.1365738-0.3086281,0.2661743-0.6192703,0.3892822-0.9316559
		c0.667778-1.6941452,1.1366806-3.4421387,1.4041595-5.2293701c0.1764145-1.1790237,0.2655716-2.3751068,0.2655716-3.5841599
		C111.1210632,36.6202354,110.4283295,33.3414841,109.0620499,30.2547874z M102.2060623,56.3843002
		c-2.2327042,2.133461-4.8332748,3.8087502-7.7294998,4.9792747c-3.0006485,1.2127037-6.1890335,1.8276138-9.4766159,1.8276138
		c-3.287529,0-6.4759216-0.6149101-9.4765091-1.8276138c-2.896225-1.1705246-5.4967957-2.8458138-7.7295532-4.9792747
		c-0.2216415-0.2117805-0.4371338-0.4279785-0.6492386-0.6466293c-1.9218979-1.9808617-3.4522209-4.2385254-4.5526619-6.7246475
		c-1.188942-2.6860237-1.8262482-5.5294952-1.8974266-8.4602165c-0.004467-0.1839333-0.0068665-0.3681908-0.0068665-0.5528336
		c0-0.1812096,0.0023994-0.3621445,0.0067062-0.5426979c0.0207062-0.8688202,0.0912285-1.7299538,0.2111244-2.581604
		c0.2849197-2.0247345,0.8485451-3.9958458,1.6864624-5.8887482c1.2218628-2.7604694,2.9720879-5.2405415,5.2019005-7.3712769
		c2.2327576-2.133461,4.8333282-3.8086967,7.7295532-4.9792747c3.0005875-1.2127056,6.1889801-1.8276138,9.4765091-1.8276138
		c2.1056671,0,4.1705704,0.2527103,6.1715927,0.7527351c1.1231689,0.2806149,2.2262726,0.6389427,3.3050232,1.0748787
		c0.0164566,0.006649,0.0326462,0.0138435,0.0491028,0.020546c2.8763885,1.1695423,5.4603882,2.8374214,7.680397,4.9587288
		c2.229866,2.1307354,3.9800873,4.6108074,5.2019501,7.3712769c1.2636108,2.854641,1.9042969,5.8870583,1.9042969,9.0130501
		c0,1.2714539-0.1060562,2.5274315-0.316803,3.7622643c-0.3074799,1.8011246-0.8378601,3.5572395-1.5874939,5.2507858
		c-0.0196686,0.0445251-0.0407104,0.0882874-0.0606537,0.1326485
		C106.1283875,51.852787,104.4000092,54.2879524,102.2060623,56.3843002z"/>
	<polygon class="st0" points="79.8935776,53.7790451 79.0844345,53.7790451 78.3943787,53.7790451 78.3943787,52.9478302 
		79.7453461,52.9478302 79.7453461,52.6613312 78.3943787,52.6613312 78.3943787,51.9133911 79.8369598,51.9133911 
		79.8369598,51.6252022 78.0711975,51.6252022 78.0711975,54.067234 78.623703,54.067234 79.8935776,54.067234 	"/>
	<path class="st0" d="M81.3819962,53.1335602c-0.0838776-0.0360222-0.231842-0.0824547-0.4439468-0.13908
		c-0.1466064-0.0400009-0.2348938-0.0655632-0.2648621-0.0766258c-0.0437622-0.0177116-0.0771713-0.0395088-0.1014252-0.0650177
		c-0.0046844-0.0049019-0.0095901-0.0097008-0.0135193-0.0149307c-0.0244675-0.0310631-0.0366745-0.0660515-0.0366745-0.1049652
		c0-0.061039,0.0294266-0.1143913,0.0882874-0.1599007c0.0588608-0.0455055,0.1571732-0.0682869,0.2948914-0.0682869
		c0.0709076,0,0.1308517,0.0106277,0.1822968,0.0294838c0.0330811,0.0122108,0.063385,0.0270882,0.0884018,0.0470886
		c0.0638199,0.0511208,0.1024017,0.122242,0.1157532,0.213253l0.2931519-0.0399475
		c-0.0188599-0.1143913-0.053299-0.2057304-0.1032791-0.2740746c-0.0499725-0.0682869-0.1274185-0.1224556-0.2323837-0.1624069
		c-0.0535126-0.0203819-0.1116104-0.0354233-0.1740112-0.0453949c-0.0598373-0.009594-0.1236572-0.0145531-0.1916199-0.0145531
		c-0.0921555,0-0.1785355,0.0119362-0.2590332,0.0358086c-0.0805435,0.0238686-0.1440887,0.0530243-0.1907425,0.0874672
		c-0.0621796,0.0444183-0.1113434,0.1002235-0.1474152,0.1674232c-0.0360794,0.0671959-0.0541229,0.1402245-0.0541229,0.2190285
		c0,0.0865974,0.0219116,0.1657867,0.0657806,0.2373962c0.0025635,0.0041428,0.0058289,0.00774,0.0085068,0.0117722
		c0.0435944,0.0657806,0.1046906,0.1182632,0.1847458,0.1564102c0.0849609,0.0406036,0.2373428,0.0886154,0.4572449,0.1441498
		c0.1632767,0.0410385,0.2654114,0.0749359,0.3065567,0.1016388c0.0587997,0.0388603,0.0882874,0.0921593,0.0882874,0.1599007
		c0,0.0754814-0.0333557,0.1413155-0.1000061,0.1973953c-0.066597,0.0560799-0.1687851,0.0840912-0.3065033,0.0840912
		c-0.1365738,0-0.2429504-0.0316086-0.3189774-0.0949364c-0.0760803-0.0632744-0.1224594-0.1543427-0.1390839-0.2731476
		l-0.296524,0.0466499c0.0332947,0.1876373,0.110199,0.3292274,0.23069,0.4247093
		c0.1204987,0.0955353,0.2957153,0.1432762,0.525589,0.1432762c0.1388092,0,0.263176-0.0241432,0.3731537-0.0724297
		c0.1099243-0.0483398,0.1940155-0.1166267,0.252327-0.2049141s0.087471-0.1824074,0.087471-0.2824135
		c0-0.1020737-0.0238724-0.1875839-0.0716095-0.2564697C81.5316467,53.2221756,81.4658127,53.1696396,81.3819962,53.1335602z"/>
	<path class="st0" d="M82.5305557,53.8107605c-0.0444183,0-0.0785904-0.0072479-0.1024551-0.0216904
		c-0.0238724-0.0144424-0.0410919-0.033844-0.0516129-0.0583115c-0.0105743-0.0244179-0.0158081-0.0793495-0.0158081-0.1649132
		v-0.3204536v-0.7139854h0.3014908v-0.2332001h-0.3014908V51.680191l-0.2982178,0.1798973v0.438118h-0.219902v0.2332001h0.219902
		v0.9855537v0.0322609c0,0.1799011,0.0122147,0.2978897,0.0366821,0.3539162
		c0.0243607,0.0561333,0.066597,0.1014214,0.1266022,0.1358109c0.0599442,0.0343895,0.14431,0.051609,0.2531967,0.051609
		c0.066597,0,0.1421356-0.0088806,0.2265015-0.0265923l-0.0432739-0.2649193
		C82.6077271,53.806839,82.5638504,53.8107605,82.5305557,53.8107605z"/>
	<rect x="83.0402832" y="53.7257996" class="st0" width="0.3414889" height="0.3414344"/>
	<path class="st0" d="M85.8971558,51.6151733h-0.1931992c-0.0522614,0.1055641-0.1410904,0.214344-0.2664948,0.3265572
		c-0.1255646,0.1121559-0.272171,0.2076378-0.4398575,0.2864418v0.2898788
		c0.0932999-0.0343857,0.1984787-0.0859985,0.3156509-0.1548843c0.1172333-0.0688324,0.2118378-0.1377182,0.28405-0.2065506
		v1.8603706v0.0502472h0.1535263h0.1463242V51.6151733z"/>
	<path class="st0" d="M87.8669586,53.9639587c0.1337967-0.0965729,0.2346191-0.2373428,0.3023605-0.4222565
		c0.067688-0.1849136,0.1015854-0.4333725,0.1015854-0.7454338c0-0.2998505-0.0341721-0.5289116-0.1024017-0.6871185
		c-0.0682907-0.1582642-0.1682968-0.2801781-0.2998581-0.3656883c-0.1316071-0.0855064-0.2768478-0.1282883-0.4356613-0.1282883
		c-0.2198486,0-0.4028549,0.0755348-0.548851,0.2265511c-0.1460571,0.1510162-0.2190857,0.3504257-0.2190857,0.5980682
		c0,0.2398491,0.0700302,0.4330482,0.2099304,0.5796471c0.139946,0.146656,0.3109131,0.2199593,0.5130463,0.2199593
		c0.1210403,0,0.2334747-0.0297585,0.3372955-0.0891609s0.1857834-0.1368484,0.2457886-0.2323837
		c0.001091,0.0266495,0.0016327,0.0466499,0.0016327,0.0600052c0,0.1243629-0.0150375,0.2464981-0.0450134,0.3664474
		c-0.0299759,0.1199532-0.0671463,0.2151604-0.111618,0.2856827c-0.0444107,0.0705223-0.1013107,0.126873-0.1706848,0.1690559
		c-0.0694351,0.0422363-0.1501999,0.0633278-0.2424088,0.0633278c-0.1077499,0-0.1959839-0.0305214-0.2648163-0.0916672
		c-0.0688858-0.061039-0.1155319-0.1593018-0.139946-0.2947845l-0.2881927,0.0266495
		c0.0244141,0.1921082,0.097168,0.3411636,0.2182159,0.447216c0.1210403,0.1061096,0.2770691,0.1590843,0.4680862,0.1590843
		C87.5763168,54.1088715,87.7331085,54.060585,87.8669586,53.9639587z M87.803688,52.8287506
		c-0.0894318,0.0971718-0.2035522,0.1457291-0.3423615,0.1457291c-0.1377182,0-0.2534714-0.0485573-0.3473206-0.1457291
		c-0.0938492-0.0972252-0.14077-0.2234993-0.14077-0.3789864c0-0.1732483,0.0494308-0.3142395,0.1482925-0.4231262
		c0.0988007-0.1088333,0.2148819-0.1632767,0.3481369-0.1632767c0.12883,0,0.2390289,0.0505714,0.3306427,0.1516685
		c0.0916138,0.1010399,0.1374435,0.2376137,0.1374435,0.4097214C87.9377518,52.5969124,87.893013,52.7315254,87.803688,52.8287506z"
		/>
	<path class="st0" d="M89.7134857,53.6299896c-0.0444183,0.0705223-0.1013184,0.126873-0.1706924,0.1690559
		c-0.0694885,0.0422363-0.1501999,0.0633278-0.2424088,0.0633278c-0.1077423,0-0.1960297-0.0305214-0.2648621-0.0916672
		c-0.0688858-0.061039-0.1154861-0.1593018-0.1399002-0.2947845l-0.2881927,0.0266495
		c0.0243607,0.1921082,0.0971222,0.3411636,0.2182159,0.447216c0.1210403,0.1061096,0.2770691,0.1590843,0.4680862,0.1590843
		c0.1799011,0,0.3367538-0.0482864,0.4705963-0.1449127c0.1337967-0.0965729,0.2346191-0.2373428,0.3023605-0.4222565
		c0.067688-0.1849136,0.1015854-0.4333725,0.1015854-0.7454338c0-0.2998505-0.0341721-0.5289116-0.1024551-0.6871185
		c-0.0682907-0.1582642-0.1682358-0.2801781-0.2997971-0.3656883c-0.1316147-0.0855064-0.2768555-0.1282883-0.4356613-0.1282883
		c-0.2198486,0-0.4028549,0.0755348-0.5488586,0.2265511c-0.1460571,0.1510162-0.2190857,0.3504257-0.2190857,0.5980682
		c0,0.2398491,0.0700302,0.4330482,0.2099304,0.5796471c0.1399536,0.146656,0.3109131,0.2199593,0.5130539,0.2199593
		c0.1210403,0,0.2334671-0.0297585,0.3372879-0.0891609s0.18573-0.1368484,0.2457352-0.2323837
		c0.0011444,0.0266495,0.0016861,0.0466499,0.0016861,0.0600052c0,0.1243629-0.0150375,0.2464981-0.0450134,0.3664474
		C89.7951202,53.4642601,89.7579575,53.5594673,89.7134857,53.6299896z M89.701004,52.8287506
		c-0.0893784,0.0971718-0.2034988,0.1457291-0.342308,0.1457291c-0.1377182,0-0.2534714-0.0485573-0.3473206-0.1457291
		c-0.0938416-0.0972252-0.14077-0.2234993-0.14077-0.3789864c0-0.1732483,0.0494308-0.3142395,0.1482925-0.4231262
		c0.0988083-0.1088333,0.2148895-0.1632767,0.3481369-0.1632767c0.1288376,0,0.2390289,0.0505714,0.3306427,0.1516685
		c0.0916138,0.1010399,0.1374512,0.2376137,0.1374512,0.4097214C89.8351288,52.5969124,89.7903824,52.7315254,89.701004,52.8287506z
		"/>
	<path class="st0" d="M91.6108551,53.6299896c-0.0444183,0.0705223-0.1013107,0.126873-0.1707458,0.1690559
		c-0.0694275,0.0422363-0.1501923,0.0633278-0.2423553,0.0633278c-0.1077423,0-0.1960297-0.0305214-0.2648621-0.0916672
		c-0.0688858-0.061039-0.1155396-0.1593018-0.1399002-0.2947845l-0.2881851,0.0266495
		c0.0243607,0.1921082,0.0971146,0.3411636,0.2181549,0.447216c0.1211014,0.1061096,0.2771301,0.1590843,0.4680939,0.1590843
		c0.1799545,0,0.3367996-0.0482864,0.4706497-0.1449127c0.1337967-0.0965729,0.2346191-0.2373428,0.3022995-0.4222565
		c0.067749-0.1849136,0.1016464-0.4333725,0.1016464-0.7454338c0-0.2998505-0.0341721-0.5289116-0.1024628-0.6871185
		c-0.0682831-0.1582642-0.1682358-0.2801781-0.2998505-0.3656883c-0.1315613-0.0855064-0.2767944-0.1282883-0.4356079-0.1282883
		c-0.2198486,0-0.4028549,0.0755348-0.5488586,0.2265511c-0.1460571,0.1510162-0.2190857,0.3504257-0.2190857,0.5980682
		c0,0.2398491,0.0699768,0.4330482,0.2099304,0.5796471c0.1399536,0.146656,0.3108597,0.2199593,0.5130005,0.2199593
		c0.1210938,0,0.2335281-0.0297585,0.3373489-0.0891609c0.1038132-0.0594025,0.18573-0.1368484,0.2457275-0.2323837
		c0.001091,0.0266495,0.0016937,0.0466499,0.0016937,0.0600052c0,0.1243629-0.0150452,0.2464981-0.0450134,0.3664474
		C91.6924973,53.4642601,91.6552734,53.5594673,91.6108551,53.6299896z M91.5983734,52.8287506
		c-0.0894318,0.0971718-0.2034988,0.1457291-0.3423615,0.1457291c-0.1377182,0-0.2534714-0.0485573-0.3472595-0.1457291
		c-0.0938492-0.0972252-0.14077-0.2234993-0.14077-0.3789864c0-0.1732483,0.0493698-0.3142395,0.1482315-0.4231262
		c0.0988083-0.1088333,0.2148895-0.1632767,0.3481369-0.1632767c0.1288376,0,0.23909,0.0505714,0.3306427,0.1516685
		c0.0916672,0.1010399,0.1374512,0.2376137,0.1374512,0.4097214C91.7324448,52.5969124,91.6877518,52.7315254,91.5983734,52.8287506
		z"/>
	<polygon class="st0" points="75.3360748,40.2138786 73.8481445,30.9641418 72.1717148,30.9641418 72.3437653,31.8565578 
		72.3948288,32.1215858 74.5978851,43.5498009 75.9476547,43.5498009 76.7250824,39.7475891 78.5209198,30.9641418 
		77.5401611,30.9641418 76.8239975,30.9641418 	"/>
	<rect x="80.7056122" y="30.9641418" class="st0" width="1.7210691" height="12.5856581"/>
	<polygon class="st0" points="96.7872543,43.5498009 96.7872543,38.7811623 96.7872543,30.9641418 95.0123367,30.9641418 
		95.0123367,36.8833542 95.0123367,43.5498009 	"/>
	<path class="st0" d="M88.7016068,30.8027706c-1.2133026,0-1.9816818,0.5369759-2.4626846,1.3118382
		c-0.6239624,1.0051193-0.7644043,2.4105873-0.7644043,3.5646515v3.1195068c0,2.0438652,0.4400787,4.8764877,3.2270889,4.8764877
		c0.706955,0,1.2626266-0.1824608,1.6986694-0.4878693l0.9587402,1.2814255l1.0335693-0.7732811l-1.126976-1.5062904
		c0.0792389-0.145565,0.1485062-0.2988167,0.2106857-0.4566994c0.3605118-0.9145432,0.4524002-2.0052261,0.4524002-2.933773
		v-3.1195068C91.9286957,33.6354523,91.4886169,30.8027706,88.7016068,30.8027706z M90.092308,40.3470192
		c-0.0134659,0.0739021-0.0274734,0.146656-0.0427322,0.2169075l-0.6963272-0.9307289l-1.0335693,0.7732811l1.1129761,1.4875412
		c-0.1847534,0.1705818-0.4077606,0.26334-0.676712,0.26334c-1.4885788,0-1.5319061-2.1905785-1.5319061-4.8927307
		c0-0.5134888-0.0009842-1.0083923,0.0080643-1.4733734c0.0385361-1.9821167,0.2600174-3.4193573,1.5238419-3.4193573
		c1.4157639,0,1.5319061,2.1905746,1.5319061,4.8927307C90.2878494,38.4333534,90.2456665,39.5055618,90.092308,40.3470192z"/>
	<polygon class="st0" points="69.8896332,48.7548065 70.3215332,48.7548065 71.2020721,46.6670189 70.6122894,46.6670189 
		70.1055603,47.9379807 69.6016617,46.6670189 69.0118256,46.6670189 	"/>
	<rect x="71.6976852" y="46.6670189" class="st0" width="0.5426981" height="2.087791"/>
	<polygon class="st0" points="73.4974518,47.8493652 74.203476,48.7548065 74.9067841,48.7548065 74.0013428,47.6555138 
		74.3438721,47.2466125 74.8292847,46.6670189 74.1592255,46.6670189 74.0159531,46.8534584 73.4974518,47.5281525 
		73.4974518,46.6670189 72.9547501,46.6670189 72.9547501,48.7548065 73.4974518,48.7548065 	"/>
	<polygon class="st0" points="75.9673309,48.7548065 75.9673309,46.6670189 75.4246292,46.6670189 75.4246292,48.3730431 
		75.4246292,48.7548065 75.8359375,48.7548065 	"/>
	<polygon class="st0" points="78.226738,47.9434853 77.2243958,46.6670189 76.6816483,46.6670189 76.6816483,48.7548065 
		77.2243958,48.7548065 77.2243958,47.4783401 78.226738,48.7548065 78.766655,48.7548065 78.766655,46.6670189 
		78.226738,46.6670189 	"/>
	<path class="st0" d="M80.9675293,46.6835289c-0.1298676-0.0495377-0.2735291-0.0746613-0.4315186-0.0746613
		c-0.1680222,0-0.320343,0.0267601-0.4568634,0.0802765c-0.1366806,0.0535736-0.2533646,0.1283455-0.3503189,0.2243156
		c-0.0969543,0.095974-0.171669,0.2118378-0.2242584,0.3474846c-0.0525894,0.1357002-0.0789719,0.2847557-0.0789719,0.447216
		c0,0.1643143,0.0268173,0.3142395,0.0803299,0.4499397c0.0535736,0.1356506,0.1282959,0.2520027,0.2242661,0.3489037
		c0.0960236,0.0968971,0.2108536,0.1721039,0.3447571,0.2256241c0.1338501,0.0535164,0.2819214,0.0803299,0.4444351,0.0803299
		c0.118103,0,0.230751-0.0148239,0.3377838-0.0443077c0.1070404-0.0294838,0.2053528-0.0724297,0.2948914-0.128727
		c0.0894928-0.0563507,0.1675339-0.1264343,0.233963-0.2104721c0.0664368-0.0839844,0.1190796-0.1803894,0.1578827-0.2893333
		c0.0276337-0.0775528,0.046051-0.1615334,0.0553741-0.2520027c0.0092087-0.0904121,0.0138397-0.1910706,0.0138397-0.301815
		h-1.0771103v0.4208946h0.4458008c-0.0092621,0.0608749-0.0267563,0.1125946-0.0525894,0.1550484
		c-0.0259476,0.042511-0.0586472,0.0771179-0.09832,0.1038208c-0.0397797,0.0268135-0.0844727,0.0461617-0.1343384,0.0581512
		c-0.0498123,0.012043-0.101532,0.0180397-0.1550446,0.0180397c-0.0904694,0-0.1698227-0.0152626-0.2381058-0.0457268
		c-0.0683441-0.0304642-0.1255646-0.0733528-0.1716766-0.128727c-0.0462112-0.0553703-0.0808182-0.1209297-0.1038208-0.1966286
		c-0.0231552-0.0756454-0.0345993-0.1578293-0.0345993-0.2464447c0-0.0977707,0.0133514-0.1863861,0.0401077-0.265789
		c0.0267029-0.0793495,0.0637054-0.1472015,0.1107941-0.2034988c0.0470352-0.0562973,0.1038208-0.0997314,0.1702576-0.1301422
		c0.0664291-0.0304642,0.140274-0.0457268,0.2215347-0.0457268c0.0978241,0,0.1850204,0.0249634,0.2616501,0.0747757
		c0.0765686,0.0498657,0.1388626,0.1319923,0.1868744,0.2464409l0.5150146-0.2131996
		c-0.0358582-0.0737915-0.0764618-0.1403313-0.1219177-0.1997375c-0.0760803-0.099514-0.1655655-0.1787529-0.2685089-0.2377777
		C81.0639954,46.7242393,81.0166931,46.7022781,80.9675293,46.6835289z"/>
	<path class="st0" d="M82.276207,47.0145569c-0.0341721,0.0839806-0.0512238,0.1776657-0.0512238,0.2810478
		c0,0.1033859,0.0161819,0.1887283,0.0485001,0.2560883c0.0061035,0.0128632,0.0130234,0.0248528,0.0198898,0.0368958
		c0.0293198,0.0509567,0.0649109,0.0947762,0.1074753,0.1306343c0.0525894,0.0443077,0.1125412,0.0798416,0.1799545,0.1066017
		c0.0674133,0.0267563,0.1361389,0.0512276,0.2062759,0.07341c0.0510635,0.0175476,0.0952072,0.0336227,0.1331406,0.0483932
		c0.0059433,0.0023422,0.0121536,0.0046883,0.0177689,0.0069199c0.0415802,0.0166245,0.0752106,0.0346642,0.1010971,0.0540085
		c0.0025558,0.0019073,0.0041962,0.0040894,0.0065918,0.0061035c0.021965,0.0177689,0.0388031,0.0368423,0.0487747,0.0576057
		c0.0110626,0.0231094,0.0166245,0.0503044,0.0166245,0.0816383c0,0.0517197-0.0216904,0.0978813-0.0650711,0.1384811
		c-0.0434341,0.040657-0.1093826,0.0609322-0.197998,0.0609322c-0.0775528,0-0.1559753-0.0175514-0.235321-0.0525932
		c-0.0794067-0.0350952-0.1597366-0.0886688-0.2409439-0.1606064l-0.2325974,0.4374619
		c0.2252426,0.1569557,0.4698334,0.2353783,0.7337723,0.2353783c0.1274185,0,0.2413177-0.0171127,0.34198-0.0512276
		c0.1006012-0.0341721,0.1855087-0.0821304,0.2547226-0.1439857c0.0692673-0.0618553,0.1218643-0.1361389,0.1578827-0.2229004
		c0.009758-0.0235977,0.0179901-0.048069,0.0250702-0.0731354c0.0190735-0.0671997,0.0288849-0.1396255,0.0288849-0.2176132
		c0-0.1587563-0.0410919-0.2874832-0.1231689-0.3862877c-0.0821838-0.0986977-0.2118912-0.1776123-0.389061-0.2367439
		c-0.0443115-0.0147133-0.0891113-0.0285568-0.134285-0.0414734c-0.0452881-0.0129166-0.0858383-0.0281754-0.1218643-0.045723
		c-0.035965-0.0175514-0.0650711-0.0383148-0.0871964-0.062294c-0.0221786-0.0239792-0.0332413-0.0544434-0.0332413-0.0913925
		c0-0.0535202,0.0221786-0.0969009,0.0664902-0.1301422c0.0442505-0.0331917,0.1014709-0.0498123,0.171669-0.0498123
		c0.0553665,0,0.1125412,0.0115509,0.171669,0.0346069c0.0590744,0.0231056,0.1180954,0.0585861,0.1771774,0.1065979
		l0.2159729-0.4236717c-0.1033783-0.0553703-0.2113953-0.0973358-0.3239365-0.125946
		c-0.1125946-0.028614-0.2206116-0.0429459-0.3239441-0.0429459c-0.1107941,0-0.2109604,0.0166206-0.3004456,0.0498657
		c-0.0895462,0.0331917-0.1652451,0.0798416-0.2270432,0.1397896C82.3583374,46.8585243,82.310379,46.9305725,82.276207,47.0145569z
		"/>
	<path class="st0" d="M87.7351837,47.7108841c0-0.1550484-0.0286179-0.299469-0.0858383-0.4333191
		c-0.0572205-0.1337929-0.1370621-0.2505836-0.2394638-0.3502617c-0.1024628-0.099678-0.2248077-0.1776657-0.3669434-0.233963
		s-0.2971802-0.0844727-0.4651489-0.0844727c-0.1698685,0-0.3253555,0.0281754-0.4665604,0.0844727
		c-0.1412582,0.0562973-0.2626266,0.134285-0.3641586,0.233963c-0.1014786,0.099678-0.1808853,0.2164688-0.2381058,0.3502617
		c-0.0572281,0.1338501-0.0858383,0.2782707-0.0858383,0.4333191c0,0.1551056,0.0286102,0.2995262,0.0858383,0.4333763
		c0.0572205,0.1338463,0.1366272,0.2505836,0.2381058,0.3502617c0.101532,0.099678,0.2229004,0.1776657,0.3641586,0.233963
		c0.1412048,0.0562973,0.2966919,0.0844727,0.4665604,0.0844727c0.1014786,0,0.197998-0.0106812,0.2893372-0.0318794
		c0.0913925-0.0212555,0.1776657-0.050251,0.2589188-0.0872002l0.1910782,0.196579l0.4983902-0.0774994l-0.3544083-0.3710823
		c0.088562-0.0959167,0.1564102-0.2057877,0.2034988-0.3294449C87.7116928,47.9887199,87.7351837,47.8548698,87.7351837,47.7108841z
		 M87.0679016,48.0321007l-0.144043-0.1522675l-0.5122299,0.063652l0.3101501,0.3267212
		c-0.0480118,0.011116-0.0960312,0.0166206-0.1439896,0.0166206c-0.0793991,0-0.1546097-0.014225-0.2256775-0.0428886
		c-0.0710678-0.028614-0.1334152-0.068779-0.1868744-0.1204414c-0.0535736-0.0516663-0.0960236-0.1125946-0.1274185-0.1827888
		c-0.031395-0.0701408-0.0470352-0.1467133-0.0470352-0.2298241c0-0.0830536,0.0156403-0.159626,0.0470352-0.2298203
		c0.031395-0.0701408,0.0738449-0.1310158,0.1274185-0.1827354c0.0534592-0.0516624,0.1158066-0.091774,0.1868744-0.1204414
		c0.0710678-0.0286102,0.1462784-0.0428886,0.2256775-0.0428886c0.0793533,0,0.1546173,0.0142784,0.2256241,0.0428886
		c0.0710678,0.0286674,0.1339035,0.068779,0.1882935,0.1204414c0.0544434,0.0517197,0.0973892,0.1125946,0.1287842,0.1827354
		c0.0313873,0.0701942,0.0470886,0.1467667,0.0470886,0.2298203C87.1675797,47.8327446,87.1343307,47.9398346,87.0679016,48.0321007
		z"/>
	<path class="st0" d="M88.3554306,46.6670189v1.2100334c0,0.3249207,0.0747147,0.5620995,0.2242661,0.7115898
		c0.1495438,0.1495438,0.3783798,0.2243156,0.6866837,0.2243156c0.3082962,0,0.5366974-0.0747719,0.6853714-0.2243156
		c0.1485062-0.1494904,0.222847-0.3866692,0.222847-0.7115898v-1.2100334h-0.539917v1.1352615
		c0,0.0609283-0.0023499,0.1232224-0.0069275,0.1869316c-0.004631,0.063652-0.018959,0.1213684-0.0429382,0.1730309
		c-0.0240402,0.0517197-0.0604935,0.0937386-0.1093292,0.1260033c-0.048996,0.0323181-0.1186981,0.0484467-0.2091064,0.0484467
		c-0.0904694,0-0.1605606-0.0161285-0.2104263-0.0484467c-0.0498657-0.0322647-0.0863266-0.0742836-0.109375-0.1260033
		c-0.0231094-0.0516624-0.0369492-0.1093788-0.0415268-0.1730309c-0.004631-0.0637093-0.0069199-0.1260033-0.0069199-0.1869316
		v-1.1352615H88.3554306z"/>
	<rect x="90.8889694" y="46.6670189" class="st0" width="0.5426981" height="2.087791"/>
	<path class="st0" d="M92.1459808,48.7548065h0.8029785c0.1439896,0,0.2782745-0.0286102,0.402916-0.0858345
		c0.1245804-0.0572243,0.2335205-0.1338463,0.3267136-0.2298203s0.1661682-0.2072029,0.2187576-0.3336411
		c0.0526505-0.1264381,0.0789185-0.2579422,0.0789185-0.3946266c0-0.1384239-0.0268173-0.2708588-0.0802765-0.3972931
		c-0.053627-0.1264381-0.1269836-0.2372322-0.2201233-0.3322792c-0.0932465-0.095047-0.2021332-0.1712341-0.3267212-0.2284584
		c-0.1246338-0.0571709-0.2579956-0.0858345-0.4001846-0.0858345h-0.8029785V48.7548065z M92.6887283,47.1266594h0.124588
		c0.0922623,0,0.1753769,0.0148239,0.2492218,0.0443077c0.0737915,0.0295372,0.1360855,0.0701942,0.1868744,0.1218033
		c0.0507431,0.0517197,0.0899811,0.113575,0.1177216,0.1855698c0.027626,0.071991,0.0414734,0.1494904,0.0414734,0.2325439
		c0,0.0849648-0.0134125,0.1629524-0.0401154,0.2340202c-0.0268097,0.071064-0.0655594,0.1324844-0.1162949,0.1840935
		c-0.0507965,0.0517197-0.1130905,0.0923767-0.186882,0.1218605c-0.0738983,0.0295372-0.1578293,0.0443077-0.2519989,0.0443077
		h-0.124588V47.1266594z"/>
	<path class="st0" d="M95.535202,47.4810638c-0.0443649-0.0147133-0.0891113-0.0285568-0.134346-0.0414734
		c-0.0452271-0.0129166-0.0858307-0.0281754-0.1218033-0.045723c-0.035965-0.0175514-0.0650711-0.0383148-0.0871964-0.062294
		c-0.0221786-0.0239792-0.0332413-0.0544434-0.0332413-0.0913925c0-0.0535202,0.0221252-0.0969009,0.0664291-0.1301422
		c0.0443115-0.0331917,0.1014786-0.0498123,0.1716766-0.0498123c0.0553665,0,0.1125946,0.0115509,0.171669,0.0346069
		c0.0590744,0.0231056,0.1181488,0.0585861,0.1772308,0.1065979l0.2159729-0.4236717
		c-0.1033783-0.0553703-0.2113953-0.0973358-0.3239365-0.125946c-0.112648-0.028614-0.220665-0.0429459-0.3239975-0.0429459
		c-0.1107941,0-0.210907,0.0166206-0.3004456,0.0498657c-0.0895462,0.0331917-0.1651917,0.0798416-0.2270432,0.1397896
		c-0.0618591,0.0600014-0.1098175,0.1320496-0.1439896,0.2160339c-0.0341721,0.0839806-0.0512238,0.1776657-0.0512238,0.2810478
		c0,0.1033859,0.0161819,0.1887283,0.0484467,0.2560883c0.0323181,0.0674171,0.0747681,0.1232224,0.1274185,0.1675301
		c0.0525894,0.0443077,0.1125412,0.0798416,0.1799545,0.1066017c0.0673599,0.0267563,0.1360855,0.0512276,0.2062759,0.07341
		c0.059021,0.0202713,0.1093826,0.0387459,0.1509094,0.0553131c0.0415802,0.0166245,0.0751495,0.0346642,0.1010361,0.0540085
		c0.0258331,0.0194016,0.0443649,0.0406036,0.0553741,0.0637093c0.011116,0.0231094,0.0166245,0.0503044,0.0166245,0.0816383
		c0,0.0517197-0.0216904,0.0978813-0.0650177,0.1384811c-0.0434341,0.040657-0.1093826,0.0609322-0.197998,0.0609322
		c-0.0775528,0-0.1559753-0.0175514-0.2353745-0.0525932c-0.0793533-0.0350952-0.1596832-0.0886688-0.2408905-0.1606064
		l-0.2325974,0.4374619c0.0813141,0.0566788,0.1652908,0.1027832,0.2516785,0.1389694
		c0.1528091,0.0640373,0.3134766,0.0964088,0.4820938,0.0964088c0.1273651,0,0.2413177-0.0171127,0.3419266-0.0512276
		c0.1006546-0.0341721,0.1855621-0.0821304,0.254776-0.1439857c0.0692673-0.0618553,0.1218643-0.1361389,0.1578293-0.2229004
		c0.036026-0.0867615,0.0540085-0.1836586,0.0540085-0.2907486c0-0.0591316-0.005722-0.1141205-0.0171661-0.1649132
		c-0.0191803-0.0855637-0.0545502-0.1593552-0.1060562-0.2213745C95.8420258,47.6191101,95.7123718,47.5401955,95.535202,47.4810638
		z"/>
	<rect x="96.4461441" y="47.8050575" class="st0" width="0.7947001" height="0.4181141"/>
	<polygon class="st0" points="98.1197968,46.6670189 97.7364044,46.6670189 97.7364044,46.9013062 97.7364044,48.7042351 
		97.7364044,48.7548065 98.2791519,48.7548065 98.2791519,48.2221375 98.2791519,46.6670189 	"/>
	<polygon class="st0" points="100.5386124,46.6670189 100.5386124,47.0882912 100.5386124,47.9434853 99.739502,46.9258842 
		99.5362244,46.6670189 98.9935226,46.6670189 98.9935226,47.5887527 98.9935226,48.7548065 99.5362244,48.7548065 
		99.5362244,47.4783401 100.5386124,48.7548065 101.0784836,48.7548065 101.0784836,47.292881 101.0784836,46.6670189 	"/>
</g>
</svg>
