<?xml version="1.0" encoding="utf-8"?>
<!-- Generator: Adobe Illustrator 25.3.0, SVG Export Plug-In . SVG Version: 6.00 Build 0)  -->
<svg version="1.1" id="Layer_1" xmlns="http://www.w3.org/2000/svg" xmlns:xlink="http://www.w3.org/1999/xlink" x="0px" y="0px"
	 viewBox="0 0 400 140" style="enable-background:new 0 0 400 140;" xml:space="preserve">
<style type="text/css">
	.st0{fill:#1D1D1B;}
</style>
<g>
	<g>
		<path class="st0" d="M97.6,30.8c0,4.7,0,5.9,0.1,9.8c-0.8-0.2-1.6-0.3-2.8-0.3c-1.2,0-2.1,0.2-2.9,0.3c0.5-9.1,0.7-12,0.7-18.7
			c0-3.9-0.1-5.2-0.5-16.8c0.8,0.2,1.5,0.3,2.9,0.3c1.4,0,2.1-0.1,2.9-0.3c-0.1,1.5-0.5,9.1-0.4,14.9c3.4,0.1,6.8,0.2,10.2,0.2
			c4,0,6.4-0.1,9.5-0.2c0.1-7,0.1-7.7-0.3-15c0.8,0.2,1.5,0.3,2.9,0.3c1.3,0,2.1-0.1,2.9-0.3c-0.5,8.6-0.6,17-0.6,24.6
			c0,4.2,0.1,5.8,0.3,10.9c-1-0.2-1.8-0.3-2.7-0.3c-0.8,0-1.6,0.1-2.9,0.3c0.2-2.9,0.4-8.4,0.4-9.7v-7.7c-3.4-0.2-4.7-0.2-9.8-0.2
			c-4.9,0-5.9,0-9.8,0.1V30.8z"/>
		<path class="st0" d="M132.9,23.1c0-11.6,6.9-16.2,13.7-16.2c3.5,0,8.7,1.4,11.4,6c1.8,3,2.3,7.2,2.3,9.8
			c0,10.5-5.7,16.4-13.8,16.4C138.6,39.1,132.9,33,132.9,23.1z M146.9,4.7c-12.6,0-19.8,7.5-19.8,18.5c0,11.4,8.1,18.2,19.3,18.2
			c12.2,0,19.8-8.1,19.8-18.9C166.1,11,157.6,4.7,146.9,4.7z"/>
		<path class="st0" d="M187.5,14.7c0,7.8-6.9,8.1-12,7.9c-0.1-5.4-0.1-10.6,0-15c1-0.2,2.2-0.2,3-0.2c2.6,0,5.5,0.6,7.3,2.3
			C187,10.9,187.5,12.7,187.5,14.7z M193.1,14.2c0-3.4-1.6-6.3-4.8-7.7c-2.5-1.2-5.7-1.2-9.6-1.2c-4,0-6.5,0-8.5-0.2
			c0.3,3.7,0.4,6.2,0.4,13.8c0,7.2-0.1,14.5-0.4,21.6c0.7-0.2,1.3-0.3,2.7-0.3c1.5,0,2.1,0.2,3,0.3c-0.3-5-0.4-8.7-0.4-15.8
			c0.8,0.1,1.6,0.1,2.5,0.1c3.1,0,7.5-0.4,10.2-2.2C190.2,21.4,193.1,18.9,193.1,14.2z"/>
		<path class="st0" d="M214,20.2c-0.1,0.6-0.2,1-0.2,1.7c0,0.6,0.2,1,0.2,1.6c-2.7-0.4-5.7-0.5-7.9-0.5c-1.4,0-2.9,0.1-4.2,0.1
			c-0.1,2.2-0.1,4.5-0.1,6.7c0,2.7,0.1,6.6,0.2,7.9c3.3,0,7.4,0,13.5-0.6c-0.1,0.6-0.2,1-0.2,1.7c0,0.7,0.1,1.1,0.2,1.6
			c-2.4-0.3-4.8-0.3-7.1-0.3c-3.9,0-7.9,0.2-11.9,0.3c0.3-3.8,0.6-7.2,0.6-18.4c0-5.1-0.1-12-0.4-17.1c3.6,0.3,7.1,0.3,10.7,0.3
			c2.6,0,5.2-0.1,7.8-0.3c-0.1,0.6-0.2,1.1-0.2,1.8c0,0.7,0.1,1.1,0.2,1.6c-1.9-0.4-3.7-0.7-8.1-0.7c-1.8,0-2.8,0-5,0.1
			c-0.1,2-0.1,2.9-0.1,5.9c0,3.3,0,3.9,0.1,6.7C206,20.6,210,20.7,214,20.2z"/>
		<path class="st0" d="M258.5,23.6c2-6,3.6-10.6,5.2-18.5c0.8,0.3,1.5,0.3,2.2,0.3c1.4,0,2.1-0.2,2.4-0.3
			c-2.1,5.2-5.4,13.5-9.8,26.4c-1.7,4.9-2.2,6.7-2.9,9c-0.5-0.3-1.6-0.3-2.1-0.3c-0.3,0-1.3,0-2.1,0.3c-2.1-8.1-8.3-25.5-9.2-28.1
			c-1.3,3.5-7.2,20.3-8.6,24.9c-0.4,1-0.6,1.8-0.9,3.2c-0.9-0.3-1.8-0.3-2.3-0.3c-0.3,0-1.2,0-2.2,0.3c-2.3-8.8-7.2-25.4-11.3-35.5
			c0.6,0.2,1.5,0.3,2.7,0.3c1.5,0,3.3-0.3,3.6-0.3c1.9,8.5,6.4,22.5,8.6,29.2l3.7-10.7c1.7-4.8,4.7-14,5.6-18.5
			c0.6,0.2,1.1,0.3,2.2,0.3c1,0,1.4-0.2,1.9-0.3c0.5,1.8,0.9,3.6,1.9,6.8c1.7,5.5,6.6,19.6,7.5,22.4L258.5,23.6z"/>
		<path class="st0" d="M272.1,5.1c0.8,0.2,1.4,0.3,2.8,0.3c1.4,0,2.1-0.1,3-0.3c-0.3,6.1-0.4,12.2-0.4,18.3c0,9.2,0.2,13.3,0.4,17.2
			c-1-0.2-2-0.3-3.2-0.3c-1.1,0-1.9,0.2-2.7,0.3c0.4-5.6,0.5-8.2,0.5-18.2C272.4,15,272.4,14.5,272.1,5.1z"/>
		<path class="st0" d="M303,11.6c-0.7-1.9-2.4-4.8-7.1-4.8c-5.6,0-6.6,4.1-6.6,5.9c0,4,3.4,5.4,6,6.5c5.6,2.2,6.6,2.5,8.4,4
			c2.4,1.9,2.9,4.6,2.9,6.6c0,5.3-3.7,11.4-12.9,11.4c-3.4,0-6.7-0.8-9.3-2.8c0.8-2.6,0.9-4.2,0.9-4.8h0.7c1.5,3.1,4.5,5.3,8.6,5.3
			c5.4,0,7.6-3.5,7.6-6.8c0-4.2-2.9-5.7-6.4-7.1c-6-2.5-6.7-2.8-8-4c-1.7-1.4-2.6-4-2.6-6.4c0-6.6,5.3-9.9,11.4-9.9
			c4,0,7.5,1.5,8.7,2.4c-0.4,0.8-1.3,2.8-1.5,4.6H303z"/>
		<path class="st0" d="M331,20.2c-0.1,0.6-0.2,1-0.2,1.7c0,0.6,0.2,1,0.2,1.6c-2.7-0.4-5.7-0.5-7.9-0.5c-1.4,0-2.9,0.1-4.2,0.1
			c-0.1,2.2-0.1,4.5-0.1,6.7c0,2.7,0.1,6.6,0.2,7.9c3.3,0,7.4,0,13.5-0.6c-0.1,0.6-0.2,1-0.2,1.7c0,0.7,0.1,1.1,0.2,1.6
			c-2.4-0.3-4.8-0.3-7.1-0.3c-3.9,0-7.9,0.2-11.9,0.3c0.3-3.8,0.6-7.2,0.6-18.4c0-5.1-0.1-12-0.4-17.1c3.6,0.3,7.1,0.3,10.7,0.3
			c2.6,0,5.2-0.1,7.8-0.3c-0.1,0.6-0.2,1.1-0.2,1.8c0,0.7,0.1,1.1,0.2,1.6c-1.9-0.4-3.7-0.7-8.1-0.7c-1.8,0-2.8,0-5,0.1
			c-0.1,2-0.1,2.9-0.1,5.9c0,3.3,0,3.9,0.1,6.7C322.9,20.6,327,20.7,331,20.2z"/>
		<path class="st0" d="M356.5,14.1c0,7.1-7.1,7.4-9.4,7.5c-1.2,0.1-1.7,0.1-2.7-0.1c0-1.1-0.1-4.7-0.1-7c0-2.3,0-4.7,0.1-7
			c0.7-0.1,1.7-0.3,3.2-0.3C351.4,7.4,356.5,8.1,356.5,14.1z M365,40c-0.6-0.9-11.3-14.3-13.2-17.2c3.1-0.6,10-1.8,10-9.2
			c0-2.5-0.7-4.6-2.6-6.2c-1.7-1.4-3.6-2.2-9.7-2.2c-0.8,0-5,0.1-5.9,0.1c-1.1,0-2.5,0-4.5-0.2c0.2,5.7,0.3,11.1,0.3,15.8
			c0,7.5-0.1,13.6-0.4,19.6c0.8-0.2,1.3-0.3,2.7-0.3c0.9,0,2.1,0.1,3,0.3c-0.4-8.2-0.4-13.5-0.4-17.2h1.3c3.9,4.7,7.7,9.5,12.6,17.2
			c1.4-0.2,2.6-0.3,3.7-0.3c1.1,0,1.9,0.2,3,0.3V40z"/>
	</g>
	<g>
		<path class="st0" d="M37.4,40.6c0.5-9.1,0.7-12,0.7-18.7c0-3.9-0.1-5.2-0.5-16.7v0H35v35.4L37.4,40.6"/>
		<path class="st0" d="M43.3,5.2c0,0-0.5,9.1-0.4,14.9c3.4,0.1,6.8,0.2,10.2,0.2c4,0,6.3-0.1,9.5-0.2c0.1-7,0.1-7.7-0.3-14.9v0
			L43.3,5.2L43.3,5.2z"/>
		<path class="st0" d="M43.1,40.6c0,0-0.1-5.1-0.1-9.8v-7.6c3.9-0.1,4.9-0.1,9.8-0.1c5.1,0,6.4,0,9.8,0.2v7.7c0,1.3-0.4,9.7-0.4,9.7
			l0,0L43.1,40.6L43.1,40.6z"/>
		<path class="st0" d="M67.8,40.6c-0.3-5-0.3-6.7-0.3-10.8c0-7.6,0.6-24.6,0.6-24.6v0h2.4v35.4L67.8,40.6"/>
	</g>
</g>
</svg>
