<?xml version="1.0" encoding="utf-8"?>
<!-- Generator: Adobe Illustrator 25.3.0, SVG Export Plug-In . SVG Version: 6.00 Build 0)  -->
<svg version="1.1" id="Layer_1" xmlns="http://www.w3.org/2000/svg" xmlns:xlink="http://www.w3.org/1999/xlink" x="0px" y="0px"
	 viewBox="0 0 150 65" style="enable-background:new 0 0 150 65;" xml:space="preserve">
<style type="text/css">
	.st0{fill:#FFFFFF;}
</style>
<g>
	<path class="st0" d="M50.1,18.7h-7.5c-2,0-3.6,1.6-3.6,3.6v7.4h7.5c2,0,3.6-1.6,3.6-3.6V18.7z"/>
	<path class="st0" d="M37,31.4h-8.5c-2.3,0-4.1,1.8-4.1,4.1V44h8.5c2.3,0,4.1-1.8,4.1-4.1V31.4z"/>
	<path class="st0" d="M32.8,17h-8.4v8.5c0,2.3,1.8,4.1,4.1,4.1h8.4v-8.5C36.9,18.8,35,17,32.8,17z M36.3,29h-6c-1.6,0-3-1.3-3-3
		v-6.1h6c1.6,0,3,1.3,3,3V29z"/>
	<g>
		<path class="st0" d="M75.2,36.5C75.2,36.5,75.2,36.5,75.2,36.5c0-0.1-0.1-0.1-0.1-0.2c0,0-0.1-0.1-0.1-0.1c-0.1,0-0.1,0-0.2-0.1
			c-0.1,0-0.2,0-0.2,0c-0.1,0-0.1,0-0.2,0c-0.1,0-0.3,0-0.4,0.1c-0.1,0-0.3,0.1-0.4,0.2c-0.1,0.1-0.3,0.2-0.4,0.4
			c-0.2,0.2-0.3,0.4-0.5,0.7v-1c0,0,0-0.1,0-0.1c0,0,0-0.1-0.1-0.1c0,0-0.1,0-0.2,0c-0.1,0-0.2,0-0.3,0c-0.1,0-0.2,0-0.3,0
			c-0.1,0-0.1,0-0.2,0c0,0-0.1,0-0.1,0.1c0,0,0,0.1,0,0.1v6.8c0,0,0,0.1,0,0.1c0,0,0,0.1,0.1,0.1c0,0,0.1,0,0.2,0c0.1,0,0.2,0,0.3,0
			c0.1,0,0.2,0,0.3,0c0.1,0,0.1,0,0.2,0c0,0,0.1,0,0.1-0.1c0,0,0-0.1,0-0.1v-4.5c0.2-0.3,0.3-0.5,0.4-0.7c0.1-0.2,0.3-0.3,0.4-0.5
			c0.1-0.1,0.2-0.2,0.4-0.2c0.1-0.1,0.2-0.1,0.3-0.1c0.1,0,0.2,0,0.3,0c0.1,0,0.2,0,0.2,0.1c0.1,0,0.1,0,0.2,0.1c0.1,0,0.1,0,0.1,0
			c0,0,0.1,0,0.1,0c0,0,0-0.1,0.1-0.1c0,0,0-0.1,0-0.2c0-0.1,0-0.2,0-0.3c0-0.1,0-0.2,0-0.3C75.2,36.6,75.2,36.6,75.2,36.5z"/>
		<path class="st0" d="M81.6,37.1c-0.2-0.3-0.5-0.5-0.9-0.7c-0.4-0.2-0.8-0.3-1.4-0.3c-0.5,0-0.9,0.1-1.4,0.3
			c-0.4,0.2-0.7,0.4-1,0.7c-0.3,0.3-0.5,0.7-0.7,1.2c-0.2,0.5-0.2,1-0.2,1.6c0,0.6,0.1,1.2,0.2,1.6c0.1,0.5,0.4,0.8,0.6,1.2
			c0.3,0.3,0.6,0.5,1.1,0.7c0.4,0.2,0.9,0.2,1.5,0.2c0.3,0,0.6,0,0.9-0.1c0.3,0,0.5-0.1,0.8-0.2c0.2-0.1,0.4-0.1,0.5-0.2
			c0.1-0.1,0.2-0.1,0.2-0.1c0,0,0.1-0.1,0.1-0.1c0,0,0-0.1,0-0.1c0,0,0-0.1,0-0.1c0,0,0-0.1,0-0.2c0-0.1,0-0.2,0-0.2
			c0-0.1,0-0.1,0-0.1c0,0,0-0.1-0.1-0.1c0,0-0.1,0-0.1,0c-0.1,0-0.2,0-0.3,0.1c-0.1,0.1-0.3,0.1-0.5,0.2c-0.2,0.1-0.4,0.1-0.7,0.2
			c-0.3,0.1-0.5,0.1-0.9,0.1c-0.4,0-0.8-0.1-1-0.2c-0.3-0.1-0.5-0.3-0.7-0.5c-0.2-0.2-0.3-0.5-0.4-0.8c-0.1-0.3-0.1-0.6-0.1-1h4.5
			c0.1,0,0.2,0,0.3-0.1c0.1-0.1,0.1-0.2,0.1-0.4v-0.2c0-0.4-0.1-0.9-0.2-1.2C82.1,37.8,81.9,37.4,81.6,37.1z M77.4,39.3
			c0-0.3,0.1-0.5,0.1-0.8c0.1-0.3,0.2-0.5,0.4-0.7c0.2-0.2,0.4-0.3,0.6-0.5c0.2-0.1,0.5-0.2,0.8-0.2c0.6,0,1.1,0.2,1.4,0.6
			c0.3,0.4,0.5,0.9,0.4,1.5H77.4z"/>
		<path class="st0" d="M89.1,41.8c0,0,0-0.1-0.1-0.1c0,0-0.1,0-0.1,0c-0.1,0-0.1,0-0.3,0.1c-0.1,0.1-0.2,0.2-0.4,0.3
			c-0.2,0.1-0.3,0.2-0.6,0.3c-0.2,0.1-0.5,0.1-0.8,0.1c-0.3,0-0.6-0.1-0.8-0.2c-0.2-0.1-0.4-0.3-0.6-0.5s-0.3-0.5-0.4-0.8
			c-0.1-0.3-0.1-0.7-0.1-1.2c0-0.9,0.2-1.5,0.5-2c0.3-0.5,0.8-0.7,1.4-0.7c0.3,0,0.5,0,0.8,0.1c0.2,0.1,0.4,0.2,0.5,0.3
			c0.2,0.1,0.3,0.2,0.4,0.3c0.1,0.1,0.2,0.1,0.3,0.1c0.1,0,0.1,0,0.2-0.1c0-0.1,0.1-0.2,0.1-0.4c0-0.1,0-0.2,0-0.2
			c0-0.1,0-0.1,0-0.2c0,0,0-0.1-0.1-0.1c0,0-0.1-0.1-0.1-0.1c-0.1-0.1-0.2-0.1-0.3-0.2c-0.1-0.1-0.3-0.2-0.5-0.2
			c-0.2-0.1-0.4-0.1-0.6-0.2c-0.2,0-0.4-0.1-0.6-0.1c-0.4,0-0.9,0.1-1.2,0.2c-0.4,0.1-0.7,0.4-1,0.7c-0.3,0.3-0.5,0.7-0.7,1.2
			c-0.2,0.5-0.2,1.1-0.2,1.7c0,0.6,0.1,1.1,0.2,1.6c0.1,0.5,0.3,0.8,0.6,1.1c0.3,0.3,0.6,0.5,0.9,0.7c0.4,0.2,0.8,0.2,1.3,0.2
			c0.2,0,0.5,0,0.7-0.1c0.2,0,0.4-0.1,0.6-0.2c0.2-0.1,0.4-0.2,0.5-0.2c0.2-0.1,0.3-0.2,0.3-0.2c0.1-0.1,0.1-0.1,0.1-0.1
			c0,0,0-0.1,0-0.1c0,0,0-0.1,0-0.2c0-0.1,0-0.1,0-0.2c0-0.1,0-0.2,0-0.3S89.1,41.9,89.1,41.8z"/>
		<path class="st0" d="M96.1,36.3c-0.1,0-0.2,0-0.3,0c-0.2,0-0.3,0-0.4,0c-0.1,0-0.1,0-0.2,0.1c0,0-0.1,0.1-0.1,0.2L93.2,42h0
			l-1.9-5.4c0-0.1,0-0.1-0.1-0.2c0,0-0.1-0.1-0.1-0.1c-0.1,0-0.1,0-0.2,0c-0.1,0-0.2,0-0.4,0c-0.2,0-0.3,0-0.4,0
			c-0.1,0-0.2,0-0.2,0.1c0,0-0.1,0.1-0.1,0.1s0,0.1,0.1,0.2l2.4,6.5c0,0.1,0,0.1,0.1,0.1c0,0,0.1,0.1,0.1,0.1l-1.3,3.8
			c0,0.1,0,0.1,0,0.2c0,0.1,0,0.1,0.1,0.1c0,0,0.1,0.1,0.2,0.1c0.1,0,0.2,0,0.3,0c0.3,0,0.4,0,0.6-0.1c0.1,0,0.2-0.1,0.2-0.2
			l1.3-3.9l2.4-6.8c0-0.1,0-0.2,0-0.2s0-0.1-0.1-0.1C96.2,36.3,96.2,36.3,96.1,36.3z"/>
		<path class="st0" d="M102.4,41.8c0,0,0-0.1-0.1-0.1c0,0-0.1,0-0.1,0c-0.1,0-0.1,0-0.3,0.1c-0.1,0.1-0.2,0.2-0.4,0.3
			c-0.2,0.1-0.3,0.2-0.6,0.3c-0.2,0.1-0.5,0.1-0.8,0.1c-0.3,0-0.6-0.1-0.8-0.2c-0.2-0.1-0.4-0.3-0.6-0.5s-0.3-0.5-0.4-0.8
			c-0.1-0.3-0.1-0.7-0.1-1.2c0-0.9,0.2-1.5,0.5-2c0.3-0.5,0.8-0.7,1.4-0.7c0.3,0,0.5,0,0.8,0.1c0.2,0.1,0.4,0.2,0.5,0.3
			c0.2,0.1,0.3,0.2,0.4,0.3c0.1,0.1,0.2,0.1,0.3,0.1c0.1,0,0.1,0,0.2-0.1c0-0.1,0.1-0.2,0.1-0.4c0-0.1,0-0.2,0-0.2
			c0-0.1,0-0.1,0-0.2c0,0,0-0.1-0.1-0.1c0,0-0.1-0.1-0.1-0.1c-0.1-0.1-0.2-0.1-0.3-0.2c-0.1-0.1-0.3-0.2-0.5-0.2
			c-0.2-0.1-0.4-0.1-0.6-0.2c-0.2,0-0.4-0.1-0.6-0.1c-0.4,0-0.9,0.1-1.2,0.2c-0.4,0.1-0.7,0.4-1,0.7c-0.3,0.3-0.5,0.7-0.7,1.2
			c-0.2,0.5-0.2,1.1-0.2,1.7c0,0.6,0.1,1.1,0.2,1.6c0.1,0.5,0.3,0.8,0.6,1.1c0.3,0.3,0.6,0.5,0.9,0.7c0.4,0.2,0.8,0.2,1.3,0.2
			c0.2,0,0.5,0,0.7-0.1c0.2,0,0.4-0.1,0.6-0.2c0.2-0.1,0.4-0.2,0.5-0.2c0.2-0.1,0.3-0.2,0.3-0.2c0.1-0.1,0.1-0.1,0.1-0.1
			c0,0,0-0.1,0-0.1c0,0,0-0.1,0-0.2c0-0.1,0-0.1,0-0.2c0-0.1,0-0.2,0-0.3S102.4,41.9,102.4,41.8z"/>
		<path class="st0" d="M105.3,31.9c0,0-0.1,0-0.2,0c-0.1,0-0.2,0-0.3,0c-0.1,0-0.2,0-0.3,0c-0.1,0-0.1,0-0.2,0c0,0-0.1,0-0.1,0.1
			c0,0,0,0.1,0,0.1l0,11.3c0,0,0,0.1,0,0.1c0,0,0.1,0.1,0.1,0.1c0,0,0.1,0,0.2,0c0.1,0,0.2,0,0.3,0c0.1,0,0.2,0,0.3,0
			c0.1,0,0.1,0,0.2,0c0,0,0.1,0,0.1-0.1c0,0,0-0.1,0-0.1l0-11.3C105.4,32,105.4,32,105.3,31.9C105.3,31.9,105.3,31.9,105.3,31.9z"/>
		<path class="st0" d="M108.3,32.3c-0.3,0-0.5,0.1-0.6,0.2c-0.1,0.1-0.2,0.3-0.2,0.6c0,0.3,0.1,0.5,0.2,0.6c0.1,0.1,0.3,0.2,0.6,0.2
			c0.3,0,0.5-0.1,0.6-0.2c0.1-0.1,0.2-0.3,0.2-0.6c0-0.3-0.1-0.5-0.2-0.6S108.6,32.3,108.3,32.3z"/>
		<path class="st0" d="M108.8,36.4c0,0-0.1,0-0.2,0c-0.1,0-0.2,0-0.3,0c-0.1,0-0.2,0-0.3,0c-0.1,0-0.1,0-0.2,0c0,0-0.1,0-0.1,0.1
			c0,0,0,0.1,0,0.1v6.8c0,0,0,0.1,0,0.1c0,0,0.1,0.1,0.1,0.1c0,0,0.1,0,0.2,0c0.1,0,0.2,0,0.3,0c0.1,0,0.2,0,0.3,0
			c0.1,0,0.1,0,0.2,0c0,0,0.1,0,0.1-0.1c0,0,0-0.1,0-0.1v-6.8C108.9,36.5,108.9,36.5,108.8,36.4C108.9,36.3,108.8,36.4,108.8,36.4z"
			/>
		<path class="st0" d="M116.5,37c-0.2-0.3-0.4-0.5-0.8-0.6c-0.3-0.2-0.7-0.2-1.1-0.2c-0.4,0-0.8,0.1-1.2,0.3
			c-0.4,0.2-0.8,0.5-1.1,0.9v-0.9c0,0,0-0.1,0-0.1c0,0,0-0.1-0.1-0.1c0,0-0.1,0-0.2,0c-0.1,0-0.2,0-0.3,0c-0.1,0-0.2,0-0.3,0
			c-0.1,0-0.1,0-0.2,0c0,0-0.1,0-0.1,0.1c0,0,0,0.1,0,0.1v6.8c0,0,0,0.1,0,0.1c0,0,0.1,0.1,0.1,0.1c0,0,0.1,0,0.2,0
			c0.1,0,0.2,0,0.3,0c0.1,0,0.2,0,0.3,0c0.1,0,0.1,0,0.2,0c0,0,0.1,0,0.1-0.1c0,0,0-0.1,0-0.1v-4.7c0.3-0.4,0.7-0.8,1-1
			c0.3-0.2,0.6-0.3,0.9-0.3c0.2,0,0.5,0,0.6,0.1c0.2,0.1,0.3,0.2,0.4,0.4c0.1,0.2,0.2,0.4,0.3,0.6c0.1,0.2,0.1,0.5,0.1,0.9v4
			c0,0,0,0.1,0,0.1c0,0,0.1,0.1,0.1,0.1c0,0,0.1,0,0.2,0c0.1,0,0.2,0,0.3,0c0.1,0,0.2,0,0.3,0c0.1,0,0.1,0,0.2,0c0,0,0.1,0,0.1-0.1
			c0,0,0-0.1,0-0.1v-4.1c0-0.5,0-0.9-0.1-1.2C116.8,37.6,116.7,37.3,116.5,37z"/>
		<path class="st0" d="M125.7,36h-3.2v0c-0.2,0-0.4-0.1-0.6-0.1c-1.8,0-3.2,1.3-3.2,2.9c0,1,0.6,1.9,1.4,2.4
			c-0.9,1.2-0.7,1.4-0.6,1.5c0.1,0.1,0.3,0.3,0.4,0.4c-0.4,0.3-1.3,1.2-1.3,2.3c0,1.4,1.6,2.4,3.2,2.4c1.6,0,2.4-0.5,2.9-1
			c0.5-0.5,0.7-1.1,0.7-1.8c0-1.1-0.4-1.7-2.1-2.3c-0.9-0.3-1.5-0.4-1.9-0.5c-0.2-0.1-0.4-0.1-0.5-0.1c0-0.1,0.2-0.3,0.3-0.5
			c0.2,0,0.4,0.1,0.6,0.1c1.8,0,3.2-1.3,3.2-2.9c0-0.6-0.2-1.2-0.6-1.7h1.2V36z M123.9,39c0,1-0.9,1.8-2,1.8c-1.1,0-2-0.8-2-1.8
			c0-1,0.9-1.8,2-1.8C123,37.2,123.9,38,123.9,39z M121,43.6c2.7,0.6,3.1,1.3,3.2,1.9c0,0.2-0.1,0.6-0.4,0.9c-0.4,0.4-1,0.7-1.6,0.7
			c-1.3,0-1.8,0-2.3-1.2C119.5,44.8,120.7,43.8,121,43.6z"/>
	</g>
	<g>
		<polyline class="st0" points="46,33.6 48.4,43.9 48.6,43.9 49.6,43.9 52.2,33 51.4,33 48.9,43 46.8,33 46.7,33 45.9,33 		"/>
		<polyline class="st0" points="46,33.6 43.5,43.9 43.3,43.9 42.4,43.9 39.7,33 40.5,33 43,43 45.1,33 45.2,33 46,33 		"/>
		<path class="st0" d="M58.9,34.3l0.4-0.6c0,0-1.2-0.8-3-0.8c-2.4,0-3.2,1.9-3.2,3c0,1.1,0.8,1.9,2.2,2.4c1.5,0.6,3.4,1.3,3.2,2.9
			c-0.1,1.5-1.1,2.2-2.6,2.2c-1.5,0-2.6-0.8-2.6-0.8v0.9c0,0,0.8,0.7,2.6,0.7s3.6-1,3.6-2.9c0-1.9-1.3-2.6-3.2-3.5
			c-1.9-0.9-2.4-1.3-2.3-2.3c0.1-1,1-2,2.4-1.9C57.6,33.6,58.9,34.3,58.9,34.3z"/>
		<path class="st0" d="M65.2,38.9c1.9,0,2.9-1.7,2.9-2.8c0-1-0.1-2.7-2.3-3h-4.2V44h1l0-5H64l3.9,5h1.1l0.2,0
			C68.5,43.1,66.4,40.3,65.2,38.9z M62.6,33.9c0,0,1.4,0,2.6,0c1.3,0,2,0.7,2,2c0,1.1-0.8,1.9-1.8,2.1c-0.2,0-0.3,0.1-0.5,0.1h-2.4
			V33.9z"/>
	</g>
</g>
</svg>
