<?xml version="1.0" encoding="utf-8"?>
<!-- Generator: Adobe Illustrator 25.3.0, SVG Export Plug-In . SVG Version: 6.00 Build 0)  -->
<svg version="1.1" id="Layer_1" xmlns="http://www.w3.org/2000/svg" xmlns:xlink="http://www.w3.org/1999/xlink" x="0px" y="0px"
	 viewBox="0 0 120 90" style="enable-background:new 0 0 120 90;" xml:space="preserve">
<style type="text/css">
	.st0{fill:#FFFFFF;}
</style>
<g>
	<path class="st0" d="M57.911438,54.8076172c0.1956787-0.135498,0.378418-0.2826538,0.378418-0.5247192
		c0-0.2815552-0.211731-0.4998169-0.4959717-0.4998169c-0.2895508,0-0.4834595,0.2075806-0.4834595,0.487915
		c0,0.1950684,0.0982056,0.3549805,0.3773804,0.6890259C57.758606,54.913269,57.911438,54.8076172,57.911438,54.8076172z"/>
	<path class="st0" d="M84.6022949,33.1256104c-0.1773682-0.3895874-0.5449829-0.6811523-1.1036377-0.6811523
		c-0.5576782,0-0.925293,0.2915649-1.1034546,0.6811523c-0.1009521,0.2415771-0.1392822,0.418457-0.152771,0.7086182h2.5128174
		C84.7416992,33.5440674,84.7044067,33.3671875,84.6022949,33.1256104z"/>
	<path class="st0" d="M56.848938,56.428772c0,0.5010986,0.3655396,0.8364868,0.883728,0.8364868
		c0.315979,0,0.6332397-0.081665,0.9942017-0.4065552l-1.1556396-1.3876343
		C57.2094116,55.7189941,56.848938,55.9545288,56.848938,56.428772z"/>
	<path class="st0" d="M49.3410034,43.8208008c-0.326355,0-0.5654297,0.1000977-0.7536011,0.2896729
		c-0.3421631,0.336731-0.3812866,0.9021606-0.3812866,1.5808105c0,0.6776733,0.0391235,1.2528687,0.3812866,1.5930786
		c0.1881714,0.1862793,0.4272461,0.2879028,0.7536011,0.2879028c0.3293457,0,0.5812378-0.1016235,0.7715454-0.2879028
		c0.3380737-0.34021,0.3753662-0.9154053,0.3753662-1.5930786c0-0.6786499-0.0372925-1.2440796-0.3753662-1.5808105
		C49.9222412,43.9208984,49.6703491,43.8208008,49.3410034,43.8208008z"/>
	<path class="st0" d="M55.0611572,33.1256104c-0.1763916-0.3895874-0.5440063-0.6811523-1.1016235-0.6811523
		c-0.5578003,0-0.9273071,0.2915649-1.1046753,0.6811523c-0.1019897,0.2415771-0.1382446,0.418457-0.1529541,0.7086182h2.5103149
		C55.2001953,33.5440674,55.1630859,33.3671875,55.0611572,33.1256104z"/>
	<path class="st0" d="M41.9361572,55.0726929c-0.6282959,0-0.7302856,0.5402222-0.7302856,1.1046143
		c0,0.5641479,0.1019897,1.1051636,0.7302856,1.1051636c0.6322021,0,0.7272339-0.5410156,0.7272339-1.1051636
		C42.6633911,55.612915,42.5683594,55.0726929,41.9361572,55.0726929z"/>
	<path class="st0" d="M49.098999,55.0536499c-0.3047485,0-0.5664673,0.171936-0.6784668,0.4352417
		c-0.0645142,0.1608887-0.0761719,0.2459717-0.0870361,0.4829102h1.5358887
		c-0.0119629-0.2369385-0.0216675-0.3220215-0.0901489-0.4829102C49.6652832,55.2255859,49.4078369,55.0536499,49.098999,55.0536499
		z"/>
	<path class="st0" d="M64.5664062,53.8366089h-1.1231689v1.5353394h1.1231689c0.491272,0,0.8380737-0.2553101,0.8380737-0.7649536
		C65.40448,54.0953369,65.0576782,53.8366089,64.5664062,53.8366089z"/>
	<path class="st0" d="M76.3201904,36.3311768c0.9899902,0,1.1312866-0.819397,1.1312866-1.8916626
		c0-1.0723267-0.1412964-1.8808594-1.1312866-1.8808594c-0.9848633,0-1.1132202,0.8085327-1.1132202,1.8808594
		C75.2069702,35.5117798,75.3353271,36.3311768,76.3201904,36.3311768z"/>
	<path class="st0" d="M69.8387451,45.5143433c0,0.8671875,0.1009521,1.706604,1.071228,1.706604
		c0.9701538,0,1.0848389-0.8394165,1.0848389-1.706604c0-0.866272-0.1146851-1.6935425-1.0848389-1.6935425
		C69.9396973,43.8208008,69.8387451,44.6480713,69.8387451,45.5143433z"/>
	<path class="st0" d="M26.5002441,11.5v67h66.9995117v-67H26.5002441z M83.4986572,31.0805054
		c1.8406372,0,2.8776855,1.3393555,2.8776855,3.1448364v0.7316895h-4.1339111c0,0.8447266,0.5213623,1.461853,1.4466553,1.461853
		c0.7223511,0,1.0778809-0.201416,1.496521-0.6171265l0.9994507,0.9713745
		c-0.6691895,0.6699219-1.3170166,1.0360107-2.5068359,1.0360107c-1.562439,0-3.059082-0.7062378-3.059082-3.3696289
		C80.6191406,32.2938843,81.7874146,31.0805054,83.4986572,31.0805054z M84.7856445,55.0718994
		c-0.4379272,0-0.7212524,0.2649536-0.7212524,0.7698364v1.781189h-0.4264526v-2.8912964h0.4264526v0.3161621
		c0.2056885-0.2347412,0.4909668-0.352417,0.8144531-0.352417c0.3133545,0,0.5664673,0.0940552,0.7446899,0.270813
		c0.2070312,0.1985474,0.3008423,0.4701538,0.3008423,0.8057251v1.8510132h-0.4240112v-1.781189
		C85.5003662,55.3306274,85.2207642,55.0718994,84.7856445,55.0718994z M82.0941772,54.6953735
		c0.2783203,0,0.4920044,0.0641479,0.6988525,0.270813l-0.3135376,0.3171387
		c-0.1598511-0.1578979-0.2773438-0.2106323-0.5026855-0.2106323c-0.4255371,0-0.6969604,0.3339844-0.6969604,0.7771606v1.7730713
		h-0.4255371v-2.8912964h0.4255371v0.3515015C81.4404907,54.8421631,81.7589111,54.6953735,82.0941772,54.6953735z
		 M80.8688354,45.475769v0.7287598h-4.1105347c0,0.8409424,0.5164795,1.4555054,1.434082,1.4555054
		c0.7213135,0,1.072998-0.2002563,1.4886475-0.614563l0.9979248,0.9658813
		c-0.6685791,0.6637573-1.3115845,1.0281982-2.4953613,1.0281982c-1.5517578,0-3.0402832-0.7033081-3.0402832-3.3482666
		c0-2.133606,1.161377-3.3381958,2.8627319-3.3381958C79.8328247,42.3530884,80.8688354,43.6826172,80.8688354,45.475769z
		 M79.6488037,56.1773071c0,0.4465942-0.0588379,0.8518066-0.3549805,1.1517334
		c-0.2019043,0.1994629-0.4772339,0.3312988-0.8330688,0.3312988c-0.3536987,0-0.6323853-0.1318359-0.8320923-0.3312988
		c-0.295105-0.2999268-0.3538818-0.7051392-0.3538818-1.1517334c0-0.4482422,0.0587769-0.8526611,0.3538818-1.1515503
		c0.199707-0.1995239,0.4783936-0.3303833,0.8320923-0.3303833c0.355835,0,0.6311646,0.1308594,0.8330688,0.3303833
		C79.5899658,55.324646,79.6488037,55.7290649,79.6488037,56.1773071z M74.7804565,56.9522095
		c0.151001,0.2174683,0.387207,0.3302612,0.6714478,0.3302612c0.2780762,0,0.4497681-0.0889893,0.6685181-0.3302612
		l0.289917,0.2774048c-0.302002,0.3239136-0.555603,0.4299316-0.9584351,0.4299316
		c-0.7320557,0-1.2870483-0.4945068-1.2870483-1.4822388c0-0.9881592,0.5549927-1.4819336,1.2870483-1.4819336
		c0.402832,0,0.6564331,0.1060181,0.9584351,0.4300537l-0.289917,0.269043
		c-0.21875-0.2392578-0.3904419-0.3225708-0.6685181-0.3225708c-0.2842407,0-0.5204468,0.1118164-0.6714478,0.3293457
		c-0.137207,0.1868896-0.1911621,0.4119263-0.1911621,0.776062C74.5892944,56.5425415,74.6432495,56.7652588,74.7804565,56.9522095z
		 M74.2306519,31.6750488c0.3674927-0.3670654,0.9643555-0.5949097,1.6091919-0.5949097
		c0.6724854,0,1.1810913,0.1784058,1.6116333,0.6571045v-2.9904175h1.6484985v8.9864502h-1.6123047v-0.6190186
		c-0.4539185,0.5043335-0.9381104,0.6948853-1.6339722,0.6948853c-0.6467285,0-1.2555542-0.2268066-1.6230469-0.5939331
		c-0.6607056-0.6557007-0.6707153-1.7922363-0.6707153-2.7756958
		C73.5599365,33.4549561,73.5699463,32.3303223,74.2306519,31.6750488z M72.0449219,42.4289551h1.5870361v6.2987061
		c0,1.5654907-1.1204224,2.7079468-2.8851929,2.7079468c-1.0090332,0-1.7039795-0.2003174-2.3851929-0.8521118l1.0231934-1.0289917
		c0.364502,0.3515015,0.7320557,0.5015259,1.2870483,0.5015259c0.9810791,0,1.322998-0.6893921,1.322998-1.3535767v-0.666687
		c-0.4302979,0.4790649-0.9221802,0.6530762-1.564209,0.6530762c-0.6430054,0-1.1975708-0.2133789-1.5611572-0.5786133
		c-0.6196899-0.6118774-0.6678467-1.4539795-0.6678467-2.5958862c0-1.1417236,0.0481567-1.9699707,0.6678467-2.5824585
		c0.3635864-0.3657227,0.9309692-0.5787964,1.572998-0.5787964c0.6929321,0,1.1484985,0.189209,1.602478,0.6915283V42.4289551z
		 M71.8526001,55.0718994c-0.4361572,0-0.722168,0.2649536-0.722168,0.7698364v1.781189h-0.4244385v-2.8912964h0.4244385v0.3161621
		c0.2088623-0.2347412,0.4920654-0.352417,0.8173218-0.352417c0.3126221,0,0.5655518,0.0940552,0.744751,0.270813
		c0.2080078,0.1985474,0.3000488,0.4701538,0.3000488,0.8057251v1.8510132h-0.4250488v-1.781189
		C72.5675049,55.3306274,72.2919312,55.0718994,71.8526001,55.0718994z M68.1067505,57.6603394
		c-0.3146973,0-0.5725708-0.09552-0.7496948-0.2714233c-0.2069702-0.2002563-0.2963867-0.4785767-0.2963867-0.8128662v-1.8444214
		h0.4274902v1.7821655c0,0.5103149,0.2706909,0.7686768,0.7078857,0.7686768c0.4359131,0,0.7261963-0.2632446,0.7261963-0.7686768
		v-1.7821655h0.4241943v2.8912964h-0.4195557v-0.3237915C68.7203979,57.5358887,68.4321899,57.6603394,68.1067505,57.6603394z
		 M70.3521118,37.7332764v-6.5762329h1.6436768v6.5762329H70.3521118z M70.3248901,28.6964111h1.6848145v1.3389282h-1.6848145
		V28.6964111z M66.6617432,35.1206055l-1.0397949-0.0993652c-1.192749-0.1147461-1.9287109-0.6327515-1.9287109-1.8446045
		c0-1.3634644,1.2075195-2.0961304,2.5511475-2.0961304c1.0253906,0,1.888855,0.1780396,2.5219727,0.7719727l-1.0136108,1.0217896
		c-0.380127-0.3406372-0.9623413-0.4421387-1.5337524-0.4421387c-0.6606445,0-0.9391479,0.303894-0.9391479,0.6307983
		c0,0.239563,0.0992432,0.5184326,0.6843262,0.5680542l1.0408936,0.1012573
		c1.3037109,0.1255493,1.96521,0.8204346,1.96521,1.9315186c0,1.4505005-1.243042,2.1453857-2.8023682,2.1453857
		c-1.0388184,0-1.9781494-0.1146851-2.8148193-0.9472656l1.0761108-1.0737915
		c0.5461426,0.5430908,1.2554932,0.6199951,1.7623901,0.6199951c0.571228,0,1.1680908-0.1906128,1.1680908-0.6821289
		C67.3596802,35.3980713,67.1815186,35.1716309,66.6617432,35.1206055z M64.2940063,47.6600342
		c0.7183838,0,1.0701904-0.2002563,1.4838867-0.614563l0.9978027,0.9658813
		c-0.6694946,0.6637573-1.3114014,1.0281982-2.494751,1.0281982c-1.5501709,0-3.0391846-0.7033081-3.0391846-3.3482666
		c0-2.133606,1.1607666-3.3381958,2.8600464-3.3381958c1.829895,0,2.861145,1.3295288,2.861145,3.1226807v0.7287598h-4.1057739
		C62.8571777,47.0454712,63.3707886,47.6600342,64.2940063,47.6600342z M65.9378662,57.6229248h-0.5255127l-0.9574585-1.8591309
		h-1.0116577v1.8591309h-0.4488525v-4.1847534h1.6132812c0.7332153,0,1.2485352,0.4404907,1.2485352,1.1628418
		c0,0.6113892-0.3725586,1.0119019-0.9180908,1.1226196L65.9378662,57.6229248z M58.3562622,31.1583862h1.6112671v0.6298218
		c0.3178101-0.3783569,0.9509277-0.7077026,1.6623535-0.7077026c0.6453247,0,1.1019287,0.1656494,1.5585327,0.6204834
		l-1.243042,1.2491455c-0.2537842-0.2508545-0.4702148-0.3914795-0.875061-0.3914795
		c-0.5048218,0-1.0654907,0.3792725-1.0654907,1.2108765v3.9637451h-1.6485596V31.1583862z M57.7230225,40.0332031h1.6408081
		v6.9616699c0,0.3904419,0.1619263,0.5905151,0.5803833,0.5905151h0.6280518v1.3797607h-0.9329834
		c-1.3477173,0-1.9162598-0.9402466-1.9162598-1.8679199V40.0332031z M57.7938843,53.4013672
		c0.526123,0,0.9174194,0.3817139,0.9174194,0.8815308c0,0.3356934-0.2019043,0.5667725-0.4675293,0.7476807
		c0,0-0.2127686,0.1413574-0.3137207,0.2120972l1.0759888,1.2874146c0.171814-0.2587891,0.2293701-0.4888916,0.234314-0.9580688
		h0.4273682c-0.0078125,0.52948-0.1196289,0.9580688-0.3911133,1.2817993l0.6438599,0.769104h-0.5623779l-0.3764648-0.4592896
		c-0.1713867,0.1605225-0.5674438,0.4959106-1.2399902,0.4959106c-0.8156128,0-1.3290405-0.4898682-1.3290405-1.2178345
		c0-0.62854,0.4470215-0.946228,0.909668-1.2525635c-0.2087402-0.2456665-0.4556885-0.5339355-0.4556885-0.9100342
		C56.8665771,53.7789917,57.2554932,53.4013672,57.7938843,53.4013672z M55.8449097,47.5853882h0.6317139v1.3797607h-0.9334106
		c-1.3475342,0-1.9140015-0.9402466-1.9140015-1.8679199v-7.0640259h1.6369019v6.9616699
		C55.2661133,47.3853149,55.4297485,47.5853882,55.8449097,47.5853882z M53.9595337,31.0805054
		c1.8398438,0,2.8775635,1.3393555,2.8775635,3.1448364v0.7316895h-4.1351929c0,0.8447266,0.5214233,1.461853,1.4458008,1.461853
		c0.7233887,0,1.0791016-0.201416,1.4984741-0.6171265l0.9998779,0.9713745
		c-0.6705322,0.6699219-1.3172607,1.0360107-2.5091553,1.0360107c-1.5613403,0-3.0561523-0.7062378-3.0561523-3.3696289
		C51.0807495,32.2938843,52.2462158,31.0805054,53.9595337,31.0805054z M49.1890869,57.2896729
		c0.3372803,0,0.5322266-0.1010132,0.7616577-0.3299561l0.2891235,0.2520142
		c-0.2930908,0.2937012-0.5664673,0.4486084-1.062439,0.4486084c-0.7675781,0-1.2703247-0.4590454-1.2703247-1.4830322
		c0-0.9354248,0.4537964-1.4819336,1.1918945-1.4819336c0.7536621,0,1.1957397,0.5422363,1.1957397,1.3997192v0.1950073h-1.9612427
		C48.3334961,56.9248657,48.6344604,57.2896729,49.1890869,57.2896729z M49.3410034,49.0395508
		c-0.9702759,0-1.6239624-0.3743286-2.0298462-0.8025513c-0.5900269-0.6155396-0.7428589-1.3545532-0.7428589-2.5457153
		c0-1.180481,0.152832-1.9214478,0.7428589-2.5346069c0.4058838-0.4276733,1.0595703-0.8035889,2.0298462-0.8035889
		c0.9713745,0,1.6408691,0.3759155,2.0426025,0.8035889c0.5921021,0.6131592,0.7446899,1.354126,0.7446899,2.5346069
		c0,1.1911621-0.1525879,1.9301758-0.7446899,2.5457153C50.9818726,48.6652222,50.3123779,49.0395508,49.3410034,49.0395508z
		 M45.5950317,55.0718994c-0.4370728,0-0.720459,0.2649536-0.720459,0.7698364v1.781189h-0.4243774v-2.8912964h0.4243774v0.3161621
		c0.2059326-0.2347412,0.4910278-0.352417,0.8164673-0.352417c0.3127441,0,0.5664062,0.0940552,0.744812,0.270813
		c0.2058716,0.1985474,0.3010864,0.4701538,0.3010864,0.8057251v1.8510132h-0.425415v-1.781189
		C46.3115234,55.3306274,46.0350952,55.0718994,45.5950317,55.0718994z M41.8439941,57.6603394
		c-0.2958984,0-0.5576172-0.1013794-0.7086182-0.2537231c-0.2952271-0.2941284-0.3548584-0.7776489-0.3548584-1.2293091
		c0-0.4533081,0.0596313-0.9354248,0.3548584-1.2283936c0.151001-0.1548462,0.4127197-0.25354,0.7086182-0.25354
		c0.317627,0,0.5842896,0.0701904,0.819397,0.3701172v-1.6273193h0.4263306v4.1854858h-0.418396v-0.3466187
		C42.4350586,57.5820312,42.1616211,57.6603394,41.8439941,57.6603394z M42.1577148,49.0395508
		c-0.9831543,0-1.7888184-0.350708-2.4199829-0.9788208c-0.9067993-0.9024048-0.8831177-2.0184937-0.8831177-3.5634155
		c0-1.5410156-0.0236816-2.6573486,0.8831177-3.5619507c0.6311646-0.6282349,1.4368286-0.9777222,2.4199829-0.9777222
		c1.677063,0,2.9884033,0.9526978,3.3029175,2.8223877h-1.7759399c-0.1774902-0.7145386-0.6313477-1.2664795-1.5132446-1.2664795
		c-0.4812622,0-0.8713989,0.1744385-1.123291,0.4631348c-0.3411255,0.3764038-0.4400635,0.8033447-0.4400635,2.5206299
		c0,1.7211304,0.098938,2.1480713,0.4400635,2.5227661c0.2518921,0.2892456,0.6420288,0.4644775,1.123291,0.4644775
		c0.881897,0,1.3357544-0.5522461,1.5132446-1.2661133h1.7759399
		C45.1461182,48.0852051,43.8218994,49.0395508,42.1577148,49.0395508z M39.1182251,53.9077148v-0.4763184h0.4793701v0.4763184
		H39.1182251z M39.5691528,54.7316284v2.8912964h-0.4263306v-2.8912964H39.5691528z M41.7989502,37.7332764v-6.5762329h1.6495972
		v6.5762329H41.7989502z M52.6931152,56.359314l-0.477356-0.0406494c-0.5683594-0.0473633-0.8673706-0.2995605-0.8673706-0.7764893
		c0-0.5292358,0.447937-0.8468018,1.0664062-0.8468018c0.4165039,0,0.7869873,0.0986938,1.0476685,0.3101807l-0.2774658,0.277771
		c-0.206604-0.1578979-0.4732666-0.2296753-0.7751465-0.2296753c-0.4244995,0-0.6508179,0.18396-0.6508179,0.4763184
		c0,0.246582,0.1431274,0.3937378,0.5076904,0.4245605l0.4696045,0.0402832
		c0.5076904,0.0463867,0.8546143,0.2412109,0.8546143,0.7805176c0,0.5616455-0.477417,0.8842163-1.1810913,0.8842163
		c-0.4920654,0-0.87323-0.1124268-1.1918335-0.4173584l0.2823486-0.2824707
		c0.2302246,0.2415771,0.5429688,0.3339844,0.9046021,0.3339844c0.477356,0,0.7714233-0.1721191,0.7714233-0.5101929
		C53.1763916,56.5300903,53.0293579,56.3891602,52.6931152,56.359314z M46.1508179,31.1583862l1.3417358,4.0637207
		l1.3309937-4.0637207h1.737854l-2.4210205,6.5748901h-1.2937012l-2.4346313-6.5748901H46.1508179z M41.7753906,28.6964111
		h1.6858521v1.3389282h-1.6858521V28.6964111z M33.6334229,28.7468262h3.5392456
		c1.8396606,0,2.9287109,1.2496338,2.9287109,2.7512817c0,1.2614746-0.7723999,2.0459595-1.6477051,2.3596802l2.0161743,3.8754883
		h-2.0426025l-1.7622681-3.5844727h-1.2672729v3.5844727h-1.7642822V28.7468262z M33.8421631,53.4381714l0.8214111,3.3751831
		l0.9272461-3.3751831h0.4008179l0.9281616,3.3751831l0.821228-3.3751831h0.4793701l-1.0761719,4.1847534h-0.418396
		l-0.934082-3.3519287l-0.9330444,3.3519287h-0.4195557l-1.0751953-4.1847534H33.8421631z M86.8076782,61.3036499H33.2081299
		v-0.3022461h53.5995483V61.3036499z"/>
	<path class="st0" d="M38.3410034,31.4981079c0-0.6929321-0.5105591-1.1854858-1.2810059-1.1854858h-1.6622925v2.3718872h1.6622925
		C37.8304443,32.6845093,38.3410034,32.1930542,38.3410034,31.4981079z"/>
	<path class="st0" d="M64.1018066,43.7091064c-0.5544434,0-0.9193115,0.2888184-1.0946045,0.677063
		c-0.1019287,0.237854-0.1381836,0.4140015-0.1500244,0.7020264h2.4952393
		c-0.0136108-0.2880249-0.0528564-0.4641724-0.1517944-0.7020264
		C65.0230103,43.9979248,64.6564941,43.7091064,64.1018066,43.7091064z"/>
	<path class="st0" d="M76.9083862,44.3861694c-0.0982666,0.237854-0.1381836,0.4140015-0.1500854,0.7020264h2.4945679
		c-0.0108643-0.2880249-0.0491943-0.4641724-0.1501465-0.7020264c-0.1755981-0.3882446-0.5419922-0.677063-1.0966797-0.677063
		C77.4514771,43.7091064,77.0866089,43.9979248,76.9083862,44.3861694z"/>
	<path class="st0" d="M77.9353638,55.2833252c-0.2114868,0.2121582-0.2369995,0.5698242-0.2369995,0.8939819
		c0,0.3249512,0.0255127,0.6813965,0.2369995,0.8927002c0.1334839,0.1362915,0.3195801,0.2124634,0.5253906,0.2124634
		c0.2080688,0,0.3968506-0.0761719,0.5332642-0.2124634c0.2096558-0.2113037,0.2293091-0.567749,0.2293091-0.8927002
		c0-0.3241577-0.0196533-0.6818237-0.2293091-0.8939819c-0.1364136-0.1348877-0.3251953-0.2106323-0.5332642-0.2106323
		C78.2549438,55.0726929,78.0688477,55.1484375,77.9353638,55.2833252z"/>
	<path d="M35.3977051,34.1488037h1.2672729l1.7622681,3.5844727h2.0426025l-2.0161743-3.8754883
		c0.8753052-0.3137207,1.6477051-1.0982056,1.6477051-2.3596802c0-1.5016479-1.0890503-2.7512817-2.9287109-2.7512817h-3.5392456
		v8.9864502h1.7642822V34.1488037z M35.3977051,30.3126221h1.6622925c0.7704468,0,1.2810059,0.4925537,1.2810059,1.1854858
		c0,0.6949463-0.5105591,1.1864014-1.2810059,1.1864014h-1.6622925V30.3126221z"/>
	<rect x="41.7989502" y="31.1570435" width="1.6495972" height="6.5762329"/>
	<rect x="41.7753906" y="28.6964111" width="1.6858521" height="1.3389282"/>
	<polygon points="48.1403809,37.7332764 50.5614014,31.1583862 48.8235474,31.1583862 47.4925537,35.2221069 46.1508179,31.1583862 
		44.4120483,31.1583862 46.8466797,37.7332764 	"/>
	<path d="M54.1369019,37.8091431c1.1918945,0,1.838623-0.3660889,2.5091553-1.0360107l-0.9998779-0.9713745
		c-0.4193726,0.4157104-0.7750854,0.6171265-1.4984741,0.6171265c-0.9243774,0-1.4458008-0.6171265-1.4458008-1.461853h4.1351929
		v-0.7316895c0-1.805481-1.0377197-3.1448364-2.8775635-3.1448364c-1.7133179,0-2.8787842,1.2133789-2.8787842,3.3590088
		C51.0807495,37.1029053,52.5755615,37.8091431,54.1369019,37.8091431z M52.8548584,33.1256104
		c0.1773682-0.3895874,0.546875-0.6811523,1.1046753-0.6811523c0.5576172,0,0.9252319,0.2915649,1.1016235,0.6811523
		c0.1019287,0.2415771,0.1390381,0.418457,0.151062,0.7086182h-2.5103149
		C52.7166138,33.5440674,52.7528687,33.3671875,52.8548584,33.1256104z"/>
	<path d="M60.0048218,33.7695312c0-0.831604,0.5606689-1.2108765,1.0654907-1.2108765
		c0.4048462,0,0.6212769,0.140625,0.875061,0.3914795l1.243042-1.2491455
		c-0.456604-0.454834-0.913208-0.6204834-1.5585327-0.6204834c-0.7114258,0-1.3445435,0.3293457-1.6623535,0.7077026v-0.6298218
		h-1.6112671v6.5748901h1.6485596V33.7695312z"/>
	<path d="M66.1915894,36.4080811c-0.506897,0-1.2162476-0.0769043-1.7623901-0.6199951l-1.0761108,1.0737915
		c0.8366699,0.8325806,1.776001,0.9472656,2.8148193,0.9472656c1.5593262,0,2.8023682-0.6948853,2.8023682-2.1453857
		c0-1.111084-0.661499-1.8059692-1.96521-1.9315186l-1.0408936-0.1012573
		c-0.585083-0.0496216-0.6843262-0.3284912-0.6843262-0.5680542c0-0.3269043,0.2785034-0.6307983,0.9391479-0.6307983
		c0.5714111,0,1.1536255,0.1015015,1.5337524,0.4421387l1.0136108-1.0217896
		c-0.6331177-0.5939331-1.496582-0.7719727-2.5219727-0.7719727c-1.3436279,0-2.5511475,0.732666-2.5511475,2.0961304
		c0,1.211853,0.7359619,1.7298584,1.9287109,1.8446045l1.0397949,0.0993652
		c0.5197754,0.0510254,0.697937,0.2774658,0.697937,0.6053467C67.3596802,36.2174683,66.7628174,36.4080811,66.1915894,36.4080811z"
		/>
	<rect x="70.3248901" y="28.6964111" width="1.6848145" height="1.3389282"/>
	<rect x="70.3521118" y="31.1570435" width="1.6436768" height="6.5762329"/>
	<path d="M75.8536987,37.8091431c0.6958618,0,1.1800537-0.1905518,1.6339722-0.6948853v0.6190186h1.6123047v-8.9864502h-1.6484985
		v2.9904175c-0.430542-0.4786987-0.9391479-0.6571045-1.6116333-0.6571045c-0.6448364,0-1.2416992,0.2278442-1.6091919,0.5949097
		c-0.6607056,0.6552734-0.6707153,1.7799072-0.6707153,2.7644653c0,0.9834595,0.0100098,2.1199951,0.6707153,2.7756958
		C74.5981445,37.5823364,75.2069702,37.8091431,75.8536987,37.8091431z M76.3201904,32.5586548
		c0.9899902,0,1.1312866,0.8085327,1.1312866,1.8808594c0,1.0722656-0.1412964,1.8916626-1.1312866,1.8916626
		c-0.9848633,0-1.1132202-0.819397-1.1132202-1.8916626C75.2069702,33.3671875,75.3353271,32.5586548,76.3201904,32.5586548z"/>
	<path d="M83.6782227,37.8091431c1.1898193,0,1.8376465-0.3660889,2.5068359-1.0360107l-0.9994507-0.9713745
		c-0.4186401,0.4157104-0.7741699,0.6171265-1.496521,0.6171265c-0.925293,0-1.4466553-0.6171265-1.4466553-1.461853h4.1339111
		v-0.7316895c0-1.805481-1.0370483-3.1448364-2.8776855-3.1448364c-1.7112427,0-2.8795166,1.2133789-2.8795166,3.3590088
		C80.6191406,37.1029053,82.1157837,37.8091431,83.6782227,37.8091431z M82.3952026,33.1256104
		c0.1781616-0.3895874,0.5457764-0.6811523,1.1034546-0.6811523c0.5586548,0,0.9262695,0.2915649,1.1036377,0.6811523
		c0.1021118,0.2415771,0.1394043,0.418457,0.1529541,0.7086182h-2.5128174
		C82.2559204,33.5440674,82.2942505,33.3671875,82.3952026,33.1256104z"/>
	<rect x="33.2081299" y="61.0014038" width="53.5995483" height="0.3022461"/>
	<path d="M45.4606323,46.2184448h-1.7759399c-0.1774902,0.7138672-0.6313477,1.2661133-1.5132446,1.2661133
		c-0.4812622,0-0.8713989-0.1752319-1.123291-0.4644775c-0.3411255-0.3746948-0.4400635-0.8016357-0.4400635-2.5227661
		c0-1.7172852,0.098938-2.1442261,0.4400635-2.5206299c0.2518921-0.2886963,0.6420288-0.4631348,1.123291-0.4631348
		c0.881897,0,1.3357544,0.5519409,1.5132446,1.2664795h1.7759399c-0.3145142-1.8696899-1.6258545-2.8223877-3.3029175-2.8223877
		c-0.9831543,0-1.7888184,0.3494873-2.4199829,0.9777222c-0.9067993,0.9046021-0.8831177,2.0209351-0.8831177,3.5619507
		c0,1.5449219-0.0236816,2.6610107,0.8831177,3.5634155c0.6311646,0.6281128,1.4368286,0.9788208,2.4199829,0.9788208
		C43.8218994,49.0395508,45.1461182,48.0852051,45.4606323,46.2184448z"/>
	<path d="M52.1282959,45.6912842c0-1.180481-0.1525879-1.9214478-0.7446899-2.5346069
		c-0.4017334-0.4276733-1.071228-0.8035889-2.0426025-0.8035889c-0.9702759,0-1.6239624,0.3759155-2.0298462,0.8035889
		c-0.5900269,0.6131592-0.7428589,1.354126-0.7428589,2.5346069c0,1.1911621,0.152832,1.9301758,0.7428589,2.5457153
		c0.4058838,0.4282227,1.0595703,0.8025513,2.0298462,0.8025513c0.9713745,0,1.6408691-0.3743286,2.0426025-0.8025513
		C51.975708,47.62146,52.1282959,46.8824463,52.1282959,45.6912842z M50.1125488,47.2843628
		c-0.1903076,0.1862793-0.4421997,0.2879028-0.7715454,0.2879028c-0.326355,0-0.5654297-0.1016235-0.7536011-0.2879028
		c-0.3421631-0.34021-0.3812866-0.9154053-0.3812866-1.5930786c0-0.6786499,0.0391235-1.2440796,0.3812866-1.5808105
		c0.1881714-0.1895752,0.4272461-0.2896729,0.7536011-0.2896729c0.3293457,0,0.5812378,0.1000977,0.7715454,0.2896729
		c0.3380737,0.336731,0.3753662,0.9021606,0.3753662,1.5808105C50.487915,46.3689575,50.4506226,46.9441528,50.1125488,47.2843628z"
		/>
	<path d="M53.6292114,40.0332031v7.0640259c0,0.9276733,0.5664673,1.8679199,1.9140015,1.8679199h0.9334106v-1.3797607h-0.6317139
		c-0.4151611,0-0.5787964-0.2000732-0.5787964-0.5905151v-6.9616699H53.6292114z"/>
	<path d="M59.6392822,48.9651489h0.9329834v-1.3797607h-0.6280518c-0.418457,0-0.5803833-0.2000732-0.5803833-0.5905151v-6.9616699
		h-1.6408081v7.0640259C57.7230225,48.0249023,58.2915649,48.9651489,59.6392822,48.9651489z"/>
	<path d="M66.9629517,45.475769c0-1.7931519-1.03125-3.1226807-2.861145-3.1226807
		c-1.6992798,0-2.8600464,1.2045898-2.8600464,3.3381958c0,2.6449585,1.4890137,3.3482666,3.0391846,3.3482666
		c1.1833496,0,1.8252563-0.3644409,2.494751-1.0281982l-0.9978027-0.9658813
		c-0.4136963,0.4143066-0.7655029,0.614563-1.4838867,0.614563c-0.9232178,0-1.4368286-0.614563-1.4368286-1.4555054h4.1057739
		V45.475769z M62.8571777,45.0881958c0.0118408-0.2880249,0.0480957-0.4641724,0.1500244-0.7020264
		c0.175293-0.3882446,0.5401611-0.677063,1.0946045-0.677063c0.5546875,0,0.9212036,0.2888184,1.0988159,0.677063
		c0.098938,0.237854,0.1381836,0.4140015,0.1517944,0.7020264H62.8571777z"/>
	<path d="M68.8694458,42.9318848c-0.6196899,0.6124878-0.6678467,1.4407349-0.6678467,2.5824585
		c0,1.1419067,0.0481567,1.9840088,0.6678467,2.5958862c0.3635864,0.3652344,0.9181519,0.5786133,1.5611572,0.5786133
		c0.6420288,0,1.1339111-0.1740112,1.564209-0.6530762v0.666687c0,0.6641846-0.3419189,1.3535767-1.322998,1.3535767
		c-0.5549927,0-0.9225464-0.1500244-1.2870483-0.5015259l-1.0231934,1.0289917
		c0.6812134,0.6517944,1.3761597,0.8521118,2.3851929,0.8521118c1.7647705,0,2.8851929-1.1424561,2.8851929-2.7079468v-6.2987061
		h-1.5870361v0.6156616c-0.4539795-0.5023193-0.9095459-0.6915283-1.602478-0.6915283
		C69.800415,42.3530884,69.2330322,42.5661621,68.8694458,42.9318848z M71.994812,45.5143433
		c0,0.8671875-0.1146851,1.706604-1.0848389,1.706604c-0.9702759,0-1.071228-0.8394165-1.071228-1.706604
		c0-0.866272,0.1009521-1.6935425,1.071228-1.6935425C71.880127,43.8208008,71.994812,44.6480713,71.994812,45.5143433z"/>
	<path d="M75.1433105,45.6912842c0,2.6449585,1.4885254,3.3482666,3.0402832,3.3482666
		c1.1837769,0,1.8267822-0.3644409,2.4953613-1.0281982l-0.9979248-0.9658813
		c-0.4156494,0.4143066-0.767334,0.614563-1.4886475,0.614563c-0.9176025,0-1.434082-0.614563-1.434082-1.4555054h4.1105347
		V45.475769c0-1.7931519-1.0360107-3.1226807-2.862793-3.1226807
		C76.3046875,42.3530884,75.1433105,43.5576782,75.1433105,45.6912842z M79.1027222,44.3861694
		c0.1009521,0.237854,0.1392822,0.4140015,0.1501465,0.7020264h-2.4945679
		c0.0119019-0.2880249,0.0518188-0.4641724,0.1500854-0.7020264c0.1782227-0.3882446,0.5430908-0.677063,1.0976562-0.677063
		C78.56073,43.7091064,78.927124,43.9979248,79.1027222,44.3861694z"/>
	<polygon points="34.8587036,57.6229248 35.791748,54.2709961 36.7258301,57.6229248 37.1442261,57.6229248 38.2203979,53.4381714 
		37.7410278,53.4381714 36.9197998,56.8133545 35.9916382,53.4381714 35.5908203,53.4381714 34.6635742,56.8133545 
		33.8421631,53.4381714 33.3639526,53.4381714 34.4391479,57.6229248 	"/>
	<rect x="39.1428223" y="54.7316284" width="0.4263306" height="2.8912964"/>
	<rect x="39.1182251" y="53.4313965" width="0.4793701" height="0.4763184"/>
	<path d="M43.0897217,57.6236572v-4.1854858h-0.4263306v1.6273193c-0.2351074-0.2999268-0.50177-0.3701172-0.819397-0.3701172
		c-0.2958984,0-0.5576172,0.0986938-0.7086182,0.25354c-0.2952271,0.2929688-0.3548584,0.7750854-0.3548584,1.2283936
		c0,0.4516602,0.0596313,0.9351807,0.3548584,1.2293091c0.151001,0.1523438,0.4127197,0.2537231,0.7086182,0.2537231
		c0.317627,0,0.5910645-0.0783081,0.8273315-0.3833008v0.3466187H43.0897217z M41.9361572,57.2824707
		c-0.6282959,0-0.7302856-0.5410156-0.7302856-1.1051636c0-0.5643921,0.1019897-1.1046143,0.7302856-1.1046143
		c0.6322021,0,0.7272339,0.5402222,0.7272339,1.1046143C42.6633911,56.7414551,42.5683594,57.2824707,41.9361572,57.2824707z"/>
	<path d="M46.7369385,57.6229248v-1.8510132c0-0.3355713-0.0952148-0.6071777-0.3010864-0.8057251
		c-0.1784058-0.1767578-0.4320679-0.270813-0.744812-0.270813c-0.3254395,0-0.6105347,0.1176758-0.8164673,0.352417v-0.3161621
		h-0.4243774v2.8912964h0.4243774v-1.781189c0-0.5048828,0.2833862-0.7698364,0.720459-0.7698364
		c0.4400635,0,0.7164917,0.258728,0.7164917,0.7698364v1.781189H46.7369385z"/>
	<path d="M50.2947388,56.0950928c0-0.8574829-0.4420776-1.3997192-1.1957397-1.3997192
		c-0.7380981,0-1.1918945,0.5465088-1.1918945,1.4819336c0,1.0239868,0.5027466,1.4830322,1.2703247,1.4830322
		c0.4959717,0,0.7693481-0.1549072,1.062439-0.4486084l-0.2891235-0.2520142
		c-0.2294312,0.2289429-0.4243774,0.3299561-0.7616577,0.3299561c-0.5546265,0-0.8555908-0.3648071-0.8555908-0.9995728h1.9612427
		V56.0950928z M48.3334961,55.9718018c0.0108643-0.2369385,0.022522-0.3220215,0.0870361-0.4829102
		c0.1119995-0.2633057,0.3737183-0.4352417,0.6784668-0.4352417c0.3088379,0,0.5662842,0.171936,0.6802368,0.4352417
		c0.0684814,0.1608887,0.078186,0.2459717,0.0901489,0.4829102H48.3334961z"/>
	<path d="M52.4049683,57.2937012c-0.3616333,0-0.6743774-0.0924072-0.9046021-0.3339844l-0.2823486,0.2824707
		c0.3186035,0.3049316,0.6997681,0.4173584,1.1918335,0.4173584c0.7036743,0,1.1810913-0.3225708,1.1810913-0.8842163
		c0-0.5393066-0.3469238-0.7341309-0.8546143-0.7805176l-0.4696045-0.0402832
		c-0.364563-0.0308228-0.5076904-0.1779785-0.5076904-0.4245605c0-0.2923584,0.2263184-0.4763184,0.6508179-0.4763184
		c0.3018799,0,0.5685425,0.0717773,0.7751465,0.2296753l0.2774658-0.277771
		c-0.2606812-0.2114868-0.6311646-0.3101807-1.0476685-0.3101807c-0.6184692,0-1.0664062,0.3175659-1.0664062,0.8468018
		c0,0.4769287,0.2990112,0.729126,0.8673706,0.7764893l0.477356,0.0406494
		c0.3362427,0.0298462,0.4832764,0.1707764,0.4832764,0.4241943C53.1763916,57.121582,52.8823242,57.2937012,52.4049683,57.2937012z
		"/>
	<path d="M56.4125977,56.4417114c0,0.7279663,0.5134277,1.2178345,1.3290405,1.2178345
		c0.6725464,0,1.0686035-0.3353882,1.2399902-0.4959106l0.3764648,0.4592896h0.5623779l-0.6438599-0.769104
		c0.2714844-0.3237305,0.3833008-0.7523193,0.3911133-1.2817993h-0.4273682
		c-0.0049438,0.4691772-0.0625,0.6992798-0.234314,0.9580688l-1.0759888-1.2874146
		c0.1009521-0.0707397,0.3137207-0.2120972,0.3137207-0.2120972c0.265625-0.1809082,0.4675293-0.4119873,0.4675293-0.7476807
		c0-0.4998169-0.3912964-0.8815308-0.9174194-0.8815308c-0.5383911,0-0.9273071,0.3776245-0.9273071,0.8777466
		c0,0.3760986,0.2469482,0.6643677,0.4556885,0.9100342C56.8596191,55.4954834,56.4125977,55.8131714,56.4125977,56.4417114z
		 M58.7268677,56.8587036c-0.3609619,0.3248901-0.6782227,0.4065552-0.9942017,0.4065552
		c-0.5181885,0-0.883728-0.3353882-0.883728-0.8364868c0-0.4742432,0.3604736-0.7097778,0.72229-0.9577026L58.7268677,56.8587036z
		 M57.3104248,54.2709961c0-0.2803345,0.1939087-0.487915,0.4834595-0.487915c0.2842407,0,0.4959717,0.2182617,0.4959717,0.4998169
		c0,0.2420654-0.1827393,0.3892212-0.378418,0.5247192c0,0-0.152832,0.1056519-0.2236328,0.1524048
		C57.4086304,54.6259766,57.3104248,54.4660645,57.3104248,54.2709961z"/>
	<path d="M65.8562012,54.6010132c0-0.7223511-0.5153198-1.1628418-1.2485352-1.1628418h-1.6132812v4.1847534h0.4488525v-1.8591309
		h1.0116577l0.9574585,1.8591309h0.5255127l-0.9997559-1.899292C65.4836426,55.612915,65.8562012,55.2124023,65.8562012,54.6010132z
		 M64.5664062,55.3719482h-1.1231689v-1.5353394h1.1231689c0.491272,0,0.8380737,0.258728,0.8380737,0.7703857
		C65.40448,55.1166382,65.0576782,55.3719482,64.5664062,55.3719482z"/>
	<path d="M69.3464355,57.6229248v-2.8912964h-0.4241943v1.7821655c0,0.5054321-0.2902832,0.7686768-0.7261963,0.7686768
		c-0.4371948,0-0.7078857-0.2583618-0.7078857-0.7686768v-1.7821655h-0.4274902v1.8444214
		c0,0.3342896,0.0894165,0.6126099,0.2963867,0.8128662c0.177124,0.1759033,0.4349976,0.2714233,0.7496948,0.2714233
		c0.3254395,0,0.6136475-0.1244507,0.8201294-0.3612061v0.3237915H69.3464355z"/>
	<path d="M72.9925537,57.6229248v-1.8510132c0-0.3355713-0.092041-0.6071777-0.3000488-0.8057251
		c-0.1791992-0.1767578-0.4321289-0.270813-0.744751-0.270813c-0.3252563,0-0.6084595,0.1176758-0.8173218,0.352417v-0.3161621
		h-0.4244385v2.8912964h0.4244385v-1.781189c0-0.5048828,0.2860107-0.7698364,0.722168-0.7698364
		c0.4393311,0,0.7149048,0.258728,0.7149048,0.7698364v1.781189H72.9925537z"/>
	<path d="M75.4519043,55.0718994c0.2780762,0,0.4497681,0.083313,0.6685181,0.3225708l0.289917-0.269043
		c-0.302002-0.3240356-0.555603-0.4300537-0.9584351-0.4300537c-0.7320557,0-1.2870483,0.4937744-1.2870483,1.4819336
		c0,0.9877319,0.5549927,1.4822388,1.2870483,1.4822388c0.402832,0,0.6564331-0.1060181,0.9584351-0.4299316l-0.289917-0.2774048
		c-0.21875,0.241272-0.3904419,0.3302612-0.6685181,0.3302612c-0.2842407,0-0.5204468-0.112793-0.6714478-0.3302612
		c-0.137207-0.1869507-0.1911621-0.409668-0.1911621-0.7749023c0-0.3641357,0.0539551-0.5891724,0.1911621-0.776062
		C74.9314575,55.1837158,75.1676636,55.0718994,75.4519043,55.0718994z"/>
	<path d="M77.6286621,55.0257568c-0.295105,0.2988892-0.3538818,0.7033081-0.3538818,1.1515503
		c0,0.4465942,0.0587769,0.8518066,0.3538818,1.1517334c0.199707,0.1994629,0.4783936,0.3312988,0.8320923,0.3312988
		c0.355835,0,0.6311646-0.1318359,0.8330688-0.3312988c0.2961426-0.2999268,0.3549805-0.7051392,0.3549805-1.1517334
		c0-0.4482422-0.0588379-0.8526611-0.3549805-1.1515503c-0.2019043-0.1995239-0.4772339-0.3303833-0.8330688-0.3303833
		C78.1070557,54.6953735,77.8283691,54.8262329,77.6286621,55.0257568z M79.2233276,56.1773071
		c0,0.3249512-0.0196533,0.6813965-0.2293091,0.8927002c-0.1364136,0.1362915-0.3251953,0.2124634-0.5332642,0.2124634
		c-0.2058105,0-0.3919067-0.0761719-0.5253906-0.2124634c-0.2114868-0.2113037-0.2369995-0.567749-0.2369995-0.8927002
		c0-0.3241577,0.0255127-0.6818237,0.2369995-0.8939819c0.1334839-0.1348877,0.3195801-0.2106323,0.5253906-0.2106323
		c0.2080688,0,0.3968506,0.0757446,0.5332642,0.2106323C79.2036743,55.4954834,79.2233276,55.8531494,79.2233276,56.1773071z"/>
	<path d="M80.8543091,54.7316284v2.8912964h0.4255371v-1.7730713c0-0.4431763,0.2714233-0.7771606,0.6969604-0.7771606
		c0.2253418,0,0.3428345,0.0527344,0.5026855,0.2106323l0.3135376-0.3171387
		c-0.2068481-0.206665-0.4205322-0.270813-0.6988525-0.270813c-0.3352661,0-0.6536865,0.1467896-0.8143311,0.3877563v-0.3515015
		H80.8543091z"/>
	<path d="M85.9243774,57.6229248v-1.8510132c0-0.3355713-0.093811-0.6071777-0.3008423-0.8057251
		c-0.1782227-0.1767578-0.4313354-0.270813-0.7446899-0.270813c-0.3234863,0-0.6087646,0.1176758-0.8144531,0.352417v-0.3161621
		h-0.4264526v2.8912964h0.4264526v-1.781189c0-0.5048828,0.2833252-0.7698364,0.7212524-0.7698364
		c0.4351196,0,0.7147217,0.258728,0.7147217,0.7698364v1.781189H85.9243774z"/>
</g>
</svg>
