<?xml version="1.0" encoding="utf-8"?>
<!-- Generator: Adobe Illustrator 25.3.0, SVG Export Plug-In . SVG Version: 6.00 Build 0)  -->
<svg version="1.1" id="Layer_1" xmlns="http://www.w3.org/2000/svg" xmlns:xlink="http://www.w3.org/1999/xlink" x="0px" y="0px"
	 viewBox="0 0 170 80" style="enable-background:new 0 0 170 80;" xml:space="preserve">
<style type="text/css">
	.st0{fill:#FFFFFF;}
	.st1{fill:url(#SVGID_1_);}
	.st2{opacity:0.4;}
	.st3{fill:#1C355E;}
	.st4{fill:none;stroke:#221E20;stroke-width:7.677154e-02;}
	.st5{fill:url(#SVGID_2_);}
	.st6{fill:none;stroke:#221E20;stroke-width:9.942906e-02;}
	.st7{fill:url(#SVGID_3_);}
	.st8{fill:url(#SVGID_4_);}
	.st9{fill:none;stroke:#211F1F;stroke-width:8.154270e-02;}
	.st10{fill:url(#SVGID_5_);}
	.st11{fill:url(#SVGID_6_);}
	.st12{fill:#98989A;}
	.st13{fill:url(#SVGID_7_);}
	.st14{fill:url(#SVGID_8_);}
	.st15{fill:url(#SVGID_9_);}
	.st16{fill:url(#SVGID_10_);}
	.st17{fill:url(#SVGID_11_);}
	.st18{opacity:0.47;fill:#FFFFFF;}
	.st19{fill:url(#SVGID_12_);}
	.st20{fill:url(#SVGID_13_);}
	.st21{fill:url(#SVGID_14_);}
	.st22{fill:url(#SVGID_15_);}
	.st23{fill:url(#SVGID_16_);}
	.st24{fill:url(#SVGID_17_);}
	.st25{fill:url(#SVGID_18_);}
	.st26{fill:url(#SVGID_19_);}
	.st27{fill:url(#SVGID_20_);}
	.st28{fill:url(#SVGID_21_);}
	.st29{fill:url(#SVGID_22_);}
	.st30{fill:url(#SVGID_23_);}
	.st31{fill:url(#SVGID_24_);}
</style>
<g>
	<path class="st0" d="M142.5,14.1h-115c-0.5,0-1,0.4-1,1v20.3v0v0.5v0V65c0,0.5,0.4,1,1,1h115c0.5,0,1-0.4,1-1V35.8v0v-0.5v0V15
		C143.5,14.5,143.1,14.1,142.5,14.1z"/>
	<g>
		<linearGradient id="SVGID_1_" gradientUnits="userSpaceOnUse" x1="85.0178" y1="36.029" x2="85.0178" y2="65.464">
			<stop  offset="0" style="stop-color:#00609C"/>
			<stop  offset="0.2364" style="stop-color:#025C97"/>
			<stop  offset="0.5123" style="stop-color:#095289"/>
			<stop  offset="0.8067" style="stop-color:#134272"/>
			<stop  offset="1" style="stop-color:#1C355E"/>
		</linearGradient>
		<path class="st1" d="M27,36v28.9c0,0.3,0.2,0.5,0.5,0.5h115c0.3,0,0.5-0.2,0.5-0.5l0-28.9H27z"/>
	</g>
	<g>
		<g class="st2">
			<polygon class="st3" points="109.5,36.4 85.9,36.4 122.4,64.2 142.5,48.9 142.5,36.5 135.3,36.5 122.4,46.2 			"/>
		</g>
		<g class="st2">
			<polygon class="st3" points="130.8,36.5 114,36.4 122.4,42.8 			"/>
		</g>
	</g>
	<path class="st4" d="M44.7,59.1"/>
	<path class="st4" d="M45.9,36.1"/>
	<g>
		<g>
			<linearGradient id="SVGID_2_" gradientUnits="userSpaceOnUse" x1="26.9697" y1="25.0522" x2="143.0303" y2="25.0522">
				<stop  offset="0" style="stop-color:#DB0032"/>
				<stop  offset="1" style="stop-color:#006098"/>
			</linearGradient>
			<path class="st5" d="M27.5,14.5h115c0.3,0,0.5,0.2,0.5,0.5v20.6H27V15C27,14.7,27.2,14.5,27.5,14.5z"/>
		</g>
		<path class="st0" d="M32.8,33.1L35.2,17h6.7c2.2,0,3.8,0.3,4.8,1c1,0.6,1.5,1.7,1.5,3.1c0,0.9-0.2,1.7-0.5,2.3
			c-0.4,0.6-0.9,1.2-1.7,1.6c0.6,0.3,1.1,0.7,1.5,1.3c0.3,0.6,0.5,1.2,0.5,2c0,1.6-0.5,2.9-1.6,3.7c-1.1,0.8-2.7,1.2-4.8,1.2H32.8z
			 M38.3,29.4h2.5c0.8,0,1.4-0.1,1.8-0.4c0.4-0.3,0.6-0.7,0.6-1.3c0-0.5-0.2-0.9-0.5-1.1c-0.3-0.2-0.9-0.3-1.7-0.3h-2.2L38.3,29.4z
			 M39.1,23.5h2.1c0.8,0,1.3-0.1,1.7-0.4c0.3-0.2,0.5-0.6,0.5-1.2c0-0.5-0.2-0.8-0.5-1c-0.3-0.2-0.9-0.3-1.8-0.3h-1.5L39.1,23.5z"/>
		<polygon class="st0" points="48.5,33.1 50.9,17 63.3,17 62.7,20.9 55.3,20.9 55,23.1 61.5,23.1 61,26.7 54.4,26.7 54.1,29.2 
			61.9,29.2 61.4,33.1 		"/>
		<polygon class="st0" points="66.7,33.1 68.5,21.1 63.9,21.1 64.6,17 78.6,17 77.9,21.1 73.6,21.1 71.8,33.1 		"/>
		<polygon class="st0" points="77.5,33.1 79.9,17 91.2,17 90.6,21 84.4,21 84,23.5 89.3,23.5 88.7,27.4 83.4,27.4 82.6,33.1 		"/>
		<path class="st0" d="M90.3,33.1L92.6,17h7.4c2.1,0,3.6,0.3,4.5,1c1,0.7,1.4,1.8,1.4,3.3c0,1.1-0.3,2-0.8,2.8
			c-0.5,0.8-1.3,1.4-2.3,1.8c0.7,0.3,1.2,0.6,1.5,1.1c0.3,0.4,0.5,1,0.5,1.7c0,0.2,0,0.3,0,0.5c0,0.2,0,0.4,0,0.5l-0.2,1.6
			c0,0.2,0,0.3,0,0.3c0,0.1,0,0.1,0,0.2c0,0.2,0,0.4,0.1,0.5c0.1,0.1,0.2,0.2,0.4,0.3v0.4h-5.4c0-0.1,0-0.2-0.1-0.3
			c0-0.1,0-0.2,0-0.4c0-0.1,0-0.2,0-0.4c0-0.1,0-0.3,0-0.5l0.2-1.6c0-0.1,0-0.2,0-0.3c0-0.1,0-0.2,0-0.4c0-0.7-0.2-1.2-0.6-1.4
			c-0.4-0.3-1.1-0.4-2-0.4h-1.3l-0.9,5.8H90.3z M96.6,23.9H99c0.8,0,1.3-0.1,1.7-0.4c0.4-0.3,0.5-0.7,0.5-1.3c0-0.5-0.2-0.8-0.5-1.1
			c-0.3-0.2-0.8-0.3-1.6-0.3H97L96.6,23.9z"/>
		<polygon class="st0" points="106.5,33.1 108.9,17 121.3,17 120.7,20.9 113.3,20.9 113,23.1 119.6,23.1 119,26.7 112.4,26.7 
			112.1,29.2 119.9,29.2 119.4,33.1 		"/>
		<path class="st0" d="M120.9,33.1l2.4-16.1h6.4c1.6,0,2.9,0.2,3.7,0.5c0.9,0.4,1.7,1,2.3,1.9c0.4,0.6,0.8,1.3,1,2.1
			c0.2,0.8,0.4,1.7,0.4,2.7c0,2.9-0.8,5.1-2.3,6.6c-1.5,1.5-3.7,2.3-6.5,2.3H120.9z M126.6,29.1h1.2c0.8,0,1.4-0.1,1.8-0.2
			c0.4-0.1,0.8-0.3,1.1-0.6c0.4-0.4,0.7-0.9,0.9-1.7c0.2-0.7,0.4-1.5,0.4-2.4c0-1.2-0.2-2.1-0.7-2.6c-0.5-0.5-1.3-0.7-2.4-0.7h-1.2
			L126.6,29.1z"/>
	</g>
	<g>
		<path class="st6" d="M26.8,40"/>
		<g>
			<g>
				<g>
					<linearGradient id="SVGID_3_" gradientUnits="userSpaceOnUse" x1="33.8587" y1="52.777" x2="42.1194" y2="61.0377">
						<stop  offset="0" style="stop-color:#E5E1E6"/>
						<stop  offset="0" style="stop-color:#D6D2D7"/>
						<stop  offset="0" style="stop-color:#B0ACB0"/>
						<stop  offset="0" style="stop-color:#726F71"/>
						<stop  offset="0" style="stop-color:#211F1F"/>
						<stop  offset="4.598901e-02" style="stop-color:#302E2D"/>
						<stop  offset="0.1342" style="stop-color:#565551"/>
						<stop  offset="0.2548" style="stop-color:#94938B"/>
						<stop  offset="0.2923" style="stop-color:#A9A89F"/>
						<stop  offset="0.5225" style="stop-color:#E5E1E6"/>
						<stop  offset="0.6011" style="stop-color:#D6D3D8"/>
						<stop  offset="0.7519" style="stop-color:#AFADB2"/>
						<stop  offset="0.9579" style="stop-color:#707276"/>
						<stop  offset="1" style="stop-color:#636569"/>
					</linearGradient>
					<path class="st7" d="M38,60.6l-6.8-5.1l0.3,3.3l6.5,4.9l6.5-4.9l0.3-3.3L38,60.6z"/>
				</g>
				<g>
					<linearGradient id="SVGID_4_" gradientUnits="userSpaceOnUse" x1="34.5937" y1="61.7831" x2="41.3827" y2="54.9941">
						<stop  offset="0" style="stop-color:#636569"/>
						<stop  offset="4.207085e-02" style="stop-color:#707276"/>
						<stop  offset="0.2481" style="stop-color:#AFADB2"/>
						<stop  offset="0.3989" style="stop-color:#D6D3D8"/>
						<stop  offset="0.4775" style="stop-color:#E5E1E6"/>
						<stop  offset="0.6817" style="stop-color:#A9A89F"/>
						<stop  offset="0.7891" style="stop-color:#87877D"/>
						<stop  offset="0.9275" style="stop-color:#606158"/>
						<stop  offset="1" style="stop-color:#51534A"/>
					</linearGradient>
					<polygon class="st8" points="31.5,58.1 31.5,58.7 38,63.6 44.5,58.7 44.5,58.1 38,63 					"/>
				</g>
			</g>
		</g>
		<g>
			<path class="st9" d="M29.1,40.9"/>
			<g>
				<g>
					<path class="st0" d="M39.2,55.1l0,1.2l0.5-0.4l0-1C39.5,55,39.3,55,39.2,55.1z"/>
				</g>
				<g>
					<path class="st0" d="M38.2,55.4l0,1.6l0.5-0.4l0-1.4C38.5,55.3,38.3,55.4,38.2,55.4z"/>
				</g>
				<g>
					<path class="st0" d="M37.2,55.7l0,1l0.5,0.3l0-1.4C37.5,55.6,37.4,55.7,37.2,55.7z"/>
				</g>
				<g>
					<path class="st0" d="M36.3,55.9L36.3,55.9l0.5,0.4l0-0.5C36.6,55.8,36.4,55.9,36.3,55.9z"/>
				</g>
				<g>
					<path class="st0" d="M43.1,52.6l-0.1,0.7l0.5-0.4l0.1-0.8C43.5,52.3,43.3,52.4,43.1,52.6z"/>
				</g>
				<g>
					<path class="st0" d="M40.2,54.6l0,0.9l0.5-0.4l0-0.8C40.5,54.5,40.3,54.6,40.2,54.6z"/>
				</g>
				<g>
					<path class="st0" d="M42.1,53.4l0,0.6l0.5-0.4l0-0.6C42.5,53.2,42.3,53.3,42.1,53.4z"/>
				</g>
				<g>
					<path class="st0" d="M41.2,54.1l0,0.7l0.5-0.4l0-0.6C41.5,53.9,41.3,54,41.2,54.1z"/>
				</g>
				<g>
					<g>
						<path class="st0" d="M34.7,41.4l0-0.6h-0.4l-0.1,0l0,0.9C34.4,41.6,34.5,41.5,34.7,41.4z"/>
					</g>
					<g>
						<path class="st0" d="M35.6,40.8L35.6,40.8l-0.2,0l-0.3,0l0,0.3C35.3,41,35.4,40.9,35.6,40.8z"/>
					</g>
					<g>
						<path class="st0" d="M32,43.9l-0.2-3.1h-0.5l0.3,3.6C31.7,44.2,31.8,44.1,32,43.9z"/>
					</g>
					<g>
						<path class="st0" d="M33.7,42.2C33.7,42.1,33.7,42.1,33.7,42.2l0-1.4h-0.5l0.1,1.7C33.4,42.4,33.5,42.3,33.7,42.2z"/>
					</g>
					<g>
						<path class="st0" d="M32.9,42.9l-0.1-2.1h-0.5l0.2,2.6C32.6,43.2,32.7,43.1,32.9,42.9z"/>
					</g>
				</g>
			</g>
		</g>
		<path class="st0" d="M45.5,41.2c-0.5-0.6-1.2-1-1.9-1.3c-1.8-0.6-4.1-0.4-6.4,0.7c-1,0.5-2,1.2-2.9,1.9c-2.3,2-3.8,4.6-4.1,7
			c-0.2,1.6,0.2,2.9,1.1,3.9c1.7,2,5,2.2,8.3,0.6c1-0.5,2-1.2,2.9-1.9c2.3-2,3.8-4.6,4.1-7C46.7,43.6,46.4,42.2,45.5,41.2z
			 M42.2,51.8c-3.7,3.2-8.4,3.8-10.5,1.4c-2.1-2.4-0.8-7,2.9-10.2c3.7-3.2,8.4-3.8,10.5-1.4C47.2,44,45.9,48.6,42.2,51.8z"/>
		
			<linearGradient id="SVGID_5_" gradientUnits="userSpaceOnUse" x1="-184.4138" y1="234.8218" x2="-175.0986" y2="234.8218" gradientTransform="matrix(0.9887 -0.1496 0.1496 0.9887 178.607 -211.8968)">
			<stop  offset="0" style="stop-color:#636569"/>
			<stop  offset="4.207085e-02" style="stop-color:#707276"/>
			<stop  offset="0.2481" style="stop-color:#AFADB2"/>
			<stop  offset="0.3989" style="stop-color:#D6D3D8"/>
			<stop  offset="0.4775" style="stop-color:#E5E1E6"/>
			<stop  offset="0.6817" style="stop-color:#A9A89F"/>
			<stop  offset="0.7891" style="stop-color:#87877D"/>
			<stop  offset="0.9275" style="stop-color:#606158"/>
			<stop  offset="1" style="stop-color:#51534A"/>
		</linearGradient>
		<path class="st10" d="M35.2,50l-0.5,0.6l-1.9,2.1c0,0-2.4-2,0.4-6.6c2.2-3.6,6.7-4.4,6.7-4.4s-6.4,2.1-6.1,6.7
			C33.8,49.8,35.2,50,35.2,50"/>
		<path class="st0" d="M34.7,50.6l-2.5,3.1c0,0-3.1-2.5-0.2-7c2.6-4.1,7.5-4.9,7.5-4.9s-5.9,2-6.3,6.7C33,50.4,34.7,50.6,34.7,50.6"
			/>
		
			<linearGradient id="SVGID_6_" gradientUnits="userSpaceOnUse" x1="-174.5838" y1="240.0302" x2="-178.1653" y2="235.6347" gradientTransform="matrix(0.9887 -0.1496 0.1496 0.9887 178.607 -211.8968)">
			<stop  offset="0" style="stop-color:#FFFFFF"/>
			<stop  offset="0" style="stop-color:#FEFEFE"/>
			<stop  offset="0.85" style="stop-color:#7E7F73"/>
		</linearGradient>
		<path class="st11" d="M43.6,42.2C43.6,42.2,43.6,42.2,43.6,42.2c0.2,0.3,0.4,0.5,0.5,0.8c0.5,1.1,1,3.4-0.8,6.4
			c-2.2,3.6-6.5,4.6-6.5,4.6s0.3-0.1,0.8-0.3c-0.4,0.1-0.6,0.2-0.6,0.2s3.1-1,4.7-3.8c-0.3,0.3-0.6,0.6-0.9,0.9
			c-2.2,2-4.2,2.8-5.9,2.9c-1,0.1-1.8-0.1-2.4-0.5l-0.3,0.4c0,0,0,0,0,0c0.8,0.5,1.7,0.8,2.7,0.9c0.2,0,0.4,0,0.5,0
			c1.8-0.1,3.7-0.9,5.1-1.9c0.2-0.2,0.5-0.4,0.7-0.6c3.3-3,4.6-7.1,2.8-9.3c0,0,0,0,0,0c-0.1-0.1-0.1-0.2-0.2-0.3
			C43.7,42.3,43.7,42.2,43.6,42.2"/>
		<path class="st0" d="M41.9,45.4c-0.6-0.2-2.5,0.5-6.6,4.6c-0.5,0.5,3.3-3.7,3.3-3.7l1-0.9l3.6-3c0,0,2.7,2.8-0.2,7.3
			c-1.9,3.1-6,4.2-6,4.2s4.7-1.5,5.5-6C42.5,47.2,42.5,45.6,41.9,45.4"/>
		<path class="st12" d="M42.5,49c-0.2,0.3-0.5,0.6-0.8,0.9c-1.6,2.8-4.7,3.8-4.7,3.8s0.2-0.1,0.6-0.2C38.9,53.1,41.3,51.8,42.5,49"
			/>
		
			<linearGradient id="SVGID_7_" gradientUnits="userSpaceOnUse" x1="-169.8433" y1="237.3156" x2="-179.4384" y2="236.192" gradientTransform="matrix(0.9887 -0.1496 0.1496 0.9887 178.607 -211.8968)">
			<stop  offset="0" style="stop-color:#FEFEFE"/>
			<stop  offset="0" style="stop-color:#D9D8D6"/>
			<stop  offset="0.85" style="stop-color:#4A4F54"/>
		</linearGradient>
		<path class="st13" d="M44,42.9c0.8,1.7,0.2,4-1.6,6.2c-1.1,2.7-3.6,4-4.9,4.5c-0.5,0.2-0.8,0.3-0.8,0.3s4.2-0.9,6.5-4.6
			C45.1,46.3,44.6,44.1,44,42.9C44.1,42.9,44,42.9,44,42.9"/>
		<g>
			
				<linearGradient id="SVGID_8_" gradientUnits="userSpaceOnUse" x1="-179.042" y1="238.372" x2="-170.1134" y2="232.9233" gradientTransform="matrix(0.9887 -0.1496 0.1496 0.9887 178.607 -211.8968)">
				<stop  offset="0" style="stop-color:#636569"/>
				<stop  offset="4.207085e-02" style="stop-color:#707276"/>
				<stop  offset="0.2481" style="stop-color:#AFADB2"/>
				<stop  offset="0.3989" style="stop-color:#D6D3D8"/>
				<stop  offset="0.4775" style="stop-color:#E5E1E6"/>
				<stop  offset="0.6817" style="stop-color:#A9A89F"/>
				<stop  offset="0.7891" style="stop-color:#87877D"/>
				<stop  offset="0.9275" style="stop-color:#606158"/>
				<stop  offset="1" style="stop-color:#51534A"/>
			</linearGradient>
			<path class="st14" d="M41.6,45.3c-0.5,0-1.3,0.4-2.5,1.2l0.3,0.5l-0.6-0.3c-0.2,0.1-0.3,0.2-0.5,0.4l0.3,0.5L38,47.4
				c-0.1,0.1-0.3,0.2-0.4,0.4l0.4,0.6L37.3,48c-0.6,0.5-1.3,1.2-2.1,1.9c0,0-0.1,0.1-0.1,0.1l-0.5,0.6l-1.3,1.6
				c-0.3-0.1,0.8,0.2,1.8,0.3c1.1,0.1,2.4-0.4,4-1.2c1-0.5,2.1-1.4,2.9-2.4c0.1-0.3,0.2-0.7,0.3-1c0.1-0.6,0.1-2.2-0.6-2.4
				C41.8,45.3,41.7,45.3,41.6,45.3"/>
			
				<linearGradient id="SVGID_9_" gradientUnits="userSpaceOnUse" x1="-180.3304" y1="239.8225" x2="-170.1132" y2="233.5874" gradientTransform="matrix(0.9887 -0.1496 0.1496 0.9887 178.607 -211.8968)">
				<stop  offset="0" style="stop-color:#636569"/>
				<stop  offset="4.207085e-02" style="stop-color:#707276"/>
				<stop  offset="0.2481" style="stop-color:#AFADB2"/>
				<stop  offset="0.3989" style="stop-color:#D6D3D8"/>
				<stop  offset="0.4775" style="stop-color:#E5E1E6"/>
				<stop  offset="0.6817" style="stop-color:#A9A89F"/>
				<stop  offset="0.7891" style="stop-color:#87877D"/>
				<stop  offset="0.9275" style="stop-color:#606158"/>
				<stop  offset="1" style="stop-color:#51534A"/>
			</linearGradient>
			<path class="st15" d="M43.5,42.1c0,0,0.1,0.1,0.1,0.2c0.2,0.2,0.3,0.5,0.4,0.7c0.6,1.1,1,3.4-0.8,6.4c-2.2,3.6-6.5,4.6-6.5,4.6
				s0.3-0.1,0.8-0.3c-0.4,0.1-0.6,0.2-0.6,0.2s3.1-1,4.7-3.8c-0.3,0.3-0.6,0.6-0.9,0.9c-2.2,2-4.2,2.8-5.9,2.9
				c-1,0.1-1.8-0.1-2.4-0.5l-0.3,0.4c0,0,0,0,0,0c0.8,0.5,1.7,0.8,2.7,0.9c0.2,0,0.4,0,0.5,0c1.8-0.1,3.7-0.9,5.1-1.9
				c0.2-0.2,0.5-0.4,0.7-0.6c3.3-3,4.6-7.1,2.8-9.3c0,0,0-0.1-0.1-0.1c-0.1-0.1-0.1-0.2-0.2-0.2C43.7,42.3,43.6,42.1,43.5,42.1"/>
		</g>
		<polygon class="st0" points="37.1,47.5 36.6,48 38.5,48.8 37.7,47.5 39.2,48.2 38.3,46.8 39.8,47.5 38.8,45.9 		"/>
		
			<linearGradient id="SVGID_10_" gradientUnits="userSpaceOnUse" x1="-184.9546" y1="233.4551" x2="-171.577" y2="233.4551" gradientTransform="matrix(0.9887 -0.1496 0.1496 0.9887 178.607 -211.8968)">
			<stop  offset="0" style="stop-color:#636569"/>
			<stop  offset="4.207085e-02" style="stop-color:#707276"/>
			<stop  offset="0.2481" style="stop-color:#AFADB2"/>
			<stop  offset="0.3989" style="stop-color:#D6D3D8"/>
			<stop  offset="0.4775" style="stop-color:#E5E1E6"/>
			<stop  offset="0.6817" style="stop-color:#A9A89F"/>
			<stop  offset="0.7891" style="stop-color:#87877D"/>
			<stop  offset="0.9275" style="stop-color:#606158"/>
			<stop  offset="1" style="stop-color:#51534A"/>
		</linearGradient>
		<path class="st16" d="M43.5,42.1C43.5,42.1,43.5,42.1,43.5,42.1c-0.1,0-0.4,0.1-1,0.5l0.1-0.1c-1.7,1.1-3.7,3.3-3.9,3.5l-0.1,0.1
			l-1-0.5l0.6,0.9c-0.1,0.1-0.1,0.1-0.2,0.2l-1.2-0.6l0.7,1l0,0c-0.1,0.1-0.2,0.2-0.2,0.2l0,0l-1.2-0.6l0.7,1l0,0
			c-0.4,0.4-0.8,0.9-1.3,1.5c-0.2,0.2-0.3,0.4-0.5,0.7c-0.2,0-1.3-0.3-1.4-1.6c-0.2-3.1,2.6-5.1,4.5-6c0.5-0.3,0.9-0.5,1.3-0.6
			l-0.1,0c0,0-4.8,0.8-7.5,4.9c-0.5,0.7-0.8,1.4-1,2c0.2-0.6,0.5-1.2,0.8-1.8c0.6-1.1,1.4-2.1,2.5-3c1.9-1.6,4-2.5,5.9-2.6
			c1.2-0.1,2,0.1,3,0.7L43.5,42.1z"/>
		<g>
			<path class="st12" d="M38.4,45.7c0,0,3.2-3.6,4.7-3.9c0,0,0.1,0,0.2,0.1c0.1,0.1,0.2,0.1,0.2,0.1l-4.8,4.1L38.4,45.7"/>
		</g>
		<polygon class="st12" points="38.2,46.6 38.8,45.9 37.1,45 37.8,46.3 36.3,45.7 37.1,47 35.7,46.3 36.7,48.1 		"/>
		
			<linearGradient id="SVGID_11_" gradientUnits="userSpaceOnUse" x1="-171.0444" y1="234.2531" x2="-180.9899" y2="234.2531" gradientTransform="matrix(0.9887 -0.1496 0.1496 0.9887 178.607 -211.8968)">
			<stop  offset="0" style="stop-color:#636569"/>
			<stop  offset="4.207085e-02" style="stop-color:#707276"/>
			<stop  offset="0.2481" style="stop-color:#AFADB2"/>
			<stop  offset="0.3989" style="stop-color:#D6D3D8"/>
			<stop  offset="0.4775" style="stop-color:#E5E1E6"/>
			<stop  offset="0.6817" style="stop-color:#A9A89F"/>
			<stop  offset="0.7891" style="stop-color:#87877D"/>
			<stop  offset="0.9275" style="stop-color:#606158"/>
			<stop  offset="1" style="stop-color:#51534A"/>
		</linearGradient>
		<path class="st17" d="M37.6,45.6l0.6,0.9l0,0c-0.1,0.1-0.1,0.1-0.2,0.2l0,0l-1.2-0.6l0.7,1l0,0c-0.1,0.1-0.2,0.2-0.2,0.2l0,0
			l-1.2-0.6l0.7,1l0,0c-0.4,0.4-0.7,0.8-1.2,1.4c-0.2,0.2-0.4,0.5-0.5,0.7c0,0,0,0,0.1-0.1c0.3-0.3,1-1,1.8-1.9l0.2,0.1l0.7,0.3
			l-0.4-0.6l-0.1-0.2c0.1-0.1,0.2-0.2,0.3-0.3l0.2,0.1l0.6,0.3l-0.3-0.5l-0.2-0.2c0.1-0.1,0.2-0.2,0.3-0.3l0.3,0.1l0.6,0.3l-0.3-0.5
			l-0.2-0.3c0.3-0.3,0.7-0.6,1-0.8c-0.2,0,2.1-1.1,2.1-1.1c0,0,0.6-0.5,0.7-0.9c0.2-0.5-0.1-1-0.1-1c-1.7,1.1-3.7,3.3-3.9,3.5
			c0,0-0.1,0.1-0.1,0.1l0,0L37.6,45.6 M43.5,42.1c-0.1,0-0.4,0.1-1,0.5c0,0,0,0.1,0,0.1c0.2,0.6-0.1,1.2-0.6,1.7c0.1,0,0.2,0,0.3,0
			c0.7,0.2,1,1.3,0.7,2.9c-0.1,0.6-0.3,1.2-0.5,1.7c1.7-2.2,2.4-4.5,1.6-6.2c-0.1-0.2-0.2-0.3-0.2-0.4
			C43.7,42.3,43.6,42.2,43.5,42.1C43.5,42.1,43.5,42.1,43.5,42.1"/>
		<path class="st18" d="M42.6,42.7c0.1,0.8-1,1.7-2.4,2c-1.4,0.2-2.7-0.2-2.8-1.1c-0.1-0.8,1-1.7,2.4-2
			C41.3,41.4,42.5,41.9,42.6,42.7z"/>
		<g>
			<path class="st0" d="M47.3,44c0-0.3,0-0.5,0-0.5S47.3,43.7,47.3,44c0,0.1-0.1,0.3-0.1,0.5c0,0.2-0.1,0.4-0.1,0.7
				c0,0.1,0,0.3-0.1,0.4c0,0.1-0.1,0.3-0.1,0.4c0,0.1-0.1,0.3-0.1,0.4c0,0.1-0.1,0.3-0.1,0.4c0,0.2-0.1,0.3-0.2,0.5
				c-0.1,0.2-0.1,0.3-0.2,0.5c-0.1,0.2-0.1,0.3-0.2,0.5c-0.1,0.2-0.1,0.3-0.2,0.5l-0.1,0.2l-0.1,0.2c-0.1,0.1-0.2,0.3-0.2,0.4
				c-0.1,0.2-0.2,0.4-0.4,0.6l0,0c-0.2,0.3-0.3,0.5-0.5,0.7l-0.3,3.5l-6.4,4.9l-4-3l0.4-0.1l0,0c-0.2,0-0.4,0-0.6,0
				c-0.3,0-0.6,0-0.8-0.1l4.8,3.7l0.3,0.2l0.3-0.2l6.4-4.9l0.2-0.1l0-0.2l0.3-3.2c0,0,0.1-0.1,0.1-0.1c0.1-0.1,0.2-0.3,0.3-0.4
				c0.2-0.3,0.3-0.6,0.5-0.9c0.1-0.2,0.1-0.3,0.2-0.5l0.1-0.2l0.1-0.2c0.1-0.2,0.1-0.3,0.2-0.5c0.1-0.2,0.1-0.3,0.2-0.5
				c0.1-0.2,0.1-0.3,0.1-0.5c0-0.2,0.1-0.3,0.1-0.5c0-0.2,0.1-0.3,0.1-0.5c0-0.2,0.1-0.3,0.1-0.4c0-0.1,0-0.3,0.1-0.4
				c0-0.1,0-0.3,0-0.4c0-0.3,0-0.5,0-0.7C47.3,44.3,47.4,44.2,47.3,44z"/>
			<path class="st0" d="M30.1,38.4l15.8,0l-0.1,1.3l-0.3,0c0.2,0.1,0.4,0.2,0.5,0.3c0.1,0,0.1,0.1,0.2,0.1l0.2-2.3l-16.8,0l0.7,7.6
				c0,0.1-0.1,0.2-0.1,0.3c-0.1,0.2-0.1,0.3-0.2,0.5c-0.1,0.2-0.1,0.3-0.2,0.5c-0.1,0.2-0.1,0.3-0.2,0.5c-0.1,0.2-0.1,0.3-0.1,0.5
				c0,0.2-0.1,0.3-0.1,0.5c0,0.2-0.1,0.3-0.1,0.5c0,0.2,0,0.3-0.1,0.5c0,0.1,0,0.1,0,0.2c0,0.1,0,0.1,0,0.2c0,0.1,0,0.3,0,0.4
				c0,0.3,0,0.5,0,0.7c0,0.2,0,0.4,0,0.6c0,0.3,0,0.5,0,0.5s0-0.2,0-0.5c0-0.2,0-0.3,0-0.6c0-0.2,0-0.5,0.1-0.7c0-0.1,0-0.3,0.1-0.4
				c0-0.1,0-0.1,0-0.2c0-0.1,0-0.1,0-0.2c0-0.1,0.1-0.3,0.1-0.5c0-0.2,0.1-0.3,0.1-0.5c0-0.2,0.1-0.3,0.2-0.5
				c0.1-0.2,0.1-0.3,0.2-0.5c0.1-0.2,0.1-0.3,0.2-0.5c0.1-0.2,0.1-0.3,0.2-0.5c0.1-0.2,0.2-0.3,0.2-0.5c0.1-0.1,0.1-0.3,0.2-0.4
				l-0.1-0.9L30.1,38.4z"/>
		</g>
		<linearGradient id="SVGID_12_" gradientUnits="userSpaceOnUse" x1="30.7797" y1="47.664" x2="39.5899" y2="47.664">
			<stop  offset="0" style="stop-color:#636569"/>
			<stop  offset="4.207085e-02" style="stop-color:#707276"/>
			<stop  offset="0.2481" style="stop-color:#AFADB2"/>
			<stop  offset="0.3989" style="stop-color:#D6D3D8"/>
			<stop  offset="0.4775" style="stop-color:#E5E1E6"/>
			<stop  offset="0.6817" style="stop-color:#A9A89F"/>
			<stop  offset="0.7891" style="stop-color:#87877D"/>
			<stop  offset="0.9275" style="stop-color:#606158"/>
			<stop  offset="1" style="stop-color:#51534A"/>
		</linearGradient>
		<path class="st19" d="M31.9,46.9c-0.5,0.7-0.8,1.4-1,2.1c0,0.1,0,0.1,0,0.2c0,0.2-0.1,0.3-0.1,0.5c-0.1,0.6-0.1,2.1,0.5,3.2
			c0.2,0.3,0.5,0.6,0.8,0.8c0.2-0.3,0.8-0.9,1.2-1.5c-2.9-1.3-1.1-7.9,5.5-10.2c0.2-0.1,0.4-0.1,0.5-0.2c0,0,0.1,0,0.1,0l0.1,0
			C39.6,41.7,34.7,42.4,31.9,46.9z"/>
	</g>
	<g>
		<path class="st3" d="M52,54c-0.7,0-1.2-0.2-1.5-0.6c-0.3-0.4-0.4-0.9-0.3-1.7l0.9-5.2c0.2-1.4,1-2.1,2.4-2.1h2.7
			c0.7,0,1.2,0.2,1.5,0.6c0.3,0.4,0.4,0.9,0.3,1.7l-0.3,1.6h-2.4l0.3-1.6h-2.2c0,0-0.1,0-0.1,0c0,0,0,0,0,0.1l-0.9,5h2.2
			c0,0,0.1,0,0.1,0c0,0,0,0,0-0.1l0.3-1.5h2.4l-0.3,1.8c-0.2,1.4-1.1,2.1-2.4,2.1H52z"/>
		<polygon class="st3" points="62.3,54 63,50.3 60.5,50.3 59.8,54 57.4,54 59.1,44.5 61.5,44.5 60.9,48 63.4,48 64,44.5 66.4,44.5 
			64.7,54 		"/>
		<path class="st3" d="M71,54l-0.3-2.1h-2.5l-1,2.1h-2.6l4.7-9.5h2.7l1.4,9.5H71z M70.5,49.7l-0.2-1.9l-0.9,1.9H70.5z"/>
		<polygon class="st3" points="80.4,54 81.1,49.7 79.3,52.8 77.6,52.8 76.7,49.5 75.9,54 73.6,54 75.3,44.5 77.7,44.5 78.9,49.3 
			81.8,44.5 84.4,44.5 82.7,54 		"/>
		<path class="st3" d="M83.7,54l1.7-9.5h4.7c0.7,0,1.2,0.2,1.5,0.6c0.3,0.4,0.4,0.9,0.3,1.7l-0.4,2.1c-0.2,1.4-1.1,2.1-2.4,2.1h-2.5
			l-0.5,3H83.7z M89.2,48.7C89.2,48.7,89.2,48.7,89.2,48.7c0.1,0,0.1,0,0.1-0.1l0.3-1.9h-2.2l-0.4,2H89.2z"/>
		<polygon class="st3" points="91.2,54 92.9,44.5 95.2,44.5 93.6,54 		"/>
		<path class="st3" d="M96.6,54c-0.7,0-1.2-0.2-1.5-0.6c-0.3-0.4-0.4-0.9-0.3-1.7l0.9-5.2c0.2-1.4,1-2.1,2.4-2.1h3
			c0.7,0,1.2,0.2,1.5,0.6c0.3,0.4,0.4,0.9,0.3,1.7l-0.9,5.2c-0.2,1.4-1.1,2.1-2.4,2.1H96.6z M99.6,51.8
			C99.6,51.8,99.6,51.8,99.6,51.8C99.6,51.7,99.7,51.7,99.6,51.8l1-5h-2.4c0,0-0.1,0-0.1,0c0,0,0,0,0,0.1l-0.9,5H99.6z"/>
		<polygon class="st3" points="107.9,54 105.7,48.8 104.8,54 102.4,54 104.1,44.5 106.3,44.5 108.4,49.5 109.3,44.5 111.6,44.5 
			109.9,54 		"/>
		<path class="st3" d="M112.8,54c-0.7,0-1.2-0.2-1.5-0.6c-0.3-0.4-0.4-0.9-0.3-1.7l0.2-1.4h2.3l-0.3,1.4h2.2c0,0,0.1,0,0.1,0
			c0,0,0,0,0-0.1l0.2-1.1c0,0,0-0.1,0-0.1c0,0-0.1,0-0.1,0l-2.2-0.5c-0.7-0.1-2.1-0.4-1.8-2.2l0.2-1.2c0.2-1.4,1-2.1,2.4-2.1h2.6
			c0.7,0,1.2,0.2,1.5,0.6c0.3,0.4,0.4,0.9,0.3,1.7l-0.2,1.3h-2.3l0.2-1.3h-2c0,0-0.1,0-0.1,0c0,0,0,0,0,0.1l-0.2,0.9
			c0,0.1,0,0.1,0,0.1c0,0,0.1,0,0.1,0l2.2,0.5c0.7,0.2,2.1,0.5,1.8,2.2l-0.2,1.3c-0.2,1.4-1.1,2.1-2.4,2.1H112.8z"/>
		<polygon class="st3" points="123.2,54 123.9,50.3 121.4,50.3 120.7,54 118.4,54 120,44.5 122.4,44.5 121.8,48 124.3,48 
			124.9,44.5 127.3,44.5 125.6,54 		"/>
		<polygon class="st3" points="126.6,54 128.3,44.5 130.7,44.5 129,54 		"/>
		<path class="st3" d="M130,54l1.7-9.5h4.7c0.7,0,1.2,0.2,1.5,0.6c0.3,0.4,0.4,0.9,0.3,1.7l-0.4,2.1c-0.2,1.4-1.1,2.1-2.4,2.1h-2.5
			l-0.5,3H130z M135.5,48.7C135.5,48.7,135.5,48.7,135.5,48.7c0.1,0,0.1,0,0.1-0.1l0.3-1.9h-2.2l-0.4,2H135.5z"/>
		<g>
			<linearGradient id="SVGID_13_" gradientUnits="userSpaceOnUse" x1="50.7742" y1="48.8069" x2="58.7623" y2="48.8069">
				<stop  offset="0" style="stop-color:#636569"/>
				<stop  offset="4.207085e-02" style="stop-color:#707276"/>
				<stop  offset="0.2481" style="stop-color:#AFADB2"/>
				<stop  offset="0.3989" style="stop-color:#D6D3D8"/>
				<stop  offset="0.4775" style="stop-color:#E5E1E6"/>
				<stop  offset="0.6817" style="stop-color:#A9A89F"/>
				<stop  offset="0.7891" style="stop-color:#87877D"/>
				<stop  offset="0.9275" style="stop-color:#606158"/>
				<stop  offset="1" style="stop-color:#51534A"/>
			</linearGradient>
			<path class="st20" d="M52.6,53.6c-0.7,0-1.2-0.2-1.5-0.6c-0.3-0.4-0.4-0.9-0.3-1.7l0.9-5.2c0.2-1.4,1-2.1,2.4-2.1h2.7
				c0.7,0,1.2,0.2,1.5,0.6c0.3,0.4,0.4,0.9,0.3,1.7l-0.3,1.6h-2.4l0.3-1.6h-2.2c0,0-0.1,0-0.1,0c0,0,0,0,0,0.1l-0.9,5h2.2
				c0,0,0.1,0,0.1,0c0,0,0,0,0-0.1l0.3-1.5h2.4l-0.3,1.8c-0.2,1.4-1.1,2.1-2.4,2.1H52.6z"/>
		</g>
		<g>
			<linearGradient id="SVGID_14_" gradientUnits="userSpaceOnUse" x1="58.0954" y1="48.8069" x2="67.0081" y2="48.8069">
				<stop  offset="0" style="stop-color:#636569"/>
				<stop  offset="4.207085e-02" style="stop-color:#707276"/>
				<stop  offset="0.2481" style="stop-color:#AFADB2"/>
				<stop  offset="0.3989" style="stop-color:#D6D3D8"/>
				<stop  offset="0.4775" style="stop-color:#E5E1E6"/>
				<stop  offset="0.6817" style="stop-color:#A9A89F"/>
				<stop  offset="0.7891" style="stop-color:#87877D"/>
				<stop  offset="0.9275" style="stop-color:#606158"/>
				<stop  offset="1" style="stop-color:#51534A"/>
			</linearGradient>
			<polygon class="st21" points="63,53.6 63.6,49.8 61.1,49.8 60.5,53.6 58.1,53.6 59.8,44.1 62.1,44.1 61.5,47.6 64,47.6 
				64.6,44.1 67,44.1 65.3,53.6 			"/>
		</g>
		<g>
			<linearGradient id="SVGID_15_" gradientUnits="userSpaceOnUse" x1="65.4189" y1="48.8069" x2="74.1646" y2="48.8069">
				<stop  offset="0" style="stop-color:#636569"/>
				<stop  offset="4.207085e-02" style="stop-color:#707276"/>
				<stop  offset="0.2481" style="stop-color:#AFADB2"/>
				<stop  offset="0.3989" style="stop-color:#D6D3D8"/>
				<stop  offset="0.4775" style="stop-color:#E5E1E6"/>
				<stop  offset="0.6817" style="stop-color:#A9A89F"/>
				<stop  offset="0.7891" style="stop-color:#87877D"/>
				<stop  offset="0.9275" style="stop-color:#606158"/>
				<stop  offset="1" style="stop-color:#51534A"/>
			</linearGradient>
			<path class="st22" d="M71.7,53.6l-0.3-2.1H69l-1,2.1h-2.6l4.7-9.5h2.7l1.4,9.5H71.7z M71.2,49.2l-0.2-1.9l-0.9,1.9H71.2z"/>
		</g>
		<g>
			<linearGradient id="SVGID_16_" gradientUnits="userSpaceOnUse" x1="74.2903" y1="48.8069" x2="85.0148" y2="48.8069">
				<stop  offset="0" style="stop-color:#636569"/>
				<stop  offset="4.207085e-02" style="stop-color:#707276"/>
				<stop  offset="0.2481" style="stop-color:#AFADB2"/>
				<stop  offset="0.3989" style="stop-color:#D6D3D8"/>
				<stop  offset="0.4775" style="stop-color:#E5E1E6"/>
				<stop  offset="0.6817" style="stop-color:#A9A89F"/>
				<stop  offset="0.7891" style="stop-color:#87877D"/>
				<stop  offset="0.9275" style="stop-color:#606158"/>
				<stop  offset="1" style="stop-color:#51534A"/>
			</linearGradient>
			<polygon class="st23" points="81,53.6 81.8,49.3 80,52.4 78.3,52.4 77.4,49.1 76.6,53.6 74.3,53.6 76,44.1 78.3,44.1 79.6,48.9 
				82.4,44.1 85,44.1 83.3,53.6 			"/>
		</g>
		<g>
			<linearGradient id="SVGID_17_" gradientUnits="userSpaceOnUse" x1="84.3719" y1="48.8069" x2="92.6537" y2="48.8069">
				<stop  offset="0" style="stop-color:#636569"/>
				<stop  offset="4.207085e-02" style="stop-color:#707276"/>
				<stop  offset="0.2481" style="stop-color:#AFADB2"/>
				<stop  offset="0.3989" style="stop-color:#D6D3D8"/>
				<stop  offset="0.4775" style="stop-color:#E5E1E6"/>
				<stop  offset="0.6817" style="stop-color:#A9A89F"/>
				<stop  offset="0.7891" style="stop-color:#87877D"/>
				<stop  offset="0.9275" style="stop-color:#606158"/>
				<stop  offset="1" style="stop-color:#51534A"/>
			</linearGradient>
			<path class="st24" d="M84.4,53.6l1.7-9.5h4.7c0.7,0,1.2,0.2,1.5,0.6c0.3,0.4,0.4,0.9,0.3,1.7l-0.4,2.1c-0.2,1.4-1.1,2.1-2.4,2.1
				h-2.5l-0.5,3H84.4z M89.8,48.3C89.9,48.3,89.9,48.3,89.8,48.3c0.1,0,0.1,0,0.1-0.1l0.3-1.9H88l-0.4,2H89.8z"/>
		</g>
		<g>
			<linearGradient id="SVGID_18_" gradientUnits="userSpaceOnUse" x1="91.8529" y1="48.8069" x2="95.8848" y2="48.8069">
				<stop  offset="0" style="stop-color:#636569"/>
				<stop  offset="4.207085e-02" style="stop-color:#707276"/>
				<stop  offset="0.2481" style="stop-color:#AFADB2"/>
				<stop  offset="0.3989" style="stop-color:#D6D3D8"/>
				<stop  offset="0.4775" style="stop-color:#E5E1E6"/>
				<stop  offset="0.6817" style="stop-color:#A9A89F"/>
				<stop  offset="0.7891" style="stop-color:#87877D"/>
				<stop  offset="0.9275" style="stop-color:#606158"/>
				<stop  offset="1" style="stop-color:#51534A"/>
			</linearGradient>
			<polygon class="st25" points="91.9,53.6 93.5,44.1 95.9,44.1 94.2,53.6 			"/>
		</g>
		<g>
			<linearGradient id="SVGID_19_" gradientUnits="userSpaceOnUse" x1="95.3733" y1="48.8069" x2="103.5997" y2="48.8069">
				<stop  offset="0" style="stop-color:#636569"/>
				<stop  offset="4.207085e-02" style="stop-color:#707276"/>
				<stop  offset="0.2481" style="stop-color:#AFADB2"/>
				<stop  offset="0.3989" style="stop-color:#D6D3D8"/>
				<stop  offset="0.4775" style="stop-color:#E5E1E6"/>
				<stop  offset="0.6817" style="stop-color:#A9A89F"/>
				<stop  offset="0.7891" style="stop-color:#87877D"/>
				<stop  offset="0.9275" style="stop-color:#606158"/>
				<stop  offset="1" style="stop-color:#51534A"/>
			</linearGradient>
			<path class="st26" d="M97.2,53.6c-0.7,0-1.2-0.2-1.5-0.6c-0.3-0.4-0.4-0.9-0.3-1.7l0.9-5.2c0.2-1.4,1-2.1,2.4-2.1h3
				c0.7,0,1.2,0.2,1.5,0.6c0.3,0.4,0.4,0.9,0.3,1.7l-0.9,5.2c-0.2,1.4-1.1,2.1-2.4,2.1H97.2z M100.2,51.3
				C100.3,51.3,100.3,51.3,100.2,51.3C100.3,51.3,100.3,51.3,100.2,51.3l1-5h-2.4c0,0-0.1,0-0.1,0c0,0,0,0,0,0.1l-0.9,5H100.2z"/>
		</g>
		<g>
			<linearGradient id="SVGID_20_" gradientUnits="userSpaceOnUse" x1="103.0929" y1="48.8069" x2="112.2151" y2="48.8069">
				<stop  offset="0" style="stop-color:#636569"/>
				<stop  offset="4.207085e-02" style="stop-color:#707276"/>
				<stop  offset="0.2481" style="stop-color:#AFADB2"/>
				<stop  offset="0.3989" style="stop-color:#D6D3D8"/>
				<stop  offset="0.4775" style="stop-color:#E5E1E6"/>
				<stop  offset="0.6817" style="stop-color:#A9A89F"/>
				<stop  offset="0.7891" style="stop-color:#87877D"/>
				<stop  offset="0.9275" style="stop-color:#606158"/>
				<stop  offset="1" style="stop-color:#51534A"/>
			</linearGradient>
			<polygon class="st27" points="108.5,53.6 106.3,48.3 105.4,53.6 103.1,53.6 104.8,44.1 106.9,44.1 109,49.1 109.9,44.1 
				112.2,44.1 110.5,53.6 			"/>
		</g>
		<g>
			<linearGradient id="SVGID_21_" gradientUnits="userSpaceOnUse" x1="111.6297" y1="48.8069" x2="119.4615" y2="48.8069">
				<stop  offset="0" style="stop-color:#636569"/>
				<stop  offset="4.207085e-02" style="stop-color:#707276"/>
				<stop  offset="0.2481" style="stop-color:#AFADB2"/>
				<stop  offset="0.3989" style="stop-color:#D6D3D8"/>
				<stop  offset="0.4775" style="stop-color:#E5E1E6"/>
				<stop  offset="0.6817" style="stop-color:#A9A89F"/>
				<stop  offset="0.7891" style="stop-color:#87877D"/>
				<stop  offset="0.9275" style="stop-color:#606158"/>
				<stop  offset="1" style="stop-color:#51534A"/>
			</linearGradient>
			<path class="st28" d="M113.5,53.6c-0.7,0-1.2-0.2-1.5-0.6c-0.3-0.4-0.4-0.9-0.3-1.7l0.2-1.4h2.3l-0.3,1.4h2.2c0,0,0.1,0,0.1,0
				c0,0,0,0,0-0.1l0.2-1.1c0,0,0-0.1,0-0.1c0,0-0.1,0-0.1,0l-2.2-0.5c-0.7-0.1-2.1-0.4-1.8-2.2l0.2-1.2c0.2-1.4,1-2.1,2.4-2.1h2.6
				c0.7,0,1.2,0.2,1.5,0.6c0.3,0.4,0.4,0.9,0.3,1.7l-0.2,1.3h-2.3l0.2-1.3h-2c0,0-0.1,0-0.1,0c0,0,0,0,0,0.1l-0.2,0.9
				c0,0.1,0,0.1,0,0.1c0,0,0.1,0,0.1,0l2.2,0.5c0.7,0.2,2.1,0.5,1.8,2.2l-0.2,1.3c-0.2,1.4-1.1,2.1-2.4,2.1H113.5z"/>
		</g>
		<g>
			<linearGradient id="SVGID_22_" gradientUnits="userSpaceOnUse" x1="119.0041" y1="48.8069" x2="127.9169" y2="48.8069">
				<stop  offset="0" style="stop-color:#636569"/>
				<stop  offset="4.207085e-02" style="stop-color:#707276"/>
				<stop  offset="0.2481" style="stop-color:#AFADB2"/>
				<stop  offset="0.3989" style="stop-color:#D6D3D8"/>
				<stop  offset="0.4775" style="stop-color:#E5E1E6"/>
				<stop  offset="0.6817" style="stop-color:#A9A89F"/>
				<stop  offset="0.7891" style="stop-color:#87877D"/>
				<stop  offset="0.9275" style="stop-color:#606158"/>
				<stop  offset="1" style="stop-color:#51534A"/>
			</linearGradient>
			<polygon class="st29" points="123.9,53.6 124.5,49.8 122,49.8 121.4,53.6 119,53.6 120.7,44.1 123,44.1 122.4,47.6 124.9,47.6 
				125.6,44.1 127.9,44.1 126.2,53.6 			"/>
		</g>
		<g>
			<linearGradient id="SVGID_23_" gradientUnits="userSpaceOnUse" x1="127.2741" y1="48.8069" x2="131.306" y2="48.8069">
				<stop  offset="0" style="stop-color:#636569"/>
				<stop  offset="4.207085e-02" style="stop-color:#707276"/>
				<stop  offset="0.2481" style="stop-color:#AFADB2"/>
				<stop  offset="0.3989" style="stop-color:#D6D3D8"/>
				<stop  offset="0.4775" style="stop-color:#E5E1E6"/>
				<stop  offset="0.6817" style="stop-color:#A9A89F"/>
				<stop  offset="0.7891" style="stop-color:#87877D"/>
				<stop  offset="0.9275" style="stop-color:#606158"/>
				<stop  offset="1" style="stop-color:#51534A"/>
			</linearGradient>
			<polygon class="st30" points="127.3,53.6 128.9,44.1 131.3,44.1 129.6,53.6 			"/>
		</g>
		<g>
			<linearGradient id="SVGID_24_" gradientUnits="userSpaceOnUse" x1="130.6633" y1="48.8069" x2="138.945" y2="48.8069">
				<stop  offset="0" style="stop-color:#636569"/>
				<stop  offset="4.207085e-02" style="stop-color:#707276"/>
				<stop  offset="0.2481" style="stop-color:#AFADB2"/>
				<stop  offset="0.3989" style="stop-color:#D6D3D8"/>
				<stop  offset="0.4775" style="stop-color:#E5E1E6"/>
				<stop  offset="0.6817" style="stop-color:#A9A89F"/>
				<stop  offset="0.7891" style="stop-color:#87877D"/>
				<stop  offset="0.9275" style="stop-color:#606158"/>
				<stop  offset="1" style="stop-color:#51534A"/>
			</linearGradient>
			<path class="st31" d="M130.7,53.6l1.7-9.5h4.7c0.7,0,1.2,0.2,1.5,0.6c0.3,0.4,0.4,0.9,0.3,1.7l-0.4,2.1c-0.2,1.4-1.1,2.1-2.4,2.1
				h-2.5l-0.5,3H130.7z M136.1,48.3C136.1,48.3,136.2,48.3,136.1,48.3c0.1,0,0.1,0,0.1-0.1l0.3-1.9h-2.2l-0.4,2H136.1z"/>
		</g>
		<g>
			<path class="st0" d="M51.3,51.4l0.9-5.2c0.2-1.2,0.8-1.7,2-1.7h2.7c1.1,0,1.6,0.6,1.4,1.7l-0.2,1.2h-1.5l0.2-1.2
				c0-0.3,0-0.5-0.4-0.5h-2.3c-0.3,0-0.5,0.1-0.5,0.5l-0.9,5c-0.1,0.3,0,0.5,0.4,0.5h2.3c0.3,0,0.5-0.1,0.5-0.5l0.2-1.2h1.5
				l-0.2,1.2c-0.2,1.2-0.9,1.7-2,1.7h-2.7C51.5,53.1,51.1,52.6,51.3,51.4z"/>
			<path class="st0" d="M60.1,44.5h1.5L61,48h3.4l0.6-3.5h1.5L65,53.1h-1.5l0.7-3.7h-3.4l-0.7,3.7h-1.5L60.1,44.5z"/>
			<path class="st0" d="M71.8,51h-3.1l-1,2.1h-1.6l4.3-8.6h2l1.2,8.6h-1.6L71.8,51z M71.7,49.7l-0.5-3.8l-1.8,3.8H71.7z"/>
			<path class="st0" d="M76.3,44.5H78l1.4,5.5l3.2-5.5h1.8L83,53.1h-1.4l1.1-6.1l-2.9,4.9h-1.1L77.3,47l-1.1,6.1h-1.4L76.3,44.5z"/>
			<path class="st0" d="M86.4,44.5h4.4c1.1,0,1.6,0.6,1.4,1.7l-0.4,2.1c-0.2,1.2-0.9,1.7-2,1.7h-2.9l-0.5,3h-1.5L86.4,44.5z
				 M89.8,48.7c0.3,0,0.5-0.1,0.5-0.5l0.3-2c0-0.3-0.1-0.5-0.4-0.5h-2.7l-0.5,2.9H89.8z"/>
			<path class="st0" d="M93.9,44.5h1.5l-1.5,8.6h-1.5L93.9,44.5z"/>
			<path class="st0" d="M95.9,51.4l0.9-5.2c0.2-1.2,0.8-1.7,2-1.7h3c1.1,0,1.6,0.6,1.4,1.7l-0.9,5.2c-0.2,1.2-0.9,1.7-2,1.7h-3
				C96.1,53.1,95.6,52.6,95.9,51.4z M100.2,51.8c0.3,0,0.5-0.1,0.5-0.5l0.9-5c0-0.3,0-0.5-0.4-0.5h-2.5c-0.3,0-0.5,0.1-0.5,0.5
				l-0.9,5c-0.1,0.3,0,0.5,0.4,0.5H100.2z"/>
			<path class="st0" d="M105.1,44.5h1.5l2.6,6.1l1.1-6.1h1.4l-1.5,8.6h-1.4l-2.6-6.3l-1.1,6.3h-1.4L105.1,44.5z"/>
			<path class="st0" d="M112.1,51.4l0.2-1h1.5l-0.2,0.9c-0.1,0.3,0,0.5,0.4,0.5h2.3c0.3,0,0.5-0.1,0.5-0.5l0.2-1.1
				c0.1-0.4-0.1-0.6-0.4-0.6l-2.2-0.5c-1-0.2-1.6-0.5-1.4-1.7l0.2-1.2c0.2-1.2,0.8-1.7,2-1.7h2.6c1.1,0,1.6,0.6,1.4,1.7l-0.2,0.9
				h-1.4l0.1-0.9c0.1-0.3,0-0.5-0.4-0.5H115c-0.3,0-0.5,0.1-0.5,0.5l-0.2,0.9c-0.1,0.4,0.1,0.6,0.4,0.6l2.2,0.5
				c1,0.2,1.6,0.6,1.4,1.7l-0.2,1.3c-0.2,1.2-0.9,1.7-2,1.7h-2.7C112.3,53.1,111.9,52.6,112.1,51.4z"/>
			<path class="st0" d="M121,44.5h1.5l-0.6,3.5h3.4l0.6-3.5h1.5l-1.5,8.6h-1.5l0.7-3.7h-3.4l-0.7,3.7h-1.5L121,44.5z"/>
			<path class="st0" d="M129.3,44.5h1.5l-1.5,8.6h-1.5L129.3,44.5z"/>
			<path class="st0" d="M132.7,44.5h4.4c1.1,0,1.6,0.6,1.4,1.7l-0.4,2.1c-0.2,1.2-0.9,1.7-2,1.7h-2.9l-0.5,3h-1.5L132.7,44.5z
				 M136.1,48.7c0.3,0,0.5-0.1,0.5-0.5l0.3-2c0-0.3-0.1-0.5-0.4-0.5h-2.7l-0.5,2.9H136.1z"/>
		</g>
	</g>
</g>
</svg>
