<?xml version="1.0" encoding="utf-8"?>
<!-- Generator: Adobe Illustrator 25.3.0, SVG Export Plug-In . SVG Version: 6.00 Build 0)  -->
<svg version="1.1" id="Layer_1" xmlns="http://www.w3.org/2000/svg" xmlns:xlink="http://www.w3.org/1999/xlink" x="0px" y="0px"
	 viewBox="0 0 170 120" style="enable-background:new 0 0 170 120;" xml:space="preserve">
<style type="text/css">
	.st0{fill:#1D1D1B;}
</style>
<path class="st0" d="M83.3,59.1c0.3,0,0.5-0.1,0.7-0.3c0.2-0.2,0.2-0.4,0.2-0.6c0-0.3-0.1-0.5-0.2-0.6c-0.1-0.2-0.3-0.3-0.6-0.3
	c-0.2,0-0.6,0-1.4,0H81v1.9h1.1C82.7,59.2,83.1,59.2,83.3,59.1z"/>
<path class="st0" d="M56.8,42.8c-9.4,0-17.1,7.7-17.1,17.1c0,9.4,7.7,17.1,17.1,17.1c9.4,0,17.1-7.7,17.1-17.1
	C73.9,50.5,66.3,42.8,56.8,42.8z M50.9,60.5h-2.5l-3.2-4.7v4.7h-2.5V52h2.5l3.2,4.7V52h2.5V60.5z M61.1,64c-0.5-0.3-1.1-0.8-1.7-1.4
	c-0.4,0.4-0.9,0.8-1.4,1s-1.1,0.3-1.7,0.3c-1.1,0-2-0.3-2.7-1c-0.5-0.5-0.8-1.1-0.8-1.8c0-0.6,0.2-1.1,0.7-1.6
	c0.4-0.5,1.1-0.9,2-1.3c-0.5-0.5-0.8-0.9-1-1.2c-0.2-0.3-0.2-0.6-0.2-0.9c0-0.6,0.3-1.1,0.8-1.5c0.5-0.4,1.2-0.6,1.9-0.6
	c0.7,0,1.4,0.2,1.8,0.6c0.5,0.4,0.7,0.9,0.7,1.4c0,0.9-0.7,1.7-2.1,2.3l2,2.2c0.2-0.4,0.4-0.8,0.5-1.3l1.4,0.3
	c-0.2,0.8-0.6,1.5-1,2.1c0.5,0.6,1.1,1.1,1.7,1.5L61.1,64z M70.8,60.6c0,0.5-0.2,0.9-0.5,1.3c-0.2,0.2-0.5,0.4-0.9,0.6
	c0.6,0.1,1.1,0.4,1.4,0.8c0.3,0.4,0.4,0.8,0.4,1.4c0,0.4-0.1,0.8-0.3,1.2c-0.2,0.4-0.5,0.6-0.8,0.8c-0.2,0.1-0.6,0.2-1,0.3
	c-0.6,0.1-1,0.1-1.2,0.1h-4.6v-8.6h5c0.8,0,1.5,0.2,1.9,0.6C70.6,59.5,70.8,60,70.8,60.6z"/>
<path class="st0" d="M65.9,63.5v1.7h1.3c0.5,0,0.8-0.1,1-0.2c0.2-0.2,0.3-0.4,0.3-0.7c0-0.3-0.1-0.5-0.3-0.6c-0.2-0.2-0.5-0.2-1-0.2
	H65.9z"/>
<path class="st0" d="M83.8,60.6c-0.2-0.1-0.7-0.1-1.5-0.1H81v2.2h1.5c0.6,0,1,0,1.1-0.1c0.2,0,0.4-0.2,0.6-0.3
	c0.2-0.2,0.2-0.4,0.2-0.7c0-0.2-0.1-0.5-0.2-0.6C84.2,60.8,84,60.7,83.8,60.6z"/>
<path class="st0" d="M90.5,59.2c-0.3,0-0.6,0.1-0.8,0.4c-0.2,0.2-0.3,0.6-0.3,1h2.3c0-0.5-0.1-0.8-0.4-1
	C91.1,59.4,90.8,59.2,90.5,59.2z"/>
<path class="st0" d="M89.5,70.2c-0.5,0-0.9,0.2-1.2,0.6c-0.3,0.4-0.5,0.9-0.5,1.7c0,0.8,0.2,1.3,0.5,1.7c0.3,0.4,0.7,0.6,1.2,0.6
	c0.5,0,0.9-0.2,1.2-0.6c0.3-0.4,0.5-1,0.5-1.7c0-0.7-0.2-1.3-0.5-1.7C90.4,70.4,90,70.2,89.5,70.2z"/>
<path class="st0" d="M56.1,57l0.6,0.6c0.6-0.3,1-0.6,1.1-0.8c0.2-0.2,0.3-0.5,0.3-0.8c0-0.3-0.1-0.6-0.4-0.8
	c-0.2-0.2-0.5-0.3-0.9-0.3c-0.4,0-0.7,0.1-0.9,0.3c-0.2,0.2-0.4,0.5-0.4,0.8c0,0.1,0,0.3,0.1,0.5C55.8,56.7,55.9,56.9,56.1,57z"/>
<path class="st0" d="M125.7,49.5c-0.2,0.3-0.3,0.6-0.3,0.8c0,0.3,0.1,0.7,0.4,1c0.3,0.4,0.6,0.5,1.1,0.5c0.3,0,0.6-0.1,0.9-0.3
	c0.3-0.2,0.6-0.4,0.8-0.7l-1.8-2.3C126.3,48.9,125.9,49.2,125.7,49.5z"/>
<path class="st0" d="M100.5,50.3c-0.2,0.1-0.3,0.3-0.3,0.6c0,0.2,0.1,0.4,0.2,0.6c0.2,0.2,0.4,0.2,0.6,0.2c0.3,0,0.6-0.1,0.8-0.3
	c0.2-0.1,0.3-0.3,0.4-0.5c0-0.1,0.1-0.4,0.1-0.8v-0.3c-0.2,0.1-0.5,0.1-1,0.2C100.9,50.1,100.6,50.2,100.5,50.3z"/>
<path class="st0" d="M29.6,33v54h110.8V33H29.6z M113.9,47.3c0.5-0.5,1.1-0.8,1.8-0.8c0.7,0,1.2,0.3,1.7,0.8v-2.9h1.6v8.2h-1.5v-0.9
	c-0.2,0.3-0.5,0.6-0.9,0.8c-0.3,0.2-0.7,0.2-1,0.2c-0.7,0-1.3-0.3-1.7-0.8c-0.5-0.5-0.7-1.3-0.7-2.3
	C113.2,48.6,113.4,47.8,113.9,47.3z M105.9,46.7h1.5v0.9c0.5-0.7,1.2-1,2-1c0.3,0,0.7,0.1,0.9,0.2s0.5,0.3,0.6,0.5
	c0.1,0.2,0.2,0.4,0.3,0.7c0.1,0.2,0.1,0.6,0.1,1.1v3.7h-1.6v-3c0-0.6,0-1.1-0.1-1.2c-0.1-0.2-0.2-0.3-0.3-0.4
	c-0.2-0.1-0.3-0.2-0.5-0.2c-0.3,0-0.5,0.1-0.7,0.2c-0.2,0.1-0.4,0.3-0.4,0.6c-0.1,0.2-0.1,0.7-0.1,1.4v2.7h-1.6V46.7z M103.6,62.7
	c0,0.1,0.1,0.1,0.1,0.2c0.1,0.1,0.2,0.1,0.3,0.1c0.1,0,0.4-0.1,0.6-0.2l0.1,1.2c-0.4,0.2-0.8,0.2-1.2,0.2c-0.3,0-0.5,0-0.8-0.1
	c-0.2-0.1-0.4-0.2-0.5-0.4c-0.1-0.2-0.2-0.4-0.2-0.6c0-0.2-0.1-0.5-0.1-1.1v-2.6h-0.7v-1.2h0.7V57l1.6-0.9v2.1h1.1v1.2h-1.1v2.4
	C103.6,62.3,103.6,62.6,103.6,62.7z M102.1,47.9c-0.1-0.1-0.4-0.2-0.8-0.2c-0.3,0-0.5,0.1-0.7,0.2c-0.2,0.1-0.3,0.3-0.4,0.6
	l-1.4-0.3c0.2-0.6,0.4-1,0.8-1.3c0.4-0.3,1-0.4,1.7-0.4c0.7,0,1.2,0.1,1.6,0.2c0.3,0.2,0.6,0.4,0.7,0.6c0.1,0.3,0.2,0.7,0.2,1.4
	l0,1.8c0,0.5,0,0.9,0.1,1.2c0.1,0.2,0.1,0.5,0.3,0.8h-1.5c0-0.1-0.1-0.3-0.2-0.5c0-0.1,0-0.2-0.1-0.2c-0.3,0.3-0.6,0.5-0.9,0.6
	c-0.3,0.1-0.6,0.2-1,0.2c-0.6,0-1.1-0.2-1.4-0.5c-0.4-0.3-0.5-0.7-0.5-1.3c0-0.3,0.1-0.6,0.2-0.9c0.2-0.3,0.4-0.5,0.7-0.6
	c0.3-0.1,0.7-0.3,1.2-0.4c0.7-0.1,1.2-0.3,1.5-0.4v-0.2C102.3,48.3,102.2,48.1,102.1,47.9z M95.3,44.4h1.6v8.2h-1.6V44.4z
	 M79.6,44.4h1.6l3.3,5.5v-5.5h1.5v8.2h-1.7l-3.3-5.3v5.3h-1.5V44.4z M56.8,77.7c-9.8,0-17.7-8-17.7-17.7c0-9.8,8-17.7,17.7-17.7
	s17.7,8,17.7,17.7C74.5,69.7,66.6,77.7,56.8,77.7z M84.8,74.4c-0.2,0.4-0.6,0.7-1.1,0.9c-0.5,0.2-1,0.3-1.6,0.3
	c-0.7,0-1.4-0.1-1.9-0.3c-0.5-0.2-0.9-0.5-1.2-1c-0.3-0.4-0.4-0.9-0.4-1.5l1-0.1c0,0.4,0.2,0.7,0.3,1c0.2,0.3,0.5,0.5,0.8,0.6
	c0.4,0.2,0.8,0.2,1.3,0.2c0.4,0,0.8-0.1,1.1-0.2c0.3-0.1,0.6-0.3,0.7-0.5c0.2-0.2,0.2-0.4,0.2-0.7c0-0.3-0.1-0.5-0.2-0.7
	c-0.1-0.2-0.4-0.4-0.7-0.5c-0.2-0.1-0.7-0.2-1.5-0.4c-0.8-0.2-1.3-0.4-1.6-0.5c-0.4-0.2-0.7-0.5-0.9-0.8c-0.2-0.3-0.3-0.6-0.3-1
	c0-0.4,0.1-0.8,0.4-1.2c0.2-0.4,0.6-0.6,1-0.8c0.4-0.2,0.9-0.3,1.5-0.3c0.6,0,1.1,0.1,1.6,0.3c0.5,0.2,0.8,0.5,1.1,0.9
	c0.2,0.4,0.4,0.8,0.4,1.3l-1,0.1c-0.1-0.5-0.2-0.9-0.6-1.2c-0.3-0.3-0.8-0.4-1.4-0.4c-0.7,0-1.1,0.1-1.4,0.4
	C80.2,68.7,80,69,80,69.3c0,0.3,0.1,0.5,0.3,0.7c0.2,0.2,0.8,0.4,1.6,0.6c0.9,0.2,1.5,0.4,1.8,0.5c0.5,0.2,0.8,0.5,1.1,0.8
	c0.2,0.3,0.3,0.7,0.3,1.2C85.2,73.6,85,74,84.8,74.4z M85.9,62.8c-0.2,0.4-0.4,0.6-0.7,0.8c-0.3,0.2-0.7,0.3-1.1,0.4
	c-0.3,0-0.9,0-2,0.1h-2.8v-8.2h3.3c0.6,0,1.1,0,1.4,0.1c0.3,0.1,0.6,0.2,0.9,0.3c0.3,0.2,0.5,0.4,0.6,0.7c0.2,0.3,0.3,0.6,0.3,1
	c0,0.4-0.1,0.7-0.3,1.1c-0.2,0.3-0.5,0.6-0.8,0.7c0.5,0.1,0.9,0.4,1.1,0.7c0.3,0.3,0.4,0.8,0.4,1.2C86.2,62.1,86.1,62.5,85.9,62.8z
	 M91.9,74.2c-0.2,0.4-0.6,0.8-1,1c-0.4,0.2-0.9,0.4-1.4,0.4c-0.8,0-1.5-0.3-2-0.8c-0.5-0.5-0.8-1.3-0.8-2.3c0-1.1,0.3-1.9,0.9-2.4
	c0.5-0.4,1.1-0.7,1.9-0.7c0.8,0,1.5,0.3,2,0.8c0.5,0.5,0.8,1.3,0.8,2.2C92.3,73.2,92.1,73.8,91.9,74.2z M89.7,62.7
	c0.2,0.3,0.5,0.4,0.9,0.4c0.2,0,0.5-0.1,0.6-0.2c0.2-0.1,0.3-0.3,0.4-0.6l1.6,0.3c-0.2,0.6-0.5,1-1,1.3c-0.4,0.3-1,0.4-1.6,0.4
	c-1,0-1.8-0.3-2.3-1c-0.4-0.5-0.6-1.2-0.6-2c0-1,0.3-1.7,0.8-2.3c0.5-0.6,1.2-0.8,1.9-0.8c0.9,0,1.6,0.3,2.1,0.9
	c0.5,0.6,0.8,1.5,0.7,2.7h-3.9C89.3,62,89.4,62.4,89.7,62.7z M91.6,52.4l-0.4,1c-0.1,0.3-0.3,0.6-0.4,0.8c-0.1,0.2-0.3,0.3-0.4,0.4
	s-0.4,0.2-0.6,0.3C89.6,55,89.3,55,89,55c-0.3,0-0.6,0-0.9-0.1L88,53.7c0.2,0,0.5,0.1,0.7,0.1c0.4,0,0.6-0.1,0.8-0.3
	c0.2-0.2,0.3-0.5,0.4-0.8l-2.3-5.9h1.7l1.4,4.2l1.4-4.2h1.6L91.6,52.4z M95,75.4h-1v-8.2h1V75.4z M98.1,75.4h-1v-5.9h1V75.4z
	 M98.1,68.4h-1v-1.2h1V68.4z M98.5,63.6c0-0.1,0-0.2-0.1-0.2c-0.3,0.3-0.6,0.5-0.9,0.6c-0.3,0.1-0.6,0.2-1,0.2
	c-0.6,0-1.1-0.2-1.4-0.5c-0.4-0.3-0.5-0.7-0.5-1.3c0-0.3,0.1-0.6,0.2-0.9c0.2-0.3,0.4-0.5,0.7-0.6c0.3-0.1,0.7-0.3,1.2-0.4
	c0.7-0.1,1.2-0.3,1.5-0.4v-0.2c0-0.3-0.1-0.5-0.2-0.6c-0.1-0.1-0.4-0.2-0.8-0.2c-0.3,0-0.5,0.1-0.7,0.2c-0.2,0.1-0.3,0.3-0.4,0.6
	l-1.4-0.3c0.2-0.6,0.4-1,0.8-1.3c0.4-0.3,1-0.4,1.7-0.4c0.7,0,1.2,0.1,1.6,0.2c0.3,0.2,0.6,0.4,0.7,0.6c0.1,0.3,0.2,0.7,0.2,1.4
	l0,1.8c0,0.5,0,0.9,0.1,1.2c0.1,0.2,0.1,0.5,0.3,0.8h-1.5C98.6,64,98.6,63.8,98.5,63.6z M104.2,75c-0.4,0.4-1,0.6-1.6,0.6
	c-0.8,0-1.5-0.3-2-0.8c-0.5-0.5-0.7-1.3-0.7-2.3c0-0.6,0.1-1.2,0.3-1.7c0.2-0.5,0.5-0.8,1-1.1s0.9-0.4,1.4-0.4
	c0.6,0,1.2,0.2,1.6,0.5c0.4,0.3,0.7,0.8,0.8,1.4l-1,0.2c-0.1-0.4-0.3-0.7-0.5-0.9c-0.2-0.2-0.5-0.3-0.9-0.3c-0.5,0-0.9,0.2-1.2,0.5
	c-0.3,0.4-0.5,0.9-0.5,1.7c0,0.8,0.2,1.4,0.5,1.7c0.3,0.4,0.7,0.5,1.2,0.5c0.4,0,0.7-0.1,1-0.4c0.3-0.2,0.4-0.6,0.5-1.1l1,0.1
	C105,74.1,104.7,74.6,104.2,75z M107.5,75.4h-1v-5.9h1V75.4z M107.5,68.4h-1v-1.2h1V68.4z M107.2,64.1c-0.2-0.1-0.4-0.2-0.5-0.4
	c-0.1-0.2-0.2-0.4-0.2-0.6c0-0.2-0.1-0.5-0.1-1.1v-2.6h-0.7v-1.2h0.7V57l1.6-0.9v2.1h1.1v1.2H108v2.4c0,0.5,0,0.8,0,0.8
	c0,0.1,0.1,0.1,0.1,0.2c0.1,0.1,0.2,0.1,0.3,0.1c0.1,0,0.4-0.1,0.6-0.2l0.1,1.2c-0.4,0.2-0.8,0.2-1.2,0.2
	C107.7,64.2,107.4,64.2,107.2,64.1z M111.2,75.5c-0.4,0-0.6-0.1-0.8-0.2c-0.2-0.1-0.3-0.3-0.4-0.5c-0.1-0.2-0.1-0.6-0.1-1.2v-3.4
	h-0.7v-0.8h0.7v-1.5l1-0.6v2.1h1v0.8h-1v3.5c0,0.3,0,0.5,0.1,0.6c0,0.1,0.1,0.1,0.2,0.2c0.1,0,0.2,0.1,0.3,0.1c0.1,0,0.3,0,0.4,0
	l0.1,0.9C111.7,75.5,111.4,75.5,111.2,75.5z M112.3,64.1h-1.6v-5.9h1.6V64.1z M112.3,57.4h-1.6v-1.4h1.6V57.4z M118.2,74.2
	c-0.2,0.4-0.6,0.8-1,1c-0.4,0.2-0.9,0.4-1.4,0.4c-0.8,0-1.5-0.3-2-0.8c-0.5-0.5-0.8-1.3-0.8-2.3c0-1.1,0.3-1.9,0.9-2.4
	c0.5-0.4,1.1-0.7,1.9-0.7c0.8,0,1.5,0.3,2,0.8c0.5,0.5,0.8,1.3,0.8,2.2C118.5,73.2,118.4,73.8,118.2,74.2z M116,62.7
	c0.2,0.3,0.5,0.4,0.9,0.4c0.2,0,0.5-0.1,0.6-0.2c0.2-0.1,0.3-0.3,0.4-0.6l1.6,0.3c-0.2,0.6-0.5,1-1,1.3c-0.4,0.3-1,0.4-1.6,0.4
	c-1,0-1.8-0.3-2.3-1c-0.4-0.5-0.6-1.2-0.6-2c0-1,0.3-1.7,0.8-2.3c0.5-0.6,1.2-0.8,1.9-0.8c0.9,0,1.6,0.3,2.1,0.9
	c0.5,0.6,0.8,1.5,0.7,2.7h-3.9C115.6,62,115.7,62.4,116,62.7z M123.1,70.6c-0.2-0.1-0.5-0.2-0.7-0.2c-0.2,0-0.4,0.1-0.6,0.2
	c-0.2,0.1-0.3,0.3-0.4,0.5c-0.1,0.4-0.2,0.7-0.2,1.2v3.1h-1v-5.9h0.9v0.9c0.2-0.4,0.4-0.7,0.6-0.8s0.4-0.2,0.6-0.2
	c0.3,0,0.7,0.1,1,0.3L123.1,70.6z M128.9,74.6c-0.2,0.3-0.5,0.5-0.8,0.7c-0.4,0.2-0.8,0.2-1.2,0.2c-0.8,0-1.4-0.2-1.8-0.5
	c-0.4-0.3-0.7-0.8-0.8-1.4l1-0.2c0.1,0.4,0.2,0.7,0.5,0.9c0.3,0.2,0.6,0.3,1.1,0.3c0.5,0,0.8-0.1,1-0.3c0.2-0.2,0.3-0.4,0.3-0.7
	c0-0.2-0.1-0.4-0.3-0.5c-0.1-0.1-0.5-0.2-1-0.3c-0.7-0.2-1.2-0.3-1.5-0.5c-0.3-0.1-0.5-0.3-0.6-0.6s-0.2-0.5-0.2-0.8
	c0-0.3,0.1-0.5,0.2-0.7c0.1-0.2,0.3-0.4,0.5-0.6c0.2-0.1,0.4-0.2,0.6-0.3c0.3-0.1,0.6-0.1,0.9-0.1c0.5,0,0.9,0.1,1.2,0.2
	s0.6,0.3,0.8,0.5c0.2,0.2,0.3,0.5,0.3,0.9l-1,0.1c0-0.3-0.2-0.5-0.4-0.7c-0.2-0.2-0.5-0.3-0.9-0.3c-0.5,0-0.8,0.1-1,0.2
	c-0.2,0.2-0.3,0.3-0.3,0.5c0,0.1,0,0.2,0.1,0.4c0.1,0.1,0.2,0.2,0.4,0.3c0.1,0,0.4,0.1,0.9,0.3c0.7,0.2,1.2,0.3,1.5,0.5
	c0.3,0.1,0.5,0.3,0.7,0.5c0.2,0.2,0.2,0.5,0.2,0.9C129.2,74,129.1,74.3,128.9,74.6z M130.5,52.8c-0.4-0.3-0.8-0.6-1.3-1.2
	c-0.3,0.4-0.7,0.6-1.1,0.8c-0.4,0.2-0.8,0.3-1.3,0.3c-0.8,0-1.5-0.3-2-0.8c-0.4-0.5-0.6-1-0.6-1.5c0-0.5,0.2-1,0.5-1.4
	c0.3-0.4,0.8-0.8,1.5-1.1c-0.4-0.4-0.6-0.8-0.7-1c-0.1-0.3-0.2-0.5-0.2-0.8c0-0.5,0.2-0.9,0.6-1.3c0.4-0.4,0.9-0.5,1.5-0.5
	c0.6,0,1,0.2,1.4,0.5c0.4,0.3,0.5,0.8,0.5,1.2c0,0.8-0.5,1.4-1.5,2l1.5,1.9c0.2-0.3,0.3-0.7,0.4-1.1l1,0.2c-0.2,0.7-0.4,1.3-0.7,1.8
	c0.4,0.5,0.8,0.9,1.3,1.3L130.5,52.8z"/>
<path class="st0" d="M116.1,51.5c0.4,0,0.7-0.2,0.9-0.5c0.3-0.3,0.4-0.8,0.4-1.4c0-0.7-0.1-1.2-0.4-1.5c-0.2-0.3-0.6-0.4-0.9-0.4
	c-0.4,0-0.7,0.1-0.9,0.4c-0.3,0.3-0.4,0.7-0.4,1.3c0,0.6,0.1,1.1,0.3,1.4C115.3,51.3,115.6,51.5,116.1,51.5z"/>
<path class="st0" d="M96.5,61.8c-0.2,0.1-0.3,0.3-0.3,0.6c0,0.2,0.1,0.4,0.2,0.6c0.2,0.2,0.4,0.2,0.6,0.2c0.3,0,0.6-0.1,0.8-0.3
	c0.2-0.1,0.3-0.3,0.4-0.5c0-0.1,0.1-0.4,0.1-0.8v-0.3c-0.2,0.1-0.5,0.1-1,0.2C96.9,61.6,96.6,61.7,96.5,61.8z"/>
<path class="st0" d="M54.6,60.1c-0.3,0.3-0.4,0.6-0.4,1c0,0.4,0.2,0.8,0.5,1.2c0.4,0.4,0.9,0.6,1.5,0.6c0.4,0,0.8-0.1,1.3-0.3
	c0.4-0.2,0.8-0.5,1-0.9L56.1,59C55.4,59.4,54.9,59.8,54.6,60.1z"/>
<path class="st0" d="M68,61.7c0.2-0.1,0.2-0.3,0.2-0.6c0-0.2-0.1-0.4-0.2-0.6c-0.2-0.1-0.4-0.2-0.8-0.2h-1.2v1.6h1.2
	C67.5,61.9,67.8,61.8,68,61.7z"/>
<path class="st0" d="M115.8,70.2c-0.5,0-0.9,0.2-1.2,0.6c-0.3,0.4-0.5,0.9-0.5,1.7c0,0.8,0.2,1.3,0.5,1.7c0.3,0.4,0.7,0.6,1.2,0.6
	c0.5,0,0.9-0.2,1.2-0.6c0.3-0.4,0.5-1,0.5-1.7c0-0.7-0.2-1.3-0.5-1.7C116.7,70.4,116.2,70.2,115.8,70.2z"/>
<path class="st0" d="M126.8,46.9l0.4,0.5c0.4-0.3,0.7-0.5,0.8-0.7c0.1-0.2,0.2-0.4,0.2-0.6c0-0.3-0.1-0.5-0.3-0.7
	c-0.2-0.2-0.4-0.3-0.7-0.3c-0.3,0-0.5,0.1-0.7,0.3c-0.2,0.2-0.3,0.4-0.3,0.6c0,0.1,0,0.3,0.1,0.4C126.6,46.5,126.7,46.7,126.8,46.9z
	"/>
<path class="st0" d="M116.8,59.2c-0.3,0-0.6,0.1-0.8,0.4c-0.2,0.2-0.3,0.6-0.3,1h2.3c0-0.5-0.1-0.8-0.4-1
	C117.4,59.4,117.1,59.2,116.8,59.2z"/>
</svg>
