<?xml version="1.0" encoding="utf-8"?>
<!-- Generator: Adobe Illustrator 25.2.1, SVG Export Plug-In . SVG Version: 6.00 Build 0)  -->
<svg version="1.1" id="Layer_1" xmlns="http://www.w3.org/2000/svg" xmlns:xlink="http://www.w3.org/1999/xlink" x="0px" y="0px"
	 viewBox="0 0 120 60" style="enable-background:new 0 0 120 60;" xml:space="preserve">
<style type="text/css">
	.st0{fill:#FFFFFF;}
</style>
<g>
	<polygon class="st0" points="17.1,35.2 19.8,35.2 19.8,38.4 25.5,38.4 25.5,35.2 28.2,35.2 28.2,44 25.5,44 25.5,40.7 19.8,40.7 
		19.8,44 17.1,44 	"/>
	<path class="st0" d="M34.7,35.2h3.5L43,44h-3l-0.8-1.6h-5.5L33,44h-3L34.7,35.2z M34.8,40.6h3.5l-1.8-3.3L34.8,40.6z"/>
	<path class="st0" d="M44.8,35.2H53c2.1,0,2.6,1,2.6,2.6v0.6c0,1.2-0.3,1.9-1.5,2.2l0,0c0.8,0.1,1.5,0.5,1.5,1.9V44h-2.7v-1
		c0-0.9-0.3-1.2-1.1-1.2h-4.3V44h-2.7V35.2z M47.5,39.6H52c0.7,0,1-0.3,1-0.9v-0.3c0-0.8-0.4-0.9-1.2-0.9h-4.3V39.6z"/>
	<polygon class="st0" points="57.4,35.2 67.7,35.2 67.7,37.4 63.9,37.4 63.9,44 61.2,44 61.2,37.4 57.4,37.4 	"/>
	<path class="st0" d="M69.5,35.2h7.4c2.6,0,3.2,1.3,3.2,3V39c0,1.3-0.6,2.8-2.5,2.8h-5.4V44h-2.7V35.2z M72.2,39.6h4.2
		c0.6,0,0.9-0.4,0.9-0.9v-0.3c0-0.6-0.3-0.9-1.1-0.9h-4C72.2,37.5,72.2,39.6,72.2,39.6z"/>
	<path class="st0" d="M82.1,35.2h2.7v5.1c0,1.1,0.4,1.6,1.5,1.6H89c1.1,0,1.5-0.4,1.5-1.6v-5.1h2.7v5.7c0,2.2-1.1,3.2-3.6,3.2h-3.9
		c-2.5,0-3.6-1-3.6-3.2C82.1,40.9,82.1,35.2,82.1,35.2z"/>
	<path class="st0" d="M95.4,35.2h8.1c2.1,0,2.6,1,2.6,2.6v0.6c0,1.2-0.3,1.9-1.5,2.2l0,0c0.8,0.1,1.5,0.5,1.5,1.9V44h-2.7v-1
		c0-0.9-0.3-1.2-1.1-1.2h-4.2V44h-2.7C95.4,44,95.4,35.2,95.4,35.2z M98.1,39.6h4.4c0.7,0,1-0.3,1-0.9v-0.3c0-0.8-0.4-0.9-1.2-0.9
		h-4.2C98.1,37.5,98.1,39.6,98.1,39.6z"/>
	<polygon class="st0" points="112.3,41 107.4,35.2 110.7,35.2 113.6,38.8 116.6,35.2 119.9,35.2 115,41 115,44 112.3,44 	"/>
	<path class="st0" d="M62.1,10.9l0.7,6.8c0.2,2.5,1.9,4.3,3.3,4.6c0.4,0.1,0.9,0.1,0.9,0.1v1.8h-1c0-0.8-1.5-1.3-2.5-1.6
		c-1.3-0.5-3.7-1.8-4-4.7L58.9,11h3.2V10.9z"/>
	<path class="st0" d="M58.3,10.1V6.8c0-0.8,0.7-1.6,2.7-2l4.8-0.7v-2l1.3-0.7v3.3l-4,0.8c-1.3,0.3-2.1,1-2.1,1.8v2.6h-2.7V10.1z"/>
	<path class="st0" d="M72.7,10.9L72,17.7c-0.2,2.5-1.9,4.3-3.3,4.6c-0.4,0.1-0.9,0.1-0.9,0.1v1.8h1c0-0.8,1.5-1.3,2.5-1.6
		c1.3-0.5,3.7-1.8,4-4.7l0.6-6.9h-3.2V10.9z"/>
	<path class="st0" d="M76.6,10.1V6.8c0-0.8-0.7-1.6-2.7-2l-4.8-0.7v-2l-1.3-0.7v3.3l4,0.8c1.3,0.3,2.1,1,2.1,1.8v2.6h2.7V10.1z"/>
	<path class="st0" d="M17,52.9c0-2.5,1.4-3.1,3.7-3.1h3c3.7,0,4.2,0.8,4.1,3.2h-2.6v-0.2c0-0.6-0.4-0.8-1.2-0.8h-2.8
		c-1.4,0-1.6,0.6-1.6,1.7v0.9c0,1.2,0.3,1.7,1.5,1.7h2.8c1.2,0,1.5-0.1,1.5-1.2H28V56c0,1.4-0.5,2.5-3.1,2.5h-4.2
		c-2.3,0-3.7-0.6-3.7-3.1C17,55.4,17,52.9,17,52.9z"/>
	<path class="st0" d="M33.7,52.9c0-2.5,1.4-3.1,3.7-3.1h4.1c2.3,0,3.7,0.6,3.7,3.1v2.5c0,2.5-1.4,3.1-3.7,3.1h-4.1
		c-2.3,0-3.7-0.6-3.7-3.1C33.7,55.4,33.7,52.9,33.7,52.9z M36.4,54.6c0,1.2,0.3,1.7,1.5,1.7h3.3c1.2,0,1.5-0.5,1.5-1.7v-0.9
		c0-1-0.3-1.7-1.6-1.7h-3c-1.4,0-1.6,0.6-1.6,1.7L36.4,54.6L36.4,54.6z"/>
	<polygon class="st0" points="51.1,50 53.7,50 53.7,56.2 59.5,56.2 59.5,58.4 51.1,58.4 	"/>
	<polygon class="st0" points="64.9,50 67.5,50 67.5,56.2 73.3,56.2 73.3,58.4 64.9,58.4 	"/>
	<polygon class="st0" points="78.7,50 87.9,50 87.9,51.9 81.3,51.9 81.3,53.3 87.6,53.3 87.6,55 81.3,55 81.3,56.4 88.1,56.4 
		88.1,58.4 78.7,58.4 	"/>
	<path class="st0" d="M93.7,52.9c0-2.5,1.4-3.1,3.7-3.1h3.9c2.9,0,3.3,1.1,3.3,2.7v0.3h-2.5c0-0.8-0.5-0.9-1.3-0.9H98
		c-1.3,0-1.6,0.3-1.6,1.8v1c0,1.4,0.3,1.8,1.6,1.8h2.8c0.7,0,1.4-0.1,1.4-0.9v-0.2H99v-1.7h5.8V56c0,2.4-1.3,2.5-4.2,2.5h-3.1
		c-2.3,0-3.7-0.6-3.7-3.1v-2.5H93.7z"/>
	<polygon class="st0" points="110.6,50 119.8,50 119.8,51.9 113.2,51.9 113.2,53.3 119.5,53.3 119.5,55 113.2,55 113.2,56.4 
		120,56.4 120,58.4 110.6,58.4 	"/>
</g>
</svg>
