<?xml version="1.0" encoding="utf-8"?>
<!-- Generator: Adobe Illustrator 25.2.1, SVG Export Plug-In . SVG Version: 6.00 Build 0)  -->
<svg version="1.1" id="Layer_1" xmlns="http://www.w3.org/2000/svg" xmlns:xlink="http://www.w3.org/1999/xlink" x="0px" y="0px"
	 viewBox="0 0 150 200" style="enable-background:new 0 0 150 200;" xml:space="preserve">
<style type="text/css">
	.st0{fill:#7BA4DD;}
	.st1{fill:#1B2D42;}
	.st2{fill:#B7CBEA;}
	.st3{fill:#FFFFFF;}
	.st4{clip-path:url(#SVGID_2_);}
</style>
<g>
	
		<rect x="6.1" y="58.1" transform="matrix(0.225 -0.9744 0.9744 0.225 -50.4039 127.4903)" class="st0" width="97.7" height="74.7"/>
	<path class="st1" d="M5.1,136.2l116.9,27l22.9-99.4L28,36.8L5.1,136.2z M80.4,151.4L7.6,134.6l22-95.2l72.8,16.8L80.4,151.4z"/>
	<g>
		<path class="st0" d="M91.9,148l0.9-4c0.5-2.1,1.9-3.3,4.1-2.8c1.8,0.4,2.7,1.8,2.3,3.6l-0.4,1.6l2.7,0.6l-0.7,3.1L91.9,148z
			 M96.5,145.8l0.1-0.3c0.1-0.6,0.2-1.2-0.5-1.4s-0.9,0.5-1,1l-0.1,0.3L96.5,145.8z"/>
		<path class="st0" d="M93.7,139.9l0.9-3.9c0.5-2,1.7-3.5,3.9-2.9c1.3,0.3,1.8,1,1.9,2.2h0.1c0.2-0.1,0.4-0.3,0.7-0.4l3.3-1.2
			l-0.8,3.7l-3.2,0.7v0.1l2.8,0.7l-0.7,3.1L93.7,139.9z M98.4,137.7l0.1-0.2c0.1-0.5,0.2-1.1-0.5-1.2c-0.7-0.2-0.9,0.3-1,0.8
			l-0.1,0.2L98.4,137.7z"/>
		<path class="st0" d="M95.7,131.4l1.4-5.9l2.4,0.6l-0.6,2.7l0.8,0.2l0.6-2.5l2.3,0.5l-0.6,2.5l0.9,0.2l0.6-2.8l2.4,0.6l-1.4,6
			L95.7,131.4z"/>
		<path class="st0" d="M97.5,123.5l0.8-3.3l4.9-0.1V120c-0.4-0.1-0.8-0.3-1.1-0.5l-3.3-1.8l0.8-3.2l9.2,0.6l-0.7,3.1l-5-0.7v0.1
			c0.3,0.1,0.6,0.3,0.8,0.4l3.7,2.2l-0.4,1.9l-4,0.3c-0.4,0-0.8,0-1.2-0.1v0.1c0.3,0.1,0.7,0.2,1.1,0.3l3.7,1.2l-0.7,3.1L97.5,123.5
			z"/>
		<path class="st0" d="M100.1,112.3l0.7-3.2l8.9,2l-0.7,3.2L100.1,112.3z"/>
		<path class="st0" d="M101.1,108l1.4-5.9l2.4,0.6l-0.6,2.7l0.8,0.2l0.6-2.5l2.3,0.5l-0.6,2.5l0.9,0.2l0.6-2.8l2.4,0.6l-1.4,6
			L101.1,108z"/>
		<path class="st0" d="M102.7,101l0.9-3.9c0.5-2,1.7-3.5,3.9-2.9c1.3,0.3,1.8,1,1.9,2.2h0.1c0.2-0.1,0.4-0.3,0.7-0.4l3.3-1.3
			l-0.8,3.7l-3.2,0.7v0.1l2.8,0.7l-0.7,3.1L102.7,101z M107.4,98.7l0.1-0.2c0.1-0.5,0.2-1.1-0.5-1.2c-0.7-0.2-0.9,0.3-1,0.8
			l-0.1,0.2L107.4,98.7z"/>
		<path class="st0" d="M110.5,93.2l0.2-0.1c0.6-0.5,1.1-1.1,1.3-1.8c0.1-0.3,0.1-0.8-0.3-0.9c-0.4-0.1-0.5,0.3-0.7,0.6l-0.3,0.6
			c-0.5,1.2-1.5,2.1-2.9,1.8c-2.1-0.5-2.8-2.7-2.4-4.6c0.2-1,0.7-1.9,1.4-2.6l2.1,1.4c-0.5,0.5-0.9,1-1.1,1.7
			c-0.1,0.3-0.1,0.7,0.3,0.8c0.3,0.1,0.5-0.3,0.6-0.5l0.3-0.7c0.6-1.3,1.6-2.1,3.1-1.7c2.1,0.5,2.7,2.6,2.3,4.5
			c-0.3,1.1-0.9,2.3-1.6,3.2L110.5,93.2z"/>
		<path class="st0" d="M106.4,85l0.7-3.1l3,0.7l0.5-2l-3-0.7l0.7-3.1l8.9,2l-0.7,3.1l-3.1-0.7l-0.5,2l3.1,0.7l-0.7,3.1L106.4,85z"/>
		<path class="st0" d="M108.5,75.7l0.7-3.2l8.9,2l-0.7,3.2L108.5,75.7z"/>
		<path class="st0" d="M109.5,71.4l0.9-4c0.5-2.1,1.9-3.3,4.1-2.8c1.8,0.4,2.7,1.8,2.3,3.6l-0.4,1.6l2.7,0.6l-0.7,3.1L109.5,71.4z
			 M114.2,69.2l0.1-0.3c0.1-0.6,0.2-1.2-0.5-1.4c-0.7-0.2-0.9,0.5-1,1l-0.1,0.3L114.2,69.2z"/>
		<path class="st0" d="M103.5,150.7l0.9-3.9c0.5-2,1.7-3.5,3.9-2.9c1.3,0.3,1.8,1,1.9,2.2h0.1c0.2-0.1,0.4-0.3,0.7-0.4l3.3-1.2
			l-0.8,3.7l-3.2,0.7v0.1l2.8,0.7l-0.7,3.1L103.5,150.7z M108.1,148.5l0.1-0.2c0.1-0.5,0.2-1.1-0.5-1.2c-0.7-0.2-0.9,0.3-1,0.8
			l-0.1,0.2L108.1,148.5z"/>
		<path class="st0" d="M107.3,134.3l5.2,1.2c2.6,0.6,3.4,2.5,2.8,4.9c-0.6,2.5-2.1,3.8-4.7,3.2l-5.2-1.2l0.7-3.2l4.9,1.1
			c0.7,0.2,1.3,0.3,1.5-0.6c0.2-0.9-0.4-1-1.1-1.2l-4.9-1.1L107.3,134.3z"/>
		<path class="st0" d="M113.3,124.8c1.4,0.4,2.7,0.6,3.5,1.9c0.8,1.2,1,2.7,0.7,4.1c-0.6,2.7-2.8,4.5-5.6,3.8
			c-2.9-0.7-4.1-3.2-3.5-5.9c0.4-1.5,1.6-3.4,3.3-3.8l0.4,3.2c-0.5,0.1-0.8,0.5-1,1.1c-0.3,1.1,0.6,2,1.7,2.2c1,0.2,2-0.2,2.3-1.2
			c0.1-0.5,0-1.2-0.5-1.5l-0.3,1.4l-2.1-0.5L113.3,124.8z"/>
		<path class="st0" d="M109.8,123.3l0.9-3.7c0.4-1.7,1.2-3.3,3.3-2.9c0.8,0.2,1.5,0.7,1.5,1.6h0.1c0.6-0.9,1.4-1.3,2.5-1.1
			c1.8,0.4,2.1,2.2,1.7,3.8l-1,4.3L109.8,123.3z M114,120.8c0.1-0.5,0.2-1-0.4-1.1c-0.7-0.2-0.7,0.5-0.9,0.9l-0.1,0.2l1.3,0.3
			L114,120.8z M117.2,121.9l0.1-0.4c0.1-0.5,0.3-1.3-0.4-1.5s-0.9,0.6-1,1.2l-0.1,0.3L117.2,121.9z"/>
		<path class="st0" d="M112.2,112.7l2.5-0.4v-0.1c-0.3-0.2-0.5-0.3-0.8-0.5l-1.3-1l0.8-3.6l4.4,4.2l3.8,0.9l-0.7,3.1l-3.8-0.9
			l-5.8,1.9L112.2,112.7z"/>
	</g>
	<g>
		<path class="st1" d="M69,87.3c-0.8,0.9-1.3,1.8-1.5,2.6c-0.6,2.4,1.1,4.7,3.8,5.3c2.6,0.6,4.9-0.4,5.5-2.8c0.3-1.3,0-2.4-0.5-3.3
			l0.6,0.1c1.4,0.3,2.2,1,1.8,2.8c-0.3,1.4-0.9,1.8-1.6,1.7l-0.6,2.4c2.4,0.4,3.5-1.4,3.9-3.4c0.8-3.3-0.6-5.1-3.3-5.8l-6.3-1.4
			c-0.2,0-0.3-0.2-0.2-0.4l0.2-0.7L69.1,84l-0.6,2.8L69,87.3z M74.1,88.7c0.7,0.7,1.1,1.8,0.8,3c-0.3,1.4-1.7,1.6-3.2,1.2
			c-1.9-0.4-2.6-1.6-2.3-3.1c0.1-0.6,0.5-1.3,1-1.9L74.1,88.7z"/>
		<path class="st1" d="M76,70.3c-1.2-0.4-1.8-1.8-1.5-2.9c0.3-1.1,1.3-2,2.6-1.8L76,70.3z M80.6,68.6c-0.3,1.3-1.3,2.3-2.9,2.1
			l1.6-6.9c-0.2-0.1-0.4-0.1-0.6-0.2c-2.9-0.7-5.3,0.4-6,3.3c-0.6,2.8,1.1,5.3,3.7,5.9c2.9,0.7,5.3-0.7,6-3.8c0.4-1.6,0-3.1-1-4.2
			l-1.4,1C80.6,66.4,80.8,67.6,80.6,68.6"/>
		<path class="st1" d="M69.2,116.2c0.2,0,0.3,0.2,0.2,0.4l-0.3,1.1l1.7,0.4l1.1-4.9l-1.7-0.4l-0.2,0.9c0,0.2-0.2,0.3-0.4,0.2
			l-11-2.5l-0.9,4l1.7,0.4l0.3-1.4c0-0.2,0.2-0.3,0.4-0.2L69.2,116.2z"/>
		<path class="st1" d="M70.5,110.6c0.2,0,0.3,0.2,0.2,0.4l-0.2,0.9l1.7,0.4l1.1-4.8l-1.7-0.4l-0.2,1c0,0.2-0.2,0.3-0.4,0.2l-11-2.5
			l-0.9,3.7l1.7,0.4l0.3-1.1c0-0.2,0.2-0.3,0.4-0.2L70.5,110.6z"/>
		<path class="st1" d="M79,75c0,0.2-0.2,0.3-0.4,0.2l-4.2-1c-2-0.5-3.6,0.6-4.1,2.5c-0.3,1.5,0.2,2.8,0.7,3.5l-4.9-1.1l-0.9,3.8
			l1.7,0.4l0.3-1.2c0-0.2,0.2-0.3,0.4-0.2l9,2.1c0.2,0,0.3,0.2,0.2,0.4l-0.2,1.1l1.7,0.4l1.2-5l-1.7-0.4l-0.2,1
			c0,0.2-0.2,0.3-0.4,0.2l-3.9-0.9c-0.6-0.7-1.3-2-1-3c0.2-1,1.2-1.3,2.3-1l3.5,0.8c0.2,0,0.3,0.2,0.2,0.4L78,79.1l1.7,0.4l1.1-4.9
			l-1.7-0.4L79,75z"/>
		<path class="st1" d="M82.2,59.8L79,59.1c-1-0.8-1.9-1.9-1.6-3.2c0-0.2,0.1-0.4,0.2-0.6l-2-0.5c-0.7,1.6,0,3.1,1.2,4.1l-2-0.1
			l-0.7,2.9l1.7,0.4l0.2-0.9c0-0.2,0.2-0.3,0.4-0.3l5.2,1.2c0.2,0,0.3,0.2,0.2,0.4l-0.2,0.9l1.7,0.4l1.1-4.8l-1.7-0.4l-0.2,1
			C82.5,59.8,82.4,59.9,82.2,59.8"/>
		<path class="st1" d="M68.8,119.4c0,0.2-0.2,0.3-0.4,0.2l-4-0.9c-1.7-0.4-3.7,0.1-4.5,3.3c-0.5,2.4,0.3,4.2,2.1,4.9l0.5-2.2
			c-0.8-0.4-1-1.2-0.8-2.3c0.2-0.9,1-1.7,2.2-1.4c-0.1,0.4-0.2,0.8-0.3,1.3c-0.4,1.8-0.7,5.3,2,5.9c2.1,0.5,3.4-1.1,3.8-2.9
			c0.3-1.2,0.2-2.7-0.5-3.5l1,0.1l0.7-3l-1.7-0.4L68.8,119.4z M66.9,121.7c1,0.5,1.1,1.8,0.9,2.7c-0.2,1-0.8,1.6-1.6,1.4
			c-1.2-0.3-1.3-1.7-1-3.1c0.1-0.5,0.3-1,0.4-1.4C66,121.4,66.6,121.6,66.9,121.7"/>
		<path class="st1" d="M73.8,97.4c0,0.2-0.2,0.3-0.4,0.2l-3.9-0.9c-1.7-0.4-3.7,0.1-4.5,3.3c-0.5,2.4,0.3,4.2,2.1,4.9l0.5-2.2
			c-0.8-0.4-1-1.2-0.8-2.3c0.2-0.9,1-1.7,2.2-1.4c-0.1,0.4-0.2,0.8-0.3,1.3c-0.4,1.8-0.7,5.3,2,5.9c2.1,0.5,3.4-1.1,3.8-2.9
			c0.3-1.2,0.2-2.7-0.5-3.5l1,0.1l0.7-3.1L74,96.4L73.8,97.4z M72,99.8c1,0.5,1.1,1.8,0.9,2.7c-0.2,1-0.8,1.6-1.6,1.4
			c-1.2-0.3-1.3-1.7-1-3.1c0.1-0.5,0.3-1,0.4-1.4C71.1,99.4,71.7,99.6,72,99.8"/>
		<path class="st1" d="M61.8,132.2c0-0.2,0.2-0.3,0.4-0.3l3.3,0.8c0,0.2-0.1,0.4-0.1,0.6c-0.9,3.9-3.6,5.8-6,5.2
			c-2.9-0.7-3.9-4-3.2-7.2c0.3-1.2,0.7-2.3,1.1-3.1l-2.2-0.5c-0.5,1-0.8,1.9-1.1,3.1c-1.2,5.3,1,9.5,4.8,10.4c4.4,1,7.7-2.6,8.8-7.3
			c0.3-1.3,0.4-2.2,0.5-3.2l-5.1-1.2c-0.2-0.1-0.3-0.2-0.3-0.4l0.2-0.9l-1.8-0.4l-1.2,5.2l1.8,0.4L61.8,132.2z"/>
		<g>
			<path class="st2" d="M55.2,79.1L55,79v-0.1c0-0.1,0.1-0.2,0.1-0.1C55.2,78.8,55.2,78.9,55.2,79.1L55.2,79.1z M55.3,79.1
				L55.3,79.1l0.4-0.2v-0.1l-0.4,0.1c0-0.1,0-0.2-0.2-0.2c-0.1,0-0.2,0-0.3,0.2l-0.1,0.3l0.7,0.2v-0.1L55.3,79.1z M55.9,79.1
				c0.1-0.3-0.1-0.7-0.5-0.8c-0.4-0.1-0.7,0.1-0.8,0.5c-0.1,0.3,0.1,0.7,0.5,0.8C55.5,79.6,55.8,79.4,55.9,79.1 M55.2,79.4
				c-0.3-0.1-0.5-0.3-0.4-0.6c0.1-0.3,0.3-0.5,0.6-0.4c0.3,0.1,0.5,0.3,0.4,0.6C55.7,79.3,55.5,79.5,55.2,79.4"/>
			<path class="st3" d="M56.5,96.1c-1,4.2-2.9,8-5.3,10.7c-2.6,2.8-5.5,4-8.3,3.3c-2.7-0.6-4.9-3-6-6.6c-1.1-3.4-1.1-7.7-0.1-11.9
				c1-4.2,2.9-8,5.3-10.7l0,0c2.6-2.8,5.5-4,8.3-3.3c2.7,0.6,4.9,3,6,6.6C57.4,87.6,57.4,91.8,56.5,96.1z M37.8,91.8
				c-0.9,4.1-0.9,8.1,0.1,11.4s2.9,5.4,5.2,5.9c2.4,0.5,5-0.5,7.3-3c2.3-2.5,4.1-6.1,5.1-10.2c0.9-4.1,0.9-8.1-0.1-11.4
				s-2.9-5.4-5.2-5.9c-2.4-0.5-5,0.5-7.3,3l0,0C40.5,84.1,38.7,87.7,37.8,91.8z"/>
			<g>
				<g>
					<g>
						<defs>
							<path id="SVGID_1_" d="M42.5,81.2c-2.4,2.6-4.2,6.3-5.2,10.4c-1,4.2-0.9,8.3,0.1,11.7c1.1,3.5,3,5.7,5.6,6.3
								c2.5,0.6,5.3-0.5,7.8-3.2c2.4-2.6,4.2-6.3,5.2-10.4c1-4.2,0.9-8.3-0.1-11.7c-1.1-3.5-3-5.7-5.6-6.3S45,78.6,42.5,81.2z"/>
						</defs>
						<clipPath id="SVGID_2_">
							<use xlink:href="#SVGID_1_"  style="overflow:visible;"/>
						</clipPath>
						<g id="G-Logo_x5F_thicklines_x5F_highres_x5F_v10CMYK-F.psd_6_" class="st4">
							<g id="G-Logo_x5F_thicklines-LARGEUSE-F2.psd_6_">
								
									<image style="overflow:visible;enable-background:new    ;" width="1500" height="1500" id="G-Logo_x5F_thicklines-LARGEUSE-F2_1_" xlink:href="476A34F6F1E6600D.png"  transform="matrix(5.018956e-03 -2.173949e-02 2.173948e-02 5.018954e-03 26.5721 106.3243)">
								</image>
							</g>
						</g>
					</g>
				</g>
			</g>
		</g>
	</g>
</g>
</svg>
