<?xml version="1.0" encoding="utf-8"?>
<!-- Generator: Adobe Illustrator 25.3.0, SVG Export Plug-In . SVG Version: 6.00 Build 0)  -->
<svg version="1.1" id="Layer_1" xmlns="http://www.w3.org/2000/svg" xmlns:xlink="http://www.w3.org/1999/xlink" x="0px" y="0px"
	 viewBox="0 0 750.2 400.1" style="enable-background:new 0 0 750.2 400.1;" xml:space="preserve">
<g>
	<path d="M110.9,177c0,0.1,0,0.2,0,0.2c0-0.8-0.1-1.5-0.1-2.3C110.8,175.6,110.9,176.3,110.9,177z"/>
	<path d="M110.8,174.9c-0.1-1.6-0.1-3.1-0.2-4.7C110.7,171.8,110.7,173.4,110.8,174.9z"/>
	<path d="M142.4,341.1c-14.9-15.9-27.4-82-31.5-163.9c3.7,81.8,9.2,145.9,21.5,163.9c3.9,5.7,7.1,10.8,9.8,15.4
		c4.4,0.2,9,0.4,13.6,0.7C152.6,352.5,148.2,347.2,142.4,341.1z"/>
	<path d="M272.8,341c12.6-18.5,18.1-85.8,21.8-170.9c-0.3,6.9-0.7,13.6-1.1,20.2C288.8,266,276.9,326,262.8,341
		c-5.8,6.1-10.2,11.5-13.4,16c4.6-0.2,9.2-0.4,13.6-0.7C265.7,351.8,268.9,346.7,272.8,341z"/>
	<path d="M456.6,181.7c3.3,83.5,8.2,150.5,18.1,177.7c3.4,1,6.9,2.2,10.6,3.4C471.7,339.5,460.6,268.5,456.6,181.7z"/>
	<path d="M456.4,178.4c0,1.1,0.1,2.2,0.2,3.3c-0.2-3.8-0.3-7.7-0.5-11.6C456.2,172.9,456.3,175.7,456.4,178.4z"/>
	<path d="M635.4,170.1c-0.3,6.8-0.6,13.4-0.9,20c-4.2,81-14.6,146.9-27.3,170.9c3.5-1.1,6.9-2.1,10.1-3
		C627.3,328.6,632.1,257.5,635.4,170.1z"/>
</g>
</svg>
