<?xml version="1.0" encoding="utf-8"?>
<!-- Generator: Adobe Illustrator 25.3.0, SVG Export Plug-In . SVG Version: 6.00 Build 0)  -->
<svg version="1.1" id="Layer_1" xmlns="http://www.w3.org/2000/svg" xmlns:xlink="http://www.w3.org/1999/xlink" x="0px" y="0px"
	 viewBox="0 0 750.2 400.1" style="enable-background:new 0 0 750.2 400.1;" xml:space="preserve">
<polygon points="266,202.3 266,197.6 263.7,197.6 "/>
<polygon points="252.8,197.4 252.8,193.4 250.8,197.4 "/>
<polygon points="253.9,226.5 258.4,217.4 262.9,226.5 265.3,226.5 258.4,212.5 253.2,223.2 253.2,226.5 "/>
<polygon points="241.8,188.9 237.6,197.4 240,197.4 252.8,171.4 252.8,169.9 251.2,169.9 244.4,183.5 218.4,196 223.9,169.9 
	220.1,169.9 214.4,197.4 224,197.4 "/>
<polygon points="164.9,192.5 160.3,182.2 152,197.4 152.1,197.4 156.2,197.4 160,190.5 163.1,197.4 164.8,197.4 164.8,201.2 
	176.1,226.5 180.1,226.5 167.1,197.5 164.9,197.5 "/>
<polygon points="202.3,226.5 191.8,203.2 193,197.5 189.3,197.5 185.3,197.5 198.3,226.5 "/>
<polygon points="143.8,170.1 139.5,171.3 142.5,169.9 138.4,169.9 138.4,174.1 141.6,173.2 138.4,177.4 138.4,187.7 148,169.9 
	143.9,169.9 "/>
<polygon points="266,170.7 266,169.9 265.6,169.9 "/>
<polygon points="177,169.9 189.3,197.5 195.1,169.9 "/>
<polygon points="209,226.5 223.2,226.5 237.6,197.4 224,197.4 213.3,202.5 214.4,197.4 209.1,197.4 209.1,169.9 198.8,169.9 
	193,197.5 209,197.5 "/>
<polygon points="225.6,226.5 236.5,226.5 250.8,197.4 240,197.4 "/>
<polygon points="258.4,182 266,197.3 266,175.5 263.2,169.9 253.5,169.9 252.8,171.4 252.8,193.4 "/>
<polygon points="251.6,226.5 253.2,223.2 253.2,197.5 238.9,226.5 "/>
<polygon points="253.2,197.5 263.7,197.5 258.4,186.9 "/>
<polygon points="167.1,197.5 185.3,197.5 173,169.9 164.9,169.9 164.9,192.5 "/>
<polygon points="138.4,197.4 138.4,222.7 152.1,197.4 152,197.4 "/>
<polygon points="156.2,197.4 140.4,226.5 164.8,226.5 164.8,201.2 163.1,197.4 "/>
</svg>
