<?xml version="1.0" encoding="utf-8"?>
<!-- Generator: Adobe Illustrator 25.3.0, SVG Export Plug-In . SVG Version: 6.00 Build 0)  -->
<svg version="1.1" id="Layer_1" xmlns="http://www.w3.org/2000/svg" xmlns:xlink="http://www.w3.org/1999/xlink" x="0px" y="0px"
	 viewBox="0 0 750.2 400.1" style="enable-background:new 0 0 750.2 400.1;" xml:space="preserve">
<polygon points="278.7,201.1 278.7,197.5 276.9,197.5 "/>
<polygon points="263.7,197.6 275.8,222.2 278.2,222.2 266.1,197.6 "/>
<polygon points="252.8,197.4 252.8,193.4 250.8,197.4 "/>
<polygon points="253.7,222.2 256,222.2 258.4,217.4 260.8,222.2 263.2,222.2 258.4,212.5 "/>
<polygon points="252.8,166.6 244.4,183.5 218.4,196 224.8,165.5 221.1,165.5 214.4,197.4 224,197.4 241.8,188.9 237.6,197.4 
	240,197.4 252.8,171.4 "/>
<polygon points="164.9,192.5 160.3,182.2 152,197.4 152.1,197.4 156.2,197.4 160,190.5 163.1,197.4 164.8,197.4 164.8,201.2 
	174.2,222.2 178.1,222.2 167.1,197.5 164.9,197.5 "/>
<polygon points="185.3,197.5 196.3,222.2 200.4,222.2 191.8,203.2 193,197.5 189.3,197.5 "/>
<path d="M126.2,197.3l9.9-13.1l-7.2,13.3h4.2l17.3-32h-7.1l-13.2,6.3l1.3-6.3h-3.7l-2.1,9.9h0v2.4l16-4.6l-16,21v3.3h0.3l0.1-0.2
	H126.2z M139.5,171.3l4.9-2.3l-0.6,1.1L139.5,171.3z"/>
<polygon points="126.2,197.3 126,197.5 125.9,197.5 125.6,197.8 125.6,203.4 128.9,197.3 "/>
<polygon points="126.2,197.3 126,197.3 125.9,197.5 126,197.5 "/>
<polygon points="263.5,165.5 267,172.7 278.7,167.1 278.7,165.5 "/>
<polygon points="252.8,165.5 252.8,166.5 253.3,165.5 "/>
<polygon points="177.8,165.5 176.9,169.7 189.3,197.5 196,165.5 "/>
<polygon points="213.3,202.5 214.4,197.4 209.1,197.4 209.1,165.5 199.7,165.5 193,197.5 209,197.5 209,222.2 225.3,222.2 
	237.6,197.4 224,197.4 "/>
<polygon points="278.7,196.3 278.7,171.2 268.7,176 "/>
<polygon points="227.8,222.2 238.6,222.2 250.8,197.4 240,197.4 "/>
<polygon points="255.7,165.5 252.8,171.4 252.8,193.4 258.4,182 266.1,197.5 276.9,197.5 261.1,165.5 "/>
<polygon points="253.2,222.2 253.2,197.5 241,222.2 "/>
<polygon points="258.4,186.9 253.2,197.5 263.7,197.5 "/>
<polygon points="164.9,165.5 164.9,192.5 167.1,197.5 185.3,197.5 171,165.5 "/>
<polygon points="133.2,197.4 125.6,211.4 125.6,222.2 138.7,222.2 152.1,197.4 152,197.4 "/>
<polygon points="156.2,197.4 142.8,222.2 164.8,222.2 164.8,201.2 163.1,197.4 "/>
</svg>
