<?xml version="1.0" encoding="utf-8"?>
<!-- Generator: Adobe Illustrator 25.3.0, SVG Export Plug-In . SVG Version: 6.00 Build 0)  -->
<svg version="1.1" id="Layer_1" xmlns="http://www.w3.org/2000/svg" xmlns:xlink="http://www.w3.org/1999/xlink" x="0px" y="0px"
	 viewBox="0 0 240.9 34" style="enable-background:new 0 0 240.9 34;" xml:space="preserve">
<style type="text/css">
	.st0{fill:#FFFFFF;stroke:#221E20;stroke-width:0.5828;stroke-miterlimit:10;}
	.st1{font-family:'Arial-BoldMT';}
	.st2{font-size:9.3568px;}
	.st3{fill:#CE0E2D;}
	.st4{fill:#53575A;}
	.st5{fill:#FFFFFF;}
	.st6{font-size:5.7058px;}
</style>
<g>
	<path class="st0" d="M160.2,7.8h62.1c1,0,1,1,1,2v10.9c0,1,0,1-1,1h-62.1c-1,0-1,0-1-1V9.7C159.2,8.7,159.2,7.8,160.2,7.8z"/>
	<text transform="matrix(1 0 0 1 176.3237 18.2902)" class="st1 st2">WHITE</text>
</g>
<path class="st3" d="M21.7,8.4h62.5c1,0,1,1,1,2v10.9c0,1,0,1-1,1H21.7c-1,0-1,0-1-1V10.3C20.7,9.3,20.7,8.4,21.7,8.4"/>
<path class="st4" d="M91.7,8.4h61.6c1,0,1,1,1,2v10.9c0,1,0,1-1,1H91.7c-1,0-1,0-1-1V10.3C90.8,9.3,90.8,8.4,91.7,8.4"/>
<text transform="matrix(1 0 0 1 111.8154 18.8898)" class="st5 st1 st2">425C</text>
<text transform="matrix(1 0 0 1 26.3325 17.1974)" class="st5 st1 st6">GLOUCESTER RED</text>
</svg>
