<?xml version="1.0" encoding="utf-8"?>
<!-- Generator: Adobe Illustrator 25.3.0, SVG Export Plug-In . SVG Version: 6.00 Build 0)  -->
<svg version="1.1" id="Layer_1" xmlns="http://www.w3.org/2000/svg" xmlns:xlink="http://www.w3.org/1999/xlink" x="0px" y="0px"
	 viewBox="0 0 400 200" style="enable-background:new 0 0 400 200;" xml:space="preserve">
<style type="text/css">
	.st0{fill:#FF6C0E;}
	.st1{fill:#FFFFFF;}
</style>
<g>
	<rect x="122.5" y="20" class="st0" width="155" height="160"/>
	<rect x="141" y="68.6" class="st1" width="17.9" height="63.5"/>
	<path class="st1" d="M199.9,116.5H181V83.8h18.9c3.2,0,5.9,2.6,5.9,5.9v21C205.8,113.9,203.2,116.5,199.9,116.5z"/>
	<path class="st1" d="M244.7,68.3h-24.4v64.1h15.2v-18.5h9.2c11.7,0,21.2-9.5,21.2-21.2v-3.2C266,77.8,256.5,68.3,244.7,68.3z
		 M243,100h-7.1V83.1h7.1c4.7,0,8.4,3.8,8.4,8.4C251.4,96.2,247.6,100,243,100z"/>
</g>
</svg>
