<?xml version="1.0" encoding="utf-8"?>
<!-- Generator: Adobe Illustrator 25.3.0, SVG Export Plug-In . SVG Version: 6.00 Build 0)  -->
<svg version="1.1" id="Layer_1" xmlns="http://www.w3.org/2000/svg" xmlns:xlink="http://www.w3.org/1999/xlink" x="0px" y="0px"
	 viewBox="0 0 750.2 400.1" style="enable-background:new 0 0 750.2 400.1;" xml:space="preserve">
<g>
	<path d="M136.4,269.3c35.1,1.2,84.4,13.2,98.6-0.6c14.2-13.8-1.5-15,38.9-15c12.9,0,21.1-3.1,26.3-7.3l0-18.5
		c-24.8,10.3-64.5,9-77.8,19.2c-11.9,9.1-86.2,6.7-117.6,9l0,17.2C112,270.8,121.9,268.8,136.4,269.3z"/>
	<path d="M204,314c40.4,4.8,52.7-19.2,71.2-30.6c10.3-6.4,19.1-5.8,24.9-4.1l0-11.7c-10.6,0.8-25.3,3.8-33.2,8
		c-12.3,6.6-41.1,22.8-87.7,18c-40.6-4.2-49.4-15.2-74.6-0.5l0,15.6c2.7-1,5.8-2.3,9.5-3.7C138.9,295.4,163.6,309.2,204,314z"/>
	<path d="M300.2,165.5c-19.9-1.3-119.5,21-135.5,13.2c-11.5-5.6-36.6-2.5-60-2.6l0,19.5c2.3-0.2,4.8-0.5,7.5-1
		c42-7.4,25.9-3.3,43,7.7c17.2,11,66.4-9.8,102.7-17.4c21.3-4.5,33.8-2.4,42.3,0.1L300.2,165.5z"/>
	<path d="M300.2,196.5c-35.5-16-39.2-2.2-82.3,10.6c-44.9,13.3-76.1,2.7-89.5-1.5c-6-1.9-15.2-2.5-23.8-2.4l0,9.5
		c4.7-0.8,10.4-0.5,17.1,2.1c20.3,7.8,36.8,29,75.6,16.9c38.8-12.2,60.5-30.3,86.5-25.4c7.2,1.4,12.4,2.3,16.2,3L300.2,196.5z"/>
	<path d="M242.3,271.5c-2.2,3.4,37.4-5.2,57.8-10.8l0-7.2C276.4,265.3,244.8,267.6,242.3,271.5z"/>
	<path d="M130,332.2c12.3,0.6,62.3,15.6,96.6,16.2s29.4-12.6,45.9-33.5c9.1-11.6,19.8-15.3,27.7-16.3l0-10c-2.7-0.8-5.9-1-9.9-0.1
		c-15.8,3.6-37,26.4-55.5,39.5c-18.5,13.2-51.4-1.2-94.5-4.2c-21.4-1.5-30-0.9-35.5,2.6l0,27c0.5,0,1.4,0.1,2.6,0.2
		c1,0.1,2.3,0.1,3.8,0.2C122.3,346,120.7,331.7,130,332.2z"/>
	<path d="M178.6,354.7c-35.6-3-45.7-11-41.8-0.6c0.1,0.3,0.4,0.7,0.9,1.1c1.7,0.1,3.4,0.2,5.2,0.3c20.2,1,43.5,2,57.5,2.1
		C193.8,356.4,186.5,355.4,178.6,354.7z"/>
	<path d="M300.1,333.2l0-15.5c-3.4,1.9-8,5.9-13.3,11.8c-7.6,8.5-12.6,17.5-14.7,25.3c5.5-0.3,10.6-0.6,14.9-0.8
		C291.5,347.3,296.4,339.7,300.1,333.2z"/>
	<path d="M145.6,239.4c-1.8-2.1-28.7,0.4-40.9-6.1l0,10.4C128.2,244.6,147.3,241.4,145.6,239.4z"/>
	<path d="M300.1,149.9L300.1,149.9c-0.1-0.1-6.5-6.9-9.9-19.1c-23.8,2.6-62.6,6-64.1,1.3c-1.3-4,29.3-22.1,54.4-36
		c-0.1-0.2-0.2-0.5-0.3-0.7c-2.1-4.9-4.8-9.7-8-14c-18.3,11.9-43.7,27.1-58.4,30.5c-24.8,5.6-40.7,22.6-66.6,24.8
		c-13.5,1.2-25.2-1.3-33.3-4c-3.2,10.1-8.2,16-9.1,17.1l0,3.9c10.2-2,17.1-3.9,40.1,0c33.9,5.6,58.7,1.1,77.9-2.3
		c10.8-1.9,47.6-0.9,77.5,0.3l0-1.5L300.1,149.9z"/>
	<path d="M151.6,95.9c-8.8,0-18-0.7-26.8-1.4c-0.1,0.3-0.3,0.5-0.4,0.8c-3,6.7-5,13.5-6.5,19.5c12.4,2.1,20.1,1.6,30.3-0.8
		c19.2-4.5,37.3-16.9,53.1-23.7c15.8-6.8,53.1-21.5,53.1-21.5s1.3-0.3,3.4-0.7c-2-1.2-4-2.2-6.3-3.1l-4.7-1.3
		c-5,6.6-13.2,12.6-19.1,15.3c-5.9,2.6-14,4.7-14,4.7l-0.5,0.1l0-0.1c-3.8,0.9-7.6,1.5-11.4,1.5c-0.4,0-0.7,0-1.1,0
		c-2.9-0.1-5.7-0.5-8.4-1.1l0,0.1l-0.5-0.1c0,0-1.5-0.3-3.7-0.9C176.4,90.4,164.1,95.9,151.6,95.9z"/>
	<path d="M160.5,65.1c-0.2-0.2-0.5-0.4-0.7-0.6l-0.1-0.1l-0.1-0.2c-0.3-0.3-0.6-0.6-0.9-0.8l-5.6,1.6c-7.6,3-13.6,7.7-18.4,13.4
		C143.7,74.7,152.7,69.8,160.5,65.1z"/>
	<path d="M287.7,119c-0.6-2.5-1.2-5.3-2-8.2c-8.3,1.9-10.9,2.6-10.9,5.4C274.7,117.6,280.2,118.6,287.7,119z"/>
	<path d="M464.1,172.7c-6.6,0-12,0.8-16.3,2.2l0,20.2c24.4-6.8,56.2-6.9,67.9-15.8c13.5-10.3,107.2-5.9,127.6-10.2l0-19.3
		c-0.2-0.2-0.4-0.5-0.7-0.9c-7.5,4.1-18.9,9-41,8.2c-35.1-1.2-84.4-13.2-98.6,0.6C488.8,171.5,504.5,172.7,464.1,172.7z"/>
	<path d="M471,150.8c12.3-6.6,41.1-22.8,87.7-18c41.1,4.2,49.7,15.5,75.7-0.1c-0.5-1.5-0.9-3-1.2-4.7c-0.6-2.6-1.2-5.8-2-9.4
		c-2.2,0.8-4.6,1.8-7.4,2.9c-24.7,9.6-49.3-4.2-89.7-9s-52.7,19.2-71.2,30.6c-5,3.1-9.7,4.5-13.8,5c-0.5,0.7-0.9,1.2-1.2,1.5l0,8
		C456.4,156.1,465.5,153.8,471,150.8z"/>
	<path d="M573.3,247.7c13.1,6.4,44,1.4,69.9,2.9l0-19.7c-4.8-0.5-10.5-0.4-17.4,0.9c-42,7.4-25.9,3.3-43-7.7
		c-17.2-11-66.4,9.8-102.7,17.4c-14.2,3-24.5,3-32.3,2l0,16.9C479.9,257.4,559.2,240.9,573.3,247.7z"/>
	<path d="M643.3,210c-5.1,3.2-14.4,6.5-27.1,1.7c-20.3-7.8-36.8-29-75.6-16.9C501.7,206.9,480,225,454,220.2
		c-2.3-0.4-4.3-0.8-6.2-1.2l0,14.9c26.6,9.1,33.6-3.1,72.3-14.6c44.9-13.3,76.1-2.7,89.5,1.5c8.4,2.6,23.2,2.9,33.7,1.8L643.3,210z"
		/>
	<path d="M447.8,163.2l0,5.5c21.8-8.2,45.8-10.4,47.9-13.7C497.6,152,468.9,157.9,447.8,163.2z"/>
	<path d="M455.9,134.8c14.5-7.6,31.9-25.3,47.3-36.4c18.5-13.2,51.4,1.2,94.5,4.2c14.4,1,23,1.1,28.8-0.1c-0.6-1.7-1.3-3.5-2.1-5.3
		c-1.8-4.3-4.1-8.6-6.8-12.7c-2.6,5.4-4.3,9.9-9.7,9.7c-12.3-0.6-62.3-15.6-96.6-16.2c-34.2-0.6-29.4,12.6-45.9,33.5
		c-1.8,2.3-3.6,4.2-5.5,5.9c-0.9,4-1.6,7.6-2.2,10.4C457.3,130.5,456.6,132.7,455.9,134.8z"/>
	<path d="M516.2,50.6l-16.1,10.3c15.6,2.9,34,8.7,59.3,10.8c35.6,3,45.7,11,41.8,0.6c-1.4-3.6-22.6-9.6-52.7-10.2
		C530,61.7,525.4,56.7,516.2,50.6z"/>
	<path d="M637.6,196.6c2.3,3,4.1,3.3,5.7,2.3l0-15.5c-27.9-2.4-52.8,1.4-50.9,3.6C594.5,189.4,629.4,185.8,637.6,196.6z"/>
	<path d="M593.2,273c-33.9-5.6-58.7-1.1-77.9,2.3c-9.6,1.7-39.8,1.1-67.4,0.1l0,20.3c23.8-2.6,62.5-5.9,64-1.3
		c1.5,4.6-38.1,27.1-64,41.3l0,17.7c0.1,0,0.3,0.1,0.6,0.1c0.8,0.1,2.1,0.2,4.3,0.4c16.6-11.3,52.7-34.9,71.5-39.2
		c24.8-5.6,40.7-22.6,66.6-24.8c26-2.3,45.2,9,45.2,9l7.1-0.7l0-26.9C625.7,273.4,622.8,277.9,593.2,273z"/>
	<path d="M589.8,312.5c-19.2,4.5-37.3,16.9-53.1,23.7c-15.8,6.8-53.1,21.5-53.1,21.5s-2.6,0.5-6.3,1.5c4.8,1.5,9.8,3.2,15.1,4.8
		c7.2,2.2,15,4.4,23.3,6.1c20.2-16.5,44.9-39.5,70.7-39.5c19.5,0,40.7,3.3,56.7,3.5l0-17.1C614.7,309.6,605.1,308.9,589.8,312.5z"/>
	<path d="M575.1,362.8c-6.6,4.1-11.3,7-14.3,9.1c12.5-1.6,23.7-4.8,33.9-8c14.2-4.5,26.5-9.1,38-9.7c7.2-0.4,9.7-0.7,10.4-0.9l0-3.9
		C627.6,333.9,596,349.8,575.1,362.8z"/>
	<path d="M463.3,310.2c0-1.6-6.7-2.6-15.5-3l0,9.4C459.8,313.8,463.3,313.5,463.3,310.2z"/>
	<path d="M280.8,70.3c-0.4-4.4-0.4-8.7-0.1-12.7l-14.9-4.5c-0.3,4.1-0.9,9-1.9,14.9c-0.1,0.9-0.3,1.8-0.4,2.7
		c8.1,6.4,13.7,15.2,17.6,24.1c5.6,12.7,7.9,25.6,9.4,32.6c2.6,12.2,8.6,19.7,10,21.3l10.2,2c-2.3-5.2-4.1-9.9-5-13.8
		C300,112.1,283.1,96.3,280.8,70.3z"/>
	<path d="M321.5,74.9c0-1.6,0-3.2,0.1-4.8L302,64.1c0.4,2.4,0.8,4.8,1.4,7.4c4.5,19.2,16.9,37.3,23.7,53.1
		c3.4,7.8,8.6,20.9,13.1,32.1l9.1,1.8l4.7-21.4C338.7,118.6,321.5,97.2,321.5,74.9z"/>
	<path d="M353.7,86.2c3.7,6,6.5,10.4,8.4,13.4l2.8-12.9c-0.3-1.2-0.7-2.5-1-3.8L349,78.3C350.6,81.1,352.2,83.7,353.7,86.2z"/>
	<path d="M148,59.7c-0.1,2.2-0.2,4.4-0.3,6.7c1.8-0.9,3.6-1.8,5.6-2.6l-0.6,0.2l4.4-1.3c-3.5-5-3.3-10.8-3.4-13.6
		c0-0.3-0.1-0.1-0.1-0.3l-5.6,1.7C148.1,53.4,148.1,56.4,148,59.7z"/>
	<path d="M103.3,127.2c-1,8.3-0.7,15.4,0.3,21.6c1.4-1.7,7.4-9,10.1-21.2c1.5-7,4-19.9,9.4-32.6c0.7-1.6,1.4-3.1,2.1-4.6
		c2.4-15.6,5.5-25.7,6.2-34.9l-16,4.8C114.4,78.6,106.7,99.1,103.3,127.2z"/>
	<path d="M69,149.8c0,2.2,0,4.2,0,6l17.3-3.5c-7.3-18.6,3.8-47.9,7-85.3l-11.2,3.4C77.5,91.5,69.4,124.8,69,149.8z"/>
	<path d="M54.1,150.2c3-13.2,6.8-28.7,8.5-48.3c1-11.3,2.4-20,3.6-26.6l-9.8,3c-1.8,9-3.2,20.9-3.4,34.6c-0.2,8.4-1.3,13.9-3.1,18.3
		L54.1,150.2z"/>
	<path d="M497,61.7l13.3-8.5c-0.3-1.9-0.6-3.8-0.8-5.5c-1.3,0.1-2.4,0.2-3.5,0.2c-1.9,0.1-3.5,0.2-4.8,0.3c-1.1,0.1-1.6,0.1-1.9,0.2
		l0,0l-0.1,0c0,0,0,0-0.1,0l-3.6,1.1C496.1,53.4,496.5,57.5,497,61.7z"/>
	<path d="M516.5,49.2l3.2-2.1c-1.2,0.1-2.4,0.1-3.6,0.2C516.3,47.9,516.4,48.6,516.5,49.2z"/>
	<path d="M435.6,95.6c3.1,16.9,11.5,29.9,17,44.6c1.6-3.3,3.3-7.5,4.3-12.4c1.5-7,3.5-18.7,8.7-30.9c2.4-5.5,5.5-11.2,9.5-16.5
		c-0.1-6.4,0.2-15.2,0.8-24.9l-16.3,5c0,12.9-0.7,22.9-3.1,23.6c-2.1,0.6-7.4-7.2-13.9-18.5l-16.2,4.9
		C430.8,80.1,434.4,89,435.6,95.6z"/>
	<path d="M432.6,151.6c-5-15.9-13.9-31-19-44.5c-2.7-7.2-6.9-18.9-10.6-29.5l-18.8,5.7l1.9,8.4c14.3,18.8,30.9,40.7,31.2,62.8
		L432.6,151.6z"/>
	<path d="M579.9,47.4c-2.2-0.1-4.5-0.2-6.8-0.3l6.6,4.5C579.8,50.4,579.8,48.9,579.9,47.4z"/>
	<path d="M625.5,96.9c5.2,12.1,7.2,23.9,8.7,30.9c0.1,0.3,0.2,0.7,0.2,1c1.1-4.7,2-9.6,2.9-14.8c4.8-29.4-6.5-44.4-17-57.8
		l-17.9-5.4c2.7,5.6,6.7,14,9.9,25.1C618.2,82.4,622.4,89.7,625.5,96.9z"/>
	<path d="M592.8,60.6l3.9,2.7c-0.5-4.2-1.3-9.4-2.2-14.9l-0.7-0.2l-0.3,0c-0.8-0.1-1.9-0.1-3-0.2C591.4,52.6,592.1,56.9,592.8,60.6z
		"/>
	<path d="M652.6,83.8c9.5,14.5,2.5,36.8-3.5,65.7l12.3,2.3c4.9-18.7,10.1-40.9,11.2-58.8c0.6-9.9-0.1-16.6-1.9-21.5l-35.1-10.6
		C641.6,68.6,647.8,76.4,652.6,83.8z"/>
	<path d="M691.3,77.5c-3.2,16.6-10.8,35.7-14.3,63.5c-0.6,4.9-1.3,9.2-2,13.2l9.1,1.7c1.3-7.3,2.4-15.9,3-25.4
		c1.7-26.4,11.8-23.9,21.8-47.7L691.3,77.5z"/>
</g>
</svg>
