<?xml version="1.0" encoding="utf-8"?>
<!-- Generator: Adobe Illustrator 25.3.0, SVG Export Plug-In . SVG Version: 6.00 Build 0)  -->
<svg version="1.1" id="Layer_1" xmlns="http://www.w3.org/2000/svg" xmlns:xlink="http://www.w3.org/1999/xlink" x="0px" y="0px"
	 viewBox="0 0 750.2 400.1" style="enable-background:new 0 0 750.2 400.1;" xml:space="preserve">
<g>
	<path d="M147.6,193.2L147.6,193.2C147.6,193.1,147.6,193.1,147.6,193.2C147.5,193.2,147.5,193.2,147.6,193.2L147.6,193.2z"/>
	<path d="M119.2,193.1C119.1,193.1,119.1,193.1,119.2,193.1C119.1,193.2,119.1,193.2,119.2,193.1
		C119.1,193.2,119.1,193.2,119.2,193.1C119.2,193.2,119.2,193.2,119.2,193.1z"/>
	<path d="M166.6,183.7C166.5,183.7,166.5,183.7,166.6,183.7C166.5,183.7,166.5,183.7,166.6,183.7L166.6,183.7z"/>
	<rect x="147.6" y="297.4" width="0" height="0"/>
	<path d="M261.4,335.3C261.3,335.3,261.3,335.3,261.4,335.3C261.3,335.3,261.3,335.4,261.4,335.3L261.4,335.3z"/>
	<path d="M251.8,297.5C251.9,297.5,251.9,297.5,251.8,297.5C251.9,297.4,251.9,297.4,251.8,297.5
		C251.9,297.4,251.9,297.4,251.8,297.5C251.8,297.4,251.8,297.4,251.8,297.5z"/>
	<path d="M138,306.9c-3.2,0-6.3,0-9.4,0c0,9.5,0,18.9,0,28.4c3.1,0,6.1,0,9.3,0c0,6.7,0,13.3,0,19.9c1.6,0.1,3.3,0.2,5,0.3
		c1.5,0.1,3,0.2,4.6,0.2c0-19.5,0-38.9,0-58.2c-3.1,0-6.2,0-9.5,0C138,300.7,138,303.8,138,306.9z"/>
	<path d="M242.4,306.9c-3.2,0-6.2,0-9.4,0c0,6.3,0,12.6,0,19c-6.4,0-12.6,0-19,0c0,3.2,0,6.3,0,9.5c-3.2,0-6.2,0-9.4,0
		c0,3.2,0,6.2,0,9.5c-3.2,0-6.3,0-9.5,0c0,3.2,0,6.2,0,9.4c-3.2,0-6.2,0-9.6,0c0,1,0,2,0,3c6.5,0.2,12.2,0.3,16.8,0.3
		c0.7,0,1.5,0,2.3,0c0-1.1,0-2.2,0-3.2c3.1,0,6.2,0,9.3,0c0,1,0,2.1,0,3.1c5.7-0.1,12.2-0.4,19-0.6c0-0.8,0-1.6,0-2.5
		c-6.5,0-12.7,0-19,0c0-3.1,0-6.1,0-9.4c3.1,0,6.2,0,9.4,0c0-3.2,0-6.3,0-9.4c3.2,0,6.2,0,9.4,0c0,3,0,6.1,0,9.3c3.2,0,6.3,0,9.6,0
		c0,3.9,0,7.8,0,11.6c6.3-0.3,12.7-0.6,18.8-0.9c0-0.4,0-0.8,0-1.2c-3.2,0-6.2,0-9.2,0c0-6.3,0-12.6,0-18.9c3.2,0,6.3,0,9.3,0
		c0-6.3,0-12.5,0-19c-3.3,0-6.3,0-9.4,0c0-6.3,0-12.6-0.1-18.9c-3.1,0-6.2,0-9.4,0C242.4,300.6,242.4,303.7,242.4,306.9z
		 M242.5,316.4c3.1,0,6.2,0,9.4,0c0,3.1,0,6.1,0,9.3c-3.1,0-6.2,0-9.4,0C242.5,322.7,242.5,319.7,242.5,316.4z"/>
	<path d="M270.9,88.8c2.1,0,4.1,0,6.1,0c-1.8-3.2-3.8-6.3-6.1-9.2C270.9,82.7,270.9,85.7,270.9,88.8z"/>
	<path d="M195,155.3C195,155.3,195,155.2,195,155.3C195,155.2,195,155.2,195,155.3C195,155.2,195,155.3,195,155.3L195,155.3z"/>
	<path d="M300.1,149.8c0,0-0.3-0.3-0.7-0.8c0,2.1,0,4.1,0,6.3c-9.6,0-19.1,0-28.5,0c0-3.1,0-6.3,0-9.4c3.1,0,6.1,0,9.4,0
		c0-3.2,0-6.2,0-9.5c3.2,0,6.3,0,9.5,0c0-2.6,0-5.1,0-7.6c-0.1-0.4-0.2-0.7-0.3-1.1c-0.1-0.3-0.1-0.6-0.2-0.8c-6.1,0-12.3,0-18.6,0
		c0-9.6,0-19,0-28.4c-3.2,0-6.3,0-9.4,0c0,9.4,0,18.8,0,28.4c-3.2,0-6.4,0-9.5,0c0-3.1,0-6.2,0-9.5c-3.3,0-6.4,0-9.5,0
		c0-3.1,0-6.3,0-9.4c3.1,0,6.2,0,9.5,0c0-3.3,0-6.4,0-9.5c3.1,0,6.3,0,9.4,0c0-6.3,0-12.6,0-18.8c3.3,0,6.4,0,9.6,0
		c-2.8-3.6-6.2-6.8-10-9.5c-3.1,0-6.1,0-9.1,0c0,3.2,0,6.2,0,9.3c-3.2,0-6.3,0-9.4,0c0-3.6,0-7.2,0-10.8c-2.9,2.9-6.3,5.4-9.5,7.5
		c0,4.3,0,8.6,0,12.9c-3.1,0-6.2,0-9.5,0c0-2.9,0-5.6,0-8.3c-4.2,1.5-8.3,2.6-9.4,2.9c0,5,0,9.9,0,14.9c-3.1,0-6.3,0-9.4,0
		c0-3.1,0-6.2,0-9.5c-3.3,0-6.4,0-9.5,0c0-1.5,0-2.9,0-4.4c-1-0.2-1.9-0.3-2.8-0.6v0.1l-0.5-0.1c0,0-2.7-0.5-6.3-1.7
		c0,8.7,0,17.1,0,25.6c-3.2,0-6.2,0-9.4,0c0-3.2,0-6.2,0-9.4c-3.3,0-6.3,0-9.4,0c0,3.1,0,6.2,0,9.5c-3.2,0-6.4,0-9.5,0
		c0,3.1,0,6.2,0,9.5c9.6,0,18.9,0,28.4,0c0,3.2,0,6.3,0,9.4c-6.3,0-12.5,0-18.8,0c0,6.4,0,12.7,0,19c3.2,0,6.3,0,9.3,0
		c0,6.2,0,12.5,0,18.8c-3.1,0-6.2,0-9.4,0c0-3,0-6.1,0-9.4c-3.3,0-6.4,0-9.5,0c0-3.1,0-6.1,0-9.4c-9.5,0-18.9,0-28.4,0
		c0-3.3,0-6.4,0-9.5c3.1,0,6.2,0,9.5,0c0-3.3,0-6.4,0-9.5c3.1,0,6.2,0,9.5,0c0-6.5,0-12.7,0-19c3.1,0,6.3,0,9.4-0.1
		c0-3.1,0-6.3,0-9.4c-3.1,0-6.2,0-9.5,0c0,3.3,0,6.4,0,9.4c-3.1,0-6.2,0-9.5,0c0-3.2,0-6.3,0-9.3c-3.2,0-6.3,0-9.4,0
		c0,6.4,0,12.6,0,18.8c-3.1,0-6.2,0-9.4,0c0-2.4,0-4.9,0-7.3c-2,7.1-3.2,13.4-4.1,17.7c-2.8,13-9.3,20.7-10.4,21.9v5.7
		c4.8,0,9.6,0,14.4,0c0,3.1,0,6.2,0,9.4c-4.8,0-9.6,0-14.4,0v18.9c1.6,0,3.3,0,5,0c0-3.2,0-6.2,0-9.4c3.3,0,6.3,0,9.4,0
		c0,6.3,0,12.6,0,18.9c9.5,0,18.9,0,28.4,0c0-3.1,0-6.2,0-9.5c6.4,0,12.7,0,19,0c0-3.1,0-6.2,0-9.4c6.4,0,12.7,0,19,0
		c0,3.1,0,6.2,0,9.5c3.3,0,6.4,0,9.5,0c0,6.3,0,12.5,0,19c-3.2,0-6.3,0-9.5,0c0,3.3,0,6.3,0,9.4c-3.1,0-6.2,0-9.5,0
		c0,3.3,0,6.4,0,9.4c-3.2,0-6.2,0-9.4,0c0-3.2,0-6.2,0-9.4c-3.3,0-6.3,0-9.4,0c0-6.2,0-12.5,0-18.9c-3.2,0-6.4,0-9.5,0
		c0,3.1,0,6.2,0,9.3c-9.5,0-18.9,0-28.5,0c0-3.1,0-6.2,0-9.3c-3.1,0-6.1,0-9.4,0c0,3.1,0,6.2,0,9.4c-1.7,0-3.4,0-5,0v9.4
		c1.6,0,3.2,0,4.9,0c0,3.3,0,6.4,0,9.5c-1.6,0-3.3,0-4.9,0v19c1.6,0,3.3,0,4.9,0c0,3.1,0,6.3,0,9.4c-1.6,0-3.3,0-4.9,0v28.4
		c4.8,0,9.6,0,14.5,0c0,3.3,0,6.4,0,9.6c9.6,0,18.9,0,28.4,0c0,3.2,0,6.3,0,9.4c3.1,0,6.1,0,9.4,0c0-6.3,0-12.5,0-18.9
		c3.3,0,6.4,0,9.5,0c0,6.3,0,12.6,0,18.9c3.3,0,6.4,0,9.5,0c0-3.1,0-6.2,0-9.5c3.2,0,6.4,0,9.5,0c0-3.1,0-6.3,0-9.4
		c3.1,0,6.2,0,9.4,0c0,3.2,0,6.3,0,9.4c-3.1,0-6.3,0-9.4,0.1c0,3.1,0,6.2,0,9.5c-3.2,0-6.4,0-9.5,0c0,6.3,0,12.5,0,18.8
		c-3.3,0-6.4,0-9.6,0c0-3.1,0-6.2,0-9.3c-3.2,0-6.2,0-9.3,0c0,12.6,0,25.2,0,37.8c3.2,0,6.3,0,9.3,0c0-6.3,0-12.6,0-19
		c6.5,0,12.7,0,19,0c0-6.3,0-12.6,0-18.9c3.3,0,6.4,0,9.5,0c0,3.1,0,6.2,0,9.3c9.5,0,18.9,0,28.5,0c0-12.6,0-25.2,0-37.8
		c3.1,0,6.2,0,9.5,0c0-3.3,0-6.4,0-9.4c3.2,0,6.2,0,9.4,0c0,3.2,0,6.2,0,9.3c3.3,0,6.3,0,9.3,0c0-6.3,0-12.5,0-18.9
		c-3.2,0-6.2,0-9.4,0c0-6.4,0-12.7,0-18.9c3.1,0,6.3,0,9.4,0c0,3.1,0,6.2,0,9.4c6.4,0,12.6,0,18.9,0c0,3.2,0,6.2,0,9.4
		c-3,0-6.1,0-9.3,0c0,3.2,0,6.3,0,9.6c3.1,0,6.1,0,9.3,0c0,6.4,0,12.5,0,18.9c-6.2,0-12.4,0-18.9,0c0,3.3,0,6.4,0,9.5
		c3.1,0,6.2,0,9.5,0c0,3.3,0,6.4,0,9.5c3.2,0,6.2,0,9.4,0c0,3.2,0,6.2,0,9.5c3.2,0,6.3,0,9.5,0c0,12.7,0,25.3,0,38
		c7.6-0.4,13.6-0.8,17-1c1.2-0.1,2.1-0.1,2.6-0.2v-8.6c-3.4,0-6.8,0-10.2,0c0-9.4,0-18.8,0-28.2c3.4,0,6.8,0,10.2,0v-19.2
		c-0.3,0-0.5,0-0.8,0c0,3.2,0,6.3,0,9.5c-6.4,0-12.6,0-18.9,0c0-6.2,0-12.4,0-18.8c6.2,0,12.4,0,18.8,0c0-3.2,0-6.2,0-9.4
		c0.3,0,0.6,0,0.9,0v-9.6c-3.4,0-6.9,0-10.3,0c0-3.1,0-6.3,0-9.4c3.1,0,6.1,0,9.4,0c0-6.3,0-12.6,0-18.9c0.3,0,0.6,0,1,0v-19
		c-0.3,0-0.6,0-0.9,0c0,3.1,0,6.2,0,9.4c-3.3,0-6.4,0-9.5,0c0-3.1,0-6.2,0-9.5c-3.3,0-6.4,0-9.5,0c0-3.1,0-6.1,0-9.4
		c6.3,0,12.5,0,18.9,0c0-3.2,0-6.3,0-9.6c0.3,0,0.7,0,1,0v-9.5c-3.4,0-6.9,0-10.3,0c0,3.2,0,6.2,0,9.4c-3.2,0-6.3,0-9.5,0
		c0-3.1,0-6.1,0-9.2c-3.2,0-6.2,0-9.5,0c0,3,0,6.1,0,9.4c-9.6,0-19,0-28.5,0c0,3.1,0,6.2,0,9.4c-3.2,0-6.4,0-9.5,0
		c0-3.1,0-6.3,0-9.4c3.1,0,6.3,0,9.4,0c0-6.2,0-12.5,0-18.9c15.8,0,31.5,0,47.4,0c0-3.2,0-6.3,0-9.6c3.3,0,6.4,0,9.5,0
		c0-3.1,0-6.2,0-9.4c0.3,0,0.7,0,1,0v-14.8L300.1,149.8L300.1,149.8z M138.1,117.3c0,3.3,0,6.4,0,9.4c-3.1,0-6.3,0-9.4,0
		c0-3.1,0-6.3,0-9.4C131.8,117.3,134.9,117.3,138.1,117.3z M119.2,126.8c3.1,0,6.2,0,9.3,0c0,3.1,0,6.3,0,9.4c-3.1,0-6.1,0-9.3,0
		C119.2,133.1,119.2,130.1,119.2,126.8z M138,174.2c-6.3,0-12.5,0-18.8,0c0-3.1,0-6.3,0-9.4c3.1,0,6.2,0,9.4,0c0-3.2,0-6.3,0-9.4
		c3.2,0,6.2,0,9.4,0C138,161.5,138,167.8,138,174.2z M157,174.1c-3.1,0-6.2,0-9.4,0c0-6.2,0-12.4,0-18.8c3.1,0,6.2,0,9.4,0
		C157,161.5,157,167.7,157,174.1z M261.4,136.4c3.1,0,6.2,0,9.4,0c0,3.1,0,6.2,0,9.3c-3.1,0-6.3,0-9.4,0
		C261.4,142.7,261.4,139.6,261.4,136.4z M251.8,88.9c0,3.2,0,6.3,0,9.4c-3.1,0-6.2,0-9.5,0c0,3.3,0,6.4,0,9.5c-3.1,0-6.2,0-9.4,0
		c0-6.4,0-12.7,0-18.9C239.2,88.9,245.4,88.9,251.8,88.9z M195,126.8c0,3.1,0,6.3,0,9.4c-3.1,0-6.3,0-9.4,0c0-3.1,0-6.3,0-9.4
		C188.7,126.8,191.8,126.8,195,126.8z M176,145.7c0-3.1,0-6.2,0-9.4c3.3,0,6.4,0,9.4,0c0,3.1,0,6.2,0,9.4
		C182.3,145.7,179.2,145.7,176,145.7z M185.5,174.2c0-6.2,0-12.5,0-19c3.2,0,6.3,0,9.4,0c0-6.3,0-12.6,0-18.9c3.1,0,6.2,0,9.5,0
		c0,3.2,0,6.3,0,9.5c3.2,0,6.3,0,9.4,0c0,3.1,0,6.2,0,9.5c-6.4,0-12.6,0-18.9,0c0,3.1,0,6.2,0,9.4c12.6,0,25.2,0,37.8,0
		c0,3.2,0,6.2,0,9.4c-6.2,0-12.4,0-18.9,0c0,6.5,0,12.7,0,19c-3.1,0-6.2,0-9.5,0c0-3.2,0-6.3,0-9.5c-3.2,0-6.3,0-9.4,0
		c0-3.1,0-6.2,0-9.5C191.7,174.2,188.6,174.2,185.5,174.2z M232.9,231.1c-3.1,0-6.2,0-9.5,0c0-3.3,0-6.3,0-9.5c-6.4,0-12.6,0-18.8,0
		c0-6.3,0-12.6,0-18.9c3.2,0,6.3,0,9.3,0c0,3.1,0,6.2,0,9.5c6.5,0,12.7,0,19,0C232.9,218.5,232.9,224.8,232.9,231.1z M232.9,202.6
		c-6.3,0-12.6,0-18.9,0c0-3.1,0-6.3,0-9.4c3.1,0,6.1,0,9.4,0c0-3.2,0-6.2,0-9.4c3.2,0,6.3,0,9.5,0
		C232.9,190.1,232.9,196.4,232.9,202.6z M194.9,212.1c0,3.1,0,6.2,0,9.3c-3,0-6.1,0-9.3,0c0-3.1,0-6.2,0-9.3
		C188.6,212.1,191.7,212.1,194.9,212.1z M185.5,240.6c0,3.3,0,6.4,0,9.4c-3.1,0-6.3,0-9.4,0c0-3.1,0-6.3,0-9.4
		C179.2,240.6,182.3,240.6,185.5,240.6z M176,250.1c0,3.1,0,6.1,0,9.3c-3.1,0-6.2,0-9.4,0c0-3,0-6.1,0-9.3
		C169.8,250.1,172.9,250.1,176,250.1z M138.1,259.5c-3.1,0-6.1,0-9.4,0c0,3.2,0,6.2,0,9.4c-6.4,0-12.6,0-19,0c0-6.3,0-12.6,0-18.8
		c6.3,0,12.5,0,18.8,0c0-3.3,0-6.4,0-9.5c-6.4,0-12.6,0-18.8,0c0-6.3,0-12.6,0-18.9c3.1,0,6.2,0,9.4,0c0-3.2,0-6.3,0-9.4
		c6.4,0,12.6,0,19,0C138.1,228,138.1,243.8,138.1,259.5z M156.9,268.9c-6.2,0-12.4,0-18.8,0c0-3.1,0-6.2,0-9.3c6.2,0,12.5,0,18.8,0
		C156.9,262.7,156.9,265.7,156.9,268.9z M147.7,231.1c0-6.3,0-12.5,0-18.9c3.1,0,6.2,0,9.3,0c0,6.3,0,12.6,0,18.9
		C154,231.1,150.9,231.1,147.7,231.1z M157.1,240.5c0-3.2,0-6.3,0-9.4c6.3,0,12.6,0,18.9,0c0,3.3,0,6.4,0,9.4
		C169.8,240.5,163.5,240.5,157.1,240.5z M166.6,278.5c0-3.1,0-6.1,0-9.3c6.3,0,12.5,0,18.9,0c0,3.1,0,6.2,0,9.3
		C179.2,278.5,172.9,278.5,166.6,278.5z M185.5,259.6c0-3.3,0-6.4,0-9.5c3.1,0,6.2,0,9.5,0c0-6.5,0-12.7,0-18.9c6.4,0,12.6,0,18.9,0
		c0,6.4,0,12.6,0,18.8c-3.1,0-6.2,0-9.5,0c0,6.5,0,12.7,0,19c-3.1,0-6.1,0-9.4,0c0-3.1,0-6.2,0-9.4
		C191.8,259.6,188.8,259.6,185.5,259.6z M213.8,306.9c-6.3,0-12.5,0-18.8,0c0-6.3,0-12.6,0-18.9c3.1,0,6.2,0,9.4,0
		c0,3.1,0,6.2,0,9.4c3.2,0,6.2,0,9.4,0C213.8,300.6,213.8,303.6,213.8,306.9z M232.9,259.6c-3.2,0-6.3,0-9.5,0c0,6.4,0,12.6,0,18.9
		c-6.2,0-12.5,0-18.9,0c0-3.2,0-6.3,0-9.4c3.1,0,6.2,0,9.5,0c0-6.5,0-12.7,0-19c3.1,0,6.2,0,9.5,0c0-3.3,0-6.4,0-9.5
		c3.3,0,6.3,0,9.4,0C232.9,246.9,232.9,253.1,232.9,259.6z M289.8,278.4c-3.1,0-6.2,0-9.4,0c0-3,0-6.1,0-9.3c3.1,0,6.2,0,9.4,0
		C289.8,272.1,289.8,275.2,289.8,278.4z M280.4,259.5c0-3.1,0-6.2,0-9.3c3,0,6.1,0,9.3,0c0,3.1,0,6.2,0,9.3
		C286.7,259.5,283.6,259.5,280.4,259.5z M242.4,221.6c3.1,0,6.2,0,9.4,0c0-3.2,0-6.3,0-9.4c3.2,0,6.2,0,9.4,0c0,3.1,0,6.1,0,9.4
		c6.5,0,12.7,0,19,0c0,3.1,0,6.2,0,9.5c3.3,0,6.4,0,9.5,0c0,3.1,0,6.2,0,9.4c-12.7,0-25.3,0-37.9,0c0-3.1,0-6.2,0-9.5
		c-3.3,0-6.4,0-9.5,0C242.4,228,242.4,224.9,242.4,221.6z M242.4,231.1c0,3.1,0,6.3,0,9.4c-3.1,0-6.3,0-9.4,0c0-3.1,0-6.3,0-9.4
		C236.1,231.1,239.2,231.1,242.4,231.1z M270.8,174.1c-9.5,0-18.8,0-28.3,0c0-3,0-6.1,0-9.3c3,0,6.1,0,9.4,0c0-6.5,0-12.7,0-19
		c-3.1,0-6.1,0-9.4,0c0,3.1,0,6.2,0,9.4c-6.4,0-12.6,0-19.1,0c0-3.1,0-6.2,0-9.3c-3.1,0-6.3,0-9.4-0.1c0-6.3,0-12.6,0-19
		c-6.5,0-12.7,0-19,0c0-9.4,0-18.9,0-28.4c3.3,0,6.4,0,9.4,0c0,6.3,0,12.5,0,18.8c3.3,0,6.4,0,9.5,0c0-6.4,0-12.6,0-18.8
		c3.1,0,6.2,0,9.5,0c0,9.6,0,19,0,28.3c3.2,0,6.2,0,9.4,0c0-3.2,0-6.2,0-9.4c3.3,0,6.3,0,9.4,0c0,3.1,0,6.2,0,9.5c3.3,0,6.4,0,9.5,0
		c0,6.3,0,12.6,0,18.9c3.1,0,6.3,0,9.4,0c0,3.1,0,6.2,0,9.5c3.3,0,6.4,0,9.5,0C270.8,161.5,270.8,167.7,270.8,174.1z"/>
	<path d="M300.2,183.6v-9.4c-0.3,0-0.6,0-0.9,0c0,3.1,0,6.2,0,9.4C299.6,183.6,299.9,183.6,300.2,183.6z"/>
	<rect x="299.3" y="174.2" width="0" height="0"/>
	<path d="M242.4,202.7C242.4,202.7,242.4,202.6,242.4,202.7C242.4,202.6,242.4,202.6,242.4,202.7
		C242.4,202.6,242.4,202.7,242.4,202.7L242.4,202.7z"/>
	<path d="M261.4,98.4L261.4,98.4C261.4,98.3,261.3,98.3,261.4,98.4C261.3,98.4,261.3,98.4,261.4,98.4
		C261.3,98.4,261.4,98.4,261.4,98.4z"/>
	<path d="M251.9,145.7L251.9,145.7C251.8,145.8,251.8,145.8,251.9,145.7C251.9,145.8,251.9,145.8,251.9,145.7
		C251.9,145.8,251.9,145.8,251.9,145.7z"/>
	<path d="M109.5,287.9c-1.6,0-3.2,0-4.8,0v9.5c1.6,0,3.2,0,4.8,0C109.5,294.2,109.5,291.2,109.5,287.9z"/>
	<path d="M109.7,325.8L109.7,325.8L109.7,325.8L109.7,325.8z"/>
	<path d="M104.7,316.5v9.3c1.7,0,3.3,0,4.9,0c0-3.1,0-6.2,0-9.3C108,316.5,106.4,316.5,104.7,316.5z"/>
	<path d="M119.2,354.2c0.5,0,1,0.1,1.5,0.1c2.6,0,5.2,0,7.9,0c0-6.4,0-12.6,0-18.9c-3.1,0-6.3,0-9.4,0
		C119.2,341.7,119.2,347.9,119.2,354.2z"/>
	<path d="M128.6,335.4L128.6,335.4L128.6,335.4C128.6,335.3,128.6,335.3,128.6,335.4L128.6,335.4z"/>
	<path d="M280.4,98.5c0,3.2,0,6.2,0,9.3c1.5,0,2.9,0,4.4,0c-0.9-3-2-6.1-3.2-9.3C281.2,98.5,280.8,98.5,280.4,98.5z"/>
	<path d="M128.6,306.9L128.6,306.9L128.6,306.9L128.6,306.9L128.6,306.9L128.6,306.9L128.6,306.9z"/>
	<path d="M119.3,297.6c0,3.2,0,6.2,0,9.3c3.2,0,6.3,0,9.3,0c0-3.1,0-6.2,0-9.3C125.3,297.6,122.3,297.6,119.3,297.6z"/>
	<path d="M119.1,335.3C119.1,335.4,119.1,335.4,119.1,335.3C119.1,335.4,119.1,335.4,119.1,335.3
		C119.1,335.4,119.1,335.4,119.1,335.3C119.1,335.4,119.1,335.4,119.1,335.3C119.2,335.4,119.2,335.4,119.1,335.3L119.1,335.3z"/>
	<path d="M109.7,325.8c0,3.2,0,6.3,0,9.5c3.3,0,6.3,0,9.4,0c0-3.1,0-6.2,0-9.5C115.9,325.8,112.8,325.8,109.7,325.8z"/>
	<path d="M109.7,325.8L109.7,325.8L109.7,325.8L109.7,325.8z"/>
	<path d="M261.4,335.3C261.4,335.3,261.3,335.4,261.4,335.3C261.3,335.4,261.3,335.4,261.4,335.3
		C261.4,335.4,261.4,335.3,261.4,335.3z"/>
	<path d="M270.7,344.7c0-3.2,0-6.2,0-9.3c-3.2,0-6.3,0-9.3,0c0,3.1,0,6.2,0,9.3C264.6,344.7,267.7,344.7,270.7,344.7z"/>
	<path d="M166.6,344.8C166.5,344.8,166.5,344.8,166.6,344.8C166.5,344.8,166.5,344.8,166.6,344.8L166.6,344.8z"/>
	<path d="M185.5,325.9L185.5,325.9L185.5,325.9L185.5,325.9z"/>
	<path d="M185.5,288L185.5,288C185.5,287.9,185.5,287.9,185.5,288L185.5,288L185.5,288z"/>
	<rect x="176" y="297.4" width="0" height="0"/>
	<path d="M194.8,335.2c0-3.2,0-6.2,0-9.3c-3.2,0-6.3,0-9.3,0c0,3.1,0,6.2,0,9.3C188.8,335.2,191.8,335.2,194.8,335.2z"/>
	<path d="M185.5,325.9L185.5,325.9L185.5,325.9L185.5,325.9z"/>
	<path d="M175.9,354.2c0-3.2,0-6.2,0-9.3c-3.2,0-6.3,0-9.3,0c0,3.1,0,6.2,0,9.3C169.8,354.2,172.9,354.2,175.9,354.2z"/>
	<path d="M166.6,344.8C166.6,344.8,166.5,344.9,166.6,344.8C166.5,344.9,166.5,344.9,166.6,344.8L166.6,344.8z"/>
	<path d="M299.4,335.3c0.2,0,0.4,0,0.7,0V326c-0.2,0-0.4,0-0.7,0C299.4,329.2,299.4,332.2,299.4,335.3z"/>
	<path d="M166.6,183.7C166.6,183.7,166.5,183.7,166.6,183.7C166.5,183.7,166.5,183.7,166.6,183.7L166.6,183.7z"/>
	<path d="M175.9,202.5c0-6.3,0-12.5,0-18.8c-3.2,0-6.3,0-9.3,0c0,6.3,0,12.5,0,18.8C169.8,202.5,172.8,202.5,175.9,202.5z"/>
	<path d="M157,107.8C157,107.8,157,107.9,157,107.8C157,107.9,157.1,107.9,157,107.8C157.1,107.9,157.1,107.8,157,107.8
		C157.1,107.8,157,107.8,157,107.8z"/>
	<path d="M157.1,98.3C157.1,98.3,157,98.3,157.1,98.3C157,98.4,157,98.4,157.1,98.3C157,98.4,157.1,98.4,157.1,98.3
		C157.1,98.4,157.1,98.4,157.1,98.3z"/>
	<path d="M166.6,88.9c3.1,0,6.1,0,9.4,0c0-3.8,0-7.5,0-11.2c-4.6-2.9-10.4-7.8-15.1-12.3c-0.4-0.3-0.7-0.6-1.1-0.9l-0.1-0.1
		l-0.1-0.2c-0.3-0.3-0.6-0.6-0.9-0.8l-5.6,1.6c-3.4,1.3-6.4,3-9.2,5c4.4,0,8.7,0,13.1,0c0,3.3,0,6.4,0,9.5c-6.3,0-12.5,0-18.8,0
		c0,3.3,0,6.4,0,9.5c6.4,0,12.6,0,18.8,0c0,3.1,0,6.3,0,9.4c3.1,0,6.3,0,9.4,0C166.5,95.2,166.5,92.1,166.6,88.9z M157.1,79.4
		c3.1,0,6.2,0,9.4,0c0,3.2,0,6.3,0,9.4c-3.1,0-6.3,0-9.4,0C157.1,85.7,157.1,82.6,157.1,79.4z"/>
	<path d="M166.6,98.4L166.6,98.4C166.5,98.3,166.5,98.3,166.6,98.4C166.5,98.4,166.5,98.4,166.6,98.4
		C166.5,98.4,166.5,98.4,166.6,98.4z"/>
	<path d="M223.4,145.7L223.4,145.7C223.4,145.7,223.4,145.8,223.4,145.7L223.4,145.7C223.4,145.8,223.4,145.8,223.4,145.7
		C223.4,145.8,223.4,145.8,223.4,145.7C223.4,145.8,223.4,145.8,223.4,145.7z"/>
	<path d="M232.8,136.4c-3.2,0-6.2,0-9.3,0c0,3.2,0,6.3,0,9.3c3.1,0,6.2,0,9.3,0C232.8,142.5,232.8,139.4,232.8,136.4z"/>
	<path d="M621.8,91.6c0,5.4,0,10.7,0,16.2c2.2,0,4.4,0,6.5,0c-1-3.4-2.3-6.9-3.8-10.5C623.7,95.4,622.8,93.5,621.8,91.6z"/>
	<path d="M631.4,145.7c0-3.2,0-6.2,0-9.4c1.4,0,2.8,0,4.2,0c-1-2.5-1.8-5.2-2.5-8.3c-0.5-2.4-1.1-5.5-1.9-8.8c0,2.5,0,5,0,7.5
		c-6.2,0-12.4,0-18.8,0c0-6.2,0-12.4,0-18.8c-3.2,0-6.2,0-9.4,0c0-3.2,0-6.3,0-9.6c-3.3,0-6.4,0-9.5,0c0-6.3,0-12.6,0-18.9
		c3.2,0,6.3,0,9.5,0c0,3.1,0,6.1,0,9.3c5.8,0,11.5,0,17.3,0c-2.2-3.9-4.8-7.7-7.9-11.2c0,0.6,0,1.2,0,1.8c-3.2,0-6.3,0-9.3,0
		c0-0.6-0.1-1.2-0.1-1.8c0-2.9,0-5.9,0-8.8c-1.9-1.5-4-2.9-6.2-4.2l0,0l-6-4.1c-5.5,0-10.9,0-16.2,0c0,6.2,0,12.5,0,19
		c-3.2,0-6.4,0-9.5,0c0,3.1,0,6.2,0,9.5c-3.3,0-6.3,0-9.6,0c0,3.2,0,6.3,0,9.5c-3.2,0-6.3,0-9.4,0c0,3.1,0,6.1,0,9.4
		c3.1,0,6.2,0,9.4,0c0,3.3,0,6.4,0,9.5c-3.1,0-6.2,0-9.5,0c0,3.3,0,6.4,0,9.5c-3.1,0-6.1,0-9.4,0c0-6.3,0-12.5,0-18.9
		c-3.2,0-6.3,0-9.6,0c0-6.4,0-12.7,0-19c-3.1,0-6.2,0-9.4,0c0-3.2,0-6.4,0-9.5c3.1,0,6.3,0,9.4-0.1c0-6.3,0-12.6,0-18.9
		c-3.1,0-6.1,0-9.3,0c0-3.2,0-6.2,0-9.5c3.1,0,6.2,0,9.3,0c0-1.4,0-2.7,0-4c-1.8,0.1-3.6,0.1-5.4,0.2L508,55.8c0,1.6,0,3.1,0,4.7
		c-2.5,0-4.9,0-7.3,0l-2.2,1.4c0,2.7,0,5.4,0,8c-3.2,0-6.2,0-9.4,0c0-0.6,0-1.3,0-1.9c-3.6,2.6-6.7,5.5-9.5,8.5c0,1,0,1.9,0,2.9
		c3.2,0,6.3,0,9.5,0c0,3.2,0,6.2,0,9.4c3.2,0,6.2,0,9.5,0c0,6.5,0,12.7,0,19c3.1,0,6.2,0,9.4,0c0-3.1,0-6.2,0-9.4c3.2,0,6.3,0,9.5,0
		c0,6.3,0,12.4,0,18.8c3.2,0,6.2,0,9.4,0c0,3.2,0,6.3,0,9.5c-3.1,0-6.1,0-9.2,0c0,3.2,0,6.2,0,9.5c3,0,6.1,0,9.4,0
		c0,9.6,0,19,0,28.5c3.1,0,6.2,0,9.4,0c0,3.2,0,6.4,0,9.5c-3.1,0-6.3,0-9.4,0c0-3.1,0-6.3,0-9.4c-6.2,0-12.5,0-18.9,0
		c0-15.8,0-31.5,0-47.4c-3.2,0-6.3,0-9.6,0c0-3.3,0-6.4,0-9.5c-3.1,0-6.2,0-9.4,0c0-3.2,0-6.2,0-9.4c-3.2,0-6.2,0-9.4,0
		c0-3.2,0-6.2,0-9.5c-3.1,0-6.1,0-9.1,0c-1.6,2.8-3,5.6-4.2,8.4c-0.2,0.4-0.3,0.8-0.5,1.1c1.4,0,2.8,0,4.1,0c0,3.1,0,6.1,0,9.3
		c3.2,0,6.3,0,9.5,0c0,9.6,0,19.1,0,28.5c-3.1,0-6.3,0-9.4,0c0-3.1,0-6.1,0-9.4c-3.2,0-6.2,0-9.5,0c0-3.2,0-6.3,0-9.5
		c-0.2,0-0.4,0-0.6,0c-1,4.1-1.7,7.8-2.3,10.7c-1.7,8-4.9,14-7.3,17.7c0.2,0,0.4,0,0.7,0c0,3.2,0,6.4,0,9.5c-1.1,0-2.3,0-3.4,0v9.5
		c1.2,0,2.3,0,3.5,0c0-3.3,0-6.4,0-9.5c6.3,0,12.6,0,18.9,0c0-3.1,0-6.3,0-9.4c3.1,0,6.2,0,9.5,0c0-3.3,0-6.4,0-9.5
		c6.2,0,12.5,0,18.8,0c0,9.5,0,18.8,0,28.3c-3,0-6.1,0-9.3,0c0-3,0-6.1,0-9.4c-6.5,0-12.7,0-19,0c0,3.1,0,6.1,0,9.4
		c3.1,0,6.2,0,9.4,0c0,6.4,0,12.6,0,19.1c-3.1,0-6.2,0-9.3,0c0,3.1,0,6.3-0.1,9.4c-6.3,0-12.6,0-19,0c0,6.5,0,12.7,0,19
		c-1.1,0-2.3,0-3.4,0v9.5c1.1,0,2.3,0,3.4,0c0,6.3,0,12.5,0,18.8c6.4,0,12.7,0,19,0c0-3.2,0-6.3,0-9.3c6.2,0,12.5,0,18.8,0
		c0,3.1,0,6.2,0,9.4c-3,0-6.1,0-9.4,0c0,3.3,0,6.4,0,9.5c-3.1,0-6.1,0-9.4,0c0,9.5,0,18.9,0,28.4c-3.3,0-6.4,0-9.5,0
		c0-3.1,0-6.2,0-9.5c-3.3,0-6.4,0-9.5,0c0-3.1,0-6.2,0-9.5c-1.2,0-2.3,0-3.5,0v9.5c1.1,0,2.3,0,3.4,0c0,3.1,0,6.3,0,9.4
		c-1.1,0-2.3,0-3.4,0v56.9c1.1,0,2.3,0,3.4,0c0-6.2,0-12.5,0-18.9c3.2,0,6.3,0,9.4,0c0-3.2,0-6.2,0-9.4c3.2,0,6.3,0,9.6,0
		c0,6.3,0,12.5,0,18.8c3.1,0,6.1,0,9.4,0c0,3.2,0,6.2,0,9.5c3.3,0,6.4,0,9.5,0c0-3.1,0-6.2,0-9.5c3.2,0,6.4,0,9.5,0
		c0-3.1,0-6.1,0-9.4c-6.3,0-12.5,0-18.8,0c0-9.5,0-18.9,0-28.5c3.1,0,6.2,0,9.4,0c0,6.3,0,12.6,0,18.8c6.5,0,12.7,0,18.9,0
		c0-3.2,0-6.2,0-9.4c-3.2,0-6.2,0-9.4,0c0-3.3,0-6.3,0-9.4c6.3,0,12.6,0,18.9,0c0-9.5,0-18.9,0-28.4c-3.1,0-6.2,0-9.5,0
		c0-6.4,0-12.7,0-19c-3.1,0-6.2,0-9.4,0c0-6.4,0-12.7,0-19c3.1,0,6.2,0,9.5,0c0-3.3,0-6.4,0-9.5c6.3,0,12.5,0,19,0
		c0,3.2,0,6.3,0,9.5c3.3,0,6.3,0,9.4,0c0,3.1,0,6.2,0,9.5c3.3,0,6.4,0,9.4,0c0,3.2,0,6.2,0,9.4c-3.2,0-6.2,0-9.4,0
		c0,3.3,0,6.3,0,9.4c-6.2,0-12.5,0-18.9,0c0,3.2,0,6.4,0,9.5c3.1,0,6.2,0,9.3,0c0,9.5,0,18.9,0,28.5c-3.1,0-6.2,0-9.3,0
		c0,3.1,0,6.1,0,9.4c3.1,0,6.2,0,9.4,0c0,3.3,0,6.4,0,9.5c-3.1,0-6.2,0-9.3,0c0,9.6,0,19,0,28.5c3.2,0,6.3,0,9.3,0
		c0,3.1,0,6.1,0,9.3c-6.3,0-12.5,0-18.9,0c0-6.2,0-12.4,0-18.8c-3.3,0-6.4,0-9.5,0c0,3.1,0,6.2,0,9.5c-3.2,0-6.4,0-9.5,0
		c0,3.1,0,6.3,0,9.4c-3.1,0-6.2,0-9.5,0c0,3.3,0,6.4,0,9.5c-3.1,0-6.2,0-9.4,0c0,0.9,0,1.8,0,2.7c3,0.8,6.2,1.8,9.5,2.9
		c0-1.9,0-3.7,0-5.5c3.1,0,6.3,0,9.4,0c0,2.9,0,5.7,0,8.6c0.9,0.3,1.8,0.6,2.7,0.9c2.2,0,4.4,0,6.8,0c0,0.7,0,1.4,0,2
		c11.3,3.3,23.9,6.2,37.8,7c0-3,0-6,0-9c-9.5,0-18.9,0-28.2,0c0-3.3,0-6.3,0-9.5c9.5,0,18.8,0,28.3,0c0-3.2,0-6.3,0-9.5
		c3.3,0,6.3,0,9.4,0c0-6.2,0-12.5,0-18.8c-3.1,0-6.2,0-9.4,0c0,3,0,6.1,0,9.3c-3.3,0-6.4,0-9.5,0c0-9.5,0-18.9,0-28.4
		c3.1,0,6.1,0,9.4,0c0-3.2,0-6.2,0-9.5c3.3,0,6.4,0,9.5,0c0,6.3,0,12.6,0,19c3.3,0,6.4,0,9.5,0c0,9.5,0,18.9,0,28.4
		c6.3,0,12.6,0,18.9,0c0-3.1,0-6.3,0-9.4c3.1,0,6.2,0,9.5,0c0-3.3,0-6.4,0-9.5c3.1,0,6.3,0,9.4,0c0-6.3,0-12.6,0-19
		c3.3,0,6.4,0,9.5,0c0-6.3,0-12.5,0-19c3.3,0,6.4,0,9.6,0c0-9.6,0-18.9,0-28.4c3.2,0,6.3,0,9.4,0c0-3.1,0-6.1,0-9.4
		c-6.3,0-12.5,0-18.9,0c0-3.3,0-6.4,0-9.5c6.3,0,12.6,0,18.9,0c0-3.3,0-6.4,0-9.5c-3.1,0-6.2,0-9.5,0c0-3.2,0-6.4,0-9.5
		c-3.1,0-6.3,0-9.4,0c0-3.1,0-6.2,0-9.4c3.2,0,6.3,0,9.4,0c0,3.1,0,6.3,0.1,9.4c3.1,0,6.2,0,9.5,0c0,3.2,0,6.4,0,9.5
		c6.3,0,12.5,0,18.8,0c0,3.3,0,6.4,0,9.6c-3.1,0-6.2,0-9.3,0c0,3.2,0,6.2,0,9.3c3.9,0,7.9,0,11.8,0v-28.3c-3.9,0-7.9,0-11.9,0
		c0-3.3,0-6.4,0-9.5c3.1,0,6.2,0,9.3,0c0-9.5,0-18.9,0-28.5c-12.6,0-25.2,0-37.8,0c0-3.1,0-6.2,0-9.5c-3.3,0-6.4,0-9.4,0
		c0-3.2,0-6.2,0-9.4c3.2,0,6.2,0,9.3,0c0-3.3,0-6.3,0-9.3c-6.3,0-12.5,0-18.9,0c0,3.2,0,6.2,0,9.4c-6.4,0-12.7,0-18.9,0
		c0-3.1,0-6.3,0-9.4c3.1,0,6.2,0,9.4,0c0-6.4,0-12.6,0-18.9c3.2,0,6.2,0,9.4,0c0,3,0,6.1,0,9.3c3.2,0,6.3,0,9.6,0c0-3.1,0-6.1,0-9.3
		c6.4,0,12.5,0,18.9,0c0,6.2,0,12.4,0,18.9c3.3,0,6.4,0,9.5,0c0-3.1,0-6.2,0-9.5C625.2,145.7,628.2,145.7,631.4,145.7z M508.2,79.4
		c0-3.1,0-6.2,0-9.3c3,0,6.1,0,9.3,0c0,3.1,0,6.2,0,9.3C514.5,79.4,511.4,79.4,508.2,79.4z M460.8,145.7c0-3.1,0-6.2,0-9.4
		c3.1,0,6.2,0,9.3,0c0,3.1,0,6.3,0,9.4C467.1,145.7,464,145.7,460.8,145.7z M460.7,287.8c-3.1,0-6.2,0-9.4,0c0-3.1,0-6.2,0-9.3
		c3.1,0,6.3,0,9.4,0C460.7,281.6,460.7,284.6,460.7,287.8z M498.5,354.3c-3.1,0-6.2,0-9.3,0c0-3.1,0-6.3,0-9.4c3.1,0,6.1,0,9.3,0
		C498.5,348,498.5,351.1,498.5,354.3z M612.4,202.7c3.1,0,6.2,0,9.4,0c0-3.2,0-6.2,0-9.4c3.2,0,6.3,0,9.5,0c0,6.3,0,12.5,0,18.8
		c-6.3,0-12.6,0-18.9,0C612.4,209,612.4,205.9,612.4,202.7z M536.6,145.8c3.1,0,6.1,0,9.4,0c0-6.5,0-12.7,0-19c3.1,0,6.2,0,9.5,0
		c0-3.3,0-6.4,0-9.5c3.1,0,6.2,0,9.4,0c0,12.7,0,25.3,0,37.9c-3.1,0-6.2,0-9.5,0c0,3.3,0,6.4,0,9.5c-3.1,0-6.2,0-9.4,0
		c0-3.1,0-6.2,0-9.4c-3.2,0-6.3,0-9.4,0C536.6,152,536.6,149,536.6,145.8z M565,174.2c-3.1,0-6.3,0-9.4,0c0-3.1,0-6.3,0-9.4
		c3.1,0,6.3,0,9.4,0C565,167.9,565,171,565,174.2z M583.8,231.1c0,3.1,0,6.2,0,9.4c-3,0-6.1,0-9.3,0c0-3.1,0-6.2,0-9.4
		C577.6,231.1,580.6,231.1,583.8,231.1z M555.5,231.1c3.3,0,6.4,0,9.4,0c0,6.2,0,12.5,0,18.9c-3.2,0-6.3,0-9.4,0
		C555.5,243.7,555.5,237.5,555.5,231.1z M451.3,221.6c0-3.1,0-6.3,0-9.4c3.1,0,6.3,0,9.4,0c0,3.1,0,6.3,0,9.4
		C457.6,221.6,454.4,221.6,451.3,221.6z M460.7,231c0-3.3,0-6.4,0-9.4c3.1,0,6.2,0,9.4,0c0,3.2,0,6.3,0,9.4
		C467.1,231,463.9,231,460.7,231z M479.7,250.1c6.2,0,12.5,0,18.8,0c0,3.1,0,6.2,0,9.4c-6.2,0-12.4,0-18.8,0
		C479.7,256.3,479.7,253.2,479.7,250.1z M489.2,287.9c0-3.1,0-6.2,0-9.4c-3.2,0-6.3,0-9.4,0c0-3.2,0-6.2,0-9.4c6.2,0,12.4,0,18.8,0
		c0,6.3,0,12.5,0,18.8C495.5,287.9,492.3,287.9,489.2,287.9z M517.6,202.7c-3.2,0-6.3,0-9.5,0c0,3.2,0,6.3,0,9.4c-3.1,0-6.2,0-9.5,0
		c0,3.3,0,6.4,0,9.5c-6.2,0-12.5,0-19,0c0-3.2,0-6.3,0-9.4c-6.3,0-12.6,0-18.9,0c0-3.1,0-6.2,0-9.5c3.2,0,6.3,0,9.5,0
		c0-3.2,0-6.3,0-9.4c3.1,0,6.2,0,9.5,0c0,6.4,0,12.6,0,18.9c3.1,0,6.2,0,9.4,0c0-12.6,0-25.2,0-37.8c3.2,0,6.2,0,9.4,0
		c0,6.2,0,12.4,0,18.9c6.5,0,12.7,0,19,0C517.6,196.3,517.6,199.4,517.6,202.7z M508.2,183.7c0-3.2,0-6.3,0-9.5c6.3,0,12.6,0,18.8,0
		c0,6.3,0,12.6,0,18.9c-3.1,0-6.3,0-9.4,0c0-3.1,0-6.1,0-9.4C514.5,183.7,511.4,183.7,508.2,183.7z M545.9,221.6c-3.1,0-6.2,0-9.3,0
		c0-3.1,0-6.1,0-9.3c3.1,0,6.2,0,9.3,0C545.9,215.3,545.9,218.3,545.9,221.6z M527.1,202.5c0-3.2,0-6.3,0-9.3c3.1,0,6.2,0,9.5,0
		c0-6.5,0-12.7,0-19c6.3,0,12.6,0,18.9,0c0,3.1,0,6.2,0,9.5c-3.3,0-6.3,0-9.5,0c0,6.4,0,12.6,0,18.8
		C539.6,202.5,533.4,202.5,527.1,202.5z M536.6,250.1c6.3,0,12.6,0,18.9,0c0,3.1,0,6.2,0,9.3c-6.3,0-12.5,0-18.9,0
		C536.6,256.3,536.6,253.2,536.6,250.1z M574.5,325.9c0,3.3,0,6.4,0,9.5c-3.1,0-6.2,0-9.5,0c0-6.4,0-12.6,0-18.9c-3.1,0-6.3,0-9.4,0
		c0-3.1,0-6.2,0-9.4c3.3,0,6.4,0,9.4,0c0,3.1,0,6.3,0,9.4c6.2,0,12.5,0,18.9,0c0,3.2,0,6.4,0,9.5
		C580.8,325.9,577.7,325.9,574.5,325.9z M565,297.5c3.1,0,6.3,0,9.4,0c0,3.1,0,6.2,0,9.4c-3.2,0-6.3,0-9.4,0
		C565,303.8,565,300.6,565,297.5z M593.3,297.4c-6.3,0-12.6,0-18.8,0c0-6.3,0-12.5,0-18.8c-3.3,0-6.4,0-9.5,0c0,6.4,0,12.6,0,18.8
		c-6.3,0-12.6,0-18.9,0c0-3.1,0-6.2,0-9.4c-3.2,0-6.3,0-9.4,0c0-6.4,0-12.6,0-19c15.8,0,31.5,0,47.3,0c0,3.1,0,6.1,0,9.4
		c3.2,0,6.2,0,9.4,0C593.3,284.8,593.3,291,593.3,297.4z M565,231c0-3.1,0-6.2,0-9.4c3.3,0,6.4,0,9.4,0c0,3.1,0,6.3,0,9.4
		C571.3,231,568.2,231,565,231z M584,269c0-6.2,0-12.5,0-18.8c3.1,0,6.2,0,9.3,0c0,6.2,0,12.4,0,18.8C590.2,269,587.1,269,584,269z
		 M593.4,212c-3.1,0-6.2,0-9.4,0c0,3.2,0,6.3,0,9.5c-3.3,0-6.4,0-9.5,0c0-3.1,0-6.2,0-9.5c-6.5,0-12.7,0-18.9,0c0-6.4,0-12.6,0-18.9
		c6.4,0,12.6,0,18.8,0c0,3.1,0,6.2,0,9.5c6.5,0,12.7,0,19,0C593.4,205.7,593.4,208.8,593.4,212z M593.6,240.5c0-6.3,0-12.5,0-18.9
		c3.1,0,6.2,0,9.3,0c0,6.3,0,12.6,0,18.9C599.8,240.5,596.7,240.5,593.6,240.5z M584,174.2c0,3.2,0,6.3,0,9.5c6.4,0,12.6,0,18.9,0
		c0,6.2,0,12.5,0,18.9c-3.2,0-6.3,0-9.4,0c0-3.1,0-6.2,0-9.5c-6.5,0-12.7,0-19,0c0-3.1,0-6.2,0-9.5c-3.3,0-6.4,0-9.5,0
		c0-3.3,0-6.3,0-9.4C571.3,174.2,577.6,174.2,584,174.2z M583.9,126.7c-3.1,0-6.2,0-9.3,0c0-3,0-6.1,0-9.3c3.1,0,6.2,0,9.3,0
		C583.9,120.4,583.9,123.5,583.9,126.7z M593.4,117.3c-3.1,0-6.3,0-9.4,0c0-3.1,0-6.1,0-9.4c-6.3,0-12.6,0-18.9,0c0-3.2,0-6.3,0-9.5
		c9.5,0,18.9,0,28.3,0C593.4,104.7,593.4,111,593.4,117.3z M584.1,79.4c0-3.1,0-6.2,0-9.4c3,0,6.1,0,9.3,0c0,3.1,0,6.2,0,9.4
		C590.3,79.4,587.3,79.4,584.1,79.4z M602.8,126.7c-3,0-6.1,0-9.3,0c0-3.1,0-6.2,0-9.4c3.1,0,6.1,0,9.3,0
		C602.8,120.4,602.8,123.5,602.8,126.7z"/>
	<rect x="574.5" y="60.4" width="0" height="0"/>
	<path d="M621.9,155.2L621.9,155.2L621.9,155.2L621.9,155.2L621.9,155.2z"/>
	<path d="M546.1,98.4C546.1,98.3,546.1,98.3,546.1,98.4L546.1,98.4C546,98.4,546,98.4,546.1,98.4z"/>
	<path d="M602.9,306.9L602.9,306.9L602.9,306.9L602.9,306.9z"/>
	<path d="M565,316.4L565,316.4L565,316.4L565,316.4L565,316.4z"/>
	<path d="M517.6,259.5L517.6,259.5L517.6,259.5L517.6,259.5L517.6,259.5z"/>
	<path d="M621.9,259.5L621.9,259.5L621.9,259.5L621.9,259.5z"/>
	<path d="M517.6,288L517.6,288C517.6,287.9,517.6,287.9,517.6,288L517.6,288L517.6,288z"/>
	<path d="M508.1,240.5C508.1,240.6,508.1,240.6,508.1,240.5C508.1,240.6,508.1,240.6,508.1,240.5L508.1,240.5z"/>
	<path d="M489.1,335.3C489.1,335.4,489.1,335.4,489.1,335.3C489.2,335.4,489.2,335.4,489.1,335.3
		C489.2,335.4,489.2,335.4,489.1,335.3C489.2,335.3,489.2,335.3,489.1,335.3z"/>
	<rect x="451.2" y="335.4" width="0" height="0"/>
	<path d="M631.4,278.5L631.4,278.5C631.4,278.4,631.4,278.4,631.4,278.5L631.4,278.5z"/>
	<path d="M621.9,259.5L621.9,259.5L621.9,259.5L621.9,259.5z"/>
	<path d="M640.8,155.2c-6.3,0-12.6,0-18.9,0.1c0,3.1,0,6.2,0,9.4c3.1,0,6.2,0,9.4,0c0,3.2,0,6.2,0,9.4c4,0,8,0,12,0v-9.5
		c-0.8,0-1.6,0-2.5,0C640.9,161.5,640.9,158.4,640.8,155.2c0.9,0,1.7,0,2.5,0v-5.5c-0.5-0.6-1.4-1.7-2.5-3.4
		C640.8,149.4,640.8,152.3,640.8,155.2z"/>
	<path d="M631.4,269.1c0,3.2,0,6.3,0,9.4c3.9,0,7.9,0,11.8,0v-18.9c-7.1,0-14.2,0-21.3,0c0,3.1,0,6.2,0,9.5
		C625.1,269.1,628.2,269.1,631.4,269.1z"/>
	<path d="M470.2,183.7L470.2,183.7L470.2,183.7L470.2,183.7z"/>
	<path d="M527.1,164.7L527.1,164.7L527.1,164.7L527.1,164.7L527.1,164.7z"/>
	<path d="M479.7,212.1L479.7,212.1L479.7,212.1L479.7,212.1L479.7,212.1z"/>
	<path d="M527.1,60.4L527.1,60.4L527.1,60.4L527.1,60.4L527.1,60.4z"/>
	<rect x="498.6" y="107.8" width="0" height="0"/>
	<rect x="498.6" y="325.9" width="0" height="0"/>
	<rect x="546" y="344.8" width="0" height="0"/>
	<path d="M460.8,354.8c0-0.2,0-0.3,0-0.5c-1,0-2,0-2.9,0C458.8,354.5,459.8,354.6,460.8,354.8z"/>
	<path d="M621.9,325.9c-3.1,0-6.2,0-9.5,0c0,10.9,0,21.6,0,32.4c6.8-2,13.2-3.6,19.3-4c-0.1,0-0.2,0-0.3,0c0-3.3,0-6.3,0-9.4
		c-3.1,0-6.2,0-9.5,0C621.9,338.5,621.9,332.2,621.9,325.9z"/>
	<rect x="631.4" y="344.8" width="0" height="0"/>
	<path d="M470.2,155.2L470.2,155.2L470.2,155.2L470.2,155.2L470.2,155.2z"/>
	<path d="M593.4,344.9L593.4,344.9C593.5,344.9,593.5,344.8,593.4,344.9C593.4,344.8,593.4,344.8,593.4,344.9
		C593.4,344.8,593.4,344.9,593.4,344.9z"/>
	<path d="M574.5,354.4c-3.3,0-6.4,0-9.4,0c0,3.2,0,6.2,0,9.3c9.5,0,18.9,0,28.3,0c0-6.3,0-12.6,0-18.8c-6.3,0-12.6,0-18.9,0
		C574.5,348,574.5,351.1,574.5,354.4z"/>
	<path d="M602.9,306.9L602.9,306.9L602.9,306.9L602.9,306.9z"/>
	<rect x="621.9" y="325.9" width="0" height="0"/>
	<path d="M621.9,316.5c0,3.2,0,6.3,0,9.4c3.1,0,6.3,0,9.4,0c0-6.3,0-12.5,0-19c-3.2,0-6.3,0-9.5,0c0-3.2,0-6.2,0-9.3
		c-3.2,0-6.2,0-9.5,0c0,3.2,0,6.2,0,9.4c-3.3,0-6.3,0-9.4,0c0,3.1,0,6.2,0,9.5C609.4,316.5,615.6,316.5,621.9,316.5z"/>
	<path d="M574.5,344.8C574.5,344.8,574.5,344.9,574.5,344.8C574.5,344.9,574.5,344.9,574.5,344.8
		C574.5,344.9,574.5,344.8,574.5,344.8L574.5,344.8z"/>
	<path d="M565,79.4L565,79.4L565,79.4L565,79.4L565,79.4z"/>
	<path d="M555.5,60.4c0-3.3,0-6.4,0-9.4c-3.2,0-6.3,0-9.3,0c0,6.3,0,12.5,0,18.8c3.1,0,6.2,0,9.4,0c0,3.2,0,6.3,0,9.4
		c3.3,0,6.3,0,9.4,0c0-6.3,0-12.6,0-18.9C561.9,60.4,558.7,60.4,555.5,60.4z"/>
	<path d="M640.9,316.3c0.8,0,1.5,0,2.3,0v-18.9c-0.8,0-1.5,0-2.3,0C640.9,303.9,640.9,310.1,640.9,316.3z"/>
	<rect x="470.2" y="325.9" width="0" height="0"/>
	<path d="M460.8,335.4c-3.3,0-6.4,0-9.5,0c0,3.1,0,6.3,0,9.4c6.2,0,12.5,0,18.9,0c0-6.4,0-12.6,0-18.9c-3.1,0-6.1,0-9.4,0
		C460.8,329,460.8,332.1,460.8,335.4z"/>
	<path d="M546.1,98.3C546,98.3,546,98.3,546.1,98.3C546,98.3,546,98.3,546.1,98.3C546,98.4,546.1,98.3,546.1,98.3z"/>
	<path d="M536.5,88.8c0,3.2,0,6.2,0,9.5c3.3,0,6.4,0,9.5,0c0-6.3,0-12.6,0-18.9c-6.4,0-12.7,0-18.9,0c0,3.1,0,6.3,0,9.4
		C530.2,88.8,533.3,88.8,536.5,88.8z"/>
	<path d="M527.1,79.4L527.1,79.4L527.1,79.4L527.1,79.4L527.1,79.4z"/>
	<rect x="527.1" y="88.9" width="0" height="0"/>
	<path d="M593.5,325.9L593.5,325.9C593.4,325.9,593.4,325.9,593.5,325.9C593.4,325.9,593.4,325.9,593.5,325.9
		C593.4,325.9,593.4,325.9,593.5,325.9z"/>
	<path d="M602.8,344.8c0-6.4,0-12.6,0-18.9c-3.2,0-6.3,0-9.3,0c0,6.3,0,12.6,0,18.9C596.6,344.8,599.7,344.8,602.8,344.8z"/>
	<path d="M631.4,325.9L631.4,325.9C631.4,325.9,631.3,325.9,631.4,325.9C631.3,325.9,631.3,325.9,631.4,325.9
		C631.3,325.9,631.4,325.9,631.4,325.9z"/>
	<path d="M640.7,344.8c0-6.4,0-12.6,0-18.9c-3.2,0-6.3,0-9.3,0c0,6.3,0,12.6,0,18.9C634.5,344.8,637.6,344.8,640.7,344.8z"/>
	<path d="M555.5,344.9L555.5,344.9C555.5,344.9,555.5,344.8,555.5,344.9C555.5,344.8,555.5,344.8,555.5,344.9
		C555.5,344.8,555.5,344.9,555.5,344.9z"/>
	<path d="M546.1,354.2c3.2,0,6.3,0,9.4,0c0-3.2,0-6.3,0-9.3c-3.1,0-6.3,0-9.4,0C546.1,348,546.1,351.1,546.1,354.2z"/>
	<path d="M565,60.4L565,60.4L565,60.4L565,60.4L565,60.4z"/>
	<path d="M574.5,51.1c-3.2,0-6.3,0-9.4,0c0,3.2,0,6.3,0,9.3c3.1,0,6.3,0,9.4,0C574.5,57.3,574.5,54.2,574.5,51.1z"/>
	<path d="M536.4,60.4c0-3.2,0-6.3,0-9.4c-3.2,0-6.3,0-9.3,0c0,3.1,0,6.3,0,9.4C530.2,60.4,533.3,60.4,536.4,60.4z"/>
	<path d="M527.1,51C527.1,50.9,527.1,50.9,527.1,51C527.1,50.9,527.1,50.9,527.1,51C527.1,50.9,527.1,50.9,527.1,51L527.1,51z"/>
	<path d="M447.9,353.5c0.1,0,0.3,0.1,0.6,0.1c0.6,0.1,1.4,0.2,2.7,0.3c0-3,0-6,0-8.9c-1.1,0-2.2,0-3.4,0L447.9,353.5z"/>
	<rect x="451.2" y="344.8" width="0" height="0"/>
	<path d="M631.4,278.5C631.4,278.5,631.3,278.4,631.4,278.5C631.3,278.5,631.3,278.5,631.4,278.5L631.4,278.5z"/>
	<path d="M622,287.8c3.2,0,6.2,0,9.3,0c0-3.2,0-6.3,0-9.3c-3.1,0-6.2,0-9.3,0C622,281.7,622,284.8,622,287.8z"/>
	<path d="M612.4,221.6L612.4,221.6L612.4,221.6L612.4,221.6L612.4,221.6z"/>
	<path d="M621.9,231.1L621.9,231.1L621.9,231.1C621.9,231,621.9,231,621.9,231.1L621.9,231.1z"/>
	<path d="M527,231.2c-6.3,0-12.5,0-18.8,0c0,3.2,0,6.3,0,9.3c6.3,0,12.5,0,18.8,0C527,237.3,527,234.2,527,231.2z"/>
	<path d="M508.1,240.5C508.1,240.5,508.1,240.6,508.1,240.5C508.1,240.6,508.1,240.6,508.1,240.5L508.1,240.5z"/>
	<path d="M451.2,174.1c-1.1,0-2.3,0-3.4,0v9.4c1.1,0,2.2,0,3.4,0C451.2,180.4,451.2,177.4,451.2,174.1z"/>
	<path d="M470.2,183.7C470.2,183.7,470.2,183.6,470.2,183.7C470.2,183.6,470.2,183.6,470.2,183.7L470.2,183.7z"/>
	<path d="M460.8,174.3c0,3.2,0,6.2,0,9.3c3.2,0,6.3,0,9.3,0c0-3.1,0-6.2,0-9.3C466.9,174.3,463.9,174.3,460.8,174.3z"/>
	<path d="M342.8,151.6L342.8,151.6C342.7,151.7,342.7,151.7,342.8,151.6C342.8,151.7,342.8,151.7,342.8,151.6
		C342.8,151.7,342.8,151.7,342.8,151.6z"/>
	<path d="M352.9,142.2c-3.3,0-6.7,0-10.1,0c0,3.2,0,6.4,0,9.5c2.6,0,5.3,0,8,0L352.9,142.2z"/>
	<path d="M304.8,104.3C304.8,104.3,304.9,104.3,304.8,104.3C304.9,104.3,304.9,104.3,304.8,104.3
		C304.9,104.2,304.8,104.2,304.8,104.3L304.8,104.3z"/>
	<path d="M333.3,132.7L333.3,132.7L333.3,132.7L333.3,132.7z"/>
	<path d="M352.3,85.3c3.1,0,6.2,0,9.5,0c0-1.1,0-2.1,0-3.1l-9.5-2.9C352.2,81.3,352.2,83.3,352.3,85.3c-3.2,0-6.3,0-9.5,0
		c0-2.9,0-5.8,0-8.8l-1.9-0.6c-2.5,0-5,0-7.5,0c0-0.8,0-1.5,0-2.3l-9.7-2.9c0,4.8,0,9.6,0,14.6c6.5,0,12.7,0,19,0c0,3.1,0,6.2,0,9.5
		c-3.2,0-6.3,0-9.5,0c0,3.2,0,6.3,0,9.4c-3.1,0-6.2,0-9.5,0c0,3.3,0,6.4,0,9.5c-6.2,0-12.5,0-19,0c0-3.2,0-6.3,0-9.4
		c-6.3,0-12.6,0-18.9,0c0-3.1,0-6.2,0-9.5c3.2,0,6.3,0,9.5,0c0-3.2,0-6.3,0-9.4c3.1,0,6.2,0,9.5,0c0,6.4,0,12.6,0,18.9
		c3.1,0,6.2,0,9.4,0c0-12.2,0-24.3,0-36.4l-9.5-2.9c0,3.6,0,7.2,0,10.9c-3.1,0-6.2,0-9.3,0c0,3.1,0,6.3-0.1,9.4c-6.3,0-12.6,0-19,0
		c0,0.2,0,0.3,0,0.5c1.8,3,3.3,6,4.7,9.1c1.4,3.2,2.6,6.3,3.6,9.4c0.4,0,0.8,0,1.2,0c0,1.3,0,2.6,0,3.8c0.6,1.9,1.1,3.8,1.5,5.7
		c2.6,0,5.2,0,7.9,0c0,3.2,0,6.3,0,9.4c-1.9,0-3.8,0-5.8,0c0.3,1.6,0.6,3,0.9,4.3c0.4,1.8,0.9,3.5,1.4,5.1c1.2,0,2.4,0,3.6,0
		c0-3.2,0-6.3,0-9.3c6.2,0,12.5,0,18.8,0c0,3.1,0,6.2,0,9.4c-3,0-6.1,0-9.4,0c0,3.3,0,6.4,0,9.5c-2.9,0-5.8,0-8.8,0
		c2,3.6,3.8,5.8,4.5,6.6l4.4,0.9c0-2.5,0-5,0-7.5c6.2,0,12.5,0,18.8,0c0,3.1,0,6.2,0,9.4c-3.1,0-6.2,0-9.3,0l28.4,5.6
		c0-1.8,0-3.7,0-5.5c-3.1,0-6.2,0-9.5,0c0-6.4,0-12.7,0-19c-3.1,0-6.2,0-9.4,0c0-6.4,0-12.7,0-19c3.1,0,6.2,0,9.5,0
		c0-3.3,0-6.4,0-9.5c6.3,0,12.5,0,19,0c0,3.2,0,6.3,0,9.5c2.3,0,4.6,0,6.8,0l4.2-19.1c-3.6,0-7.3,0-11,0
		C352.3,91.5,352.3,88.4,352.3,85.3z"/>
	<path d="M333.3,132.7L333.3,132.7L333.3,132.7L333.3,132.7z"/>
	<path d="M352.1,123.3c-6.3,0-12.5,0-18.8,0c0,3.2,0,6.3,0,9.3c6.3,0,12.5,0,18.8,0C352.1,129.4,352.1,126.4,352.1,123.3z"/>
	<path d="M257.4,56.9c0,3.1,0,6.2,0,9.4c-0.2,0-0.4,0-0.6,0c4.7,2.5,8.7,5.8,12.1,9.4c2.5,0,5,0,7.5,0c0-3.2,0-6.2,0-9.4
		c-3.2,0-6.2,0-9.4,0c0-3.3,0-6.3,0-9.4c3.1,0,6.2,0,9.5,0c0-0.2,0-0.3,0-0.5l-9.5-2.9c0,1.1,0,2.2,0,3.4
		C263.8,56.8,260.6,56.8,257.4,56.9c0-2.1,0-4.2,0-6.3l-5.9-1.8v0.3c0,1.8-0.3,4.6-1.3,7.8C252.7,56.9,255.1,56.9,257.4,56.9z"/>
	<path d="M286,66.4c0,3.2,0,6.2,0,9.3c3.2,0,6.3,0,9.3,0c0-3.1,0-6.2,0-9.3C292.1,66.4,289,66.4,286,66.4z"/>
	<path d="M295.3,75.8L295.3,75.8C295.3,75.8,295.4,75.8,295.3,75.8L295.3,75.8C295.4,75.8,295.4,75.8,295.3,75.8
		C295.4,75.8,295.4,75.8,295.3,75.8C295.4,75.8,295.4,75.8,295.3,75.8z"/>
	<path d="M85.8,137.3C85.9,137.3,85.9,137.3,85.8,137.3C85.9,137.3,85.9,137.3,85.8,137.3C85.9,137.3,85.9,137.3,85.8,137.3
		L85.8,137.3z"/>
	<path d="M104.9,146.8c0.1,0,0.3,0,0.4,0c1.5-2,3.5-5.2,5.4-9.5c-1.9,0-3.9,0-5.9,0C104.8,140.6,104.8,143.7,104.9,146.8
		c-6.3,0-12.5,0-19,0c0-3.2,0-6.3,0-9.4c-6.3,0-12.6,0-18.9,0c0-3.1,0-6.2,0-9.5c3.2,0,6.3,0,9.5,0c0-3.2,0-6.3,0-9.4
		c3.1,0,6.2,0,9.5,0c0,6.4,0,12.6,0,18.9c3.1,0,6.2,0,9.4,0c0-12.6,0-25.2,0-37.8c3.2,0,6.2,0,9.4,0c0,6.2,0,12.4,0,18.9
		c3.7,0,7.4,0,11,0c0.7-2.9,1.5-6.1,2.5-9.4c-1.3,0-2.5,0-3.8,0c0-3.2,0-6.3,0-9.5c2.3,0,4.6,0,7,0c0.5-1.5,1.1-2.9,1.7-4.4
		c0.7-1.8,1.5-3.5,2.4-5.1c-3.7,0-7.4,0-11.1,0c0-9.8,0-19.5,0-29.2l-9.7,2.9c0,8.7,0,17.4,0,26.2c-3,0-6.1,0-9.3,0c0-3,0-6.1,0-9.4
		c-6.5,0-12.7,0-19,0c0,3.1,0,6.1,0,9.4c3.1,0,6.2,0,9.4,0c0,6.4,0,12.6,0,19.1c-3.1,0-6.2,0-9.3,0c0,3.1,0,6.3-0.1,9.4
		c-6.3,0-12.6,0-19,0c0,6.5,0,12.7,0,19c-2,0-4.1,0-6.1,0l2.1,9.5c1.3,0,2.7,0,4,0c0,3.8,0,7.6,0,11.4l9.6-1.9c0,0,0,0-0.1,0
		c0-3.3,0-6.4,0-9.4c3.1,0,6.2,0,9.4,0c0,2.6,0,5.1,0,7.6l27.3-5.5c0.3-0.3,0.7-0.8,1.2-1.5C104.9,147.2,104.9,147,104.9,146.8z
		 M57.5,146.8c0-3.1,0-6.3,0-9.4c3.1,0,6.3,0,9.4,0c0,3.1,0,6.3,0,9.4C63.7,146.8,60.6,146.8,57.5,146.8z"/>
	<path d="M133.3,78c5-5.9,11.2-10.6,19-13.8c0-4.1,0-8.2,0-12.2c0.5,0,1,0,1.5,0c-0.1-1.1,0-2.1,0-2.9c0-0.3-0.1-0.1-0.1-0.3
		l-1.4,0.4c0,0.9,0,1.8,0,2.7c-2.9,0-5.9,0-8.9,0l-19.3,5.9c0,1.2,0,2.4,0,3.6c3,0,6.1,0,9.4,0C133.3,67,133.3,72.5,133.3,78z"/>
	<path d="M57.4,78c0,0.8,0,1.6,0,2.4c-2.6,0-5.3,0-8,0L48,80.8c0,3.2,0,6.1,0,9c-2.3,0-4.6,0-6.9,0l4.1,18.9c4.1,0,8.2,0,12.2,0
		c0-3.2,0-6.2,0-9.4c-3.2,0-6.2,0-9.4,0c0-3.3,0-6.3,0-9.4c3.1,0,6.2,0,9.5,0c0-3.3,0-6.4,0-9.5c6.3,0,12.6,0,18.9,0
		c0-2.7,0-5.5,0-8.2L57.4,78z"/>
	<path d="M76.4,80.4L76.4,80.4C76.4,80.5,76.4,80.5,76.4,80.4L76.4,80.4L76.4,80.4z"/>
	<path d="M47.8,121.3c0-1,0-2,0-3c-0.2,0-0.4,0-0.6,0L47.8,121.3z"/>
	<path d="M76.4,108.9L76.4,108.9L76.4,108.9L76.4,108.9L76.4,108.9L76.4,108.9L76.4,108.9z"/>
	<path d="M67,99.5c0,3.2,0,6.2,0,9.3c3.2,0,6.3,0,9.3,0c0-3.1,0-6.2,0-9.3C73.1,99.5,70.1,99.5,67,99.5z"/>
	<path d="M85.9,69.3L80.5,71c1.8,0,3.6,0,5.4,0C85.9,70.4,85.9,69.9,85.9,69.3z"/>
	<path d="M475.4,80c2.7-3.6,5.9-6.9,9.6-10c0-1.2,0-2.3,0-3.5c1.5,0,3,0,4.6,0c1.3-0.9,2.7-1.8,4.1-2.6l0.6-0.4c0-2.2,0-4.3,0-6.5
		c3.5,0,6.8,0,10.2,0l8.8-5.6c0-1.3,0-2.5,0-3.8c-0.5,0-1,0.1-1.5,0.1l0,0c-2.1,0.1-4.1,0.2-5.8,0.4c-1.9,0.1-3.5,0.2-4.8,0.3
		c-1.1,0.1-1.6,0.1-1.9,0.2l0,0h-0.1c0,0,0,0-0.1,0l-14,4.3l-9.9,3c0,0.4,0,0.7,0,1.1c-1.2,0-2.4,0-3.6,0l-15.3,4.7
		c0,1.6,0,3.2,0,4.8c6.3,0,12.6,0,19,0C475.4,70.9,475.4,75.4,475.4,80z"/>
	<path d="M437.6,113.7L437.6,113.7C437.5,113.7,437.5,113.7,437.6,113.7C437.6,113.8,437.6,113.8,437.6,113.7L437.6,113.7z"/>
	<path d="M460,113.8c-1.1,0-2.3,0-3.4,0c0-3.3,0-6.4,0-9.5c2.1,0,4.1,0,6.2,0c0.8-2.4,1.7-4.9,2.8-7.4c0.1-0.2,0.2-0.5,0.3-0.7
		c0-6.8,0-13.6,0-20.5c-12.6,0-25.2,0-37.8,0c0-1.9,0-3.8,0-5.8l-18.9,5.7c0,0,0,0,0,0.1c6.4,0,12.6,0,18.9,0c0,6.2,0,12.5,0,18.9
		c-3.2,0-6.3,0-9.4,0c0-3.1,0-6.2,0-9.5c-6.5,0-12.7,0-19,0c0-2.2,0-4.4,0-6.6l-15.5,4.7l0.4,1.9c5.1,0,10.1,0,15.1,0
		c0,3.1,0,6.2,0,9.5c6.5,0,12.7,0,19,0c0,3.1,0,6.1,0,9.4c-3.1,0-6.2,0-9.4,0c0,3.2,0,6.3,0,9.5c-3.3,0-6.4,0-9.5,0
		c0-3.1,0-6.2,0-9.5c-3.7,0-7.3,0-10.9,0l2.1,9.6c3,0,5.9,0,8.7,0c0,3.1,0,6.3,0,9.4c-2.2,0-4.4,0-6.6,0l7.7,34.5l8.4-1.6
		c0-4.6,0-9.1,0-13.8c3.1,0,6.2,0,9.3,0c0,4,0,8,0,12l28.5-5.5c0-2.1,0-4.3,0-6.6c-6.3,0-12.5,0-18.9,0c0-3.3,0-6.4,0-9.5
		c6.3,0,12.6,0,18.9,0c0-3.3,0-6.4,0-9.5c-3.1,0-6.2,0-9.5,0c0-3.2,0-6.4,0-9.5c-3.1,0-6.3,0-9.4,0c0-3.1,0-6.2,0-9.4
		c3.2,0,6.3,0,9.4,0c0,3.1,0,6.3,0.1,9.4c3.1,0,6.2,0,9.5,0c0,3.2,0,6.4,0,9.5c3.6,0,7.2,0,10.8,0
		C458.4,120.4,459.1,117.2,460,113.8z M409,132.6c-3,0-6.1,0-9.3,0c0-3.1,0-6.2,0-9.4c3.1,0,6.1,0,9.3,0
		C409,126.4,409,129.4,409,132.6z M418.7,113.8c3.1,0,6.2,0,9.3,0c0,6.3,0,12.6,0,18.9c-3.1,0-6.1,0-9.3,0
		C418.7,126.4,418.7,120.2,418.7,113.8z M437.6,104.2c0-3.1,0-6.2,0-9.4c3.1,0,6.2,0,9.4,0c0-3.2,0-6.2,0-9.4c3.2,0,6.3,0,9.5,0
		c0,6.3,0,12.5,0,18.8C450.2,104.2,443.9,104.2,437.6,104.2z"/>
	<path d="M447,123.2L447,123.2C447.1,123.2,447.1,123.2,447,123.2L447,123.2L447,123.2z"/>
	<path d="M649,94c0-3.2,0-6.2,0-9.4c3.2,0,6.2,0,9.5,0c0-3.2,0-6.3,0-9.5c8.2,0,16.3,0,24.4,0l-34-10.2c0,3.4,0,6.8,0,10.2
		c-6.2,0-12.4,0-18.8,0c0-5.2,0-10.5,0-15.8l-19-5.7c0,4.1,0,8.1,0,12.2c-3.1,0-6.3,0-9.4,0c0-3.1,0-6.1,0-9.4c-5.1,0-10.2,0-15.3,0
		l11,7.6c1,0.6,2,1.2,3,1.9c0.4,0,0.8,0,1.2,0c0,0.3,0,0.6,0,0.8c3.6,2.5,6.7,5.2,9.5,8.1c0-3,0-6,0-9c3.1,0,6.1,0,9.3,0
		c0,3.1,0,6.2,0,9.4c-2.9,0-5.9,0-9,0c2.9,3.1,5.4,6.3,7.6,9.7c3.6,0,7.3,0,10.9,0c0,6.2,0,12.4,0,18.9c3.3,0,6.4,0,9.5,0
		c0-3.1,0-6.2,0-9.5C642.8,94,645.8,94,649,94z"/>
	<path d="M582.7,47.6c-3.1-0.1-6.4-0.3-9.6-0.4l9.6,6.6C582.7,51.7,582.7,49.6,582.7,47.6z"/>
	<path d="M639.5,103.5C639.5,103.5,639.5,103.6,639.5,103.5C639.5,103.6,639.5,103.6,639.5,103.5
		C639.5,103.6,639.5,103.5,639.5,103.5L639.5,103.5z"/>
	<path d="M639.4,141.9c0-0.1,0-0.2,0-0.3c3.2,0,6.3,0,9.5,0c0,2.6,0,5.2,0,7.8l9.4,1.7c0-6.4,0-12.7,0-19.2c-7.7,0-15.4,0-23,0
		C636.5,135.9,638,139.3,639.4,141.9z"/>
	<path d="M677.4,94C677.4,94.1,677.4,94.1,677.4,94C677.4,94.1,677.4,94.1,677.4,94L677.4,94z"/>
	<path d="M696.3,94.2c0,3.2,0,6.2,0,9.2c-6.3,0-12.6,0-18.9,0c0-3.2,0-6.3,0-9.3c-6.3,0-12.5,0-19,0c0,3.3,0,6.3,0,9.4
		c-6.3,0-12.6,0-18.9,0.1c0,3.1,0,6.2,0,9.4c3.1,0,6.2,0,9.4,0c0,3.2,0,6.2,0,9.4c6.3,0,12.6,0,19,0c0,6.4,0,12.6,0,19
		c3.2,0,6.3,0,9.5,0c0,3.2,0,6.2,0,9.4c3.2,0,6.2,0,9.5,0c0,1.9,0,3.7,0,5.5l7.2,1.3l2.3-10.4c0-1.9,0-3.9,0-5.8c0.4,0,0.9,0,1.3,0
		l4.2-19c-1.8,0-3.7,0-5.6,0c0,6.5,0,12.7,0,19c-3.1,0-6.1,0-9.4,0c0-3.1,0-6.2,0-9.4c-3.2,0-6.3,0-9.4,0c0-3.2,0-6.2,0-9.4
		c3,0,6.1,0,9.3,0c0-3.2,0-6.3,0-9.6c5.8,0,11.5,0,17.2,0l1.8-8c0-3.6,0-7.2,0-10.8C702.6,94.2,699.5,94.2,696.3,94.2z M667.8,112.9
		c-3,0-6.1,0-9.3,0c0-3.1,0-6.2,0-9.4c3.1,0,6.1,0,9.3,0C667.8,106.7,667.8,109.7,667.8,112.9z"/>
	<path d="M686.8,84.7c-3.2,0-6.2,0-9.3,0c0,3.2,0,6.3,0,9.3c3.1,0,6.2,0,9.3,0C686.8,90.8,686.8,87.7,686.8,84.7z"/>
	<path d="M677.4,94C677.4,94,677.4,94.1,677.4,94C677.4,94.1,677.4,94.1,677.4,94L677.4,94z"/>
</g>
</svg>
