<?xml version="1.0" encoding="utf-8"?>
<!-- Generator: Adobe Illustrator 25.3.0, SVG Export Plug-In . SVG Version: 6.00 Build 0)  -->
<svg version="1.1" id="Layer_1" xmlns="http://www.w3.org/2000/svg" xmlns:xlink="http://www.w3.org/1999/xlink" x="0px" y="0px"
	 viewBox="0 0 750.2 400.1" style="enable-background:new 0 0 750.2 400.1;" xml:space="preserve">
<path d="M125.3,93.4c11.6-9.2,23.4-18.6,35.4-28.1c-0.3-0.3-0.7-0.6-1-0.8l-0.1-0.1l-0.1-0.2c-0.3-0.3-0.6-0.6-0.9-0.8l-5.6,1.6
	c-2.2,0.9-4.3,1.9-6.3,3.1c-3.2,2.6-6.5,5.1-9.7,7.7C132,80.9,128.2,87.1,125.3,93.4C125.2,93.5,125.2,93.5,125.3,93.4z"/>
<path d="M166.2,70.3c-1.6-1.3-3.1-2.7-4.5-4c-12.5,9.9-25.1,19.9-37.7,29.9c-1.5,3.6-2.8,7.2-3.9,10.7
	C135.5,94.7,150.9,82.5,166.2,70.3z"/>
<path d="M172.1,75c-1.4-1.1-2.9-2.3-4.4-3.5c-16.1,12.8-32.3,25.6-48.4,38.4c-0.9,3.1-1.6,6.1-2.2,8.8
	C135.3,104.2,153.7,89.6,172.1,75z"/>
<path d="M178.5,79.2c-0.2-0.1-0.5-0.2-0.7-0.4c-1.2-0.7-2.5-1.5-3.9-2.5c-12.4,9.8-25,19.8-37.8,30c-6.6,5.3-13.2,10.5-19.9,15.8
	c-0.4,2.1-0.8,3.9-1.1,5.4c-0.2,0.8-0.3,1.5-0.5,2.3C135.9,113,157.3,96,178.5,79.2z"/>
<path d="M110.9,142.2c25.2-19.9,50.2-39.6,75.3-59.7c-1.5-0.5-3.2-1.1-4.9-1.9c-2.9,2.3-5.8,4.6-8.7,6.9c-20.2,16-40,31.7-59.6,47.3
	c-1.3,3.7-2.9,6.8-4.3,9.1C109.5,143.3,110.2,142.7,110.9,142.2z"/>
<path d="M195.3,84.5c-1-0.2-2.1-0.4-3.1-0.6l0,0.1l-0.5-0.1c0,0-0.5-0.1-1.4-0.3c-28.3,22.6-56.4,45-84.6,67.1
	c-0.3,0.3-0.7,0.5-1,0.8l0,4.9C134.9,132.4,165,108.5,195.3,84.5z"/>
<path d="M183.9,102.8c7.5-6,15.1-12,22.7-18c-1.6,0.2-3.3,0.3-4.9,0.3c-0.3,0-0.7,0-1,0c-31.7,25-63.9,50.7-96,76.4l0,4.3
	C131.1,144.8,157.5,123.9,183.9,102.8z"/>
<path d="M224,80.3c-2.7,1-5.5,1.9-7.5,2.4c-31.9,25.3-63.7,50.5-94.6,75c-5.6,4.5-11.4,9-17.2,13.6l0,3.6
	C144.2,143.6,183.9,112.1,224,80.3z"/>
<path d="M253.9,65.9c-0.8-0.4-1.6-0.7-2.4-1l0,0c-49.6,39.4-97.8,77.6-146.8,116.5l0,2.9C154.3,144.9,203.8,105.6,253.9,65.9z"/>
<path d="M249.8,78.5c3.5-2.8,7.1-5.7,10.8-8.6c-0.5-0.3-1-0.7-1.5-1c-21.1,16.7-42.2,33.2-63.6,50.5c-21.4,17.4-43,33.9-64,50.8
	c-9.1,7.3-18,14.3-26.8,21.3l0,2C152.5,155.2,201.4,117.3,249.8,78.5z"/>
<path d="M167.8,152.9c33.7-26.7,65.7-52.2,98.6-78.3c-0.3-0.3-0.6-0.6-1-0.9c-43.6,34.5-87.2,69.4-130.3,103.4
	c-10.1,8-20.3,16-30.5,24.1l0,1.7C125.5,186.5,146.4,169.9,167.8,152.9z"/>
<path d="M172.5,158.5c32-25.8,65.9-52.2,98.9-78.3c-0.2-0.3-0.4-0.5-0.6-0.8c-55.5,44.1-110.5,87.6-166.1,131.8l0,1.2
	C127.3,194.5,150,176.6,172.5,158.5z"/>
<path d="M275.5,86.2c-0.1-0.2-0.2-0.3-0.3-0.4c-57,45.2-113.5,90.1-170.5,135.3l0,0.6C161.4,176.8,218.3,131.5,275.5,86.2z"/>
<path d="M190.4,163.1c30.1-23.3,59.2-46.9,88.6-70.4c0,0,0-0.1-0.1-0.1c-5.6,4.5-11.4,9-17.3,13.7
	c-49.9,39.4-103.5,82.2-156.2,124.1c4.4-3.5,8.8-7,13.3-10.4C142.9,201.3,166.4,181.7,190.4,163.1z"/>
<path d="M300.1,353.3l0-11c-5,4-10.1,7.9-15.1,11.9c5.4-0.3,9.7-0.6,12.4-0.7C298.7,353.4,299.6,353.4,300.1,353.3z"/>
<path d="M300.1,332.6c-9.4,7.4-18.8,14.9-28.2,22.3c4.6-0.2,8.8-0.5,12.6-0.7c5.2-4.1,10.4-8.3,15.6-12.4L300.1,332.6z"/>
<path d="M271.3,354.9c9.6-7.7,19.2-15.3,28.8-22.9l0-8.8c-13.6,10.7-27.1,21.5-40.7,32.3C263.5,355.4,267.5,355.1,271.3,354.9z"/>
<path d="M300.1,322.2l0-8.4c-4.9,3.9-9.8,7.8-14.8,11.8c-12.6,10-25.5,20.2-38.5,30.5c3.8-0.2,7.5-0.4,11.2-0.5
	C272,344.5,286.1,333.4,300.1,322.2z"/>
<path d="M300.1,312.2l0-7.6c-22,17.4-43.9,34.8-65.8,52.2c3.4-0.1,6.8-0.3,10.2-0.4C263,341.6,281.5,326.9,300.1,312.2z"/>
<path d="M300.1,302.2l0-7c-25.9,20.6-52,41.2-78.1,62c3-0.1,6.1-0.2,9.3-0.3C254.2,338.6,277.1,320.4,300.1,302.2z"/>
<path d="M274.4,312.7c8.5-6.8,17-13.6,25.7-20.5l0-6.4c-30.2,24-60.5,48-90.3,71.6c2.6,0,5.4-0.1,8.3-0.2
	C236.6,342.8,255.3,328,274.4,312.7z"/>
<path d="M300.1,282.3l0-5.7c-0.2,0.1-0.3,0.3-0.5,0.4c-26.7,21-53.1,41.9-79.7,63.2c-7.3,5.9-14.6,11.7-21.8,17.4c1.5,0,2.9,0,4.2,0
	c0.9,0,1.9,0,2.9,0c10.8-8.6,21.7-17.2,32.7-26C259,314.9,279.7,298.5,300.1,282.3z"/>
<path d="M300.1,272.1l0-4.9c-37.8,30-75.4,59.9-113.5,90.1c2.1,0.1,4.2,0.1,6.2,0.2C228.8,328.8,264.4,300.2,300.1,272.1z"/>
<path d="M187.1,351.9c37.2-29,75.1-59.4,113-89.6l0-4.3c-24.5,19.4-49,38.7-73.5,58.4c-17,13.6-34.1,27.1-51.2,40.6
	c1.7,0.1,3.4,0.1,5.1,0.2C182.6,355.4,184.9,353.6,187.1,351.9z"/>
<path d="M288.7,261.4c3.8-3,7.6-6,11.4-9.1l0-3.6c-45,35.7-90.2,71.6-135.9,107.8c1.4,0.1,2.8,0.1,4.2,0.2
	C208.9,324.6,249.6,292.5,288.7,261.4z"/>
<path d="M300.2,242.3l0-2.9c-48.9,38.8-97.7,77.5-147,116.6c1.2,0.1,2.3,0.1,3.5,0.2C205.2,317.6,252.3,280.2,300.2,242.3z"/>
<path d="M279,249c7.1-5.7,14.2-11.3,21.1-16.8l0-2c-46,36.7-92.9,73.1-139.5,110.4c-5.9,4.7-12.2,9.7-18.6,14.8c0.3,0,0.6,0,0.9,0
	c0.6,0,1.1,0.1,1.7,0.1c23.3-18.5,46.7-36.6,70.3-55.8C236.5,282.4,258,265.9,279,249z"/>
<path d="M275.4,242c8.2-6.5,16.5-13.1,24.8-19.6l0-1.7c-18.9,15-37.9,30.1-57.4,45.5c-38.1,30.2-74.1,58.9-111.7,88.7
	c0.7,0,1.3,0.1,2,0.1C180.6,317.3,228.3,279.1,275.4,242z"/>
<path d="M300.2,212.4l0-1.2c-20.7,16.4-41.5,32.8-62.1,49.4c-38.3,30.9-79.3,62.6-118.2,93.7c0.5,0,1,0.1,1.5,0.1
	C181.3,306.7,240.4,259.9,300.2,212.4z"/>
<path d="M300.2,202.5l0-0.6c-63.4,50.3-127.3,101.1-191.4,151.7c0.3,0,0.6,0,0.9,0.1C173.5,303,236.6,252.9,300.2,202.5z"/>
<path d="M148.9,312.8c48.4-38.2,100.2-79.5,151.3-120.2l0-0.1c-2.8,2.2-5.6,4.4-8.4,6.6c-24.2,18.7-47.7,38.3-71.7,56.9
	c-39.2,30.4-76.7,61.2-115.4,91.6l0,0.1C119.2,336.3,133.4,325.1,148.9,312.8z"/>
<path d="M596.7,64.6L596.7,64.6l-25.1-17.4c-1.1,0-2.1-0.1-3.3-0.1c17.2,13.6,34.3,27.2,51.3,40.7C614.5,79,607.2,70.8,596.7,64.6z"
	/>
<path d="M626.6,102.6c-0.6-1.7-1.3-3.5-2.1-5.3c-1.1-2.6-2.4-5.2-3.8-7.7c-17.9-14.3-35.9-28.5-53.8-42.6c-3.4-0.1-7-0.2-10.7-0.3
	c20,15.8,39.8,31.6,59,46.8C618.9,96.5,622.8,99.6,626.6,102.6z"/>
<path d="M630.3,114.9c-0.8-3.1-1.7-6.5-2.9-9.9c-24.6-19.5-49.1-39-73.5-58.3c-2.9,0-5.9-0.1-8.9-0.1c-0.3,0-0.6,0-0.8,0
	C572.8,69.3,601.5,92,630.3,114.9z"/>
<path d="M632.7,126.1c-0.5-2.4-1.1-5.3-1.8-8.4C601,94,571.1,70.3,541.3,46.6c-2.9,0-5.8,0.1-8.7,0.1
	C566.2,73.4,599.6,99.8,632.7,126.1z"/>
<path d="M636.5,138.4c-1.1-2.5-2.1-5.4-3-8.7c-9.9-7.8-19.7-15.6-29.3-23.4c-25.8-20.6-50.6-40.1-75.2-59.6c-2.5,0.1-5,0.2-7.3,0.3
	l-0.2,0.1C559.2,77.1,597.9,107.8,636.5,138.4z"/>
<path d="M549.7,79c26.6,21.3,53,42.2,79.7,63.2c4.6,3.7,9.3,7.3,13.9,10.9l0-3.4c-0.6-0.7-2-2.4-3.6-5.1
	c-23.7-18.8-47.6-37.7-72.1-57.2c-16.5-13.1-32.6-25.9-48.7-38.7l-3.9,2.5C526.5,60.4,538.1,69.6,549.7,79z"/>
<path d="M634.7,150.7c-40.8-32-81.4-64.7-122.6-97.5l-3.6,2.3c45.3,35.9,89.8,71.3,134.8,107l0-4.9
	C640.4,155.2,637.6,153,634.7,150.7z"/>
<path d="M504.9,57.8l-2.9,1.9c18.2,14.4,36.4,28.7,54.4,43.1c29,23.2,57.9,46,86.9,69l0-4.2c-42.4-33.8-84.9-68-126.4-100.3
	C512.8,64,508.9,60.9,504.9,57.8z"/>
<path d="M618.5,157.7c-39.2-31.2-80-63.4-120.5-95.5l-2.5,1.6c49.7,39.4,98.9,78.4,147.8,117.2l0-3.6
	C634.9,170.8,626.6,164.2,618.5,157.7z"/>
<path d="M491.1,66.6c-0.7,0.4-1.3,0.9-2,1.4c51.7,41,102.9,81.6,154.2,122.3l0-2.9C592.4,147.1,542.5,107.5,491.1,66.6z"/>
<path d="M544.8,119.3c-20.2-16.4-40.2-32-60.2-47.8c-0.4,0.4-0.9,0.8-1.3,1.2c2.4,1.9,4.9,3.9,7.2,5.7
	c51,40.9,102.5,80.7,152.8,121.1l0-2.1c-11.4-9-22.8-18-34.5-27.4C587.8,153.2,566.3,136.7,544.8,119.3z"/>
<path d="M605.1,177.1c-41.7-32.9-83.9-66.6-126-100.1c-0.3,0.3-0.6,0.7-0.9,1c31.4,24.9,62.1,49.3,94.3,74.9
	c24.1,19.1,47.5,37.6,70.7,56.1l0-1.7C630.5,197.2,617.8,187.1,605.1,177.1z"/>
<path d="M474.3,83.1c-0.2,0.3-0.4,0.5-0.6,0.8c31.5,24.9,63.6,50,94.1,74.6c25,20.1,50.3,40,75.4,59.8l0-1.1
	C586.6,172.3,530.7,128,474.3,83.1z"/>
<path d="M470.2,89.8c-0.1,0.2-0.2,0.3-0.3,0.5c58,46,115.9,92,173.4,137.5l0-0.6C585.4,181.2,527.9,135.7,470.2,89.8z"/>
<path d="M643.3,237c-0.6-0.5-1.2-0.9-1.8-1.4C642.1,236.1,642.7,236.6,643.3,237L643.3,237z"/>
<path d="M466.7,96.8c0,0.1,0,0.1-0.1,0.2c27.6,22,55,44.2,83.3,66.1c24,18.6,47.5,38.2,71.7,56.9c4.4,3.4,8.9,6.9,13.3,10.4
	c-52.7-41.9-106.3-84.7-156.2-124.1C474.6,103.1,470.6,99.9,466.7,96.8z"/>
<path d="M454.3,354c0.3,0,0.6,0,0.9,0.1c-2.4-1.9-4.9-3.9-7.4-5.8l0,5.2c0.1,0,0.3,0.1,0.6,0.1C449.4,353.7,451.1,353.8,454.3,354z"
	/>
<path d="M447.9,338.6l0,9.2c2.6,2.1,5.3,4.2,7.9,6.3c4.9,0.4,10.2,1.7,15.9,3.3C463.7,351.1,455.8,344.9,447.9,338.6z"/>
<path d="M491,363.5c-14.5-11.5-28.8-22.8-43.2-34.2l0,8.8c8.2,6.5,16.4,13,24.6,19.6C478.2,359.4,484.4,361.4,491,363.5z"/>
<path d="M447.8,319.9l0,8.4c15.1,12,30.2,24,45.3,35.9c5.1,1.6,10.4,3.1,16.1,4.5c-18.4-14.6-36.6-29-54.2-43
	C452.6,323.7,450.2,321.8,447.8,319.9z"/>
<path d="M447.8,310.6l0,7.6c21.5,17.1,43,34.2,64.4,51.1c4,0.9,8.2,1.7,12.5,2.3C499.2,351.3,473.5,331,447.8,310.6z"/>
<path d="M447.8,301.2l0,7c26.8,21.3,53.7,42.6,80.4,63.8c3.2,0.4,6.5,0.6,9.8,0.8C507.8,348.8,477.8,325,447.8,301.2z"/>
<path d="M447.8,291.9l0,6.4c6.1,4.8,12.1,9.6,18.1,14.4C492,333.6,517,353.2,542,373c0.6,0,1.2,0,1.8,0c0.5,0,1.1,0,1.6,0
	c1.5,0,3-0.1,4.4-0.1C516.4,346.3,482.1,319.1,447.8,291.9z"/>
<path d="M520.4,340.1c-24.2-19.4-48.3-38.4-72.6-57.6l0,5.8c18,14.3,36.1,28.6,54.6,43.3c17.4,13.8,34.5,27.4,51.6,40.9
	c2.1-0.2,4.2-0.4,6.3-0.6C547.1,361.4,533.8,350.9,520.4,340.1z"/>
<path d="M447.8,273.3l0,4.8c38.9,30.7,77.7,61.8,117.1,93.2c1.8-0.3,3.5-0.6,5.3-0.9C529,337.7,488.5,305.6,447.8,273.3z"/>
<path d="M513.7,316.3c-22-17.6-43.9-35-65.9-52.3l0,4.4c35.4,28.3,70.8,56.5,105.4,83.6c7.5,5.8,14.7,11.6,22,17.4
	c1.4-0.3,2.8-0.6,4.1-1C557.3,350.9,535.4,333.7,513.7,316.3z"/>
<path d="M447.8,254.7l0,3.6c1.3,1,2.5,2,3.8,3c43.3,34.4,88.5,70.1,133.1,105.5c1.1-0.3,2.2-0.6,3.3-0.9
	C540.9,328.6,494.2,291.5,447.8,254.7z"/>
<path d="M447.8,245.4l0,2.9c48.5,38.5,96.5,76.5,146,115.9c0.3-0.1,0.6-0.2,0.9-0.3c0.6-0.2,1.2-0.4,1.8-0.6
	C546.6,323.8,497.2,284.6,447.8,245.4z"/>
<path d="M579.6,340.6c-43.9-35.3-88.2-69.7-131.8-104.3l0,2c4.5,3.6,9,7.1,13.5,10.8c21.1,16.9,42.6,33.4,64,50.8
	c26.1,21.1,51.8,41,77.5,61.5c0.7-0.2,1.3-0.4,2-0.6C596.1,353.8,587.5,346.9,579.6,340.6z"/>
<path d="M497.6,266.2c-16.9-13.4-33.4-26.5-49.8-39.5l0,1.7c5.7,4.5,11.5,9.1,17.2,13.6c48.5,38.3,97.8,77.7,146.8,116.5
	c0.5-0.2,1-0.3,1.5-0.5C574.2,327.1,537.1,297.5,497.6,266.2z"/>
<path d="M502.3,260.6c-18.1-14.5-36.3-28.9-54.5-43.3l0,1.2C505.7,264.4,563,309.8,621,356c0.4-0.1,0.8-0.2,1.2-0.3
	C582.8,324.2,541.2,291.9,502.3,260.6z"/>
<path d="M447.8,208l0,0.6c61.3,48.6,122.2,96.9,183.6,145.7c0.3,0,0.6,0,0.9-0.1C570.5,305.4,509,256.5,447.8,208z"/>
<path d="M638.5,350C638.6,350,638.6,350,638.5,350c-39.7-31.2-78.1-62.9-118.3-94c-24-18.6-47.5-38.2-71.7-56.9
	c-0.2-0.2-0.5-0.4-0.7-0.6l0,0.1c48.6,38.7,97.7,77.8,143.6,114.1C608,325.9,623,337.8,638.5,350z"/>
<path d="M55.9,158.5l47.7-9.6c1.4-1.6,7.4-9,10.1-21.2c1.5-7,4-19.9,9.4-32.6c6.1-14.5,15.3-25.4,30.1-31.2l-0.6,0.2l4.4-1.3
	c-3.5-5-3.3-10.8-3.4-13.6c0-0.3-0.1-0.1-0.1-0.3l-114,34.5L55.9,158.5z"/>
<path d="M593.8,48.2l-0.3,0c-4-0.3-12.4-0.7-20.4-1l24.2,16.6c14.5,8.5,23,21,28.2,33.1c5.2,12.1,7.2,23.9,8.7,30.9
	c1.5,7,4.1,12.4,6.3,16.1c1.1,1.8,2.2,3.5,3,4.5c0.2,0.3,4.1,0.7,4.3,0.9l46.3,8.5l16.6-74.4L593.8,48.2z"/>
</svg>
