<?xml version="1.0" encoding="utf-8"?>
<!-- Generator: Adobe Illustrator 25.3.0, SVG Export Plug-In . SVG Version: 6.00 Build 0)  -->
<svg version="1.1" id="Layer_1" xmlns="http://www.w3.org/2000/svg" xmlns:xlink="http://www.w3.org/1999/xlink" x="0px" y="0px"
	 viewBox="0 0 750.2 400.1" style="enable-background:new 0 0 750.2 400.1;" xml:space="preserve">
<g>
	<polygon points="146.6,151.2 143.3,151.2 142.9,152.9 	"/>
	<polygon points="253.2,149.5 253.2,151.1 297,151.1 297,154.8 300.2,159.7 300.2,154.4 297.1,149.6 	"/>
	<polygon points="300.2,247.5 300.2,245.4 297,244.9 297,247.1 	"/>
	<polygon points="296.2,236.5 300.2,237.1 300.2,234.9 297.6,234.6 282.1,203.2 283.3,202.6 300.2,212.3 300.2,208.1 283.5,198.4 
		280.5,199.9 279.3,197.5 276.9,197.5 	"/>
	<polygon points="297,290.2 290.7,290.2 300.1,292 300.1,288.2 297.3,287.7 300.1,285 300.1,281.9 297,285 297,287.7 	"/>
	<polygon points="300.2,177.4 300.2,173.1 297,171.3 297,175.5 	"/>
	<polygon points="253.2,197.5 253.2,197.5 253.2,197.5 	"/>
	<polygon points="286.5,243.8 289,243.8 288.9,243.7 266.1,197.5 263.7,197.5 	"/>
	<polygon points="252.8,197.4 252.8,193.4 250.8,197.4 	"/>
	<polygon points="300.1,259.4 300.1,257.2 297,256.8 297,258.9 	"/>
	<polygon points="253.2,223.2 253.2,228 258.4,217.4 271.4,243.8 273.8,243.8 258.4,212.5 	"/>
	<polygon points="210.1,243.9 209.1,243.9 209.1,250.7 221,277.4 252.8,283.3 252.8,279.5 250.9,279.2 244.7,273.1 252.8,271.9 
		252.8,269.7 252.8,269.8 240.1,271.6 247.1,278.5 235.7,276.4 231.9,275.7 223.6,274.2 217,259.4 239.3,256.1 245.4,243.9 
		243,243.9 237.9,254.1 216.1,257.3 212,248.2 229.4,245.7 230.3,243.9 226.9,243.9 211.1,246.2 	"/>
	<path d="M121,100.5l-0.3-0.2v1.1C120.8,101.1,120.9,100.8,121,100.5z"/>
	<path d="M122.1,101c-0.3,0.7-0.5,1.4-0.7,2l3.1,1.6h4.6L122.1,101z"/>
	<polygon points="47.3,81 43.7,102.2 44.9,107.8 49.6,80.3 	"/>
	<polygon points="76.5,104.8 76.5,102.6 47.1,118 47.6,120.2 76.8,104.8 	"/>
	<path d="M151.4,64.6l-1-6.1h-2.2l1.2,7C150,65.2,150.7,64.9,151.4,64.6z"/>
	<path d="M151.6,65.6c-0.7,0.3-1.4,0.6-2,0.9l6.5,38.2h2.2L151.6,65.6z"/>
	<path d="M162.5,67l2.4,14V69.1C164.1,68.4,163.3,67.7,162.5,67z"/>
	<polygon points="121.2,58.6 120.7,58.8 120.7,62.6 122,63.3 	"/>
	<polygon points="62.5,89.8 65,75.7 62.7,76.4 59.7,93.8 76.5,85 76.5,82.5 	"/>
	<path d="M128.7,86.9l13.1,6.9l-3.3-19.4c-0.6,0.6-1.3,1.2-1.9,1.9l2.3,13.6l-9.1-4.8C129.4,85.6,129.1,86.2,128.7,86.9z"/>
	<path d="M127.5,86.3c0.4-0.6,0.7-1.2,1.1-1.8l-8-4.2v2.4L127.5,86.3z"/>
	<path d="M138.2,73l-2.5-14.5h-2.2l2.8,16.2C137,74.1,137.6,73.5,138.2,73z"/>
	<path d="M290.4,131.3c-0.3-0.9-0.5-1.9-0.8-2.9l-36.5-0.1v2.9L290.4,131.3z"/>
	<polygon points="275.6,57.7 275.1,56 271.8,54.9 272.4,57.1 271.4,58.3 275.1,58.3 	"/>
	<path d="M290.7,128.4c0.2,1,0.5,2,0.8,2.9l15.6,0l14.2,21.6l4,0.8l-16.7-25.3L290.7,128.4z"/>
	<polygon points="252.8,86.9 252.8,82.3 235.3,104.7 239,104.7 	"/>
	<polygon points="253.2,54.1 253.2,58.3 253.6,58.3 254.2,57.6 	"/>
	<path d="M252.8,59.4v-0.9h-2.9l-0.5,0.6c-0.5,1.2-1.2,2.5-2.1,3.7l2.3,0.7L252.8,59.4z"/>
	<path d="M217.6,104.7l31.5-40.5l-2.3-0.7c-1.5,2-3.4,4-5.4,5.9l-9.7,12.5l-2.4,0.3l1.2,1.3l-16,20.5l-5.4-5.7v5.3l1.1,1.1H217.6z"
		/>
	<path d="M164.6,151.2l0.3,0.7v-0.8h3.6l-2.5-5.6l9.7,5.6H209v-1.6l-26.2-0.1l26.2-33.7v-4.7l-12.7,16.3l-21.5-22.6H169l7.3,42.4
		l-11.5-6v10H164.6z M171.5,106.6l22.5,23.7L180.2,148l-2-2.1L171.5,106.6z"/>
	<polygon points="214.4,197.4 224,197.4 241.8,188.9 237.6,197.4 240,197.4 252.8,171.4 252.8,166.6 244.4,183.5 218.4,196 
		227.6,152.4 252.8,152.5 252.8,151.2 209.1,151.2 209.1,152.4 223.8,152.4 	"/>
	<polygon points="350,103.4 334.7,80.2 306.8,80.1 316,68.3 313,67.4 300.9,83 333.1,83.1 350.8,110 360.4,81.8 357.7,80.9 	"/>
	<path d="M284.6,107.1c-0.2-0.8-0.5-1.5-0.7-2.3h-24.3l-1.8,2.3L284.6,107.1z"/>
	<path d="M297,104.2v0.6h-12.2c0.3,0.8,0.5,1.5,0.7,2.3l34.5,0.1l30.4,46.2l0.9-4l-29.7-45.1L297,104.2z"/>
	<polygon points="322.9,70.4 322.4,71 324.8,71 	"/>
	<polygon points="351.2,79 348.5,78.2 348.2,78.8 347.6,77.9 343.2,76.6 349,85.4 	"/>
	<polygon points="126.9,243.9 120.7,255.3 120.7,263 131,243.9 	"/>
	<polygon points="164.9,197.5 164.9,192.5 160.3,182.2 152,197.4 156.2,197.4 160,190.5 163.1,197.4 164.8,197.4 164.8,201.2 
		183.8,243.8 187.8,243.8 167.1,197.5 	"/>
	<polygon points="209.1,290.1 213,290.1 209.1,289.4 	"/>
	<polygon points="209,293.1 209,290.2 204.6,290.2 205.6,292.5 	"/>
	<polygon points="300.1,331.6 300.1,326.6 289.2,336.5 294.7,336.5 	"/>
	<polygon points="300.1,309.9 300.1,306.1 253.2,297.5 253.2,301.2 	"/>
	<path d="M106.6,147.2c-0.9,1.3-1.6,2.1-1.9,2.4l0,0.9l0.5,0.5h4.3l0.1-0.6L106.6,147.2z"/>
	<path d="M117.5,116.3c-0.3,1.4-0.7,2.8-0.9,4.2l3.9,4.1v-6.7L117.5,116.3z"/>
	<path d="M81,120.3l19.8-10.4l11.6,6.1l3.2,3.3c0.3-1.2,0.6-2.4,0.9-3.6l-15.6-8.2l-50.2,26.4l0.7,3.1l17.9,18.8l4.2-0.9L54,134.5
		l23.6-12.4l25.6,26.9l0.5-0.1c0.4-0.4,1.1-1.3,2-2.6L81,120.3z"/>
	<polygon points="209,243.8 209,241.4 207.6,238.4 209,238.2 209,234.1 206.3,235.4 191.8,203.2 193,197.5 185.3,197.5 206,243.8 	
		"/>
	<polygon points="104.7,305.4 104.7,309.1 120.5,307.4 120.5,303.7 	"/>
	<polygon points="104.7,325.5 104.7,329.2 120.5,327.5 120.5,323.8 	"/>
	<polygon points="104.8,330.1 104.8,335.4 105.7,336.5 110.8,336.5 	"/>
	<polygon points="154.2,290.1 158.1,290.1 156.3,286.1 	"/>
	<polygon points="209,330 173.1,323.4 164.8,304.9 164.8,313.9 170.5,326.7 205.3,333.1 201.6,336.5 207.1,336.5 209,334.8 	"/>
	<path d="M122.8,354.4c1.7,0.1,3.5,0.2,5.3,0.3l-7.5-7.9v5.3L122.8,354.4z"/>
	<polygon points="153,243.9 128,290.1 132.2,290.1 157.2,243.9 	"/>
	<polygon points="183.4,290.2 179.4,290.2 188,309.6 209,313.4 209,309.7 190.6,306.3 	"/>
	<path d="M222.5,357.2c1.9-0.1,3.8-0.1,5.7-0.2l22.5-20.4h-5.5L222.5,357.2z"/>
	<polygon points="164.9,257.8 164.9,248.8 162.7,243.9 158.6,243.9 	"/>
	<polygon points="260.4,322.9 253.2,329.4 253.2,334.4 268.4,320.6 253.2,317.8 253.2,321.6 	"/>
	<path d="M138.3,349.4l-1.2,5.8c1.2,0.1,2.5,0.1,3.7,0.2l1.5-7.1l-11.1-11.7h-5.1L138.3,349.4z"/>
	<polygon points="164.8,332.1 164.8,335.8 168.3,336.5 185.2,336.5 185.7,335.9 	"/>
	<polygon points="104.7,201 104.7,204.8 110.2,197.5 107.3,197.5 	"/>
	<path d="M123.2,197.4h2.9l10.1-13.3l-7.2,13.3h4.2l25-46.2H154l-6.7,12.4l-17.2,8.2l4.3-20.6h-3.7l-5.1,24.2l-5,1.4v2.4l21-6
		L123.2,197.4z M139.5,171.4l4.9-2.3l-0.6,1.1L139.5,171.4z"/>
	<polygon points="120.5,209.9 114.3,213 120.5,204.7 120.5,200.9 104.7,221.8 104.7,225.5 109.4,219.3 119.8,214.4 104.7,242.3 
		104.7,243.8 108.1,243.8 120.5,220.7 	"/>
	<polygon points="159.6,140.9 150.2,136 148,146.4 159.6,140.9 	"/>
	<polygon points="174,163.3 174.4,163.5 176.9,151.7 175.7,151.1 168.5,151.1 	"/>
	<polygon points="146.6,151.2 154,151.2 156.6,146.4 	"/>
	<polygon points="146.9,134.2 122.5,121.4 137.5,137.1 134.5,151.2 143.3,151.2 	"/>
	<polygon points="129,197.4 126.1,197.4 120.5,204.7 120.5,209.9 122.8,208.9 	"/>
	<polygon points="120.5,151.2 120.5,151.1 109.5,151.1 104.7,173.9 104.7,181.4 120.7,176.8 120.7,151.2 	"/>
	<polygon points="120.7,151.2 130.8,151.2 133.5,138.2 120.5,124.6 120.5,151.1 120.7,151.1 	"/>
	<polygon points="76.5,154.4 92.9,151.1 76.5,151.1 	"/>
	<polygon points="104.7,156.1 105.6,151.6 105.2,151.1 104.7,151.1 	"/>
	<polygon points="252.8,152.5 252.8,166.6 258.4,155.2 267.1,172.7 284.8,164.2 297,171.3 297,154.8 295.6,152.5 	"/>
	<path d="M201.7,85c-0.4,0-0.7,0-1.1,0c-1.5,0-3-0.2-4.4-0.4l13,13.6V84.4C206.6,84.8,204.2,85,201.7,85z"/>
	<polygon points="219.3,234.6 220.1,232.8 215.3,235.1 	"/>
	<polygon points="176.9,169.7 189.3,197.5 198.8,152.4 180.5,152.3 	"/>
	<polygon points="209,234.1 222.7,227.5 237.6,197.4 224,197.4 213.3,202.5 214.4,197.4 209.1,197.4 209.1,152.4 202.5,152.4 
		193,197.5 209,197.5 	"/>
	<path d="M250.6,55.7c-0.2,0.9-0.6,1.8-0.9,2.7h0.2L251,57L250.6,55.7z"/>
	<path d="M209,111.1l3.3-4.2l-2.1-2.2h-1.1v-1.1L190,83.5c-2.5-0.6-7.5-2.1-12.2-4.7c-3.6-2-8.3-5.7-12.8-9.6l5.3,30.9l4.5,4.7H209
		V111.1z"/>
	<polygon points="268.7,176 279.3,197.5 297,197.5 297,175.5 284.6,168.4 	"/>
	<polygon points="265.6,281.9 265.3,279.8 272.1,273.1 262.7,271.7 258.4,263.2 254.2,271.7 252.8,271.9 252.8,279.5 	"/>
	<polygon points="264.1,269.8 276.8,271.6 267.6,280.6 267.9,282.3 273.9,283.4 288.2,269.5 267.6,266.5 258.4,247.9 252.8,259.3 
		252.8,269.7 258.4,258.3 	"/>
	<polygon points="271.4,243.8 258.8,243.8 269,264.6 292.8,268 276.5,283.9 294.7,287.2 297,285 297,258.9 277.5,256.1 	"/>
	<polygon points="252.8,243.9 252.8,254.4 258.1,243.8 253.2,243.8 253.2,228 245.4,243.9 	"/>
	<polygon points="297,243.8 289,243.8 297,244.9 	"/>
	<polygon points="220.7,236.5 209,238.2 209,241.4 210.1,243.9 226.9,243.9 228,243.7 250.8,197.4 240,197.4 	"/>
	<polygon points="252.8,171.4 252.8,193.4 258.4,182 266.1,197.5 276.9,197.5 258.4,160.1 	"/>
	<polygon points="286.5,243.8 273.8,243.8 279,254.1 297,256.8 297,247.1 287.4,245.7 	"/>
	<polygon points="253.2,223.2 253.2,197.5 230.3,243.9 243,243.9 	"/>
	<polygon points="258.4,186.9 253.2,197.5 263.7,197.5 	"/>
	<polygon points="119.1,59.3 119.1,59.3 119.1,59.3 	"/>
	<polygon points="133,55.1 121.8,58.5 133.6,58.5 	"/>
	<polygon points="120.7,80.2 120.7,62.6 116.1,60.2 76.5,72.2 76.5,82.5 100.8,69.7 	"/>
	<path d="M120.3,102.5l-19.5-10.3l-23.9,12.6h42.6C119.7,104.1,120,103.3,120.3,102.5z"/>
	<path d="M162,136.5l1.9,4.2l0.9,0.5v-36.5h-6.5l3.4,19.6l-37.2-19.6h-3.6c-0.1,0.3-0.2,0.5-0.3,0.8v12.4l40.1,21.1L162,136.5z"/>
	<polygon points="164.9,104.8 169,104.8 164.9,81 	"/>
	<path d="M153.8,52.8l-3.8,3.7l0.3,2h4.5C154.2,56.5,153.9,54.5,153.8,52.8z"/>
	<polygon points="156.1,104.7 129,104.7 158.8,120.3 	"/>
	<path d="M147.7,55.7l0.4-0.4l5.6-5.4c0-0.3,0-0.5,0-0.8c0-0.3-0.1-0.1-0.1-0.3l-18.5,5.6l0.7,4h12.4L147.7,55.7z"/>
	<polygon points="120.7,100.3 120.7,82.7 100.8,72.2 76.5,85 76.5,102.6 100.8,89.8 	"/>
	<path d="M283.6,104.2c-1-3-2.1-6-3.4-9c-1.1-2.5-2.3-5-3.7-7.4l-12.7,16.4L283.6,104.2z"/>
	<path d="M296.3,62.4L277.1,87c1.5,2.6,2.8,5.2,4,7.9c1.4,3.1,2.6,6.3,3.6,9.4l12.4,0V62.6L296.3,62.4z"/>
	<polygon points="209,149.5 253.2,149.5 253.2,131.2 214.8,131.1 235.3,104.7 217.6,104.7 209,115.7 	"/>
	<polygon points="251.6,48.8 253.2,54.1 253.2,49.3 	"/>
	<path d="M262.4,69.9l9-11.6h-17.8l-0.8,1.1v5C256.3,65.9,259.5,67.8,262.4,69.9z"/>
	<path d="M252.8,65.5v16.8l9-11.6C259.1,68.7,256.1,66.9,252.8,65.5z"/>
	<path d="M275.5,84.4l17.8-22.9L283,58.3h-7.9l-10.4,13.4C269,75.4,272.5,79.7,275.5,84.4z"/>
	<path d="M239,104.7l-18.3,23.5l32.5,0.1v-23.5h6.4l15.3-19.6c-2.9-4.7-6.5-9-10.8-12.7l-11.2,14.4v17.8H239z"/>
	<path d="M164.9,356.5c0.6,0,1.2,0.1,1.8,0.1l-1-7.4l12.1-10.9l-9.5-1.7h-3.4V356.5z"/>
	<polygon points="155,320.3 147.3,334.7 131,336.4 131.2,336.6 164.8,336.6 164.8,335.8 161.7,335.2 	"/>
	<polygon points="145,331.3 155.4,312.1 164.3,332 164.8,332.1 164.8,313.9 156,294.4 139.2,325.5 120.5,327.5 120.5,336.5 
		110.8,336.5 120.7,346.8 120.7,336.6 126.1,336.6 123.3,333.6 	"/>
	<path d="M169.5,350.6l0.8,6.2c3,0.1,5.9,0.2,8.7,0.3l0-0.2l22.6-20.4h-16.4L169.5,350.6z"/>
	<path d="M104.8,336.5l0,10.9l1.5,3.6l-1.5,0l0,2.4c0.5,0,1.4,0.1,2.6,0.2c2,0.1,4.8,0.3,8.4,0.5c1.5,0.1,3.2,0.2,4.9,0.3v-2.1
		l-14.9-15.7H104.8z"/>
	<polygon points="154.2,290.1 132.2,290.1 123,307.1 120.5,307.4 120.5,323.8 136.9,322.1 	"/>
	<polygon points="158.1,290.1 164.8,304.9 164.8,290.1 	"/>
	<polygon points="164.9,290.2 179.4,290.2 164.9,257.8 	"/>
	<polygon points="157.2,243.9 158.6,243.9 158,242.4 	"/>
	<path d="M253.2,321.6l-44.2-8.1V330l4.3,0.8l-4.3,3.9v1.7h-1.9l-23,20.8c7,0.2,13.3,0.4,18.2,0.4c2,0,4.3,0,6.8-0.1v-20.9h36.2
		l7.9-7.1V321.6z"/>
	<polygon points="161.7,144.7 158.2,151.2 164.6,151.2 	"/>
	<polygon points="167.1,197.5 185.3,197.5 164.9,151.9 164.9,192.5 	"/>
	<polygon points="126.9,243.9 152,197.4 133.2,197.4 120.5,220.7 120.5,243.8 108.1,243.8 104.7,250 104.7,284.8 120.7,255.3 
		120.7,243.9 	"/>
	<polygon points="252.8,290.1 213,290.1 253.2,297.5 253.2,290.2 290.7,290.2 252.8,283.3 	"/>
	<polygon points="206,243.8 187.8,243.8 208.1,289.2 209.1,289.4 209.1,250.7 	"/>
	<path d="M297,353.5v-17h-2.3l-20.3,18.3C284.4,354.2,292.6,353.8,297,353.5z"/>
	<polygon points="128,290.1 120.7,290.1 120.7,263 106.8,288.7 104.7,289 104.7,290.2 120.5,290.2 120.5,303.7 120.7,303.7 	"/>
	<polygon points="162.7,243.9 164.8,243.9 164.8,201.2 163.1,197.4 156.2,197.4 131,243.9 153,243.9 158.3,234.1 	"/>
	<polygon points="164.9,248.8 183.4,290.2 204.6,290.2 183.8,243.8 164.9,243.8 	"/>
	<polygon points="209,309.7 253.2,317.8 253.2,301.2 209,293.1 	"/>
	<path d="M252.8,336.6v19.3c5.4-0.3,10.8-0.5,15.8-0.8l20.6-18.6h-36v-2.1l-2.4,2.2H252.8z"/>
	<polygon points="120.7,197.4 120.7,179.2 104.7,183.7 104.7,194.5 114.7,191.6 110.2,197.5 120.5,197.5 120.5,200.9 123.2,197.4 	
		"/>
	<polygon points="104.7,196.8 104.7,197.5 107.3,197.5 108.7,195.7 	"/>
	<polygon points="573.8,151.2 570.5,151.2 574.2,152.9 	"/>
	<polygon points="447.8,151.1 463.9,151.1 463.9,149.5 447.8,149.6 	"/>
	<polygon points="416.6,154.7 420.1,154 420.1,151.1 435.4,151.1 443.1,149.6 420,149.6 	"/>
	<polygon points="463.9,197.5 463.9,197.5 463.9,197.5 	"/>
	<polygon points="447.8,204.1 447.8,208.9 453.4,197.5 451,197.5 	"/>
	<polygon points="464.3,197.4 466.2,197.4 464.3,193.4 	"/>
	<polygon points="458.7,212.5 447.8,234.5 447.8,239.4 458.7,217.4 463.9,228 463.9,223.2 	"/>
	<polygon points="508,250.7 508,243.9 507,243.9 506,246.2 490.2,243.9 486.8,243.9 487.7,245.7 505.1,248.2 501,257.3 479.2,254.1 
		474.1,243.9 471.7,243.9 477.8,256.1 500.1,259.4 493.5,274.2 485.2,275.7 481.4,276.4 470,278.5 477,271.6 464.3,269.8 
		464.3,269.7 464.3,271.9 472.4,273.1 466.2,279.2 464.3,279.5 464.3,283.3 496.1,277.4 	"/>
	<polygon points="592.7,104.7 596.4,102.7 596.4,100.3 588.1,104.7 	"/>
	<polygon points="640.2,104.8 677.2,124.3 668,70.5 665.7,69.9 674.4,120.3 640.6,102.6 640.6,104.8 	"/>
	<polygon points="568.9,58.5 566.7,58.5 558.8,104.7 561,104.7 	"/>
	<polygon points="553,63.9 552.2,68.3 552.2,81 555.3,63.1 554.9,62.7 552.2,60.2 552.2,63.2 	"/>
	<path d="M519.8,47.1c-2.8,0.1-5.5,0.3-7.9,0.4l0,0c-1.3,0.1-2.6,0.2-3.8,0.2v0.1l9.1,1L519.8,47.1z"/>
	<path d="M538.3,46.6c-1,0-2,0-3,0l0.4,0.4l-3-0.3c-3.8,0.1-7.5,0.2-11,0.3l-2.9,1.9l21.1,2.3l7.4,7.2h3.1L538.3,46.6z"/>
	<polygon points="598.1,58.3 599.6,50 597.5,49.3 596.5,54.8 596.5,58.3 	"/>
	<polygon points="612.8,53.9 609.9,53.1 599.8,58.3 604.5,58.3 	"/>
	<polygon points="595.9,58.5 595.3,62.3 596,62.8 596.4,62.6 596.4,58.5 	"/>
	<polygon points="657.4,93.8 652.6,65.9 650.3,65.2 654.5,89.8 640.6,82.5 640.6,85 	"/>
	<polygon points="596.4,82.7 596.4,80.2 578.1,89.8 583.5,58.5 581.3,58.5 575.3,93.8 	"/>
	<path d="M456.8,128.3l-48.3,0.1l-10.7,16.3l0.9,4l11.4-17.3l46-0.1C456.3,130.3,456.5,129.3,456.8,128.3z"/>
	<path d="M457.8,128.3c-0.2,1-0.5,2-0.7,2.9l6.9,0v-2.9L457.8,128.3z"/>
	<path d="M469.5,89l-5.2-6.7v4.7l3.7,4.8C468.5,90.8,469,89.9,469.5,89z"/>
	<path d="M470.1,89.8c-0.5,0.9-1,1.9-1.5,2.8l9.4,12.1h3.6L470.1,89.8z"/>
	<path d="M479.9,74.8L471.5,64l18.8,2c1.1-0.8,2.3-1.5,3.5-2.2l1.5-0.9L468.3,60l-1.2-1.5h-1.1l-1.8,0.6v0.4l13.6,17.5
		C478.5,76.2,479.2,75.5,479.9,74.8z"/>
	<path d="M508,103.6v-5.3l-5.4,5.7l-16-20.5l1.2-1.3l-2.4-0.3l-4.9-6.4c-0.7,0.7-1.3,1.4-2,2.2l21,27h7.4L508,103.6z"/>
	<path d="M496.8,63l-2.5,1.6l0,0c-0.9,0.5-1.7,1-2.5,1.5l16.2,1.7v-3.7L496.8,63z"/>
	<path d="M552.3,151.2v-10l-11.5,6l7.3-42.4h-5.8l-21.5,22.6l-12.7-16.3v4.7l26.2,33.7l-26.2,0.1v1.6h33.2l9.7-5.6l-2.5,5.6h3.6v0.8
		l0.3-0.7H552.3z M536.9,148l-13.8-17.7l22.5-23.7l-6.7,39.3L536.9,148z"/>
	<polygon points="479.5,197.4 475.3,188.9 493.1,197.4 502.7,197.4 493.2,152.4 508,152.4 508,151.2 464.3,151.2 464.3,152.5 
		489.5,152.4 498.7,196 472.7,183.5 464.3,166.6 464.3,171.4 477.1,197.4 	"/>
	<polygon points="410.3,75.4 407.4,76.3 410.3,80.1 394.8,80.1 385.1,83.1 416.2,83 	"/>
	<polygon points="457.5,104.8 420.1,104.8 420.1,104.2 395.5,104.3 390.5,111.9 391.4,115.8 397,107.2 459.3,107.1 	"/>
	<polygon points="586.1,243.9 596.4,263 596.4,255.3 590.2,243.9 	"/>
	<polygon points="552.3,197.4 554,197.4 557.1,190.5 560.9,197.4 565.1,197.4 556.8,182.2 552.2,192.5 552.2,197.5 550,197.5 
		529.3,243.8 533.3,243.8 552.3,201.2 	"/>
	<polygon points="508,290.1 508,289.4 504.1,290.1 	"/>
	<polygon points="512.5,290.2 508.1,290.2 508.1,293.1 511.5,292.5 	"/>
	<polygon points="447.8,300.5 447.8,304.2 463.9,301.2 463.9,297.5 	"/>
	<path d="M604.7,116l11.6-6.1l14.6,7.7c-0.2-0.9-0.4-1.8-0.7-2.8l-13.9-7.3l-19.8,10.4v6.7L604.7,116z"/>
	<path d="M710.3,84.9l-22.9,24l-5-29.4l24.3,2.6l-19-5.7l-5.9-0.6l-0.2-1.2l-2.3-0.7l12.6,73.3l-60.3-31.7c0.2,0.9,0.4,1.9,0.6,2.8
		l3.9,2.1l-2.8,3c0.3,1.6,0.6,3.1,0.9,4.4l5.3-5.6l23.6,12.4L649,149.4l4.3,0.8l13.2-13.9l20.4,10.7l-7.6,8l4.3,0.8l6.7-7l4.4,2.3
		l-1-5.9l4.2-4.4l1.5-6.9l-6.5,6.8l-4.7-27.3l20.5-21.6L710.3,84.9z"/>
	<polygon points="640.8,189.5 640.6,189.5 640.6,191.9 643.3,192.6 643.3,183.9 640.6,171.2 640.6,189 	"/>
	<polygon points="643.1,350.9 643.2,348.3 640.6,348.4 640.6,350.9 	"/>
	<path d="M633.3,128.6c0-0.2-0.1-0.4-0.2-0.6c-0.2-1.1-0.5-2.4-0.8-3.7l-24.9,26.2l0.1,0.6h4.3L633.3,128.6z"/>
	<polygon points="640.6,163.5 643.3,160.7 643.3,155.3 640.6,158.2 	"/>
	<polygon points="510.8,235.4 508.1,234.1 508.1,238.2 509.5,238.4 508.1,241.4 508.1,243.8 511.1,243.8 531.8,197.5 524.1,197.5 
		525.2,203.2 	"/>
	<polygon points="635.2,291.4 628.8,307.1 596.5,303.7 596.5,307.4 627.3,310.7 620.9,326.4 596.5,323.8 596.5,327.5 613.1,329.3 
		606.3,336.5 611.4,336.5 620.9,326.5 616.8,336.5 620.2,336.5 639.1,290.2 624.3,290.2 	"/>
	<polygon points="558.9,290.1 562.9,290.1 560.7,286.1 	"/>
	<polygon points="546.6,326.7 552.3,313.9 552.3,304.9 544,323.4 508.1,330 508.1,334.8 510,336.5 515.5,336.5 511.8,333.1 	"/>
	<path d="M588.7,354.9l2.1,10.2c1.2-0.4,2.4-0.7,3.5-1.1l-1.7-7.9l3.7-3.9v-5.3L588.7,354.9z"/>
	<polygon points="584.9,290.1 589.1,290.1 564.1,243.9 559.9,243.9 	"/>
	<polygon points="537.7,290.2 533.7,290.2 526.5,306.3 508.1,309.7 508.1,313.4 529.1,309.6 	"/>
	<path d="M498.7,365.8c2.5,0.7,5.2,1.5,7.8,2.1l-34.7-31.4h-5.5L498.7,365.8z"/>
	<polygon points="552.2,248.8 552.2,257.8 558.4,243.9 554.4,243.9 	"/>
	<polygon points="456.7,322.9 463.9,321.6 463.9,317.8 448.7,320.6 463.9,334.4 463.9,329.4 	"/>
	<path d="M574.8,348.3l3.4,16l-14.7-7l-11.2,6.5v4.2l11.4-6.5l15,7.2c1.4-0.3,2.7-0.7,4-1l-3.8-18.1l12.2-12.8h-5.1L574.8,348.3z"/>
	<polygon points="531.9,336.5 548.8,336.5 552.3,335.8 552.3,332.1 531.3,335.9 	"/>
	<polygon points="643.2,333 643.2,330.5 639,330.5 643.2,320.4 643.2,312 634.6,333 	"/>
	<polygon points="643.3,205.7 643.3,203.3 623.1,197.5 614.8,197.5 	"/>
	<polygon points="643.3,245.3 643.3,241.6 609.8,197.5 606.9,197.5 	"/>
	<path d="M586.3,151.2h-3.7l4.3,20.6l-17.2-8.2l-6.7-12.4h-4.2l25,46.2h4.2l-7.2-13.3l10.1,13.3h2.9l-18.5-24.3l21,6v-2.4l-5-1.4
		L586.3,151.2z M573.3,170.1l-0.6-1.1l4.9,2.3L573.3,170.1z"/>
	<polygon points="602.8,213 596.5,209.9 596.5,220.7 609,243.8 613.2,243.8 597.3,214.4 607.7,219.3 626.3,243.8 629.1,243.8 
		596.5,200.9 596.5,204.7 	"/>
	<polygon points="642.1,274.4 640.6,278 640.6,286.4 643.2,280.1 643.2,270.9 640.6,270.6 640.6,274.3 	"/>
	<polygon points="643,265.7 640.6,264.6 640.6,268.7 643.2,269.9 643.2,262.3 640.6,258.9 640.6,262.7 	"/>
	<polygon points="643.3,221.8 643.3,218.2 639.8,217.2 	"/>
	<polygon points="569.1,146.4 566.8,136 557.5,140.9 557.5,140.9 	"/>
	<polygon points="540.2,151.7 542.7,163.5 543.1,163.3 548.6,151.1 541.4,151.1 	"/>
	<polygon points="560.5,146.4 563.1,151.2 570.5,151.2 	"/>
	<polygon points="579.6,137.1 594.6,121.4 570.2,134.2 573.8,151.2 582.6,151.2 	"/>
	<polygon points="594.3,208.9 596.5,209.9 596.5,204.7 591,197.4 588.1,197.4 	"/>
	<polygon points="596.4,151.2 596.4,176.8 614.1,181.9 607.6,151.1 596.5,151.1 596.5,151.2 	"/>
	<polygon points="586.3,151.2 596.4,151.2 596.4,151.1 596.5,151.1 596.5,124.6 583.6,138.2 	"/>
	<polygon points="626.9,269.1 640.6,270.6 640.6,268.7 621.8,259.7 	"/>
	<polygon points="640.6,171.2 640.6,163.5 639.3,164.9 	"/>
	<polygon points="618.1,183 640.6,189.5 640.6,189 635.3,163.8 640.6,158.2 640.6,151.1 611.9,151.1 611.5,151.6 	"/>
	<polygon points="640.6,264.6 640.6,262.7 626.3,243.8 613.2,243.8 618.8,254.2 	"/>
	<polygon points="420.7,153.9 427.7,152.5 421.5,152.5 	"/>
	<polygon points="447.8,152.5 447.8,171.6 450,172.7 458.7,155.2 464.3,166.6 464.3,152.5 	"/>
	<polygon points="508,67.9 508,98.3 534.2,70.7 	"/>
	<polygon points="501.8,235.1 497,232.8 497.8,234.6 	"/>
	<polygon points="540.2,169.7 536.6,152.3 518.3,152.4 527.8,197.5 	"/>
	<polygon points="502.7,197.4 503.8,202.5 493.1,197.4 479.5,197.4 494.4,227.5 508.1,234.1 508.1,197.5 524.1,197.5 514.5,152.4 
		508,152.4 508,197.4 	"/>
	<polygon points="508,103.6 508,104.7 506.9,104.7 504.9,106.9 508.1,111.1 508.1,104.8 542.3,104.8 546.7,100.1 552.2,68.3 
		552.2,63.2 547.3,58.3 508.1,58.3 508.1,55.7 503.8,58.5 508,58.5 508,64.2 542,67.8 	"/>
	<path d="M508.1,54.6v-6.8l-0.4,0c-0.6,0-1.2,0.1-1.7,0.1c-1.9,0.1-3.5,0.2-4.8,0.3c-1.1,0.1-1.6,0.1-1.9,0.2l0,0l-0.1,0
		c0,0,0,0-0.1,0l-14,4.3L467,58.2l0.2,0.3H502L508.1,54.6z"/>
	<polygon points="447.8,175.7 447.8,177.2 448.4,176 	"/>
	<polygon points="462.9,271.7 458.7,263.2 454.4,271.7 447.8,272.7 447.8,275.9 451.8,279.8 451.4,281.9 464.3,279.5 464.3,271.9 	
		"/>
	<polygon points="449.5,280.6 447.8,278.9 447.8,282.6 449.2,282.3 	"/>
	<polygon points="458.7,247.9 449.5,266.5 447.8,266.8 447.8,270.5 453,269.8 458.7,258.3 464.3,269.7 464.3,259.3 	"/>
	<polygon points="458.3,243.8 447.8,243.8 447.8,264.6 448,264.6 	"/>
	<polygon points="463.9,243.8 459,243.8 464.3,254.4 464.3,243.9 471.7,243.9 463.9,228 	"/>
	<polygon points="508.1,238.2 496.4,236.5 477.1,197.4 466.2,197.4 489.1,243.7 490.2,243.9 507,243.9 508.1,241.4 	"/>
	<polygon points="464.3,193.4 464.3,171.4 458.7,160.1 447.8,182.1 447.8,197.5 451,197.5 458.7,182 	"/>
	<polygon points="486.8,243.9 463.9,197.5 463.9,223.2 474.1,243.9 	"/>
	<polygon points="453.4,197.5 463.9,197.5 458.7,186.9 	"/>
	<polygon points="599.8,58.3 598.1,58.3 597.9,59.3 	"/>
	<path d="M595.9,58.5l0.6-3.7V49l-2.8-0.8l-0.3,0c-1.9-0.1-4.8-0.3-8.2-0.5l-1.2,7l5.5,3.8H595.9z"/>
	<polygon points="584,55.8 583.5,58.5 587.9,58.5 	"/>
	<path d="M596.4,63.1l0.9,0.6c4.7,2.8,8.8,6,12.3,9.5l6.6-3.5l24.3,12.8V62.3l-3.4-1l0.3,2l-8.4-4.4l-1.8-0.5h-23l-8,4.2V63.1z"/>
	<path d="M596.7,64.6L596.7,64.6l-0.3-0.2v15.8l12.3-6.5C605.3,70.4,601.3,67.3,596.7,64.6z"/>
	<path d="M596.5,104.7v0.1h30.8c-0.8-2.5-1.8-5-2.9-7.5c-0.1-0.3-0.3-0.7-0.4-1l-7.7-4.1l-19.9,10.5v2H596.5z"/>
	<path d="M628.5,104.8h11.7l-14.6-7.7C626.7,99.7,627.7,102.3,628.5,104.8z"/>
	<polygon points="555.1,136.5 556.5,139 596.5,117.9 596.5,104.8 596.4,104.8 596.4,104.7 592.7,104.7 555.5,124.3 558.8,104.7 
		552.3,104.7 552.3,141.2 553.2,140.7 	"/>
	<polygon points="552.2,104.8 552.2,81 548.1,104.8 	"/>
	<polygon points="552.2,58.3 550.4,58.3 552.2,60.2 	"/>
	<path d="M557.1,46.7c-1.6,0-3.1-0.1-4.7-0.1v11.9h14.4l0.3-2L557.1,46.7z"/>
	<polygon points="558.3,120.3 588.1,104.7 561,104.7 	"/>
	<path d="M583.1,48l-0.5-0.5c-3-0.1-6.3-0.3-9.5-0.4l9.1,6.2L583.1,48z"/>
	<path d="M582,54.4l-10.4-7.2c-3.6-0.2-7.4-0.3-11.4-0.4l8.8,8.5l0.4,0.4l-0.5,2.8h12.4L582,54.4z"/>
	<path d="M616.3,89.8l6.2,3.3c-3-6.2-7-12.3-12.3-17.8l-13.9,7.3v17.6L616.3,89.8z"/>
	<path d="M611.3,74.8c5.6,5.9,9.8,12.5,12.9,19.1l16.5,8.7V85l-24.3-12.8L611.3,74.8z"/>
	<polygon points="427,70.3 420.1,72.5 420.1,104.2 453.4,104.2 	"/>
	<polygon points="499.5,104.7 481.8,104.7 502.3,131.1 463.9,131.2 463.9,149.5 508.1,149.5 508.1,115.7 	"/>
	<polygon points="464,59.1 449.7,63.5 464.3,82.3 464.3,59.4 	"/>
	<path d="M464.3,100.1V86.9l-17.6-22.6L430,69.4l27.5,35.4h5.1C463.1,103.3,463.7,101.7,464.3,100.1z"/>
	<path d="M478.1,104.7h-13.8v-1.8c-0.2,0.6-0.5,1.3-0.7,1.9h0.3v23.5l32.5-0.1L478.1,104.7z"/>
	<polygon points="548.8,336.5 539.3,338.2 551.4,349.2 549.3,365.3 552.2,363.7 552.2,336.5 	"/>
	<polygon points="585.9,336.6 586.1,336.4 569.8,334.7 562,320.3 555.4,335.2 552.3,335.8 552.3,336.6 	"/>
	<polygon points="596.5,336.5 596.5,327.5 577.9,325.5 561.1,294.4 552.3,313.9 552.3,332.1 552.8,332 561.7,312.1 572.1,331.3 
		593.8,333.6 591,336.6 596.4,336.6 596.4,346.8 606.3,336.5 	"/>
	<path d="M547.5,350.6l-15.6-14.1h-16.4l22.6,20.4l-2.1,15.9c2.6,0.2,5.2,0.2,7.9,0.2c0.5,0,1.1,0,1.6,0c2.3,0,4.6-0.1,6.8-0.3v-4.8
		l-7.5,4.3L547.5,350.6z"/>
	<path d="M596.4,352.2v11.2c12.3-3.9,23.1-7.8,33.3-8.9l3.4-3.5l-22.2,0.1l5.9-14.5h-5.4L596.4,352.2z"/>
	<polygon points="584.9,290.1 562.9,290.1 580.2,322.1 596.5,323.8 596.5,307.4 594.1,307.1 	"/>
	<polygon points="552.3,290.1 552.3,304.9 558.9,290.1 	"/>
	<polygon points="552.2,290.2 552.2,257.8 537.7,290.2 	"/>
	<polygon points="558.4,243.9 559.9,243.9 559.1,242.4 	"/>
	<path d="M508.1,334.8l-4.3-3.9l4.3-0.8v-16.6l-44.2,8.1v7.9l7.9,7.1H508v31.7c7.6,1.9,15.7,3.4,24.3,4.1l1.9-14.2L510,336.5h-1.9
		V334.8z"/>
	<polygon points="552.5,151.2 558.9,151.2 555.4,144.7 	"/>
	<polygon points="552.2,192.5 552.2,151.9 531.8,197.5 550,197.5 	"/>
	<polygon points="565.1,197.4 590.2,243.9 596.4,243.9 596.4,255.3 612.6,285.3 636.6,287.9 640.6,278 640.6,274.3 624.6,272.6 
		609,243.8 596.5,243.8 596.5,220.7 583.9,197.4 	"/>
	<polygon points="464.3,290.1 464.3,283.3 447.8,286.3 447.8,290.2 463.9,290.2 463.9,297.5 504.1,290.1 	"/>
	<polygon points="508,250.7 508,289.4 508.9,289.2 529.3,243.8 511.1,243.8 	"/>
	<path d="M635.2,354.1c2.5-0.2,4.2-0.3,5.5-0.4v-2.7l-2.5,0L635.2,354.1z"/>
	<polygon points="589.1,290.1 596.4,303.7 596.5,303.7 596.5,290.2 624.3,290.2 610.3,288.7 596.4,263 596.4,290.1 	"/>
	<polygon points="554,197.4 552.3,201.2 552.3,243.9 554.4,243.9 558.8,234.1 564.1,243.9 586.1,243.9 560.9,197.4 	"/>
	<polygon points="552.2,248.8 552.2,243.8 533.3,243.8 512.5,290.2 533.7,290.2 	"/>
	<polygon points="508.1,293.1 463.9,301.2 463.9,317.8 508.1,309.7 	"/>
	<path d="M463.9,336.5h-16.1l0,17c0.1,0,0.3,0.1,0.6,0.1c0.9,0.1,2.6,0.3,5.9,0.5c3.2,0.2,6.5,0.7,9.9,1.5v-18.9h2.1l-2.4-2.2V336.5
		z"/>
	<polygon points="640.6,243.8 629.1,243.8 640.6,258.9 	"/>
	<polygon points="596.4,197.4 593.9,197.4 596.5,200.9 596.5,197.5 606.9,197.5 602.4,191.6 623.1,197.5 640.6,197.5 640.6,191.9 
		596.4,179.2 	"/>
	<polygon points="640.6,290.2 640.6,286.4 639.1,290.2 	"/>
	<polygon points="640.6,348.4 640.6,336.5 620.2,336.5 615.3,348.4 	"/>
	<polygon points="609.8,197.5 614.8,197.5 608.3,195.7 	"/>
</g>
</svg>
