<?xml version="1.0" encoding="utf-8"?>
<!-- Generator: Adobe Illustrator 25.3.0, SVG Export Plug-In . SVG Version: 6.00 Build 0)  -->
<svg version="1.1" id="Layer_1" xmlns="http://www.w3.org/2000/svg" xmlns:xlink="http://www.w3.org/1999/xlink" x="0px" y="0px"
	 viewBox="0 0 750.2 400.1" style="enable-background:new 0 0 750.2 400.1;" xml:space="preserve">

<g>
	<path class="st0" d="M174.4,252.6c-3.2-2.5-6.4-5.2-9.5-7.8c-20.1,7.8-40.2,14.4-60.2,18.7l0,12.9c10.1-1.7,20.2-4.1,30.3-6.9
		c-10.1,4.1-20.2,7.8-30.3,10.9l0,20.7c3.3-1.5,6.6-3.1,9.9-4.7c0.7,0.3,1.4,0.6,2.1,0.9c-4,1.7-8,3.3-12,4.9l0,9.8
		c38.2-9.2,76.7-26.6,115.6-44.4c26.5-12.1,53.1-24.3,79.8-34.2l0-14.4l0-10.6c-26.4,10.9-52.7,24.2-79,37.5
		c15.1-8.8,30.3-17.5,45.3-25.7c-53.6,23.5-106.8,52.6-159.5,66.4c13.4-6.1,26.7-13.1,40-20.6c10.5-3.2,21-6.9,31.6-10.8
		c16.4-9,32.7-18.4,49-27.7c23.9-8.8,48.1-17.7,72.5-24.6l0-14c-22,7.9-43.8,17.5-65.6,27.4C214.6,228.2,194.6,240.8,174.4,252.6z"
		/>
	<path class="st0" d="M336.1,155.9c4.8-1.1,9.6-2,14.4-2.8l1.4-6.2c-10.1,1.5-20.3,3.6-30.3,6.1L336.1,155.9z"/>
	<path class="st0" d="M351.9,146.8l1.1-4.9c-2.7,0.7-5.5,1.5-8.2,2.3C347.1,145.1,349.5,145.9,351.9,146.8z"/>
	<path class="st0" d="M230.5,197.6c11.5-5.1,22.9-10.2,34.4-15.1c-3.7,2.7-7.5,5.5-11.3,8.3c1.6-0.6,3.2-1.2,4.8-1.8
		c13.9-7.4,27.8-14.5,41.7-20.7l0-6.1c-1.7,0.5-3.5,1-5.2,1.5C273.6,173.6,252.1,185.4,230.5,197.6z"/>
	<path class="st0" d="M115.8,236c22.5-4,45.2-11,68.2-19.1c6.2-2.2,12.4-4.5,18.7-6.8c6.4-2.9,12.9-5.7,19.3-8.7
		c10.9-8.3,21.7-16.5,32.5-24.4c-5.4,1.9-10.8,3.9-16.1,5.9c-33.2,14.6-66.2,30-99.1,40.6c-8.1,2.6-16.2,5-24.2,7
		c-3.4,1.2-6.8,2.4-10.3,3.5l0,8.1l0,0.8c0.6-0.4,1.2-0.8,1.9-1.1C109.6,239.9,112.7,238,115.8,236z"/>
	<path class="st0" d="M271.2,260.6c-3.9,1.8-7.8,3.6-11.8,5.4c-32.2,15-64.3,31.5-96.1,45.3c5.4-1,10.8-2.1,16.2-3.3
		c-16.6,7.6-33.1,14.6-49.6,20.6c-8.4,3-16.8,5.7-25.1,8.1l0,14l0,2.7c0.5,0,1.4,0.1,2.6,0.2c2,0.1,4.8,0.3,8.4,0.5
		c3,0.2,6.5,0.4,10.4,0.6c26.1-10.8,52.3-24.3,78.6-38.2c-12.9,7.7-25.8,15.4-38.7,22.7c3-1.4,6-2.8,9.1-4.3
		c21.8-12.2,43.5-25.3,65.3-37.9c3.3,0.5,6.6,1,9.9,1.6c16.6-8.2,33.2-16.1,49.8-23.1l0-9.3l0-1.1l0-4.7l0-12.9c-1,0.7-2,1.4-3,2.2
		C288.5,253,279.9,256.7,271.2,260.6z"/>
	<path class="st0" d="M241.1,318.4c-3.1,1.6-6.2,3.2-9.2,4.7c-19.1,11.3-38.2,22.9-57.4,33.8c5.7,0.2,11.1,0.4,16,0.5
		c28.2-15.2,56.5-31.4,84.7-46c2.1-0.1,4.2-0.2,6.3-0.4c6.2-3.2,12.4-6.3,18.6-9.2l0-11c-32.8,15.3-65.6,33.8-98.3,51.6
		C214.9,334.4,228,326.3,241.1,318.4z"/>
	<path class="st0" d="M228.4,349c5.8-1.7,11.6-3.4,17.5-5.2c-8.7,4.4-17.4,8.9-26,13.4c8.3-0.3,17.7-0.6,27-1.1
		c17.7-10.3,35.5-20.4,53.2-29.5l0-11.1c-6.2,2.3-12.5,4.6-18.7,7C263.7,331,246,340,228.4,349z"/>
	<path class="st0" d="M153.7,49.1c0-0.3-0.1-0.1-0.1-0.3l-29.8,9c10-0.1,20.1-1,30.3-2.4C153.6,52.9,153.7,50.6,153.7,49.1z"/>
	<path class="st0" d="M114.9,122.2c-4.5,0.5-8.9,0.9-13.4,1.2c4.6-1,9.3-2.2,13.9-3.5c0.2-0.9,0.4-1.8,0.6-2.8
		c-5.3,0.7-10.6,1.1-15.9,1.4c-15.9,0.7-31.8-0.6-47.6-4.6c-2.2-0.6-4.5-1.2-6.7-1.9l3,13.7c14.5,5.3,29,8.2,43.7,9.2
		c-6,1.8-12,3.3-18.1,4.5c-7.7-0.2-15.4-1-23.2-2.3l2,9c17.1,3.2,34.2,3.4,51.4,1.5c2.2-2.9,6.9-9.7,9.1-20
		C114.1,126.1,114.5,124.3,114.9,122.2z"/>
	<path class="st0" d="M235.2,106.9c-10.7,5.5-21.5,11.1-32.3,16.6c2.5-1,5-2,7.6-3c18.2-9,36.3-18.1,54.5-26.3
		c2.8,1.1,5.7,2.2,8.5,3.4c2.2-0.8,4.4-1.5,6.6-2.2c0,0,0,0,0,0c-3.6-8.2-8.6-16.2-15.6-22.3c-21.6,7.1-43.1,15.4-64.5,23
		c4.5-0.3,9-0.6,13.6-1c-13.8,5-27.6,9.9-41.4,14.2c-18.8,5.9-37.5,10.6-56.1,12.9c-0.5,2.1-0.8,4-1.2,5.6
		c-2.1,9.7-6.3,16.5-8.7,19.8c2.7-0.3,5.3-0.7,8-1.1c-3.1,1-6.2,1.9-9.3,2.8c-0.2,0.2-0.3,0.4-0.4,0.5l0,2.4
		c7.9-1,15.9-2.4,23.9-4.2C164,138.5,199.6,122.2,235.2,106.9z"/>
	<path class="st0" d="M116.8,119.5c2.7-0.8,5.4-1.6,8.1-2.4c2.6-0.8,5.2-1.7,7.8-2.6c-5.1,1-10.2,1.8-15.3,2.5
		C117.2,117.9,117,118.7,116.8,119.5z"/>
	<path class="st0" d="M281.1,94.9C281.1,94.9,281.1,94.9,281.1,94.9c18.1-5.8,36.2-10.7,54.4-13.5c5.1-1,10.2-1.9,15.3-2.5L298.4,63
		c-2.8,0.7-5.5,1.4-8.3,2.2c-3.3,0.9-6.6,1.9-9.9,2.8c-4.9,1.5-9.7,3-14.6,4.6C272.6,78.8,277.5,86.8,281.1,94.9z"/>
	<path class="st0" d="M271.2,54.8l-19.7-6l0,0.3c0,2.7-0.6,7.9-3.6,12.7C255.7,59.4,263.5,57,271.2,54.8z"/>
	<path class="st0" d="M127.3,89.3c-1.1,2-2,4-2.9,6c-1.1,2.4-2,4.8-2.8,7.2c7.8-1.2,15.5-2.8,23.3-4.7c-0.6-0.4-1.3-0.8-1.9-1.2
		c-1.7-1.1-3.5-2.2-5.2-3.3c15.7-2.5,31.5-6.5,47.3-11.2c-2.2-0.8-4.8-1.8-7.3-3.2c-2.2-1.3-5-3.2-7.8-5.4c-3,1.3-6.1,2.6-9.1,3.8
		c-7.2,3-14.4,5.7-21.7,8.2C135.3,86.8,131.3,88.1,127.3,89.3z"/>
	<path class="st0" d="M94.4,104.8c8.6-0.1,17.2-0.9,25.8-2.2c0.9-2.5,1.8-5.1,2.9-7.6c0.8-1.8,1.6-3.6,2.4-5.2
		c-0.1,0-0.2,0.1-0.2,0.1c-6.1,1.8-12.1,3.3-18.2,4.6c-11.8,2.5-23.7,3.9-35.5,4.1c-9.8,0.1-19.5-0.7-29.3-2.6l0.2,1.1
		c6.3,2.1,12.7,3.8,19,5C72.5,104.2,83.4,105,94.4,104.8z"/>
	<path class="st0" d="M286.4,109.8c0.7,2.7,1.4,5.2,1.9,7.6c2.4-0.9,4.7-1.7,7.1-2.6c1.8,0.3,3.6,0.6,5.4,0.9
		c20.3-7,40.6-12.3,61-14.4l1.3-5.9c-1.3,0.1-2.5,0.1-3.8,0.2c1.3-0.3,2.6-0.5,3.9-0.7l0.6-2.9c-6.8,0.3-13.6,0.9-20.4,1.9
		C324.4,97.1,305.4,102.8,286.4,109.8z"/>
	<path class="st0" d="M139.5,174.9c1.2,0.7,2.5,1.3,3.7,1.9c19.6-6,39.2-13.6,58.9-21.8c3.5-1.7,7-3.4,10.5-5.2
		c24.9-11.3,49.7-22.8,74.7-32.2c-0.5-2.4-1.2-4.9-1.9-7.6c-17.4,6.4-34.7,13.9-52,21.6c11-5.8,22-11.4,33-16.8c-2.6,1-5.2,2-7.8,3
		c-18.5,8.9-37.1,18.5-55.7,27.8c-2.7-1.1-5.4-2.3-8.1-3.4c-20.7,8-41.2,15.4-61.7,20.5c-9.5,2.9-18.9,5.4-28.4,7.2l0,10.2
		c18.2-3.2,36.4-8.6,54.7-15.2C152.8,168.5,146.2,171.8,139.5,174.9z"/>
	<path class="st0" d="M220.1,178.2c12.6-6.3,25.1-12.7,37.7-18.7c12.5-6,24.9-11.7,37.4-16.7c-1.8-3.2-3.7-7.4-5.1-12.5
		c-11.3,3.7-22.5,7.9-33.7,12.2c4.9-0.7,9.9-1.3,14.9-2c-28.9,10.8-57.5,23.6-86,34.6c-0.6,0.4-1.1,0.7-1.7,1.1
		c-2.9,1-5.8,1.9-8.8,2.9c-7.6,2.8-15.2,5.5-22.8,8c-4.3,3.1-8.5,6.1-12.8,9.1c-11.6,2.7-23.1,4.8-34.5,6l0,11.7
		c8.4-0.9,16.9-2.4,25.3-4.1C159.8,202.3,189.9,190.4,220.1,178.2z"/>
	<path class="st0" d="M354,118.6c-9.2,0.7-18.3,2-27.4,3.7c-8.5,1.1-17,2.7-25.5,4.4c-3.4,1-6.7,2.1-10.1,3.2
		c1.4,5.1,3.3,9.3,5,12.4c14.8-6,29.5-11.1,44.3-14.9c-1,0.8-2.1,1.6-3.1,2.4c-3.6,2.8-7.3,5.6-11,8.6c3.6-1,7.3-2,10.9-2.9
		c-0.8-0.3-1.7-0.6-2.5-0.9c6.9-1.6,13.7-2.8,20.6-3.8l2.6-11.8c-4.1,0.4-8.2,0.9-12.2,1.5C348.4,120,351.2,119.3,354,118.6z"/>
	<path class="st0" d="M585,253.4c-20.2-12.3-40.2-25.4-60.2-38.1c-25.6-12.1-51.2-23.8-77-32.7l0,15.5c28.3,7.6,56.2,18.3,83.9,28.9
		c16.3,9.7,32.7,19.6,49,29c10.6,4.1,21.1,7.9,31.6,11.3c10.3,6.1,20.5,11.8,30.9,17l0-5.9c-6.3-2.3-12.6-4.8-18.8-7.5
		c6.3,1.8,12.6,3.4,18.8,4.8l0-13.9c-16.2-4.3-32.4-10.1-48.7-16.7C591.4,248,588.2,250.7,585,253.4z"/>
	<path class="st0" d="M505.7,188.8c-3.8-2.9-7.5-5.8-11.3-8.6c11.5,5.1,23,10.4,34.4,15.8c-21.6-12.7-43.1-25-64.5-35.4
		c-3.7-1.1-7.4-2.2-11.1-3.3c-1.8-1.3-3.7-2.7-5.5-4l0,6.9c17.7,7.7,35.4,16.9,53.1,26.8C502.5,187.6,504.1,188.2,505.7,188.8z"/>
	<path class="st0" d="M414.7,140.3c-4.2-1.3-8.4-2.5-12.6-3.6c-2.1-0.3-4.2-0.6-6.3-0.8l2.5,11.3c2,0.5,3.9,1,5.9,1.5
		c7.1,1.1,14.2,2.5,21.3,4.2l14.9-2.9c-10.9-3-21.9-5.4-32.9-7.1C409.9,142.1,412.3,141.2,414.7,140.3z"/>
	<path class="st0" d="M521.1,180.7c-5.4-2.1-10.7-4.1-16.1-6.1c10.7,8.3,21.6,16.8,32.5,25.5c6.5,3,12.9,6.1,19.3,9
		c6.2,2.4,12.5,4.8,18.7,7.1c22.8,8.4,45.4,15.6,67.8,19.8l0-5.9c-7.7-2-15.4-4.3-23.1-7C587.4,211.9,554.3,195.9,521.1,180.7z"/>
	<path class="st0" d="M579.9,311.2c5.4,1.2,10.8,2.4,16.2,3.4c-31.9-14.4-63.9-31.6-96.1-47.2c-3.9-1.9-7.8-3.8-11.8-5.6
		c-8.6-4.1-17.3-8-26-11.6c-4.6-3.6-9.2-7.1-13.8-10.5c-0.2-0.1-0.4-0.1-0.6-0.2l0,17c0.8,0.3,1.6,0.6,2.4,1
		c-0.8,0.1-1.6,0.3-2.4,0.4l0,1.8l0,2.6l0,9.9c20.5,8.5,40.9,18.5,61.3,29.1c3.3-0.5,6.7-1.1,9.9-1.6c21.7,13.2,43.5,26.8,65.3,39.6
		c3,1.5,6,3,9.1,4.5c-12.9-7.6-25.8-15.6-38.7-23.7c22.9,12.8,45.8,25.1,68.7,35.5c3.2-0.6,6.3-1.1,9.3-1.3
		c7.2-0.4,9.7-0.7,10.4-0.9l0-2l0-13.9c-4.5-1.5-9.1-3.1-13.6-4.8C613,326.4,596.5,319.1,579.9,311.2z"/>
	<path class="st0" d="M538.2,246.3c-30.1-15.9-60.2-31.9-90.4-43.9l0,11.4l0,15.2c30.6,10.9,61.1,25.5,91.3,39.9
		c35,16.7,69.7,33.1,104.1,43.2l0-12c-0.2-0.1-0.3-0.1-0.5-0.2c0.2-0.1,0.3-0.2,0.5-0.2l0-13.6c-49.7-15.2-99.8-43.5-150.4-66.6
		C507.9,228,523,237.2,538.2,246.3z"/>
	<path class="st0" d="M518.3,322c13.1,8.3,26.2,16.8,39.4,25.1c-36.5-20.7-73.1-42.4-109.8-59.2l0,11.3c10,4.7,20.1,9.8,30.1,15.2
		c2.1,0.1,4.2,0.2,6.3,0.4c31.7,17,63.2,36.1,94.8,53.6c3.8-1,7.5-2,11.1-3.1c-20.9-12.3-41.8-25.4-62.6-38.4
		C524.4,325.3,521.4,323.7,518.3,322z"/>
	<path class="st0" d="M447.8,332.3c0.4,0.2,0.9,0.4,1.3,0.6c-0.4-0.4-0.9-0.8-1.3-1.2L447.8,332.3z"/>
	<path class="st0" d="M531,354c-17.6-9.4-35.3-18.8-53-27.5c-10-4.1-20-8-30.1-11.5c0,0,0,0-0.1,0l0,9.8
		c27.4,13.9,54.7,30.5,82.1,47.4c0.1,0,0.1,0.1,0.2,0.1c4.4,0.5,8.9,0.7,13.6,0.7c0.5,0,1.1,0,1.6,0c4.2-0.1,8.2-0.3,12.1-0.7
		c-14.6-7.8-29.3-15.8-44-23.7C519.4,350.4,525.2,352.2,531,354z"/>
	<path class="st0" d="M659.3,113.5c-9.7-0.5-19.5-1.7-29.2-3.6c0.1,0.2,0.1,0.4,0.2,0.6c1.4,0.5,2.9,1,4.3,1.5
		c7.8,2.6,15.6,4.8,23.4,6.6c-8.8-0.5-17.6-1.6-26.4-3.2c1.2,4.9,2,9.2,2.7,12.5c1.5,7,4.1,12.4,6.3,16.1c0.5,0.9,1.1,1.8,1.6,2.5
		c8.9,1.7,17.8,2.8,26.7,3.3c3.4,0.9,6.8,1.6,10.2,2.3c2.1,0.1,4.2,0.1,6.3,0.2c-13.5-1.8-26.9-5.2-40.2-9.7
		c17.4,2.9,34.8,3.6,52.1,1.3l2.1-9.5c-4.8,0.6-9.6,0.9-14.3,1.1c-6-1.3-12.1-2.9-18.1-4.7c11.6-0.8,23.2-2.9,34.7-6.5l3.3-15
		C689.8,113,674.6,114.2,659.3,113.5z"/>
	<path class="st0" d="M471,86.4c4.9-8,11.6-15.6,20.9-21.5c-4.2-1.4-8.5-2.8-12.8-4.2c-3.3-1-6.6-2-9.9-3c-0.2,0-0.3-0.1-0.5-0.1
		l-51.8,15.7c2.3,0.4,4.6,0.8,6.9,1.3C439.7,77.2,455.4,81.3,471,86.4z"/>
	<path class="st0" d="M626.8,109.3c0.7,0.3,1.5,0.5,2.2,0.8c0-0.1-0.1-0.3-0.1-0.4C628.2,109.5,627.5,109.4,626.8,109.3z"/>
	<path class="st0" d="M471.9,86.7c4.6,1.5,9.3,3.1,13.9,4.8c2.9-1.2,5.7-2.3,8.5-3.5c18.1,8.6,36.3,18.1,54.5,27.5
		c2.5,1,5.1,2.1,7.6,3.1c-10.8-5.7-21.5-11.6-32.3-17.3c35.7,16,71.2,32.9,106.7,42.7c3.3,0.8,6.5,1.5,9.8,2.1
		c-2.4-3.7-5.7-9.8-7.5-18.1c-0.7-3.4-1.6-7.9-2.8-12.9c-14.4-2.7-28.8-6.7-43.2-11.4c-13.7-4.5-27.5-9.6-41.4-14.8
		c4.5,0.4,9.1,0.8,13.6,1.1c-21.9-8.1-44-17-66.2-24.6C483.6,71.1,476.9,78.7,471.9,86.7z"/>
	<path class="st0" d="M519.8,47.1c-2.8,0.1-5.5,0.3-7.9,0.4l0,0c-2.1,0.1-4.1,0.2-5.8,0.4c-1.9,0.1-3.5,0.2-4.8,0.3
		c-1.1,0.1-1.6,0.1-1.9,0.2l0,0l-0.1,0c0,0,0,0-0.1,0l-3.1,1c4.5,1.4,9,2.8,13.5,4.3L519.8,47.1z"/>
	<path class="st0" d="M687.8,92.6c-11.9-0.1-23.7-1.7-35.5-4.3c-6.1-1.3-12.1-2.9-18.2-4.8c-4.7-1.4-9.3-3-13.9-4.6
		c-2.6-0.9-5.2-1.9-7.8-2.9c3.1,3.5,5.8,7.1,8,10.9c0.4,0.1,0.8,0.2,1.2,0.2c-0.3,0.2-0.5,0.3-0.8,0.5c1.3,2.1,2.4,4.3,3.4,6.5
		c13.6,3,27.2,4.8,40.7,5.1c11,0.2,21.9-0.7,32.8-2.9c3.5-0.7,7-1.6,10.5-2.5l0.6-2.5C701.8,92.2,694.8,92.7,687.8,92.6z"/>
	<path class="st0" d="M622.9,93.8c-0.9-1.9-1.9-3.7-3-5.6c-1.2,0.8-2.3,1.6-3.5,2.3c-0.6,0.4-1.3,0.8-1.9,1.2
		C617.3,92.5,620.1,93.2,622.9,93.8z"/>
	<path class="st0" d="M512.3,54.5c36,12,71.6,25.9,106.8,32.1c-2.5-4-5.4-7.9-8.9-11.5c-3.9-1.5-7.8-3.1-11.7-4.8
		c-16.8-7.2-33.5-15.4-50.2-23.8c-1.1,0-2.2,0-3.3,0c-3,0-6,0-8.9,0.1c3.2,2.4,6.5,4.8,9.8,7.3c-6.3-2.3-12.7-4.7-19-7
		c-1.8,0.1-3.5,0.1-5.1,0.2l-10.9,7C511.3,54.2,511.8,54.4,512.3,54.5z"/>
	<path class="st0" d="M694.1,157.5l0.2-1c-0.3,0-0.6,0-0.9,0C693.6,156.8,693.9,157.2,694.1,157.5z"/>
	<path class="st0" d="M564.6,138.4c-2.7,1.2-5.4,2.4-8.1,3.6c-18.6-9.7-37.2-19.8-55.7-29c-2.6-1.1-5.2-2.1-7.8-3.1
		c11,5.6,22,11.5,33,17.5c-20.3-9.4-40.7-18.6-61.1-26c-1.1,2.9-2,5.8-2.8,8.6c0.7-0.1,1.3-0.2,2-0.3c27.6,10.2,55.2,23.6,82.7,36.6
		c3.5,1.8,7,3.6,10.5,5.4c19.7,8.5,39.3,16.5,58.9,22.7c1.3-0.7,2.5-1.3,3.7-2c-6.6-3.2-13.3-6.7-19.9-10.2
		c14.5,5.5,28.9,10.1,43.3,13.5l0-10.9c-5.7-1.5-11.3-3.1-17-4.9C605.8,154.4,585.3,146.8,564.6,138.4z"/>
	<path class="st0" d="M461,110.1c0.8-2.9,1.8-6,3-9.1c-16-5.7-32-10.4-48-13.3c-10.4-1.5-20.9-2.3-31.3-2.1l0.3,1.5
		c5.1,0.6,10.1,1.4,15.2,2.4c-4.9-0.3-9.8-0.5-14.8-0.4l1.2,5.5c24,1.1,48,7.2,72,15.8C459.4,110.4,460.2,110.2,461,110.1z"/>
	<path class="st0" d="M607.4,185.1c-7.6-2.6-15.2-5.4-22.8-8.3c-2.9-1-5.8-2-8.8-3c-0.6-0.4-1.1-0.8-1.7-1.2
		c-28.5-11.6-57.2-24.9-86-36.2c5,0.6,10,1.3,14.9,2c-14.6-5.9-29.3-11.5-44-16.1c-0.4,2.1-0.8,4-1.2,5.7c-0.6,2.6-1.3,5.1-2.1,7.3
		c15.3,6.1,30.6,13.3,45.9,21c12.6,6.3,25.1,12.9,37.7,19.5c30.3,12.7,60.3,25.2,90.1,33c4.6,1,9.3,1.9,13.9,2.7l0-12.1
		c-7.7-1.2-15.4-2.8-23.1-4.7C615.9,191.5,611.6,188.3,607.4,185.1z"/>
	<path class="st0" d="M422.2,131.3c3.6,0.9,7.3,1.9,10.9,3c-3.7-3.1-7.4-6.1-11-9c-1-0.8-2.1-1.6-3.1-2.5c11.9,3.2,23.9,7.3,35.8,12
		c0.8-2.2,1.5-4.5,2.1-7.1c0.4-1.7,0.7-3.6,1.2-5.7c-8.4-1.8-16.8-3.4-25.3-4.6c-9.1-1.8-18.2-3.1-27.4-3.9c2.8,0.7,5.6,1.4,8.4,2.2
		c-7.6-1.2-15.3-2.1-23-2.4l2.6,11.8c10.4,1,20.9,2.8,31.3,5.2C423.9,130.7,423.1,131,422.2,131.3z"/>
</g>
</svg>
