<?xml version="1.0" encoding="utf-8"?>
<!-- Generator: Adobe Illustrator 25.3.0, SVG Export Plug-In . SVG Version: 6.00 Build 0)  -->
<svg version="1.1" id="Layer_1" xmlns="http://www.w3.org/2000/svg" xmlns:xlink="http://www.w3.org/1999/xlink" x="0px" y="0px"
	 viewBox="0 0 120 105" style="enable-background:new 0 0 120 105;" xml:space="preserve">
<style type="text/css">
	.st0{fill:#1D1E1C;}
	.st1{clip-path:url(#SVGID_2_);fill:#FFCD00;}
	.st2{clip-path:url(#SVGID_4_);fill:#FFCD00;}
	.st3{clip-path:url(#SVGID_6_);fill:#FFCD00;}
	.st4{clip-path:url(#SVGID_8_);fill:#FFCD00;}
	.st5{clip-path:url(#SVGID_10_);fill:#FFCD00;}
	.st6{clip-path:url(#SVGID_12_);fill:#FFCD00;}
	.st7{clip-path:url(#SVGID_14_);fill:#FFCD00;}
	.st8{clip-path:url(#SVGID_16_);fill:#FFCD00;}
	.st9{clip-path:url(#SVGID_18_);fill:#FFCD00;}
	.st10{clip-path:url(#SVGID_20_);fill:#FFCD00;}
	.st11{clip-path:url(#SVGID_22_);fill:#FFCD00;}
	.st12{clip-path:url(#SVGID_24_);fill:#FFCD00;}
	.st13{clip-path:url(#SVGID_26_);fill:#FFCD00;}
	.st14{clip-path:url(#SVGID_28_);fill:#FFCD00;}
	.st15{clip-path:url(#SVGID_30_);fill:#FFCD00;}
	.st16{clip-path:url(#SVGID_32_);fill:#FFCD00;}
	.st17{clip-path:url(#SVGID_34_);fill:#FFCD00;}
	.st18{clip-path:url(#SVGID_36_);fill:#FFCD00;}
	.st19{clip-path:url(#SVGID_38_);fill:#FFCD00;}
	.st20{clip-path:url(#SVGID_40_);fill:#FFCD00;}
	.st21{fill:#FFCD00;}
	.st22{fill:#2B5597;}
	.st23{fill:#FFFFFF;}
	.st24{fill:#1D1D1B;}
</style>
<g>
	<g>
		<g>
			<path class="st0" d="M65.5,80.7c0.2-0.1,0.3,0,0.4,0.1c0.2,0.1,2.2,0.8,4.5,1.2c2.3,0.4,4.4-0.8,5.5-0.9c1.1-0.1,2.3,0,4.4-0.3
				c2.1-0.3,3.7-1.1,4.6-1.9c0.9-0.8,1.1-1.3,2.2-1.7c1.1-0.5,1.5-0.5,2.2-0.5c0.7,0,2.7,0.4,4-0.5c1.3-1,1.3-1.1,2.1-1.7
				c0.8-0.5,2.2-1.4,3.9-1.6c1.7-0.2,2.9,0.2,3.7-0.4c0.8-0.6,0.7-1.2,0.7-1.2s-1.1,0.1-2.3-0.9c-1.2-1-4.4-4.1-5.2-4.9
				c-0.8-0.9-9.8-10.6-12.1-13c-2.3-2.4-6.7-5.9-14.5-9.5l-1.8-0.8v-0.3c0,0,0.7-0.6,0.2-1.5c-0.7-1.4-3-2.1-3-2.1l0-0.3
				c0,0,4.8-5.7,5.4-6.4c1.2-1.5,4.2-5,5.1-6.2c0.8-1,1.3-3.8,0.6-4.4c-0.4-0.4-1.3-0.2-2.8,0.6c-1.4,0.9-3.6,3.4-5,4.8
				c-1.4,1.5-6.6,7.1-6.6,7.1l-0.3,0c-0.1-0.2-0.7-1.1-0.7-1.1c0-3.6-0.7-6.4-0.7-6.4s0.5-0.1,1.9-0.2c1.4-0.1,2.4-0.7,3.6-2.3
				c1.2-1.7,1.4-4.4,1.4-4.8c0-0.4-0.1-0.5-0.3-0.4c-0.2,0.2-2.2,0.9-4.8,1.4c-2.6,0.5-4.6,0.5-4.6,0.5c-1.2-1.6-3.3-2.6-3.3-2.6
				c-2.5,1.2-5,3.8-6.3,6.2c-1.3,2.3-1.9,5.9-2,6.1c-0.1,0.3-0.1,0.2-0.3,0.3c-0.2,0.1-0.3,0.7-0.2,1.1c0.1,0.5,0.7,0.5,0.7,0.5
				s0.1,2.5-0.1,2.8c-0.1,0.3-0.2,0.8,0,1c0.2,0.2,0.4,0.2,0.4,0.4c0.1,0.1,0.1,0.4,0.1,0.8c0,0.4,0.4,0.5,0.4,0.5l0,0.3l-0.1,0.1
				c0,0-0.1,2.1,0,3.1c0.1,1,0.7,0.9,1,0.9c0.3,0,1.4,0,1.8,0.2c0.4,0.2,1.3,0.9,1.3,0.9v0.3L50.5,43c-7.8,3.6-12.2,7.1-14.5,9.5
				c-2.3,2.4-11.3,12.1-12.1,13c-0.8,0.9-4,3.9-5.2,4.9c-1.2,1-2.3,0.9-2.3,0.9s-0.1,0.5,0.7,1.2c0.8,0.6,1.9,0.2,3.7,0.4
				c1.7,0.2,3.1,1.1,3.9,1.6c0.8,0.5,0.7,0.7,2.1,1.7c1.3,1,3.3,0.6,4,0.5c0.7,0,1.1,0,2.2,0.5c1.1,0.4,1.3,0.9,2.2,1.7
				c0.9,0.8,2.4,1.6,4.6,1.9c2.1,0.3,3.3,0.1,4.4,0.3c1.1,0.1,3.3,1.3,5.5,0.9c2.3-0.4,4.3-1.1,4.5-1.2c0,0,0.2,0,0.3,0
				c5,4.1,5.1,5.4,5.5,5.4c0.3,0,0.4-1.4,5.5-5.5L65.5,80.7z"/>
		</g>
		<g>
			<defs>
				<path id="SVGID_1_" d="M42.2,49.6c-0.5,0.8-0.2,2.3,0.2,3c0.4,0.7,1.5,1.9,2,2.4c0.5,0.5,2.4,2.5,2.5,2.7c0,0,0,0,0.1,0.1
					c0,0,0.1-0.1,0.1-0.1c0.1-0.3,0.1-0.6,0.1-0.9l0,0c-0.3-0.3-1.3-1.2-1.6-1.4c-0.3-0.3-1.6-1.6-2-2.4c-0.5-0.8-0.6-0.8-0.7-1.4
					c-0.1-0.5,0-1,0.1-1.2c0.1-0.2,0.4-0.3,0.5-0.2c0.1,0.1,0,0.3-0.1,0.5c-0.1,0.2-0.1,0.5,0,0.9c0.1,0.3,0.6,1.2,0.9,1.5
					c0.3,0.3,1,1.2,1.6,1.7c0.5,0.4,1.2,1.1,1.4,1.3l0,0c0-0.2,0-0.4,0-0.6v0c-0.6-0.6-3.2-3.4-3.2-3.4s0.6-0.7,0.7-0.8
					c0.1-0.2,0.2-0.6-0.3-1.5c-0.3-0.4-0.8-0.7-1.2-0.7C42.9,49.1,42.5,49.3,42.2,49.6"/>
			</defs>
			<use xlink:href="#SVGID_1_"  style="overflow:visible;fill:#FFCD00;"/>
			<clipPath id="SVGID_2_">
				<use xlink:href="#SVGID_1_"  style="overflow:visible;"/>
			</clipPath>
			<rect x="41.7" y="49.1" class="st1" width="5.6" height="8.7"/>
		</g>
		<g>
			<defs>
				<path id="SVGID_3_" d="M42.4,55.4c-0.7,0.1-0.6,0.5-0.6,0.6c0,0.1-0.8,0.6-1.5,1.2c-0.7,0.7-0.8,1.8-0.7,2c0,0.2-0.6,0.6-0.8,1
					c-0.2,0.4-0.3,0.9-0.2,1.2c0.1,0.2,0.3,0.1,0.5,0.1c0.2,0,0.3-0.1,0.5,0c0.3,0.2,0.5,0.4,0.7,0.7c0.2,0.3,0.4,0.2,0.6,0.4
					c0.2,0.3,0.5,0.6,0.8,0.7c0.3,0.1,0.5,0,0.5,0s1,1,1.6,1.2c0.4,0.1,1,0.2,1.3,0.2l0.1,0c0.2-2.1,0.9-3.6,1.5-5.5l0-0.1
					c0-0.2-0.3-0.6-0.7-1.2c-0.4-0.6-1.6-1.9-2-2.2c-0.3-0.2-0.8-0.4-1.4-0.4C42.6,55.3,42.5,55.3,42.4,55.4"/>
			</defs>
			<use xlink:href="#SVGID_3_"  style="overflow:visible;fill:#FFCD00;"/>
			<clipPath id="SVGID_4_">
				<use xlink:href="#SVGID_3_"  style="overflow:visible;"/>
			</clipPath>
			<rect x="38.4" y="55.3" class="st2" width="8.3" height="9.4"/>
		</g>
		<g>
			<defs>
				<path id="SVGID_5_" d="M38.7,53.8c-2.7,1.4-5.8,4.5-6,4.8c-0.2,0.3-2.5,2.6-2.8,3c-0.3,0.4-2.4,2.8-2.9,3.4
					c-0.5,0.6-2.9,3.2-3.8,4.2c-0.9,1-1.1,1.9-1.1,2.6c-0.1,0.7,0.6,0.4,1.1,0.1c0.5-0.3,1.3-1.3,1.7-1.8c0.4-0.5,2-2.2,2.2-2.5
					c0.3-0.3,1.9-2.1,2.5-2.9c0.6-0.8,3.1-3.6,4-4.6c0.9-1,2.5-2.2,2.9-2.7c0.5-0.5,1.9-1.6,2.7-2.3c0.8-0.7,1.7-1.3,1.6-1.1
					c-0.1,0.2-1.2,1.1-1.6,1.4c-0.3,0.3-2.2,2.1-2.5,2.3c-0.3,0.3-1.6,1.7-2.1,2.3c-0.5,0.6-1.8,2-2.3,2.5c-0.5,0.5-1.5,1.7-2.2,2.5
					c-0.7,0.8-1.6,1.9-2.1,2.4c-0.5,0.5-2.2,2.3-2.6,2.8c-0.5,0.5-1.4,1.7-1.6,2c-0.2,0.2-0.5,0.6-0.4,0.7c0.2,0.1,0.4,0.4,1,0.5
					c0.6,0.2,1.7-1.2,2.1-1.6c0.4-0.4,1.3-1.5,1.7-1.8c0.4-0.3,0.9-1.1,1.1-1.3c0.2-0.3,1-1.4,1.6-2c0.6-0.6,0.8-1.2,1.3-1.5
					c0.5-0.3,0.9-0.8,1.4-1.3c0.4-0.5,0.9-1.2,1.1-1.5c0.3-0.4,0.9-0.9,1.1-1.1c0.2-0.2,0.8-0.8,0.8-0.8c-0.3,0.7-2.8,3.6-3,3.9
					c-0.3,0.3-1.5,1.7-1.9,2c-0.3,0.3-1.6,1.9-1.8,2.3c-0.2,0.4-1.5,1.9-1.7,2.1c-0.2,0.2-1.4,1.7-1.9,2.3c-0.5,0.7-0.6,1.5,0.2,2.1
					c0.8,0.5,1.1,0.3,1.4,0c0.2-0.2,0.8-1,1.2-1.6c0.4-0.5,2.2-2.9,2.8-3.7c0.6-0.8,2.8-3.6,3-3.9c0.2-0.3,0.6-0.6,0.7-0.6
					c0.1,0.1,0.1,0.2,0,0.4c-0.1,0.2-0.7,1.1-1,1.4c-0.3,0.4-1.5,2.1-1.8,2.4c-0.2,0.3-2.3,3.2-2.6,3.6c-0.2,0.2-1.1,1.6-0.5,1.8
					c0.7,0.3,1.1-0.2,1.6-1c0.6-0.8,1.6-2.7,1.8-3.1c0.2-0.4,1.8-2.6,2-2.8c0.2-0.2,0.3-0.1,0.3,0c0,0.1-0.7,1.2-0.9,1.4
					c-0.2,0.3-0.9,1.2-1.3,1.6c-0.3,0.5-1,1.9-1.1,2.3c-0.1,0.4-0.3,0.8-0.4,1c-0.1,0.2-0.3,0.6-0.4,0.9c-0.1,0.2-0.1,0.5,0.2,0.6
					c0.3,0.1,0.4,0,0.6-0.3c0.2-0.3,0.6-0.8,0.9-1.3c0.3-0.5,1.1-1.8,1.6-2.4c0.4-0.6,1.3-2,1.8-2.6c0.5-0.6,0.8-0.8,0.9-0.8
					c0.1,0.1-0.1,0.4-0.2,0.6c-0.2,0.3-1.3,1.9-1.7,2.5c-0.4,0.5-1.5,2.4-1.6,2.7c-0.2,0.3-0.8,1.6-0.4,2c0.4,0.5,0.9-0.1,1.6-0.9
					c0.7-0.9,1.7-2.4,2.2-3.2c0.5-0.8,1.8-2.8,2.3-3.4c0.4-0.6,0.3-0.2,0.3-0.1c-0.1,0.1-0.2,0.5-0.4,0.8c-0.2,0.3-1.1,1.7-1.3,2.1
					c-0.2,0.4-1.1,2.2-1.3,2.7c-0.2,0.5-1.2,2.7-1.5,3.1c-0.2,0.4,0.1,0.8,0.4,0.6c0.3-0.2,0.9-1.1,1.4-1.7c0.5-0.6,1.4-2.1,2.2-3.4
					c0.8-1.3,2.3-3.4,2.9-4.1c0.6-0.7,0.5-0.4,0.4-0.3c-0.1,0.1-0.4,0.6-0.4,0.6c-0.2,0.3-1.6,2.7-2,3.3c-0.4,0.6-2.6,4.4-2.9,5
					c-0.4,0.6-0.5,1,0.2,1.5c0.6,0.5,1.1,0.3,1.4-0.1c0.3-0.3,0.8-1.1,1.7-2.5c0.9-1.4,2.6-3.8,2.8-4.1c0.2-0.3,0.6-0.6,0.8-0.6
					c0.1,0,0,0.3-0.1,0.6c-0.1,0.3-0.6,1.2-0.8,1.5c-0.2,0.3-1.8,3.3-2,3.7c-0.2,0.4-0.6,1.3,0,1.9c0.6,0.6,1.1,0.1,1.3-0.2
					c0.2-0.3,0.5-0.9,0.7-1.4c0.3-0.5,1.7-3.2,1.8-3.5c0.1-0.2,0.3-0.3,0.2-0.1c-0.1,0.2-1.2,3.3-1.4,4.1c-0.2,0.8-0.1,1.4,0.6,1.6
					c0.7,0.2,1-0.8,1.3-1.5c0.3-0.7,1.3-2.3,1.4-2.3c0.1,0,0.1,0.1,0,0.3c-0.1,0.2-1.2,2.8-1.3,3.2c-0.1,0.4-0.1,0.9,0,1
					c0.1,0.1,1.8,0.7,3.4,0.5c1.3-0.1,3.3-0.8,4-1l0.2-0.1c-0.2-0.1-0.3-0.3-0.5-0.4c-6.5-5-7.7-8.5-7.7-14c0,0,0-0.2-0.2-0.2
					c-1.3-0.1-2.8-1-2.9-1.2c-0.2-0.2-0.3-0.1-0.3-0.1c0.1,0.3,0.1,1.9-1.5,2.3c-1.5,0.3-2.7-0.5-3.3-1.2c-0.6-0.8-0.6-1.6-0.3-2.4
					c0.3-0.8,1.4-1,1.4-1c-0.6-2,0.7-2.4,0.8-2.9c0.4-2.4,2.2-3.1,2.3-3.3c0.4-1.2,1.8-1,2.1-0.9c0.3,0,0.4,0,0.1-0.2
					c-0.2-0.2-1.3-1.5-1.4-1.7c0-0.1-0.1-0.1-0.3-0.1C41.3,52.6,40.5,52.9,38.7,53.8"/>
			</defs>
			<use xlink:href="#SVGID_5_"  style="overflow:visible;fill:#FFCD00;"/>
			<clipPath id="SVGID_6_">
				<use xlink:href="#SVGID_5_"  style="overflow:visible;"/>
			</clipPath>
			<rect x="22" y="52.6" class="st3" width="31.4" height="28.6"/>
		</g>
		<g>
			<defs>
				<path id="SVGID_7_" d="M73.9,49.2c-3.9,8.7,0.6,10.9,0.6,16.5c0,5.5-1.2,9-7.7,14c-0.2,0.2-0.4,0.3-0.6,0.4
					c-0.1,0.1,0.2,0.2,0.2,0.2c0.7,0.3,3.4,0.8,4.8,0.9c1.4,0.1,1.8,0,1.6-0.7c-0.1-0.7-1.2-3.1-1.3-3.4c-0.1-0.4-0.3-0.8,0.1-0.3
					c0.3,0.5,1.1,1.9,1.4,2.4c0.3,0.5,0.7,1.5,1.4,1.1c0.8-0.5,0.4-1.6,0.2-2.1c-0.2-0.5-1-2.7-1.1-3c-0.1-0.3-0.3-1.1,0.1-0.2
					c0.5,0.9,1.2,2.3,1.4,2.8c0.2,0.4,0.6,1.3,0.8,1.6c0.2,0.3,0.6,0.9,1.2,0.8c0.6-0.1,0.7-1,0.5-1.7c-0.2-0.7-1.7-3.7-2.1-4.1
					c-0.4-0.4-1-1.7-1-2c0-0.2,0.1-0.4,0.3-0.2c0.2,0.2,0.6,0.6,1,1.2c0.4,0.6,1.6,2.4,1.9,2.8c0.3,0.4,1.3,1.8,1.4,2.1
					c0.2,0.3,0.7,1.3,1.1,1.4c0.4,0.1,0.9-0.1,1.1-0.3c0.2-0.3,0.6-0.5,0.2-1.3c-0.4-0.8-2.4-4.2-2.9-5c-0.5-0.8-1.8-2.8-2-3.2
					c-0.2-0.3-1.1-1.7,0.4,0.2c1.5,1.9,2.6,3.9,3,4.5c0.4,0.6,1,1.6,1.5,2.2c0.4,0.6,1.1,1.5,1.4,1.8c0.2,0.4,1.1,0.8,0.6-0.3
					c-0.4-1.1-1.6-3.1-2.1-4c-0.5-0.9-1.8-3.2-2.2-3.8c-0.4-0.6-1-1.7-1.2-2c-0.2-0.3-1-1.8,0.4,0c1.4,1.8,3.2,4.5,3.8,5.4
					c0.6,0.9,1.8,2.7,2.1,3.1c0.3,0.4,0.7,0.9,1.1,0.4c0.4-0.4,0.6-0.9-0.1-1.7c-0.6-0.8-4.2-5.7-5.1-6.9c-0.9-1.1-2.5-3.1-2.8-3.6
					c-0.3-0.5-1.1-2,0.5,0c1.6,2,2.5,3.1,2.8,3.5c0.3,0.4,1.6,2.2,2,2.6c0.3,0.4,2,2.6,2.5,3.1c0.4,0.5,0.8,1,1.1,1.3
					c0.2,0.4,0.6,0.8,0.9,0.6c0.3-0.2,0.2-0.7-0.2-1.4c-0.4-0.7-2.4-3.3-3-4.1c-0.6-0.8-2.8-3.6-3.4-4.3c-0.6-0.7-2.1-2.7-2.6-3.4
					c-0.5-0.7-1.1-1.6-1.3-1.8c-0.1-0.2-0.2-0.6,0.5,0.2c0.7,0.8,2.5,3.1,2.8,3.5c0.3,0.4,2.3,3,3,3.9c0.7,0.9,2.6,3.2,3.2,4
					c0.6,0.8,2,2.8,2.7,2.5c0.7-0.4,0.1-1.1-0.4-1.9c-0.5-0.8-2.1-3.1-2.9-4.1c-0.8-1-2-2.7-2.3-3.1c-0.3-0.5-0.1-1,0.6-0.1
					c0.7,0.9,2.3,3,2.9,3.8c0.6,0.8,1.6,2.2,2.3,3c0.7,0.8,1.2,1.6,1.5,2c0.3,0.4,0.8,1,1.3,0.7c0.5-0.3-0.5-1.6-0.6-1.8
					c-0.2-0.2-1.4-1.7-1.8-2c-0.3-0.4-1.3-1.7-1.6-2c-0.3-0.3-2-2.3-2.6-3c-0.6-0.7-1.8-2.1-2.5-2.8c-0.7-0.7-1.4-1.5-1.8-2
					c-0.4-0.5-1.3-1.6-1.7-2.1c-0.4-0.6-1-1.4,0.5,0.2c0.3,0.4,0.7,0.6,0.9,1.1c0.2,0.4,0.8,1.1,1.1,1.4c0.4,0.4,0.7,0.5,1,0.9
					c0.3,0.4,1.7,1.9,2.2,2.6c0.5,0.7,1.2,1.7,1.8,2.2c0.6,0.5,1.5,1.5,2.1,2.2c0.7,0.7,1.4,1.4,1.8,1.9c0.4,0.5,0.8,1.1,1.2,1.4
					c0.4,0.4,1.6,1.3,1.7,0.9c0.2-0.4,0.1-0.7-0.5-1.2c-0.6-0.6-2-2.2-2.8-2.9c-0.8-0.8-2.3-2.5-2.9-3.2c-0.6-0.7-1.6-2-2.2-2.6
					c-0.5-0.6-1.5-1.6-2.2-2.5c-0.8-0.9-3.4-3.9-3.9-4.5C78.2,57,75.5,54,75.5,54s3.9,4.1,4.4,4.7c0.5,0.5,1.6,1.8,2,2.2
					c0.4,0.4,1.7,2,2.1,2.3c0.4,0.4,2.1,2.2,2.4,2.5c0.3,0.3,1.2,1.5,1.6,1.8c0.4,0.4,1.7,1.8,2.2,2.3c0.5,0.5,1.4,1.5,1.8,2
					c0.4,0.5,1.3,1.4,1.6,1.6c0.2,0.2,0.5,0.5,0.9,0.3c0.4-0.2,0.8-0.4,0.1-1.2c-0.6-0.8-3.3-3.8-4.1-4.7c-0.8-0.8-2-2.2-2.9-3.3
					c-0.9-1.1-3-3.4-3.7-4.1c-0.6-0.7-1.5-1.8-2-2.3c-0.5-0.5-3.2-2.8-3.8-3.3c-0.7-0.5-0.8-0.9,0.4,0.1c1.2,0.9,2.9,2.3,3.2,2.6
					c0.3,0.3,1.5,1.5,2,1.9c0.5,0.4,1.3,1.3,1.8,1.9c0.5,0.6,1.9,2.1,2.5,2.8c0.6,0.7,2.2,2.6,2.6,3.1c0.4,0.5,1.8,2.1,2.3,2.6
					c0.5,0.6,1.3,1.5,1.7,1.9c0.4,0.4,1,0.7,1.2,0.8c0.2,0.1,0.6,0.2,0.5-0.4c-0.1-0.6-0.3-1.6-1.3-2.7c-1.1-1.2-2.4-2.7-3.2-3.6
					c-0.8-0.9-1.4-1.6-2-2.3c-0.6-0.8-3.3-3.6-4-4.2c-0.6-0.6-1.8-1.8-2.1-2.1c-0.2-0.3-0.8-0.9,0.5,0.1c1.2,1,3.8,3.9,4.4,4.5
					c0.6,0.5,1.9,1.8,2.4,2.3c0.5,0.5,2.1,2.3,3.5,3.9c1.4,1.6,2.4,2.9,2.8,3.2c0.3,0.4,0.9,1,0.9,1s2.1-0.3,3.4-0.2
					c0,0-1.3-0.9-3.7-3c-2.3-2.1-5.1-5.6-6.9-7.5c-1.8-1.9-3.8-4.2-4.9-5.3c-1.1-1.1-3.8-2.9-4.8-3.5c-1-0.7-4.8-2.6-7.1-3.4
					c-0.1,0-0.1,0-0.2,0C74,49.1,73.9,49.2,73.9,49.2"/>
			</defs>
			<use xlink:href="#SVGID_7_"  style="overflow:visible;fill:#FFCD00;"/>
			<clipPath id="SVGID_8_">
				<use xlink:href="#SVGID_7_"  style="overflow:visible;"/>
			</clipPath>
			<rect x="66.1" y="49.1" class="st4" width="35.6" height="32"/>
		</g>
		<g>
			<defs>
				<path id="SVGID_9_" d="M70.1,48.3c0.1,0.1,0.4,0.8,0.4,0.8h2.9C72.6,48.6,70.7,48.3,70.1,48.3C70.1,48.3,70.1,48.3,70.1,48.3"/>
			</defs>
			<use xlink:href="#SVGID_9_"  style="overflow:visible;fill:#FFCD00;"/>
			<clipPath id="SVGID_10_">
				<use xlink:href="#SVGID_9_"  style="overflow:visible;"/>
			</clipPath>
			<rect x="70.1" y="48.3" class="st5" width="3.4" height="0.8"/>
		</g>
		<g>
			<defs>
				<path id="SVGID_11_" d="M46.2,50.6L44.9,52l2.4,2.7c0,0,0,0,0-0.1C47.3,53.5,46.9,52.1,46.2,50.6L46.2,50.6z"/>
			</defs>
			<use xlink:href="#SVGID_11_"  style="overflow:visible;fill:#FFCD00;"/>
			<clipPath id="SVGID_12_">
				<use xlink:href="#SVGID_11_"  style="overflow:visible;"/>
			</clipPath>
			<rect x="44.9" y="50.5" class="st6" width="2.4" height="4.3"/>
		</g>
		<g>
			<defs>
				<path id="SVGID_13_" d="M52,43.5c-0.7,0.3-4.7,2-9.2,4.8c-4.5,2.8-7.5,6.3-7.5,6.3c2.6-1.9,6.1-3.1,6.1-3.1c0-0.3-0.1-1.3,0.3-2
					c0.4-0.7,1.8-1.2,2.6-0.4c0.8,0.8,1,1.9,1,1.9l0.7-0.8l0-0.1c-0.1-0.3-0.3-0.6-0.4-1H47l0,0c0,0,4.8-5.2,5-5.4
					c0.2-0.2,0.4-0.3,0.3-0.3C52.4,43.3,52.3,43.3,52,43.5"/>
			</defs>
			<use xlink:href="#SVGID_13_"  style="overflow:visible;fill:#FFCD00;"/>
			<clipPath id="SVGID_14_">
				<use xlink:href="#SVGID_13_"  style="overflow:visible;"/>
			</clipPath>
			<rect x="35.4" y="43.3" class="st7" width="17.1" height="11.2"/>
		</g>
		<g>
			<defs>
				<path id="SVGID_15_" d="M52.2,49.1h3c0,0,17.5-21.2,19.3-23.3c1.7-2,1.4-4.2,1.4-4.2L52.2,49.1z"/>
			</defs>
			<use xlink:href="#SVGID_15_"  style="overflow:visible;fill:#FFCD00;"/>
			<clipPath id="SVGID_16_">
				<use xlink:href="#SVGID_15_"  style="overflow:visible;"/>
			</clipPath>
			<rect x="52.2" y="21.5" class="st8" width="23.9" height="27.6"/>
		</g>
		<g>
			<defs>
				<path id="SVGID_17_" d="M70.5,24.6L47.7,49.1h3.9l23.9-27.8c-0.1,0-0.1,0-0.2,0C73.7,21.2,70.5,24.6,70.5,24.6"/>
			</defs>
			<use xlink:href="#SVGID_17_"  style="overflow:visible;fill:#FFCD00;"/>
			<clipPath id="SVGID_18_">
				<use xlink:href="#SVGID_17_"  style="overflow:visible;"/>
			</clipPath>
			<rect x="47.7" y="21.2" class="st9" width="27.7" height="27.9"/>
		</g>
		<g>
			<defs>
				<path id="SVGID_19_" d="M61.8,45.7c-1.5,1.3-1.2,3.4-1.2,3.4h8.9c-0.4-1.8-3.3-3.9-3.7-4c-0.2-0.1-0.7-0.2-1.4-0.2
					C63.6,44.9,62.6,45,61.8,45.7"/>
			</defs>
			<use xlink:href="#SVGID_19_"  style="overflow:visible;fill:#FFCD00;"/>
			<clipPath id="SVGID_20_">
				<use xlink:href="#SVGID_19_"  style="overflow:visible;"/>
			</clipPath>
			<rect x="60.3" y="44.9" class="st10" width="9.1" height="4.2"/>
		</g>
		<g>
			<defs>
				<path id="SVGID_21_" d="M22.3,68.4c-2.3,2.2-4.2,3.6-4.2,3.6h1.8c0.2-0.4,2.6-3,3.4-3.8c0.7-0.8,2.7-3,3.5-3.8
					c0.8-0.9,2.4-2.4,3.1-3c0.7-0.7,2.3-2.6,2.3-2.6C29.5,60.7,24.6,66.2,22.3,68.4"/>
			</defs>
			<use xlink:href="#SVGID_21_"  style="overflow:visible;fill:#FFCD00;"/>
			<clipPath id="SVGID_22_">
				<use xlink:href="#SVGID_21_"  style="overflow:visible;"/>
			</clipPath>
			<rect x="18.1" y="58.8" class="st11" width="14.1" height="13.3"/>
		</g>
		<g>
			<defs>
				<path id="SVGID_23_" d="M37.9,62.5c-0.6,0.2-1,0.8-1,1.6c0.1,0.8,0.8,1.4,1.1,1.6c0.1,0.1,0.2-0.2,0.4-0.6
					c0.3-0.4,0.4-0.2,0.3,0c-0.1,0.2-0.1,0.7-0.1,0.9c0,0.1,0.7,0.4,1.6,0.2c0.9-0.3,1.1-1.2,1-1.7c-0.1-0.5-0.4-0.5-0.4-0.2
					c0,0.3-0.3,0.7-0.6,1c-0.3,0.2-0.5-0.4-0.2-0.6c0.3-0.2,0.3-0.7,0.3-1c0-0.3-0.2-0.4-0.6-0.8c-0.3-0.3-0.7-0.4-1.1-0.4
					C38.4,62.4,38.2,62.4,37.9,62.5"/>
			</defs>
			<use xlink:href="#SVGID_23_"  style="overflow:visible;fill:#FFCD00;"/>
			<clipPath id="SVGID_24_">
				<use xlink:href="#SVGID_23_"  style="overflow:visible;"/>
			</clipPath>
			<rect x="36.9" y="62.4" class="st12" width="4.5" height="4"/>
		</g>
		<g>
			<defs>
				<path id="SVGID_25_" d="M65,43c-0.1,0.2-0.7,0.4-0.7,0.4l0,0.1c3.8,1.6,5,3.9,5,3.9c0.5,0,1.7,0.2,4.1,0.9
					c2.4,0.7,6.1,2.1,6.1,2.1c-4.3-3.7-13.1-7.4-13.1-7.4C66,43,65,43,65,43"/>
			</defs>
			<use xlink:href="#SVGID_25_"  style="overflow:visible;fill:#FFCD00;"/>
			<clipPath id="SVGID_26_">
				<use xlink:href="#SVGID_25_"  style="overflow:visible;"/>
			</clipPath>
			<rect x="64.3" y="42.9" class="st13" width="15.3" height="7.4"/>
		</g>
		<g>
			<defs>
				<path id="SVGID_27_" d="M63.8,39.8c0,0,0,0.1,0.2,0.5c0.3,0.4,0.4,0.3,0.7,0.4c0.3,0,0.7,0.2,0.9,0.6c0.2,0.4,0.8,1.5,0,0.6
					c-0.8-0.9-0.8-0.4-1-0.3c-0.1,0.1-0.3,0-0.4-0.3C64,40.9,63.5,40,63.5,40l-1.7,2c0,0,0.9,0.5,1.7,0.7c0.8,0.2,1.4-0.5,1.4-0.5
					c1.9,0.5,3.4-0.7,2.3-1.9c-1-1.1-2.7-1.6-2.7-1.6L63.8,39.8z"/>
			</defs>
			<use xlink:href="#SVGID_27_"  style="overflow:visible;fill:#FFCD00;"/>
			<clipPath id="SVGID_28_">
				<use xlink:href="#SVGID_27_"  style="overflow:visible;"/>
			</clipPath>
			<rect x="61.8" y="38.8" class="st14" width="6.5" height="4.2"/>
		</g>
		<g>
			<defs>
				<path id="SVGID_29_" d="M47.1,32.1c0.1,0.1,0.3,0.3,0.7,0.4c0.3,0.1,0.6,0.2,0.6,0.3c0,0.2,0,0.3-0.4,0.3
					c-0.3,0.1-1.3,0.4-1.3,0.4l-0.1,1.2c0,0-0.7,0.4-0.4,0.6c0.3,0.2,0.5,0.1,0.6,0c0.2-0.1,0.2-0.2,0.3,0c0.1,0.1,0.3,0.3,0.3,0.3
					s0,0.1-0.2,0.3c-0.2,0.2-0.4,0.5-0.5,0.6c-0.1,0.1-0.2,0.5,0.2,0.5c0.3,0,0.7,0,0.7,0l0.1,0.8c0,0-0.3,0.4-0.4,1.4
					c-0.1,1-0.2,1.5,0,1.8c0.2,0.3,0.4,0.3,1.4,0.3c1-0.1,1.7-0.3,1.9-0.4c0.2-0.1,0.4-0.5,0.1-0.9c-0.3-0.5-0.8-2-0.8-2.2
					c-0.1-0.1-0.2-0.5,0.5,0c0.7,0.5,1.4,1.3,1.5,1.9c0.1,0.6,0.1,1.5-0.1,1.8c-0.2,0.3-0.1,0.3,0.1,0.4c0.2,0.1,0.5,0.3,0.6,0.4
					l1.2-0.5c0,0,0-0.7,0.1-0.9c0.1-0.2,0.2-0.7-0.1-0.9c-0.3-0.3-0.5-0.6-0.5-1.2c0.1-0.6,0.5-1.6,0.5-0.6c0.1,1,0.2,1.1,0.4,1.4
					c0.2,0.2,0.3,0.6,0.3,1.1c-0.1,0.5-0.1,0.8-0.1,0.8l2.2-2.4l0-1.1c0,0-0.5-0.2-0.6-0.6c0-0.4,0.2-0.9,0.3-0.3
					c0.2,0.6,0.3,0.5,0.3,0.5c0.1,0,0.4-0.2,0.4,0.1c0,0.3,0,0.9,0,0.9l4.2-4.6c0,0-1.5-0.4-1.8-0.6c-0.4-0.3-0.6-0.2-0.4,0.2
					c0.1,0.4,0.3,0.9,0.5,1c0.2,0.1,0.5,0.3,0.4,0.6c-0.2,0.3-0.5,0-0.7-0.1c-0.2-0.2-0.4-0.5-0.5-0.9c-0.1-0.4-0.1-0.5-0.4-0.8
					c-0.3-0.3-0.3-0.3-0.4-0.4c-0.1-0.2-0.6-0.3-0.5,0.1c0.1,0.4,0.3,0.9,0.4,1.2c0.1,0.3,0.4,0.8,0.6,1.1c0.1,0.3,0.2,0.6,0.2,0.8
					c0,0.2-0.1,0.3-0.3,0c-0.1-0.3-0.2-0.6-0.4-0.9c-0.2-0.3-0.1-0.4-0.3-0.7c-0.2-0.3-1-0.8-1.1-0.9c-0.1-0.1-0.2,0.1-0.9,0.2
					l-0.1,0.7c0,0-0.6,0.4-0.8,0.3c-0.2-0.1-0.5-0.4-0.4-0.7c0,0-0.3-0.3-0.5-0.4v-0.4c0,0,0-0.3-0.2-0.5c-0.2-0.1-0.4-0.1-0.4,0.3
					v0.5H52c0,0-0.1,0.9-0.3,1.1c-0.1,0.3-0.6,1-0.7,1.3c-0.1,0.3-0.3,0.5-0.4,0.7c-0.1,0.2-0.5,0.5-0.3,0c0.1-0.6,0.1-0.8,0.2-1
					c0-0.2,0.3-0.8,0.4-1c0.1-0.2,0.2-0.9,0.2-1.3c0-0.4,0.1-0.6,0-0.8c-0.1-0.2-0.2-0.3-0.5-0.5c-0.4-0.2-0.6-0.3-0.9-0.3
					c-0.3,0-0.5,0-0.8,0.1c-0.2,0.1-0.4,0.2-0.8,0.1c-0.4-0.1-0.7-0.3-0.8-0.3c0,0,0,0,0,0C47.2,31.7,47.1,32,47.1,32.1"/>
			</defs>
			<use xlink:href="#SVGID_29_"  style="overflow:visible;fill:#FFCD00;"/>
			<clipPath id="SVGID_30_">
				<use xlink:href="#SVGID_29_"  style="overflow:visible;"/>
			</clipPath>
			<rect x="45.9" y="31.7" class="st15" width="15.3" height="10.5"/>
		</g>
		<g>
			<defs>
				<path id="SVGID_31_" d="M47.4,25.9c-0.6,1.9-1.1,4.3-1.1,4.4c0,0.1-0.1,0.4-0.3,0.4c-0.2,0-0.2,0.1-0.2,0.3
					c0,0.2-0.1,0.3,0.5,0.1c0.5-0.3,0.6-0.4,1.6-0.5c1,0,4.5,0.1,8,0.3c3.5,0.3,4.4,0.7,4.4,0.7c0.1-1.6-0.7-5.4-0.7-5.4
					c-0.3,0.1-1.4,0.3-1.4,0.3c0.4,0.8,0.4,3.4,0.4,3.4L54,29.9c0,0-0.2,0.3-0.9,0.3c-0.7,0-1-0.6-1-0.6h-4.4c0.1-1.3,0.6-3.7,2-6.2
					c1.3-2.4,3.5-3.4,3.5-3.4l0,0.2l0.2,0.1l-0.1,0.3c-0.2,1.2-0.7,6.9-0.7,6.9c0.1-0.1,0.3-0.2,0.3-0.2s0-0.5,0.1-2.2
					C52.8,23.4,54,22,54,22l0.1-1.9c0.2,0.1,1.2,0.8,1.2,0.8c0.6-0.4,1.4-0.6,1.4-0.6c-0.9-1.2-2.6-2-2.6-2
					C50.3,20.5,48,24,47.4,25.9"/>
			</defs>
			<use xlink:href="#SVGID_31_"  style="overflow:visible;fill:#FFCD00;"/>
			<clipPath id="SVGID_32_">
				<use xlink:href="#SVGID_31_"  style="overflow:visible;"/>
			</clipPath>
			<rect x="45.7" y="18.3" class="st16" width="14.6" height="13.3"/>
		</g>
		<g>
			<defs>
				<path id="SVGID_33_" d="M54.5,28.5c0,0.3-0.1,0.8-0.1,0.8l3.6,0c0.1-1.7-0.5-2.6-0.5-2.6C55.1,27.5,54.5,28.5,54.5,28.5"/>
			</defs>
			<use xlink:href="#SVGID_33_"  style="overflow:visible;fill:#FFCD00;"/>
			<clipPath id="SVGID_34_">
				<use xlink:href="#SVGID_33_"  style="overflow:visible;"/>
			</clipPath>
			<rect x="54.3" y="26.7" class="st17" width="3.7" height="2.6"/>
		</g>
		<g>
			<defs>
				<path id="SVGID_35_" d="M48.2,29.2h3.6c-0.1-1,0.2-1.2,0.2-1.2c0-0.3,0.7-6.8,0.7-6.8C49.1,23.3,48.2,29.2,48.2,29.2"/>
			</defs>
			<use xlink:href="#SVGID_35_"  style="overflow:visible;fill:#FFCD00;"/>
			<clipPath id="SVGID_36_">
				<use xlink:href="#SVGID_35_"  style="overflow:visible;"/>
			</clipPath>
			<rect x="48.2" y="21.1" class="st18" width="4.5" height="8"/>
		</g>
		<g>
			<defs>
				<path id="SVGID_37_" d="M52.2,28.7c0,0.5,0.4,1,0.9,1c0.5,0,0.9-0.4,0.9-1c0-0.5-0.4-1-0.9-1C52.6,27.8,52.2,28.2,52.2,28.7"/>
			</defs>
			<use xlink:href="#SVGID_37_"  style="overflow:visible;fill:#FFCD00;"/>
			<clipPath id="SVGID_38_">
				<use xlink:href="#SVGID_37_"  style="overflow:visible;"/>
			</clipPath>
			<rect x="52.2" y="27.8" class="st19" width="1.7" height="2"/>
		</g>
		<g>
			<defs>
				<path id="SVGID_39_" d="M62.3,20.1c-3,0.5-4,0.6-5.2,0.7c-1.1,0.1-2.9,1.3-3.5,2.9c-0.5,1.6-0.4,3.3-0.4,3.3s0.4,0,0.5,0.2
					c0,0,0-2,0.6-3.5c0.6-1.5,1.4-1.9,2.3-2.1c0.9-0.1,3.3-0.1,4.9-0.3c1.6-0.3,3.8-0.9,4.4-1.5c0,0-0.1,1.8-0.7,2.7
					c-0.6,0.9-0.7,0.5-1.2,0.2c-0.4-0.3-1.3-0.9-2-0.7c-0.7,0.2-0.8,0.3-0.3,0.3c0.5,0,0.9,0.4,1.2,0.8c0.3,0.4,0.8,1.2,0,0.7
					c-0.8-0.6-1.4-0.9-1.9-1.1c-0.5-0.2-1.2-0.2-0.8,0.1c0.4,0.3,1.4,1,1.7,1.3c0.3,0.4,0.6,1.2-0.3,0.3c-0.9-1-1.9-1.2-2.1-1.3
					c-0.2-0.1-0.4,0-0.1,0.3c0.3,0.3,0.7,0.8,0.8,1.1c0.1,0.3,0.3,0.6-0.4,0.2c-0.7-0.4-1.7-1-2.5-1.3c-0.8-0.3-1.9-0.2-0.6,0.3
					c1.3,0.5,1.9,1.2,1.9,1.5c0.1,0.3,0.3,0.5-0.3,0.3c-0.6-0.2-1.9-0.5-2.5-0.5c-0.7,0-1.1-0.2-1.3,1c-0.2,1.2-0.2,1.6-0.2,1.8
					c0,0.2,0,0.2,0.2,0c0.2-0.2,1.8-1.3,3.9-1.7c2.1-0.5,3.2-0.4,4-0.6c0.8-0.2,2.5-1,3.1-2.5c0.6-1.4,1-3,1.1-3.9
					C66.5,19,65.3,19.6,62.3,20.1"/>
			</defs>
			<use xlink:href="#SVGID_39_"  style="overflow:visible;fill:#FFCD00;"/>
			<clipPath id="SVGID_40_">
				<use xlink:href="#SVGID_39_"  style="overflow:visible;"/>
			</clipPath>
			<rect x="53.1" y="19" class="st20" width="13.5" height="8.9"/>
		</g>
		<path class="st0" d="M51.7,37.7c0,0-0.1-1.4-0.1-1.5c0-0.2,0-0.2,0.1-0.2c0.1,0,0.3,0.1,0.3-0.1c0-0.2,0-1.2,0-1.2s0-0.3,0.3,0
			c0.3,0.3,0.2,0.3,0.4,0.5c0.2,0.1,0.2,0.3,0,0.3c-0.2,0-0.4-0.1-0.4,0.3c0,0.4,0,0.6-0.1,0.9C52,36.8,52,37.1,52,37.3
			C52,37.4,51.8,38,51.7,37.7"/>
		<path class="st0" d="M54.3,35.5c-0.1,0.4-0.3,0.9-0.5,0.8c-0.2-0.1-0.1-0.8,0-1.2C53.9,34.6,54.5,34.1,54.3,35.5"/>
		<path class="st0" d="M54.9,39.9c0,0-0.1-1.2-0.2-1.4c-0.1-0.2-0.2-0.1-0.3-0.1c-0.1,0-0.3,0.1-0.3-0.3c0-0.4,0.1-1.5,0.2-1.8
			c0.2-0.3,0.4-0.2,0.3,0.1c-0.1,0.3-0.2,0.9,0,1.1c0.2,0.2,0.6,0.4,0.6,0.9C55.2,38.8,55.4,40.1,54.9,39.9"/>
		<path class="st0" d="M61.9,76.4c-1,0-1.7-0.6-2-0.8c-0.3,0.2-1,0.8-2,0.8c-0.4,0-0.8-0.1-1.1-0.3c-0.6-0.3-1.1-0.9-1.3-1.7
			c-0.2-0.8-0.1-1.6,0-2c-0.4-0.3-1.5-1.4-1.1-3c0.5-2,2.1-2.2,2.7-2.2h0.1c0.5-2,2.1-2.2,2.6-2.2c0,0,0.1,0,0.1,0c0,0,0.1,0,0.1,0
			c0.5,0,2,0.2,2.6,2.2h0.1c0.7,0,2.2,0.2,2.7,2.2c0.4,1.6-0.7,2.7-1.1,3c0.2,0.4,0.3,1.2,0,2c-0.2,0.8-0.7,1.3-1.3,1.7
			C62.6,76.3,62.3,76.4,61.9,76.4 M59.9,75.2L59.9,75.2l0.1,0c0,0,0.8,0.8,1.9,0.8c0.3,0,0.7-0.1,1-0.3c0.7-0.4,1-1,1.1-1.5
			c0.2-0.8,0.1-1.6-0.1-1.9l-0.1-0.1l0.1-0.1c0.1,0,1.5-1.1,1-2.8c-0.4-1.8-1.8-2-2.4-2c-0.1,0-0.1,0-0.2,0h-0.1l0-0.1
			c-0.5-1.9-1.9-2.1-2.3-2.1c0,0-0.1,0-0.1,0l0,0v0l0-0.1l0,0.1v0l0,0c0,0,0,0-0.1,0c-0.4,0-1.8,0.2-2.3,2.1l0,0.1h-0.1
			c-0.1,0-0.1,0-0.2,0c-0.6,0-2,0.2-2.4,2c-0.4,1.7,1,2.8,1,2.8l0.1,0.1l-0.1,0.1c-0.2,0.3-0.3,1.1-0.1,1.9c0.1,0.5,0.4,1.1,1.1,1.5
			c0.3,0.2,0.7,0.3,1,0.3c1,0,1.9-0.8,1.9-0.8L59.9,75.2L59.9,75.2z"/>
		<polygon points="60,43.7 45.1,49.8 45.1,76.5 60,87.5 74.7,76.5 74.7,49.8 		"/>
		<polygon class="st21" points="60,44.9 46.3,50.4 46.3,75.7 60.2,86.2 73.4,76 73.4,50.4 		"/>
		<polygon class="st22" points="60.2,46.2 47.7,51.4 47.7,57.7 72,57.7 72,51.4 		"/>
		<path class="st22" d="M52.1,59h-4.4v16.5l4.2,3.1C51.9,78.6,52.1,58.9,52.1,59z"/>
		<path class="st22" d="M68.1,59h-3.9v22.5l4.2-3.1C68.3,78.4,68.1,58.8,68.1,59z"/>
		<path class="st22" d="M56.3,59h3.9v25.6l-3.9-2.9C56.3,81.8,56.5,58.8,56.3,59z"/>
		<g>
			<path class="st23" d="M59.1,64.2c0,0,0.3-1,2.8-0.3c0,0,2.3,0.7,2,1.7c-0.3,1-2.4,2.6-3.4,3.3C60.4,68.9,59.1,66.6,59.1,64.2z"/>
			<path class="st23" d="M64.6,66.5c0,0,1-0.1,1.2,2.6c0,0,0.1,2.3-0.9,2.4c-1,0.1-3.2-1.4-4.3-2.1C60.6,69.4,62.3,67.4,64.6,66.5z"
				/>
			<path class="st23" d="M64.2,72.6c0,0,0.4,1-2.1,1.9c0,0-2.2,0.8-2.6-0.2c-0.4-1,0.4-3.5,0.8-4.7C60.3,69.5,62.6,70.6,64.2,72.6z"
				/>
			<path class="st23" d="M55.1,68.9c0,0-0.9-0.6,0.6-2.7c0,0,1.3-1.9,2.2-1.4c0.9,0.6,1.7,3.1,2.1,4.3C60.1,69,57.5,69.5,55.1,68.9z
				"/>
			<path class="st23" d="M58.4,74c0,0-0.8,0.7-2.5-1.3c0,0-1.5-1.8-0.8-2.5c0.8-0.7,3.4-0.9,4.7-1C59.9,69.3,59.7,71.8,58.4,74z"/>
			<circle class="st22" cx="60.2" cy="69.2" r="2"/>
		</g>
		<g>
			<path class="st23" d="M50.1,60.3c0.2,0.1,0.3,0.2,0.5,0.3c0.1,0.1,0.2,0.3,0.2,0.4s0.1,0.3,0.1,0.4c0,0.4-0.1,0.7-0.2,0.9
				c-0.2,0.3-0.5,0.5-0.9,0.5h-1.2v-2.7h1.2C49.9,60.2,50,60.2,50.1,60.3z M49.1,60.7v1.8h0.5c0.3,0,0.5-0.1,0.6-0.4
				c0.1-0.1,0.1-0.3,0.1-0.5c0-0.3,0-0.5-0.1-0.6c-0.1-0.1-0.3-0.2-0.5-0.2H49.1z"/>
			<path class="st23" d="M53.3,62.7c-0.2,0.2-0.5,0.3-0.9,0.3s-0.7-0.1-0.9-0.3c-0.3-0.3-0.4-0.6-0.4-1.1c0-0.5,0.1-0.9,0.4-1.1
				c0.2-0.2,0.5-0.3,0.9-0.3s0.7,0.1,0.9,0.3c0.3,0.2,0.4,0.6,0.4,1.1C53.7,62,53.6,62.4,53.3,62.7z M53,62.3
				c0.1-0.2,0.2-0.4,0.2-0.7c0-0.3-0.1-0.5-0.2-0.7c-0.1-0.2-0.3-0.2-0.5-0.2s-0.4,0.1-0.5,0.2c-0.1,0.2-0.2,0.4-0.2,0.7
				s0.1,0.5,0.2,0.7c0.1,0.2,0.3,0.2,0.5,0.2S52.8,62.4,53,62.3z"/>
			<path class="st23" d="M54.2,60.2h0.6l1.1,1.9v-1.9h0.5v2.7h-0.6L54.7,61v1.9h-0.5V60.2z"/>
			<path class="st23" d="M57.1,60.5c0.2-0.2,0.5-0.3,0.8-0.3c0.4,0,0.8,0.1,1,0.4c0.1,0.2,0.2,0.3,0.2,0.5h-0.6
				c0-0.1-0.1-0.2-0.1-0.3c-0.1-0.1-0.2-0.2-0.4-0.2c-0.2,0-0.4,0.1-0.5,0.2c-0.1,0.2-0.2,0.4-0.2,0.7s0.1,0.5,0.2,0.7
				c0.1,0.2,0.3,0.2,0.5,0.2c0.2,0,0.3-0.1,0.4-0.2c0.1-0.1,0.1-0.2,0.1-0.3h0.6c0,0.3-0.2,0.5-0.4,0.7C58.6,62.9,58.3,63,58,63
				c-0.4,0-0.7-0.1-0.9-0.4c-0.2-0.3-0.3-0.6-0.3-1C56.8,61.1,56.9,60.8,57.1,60.5z"/>
			<path class="st23" d="M60.4,60.2H61l1,2.7h-0.6l-0.2-0.6h-1L60,62.9h-0.6L60.4,60.2z M60.3,61.9H61l-0.3-1.1L60.3,61.9z"/>
			<path class="st23" d="M62.7,62.1c0,0.1,0.1,0.2,0.1,0.3c0.1,0.1,0.3,0.2,0.5,0.2c0.1,0,0.2,0,0.3,0c0.2-0.1,0.2-0.2,0.2-0.3
				c0-0.1,0-0.2-0.1-0.2c-0.1,0-0.2-0.1-0.4-0.1l-0.3-0.1c-0.3-0.1-0.5-0.1-0.6-0.2c-0.2-0.1-0.3-0.3-0.3-0.6c0-0.2,0.1-0.4,0.3-0.6
				c0.2-0.2,0.4-0.2,0.8-0.2c0.3,0,0.5,0.1,0.7,0.2c0.2,0.2,0.3,0.4,0.3,0.7h-0.5c0-0.2-0.1-0.3-0.2-0.3c-0.1,0-0.2-0.1-0.3-0.1
				c-0.1,0-0.3,0-0.4,0.1c-0.1,0.1-0.1,0.1-0.1,0.2c0,0.1,0,0.2,0.1,0.2c0.1,0,0.2,0.1,0.4,0.1l0.5,0.1c0.2,0,0.4,0.1,0.5,0.2
				c0.2,0.1,0.2,0.3,0.2,0.6c0,0.2-0.1,0.5-0.3,0.6c-0.2,0.2-0.5,0.2-0.8,0.2c-0.4,0-0.6-0.1-0.8-0.2c-0.2-0.2-0.3-0.4-0.3-0.7H62.7
				z"/>
			<path class="st23" d="M66.8,60.2v0.5h-0.8v2.2h-0.6v-2.2h-0.8v-0.5H66.8z"/>
			<path class="st23" d="M69.1,60.7h-1.4v0.6H69v0.5h-1.3v0.7h1.5v0.5h-2v-2.7h2V60.7z"/>
			<path class="st23" d="M71.3,60.3c0.1,0,0.2,0.1,0.3,0.2c0.1,0.1,0.1,0.1,0.1,0.2c0,0.1,0.1,0.2,0.1,0.3c0,0.1,0,0.3-0.1,0.4
				c-0.1,0.1-0.2,0.2-0.3,0.3c0.1,0.1,0.2,0.1,0.3,0.2c0.1,0.1,0.1,0.2,0.1,0.4v0.2c0,0.1,0,0.2,0,0.3c0,0.1,0,0.1,0.1,0.2v0.1h-0.6
				c0-0.1,0-0.1,0-0.1c0-0.1,0-0.2,0-0.2l0-0.3c0-0.2,0-0.3-0.1-0.3s-0.2-0.1-0.3-0.1h-0.6v1.1h-0.6v-2.7h1.3
				C71.1,60.2,71.2,60.2,71.3,60.3z M70.1,60.7v0.7h0.6c0.1,0,0.2,0,0.3,0c0.1-0.1,0.2-0.2,0.2-0.3c0-0.2-0.1-0.3-0.2-0.3
				c-0.1,0-0.1,0-0.3,0H70.1z"/>
		</g>
		<g>
			<path class="st23" d="M54.8,76.4c0,0.1,0,0.3-0.1,0.4c-0.1,0.1-0.2,0.3-0.3,0.3c-0.1,0-0.2,0-0.3,0.1c0.1,0.1,0.2,0.2,0.2,0.3
				c0,0.1,0,0.3-0.1,0.4c-0.1,0.1-0.2,0.3-0.3,0.3c-0.1,0.1-0.2,0.1-0.3,0.1c-0.1,0-0.2,0-0.3,0c-0.1,0-0.2-0.1-0.4-0.1l-1.1-0.5
				l1.2-2.4l1.2,0.6C54.6,76,54.7,76.2,54.8,76.4z M52.9,76.9l-0.3,0.6l0.6,0.3c0.1,0.1,0.2,0.1,0.3,0.1c0.1,0,0.2-0.1,0.3-0.2
				c0.1-0.1,0-0.2,0-0.3c0-0.1-0.1-0.1-0.2-0.2L52.9,76.9z M53.4,76l-0.3,0.5l0.6,0.3c0.1,0.1,0.2,0.1,0.3,0.1
				c0.1,0,0.2-0.1,0.2-0.2c0.1-0.1,0-0.2,0-0.3c-0.1-0.1-0.2-0.1-0.3-0.2L53.4,76z"/>
			<path class="st23" d="M57.4,77.5L56,77.1l-0.2,0.5l1.3,0.4L57,78.5l-1.3-0.4l-0.2,0.7l1.4,0.4l-0.1,0.5l-2-0.6l0.8-2.6l1.9,0.6
				L57.4,77.5z"/>
			<path class="st23" d="M58.1,77.1l0.6,0.1l-0.3,2.2l1.3,0.2l-0.1,0.5l-1.9-0.2L58.1,77.1z"/>
			<path class="st23" d="M60.5,77.4l0.6,0l0.1,2.2l1.3-0.1l0,0.5l-1.9,0.1L60.5,77.4z"/>
			<path class="st23" d="M64.9,77.1l-1.4,0.4l0.1,0.6l1.3-0.3l0.1,0.5l-1.3,0.3l0.2,0.7l1.4-0.4l0.1,0.5l-2,0.5l-0.7-2.6l1.9-0.5
				L64.9,77.1z"/>
			<path class="st23" d="M66.5,77.9c0.1,0.1,0.1,0.2,0.2,0.2c0.1,0.1,0.3,0,0.5-0.1c0.1-0.1,0.2-0.1,0.3-0.2
				c0.1-0.1,0.1-0.3,0.1-0.4c0-0.1-0.1-0.1-0.2-0.1c-0.1,0-0.2,0-0.4,0.1l-0.3,0.1c-0.3,0.1-0.5,0.1-0.6,0.1c-0.2,0-0.4-0.2-0.5-0.4
				c-0.1-0.2-0.1-0.4,0-0.7c0.1-0.2,0.3-0.4,0.6-0.6c0.3-0.1,0.5-0.2,0.8-0.1c0.2,0,0.4,0.2,0.6,0.4L67,76.5
				c-0.1-0.1-0.2-0.2-0.4-0.2c-0.1,0-0.2,0-0.3,0.1c-0.1,0.1-0.2,0.1-0.3,0.2c-0.1,0.1-0.1,0.2,0,0.3c0,0.1,0.1,0.1,0.2,0.1
				c0.1,0,0.2,0,0.4-0.1l0.5-0.1c0.2-0.1,0.4-0.1,0.5,0c0.2,0,0.4,0.2,0.5,0.4c0.1,0.2,0.1,0.4,0,0.7c-0.1,0.2-0.3,0.4-0.6,0.6
				c-0.3,0.2-0.6,0.2-0.9,0.2c-0.3-0.1-0.4-0.2-0.6-0.4L66.5,77.9z"/>
		</g>
		<path class="st22" d="M60.4,68.7l0-0.1l-0.1,0.1l0.1-0.2l-0.9-3.9l0,0c0.1-0.2,0.2-0.3,0.3-0.4c0.2-0.1,0.4,0.1,0.4,0.1
			c0.4,0.6,1,0.8,1.2,0.8l0,0l0.1,0c0,0,0,0,0,0c0,0,0,0,0,0l0.1,0l0,0c0.2,0.1,0.8,0.2,1.4,0c0,0,0.3,0,0.4,0.1
			c0.1,0.1,0.1,0.3,0,0.5l0,0l-2.9,2.7L60.4,68.7z M59.5,64.5l0.9,3.8l2.8-2.7c0-0.2,0-0.3,0-0.4c-0.1-0.1-0.3-0.1-0.3-0.1
			c-0.7,0.3-1.3,0.1-1.6,0l-0.1,0c-0.2-0.1-0.8-0.2-1.3-0.9l0,0c0,0-0.1-0.1-0.3-0.1C59.7,64.3,59.6,64.4,59.5,64.5z"/>
		<line class="st23" x1="58" y1="64.9" x2="60" y2="68.4"/>
		<path class="st22" d="M64.7,71.2C64.7,71.2,64.7,71.2,64.7,71.2l-3.6-1.8c0,0,0,0-0.1,0c0,0,0,0,0,0c0,0,0,0,0,0l3.3-2.2
			c0,0,0,0,0,0c0.2,0,0.4,0,0.5,0.2c0.1,0.2,0,0.4,0,0.4c-0.4,0.6-0.4,1.2-0.4,1.4c0,0,0,0,0,0c0,0,0,0,0,0c0,0,0,0,0,0c0,0,0,0,0,0
			c0,0.2,0.1,0.8,0.5,1.4c0,0,0.1,0.2,0,0.4C65.1,71.1,64.9,71.1,64.7,71.2C64.7,71.2,64.7,71.2,64.7,71.2z M61.3,69.3l3.5,1.7
			c0.2,0,0.3-0.1,0.3-0.1c0.1-0.1,0-0.3,0-0.3c-0.5-0.6-0.6-1.2-0.5-1.5c0,0,0,0,0,0c0,0,0,0,0,0c0,0,0,0,0,0c0,0,0,0,0,0
			c0-0.2-0.1-0.9,0.4-1.5l0,0c0,0,0.1-0.2,0-0.3c-0.1-0.1-0.2-0.1-0.3-0.1L61.3,69.3z"/>
		<path class="st22" d="M60.1,74.4C60.1,74.4,60.1,74.4,60.1,74.4c-0.2,0-0.3-0.2-0.4-0.4c0,0,0,0,0,0l0.7-3.9c0,0,0,0,0-0.1
			c0,0,0,0,0,0c0,0,0,0,0,0l3.1,2.6c0,0,0,0,0,0c0.1,0.2,0.1,0.4,0,0.5c-0.1,0.2-0.4,0.2-0.4,0.2c-0.7-0.2-1.3,0-1.5,0.1
			c0,0,0,0,0,0c0,0,0,0,0,0c0,0,0,0,0,0c0,0,0,0,0,0c-0.2,0.1-0.8,0.3-1.2,0.9C60.5,74.2,60.3,74.4,60.1,74.4z M59.9,74
			c0.1,0.2,0.1,0.3,0.2,0.3c0.1,0,0.3-0.1,0.3-0.1c0.4-0.7,1-0.9,1.2-0.9c0,0,0,0,0,0c0,0,0,0,0,0c0,0,0,0,0,0c0,0,0,0,0,0
			c0.2-0.1,0.8-0.3,1.6-0.1c0,0,0.2,0,0.3-0.1c0.1-0.1,0.1-0.2,0-0.4l-3-2.5L59.9,74z"/>
		<path class="st22" d="M57.9,73.7c0,0-0.1,0-0.1,0c-0.2-0.1-0.3-0.3-0.3-0.3c0-0.8-0.4-1.2-0.5-1.4c0,0,0,0,0,0c0,0,0,0,0,0
			c0,0,0,0,0,0c0,0,0,0,0,0c-0.1-0.2-0.5-0.6-1.2-0.8c0,0-0.2-0.1-0.3-0.3c0-0.1,0.1-0.3,0.2-0.4c0,0,0,0,0,0l3.9-0.6c0,0,0,0,0.1,0
			c0,0,0,0,0,0c0,0,0,0,0,0.1l-1.4,3.7c0,0,0,0,0,0C58.1,73.7,58,73.7,57.9,73.7z M57.6,73.4c0,0,0.1,0.2,0.2,0.2
			c0.1,0,0.2,0,0.3-0.1l1.4-3.6l-3.8,0.6c-0.1,0.1-0.2,0.2-0.2,0.3c0,0.1,0.2,0.2,0.2,0.2c0.8,0.2,1.2,0.7,1.3,0.9c0,0,0,0,0,0
			c0,0,0,0,0,0c0,0,0,0,0,0c0,0,0,0,0,0C57.2,72.1,57.6,72.6,57.6,73.4C57.6,73.4,57.6,73.4,57.6,73.4z"/>
		<path class="st22" d="M59.5,69.1C59.5,69.1,59.5,69.1,59.5,69.1l-4-0.5c0,0,0,0,0,0c-0.2-0.1-0.3-0.3-0.3-0.4
			c0-0.2,0.2-0.3,0.2-0.3c0.7-0.2,1.1-0.7,1.2-0.9c0,0,0,0,0,0l0,0c0,0,0,0,0,0c0,0,0,0,0,0c0.1-0.2,0.5-0.6,0.5-1.4
			c0,0,0.1-0.3,0.3-0.3c0.1,0,0.3,0,0.5,0.1c0,0,0,0,0,0l1.6,3.7C59.6,69,59.6,69,59.5,69.1C59.6,69,59.5,69.1,59.5,69.1
			C59.5,69.1,59.5,69.1,59.5,69.1z M55.5,68.5l3.9,0.5l-1.5-3.6c-0.1-0.1-0.3-0.1-0.3-0.1c-0.1,0-0.2,0.2-0.2,0.2
			c0,0.8-0.4,1.3-0.5,1.5c0,0,0,0,0,0c0,0,0,0,0,0c0,0,0,0,0,0c0,0,0,0,0,0c-0.1,0.2-0.5,0.7-1.3,0.9c0,0-0.2,0.1-0.2,0.2
			C55.3,68.2,55.4,68.3,55.5,68.5z"/>
		<circle class="st23" cx="60.2" cy="69.2" r="0.3"/>
		<circle class="st23" cx="60" cy="70.1" r="0.2"/>
		<circle class="st23" cx="59.4" cy="69.7" r="0.2"/>
		<circle class="st23" cx="59.3" cy="69" r="0.2"/>
		<circle class="st23" cx="59.7" cy="68.4" r="0.2"/>
		<circle class="st23" cx="60.3" cy="68.3" r="0.2"/>
		<circle class="st23" cx="60.9" cy="68.7" r="0.2"/>
		<circle class="st23" cx="61" cy="69.3" r="0.2"/>
		<circle class="st23" cx="60.7" cy="69.9" r="0.2"/>
		<circle class="st23" cx="59.8" cy="67.7" r="0.1"/>
		<circle class="st23" cx="60.4" cy="67.7" r="0.1"/>
		<circle class="st23" cx="61" cy="67.9" r="0.1"/>
		<circle class="st23" cx="61.4" cy="68.4" r="0.1"/>
		<circle class="st23" cx="61.7" cy="69" r="0.1"/>
		<circle class="st23" cx="61.6" cy="69.6" r="0.1"/>
		<circle class="st23" cx="61.3" cy="70.1" r="0.1"/>
		<circle class="st23" cx="60.8" cy="70.5" r="0.1"/>
		<circle class="st23" cx="60.2" cy="70.7" r="0.1"/>
		<circle class="st23" cx="59.6" cy="70.5" r="0.1"/>
		<circle class="st23" cx="59.1" cy="70.2" r="0.1"/>
		<circle class="st23" cx="58.8" cy="69.6" r="0.1"/>
		<circle class="st23" cx="58.7" cy="69" r="0.1"/>
		<circle class="st23" cx="58.9" cy="68.5" r="0.1"/>
		<circle class="st23" cx="59.3" cy="68" r="0.1"/>
		<path class="st21" d="M58.9,48.5h1.1v7.1h2.5v1H59C59,56.6,59,48.5,58.9,48.5z"/>
		<g>
			<g>
				<path class="st21" d="M57.6,50.9c0.2,0.2,0.2,0.4,0.2,0.8c0,0.3-0.1,0.6-0.2,0.8c-0.1,0.1-0.2,0.3-0.4,0.4
					c0.3,0,0.5,0.2,0.6,0.4C58,53.4,58,53.7,58,54c0,0.3-0.1,0.6-0.2,0.9c-0.1,0.2-0.2,0.3-0.4,0.5c-0.2,0.2-0.4,0.3-0.6,0.4
					c-0.2,0.1-0.5,0.2-0.8,0.2l-2.4,0.5v-5.3l2.6-0.4C56.9,50.5,57.3,50.6,57.6,50.9z M54.7,51.8V53l1.3-0.2c0.2,0,0.4-0.1,0.6-0.2
					c0.1-0.1,0.2-0.3,0.2-0.5c0-0.2-0.1-0.4-0.3-0.4c-0.2,0-0.4,0-0.6,0L54.7,51.8z M54.7,53.9v1.4L56,55c0.2,0,0.4-0.1,0.5-0.2
					c0.2-0.2,0.4-0.4,0.4-0.7c0-0.3-0.1-0.4-0.3-0.5c-0.1,0-0.3,0-0.5,0L54.7,53.9z"/>
			</g>
		</g>
		<g>
			<g>
				<path class="st21" d="M62.9,50.5l3.5,0.5l0,0.9l-2.5-0.3l0,1.3l2.2,0.2l0,0.9l-2.2-0.1l0,2.3h-1V50.5z"/>
			</g>
		</g>
		<g>
			<path class="st21" d="M67.8,52.3c0.4-0.4,0.8-0.6,1.4-0.6c0.8,0,1.3,0.3,1.7,0.8c0.2,0.3,0.3,0.6,0.3,0.9h-1
				c-0.1-0.2-0.1-0.4-0.2-0.5c-0.2-0.2-0.4-0.3-0.8-0.3c-0.3,0-0.6,0.1-0.8,0.4c-0.2,0.3-0.3,0.7-0.3,1.2c0,0.5,0.1,0.9,0.3,1.2
				c0.2,0.3,0.5,0.4,0.8,0.4c0.3,0,0.6-0.1,0.8-0.3c0.1-0.1,0.2-0.3,0.2-0.5h1c-0.1,0.5-0.3,0.9-0.6,1.2c-0.3,0.3-0.8,0.5-1.3,0.5
				c-0.7,0-1.2-0.2-1.6-0.6c-0.4-0.4-0.6-1-0.6-1.8C67.2,53.3,67.4,52.7,67.8,52.3z"/>
		</g>
		<g>
			<g>
				<path class="st21" d="M51.6,51.7c0.3,0.1,0.6,0.3,0.8,0.5c0.2,0.2,0.3,0.5,0.3,0.7c0.1,0.3,0.1,0.5,0.1,0.8
					c0,0.6-0.1,1.2-0.4,1.6c-0.3,0.6-0.9,1-1.6,1l-2.1,0.2v-4.8l2.1-0.2C51.1,51.6,51.4,51.6,51.6,51.7z M49.8,52.6v3.1l0.9-0.1
					c0.5,0,0.8-0.3,1-0.8c0.1-0.3,0.2-0.6,0.2-0.9c0-0.5-0.1-0.8-0.2-1.1c-0.2-0.2-0.5-0.3-0.9-0.3L49.8,52.6z"/>
			</g>
		</g>
	</g>
	<g>
		<g>
			<polygon class="st21" points="37.4,38.2 39.9,39.7 42.4,38.5 41.8,41.2 43.7,43.3 40.9,43.6 39.5,46 38.4,43.4 35.6,42.9 
				37.8,41 			"/>
		</g>
		<g>
			<path class="st24" d="M39.5,46.5l-1.2-2.9L35.1,43l2.4-2.1l-0.4-3.1l2.7,1.6l2.9-1.3L42,41.2l2.1,2.3L41,43.8L39.5,46.5z
				 M36.1,42.7l2.4,0.5l1,2.3l1.2-2.2l2.5-0.2l-1.7-1.8l0.6-2.4l-2.3,1l-2.1-1.3l0.3,2.5L36.1,42.7z"/>
		</g>
		<g>
			<polygon class="st21" points="28.5,44.3 31.1,45.5 33.5,44 33.2,46.8 35.3,48.7 32.5,49.3 31.4,51.8 30,49.4 27.2,49.1 29.1,47 
							"/>
		</g>
		<g>
			<path class="st24" d="M31.5,52.4l-1.5-2.8l-3.2-0.3l2.1-2.3l-0.7-3.1l2.9,1.3l2.7-1.6l-0.4,3.1l2.4,2.1l-3.1,0.6L31.5,52.4z
				 M27.7,48.9l2.5,0.2l1.2,2.2l1-2.3l2.4-0.5l-1.9-1.6l0.3-2.5l-2.1,1.3l-2.2-1l0.5,2.4L27.7,48.9z"/>
		</g>
		<g>
			<polygon class="st21" points="21.3,52.3 23.9,53.3 26.3,51.6 26.1,54.5 28.4,56.2 25.7,56.9 24.8,59.6 23.2,57.2 20.4,57.2 
				22.1,55 			"/>
		</g>
		<g>
			<path class="st24" d="M24.8,60.1l-1.8-2.6l-3.2-0.1l2-2.5l-0.9-3l3,1.1l2.6-1.8l-0.1,3.2l2.5,1.9l-3.1,0.9L24.8,60.1z M20.8,57
				l2.5,0l1.4,2.1l0.8-2.3l2.4-0.7l-2-1.5l0.1-2.5l-2,1.4l-2.3-0.9l0.7,2.4L20.8,57z"/>
		</g>
		<g>
			<polygon class="st21" points="81.1,38.2 78.7,39.7 76.1,38.5 76.7,41.2 74.8,43.3 77.6,43.6 79,46 80.1,43.4 82.9,42.9 80.8,41 
							"/>
		</g>
		<g>
			<path class="st24" d="M79,46.5l-1.6-2.8l-3.2-0.3l2.1-2.3l-0.7-3.1l2.9,1.3l2.7-1.6L81,40.9l2.4,2.1l-3.1,0.6L79,46.5z
				 M75.3,43.1l2.5,0.2l1.2,2.2l1-2.3l2.4-0.5l-1.9-1.6l0.3-2.5l-2.1,1.3l-2.3-1l0.6,2.4L75.3,43.1z"/>
		</g>
		<g>
			<polygon class="st21" points="90,44.3 87.4,45.5 85,44 85.3,46.8 83.2,48.7 86,49.3 87.1,51.8 88.5,49.4 91.3,49.1 89.4,47 			
				"/>
		</g>
		<g>
			<path class="st24" d="M87.1,52.4l-1.3-2.9l-3.1-0.6l2.4-2.1l-0.4-3.1l2.7,1.6l2.9-1.3L89.6,47l2.2,2.3l-3.2,0.3L87.1,52.4z
				 M83.7,48.6l2.4,0.5l1,2.3l1.2-2.2l2.5-0.2l-1.7-1.8l0.5-2.4l-2.2,1l-2.1-1.3l0.3,2.5L83.7,48.6z"/>
		</g>
		<g>
			<polygon class="st21" points="97.2,52.3 94.6,53.3 92.3,51.6 92.4,54.5 90.1,56.2 92.8,56.9 93.7,59.6 95.3,57.2 98.1,57.2 
				96.4,55 			"/>
		</g>
		<g>
			<path class="st24" d="M93.7,60.1l-1-3l-3.1-0.9l2.5-1.9L92,51.2l2.6,1.8l3-1.1l-0.9,3l2,2.5l-3.2,0.1L93.7,60.1z M90.6,56.1
				l2.4,0.7l0.8,2.3l1.4-2.1l2.5,0L96.1,55l0.7-2.4l-2.3,0.9l-2-1.4l0.1,2.5L90.6,56.1z"/>
		</g>
	</g>
</g>
</svg>
