<?xml version="1.0" encoding="utf-8"?>
<!-- Generator: Adobe Illustrator 25.3.0, SVG Export Plug-In . SVG Version: 6.00 Build 0)  -->
<svg version="1.1" id="Layer_1" xmlns="http://www.w3.org/2000/svg" xmlns:xlink="http://www.w3.org/1999/xlink" x="0px" y="0px"
	 viewBox="0 0 200 100" style="enable-background:new 0 0 200 100;" xml:space="preserve">
<g>
	<path d="M31.4,43.8c0.9-0.4,1.6-0.6,2-0.5c0.4,0,0.6,0.2,0.8,0.5s0.2,0.6,0.1,1c-0.1,0.4-0.4,0.7-0.8,1c-0.6,0.4-1.2,0.5-1.8,0.3
		c-0.4-0.1-0.7-0.4-1.1-0.8l-2.8,2.2c0.8,0.9,1.7,1.5,2.8,1.7c1.1,0.2,2.5-0.3,4.2-1.5c1-0.7,1.7-1.4,2.1-2.1
		c0.4-0.7,0.6-1.5,0.6-2.2c0-0.8-0.3-1.5-0.7-2.1c-0.4-0.5-0.9-0.9-1.4-1.2c-0.6-0.3-1.2-0.3-2-0.2s-1.9,0.5-3.5,1.1
		c-0.6,0.3-1,0.4-1.3,0.4c-0.2,0-0.4-0.1-0.5-0.3c-0.2-0.2-0.2-0.5-0.1-0.7c0.1-0.3,0.3-0.5,0.6-0.8c0.4-0.3,0.8-0.4,1.2-0.4
		c0.4,0,0.8,0.2,1.2,0.6l2.8-2.2C33,36.7,32,36.2,31,36.2s-2.1,0.4-3.4,1.3c-1,0.7-1.8,1.4-2.2,2.1c-0.4,0.7-0.6,1.3-0.6,2
		s0.2,1.2,0.6,1.8c0.5,0.8,1.3,1.2,2.2,1.3C28.6,44.7,29.8,44.5,31.4,43.8z"/>
	<polygon points="38.9,34.3 43.1,42.4 46.4,40.6 42.2,32.6 45.5,30.8 44.2,28.2 34.1,33.4 35.5,36.1 	"/>
	<polygon points="60.5,34.7 59.6,32.2 53.5,34.5 52.7,32.2 58.1,30.2 57.2,27.9 51.8,29.9 51.1,28.1 57,25.9 56.1,23.5 46.7,27.1 
		51,38.4 	"/>
	<polygon points="69.4,32.4 70.7,19.5 67,20.5 66.6,29.6 61.8,21.8 58,22.8 65.4,33.4 	"/>
	<polygon points="84.7,29.6 84.3,26.9 77.9,27.9 77.5,25.5 83.3,24.7 82.9,22.2 77.2,23.1 76.9,21.2 83.1,20.3 82.7,17.7 72.8,19.2 
		74.6,31.2 	"/>
	<polygon points="101.5,28.9 101.4,25.9 95.6,26 95.5,16.9 91.7,17 91.9,29.1 	"/>
	<polygon points="113.3,26.9 106.9,26.5 107,24.1 112.8,24.5 113,22 107.2,21.6 107.3,19.7 113.6,20.2 113.8,17.6 103.8,16.9 
		103,29 113.1,29.7 	"/>
	<path d="M117.4,30.3l0.9-1.9l4.2,0.7l0.3,2.1l3.9,0.6l-2.5-12.7l-4-0.7l-6.5,11.2L117.4,30.3z M121.6,21.9l0.6,4.5l-2.6-0.4
		L121.6,21.9z"/>
	<polygon points="133,24 132.6,33.5 135.3,34.3 140.1,26.1 137.5,35 140.4,35.8 143.9,24.3 139.2,22.9 135.3,29.4 135.6,21.8 
		130.8,20.4 127.4,32 130.3,32.9 	"/>
	<rect x="140.5" y="30.1" transform="matrix(0.3845 -0.9231 0.9231 0.3845 60.702 154.8966)" width="12.1" height="3.7"/>
	<polygon points="151.2,40.8 154.5,35 155.2,43 158.3,44.7 164.2,34.2 161.1,32.5 157.8,38.3 157.1,30.2 154.1,28.5 148.2,39.1 	"/>
	<path d="M174.6,42.6c-0.3-0.6-1-1.4-2-2.2c-1.1-0.9-2-1.5-2.9-1.7c-1.1-0.3-2.2-0.2-3.3,0.1c-1,0.4-2,1.1-2.8,2.1s-1.3,2-1.6,3
		c-0.2,1.1-0.2,2.1,0.2,3c0.4,1,1.1,1.9,2.2,2.8c0.9,0.8,1.7,1.3,2.6,1.6c0.8,0.3,1.9,0.6,3.2,0.7l3.3-3.9l-4.4-3.7l-1.6,1.9
		l1.9,1.6l-0.7,0.9c-0.6-0.1-1-0.2-1.4-0.4s-0.7-0.4-1-0.6c-0.7-0.6-1-1.2-1-2c0-0.7,0.4-1.6,1.3-2.6c0.8-0.9,1.6-1.5,2.3-1.6
		s1.4,0.1,2,0.6c0.4,0.4,0.7,0.7,0.8,1.2c0.1,0.4,0.1,0.8-0.1,1.3l3.2,1.8c0.3-0.7,0.5-1.4,0.5-2.1
		C175.1,43.8,174.9,43.2,174.6,42.6z"/>
	<path d="M80.2,43.9c0-1.2-0.3-2.1-1-2.7c-0.7-0.6-1.7-1-3-1H70v12.1h3.7v-4.5h2c1.5,0,2.6-0.3,3.4-1C79.8,46.1,80.2,45.1,80.2,43.9
		z M76.1,45c-0.3,0.2-0.8,0.4-1.5,0.4h-0.9v-2.7h1.1c0.7,0,1.2,0.1,1.4,0.4c0.3,0.3,0.4,0.6,0.4,1C76.5,44.4,76.4,44.7,76.1,45z"/>
	<polygon points="82.1,40.2 82.1,52.3 91.7,52.3 91.7,49.3 85.9,49.3 85.9,40.2 	"/>
	<path d="M101.4,52.3h3.9l-4.5-12.1h-4.1l-4.5,12.1H96l0.6-2h4.2L101.4,52.3z M97.4,47.7l1.3-4.3l1.3,4.3H97.4z"/>
	<polygon points="118.1,40.2 114.6,40.2 114.6,46.9 110,40.2 106.5,40.2 106.5,52.3 110.1,52.3 110.1,45.7 114.6,52.3 118.1,52.3 	
		"/>
	<polygon points="131.1,40.2 119.7,40.2 119.7,43.2 123.5,43.2 123.5,52.3 127.3,52.3 127.3,43.2 131.1,43.2 	"/>
	<path d="M110.7,75.8c0.1,0,0.2-0.1,0.3-0.2c0.1-0.1,0.1-0.2,0.1-0.3c0-0.2-0.1-0.3-0.2-0.4s-0.3-0.1-0.6-0.1h-0.7v1.1h0.7
		C110.4,75.9,110.5,75.9,110.7,75.8z"/>
	<path d="M122,75.9c0.1-0.1,0.2-0.3,0.2-0.4c0-0.2-0.1-0.3-0.2-0.4s-0.3-0.2-0.6-0.2h-0.5V76h0.4C121.6,76,121.9,76,122,75.9z"/>
	<path d="M135.8,75.8c0.1,0,0.2-0.1,0.3-0.2s0.1-0.2,0.1-0.3c0-0.2-0.1-0.3-0.2-0.4c-0.1-0.1-0.3-0.1-0.6-0.1h-0.7v1.1h0.7
		C135.4,75.9,135.5,75.9,135.8,75.8z"/>
	<path d="M77.2,75.8c0.1,0,0.2-0.1,0.3-0.2c0.1-0.1,0.1-0.2,0.1-0.3c0-0.2-0.1-0.3-0.2-0.4s-0.3-0.1-0.6-0.1H76v1.1h0.7
		C76.8,75.9,77,75.9,77.2,75.8z"/>
	<polygon points="36.3,75.1 35.7,77.1 36.9,77.1 	"/>
	<polygon points="126.4,75.1 125.9,77.1 127,77.1 	"/>
	<path d="M164,75.8c0.1,0,0.2-0.1,0.3-0.2s0.1-0.2,0.1-0.3c0-0.2-0.1-0.3-0.2-0.4c-0.1-0.1-0.3-0.1-0.6-0.1h-0.7v1.1h0.7
		C163.6,75.9,163.7,75.9,164,75.8z"/>
	<path d="M26.4,83.1h148.1V69.5H26.4V83.1z M167,73.7h4.5v1.2h-2.8v0.9h2.6v1.1h-2.6V78h2.9v1.2H167V73.7z M161.1,73.7h2.8
		c0.5,0,0.9,0,1.2,0.1s0.5,0.3,0.7,0.5s0.3,0.5,0.3,0.9c0,0.3-0.1,0.6-0.2,0.8c-0.1,0.2-0.3,0.4-0.5,0.5c-0.1,0.1-0.3,0.2-0.6,0.2
		c0.2,0.1,0.3,0.1,0.4,0.2c0.1,0,0.2,0.1,0.3,0.3c0.1,0.1,0.2,0.3,0.2,0.3l0.8,1.6h-1.9l-0.9-1.7c-0.1-0.2-0.2-0.4-0.3-0.4
		c-0.1-0.1-0.3-0.1-0.4-0.1h-0.1v2.2h-1.7v-5.4H161.1z M158.2,73.7h1.7v5.4h-1.7V73.7z M151.8,73.7h1.7v1.9h1.8v-1.9h1.7v5.4h-1.7
		V77h-1.8v2.2h-1.7V73.7z M145.1,75.2c0.7,0,1.3,0.6,1.3,1.3c0,0.7-0.6,1.3-1.3,1.3s-1.3-0.6-1.3-1.3
		C143.9,75.8,144.4,75.2,145.1,75.2z M141.6,77.2c-0.1-0.1-0.4-0.2-0.9-0.3c-0.7-0.2-1.3-0.4-1.6-0.7c-0.3-0.3-0.5-0.6-0.5-1
		c0-0.3,0.1-0.5,0.2-0.8c0.2-0.2,0.4-0.4,0.7-0.6c0.3-0.1,0.8-0.2,1.3-0.2c0.7,0,1.2,0.1,1.6,0.4c0.4,0.3,0.6,0.7,0.6,1.2l-1.6,0.1
		c0-0.2-0.1-0.4-0.3-0.5c-0.1-0.1-0.3-0.2-0.6-0.2c-0.2,0-0.3,0-0.4,0.1c-0.1,0.1-0.1,0.2-0.1,0.3c0,0.1,0,0.2,0.1,0.2
		c0.1,0.1,0.3,0.1,0.6,0.2c0.7,0.2,1.3,0.3,1.6,0.5s0.5,0.4,0.7,0.6c0.1,0.2,0.2,0.5,0.2,0.8s-0.1,0.7-0.3,1s-0.5,0.5-0.8,0.7
		s-0.8,0.2-1.3,0.2c-0.9,0-1.6-0.2-1.9-0.5c-0.4-0.4-0.6-0.8-0.6-1.4l1.6-0.1c0,0.3,0.1,0.5,0.2,0.6c0.2,0.2,0.4,0.3,0.7,0.3
		c0.2,0,0.4-0.1,0.6-0.2c0.1-0.1,0.2-0.2,0.2-0.4C141.8,77.5,141.7,77.3,141.6,77.2z M132.9,73.7h2.8c0.5,0,0.9,0,1.2,0.1
		s0.5,0.3,0.7,0.5s0.3,0.5,0.3,0.9c0,0.3-0.1,0.6-0.2,0.8c-0.1,0.2-0.3,0.4-0.5,0.5c-0.1,0.1-0.3,0.2-0.6,0.2
		c0.2,0.1,0.3,0.1,0.4,0.2c0.1,0,0.2,0.1,0.3,0.3c0.1,0.1,0.2,0.3,0.2,0.3l0.8,1.6h-1.9l-0.9-1.7c-0.1-0.2-0.2-0.4-0.3-0.4
		c-0.1-0.1-0.3-0.1-0.4-0.1h-0.1v2.2H133v-5.4H132.9z M130,73.7h1.7v5.4H130V73.7z M127.4,73.7l2,5.4h-1.8l-0.3-0.9h-1.9l-0.3,0.9
		h-1.7l2-5.4H127.4z M119.2,73.7h2.8c0.6,0,1.1,0.1,1.4,0.4s0.5,0.7,0.5,1.2s-0.2,1-0.5,1.3s-0.8,0.5-1.5,0.5H121v2h-1.7v-5.4H119.2
		z M113.8,73.7h4.5v1.2h-2.8v0.9h2.6v1.1h-2.6V78h2.9v1.2h-4.6V73.7z M107.9,73.7h2.8c0.5,0,0.9,0,1.2,0.1c0.3,0.1,0.5,0.3,0.7,0.5
		s0.3,0.5,0.3,0.9c0,0.3-0.1,0.6-0.2,0.8c-0.1,0.2-0.3,0.4-0.5,0.5c-0.1,0.1-0.3,0.2-0.6,0.2c0.2,0.1,0.3,0.1,0.4,0.2
		c0.1,0,0.2,0.1,0.3,0.3c0.1,0.1,0.2,0.3,0.2,0.3l0.8,1.6h-1.9l-0.9-1.7c-0.1-0.2-0.2-0.4-0.3-0.4c-0.1-0.1-0.3-0.1-0.4-0.1h-0.1
		v2.2H108v-5.4H107.9z M103.8,75c0.7,0,1.3,0.6,1.3,1.3c0,0.7-0.6,1.3-1.3,1.3c-0.7,0-1.3-0.6-1.3-1.3C102.6,75.6,103.2,75,103.8,75
		z M94.8,73.7h4.5v1.2h-2.8v0.9h2.6v1.1h-2.6V78h2.9v1.2h-4.6V73.7z M89.5,74.4c0.5-0.5,1.2-0.7,2-0.7c0.7,0,1.2,0.1,1.6,0.4
		s0.7,0.7,0.9,1.3l-1.5,0.3c-0.1-0.2-0.1-0.3-0.2-0.4S92.1,75.1,92,75c-0.1-0.1-0.3-0.1-0.5-0.1c-0.4,0-0.7,0.2-0.9,0.5
		c-0.2,0.2-0.2,0.6-0.2,1.1c0,0.6,0.1,1,0.3,1.2c0.2,0.2,0.4,0.3,0.8,0.3c0.3,0,0.6-0.1,0.7-0.3c0.2-0.2,0.3-0.4,0.4-0.8l1.5,0.4
		c-0.1,0.4-0.3,0.8-0.5,1c-0.2,0.3-0.5,0.5-0.8,0.6s-0.7,0.2-1.2,0.2c-0.6,0-1.1-0.1-1.4-0.3c-0.4-0.2-0.7-0.5-1-0.9s-0.4-1-0.4-1.7
		C88.7,75.5,89,74.8,89.5,74.4z M86.1,73.7h1.7v5.4h-1.7V73.7z M81.3,73.7l1.2,3.9l1.2-3.9h1.7l-2,5.4h-1.8l-2-5.4H81.3z M74.4,73.7
		h2.8c0.5,0,0.9,0,1.2,0.1c0.3,0.1,0.5,0.3,0.7,0.5s0.3,0.5,0.3,0.9c0,0.3-0.1,0.6-0.2,0.8c-0.1,0.2-0.3,0.4-0.5,0.5
		c-0.1,0.1-0.3,0.2-0.6,0.2c0.2,0.1,0.3,0.1,0.4,0.2c0.1,0,0.2,0.1,0.3,0.3c0.1,0.1,0.2,0.3,0.2,0.3l0.8,1.6h-1.9L77,77.4
		c-0.1-0.2-0.2-0.4-0.3-0.4c-0.1-0.1-0.3-0.1-0.4-0.1H76v2.2h-1.7L74.4,73.7L74.4,73.7z M68.9,73.7h4.5v1.2h-2.8v0.9h2.6v1.1h-2.6
		V78h2.9v1.2h-4.6V73.7z M66.2,77.2c-0.1-0.1-0.4-0.2-0.9-0.3c-0.7-0.2-1.3-0.4-1.6-0.7c-0.3-0.3-0.5-0.6-0.5-1
		c0-0.3,0.1-0.5,0.2-0.8c0.2-0.2,0.4-0.4,0.7-0.6c0.3-0.1,0.8-0.2,1.3-0.2c0.7,0,1.2,0.1,1.6,0.4s0.6,0.7,0.6,1.2L66,75.3
		c0-0.2-0.1-0.4-0.3-0.5c-0.1-0.1-0.3-0.2-0.6-0.2c-0.2,0-0.3,0-0.4,0.1s-0.1,0.2-0.1,0.3c0,0.1,0,0.2,0.1,0.2
		c0.1,0.1,0.3,0.1,0.6,0.2c0.7,0.2,1.3,0.3,1.6,0.5c0.3,0.2,0.5,0.4,0.7,0.6c0.1,0.2,0.2,0.5,0.2,0.8s-0.1,0.7-0.3,1
		c-0.2,0.3-0.5,0.5-0.8,0.7s-0.8,0.2-1.3,0.2c-0.9,0-1.6-0.2-1.9-0.5c-0.4-0.4-0.6-0.8-0.6-1.4l1.6-0.1c0,0.3,0.1,0.5,0.2,0.6
		c0.2,0.2,0.4,0.3,0.7,0.3c0.2,0,0.4-0.1,0.6-0.2c0.1-0.1,0.2-0.2,0.2-0.4C66.4,77.5,66.3,77.3,66.2,77.2z M58.9,75
		c0.7,0,1.3,0.6,1.3,1.3c0,0.7-0.6,1.3-1.3,1.3s-1.3-0.6-1.3-1.3C57.7,75.6,58.2,75,58.9,75z M53.2,77.2c-0.1-0.1-0.4-0.2-0.9-0.3
		c-0.7-0.2-1.3-0.4-1.6-0.7c-0.3-0.3-0.5-0.6-0.5-1c0-0.3,0.1-0.5,0.2-0.8c0.2-0.2,0.4-0.4,0.7-0.6c0.3-0.1,0.8-0.2,1.3-0.2
		c0.7,0,1.2,0.1,1.6,0.4c0.4,0.3,0.6,0.7,0.6,1.2L53,75.3c0-0.2-0.1-0.4-0.3-0.5c-0.1-0.1-0.3-0.2-0.6-0.2c-0.2,0-0.3,0-0.4,0.1
		c-0.1,0.1-0.1,0.2-0.1,0.3c0,0.1,0,0.2,0.1,0.2c0.1,0.1,0.3,0.1,0.6,0.2c0.7,0.2,1.3,0.3,1.6,0.5s0.5,0.4,0.7,0.6
		c0.1,0.2,0.2,0.5,0.2,0.8s-0.1,0.7-0.3,1S54,78.8,53.7,79s-0.8,0.2-1.3,0.2c-0.9,0-1.6-0.2-1.9-0.5c-0.4-0.4-0.6-0.8-0.6-1.4
		l1.6-0.1c0,0.3,0.1,0.5,0.2,0.6c0.2,0.2,0.4,0.3,0.7,0.3c0.2,0,0.4-0.1,0.6-0.2c0.1-0.1,0.2-0.2,0.2-0.4
		C53.3,77.5,53.3,77.3,53.2,77.2z M44.9,73.7h4.5v1.2h-2.8v0.9h2.6v1.1h-2.6V78h2.9v1.2h-4.6C44.9,79.2,44.9,73.7,44.9,73.7z
		 M39.8,73.7h1.7v4.1h2.6v1.3h-4.3V73.7z M35.4,73.7h1.8l2,5.4h-1.8l-0.3-0.9h-1.9l-0.3,0.9h-1.7L35.4,73.7z M31.3,77.2
		c-0.1-0.1-0.4-0.2-0.9-0.3c-0.7-0.2-1.3-0.4-1.6-0.7c-0.3-0.3-0.5-0.6-0.5-1c0-0.3,0.1-0.5,0.2-0.8c0.2-0.2,0.4-0.4,0.7-0.6
		c0.3-0.1,0.8-0.2,1.3-0.2c0.7,0,1.2,0.1,1.6,0.4c0.4,0.3,0.6,0.7,0.6,1.2l-1.6,0.1c0-0.2-0.1-0.4-0.3-0.5c-0.1-0.1-0.3-0.2-0.6-0.2
		c-0.2,0-0.3,0-0.4,0.1s-0.1,0.2-0.1,0.3c0,0.1,0,0.2,0.1,0.2c0.1,0.1,0.3,0.1,0.6,0.2c0.7,0.2,1.3,0.3,1.6,0.5s0.5,0.4,0.7,0.6
		c0.1,0.2,0.2,0.5,0.2,0.8s-0.1,0.7-0.3,1s-0.5,0.5-0.8,0.7s-0.8,0.2-1.3,0.2c-0.9,0-1.6-0.2-1.9-0.5c-0.4-0.4-0.6-0.8-0.6-1.4
		l1.6-0.1c0,0.3,0.1,0.5,0.2,0.6c0.2,0.2,0.4,0.3,0.7,0.3c0.2,0,0.4-0.1,0.6-0.2c0.1-0.1,0.2-0.2,0.2-0.4
		C31.5,77.5,31.4,77.3,31.3,77.2z"/>
	<path d="M38.8,65.5c-0.3,0-0.6-0.1-0.8-0.3c-0.1-0.1-0.2-0.3-0.2-0.6l-1.7,0.1c0,0.6,0.3,1,0.6,1.4c0.4,0.4,1,0.6,2,0.6
		c0.6,0,1-0.1,1.4-0.2c0.4-0.2,0.6-0.4,0.8-0.7c0.2-0.3,0.3-0.6,0.3-1c0-0.3-0.1-0.6-0.2-0.8c-0.2-0.3-0.4-0.5-0.7-0.6
		c-0.3-0.2-0.9-0.3-1.7-0.5c-0.3-0.1-0.5-0.1-0.6-0.2c0-0.3,0-0.4,0-0.5s0.1-0.2,0.2-0.3c0.1-0.1,0.3-0.1,0.5-0.1s0.4,0.1,0.6,0.2
		c0.1,0.1,0.2,0.3,0.3,0.6l1.7-0.1c-0.1-0.6-0.3-1-0.7-1.3s-0.9-0.4-1.7-0.4c-0.6,0-1.1,0.1-1.4,0.2c-0.3,0.1-0.6,0.4-0.8,0.6
		c-0.2,0.3-0.3,0.5-0.3,0.8c0,0.4,0.2,0.8,0.5,1.1s0.9,0.5,1.7,0.7c0.5,0.1,0.8,0.2,0.9,0.3c0.1,0.1,0.2,0.2,0.2,0.4
		c0,0.2-0.1,0.3-0.2,0.4C39.3,65.4,39.1,65.5,38.8,65.5z"/>
	<polygon points="45.3,66.5 45.3,62.2 47.1,62.2 47.1,60.8 41.8,60.8 41.8,62.2 43.6,62.2 43.6,66.5 	"/>
	<polygon points="52.7,62 52.7,60.8 47.9,60.8 47.9,66.5 52.7,66.5 52.7,65.2 49.7,65.2 49.7,64.1 52.4,64.1 52.4,62.9 49.7,62.9 
		49.7,62 	"/>
	<polygon points="55,60.8 53.1,60.8 55.3,66.5 57.2,66.5 59.3,60.8 57.5,60.8 56.3,64.9 	"/>
	<polygon points="64.6,62 64.6,60.8 59.9,60.8 59.9,66.5 64.7,66.5 64.7,65.2 61.6,65.2 61.6,64.1 64.4,64.1 64.4,62.9 61.6,62.9 
		61.6,62 	"/>
	<polygon points="65.6,60.8 65.6,66.5 70.1,66.5 70.1,65.1 67.4,65.1 67.4,60.8 	"/>
	<polygon points="75.7,62 75.7,60.8 70.9,60.8 70.9,66.5 75.7,66.5 75.7,65.2 72.7,65.2 72.7,64.1 75.4,64.1 75.4,62.9 72.7,62.9 
		72.7,62 	"/>
	<path d="M78.2,65.5h2l0.3,0.9h1.8l-2.1-5.7h-1.9l-2.1,5.7H78L78.2,65.5z M79.2,62.3l0.6,2h-1.3L79.2,62.3z"/>
	<polygon points="89.3,66.5 89.3,60.8 87,60.8 86.1,64.2 85.2,60.8 82.9,60.8 82.9,66.5 84.3,66.5 84.3,62.1 85.4,66.5 86.7,66.5 
		87.8,62.1 87.8,66.5 	"/>
	<rect x="90.5" y="60.8" width="1.8" height="5.7"/>
	<polygon points="95.2,60.8 93.5,60.8 93.5,66.5 95.2,66.5 95.2,63.3 97.3,66.5 99,66.5 99,60.8 97.3,60.8 97.3,63.9 	"/>
	<path d="M101.3,66.2c0.4,0.2,1,0.3,1.7,0.3c0.5,0,1-0.1,1.4-0.2s0.9-0.4,1.4-0.7v-2.4H103v1.2h1.2v0.5c-0.2,0.1-0.4,0.2-0.6,0.3
		c-0.2,0.1-0.4,0.1-0.6,0.1c-0.4,0-0.7-0.1-1-0.4c-0.2-0.3-0.3-0.7-0.3-1.3c0-0.6,0.1-1,0.3-1.3c0.2-0.3,0.5-0.4,0.9-0.4
		c0.3,0,0.5,0.1,0.6,0.2c0.2,0.1,0.3,0.3,0.4,0.5l1.7-0.3c-0.1-0.4-0.3-0.7-0.5-0.9s-0.5-0.4-0.8-0.5s-0.8-0.2-1.4-0.2
		c-0.7,0-1.2,0.1-1.6,0.3c-0.5,0.2-0.9,0.6-1.1,1c-0.3,0.5-0.4,1-0.4,1.6s0.1,1.1,0.4,1.6S100.8,66,101.3,66.2z"/>
	<path d="M106.8,60.8v5.7h1.8v-2.1h1c0.7,0,1.2-0.2,1.6-0.5c0.3-0.3,0.5-0.8,0.5-1.3c0-0.6-0.2-1-0.5-1.3s-0.8-0.5-1.4-0.5
		C109.8,60.8,106.8,60.8,106.8,60.8z M109.9,62.6c0,0.2-0.1,0.3-0.2,0.5c-0.1,0.1-0.4,0.2-0.7,0.2h-0.4V62h0.5
		c0.3,0,0.6,0.1,0.7,0.2C109.8,62.2,109.9,62.4,109.9,62.6z"/>
	<polygon points="112.5,60.8 112.5,66.5 117,66.5 117,65.1 114.3,65.1 114.3,60.8 	"/>
	<path d="M119.3,65.5h2l0.3,0.9h1.8l-2.1-5.7h-1.9l-2.1,5.7h1.8L119.3,65.5z M120.3,62.3l0.6,2h-1.3L120.3,62.3z"/>
	<polygon points="125.7,60.8 124,60.8 124,66.5 125.7,66.5 125.7,63.3 127.8,66.5 129.5,66.5 129.5,60.8 127.8,60.8 127.8,63.9 	"/>
	<polygon points="133.8,66.5 133.8,62.2 135.6,62.2 135.6,60.8 130.3,60.8 130.3,62.2 132.1,62.2 132.1,66.5 	"/>
	<rect x="135.1" y="64.9" width="1.7" height="1.6"/>
	<path d="M140.6,62c0.2,0,0.3,0,0.5,0.1c0.1,0.1,0.3,0.2,0.4,0.3c0.1,0.1,0.1,0.2,0.2,0.4l1.6-0.3c-0.2-0.6-0.5-1-0.9-1.3
		s-1-0.4-1.7-0.4c-0.9,0-1.6,0.3-2.1,0.8s-0.8,1.2-0.8,2.2c0,0.7,0.1,1.3,0.4,1.7c0.3,0.5,0.6,0.8,1,1s0.9,0.3,1.5,0.3
		c0.5,0,0.9-0.1,1.3-0.2c0.3-0.1,0.6-0.4,0.8-0.7c0.2-0.3,0.4-0.7,0.5-1.1l-1.5-0.5c-0.1,0.4-0.2,0.6-0.4,0.8
		c-0.2,0.2-0.4,0.3-0.8,0.3c-0.3,0-0.6-0.1-0.8-0.4c-0.2-0.2-0.3-0.7-0.3-1.3c0-0.5,0.1-0.9,0.2-1.1C139.9,62.2,140.2,62,140.6,62z"
		/>
	<path d="M144.6,61.5c-0.5,0.5-0.8,1.2-0.8,2.2c0,0.7,0.1,1.2,0.4,1.7c0.3,0.4,0.6,0.8,1,1s1,0.3,1.6,0.3s1.2-0.1,1.6-0.4
		c0.4-0.2,0.7-0.6,1-1c0.2-0.4,0.3-1,0.3-1.6c0-0.9-0.3-1.6-0.8-2.1s-1.2-0.8-2.2-0.8C145.8,60.7,145.1,60.9,144.6,61.5z M148,63.6
		c0,0.6-0.1,1.1-0.3,1.3c-0.2,0.2-0.5,0.4-0.9,0.4s-0.7-0.1-0.9-0.4s-0.3-0.7-0.3-1.2c0-0.6,0.1-1,0.3-1.2c0.2-0.3,0.5-0.4,0.9-0.4
		s0.7,0.1,0.9,0.4C147.9,62.6,148,63,148,63.6z"/>
	<rect x="150.4" y="64.9" width="1.7" height="1.6"/>
	<path d="M153.1,60.8v3.4c0,0.3,0.1,0.6,0.2,1c0.1,0.2,0.2,0.4,0.4,0.7c0.2,0.2,0.4,0.4,0.6,0.5c0.2,0.1,0.5,0.2,0.8,0.2
		s0.6,0.1,0.9,0.1c0.5,0,0.9-0.1,1.2-0.2c0.2-0.1,0.5-0.2,0.7-0.5c0.2-0.2,0.4-0.5,0.5-0.8s0.2-0.6,0.2-1v-3.4h-1.8v3.5
		c0,0.3-0.1,0.6-0.3,0.7c-0.2,0.2-0.4,0.3-0.7,0.3s-0.5-0.1-0.7-0.3c-0.2-0.2-0.3-0.4-0.3-0.7v-3.5L153.1,60.8L153.1,60.8z"/>
	<polygon points="159.8,60.8 159.8,66.5 161.5,66.5 161.5,65.1 162.4,64.1 163.6,66.5 165.8,66.5 163.6,62.9 165.7,60.8 163.4,60.8 
		161.5,62.9 161.5,60.8 	"/>
</g>
</svg>
