<?xml version="1.0" encoding="utf-8"?>
<!-- Generator: Adobe Illustrator 25.3.0, SVG Export Plug-In . SVG Version: 6.00 Build 0)  -->
<svg version="1.1" id="Layer_1" xmlns="http://www.w3.org/2000/svg" xmlns:xlink="http://www.w3.org/1999/xlink" x="0px" y="0px"
	 viewBox="0 0 200 100" style="enable-background:new 0 0 200 100;" xml:space="preserve">
<style type="text/css">
	.st0{fill:#FFFFFF;}
</style>
<g>
	<path class="st0" d="M85.5,35.8c-0.9,0-1.9,0.1-2.9,0.2c-9.2,1-16.9,6.3-17.1,11.9c-0.2,5.6,7.1,9.3,16.4,8.4
		c9.2-1,16.9-6.3,17.1-11.9C99.2,39.3,93.3,35.8,85.5,35.8z M84.1,52.7c-5.3,0.6-9.5-1.6-9.4-4.8c0.1-3.2,4.5-6.3,9.8-6.8
		s9.5,1.6,9.4,4.8C93.8,49.1,89.4,52.1,84.1,52.7z"/>
	<path class="st0" d="M107.1,6.6c-0.4,0-0.8,0-1.2,0.1c-7.8,0.7-14.5,8.1-15,16.6c-0.4,8.5,5.5,14.8,13.4,14.2s14.5-8.1,15-16.6
		C119.7,12.7,114.3,6.6,107.1,6.6z M114.5,23.5c-0.3,4.8-4.1,9-8.6,9.4c-4.5,0.4-7.9-3.2-7.7-8c0.3-4.8,4.1-9,8.6-9.4
		C111.4,15.1,114.8,18.7,114.5,23.5z"/>
	<path class="st0" d="M131.5,16.9c-0.3-0.1-0.5-0.1-0.8-0.1c-3.5,0-8.1,3.7-10.8,8.8c-2.9,5.5-2.4,10.5,1.1,11.2
		c3.5,0.7,8.8-3.2,11.7-8.7C135.5,22.6,135,17.6,131.5,16.9z M129.7,28.5c-1.8,2.9-4.7,4.9-6.6,4.3c-1.9-0.5-2-3.4-0.2-6.3
		c1.8-2.9,4.7-4.9,6.6-4.3C131.4,22.8,131.5,25.6,129.7,28.5z"/>
	<path class="st0" d="M114.5,35.8c-1.4,0-3.1,0.4-4.9,1.2c-5.1,2.3-9.3,7.1-9.4,10.7c-0.1,3.7,4,4.8,9.1,2.5
		c5.1-2.3,9.3-7.1,9.4-10.7C118.8,37.1,117.1,35.8,114.5,35.8z M110.8,47.5c-2.9,1.3-5.2,0.7-5.1-1.2c0-2,2.4-4.6,5.3-5.9
		c2.9-1.3,5.2-0.7,5.1,1.2C116,43.6,113.7,46.2,110.8,47.5z"/>
	<path class="st0" d="M134.2,62.8c-1.3,0.4-2.4,0.9-3.2,1.5c-0.5,0.4-0.9,0.7-1.2,1.1c-0.3,0.4-0.4,1-0.4,1.6v11.5
		c0,0.6,0.1,1.1,0.2,1.5c0.2,0.4,0.4,0.7,0.7,0.9c0.3,0.2,0.7,0.4,1.1,0.5c0.4,0.1,0.9,0.1,1.5,0.1c0.6,0,1.1,0,1.7-0.1
		c0.5-0.1,0.9-0.2,1.2-0.2V67.9c0.2-0.1,0.5-0.3,0.8-0.4c0.3-0.1,0.7-0.2,1.2-0.2c0.7,0,1.2,0.2,1.7,0.5c0.5,0.3,0.7,0.9,0.7,1.7
		v9.1c0,0.6,0.1,1.1,0.2,1.5c0.2,0.4,0.4,0.7,0.7,0.9s0.7,0.4,1.1,0.5c0.4,0.1,0.9,0.1,1.5,0.1c0.6,0,1.1,0,1.7-0.1
		c0.5-0.1,1-0.2,1.2-0.2V68.6v-0.2c0-0.1,0-0.2,0-0.3c0.2-0.2,0.5-0.3,0.9-0.5c0.4-0.2,0.8-0.2,1.1-0.2c0.7,0,1.3,0.2,1.8,0.5
		c0.4,0.3,0.6,0.9,0.6,1.7v9.1c0,0.6,0.1,1.1,0.2,1.5c0.2,0.4,0.4,0.7,0.7,0.9s0.7,0.4,1.1,0.5c0.4,0.1,0.9,0.1,1.5,0.1
		c0.6,0,1.1,0,1.7-0.1c0.5-0.1,0.9-0.2,1.2-0.2v-12c0-1.3-0.2-2.4-0.6-3.3c-0.4-0.9-1-1.6-1.7-2.2c-0.7-0.5-1.5-0.9-2.5-1.2
		c-0.9-0.3-1.9-0.4-2.8-0.4c-1.3,0-2.5,0.2-3.4,0.5c-1,0.3-1.8,0.7-2.6,1.3c-0.7-0.6-1.6-1-2.6-1.3c-1-0.3-2-0.4-3.1-0.4
		C136.8,62.2,135.4,62.4,134.2,62.8 M107.2,73.9c0,1.4,0.2,2.6,0.7,3.6c0.5,1,1.1,1.8,1.9,2.5c0.8,0.6,1.8,1.1,3,1.4
		c1.2,0.3,2.4,0.5,3.8,0.5c1.4,0,2.8-0.1,4-0.4c1.2-0.3,2.3-0.7,3.2-1.3c1.1-0.6,1.6-1.6,1.6-2.9V65.7c0-0.6-0.1-1.1-0.2-1.5
		c-0.2-0.4-0.4-0.7-0.7-0.9s-0.7-0.4-1.1-0.5c-0.4-0.1-0.9-0.1-1.5-0.1c-0.6,0-1.1,0-1.7,0.1c-0.5,0.1-0.9,0.2-1.2,0.2v13.3
		c-0.2,0.1-0.5,0.2-0.9,0.3c-0.4,0.1-0.8,0.2-1.4,0.2c-1,0-1.7-0.2-2.2-0.7c-0.5-0.4-0.8-1.2-0.8-2.2v-8.2c0-0.6-0.1-1.1-0.2-1.5
		c-0.2-0.4-0.4-0.7-0.7-0.9c-0.3-0.2-0.7-0.4-1.1-0.5c-0.4-0.1-0.9-0.1-1.5-0.1c-0.6,0-1.1,0-1.7,0.1c-0.5,0.1-0.9,0.2-1.2,0.2
		L107.2,73.9z M99.8,78.5c0.4-0.9,0.8-1.9,1.2-2.9c0.4-1,0.8-2.1,1.2-3.2c0.4-1.1,0.7-2.1,1-3.1c0.3-1,0.5-1.9,0.7-2.6
		c0.2-0.8,0.3-1.4,0.3-1.8c0-0.9-0.3-1.6-0.9-2c-0.6-0.4-1.4-0.6-2.2-0.6c-0.5,0-1,0.1-1.6,0.2c-0.5,0.1-1,0.3-1.5,0.5
		c-0.4,2.2-0.9,4.5-1.4,6.7s-1,4.4-1.5,6.2h-0.2c-0.1-0.5-0.3-1.2-0.6-2.1c-0.3-0.9-0.5-2-0.8-3.1L92.1,65c-0.3-1-0.7-1.7-1.3-2.1
		c-0.6-0.4-1.3-0.6-2.2-0.6c-0.7,0-1.4,0.1-2,0.4c-0.6,0.3-1.1,0.6-1.4,0.9c0.2,0.8,0.4,1.6,0.7,2.6c0.3,1,0.6,2,0.9,3.1
		s0.7,2.1,1.1,3.2c0.4,1.1,0.7,2.1,1.1,3.1c0.4,1,0.7,1.8,1,2.6c0.3,0.8,0.6,1.4,0.8,1.8c0.3,0.6,0.8,1,1.5,1.2
		c0.7,0.3,1.6,0.4,2.6,0.4c0.9,0,1.6-0.1,2.3-0.3c0.7-0.2,1.2-0.4,1.6-0.7C99.1,80.2,99.5,79.4,99.8,78.5 M71.3,68.5
		c0.6-0.8,1.4-1.2,2.5-1.2c1.1,0,1.9,0.4,2.5,1.2c0.6,0.8,0.9,2,0.9,3.5s-0.3,2.7-0.9,3.5c-0.6,0.8-1.4,1.3-2.5,1.3
		c-1.1,0-1.9-0.4-2.5-1.2c-0.6-0.8-0.9-2-0.9-3.6C70.5,70.5,70.7,69.3,71.3,68.5 M83,68c-0.5-1.2-1.2-2.3-2-3.1
		c-0.9-0.8-1.9-1.5-3.1-2c-1.2-0.5-2.6-0.7-4.1-0.7c-1.5,0-2.9,0.2-4.1,0.7c-1.2,0.5-2.3,1.1-3.1,2c-0.9,0.9-1.6,1.9-2,3.1
		c-0.5,1.2-0.7,2.6-0.7,4.1c0,1.5,0.2,2.9,0.7,4.1c0.5,1.2,1.2,2.3,2,3.1c0.9,0.9,1.9,1.5,3.1,2c1.2,0.5,2.6,0.7,4.1,0.7
		c1.5,0,2.9-0.2,4.1-0.6c1.2-0.4,2.3-1.1,3.1-1.9c0.9-0.8,1.6-1.9,2-3.1c0.5-1.2,0.7-2.6,0.7-4.2C83.8,70.5,83.5,69.2,83,68
		 M54.2,78.5c0,0.6,0.1,1.1,0.2,1.5c0.2,0.4,0.4,0.7,0.7,0.9c0.3,0.2,0.7,0.4,1.1,0.5c0.4,0.1,0.9,0.1,1.5,0.1c0.6,0,1.1,0,1.7-0.1
		c0.5-0.1,0.9-0.2,1.2-0.2l0-11.9c0-2.2-0.8-4-2.3-5.2c-1.5-1.3-3.8-1.9-6.6-1.9c-1.6,0-3.1,0.2-4.4,0.6c-1.3,0.4-2.4,0.9-3.3,1.5
		c-0.5,0.4-0.9,0.7-1.2,1.2c-0.3,0.4-0.4,1-0.4,1.7l0,11.4c0,0.6,0.1,1.1,0.2,1.5c0.2,0.4,0.4,0.7,0.7,0.9s0.7,0.4,1.1,0.5
		c0.4,0.1,0.9,0.1,1.5,0.1c0.6,0,1.1,0,1.7-0.1c0.5-0.1,0.9-0.2,1.2-0.2l0-13.2c0.4-0.3,0.8-0.4,1.3-0.6c0.5-0.1,1-0.2,1.5-0.2
		c0.8,0,1.4,0.2,1.8,0.6c0.4,0.4,0.7,0.9,0.7,1.7V78.5z"/>
	<path class="st0" d="M157.3,92.3h-2.7v-4.3c0-0.1,0-0.1-0.1-0.2c0,0-0.1-0.1-0.2-0.1h-0.8c-0.1,0-0.1,0-0.2,0.1
		c0,0-0.1,0.1-0.1,0.2v5.1c0,0.1,0,0.1,0.1,0.2c0,0,0.1,0.1,0.2,0.1h3.7c0.1,0,0.1,0,0.2-0.1c0,0,0.1-0.1,0.1-0.2v-0.6
		c0-0.1,0-0.1-0.1-0.2C157.4,92.3,157.4,92.3,157.3,92.3 M141.2,88.8h2.8c0.1,0,0.1,0,0.2-0.1c0,0,0.1-0.1,0.1-0.2v-0.6
		c0-0.1,0-0.1-0.1-0.2c0,0-0.1-0.1-0.2-0.1h-3.8c-0.1,0-0.1,0-0.2,0.1c0,0-0.1,0.1-0.1,0.2v5.1c0,0.1,0,0.1,0.1,0.2
		c0,0,0.1,0.1,0.2,0.1h3.8c0.1,0,0.1,0,0.2-0.1c0,0,0.1-0.1,0.1-0.2v-0.6c0-0.1,0-0.1-0.1-0.2c0,0-0.1-0.1-0.2-0.1l-2.8,0v-1.2h2.5
		c0.1,0,0.1,0,0.2-0.1c0,0,0.1-0.1,0.1-0.2v-0.6c0-0.1,0-0.1-0.1-0.2c0,0-0.1-0.1-0.2-0.1h-2.5V88.8z M126.8,90.1l3.6,3.1
		c0,0,0.1,0.1,0.1,0.1c0,0,0.1,0,0.1-0.1c0,0,0-0.1,0-0.1v-5.2c0-0.1,0-0.1-0.1-0.2c0,0-0.1-0.1-0.2-0.1h-0.8c-0.1,0-0.1,0-0.2,0.1
		c0,0-0.1,0.1-0.1,0.2v3l-3.6-3.2c-0.1-0.1-0.1-0.1-0.2-0.1c0,0-0.1,0-0.1,0c0,0,0,0.1,0,0.1v5.2c0,0.1,0,0.1,0.1,0.2
		c0,0,0.1,0.1,0.2,0.1h0.7c0.1,0,0.1,0,0.2-0.1c0,0,0.1-0.1,0.1-0.2V90.1z M112.4,90.1l3.6,3.1c0,0,0.1,0.1,0.1,0.1
		c0,0,0.1,0,0.1-0.1c0,0,0-0.1,0-0.1v-5.2c0-0.1,0-0.1-0.1-0.2c0,0-0.1-0.1-0.2-0.1l-0.8,0c-0.1,0-0.1,0-0.2,0.1
		c0,0-0.1,0.1-0.1,0.2v3l-3.6-3.2c-0.1-0.1-0.1-0.1-0.2-0.1c0,0-0.1,0-0.1,0c0,0,0,0.1,0,0.1l0,5.2c0,0.1,0,0.1,0.1,0.2
		c0,0,0.1,0.1,0.2,0.1h0.7c0.1,0,0.1,0,0.2-0.1c0,0,0.1-0.1,0.1-0.2V90.1z M99.1,88.7c0.3,0,0.6,0.1,0.9,0.2
		c0.3,0.2,0.5,0.4,0.7,0.7c0.2,0.3,0.2,0.6,0.2,0.9c0,0.3-0.1,0.6-0.2,0.9c-0.2,0.3-0.4,0.5-0.7,0.7c-0.3,0.2-0.6,0.3-0.9,0.3
		c-0.3,0-0.6-0.1-0.9-0.3c-0.3-0.2-0.5-0.4-0.7-0.7c-0.2-0.3-0.2-0.6-0.2-0.9c0-0.3,0.1-0.6,0.2-0.9c0.2-0.3,0.4-0.5,0.7-0.7
		C98.4,88.8,98.7,88.7,99.1,88.7 M99.1,93.4c0.5,0,1.1-0.1,1.5-0.4c0.5-0.3,0.8-0.6,1.1-1.1c0.3-0.4,0.4-0.9,0.4-1.5
		c0-0.5-0.1-1-0.4-1.5c-0.3-0.4-0.6-0.8-1.1-1.1c-0.5-0.3-1-0.4-1.5-0.4c-0.5,0-1,0.1-1.5,0.4c-0.5,0.3-0.8,0.6-1.1,1.1
		c-0.3,0.4-0.4,0.9-0.4,1.4c0,0.5,0.1,1,0.4,1.5c0.3,0.4,0.6,0.8,1.1,1.1C98,93.3,98.5,93.4,99.1,93.4 M82.8,92.7
		c0.6,0.5,1.4,0.7,2.4,0.7c0.7,0,1.2-0.2,1.6-0.5c0.4-0.3,0.6-0.7,0.6-1.3c0-0.4-0.1-0.7-0.3-1c-0.2-0.2-0.4-0.4-0.7-0.5
		c-0.3-0.1-0.6-0.2-1.1-0.3L85,89.9c-0.3-0.1-0.5-0.1-0.6-0.1c-0.1,0-0.3-0.1-0.4-0.2c-0.1-0.1-0.1-0.2-0.1-0.3
		c0-0.2,0.1-0.3,0.3-0.4c0.2-0.1,0.4-0.1,0.7-0.1c0.2,0,0.5,0,0.7,0.1c0.2,0.1,0.5,0.2,0.7,0.3c0.1,0,0.1,0.1,0.2,0.1
		c0.1,0,0.1,0,0.2-0.1l0.4-0.6c0,0,0.1-0.1,0.1-0.1c0-0.1,0-0.1-0.1-0.2c-0.3-0.2-0.6-0.4-0.9-0.5c-0.3-0.1-0.7-0.1-1.1-0.1
		c-0.6,0-1.2,0.1-1.6,0.4c-0.4,0.3-0.6,0.7-0.6,1.3c0,0.4,0.1,0.7,0.4,1c0.2,0.2,0.5,0.4,0.8,0.5c0.3,0.1,0.6,0.2,1.1,0.3l0.7,0.1
		c0.4,0.1,0.6,0.3,0.6,0.5c0,0.2-0.1,0.3-0.3,0.4c-0.2,0.1-0.4,0.2-0.8,0.2c-0.3,0-0.5-0.1-0.9-0.2c-0.3-0.1-0.6-0.2-0.8-0.4
		c-0.1,0-0.1-0.1-0.1-0.1c-0.1,0-0.1,0-0.2,0.1l-0.4,0.6c0,0.1-0.1,0.1-0.1,0.1C82.7,92.6,82.7,92.6,82.8,92.7 M70.4,90.5v-1.8h1.3
		c0.3,0,0.5,0.1,0.6,0.3c0.1,0.2,0.2,0.4,0.2,0.6c0,0.3-0.1,0.5-0.2,0.6c-0.2,0.2-0.4,0.2-0.6,0.2H70.4z M70.4,93.1v-1.5h0.8
		c0.4,0.6,0.8,1.1,1.2,1.6c0.1,0.1,0.2,0.1,0.3,0.1h0.9c0.1,0,0.1,0,0.1,0c0,0,0-0.1,0-0.1c0-0.1,0-0.1-0.1-0.1
		c-0.3-0.3-0.5-0.6-0.6-0.8c-0.2-0.2-0.3-0.4-0.4-0.5l-0.2-0.3c0.4-0.1,0.6-0.4,0.8-0.7c0.2-0.3,0.3-0.7,0.3-1.1
		c0-0.4-0.1-0.7-0.3-1c-0.2-0.3-0.4-0.5-0.7-0.7c-0.3-0.2-0.7-0.2-1.1-0.2h-2.3c-0.1,0-0.1,0-0.2,0.1c0,0-0.1,0.1-0.1,0.2v5.1
		c0,0.1,0,0.1,0.1,0.2c0,0,0.1,0.1,0.2,0.1h0.7c0.1,0,0.1,0,0.2-0.1C70.4,93.2,70.4,93.1,70.4,93.1 M57,88.8l2.8,0
		c0.1,0,0.1,0,0.2-0.1c0,0,0.1-0.1,0.1-0.2v-0.6c0-0.1,0-0.1-0.1-0.2c0,0-0.1-0.1-0.2-0.1l-3.8,0c-0.1,0-0.1,0-0.2,0.1
		c0,0-0.1,0.1-0.1,0.2l0,5.1c0,0.1,0,0.1,0.1,0.2c0,0,0.1,0.1,0.2,0.1h3.8c0.1,0,0.1,0,0.2-0.1c0,0,0.1-0.1,0.1-0.2v-0.6
		c0-0.1,0-0.1-0.1-0.2c0,0-0.1-0.1-0.2-0.1H57v-1.2h2.5c0.1,0,0.1,0,0.2-0.1c0,0,0.1-0.1,0.1-0.2v-0.6c0-0.1,0-0.1-0.1-0.2
		c0,0-0.1-0.1-0.2-0.1H57V88.8z M43.7,90.6v-1.9h1.1c0.2,0,0.4,0,0.5,0.1c0.1,0.1,0.3,0.2,0.3,0.4s0.1,0.3,0.1,0.5
		c0,0.3-0.1,0.5-0.2,0.7c-0.2,0.2-0.4,0.3-0.6,0.3H43.7z M42.5,87.9v5.1c0,0.1,0,0.1,0.1,0.2c0,0,0.1,0.1,0.2,0.1h0.8
		c0.1,0,0.1,0,0.2-0.1c0,0,0.1-0.1,0.1-0.2l0-1.4h1.1c0.5,0,0.9-0.1,1.2-0.3c0.3-0.2,0.6-0.4,0.8-0.7c0.2-0.3,0.3-0.6,0.3-1
		c0-0.4-0.1-0.7-0.3-1c-0.2-0.3-0.5-0.6-0.8-0.7c-0.3-0.2-0.7-0.3-1.2-0.3h-2c-0.1,0-0.1,0-0.2,0.1C42.5,87.8,42.5,87.9,42.5,87.9"
		/>
</g>
</svg>
