<?xml version="1.0" encoding="utf-8"?>
<!-- Generator: Adobe Illustrator 25.3.0, SVG Export Plug-In . SVG Version: 6.00 Build 0)  -->
<svg version="1.1" id="Layer_1" xmlns="http://www.w3.org/2000/svg" xmlns:xlink="http://www.w3.org/1999/xlink" x="0px" y="0px"
	 viewBox="0 0 750.2 400.1" style="enable-background:new 0 0 750.2 400.1;" xml:space="preserve">
<g>
	<polygon points="244.3,173.6 244.3,167.7 223.8,160.6 209.4,160.6 	"/>
	<polygon points="225,236.2 159.9,213.9 159.9,218.8 207.8,236.2 	"/>
	<polygon points="159.9,160.6 159.9,163.7 160.9,206.3 160.9,207.1 161.8,207.4 244.3,234.5 244.3,233.8 163.8,205.5 164.8,160.6 	
		"/>
	<polygon points="174.2,190.4 174.2,191.8 175.8,192.4 244.3,217.3 244.3,211.1 179.5,189 178.8,160.6 174.9,160.6 	"/>
	<polygon points="185.5,160.6 186,183.2 186,184 186.9,184.3 244.3,203.1 244.3,201.9 188.9,182.5 189.4,160.6 	"/>
</g>
</svg>
