<?xml version="1.0" encoding="utf-8"?>
<!-- Generator: Adobe Illustrator 25.3.0, SVG Export Plug-In . SVG Version: 6.00 Build 0)  -->
<svg version="1.1" id="Layer_1" xmlns="http://www.w3.org/2000/svg" xmlns:xlink="http://www.w3.org/1999/xlink" x="0px" y="0px"
	 viewBox="0 0 750.2 400.1" style="enable-background:new 0 0 750.2 400.1;" xml:space="preserve">
<path d="M118.9,162.1c0.1,1.2,0.2,2.6,0.3,3.9h166.7c0.1-1.3,0.2-2.7,0.3-3.9H118.9z"/>
<path d="M120.2,179.8c0.1,1.3,0.2,2.6,0.2,3.9h164.3c0.1-1.3,0.2-2.6,0.2-3.9H120.2z"/>
<path d="M121.1,197.2c0.1,1.3,0.1,2.6,0.2,3.9h162.7c0.1-1.3,0.1-2.6,0.2-3.9H121.1z"/>
<path d="M121.7,214.9c0,1.3,0.1,2.6,0.1,3.9h161.5c0-1.3,0.1-2.6,0.1-3.9H121.7z"/>
<path d="M122.1,232.3c0,1.3,0,2.6,0,3.9h160.9c0-1.3,0-2.6,0-3.9H122.1z"/>
<path d="M283,250.1H122.2c0,1.3,0,2.6,0,3.9H283C283,252.7,283,251.4,283,250.1z"/>
<path d="M122.1,267.5c0,1.3,0,2.6-0.1,3.9h161.2c0-1.3,0-2.6-0.1-3.9H122.1z"/>
<path d="M121.6,285.2c0,1.3-0.1,2.6-0.1,3.9h162.2c0-1.3-0.1-2.6-0.1-3.9H121.6z"/>
<path d="M120.9,302.6c-0.1,1.3-0.2,2.6-0.2,3.9h163.9c-0.1-1.3-0.2-2.6-0.2-3.9H120.9z"/>
<path d="M285.6,320.4h-166c-0.1,1.3-0.2,2.6-0.4,3.9h166.7C285.8,323,285.7,321.7,285.6,320.4z"/>
</svg>
