<?xml version="1.0" encoding="utf-8"?>
<!-- Generator: Adobe Illustrator 25.3.0, SVG Export Plug-In . SVG Version: 6.00 Build 0)  -->
<svg version="1.1" id="Layer_1" xmlns="http://www.w3.org/2000/svg" xmlns:xlink="http://www.w3.org/1999/xlink" x="0px" y="0px"
	 viewBox="0 0 750.2000122 400.1000061" style="enable-background:new 0 0 750.2000122 400.1000061;" xml:space="preserve">
<path d="M118.5490723,330.6521912c-0.2471924,2.1474609-0.503479,4.2581787-0.7798462,6.2840576
	c0.557373,0.0493164,1.1499023,0.100708,1.7583008,0.1530762c3.6939697,0.130188,7.6170044,0.2637329,11.7606201,0.3986206
	L118.5490723,330.6521912z"/>
<path d="M132.8638916,295.1335754l-11.3735352-6.1030273c-0.2357788,6.2070312-0.5339355,12.2852173-0.9052124,18.1495361
	l12.2787476,6.5887451V295.1335754z"/>
<path d="M287.3986206,336.912323c-0.2657471-1.9490967-0.5128174-3.9771729-0.7515869-6.0390015l-12.3269043,6.614624
	c3.9846802-0.1297607,7.7686157-0.2582397,11.3381958-0.383667c0.5889282-0.0505371,1.1630859-0.1002808,1.7051392-0.1480103
	C287.3751831,336.9421082,287.3869019,336.9266663,287.3986206,336.912323z"/>
<path d="M283.6890869,289.2607117l-10.9446411,5.8728638v18.6352539l11.8547363-6.3612671
	C284.2258911,301.54599,283.9265747,295.4674377,283.6890869,289.2607117z"/>
<path d="M477.6160889,296.1336365l-11.1867676-6.0028076c-0.1832275,6.2037354-0.4226685,12.3113403-0.7254639,18.2459717
	l11.9122314,6.3920898V296.1336365z"/>
<path d="M477.6160889,338.5394592c-0.5341797-0.0172119-1.0484619-0.0343018-1.5756836-0.0514526l-11.9988403-6.4385986
	c-0.4683228,5.0227661-1.0012817,9.7952881-1.6072998,14.241333c2.3262329,1.1116943,7.65271,3.543335,15.1818237,6.3255005
	V338.5394592z"/>
<path d="M614.7160645,338.5394592v14.8561401c10.8049316-4.0665894,17.1124878-7.5789795,17.2601929-7.6627808l0.0410156-0.0185547
	c-0.6186523-4.6140137-1.1607056-9.5687256-1.633667-14.7879028l-14.0917969,7.5616455
	C615.7645264,338.5051575,615.2503052,338.5222473,614.7160645,338.5394592z"/>
<path d="M628.0668335,288.969635l-13.350769,7.1640015v18.6352539l14.0522461-7.5404053
	C628.4742432,301.283783,628.2427368,295.1724548,628.0668335,288.969635z"/>
</svg>
