<?xml version="1.0" encoding="utf-8"?>
<!-- Generator: Adobe Illustrator 25.3.0, SVG Export Plug-In . SVG Version: 6.00 Build 0)  -->
<svg version="1.1" id="Layer_1" xmlns="http://www.w3.org/2000/svg" xmlns:xlink="http://www.w3.org/1999/xlink" x="0px" y="0px"
	 viewBox="0 0 750.2 400.1" style="enable-background:new 0 0 750.2 400.1;" xml:space="preserve">
<path d="M120.1,178.8c0.1,1.3,0.2,2.6,0.2,3.9h164.4c0.1-1.3,0.2-2.6,0.2-3.9H120.1z"/>
<path d="M121.7,213.9c0,1.3,0.1,2.6,0.1,3.9h161.6c0-1.3,0.1-2.6,0.1-3.9H121.7z"/>
<path d="M283,249.1H122.2c0,1.3,0,2.6,0,3.9H283C283,251.7,283,250.4,283,249.1z"/>
<path d="M121.7,284.2c0,1.3-0.1,2.6-0.1,3.9h162.1c0-1.3-0.1-2.6-0.1-3.9H121.7z"/>
<path d="M285.8,323.3c-0.1-1.3-0.2-2.6-0.3-3.9H119.7c-0.1,1.3-0.2,2.6-0.3,3.9H285.8z"/>
</svg>
