<?xml version="1.0" encoding="utf-8"?>
<!-- Generator: Adobe Illustrator 25.3.0, SVG Export Plug-In . SVG Version: 6.00 Build 0)  -->
<svg version="1.1" id="Layer_1" xmlns="http://www.w3.org/2000/svg" xmlns:xlink="http://www.w3.org/1999/xlink" x="0px" y="0px"
	 viewBox="0 0 750.2000122 400.1000061" style="enable-background:new 0 0 750.2000122 400.1000061;" xml:space="preserve">
<path d="M122.1047363,235.1649475c3.4758301,50.1629639,8.4645996,87.9569702,16.7387085,103.3672485
	c3.1104126,0.1997681,6.4141235,0.3972168,9.8959351,0.5855713
	c-11.6068726-15.3371582-21.5301514-61.0427856-26.9280396-120.2807007
	C121.9407959,224.1708069,122.0403442,229.6286926,122.1047363,235.1649475z"/>
<path d="M283.3011475,221.3849182c-5.4481201,57.9987183-15.2521362,102.6170654-26.6921387,117.7332153
	c3.4816284-0.1882935,6.7856445-0.3855591,9.895874-0.5853271c8.1113281-15.1063232,13.0654297-51.7233887,16.5319214-100.4174805
	C283.0897217,232.4511414,283.1791382,226.8579407,283.3011475,221.3849182z"/>
<path d="M466.9033813,249.9590759c2.8937378,46.0959473,6.8181763,82.6063843,12.7191772,103.3879395
	c2.8887939,1.0360718,6.0553589,2.1066895,9.4801636,3.1674194c-9.5353394-22.0241699-17.5914917-67.828125-22.3945312-125.3425903
	C466.8108521,237.3058167,466.8786011,243.594574,466.9033813,249.9590759z"/>
<path d="M627.8787842,227.9455872c-4.7824097,59.1983032-12.9937134,106.4159546-22.7441406,128.7703247
	c3.4853516-1.1065063,6.6712036-2.225647,9.5483398-3.3079224c6.0654907-21.3150024,10.0444336-59.2314453,12.9621582-107.0925903
	C627.6853638,240.0783386,627.765625,233.929718,627.8787842,227.9455872z"/>
</svg>
