<?xml version="1.0" encoding="utf-8"?>
<!-- Generator: Adobe Illustrator 25.3.0, SVG Export Plug-In . SVG Version: 6.00 Build 0)  -->
<svg version="1.1" id="Layer_1" xmlns="http://www.w3.org/2000/svg" xmlns:xlink="http://www.w3.org/1999/xlink" x="0px" y="0px"
	 viewBox="0 0 750.2 400.1" style="enable-background:new 0 0 750.2 400.1;" xml:space="preserve">
<path d="M118.8,161.4c0.2,2.4,0.5,5,0.7,7.8h166.2c0.2-2.8,0.4-5.4,0.7-7.8H118.8z"/>
<path d="M121.9,223.9c0.1,2.6,0.1,5.2,0.1,7.8h161.1c0-2.6,0.1-5.2,0.1-7.8H121.9z"/>
<path d="M303.2,64.6l-2.4-0.7l-8.6,37.3c0.3,2.8,0.5,5.5,0.7,8.1L303.2,64.6z"/>
<polygon points="323.8,133.6 337.4,74.7 335,74 321.4,133.1 "/>
<path d="M113,94.3l-7.1-30.8l-2.4,0.7l8.7,37.8C112.4,99.5,112.7,96.9,113,94.3z"/>
<polygon points="85.3,132.9 71.6,73.6 69.2,74.4 82.8,133.3 "/>
<path d="M457.1,101.2l-8.6-37.1l-2.4,0.7l10.3,44.5C456.6,106.8,456.8,104,457.1,101.2z"/>
<polygon points="427.9,133.3 414.2,74.2 411.8,75 425.4,133.8 "/>
<path d="M644.7,63.7l-2.3-0.7l-6.6,28.4c0.3,2.6,0.6,5.1,0.8,7.5L644.7,63.7z"/>
<polygon points="676.6,73.1 662.9,132.5 665.3,133 679,73.8 "/>
</svg>
