<?xml version="1.0" encoding="utf-8"?>
<!-- Generator: Adobe Illustrator 25.3.0, SVG Export Plug-In . SVG Version: 6.00 Build 0)  -->
<svg version="1.1" id="Layer_1" xmlns="http://www.w3.org/2000/svg" xmlns:xlink="http://www.w3.org/1999/xlink" x="0px" y="0px"
	 viewBox="0 0 750.2 400.1" style="enable-background:new 0 0 750.2 400.1;" xml:space="preserve">
<g>
	<path d="M213.1,96.6c-1.9,0.2-3.1,1-3.5,1.8c-0.6,0.9-0.5,5.4-0.5,9.7c0.1,6.5,0.2,14.6-1.5,19c-0.8,2.6-3.2,4.4-4.5,5.2l3.1,3.3
		c1.3-0.9,5-3.6,5.6-7.8c0.2-1.5,0.1-4.6,0-8.2c-0.3-10.1-0.3-18,2.4-19.6c0.6-0.3,1.5-0.6,2.8,0.2l-0.4,0.7l6.2,0.3
		C218.5,96.8,214.9,96.4,213.1,96.6z"/>
	<path d="M261.8,128.8c-1.7-4.4-1.5-13.1-1.4-20.2c0.1-4.7,0.2-9.5-0.4-10.4c-0.5-0.8-1.6-1.6-3.5-1.8c-1.8-0.2-5.4,0.2-9.7,4.6
		l6.2-0.3l-0.3-0.7c1.3-0.7,2.2-0.5,2.8-0.2c2.8,1.6,2.7,9.5,2.4,19.6c-0.1,3.6-0.2,6.7,0,8.2c0.6,4.5,3.6,11.5,4.6,14l4.3-3.1
		C265.7,136.7,262.7,131.6,261.8,128.8z"/>
</g>
</svg>
