<?xml version="1.0" encoding="utf-8"?>
<!-- Generator: Adobe Illustrator 25.3.0, SVG Export Plug-In . SVG Version: 6.00 Build 0)  -->
<svg version="1.1" id="Layer_1" xmlns="http://www.w3.org/2000/svg" xmlns:xlink="http://www.w3.org/1999/xlink" x="0px" y="0px"
	 viewBox="0 0 750.2000122 400.1000061" style="enable-background:new 0 0 750.2000122 400.1000061;" xml:space="preserve">

<path class="st0" d="M251.5718384,49.1042786c-0.0029297,2.828125-0.6508789,8.590332-4.1982422,13.6303711l4.4223633,1.2568359
	l0.0224609,0.0087891c3.1791382,1.2463989,6.0708618,2.8137207,8.7314453,4.6085815l3.7019653-15.9344482l-12.6838989-3.8391724
	L251.5718384,49.1042786z"/>
<path class="st0" d="M143.9819946,68.5716248c2.8201904-1.8388062,5.887146-3.4413452,9.2576904-4.7628784l-0.6364136,0.1794434
	l4.4226074-1.2565918c-3.5473633-5.0401611-3.34729-10.7990112-3.3502197-13.6271362
	c0-0.2650146-0.0941162-0.0571289-0.0841064-0.2692261l-13.2615356,4.0170898L143.9819946,68.5716248z"/>
<path class="st0" d="M597.3569946,63.7727356c2.9049072,1.7059937,5.5568848,3.5779419,7.9991455,5.5689697l3.8317871-16.4934082
	l-15.4090576-4.6365967l-0.262207-0.046875c-3.9609375-0.2739258-12.4428711-0.6884766-20.3964844-1.0273438L597.3569946,63.7727356
	z"/>
<path class="st0" d="M487.5806274,67.9110413c1.9286499-1.4577026,3.9702148-2.8485107,6.1665039-4.1383057l26.0253906-16.6352539
	c-2.8364258,0.1210938-5.496582,0.2514648-7.9306641,0.3818359l0.0395508-0.0322266
	c-2.1225586,0.1254883-4.0664062,0.2490234-5.8115234,0.3642578c-1.8642578,0.1147461-3.4882812,0.2216797-4.8115234,0.3134766
	c-1.0961914,0.0756836-1.6240234,0.140625-1.8725586,0.1904297l-0.0366211,0.003418l-0.0581055,0.0175781
	c-0.0205078,0.0053711-0.0371094,0.0107422-0.0512695,0.015625l-14.0205078,4.2749023l-1.102417,0.3348999L487.5806274,67.9110413z"
	/>
</svg>
