<?xml version="1.0" encoding="utf-8"?>
<!-- Generator: Adobe Illustrator 25.3.0, SVG Export Plug-In . SVG Version: 6.00 Build 0)  -->
<svg version="1.1" id="Layer_1" xmlns="http://www.w3.org/2000/svg" xmlns:xlink="http://www.w3.org/1999/xlink" x="0px" y="0px"
	 viewBox="0 0 750.2 400.1" style="enable-background:new 0 0 750.2 400.1;" xml:space="preserve">
<polygon points="104.7,161.4 104.7,169.2 300.2,169.2 300.2,161.4 "/>
<polygon points="300.2,231.7 300.2,223.9 104.7,223.9 104.7,231.7 "/>
<path d="M288.3,117.4c0.5,2.1,0.9,4,1.2,5.7l13.8-58.7l-2.4-0.7L288.3,117.4z"/>
<polygon points="316.8,152 319.2,152.5 337.4,74.8 335.1,74.1 "/>
<path d="M115.9,117.8c0.4-1.7,0.8-3.5,1.3-5.3l-11.3-49.2l-2.4,0.7L115.9,117.8z"/>
<polygon points="87.2,152.2 89.7,151.7 71.7,73.6 69.3,74.4 "/>
<path d="M630.8,112.5c0.5,1.8,0.9,3.6,1.3,5.3l12.7-54.2l-2.3-0.7L630.8,112.5z"/>
<polygon points="676.7,73.2 658.4,151.2 660.8,151.6 679.1,73.9 "/>
<path d="M458.7,119.2c0.4-1.7,0.8-3.6,1.3-5.5l-11.5-49.9l-2.4,0.7L458.7,119.2z"/>
<polygon points="429.7,152.2 432.2,151.7 414.3,74.2 411.9,74.9 "/>
</svg>
