<?xml version="1.0" encoding="utf-8"?>
<!-- Generator: Adobe Illustrator 25.3.0, SVG Export Plug-In . SVG Version: 6.00 Build 0)  -->
<svg version="1.1" id="Layer_1" xmlns="http://www.w3.org/2000/svg" xmlns:xlink="http://www.w3.org/1999/xlink" x="0px" y="0px"
	 viewBox="0 0 750.2000122 400.1000061" style="enable-background:new 0 0 750.2000122 400.1000061;" xml:space="preserve">

<path class="st0" d="M117.9841309,114.5469055c-1.3040771,5.2338257-2.1897583,9.8283691-2.9039307,13.1268921
	c-1.0452881,4.821106-2.5994873,8.9140625-4.1956787,12.2226562v54.0875854
	c0.7941284-0.9382324,1.5640259-1.9875488,2.3069458-3.1550293
	C134.623291,157.1504822,120.8400879,121.1700745,117.9841309,114.5469055z"/>
<path class="st0" d="M289.5048218,127.6737976c-0.7540894-3.4831543-1.6947021-8.4041138-3.1228027-14.0053711
	c-1.4193115,3.069397-18.3478394,41.4105835,4.4021606,77.1605835c0.8874512,1.3945923,1.8174438,2.6015015,2.7773438,3.6707153
	v-54.9104614C292.0137939,136.3310852,290.5186768,132.349884,289.5048218,127.6737976z"/>
<path class="st0" d="M633.1329956,127.9820862c-0.779541-3.5997925-1.6744385-8.4144287-3.0499268-13.8618774
	c-2.3572388,5.3126831-17.3427734,42.2174683,4.6062622,76.7088013c0.8874512,1.3945923,1.8174438,2.6015015,2.7773438,3.6707153
	V140.474884C635.8217163,137.1164856,634.2075195,132.9381409,633.1329956,127.9820862z"/>
<path class="st0" d="M455.9614868,190.82901c21.3765869-33.5917358,7.7202759-69.4715576,4.8157349-76.2283325
	c-1.3079834,5.2509766-2.1711426,9.887207-2.9276733,13.3814697c-1.0826416,4.9933472-2.7108765,9.1959229-4.3660278,12.5633545
	v53.6260376C454.3375244,193.1838074,455.1660156,192.079071,455.9614868,190.82901z"/>
<path class="st0" d="M290.4551392,127.4680481c0.8468628,3.9105835,2.038208,7.3317871,3.3111572,10.2382812l57.5441284,11.5953979
	l1.9388428-8.8920898l-65.8202515-26.5612793C288.8053589,119.3066711,289.7219238,124.0866394,290.4551392,127.4680481z"/>
<path class="st0" d="M116.914917,113.6997375l-65.0197754,26.2382202l2.0079956,9.2091064l56.5637207-11.3978271
	c1.2579346-2.8656006,2.4310913-6.2380371,3.2659302-10.0930786
	C114.4824829,124.198761,115.4639893,119.3020935,116.914917,113.6997375z"/>
<path class="st0" d="M460.0441284,113.5547791l-63.4814453,25.6174316l2.2530518,10.1132202l54.6554565-11.0133057
	c1.3171997-2.9630737,2.5578613-6.463562,3.4312134-10.4949951
	C457.6942139,124.1253967,458.6121216,119.172821,460.0441284,113.5547791z"/>
<path class="st0" d="M631.1124878,113.7588806c1.4024048,5.5341797,2.3070068,10.4105225,3.0892334,14.0182495
	c0.8364258,3.8610229,2.010376,7.2323608,3.2649536,10.1150513v-0.2271118l58.4572754,11.7793579l1.9483032-8.7451782
	L631.1124878,113.7588806z"/>
</svg>
