<?xml version="1.0" encoding="utf-8"?>
<!-- Generator: Adobe Illustrator 25.3.0, SVG Export Plug-In . SVG Version: 6.00 Build 0)  -->
<svg version="1.1" id="Layer_1" xmlns="http://www.w3.org/2000/svg" xmlns:xlink="http://www.w3.org/1999/xlink" x="0px" y="0px"
	 viewBox="0 0 750.2 400.1" style="enable-background:new 0 0 750.2 400.1;" xml:space="preserve">
<path d="M293.6,353.7c1.5-0.1,2.8-0.2,3.9-0.2c1.2-0.1,2.1-0.1,2.6-0.2l0.2-203.4l-0.1-0.1l-0.1-0.1c0,0-1.9-2-4.2-5.8l-92.6,17.2
	l90.3-12.2V353.7z"/>
<path d="M108.7,143.9c-1.9,3.2-3.5,5.1-4,5.7l0.1,203.8c0.5,0,1.4,0.1,2.6,0.2c1,0.1,2.1,0.1,3.5,0.2V148.9l90.7,12.3l-8.1-1.5
	L108.7,143.9z"/>
<path d="M453.5,140.5c-2.3,4.7-4.7,7.8-5.7,9l0.1,203.9c0.1,0,0.3,0.1,0.6,0.1c0.3,0,0.6,0.1,1,0.1l4,0.2V140.5z"/>
<path d="M643.3,149.7c-0.9-1.1-3.4-4.2-5.9-9.2v213.4l1.4-0.1c2.6-0.2,3.8-0.4,4.2-0.5L643.3,149.7z"/>
<path d="M300.5,148.8l48.8,9.7l2-9.2l-57.5-11.6C296.5,143.9,299.5,147.7,300.5,148.8z"/>
<path d="M53.9,149.1l2,9.3l47.7-9.6c1-1.1,4.1-4.9,6.8-11.1L53.9,149.1z"/>
<path d="M400.7,157.7l46.4-8.9c0.2-0.2,0.4-0.5,0.6-0.8c0.7-0.9,1.7-2.3,2.8-4.2c0.9-1.5,1.9-3.4,2.9-5.6l-54.7,11L400.7,157.7z"/>
<path d="M637.5,137.9c1,2.3,2.1,4.3,3,5.9c1.1,1.8,2.2,3.5,3,4.5c0.2,0.3,4.1,0.7,4.3,0.9l46.3,8.5l1.8-8.3l-58.5-11.8V137.9z"/>
</svg>
