<?xml version="1.0" encoding="utf-8"?>
<!-- Generator: Adobe Illustrator 25.3.0, SVG Export Plug-In . SVG Version: 6.00 Build 0)  -->
<svg version="1.1" id="Layer_1" xmlns="http://www.w3.org/2000/svg" xmlns:xlink="http://www.w3.org/1999/xlink" x="0px" y="0px"
	 viewBox="0 0 750.2000122 400.1000061" style="enable-background:new 0 0 750.2000122 400.1000061;" xml:space="preserve">
<rect x="104.7367249" y="296.5497131" width="195.3680115" height="3.8328259"/>
<rect x="104.7086182" y="231.0254211" width="195.4608459" height="3.9972546"/>
<path d="M120.2166138,106.5282288h164.1517944c-0.3919067-1.2593994-0.8112183-2.5346069-1.2593384-3.8198853H121.4759521
	C121.0278931,103.9936218,120.6085205,105.2688293,120.2166138,106.5282288z"/>
<rect x="104.6748352" y="152.6280823" width="195.5722351" height="3.8198864"/>
<path d="M288.2977295,117.4388733c0.4749756,2.0559082,0.8840942,3.9696655,1.2483521,5.7064209l13.7521362-58.6523438
	l-2.3985596-0.7259521L288.2977295,117.4388733z"/>
<polygon points="316.8299561,152.0400085 319.2479248,152.5196228 337.446167,74.8288879 335.0568237,74.1056824 "/>
<path d="M115.9020386,117.7944031c0.399353-1.6900024,0.8463135-3.4785767,1.3407593-5.3322144L105.9447021,63.268158
	l-2.3956909,0.725708L115.9020386,117.7944031z"/>
<polygon points="87.1957397,152.1944885 89.6705933,151.6966248 71.7164307,73.6363831 69.2993774,74.3685608 "/>
<path d="M644.8012695,63.5643616l-2.3146362-0.6964722l-11.6984253,49.630249
	c0.4814453,1.8312378,0.9064331,3.5946655,1.2886963,5.2745972L644.8012695,63.5643616z"/>
<polygon points="679.0562744,73.8717346 676.6659546,73.1524963 658.4024658,151.1661072 660.8284302,151.6123962 "/>
<path d="M448.5424194,63.8089294l-2.394165,0.727356l12.5669556,54.6315918
	c0.3827515-1.7366943,0.8105469-3.5742798,1.2984009-5.4945068L448.5424194,63.8089294z"/>
<polygon points="429.6651001,152.1598206 432.1595459,151.6802673 414.3180542,74.2060852 411.8973999,74.9414368 "/>
</svg>
