<?xml version="1.0" encoding="utf-8"?>
<!-- Generator: Adobe Illustrator 25.3.0, SVG Export Plug-In . SVG Version: 6.00 Build 0)  -->
<svg version="1.1" id="Layer_1" xmlns="http://www.w3.org/2000/svg" xmlns:xlink="http://www.w3.org/1999/xlink" x="0px" y="0px"
	 viewBox="0 0 750.2000122 400.1000061" style="enable-background:new 0 0 750.2000122 400.1000061;" xml:space="preserve">

<path class="st0" d="M142.355896,341.0530701c-14.9470825-15.8894653-27.3842773-82.1352539-31.4713745-164.1132202
	c-0.1130371-2.2670288-0.2209473-4.5436401-0.321106-6.8339844c3.7208862,85.1120605,9.1557007,152.4293213,21.7914429,170.9472046
	c3.5923462,5.2647095,6.6543579,10.036377,9.2342529,14.354187c0.4588013,0.0232544,0.9171143,0.0464478,1.3793945,0.0697021
	c3.9467773,0.1984863,8.0147095,0.3969727,12.1104736,0.588501
	C151.9005737,351.7229309,147.7103882,346.7451477,142.355896,341.0530701z"/>
<path class="st0" d="M263.6429443,355.3462219c2.5722656-4.3016968,5.6224365-9.0533447,9.1978149-14.2931519
	c12.6357422-18.5178833,18.0705566-85.835144,21.7914429-170.9471436c-0.2994995,6.8504639-0.65802,13.5980225-1.0706787,20.2266846
	c-4.7143555,75.7277832-16.5977173,135.7058716-30.7217407,150.720459
	c-5.3339233,5.6702271-9.5115967,10.6310425-12.6855469,14.961792
	C254.7337646,355.7971497,259.2722778,355.5709534,263.6429443,355.3462219z"/>
<path class="st0" d="M470.8966064,357.2124939c3.2234497,0.9157715,6.5792847,1.9661865,10.0742798,3.0853882
	c-13.1287842-25.7636719-23.7520142-96.3550415-27.4873657-181.9344482
	c-0.1195068-2.7382202-0.2329712-5.489624-0.3382568-8.2575684
	C456.4428711,256.8121643,461.0875244,327.4450378,470.8966064,357.2124939z"/>
<path class="st0" d="M638.3672485,170.1059265c-0.2573853,6.7672729-0.5592651,13.4450073-0.9005737,20.0263062
	c-4.0696411,78.4755249-13.9552612,142.7129517-26.1017456,168.487854c3.305603-0.9997559,6.5149536-1.8948364,9.6430664-2.6194458
	C630.5498047,325.5560608,635.1137695,255.6509094,638.3672485,170.1059265z"/>
</svg>
