<?xml version="1.0" encoding="utf-8"?>
<!-- Generator: Adobe Illustrator 25.3.0, SVG Export Plug-In . SVG Version: 6.00 Build 0)  -->
<svg version="1.1" id="Layer_1" xmlns="http://www.w3.org/2000/svg" xmlns:xlink="http://www.w3.org/1999/xlink" x="0px" y="0px"
	 viewBox="0 0 750.2 400.1" style="enable-background:new 0 0 750.2 400.1;" xml:space="preserve">
<g>
	<polygon points="104.7,172.5 104.7,218.8 300.2,218.8 300.2,172.5 	"/>
	<path d="M104.7,306.3l0,47.1c0.5,0,1.4,0.1,2.6,0.2c2,0.1,4.8,0.3,8.4,0.5c7,0.4,16.7,0.9,27.2,1.5c21.1,1.1,45.6,2.1,59.3,2.1
		c24.1,0,81.2-3.3,95.1-4.1c1.2-0.1,2.1-0.1,2.6-0.2l0-47H104.7z"/>
	<polygon points="447.8,229.7 643.3,229.7 643.3,172.5 447.8,172.5 	"/>
	<path d="M447.8,306.3l0,47.2c0.1,0,0.3,0.1,0.6,0.1c0.9,0.1,2.6,0.3,5.9,0.5c10.7,0.6,23.3,5.4,38.1,10c14.8,4.6,31.8,9,51.3,9
		c0.5,0,1.1,0,1.6,0c19-0.2,35.1-4.6,49.3-9.1c14.2-4.5,26.5-9.1,38-9.7c7.2-0.4,9.7-0.7,10.4-0.9l0-47H447.8z"/>
	<path d="M251.6,49.1c0,2.8-0.7,8.6-4.2,13.6l4.4,1.3l0,0c3.2,1.2,6.1,2.8,8.7,4.6l3.7-15.9l-12.7-3.8L251.6,49.1z"/>
	<path d="M144,68.6c2.8-1.8,5.9-3.4,9.3-4.8l-0.6,0.2l4.4-1.3c-3.5-5-3.3-10.8-3.4-13.6c0-0.3-0.1-0.1-0.1-0.3l-13.3,4L144,68.6z"/>
	<path d="M597.4,63.8c2.9,1.7,5.6,3.6,8,5.6l3.8-16.5l-15.4-4.6l-0.3,0c-4-0.3-12.4-0.7-20.4-1L597.4,63.8z"/>
	<path d="M487.6,67.9c1.9-1.5,4-2.8,6.2-4.1l26-16.6c-2.8,0.1-5.5,0.3-7.9,0.4l0,0c-2.1,0.1-4.1,0.2-5.8,0.4
		c-1.9,0.1-3.5,0.2-4.8,0.3c-1.1,0.1-1.6,0.1-1.9,0.2l0,0l-0.1,0c0,0,0,0-0.1,0l-14,4.3l-1.1,0.3L487.6,67.9z"/>
</g>
</svg>
