<?xml version="1.0" encoding="utf-8"?>
<!-- Generator: Adobe Illustrator 25.3.0, SVG Export Plug-In . SVG Version: 6.00 Build 0)  -->
<svg version="1.1" id="Layer_1" xmlns="http://www.w3.org/2000/svg" xmlns:xlink="http://www.w3.org/1999/xlink" x="0px" y="0px"
	 viewBox="0 0 750.2 400.1" style="enable-background:new 0 0 750.2 400.1;" xml:space="preserve">
<path d="M282.4,100.7c-0.7-1.8-1.4-3.6-2.2-5.4c-5.5-12.5-14.3-24.7-28.7-30.3l-4.7-1.3c-5,6.6-13.2,12.6-19.1,15.3
	c-5.9,2.6-14,4.7-14,4.7l-0.5,0.1l0-0.1c-3.8,0.9-7.6,1.5-11.4,1.5c-0.4,0-0.7,0-1.1,0c-2.9-0.1-5.7-0.5-8.4-1.1l0,0.1l-0.5-0.1
	c0,0-7.3-1.4-13.9-5.1c-4.7-2.7-11.6-8.3-17-13.4c-0.4-0.3-0.7-0.6-1.1-0.9l-0.1-0.1l-0.1-0.2c-0.3-0.3-0.6-0.6-0.9-0.8l-5.6,1.6
	c-14.4,5.7-23.2,17.8-28.7,30.3c-0.7,1.7-1.4,3.4-2.1,5.1l80.8,12.8L282.4,100.7z"/>
</svg>
