<?xml version="1.0" encoding="utf-8"?>
<!-- Generator: Adobe Illustrator 25.3.0, SVG Export Plug-In . SVG Version: 6.00 Build 0)  -->
<svg version="1.1" id="Layer_1" xmlns="http://www.w3.org/2000/svg" xmlns:xlink="http://www.w3.org/1999/xlink" x="0px" y="0px"
	 viewBox="0 0 750.2 400.1" style="enable-background:new 0 0 750.2 400.1;" xml:space="preserve">
<path d="M472.3,56.6l7.3,18.5c0.9-1,1.9-1.9,2.9-2.8l-6.6-16.7L472.3,56.6z"/>
<path d="M137.8,73.4c1-0.9,2-1.7,3-2.6l-6.4-16.2l-3.6,1.1L137.8,73.4z"/>
<path d="M621.4,56.5l-3.6-1.1l-3.1,7.6l-4.4,10.7c1,1,1.9,2,2.8,3L621.4,56.5z"/>
<path d="M266.9,73.7l7.5-18l-3.6-1.1l-6.8,16.4C265,71.9,265.9,72.8,266.9,73.7z"/>
</svg>
