<?xml version="1.0" encoding="utf-8"?>
<!-- Generator: Adobe Illustrator 25.3.0, SVG Export Plug-In . SVG Version: 6.00 Build 0)  -->
<svg version="1.1" id="Layer_1" xmlns="http://www.w3.org/2000/svg" xmlns:xlink="http://www.w3.org/1999/xlink" x="0px" y="0px"
	 viewBox="0 0 750.2000122 400.1000061" style="enable-background:new 0 0 750.2000122 400.1000061;" xml:space="preserve">

<path class="st0" d="M297.4205933,353.4784851c1.2380371-0.0733032,2.1313477-0.1269531,2.6298828-0.1569824l0.2011719-203.4005737
	l-0.1142578-0.0554199l-0.0610352-0.0648804c-0.0241699-0.0266724-3.3788452-3.6096191-6.5148315-10.2113647v214.1156616
	C295.071167,353.6170959,296.3710938,353.5406189,297.4205933,353.4784851z"/>
<path class="st0" d="M110.8845215,139.8964539c-2.7086182,5.614624-5.5386353,8.9627075-6.211792,9.7203369l0.0876465,203.7698364
	c0.4975586,0.0296021,1.3869629,0.0823364,2.6196289,0.1544189c0.9662476,0.0565186,2.1451416,0.125061,3.5045166,0.2033081
	V139.8964539z"/>
<path class="st0" d="M453.4835205,140.5455017c-2.3334961,4.7474365-4.7210693,7.8220215-5.713562,8.9986572l0.0864258,203.9089966
	c0.140625,0.0272827,0.3376465,0.0599365,0.619873,0.0961914c0.2570801,0.0332642,0.5881348,0.0698242,0.9898071,0.1088257
	l4.0174561,0.2097168V140.5455017z"/>
<path class="st0" d="M643.3478394,149.7055969c-0.9093628-1.0599365-3.4297485-4.2258911-5.8811646-9.2307129v213.3930054
	l1.4343872-0.0748901c2.6108398-0.2113037,3.7680054-0.3772583,4.2456055-0.4691162L643.3478394,149.7055969z"/>
<path class="st0" d="M349.3086548,158.4822083l2.00177-9.180481l-57.5441284-11.5953979
	c2.6986084,6.161499,5.7670898,9.9863281,6.7196045,11.0917969L349.3086548,158.4822083z"/>
<path class="st0" d="M55.9385986,158.4820862l47.7236328-9.5999756c0.9591064-1.112793,4.0814209-4.9293213,6.8046265-11.1328735
	l-56.5637207,11.3978271L55.9385986,158.4820862z"/>
<path class="st0" d="M400.6968384,157.7292786l46.4306641-8.9267578c0.1757812-0.2114258,0.3754883-0.4555664,0.6210938-0.7724609
	c0.7314453-0.9433594,1.7421875-2.3496094,2.847168-4.1918945c0.9286499-1.5474854,1.9214478-3.4200439,2.8754272-5.56604
	l-54.6554565,11.0133057L400.6968384,157.7292786z"/>
<path class="st0" d="M637.4666748,137.8921814c1.0041504,2.3071899,2.0588379,4.3082275,3.041687,5.9459839
	c1.1049805,1.8422852,2.2329102,3.512207,2.9643555,4.4555664c0.2456055,0.3168945,4.1303711,0.706543,4.3061523,0.9179688
	l46.2993164,8.5175781l1.8457642-8.2848511l-58.4572754-11.7793579V137.8921814z"/>
</svg>
