<?xml version="1.0" encoding="utf-8"?>
<!-- Generator: Adobe Illustrator 25.3.0, SVG Export Plug-In . SVG Version: 6.00 Build 0)  -->
<svg version="1.1" id="Layer_1" xmlns="http://www.w3.org/2000/svg" xmlns:xlink="http://www.w3.org/1999/xlink" x="0px" y="0px"
	 viewBox="0 0 750.2 400.1" style="enable-background:new 0 0 750.2 400.1;" xml:space="preserve">
<g>
	<path d="M293,128.3c0-0.2-0.3-7.7-1.1-18.2H112.5c-0.7,9.5-1.1,16.5-1.1,18.1l0.8,0.6c1.2,1.7,3.2,6.5,5.2,19.9h170.5
		c2-14.3,4.2-18.9,5.4-20.4H293z"/>
	<path d="M305.6,65.3l-12.1,52.4c0.3,5,0.5,8.6,0.5,10l0.1-0.1h0.1h0.1l24.6,5l13.7-59.3L305.6,65.3z"/>
	<path d="M74.1,72.9l13.7,59.4l22.5-4.5c0.1-2,0.4-8.9,1.1-18l-10.4-44.9L74.1,72.9z"/>
	<path d="M430.4,132.7l25-5c0-1.4,0.1-5,0.4-10l-12.1-52.2l-27,8L430.4,132.7z"/>
	<path d="M674.1,72.4l-27-8l-9.8,42.4c0.9,10.6,1.1,18.5,1.1,20.8l0.2-0.2c0,0.1,0,0.1,0.1,0.2l21.6,4.4L674.1,72.4z"/>
</g>
</svg>
