<?xml version="1.0" encoding="utf-8"?>
<!-- Generator: Adobe Illustrator 25.3.0, SVG Export Plug-In . SVG Version: 6.00 Build 0)  -->
<svg version="1.1" id="Layer_1" xmlns="http://www.w3.org/2000/svg" xmlns:xlink="http://www.w3.org/1999/xlink" x="0px" y="0px"
	 viewBox="0 0 750.2 400.1" style="enable-background:new 0 0 750.2 400.1;" xml:space="preserve">
<g>
	<path d="M286.6,170.1c-3.1,41.1-4.5,119.8,1.7,166h7.1c-0.4-7.5-5.4-93.6-2.7-152.5c1.7-36,8.5-42.1,8.8-42.3l0.2-0.2l49.4,10.2
		l2.4-10.7l-59.2-11.9C293.6,129.1,289.3,133.9,286.6,170.1z"/>
	<path d="M118.6,170.1c-2.7-35.9-7-40.9-7.7-41.5l-59,11.9l2.4,10.8l49.4-10.2l0.2,0.2c0.3,0.2,7.1,6.3,8.8,42.3
		c2.7,58.9-2.3,145-2.7,152.5h6.7l0.1,0.2C123.1,290.2,121.7,211.2,118.6,170.1z"/>
	<path d="M639,128.6c-0.6,0.5-4.9,5.2-7.7,41.5c-2.8,36.5-4.9,125.4,1.7,175.2c4-2.1,6.7-7.9,7.1-8.7c-0.2-3.8-5.5-92.6-2.7-152.9
		c1.7-36,8.5-42.1,8.8-42.3l0.2-0.2l49.4,10.2l2.4-10.7L639,128.6z"/>
	<path d="M463.2,170.1c-2.7-35.9-6.9-40.9-7.7-41.5l-59,11.9l2.4,10.8l49.4-10.2l0.2,0.2c0.3,0.2,7.1,6.3,8.8,42.3
		c2.8,60.4-2.5,149.5-2.7,153c0.3,0.9,2.8,7.8,6.5,9.1c0,0,0.2,0.1,0.4,0.2C468.2,296.2,466,206.8,463.2,170.1z"/>
	<path d="M118.8,161.1c0.1,1.3,0.2,2.6,0.4,3.9H286c0.1-1.3,0.2-2.6,0.4-3.9H118.8z"/>
	<path d="M121.1,196.2c0.1,1.3,0.1,2.6,0.2,3.9H284c0.1-1.3,0.1-2.6,0.2-3.9H121.1z"/>
	<path d="M122.1,231.3c0,1.3,0,2.6,0.1,3.9h161c0-1.3,0-2.6,0.1-3.9H122.1z"/>
	<path d="M122.1,266.5c0,1.3,0,2.6-0.1,3.9h161.2c0-1.3,0-2.6-0.1-3.9H122.1z"/>
	<path d="M120.9,301.6c-0.1,1.3-0.1,2.6-0.2,3.9h163.8c-0.1-1.3-0.2-2.6-0.2-3.9H120.9z"/>
</g>
</svg>
