<?xml version="1.0" encoding="utf-8"?>
<!-- Generator: Adobe Illustrator 25.3.0, SVG Export Plug-In . SVG Version: 6.00 Build 0)  -->
<svg version="1.1" id="Layer_1" xmlns="http://www.w3.org/2000/svg" xmlns:xlink="http://www.w3.org/1999/xlink" x="0px" y="0px"
	 viewBox="0 0 750.2 400.1" style="enable-background:new 0 0 750.2 400.1;" xml:space="preserve">
<g>
	<path d="M293.1,128.3c0-0.2-0.4-10-1.5-22.9H112.8c-1,11.7-1.4,20.8-1.5,22.6l0.8,0.6c1.3,1.9,3.6,7.3,5.6,23.2h169.7
		c2.1-16.7,4.6-21.8,5.8-23.4L293.1,128.3z"/>
	<path d="M283,239.4H122.1c0.1,15.4,0,31.2-0.5,46.3h161.9C283,270.6,282.9,254.7,283,239.4z"/>
	<path d="M466.9,250.6c0.1,15.4-0.1,31.2-0.7,46.3h162.1c-0.6-15.1-0.8-30.9-0.7-46.3H466.9z"/>
	<path d="M305.6,65.3l-12.1,52.4c0.3,5,0.5,8.6,0.5,10l0.1-0.1h0.1h0.1l24.6,5l13.7-59.3L305.6,65.3z"/>
	<path d="M87.8,132.3l22.5-4.5c0.1-2,0.4-8.9,1.1-18L101,64.9l-26.9,8L87.8,132.3z"/>
	<path d="M455.4,127.7c0-1.4,0.1-5,0.4-10l-12.1-52.2l-27,8l13.7,59.2L455.4,127.7z"/>
	<path d="M638.6,127.4c0,0.1,0,0.1,0.1,0.2l21.6,4.4l13.8-59.6l-27-8l-9.8,42.4c0.9,10.6,1.1,18.5,1.1,20.8L638.6,127.4z"/>
</g>
</svg>
