<?xml version="1.0" encoding="utf-8"?>
<!-- Generator: Adobe Illustrator 25.3.0, SVG Export Plug-In . SVG Version: 6.00 Build 0)  -->
<svg version="1.1" id="Layer_1" xmlns="http://www.w3.org/2000/svg" xmlns:xlink="http://www.w3.org/1999/xlink" x="0px" y="0px"
	 viewBox="0 0 750.2 400.1" style="enable-background:new 0 0 750.2 400.1;" xml:space="preserve">
<g>
	<path d="M121.8,219.9h161.5c0.4-17.6,1.2-33.9,2.1-46.8H119.8C120.7,186.1,121.4,202.3,121.8,219.9z"/>
	<path d="M294,127.7l0.1-0.1h0.1h0.1l24.6,5l13.7-59.3l-27-8l-12.1,52.4C293.8,122.7,294,126.3,294,127.7z"/>
	<path d="M110.3,127.8c0.1-2,0.4-8.9,1.1-18L101,64.9l-26.9,8l13.7,59.4L110.3,127.8z"/>
	<path d="M455.4,127.7c0-1.4,0.1-5,0.4-10l-12.1-52.2l-27,8l13.7,59.2L455.4,127.7z"/>
	<path d="M647.1,64.4l-9.8,42.4c0.9,10.6,1.1,18.5,1.1,20.8l0.2-0.2c0,0.1,0,0.1,0.1,0.2l21.6,4.4l13.8-59.6L647.1,64.4z"/>
</g>
</svg>
