<?xml version="1.0" encoding="utf-8"?>
<!-- Generator: Adobe Illustrator 25.3.0, SVG Export Plug-In . SVG Version: 6.00 Build 0)  -->
<svg version="1.1" id="Layer_1" xmlns="http://www.w3.org/2000/svg" xmlns:xlink="http://www.w3.org/1999/xlink" x="0px" y="0px"
	 viewBox="0 0 750.2000122 400.1000061" style="enable-background:new 0 0 750.2000122 400.1000061;" xml:space="preserve">
<g>
	<path d="M117.7692261,336.9361877c5.0690918,0.4482422,12.2833862,1.0313721,21.0742188,1.5960083
		c-8.2741089-15.4102783-13.2628784-53.2042847-16.7387085-103.3672485
		C122.5201416,270.8843079,121.4869995,309.6825867,117.7692261,336.9361877z"/>
	<path d="M283.0368042,238.1153259c-3.4664917,48.6940918-8.4205933,85.3111572-16.5319214,100.4174805
		c8.664978-0.5564575,15.800415-1.1309204,20.8585815-1.5765991c0.0117188-0.0141602,0.0234375-0.029541,0.0351562-0.0439453
		C283.7849731,310.4093933,282.7109375,272.9985657,283.0368042,238.1153259z"/>
	<path d="M462.4342651,346.2906799c2.5281372,1.2081909,8.5940552,3.9741211,17.1882935,7.0563354
		c-5.901001-20.7815552-9.8254395-57.2919922-12.7191772-103.3879395
		C467.0366821,284.2170715,465.9334717,320.6181335,462.4342651,346.2906799z"/>
	<path d="M627.6451416,246.3153992c-2.9177246,47.861145-6.8966675,85.7775879-12.9621582,107.0925903
		c10.8250122-4.0717773,17.1453857-7.5912476,17.2932739-7.6751709l0.0410156-0.0185547
		C628.4564209,319.1572571,627.4191895,281.3622131,627.6451416,246.3153992z"/>
	<path d="M286.6071777,170.1058655c-3.0942383,41.0637207-4.5068359,119.8222656,1.6855469,166.0390625h7.078125
		c-0.4462891-7.4958496-5.4169922-93.6118164-2.6982422-152.5429688
		c1.6640625-36.0405273,8.4775391-42.1054688,8.7666016-42.3461914l0.1826172-0.1518555l49.4462891,10.1713867l2.3618164-10.7267456
		l-59.1567383-11.9216919C293.642334,129.1322327,289.3395996,133.8514709,286.6071777,170.1058655z"/>
	<path d="M103.9216309,141.2557678c0.2890625,0.2407227,7.1035156,6.3056641,8.7666016,42.3461914
		c2.7197266,58.9311523-2.2509766,145.0471191-2.6972656,152.5429688h6.7333984l0.1269531,0.2094727
		c6.2246094-46.1914062,4.8115234-125.1254883,1.7128906-166.2485352
		c-2.7070312-35.9111328-6.9541016-40.8813477-7.6796875-41.4760742L51.923584,140.5106506l2.3701172,10.7646484
		l49.4443359-10.1713867L103.9216309,141.2557678z"/>
	<path d="M638.9538574,128.6327209c-0.6328125,0.5097656-4.9316406,5.2451172-7.6611328,41.4736328
		c-2.7543945,36.5258789-4.9423828,125.4418945,1.6767578,175.1938477c4.0019531-2.0517578,6.7255859-7.8981934,7.1044922-8.7495117
		c-0.2285156-3.7983398-5.5048828-92.6206055-2.7216797-152.9487305
		c1.6640625-36.0405273,8.4775391-42.1054688,8.7666016-42.3461914l0.1826172-0.1518555l49.4462891,10.1713867l2.3603516-10.7213745
		L638.9538574,128.6327209z"/>
	<path d="M448.6013184,141.2557678c0.2890625,0.2407227,7.1025391,6.3056641,8.7666016,42.3461914
		c2.7900391,60.4438477-2.5117188,149.4926758-2.7216797,152.9697266c0.3017578,0.8647461,2.8291016,7.8037109,6.4697266,9.0742188
		c0.0234375,0.0117188,0.1523438,0.0771484,0.3725586,0.1860352c6.706543-49.6479492,4.5117188-139.0683594,1.7485352-175.7255859
		c-2.703125-35.8803711-6.9462891-40.8701172-7.6748047-41.4707031l-58.9575195,11.8803711l2.3686523,10.7592773
		l49.4443359-10.1713867L448.6013184,141.2557678z"/>
</g>
</svg>
