<?xml version="1.0" encoding="utf-8"?>
<!-- Generator: Adobe Illustrator 25.3.0, SVG Export Plug-In . SVG Version: 6.00 Build 0)  -->
<svg version="1.1" id="Layer_1" xmlns="http://www.w3.org/2000/svg" xmlns:xlink="http://www.w3.org/1999/xlink" x="0px" y="0px"
	 viewBox="0 0 750.2000122 400.1000061" style="enable-background:new 0 0 750.2000122 400.1000061;" xml:space="preserve">

<g>
	<path class="st0" d="M174.312561,150.7649231c4.3325195,0.4752197,8.4725952,1.1502686,12.3019409,2.0665283
		C182.6829834,151.8352966,178.5545654,151.1663513,174.312561,150.7649231z"/>
	<path d="M264.963562,53.3313293l-14.8074951-4.3681641c0.0821533,2.6936035-0.5101318,8.6542969-4.1270752,13.7554932
		c-4.8115234,6.7817383-13.3378906,13.0263672-19.2734375,15.6899414
		c-5.6640625,2.5415039-13.6240234,4.5336914-13.7041016,4.5537109l-0.4912109,0.1220703l-0.0152588-0.0748291
		c-3.74646,0.9398804-7.4720459,1.447876-11.1195068,1.447876c-0.3574219,0-0.7128906-0.0043945-1.0693359-0.0136719
		c-2.8308105-0.0737305-5.5563965-0.4827271-8.2102051-1.1281128l-0.0231934,0.1061401l-0.4638672-0.0869141
		c-0.0712891-0.0131836-7.2021484-1.3764648-13.5390625-4.9462891c-5.5439453-3.121582-13.8466797-10.215332-19.1835938-15.609375
		c-4.4074707-4.4564819-4.5712891-10.7472534-4.28125-13.6572876l-11.4353638,3.3737183
		c5.8183594,7.0336914,11.9417725,15.7767944,15.1905518,24.5234375
		c-6.7767334-6.3532104-23.4012451-15.5654297-31.2891235-19.7739868l-7.2102051,2.1271973
		c-3.5496216,13-5.7132568,30.8256226-6.9800415,45.1016235c29.1760864,1.4822388,74.4202271-4.1785278,90.2717896,14.6105347
		c15.7720947-18.6947021,59.2213135-13.3353882,88.2570801-14.5693359
		c-1.2767334-14.3954468-3.4672852-32.4155884-7.0705566-45.4533691l-3.8907471-1.1477661
		c-8.2781982,4.4541016-23.6021729,13.0684204-30.0413208,19.1051025
		C253.5786743,68.6146545,259.3545532,60.216095,264.963562,53.3313293z"/>
	<path d="M186.614502,152.8314514c-3.8293457-0.9162598-7.9694214-1.5913086-12.3019409-2.0665283
		c-18.5181274-2.031311-40.5167236-0.4337158-56.5130005,1.3806763c0.3464966,2.7420654,0.6849365,5.7901611,1.0092773,9.1803589
		c21.8035889-5.4934082,54.0778198-12.5450439,73.973938-6.5914917c0.7880249,0.2357788,1.5596313,0.4887085,2.307373,0.7661743
		C192.50177,154.4439392,189.6588135,153.559845,186.614502,152.8314514z"/>
	<path d="M211.0474854,155.5006409c0.6834106-0.2536011,1.387207-0.486145,2.1043091-0.704895
		c19.5941772-5.9761353,51.3753662,0.8180542,73.2331543,6.2927856c0.3214722-3.3383179,0.6564941-6.3455811,0.9993896-9.0507812
		C264.6590576,149.5112,230.5318604,147.5461121,211.0474854,155.5006409z"/>
	<path d="M211.0474854,155.5006409c-3.0354004,1.1266479-5.7255859,2.605835-7.9786377,4.4955444
		c-2.2530518-1.8897095-4.9432983-3.3688965-7.9786987-4.4955444c3.0496826,1.2450562,5.7424927,2.7316895,7.9744873,4.4989014
		c-0.0032349,0.0026855-0.0066528,0.005249-0.0098877,0.0079346c-0.0462036,0.0388184-0.0956421,0.074585-0.1414795,0.1137695
		c0.0470581-0.0379028,0.0982056-0.0733032,0.1456909-0.1109619c0.0032349-0.0025635,0.0066528-0.0049438,0.0098877-0.0075073
		c0.0507202,0.0401611,0.1052856,0.0780029,0.1555176,0.1184692c-0.0490112-0.0418701-0.1019287-0.0802002-0.1513672-0.1217041
		C205.3049927,158.2323303,207.9978027,156.745697,211.0474854,155.5006409z"/>
	<path d="M366.0661011,83.1556702l-80.5600586-23.7645874c6.3922119,23.6734009,8.2731934,62.8486938,8.5073242,68.2831421
		l0.0625-0.0514526l0.0830078-0.0276489l0.1289062,0.0258789l59.3544922,11.9614258L366.0661011,83.1556702z"/>
	<path d="M110.3712769,127.7241516c0.2242432-5.2301025,2.0827637-44.2571411,8.4267578-68.0236206L39.2955933,83.1556702
		l12.4155273,56.3899536L110.3712769,127.7241516z"/>
	<path d="M383.9752808,83.1556702l12.4140625,56.3842773l58.9741211-11.8844604
		c0.1254883-5.0969238,1.2261963-39.3858643,8.3828125-68.0341187L383.9752808,83.1556702z"/>
	<path d="M630.1398315,59.3772888c7.1816406,28.574707,8.3068848,62.8724365,8.4401855,68.2081299l0.1677246-0.1833496
		c0.0195312,0.06604,0.0410156,0.1378174,0.0585938,0.197937l0.03125-0.0107422l59.4858398,11.9876099l12.4223633-56.4212036
		L630.1398315,59.3772888z"/>
</g>
</svg>
