<?xml version="1.0" encoding="utf-8"?>
<!-- Generator: Adobe Illustrator 25.3.0, SVG Export Plug-In . SVG Version: 6.00 Build 0)  -->
<svg version="1.1" id="Layer_1" xmlns="http://www.w3.org/2000/svg" xmlns:xlink="http://www.w3.org/1999/xlink" x="0px" y="0px"
	 viewBox="0 0 750.2000122 400.1000061" style="enable-background:new 0 0 750.2000122 400.1000061;" xml:space="preserve">
<g>
	<path d="M117.7692261,336.9362488c13.7514648,1.2160034,43.2485352,3.4249878,77.3632812,3.5626831
		c0.9951172,0.0126953,2.5615234,0.0200195,4.7783203,0.0205078l3.4814453-0.0019531l2.0585938,0.0019531
		c2.2158203-0.0004883,3.7832031-0.0078125,4.7744141-0.0205078c33.9321289-0.1369019,63.2915039-2.3227539,77.1381836-3.5426636
		c0.0117188-0.0141602,0.0234375-0.0296021,0.0351562-0.0439453c-0.9254761-6.7877197-1.6804199-14.3054199-2.2921753-22.2989502
		H120.0643311C119.4519043,322.6161804,118.6960449,330.1420593,117.7692261,336.9362488z"/>
	<path d="M122.0802002,265.7901306c-0.0683594,4.9571533-0.1669922,9.8962402-0.305542,14.7771606h161.621521
		c-0.1385498-4.8808594-0.2371826-9.8199463-0.305542-14.7771606H122.0802002z"/>
	<path d="M122.1834717,245.4607849c0.0047607,1.3623047,0.005127,2.7283325,0.0054321,4.0946045h160.7930908
		c0.0003052-1.366333,0.0006104-2.7322998,0.0054321-4.0946045H122.1834717z"/>
</g>
</svg>
