<?xml version="1.0" encoding="utf-8"?>
<!-- Generator: Adobe Illustrator 25.2.1, SVG Export Plug-In . SVG Version: 6.00 Build 0)  -->
<svg version="1.1" id="Layer_1" xmlns="http://www.w3.org/2000/svg" xmlns:xlink="http://www.w3.org/1999/xlink" x="0px" y="0px"
	 viewBox="0 0 750.2 400.1" style="enable-background:new 0 0 750.2 400.1;" xml:space="preserve">

<path class="st0" d="M158.6,62.4l-42,12.5c0.9-5.5,2-10.8,3.3-15.5l34.7-10.3C154.4,52,154.5,58,158.6,62.4z M284.4,59.1L250.2,49
	c0.1,2.5-0.4,7.9-3.5,12.8l40.9,12.1C286.7,68.6,285.6,63.5,284.4,59.1z M503.4,47.9l-38.5,11.4c-0.4,1.6-0.8,3.3-1.2,5L519.3,47
	C512.6,47.3,507,47.7,503.4,47.9z M592.1,48.2c-2.5-0.2-8-0.6-15.2-0.9l53.2,16.4c-0.4-1.6-0.7-3.1-1.1-4.6l0,0L592.1,48.2z"/>
</svg>
