<?xml version="1.0" encoding="utf-8"?>
<!-- Generator: Adobe Illustrator 25.3.0, SVG Export Plug-In . SVG Version: 6.00 Build 0)  -->
<svg version="1.1" id="Layer_1" xmlns="http://www.w3.org/2000/svg" xmlns:xlink="http://www.w3.org/1999/xlink" x="0px" y="0px"
	 viewBox="0 0 750.2 400.1" style="enable-background:new 0 0 750.2 400.1;" xml:space="preserve">
<g>
	<path d="M192.2,223.8c-1.4-2.9-2.9-5.8-4.6-8.5c-1-1.7-2.4-3.5-4.5-2.7c-2.2,0.9-1.8,3.3-1.5,5.3c0.5,2.9,1.2,5.7,1.7,8.6h10.2
		C193.1,225.6,192.6,224.7,192.2,223.8z"/>
	<path d="M176.6,218.6c-1.9-5.7-0.5-10.6,2.7-15.1c2.2-3,5-2.6,7,0.5c0.5,0.9,1.1,1.7,1.6,2.6c4,6.7,7.9,13.3,11.8,19.9h10.5
		c-6.8-8.7-13.6-17.3-20.4-26c-2-2.6-4.3-4.7-7.5-5.1c-1.9-0.2-3.5,0.3-4.7,1.9c-0.8,1-1.7,2.2-2.7,2.7c-0.9,0.4-2.3,0.2-3.2-0.3
		c-0.3-0.2-0.3-2.1,0.1-2.8c3-5.8,10.1-10.1,17.3-5.2c4.4,3,7.9,7,11.2,11.2c6.1,7.8,12.2,15.7,18.3,23.6h8.6
		c-1.1-1.6-2.2-3.2-3.4-4.7c-7.9-9.5-15.9-18.8-24-28.1c-3.2-3.7-7.2-6.1-11.6-7.8c-6.9-2.5-13.4-0.2-18.1,5.9
		c-6.7,8.8-10.4,19-13,29.8c-0.4,1.6-0.8,3.3-1.2,4.9h5.5c0-0.2,0.1-0.3,0.1-0.5c1.2-5.3,2.7-10.5,4.2-15.7c0.5-1.6,1.4-2.8,3.1-2
		c1.8,0.8,1.8,2.3,1.3,4c-0.4,1.6-1,3.2-1.3,4.9c-0.6,3.2-1.5,6.2-2.2,9.3h5c0.4-1,1-2,2-2.9c0.3,1.2,0.6,2.1,0.7,2.9h4.3
		C178.1,223.8,177.5,221.2,176.6,218.6z"/>
	<path d="M138.4,176c2.1-2.3,4.3-4.3,6.6-6.1h-6.6V176z"/>
	<path d="M266,209c-0.3-0.8-0.7-1.6-1-2.4c-0.3,0.1-0.6,0.1-0.9,0.2c-0.2,1.1-0.5,2.3-0.4,3.4c0.3,5.2,0.5,10.5,1.1,15.6
		c0,0.2,0.1,0.5,0.1,0.7h1.1V209z"/>
	<path d="M141.2,216.9c3.2-9.7,8-18.3,13.1-26.7c5.9-9.6,13.9-16.2,23.6-20.3c0,0,0,0,0,0h-11.4c-2.1,1.4-4.2,3.1-6.1,5
		c-6.8,6.6-12.5,14.1-16.7,22.9c-1.4,3-3,5.9-4.7,8.7c-0.2,0.4-0.4,0.7-0.6,1.1v16.8C139.4,221.9,140.4,219.4,141.2,216.9z"/>
	<path d="M266,189.9v-14.8c-0.7-1.7-1.4-3.5-2.1-5.2h-6.1C260.9,176.3,263.6,183,266,189.9z"/>
	<path d="M242.3,204.3c2.2,7.4,3.3,14.8,3.1,22.2h4.5c0.4-7.2,0.4-14.5-2.3-21.3c-4.3-10.8-9.4-21.3-14.2-31.9
		c-0.1-0.3-0.3-0.6-0.5-0.8c-0.7-0.9-1.5-1.7-2.2-2.6h-7.3C231.9,179.4,238.2,190.9,242.3,204.3z"/>
	<path d="M237.1,200.8c-4.7-12-10.9-22.4-18.8-30.9h-7.8c0.2,0.2,0.5,0.5,0.7,0.7c12.2,13.1,22.4,27.6,25.6,46.6
		c0.3,1.6,1.1,3.1,1.7,4.6c0.3-0.1,0.5-0.1,0.8-0.2c1.2-2,1.4-4.4,1-6.6C239.5,210.2,238.8,205.2,237.1,200.8z"/>
	<path d="M243,169.9h-6.3c1.6,2.7,3.2,5.5,4.7,8.3c8.6,15,12.3,31.2,12.1,48.3h5.2c-0.1-3.5-0.4-6.9-0.8-10.4
		C256,199.2,250.9,183.9,243,169.9z"/>
	<path d="M236.7,225.2c-2.3-4.4-4.5-8.9-6.2-13.5c-4.7-12.2-9.4-24.4-18.6-33.6c-2.9-2.9-5.8-5.7-8.9-8.2h-12
		c0.8,0.3,1.5,0.5,2.3,0.9c8.2,4,15,10,20.6,17.6c1.2,1.7,2.6,3.5,2,6.2c-1.7-1-3.1-2.3-4.5-3.6c-3.9-3.6-7.5-7.5-11.6-10.9
		c-8.2-6.7-16.9-7.6-25.9-1.8c-13.4,8.7-22.2,21.5-27.2,37.4c-1.1,3.6-2.1,7.2-3.1,10.8h6.7c0.1-0.3,0.2-0.6,0.2-0.9
		c3.5-14.3,8.7-27.5,17.5-38.9c4.7-6,10.8-8.3,17.7-8.2c3.9,0,7.6,1.4,10.5,4.4c5.9,6.2,11.8,12.4,17.9,18.4
		c7.3,7.2,13.3,15.6,18.9,24.3c0.2,0.3,0.4,0.6,0.5,0.9h3.9C237.1,226.1,236.9,225.6,236.7,225.2z"/>
	<path d="M149.4,177.9c2.7-2.2,5.6-4.2,8.5-6.2c0.9-0.7,1.8-1.2,2.8-1.8h-8.5c-5.2,3.3-9.9,7.5-13.7,13v12.2
		c1.6-2.9,3.3-5.7,4.1-8.8C143.7,181.9,146.6,180.1,149.4,177.9z"/>
	<path d="M249.3,172.9c2.7,7.5,6.3,14.5,9.6,21.7c0.6,1.3,1.6,2.3,2.4,3.5c0.2-0.1,0.5-0.3,0.7-0.4c-0.3-1.5-0.4-3.1-0.9-4.5
		c-2.6-7.5-5-15.2-8.2-22.4c-0.1-0.3-0.3-0.6-0.4-0.9h-4.4C248.5,170.9,248.9,171.9,249.3,172.9z"/>
</g>
</svg>
