<?xml version="1.0" encoding="utf-8"?>
<!-- Generator: Adobe Illustrator 25.3.0, SVG Export Plug-In . SVG Version: 6.00 Build 0)  -->
<svg version="1.1" id="Layer_1" xmlns="http://www.w3.org/2000/svg" xmlns:xlink="http://www.w3.org/1999/xlink" x="0px" y="0px"
	 viewBox="0 0 750.2 400.1" style="enable-background:new 0 0 750.2 400.1;" xml:space="preserve">
<g>
	<path d="M176.6,218.6c-1.9-5.7-0.5-10.6,2.7-15.1c2.2-3,5-2.6,7,0.5c0.5,0.9,1.1,1.7,1.6,2.6c3.1,5.2,6.2,10.4,9.2,15.6h9.7
		c-5.7-7.2-11.4-14.4-17.1-21.7c-2-2.6-4.3-4.7-7.5-5.1c-1.9-0.2-3.5,0.3-4.7,1.9c-0.8,1-1.7,2.2-2.7,2.7c-0.9,0.4-2.3,0.2-3.2-0.3
		c-0.3-0.2-0.3-2.1,0.1-2.8c3-5.8,10.1-10.1,17.3-5.2c4.4,3,7.9,7,11.2,11.2c5,6.4,10,12.9,15,19.3h8.8c-0.1-0.1-0.2-0.3-0.3-0.4
		c-7.9-9.5-15.9-18.8-24-28.1c-3.2-3.7-7.2-6.1-11.6-7.8c-6.9-2.5-13.4-0.2-18.1,5.9c-6.7,8.8-10.4,19-13,29.8
		c0,0.2-0.1,0.4-0.1,0.6h5.5c1-4,2.1-7.9,3.3-11.9c0.5-1.6,1.4-2.8,3.1-2c1.8,0.8,1.8,2.3,1.3,4c-0.4,1.6-1,3.2-1.3,4.9
		c-0.3,1.7-0.7,3.3-1.1,5h10C177.4,221,177,219.8,176.6,218.6z"/>
	<path d="M211.2,170.6c12.2,13.1,22.4,27.6,25.6,46.6c0.3,1.6,1.1,3.1,1.7,4.6c0.3-0.1,0.5-0.1,0.8-0.2c1.2-2,1.4-4.4,1-6.6
		c-0.8-4.8-1.5-9.8-3.2-14.2c-5.5-14.2-13.2-26.1-23.2-35.3h-8.5C207.4,167,209.4,168.7,211.2,170.6z"/>
	<path d="M143.7,197.8c-1.4,3-3,5.9-4.7,8.7c-3,5-5.3,10.3-7.1,15.7h7.4c0.7-1.7,1.3-3.5,1.9-5.3c3.2-9.7,8-18.3,13.1-26.7
		c5.9-9.6,13.9-16.2,23.6-20.3c2-0.9,4.3-1.4,6.5-1.2c3,0.2,6.1,0.8,8.8,2.1c8.2,4,15,10,20.6,17.6c1.2,1.7,2.6,3.5,2,6.2
		c-1.7-1-3.1-2.3-4.5-3.6c-3.9-3.6-7.5-7.5-11.6-10.9c-8.2-6.7-16.9-7.6-25.9-1.8c-13.4,8.7-22.2,21.5-27.2,37.4
		c-0.7,2.2-1.3,4.3-1.9,6.5h6.6c3.5-13,8.5-25,16.6-35.5c4.7-6,10.8-8.3,17.7-8.2c3.9,0,7.6,1.4,10.5,4.4
		c5.9,6.2,11.8,12.4,17.9,18.4c6.3,6.3,11.7,13.4,16.7,20.9h4.5c-1.7-3.4-3.3-6.9-4.7-10.5c-4.7-12.2-9.4-24.4-18.6-33.6
		c-4.6-4.7-9.5-9-14.9-12.6h-21.3c-5.8,1.7-10.8,5-15.4,9.4C153.6,181.5,147.9,189,143.7,197.8z"/>
	<path d="M261.9,165.5h-6.3c8.2,15.8,13.8,33,17.8,51c0.4,1.8,0.6,3.8,0.7,5.7h4.6v-6.9c-2.6-11.8-6.5-23.3-10.6-34.6
		C266.2,175.5,264.3,170.4,261.9,165.5z"/>
	<path d="M266.7,211c-0.4-1.5-1.1-2.9-1.7-4.4c-0.3,0.1-0.6,0.1-0.9,0.2c-0.2,1.1-0.5,2.3-0.4,3.4c0.2,4,0.4,8,0.7,12h4.9
		C268.5,218.5,267.7,214.7,266.7,211z"/>
	<path d="M187.6,215.3c-1-1.7-2.4-3.5-4.5-2.7c-2.2,0.9-1.8,3.3-1.5,5.3c0.3,1.4,0.6,2.9,0.9,4.3h8.9
		C190.2,219.8,189,217.5,187.6,215.3z"/>
	<path d="M133.6,165.5h-7.9c0,0,0,0,0,0v9.7C127.9,171.7,130.6,168.4,133.6,165.5z"/>
	<path d="M125.6,182.5v11.7c1.3-2.3,2.7-4.5,4.2-6.7c0.4-0.5,1.3-1.1,1.8-0.9c0.7,0.2,1.6,1,1.9,1.7c0.3,0.8,0,1.9-0.4,2.7
		c-2.4,5.8-5.3,11.4-7.1,17.4c-0.1,0.4-0.3,0.9-0.4,1.3v12.5h1.2c2.7-8,5.9-15.7,9.6-23.3c2-4.2,4.9-8.1,6.1-12.6
		c1.2-4.4,4.1-6.2,6.9-8.4c2.7-2.2,5.6-4.2,8.5-6.2c3.9-2.8,8.2-4.8,12.6-6.2h-10c-8.9,3.8-16.6,9.4-22.5,17.8
		c-0.3,0.4-0.6,0.7-1,1.2c-3.9-2.2-3.9-2.3-1.1-5.8c4.6-5.6,9.8-9.9,15.5-13.2h-10.2c-1.7,1.1-3.3,2.3-4.9,3.6
		C131.8,172.7,128.2,177.2,125.6,182.5z"/>
	<path d="M240.4,165.5h-6.3c2.5,4.2,4.9,8.4,7.3,12.7c7.9,13.8,11.7,28.5,12.1,44h5c-0.2-2-0.3-4.1-0.6-6.1
		C255.8,197.5,249.8,180.6,240.4,165.5z"/>
	<path d="M242.3,204.3c1.8,5.9,2.9,11.9,3.1,17.9h4.7c0.1-5.8-0.3-11.6-2.4-17c-4.3-10.8-9.4-21.3-14.2-31.9
		c-0.1-0.3-0.3-0.6-0.5-0.8c-2-2.3-3.9-4.7-5.9-7h-7.8C229.9,175.8,237.6,188.7,242.3,204.3z"/>
	<path d="M266.4,165.5c5.4,8.6,9.2,17.9,12.3,27.6v-15.3c-1.6-4.2-3.5-8.3-5.7-12.3H266.4z"/>
	<path d="M276.2,165.5c0.8,1.6,1.7,3.2,2.5,4.8v-4.8H276.2z"/>
	<path d="M249.3,172.9c2.7,7.5,6.3,14.5,9.6,21.7c0.6,1.3,1.6,2.3,2.4,3.5c0.2-0.1,0.5-0.3,0.7-0.4c-0.3-1.5-0.4-3.1-0.9-4.5
		c-2.6-7.5-5-15.2-8.2-22.4c-0.8-1.8-1.6-3.6-2.5-5.3h-4.3C247.3,167.9,248.4,170.3,249.3,172.9z"/>
</g>
</svg>
