<?xml version="1.0" encoding="utf-8"?>
<!-- Generator: Adobe Illustrator 26.0.3, SVG Export Plug-In . SVG Version: 6.00 Build 0)  -->
<svg version="1.1" id="Layer_1" xmlns="http://www.w3.org/2000/svg" xmlns:xlink="http://www.w3.org/1999/xlink" x="0px" y="0px"
	 viewBox="0 0 120 105" style="enable-background:new 0 0 120 105;" xml:space="preserve">
<style type="text/css">
	.st0{fill:url(#SVGID_1_);}
	.st1{fill:url(#SVGID_00000000208696274365026310000011700108909317218722_);}
	.st2{fill:url(#SVGID_00000103955552463900873350000006848377387975260847_);}
	.st3{fill:url(#SVGID_00000160178347908436289210000014374720934492536227_);}
	.st4{fill:url(#SVGID_00000093890193113130064390000015909800645377322381_);}
	.st5{fill:#711408;}
	.st6{fill:url(#SVGID_00000109752024729359148080000008214068725056598173_);}
	.st7{fill:url(#SVGID_00000074411480736647480460000007420601640127080861_);}
	.st8{fill:url(#SVGID_00000057867356954347108600000011476796967354554539_);}
	.st9{fill:url(#SVGID_00000088834716866878334790000000649993635253091212_);}
	.st10{fill:url(#SVGID_00000137812876111106407870000002061488362198578099_);}
	.st11{fill:url(#SVGID_00000004510194813096277370000002858253345634564528_);}
</style>
<g>
	<linearGradient id="SVGID_1_" gradientUnits="userSpaceOnUse" x1="64.7997" y1="95.7389" x2="44.1882" y2="45.8009">
		<stop  offset="3.846150e-02" style="stop-color:#C01111"/>
		<stop  offset="0.7253" style="stop-color:#711408"/>
	</linearGradient>
	<path class="st0" d="M59.5,92.8l-1.9-13.2l3.6-29.7l-5.7-18.4l-4.9-5.9c-6.1,0.6-13.9,2.3-18.5,6.7c0,0-1.8,22.6,3.9,35.9
		C41.8,81.6,52.8,89.4,59.5,92.8z"/>
	
		<radialGradient id="SVGID_00000126286330722171542520000003046999130200231559_" cx="77.6985" cy="29.397" r="61.9713" gradientUnits="userSpaceOnUse">
		<stop  offset="0" style="stop-color:#FAF5EF"/>
		<stop  offset="7.726161e-02" style="stop-color:#F8F3EC"/>
		<stop  offset="0.137" style="stop-color:#F5EDE2"/>
		<stop  offset="0.1908" style="stop-color:#F0E2D2"/>
		<stop  offset="0.2412" style="stop-color:#E8D4BA"/>
		<stop  offset="0.2892" style="stop-color:#DDC19C"/>
		<stop  offset="0.3353" style="stop-color:#D1AA77"/>
		<stop  offset="0.3798" style="stop-color:#C28F4C"/>
		<stop  offset="0.4224" style="stop-color:#B1701B"/>
		<stop  offset="0.4242" style="stop-color:#B16E18"/>
		<stop  offset="0.465" style="stop-color:#C4872A"/>
		<stop  offset="0.54" style="stop-color:#E4AE46"/>
		<stop  offset="0.5997" style="stop-color:#F7C658"/>
		<stop  offset="0.6364" style="stop-color:#FECF5E"/>
		<stop  offset="0.7466" style="stop-color:#F0BF59"/>
		<stop  offset="0.9605" style="stop-color:#CA964D"/>
		<stop  offset="1" style="stop-color:#C28E4B"/>
	</radialGradient>
	<path style="fill:url(#SVGID_00000126286330722171542520000003046999130200231559_);" d="M50.7,25.6c0,0,9.5,14,8.7,28.8
		c0,0,0.2,6-3.6,18.7c-2.8,9.5,3.7,19.8,3.7,19.8l4.2-2.2c0,0-6-8.6-3.3-17.9c0,0,3.5-9.6,3.2-20.5c-0.3-11.3-4-17.8-4.8-18.9
		c0,0,5,3,6.5,6.3l-2.4,0c0,0,1.1,3.9,1.1,4.8c0,0,5.4-1,12.1,2.8C76.1,47.3,65.9,30,50.7,25.6z"/>
	
		<radialGradient id="SVGID_00000067952782738530438740000008999936025982354366_" cx="78.7117" cy="27.907" r="57.7798" gradientUnits="userSpaceOnUse">
		<stop  offset="0" style="stop-color:#FAF5EF"/>
		<stop  offset="7.726161e-02" style="stop-color:#F8F3EC"/>
		<stop  offset="0.137" style="stop-color:#F5EDE2"/>
		<stop  offset="0.1908" style="stop-color:#F0E2D2"/>
		<stop  offset="0.2412" style="stop-color:#E8D4BA"/>
		<stop  offset="0.2892" style="stop-color:#DDC19C"/>
		<stop  offset="0.3353" style="stop-color:#D1AA77"/>
		<stop  offset="0.3798" style="stop-color:#C28F4C"/>
		<stop  offset="0.4224" style="stop-color:#B1701B"/>
		<stop  offset="0.4242" style="stop-color:#B16E18"/>
		<stop  offset="0.465" style="stop-color:#C4872A"/>
		<stop  offset="0.54" style="stop-color:#E4AE46"/>
		<stop  offset="0.5997" style="stop-color:#F7C658"/>
		<stop  offset="0.6364" style="stop-color:#FECF5E"/>
		<stop  offset="0.7466" style="stop-color:#F0BF59"/>
		<stop  offset="0.9605" style="stop-color:#CA964D"/>
		<stop  offset="1" style="stop-color:#C28E4B"/>
	</radialGradient>
	<path style="fill:url(#SVGID_00000067952782738530438740000008999936025982354366_);" d="M64.8,51.1L64.3,46
		c0,0,13.9-2.1,17.6,13.6c0,0,5.3-14.3,0.2-26.4c0,0-3.7-3.4-14.3-3.9c0,0,8,5,11.2,13.3c0,0-1.6-7.6-5.5-11c0,0,3.3,0.4,5.8,1.9
		c0,0,5.2,9.2,2.7,20.9c0,0-7.2-21.4-26.7-28.5l-1.4-0.6c0,0,24-2.8,33.6,6.6c0,0,4.7,28.9-9.1,44.8c0,0,3.2-11.6-2.4-18.9
		C75.8,57.9,71.1,51.7,64.8,51.1z"/>
	
		<radialGradient id="SVGID_00000137819745348740275960000003518115500554665875_" cx="78.2661" cy="28.6903" r="57.9946" gradientUnits="userSpaceOnUse">
		<stop  offset="0" style="stop-color:#FAF5EF"/>
		<stop  offset="7.726161e-02" style="stop-color:#F8F3EC"/>
		<stop  offset="0.137" style="stop-color:#F5EDE2"/>
		<stop  offset="0.1908" style="stop-color:#F0E2D2"/>
		<stop  offset="0.2412" style="stop-color:#E8D4BA"/>
		<stop  offset="0.2892" style="stop-color:#DDC19C"/>
		<stop  offset="0.3353" style="stop-color:#D1AA77"/>
		<stop  offset="0.3798" style="stop-color:#C28F4C"/>
		<stop  offset="0.4224" style="stop-color:#B1701B"/>
		<stop  offset="0.4242" style="stop-color:#B16E18"/>
		<stop  offset="0.465" style="stop-color:#C4872A"/>
		<stop  offset="0.54" style="stop-color:#E4AE46"/>
		<stop  offset="0.5997" style="stop-color:#F7C658"/>
		<stop  offset="0.6364" style="stop-color:#FECF5E"/>
		<stop  offset="0.7466" style="stop-color:#F0BF59"/>
		<stop  offset="0.9605" style="stop-color:#CA964D"/>
		<stop  offset="1" style="stop-color:#C28E4B"/>
	</radialGradient>
	<path style="fill:url(#SVGID_00000137819745348740275960000003518115500554665875_);" d="M76,79.6c0,0,4.8-11.2-0.9-20
		c0,0-3.1-5.9-10.5-7.1c0,0,0.4,7.7-1.9,16.2c0,0,2.4,0.7,4.3,1.8c0,0,1.4-6.3,1.6-10.5c0,0,6.5,0.7,6.4,12.8c0,0-3.8-3-4.8-3.4
		c0,0,0.2-2.5,0.5-2.5c0.7,0.1,1.9,0.5,2.6,1.2c0,0-2.6-3.7-3.5-6.1c0,0-0.5,5.3-1.5,9C68.3,70.9,74.5,74,76,79.6z"/>
	
		<radialGradient id="SVGID_00000078749093038498068670000000754928170519654297_" cx="78.6333" cy="41.8287" r="46.2891" gradientUnits="userSpaceOnUse">
		<stop  offset="0" style="stop-color:#FAF5EF"/>
		<stop  offset="7.726161e-02" style="stop-color:#F8F3EC"/>
		<stop  offset="0.137" style="stop-color:#F5EDE2"/>
		<stop  offset="0.1908" style="stop-color:#F0E2D2"/>
		<stop  offset="0.2412" style="stop-color:#E8D4BA"/>
		<stop  offset="0.2892" style="stop-color:#DDC19C"/>
		<stop  offset="0.3353" style="stop-color:#D1AA77"/>
		<stop  offset="0.3798" style="stop-color:#C28F4C"/>
		<stop  offset="0.4224" style="stop-color:#B1701B"/>
		<stop  offset="0.4242" style="stop-color:#B16E18"/>
		<stop  offset="0.465" style="stop-color:#C4872A"/>
		<stop  offset="0.54" style="stop-color:#E4AE46"/>
		<stop  offset="0.5997" style="stop-color:#F7C658"/>
		<stop  offset="0.6364" style="stop-color:#FECF5E"/>
		<stop  offset="0.7466" style="stop-color:#F0BF59"/>
		<stop  offset="0.9605" style="stop-color:#CA964D"/>
		<stop  offset="1" style="stop-color:#C28E4B"/>
	</radialGradient>
	<path style="fill:url(#SVGID_00000078749093038498068670000000754928170519654297_);" d="M64.7,77.9c0.3,4.6,1.8,6.6,1.8,6.6
		c1.8-0.9,4.7-4.4,4.7-4.4c-6.1-3.2-10.1-4.9-10.1-4.9c0.2-1.1,1.4-5.3,1.4-5.3c12.4,4.4,12.7,10.8,12.7,10.8
		c-3.1,4.4-10.3,9.1-10.3,9.1c-3.8-5.5-4.2-9.8-3.9-13.4l0-0.1L64.7,77.9z"/>
	<path class="st5" d="M39.3,47c0,0,0.1-1,0.4-0.9c0.3,0.1,0.3,0.2,0.3,0.3C39.9,46.4,39.3,47,39.3,47z"/>
	<g>
		
			<radialGradient id="SVGID_00000078044546402892097630000013688415742608227740_" cx="-8.865" cy="-139.9378" r="64.4237" gradientTransform="matrix(0.9555 -0.3805 0.3793 0.9525 133.9975 148.6243)" gradientUnits="userSpaceOnUse">
			<stop  offset="0" style="stop-color:#FAF5EF"/>
			<stop  offset="7.726161e-02" style="stop-color:#F8F3EC"/>
			<stop  offset="0.137" style="stop-color:#F5EDE2"/>
			<stop  offset="0.1908" style="stop-color:#F0E2D2"/>
			<stop  offset="0.2412" style="stop-color:#E8D4BA"/>
			<stop  offset="0.2892" style="stop-color:#DDC19C"/>
			<stop  offset="0.3353" style="stop-color:#D1AA77"/>
			<stop  offset="0.3798" style="stop-color:#C28F4C"/>
			<stop  offset="0.4224" style="stop-color:#B1701B"/>
			<stop  offset="0.4242" style="stop-color:#B16E18"/>
			<stop  offset="0.465" style="stop-color:#C4872A"/>
			<stop  offset="0.54" style="stop-color:#E4AE46"/>
			<stop  offset="0.5997" style="stop-color:#F7C658"/>
			<stop  offset="0.6364" style="stop-color:#FECF5E"/>
			<stop  offset="0.7466" style="stop-color:#F0BF59"/>
			<stop  offset="0.9605" style="stop-color:#CA964D"/>
			<stop  offset="1" style="stop-color:#C28E4B"/>
		</radialGradient>
		<path style="fill:url(#SVGID_00000078044546402892097630000013688415742608227740_);" d="M50,30.6c0,0,1.3,5.5-1.9,7.8
			c0,0,0.9-1,1.2-1.8c0.3-0.7,0.6-1.7,0.6-1.7c-0.9-0.5-0.4-1.5-0.4-1.5c-0.8-0.8-1.2-2.4-1.2-2.4s0.8,4.6-2.1,7.5l0.5,0.5
			c0,0-3.9,2.3-4.4,2.5c-0.5,0.2-0.3,0.8-0.4,1.2c-0.1,0.4-0.3,0.3-1.1,0.9c-0.8,0.6-1.5,1.2-2,1.4c-0.5,0.3-1,0.6-1,1
			c0,0.3,0,0.3,0,0.3s-1.7,0.9-1.7,2.5c0,0,0.2-0.9,2-1.4c0,0,0,0.3,0.1,0.4c0.1,0.1,0.2-0.1,0.4-0.2c0.2-0.1,1.5-0.4,1.7-0.4
			c0.3,0,0.9,0.5,0.9,0.5l0-1.2c0,0,0.1-0.2,0.2-0.2c0.1,0,0.7,0.5,0.7,0.4c0-0.1-0.1-1.2,0-1.2c0.2,0,0.7,0.5,0.8,0.4
			c0.1-0.1,0.2-1.1,0.2-1.1s0.7,0.4,0.7,0.4c0.1-0.1,0.1-0.7,0.2-0.8c0.1,0,0.6,0.1,0.7,0.2c0.1,0,0.1,0.1,0.2,0
			c0-0.1-0.1-0.5,0-0.6c0.1,0,1.2-0.3,1.6-0.2c0.3,0.1,0.8,0.7,0.4,1.3c0,0-1.4-0.5-2.9,0.7c-1.5,1.3-3.6,3.3-4.5,3.6
			c-0.9,0.3-1.4,0.5-2.6,0.5c0,0,0,0.1,0.2,0.2c0.2,0.1,2.4,0.6,3.5-0.1c1.1-0.7,1.2-0.8,1.2-0.6c0.1,0.2,0.3,0.5,0.8,0.5
			c0.5,0,0.4,0.3,0.4,0.9c0,0.6-0.4,1.2-0.7,1.4c0,0,1-0.2,1.2-0.8c0.2-0.6,0.2-1,0.2-1.4c0-0.4-0.1-0.5,0.1-0.7
			c0.2-0.2,2.1-1.5,2.6-1.8c0.5-0.2,3.2-1.3,3.5-1.1c0.3,0.2,0.3,1.7,0.3,1.8c0,0,0.8-0.9,1.5-0.9c0.5-0.1,1.4,1.1,1.4,1.1
			s-0.2-2,1.1-2.1l2.9-0.2L52.1,45l4.9,0c0,0-0.7-3.2-1.3-4.8c0,0-2.7,1-3.3,1.2c0,0-1.7,0.7-2.4,0.2c-1.8-1.5,0.3-4.9,0.3-4.9
			s-0.7,2.3-0.5,3.2c0,0,0.2,1.8,2.2,1.1l3.4-1.3c-2,0.7-2.8-0.7-2.4-1.4c0.8-1.3,2.1,0,2.1,0s-0.3-1.6-1.2-3.1c0,0-1.1,0.2-1.6-0.7
			c-0.4-0.7,0-1.4,0.2-1.5c0,0-0.5-0.2-1.1-0.7c-1.3-1.2-1.7-2.7-1.7-2.7L50,30.6z"/>
		<path class="st5" d="M44.4,41.8c-0.1,0.1,0.3,0.4-0.3,0.7c-0.3,0.1-0.5-0.3-0.5-0.3c-0.2,0.1-0.5,0.2-0.6,0.3c0,0,0,0.1,0,0.1
			c0.2,0,0.2-0.2,0.4,0.2c0.1,0.1,0.4,0.2,0.7,0.1c0.3-0.1,0.6-0.2,0.7-0.6c0.1-0.3-0.1-0.6-0.1-0.6l0.7-0.6
			C45.6,41.2,45,41.6,44.4,41.8z"/>
		<path class="st5" d="M42.2,48.9c0,0,0.1-1.3,1.7-2c1.5-0.7,2.5-0.7,2.5-0.7s-0.3,0.3-0.4,0.3c-0.1,0.1-0.4,0.2-0.6,0.2
			c-0.2,0-0.4-0.2-0.4-0.2s-0.1,0.6-0.1,0.7c0,0.1-0.1,0.2-0.2,0.2c-0.1,0-0.7,0-0.9-0.1l-0.1,0c0,0,0,0.5,0,0.7
			c0,0.2-0.3,0.3-0.5,0.3c-0.2,0-0.6-0.3-0.6-0.3s0,1-0.2,1.1L42.2,48.9z"/>
		
			<radialGradient id="SVGID_00000156576564742521017980000004769951962239251118_" cx="-9.3166" cy="-138.9267" r="62.8822" gradientTransform="matrix(0.9555 -0.3805 0.3793 0.9525 133.9975 148.6243)" gradientUnits="userSpaceOnUse">
			<stop  offset="0" style="stop-color:#FAF5EF"/>
			<stop  offset="7.726161e-02" style="stop-color:#F8F3EC"/>
			<stop  offset="0.137" style="stop-color:#F5EDE2"/>
			<stop  offset="0.1908" style="stop-color:#F0E2D2"/>
			<stop  offset="0.2412" style="stop-color:#E8D4BA"/>
			<stop  offset="0.2892" style="stop-color:#DDC19C"/>
			<stop  offset="0.3353" style="stop-color:#D1AA77"/>
			<stop  offset="0.3798" style="stop-color:#C28F4C"/>
			<stop  offset="0.4224" style="stop-color:#B1701B"/>
			<stop  offset="0.4242" style="stop-color:#B16E18"/>
			<stop  offset="0.465" style="stop-color:#C4872A"/>
			<stop  offset="0.54" style="stop-color:#E4AE46"/>
			<stop  offset="0.5997" style="stop-color:#F7C658"/>
			<stop  offset="0.6364" style="stop-color:#FECF5E"/>
			<stop  offset="0.7466" style="stop-color:#F0BF59"/>
			<stop  offset="0.9605" style="stop-color:#CA964D"/>
			<stop  offset="1" style="stop-color:#C28E4B"/>
		</radialGradient>
		<path style="fill:url(#SVGID_00000156576564742521017980000004769951962239251118_);" d="M44,38.8c0,0,0.8-0.5,2,0.3l-1,0.5
			C44.9,39.7,44.8,39.3,44,38.8z"/>
	</g>
	<g>
		
			<radialGradient id="SVGID_00000083071837611533252220000017403653211650510246_" cx="79.4837" cy="28.7018" r="65.7989" gradientUnits="userSpaceOnUse">
			<stop  offset="0" style="stop-color:#FAF5EF"/>
			<stop  offset="7.726161e-02" style="stop-color:#F8F3EC"/>
			<stop  offset="0.137" style="stop-color:#F5EDE2"/>
			<stop  offset="0.1908" style="stop-color:#F0E2D2"/>
			<stop  offset="0.2412" style="stop-color:#E8D4BA"/>
			<stop  offset="0.2892" style="stop-color:#DDC19C"/>
			<stop  offset="0.3353" style="stop-color:#D1AA77"/>
			<stop  offset="0.3798" style="stop-color:#C28F4C"/>
			<stop  offset="0.4224" style="stop-color:#B1701B"/>
			<stop  offset="0.4242" style="stop-color:#B16E18"/>
			<stop  offset="0.465" style="stop-color:#C4872A"/>
			<stop  offset="0.54" style="stop-color:#E4AE46"/>
			<stop  offset="0.5997" style="stop-color:#F7C658"/>
			<stop  offset="0.6364" style="stop-color:#FECF5E"/>
			<stop  offset="0.7466" style="stop-color:#F0BF59"/>
			<stop  offset="0.9605" style="stop-color:#CA964D"/>
			<stop  offset="1" style="stop-color:#C28E4B"/>
		</radialGradient>
		<path style="fill:url(#SVGID_00000083071837611533252220000017403653211650510246_);" d="M57.5,47.3c0,0-2.4,0.8-4.7,2.8l4.1,3.7
			l-4.6-3.3c-0.7,0.7-1.5,1.5-2.1,2.5l5.4,2.4l-5.7-1.8c-0.4,0.8-0.8,1.6-1,2.5l5.9,1.2l-6-0.6c-0.1,0.7-0.2,1.4-0.2,2.2
			c0,0.3,0,0.7,0,1l5.9-0.3l-5.8,0.9c0.2,1.1,0.5,2.2,0.8,3.3l5.2-2.1l-5,2.7c0.4,1.1,0.9,2,1.4,2.9l4.6-3.3l-4.3,3.9
			c1.5,2.6,3.1,4.3,3.1,4.3C59.4,58,57.5,47.3,57.5,47.3z"/>
	</g>
	<g>
		
			<radialGradient id="SVGID_00000009559966603525668510000013465615272498094738_" cx="83.1429" cy="-9.1568" r="36.4523" gradientTransform="matrix(0.9897 0.1432 -0.1432 0.9897 -23.322 -2.0435)" gradientUnits="userSpaceOnUse">
			<stop  offset="0" style="stop-color:#FAF5EF"/>
			<stop  offset="7.726161e-02" style="stop-color:#F8F3EC"/>
			<stop  offset="0.137" style="stop-color:#F5EDE2"/>
			<stop  offset="0.1908" style="stop-color:#F0E2D2"/>
			<stop  offset="0.2412" style="stop-color:#E8D4BA"/>
			<stop  offset="0.2892" style="stop-color:#DDC19C"/>
			<stop  offset="0.3353" style="stop-color:#D1AA77"/>
			<stop  offset="0.3798" style="stop-color:#C28F4C"/>
			<stop  offset="0.4224" style="stop-color:#B1701B"/>
			<stop  offset="0.4242" style="stop-color:#B16E18"/>
			<stop  offset="0.465" style="stop-color:#C4872A"/>
			<stop  offset="0.54" style="stop-color:#E4AE46"/>
			<stop  offset="0.5997" style="stop-color:#F7C658"/>
			<stop  offset="0.6364" style="stop-color:#FECF5E"/>
			<stop  offset="0.7466" style="stop-color:#F0BF59"/>
			<stop  offset="0.9605" style="stop-color:#CA964D"/>
			<stop  offset="1" style="stop-color:#C28E4B"/>
		</radialGradient>
		<path style="fill:url(#SVGID_00000009559966603525668510000013465615272498094738_);" d="M44.7,13c0.3,0,1.2,0,1.6-0.1
			c1-0.1,1.8-0.1,2.3-0.2c1.7-0.1,2.6,0.8,2.7,2c0.1,1.2-0.6,1.9-1.5,2.4c0,0,0,0.1,0,0.1c0.5,0.8,1.8,2.2,2.5,2.9
			c0.6,0.6,0.8,0.6,1.7,0.7c0,0,0,0.4-0.1,0.4c-0.6,0.1-1.7,0.1-2.3-0.1c-0.2-0.1-0.5-0.2-0.7-0.5c-0.6-0.6-1.5-2-2.1-2.7
			c-0.1-0.1-0.3-0.2-0.4-0.2c-0.2,0-0.8,0-1,0.1c0,0-0.1,0.1-0.1,0.1c0.1,0.8,0.1,2.1,0.2,2.6c0.1,0.5,0.2,0.6,0.5,0.6
			c0.2,0,0.5,0.1,0.8,0.1c0.1,0.1,0.1,0.4,0,0.4c-0.3,0-1,0-1.9,0.1c-0.9,0.1-1.5,0.1-1.8,0.2c-0.1-0.1-0.1-0.3,0-0.4
			c0.3-0.1,0.5-0.1,0.7-0.2c0.3-0.1,0.4-0.3,0.4-0.8c0-0.3-0.1-2.3-0.2-3C46.1,15.9,46,14.5,46,14c0-0.4-0.2-0.6-0.5-0.6
			c-0.2,0-0.5-0.1-0.8-0.1C44.7,13.3,44.7,13,44.7,13z M47.3,13.4c0,0-0.1,0.1-0.1,0.2c0,0.5,0.1,2.4,0.2,3.5c0,0,0,0.1,0.1,0.1
			c1,0,1.6-0.1,1.8-0.2c0.4-0.2,0.9-0.8,0.8-1.7c-0.1-1.3-0.8-2.1-2.3-2C47.7,13.3,47.4,13.3,47.3,13.4z"/>
		
			<radialGradient id="SVGID_00000163053721638106290790000003383201466861021826_" cx="83.1427" cy="-9.1575" r="36.4535" gradientTransform="matrix(0.9897 0.1432 -0.1432 0.9897 -23.322 -2.0435)" gradientUnits="userSpaceOnUse">
			<stop  offset="0" style="stop-color:#FAF5EF"/>
			<stop  offset="7.726161e-02" style="stop-color:#F8F3EC"/>
			<stop  offset="0.137" style="stop-color:#F5EDE2"/>
			<stop  offset="0.1908" style="stop-color:#F0E2D2"/>
			<stop  offset="0.2412" style="stop-color:#E8D4BA"/>
			<stop  offset="0.2892" style="stop-color:#DDC19C"/>
			<stop  offset="0.3353" style="stop-color:#D1AA77"/>
			<stop  offset="0.3798" style="stop-color:#C28F4C"/>
			<stop  offset="0.4224" style="stop-color:#B1701B"/>
			<stop  offset="0.4242" style="stop-color:#B16E18"/>
			<stop  offset="0.465" style="stop-color:#C4872A"/>
			<stop  offset="0.54" style="stop-color:#E4AE46"/>
			<stop  offset="0.5997" style="stop-color:#F7C658"/>
			<stop  offset="0.6364" style="stop-color:#FECF5E"/>
			<stop  offset="0.7466" style="stop-color:#F0BF59"/>
			<stop  offset="0.9605" style="stop-color:#CA964D"/>
			<stop  offset="1" style="stop-color:#C28E4B"/>
		</radialGradient>
		<path style="fill:url(#SVGID_00000163053721638106290790000003383201466861021826_);" d="M62.2,20.8c-0.5,0.1-1.9,0.5-3.1,0.5
			c-3.3,0-5.1-1.7-5.1-4.7c0-1.9,0.9-3.3,2.5-4c0.8-0.4,1.7-0.5,2.8-0.5c1.1,0,2,0.2,2.8,0.3c-0.1,0.5-0.2,1.6-0.3,2.3
			c0,0.1-0.4,0.1-0.5,0c-0.1-1.1-0.3-1.5-0.7-1.7c-0.4-0.3-1-0.4-1.9-0.4c-2.2,0-3.3,1.6-3.3,3.9c0,2.4,1.3,4.3,3.9,4.3
			c0.4,0,0.8-0.1,1-0.2c0.2-0.1,0.3-0.4,0.3-0.6c0-0.4,0-1,0-1.4c0-0.5-0.1-0.6-0.5-0.8c-0.3-0.1-0.5-0.1-1-0.1c-0.1,0,0-0.4,0-0.4
			c0.4,0,1.1,0,2,0c0.8,0,1.3,0,1.5,0c0,0,0,0.4,0,0.4c-0.2,0-0.3,0.1-0.5,0.1c-0.3,0.1-0.3,0.3-0.4,0.7c0,0.4,0,1.3,0,1.6
			c0,0.2,0,0.3,0.4,0.4C62.3,20.6,62.3,20.8,62.2,20.8z"/>
		
			<radialGradient id="SVGID_00000059298209873913198160000007823984572518926230_" cx="83.1426" cy="-9.1575" r="36.4533" gradientTransform="matrix(0.9897 0.1432 -0.1432 0.9897 -23.322 -2.0435)" gradientUnits="userSpaceOnUse">
			<stop  offset="0" style="stop-color:#FAF5EF"/>
			<stop  offset="7.726161e-02" style="stop-color:#F8F3EC"/>
			<stop  offset="0.137" style="stop-color:#F5EDE2"/>
			<stop  offset="0.1908" style="stop-color:#F0E2D2"/>
			<stop  offset="0.2412" style="stop-color:#E8D4BA"/>
			<stop  offset="0.2892" style="stop-color:#DDC19C"/>
			<stop  offset="0.3353" style="stop-color:#D1AA77"/>
			<stop  offset="0.3798" style="stop-color:#C28F4C"/>
			<stop  offset="0.4224" style="stop-color:#B1701B"/>
			<stop  offset="0.4242" style="stop-color:#B16E18"/>
			<stop  offset="0.465" style="stop-color:#C4872A"/>
			<stop  offset="0.54" style="stop-color:#E4AE46"/>
			<stop  offset="0.5997" style="stop-color:#F7C658"/>
			<stop  offset="0.6364" style="stop-color:#FECF5E"/>
			<stop  offset="0.7466" style="stop-color:#F0BF59"/>
			<stop  offset="0.9605" style="stop-color:#CA964D"/>
			<stop  offset="1" style="stop-color:#C28E4B"/>
		</radialGradient>
		<path style="fill:url(#SVGID_00000059298209873913198160000007823984572518926230_);" d="M71,13.5c-0.5-0.3-1.1-0.4-1.7-0.4
			c-2.1-0.2-3.3,1.3-3.5,3.7c-0.2,2.3,0.9,4.3,3.5,4.5c0.6,0,1.2-0.1,1.6-0.4c0.4-0.3,0.8-0.7,1.2-1.3c0.1,0,0.3,0.2,0.3,0.3
			c-0.2,0.6-0.9,1.7-1.2,1.8c-0.4,0.1-1.3,0.3-2.2,0.2c-3.2-0.2-4.8-2.1-4.6-5c0.1-1.5,0.9-3,2.5-3.7c0.8-0.4,1.7-0.5,2.9-0.4
			c1.2,0.1,2.1,0.4,2.8,0.5c-0.1,0.5-0.3,1.5-0.4,2.2c-0.1,0.1-0.4,0.1-0.4,0C71.7,14.1,71.5,13.8,71,13.5z"/>
	</g>
</g>
</svg>
