<?xml version="1.0" encoding="utf-8"?>
<!-- Generator: Adobe Illustrator 25.2.1, SVG Export Plug-In . SVG Version: 6.00 Build 0)  -->
<svg version="1.1" id="Layer_1" xmlns="http://www.w3.org/2000/svg" xmlns:xlink="http://www.w3.org/1999/xlink" x="0px" y="0px"
	 viewBox="0 0 150 200" style="enable-background:new 0 0 150 200;" xml:space="preserve">
<style type="text/css">
	.st0{fill:#120E0B;}
	.st1{fill:#93D500;}
	.st2{fill:#A6ACB1;}
	.st3{fill:#FFFFFF;}
	.st4{fill:#707271;}
</style>
<g>
	
		<rect x="12.8" y="37.8" transform="matrix(0.225 -0.9744 0.9744 0.225 -39.3083 150.5827)" class="st0" width="124.4" height="124.4"/>
	<path class="st1" d="M116.2,143.7c0,0,0.1,0,0.1,0l0.2,0l0.4,0.1l0.3,0.1c0,0,0.1,0,0.1,0c0,0,0.1,0,0.1,0.1l0.3,0.9
		c0,0,0,0.1,0,0.2c0,0.1,0,0.1,0,0.2l0,0.2l-0.5,2l-0.3,1.1c0,0.1-0.1,0.2-0.1,0.1l-0.7-0.2c0,0-0.1,0-0.1-0.1c0,0,0-0.1,0-0.1
		l0.3-1.4l0.2-0.7l0.2-0.8c0,0,0-0.1,0-0.1c0,0,0-0.1-0.1-0.1l-0.5-0.1c0,0-0.1,0-0.1,0c0,0,0,0.1-0.1,0.1l-0.2,0.8l-0.2,1l0,0.1
		c0,0,0,0.1,0,0.2c0,0.1,0,0.1-0.1,0.1l-0.7,0.7c0,0-0.1,0-0.1,0c0,0-0.1,0-0.1,0l-0.1,0l-0.7-0.2l-0.1,0c0,0-0.1,0-0.1,0
		c0,0-0.1,0-0.1-0.1l-0.3-0.9c0,0,0-0.1,0-0.2c0-0.1,0-0.1,0-0.2l0-0.2l0.6-2.4l0.1-0.5c0,0,0-0.1,0.1-0.1c0,0,0.1,0,0.1,0l0.7,0.2
		c0,0,0.1,0,0.1,0.1c0,0,0,0.1,0,0.1l-0.1,0.6l-0.4,1.6l-0.1,0.6c0,0,0,0.1,0,0.1c0,0,0,0.1,0.1,0.1l0.5,0.1c0,0,0.1,0,0.1,0
		c0,0,0-0.1,0.1-0.1l0.1-0.6l0.3-1.2l0-0.2c0,0,0-0.1,0-0.2c0-0.1,0-0.1,0.1-0.1l0.7-0.7C116.1,143.7,116.1,143.7,116.2,143.7"/>
	<path class="st1" d="M115.9,134.7C115.9,134.7,116,134.7,115.9,134.7l0.5,0.1l2.7,0.6l0,0l0,0c0,0,0.1,0,0.1,0c0,0,0.1,0,0.1,0.1
		l0.3,0.9c0,0,0,0.1,0,0.2c0,0.1,0,0.1,0,0.2l-0.1,0.6l-0.4,1.9l-0.1,0.2c0,0,0,0.1,0,0.2c0,0.1,0,0.1-0.1,0.1l-0.7,0.7
		c0,0-0.1,0-0.1,0c0,0-0.1,0-0.1,0l-0.2,0l-2.6-0.6l-0.4-0.1c0,0-0.1,0-0.1-0.1c0,0,0-0.1,0-0.1l0.3-1.2c0,0,0-0.1,0.1-0.1
		c0,0,0.1,0,0.1,0l0.5,0.1l2,0.5l0.3,0.1c0,0,0.1,0,0.1,0c0,0,0-0.1,0.1-0.1l0.4-1.7c0,0,0-0.1,0-0.1c0,0,0-0.1-0.1-0.1l-0.3-0.1
		l-2.2-0.5l-0.3-0.1c0,0-0.1,0-0.1-0.1c0,0,0-0.1,0-0.1l0.3-1.2C115.9,134.8,115.9,134.8,115.9,134.7"/>
	<path class="st1" d="M118.3,126.8c0,0,0.1,0,0.1,0c0,0,0.1,0,0.1,0l0.2,0l1,0.2l0.1,0c0,0,0.1,0,0.1,0c0,0,0.1,0,0.1,0.1l0.3,0.9
		c0,0,0,0.1,0,0.2c0,0.1,0,0.1,0,0.2l-0.1,0.2l-0.1,0.6l-0.2,0.9c0,0,0,0.1,0,0.1c0,0,0,0.1,0.1,0.1l0.9,0.2c0.1,0,0.1,0.1,0.1,0.2
		l-0.3,1.2c0,0.1-0.1,0.2-0.1,0.1l-0.6-0.1l-2.4-0.5l-0.9-0.2c0,0-0.1,0-0.1-0.1c0,0,0-0.1,0-0.1l0.6-2.6l0.1-0.4l0-0.2
		c0,0,0-0.1,0.1-0.2c0-0.1,0-0.1,0.1-0.1L118.3,126.8z M118.3,128.2l-0.4,1.7l1,0.2l0.4-1.7L118.3,128.2z"/>
	<path class="st1" d="M119.8,122.2l0.6,0.1c0,0,0,0,0,0l0.2-0.7l0.2-0.8l0.2-0.9c0,0,0-0.1,0.1-0.1c0,0,0.1,0,0.1,0l0.6,0.1
		c0.1,0,0.1,0.1,0.1,0.2l-0.2,0.9l-0.2,0.7l-0.2,0.9c0,0,0,0,0,0l0.6,0.1c0,0,0,0,0,0l0.2-0.7l0.2-1l0.3-1.2c0,0,0-0.1,0.1-0.1
		c0,0,0.1,0,0.1,0l0.7,0.2c0,0,0.1,0,0.1,0.1c0,0,0,0.1,0,0.1l-0.2,0.9l-0.5,2.1l-0.1,0.3c0,0,0,0.1,0,0.2c0,0.1,0,0.1-0.1,0.1
		l-0.7,0.7c0,0-0.1,0-0.1,0c0,0-0.1,0-0.1,0l-0.2,0l-1.9-0.4l-0.3-0.1c0,0-0.1,0-0.1,0c0,0-0.1,0-0.1-0.1l-0.3-0.9c0,0,0-0.1,0-0.2
		c0-0.1,0-0.1,0-0.2l0-0.2l0.5-2.4l0.2-0.7c0,0,0-0.1,0.1-0.1c0,0,0.1,0,0.1,0l0.7,0.2c0,0,0.1,0,0.1,0.1c0,0,0,0.1,0,0.1l-0.2,0.7
		l-0.3,1.4L119.8,122.2C119.8,122.1,119.8,122.1,119.8,122.2"/>
	<path class="st1" d="M125.5,111.1C125.5,111.1,125.5,111.1,125.5,111.1c0.1,0,0.1,0.1,0.1,0.1l-0.3,1.4c0,0,0,0.1-0.1,0.1
		c0,0-0.1,0.1-0.1,0.1l-1.3,0.7c0,0,0,0,0,0.1l-0.2,1c0,0,0,0,0,0l1.1,0.2c0.1,0,0.1,0.1,0.1,0.2l-0.3,1.2c0,0.1-0.1,0.2-0.1,0.1
		l-1.9-0.4l-1-0.2l-0.9-0.2c0,0-0.1,0-0.1-0.1c0,0,0-0.1,0-0.1l0.9-3.7c0,0,0-0.1,0.1-0.2c0-0.1,0-0.1,0.1-0.1l0.7-0.7
		c0,0,0.1,0,0.1,0c0,0,0.1,0,0.1,0l0.8,0.2l0.4,0.1l0.1,0c0,0,0,0,0.1,0c0,0,0.1,0.1,0.1,0.1l0.4,0.9L125.5,111.1z M122.1,112.1
		l-0.5,2.1l1,0.2l0.2-1l0.2-0.9l0,0l0-0.2l-0.1,0l-0.6-0.1L122.1,112.1z"/>
	<path class="st1" d="M124.6,97.1C124.6,97.1,124.7,97.1,124.6,97.1l0.8,0.1c0,0,0.1,0,0.1,0.1c0,0,0,0.1,0,0.1l-0.7,2.9
		c0,0,0,0,0,0l0.6,0.1c0,0,0,0,0,0l0.5-2.2c0,0,0-0.1,0.1-0.1c0,0,0.1,0,0.1,0l0.7,0.2c0,0,0.1,0,0.1,0.1c0,0,0,0.1,0,0.1l-0.5,2.2
		c0,0,0,0,0,0l1.3,0.3c0.1,0,0.1,0.1,0.1,0.2l-0.3,1.2c0,0.1-0.1,0.2-0.1,0.1l-3.8-0.9c-0.1,0-0.1-0.1-0.1-0.2l1-4.3
		C124.5,97.2,124.6,97.1,124.6,97.1"/>
	<path class="st1" d="M126.5,89C126.5,89,126.5,89,126.5,89l0.5,0.1l2.7,0.6l0,0l0,0c0,0,0.1,0,0.1,0c0,0,0.1,0,0.1,0.1l0.3,0.9
		c0,0,0,0.1,0,0.2c0,0.1,0,0.1,0,0.2l-0.1,0.6l-0.4,1.9l-0.1,0.2c0,0,0,0.1,0,0.2c0,0.1,0,0.1-0.1,0.1l-0.7,0.7c0,0-0.1,0-0.1,0
		c0,0-0.1,0-0.1,0l-0.2,0l-2.6-0.6l-0.4-0.1c0,0-0.1,0-0.1-0.1c0,0,0-0.1,0-0.1l0.3-1.2c0,0,0-0.1,0.1-0.1c0,0,0.1,0,0.1,0l0.5,0.1
		l2,0.5l0.3,0.1c0,0,0.1,0,0.1,0c0,0,0-0.1,0.1-0.1l0.4-1.7c0,0,0-0.1,0-0.1c0,0,0-0.1-0.1-0.1l-0.3-0.1l-2.2-0.5l-0.3-0.1
		c0,0-0.1,0-0.1-0.1c0,0,0-0.1,0-0.1l0.3-1.2C126.4,89.1,126.4,89.1,126.5,89"/>
	<path class="st1" d="M128.6,84.2l0.6,0.1c0,0,0,0,0,0l0.2-0.7l0.2-0.8l0.2-0.9c0,0,0-0.1,0.1-0.1c0,0,0.1,0,0.1,0l0.6,0.1
		c0.1,0,0.1,0.1,0.1,0.2l-0.2,0.9l-0.2,0.7l-0.2,0.9c0,0,0,0,0,0l0.6,0.1c0,0,0,0,0,0l0.2-0.7l0.2-1l0.3-1.2c0,0,0-0.1,0.1-0.1
		c0,0,0.1,0,0.1,0l0.7,0.2c0,0,0.1,0,0.1,0.1c0,0,0,0.1,0,0.1l-0.2,0.9l-0.5,2.1l-0.1,0.3c0,0,0,0.1,0,0.2c0,0.1,0,0.1-0.1,0.1
		l-0.7,0.7c0,0-0.1,0-0.1,0c0,0-0.1,0-0.1,0l-0.2,0l-1.9-0.4l-0.3-0.1c0,0-0.1,0-0.1,0c0,0-0.1,0-0.1-0.1l-0.3-0.9c0,0,0-0.1,0-0.2
		c0-0.1,0-0.1,0-0.2l0-0.2l0.5-2.4l0.2-0.7c0,0,0-0.1,0.1-0.1c0,0,0.1,0,0.1,0l0.7,0.2c0,0,0.1,0,0.1,0.1c0,0,0,0.1,0,0.1l-0.2,0.7
		l-0.3,1.4L128.6,84.2C128.5,84.2,128.5,84.2,128.6,84.2"/>
	<path class="st1" d="M133,74.2c0,0,0-0.1,0.1-0.1c0,0,0.1,0,0.1,0l0.8,0.2c0,0,0.1,0,0.1,0.1c0,0,0,0.1,0,0.1l-0.9,3.7
		c0,0.1-0.1,0.2-0.1,0.1l-3.8-0.9c-0.1,0-0.1-0.1-0.1-0.2l0.3-1.2c0-0.1,0.1-0.2,0.1-0.1l2.8,0.7c0,0,0.1,0,0.1,0c0,0,0-0.1,0.1-0.1
		L133,74.2z"/>
	<path class="st2" d="M30.7,67.4c-0.1,0.5-0.6,0.7-1,0.6c-0.5-0.1-0.8-0.6-0.7-1c0.1-0.5,0.6-0.7,1-0.6
		C30.5,66.5,30.8,66.9,30.7,67.4 M28.7,66.9c-0.1,0.6,0.2,1.2,0.9,1.4c0.6,0.1,1.2-0.2,1.4-0.9c0.1-0.6-0.2-1.2-0.9-1.4
		C29.5,65.9,28.9,66.3,28.7,66.9 M30.5,66.8c0,0-0.2,0.1-0.4,0.1C30.1,67,30,67,30,67c0-0.2-0.1-0.3-0.3-0.3c-0.2,0-0.4,0.1-0.4,0.3
		l-0.1,0.5l1.2,0.3l0.1-0.3l-0.5-0.1c0,0,0.1,0,0.3-0.1c0.1,0,0.1,0,0.2-0.1L30.5,66.8z M29.6,67c0.1,0,0.1,0.1,0.1,0.2l0,0.1
		l-0.2-0.1l0-0.1C29.5,67,29.6,67,29.6,67"/>
	<path class="st2" d="M104.6,53.1c-0.1,0.5-0.6,0.7-1,0.6c-0.5-0.1-0.8-0.6-0.7-1c0.1-0.5,0.6-0.7,1-0.6
		C104.4,52.2,104.7,52.6,104.6,53.1 M102.6,52.6c-0.1,0.6,0.2,1.2,0.9,1.4c0.6,0.1,1.2-0.2,1.4-0.9c0.1-0.6-0.2-1.2-0.9-1.4
		S102.7,52,102.6,52.6 M104.4,52.5c0,0-0.2,0.1-0.4,0.1c-0.1,0-0.2,0.1-0.2,0.1c0-0.2-0.1-0.3-0.3-0.3c-0.2,0-0.4,0.1-0.4,0.3
		l-0.1,0.5l1.2,0.3l0.1-0.3l-0.5-0.1c0,0,0.1,0,0.3-0.1c0.1,0,0.1,0,0.2-0.1L104.4,52.5z M103.5,52.7c0.1,0,0.1,0.1,0.1,0.2l0,0.1
		l-0.2-0.1l0-0.1C103.4,52.7,103.4,52.7,103.5,52.7"/>
	<path class="st1" d="M29.4,84.5c0.7,0.9,0.6,1.2,0.6,1.2l0.9,0.2c0.2,0.2,0.6,1.1,0.8,1.3c0.2,0.2,0.5,0.1,0.7,0.4
		c0.1,0.2,0.1,0.4,0.3,0.5c0.1,0.1,1.1,0,1.3-0.1c0.6-0.2,1,0.6,1.5,0.6c0.2,0,0.5,0,1.2-0.5c0.6-0.4,1.5,0.7,2.1,0.8
		c0.7,0.1,3.4-0.4,3.9,0.2c0.5,0.6,0.4,1.1,1.1,1.3c0.2-0.4,1.8,0.2,2.5,0.9c0.2,0.1,0.3,0.2,0.6,0.1c0.8-0.2,1.3,0,1.3,0
		c0.6-0.2,3.3-0.5,3.6-0.2c0.1,0.1,1,0.4,1,0.4c0.7,0.7,0.2,0.9,1.5,1.8c0.2,0.1,0.2,0.2,0.8,0.3c0.7,0.1,1.1,0.8,1.2,0.9
		c0.1,0.1,0.6,0.2,0.6,0.2c0.4,0.4,0.7,0.8,1.1,1c0.3,0.1,0.5,0.1,0.8,0.2c0.2,0.1,0.2,0.2,0.5,0.2c0.3-0.1,0.3-0.1,0.3,0.1
		c0.2-0.5,0.9-0.1,1.2,0.2l0.1-0.1c0.1,0.2,0.3,0.3,0.4,0.3c0.2,0,0.4-0.3,0.7-0.2c0.4,0.1,0.7,0.5,0.8,0.5c0.1,0,0.3-0.1,0.5-0.1
		c0.9,0.6,1.8,0.1,2.1,0.4c0.2,0.2,0.3,0.7,0.5,0.7c1.2-0.1,2.4,0.6,3.3,0.7c0.5,0.2,1.2,0.7,1.3,0.6c0.1-0.5,1-0.2,1-0.2
		c0.5-0.2,1.5-0.8,2-0.7c0.5,0.2,0.8,0.7,1,0.8c0,0,1.5,0.3,1.5,0.3c0.2,0.1,0.7,0.5,0.8,0.6c0.3,0,1.3,0.1,1.4,0.2
		c-0.1,0.5,1.3,0.5,1.3,0.7l1.7,0.5c0,0.1,0,0.2,0.1,0.3c0.2,0.2,0.6,0.3,0.8,0.4c0.5,0.6,0.5,1.1,1.7,1.5c-0.8,0.1-1.6-0.1-2.7-0.9
		c0,0-0.8-0.1-0.9-0.4c-0.1-0.2-1.9-0.5-1.9-0.5s-0.1,0.5-1.8,0.2c0,0,0-0.1,0-0.1c-0.1,0.1-0.2,0.2-0.3,0.2c-0.1,0-0.1,0-0.3,0
		c-0.2,0-0.2,0.1-0.4,0.2c-0.2,0.2-0.3,0.3-0.5,0.3c-0.2,0-0.8,0.1-0.9,0c-0.3-0.3-0.7-1-1.2-1.1c0,0-0.1,0.1-0.5,0.1
		c-0.2,0-0.7,0-1,0l-0.8-0.2c-0.2,0-0.5,0.1-0.7,0.1c-0.3-0.1-0.4-0.5-0.7-0.6c-0.3-0.1-0.6,0.3-0.9,0.1c-0.3-0.2-0.6-0.4-1.1-0.5
		c-0.3-0.1-0.7,0-0.9,0l-0.1,0.2c0,0-2.3,0-4.1-1.1c-0.1,0.1-0.2,0.2-0.5,0.2c-0.3,0-0.3,0-0.5,0.1c-0.6,0.3-1,0.5-1.7,0.4
		c-0.1-0.4-1.3-0.9-1.4-1.1c-0.2-0.3-0.7-0.3-0.9-0.4c-0.3-0.1-0.3-0.6-0.5-0.7l-1.8-0.6l0.2-0.1l-1.4-0.4c-0.5-0.4-0.9-0.8-1.6-1.2
		c-0.4-0.2-2.7,0.1-2.7,0.1s-0.4-0.4-0.9,0.1c-0.1,0.1-0.3,0.4-0.7,0.1c-0.5-0.4-1.2,0-1.6-0.4c-0.2-0.3-2-0.6-3-1.2
		c-0.6-0.3-0.9,0.6-1.3,0.7c-0.6,0.1-2.3-1-2.9-0.7c-0.1,0-0.1,0-0.1-0.1c0-0.1-0.1-0.2-0.2-0.1c-1.9,0.5-3.2-0.9-3.9-1
		c-0.9,0-0.8,1.3-2.2,1c-0.5-0.1-0.2-0.5-0.2-0.5c-0.2-0.4-0.3,0.1-2.5-0.7c-0.1,0.2-0.3,0.4-0.5,0.4c0,0,0-0.4-0.3-0.6
		c-0.3,0.3-0.9,0.6-1.3,0.7c-1.3,0.5-1,1.2-1,1.2s0.1,0.1,0.2,0.1c-0.2,0.4-0.8,1.1-0.9,1.7c-0.2,0.9,0,1.9,0.2,2
		c0.3-0.2,1-0.2,1.3-0.2c0.3,0.8,0.9,0.8,0.9,0.8c0.3-0.2,0.9,0,1.1-0.1c-0.1,0.4,0.1,0.5,0.2,0.7c0,0.2-0.1,0.5,0.1,0.8
		c0.4,0.6,0.6,1.3,3,1.4c0.4,0,0.7,0.2,0.9,0.4c0,0,0.1-0.8,0.3-0.9c0.1-0.1,0.4,0,0.7,0.1c0.2,0.3,0.6,0.2,0.9,0.6
		c0.3,0.3,0.7,1.1,2.6,1.7c0.2-0.1,0.3-0.3,0.5-0.4c0.4-0.1,1.1,0.3,1.3,0.3c0,0-0.1,0.1-0.1,0.2c0.4-0.1,0.6,0.3,1.1,0.1
		c0.5-0.1,0.6-0.3,0.9-0.3c0.3,0,0.5,0.1,0.7,0.1c0.7-0.1,2.4-0.4,2.4-0.4c0.2,0,0.8-0.6,1.3-0.5c0.3,0.1,0.8,0.6,1,0.9
		c0.5,0.7,1,0.6,1.2,0.9c0.2,0.3,0.3,0.5,0.8,0.7c1.1-1,1-0.1,3.2,0.4c0.3,0.1,0.7-0.7,1.1-0.7c0.3,0,1.2,0.4,2.2,1.2
		c0.2,0.2,1.6,0.8,2.2,1.1c0.4,0.2,1.4,1.1,2.3,1.2c2.3,0.3,3.2-0.2,3.5,0l1.2,0.8c0.2,0.1,0.4,0,0.6,0c0.2,0,0.4,0,0.6,0.1
		c0.4,0.3,0.7,0.6,0.9,0.6c0.3,0.1,0.7-0.1,0.9-0.2c0.5,0,3,1,3,1c0.9,0.2,3.1,0.4,3.1,0.4c0.6-0.1,0.9-0.3,1.4-0.2
		c0.4,0.1,0.6,0.6,0.9,0.6c0.2,0,0.4-0.2,0.7-0.1c-0.2,0-0.5,0.3-0.8,0.3c-0.7,0.2-1.2-0.6-1.6-0.4c-0.3,0.1-0.8,0.5-1.1,0.5
		c-1.2,0.3-4.2-0.4-5-0.3c-0.3,0-0.8,0-1.7,0c-0.5,0-1.3-0.1-2.1,0.2c-1.3,0.4-1.3,0.1-2-0.6c-0.8,0.1-1.2,0.6-1.9,0.3
		c-0.3-0.1-0.7-0.5-1.1-0.6c-0.7-0.1-1.2,1-2,1c-0.2-0.6-1.4-1.1-1.9-1.8c-0.7-1.1-3-1-3.3-1c-0.5-0.1-1.6-0.5-1.6-0.5
		c-0.1,0.2-0.7,0.7-0.7,0.7c-0.4,0-1.2-0.8-1.6-0.8c-1.2-0.1-2.1-0.5-2.1-0.5s-3.1,0.1-3.4,0.1c-2.1,0-3.4,0.7-3.6,0.7
		c-0.2,0.1-0.7,0.2-0.9,0.2c-0.5-0.2-0.8-0.5-1.1-0.6c-0.4-0.1-1.7-0.6-1.7-0.6s-1.7-1.2-2.4-1.5c-0.2-0.1-0.7,0.3-1.1-0.1
		c-0.1-0.1-0.6-0.5-2-0.2l-0.5-0.1c-0.3,0-1.2,1.2-1.7,1.1c-0.1-0.2-0.5-0.6-0.8-0.7c-0.1,0.1-0.4,0.2-0.6,0.2
		c-1.6-0.1-2.1,2.4-2.1,2.4c-1.1,1.6-1.5,3-1.5,4.2c-0.1-0.1-0.6-0.7-0.6-1.3c0-0.1,0.2-1.1,0.2-1.1c0-0.2-0.2-0.5-0.2-0.7
		c-0.1-0.3,0.1-0.6,0-0.8c0-0.1-0.2-0.1-0.3-0.2c-0.1-0.2,0-0.6-0.1-0.7c0.5-1.2,0.6-2.5,0.6-3c-0.1-0.5-0.5-1.2-0.6-1.6l0-0.5
		c-0.1-0.5-0.7-0.5-0.6-1.1c0.4-0.2,0.7-0.1,1.2-0.4c0.3-0.2,0.9-0.8,1.3-3.1c0.1,0,0.6-0.3,1-0.8c-0.4-0.4-0.6-1.1-0.5-2
		c-0.3-0.1-0.4-0.4-0.4-0.4c0-0.3-0.4-0.6-0.2-1.1c0.3-0.4,0.5-1.3,0.5-1.6C24,93,23.8,92.6,24,91.7c-0.1-0.1,0-0.5,0-0.9
		c-0.1-1.8-0.4-2.2-0.4-2.2c-0.1-0.2-0.2-0.3-0.3-0.5c0-0.3,0-0.4,0-0.5c0.3,0,0.7-0.1,0.9-0.3c0.3-0.3,0.4-0.7,0.9-1.3
		c0.1,0,1-0.7,1-0.7c0.4-0.4,0.5-1.2,1.2-1.1c0.1,0.2,0.2,0.4,0.6,0.5c0.1-0.2,0.1-0.2,0.3-0.3c0.2-0.1,0.3-1.5,1-1.4
		c0,0.2,0.2,0.4,0.2,0.6C29.4,84,29.3,84.4,29.4,84.5 M34.9,72.9c-0.8-1.1-1.3-0.5-2-0.6c0,0.2-0.3,0.6-0.5,0.8
		c-0.3-0.1-0.7-0.3-0.8-0.5c-0.3,0-0.5-0.2-0.6,0.1c-0.1,0.4-0.3,0.4-0.5,0.5c-0.3,0.1-0.9,0.3-1.1,0.6c-0.3,0.5-0.3,1.2-0.6,1.6
		c-0.2,0.2-0.5,0.3-0.9,0.3c0.2,0.7,0.9,1.2,0.7,2.6c0.5,0.2,1.4,0.7,1.6,1.8c0,0-0.1,0.1-0.2,0.3c-0.1,0.7,0.4,1,0.4,1.6
		c0,0.7-0.6,1.2,0.2,2.2c0.3,0.4,0.6,0.8,0.7,1.2c0.4-0.3,0.3-1.4,0.6-2c0.2-0.4,0.4-0.4,0.7-0.6c0.1-0.2,0.4-0.6,0.5-0.8
		c0.1-0.4,0.1-1-0.1-1.3c0.4-0.3,0.9-1.2,1.1-1.7c0,0,0.3,0.1,0.3-0.2c0.5,0.1,0.6,0.1,0.9-0.4c0.2,0.1,0.4,0.4,0.6,0.5
		c0.2,0.1,0.6,0,1,0.1c0.2,0,0.4,0.2,0.9,0.4c0.4,0.1,0.9,0,1.1,0c0.2,0.1,0.9,0.6,1.2,0.8c0.5,0.1,0.8-0.3,0.9-0.5
		c0.5,0.4,1.5,1.7,1.6,2.2c0.2,0,0.4,0,1-0.4c0.7-0.5,1.1-0.1,1.6,0.3l1.1,0.2c0.4,0.8,1,0.3,1.4,0.3c0,0,0.7,0.3,1.1-0.1
		c0.5-0.5,1.5-0.1,2-0.7c0.3,0.1,2.4,1.1,2.4,1.1L53,82.3c1.2,1,2.2,0.1,3.1,0.1c0,0,1.7,0.4,1.8,0.3c0.6-0.4,0.6,0.1,0.9,0.3
		l0.8,0.2c0.8,0.4,1.8,0.6,2.5,0.5l-0.1,0.2c0.5,0.1,0.9,0.2,1.3,0.5l1.5,0.3c0,0,0.9,0.9,1.1,1.1c0.3,0.2,0.7,0.1,1.3-0.1
		c0.7-0.2,0.9,0.1,1.2,0.3c1.3,0.2,1.8,0.6,1.8,1.4c1.5,0.4,2.3-0.3,3-0.2c0.3,0,3,1.5,3.9,1c0.3,0.2,0.9,0.2,1.2,0.2
		c0.2,0,0.7,0,1,0.1c0,0-0.1-0.5-2.4-1c-0.3,0-0.8-0.7-1.2-1.1c-0.4-0.3-0.7-0.5-1.3-0.9c-0.5-0.3-0.7-0.7-1-1
		C72.9,84,72.7,84,72.2,84c-0.3,0-0.4,0.1-1-0.1c-0.5-0.2-0.7-0.2-0.8-0.1c-0.4-0.1-0.6-0.1-0.6-0.1c0,0,0-0.1,0-0.1
		c-0.6,0.2-1.1-0.9-1.6-0.9c-0.3,0-0.8-0.2-1.4-0.2c-0.2,0-0.4,0.3-0.6,0.3c0,0-0.1-0.1-0.1-0.1c0,0-0.2,0-0.2,0.2
		c-0.1,0-0.1-0.1-0.4-0.1c-0.9,0-1.1-1.7-2.8-1.8c-0.5,0-0.9,0.3-1.3,0.5c0,0-0.5-0.3-0.6-0.3c-0.1,0-0.3,0.3-0.5,0.2
		c-0.4,0-3.3-2.5-3.6-2.5c-0.3,0-0.6,0.2-0.8,0.1c-0.1,0-0.2-0.5-0.9-0.5c-1.5-0.1-2.6,1.1-3.8,1c-1-0.1-1.9-0.7-2.3-1.1
		c-0.3,0-1-0.3-1.1-0.6c-0.4-0.1-0.9,0.5-1.2,0.9c-0.4-0.1-0.6-0.5-0.8-0.6c-0.3,0-1.1-0.1-1.4-0.2l0.1-0.1c-0.5-0.1-1.3,0-1.6-0.1
		c-0.5-0.2-1.3-1.6-1.9-1.5c-0.3,0.1-0.4,0-0.5-0.2c-0.2-0.2-0.3-0.3-0.6-0.3c-0.1-0.1-0.3-0.4-0.3-0.4c0,0-0.1-0.1-0.3,0
		c-0.1-0.4-0.5,0.1-0.9-1.3c0,0-0.8-0.1-1-0.1c-0.8-0.6-1.4-1.4-1.5-1.5C35.6,72.2,35.1,72.7,34.9,72.9"/>
	<path class="st3" d="M99.2,142.9c0-0.1,0.1-0.1,0.1-0.2c0.1,0,0.1-0.1,0.2,0l8,1.8c0.1,0,0.1,0.1,0.1,0.1c0,0.1,0,0.1,0,0.2l-0.5,2
		c0,0.1-0.1,0.1-0.1,0.2c-0.1,0-0.1,0.1-0.2,0l-2.8-0.6c-0.1,0-0.1,0-0.2,0c-0.1,0-0.1,0.1-0.1,0.2l-0.7,2.9c0,0.1,0,0.1,0,0.2
		c0,0.1,0.1,0.1,0.1,0.1l2.8,0.6c0.2,0,0.2,0.1,0.2,0.3l-0.5,2c0,0.2-0.1,0.3-0.3,0.2l-8-1.8c-0.2,0-0.2-0.1-0.2-0.3l0.5-2
		c0-0.2,0.1-0.3,0.3-0.2l2.7,0.6c0.2,0,0.3,0,0.3-0.2l0.7-2.9c0-0.1,0-0.1,0-0.2c0-0.1-0.1-0.1-0.1-0.1l-2.7-0.6
		c-0.1,0-0.1-0.1-0.1-0.1c0-0.1,0-0.1,0-0.2L99.2,142.9z"/>
	<path class="st3" d="M103.2,133.6c0,0,0.1,0,0.1,0l3.3,3.9c0,0,0.1,0.1,0.1,0.1c0.1,0,0.1,0.1,0.2,0.1l2.1,0.5c0.1,0,0.1,0,0.1,0.1
		c0,0.1,0,0.1,0,0.2l-0.4,1.8c0,0.1,0,0.1-0.1,0.2c0,0-0.1,0.1-0.1,0l-2.1-0.5c-0.1,0-0.1,0-0.2,0c-0.1,0-0.1,0-0.2,0l-4.6,2
		c-0.1,0-0.1,0-0.1,0c0,0,0-0.1,0-0.2l0.5-2c0-0.1,0-0.1,0.1-0.2c0-0.1,0.1-0.1,0.1-0.1l2.9-1.2l-2.1-2.4c0,0-0.1-0.1-0.1-0.2
		c0-0.1,0-0.2,0-0.2l0.5-2C103.1,133.7,103.2,133.7,103.2,133.6"/>
	<path class="st3" d="M106.1,125.3c0.1,0,0.1,0,0.2,0c0.1,0,0.1,0,0.2,0l0.3,0.1l3.6,0.8l0.3,0.1c0.1,0,0.1,0,0.2,0.1
		c0.1,0,0.1,0.1,0.1,0.1l0.6,1.4c0,0.1,0,0.1,0,0.2c0,0.1,0,0.2,0,0.2l-0.1,0.5l-1,4.3l-0.2,0.9c0,0.2-0.1,0.2-0.2,0.2l-0.8-0.2
		l-4.8-1.1l-0.8-0.2c-0.1,0-0.1,0-0.1-0.1c0-0.1,0-0.1,0-0.2l0.2-0.8l0.9-3.8l0.3-1.1c0-0.1,0-0.2,0.1-0.2c0-0.1,0.1-0.2,0.1-0.2
		L106.1,125.3z M105.8,129.7l-0.3,1.1l1,0.2l1.7,0.4l0.8,0.2l0.3-1.2l0.1-0.6l0.3-1.3l-0.7-0.2l-1.7-0.4l-1-0.2L106,129L105.8,129.7
		z"/>
	<path class="st3" d="M113.9,117.1c0.1,0,0.1,0,0.1,0c0,0,0,0.1,0,0.2l-0.5,2.1c0,0.1,0,0.1-0.1,0.2c0,0.1-0.1,0.1-0.1,0.1l-2.2,1.1
		c0,0,0,0-0.1,0.1l-0.3,1.5c0,0,0,0.1,0,0.1l1.8,0.4c0.1,0,0.2,0.1,0.1,0.3l-0.4,1.8c0,0.2-0.1,0.2-0.2,0.2l-3.1-0.7l-1.7-0.4
		l-1.6-0.4c-0.1,0-0.1,0-0.1-0.1c0-0.1,0-0.1,0-0.2l1.3-5.7c0-0.1,0-0.2,0.1-0.2c0-0.1,0.1-0.2,0.1-0.2l1.2-1c0.1,0,0.1,0,0.2,0
		c0.1,0,0.1,0,0.2,0l1.3,0.3l0.7,0.2l0.1,0c0,0,0.1,0,0.1,0.1c0,0,0.1,0.1,0.1,0.1l0.6,1.4L113.9,117.1z M108.3,118.5l-0.7,3.2
		l1.6,0.4l0.4-1.5l0.3-1.4l0,0l0.1-0.2l-0.1,0l-1.1-0.3L108.3,118.5z"/>
	<path class="st3" d="M110.4,106.8c0.1,0,0.1,0,0.2,0c0.1,0,0.1,0,0.2,0l0.2,0l3.5,0.8l0.5,0.1c0.1,0,0.1,0,0.2,0.1
		c0.1,0,0.1,0.1,0.1,0.1l0.6,1.4c0,0.1,0,0.1,0,0.2c0,0.1,0,0.2,0,0.2l-0.1,0.3l-0.7,3.2l-0.2,0.7c0,0.1,0,0.1-0.1,0.2
		c0,0.1-0.1,0.2-0.1,0.2l-1.2,1c-0.1,0-0.1,0-0.2,0c-0.1,0-0.1,0-0.2,0l-0.2,0l-3.4-0.8l-0.5-0.1c-0.1,0-0.1,0-0.2-0.1
		c-0.1,0-0.1-0.1-0.1-0.1l-0.6-1.4c0-0.1,0-0.1,0-0.2c0-0.1,0-0.2,0-0.2l0.1-0.6l0.6-2.8l0.2-0.8c0-0.1,0-0.1,0.1-0.2
		c0-0.1,0.1-0.2,0.1-0.2L110.4,106.8z M110.5,109.2l-0.7,3.1l3.5,0.8l0.7-3.1L110.5,109.2z"/>
	<path class="st3" d="M114.6,98c0.1,0,0.2,0,0.2,0l0.3,0.1l0.9,0.2l0.6,0.1c0.1,0,0.1,0,0.2,0.1c0.1,0,0.1,0.1,0.2,0.1l0.8,1.6
		c0,0.1,0,0.2,0,0.3c0,0.1,0,0.2,0,0.3l-0.1,0.3l-0.8,3.3l-0.4,1.9c0,0.2-0.1,0.3-0.3,0.2l-1.5-0.3c-0.1,0-0.1-0.1-0.1-0.1
		c0-0.1,0-0.1,0-0.2l0.5-2.3l0.3-1.2l0.3-1.4c0-0.1,0-0.1,0-0.2c0-0.1-0.1-0.1-0.1-0.1l-1-0.2c-0.1,0-0.1,0-0.2,0
		c-0.1,0-0.1,0.1-0.1,0.2l-0.3,1.3l-0.4,1.7l0,0.2c0,0.1,0,0.2-0.1,0.3c0,0.1-0.1,0.2-0.1,0.2l-1.4,1.1c-0.1,0-0.2,0-0.2,0
		c-0.1,0-0.2,0-0.2,0l-0.2-0.1l-1.4-0.3l-0.2-0.1c-0.1,0-0.1,0-0.2-0.1c-0.1,0-0.1-0.1-0.2-0.1l-0.8-1.6c0-0.1,0-0.2,0-0.3
		c0-0.1,0-0.2,0-0.3l0.1-0.3l0.9-4l0.2-0.9c0-0.1,0.1-0.1,0.1-0.2c0.1,0,0.1-0.1,0.2,0l1.5,0.3c0.1,0,0.1,0.1,0.1,0.1
		c0,0.1,0,0.1,0,0.2l-0.2,1l-0.6,2.7l-0.2,0.9c0,0.1,0,0.1,0,0.2c0,0.1,0.1,0.1,0.1,0.1l1,0.2c0.1,0,0.1,0,0.2,0
		c0.1,0,0.1-0.1,0.1-0.2l0.2-0.9l0.5-2l0.1-0.3c0-0.1,0-0.2,0.1-0.3c0-0.1,0.1-0.2,0.1-0.2l1.4-1.1C114.5,98,114.6,98,114.6,98"/>
	<path class="st3" d="M114.5,89.1c0.1,0,0.1,0,0.2,0s0.1,0,0.2,0l0.3,0.1l1.7,0.4l0.2,0c0.1,0,0.1,0,0.2,0.1c0.1,0,0.1,0.1,0.2,0.1
		l0.6,1.4c0,0.1,0,0.1,0,0.2c0,0.1,0,0.2,0,0.2l-0.1,0.4l-0.2,1l-0.3,1.3c0,0.1,0,0.1,0,0.2c0,0.1,0.1,0.1,0.1,0.1l1.6,0.4
		c0.1,0,0.2,0.1,0.1,0.3l-0.4,1.8c0,0.2-0.1,0.2-0.2,0.2l-0.9-0.2l-4-0.9l-1.5-0.3c-0.1,0-0.1,0-0.1-0.1c0-0.1,0-0.1,0-0.2l0.9-4
		l0.2-0.7l0.1-0.3c0-0.1,0-0.1,0.1-0.2c0-0.1,0.1-0.2,0.1-0.2L114.5,89.1z M114.5,91.4l-0.6,2.6l1.7,0.4l0.6-2.6L114.5,91.4z"/>
	<path class="st3" d="M116.4,80.5c0.1,0,0.1,0,0.2,0c0.1,0,0.1,0,0.2,0l0.2,0l3.5,0.8l0.5,0.1c0.1,0,0.1,0,0.2,0.1
		c0.1,0,0.1,0.1,0.1,0.1l0.6,1.4c0,0.1,0,0.1,0,0.2c0,0.1,0,0.2,0,0.2l-0.1,0.3L121,87l-0.2,0.7c0,0.1,0,0.1-0.1,0.2
		c0,0.1-0.1,0.2-0.1,0.2l-1.2,1c-0.1,0-0.1,0-0.2,0c-0.1,0-0.1,0-0.2,0l-0.2,0l-3.4-0.8l-0.5-0.1c-0.1,0-0.1,0-0.2-0.1
		c-0.1,0-0.1-0.1-0.1-0.1l-0.6-1.4c0-0.1,0-0.1,0-0.2c0-0.1,0-0.2,0-0.2l0.1-0.6l0.6-2.8l0.2-0.8c0-0.1,0-0.1,0.1-0.2
		c0-0.1,0.1-0.2,0.1-0.2L116.4,80.5z M116.6,82.9l-0.7,3.1l3.5,0.8l0.7-3.1L116.6,82.9z"/>
	<path class="st3" d="M124.3,72.3c0.1,0,0.1,0,0.1,0c0,0,0,0.1,0,0.2l-0.5,2.1c0,0.1,0,0.1-0.1,0.2c0,0.1-0.1,0.1-0.1,0.1l-2.2,1.1
		c0,0,0,0-0.1,0.1l-0.3,1.5c0,0,0,0.1,0,0.1l1.8,0.4c0.1,0,0.2,0.1,0.1,0.3l-0.4,1.8c0,0.2-0.1,0.2-0.2,0.2l-3.1-0.7l-1.7-0.4
		l-1.6-0.4c-0.1,0-0.1,0-0.1-0.1c0-0.1,0-0.1,0-0.2l1.3-5.7c0-0.1,0-0.2,0.1-0.2c0-0.1,0.1-0.2,0.1-0.2l1.2-1c0.1,0,0.1,0,0.2,0
		c0.1,0,0.1,0,0.2,0l1.3,0.3l0.7,0.2l0.1,0c0,0,0.1,0,0.1,0.1c0,0,0.1,0.1,0.1,0.1l0.6,1.4L124.3,72.3z M118.6,73.7l-0.7,3.2
		l1.6,0.4l0.4-1.5l0.3-1.4l0,0l0.1-0.2l-0.1,0l-1.1-0.3L118.6,73.7z"/>
	<path class="st3" d="M121,63.2c0.1,0,0.1,0,0.1,0.1c0,0.1,0,0.1,0,0.2l-0.4,1.9c0,0.1,0,0.1,0,0.2c0,0.1,0.1,0.1,0.1,0.1l4.8,1.1
		c0.1,0,0.1,0,0.1,0.1c0,0.1,0,0.1,0,0.2l-0.4,1.8c0,0.1,0,0.1-0.1,0.2c0,0-0.1,0.1-0.1,0l-4.8-1.1c-0.1,0-0.1,0-0.1,0
		c0,0-0.1,0.1-0.1,0.2l-0.4,1.9c0,0.1,0,0.1-0.1,0.2c0,0-0.1,0.1-0.1,0l-1.3-0.3c-0.1,0-0.2-0.1-0.1-0.3l0.4-1.9l0.1-0.5l0.4-1.8
		L119,65l0.4-1.9c0-0.1,0-0.1,0.1-0.2c0,0,0.1-0.1,0.1,0L121,63.2z"/>
	<path class="st1" d="M105.5,153.3l-8-1.8c-0.2-0.1-0.4-0.2-0.3-0.6l0.5-2c0.1-0.4,0.4-0.5,0.6-0.4l2.7,0.6c0,0,0,0,0,0l0.7-2.9
		l-2.7-0.6c-0.1,0-0.2-0.1-0.3-0.2c-0.1-0.1-0.1-0.2,0-0.4l0.5-2c0-0.1,0.1-0.2,0.2-0.3c0.1-0.1,0.2-0.1,0.4-0.1l8,1.8
		c0.1,0,0.2,0.1,0.3,0.2c0.1,0.1,0.1,0.2,0,0.4l-0.5,2c0,0.1-0.1,0.2-0.2,0.3c-0.1,0.1-0.2,0.1-0.4,0.1l-2.8-0.6l-0.6,2.9
		c0,0,0,0.1,0,0.1l2.8,0.6c0.2,0.1,0.4,0.2,0.3,0.6l-0.5,2C106,153.3,105.7,153.4,105.5,153.3 M98.1,148.9
		C98.1,148.9,98.1,148.9,98.1,148.9l-0.5,2c0,0,0,0.1,0,0.1l8,1.8c0,0,0,0,0,0l0.5-2c0,0,0-0.1,0-0.1l-2.8-0.6
		c-0.1,0-0.2-0.1-0.3-0.3c-0.1-0.1-0.1-0.2,0-0.4l0.7-2.9c0-0.1,0.1-0.2,0.2-0.3c0.1-0.1,0.2-0.1,0.4-0.1l2.8,0.6c0,0,0,0,0,0l0.5-2
		c0,0,0,0,0,0l-8-1.8c0,0,0,0,0,0l-0.5,2c0,0,0,0,0,0l2.7,0.6c0.1,0,0.2,0.1,0.3,0.2c0.1,0.1,0.1,0.2,0,0.4l-0.7,2.9
		c-0.1,0.4-0.4,0.5-0.6,0.4L98.1,148.9z"/>
	<path class="st1" d="M101.2,142.4c-0.1,0-0.1-0.1-0.2-0.1c-0.1-0.1-0.1-0.2,0-0.3l0.5-2c0-0.1,0.1-0.2,0.1-0.3
		c0.1-0.1,0.1-0.2,0.2-0.2l2.6-1.1l-1.9-2.1c-0.1-0.1-0.1-0.2-0.1-0.3c0-0.1,0-0.2,0-0.3l0.5-2c0-0.1,0.1-0.2,0.2-0.3c0,0,0,0,0,0
		c0.1-0.1,0.3-0.1,0.4,0.1l3.3,3.9c0,0,0.1,0.1,0.1,0.1c0,0,0.1,0,0.1,0l2.1,0.5c0.1,0,0.2,0.1,0.3,0.2c0,0.1,0.1,0.2,0,0.3
		l-0.4,1.8c0,0.1-0.1,0.2-0.2,0.3c-0.1,0.1-0.2,0.1-0.4,0.1l-2.1-0.5c0,0,0,0-0.1,0c0,0-0.1,0-0.1,0l-4.6,2
		C101.4,142.4,101.3,142.4,101.2,142.4 M102,139.9C102,139.9,102,139.9,102,139.9c-0.1,0.1-0.1,0.1-0.1,0.1l-0.4,1.8l4.4-1.9
		c0.1,0,0.2-0.1,0.3-0.1c0.1,0,0.2,0,0.3,0l2.1,0.5l0.4-1.8c0,0,0,0,0,0l-2.1-0.5c-0.1,0-0.2-0.1-0.2-0.1c-0.1-0.1-0.2-0.1-0.2-0.2
		l-3.1-3.7l-0.4,1.8c0,0,0,0.1,0,0.1c0,0,0,0.1,0,0.1l2.1,2.3c0.1,0.1,0.1,0.1,0.1,0.2c0,0.1-0.1,0.1-0.1,0.2L102,139.9L102,139.9z"
		/>
	<path class="st1" d="M109.9,134.5l-6.4-1.5c-0.1,0-0.2-0.1-0.3-0.2c0-0.1-0.1-0.2,0-0.3l1.3-5.7c0-0.1,0-0.2,0.1-0.3
		c0-0.1,0.1-0.2,0.1-0.2c0,0,0,0,0.1-0.1l1.2-1c0,0,0.1,0,0.1,0c0.1,0,0.1,0,0.2,0c0.1,0,0.2,0,0.3,0l4.2,1c0.1,0,0.2,0.1,0.2,0.1
		c0.1,0,0.1,0.1,0.2,0.1c0,0,0,0.1,0.1,0.1l0.6,1.4c0,0,0,0,0,0.1c0,0.1,0,0.2,0,0.3c0,0.1,0,0.2,0,0.3l-1.3,5.7
		C110.3,134.5,110.1,134.6,109.9,134.5 M103.7,132.6l6.3,1.5c0,0,0,0,0,0l1.3-5.7c0-0.1,0-0.1,0-0.2c0-0.1,0-0.1,0-0.2l-0.6-1.3
		c0,0,0,0-0.1-0.1c0,0-0.1,0-0.1,0l-4.2-1c0,0,0,0-0.1,0c0,0-0.1,0-0.1,0l-1.1,0.9c0,0,0,0.1-0.1,0.2c0,0.1-0.1,0.1-0.1,0.2
		L103.7,132.6C103.7,132.6,103.7,132.6,103.7,132.6 M109,131.9l-3.5-0.8c-0.1,0-0.2-0.2-0.2-0.3l0.7-3.1c0-0.1,0.2-0.2,0.3-0.2
		l3.5,0.8c0.1,0,0.2,0.2,0.2,0.3l-0.7,3.1C109.2,131.8,109.1,131.9,109,131.9 M108.8,131.3l0.6-2.6l-3-0.7l-0.6,2.6L108.8,131.3z"/>
	<path class="st1" d="M112,125.4l-6.4-1.5c-0.1,0-0.2-0.1-0.3-0.2c0-0.1-0.1-0.2,0-0.3l1.3-5.7c0-0.1,0-0.2,0.1-0.3
		c0-0.1,0.1-0.2,0.1-0.2c0,0,0,0,0.1-0.1l1.2-1c0,0,0.1,0,0.1,0c0.1,0,0.1,0,0.2,0c0.1,0,0.2,0,0.3,0l2.1,0.5c0.1,0,0.2,0.1,0.2,0.1
		c0.1,0,0.1,0.1,0.2,0.2c0,0,0,0,0,0.1l0.5,1.2l2.1-1.1c0,0,0,0,0,0c0.2-0.1,0.3,0,0.4,0.1c0.1,0.1,0.1,0.2,0,0.3l-0.5,2.1
		c0,0.1-0.1,0.2-0.1,0.3c-0.1,0.1-0.2,0.2-0.2,0.2l-2.1,1l-0.3,1.3l1.6,0.4c0.2,0,0.4,0.2,0.3,0.6l-0.4,1.8
		C112.5,125.3,112.2,125.4,112,125.4 M105.8,123.4l6.3,1.5c0,0,0,0,0,0l0.4-1.8c0,0,0,0,0,0l-1.7-0.4c-0.1,0-0.3-0.2-0.2-0.4
		l0.3-1.5c0-0.2,0.1-0.2,0.2-0.3l2.2-1c0,0,0,0,0.1-0.1c0,0,0-0.1,0.1-0.1l0.4-1.9l-2.1,1c-0.1,0-0.1,0-0.2,0
		c-0.1,0-0.1-0.1-0.1-0.1l-0.6-1.4c0,0,0,0-0.1-0.1c0,0,0,0,0,0l-2.1-0.5c0,0,0,0-0.1,0c0,0-0.1,0-0.1,0l-1.1,0.9c0,0,0,0.1-0.1,0.2
		c0,0.1-0.1,0.1-0.1,0.2L105.8,123.4C105.8,123.4,105.8,123.4,105.8,123.4 M111.3,120.9L111.3,120.9
		C111.3,120.9,111.3,120.9,111.3,120.9 M109.2,122.3l-1.6-0.4c-0.1,0-0.2-0.2-0.2-0.3l0.7-3.2c0-0.1,0.2-0.2,0.3-0.2l1.6,0.4
		c0.1,0,0.2,0.2,0.2,0.3l-0.7,3.2C109.4,122.3,109.3,122.4,109.2,122.3 M109,121.8l0.6-2.7l-1.2-0.3l-0.6,2.7L109,121.8z"/>
	<path class="st1" d="M113,115.7l-4.2-1c-0.1,0-0.1,0-0.2-0.1c-0.1,0-0.2-0.1-0.2-0.2c0,0,0,0,0-0.1l-0.6-1.4c0,0,0-0.1,0-0.1
		c0-0.1,0-0.2,0-0.3c0-0.1,0-0.2,0-0.3l1-4.2c0-0.1,0-0.2,0.1-0.3c0-0.1,0.1-0.2,0.1-0.2c0,0,0,0,0.1-0.1l1.2-1c0,0,0.1,0,0.1,0
		c0.1,0,0.1,0,0.2,0c0.1,0,0.2,0,0.3,0l4.2,1c0.1,0,0.2,0.1,0.2,0.1c0.1,0,0.1,0.1,0.2,0.1c0,0,0,0.1,0.1,0.1l0.6,1.4c0,0,0,0,0,0.1
		c0,0.1,0,0.2,0,0.3c0,0.1,0,0.2,0,0.3l-1,4.2c0,0.1,0,0.2-0.1,0.3c0,0.1-0.1,0.2-0.1,0.3c0,0,0,0,0,0l-1.2,1c0,0,0,0-0.1,0
		c-0.1,0-0.2,0.1-0.3,0.1C113.2,115.7,113.1,115.7,113,115.7 M108.8,114.2C108.9,114.2,108.9,114.2,108.8,114.2
		c0.1,0.1,0.1,0.1,0.2,0.1l4.2,1c0,0,0.1,0,0.1,0c0,0,0,0,0.1,0l1.1-1c0,0,0-0.1,0.1-0.1c0-0.1,0-0.1,0.1-0.2l1-4.2
		c0-0.1,0-0.1,0-0.2c0-0.1,0-0.1,0-0.2l-0.6-1.3c0,0,0,0-0.1-0.1c0,0-0.1,0-0.1,0l-4.2-1c0,0,0,0-0.1,0c0,0-0.1,0-0.1,0l-1.1,0.9
		c0,0,0,0.1-0.1,0.2c0,0.1-0.1,0.1-0.1,0.2l-1,4.2c0,0.1,0,0.1,0,0.2c0,0.1,0,0.1,0,0.2L108.8,114.2z M113.3,113.3l-3.5-0.8
		c-0.1,0-0.2-0.2-0.2-0.3l0.7-3.1c0-0.1,0.2-0.2,0.3-0.2l3.5,0.8c0.1,0,0.2,0.2,0.2,0.3l-0.7,3.1
		C113.5,113.3,113.4,113.4,113.3,113.3 M113.1,112.8l0.6-2.6l-3-0.7l-0.6,2.6L113.1,112.8z"/>
	<path class="st1" d="M116.3,106.7l-1.5-0.3c-0.1,0-0.2-0.1-0.3-0.2c-0.1-0.1-0.1-0.2,0-0.4l1.1-4.9c0,0,0,0,0-0.1l-1-0.2
		c0,0,0,0,0,0l-0.7,3.2c0,0.1-0.1,0.2-0.1,0.3c0,0.1-0.1,0.2-0.1,0.3c0,0,0,0-0.1,0.1l-1.4,1.1c0,0,0,0-0.1,0c-0.1,0-0.2,0-0.3,0
		c-0.1,0-0.2,0-0.3,0l-1.8-0.4c-0.1,0-0.2-0.1-0.3-0.1c-0.1-0.1-0.2-0.1-0.3-0.2c0,0,0,0,0-0.1l-0.8-1.6c0,0,0-0.1,0-0.1
		c0-0.1,0-0.2,0-0.3c0-0.1,0-0.2,0-0.3l1.2-5.2c0-0.1,0.1-0.2,0.2-0.3c0.1-0.1,0.2-0.1,0.4-0.1l1.5,0.3c0.1,0,0.2,0.1,0.3,0.2
		c0.1,0.1,0.1,0.2,0,0.4l-1.1,4.6c0,0,0,0.1,0,0.1l0.9,0.2c0,0,0,0,0,0l0.7-3.2c0-0.1,0.1-0.2,0.1-0.3c0-0.1,0.1-0.2,0.1-0.3
		c0,0,0,0,0.1-0.1l1.4-1.1c0,0,0.1,0,0.1,0c0.1,0,0.2,0,0.3,0l0,0c0.1,0,0.2,0,0.3,0l1.8,0.4c0.1,0,0.2,0.1,0.3,0.1
		c0.1,0.1,0.2,0.1,0.2,0.2c0,0,0,0,0.1,0.1l0.8,1.6c0,0,0,0,0,0.1c0,0.1,0,0.2,0,0.3c0,0.1,0,0.2,0,0.3l-1.3,5.5
		C116.7,106.7,116.5,106.8,116.3,106.7 M114.7,100.1l1,0.2c0.1,0,0.2,0.1,0.3,0.3c0,0.1,0.1,0.2,0,0.4l-1.1,4.9c0,0,0,0,0,0l1.4,0.3
		c0,0,0,0,0,0l1.3-5.5c0-0.1,0-0.1,0-0.2c0-0.1,0-0.1,0-0.2l-0.8-1.5c0,0-0.1,0-0.1-0.1c-0.1,0-0.1-0.1-0.1-0.1l-1.8-0.4
		c0,0-0.1,0-0.2,0c-0.1,0-0.1,0-0.2,0l-1.3,1c0,0-0.1,0.1-0.1,0.2c0,0.1-0.1,0.2-0.1,0.2l-0.7,3.2c0,0.1-0.1,0.2-0.2,0.3
		c-0.1,0.1-0.2,0.1-0.4,0.1l-1-0.2c-0.1,0-0.2-0.1-0.3-0.3c-0.1-0.1-0.1-0.2,0-0.4l1.1-4.6c0,0,0,0,0,0l-1.5-0.3c0,0,0,0,0,0
		l-1.2,5.2c0,0.1,0,0.1,0,0.2c0,0.1,0,0.1,0,0.2l0.8,1.5c0,0,0.1,0,0.1,0.1c0.1,0,0.1,0,0.2,0.1l1.8,0.4c0,0,0.1,0,0.2,0
		c0,0,0.1,0,0.1,0l1.3-1c0,0,0.1-0.1,0.1-0.2c0-0.1,0.1-0.2,0.1-0.2l0.7-3.2c0-0.1,0.1-0.2,0.2-0.3
		C114.4,100.1,114.6,100.1,114.7,100.1"/>
	<path class="st1" d="M118.4,97.6l-6.4-1.5c-0.1,0-0.2-0.1-0.3-0.2c0-0.1-0.1-0.2,0-0.3l1.2-5c0-0.1,0-0.2,0.1-0.3
		c0-0.1,0.1-0.2,0.1-0.2c0,0,0,0,0.1-0.1l1.2-1c0,0,0.1,0,0.1,0c0.1,0,0.1,0,0.2,0c0.1,0,0.2,0,0.3,0l2.2,0.5c0.1,0,0.2,0.1,0.2,0.1
		c0.1,0,0.1,0.1,0.2,0.1c0,0,0,0,0.1,0.1l0.6,1.4c0,0,0,0.1,0,0.1c0,0.1,0,0.2,0,0.3c0,0.1,0,0.2,0,0.3l-0.6,2.7c0,0,0,0,0,0
		l1.5,0.4c0.2,0,0.4,0.2,0.3,0.6l-0.4,1.8C118.9,97.6,118.6,97.7,118.4,97.6 M112.2,95.7l6.3,1.5c0,0,0,0,0,0l0.4-1.8c0,0,0,0,0,0
		l-1.5-0.4c-0.1,0-0.2-0.1-0.3-0.3c0-0.1,0-0.2,0-0.3l0.6-2.7c0-0.1,0-0.1,0-0.2c0-0.1,0-0.1,0-0.2l-0.6-1.3c0,0,0,0-0.1-0.1
		c-0.1,0-0.1,0-0.1,0l-2.2-0.5c0,0,0,0-0.1,0c0,0-0.1,0-0.1,0l-1.1,0.9c0,0,0,0.1-0.1,0.2c0,0.1-0.1,0.1-0.1,0.2L112.2,95.7
		C112.2,95.7,112.2,95.7,112.2,95.7 M115.6,94.6l-1.7-0.4c-0.1,0-0.2-0.2-0.2-0.3l0.6-2.6c0-0.1,0.2-0.2,0.3-0.2l1.7,0.4
		c0.1,0,0.2,0.2,0.2,0.3l-0.6,2.6C115.8,94.6,115.7,94.7,115.6,94.6 M115.5,94.1l0.5-2.1l-1.2-0.3l-0.5,2.1L115.5,94.1z"/>
	<path class="st1" d="M119.1,89.5l-4.2-1c-0.1,0-0.1,0-0.2-0.1c-0.1,0-0.2-0.1-0.2-0.2c0,0,0,0,0-0.1l-0.6-1.4c0,0,0-0.1,0-0.1
		c0-0.1,0-0.2,0-0.3c0-0.1,0-0.2,0-0.3l1-4.2c0-0.1,0-0.2,0.1-0.3c0-0.1,0.1-0.2,0.1-0.2c0,0,0,0,0.1-0.1l1.2-1c0,0,0.1,0,0.1,0
		c0.1,0,0.1,0,0.2,0c0.1,0,0.2,0,0.3,0l4.2,1c0.1,0,0.2,0.1,0.2,0.1c0.1,0,0.1,0.1,0.2,0.1c0,0,0,0.1,0.1,0.1l0.6,1.4c0,0,0,0,0,0.1
		c0,0.1,0,0.2,0,0.3c0,0.1,0,0.2,0,0.3l-1,4.2c0,0.1,0,0.2-0.1,0.3c0,0.1-0.1,0.2-0.1,0.3c0,0,0,0,0,0l-1.2,1c0,0,0,0-0.1,0
		c-0.1,0-0.2,0.1-0.3,0.1C119.3,89.5,119.2,89.5,119.1,89.5 M114.9,88C114.9,88,114.9,88,114.9,88C115,88,115,88,115.1,88l4.2,1
		c0,0,0.1,0,0.1,0c0,0,0,0,0.1,0l1.1-1c0,0,0-0.1,0.1-0.1c0-0.1,0-0.1,0.1-0.2l1-4.2c0-0.1,0-0.1,0-0.2c0-0.1,0-0.1,0-0.2l-0.6-1.3
		c0,0,0,0-0.1-0.1c0,0-0.1,0-0.1,0l-4.2-1c0,0,0,0-0.1,0c0,0-0.1,0-0.1,0l-1.1,0.9c0,0,0,0.1-0.1,0.2c0,0.1-0.1,0.1-0.1,0.2l-1,4.2
		c0,0.1,0,0.1,0,0.2c0,0.1,0,0.1,0,0.2L114.9,88z M119.3,87.1l-3.5-0.8c-0.1,0-0.2-0.2-0.2-0.3l0.7-3.1c0-0.1,0.2-0.2,0.3-0.2
		l3.5,0.8c0.1,0,0.2,0.2,0.2,0.3l-0.7,3.1C119.6,87,119.4,87.1,119.3,87.1 M119.2,86.5l0.6-2.6l-3-0.7l-0.6,2.6L119.2,86.5z"/>
	<path class="st1" d="M122.3,80.6l-6.4-1.5c-0.1,0-0.2-0.1-0.3-0.2c0-0.1-0.1-0.2,0-0.3l1.3-5.7c0-0.1,0-0.2,0.1-0.3
		c0-0.1,0.1-0.2,0.1-0.2c0,0,0,0,0.1-0.1l1.2-1c0,0,0.1,0,0.1,0c0.1,0,0.1,0,0.2,0c0.1,0,0.2,0,0.3,0l2.1,0.5c0.1,0,0.2,0.1,0.2,0.1
		c0.1,0,0.1,0.1,0.2,0.2c0,0,0,0,0,0.1l0.5,1.2l2.1-1.1c0,0,0,0,0,0c0.2-0.1,0.3,0,0.4,0.1c0.1,0.1,0.1,0.2,0,0.3l-0.5,2.1
		c0,0.1-0.1,0.2-0.1,0.3c-0.1,0.1-0.2,0.2-0.2,0.2l-2.1,1l-0.3,1.3l1.6,0.4c0.2,0,0.4,0.2,0.3,0.6l-0.4,1.8
		C122.8,80.5,122.5,80.6,122.3,80.6 M116.1,78.6l6.3,1.5c0,0,0,0,0,0l0.4-1.8c0,0,0,0,0,0l-1.7-0.4c-0.1,0-0.3-0.2-0.2-0.4l0.3-1.5
		c0-0.2,0.1-0.2,0.2-0.3l2.2-1c0,0,0,0,0.1-0.1c0,0,0-0.1,0.1-0.1l0.4-1.9l-2.1,1c-0.1,0-0.1,0-0.2,0c-0.1,0-0.1-0.1-0.1-0.1
		l-0.6-1.4c0,0,0,0-0.1-0.1c0,0,0,0,0,0l-2.1-0.5c0,0,0,0-0.1,0c0,0-0.1,0-0.1,0l-1.1,0.9c0,0,0,0.1-0.1,0.2c0,0.1-0.1,0.1-0.1,0.2
		L116.1,78.6C116.1,78.6,116.1,78.6,116.1,78.6 M121.6,76.2L121.6,76.2C121.6,76.2,121.6,76.2,121.6,76.2 M119.5,77.6l-1.6-0.4
		c-0.1,0-0.2-0.2-0.2-0.3l0.7-3.2c0-0.1,0.2-0.2,0.3-0.2l1.6,0.4c0.1,0,0.2,0.2,0.2,0.3l-0.7,3.2C119.8,77.5,119.6,77.6,119.5,77.6
		 M119.4,77l0.6-2.7l-1.2-0.3l-0.6,2.7L119.4,77z"/>
	<path class="st1" d="M119.3,70.5l-1.3-0.3c-0.2,0-0.4-0.2-0.3-0.6l1.5-6.6c0-0.1,0.1-0.2,0.2-0.3c0.1-0.1,0.2-0.1,0.4-0.1L121,63
		c0.1,0,0.2,0.1,0.3,0.2c0,0.1,0.1,0.2,0,0.3l-0.4,1.9c0,0,0,0,0,0l4.7,1.1c0.1,0,0.2,0.1,0.3,0.2c0.1,0.1,0.1,0.2,0,0.3l-0.4,1.8
		c0,0.1-0.1,0.2-0.2,0.3c-0.1,0.1-0.2,0.1-0.4,0.1l-4.7-1.1l-0.4,1.9c0,0.1-0.1,0.2-0.2,0.3C119.5,70.5,119.4,70.5,119.3,70.5
		 M118.2,69.8l1.2,0.3l0.4-1.9c0-0.1,0.1-0.2,0.2-0.3c0.1-0.1,0.2-0.1,0.4-0.1l4.7,1.1l0.4-1.8c0,0,0,0,0,0l-4.7-1.1
		c-0.1,0-0.2-0.1-0.3-0.3c0-0.1,0-0.2,0-0.3l0.4-1.9c0,0,0,0,0,0l-1.2-0.3L118.2,69.8C118.2,69.8,118.2,69.8,118.2,69.8 M125.5,67
		L125.5,67L125.5,67z M120.9,65.5L120.9,65.5L120.9,65.5z"/>
	<path class="st1" d="M96.5,143.1C96.5,143.1,96.5,143.1,96.5,143.1c-0.1,0.4-0.5,0.6-0.8,0.5l-1-0.2c-1.6-0.4-4.8-1.1-7.2-1.6
		c-1.7-0.4-2.4-0.6-2.7-0.6c1,1.5,3.2,4,4.3,5c0.2-0.1,0.5-0.2,0.6-0.3l0.6-0.5l0.2,0.7c0.1,0.5,0.1,0.8,0.1,1c0,0.2,0,0.2,0,0.3
		c0.2,0.3,0.2,0.5,0.2,0.6l0,0c-0.1,0.3-0.4,0.5-0.7,0.6c-1.2,0.6-2.5,1.1-3.5,1.5c-0.8,0.4-1.6,0.7-2.2,0.9
		c1.2,0.3,3.1,0.7,4.6,1.1c1.8,0.4,2,0.4,2,0.4c0,0,0.1,0,0.1,0c0.4,0.1,0.6,0.4,0.5,0.8c0,0,0,0,0,0c-0.1,0.3-0.3,0.6-0.8,0.6
		c-0.1,0-0.5,0.2-0.7,0.4c-0.3,0.2-0.6,0.3-1,0.2c-0.3-0.1-0.7-0.3-0.9-0.6c-0.2-0.1-1.6-0.7-3.8-1.2c-1.3-0.3-1.7-0.3-1.8-0.3
		c-0.2,0-0.3,0-0.5,0c-0.2,0-0.4,0-0.8,0.3l-0.6,0.4l-0.1-0.7c-0.1-0.3-0.2-0.7-0.3-1.1c-0.1-0.3-0.1-0.5-0.2-0.8l-0.1-0.3l0.2-0.2
		c0.7-0.6,6-2.8,7.3-3.3c-0.8-0.8-3.5-3.6-4.4-5.4c0,0,0-0.1-0.1-0.1c0,0,0-0.1-0.1-0.2c0,0-0.1,0-0.1,0c-0.3-0.1-0.5-0.3-0.5-0.6
		c0-0.1,0-0.3,0-0.5c0-0.2,0.2-0.4,0.3-0.6c0.5-0.4,1.1-1,1.4-1.5c0.3-0.4,0.6-0.4,0.8-0.4c0.3,0.1,0.5,0.4,0.5,0.8c0,0,0,0,0.1,0
		l0.3,0.1c0.4,0.1,1.3,0.3,2.3,0.5c5.2,1.2,5.8,1.2,5.9,1.2c0.1,0,0.2,0,0.3,0c0.3,0,0.5-0.1,0.7,0c0.3,0.1,0.5,0.3,0.6,0.6
		c0.1,0.2,0.1,0.4,0.2,0.7c0.1,0.2,0.2,0.7,0.3,0.8C96.5,142.5,96.6,142.8,96.5,143.1"/>
	<path class="st4" d="M82.6,140c0-0.2,0.1-0.3,0.3-0.4c0.5-0.4,1.1-1,1.5-1.5c0.2-0.3,0.5-0.3,0.6-0.3c0.2,0,0.4,0.3,0.3,0.7
		c0,0,0,0.1,0.2,0.2c0,0,0.1,0,0.3,0.1c0.4,0.1,1.3,0.3,2.3,0.5c5.1,1.2,5.9,1.2,6,1.2c0.1,0,0.2,0,0.3,0c0.3,0,0.5-0.1,0.7,0
		c0.3,0.1,0.4,0.3,0.5,0.5c0.1,0.2,0.1,0.4,0.2,0.7c0.1,0.3,0.2,0.8,0.3,0.9c0.2,0.1,0.3,0.4,0.3,0.6c0,0,0,0,0,0
		c-0.1,0.2-0.3,0.4-0.6,0.3c-0.1,0-0.5-0.1-1-0.2c-1.6-0.4-4.8-1.1-7.2-1.7c-2.5-0.6-2.9-0.7-3-0.7c0,0-0.1,0-0.1,0
		c-0.1,0-0.1,0-0.1,0c0.9,1.5,3.5,4.5,4.7,5.5c0.2,0,0.6-0.3,0.8-0.4l0.3-0.3l0.1,0.4c0.1,0.4,0.1,0.7,0.1,0.9c0,0.2,0,0.3,0.1,0.4
		c0.1,0.2,0.2,0.3,0.1,0.5c0,0,0,0,0,0c-0.1,0.2-0.3,0.4-0.6,0.5c-1.2,0.6-2.5,1.1-3.5,1.5c-1,0.4-1.9,0.8-2.5,1.1
		c-0.1,0-0.1,0.1-0.2,0.1c0.1,0,0.2,0.1,0.3,0.1c1.1,0.3,3.2,0.8,4.9,1.1c1.6,0.4,2,0.4,2,0.4c0,0,0.1,0,0.1,0
		c0.2,0.1,0.4,0.3,0.4,0.6c0,0,0,0,0,0c-0.1,0.2-0.3,0.4-0.6,0.4c-0.1,0-0.6,0.2-0.8,0.4c-0.2,0.2-0.5,0.3-0.8,0.2
		c-0.3-0.1-0.6-0.3-0.8-0.6c-0.2-0.2-1.9-0.7-3.9-1.2c-1.3-0.3-1.8-0.3-1.9-0.3c-0.2,0-0.3,0-0.4,0c-0.3,0-0.4,0-0.9,0.3l-0.3,0.2
		l-0.1-0.4c-0.1-0.3-0.2-0.7-0.3-1.1c-0.1-0.3-0.1-0.5-0.2-0.8l0-0.2l0.1-0.1c0.8-0.7,7.4-3.4,7.5-3.4c0,0,0,0,0,0
		c-1.3-1.3-3.7-4-4.5-5.6c0,0,0-0.1-0.1-0.1c0-0.1-0.1-0.2-0.1-0.3c-0.1,0-0.1,0-0.2,0c-0.2,0-0.3-0.2-0.4-0.4
		C82.5,140.3,82.5,140.2,82.6,140 M82.2,139.9L82.2,139.9c0,0.2,0,0.4,0,0.5c0.1,0.4,0.4,0.6,0.7,0.7c0,0,0,0,0,0c0,0,0,0,0,0
		c0,0.1,0.1,0.1,0.1,0.2c0.8,1.7,3.2,4.2,4.2,5.2c-1.6,0.7-6.4,2.6-7.1,3.3L80,150l-0.2,0.2l0.1,0.2l0,0.2c0.1,0.3,0.1,0.6,0.2,0.8
		c0.1,0.4,0.2,0.8,0.3,1.1l0.1,0.4l0.1,0.6l0.5-0.4l0.3-0.2c0.4-0.3,0.5-0.3,0.7-0.3c0.1,0,0.3,0,0.5,0c0,0,0.4,0,1.8,0.3
		c2.1,0.5,3.4,1,3.7,1.1c0.3,0.3,0.6,0.6,1,0.7c0.4,0.1,0.8,0,1.2-0.3c0.2-0.1,0.5-0.3,0.6-0.3c0.5,0,0.8-0.3,0.9-0.7c0,0,0,0,0-0.1
		c0.1-0.5-0.2-0.9-0.7-1c0,0-0.1,0-0.1,0c0,0-0.3-0.1-2-0.4c-1.3-0.3-2.9-0.7-4-0.9c0.5-0.2,1-0.4,1.6-0.7c1.1-0.5,2.3-1,3.5-1.5
		c0.3-0.1,0.7-0.3,0.8-0.8l0,0c0-0.2,0-0.5-0.2-0.8c0,0,0,0,0,0c0,0,0-0.1,0-0.1c0-0.2,0-0.5-0.1-1l-0.1-0.4l-0.2-0.6l-0.5,0.4
		l-0.3,0.3c-0.1,0.1-0.3,0.2-0.5,0.3c-1-0.9-2.8-3-3.9-4.4c0.4,0.1,1.1,0.3,2.2,0.5c2.4,0.6,5.7,1.3,7.2,1.7l0,0
		c0.5,0.1,0.9,0.2,1,0.2c0.4,0.1,0.9-0.2,1-0.6c0,0,0-0.1,0-0.1c0.1-0.4-0.1-0.7-0.4-1c-0.1-0.2-0.2-0.6-0.3-0.7
		c-0.1-0.3-0.2-0.5-0.2-0.7c-0.2-0.4-0.4-0.7-0.8-0.7c-0.3-0.1-0.5,0-0.8,0c-0.1,0-0.2,0-0.3,0c-0.1,0-0.9-0.1-5.9-1.2
		c-1-0.2-1.9-0.4-2.3-0.5c-0.1,0-0.1,0-0.2,0c0-0.5-0.3-0.8-0.7-0.9c-0.2,0-0.6-0.1-1,0.4l0,0l0,0c-0.3,0.5-0.9,1-1.4,1.4
		C82.4,139.5,82.2,139.7,82.2,139.9"/>
	<path class="st1" d="M104.9,105.6c0,0.2-0.3,1-0.7,1.2c-0.2,0.1-0.3,0.1-0.4,0c0,0-0.1,0-0.1,0c0,0,0,0,0,0c-0.3,0.3-0.6,0.5-1,0.8
		c-0.4,0.3-0.8,0.6-1.1,0.9c-0.2,0.2-0.4,0.2-0.7,0.2c-0.3-0.1-0.5-0.3-0.6-0.7c0-0.2,0-0.3,0-0.5c0.1-0.3,0.3-0.6,0.5-0.8
		c0.4-0.3,0.9-0.7,1.2-1c0.1-0.1,0.2-0.2,0.3-0.2c0.1-0.1,0.2-0.3,0.3-0.6c0-0.2,0.1-0.5-0.1-0.8c-0.3-0.9-3.5-3.1-5-3.6
		c0,0-0.1,0-0.1,0c-0.1,0-0.2,0-0.3,0c-0.1,0-0.1,0.1-0.1,0.1c0,0,0,0.1-0.1,0.3c0,0.2-0.1,0.5-0.2,0.8c-0.1,0.3-0.2,0.7-0.2,1
		c-0.1,0.3-0.1,0.3-0.1,0.3c0,0.4,0,0.7,0.1,0.9c0.1,0.2,0.2,0.5,0.2,0.8c0,0,0,0,0,0.1c-0.1,0.3-0.3,0.5-0.6,0.6
		c-0.2,0.1-0.7,0.2-1.1,0.4c-0.8,0.3-1.6,0.6-2,0.7l0,0c0,0,0,0,0,0c-0.1,0.1-0.3,0.1-0.5,0.1c-0.3-0.1-0.4-0.3-0.5-0.7
		c0-0.2-0.1-0.3-0.2-0.5c-0.1-0.1-0.1-0.2-0.2-0.4c-0.1-0.2-0.1-0.4-0.1-0.5c0-0.2,0.2-0.4,0.3-0.5c0,0,0.1-0.1,0.1-0.1
		c0,0,0-0.1,0-0.3l0-0.1c0-0.3,0-0.9,0-1.5c0-0.7,0-1.6,0-1.9l0-0.1c-0.1-0.3-0.2-0.6-0.1-1c0-0.2,0.2-0.4,0.3-0.6
		c0.2-0.2,0.4-0.4,0.6-0.6c0.4-0.4,0.8-0.8,1.1-1.3c0.1-0.3,0.4-0.4,0.7-0.4c0.2,0,0.4,0.2,0.5,0.4c0.1,0.2,0.1,0.3,0.1,0.5
		c0,0.1,0,0.1-0.1,0.2c0,0,0,0.1-0.1,0.2c-0.1,0.2-0.2,0.5-0.3,0.7c0,0.1,0,0.1,0,0.1c0,0.2,0,0.3,0,0.4c0,0.4,0,0.8-0.2,1.8
		c-0.1,0.2-0.2,0.7-0.4,1.2c-0.1,0.3-0.3,0.8-0.3,0.9l0,0.2c0,0.1,0,0.3-0.1,0.4c0.4-0.1,1.1-0.3,1.4-0.5c0.1-0.2,0.1-0.5,0.2-0.9
		c0.1-0.6,0.3-1.2,0.4-1.7c0.1-0.3,0.1-0.5,0.1-0.6c0.1-0.3,0-0.5-0.1-0.8c-0.1-0.2-0.1-0.4,0-0.6c0.1-0.4,0.4-0.7,0.7-0.8
		c0.3-0.2,0.6-0.5,0.9-0.8c0.3-0.4,0.7-0.4,0.9-0.4c0.3,0.1,0.4,0.3,0.6,0.4c0.1,0.1,0.1,0.1,0.2,0.2l0.1,0.1
		C100.7,98.3,105.7,101.9,104.9,105.6"/>
	<path class="st4" d="M91.9,99.2c0-0.2,0.1-0.4,0.3-0.6c0.2-0.2,0.4-0.4,0.6-0.6c0.4-0.4,0.9-0.8,1.1-1.4c0.1-0.2,0.3-0.3,0.5-0.3
		c0.1,0,0.2,0.1,0.3,0.3c0.1,0.1,0.1,0.3,0,0.4c0,0.1,0,0.1-0.1,0.2c0,0,0,0.1-0.1,0.2c-0.1,0.2-0.2,0.5-0.3,0.8c0,0.1,0,0.1,0,0.2
		c0,0.2,0,0.3,0,0.5c0,0.4,0,0.8-0.2,1.8c-0.1,0.2-0.2,0.7-0.4,1.2c-0.1,0.4-0.3,0.8-0.3,0.9c0,0,0,0,0,0c0,0.1,0,0.1,0,0.2
		c0,0.2-0.1,0.5-0.1,0.7l0,0l0,0c0.2,0,1.4-0.3,1.8-0.6c0.1-0.2,0.1-0.6,0.2-1c0.1-0.6,0.3-1.2,0.4-1.7c0.1-0.3,0.1-0.5,0.1-0.6
		c0.1-0.4,0-0.6-0.1-0.9c-0.1-0.2-0.1-0.3,0-0.5c0.1-0.3,0.3-0.6,0.6-0.7c0.4-0.2,0.7-0.5,1-0.8c0.2-0.3,0.4-0.4,0.7-0.3
		c0.2,0,0.3,0.2,0.5,0.3c0.1,0.1,0.1,0.1,0.2,0.2l0.1,0.1c1.8,1.4,6.7,4.9,5.9,8.5c0,0-0.2,0.9-0.6,1.1c-0.1,0.1-0.2,0-0.3,0
		c-0.1,0-0.2,0-0.3,0.1c-0.3,0.3-0.6,0.5-1,0.8c-0.4,0.3-0.8,0.6-1.1,0.9c-0.1,0.1-0.3,0.2-0.5,0.1c-0.2-0.1-0.4-0.3-0.5-0.5
		c0-0.1,0-0.3,0-0.4c0.1-0.2,0.2-0.5,0.4-0.7c0.4-0.3,0.9-0.8,1.2-1c0.1-0.1,0.2-0.2,0.3-0.2c0.2-0.2,0.3-0.4,0.4-0.7
		c0.1-0.3,0.1-0.6-0.1-0.9c-0.4-1-3.6-3.2-5.1-3.8c0,0-0.1,0-0.1,0c-0.2,0-0.3,0-0.5,0.1c-0.1,0.1-0.2,0.2-0.2,0.3c0,0,0,0,0,0
		c0,0,0,0.1-0.1,0.3c0,0.2-0.1,0.5-0.2,0.8c-0.1,0.3-0.2,0.7-0.2,1c0,0.2-0.1,0.3-0.1,0.4c0,0.5,0,0.8,0.2,1
		c0.1,0.1,0.2,0.4,0.1,0.6c0,0,0,0,0,0c-0.1,0.2-0.2,0.4-0.5,0.5c-0.2,0.1-0.7,0.2-1.2,0.4c-0.7,0.3-1.6,0.6-2,0.7l0,0l0,0
		c0,0-0.1,0-0.1,0c-0.1,0-0.2,0.1-0.3,0.1c-0.3-0.1-0.3-0.4-0.3-0.5c0-0.3-0.1-0.3-0.2-0.6c0-0.1-0.1-0.2-0.2-0.4
		c-0.1-0.2-0.1-0.3,0-0.4c0-0.2,0.1-0.3,0.2-0.4c0-0.1,0.1-0.1,0.1-0.2c0,0,0,0,0,0c0-0.1,0-0.2,0-0.4l0-0.1c0-0.3,0-0.9,0-1.5
		c0-0.7,0-1.6-0.1-1.9l0-0.1C91.9,99.8,91.8,99.5,91.9,99.2 M91.5,99.1c-0.1,0.4,0,0.7,0.1,1.1l0,0.1c0.1,0.3,0.1,1.2,0,1.8
		c0,0.7,0,1.2,0,1.6l0,0c0,0.1,0,0.2,0,0.3c0,0,0,0-0.1,0.1c-0.1,0.1-0.3,0.3-0.3,0.6c0,0.2,0,0.4,0.1,0.7c0.1,0.2,0.2,0.3,0.2,0.4
		c0.1,0.2,0.1,0.2,0.1,0.4c0.1,0.6,0.4,0.8,0.6,0.8c0.3,0.1,0.5-0.1,0.6-0.1c0,0,0,0,0,0c0.5-0.1,1.3-0.4,2.1-0.7
		c0.5-0.2,0.9-0.3,1.1-0.4c0.4-0.1,0.6-0.4,0.8-0.7c0,0,0,0,0-0.1c0.1-0.3,0-0.7-0.2-1c-0.1-0.1-0.1-0.3-0.1-0.8c0,0,0-0.1,0.1-0.3
		c0.1-0.3,0.2-0.7,0.2-1c0.1-0.3,0.1-0.6,0.2-0.8c0-0.1,0-0.2,0.1-0.3c0,0,0,0,0,0c0,0,0.1,0,0.1,0c0,0,0,0,0.1,0
		c1.8,0.7,4.6,2.8,4.8,3.5c0.1,0.3,0.1,0.5,0,0.7c0,0.2-0.1,0.4-0.2,0.5c-0.1,0.1-0.1,0.1-0.3,0.2c-0.3,0.3-0.8,0.7-1.2,1
		c-0.3,0.2-0.5,0.5-0.6,0.9c0,0.2,0,0.4,0,0.6c0.1,0.4,0.4,0.7,0.8,0.8c0.3,0.1,0.6,0,0.8-0.2c0.3-0.3,0.7-0.6,1.1-0.8
		c0.4-0.3,0.7-0.5,1-0.8c0.1,0,0.3,0,0.5-0.1c0.5-0.2,0.7-1,0.8-1.4c0.9-3.8-4.2-7.5-6.1-8.9l-0.1-0.1l0,0l0,0c0,0-0.1-0.1-0.1-0.1
		c-0.1-0.2-0.3-0.4-0.7-0.5c-0.3-0.1-0.7,0-1.1,0.4c-0.3,0.3-0.5,0.6-0.8,0.7c-0.4,0.2-0.7,0.5-0.8,1c-0.1,0.2,0,0.5,0,0.7
		c0.1,0.3,0.1,0.4,0.1,0.7c0,0.1-0.1,0.3-0.1,0.6l0,0c-0.1,0.5-0.3,1.1-0.4,1.7c-0.1,0.3-0.1,0.6-0.2,0.8c-0.3,0.1-0.7,0.3-1,0.4
		c0,0,0-0.1,0-0.1l0,0c0-0.1,0-0.1,0-0.2c0-0.1,0.2-0.6,0.3-0.9c0.2-0.5,0.4-1,0.4-1.3c0.2-1,0.2-1.5,0.2-1.9c0-0.1,0-0.3,0-0.4l0,0
		l0,0c0,0,0,0,0-0.1c0.1-0.2,0.2-0.5,0.3-0.7c0-0.1,0.1-0.1,0.1-0.2c0-0.1,0.1-0.1,0.1-0.2c0.1-0.2,0-0.5-0.1-0.7
		c-0.1-0.2-0.3-0.4-0.6-0.5c-0.4-0.1-0.8,0.1-0.9,0.5c-0.2,0.5-0.7,0.9-1,1.3c-0.2,0.2-0.4,0.4-0.6,0.6
		C91.7,98.6,91.6,98.9,91.5,99.1"/>
	<path class="st1" d="M99.5,132.3c-0.3,0.3-0.6,0.5-0.9,0.5c-0.1,0-0.1,0-0.2,0c-0.2-0.1-0.3-0.2-0.4-0.3c-0.1-0.1-0.1-0.2-0.1-0.3
		c-0.1-0.1-0.3-0.2-0.8-0.3c-0.2,0-0.4-0.1-0.7-0.1c0,0.1-0.1,0.2-0.1,0.4c-0.2,0.4-0.4,0.6-0.7,0.7c-0.1,0-0.2,0-0.4,0.3
		c-2,2.4-5.6,3.1-8.1,2.5c-0.1,0-0.3-0.1-0.4-0.1c-0.1,0-0.1,0-0.1,0c-0.3-0.1-0.4,0-0.6,0.1c-0.1,0.1-0.3,0.1-0.4,0.1
		c-0.2-0.1-0.4-0.2-0.4-0.5c0-0.3-0.2-0.9-0.7-2.1c0-0.1-0.1-0.2,0-0.4c0.1-0.3,0.3-0.5,0.6-0.7c0,0,0.2-0.1,0.2-0.2
		c0-0.4,0.2-1.5,0.5-2.5l-0.1,0c-0.4-0.2-0.8-0.3-1.1-0.4c-0.2-0.1-0.4-0.1-0.6,0c-0.1,0-0.2,0-0.3,0.1c-0.2,0.1-0.4,0.1-0.8,0.1
		c-0.3-0.1-0.4-0.3-0.4-0.4c0-0.1,0-0.1,0-0.2c0-0.1,0.1-0.2,0.2-0.3c0,0,0,0,0.1,0c0-0.1,0-0.2,0-0.4c0-0.1,0-0.1,0-0.2
		c0-0.1,0-0.2,0-0.3c0-0.2,0.1-0.4,0.3-0.5c0.3-0.2,0.6-0.1,0.7-0.1c0.1,0,0.2,0.1,0.4,0.1c0.1,0,0.2,0.1,0.3,0.1l0.1,0
		c0.6,0.2,1.1,0.3,1.7,0.5c0.2-0.7,0.4-1.3,0.6-1.8c0-0.1,0-0.1,0.1-0.2c0.1-0.3,0-0.5,0-0.8c0-0.2,0-0.4,0-0.6
		c0-0.2,0.1-0.3,0.3-0.5c0.2-0.1,0.3-0.3,0.5-0.5c0.3-0.3,0.7-0.7,1.2-0.9c0.1,0,0.2,0,0.4,0c0.2,0.1,0.4,0.2,0.5,0.3
		c0.1,0.1,0.3,0.3,0.5,0.4c0.1,0,0.4,0.1,0.8,0.3c2.3,0.7,3.5,1.2,3.9,1.7c0.6,0.9,0.8,1.9,1,3c0.1,0.5,0.2,1,0.3,1.5
		c0.2,0.2,0.4,0.4,0.4,0.8c0.2,0,0.4,0.1,0.6,0.1l0.1,0c0.1,0,0.4,0,0.6,0c0.4,0,0.7,0,1.1,0.1c0.2,0,0.4,0.1,0.5,0.3
		c0.2,0.2,0.4,0.4,0.3,0.9l0,0c0,0.1,0,0.1-0.1,0.2c0,0.1,0,0.1,0,0.2c0,0,0,0.1,0,0.1l0.1,0.3L99.5,132.3z M87.6,127.8
		c0.1,0,0.2,0,0.2,0c0.1,0,0.2,0,0.3,0.1c0.2,0,0.3,0.1,0.5,0.1c0.2,0.1,0.4,0.1,0.7,0.2c0.3,0.1,0.6,0.1,1,0.2c0.1,0,0.2,0,0.4,0.1
		c0.4,0.1,0.7,0.2,1,0.3c0.3,0.1,0.6,0.2,0.9,0.3l0,0c0.5,0.1,1.1,0.2,1.8,0.4l0.2,0c0-1.1-0.9-2.8-1.1-2.9c-0.8-0.4-2-0.9-3.1-1.1
		c-0.7-0.2-1.4-0.2-1.9-0.1C88.4,125.5,88.1,126.2,87.6,127.8C87.5,127.8,87.6,127.8,87.6,127.8 M86.8,132.6
		c0.1,0.1,0.3,0.2,0.5,0.2c1.4,0.3,4.3-0.1,6.1-1.4c-0.8-0.1-1.4-0.2-2-0.3c-0.1,0-0.2,0-0.3-0.1c-0.6-0.1-1.2-0.3-1.8-0.5
		c-0.6-0.2-1.2-0.4-1.8-0.5c-0.2,0-0.4-0.1-0.5-0.1c0,0-0.1,0-0.1,0c0,0.1-0.1,0.3-0.1,0.4c0,0.1,0,0.2,0,0.2
		c0.1,0.2,0.1,0.3,0.2,0.5c0.1,0.3,0.3,0.6,0.2,1c-0.1,0.2-0.2,0.4-0.4,0.6C86.8,132.5,86.8,132.5,86.8,132.6 M114.9,59.7
		c-0.1,0.2-0.3,0.5-0.6,0.7c-0.8,0.7-2.5,1.2-4.3,1.7c-1.8,0.5-4,1.2-4.4,1.8c0,0,0,0.1,0,0.1c-0.1,0.5,0.1,1.4,0.3,1.6
		c0.5,0.2,1.3,0.4,1.9,0.5c0.3,0.1,0.7,0.2,1,0.2l0.1,0c0.3,0.1,0.7,0.2,1,0.2c0.5,0.1,0.8,0.2,1,0.3c0.3,0.1,0.5,0.4,0.5,0.7
		c0,0,0,0.1,0,0.1c-0.1,0.3-0.3,0.5-0.6,0.6l0,0c-0.1,0-0.8,0.5-1,0.7c-0.4,0.4-0.7,0.6-1.1,0.5c-0.3-0.1-0.6-0.3-0.9-0.5
		c-0.2-0.1-1.3-0.5-4.6-1.2c-0.5-0.1-0.8-0.2-1-0.2l-0.1,0c-0.1,0-0.1,0-0.2,0c-0.1,0.5-0.5,0.7-0.9,0.6c-0.2,0-0.3-0.2-0.4-0.3
		c-0.1-0.1-0.1-0.3-0.1-0.6c0,0,0,0,0,0c0-0.1-0.1-0.5-0.6-1.9c0,0,0-0.1,0-0.1l0,0l-0.1-0.2c0-0.1,0-0.3,0-0.4
		c0-0.2,0.1-0.3,0.2-0.4c0.2-0.2,0.4-0.3,0.6-0.2c0.1,0,0.1,0,0.2,0.1c-0.1-0.4-0.2-0.8-0.2-1.2l0,0c0-0.2,0.1-0.4,0.1-0.6
		c0.1-0.4,0.2-0.7,0.3-1.1c0.1-0.3,0.2-0.6,0.2-0.9c0.1-0.2,0.1-0.4,0.1-0.5c0-0.1,0-0.2,0-0.3c0-0.2-0.1-0.4,0-0.6
		c0-0.1,0-0.1,0.1-0.2l0-0.1l0.1-0.1c0.3-0.3,0.6-0.5,0.9-0.6c0.2-0.1,0.3-0.2,0.4-0.3l0.2-0.1l0.2,0.1c0.4,0.1,0.6,0.4,0.7,0.6
		c0.2,0.3,0.5,0.6,1.2,0.8l0.3,0.1l0,0.3c0,0.6,0.1,1.4,0.2,2c0,0,0,0,0,0c0.3-0.6,0.5-0.8,1.3-0.7c0.5,0,5-1.9,5.8-3
		c0.3-0.4,0.6-0.8,1-0.7c0.3,0.1,0.5,0.3,0.4,0.8c0,0.5,0.2,1.1,0.3,1.3C114.9,59.2,115,59.4,114.9,59.7 M102,63.4
		c0.5,1.3,1.1,1.9,2.2,2.2c0,0,0,0,0.1,0c-0.1-0.9-0.2-2.1-0.2-3l0,0c0-0.5,0-0.8-0.1-1.1c0-0.4-0.7-0.9-1.2-1c-0.1,0-0.1,0-0.1,0
		c-0.1,0.1-0.2,0.2-0.2,0.5c-0.1,0.3-0.1,0.7-0.1,1c0,0.1,0,0.2,0.1,0.3c0,0.2,0.1,0.4,0,0.6l0,0c0,0,0,0,0,0.1
		C102.4,63.1,102.2,63.2,102,63.4C102,63.4,102,63.4,102,63.4"/>
	<path class="st4" d="M82.5,128.4c0-0.1,0.1-0.1,0.1-0.2c0,0,0.1,0,0.1-0.1c0,0,0,0,0-0.1c0-0.1,0-0.2,0-0.5c0-0.1,0-0.1,0-0.1
		c0-0.1,0-0.2,0-0.3c0-0.1,0.1-0.3,0.2-0.4c0.2-0.1,0.4-0.1,0.6-0.1c0.1,0,0.2,0.1,0.3,0.1c0.1,0,0.2,0.1,0.3,0.1l0.1,0
		c0.6,0.2,1.3,0.4,1.9,0.6c0.2-0.7,0.4-1.4,0.6-2c0-0.1,0-0.1,0.1-0.2c0.1-0.3,0.1-0.6,0-0.9c0-0.2,0-0.4,0-0.6
		c0-0.1,0.1-0.3,0.2-0.4c0.2-0.1,0.3-0.3,0.5-0.5c0.3-0.3,0.6-0.7,1.1-0.9c0.1,0,0.2,0,0.3,0c0.2,0,0.3,0.2,0.4,0.3
		c0.2,0.2,0.3,0.3,0.6,0.4c0.1,0,0.4,0.1,0.8,0.3c2.1,0.7,3.5,1.1,3.8,1.6c0.6,0.9,0.8,1.9,1,2.9c0.1,0.5,0.2,1.1,0.4,1.6
		c0.3,0.2,0.4,0.5,0.4,0.8c0.2,0.1,0.5,0.1,0.7,0.2l0.1,0c0.1,0,0.4,0,0.7,0c0.3,0,0.7,0,1,0.1c0.2,0,0.3,0.1,0.4,0.2
		c0.3,0.3,0.2,0.6,0.2,0.7c0,0,0,0,0,0c0,0.1,0,0.1-0.1,0.2c0,0.1,0,0.1-0.1,0.2c0,0.1,0,0.1,0,0.2l0.1,0.1l-0.1,0.1
		c-0.2,0.3-0.5,0.4-0.8,0.4c0,0-0.1,0-0.1,0c-0.1,0-0.2-0.1-0.2-0.2c0-0.1-0.1-0.2,0-0.3c0,0,0,0,0,0c0,0,0,0,0,0c0,0,0,0,0,0
		c0,0-0.2-0.2-1-0.4c-0.3-0.1-0.5-0.1-0.9-0.2c0,0,0,0,0,0.1c0,0.1-0.1,0.3-0.1,0.5c-0.2,0.4-0.3,0.5-0.6,0.6c-0.1,0-0.2,0-0.5,0.4
		c-2,2.3-5.5,3-7.9,2.4c-0.1,0-0.3-0.1-0.4-0.1c-0.1,0-0.1,0-0.2,0c-0.4-0.1-0.5,0-0.8,0.2c-0.1,0-0.2,0.1-0.3,0
		c-0.1,0-0.3-0.1-0.3-0.3c-0.1-0.4-0.3-1.1-0.7-2.2c0-0.1,0-0.2,0-0.2c0-0.2,0.3-0.4,0.5-0.6c0.1-0.1,0.2-0.2,0.3-0.3
		c0-0.3,0.2-1.4,0.5-2.7c0,0,0,0,0-0.1c-0.1,0-0.2-0.1-0.2-0.1c-0.4-0.2-0.8-0.3-1.1-0.4c-0.3-0.1-0.5-0.1-0.7,0
		c-0.2,0-0.3,0.1-0.3,0.1c-0.2,0.1-0.4,0.1-0.7,0.1l0,0l0,0c-0.1,0-0.2-0.2-0.2-0.3C82.5,128.5,82.5,128.4,82.5,128.4 M86.9,131.7
		c0,0.2-0.2,0.4-0.4,0.6c0,0.1,0.1,0.3,0.2,0.4c0.2,0.1,0.4,0.2,0.6,0.3c1.6,0.4,4.9-0.1,6.6-1.8c-0.9-0.1-1.7-0.3-2.4-0.4
		c-0.1,0-0.2,0-0.3-0.1c-0.6-0.1-1.2-0.3-1.8-0.5c-0.6-0.2-1.2-0.4-1.8-0.5c-0.2,0-0.4-0.1-0.6-0.1c-0.1,0-0.1,0-0.2,0
		c0,0,0,0-0.1,0c-0.1,0.2-0.1,0.4-0.1,0.6c0,0.1-0.1,0.2-0.1,0.3c0.1,0.2,0.1,0.4,0.2,0.5C86.9,131.2,87,131.4,86.9,131.7
		 M94.8,129.8c0.1-1.2-0.9-3.2-1.2-3.3c-0.9-0.4-2-0.9-3.1-1.2c-0.8-0.2-1.4-0.2-2-0.1c-0.1,0.1-0.6,0.8-1.2,2.7
		c0.1,0,0.2,0.1,0.3,0.1c0.1,0,0.2,0,0.2,0c0.1,0,0.2,0,0.3,0.1c0.2,0,0.3,0.1,0.4,0.1c0.2,0.1,0.4,0.2,0.7,0.2
		c0.3,0.1,0.6,0.1,1,0.2c0.1,0,0.2,0,0.4,0.1c0.3,0.1,0.7,0.2,1,0.3c0.3,0.1,0.6,0.2,1,0.3l0,0c0.5,0.1,1.1,0.2,1.8,0.4L94.8,129.8
		 M100,64.6c0-0.1,0.1-0.3,0.2-0.4c0.1-0.1,0.3-0.2,0.4-0.1c0.1,0,0.2,0.1,0.3,0.3c0.1,0.3,0.3,0.4,0.5,0.5
		c-0.2-0.3-0.6-1.2-0.6-2.1l0,0l0,0c0-0.2,0.1-0.4,0.1-0.5c0.1-0.4,0.2-0.7,0.3-1.1c0.1-0.3,0.2-0.6,0.2-0.9
		c0.1-0.2,0.1-0.4,0.1-0.6c0-0.1,0-0.2,0-0.3c0-0.2-0.1-0.3,0-0.6c0-0.1,0-0.1,0.1-0.2l0-0.1l0,0c0.3-0.3,0.6-0.5,0.9-0.6
		c0.2-0.1,0.3-0.2,0.4-0.3l0.1-0.1l0.1,0.1c0.3,0.1,0.5,0.3,0.7,0.5c0.2,0.3,0.5,0.6,1.3,0.9l0.2,0.1l0,0.2c0,0.6,0.2,1.5,0.3,2.1
		l0,0.1l-0.1,0.1c-0.1,0.1-0.1,0.3-0.2,0.5c0,0,0,0.1,0,0.1c0.2-0.3,0.5-0.6,0.6-0.9c0.3-0.5,0.5-0.7,1.1-0.6c0.6,0,5.2-1.9,6-3.1
		c0.3-0.5,0.5-0.7,0.8-0.7l0,0c0.3,0.1,0.3,0.5,0.3,0.6c0,0.5,0.2,1.2,0.3,1.4c0.1,0.2,0.2,0.4,0.2,0.5c0,0.2-0.2,0.4-0.5,0.6
		c-0.8,0.6-2.5,1.1-4.2,1.6c-1.9,0.6-4.1,1.2-4.5,1.9c0,0.1,0,0.1-0.1,0.2c-0.1,0.6,0.2,1.7,0.3,1.8c0.5,0.2,1.3,0.4,1.9,0.5
		c0.4,0.1,0.7,0.2,1.1,0.2c0.3,0.1,0.7,0.2,1,0.2c0.5,0.1,0.8,0.2,1,0.3c0.2,0.1,0.4,0.2,0.4,0.5c0,0,0,0.1,0,0.1
		c-0.1,0.2-0.2,0.4-0.5,0.5l0,0l0,0c-0.2,0-0.9,0.6-1.1,0.8c-0.3,0.4-0.6,0.5-1,0.4c-0.3-0.1-0.5-0.3-0.8-0.5
		c-0.2-0.1-1.5-0.5-4.7-1.3c-0.5-0.1-0.9-0.2-1-0.2l0,0c-0.4-0.1-0.4,0-0.4,0.1c-0.1,0.4-0.4,0.5-0.6,0.5c-0.1,0-0.2-0.1-0.3-0.2
		c-0.1-0.1-0.1-0.2-0.1-0.4c0,0,0,0,0,0c0-0.1-0.1-0.6-0.6-2c0-0.1-0.1-0.2-0.1-0.3l0,0C100,64.8,100,64.7,100,64.6 M102.2,62.8
		C102.2,62.8,102.2,62.9,102.2,62.8c-0.1,0.2-0.2,0.3-0.3,0.4c-0.1,0-0.2,0.1-0.2,0.2c0.6,1.5,1.2,2.2,2.4,2.4c0.1,0,0.2,0,0.4,0.1
		c-0.1-0.9-0.2-2.3-0.2-3.3c0-0.5,0-0.9-0.1-1.2c0-0.6-0.8-1.1-1.3-1.2c-0.1,0-0.2,0-0.3,0c-0.2,0.1-0.3,0.4-0.3,0.7
		c-0.1,0.3-0.1,0.7-0.1,1c0,0.1,0,0.3,0.1,0.4C102.2,62.4,102.3,62.6,102.2,62.8 M82.1,128.3c0,0.1,0,0.2,0,0.3
		c0,0.2,0.2,0.5,0.6,0.6l0,0l0,0c0.5,0.1,0.7,0,0.9-0.1c0.1,0,0.2-0.1,0.3-0.1c0.2,0,0.3,0,0.5,0c0.3,0.1,0.6,0.2,1,0.3
		c-0.2,0.9-0.4,1.9-0.4,2.3c-0.1,0.1-0.1,0.1-0.2,0.1c-0.3,0.2-0.5,0.5-0.6,0.8c0,0.2,0,0.3,0,0.5c0.5,1.2,0.6,1.8,0.6,2.1
		c0,0.3,0.3,0.6,0.6,0.6c0.2,0,0.4,0,0.6-0.1c0.3-0.2,0.3-0.2,0.5-0.1c0,0,0.1,0,0.1,0c0.1,0,0.3,0.1,0.4,0.1
		c2.5,0.6,6.2-0.1,8.3-2.6c0.2-0.2,0.2-0.2,0.3-0.2c0.4-0.1,0.7-0.3,0.9-0.8c0-0.1,0.1-0.2,0.1-0.2c0.2,0,0.3,0.1,0.5,0.1
		c0.4,0.1,0.6,0.2,0.7,0.2c0,0.1,0,0.2,0.1,0.3c0.1,0.2,0.3,0.3,0.5,0.4c0.1,0,0.2,0,0.2,0c0.4,0,0.7-0.2,1-0.6l0.1-0.1l0.2-0.2
		l-0.1-0.2l0-0.1c0,0,0-0.1,0-0.1c0-0.1,0.1-0.1,0.1-0.2l0,0c0.1-0.6-0.1-0.9-0.3-1.1c-0.2-0.1-0.4-0.2-0.6-0.3
		c-0.3-0.1-0.7-0.1-1.1-0.1c-0.2,0-0.5,0-0.6,0l-0.1,0c-0.1,0-0.3-0.1-0.4-0.1c-0.1-0.3-0.2-0.5-0.4-0.7c-0.1-0.5-0.2-1-0.3-1.4
		c-0.2-1.1-0.4-2.1-1-3.1c-0.3-0.5-1.3-0.9-4-1.8c-0.3-0.1-0.7-0.2-0.8-0.3c-0.2-0.1-0.3-0.2-0.5-0.4c-0.1-0.1-0.3-0.3-0.6-0.4
		c-0.2,0-0.3,0-0.5,0c-0.6,0.2-0.9,0.6-1.2,1c-0.2,0.2-0.3,0.3-0.4,0.4c-0.2,0.2-0.3,0.4-0.4,0.6c-0.1,0.2,0,0.5,0,0.7
		c0,0.2,0,0.5,0,0.7c0,0.1,0,0.1,0,0.2c-0.2,0.5-0.3,1-0.5,1.6c-0.5-0.2-1-0.3-1.5-0.4l-0.1,0c-0.1,0-0.2-0.1-0.3-0.1
		c-0.1,0-0.3-0.1-0.4-0.1c-0.4-0.1-0.7,0-0.9,0.1c-0.2,0.1-0.3,0.3-0.4,0.6c0,0.1,0,0.3,0,0.4c0,0,0,0.1,0,0.2c0,0.1,0,0.2,0,0.3
		C82.3,128,82.2,128.1,82.1,128.3 M87,130.3c0,0,0-0.1,0-0.2c0-0.1,0-0.1,0-0.2c0.1,0,0.3,0.1,0.5,0.1c0.5,0.1,1.2,0.3,1.7,0.5
		c0.6,0.2,1.2,0.4,1.8,0.5c0.1,0,0.2,0.1,0.3,0.1c0.5,0.1,0.9,0.2,1.5,0.3c-1.7,1.1-4.2,1.4-5.5,1.1c-0.2,0-0.3-0.1-0.4-0.1
		c0.2-0.2,0.3-0.4,0.3-0.6c0.1-0.4-0.1-0.8-0.2-1.1C87.1,130.6,87,130.5,87,130.3 M94.4,129.3c-0.7-0.1-1.2-0.2-1.7-0.4l0,0
		c-0.3-0.1-0.6-0.2-0.9-0.3c-0.3-0.1-0.7-0.3-1.1-0.3c-0.1,0-0.3-0.1-0.4-0.1c-0.4,0-0.7-0.1-0.9-0.2c-0.3-0.1-0.5-0.1-0.6-0.2
		c-0.2-0.1-0.3-0.1-0.5-0.2c-0.1,0-0.2,0-0.3-0.1c0,0-0.1,0-0.1,0c0.4-1.3,0.8-1.9,0.9-2.1c0.5,0,1.1,0,1.8,0.2
		c1.1,0.2,2.2,0.7,3,1.1C93.6,127.1,94.2,128.4,94.4,129.3 M99.6,64.5c0,0.2,0,0.3,0,0.5l0.1,0.4l0,0c0.4,1.2,0.5,1.6,0.5,1.7
		c-0.1,0.3,0,0.6,0.1,0.7c0.1,0.2,0.3,0.4,0.6,0.4c0.4,0.1,0.9-0.1,1.1-0.6l0,0c0.1,0,0.5,0.1,1,0.2c3.6,0.8,4.4,1.1,4.5,1.2
		c0.3,0.2,0.6,0.5,0.9,0.6c0.5,0.1,0.9-0.1,1.3-0.5c0.2-0.2,0.8-0.6,0.9-0.6l0,0l0,0c0.4-0.1,0.7-0.4,0.8-0.8c0-0.1,0-0.1,0-0.2
		c0-0.4-0.2-0.7-0.6-0.9c-0.3-0.1-0.6-0.2-1.1-0.3c-0.3-0.1-0.7-0.1-1-0.2l0,0c-0.4-0.1-0.7-0.2-1.1-0.2c-0.5-0.1-1.3-0.3-1.8-0.5
		c-0.1-0.3-0.3-1-0.2-1.4c0,0,0-0.1,0-0.1c0.3-0.6,2.7-1.3,4.3-1.7c1.8-0.5,3.5-1,4.4-1.7c0.4-0.3,0.6-0.6,0.7-0.9
		c0.1-0.3-0.1-0.6-0.2-0.8c-0.1-0.2-0.3-0.8-0.3-1.2c0-0.8-0.4-1-0.6-1c-0.6-0.1-0.9,0.4-1.2,0.8c-0.7,1-5,2.8-5.6,2.9
		c-0.6-0.1-1,0.1-1.2,0.4c-0.1-0.5-0.1-1-0.2-1.4l0-0.2l0-0.3l-0.3-0.1l-0.2-0.1c-0.7-0.2-0.9-0.5-1.1-0.8c-0.2-0.2-0.4-0.5-0.8-0.7
		l-0.1-0.1l-0.2-0.1l-0.2,0.1l-0.1,0.1c-0.1,0.1-0.3,0.2-0.4,0.3c-0.3,0.2-0.6,0.4-0.9,0.7l0,0l-0.1,0.1l0,0.1l0,0.1
		c0,0.1-0.1,0.2-0.1,0.2c-0.1,0.3,0,0.5,0,0.7c0,0.1,0,0.2,0,0.2c0,0.1,0,0.3-0.1,0.5c-0.1,0.3-0.1,0.5-0.2,0.9
		c-0.1,0.4-0.2,0.7-0.3,1.1c0,0.2-0.1,0.4-0.1,0.6l0,0l0,0l0,0l0,0c0,0.3,0,0.6,0.1,0.9c-0.2,0-0.5,0.1-0.7,0.3
		C99.7,64.1,99.6,64.3,99.6,64.5 M102.6,62.9c0.1-0.3,0-0.5,0-0.7c0-0.1,0-0.2,0-0.3c0-0.3,0-0.6,0.1-1c0-0.2,0.1-0.3,0.1-0.3
		c0.4,0.1,1,0.5,1,0.8c0,0.3,0,0.7,0.1,1.1c0,0.8,0.1,1.9,0.2,2.8c-0.8-0.2-1.3-0.8-1.8-1.9C102.4,63.4,102.5,63.2,102.6,62.9
		C102.6,63,102.6,62.9,102.6,62.9"/>
	<path class="st1" d="M108.6,79.3c-0.1,0.3-0.3,0.5-0.6,0.6c-0.1,0.1-0.5,0.7-0.7,0.9c-0.1,0.2-0.2,0.3-0.3,0.5
		c-0.3,0.5-0.8,0.4-0.9,0.4c-0.3-0.1-0.6-0.3-0.8-0.7c-0.1-0.1-0.7-0.3-3.3-0.9c-0.9-0.2-1.8-0.4-2.3-0.5c0,0-0.4-0.1-0.4-0.1
		c-0.1,0-0.1,0-0.1,0c-0.1,0.2-0.2,0.4-0.4,0.5C98.5,80,98.3,80,98.2,80c-0.3-0.1-0.6-0.4-0.5-1c0.1-0.6-0.1-1.2-0.4-1.6
		c-0.1-0.2-0.2-0.5-0.2-0.7l0,0c0-0.1,0-0.2,0-0.3c0-0.2,0.2-0.4,0.3-0.5c0.2-0.2,0.4-0.2,0.6-0.2c0.1-0.5,0.2-1,0.3-1.6
		c0.2-0.7,0.3-1.2,0.4-1.4c0-0.1,0.1-0.1,0.1-0.2c0-0.2,0-0.3,0-0.5c0-0.2,0-0.3,0-0.5c0.1-0.3,0.5-0.8,0.8-0.9
		c0.4-0.2,0.9-0.2,1.5-0.2c0.2,0,0.4,0,0.6,0c0,0,0.1,0,0.1,0c0.3,0.1,0.5,0.4,0.5,0.7c0,0.1,0,0.2,0,0.2c-0.1,0.3-0.3,0.5-0.5,0.6
		c-0.7,0.2-1.3,0.4-1.6,0.9c-0.2,0.4-0.4,1-0.6,1.8c-0.2,0.9-0.3,1.7-0.2,2c0.1,0.1,0.7,0.4,1.5,0.6c0.3,0.1,0.5,0.1,0.6,0.1
		c0.1-0.4,0.4-1.2,0.5-1.9c0.1-0.5,0.1-0.7,0.1-0.8c0-0.1,0-0.1-0.1-0.2c-0.1-0.1-0.3-0.3-0.2-0.8l0,0c0.2-0.6,0.6-0.7,0.9-0.6
		c0.1,0,0.2,0.1,0.4,0.2l0,0c0.3,0.2,0.7,0.4,0.8,0.5c0.2,0.1,0.4,0.2,0.4,0.3c0.1,0.1,0.1,0.3,0.1,0.5c-0.1,0.4-0.5,0.6-0.8,0.5
		c-0.1,0-0.1,0-0.2,0c0,0,0,0.1,0,0.1c-0.2,1-0.4,2.1-0.4,2.4c0.1,0,0.4,0.3,1.4,0.5c1.2,0.3,2,0.3,2.2,0.2c0.3-0.3,0.6-1.1,0.8-2.2
		c0.2-1,0.4-2,0.3-2.5c-0.1-0.8-0.2-1.1-0.9-1.5l0,0c-0.3-0.2-0.4-0.5-0.3-0.8c0,0,0-0.1,0-0.1c0.1-0.3,0.4-0.4,0.7-0.4
		c0.3,0.1,1,0.3,1.5,0.5c0.4,0.2,1.1,0.9,0.9,1.5l0,0l0,0c-0.1,0.3-0.3,0.4-0.4,0.5c-0.1,1.3-0.5,3-0.6,3.6
		c-0.1,0.5-0.2,0.9-0.3,1.2c0,0.2-0.1,0.3-0.2,0.4c0.2,0.1,0.3,0.4,0.3,0.6C108.6,79.2,108.6,79.3,108.6,79.3"/>
	<path class="st4" d="M97.3,76.5c0-0.2,0.1-0.3,0.3-0.4c0.2-0.1,0.3-0.2,0.5-0.2c0.1,0,0.1,0.1,0.2,0.1c0.1-0.5,0.2-1.2,0.3-1.9
		c0.1-0.6,0.3-1.2,0.4-1.4c0-0.1,0.1-0.2,0.1-0.2c0-0.2,0-0.4,0-0.6c0-0.2,0-0.3,0-0.5c0.1-0.2,0.4-0.6,0.7-0.8
		c0.3-0.2,0.8-0.2,1.4-0.2c0.2,0,0.4,0,0.6,0c0,0,0.1,0,0.1,0c0.2,0,0.4,0.3,0.4,0.5c0,0.1,0,0.1,0,0.2c0,0.2-0.2,0.4-0.4,0.4
		c-0.8,0.2-1.4,0.4-1.7,1c-0.2,0.4-0.5,1.1-0.6,1.8c-0.2,0.9-0.3,1.8-0.1,2.1c0.1,0.1,0.8,0.4,1.7,0.6c0.5,0.1,0.7,0.1,0.8,0.1
		c0.1-0.3,0.4-1.3,0.6-2c0.1-0.4,0.2-0.7,0.2-0.8c0-0.2-0.1-0.2-0.1-0.3c-0.1-0.1-0.3-0.3-0.2-0.6c0,0,0,0,0,0
		c0.1-0.4,0.4-0.5,0.7-0.5c0.1,0,0.2,0.1,0.3,0.1l0,0l0,0c0.2,0.2,0.7,0.5,0.9,0.5c0.2,0,0.3,0.1,0.3,0.2c0.1,0.1,0.1,0.2,0.1,0.3
		c-0.1,0.3-0.3,0.4-0.6,0.4c-0.2,0-0.4,0-0.4,0c0,0.1,0,0.2-0.1,0.3c-0.2,0.8-0.4,2.2-0.3,2.5c0,0.1,0.4,0.3,1.5,0.6
		c1.2,0.3,2.2,0.3,2.4,0.2c0.4-0.4,0.7-1.3,0.9-2.3c0.2-1,0.4-2.1,0.3-2.6c-0.1-0.9-0.3-1.3-1-1.6l0,0l0,0c-0.2-0.1-0.3-0.3-0.2-0.5
		c0,0,0,0,0-0.1c0.1-0.2,0.3-0.3,0.5-0.2c0.3,0.1,1,0.3,1.4,0.5c0.4,0.2,0.9,0.8,0.8,1.3c0,0,0,0,0,0l0,0l0,0
		c-0.1,0.3-0.2,0.4-0.4,0.4c0,0,0,0,0,0c-0.1,1.1-0.4,2.6-0.6,3.7c-0.1,0.5-0.2,0.9-0.3,1.2c-0.1,0.2-0.1,0.3-0.2,0.4
		c0,0,0,0.1-0.1,0.1c0,0,0,0,0,0c0.2,0.1,0.4,0.3,0.4,0.5c0,0,0,0.1,0,0.1c0,0.2-0.2,0.4-0.5,0.4c-0.2,0.1-0.6,0.7-0.8,1
		c-0.1,0.2-0.2,0.3-0.3,0.4c-0.3,0.4-0.6,0.4-0.7,0.3c-0.3-0.1-0.5-0.3-0.7-0.7c-0.1-0.1-0.6-0.3-3.4-1c-0.9-0.2-1.9-0.4-2.3-0.5
		c-0.2,0-0.3-0.1-0.4-0.1c-0.1,0-0.3-0.1-0.3-0.1c0,0,0,0,0,0c0,0,0,0,0,0c0,0,0,0,0,0c0,0.2-0.1,0.3-0.3,0.4
		c-0.1,0.1-0.3,0.1-0.4,0.1c-0.2-0.1-0.4-0.3-0.4-0.7c0.1-0.7-0.2-1.3-0.4-1.7c-0.1-0.2-0.2-0.4-0.2-0.6l0,0l0,0
		C97.2,76.6,97.2,76.5,97.3,76.5 M96.9,76.4L96.9,76.4c0,0.1,0,0.2,0,0.3l0,0l0,0c0,0.2,0.1,0.5,0.3,0.7c0.2,0.4,0.4,0.9,0.3,1.5
		c-0.1,0.7,0.3,1.1,0.7,1.2c0.2,0.1,0.5,0,0.7-0.1c0.2-0.1,0.3-0.2,0.4-0.4c0.1,0,0.2,0,0.4,0.1c0.5,0.1,1.4,0.3,2.3,0.5
		c2.4,0.6,3.1,0.8,3.2,0.9c0.3,0.4,0.6,0.7,0.9,0.7c0.2,0,0.7,0.1,1.1-0.5c0.1-0.1,0.2-0.3,0.3-0.5c0.1-0.2,0.5-0.7,0.6-0.8
		c0.4-0.1,0.6-0.4,0.7-0.7c0,0,0-0.1,0-0.2c0-0.3-0.1-0.5-0.3-0.7c0-0.1,0.1-0.2,0.1-0.3c0.1-0.3,0.2-0.7,0.3-1.2
		c0.2-0.7,0.5-2.3,0.6-3.6c0.1-0.1,0.3-0.3,0.4-0.6l0,0l0,0c0,0,0,0,0-0.1c0.2-0.8-0.6-1.6-1-1.8c-0.5-0.2-1.2-0.4-1.5-0.5
		c-0.4-0.1-0.8,0.1-1,0.5c0,0,0,0.1,0,0.1c-0.1,0.4,0.1,0.8,0.4,1l0,0l0,0c0.5,0.3,0.7,0.5,0.8,1.3c0,0.5-0.1,1.5-0.3,2.5
		c-0.2,0.9-0.5,1.7-0.7,2c-0.3,0-1,0-2-0.2c-0.7-0.2-1.1-0.3-1.2-0.4c0-0.4,0.2-1.3,0.3-2.2c0.5,0.1,0.9-0.2,1.1-0.7
		c0.1-0.2,0-0.5-0.1-0.7c-0.1-0.2-0.3-0.3-0.6-0.4c-0.1,0-0.5-0.2-0.7-0.4l0,0l0,0c-0.1-0.1-0.3-0.2-0.4-0.2c-0.4-0.1-1,0.1-1.1,0.7
		c0,0,0,0,0,0c-0.1,0.5,0.2,0.8,0.3,0.9c0,0,0,0,0,0c0,0,0,0,0,0c0,0,0,0.3-0.1,0.7c-0.1,0.6-0.3,1.3-0.5,1.7c-0.1,0-0.3,0-0.5-0.1
		c-0.7-0.2-1.2-0.4-1.4-0.5c-0.1-0.3,0-1,0.2-1.8c0.2-0.7,0.4-1.4,0.6-1.7c0.3-0.4,0.8-0.6,1.5-0.8c0.3-0.1,0.6-0.4,0.7-0.7
		c0-0.1,0-0.2,0-0.3c0-0.5-0.3-0.8-0.7-0.9c-0.1,0-0.1,0-0.2,0c-0.2,0-0.5,0-0.6,0c-0.6,0-1.1,0-1.6,0.2c-0.4,0.2-0.8,0.7-0.9,1.1
		c-0.1,0.2,0,0.4,0,0.6c0,0.2,0,0.3,0,0.4c0,0,0,0.1-0.1,0.1c-0.2,0.4-0.3,1.1-0.4,1.5c-0.1,0.5-0.2,1-0.3,1.5
		c-0.2,0-0.4,0.1-0.6,0.3C97.1,75.9,96.9,76.1,96.9,76.4"/>
	<path class="st1" d="M101.1,111.9c-0.1,0.3-0.4,0.6-0.8,0.5c-0.2-0.1-0.5-0.1-0.7-0.2c-0.2-0.1-0.4-0.1-0.6-0.2
		c-0.5-0.1-0.6-0.1-0.7-0.1c-0.8,0.4-5.8,4.4-7.3,5.7c1.2,0.3,2.4,0.5,3.6,0.8l0,0c1.3,0.3,2.7,0.6,4,0.9c0.3,0.1,0.6,0.4,0.5,0.8
		c-0.1,0.3-0.3,0.5-0.6,0.5l0,0l-0.1,0l0,0c-0.2,0-0.3,0.1-0.5,0.2c-0.3,0.2-0.6,0.4-1.1,0.3c-0.4-0.1-0.6-0.3-0.8-0.5l-0.1-0.1
		c0,0-0.3-0.1-2-0.5l-0.4-0.1l-1.1-0.2c-0.7-0.2-1.4-0.3-2.2-0.4l-0.1,0c-0.4-0.1-1-0.2-1.2,0.1l-0.7,0.8l-0.1-1
		c-0.1-0.7-0.2-1.1-0.4-1.6l-0.2-0.3l0.3-0.2c1.3-1.1,2.7-2.1,4-3.2l1.1-0.9c0.2-0.2,0.5-0.4,0.8-0.6c0.5-0.3,0.9-0.7,1.4-1.1
		c0,0-0.1,0-0.1,0c-0.1,0-0.1,0-0.1,0c-0.6-0.1-1.8-0.4-3-0.7c-1.2-0.3-2.5-0.6-3-0.7c-0.1,0-0.2,0-0.2-0.1c-0.1,0-0.1,0-0.2-0.1
		c-0.1,0-0.1,0-0.2,0c-0.2,0-0.3,0-0.4,0.1c-0.1,0.1-0.3,0.2-0.6,0.1c-0.3-0.1-0.7-0.5-0.5-0.9c0.1-0.2,0.2-0.4,0.3-0.4l0,0l0,0
		l0.1,0.2l-0.1-0.2c0.4-0.2,0.7-0.5,1-0.8l0,0l0,0c0.1-0.1,0.4-0.4,0.7-0.3c0.2,0.1,0.5,0.2,0.5,0.7l0.1,0c1.1,0.2,2.8,0.6,4.6,1
		c1.8,0.4,3.6,0.8,4.6,1.1c0.1,0,0.3,0,0.4,0c0.2,0,0.5-0.1,0.8,0c0.3,0.1,0.5,0.3,0.6,0.4c0.1,0.3,0.3,0.4,0.5,0.6l0.1,0.1
		C101,111.3,101.2,111.6,101.1,111.9"/>
	<path class="st4" d="M86.9,108.9c0-0.2,0.1-0.3,0.2-0.3l0,0l0,0c0.4-0.3,0.7-0.5,1-0.8l0,0l0,0c0,0,0,0,0,0
		c0.1-0.1,0.3-0.3,0.5-0.2c0.4,0.1,0.3,0.5,0.3,0.6c0,0,0,0,0,0c0,0,0.1,0,0.1,0l0,0l0,0c1.1,0.2,2.8,0.6,4.6,1
		c1.8,0.4,3.5,0.8,4.6,1.1c0.1,0,0.3,0,0.5,0c0.2,0,0.5-0.1,0.7,0c0.3,0.1,0.4,0.2,0.4,0.3c0.2,0.3,0.3,0.5,0.6,0.7l0,0l0,0l0,0
		c0.1,0.1,0.3,0.3,0.2,0.6c0,0.2-0.2,0.4-0.6,0.3c-0.2-0.1-0.5-0.1-0.7-0.2c-0.2-0.1-0.4-0.1-0.6-0.2c-0.2,0-0.6-0.1-0.8,0
		c-0.9,0.5-6.6,5.1-7.6,6c1.3,0.3,2.7,0.6,4,0.9c1.3,0.3,2.7,0.6,4,0.9c0.2,0.1,0.5,0.3,0.4,0.6c-0.1,0.3-0.3,0.4-0.4,0.4
		c0,0,0,0,0,0l0,0l0,0c-0.2,0-0.4,0.1-0.6,0.3c-0.3,0.2-0.6,0.4-0.9,0.3c-0.3-0.1-0.5-0.3-0.8-0.5c0,0-0.1-0.1-0.1-0.1
		c-0.1,0-0.3-0.2-2-0.6l-0.3-0.1l-0.1,0c-0.2,0-0.4-0.1-0.5-0.1c-0.2,0-0.4-0.1-0.5-0.1c-0.7-0.2-1.5-0.3-2.2-0.4l-0.1,0
		c-0.4-0.1-1.1-0.2-1.4,0.2l-0.4,0.4l-0.1-0.6c-0.1-0.7-0.2-1.2-0.4-1.7l-0.1-0.2l0.2-0.1c1.3-1.1,2.7-2.1,4-3.2
		c0.4-0.3,0.8-0.6,1.1-0.9c0.2-0.2,0.5-0.4,0.8-0.6c0.5-0.4,1.1-0.8,1.6-1.3c0,0,0,0,0,0c0,0-0.1,0-0.1,0c-0.2,0-0.3-0.1-0.4-0.1
		c0,0-0.1,0-0.1,0c-0.6-0.1-1.8-0.4-3-0.7c-1.2-0.3-2.5-0.6-3-0.7c-0.1,0-0.2,0-0.2-0.1c-0.1,0-0.1,0-0.2-0.1c-0.1,0-0.1,0-0.2,0
		c-0.3,0-0.4,0.1-0.6,0.1c-0.1,0.1-0.2,0.2-0.4,0.1C87,109.6,86.8,109.3,86.9,108.9 M86.5,108.9c-0.1,0.6,0.3,1.1,0.7,1.2
		c0.3,0.1,0.6-0.1,0.7-0.2c0.1-0.1,0.1-0.1,0.3-0.1c0,0,0.1,0,0.2,0c0.1,0,0.1,0,0.2,0.1c0.1,0,0.2,0,0.3,0.1c0.6,0.1,1.8,0.4,3,0.7
		c1.1,0.3,2.2,0.5,2.8,0.7c-0.3,0.3-0.7,0.5-1,0.8c-0.3,0.2-0.5,0.4-0.8,0.6c-0.4,0.3-0.7,0.6-1.1,0.9l0,0c-1.3,1-2.7,2.1-4,3.2
		l-0.2,0.1l-0.3,0.2l0.2,0.3l0.1,0.2c0.2,0.5,0.3,0.9,0.4,1.6l0.1,0.6l0.1,0.9l0.6-0.6l0.4-0.4c0.2-0.2,0.7-0.1,1,0l0.1,0l0,0l0,0
		c0.7,0.1,1.5,0.3,2.2,0.4c0.2,0,0.3,0.1,0.5,0.1l0,0c0.2,0,0.4,0.1,0.5,0.1l0.1,0l0.3,0.1c1.5,0.3,1.8,0.5,1.9,0.5c0,0,0,0,0.1,0.1
		c0.2,0.2,0.5,0.5,0.9,0.6c0.5,0.1,1-0.1,1.3-0.3c0.2-0.1,0.3-0.2,0.4-0.2l0,0l0,0l0,0l0,0l0,0c0.5-0.1,0.7-0.4,0.7-0.7
		c0.1-0.5-0.3-1-0.7-1.1c-1.3-0.3-2.7-0.6-4-0.9c-1.1-0.2-2.1-0.4-3.2-0.7c1.8-1.5,6.2-5,6.9-5.4c0.1,0,0.2,0,0.6,0.1
		c0.2,0,0.4,0.1,0.6,0.2c0.2,0.1,0.5,0.2,0.7,0.2c0.6,0.1,1-0.2,1.1-0.6c0.1-0.5-0.2-0.8-0.3-0.9l0,0l0,0l0,0l0,0l0,0l0,0
		c-0.2-0.2-0.4-0.4-0.5-0.6c-0.1-0.2-0.3-0.5-0.7-0.5c-0.3-0.1-0.6,0-0.8,0c-0.1,0-0.3,0-0.4,0c-1.1-0.2-2.9-0.7-4.6-1.1
		c-1.7-0.4-3.4-0.8-4.5-1c-0.1-0.5-0.4-0.7-0.6-0.7c-0.5-0.1-0.8,0.2-0.9,0.3l0,0l0,0l0,0l0,0l0,0c-0.3,0.3-0.6,0.5-1,0.8l0,0l0,0
		l0,0l0,0C86.7,108.4,86.5,108.6,86.5,108.9"/>
	<path class="st1" d="M106.2,89.7c-0.1,0.3-0.3,0.5-0.5,0.6c0,0-0.3,0.2-1,1.1c-0.2,0.4-0.6,0.5-1,0.4c-0.3-0.1-0.5-0.3-0.7-0.4
		c-0.1-0.1-0.2-0.1-0.2-0.1c-0.3-0.1-3-1-5.1-1.4c-0.8-0.2-1.3-0.3-1.5-0.3c-0.1,0.3-0.3,0.8-0.4,1.4c-0.1,0.6-0.2,1.1-0.1,1.3
		c0.1,0.5,0.2,0.7,0.8,1.3c0.2,0.2,0.3,0.5,0.2,0.8c0,0.1,0,0.2-0.1,0.2c-0.2,0.4-0.5,0.5-0.7,0.4c-0.1,0-0.2-0.1-0.2-0.1
		c-0.1-0.1-0.2-0.2-0.4-0.3c-0.6-0.3-0.9-0.6-1.1-0.8c-0.2-0.2-0.4-1-0.3-1.4c0-0.2,0.2-0.4,0.2-0.5c0.1-0.1,0.2-0.3,0.3-0.6
		c0.1-0.4,0.3-1.2,0.5-2.1c0.3-1.2,0.6-2.6,0.8-3.7c0.1-0.5,0.2-0.9,0.3-1.2c0-0.1,0-0.2,0.1-0.2c0.1-0.5,0.1-0.7,0.1-1
		c0-0.1,0-0.2,0-0.4l0-0.1c0-0.1,0-0.2,0-0.4c0,0,0-0.1,0-0.1c0.1-0.2,0.2-0.3,0.4-0.5l0.1-0.1c0.3-0.3,0.7-0.2,1.4-0.2
		c0.2,0,0.4,0,0.6,0c0.1,0,0.1,0,0.2,0c0.3,0.1,0.5,0.4,0.5,0.7c0,0.1,0,0.1,0,0.2c-0.1,0.3-0.3,0.5-0.6,0.6c-0.1,0-0.1,0-0.2,0.1
		c-0.3,0.1-0.4,0.1-0.8,0.6c-0.2,0.3-0.4,0.8-0.6,1.5c-0.1,0.6-0.2,1.2-0.2,1.5c0.3,0.2,1.5,0.6,5.7,1.5c0.8,0.2,1.5,0.4,2.1,0.5
		c0.4,0.1,0.8,0.2,1,0.2c0.2,0.1,0.5,0.3,0.4,0.7C106.2,89.6,106.2,89.6,106.2,89.7"/>
	<path class="st4" d="M96.2,82.3C96.2,82.3,96.2,82.3,96.2,82.3c0.1-0.2,0.2-0.3,0.3-0.4c0,0,0.1-0.1,0.1-0.1
		c0.2-0.2,0.6-0.2,1.2-0.1c0.2,0,0.4,0,0.6,0c0,0,0.1,0,0.1,0c0.2,0.1,0.4,0.3,0.4,0.5c0,0.1,0,0.1,0,0.2c0,0.2-0.2,0.4-0.4,0.5
		c-0.1,0-0.1,0-0.2,0.1c-0.3,0.1-0.5,0.1-0.9,0.6c-0.2,0.3-0.4,1-0.6,1.6c-0.2,0.7-0.2,1.4-0.2,1.7c0.2,0.2,1.3,0.6,5.9,1.6
		c0.8,0.2,1.5,0.4,2.1,0.5c0.4,0.1,0.8,0.2,1,0.2c0.1,0,0.3,0.2,0.3,0.5c0,0,0,0.1,0,0.1c0,0.2-0.2,0.4-0.4,0.4c0,0-0.3,0.1-1.1,1.2
		c-0.2,0.3-0.5,0.4-0.8,0.3c-0.3-0.1-0.5-0.2-0.7-0.4c-0.1-0.1-0.2-0.1-0.2-0.2c-0.3-0.2-3.1-1-5.2-1.5c-1.1-0.3-1.5-0.3-1.6-0.3
		c-0.1,0.3-0.4,0.9-0.5,1.5c-0.1,0.5-0.2,1.1-0.1,1.4c0.1,0.5,0.3,0.8,0.9,1.4c0.2,0.1,0.2,0.4,0.2,0.6c0,0.1,0,0.1-0.1,0.2
		c-0.1,0.3-0.4,0.3-0.5,0.3c-0.1,0-0.1,0-0.2-0.1c-0.1-0.1-0.3-0.2-0.4-0.3c-0.5-0.3-0.9-0.5-1.1-0.7c-0.1-0.2-0.3-0.8-0.2-1.2
		c0-0.2,0.1-0.3,0.2-0.4c0.1-0.1,0.2-0.3,0.3-0.7c0.1-0.4,0.3-1.2,0.5-2.1c0.3-1.2,0.6-2.6,0.8-3.7c0.1-0.5,0.2-0.9,0.3-1.2
		c0-0.1,0-0.2,0.1-0.2c0.1-0.6,0.1-0.8,0.1-1c0-0.1,0-0.2,0-0.4c0,0,0-0.1,0-0.1C96.2,82.5,96.2,82.4,96.2,82.3 M95.8,82.2
		L95.8,82.2c0,0.1,0,0.3,0,0.4c0,0,0,0.1,0,0.1c0,0.2,0,0.3,0,0.4c0,0.2,0,0.4-0.1,0.9c0,0.1,0,0.1-0.1,0.2
		c-0.1,0.3-0.2,0.7-0.3,1.2c-0.2,1.1-0.6,2.4-0.8,3.7l0,0c-0.2,0.9-0.4,1.7-0.5,2.1c-0.1,0.3-0.1,0.4-0.2,0.5
		c-0.1,0.1-0.2,0.3-0.3,0.5c-0.1,0.5,0.1,1.3,0.3,1.5c0.2,0.3,0.6,0.5,1.2,0.8c0.2,0.1,0.3,0.2,0.4,0.2c0.1,0.1,0.2,0.1,0.3,0.1
		c0.3,0.1,0.7,0,1-0.5c0-0.1,0.1-0.2,0.1-0.3c0.1-0.4,0-0.8-0.3-1c-0.6-0.5-0.7-0.8-0.8-1.2c0-0.2,0-0.6,0.1-1.2
		c0.1-0.5,0.2-0.9,0.4-1.2c0.2,0,0.6,0.1,1.3,0.3c2,0.5,4.8,1.3,5.1,1.4c0,0,0.1,0.1,0.2,0.1c0.2,0.2,0.5,0.4,0.8,0.5
		c0.5,0.1,0.9-0.1,1.2-0.5c0.5-0.8,0.8-1,0.9-1c0.3-0.1,0.6-0.3,0.7-0.7c0-0.1,0-0.1,0-0.2c0-0.5-0.3-0.8-0.6-0.9
		c-0.3-0.1-0.6-0.1-1-0.2l0,0c-0.6-0.1-1.3-0.3-2.1-0.5c-3.9-0.9-5.2-1.3-5.6-1.5c0-0.3,0.1-0.7,0.2-1.3c0.2-0.7,0.3-1.2,0.5-1.5
		c0.3-0.4,0.4-0.4,0.7-0.5c0.1,0,0.2,0,0.2-0.1c0.3-0.1,0.6-0.4,0.7-0.8c0-0.1,0-0.2,0-0.3c0-0.4-0.3-0.8-0.7-0.9
		c-0.1,0-0.1,0-0.2,0l0,0l0,0c-0.2,0-0.4,0-0.6,0c-0.7,0-1.2-0.1-1.5,0.3l-0.1,0.1C96.1,81.7,95.9,81.9,95.8,82.2
		C95.8,82.1,95.8,82.2,95.8,82.2"/>
</g>
</svg>
