<?xml version="1.0" encoding="utf-8"?>
<!-- Generator: Adobe Illustrator 25.3.0, SVG Export Plug-In . SVG Version: 6.00 Build 0)  -->
<svg version="1.1" id="Layer_1" xmlns="http://www.w3.org/2000/svg" xmlns:xlink="http://www.w3.org/1999/xlink" x="0px" y="0px"
	 viewBox="0 0 750.2 400.1" style="enable-background:new 0 0 750.2 400.1;" xml:space="preserve">
<g>
	<path d="M602,124.9h-6c3.4,2.7,6.9,5.5,10.3,8.2v-4.8C604.9,127.2,603.4,126,602,124.9z"/>
	<path d="M584,124.9c7.4,5.9,14.9,11.8,22.3,17.7v-4.5c-5.5-4.4-11-8.8-16.6-13.2H584z"/>
	<path d="M606.3,151.6V148c-9.6-7.7-19.3-15.4-29.1-23.1h-4.5C583.9,133.8,595.1,142.7,606.3,151.6z"/>
	<path d="M606.3,160.9V158c-14-11-27.9-22.1-41.9-33.1h-3.5C576,136.9,591.2,148.9,606.3,160.9z"/>
	<path d="M549,124.9c19.2,15.1,38.3,30.2,57.3,45.2v-2c-17.9-14.4-36.2-28.5-54.5-43.2H549z"/>
	<path d="M572.5,152.8c11.4,9,22.7,17.9,33.8,26.8V178c-0.4-0.3-0.8-0.6-1.2-0.9c-21.8-17.2-43.8-34.7-65.8-52.2h-1.9
		C548.9,134.1,560.6,143.4,572.5,152.8z"/>
	<path d="M567.8,158.5c12.8,10.3,25.6,20.5,38.5,30.7v-1.3c-26.5-21-52.9-42-79.4-63h-1.2C539.9,136.2,554,147.4,567.8,158.5z"/>
	<path d="M606.3,198.4v-0.6c-30.7-24.3-61.3-48.6-91.9-72.9h-0.7C544.6,149.5,575.5,174,606.3,198.4z"/>
	<path d="M606.3,207.9v-0.3c-35.1-28-70.2-56-104.1-82.7h-0.7c16,12.8,32,25.5,48.4,38.2C568.9,177.7,587.5,193,606.3,207.9z"/>
	<path d="M489,240.7v0.6c2.4,1.9,4.8,3.8,7.1,5.7h0.7C494.2,244.8,491.6,242.7,489,240.7z"/>
	<path d="M508.6,246.9c-6.5-5.2-13.1-10.4-19.6-15.6v0.2c6.5,5.2,12.9,10.3,19.4,15.4H508.6z"/>
</g>
</svg>
