<?xml version="1.0" encoding="utf-8"?>
<!-- Generator: Adobe Illustrator 25.3.0, SVG Export Plug-In . SVG Version: 6.00 Build 0)  -->
<svg version="1.1" id="Layer_1" xmlns="http://www.w3.org/2000/svg" xmlns:xlink="http://www.w3.org/1999/xlink" x="0px" y="0px"
	 viewBox="0 0 750.2 400.1" style="enable-background:new 0 0 750.2 400.1;" xml:space="preserve">
<g>
	<path d="M138.4,176.2c2.6-2.1,5.3-4.2,8-6.3h-2.2c-1.9,1.5-3.9,3.1-5.8,4.6V176.2z"/>
	<path d="M138.4,185.7c6.6-5.3,13.3-10.5,19.9-15.8h-1.5c-6.1,4.8-12.2,9.7-18.4,14.6V185.7z"/>
	<path d="M138.4,194.4v0.6c10.5-8.4,21.1-16.7,31.6-25.1h-0.8C159,178.1,148.7,186.2,138.4,194.4z"/>
	<path d="M138.4,204.1v0.3c14.4-11.5,28.7-23.2,43.2-34.5h-0.2C167.1,181.2,152.8,192.7,138.4,204.1z"/>
	<path d="M257.6,226.5c2.8-2.2,5.6-4.5,8.4-6.7v-0.3c-2.9,2.3-5.9,4.7-8.8,7H257.6z"/>
</g>
</svg>
