<?xml version="1.0" encoding="utf-8"?>
<!-- Generator: Adobe Illustrator 25.3.0, SVG Export Plug-In . SVG Version: 6.00 Build 0)  -->
<svg version="1.1" id="Layer_1" xmlns="http://www.w3.org/2000/svg" xmlns:xlink="http://www.w3.org/1999/xlink" x="0px" y="0px"
	 viewBox="0 0 750.20001 400.10001" style="enable-background:new 0 0 750.20001 400.10001;" xml:space="preserve">
<path d="M201.70001,112.40292c0.10004,0,0.20001,0,0.29999,0h1.5c35.40002-0.17419,45.10004-47.89221,45.29999-63.65234
	l-6.89856-1.00635c-0.37646,27.76465-14.95862,57.82446-37.55438,58.02069h-1.5c-0.09998,0-0.19995-0.00092-0.29999,0
	c-25.7749,0.23798-37.4455-27.78107-40.0329-57.52295l-6.41412,1.03107C156.5,64.94608,166.5,112.40292,201.70001,112.40292z"/>
<path d="M238.8999,52.99997c0.29999-2.59998,0.39996-4.5,0.39996-5.29999c-42.88086,35.05591-68.39978,2.60004-74.7998,0.5
	c0,0.80005,0.09998,2.5,0.40002,4.90002C194.0545,78.80301,217.03076,71.17947,238.8999,52.99997z"/>
<path d="M508.40527,48.19998c0,0-2.08087-1.3028-8.20526-1c3.61676,1.00873,8.60522,5.90002,8.60522,5.90002
	c29.15448,25.703,52.13068,18.07947,73.99982-0.10004c3.42505-2.43225,7.03546-6.06189,9.39496-6.08234
	c0,0-5.74786-1.85864-8.93457,0.68542l0,0l-0.06036,0.09686v0.00006C540.32422,82.75589,514.80524,50.30002,508.40527,48.19998z"/>
</svg>
