<?xml version="1.0" encoding="utf-8"?>
<!-- Generator: Adobe Illustrator 25.2.1, SVG Export Plug-In . SVG Version: 6.00 Build 0)  -->
<svg version="1.1" id="Layer_1" xmlns="http://www.w3.org/2000/svg" xmlns:xlink="http://www.w3.org/1999/xlink" x="0px" y="0px"
	 viewBox="0 0 150 200" style="enable-background:new 0 0 150 200;" xml:space="preserve">
<style type="text/css">
	.st0{fill:#7BA4DD;}
	.st1{fill:#1B2D42;}
	.st2{fill:#B7CBEA;}
	.st3{fill:#FFFFFF;}
	.st4{clip-path:url(#SVGID_2_);}
</style>
<g>
	
		<rect x="57.6" y="46.5" transform="matrix(0.9744 -0.225 0.225 0.9744 -19.0191 23.8084)" class="st0" width="74.7" height="97.7"/>
	<path class="st1" d="M122,36.8L5.1,63.8L28,163.2l116.9-27L122,36.8z M47.6,56.1l72.8-16.8l22,95.2l-72.8,16.8L47.6,56.1z"/>
	<g>
		<path class="st0" d="M38.8,64.2l0.9,4c0.5,2.1-0.2,3.8-2.4,4.3c-1.8,0.4-3.2-0.4-3.6-2.2l-0.4-1.6l-2.7,0.6l-0.7-3.1L38.8,64.2z
			 M35.6,68.2l0.1,0.3c0.1,0.6,0.4,1.1,1.1,1c0.7-0.2,0.6-0.8,0.5-1.3l-0.1-0.3L35.6,68.2z"/>
		<path class="st0" d="M40.7,72.3l0.9,3.9c0.5,2,0,3.9-2.2,4.4c-1.3,0.3-2-0.1-2.7-1.2h-0.1c-0.1,0.2-0.2,0.4-0.4,0.7l-2.4,2.6
			L33,79l2.5-2.1v-0.1l-3,0.7l-0.7-3.1L40.7,72.3z M37.5,76.3l0.1,0.2c0.1,0.5,0.3,1,1,0.9c0.7-0.2,0.7-0.7,0.5-1.2L39,76L37.5,76.3
			z"/>
		<path class="st0" d="M42.6,80.8l1.4,5.9l-2.4,0.6L41,84.6l-0.9,0.1l0.6,2.5l-2.3,0.5l-0.6-2.5l-0.9,0.2l0.6,2.8l-2.4,0.6l-1.4-6
			L42.6,80.8z"/>
		<path class="st0" d="M44.5,88.7l0.8,3.3l-4.4,2.3v0.1c0.4,0,0.8-0.1,1.2-0.1l3.7,0.2l0.8,3.2l-8.5,3.5l-0.7-3.1l4.8-1.6v-0.1
			c-0.3,0-0.6,0-0.9,0L37,96l-0.4-1.9l3.5-2c0.4-0.2,0.7-0.3,1.1-0.5v-0.1c-0.4,0.1-0.7,0.1-1.1,0.2l-3.9,0.5l-0.7-3.1L44.5,88.7z"
			/>
		<path class="st0" d="M47.1,99.9l0.7,3.2l-8.9,2l-0.7-3.2L47.1,99.9z"/>
		<path class="st0" d="M48,104.2l1.4,5.9l-2.4,0.6l-0.6-2.7l-0.8,0.2l0.6,2.5l-2.3,0.5l-0.6-2.5l-0.9,0.2l0.6,2.8l-2.4,0.6l-1.4-6
			L48,104.2z"/>
		<path class="st0" d="M49.7,111.2l0.9,3.9c0.5,2,0,3.9-2.2,4.4c-1.3,0.3-2-0.1-2.7-1.2h-0.1c-0.1,0.2-0.2,0.4-0.4,0.7l-2.4,2.6
			l-0.8-3.7l2.5-2.1v-0.1l-2.8,0.7l-0.7-3.1L49.7,111.2z M46.5,115.3l0.1,0.2c0.1,0.5,0.3,1,1,0.9c0.7-0.2,0.7-0.7,0.5-1.2L48,115
			L46.5,115.3z"/>
		<path class="st0" d="M46.1,121.7l-0.1,0.2c-0.3,0.7-0.5,1.4-0.4,2.2c0.1,0.3,0.3,0.8,0.7,0.7c0.4-0.1,0.3-0.5,0.3-0.8v-0.7
			c-0.1-1.3,0.4-2.5,1.8-2.8c2.1-0.5,3.7,1.1,4.2,3.1c0.2,1,0.2,2-0.1,3l-2.5-0.3c0.2-0.6,0.4-1.3,0.2-2c-0.1-0.3-0.3-0.7-0.6-0.6
			s-0.3,0.5-0.3,0.7v0.8c0,1.4-0.5,2.6-2,2.9c-2.1,0.5-3.6-1.2-4-3.1c-0.3-1.1-0.2-2.5,0-3.6L46.1,121.7z"/>
		<path class="st0" d="M53.4,127.2l0.7,3.1l-3,0.7l0.5,2l3-0.7l0.7,3.1l-8.9,2l-0.7-3.1l3.1-0.7l-0.5-2l-3.1,0.7l-0.7-3.1
			L53.4,127.2z"/>
		<path class="st0" d="M55.5,136.5l0.7,3.2l-8.9,2l-0.7-3.2L55.5,136.5z"/>
		<path class="st0" d="M56.5,140.8l0.9,4c0.5,2.1-0.2,3.8-2.4,4.3c-1.8,0.4-3.2-0.4-3.6-2.2l-0.4-1.6l-2.7,0.6l-0.7-3.1L56.5,140.8z
			 M53.2,144.8l0.1,0.3c0.1,0.6,0.4,1.1,1.1,1c0.7-0.2,0.6-0.8,0.5-1.3l-0.1-0.3L53.2,144.8z"/>
		<path class="st0" d="M27.2,66.8l0.9,3.9c0.5,2,0,3.9-2.2,4.4c-1.3,0.3-2-0.1-2.7-1.2h-0.1c-0.1,0.2-0.2,0.4-0.4,0.7l-2.4,2.6
			l-0.8-3.7l2.5-2.1v-0.1L19.2,72l-0.7-3.1L27.2,66.8z M24,70.9l0.1,0.2c0.1,0.5,0.3,1,1,0.9c0.7-0.2,0.7-0.7,0.5-1.2l-0.1-0.3
			L24,70.9z"/>
		<path class="st0" d="M31,83.3l-5.2,1.2c-2.6,0.6-4.1-0.7-4.7-3.2s0.2-4.3,2.8-4.9l5.2-1.2l0.7,3.2l-4.9,1.1
			c-0.7,0.2-1.3,0.3-1.1,1.2c0.2,0.9,0.8,0.7,1.5,0.6l4.9-1.1L31,83.3z"/>
		<path class="st0" d="M29.7,94.4c-1.5,0.3-2.7,0.6-4-0.2c-1.2-0.7-2.1-2-2.4-3.4c-0.6-2.7,0.6-5.2,3.4-5.9c2.9-0.7,5.1,1,5.8,3.8
			c0.4,1.5,0.1,3.8-1.3,4.8l-1.8-2.7c0.4-0.3,0.5-0.9,0.4-1.4c-0.3-1.1-1.4-1.5-2.5-1.3c-1,0.2-1.8,1-1.5,2.1
			c0.1,0.5,0.5,1.1,1.1,1.1L26.5,90l2.1-0.5L29.7,94.4z"/>
		<path class="st0" d="M33.5,94.3l0.9,3.7c0.4,1.7,0.4,3.5-1.7,4c-0.8,0.2-1.6,0-2.1-0.7h-0.1c-0.1,1-0.7,1.8-1.7,2
			c-1.8,0.4-2.8-1.1-3.2-2.6l-1-4.3L33.5,94.3z M30.8,98.3c0.1,0.5,0.3,1,0.9,0.8c0.7-0.2,0.5-0.7,0.4-1.2L32,97.7L30.7,98
			L30.8,98.3z M27.4,98.8l0.1,0.4c0.1,0.5,0.3,1.3,1,1.1s0.5-1,0.4-1.5l-0.1-0.3L27.4,98.8z"/>
		<path class="st0" d="M36,104.9l-2.1,1.5v0.1c0.3,0,0.6,0,0.9,0.1l1.6,0.3l0.8,3.6l-5.7-1.8l-3.8,0.9l-0.7-3.1l3.8-0.9l4.3-4.2
			L36,104.9z"/>
	</g>
	<g>
		<path class="st1" d="M86,108.8c0.4-1.1,0.4-2.1,0.2-3c-0.6-2.4-3.1-3.7-5.7-3.1s-4.2,2.5-3.7,4.9c0.3,1.3,1.1,2.2,1.9,2.7
			l-0.6,0.1c-1.4,0.3-2.4,0-2.8-1.8c-0.3-1.4,0-2,0.7-2.3l-0.5-2.2c-2.3,0.7-2.5,2.8-2,4.8c0.8,3.3,2.8,4.3,5.5,3.7l6.3-1.4
			c0.2,0,0.3,0,0.4,0.2l0.2,0.7l1.7-0.4l-0.6-2.8L86,108.8z M80.8,109.8c-0.9-0.3-1.8-1.2-2-2.3c-0.3-1.4,0.9-2.2,2.3-2.5
			c1.9-0.4,3.1,0.3,3.4,1.8c0.1,0.6,0.1,1.4,0,2.2L80.8,109.8z"/>
		<path class="st1" d="M87.1,127.1c1.3-0.1,2.3,0.8,2.6,2c0.3,1.1-0.3,2.4-1.5,2.8L87.1,127.1z M83.7,130.6
			c-0.3-1.3,0.2-2.6,1.7-3.1l1.6,6.9c0.2,0,0.4-0.1,0.6-0.1c2.9-0.7,4.6-2.7,3.9-5.6c-0.6-2.8-3.3-4.3-6-3.7c-2.9,0.7-4.5,3-3.8,6.1
			c0.4,1.6,1.3,2.7,2.7,3.3l0.8-1.5C84.7,132.6,84,131.7,83.7,130.6"/>
		<path class="st1" d="M73.1,82.9c-0.2,0-0.3,0-0.4-0.2l-0.2-1.2l-1.7,0.4l1.1,4.9l1.7-0.4l-0.2-0.9c0-0.2,0-0.3,0.2-0.4l11-2.5
			l-0.9-4L82,79l0.3,1.4c0,0.2,0,0.3-0.2,0.4L73.1,82.9z"/>
		<path class="st1" d="M74.4,88.4c-0.2,0-0.3,0-0.4-0.2l-0.2-0.9l-1.7,0.4l1.1,4.8l1.7-0.4l-0.2-1c0-0.2,0-0.3,0.2-0.4l11-2.5
			L85,84.5l-1.7,0.4l0.3,1.1c0,0.2,0,0.3-0.2,0.4L74.4,88.4z"/>
		<path class="st1" d="M82.3,124.2c0-0.2,0-0.3,0.2-0.4l4.2-1c2-0.5,3-2.2,2.5-4c-0.3-1.5-1.4-2.4-2.2-2.9l4.9-1.1L91,111l-1.7,0.4
			l0.3,1.2c0,0.2,0,0.3-0.2,0.4l-9,2.1c-0.2,0-0.3,0-0.4-0.2l-0.2-1.1l-1.7,0.4l1.2,5l1.7-0.4l-0.2-1c0-0.2,0-0.3,0.2-0.4l3.9-0.9
			c0.9,0.3,2,1.2,2.3,2.3c0.2,1-0.5,1.7-1.7,1.9l-3.5,0.8c-0.2,0-0.3,0-0.4-0.2l-0.3-1.1l-1.7,0.4l1.1,4.9l1.7-0.4L82.3,124.2z"/>
		<path class="st1" d="M86.1,139.2l3.2-0.7c1.3,0.3,2.6,0.9,2.9,2.2c0,0.2,0.1,0.4,0.1,0.6l2-0.5c0-1.7-1.4-2.8-2.8-3.2l1.8-0.8
			l-0.7-2.9l-1.7,0.4l0.2,0.9c0,0.2,0,0.3-0.2,0.4l-5.2,1.2c-0.2,0-0.3-0.1-0.4-0.3l-0.2-0.9l-1.7,0.4l1.1,4.8l1.7-0.4l-0.2-1
			C85.9,139.4,86,139.2,86.1,139.2"/>
		<path class="st1" d="M72.1,79.8c0-0.2,0-0.3,0.2-0.4l4-0.9c1.7-0.4,3.3-1.8,2.6-4.9c-0.5-2.4-2.1-3.7-4.1-3.5l0.5,2.2
			c0.9,0,1.5,0.6,1.7,1.7c0.2,0.9-0.1,1.9-1.4,2.3c-0.1-0.4-0.2-0.9-0.3-1.3c-0.4-1.8-1.6-5.1-4.4-4.4c-2.1,0.5-2.5,2.5-2.1,4.3
			c0.3,1.2,1,2.5,2,2.9l-1,0.4l0.7,3l1.7-0.4L72.1,79.8z M72.7,76.9c-1.1,0-1.8-1.2-2-2c-0.2-1,0-1.8,0.8-2c1.2-0.3,1.9,1,2.2,2.4
			c0.1,0.5,0.2,1,0.2,1.4C73.7,76.8,73.1,76.9,72.7,76.9"/>
		<path class="st1" d="M77.2,101.8c0-0.2,0-0.3,0.2-0.4l4-0.9c1.7-0.4,3.3-1.8,2.6-4.9c-0.5-2.4-2.1-3.7-4.1-3.5l0.5,2.2
			c0.9,0,1.5,0.6,1.7,1.7c0.2,0.9-0.1,1.9-1.4,2.3c-0.1-0.4-0.2-0.9-0.3-1.3c-0.4-1.8-1.6-5.1-4.4-4.4c-2.1,0.5-2.5,2.5-2.1,4.3
			c0.3,1.2,1,2.5,2,2.9l-1,0.4l0.7,3.1l1.7-0.4L77.2,101.8z M77.8,98.8c-1.1,0-1.8-1.2-2-2c-0.2-1,0-1.8,0.8-2
			c1.2-0.3,1.9,1,2.2,2.4c0.1,0.5,0.2,1,0.2,1.4C78.8,98.8,78.1,98.8,77.8,98.8"/>
		<path class="st1" d="M72.7,65.2c0,0.2,0,0.4-0.3,0.4l-3.2,0.7c-0.1-0.2-0.1-0.4-0.1-0.6c-0.9-3.9,0.7-6.8,3.1-7.3
			c2.9-0.7,5.3,1.9,6,5.1c0.3,1.2,0.4,2.3,0.4,3.3l2.2-0.5c0-1.1-0.1-2-0.4-3.2c-1.2-5.3-5.1-8.1-8.8-7.3c-4.4,1-5.8,5.7-4.7,10.4
			c0.3,1.3,0.6,2.2,1,3.1l5.1-1.2c0.2-0.1,0.4,0.1,0.4,0.3l0.2,0.9l1.8-0.4l-1.2-5.2l-1.8,0.4L72.7,65.2z"/>
		<g>
			<path class="st2" d="M102,110.1l0.2-0.1v0.1c0,0.1,0,0.2-0.1,0.2C102,110.3,102,110.2,102,110.1L102,110.1z M101.9,110.1
				L101.9,110.1l-0.3,0.4v0.1l0.3-0.3c0,0.1,0.1,0.2,0.2,0.1c0.1,0,0.2-0.1,0.1-0.3l-0.1-0.3l-0.7,0.2v0.1L101.9,110.1z
				 M101.3,110.4c0.1,0.3,0.4,0.6,0.8,0.5s0.6-0.4,0.5-0.8c-0.1-0.3-0.4-0.6-0.8-0.5C101.4,109.7,101.2,110,101.3,110.4
				 M101.8,109.7c0.3-0.1,0.6,0.1,0.6,0.4c0.1,0.3-0.1,0.6-0.4,0.6c-0.3,0.1-0.6-0.1-0.6-0.4C101.4,110.1,101.5,109.8,101.8,109.7"
				/>
			<path class="st3" d="M93.4,95.4c-1-4.2-0.9-8.5,0.1-11.9c1.1-3.6,3.2-6,6-6.6c2.7-0.6,5.7,0.6,8.3,3.3c2.5,2.6,4.3,6.4,5.3,10.7
				c1,4.2,0.9,8.5-0.1,11.9l0,0c-1.1,3.6-3.2,6-6,6.6c-2.7,0.6-5.7-0.6-8.3-3.3C96.2,103.4,94.4,99.6,93.4,95.4z M112,91
				c-0.9-4.1-2.7-7.7-5.1-10.2c-2.3-2.5-4.9-3.6-7.3-3c-2.3,0.6-4.1,2.7-5.1,5.9c-1,3.3-1,7.3-0.1,11.4s2.7,7.7,5.1,10.2
				c2.3,2.5,4.9,3.6,7.3,3c2.4-0.5,4.2-2.7,5.2-5.9l0,0C112.9,99.2,113,95.1,112,91z"/>
			<g>
				<g>
					<g>
						<g>
							<defs>
								<path id="SVGID_1_" d="M112.4,102.6c1-3.4,1.1-7.5,0.1-11.7s-2.8-7.9-5.2-10.4c-2.5-2.6-5.2-3.8-7.8-3.2
									c-2.5,0.6-4.5,2.8-5.6,6.3c-1,3.4-1.1,7.5-0.1,11.7s2.8,7.9,5.2,10.4c2.5,2.6,5.2,3.8,7.8,3.2S111.4,106,112.4,102.6z"/>
							</defs>
							<clipPath id="SVGID_2_">
								<use xlink:href="#SVGID_1_"  style="overflow:visible;"/>
							</clipPath>
							<g id="G-Logo_x5F_thicklines_x5F_highres_x5F_v10CMYK-F.psd_6_" class="st4">
								<g id="G-Logo_x5F_thicklines-LARGEUSE-F2.psd_6_">
									
										<image style="overflow:visible;enable-background:new    ;" width="1500" height="1500" id="G-Logo_x5F_thicklines-LARGEUSE-F2_1_" xlink:href="E0BDAE8A39B292D1.png"  transform="matrix(5.018956e-03 2.173949e-02 -2.173948e-02 5.018954e-03 115.7329 73.018)">
									</image>
								</g>
							</g>
						</g>
					</g>
				</g>
			</g>
		</g>
	</g>
</g>
</svg>
