<?xml version="1.0" encoding="utf-8"?>
<!-- Generator: Adobe Illustrator 25.2.1, SVG Export Plug-In . SVG Version: 6.00 Build 0)  -->
<svg version="1.1" id="Layer_1" xmlns="http://www.w3.org/2000/svg" xmlns:xlink="http://www.w3.org/1999/xlink" x="0px" y="0px"
	 viewBox="0 0 150 200" style="enable-background:new 0 0 150 200;" xml:space="preserve">
<style type="text/css">
	.st0{fill:#1D1D1B;}
	.st1{fill:#FEFEFF;}
</style>
<g>
	<rect x="16.6" y="90" transform="matrix(0.225 -0.9744 0.9744 0.225 -42.7725 142.1297)" class="st0" width="102.6" height="16"/>
	<path class="st1" d="M61.9,139.7l-0.3,1.4l-1.9,0.5c-0.1,0-0.3,0.1-0.4,0.1c-0.1,0-0.2,0.1-0.3,0.1c-0.1,0-0.2,0.1-0.2,0.2
		c-0.1,0.1-0.1,0.1-0.1,0.2l-0.1,0.3l2.5,0.6l-0.3,1.2l-6.6-1.5l0.5-2c0.3-1.3,1.1-1.9,2.3-1.6c0.2,0.1,0.4,0.1,0.6,0.2
		s0.3,0.2,0.5,0.4c0.1,0.1,0.2,0.3,0.3,0.5c0.1,0.2,0.1,0.4,0.2,0.6l0,0c0-0.1,0.1-0.1,0.2-0.2c0.1-0.1,0.2-0.1,0.3-0.2
		c0.1-0.1,0.2-0.1,0.3-0.1c0.1,0,0.2-0.1,0.4-0.1L61.9,139.7z M55.6,141.8l1.8,0.4l0.1-0.5c0.1-0.3,0-0.5-0.1-0.7
		c-0.2-0.2-0.4-0.3-0.6-0.4c-0.6-0.1-0.9,0.1-1.1,0.7L55.6,141.8z M60.1,134.3c2,0.5,2.8,1.5,2.5,3c-0.3,1.5-1.5,2-3.4,1.6l-3.8-0.9
		l0.3-1.3l3.9,0.9c1.1,0.2,1.7,0,1.9-0.7c0.2-0.7-0.3-1.2-1.3-1.4l-3.9-0.9l0.3-1.2L60.1,134.3z M63.8,129.4
		c0.2,0.6,0.3,1.3,0.1,2.1c-0.2,0.9-0.7,1.5-1.4,1.9c-0.7,0.4-1.6,0.4-2.6,0.2c-1-0.2-1.8-0.7-2.4-1.4c-0.5-0.7-0.7-1.5-0.5-2.5
		c0.1-0.6,0.4-1.1,0.7-1.5l1.4,0.3c-0.4,0.4-0.7,0.8-0.8,1.5c-0.1,0.5,0,1,0.3,1.4c0.3,0.4,0.8,0.7,1.5,0.9c0.7,0.2,1.2,0.1,1.7-0.1
		c0.4-0.2,0.7-0.6,0.8-1.1c0.1-0.3,0.1-0.5,0-0.7l-1.3-0.3l-0.3,1.1l-1.2-0.3l0.5-2.4L63.8,129.4z M64.4,128.8l-6.6-1.5l0.5-2
		c0.1-0.6,0.4-1.1,0.7-1.3c0.3-0.3,0.8-0.3,1.3-0.2c0.4,0.1,0.6,0.3,0.9,0.5c0.2,0.3,0.3,0.6,0.4,0.9l0,0c0.1-0.4,0.4-0.7,0.7-0.8
		c0.3-0.2,0.7-0.2,1.1-0.1c0.6,0.1,1,0.4,1.3,0.9c0.3,0.4,0.3,1,0.2,1.6L64.4,128.8z M59.1,126.3l1.6,0.4l0.1-0.5
		c0.1-0.3,0-0.5-0.1-0.7c-0.1-0.2-0.3-0.3-0.6-0.4c-0.5-0.1-0.8,0.1-0.9,0.7L59.1,126.3z M61.8,126.9l1.8,0.4l0.2-0.7
		c0.1-0.3,0-0.5-0.1-0.7c-0.1-0.2-0.3-0.3-0.6-0.4c-0.3-0.1-0.5,0-0.7,0.1S62,126,62,126.3L61.8,126.9z M59.8,118.5l3.9,2.8l2.4,0.5
		l-0.3,1.2l-2.3-0.5l-4.7,0.8l0.3-1.4l2.7-0.3c0,0,0.2,0,0.6,0l0,0c-0.2-0.1-0.4-0.2-0.5-0.2l-2.3-1.5L59.8,118.5z M68.1,112.6
		l-0.3,1.4l-1.6,0.1l-0.5,2l1.4,0.7l-0.3,1.4l-6.2-3.6L61,113L68.1,112.6z M65,114l-2.4,0.1c-0.2,0-0.4,0-0.6,0l0,0
		c0.2,0.1,0.4,0.1,0.6,0.2l2.1,1.1L65,114z M68.8,107.6c0.2,0.6,0.3,1.3,0.1,2.1c-0.2,0.9-0.7,1.5-1.4,1.9c-0.7,0.4-1.6,0.4-2.6,0.2
		c-1-0.2-1.8-0.7-2.4-1.4c-0.5-0.7-0.7-1.5-0.5-2.5c0.1-0.6,0.4-1.1,0.7-1.5l1.4,0.3c-0.4,0.4-0.7,0.8-0.8,1.5c-0.1,0.5,0,1,0.3,1.4
		c0.3,0.4,0.8,0.7,1.5,0.9c0.7,0.2,1.2,0.1,1.7-0.1c0.4-0.2,0.7-0.6,0.8-1.1c0.1-0.3,0.1-0.5,0-0.7l-1.3-0.3l-0.3,1.1l-1.2-0.3
		l0.5-2.4L68.8,107.6z M70.6,101.9l-0.3,1.4l-1.6,0.1l-0.5,2l1.4,0.7l-0.3,1.4l-6.2-3.6l0.3-1.5L70.6,101.9z M67.5,103.4l-2.4,0.1
		c-0.2,0-0.4,0-0.6,0l0,0c0.2,0.1,0.4,0.1,0.6,0.2l2.1,1.1L67.5,103.4z M64.6,97.8l1.2,0.3l-0.1,0.5l4.3,1L70,99l1.2,0.3l-0.5,2.2
		l-1.2-0.3l0.1-0.5l-4.3-1l-0.1,0.5l-1.2-0.3L64.6,97.8z M72.5,93.7l-0.3,1.3l-4.7,1.3c-0.3,0.1-0.5,0.1-0.6,0.2l0,0
		c0.2,0,0.6,0.1,1.1,0.2l3.6,0.8l-0.3,1.2l-6.6-1.5l0.3-1.3l4.6-1.3c0.2-0.1,0.4-0.1,0.6-0.2l0,0c-0.2,0-0.5-0.1-0.9-0.2l-3.7-0.8
		l0.3-1.2L72.5,93.7z M72.4,92.9l-1.5-0.3c0.3-0.2,0.5-0.4,0.7-0.6c0.2-0.2,0.3-0.5,0.4-0.8c0-0.2,0.1-0.3,0-0.4
		c0-0.1,0-0.2-0.1-0.3c0-0.1-0.1-0.2-0.2-0.2c-0.1-0.1-0.2-0.1-0.3-0.1c-0.1,0-0.3,0-0.4,0c-0.1,0-0.2,0.1-0.3,0.2
		c-0.1,0.1-0.2,0.2-0.3,0.3c-0.1,0.1-0.2,0.3-0.4,0.4c-0.3,0.4-0.7,0.6-1,0.8c-0.4,0.1-0.8,0.2-1.2,0.1c-0.3-0.1-0.6-0.2-0.9-0.4
		c-0.2-0.2-0.4-0.4-0.5-0.6c-0.1-0.2-0.2-0.5-0.2-0.8c0-0.3,0-0.6,0.1-0.9c0.1-0.3,0.1-0.5,0.2-0.8c0.1-0.2,0.2-0.4,0.3-0.6l1.4,0.3
		c-0.1,0.1-0.2,0.2-0.3,0.3c-0.1,0.1-0.2,0.2-0.2,0.3c-0.1,0.1-0.1,0.2-0.2,0.3c0,0.1-0.1,0.2-0.1,0.3c0,0.1,0,0.3,0,0.4
		c0,0.1,0,0.2,0.1,0.3c0,0.1,0.1,0.2,0.2,0.2c0.1,0.1,0.2,0.1,0.3,0.1c0.1,0,0.2,0,0.3,0c0.1,0,0.2-0.1,0.3-0.2
		c0.1-0.1,0.2-0.2,0.3-0.3c0.1-0.1,0.2-0.2,0.3-0.4c0.2-0.2,0.3-0.4,0.5-0.5c0.2-0.1,0.3-0.3,0.5-0.4c0.2-0.1,0.4-0.1,0.6-0.2
		c0.2,0,0.5,0,0.7,0.1c0.4,0.1,0.7,0.2,0.9,0.4c0.2,0.2,0.4,0.4,0.5,0.6c0.1,0.2,0.2,0.5,0.2,0.8c0,0.3,0,0.6-0.1,0.9
		c-0.1,0.3-0.2,0.6-0.3,0.8C72.7,92.6,72.6,92.8,72.4,92.9z M69.2,83.2l-0.4,1.6l5.4,1.3L74,87.3L68.5,86l-0.4,1.6L67,87.3l1-4.4
		L69.2,83.2z M76.3,77.1L76,78.6L74.1,79c-0.1,0-0.3,0.1-0.4,0.1c-0.1,0-0.2,0.1-0.3,0.1c-0.1,0-0.2,0.1-0.2,0.2
		c-0.1,0.1-0.1,0.1-0.1,0.2L73,80l2.5,0.6l-0.3,1.2l-6.6-1.5l0.5-2c0.3-1.3,1.1-1.9,2.3-1.6c0.2,0.1,0.4,0.1,0.6,0.2
		c0.2,0.1,0.3,0.2,0.5,0.4c0.1,0.1,0.2,0.3,0.3,0.5c0.1,0.2,0.1,0.4,0.2,0.6l0,0c0-0.1,0.1-0.1,0.2-0.2c0.1-0.1,0.2-0.1,0.3-0.2
		c0.1-0.1,0.2-0.1,0.3-0.1c0.1,0,0.2-0.1,0.4-0.1L76.3,77.1z M70,79.3l1.8,0.4l0.1-0.5c0.1-0.3,0-0.5-0.1-0.7
		c-0.2-0.2-0.4-0.3-0.6-0.4c-0.6-0.1-0.9,0.1-1.1,0.7L70,79.3z M77.7,71.3l-0.3,1.4l-1.6,0.1l-0.5,2l1.4,0.7l-0.3,1.4l-6.2-3.6
		l0.3-1.5L77.7,71.3z M74.6,72.7l-2.4,0.1c-0.2,0-0.4,0-0.6,0l0,0c0.2,0.1,0.4,0.1,0.6,0.2l2.1,1.1L74.6,72.7z M78.4,67
		c0.1,0.5,0.1,1,0,1.7c-0.2,0.9-0.7,1.5-1.4,1.8c-0.7,0.3-1.6,0.4-2.6,0.2c-1.1-0.2-1.9-0.7-2.4-1.4c-0.5-0.7-0.7-1.5-0.5-2.4
		c0.1-0.5,0.3-1,0.6-1.3l1.4,0.3c-0.4,0.3-0.6,0.7-0.7,1.2c-0.1,0.5,0,1,0.3,1.4s0.8,0.7,1.5,0.8c0.6,0.1,1.2,0.1,1.6-0.1
		c0.5-0.2,0.7-0.6,0.9-1.1c0.1-0.5,0.1-1-0.1-1.4L78.4,67z M72.6,62.7l1.2,0.3l-0.1,0.5l4.3,1l0.1-0.5l1.2,0.3l-0.5,2.2l-1.2-0.3
		l0.1-0.5l-4.3-1l-0.1,0.5l-1.2-0.3L72.6,62.7z M79.1,63.7l-1.5-0.3c0.3-0.2,0.5-0.4,0.7-0.6c0.2-0.2,0.3-0.5,0.4-0.8
		c0-0.2,0.1-0.3,0-0.4c0-0.1,0-0.2-0.1-0.3c0-0.1-0.1-0.2-0.2-0.2c-0.1-0.1-0.2-0.1-0.3-0.1c-0.1,0-0.3,0-0.4,0
		c-0.1,0-0.2,0.1-0.3,0.2c-0.1,0.1-0.2,0.2-0.3,0.3s-0.2,0.3-0.4,0.4c-0.3,0.4-0.7,0.6-1,0.8s-0.8,0.2-1.2,0.1
		c-0.3-0.1-0.6-0.2-0.9-0.4s-0.4-0.4-0.5-0.6c-0.1-0.2-0.2-0.5-0.2-0.8c0-0.3,0-0.6,0.1-0.9c0.1-0.3,0.1-0.5,0.2-0.8
		c0.1-0.2,0.2-0.4,0.3-0.6l1.4,0.3c-0.1,0.1-0.2,0.2-0.3,0.3c-0.1,0.1-0.2,0.2-0.2,0.3c-0.1,0.1-0.1,0.2-0.2,0.3
		c0,0.1-0.1,0.2-0.1,0.3c0,0.1,0,0.3,0,0.4c0,0.1,0,0.2,0.1,0.3c0,0.1,0.1,0.2,0.2,0.2c0.1,0.1,0.2,0.1,0.3,0.1c0.1,0,0.2,0,0.3,0
		c0.1,0,0.2-0.1,0.3-0.2c0.1-0.1,0.2-0.2,0.3-0.3c0.1-0.1,0.2-0.2,0.3-0.4c0.2-0.2,0.3-0.4,0.5-0.5c0.2-0.1,0.3-0.3,0.5-0.4
		c0.2-0.1,0.4-0.1,0.6-0.2c0.2,0,0.5,0,0.7,0.1c0.4,0.1,0.7,0.2,0.9,0.4c0.2,0.2,0.4,0.4,0.5,0.6c0.1,0.2,0.2,0.5,0.2,0.8
		s0,0.6-0.1,0.9c-0.1,0.3-0.2,0.6-0.3,0.8C79.5,63.3,79.3,63.5,79.1,63.7z M81.8,53.1l-0.3,1.2l-4-0.9c-0.4-0.1-0.9-0.2-1.4-0.4l0,0
		c0.4,0.2,0.7,0.3,0.8,0.4l4.2,2.3l-0.2,1l-4.8,0.3c-0.1,0-0.5,0-1,0l0,0c0.7,0.1,1.2,0.2,1.7,0.3l3.7,0.8l-0.3,1.1l-6.6-1.5
		l0.4-1.8l4.2-0.2c0.3,0,0.7,0,1,0l0,0c-0.4-0.2-0.7-0.3-0.9-0.4l-3.7-2l0.4-1.8L81.8,53.1z"/>
</g>
</svg>
