<?xml version="1.0" encoding="utf-8"?>
<!-- Generator: Adobe Illustrator 25.2.1, SVG Export Plug-In . SVG Version: 6.00 Build 0)  -->
<svg version="1.1" id="Layer_1" xmlns="http://www.w3.org/2000/svg" xmlns:xlink="http://www.w3.org/1999/xlink" x="0px" y="0px"
	 viewBox="0 0 120 105" style="enable-background:new 0 0 120 105;" xml:space="preserve">
<style type="text/css">
	.st0{fill-rule:evenodd;clip-rule:evenodd;fill:#53575A;}
	.st1{fill-rule:evenodd;clip-rule:evenodd;fill:#FFFFFF;}
	.st2{fill:#CE0E2D;}
	.st3{fill:#FFFFFF;}
</style>
<g>
	<path class="st0" d="M94.5,16.6c-22.7-5.4-46.4-5.4-69,0c0,0,0,25.2,0,28.7l0,0C25.5,64.4,39,82.9,60,92.5
		c21-9.6,34.5-28.1,34.5-47.2C94.5,41.4,94.5,16.6,94.5,16.6z"/>
	<path class="st1" d="M60,90.5c-19.8-9.4-32.6-27-32.7-45.2v-17C38,25.9,49,24.6,60,24.6s22,1.2,32.7,3.7v17
		C92.6,63.4,79.8,81.1,60,90.5z"/>
	<g>
		<path class="st2" d="M55.2,75.3v-3.9h-0.6v-0.5c0.2,0,0.4-0.1,0.5-0.2c0.2-0.1,0.3-0.3,0.4-0.4H56v5H55.2z"/>
		<path class="st2" d="M59.5,74.2c0,0.3-0.1,0.6-0.4,0.9c-0.2,0.2-0.5,0.3-0.9,0.3h-0.1c-0.3,0-0.6-0.1-0.9-0.4
			c0-0.2-0.2-0.5-0.2-0.8v-0.5c0-0.3,0.1-0.6,0.3-0.8c0.1-0.1,0.2-0.2,0.3-0.2c-0.2-0.1-0.4-0.3-0.5-0.5C57,72.1,57,71.9,57,71.7
			v-0.3c0-0.3,0.1-0.6,0.3-0.8c0.2-0.2,0.5-0.4,0.9-0.4h0.1c0.4,0,0.6,0.1,0.9,0.4c0.2,0.2,0.3,0.5,0.3,0.8v0.3
			c0,0.3-0.1,0.6-0.3,0.8c-0.1,0.1-0.2,0.2-0.3,0.2c0.2,0.1,0.4,0.3,0.5,0.6c0.1,0.1,0.1,0.3,0.1,0.5V74.2z M58.8,71.6
			c0-0.3-0.1-0.6-0.3-0.6c0,0-0.1,0-0.2,0c-0.1,0-0.2,0-0.3,0.1s-0.1,0.1-0.1,0.2c0,0.1,0,0.2,0,0.3c0,0.2,0,0.4,0.1,0.5
			s0.2,0.2,0.4,0.2s0.3-0.1,0.4-0.2C58.7,71.9,58.8,71.8,58.8,71.6z M58.7,73.8c0-0.3-0.1-0.5-0.2-0.6c-0.1,0-0.2-0.1-0.3-0.1
			c-0.2,0-0.3,0.1-0.4,0.3c0,0.1-0.1,0.2-0.1,0.4V74c0,0.2,0.1,0.3,0.2,0.4c0.1,0.1,0.2,0.1,0.3,0.1c0.2,0,0.3-0.1,0.4-0.3
			c0-0.1,0-0.1,0-0.2L58.7,73.8L58.7,73.8z"/>
		<path class="st2" d="M62.2,70.3v0.8l-1.1,4.3h-0.7l1.1-4.3h-1.3v-0.8C60.2,70.3,62.2,70.3,62.2,70.3z"/>
		<path class="st2" d="M63.9,74.6c0.3,0,0.5-0.2,0.5-0.5v-0.3c0-0.5-0.3-0.8-0.8-0.8v-0.6c0.3,0,0.5-0.1,0.6-0.2s0.2-0.4,0.2-0.6
			v-0.1c0-0.3-0.1-0.5-0.4-0.5c-0.2,0-0.3,0.1-0.4,0.2c-0.1,0.1-0.1,0.2-0.1,0.4v0.1h-0.7v-0.2c0-0.4,0.1-0.6,0.3-0.9
			c0.2-0.3,0.5-0.4,0.9-0.4s0.6,0.1,0.9,0.4c0.2,0.2,0.3,0.5,0.3,0.8v0.2c0,0.3-0.1,0.6-0.3,0.8c-0.1,0.1-0.2,0.2-0.3,0.2
			c0.2,0.1,0.4,0.3,0.5,0.6c0.1,0.1,0.1,0.3,0.1,0.5v0.4c0,0.4-0.1,0.7-0.4,0.9c-0.2,0.2-0.5,0.3-0.9,0.3c-0.3,0-0.6-0.1-0.9-0.4
			c-0.2-0.2-0.3-0.5-0.3-0.8V74l0.7-0.1v0.2c0,0.1,0.1,0.2,0.1,0.3C63.6,74.6,63.7,74.6,63.9,74.6z"/>
	</g>
	<path class="st2" d="M64.7,39.6c0,0,1.3,2.4,4.3,3.2c2.8,0.7,4.4,0,4.4,0l1.4,1.8c0,0,0.1-0.5,0-0.8s-1.1-2.4-1.1-2.4l0.2-0.8
		c0,0-1.5-0.8-3.1-1.2c-2.3-0.6-3.6-0.7-3.6-0.7l0.5,0.8C67.7,39.4,66.3,39.3,64.7,39.6z"/>
	<path class="st2" d="M35.8,52.7c-1.4-8.1,2.9-16.2,7.1-19.6c-5.3,2.1-7.4,5.7-10.3,11.8c0,0-0.1-13.1,13.2-17.3
		c-9.7,1-16.2,2.5-16.2,2.5v15.1c0,8.3,2.9,16.6,8.2,24.2c5.4,7.5,12.9,13.9,21.9,18.3l0.2,0.1l0.2-0.1c3-1.5,5.8-3.2,8.4-5
		C40.9,72.3,36.5,58.4,35.8,52.7z"/>
	<path class="st2" d="M63.6,27c9.4,1.8,10.1,6.9,10.1,6.9s0-1.5-0.4-2.9c4.2,3.3,3.1,6.7,3.1,6.7s2.4,1.6,2.9,2.3
		c0.6,0.8,0.4,2.3,0.4,2.3s-0.7-0.5-1.4-0.8s-1.6-0.6-1.6-0.6s1.9,1.8,3.8,3.4C82.4,45.9,83,47,83,47c-0.3,0-0.6,0.6-1.6,0.6
		c-0.8,0-2-0.5-2.2-0.5c-0.7,0-0.6,0.5-1.5,0.5s-1.1-1-1.5-0.7s0.1,1.9,2.3,2.2c1.6,0.2,1.9,1.1,1.9,1.4c0,0.3-0.2,2.8-2.8,3.8
		c-3.5,1.3-5.9,0.7-5.9,0.7c-1.5,1.3-1.2,4.4-1.1,4.9c2.3-0.1,3.9-0.8,5.3-1.5c0.3-0.5,0.8-1.4,1-2.3c0,0,0.7,0.5,0.6,1.7l0,0
		c0.9-0.3,1.8-0.4,2.7-0.1c0.3-0.3,0.7-1.1,0.8-1.7c0,0,0.9,0.8,0.4,2.3c1.4,1,1.7,5.5-2.3,7.2c-0.2,0.1-0.3,0.1-0.3,0.1
		s0.6-1,0.7-1.8c0.1-0.9-0.4-1.1-0.4-1.1s-0.2,1.4-1.6,2.8c-1.4,1.3-3.3,1.5-3.3,1.5c-1.8-2.8-4.9-4.6-9.5-5.6
		C63.3,54.8,69,48.6,69,48.6s-5.7,1.9-7.1,6.7c0,0-3.8-1.9-5.3-6.5c-1.6-5.2,1.6-8.4,1.6-8.4s-5.8,2.8-4.7,10.3
		c1.1,7.2,10.8,12.9,10.8,12.9c-7.4-2.9-16.2-7.9-18.6-14c-4.3-10.6,1.6-17.3,1.6-17.3s-6.5,4-6.7,13.9C40.1,64.3,69.8,71.4,79,73.4
		c1.1-1.3,2.1-2.6,3.1-3.9c5.4-7.6,8.2-15.9,8.2-24.2V30.2C90.4,30.2,79,27.4,63.6,27z M82.5,54.9c0,0-0.4-0.4-0.7-0.8s-1-0.7-1-0.7
		c0.7-1.2,1-2.1,1.1-2.9c0-0.9,0.5-0.9,1.1-1.3c0.9-0.6,0.8-1.4,0.8-1.4C85.3,50.2,83.4,53.5,82.5,54.9z"/>
	<g>
		<path class="st3" d="M56.7,14.7c1.2,0,2.4,0,3.5-0.1c0,0.4,0,0.8,0,1.1c-0.4,0-0.9,0-1.3,0c0,2.1,0,4.3,0,6.4c-0.4,0-0.8,0-1.2,0
			c0-2.1,0-4.3,0-6.4c-0.4,0-0.9,0-1.3,0C56.5,15.5,56.6,15.1,56.7,14.7z M55.4,18.4c0,0-0.5-0.4-0.6-0.5c-0.3-0.2-0.8-0.7-0.8-1.2
			c0-0.6,0.3-0.8,0.6-0.8s0.6,0,0.9,0c0.1-0.4,0.2-0.8,0.3-1.2c-0.5,0-0.9,0-1.4,0.1c-1.3,0.1-1.7,1.1-1.7,1.9c0,1,0.7,1.6,1.1,2
			c0,0,0.5,0.4,0.6,0.5c0.3,0.2,0.8,0.7,0.8,1.2c0,0.6-0.3,0.8-0.6,0.8c-0.4,0-0.9,0-1.3,0.1c-0.1,0.4-0.2,0.8-0.3,1.2
			c0.6,0,1.1-0.1,1.7-0.1c1.3-0.1,1.7-1.1,1.7-1.9C56.5,19.4,55.8,18.8,55.4,18.4z M38.5,16.9c0.4,0.3,0.5,0.7,0.5,1.2
			c0,1.4,0,2.8,0,4.1c0,0.5-0.2,1-0.5,1.4c-0.4,0.4-0.8,0.7-1.3,0.7c-0.5,0.1-0.9,0-1.3-0.3c-0.3-0.3-0.5-0.7-0.5-1.2
			c0-1.4,0-2.8,0-4.1c0-0.5,0.2-1,0.5-1.4c0.4-0.4,0.8-0.7,1.3-0.8C37.8,16.5,38.2,16.6,38.5,16.9z M37.9,18.2
			c0-0.2-0.1-0.3-0.2-0.4c-0.1-0.1-0.3-0.1-0.5-0.1s-0.3,0.1-0.5,0.3c-0.1,0.1-0.2,0.3-0.2,0.5c0,1.4,0,2.8,0,4.2
			c0,0.2,0.1,0.3,0.2,0.4c0.1,0.1,0.3,0.1,0.5,0.1s0.3-0.1,0.5-0.3c0.1-0.1,0.2-0.3,0.2-0.5C37.9,21,37.9,19.6,37.9,18.2z
			 M46.6,15.3c-0.5,0.1-0.9,0.3-1.3,0.7c-0.4,0.4-0.5,0.8-0.5,1.3c0,1.4,0,2.8,0,4.1c0,0.5,0.2,0.9,0.5,1.2c0.4,0.3,0.8,0.4,1.3,0.4
			s0.9-0.3,1.3-0.6c0.4-0.4,0.5-0.8,0.5-1.3c0-0.2,0-0.5,0-0.7c-0.4,0-0.8,0.1-1.2,0.1c0,0.2,0,0.5,0,0.7c0,0.2-0.1,0.3-0.2,0.5
			c-0.1,0.1-0.3,0.2-0.5,0.2s-0.3,0-0.5-0.1c-0.1-0.1-0.2-0.3-0.2-0.4c0-1.4,0-2.8,0-4.2c0-0.2,0.1-0.3,0.2-0.5
			c0.2-0.2,0.4-0.2,0.6-0.3c0.2,0,0.3,0,0.5,0.1c0.1,0.1,0.2,0.3,0.2,0.4c0,0.2,0,0.4,0,0.6c0.4,0,0.8-0.1,1.2-0.1
			c0-0.2,0-0.4,0-0.5c0-0.5-0.2-0.9-0.5-1.2C47.6,15.4,47.1,15.3,46.6,15.3z M42.6,21.7c0,0.2-0.1,0.3-0.2,0.5
			c-0.1,0.1-0.3,0.2-0.5,0.3c-0.2,0-0.3,0-0.5-0.1c-0.1-0.1-0.2-0.3-0.2-0.4c0-2,0-3.9,0-5.9c-0.4,0.1-0.7,0.1-1.1,0.2
			c0,2,0,3.9,0,5.9c0,0.5,0.2,0.9,0.5,1.2c0.4,0.3,0.8,0.4,1.3,0.3s0.9-0.3,1.3-0.7c0.4-0.4,0.5-0.8,0.5-1.3c0-2,0-3.9,0-5.9
			c-0.4,0-0.8,0.1-1.2,0.1C42.6,17.8,42.6,19.8,42.6,21.7z M77.8,21.6c0,0.2-0.1,0.3-0.2,0.4c-0.1,0.1-0.3,0.2-0.5,0.1
			c-0.2,0-0.3-0.1-0.5-0.2c-0.1-0.1-0.2-0.3-0.2-0.5c0-2,0-3.9,0-5.9c-0.4,0-0.7-0.1-1.1-0.1c0,2,0,3.9,0,5.9c0,0.5,0.2,0.9,0.5,1.3
			c0.4,0.4,0.8,0.6,1.3,0.7s0.9-0.1,1.3-0.4c0.4-0.3,0.5-0.7,0.5-1.2c0-2,0-3.9,0-5.9c-0.4-0.1-0.8-0.1-1.2-0.2
			C77.8,17.7,77.8,19.7,77.8,21.6z M29.8,18c-0.5,0.1-0.9,0.4-1.3,0.8c-0.4,0.4-0.5,0.9-0.5,1.4c0,1.4,0,2.8,0,4.1
			c0,0.5,0.2,0.9,0.5,1.2c0.3,0.3,0.8,0.4,1.3,0.2c0.5-0.1,0.9-0.4,1.2-0.8c0.4-0.4,0.5-0.9,0.5-1.4c0-0.9,0-1.8,0-2.7
			c-0.5,0.1-1,0.2-1.4,0.3c-0.1,0.4-0.2,0.8-0.3,1.2c0.2,0,0.4-0.1,0.6-0.1c0,0.5,0,1,0,1.5c0,0.2-0.1,0.3-0.2,0.5s-0.3,0.3-0.5,0.3
			s-0.3,0-0.5-0.1C29.1,24.3,29,24.2,29,24c0-1.4,0-2.8,0-4.2c0-0.2,0.1-0.4,0.2-0.5c0.1-0.2,0.3-0.3,0.5-0.3s0.3,0,0.5,0.1
			c0.1,0.1,0.2,0.2,0.2,0.4c0,0.2,0,0.4,0,0.6c0.4-0.1,0.8-0.2,1.1-0.2c0-0.2,0-0.4,0-0.5c0-0.5-0.2-0.9-0.5-1.2
			C30.7,18,30.3,17.9,29.8,18z M52.1,16.1c0.1-0.4,0.2-0.8,0.3-1.2c-1,0.1-2.1,0.1-3.1,0.2c0,2.5,0,5.1,0,7.6
			c0.9-0.1,1.8-0.1,2.8-0.2c0.1-0.4,0.2-0.8,0.3-1.2c-0.6,0-1.3,0.1-1.9,0.1c0-0.7,0-1.4,0-2.1c0.5,0,1-0.1,1.5-0.1
			c0-0.4,0-0.8,0-1.1c-0.5,0-1,0.1-1.5,0.1c0-0.7,0-1.4,0-2.1C51,16.1,51.6,16.1,52.1,16.1z M63.7,15.8c0.2-0.3,0.3-0.7,0.4-1.1
			c-1,0-2.1,0-3.1,0c0,2.5,0,5.1,0,7.6c0.9,0,1.9,0,2.8,0c0.1-0.4,0.2-0.8,0.3-1.1c-0.6,0-1.3,0-1.9,0c0-0.7,0-1.4,0-2.1
			c0.5,0,1,0,1.5,0c0-0.4,0-0.8,0-1.1c-0.5,0-1,0-1.5,0c0-0.7,0-1.4,0-2.1C62.7,15.8,63.2,15.8,63.7,15.8z M67.9,18.7
			c0.3,1.2,0.6,2.5,0.9,3.7c-0.4,0-0.8,0-1.2-0.1c-0.3-1.1-0.5-2.2-0.8-3.3c-0.2,0-0.5,0-0.7,0c0,1.1,0,2.1,0,3.2
			c-0.4,0-0.8,0-1.2,0c0-2.5,0-5.1,0-7.6c0.6,0,1.2,0,1.8,0.1c0.6,0,1.1,0.2,1.4,0.6c0.3,0.3,0.4,0.8,0.4,1.3c0,0.2,0,0.5,0,0.7
			C68.5,18,68.3,18.4,67.9,18.7z M67.4,16.6c0-0.4-0.2-0.7-0.7-0.7c-0.2,0-0.5,0-0.7,0c0,0.7,0,1.4,0,2.1c0.2,0,0.5,0,0.7,0
			s0.3,0,0.5-0.2c0.1-0.1,0.2-0.3,0.2-0.5C67.4,17.1,67.4,16.9,67.4,16.6z M73.7,19.2c0.3,1.3,0.6,2.5,0.8,3.8
			c-0.4,0-0.8-0.1-1.2-0.1c-0.3-1.1-0.5-2.2-0.8-3.3c-0.2,0-0.5,0-0.7-0.1c0,1.1,0,2.1,0,3.2c-0.4,0-0.8-0.1-1.1-0.1
			c0-2.5,0-5.1,0-7.6c0.6,0,1.2,0.1,1.8,0.1c0.6,0.1,1.1,0.3,1.4,0.7c0.3,0.3,0.4,0.8,0.4,1.3c0,0.2,0,0.5,0,0.7
			C74.3,18.4,74.1,18.8,73.7,19.2z M73.2,17.1c0-0.4-0.2-0.7-0.7-0.7c-0.2,0-0.5,0-0.7-0.1c0,0.7,0,1.4,0,2.1c0.2,0,0.5,0,0.7,0.1
			c0.2,0,0.3,0,0.5-0.2c0.1-0.1,0.2-0.3,0.2-0.4C73.2,17.5,73.2,17.3,73.2,17.1z M88.5,22.5c0,0.2,0,0.3,0,0.5
			c0,0.5-0.1,0.9-0.3,1.2c-0.1,0.2-0.3,0.4-0.6,0.5c-0.3,0.1-0.6,0.2-0.9,0.1c-0.7-0.1-1.4-0.3-2.1-0.4c0-2.5,0-5.1,0-7.6
			c0.6,0.1,1.1,0.2,1.7,0.3c0.5,0.1,0.9,0.3,1.2,0.6c0.3,0.3,0.5,0.6,0.7,1.1c0.1,0.2,0.1,0.5,0.1,0.8c0,0.5-0.1,0.9-0.4,1.1
			c-0.1,0.1-0.2,0.2-0.4,0.2c0.3,0.1,0.5,0.4,0.6,0.7C88.4,21.9,88.4,22.2,88.5,22.5z M85.9,20.1c0.2,0,0.4,0.1,0.6,0.1
			c0.4,0.1,0.6-0.1,0.7-0.4c0-0.1,0.1-0.3,0.1-0.5c0-0.3-0.1-0.6-0.2-0.8c-0.1-0.2-0.3-0.3-0.5-0.3s-0.4-0.1-0.6-0.1
			C85.9,18.8,85.9,19.5,85.9,20.1z M87.3,22.7c0-0.4-0.1-0.8-0.3-1c-0.1-0.2-0.3-0.3-0.6-0.4c-0.2,0-0.4-0.1-0.6-0.1
			c0,0.8,0,1.5,0,2.3c0.2,0,0.4,0.1,0.6,0.1c0.4,0.1,0.7-0.1,0.8-0.4C87.3,23,87.3,22.9,87.3,22.7z M91.7,18.2
			c-0.3,0.8-0.6,1.7-0.8,2.5c-0.3-1-0.6-1.9-0.8-2.9c-0.4-0.1-0.8-0.2-1.3-0.3c0.5,1.6,1,3.2,1.5,4.8c0,1.1,0,2.1,0,3.2
			c0.4,0.1,0.8,0.2,1.1,0.3c0-1.1,0-2.1,0-3.2c0.5-1.4,1-2.7,1.5-4.1C92.5,18.4,92.1,18.3,91.7,18.2z M33.7,23.7c0-2.1,0-4.3,0-6.4
			c-0.4,0-0.7,0.1-1.1,0.2c0,2.5,0,5.1,0,7.6c0.8-0.2,1.6-0.3,2.4-0.5c-0.1-0.4-0.2-0.7-0.3-1.1C34.4,23.6,34,23.6,33.7,23.7z"/>
		<path class="st3" d="M81.9,16.3c-0.5-0.1-0.9,0-1.3,0.3c-0.4,0.3-0.5,0.7-0.5,1.2c0,1.4,0,2.8,0,4.1c0,0.5,0.2,0.9,0.5,1.4
			c0.4,0.4,0.8,0.6,1.3,0.7s0.9,0,1.2-0.3c0.4-0.3,0.5-0.7,0.5-1.2c0-0.9,0-1.8,0-2.7c-0.5-0.1-1-0.2-1.5-0.2
			c-0.1,0.4-0.2,0.7-0.3,1.1c0.2,0,0.4,0.1,0.6,0.1c0,0.5,0,1,0,1.5c0,0.2-0.1,0.3-0.2,0.4s-0.3,0.1-0.5,0.1s-0.3-0.1-0.5-0.3
			C81.1,22.4,81,22.2,81,22c0-1.4,0-2.8,0-4.2c0-0.2,0.1-0.3,0.2-0.4c0.1-0.1,0.3-0.2,0.5-0.1c0.2,0,0.3,0.1,0.5,0.3
			c0.1,0.1,0.2,0.3,0.2,0.5c0,0.2,0,0.4,0,0.6c0.4,0.1,0.8,0.1,1.1,0.2c0-0.2,0-0.4,0-0.5c0-0.5-0.2-1-0.5-1.4
			C82.8,16.6,82.4,16.4,81.9,16.3z"/>
	</g>
</g>
</svg>
