<?xml version="1.0" encoding="utf-8"?>
<!-- Generator: Adobe Illustrator 25.3.0, SVG Export Plug-In . SVG Version: 6.00 Build 0)  -->
<svg version="1.1" id="Layer_1" xmlns="http://www.w3.org/2000/svg" xmlns:xlink="http://www.w3.org/1999/xlink" x="0px" y="0px"
	 viewBox="0 0 750.2000122 400.1000061" style="enable-background:new 0 0 750.2000122 400.1000061;" xml:space="preserve">
<style type="text/css">
	.st0{fill:none;}
</style>
<g>
	<path class="st0" d="M174.312561,150.7649231c4.3325195,0.4752197,8.4725952,1.1502686,12.3019409,2.0665283
		C182.6829834,151.8352966,178.5545654,151.1663513,174.312561,150.7649231z"/>
	<path d="M203.2025757,119.0844421c15.8937378-18.8388672,59.8887329-13.2533569,88.921814-14.6010742
		c-0.6429443-12.7630615-1.6950073-26.2116699-3.7199097-35.7670288c-0.9942627-4.7171021-2.05896-7.6161499-3.5426025-9.8189697
		l-3.9657593-1.1971436c-8.1755371,4.387146-23.8953247,13.184082-30.4390869,19.3188477
		c3.1749878-8.5479736,9.0958252-17.0926514,14.7940063-24.041748l-13.7327271-4.1455688
		c0.0113525,0.2245483,0.0196533,0.4698486,0.0196533,0.7564697c-0.0029297,2.8369141-0.9017944,7.9881592-4.4766235,13.0378418
		c-4.9196777,6.9231567-13.50354,13.2630005-19.7324219,16.0635376c-5.8892822,2.6411133-14.0159912,4.6575317-14.0299072,4.6622314
		l-0.5028076,0.124939l-0.0123291-0.0599365c-3.7584229,0.942749-7.5658569,1.4651489-11.378418,1.4661865
		c-0.3682861,0-0.7365112-0.0047607-1.1046753-0.0142212c-2.8930054-0.0754395-5.690979-0.4794312-8.4086914-1.1420288
		l-0.0211182,0.0960693l-0.4740601-0.0888672c-0.0279541-0.0073242-7.2800293-1.3604126-13.8613892-5.0647583
		c-4.7280884-2.6652832-11.5857544-8.272644-17.0185547-13.421936c-0.3617554-0.3002319-0.7252808-0.5993652-1.0855713-0.9002075
		l-0.1014404-0.0848389l-0.0899658-0.2418823c-0.4613647-0.4500732-0.9137573-0.8962402-1.3453979-1.3322754
		c-3.7286377-3.7774658-4.2369995-8.0361328-4.2387695-11.3116455c0.0003052-1.0748901-0.0874634-1.9269409,0-2.5411987
		l-10.7601318,3.2722778c5.9139404,7.0990601,12.2052002,16.0021362,15.5144653,24.9115601
		c-6.8991089-6.4679565-23.9934082-15.8925171-31.696228-19.9904785l-7.4109497,2.2537231
		c-1.477356,2.2058716-2.4150391,4.7324219-3.406189,9.434021c-1.0614624,5.0119629-1.8580322,11.1035156-2.4668579,17.6030884
		c-0.5498047,5.8677368-0.946167,12.0664673-1.2510986,18.1135254
		C141.3232422,106.0552063,187.2138062,100.132782,203.2025757,119.0844421z"/>
	<path d="M186.614502,152.8314514c-3.8293457-0.9162598-7.9694214-1.5913086-12.3019409-2.0665283
		c-24.5588379-2.6939087-55.2426147,0.9940796-69.9194336,3.1062622l0.0046997,11.1481934
		c18.6975708-4.6699829,63.3456421-17.7774658,88.3849487-10.2849121c0.7880249,0.2357788,1.5596313,0.4887085,2.307373,0.7661743
		C192.50177,154.4439392,189.6588135,153.559845,186.614502,152.8314514z"/>
	<path d="M211.0474854,155.5006409c-3.0354004,1.1266479-5.7255859,2.605835-7.9786377,4.4955444
		c-2.2530518-1.8897095-4.9432983-3.3688965-7.9786987-4.4955444c3.0496826,1.2450562,5.7424927,2.7316895,7.9744873,4.4989014
		c-0.0032349,0.0026855-0.0066528,0.005249-0.0098877,0.0079346c-0.0462036,0.0388184-0.0956421,0.074585-0.1414795,0.1137695
		c0.0470581-0.0379028,0.0982056-0.0733032,0.1456909-0.1109619c0.0032349-0.0025635,0.0066528-0.0049438,0.0098877-0.0075073
		c0.0507202,0.0401611,0.1052856,0.0780029,0.1555176,0.1184692c-0.0490112-0.0418701-0.1019287-0.0802002-0.1513672-0.1217041
		C205.3049927,158.2323303,207.9978027,156.745697,211.0474854,155.5006409z"/>
	<path d="M211.0474854,155.5006409c0.6834106-0.2536011,1.387207-0.486145,2.1043091-0.704895
		c24.2380371-7.3924561,67.1242676,4.7574463,86.8026123,9.7728882l0.0108643-10.9498291
		C279.6655884,150.778717,234.6315918,145.872406,211.0474854,155.5006409z"/>
	<path d="M384.1494751,83.3763733l16.5646973,74.3527832l46.5206909-9.1381226
		c1.7939453-2.1080322,4.8356934-7.8355713,5.3432617-22.6896973l0.0410156-1.2114258
		c0.7692871-22.5865479,1.9289551-55.1608887,8.3660889-64.8075562L384.1494751,83.3763733z"/>
	<path d="M103.7509155,148.7286072l0.0046997-0.0021973l0.1558228-0.0874023
		c0.1435547-0.0889282,0.3632202-0.244873,0.6374512-0.5030518c0.5482178-0.5162964,1.315979-1.4424438,2.1190796-3.0602417
		c1.6065674-3.2341919,3.3459473-9.2389526,3.7190552-20.1746216c0.564209-16.4762573,1.3330688-41.1837769,4.5500488-56.3880005
		c0.8874512-4.1730347,1.3382568-6.4373779,2.6717529-8.8543091L39.3972168,83.2822571L56.0560303,158.38797
		L103.7509155,148.7286072z"/>
	<path d="M365.9796753,83.2822571l-79.9005737-24.2822876c1.3334961,2.4169312,2.2075806,5.0100098,3.0950317,9.1830444
		c3.21698,15.2042236,3.9858398,39.9117432,4.5500488,56.3880005c0.3731079,10.9356689,2.1124878,16.9404297,3.7190552,20.1746216
		c0.8031006,1.6177979,1.5708618,2.5439453,2.1190796,3.0602417c0.274231,0.2581787,0.4938965,0.4141235,0.6374512,0.5030518
		l0.1558228,0.0874023l0.0046997,0.0021973l48.9605713,9.9894409L365.9796753,83.2822571z"/>
	<path d="M630.3515625,59.1882019c6.4371338,9.6466675,7.5968018,42.8297729,8.3660889,65.4163208l0.0410156,1.2114258
		c0.5075684,14.854126,3.5493164,20.581665,5.3432617,22.6896973l49.7936401,9.2235107l16.5646362-74.3527832
		L630.3515625,59.1882019z"/>
</g>
</svg>
