<?xml version="1.0" encoding="utf-8"?>
<!-- Generator: Adobe Illustrator 25.3.0, SVG Export Plug-In . SVG Version: 6.00 Build 0)  -->
<svg version="1.1" id="Layer_1" xmlns="http://www.w3.org/2000/svg" xmlns:xlink="http://www.w3.org/1999/xlink" x="0px" y="0px"
	 viewBox="0 0 750.2000122 400.1000061" style="enable-background:new 0 0 750.2000122 400.1000061;" xml:space="preserve">
<g>
	<polygon points="299.9384155,180.7438049 104.404541,180.7438049 104.4207764,218.9422302 299.9006348,218.9422302 	"/>
	<path d="M119.3029785,59.2823181c-1.477356,2.2058716-2.4150391,4.7324219-3.406189,9.434021
		c-0.7336426,3.4641113-1.3382568,7.4512329-1.8442993,11.7250977h67.0492554
		c-1.1801147-0.5196533-2.383606-1.1065674-3.5662231-1.7722168c-4.7280884-2.6652832-11.5857544-8.272644-17.0185547-13.421936
		c-0.3617554-0.3002319-0.7252808-0.5993652-1.0855713-0.9002075l-0.1014404-0.0848389l-0.0899658-0.2418823
		c-0.4613647-0.4500732-0.9137573-0.8962402-1.3453979-1.3322754c-3.7286377-3.7774658-4.2369995-8.0361328-4.2387695-11.3116455
		c0.0003052-1.0748901-0.0874634-1.9269409,0-2.5411987L119.3029785,59.2823181z"/>
	<path d="M227.3289185,78.6896057c-1.3953857,0.6257935-2.9161377,1.2146606-4.4250488,1.7518311h67.3417969
		c-0.5054932-4.2700806-1.1070557-8.2608643-1.8411865-11.7250977c-0.9942627-4.7171021-2.05896-7.6161499-3.5426025-9.8189697
		l-33.3435669-10.0656128c0.0113525,0.2245483,0.0196533,0.4698486,0.0196533,0.7564697
		c-0.0029297,2.8369141-0.9017944,7.9881592-4.4766235,13.0378418
		C242.1416626,69.5492249,233.5578003,75.8890686,227.3289185,78.6896057z"/>
	<polygon points="104.432251,245.9084167 104.4484863,284.1069031 299.8361816,284.1069031 299.8739624,245.9084167 	"/>
	<path d="M104.4604492,312.2396545l0.0174561,40.9939575c0.4974365,0.0296021,1.3870239,0.0823364,2.6196289,0.1544189
		c1.9800415,0.1158447,4.8395996,0.281311,8.3572998,0.4798584c7.0353394,0.3970947,16.7029419,0.9266357,27.2315674,1.4560547
		c21.0557861,1.059021,45.562439,2.1177368,59.3236694,2.1175537c24.0874023,0.0004883,81.2277832-3.2927246,95.1280518-4.1160278
		c1.237915-0.0733032,2.1312256-0.1269531,2.6297607-0.1569824l0.0404663-40.928833H104.4604492z"/>
	<path d="M292.3983765,110.4122009H111.9024048c-0.220459,5.1959839-0.3856812,10.1506958-0.5349731,14.5223999
		c-0.3778687,11.0257568-2.12677,17.1613159-3.8207397,20.5772095c-0.7478638,1.5108032-1.4851074,2.4755859-2.0903931,3.0988159
		h193.3892822c-0.6055298-0.6231689-1.3425903-1.5869141-2.0910034-3.0988159
		c-1.6939697-3.4158936-3.4428711-9.5514526-3.8206787-20.5772095
		C292.7850952,120.5649109,292.6190186,115.6078186,292.3983765,110.4122009z"/>
	<path d="M443.5349731,65.2181091l-26.946167,8.2393188l17.8399048,77.6491089l12.8061523-2.5155029
		c1.7939453-2.1080322,4.8356934-7.8355713,5.3432617-22.6896973l0.0410156-1.2114258
		c0.1797485-5.2767334,0.3818359-11.1003418,0.6665039-17.0476685L443.5349731,65.2181091z"/>
	<path d="M92.019165,151.1045837l11.7317505-2.3759766l0.0046997-0.0021973l0.1558228-0.0874023
		c0.1435547-0.0889282,0.3632202-0.244873,0.6374512-0.5030518c0.5482178-0.5162964,1.315979-1.4424438,2.1190796-3.0602417
		c1.6065674-3.2341919,3.3459473-9.2389526,3.7190552-20.1746216c0.1661987-4.8536377,0.3521729-10.4290771,0.6112671-16.2579346
		l-10.149353-43.9221191l-26.87854,8.1185303L92.019165,151.1045837z"/>
	<path d="M332.5303345,73.1167908l-26.953064-8.1912231l-12.0953979,52.659668
		c0.0877075,2.4441528,0.1671753,4.791687,0.2423096,6.9857788c0.3731079,10.9356689,2.1124878,16.9404297,3.7190552,20.1746216
		c0.8031006,1.6177979,1.5708618,2.5439453,2.1190796,3.0602417c0.274231,0.2581787,0.4938965,0.4141235,0.6374512,0.5030518
		l0.1558228,0.0874023l0.0046997,0.0021973l14.2032471,2.8978882L332.5303345,73.1167908z"/>
	<path d="M655.8686523,150.6852722l18.3929443-78.2387695l-26.9758911-8.1451416l-9.3978271,39.894104
		c0.3746338,7.1316528,0.6174316,14.1743164,0.8297729,20.4090576l0.0410156,1.2114258
		c0.5075684,14.854126,3.5493164,20.581665,5.3432617,22.6896973L655.8686523,150.6852722z"/>
</g>
</svg>
