<?xml version="1.0" encoding="utf-8"?>
<!-- Generator: Adobe Illustrator 25.3.0, SVG Export Plug-In . SVG Version: 6.00 Build 0)  -->
<svg version="1.1" id="Layer_1" xmlns="http://www.w3.org/2000/svg" xmlns:xlink="http://www.w3.org/1999/xlink" x="0px" y="0px"
	 viewBox="0 0 750.2000122 400.1000061" style="enable-background:new 0 0 750.2000122 400.1000061;" xml:space="preserve">
<g>
	<path d="M160.4539795,65.1950989c-0.3408813-0.2827148-0.6831665-0.5646362-1.022583-0.8480225l-0.1014404-0.0848389
		l-0.0899658-0.2418823c-0.4613647-0.4500732-0.9137573-0.8962402-1.3453979-1.3322754
		c-3.7286377-3.7774658-4.2369995-8.0361328-4.2387695-11.3116455c0.0003052-1.0748901-0.0874634-1.9269409,0-2.5411987
		l-18.7263794,5.6948853l-6.2601929,19.2922363L160.4539795,65.1950989z"/>
	<path d="M251.5183105,48.8317566c0.0113525,0.2245483,0.0196533,0.4698486,0.0196533,0.7564697
		c-0.0029297,2.8369141-0.9017944,7.9881592-4.4766235,13.0378418c-0.6702271,0.9431763-1.413269,1.8737793-2.2042847,2.7878418
		l30.9785767,8.4084473l-6.3491821-19.5664673L251.5183105,48.8317566z"/>
	<path d="M400.7141724,157.7291565l46.5206909-9.1381226c1.7939453-2.1080322,4.8356934-7.8355713,5.3432617-22.6896973
		l0.0410156-1.2114258c0.7692871-22.5865479,1.9289551-55.1608887,8.3660889-64.8075562l-76.8357544,23.4940186
		L400.7141724,157.7291565z"/>
	<path d="M106.6679688,145.0757141c1.6065674-3.2341919,3.3459473-9.2389526,3.7190552-20.1746216
		c0.564209-16.4762573,1.3330688-41.1837769,4.5500488-56.3880005c0.8874512-4.1730347,1.3382568-6.4373779,2.6717529-8.8543091
		L39.3972168,83.2822571L56.0560303,158.38797l47.6948853-9.6593628l0.0046997-0.0021973l0.1558228-0.0874023
		c0.1435547-0.0889282,0.3632202-0.244873,0.6374512-0.5030518
		C105.0971069,147.6196594,105.8648682,146.693512,106.6679688,145.0757141z"/>
	<path d="M286.0791016,58.9999695c1.3334961,2.4169312,2.2075806,5.0100098,3.0950317,9.1830444
		c3.21698,15.2042236,3.9858398,39.9117432,4.5500488,56.3880005c0.3731079,10.9356689,2.1124878,16.9404297,3.7190552,20.1746216
		c0.8031006,1.6177979,1.5708618,2.5439453,2.1190796,3.0602417c0.274231,0.2581787,0.4938965,0.4141235,0.6374512,0.5030518
		l0.1558228,0.0874023l0.0046997,0.0021973l48.9605713,9.9894409l16.6588135-75.1057129L286.0791016,58.9999695z"/>
	<path d="M630.3515625,59.1882019c6.4371338,9.6466675,7.5968018,42.8297729,8.3660889,65.4163208l0.0410156,1.2114258
		c0.5075684,14.854126,3.5493164,20.581665,5.3432617,22.6896973l49.7936401,9.2235107l16.5646362-74.3527832
		L630.3515625,59.1882019z"/>
</g>
</svg>
