<?xml version="1.0" encoding="utf-8"?>
<!-- Generator: Adobe Illustrator 25.3.0, SVG Export Plug-In . SVG Version: 6.00 Build 0)  -->
<svg version="1.1" id="Layer_1" xmlns="http://www.w3.org/2000/svg" xmlns:xlink="http://www.w3.org/1999/xlink" x="0px" y="0px"
	 viewBox="0 0 750.2000122 400.1000061" style="enable-background:new 0 0 750.2000122 400.1000061;" xml:space="preserve">
<g>
	<path d="M110.5634155,170.1058655l-0.487854,1.5823975l-0.1487427-33.5042725
		c-0.6920776,3.281311-1.5425415,5.6387939-2.380127,7.3278198c-1.2965698,2.6192017-2.5744629,3.6329956-3.1554565,3.9830322
		l0.0866699,203.7387695c0.4974365,0.0296021,1.3870239,0.0823364,2.6196289,0.1544189
		c1.9800415,0.1158447,4.8395996,0.281311,8.3572998,0.4798584c6.7703857,0.3821411,15.980957,0.8869629,26.0482178,1.3962402
		c-2.5621338-4.2803345-5.5952148-9.0040894-9.1481934-14.2110596
		C119.7191162,322.5351868,114.2843018,255.217926,110.5634155,170.1058655z"/>
	<path d="M272.8407593,341.0530701c-3.5281982,5.1706543-6.5425415,9.8635864-9.0933228,14.1202393
		c14.8701782-0.7661133,27.723938-1.512207,33.390686-1.8478394c1.237915-0.0733032,2.1312256-0.1269531,2.6297607-0.1569824
		l0.201416-203.6387329c-0.5490723-0.3145752-1.8719482-1.3053589-3.2147217-4.0179443
		c-0.7816772-1.5762329-1.5732422-3.7418213-2.2382202-6.6895142l-0.1657104,37.3111572l-0.0014038,0.3251343
		C290.6345215,258.5533752,285.1602783,322.9986267,272.8407593,341.0530701z"/>
	<path d="M468.6616211,356.4894714c-8.7904053-27.492981-13.3878784-88.2004395-16.6096191-163.8252563l-0.0258179-2.9059448
		l-0.4297485-48.3898926c-1.2767944,4.8057251-2.8862305,7.1715088-4.003418,8.303772l0.0874023,203.628418
		c0.140625,0.0273438,0.3378906,0.0595703,0.6201172,0.0957031c0.9135742,0.1181641,2.6474609,0.2749023,5.8588867,0.4550781
		C458.6593018,354.1064758,463.4876099,355.0956726,468.6616211,356.4894714z"/>
	<path d="M624.2772827,355.1167297c2.8127441-0.5379028,5.5661621-0.9158936,8.2693481-1.0681152
		c7.2255859-0.4023438,9.6679688-0.7324219,10.4230957-0.8779297l0.2026367-203.9980469
		c-1.1574097-1.3806763-2.6549072-4.0032349-3.8092651-8.8491211l-0.6988525,78.6888428l-0.1188354,13.3829956
		C635.4866333,288.1689148,631.2141113,332.2162781,624.2772827,355.1167297z"/>
	<path d="M398.8322754,149.282074l1.881897,8.4470825l46.5206909-9.1381226
		c1.1420898-1.3421021,2.7878418-4.1640625,3.9655762-9.8613281L398.8322754,149.282074z"/>
	<path d="M106.6679688,145.0757141c0.788147-1.5866089,1.6074219-3.8457642,2.2824707-7.0209351l-54.9484863,11.0723267
		l2.0540771,9.2608643l47.6948853-9.6593628l0.0046997-0.0021973l0.1558228-0.0874023
		c0.1435547-0.0889282,0.3632202-0.244873,0.6374512-0.5030518
		C105.0971069,147.6196594,105.8648682,146.693512,106.6679688,145.0757141z"/>
	<path d="M351.335144,149.3066711l-56.1132812-11.3070068c0.663269,3.0283813,1.456604,5.2063599,2.2213745,6.7459717
		c0.8031006,1.6177979,1.5708618,2.5439453,2.1190796,3.0602417c0.274231,0.2581787,0.4938965,0.4141235,0.6374512,0.5030518
		l0.1558228,0.0874023l0.0046997,0.0021973l48.9605713,9.9894409L351.335144,149.3066711z"/>
	<path d="M644.1019287,148.5056458l49.7936401,9.2235107l1.8535767-8.3199463l-55.7023926-11.2242432
		C641.2293091,144.1860657,642.9300537,147.1286316,644.1019287,148.5056458z"/>
</g>
</svg>
