<?xml version="1.0" encoding="utf-8"?>
<!-- Generator: Adobe Illustrator 25.3.0, SVG Export Plug-In . SVG Version: 6.00 Build 0)  -->
<svg version="1.1" id="Layer_1" xmlns="http://www.w3.org/2000/svg" xmlns:xlink="http://www.w3.org/1999/xlink" x="0px" y="0px"
	 viewBox="0 0 750.2 400.1" style="enable-background:new 0 0 750.2 400.1;" xml:space="preserve">
<style type="text/css">
	.st0{fill:none;}
</style>
<g>
	<polygon class="st0" points="294.3,196.2 294.3,182.7 110.1,182.7 110.2,196.2 	"/>
	<polygon class="st0" points="294.2,213.9 294.2,200.1 110.2,200.1 110.3,213.9 	"/>
	<polygon class="st0" points="294.3,178.8 294.4,165 110,165 110.1,178.8 	"/>
	<polygon class="st0" points="294.1,231.3 294.2,217.8 110.3,217.8 110.3,231.3 	"/>
	<polygon class="st0" points="293.9,266.5 294,253 110.4,253 110.5,266.5 	"/>
	<polygon class="st0" points="293.8,301.6 293.9,288.1 110.6,288.1 110.7,301.6 	"/>
	<polygon class="st0" points="293.9,284.2 293.9,270.4 110.5,270.4 110.6,284.2 	"/>
	<polygon class="st0" points="293.7,319.4 293.8,305.5 110.7,305.5 110.7,319.4 	"/>
	<polygon class="st0" points="293.6,337.1 293.7,323.3 110.7,323.3 110.8,337.1 	"/>
	<polygon class="st0" points="294,249.1 294.1,235.2 110.4,235.2 110.4,249.1 	"/>
	<path d="M293.6,341l-0.1,12.6c1.4-0.1,2.6-0.2,3.6-0.2c1.2-0.1,2.1-0.1,2.6-0.2l0.2-203.6c-0.5-0.3-1.9-1.3-3.2-4
		c-0.8-1.6-1.6-3.7-2.2-6.7l-0.1,22.2H110l-0.1-22.9c-0.7,3.3-1.5,5.6-2.4,7.3c-1.3,2.6-2.6,3.6-3.2,4l0.1,203.7
		c0.5,0,1.4,0.1,2.6,0.2c1,0.1,2.3,0.1,3.8,0.2l-0.1-12.6H293.6z M110.1,182.7l0-3.9L110,165h184.4l-0.1,13.8l0,3.9l-0.1,13.5H110.2
		L110.1,182.7z M110.3,217.8l0-3.9l-0.1-13.8h184l-0.1,13.8l0,3.9l-0.1,13.5H110.3L110.3,217.8z M110.4,253l0-3.9l-0.1-13.8h183.7
		l-0.1,13.8l0,3.9l-0.1,13.5H110.5L110.4,253z M110.6,288.1l0-3.9l-0.1-13.8h183.4l-0.1,13.8l0,3.9l-0.1,13.5H110.7L110.6,288.1z
		 M110.7,323.3l0-3.9l-0.1-13.8h183.1l-0.1,13.8l0,3.9l-0.1,13.8H110.8L110.7,323.3z"/>
	<path d="M448.3,353.4c0.8,0.1,2.4,0.3,5.2,0.4l-1.9-212.4c-1.3,4.8-2.9,7.2-4,8.3l0.1,203.6C447.8,353.3,448,353.4,448.3,353.4z"/>
	<path d="M643.2,149.2c-1.2-1.4-2.7-4-3.8-8.8l-1.9,213.4c3.5-0.3,5-0.5,5.5-0.6L643.2,149.2z"/>
	<path d="M400.7,157.7l46.5-9.1c1.1-1.3,2.8-4.2,4-9.9l-52.4,10.6L400.7,157.7z"/>
	<path d="M106.7,145.1c0.8-1.6,1.6-3.8,2.3-7L54,149.1l2.1,9.3l47.7-9.7l0,0l0.2-0.1c0.1-0.1,0.4-0.2,0.6-0.5
		C105.1,147.6,105.9,146.7,106.7,145.1z"/>
	<path d="M351.3,149.3L295.2,138c0.7,3,1.5,5.2,2.2,6.7c0.8,1.6,1.6,2.5,2.1,3.1c0.3,0.3,0.5,0.4,0.6,0.5l0.2,0.1l0,0l49,10
		L351.3,149.3z"/>
	<path d="M644.1,148.5l49.8,9.2l1.9-8.3L640,138.2C641.2,144.2,642.9,147.1,644.1,148.5z"/>
</g>
</svg>
