<?xml version="1.0" encoding="utf-8"?>
<!-- Generator: Adobe Illustrator 25.3.0, SVG Export Plug-In . SVG Version: 6.00 Build 0)  -->
<svg version="1.1" id="Layer_1" xmlns="http://www.w3.org/2000/svg" xmlns:xlink="http://www.w3.org/1999/xlink" x="0px" y="0px"
	 viewBox="0 0 750.2 400.1" style="enable-background:new 0 0 750.2 400.1;" xml:space="preserve">
<g>
	<path d="M159,63.8c-0.4-0.4-0.7-0.7-1.1-1.1c-3.7-3.8-4.2-8-4.2-11.3c0-1.1-0.1-1.9,0-2.5l-19.4,5.9l-15,4.7
		c-1.4,2.2-2.4,4.7-3.3,9.3c-0.6,2.7-1.1,5.7-1.5,8.8L159,63.8z"/>
	<path d="M288.4,68.7c-1-4.7-2.1-7.6-3.5-9.8l-33.3-10.1c0,0.2,0,0.5,0,0.8c0,2.8-0.9,8-4.5,13c-0.2,0.2-0.3,0.5-0.5,0.7l43.2,13.4
		C289.4,73.8,288.9,71.1,288.4,68.7z"/>
</g>
</svg>
