<?xml version="1.0" encoding="utf-8"?>
<!-- Generator: Adobe Illustrator 25.3.0, SVG Export Plug-In . SVG Version: 6.00 Build 0)  -->
<svg version="1.1" id="Layer_1" xmlns="http://www.w3.org/2000/svg" xmlns:xlink="http://www.w3.org/1999/xlink" x="0px" y="0px"
	 viewBox="0 0 120 105" style="enable-background:new 0 0 120 105;" xml:space="preserve">
<style type="text/css">
	.st0{fill-rule:evenodd;clip-rule:evenodd;fill:#53575A;}
	.st1{fill-rule:evenodd;clip-rule:evenodd;fill:#FFFFFF;}
	.st2{fill:#CE0E2D;}
	.st3{fill:#FFFFFF;}
</style>
<g>
	<path class="st0" d="M94.5226,16.58602c-22.69267-5.44803-46.35255-5.44803-69.04521,0c0,0-0.00001,25.21064,0.00003,28.69278
		l-0.00002,0.00001C25.51424,64.41823,39.02971,82.90512,60,92.5c20.97033-9.59489,34.48577-28.08179,34.52262-47.22119
		C94.52258,41.44296,94.5226,16.58602,94.5226,16.58602z"/>
	<path class="st1" d="M59.99997,90.46957C40.15256,81.093,27.35355,63.43325,27.31862,45.27525V28.32559
		C38.0267,25.86747,49.0134,24.622,59.99997,24.622s21.97332,1.24547,32.68147,3.70359v16.95315
		C92.6464,63.43325,79.84747,81.093,59.99997,90.46957z"/>
	<g>
		<path class="st2" d="M55.17768,75.31792v-3.87029h-0.64571v-0.52949c0.18182-0.02132,0.35499-0.09025,0.51933-0.20647
			c0.16451-0.11639,0.2829-0.25742,0.355-0.42309h0.52949v5.02934H55.17768z"/>
		<path class="st2" d="M59.49782,74.17085c0,0.33434-0.11789,0.61774-0.35299,0.85035
			c-0.23544,0.23261-0.51884,0.34883-0.85035,0.34883h-0.06011c-0.33435,0-0.61774-0.11755-0.85035-0.35283
			c-0.23261-0.23527-0.34883-0.5175-0.34883-0.84635v-0.45723c0-0.30737,0.1029-0.57611,0.3087-0.80606
			c0.08825-0.09891,0.19115-0.1805,0.30887-0.24477c-0.2033-0.10423-0.36098-0.27807-0.47321-0.52133
			c-0.05611-0.12572-0.08425-0.28339-0.08425-0.47321v-0.27274c0-0.32619,0.09624-0.59626,0.28872-0.81022
			c0.21396-0.24061,0.49736-0.36099,0.85035-0.36099h0.06011c0.35566,0,0.64038,0.12038,0.85435,0.36099
			c0.19248,0.21662,0.28872,0.4867,0.28872,0.81022v0.27274c0,0.3127-0.09357,0.57212-0.28073,0.77808
			c-0.08292,0.09091-0.17516,0.16301-0.27673,0.21646c0.22462,0.12572,0.39828,0.31686,0.52134,0.57362
			c0.06427,0.13104,0.09641,0.29005,0.09641,0.47721V74.17085z M58.76385,71.60198c-0.00549-0.34384-0.11372-0.5598-0.32502-0.64788
			c-0.04812-0.02132-0.10557-0.03197-0.1725-0.03197c-0.13087,0-0.23794,0.03613-0.32069,0.10806
			c-0.06694,0.05861-0.11439,0.13387-0.14253,0.22594c-0.02797,0.09208-0.03946,0.20731-0.03397,0.34584
			c0.00799,0.21862,0.04263,0.37597,0.10423,0.47188c0.08026,0.12788,0.21113,0.19199,0.39296,0.19199
			c0.18183,0,0.3142-0.06794,0.39712-0.20397C58.73288,71.94732,58.76635,71.79396,58.76385,71.60198z M58.73971,73.81386
			c0-0.29938-0.0681-0.49986-0.20464-0.60159c-0.06411-0.04813-0.15369-0.0721-0.26875-0.0721
			c-0.20047,0-0.33684,0.08558-0.40894,0.25658c-0.04296,0.1044-0.06427,0.24343-0.06427,0.4171v0.24077
			c0,0.16585,0.05079,0.29939,0.15252,0.40096c0.08541,0.08575,0.19248,0.13103,0.32069,0.13637
			c0.20597-0.01066,0.349-0.11223,0.42926-0.30471c0.0293-0.06427,0.04412-0.14169,0.04412-0.23261V73.81386z"/>
		<path class="st2" d="M62.16684,70.28441v0.7621l-1.06298,4.26742h-0.74395l1.06298-4.26742h-1.26567v-0.7621H62.16684z"/>
		<path class="st2" d="M63.8638,74.59595c0.3475,0,0.52134-0.16151,0.52134-0.4847v-0.29639
			c0-0.5155-0.27007-0.77325-0.81006-0.77325v-0.64905c0.29139,0,0.50652-0.08142,0.64571-0.24443
			c0.12821-0.14686,0.19248-0.3525,0.19248-0.61708v-0.11605c0-0.32852-0.14436-0.49286-0.43325-0.49286
			c-0.16035,0-0.27807,0.06127-0.35283,0.18349c-0.05611,0.09308-0.08425,0.21396-0.08425,0.36282v0.13155h-0.74196v-0.11623
			c0-0.35832,0.09075-0.64987,0.27274-0.87433c0.2058-0.25675,0.49586-0.38513,0.87033-0.38513
			c0.35549,0,0.64039,0.12038,0.85418,0.36099c0.19248,0.21662,0.28873,0.4867,0.28873,0.81022v0.21246
			c0,0.31287-0.09358,0.58295-0.28073,0.81023c-0.08009,0.09624-0.17384,0.17783-0.28073,0.2446
			c0.22462,0.12572,0.39845,0.31686,0.5215,0.57362c0.0641,0.13104,0.09624,0.29005,0.09624,0.47721v0.39712
			c0,0.37164-0.12704,0.67652-0.38097,0.91446c-0.24343,0.22995-0.53616,0.34483-0.87849,0.34483
			c-0.33418,0-0.61758-0.11755-0.85019-0.35283c-0.23261-0.23527-0.349-0.5175-0.349-0.84635v-0.12421l0.72197-0.05628
			l0.01599,0.1765c0.01065,0.12572,0.05561,0.22861,0.13437,0.30887C63.63586,74.55598,63.73809,74.59595,63.8638,74.59595z"/>
	</g>
	<path class="st2" d="M64.71294,39.64521c0,0,1.2532,2.44765,4.31632,3.21194c2.76698,0.73316,4.36378,0.01102,4.36378,0.01102
		l1.44146,1.75303c0,0,0.1086-0.54902-0.03114-0.81779c-0.14839-0.28537-1.07405-2.42771-1.07405-2.42771l0.16782-0.82927
		c0,0-1.5256-0.80015-3.14661-1.22235c-2.32507-0.60559-3.64001-0.74326-3.64001-0.74326l0.5437,0.79095
		C67.6542,39.37177,66.31369,39.34831,64.71294,39.64521z"/>
	<path class="st2" d="M35.80572,52.69436c-1.3926-8.10986,2.87802-16.19691,7.11732-19.61511
		c-5.34714,2.12669-7.42345,5.66978-10.26084,11.82865c0,0-0.12691-13.08565,13.15057-17.27731
		c-9.74052,0.9551-16.19266,2.53945-16.19266,2.53945v15.10077c0.0159,8.26954,2.86408,16.63533,8.23663,24.19286
		c5.35301,7.52993,12.93915,13.87496,21.93831,18.34908l0.20492,0.10197l0.20493-0.10197
		c2.98207-1.48254,5.80782-3.17166,8.44977-5.0401C40.87338,72.25668,36.53124,58.35466,35.80572,52.69436z"/>
	<path class="st2" d="M63.63003,26.97177c9.40527,1.7632,10.1408,6.88667,10.1408,6.88667s-0.03528-1.54649-0.38945-2.86097
		c4.22897,3.30906,3.07876,6.74846,3.07876,6.74846s2.35243,1.5579,2.92081,2.32447c0.6218,0.83861,0.39426,2.2604,0.39426,2.2604
		s-0.74718-0.49455-1.4339-0.8215c-0.68674-0.32695-1.56371-0.57039-1.56371-0.57039s1.86674,1.82061,3.79605,3.38746
		c1.9292,1.56652,2.53935,2.7188,2.53935,2.7188c-0.27283,0.04197-0.59459,0.55204-1.55936,0.55204
		c-0.84135,0-1.95533-0.4541-2.22509-0.4541c-0.66549,0-0.62299,0.48267-1.5395,0.48267c-0.91647,0-1.09196-1.02946-1.52469-0.73628
		c-0.43272,0.29323,0.12488,1.86557,2.27722,2.15281c1.61694,0.2158,1.90655,1.05824,1.90655,1.3704
		c0,0.31211-0.21719,2.83885-2.80795,3.79418c-3.50224,1.29142-5.89294,0.6557-5.89294,0.6557
		c-1.54323,1.26688-1.20399,4.41739-1.14371,4.88764c2.2781-0.09217,3.9238-0.82341,5.33408-1.45366
		c0.32041-0.51365,0.7787-1.36818,0.97795-2.32296c0,0,0.6757,0.49782,0.57762,1.67815L77.492,57.65383
		c0.90388-0.30943,1.76778-0.42776,2.72884-0.09851c0.31286-0.32587,0.65988-1.07963,0.7761-1.66959
		c0,0,0.88612,0.80956,0.37534,2.25673c1.44778,0.9718,1.7246,5.46303-2.29401,7.21397
		c-0.17753,0.08752-0.28744,0.12031-0.28744,0.12031s0.5948-0.977,0.65316-1.83503c0.05832-0.85802-0.37163-1.06363-0.37163-1.06363
		s-0.16092,1.39909-1.64651,2.78084c-1.35454,1.25984-3.32349,1.54195-3.32349,1.54195
		c-1.77406-2.77996-4.90522-4.60262-9.53188-5.58403c-1.36867-6.55194,4.27048-12.75609,4.27048-12.75609
		s-5.69219,1.90702-7.0843,6.70596c0,0-3.84822-1.90689-5.28521-6.54861c-1.60554-5.18612,1.63184-8.36807,1.63184-8.36807
		s-5.8139,2.82563-4.66399,10.33505c1.09494,7.15052,10.75992,12.89898,10.75992,12.89898
		c-7.41618-2.88114-16.19268-7.86128-18.64101-13.95122c-4.28014-10.64637,1.64735-17.31391,1.64735-17.31391
		s-6.48929,4.04633-6.72406,13.91179c-0.42994,18.0659,29.35364,25.21693,38.56496,27.17193
		c1.10072-1.27179,2.13533-2.58504,3.09676-3.93723c5.37255-7.55625,8.22078-15.91951,8.23672-24.18667v-15.1087
		C90.37992,30.17004,78.99079,27.37329,63.63003,26.97177z M82.49297,54.91228c0,0-0.35114-0.4425-0.7391-0.78896
		s-1.01946-0.71366-1.01946-0.71366c0.73973-1.2372,0.99865-2.10826,1.06121-2.89021c0-0.86641,0.48392-0.8526,1.11993-1.31467
		c0.86174-0.62606,0.83149-1.43726,0.83149-1.43726C85.31925,50.2425,83.41354,53.51264,82.49297,54.91228z"/>
	<g>
		<path class="st3" d="M56.70007,14.70692c1.17636-0.03205,2.35305-0.04915,3.52972-0.05133c0,0.38268,0,0.76537,0,1.14805
			c-0.44761,0.00107-0.89521,0.00431-1.34282,0.00971c0.00001,2.14239,0.00001,4.28478,0,6.42717
			c-0.38356,0.00441-0.7671,0.01041-1.15061,0.018c0.00001-2.14239,0.00001-4.28478,0-6.42718
			c-0.44753,0.00885-0.89502,0.01987-1.34246,0.03304C56.49596,15.47845,56.59801,15.09263,56.70007,14.70692z M55.37791,18.41882
			c-0.04943-0.04245-0.52615-0.4296-0.55848-0.45677c-0.29504-0.25045-0.78162-0.72022-0.78155-1.21484
			c-0.00004-0.6194,0.31694-0.80892,0.60335-0.8209c0.31389-0.01321,0.62781-0.02536,0.94177-0.03643
			c0.10143-0.38626,0.2029-0.77241,0.30433-1.15845c-0.45024,0.0149-0.90044,0.03199-1.35057,0.05127
			c-1.31104,0.05787-1.72733,1.11663-1.72739,1.92728c-0.00004,1.03119,0.66775,1.64217,1.09978,2.0073
			c0.04945,0.04138,0.5259,0.42549,0.55838,0.4531c0.29499,0.24909,0.78159,0.72231,0.78162,1.21726
			c-0.00002,0.61933-0.3143,0.80047-0.60067,0.81261c-0.42768,0.01797-0.85528,0.03792-1.28281,0.05984
			c-0.10231,0.38977-0.20459,0.77966-0.30691,1.16966c0.56369-0.03015,1.12749-0.05688,1.69143-0.08016
			c1.31123-0.05244,1.72828-1.08988,1.72819-1.90312C56.47834,19.4147,55.81007,18.78741,55.37791,18.41882z M38.54171,16.87958
			c0.35201,0.29879,0.52819,0.69928,0.52816,1.19928c0.00001,1.37947,0.00001,2.75895,0,4.13841
			c0,0.50433-0.17719,0.96013-0.53121,1.36952c-0.35402,0.40963-0.78037,0.65552-1.27869,0.73993
			c-0.50243,0.08514-0.92803-0.01744-1.27717-0.30991c-0.34909-0.29231-0.52361-0.68761-0.52362-1.18787
			c0-1.37947,0-2.75895,0-4.13842c0.00005-0.50408,0.17649-0.96523,0.52967-1.38153c0.35315-0.4161,0.77684-0.6671,1.27113-0.75084
			C37.76227,16.47307,38.18958,16.58097,38.54171,16.87958z M37.88102,18.24525c-0.00003-0.18147-0.06336-0.3254-0.18997-0.43139
			c-0.12656-0.10604-0.28038-0.14384-0.4612-0.11316c-0.18093,0.03068-0.33554,0.12082-0.46404,0.27014
			c-0.12858,0.14933-0.19278,0.31486-0.19281,0.49634c0,1.3835,0,2.767,0,4.1505c0.00002,0.18153,0.06427,0.32456,0.19281,0.42933
			c0.12847,0.10483,0.28328,0.14174,0.46404,0.11105c0.18079-0.03068,0.33465-0.11991,0.4612-0.26803
			c0.12661-0.14808,0.18999-0.31275,0.18997-0.49429C37.88102,21.01225,37.88102,19.62875,37.88102,18.24525z M46.61888,15.3099
			c-0.50188,0.05032-0.9306,0.27248-1.28634,0.66438c-0.35594,0.39208-0.5336,0.84113-0.53365,1.34524c0,1.37947,0,2.75893,0,4.1384
			c0.00005,0.50027,0.17672,0.90639,0.5306,1.22041c0.35367,0.31421,0.78345,0.44481,1.28939,0.39409
			c0.4977-0.04986,0.92481-0.26547,1.28111-0.64881c0.35629-0.3832,0.53466-0.82587,0.53456-1.33019c0-0.24772,0-0.49544,0-0.74316
			c-0.39691,0.03453-0.79372,0.07077-1.19039,0.10872c0,0.24369,0,0.48737,0,0.73106
			c0.00001,0.18151-0.06483,0.34195-0.19431,0.48156c-0.12951,0.13965-0.28531,0.21847-0.46741,0.23676
			c-0.1821,0.0183-0.33687-0.0293-0.46426-0.14314c-0.12743-0.11379-0.19115-0.26131-0.19117-0.44283c0-1.38351,0-2.76701,0-4.15052
			c0.00009-0.1815,0.06376-0.34348,0.19117-0.48587c0.12738-0.14224,0.28217-0.22275,0.46426-0.24103
			c0.18216-0.0183,0.33782,0.03097,0.46741,0.14742c0.1295,0.11658,0.19434,0.26565,0.19431,0.44715c0,0.19126,0,0.38251,0,0.57376
			c0.39667-0.03795,0.79348-0.07419,1.19039-0.10872c0-0.18318,0-0.36636,0-0.54953c0-0.50002-0.17618-0.91262-0.5285-1.23567
			C47.55376,15.39647,47.12469,15.25921,46.61888,15.3099z M42.55175,21.71346c0.00001,0.18151-0.06358,0.344-0.1907,0.48779
			c-0.12709,0.14374-0.28154,0.22776-0.46297,0.25224c-0.18147,0.02448-0.3369-0.01773-0.46589-0.12693
			c-0.12912-0.1092-0.19354-0.25442-0.19357-0.43593c0-1.95021,0-3.90042,0-5.85063
			c-0.37299,0.05213-0.74582,0.10579-1.11845,0.16096c-0.00001,1.95424-0.00001,3.90848,0,5.86272
			c-0.00001,0.50027,0.17536,0.89949,0.52584,1.19978c0.35065,0.30039,0.77792,0.41554,1.2823,0.34762
			c0.50025-0.06736,0.92816-0.29568,1.28352-0.68711c0.3553-0.39124,0.53312-0.84006,0.53311-1.34837
			c-0.00001-1.95424-0.00001-3.90848,0-5.86272c-0.39789,0.04826-0.79563,0.09824-1.19318,0.14995
			C42.55175,17.81305,42.55175,19.76325,42.55175,21.71346z M77.80019,21.63407c-0.00008,0.18151-0.06347,0.32777-0.19079,0.43904
			c-0.12718,0.11126-0.28159,0.1558-0.46349,0.13386c-0.18175-0.02193-0.33743-0.10389-0.46665-0.24609
			c-0.12936-0.14223-0.19398-0.30397-0.194-0.48546c0-1.9502,0-3.90042,0-5.85062c-0.37381-0.0433-0.74778-0.08508-1.12184-0.12533
			c0,1.95424,0,3.90848,0,5.86272c0.00002,0.50027,0.17592,0.94438,0.52763,1.33441c0.35168,0.39015,0.78017,0.61466,1.28516,0.6757
			c0.50079,0.06058,0.92876-0.05839,1.28405-0.35903c0.35502-0.30047,0.53259-0.70387,0.53265-1.21219
			c0-1.95424,0-3.90848,0-5.86272c-0.39742-0.05337-0.79498-0.10501-1.19271-0.15492
			C77.80019,17.73365,77.80019,19.68386,77.80019,21.63407z M29.80921,18.04296c-0.49436,0.11184-0.90737,0.38449-1.25751,0.81999
			c-0.35021,0.43572-0.52514,0.90659-0.52515,1.41069c0,1.37947,0,2.75893,0,4.1384
			c-0.00005,0.49618,0.17393,0.87971,0.52215,1.15232c0.34819,0.27284,0.76216,0.35388,1.26051,0.24113
			c0.49032-0.11085,0.884-0.37281,1.23525-0.7999c0.35129-0.42691,0.52717-0.89147,0.52714-1.39578
			c-0.00001-0.90039-0.00001-1.80078,0-2.70116c-0.48295,0.10267-0.96544,0.20795-1.44756,0.31582
			c-0.10052,0.40506-0.20104,0.81023-0.30154,1.21552c0.20995-0.04747,0.42-0.09445,0.63013-0.14093
			c-0.00001,0.51438-0.00001,1.02877,0,1.54316c0,0.18104-0.06391,0.34905-0.19148,0.5041
			c-0.12764,0.15512-0.30845,0.25895-0.48783,0.29958c-0.17936,0.04063-0.3317,0.012-0.45724-0.08621
			c-0.12552-0.09816-0.18822-0.23787-0.18826-0.41939c0-1.3835,0-2.76701,0-4.15051c0-0.18149,0.0628-0.35131,0.18826-0.50932
			c0.12539-0.1579,0.27783-0.25734,0.45724-0.29796c0.17935-0.04062,0.34189-0.01249,0.46962,0.08809
			c0.12766,0.10072,0.19149,0.24186,0.19148,0.42335c0,0.19125,0,0.38251,0,0.57376c0.37879-0.08385,0.75785-0.1661,1.13717-0.24675
			c-0.00001-0.18318-0.00001-0.36635,0-0.54953c0.00008-0.50003-0.17376-0.89101-0.52117-1.17082
			C30.70312,18.02095,30.30751,17.93032,29.80921,18.04296z M52.09511,16.05684c0.10134-0.38881,0.20271-0.77751,0.30407-1.1661
			c-1.0261,0.05978-2.0517,0.13095-3.07663,0.2135c0,2.52531,0,5.05062,0,7.57594c0.92305-0.07435,1.84669-0.13946,2.77074-0.19534
			c0.10197-0.38879,0.20393-0.77747,0.30589-1.16603c-0.643,0.03746-1.28582,0.07939-1.92838,0.1258c0-0.68873,0-1.37746,0-2.06619
			c0.50888-0.03675,1.01793-0.0707,1.5271-0.10184c0.00001-0.38261,0.00001-0.76523,0-1.14784
			c-0.50917,0.03114-1.01822,0.06509-1.5271,0.10184c0-0.68872,0-1.37744,0-2.06617
			C51.01209,16.12538,51.55352,16.08952,52.09511,16.05684z M63.74957,15.84169c0.10149-0.3803,0.20296-0.76049,0.30444-1.14057
			c-1.02719-0.02636-2.05458-0.04133-3.08198-0.04492c0,2.52531,0,5.05062,0,7.57594
			c0.92535,0.00323,1.85063,0.01569,2.77573,0.0374c0.1021-0.38023,0.20416-0.76034,0.30624-1.14035
			c-0.64369-0.01652-1.28744-0.02856-1.93123-0.03614c0-0.68873,0-1.37746,0-2.06619c0.50987,0.006,1.0197,0.0148,1.52951,0.02641
			c0-0.38261,0-0.76523,0-1.14784c-0.5098-0.01161-1.01965-0.02041-1.52951-0.02641c0-0.68872,0-1.37744,0-2.06616
			C62.66506,15.81929,63.20734,15.8289,63.74957,15.84169z M67.9095,18.744c0.284,1.24371,0.56794,2.48829,0.8519,3.73375
			c-0.41456-0.02471-0.82918-0.04757-1.24386-0.06856c-0.26158-1.08498-0.52321-2.16921-0.78484-3.25271
			c-0.22661-0.01019-0.45326-0.01982-0.67992-0.0289c0,1.07173,0,2.14346,0,3.21519
			c-0.3836-0.01537-0.76724-0.02914-1.15092-0.04133c0-2.527,0-5.054,0-7.581c0.605,0.01922,1.20985,0.04239,1.81458,0.06951
			c0.6413,0.02883,1.11192,0.22949,1.41215,0.59689c0.26381,0.32114,0.39562,0.75653,0.39558,1.30501
			c-0.00001,0.24168-0.00001,0.48337,0,0.72506C68.52422,17.95349,68.31932,18.39494,67.9095,18.744z M67.40434,16.64967
			c-0.00001-0.43947-0.21918-0.6708-0.65748-0.69067c-0.23135-0.01042-0.46269-0.02027-0.69408-0.02954
			c0,0.68336,0,1.36673,0,2.05009c0.23138,0.00927,0.46275,0.01912,0.69408,0.02954c0.18263,0.00823,0.33791-0.0489,0.46574-0.17185
			c0.12785-0.12282,0.19173-0.27494,0.19173-0.45645C67.40435,17.13708,67.40435,16.89337,67.40434,16.64967z M73.73032,19.17785
			c0.28332,1.25563,0.56658,2.51215,0.84976,3.76952c-0.41348-0.04212-0.82709-0.08239-1.24084-0.1208
			c-0.26099-1.09595-0.52206-2.19118-0.78313-3.28566c-0.22617-0.0197-0.45231-0.03885-0.67854-0.05745
			c0,1.07173,0,2.14346,0,3.21519c-0.38286-0.03147-0.76581-0.06135-1.14885-0.08964c0.00001-2.527,0.00001-5.054,0-7.581
			c0.60397,0.0446,1.2077,0.09316,1.81119,0.14567c0.63996,0.05575,1.10944,0.27619,1.40897,0.65618
			c0.26324,0.33221,0.39462,0.77314,0.39458,1.32162c0,0.24169,0,0.48337,0,0.72506
			C74.34347,18.41315,74.1391,18.84598,73.73032,19.17785z M73.22633,17.06231c0.00011-0.43947-0.21868-0.68-0.65604-0.71827
			c-0.23085-0.02014-0.46174-0.0397-0.6927-0.05868c0,0.68336,0,1.36673,0,2.05009c0.23093,0.01898,0.46181,0.03854,0.6927,0.05868
			c0.18231,0.01592,0.33716-0.03472,0.46471-0.1523c0.12748-0.11746,0.19131-0.26689,0.19133-0.4484
			C73.22633,17.54972,73.22633,17.30601,73.22633,17.06231z M88.49568,22.47721c0.02809,0.1637,0.04217,0.34281,0.04214,0.53722
			c0.00006,0.48208-0.09033,0.87238-0.27105,1.17165c-0.1406,0.23471-0.33945,0.40486-0.59663,0.51157
			c-0.28932,0.12057-0.57706,0.15325-0.86253,0.0982c-0.68878-0.13278-1.37832-0.26031-2.06853-0.38257
			c0-2.53951,0-5.07902,0-7.61854c0.55515,0.09834,1.10989,0.20008,1.66409,0.30522
			c0.45061,0.08553,0.85693,0.28437,1.21871,0.59531c0.30945,0.26417,0.5305,0.62296,0.66296,1.07528
			c0.07227,0.24159,0.10843,0.51833,0.10841,0.83015c0,0.51042-0.13455,0.89178-0.40364,1.14518
			c-0.11265,0.10696-0.24506,0.17958-0.39787,0.21803c0.25333,0.14752,0.4682,0.38336,0.64488,0.7069
			C88.35304,21.88894,88.43947,22.15783,88.49568,22.47721z M85.89867,20.11581c0.18349,0.03411,0.36685,0.06859,0.55023,0.10343
			c0.35416,0.06734,0.59151-0.06036,0.71209-0.38521c0.04417-0.12095,0.06637-0.27652,0.06637-0.46698
			c0.00018-0.31588-0.07658-0.56986-0.2292-0.7616c-0.14092-0.17714-0.324-0.28746-0.54926-0.33029
			c-0.18336-0.03485-0.3668-0.06933-0.55023-0.10343C85.89867,18.81975,85.89867,19.46778,85.89867,20.11581z M87.3299,22.68614
			c0-0.42529-0.12619-0.76-0.28705-0.98569c-0.14474-0.2063-0.31224-0.32796-0.59395-0.38155
			c-0.18336-0.03485-0.3668-0.06932-0.55023-0.10343c0,0.7574,0,1.5148,0,2.2722c0.18349,0.0341,0.36685,0.06858,0.55023,0.10343
			c0.38635,0.07347,0.65379-0.07467,0.80262-0.44648C87.30365,23.0172,87.32986,22.86441,87.3299,22.68614z M91.69377,18.21062
			c-0.27803,0.84728-0.55618,1.69543-0.83446,2.54444c-0.28031-0.97405-0.56075-1.94722-0.84138-2.91951
			c-0.41686-0.0906-0.834-0.17926-1.25146-0.26598c0.50777,1.58181,1.01517,3.16649,1.52205,4.75404c0,1.06319,0,2.12638,0,3.18956
			c0.37862,0.08308,0.75703,0.16777,1.1351,0.25406c0-1.06319,0-2.12638,0-3.18956c0.50822-1.36035,1.01591-2.7178,1.52311-4.07236
			C92.52944,18.40512,92.11179,18.30689,91.69377,18.21062z M33.70768,23.68643c0-2.14271,0-4.28543,0-6.42814
			c-0.37817,0.07424-0.7561,0.15007-1.13379,0.22749c0,2.52531,0,5.05063,0,7.57595c0.81263-0.16652,1.6264-0.3257,2.44116-0.47752
			c-0.10078-0.36384-0.20155-0.72757-0.30232-1.09119C34.37754,23.55624,34.04252,23.62071,33.70768,23.68643z"/>
		<path class="st3" d="M81.90474,16.27608c-0.49923-0.07778-0.91696,0.03625-1.2715,0.3372
			c-0.35472,0.30114-0.53197,0.70474-0.532,1.20884c0,1.37947,0,2.75893,0,4.1384c0.00005,0.49619,0.17626,0.94657,0.52894,1.35301
			c0.35252,0.40662,0.77145,0.64666,1.27456,0.72507c0.49518,0.07723,0.8919-0.03386,1.24569-0.3264
			c0.35381-0.29237,0.53058-0.68961,0.53062-1.19393c0-0.90039,0-1.80077,0-2.70116
			c-0.48587-0.0822-0.97203-0.16179-1.45855-0.23879c-0.10143,0.36651-0.20288,0.73314-0.30434,1.09987
			c0.21201,0.03307,0.42396,0.06664,0.63583,0.1007c0,0.51438,0,1.02877,0,1.54315c-0.0001,0.18105-0.06448,0.32456-0.19315,0.4307
			c-0.12888,0.10616-0.31121,0.14067-0.49236,0.11249c-0.18116-0.02818-0.33506-0.11531-0.46198-0.26168
			c-0.12688-0.14633-0.19019-0.31014-0.19033-0.49166c0-1.3835,0-2.76701,0-4.15052c0.00006-0.18151,0.06337-0.3272,0.19033-0.43705
			c0.12692-0.10973,0.28082-0.1507,0.46198-0.12249c0.18108,0.02819,0.34509,0.11867,0.47401,0.2682
			c0.12875,0.14964,0.19313,0.31526,0.19313,0.49675c0,0.19125,0,0.3825,0,0.57376c0.38201,0.06135,0.76379,0.12431,1.14543,0.18887
			c0-0.18318,0-0.36635,0-0.54953c0.00002-0.50004-0.17486-0.95753-0.5246-1.37039
			C82.80675,16.59685,82.40768,16.35459,81.90474,16.27608z"/>
	</g>
</g>
</svg>
