<?xml version="1.0" encoding="utf-8"?>
<!-- Generator: Adobe Illustrator 25.3.0, SVG Export Plug-In . SVG Version: 6.00 Build 0)  -->
<svg version="1.1" id="Layer_1" xmlns="http://www.w3.org/2000/svg" xmlns:xlink="http://www.w3.org/1999/xlink" x="0px" y="0px"
	 viewBox="0 0 120 105" style="enable-background:new 0 0 120 105;" xml:space="preserve">
<style type="text/css">
	.st0{fill:#FFFFFF;}
	.st1{fill:#1D1D1B;}
	.st2{fill:#CE0E2D;}
	.st3{fill:#006646;}
	.st4{fill:#53575A;}
	.st5{fill:#906929;}
	.st6{fill:#909288;}
	.st7{fill:#BBBBBB;}
</style>
<g>
	<path class="st0" d="M85,64c0.6-1.1,1.3-2.2,1.8-3.4c5.4-10.6,7.6-21.9,6.7-33.4L93.5,26l-1.1-0.6c0,0-1.4-0.8-3.7-1.8
		c-7.2-3.2-14.6-5.2-22.3-5.9L66.3,18l0.1,2.4c4.6,0.4,9.2,1.4,13.6,2.8c0.1,0,0.2,0,0.2,0.1c0.4,0.1,0.7,0.2,1.1,0.4
		c0.2,0.1,0.4,0.1,0.5,0.2c0.3,0.1,0.6,0.2,0.9,0.3c0.2,0.1,0.5,0.2,0.7,0.3c0.3,0.1,0.5,0.2,0.8,0.3c0.3,0.1,0.6,0.3,1,0.4
		c0.2,0.1,0.4,0.2,0.6,0.2c0.5,0.2,1,0.4,1.5,0.7c2.2,1,3.4,1.6,3.5,1.7l0.1,0.1l0,0.2c0.1,1.6,0.2,3.1,0.2,4.6
		c0,11.3-3.3,21.1-7.7,29C84.1,62.3,84.7,63.1,85,64z"/>
	<path class="st0" d="M47.7,80.6c5.9,6,10.8,9.2,11,9.3h0l1.3,0.9l1.3-0.9c0.1-0.1,1.9-1.3,4.7-3.6c1.7-1.4,3.3-2.9,5-4.5
		c0.5-0.5,1.1-1.1,1.6-1.6c-1.5,0.5-3.1,0.9-4.8,1.2c-1,1-2.1,1.9-3.2,2.8c-2.7,2.2-4.4,3.4-4.5,3.4L60,87.7l-0.2-0.1
		c-0.1-0.1-3.3-2.2-7.6-6.1c-1.7-0.3-3.3-0.7-4.9-1.2C47.5,80.4,47.6,80.5,47.7,80.6z"/>
	<path class="st0" d="M36.5,61.5c-1.4-2.6-2.7-5.3-3.8-8.2L32.5,53c-0.5-1.3-0.9-2.6-1.3-3.9c-0.3-1.1-0.6-2.3-0.9-3.4
		C29,39.8,28.6,33.8,29,27.9l0-0.2l0.1-0.1c0.2-0.1,9.9-5.7,24.3-7.2l0.1-2.5l-0.1-0.3c-15.3,1.4-25.5,7.4-26,7.6L26.5,26l-0.1,1.2
		c-0.5,6.3,0,12.6,1.4,18.7c0.3,1.2,0.6,2.4,1,3.6c0.4,1.4,0.9,2.8,1.4,4.1l0.1,0.4c1.3,3.5,2.9,6.8,4.7,9.8
		C35.3,63.1,35.8,62.3,36.5,61.5z"/>
	<path class="st1" d="M95.1,27.1l-0.2-2l-1.8-1c-0.1,0-1.4-0.8-3.9-1.9c-7.2-3.3-14.8-5.2-22.5-6l0.3-1.3l0-0.6l-4.2,0l0.3-1.3
		l0-0.6l-6.6,0l0,0.6l0.3,1.3h-4.2l0,0.6l0.3,1.4c-15.5,1.5-25.8,7.5-26.3,7.8l-1.7,1l-0.2,2c-0.5,6.4,0,12.9,1.4,19.1
		c0.3,1.2,0.6,2.5,1,3.7c0.4,1.4,0.9,2.8,1.4,4.2l0.1,0.4c1.5,4.1,3.4,7.8,5.4,11.2c-0.1,0.6-0.2,1.2-0.2,1.9c0,4,2.8,7.7,7.9,10.4
		c0.8,0.4,1.6,0.8,2.4,1.1c0.8,0.9,1.6,1.7,2.3,2.4c6.1,6.1,11,9.4,11.2,9.5l2.1,1.4l2.1-1.4c0.1-0.1,2-1.3,4.9-3.7
		c1.7-1.4,3.4-2.9,5-4.5c1.3-1.2,2.5-2.5,3.7-3.8c0.8-0.3,1.6-0.7,2.3-1.1c5.1-2.7,7.9-6.4,7.9-10.4c0-0.6-0.1-1.2-0.2-1.8
		c0.9-1.5,1.8-3,2.5-4.6C93.7,50.4,96,38.9,95.1,27.1z M78,57.2c-1.1-0.6-2.3-1.1-3.5-1.6c-0.1-1.2-0.3-2.3-0.6-3.4
		c-0.2-0.7-0.3-1.3-0.4-2c-0.1-0.9-0.2-2-0.2-3c0-0.9-0.1-1.9-0.2-2.8c0.1-1.1,0.1-2.7-0.1-4.5c-0.1-0.5-0.4-2.3-1.3-4.4
		c-0.7-1.7-2.3-4.6-4.8-7.3L66.4,21c7.1,0.7,14,2.5,20.7,5.5c1.8,0.8,2.9,1.4,3.3,1.6c1,13-2.5,24.1-7.3,33
		C81.8,59.6,80.1,58.3,78,57.2z M55.3,55.1C55.3,55.1,55.3,55.1,55.3,55.1c-0.1,0-0.3,0-0.4-0.1c0,0-0.1,0-0.1,0
		c-0.1,0-0.2-0.1-0.3-0.1c0,0-0.1,0-0.1,0c-0.1,0-0.2-0.1-0.3-0.2c0,0,0,0,0,0c0,0,0,0,0,0c0,0-0.1-0.1-0.1-0.1l0,0c0,0,0,0,0,0v0
		c0,0,0,0,0,0c0-0.1,0-0.2,0-0.2c0,0,0-0.1,0-0.1c0,0,0,0,0,0c0.1-0.2,0.3-0.8,0.5-1.5c0.1-0.3,0.1-0.7,0.1-1c0-0.6-0.1-1.2-0.1-1.8
		c0-0.3-0.1-0.7-0.1-1c0-0.5-0.1-0.9-0.2-1.3c-0.1-0.4-0.1-0.8-0.2-1.2c-0.1-0.3-0.1-0.6-0.2-0.9c0-0.1,0-0.2,0-0.3
		c0-0.2-0.1-0.4-0.1-0.7c0-0.1,0-0.3,0-0.4c0-0.2,0-0.4,0-0.6c0-0.1,0-0.3,0-0.4c0-0.1,0-0.2,0-0.3c0-0.1,0-0.2,0-0.3c0,0,0,0,0,0.1
		c0-0.1,0-0.3,0-0.4c0,0-0.5,0.9-0.4,2.4c-0.2-0.1-0.3-0.1-0.5-0.2c-1.1-0.6-2-1.3-2-1.3c0.2,0.3,0.5,0.6,0.7,0.8
		c0.2,0.3,0.5,0.5,0.8,0.7c0.2,0.2,0.4,0.3,0.7,0.5c-0.2,0-0.4-0.1-0.7-0.2c-0.2-0.1-0.4-0.2-0.6-0.3c0.2,0.2,0.4,0.5,0.6,0.7
		c0.2,0.2,0.5,0.4,0.7,0.5c-0.4,0.2-0.7,0.5-1,0.8c0.3,0,0.7-0.1,1-0.1c-0.2,0.4-0.4,0.9-0.6,1.4c-0.2,0.5-0.4,1.1-0.6,1.6
		c0.3-0.4,0.8-1.2,1.2-1.9c-0.4,0.7-0.7,1.4-1,2.1c-0.5,1.2-0.9,2.5-1,3.8l0,0.1l0.1,0.1c0.2,0.2,0.4,0.5,0.6,0.8
		c-0.1,0-0.1,0-0.2,0c-0.1-0.3-0.4-0.6-0.6-0.8c0,0,0,0,0-0.1c0-0.2,0-0.7,0.1-1.3c-0.5,1-0.9,1.9-1.7,2.3c-0.3,0.1-0.7,0.3-1.1,0.3
		c-0.1,0-0.2,0.3-0.4,0.5c0,0,0,0,0,0c0-0.2,0.1-0.5,0.1-0.7c0.5-0.1,1-0.2,1.3-0.4c0.1-0.1,0.3-0.2,0.4-0.3
		c0.4-0.4,0.8-0.9,0.9-1.4c0.3-0.9,0.2-2.1-0.9-2.8c-0.1-0.1-0.3-0.1-0.4-0.2c0.1-0.5,0.1-1.1,0.1-1.6c0-0.2,0-0.3,0-0.5
		c0-0.8,0-1.6,0.2-2.4c0-0.1,0-0.1,0.1-0.2c0-0.1,0.1-0.2,0.1-0.3c0.1-0.4,0.3-0.8,0.4-1.1c0.1-0.2,0.2-0.4,0.3-0.5
		c-0.1,0-0.2,0-0.3,0c-0.1,0-0.2,0-0.3,0c0,0,0,0,0,0c0,0,0,0,0,0c0.6-0.1,0.8-0.1,1,0c0.1,0.1,0.2,0.1,0.3,0.2
		c0.1-0.3,0.3-0.5,0.5-0.7c0.1-0.1,0.2-0.2,0.3-0.3c0.3-0.3,0.7-0.5,1.2-0.7c0.3-0.1,0.6-0.3,0.8-0.4c-0.1,0.2-0.1,0.4-0.2,0.7
		c1.6-1,2.9-2.5,3.8-4.2c0-0.1,0.1-0.1,0.1-0.2l0.4,2.1c0,0.1,0.1,0.2,0.1,0.3l0.2,1.2l1,0.5c0,0.2-0.1,0.5-0.3,0.7
		c0.1,0,0.3,0.2,0.4,0.2c0,0,0,0,0,0c0,0,0,0,0,0c0,0,0.1,0,0.1-0.1c0.1-0.1,0.2-0.2,0.3-0.2c-0.2-0.2-0.3-0.4-0.3-0.7l0.9-0.4
		l0.8,0.4c0,0.2-0.1,0.5-0.3,0.7c0.1,0,0.3,0.2,0.4,0.2c0,0,0,0,0,0c0,0,0,0,0,0c0,0,0,0,0,0c0,0,0.1,0,0.1-0.1
		c0.1-0.1,0.2-0.2,0.3-0.2c-0.2-0.2-0.3-0.4-0.3-0.7l0.9-0.4l0.8,0.4c0,0.2-0.1,0.5-0.3,0.7c0.2,0,0.3,0.3,0.5,0.3
		c0.2,0,0.3-0.3,0.5-0.3c-0.2-0.2-0.3-0.4-0.3-0.7l0.9-0.4l0.8,0.4c0,0.1,0,0.1,0,0.2c0,0.2-0.1,0.4-0.2,0.5c0.1,0,0.3,0.2,0.4,0.2
		c0,0,0,0,0,0c0,0,0,0,0,0c0,0,0.1,0,0.1-0.1c0.1-0.1,0.2-0.2,0.3-0.2c-0.2-0.2-0.3-0.4-0.3-0.7l0.9-0.4l0.8,0.4
		c0,0.1,0,0.3-0.1,0.4c0,0.1-0.1,0.2-0.2,0.3c0,0,0.1,0,0.1,0c0.1,0.1,0.2,0.2,0.3,0.2c0,0,0,0,0,0c0,0,0,0,0,0
		c0.2,0,0.3-0.3,0.5-0.3c-0.2-0.2-0.3-0.4-0.3-0.7l1-0.5l0.7-6.1c0,0,1.4,3.1,1.5,5.4c0.1,1.5-0.1,3.6-0.6,6c0,0,0,0,0,0
		c0.1-0.2,0.7-1.1,0.8-1.4c0.1,0.9,0.1,1.8,0.2,2.7c0,1.1,0.1,2.2,0.3,3.1c0.1,0.7,0.3,1.4,0.5,2.1c0.3,1.1,0.5,2.1,0.6,3.2
		c-0.7-0.2-1.4-0.4-2.1-0.6c0,0,0,0,0,0c0,0-0.1,0-0.1,0c-0.7-0.2-1.4-0.4-2.2-0.5c0.1-0.3,0.2-0.7,0.4-1c0-0.1,0.1-0.1,0.1-0.2
		c0.2-0.3,0.5-0.5,0.7-0.6c0.4-0.2,0.9-0.3,1.4-0.2c0,0,0,0,0.1,0c0,0,0,0,0,0c0,0,0.1,0,0.1,0c-0.3-0.3-0.7-0.5-1.1-0.6
		c0.1,0,0.2,0,0.3,0c0.2,0,0.3,0,0.5,0c0.1,0,0.2,0,0.2,0.1c-0.1-0.3-0.1-0.5-0.2-0.8c-0.5-0.1-1.2-0.4-1.5-0.8
		c-0.1-0.1-0.2-0.2-0.3-0.3c-0.2-0.2-0.4-0.5-0.6-0.7c-0.2-0.3-0.4-0.5-0.6-0.8c-0.2-0.3-0.4-0.5-0.5-0.8c-0.1-0.1-0.2-0.2-0.2-0.3
		c0.2,0.6,0.4,1.1,0.6,1.6c0.1,0.2,0.1,0.3,0.2,0.5c-0.4-0.5-0.6-1-0.9-1.5c-0.2-0.3-0.3-0.6-0.5-0.9c0,0,0,0,0,0
		c0.3-0.2,0.5-0.4,0.8-0.6c0.1-0.1,0.1-0.1,0.2-0.2c0.1-0.1,0.2-0.3,0.3-0.4c0.2-0.2,0.3-0.5,0.4-0.7c0.1-0.2,0.1-0.3,0.1-0.5
		c-0.1,0.2-0.3,0.4-0.4,0.6c-0.2,0.2-0.3,0.4-0.5,0.6c0,0,0.1-0.1,0.1-0.1c0.1-0.2,0.2-0.4,0.3-0.6c0.1-0.2,0.1-0.4,0.2-0.7
		c0-0.2,0.1-0.3,0.1-0.5c0-0.1,0-0.1,0-0.2c0-0.1,0.1-0.3,0.1-0.4c0-0.3,0.1-0.5,0.1-0.5c0,0.1-0.2,0.4-0.4,0.8
		c-0.3,0.7-0.7,1.5-0.8,1.7c-0.2,0.4-0.4,0.8-0.7,1c0.2-0.3,0.4-0.6,0.5-0.9c-1.1,1.2-2.8,1.2-4.2,0.9c-1.4-0.4-2.7-1.1-3.6-2.2
		c0,0.3-0.1,0.6-0.2,0.9c-0.1,0.3-0.2,0.5-0.4,0.8c0.2,0.1,0.3,0.2,0.5,0.2c0.4,0.2,0.8,0.3,1.2,0.4s0.8,0.3,1.3,0.4
		c0.7,0.2,1.3,0.3,2,0.3c-1.8-0.1-3.6-0.5-5.3-1.2c0,0,0,0,0,0c0-0.1,0.1-0.2,0.1-0.3c0.1-0.2,0.2-0.4,0.3-0.6
		c0.2-0.5,0.3-1,0.2-1.5c0-0.1,0-0.3-0.1-0.4c0,0-0.1,0.6-0.4,1.3c-0.2,0.4-0.4,0.9-0.7,1.3c-0.3,0.4-0.5,0.9-0.6,1.5l-0.1,0.3
		c-0.1,0.4-0.2,0.8-0.2,1.1c0,0.2-0.1,0.4-0.1,0.5c-0.1,0.3-0.1,0.6-0.1,0.7c0,0.1,0,0.2,0,0.2c0,0,0,0.1,0,0.1c0,0.1,0,0.2,0,0.2
		c0.3,0.7,0.4,1.6,0.4,2.6l0,0c0,0,0,0,0,0c0,0.2,0,0.4,0,0.7c0,0.1,0,0.3,0,0.4c0,0,0.2,0.3,0,0.4C57.1,55,56.1,55.2,55.3,55.1z
		 M36.9,61c-1.3-2.5-2.6-5.1-3.6-7.9l-0.1-0.4c-0.5-1.3-0.9-2.6-1.3-3.9c-0.3-1.1-0.6-2.3-0.9-3.4c-1.3-5.7-1.7-11.5-1.3-17.4
		c1.2-0.7,10.5-5.6,23.9-7L53.2,28c0,0-1.2,0.7-1.5,1.1l-1.1,1.1c-0.3,0.1-0.6,0.1-0.8,0.1l-0.1,0l-0.5,0l-0.3,0.4
		c0,0-0.1,0.1-0.1,0.1l0,0l-0.2,0c-0.2,0-0.3-0.1-0.5-0.1c-0.1,0-0.2-0.1-0.4-0.1l-0.2,0c-0.3-0.1-0.7-0.2-1-0.2l0,0
		c0,0-0.1,0-0.1,0c0,0-0.1,0-0.1,0l0,0l0,0c-0.1,0-0.2,0-0.2,0l0,0l0,0c-0.1,0-0.2,0.1-0.3,0.1c-0.5,0.2-1,0.5-1.4,1
		c-0.1,0.1-0.2,0.2-0.3,0.3c-0.8,1.1-1.4,2.3-1.8,3.6c-0.1,0.5-0.2,1-0.3,1.5l0,0l0,0c-0.8,1.6-0.9,3.5-0.5,5.7c0,0.1,0,0.2,0.1,0.3
		c-0.3,0.1-0.6,0.3-0.8,0.3c-0.7,0.1-1.3,0.2-1.9,0.2c-0.6,0-1.3-0.1-2-0.2l-3.9-0.9l2.9,2.8c1.2,1.1,2.7,1.7,4.4,1.7
		c0.1,0,0.1,0,0.2,0c0.6,0,1.2-0.2,1.8-0.4c0.1,0.5,0.2,1.1,0.3,1.6c0.2,0.7,0.4,1.5,0.6,2.4c0.2,0.6,0.4,1.2,0.6,1.7
		c0,0.1,0.1,0.2,0.1,0.3c0,0,0,0,0,0.1c0,0.1,0.1,0.1,0.1,0.2c0,0,0.1,0.1,0.1,0.1c0,0.1,0.1,0.1,0.1,0.1c0,0,0.1,0.1,0.1,0.1
		c0,0,0.1,0.1,0.1,0.1c0,0,0.1,0.1,0.1,0.1c0,0,0.1,0.1,0.1,0.1c0,0,0.1,0.1,0.1,0.1c0,0,0.1,0.1,0.1,0.1c0,0,0.1,0.1,0.1,0.1
		c0,0,0.1,0.1,0.1,0.1c0,0,0.1,0.1,0.1,0.1c0,0,0.1,0.1,0.1,0.1c0,0,0.1,0.1,0.1,0.1l0.1,0.1c0.1,0,0.1,0.1,0.2,0.1l0.1,0
		c0.1,0,0.1,0.1,0.2,0.1l0,0c0.4,0.3,0.8,0.4,1.2,0.6c0,0,0,0,0,0c-2.6,0.9-4.9,2-6.9,3.3C38.7,59.3,37.7,60.1,36.9,61z M30.1,53.7
		c-0.5-1.4-1-2.8-1.4-4.1c-0.4-1.2-0.7-2.4-1-3.6c-1.4-6.1-1.9-12.4-1.4-18.7l0.1-1.2l1.1-0.6c0.5-0.3,10.7-6.2,26-7.6l0.1,0.3
		l-0.1,2.5c-14.4,1.5-24.2,7.1-24.3,7.2L29,27.7l0,0.2c-0.5,6,0,11.9,1.3,17.7c0.3,1.1,0.6,2.3,0.9,3.4c0.4,1.3,0.8,2.6,1.3,3.9
		l0.1,0.4c1.1,2.9,2.4,5.6,3.8,8.2c-0.6,0.8-1.2,1.6-1.5,2.4c-1.7-3-3.3-6.3-4.7-9.8L30.1,53.7z M54.3,16.1L54.3,16.1l0-0.6h0.6v0.6
		h0.9v-0.6h0.7v0.6h0.9v-0.6H58v0.6h0l-0.2,0.8h-3.3L54.3,16.1z M65.5,16.8h-3.3L62,16.1h0v-0.6h0.6h0v0.6h0.9h0v-0.6h0.7v0.6h0.9
		v-0.6h0.6v0.6h0L65.5,16.8z M69.2,39.2c0,0.1-0.1,0.2-0.3,0.2h0l-10,0c-0.2,0-0.3-0.1-0.4-0.3l-0.5-2.6c0.6-1.2,0.8-2.5,1.1-3.7
		l0-0.1h9.4h0.6c0,0,0.3,0.5,0.7,1.3C69.9,33.9,69.4,37.8,69.2,39.2z M68.3,40.8l-0.8-0.4l0-0.5l1.5,0h0c0,0,0.1,0,0.1,0l0,0.5
		L68.3,40.8z M65.4,40.4l0-0.5l1.6,0l0,0.5l-0.8,0.4L65.4,40.4z M63.9,40.8l-0.8-0.4l0-0.5l1.7,0l0,0.5L63.9,40.8z M61,40.4l0-0.5
		l1.6,0l0,0.5l-0.8,0.4L61,40.4z M58.9,40.4l0-0.5c0,0,0.1,0,0.1,0l1.5,0l0,0.5l-0.8,0.4L58.9,40.4z M49.8,50.3
		C49.8,50.4,49.9,50.4,49.8,50.3c0.1,0.2,0.2,0.3,0.2,0.3c0,0,0,0.1,0.1,0.1c0.1,0.1,0.1,0.2,0.1,0.3c0,0,0,0,0,0c0,0.1,0,0.3,0,0.4
		c0,0,0,0,0,0c0,0,0,0,0,0c0,0.3,0,0.6-0.1,0.8c-0.1,0.3-0.2,0.6-0.4,0.8c-0.1,0.1-0.2,0.2-0.3,0.4c-0.1,0.1-0.2,0.2-0.3,0.3
		c-0.2,0.1-0.5,0.2-0.8,0.3c-0.3,0.1-0.6,0.1-0.8,0.1c-0.1,0-0.2,0-0.3-0.1c0,0,0,0,0,0c0,0-0.1,0-0.1,0c-0.1,0-0.2,0-0.2-0.1
		c-0.1,0-0.1-0.1-0.2-0.1c-0.1,0-0.1-0.1-0.2-0.1c-0.1,0-0.1-0.1-0.2-0.1c-0.1,0-0.1-0.1-0.2-0.1c-0.1,0-0.1-0.1-0.2-0.2
		c-0.1,0-0.1-0.1-0.2-0.2c-0.1-0.1-0.1-0.1-0.2-0.2c-0.1-0.1-0.1-0.1-0.2-0.2c-0.1-0.1-0.1-0.1-0.2-0.2c0-0.1-0.1-0.1-0.1-0.2
		c-0.1-0.1-0.1-0.2-0.2-0.3c0,0-0.1-0.1-0.1-0.1c-0.1-0.1-0.1-0.3-0.2-0.4c-0.2-0.6-0.5-1.2-0.6-1.8c-0.2-0.7-0.4-1.4-0.5-2.1
		c-0.2-0.8-0.3-1.6-0.5-2.3c0.7-0.4,1.4-0.8,1.9-1.2c0.2-0.1,0.4-0.3,0.6-0.4c-0.1,0.3-0.4,0.7-0.7,0.8c-0.2,1.7,0.1,3.2,0.7,4.9
		c-0.1-0.5-0.1-1,0-1.5c0.1,0.6,0.2,1.2,0.4,1.8c0.2,0.6,0.4,1.1,0.6,1.6c0.2,0.4,0.5,0.9,1,1.1c0.1,0,0.2,0.1,0.3,0.1
		c0.1,0,0.2,0,0.3,0c0.1,0,0.3,0,0.4-0.1c0.7-0.2,0.8-1.2,0.4-1.5c-0.1-0.1-0.3-0.2-0.4-0.2c-0.2,0-0.3,0-0.5,0
		c0-0.1-0.1-0.1-0.1-0.2c-0.1-0.2-0.1-0.4,0-0.6c0,0,0.1-0.1,0.1-0.1c0,0,0,0,0,0c0.1-0.1,0.2-0.2,0.3-0.2c0.1,0,0.1,0,0.2-0.1
		c0.2-0.1,0.4-0.1,0.7,0c0.2,0,0.4,0.1,0.6,0.2C49.6,50.1,49.7,50.2,49.8,50.3z M54.6,17.3h3l-0.1,0.6l0.3,8.2h-3.3l0.3-8.2
		L54.6,17.3z M58.5,15.5h2.9l0.2,10.6h-3.4L58.5,15.5z M62.3,17.3h3l-0.1,0.6l0.3,8.2h-3.3l0.3-8.2L62.3,17.3z M53.5,28.6L53.5,28.6
		h1h0c0,0,0,0,0,0l0,0h2.9c1.4,1.3,1.9,2.8,2.1,3.5l-0.4,0c-1.2-1.5-2.7-2.3-4-2.4c-0.7,0-1.4,0.1-2,0.3C53,30,53,30,52.9,30
		c-0.2,0.1-0.4,0.1-0.6,0.2c-0.1,0-0.1,0-0.2,0.1c0,0-0.1,0-0.1,0c0,0,0,0,0,0c0,0,0,0,0,0c0,0,0,0,0,0c0,0,0,0,0,0
		c0.3-0.4,0.7-0.8,1.1-1.2C53.2,29,53.3,28.8,53.5,28.6z M66.8,32.1l-6.5,0l-0.3,0c0,0,0,0,0,0c-0.1-0.5-0.6-2-1.9-3.5c0,0,0,0,0,0
		h0.6H59h2.5l3.3,0C66.1,29.9,66.7,31.5,66.8,32.1z M54.4,26.6h3.4l0.1,1.4h-3.5L54.4,26.6z M62,28l0.1-1.4h3.4l0.1,1.4H62z
		 M61.7,28h-3.5l0.1-1.4h3.4L61.7,28z M44.8,41c0.1-0.2,0.1-0.3,0.2-0.4c0.6-1.3,2.2-0.9,2.6-0.2c-0.8,1.4-1.9,2.7-3.1,3.5
		c-1.2,0.8-2.9,1.8-4.5,1.9c-0.1,0-0.1,0-0.2,0c-1.4,0-2.6-0.5-3.6-1.4c0.4,0.1,0.8,0.2,1.2,0.2c0.4,0,0.7,0.1,1.1,0.1
		c0.7,0,1.4-0.1,2.2-0.2c0.5-0.1,1-0.3,1.5-0.6C43.1,43.2,44.1,42.3,44.8,41z M48.9,43.6c-0.1,0.2-0.2,0.5-0.3,0.7l0,0
		c0,0.1,0,0.1-0.1,0.2c-0.3,1-0.3,1.9-0.3,2.8c0,0.5,0,0.9,0,1.3c-0.1,0-0.2,0-0.4,0.1c-0.1,0-0.3,0.1-0.4,0.1
		c-0.2,0.1-0.3,0.2-0.5,0.3c-0.1,0.1-0.2,0.2-0.3,0.3c-0.1-0.5-0.2-1-0.3-1.5l-0.5,0c-0.3-0.9-0.3-1.8-0.3-2.7
		c0.3-0.3,0.5-0.7,0.6-1L46,44.1c0.5-0.5,1.1-1,1.5-1.6l0.3-0.1c0.2,0,0.3-0.1,0.5-0.2c0,0,0,1.6,0,1.6L48.9,43.6z M57.1,37.2
		c-0.1,0.2-0.3,0.3-0.4,0.5c-0.2,0.2-0.4,0.4-0.6,0.6c-0.4,0.3-0.8,0.6-1.3,0.9c-0.2,0.1-0.5,0.3-0.7,0.5c0,0-0.1,0-0.1,0.1
		c-0.4,0.3-0.8,0.5-1.2,0.8c-0.5,0.4-1,0.8-1.6,1.1c-0.5,0.3-1.1,0.5-1.7,0.7c0,0,0,0,0,0c0,0,0,0,0,0c0-1.5,0.1-2.7,0.4-4
		c0.1-0.5,0.3-1.1,0.5-1.6c0.1-0.3,0.3-0.9,0.4-1.6c0-0.3,0-0.7,0-1c-0.1-0.3-0.2-0.6-0.4-0.8c0,0,0.2,0.4,0.1,1.3
		c0-0.2-0.1-0.3-0.1-0.5c-0.1-0.2-0.1-0.3-0.2-0.4c0.1,0.9,0,1.9-0.5,2.7c-0.1,0.1-0.2,0.3-0.2,0.4c-0.1-0.1-0.2-0.2-0.4-0.4
		c-0.1-0.1-0.3-0.2-0.4-0.3c0.3,0.4,0.5,0.8,0.7,1.3c-0.1-0.3-0.4-0.5-0.6-0.8c0.2,0.4,0.2,1,0,1.4c-0.2,0.4-0.6,0.8-1,0.9
		c0.1,0.1,0.2,0.2,0.3,0.3c-0.4,0-0.8-0.2-1.6,0c0.1,0,0.1,0,0.2,0c0,0,0.1,0,0.1,0c0.1,0,0.2,0,0.2,0.1c0.1,0,0.2,0.1,0.2,0.1
		c0.1,0,0.1,0.1,0.2,0.1c0,0,0.1,0,0.1,0c0,0,0,0,0,0c0.3,0.1,0.5,0.3,0.7,0.6c0.1,0.2,0,0.5-0.1,0.7c0.3-0.1,0.5-0.2,0.6-0.3
		c-0.1,0.1-0.1,0.2-0.2,0.3c-0.1,0.1-0.1,0.2-0.2,0.2c-0.2,0.2-0.5,0.4-0.9,0.5c0.2-0.2,0.3-0.5,0.4-0.8l-0.2-0.3l0.2,0.1
		c0-0.3-0.3-0.5-0.6-0.7c-0.1-0.1-0.3-0.2-0.4-0.2c0,0,0,0,0,0c-0.2-0.1-0.3-0.1-0.5-0.1c-0.1,0-0.2,0-0.3,0c-0.1,0-0.3,0.1-0.5,0.1
		c-0.2,0.1-0.3,0.1-0.5,0.2c0-0.2-0.1-0.3-0.1-0.5l0,0c0,0,0-0.1,0-0.1c0-0.2,0.1-0.4,0.2-0.6h0c-0.6,0.3-1,1.3-1.1,1.9
		c-0.1,0.3-0.2,0.7-0.2,1c-0.2,0.3-0.5,0.7-0.8,1c-0.2,0.2-0.3,0.3-0.5,0.5c0,0,0,0,0,0c-0.1,0.1-0.2,0.2-0.3,0.3c0,0,0,0,0,0
		c0,0,0,0,0,0c0,0,0,0,0,0c0-0.2-0.1-0.4-0.1-0.6c-0.2-1-0.3-2-0.2-2.9c0.1-0.9,0.3-1.6,0.7-2.3l0,0c0,0,0,0,0,0c0,0,0,0,0,0l0,0
		c0-0.4,0.1-0.8,0.2-1.2s0.2-0.8,0.4-1.2c0.3-0.8,0.8-1.6,1.3-2.3c0.1-0.1,0.1-0.2,0.2-0.3c0,0,0.1-0.1,0.1-0.1
		c0.2-0.2,0.5-0.5,0.8-0.6c0.1,0,0.2-0.1,0.3-0.1c0,0,0.1,0,0.1,0c0.1,0,0.2,0,0.3,0c0,0,0,0,0,0c0,0,0,0,0,0c0.2,0,0.5,0.1,0.7,0.1
		c0.1,0,0.1,0,0.2,0c0.1,0,0.2,0.1,0.3,0.1c0.2,0,0.4,0.1,0.5,0.1c-0.2,0.1-0.4,0.1-0.6,0.1c0.4,0.1,0.7,0.1,1.1,0.1
		c0,0.4,0.3,0.8,0.6,1c-0.1-0.4,0-0.8,0.1-1.3c0-0.1,0.1-0.3,0.2-0.4c0,0,0,0,0.1-0.1c1,0,1.9-0.3,2.7-0.6c0.9-0.3,1.8-0.6,2.7-0.5
		c0.6,0,1.2,0.3,1.8,0.7c0.6,0.4,1.1,1,1.6,1.8c-0.2,1-0.4,2.2-0.8,3.2c0,0,0,0,0,0c0,0,0,0,0,0c0,0,0,0,0,0
		c-0.1,0.2-0.1,0.3-0.2,0.5c0,0,0,0.1-0.1,0.1c0,0.1-0.1,0.1-0.1,0.2c0,0.1-0.1,0.1-0.2,0.2C57.1,37.1,57.1,37.2,57.1,37.2z
		 M68.8,32.1l-1.4,0c-0.1-0.5-0.6-2-1.9-3.5h0.6C66.9,29.2,67.8,30.2,68.8,32.1z M58.1,14.2v-0.6h0.6v0.6h0.9v-0.6h0.7v0.6h0.9v-0.6
		h0.6v0.6h0L61.6,15h-3.3L58.1,14.2L58.1,14.2z M52.2,53.1c0.1-1.2,0.6-2.4,1.1-3.5c0,0.2,0,0.3,0.1,0.5c0.1,0.6,0.1,1.2,0.1,1.6
		c0,0.1,0,0.1,0,0.2c0,0.1,0,0.2,0,0.3l0,0c-0.1,0.6-0.3,1.3-0.4,1.5c0,0,0,0,0,0c0,0,0,0,0,0l-0.4,0.1
		C52.5,53.5,52.4,53.3,52.2,53.1z M65.6,52.4c-0.1-0.1-0.2-0.2-0.4-0.3c-0.1-0.1-0.3-0.2-0.4-0.2c0.2,0.3,0.4,0.7,0.4,1.1
		c-0.5-0.2-1.1-0.2-1.6,0c-0.4,0.1-0.7,0.4-0.9,0.7c0,0,0,0,0,0c0.1-0.3,0.2-0.6,0.3-0.9c0.2-0.5,0.4-0.9,0.3-1.6
		c-0.1-0.6-0.4-1.3-0.8-2c-0.2-0.4-0.4-0.9-0.6-1.3c0.1,0.1,0.1,0.1,0.1,0.1c0.1,0,0.2,0.1,0.3,0.1c0.2,0,0.5,0.1,0.7,0.1
		c0.4,0,0.8,0.1,1.3,0.1c0.3,0,0.6,0,0.9-0.1c-0.5,0.3-1.1,0.4-1.7,0.4c0.2,0.2,0.3,0.4,0.5,0.6c0.2,0.2,0.3,0.4,0.4,0.7
		c0.2,0.5,0.4,1,0.3,1.5c0.3,0.1,0.6,0.4,0.7,0.7C65.5,52.2,65.6,52.3,65.6,52.4z M58.7,48l0.1-0.3c0-0.1,0-0.1,0-0.2
		c0.4,0.2,0.8,0.3,1.2,0.4c0.3,0.1,0.6,0.2,0.9,0.2l0,0.1c0.2,0.5,0.4,1,0.6,1.4c0.3,0.6,0.6,1.2,0.7,1.7c0,0.3-0.1,0.5-0.2,0.9
		c-0.1,0.2-0.2,0.5-0.3,0.8c-0.6,0-1.1,0-1.7,0c0,0,0,0,0,0c-0.4,0-0.8,0-1.3,0l0-0.3l0,0c-0.1-0.9-0.2-1.8-0.4-2.5
		C58.3,50,58.6,48.7,58.7,48z M66.7,52c0-0.2-0.1-0.3-0.2-0.4c-0.1-0.3-0.3-0.6-0.6-0.8c0-0.5-0.2-0.9-0.4-1.4
		c0.1,0,0.2-0.1,0.3-0.1L65.4,48c0.2,0,0.5-0.1,0.7-0.1l0,0c0.2,0.3,0.3,0.5,0.5,0.9c0.3,0.5,0.6,1.1,1,1.6L68,50
		c0.3,0.5,0.7,0.9,1.1,1.2c0.1,0.1,0.3,0.3,0.5,0.4c-0.4,0.2-0.8,0.5-1.1,0.9l-0.1,0.1L68.3,53c-0.1,0.3-0.2,0.5-0.3,0.8
		c-0.2,0-0.5-0.1-0.7-0.1L66.7,52z M91.1,32.5c0-1.5-0.1-3.1-0.2-4.6l0-0.2l-0.1-0.1c-0.1,0-1.3-0.7-3.5-1.7c-0.5-0.2-1-0.5-1.5-0.7
		c-0.2-0.1-0.4-0.2-0.6-0.2c-0.3-0.1-0.6-0.3-1-0.4c-0.3-0.1-0.5-0.2-0.8-0.3c-0.2-0.1-0.5-0.2-0.7-0.3c-0.3-0.1-0.6-0.2-0.9-0.3
		c-0.2-0.1-0.4-0.1-0.5-0.2c-0.4-0.1-0.7-0.2-1.1-0.4c-0.1,0-0.2,0-0.2-0.1c-4.5-1.4-9-2.3-13.6-2.8L66.3,18l0.1-0.3
		c7.6,0.7,15.1,2.6,22.3,5.9c2.4,1,3.7,1.8,3.7,1.8l1.1,0.6l0.1,1.3c0.9,11.5-1.3,22.7-6.7,33.4c-0.6,1.1-1.2,2.3-1.8,3.4
		c-0.4-0.8-0.9-1.7-1.6-2.4C87.8,53.6,91.2,43.8,91.1,32.5z M60,87.3L60,87.3L60,87.3L60,87.3L60,87.3z M64.2,83.7
		c-2.2,1.8-3.8,2.9-4.2,3.2v0c-0.7-0.5-3.3-2.3-6.7-5.4c2.1,0.3,4.4,0.5,6.6,0.5c0,0,0,0,0,0c2.3,0,4.5-0.2,6.7-0.5
		C65.9,82.3,65.1,83,64.2,83.7z M59.8,87.6l0.2,0.1l0.2-0.1c0,0,1.8-1.2,4.5-3.4c1.1-0.9,2.1-1.8,3.2-2.8c1.7-0.3,3.3-0.7,4.8-1.2
		c-0.5,0.5-1,1.1-1.6,1.6c-1.6,1.6-3.3,3.1-5,4.5c-2.8,2.3-4.7,3.5-4.7,3.6L60,90.7l-1.3-0.9h0c-0.2-0.1-5.1-3.3-11-9.3
		c-0.1-0.1-0.2-0.2-0.3-0.3c1.5,0.5,3.2,0.9,4.9,1.2C56.6,85.4,59.8,87.5,59.8,87.6z M84.7,67.6c0,0.1,0,0.2,0,0.3c0,0,0-0.1,0-0.1
		c0,0.1,0,0.1,0,0.2c-0.4,7.2-11.3,13-24.7,13c-13.4,0-24.4-5.8-24.7-13c0-0.1,0-0.1,0-0.2c0,0,0,0.1,0,0.1c0-0.1,0-0.2,0-0.3
		c0-3,1.8-5.8,5.3-8.2c3.3-2.2,7.8-3.9,12.9-4.6c0.1,0.1,0.2,0.2,0.3,0.3c0.4,0.3,1.2,0.5,2.2,0.5c0.5,0,1.6,0,2.2-0.5
		c0.2-0.2,0.2-0.5,0.1-0.8c0.6,0,1.2,0,1.8,0C73.6,54.3,84.7,60.3,84.7,67.6z"/>
	<path class="st2" d="M58.7,52.9l0,0.3c0.4,0,0.9,0,1.3,0c0,0,0,0,0,0V48c-0.4-0.1-0.8-0.3-1.2-0.4c0,0.1,0,0.1,0,0.2L58.7,48
		c-0.1,0.7-0.4,2-0.5,2.4C58.5,51.1,58.6,52,58.7,52.9L58.7,52.9z"/>
	<path class="st2" d="M47.9,42.4l-0.3,0.1c-0.5,0.6-1,1.2-1.5,1.6l0.3,0.2c-0.1,0.3-0.3,0.7-0.6,1c0,0.9,0,1.8,0.3,2.7l0.5,0
		c0.1,0.5,0.2,1,0.3,1.5c0.1-0.1,0.2-0.2,0.3-0.3c0.2-0.1,0.3-0.2,0.5-0.3c0.1-0.1,0.2-0.1,0.4-0.1c0.1,0,0.2-0.1,0.4-0.1
		c0-0.4,0-0.9,0-1.3c0-0.9,0-1.8,0.3-2.8c0-0.1,0-0.1,0.1-0.2l0,0c0.1-0.2,0.2-0.5,0.3-0.7l-0.6,0.2c0,0,0-1.6,0-1.6
		C48.2,42.3,48.1,42.3,47.9,42.4z"/>
	<path class="st2" d="M53,53.7C53,53.7,53,53.7,53,53.7C53,53.7,53,53.7,53,53.7c0.1-0.2,0.4-0.9,0.4-1.5l0,0c0-0.1,0-0.2,0-0.3
		c0-0.1,0-0.1,0-0.2c0-0.5,0-1-0.1-1.6c0-0.2,0-0.3-0.1-0.5c-0.5,1.1-0.9,2.3-1.1,3.5c0.1,0.2,0.3,0.4,0.4,0.6L53,53.7z"/>
	<path class="st2" d="M46.7,55.2C46.7,55.2,46.7,55.2,46.7,55.2c-0.4-0.1-0.8-0.3-1.2-0.6l0,0c-0.1,0-0.1-0.1-0.2-0.1l-0.1,0
		c-0.1,0-0.1-0.1-0.2-0.1L45,54.2c0,0-0.1-0.1-0.1-0.1c0,0-0.1-0.1-0.1-0.1c0,0-0.1-0.1-0.1-0.1c0,0-0.1-0.1-0.1-0.1
		c0,0-0.1-0.1-0.1-0.1c0,0-0.1-0.1-0.1-0.1c0,0-0.1-0.1-0.1-0.1c0,0-0.1-0.1-0.1-0.1c0,0-0.1-0.1-0.1-0.1c0,0-0.1-0.1-0.1-0.1
		c0,0-0.1-0.1-0.1-0.1c0,0-0.1-0.1-0.1-0.1c0,0,0-0.1-0.1-0.1c0-0.1-0.1-0.1-0.1-0.2c0,0,0-0.1,0-0.1c0-0.1-0.1-0.2-0.1-0.3
		c-0.2-0.5-0.4-1-0.6-1.7c-0.3-0.8-0.5-1.7-0.6-2.4c-0.1-0.5-0.2-1.1-0.3-1.6c-0.6,0.2-1.2,0.3-1.8,0.4c-0.1,0-0.1,0-0.2,0
		c-1.7,0-3.2-0.6-4.4-1.7l-2.9-2.8l3.9,0.9c0.7,0.2,1.4,0.2,2,0.2c0.6,0,1.2-0.1,1.9-0.2c0.2-0.1,0.5-0.2,0.8-0.3
		c0-0.1,0-0.2-0.1-0.3c-0.5-2.2-0.3-4.2,0.5-5.7l0,0l0,0c0-0.5,0.1-1,0.3-1.5c0.3-1.3,1-2.5,1.8-3.6c0.1-0.1,0.2-0.2,0.3-0.3
		c0.5-0.5,0.9-0.8,1.4-1c0.1,0,0.2-0.1,0.3-0.1l0,0l0,0c0.1,0,0.2,0,0.2,0l0,0l0,0c0,0,0.1,0,0.1,0c0,0,0.1,0,0.1,0l0,0
		c0.4,0,0.8,0.1,1,0.2l0.2,0c0.1,0,0.2,0.1,0.4,0.1c0.2,0,0.3,0.1,0.5,0.1l0.2,0l0,0c0,0,0.1-0.1,0.1-0.1l0.3-0.4l0.5,0l0.1,0
		c0.3,0,0.6,0,0.8-0.1l1.1-1.1c0.4-0.5,1.5-1.1,1.5-1.1l0.3-6.9c-13.4,1.4-22.7,6.3-23.9,7c-0.5,5.9,0,11.7,1.3,17.4
		c0.3,1.1,0.6,2.3,0.9,3.4c0.4,1.3,0.8,2.6,1.3,3.9l0.1,0.4c1.1,2.8,2.3,5.4,3.6,7.9c0.8-0.9,1.8-1.8,3-2.5
		C41.8,57.2,44.1,56,46.7,55.2z"/>
	<path class="st2" d="M60,82.1c-2.3,0-4.5-0.2-6.6-0.5c3.4,3.1,6,4.9,6.7,5.4L60,82.1C60,82.1,60,82.1,60,82.1z"/>
	<path class="st3" d="M60,82.1v4.9v0c0.5-0.3,2.1-1.4,4.2-3.2c0.8-0.7,1.6-1.4,2.5-2.1C64.5,81.9,62.3,82.1,60,82.1z"/>
	<path class="st3" d="M61.7,53.2c0.1-0.3,0.2-0.6,0.3-0.8c0.2-0.4,0.3-0.6,0.2-0.9c-0.1-0.4-0.4-1.1-0.7-1.7c-0.2-0.5-0.5-1-0.6-1.4
		l0-0.1c-0.3-0.1-0.6-0.2-0.9-0.2v5.2C60.6,53.2,61.1,53.2,61.7,53.2z"/>
	<path class="st3" d="M67.9,53.9c0.1-0.3,0.2-0.6,0.3-0.8l0.1-0.3l0.1-0.1c0.3-0.4,0.7-0.7,1.1-0.9c-0.2-0.1-0.4-0.3-0.5-0.4
		c-0.4-0.3-0.7-0.8-1.1-1.2l-0.4,0.3c-0.4-0.5-0.7-1.1-1-1.6c-0.2-0.3-0.3-0.6-0.5-0.9l0,0c-0.2,0.1-0.5,0.1-0.7,0.1l0.4,1.3
		c-0.1,0-0.2,0.1-0.3,0.1c0.2,0.5,0.4,0.9,0.4,1.4c0.2,0.2,0.4,0.5,0.6,0.8c0.1,0.1,0.1,0.3,0.2,0.4l0.5,1.7
		C67.5,53.8,67.7,53.8,67.9,53.9z"/>
	<path class="st3" d="M90.4,28.1c-0.4-0.2-1.5-0.8-3.3-1.6c-6.7-3-13.6-4.9-20.7-5.5l0.3,7.3c2.6,2.7,4.1,5.6,4.8,7.3
		c0.9,2.1,1.2,3.9,1.3,4.4c0.3,1.8,0.3,3.3,0.1,4.5c0.1,0.9,0.2,1.9,0.2,2.8c0,1,0.1,2.1,0.2,3c0.1,0.7,0.3,1.4,0.4,2
		c0.3,1.1,0.5,2.2,0.6,3.4c1.2,0.5,2.4,1,3.5,1.6c2.1,1.1,3.8,2.4,5.1,3.8C87.9,52.2,91.4,41,90.4,28.1z"/>
	<rect x="60" y="87.3" class="st3" width="0" height="0"/>
	<path class="st1" d="M57.2,54.4c0.1-1.2-0.1-2.4-0.4-3.5c-0.1,0.5-0.1,1-0.1,1.5c0,0.4-0.1,0.7-0.2,1.1c0,0.1-0.1,0.2-0.1,0.3
		c-0.2,0.4-0.6,0.8-1.1,0.9c0.2,0.1,0.3,0.1,0.5,0.1C56.3,54.9,56.8,54.7,57.2,54.4z"/>
	<path class="st1" d="M46.7,34.7c-0.1,0-0.3,0.1-0.4,0.1c-0.1,0.1-0.2,0.1-0.3,0.2c-0.1,0.1-0.2,0.1-0.2,0.2
		c-0.1,0.2-0.3,0.9-0.4,1.1c0.9-0.5,1.1-1.5,2.4-1.4c-0.2-0.1-0.5-0.2-0.7-0.2C47,34.7,46.9,34.7,46.7,34.7z"/>
	<path class="st1" d="M51.4,34c0.2-0.4,0.2-0.9,0.2-1.3c2.3-0.7,3.2-0.8,4.3-0.4c0.5,0.2,1,0.4,1.7,0.7c-0.2-0.2-0.4-0.4-0.5-0.5
		c-0.6-0.5-1.3-0.9-2-1c-1.5-0.2-2.6,0.7-4.5,0.7c0.1,0.1,0.2,0.2,0.3,0.4C51.2,32.9,51.4,33.5,51.4,34z"/>
	<path class="st1" d="M46.8,36c-0.1,0-0.2,0-0.3,0.1c-0.1,0-0.2,0.1-0.3,0.2c-0.1,0.1-0.1,0.2-0.1,0.3c0,0-0.2,0-0.2-0.1
		c0,0.2,0.1,0.3,0.1,0.7c0,0.1,0,0.2,0,0.4c0.2-0.1,0.3-0.4,0.5-0.7c0,0,0.1-0.1,0.1-0.1c0,0,0.1-0.1,0.1-0.1c0,0,0.1,0,0.1,0
		c0,0,0.1,0,0.1,0c0.3-0.1,0.8-0.3,0.8-0.8c-0.2,0.2-0.5,0.3-0.7,0.3C47,36,46.9,36,46.8,36z"/>
	<path class="st4" d="M58.3,26.1h3.4l-0.2-10.6h-2.9L58.3,26.1z M59.8,17h0.3v0.6h0.4v0.3h-0.4v1.5h-0.3v-1.5h-0.4v-0.3h0.4V17z"/>
	<polygon class="st4" points="58.3,26.6 58.2,28 61.7,28 61.7,26.6 	"/>
	<polygon class="st4" points="58.3,15 61.6,15 61.8,14.2 61.8,14.2 61.8,13.6 61.2,13.6 61.2,14.2 60.3,14.2 60.3,13.6 59.6,13.6 
		59.6,14.2 58.7,14.2 58.7,13.6 58.1,13.6 58.1,14.2 58.1,14.2 	"/>
	<path class="st4" d="M62.4,17.9l-0.3,8.2h3.3l-0.3-8.2l0.1-0.6h-3L62.4,17.9z M64,20.9h-0.3v-1.5h-0.4v-0.3h0.4v-0.6H64v0.6h0.4
		v0.3H64V20.9z"/>
	<polygon class="st4" points="65.6,15.5 65.1,15.5 65.1,16.1 64.2,16.1 64.2,15.5 63.4,15.5 63.4,16.1 63.4,16.1 62.5,16.1 
		62.5,15.5 62.5,15.5 62,15.5 62,16.1 62,16.1 62.2,16.8 65.5,16.8 65.6,16.1 65.6,16.1 	"/>
	<polygon class="st4" points="65.5,26.6 62.1,26.6 62,28 65.6,28 	"/>
	<path class="st4" d="M54.8,17.9l-0.3,8.2h3.3l-0.3-8.2l0.1-0.6h-3L54.8,17.9z M56.3,20.9H56v-1.5h-0.4v-0.3H56v-0.6h0.3v0.6h0.4
		v0.3h-0.4V20.9z"/>
	<polygon class="st4" points="54.5,16.8 57.8,16.8 58,16.1 58,16.1 58,15.5 57.4,15.5 57.4,16.1 56.5,16.1 56.5,15.5 55.8,15.5 
		55.8,16.1 54.9,16.1 54.9,15.5 54.3,15.5 54.3,16.1 54.3,16.1 	"/>
	<polygon class="st4" points="57.9,28 57.8,26.6 54.4,26.6 54.4,28 	"/>
	<polygon class="st1" points="59.4,17.6 59.4,17.9 59.8,17.9 59.8,19.4 60.1,19.4 60.1,17.9 60.5,17.9 60.5,17.6 60.1,17.6 60.1,17 
		59.8,17 59.8,17.6 	"/>
	<polygon class="st1" points="64.4,19.5 64.4,19.2 64,19.2 64,18.6 63.6,18.6 63.6,19.2 63.2,19.2 63.2,19.5 63.6,19.5 63.6,20.9 
		64,20.9 64,19.5 	"/>
	<polygon class="st1" points="56.7,19.5 56.7,19.2 56.3,19.2 56.3,18.6 56,18.6 56,19.2 55.6,19.2 55.6,19.5 56,19.5 56,20.9 
		56.3,20.9 56.3,19.5 	"/>
	<path class="st5" d="M69.1,39.9C69,39.9,69,39.9,69.1,39.9L69.1,39.9l-1.5,0l0,0.5l0.8,0.4l0.8-0.4L69.1,39.9z"/>
	<polygon class="st5" points="67,39.9 65.4,39.9 65.4,40.4 66.1,40.8 66.9,40.4 	"/>
	<polygon class="st5" points="64.8,39.9 63.1,39.9 63.1,40.4 63.9,40.8 64.8,40.4 	"/>
	<path class="st5" d="M69.9,33.9c-0.4-0.8-0.7-1.3-0.7-1.3h-0.6h-9.4l0,0.1c-0.2,1.2-0.5,2.5-1.1,3.7l0.5,2.6c0,0.2,0.2,0.3,0.4,0.3
		l10,0h0c0.1,0,0.2-0.1,0.3-0.2C69.4,37.8,69.9,33.9,69.9,33.9z M67,35.1C67,35,67,35,67,35.1c0,0.1-0.1,0.1-0.2,0.2
		c-0.1,0.1-0.2,0.1-0.3,0.2c0,0,0,0,0,0c0,0,0,0,0,0c0,0,0.1,0,0.1,0c0.1-0.1,0.3-0.1,0.5-0.2c0,0,0,0,0,0c0,0,0,0,0,0
		c-0.1,0.1-0.2,0.2-0.3,0.3c-0.1,0.1-0.1,0.1-0.2,0.2c0,0,0,0,0,0c0,0,0,0,0,0c0.1,0,0.2,0,0.2,0c0,0,0,0,0,0c0,0,0,0,0,0
		c-0.1,0-0.1,0-0.2,0c-0.1,0-0.2,0.1-0.3,0.1c0,0-0.1,0-0.1,0.1c0,0,0,0,0,0c0,0,0,0,0,0c0.1,0,0.3,0,0.4,0c0,0,0,0,0,0c0,0,0,0,0,0
		c-0.2,0.1-0.3,0.2-0.5,0.2c0,0,0,0,0,0c0.1,0,0.2,0,0.3,0.1c-0.1,0-0.2,0-0.2,0c-0.1,0-0.2,0-0.3,0c-0.1,0-0.2,0-0.3,0c0,0,0,0,0,0
		c0,0,0,0,0,0c0,0,0,0,0,0c0.1,0,0.2,0.1,0.3,0.1c0.1,0,0.1,0,0.2,0c0.1,0,0.2,0,0.3,0c0,0,0,0,0,0c0,0,0,0,0,0
		c-0.1,0-0.3,0.1-0.4,0.1c-0.1,0-0.1,0-0.2,0c0,0,0,0,0,0c0,0,0,0,0,0c0.1,0.1,0.2,0.2,0.4,0.2c0,0,0,0,0.1,0c0,0-0.1,0-0.1,0
		c-0.1,0-0.2,0-0.3,0c-0.1,0-0.1-0.1-0.2-0.1c0,0,0,0,0,0c0,0,0,0,0,0c0,0.1,0,0.2,0.1,0.3c0,0.1,0,0.1,0,0.2
		c-0.1-0.1-0.1-0.1-0.1-0.2c0,0,0,0,0,0c0,0,0,0,0,0c0,0,0,0.1,0,0.1c0-0.1-0.1-0.1-0.1-0.2c0-0.1-0.1-0.2-0.1-0.2c0,0,0,0,0,0
		c0,0,0,0,0,0c0,0.2,0,0.4,0,0.6c0,0,0,0.1,0,0.1c0,0,0,0,0,0.1c0,0,0,0,0-0.1c0-0.1-0.1-0.2-0.1-0.3c0,0,0,0,0,0c0,0,0,0,0,0
		c0,0.1,0,0.1,0,0.2c-0.1-0.1-0.1-0.2-0.1-0.3c0,0,0,0,0,0c0,0,0-0.1,0-0.1c0,0,0,0.1,0,0.1c0,0.1,0,0.2,0,0.2c0,0.1,0,0.2,0,0.3
		c0,0,0-0.1-0.1-0.1c0,0,0,0.1,0,0.1c0,0.5-0.2,1-0.6,1.2c0.2-0.3,0.3-0.7,0.4-1.2c-0.1,0.3-0.3,0.6-0.6,0.7c0,0,0.1,0.1,0.2,0.1
		c-0.1,0-0.2,0-0.2-0.1c-0.1,0-0.1,0.1-0.2,0.1c0.1,0,0.1-0.1,0.2-0.1c-0.3-0.2-0.5-0.4-0.6-0.7c0,0.5,0.2,0.9,0.4,1.2
		c-0.3-0.2-0.6-0.7-0.6-1.2c0-0.1,0-0.2,0-0.2c0,0.1-0.1,0.1-0.1,0.2c0-0.1,0-0.2,0-0.3c0-0.1,0-0.2,0-0.3c0,0,0,0,0,0c0,0,0,0,0,0
		c0,0.2-0.1,0.3-0.2,0.4c0-0.1,0-0.1,0-0.2c0,0,0,0,0,0c0,0,0,0,0,0c0,0.1-0.1,0.2-0.1,0.3c0,0,0,0,0,0c0,0,0,0,0,0
		c0-0.1,0-0.2,0-0.3c0-0.1,0-0.2,0-0.4c0,0,0,0,0,0c0,0,0,0,0-0.1c0,0,0,0,0,0c0,0-0.1,0-0.1,0.1c0,0,0,0.1,0,0.1
		c0,0.1-0.1,0.2-0.1,0.3c0,0,0-0.1,0-0.1c0,0,0,0,0-0.1c0,0,0,0,0,0c0,0.1-0.1,0.1-0.1,0.2c0,0,0,0,0,0c0-0.1,0.1-0.1,0.1-0.2
		c0-0.1,0-0.1,0-0.2c0-0.1,0-0.1,0.1-0.2c0,0,0,0,0,0c0,0,0,0,0,0c-0.2,0.1-0.4,0.1-0.6,0.1c0,0,0,0,0,0c0,0,0,0,0,0
		c0.1,0,0.2-0.1,0.3-0.1c0,0,0.1,0,0.1-0.1c-0.1,0-0.1,0-0.2,0c-0.1,0-0.1,0-0.2,0c-0.1,0-0.3-0.1-0.4-0.1c0.1,0,0.1,0,0.2,0
		c0.2,0,0.3,0,0.5-0.1c0,0,0,0,0.1,0c0,0,0,0-0.1,0c-0.1,0-0.3,0-0.4,0c-0.1,0-0.2,0-0.4,0c0,0,0,0,0,0c0,0,0,0,0,0
		c0.1,0,0.2,0,0.3-0.1c0,0,0,0,0,0c0,0,0,0,0,0c-0.2-0.1-0.3-0.2-0.5-0.2c0.2,0,0.3,0,0.4,0c0,0,0,0,0,0c0,0,0,0,0,0
		c-0.1-0.1-0.3-0.2-0.4-0.2c-0.1,0-0.1,0-0.2,0c0.1-0.1,0.2-0.1,0.3-0.1c0,0,0,0,0,0c0,0,0,0,0,0c-0.1-0.1-0.2-0.1-0.3-0.2
		c-0.1-0.1-0.2-0.2-0.3-0.2c0,0,0,0,0,0c0,0,0,0,0,0c0.1,0,0.2,0.1,0.3,0.1c0.1,0.1,0.2,0.1,0.3,0.1c0,0,0,0,0,0c0,0,0,0,0,0
		c-0.1-0.1-0.2-0.1-0.3-0.2C61,35.1,61,35,60.9,35c0,0,0,0,0,0c0,0,0,0,0,0c0,0,0.1,0,0.1,0c0,0,0,0,0,0c0,0,0,0,0,0
		c-0.1-0.1-0.1-0.2-0.2-0.4c0-0.1,0-0.1-0.1-0.1c0,0,0,0,0,0c0,0,0,0,0,0c0.1,0.1,0.2,0.1,0.3,0.2c0.1,0.1,0.2,0.2,0.4,0.3
		c0.1,0.1,0.2,0.1,0.3,0.2c0,0,0,0,0.1,0c0,0,0,0,0,0c-0.1-0.1-0.3-0.2-0.4-0.3c-0.1-0.1-0.2-0.2-0.3-0.4c0,0,0,0,0-0.1
		c0,0,0.1,0.1,0.1,0.1c0,0,0,0,0.1,0c0,0,0,0,0-0.1c0-0.1,0-0.1-0.1-0.2c0-0.1,0-0.3,0-0.4c0-0.1,0-0.1,0-0.2c0,0,0,0,0,0
		c0,0,0,0,0,0c0,0,0.1,0.1,0.1,0.1c0,0.1,0,0.1,0.1,0.2c0.1,0.3,0.3,0.5,0.5,0.7c0.1,0.1,0.1,0.1,0.2,0.1c0,0,0,0,0,0c0,0,0,0,0,0
		c-0.1-0.2-0.3-0.4-0.4-0.6c-0.1-0.1-0.1-0.3-0.1-0.4c0-0.2,0-0.3,0-0.5c0-0.1,0-0.1,0-0.2c0,0,0,0,0,0c0,0,0,0,0,0
		c0.1,0.2,0.2,0.4,0.2,0.6c0,0.1,0.1,0.3,0.1,0.4c0,0,0,0,0,0c0,0,0,0,0,0c0-0.1,0-0.3,0-0.4c0,0,0,0,0,0c0,0,0,0,0,0
		c0,0.3,0.1,0.5,0.2,0.7c0,0,0,0,0,0.1c0,0.1,0.1,0.2,0.2,0.3c0,0,0,0,0,0.1c0,0,0,0,0,0c0,0.1,0.1,0.1,0.1,0.2c0,0,0,0,0,0
		c0,0,0,0,0,0c0,0,0.1,0.1,0.1,0.1c0,0,0.1,0.1,0.1,0.1c0,0,0,0,0.1,0c0,0,0,0,0,0.1c0,0,0,0,0,0c0,0,0-0.1,0-0.1c0,0,0,0,0,0
		c0,0,0,0,0,0c0.1,0.2,0.2,0.3,0.3,0.4c0,0,0.1,0,0.1,0c0,0,0,0,0,0c0-0.1,0-0.1,0-0.2c0,0,0,0,0,0c0,0,0,0,0,0c0,0,0,0,0,0
		c0,0,0,0,0,0c0,0,0,0,0,0c0,0,0,0,0-0.1c0,0,0,0,0-0.1c0,0,0,0,0-0.1c0,0,0,0,0,0c0,0,0,0,0,0c0,0,0,0,0,0c0-0.1,0.1-0.2,0.1-0.2
		c0.1-0.1,0.2-0.2,0.3-0.2c0.1,0,0.2,0,0.3,0.1c0,0,0.1,0,0.1,0c0.1,0,0.2,0.1,0.2,0.2c0,0,0,0.1,0,0c-0.1,0-0.1,0-0.2,0
		c0,0,0,0,0,0c0,0,0,0,0,0c0,0,0.1,0,0.1,0c-0.1,0-0.1,0.1-0.2,0.1c0,0,0,0,0,0.1c0,0.1,0.1,0.1,0.1,0.2c0,0,0,0.1,0,0.1
		c0,0,0,0,0,0c0,0,0.1,0,0.1,0c0,0,0.1,0,0.1-0.1c0-0.1,0.1-0.1,0.2-0.2c0,0,0.1-0.1,0.1-0.2c0,0,0,0,0,0c0,0,0,0,0,0
		c0,0,0,0.1,0,0.1c0,0,0,0,0,0c0,0,0,0,0,0c0,0,0,0,0-0.1c0,0,0-0.1,0,0c0,0,0,0,0,0c0,0,0,0,0,0c0.3-0.3,0.6-0.6,0.8-1
		c0-0.1,0.1-0.1,0-0.2c0,0,0,0,0,0c0.1-0.1,0.1-0.1,0.1-0.2c0,0,0,0,0,0c0,0,0,0,0,0c0,0.1,0,0.2,0,0.3c0,0,0,0,0,0.1
		c0,0,0-0.1,0-0.1c0-0.1,0.1-0.3,0.1-0.4c0-0.1,0.1-0.2,0.1-0.2c0-0.1,0.1-0.2,0.2-0.3c0,0,0,0,0,0c0,0,0,0,0,0c0,0.1,0,0.1,0,0.2
		c0,0.1,0,0.2,0,0.3c0,0.1,0,0.3,0,0.4c0,0.1-0.1,0.3-0.2,0.4c-0.1,0.1-0.2,0.3-0.3,0.4c0,0,0,0,0,0c0,0,0,0,0,0
		c0.3-0.2,0.5-0.5,0.6-0.8c0-0.1,0.1-0.2,0.1-0.3c0,0,0,0,0-0.1c0,0,0,0,0,0c0,0,0,0,0,0c0,0.1,0,0.2,0,0.2c0,0.1,0,0.2,0,0.3
		c0,0.1,0,0.2-0.1,0.3c0,0,0,0,0,0c0,0,0,0,0,0c0,0,0.1-0.1,0.1-0.1c0,0.1-0.1,0.1-0.1,0.2c-0.2,0.2-0.3,0.4-0.6,0.5c0,0,0,0-0.1,0
		c0,0,0,0,0,0c0,0,0,0,0,0c0,0,0.1,0,0.1-0.1c0.2-0.1,0.3-0.2,0.5-0.3c0,0,0,0,0.1-0.1c0.1-0.1,0.2-0.2,0.3-0.2c0,0,0,0,0,0
		c0,0,0,0,0,0c0,0.1,0,0.2-0.1,0.3C67,34.9,67,35,67,35.1C66.9,35,66.9,35.1,67,35.1C67,35.1,67,35.1,67,35.1z"/>
	<path class="st5" d="M64.2,34.8c0,0-0.2-0.1-0.2,0C64,34.9,64.2,34.8,64.2,34.8z"/>
	<path class="st5" d="M63.5,37.5c0,0,0,0.1,0,0.1c0.1,0.4,0.2,0.7,0.4,0.9c0.2-0.2,0.4-0.5,0.4-0.9c0,0,0-0.1,0-0.1
		c-0.2,0.4-0.4,0.9-0.5,0.9S63.7,37.9,63.5,37.5z"/>
	<path class="st6" d="M64.8,51.4c0.1-0.5-0.1-1-0.3-1.5c-0.1-0.2-0.3-0.4-0.4-0.7c-0.2-0.2-0.3-0.4-0.5-0.6c0.6,0,1.2-0.1,1.7-0.4
		c-0.3,0-0.6,0.1-0.9,0.1c-0.4,0-0.9,0-1.3-0.1c-0.3,0-0.5-0.1-0.7-0.1c-0.1,0-0.2,0-0.3-0.1c0,0,0,0-0.1-0.1
		c0.1,0.4,0.3,0.8,0.6,1.3c0.3,0.7,0.7,1.4,0.8,2c0.1,0.6-0.1,1.1-0.3,1.6c-0.1,0.3-0.3,0.5-0.3,0.9c0,0,0,0,0,0
		c0.2-0.3,0.5-0.6,0.9-0.7c0.5-0.2,1.1-0.2,1.6,0c0-0.4-0.2-0.8-0.4-1.1c0.1,0.1,0.3,0.1,0.4,0.2c0.1,0.1,0.3,0.2,0.4,0.3
		c0-0.1-0.1-0.2-0.1-0.3C65.4,51.8,65.1,51.5,64.8,51.4z"/>
	<path class="st5" d="M60.4,40.4l0-0.5l-1.5,0c0,0-0.1,0-0.1,0l0,0.5l0.7,0.4L60.4,40.4z"/>
	<path class="st6" d="M54.5,52.7c-0.1,0.7-0.4,1.4-0.5,1.5C54.1,54.1,54.4,53.4,54.5,52.7z"/>
	<path class="st6" d="M53.7,43.5c0-0.1,0-0.3,0-0.4C53.7,43.2,53.7,43.3,53.7,43.5z"/>
	<polygon class="st6" points="53.9,54.5 53.9,54.5 53.9,54.5 	"/>
	<path class="st6" d="M54,54.7C54,54.7,54,54.7,54,54.7C54,54.7,54,54.7,54,54.7C54,54.7,54,54.7,54,54.7C54,54.7,54,54.7,54,54.7z"
		/>
	<path class="st6" d="M57.6,54.3c0-0.1,0-0.3,0-0.4c0-0.2,0-0.4,0-0.7c0,0,0,0,0,0l0,0c-0.1-0.9-0.1-1.9-0.4-2.6c0,0,0-0.1,0-0.2
		c0,0,0-0.1,0-0.1c0-0.1,0-0.1,0-0.2c0-0.2,0.1-0.4,0.1-0.7c0-0.2,0.1-0.3,0.1-0.5c0.1-0.3,0.1-0.7,0.2-1.1l0.1-0.3
		c0.1-0.5,0.3-1,0.6-1.5c0.3-0.4,0.5-0.9,0.7-1.3c0.3-0.7,0.4-1.3,0.4-1.3c0,0.1,0.1,0.3,0.1,0.4c0.1,0.5-0.1,1.1-0.2,1.5
		c-0.1,0.2-0.2,0.4-0.3,0.6c0,0.1-0.1,0.2-0.1,0.3c0,0,0,0,0,0c1.6,0.7,3.4,1.2,5.3,1.2c-0.7-0.1-1.3-0.2-2-0.3
		c-0.4-0.1-0.9-0.2-1.3-0.4s-0.8-0.3-1.2-0.4c-0.2-0.1-0.4-0.2-0.5-0.2c0.2-0.2,0.3-0.5,0.4-0.8c0.1-0.3,0.2-0.6,0.2-0.9
		c0.9,1.1,2.2,1.8,3.6,2.2c1.4,0.4,3.1,0.4,4.2-0.9c-0.1,0.3-0.3,0.6-0.5,0.9c0.3-0.3,0.5-0.6,0.7-1c0.1-0.2,0.5-1.1,0.8-1.7
		c0.2-0.4,0.3-0.7,0.4-0.8c0,0,0,0.2-0.1,0.5c0,0.1,0,0.2-0.1,0.4c0,0.1,0,0.1,0,0.2c0,0.1-0.1,0.3-0.1,0.5
		c-0.1,0.2-0.1,0.5-0.2,0.7c-0.1,0.2-0.2,0.4-0.3,0.6c0,0-0.1,0.1-0.1,0.1c0.2-0.2,0.3-0.4,0.5-0.6c0.2-0.2,0.3-0.4,0.4-0.6
		c0,0.1-0.1,0.3-0.1,0.5c-0.1,0.2-0.3,0.5-0.4,0.7c-0.1,0.2-0.2,0.3-0.3,0.4c-0.1,0.1-0.1,0.1-0.2,0.2c-0.2,0.2-0.5,0.4-0.8,0.6
		c0,0,0,0,0,0c0.2,0.3,0.4,0.6,0.5,0.9c0.3,0.5,0.6,1,0.9,1.5c-0.1-0.1-0.1-0.3-0.2-0.5c-0.2-0.5-0.4-1-0.6-1.6
		c0.1,0.1,0.2,0.2,0.2,0.3c0.2,0.2,0.3,0.5,0.5,0.8c0.2,0.3,0.4,0.5,0.6,0.8c0.2,0.3,0.4,0.5,0.6,0.7c0.1,0.1,0.2,0.2,0.3,0.3
		c0.4,0.3,1,0.7,1.5,0.8c0.1,0.3,0.1,0.5,0.2,0.8c-0.1,0-0.2-0.1-0.2-0.1c-0.2,0-0.3,0-0.5,0c-0.1,0-0.2,0-0.3,0
		c0.4,0.1,0.7,0.3,1.1,0.6c0,0-0.1,0-0.1,0c0,0,0,0,0,0c0,0,0,0-0.1,0c-0.5-0.1-0.9,0-1.4,0.2c-0.3,0.1-0.5,0.4-0.7,0.6
		c0,0.1-0.1,0.1-0.1,0.2c-0.2,0.3-0.3,0.7-0.4,1c0.7,0.2,1.5,0.3,2.2,0.5c-0.1,0-0.2-0.1-0.4-0.1c0.1-0.7,0.8-1.3,1.4-1.6
		c-0.1-0.8-0.2-1.4-0.4-2.2c-1.4-0.9-2.8-2.6-2.9-4.2c0.9-1.6,1.3-3.4,1.4-5.1c0.3,1.8,0.2,3.7-0.6,5.4c0.3,1.5,1.2,2.9,2.5,3.8
		c0.2,1,0.4,2,0.4,2.9c-0.2,0-0.4,0.1-0.5,0.1c-0.5,0.2-0.8,0.6-0.8,1.1c0.7,0.2,1.4,0.4,2.1,0.6c-0.1-1.1-0.3-2.2-0.6-3.2
		c-0.2-0.7-0.3-1.4-0.5-2.1c-0.2-0.9-0.2-2.1-0.3-3.1c0-0.9-0.1-1.8-0.2-2.7c-0.1,0.3-0.6,1.2-0.8,1.4c0,0,0,0,0,0
		c0.5-2.4,0.7-4.5,0.6-6c-0.1-2.4-1.5-5.4-1.5-5.4l-0.7,6.1l-1,0.5c0,0.2,0.1,0.5,0.3,0.7c-0.2,0-0.3,0.2-0.5,0.3c0,0,0,0,0,0
		c0,0,0,0,0,0c-0.1,0-0.2-0.2-0.3-0.2c0,0-0.1,0-0.1,0c0.1-0.1,0.2-0.2,0.2-0.3c0-0.1,0.1-0.2,0.1-0.4l-0.8-0.4l-0.9,0.4
		c0,0.2,0.1,0.5,0.3,0.7c-0.1,0-0.2,0.1-0.3,0.2c0,0-0.1,0.1-0.1,0.1c0,0,0,0,0,0c0,0,0,0,0,0c-0.1-0.1-0.3-0.2-0.4-0.2
		c0.1-0.1,0.2-0.3,0.2-0.5c0-0.1,0-0.1,0-0.2l-0.8-0.4l-0.9,0.4c0,0.2,0.1,0.5,0.3,0.7c-0.2,0-0.3,0.3-0.5,0.3
		c-0.2,0-0.3-0.3-0.5-0.3c0.2-0.2,0.3-0.4,0.3-0.7l-0.8-0.4l-0.9,0.4c0,0.2,0.1,0.5,0.3,0.7c-0.1,0-0.2,0.1-0.3,0.2
		c0,0-0.1,0.1-0.1,0.1c0,0,0,0,0,0c0,0,0,0,0,0c0,0,0,0,0,0c-0.1-0.1-0.3-0.2-0.4-0.2c0.2-0.2,0.3-0.4,0.3-0.7l-0.8-0.4l-0.9,0.4
		c0,0.2,0.1,0.5,0.3,0.7c-0.1,0-0.2,0.1-0.3,0.2c0,0-0.1,0.1-0.1,0.1c0,0,0,0,0,0c0,0,0,0,0,0c-0.1-0.1-0.3-0.2-0.4-0.2
		c0.2-0.2,0.3-0.4,0.3-0.7l-1-0.5l-0.2-1.2c-0.1-0.1-0.1-0.2-0.1-0.3l-0.4-2.1c0,0.1-0.1,0.1-0.1,0.2c-0.8,1.7-2.1,3.2-3.8,4.2
		c0.1-0.2,0.1-0.4,0.2-0.7c-0.3,0.1-0.6,0.3-0.8,0.4c-0.4,0.2-0.8,0.5-1.2,0.7c-0.1,0.1-0.2,0.2-0.3,0.3c-0.2,0.2-0.4,0.5-0.5,0.7
		c-0.1-0.1-0.2-0.2-0.3-0.2c-0.2-0.1-0.4-0.1-1,0c0,0,0,0,0,0c0,0,0,0,0,0c0.1,0,0.2,0,0.3,0c0.1,0,0.2,0,0.3,0
		c-0.1,0.1-0.2,0.3-0.3,0.5c-0.1,0.3-0.2,0.7-0.4,1.1c0,0.1-0.1,0.2-0.1,0.3c0,0.1,0,0.1-0.1,0.2c-0.2,0.8-0.2,1.6-0.2,2.4
		c0,0.2,0,0.3,0,0.5c0,0.5,0,1-0.1,1.6c0.1,0,0.3,0.1,0.4,0.2c1.1,0.7,1.1,2,0.9,2.8c-0.2,0.5-0.5,1-0.9,1.4
		c-0.1,0.1-0.3,0.2-0.4,0.3c-0.3,0.2-0.9,0.4-1.3,0.4c-0.1,0.3-0.1,0.5-0.1,0.7c0,0,0,0,0,0c0.1-0.3,0.3-0.5,0.4-0.5
		c0.4-0.1,0.8-0.2,1.1-0.3c0.8-0.4,1.3-1.3,1.7-2.3c0,0.6-0.1,1-0.1,1.3c0,0.1,0,0.1,0,0.1c0.2,0.2,0.5,0.5,0.6,0.8
		c0.1,0,0.1,0,0.2,0c-0.1-0.3-0.4-0.6-0.6-0.8l-0.1-0.1l0-0.1c0.1-1.3,0.5-2.5,1-3.8c0.3-0.7,0.7-1.4,1-2.1
		c-0.4,0.6-0.9,1.5-1.2,1.9c0.2-0.6,0.4-1.1,0.6-1.6c0.2-0.5,0.4-1,0.6-1.4c-0.3,0-0.7,0.1-1,0.1c0.3-0.3,0.6-0.6,1-0.8
		c-0.3-0.1-0.5-0.3-0.7-0.5c-0.2-0.2-0.4-0.4-0.6-0.7c0.2,0.1,0.4,0.2,0.6,0.3c0.2,0.1,0.4,0.2,0.7,0.2c-0.3-0.2-0.5-0.3-0.7-0.5
		c-0.3-0.2-0.6-0.5-0.8-0.7c-0.2-0.3-0.5-0.5-0.7-0.8c0,0,1,0.7,2,1.3c0.2,0.1,0.3,0.2,0.5,0.2c0-1.6,0.4-2.4,0.4-2.4
		c0,0.1,0,0.3,0,0.4c0.4,3,1.3,5,1.3,9.1c-0.1,1-0.1,1.9-0.6,2.8c0.2,0.3,0.5,0.6,0.9,0.7c0.9,0.1,1.9-0.1,2.3-0.4
		C57.8,54.6,57.6,54.3,57.6,54.3z M56.4,53.8c0.1-0.1,0.1-0.2,0.1-0.3c0.1-0.4,0.2-0.7,0.2-1.1c0-0.5,0-1,0.1-1.5
		c0.3,1.1,0.5,2.3,0.4,3.5c-0.4,0.3-0.9,0.4-1.4,0.4c-0.2,0-0.3-0.1-0.5-0.1C55.8,54.6,56.2,54.3,56.4,53.8z"/>
	<path class="st6" d="M54.4,54.9c0,0-0.1,0-0.1,0C54.4,54.9,54.4,54.9,54.4,54.9z"/>
	<path class="st6" d="M53.7,44.5c0-0.1,0-0.3,0-0.4C53.7,44.2,53.7,44.3,53.7,44.5z"/>
	<path class="st6" d="M53.9,45.5c0-0.1,0-0.2,0-0.3C53.8,45.3,53.9,45.4,53.9,45.5z"/>
	<path class="st6" d="M54,54.3c0,0.1-0.1,0.1,0,0.2C53.9,54.4,54,54.3,54,54.3C54,54.3,54,54.3,54,54.3z"/>
	<path class="st6" d="M54.8,55c0,0-0.1,0-0.1,0C54.8,55,54.8,55,54.8,55z"/>
	<path class="st0" d="M54.4,54.4c0.5-0.9,0.5-1.8,0.6-2.8c-0.1-4.1-1-6.1-1.3-9.1c0,0,0,0,0-0.1c0,0.1,0,0.2,0,0.3
		c0,0.1,0,0.2,0,0.3c0,0.1,0,0.3,0,0.4c0,0.2,0,0.4,0,0.6c0,0.1,0,0.3,0,0.4c0,0.2,0.1,0.4,0.1,0.7c0,0.1,0,0.2,0,0.3
		c0,0.3,0.1,0.6,0.2,0.9c0.1,0.4,0.1,0.8,0.2,1.2c0.1,0.4,0.1,0.9,0.2,1.3c0,0.3,0.1,0.7,0.1,1c0.1,0.6,0.1,1.2,0.1,1.8
		c0,0.3,0,0.7-0.1,1c-0.1,0.7-0.4,1.4-0.5,1.5c0,0,0,0,0,0c0,0.1-0.1,0.2-0.1,0.3c0,0,0,0,0,0v0l0,0c0,0,0,0.1,0.1,0.1c0,0,0,0,0,0
		c0,0,0,0,0,0c0.1,0.1,0.2,0.1,0.3,0.2c0,0,0.1,0,0.1,0c0.1,0,0.2,0.1,0.3,0.1c0,0,0.1,0,0.1,0c0.1,0,0.3,0,0.4,0.1c0,0,0,0,0,0
		C54.9,55,54.7,54.7,54.4,54.4z"/>
	<path class="st0" d="M72.1,53.9c0.2-0.1,0.3-0.1,0.5-0.1c0-1-0.2-2-0.4-2.9c-1.3-0.9-2.2-2.2-2.5-3.8c0.8-1.6,1-3.5,0.6-5.4
		c-0.1,1.8-0.5,3.5-1.4,5.1c0.1,1.7,1.4,3.3,2.9,4.2c0.3,0.8,0.3,1.4,0.4,2.2c-0.6,0.3-1.2,0.9-1.4,1.6c0.1,0,0.2,0.1,0.4,0.1
		c0,0,0.1,0,0.1,0c0,0,0,0,0,0C71.3,54.5,71.6,54.1,72.1,53.9z"/>
	<polygon class="st5" points="62.6,39.9 61,39.9 61,40.4 61.7,40.8 62.6,40.4 	"/>
	<path class="st6" d="M47.7,50.3c0,0,0.1-0.1,0.1-0.1C47.7,50.2,47.7,50.2,47.7,50.3z"/>
	<path class="st6" d="M46.4,53.8c0.1,0,0.1,0.1,0.2,0.1C46.6,53.9,46.5,53.9,46.4,53.8z"/>
	<path class="st6" d="M47.8,51.1c0-0.1-0.1-0.1-0.1-0.2C47.7,50.9,47.8,51,47.8,51.1z"/>
	<path class="st6" d="M47.1,54.1c-0.1,0-0.2,0-0.2-0.1C46.9,54,47,54.1,47.1,54.1z"/>
	<path class="st6" d="M50.2,51.1c0-0.1-0.1-0.2-0.1-0.3C50.2,50.9,50.2,51,50.2,51.1z"/>
	<path class="st6" d="M44.8,52.3c0,0-0.1-0.1-0.1-0.1C44.7,52.2,44.8,52.2,44.8,52.3z"/>
	<path class="st6" d="M46.2,53.7c-0.1,0-0.1-0.1-0.2-0.1C46.1,53.6,46.2,53.6,46.2,53.7z"/>
	<path class="st6" d="M45.4,53.1c-0.1-0.1-0.1-0.1-0.2-0.2C45.3,53,45.4,53,45.4,53.1z"/>
	<path class="st6" d="M45.1,52.7c0-0.1-0.1-0.1-0.1-0.2C45,52.6,45.1,52.6,45.1,52.7z"/>
	<path class="st6" d="M45.8,53.4c-0.1,0-0.1-0.1-0.2-0.2C45.7,53.3,45.8,53.3,45.8,53.4z"/>
	<path class="st6" d="M48.1,49.9c-0.1,0.1-0.2,0.1-0.3,0.2C47.9,50.1,48,50,48.1,49.9z"/>
	<path class="st6" d="M43.3,47.9c0.1,0.6,0.3,1.4,0.5,2.1C43.7,49.3,43.5,48.6,43.3,47.9z"/>
	<path class="st6" d="M49.9,50.4c0.1,0.1,0.1,0.2,0.2,0.2C50,50.6,50,50.5,49.9,50.4z"/>
	<path class="st6" d="M49.5,50c0.1,0.1,0.2,0.2,0.3,0.3C49.7,50.2,49.6,50.1,49.5,50c-0.2-0.1-0.4-0.2-0.6-0.2
		C49.1,49.9,49.3,49.9,49.5,50z"/>
	<path class="st6" d="M49.3,50.4c-0.4-0.2-0.9-0.2-1.3-0.1c-0.2,0.2-0.2,0.4-0.2,0.7c0.2-0.1,0.3-0.1,0.5,0c0.2,0,0.3,0.1,0.4,0.2
		c0.4,0.3,0.4,1.2-0.4,1.5c-0.1,0-0.3,0.1-0.4,0.1c-0.1,0-0.2,0-0.3,0c-0.1,0-0.2-0.1-0.3-0.1c-0.5-0.2-0.8-0.7-1-1.1
		c-0.2-0.5-0.5-1-0.6-1.6c-0.2-0.6-0.3-1.2-0.4-1.8c0,0.5,0,1,0,1.5c-0.7-1.6-0.9-3.1-0.7-4.9c0.3-0.1,0.5-0.5,0.7-0.8
		c-0.2,0.2-0.4,0.3-0.6,0.4c-0.5,0.4-1.2,0.8-1.9,1.2c0.2-0.1,0.4-0.2,0.5-0.3c0.7,2.9,0.8,7.5,3.7,8.8c0.1,0,0.2,0.1,0.3,0.1
		c0.2,0,0.5,0,0.8-0.1c0.3-0.1,0.6-0.2,0.8-0.3c0.1-0.1,0.2-0.2,0.3-0.3c0.1-0.1,0.2-0.2,0.3-0.4c0.2-0.3,0.4-0.6,0.4-0.8
		c0.1-0.2,0.1-0.5,0.1-0.8C50.1,51,49.8,50.6,49.3,50.4z"/>
	<path class="st6" d="M50.3,51.5c0-0.1,0-0.3,0-0.4C50.3,51.2,50.3,51.4,50.3,51.5z"/>
	<path class="st0" d="M48.9,49.8c-0.2,0-0.5,0-0.7,0c-0.1,0-0.1,0-0.2,0.1c-0.1,0.1-0.2,0.1-0.3,0.2c0,0,0,0,0,0
		c0,0-0.1,0.1-0.1,0.1c-0.1,0.2-0.1,0.4,0,0.6c0,0.1,0.1,0.1,0.1,0.2c0-0.3,0-0.5,0.2-0.7c0.4-0.2,0.9-0.1,1.3,0.1
		c0.5,0.2,0.8,0.6,1,1.1c0,0,0,0,0,0c0,0,0,0,0,0c0-0.1,0-0.3,0-0.4c0,0,0,0,0,0c0-0.1-0.1-0.2-0.1-0.3c0,0,0-0.1-0.1-0.1
		c0-0.1-0.1-0.2-0.2-0.2c0,0,0-0.1-0.1-0.1c-0.1-0.1-0.2-0.2-0.3-0.3C49.3,49.9,49.1,49.9,48.9,49.8z"/>
	<path class="st0" d="M43.4,45.3c-0.2,0.1-0.3,0.2-0.5,0.3c0.1,0.8,0.3,1.6,0.5,2.3c0.1,0.6,0.3,1.4,0.5,2.1
		c0.2,0.6,0.4,1.2,0.6,1.8c0.1,0.1,0.1,0.3,0.2,0.4c0,0,0.1,0.1,0.1,0.1c0.1,0.1,0.1,0.2,0.2,0.3c0,0.1,0.1,0.1,0.1,0.2
		c0.1,0.1,0.1,0.1,0.2,0.2c0,0.1,0.1,0.1,0.2,0.2c0.1,0.1,0.1,0.1,0.2,0.2c0.1,0.1,0.1,0.1,0.2,0.2c0.1,0.1,0.1,0.1,0.2,0.2
		c0.1,0,0.1,0.1,0.2,0.1c0.1,0,0.1,0.1,0.2,0.1c0.1,0,0.1,0.1,0.2,0.1c0.1,0,0.1,0.1,0.2,0.1c0.1,0,0.2,0.1,0.2,0.1c0,0,0.1,0,0.1,0
		c0,0,0,0,0,0C44.2,52.8,44.1,48.2,43.4,45.3z"/>
	<path class="st0" d="M42.2,43.8c-0.5,0.3-1.1,0.5-1.5,0.6c-0.7,0.2-1.4,0.2-2.2,0.2c-0.4,0-0.7,0-1.1-0.1c-0.4,0-0.8-0.1-1.2-0.2
		c0.9,0.9,2.2,1.4,3.6,1.4c0.1,0,0.1,0,0.2,0c1.6,0,3.3-1,4.5-1.9c1.2-0.8,2.3-2.1,3.1-3.5c-0.4-0.7-2-1.1-2.6,0.2
		c-0.1,0.1-0.1,0.2-0.2,0.4C44.1,42.3,43.1,43.2,42.2,43.8z M46.2,40.1c0.3-0.1,0.9,0,1,0.4c-1,1.8-2.5,3.1-4,4
		c-1.6,0.9-4,1.6-5.8,0.5c2.1,0.3,4-0.2,5.4-1.1C44.3,43.1,45.5,41.7,46.2,40.1z"/>
	<path class="st6" d="M45.2,39.1C45.2,39,45.3,39,45.2,39.1C45.3,39,45.2,39,45.2,39.1z"/>
	<polygon class="st6" points="42.8,37.3 42.8,37.3 42.8,37.3 	"/>
	<path class="st6" d="M50.4,36.6c-0.2,1.5-0.4,3.3-0.4,4.9c1.4-0.7,2.3-1.5,3.6-2.2c1.4-0.9,2.8-1.8,4.1-3.3c0.4-1,0.6-2.1,0.8-3.2
		c-0.5-0.8-1-1.4-1.6-1.8c-0.6-0.4-1.2-0.6-1.8-0.7c-0.9-0.1-1.8,0.2-2.7,0.5c-0.9,0.3-1.8,0.6-2.7,0.6c0,0,0,0-0.1,0.1
		c-0.1,0.1-0.1,0.3-0.2,0.4c-0.1,0.4-0.2,0.8-0.1,1.3c-0.4-0.2-0.6-0.6-0.6-1c-0.4,0-0.7,0-1.1-0.1c0.2,0,0.4-0.1,0.6-0.1
		c-0.2,0-0.4-0.1-0.5-0.1c-0.1,0-0.2-0.1-0.3-0.1c-0.1,0-0.1,0-0.2,0c-0.2-0.1-0.5-0.1-0.7-0.1c-2,0.9-3.1,3.6-3.2,5.8
		c-1,1.6-0.8,3.6-0.5,5.5c0.2-0.2,0.4-0.3,0.5-0.5c0.3-0.3,0.5-0.6,0.8-1c0.1-0.3,0.2-0.7,0.2-1c0.2-0.6,0.6-1.6,1.1-1.9
		c0,0,0,0,0,0c0.5-0.5,1.2-0.8,1.9-0.8c-0.6,0.4-1.3,0.7-1.4,1.5c0.2,0,0.4-0.1,0.6,0c0.7-0.1,1.2,0.1,1.6,0
		c-0.1-0.1-0.2-0.2-0.3-0.3c0.4-0.2,0.8-0.5,1-0.9c0.2-0.4,0.2-0.9,0-1.4c0.2,0.2,0.4,0.5,0.6,0.8c-0.1-0.5-0.4-0.9-0.7-1.3
		c0.1,0.1,0.3,0.2,0.4,0.3c0.1,0.1,0.2,0.2,0.4,0.4c0.1-0.1,0.1-0.3,0.2-0.4c0.5-0.8,0.6-1.8,0.5-2.7c0.1,0.1,0.2,0.3,0.2,0.4
		c0.1,0.2,0.1,0.3,0.1,0.5c0.1-0.8-0.1-1.3-0.1-1.3c0.2,0.2,0.3,0.5,0.4,0.8c0.1,0.3,0.1,0.6,0,1C50.8,35.6,50.5,36.3,50.4,36.6
		c-0.2,0.6-0.4,1.1-0.5,1.6C50,37.7,50.2,37.2,50.4,36.6z M47,36.5c-0.1,0-0.1,0-0.1,0c0,0-0.1,0-0.1,0c-0.1,0-0.1,0.1-0.1,0.1
		c0,0-0.1,0.1-0.1,0.1c-0.2,0.2-0.3,0.5-0.5,0.7c0-0.1,0-0.3,0-0.4c0-0.3-0.1-0.5-0.1-0.7c0,0,0.1,0,0.2,0.1c0-0.1,0.1-0.2,0.1-0.3
		c0.1-0.1,0.2-0.1,0.3-0.2c0.1,0,0.2,0,0.3-0.1c0.1,0,0.2,0,0.3,0c0.2,0,0.5-0.1,0.7-0.3C47.8,36.2,47.3,36.4,47,36.5z M45.4,36.4
		c0.1-0.2,0.3-0.9,0.4-1.1c0.1-0.1,0.1-0.2,0.2-0.2c0.1-0.1,0.2-0.1,0.3-0.2c0.1-0.1,0.2-0.1,0.4-0.1c0.1,0,0.3,0,0.4,0
		c0.3,0,0.5,0.1,0.7,0.2C46.5,34.9,46.4,35.9,45.4,36.4z M50.6,32c1.9,0,3-0.9,4.5-0.7c0.8,0.1,1.4,0.5,2,1c0.2,0.2,0.4,0.4,0.5,0.5
		c-0.7-0.3-1.2-0.5-1.7-0.7c-1.1-0.3-2-0.3-4.3,0.4c0,0.5-0.1,0.9-0.2,1.3c0-0.5-0.2-1.1-0.5-1.5C50.8,32.3,50.7,32.2,50.6,32z"/>
	<path class="st6" d="M46.5,31.5c-0.1,0-0.2,0-0.3,0C46.3,31.5,46.4,31.5,46.5,31.5z"/>
	<path class="st6" d="M57.7,36C57.7,36.1,57.7,36.1,57.7,36C57.7,36.1,57.7,36.1,57.7,36z"/>
	<path class="st6" d="M57.5,36.6c0,0,0,0.1-0.1,0.1C57.4,36.7,57.4,36.6,57.5,36.6z"/>
	<path class="st6" d="M45.8,39.4c0.2-0.1,0.3-0.1,0.5-0.1C46.1,39.3,45.9,39.3,45.8,39.4z"/>
	<path class="st6" d="M47.4,39.6C47.4,39.6,47.4,39.6,47.4,39.6c0.3,0.2,0.6,0.4,0.6,0.7l-0.2-0.1l0.2,0.3c-0.1,0.3-0.3,0.5-0.4,0.8
		c0.3-0.1,0.6-0.2,0.9-0.5c0.1-0.1,0.2-0.2,0.2-0.2c0.1-0.1,0.1-0.2,0.2-0.3c-0.2,0.1-0.4,0.3-0.6,0.3c0.1-0.2,0.2-0.5,0.1-0.7
		c-0.2-0.2-0.5-0.4-0.7-0.6C47.5,39.4,47.4,39.5,47.4,39.6z"/>
	<path class="st6" d="M45.8,31.5c0.1,0,0.2-0.1,0.3-0.1C46,31.5,45.9,31.5,45.8,31.5z"/>
	<path class="st6" d="M47.3,39.3c0.1,0,0.1,0.1,0.2,0.1C47.5,39.3,47.4,39.3,47.3,39.3z"/>
	<path class="st6" d="M46.9,39.1c0.1,0,0.2,0,0.2,0.1C47,39.2,46.9,39.2,46.9,39.1z"/>
	<path class="st6" d="M43.3,34.8c-0.2,0.4-0.3,0.8-0.4,1.2C43,35.6,43.2,35.2,43.3,34.8z"/>
	<path class="st6" d="M42.8,37.2L42.8,37.2C42.8,37.2,42.8,37.3,42.8,37.2C42.8,37.3,42.8,37.2,42.8,37.2z"/>
	<path class="st6" d="M44.6,32.5c0.1-0.1,0.2-0.3,0.4-0.4c0,0-0.1,0.1-0.1,0.1C44.8,32.3,44.7,32.4,44.6,32.5
		c-0.5,0.7-1,1.5-1.3,2.3C43.6,34,44.1,33.2,44.6,32.5z"/>
	<path class="st6" d="M49.5,42.3C49.5,42.3,49.5,42.3,49.5,42.3c0.6-0.1,1.2-0.4,1.7-0.7c0.5-0.3,1-0.7,1.6-1.1
		c0.4-0.3,0.8-0.6,1.2-0.8c-0.4,0.3-0.8,0.5-1.2,0.8C51.7,41.3,50.8,42,49.5,42.3z"/>
	<path class="st6" d="M57.1,37.1c0,0,0,0.1-0.1,0.1C57.1,37.2,57.1,37.1,57.1,37.1z"/>
	<path class="st6" d="M42.4,43.1C42.4,43.1,42.4,43,42.4,43.1C42.4,43,42.4,43.1,42.4,43.1C42.4,43.1,42.4,43.1,42.4,43.1z"/>
	<path class="st6" d="M47,39.4C47,39.4,47,39.4,47,39.4C47,39.4,47,39.4,47,39.4z"/>
	<path class="st0" d="M45.9,39.1c0.1-0.8,0.8-1.1,1.4-1.5c-0.7,0-1.4,0.3-1.9,0.8c0,0,0,0,0,0h0c-0.1,0.2-0.2,0.4-0.2,0.6
		c0,0,0,0.1,0,0.1l0,0c0,0.2,0,0.4,0.1,0.5c0.1-0.1,0.3-0.1,0.5-0.2c0.2-0.1,0.3-0.1,0.5-0.1c0.1,0,0.2,0,0.3,0
		c0.1,0,0.3,0.1,0.5,0.1c0,0,0,0,0,0c0.2,0.1,0.3,0.1,0.4,0.2c0,0,0,0,0,0c0-0.1,0-0.2,0.2-0.2c0,0,0,0,0,0c0,0-0.1,0-0.1,0
		c-0.1,0-0.1-0.1-0.2-0.1c-0.1,0-0.2-0.1-0.2-0.1c-0.1,0-0.2,0-0.2-0.1c0,0-0.1,0-0.1,0c-0.1,0-0.1,0-0.2,0
		C46.3,39,46.1,39.1,45.9,39.1z"/>
	<path class="st0" d="M43.3,37.2c0.1-2.2,1.2-4.8,3.2-5.8c0,0,0,0,0,0c0,0,0,0,0,0c-0.1,0-0.2,0-0.3,0c0,0-0.1,0-0.1,0
		c-0.1,0-0.2,0-0.3,0.1c-0.3,0.1-0.6,0.3-0.8,0.6c-0.1,0.1-0.3,0.3-0.4,0.4c-0.5,0.7-1,1.5-1.3,2.3c-0.2,0.4-0.3,0.8-0.4,1.2
		c-0.1,0.4-0.2,0.8-0.2,1.2l0,0l0,0c0,0,0,0,0,0c0,0,0,0,0,0l0,0l0,0c-0.4,0.7-0.6,1.4-0.7,2.3c-0.1,0.9,0,1.8,0.2,2.9
		c0,0.2,0.1,0.4,0.1,0.6c0,0,0,0,0,0c0,0,0,0,0,0c0.1-0.1,0.2-0.2,0.3-0.3c0,0,0,0,0,0C42.5,40.9,42.3,38.8,43.3,37.2z"/>
	<path class="st0" d="M57.4,36.7c0,0,0-0.1,0.1-0.1c0.1-0.2,0.2-0.3,0.2-0.5c0,0,0,0,0,0c0,0,0,0,0,0c0,0,0,0,0,0
		c-1.3,1.5-2.7,2.5-4.1,3.3c-1.3,0.8-2.1,1.5-3.6,2.2c-0.1-1.6,0.2-3.4,0.4-4.9c-0.2,0.6-0.4,1.1-0.5,1.6c-0.3,1.3-0.4,2.5-0.4,4
		c0,0,0,0,0,0c1.3-0.2,2.2-1,3.3-1.7c0.4-0.3,0.8-0.6,1.2-0.8c0,0,0.1,0,0.1-0.1c0.3-0.2,0.5-0.3,0.7-0.5c0.5-0.3,0.9-0.6,1.3-0.9
		c0.2-0.2,0.4-0.4,0.6-0.6c0.1-0.1,0.3-0.3,0.4-0.5c0,0,0-0.1,0.1-0.1c0.1-0.1,0.1-0.1,0.2-0.2C57.3,36.8,57.4,36.8,57.4,36.7z"/>
	<polygon class="st6" points="51.9,30.3 51.9,30.3 51.9,30.3 	"/>
	<polygon class="st6" points="61.4,28.6 59,28.6 58.8,28.6 58.2,28.6 58.2,28.6 	"/>
	<path class="st6" d="M42.9,43.9c-1.4,0.9-3.3,1.4-5.4,1.1c1.8,1.1,4.2,0.5,5.8-0.5c1.5-0.9,3-2.2,4-4c-0.2-0.3-0.7-0.4-1-0.4
		C45.5,41.7,44.3,43.1,42.9,43.9z"/>
	<path class="st0" d="M60,78.6c-12.8,0-24.2-4.7-24.7-10.7c0.4,7.2,11.3,13,24.7,13c13.4,0,24.4-5.8,24.7-13
		C84.2,73.9,72.8,78.6,60,78.6z"/>
	<path class="st0" d="M59.9,58.9c-12.8,0-24.3,3.9-24.7,8.7c0,0.1,0,0.2,0,0.3c0.5,4.8,12,8.6,24.7,8.6c12.7,0,24.3-3.8,24.8-8.6
		c0-0.1,0-0.2,0-0.3C84.3,62.8,72.7,58.9,59.9,58.9z M73.7,62.6h1.5v0.1c0,0-0.1,0-0.1,0c0,0-0.1,0-0.1,0.1c0,0,0,0.1,0.1,0.2
		c0.1,0.1,0.1,0.2,0.2,0.3c0.1,0.1,0.2,0.2,0.3,0.4c0.1,0.1,0.2,0.2,0.2,0.3c0,0,0-0.1,0.1-0.1c0-0.1,0.1-0.1,0.2-0.2
		s0.1-0.2,0.2-0.3c0.1-0.1,0.1-0.2,0.2-0.3c0.1-0.1,0.1-0.1,0.1-0.2c0-0.1,0.1-0.1,0.1-0.1c0,0,0-0.1-0.1-0.1c0,0-0.1,0-0.1,0v-0.1
		h1.3v0.1c0,0-0.1,0-0.1,0c0,0-0.1,0.1-0.1,0.1l-1.3,1.9v1.4c0,0,0,0.1,0,0.1c0,0,0.1,0,0.2,0v0.1H75v-0.1c0.1,0,0.1,0,0.2,0
		c0,0,0,0,0-0.1v-1.2l-1.3-1.9c-0.1-0.1-0.1-0.2-0.1-0.2C73.7,62.7,73.7,62.7,73.7,62.6L73.7,62.6z M64.8,62.4L64.8,62.4
		c0.1,0.1,0.1,0.1,0.1,0.2c0,0,0,0,0.1,0h3.5c0,0,0.1,0,0.1,0c0,0,0-0.1,0-0.2h0.1v1.2h-0.1c0-0.1,0-0.1,0-0.2c0,0,0,0-0.1,0h-1.2
		v2.6c0,0,0,0.1,0,0.1c0,0,0.1,0,0.2,0v0.1h-1.4v-0.1c0.1,0,0.1,0,0.2,0c0,0,0,0,0-0.1v-2.6h-1.2c0,0-0.1,0-0.1,0c0,0,0,0.1,0,0.2
		h-0.1V62.4z M60.1,66.2c0.1,0,0.1,0,0.2,0c0,0,0,0,0-0.1v-3.3c0,0,0-0.1,0-0.1c0,0-0.1,0-0.2,0v-0.1h1.7v0.1c-0.1,0-0.1,0-0.2,0
		c0,0,0,0,0,0.1c0,0,0,0.1,0.1,0.1c0.1,0.1,0.1,0.2,0.2,0.3c0.1,0.1,0.2,0.2,0.3,0.4c0.1,0.1,0.2,0.3,0.4,0.4
		c0.1,0.1,0.2,0.3,0.4,0.4c0.1,0.1,0.2,0.2,0.3,0.3v-1.9c0-0.1,0-0.1-0.1-0.1v-0.1h1.3v0.1c-0.1,0-0.1,0-0.2,0c0,0,0,0,0,0.1v3.3
		c0,0,0,0.1,0,0.1c0,0,0.1,0,0.2,0v0.1H63v-0.1c0.1,0,0.1,0,0.1,0c0,0,0,0,0-0.1c0,0,0,0,0-0.1c0,0,0-0.1-0.1-0.1
		c0-0.1-0.1-0.1-0.2-0.2c-0.1-0.1-0.2-0.2-0.4-0.4c-0.1-0.2-0.3-0.4-0.6-0.6s-0.5-0.5-0.8-0.9v2.2c0,0,0,0.1,0,0.1c0,0,0.1,0,0.2,0
		v0.1L60.1,66.2L60.1,66.2z M55.7,66.2c0.1,0,0.1,0,0.2,0c0,0,0,0,0-0.1v-3.3c0,0,0-0.1,0-0.1c0,0-0.1,0-0.2,0v-0.1h3.5
		c0,0,0.1,0,0.1,0c0,0,0-0.1,0-0.2h0.1v1.2h-0.1c0-0.1,0-0.1,0-0.2c0,0,0,0-0.1,0h-2.2V64h1.3c0.1,0,0.1,0,0.2,0c0,0,0-0.1,0.1-0.1
		h0.1V65h-0.1c0,0,0-0.1-0.1-0.1c0,0-0.1,0-0.2,0h-1.3v0.6h2.2c0,0,0.1,0,0.1,0c0,0,0-0.1,0-0.2h0.1v1.2h-0.1c0-0.1,0-0.1,0-0.1
		c0,0,0,0-0.1,0L55.7,66.2L55.7,66.2z M51,62.6h1.4v0.1c-0.1,0-0.1,0-0.1,0c0,0,0,0,0,0.1c0,0,0,0,0,0.1c0,0,0.1,0.1,0.1,0.3
		c0.1,0.1,0.2,0.4,0.3,0.6c0.1,0.3,0.3,0.7,0.5,1.1c0.2-0.5,0.4-0.8,0.5-1.1c0.1-0.3,0.2-0.5,0.3-0.6c0.1-0.1,0.1-0.2,0.1-0.3
		c0-0.1,0-0.1,0-0.1c0,0,0,0,0-0.1c0,0,0,0-0.1,0v-0.1h1.2v0.1c0,0-0.1,0-0.1,0c0,0,0,0,0,0.1c0,0,0,0.1-0.1,0.2
		c0,0.1-0.1,0.2-0.2,0.4c-0.1,0.2-0.1,0.3-0.2,0.5c-0.1,0.2-0.2,0.4-0.3,0.6c-0.1,0.2-0.2,0.4-0.3,0.6c-0.1,0.2-0.2,0.4-0.2,0.5
		c-0.1,0.1-0.1,0.3-0.2,0.4c0,0.1-0.1,0.2-0.1,0.2c0,0,0,0.1,0.1,0.1v0.1h-1.4v-0.1c0,0,0.1,0,0.1,0c0,0,0,0,0,0c0,0,0-0.1-0.1-0.1
		c0-0.1-0.1-0.2-0.1-0.3c-0.1-0.1-0.1-0.3-0.2-0.5C52.1,65,52,64.8,52,64.6c-0.1-0.2-0.2-0.4-0.2-0.6c-0.1-0.2-0.2-0.4-0.2-0.5
		c-0.1-0.2-0.1-0.3-0.2-0.4c0-0.1-0.1-0.2-0.1-0.2c0-0.1-0.1-0.1-0.1-0.2C51.1,62.7,51.1,62.7,51,62.6L51,62.6z M42.5,63.6
		c0.1-0.2,0.3-0.4,0.5-0.6c0.2-0.2,0.5-0.3,0.7-0.4s0.6-0.1,0.8-0.1c0.3,0,0.5,0,0.7,0c0.2,0,0.4,0.1,0.5,0.1c0.1,0,0.2,0.1,0.3,0.1
		c0.1,0,0.1,0,0.2,0c0,0,0.1,0,0.1-0.1l0.1,0L45.9,64l-0.1,0c0,0,0,0,0,0c0,0,0,0,0-0.1c0,0,0-0.1-0.1-0.1c-0.1,0-0.1-0.1-0.3-0.1
		c-0.1,0-0.2-0.1-0.4-0.1c-0.1,0-0.3,0-0.4,0c-0.1,0-0.3,0-0.4,0s-0.3,0.1-0.4,0.2c-0.1,0.1-0.2,0.2-0.3,0.3
		c-0.1,0.1-0.1,0.3-0.1,0.5c0,0.2,0,0.3,0.1,0.5s0.2,0.2,0.3,0.3c0.1,0.1,0.3,0.1,0.4,0.2c0.2,0,0.3,0,0.4,0c0.1,0,0.2,0,0.3,0
		c0.1,0,0.3-0.1,0.4-0.1c0.1,0,0.2-0.1,0.3-0.1c0.1,0,0.2-0.1,0.2-0.1c0,0,0,0,0-0.1c0,0,0,0,0,0l0.1,0l0.7,1.1l-0.1,0c0,0,0,0,0,0
		c0,0,0,0-0.1,0c0,0-0.1,0-0.2,0.1c-0.1,0-0.2,0.1-0.4,0.1s-0.3,0.1-0.5,0.1c-0.2,0-0.4,0.1-0.7,0.1c-0.3,0-0.6,0-0.8-0.1
		c-0.3-0.1-0.5-0.2-0.7-0.3c-0.2-0.2-0.4-0.4-0.5-0.6c-0.1-0.2-0.2-0.5-0.2-0.8C42.3,64.2,42.4,63.9,42.5,63.6z M48.1,66.2
		c-0.3-0.1-0.5-0.2-0.7-0.3c-0.2-0.2-0.4-0.4-0.5-0.6c-0.1-0.2-0.2-0.5-0.2-0.8c0-0.3,0.1-0.6,0.2-0.8c0.1-0.2,0.3-0.4,0.5-0.6
		c0.2-0.2,0.4-0.3,0.7-0.4c0.3-0.1,0.5-0.1,0.8-0.1c0.3,0,0.6,0,0.8,0.1c0.3,0.1,0.5,0.2,0.7,0.4c0.2,0.2,0.4,0.4,0.5,0.6
		c0.1,0.2,0.2,0.5,0.2,0.8c0,0.3-0.1,0.6-0.2,0.8c-0.1,0.2-0.3,0.4-0.5,0.6c-0.2,0.2-0.4,0.3-0.7,0.3c-0.3,0.1-0.5,0.1-0.8,0.1
		C48.6,66.3,48.3,66.3,48.1,66.2z M53.1,71h-1.5v-0.1c0.1,0,0.2,0,0.2-0.1c0,0,0,0-0.1-0.1c0-0.1-0.1-0.1-0.1-0.2
		c-0.1-0.1-0.1-0.2-0.2-0.3c-0.1-0.1-0.1-0.2-0.2-0.3s-0.1-0.2-0.2-0.2S51,69.7,51,69.6h-0.7v1.2c0,0,0,0.1,0,0.1c0,0,0.1,0,0.2,0
		V71H49v-0.1c0.1,0,0.1,0,0.2,0c0,0,0,0,0-0.1v-3.3c0,0,0-0.1,0-0.1c0,0-0.1,0-0.2,0v-0.1h2.6c0.5,0,0.9,0.1,1.1,0.3
		c0.2,0.2,0.3,0.5,0.3,0.9c0,0.3-0.1,0.6-0.3,0.8s-0.4,0.3-0.7,0.4l0.8,1.2C53,70.9,53,70.9,53.1,71L53.1,71z M55.2,73.3L55.2,73.3
		C55.2,73.3,55.2,73.3,55.2,73.3C55.1,73.2,55.1,73.2,55.2,73.3l-1-0.1v0.2h0.5c0,0,0,0,0.1,0c0,0,0,0,0,0h0v0.4h0c0,0,0,0,0,0
		c0,0,0,0-0.1,0h-0.5V74h0.9c0,0,0,0,0,0c0,0,0,0,0-0.1h0v0.5h0c0,0,0,0,0,0c0,0,0,0,0,0h-1.4v0c0,0,0.1,0,0.1,0c0,0,0,0,0,0V73
		c0,0,0,0,0,0c0,0,0,0-0.1,0v0h1.4c0,0,0,0,0,0c0,0,0,0,0-0.1h0V73.3z M57.1,74.1c0,0.1-0.1,0.1-0.1,0.2c-0.1,0-0.1,0.1-0.2,0.1
		c-0.1,0-0.2,0-0.4,0c-0.1,0-0.2,0-0.3,0c-0.1,0-0.2,0-0.2,0c-0.1,0-0.1,0-0.1,0c0,0-0.1,0-0.1,0c0,0,0,0,0,0c0,0,0,0,0,0l0,0
		l0.2-0.5l0,0c0,0,0,0,0,0.1c0,0,0,0,0.1,0.1c0,0,0.1,0,0.1,0.1c0.1,0,0.1,0,0.2,0.1c0.1,0,0.1,0,0.2,0c0.1,0,0.2,0,0.3,0
		c0.1,0,0.1-0.1,0.1-0.1c0,0,0-0.1-0.1-0.1c-0.1,0-0.1,0-0.2,0c-0.1,0-0.2,0-0.3,0s-0.2,0-0.3-0.1c-0.1,0-0.2-0.1-0.2-0.1
		c-0.1-0.1-0.1-0.1-0.1-0.2c0-0.1,0-0.1,0-0.2c0-0.1,0.1-0.1,0.1-0.1c0.1,0,0.1-0.1,0.2-0.1c0.1,0,0.2,0,0.3,0c0.1,0,0.2,0,0.3,0
		c0.1,0,0.2,0,0.2,0c0.1,0,0.1,0,0.2,0c0,0,0.1,0,0.1,0c0,0,0,0,0,0c0,0,0,0,0,0l0,0l-0.2,0.4l0,0v0c0,0,0,0-0.1-0.1
		c0,0-0.1,0-0.1,0c-0.1,0-0.1,0-0.2,0c-0.1,0-0.1,0-0.2,0c-0.1,0-0.2,0-0.3,0c0,0-0.1,0.1-0.1,0.1c0,0,0,0.1,0.1,0.1s0.1,0,0.1,0
		s0.1,0,0.2,0c0.1,0,0.1,0,0.2,0c0.1,0,0.1,0,0.2,0c0.1,0,0.1,0,0.2,0.1c0.1,0,0.1,0.1,0.1,0.1c0,0.1,0.1,0.1,0.1,0.2
		C57.1,73.9,57.1,74,57.1,74.1z M56.9,70.7c-0.2,0.1-0.4,0.2-0.6,0.3c-0.2,0-0.5,0.1-0.8,0.1c-0.3,0-0.5,0-0.8-0.1
		c-0.2,0-0.4-0.1-0.6-0.3c-0.2-0.1-0.3-0.3-0.4-0.5c-0.1-0.2-0.2-0.5-0.2-0.8v-1.9c0,0,0-0.1,0-0.1c0,0-0.1,0-0.2,0v-0.1h1.4v0.1
		c-0.1,0-0.1,0-0.2,0c0,0,0,0,0,0.1v1.9c0,0.3,0.1,0.5,0.2,0.6c0.2,0.1,0.4,0.2,0.6,0.2c0.3,0,0.5-0.1,0.6-0.2
		c0.2-0.1,0.2-0.3,0.2-0.6v-1.9c0,0,0-0.1,0-0.1c0,0-0.1,0-0.2,0v-0.1h1.4v0.1c-0.1,0-0.1,0-0.2,0c0,0,0,0,0,0.1v1.9
		c0,0.3,0,0.6-0.2,0.8C57.2,70.4,57.1,70.6,56.9,70.7z M58.9,73.3L58.9,73.3C58.8,73.3,58.8,73.3,58.9,73.3
		C58.8,73.3,58.8,73.2,58.9,73.3l-0.6-0.1v1c0,0,0,0,0,0c0,0,0,0,0.1,0v0h-0.6v0c0,0,0.1,0,0.1,0c0,0,0,0,0,0v-1h-0.5c0,0,0,0,0,0
		c0,0,0,0,0,0.1h0v-0.5h0c0,0,0,0.1,0,0.1c0,0,0,0,0,0h1.4c0,0,0,0,0,0c0,0,0,0,0-0.1h0V73.3z M59.5,74.3c0,0-0.1,0.1-0.2,0.1
		s-0.1,0-0.2-0.1c0,0-0.1-0.1-0.1-0.2c0-0.1,0-0.1,0.1-0.2c0,0,0.1-0.1,0.2-0.1s0.1,0,0.2,0.1c0,0,0.1,0.1,0.1,0.2
		C59.6,74.2,59.6,74.3,59.5,74.3z M59.4,70.9c-0.3-0.1-0.5-0.2-0.7-0.3c-0.2-0.2-0.4-0.3-0.5-0.6c-0.1-0.2-0.2-0.5-0.2-0.8
		c0-0.3,0.1-0.6,0.2-0.8c0.1-0.2,0.3-0.4,0.5-0.6c0.2-0.2,0.5-0.3,0.7-0.3c0.3-0.1,0.6-0.1,0.8-0.1c0.1,0,0.2,0,0.3,0
		c0.1,0,0.2,0,0.3,0c0.1,0,0.2,0,0.3,0.1c0.1,0,0.2,0,0.3,0.1c0.1,0,0.2,0.1,0.3,0.1c0.1,0,0.2,0.1,0.2,0.1c0,0,0.1,0,0.1-0.1l0.1,0
		l-0.5,0.9l-0.1,0c0,0,0-0.1,0-0.1c0,0,0-0.1-0.1-0.1s-0.2-0.1-0.3-0.1c-0.1,0-0.3-0.1-0.4-0.1c-0.2,0-0.3,0-0.4,0
		c-0.2,0-0.3,0-0.5,0.1c-0.2,0-0.3,0.1-0.4,0.2s-0.2,0.2-0.3,0.3C59.1,68.8,59,69,59,69.2c0,0.2,0,0.3,0.1,0.5
		c0.1,0.1,0.2,0.2,0.3,0.3c0.1,0.1,0.3,0.2,0.4,0.2c0.2,0,0.3,0.1,0.5,0.1c0.2,0,0.4,0,0.5,0c0.2,0,0.3-0.1,0.5-0.1v-0.5h-0.9
		c0,0-0.1,0-0.1,0c0,0,0,0.1,0,0.1h-0.1v-1h0.1c0,0.1,0,0.1,0.1,0.1h2.1V69c-0.1,0-0.1,0-0.1,0.1v1.2c0,0,0,0.1,0,0.1s0,0,0.1,0h0
		v0.1c-0.6,0.3-1.4,0.5-2.3,0.5C60,71,59.7,71,59.4,70.9z M61,72.9C60.9,72.9,60.9,72.9,61,72.9C60.9,73,60.9,73,61,72.9l-0.1,1.4
		c0,0,0,0,0,0c0,0,0,0,0,0v0h-0.6v0c0,0,0,0,0,0c0,0,0,0,0,0v-0.9c0,0-0.1,0-0.1,0c0,0-0.1,0-0.1,0c0,0,0,0,0,0c0,0,0,0,0,0h0v-0.5
		h0c0,0,0,0,0,0c0,0,0,0,0,0c0,0,0,0,0,0c0,0,0,0,0.1,0c0,0,0,0,0.1,0c0,0,0,0,0,0V73c0,0,0,0,0,0c0,0,0,0,0,0v0L61,72.9L61,72.9z
		 M62.8,74.2c0,0.1-0.1,0.1-0.2,0.1c-0.1,0-0.2,0.1-0.2,0.1c-0.1,0-0.2,0-0.2,0c-0.1,0-0.1,0-0.2,0s-0.2,0-0.2-0.1
		c-0.1,0-0.1-0.1-0.2-0.1c0-0.1-0.1-0.1-0.1-0.2c0,0,0-0.1,0-0.1c0,0,0-0.1,0.1-0.1c0,0,0.1-0.1,0.1-0.1c0,0,0.1,0,0.1-0.1
		c0,0-0.1-0.1-0.1-0.1c0,0-0.1-0.1-0.1-0.2c0-0.1,0-0.2,0.1-0.2s0.1-0.1,0.2-0.1c0.1,0,0.1,0,0.2-0.1c0.1,0,0.1,0,0.2,0
		c0.1,0,0.1,0,0.2,0c0.1,0,0.1,0,0.2,0.1c0.1,0,0.1,0.1,0.2,0.1c0,0.1,0.1,0.1,0.1,0.2c0,0.1,0,0.1-0.1,0.2c0,0-0.1,0.1-0.2,0.1
		c0.1,0,0.2,0.1,0.2,0.1c0.1,0.1,0.1,0.1,0.1,0.2C62.9,74,62.9,74.1,62.8,74.2z M64.6,73.2l-0.5,1c0,0,0,0,0,0.1c0,0,0,0,0,0
		c0,0,0,0,0,0c0,0,0,0,0,0v0h-0.6v0c0,0,0,0,0.1,0c0,0,0,0,0,0l0.6-1h-0.9c0,0,0,0,0,0c0,0,0,0,0,0.1h0v-0.5h0c0,0,0,0,0,0.1
		c0,0,0,0,0,0h1.3c0,0,0,0,0,0c0,0,0,0,0-0.1h0V73.2z M66.4,74.2L66.4,74.2C66.3,74.2,66.3,74.1,66.4,74.2
		C66.3,74.1,66.3,74.1,66.4,74.2l-0.3-0.1v0.2c0,0,0,0,0,0c0,0,0,0,0,0v0h-0.5v0c0,0,0,0,0,0c0,0,0,0,0,0v-0.2h-0.8c0,0,0,0,0,0
		c0,0,0,0,0,0.1h0v-0.3c0,0,0.1-0.1,0.1-0.2c0-0.1,0.1-0.1,0.2-0.2c0.1-0.1,0.1-0.1,0.2-0.2c0-0.1,0.1-0.1,0.1-0.2
		c0,0,0.1-0.1,0.1-0.1c0,0,0,0,0-0.1c0,0,0,0,0,0c0,0,0,0,0,0v0h0.7v0c0,0,0,0,0,0c0,0,0,0,0,0v0.9h0.2c0,0,0,0,0,0c0,0,0,0,0-0.1h0
		V74.2z M67,70.4c-0.1,0.1-0.1,0.2-0.3,0.3c-0.1,0.1-0.3,0.2-0.4,0.2C66.2,71,66,71,65.7,71H63v-0.1c0.1,0,0.1,0,0.2,0
		c0,0,0,0,0-0.1v-3.3c0,0,0-0.1,0-0.1c0,0-0.1,0-0.2,0v-0.1h2.7c0.2,0,0.4,0,0.5,0.1c0.2,0,0.3,0.1,0.4,0.2c0.1,0.1,0.2,0.2,0.3,0.3
		c0.1,0.1,0.1,0.3,0.1,0.4c0,0.2-0.1,0.4-0.2,0.5c-0.1,0.1-0.3,0.2-0.5,0.3v0c0.2,0.1,0.4,0.2,0.6,0.3c0.2,0.1,0.2,0.3,0.2,0.6
		C67.1,70.1,67.1,70.2,67,70.4z M71.2,67.4C71.2,67.4,71.1,67.4,71.2,67.4c-0.1,0.1-0.1,0.1-0.2,0.1l-1.3,1.9v1.4c0,0,0,0.1,0,0.1
		c0,0,0.1,0,0.2,0V71h-1.4v-0.1c0.1,0,0.1,0,0.2,0c0,0,0,0,0-0.1v-1.2l-1.3-1.9c-0.1-0.1-0.1-0.2-0.1-0.2c0,0-0.1,0-0.1,0v-0.1h1.5
		v0.1c0,0-0.1,0-0.1,0c0,0-0.1,0-0.1,0.1c0,0,0,0.1,0.1,0.2c0.1,0.1,0.1,0.2,0.2,0.3c0.1,0.1,0.2,0.2,0.3,0.4
		c0.1,0.1,0.2,0.2,0.2,0.3c0,0,0-0.1,0.1-0.1c0-0.1,0.1-0.1,0.2-0.2c0.1-0.1,0.1-0.2,0.2-0.3c0.1-0.1,0.1-0.2,0.2-0.3
		c0.1-0.1,0.1-0.1,0.1-0.2c0-0.1,0.1-0.1,0.1-0.1c0,0,0-0.1-0.1-0.1c0,0-0.1,0-0.1,0v-0.1L71.2,67.4L71.2,67.4z M72,66
		c0-0.1-0.1-0.1-0.1-0.2c-0.1-0.1-0.1-0.2-0.2-0.3c-0.1-0.1-0.1-0.2-0.2-0.3s-0.1-0.2-0.2-0.2c0-0.1-0.1-0.1-0.1-0.1h-0.7v1.2
		c0,0,0,0.1,0,0.1c0,0,0.1,0,0.2,0v0.1h-1.4v-0.1c0.1,0,0.1,0,0.2,0c0,0,0,0,0-0.1v-3.3c0,0,0-0.1,0-0.1c0,0-0.1,0-0.2,0v-0.1h2.6
		c0.5,0,0.9,0.1,1.1,0.3c0.2,0.2,0.3,0.5,0.3,0.9c0,0.3-0.1,0.6-0.3,0.8c-0.2,0.2-0.4,0.3-0.7,0.4l0.8,1.2c0.1,0.1,0.1,0.1,0.2,0.1
		v0.1h-1.5v-0.1C72,66.2,72.1,66.2,72,66C72.1,66.1,72.1,66,72,66z"/>
	<path class="st0" d="M60,54.3c-0.6,0-1.2,0-1.8,0c0,0.3,0.1,0.6-0.1,0.8c-0.6,0.5-1.7,0.5-2.2,0.5c-0.9,0-1.8-0.2-2.2-0.5
		c-0.2-0.1-0.3-0.2-0.3-0.3c-5,0.8-9.6,2.4-12.9,4.6c-3.5,2.4-5.3,5.2-5.3,8.2c0.3-6,11.8-10.8,24.7-10.8c12.9,0,24.4,4.8,24.7,10.8
		C84.7,60.3,73.6,54.3,60,54.3z"/>
	<path class="st0" d="M51.5,68.1h-1.2v0.8h1.2c0.2,0,0.3,0,0.4-0.1c0.1-0.1,0.1-0.2,0.1-0.3c0-0.1,0-0.2-0.1-0.3
		C51.8,68.2,51.7,68.1,51.5,68.1z"/>
	<path class="st0" d="M50,64.5c0-0.2,0-0.3-0.1-0.4c-0.1-0.1-0.1-0.2-0.3-0.3c-0.1-0.1-0.2-0.2-0.4-0.2c-0.1,0-0.3-0.1-0.4-0.1
		c-0.2,0-0.3,0-0.4,0.1c-0.1,0-0.3,0.1-0.4,0.2c-0.1,0.1-0.2,0.2-0.3,0.3c-0.1,0.1-0.1,0.3-0.1,0.4c0,0.2,0,0.3,0.1,0.4
		c0.1,0.1,0.1,0.2,0.3,0.3c0.1,0.1,0.2,0.2,0.4,0.2c0.1,0,0.3,0.1,0.4,0.1c0.2,0,0.3,0,0.4-0.1c0.1,0,0.3-0.1,0.4-0.2
		c0.1-0.1,0.2-0.2,0.3-0.3C50,64.8,50,64.6,50,64.5z"/>
	<path class="st0" d="M65.6,68.7c0.1,0,0.2,0,0.2,0c0.1,0,0.1-0.1,0.1-0.1c0,0,0-0.1,0-0.2s0-0.1,0-0.2c0,0-0.1-0.1-0.1-0.1
		c-0.1,0-0.1,0-0.2,0c-0.1,0-0.2,0-0.4,0h-1v0.6h1C65.4,68.7,65.5,68.7,65.6,68.7z"/>
	<path class="st0" d="M65.4,69.4h-1.2v0.8h1.2c0.3,0,0.4,0,0.5-0.1c0.1-0.1,0.2-0.2,0.2-0.3c0-0.2-0.1-0.3-0.2-0.3
		C65.9,69.5,65.7,69.4,65.4,69.4z"/>
	<polygon class="st0" points="65.2,73.8 65.7,73.8 65.7,73.2 65.7,73.2 	"/>
	<path class="st0" d="M62,73.4C62,73.5,62.1,73.5,62,73.4c0.1,0,0.1,0,0.2,0c0,0,0.1,0,0.1,0c0,0,0.1,0,0.1,0c0,0,0,0,0.1,0
		c0,0,0,0,0-0.1c0,0,0-0.1,0-0.1c0,0,0,0-0.1,0c0,0-0.1,0-0.1,0c0,0-0.1,0-0.1,0c0,0-0.1,0-0.1,0s-0.1,0-0.1,0c0,0,0,0-0.1,0
		c0,0,0,0,0,0.1C61.9,73.3,61.9,73.4,62,73.4C62,73.4,62,73.4,62,73.4z"/>
	<path class="st0" d="M62.4,73.8c0,0-0.1,0-0.1,0c0,0-0.1,0-0.1,0c0,0-0.1,0-0.1,0s-0.1,0-0.1,0c0,0-0.1,0-0.1,0.1c0,0,0,0.1,0,0.1
		c0,0,0,0.1,0,0.1c0,0,0.1,0,0.1,0.1c0,0,0.1,0,0.1,0c0,0,0.1,0,0.1,0c0,0,0.1,0,0.1,0c0,0,0.1,0,0.1,0c0,0,0.1,0,0.1-0.1
		c0,0,0-0.1,0-0.1C62.5,73.9,62.5,73.9,62.4,73.8C62.5,73.8,62.4,73.8,62.4,73.8z"/>
	<path class="st0" d="M72.3,63.8c0-0.1,0-0.2-0.1-0.3c-0.1-0.1-0.2-0.1-0.4-0.1h-1.2v0.8h1.2c0.2,0,0.3,0,0.4-0.1
		C72.3,64,72.3,63.9,72.3,63.8z"/>
	<path class="st7" d="M60,56.8c-12.9,0-24.4,4.8-24.7,10.8c0.4-4.8,11.9-8.7,24.7-8.7c12.8,0,24.4,3.9,24.8,8.7
		C84.4,61.6,72.9,56.8,60,56.8z"/>
	<path class="st7" d="M59.9,76.5c-12.7,0-24.2-3.8-24.7-8.6c0,0,0-0.1,0-0.1c0,0.1,0,0.1,0,0.2c0.5,5.9,11.9,10.7,24.7,10.7
		c12.8,0,24.2-4.7,24.7-10.7c0-0.1,0-0.1,0-0.2c0,0,0,0.1,0,0.1C84.2,72.7,72.6,76.5,59.9,76.5z"/>
	<path class="st1" d="M67.1,34.8c0-0.1,0-0.2,0.1-0.3c0,0,0,0,0,0c0,0,0,0,0,0c-0.1,0.1-0.2,0.1-0.3,0.2c0,0,0,0-0.1,0.1
		c-0.2,0.1-0.3,0.2-0.5,0.3c0,0-0.1,0-0.1,0.1c0,0,0,0,0,0c0,0,0,0,0,0c0,0,0,0,0.1,0c0.2-0.1,0.4-0.3,0.6-0.5
		c0-0.1,0.1-0.1,0.1-0.2c0,0-0.1,0.1-0.1,0.1c0,0,0,0,0,0c0,0,0,0,0,0c0.1-0.1,0.1-0.2,0.1-0.3c0-0.1,0-0.2,0-0.3c0-0.1,0-0.2,0-0.2
		c0,0,0,0,0,0c0,0,0,0,0,0c0,0,0,0,0,0.1c0,0.1-0.1,0.2-0.1,0.3c-0.1,0.3-0.4,0.6-0.6,0.8c0,0,0,0,0,0c0,0,0,0,0,0
		c0.1-0.1,0.2-0.3,0.3-0.4c0.1-0.1,0.1-0.2,0.2-0.4c0-0.1,0-0.3,0-0.4c0-0.1,0-0.2,0-0.3c0-0.1,0-0.1,0-0.2c0,0,0,0,0,0c0,0,0,0,0,0
		c-0.1,0.1-0.1,0.2-0.2,0.3c0,0.1-0.1,0.2-0.1,0.2c0,0.1-0.1,0.3-0.1,0.4c0,0,0,0.1,0,0.1c0,0,0,0,0-0.1c0-0.1,0-0.2,0-0.3
		c0,0,0,0,0,0c0,0,0,0,0,0c0,0.1,0,0.2-0.1,0.2c0,0,0,0,0,0c0,0.1,0,0.1,0,0.2c-0.2,0.4-0.4,0.7-0.8,1c0,0,0,0,0,0c0,0,0,0,0,0
		c0-0.1,0,0,0,0c0,0,0,0,0,0.1c0,0,0,0,0,0c0,0,0,0,0,0c0,0,0-0.1,0-0.1c0,0,0,0,0,0c0,0,0,0,0,0c0,0.1-0.1,0.1-0.1,0.2
		c-0.1,0.1-0.1,0.1-0.2,0.2c0,0-0.1,0.1-0.1,0.1c0,0-0.1,0-0.1,0c0,0,0,0,0,0c0,0,0.1-0.1,0-0.1c0-0.1,0-0.1-0.1-0.2c0,0,0,0,0-0.1
		c0.1,0,0.1-0.1,0.2-0.1c0,0-0.1,0-0.1,0c0,0,0,0,0,0c0,0,0,0,0,0c0.1,0,0.1,0,0.2,0c0,0,0.1,0,0,0c0-0.1-0.1-0.2-0.2-0.2
		c0,0-0.1,0-0.1,0c-0.1-0.1-0.2-0.1-0.3-0.1c-0.1,0-0.2,0.1-0.3,0.2c0,0.1-0.1,0.1-0.1,0.2c0,0,0,0,0,0c0,0,0,0,0,0c0,0,0,0,0,0
		c0,0,0,0,0,0.1c0,0,0,0,0,0.1c0,0,0,0,0,0.1c0,0,0,0,0,0c0,0,0,0,0,0c0,0,0,0,0,0c0,0,0,0,0,0c0,0,0,0,0,0c0,0.1-0.1,0.1,0,0.2
		c0,0,0,0,0,0c0,0,0,0-0.1,0c-0.1-0.1-0.3-0.2-0.3-0.4c0,0,0,0,0,0c0,0,0,0,0,0c0,0,0,0.1,0,0.1c0,0,0,0,0,0c0,0,0,0,0-0.1
		c0,0,0,0.1-0.1,0c0,0-0.1-0.1-0.1-0.1c0,0-0.1-0.1-0.1-0.1c0,0,0,0,0,0c0,0.1,0,0,0,0c0-0.1-0.1-0.1-0.1-0.2c0,0,0,0,0,0
		c0,0,0,0,0-0.1c-0.1-0.1-0.1-0.2-0.2-0.3c0,0,0,0,0-0.1c-0.1-0.2-0.2-0.5-0.2-0.7c0,0,0,0,0,0c0,0,0,0,0,0c0,0.1-0.1,0.2,0,0.4
		c0,0,0,0,0,0c0,0,0,0,0,0c0-0.1-0.1-0.3-0.1-0.4c0-0.2-0.1-0.4-0.2-0.6c0,0,0,0,0,0c0,0,0,0,0,0c0,0.1,0,0.1,0,0.2
		c0,0.2,0,0.3,0,0.5c0,0.1,0,0.3,0.1,0.4c0.1,0.2,0.2,0.4,0.4,0.6c0,0,0,0,0,0c0,0,0,0,0,0c-0.1,0-0.1-0.1-0.2-0.1
		c-0.2-0.2-0.4-0.4-0.5-0.7c0-0.1,0-0.1-0.1-0.2c0,0,0-0.1-0.1-0.1c0,0,0,0,0,0c0,0,0,0,0,0c0,0.1,0,0.1,0,0.2c0,0.1,0,0.3,0,0.4
		c0,0.1,0,0.1,0.1,0.2c0,0,0,0,0,0.1c0,0,0,0-0.1,0c0,0,0,0-0.1-0.1c0,0,0,0,0,0.1c0.1,0.1,0.2,0.3,0.3,0.4c0.1,0.1,0.3,0.2,0.4,0.3
		c0,0,0,0,0,0c0,0,0,0-0.1,0c-0.1-0.1-0.2-0.1-0.3-0.2c-0.1-0.1-0.3-0.2-0.4-0.3c-0.1-0.1-0.2-0.2-0.3-0.2c0,0,0,0,0,0c0,0,0,0,0,0
		c0,0,0.1,0.1,0.1,0.1c0,0.1,0.1,0.3,0.2,0.4c0,0,0,0,0,0c0,0,0,0,0,0c0,0-0.1,0-0.1,0c0,0,0,0,0,0c0,0,0,0,0,0
		c0.1,0.1,0.2,0.2,0.3,0.2c0.1,0.1,0.2,0.1,0.3,0.2c0,0,0,0,0,0c0,0,0,0,0,0c-0.1,0-0.2-0.1-0.3-0.1c-0.1,0-0.2-0.1-0.3-0.1
		c0,0,0,0,0,0c0,0,0,0,0,0c0.1,0.1,0.2,0.1,0.3,0.2c0.1,0.1,0.2,0.2,0.3,0.2c0,0,0,0,0,0c0,0,0,0,0,0c-0.1,0-0.2,0-0.3,0.1
		c0.1,0,0.1,0,0.2,0c0.2,0,0.3,0.1,0.4,0.2c0,0,0,0,0,0c0,0,0,0,0,0c-0.1,0-0.3,0-0.4,0c0.2,0.1,0.3,0.2,0.5,0.2c0,0,0,0,0,0
		c0,0,0,0,0,0c-0.1,0-0.2,0-0.3,0.1c0,0,0,0,0,0c0,0,0,0,0,0c0.1,0,0.2,0,0.4,0c0.1,0,0.3,0,0.4,0c0,0,0,0,0.1,0c0,0,0,0-0.1,0
		c-0.2,0.1-0.3,0.1-0.5,0.1c-0.1,0-0.2,0-0.2,0c0.1,0,0.3,0.1,0.4,0.1c0.1,0,0.1,0,0.2,0c0.1,0,0.1,0,0.2,0c0,0.1-0.1,0.1-0.1,0.1
		c-0.1,0.1-0.2,0.1-0.3,0.1c0,0,0,0,0,0c0,0,0,0,0,0c0.2,0,0.4,0,0.6-0.1c0,0,0,0,0,0c0,0,0,0,0,0c0,0.1,0,0.1-0.1,0.2
		c0,0.1,0,0.1,0,0.2c0,0.1-0.1,0.1-0.1,0.2c0,0,0,0,0,0c0-0.1,0.1-0.1,0.1-0.2c0,0,0,0,0,0c0,0,0,0,0,0.1c0,0,0,0.1,0,0.1
		c0-0.1,0.1-0.2,0.1-0.3c0,0,0-0.1,0-0.1c0,0,0.1,0,0.1-0.1c0,0,0,0,0,0c0,0,0,0,0,0.1c0,0,0,0,0,0c0,0.1,0,0.2,0,0.4
		c0,0.1,0,0.2,0,0.3c0,0,0,0,0,0c0,0,0,0,0,0c0-0.1,0.1-0.2,0.1-0.3c0,0,0,0,0,0c0,0,0,0,0,0c0,0.1,0,0.1,0,0.2
		c0.1-0.1,0.1-0.3,0.2-0.4c0,0,0,0,0,0c0,0,0,0,0,0c0,0.1,0,0.2,0,0.3c0,0.1,0,0.2,0,0.3c0,0,0.1-0.1,0.1-0.2c0,0.1,0,0.2,0,0.2
		c0,0.5,0.2,1,0.6,1.2c-0.2-0.3-0.3-0.7-0.4-1.2c0.1,0.3,0.3,0.6,0.6,0.7c0,0-0.1,0.1-0.2,0.1c0.1,0,0.2,0,0.2-0.1
		c0.1,0,0.1,0.1,0.2,0.1c-0.1,0-0.1-0.1-0.2-0.1c0.3-0.2,0.5-0.4,0.6-0.7c0,0.5-0.2,0.9-0.4,1.2c0.3-0.2,0.6-0.7,0.6-1.2
		c0,0,0-0.1,0-0.1c0,0,0,0.1,0.1,0.1c0-0.1,0-0.2,0-0.3c0-0.1,0-0.2,0-0.2c0,0,0-0.1,0-0.1c0,0,0,0.1,0,0.1c0,0,0,0,0,0
		c0,0.1,0,0.2,0.1,0.3c0-0.1,0-0.1,0-0.2c0,0,0,0,0,0c0,0,0,0,0,0c0,0.1,0.1,0.2,0.1,0.3c0,0,0,0,0,0.1c0,0,0,0,0-0.1
		c0,0,0-0.1,0-0.1c0-0.2,0-0.4,0-0.6c0,0,0,0,0,0c0,0,0,0,0,0c0,0.1,0.1,0.1,0.1,0.2c0,0.1,0.1,0.1,0.1,0.2c0,0,0-0.1,0-0.1
		c0,0,0,0,0,0c0,0,0,0,0,0c0,0.1,0.1,0.1,0.1,0.2c0-0.1,0-0.2,0-0.2c0-0.1,0-0.2-0.1-0.3c0,0,0,0,0,0c0,0,0,0,0,0
		c0.1,0,0.1,0.1,0.2,0.1c0.1,0,0.2,0,0.3,0c0,0,0.1,0,0.1,0c0,0,0,0-0.1,0c-0.1,0-0.2-0.1-0.4-0.2c0,0,0,0,0,0c0,0,0,0,0,0
		c0.1,0,0.1,0,0.2,0c0.1,0,0.3-0.1,0.4-0.1c0,0,0,0,0,0c0,0,0,0,0,0c-0.1,0-0.2,0-0.3,0c-0.1,0-0.1,0-0.2,0c-0.1,0-0.2-0.1-0.3-0.1
		c0,0,0,0,0,0c0,0,0,0,0,0c0,0,0,0,0,0c0.1,0,0.2,0,0.3,0c0.1,0,0.2,0,0.3,0c0.1,0,0.2,0,0.2,0c-0.1-0.1-0.2-0.1-0.3-0.1
		c0,0,0,0,0,0c0.2-0.1,0.3-0.1,0.5-0.2c0,0,0,0,0,0c0,0,0,0,0,0c-0.1,0-0.3,0-0.4,0c0,0,0,0,0,0c0,0,0,0,0,0c0,0,0.1,0,0.1-0.1
		c0.1,0,0.2-0.1,0.3-0.1c0.1,0,0.1,0,0.2,0c0,0,0,0,0,0c0,0,0,0,0,0c-0.1,0-0.2,0-0.2,0c0,0,0,0,0,0c0,0,0,0,0,0
		c0.1-0.1,0.1-0.1,0.2-0.2c0.1-0.1,0.2-0.2,0.3-0.3c0,0,0,0,0,0c0,0,0,0,0,0c-0.2,0-0.3,0.1-0.5,0.2c0,0-0.1,0-0.1,0c0,0,0,0,0,0
		c0,0,0,0,0,0c0.1-0.1,0.2-0.1,0.3-0.2c0.1-0.1,0.2-0.2,0.3-0.2c0,0-0.1,0-0.1,0c0,0,0,0,0,0c0,0,0,0,0,0C67,35,67,34.9,67.1,34.8z
		 M64.2,34.8c0,0-0.3,0.1-0.2,0C64.1,34.8,64.2,34.8,64.2,34.8z M64.4,37.6c-0.1,0.4-0.2,0.7-0.4,0.9c-0.2-0.2-0.4-0.5-0.4-0.9
		c0,0,0-0.1,0-0.1c0.2,0.4,0.4,0.9,0.5,0.9s0.3-0.4,0.5-0.9C64.4,37.5,64.4,37.6,64.4,37.6z"/>
	<path class="st6" d="M66.1,28.6h-0.6c1.3,1.4,1.8,3,1.9,3.5l1.4,0C67.8,30.2,66.9,29.2,66.1,28.6z"/>
	<path class="st6" d="M51.9,30.3C51.9,30.3,51.9,30.3,51.9,30.3c0.3-0.4,0.7-0.8,1.1-1.2C52.6,29.5,52.3,29.9,51.9,30.3z"/>
	<polygon class="st6" points="60.1,32.1 60.4,32.1 60.1,32.1 	"/>
	<path class="st6" d="M52.9,30c-0.2,0.1-0.4,0.1-0.6,0.2c-0.1,0-0.1,0-0.2,0.1c0,0,0.1,0,0.1,0c0,0-0.1,0-0.1,0c0.1,0,0.1,0,0.2-0.1
		C52.5,30.1,52.7,30.1,52.9,30C52.9,30,52.9,30,52.9,30C52.9,30,52.9,30,52.9,30z"/>
	<path class="st6" d="M54.4,28.6c-0.3,0.4-0.7,0.8-1,1.2c-0.1,0-0.2,0.1-0.3,0.1c0,0,0,0,0,0c0,0,0,0,0,0c0.7-0.2,1.3-0.3,2-0.3
		c1.3,0.1,2.8,0.9,4,2.4l0.4,0c-0.2-0.6-0.7-2.2-2.1-3.5H54.4L54.4,28.6L54.4,28.6L54.4,28.6z"/>
	<path class="st0" d="M51.9,30.3C51.9,30.3,51.9,30.3,51.9,30.3C51.9,30.3,51.9,30.3,51.9,30.3L51.9,30.3
		C51.9,30.3,51.9,30.3,51.9,30.3c0,0,0.1,0,0.1,0c0,0,0.1,0,0.1,0c0,0-0.1,0-0.1,0c0.1,0,0.1,0,0.2-0.1c0.2-0.1,0.4-0.1,0.6-0.2
		c0,0,0,0,0,0c0,0,0,0,0,0c0.1,0,0.1,0,0.2-0.1c0,0,0,0,0,0c0,0,0,0,0,0c0.1,0,0.2-0.1,0.3-0.1c0.3-0.4,0.7-0.8,1-1.2h0h0
		c0,0,0,0,0,0h0h-1h0c-0.2,0.2-0.3,0.3-0.5,0.5C52.6,29.5,52.3,29.9,51.9,30.3z"/>
	<path class="st5" d="M64.7,28.6l-3.3,0l-3.2,0c1.3,1.4,1.8,3,1.9,3.5l0.3,0l6.5,0C66.7,31.5,66.1,29.9,64.7,28.6z"/>
	<path class="st1" d="M43,65.9c0.2,0.2,0.5,0.3,0.7,0.3c0.3,0.1,0.6,0.1,0.8,0.1c0.3,0,0.5,0,0.7-0.1c0.2,0,0.4-0.1,0.5-0.1
		s0.3-0.1,0.4-0.1c0.1,0,0.2-0.1,0.2-0.1c0,0,0,0,0.1,0c0,0,0,0,0,0l0.1,0l-0.7-1.1l-0.1,0c0,0,0,0,0,0c0,0,0,0,0,0.1
		c0,0.1-0.1,0.1-0.2,0.1c-0.1,0-0.2,0.1-0.3,0.1c-0.1,0-0.3,0.1-0.4,0.1c-0.1,0-0.2,0-0.3,0c-0.1,0-0.3,0-0.4,0
		c-0.2,0-0.3-0.1-0.4-0.2c-0.1-0.1-0.2-0.2-0.3-0.3s-0.1-0.3-0.1-0.5c0-0.2,0-0.3,0.1-0.5c0.1-0.1,0.2-0.2,0.3-0.3
		c0.1-0.1,0.3-0.1,0.4-0.2s0.3,0,0.4,0c0.1,0,0.3,0,0.4,0c0.1,0,0.3,0,0.4,0.1c0.1,0,0.2,0.1,0.3,0.1c0.1,0,0.1,0.1,0.1,0.1
		c0,0,0,0,0,0.1c0,0,0,0,0,0l0.1,0l0.6-1.2l-0.1,0c0,0-0.1,0.1-0.1,0.1c0,0-0.1,0-0.2,0c-0.1,0-0.2-0.1-0.3-0.1
		c-0.1,0-0.3-0.1-0.5-0.1c-0.2,0-0.4,0-0.7,0c-0.3,0-0.6,0-0.8,0.1s-0.5,0.2-0.7,0.4c-0.2,0.2-0.4,0.4-0.5,0.6
		c-0.1,0.2-0.2,0.5-0.2,0.8c0,0.3,0.1,0.6,0.2,0.8C42.6,65.5,42.8,65.7,43,65.9z"/>
	<path class="st1" d="M50.4,65.9c0.2-0.2,0.4-0.4,0.5-0.6c0.1-0.2,0.2-0.5,0.2-0.8c0-0.3-0.1-0.6-0.2-0.8c-0.1-0.2-0.3-0.4-0.5-0.6
		c-0.2-0.2-0.4-0.3-0.7-0.4c-0.3-0.1-0.5-0.1-0.8-0.1c-0.3,0-0.6,0-0.8,0.1c-0.3,0.1-0.5,0.2-0.7,0.4c-0.2,0.2-0.4,0.4-0.5,0.6
		c-0.1,0.2-0.2,0.5-0.2,0.8c0,0.3,0.1,0.6,0.2,0.8c0.1,0.2,0.3,0.4,0.5,0.6c0.2,0.2,0.4,0.3,0.7,0.3c0.3,0.1,0.5,0.1,0.8,0.1
		c0.3,0,0.6,0,0.8-0.1C50,66.1,50.2,66,50.4,65.9z M49.3,65.4c-0.1,0-0.3,0.1-0.4,0.1c-0.2,0-0.3,0-0.4-0.1c-0.1,0-0.3-0.1-0.4-0.2
		c-0.1-0.1-0.2-0.2-0.3-0.3c-0.1-0.1-0.1-0.3-0.1-0.4c0-0.2,0-0.3,0.1-0.4c0.1-0.1,0.1-0.2,0.3-0.3c0.1-0.1,0.2-0.2,0.4-0.2
		c0.1,0,0.3-0.1,0.4-0.1c0.2,0,0.3,0,0.4,0.1c0.1,0,0.3,0.1,0.4,0.2c0.1,0.1,0.2,0.2,0.3,0.3c0.1,0.1,0.1,0.3,0.1,0.4
		c0,0.2,0,0.3-0.1,0.4c-0.1,0.1-0.1,0.2-0.3,0.3C49.6,65.3,49.5,65.4,49.3,65.4z"/>
	<path class="st1" d="M51.2,62.9c0,0,0.1,0.1,0.1,0.2c0,0.1,0.1,0.3,0.2,0.4c0.1,0.2,0.1,0.3,0.2,0.5c0.1,0.2,0.2,0.4,0.2,0.6
		c0.1,0.2,0.2,0.4,0.2,0.6c0.1,0.2,0.1,0.3,0.2,0.5c0.1,0.1,0.1,0.3,0.1,0.3c0,0.1,0.1,0.1,0.1,0.1c0,0,0,0,0,0c0,0,0,0-0.1,0v0.1
		h1.4v-0.1c-0.1,0-0.1,0-0.1-0.1c0,0,0-0.1,0.1-0.2c0-0.1,0.1-0.2,0.2-0.4c0.1-0.1,0.1-0.3,0.2-0.5c0.1-0.2,0.2-0.4,0.3-0.6
		c0.1-0.2,0.2-0.4,0.3-0.6c0.1-0.2,0.2-0.4,0.2-0.5c0.1-0.2,0.1-0.3,0.2-0.4c0-0.1,0.1-0.2,0.1-0.2c0,0,0-0.1,0-0.1c0,0,0,0,0.1,0
		v-0.1h-1.2v0.1c0,0,0.1,0,0.1,0c0,0,0,0,0,0.1c0,0,0,0.1,0,0.1c0,0.1-0.1,0.2-0.1,0.3c-0.1,0.1-0.2,0.4-0.3,0.6
		c-0.1,0.3-0.3,0.6-0.5,1.1c-0.2-0.5-0.4-0.8-0.5-1.1c-0.1-0.3-0.2-0.5-0.3-0.6c-0.1-0.1-0.1-0.2-0.1-0.3c0,0,0-0.1,0-0.1
		c0,0,0,0,0-0.1c0,0,0.1,0,0.1,0v-0.1H51v0.1c0,0,0.1,0,0.1,0C51.1,62.8,51.2,62.8,51.2,62.9z"/>
	<path class="st1" d="M59.2,66.3c0,0,0,0.1,0,0.1h0.1v-1.2h-0.1c0,0.1,0,0.1,0,0.2c0,0,0,0-0.1,0h-2.2v-0.6h1.3c0.1,0,0.1,0,0.2,0
		c0,0,0,0.1,0.1,0.1h0.1v-1.1h-0.1c0,0,0,0.1-0.1,0.1c0,0-0.1,0-0.2,0h-1.3v-0.6h2.2c0,0,0.1,0,0.1,0c0,0,0,0.1,0,0.2h0.1v-1.2h-0.1
		c0,0.1,0,0.1,0,0.2c0,0,0,0-0.1,0h-3.5v0.1c0.1,0,0.1,0,0.2,0c0,0,0,0,0,0.1v3.3c0,0,0,0.1,0,0.1c0,0-0.1,0-0.2,0v0.1L59.2,66.3
		C59.2,66.3,59.2,66.3,59.2,66.3z"/>
	<path class="st1" d="M61.4,66.2c-0.1,0-0.1,0-0.2,0c0,0,0,0,0-0.1v-2.2c0.3,0.3,0.6,0.6,0.8,0.9s0.4,0.4,0.6,0.6
		c0.1,0.2,0.3,0.3,0.4,0.4c0.1,0.1,0.2,0.2,0.2,0.2c0,0.1,0.1,0.1,0.1,0.1c0,0,0,0,0,0.1c0,0,0,0,0,0.1c0,0-0.1,0-0.1,0v0.1h1.3
		v-0.1c-0.1,0-0.1,0-0.2,0c0,0,0,0,0-0.1v-3.3c0,0,0-0.1,0-0.1c0,0,0.1,0,0.2,0v-0.1h-1.3v0.1c0.1,0,0.1,0,0.1,0.1v1.9
		c-0.1-0.1-0.2-0.2-0.3-0.3c-0.1-0.1-0.2-0.3-0.4-0.4c-0.1-0.1-0.3-0.3-0.4-0.4c-0.1-0.1-0.2-0.3-0.3-0.4c-0.1-0.1-0.2-0.2-0.2-0.3
		c-0.1-0.1-0.1-0.1-0.1-0.1c0,0,0,0,0-0.1c0,0,0.1,0,0.2,0v-0.1h-1.7v0.1c0.1,0,0.1,0,0.2,0c0,0,0,0,0,0.1v3.3c0,0,0,0.1,0,0.1
		c0,0-0.1,0-0.2,0v0.1L61.4,66.2L61.4,66.2z"/>
	<path class="st1" d="M65,63.5C65,63.5,65,63.5,65,63.5l1.3,0v2.6c0,0,0,0.1,0,0.1c0,0-0.1,0-0.2,0v0.1h1.4v-0.1c-0.1,0-0.1,0-0.2,0
		c0,0,0,0,0-0.1v-2.6h1.2c0,0,0.1,0,0.1,0c0,0,0,0.1,0,0.2h0.1v-1.2h-0.1c0,0.1,0,0.1,0,0.2c0,0,0,0-0.1,0h-3.5c0,0-0.1,0-0.1,0
		c0,0,0-0.1,0-0.2h-0.1v1.2h0.1C64.9,63.6,64.9,63.5,65,63.5z"/>
	<path class="st1" d="M71.9,66.2L71.9,66.2l1.5,0.1v-0.1c-0.1,0-0.1,0-0.2-0.1l-0.8-1.2c0.3-0.1,0.5-0.2,0.7-0.4
		c0.2-0.2,0.3-0.4,0.3-0.8c0-0.4-0.1-0.7-0.3-0.9c-0.2-0.2-0.6-0.3-1.1-0.3h-2.6v0.1c0.1,0,0.1,0,0.2,0c0,0,0,0,0,0.1v3.3
		c0,0,0,0.1,0,0.1c0,0-0.1,0-0.2,0v0.1h1.4v-0.1c-0.1,0-0.1,0-0.2,0c0,0,0,0,0-0.1v-1.2h0.7c0,0,0,0.1,0.1,0.1
		c0,0.1,0.1,0.1,0.2,0.2s0.1,0.2,0.2,0.3c0.1,0.1,0.1,0.2,0.2,0.3C72,65.9,72,65.9,72,66c0,0.1,0.1,0.1,0.1,0.1
		C72.1,66.2,72,66.2,71.9,66.2z M71.8,64.2h-1.2v-0.8h1.2c0.2,0,0.3,0,0.4,0.1c0.1,0.1,0.1,0.2,0.1,0.3c0,0.1,0,0.2-0.1,0.3
		C72.1,64.1,72,64.2,71.8,64.2z"/>
	<path class="st1" d="M73.9,62.9l1.3,1.9v1.2c0,0,0,0.1,0,0.1c0,0-0.1,0-0.2,0v0.1h1.4v-0.1c-0.1,0-0.1,0-0.2,0c0,0,0,0,0-0.1v-1.4
		l1.3-1.9c0,0,0-0.1,0.1-0.1c0,0,0.1,0,0.1,0v-0.1h-1.3v0.1c0,0,0.1,0,0.1,0c0,0,0.1,0,0.1,0.1c0,0,0,0-0.1,0.1
		c0,0.1-0.1,0.1-0.1,0.2c-0.1,0.1-0.1,0.2-0.2,0.3c-0.1,0.1-0.1,0.2-0.2,0.3s-0.1,0.2-0.2,0.2c0,0.1-0.1,0.1-0.1,0.1
		c-0.1-0.1-0.1-0.2-0.2-0.3c-0.1-0.1-0.2-0.2-0.3-0.4c-0.1-0.1-0.2-0.2-0.2-0.3c-0.1-0.1-0.1-0.1-0.1-0.2c0,0,0-0.1,0.1-0.1
		c0,0,0.1,0,0.1,0v-0.1h-1.5v0.1c0,0,0.1,0,0.1,0C73.8,62.8,73.8,62.8,73.9,62.9z"/>
	<path class="st1" d="M52.9,70.8l-0.8-1.2c0.3-0.1,0.5-0.2,0.7-0.4s0.3-0.4,0.3-0.8c0-0.4-0.1-0.7-0.3-0.9c-0.2-0.2-0.6-0.3-1.1-0.3
		H49v0.1c0.1,0,0.1,0,0.2,0c0,0,0,0,0,0.1v3.3c0,0,0,0.1,0,0.1c0,0-0.1,0-0.2,0V71h1.4v-0.1c-0.1,0-0.1,0-0.2,0c0,0,0,0,0-0.1v-1.2
		H51c0,0,0,0.1,0.1,0.1s0.1,0.1,0.2,0.2s0.1,0.2,0.2,0.3c0.1,0.1,0.1,0.2,0.2,0.3c0.1,0.1,0.1,0.1,0.1,0.2c0,0.1,0.1,0.1,0.1,0.1
		c0,0.1-0.1,0.1-0.2,0.1V71h1.5v-0.1C53,70.9,53,70.9,52.9,70.8z M51.9,68.8c-0.1,0.1-0.2,0.1-0.4,0.1h-1.2v-0.8h1.2
		c0.2,0,0.3,0,0.4,0.1c0.1,0.1,0.1,0.2,0.1,0.3C52,68.6,52,68.7,51.9,68.8z"/>
	<path class="st1" d="M57.5,69.4v-1.9c0,0,0-0.1,0-0.1c0,0,0.1,0,0.2,0v-0.1h-1.4v0.1c0.1,0,0.1,0,0.2,0c0,0,0,0,0,0.1v1.9
		c0,0.3-0.1,0.5-0.2,0.6c-0.2,0.1-0.4,0.2-0.6,0.2c-0.3,0-0.5-0.1-0.6-0.2c-0.2-0.1-0.2-0.3-0.2-0.6v-1.9c0,0,0-0.1,0-0.1
		c0,0,0.1,0,0.2,0v-0.1h-1.4v0.1c0.1,0,0.1,0,0.2,0c0,0,0,0,0,0.1v1.9c0,0.3,0,0.6,0.2,0.8c0.1,0.2,0.2,0.4,0.4,0.5
		c0.2,0.1,0.4,0.2,0.6,0.3c0.2,0,0.5,0.1,0.8,0.1c0.3,0,0.5,0,0.8-0.1c0.2,0,0.4-0.1,0.6-0.3c0.2-0.1,0.3-0.3,0.4-0.5
		C57.4,70,57.5,69.7,57.5,69.4z"/>
	<path class="st1" d="M62.5,70.5L62.5,70.5L62.5,70.5c-0.1-0.1-0.1-0.1-0.1-0.1s0-0.1,0-0.1v-1.2c0-0.1,0-0.1,0.1-0.1V69h-2.1
		c-0.1,0-0.1,0-0.1-0.1h-0.1v1h0.1c0,0,0-0.1,0-0.1c0,0,0,0,0.1,0h0.9v0.5c-0.1,0-0.3,0.1-0.5,0.1c-0.2,0-0.3,0-0.5,0
		c-0.2,0-0.3,0-0.5-0.1c-0.2,0-0.3-0.1-0.4-0.2c-0.1-0.1-0.2-0.2-0.3-0.3c-0.1-0.1-0.1-0.3-0.1-0.5c0-0.2,0-0.4,0.1-0.5
		c0.1-0.1,0.2-0.3,0.3-0.3s0.3-0.2,0.4-0.2c0.2,0,0.3-0.1,0.5-0.1c0.1,0,0.3,0,0.4,0c0.2,0,0.3,0.1,0.4,0.1c0.1,0,0.2,0.1,0.3,0.1
		s0.1,0.1,0.1,0.1c0,0,0,0,0,0.1l0.1,0l0.5-0.9l-0.1,0c0,0-0.1,0.1-0.1,0.1c0,0-0.1,0-0.2-0.1c-0.1,0-0.2-0.1-0.3-0.1
		c-0.1,0-0.2-0.1-0.3-0.1c-0.1,0-0.2,0-0.3-0.1c-0.1,0-0.2,0-0.3,0c-0.1,0-0.2,0-0.3,0c-0.3,0-0.6,0-0.8,0.1
		c-0.3,0.1-0.5,0.2-0.7,0.3c-0.2,0.2-0.4,0.4-0.5,0.6c-0.1,0.2-0.2,0.5-0.2,0.8c0,0.3,0.1,0.6,0.2,0.8c0.1,0.2,0.3,0.4,0.5,0.6
		c0.2,0.2,0.5,0.3,0.7,0.3C59.7,71,60,71,60.3,71C61.1,71,61.9,70.9,62.5,70.5z"/>
	<path class="st1" d="M66.3,69.1L66.3,69.1c0.2-0.1,0.4-0.1,0.5-0.3c0.1-0.1,0.2-0.3,0.2-0.5c0-0.2,0-0.3-0.1-0.4
		c-0.1-0.1-0.2-0.2-0.3-0.3c-0.1-0.1-0.3-0.1-0.4-0.2c-0.2,0-0.3-0.1-0.5-0.1H63v0.1c0.1,0,0.1,0,0.2,0c0,0,0,0,0,0.1v3.3
		c0,0,0,0.1,0,0.1c0,0-0.1,0-0.2,0V71h2.7c0.2,0,0.5,0,0.6-0.1c0.2-0.1,0.3-0.1,0.4-0.2c0.1-0.1,0.2-0.2,0.3-0.3
		c0.1-0.1,0.1-0.3,0.1-0.4c0-0.3-0.1-0.5-0.2-0.6C66.7,69.2,66.5,69.1,66.3,69.1z M64.3,68.1h1c0.1,0,0.3,0,0.4,0c0.1,0,0.2,0,0.2,0
		c0.1,0,0.1,0.1,0.1,0.1c0,0,0,0.1,0,0.2s0,0.1,0,0.2c0,0-0.1,0.1-0.1,0.1c-0.1,0-0.1,0-0.2,0c-0.1,0-0.2,0-0.4,0h-1V68.1z M66,70.2
		c-0.1,0.1-0.3,0.1-0.5,0.1h-1.2v-0.8h1.2c0.3,0,0.4,0,0.5,0.1c0.1,0.1,0.2,0.2,0.2,0.3C66.1,70,66.1,70.1,66,70.2z"/>
	<path class="st1" d="M69.9,67.4c0,0,0.1,0,0.1,0c0,0,0.1,0,0.1,0.1c0,0,0,0-0.1,0.1c0,0.1-0.1,0.1-0.1,0.2
		c-0.1,0.1-0.1,0.2-0.2,0.3c-0.1,0.1-0.1,0.2-0.2,0.3c-0.1,0.1-0.1,0.2-0.2,0.2c0,0.1-0.1,0.1-0.1,0.1c-0.1-0.1-0.1-0.2-0.2-0.3
		c-0.1-0.1-0.2-0.2-0.3-0.4c-0.1-0.1-0.2-0.2-0.2-0.3c-0.1-0.1-0.1-0.1-0.1-0.2c0,0,0-0.1,0.1-0.1c0,0,0.1,0,0.1,0v-0.1h-1.5v0.1
		c0,0,0.1,0,0.1,0c0,0,0.1,0.1,0.1,0.2l1.3,1.9v1.2c0,0,0,0.1,0,0.1c0,0-0.1,0-0.2,0V71h1.4v-0.1c-0.1,0-0.1,0-0.2,0c0,0,0,0,0-0.1
		v-1.4l1.3-1.9c0,0,0-0.1,0.1-0.1c0,0,0.1,0,0.1,0v-0.1L69.9,67.4L69.9,67.4z"/>
	<path class="st1" d="M55.2,72.9C55.1,72.9,55.1,72.9,55.2,72.9l-1.4,0v0c0,0,0.1,0,0.1,0c0,0,0,0,0,0v1.3c0,0,0,0,0,0
		c0,0,0,0-0.1,0v0h1.4c0,0,0,0,0,0c0,0,0,0,0,0h0V74h0c0,0,0,0.1,0,0.1c0,0,0,0,0,0h-0.9v-0.3h0.5c0,0,0,0,0.1,0c0,0,0,0,0,0h0v-0.4
		h0c0,0,0,0,0,0c0,0,0,0-0.1,0h-0.5v-0.2h0.9c0,0,0,0,0,0c0,0,0,0,0,0.1h0L55.2,72.9L55.2,72.9C55.2,72.9,55.2,72.9,55.2,72.9z"/>
	<path class="st1" d="M56.9,73.6c-0.1,0-0.1-0.1-0.2-0.1c-0.1,0-0.1,0-0.2,0c-0.1,0-0.1,0-0.2,0c-0.1,0-0.1,0-0.2,0s-0.1,0-0.1,0
		s-0.1,0-0.1-0.1c0,0,0-0.1,0.1-0.1c0,0,0.1,0,0.3,0c0.1,0,0.1,0,0.2,0c0.1,0,0.1,0,0.2,0c0.1,0,0.1,0,0.1,0c0,0,0.1,0,0.1,0.1v0
		l0,0l0.2-0.4l0,0c0,0,0,0,0,0c0,0,0,0,0,0c0,0,0,0-0.1,0c0,0-0.1,0-0.2,0c-0.1,0-0.1,0-0.2,0c-0.1,0-0.2,0-0.3,0
		c-0.1,0-0.2,0-0.3,0c-0.1,0-0.2,0.1-0.2,0.1c-0.1,0-0.1,0.1-0.1,0.1c0,0.1,0,0.1,0,0.2c0,0.1,0,0.2,0.1,0.2
		c0.1,0.1,0.1,0.1,0.2,0.1c0.1,0,0.2,0,0.3,0.1s0.2,0,0.3,0c0.1,0,0.2,0,0.2,0c0.1,0,0.1,0,0.1,0.1c0,0.1,0,0.1-0.1,0.1
		c-0.1,0-0.2,0-0.3,0c-0.1,0-0.1,0-0.2,0C56,74,56,74,55.9,74c-0.1,0-0.1,0-0.1-0.1c0,0-0.1,0-0.1-0.1c0,0,0,0,0-0.1l0,0l-0.2,0.5
		l0,0c0,0,0,0,0,0c0,0,0,0,0,0c0,0,0,0,0.1,0c0,0,0.1,0,0.1,0c0.1,0,0.1,0,0.2,0c0.1,0,0.2,0,0.3,0c0.2,0,0.3,0,0.4,0
		c0.1,0,0.2-0.1,0.2-0.1c0.1,0,0.1-0.1,0.1-0.2c0-0.1,0-0.1,0-0.2c0-0.1,0-0.1-0.1-0.2C57,73.6,57,73.6,56.9,73.6z"/>
	<path class="st1" d="M58.8,72.9C58.8,72.9,58.8,72.9,58.8,72.9l-1.4,0c0,0,0,0,0,0c0,0,0,0,0-0.1h0v0.5h0c0,0,0-0.1,0-0.1
		c0,0,0,0,0,0h0.5v1c0,0,0,0,0,0c0,0,0,0-0.1,0v0h0.6v0c0,0-0.1,0-0.1,0c0,0,0,0,0,0v-1h0.5c0,0,0,0,0,0c0,0,0,0,0,0.1h0L58.8,72.9
		L58.8,72.9C58.8,72.9,58.8,72.9,58.8,72.9z"/>
	<path class="st1" d="M59.4,74c-0.1,0-0.1,0-0.2,0.1c0,0-0.1,0.1-0.1,0.2c0,0.1,0,0.1,0.1,0.2c0,0,0.1,0.1,0.2,0.1s0.1,0,0.2-0.1
		c0,0,0.1-0.1,0.1-0.2c0-0.1,0-0.1-0.1-0.2C59.5,74,59.4,74,59.4,74z"/>
	<path class="st1" d="M60.4,72.9C60.4,72.9,60.4,72.9,60.4,72.9C60.5,73,60.5,73,60.4,72.9l0.1,0.1c0,0,0,0,0,0c0,0,0,0-0.1,0
		c0,0,0,0-0.1,0c0,0,0,0,0,0c0,0,0,0,0,0c0,0,0,0,0,0h0v0.5h0c0,0,0,0,0,0c0,0,0,0,0,0c0,0,0,0,0.1,0c0,0,0.1,0,0.1,0v0.9
		c0,0,0,0,0,0c0,0,0,0,0,0v0H61v0c0,0,0,0,0,0c0,0,0,0,0,0V73c0,0,0,0,0,0c0,0,0,0,0.1,0v0L60.4,72.9L60.4,72.9z"/>
	<path class="st1" d="M62.6,73.6c0.1,0,0.1-0.1,0.2-0.1c0,0,0.1-0.1,0.1-0.2c0-0.1,0-0.2-0.1-0.2c0-0.1-0.1-0.1-0.2-0.1
		c-0.1,0-0.1,0-0.2-0.1c-0.1,0-0.1,0-0.2,0c-0.1,0-0.1,0-0.2,0c-0.1,0-0.1,0-0.2,0.1c-0.1,0-0.1,0.1-0.2,0.1s-0.1,0.1-0.1,0.2
		c0,0.1,0,0.1,0.1,0.2c0,0,0.1,0.1,0.1,0.1c0,0-0.1,0-0.1,0.1c0,0-0.1,0-0.1,0.1c0,0,0,0.1-0.1,0.1c0,0,0,0.1,0,0.1
		c0,0.1,0,0.2,0.1,0.2c0,0.1,0.1,0.1,0.2,0.1c0.1,0,0.2,0.1,0.2,0.1s0.2,0,0.2,0c0.1,0,0.1,0,0.2,0c0.1,0,0.2,0,0.2-0.1
		c0.1,0,0.1-0.1,0.2-0.1c0-0.1,0.1-0.1,0.1-0.2c0-0.1,0-0.2-0.1-0.2C62.8,73.7,62.7,73.6,62.6,73.6z M61.9,73.2
		C62,73.2,62,73.2,61.9,73.2c0.1-0.1,0.1-0.1,0.2-0.1s0.1,0,0.1,0c0,0,0.1,0,0.1,0c0,0,0.1,0,0.1,0c0,0,0,0,0.1,0c0,0,0,0,0,0.1
		c0,0,0,0.1,0,0.1c0,0,0,0-0.1,0c0,0-0.1,0-0.1,0c0,0-0.1,0-0.1,0c0,0-0.1,0-0.1,0s-0.1,0-0.1,0c0,0,0,0-0.1,0
		C61.9,73.4,61.9,73.3,61.9,73.2C61.9,73.3,61.9,73.3,61.9,73.2z M62.5,74C62.5,74.1,62.4,74.1,62.5,74c-0.1,0.1-0.2,0.1-0.2,0.1
		c0,0-0.1,0-0.1,0c0,0-0.1,0-0.1,0c0,0-0.1,0-0.1,0c0,0-0.1,0-0.1-0.1c0,0,0-0.1,0-0.1c0,0,0-0.1,0-0.1c0,0,0.1,0,0.1-0.1
		c0,0,0.1,0,0.1,0s0.1,0,0.1,0c0,0,0.1,0,0.1,0c0,0,0.1,0,0.1,0c0,0,0.1,0,0.1,0.1C62.5,73.9,62.5,73.9,62.5,74
		C62.5,74,62.5,74,62.5,74z"/>
	<path class="st1" d="M64.6,72.9C64.6,72.9,64.5,72.9,64.6,72.9l-1.3,0c0,0,0,0,0,0c0,0,0,0,0-0.1h0v0.5h0c0,0,0,0,0-0.1
		c0,0,0,0,0,0h0.9l-0.6,1c0,0,0,0,0,0c0,0,0,0-0.1,0v0h0.6v0c0,0,0,0,0,0c0,0,0,0,0,0c0,0,0,0,0,0c0,0,0,0,0-0.1l0.5-1L64.6,72.9
		L64.6,72.9C64.6,72.9,64.6,72.9,64.6,72.9z"/>
	<path class="st1" d="M66.3,73.8C66.3,73.8,66.3,73.8,66.3,73.8l-0.2,0V73c0,0,0,0,0,0c0,0,0,0,0,0v0h-0.7v0c0,0,0,0,0,0
		c0,0,0,0,0,0c0,0,0,0,0,0.1c0,0-0.1,0.1-0.1,0.1c0,0-0.1,0.1-0.1,0.2c0,0.1-0.1,0.1-0.2,0.2c-0.1,0.1-0.1,0.1-0.2,0.2
		c0,0.1-0.1,0.1-0.1,0.2v0.3h0c0,0,0,0,0-0.1c0,0,0,0,0,0h0.8v0.2c0,0,0,0,0,0c0,0,0,0,0,0v0h0.5v0c0,0,0,0,0,0c0,0,0,0,0,0v-0.2
		h0.2c0,0,0,0,0,0c0,0,0,0,0,0.1h0L66.3,73.8L66.3,73.8C66.3,73.8,66.3,73.8,66.3,73.8z M65.7,73.8h-0.5l0.5-0.7h0V73.8z"/>
</g>
</svg>
