<?xml version="1.0" encoding="utf-8"?>
<!-- Generator: Adobe Illustrator 25.3.0, SVG Export Plug-In . SVG Version: 6.00 Build 0)  -->
<svg version="1.1" id="Layer_1" xmlns="http://www.w3.org/2000/svg" xmlns:xlink="http://www.w3.org/1999/xlink" x="0px" y="0px"
	 viewBox="0 0 750.2000122 400.1000061" style="enable-background:new 0 0 750.2000122 400.1000061;" xml:space="preserve">
<g>
	<path d="M299.9000244,353.3000183l-0.2000122-81.2999878l0.1000366-109.1000366
		c-1.2990112-1.0554199-3.196167-2.7838135-5.3671875-5.2778931l-0.2389526,53.8186035l-0.6308594,142.0862427
		C297.5935669,353.3855286,299.9000244,353.3000183,299.9000244,353.3000183z"/>
	<path d="M110.8839722,353.7377625l-0.631897-142.2970581l-0.2355957-53.0695801
		c-2.4790649,2.7261963-4.5725098,4.4138794-5.8164673,5.2288818l0.0999756,189.7000122c0.1000366,0,0.2000122,0,0.3000488,0
		v0.0999756C104.6000366,353.3999939,106.8927002,353.532196,110.8839722,353.7377625z"/>
	<path d="M452.0632935,211.4407043l-0.4641113-52.2593384c-1.5828247,1.6446533-2.963562,2.8341064-3.9991455,3.6186523
		l0.0999756,190.2999878c0,0,0.1000366,0,0.2000122,0v0.1000366c0.1000366,0,0.2999878,0.0999756,0.6000366,0.0999756
		c0,0,1.7266235,0.8809814,4.8434448,2.3060303L452.0632935,211.4407043z"/>
	<path d="M643.2000122,163.3000183c-0.9007568-0.559082-2.2462158-1.5831299-3.857666-3.1342163l-0.4553833,51.2749023
		l-1.2792358,144.0484619c3.5809326-1.5327148,5.5923462-2.4891357,5.5923462-2.4891357l0.0999756-81.2999878h-0.2000122
		L643.2000122,163.3000183z"/>
</g>
</svg>
