<?xml version="1.0" encoding="utf-8"?>
<!-- Generator: Adobe Illustrator 25.3.0, SVG Export Plug-In . SVG Version: 6.00 Build 0)  -->
<svg version="1.1" id="Layer_1" xmlns="http://www.w3.org/2000/svg" xmlns:xlink="http://www.w3.org/1999/xlink" x="0px" y="0px"
	 viewBox="0 0 750.2 400.1" style="enable-background:new 0 0 750.2 400.1;" xml:space="preserve">
<g>
	<path d="M203.5,113.9H202h-0.3c-8.2,0-15.6-2.6-22.1-7.5h-50c-1.2,13.5-4.1,25-8.7,35.1c-2.1,4.5-4.3,8.2-6.4,11.3h176.2
		c-2.2-3.1-4.4-6.9-6.5-11.5c-4.6-9.9-7.4-21.4-8.6-34.9h-50C219.1,111.3,211.7,113.8,203.5,113.9z"/>
	<polygon points="299.7,239.4 104.2,239.4 104.3,285.7 299.7,285.7 299.7,272 	"/>
	<polygon points="447.6,239.4 447.7,285.7 643.3,285.7 643.3,271.7 643.1,271.7 643.1,239.4 	"/>
</g>
</svg>
