<?xml version="1.0" encoding="utf-8"?>
<!-- Generator: Adobe Illustrator 25.3.0, SVG Export Plug-In . SVG Version: 6.00 Build 0)  -->
<svg version="1.1" id="Layer_1" xmlns="http://www.w3.org/2000/svg" xmlns:xlink="http://www.w3.org/1999/xlink" x="0px" y="0px"
	 viewBox="0 0 750.2000122 400.1000061" style="enable-background:new 0 0 750.2000122 400.1000061;" xml:space="preserve">
<g>
	<polygon points="104.2155151,193.0184021 132.8638916,207.8866882 132.8638916,183.322052 104.2025757,168.4178772 	"/>
	<polygon points="132.8638916,226.5219421 104.2253418,211.6729431 104.2382812,236.2541199 132.8638916,251.0866394 	"/>
	<polygon points="132.8638916,284.6512756 132.8638916,270.5689392 104.2485962,255.7419739 104.2615356,280.3038025 
		132.8638916,295.1335754 	"/>
	<path d="M132.8638916,337.5393982v-23.7705688l-28.5925293-14.8394775l0.0128784,24.5273438l27.0039062,14.03125
		C131.8154297,337.5050964,132.3296509,337.5221863,132.8638916,337.5393982z"/>
	<polygon points="272.7444458,207.8866882 299.7715454,193.9560242 299.7941284,169.3548889 272.7444458,183.322052 	"/>
	<polygon points="272.7444458,251.0866394 299.7319336,237.1961365 299.7544556,212.6118469 272.7444458,226.5219421 	"/>
	<polygon points="299.7000122,272.0000305 299.7140503,256.6878357 272.7444458,270.5689392 272.7444458,284.6512756 
		272.7444458,295.1335754 299.7227173,281.2402039 	"/>
	<path d="M272.7444458,313.7688293v23.7705688c0.5341797-0.0172119,1.0484619-0.0343018,1.5756836-0.0514526l25.508606-13.1619263
		l-0.0602417-24.4864502L272.7444458,313.7688293z"/>
	<polygon points="447.6154785,192.2062683 477.6160889,208.8867493 477.6160889,184.322113 447.6026001,167.662384 	"/>
	<polygon points="477.6160889,227.5220032 447.6252441,210.8335876 447.6381836,235.3964539 477.6160889,252.0867004 	"/>
	<polygon points="477.6160889,285.6513367 477.6160889,271.5690002 447.6484375,254.8841858 447.6613159,279.4648743 
		477.6160889,296.1336365 	"/>
	<path d="M477.6160889,338.5394592v-23.7705688l-29.9449463-16.649353l0.0129395,24.6178589l28.3563232,15.7506104
		C476.567627,338.5051575,477.0819092,338.5222473,477.6160889,338.5394592z"/>
	<polygon points="614.7160645,208.8867493 643.1723022,193.3535461 643.1949463,168.7850037 614.7160645,184.322113 	"/>
	<polygon points="614.7160645,252.0867004 643.1324463,236.568634 643.1550903,211.9941711 614.7160645,227.5220032 	"/>
	<polygon points="643.3000488,271.7000427 643.1000366,271.7000427 643.1144409,256.0606995 614.7160645,271.5690002 
		614.7160645,285.6513367 614.7160645,296.1336365 643.2891846,280.5325012 	"/>
	<path d="M643.2360229,323.7848816l0.0302124-24.6004639l-28.5501709,15.5844727v23.7705688
		c0.5342407-0.0172119,1.0484619-0.0343018,1.5757446-0.0514526L643.2360229,323.7848816z"/>
</g>
</svg>
