<?xml version="1.0" encoding="utf-8"?>
<!-- Generator: Adobe Illustrator 25.3.0, SVG Export Plug-In . SVG Version: 6.00 Build 0)  -->
<svg version="1.1" id="Layer_1" xmlns="http://www.w3.org/2000/svg" xmlns:xlink="http://www.w3.org/1999/xlink" x="0px" y="0px"
	 viewBox="0 0 750.2000122 400.1000061" style="enable-background:new 0 0 750.2000122 400.1000061;" xml:space="preserve">
<g>
	<path d="M203.500061,113.8999939H202h-0.2999878c-5.5684204,0-10.7850952-1.1934204-15.597229-3.487793h-56.9064331
		c-1.3691406,11.8244629-4.1205444,22.0698853-8.2963257,31.0878296c-1.2174683,2.6282349-2.4797363,4.9886475-3.7449951,7.1105957
		h170.7961426c-1.3035278-2.1769409-2.6037598-4.5969849-3.8511353-7.3106079
		c-4.1129761-8.9335938-6.854187-19.1220093-8.2376099-30.8878174h-56.8757324
		C214.2133179,112.6745911,209.0352173,113.8647766,203.500061,113.8999939z"/>
	<polygon points="104.2080078,178.7435608 104.2281494,216.9420471 299.7504883,216.9420471 299.7855225,178.7435608 	"/>
	<path d="M250.7000122,48.6000061c0,0.4000244-0.1999512,0.7999878-0.3999634,1.2999878
		c-0.2483521,7.7828979-2.4229126,19.6074219-6.680603,30.5414429h31.4527588
		c0.3446045-7.1182861,1.020813-14.6853638,2.027832-22.7414551l0.2000122-1.2999878l-25.7000122-7.7000122
		C251.1000366,48.6000061,250.7000122,48.6000061,250.7000122,48.6000061z"/>
	<path d="M154.6000366,49.6000061c-0.3000488-0.5999756-0.4000244-0.9000244-0.4000244-0.9000244l-26.4000244,8.1000366
		l0.1000366,1.0999756c0.9981689,7.9852905,1.6751099,15.4841919,2.0288086,22.5414429h31.4549561
		C156.440918,68.0037537,154.7684937,55.7497864,154.6000366,49.6000061z"/>
	<polygon points="299.723938,245.9084167 104.2434082,245.9084167 104.2635498,284.1069031 299.7297974,284.1069031 
		299.7000122,272.0000305 	"/>
	<polygon points="299.8930054,350.4380798 299.7990112,312.2396545 104.2783203,312.2396545 104.2984619,350.4380798 	"/>
</g>
</svg>
