<?xml version="1.0" encoding="utf-8"?>
<!-- Generator: Adobe Illustrator 25.3.0, SVG Export Plug-In . SVG Version: 6.00 Build 0)  -->
<svg version="1.1" id="Layer_1" xmlns="http://www.w3.org/2000/svg" xmlns:xlink="http://www.w3.org/1999/xlink" x="0px" y="0px"
	 viewBox="0 0 750.2 400.1" style="enable-background:new 0 0 750.2 400.1;" xml:space="preserve">
<g>
	<path d="M154.6,49.6c-0.3-0.6-0.4-0.9-0.4-0.9l-26.4,8.1l0.1,1.1c0.6,4.9,1.1,9.6,1.5,14.2l27.8-5.1
		C155.4,59.8,154.7,53.5,154.6,49.6z"/>
	<path d="M275.6,72.6c0.4-4.8,0.9-9.7,1.5-14.9l0.2-1.3l-25.7-7.7c-0.5-0.1-0.9-0.1-0.9-0.1c0,0.4-0.2,0.8-0.4,1.3
		c-0.2,4.7-1,11-2.6,17.6L275.6,72.6z"/>
</g>
</svg>
