<?xml version="1.0" encoding="utf-8"?>
<!-- Generator: Adobe Illustrator 25.3.0, SVG Export Plug-In . SVG Version: 6.00 Build 0)  -->
<svg version="1.1" id="Layer_1" xmlns="http://www.w3.org/2000/svg" xmlns:xlink="http://www.w3.org/1999/xlink" x="0px" y="0px"
	 viewBox="0 0 750.2 400.1" style="enable-background:new 0 0 750.2 400.1;" xml:space="preserve">
<style type="text/css">
	.st0{fill:none;}
</style>
<g>
	<path class="st0" d="M167.9,171.4c0.2,0.6,0.7,0.3,1.4-0.2c-0.5,0-0.9,0-1.4,0C167.9,171.2,167.9,171.3,167.9,171.4z"/>
	<path class="st0" d="M154.3,178c-0.1-0.3-0.7-0.4-1.1-0.5c0.2,0.2,0.2,0.5,0,0.7c-0.1,0.1-0.3,0.3-0.6,0.4
		C153.7,178.5,154.5,178.3,154.3,178z"/>
	<path class="st0" d="M148,199c0.2,0.6,0.7,0.3,1.4-0.2c-0.5,0-0.9,0-1.4,0C148,198.8,148,198.9,148,199z"/>
	<path class="st0" d="M261.3,198c0.2,0.7,0.9,0.2,1.8-0.6c-0.4,0-1,0.1-1.8,0.1C261.3,197.7,261.3,197.9,261.3,198z"/>
	<path class="st0" d="M163,176.3c0.3-0.4-1.1-0.2-2.3,0.1c0.4,0,1,0.1,1.6,0.2C162.6,176.6,162.8,176.5,163,176.3z"/>
	<path class="st0" d="M152.8,195.9c-0.2,0.1-0.4,0.3-0.6,0.5c0.7-0.1,1.4-0.2,1.9-0.3C153.7,196,153.3,196,152.8,195.9z"/>
	<path d="M142.9,225.5c-1.3-0.3-2.8-0.3-4.4-0.2v1.4C139.9,225.5,142.9,225.5,142.9,225.5z"/>
	<path d="M248.9,222.4c3.4,1.3,14.4,0.4,14.4,0.4c-3.6-0.1-7.5-0.8-7.5-0.8c0.5-0.2,1.1-1.3,1.1-1.3c-2.7,1.6-4.6,0.6-4.6,0.6
		c0.8-2.2,3.6-3,3.6-3c-2.5,0-4.4,2.1-4.4,2.1c1.1-1.9,2.8-2.9,2.8-2.9c-2.1,0.6-4.8,4.9-5.3,3.3c-0.5-1.6,2.1-3.2,2.1-3.2
		c-2,0.8-3.2,1.9-3.2,1.9c0.2-1.2,1-2.4,1-2.4S245.5,221.2,248.9,222.4z"/>
	<path d="M266.1,215.6L266.1,215.6c-0.6,0-1.1,0.1-1.1,0.1C265.3,215.7,265.7,215.6,266.1,215.6z"/>
	<path d="M250.7,214.9c3.7,0.3,8.7-1,8.7-1c-2.2,1-5.1,1.6-5.1,1.6s1.1,0,6.2-0.8c1.8-0.3,3.8-0.8,5.6-1.1v-2.8
		c-1.4-0.1-3.1-0.1-5.1-0.1c-8.7,0.1-22.7,0.3-22.7,0.3c9.4,0.4,18.8,0.1,17.8,1.9C255.1,214.7,250.7,214.9,250.7,214.9z"/>
	<path d="M266.1,224.6v-0.5c-1.9,0-3.7,0-5.1,0.3C261,224.4,264.2,224.3,266.1,224.6z"/>
	<path d="M217.4,220.5l0.2,0.1c0,0,2.6,0.3,5.2-0.6c0,0-0.5,0.6-1.1,0.9c0.9-0.3,3.4-1.2,5.4-1.3c0,0-2.7-0.8-5.8-0.8
		c-3.1-0.1-6.9-0.3-9.2,0.2C212,218.9,221.6,218.7,217.4,220.5z"/>
	<path d="M221.6,220.8c-0.2,0.1-0.4,0.1-0.4,0.1C221.4,220.9,221.5,220.9,221.6,220.8z"/>
	<path d="M200.8,220.9c3.4,1.3,14.4,0.4,14.4,0.4c-3.6-0.1-7.5-0.8-7.5-0.8c0.5-0.2,1.1-1.3,1.1-1.3c-2.7,1.6-4.6,0.6-4.6,0.6
		c0.8-2.2,3.6-3,3.6-3c-2.5,0-4.4,2.1-4.4,2.1c1.1-1.9,2.8-2.9,2.8-2.9c-2.1,0.6-4.8,4.9-5.3,3.3c-0.5-1.6,2.1-3.2,2.1-3.2
		c-2,0.8-3.2,1.9-3.2,1.9c0.2-1.2,1-2.4,1-2.4S197.4,219.6,200.8,220.9z"/>
	<path d="M148.5,226.9c0,0-0.1,0.1-0.2,0.2h0C148.4,227,148.5,226.9,148.5,226.9z"/>
	<path d="M263.1,227.1c0.5-0.4,0.9-0.7,0.9-0.7c-0.6,0.2-1,0.5-1.5,0.7H263.1z"/>
	<path d="M266.1,227v-0.2c-0.1,0.1-0.3,0.2-0.4,0.3L266.1,227C266,227,266,227,266.1,227z"/>
	<path d="M261.2,227.1c0.3-0.6,0.6-1.1,0.6-1.1s-0.4,0.5-0.8,1.1H261.2z"/>
	<path d="M143.1,215c-0.1,0-0.3,0.1-0.4,0.2c0.1,0,0.1,0,0.2,0C143,215.1,143.1,215,143.1,215z"/>
	<path d="M140,215.2c-0.6,0.2-1.1,0.5-1.6,0.8v0.6C139.1,215.7,140,215.2,140,215.2z"/>
	<path d="M152.1,220.2c-3.6-0.1-7.5-0.8-7.5-0.8c0.5-0.2,1.1-1.3,1.1-1.3c-2.7,1.6-4.6,0.6-4.6,0.6c0.8-2.2,3.6-3,3.6-3
		c-2.5,0-4.4,2.1-4.4,2.1c0.8-1.4,2-2.3,2.5-2.7c-0.1,0-0.1,0-0.2,0c-1.5,0.8-3.3,3.1-4.2,3.4v1.3
		C142.5,220.9,152.1,220.2,152.1,220.2z"/>
	<path d="M201.7,214.9c3.7,0.3,8.7-1,8.7-1c-2.2,1-5.1,1.6-5.1,1.6s1.1,0,6.2-0.8c5-0.8,11.3-2.8,10.5-1.3c-0.8,1.6-6,2.3-6,2.3
		c4.8-0.3,9.5-2.3,9.5-2.3c-1.3,1.4-2.7,1.9-3.6,2.1c3.3-0.4,4.8-2.1,4.8-2.1c0.7-0.3,1.9-0.3,3.1-0.4c0.4-0.1,0.8-0.1,1.3-0.2
		c-4.1-0.4-9.3-0.6-9.3-0.6c1.1-0.6,5.5-0.3,5.5-0.3c-4-0.3-6.5-1.3-15.3-1.1c-8.7,0.1-22.7,0.3-22.7,0.3c9.4,0.4,18.8,0.1,17.8,1.9
		C206.1,214.7,201.7,214.9,201.7,214.9z"/>
	<path d="M221.9,215.5c-0.3,0-0.6,0.1-0.9,0.1C220.9,215.6,221.3,215.6,221.9,215.5z"/>
	<path d="M234.5,218.5c0,0-4.3,0.5-2.8,2.1c1.5,1.6,6.7-0.3,10.2,0.8c3.5,1,4.8-0.2,4.8-0.2c-0.3-0.4-2.6-0.4-4.3-0.3
		c-1.8,0.1-3.9-0.1-3.7-0.7c0.2-0.6,1.5-0.6,1.5-0.6c-4.9,0.1-5.9,1-5.9,1c0.3-0.7,1.4-1.2,1.4-1.2c-2.1,0.6-3.3,1.3-3.1,0.5
		C232.9,218.9,234.5,218.5,234.5,218.5z"/>
	<path d="M241.4,226.5c0.6-1.9,5.1-1.9,5.1-1.9c-3.3-0.7-8.2,0-12,1.2c-2.3,0.7-5.4,1.1-7.4,1.3h14.4
		C241.4,226.9,241.4,226.7,241.4,226.5z"/>
	<path d="M259.4,226.6c0,0-1.3,0.1-3.2,0.5h1.4C258.5,226.8,259.4,226.6,259.4,226.6z"/>
	<path d="M232.4,224c-6.4,0.6-10,2.9-9.8,2.3c0.2-0.6,1.1-1,1.1-1s-3.4,0.5-3.2,1.8h4.5C226,225.3,232.4,224,232.4,224z"/>
	<path d="M187.9,223c4.8-1.3-0.2-5-0.2-5s1.1,1.2,1.4,2.4c0,0-1.6-1.2-4.4-1.9c0,0,3.7,1.6,3,3.2c-0.7,1.6-4.5-2.8-7.4-3.3
		c0,0,2.4,1,4,2.9c0,0-2.7-2.1-6.1-2.1c0,0,4,0.8,5.1,3c0,0-2.7,1-6.5-0.6c0,0,0.9,1,1.6,1.3c0,0-5.5,0.6-10.6,0.8
		C167.6,223.5,183.2,224.3,187.9,223z"/>
	<path d="M159.5,217.8c-0.3,0-0.6,0-0.9-0.1C159.2,217.8,159.5,217.8,159.5,217.8z"/>
	<path d="M151.4,215.5c0,0,2.3,1.8,7.2,2.2c-1.2-0.1-3.5-0.6-5.5-2.1c0,0,6.6,1.9,13.3,2.3c0,0-7.3-0.7-8.5-2.3
		c-1.2-1.6,7.7,0.4,14.8,1.3c7.1,0.8,8.7,0.8,8.7,0.8s-4.2-0.6-7.2-1.6c0,0,7.1,1.4,12.3,1c0,0-6.1-0.3-7.5-2.1
		c-1.4-1.8,11.8-1.5,25-1.9c0,0-19.7-0.1-32-0.3c-12.3-0.1-15.9,0.8-21.5,1.1c0,0,6.1-0.2,7.7,0.3c0,0-9.6,0.3-15.4,0.8
		c-0.1,0-0.1,0-0.2,0c-0.3,0-0.5,0-0.8,0.1c0,0,0.3,0,0.7,0c0.1,0,0.1,0,0.2,0C144.8,215.1,149.5,215,151.4,215.5z"/>
	<path d="M138.4,223.4c2.6,0.1,4.9,0.2,5.9-0.6c2.1-1.6-4-2.1-4-2.1s2.4,0.4,2.6,1.3c0.3,0.8-1.4,0.1-4.4-0.5c0,0,1.6,0.5,2,1.2
		c0,0-0.5-0.3-2.2-0.6V223.4z"/>
	<path d="M149.7,210.2c-2.5-0.1-5.7-0.1-6.1,0.3c0,0,1.8,1.3,6.8,0.2c5-1,12.3,0.8,14.4-0.8c2.1-1.6-4-2.1-4-2.1s2.4,0.4,2.6,1.3
		c0.3,0.8-1.4,0.1-4.4-0.5c0,0,1.6,0.5,2,1.2c0,0-1.4-0.9-8.3-1c0,0,1.8,0.1,2.1,0.6C155.1,210.1,152.1,210.3,149.7,210.2z"/>
	<path d="M195.5,224.9c-2.5-0.1-5.7-0.1-6.1,0.3c0,0,1.8,1.3,6.8,0.2c5-1,12.3,0.8,14.4-0.8c2.1-1.6-4-2.1-4-2.1s2.4,0.4,2.6,1.3
		c0.3,0.8-1.4,0.1-4.4-0.5c0,0,1.6,0.5,2,1.2c0,0-1.4-0.9-8.3-1c0,0,1.8,0.1,2.1,0.6S198,224.9,195.5,224.9z"/>
	<path d="M159.2,226.4c-3.1,0-5.9,0.5-7.3,0.7h11.7c1.9-0.6,8.6-0.5,8.6-0.5C168.9,226.1,163.6,226.3,159.2,226.4z"/>
	<path d="M235.7,214.6c0.2,0.1,0.3,0.1,0.5,0.1C236.1,214.7,236,214.7,235.7,214.6z"/>
	<path d="M228.1,213.3c2.7,0.1,6.3,1,7.6,1.3c-0.9-0.3-1.5-0.9-1.5-0.9c3.7,0.9,7.4,0.6,7.4,0.6l0.2-0.1c-5.9-1.8,7.5-1.6,7.5-1.6
		c-3.3-0.5-8.6-0.3-13-0.2c-1.9,0-3.7,0.2-5.1,0.4c-0.5,0.1-0.9,0.1-1.3,0.2C228.8,213.1,228.1,213.3,228.1,213.3z"/>
	<path d="M152.2,196.4c-0.6,0.5-1.2,1.2-1.7,2.1c0,0,0.4-0.4,1.1-0.9c-0.1-0.1-0.1-0.1-0.1-0.2c0.2-0.4,1.9-0.9,3-1.2
		c-0.1,0-0.2,0-0.4-0.1C153.6,196.2,152.9,196.3,152.2,196.4z"/>
	<path d="M148,198.7c0.5,0,0.9,0,1.4,0c0.7-0.6,1.5-1.5,2.4-2.2c-1,0.2-2.1,0.5-3.3,0.9c0,0-0.1,0-0.1,0
		C148.1,197.8,147.9,198.2,148,198.7z"/>
	<path d="M142.4,193.9c-1.2-0.3-2.5-0.3-3.9-0.3v1.1C140,194,142.4,193.9,142.4,193.9z"/>
	<path d="M151.5,198.7c4.7,0,8.3-0.4,8.3-0.4c-2.3,0.1-5.9-0.1-7.6-0.5C152,198.1,151.7,198.4,151.5,198.7z"/>
	<path d="M146.5,197.8c-2.8,0.3-6.3,0.1-8.1-0.6v1.1c2.7,0.1,5.4,0.2,7.9,0.4C146.3,198.4,146.4,198.1,146.5,197.8z"/>
	<path d="M138.4,204.2v0.2c0.8-0.1,1.6-0.3,2.3-0.4c1.2-0.3,2.7-0.6,2.4-0.1c-0.3,0.4-1.8,0.5-1.8,0.5s3.6,0,3.5-0.8
		c-0.1-0.8-1.2-1-5.1-0.6c-0.4,0-0.8,0.1-1.2,0.1v0.9c0.8-0.1,1.4-0.2,1.4-0.2C139.6,203.9,139,204.1,138.4,204.2z"/>
	<path d="M248.4,190.9c3.4,1.3,14.4,0.4,14.4,0.4c-3.6-0.1-7.5-0.8-7.5-0.8c0.5-0.2,1.1-1.3,1.1-1.3c-2.7,1.6-4.6,0.6-4.6,0.6
		c0.8-2.2,3.6-3,3.6-3c-2.5,0-4.4,2.1-4.4,2.1c1.1-1.9,2.8-2.9,2.8-2.9c-2.1,0.6-4.8,4.9-5.3,3.3c-0.5-1.6,2.1-3.2,2.1-3.2
		c-2,0.8-3.2,1.9-3.2,1.9c0.2-1.2,1-2.4,1-2.4S245,189.7,248.4,190.9z"/>
	<path d="M253.9,180.2c1.3,0.2,2,0.6,1.6,1.1c-1,1.8-5.3,2.1-5.3,2.1c3.7,0.3,8.7-1,8.7-1c-2.2,1-5.1,1.6-5.1,1.6s1.1,0,6.2-0.8
		c2-0.3,4.2-0.8,6.1-1.2V180c-1.4,0-2.8,0.1-4,0.1C259.2,180.2,256.4,180.2,253.9,180.2z"/>
	<path d="M237.8,179.4c3.7,0.2,7.5,0.2,10.5,0.3c2.8-0.1,5.7-0.3,7-0.5C247.2,179.3,237.8,179.4,237.8,179.4z"/>
	<path d="M266.1,179.4v-0.2c-1.1-0.1-2.4-0.1-3.9-0.1C263.3,179.3,264.7,179.4,266.1,179.4z"/>
	<path d="M266.1,184v-0.1c-0.9,0.2-1.6,0.3-1.6,0.3C265,184.1,265.5,184.1,266.1,184z"/>
	<path d="M197.9,209.5c-0.3,0-0.6,0.1-0.9,0.1C196.9,209.6,197.3,209.6,197.9,209.5z"/>
	<path d="M187.5,208.7c5-0.8,11.3-2.8,10.5-1.3c-0.8,1.6-6,2.3-6,2.3c4.8-0.3,9.5-2.3,9.5-2.3c-1.3,1.4-2.7,1.9-3.6,2.1
		c3.3-0.4,4.8-2.1,4.8-2.1c1.7-0.6,6.7-0.3,6.7-0.3c-4-0.6-11.6-0.9-11.6-0.9c1.1-0.6,5.5-0.3,5.5-0.3c-4-0.3-6.5-1.3-15.3-1.1
		c-8.7,0.1-22.7,0.3-22.7,0.3c9.4,0.4,18.8,0.1,17.8,1.9c-1,1.8-5.3,2.1-5.3,2.1c3.7,0.3,8.7-1,8.7-1c-2.2,1-5.1,1.6-5.1,1.6
		S182.5,209.5,187.5,208.7z"/>
	<path d="M266.1,194.6v-0.2c-0.1,0-0.1,0.1-0.2,0.1L266.1,194.6C266,194.5,266,194.5,266.1,194.6z"/>
	<path d="M266.1,193.2v-0.6c-2.1,0-4.1,0-5.6,0.3C260.5,192.9,264.3,192.8,266.1,193.2z"/>
	<path d="M221.1,189.3c-0.2,0.1-0.4,0.1-0.4,0.1C220.9,189.4,221,189.4,221.1,189.3z"/>
	<path d="M216.9,188.9l0.2,0.1c0,0,2.6,0.3,5.2-0.6c0,0-0.5,0.6-1.1,0.9c0.9-0.3,3.4-1.2,5.4-1.3c0,0-2.7-0.8-5.8-0.8
		c-3.1-0.1-6.9-0.3-9.2,0.2C211.5,187.3,221.1,187.1,216.9,188.9z"/>
	<path d="M207.2,189c0.5-0.2,1.1-1.3,1.1-1.3c-2.7,1.6-4.6,0.6-4.6,0.6c0.8-2.2,3.6-3,3.6-3c-2.5,0-4.4,2.1-4.4,2.1
		c1.1-1.9,2.8-2.9,2.8-2.9c-2.1,0.6-4.8,4.9-5.3,3.3c-0.5-1.6,2.1-3.2,2.1-3.2c-2,0.8-3.2,1.9-3.2,1.9c0.2-1.2,1-2.4,1-2.4
		s-3.5,3.8-0.2,5s14.4,0.4,14.4,0.4C211.1,189.6,207.2,189,207.2,189z"/>
	<path d="M147.8,200.4c3.4,1.3,14.4,0.4,14.4,0.4c-3.6-0.1-7.5-0.8-7.5-0.8c0.5-0.2,1.1-1.3,1.1-1.3c-2.7,1.6-4.6,0.6-4.6,0.6
		c0.1-0.2,0.2-0.4,0.3-0.6c0.2-0.4,0.5-0.7,0.8-0.9c1.1-1,2.5-1.4,2.5-1.4c-1.3,0-2.5,0.6-3.3,1.2c-0.7,0.5-1.1,0.9-1.1,0.9
		c0.5-0.9,1.2-1.6,1.7-2.1c0.2-0.2,0.5-0.4,0.6-0.5c-0.1,0-0.1,0-0.2,0c-0.3,0.2-0.6,0.4-0.9,0.6c-0.9,0.7-1.7,1.6-2.4,2.2
		c-0.7,0.6-1.2,0.8-1.4,0.2c0-0.1,0-0.2,0-0.3c0-0.4,0.1-0.9,0.4-1.3c0.6-0.9,1.8-1.6,1.8-1.6c-2,0.8-3.2,1.9-3.2,1.9
		c0.2-1.2,1-2.4,1-2.4s-1.1,1.2-1.5,2.4c-0.1,0.3-0.1,0.6-0.1,0.8C146.4,199.3,146.8,200,147.8,200.4z"/>
	<path d="M263.1,197.4c-0.9,0.8-1.6,1.4-1.8,0.6c0-0.2-0.1-0.3,0-0.5c-0.5,0-1,0.1-1.6,0.1c0,0.7,0.4,1.4,1.5,1.8
		c1.1,0.4,2.9,0.6,4.9,0.7v-1.3c-0.9,0-1.5-0.3-1.5-0.3c0.3-0.8,0.9-1.5,1.5-1.9V196c-1.4,0.6-2.3,1.6-2.3,1.6
		c0.7-1.2,1.7-2,2.3-2.5v-0.1C265.1,195.4,264,196.5,263.1,197.4c0.2,0,0.3,0,0.4,0C263.5,197.4,263.4,197.4,263.1,197.4z"/>
	<path d="M263.5,194.8c-2,0.8-3.2,1.9-3.2,1.9c0.2-1.2,1-2.4,1-2.4s-1.4,1.5-1.6,2.9c0.5,0,1.1,0.1,1.6,0.1
		C261.6,196,263.5,194.8,263.5,194.8z"/>
	<path d="M138.4,186.8v1.7c4.3,0.8,13.2,0.1,13.2,0.1c-3.6-0.1-7.5-0.8-7.5-0.8c0.5-0.2,1.1-1.3,1.1-1.3c-2.7,1.6-4.6,0.6-4.6,0.6
		c0.8-2.2,3.6-3,3.6-3c-2.5,0-4.4,2.1-4.4,2.1c0.8-1.4,2-2.3,2.5-2.7c-0.1,0-0.1,0-0.2,0C140.9,184.3,139.4,186.1,138.4,186.8z"/>
	<path d="M142.6,183.5c-0.1,0-0.3,0.1-0.4,0.2c0.1,0,0.1,0,0.2,0C142.6,183.5,142.6,183.5,142.6,183.5z"/>
	<path d="M138.4,184.1v0.4c0.5-0.5,1.1-0.9,1.1-0.9C139.1,183.8,138.8,183.9,138.4,184.1z"/>
	<path d="M201.2,183.4c3.7,0.3,8.7-1,8.7-1c-2.2,1-5.1,1.6-5.1,1.6s1.1,0,6.2-0.8c5-0.8,11.3-2.8,10.5-1.3c-0.8,1.6-6,2.3-6,2.3
		c4.8-0.3,9.5-2.3,9.5-2.3c-1.3,1.4-2.7,1.9-3.6,2.1c3.3-0.4,4.8-2.1,4.8-2.1c0.7-0.3,1.9-0.3,3.1-0.4c0.4-0.1,0.8-0.1,1.3-0.2
		c-4.1-0.4-9.3-0.6-9.3-0.6c1.1-0.6,5.5-0.3,5.5-0.3c-4-0.3-6.5-1.3-15.3-1.1c-8.7,0.1-22.7,0.3-22.7,0.3c9.4,0.4,18.8,0.1,17.8,1.9
		S201.2,183.4,201.2,183.4z"/>
	<path d="M221.4,183.9c-0.3,0-0.6,0.1-0.9,0.1C220.4,184,220.8,184,221.4,183.9z"/>
	<path d="M234,187c0,0-4.3,0.5-2.8,2.1s6.7-0.3,10.2,0.8c3.5,1,4.8-0.2,4.8-0.2c-0.3-0.4-2.6-0.4-4.3-0.3c-1.8,0.1-3.9-0.1-3.7-0.7
		c0.2-0.6,1.5-0.6,1.5-0.6c-4.9,0.1-5.9,1-5.9,1c0.3-0.7,1.4-1.2,1.4-1.2c-2.1,0.6-3.3,1.3-3.1,0.5C232.4,187.4,234,187,234,187z"/>
	<path d="M227.7,204.2c-0.2,0.1-0.4,0.1-0.4,0.1C227.5,204.3,227.6,204.2,227.7,204.2z"/>
	<path d="M223.5,203.8l0.2,0.1c0,0,2.6,0.3,5.2-0.6c0,0-0.5,0.6-1.1,0.9c0.9-0.3,3.4-1.2,5.4-1.3c0,0-2.7-0.8-5.8-0.8
		c-1.9,0-4.1-0.1-6-0.1c0.1,0.1,0.1,0.2,0.1,0.4C223.7,202.4,225.9,202.8,223.5,203.8z"/>
	<path d="M232,197.4c3.5-0.5,12.6,0.1,19,0.4c3.2,0.1,6.3,0,8.7-0.1c0.6,0,1.1-0.1,1.6-0.1c0.8-0.1,1.5-0.1,1.8-0.1
		c0.3,0,0.4,0,0.4,0c-0.1,0-0.2,0-0.4,0c-0.6,0-1.2,0-1.8,0c-0.5,0-1.1,0-1.6-0.1c-2.5-0.1-4.8-0.4-4.6-0.9c0.3-0.6,3.8-1.4,3.8-1.4
		s-3,0.2-6.8,1.4c-3.7,1.2-11.8,0.4-11.2-1.5c0.6-1.9,5.1-1.9,5.1-1.9c-3.3-0.7-8.2,0-12,1.2s-9.7,1.5-9.7,1.5
		c0.7-1.9,7.5-3.2,7.5-3.2c-6.4,0.6-10,2.9-9.8,2.3c0.2-0.6,1.1-1,1.1-1s-3.9,0.6-3.1,2C220.8,197.3,228.5,197.8,232,197.4z"/>
	<path d="M187.4,191.5c4.8-1.3-0.2-5-0.2-5s1.1,1.2,1.4,2.4c0,0-1.6-1.2-4.4-1.9c0,0,3.7,1.6,3,3.2s-4.5-2.8-7.4-3.3
		c0,0,2.4,1,4,2.9c0,0-2.7-2.1-6.1-2.1c0,0,4,0.8,5.1,3c0,0-2.7,1-6.5-0.6c0,0,0.9,1,1.6,1.3c0,0-5.5,0.6-10.6,0.8
		C167.1,191.9,182.7,192.8,187.4,191.5z"/>
	<path d="M159,186.2c-0.3,0-0.6,0-0.9-0.1C158.7,186.2,159,186.2,159,186.2z"/>
	<path d="M172.4,185.3c7.1,0.8,8.7,0.8,8.7,0.8s-4.2-0.6-7.2-1.6c0,0,7.1,1.4,12.3,1c0,0-6.1-0.3-7.5-2.1c-1.4-1.8,11.8-1.5,25-1.9
		c0,0-19.7-0.1-32-0.3c-12.3-0.1-15.9,0.8-21.5,1.1c0,0,6.1-0.2,7.7,0.3c0,0-9.6,0.3-15.4,0.8c-0.1,0-0.1,0-0.2,0
		c-0.3,0-0.5,0-0.8,0.1c0,0,0.3,0,0.7,0c0.1,0,0.1,0,0.2,0c1.9-0.1,6.7-0.2,8.6,0.3c0,0,2.3,1.8,7.2,2.2c-1.2-0.1-3.5-0.6-5.5-2.1
		c0,0,6.6,1.9,13.3,2.3c0,0-7.3-0.7-8.5-2.3C156.4,182.5,165.3,184.5,172.4,185.3z"/>
	<path d="M143.9,191.3c2.1-1.6-4-2.1-4-2.1s2.4,0.4,2.6,1.3c0.3,0.8-1.3,0.1-4.1-0.4v0c0.5,0.2,1.4,0.6,1.7,1.1c0,0-0.4-0.2-1.7-0.5
		v1.3C140.8,192,142.9,192,143.9,191.3z"/>
	<path d="M153.2,177.5c0.5,0.1,1,0.2,1.1,0.5c0.1,0.3-0.6,0.5-1.7,0.6c-0.3,0.2-0.8,0.3-1.4,0.4c4.9-0.5,11.1,0.9,13-0.6
		c1.2-0.9-0.1-1.4-1.6-1.7c-0.3,0-0.6,0.1-0.9,0.1c0.5,0.2,1,0.5,1.2,0.8c0.3,0.8-1.4,0.1-4.4-0.5c0,0,1.6,0.5,2,1.2
		C160.6,178.3,159.3,177.5,153.2,177.5C153.1,177.4,153.1,177.4,153.2,177.5z"/>
	<path d="M160.7,176.4C160.6,176.4,160.6,176.4,160.7,176.4c0.2,0.1,0.6,0.2,1,0.3c0.2,0,0.4-0.1,0.6-0.1
		C161.6,176.5,161,176.5,160.7,176.4z"/>
	<path d="M195,193.3c-2.5-0.1-5.7-0.1-6.1,0.3c0,0,1.8,1.3,6.8,0.2c5-1,12.3,0.8,14.4-0.8c2.1-1.6-4-2.1-4-2.1s2.4,0.4,2.6,1.3
		c0.3,0.8-1.4,0.1-4.4-0.5c0,0,1.6,0.5,2,1.2c0,0-1.4-0.9-8.3-1c0,0,1.8,0.1,2.1,0.6C200.4,193.2,197.5,193.4,195,193.3z"/>
	<path d="M158.1,197c0.2,0.1,0.3,0.1,0.5,0.1C158.6,197.1,158.4,197.1,158.1,197z"/>
	<path d="M154.1,196.1c0.1,0,0.2,0,0.4,0.1c1.6,0.3,3,0.6,3.7,0.8c-0.9-0.3-1.5-0.9-1.5-0.9c3.7,0.9,7.4,0.6,7.4,0.6l0.2-0.1
		c-5.9-1.8,7.5-1.6,7.5-1.6c-3.3-0.5-8.6-0.3-13-0.2c-4.3,0.1-8.2,0.8-8.2,0.8c0.7,0,1.4,0.1,2.1,0.2c0.1,0,0.1,0,0.2,0
		C153.3,196,153.7,196,154.1,196.1z"/>
	<path d="M235.2,183.1c0.2,0.1,0.3,0.1,0.5,0.1C235.7,183.2,235.5,183.1,235.2,183.1z"/>
	<path d="M227.6,181.7c2.7,0.1,6.3,1,7.6,1.3c-0.9-0.3-1.5-0.9-1.5-0.9c3.7,0.9,7.4,0.6,7.4,0.6l0.2-0.1c-5.9-1.8,7.5-1.6,7.5-1.6
		c-3.3-0.5-8.6-0.3-13-0.2c-1.9,0-3.7,0.2-5.1,0.4c-0.5,0.1-0.9,0.1-1.3,0.2C228.3,181.6,227.6,181.7,227.6,181.7z"/>
	<path d="M224.5,207.3c0,0,8.6,0.6,17.6,0.4c7.7-0.2,17.9-0.7,23.9-0.5v-3c-5.4-1.2-12.3-1.9-16.9-1.2c0,0,6.3,0.1,7.2,1.9
		c0.9,1.9-10.5,2.7-15.8,1.5c-5.3-1.2-9.5-1.4-9.5-1.4s5,0.7,5.3,1.4C236.7,207.1,228.8,207.4,224.5,207.3z"/>
	<path d="M159.9,201.2c0,0,8.6,1.1,17.6,1.2c9.1,0.2,21.8,0.2,26.8,0.9c5,0.7,15.7,0.7,16.9-0.8c0.1-0.1,0.1-0.2,0.1-0.3
		c0-0.1,0-0.2-0.1-0.4c-0.6-1-4.4-1.6-4.4-1.6s1.3,0.5,1.5,1.1c0.2,0.6-4.8-1.9-13.8-3c0,0,9.6,1.9,10.6,3.8c0,0-8.2-0.7-13.6-2.1
		c-5.4-1.5-12.3-2.5-16.9-2c0,0,6.3,0.4,7.1,2.3c0.8,1.9-10.6,2.2-15.8,0.7c-5.3-1.5-9.5-1.9-9.5-1.9s5,1,5.3,1.7
		C172.2,201.5,164.3,201.5,159.9,201.2z"/>
	<path d="M241,203.6l-1.4,0.6c1.4-0.1,3.6-0.5,3.6-0.5c-0.5,0.5-3.1,0.8-3.1,0.8c0.8,0,2.7-0.2,3.9-0.6c1.2-0.3,2.7-0.6,2.4-0.1
		c-0.3,0.4-1.8,0.5-1.8,0.5s3.6,0,3.5-0.8c-0.1-0.8-1.2-1-5.1-0.6c-3.9,0.3-8.3,0.1-8.3,0.1C236.8,203.9,241,203.6,241,203.6z"/>
	<path d="M159.1,169.8h-20.6v0.4c2.7,0.7,7.3,0.9,9.8,0.5c3.4-0.4,11.7,0,18,0.3c0-0.3,0-0.6,0.1-0.8
		C164,170.5,161,170.4,159.1,169.8z"/>
	<path d="M167.8,171.1c0.5,0,0.9,0,1.4,0c0.4-0.4,0.9-0.9,1.4-1.3h-2.4c0,0,0,0-0.1,0C168,170.3,167.8,170.7,167.8,171.1z"/>
	<path d="M171.4,170c-0.1-0.1-0.1-0.1-0.1-0.2h-0.2c-0.3,0.3-0.5,0.7-0.8,1.1C170.4,170.9,170.8,170.5,171.4,170z"/>
	<path d="M171.4,171.2c4.7,0,8.3-0.4,8.3-0.4c-2.3,0.1-5.9-0.1-7.6-0.5C171.9,170.5,171.6,170.8,171.4,171.2z"/>
	<path d="M164.6,176c-0.1-0.8-1.2-1-5.1-0.6c-3.9,0.3-8.3,0.1-8.3,0.1c2,0.8,6.2,0.5,6.2,0.5l-1.4,0.6c1.4-0.1,3.6-0.5,3.6-0.5
		c-0.5,0.5-3.1,0.8-3.1,0.8c0.8,0,2.7-0.2,3.9-0.6c0,0,0,0,0,0c0,0,0.1,0,0.1,0c1.2-0.3,2.6-0.5,2.3-0.1c-0.1,0.2-0.4,0.3-0.7,0.3
		c-0.2,0-0.4,0.1-0.6,0.1c-0.3,0-0.6,0.1-0.6,0.1s0.3,0,0.7,0c0.3,0,0.6,0,0.9-0.1C163.7,176.7,164.7,176.5,164.6,176z"/>
	<path d="M138.4,171.9v0.6c2.5-0.1,4.5-0.2,4.5-0.2C141.4,172.2,139.8,172.1,138.4,171.9z"/>
	<path d="M151.2,179c0.6-0.1,1-0.3,1.4-0.4c0.3-0.1,0.5-0.3,0.6-0.4c0.2-0.3,0.2-0.5,0-0.7c0,0-0.1-0.1-0.1-0.1
		c-0.9-0.9-4.3-1.2-4.3-1.2s1.3,0.5,1.5,1c0.2,0.5-4.1-1.3-11.9-2.1v0.1c2.9,0.5,8,1.6,8.7,2.9c0,0-4.3-0.1-8.7-0.7v2.5
		C142.5,180,148.2,179.7,151.2,179z"/>
	<path d="M167.7,172.8c3.4,1.3,14.4,0.4,14.4,0.4c-3.6-0.1-7.5-0.8-7.5-0.8c0.5-0.2,1.1-1.3,1.1-1.3c-2.7,1.6-4.6,0.6-4.6,0.6
		c0.1-0.2,0.2-0.4,0.3-0.6c0.2-0.4,0.5-0.7,0.8-0.9c0.2-0.2,0.3-0.3,0.5-0.4h-1c-0.1,0.1-0.2,0.1-0.2,0.2c-0.7,0.5-1.1,0.9-1.1,0.9
		c0.2-0.4,0.5-0.8,0.8-1.1h-0.5c-0.5,0.5-1,1-1.4,1.3c-0.7,0.6-1.2,0.8-1.4,0.2c0-0.1,0-0.2,0-0.3c0-0.4,0.1-0.9,0.4-1.3
		c0,0,0,0,0,0h-1c-0.2,0.2-0.4,0.3-0.4,0.3c0-0.1,0-0.2,0.1-0.3h-0.4c-0.1,0.1-0.1,0.3-0.1,0.4c-0.1,0.3-0.1,0.6-0.1,0.8
		C166.3,171.8,166.6,172.4,167.7,172.8z"/>
	<path d="M243.3,176.3l0.2,0.1c0,0,2.6,0.3,5.2-0.6c0,0-0.5,0.6-1.1,0.9c0.9-0.3,3.4-1.2,5.4-1.3c0,0-2.7-0.8-5.8-0.8
		c-1.9,0-4.1-0.1-6-0.1c0.1,0.1,0.1,0.2,0.1,0.4C243.5,174.8,245.8,175.2,243.3,176.3z"/>
	<path d="M247.6,176.6c-0.2,0.1-0.4,0.1-0.4,0.1C247.4,176.7,247.5,176.7,247.6,176.6z"/>
	<path d="M251.6,169.8h-5.9C247.9,170,250.1,170,251.6,169.8z"/>
	<path d="M263.3,169.8c0.9,0,1.8,0.1,2.7,0.1v-0.1H263.3z"/>
	<path d="M260.4,178.9c-5.3-1.2-9.5-1.4-9.5-1.4s5,0.7,5.3,1.4c0.1,0.1-0.3,0.3-0.8,0.4c-1.4,0.3-4.3,0.4-7,0.5c-1.4,0-2.8,0-4,0
		c0,0,4.1,0.3,9.6,0.4c2.5,0,5.3,0,8.1,0c1.3,0,2.6-0.1,4-0.1v-0.6c-1.4,0-2.7-0.1-3.9-0.3C261.5,179.1,260.9,179,260.4,178.9z"/>
	<path d="M224.3,175.8c5,0.7,15.7,0.7,16.9-0.8c0.1-0.1,0.1-0.2,0.1-0.3c0-0.1,0-0.2-0.1-0.4c-0.6-1-4.4-1.6-4.4-1.6
		s1.3,0.5,1.5,1.1c0.2,0.6-4.8-1.9-13.8-3c0,0,9.6,1.9,10.6,3.8c0,0-8.2-0.7-13.6-2.1c-5.4-1.5-12.3-2.5-16.9-2c0,0,6.3,0.4,7.1,2.3
		c0.8,1.9-10.6,2.2-15.8,0.7c-5.3-1.5-9.5-1.9-9.5-1.9s5,1,5.3,1.7c0.4,0.7-7.6,0.7-11.9,0.4c0,0,8.6,1.1,17.6,1.2
		C206.5,175,219.3,175.1,224.3,175.8z"/>
	<path d="M260.9,176l-1.4,0.6c1.4-0.1,3.6-0.5,3.6-0.5c-0.5,0.5-3.1,0.8-3.1,0.8c0.8,0,2.7-0.2,3.9-0.6c0.7-0.2,1.5-0.3,2-0.4v-0.8
		c-0.7,0-1.7,0-3,0.2c-3.9,0.3-8.3,0.1-8.3,0.1C256.7,176.4,260.9,176,260.9,176z"/>
	<path d="M266.1,176.8v-0.2c-0.6,0.2-1.5,0.3-1.5,0.3S265.3,176.8,266.1,176.8z"/>
</g>
</svg>
