<?xml version="1.0" encoding="utf-8"?>
<!-- Generator: Adobe Illustrator 25.3.0, SVG Export Plug-In . SVG Version: 6.00 Build 0)  -->
<svg version="1.1" id="Layer_1" xmlns="http://www.w3.org/2000/svg" xmlns:xlink="http://www.w3.org/1999/xlink" x="0px" y="0px"
	 viewBox="0 0 750.2 400.1" style="enable-background:new 0 0 750.2 400.1;" xml:space="preserve">
<style type="text/css">
	.st0{fill:none;}
</style>
<g>
	<path class="st0" d="M261.3,193.7c0.2,0.7,0.9,0.2,1.8-0.6c-0.4,0-1,0.1-1.8,0.1C261.3,193.4,261.3,193.5,261.3,193.7z"/>
	<path class="st0" d="M153.2,173.9c-0.1,0.1-0.3,0.3-0.6,0.4c1.1-0.1,1.9-0.3,1.7-0.6c-0.1-0.3-0.7-0.4-1.1-0.5
		C153.3,173.3,153.4,173.6,153.2,173.9z"/>
	<path class="st0" d="M167.9,167.1c0.2,0.6,0.7,0.3,1.4-0.2c-0.5,0-0.9,0-1.4,0C167.9,166.9,167.9,167,167.9,167.1z"/>
	<path class="st0" d="M160.7,172.1c0.4,0,1,0.1,1.6,0.2c0.3-0.1,0.6-0.2,0.7-0.3C163.2,171.6,161.9,171.8,160.7,172.1z"/>
	<path class="st0" d="M128.7,165.7c0,0.2,0,0.3,0,0.5c0.2,0.7,0.9,0.2,1.8-0.6C130.2,165.5,129.5,165.6,128.7,165.7z"/>
	<path class="st0" d="M152.8,191.6c-0.2,0.1-0.4,0.3-0.6,0.5c0.7-0.1,1.4-0.2,1.9-0.3C153.7,191.7,153.3,191.6,152.8,191.6z"/>
	<path class="st0" d="M148,194.6c0.2,0.6,0.7,0.3,1.4-0.2c-0.5,0-0.9,0-1.4,0C148,194.4,148,194.5,148,194.6z"/>
	<path d="M129.9,208.7c-1.3-0.2-3-0.3-4.7-0.5v0.4C127.3,208.5,129.9,208.7,129.9,208.7z"/>
	<path d="M130.3,213c-2.7,0-4.3,0.3-5.1,0.6v1.2c2.1-0.1,4.7-0.5,6.8,0.1c2.8,0.8,4.2,0.2,4.6-0.1c0.2,0.3,0.6,0.5,1,0.6
		c3.4,1.3,14.4,0.4,14.4,0.4c-3.6-0.1-7.5-0.8-7.5-0.8c0.5-0.2,1.1-1.3,1.1-1.3c-2.7,1.6-4.6,0.6-4.6,0.6c0.8-2.2,3.6-3,3.6-3
		c-2.5,0-4.4,2.1-4.4,2.1c0.8-1.4,2-2.3,2.5-2.7c1.9-0.1,6.7-0.2,8.6,0.3c0,0,2.3,1.8,7.2,2.2c-1.2-0.1-3.5-0.6-5.5-2.1
		c0,0,6.6,1.9,13.3,2.3c0,0-7.3-0.7-8.5-2.3c-1.2-1.6,7.7,0.4,14.8,1.3c7.1,0.8,8.7,0.8,8.7,0.8s-4.2-0.6-7.2-1.6
		c0,0,7.1,1.4,12.3,1c0,0-6.1-0.3-7.5-2.1c-1.4-1.8,11.8-1.5,25-1.9c0,0-19.7-0.1-32-0.3c-12.3-0.1-15.9,0.8-21.5,1.1
		c0,0,6.1-0.2,7.7,0.3c0,0-9.6,0.3-15.4,0.8c0.1-0.1,0.2-0.1,0.2-0.1c-0.1,0-0.3,0.1-0.4,0.2c-0.3,0-0.5,0-0.8,0.1c0,0,0.3,0,0.7,0
		c-2,1-4.3,4.6-4.8,3.1c-0.5-1.6,2.1-3.2,2.1-3.2c-2,0.8-3.2,1.9-3.2,1.9c0.2-1.2,1-2.4,1-2.4s-2.3,2.4-1.4,4
		c-0.8-0.2-2.5-0.2-3.9-0.2c-1.8,0.1-3.9-0.1-3.7-0.7C129,213,130.3,213,130.3,213z"/>
	<path d="M125.3,213.1c0.3-0.2,0.6-0.3,0.6-0.3c-0.2,0.1-0.4,0.1-0.6,0.2V213.1z"/>
	<path d="M125.3,221.5c1.8-0.6,3.5-0.9,3.5-0.9c-1.3,0.1-2.4,0.3-3.5,0.5V221.5z"/>
	<path d="M142.9,221.1c-3.3-0.7-8.2,0-12,1.2c-0.4,0.1-0.9,0.3-1.4,0.4h8.5C139,221.2,142.9,221.1,142.9,221.1z"/>
	<path d="M248.9,218.1c3.4,1.3,14.4,0.4,14.4,0.4c-3.6-0.1-7.5-0.8-7.5-0.8c0.5-0.2,1.1-1.3,1.1-1.3c-2.7,1.6-4.6,0.6-4.6,0.6
		c0.8-2.2,3.6-3,3.6-3c-2.5,0-4.4,2.1-4.4,2.1c1.1-1.9,2.8-2.9,2.8-2.9c-2.1,0.6-4.8,4.9-5.3,3.3c-0.5-1.6,2.1-3.2,2.1-3.2
		c-2,0.8-3.2,1.9-3.2,1.9c0.2-1.2,1-2.4,1-2.4S245.5,216.9,248.9,218.1z"/>
	<path d="M270.9,211.1c-0.3,0-0.6,0.1-0.9,0.1C269.9,211.2,270.3,211.2,270.9,211.1z"/>
	<path d="M250.7,210.6c3.7,0.3,8.7-1,8.7-1c-2.2,1-5.1,1.6-5.1,1.6s1.1,0,6.2-0.8c5-0.8,11.3-2.8,10.5-1.3c-0.8,1.6-6,2.3-6,2.3
		c4.8-0.3,9.5-2.3,9.5-2.3c-1.3,1.4-2.7,1.9-3.6,2.1c3.3-0.4,4.8-2.1,4.8-2.1c0.7-0.2,1.9-0.3,3.1-0.4v-0.3c-3.8-0.3-8-0.5-8-0.5
		c1.1-0.6,5.5-0.3,5.5-0.3c-4-0.3-6.5-1.3-15.3-1.1c-8.7,0.1-22.7,0.3-22.7,0.3c9.4,0.4,18.8,0.1,17.8,1.9
		C255.1,210.3,250.7,210.6,250.7,210.6z"/>
	<path d="M277.1,212c0,0-4.3,0.5-2.8,2.1c0.8,0.8,2.5,0.7,4.5,0.6v-1.4c-1.5,0.3-1.9,0.6-1.9,0.6c0.3-0.7,1.4-1.2,1.4-1.2
		c-2.1,0.6-3.3,1.3-3.1,0.5C275.4,212.4,277.1,212,277.1,212z"/>
	<path d="M270.6,222c-0.2,0.1-0.4,0.1-0.4,0.1C270.4,222.1,270.5,222.1,270.6,222z"/>
	<path d="M261,220.1c0,0,9.5-0.2,5.3,1.6l0.2,0.1c0,0,2.6,0.3,5.2-0.6c0,0-0.5,0.6-1.1,0.9c0.9-0.3,3.4-1.2,5.4-1.3
		c0,0-2.7-0.8-5.8-0.8C267.1,219.8,263.3,219.6,261,220.1z"/>
	<path d="M221.6,216.5c-0.2,0.1-0.4,0.1-0.4,0.1C221.4,216.6,221.5,216.5,221.6,216.5z"/>
	<path d="M217.4,216.1l0.2,0.1c0,0,2.6,0.3,5.2-0.6c0,0-0.5,0.6-1.1,0.9c0.9-0.3,3.4-1.2,5.4-1.3c0,0-2.7-0.8-5.8-0.8
		c-3.1-0.1-6.9-0.3-9.2,0.2C212,214.5,221.6,214.3,217.4,216.1z"/>
	<path d="M271.5,222.7c0.3-0.5,1-0.8,1-0.8s-1.7,0.2-2.6,0.8H271.5z"/>
	<path d="M274.8,222.7c1.1-0.6,2.6-1.2,3.9-1.5v-0.3c-3.1,0.5-5.2,1.4-6.4,1.8H274.8z"/>
	<path d="M200.8,216.5c3.4,1.3,14.4,0.4,14.4,0.4c-3.6-0.1-7.5-0.8-7.5-0.8c0.5-0.2,1.1-1.3,1.1-1.3c-2.7,1.6-4.6,0.6-4.6,0.6
		c0.8-2.2,3.6-3,3.6-3c-2.5,0-4.4,2.1-4.4,2.1c1.1-1.9,2.8-2.9,2.8-2.9c-2.1,0.6-4.8,4.9-5.3,3.3c-0.5-1.6,2.1-3.2,2.1-3.2
		c-2,0.8-3.2,1.9-3.2,1.9c0.2-1.2,1-2.4,1-2.4S197.4,215.3,200.8,216.5z"/>
	<path d="M148.4,222.7c0.1-0.1,0.1-0.2,0.1-0.2S148.4,222.6,148.4,222.7L148.4,222.7z"/>
	<path d="M268.4,222.7c0.1,0,0.2-0.1,0.2-0.1c-0.2,0-0.4,0-0.7,0.1H268.4z"/>
	<path d="M266,222.7c0.6-0.5,1.1-0.8,1.1-0.8c-0.5,0.1-0.9,0.4-1.4,0.8H266z"/>
	<path d="M263.1,222.7c0.5-0.4,0.9-0.7,0.9-0.7c-0.6,0.2-1,0.5-1.5,0.7H263.1z"/>
	<path d="M261.2,222.7c0.3-0.6,0.6-1.1,0.6-1.1s-0.4,0.5-0.8,1.1H261.2z"/>
	<path d="M201.7,210.6c3.7,0.3,8.7-1,8.7-1c-2.2,1-5.1,1.6-5.1,1.6s1.1,0,6.2-0.8s11.3-2.8,10.5-1.3c-0.8,1.6-6,2.3-6,2.3
		c4.8-0.3,9.5-2.3,9.5-2.3c-1.3,1.4-2.7,1.9-3.6,2.1c3.3-0.4,4.8-2.1,4.8-2.1c0.7-0.3,1.9-0.3,3.1-0.4c-1.1,0.2-1.8,0.3-1.8,0.3
		c2.7,0.1,6.3,1,7.6,1.3c-0.9-0.3-1.5-0.9-1.5-0.9c3.7,0.9,7.4,0.6,7.4,0.6l0.2-0.1c-5.9-1.8,7.5-1.6,7.5-1.6
		c-3.3-0.5-8.6-0.3-13-0.2c-1.9,0-3.7,0.2-5.1,0.4c-4.1-0.4-9.3-0.6-9.3-0.6c1.1-0.6,5.5-0.3,5.5-0.3c-4-0.3-6.5-1.3-15.3-1.1
		c-8.7,0.1-22.7,0.3-22.7,0.3c9.4,0.4,18.8,0.1,17.8,1.9C206.1,210.3,201.7,210.6,201.7,210.6z"/>
	<path d="M221.9,211.1c-0.3,0-0.6,0.1-0.9,0.1C220.9,211.2,221.3,211.2,221.9,211.1z"/>
	<path d="M234.5,214.2c0,0-4.3,0.5-2.8,2.1c1.5,1.6,6.7-0.3,10.2,0.8c3.5,1,4.8-0.2,4.8-0.2c-0.3-0.4-2.6-0.4-4.3-0.3
		c-1.8,0.1-3.9-0.1-3.7-0.7c0.2-0.6,1.5-0.6,1.5-0.6c-4.9,0.1-5.9,1-5.9,1c0.3-0.7,1.4-1.2,1.4-1.2c-2.1,0.6-3.3,1.3-3.1,0.5
		C232.9,214.6,234.5,214.2,234.5,214.2z"/>
	<path d="M259.4,222.2c0,0-1.3,0.1-3.2,0.5h1.4C258.5,222.4,259.4,222.2,259.4,222.2z"/>
	<path d="M241.4,222.1c0.6-1.9,5.1-1.9,5.1-1.9c-3.3-0.7-8.2,0-12,1.2c-2.3,0.7-5.4,1.1-7.4,1.3h14.4
		C241.4,222.5,241.4,222.4,241.4,222.1z"/>
	<path d="M232.4,219.6c-6.4,0.6-10,2.9-9.8,2.3c0.2-0.6,1.1-1,1.1-1s-3.4,0.5-3.2,1.8h4.5C226,220.9,232.4,219.6,232.4,219.6z"/>
	<path d="M187.9,218.7c4.8-1.3-0.2-5-0.2-5s1.1,1.2,1.4,2.4c0,0-1.6-1.2-4.4-1.9c0,0,3.7,1.6,3,3.2c-0.7,1.6-4.5-2.8-7.4-3.3
		c0,0,2.4,1,4,2.9c0,0-2.7-2.1-6.1-2.1c0,0,4,0.8,5.1,3c0,0-2.7,1-6.5-0.6c0,0,0.9,1,1.6,1.3c0,0-5.5,0.6-10.6,0.8
		C167.6,219.1,183.2,219.9,187.9,218.7z"/>
	<path d="M159.5,213.4c-0.3,0-0.6,0-0.9-0.1C159.2,213.4,159.5,213.4,159.5,213.4z"/>
	<path d="M129.3,218.6c-1.3,0-2.8-0.1-4,0v0.9c1.1,0.1,2.6,0.1,4.7-0.4c5-1,12.3,0.8,14.4-0.8c2.1-1.6-4-2.1-4-2.1s2.4,0.4,2.6,1.3
		c0.3,0.8-1.4,0.1-4.4-0.5c0,0,1.6,0.5,2,1.2c0,0-1.4-0.9-8.3-1c0,0,1.8,0.1,2.1,0.6S131.7,218.7,129.3,218.6z"/>
	<path d="M149.7,205.9c-2.5-0.1-5.7-0.1-6.1,0.3c0,0,1.8,1.3,6.8,0.2s12.3,0.8,14.4-0.8c2.1-1.6-4-2.1-4-2.1s2.4,0.4,2.6,1.3
		c0.3,0.8-1.4,0.1-4.4-0.5c0,0,1.6,0.5,2,1.2c0,0-1.4-0.9-8.3-1c0,0,1.8,0.1,2.1,0.6C155.1,205.7,152.1,205.9,149.7,205.9z"/>
	<path d="M195.5,220.5c-2.5-0.1-5.7-0.1-6.1,0.3c0,0,1.8,1.3,6.8,0.2s12.3,0.8,14.4-0.8c2.1-1.6-4-2.1-4-2.1s2.4,0.4,2.6,1.3
		c0.3,0.8-1.4,0.1-4.4-0.5c0,0,1.6,0.5,2,1.2c0,0-1.4-0.9-8.3-1c0,0,1.8,0.1,2.1,0.6S198,220.6,195.5,220.5z"/>
	<path d="M159.2,222c-3.1,0-5.9,0.5-7.3,0.7h11.7c1.9-0.6,8.6-0.5,8.6-0.5C168.9,221.8,163.6,222,159.2,222z"/>
	<path d="M235.7,210.3c0.2,0.1,0.3,0.1,0.5,0.1C236.1,210.4,236,210.3,235.7,210.3z"/>
	<path d="M129.4,177.2c-1.2-0.2-2.7-0.3-4.2-0.4v0.4C127.2,177,129.4,177.2,129.4,177.2z"/>
	<path d="M125.3,181.2L125.3,181.2C125.3,181.2,125.3,181.2,125.3,181.2C125.3,181.2,125.3,181.2,125.3,181.2z"/>
	<path d="M125.3,189.5v0.3c1.6-0.5,3-0.8,3-0.8C127.2,189.2,126.2,189.3,125.3,189.5z"/>
	<path d="M146.4,194.3c0,0.7,0.4,1.3,1.5,1.7c3.4,1.3,14.4,0.4,14.4,0.4c-3.6-0.1-7.5-0.8-7.5-0.8c0.5-0.2,1.1-1.3,1.1-1.3
		c-2.7,1.6-4.6,0.6-4.6,0.6c0.1-0.2,0.2-0.4,0.3-0.6c4.7,0,8.3-0.4,8.3-0.4c-2.3,0.1-5.9-0.1-7.6-0.5c1.1-1,2.5-1.4,2.5-1.4
		c-1.3,0-2.5,0.6-3.3,1.2c-0.1-0.1-0.1-0.1-0.1-0.2c0.2-0.4,1.9-0.9,3-1.2c1.6,0.3,3,0.6,3.7,0.8c-0.9-0.3-1.5-0.9-1.5-0.9
		c3.7,0.9,7.4,0.6,7.4,0.6l0.2-0.1c-5.9-1.8,7.5-1.6,7.5-1.6c-3.3-0.5-8.6-0.3-13-0.2c-4.3,0.1-8.2,0.8-8.2,0.8
		c0.7,0,1.4,0.1,2.1,0.2c-0.3,0.2-0.6,0.4-0.9,0.6c-1,0.2-2.1,0.5-3.3,0.9c0,0-0.1,0-0.1,0c0.6-0.9,1.8-1.6,1.8-1.6
		c-2,0.8-3.2,1.9-3.2,1.9c0.2-1.2,1-2.4,1-2.4s-1.1,1.2-1.5,2.4c-4,0.5-9.7-0.3-9.2-1.9c0.6-1.9,5.1-1.9,5.1-1.9
		c-3.3-0.7-8.2,0-12,1.2c-1.6,0.5-3.4,0.8-5.1,1v2.3c1.2,0,2.2,0,3.1-0.2C131.7,193.5,140,194,146.4,194.3z M152.8,191.6
		c0.4,0.1,0.8,0.1,1.2,0.2c-0.5,0.1-1.1,0.2-1.9,0.3C152.5,191.9,152.7,191.7,152.8,191.6z M149.4,194.4c-0.7,0.6-1.2,0.8-1.4,0.2
		c0-0.1,0-0.2,0-0.3C148.4,194.4,148.9,194.4,149.4,194.4z"/>
	<path d="M137.5,199.2l-1.4,0.6c1.4-0.1,3.6-0.5,3.6-0.5c-0.5,0.5-3.1,0.8-3.1,0.8c0.8,0,2.7-0.2,3.9-0.6c1.2-0.3,2.7-0.6,2.4-0.1
		c-0.3,0.4-1.8,0.5-1.8,0.5s3.6,0,3.5-0.8c-0.1-0.8-1.2-1-5.1-0.6c-3.9,0.3-8.3,0.1-8.3,0.1C133.3,199.6,137.5,199.2,137.5,199.2z"
		/>
	<path d="M128.9,199.4c0,0,1.3,0.5,1.5,1c0.1,0.3-1.7-0.4-5.2-1.1v0.8c1,0.4,1.7,0.8,2,1.2c0,0-0.8,0-2-0.1v1.8
		c3.9-0.2,7.4-0.8,8-1.6C134.4,199.9,128.9,199.4,128.9,199.4z"/>
	<path d="M248.4,186.6c3.4,1.3,14.4,0.4,14.4,0.4c-3.6-0.1-7.5-0.8-7.5-0.8c0.5-0.2,1.1-1.3,1.1-1.3c-2.7,1.6-4.6,0.6-4.6,0.6
		c0.8-2.2,3.6-3,3.6-3c-2.5,0-4.4,2.1-4.4,2.1c1.1-1.9,2.8-2.9,2.8-2.9c-2.1,0.6-4.8,4.9-5.3,3.3c-0.5-1.6,2.1-3.2,2.1-3.2
		c-2,0.8-3.2,1.9-3.2,1.9c0.2-1.2,1-2.4,1-2.4S245,185.3,248.4,186.6z"/>
	<path d="M270.4,179.6c-0.3,0-0.6,0.1-0.9,0.1C269.4,179.7,269.8,179.7,270.4,179.6z"/>
	<path d="M197.9,205.1c-0.3,0-0.6,0.1-0.9,0.1C196.9,205.2,197.3,205.2,197.9,205.1z"/>
	<path d="M187.5,204.3c5-0.8,11.3-2.8,10.5-1.3c-0.8,1.6-6,2.3-6,2.3c4.8-0.3,9.5-2.3,9.5-2.3c-1.3,1.4-2.7,1.9-3.6,2.1
		c3.3-0.4,4.8-2.1,4.8-2.1c1.7-0.6,6.7-0.3,6.7-0.3c-4-0.6-11.6-0.9-11.6-0.9c1.1-0.6,5.5-0.3,5.5-0.3c-4-0.3-6.5-1.3-15.3-1.1
		c-8.7,0.1-22.7,0.3-22.7,0.3c9.4,0.4,18.8,0.1,17.8,1.9c-1,1.8-5.3,2.1-5.3,2.1c3.7,0.3,8.7-1,8.7-1c-2.2,1-5.1,1.6-5.1,1.6
		S182.5,205.2,187.5,204.3z"/>
	<path d="M276.6,180.5c0,0-4.3,0.5-2.8,2.1c0.8,0.9,2.8,0.7,5,0.5v-1.4c-1.9,0.3-2.4,0.7-2.4,0.7c0.3-0.7,1.4-1.2,1.4-1.2
		c-2.1,0.6-3.3,1.3-3.1,0.5S276.6,180.5,276.6,180.5z"/>
	<path d="M265.8,190.1l0.2,0.1c0,0,2.6,0.3,5.2-0.6c0,0-0.5,0.6-1.1,0.9c0.9-0.3,3.4-1.2,5.4-1.3c0,0-2.7-0.8-5.8-0.8
		c-3.1-0.1-6.9-0.3-9.2,0.2C260.5,188.5,270,188.3,265.8,190.1z"/>
	<path d="M270.1,190.5c-0.2,0.1-0.4,0.1-0.4,0.1C269.9,190.6,270,190.5,270.1,190.5z"/>
	<path d="M216.9,184.6l0.2,0.1c0,0,2.6,0.3,5.2-0.6c0,0-0.5,0.6-1.1,0.9c0.9-0.3,3.4-1.2,5.4-1.3c0,0-2.7-0.8-5.8-0.8
		c-3.1-0.1-6.9-0.3-9.2,0.2C211.5,183,221.1,182.8,216.9,184.6z"/>
	<path d="M221.1,185c-0.2,0.1-0.4,0.1-0.4,0.1C220.9,185.1,221,185,221.1,185z"/>
	<path d="M278.8,194.1v-2.4c-2.9,0.5-5.6,0.6-5.6,0.6c0.4-1.2,3.5-2.2,5.6-2.8v-0.2c-5.2,0.8-8,2.6-7.9,2.1c0.2-0.6,1.1-1,1.1-1
		s-3.9,0.6-3.1,2C269.5,193.6,274.9,194.2,278.8,194.1z"/>
	<path d="M207.2,184.6c0.5-0.2,1.1-1.3,1.1-1.3c-2.7,1.6-4.6,0.6-4.6,0.6c0.8-2.2,3.6-3,3.6-3c-2.5,0-4.4,2.1-4.4,2.1
		c1.1-1.9,2.8-2.9,2.8-2.9c-2.1,0.6-4.8,4.9-5.3,3.3c-0.5-1.6,2.1-3.2,2.1-3.2c-2,0.8-3.2,1.9-3.2,1.9c0.2-1.2,1-2.4,1-2.4
		s-3.5,3.8-0.2,5s14.4,0.4,14.4,0.4C211.1,185.3,207.2,184.6,207.2,184.6z"/>
	<path d="M221.4,179.6c-0.3,0-0.6,0.1-0.9,0.1C220.4,179.7,220.8,179.7,221.4,179.6z"/>
	<path d="M201.2,179.1c3.7,0.3,8.7-1,8.7-1c-2.2,1-5.1,1.6-5.1,1.6s1.1,0,6.2-0.8c5-0.8,11.3-2.8,10.5-1.3c-0.8,1.6-6,2.3-6,2.3
		c4.8-0.3,9.5-2.3,9.5-2.3c-1.3,1.4-2.7,1.9-3.6,2.1c3.3-0.4,4.8-2.1,4.8-2.1c0.7-0.3,1.9-0.3,3.1-0.4c-1.1,0.2-1.8,0.3-1.8,0.3
		c2.7,0.1,6.3,1,7.6,1.3c-0.9-0.3-1.5-0.9-1.5-0.9c3.7,0.9,7.4,0.6,7.4,0.6l0.2-0.1c-5.9-1.8,7.5-1.6,7.5-1.6
		c-3.3-0.5-8.6-0.3-13-0.2c-1.9,0-3.7,0.2-5.1,0.4c-4.1-0.4-9.3-0.6-9.3-0.6c1.1-0.6,5.5-0.3,5.5-0.3c-4-0.3-6.5-1.3-15.3-1.1
		c-8.7,0.1-22.7,0.3-22.7,0.3c9.4,0.4,18.8,0.1,17.8,1.9S201.2,179.1,201.2,179.1z"/>
	<path d="M234,182.6c0,0-4.3,0.5-2.8,2.1s6.7-0.3,10.2,0.8s4.8-0.2,4.8-0.2c-0.3-0.4-2.6-0.4-4.3-0.3c-1.8,0.1-3.9-0.1-3.7-0.7
		c0.2-0.6,1.5-0.6,1.5-0.6c-4.9,0.1-5.9,1-5.9,1c0.3-0.7,1.4-1.2,1.4-1.2c-2.1,0.6-3.3,1.3-3.1,0.5C232.4,183.1,234,182.6,234,182.6
		z"/>
	<path d="M227.7,199.8c-0.2,0.1-0.4,0.1-0.4,0.1C227.5,199.9,227.6,199.9,227.7,199.8z"/>
	<path d="M232,193c3.5-0.5,12.6,0.1,19,0.4c3.2,0.1,6.3,0,8.7-0.1c0,0.7,0.4,1.4,1.5,1.8c3.4,1.3,14.4,0.4,14.4,0.4
		c-3.6-0.1-7.5-0.8-7.5-0.8c0.5-0.2,1.1-1.3,1.1-1.3c-2.7,1.6-4.6,0.6-4.6,0.6c0.8-2.2,3.6-3,3.6-3c-2.5,0-4.4,2.1-4.4,2.1
		c1.1-1.9,2.8-2.9,2.8-2.9c-1.1,0.3-2.4,1.7-3.4,2.7c-0.6,0-1.2,0-1.8,0c0.2-1.3,2.2-2.5,2.2-2.5c-2,0.8-3.2,1.9-3.2,1.9
		c0.2-1.2,1-2.4,1-2.4s-1.4,1.5-1.6,2.9c-2.5-0.1-4.8-0.4-4.6-0.9c0.3-0.6,3.8-1.4,3.8-1.4s-3,0.2-6.8,1.4
		c-3.7,1.2-11.8,0.4-11.2-1.5c0.6-1.9,5.1-1.9,5.1-1.9c-3.3-0.7-8.2,0-12,1.2c-3.8,1.2-9.7,1.5-9.7,1.5c0.7-1.9,7.5-3.2,7.5-3.2
		c-6.4,0.6-10,2.9-9.8,2.3c0.2-0.6,1.1-1,1.1-1s-3.9,0.6-3.1,2C220.8,192.9,228.5,193.5,232,193z M263.1,193.1
		c-0.9,0.8-1.6,1.4-1.8,0.6c0-0.2-0.1-0.3,0-0.5C262.1,193.2,262.7,193.1,263.1,193.1z"/>
	<path d="M187.4,187.2c4.8-1.3-0.2-5-0.2-5s1.1,1.2,1.4,2.4c0,0-1.6-1.2-4.4-1.9c0,0,3.7,1.6,3,3.2c-0.7,1.6-4.5-2.8-7.4-3.3
		c0,0,2.4,1,4,2.9c0,0-2.7-2.1-6.1-2.1c0,0,4,0.8,5.1,3c0,0-2.7,1-6.5-0.6c0,0,0.9,1,1.6,1.3c0,0-5.5,0.6-10.6,0.8
		C167.1,187.6,182.7,188.4,187.4,187.2z"/>
	<path d="M159,181.9c-0.3,0-0.6,0-0.9-0.1C158.7,181.9,159,181.9,159,181.9z"/>
	<path d="M172.4,181c7.1,0.8,8.7,0.8,8.7,0.8s-4.2-0.6-7.2-1.6c0,0,7.1,1.4,12.3,1c0,0-6.1-0.3-7.5-2.1c-1.4-1.8,11.8-1.5,25-1.9
		c0,0-19.7-0.1-32-0.3c-12.3-0.1-15.9,0.8-21.5,1.1c0,0,6.1-0.2,7.7,0.3c0,0-9.6,0.3-15.4,0.8c0.1-0.1,0.2-0.1,0.2-0.1
		c-0.1,0-0.3,0.1-0.4,0.2c-0.3,0-0.5,0-0.8,0.1c0,0,0.3,0,0.7,0c-2,1-4.3,4.6-4.8,3.1c-0.5-1.6,2.1-3.2,2.1-3.2
		c-2,0.8-3.2,1.9-3.2,1.9c0.2-1.2,1-2.4,1-2.4s-2.3,2.4-1.4,4c-0.8-0.2-2.5-0.2-3.9-0.2c-1.8,0.1-3.9-0.1-3.7-0.7
		c0.2-0.6,1.5-0.6,1.5-0.6c-2.3,0-3.7,0.2-4.6,0.5v1.3c2-0.1,4.4-0.4,6.3,0.1c2.8,0.8,4.2,0.2,4.6-0.1c0.2,0.3,0.6,0.5,1,0.6
		c3.4,1.3,14.4,0.4,14.4,0.4c-3.6-0.1-7.5-0.8-7.5-0.8c0.5-0.2,1.1-1.3,1.1-1.3c-2.7,1.6-4.6,0.6-4.6,0.6c0.8-2.2,3.6-3,3.6-3
		c-2.5,0-4.4,2.1-4.4,2.1c0.8-1.4,2-2.3,2.5-2.7c1.9-0.1,6.7-0.2,8.6,0.3c0,0,2.3,1.8,7.2,2.2c-1.2-0.1-3.5-0.6-5.5-2.1
		c0,0,6.6,1.9,13.3,2.3c0,0-7.3-0.7-8.5-2.3C156.4,178.1,165.3,180.1,172.4,181z"/>
	<path d="M143.9,186.9c2.1-1.6-4-2.1-4-2.1s2.4,0.4,2.6,1.3c0.3,0.8-1.4,0.1-4.4-0.5c0,0,1.6,0.5,2,1.2c0,0-1.4-0.9-8.3-1
		c0,0,1.8,0.1,2.1,0.6c0.3,0.6-2.7,0.8-5.2,0.7c-1.1,0-2.4,0-3.5,0v1c1,0.1,2.4,0,4.2-0.4C134.4,186.6,141.7,188.5,143.9,186.9z"/>
	<path d="M195,189c-2.5-0.1-5.7-0.1-6.1,0.3c0,0,1.8,1.3,6.8,0.2s12.3,0.8,14.4-0.8c2.1-1.6-4-2.1-4-2.1s2.4,0.4,2.6,1.3
		c0.3,0.8-1.4,0.1-4.4-0.5c0,0,1.6,0.5,2,1.2c0,0-1.4-0.9-8.3-1c0,0,1.8,0.1,2.1,0.6C200.4,188.8,197.5,189.1,195,189z"/>
	<path d="M158.1,192.7c0.2,0.1,0.3,0.1,0.5,0.1C158.6,192.8,158.4,192.7,158.1,192.7z"/>
	<path d="M235.2,178.7c0.2,0.1,0.3,0.1,0.5,0.1C235.7,178.9,235.5,178.8,235.2,178.7z"/>
	<path d="M278.8,200.6v-1c-2.3-0.5-5.6-1.2-9.7-1.5C269.1,198.1,276.1,199.1,278.8,200.6z"/>
	<path d="M224.5,203c0,0,8.6,0.6,17.6,0.4c9.1-0.3,21.8-0.8,26.8-0.4c2.5,0.2,6.4,0.2,9.9-0.1v-1.7c-2.3-0.1-8.4-0.5-12.7-1.4
		c-5.4-1.2-12.3-1.9-16.9-1.2c0,0,6.3,0.1,7.2,1.9c0.9,1.9-10.5,2.7-15.8,1.5c-5.3-1.2-9.5-1.4-9.5-1.4s5,0.7,5.3,1.4
		C236.7,202.7,228.8,203.1,224.5,203z"/>
	<path d="M204.4,199c5,0.7,15.7,0.7,16.9-0.8c0.1-0.1,0.1-0.2,0.1-0.3c2.3,0.1,4.6,0.5,2.1,1.5l0.2,0.1c0,0,2.6,0.3,5.2-0.6
		c0,0-0.5,0.6-1.1,0.9c0.9-0.3,3.4-1.2,5.4-1.3c0,0-2.7-0.8-5.8-0.8c-1.9,0-4.1-0.1-6-0.1c-0.6-1-4.4-1.6-4.4-1.6s1.3,0.5,1.5,1.1
		c0.2,0.6-4.8-1.9-13.8-3c0,0,9.6,1.9,10.6,3.8c0,0-8.2-0.7-13.6-2.1c-5.4-1.5-12.3-2.5-16.9-2c0,0,6.3,0.4,7.1,2.3
		c0.8,1.9-10.6,2.2-15.8,0.7c-5.3-1.5-9.5-1.9-9.5-1.9s5,1,5.3,1.7c0.4,0.7-7.6,0.7-11.9,0.4c0,0,8.6,1.1,17.6,1.2
		C186.7,198.2,199.4,198.3,204.4,199z"/>
	<path d="M241,199.2l-1.4,0.6c1.4-0.1,3.6-0.5,3.6-0.5c-0.5,0.5-3.1,0.8-3.1,0.8c0.8,0,2.7-0.2,3.9-0.6c1.2-0.3,2.7-0.6,2.4-0.1
		c-0.3,0.4-1.8,0.5-1.8,0.5s3.6,0,3.5-0.8c-0.1-0.8-1.2-1-5.1-0.6c-3.9,0.3-8.3,0.1-8.3,0.1C236.8,199.6,241,199.2,241,199.2z"/>
	<path d="M131.4,165.5c-0.1,0.1-0.2,0.2-0.2,0.2C131.2,165.6,131.3,165.5,131.4,165.5h-6.1v0.3c0.7,0,1.3-0.1,1.8-0.1
		c0,0.7,0.4,1.4,1.5,1.8c3.4,1.3,14.4,0.4,14.4,0.4c-3.6-0.1-7.5-0.8-7.5-0.8c0.5-0.2,1.1-1.3,1.1-1.3c-2.7,1.6-4.6,0.6-4.6,0.6
		c0.1-0.4,0.4-0.8,0.6-1.1H131.4z M128.7,166.1c0-0.2-0.1-0.3,0-0.5c0.8-0.1,1.5-0.1,1.8-0.1C129.7,166.3,129,166.9,128.7,166.1z"/>
	<path d="M136.3,175.4c3.9,0.4,11.3,0.1,14.9-0.7c4.9-0.5,11.1,0.9,13-0.6c1.2-0.9-0.1-1.4-1.6-1.7c1-0.1,2-0.3,1.9-0.7
		c-0.1-0.8-1.2-1-5.1-0.6c-3.9,0.3-8.3,0.1-8.3,0.1c2,0.8,6.2,0.5,6.2,0.5l-1.4,0.6c1.4-0.1,3.6-0.5,3.6-0.5
		c-0.5,0.5-3.1,0.8-3.1,0.8c0.8,0,2.7-0.2,3.9-0.6c0,0,0,0,0,0c0.3,0.1,0.7,0.2,1.1,0.3c-0.3,0-0.6,0.1-0.6,0.1s0.3,0,0.7,0
		c0.5,0.2,1,0.5,1.2,0.8c0.3,0.8-1.4,0.1-4.4-0.5c0,0,1.6,0.5,2,1.2c0,0-1.3-0.8-7.5-1c-0.9-0.9-4.3-1.2-4.3-1.2s1.3,0.5,1.5,1
		c0.2,0.6-4.8-1.7-13.8-2.3c0,0,9.7,1.4,10.6,3.2c0,0-8.2-0.3-13.6-1.5c-2.5-0.6-5.4-1-8.2-1.3v4.3
		C129.9,175.2,134,175.2,136.3,175.4z M160.7,172.1c1.2-0.3,2.6-0.5,2.3-0.1c-0.1,0.2-0.4,0.3-0.7,0.3
		C161.6,172.2,161,172.1,160.7,172.1z M154.3,173.6c0.1,0.3-0.6,0.5-1.7,0.6c0.3-0.1,0.5-0.3,0.6-0.4c0.2-0.3,0.2-0.5,0-0.7
		C153.7,173.2,154.2,173.4,154.3,173.6z"/>
	<path d="M167.7,168.5c3.4,1.3,14.4,0.4,14.4,0.4c-3.6-0.1-7.5-0.8-7.5-0.8c0.5-0.2,1.1-1.3,1.1-1.3c-2.7,1.6-4.6,0.6-4.6,0.6
		c0.1-0.2,0.2-0.4,0.3-0.6c4.7,0,8.3-0.4,8.3-0.4c-2.3,0.1-5.9-0.1-7.6-0.5c0.2-0.2,0.3-0.3,0.5-0.4h-1c-0.1,0.1-0.2,0.1-0.2,0.2
		c-0.1-0.1-0.1-0.1-0.1-0.2h-3c0,0,0,0-0.1,0c0,0,0,0,0,0h-1c-0.2,0.2-0.4,0.3-0.4,0.3c0-0.1,0-0.2,0.1-0.3h-0.4
		c-0.1,0.1-0.1,0.3-0.1,0.4c-2.4,0.3-5.4,0.1-7.3-0.4h-21.9c2.3,1,8.1,1.3,11,0.9c3.4-0.4,11.7,0,18,0.3
		C166.3,167.4,166.6,168.1,167.7,168.5z M167.9,167.1c0-0.1,0-0.2,0-0.3c0.5,0,0.9,0,1.4,0C168.6,167.4,168.1,167.7,167.9,167.1z"/>
	<path d="M247.6,172.3c-0.2,0.1-0.4,0.1-0.4,0.1C247.4,172.4,247.5,172.3,247.6,172.3z"/>
	<path d="M251.6,165.5h-5.9C247.9,165.7,250.1,165.7,251.6,165.5z"/>
	<path d="M278.8,165.8v-0.3h-15.4c2.6,0.1,5.2,0.2,7.6,0.3C273.8,166,276.6,165.9,278.8,165.8z"/>
	<path d="M269,171.1c0,0,6.3,0.1,7.2,1.9c0.5,1.1-3.4,1.9-7.8,2c-1.7-0.1-3.7-0.2-6.3-0.2c-0.6-0.1-1.2-0.2-1.7-0.3
		c-5.3-1.2-9.5-1.4-9.5-1.4s5,0.7,5.3,1.4c0.1,0.1-0.3,0.3-0.8,0.4c-8.2,0.1-17.6,0.2-17.6,0.2c3.7,0.2,7.5,0.2,10.5,0.3
		c-1.4,0-2.8,0-4,0c0,0,4.1,0.3,9.6,0.4c1.3,0.2,2,0.6,1.6,1.1c-1,1.8-5.3,2.1-5.3,2.1c3.7,0.3,8.7-1,8.7-1c-2.2,1-5.1,1.6-5.1,1.6
		s1.1,0,6.2-0.8c5-0.8,11.3-2.8,10.5-1.3c-0.8,1.6-6,2.3-6,2.3c4.8-0.3,9.5-2.3,9.5-2.3c-1.3,1.4-2.7,1.9-3.6,2.1
		c3.3-0.4,4.8-2.1,4.8-2.1c0.8-0.3,2.2-0.4,3.6-0.4v-0.2c-3.9-0.4-8.5-0.6-8.5-0.6c1.1-0.6,5.5-0.3,5.5-0.3
		c-1.3-0.1-2.4-0.3-3.6-0.5c2.3-0.1,4.5-0.1,6.7-0.2v-4.2C275.2,170.7,271.7,170.6,269,171.1z"/>
	<path d="M224.3,171.4c5,0.7,15.7,0.7,16.9-0.8c0.1-0.1,0.1-0.2,0.1-0.3c2.3,0.1,4.6,0.5,2.1,1.5l0.2,0.1c0,0,2.6,0.3,5.2-0.6
		c0,0-0.5,0.6-1.1,0.9c0.9-0.3,3.4-1.2,5.4-1.3c0,0-2.7-0.8-5.8-0.8c-1.9,0-4.1-0.1-6-0.1c-0.6-1-4.4-1.6-4.4-1.6s1.3,0.5,1.5,1.1
		c0.2,0.6-4.8-1.9-13.8-3c0,0,9.6,1.9,10.6,3.8c0,0-8.2-0.7-13.6-2.1c-5.4-1.5-12.3-2.5-16.9-2c0,0,6.3,0.4,7.1,2.3
		c0.8,1.9-10.6,2.2-15.8,0.7s-9.5-1.9-9.5-1.9s5,1,5.3,1.7c0.4,0.7-7.6,0.7-11.9,0.4c0,0,8.6,1.1,17.6,1.2
		C206.5,170.7,219.3,170.7,224.3,171.4z"/>
	<path d="M260.9,171.7l-1.4,0.6c1.4-0.1,3.6-0.5,3.6-0.5c-0.5,0.5-3.1,0.8-3.1,0.8c0.8,0,2.7-0.2,3.9-0.6c1.2-0.3,2.7-0.6,2.4-0.1
		c-0.3,0.4-1.8,0.5-1.8,0.5s3.6,0,3.5-0.8c-0.1-0.8-1.2-1-5.1-0.6c-3.9,0.3-8.3,0.1-8.3,0.1C256.7,172,260.9,171.7,260.9,171.7z"/>
</g>
</svg>
