<?xml version="1.0" encoding="utf-8"?>
<!-- Generator: Adobe Illustrator 25.3.0, SVG Export Plug-In . SVG Version: 6.00 Build 0)  -->
<svg version="1.1" id="Layer_1" xmlns="http://www.w3.org/2000/svg" xmlns:xlink="http://www.w3.org/1999/xlink" x="0px" y="0px"
	 viewBox="0 0 240.9 34" style="enable-background:new 0 0 240.9 34;" xml:space="preserve">
<style type="text/css">
	.st0{fill:#00953B;}
	.st1{fill:#FFFFFF;}
	.st2{font-family:'Arial-BoldMT';}
	.st3{font-size:9.1859px;}
	.st4{fill:#76BC21;}
</style>
<path class="st0" d="M49.5,8.8h66.1c1,0,1,1,1,2v10.8c0,1,0,1-1,1H49.5c-1,0-1,0-1-1V10.8C48.5,9.8,48.5,8.8,49.5,8.8"/>
<text transform="matrix(1 0 0 1 71.5986 18.9221)" class="st1 st2 st3">355C</text>
<path class="st4" d="M120.4,8.6h66.1c1,0,1,1,1,2v10.8c0,1,0,1-1,1h-66.1c-1,0-1,0-1-1V10.6C119.4,9.6,119.4,8.6,120.4,8.6"/>
<text transform="matrix(1 0 0 1 142.4395 18.7756)" class="st1 st2 st3">368C</text>
</svg>
