<?xml version="1.0" encoding="utf-8"?>
<!-- Generator: Adobe Illustrator 25.3.0, SVG Export Plug-In . SVG Version: 6.00 Build 0)  -->
<svg version="1.1" id="Layer_1" xmlns="http://www.w3.org/2000/svg" xmlns:xlink="http://www.w3.org/1999/xlink" x="0px" y="0px"
	 viewBox="0 0 750.2000122 400.1000061" style="enable-background:new 0 0 750.2000122 400.1000061;" xml:space="preserve">
<g>
	<path d="M365.6851196,83.3762512L251.5679321,48.8352356l0.0039062,0.269043
		c-0.0029297,2.828125-0.6508789,8.590332-4.1982422,13.6303711l4.4223633,1.2568359l0.0224609,0.0087891
		c14.7773438,5.793457,23.6777344,18.1953125,29.2553711,30.8510742
		c5.5800781,12.6582031,7.8637695,25.6181641,9.3813477,32.6166992c0.8468628,3.9105835,2.038208,7.3317871,3.3111572,10.2382812
		l57.5441284,11.5953979L365.6851196,83.3762512z"/>
	<path d="M53.9031372,149.1470642l56.5637207-11.3978271c1.2579346-2.8656006,2.4310913-6.2380371,3.2659302-10.0930786
		c1.5175781-6.9985962,3.9769897-19.8822632,9.3813477-32.6166382
		c6.1480103-14.4866943,15.3482056-25.4368896,30.1255493-31.2307739l-0.6364136,0.1794434l4.4226074-1.2565918
		c-3.5473633-5.0401611-3.34729-10.7990112-3.3502197-13.6271362c0-0.2650146-0.0941162-0.0571289-0.0841064-0.2692261
		L39.5621338,83.3763733L53.9031372,149.1470642z"/>
	<path d="M398.8157349,149.2854309l54.6554565-11.0133057c1.3171997-2.9630737,2.5578613-6.463562,3.4312134-10.4949951
		c1.5166016-6.9946289,3.4770508-18.737793,8.6801758-30.8564453c5.199707-12.1147461,13.6577148-24.628418,28.1645508-33.1479492
		l26.0253906-16.6352539c-2.8364258,0.1210938-5.496582,0.2514648-7.9306641,0.3818359l0.0395508-0.0322266
		c-2.1225586,0.1254883-4.0664062,0.2490234-5.8115234,0.3642578c-1.8642578,0.1147461-3.4882812,0.2216797-4.8115234,0.3134766
		c-1.0961914,0.0756836-1.6240234,0.140625-1.8725586,0.1904297l-0.0366211,0.003418l-0.0581055,0.0175781
		c-0.0205078,0.0053711-0.0371094,0.0107422-0.0512695,0.015625l-14.0205078,4.2749023L384.1323853,83.3762512
		L398.8157349,149.2854309z"/>
	<path d="M593.5166626,48.1648254c-3.9609375-0.2739258-12.4428711-0.6884766-20.3964844-1.0273438l24.2368164,16.6352539
		c14.5068359,8.5195312,22.9648438,21.0332031,28.1645508,33.1479492
		c5.203125,12.1186523,7.1635742,23.8618164,8.6801758,30.8564453c0.8364258,3.8610229,2.010376,7.2323608,3.2649536,10.1150513
		v-0.2271118l58.4572754,11.7793579l14.7191772-66.0681763L593.7788696,48.2117004L593.5166626,48.1648254z"/>
</g>
</svg>
