<?xml version="1.0" encoding="utf-8"?>
<!-- Generator: Adobe Illustrator 25.3.0, SVG Export Plug-In . SVG Version: 6.00 Build 0)  -->
<svg version="1.1" id="Layer_1" xmlns="http://www.w3.org/2000/svg" xmlns:xlink="http://www.w3.org/1999/xlink" x="0px" y="0px"
	 viewBox="0 0 750.2 400.1" style="enable-background:new 0 0 750.2 400.1;" xml:space="preserve">
<g>
	<path d="M511.9,47.5c-2.1,0.1-4.1,0.2-5.8,0.4c-1.9,0.1-3.5,0.2-4.8,0.3c-1.1,0.1-1.6,0.1-1.9,0.2l0,0l-0.1,0c0,0,0,0-0.1,0
		l-14,4.3l-9.3,2.8l6.6,16.7c3.3-3.1,7-5.9,11.3-8.4l26-16.6C516.9,47.3,514.3,47.4,511.9,47.5L511.9,47.5z"/>
	<path d="M153.2,63.8l-0.6,0.2l4.4-1.3c-3.5-5-3.3-10.8-3.4-13.6c0-0.3-0.1-0.1-0.1-0.3l-19.2,5.8l6.4,16.2
		C144.4,68,148.6,65.6,153.2,63.8z"/>
	<path d="M617.7,55.4l-23.9-7.2l-0.3,0c-4-0.3-12.4-0.7-20.4-1l24.2,16.6c5,2.9,9.2,6.3,12.9,10l4.4-10.7L617.7,55.4z"/>
	<path d="M270.8,54.6l-19.2-5.8l0,0.3c0,2.8-0.7,8.6-4.2,13.6l4.4,1.3l0,0c4.6,1.8,8.6,4.2,12.1,7.1L270.8,54.6z"/>
</g>
</svg>
