<?xml version="1.0" encoding="utf-8"?>
<!-- Generator: Adobe Illustrator 25.3.0, SVG Export Plug-In . SVG Version: 6.00 Build 0)  -->
<svg version="1.1" id="Layer_1" xmlns="http://www.w3.org/2000/svg" xmlns:xlink="http://www.w3.org/1999/xlink" x="0px" y="0px"
	 viewBox="0 0 750.2 400.1" style="enable-background:new 0 0 750.2 400.1;" xml:space="preserve">
<g>
	<polygon points="300.2,163.2 300.3,150.8 281.1,155.2 	"/>
	<polygon points="300.2,245.6 300.2,232.4 281.1,239.3 	"/>
	<polygon points="300.1,308.7 281.1,317.1 300.1,320.3 	"/>
	<polygon points="104.7,163.1 123.4,155.2 104.7,150.9 	"/>
	<polygon points="104.7,232.5 104.7,245.4 123.4,239.3 	"/>
	<polygon points="104.7,308.9 104.7,320.2 123.4,317.1 	"/>
	<polygon points="643.3,163 643.3,150.9 624.7,155.2 	"/>
	<polygon points="643.3,245.4 643.3,232.5 624.7,239.3 	"/>
	<polygon points="643.2,308.9 624.7,317.1 643.2,320.2 	"/>
	<polygon points="447.8,163.3 467,155.2 447.8,150.8 	"/>
	<polygon points="447.8,232.3 447.8,245.6 467,239.3 	"/>
	<polygon points="447.8,308.6 447.8,320.3 467,317.1 	"/>
</g>
</svg>
