<?xml version="1.0" encoding="utf-8"?>
<!-- Generator: Adobe Illustrator 25.3.0, SVG Export Plug-In . SVG Version: 6.00 Build 0)  -->
<svg version="1.1" id="Layer_1" xmlns="http://www.w3.org/2000/svg" xmlns:xlink="http://www.w3.org/1999/xlink" x="0px" y="0px"
	 viewBox="0 0 750.2 400.1" style="enable-background:new 0 0 750.2 400.1;" xml:space="preserve">
<g>
	<polygon points="300.2,173.1 104.7,173.1 104.7,219.9 300.2,219.9 	"/>
	<path d="M290.8,129.1c2.8,11.2,8.3,18.2,9.6,19.7l14,2.8l18-78.3l-27-8.2L290.8,129.1z"/>
	<path d="M92,151.2l11.6-2.3c1.4-1.6,7.4-9,10.1-21.2c0.2-1.1,0.5-2.4,0.8-3.7l-13.7-59.1L74,72.9L92,151.2z"/>
	<path d="M647.3,64.3l-14,59.3c0.3,1.5,0.6,3,0.9,4.2c1.5,7,4.1,12.4,6.3,16.1c1.1,1.8,2.2,3.5,3,4.5c0.2,0.3,4.1,0.7,4.3,0.9
		l8.1,1.5l18.4-78.3L647.3,64.3z"/>
	<path d="M434.5,151.2l12.7-2.4c0.2-0.2,0.4-0.5,0.6-0.8c0.7-0.9,1.7-2.3,2.8-4.2c2.2-3.7,4.8-9.1,6.3-16.1c0.2-0.7,0.3-1.5,0.5-2.3
		l-13.8-60.2l-27,8.2L434.5,151.2z"/>
</g>
</svg>
