<?xml version="1.0" encoding="utf-8"?>
<!-- Generator: Adobe Illustrator 25.3.0, SVG Export Plug-In . SVG Version: 6.00 Build 0)  -->
<svg version="1.1" id="Layer_1" xmlns="http://www.w3.org/2000/svg" xmlns:xlink="http://www.w3.org/1999/xlink" x="0px" y="0px"
	 viewBox="0 0 750.2000122 400.1000061" style="enable-background:new 0 0 750.2000122 400.1000061;" xml:space="preserve">
<g>
	<path d="M300.2138062,188.2116394l0.0378418-38.2907104l-0.1142578-0.0554199l-0.0610352-0.0648804
		c-0.0241699-0.0266724-3.3788452-3.6096191-6.5148315-10.2113647v50.7433472
		c0.4126587-6.6286621,0.7711792-13.3762207,1.0706787-20.2266846L300.2138062,188.2116394z"/>
	<path d="M110.8845215,176.9398499v-37.043396c-2.7086182,5.614624-5.5386353,8.9627075-6.211792,9.7203369l0.0170288,39.5423584
		l5.8736572-19.0532837C110.6635742,172.3962097,110.7714844,174.672821,110.8845215,176.9398499z"/>
	<path d="M110.5634155,170.1058655l-5.8736572,19.0532837l0.0706177,164.227478
		c0.4975586,0.0296021,1.3869629,0.0823364,2.6196289,0.1544189c1.9799805,0.1158447,4.8395996,0.281311,8.3571777,0.4798584
		c6.7263794,0.3796387,15.8612671,0.8804321,25.8519287,1.3863525c-2.579895-4.3178101-5.6419067-9.0894775-9.2342529-14.354187
		C119.7191162,322.5351868,114.2843018,255.217926,110.5634155,170.1058655z"/>
	<path d="M272.8407593,341.0530701c-3.5753784,5.2398071-6.6255493,9.9914551-9.1978149,14.2931519
		c15.0335083-0.7730713,28.0620117-1.5291748,33.7776489-1.8677368c1.2380371-0.0733032,2.1313477-0.1269531,2.6298828-0.1569824
		l0.1633301-165.1098633l-5.581604-18.1057129C290.9113159,255.217926,285.4765015,322.5351868,272.8407593,341.0530701z"/>
	<path d="M453.4835205,178.3634338v-37.8179321c-2.3334961,4.7474365-4.7210693,7.8220215-5.713562,8.9986572l0.0172119,40.5411987
		l5.3580933-19.9794922C453.2505493,172.8738098,453.3640137,175.6252136,453.4835205,178.3634338z"/>
	<path d="M637.4666748,190.1322327c0.3413086-6.5812988,0.6431885-13.2590332,0.9005737-20.0263062l4.9421997,18.4287109
		l0.0383911-38.8290405c-0.9093628-1.0599365-3.4297485-4.2258911-5.8811646-9.2307129V190.1322327z"/>
	<path d="M470.8966064,357.2124939c-9.809082-29.7674561-14.4537354-100.4003296-17.7513428-187.1066284l-5.3580933,19.9794922
		l0.0692139,163.3677979c0.140625,0.0272827,0.3376465,0.0599365,0.619873,0.0961914
		c0.9135742,0.1181641,2.6477051,0.2746582,5.8598633,0.4552002
		C459.4272461,354.2931213,464.9381714,355.5198669,470.8966064,357.2124939z"/>
	<path d="M621.0079956,356.0006409c4.0236206-0.9320679,7.9179688-1.5852051,11.7145996-1.7988281
		c7.2260742-0.4025269,9.6689453-0.7327271,10.4240723-0.8779297l0.1627808-164.7892456l-4.9421997-18.4287109
		C635.1137695,255.6509094,630.5498047,325.5560608,621.0079956,356.0006409z"/>
	<path d="M351.3104248,149.3017273l-57.5441284-11.5953979c2.6986084,6.161499,5.7670898,9.9863281,6.7196045,11.0917969
		l48.8227539,9.684082L351.3104248,149.3017273z"/>
	<path d="M53.9031372,149.1470642l2.0354614,9.335022l47.7236328-9.5999756
		c0.9591064-1.112793,4.0814209-4.9293213,6.8046265-11.1328735L53.9031372,149.1470642z"/>
	<path d="M450.5957642,143.8381653c0.9286499-1.5474854,1.9214478-3.4200439,2.8754272-5.56604l-54.6554565,11.0133057
		l1.8811035,8.4438477l46.4306641-8.9267578c0.1757812-0.2114258,0.3754883-0.4555664,0.6210938-0.7724609
		C448.4800415,147.0867004,449.4907837,145.6804504,450.5957642,143.8381653z"/>
	<path d="M637.4666748,137.8921814c1.0041504,2.3071899,2.0588379,4.3082275,3.041687,5.9459839
		c1.1049805,1.8422852,2.2329102,3.512207,2.9643555,4.4555664c0.2456055,0.3168945,4.1303711,0.706543,4.3061523,0.9179688
		l46.2993164,8.5175781l1.8457642-8.2848511l-58.4572754-11.7793579V137.8921814z"/>
</g>
</svg>
