<?xml version="1.0" encoding="utf-8"?>
<!-- Generator: Adobe Illustrator 25.3.0, SVG Export Plug-In . SVG Version: 6.00 Build 0)  -->
<svg version="1.1" id="Layer_1" xmlns="http://www.w3.org/2000/svg" xmlns:xlink="http://www.w3.org/1999/xlink" x="0px" y="0px"
	 viewBox="0 0 750.2000122 400.1000061" style="enable-background:new 0 0 750.2000122 400.1000061;" xml:space="preserve">
<g>
	<polygon points="300.2211914,180.7438049 104.6860962,180.7438049 104.7025757,218.9422302 300.1834106,218.9422302 	"/>
	<path d="M160.7994385,65.400238c-0.3618164-0.3001709-0.7253418-0.5993042-1.0855713-0.9001465l-0.1014404-0.0848389
		l-0.0899658-0.2418823c-0.2910156-0.2838745-0.5736084-0.5637207-0.8531494-0.8423462l-5.5651855,1.5812378
		c-8.5093384,3.3388062-15.0292969,8.9363403-20.0898438,15.5291748h48.0322876
		c-1.0721436-0.4824829-2.1588745-1.0166626-3.2295532-1.6192017
		C173.0898438,76.1568909,166.2321777,70.54953,160.7994385,65.400238z"/>
	<path d="M271.5704956,80.4414368c-5.06073-6.5928345-11.5809326-12.1903687-20.0905762-15.5291748l-4.7263184-1.3428955
		c-4.9926758,6.611084-13.152832,12.579895-19.1430664,15.2732544c-1.2646484,0.5671997-2.6325684,1.1029663-4.0012207,1.5988159
		H271.5704956z"/>
	<polygon points="104.7141724,245.9084167 104.7305908,284.1069031 300.1189575,284.1069031 300.1567383,245.9084167 	"/>
	<path d="M104.7426758,312.2396545l0.0177002,41.1469727c0.4975586,0.0296021,1.3869629,0.0823364,2.6196289,0.1544189
		c1.9799805,0.1158447,4.8395996,0.281311,8.3571777,0.4798584c7.0352783,0.3970947,16.7027588,0.9266357,27.2313232,1.4560547
		c21.0556641,1.059021,45.5623779,2.1177368,59.3240967,2.1175537c24.0874634,0.0004883,81.2278442-3.2927246,95.1279907-4.1160278
		c1.2380371-0.0733032,2.1313477-0.1269531,2.6298828-0.1569824l0.0406494-41.0818481H104.7426758z"/>
	<path d="M289.5048218,127.6737976c-0.8969727-4.1431274-2.0621948-10.3236694-3.9942017-17.2615967H119.0744019
		c-1.9319458,6.9379272-3.097168,13.1184692-3.9942017,17.2615967c-2.3933716,11.0388184-7.4415894,18.2639771-9.5699463,20.9368286
		h193.5646973C296.9369507,145.9224548,291.894043,138.6933899,289.5048218,127.6737976z"/>
	<path d="M305.5219727,65.1660461l-14.6812134,63.9180298c2.7959595,11.2404785,8.3067017,18.1607056,9.6451416,19.7140503
		l14.0130615,2.779541l17.9831543-78.2512817L305.5219727,65.1660461z"/>
	<path d="M251.7959595,63.9914856l0.0224609,0.0087891c9.5984497,3.7630615,16.7056274,10.3210449,22.0450439,17.9188843
		l5.7164307-24.6052856l-28.0119629-8.4786377l0.0039062,0.269043c-0.0029297,2.828125-0.6508789,8.590332-4.1982422,13.6303711
		L251.7959595,63.9914856z"/>
	<path d="M92.0455322,151.2189026l11.6166992-2.336792c1.4020996-1.6268311,7.4284668-9.0253906,10.0705566-21.2259521
		c0.2386475-1.1005249,0.5042114-2.3610229,0.7972412-3.729126l-13.661499-59.1212158l-26.8735352,8.1403809L92.0455322,151.2189026
		z"/>
	<path d="M153.5915527,48.8352356l-29.5078735,8.9383545l5.7575073,24.7822876
		c5.7087402-8.3370361,13.2342529-14.7619629,23.3984985-18.7471313l-0.6364136,0.1794434l4.4226074-1.2565918
		c-3.5473633-5.0401611-3.34729-10.7990112-3.3502197-13.6271362
		C153.6756592,48.839447,153.581543,49.0473328,153.5915527,48.8352356z"/>
	<path d="M640.5083618,143.8381653c1.1049805,1.8422852,2.2329102,3.512207,2.9643555,4.4555664
		c0.2456055,0.3168945,4.1303711,0.706543,4.3061523,0.9179688l8.0864258,1.4876709l18.4001465-78.2692261l-26.9820557-8.1188965
		l-13.9592285,59.2572632c0.3172607,1.5374146,0.6051636,2.9522705,0.8775635,4.2086182
		C635.7075806,134.728302,638.2974243,140.1540833,640.5083618,143.8381653z"/>
	<path d="M623.6636353,57.204071l-29.8847656-8.9923706l-0.262207-0.046875
		c-3.9609375-0.2739258-12.4428711-0.6884766-20.3964844-1.0273438l24.2368164,16.6352539
		c8.8203735,5.1799927,15.3945312,11.8397827,20.369812,18.9854736L623.6636353,57.204071z"/>
	<path d="M443.559082,65.3228455l-26.9576416,8.1895752l17.8574829,77.725769l12.6685791-2.4356689
		c0.1757812-0.2114258,0.3754883-0.4555664,0.6210938-0.7724609c0.7314453-0.9433594,1.7421875-2.3496094,2.847168-4.1918945
		c2.2109375-3.684082,4.8007812-9.1098633,6.3066406-16.0610352c0.1547852-0.7138062,0.3161011-1.4888916,0.4830933-2.2969971
		L443.559082,65.3228455z"/>
	<path d="M511.8418579,47.5193176l0.0395508-0.0322266c-2.1225586,0.1254883-4.0664062,0.2490234-5.8115234,0.3642578
		c-1.8642578,0.1147461-3.4882812,0.2216797-4.8115234,0.3134766c-1.0961914,0.0756836-1.6240234,0.140625-1.8725586,0.1904297
		l-0.0366211,0.003418l-0.0581055,0.0175781c-0.0205078,0.0053711-0.0371094,0.0107422-0.0512695,0.015625l-14.0205078,4.2749023
		l-17.2169189,5.2303467l5.6769409,24.4353638c4.93927-6.9838257,11.4232178-13.4829712,20.0678101-18.5597534
		l26.0253906-16.6352539C516.9360962,47.2585754,514.2759399,47.3889465,511.8418579,47.5193176z"/>
</g>
</svg>
