<?xml version="1.0" encoding="utf-8"?>
<!-- Generator: Adobe Illustrator 25.3.0, SVG Export Plug-In . SVG Version: 6.00 Build 0)  -->
<svg version="1.1" id="Layer_1" xmlns="http://www.w3.org/2000/svg" xmlns:xlink="http://www.w3.org/1999/xlink" x="0px" y="0px"
	 viewBox="0 0 750.2000122 400.1000061" style="enable-background:new 0 0 750.2000122 400.1000061;" xml:space="preserve">
<g>
	<polygon points="104.40979,193.1192322 132.8638916,207.8866882 132.8638916,183.322052 104.399353,168.5201721 	"/>
	<polygon points="132.8638916,226.5219421 104.4177246,211.7726746 104.4281616,236.3525085 132.8638916,251.0866394 	"/>
	<polygon points="132.8638916,284.6512756 132.8638916,270.5689392 104.4364624,255.839325 104.4468994,280.3999329 
		132.8638916,295.1335754 	"/>
	<path d="M132.8638916,337.5393982v-23.7705688l-28.4090576-14.7442627l0.010437,24.5261841l26.822876,13.9371948
		C131.8154297,337.5050964,132.3296509,337.5221863,132.8638916,337.5393982z"/>
	<polygon points="272.7444458,207.8866882 299.925415,193.8766785 299.9497681,169.2745056 272.7444458,183.322052 	"/>
	<polygon points="272.7444458,251.0866394 299.8826904,237.1185608 299.9069824,212.5332947 272.7444458,226.5219421 	"/>
	<polygon points="299.8634033,256.6109924 272.7444458,270.5689392 272.7444458,284.6512756 272.7444458,295.1335754 
		299.8391113,281.1803284 	"/>
	<path d="M299.7963867,324.3427429l0.024292-24.5300293l-27.0762329,13.9561157v23.7705688
		c0.5341797-0.0172119,1.0484619-0.0343018,1.5756836-0.0514526L299.7963867,324.3427429z"/>
	<polygon points="447.6112671,192.203949 477.6160889,208.8867493 477.6160889,184.322113 447.600769,167.6613464 	"/>
	<polygon points="477.6160889,227.5220032 447.6192627,210.8302307 447.6298218,235.3918152 477.6160889,252.0867004 	"/>
	<polygon points="477.6160889,285.6513367 477.6160889,271.5690002 447.6381836,254.8785095 447.6487427,279.4578552 
		477.6160889,296.1336365 	"/>
	<path d="M477.6160889,338.5394592v-23.7705688l-29.9593506-16.6573486l0.0105591,24.6165161l28.3731079,15.7599487
		C476.567627,338.5051575,477.0819092,338.5222473,477.6160889,338.5394592z"/>
	<polygon points="614.7160645,208.8867493 643.128479,193.3774719 643.152832,168.8079529 614.7160645,184.322113 	"/>
	<polygon points="614.7160645,252.0867004 643.0855103,236.5942688 643.1099243,212.0188293 614.7160645,227.5220032 	"/>
	<polygon points="643.0661621,256.0870667 614.7160645,271.5690002 614.7160645,285.6513367 614.7160645,296.1336365 
		643.041748,280.667572 	"/>
	<path d="M642.9987793,323.9143372l0.0244141-24.597229l-28.3071289,15.4517822v23.7705688
		c0.5342407-0.0172119,1.0484619-0.0343018,1.5757446-0.0514526L642.9987793,323.9143372z"/>
</g>
</svg>
