<?xml version="1.0" encoding="utf-8"?>
<!-- Generator: Adobe Illustrator 25.3.0, SVG Export Plug-In . SVG Version: 6.00 Build 0)  -->
<svg version="1.1" id="Layer_1" xmlns="http://www.w3.org/2000/svg" xmlns:xlink="http://www.w3.org/1999/xlink" x="0px" y="0px"
	 viewBox="0 0 750.2 400.1" style="enable-background:new 0 0 750.2 400.1;" xml:space="preserve">
<g>
	<path d="M295.9,144c-2.2-3.8-4.9-9.3-6.4-16.3c-1.5-7-3.8-19.9-9.3-32.4c-5.5-12.5-14.3-24.7-28.7-30.3l-4.7-1.3
		c-5,6.6-13.2,12.6-19.1,15.3c-5.9,2.6-14,4.7-14,4.7l-0.5,0.1l0-0.1c-3.8,0.9-7.6,1.5-11.4,1.5c-0.4,0-0.7,0-1.1,0
		c-2.9-0.1-5.7-0.5-8.4-1.1l0,0.1l-0.5-0.1c0,0-7.3-1.4-13.9-5.1c-4.7-2.7-11.6-8.3-17-13.4c-0.4-0.3-0.7-0.6-1.1-0.9l-0.1-0.1
		l-0.1-0.2c-0.3-0.3-0.6-0.6-0.9-0.8l-5.6,1.6c-14.4,5.7-23.2,17.8-28.7,30.3c-5.5,12.5-7.8,25.4-9.3,32.4c-1.5,7-4.1,12.5-6.4,16.3
		l84.7,15.7l9.9,1.5L295.9,144z"/>
	<path d="M351.3,149.3l14.4-65.9L251.6,48.8l0,0.3c0,2.8-0.7,8.6-4.2,13.6l4.4,1.3l0,0c14.8,5.8,23.7,18.2,29.3,30.9
		c5.6,12.7,7.9,25.6,9.4,32.6c0.8,3.9,2,7.3,3.3,10.2L351.3,149.3z"/>
	<path d="M53.9,149.1l56.6-11.4c1.3-2.9,2.4-6.2,3.3-10.1c1.5-7,4-19.9,9.4-32.6c6.1-14.5,15.3-25.4,30.1-31.2l-0.6,0.2l4.4-1.3
		c-3.5-5-3.3-10.8-3.4-13.6c0-0.3-0.1-0.1-0.1-0.3l-114,34.5L53.9,149.1z"/>
	<path d="M398.8,149.3l54.7-11c1.3-3,2.6-6.5,3.4-10.5c1.5-7,3.5-18.7,8.7-30.9c5.2-12.1,13.7-24.6,28.2-33.1l26-16.6
		c-2.8,0.1-5.5,0.3-7.9,0.4l0,0c-2.1,0.1-4.1,0.2-5.8,0.4c-1.9,0.1-3.5,0.2-4.8,0.3c-1.1,0.1-1.6,0.1-1.9,0.2l0,0l-0.1,0
		c0,0,0,0-0.1,0l-14,4.3L384.1,83.4L398.8,149.3z"/>
	<path d="M593.5,48.2c-4-0.3-12.4-0.7-20.4-1l24.2,16.6c14.5,8.5,23,21,28.2,33.1c5.2,12.1,7.2,23.9,8.7,30.9
		c0.8,3.9,2,7.2,3.3,10.1v-0.2l58.5,11.8l14.7-66.1L593.8,48.2L593.5,48.2z"/>
</g>
</svg>
