<?xml version="1.0" encoding="utf-8"?>
<!-- Generator: Adobe Illustrator 25.3.0, SVG Export Plug-In . SVG Version: 6.00 Build 0)  -->
<svg version="1.1" id="Layer_1" xmlns="http://www.w3.org/2000/svg" xmlns:xlink="http://www.w3.org/1999/xlink" x="0px" y="0px"
	 viewBox="0 0 750.2 400.1" style="enable-background:new 0 0 750.2 400.1;" xml:space="preserve">
<g>
	<path d="M245.3,180c0.1-2-1.7-0.9-2.6-1.2c0.2,2.5-1.1,3.2-3.4,2.8c0.4,1.6,0.1,2.6-1.9,2.7c-8,0.5-15.9,0.5-23.8,0.1
		c-0.2,0-0.3,0-0.5-0.1c-0.2,0-0.3,0-0.5,0c-0.6,0-1.1,0.1-1.7,0.1c-0.6,0.5-1.2,0.3-1.8,0.2c-0.7,1.2-0.1,2.5-0.3,3.7
		c-0.1,0.8,0.5,2-1.2,1.9c-1.1,0-1.8-0.3-1.6-1.5c0.2-1.1-0.5-1.3-1.5-1.4c-1.1,0-1.5,0.4-1.3,1.4c0.2,1.3-0.6,1.5-1.7,1.5
		c-0.9,0-1.8,0-2.7-0.1c-2.4-0.1-4.9-0.4-7.3,0c-1.2,0.2-2.3,1.7-3.5-0.1c-1,0.2-1.9,0.3-2.9,0c-0.9,0-1.8,0.1-2.7,0.1
		c0,0.9,2.5,0.6,1.1,2.4c-0.3,0.3,0.8,0.3,1.3,0.3c6.7,0,13.4,0.1,20.1,0.1c11.1,0,22.3,0,33.4,0.1c2.2,0,4.4,0,6.6,0
		c7,0,14.1,0,21.1-0.1v-11.3c-6.1,0-12.3,0-18.4,0C246.5,181.6,245.3,181.9,245.3,180z"/>
	<path d="M259.6,212.1V212c-0.7-0.7-0.2-1.5-0.4-2.3c-0.1-0.1-0.3-0.2-0.5-0.2c-9,0.4-18,0.4-27-0.1c-1.9,0-3.8,0-5.7,0
		c-2.1,0.5-4.1,0.5-6.2,0c-0.7,0-1.4,0-2.1,0c-0.3,0.2-0.5,0.3-0.8,0c-0.7,0.1-1.3,0.1-2,0.2c-1.1,0.5-2.2,2.4-3.5,0.3
		c-0.1,0-0.2,0.1-0.3,0.2c0.9,1.6-0.4,1.2-1.1,1.4c0.2,0.2,0.4,0.4,0.6,0.7c2.9,0.1,5.8,0.3,8.7,0.3c10,0,19.9,0,29.9,0
		c1.5,0,2.4,0.4,1.9,1.9c-0.5,1.6-2,0.8-3,0.8c-25.7,0.1-51.5,0-77.2,0c-8.1,0-16.2,0-24.4,0c-1.5,0-2.3,0.2-2,1.9
		c0.3,1.4,1.4,0.9,2.2,0.9c7.9,0,15.9,0,23.8,0c0.9,0,2.2-0.5,2.1,1.2c-0.1,2.6,1.8,1.5,2.9,1.5c1.1,0,3,0.9,2.7-1.6
		c-0.1-1.1,0.6-1.1,1.4-1.1c0.8,0,1.5,0,1.4,1.1c-0.3,2,1,1.7,2.2,1.7c10.6,0,21.2,0,31.8,0c17,0,34,0,51,0v-8.3c-1.8,0-3.7,0-5.5,0
		C260.2,212.5,259.9,212.2,259.6,212.1z"/>
	<path d="M263.7,172.9c-9.3,0-18.6,0-27.9,0c-0.8,0-1.9-0.4-1.9,1.2c0,1.1,0.2,1.8,1.5,1.6c1.1-0.1,1.4,0.5,1.3,1.5
		c-0.1,1.2,0.6,1.4,1.5,1.3c1.4-0.1,2.8-0.1,4.3-0.1c-0.1-1.7,0.3-2.7,2.6-2.6c5.9,0.2,11.9,0.1,17.8,0.1c1.1,0,2.3-0.2,2.1,1.6
		c-0.2,1,0.4,1.2,1,1.2v-5.8C265.2,172.9,264.5,172.9,263.7,172.9z"/>
	<path d="M242.7,178.6c0,0,0,0-0.1-0.1C242.6,178.6,242.7,178.6,242.7,178.6z"/>
	<path d="M239.4,195.5c-8.9-0.4-17.7,0.4-26.6-0.3c-1.4-0.1-3,0.3-4.5,0.2c-9.1,0.1-18.2,0.1-27.3,0.2c-0.1,0.9-0.2,1.8-0.3,2.7
		c6.7,1.3,13.4-0.1,20.1,0c8.8,0.1,17.5-0.2,26.3,0.1c4.2,0.2,8.3-0.3,12.5-0.1c4.7,0.6,9.4-0.2,14.1,0c4.1,0,8.2,0,12.3,0v-2.9
		c-5.2,0-10.4,0-15.6,0.1C246.7,195.5,243,195.5,239.4,195.5z"/>
	<path d="M144.8,207.1c2,0.4,3.9-1.2,6-0.4c1.6,0.1,3.2,0.2,4.8,0.4c2.2-0.8,4.5-0.6,6.8-0.2c0.6,0,1.3,0,1.9,0
		c0.4-0.1,0.9-0.1,1.3-0.2c0.3,0,0.6,0,0.9,0c2.1-0.3,4.2-0.1,6.3,0c1,0.1,1.9,0.1,2.9,0.2c0.5-0.4,0.9-0.5,1.3,0
		c0.9-0.1,1.8-0.1,2.6-0.2c3.9-0.4,7.8-0.4,11.7,0c1-0.4,2,0,3.1,0.1c4.4-0.7,8.9-0.3,13.3-0.2c1.5,0,3-0.6,4.4,0.3
		c0.3,0,0.6,0,0.9,0c0.2,0,0.4-0.1,0.5-0.1c0.6-0.2,1.2-0.4,1.9,0c1.9,0,3.9-0.1,5.8-0.1c1-0.2,2.1-0.6,3.1,0.1
		c3.1,0.1,6.1,0.2,9.2,0.2c-0.8-2-3.1-2.1-4.5-3.2c-0.3,0-0.6,0-0.9,0c-0.7,0.2-1.5,0.3-2.2,0.5c0-0.2,0-0.4,0.1-0.6
		c0-0.9,0-1.8-0.1-2.7c-0.9,0-1.9,0-2.8,0c-0.3,0.9,0.9,2.5-0.9,2.8c-2.8,0.5-1.5-1.7-1.7-2.8c-2.5-0.8-2.6,1.4-3.2,2.8
		c-17.9,0-35.8,0.1-53.7,0.1c-8.4,0-16.8,0-25.2,0v2.9C140.5,206.6,142.7,206.6,144.8,207.1z"/>
	<path d="M144.6,191c-0.4,0-1,0.3-1.1-0.4c0-0.3,0-0.8,0.2-0.9c0.3-0.2,0.7,0,0.9,0.4c0.2,0,0.4,0.1,0.6,0.1
		c0.9-0.2,1.7-0.5,2.6-0.7c0.6-1.4,0.3-2.1-1.3-2.1c-0.7,0-1.4,0.4-2-0.2c-0.5,0.1-1,0.1-1.5,0.2c-0.2,0.3-0.5,0.9-0.5,0.9
		c-1.3-0.6-2.7-0.9-4.1-1v5.5c1.3,0,2.5,0,3.8,0C143.4,192.8,144.9,193.1,144.6,191z"/>
	<path d="M146.1,175.9c2.6,0,5.3,0.1,7.9,0c0.9,0,1.7,0,1.5,1.3c-0.3,1.8,1,1.5,2,1.5c7,0,14,0,21,0c1.3,0,2.5-0.1,2.2,1.8
		c-0.1,0.9,0.4,1.1,1.1,1.1c3,0,6,0,9,0c0.8,0,1.2-0.3,1.2-1.1c0-0.6,0.2-1.7-0.6-1.6c-3,0.3-2.4-1.8-2.3-3.4c0.2-2-0.7-2.4-2.5-2.3
		c-6.6,0.1-13.3,0-20,0c-6.7-0.1-13.6-0.1-20.5-0.1c-1.1,0-1.9,0.1-1.9,1.6C144.2,176.3,145.2,175.9,146.1,175.9z"/>
	<path d="M156,201.2c0.2,0,0.4,0,0.7,0c0.2,0,0.3,0,0.5-0.1c-1.1-0.8-2.2-1.6-3.4-2.4c2.4,0.1,5.1-1.4,7.2,0.8
		c0.5,0.5,1.1,0,1.4-0.2c1.4-1,3.1-0.9,4.7-0.9c2.8-0.1,5.5,0.6,8.3,0c-0.1-0.9-0.2-1.8-0.3-2.7c-12.2,0-24.4,0-36.6,0
		c0.3,1,0.2,1.6-0.1,2.1v3.4C144.3,201.3,150.2,201.1,156,201.2z"/>
	<path d="M201.3,178.7c0.6,0,1.3,0,1.9,0c1.4,0,3.1-0.5,2.8,2c-0.1,0.8,0.5,0.8,1.1,0.8c2,0,4,0,6,0c1.1,0,1.4-0.5,1.4-1.5
		c0-1.1-0.5-1.4-1.5-1.4c-1.7,0-3.5,0-5.2,0c-0.8,0-1.8,0.4-1.9-1.2c0-1.5,0.7-1.6,1.8-1.6c4.2,0,8.5,0.6,12.6-0.2
		c3.2-0.6,2,4.3,5,3.2c0.3-0.1,0.4,0.7,0.3,1.2c-0.1,1,0.2,1.4,1.3,1.5c1.3,0,1.6-0.5,1.5-1.6c-0.1-1,0.4-1.2,1.3-1.3
		c3.2-0.4,1-2.8,1.4-4.3c0.5-1.6-1-1.3-1.9-1.3c-4.9,0-9.8,0-14.8,0s-10,0-15,0c-0.7,0.1-1.5-0.3-1.8,1.1
		C196.9,177.9,197.5,178.7,201.3,178.7z"/>
	<path d="M163.7,190.1c-1.1,0.2-2.1,0.3-3.2,0.5c0.5,0.7,0.9,1.5,1.4,2.2c4.6,0,9.3-0.1,13.9-0.2c0.8,0,1.9,0.5,2.4-0.7
		c0.1-0.3,0.8-0.1,0.6-0.7c-0.1-0.4-0.5-0.4-0.8-0.5c-0.5-0.1-1.7,1.3-1.6-0.6C172.1,189.7,167.9,190.1,163.7,190.1z"/>
	<path d="M164.8,211c-0.2,0.1-1.8,0.2-0.4,1.1c2.4,0.1,4.7,0.5,7.5,0.1c-1.7-1.2-3.8-1.1-4.7-2.8c-0.3,0.6-0.9,0.2-1.3,0.3
		C166.6,211.2,165.4,210.8,164.8,211z"/>
	<path d="M140,175.9c1,0,1.5-0.2,1.5-1.3c0-1.2-0.4-1.6-1.6-1.5c-1.1,0-1.4,0.5-1.3,1.5C138.4,175.7,139,175.9,140,175.9z"/>
	<path d="M175.9,201c2.5,0,5,0,7.6,0C181,200,178.4,200,175.9,201z"/>
	<path d="M236.7,205.7c-1.1,0.3-1.1-0.8-1.4-1.6c-0.5-0.1-0.9-0.1-1.4-0.2c-0.3,1.1,1.4,1.5,1,2.6c1.1,0,2.2,0,3.3,0
		c0.1-0.8,0-1.7,0.6-2.4c-0.7-0.4-1.4-0.2-2.2-0.2C236.6,204.6,237.4,205.5,236.7,205.7z"/>
	<path d="M239.5,206.5c-0.3,0-0.5,0-0.8,0C239,206.9,239.2,207,239.5,206.5z"/>
	<path d="M209.7,211.4c0-0.1-0.1-0.1-0.1-0.2C209.6,211.3,209.6,211.4,209.7,211.4L209.7,211.4z"/>
	<path d="M262.4,226.1c-1.1,0.1-2.3,0.6-3.3-0.4c-0.9,0-1.8-0.1-2.7-0.1c-0.9,0.1-1.8,0.1-2.7,0.2c-0.4,0.9-1.1,0.5-1.7,0.4
		c-4.9,0-9.8,0-14.7,0c-0.9,0.3-1.9,0.3-2.8,0c-4.2,0-8.3,0-12.5,0c-0.6,0-1.1,0-1.7,0c-10.9,0-21.9,0-32.8,0c1.2-1,2.6-0.5,3.9-0.5
		c4.7-0.1,9.5,0,14.7,0c-1.1-1.7-2.1-2-3.5-2c-7,0-14.1,0-21.1,0c-10.4,0-20.8-0.1-31.2-0.2c-1.4,0-3.1,0.5-2.9-1.9
		c0-0.8-0.8-0.8-1.5-0.8c-2.5,0-5,0-7.5,0v5.7H266v-0.3c-0.7,0-1.3,0-2,0C263.5,226.2,262.9,226.1,262.4,226.1z"/>
	<path d="M263.8,200.9c-1,0.1-2,0-3,0c-1.4,0-2.7,0.1-4.1,0.1c0.1,2.5-1.3,3-3.5,2.9c-2.4-0.2-4.8,0.5-7.2-0.1
		c-0.2,0.3-0.4,0.5-0.7,0.1c-2,0.1-4-0.3-6,0.3c0.9,1.3,2.4,0.3,3.5,0.9c-0.5,1.5-2.3,0.1-2.8,1.4c3.6,0.1,7.2,0.1,10.8,0.2
		c2.8-0.2,5.6-0.3,8.4,0.1c2.3,0,4.5,0,6.8,0v-5.9C265.3,200.8,264.5,200.8,263.8,200.9z"/>
</g>
</svg>
