<?xml version="1.0" encoding="utf-8"?>
<!-- Generator: Adobe Illustrator 25.3.0, SVG Export Plug-In . SVG Version: 6.00 Build 0)  -->
<svg version="1.1" id="Layer_1" xmlns="http://www.w3.org/2000/svg" xmlns:xlink="http://www.w3.org/1999/xlink" x="0px" y="0px"
	 viewBox="0 0 120 105" style="enable-background:new 0 0 120 105;" xml:space="preserve">
<style type="text/css">
	.st0{fill:#FFFFFF;}
	.st1{fill:#00205C;}
	.st2{fill:#FEFEFE;}
	.st3{fill:#FFFFFF;stroke:#FFFFFF;stroke-width:0.7569;}
	.st4{fill:url(#SVGID_1_);}
	.st5{fill:#8E5928;}
	.st6{fill:#502C1E;}
	.st7{fill:#00945E;}
	.st8{fill:#A73439;}
</style>
<g>
	<path class="st0" d="M28.1,14.1l-1.3,0.2v39.1c0,0.3,0,7.6,4.1,15.9c2.4,4.9,5.7,9.2,9.8,12.6c5.1,4.3,11.6,7.5,19.1,9.3l0.2,0
		c0,0,0.3,0.1,0.3,0.1l0.3-0.1l0.2,0c7.5-1.8,13.9-5,19.1-9.3c4.1-3.5,7.4-7.7,9.8-12.6c4.1-8.3,4.1-15.6,4.1-15.9V14.4l-1.3-0.2
		c-0.1,0-14.6-2.7-32.2-2.7C42.7,11.4,28.2,14.1,28.1,14.1z"/>
	<path class="st1" d="M92.2,14.9c-0.1,0-14.4-2.7-32-2.7c-17.6,0-31.9,2.7-32,2.7l-0.6,0.1v38.4c0,0.3,0,7.4,4,15.5
		c2.3,4.8,5.6,9,9.6,12.4c5,4.2,11.3,7.3,18.7,9.1l0.2,0l0.1,0l0.1,0l0.2,0c7.4-1.8,13.7-4.9,18.7-9.1c4-3.4,7.3-7.6,9.6-12.4
		c4-8.2,4-15.3,4-15.5c0,0,0-31.8,0-31.8v-6.6L92.2,14.9z"/>
	<g>
		<path class="st2" d="M78.3,80.2c-0.1,0.1-0.2,0.2-0.3,0.2V38.5h-7.4v46.7c-2,1-4.2,1.9-6.5,2.7V38.5h-7.9v49.2
			C53.8,87,51.5,86,49.5,85V38.5h-7.4V80c-2.5-2.1-4.7-4.5-6.5-7.2V38.5h-6.4V16.3c2.9-0.5,15.8-2.6,31.1-2.6
			c15.3,0,28.2,2.1,31.1,2.6v22.2h-6.7v34.6C82.8,75.8,80.7,78.1,78.3,80.2z"/>
	</g>
	<g>
		<path class="st1" d="M35.7,24h1.8l5,11.5h-2.4L39,32.8H34l-1.1,2.6h-2.3L35.7,24z M38.3,31.1l-1.8-4.7l-1.8,4.7H38.3z"/>
		<path class="st1" d="M43.3,24h2.1v9.6h5v1.8h-7V24z"/>
		<path class="st1" d="M51.3,24h4.5c1.8,0,3.6,0.8,3.6,2.9c0,1.3-0.8,2.2-2,2.5v0c1.5,0.2,2.5,1.3,2.5,2.8c0,2.5-2.2,3.3-4.4,3.3
			h-4.2V24z M53.4,28.7h1.9c1.4,0,2.1-0.6,2.1-1.4c0-1-0.7-1.5-2.3-1.5h-1.7V28.7z M53.4,33.7h1.9c1.1,0,2.6-0.2,2.6-1.7
			c0-1.2-0.8-1.6-2.5-1.6h-2V33.7z"/>
		<path class="st1" d="M61,24h2.1v11.5H61V24z"/>
		<path class="st1" d="M70.3,23.7c3.6-0.1,6.2,2.3,6.2,6c0,3.6-2.6,6-6.2,6c-3.6,0-6.2-2.4-6.2-6C64.2,26.1,66.7,23.7,70.3,23.7z
			 M70.3,33.9c2.4,0,4-1.8,4-4.3c0-2.3-1.6-4.1-4-4.1c-2.4,0-4,1.8-4,4.1C66.3,32.1,67.9,33.9,70.3,33.9z"/>
		<path class="st1" d="M77.7,24h2.8l5.7,8.5l0,0h0l0,0V24h2.1v11.5h-2.6l-5.8-8.8h0v8.8h-2.1V24z"/>
	</g>
	<g>
		<path class="st1" d="M30.8,17.8h0.9l0.9,3.3h0l1-3.3h0.8l1,3.3h0l0.9-3.3h0.8l-1.3,4.5H35L34,18.9h0l-1.1,3.4h-0.8L30.8,17.8z"/>
		<path class="st1" d="M37.8,17.8h3v0.7h-2.2v1.1h2.1v0.7h-2.1v1.2H41v0.7h-3.2V17.8z"/>
		<path class="st1" d="M44.2,18.8c-0.2-0.2-0.5-0.4-0.8-0.4c-0.4,0-0.8,0.2-0.8,0.6c0,0.9,2.2,0.4,2.2,2c0,1-0.8,1.4-1.7,1.4
			c-0.6,0-1.1-0.2-1.5-0.6l0.6-0.6c0.2,0.3,0.5,0.5,0.9,0.5c0.4,0,0.8-0.2,0.8-0.6c0-1-2.2-0.4-2.2-2c0-0.9,0.8-1.4,1.7-1.4
			c0.5,0,1,0.1,1.3,0.5L44.2,18.8z"/>
		<path class="st1" d="M46.8,18.6h-1.4v-0.7H49v0.7h-1.4v3.8h-0.8V18.6z"/>
		<path class="st1" d="M51.8,17.8h1.8c0.7,0,1.4,0.3,1.4,1.1c0,0.5-0.3,0.8-0.8,1v0c0.6,0.1,1,0.5,1,1.1c0,1-0.9,1.3-1.7,1.3h-1.7
			V17.8z M52.6,19.7h0.7c0.5,0,0.8-0.2,0.8-0.6c0-0.4-0.3-0.6-0.9-0.6h-0.7V19.7z M52.6,21.7h0.8c0.4,0,1-0.1,1-0.7
			c0-0.5-0.3-0.6-1-0.6h-0.8V21.7z"/>
		<path class="st1" d="M56,17.8h1.6c0.9,0,1.7,0.3,1.7,1.3c0,0.6-0.4,1.1-1.1,1.2l1.2,2h-1l-1.1-1.9h-0.6v1.9H56V17.8z M57.5,19.8
			c0.5,0,1,0,1-0.6c0-0.5-0.5-0.6-0.9-0.6h-0.7v1.2H57.5z"/>
		<path class="st1" d="M62.3,17.7c1.4,0,2.4,0.9,2.4,2.4c0,1.4-1,2.4-2.4,2.4c-1.4,0-2.4-0.9-2.4-2.4C59.9,18.7,60.9,17.7,62.3,17.7
			z M62.3,21.7c1,0,1.6-0.7,1.6-1.7c0-0.9-0.6-1.6-1.6-1.6c-0.9,0-1.6,0.7-1.6,1.6C60.7,21,61.3,21.7,62.3,21.7z"/>
		<path class="st1" d="M65.5,17.8h1.2L68,21l1.2-3.2h1.2v4.5h-0.8v-3.7h0l-1.4,3.7h-0.6l-1.4-3.7h0v3.7h-0.8V17.8z"/>
		<path class="st1" d="M71.1,17.8H72l0.9,3.3h0l1-3.3h0.8l1,3.3h0l0.9-3.3h0.8l-1.3,4.5h-0.8l-1.1-3.4h0l-1.1,3.4h-0.8L71.1,17.8z"
			/>
		<path class="st1" d="M78.1,17.8h0.8v4.5h-0.8V17.8z"/>
		<path class="st1" d="M83,18.9c-0.3-0.4-0.6-0.4-1-0.4c-0.9,0-1.6,0.7-1.6,1.6c0,1,0.6,1.7,1.6,1.7c0.4,0,0.7-0.2,1-0.5l0.7,0.5
			c-0.4,0.6-1,0.8-1.7,0.8c-1.4,0-2.4-0.9-2.4-2.4c0-1.4,1-2.4,2.4-2.4c0.6,0,1.2,0.2,1.6,0.7L83,18.9z"/>
		<path class="st1" d="M84.5,17.8h0.8v1.8h2.1v-1.8h0.8v4.5h-0.8v-2h-2.1v2h-0.8V17.8z"/>
	</g>
	<g>
		<path class="st0" d="M73.8,76.9l0-0.1c-0.1-0.3-0.4-1.4-1-2c1.4-0.2,3-0.7,3.8-1.9l0.2-0.3l-0.2-0.3c-0.9-1.1-2.6-1.6-4-1.8
			c0.5-0.7,0.7-1.5,0.8-1.7l0.1-0.7c0,0-0.4,0.1-0.7,0.1c-0.1,0-0.3,0-0.4,0c-0.6-0.1-1.5,0-1.6,0c-0.6,0.1-1,0.2-1.5,0.4
			c0.2-0.5,0.2-1.1,0.2-1.4c0-0.1,0-0.1,0-0.2c0-0.4-0.5-1.8-0.6-2.1l-0.2-0.3c0.5,0,1.3,0,2.2,0.3c0.2,0.1,3.3,1,6.7,2.6
			c0.1,0.1,3.6,1.9,6.2,0.4c0,0,0.3-0.3,0.4-0.6l-1.9-1c0,0,1.3,0.2,2.1-0.2c-0.3-1.4-1.4-1.9-1.4-1.9c0.9,0.1,1.4-0.2,1.4-0.2
			c-0.1-0.2-0.2-0.5-0.2-0.5c-0.1-0.1-0.8-1.5-3.3-2.5c0-0.1,0.1-0.2,0.1-0.2c0,0,0,0.1,0,0.1c0-0.1,0-0.1,0-0.2
			c0-0.4-0.5-1.6-4.3-3.3l0,0l0,0c-0.1,0-2.5-1.1-4.3-1.5c-1-0.9-8.9-7-18.7-9.1c-0.4-0.6-1.5-2.1-2.1-2.7c-0.2-0.3-2.1-2.6-5-2.6
			c0,0-1.4,0-2.6,0.6c-0.3,0-0.6-0.1-0.6-0.1c-1.5-0.8-2.7-1.4-2.7-1.4l-0.1,0l-0.1,0c-0.6-0.1-0.9,0.2-0.9,0.3
			c-0.2,0.4-0.1,0.7,0,0.8l0,0c0.1,0.3,0.7,1,1.2,1.6c-1-0.1-1.6,0-1.9,0l0,0c0,0,0,0,0,0c0,0,0,0,0,0c-0.4,0.1-0.5,0.3-0.6,0.4
			c0,0.1-0.1,0.2-0.1,0.3c0,0.2,0.1,0.4,0.1,0.5l0,0c0.1,0.1,0.2,0.4,1.1,0.8c0.9,0.4,2.4,1.3,2.5,1.4c0.7,0.5,1.4,2.6,1.6,3.8l0,0
			c0.6,2.4,1.2,4.2,1.4,4.7c0.6,2,1.9,5.8,5.5,8.4l0,1.2c0,0.3-0.1,1.3-0.1,1.6l0,0c0,0.1,0,0.2,0,0.4c0,0.3,0,0.8,0.1,1.2
			c-0.4-0.2-0.8-0.3-1.3-0.4c0,0-0.9-0.2-1.5-0.1c-0.1,0-0.3,0-0.4,0c-0.3,0-0.7-0.3-0.7-0.3l0.1,0.8c0,0.1,0.2,1,0.6,1.7
			c-1.3,0.1-2.9,0.5-3.8,1.6l-0.2,0.3l0.2,0.3c0.7,1.2,2.2,1.8,3.4,2.1c-0.5,0.6-0.8,1.4-0.9,1.5L46,76c0,0,0.5,0,0.8,0.1
			c0.1,0,0.2,0,0.3,0.1c0.6,0.2,1.5,0.2,1.5,0.2c0.6,0,1.1-0.1,1.5-0.2c0,0.1,0,0.2,0,0.4c0,0.3,0,0.6,0.1,0.8l0,0.4
			c0,0.3-0.1,1.3-0.1,1.6l0,1l0.6-0.6c0.2-0.1,0.8-0.4,1.3-0.5c0.9-0.3,1.6-0.7,2.1-1.1C54,78.5,54,78.9,54,79.5
			c0,0.3,0,0.6,0.1,0.9c0.1,0.4,0.1,0.8,0.1,1.1c0,0.1,0,0.2,0,0.3l-0.1,1l0.8-0.5c0.3-0.2,1.2-0.8,1.4-0.9c0.3-0.2,0.8-0.5,1.3-1
			c0.1,0.4,0.2,0.8,0.4,1.3c0,0,0.4,0.8,0.8,1.3c0.1,0.1,0.2,0.3,0.2,0.3c0.2,0.3,0.3,0.7,0.3,0.7l0.5-0.5c0.1-0.1,0.7-0.7,1.1-1.5
			c0.8,1,2.1,2.1,3.5,2.2l0.3,0l0.1-0.3c0.3-0.5,0.4-1,0.4-1.5c0-0.9-0.3-1.7-0.6-2.4c0.8,0.1,1.7-0.1,1.8-0.2l0.8-0.2
			c0,0,0.2,0,0.2,0c0.3,0.1,0.3,0.1,0.6,0.2c0.4,0.1,1.1,0.4,1.3,0.6l0.8,0.5l0-0.9c0-0.3-0.1-1.2-0.1-1.6c0,0,0-0.1,0-0.1
			c0,0,0,0,0-0.1c0-0.4-0.1-0.9-0.3-1.5C70,76.9,70.5,77,71,77c0,0,1,0,1.6-0.1c0.2,0,0.2,0,0.3,0C72.9,76.9,73.4,76.9,73.8,76.9z
			 M56.5,70.3c-0.3-1.3-1-3.6-3.9-5.2l0,0l0,0c-0.4-0.2-1-0.5-1.1-0.7l-0.6-0.7c1.7,1.2,4,2.1,7,2.5c0.4,0.1,1.6,0.3,2.6,0.4
			c-0.7,0.7-1.9,1.9-2.9,3.3l-0.2,0.3c-0.3,0-0.5,0.1-0.7,0.3C56.6,70.5,56.6,70.4,56.5,70.3z M59.6,72.2c0-0.4-0.2-0.8-0.4-1
			c0.2-0.2,1-0.9,1.9-1.7c-0.3,0.9-0.6,1.8-0.9,2.3L60,72.1C59.9,72.1,59.7,72.2,59.6,72.2z M68.1,65c-0.3,0.5-0.8,0.7-0.8,0.7
			c-1,0.4-1.8,1-2.4,1.5c0.2-0.4,0.5-0.7,0.7-0.9c0,0,0.4-0.4,0.5-0.5c0.3-0.3,1.2-1,1.9-1.1l0,0l0,0c0,0,0.1,0,0.2,0L68.1,65z"/>
		<path class="st3" d="M44.7,46.6c3.5,1.2,0.6-0.9,0.6-0.8C46.5,46.7,44.7,46.6,44.7,46.6z"/>
		<g>
			<path class="st3" d="M46.2,45.5c0,0,0-0.8,0.8-0.8c0.8-0.1,1.3,0.5,1.5,0.8c0.2,0.3,0.3,0.8,0.4,1.1c0,0,0.1,0.3-0.2,0.2
				c-0.3-0.2-0.7-0.4-1.7-0.5C46.3,46.2,46.2,45.5,46.2,45.5z"/>
			<path class="st3" d="M47.3,45.4c0,0.2-0.1,0.3-0.3,0.3c-0.1,0-0.3-0.1-0.3-0.3c0-0.2,0.1-0.3,0.3-0.3
				C47.1,45.2,47.3,45.3,47.3,45.4z"/>
		</g>
		<path class="st3" d="M67.5,58.1c3.8,0.6,2.6-1.2,2.6-1.2c2,0.5,2.2,1.3,2.2,1.4C69.8,59.3,67.5,58.1,67.5,58.1z"/>
		<g>
			<path class="st3" d="M48.3,50.6c0.1,0.3,0.1,0.7,0,0.7c-0.1,0.1-0.4-0.2-0.5-0.5c-0.1-0.3-0.2-0.7,0-0.7
				C47.9,50,48.2,50.2,48.3,50.6z"/>
			<path class="st3" d="M49.6,52.8c0.3,0.4,0.3,0.7,0.2,0.8c-0.1,0.1-0.5-0.1-0.7-0.5c-0.3-0.4-0.3-0.7-0.2-0.8
				C49.1,52.2,49.4,52.4,49.6,52.8z"/>
			<path class="st3" d="M51.3,55.1c0.3,0.5,0.5,1,0.3,1.1c-0.2,0.1-0.6-0.2-0.9-0.6c-0.3-0.5-0.5-1-0.3-1.1
				C50.5,54.3,50.9,54.6,51.3,55.1z"/>
			<path class="st3" d="M53.3,57.5c0.3,0.5,0.5,1,0.3,1.1c-0.2,0.1-0.6-0.2-0.9-0.6c-0.3-0.5-0.5-1-0.3-1.1
				C52.5,56.8,52.9,57.1,53.3,57.5z"/>
			<path class="st3" d="M56.3,62.5c0.6,0.3,1.1,0.8,0.9,1c-0.1,0.2-0.7,0.1-1.4-0.2c-0.6-0.3-1.1-0.8-0.9-1
				C55.1,62.1,55.7,62.2,56.3,62.5z"/>
			<path class="st3" d="M55.9,59.6c0.6,0.4,0.9,0.9,0.7,1.1c-0.2,0.2-0.7,0-1.3-0.4c-0.6-0.4-0.9-0.9-0.7-1.1
				C54.8,59,55.4,59.2,55.9,59.6z"/>
			<path class="st3" d="M59.2,61.4c0.6,0.3,1,0.8,0.9,1c-0.1,0.2-0.7,0.1-1.4-0.2c-0.6-0.3-1-0.8-0.9-1C57.9,61,58.5,61.1,59.2,61.4
				z"/>
		</g>
		
			<linearGradient id="SVGID_1_" gradientUnits="userSpaceOnUse" x1="25.593" y1="39.5413" x2="57.3457" y2="54.3477" gradientTransform="matrix(0.9987 -5.130000e-02 5.130000e-02 0.9987 9.9336 10.2584)">
			<stop  offset="0" style="stop-color:#FFFFFF"/>
			<stop  offset="0.1032" style="stop-color:#FDFCFA"/>
			<stop  offset="0.2213" style="stop-color:#F8F4EC"/>
			<stop  offset="0.3467" style="stop-color:#F0E6D6"/>
			<stop  offset="0.4773" style="stop-color:#E4D3B5"/>
			<stop  offset="0.6106" style="stop-color:#D5BA8D"/>
			<stop  offset="0.6124" style="stop-color:#D5BA8C"/>
		</linearGradient>
		<path class="st4" d="M45.7,54.5c0,0,1.9,11.2,14.4,11.3c3.1,0,2.9-0.4,2.9-0.4l0.2-0.1c0,0,1.8-0.7,1.8-0.8c0-0.1,1.1-1.3,1.1-1.3
			l4.3-3l-9.3-0.9l-4.7-1.9l-2.2-2.3l-1-1.7L53,51.6L51.8,46l-2.3-2.3l-1.9-0.3l-2.8,0.3l-0.9-0.5l-3.1-1.5l2.1,2.7l-3.6-0.2
			l3.4,1.9l1,1.4L45.7,54.5z"/>
		<path class="st5" d="M44.7,46.6c3.5,1.2,0.6-0.9,0.6-0.8C46.5,46.7,44.7,46.6,44.7,46.6z"/>
		<g>
			<path class="st6" d="M46.2,45.5c0,0,0-0.8,0.8-0.8c0.8-0.1,1.3,0.5,1.5,0.8c0.2,0.3,0.3,0.8,0.4,1.1c0,0,0.1,0.3-0.2,0.2
				c-0.3-0.2-0.7-0.4-1.7-0.5C46.3,46.2,46.2,45.5,46.2,45.5z"/>
			<path class="st0" d="M47.3,45.4c0,0.2-0.1,0.3-0.3,0.3c-0.1,0-0.3-0.1-0.3-0.3c0-0.2,0.1-0.3,0.3-0.3
				C47.1,45.2,47.3,45.3,47.3,45.4z"/>
		</g>
		<path class="st6" d="M47.6,52.7c0.2,0.4,0.2,0.8,0,0.9c-0.2,0.1-0.5-0.2-0.7-0.6c-0.2-0.4-0.2-0.8,0-0.9
			C47.1,52,47.4,52.3,47.6,52.7z"/>
		<path class="st6" d="M48.3,50.6c0.1,0.3,0.1,0.7,0,0.7c-0.1,0.1-0.4-0.2-0.5-0.5c-0.1-0.3-0.2-0.7,0-0.7
			C47.9,50,48.2,50.2,48.3,50.6z"/>
		<path class="st6" d="M49.6,52.8c0.3,0.4,0.3,0.7,0.2,0.8c-0.1,0.1-0.5-0.1-0.7-0.5c-0.3-0.4-0.3-0.7-0.2-0.8
			C49.1,52.2,49.4,52.4,49.6,52.8z"/>
		<path class="st6" d="M48.9,55.5c0.3,0.5,0.4,1,0.2,1.1c-0.2,0.1-0.6-0.2-0.9-0.7c-0.3-0.5-0.4-1-0.2-1.1
			C48.2,54.7,48.6,55,48.9,55.5z"/>
		<path class="st6" d="M51.3,55.1c0.3,0.5,0.5,1,0.3,1.1c-0.2,0.1-0.6-0.2-0.9-0.6c-0.3-0.5-0.5-1-0.3-1.1
			C50.5,54.3,50.9,54.6,51.3,55.1z"/>
		<path class="st6" d="M53.3,57.5c0.3,0.5,0.5,1,0.3,1.1c-0.2,0.1-0.6-0.2-0.9-0.6c-0.3-0.5-0.5-1-0.3-1.1
			C52.5,56.8,52.9,57.1,53.3,57.5z"/>
		<path class="st6" d="M48.3,58.8c0.3,0.5,0.5,1.1,0.3,1.1c-0.1,0.1-0.5-0.3-0.9-0.8c-0.3-0.5-0.5-1.1-0.3-1.1
			C47.6,57.8,48,58.2,48.3,58.8z"/>
		<path class="st6" d="M50.5,61.4c0.5,0.4,0.7,0.9,0.6,1.1c-0.1,0.1-0.6-0.1-1.1-0.6c-0.5-0.4-0.7-0.9-0.6-1.1
			C49.6,60.7,50,61,50.5,61.4z"/>
		<path class="st6" d="M53.3,63.4c0.6,0.3,1,0.7,0.9,0.8c-0.1,0.2-0.6,0.1-1.2-0.2c-0.6-0.3-1-0.7-0.9-0.8
			C52.2,63.1,52.7,63.2,53.3,63.4z"/>
		<path class="st6" d="M56.3,62.5c0.6,0.3,1.1,0.8,0.9,1c-0.1,0.2-0.7,0.1-1.4-0.2c-0.6-0.3-1.1-0.8-0.9-1
			C55.1,62.1,55.7,62.2,56.3,62.5z"/>
		<path class="st6" d="M50.6,58.2c0.5,0.5,0.7,1.1,0.5,1.3c-0.2,0.2-0.7-0.1-1.2-0.7c-0.5-0.5-0.7-1.1-0.5-1.3
			C49.6,57.4,50.2,57.7,50.6,58.2z"/>
		<path class="st6" d="M53.1,60.8c0.5,0.4,0.9,1,0.7,1.2c-0.2,0.2-0.7,0-1.3-0.5c-0.6-0.4-0.9-1-0.7-1.2
			C52,60.1,52.6,60.3,53.1,60.8z"/>
		<path class="st6" d="M55.9,59.6c0.6,0.4,0.9,0.9,0.7,1.1c-0.2,0.2-0.7,0-1.3-0.4c-0.6-0.4-0.9-0.9-0.7-1.1
			C54.8,59,55.4,59.2,55.9,59.6z"/>
		<path class="st6" d="M59.2,61.4c0.6,0.3,1,0.8,0.9,1c-0.1,0.2-0.7,0.1-1.4-0.2c-0.6-0.3-1-0.8-0.9-1C57.9,61,58.5,61.1,59.2,61.4z
			"/>
		<path class="st6" d="M59.7,63.5c0.6,0.1,1.1,0.4,1,0.6c0,0.2-0.6,0.3-1.2,0.2c-0.6-0.1-1.1-0.4-1-0.6
			C58.6,63.5,59.1,63.4,59.7,63.5z"/>
		<path class="st6" d="M56.7,64.6c0.6,0.1,1.1,0.3,1.1,0.5c0,0.2-0.6,0.3-1.2,0.2c-0.6-0.1-1.1-0.3-1.1-0.5
			C55.6,64.6,56.1,64.5,56.7,64.6z"/>
		<path class="st6" d="M62.5,63c0.5,0.1,1,0.3,0.9,0.5c0,0.2-0.5,0.2-1.1,0.1c-0.5-0.1-1-0.3-0.9-0.5C61.5,62.9,62,62.9,62.5,63z"/>
		<path class="st6" d="M46.9,55.8c0.2,0.5,0.2,0.9,0.1,1c-0.1,0-0.4-0.3-0.6-0.8c-0.2-0.5-0.2-0.9-0.1-1
			C46.5,55,46.7,55.3,46.9,55.8z"/>
		<path class="st7" d="M70.7,70.9c0.2-0.2,1-0.2,1-0.2c0.8-0.6,1.1-1.9,1.1-1.9c-0.1,0-0.6,0-0.6,0c-0.6-0.1-1.5,0-1.5,0
			c-1.8,0.2-2.9,1.3-2.9,1.3c0.1-0.5,0.6-0.8,0.6-0.8c0.4-0.7,0.5-1.7,0.5-2.2c0-0.6-0.5-1.8-0.5-1.8c-0.4,0.6-1,0.9-1,0.9
			c-2.9,1.2-3.7,3.1-4.3,4.6c-0.2,0.5-0.4,0.9-0.6,1.1c0.5,0,1,0.2,1.6,0.3c2.4-0.2,6-0.2,9.7,0.4c0,0-4.8-0.3-8.6,0
			c0.4,0.2,0.7,0.4,1.1,0.7l0,0l0,0c0.3,0.3,0.8,0.5,1,0.7l0.9,0.5l-0.9,0.5c-0.3,0.1-1.1,0.5-1.4,0.7c-0.3,0.2-0.9,0.4-1.5,0.5
			c0.3,0.2,0.6,0.6,0.9,0.9c0,0,0.5,0.7,0.7,1.2c0.5,0.3,1,0.6,1.7,0.8c0,0,1.1,0.4,1.5,0.7c0,0-0.1-1.3-0.1-1.7
			c0-0.4-0.2-1.5-0.7-2.2c0,0-0.5-0.3-0.6-0.8c0,0,1.1,1.1,3,1.2c0,0,0.9,0,1.5-0.1c0,0,0.5-0.1,0.6,0c0,0-0.4-1.4-1.3-1.9
			c0,0-0.8,0-1-0.2c0,0,4.1,0.1,5.3-1.8h0C74.9,70.8,70.7,70.9,70.7,70.9z"/>
		<path class="st7" d="M65.3,77.6c-1-1.4-2.4-1.7-2.4-1.7c0.5-0.1,1,0.1,1,0.1c0.8,0,1.8-0.4,2.2-0.6c0.4-0.2,1.5-0.8,1.5-0.8
			c-0.4-0.1-1.3-0.8-1.3-0.8c-2.4-1.7-4.4-1.5-6.1-1.3c-0.2,0-0.4,0.1-0.6,0.1c-0.1,0.4-0.3,0.8-0.6,1.1c-0.1,0.1-0.2,0.2-0.4,0.3
			c1.3,3.3,4.7,7.9,4.7,7.9c-2.5-2.7-4.3-5.7-5.2-7.6c-0.1,0-0.2,0-0.3,0c0.1,0.3,0.2,0.6,0.2,0.9c0,1.1-0.9,2-2,2
			c-0.4,0-0.8-0.1-1.1-0.3c-0.4,0.9-0.6,2-0.5,3.4c0,0,0.2,1.1,0,1.6c0,0,1.1-0.8,1.5-0.9c0.4-0.2,1.2-0.9,1.7-1.6
			c0,0,0.1-0.5,0.4-0.9c0,0-0.5,1.4,0.2,2.9c0,0,0.4,0.8,0.7,1.2c0,0,0.3,0.3,0.3,0.5c0,0,1.1-1,1.1-1.9c0,0-0.4-0.6-0.3-0.9
			c0,0,1.9,3.3,4.1,3.4l0,0c1-1.9-1-5-1-5c0.3,0.1,0.6,0.7,0.6,0.7c0.9,0.4,2.2,0,2.2,0c-0.1-0.1-0.3-0.5-0.3-0.5
			C65.7,78.3,65.3,77.6,65.3,77.6z"/>
		<path class="st7" d="M54,75.2c0-0.3,0.1-0.6,0.3-0.9c-1-0.1-1.8-0.9-1.8-2c0-0.1,0-0.2,0-0.2c-3.1-0.3-6.4-0.3-6.4-0.3
			c2.3-0.3,4.6-0.3,6.5-0.2c0.3-0.8,1-1.3,1.9-1.3c0.6,0,1.2,0.3,1.6,0.8c0.1-0.1,0.1-0.1,0.2-0.2c-0.1-0.1-0.1-0.3-0.1-0.5
			c-0.4-1.6-1.1-3.5-3.7-4.9c0,0-1-0.5-1.3-0.8c0,0,0,1.3-0.1,1.7c-0.1,0.4,0,1.5,0.4,2.2c0,0,0.4,0.3,0.5,0.8c0,0-0.9-1.2-2.6-1.5
			c0,0-0.8-0.1-1.4-0.1c0,0-0.4,0-0.5,0c0,0,0.2,1.4,0.9,2c0,0,0.8,0,1,0.3c0,0-3.8-0.3-5.2,1.4l0,0c1,1.9,4.8,2.1,4.8,2.1
			c-0.2,0.2-0.9,0.1-0.9,0.1c-0.8,0.5-1.3,1.8-1.3,1.8c0.1,0,0.5,0.1,0.5,0.1c0.6,0.2,1.4,0.2,1.4,0.2c1.7,0,2.8-1,2.8-1
			c-0.2,0.5-0.6,0.7-0.6,0.7c-0.5,0.7,0,1.9-0.1,2.3c0,0.2,0,0.4-0.3,1.4c0.3-0.3,1.5-0.6,1.5-0.6c1.5-0.5,2.3-1.2,2.8-2
			C54.3,76.3,54,75.8,54,75.2z"/>
		<path class="st8" d="M52.8,72.3c0,0.9,0.7,1.6,1.6,1.6l0.1,0l0.5-0.1l-0.3,0.3c-0.2,0.3-0.3,0.6-0.3,1c0,0.9,0.7,1.6,1.6,1.6
			c0.9,0,1.6-0.7,1.6-1.6c0-0.3-0.1-0.7-0.3-0.9l-0.2-0.3l0.4,0c0.9,0,1.7-0.7,1.7-1.6c0-0.9-0.7-1.6-1.6-1.6
			c-0.6,0-1.1,0.3-1.4,0.8L56,71.8l-0.2-0.3c-0.3-0.5-0.8-0.9-1.4-0.9C53.5,70.7,52.8,71.4,52.8,72.3z"/>
		<path class="st0" d="M54,71.8c-0.2,0.3-0.5,0.4-0.6,0.3c-0.1-0.1-0.1-0.4,0.1-0.7c0.2-0.3,0.5-0.4,0.6-0.3
			C54.3,71.2,54.2,71.5,54,71.8z"/>
		<path class="st0" d="M57.1,71.9c-0.2,0.3-0.5,0.4-0.6,0.3c-0.1-0.1-0.1-0.4,0.1-0.7c0.2-0.3,0.5-0.4,0.6-0.3
			C57.4,71.3,57.3,71.6,57.1,71.9z"/>
		<path class="st0" d="M55.6,74.6c-0.2,0.3-0.5,0.4-0.6,0.3c-0.1-0.1-0.1-0.4,0.1-0.7c0.2-0.3,0.5-0.4,0.6-0.3
			C55.9,74,55.8,74.4,55.6,74.6z"/>
		<path class="st5" d="M84.2,66.2c0,0-0.3-1.4-2.7-2.3c0,0,1.3,0.4,2.7,0.2c0,0-1.1-1.4-3.7-2.4c0,0-3.5-1.4-3.9-1.5
			c0,0,2.7,0.7,3.5,0.8c0,0,0.4,0.1,0.4-0.1c0,0,0-0.8-3.9-2.8c0,0-2.5-1.1-4.3-1.5c0,0-8.4-7-18.8-9.1c0,0-1.5-2.2-2.2-2.9
			c0,0-1.8-2.4-4.5-2.4c0,0-1.3,0-2.5,0.6c-0.6,0.1-1.1-0.2-1.1-0.2c-1.5-0.8-2.7-1.4-2.7-1.4c-0.4-0.1-0.2,0.3-0.2,0.3
			c0.3,0.5,2,2.7,2,2.7c-2.7-0.3-3.2-0.1-3.2-0.1c-0.3,0.1-0.1,0.3-0.1,0.3c0.1,0.2,0.8,0.5,0.8,0.5c1,0.5,2.6,1.5,2.6,1.5
			c1.2,0.8,1.9,4.1,1.9,4.1c0.7,2.7,1.4,4.6,1.4,4.6c0.1,0.2-0.1-0.8-0.1-0.8c-0.1-0.2-0.3-1-0.3-1c-0.3-1.3-0.7-3-0.7-3
			c-0.5-3.1-1.6-4.1-1.6-4.1c-0.4-0.5-3.2-1.8-3.2-1.8c0.8-0.1,3.8,0.4,3.8,0.4L41.5,42l1.5,0.9c0.4,0.3,0.9,0.4,0.9,0.4
			s0.2,0.1,0.3,0.7c0,0,0.1,0.5,0.8,0.5c0,0,0.7-0.1,1.3-0.3c0,0,1.4-0.3,2.8,0.2c0,0,1.3,0.4,1.6,1c0,0,0.2,0.3-0.2,0.4
			c0,0-0.8,0.1-1.3-0.1l0,0.1c0,0,2.1,0.6,1.9,2.9c0,0-0.1,1-0.1,1.3c0,0-0.4,2.1,1.2,3.4c0,0-0.3-0.9,0.2-1.9c0,0,0.1,4.4,4.6,6.7
			c0,0,5.6,3.1,11.8,2.3c0,0-3.2,1-6.7,0.3c0,0-1.5-0.3-1.8-0.3c0,0-1.8-0.3-2.6-0.3c0,0-0.1,0.1,0.1,0.1c0,0,2.4,0.9,5,1.5
			c0,0,1.9,0.5,2.3,0.6c0,0,0.7,0.2,0.5,0.6c0,0-1.3,2.5-7.8,2.5c0,0,1.4,0.3,2.7,0.5c0,0,0.8,0.1,1.2,0.4c0,0-2,1.7-3.5,3.9
			c0,0,0.5,0.2,0.7,0.3c0,0,2.3-2.2,3.6-3.1c0,0-1,3.3-1.6,4.4c0,0,0.8-0.1,0.9-0.1c0,0,2.6-5.2,4-6.5c0,0,1.2-1.2,2.3-1.3
			c0,0,1.2-0.2,3.2,0.2c0,0,3.2,1,6.8,2.7c0,0,3.3,1.7,5.6,0.4c0,0-3.4-1.8-4.1-2.1C79.5,65.4,81.6,66.3,84.2,66.2z"/>
		<path class="st0" d="M53.7,51.8c0,0,0.8,0.8,1.5,0.1c0,0,0.3,1.6,1.4,2.7C56.6,54.7,54.8,54.6,53.7,51.8z"/>
		<path class="st0" d="M63.9,56.1c0.7,0.4,1.4,1.5,1.4,1.5c-1.6,0.1-4-1.1-4-1.1c1.2,0.7,1.8,2.4,1.8,2.4c-3.8-0.1-6.8-2.7-6.8-2.7
			l0.1,0c2.5,1.4,4.2,1.4,4.2,1.4c-0.7-1.5-1.8-2.8-1.8-2.8c3.7,1.5,4.9,0.6,5,0.6c0.3-0.8-0.3-1.7-0.2-1.7c0.6,1.1,4.4,2.3,4.4,2.4
			C65.9,56.6,63.9,56.1,63.9,56.1z"/>
		<path class="st0" d="M67.5,58.1c3.8,0.6,2.6-1.2,2.6-1.2c2,0.5,2.2,1.3,2.2,1.4C69.8,59.3,67.5,58.1,67.5,58.1z"/>
	</g>
</g>
</svg>
