<?xml version="1.0" encoding="utf-8"?>
<!-- Generator: Adobe Illustrator 25.3.0, SVG Export Plug-In . SVG Version: 6.00 Build 0)  -->
<svg version="1.1" id="Layer_1" xmlns="http://www.w3.org/2000/svg" xmlns:xlink="http://www.w3.org/1999/xlink" x="0px" y="0px"
	 viewBox="0 0 750.2 400.1" style="enable-background:new 0 0 750.2 400.1;" xml:space="preserve">
<path d="M269.6,78.3L269.6,78.3l-2.1-2.3l-0.6-0.5c-2.4-2.4-5.1-4.7-8.3-6.9l-5.9-3.9l-0.1,0.1l-5.2,2.6l-9,3.5l-7.6,2.2
	c-4.8,1.1-13.4,2.2-18.9,2.7l-0.1,0.5l-3.5,15.9l-0.7,3.2h-0.1v17l75.1-11.8C279.5,92.8,275.6,85.1,269.6,78.3z"/>
<path d="M199,86.3c-1.7-2.9-3.2-6.5-3.3-10.5c-5.9-0.6-14-1.6-17.2-2.3l-7.4-1.8c-0.9-0.3-1.9-0.6-2.8-0.9l-0.1-0.1l-9.6-3.8l0,0
	l0,0V67c-2-1-3.7-2-5.4-3l-0.2,0.3c-17.2,8.7-25.7,22.2-30.7,36l76.7,12.2V86.3z"/>
<path d="M209.6,75.9c0,0-2.6-1.3-7-1.3c-1.5,0-3.2,0.1-5,0.5c0,9.6,8.5,16.7,8.5,16.7L209.6,75.9z"/>
</svg>
