<?xml version="1.0" encoding="utf-8"?>
<!-- Generator: Adobe Illustrator 25.3.0, SVG Export Plug-In . SVG Version: 6.00 Build 0)  -->
<svg version="1.1" id="Layer_1" xmlns="http://www.w3.org/2000/svg" xmlns:xlink="http://www.w3.org/1999/xlink" x="0px" y="0px"
	 viewBox="0 0 750.2 400.1" style="enable-background:new 0 0 750.2 400.1;" xml:space="preserve">

<path class="st0" d="M207.3,110.1h78c-0.3-1-0.5-1.9-0.8-2.9h-77.2V110.1z"/>
<path class="st0" d="M300,152l-0.2-2.2c-0.3-0.2-0.6-0.5-0.8-0.7h-91.7v2.9H300z"/>
<path class="st0" d="M119.2,110.1H199v-2.9h-79C119.7,108.2,119.4,109.2,119.2,110.1z"/>
<path class="st0" d="M199,149.1h-93.4c-0.3,0.2-0.5,0.5-0.8,0.7l-0.2,2.2H199V149.1z"/>
<path class="st0" d="M633.9,122.2c0.1,0.5,0.2,1.1,0.4,1.6l63.6-0.1c-0.1-0.8-0.3-1.7-0.4-2.5l-63.7,0.1
	C633.8,121.6,633.8,121.9,633.9,122.2z"/>
<path class="st0" d="M701.6,154.3c-0.1-0.8-0.2-1.7-0.2-2.5l-56,0.1l0,2.5L701.6,154.3z"/>
<path class="st0" d="M52.7,123.8l62.3-0.1c0.1-0.4,0.2-0.9,0.3-1.3c0.1-0.4,0.2-0.8,0.3-1.2l-62.5,0.1
	C53,122.1,52.8,122.9,52.7,123.8z"/>
<path class="st0" d="M103.7,154.3l0.2-2.5l-54.7,0.1c-0.1,0.8-0.2,1.7-0.2,2.5L103.7,154.3z"/>
<path class="st0" d="M398.2,123.8l59.4-0.1c0.1-0.4,0.2-0.9,0.3-1.3c0.1-0.4,0.2-0.8,0.3-1.2l-59.6,0.1
	C398.5,122.1,398.3,122.9,398.2,123.8z"/>
<path class="st0" d="M446.8,154.3l-0.2-2.5l-52,0.1c-0.1,0.8-0.2,1.7-0.2,2.5L446.8,154.3z"/>
<path class="st0" d="M351.8,121.2l-62.9,0.1c0.1,0.4,0.2,0.8,0.3,1.1c0.1,0.5,0.2,0.9,0.3,1.4l62.7-0.1
	C352.1,122.9,351.9,122,351.8,121.2z"/>
<path class="st0" d="M355.8,151.8l-54.9,0.1l0.2,2.5l55-0.1C356,153.4,355.9,152.6,355.8,151.8z"/>
</svg>
