<?xml version="1.0" encoding="utf-8"?>
<!-- Generator: Adobe Illustrator 25.3.0, SVG Export Plug-In . SVG Version: 6.00 Build 0)  -->
<svg version="1.1" id="Layer_1" xmlns="http://www.w3.org/2000/svg" xmlns:xlink="http://www.w3.org/1999/xlink" x="0px" y="0px"
	 viewBox="0 0 750.2 400.1" style="enable-background:new 0 0 750.2 400.1;" xml:space="preserve">

<path class="st0" d="M639.8,142.2c1.4,2.8,3.1,5.2,5.3,6.9l0.2,0.1l0.4,21c0.4,0.1,0.9,0.5,0.9,0.9l13.7,199.5h7.4
	c-2.8-40.7-14.8-215-15.5-220.3C651.7,146.9,645.2,144,639.8,142.2z"/>
<path class="st0" d="M435.7,371l12.1-199.9V171l-1.3-21.5l0.2-0.2c1.8-1.4,3.3-3.3,4.5-5.5c-4.1,1.7-7.9,4-8.2,6.6
	c-0.7,5.2-12.8,180.4-15.5,220.6h8L435.7,371z"/>
<path class="st0" d="M102.6,170.5l1.4-21v-0.2c2.9-2.2,4.9-5.7,6.6-9.9c-5.5,1.8-12.6,4.8-13.2,8.4c-0.8,5.4-13.3,188.5-15.7,223.1
	H90l0.3-0.2l12.1-199.6C102.3,170.9,102.4,170.7,102.6,170.5z"/>
<path class="st0" d="M295.1,142.3c1.4,2.9,3.2,5.3,5.4,7l0.2,0.1l1.4,20.7c0.2,0.1,0.3,0.3,0.4,0.5l0.1,0.1c0.1,0.1,0.1,0.2,0.1,0.4
	l12,199.8h8.2c-2.8-40.1-14.8-215.3-15.5-220.6C306.9,146.9,300.5,144.1,295.1,142.3z"/>
</svg>
