<?xml version="1.0" encoding="utf-8"?>
<!-- Generator: Adobe Illustrator 25.3.0, SVG Export Plug-In . SVG Version: 6.00 Build 0)  -->
<svg version="1.1" id="Layer_1" xmlns="http://www.w3.org/2000/svg" xmlns:xlink="http://www.w3.org/1999/xlink" x="0px" y="0px"
	 viewBox="0 0 750.2 400.1" style="enable-background:new 0 0 750.2 400.1;" xml:space="preserve">
<path d="M465.2,355.6c2.3,0.6,4.7,1.2,7.2,1.9c-9.6-38-17.1-104-20-180.5v0.4C455.1,253.3,458.7,317.3,465.2,355.6z"/>
<path d="M639.6,191.3v-3c-3.2,70.7-10.2,131.4-19.1,167.7c2.4-0.6,4.7-1,7-1.3C633.5,318.6,637,260.4,639.6,191.3z"/>
<path d="M293.6,210.7v-3.4c-2.9,59.9-8.6,112.1-15.9,147.6c2.1-0.1,4-0.2,5.9-0.3C288.2,319.7,291.3,269.4,293.6,210.7z"/>
<path d="M121.7,354.5c1.9,0.1,3.8,0.2,5.9,0.3c-8-38.8-14-97.6-16.7-164.7v0.5C113.3,257.9,116.4,315.8,121.7,354.5z"/>
</svg>
