<?xml version="1.0" encoding="utf-8"?>
<!-- Generator: Adobe Illustrator 25.3.0, SVG Export Plug-In . SVG Version: 6.00 Build 0)  -->
<svg version="1.1" id="Layer_1" xmlns="http://www.w3.org/2000/svg" xmlns:xlink="http://www.w3.org/1999/xlink" x="0px" y="0px"
	 viewBox="0 0 750.2 400.1" style="enable-background:new 0 0 750.2 400.1;" xml:space="preserve">

<path class="st0" d="M458.7,62.1l0.8,1l15,17.4c0.8-1,1.6-2,2.4-2.9l-14.5-16.9C461.2,61.1,459.9,61.6,458.7,62.1z"/>
<path class="st0" d="M118.7,60l15.4,17.9c0.8-0.9,1.7-1.9,2.6-2.8l-14.2-16.6C121.2,59,119.9,59.5,118.7,60z"/>
<path class="st0" d="M269.6,76.9c0.9,0.9,1.7,1.9,2.5,2.9l16.4-19c-1.2-0.5-2.5-0.9-3.7-1.4L269.6,76.9z"/>
<path class="st0" d="M639.7,62.9c-0.3-0.1-0.5-0.2-0.8-0.3c-0.2-0.1-0.4-0.1-0.5-0.2c-0.8-0.3-1.6-0.6-2.4-0.9l0,0l-0.2,0.2
	l-17.4,20.2c0.8,1.1,1.5,2.1,2.2,3.2l18.6-21.6L639.7,62.9L639.7,62.9z"/>
</svg>
