<?xml version="1.0" encoding="utf-8"?>
<!-- Generator: Adobe Illustrator 25.3.0, SVG Export Plug-In . SVG Version: 6.00 Build 0)  -->
<svg version="1.1" id="Layer_1" xmlns="http://www.w3.org/2000/svg" xmlns:xlink="http://www.w3.org/1999/xlink" x="0px" y="0px"
	 viewBox="0 0 750.2 400.1" style="enable-background:new 0 0 750.2 400.1;" xml:space="preserve">
<path d="M129,174.1c-2.7,15.1-5.4,30.7-7.9,45.7l5.8,0.9c2.4-14.9,5.1-30.5,7.8-45.7L129,174.1z"/>
<path d="M406.9,174.3c-2.7,15.1-5.4,30.7-7.9,45.7l6,0.9c2.4-14.9,5.1-30.5,7.8-45.7L406.9,174.3z"/>
<path d="M353.9,218.5c-2.7-14.9-5.6-30.5-8.6-45.6l-5.6,0.9c2.9,15.1,5.8,30.6,8.5,45.6L353.9,218.5z"/>
<path d="M631.8,218.5c-2.7-14.9-5.6-30.5-8.6-45.6l-6.4,1c2.9,15.1,5.8,30.6,8.5,45.6L631.8,218.5z"/>
</svg>
