<?xml version="1.0" encoding="utf-8"?>
<!-- Generator: Adobe Illustrator 25.3.0, SVG Export Plug-In . SVG Version: 6.00 Build 0)  -->
<svg version="1.1" id="Layer_1" xmlns="http://www.w3.org/2000/svg" xmlns:xlink="http://www.w3.org/1999/xlink" x="0px" y="0px"
	 viewBox="0 0 750.2 400.1" style="enable-background:new 0 0 750.2 400.1;" xml:space="preserve">
<path d="M121.7,216.6l-0.1,0c-0.1,0.5-0.2,0.9-0.2,1.4l0.1,0l5.8,0.1c0.1-0.5,0.1-0.9,0.2-1.4L121.7,216.6z"/>
<path d="M135.3,171.5l-5.9-0.1c-0.1,0.5-0.2,0.9-0.2,1.4l5.9,0.1C135.2,172.4,135.3,171.9,135.3,171.5z"/>
<path d="M400.6,216.6l-1-0.3c-0.1,0.5-0.2,0.9-0.2,1.4l1,0.3l5.1,0.1c0.1-0.5,0.1-0.9,0.2-1.4L400.6,216.6z"/>
<path d="M413.2,172.8c0.1-0.5,0.2-0.9,0.2-1.4l-5.2-0.1l-0.8-0.3c-0.1,0.5-0.2,0.9-0.2,1.4l0.8,0.3L413.2,172.8z"/>
<path d="M353.5,216.3c-0.1-0.5-0.2-0.9-0.2-1.4l-5,1.7l-0.5,0c0.1,0.5,0.2,0.9,0.2,1.4l0.5,0L353.5,216.3z"/>
<path d="M345,171.4c-0.1-0.4-0.2-0.9-0.3-1.3l-4.2,1.4l-1.3,0c0.1,0.5,0.2,0.9,0.3,1.4l1.2,0L345,171.4z"/>
<path d="M626.3,216.6l-1.5,0c0.1,0.5,0.2,0.9,0.2,1.4l1.5,0l4.9-1.6c-0.1-0.5-0.2-0.9-0.2-1.4L626.3,216.6z"/>
<path d="M622.9,171.4c-0.1-0.4-0.2-0.9-0.3-1.3l-4,1.3l-2.3,0c0.1,0.5,0.2,0.9,0.3,1.4l2.3,0L622.9,171.4z"/>
</svg>
