<?xml version="1.0" encoding="utf-8"?>
<!-- Generator: Adobe Illustrator 25.3.0, SVG Export Plug-In . SVG Version: 6.00 Build 0)  -->
<svg version="1.1" id="Layer_1" xmlns="http://www.w3.org/2000/svg" xmlns:xlink="http://www.w3.org/1999/xlink" x="0px" y="0px"
	 viewBox="0 0 750.2 400.1" style="enable-background:new 0 0 750.2 400.1;" xml:space="preserve">
<path d="M397.7,270.6l-6-1.3c-0.2,1.3-0.3,2.6-0.5,3.9l6,1.3C397.3,273.3,397.5,272,397.7,270.6z"/>
<path d="M119.5,271.5l-5.8-1.2c-0.1,1.2-0.3,2.4-0.4,3.5l5.8,1.2C119.2,273.9,119.3,272.7,119.5,271.5z"/>
<path d="M640.5,273.3c-0.2-1.3-0.3-2.6-0.5-3.9l-6.4,1.4c0.2,1.3,0.3,2.6,0.5,3.9L640.5,273.3z"/>
<path d="M356.4,270c0.2,1.3,0.3,2.6,0.5,3.9l5.6-1.2c-0.2-1.3-0.3-2.6-0.5-3.9L356.4,270z"/>
</svg>
