<?xml version="1.0" encoding="utf-8"?>
<!-- Generator: Adobe Illustrator 25.3.0, SVG Export Plug-In . SVG Version: 6.00 Build 0)  -->
<svg version="1.1" id="Layer_1" xmlns="http://www.w3.org/2000/svg" xmlns:xlink="http://www.w3.org/1999/xlink" x="0px" y="0px"
	 viewBox="0 0 750.2 400.1" style="enable-background:new 0 0 750.2 400.1;" xml:space="preserve">
<path d="M143.3,99c-1.9,9.5-4.6,23-7.5,38.6l5.7,0.8c2.8-15,5.4-28.4,7.5-38.6L143.3,99z"/>
<path d="M413.7,137.3l5.8,0.8c2.9-15.6,5.6-29.3,7.7-39.6c-2.8-0.3-4.7-0.5-5.8-0.7C419.5,107.3,416.7,121.2,413.7,137.3z"/>
<path d="M329.7,97c-1,0.1-2.7,0.4-5.1,0.8c0.7,3.4,1.5,7.4,2.4,11.8c1.7,8.3,3.7,18.1,5.8,28.8l5.4-0.8
	C334.8,120.9,331.8,106.6,329.7,97z"/>
<path d="M607.5,97c-1.1,0.2-3.1,0.5-5.9,0.9c0.7,3.4,1.5,7.3,2.4,11.7c1.7,8.3,3.7,18.2,5.8,29l6.3-0.9
	C612.7,121,609.6,106.6,607.5,97z"/>
</svg>
