<?xml version="1.0" encoding="utf-8"?>
<!-- Generator: Adobe Illustrator 25.3.0, SVG Export Plug-In . SVG Version: 6.00 Build 0)  -->
<svg version="1.1" id="Layer_1" xmlns="http://www.w3.org/2000/svg" xmlns:xlink="http://www.w3.org/1999/xlink" x="0px" y="0px"
	 viewBox="0 0 750.2 400.1" style="enable-background:new 0 0 750.2 400.1;" xml:space="preserve">
<path d="M130.9,196.5c0.2-1.3,0.4-2.5,0.6-3.8l-5.8-0.7c-0.2,1.3-0.4,2.5-0.7,3.8L130.9,196.5z"/>
<path d="M409,196.6c0.2-1.3,0.4-2.5,0.6-3.8l-6-0.7c-0.2,1.3-0.4,2.5-0.7,3.8L409,196.6z"/>
<path d="M350,197.2c-0.2-1.3-0.5-2.5-0.7-3.8l-5.6,0.7c0.2,1.3,0.5,2.5,0.7,3.8L350,197.2z"/>
<path d="M628,197.6c-0.2-1.3-0.5-2.5-0.7-3.8l-6.5,0.8c0.2,1.3,0.5,2.5,0.7,3.8L628,197.6z"/>
</svg>
