<?xml version="1.0" encoding="utf-8"?>
<!-- Generator: Adobe Illustrator 25.3.0, SVG Export Plug-In . SVG Version: 6.00 Build 0)  -->
<svg version="1.1" id="Layer_1" xmlns="http://www.w3.org/2000/svg" xmlns:xlink="http://www.w3.org/1999/xlink" x="0px" y="0px"
	 viewBox="0 0 750.2 400.1" style="enable-background:new 0 0 750.2 400.1;" xml:space="preserve">
<path d="M135.8,137.4c-0.2,1.3-0.5,2.5-0.7,3.8l5.7,0.8c0.2-1.3,0.5-2.6,0.7-3.8L135.8,137.4z"/>
<path d="M129.4,171.9c-0.2,1.3-0.5,2.6-0.7,3.8l5.7,0.8c0.2-1.3,0.5-2.6,0.7-3.8L129.4,171.9z"/>
<path d="M123.3,206.6c-0.2,1.3-0.4,2.6-0.7,3.8l5.8,0.9c0.2-1.3,0.4-2.6,0.6-3.9L123.3,206.6z"/>
<path d="M117.7,241.3c-0.2,1.3-0.4,2.6-0.6,3.9l5.9,0.9c0.2-1.3,0.4-2.6,0.6-3.9L117.7,241.3z"/>
<path d="M118.4,280.8c0.1-1.3,0.3-2.6,0.4-3.9l-5.9-0.9c-0.1,1.3-0.3,2.6-0.4,3.9L118.4,280.8z"/>
<path d="M413.6,137.7c-0.2,1.3-0.5,2.5-0.7,3.8l5.9,0.9c0.2-1.3,0.5-2.6,0.7-3.8L413.6,137.7z"/>
<path d="M407.2,172.3c-0.2,1.3-0.5,2.6-0.7,3.8l5.9,0.9c0.2-1.3,0.5-2.6,0.7-3.8L407.2,172.3z"/>
<path d="M401.1,207c-0.2,1.3-0.4,2.6-0.7,3.8l6,0.9c0.2-1.3,0.4-2.6,0.6-3.9L401.1,207z"/>
<path d="M395.5,241.7c-0.2,1.3-0.4,2.6-0.6,3.9l6.1,0.9c0.2-1.3,0.4-2.6,0.6-3.9L395.5,241.7z"/>
<path d="M396.9,277.4l-6.1-0.9c-0.1,1.3-0.3,2.6-0.4,3.9l6.1,0.9C396.6,280,396.7,278.7,396.9,277.4z"/>
<path d="M339.2,142.1c-0.3-1.3-0.5-2.6-0.8-3.8l-5.4,0.8c0.3,1.3,0.5,2.5,0.8,3.8L339.2,142.1z"/>
<path d="M346.1,176.6c-0.2-1.3-0.5-2.6-0.7-3.8l-5.6,0.8c0.2,1.3,0.5,2.6,0.7,3.8L346.1,176.6z"/>
<path d="M352.6,211.2c-0.2-1.3-0.5-2.6-0.7-3.8l-5.6,0.8c0.2,1.3,0.5,2.6,0.7,3.8L352.6,211.2z"/>
<path d="M358.6,245.8c-0.2-1.3-0.4-2.6-0.6-3.9l-5.6,0.8c0.2,1.3,0.4,2.6,0.6,3.9L358.6,245.8z"/>
<path d="M363.4,280.7c-0.1-1.3-0.3-2.5-0.4-3.9l-5.6,0.8c0.2,1.3,0.3,2.6,0.4,3.9L363.4,280.7z"/>
<path d="M617.1,142.4c-0.3-1.3-0.5-2.6-0.8-3.8l-6.3,0.9c0.3,1.3,0.5,2.5,0.8,3.8L617.1,142.4z"/>
<path d="M624,176.9c-0.3-1.3-0.5-2.6-0.8-3.8l-6.4,0.9c0.2,1.3,0.5,2.6,0.7,3.8L624,176.9z"/>
<path d="M630.5,211.5c-0.2-1.3-0.5-2.6-0.7-3.8l-6.5,0.9c0.2,1.3,0.5,2.6,0.7,3.8L630.5,211.5z"/>
<path d="M636.6,246.1c-0.2-1.3-0.4-2.6-0.6-3.9l-6.5,1c0.2,1.3,0.4,2.6,0.6,3.9L636.6,246.1z"/>
<path d="M641.4,280.9c-0.1-1.3-0.3-2.5-0.4-3.9l-6.5,0.9c0.2,1.3,0.3,2.6,0.4,3.9L641.4,280.9z"/>
</svg>
