<?xml version="1.0" encoding="utf-8"?>
<!-- Generator: Adobe Illustrator 25.3.0, SVG Export Plug-In . SVG Version: 6.00 Build 0)  -->
<svg version="1.1" id="Layer_1" xmlns="http://www.w3.org/2000/svg" xmlns:xlink="http://www.w3.org/1999/xlink" x="0px" y="0px"
	 viewBox="0 0 750.2 400.1" style="enable-background:new 0 0 750.2 400.1;" xml:space="preserve">
<path d="M121.7,227.7c-3.3,19.4-5.8,37.4-6.6,50.3c5.5,1.4,10.8,2.7,16,3.8l8.8-50.7L121.7,227.7z"/>
<path d="M400.2,227c-3.3,19.7-5.9,37.9-6.7,51c5.5,1.4,10.8,2.7,16,3.8l8.9-51.4L400.2,227z"/>
<path d="M356.5,278c-0.8-13.2-3.4-31.7-6.8-51.7l-21.3,4l9.1,52.1C343.6,281.1,349.9,279.7,356.5,278z"/>
<path d="M634.8,278c-0.8-13.2-3.4-31.8-6.8-51.8l-21.3,4l9.1,52.2C621.9,281.1,628.3,279.7,634.8,278z"/>
</svg>
