<?xml version="1.0" encoding="utf-8"?>
<!-- Generator: Adobe Illustrator 25.3.0, SVG Export Plug-In . SVG Version: 6.00 Build 0)  -->
<svg version="1.1" id="Layer_1" xmlns="http://www.w3.org/2000/svg" xmlns:xlink="http://www.w3.org/1999/xlink" x="0px" y="0px"
	 viewBox="0 0 750.2 400.1" style="enable-background:new 0 0 750.2 400.1;" xml:space="preserve">
<path d="M134.2,162.5c-0.5,2.5-1,5.1-1.6,7.6l17.5,3.3l1.3-7.7L134.2,162.5z"/>
<path d="M139.4,235.1l1.3-7.7l-18.3-3.4c-0.4,2.6-0.9,5.2-1.3,7.7L139.4,235.1z"/>
<path d="M412.3,163.2c-0.5,2.5-1,5.1-1.6,7.6l17.5,3.3l1.3-7.7L412.3,163.2z"/>
<path d="M418.9,228.1l-18.3-3.4c-0.4,2.6-0.9,5.2-1.3,7.7l18.3,3.4L418.9,228.1z"/>
<path d="M317.3,166.7l1.3,7.7l20.5-3.9c-0.5-2.6-1.1-5.1-1.6-7.6L317.3,166.7z"/>
<path d="M350.6,231.9c-0.4-2.5-0.9-5.1-1.3-7.7l-21.3,4l1.3,7.7L350.6,231.9z"/>
<path d="M595.6,166.7l1.3,7.7l20.5-3.9c-0.5-2.6-1.1-5.1-1.6-7.6L595.6,166.7z"/>
<path d="M629,232c-0.4-2.5-0.9-5.1-1.3-7.7l-21.3,4l1.3,7.7L629,232z"/>
</svg>
