<?xml version="1.0" encoding="utf-8"?>
<!-- Generator: Adobe Illustrator 25.3.0, SVG Export Plug-In . SVG Version: 6.00 Build 0)  -->
<svg version="1.1" id="Layer_1" xmlns="http://www.w3.org/2000/svg" xmlns:xlink="http://www.w3.org/1999/xlink" x="0px" y="0px"
	 viewBox="0 0 750.2 400.1" style="enable-background:new 0 0 750.2 400.1;" xml:space="preserve">
<path d="M350.6,248.4L350.6,248.4l-19.5-2.4l1.1,6.3l19,2.3l0,0l0.1,0l0.1,0l0,0l2.6-1c-0.3-2-0.6-4.1-0.9-6.2L350.6,248.4z"/>
<path d="M398.4,248.4L398.4,248.4l-1.6-0.6c-0.3,2.1-0.6,4.2-0.9,6.2l1.6,0.6l0,0l0.1,0l0.1,0l0,0l16.9-2.1l1.1-6.3L398.4,248.4z"/>
<path d="M137.4,246l-19,2.3c-0.3,2.1-0.6,4.2-0.9,6.2l18.7-2.3L137.4,246z"/>
<path d="M629.8,254.6L629.8,254.6L629.8,254.6l0.1,0l0,0l2.3-0.9c-0.3-2-0.6-4.1-0.9-6.2l-2.2,0.8l-0.1,0l-19.8-2.4l1.4,8.1
	l-0.2-1.8L629.8,254.6z"/>
</svg>
