<?xml version="1.0" encoding="utf-8"?>
<!-- Generator: Adobe Illustrator 25.3.0, SVG Export Plug-In . SVG Version: 6.00 Build 0)  -->
<svg version="1.1" id="Layer_1" xmlns="http://www.w3.org/2000/svg" xmlns:xlink="http://www.w3.org/1999/xlink" x="0px" y="0px"
	 viewBox="0 0 750.2 400.1" style="enable-background:new 0 0 750.2 400.1;" xml:space="preserve">
<g>
	<path d="M131.3,281.5l-15.7-9.1c-0.2,2-0.3,3.8-0.4,5.6c5.5,1.4,10.8,2.7,16,3.8L131.3,281.5z"/>
	<path d="M134.6,262.6l-18.2,2.1c-0.2,2-0.4,4-0.6,5.9l17.8-2.1L134.6,262.6z"/>
	<path d="M334.2,264l3.2,18.4c6.1-1.3,12.5-2.7,19.1-4.4c0-0.8-0.1-1.6-0.2-2.4L335,263.9L334.2,264z"/>
	<path d="M124.9,248.1l11.1,6.1l2.4-13.6l-19.1,2.2c-0.3,2-0.6,4-0.9,6L124.9,248.1z"/>
	<path d="M399.7,279.5c3.3,0.8,6.6,1.6,9.9,2.2l0.6-3.5L399.7,279.5z"/>
	<path d="M333.6,238.5l19.6,10.1c-0.8-5.4-1.6-11-2.6-16.7l-21.5,2.8l0.8,4.3L333.6,238.5z"/>
	<path d="M612.6,264.2l2.1,12.2l8.5,4.4c3.8-0.9,7.7-1.8,11.6-2.8c-0.2-3.6-0.6-7.6-1-12l-6.2-3.7L612.6,264.2z"/>
	<path d="M123.8,215.8c-0.4,2-0.7,4-1.1,6l19.3-2.5l0.8-4.5l-16.8,2.2L123.8,215.8z"/>
	<path d="M408.7,265.7l-13.3-6.9c-0.6,4.7-1.1,9.1-1.4,13.2l17.7-2.3l0.8-4.5L408.7,265.7z"/>
	<path d="M396.2,252.4l18.9-2.4l0.8-4.5l-19,2.5C396.7,249.5,396.4,251,396.2,252.4z"/>
	<path d="M354.7,259.5c-0.3-2.8-0.7-5.7-1.1-8.6l-21.1,2.7l0.8,4.3l14.7-1.9L354.7,259.5z"/>
	<path d="M139.5,234l-17.4-9c-1,5.6-1.9,11.1-2.7,16.5l19.2-2.5L139.5,234z"/>
	<path d="M632.6,255.9c-1.2-9.3-2.8-19.7-4.7-30.4l-21.5,3l0.5,2.6l0.1,0l22.5,10.9l-20.2,2.9l0.5,2.7l4-0.6L632.6,255.9z"/>
	<path d="M126,203.6l14.1,6.8l3.6-0.5l5.3-30.7l-16.7-8.1C130.3,181.5,128.1,192.5,126,203.6z"/>
	<path d="M348.5,219.6l-7.2,1l-16.1-7.8l2.2,12.5l21.5-3.1C348.8,221.4,348.7,220.5,348.5,219.6z"/>
	<path d="M403.9,206.2c-1.9,10.1-3.6,20.2-5.2,29.8l19.3-2.8l1.2-7.1l-15.9-7.7L421,216l0.5-2.8l-2.5,0.4L403.9,206.2z"/>
	<path d="M346,205.8c-0.2-0.9-0.3-1.8-0.5-2.7l-11,1.6l-11.6-5.6l1.7,9.8L346,205.8z"/>
	<path d="M405.1,199.8l0.1,0.1l19.1-3l2-11.3l-5.3-2.4l5.9-0.9l1.8-10.2l-16.6-7.4C409.8,175.7,407.4,187.7,405.1,199.8z"/>
	<path d="M154.9,145.6l-17.8,2.8c-0.1,0.7-0.3,1.4-0.4,2.1l16.1,7.2L154.9,145.6z"/>
	<path d="M602.7,207.2l0.1,0.9l8.4-1.3l14.5,6.4c-0.6-3.1-1.1-6.2-1.7-9.3L602.7,207.2z"/>
	<path d="M600,191.8l0.4,2.4l11.4-1.8l11,4.9c-0.5-2.4-0.9-4.8-1.4-7.3l-18.8,2.9L600,191.8z"/>
	<path d="M150.5,171.2l1.9-11l-18.3,2.9c-0.1,0.3-0.1,0.6-0.2,0.9l0.3-0.1L150.5,171.2z"/>
	<path d="M343,190c-2.1-10.6-4.2-21-6.2-30.6l-5.3-2.4l-15.5,2.5l5.5,31.4l4.2,1.9L343,190z"/>
	<path d="M148.5,124.6c-2.9-0.4-5-0.7-6-0.8c-0.1,0.6-0.3,1.3-0.4,1.9L148.5,124.6z"/>
	<path d="M156.9,134.4l0.3-1.6l-15.3-6.3c-0.7,3.2-1.5,6.9-2.4,10.9L156.9,134.4z"/>
	<path d="M594,157.7l20-3.5c0-0.2-0.1-0.3-0.1-0.5l-22.2-9.1L594,157.7z"/>
	<path d="M330.8,131l-10,1.8l11.4,4.7C331.7,135.2,331.2,133,330.8,131z"/>
	<polygon points="606.9,166.7 609.1,167.6 610.9,167.3 608.6,166.4 	"/>
	<polygon points="320.8,132.7 318.6,131.8 316.9,132.1 319.1,133 	"/>
	<path d="M617.4,169.9c-0.2-1.2-0.5-2.4-0.7-3.6l-5.7,1L617.4,169.9z"/>
	<polygon points="596,168.6 606.9,166.7 594.7,161.7 	"/>
	<path d="M416.8,163.1l13.9-2.5l5.1-29.6l-17.2,3c-1.7,7.8-3.7,17.1-5.8,27.3L416.8,163.1z"/>
	<polygon points="311.4,133.1 316.9,132.1 310.8,129.7 	"/>
	<path d="M333.1,141.9l-19.6,3.5l0.1,0.5l22.3,9.2C335,150.4,334,146,333.1,141.9z"/>
	<path d="M604.3,123.5c-3.3,0.5-8.7,1.3-15.8,2.1l0.7,3.9l16.9-3.4l2.1,0.8c-0.2-0.7-0.3-1.4-0.5-2.1L604.3,123.5z"/>
	<path d="M428.4,126.2l4.4-0.9c-4.6-0.5-8-1-10.1-1.3L428.4,126.2z"/>
</g>
</svg>
