<?xml version="1.0" encoding="utf-8"?>
<!-- Generator: Adobe Illustrator 25.3.0, SVG Export Plug-In . SVG Version: 6.00 Build 0)  -->
<svg version="1.1" id="Layer_1" xmlns="http://www.w3.org/2000/svg" xmlns:xlink="http://www.w3.org/1999/xlink" x="0px" y="0px"
	 viewBox="0 0 750.2 400.1" style="enable-background:new 0 0 750.2 400.1;" xml:space="preserve">
<g>
	<path d="M310.6,127.9C310.6,127.9,310.5,127.9,310.6,127.9l0.8,5C313.1,131.6,313.2,130,310.6,127.9z"/>
	<path d="M319.3,178.4c2.6,0,0.7,1.6,2.2,2.3c0.7,0.3,1.6-0.5,2-0.8c0.2-0.1,1.1-0.9,1.3-0.4c0.1,0.2-0.6,0.7-0.8,0.9
		c-0.4,0.3-0.6,0.6-0.7,1.1c-0.3,0.9-0.2,1.9-0.3,2.8c-0.2,1.4-1.1,3.1-0.7,4.5c2.2,0,3.6-4.5,5.1-5.6c1-0.7,2.1-1.2,3-1.9
		c0.9-0.6,2.1-1,3.2-1.3c1.4-0.3,2.3-0.1,3.6,0.2c0.1,0,0.2,0,0.2,0.1c0.3-1.2,1.5-2.4,2.9-3.5c-0.8-4.1-1.6-8.1-2.4-12
		c-1.3-0.6-2.5-1.6-3.9-2c-2.9-0.9-6.6-1.1-9.6-1.1c-3-0.1-5.5,0.5-7.8,1.4L319.3,178.4z"/>
	<path d="M124,280.2c0.5-0.4,0.9-0.7,1.4-1.1c-2.8-0.1-5.4-1.1-7.9-2.1c-0.4,0-0.7,0.1-1.1,0.1c-0.5,0.1-0.9,0.1-1.2,0.2
		c0,0.2,0,0.4,0,0.7C118.2,278.8,121.1,279.5,124,280.2z"/>
	<path d="M131.2,260.9c1.2,0.2,2.5-0.3,3.7-0.4l0-0.2L131.2,260.9z"/>
	<path d="M145.3,157.2c2.3,0.9,4.6,2,7.1,2.6l1.8-10.5c-0.6-0.2-1.2-0.4-1.8-0.5c-4-0.8-8.1-0.1-11.9,1.1c-1.3,0.4-2.6,0.6-3.9,0.6
		c-0.4,1.9-0.8,3.8-1.2,5.7c1.6-0.1,3-0.5,4.6-0.5C141.8,155.7,143.8,156.6,145.3,157.2z"/>
	<path d="M137.2,202.3c1.6,0.7,5-1.1,6.5-1.5c0.6-0.1,1.1-0.3,1.7-0.4l1.2-6.8c-0.1,0-0.2,0.1-0.3,0.1c-1.5,0.5-1.8,0.8-1.8,1.4
		c0,0,0,0.1,0,0.1c0,0,0,0,0,0c0,0.1,0,0.2,0,0.3c0.1,0.4,0.2,1,0.3,1.8c-1.2,0.4-2.3,1.6-3.5,1.8c-1.4,0.3-2.7-0.6-4.1,0.3
		C136.1,200.3,135.7,201.7,137.2,202.3z"/>
	<path d="M129.6,188.7c0.4,0,0.9,0,1.4,0c1.3-0.2,2.4-0.4,3.3-0.7c4.7-1.2,9.2-4.4,14.1-5.2l2.7-15.4c-2.3,0-5,0.8-6.7,1.8
		c-1.6,0.9-4,1.2-5.9,1.2c-1.9-0.1-3.8-0.9-5.7-1.2c-1.3,6.3-2.6,12.8-3.9,19.5c0.1,0,0.3,0,0.4,0
		C129.4,188.7,129.5,188.7,129.6,188.7z"/>
	<path d="M329.7,214.7c-1.2-0.3-2.3-0.4-3.5-0.4c0,0,0,0-0.1,0c-0.2,0-0.4,0-0.5,0l1.6,9.4c1.2,0.1,2.5,0.2,3.5,0.5
		c2.7,0.8,4.1,1.9,7,2c2.2,0.1,3.3-0.6,4.7-1.2l-5.4,0.9c0.3-0.2,0.6-0.4,0.8-0.7l7.3-1.2c-0.3-0.1-0.5-0.1-0.8-0.2
		c-1.2-0.2-2.2-0.5-3.2-0.9l-2.6,0.4c0-0.2,0-0.4,0.1-0.6l1.6-0.3c-0.9-0.5-1.6-1-2.3-1.7c-0.5-0.5-1-1.1-1.4-1.5
		C334.5,216.9,333.3,215.6,329.7,214.7z"/>
	<path d="M395,270.6l-0.2-1.3c-0.2,0-0.4,0-0.6,0c-0.1,0.7-0.1,1.3-0.2,1.9C394.6,271,395,270.8,395,270.6z"/>
	<path d="M355.1,262.6c-0.2,0.3-0.1,0.7,0.1,1.1C355.1,263.3,355.1,262.9,355.1,262.6z"/>
	<path d="M142.5,123.8c0,0.1-0.1,0.3-0.1,0.4l1.4-0.2C143.3,123.9,142.8,123.9,142.5,123.8z"/>
	<path d="M148.1,128.6l10.1-1.7l0.1-0.6l-10.5,1.7C148,128.2,148.1,128.4,148.1,128.6z"/>
	<path d="M144.3,126.2c0.4,0.1,0.7,0.3,1,0.4l8.4-1.4c-0.7-0.1-1.4-0.2-2.1-0.2L144.3,126.2z"/>
	<path d="M147.3,132.8c0.2,0.1,0.3,0.2,0.4,0.3c0.1,0.1,0.1,0.1,0.2,0.2l9.4-1.6l0.1-0.6L147.3,132.8z"/>
	<path d="M157.9,128.6l-17.1,2.8c0,0.2-0.1,0.4-0.1,0.5c0.2,0,0.3,0,0.5,0l16.6-2.8L157.9,128.6z"/>
	<path d="M155.2,136.3c0.2-0.1,0.3-0.3,0.5-0.4l-8.4,1.4c-0.1,0.2-0.3,0.4-0.5,0.7l7.7-1.3C154.8,136.6,155,136.4,155.2,136.3z"/>
	<path d="M148.4,134.8c0,0.2-0.1,0.4-0.1,0.6l8.7-1.4l0.1-0.6L148.4,134.8z"/>
	<path d="M142,143.4l2.3-0.4c0.3-0.2,0.5-0.4,0.6-0.7l-2.3,0.4C142.4,143,142.2,143.2,142,143.4z"/>
	<path d="M146.3,139.8l-1.1,0.2c-0.2,0.2-0.4,0.5-0.6,0.7l1.3-0.2C146,140.2,146.2,140,146.3,139.8z"/>
	<path d="M339.8,256.9l-5.4,0.9c0.5,0.1,1,0.2,1.5,0.3l5.2-0.9C340.7,257.1,340.3,257,339.8,256.9z"/>
	<path d="M334.2,262.5l-0.3,0l0.1,0.6l0.9-0.1C334.7,262.8,334.5,262.6,334.2,262.5z"/>
	<path d="M340.1,266.2l-5.4,0.9l0.1,0.6l6.1-1C340.8,266.5,340.5,266.3,340.1,266.2z"/>
	<path d="M337.1,264.3l-2.7,0.4l0.1,0.6l3.4-0.6C337.6,264.6,337.3,264.5,337.1,264.3z"/>
	<path d="M347.5,269.5l-12,2l0.1,0.6l12.5-2.1C347.9,269.8,347.7,269.6,347.5,269.5z"/>
	<path d="M344.5,267.6l-9.4,1.6l0.1,0.6l10.2-1.7C345.1,267.8,344.8,267.7,344.5,267.6z"/>
	<path d="M338.4,275.6c0.4,0.1,0.8,0.3,1.3,0.4l12.7-2.1c-0.1-0.2-0.3-0.3-0.5-0.5L338.4,275.6z"/>
	<path d="M349.9,271.4l-13.9,2.3l0.1,0.6l14.4-2.4C350.2,271.7,350,271.5,349.9,271.4z"/>
	<path d="M354,277.8c0.1-0.2,0.1-0.4,0.1-0.6l-6.4,1.1c0.5,0.1,1,0.2,1.4,0.4L354,277.8z"/>
	<path d="M353.6,275.5c-0.1-0.2-0.2-0.4-0.3-0.5l-10.9,1.8c0.4,0.1,0.9,0.3,1.3,0.4L353.6,275.5z"/>
	<path d="M337.4,218.2c-0.1,0.2-0.2,0.4-0.2,0.6l4.9-0.8c-0.2,0-0.5-0.1-0.7-0.1c-0.3,0-0.8-0.1-1.4-0.1L337.4,218.2z"/>
	<path d="M338.4,223.3l2.6-0.4l7.9-1.3c0-0.2-0.1-0.4-0.1-0.6l-8.7,1.4l-1.6,0.3C338.5,222.9,338.5,223.1,338.4,223.3z"/>
	<path d="M338.3,221l8.2-1.4c-0.3-0.1-0.6-0.3-0.9-0.4l-7.5,1.3C338.1,220.6,338.2,220.8,338.3,221z"/>
	<path d="M349.6,225.5l-21.4,3.6l0.1,0.6l21.4-3.6C349.6,225.9,349.6,225.7,349.6,225.5z"/>
	<path d="M327.9,227c0,0-0.1,0-0.1,0l0.1,0.4l4.2-0.7C330.6,226.7,329.1,226.8,327.9,227z"/>
	<path d="M337,225.8l5.4-0.9l6.8-1.1c0-0.2-0.1-0.4-0.1-0.6l-4.1,0.7l-7.3,1.2C337.6,225.4,337.3,225.6,337,225.8z"/>
	<path d="M350.3,229.9l-19.2,3.2c0.9,0,1.9,0.1,2.8,0.1l16.5-2.7C350.4,230.3,350.3,230.1,350.3,229.9z"/>
	<path d="M328.6,231.8l21.4-3.6c0-0.2-0.1-0.4-0.1-0.6l-21.4,3.6L328.6,231.8z"/>
	<path d="M349,234.8c0.6,0.1,1.3,0.2,1.9,0.3l0.2,0c0-0.2-0.1-0.4-0.1-0.6L349,234.8z"/>
	<path d="M350.7,232.2l-9.8,1.6c0.7,0.1,1.5,0.1,2.2,0.2l7.7-1.3C350.7,232.6,350.7,232.4,350.7,232.2z"/>
	<path d="M123.2,219.3l19.5-3.2l0-0.1c-0.4-0.1-0.7-0.2-1.1-0.3l-18.3,3C123.2,218.9,123.2,219.1,123.2,219.3z"/>
	<path d="M130.4,215.2l-6.7,1.1c0,0.2-0.1,0.4-0.1,0.6l12-2C133.9,214.9,132.1,215,130.4,215.2z"/>
	<path d="M141.9,220.3l-19.5,3.2c0,0.2-0.1,0.4-0.1,0.6l19.5-3.2L141.9,220.3z"/>
	<path d="M142.3,217.9l-19.5,3.2c0,0.2-0.1,0.4-0.1,0.6l19.5-3.2L142.3,217.9z"/>
	<path d="M141.1,225.1l-19.5,3.2c0,0.2-0.1,0.4-0.1,0.6l19.5-3.2L141.1,225.1z"/>
	<path d="M141.5,222.6l-19.5,3.2c0,0.2-0.1,0.4-0.1,0.6l19.5-3.2L141.5,222.6z"/>
	<path d="M140.3,229.7l-19.4,3.2c0,0.2-0.1,0.4-0.1,0.6l19.4-3.2L140.3,229.7z"/>
	<path d="M140.7,227.3l-19.4,3.2c0,0.2-0.1,0.4-0.1,0.6l19.4-3.2L140.7,227.3z"/>
	<path d="M120,238.4l6-1c0-0.2,0-0.4,0-0.6l-5.9,1C120.1,238,120,238.2,120,238.4z"/>
	<path d="M129.2,234.5c1.3-0.3,3-0.6,4.8-0.8l5.8-1l0.1-0.6l-19.4,3.2c0,0.2-0.1,0.4-0.1,0.6L129.2,234.5z"/>
	<path d="M126.3,240.9l-6.8,1.1c0,0.2-0.1,0.4-0.1,0.6l6.5-1.1C126,241.4,126.2,241.2,126.3,240.9z"/>
	<path d="M126.2,238.6l-6.4,1.1c0,0.2-0.1,0.4-0.1,0.6l6.6-1.1C126.2,239,126.2,238.8,126.2,238.6z"/>
	<path d="M122.4,251.4c-0.2-0.2-0.4-0.3-0.6-0.5l-3.7,0.6c0,0.2-0.1,0.4-0.1,0.6L122.4,251.4z"/>
	<path d="M120.1,249.4c-0.1-0.1-0.1-0.1-0.2-0.2c-0.1-0.1-0.2-0.2-0.3-0.3l-1.2,0.2c0,0.2-0.1,0.4-0.1,0.6L120.1,249.4z"/>
	<path d="M119.6,255.9c0.7,0.1,1.3,0.2,2,0.3l7.6-1.3c-0.4-0.1-0.8-0.3-1.1-0.4L119.6,255.9z"/>
	<path d="M117.6,254.4l7.5-1.3c-0.3-0.1-0.5-0.3-0.8-0.5l-6.7,1.1C117.7,254,117.7,254.2,117.6,254.4z"/>
	<path d="M129.1,259.6l6.1-1l0.1-0.6l-6.7,1.1C128.8,259.2,129,259.4,129.1,259.6z"/>
	<path d="M125.9,257.1c0.4,0.1,0.7,0.3,1,0.4l8.1-1.3c-0.6-0.1-1.2-0.2-1.8-0.3L125.9,257.1z"/>
	<path d="M596.3,170.7l0.1,0.6l8.6-1.4c-0.2-0.2-0.3-0.4-0.5-0.5L596.3,170.7z"/>
	<path d="M597.1,175.1l0.1,0.6l5.6-0.9c0.5-0.3,1-0.5,1.5-0.8L597.1,175.1z"/>
	<path d="M605.8,171.3l-9.1,1.5l0.1,0.6l9.1-1.5C605.8,171.7,605.8,171.5,605.8,171.3z"/>
	<path d="M417,233.9c-0.9,0.6-2.1,1-3.2,1.3c-1.4,0.3-2.3,0.1-3.6-0.2c-0.1,0-0.2,0-0.2-0.1c-0.5,2.2-4,4.2-5.9,5.6
		c-2,1.4-4.2,3.2-6.7,4.8c-0.4,2.7-0.8,5.3-1.1,7.8c3.8-1.9,7.7-4.2,11.8-3.3c2,0.4,3.5,2,5.4,2.6c0.4,0.1,0.8,0.2,1.2,0.3l3.4-19.6
		C417.7,233.4,417.3,233.6,417,233.9z"/>
	<path d="M596.5,140.1c6,0.2,10.5-0.2,14.4-1.1c-0.2-1.1-0.5-2.2-0.7-3.3c-1.7-1-3.3-1.9-5.4-1.5c-2.6,0.4-4,2.4-6.1,3.5
		c-2.9-0.2-5.6-1.1-8.6-3.1l0.9,5.4c1.1,0,2.1,0,3.3,0.1C594.9,140,595.7,140.1,596.5,140.1z"/>
	<path d="M614.1,154.2c-0.7,0.1-1.4,0.3-2.1,0.3c-0.6,0-1.2,0-1.8-0.1l-8.6,1.4c-0.8-0.5-1.6-0.9-2.4-1.4l5.4-0.9
		c-0.5-0.1-1.1-0.2-1.6-0.3l-4.6,0.8c-0.8-0.4-1.6-0.8-2.5-1.2l2.6-0.4c-0.7-0.1-1.3-0.2-2-0.3l-1.6,0.3c-0.6-0.3-1.3-0.5-1.9-0.8
		l0.6,3.7l0.7-0.1c0.2,0,0.4,0.1,0.6,0.1c0.7,0.1,1.4,0.3,2.2,0.4c0.9,0.1,1.8,0.2,2.7,0.3l-6,1l0.1,0.6l20.1-3.3
		C614.1,154.3,614.1,154.3,614.1,154.2z"/>
	<path d="M419.1,131.4c2.6,0.1,5.2,0.5,7.4,1.9c0.9,0.6,1.4,1.3,1.9,2.1c0.5,0.7,0.9,1.4,1.7,1.9c1.3,0.8,2.9,0.9,4.5,0.9l2.2-12.4
		c-8.4-0.9-13.9-1.7-15.9-1.9C420.3,126.1,419.8,128.7,419.1,131.4z"/>
	<path d="M621,226.1c-0.9,0-1.9,0.1-2.9,0.2c-0.1,0-0.2,0-0.3,0c-0.4,0-0.9,0-1.4,0c-1.3,0.2-2.4,0.4-3.3,0.7
		c-2.2,0.5-4.4,1.5-6.5,2.5l2.6,15.1c2,0.1,3.9,1.1,5.9,1.3c0.8,0.1,1.7,0.2,2.5,0.2c0.5-0.1,0.9-0.3,1.4-0.3
		c1.1-0.1,1.8,0.5,2.1,1.4c0.5,1.3,1,2.5,1.7,3.7c0.4,0.6,0.8,1,1.3,1.5c0.4,0.4,1,1.6,1.1,2.2c0.2,1.2,0.5,0.6-0.4,1.7
		c-1,1.2-3.3,2.5-4.9,3c-2.1,0.7-4.1-0.1-6.2-0.3c-0.7-0.1-1.4,0-2,0l1,5.9c1.9,0.3,3.1,1.6,5,2.1c1.8,0.4,3.6,0.4,5.4,1
		c1.7,0.5,3.5,1.3,5.3,1.7c1.3,0.3,2.8-0.3,4.1-0.1c0.6,0.1,1.2,0.3,1.7,0.5c-1.1-11.2-3-24.8-5.5-39.4c-1.7-1.2-2.4-3.5-4.4-4.1
		c-0.6-0.2-1.3-0.3-2.1-0.3C621.8,226,621.4,226,621,226.1z"/>
	<path d="M610.2,212.7c-1.6-0.7-4.8,1-6.4,1.4l0.4,2.5c0.6-0.4,1.1-0.7,1.7-0.9c1.4-0.3,2.7,0.6,4.1-0.3
		C611.3,214.7,611.7,213.3,610.2,212.7z"/>
	<path d="M423.5,192.3c-1.9-1.1-4.8-0.8-6.8-1.4c-2.7-0.8-4.1-1.9-7-2c-1.1,0-1.9,0.1-2.6,0.3c0,0.2-0.1,0.3-0.1,0.5l3.3-0.6
		c-0.3,0.2-0.6,0.4-0.8,0.7l-2.7,0.5c-0.1,0.6-0.2,1.2-0.3,1.8l2.4-0.4c0,0.2,0,0.4-0.1,0.6l-1.6,0.3c0.9,0.5,1.6,1,2.3,1.7
		c0.5,0.5,1,1.1,1.4,1.5c2,2.2,3.2,3.6,6.7,4.5c1.2,0.3,2.3,0.4,3.5,0.4c0,0,0,0,0.1,0c0.5,0,0.9,0.1,1.4,0.1
		c0.3,0.1,0.6,0.1,0.9,0.1l1.3-7.7C424.5,193,424.1,192.6,423.5,192.3z"/>
	<path d="M420.6,160.6l10.4-1.7l0.1-0.6l-11.7,1.9C419.8,160.3,420.2,160.5,420.6,160.6z"/>
	<path d="M417.2,156.5l14.6-2.4l0.1-0.6l-14.7,2.4C417.2,156.1,417.2,156.3,417.2,156.5z"/>
	<path d="M416.3,159l15-2.5l0.1-0.6l-16.3,2.7C415.5,158.7,415.9,158.8,416.3,159z"/>
	<path d="M414.6,152.2l18-3l0.1-0.6l-17.9,3C414.7,151.8,414.7,152,414.6,152.2z"/>
	<path d="M415.9,154.4l16.3-2.7l0.1-0.6l-17.1,2.8C415.4,154.1,415.7,154.2,415.9,154.4z"/>
	<path d="M415.7,147.4l17.8-3l0.1-0.6l-17.8,3C415.8,147,415.7,147.2,415.7,147.4z"/>
	<path d="M415.2,149.9l17.9-3l0.1-0.6l-17.9,3C415.2,149.4,415.2,149.7,415.2,149.9z"/>
	<path d="M426.4,141.1c-0.5-0.1-0.9-0.2-1.4-0.3c0,0,0,0-0.1,0l-8.2,1.4c0,0.2-0.1,0.4-0.1,0.6L426.4,141.1z"/>
	<path d="M416.2,145.2l17.7-2.9l0.1-0.6l-17.7,2.9C416.2,144.8,416.2,145,416.2,145.2z"/>
	<path d="M407.4,197.2l2.6-0.4c0.1-0.2,0.2-0.4,0.2-0.6l-4.5,0.7c0,0,0,0.1,0,0.1c0.1,0,0.2,0,0.3,0
		C406.3,197,406.8,197.1,407.4,197.2z"/>
	<path d="M408.9,191.7l-2.4,0.4c0,0.2-0.1,0.4-0.1,0.6l0.9-0.1l1.6-0.3C408.9,192.1,408.9,191.9,408.9,191.7z"/>
	<path d="M409.1,194l-3,0.5c0,0.2-0.1,0.4-0.1,0.6l3.4-0.6C409.3,194.4,409.2,194.2,409.1,194z"/>
	<path d="M407.4,187.9l19.1-3.2l0.1-0.6l-19.1,3.2C407.5,187.4,407.4,187.6,407.4,187.9z"/>
	<path d="M419.5,188c1.5-0.2,3-0.4,4.6-0.5l2-0.3l0.1-0.6l-10.8,1.8C416.8,188.2,418.3,188.2,419.5,188z"/>
	<path d="M410.4,189.1l-3.3,0.6c0,0.2-0.1,0.4-0.1,0.6l2.7-0.5C409.8,189.6,410.1,189.3,410.4,189.1z"/>
	<path d="M413.5,181.7l-5,0.8c0,0.2-0.1,0.4-0.1,0.6l8-1.3C415.3,181.8,414.4,181.8,413.5,181.7z"/>
	<path d="M423,182.5l-15.1,2.5c0,0.2-0.1,0.4-0.1,0.6l16.9-2.8C424.2,182.7,423.6,182.6,423,182.5z"/>
	<path d="M622.5,195.9l-18.1,3c0.5,0.1,0.9,0.3,1.3,0.4l16.8-2.8C622.6,196.3,622.5,196.1,622.5,195.9z"/>
	<path d="M617,199.8l6-1c0-0.2-0.1-0.4-0.1-0.6l-11.2,1.9C613.5,200.1,615.3,200,617,199.8z"/>
	<path d="M600.6,195.5l21.1-3.5c0-0.2-0.1-0.4-0.1-0.6l-21.1,3.5L600.6,195.5z"/>
	<path d="M601,197.6c0.1,0,0.2,0.1,0.3,0.1l20.9-3.5c0-0.2-0.1-0.4-0.1-0.6l-21.2,3.5L601,197.6z"/>
	<path d="M599.8,191l21-3.5c0-0.2-0.1-0.4-0.1-0.6l-21,3.5L599.8,191z"/>
	<path d="M600.2,193.3l21.1-3.5c0-0.2-0.1-0.4-0.1-0.6l-21.1,3.5L600.2,193.3z"/>
	<path d="M599.1,186.6l20.9-3.5c0-0.2-0.1-0.4-0.1-0.6L599,186L599.1,186.6z"/>
	<path d="M599.5,188.9l21-3.5c0-0.2-0.1-0.4-0.1-0.6l-21,3.5L599.5,188.9z"/>
	<path d="M604.7,180.4l-6.5,1.1l0.1,0.6l7.6-1.3C605.4,180.7,605,180.5,604.7,180.4z"/>
	<path d="M618.2,180.5c-1.3,0.3-3,0.6-4.8,0.8l-14.8,2.5l0.1,0.6l20.9-3.5c0-0.2-0.1-0.4-0.1-0.6L618.2,180.5z"/>
	<path d="M601.1,176.8l-3.6,0.6l0.1,0.6l3.6-0.6C601.1,177.1,601.1,176.9,601.1,176.8z"/>
	<path d="M602.3,178.9l-4.4,0.7l0.1,0.6l4.9-0.8C602.7,179.3,602.5,179.1,602.3,178.9z"/>
	<path d="M596,169l4.2-0.7c-1.3,0-2.7,0.3-4.2,0.5L596,169z"/>
	<path d="M614.5,156l-12.9,2.1c0.9,0,1.7,0.1,2.4,0.1c0.3,0,0.6,0,0.8,0l9.7-1.6C614.6,156.4,614.5,156.2,614.5,156z"/>
	<path d="M615.1,158.9c0-0.2-0.1-0.4-0.1-0.6l-2.5,0.4c0.6,0.1,1.2,0.2,1.8,0.3L615.1,158.9z"/>
</g>
</svg>
