<?xml version="1.0" encoding="utf-8"?>
<!-- Generator: Adobe Illustrator 25.3.0, SVG Export Plug-In . SVG Version: 6.00 Build 0)  -->
<svg version="1.1" id="Layer_1" xmlns="http://www.w3.org/2000/svg" xmlns:xlink="http://www.w3.org/1999/xlink" x="0px" y="0px"
	 viewBox="0 0 750.2 400.1" style="enable-background:new 0 0 750.2 400.1;" xml:space="preserve">
<g>
	<path d="M158.4,125.8c-0.8-0.1-1.5-0.2-2.2-0.2l1.8,2.4L158.4,125.8z"/>
	<path d="M330.1,128.1c-0.2-0.9-0.4-1.8-0.6-2.6l-15.9,20.4l0.5,2.7L330.1,128.1z"/>
	<path d="M154.2,149.6l-13.6-17.4c-0.2,0.8-0.4,1.7-0.6,2.6l13.7,17.5L154.2,149.6z"/>
	<path d="M335.2,151.7c-0.2-0.9-0.4-1.8-0.6-2.6l-16.7,21.4l0.5,2.7L335.2,151.7z"/>
	<path d="M340.2,175.5c-0.2-0.9-0.4-1.8-0.5-2.7l-17.4,22.3l0.5,2.7L340.2,175.5z"/>
	<path d="M150,174l-14.4-18.4c-0.2,0.9-0.4,1.7-0.6,2.6l14.4,18.5L150,174z"/>
	<path d="M145.9,197.6l-15-19.2c-0.2,0.9-0.4,1.8-0.5,2.7l15,19.2L145.9,197.6z"/>
	<path d="M344.7,198.7c-0.2-0.9-0.3-1.8-0.5-2.7l-17.8,22.8l0.5,2.7L344.7,198.7z"/>
	<path d="M141.6,222l-15.4-19.7c-0.2,0.9-0.3,1.8-0.5,2.7l15.4,19.7L141.6,222z"/>
	<path d="M349.2,223.1c-0.2-0.9-0.3-1.8-0.5-2.7l-18,23.1l0.5,2.7L349.2,223.1z"/>
	<path d="M353.1,248.1c-0.1-0.9-0.3-1.9-0.4-2.8l-17.8,22.8l0.5,2.7L353.1,248.1z"/>
	<path d="M137.4,246.4l-15.5-19.8c-0.2,0.9-0.3,1.8-0.5,2.8l15.4,19.8L137.4,246.4z"/>
	<path d="M133.1,270.9L118,251.5c-0.1,1-0.3,1.9-0.4,2.8l15,19.2L133.1,270.9z"/>
	<path d="M356.2,274.3c-0.1-1-0.2-2-0.3-3l-6.6,8.5c1.1-0.3,2.1-0.5,3.2-0.8L356.2,274.3z"/>
	<path d="M321.2,124.2c-0.9,0.1-1.9,0.3-2.9,0.4l-6.8,8.7l0.5,2.7L321.2,124.2z"/>
	<path d="M156.4,137.2l-10-12.8c-1.2-0.2-2.2-0.3-2.9-0.4l12.4,15.9L156.4,137.2z"/>
	<path d="M332.6,139.6c-0.2-0.9-0.4-1.8-0.6-2.6l-16.3,20.9l0.5,2.7L332.6,139.6z"/>
	<path d="M152.1,161.6l-14-17.9c-0.2,0.9-0.4,1.7-0.6,2.6l14.1,18L152.1,161.6z"/>
	<path d="M337.7,163.3c-0.2-0.9-0.4-1.8-0.5-2.6L320,182.5l0.5,2.7L337.7,163.3z"/>
	<path d="M342.8,188.8c-0.2-0.9-0.3-1.8-0.5-2.7l-17.7,22.6l0.5,2.7L342.8,188.8z"/>
	<path d="M147.6,187.6l-14.7-18.9c-0.2,0.9-0.4,1.8-0.5,2.7l14.8,19L147.6,187.6z"/>
	<path d="M143.9,208.8l-15.2-19.4c-0.2,0.9-0.3,1.8-0.5,2.7l15.2,19.5L143.9,208.8z"/>
	<path d="M346.8,209.8c-0.2-0.9-0.3-1.8-0.5-2.7l-18,23l0.5,2.7L346.8,209.8z"/>
	<path d="M351,234.4c-0.1-0.9-0.3-1.8-0.5-2.8l-18,23l0.5,2.7L351,234.4z"/>
	<path d="M139.7,233.2l-15.4-19.8c-0.2,0.9-0.3,1.8-0.5,2.7l15.5,19.8L139.7,233.2z"/>
	<path d="M135.4,257.6l-15.4-19.7c-0.1,0.9-0.3,1.9-0.4,2.8l15.3,19.6L135.4,257.6z"/>
	<path d="M354.7,259.8c-0.1-0.9-0.2-1.9-0.4-2.9l-17.5,22.4l0.5,2.7L354.7,259.8z"/>
	<path d="M130.9,281.7l-14.4-18.4c-0.1,1-0.2,2-0.3,2.9l11.6,14.8C128.8,281.2,129.9,281.5,130.9,281.7z"/>
	<path d="M589.8,133.6l0.5,2.7l9.5-12.1c-0.9,0.1-1.9,0.3-2.9,0.4L589.8,133.6z"/>
	<path d="M421.4,123.9l12.8,16.3l0.5-2.7l-10.3-13.2C423.1,124.1,422.1,124,421.4,123.9z"/>
	<path d="M594.1,158.2l0.5,2.7l16.4-21.1c-0.2-0.9-0.4-1.8-0.6-2.6L594.1,158.2z"/>
	<path d="M415.8,146.6l14.1,18.1l0.5-2.7l-14-17.9C416.2,144.9,416,145.7,415.8,146.6z"/>
	<path d="M410.9,170.2l14.8,18.9l0.5-2.7l-14.7-18.8C411.3,168.4,411.1,169.3,410.9,170.2z"/>
	<path d="M598.4,182.8l0.5,2.7l17.2-22c-0.2-0.9-0.4-1.8-0.5-2.6L598.4,182.8z"/>
	<path d="M602.6,206.5l0.5,2.7l17.7-22.7c-0.2-0.9-0.4-1.8-0.5-2.7L602.6,206.5z"/>
	<path d="M406.3,193.2l15.2,19.5l0.5-2.7l-15.2-19.5C406.7,191.4,406.5,192.3,406.3,193.2z"/>
	<path d="M401.9,217.3l15.5,19.8l0.5-2.7l-15.5-19.8C402.2,215.5,402,216.4,401.9,217.3z"/>
	<path d="M606.8,231.1l0.5,2.7l18-23c-0.2-0.9-0.3-1.8-0.5-2.7L606.8,231.1z"/>
	<path d="M611.1,255.7l0.5,2.7l18-23c-0.1-0.9-0.3-1.8-0.4-2.8L611.1,255.7z"/>
	<path d="M397.8,241.9l15.3,19.6l0.5-2.7l-15.4-19.7C398.1,240.1,397.9,241,397.8,241.9z"/>
	<path d="M615.4,280.4l0.4,2.1c0.3-0.1,0.5-0.1,0.8-0.2l16.7-21.3c-0.1-0.9-0.2-1.9-0.4-2.9L615.4,280.4z"/>
	<path d="M394.4,267.5l10.3,13.2c1.1,0.2,2.1,0.5,3.2,0.7l-13.2-16.9C394.6,265.5,394.5,266.5,394.4,267.5z"/>
	<path d="M436.3,127.8l0.4-2.1c-0.7-0.1-1.5-0.2-2.2-0.2L436.3,127.8z"/>
	<path d="M592.4,148.3l16-20.5c-0.2-0.9-0.4-1.8-0.6-2.6l-15.9,20.3L592.4,148.3z"/>
	<path d="M418.4,134.7l13.7,17.5l0.5-2.7L419,132.1C418.8,133,418.6,133.8,418.4,134.7z"/>
	<path d="M413.4,158.2l14.4,18.5l0.5-2.7L414,155.5C413.8,156.4,413.6,157.3,413.4,158.2z"/>
	<path d="M596.7,172.9l16.8-21.5c-0.2-0.9-0.4-1.8-0.6-2.6l-16.7,21.4L596.7,172.9z"/>
	<path d="M601.3,199.1l17.5-22.4c-0.2-0.9-0.4-1.8-0.5-2.7l-17.4,22.3L601.3,199.1z"/>
	<path d="M408.3,183.4l15.1,19.3l0.5-2.7l-15-19.2C408.6,181.6,408.4,182.5,408.3,183.4z"/>
	<path d="M605,220.5l17.9-22.9c-0.2-0.9-0.3-1.8-0.5-2.7l-17.8,22.8L605,220.5z"/>
	<path d="M404.3,204.2l15.4,19.7l0.5-2.7l-15.3-19.7C404.6,202.4,404.4,203.3,404.3,204.2z"/>
	<path d="M399.9,228.5l15.5,19.8l0.5-2.7l-15.5-19.8C400.2,226.7,400.1,227.6,399.9,228.5z"/>
	<path d="M609.3,245.1l18-23.1c-0.2-0.9-0.3-1.8-0.5-2.7l-18,23.1L609.3,245.1z"/>
	<path d="M396.1,253.5l15,19.3l0.5-2.7l-15.1-19.4C396.4,251.6,396.2,252.5,396.1,253.5z"/>
	<path d="M613.5,269.7l17.8-22.8c-0.1-0.9-0.3-1.9-0.4-2.8l-17.8,22.8L613.5,269.7z"/>
	<path d="M629.5,279.3l5-6.3c-0.1-1-0.2-2-0.3-3l-7.9,10.1C627.4,279.8,628.4,279.6,629.5,279.3z"/>
	<path d="M393.6,276.8c0,0.4-0.1,0.8-0.1,1.2c0.4,0.1,0.9,0.2,1.3,0.3L393.6,276.8z"/>
</g>
</svg>
