<?xml version="1.0" encoding="utf-8"?>
<!-- Generator: Adobe Illustrator 25.3.0, SVG Export Plug-In . SVG Version: 6.00 Build 0)  -->
<svg version="1.1" id="Layer_1" xmlns="http://www.w3.org/2000/svg" xmlns:xlink="http://www.w3.org/1999/xlink" x="0px" y="0px"
	 viewBox="0 0 750.2 400.1" style="enable-background:new 0 0 750.2 400.1;" xml:space="preserve">
<g>
	<path d="M136.3,252.7l0.2-1.3c-0.1,0-0.2,0-0.3,0C136.3,251.8,136.3,252.2,136.3,252.7z"/>
	<path d="M136.5,242.5c0-1,0-2-0.1-3c-0.1,0-0.3,0-0.4,0c0,1,0,2,0.1,3C136.3,242.5,136.4,242.5,136.5,242.5z"/>
	<path d="M135.8,227.7c0,1,0,2,0.1,3c0.1,0,0.2,0,0.3,0c0-1-0.1-2-0.1-3C136,227.7,135.9,227.7,135.8,227.7z"/>
	<path d="M141.3,212.1c0.1,0,0.1,0,0.2,0c-0.1-1-0.1-2-0.2-2.9c-0.1,0-0.1,0-0.2,0C141.2,210.1,141.2,211.1,141.3,212.1z"/>
	<path d="M140.5,200.3c0,0,0.1,0,0.1,0c-0.1-1-0.1-2-0.2-2.9c0,0-0.1,0-0.1,0C140.4,198.3,140.5,199.3,140.5,200.3z"/>
	<path d="M131.4,280.9c-0.2,0-0.4,0-0.6,0c0,0.3,0,0.5,0,0.8c0.1,0,0.3,0.1,0.4,0.1L131.4,280.9z"/>
	<path d="M122.5,279.7c0,0,0,0.1,0,0.1c0.5,0.1,1.1,0.3,1.6,0.4c0-0.1,0-0.1,0-0.2C123.6,279.9,123,279.8,122.5,279.7z"/>
	<path d="M115.2,278C115.2,278,115.2,278,115.2,278c0.1,0,0.3,0.1,0.4,0.1C115.5,278.1,115.3,278,115.2,278z"/>
	<path d="M118.4,278.8c0.2,0,0.3,0.1,0.5,0.1c0.4,0.1,0.7,0.2,1.1,0.2c0.1-1,0.1-2,0.2-2.9c-0.5-0.1-1-0.2-1.5-0.3
		C118.5,276.9,118.5,277.8,118.4,278.8z"/>
	<path d="M131.1,275c0,1,0,2-0.1,3c0.3,0,0.6,0.1,0.9,0.1l0.5-2.6c0-0.1,0-0.2,0-0.3C131.9,275,131.5,275,131.1,275z"/>
	<path d="M122.7,276.8c0.5,0.1,0.9,0.2,1.4,0.2c0-1,0.1-2,0.1-3c-0.5-0.1-0.9-0.2-1.4-0.2C122.9,274.8,122.8,275.8,122.7,276.8z"/>
	<path d="M116,275.2c0.1-1,0.2-2,0.3-2.9c-0.2-0.1-0.4-0.1-0.6-0.2c-0.1,1-0.2,2-0.2,2.9C115.6,275.1,115.8,275.2,116,275.2z"/>
	<path d="M131.2,272c0.3,0,0.7,0.1,1,0.1c0-1,0-2,0-3c-0.3,0-0.7-0.1-1-0.1C131.3,270,131.2,271,131.2,272z"/>
	<path d="M124.5,268.1c-0.4-0.1-0.7-0.1-1.1-0.2c-0.1,1-0.1,2-0.2,3c0.4,0.1,0.7,0.1,1.1,0.2C124.4,270.1,124.4,269.1,124.5,268.1z"
		/>
	<path d="M116.4,269.3c0.1-1,0.2-2,0.3-2.9c-0.2,0-0.3-0.1-0.5-0.1c-0.1,1-0.2,2-0.3,2.9C116.1,269.2,116.2,269.3,116.4,269.3z"/>
	<path d="M131.5,263.1c0,1,0,2-0.1,3c0.3,0,0.6,0.1,0.8,0.1c0-1,0-2,0-3C132,263.2,131.8,263.2,131.5,263.1z"/>
	<path d="M124.7,262.2c-0.3-0.1-0.6-0.1-0.9-0.2c-0.1,1-0.1,2-0.2,3c0.3,0.1,0.6,0.1,0.9,0.2C124.6,264.2,124.6,263.2,124.7,262.2z"
		/>
	<path d="M116.8,263.4c0.1-1,0.2-2,0.3-2.9c-0.1,0-0.1,0-0.2-0.1c-0.1,1-0.2,2-0.3,2.9C116.6,263.4,116.7,263.4,116.8,263.4z"/>
	<path d="M124.9,256.3c-0.2,0-0.5-0.1-0.7-0.1c-0.1,1-0.1,2-0.2,3c0.2,0,0.5,0.1,0.7,0.1C124.8,258.3,124.8,257.3,124.9,256.3z"/>
	<path d="M132.4,251.4c-0.2,0-0.4,0-0.5-0.1c0,1,0,2-0.1,3c0.2,0,0.4,0,0.6,0.1C132.4,253.3,132.4,252.4,132.4,251.4z"/>
	<path d="M125.5,244.5c-0.2,0-0.3-0.1-0.5-0.1c-0.1,1-0.1,2-0.2,3c0.2,0,0.3,0.1,0.5,0.1C125.4,246.5,125.4,245.5,125.5,244.5z"/>
	<path d="M132.6,239.5c-0.1,0-0.3,0-0.4,0c0,1,0,2-0.1,3c0.1,0,0.3,0,0.4,0C132.5,241.5,132.6,240.5,132.6,239.5z"/>
	<path d="M125.9,235.6c0.1-1,0.1-2,0.2-3c-0.1,0-0.2,0-0.3-0.1c-0.1,1-0.1,2-0.2,3C125.7,235.6,125.8,235.6,125.9,235.6z"/>
	<path d="M132.8,227.7c-0.1,0-0.2,0-0.3,0c0,1-0.1,2-0.1,3c0.1,0,0.2,0,0.3,0C132.8,229.7,132.8,228.7,132.8,227.7z"/>
	<path d="M126.6,223.8c0.1-1,0.1-2,0.2-3c-0.1,0-0.2,0-0.2,0c-0.1,1-0.1,2-0.2,2.9C126.5,223.8,126.5,223.8,126.6,223.8z"/>
	<path d="M127.4,212.1c0.1-1,0.1-2,0.2-2.9c-0.1,0-0.1,0-0.2,0c-0.1,1-0.1,2-0.2,2.9C127.2,212,127.3,212,127.4,212.1z"/>
	<path d="M128.1,200.3c0.1-1,0.1-2,0.2-2.9c0,0-0.1,0-0.1,0c-0.1,1-0.1,2-0.2,2.9C128,200.3,128.1,200.3,128.1,200.3z"/>
	<path d="M347.7,275.1c0,1,0,2,0,3c0.4,0,0.9-0.1,1.3-0.1c0-1,0-2-0.1-3C348.5,275,348.1,275,347.7,275.1z"/>
	<path d="M355.8,274.1c0,1,0.1,2,0.1,3c0.2,0,0.3-0.1,0.5-0.1c-0.1-1-0.1-1.9-0.2-2.9C356.1,274,355.9,274,355.8,274.1z"/>
	<path d="M347.7,269.1c0,1,0,2,0,3c0.3,0,0.7-0.1,1-0.1c0-1,0-2-0.1-3C348.4,269.1,348.1,269.1,347.7,269.1z"/>
	<path d="M355.7,268.1C355.6,268.1,355.6,268.1,355.7,268.1c0,1,0,2,0.1,3c0.1,0,0.2,0,0.2,0C355.9,270.1,355.8,269.1,355.7,268.1z"
		/>
	<path d="M347.7,263.2c0,1,0,2,0,3c0.3,0,0.6,0,0.8-0.1c0-1,0-2-0.1-3C348.3,263.2,348,263.2,347.7,263.2z"/>
	<path d="M347.6,251.4c0,1,0,2,0.1,3c0.2,0,0.4,0,0.6-0.1c0-1,0-2-0.1-3C348,251.3,347.8,251.3,347.6,251.4z"/>
	<path d="M347.8,239.5c-0.1,0-0.3,0-0.4,0c0,1,0,2,0.1,3c0.1,0,0.3,0,0.4,0C347.9,241.5,347.8,240.5,347.8,239.5z"/>
	<path d="M347.2,227.7c0,1,0,2,0.1,3c0.1,0,0.2,0,0.3,0c0-1-0.1-2-0.1-3C347.4,227.7,347.3,227.7,347.2,227.7z"/>
	<path d="M343.8,281c-0.5,0-1.1-0.1-1.6-0.1c0,0.2,0,0.4,0,0.5C342.7,281.3,343.2,281.2,343.8,281C343.8,281,343.8,281,343.8,281z"
		/>
	<path d="M343.7,275.1c-0.4,0-0.9-0.1-1.3-0.1c0,1,0,2-0.1,3c0.4,0,0.9,0.1,1.3,0.1C343.7,277.1,343.7,276.1,343.7,275.1z"/>
	<path d="M343.6,272.1c0-1,0-2,0-3c-0.3,0-0.7-0.1-1-0.1c0,1,0,2-0.1,3C342.9,272.1,343.3,272.1,343.6,272.1z"/>
	<path d="M335.8,268.1c-0.3-0.1-0.6-0.1-0.9-0.2l0.5,3.1c0.1,0,0.1,0,0.2,0C335.7,270.1,335.8,269.1,335.8,268.1z"/>
	<path d="M343.7,263.2c-0.3,0-0.6,0-0.8-0.1c0,1,0,2-0.1,3c0.3,0,0.6,0.1,0.8,0.1C343.6,265.2,343.7,264.2,343.7,263.2z"/>
	<path d="M335.9,265.2c0.1-1,0.1-2,0.2-3c-0.3-0.1-0.6-0.1-0.9-0.2c-0.1,1-0.1,2-0.2,3C335.3,265.1,335.6,265.1,335.9,265.2z"/>
	<path d="M336.3,256.3c-0.2,0-0.5-0.1-0.7-0.1c-0.1,1-0.1,2-0.2,3c0.2,0,0.5,0.1,0.7,0.1C336.1,258.3,336.2,257.3,336.3,256.3z"/>
	<path d="M343.1,254.3c0.2,0,0.4,0,0.6,0.1c0-1,0-2,0.1-3c-0.2,0-0.4,0-0.5-0.1C343.2,252.3,343.2,253.3,343.1,254.3z"/>
	<path d="M336.2,247.3c0.2,0,0.3,0.1,0.5,0.1c0.1-1,0.1-2,0.2-3c-0.2,0-0.3-0.1-0.5-0.1C336.3,245.4,336.2,246.4,336.2,247.3z"/>
	<path d="M343.5,242.5c0.1,0,0.3,0,0.4,0c0-1,0-2,0.1-3c-0.1,0-0.3,0-0.4,0C343.5,240.5,343.5,241.5,343.5,242.5z"/>
	<path d="M330,236.9c-0.1,0.6-0.1,1.3-0.2,1.9l0.2,1.1c0,0,0.1,0,0.1,0c0.1-1,0.2-2,0.3-2.9C330.3,237,330.2,236.9,330,236.9z"/>
	<path d="M337,235.6c0.1,0,0.2,0,0.4,0.1c0.1-1,0.1-2,0.2-3c-0.1,0-0.2,0-0.3-0.1C337.1,233.6,337,234.6,337,235.6z"/>
	<path d="M343.8,230.6c0.1,0,0.2,0,0.3,0c0-1,0-2,0.1-3c-0.1,0-0.2,0-0.3,0C343.9,228.6,343.8,229.6,343.8,230.6z"/>
	<path d="M337.7,223.8c0.1,0,0.2,0,0.3,0c0.1-1,0.1-2,0.2-3c-0.1,0-0.2,0-0.2,0C337.9,221.8,337.8,222.8,337.7,223.8z"/>
	<path d="M338.5,212c0.1,0,0.1,0,0.2,0c0.1-1,0.1-2,0.2-2.9c-0.1,0-0.1,0-0.2,0C338.7,210.1,338.6,211,338.5,212z"/>
	<path d="M327.1,208.7c0.1,0,0.1,0,0.2,0.1c0.1-1,0.3-1.9,0.4-2.9c-0.1,0-0.1,0-0.2-0.1C327.4,206.8,327.2,207.7,327.1,208.7z"/>
	<path d="M339.7,197.3c0,0-0.1,0-0.1,0c-0.1,1-0.1,2-0.2,2.9c0,0,0.1,0,0.1,0C339.6,199.3,339.6,198.3,339.7,197.3z"/>
	<path d="M330.9,182.7c-0.1,1-0.3,1.9-0.4,2.9c0,0,0,0,0.1,0C330.7,184.7,330.8,183.7,330.9,182.7
		C330.9,182.8,330.9,182.8,330.9,182.7z"/>
	<path d="M417.7,230.6c0-1-0.1-2-0.1-3c-0.1,0-0.2,0-0.3,0c0,1,0,2,0.1,3C417.5,230.6,417.6,230.6,417.7,230.6z"/>
	<path d="M422.2,200.3c-0.1-1-0.1-2-0.2-2.9c0,0-0.1,0-0.1,0c0.1,1,0.1,2,0.2,2.9C422.1,200.3,422.1,200.3,422.2,200.3z"/>
	<path d="M405.5,280.9c0-0.3,0-0.6,0-0.9c-0.5-0.1-1.1-0.2-1.6-0.3c0,0.3,0,0.6,0,0.8C404.5,280.6,405,280.8,405.5,280.9z"/>
	<path d="M395.7,277.7c0,0.3,0,0.5-0.1,0.8c0.5,0.1,1.1,0.3,1.6,0.4c0-0.3,0-0.5,0.1-0.8C396.8,278,396.3,277.9,395.7,277.7z"/>
	<path d="M399.9,278.8c0.5,0.1,1,0.2,1.5,0.3c0.1-1,0.1-2,0.2-2.9c-0.5-0.1-1-0.2-1.5-0.3C400,276.9,399.9,277.8,399.9,278.8z"/>
	<path d="M405.8,274.1c-0.5-0.1-0.9-0.2-1.4-0.2c-0.1,1-0.1,2-0.2,3c0.5,0.1,0.9,0.2,1.4,0.2C405.7,276,405.7,275,405.8,274.1z"/>
	<path d="M397.5,275.2c0.1-1,0.2-2,0.3-2.9c-0.5-0.1-0.9-0.3-1.4-0.4c-0.1,1-0.2,2-0.3,2.9C396.6,275,397,275.1,397.5,275.2z"/>
	<path d="M405.9,268.1c-0.4-0.1-0.7-0.1-1.1-0.2c-0.1,1-0.1,2-0.2,3c0.4,0.1,0.7,0.1,1.1,0.2C405.8,270.1,405.9,269.1,405.9,268.1z"
		/>
	<path d="M397,266.1c-0.1,1-0.2,2-0.3,2.9c0.4,0.1,0.8,0.2,1.1,0.3c0.1-1,0.2-2,0.3-2.9C397.8,266.3,397.4,266.2,397,266.1z"/>
	<path d="M405.1,265c0.3,0.1,0.6,0.1,0.9,0.2c0.1-1,0.1-2,0.2-3c-0.3-0.1-0.6-0.1-0.9-0.2C405.2,263,405.2,264,405.1,265z"/>
	<path d="M398.3,263.4c0.1-1,0.2-2,0.3-2.9c-0.3-0.1-0.6-0.2-0.9-0.2c-0.1,1-0.2,2-0.3,2.9C397.7,263.3,398,263.3,398.3,263.4z"/>
	<path d="M406.2,259.3c0.1-1,0.1-2,0.2-3c-0.2,0-0.5-0.1-0.7-0.1c-0.1,1-0.1,2-0.2,3C405.8,259.2,406,259.2,406.2,259.3z"/>
	<path d="M413.9,251.4c-0.2,0-0.4,0-0.5-0.1c0,1,0,2-0.1,3c0.2,0,0.4,0,0.6,0.1C413.9,253.3,413.9,252.4,413.9,251.4z"/>
	<path d="M399.2,251.7c0.1-1,0.2-2,0.3-2.9c-0.2-0.1-0.4-0.1-0.6-0.2c-0.1,1-0.2,2-0.3,2.9C398.8,251.6,399,251.6,399.2,251.7z"/>
	<path d="M406.8,247.4c0.1-1,0.1-2,0.2-3c-0.2,0-0.3-0.1-0.5-0.1c-0.1,1-0.1,2-0.2,3C406.5,247.4,406.6,247.4,406.8,247.4z"/>
	<path d="M413.6,242.5c0.1,0,0.3,0,0.4,0c0-1,0-2,0.1-3c-0.1,0-0.3,0-0.4,0C413.7,240.5,413.7,241.5,413.6,242.5z"/>
	<path d="M400.6,237c-0.1,0-0.3-0.1-0.4-0.1c-0.1,1-0.2,2-0.3,2.9c0.1,0,0.3,0.1,0.4,0.1C400.4,239,400.5,238,400.6,237z"/>
	<path d="M407.6,232.7c-0.1,0-0.2,0-0.3-0.1c-0.1,1-0.1,2-0.2,3c0.1,0,0.2,0,0.4,0.1C407.5,234.7,407.6,233.7,407.6,232.7z"/>
	<path d="M414.2,230.7c0-1,0-2,0.1-3c-0.1,0-0.2,0-0.3,0c0,1-0.1,2-0.1,3C414.1,230.6,414.2,230.6,414.2,230.7z"/>
	<path d="M407.9,223.8c0.1,0,0.2,0,0.3,0c0.1-1,0.1-2,0.2-3c-0.1,0-0.2,0-0.2,0C408,221.8,407.9,222.8,407.9,223.8z"/>
	<path d="M408.9,212.1c0.1-1,0.1-2,0.2-2.9c-0.1,0-0.1,0-0.2,0c-0.1,1-0.1,2-0.2,2.9C408.7,212,408.8,212,408.9,212.1z"/>
	<path d="M409.8,197.3c0,0-0.1,0-0.1,0c-0.1,1-0.1,2-0.2,2.9c0,0,0.1,0,0.1,0C409.7,199.3,409.8,198.3,409.8,197.3z"/>
	<path d="M618.7,281.5c-0.7-0.2-1.3-0.5-2-0.7c-0.1,0.5-0.1,1-0.2,1.5c0.7-0.1,1.4-0.3,2.2-0.5C618.7,281.7,618.7,281.6,618.7,281.5
		z"/>
	<path d="M621.2,279.4c-0.1,0.6-0.1,1.3-0.2,1.9c0.6-0.1,1.3-0.3,2-0.4c0-0.3,0.1-0.6,0.1-0.9C622.5,279.8,621.9,279.6,621.2,279.4z
		"/>
	<path d="M627.2,279.9c0-0.6,0.1-1.1,0.1-1.7c-0.5-0.1-1.1-0.3-1.6-0.5c-0.1,0.8-0.2,1.7-0.2,2.5C626.1,280.1,626.7,280,627.2,279.9
		z"/>
	<path d="M617.2,277.9c0.6,0.2,1.2,0.4,1.7,0.6c0.1-1,0.2-1.9,0.4-2.9c-0.6-0.2-1.1-0.4-1.7-0.6C617.5,276,617.3,276.9,617.2,277.9z
		"/>
	<path d="M630.1,275.9c-0.1,1-0.1,2-0.2,2.9c0.3,0.1,0.6,0.1,0.9,0.2c0.2-0.1,0.5-0.1,0.7-0.2c0.1-0.9,0.1-1.8,0.2-2.6
		C631.1,276.1,630.6,276,630.1,275.9z"/>
	<path d="M613.9,271.6l0.3,2c0.3,0.1,0.6,0.3,1,0.4c0.1-1,0.3-1.9,0.4-2.9c-0.5-0.2-1-0.4-1.6-0.7
		C614,270.9,613.9,271.3,613.9,271.6z"/>
	<path d="M634.3,276.8c0.2,0,0.3,0.1,0.5,0.1c-0.1-1-0.1-2-0.2-3c0,0-0.1,0-0.1,0C634.4,274.8,634.3,275.8,634.3,276.8z"/>
	<path d="M626.1,274.8c0.5,0.1,0.9,0.3,1.4,0.4c0.1-1,0.2-2,0.3-2.9c-0.5-0.1-0.9-0.3-1.4-0.4C626.3,272.9,626.2,273.9,626.1,274.8z
		"/>
	<path d="M618.1,272.2c0.5,0.2,0.9,0.3,1.4,0.5c0.1-1,0.2-1.9,0.4-2.9c-0.5-0.2-0.9-0.3-1.4-0.5
		C618.4,270.2,618.2,271.2,618.1,272.2z"/>
	<path d="M626.8,269c0.4,0.1,0.8,0.2,1.1,0.3c0.1-1,0.2-2,0.3-2.9c-0.4-0.1-0.7-0.2-1.1-0.3C627,267.1,626.9,268,626.8,269z"/>
	<path d="M619,266.4c0.4,0.1,0.7,0.3,1.1,0.4c0.1-1,0.2-1.9,0.4-2.9c-0.4-0.1-0.7-0.3-1.1-0.4C619.2,264.5,619.1,265.4,619,266.4z"
		/>
	<path d="M612.5,263.7c0.2-1,0.3-1.9,0.5-2.9c-0.4-0.2-0.7-0.3-1.1-0.5L612.5,263.7C612.5,263.7,612.5,263.7,612.5,263.7z"/>
	<path d="M627.4,263.2c0.3,0.1,0.6,0.2,0.9,0.2c0.1-1,0.2-2,0.3-2.9c-0.3-0.1-0.6-0.2-0.9-0.2C627.6,261.2,627.5,262.2,627.4,263.2z
		"/>
	<path d="M619.8,260.6c0.3,0.1,0.6,0.2,1,0.4c0.1-1,0.2-1.9,0.4-2.9c-0.3-0.1-0.6-0.2-1-0.4C620.1,258.7,619.9,259.7,619.8,260.6z"
		/>
	<path d="M612.3,257.4c0.3,0.2,0.7,0.3,1,0.5c0.2-1,0.3-1.9,0.5-2.9c-0.3-0.2-0.7-0.3-1-0.5C612.6,255.5,612.5,256.4,612.3,257.4z"
		/>
	<path d="M620.7,254.9c0.2,0.1,0.5,0.2,0.7,0.3c0.1-1,0.2-1.9,0.4-2.9c-0.2-0.1-0.5-0.2-0.7-0.3
		C620.9,252.9,620.8,253.9,620.7,254.9z"/>
	<path d="M628.9,248.6c-0.1,1-0.2,2-0.3,2.9c0.2,0.1,0.4,0.1,0.6,0.2c0.1-1,0.2-2,0.3-2.9C629.3,248.7,629.1,248.6,628.9,248.6z"/>
	<path d="M621.5,249.1c0.2,0.1,0.4,0.2,0.6,0.2c0.1-1,0.3-1.9,0.4-2.9c-0.2-0.1-0.4-0.1-0.6-0.2
		C621.8,247.2,621.6,248.1,621.5,249.1z"/>
	<path d="M614.4,246.1c0.2,0.1,0.4,0.2,0.6,0.3c0.2-1,0.3-1.9,0.5-2.9c-0.2-0.1-0.4-0.2-0.6-0.3
		C614.8,244.1,614.6,245.1,614.4,246.1z"/>
	<path d="M608.5,241c0.1-0.3,0.1-0.7,0.2-1c-0.1-0.1-0.3-0.2-0.4-0.3L608.5,241z"/>
	<path d="M622.3,243.3c0.2,0.1,0.3,0.1,0.5,0.2c0.1-1,0.3-1.9,0.4-2.9c-0.2-0.1-0.3-0.1-0.5-0.2
		C622.6,241.4,622.5,242.4,622.3,243.3z"/>
	<path d="M609.9,234.3c-0.2-0.1-0.4-0.2-0.5-0.3c-0.2,0.9-0.4,1.9-0.6,2.8c0.2,0.1,0.4,0.2,0.5,0.3
		C609.5,236.2,609.7,235.2,609.9,234.3z"/>
	<path d="M630.3,239.9c-0.1-0.5-0.2-1-0.2-1.5c0,0.5-0.1,0.9-0.1,1.4C630,239.9,630.1,239.9,630.3,239.9z"/>
	<path d="M616.5,234.7c0.1,0.1,0.3,0.1,0.4,0.2c0.2-1,0.3-1.9,0.5-2.9c-0.1-0.1-0.3-0.1-0.4-0.2
		C616.8,232.8,616.7,233.7,616.5,234.7z"/>
	<path d="M624.4,228.9c-0.1,1-0.3,1.9-0.4,2.9c0.1,0,0.2,0.1,0.3,0.1c0.1-1,0.3-1.9,0.4-2.9C624.6,229,624.5,228.9,624.4,228.9z"/>
	<path d="M611.9,222.8c-0.2,0.9-0.4,1.9-0.6,2.8c0.1,0.1,0.2,0.1,0.3,0.2c0.2-0.9,0.4-1.9,0.6-2.8
		C612.1,222.9,612,222.9,611.9,222.8z"/>
	<path d="M618.9,223.5c0.2-1,0.3-1.9,0.5-2.9c-0.1,0-0.2-0.1-0.3-0.1c-0.2,1-0.3,1.9-0.5,2.9C618.7,223.4,618.8,223.4,618.9,223.5z"
		/>
	<path d="M625.6,220.2c0.1,0,0.2,0.1,0.2,0.1c0.1-1,0.3-1.9,0.4-2.9c-0.1,0-0.2-0.1-0.2-0.1C625.9,218.3,625.7,219.3,625.6,220.2z"
		/>
	<path d="M613.7,214.5c0.1,0,0.2,0.1,0.2,0.1c0.2-0.9,0.4-1.9,0.6-2.8c-0.1,0-0.2-0.1-0.2-0.1C614.1,212.6,613.9,213.5,613.7,214.5z
		"/>
	<path d="M602.5,206.1l0.1,0.6c0.3-0.9,0.5-1.7,0.8-2.6c-0.1-0.1-0.2-0.1-0.2-0.2C602.9,204.6,602.7,205.4,602.5,206.1z"/>
	<path d="M616.2,203.3c0.1,0,0.1,0.1,0.2,0.1c0.2-0.9,0.4-1.9,0.6-2.8c-0.1,0-0.1-0.1-0.2-0.1C616.6,201.4,616.4,202.4,616.2,203.3z
		"/>
	<path d="M606.4,193.3c-0.3,0.9-0.5,1.8-0.8,2.7c0.1,0,0.1,0.1,0.2,0.1c0.3-0.9,0.5-1.8,0.8-2.7
		C606.5,193.3,606.5,193.3,606.4,193.3z"/>
	<path d="M619.3,189.4c-0.2,0.9-0.4,1.9-0.6,2.8c0,0,0.1,0,0.1,0.1C619,191.3,619.2,190.4,619.3,189.4
		C619.4,189.4,619.3,189.4,619.3,189.4z"/>
	<path d="M609,185.4c0.3-0.9,0.5-1.8,0.8-2.7c0,0-0.1,0-0.1-0.1C609.4,183.5,609.2,184.4,609,185.4C608.9,185.3,609,185.4,609,185.4
		z"/>
	<path d="M612.2,174.7C612.2,174.7,612.2,174.8,612.2,174.7c0.3-0.8,0.6-1.7,0.9-2.6c0,0,0,0-0.1,0
		C612.7,173,612.5,173.8,612.2,174.7z"/>
</g>
</svg>
