<?xml version="1.0" encoding="utf-8"?>
<!-- Generator: Adobe Illustrator 25.3.0, SVG Export Plug-In . SVG Version: 6.00 Build 0)  -->
<svg version="1.1" id="Layer_1" xmlns="http://www.w3.org/2000/svg" xmlns:xlink="http://www.w3.org/1999/xlink" x="0px" y="0px"
	 viewBox="0 0 750.20001 400.10001" style="enable-background:new 0 0 750.20001 400.10001;" xml:space="preserve">

<path class="st0" d="M180.33679,60.03836c-21.74115-8.47058-20.65289-29.65405-20.65289-29.65405
	c-1.0556,0.33417-2.10236,1.16718-3.1134,2.30408c-0.03046,2.66528,0.48291,21.46509,20.6604,29.32642
	c8.18567,2.23248,12.59961,8.31256,14.11115,11.83325c1.83783,0.23413,3.50677,0.43732,3.6889,0.43732
	C195.43091,72.75778,191.20734,63.00308,180.33679,60.03836z"/>
<path class="st0" d="M202.92163,30.99081c24.5415,0,38.64386,2.05701,41.22217,2.46893
	c0.29205-1.28564,0.46216-2.51501,0.43762-3.59839c0,0-14.38892-2.54114-41.65979-2.54114
	c-27.27075,0-41.82031,2.82349-41.82031,2.82349s0.20685,1.46533,0.62964,3.55774
	C164.7774,33.17715,178.91931,30.99081,202.92163,30.99081z"/>
<path class="st0" d="M228.29712,61.4501c19.08795-7.43689,20.578-24.66876,20.65759-28.76489
	c-1.01013-1.13531-2.05597-1.96704-3.1106-2.3009c0,0,1.08826,21.18347-20.65289,29.65405
	c-10.87054,2.96472-13.76038,12.71942-13.36035,14.24701c0.1908,0,1.70996-0.22302,3.33203-0.47107
	C216.08392,70.41306,219.6745,63.80173,228.29712,61.4501z"/>
<path class="st0" d="M500.56512,34.02353c0,0,15.80988-3.22095,45.44299-3.22095c29.63318,0,45.26849,2.89886,45.26849,2.89886
	c0.00049,0.02148-0.00079,0.04431-0.00049,0.06592c0.14948,0.04608,1.33417,0.41254,2.6322,0.84039
	c-1.55798-2.6629-2.9079-3.77551-4.61945-4.69879c-1.51794-0.53101-3.43085-1.12225-3.61206-1.1781
	c-0.00031-0.01892,0.00085-0.03894,0.00043-0.0578c0,0-13.70593-2.54114-39.68237-2.54114
	c-25.97638,0-39.83533,2.82349-39.83533,2.82349s-2.05286,0.63123-3.64691,1.18884c-1.72052,0.9281-3.07544,2.04663-4.6438,4.73987
	C499.27618,34.42001,500.56512,34.02353,500.56512,34.02353z"/>
</svg>
