<?xml version="1.0" encoding="utf-8"?>
<!-- Generator: Adobe Illustrator 25.3.0, SVG Export Plug-In . SVG Version: 6.00 Build 0)  -->
<svg version="1.1" id="Layer_1" xmlns="http://www.w3.org/2000/svg" xmlns:xlink="http://www.w3.org/1999/xlink" x="0px" y="0px"
	 viewBox="0 0 750.2 400.1" style="enable-background:new 0 0 750.2 400.1;" xml:space="preserve">
<path d="M90.1,373L90.1,373H52c0.1,1.6,0.3,3,0.4,4.1c0,0.3,0,0.6,0.1,0.8c0,0.4,0.1,0.7,0.1,1.1c0,0.2,0,0.3,0,0.4s0,0.3,0,0.4
	h37.1v0h0l0,0L90.1,373L90.1,373L90.1,373z"/>
<path d="M314.9,372.9l0,0.8l0.3,5.9h0v0h37c0.1-1.2,0.3-3.5,0.6-6.8c0,0,0,0,0,0L314.9,372.9L314.9,372.9z"/>
<path d="M660.6,372.9l0.3,6.8H698c0.1-1.2,0.3-3.5,0.6-6.8c0,0,0,0,0,0L660.6,372.9L660.6,372.9z"/>
<path d="M435.5,373l-2.4-0.3h-35.7c0.3,3.3,0.5,5.6,0.6,6.8h0.1c0,0.1,0,0.2,0,0.3h37.1l0.4-6.8L435.5,373L435.5,373z"/>
</svg>
