<?xml version="1.0" encoding="utf-8"?>
<!-- Generator: Adobe Illustrator 25.3.0, SVG Export Plug-In . SVG Version: 6.00 Build 0)  -->
<svg version="1.1" id="Layer_1" xmlns="http://www.w3.org/2000/svg" xmlns:xlink="http://www.w3.org/1999/xlink" x="0px" y="0px"
	 viewBox="0 0 750.2 400.1" style="enable-background:new 0 0 750.2 400.1;" xml:space="preserve">
<path d="M180.3,60c-21.7-8.5-20.7-29.7-20.7-29.7c-1.1,0.3-2.1,1.2-3.1,2.3c0,2.7,0.5,21.5,20.7,29.3c8.2,2.2,12.6,8.3,14.1,11.8
	c1.8,0.2,3.5,0.4,3.7,0.4C195.4,72.8,191.2,63,180.3,60z"/>
<path d="M202.9,31c24.5,0,38.6,2.1,41.2,2.5c0.3-1.3,0.5-2.5,0.4-3.6c0,0-14.4-2.5-41.7-2.5c-27.3,0-41.8,2.8-41.8,2.8
	s0.2,1.5,0.6,3.6C164.8,33.2,178.9,31,202.9,31z"/>
<path d="M228.3,61.5c19.1-7.4,20.6-24.7,20.7-28.8c-1-1.1-2.1-2-3.1-2.3c0,0,1.1,21.2-20.7,29.7c-10.9,3-13.8,12.7-13.4,14.2
	c0.2,0,1.7-0.2,3.3-0.5C216.1,70.4,219.7,63.8,228.3,61.5z"/>
<path d="M500.6,34c0,0,15.8-3.2,45.4-3.2c29.6,0,45.3,2.9,45.3,2.9c0,0,0,0,0,0.1c0.1,0,1.3,0.4,2.6,0.8c-1.6-2.7-2.9-3.8-4.6-4.7
	c-1.5-0.5-3.4-1.1-3.6-1.2c0,0,0,0,0-0.1c0,0-13.7-2.5-39.7-2.5c-26,0-39.8,2.8-39.8,2.8s-2.1,0.6-3.6,1.2c-1.7,0.9-3.1,2-4.6,4.7
	C499.3,34.4,500.6,34,500.6,34z"/>
</svg>
