<?xml version="1.0" encoding="utf-8"?>
<!-- Generator: Adobe Illustrator 25.3.0, SVG Export Plug-In . SVG Version: 6.00 Build 0)  -->
<svg version="1.1" id="Layer_1" xmlns="http://www.w3.org/2000/svg" xmlns:xlink="http://www.w3.org/1999/xlink" x="0px" y="0px"
	 viewBox="0 0 750.20001 400.10001" style="enable-background:new 0 0 750.20001 400.10001;" xml:space="preserve">

<path class="st0" d="M90.09998,373.00003H90H52c0.14667,1.61359,0.2691,2.98413,0.36798,4.10785
	c0.02582,0.29364,0.04999,0.57037,0.07263,0.8299c0.03394,0.38928,0.06421,0.73993,0.09076,1.05066
	c0.01331,0.15533,0.02563,0.30078,0.03705,0.4361s0.02197,0.26056,0.03156,0.37555h37.09998v-0.00006h0.00006l0.0022-0.03687
	l0.4079-6.75665l-0.0105-0.00061L90.09998,373.00003z"/>
<path class="st0" d="M314.90002,372.90018l0.04999,0.84991l0.34998,5.94995h0.00006v0.00018h37
	c0.09998-1.2002,0.29993-3.5,0.59998-6.80005c0-0.00006,0-0.00006,0-0.00012h-38V372.90018z"/>
<path class="st0" d="M660.59998,372.90018l0.30005,6.80005H698c0.09998-1.2002,0.29999-3.5,0.59998-6.80005
	c0-0.00006,0-0.00006,0-0.00012h-38V372.90018z"/>
<path class="st0" d="M435.5,373.00003l-2.39996-0.29999h-35.70001c0.29999,3.29999,0.5,5.59998,0.59998,6.79999h0.07483
	c0.00861,0.10205,0.01776,0.21027,0.02527,0.30005h37.1001l0.41034-6.79657l-0.11041-0.00348H435.5z"/>
</svg>
