<?xml version="1.0" encoding="utf-8"?>
<!-- Generator: Adobe Illustrator 25.3.0, SVG Export Plug-In . SVG Version: 6.00 Build 0)  -->
<svg version="1.1" id="Layer_1" xmlns="http://www.w3.org/2000/svg" xmlns:xlink="http://www.w3.org/1999/xlink" x="0px" y="0px"
	 viewBox="0 0 750.2 400.1" style="enable-background:new 0 0 750.2 400.1;" xml:space="preserve">
<path d="M152.1,61.7c5.4,3.7,10.3,5.7,15.8,7.8c4,1.6,15.4,3.7,18.4,3.7c0.8,0.1,8.4,1.1,8.8,1.1c0.4-1.5-3.8-11.3-14.7-14.2
	c-21.7-8.5-20.7-29.7-20.7-29.7c-6.1,1.9-12,20.3-12,20.3C147.6,51.2,146.8,58,152.1,61.7z"/>
<path d="M201.5,45.8c24,0,37.4,0.4,37.4,0.4s5.8-10.4,5.6-16.4c0,0-14.4-2.5-41.7-2.5c-27.3,0-41.8,2.8-41.8,2.8s1.8,13,5.8,16.9
	C166.9,47.1,177.5,45.8,201.5,45.8z"/>
<path d="M225.2,60c-10.9,3-13.8,12.7-13.4,14.2c0.4,0,6.6-1,7.4-1.1c2.9,0,14.4-2.1,18.4-3.7c5.5-2.1,10.4-4,15.8-7.8
	c5.3-3.7,4.5-10.5,4.4-11c0,0-5.8-18.4-12-20.3C245.8,30.4,246.9,51.6,225.2,60z"/>
<path d="M544.7,44.6c6.2,0,11.7,0,16.3,0.1c12.2,0.4,25.4,1.5,39,4.6c-5.3-14.9-7.3-17.5-10.7-19.4c-1.5-0.5-3.4-1.1-3.6-1.2
	c0,0,0,0,0-0.1c0,0-13.7-2.5-39.7-2.5c-26,0-39.8,2.8-39.8,2.8s-2.1,0.6-3.6,1.2c-3.5,1.9-5.5,4.5-10.7,19.4c0,0,16.5-3.7,41.6-4.8
	C536.7,44.7,540.5,44.6,544.7,44.6z"/>
</svg>
