<?xml version="1.0" encoding="utf-8"?>
<!-- Generator: Adobe Illustrator 25.3.0, SVG Export Plug-In . SVG Version: 6.00 Build 0)  -->
<svg version="1.1" id="Layer_1" xmlns="http://www.w3.org/2000/svg" xmlns:xlink="http://www.w3.org/1999/xlink" x="0px" y="0px"
	 viewBox="0 0 750.2000122 400.1000061" style="enable-background:new 0 0 750.2000122 400.1000061;" xml:space="preserve">
<path d="M639.8450928,142.2215271c1.3989868,2.8448486,3.0845947,5.1983643,5.2548828,6.8786011l0.2000122,0.0998535l0.4000244,21
	c0.4000244,0.1000977,0.9000244,0.5,0.9000244,0.9001465l13.7000122,199.5h7.4172974
	c-2.7926025-40.7251587-14.7670898-215.0200806-15.5150146-220.2555542
	C651.7097778,146.8968811,645.2053833,144.0241394,639.8450928,142.2215271z"/>
<path d="M435.7339478,370.9594421l12.0661011-199.859314v-0.1000977l-1.3000488-21.5l0.1999512-0.1999512
	c1.8138428-1.4042358,3.2870483-3.2902832,4.5409546-5.5358276c-4.1150513,1.7307129-7.8685303,3.9942017-8.2379761,6.5803223
	c-0.7498169,5.2487183-12.7825928,180.4055176-15.5356445,220.5553589h8.0328369L435.7339478,370.9594421z"/>
<path d="M102.5999756,170.5000305l1.4000244-21v-0.1999512c2.8856812-2.2340698,4.9212036-5.670166,6.560791-9.8838501
	c-5.4899902,1.7785645-12.6398315,4.7657471-13.1571655,8.387207
	c-0.7669678,5.3685913-13.3388062,188.5042114-15.7098999,223.0964966h8.2623291l0.2926636-0.1898804l12.0513306-199.6099243
	C102.3000488,170.8999329,102.4000244,170.6999817,102.5999756,170.5000305z"/>
<path d="M295.135376,142.2599792c1.4306641,2.9185791,3.1530151,5.3278809,5.364624,7.0401001l0.1999512,0.0998535
	l1.4001465,20.7001953c0.1999512,0.1000977,0.2999268,0.2998047,0.3999023,0.5l0.1000977,0.1000977
	c0.0998535,0.0998535,0.0998535,0.199707,0.0998535,0.3999023l12,199.8000488h8.2145386
	c-2.7530518-40.1494141-14.7858276-215.3068848-15.5356445-220.555603
	C306.8897705,146.9211731,300.4735718,144.0648499,295.135376,142.2599792z"/>
</svg>
