<?xml version="1.0" encoding="utf-8"?>
<!-- Generator: Adobe Illustrator 25.3.0, SVG Export Plug-In . SVG Version: 6.00 Build 0)  -->
<svg version="1.1" id="Layer_1" xmlns="http://www.w3.org/2000/svg" xmlns:xlink="http://www.w3.org/1999/xlink" x="0px" y="0px"
	 viewBox="0 0 120 105" style="enable-background:new 0 0 120 105;" xml:space="preserve">
<style type="text/css">
	.st0{fill:#FFFFFF;}
</style>
<g>
	<path class="st0" d="M35.1,79.7c-0.5,0-1.1,0-1.4,0c-0.2,0-0.8,0-1.2,0c-0.1,0-0.2,0-0.2,0.1c0,0.1,0.1,0.1,0.1,0.1
		c0.1,0,0.3,0,0.3,0c0.3,0.1,0.3,0.2,0.4,0.4c0,0.2,0,0.4,0,1.1v0c0,0,0,0,0,0.1v0v0v0v0v0.1v0v0.1v0V82v0v1.4c0,0.8,0,1.4,0,1.7
		c0,0.2-0.1,0.4-0.3,0.4c-0.1,0-0.2,0-0.3,0c-0.1,0-0.1,0-0.1,0.1c0,0.1,0.1,0.1,0.2,0.1c0.2,0,0.4,0,0.6,0c0.2,0,0.4,0,0.5,0
		c0.2,0,0.5,0,0.9,0c0.3,0,0.7,0,1,0c1.6,0,2.5-0.6,2.8-1c0.5-0.5,0.9-1.3,0.9-2.3c0-1-0.4-1.7-0.8-2.1
		C37.6,79.7,36.1,79.7,35.1,79.7z M37.4,84.9c-0.5,0.4-1.1,0.6-1.8,0.6c-0.7,0-1-0.2-1.1-0.3c-0.1-0.1-0.1-0.4-0.1-0.6
		c0-0.2,0-0.8,0-1.7v-1c0-0.6,0-1.3,0-1.6c0-0.1,0-0.1,0.1-0.2c0.1,0,0.3-0.1,0.5-0.1c0.7,0,1.6,0.1,2.4,0.8c0.4,0.3,0.8,1,0.8,2
		C38.1,83.8,37.9,84.5,37.4,84.9z"/>
	<path class="st0" d="M31.2,85.7c-0.1,0-0.3,0-0.4,0c-0.3,0-0.3-0.2-0.3-0.4c0-0.3,0-0.9,0-1.7v-0.1V82c0-1.2,0-1.5,0-1.7
		c0-0.3,0.1-0.4,0.3-0.4c0.1,0,0.2,0,0.2,0c0.1,0,0.1,0,0.1-0.1c0,0-0.1-0.1-0.2-0.1c-0.3,0-0.9,0-1.1,0c-0.2,0-0.8,0-1.1,0
		c-0.1,0-0.2,0-0.2,0.1c0,0.1,0,0.1,0.1,0.1c0.1,0,0.2,0,0.3,0c0.2,0.1,0.3,0.2,0.3,0.4c0,0.2,0,0.4,0,1.1v0c0,0,0,0,0,0.1v0v0v0v0
		v0.1v0v0.1v0V82v0v1.4c0,0.8,0,1.4,0,1.8c0,0.2-0.1,0.4-0.3,0.4c-0.1,0-0.2,0-0.3,0c-0.1,0-0.1,0-0.1,0.1c0,0.1,0.1,0.1,0.2,0.1
		c0.3,0,0.9,0,1.1,0c0.2,0,0.8,0,1.4,0c0.1,0,0.2,0,0.2-0.1C31.3,85.7,31.3,85.7,31.2,85.7z"/>
	<path class="st0" d="M28,78.6c-0.3,0-0.7,0-0.8,0c-0.1,0-0.5,0-1,0c-0.1,0-0.2,0-0.2,0.1c0,0.1,0.1,0.1,0.2,0.1
		c0.4,0,0.5,0.1,0.5,0.3c0,0.1,0,0.3-0.1,0.6c-0.3,1.1-1.1,3.7-1.3,4.3h0l-2-4.9c-0.1-0.3-0.2-0.5-0.3-0.5c-0.1,0-0.1,0.1-0.2,0.3
		l-1.9,5h0c-0.2-0.5-1.1-3.5-1.2-4.1c-0.1-0.4-0.2-0.8-0.2-0.9c0-0.1,0-0.2,0.1-0.2c0.1,0,0.2,0,0.2,0c0.1,0,0.2,0,0.2-0.1
		c0-0.1-0.1-0.1-0.2-0.1c-0.6,0-1,0-1.1,0c-0.1,0-0.6,0-1.1,0c-0.1,0-0.2,0-0.2,0.1c0,0.1,0.1,0.1,0.2,0.1c0.1,0,0.3,0,0.4,0.1
		c0.1,0.1,0.2,0.3,0.4,0.7l2,6.1c0.1,0.3,0.1,0.4,0.2,0.4c0.1,0,0.2-0.1,0.3-0.5c0.4-0.9,1.7-4.3,1.9-4.8h0l2,4.8
		c0.1,0.4,0.2,0.5,0.3,0.5c0.1,0,0.2-0.1,0.3-0.5c0.5-1.4,1.5-4.5,1.9-5.7c0.2-0.6,0.3-0.9,0.5-1c0.1,0,0.2,0,0.3,0
		c0.1,0,0.1,0,0.1-0.1C28.1,78.6,28.1,78.6,28,78.6z"/>
	<path class="st0" d="M47.1,79.7c-0.4,0-0.7,0-0.8,0c-0.2,0-0.6,0-1.1,0c-0.1,0-0.2,0-0.2,0.1c0,0,0,0.1,0.1,0.1c0.1,0,0.3,0,0.4,0
		c0.2,0.1,0.3,0.2,0.3,0.7l0.1,3.6h0c-0.1-0.1-1.3-1.3-1.8-1.8c-1.2-1.2-2.5-2.5-2.6-2.6c-0.1-0.1-0.3-0.3-0.4-0.3
		c-0.1,0-0.1,0.1-0.1,0.3l-0.1,4.9c0,0.7,0,0.9-0.3,1c-0.1,0-0.3,0-0.4,0c-0.1,0-0.1,0-0.1,0.1c0,0.1,0.1,0.1,0.2,0.1
		c0.4,0,0.8,0,0.9,0c0.2,0,0.5,0,1.1,0c0.1,0,0.2,0,0.2-0.1c0,0-0.1-0.1-0.1-0.1c-0.1,0-0.3,0-0.4-0.1c-0.2-0.1-0.3-0.3-0.3-0.9
		l-0.1-3.3h0c0.2,0.1,1.1,1.1,2,2c0.9,0.9,1.9,1.9,2.5,2.4c0.1,0.1,0.2,0.2,0.3,0.2c0.1,0,0.1-0.1,0.1-0.3l0.1-5.2
		c0-0.5,0.1-0.6,0.3-0.7c0.1,0,0.2,0,0.3,0c0.1,0,0.1,0,0.1-0.1C47.3,79.7,47.2,79.7,47.1,79.7z"/>
	<path class="st0" d="M52.7,84.6c-0.1,0-0.1,0-0.1,0.1c-0.1,0.3-0.2,0.5-0.4,0.6c-0.2,0.1-0.6,0.1-0.8,0.1c-0.9,0-1.1-0.1-1.1-0.7
		c0-0.1,0-0.2,0-0.4c0-0.3,0-0.7,0-0.9v-0.7c0,0,0-0.1,0-0.1c0.2,0,1.2,0,1.3,0c0.3,0,0.4,0.2,0.5,0.3c0,0.1,0,0.2,0,0.3
		c0,0,0,0.1,0.1,0.1c0.1,0,0.1-0.1,0.1-0.2c0-0.1,0-0.4,0-0.6c0-0.4,0.1-0.5,0.1-0.6c0,0,0-0.1-0.1-0.1c0,0-0.1,0.1-0.1,0.1
		c-0.1,0.1-0.2,0.1-0.4,0.1c-0.2,0-1.3,0-1.5,0c0,0-0.1,0-0.1-0.1v-2c0,0,0-0.1,0.1-0.1c0.2,0,1.2,0,1.3,0c0.4,0,0.5,0.2,0.6,0.3
		c0,0.1,0.1,0.2,0.1,0.3c0,0.1,0,0.1,0.1,0.1c0.1,0,0.1-0.1,0.1-0.1c0-0.1,0-0.5,0-0.5c0-0.4,0.1-0.5,0.1-0.5c0,0,0-0.1-0.1-0.1
		c0,0-0.1,0-0.1,0c-0.1,0-0.2,0-0.4,0c-0.1,0-0.3,0-0.6,0c-0.6,0-1.5,0-1.7,0c-0.2,0-0.8,0-1.2,0c-0.1,0-0.2,0-0.2,0.1
		c0,0.1,0.1,0.1,0.1,0.1c0.1,0,0.3,0,0.3,0c0.3,0.1,0.3,0.2,0.4,0.4c0,0.2,0,0.4,0,1.1v0c0,0,0,0,0,0.1v0v0v0v0v0.1v0v0.1v0V82v0
		v1.4c0,0.8,0,1.4,0,1.7c0,0.2-0.1,0.4-0.3,0.4c-0.1,0-0.2,0-0.3,0c-0.1,0-0.1,0-0.1,0.1c0,0.1,0.1,0.1,0.2,0.1c0.2,0,0.4,0,0.6,0
		c0.2,0,0.4,0,0.5,0c0.3,0,0.6,0,1,0c0.4,0,0.9,0,1.6,0c0.3,0,0.4,0,0.4-0.2c0.1-0.2,0.1-0.7,0.1-0.9C52.8,84.7,52.8,84.6,52.7,84.6
		z"/>
	<path class="st0" d="M56.4,82.1l-0.3-0.2c-0.8-0.4-0.9-0.7-0.9-1.1c0-0.6,0.6-0.9,1.2-0.9c0.6,0,0.8,0.2,0.9,0.4
		c0.2,0.2,0.2,0.5,0.2,0.5c0,0.1,0,0.1,0.1,0.1c0.1,0,0.1-0.1,0.1-0.3c0-0.6,0-0.9,0-1c0-0.1,0-0.1-0.1-0.1
		c-0.2-0.1-0.7-0.1-1.2-0.1c-1.2,0-2.1,0.6-2.1,1.6c0,0.7,0.3,1.3,1.3,1.9l0.5,0.3c0.8,0.4,0.8,0.8,0.8,1.2c0,0.6-0.4,1-1.2,1
		c-0.5,0-1.2-0.2-1.4-0.8c0-0.1-0.1-0.3-0.1-0.4c0-0.1,0-0.1-0.1-0.1c-0.1,0-0.1,0.1-0.1,0.2c0,0.1,0,0.7,0,1.1c0,0.2,0,0.2,0.2,0.3
		c0.4,0.2,0.9,0.2,1.4,0.2c0.5,0,1,0,1.4-0.3c0.6-0.4,0.8-0.9,0.8-1.5C57.9,83.4,57.6,82.7,56.4,82.1z"/>
	<path class="st0" d="M69,78.7c0-0.1-0.1-0.1-0.2-0.1c-0.3,0-0.7,0-0.9,0c-0.1,0-0.5,0-1,0c-0.2,0-0.3,0-0.3,0.1
		c0,0.1,0.1,0.1,0.2,0.1c0.1,0,0.3,0,0.4,0c0.1,0,0.1,0.1,0.1,0.2c0,0.1,0,0.2-0.1,0.4c-0.2,0.6-1.5,3.7-1.9,4.8h0l-1.7-4.4
		c-0.1-0.3-0.2-0.6-0.2-0.7c0-0.1,0-0.2,0.1-0.2c0.1-0.1,0.2-0.1,0.4-0.1c0.1,0,0.1,0,0.1-0.1c0-0.1-0.1-0.1-0.2-0.1
		c-0.5,0-0.9,0-1.2,0c-0.3,0-0.9,0-1.4,0c-0.1,0-0.3,0-0.3,0.1c0,0.1,0,0.1,0.1,0.1c0.1,0,0.2,0,0.4,0c0.3,0.1,0.5,0.2,0.7,0.7
		l2.4,5.9c0.2,0.5,0.2,0.6,0.4,0.6c0.1,0,0.2-0.2,0.4-0.7c0.2-0.5,0.7-1.5,1.3-2.9c0.5-1.2,0.8-1.7,1.2-2.6c0.3-0.6,0.4-0.8,0.5-0.9
		c0.2-0.1,0.4-0.1,0.5-0.1C68.9,78.7,69,78.7,69,78.7z"/>
	<path class="st0" d="M71.6,85.7c-0.1,0-0.3,0-0.4,0c-0.3,0-0.3-0.2-0.3-0.4c0-0.3,0-0.9,0-1.7v-0.1V82c0-1.2,0-1.5,0-1.7
		c0-0.3,0.1-0.4,0.3-0.4c0.1,0,0.2,0,0.3,0c0.1,0,0.1,0,0.1-0.1c0,0-0.1-0.1-0.2-0.1c-0.3,0-0.9,0-1.1,0c-0.2,0-0.8,0-1.1,0
		c-0.1,0-0.2,0-0.2,0.1c0,0.1,0,0.1,0.1,0.1c0.1,0,0.2,0,0.3,0c0.2,0.1,0.3,0.2,0.3,0.4c0,0.2,0,0.4,0,1.1v0c0,0,0,0,0,0.1v0v0v0v0
		v0.1v0v0.1v0V82v0v1.4c0,0.8,0,1.4,0,1.8c0,0.2-0.1,0.4-0.3,0.4c-0.1,0-0.2,0-0.3,0c-0.1,0-0.1,0-0.1,0.1c0,0.1,0.1,0.1,0.2,0.1
		c0.3,0,0.9,0,1.1,0c0.2,0,0.8,0,1.4,0c0.1,0,0.2,0,0.2-0.1C71.7,85.7,71.6,85.7,71.6,85.7z"/>
	<path class="st0" d="M82.1,85.7c-0.1,0-0.3,0-0.4,0c-0.3,0-0.3-0.2-0.3-0.4c0-0.3,0-0.9,0-1.7v-0.1V82c0-1.2,0-1.5,0-1.7
		c0-0.3,0.1-0.4,0.3-0.4c0.1,0,0.2,0,0.3,0c0.1,0,0.1,0,0.1-0.1c0,0-0.1-0.1-0.2-0.1c-0.3,0-0.9,0-1.1,0c-0.2,0-0.8,0-1.1,0
		c-0.1,0-0.2,0-0.2,0.1c0,0.1,0,0.1,0.1,0.1c0.1,0,0.2,0,0.3,0c0.2,0.1,0.3,0.2,0.3,0.4c0,0.2,0,0.4,0,1.1v0c0,0,0,0,0,0.1v0v0v0v0
		v0.1v0v0.1v0V82v0v1.4c0,0.8,0,1.4,0,1.8c0,0.2-0.1,0.4-0.3,0.4c-0.1,0-0.2,0-0.3,0c0,0,0,0,0,0c0,0,0,0,0,0c-0.1,0-0.3,0-0.5-0.1
		c-0.5-0.2-0.8-0.5-1.2-0.9c-0.3-0.3-2-2-2.3-2.4c0.3-0.3,1.5-1.5,1.8-1.7c0.4-0.3,0.6-0.5,0.9-0.6c0.2-0.1,0.4-0.1,0.5-0.1
		c0.1,0,0.1,0,0.1-0.1c0-0.1-0.1-0.1-0.1-0.1c-0.3,0-0.7,0-1,0c-0.2,0-0.7,0-0.9,0c-0.1,0-0.1,0-0.1,0.1c0,0,0,0.1,0.1,0.1
		c0.1,0,0.1,0.1,0.1,0.2c0,0.1-0.2,0.3-0.4,0.6c-0.3,0.3-1.5,1.5-1.8,1.8h0V82c0-1.2,0-1.5,0-1.7c0-0.3,0.1-0.4,0.3-0.4
		c0.1,0,0.2,0,0.2,0c0.1,0,0.1,0,0.1-0.1c0-0.1-0.1-0.1-0.2-0.1c-0.3,0-0.9,0-1.1,0c-0.2,0-0.7,0-1.2,0c-0.1,0-0.2,0-0.2,0.1
		c0,0.1,0.1,0.1,0.1,0.1c0.1,0,0.3,0,0.3,0c0.3,0.1,0.3,0.2,0.4,0.4c0,0.2,0,0.4,0,1.1v0c0,0,0,0,0,0.1v0v0.1v0.1v0v0.1v0V82v0v1.4
		c0,0.8,0,1.4,0,1.7c0,0.2-0.1,0.4-0.2,0.4c-0.1,0-0.2,0-0.3,0c-0.1,0-0.1,0-0.1,0.1c0,0.1,0.1,0.1,0.2,0.1c0.3,0,0.9,0,1.1,0
		c0.2,0,0.8,0,1.3,0c0.1,0,0.2,0,0.2-0.1c0,0-0.1-0.1-0.1-0.1c-0.1,0-0.3,0-0.4,0c-0.2,0-0.3-0.2-0.3-0.4c0-0.3,0-0.9,0-1.6v0v0
		v-0.1v-0.7h0l0.1,0.1c0.2,0.3,1.8,2.1,2.2,2.5c0.4,0.3,0.6,0.5,1.1,0.5c0.2,0,0.3,0,0.6,0h0.7c0,0,0.1,0,0.1,0c0,0,0.1,0,0.1,0
		c0.3,0,0.9,0,1.1,0c0.2,0,0.8,0,1.4,0c0.1,0,0.2,0,0.2-0.1C82.2,85.7,82.2,85.7,82.1,85.7z"/>
	<path class="st0" d="M90.1,79.7c-0.4,0-0.7,0-0.8,0c-0.2,0-0.6,0-1.1,0c-0.1,0-0.2,0-0.2,0.1c0,0,0,0.1,0.1,0.1c0.1,0,0.3,0,0.4,0
		c0.2,0.1,0.3,0.2,0.3,0.7l0.1,3.6h0c-0.1-0.1-1.3-1.3-1.8-1.8c-1.2-1.2-2.5-2.5-2.6-2.6c-0.1-0.1-0.3-0.3-0.4-0.3
		c-0.1,0-0.1,0.1-0.1,0.3l-0.1,4.9c0,0.7,0,0.9-0.3,1c-0.1,0-0.3,0-0.4,0c-0.1,0-0.1,0-0.1,0.1c0,0.1,0.1,0.1,0.2,0.1
		c0.4,0,0.8,0,0.9,0c0.2,0,0.5,0,1.1,0c0.1,0,0.2,0,0.2-0.1c0,0,0-0.1-0.1-0.1c-0.1,0-0.3,0-0.4-0.1c-0.2-0.1-0.3-0.3-0.3-0.9
		l-0.1-3.3h0c0.2,0.1,1.1,1.1,2,2c0.9,0.9,1.9,1.9,2.5,2.4c0.1,0.1,0.2,0.2,0.4,0.2c0.1,0,0.1-0.1,0.1-0.3l0.1-5.2
		c0-0.5,0.1-0.6,0.3-0.7c0.1,0,0.2,0,0.3,0c0.1,0,0.1,0,0.1-0.1C90.3,79.7,90.2,79.7,90.1,79.7z"/>
	<path class="st0" d="M97.7,82.8c-0.3,0-0.7,0-1,0c-0.3,0-0.9,0-1.3,0c-0.1,0-0.2,0-0.2,0.1c0,0,0.1,0.1,0.1,0.1c0.1,0,0.3,0,0.3,0
		c0.3,0.1,0.4,0.2,0.4,0.4c0,0.2,0,0.5,0,0.9v0v0v0.8c0,0.1,0,0.2-0.2,0.3c-0.2,0.1-0.4,0.1-0.6,0.1c-1.8,0-3-1.3-3-3
		c0-1,0.3-1.6,0.8-2c0.6-0.5,1.2-0.5,1.6-0.5c1,0,1.6,0.4,1.8,0.6c0.2,0.2,0.3,0.5,0.3,0.7c0,0.1,0,0.1,0.1,0.1
		c0.1,0,0.1-0.1,0.1-0.2c0-1,0.1-1.3,0.1-1.4c0-0.1,0-0.1-0.1-0.1c-0.2,0-0.5-0.1-0.7-0.1c-0.2,0-0.9-0.1-1.5-0.1
		c-0.7,0-1.5,0.1-2.3,0.5c-0.8,0.5-1.5,1.4-1.5,2.7c0,2.3,1.8,3.2,3.9,3.2c0.7,0,1.5-0.1,2.1-0.4c0.1-0.1,0.1-0.1,0.1-0.3v-0.9
		c0-0.4,0-0.7,0-1c0-0.3,0.1-0.4,0.3-0.4c0.1,0,0.2,0,0.2,0c0.1,0,0.1,0,0.1-0.1C97.9,82.8,97.9,82.8,97.7,82.8z"/>
	<path class="st0" d="M101.3,82.1l-0.3-0.2c-0.8-0.4-0.9-0.7-0.9-1.1c0-0.6,0.5-0.9,1.2-0.9c0.5,0,0.8,0.2,0.9,0.4
		c0.2,0.2,0.2,0.5,0.2,0.5c0,0.1,0,0.1,0.1,0.1c0.1,0,0.1-0.1,0.1-0.3c0-0.6,0-0.9,0-1c0-0.1,0-0.1-0.1-0.1
		c-0.2-0.1-0.7-0.1-1.2-0.1c-1.2,0-2.1,0.6-2.1,1.6c0,0.7,0.3,1.3,1.3,1.9l0.5,0.3c0.8,0.4,0.8,0.8,0.8,1.2c0,0.6-0.4,1-1.2,1
		c-0.5,0-1.2-0.2-1.4-0.8c-0.1-0.1-0.1-0.3-0.1-0.4c0-0.1,0-0.1-0.1-0.1c-0.1,0-0.1,0.1-0.1,0.2c0,0.1-0.1,0.7-0.1,1.1
		c0,0.2,0,0.2,0.2,0.3c0.4,0.2,0.9,0.2,1.4,0.2c0.5,0,1,0,1.4-0.3c0.6-0.4,0.8-0.9,0.8-1.5C102.8,83.4,102.4,82.7,101.3,82.1z"/>
	<path class="st0" d="M102.3,45.5c0.3-1.4,0.5-2.9,0.5-4.4c0-2.1-0.3-4.2-0.8-6.2c-0.1-0.2-0.1-0.4-0.2-0.6
		c-0.1-0.2-0.1-0.4-0.2-0.6h0c0,0,0-0.1,0-0.1l0,0h0c-0.9-2.6-2.1-5.1-3.5-7.3h0c0,0,0-0.1-0.1-0.1c0,0,0,0,0,0h0
		c-1.8-2.7-3.9-5.1-6-7.4l-0.3,0.1c1.6,2.3,3.2,4.7,4.5,7.2c1.1,2.2,2,4.5,2.7,7.1c0,0.1,0,0.2,0.1,0.3c0.4,1.8,0.6,3.5,0.6,5.2
		c0,2.6-0.4,5-1.2,7.2c-0.6,1.7-1.3,3.2-2.2,4.5c-0.5,0.8-1,1.5-1.6,2.2c-1.1,1.4-2.3,2.7-3.6,3.8c-2.2,2-4.7,3.7-7.3,5.2
		c-1.2,0.7-2.4,1.3-3.7,1.9v0c-3.1,1.5-6.3,2.7-9.7,3.8c-1.8-0.9-3.5-1.8-5.2-2.8v0c-1.3-0.8-2.5-1.7-3.6-2.8
		c-0.1-0.1-0.3-0.2-0.4-0.4c-1.3-1.3-2.5-2.7-3.4-4.3c-0.9-1.6-1.5-3.5-1.7-5.8c0-0.3,0-0.6,0-0.9c0-2.1,0.5-4,1.1-5.7
		c0.4-1.2,1-2.3,1.5-3.3c0.8-1.5,1.8-2.8,2.8-4.1c0.4-0.5,0.8-1,1.2-1.4c0.5-0.5,1-1.1,1.4-1.7c-0.5,0-0.9,0-1.4,0
		c-0.4,0-0.8,0-1.2,0v0c-1,0-2,0-2.9,0c-1.4,0-2.7,0-4.1,0c-0.5,0-1,0-1.5,0c-1.5,1.1-3,2.2-4.3,3.4c1.5,0,3,0.1,4.6,0.1
		c0.3,0,0.7,0,1,0c-1.5,2.1-3.1,4.3-4.1,7h0c0,0,0,0,0,0.1c0,0,0,0,0,0h0c-0.6,1.6-0.9,3.4-0.9,5.4v0.1c0,3.6,1.2,6.7,2.7,9.2h0
		c0,0,0,0,0,0.1c0,0,0,0,0,0h0c0.8,1.3,1.8,2.5,2.8,3.6h0c0.4,0.5,0.9,1,1.3,1.4c0.5,0.5,1,1,1.4,1.5c-1.1,0.3-2.2,0.5-3.3,0.8v0
		c-0.9,0.2-1.9,0.5-2.8,0.7c-0.6,0.2-1.4,0.5-2,0.5c0,0-0.1,0-0.1,0c-0.5,0-1.4-0.6-2-0.9c-0.2-0.1-0.3-0.2-0.5-0.3
		c-1.3-0.7-2.5-1.5-3.7-2.4c-1.8-1.4-3.4-3.1-4.5-5c-0.5-1-1-2.1-1.2-3.2c-0.2-0.8-0.3-1.7-0.3-2.4c0-2,0.5-3.8,1.1-5.4h0
		c0.2-0.6,0.5-1.2,0.8-1.8c1.1-2.1,2.5-4.1,4-5.8c0.1-0.1,0.2-0.2,0.3-0.3c0.2-0.2,0.6-0.3,0.6-0.6c0,0,0-0.1,0-0.1
		c-0.3,0-0.5,0-0.8,0v0c-2.9,0-5.8,0-8.7-0.1c-0.8,0.7-1.6,1.3-2.4,1.9v0c-0.4,0.4-0.9,0.7-1.3,1.1c0.4,0.1,0.9,0.1,1.4,0.1v0
		c0.1,0,0.1,0,0.2,0c0.3,0,0.6,0,0.8,0c0.3,0,0.5,0,0.8,0c0.6,0,1.1,0,1.5,0.1c-1.2,1.7-2.5,3.5-3.3,5.6h0c0,0,0,0,0,0
		c0,0,0,0.1,0,0.1h0c-0.6,1.5-0.9,3.1-0.9,5c0,0.4,0,0.8,0,1.2c0.1,1.8,0.6,3.4,1.3,4.9h0c0.8,1.8,2,3.4,3.1,4.7
		c0.7,0.9,1.6,1.5,2.1,2.4c-1.7,0.4-3.3,0.8-4.9,1.3c-0.3-0.1-0.5-0.3-0.8-0.4c-1.3-0.7-2.5-1.4-3.7-2.2c-1.4-1-2.7-2.2-3.7-3.6
		c-0.5-0.7-0.9-1.4-1.2-2.2c-0.5-1.2-0.7-2.4-0.7-3.6c0-1.4,0.3-2.7,0.7-4c0.8-2.3,2.1-4.3,3.2-5.7c0.5-0.7,1.1-1.2,1.6-1.8v0
		c0,0,0-0.1,0.1-0.1c0,0,0,0,0,0v0c0.1-0.1,0.1-0.2,0.2-0.3c-0.1,0-0.1,0-0.2,0v0c-0.3,0-0.7,0-1,0c-0.6,0-1.2,0-1.7,0
		c-0.6,0-1.2,0-1.8,0c-0.5,0-0.9,0-1.4,0c-0.5,0-1-0.1-1.5-0.1c-0.2,0-0.3,0-0.5,0c-0.5,0.1-1.2,0.9-1.7,1.2
		c-0.6,0.5-1.2,0.9-1.6,1.3c0.5,0.1,1,0.1,1.6,0.1c0.3,0,0.6,0,0.9,0c0.3,0,0.6,0,0.9,0c0.2,0,0.4,0,0.6,0c-1.1,1.6-2.3,3.2-3,5.3h0
		c0,0,0,0,0,0.1c0,0,0,0,0,0h0c-0.3,1.1-0.6,2.3-0.6,3.6c0,0.3,0,0.6,0,0.9c0.3,3.6,2.1,6.4,4.2,8.6c0.2,0.2,0.3,0.3,0.5,0.5
		c0.1,0.1,0.3,0.3,0.4,0.4c0.3,0.3,0.5,0.5,0.8,0.8h0c0.3,0.3,0.6,0.5,0.9,0.8v0c1.2,1,2.4,1.9,3.7,2.7v0c0,0,0.1,0,0.1,0
		c0,0,0,0,0,0v0c0,0,0.1,0,0.1,0.1c0.6,0.4,1.3,0.7,1.9,1c0.8-0.3,1.5-0.7,2.3-1c2.1-1,4.3-1.9,6.4-2.9c1.3,1,2.6,2,3.9,2.9
		c1.1,0.7,2.2,1.4,3.3,2c1.4-0.7,2.8-1.3,4.2-2c1.2-0.6,2.4-1.1,3.6-1.7v0c1.2-0.6,2.4-1.1,3.7-1.6v0c0.3-0.1,0.5-0.2,0.8-0.4
		c0.9,0.7,1.9,1.5,2.8,2.2v0c0,0,0,0,0.1,0c0,0,0,0,0,0v0c0.7,0.5,1.4,1,2.1,1.4c1,0.7,2.1,1.3,3.2,1.8c1.7-0.6,3.4-1.2,5-1.8
		c2.7-1,5.4-2.1,8-3.3v0c1.2-0.6,2.4-1.1,3.6-1.7v0c0,0,0,0,0,0c0,0,0,0,0.1,0v0c2.6-1.3,5-2.8,7.3-4.5v0c0,0,0,0,0,0c0,0,0,0,0.1,0
		v0c1.3-0.9,2.4-1.9,3.6-3v0c0,0,0,0,0,0c0,0,0,0,0.1-0.1v0c1.3-1.2,2.5-2.6,3.6-4v0c0,0,0-0.1,0.1-0.1c0,0,0,0,0,0v0
		c1.5-2,2.8-4.4,3.6-7C102.1,46.4,102.2,46,102.3,45.5z"/>
</g>
</svg>
