<?xml version="1.0" encoding="utf-8"?>
<!-- Generator: Adobe Illustrator 25.3.0, SVG Export Plug-In . SVG Version: 6.00 Build 0)  -->
<svg version="1.1" id="Layer_1" xmlns="http://www.w3.org/2000/svg" xmlns:xlink="http://www.w3.org/1999/xlink" x="0px" y="0px"
	 viewBox="0 0 750.2 400.1" style="enable-background:new 0 0 750.2 400.1;" xml:space="preserve">
<path d="M202.1,44c24.8,0,35.8,1.5,40.6,2.6c0.9-3.3,1.6-6.9,1.9-10.7l0-0.4c-3.4-1-14.1-3.2-42.4-3.2c-28.4,0-38.9,2.2-42.2,3.2
	l0.1,0.4c0.3,3.9,1,7.5,1.9,10.8c0,0,0,0,0,0C166.8,45.6,177.9,44,202.1,44z"/>
<path d="M226.4,75.6l24.5,13.9l7.5-31.2L246,36.1C244.1,61.3,226.4,75.6,226.4,75.6z"/>
<path d="M158.4,36.1L146,58.3l7.5,31.2L178,75.6c0,0-12.3-9.9-17.5-27.9c-0.1-0.2-0.1-0.4-0.2-0.6C159.4,43.7,158.7,40.1,158.4,36.1
	z"/>
<path d="M596.5,48.1l-0.5-0.9l-6.5-11.4c0,0-15.5-3.6-44.1-3.6c-28.6,0-43.9,3.5-43.9,3.5l-7.3,12.6l-0.8,1.3c0,0,23.7-4,52.3-4
	C574.4,45.7,596.5,48.1,596.5,48.1z"/>
</svg>
