<?xml version="1.0" encoding="utf-8"?>
<!-- Generator: Adobe Illustrator 25.3.0, SVG Export Plug-In . SVG Version: 6.00 Build 0)  -->
<svg version="1.1" id="Layer_1" xmlns="http://www.w3.org/2000/svg" xmlns:xlink="http://www.w3.org/1999/xlink" x="0px" y="0px"
	 viewBox="0 0 750.2 400.1" style="enable-background:new 0 0 750.2 400.1;" xml:space="preserve">
<path d="M191.9,78.4c0.2,0.2,0.4,0.4,0.6,0.7c0.5,0.8,0.6,1.6,0.3,2.4c-0.4,1-1.5,1.7-2.8,1.7c-0.1,0-0.2,0-0.3,0
	c-0.5,0-0.9-0.1-1.3-0.3c-0.9-0.3-1.6-0.9-2.1-1.6c-0.1-0.2-0.2-0.4-0.3-0.6c-0.2-0.6-0.2-1.2,0-1.8c0.3-0.8,1-1.3,1.8-1.5
	c-2.3-0.6-4.7-1-7.2-1.4l-1.7,0.9l-0.1,0.1l-2.1,1.2c4.5,1.5,11,3.9,15.1,6.7c1.2,0.8,2.1,1.6,2.8,2.4c1-2,3-3.9,5.8-5.6
	C198.2,80.6,195.3,79.5,191.9,78.4z"/>
</svg>
