<?xml version="1.0" encoding="utf-8"?>
<!-- Generator: Adobe Illustrator 25.3.0, SVG Export Plug-In . SVG Version: 6.00 Build 0)  -->
<svg version="1.1" id="Layer_1" xmlns="http://www.w3.org/2000/svg" xmlns:xlink="http://www.w3.org/1999/xlink" x="0px" y="0px"
	 viewBox="0 0 750.20001 400.10001" style="enable-background:new 0 0 750.20001 400.10001;" xml:space="preserve">
<path d="M202.05444,43.99557c24.79102,0,35.81787,1.53802,40.55518,2.64801c0.9104-3.29346,1.5705-6.85284,1.85504-10.66553
	l0.03204-0.42926c-3.4472-1.04102-14.05383-3.22382-42.44226-3.22382c-28.3797,0-38.85211,2.1814-42.23749,3.22284l0.06281,0.43024
	c0.28894,3.87152,0.9696,7.48065,1.90497,10.81909c0.00122,0.00433,0.0022,0.00903,0.00342,0.01337
	C166.77234,45.59909,177.92377,43.99557,202.05444,43.99557z"/>
<path d="M226.38403,75.61905l24.47058,13.92938l7.52942-31.24701l-12.42352-22.21173
	C244.07812,61.31314,226.38403,75.61905,226.38403,75.61905z"/>
<path d="M158.38391,36.08969l-12.42346,22.21173l7.52936,31.24701l24.47058-13.92938c0,0-12.28546-9.94568-17.46899-27.86023
	c-0.05878-0.20312-0.12238-0.4007-0.17932-0.60583C159.36609,43.74301,158.67957,40.05148,158.38391,36.08969z"/>
<path d="M596.54773,48.12491l-0.49774-0.86774l-6.51398-11.35571c0,0-15.52936-3.57648-44.14111-3.57648
	c-28.61169,0-43.8587,3.48236-43.8587,3.48236l-7.34351,12.58417l-0.75061,1.28632c0,0,23.71759-4.00024,52.32928-4.00024
	C574.38312,45.67758,596.54773,48.12491,596.54773,48.12491z"/>
</svg>
