<?xml version="1.0" encoding="utf-8"?>
<!-- Generator: Adobe Illustrator 25.3.0, SVG Export Plug-In . SVG Version: 6.00 Build 0)  -->
<svg version="1.1" id="Layer_1" xmlns="http://www.w3.org/2000/svg" xmlns:xlink="http://www.w3.org/1999/xlink" x="0px" y="0px"
	 viewBox="0 0 750.2 400.1" style="enable-background:new 0 0 750.2 400.1;" xml:space="preserve">
<path d="M113.5,215.7c-0.2,0.8-0.3,1.6-0.5,2.5c3.7,61.7,9.2,108,19.3,122.8c8,11.8,13.4,21.1,16.7,28.4c4.5,0.6,9.2,1.2,13.9,1.7
	c-1.3-6.5-7.5-16.2-20.6-30.1C129.9,327.8,119.1,279.2,113.5,215.7z"/>
<path d="M292,221.6c-0.2-0.9-0.4-1.7-0.6-2.6c-5.6,61.9-16.2,109-28.5,122.1c-12.6,13.4-18.7,22.8-20.4,29.3
	c4.8-0.5,9.6-1.1,14.1-1.7c3.3-7.1,8.6-16.2,16.3-27.5C282.8,326.5,288.3,281.6,292,221.6z"/>
<path d="M454.1,222.8c-0.2,0.7-0.4,1.5-0.6,2.2c3.7,71.1,9.2,124.5,19.4,141.6c1.4,2.4,2.8,4.7,4,6.9c4.6,1.6,9.6,3.2,14.9,4.7
	c-2.5-3.5-5.5-7.4-8.9-11.6C470.4,351.3,459.7,295.7,454.1,222.8z"/>
<path d="M637,223.7c-0.2-0.7-0.4-1.5-0.5-2.2c-5.6,73.5-16.3,129.7-28.9,145.1c-3.2,3.9-6,7.6-8.4,10.9c5.2-1.5,10.2-3,14.7-4.5
	c1.2-2.1,2.4-4.2,3.7-6.4C627.8,349.4,633.3,295.5,637,223.7z"/>
</svg>
