<?xml version="1.0" encoding="utf-8"?>
<!-- Generator: Adobe Illustrator 25.3.0, SVG Export Plug-In . SVG Version: 6.00 Build 0)  -->
<svg version="1.1" id="Layer_1" xmlns="http://www.w3.org/2000/svg" xmlns:xlink="http://www.w3.org/1999/xlink" x="0px" y="0px"
	 viewBox="0 0 750.2 400.1" style="enable-background:new 0 0 750.2 400.1;" xml:space="preserve">
<path d="M134.8,54.8l-15.5,4.7c-1.5,2.2-2.4,4.7-3.4,9.4c-1.1,5-1.9,11.1-2.5,17.6c-1.2,13-1.7,27.6-2.1,38.6c0,0.9-0.1,1.8-0.1,2.7
	l17.5-53.9L134.8,54.8z"/>
<path d="M288.4,68.7c-1-4.7-2.1-7.6-3.5-9.8l-15.4-4.6l6.3,19.5l17.1,52.8c0,0,0,0,0-0.1c0-0.6-0.1-1.1-0.1-1.7
	C292.3,108.4,291.6,83.7,288.4,68.7z"/>
</svg>
