<?xml version="1.0" encoding="utf-8"?>
<!-- Generator: Adobe Illustrator 25.3.0, SVG Export Plug-In . SVG Version: 6.00 Build 0)  -->
<svg version="1.1" id="Layer_1" xmlns="http://www.w3.org/2000/svg" xmlns:xlink="http://www.w3.org/1999/xlink" x="0px" y="0px"
	 viewBox="0 0 750.2 400.1" style="enable-background:new 0 0 750.2 400.1;" xml:space="preserve">
<path d="M111.1,225.9h181.9c-5.9-22.4-6.9-42.6-6.1-58.5H117.2C118.1,183.3,117.1,203.5,111.1,225.9z"/>
<path d="M104.4,361.7c0,0,0.1,0,0.2,0c4.3,0.9,57.2,12.2,95.8,11.6c42.9-0.6,99.5-11.7,99.5-11.7v-2.2v-22.7l-0.2-64.8v-22.5H104.3
	l0.1,107.4v2.4V361.7z"/>
<path d="M459.5,167.4c0.8,15.9-0.2,36.1-6.1,58.5h184.2c-5.9-22.4-7-42.6-6.1-58.5H459.5z"/>
<path d="M447.6,249.4l0.1,111.9c0,0,0.3,0.3,0.4,0.3c0.1,0.1,0.2,0.2,0.4,0.2c0,0,47.8,24.4,95.3,24.4s99.4-24.7,99.4-24.7v-3.3
	l0.1-86.3h-0.2v-22.5H447.6z"/>
</svg>
