<?xml version="1.0" encoding="utf-8"?>
<!-- Generator: Adobe Illustrator 25.3.0, SVG Export Plug-In . SVG Version: 6.00 Build 0)  -->
<svg version="1.1" id="Layer_1" xmlns="http://www.w3.org/2000/svg" xmlns:xlink="http://www.w3.org/1999/xlink" x="0px" y="0px"
	 viewBox="0 0 750.2 400.1" style="enable-background:new 0 0 750.2 400.1;" xml:space="preserve">
<path d="M287.7,195.8c-0.1-0.6-0.1-1.2-0.2-1.7l-8.4,1L287.7,195.8z"/>
<polygon points="299.7,281 299.7,276.8 279.1,279.2 "/>
<path d="M116.7,194.1c-0.1,0.6-0.1,1.2-0.2,1.8l8.8-0.8L116.7,194.1z"/>
<polygon points="104.4,276.7 104.4,281 125.4,279.2 "/>
<path d="M632.1,195.9c-0.1-0.6-0.1-1.3-0.2-1.9l-9.3,1.1L632.1,195.9z"/>
<polygon points="643.3,281 643.3,276.8 622.7,279.2 "/>
<path d="M459,193.9c-0.1,0.7-0.1,1.4-0.2,2.1l10.2-0.9L459,193.9z"/>
<polygon points="447.7,276.7 447.7,281 469,279.2 "/>
</svg>
