<?xml version="1.0" encoding="utf-8"?>
<!-- Generator: Adobe Illustrator 25.3.0, SVG Export Plug-In . SVG Version: 6.00 Build 0)  -->
<svg version="1.1" id="Layer_1" xmlns="http://www.w3.org/2000/svg" xmlns:xlink="http://www.w3.org/1999/xlink" x="0px" y="0px"
	 viewBox="0 0 750.2 400.1" style="enable-background:new 0 0 750.2 400.1;" xml:space="preserve">
<path d="M286.9,186c-1.5-32.6,5.9-54.4,6.1-54.8l0.1-0.3l0.2,0.1c-0.1-1.2-0.2-2.5-0.3-3.9c0-0.1,0-0.3,0-0.4c0-0.6-0.1-1.1-0.1-1.7
	c-0.1-2.1-0.2-4.4-0.2-6.8C290,122.2,271,153.3,286.9,186z"/>
<path d="M111.6,117.2c-0.1,2.8-0.2,5.5-0.3,7.9c-0.1,2.2-0.2,4.2-0.4,6l0.3-0.1l0.1,0.3c0.1,0.3,7.1,20.9,6.1,51.8
	C131.7,152.4,115.4,123.2,111.6,117.2z"/>
<path d="M453.9,117.7L453.9,117.7c-0.1,2.5-0.2,4.9-0.3,7.1v1.1v0.1c0,0.1,0,0.1,0,0.2c0,0.8-0.1,1.7-0.1,2.4l0,0v2.6l0,0
	c0.1,0.3,7.7,22.5,6,55.5C477.4,151.5,453.9,117.7,453.9,117.7z"/>
<path d="M631.3,184.3c-1.2-31.7,5.9-52.8,6.1-53.1l0.1-0.2v-2.4l0.4,0.1c0-0.8-0.1-1.6-0.1-2.5c0-0.2,0-0.3,0-0.5v-0.1v-1.1
	c-0.1-1.9-0.1-3.9-0.2-6C634,124.2,617.3,153.4,631.3,184.3z"/>
<path d="M396.9,140.8l0.6,2.8l54.7-12.5c0.1-1.6,0.2-3.3,0.3-5.1c0,0,0,0,0,0v-1.2c0.1-2.1,0.2-4.4,0.2-6.6L396.9,140.8z"/>
<path d="M53,144.6l56.9-13.5c0.3-1.9,0.4-4,0.5-6.3c0,0,0,0,0,0c0.1-2.7,0.2-5.7,0.3-8.7L52,139.9L53,144.6z"/>
<path d="M293.8,124.6c0.1,2.4,0.2,4.6,0.4,6.5l58,13.8l0.2,0l0.6-2.8l-59.5-24.1C293.6,120.3,293.7,122.5,293.8,124.6z"/>
<path d="M638.8,124.6v1.2c0.1,1.5,0.1,2.8,0.2,4.1c0,0.5,0.1,0.9,0.1,1.4l57.7,13.5l0.7-2.9l-58.9-23.9
	C638.6,120.2,638.7,122.4,638.8,124.6z"/>
</svg>
