<?xml version="1.0" encoding="utf-8"?>
<!-- Generator: Adobe Illustrator 25.3.0, SVG Export Plug-In . SVG Version: 6.00 Build 0)  -->
<svg version="1.1" id="Layer_1" xmlns="http://www.w3.org/2000/svg" xmlns:xlink="http://www.w3.org/1999/xlink" x="0px" y="0px"
	 viewBox="0 0 750.2 400.1" style="enable-background:new 0 0 750.2 400.1;" xml:space="preserve">
<path d="M203.1,160c0.1,0,0.1,0.1,0.2,0.1C203.2,160.1,203.1,160,203.1,160C203.1,160,203.1,160,203.1,160z"/>
<path d="M195.1,155.5c-0.7-0.3-1.5-0.5-2.3-0.8c3.7,1.4,7.2,3.1,10.3,5.3c0,0,0,0,0,0C200.8,158.2,198.1,156.7,195.1,155.5z"/>
<path d="M203.1,160c0,0,0.1,0.1,0.2,0.1c2.7-2.2,6-4,9.9-5.3c-0.7,0.2-1.4,0.5-2.1,0.7C208,156.7,205.3,158.2,203.1,160z"/>
<path d="M292.1,104.5c-29,1.3-73-4.2-88.9,14.6c-16-19-61.9-13-91-14.7c-0.4,7.4-0.6,14.6-0.9,20.7c-0.1,2.2-0.2,4.2-0.4,6l0.3-0.1
	l0.1,0.3c0.1,0.2,2.7,8,4.5,21.1c16.1-1.9,39.2-3.7,58.5-1.6c4.2,0.4,8.4,1.1,12.3,2.1c3,0.7,5.9,1.6,8.5,2.7c3,1.1,5.7,2.6,8,4.5
	c2.3-1.9,4.9-3.4,8-4.5c19.8-8.1,54.7-5.9,77.4-3.3c1.8-13,4.5-20.8,4.5-21l0.1-0.3l0.2,0.1c-0.1-1.2-0.2-2.5-0.3-3.9
	c0-0.1,0-0.3,0-0.4c0-0.6-0.1-1.1-0.1-1.7C292.7,118.9,292.4,111.8,292.1,104.5z"/>
<path d="M143,52.3L127,57.2c7.8,4.2,24.6,13.5,31.4,19.9C155.1,68.2,148.9,59.4,143,52.3z"/>
<path d="M280.9,57.7L265.2,53c-5.7,6.9-11.6,15.5-14.8,24C257,70.9,272.7,62.1,280.9,57.7z"/>
</svg>
