<?xml version="1.0" encoding="utf-8"?>
<!-- Generator: Adobe Illustrator 25.3.0, SVG Export Plug-In . SVG Version: 6.00 Build 0)  -->
<svg version="1.1" id="Layer_1" xmlns="http://www.w3.org/2000/svg" xmlns:xlink="http://www.w3.org/1999/xlink" x="0px" y="0px"
	 viewBox="0 0 750.2 400.1" style="enable-background:new 0 0 750.2 400.1;" xml:space="preserve">
<polygon points="104.4,300.4 299.8,300.4 299.8,296.5 104.4,296.5 "/>
<path d="M109.6,231.3c-0.4,1.2-0.7,2.5-1.1,3.8h187.2c-0.4-1.3-0.8-2.5-1.1-3.8H109.6z"/>
<path d="M292.2,106.5c-0.1-1.3-0.1-2.5-0.2-3.8H112.2c-0.1,1.3-0.1,2.6-0.2,3.8H292.2z"/>
<path d="M287.9,156.4c0.2-1.3,0.3-2.6,0.5-3.8H115.9c0.2,1.2,0.3,2.5,0.5,3.8H287.9z"/>
<path d="M453.8,97.6c0.2-2.6,0.4-5.2,0.6-7.8c0-0.2,0-0.4,0.1-0.6l-5.9-25.5l-2.4,0.7L453.8,97.6z"/>
<polygon points="414.3,74.2 411.9,74.9 426.2,137 428.7,136.5 "/>
<path d="M111.5,98.7c0.2-2.9,0.4-5.7,0.6-8.6l-6.2-27.1l-2.4,0.7L111.5,98.7z"/>
<polygon points="86.2,136.7 71.7,73.5 69.3,74.2 83.8,137.3 "/>
<path d="M303.4,64.2l-2.4-0.7l-8.3,35.3c0.2,3,0.3,6,0.5,9L303.4,64.2z"/>
<polygon points="320.3,137.3 322.7,137.9 337.5,74.6 335.1,73.9 "/>
<path d="M636.7,87.3c0.2,2.6,0.5,5.2,0.7,7.9l7.4-31.6l-2.3-0.7L636.7,87.3z"/>
<polygon points="676.7,73.2 661.8,136.5 664.2,137.1 679.1,73.9 "/>
</svg>
