<?xml version="1.0" encoding="utf-8"?>
<!-- Generator: Adobe Illustrator 25.3.0, SVG Export Plug-In . SVG Version: 6.00 Build 0)  -->
<svg version="1.1" id="Layer_1" xmlns="http://www.w3.org/2000/svg" xmlns:xlink="http://www.w3.org/1999/xlink" x="0px" y="0px"
	 viewBox="0 0 750.2 400.1" style="enable-background:new 0 0 750.2 400.1;" xml:space="preserve">
<path d="M568.2,246.3c-0.2-0.1-0.6,0-0.6,0.1l0.2,0.5h2.4l0,0L568.2,246.3z"/>
<path d="M578.4,202.2v-11.3h-0.1l-1.7-0.3c-0.2,0-0.5,0-0.5,0.1l-0.3,0.9h-0.1l-2.1-1.1c-0.2-0.1-0.6,0-0.6,0l-0.1,1.4
	c0,0.1-0.5,0.1-0.6,0c-0.1-0.1-0.5-0.1-0.6,0l-1.2,0.9c-0.1,0.1-0.5-1.1-0.6-1.2l-2-0.6c-0.2-0.1-0.6,0-0.6,0.1l0.4,1.3h-0.1
	l-2.1-0.3c-0.2,0-0.5,0-0.5,0.1v0.9l-0.8-0.5c-0.1-0.1-0.4-1.6-0.5-1.5l-2.1,1.4h-0.1l-1.4-1.2c-0.1-0.1-0.4-0.1-0.6,0l-0.6,0.2
	c-0.1,0.1-0.4,0-0.5,0l-3.3,0.4c-0.2-0.1-0.6,0-0.6,0v0.3c0,0.1-0.5,0.1-0.6,0l-1.5-0.8c-0.1-0.1-0.4-0.1-0.6,0l-0.2,0.1
	c-0.1,0.1-0.5,0.1-0.6,0l-0.7-1.1c0-0.1-0.3-0.1-0.5-0.1l-1.3,1.3c-0.2,0-0.5,0-0.5,0l-0.8-1c0,0-0.2-0.1-0.3-0.1l-0.3-13
	c0.1,0,0.3,0,0.3,0.1l0.8,1c0,0.1,0.3,0.1,0.5,0l1.8-0.4c0.2,0,0.5,0,0.5,0.1l0.7-0.3c0,0.1,0.5,0.1,0.6,0l0.2-0.1
	c0.1-0.1,0.5-0.1,0.6,0l1.5,0.8c0.1,0.1,0.6-1.1,0.6-1.2v-0.3c0-0.1,0.4-0.1,0.6,0l3.1,1.5c0.1,0.1,0.4,0.1,0.5,0l0.6-0.2
	c0.2-0.1,0.5,0,0.6,0l1.2,1.1c0.1,0.1,0.5,0.1,0.6,0l1.9-1.2c0.1-0.1,0.5-0.1,0.6,0l0.2,0.1c0.1,0.1,0.6,0.1,0.6,0V178
	c0-0.1,0.3-0.1,0.5-0.1l1.1,0.2l0.4,0.1l0.3-0.1c0-0.1,0.4-0.1,0.6-0.1l2,0.6c0.2,0,0.5,0,0.5,0l1.2-0.9c0.1-0.1,0.5-0.1,0.6,0
	c0.1,0.1,0.6,0.1,0.6,0l0.1-0.1c0-0.1,0.5-0.1,0.6,0l1.7,0.8c0.1,0.1,0.6,0.1,0.6,0l0.2-0.6c0-0.1,0.3-0.1,0.5-0.1l1.7,0.3h0l0.1-4
	v-10.8h-0.1l-1.7-0.3c-0.2,0-0.5,0-0.5,0.1l-0.3,0.9h-0.1l-2.1-1.1c-0.2-0.1-0.6,0-0.6,0l-0.1,1.4c0,0.1-0.5,0.1-0.6,0
	c-0.1-0.1-0.5-0.1-0.6,0l-1.2,0.9c-0.1,0.1-0.5-1.1-0.6-1.2l-2-0.6c-0.2-0.1-0.6,0-0.6,0.1l0.4,1.3h-0.1l-2.1-0.3
	c-0.2,0-0.5,0-0.5,0.1v0.9l-0.8-0.5c-0.1-0.1-0.4-1.6-0.5-1.5l-2.1,1.4h-0.1l-1.4-1.2c-0.1-0.1-0.4-0.1-0.6,0l-0.6,0.2
	c-0.1,0.1-0.4,0-0.5,0l-3.3,0.4c-0.2-0.1-0.6,0-0.6,0v0.3c0,0.1-0.5,0.1-0.6,0l-1.5-0.8c-0.1-0.1-0.4-0.1-0.6,0l-0.2,0.1
	c-0.1,0.1-0.5,0.1-0.6,0l-0.7-1.1c0-0.1-0.3-0.1-0.5-0.1l-1.3,1.3c-0.2,0-0.5,0-0.5,0l-0.8-1c0,0-0.2-0.1-0.3-0.1l-0.3-13
	c0.1,0,0.3,0,0.3,0.1l0.8,1c0,0.1,0.3,0.1,0.5,0l1.8-0.4c0.2,0,0.5,0,0.5,0.1l0.7-0.3c0,0.1,0.5,0.1,0.6,0l0.2-0.1
	c0.1-0.1,0.5-0.1,0.6,0l1.5,0.8c0.1,0.1,0.6-1.1,0.6-1.2v-0.3c0-0.1,0.4-0.1,0.6,0l3.1,1.5c0.1,0.1,0.4,0.1,0.5,0l0.6-0.2
	c0.2-0.1,0.5,0,0.6,0l1.2,1.1c0.1,0.1,0.5,0.1,0.6,0l1.9-1.2c0.1-0.1,0.5-0.1,0.6,0l0.2,0.1c0.1,0.1,0.6,0.1,0.6,0v-0.5
	c0-0.1,0.3-0.1,0.5-0.1l1.1,0.2l0.4,0.1l0.3-0.1c0-0.1,0.4-0.1,0.6-0.1l2,0.6c0.2,0,0.5,0,0.5,0l1.2-0.9c0.1-0.1,0.5-0.1,0.6,0
	c0.1,0.1,0.6,0.1,0.6,0l0.1-0.1c0-0.1,0.5-0.1,0.6,0l1.7,0.8c0.1,0.1,0.6,0.1,0.6,0l0.2-0.6c0-0.1,0.3-0.1,0.5-0.1l1.7,0.3h0
	l0.1-4.8h0v-10h-0.1l-1.7-0.3c-0.2,0-0.5,0-0.5,0.1l-0.3,0.9h-0.1l-2.1-1.1c-0.2-0.1-0.6,0-0.6,0l-0.1,1.4c0,0.1-0.5,0.1-0.6,0
	c-0.1-0.1-0.5-0.1-0.6,0l-1.2,0.9c-0.1,0.1-0.5-1.1-0.6-1.2l-2-0.6c-0.2-0.1-0.6,0-0.6,0.1l0.4,1.3h-0.1l-2.1-0.3
	c-0.2,0-0.5,0-0.5,0.1v0.9l-0.8-0.5c-0.1-0.1-0.4-1.6-0.5-1.5l-2.1,1.4h-0.1l-1.4-1.2c-0.1-0.1-0.4-0.1-0.6,0l-0.6,0.2
	c-0.1,0.1-0.4,0-0.5,0l-3.3,0.4c-0.2-0.1-0.6,0-0.6,0v0.3c0,0.1-0.5,0.1-0.6,0l-1.5-0.8c-0.1-0.1-0.4-0.1-0.6,0l-0.2,0.1
	c-0.1,0.1-0.5,0.1-0.6,0l-0.7-1.1c0-0.1-0.3-0.1-0.5-0.1l-1.3,1.3c-0.2,0-0.5,0-0.5,0l-0.8-1c0,0-0.2-0.1-0.3-0.1l-0.2-10.2h-34.1
	v11.5h0.1l1.7-0.3c0.2,0,0.5,0,0.5,0.1l0.2,0.6c0,0.1,0.5,0.1,0.6,0l1.7-0.8c0.2-0.1,0.6,0,0.6,0l0.1,0.1c0,0.1,0.5,0.1,0.6,0
	c0.1-0.1,0.5-0.1,0.6,0l1.2,0.9c0.1,0.1,0.4,0.1,0.5,0l2-0.6c0.2-0.1,0.6,0,0.6,0.1l0.3,0.1l0.4-0.1l1.1-0.2c0.2,0,0.5,0,0.5,0.1
	v0.5c0,0.1,0.5,0.1,0.6,0l0.2-0.1c0.1-0.1,0.5-0.1,0.6,0l1.9,1.2c0.1,0.1,0.5,0.1,0.6,0l1.2-1.1c0.1-0.1,0.4-0.1,0.6,0l0.6,0.2
	c0.1,0.1,0.4,0,0.5,0l3.1-1.5c0.2-0.1,0.6,0,0.6,0v0.3c0,0.1,0.5,1.3,0.6,1.2l1.5-0.8c0.1-0.1,0.4-0.1,0.6,0l0.2,0.1
	c0.1,0.1,0.6,0.1,0.6,0l0.7,0.3c0-0.1,0.3-0.1,0.5-0.1l1.8,0.4c0.2,0,0.5,0,0.5,0l0.8-1c0.1-0.1,0.3-0.1,0.5,0l0.9,0.2l-1,0.2h-0.1
	l-0.3,12.6c-0.2,0-0.3,0-0.4,0.1l-0.8,1c0,0.1-0.3,0.1-0.5,0l-1.3-1.3c-0.2,0-0.5,0-0.5,0.1l-0.7,1.1c0,0.1-0.5,0.1-0.6,0l-0.2-0.1
	c-0.1-0.1-0.5-0.1-0.6,0l-1.5,0.8c-0.1,0.1-0.6,0.1-0.6,0v-0.3c0-0.1-0.4-0.1-0.6,0l-3.3-0.4c-0.1,0.1-0.4,0.1-0.5,0l-0.6-0.2
	c-0.2-0.1-0.5,0-0.6,0l-1.4,1.2h-0.1l-2.1-1.4c-0.1-0.1-0.4,1.4-0.5,1.5l-0.8,0.5v-0.9c0-0.1-0.3-0.1-0.5-0.1l-2.1,0.3h-0.1l0.4-1.3
	c0-0.1-0.4-0.1-0.6-0.1l-2,0.6c-0.2,0-0.6,1.2-0.6,1.2l-1.2-0.9c-0.1-0.1-0.5-0.1-0.6,0c-0.1,0.1-0.6,0.1-0.6,0l-0.1-1.4
	c0-0.1-0.5-0.1-0.6,0l-2.1,1.1h-0.1l-0.3-0.9c0-0.1-0.3-0.1-0.5-0.1l-1.7,0.3h-0.1v14.8h0.1l1.7-0.3c0.2,0,0.5,0,0.5,0.1l0.2,0.6
	c0,0.1,0.5,0.1,0.6,0l1.7-0.8c0.2-0.1,0.6,0,0.6,0l0.1,0.1c0,0.1,0.5,0.1,0.6,0c0.1-0.1,0.5-0.1,0.6,0l1.2,0.9
	c0.1,0.1,0.4,0.1,0.5,0l2-0.6c0.2-0.1,0.6,0,0.6,0.1l0.3,0.1l0.4-0.1l1.1-0.2c0.2,0,0.5,0,0.5,0.1v0.5c0,0.1,0.5,0.1,0.6,0l0.2-0.1
	c0.1-0.1,0.5-0.1,0.6,0l1.9,1.2c0.1,0.1,0.5,0.1,0.6,0l1.2-1.1c0.1-0.1,0.4-0.1,0.6,0l0.6,0.2c0.1,0.1,0.4,0,0.5,0l3.1-1.5
	c0.2-0.1,0.6,0,0.6,0v0.3c0,0.1,0.5,1.3,0.6,1.2l1.5-0.8c0.1-0.1,0.4-0.1,0.6,0l0.2,0.1c0.1,0.1,0.6,0.1,0.6,0l0.7,0.3
	c0-0.1,0.3-0.1,0.5-0.1l1.8,0.4c0.2,0,0.5,0,0.5,0l0.8-1c0.1-0.1,0.3-0.1,0.5,0l0.9,0.2l-1,0.2h-0.1l-0.3,12.6c-0.2,0-0.3,0-0.4,0.1
	l-0.8,1c0,0.1-0.3,0.1-0.5,0l-1.3-1.3c-0.2,0-0.5,0-0.5,0.1l-0.7,1.1c0,0.1-0.5,0.1-0.6,0l-0.2-0.1c-0.1-0.1-0.5-0.1-0.6,0l-1.5,0.8
	c-0.1,0.1-0.6,0.1-0.6,0v-0.3c0-0.1-0.4-0.1-0.6,0L533,177c-0.1,0.1-0.4,0.1-0.5,0l-0.6-0.2c-0.2-0.1-0.5,0-0.6,0l-1.4,1.2h-0.1
	l-2.1-1.4c-0.1-0.1-0.4,1.4-0.5,1.5l-0.8,0.5v-0.9c0-0.1-0.3-0.1-0.5-0.1l-2.1,0.3h-0.1l0.4-1.3c0-0.1-0.4-0.1-0.6-0.1l-2,0.6
	c-0.2,0-0.6,1.2-0.6,1.2l-1.2-0.9c-0.1-0.1-0.5-0.1-0.6,0c-0.1,0.1-0.6,0.1-0.6,0l-0.1-1.4c0-0.1-0.5-0.1-0.6,0l-2.1,1.1h-0.1
	l-0.3-0.9c0-0.1-0.3-0.1-0.5-0.1l-1.7,0.3H513v14.8h0.1l1.7-0.3c0.2,0,0.5,0,0.5,0.1l0.2,0.6c0,0.1,0.5,0.1,0.6,0l1.7-0.8
	c0.2-0.1,0.6,0,0.6,0l0.1,0.1c0,0.1,0.5,0.1,0.6,0c0.1-0.1,0.5-0.1,0.6,0l1.2,0.9c0.1,0.1,0.4,0.1,0.5,0l2-0.6
	c0.2-0.1,0.6,0,0.6,0.1l0.3,0.1l0.4-0.1l1.1-0.2c0.2,0,0.5,0,0.5,0.1v0.5c0,0.1,0.5,0.1,0.6,0l0.2-0.1c0.1-0.1,0.5-0.1,0.6,0
	l1.9,1.2c0.1,0.1,0.5,0.1,0.6,0l1.2-1.1c0.1-0.1,0.4-0.1,0.6,0l0.6,0.2c0.1,0.1,0.4,0,0.5,0l3.1-1.5c0.2-0.1,0.6,0,0.6,0v0.3
	c0,0.1,0.5,1.3,0.6,1.2l1.5-0.8c0.1-0.1,0.4-0.1,0.6,0l0.2,0.1c0.1,0.1,0.6,0.1,0.6,0l0.7,0.3c0-0.1,0.3-0.1,0.5-0.1l1.8,0.4
	c0.2,0,0.5,0,0.5,0l0.8-1c0.1-0.1,0.3-0.1,0.5,0l0.9,0.2l-1,0.2h-0.1l-0.3,12.6c-0.2,0-0.3,0-0.4,0.1l-0.8,1c0,0.1-0.3,0.1-0.5,0
	l-1.3-1.3c-0.2,0-0.5,0-0.5,0.1l-0.7,1.1c0,0.1-0.5,0.1-0.6,0l-0.2-0.1c-0.1-0.1-0.5-0.1-0.6,0l-1.5,0.8c-0.1,0.1-0.6,0.1-0.6,0
	v-0.3c0-0.1-0.4-0.1-0.6,0l-3.3-0.4c-0.1,0.1-0.4,0.1-0.5,0l-0.6-0.2c-0.2-0.1-0.5,0-0.6,0l-1.4,1.2h-0.1l-2.1-1.4
	c-0.1-0.1-0.4,1.4-0.5,1.5l-0.8,0.5v-0.9c0-0.1-0.3-0.1-0.5-0.1l-2.1,0.3h-0.1l0.4-1.3c0-0.1-0.4-0.1-0.6-0.1l-2,0.6
	c-0.2,0-0.6,1.2-0.6,1.2l-1.2-0.9c-0.1-0.1-0.5-0.1-0.6,0c-0.1,0.1-0.6,0.1-0.6,0l-0.1-1.4c0-0.1-0.5-0.1-0.6,0l-2.1,1.1h-0.1
	l-0.3-0.9c0-0.1-0.3-0.1-0.5-0.1l-1.7,0.3H513V219h0.1l1.7-0.3c0.2,0,0.5,0,0.5,0.1l0.2,0.6c0,0.1,0.5,0.1,0.6,0l1.7-0.8
	c0.2-0.1,0.6,0,0.6,0l0.1,0.1c0,0.1,0.5,0.1,0.6,0c0.1-0.1,0.5-0.1,0.6,0l1.2,0.9c0.1,0.1,0.4,0.1,0.5,0l2-0.6
	c0.2-0.1,0.6,0,0.6,0.1l0.3,0.1l0.4-0.1l1.1-0.2c0.2,0,0.5,0,0.5,0.1v0.5c0,0.1,0.5,0.1,0.6,0l0.2-0.1c0.1-0.1,0.5-0.1,0.6,0
	l1.9,1.2c0.1,0.1,0.5,0.1,0.6,0l1.2-1.1c0.1-0.1,0.4-0.1,0.6,0l0.6,0.2c0.1,0.1,0.4,0,0.5,0l3.1-1.5c0.2-0.1,0.6,0,0.6,0v0.3
	c0,0.1,0.5,1.3,0.6,1.2l1.5-0.8c0.1-0.1,0.4-0.1,0.6,0l0.2,0.1c0.1,0.1,0.6,0.1,0.6,0l0.7,0.3c0-0.1,0.3-0.1,0.5-0.1l1.8,0.4
	c0.2,0,0.5,0,0.5,0l0.8-1c0.1-0.1,0.3-0.1,0.5,0l0.9,0.2l-1,0.2h-0.1l-0.3,12.6c-0.2,0-0.3,0-0.4,0.1l-0.8,1c0,0.1-0.3,0.1-0.5,0
	l-1.3-1.3c-0.2,0-0.5,0-0.5,0.1l-0.7,1.1c0,0.1-0.5,0.1-0.6,0l-0.2-0.1c-0.1-0.1-0.5-0.1-0.6,0l-1.5,0.8c-0.1,0.1-0.6,0.1-0.6,0V233
	c0-0.1-0.4-0.1-0.6,0l-3.3-0.4c-0.1,0.1-0.4,0.1-0.5,0l-0.6-0.2c-0.2-0.1-0.5,0-0.6,0l-1.4,1.2h-0.1l-2.1-1.4
	c-0.1-0.1-0.4,1.4-0.5,1.5l-0.8,0.5V233c0-0.1-0.3-0.1-0.5-0.1l-2.1,0.3h-0.1l0.4-1.3c0-0.1-0.4-0.1-0.6-0.1l-2,0.6
	c-0.2,0-0.6,1.2-0.6,1.2l-1.2-0.9c-0.1-0.1-0.5-0.1-0.6,0c-0.1,0.1-0.6,0.1-0.6,0l-0.1-1.4c0-0.1-0.5-0.1-0.6,0l-2.1,1.1h-0.1
	l-0.3-0.9c0-0.1-0.3-0.1-0.5-0.1l-1.7,0.3H513v14.8h0.1l1.7-0.3c0.2,0,0.5,0,0.5,0.1l0.2,0.6h0.6l1.7-0.8c0.2-0.1,0.6,0,0.6,0
	l0.1,0.1c0,0.1,0.5,0.1,0.6,0c0.1-0.1,0.5-0.1,0.6,0l0.9,0.7h1.4l1.3-0.4c0.2-0.1,0.6,0,0.6,0.1l0.3,0.1l0.4-0.1l1.1-0.2
	c0.2,0,0.5,0,0.5,0.1v0.4h0.8c0.1-0.1,0.5-0.1,0.6,0h6l2.5-1.2c0.2-0.1,0.6,0,0.6,0v0.3c0,0.1,0.2,0.6,0.4,0.9h0.8l0.9-0.5
	c0.1-0.1,0.4-0.1,0.6,0l0.2,0.1c0.1,0.1,0.6,0.1,0.6,0l0.7,0.3c0-0.1,0.3-0.1,0.5-0.1l0.9,0.2h1.6l0.6-0.8c0.1-0.1,0.3-0.1,0.5,0
	l0.9,0.2l-1,0.2h-0.1l0,0.4h2.8L547,246c0,0-0.2-0.1-0.3-0.1l-0.3-13c0.1,0,0.3,0,0.3,0.1l0.8,1c0,0.1,0.3,0.1,0.5,0l1.8-0.4
	c0.2,0,0.5,0,0.5,0.1l0.7-0.3c0,0.1,0.5,0.1,0.6,0l0.2-0.1c0.1-0.1,0.5-0.1,0.6,0l1.5,0.8c0.1,0.1,0.6-1.1,0.6-1.2v-0.3
	c0-0.1,0.4-0.1,0.6,0l3.1,1.5c0.1,0.1,0.4,0.1,0.5,0l0.6-0.2c0.2-0.1,0.5,0,0.6,0l1.2,1.1c0.1,0.1,0.5,0.1,0.6,0l1.9-1.2
	c0.1-0.1,0.5-0.1,0.6,0l0.2,0.1c0.1,0.1,0.6,0.1,0.6,0v-0.5c0-0.1,0.3-0.1,0.5-0.1l1.1,0.2l0.4,0.1l0.3-0.1c0-0.1,0.4-0.1,0.6-0.1
	l2,0.6c0.2,0,0.5,0,0.5,0l1.2-0.9c0.1-0.1,0.5-0.1,0.6,0c0.1,0.1,0.6,0.1,0.6,0l0.1-0.1c0-0.1,0.5-0.1,0.6,0l1.7,0.8
	c0.1,0.1,0.6,0.1,0.6,0l0.2-0.6c0-0.1,0.3-0.1,0.5-0.1l1.7,0.3h0.1v-14.8h-0.1l-1.7-0.3c-0.2,0-0.5,0-0.5,0.1l-0.3,0.9h-0.1
	l-2.1-1.1c-0.2-0.1-0.6,0-0.6,0l-0.1,1.4c0,0.1-0.5,0.1-0.6,0c-0.1-0.1-0.5-0.1-0.6,0l-1.2,0.9c-0.1,0.1-0.5-1.1-0.6-1.2l-2-0.6
	c-0.2-0.1-0.6,0-0.6,0.1l0.4,1.3h-0.1l-2.1-0.3c-0.2,0-0.5,0-0.5,0.1v0.9l-0.8-0.5c-0.1-0.1-0.4-1.6-0.5-1.5l-2.1,1.4h-0.1L560,219
	c-0.1-0.1-0.4-0.1-0.6,0l-0.6,0.2c-0.1,0.1-0.4,0-0.5,0l-3.3,0.4c-0.2-0.1-0.6,0-0.6,0v0.3c0,0.1-0.5,0.1-0.6,0l-1.5-0.8
	c-0.1-0.1-0.4-0.1-0.6,0l-0.2,0.1c-0.1,0.1-0.5,0.1-0.6,0l-0.7-1.1c0-0.1-0.3-0.1-0.5-0.1l-1.3,1.3c-0.2,0-0.5,0-0.5,0l-0.8-1
	c0,0-0.2-0.1-0.3-0.1l-0.3-13c0.1,0,0.3,0,0.3,0.1l0.8,1c0,0.1,0.3,0.1,0.5,0l1.8-0.4c0.2,0,0.5,0,0.5,0.1l0.7-0.3
	c0,0.1,0.5,0.1,0.6,0l0.2-0.1c0.1-0.1,0.5-0.1,0.6,0l1.5,0.8c0.1,0.1,0.6-1.1,0.6-1.2v-0.3c0-0.1,0.4-0.1,0.6,0l3.1,1.5
	c0.1,0.1,0.4,0.1,0.5,0l0.6-0.2c0.2-0.1,0.5,0,0.6,0l1.2,1.1c0.1,0.1,0.5,0.1,0.6,0l1.9-1.2c0.1-0.1,0.5-0.1,0.6,0l0.2,0.1
	c0.1,0.1,0.6,0.1,0.6,0v-0.5c0-0.1,0.3-0.1,0.5-0.1l1.1,0.2l0.4,0.1l0.3-0.1c0-0.1,0.4-0.1,0.6-0.1l2,0.6c0.2,0,0.5,0,0.5,0l1.2-0.9
	c0.1-0.1,0.5-0.1,0.6,0c0.1,0.1,0.6,0.1,0.6,0l0.1-0.1c0-0.1,0.5-0.1,0.6,0l1.7,0.8c0.1,0.1,0.6,0.1,0.6,0l0.2-0.6
	c0-0.1,0.3-0.1,0.5-0.1l1.7,0.3h0.1V202.2L578.4,202.2L578.4,202.2z"/>
<path d="M551.6,246.8l-0.2,0.1h1l-0.2-0.1C552.1,246.7,551.8,246.7,551.6,246.8z"/>
<path d="M563.5,246.5l-0.6,0.4h0.8C563.6,246.6,563.5,246.5,563.5,246.5z"/>
<path d="M578.4,246.8l0-0.6l-1.5-0.3c-0.2,0-0.5,0-0.5,0.1l-0.3,0.9H576l-2.1-1.1c-0.2-0.1-0.6,0-0.6,0l-0.1,1.1h5.5v-0.1
	L578.4,246.8L578.4,246.8z"/>
<path d="M559.3,246.7l-0.6,0.2h1.4l-0.2-0.2C559.8,246.6,559.5,246.6,559.3,246.7z"/>
<path d="M549.6,245.7l-1.2,1.2h2.4l-0.7-1.1C550.1,245.7,549.8,245.7,549.6,245.7z"/>
<path d="M606.3,145.4v-11.7l-0.5,0.1v-8.9H595v0.2l-0.3-0.2h-16.1l-0.2,10.4h0.1l1.4-0.3c0.1,0,0.4,0,0.4,0l0.7,0.8
	c0,0,0.3,0.1,0.4,0l1.4-0.3c0.2,0,0.4,0,0.4,0l0.5-0.2c0,0.1,0.4,0.1,0.5,0l0.1-0.1c0.1,0,0.4,0,0.5,0l1.2,0.7
	c0.1,0.1,0.5-0.9,0.5-1v-0.3c0-0.1,0.4-0.1,0.5,0l2.5,1.2c0.1,0,0.3,0,0.4,0l0.5-0.2c0.1,0,0.4,0,0.5,0l1,0.8c0.1,0.1,0.4,0.1,0.5,0
	l1.5-1c0.1-0.1,0.4-0.1,0.5,0l0.2,0.1c0.1,0.1,0.5,0,0.5,0V135c0-0.1,0.2-0.1,0.4-0.1l0.9,0.2l0.3,0.1l0.3-0.1c0-0.1,0.3-0.1,0.5,0
	l1.6,0.5c0.1,0,0.4,0,0.4,0l1-0.7c0.1-0.1,0.4-0.1,0.5,0c0.1,0.1,0.5,0,0.5,0h0.1c0-0.1,0.4-0.1,0.5,0l1.3,0.7c0.1,0.1,0.5,0,0.5,0
	l0.2-0.5c0-0.1,0.2-0.1,0.4-0.1l0.6,0.1l-0.2,10.3l-0.4-0.1c-0.2,0-0.4,0-0.4,0.1l-0.3,0.7l-1.7-0.9c-0.1-0.1-0.5,0-0.5,0l-0.1,1.1
	c0,0.1-0.4,0.1-0.5,0c-0.1-0.1-0.4-0.1-0.5,0l-1,0.7c-0.1,0-0.4-0.9-0.5-0.9l-1.6-0.5c-0.2-0.1-0.5,0-0.5,0l0.1,0.3
	c-0.1,0-0.1,0-0.1,0.1l0.2,0.7l-1.7-0.2c-0.2,0-0.4,0-0.4,0.1v0.3v0.4l-0.7-0.4c-0.1-0.1-0.3-1.3-0.4-1.2l-1.7,1.1h-0.1l-1.2-1
	c-0.1-0.1-0.3-0.1-0.5,0l-0.5,0.2c-0.1,0-0.3,0-0.4,0l-2.7,0.4c-0.1-0.1-0.5,0-0.5,0v0.3c0,0.1-0.4,0.1-0.5,0l-1.2-0.7
	c-0.1-0.1-0.4-0.1-0.5,0l-0.1,0.1c-0.1,0.1-0.4,0-0.5,0L583,145c0-0.1-0.3-0.1-0.4,0l-1,1c-0.2,0-0.4,0-0.4,0l-0.7-0.8
	c0-0.1-0.3-0.1-0.4,0l-1.4,0.3h-0.1h0l-0.1,4.8l-0.1,7v0.3h0.1l1.4-0.3c0.1,0,0.4,0,0.4,0l0.7,0.8c0,0,0.3,0.1,0.4,0l1.4-0.3
	c0.2,0,0.4,0,0.4,0l0.5-0.2c0,0.1,0.4,0.1,0.5,0l0.1-0.1c0.1,0,0.4,0,0.5,0l1.2,0.7c0.1,0.1,0.5-0.9,0.5-1v-0.3c0-0.1,0.4-0.1,0.5,0
	l2.5,1.2c0.1,0,0.3,0,0.4,0l0.5-0.2c0.1,0,0.4,0,0.5,0l1,0.8c0.1,0.1,0.4,0.1,0.5,0l1.5-1c0.1-0.1,0.4-0.1,0.5,0l0.2,0.1
	c0.1,0.1,0.5,0,0.5,0v-0.3v-0.1c0-0.1,0.2-0.1,0.4-0.1l0.9,0.2l0.3,0.1l0.3-0.1c0-0.1,0.3-0.1,0.5,0l1.6,0.5c0.1,0,0.4,0,0.4,0
	l1-0.7c0.1-0.1,0.4-0.1,0.5,0c0.1,0.1,0.5,0,0.5,0h0.1c0-0.1,0.4-0.1,0.5,0l1.3,0.7c0.1,0.1,0.5,0,0.5,0l0.2-0.5
	c0,0,0.2-0.1,0.4-0.1l0.6,0.1l-0.2,10.2v0.1l-0.4-0.1c-0.2,0-0.4,0-0.4,0.1l-0.3,0.7l-1.7-0.9c-0.1-0.1-0.5,0-0.5,0l-0.1,1.1
	c0,0.1-0.4,0.1-0.5,0c-0.1-0.1-0.4-0.1-0.5,0l-1,0.7c-0.1,0-0.4-0.9-0.5-0.9l-1.6-0.5c-0.2-0.1-0.5,0-0.5,0l0.3,1.1h-0.1l-1.7-0.2
	c-0.2,0-0.4,0-0.4,0.1v0.7l-0.7-0.4c-0.1-0.1-0.3-1.3-0.4-1.2l-1.7,1.1h-0.1l-1.2-1c-0.1-0.1-0.3-0.1-0.5,0l-0.5,0.2
	c-0.1,0-0.3,0-0.4,0l-2.7,0.4c-0.1-0.1-0.5,0-0.5,0v0.3c0,0.1-0.4,0.1-0.5,0l-1.2-0.7c-0.1-0.1-0.4-0.1-0.5,0l-0.1,0.1
	c-0.1,0.1-0.4,0-0.5,0l-0.5-0.9c0-0.1-0.3-0.1-0.4,0l-1,1c-0.2,0-0.4,0-0.4,0l-0.7-0.8c0-0.1-0.3-0.1-0.4,0l-1.4,0.3h-0.1l-0.1,5.9
	l-0.1,4l0,1.9h0.1l1.4-0.3c0.1,0,0.4,0,0.4,0l0.7,0.8c0,0,0.3,0.1,0.4,0l1.4-0.3c0.2,0,0.4,0,0.4,0l0.5-0.2c0,0.1,0.4,0.1,0.5,0
	l0.1-0.1c0.1,0,0.4,0,0.5,0l1.2,0.7c0.1,0.1,0.5-0.9,0.5-1v-0.3c0-0.1,0.4-0.1,0.5,0l2.5,1.2c0.1,0,0.3,0,0.4,0l0.5-0.2
	c0.1,0,0.4,0,0.5,0l1,0.8c0.1,0.1,0.4,0.1,0.5,0l1.5-1c0.1-0.1,0.4-0.1,0.5,0l0.2,0.1c0.1,0.1,0.5,0,0.5,0v-0.4
	c0-0.1,0.2-0.1,0.4-0.1l0.9,0.2l0.3,0.1l0.3-0.1c0-0.1,0.3-0.1,0.5,0l1.6,0.5c0.1,0,0.4,0,0.4,0l1-0.7c0.1-0.1,0.4-0.1,0.5,0
	c0.1,0.1,0.5,0,0.5,0h0.1c0-0.1,0.4-0.1,0.5,0l1.3,0.7c0.1,0.1,0.5,0,0.5,0l0.2-0.5c0-0.1,0.2-0.1,0.4-0.1l0.6,0.1l-0.2,10.3
	l-0.4-0.1c-0.2,0-0.4,0-0.4,0.1l-0.3,0.7l-1.7-0.9c-0.1-0.1-0.5,0-0.5,0l-0.1,1.1c0,0.1-0.4,0.1-0.5,0c-0.1-0.1-0.4-0.1-0.5,0
	l-1,0.7c-0.1,0-0.4-0.9-0.5-0.9l-1.6-0.5c-0.2-0.1-0.5,0-0.5,0l0.3,1.1h-0.1l-1.7-0.2c-0.2,0-0.4,0-0.4,0.1v0.7l-0.7-0.4
	c-0.1-0.1-0.3-1.3-0.4-1.2l-1.7,1.1h-0.1l-1.2-1c-0.1-0.1-0.3-0.1-0.5,0l-0.5,0.2c-0.1,0-0.3,0-0.4,0l-2.7,0.4c-0.1-0.1-0.5,0-0.5,0
	v0.3c0,0.1-0.4,0.1-0.5,0l-1.2-0.7c-0.1-0.1-0.4-0.1-0.5,0l-0.1,0.1c-0.1,0.1-0.4,0-0.5,0l-0.5-0.9c0-0.1-0.3-0.1-0.4,0l-1,1
	c-0.2,0-0.4,0-0.4,0l-0.7-0.8c0-0.1-0.3-0.1-0.4,0l-1.4,0.3h-0.1l-0.2,11.8l0,0h0h0.1l1.4-0.3c0.1,0,0.4,0,0.4,0l0.7,0.8
	c0,0,0.3,0.1,0.4,0l1.4-0.3c0.2,0,0.4,0,0.4,0l0.5-0.2c0,0.1,0.4,0.1,0.5,0l0.1-0.1c0.1,0,0.4,0,0.5,0l1.2,0.7
	c0.1,0.1,0.5-0.9,0.5-1v-0.3c0-0.1,0.4-0.1,0.5,0l2.5,1.2c0.1,0,0.3,0,0.4,0l0.5-0.2c0.1,0,0.4,0,0.5,0l1,0.8c0.1,0.1,0.4,0.1,0.5,0
	l1.5-1c0.1-0.1,0.4-0.1,0.5,0l0.2,0.1c0.1,0.1,0.5,0,0.5,0V202c0-0.1,0.2-0.1,0.4-0.1l0.9,0.2l0.3,0.1l0.3-0.1c0-0.1,0.3-0.1,0.5,0
	l1.6,0.5c0.1,0,0.4,0,0.4,0l1-0.7c0.1-0.1,0.4-0.1,0.5,0c0.1,0.1,0.5,0,0.5,0h0.1c0-0.1,0.4-0.1,0.5,0l1.3,0.7c0.1,0.1,0.5,0,0.5,0
	l0.2-0.5c0,0,0.2-0.1,0.4-0.1l0.6,0.1l-0.2,10.3l-0.4-0.1c-0.2,0-0.4,0-0.4,0.1l-0.3,0.7l-1.7-0.9c-0.1-0.1-0.5,0-0.5,0l-0.1,1.1
	c0,0.1-0.4,0.1-0.5,0c-0.1-0.1-0.4-0.1-0.5,0l-1,0.7c-0.1,0-0.4-0.9-0.5-0.9l-1.6-0.5c-0.2-0.1-0.5,0-0.5,0l0.3,1.1h-0.1l-1.7-0.2
	c-0.2,0-0.4,0-0.4,0.1v0.7l-0.7-0.4c-0.1-0.1-0.3-1.3-0.4-1.2l-1.7,1.1h-0.1l-1.2-1c-0.1-0.1-0.3-0.1-0.5,0l-0.5,0.2
	c-0.1,0-0.3,0-0.4,0l-2.7,0.4c-0.1-0.1-0.5,0-0.5,0v0.3c0,0.1-0.4,0.1-0.5,0l-1.2-0.7c-0.1-0.1-0.4-0.1-0.5,0l-0.1,0.1
	c-0.1,0.1-0.4,0-0.5,0l-0.5-0.9c0-0.1-0.3-0.1-0.4,0l-1,1c-0.2,0-0.4,0-0.4,0l-0.7-0.8c0-0.1-0.3-0.1-0.4,0l-1.4,0.3h-0.1l-0.2,11.8
	h0.1l1.4-0.3c0.1,0,0.4,0,0.4,0l0.7,0.8c0,0,0.3,0.1,0.4,0l1.4-0.3c0.2,0,0.4,0,0.4,0l0.5-0.2c0,0.1,0.4,0.1,0.5,0l0.1-0.1
	c0.1,0,0.4,0,0.5,0l1.2,0.7c0.1,0.1,0.5-0.9,0.5-1v-0.3c0-0.1,0.4-0.1,0.5,0l2.5,1.2c0.1,0,0.3,0,0.4,0l0.5-0.2c0.1,0,0.4,0,0.5,0
	l1,0.8c0.1,0.1,0.4,0.1,0.5,0l1.5-1c0.1-0.1,0.4-0.1,0.5,0l0.2,0.1c0.1,0.1,0.5,0,0.5,0v-0.4c0-0.1,0.2-0.1,0.4-0.1l0.9,0.2l0.3,0.1
	l0.3-0.1c0-0.1,0.3-0.1,0.5,0l1.6,0.5c0.1,0,0.4,0,0.4,0l1-0.7c0.1-0.1,0.4-0.1,0.5,0c0.1,0.1,0.5,0,0.5,0h0.1c0-0.1,0.4-0.1,0.5,0
	l1.3,0.7c0.1,0.1,0.5,0,0.5,0l0.2-0.5c0-0.1,0.2-0.1,0.4-0.1l0.6,0.1l-0.2,10.3l-0.4-0.1c-0.2,0-0.4,0-0.4,0.1l-0.3,0.7l-1.7-0.9
	c-0.1-0.1-0.5,0-0.5,0l-0.1,1.1c0,0.1-0.4,0.1-0.5,0c-0.1-0.1-0.4-0.1-0.5,0l-1,0.7c-0.1,0-0.4-0.9-0.5-0.9l-1.6-0.5
	c-0.2-0.1-0.5,0-0.5,0l0.3,1.1h-0.1l-1.7-0.2c-0.2,0-0.4,0-0.4,0.1v0.7l-0.7-0.4c-0.1-0.1-0.3-1.3-0.4-1.2l-1.7,1.1h-0.1l-1.2-1
	c-0.1-0.1-0.3-0.1-0.5,0l-0.5,0.2c-0.1,0-0.3,0-0.4,0l-2.7,0.4c-0.1-0.1-0.5,0-0.5,0v0.3c0,0.1-0.4,0.1-0.5,0l-1.2-0.7
	c-0.1-0.1-0.4-0.1-0.5,0l-0.1,0.1c-0.1,0.1-0.4,0-0.5,0l-0.5-0.9c0-0.1-0.3-0.1-0.4,0l-1,1c-0.2,0-0.4,0-0.4,0l-0.7-0.8
	c0-0.1-0.3-0.1-0.4,0l-1.4,0.3h-0.1l-0.2,11.2l0,0.6h0.1l0.2,0l1.2-0.3c0.1,0,0.4,0,0.4,0l0.3,0.4h2.8l0.2-0.1c0,0.1,0.4,0.1,0.5,0
	l0.1-0.1c0.1,0,0.4,0,0.5,0l0.3,0.2h1.2c0.1-0.2,0.2-0.5,0.2-0.5v-0.3c0-0.1,0.4-0.1,0.5,0l1.7,0.8h5.2c0.1-0.1,0.4-0.1,0.5,0h0.7
	v-0.3c0-0.1,0.2-0.1,0.4-0.1l0.9,0.2l0.3,0.1l0.3-0.1c0-0.1,0.3-0.1,0.5,0l0.6,0.2h1.8l0.6-0.4c0.1-0.1,0.4-0.1,0.5,0
	c0.1,0.1,0.5,0,0.5,0h0.1c0-0.1,0.4-0.1,0.5,0l0.7,0.4h1.2l0.1-0.2c0-0.1,0.2-0.1,0.4-0.1l0.6,0.1l0,0.2h1.2v-1.6l-0.6,0.1V235h-0.1
	h-0.2l0.7-0.2c0,0,0.1,0,0.2,0v-11.6l-0.6,0.1v-10.4h-0.1h-0.2l0.7-0.2c0,0,0.1,0,0.2,0v-12l-0.6,0.1v-10.4h-0.1h-0.2l0.7-0.2
	c0,0,0.1,0,0.2,0v-11.7l-0.6,0.1v-10.4h-0.1h-0.2l0.7-0.2c0,0,0.1,0,0.2,0v-12.1l-0.5,0.1v-10.1v-0.3h-0.1h-0.2L606.3,145.4
	C606.2,145.4,606.3,145.4,606.3,145.4z"/>
<path d="M489.5,164.9h0.1c0,0.1,0.4,0.1,0.5,0c0.1-0.1,0.4-0.1,0.5,0l1,0.7c0.1,0,0.3,0.1,0.4,0l1.6-0.5c0.2-0.1,0.5,0,0.5,0
	l0.3,0.1l0.3-0.1l0.9-0.2c0.2,0,0.4,0,0.4,0.1v0.4c0,0.1,0.4,0.1,0.5,0l0.2-0.1c0.1-0.1,0.4-0.1,0.5,0l1.5,1c0.1,0.1,0.4,0.1,0.5,0
	l1-0.8c0.1-0.1,0.3-0.1,0.5,0l0.5,0.2c0.1,0,0.3,0,0.4,0l2.5-1.2c0.1-0.1,0.5,0,0.5,0v0.3c0,0.1,0.4,1.1,0.5,1l1.2-0.7
	c0.1-0.1,0.4-0.1,0.5,0l0.1,0.1c0.1,0.1,0.4,0,0.5,0l0.5,0.2c0-0.1,0.3-0.1,0.4,0l1.4,0.3c0.2,0,0.4,0,0.4,0l0.7-0.8
	c0-0.1,0.3-0.1,0.4,0l1.4,0.3h0.1l-0.2-11.8h-0.1l-1.4-0.3c-0.1,0-0.4,0-0.4,0l-0.7,0.8c0,0-0.3,0.1-0.4,0l-1-1c-0.2,0-0.4,0-0.4,0
	l-0.5,0.9c0,0.1-0.4,0.1-0.5,0l-0.1-0.1c-0.1,0-0.4,0-0.5,0l-1.2,0.7c-0.1,0.1-0.5,0-0.5,0v-0.3c0-0.1-0.4-0.1-0.5,0l-2.7-0.4
	c-0.1,0-0.3,0-0.4,0l-0.5-0.2c-0.1,0-0.4,0-0.5,0l-1.2,1h-0.1l-1.7-1.1c-0.1-0.1-0.3,1.2-0.4,1.2l-0.7,0.4v-0.7
	c0-0.1-0.2-0.1-0.4-0.1l-1.7,0.2h-0.1l0.3-1.1c0-0.1-0.3-0.1-0.5,0l-1.6,0.5c-0.1,0-0.4,1-0.5,0.9l-1-0.7c-0.1-0.1-0.4-0.1-0.5,0
	c-0.1,0.1-0.5,0-0.5,0l-0.1-1.1c0-0.1-0.4-0.1-0.5,0v12C489.1,164.8,489.5,164.9,489.5,164.9z"/>
<path d="M489.5,187.2h0.1c0,0.1,0.4,0.1,0.5,0c0.1-0.1,0.4-0.1,0.5,0l1,0.7c0.1,0,0.3,0.1,0.4,0l1.6-0.5c0.2-0.1,0.5,0,0.5,0
	l0.3,0.1l0.3-0.1l0.9-0.2c0.2,0,0.4,0,0.4,0.1v0.4c0,0.1,0.4,0.1,0.5,0l0.2-0.1c0.1-0.1,0.4-0.1,0.5,0l1.5,1c0.1,0.1,0.4,0.1,0.5,0
	l1-0.8c0.1-0.1,0.3-0.1,0.5,0l0.5,0.2c0.1,0,0.3,0,0.4,0l2.5-1.2c0.1-0.1,0.5,0,0.5,0v0.3c0,0.1,0.4,1.1,0.5,1l1.2-0.7
	c0.1-0.1,0.4-0.1,0.5,0l0.1,0.1c0.1,0.1,0.4,0,0.5,0l0.5,0.2c0-0.1,0.3-0.1,0.4,0l1.4,0.3c0.2,0,0.4,0,0.4,0l0.7-0.8
	c0-0.1,0.3-0.1,0.4,0l1.4,0.3h0.1l-0.2-11.8h-0.1l-1.4-0.3c-0.1,0-0.4,0-0.4,0l-0.7,0.8c0,0-0.3,0.1-0.4,0l-1-1c-0.2,0-0.4,0-0.4,0
	l-0.5,0.9c0,0.1-0.4,0.1-0.5,0L507,176c-0.1,0-0.4,0-0.5,0l-1.2,0.7c-0.1,0.1-0.5,0-0.5,0v-0.3c0-0.1-0.4-0.1-0.5,0l-2.7-0.4
	c-0.1,0-0.3,0-0.4,0l-0.5-0.2c-0.1,0-0.4,0-0.5,0l-1.2,1h-0.1l-1.7-1.1c-0.1-0.1-0.3,1.2-0.4,1.2l-0.7,0.4v-0.7
	c0-0.1-0.2-0.1-0.4-0.1l-1.7,0.2h-0.1l0.3-1.1c0-0.1-0.3-0.1-0.5,0l-1.6,0.5c-0.1,0-0.4,1-0.5,0.9l-1-0.7c-0.1-0.1-0.4-0.1-0.5,0
	c-0.1,0.1-0.5,0-0.5,0l-0.1-1.1c0-0.1-0.4-0.1-0.5,0v12C489.1,187.1,489.5,187.2,489.5,187.2z"/>
<path d="M512.4,242.4l-1.4-0.3c-0.1,0-0.4,0-0.4,0l-0.7,0.8c0,0-0.3,0.1-0.4,0l-1-1c-0.2,0-0.4,0-0.4,0l-0.5,0.9
	c0,0.1-0.4,0.1-0.5,0l-0.1-0.1c-0.1,0-0.4,0-0.5,0l-1.2,0.7c-0.1,0.1-0.5,0-0.5,0v-0.3c0-0.1-0.4-0.1-0.5,0l-2.7-0.4
	c-0.1,0-0.3,0-0.4,0l-0.5-0.2c-0.1,0-0.4,0-0.5,0l-1.2,1h-0.1l-1.7-1.1c-0.1-0.1-0.3,1.2-0.4,1.2l-0.7,0.4v-0.7
	c0-0.1-0.2-0.1-0.4-0.1l-1.7,0.2h-0.1l0.3-1.1c0-0.1-0.3-0.1-0.5,0l-1.6,0.5c-0.1,0-0.4,1-0.5,0.9l-1-0.7c-0.1-0.1-0.4-0.1-0.5,0
	c-0.1,0.1-0.5,0-0.5,0l-0.1-1.1c0-0.1-0.4-0.1-0.5,0v5h23.6L512.4,242.4L512.4,242.4z"/>
<path d="M512.4,220.1l-1.4-0.3c-0.1,0-0.4,0-0.4,0l-0.7,0.8c0,0-0.3,0.1-0.4,0l-1-1c-0.2,0-0.4,0-0.4,0l-0.5,0.9
	c0,0.1-0.4,0.1-0.5,0l-0.1-0.1c-0.1,0-0.4,0-0.5,0l-1.2,0.7c-0.1,0.1-0.5,0-0.5,0V221c0-0.1-0.4-0.1-0.5,0l-2.7-0.4
	c-0.1,0-0.3,0-0.4,0l-0.5-0.2c-0.1,0-0.4,0-0.5,0l-1.2,1h-0.1l-1.7-1.1c-0.1-0.1-0.3,1.2-0.4,1.2l-0.7,0.4v-0.7
	c0-0.1-0.2-0.1-0.4-0.1l-1.7,0.2h-0.1l0.3-1.1c0-0.1-0.3-0.1-0.5,0l-1.6,0.5c-0.1,0-0.4,1-0.5,0.9l-1-0.7c-0.1-0.1-0.4-0.1-0.5,0
	c-0.1,0.1-0.5,0-0.5,0l-0.1-1.1c0-0.1-0.4-0.1-0.5,0v11.8c0.1-0.1,0.5,0,0.5,0h0.1c0,0.1,0.4,0.1,0.5,0c0.1-0.1,0.4-0.1,0.5,0l1,0.7
	c0.1,0,0.3,0.1,0.4,0l1.6-0.5c0.2-0.1,0.5,0,0.5,0l0.3,0.1l0.3-0.1l0.9-0.2c0.2,0,0.4,0,0.4,0.1v0.4c0,0.1,0.4,0.1,0.5,0l0.2-0.1
	c0.1-0.1,0.4-0.1,0.5,0l1.5,1c0.1,0.1,0.4,0.1,0.5,0l1-0.8c0.1-0.1,0.3-0.1,0.5,0l0.5,0.2c0.1,0,0.3,0,0.4,0l2.5-1.2
	c0.1-0.1,0.5,0,0.5,0v0.3c0,0.1,0.4,1.1,0.5,1l1.2-0.7c0.1-0.1,0.4-0.1,0.5,0l0.1,0.1c0.1,0.1,0.4,0,0.5,0l0.5,0.2
	c0-0.1,0.3-0.1,0.4,0l1.4,0.3c0.2,0,0.4,0,0.4,0l0.7-0.8c0-0.1,0.3-0.1,0.4,0l1.4,0.3h0.1L512.4,220.1L512.4,220.1z"/>
<path d="M489.5,142.6h0.1c0,0.1,0.4,0.1,0.5,0c0.1-0.1,0.4-0.1,0.5,0l1,0.7c0.1,0,0.3,0.1,0.4,0l1.6-0.5c0.2-0.1,0.5,0,0.5,0
	l0.3,0.1l0.3-0.1l0.9-0.2c0.2,0,0.4,0,0.4,0.1v0.1v0.3c0,0.1,0.4,0.1,0.5,0l0.2-0.1c0.1-0.1,0.4-0.1,0.5,0l1.5,1
	c0.1,0.1,0.4,0.1,0.5,0l1-0.8c0.1-0.1,0.3-0.1,0.5,0l0.5,0.2c0.1,0,0.3,0,0.4,0l2.5-1.2c0.1-0.1,0.5,0,0.5,0v0.3
	c0,0.1,0.4,1.1,0.5,1l1.2-0.7c0.1-0.1,0.4-0.1,0.5,0l0.1,0.1c0.1,0.1,0.4,0,0.5,0l0.5,0.2c0-0.1,0.3-0.1,0.4,0l1.4,0.3
	c0.2,0,0.4,0,0.4,0l0.7-0.8c0-0.1,0.3-0.1,0.4,0l1.4,0.3h0.1v-0.3l-0.2-11.8h-0.1l-1.4-0.3c-0.1,0-0.4,0-0.4,0l-0.7,0.8
	c0,0-0.3,0.1-0.4,0l-1-1c-0.2,0-0.4,0-0.4,0l-0.5,0.9c0,0.1-0.4,0.1-0.5,0l-0.1-0.1c-0.1,0-0.4,0-0.5,0l-1.2,0.7
	c-0.1,0.1-0.5,0-0.5,0v-0.3c0-0.1-0.4-0.1-0.5,0l-2.7-0.4c-0.1,0-0.3,0-0.4,0l-0.5-0.2c-0.1,0-0.4,0-0.5,0l-1.2,1h-0.1l-1.7-1.1
	c-0.1-0.1-0.3,1.2-0.4,1.2l-0.7,0.4V132v-0.3c0-0.1-0.2-0.1-0.4-0.1L494,132l0.2-0.7c0,0,0,0-0.1-0.1l0.1-0.3c0-0.1-0.3-0.1-0.5,0
	l-1.6,0.5c-0.1,0-0.4,1-0.5,0.9l-1-0.7c-0.1-0.1-0.4-0.1-0.5,0c-0.1,0.1-0.5,0-0.5,0l-0.1-1.1c0-0.1-0.4-0.1-0.5,0v12.1
	C489.1,142.5,489.5,142.6,489.5,142.6z"/>
<path d="M489.5,209.5h0.1c0,0.1,0.4,0.1,0.5,0c0.1-0.1,0.4-0.1,0.5,0l1,0.7c0.1,0,0.3,0.1,0.4,0l1.6-0.5c0.2-0.1,0.5,0,0.5,0
	l0.3,0.1l0.3-0.1l0.9-0.2c0.2,0,0.4,0,0.4,0.1v0.4c0,0.1,0.4,0.1,0.5,0l0.2-0.1c0.1-0.1,0.4-0.1,0.5,0l1.5,1c0.1,0.1,0.4,0.1,0.5,0
	l1-0.8c0.1-0.1,0.3-0.1,0.5,0l0.5,0.2c0.1,0,0.3,0,0.4,0l2.5-1.2c0.1-0.1,0.5,0,0.5,0v0.3c0,0.1,0.4,1.1,0.5,1l1.2-0.7
	c0.1-0.1,0.4-0.1,0.5,0l0.1,0.1c0.1,0.1,0.4,0,0.5,0l0.5,0.2c0-0.1,0.3-0.1,0.4,0l1.4,0.3c0.2,0,0.4,0,0.4,0l0.7-0.8
	c0-0.1,0.3-0.1,0.4,0l1.4,0.3h0.1l-0.2-11.8h-0.1l-1.4-0.3c-0.1,0-0.4,0-0.4,0l-0.7,0.8c0,0-0.3,0.1-0.4,0l-1-1c-0.2,0-0.4,0-0.4,0
	l-0.5,0.9c0,0.1-0.4,0.1-0.5,0l-0.1-0.1c-0.1,0-0.4,0-0.5,0l-1.2,0.7c-0.1,0.1-0.5,0-0.5,0v-0.3c0-0.1-0.4-0.1-0.5,0l-2.7-0.4
	c-0.1,0-0.3,0-0.4,0l-0.5-0.2c-0.1,0-0.4,0-0.5,0l-1.2,1h-0.1l-1.7-1.1c-0.1-0.1-0.3,1.2-0.4,1.2l-0.7,0.4v-0.7
	c0-0.1-0.2-0.1-0.4-0.1L494,199h-0.1l0.3-1.1c0-0.1-0.3-0.1-0.5,0l-1.6,0.5c-0.1,0-0.4,1-0.5,0.9l-1-0.7c-0.1-0.1-0.4-0.1-0.5,0
	c-0.1,0.1-0.5,0-0.5,0l-0.1-1.1c0-0.1-0.4-0.1-0.5,0v12C489.1,209.4,489.5,209.5,489.5,209.5z"/>
</svg>
