<?xml version="1.0" encoding="utf-8"?>
<!-- Generator: Adobe Illustrator 25.3.0, SVG Export Plug-In . SVG Version: 6.00 Build 0)  -->
<svg version="1.1" id="Layer_1" xmlns="http://www.w3.org/2000/svg" xmlns:xlink="http://www.w3.org/1999/xlink" x="0px" y="0px"
	 viewBox="0 0 170 80" style="enable-background:new 0 0 170 80;" xml:space="preserve">
<style type="text/css">
	.st0{fill:#FFFFFF;}
</style>
<g>
	<g>
		<path class="st0" d="M67.6630173,31.9017906c-0.0658493-0.0004196-0.0923462,0.0257416-0.1191788,0.104557l-0.7230988,1.878582
			c-0.1337357,0.3283691-0.2015991,0.6439552-0.2026062,0.8019905c-0.001503,0.2370224,0.1159134,0.409008,0.5241013,0.411602
			c0.0658569,0.0004196,0.1449051,0.0009232,0.1975632,0.0012589c0.1580353,0.0010033,0.1973267,0.0275841,0.1968231,0.1065674
			c-0.0006638,0.105381-0.0798187,0.1312065-0.2246552,0.1302834c-0.4213867-0.0026779-0.9874268-0.0458031-1.3956146-0.0484009
			c-0.1448364-0.0009193-0.8693542,0.0340004-1.5540848,0.0296478c-0.1712341-0.0010872-0.2500534-0.0279198-0.249382-0.133297
			c0.0005035-0.0789871,0.0796585-0.1048126,0.1850357-0.1041412c0.1185074,0.0007515,0.2766266-0.0114403,0.3820267-0.0239677
			c0.6062546-0.0751343,0.859314-0.5212555,1.1268539-1.1779861l3.3578033-8.2486553
			c0.1604691-0.3809223,0.2535706-0.5251751,0.3720779-0.5244217c0.1053162,0.0006695,0.1967468,0.1197662,0.3265228,0.4234772
			c0.3114014,0.7262707,2.3841705,6.1122952,3.2142181,8.1192684c0.492897,1.1883507,0.8735886,1.3750763,1.1497116,1.442688
			c0.1972427,0.0407829,0.394722,0.0552368,0.5527573,0.0562401c0.1053162,0.0006714,0.1710052,0.0274162,0.1705017,0.1064034
			c-0.0006714,0.1053772-0.1193466,0.1309547-0.6065903,0.1278572c-0.4740372-0.0030174-1.527504-0.0097122-2.5807953-0.0427399
			c-0.2369385-0.0147057-0.3027115-0.0283203-0.3022079-0.1073074c0.0004196-0.0658531,0.0533218-0.1049767,0.1851196-0.1173363
			c0.0923462-0.0257416,0.1852798-0.1436653,0.1204376-0.3021202l-1.0357208-2.7983589
			c-0.0259094-0.0660229-0.0652618-0.0926018-0.1311188-0.0930214L67.6630173,31.9017906z M70.3535538,31.2604637
			c0.0657883,0.0004196,0.0792313-0.0390244,0.0662918-0.0786343l-1.1644287-3.2601051
			c-0.0387726-0.118763-0.0911789-0.158556-0.1448364-0.0009212l-1.2320938,3.231739
			c-0.0135345,0.0525723-0.0005875,0.0921822,0.0520706,0.0925159L70.3535538,31.2604637z"/>
		<path class="st0" d="M78.8714828,31.5911789c-0.0107193,1.6855431-0.0164948,2.5940971,0.2584763,2.8329468
			c0.2226334,0.1989174,0.5644455,0.2932739,1.5915146,0.2998047c0.6979294,0.0044403,1.211586-0.0054932,1.543045-0.3589325
			c0.1591263-0.1701622,0.3195114-0.5378876,0.3474274-0.7879372c0.0138855-0.1184273,0.0407791-0.1972427,0.1460953-0.1965752
			c0.0921783,0.0005875,0.1049576,0.0665245,0.1039581,0.2245636c-0.0009232,0.1448364-0.0993881,1.1318588-0.2071915,1.5130501
			c-0.0808258,0.2892418-0.1471024,0.3546104-0.8318329,0.3502541c-1.2115021-0.0077019-2.4225006-0.0943871-3.8314896-0.1033478
			c-0.5267029-0.0033493-1.0669174,0.0327454-1.6594696,0.0289764c-0.1711655-0.0010872-0.263092-0.0411987-0.2625122-0.1333809
			c0.0004196-0.0658531,0.0533295-0.1049767,0.2113647-0.1039734c0.1974945,0.001255,0.3556976-0.0241356,0.4743805-0.0497093
			c0.2636795-0.0509834,0.3313751-0.3402405,0.3864594-0.7218323c0.0693741-0.5526085,0.0759888-1.5929413,0.0836868-2.8043728
			l0.01474-2.3176193c0.0127258-2.0016136,0.0150681-2.3703423-0.0085831-2.7918949
			c-0.0234833-0.4478817-0.127449-0.6592426-0.5614471-0.7541885c-0.105217-0.0269985-0.2630997-0.041132-0.4343338-0.0422211
			c-0.1448364-0.0009212-0.2236557-0.0278187-0.2230682-0.1199341c0.0005875-0.0921822,0.0929337-0.1179924,0.2904282-0.1167355
			c0.6189499,0.0039349,1.4482727,0.0487347,1.8038025,0.0509949c0.3160706,0.0020103,1.2776031-0.0314045,1.7911682-0.0281391
			c0.1843643,0.001173,0.2763824,0.0281544,0.275795,0.1203365c-0.0005875,0.0921154-0.0798035,0.1180077-0.2378387,0.1170044
			c-0.1448441-0.0009212-0.3556137,0.0108681-0.5138245,0.0361919c-0.3559494,0.0635929-0.4626846,0.2868156-0.4919434,0.7474918
			c-0.029007,0.421217-0.0313492,0.7899456-0.044075,2.7915592L78.8714828,31.5911789z"/>
		<path class="st0" d="M85.799408,29.3175144c0.0127258-2.0016136,0.0150757-2.3703423-0.0085754-2.7918949
			c-0.0234833-0.4478817-0.1274567-0.6592426-0.5614548-0.7541885c-0.1052094-0.0269985-0.328949-0.0415516-0.5133133-0.0427246
			c-0.1448364-0.0009193-0.2237244-0.0278187-0.2231369-0.1199322c0.0005875-0.0921841,0.0929337-0.1179924,0.2904968-0.1167374
			c0.697937,0.0044384,1.5272522,0.0492382,1.7906036,0.0509129c0.6452789,0.0041027,1.1590958-0.0321579,1.6068115-0.0293121
			c2.3834686,0.0151558,2.79673,1.295187,2.7922974,1.9931202c-0.0068665,1.0797901-0.6299133,1.7210636-1.3578644,2.2958813
			c1.0775146,0.3755951,2.3883896,1.3189201,2.3785934,2.859623c-0.0089645,1.4089928-1.1112442,2.8636932-3.5341721,2.8482895
			c-0.605751-0.0038528-1.2109985-0.086689-1.9089355-0.0911255c-0.5266953-0.0033493-1.0669098,0.0327454-1.659462,0.0289764
			c-0.1711655-0.0010872-0.2630997-0.0411987-0.2625122-0.1333809c0.0004196-0.0658531,0.0533295-0.1049767,0.2113647-0.1039734
			c0.1974945,0.001255,0.3820267-0.0239677,0.5007858-0.0626717c0.2507248-0.0774612,0.3049698-0.3272781,0.360054-0.7088699
			c0.0693665-0.5526085,0.0759811-1.5929413,0.0836868-2.8043728L85.799408,29.3175144z M87.3782196,29.551384
			c-0.0006714,0.105381,0.03862,0.1319599,0.0912552,0.1454258c0.1183472,0.0270805,0.3157578,0.0415344,0.6186295,0.0434608
			c0.4345856,0.0027618,0.7245941-0.0480518,0.9497452-0.2441902c0.3440933-0.2743702,0.5446701-0.7471561,0.5487671-1.3923645
			c0.0056076-0.8822956-0.5005875-2.0443363-1.6331024-2.0515385c-0.1842957-0.0011711-0.3028793-0.0019245-0.4346848,0.0235653
			c-0.0923462,0.0257435-0.1190109,0.0782318-0.1199341,0.2230701L87.3782196,29.551384z M87.3668289,31.3423061
			c-0.0039368,0.6188793-0.0094604,1.487978-0.013649,2.1463833c-0.0055237,0.8690987,0.0325089,1.0932426,0.4528122,1.267086
			c0.3546753,0.1471672,0.6574631,0.1622238,0.9602737,0.1641502c0.5926208,0.0037689,1.5954361-0.3058739,1.6041412-1.6754112
			c0.0051956-0.8164406-0.2643204-1.9243202-1.2606888-2.6286144c-0.2752914-0.1992531-0.5775833-0.2933617-1.0909805-0.3229542
			c-0.2369385-0.0147057-0.368576-0.015543-0.5661392-0.016798c-0.0526581-0.0003357-0.079155,0.0258255-0.0795746,0.0916786
			L87.3668289,31.3423061z"/>
		<path class="st0" d="M95.4648056,29.3789673c0.0127258-2.0016136,0.0150757-2.3703423-0.0085754-2.7918949
			c-0.0234833-0.4478817-0.1537704-0.6725407-0.4430237-0.7402382c-0.1445923-0.0404453-0.3156738-0.0546646-0.4737091-0.0556698
			c-0.1317062-0.0008373-0.2105255-0.0277348-0.2098541-0.1330471c0.0005035-0.0789852,0.1059799-0.1047115,0.3166733-0.1033707
			c0.5004425,0.0031815,1.3297577,0.0479813,1.7116165,0.0504093c0.3292084,0.0020924,1.1064453-0.0324936,1.6067429-0.0293121
			c0.1712341,0.0010891,0.2763824,0.0281544,0.2758789,0.1071396c-0.0006714,0.1053123-0.0798874,0.1312046-0.2114639,0.1303692
			c-0.1317062-0.0008373-0.2371063,0.0116234-0.3953781,0.0369453c-0.3558807,0.0635948-0.4627533,0.2868137-0.4919434,0.7474899
			c-0.0290756,0.4212189-0.0314178,0.7899475-0.0441437,2.7915611l-0.0147324,2.3176193
			c-0.0081253,1.2772846-0.01474,2.3176174,0.034317,2.8841763c0.0372696,0.3557854,0.1279449,0.5933914,0.522728,0.6485596
			c0.1842041,0.0275002,0.4737091,0.0557365,0.6712036,0.0569916c0.1448364,0.0009232,0.2103729,0.0407982,0.2099533,0.1066513
			c-0.0005798,0.0921822-0.1061478,0.1310387-0.2509842,0.1301193c-0.8690338-0.0055237-1.6984177-0.0503273-2.0540237-0.0525856
			c-0.302803-0.0019264-1.1326294,0.0323257-1.6593933,0.0289764c-0.1711655-0.0010872-0.2630997-0.0412025-0.2625122-0.1333847
			c0.0004196-0.0658531,0.0533295-0.1049767,0.2113647-0.1039734c0.1974945,0.0012589,0.3556976-0.0241318,0.4743729-0.0497093
			c0.2636871-0.0509796,0.344162-0.2742996,0.3860474-0.6559753c0.0693741-0.5526085,0.0759888-1.5929413,0.0841064-2.8702278
			L95.4648056,29.3789673z"/>
		<path class="st0" d="M100.6455688,30.5707302c0.0143204-2.2517662,1.5208664-5.1524754,5.4714355-5.1273575
			c3.2789001,0.0208473,5.3077698,1.9431877,5.2885971,4.9587383s-2.1412582,5.3856277-5.485939,5.3643646
			C102.1403198,35.7424469,100.6307526,32.9015465,100.6455688,30.5707302z M109.5589905,30.8776302
			c0.0187531-2.9496975-1.6682816-4.7908764-3.8279953-4.8046074c-1.5143051-0.0096283-3.2447357,0.8221741-3.2655792,4.1010742
			c-0.0174179,2.7390041,1.483078,4.9213428,4.0115204,4.9374218
			C107.3986282,35.1173782,109.5347977,34.6832275,109.5589905,30.8776302z"/>
		<path class="st0" d="M114.9105759,25.907486c0.0016708-0.2633476,0.0422363-0.4474621,0.1739426-0.4466248
			c0.1448441,0.0009212,0.2623291,0.172842,0.4847183,0.4112854c0.1568756,0.1722393,2.1448441,2.3313503,4.0552673,4.253006
			c0.8897324,0.9011192,2.7207642,2.8749275,2.9433136,3.0870438l-0.0936966-5.9792156
			c-0.0080185-0.8033962-0.1248703-1.0542984-0.4401093-1.1880169c-0.196991-0.0802402-0.5130615-0.0822506-0.6974258-0.0834217
			c-0.1581039-0.0010052-0.2105103-0.0408669-0.2100067-0.1198502c0.0006638-0.105381,0.1455917-0.1176586,0.3432236-0.1164017
			c0.6846619,0.0043526,1.3165588,0.0478992,1.5931015,0.0496578c0.1448441,0.0009193,0.6455307-0.0354233,1.2906723-0.0313225
			c0.1712341,0.0010891,0.3028564,0.0151234,0.3021851,0.1205044c-0.0005035,0.0789852-0.0798035,0.1180077-0.2377701,0.1170025
			c-0.1317139-0.0008373-0.2370224-0.0015068-0.3953781,0.0369473c-0.3694,0.103035-0.4764709,0.378912-0.4942856,1.1162205
			c-0.0703278,2.7781944-0.1273499,5.5300789-0.19767,8.3082733c-0.0018463,0.2896767-0.0552521,0.4078522-0.1738281,0.4070969
			c-0.1448441-0.0009193-0.3018875-0.1467628-0.4458084-0.2925224c-0.8246155-0.7953873-2.4991913-2.531105-3.8600311-3.8961487
			c-1.4263535-1.4313202-2.9168091-3.1264057-3.1522369-3.37813l0.1094208,5.5711117
			c0.0197296,1.0273018,0.1887894,1.3707924,0.4516144,1.4646492c0.2233887,0.0804062,0.4734573,0.0951958,0.684082,0.0965347
			c0.1448364,0.0009193,0.2237244,0.0277519,0.2232208,0.1067352c-0.0006714,0.105381-0.119278,0.1309547-0.3036423,0.1297836
			c-0.856041-0.0054436-1.3824844-0.048317-1.632637-0.0499077c-0.118576-0.0007553-0.737709,0.0348358-1.4225082,0.0304832
			c-0.1710968-0.0010872-0.2895966-0.0150414-0.2888412-0.1335487c0.0005035-0.0789871,0.0797195-0.1048126,0.2114334-0.1039734
			c0.1710968,0.0010872,0.4082031-0.0106049,0.5929031-0.062088c0.343132-0.1032028,0.3982162-0.484726,0.4186325-1.630291
			C114.7997055,30.9109516,114.8730469,27.6587143,114.9105759,25.907486z"/>
	</g>
	<g>
		<path class="st0" d="M65.6872482,58.1849098c-0.0909805-0.0397034-0.1102982-0.0788765-0.1095886-0.1896057
			c0.0021133-0.3322487,0.0237427-0.6578064,0.0308609-0.755497c0.0070724-0.0911942,0.0269699-0.1431847,0.0725861-0.1428947
			c0.0521164,0.0003319,0.0583191,0.04599,0.0645981,0.0916481c0.0060425,0.0716476,0.0054169,0.1693802,0.0373917,0.2608223
			c0.1146011,0.4241638,0.4717178,0.6023445,0.8430939,0.6047058c0.5211411,0.003315,0.7576218-0.3144493,0.7594452-0.6010132
			c0.0016556-0.2605743-0.0748749-0.5086517-0.5547333-0.8635254l-0.2723083-0.2101974
			c-0.6417694-0.4926262-0.8478622-0.8652534-0.8449631-1.3212891c0.003891-0.6123848,0.5344391-1.0649986,1.3487091-1.0598221
			c0.2605743,0.0016556,0.4167175,0.0352058,0.5794601,0.0622978c0.0910797,0.0136414,0.1691284,0.0336342,0.2341995,0.0406113
			c0.0520706,0.0068283,0.0649033,0.0329704,0.0646515,0.0720901c-0.0005798,0.0911674-0.027565,0.247345-0.0303802,0.6903191
			c-0.0007858,0.1237907-0.0206375,0.1692162-0.066185,0.1689262c-0.0391159-0.000248-0.0584335-0.0394249-0.064476-0.1111412
			c-0.0060425-0.0716476-0.0441666-0.228241-0.1280441-0.3525696c-0.0967789-0.1504669-0.2782745-0.2949104-0.6495743-0.2972717
			c-0.4299774-0.0027313-0.6789856,0.2301445-0.681015,0.5493965c-0.0015335,0.2410126,0.1143951,0.4567184,0.581398,0.7788849
			l0.1815491,0.1249504c0.7264557,0.4997292,0.9585953,0.885582,0.955246,1.4132271
			c-0.0021591,0.3387489-0.1479492,0.7221985-0.5665207,0.9801216c-0.2942505,0.1740417-0.6267929,0.2175446-0.9264832,0.215641
			C66.1944275,58.3314896,65.9340973,58.2907104,65.6872482,58.1849098z"/>
		<path class="st0" d="M70.4840088,56.8473701c0.0018692-0.2931938-0.0559616-0.4172897-0.1330261-0.5806961
			c-0.0708313-0.1437378-0.7930679-1.3079643-0.9931641-1.602375c-0.1549377-0.2224503-0.2779999-0.3274651-0.4079361-0.3934708
			c-0.0649033-0.0329704-0.1428452-0.0595245-0.208046-0.0665054c-0.0454788-0.0002861-0.0974731-0.0201111-0.0972214-0.0592308
			c0.000206-0.0325546,0.0263596-0.0584488,0.0979691-0.057991c0.1303558,0.0008278,0.5732727,0.0232048,0.7686005,0.0244446
			c0.1107254,0.0007057,0.3714218-0.0171967,0.6451263-0.0154572c0.0586166,0.0003738,0.0909805,0.0201378,0.0907745,0.0526924
			c-0.0002136,0.0325546-0.0198288,0.0519905-0.1046906,0.0710144c-0.0716858,0.0125389-0.1175156,0.0448036-0.1178055,0.0904198
			c-0.0002899,0.04562,0.0254669,0.1043968,0.0704498,0.1828575c0.0771637,0.1699066,0.850563,1.4842415,0.9408035,1.6411667
			c0.1186752-0.227272,0.7704544-1.3110199,0.8563538-1.4929504c0.0594025-0.1233482,0.0861435-0.2209129,0.0866013-0.2925911
			c0.0003357-0.0521126-0.0255051-0.0978279-0.1360626-0.1246567c-0.0520325-0.0133286-0.1040268-0.0332184-0.1038132-0.065773
			c0.0002441-0.0391197,0.0263138-0.0519485,0.1045609-0.0514526c0.2019577,0.0012856,0.3841705,0.0220032,0.5601425,0.0231209
			c0.1172256,0.0007477,0.5081406-0.0163269,0.6190033-0.015625c0.0651093,0.0004158,0.1106033,0.0202637,0.1103973,0.0528183
			c-0.0002518,0.0391197-0.0460358,0.0648193-0.117775,0.0643654c-0.0520248,0.0062332-0.1563339,0.0185661-0.247818,0.057106
			c-0.1242294,0.0578232-0.1897125,0.116024-0.3078461,0.2586288c-0.1903763,0.220253-1.0064545,1.5310478-1.1056824,1.7649422
			c-0.0860596,0.2079201-0.0872192,0.3903236-0.0882111,0.546669l-0.0028152,0.4429741
			c-0.0005798,0.0911674-0.0019913,0.3126869,0.0096893,0.5407906c0.012001,0.1564293,0.0501556,0.2868958,0.2325058,0.3076134
			c0.08461,0.0200996,0.2018356,0.0208473,0.2865295,0.0278816c0.0651093,0.0004158,0.0973892,0.0332451,0.0972214,0.0592346
			c-0.0002441,0.0391197-0.0328598,0.0584717-0.104599,0.0580139c-0.3712997-0.0023575-0.7684708-0.0244446-0.9313126-0.0254822
			c-0.1433487-0.0009079-0.5279007,0.0162048-0.7428589,0.0148392c-0.0846024-0.0005379-0.1301346-0.0138893-0.1298447-0.0595093
			c0.0001602-0.0259895,0.032814-0.0519066,0.0914688-0.058033c0.0652847-0.0060806,0.1368942-0.0056267,0.1891327-0.0248528
			c0.1304779-0.018734,0.1898346-0.1355858,0.1973724-0.2983856c0.0209808-0.2343903,0.0223923-0.4559135,0.0229721-0.547081
			L70.4840088,56.8473701z"/>
		<path class="st0" d="M73.6740799,58.2356873c-0.0909882-0.0396996-0.1102295-0.0788727-0.1095276-0.1896019
			c0.0021133-0.3322487,0.023674-0.6578064,0.0307922-0.755497c0.0070801-0.0911942,0.0270386-0.1431847,0.0725174-0.1428947
			c0.0522537,0.0003319,0.0584641,0.04599,0.0646667,0.0916481c0.0060425,0.0716476,0.0054245,0.1693802,0.0373306,0.2608223
			c0.1146698,0.42416,0.4718552,0.6023445,0.8431549,0.6047058c0.5211487,0.0033112,0.7576294-0.3144493,0.7594452-0.6010132
			c0.0016632-0.2605743-0.0748672-0.5086517-0.5547943-0.8635254l-0.2722473-0.2101974
			c-0.6417618-0.4926262-0.8478622-0.8652534-0.8449631-1.3212891c0.0038986-0.6123848,0.5344391-1.0649986,1.3487854-1.0598221
			c0.2605743,0.0016556,0.4167099,0.0352058,0.5793839,0.0622978c0.091156,0.0136414,0.169136,0.0336304,0.2341995,0.0406113
			c0.0520782,0.0068283,0.0650406,0.0329704,0.0647888,0.0720901c-0.0005798,0.0911674-0.0276947,0.247345-0.0305099,0.6903191
			c-0.0007858,0.1237907-0.0205688,0.1692162-0.066185,0.1689262c-0.0391235-0.000248-0.0583649-0.0394249-0.0645447-0.1111412
			c-0.0060425-0.0716476-0.0440292-0.228241-0.1279831-0.3525696c-0.0967789-0.1504669-0.2781982-0.2949104-0.6495056-0.2972717
			c-0.4300461-0.0027313-0.6791153,0.2301407-0.6811447,0.5493965c-0.0015335,0.2410126,0.1144638,0.4567146,0.5814667,0.7788849
			l0.1815414,0.1249466c0.7264633,0.4997292,0.9586029,0.8855858,0.955246,1.4132309
			c-0.0021515,0.3387451-0.1479416,0.7221985-0.5665207,0.9801216c-0.2943115,0.1740417-0.6267853,0.2175446-0.9264755,0.215641
			C74.1811829,58.382267,73.9209976,58.3414917,73.6740799,58.2356873z"/>
		<path class="st0" d="M79.0974274,56.7327232c-0.0031433,0.4950905-0.0059204,0.9315681,0.0185394,1.1727486
			c0.0186691,0.149971,0.0505066,0.2738991,0.2262192,0.2945786c0.0780182,0.0135574,0.195343,0.0208015,0.2798996,0.0278358
			c0.0652466,0.0004158,0.0975647,0.02668,0.0974045,0.0527382c-0.0002518,0.0391197-0.0395355,0.0649261-0.1176376,0.0644302
			c-0.3778-0.0023994-0.7751007-0.0244865-0.9184494-0.0253983c-0.1302261-0.0008278-0.527771,0.0162048-0.7492294,0.0147972
			c-0.0782394-0.0004997-0.1170578-0.0268021-0.116806-0.0659256c0.0001602-0.0260544,0.0263214-0.0519485,0.0980606-0.0514908
			c0.0781479-0.0060005,0.1432571-0.0055885,0.1954575-0.0182495c0.1240234-0.025341,0.1572495-0.1423569,0.1779175-0.3050728
			c0.0274811-0.2343521,0.0301285-0.6512718,0.0334015-1.1659203l0.014328-2.2539978
			c-0.2149506-0.0013695-0.6448669-0.0041008-0.9055634,0.0138016c-0.3324814,0.0239449-0.4302444,0.0493813-0.5093994,0.192234
			c-0.0395737,0.0714264-0.0528564,0.1168938-0.0793991,0.1819038c-0.0132446,0.0389709-0.0328979,0.0649033-0.0655212,0.0646935
			c-0.0391235-0.000248-0.0519104-0.0328827-0.0514908-0.0980606c0.0072403-0.1171837,0.1144104-0.5790558,0.1279984-0.6505814
			c0.0134888-0.0781555,0.033226-0.1170845,0.0658493-0.1168785c0.0456238,0.0002899,0.0974045,0.0527382,0.2405319,0.0667114
			c0.1563568,0.0204849,0.3907242,0.035038,0.5861893,0.0362816l2.3060455,0.0146637
			c0.1824722,0.0011597,0.3063126-0.0176163,0.3911362-0.0300713c0.0846863-0.0125237,0.1303864-0.0252953,0.1630096-0.0250893
			c0.0389786,0.000248,0.0454102,0.0329132,0.0447845,0.1306458c-0.0007019,0.1107254-0.0293961,0.5144157-0.030304,0.6577644
			c-0.0068741,0.0585709-0.0200729,0.0910454-0.0591965,0.0907936c-0.0456161-0.0002899-0.0519028-0.0328827-0.0579071-0.1110992
			c0.0001221-0.019558-0.0062103-0.0456581-0.0060425-0.0717163c-0.0121765-0.1498604-0.1479416-0.3005791-0.6300659-0.3101387
			c-0.1561203-0.0140572-0.3971634-0.0220871-0.7554245-0.0309296L79.0974274,56.7327232z"/>
		<path class="st0" d="M81.9895859,55.7739525c0.0053787-0.8468971,0.0063324-0.9967461-0.0055008-1.1792297
			s-0.0569992-0.2544479-0.2327194-0.2946205c-0.0520325-0.0133934-0.1431351-0.0139732-0.2213287-0.0209694
			c-0.0651093-0.000412-0.0976105-0.0201111-0.0973587-0.0592308c0.0002441-0.0391197,0.0394516-0.0518684,0.1306839-0.0512886
			c0.2735672,0.0017395,0.5340195,0.0229568,0.8207169,0.0247803c0.1758347,0.0011177,1.367981,0.0086975,1.4722519,0.0027962
			c0.1108093-0.012291,0.2086258-0.0246658,0.2607803-0.030899c0.0325241-0.0062904,0.0652771-0.0256424,0.0912628-0.0254784
			c0.0326233,0.000206,0.0389557,0.0263062,0.0387878,0.0523643c-0.0002441,0.0391197-0.0398636,0.1170425-0.0543518,0.3514748
			c-0.0071564,0.1041908-0.0143585,0.2148743-0.0284348,0.3841324c-0.000206,0.0326233-0.0135727,0.0911522-0.0658188,0.0908203
			c-0.0389862-0.000248-0.0517731-0.0328865-0.0579529-0.1046028c0.0001678-0.0260582,0.0007019-0.1107254-0.0313263-0.1826096
			c-0.0384598-0.1044769-0.0902023-0.1634216-0.3700562-0.1977577c-0.1106491-0.0137634-0.6969604-0.0305557-0.827179-0.0313835
			c-0.026123-0.0001678-0.039238,0.01931-0.0394897,0.0584297l-0.0085754,1.3484192
			c-0.0002441,0.0391197,0.0061264,0.0587234,0.0387497,0.0589294c0.1367188,0.0008698,0.7620926,0.0048447,0.9054871-0.0008087
			c0.1629181-0.0119591,0.2477798-0.0309792,0.3002701-0.0892601c0.0394516-0.0518646,0.065567-0.0712624,0.0916901-0.0710945
			c0.0259933,0.000164,0.0389023,0.0133095,0.0386963,0.0458641c-0.0002518,0.0391197-0.0270233,0.1626778-0.0483551,0.4296227
			c-0.0007019,0.1107941-0.0216827,0.3451881-0.0219727,0.3908043c-0.0002899,0.0455513-0.007164,0.1041908-0.0592728,0.1038589
			c-0.0391235-0.000248-0.0582428-0.0590515-0.0580368-0.0916061c-0.0061646-0.0521584-0.0059586-0.084713-0.0185394-0.149971
			c-0.0318375-0.1239319-0.096405-0.2090836-0.3243713-0.2300262c-0.1171417-0.0138054-0.6643677-0.0237846-0.8075867-0.0246925
			c-0.0326233-0.0002098-0.0392838,0.0258064-0.0394897,0.0583611l-0.0026932,0.4234161
			c-0.0011978,0.1889-0.0105972,0.6448975-0.0051804,0.8142776c0.0105515,0.3844452,0.0947571,0.4696541,0.6940079,0.473465
			c0.1498413,0.0009537,0.3909302,0.0024834,0.5346909-0.0617142c0.1502991-0.0707207,0.2161179-0.1810341,0.2632217-0.4152603
			c0.0133667-0.0585289,0.0265732-0.0910683,0.0721893-0.0907784s0.0452881,0.0524025,0.0449142,0.111084
			c-0.0009155,0.14328-0.049057,0.5404167-0.0823822,0.6509361c-0.0398941,0.1430359-0.0920105,0.142704-0.307106,0.1413345
			c-0.5666275-0.0036011-1.0550842-0.0392647-1.6348419-0.0429497c-0.2344513-0.0014915-0.4691544,0.0165787-0.7427216,0.0148392
			c-0.0782471-0.0004997-0.1171036-0.0203056-0.1168518-0.0594254c0.0001602-0.0259895,0.0198593-0.0584869,0.0979691-0.057991
			c0.0782776-0.0060005,0.1498871-0.0055466,0.2020798-0.0182076c0.1175308-0.0253792,0.1508026-0.1488953,0.1716766-0.3442345
			c0.0274353-0.227787,0.0301285-0.6512718,0.0331497-1.1268005L81.9895859,55.7739525z"/>
		<path class="st0" d="M90.3356857,57.6966591c0.0499268,0.3455772,0.1075821,0.4957962,0.2765884,0.5489883
			c0.1626892,0.0466537,0.2734146,0.0473557,0.3514786,0.0543518c0.0586166,0.00037,0.0976105,0.0201797,0.0974045,0.0527344
			c-0.0002899,0.0456161-0.0655289,0.0647621-0.1502609,0.0642242c-0.2084656-0.0013237-0.9379883-0.0190277-1.2440109-0.0470314
			c-0.1236801-0.0072823-0.162674-0.027092-0.162468-0.0596466c0.0001602-0.0260582,0.0264969-0.058445,0.0655594-0.0712585
			c0.0457458-0.0192032,0.059166-0.0647392,0.0341568-0.2408066l-0.3041077-2.3732529l-1.2664108,2.4544373
			c-0.1320572,0.2663078-0.1648331,0.3116531-0.2104492,0.3113632c-0.058609-0.0003738-0.1100616-0.1049347-0.2131348-0.2879295
			c-0.1481857-0.261528-0.5795059-1.0655861-0.676033-1.2551041c-0.0578308-0.1241646-0.3922958-0.8103752-0.5722275-1.1893311
			L86.0682373,57.7542c-0.0138245,0.1302719-0.0143204,0.2083778-0.0148621,0.2931137
			c-0.0007401,0.1172256,0.0640335,0.169754,0.1680984,0.196476c0.1041031,0.0202217,0.1758499,0.0206757,0.2409134,0.0275879
			c0.0521164,0.0003319,0.0844421,0.0265961,0.0842743,0.0526543c-0.0003357,0.0521126-0.0458984,0.064888-0.1306381,0.0643501
			c-0.2475739-0.0015755-0.5080261-0.0227928-0.6317444-0.0235786c-0.1172256-0.0007477-0.3975525,0.0170326-0.5863876,0.015831
			c-0.0521088-0.0003319-0.0976486-0.0136833-0.0973129-0.0657959c0.0001602-0.0260582,0.032814-0.0519104,0.0914307-0.0515366
			c0.0456543-0.0062065,0.0912704-0.0059166,0.1695557-0.0119171c0.169548-0.0315475,0.2164459-0.2331505,0.2503433-0.4544678
			l0.5763855-3.5532761c0.026825-0.1105614,0.0596466-0.1624718,0.1052628-0.1621819
			c0.0521164,0.0003319,0.0845337,0.0330963,0.1681824,0.1834106l1.557312,3.0392494l1.5829544-3.0583344
			c0.0591888-0.0907974,0.0855103-0.142746,0.1376266-0.1424141c0.058609,0.0003738,0.0908585,0.0591927,0.1095657,0.1830368
			L90.3356857,57.6966591z"/>
		<path class="st0" d="M91.7715836,58.3507538c-0.0909882-0.0396996-0.1102295-0.0788765-0.1095276-0.1896019
			c0.0021133-0.3322487,0.023674-0.6578102,0.0307922-0.7555008c0.0070801-0.0911942,0.0270386-0.1431847,0.0725174-0.1428947
			c0.0522537,0.0003319,0.0584564,0.04599,0.0646667,0.0916519c0.0060425,0.0716476,0.0054245,0.1693802,0.0373306,0.2608185
			c0.1146622,0.4241638,0.4718552,0.6023445,0.8431549,0.6047058c0.5211487,0.003315,0.7576294-0.3144493,0.7594452-0.6010132
			c0.0016556-0.2605743-0.0748749-0.5086479-0.5547943-0.8635216l-0.2722473-0.2102013
			c-0.6417618-0.4926262-0.8478622-0.8652496-0.8449631-1.3212891c0.003891-0.612381,0.5344391-1.0649986,1.3487854-1.0598221
			c0.2605743,0.0016594,0.4167099,0.0352058,0.5793839,0.0623016c0.091156,0.0136414,0.169136,0.0336304,0.2341995,0.0406075
			c0.0520782,0.0068283,0.0650406,0.0329704,0.0647888,0.0720901c-0.0005798,0.0911674-0.0276947,0.247345-0.0305099,0.6903229
			c-0.0007935,0.1237869-0.0205688,0.1692123-0.0661926,0.1689224c-0.0391159-0.000248-0.0583572-0.0394249-0.064537-0.1111412
			c-0.0060425-0.0716476-0.0440292-0.228241-0.1279831-0.3525696c-0.0967789-0.1504669-0.2782059-0.2949066-0.6495056-0.2972679
			c-0.4300461-0.0027351-0.6791153,0.2301407-0.6811447,0.5493927c-0.0015335,0.2410164,0.1144562,0.4567184,0.5814667,0.7788849
			l0.1815414,0.1249504c0.7264633,0.4997292,0.9586029,0.885582,0.955246,1.4132309
			c-0.0021515,0.3387451-0.1479492,0.7221947-0.5665207,0.9801178c-0.2943192,0.1740417-0.6267853,0.2175484-0.9264832,0.215641
			C92.2786865,58.4973335,92.0185013,58.4565582,91.7715836,58.3507538z"/>
		<path class="st0" d="M98.6347198,56.8569412c-0.0043488,0.6839905-0.0067902,1.0683517,0.1098099,1.166832
			c0.0906601,0.0917473,0.233757,0.1317787,0.6896591,0.1346741c0.2996979,0.0019073,0.5211945-0.0032501,0.6719055-0.13908
			c0.0786972-0.0711784,0.1512604-0.2205048,0.1717529-0.3571625c0.0133286-0.0520325,0.0201569-0.1041069,0.065773-0.103817
			s0.0518265,0.0458832,0.0514145,0.1110611c-0.0004578,0.0716057-0.0553894,0.5143166-0.102005,0.670372
			c-0.0399475,0.1299706-0.0660553,0.1493645-0.3527603,0.147541c-0.5797577-0.003685-1.107193-0.0395927-1.7195816-0.0434875
			c-0.2344437-0.0014915-0.4756546,0.0165367-0.7427216,0.0148392c-0.0782394-0.0004997-0.1235962-0.0203476-0.1233521-0.0594673
			c0.0001678-0.0259895,0.0328217-0.0519066,0.0979691-0.057991c0.071785-0.0060425,0.1368942-0.0056267,0.1825943-0.0183334
			c0.1370621-0.0317535,0.176712-0.1357346,0.1977005-0.3505669c0.0274429-0.2278519,0.0300903-0.6447716,0.0331192-1.1203003
			l0.0062103-0.9771194c0.0053864-0.8469009,0.0062103-0.9771843-0.005661-1.1531715
			c-0.0118408-0.1824875-0.0569153-0.2674446-0.2326431-0.3076172c-0.0453949-0.0133514-0.1235962-0.0203476-0.1951599-0.0273666
			c-0.0652466-0.0004158-0.1041031-0.020153-0.1038589-0.0592728c0.0002518-0.0390549,0.04599-0.0583229,0.1370926-0.0577431
			c0.2735672,0.0017357,0.6252518,0.0235329,0.7945938,0.0246124c0.1238556,0.0007858,0.5930099-0.0157928,0.8144684-0.0143852
			c0.0912323,0.0005798,0.1235962,0.0203476,0.1233444,0.0593987c-0.0002441,0.0391197-0.0328598,0.0584068-0.1110992,0.0579109
			c-0.0651474,0.0061493-0.1432571,0.0056534-0.2151184,0.0247574c-0.1565094,0.0249939-0.202713,0.1159401-0.2169495,0.3113213
			c-0.0141144,0.1757545-0.0149002,0.2995453-0.0203629,1.1594391L98.6347198,56.8569412z"/>
		<path class="st0" d="M101.6377335,55.8988762c0.0053864-0.8468971,0.006218-0.9771843-0.0056152-1.1596718
			c-0.0118408-0.1824837-0.06987-0.2740898-0.1935654-0.300869c-0.0585251-0.0134354-0.1300888-0.0203857-0.2017899-0.0274086
			c-0.0586166-0.00037-0.0909805-0.0200691-0.0906906-0.0656891c0.000206-0.0325546,0.0393143-0.0518646,0.1305542-0.0512848
			c0.227951,0.0014496,0.6187515,0.0234947,0.7621002,0.0244064c0.1302261,0.0008278,0.5146408-0.0162888,0.7362289-0.0148811
			c0.0781097,0.0004959,0.1106033,0.0202637,0.1103973,0.0528183c-0.0002899,0.04562-0.0330353,0.0649033-0.0916443,0.0645294
			c-0.0586548,0.0061951-0.0846481,0.0060272-0.149971,0.0186081c-0.1565094,0.0250626-0.2027512,0.1225052-0.2169495,0.3113213
			c-0.020607,0.1757812-0.0214386,0.3060684-0.026825,1.1529694l-0.0062103,0.9771156
			c-0.0033112,0.5211487,0.0004959,0.9446068,0.0249939,1.179287c0.0121765,0.1499329,0.057045,0.2674446,0.226265,0.2880821
			c0.0844727,0.0200996,0.1627121,0.0205956,0.2474136,0.0276299c0.0716019,0.0004578,0.0973892,0.0332451,0.0972214,0.0592346
			c-0.0002518,0.0391197-0.04599,0.0583916-0.1110992,0.0579758c-0.3843002-0.0024452-0.7554703-0.0243645-0.8923264-0.0252342
			c-0.1107254-0.0007057-0.5017776,0.0163689-0.7297287,0.0149193c-0.0781097-0.0004959-0.1171036-0.0203018-0.1168518-0.0594215
			c0.0001602-0.0259933,0.0263596-0.0584488,0.0981064-0.057991c0.0781403-0.0060043,0.1237564-0.0057106,0.1759567-0.0183754
			c0.1108932-0.0254211,0.1636276-0.1227531,0.1776199-0.2790184c0.034111-0.2343063,0.0367661-0.651226,0.0401993-1.1919327
			L101.6377335,55.8988762z"/>
		<path class="st0" d="M108.8960648,57.8146667c0.0499191,0.3455772,0.1075821,0.4957962,0.2767258,0.5489883
			c0.1625519,0.0466537,0.2732773,0.0473557,0.3513412,0.0543518c0.058609,0.00037,0.0976028,0.0201797,0.0973969,0.0527344
			c-0.0002899,0.0456161-0.0655212,0.0647621-0.1502609,0.0642242c-0.2084579-0.0013237-0.9379807-0.0190277-1.2440033-0.0470314
			c-0.1236877-0.0072823-0.1626816-0.027092-0.1624756-0.0596466c0.0001678-0.0260582,0.0265045-0.058445,0.0657043-0.0712585
			c0.0456085-0.0192032,0.0590286-0.0647392,0.0340195-0.2408104l-0.3041077-2.3732491l-1.2664108,2.4544373
			c-0.1319199,0.2663116-0.1648331,0.3116531-0.2104492,0.3113632c-0.0586166-0.0003738-0.1100616-0.1049347-0.2131348-0.2879295
			c-0.1481934-0.261528-0.5795059-1.0655861-0.6760406-1.2551041c-0.0578232-0.1241646-0.3922882-0.8103752-0.5722198-1.1893311
			l-0.293541,2.0958023c-0.0138168,0.1302719-0.0143127,0.2083778-0.0148544,0.2931137
			c-0.0007477,0.1172256,0.0640335,0.169754,0.1680984,0.196476c0.1041031,0.0202217,0.1758423,0.0206757,0.2409134,0.0275879
			c0.0521164,0.0003319,0.0845718,0.0265961,0.084404,0.0526543c-0.0003281,0.0521164-0.0460281,0.064888-0.1307678,0.0643501
			c-0.2475815-0.0015755-0.5080261-0.0227928-0.631752-0.0235786c-0.1172256-0.0007477-0.3975449,0.0170326-0.58638,0.015831
			c-0.0521164-0.0003319-0.0976486-0.0136833-0.0973206-0.0657959c0.0001678-0.0260582,0.0328217-0.0519104,0.091568-0.0515366
			c0.0455246-0.0062065,0.0911407-0.0059166,0.169426-0.0119171c0.1695404-0.0315475,0.2164459-0.2331505,0.250473-0.454464
			l0.5762558-3.5532799c0.026825-0.1105614,0.0596466-0.1624718,0.1052628-0.1621819
			c0.0521164,0.0003319,0.0845261,0.0330963,0.1681747,0.1834106l1.5573196,3.0392494l1.5829468-3.0583344
			c0.0591965-0.0907974,0.0855179-0.142746,0.1376343-0.1424141c0.058609,0.0003738,0.0908585,0.0591927,0.1095657,0.1830368
			L108.8960648,57.8146667z"/>
		<path class="st0" d="M110.7388763,55.9567413c0.0053787-0.8468971,0.0062103-0.9771843-0.0056229-1.1596718
			c-0.0118408-0.1824837-0.0700073-0.2740898-0.1935577-0.3008652c-0.0585327-0.0134354-0.1300964-0.0203896-0.2017975-0.0274124
			c-0.0586166-0.00037-0.0911102-0.0200691-0.0908203-0.0656891c0.000206-0.0325546,0.0394516-0.0518646,0.1306839-0.0512848
			c0.227951,0.0014496,0.6187592,0.0234947,0.7621078,0.0244064c0.1302185,0.0008278,0.5147705-0.0162888,0.7362289-0.0148811
			c0.0781021,0.0004959,0.1106033,0.0202637,0.1103897,0.0528183c-0.0002899,0.04562-0.0330353,0.0649033-0.0916443,0.0645294
			c-0.0586548,0.0061951-0.0847778,0.0060272-0.149971,0.0186081c-0.1565094,0.0250626-0.2027512,0.1225052-0.2169495,0.3113213
			c-0.020607,0.1757812-0.0214386,0.3060684-0.0268173,1.1529694l-0.006218,0.9771156
			c-0.0033112,0.5211487,0.0004959,0.9446068,0.0249939,1.179287c0.0121765,0.1499329,0.0569153,0.2674446,0.226265,0.2880821
			c0.0844727,0.0200996,0.1627121,0.0205956,0.2472763,0.0276299c0.0717392,0.0004578,0.0975266,0.0332451,0.0973587,0.0592346
			c-0.0002441,0.0391197-0.0458527,0.0583916-0.1110992,0.0579758c-0.3842926-0.0024414-0.7554703-0.0243645-0.8923264-0.0252342
			c-0.1107254-0.0007057-0.5016403,0.0163727-0.7297287,0.0149231c-0.0781021-0.0004997-0.1171036-0.0203056-0.1168518-0.0594254
			c0.0001678-0.0259895,0.0263596-0.0584488,0.0981064-0.057991c0.0781403-0.0060005,0.123764-0.0057106,0.1759567-0.0183754
			c0.1108932-0.0254211,0.1636276-0.1227531,0.1777573-0.2790146c0.0339737-0.2343102,0.0366287-0.6512299,0.040062-1.1919365
			L110.7388763,55.9567413z"/>
		<path class="st0" d="M115.1300659,56.9618187c-0.0031509,0.4950905-0.0059204,0.9315681,0.0185318,1.1727486
			c0.0186768,0.149971,0.0505142,0.2738991,0.2262268,0.2945786c0.0780182,0.0135612,0.1953354,0.0208015,0.2798996,0.0278397
			c0.0652466,0.000412,0.0975647,0.0266762,0.0974045,0.0527344c-0.0002518,0.0391197-0.0395355,0.06493-0.1176453,0.0644341
			c-0.3777924-0.0024033-0.7751007-0.0244904-0.9184494-0.0254021c-0.1302185-0.0008278-0.5277634,0.0162048-0.7492218,0.0147972
			c-0.0782394-0.0004959-0.1170578-0.0268021-0.116806-0.0659218c0.0001602-0.0260582,0.0263214-0.0519485,0.0980606-0.0514946
			c0.0781479-0.0060005,0.1432571-0.0055847,0.1954498-0.0182495c0.1240234-0.0253372,0.1572571-0.1423569,0.1779251-0.3050728
			c0.0274811-0.2343521,0.0301285-0.651268,0.0334015-1.1659203l0.014328-2.2539978
			c-0.2149582-0.0013657-0.6448669-0.0041008-0.9055634,0.0138016c-0.3324814,0.0239449-0.4302444,0.0493813-0.5093994,0.192234
			c-0.0395737,0.0714264-0.0528564,0.1168938-0.0793991,0.1819038c-0.0132446,0.0389709-0.0328979,0.0649033-0.0655212,0.0646973
			c-0.0391235-0.000248-0.0519104-0.0328865-0.0514984-0.0980644c0.0072479-0.1171837,0.114418-0.5790558,0.1279984-0.6505775
			c0.0134964-0.0781593,0.0332336-0.1170883,0.0658569-0.1168785c0.0456161,0.0002899,0.0974045,0.0527344,0.2405319,0.0667076
			c0.1563568,0.0204887,0.3907242,0.0350418,0.5861893,0.0362816l2.3060455,0.0146637
			c0.1824646,0.0011597,0.3063126-0.0176125,0.3911362-0.0300674c0.0846863-0.0125275,0.1303864-0.0252991,0.163002-0.0250931
			c0.0389862,0.000248,0.0454102,0.0329132,0.0447922,0.1306458c-0.0007019,0.1107292-0.0293961,0.5144157-0.0303116,0.6577682
			c-0.0068665,0.0585709-0.0200653,0.0910416-0.0591888,0.0907936c-0.0456161-0.0002899-0.0519104-0.0328865-0.0579071-0.1110992
			c0.0001221-0.0195618-0.0062103-0.0456581-0.0060425-0.0717163c-0.0121765-0.1498642-0.1479416-0.3005791-0.6300659-0.3101425
			c-0.1561203-0.0140572-0.3971634-0.0220871-0.7554321-0.0309296L115.1300659,56.9618187z"/>
		<path class="st0" d="M118.0222168,56.0030479c0.0053864-0.8468971,0.00634-0.9967461-0.0054932-1.1792297
			s-0.0569992-0.2544479-0.2327194-0.2946205c-0.0520325-0.0133934-0.1431351-0.0139732-0.2213287-0.0209656
			c-0.0651169-0.0004158-0.0976105-0.0201149-0.0973663-0.0592346c0.0002518-0.0391197,0.0394516-0.0518646,0.1306915-0.0512848
			c0.2735672,0.0017395,0.5340195,0.022953,0.8207169,0.0247765c0.1758347,0.0011177,1.367981,0.0086975,1.4722519,0.0027962
			c0.1108093-0.012291,0.2086182-0.0246658,0.2607803-0.030899c0.0325241-0.0062904,0.0652695-0.0256424,0.0912628-0.0254784
			c0.0326233,0.0002098,0.0389557,0.0263062,0.0387878,0.0523643c-0.0002518,0.0391197-0.0398636,0.1170425-0.0543518,0.3514786
			c-0.0071564,0.104187-0.0143585,0.2148743-0.0284348,0.3841286c-0.000206,0.0326233-0.0135727,0.0911522-0.0658264,0.0908203
			c-0.0389786-0.000248-0.0517654-0.0328827-0.0579453-0.1046028c0.0001678-0.0260544,0.0007019-0.1107254-0.0313263-0.1826057
			c-0.0384598-0.1044807-0.0902023-0.1634216-0.3700638-0.1977577c-0.1106415-0.0137672-0.6969528-0.0305595-0.8271713-0.0313873
			c-0.026123-0.000164-0.0392456,0.0193138-0.0394897,0.0584335l-0.0085754,1.3484192
			c-0.0002518,0.0391197,0.0061264,0.0587196,0.0387497,0.0589294c0.1367111,0.0008659,0.7620926,0.0048447,0.9054794-0.0008087
			c0.1629257-0.0119591,0.2477875-0.030983,0.3002777-0.0892639c0.0394516-0.0518646,0.065567-0.0712585,0.0916901-0.0710945
			c0.0259933,0.0001678,0.0389023,0.0133095,0.0386963,0.0458679c-0.0002518,0.0391197-0.0270233,0.162674-0.0483551,0.4296227
			c-0.0007019,0.1107941-0.0216827,0.3451843-0.0219727,0.3908043c-0.0002899,0.0455475-0.007164,0.104187-0.0592804,0.1038551
			c-0.0391159-0.000248-0.0582352-0.0590515-0.0580292-0.0916061c-0.0061646-0.0521584-0.0059586-0.084713-0.0185394-0.149971
			c-0.0318375-0.1239281-0.096405-0.2090797-0.3243713-0.2300224c-0.1171417-0.0138092-0.6643753-0.0237846-0.8075867-0.0246964
			c-0.0326233-0.000206-0.0392838,0.0258102-0.0394897,0.0583649l-0.0026932,0.4234161
			c-0.0012054,0.1888962-0.0105972,0.6448936-0.0051804,0.8142738c0.0105515,0.3844452,0.0947495,0.4696541,0.6940079,0.473465
			c0.1498413,0.0009537,0.3909225,0.0024872,0.5346909-0.0617104c0.1502991-0.0707245,0.2161179-0.1810379,0.2632217-0.4152641
			c0.0133667-0.0585289,0.0265732-0.0910683,0.0721893-0.0907784s0.0452881,0.0524063,0.0449142,0.111084
			c-0.0009155,0.1432838-0.049057,0.5404167-0.0823822,0.6509361c-0.0398941,0.1430359-0.0920105,0.142704-0.307106,0.1413383
			c-0.5666275-0.0036049-1.0550842-0.0392647-1.6348419-0.0429535c-0.2344513-0.0014877-0.4691544,0.0165787-0.7427292,0.0148392
			c-0.0782394-0.0004959-0.1170959-0.0203056-0.1168518-0.0594254c0.0001678-0.0259895,0.0198669-0.0584869,0.0979691-0.057991
			c0.0782852-0.0060005,0.1498947-0.0055428,0.2020874-0.0182076c0.1175308-0.0253792,0.1508026-0.1488953,0.171669-0.3442345
			c0.0274429-0.227787,0.0301361-0.651268,0.0331573-1.1268005L118.0222168,56.0030479z"/>
		<path class="st0" d="M121.8398666,56.0273209c0.0053024-0.8338356,0.0062103-0.9771843-0.0056686-1.1531715
			c-0.0118332-0.1824837-0.050209-0.2999573-0.2455444-0.3207588l-0.2213287-0.0209694
			c-0.0651093-0.0004158-0.0976105-0.0201149-0.0973587-0.0592346c0.0002441-0.0391197,0.039444-0.0518646,0.1240463-0.0513268
			c0.2737045,0.0017395,0.6643753,0.0237846,0.84021,0.0249023c0.1889725,0.0012016,0.5212784-0.0162468,0.8992081-0.0138435
			c0.7685928,0.0048866,1.6545105,0.0365791,2.2628708,0.6527863c0.2849121,0.2819557,0.5490417,0.7461891,0.5448227,1.4106178
			c-0.0043945,0.6905556-0.313942,1.2162552-0.6351547,1.5334778c-0.2687302,0.2588768-0.8314819,0.6461067-1.906395,0.6392746
			c-0.4169235-0.0026512-0.9310226-0.0710335-1.2112274-0.0728149c-0.1563416-0.0009918-0.5082779,0.0163307-0.7492218,0.0147972
			c-0.0782394-0.0004959-0.1106033-0.0202637-0.1103516-0.0593834c0.0001602-0.0259895,0.0328598-0.0584068,0.0981064-0.057991
			c0.0651093,0.0004158,0.1302567-0.0056686,0.2019501-0.0182076c0.2218323-0.0377121,0.1992722-0.5981445,0.2048187-1.471035
			L121.8398666,56.0273209z M122.6046982,56.6445236c-0.0037308,0.5863266,0.0001602,0.9967194,0.0059967,1.1009903
			c0.0055008,0.1563873,0.0109253,0.3258362,0.0690918,0.4173775c0.0644455,0.104641,0.3046875,0.2169685,0.7216034,0.2196198
			c0.5472717,0.003479,0.9062424-0.0984726,1.246788-0.3895149c0.3602066-0.297348,0.4675446-0.7852783,0.4711456-1.3520432
			c0.0042267-0.6644287-0.2795639-1.1027298-0.5255661-1.3518829c-0.4920959-0.4851761-1.1104736-0.5672836-1.54039-0.5700188
			c-0.1172256-0.0007439-0.3258057,0.0174904-0.3651352,0.0497971c-0.0588989,0.0452423-0.0719757,0.0581551-0.0791855,1.1916885
			L122.6046982,56.6445236z"/>
	</g>
	<g>
		<path class="st0" d="M65.6394043,42.0345955c0.0127258-2.0016136,0.0150681-2.3703461-0.0085754-2.7918968
			c-0.0234833-0.4478798-0.1274567-0.6592445-0.5614548-0.7541885c-0.1052094-0.0269966-0.328949-0.0415497-0.5133133-0.0427246
			c-0.1448441-0.0009193-0.2237244-0.0278168-0.2231369-0.1199341c0.0005875-0.0921822,0.0929337-0.1179924,0.2904968-0.1167336
			c0.6979294,0.0044365,1.5272522,0.0492363,1.8959808,0.0515823c0.4081879,0.002594,1.2380829-0.0316582,2.0281296-0.0266342
			c1.64608,0.0104675,3.845192,0.0244484,5.2709656,1.5348167c0.6540527,0.6889229,1.2660522,1.785778,1.2560883,3.3528099
			c-0.0105515,1.659214-0.7165222,2.9189301-1.4587479,3.6648293c-0.6096878,0.615097-1.9850998,1.5413437-4.4212265,1.525856
			c-0.4740448-0.0030174-1.0137558-0.0459747-1.5138702-0.0886841c-0.5001221-0.0426369-0.9607849-0.0850945-1.2899857-0.0871887
			c-0.1448364-0.0009193-0.4345856-0.0027618-0.7506714,0.0084267c-0.3028717-0.0019264-0.6454468,0.0222244-0.9087906,0.0205498
			c-0.1711655-0.0010872-0.2630997-0.0411987-0.2625122-0.1333809c0.0004196-0.0658531,0.0533218-0.1049767,0.2113647-0.1039734
			c0.1974945,0.001255,0.3556976-0.0241356,0.4743729-0.0497093c0.2636871-0.0509834,0.3313828-0.3402405,0.386467-0.7218323
			c0.0693665-0.5526085,0.0759811-1.5929413,0.0836868-2.8043709L65.6394043,42.0345955z M67.2762756,43.4935112
			c-0.008873,1.3958664-0.0021896,2.4098854,0.0094147,2.6601906c0.0110397,0.3292847,0.0340195,0.8562164,0.1384811,1.0017242
			c0.1695709,0.2512398,0.6813812,0.5310516,1.7217178,0.5376663c1.3431396,0.0085411,2.240242-0.249115,3.0347061-0.9288254
			c0.847374-0.7189026,1.1183472-1.9155273,1.1269684-3.2718658c0.0106354-1.6724129-0.6804352-2.7566414-1.2432251-3.3001366
			c-1.2041321-1.1664772-2.7042999-1.3340607-3.7314377-1.3405914c-0.2633514-0.0016747-0.7508392,0.0347557-0.8564911,0.0867424
			c-0.1188431,0.0519028-0.158783,0.1175041-0.1597061,0.2623444c-0.015976,0.447628-0.023262,1.5932732-0.0298767,2.633606
			L67.2762756,43.4935112z"/>
		<path class="st0" d="M78.3201523,42.1152191c0.0127258-2.0016136,0.0150681-2.3703423-0.0085831-2.7918968
			c-0.0234756-0.4478798-0.1275177-0.6592407-0.5614471-0.7541885c-0.105217-0.0269966-0.3289566-0.0415497-0.5133209-0.0427208
			c-0.1448364-0.0009232-0.2237167-0.0278206-0.2231369-0.1199341c0.0005875-0.0921822,0.0929413-0.1179924,0.2905045-0.1167374
			c0.6057434,0.0038528,1.2112427,0.0472298,1.8959808,0.0515823c0.4213867,0.0026779,3.0418777,0.0193405,3.2921143,0.0078011
			c0.2503815-0.024807,0.4612427-0.0497932,0.5667953-0.0754509c0.0658646-0.0127144,0.1451721-0.0517349,0.2110214-0.0513191
			c0.0657883,0.0004196,0.0786514,0.0531616,0.0782318,0.1190147c-0.0005875,0.0921822-0.0674438,0.2497978-0.110817,0.8552971
			c-0.0139694,0.1315575-0.0439835,0.7108116-0.071312,0.868679c-0.0136185,0.065773-0.040451,0.1445885-0.1326294,0.1440048
			c-0.092186-0.0005875-0.1180115-0.0797386-0.1170044-0.2377777c0.0003357-0.0527229-0.011528-0.2634315-0.0763092-0.4218864
			c-0.0906754-0.237606-0.2213745-0.3964806-0.8792801-0.4797173c-0.2237244-0.0277519-1.6062241-0.06287-1.8695679-0.0645447
			c-0.0658569-0.0004196-0.0924377,0.0389366-0.0930252,0.1311188l-0.0211792,3.3315582
			c-0.0005875,0.0921822,0.0122757,0.1449203,0.0912628,0.1454239c0.2896729,0.0018425,1.8040466,0.0114708,2.1070938-0.0129318
			c0.3162384-0.0243187,0.5139847-0.0625877,0.6333313-0.1934776c0.0928497-0.1047935,0.1459274-0.1702423,0.2117844-0.1698265
			c0.0526505,0.0003357,0.0920105,0.0269165,0.091507,0.1058998s-0.0544968,0.289341-0.1114197,0.9606133
			c-0.0148773,0.2632637-0.0577469,0.7897758-0.0583344,0.881958c-0.0006714,0.1053123-0.0015945,0.2501526-0.1201019,0.2493973
			c-0.092186-0.0005836-0.1175919-0.1455917-0.1171722-0.2114449c-0.012291-0.1317253-0.0117874-0.2107773-0.0502243-0.3821945
			c-0.0641861-0.2637672-0.2472916-0.4625015-0.7341995-0.5182571c-0.2499771-0.027916-1.5535812-0.0494041-1.8695831-0.0514145
			c-0.0658569-0.0004158-0.0793839,0.0522232-0.0798874,0.1312065l-0.0066147,1.0403328
			c-0.0028458,0.4477158-0.0236816,1.6590614-0.0129776,2.0410728c0.020546,0.9087944,0.2299881,1.1076279,1.5731964,1.1161652
			c0.3423309,0.0021782,0.8954239,0.0056953,1.2387619-0.1501656c0.3434067-0.1557922,0.5032043-0.4313316,0.5988159-0.9706421
			c0.0272522-0.1447411,0.0539093-0.1972275,0.1460953-0.1966438c0.1053085,0.0006714,0.1046448,0.1060524,0.1038055,0.2376938
			c-0.0019302,0.3028717-0.1129303,1.1976967-0.1804581,1.4606285c-0.0943604,0.3417473-0.2128754,0.340992-0.7132416,0.3378105
			c-1.1719742-0.0074501-2.3303146-0.0938034-3.6471252-0.1021729c-0.5267639-0.0033493-1.0669174,0.0327415-1.6594696,0.0289764
			c-0.1711655-0.001091-0.263092-0.0412025-0.2625046-0.1333847c0.000412-0.0658531,0.0533218-0.1049767,0.2113571-0.1039734
			c0.1974945,0.001255,0.3556976-0.0241356,0.4743805-0.0497093c0.2636795-0.0509796,0.3313751-0.3402405,0.3864594-0.7218323
			c0.0693741-0.5526085,0.0759888-1.5929413,0.0836868-2.8043709L78.3201523,42.1152191z"/>
		<path class="st0" d="M90.4202118,44.5098648c-0.0077057,1.2114296-0.0143204,2.2517624,0.0478668,2.8184052
			c0.037178,0.3689804,0.1143265,0.6591606,0.5090485,0.7143288c0.1841965,0.0275002,0.4737701,0.0557365,0.6712646,0.0569954
			c0.1448364,0.0009193,0.2104416,0.0407982,0.210022,0.1066513c-0.0005875,0.0921822-0.1061478,0.1310387-0.2510529,0.1301155
			c-0.8691025-0.0055237-1.6984177-0.0503235-2.0671463-0.0526695c-0.3028793-0.0019264-1.1327057,0.0323257-1.6594696,0.0289764
			c-0.1711655-0.0010872-0.263092-0.0411987-0.2625122-0.1333809c0.0004196-0.0658569,0.0533295-0.1049805,0.2113647-0.1039734
			c0.1974945,0.001255,0.3556976-0.0241356,0.4743805-0.0497093c0.2636795-0.0509834,0.344574-0.3401566,0.3864594-0.7218323
			c0.0693741-0.5526085,0.0759888-1.5929413,0.0836868-2.8043747l0.0343246-5.399025
			c-0.5004501,0.0099487-1.3170624,0.0311546-1.9624176,0.040184c-0.7638855,0.0214729-1.0803757,0.0853157-1.2797165,0.3737373
			c-0.1329651,0.1967239-0.1998215,0.3543434-0.2268219,0.4594879c-0.0269928,0.1052132-0.0668564,0.1576157-0.1458435,0.1571159
			c-0.0921783-0.0005875-0.1180878-0.0666084-0.1171646-0.2114487c0.0013351-0.2106895,0.2591705-1.407402,0.286171-1.5126152
			c0.0406113-0.1709137,0.080574-0.249649,0.1596298-0.2491455c0.1053085,0.0006714,0.2361832,0.1331482,0.5652161,0.1615677
			c0.3816071,0.041954,0.881813,0.0714645,1.316391,0.0742264l5.2146606,0.0331573
			c0.4213867,0.0026779,0.711319-0.0350075,0.9090424-0.0600777c0.1977463-0.0382042,0.303299-0.0639305,0.3559494-0.0635948
			c0.092186,0.0005875,0.1048126,0.0797234,0.1035614,0.2772179c-0.0017624,0.2765465-0.0469971,1.1849213-0.0491714,1.5273209
			c-0.0140381,0.1315575-0.0408707,0.2104416-0.1198502,0.209938c-0.1053848-0.0006676-0.1312943-0.0666924-0.1432343-0.2643356
			c0.0002518-0.0394592-0.0124588-0.1053963-0.012207-0.1449242c-0.0241547-0.3425674-0.3774109-0.7134895-1.5492172-0.7472687
			c-0.342247-0.0153732-0.8820572-0.0320053-1.6588898-0.0500755L90.4202118,44.5098648z"/>
		<path class="st0" d="M96.9134903,42.2334366c0.0127258-2.0016136,0.0150681-2.3703423-0.0086441-2.7918968
			c-0.0234146-0.4478798-0.127388-0.6592407-0.5614548-0.7541885c-0.1051483-0.0269966-0.328949-0.0415497-0.5133133-0.0427246
			c-0.1448441-0.0009193-0.2237244-0.0278168-0.2231445-0.1199341c0.0005875-0.0921822,0.0929413-0.1179924,0.2905045-0.1167336
			c0.6058121,0.0038528,1.2113113,0.0472298,1.8959808,0.0515823c0.4213867,0.0026779,3.0418777,0.0193405,3.2921143,0.0078011
			c0.2504501-0.024807,0.4612427-0.0497932,0.566864-0.0754509c0.0658646-0.0127144,0.1451721-0.0517387,0.2109528-0.0513191
			c0.0657883,0.0004196,0.0787201,0.0531578,0.0783005,0.1190147c-0.0005875,0.0921822-0.0675125,0.2497978-0.1107559,0.8552971
			c-0.0140991,0.1315575-0.0440445,0.7108116-0.0714417,0.868679c-0.0135498,0.065773-0.040451,0.1445885-0.1326294,0.144001
			c-0.092186-0.0005836-0.1179428-0.0797348-0.1169357-0.2377739c0.0003357-0.0527229-0.0115967-0.2634315-0.0763779-0.4218864
			c-0.0906754-0.237606-0.2213745-0.3964806-0.8792801-0.4797173c-0.2237244-0.0277519-1.6061554-0.0628738-1.8695679-0.0645485
			c-0.0657883-0.0004158-0.0924377,0.0389404-0.0930252,0.1311226l-0.0211792,3.3315582
			c-0.0005875,0.0921822,0.0123444,0.1449203,0.0912628,0.1454239c0.2896729,0.0018425,1.8041153,0.0114708,2.1070938-0.0129318
			c0.3162384-0.0243187,0.5139847-0.0625877,0.6334-0.1934776c0.0928497-0.1047935,0.1459274-0.1702461,0.2117157-0.1698265
			c0.0526505,0.0003357,0.0920105,0.0269165,0.091507,0.1058998c-0.0004959,0.0789833-0.0544968,0.289341-0.1114197,0.9606094
			c-0.0148087,0.2632675-0.0576782,0.7897797-0.0582657,0.8819618c-0.0006714,0.1053123-0.0015945,0.2501526-0.1201706,0.2493973
			c-0.092186-0.0005836-0.1175232-0.1455917-0.1171036-0.2114449c-0.012291-0.1317253-0.0117874-0.2107773-0.0502243-0.3821945
			c-0.0642548-0.2637672-0.2473602-0.4625015-0.7341995-0.5182571c-0.2499771-0.027916-1.5535812-0.0494041-1.8696518-0.0514145
			c-0.0657883-0.0004158-0.0793839,0.0522232-0.0798874,0.1312065l-0.0066147,1.0403328
			c-0.0028458,0.4477119-0.0236816,1.6590614-0.0129776,2.0410728c0.0206146,0.9087906,0.2299881,1.1076279,1.5731964,1.1161652
			c0.3423309,0.0021782,0.8954239,0.0056953,1.2388992-0.1501656c0.343338-0.1557922,0.503067-0.4313354,0.5986786-0.9706421
			c0.0273209-0.1447411,0.0539093-0.1972275,0.1460953-0.1966438c0.1054459,0.0006714,0.1047745,0.1060524,0.1039429,0.2376938
			c-0.0019302,0.3028717-0.1130676,1.1976967-0.1805267,1.4606285c-0.0943604,0.3417473-0.212944,0.340992-0.7132416,0.3378105
			c-1.1719742-0.0074501-2.3303146-0.0938034-3.6471252-0.1021767c-0.5267029-0.0033455-1.0669174,0.0327454-1.6595306,0.0289764
			c-0.1711731-0.0010872-0.2630997-0.0411987-0.2625122-0.1333809c0.0004196-0.0658531,0.0533218-0.1049767,0.2113571-0.1039734
			c0.1974945,0.001255,0.3557663-0.0241356,0.4743805-0.0497093c0.2637482-0.0509834,0.3313751-0.3402405,0.3864594-0.7218323
			c0.0694427-0.5526085,0.0760574-1.5929413,0.0837555-2.8043709L96.9134903,42.2334366z"/>
		<path class="st0" d="M105.8760834,47.1760063c-1.2832108-1.1406517-1.6163025-2.6176758-1.6081848-3.895031
			c0.0056915-0.8954277,0.2921219-2.4475021,1.5636444-3.5983086c0.953743-0.8630676,2.2079849-1.381813,4.1700668-1.369339
			c0.8165131,0.0051918,1.3033524,0.0609474,1.9085999,0.1437836c0.5000153,0.0690346,0.9601746,0.1904755,1.3549118,0.2325134
			c0.1447525,0.0140495,0.1574707,0.0799866,0.1569672,0.1589737c-0.0006714,0.1053772-0.041069,0.2631645-0.0703964,0.7238388
			c-0.0291519,0.4344177-0.0204926,1.1587601-0.0485611,1.4219437c-0.014389,0.1974792-0.0415421,0.3158188-0.1599808,0.3150673
			c-0.1054459-0.0006714-0.1309586-0.1193466-0.1297836-0.3037109c-0.0105362-0.4083405-0.1788406-0.8702736-0.505867-1.2147675
			c-0.4315796-0.4636726-1.456459-0.8257332-2.6679535-0.8334389c-1.1457138-0.0072823-1.8981476,0.2776222-2.4808502,0.800705
			c-0.9669571,0.8761826-1.2250595,2.1255493-1.2331848,3.4029045c-0.019928,3.1340599,2.3536682,4.7030487,4.1182632,4.7142677
			c1.1719742,0.0074501,1.883873-0.1197357,2.4144211-0.7221375c0.2254791-0.2487259,0.3991394-0.6295662,0.4533081-0.8662529
			c0.040863-0.2104416,0.0674591-0.262928,0.1727676-0.2622604c0.092186,0.0005875,0.1179962,0.0929375,0.1173248,0.1983185
			c-0.0010071,0.1579666-0.1662598,1.3026085-0.3008118,1.749485c-0.0673447,0.2234726-0.1204224,0.28899-0.3448944,0.3797493
			c-0.528038,0.2073441-1.5293655,0.2931633-2.372139,0.2878036
			C108.5796356,48.628643,107.0678406,48.2239609,105.8760834,47.1760063z"/>
		<path class="st0" d="M120.3640823,44.7002487c-0.0077057,1.2114296-0.0143204,2.2517662,0.0480042,2.818409
			c0.037178,0.3689804,0.1142502,0.6591568,0.5090408,0.714325c0.1841965,0.0275002,0.4737091,0.0557404,0.6712036,0.0569954
			c0.1448364,0.0009193,0.2105103,0.0407982,0.2100906,0.1066513c-0.0005875,0.0921822-0.1062851,0.1310387-0.2511215,0.1301155
			c-0.8690338-0.0055237-1.6984253-0.0503235-2.0671539-0.0526695c-0.302803-0.0019264-1.1326981,0.0323257-1.6593933,0.0289764
			c-0.1712341-0.0010872-0.2631683-0.0411987-0.2625809-0.1333809c0.0004196-0.0658531,0.0533295-0.1049767,0.2112961-0.1039734
			c0.1976318,0.001255,0.3557663-0.0241356,0.4745102-0.0497093c0.2636185-0.0509834,0.3445129-0.3401566,0.386467-0.7218323
			c0.0692978-0.5526085,0.0759125-1.5929413,0.0836182-2.8043747l0.0343246-5.3990211
			c-0.5005188,0.0099487-1.3170624,0.0311508-1.9624176,0.0401802c-0.7638855,0.0214729-1.0803833,0.0853157-1.2797165,0.3737373
			c-0.1329651,0.1967239-0.1997528,0.3543434-0.2268219,0.4594879c-0.0269318,0.1052132-0.0667877,0.1576195-0.1458435,0.1571159
			c-0.0921783-0.0005875-0.1180191-0.0666084-0.1171036-0.2114449c0.0013428-0.2106934,0.2591095-1.4074059,0.2860413-1.512619
			c0.0406113-0.1709137,0.0806427-0.249649,0.1596985-0.2491455c0.1053085,0.0006714,0.2361832,0.1331482,0.5652161,0.1615715
			c0.3816071,0.0419502,0.8818741,0.0714607,1.316391,0.0742264l5.214592,0.0331535
			c0.4213867,0.0026779,0.7114487-0.0350037,0.909111-0.0600777c0.1977463-0.0382042,0.3032303-0.0639305,0.3558807-0.0635948
			c0.092186,0.0005875,0.10495,0.0797234,0.1036911,0.2772179c-0.0017548,0.2765465-0.0470581,1.1849213-0.0492325,1.5273209
			c-0.0139694,0.1315575-0.0408707,0.2104416-0.1199188,0.209938c-0.1053162-0.0006676-0.1312943-0.0666885-0.1431656-0.2643356
			c0.0002518-0.0394592-0.0124588-0.1053963-0.012207-0.1449242c-0.0242233-0.3425674-0.3773422-0.7134895-1.5491486-0.7472687
			c-0.3423843-0.0153732-0.8821259-0.0320053-1.6590271-0.0500755L120.3640823,44.7002487z"/>
		<path class="st0" d="M126.8572922,42.4238205c0.0127258-2.0016136,0.0150681-2.3703423-0.0085144-2.7918968
			c-0.0235443-0.4478798-0.1538315-0.6725426-0.4430923-0.7402382c-0.1445847-0.0404434-0.3157349-0.0546646-0.4737015-0.0556679
			c-0.1317139-0.0008392-0.2105942-0.0277367-0.2099228-0.133049c0.0004959-0.0789833,0.1061172-0.1047096,0.3167419-0.1033707
			c0.5004349,0.0031815,1.3298264,0.0479813,1.7116852,0.0504112c0.3292084,0.0020943,1.106308-0.0324936,1.6067352-0.0293121
			c0.1712341,0.0010872,0.2763824,0.0281525,0.2758789,0.1071396c-0.0006714,0.1053123-0.079895,0.1312027-0.2115936,0.1303673
			c-0.1315765-0.0008354-0.2371063,0.0116234-0.3952484,0.0369453c-0.3560181,0.0635948-0.4627533,0.2868156-0.4919434,0.7474937
			c-0.029068,0.4212151-0.0314178,0.7899437-0.0441437,2.7915573l-0.01474,2.3176193
			c-0.0081177,1.2772865-0.0147247,2.3176193,0.0343323,2.8841782c0.037262,0.3557816,0.1279297,0.5933914,0.5225983,0.6485558
			c0.1841888,0.0275002,0.4736938,0.0557404,0.6713257,0.0569954c0.1448364,0.0009232,0.2103729,0.0407982,0.2099609,0.1066513
			c-0.0005951,0.0921822-0.1061554,0.1310387-0.2509918,0.1301193c-0.8691711-0.0055275-1.6984177-0.0503273-2.0540161-0.0525894
			c-0.3028107-0.0019226-1.1326981,0.0323257-1.6594009,0.0289803c-0.1712341-0.001091-0.2631607-0.0412025-0.2625732-0.1333847
			c0.0004196-0.0658531,0.0533218-0.1049767,0.2112885-0.1039734c0.1976318,0.001255,0.3557663-0.0241356,0.4745178-0.0497093
			c0.2636108-0.0509834,0.3440857-0.2743034,0.3860397-0.6559792c0.0693054-0.5526047,0.0759201-1.5929375,0.0840378-2.870224
			L126.8572922,42.4238205z"/>
		<path class="st0" d="M131.7220459,43.6135712c0.0143127-2.2517624,1.520874-5.1524734,5.4714355-5.1273575
			c3.2789001,0.0208511,5.3077698,1.9431915,5.2885895,4.9587402c-0.019165,3.0155525-2.1412506,5.3856277-5.4859314,5.3643646
			C133.2167969,48.7852898,131.7072296,45.9443893,131.7220459,43.6135712z M140.6354675,43.9204712
			c0.0187531-2.9496956-1.6682739-4.7908745-3.8280029-4.8046074c-1.5142975-0.0096283-3.2447205,0.8221741-3.2655792,4.1010742
			c-0.0174103,2.739006,1.4832153,4.9213486,4.0115356,4.9374237
			C138.4750977,48.1602211,140.6112671,47.7260704,140.6354675,43.9204712z"/>
		<path class="st0" d="M145.6711121,38.9483223c0.0016785-0.2633514,0.0422363-0.447464,0.1739502-0.4466286
			c0.1448364,0.0009232,0.2623291,0.1728439,0.4847107,0.4112854c0.1568756,0.1722412,2.1448517,2.3313522,4.0552673,4.253006
			c0.88974,0.9011192,2.7207642,2.8749313,2.9433136,3.0870476l-0.093689-5.9792175
			c-0.0080261-0.8033943-0.1248779-1.0542984-0.4401093-1.1880188c-0.196991-0.0802383-0.5130615-0.0822487-0.6974335-0.0834198
			c-0.1579742-0.0010033-0.2105103-0.0408669-0.2100067-0.1198502c0.0006714-0.105381,0.1455994-0.1176567,0.3432312-0.1164017
			c0.6846619,0.0043526,1.3165588,0.0478973,1.5930939,0.0496559c0.1448517,0.0009232,0.6455383-0.0354233,1.2906799-0.0313225
			c0.1712341,0.001091,0.3028564,0.0151253,0.3021851,0.1205063c-0.0005035,0.0789833-0.0798035,0.1180077-0.2377777,0.1170044
			c-0.1317139-0.0008392-0.2370148-0.0015068-0.3953705,0.0369453c-0.3694,0.103035-0.4764709,0.3789139-0.4942932,1.1162186
			c-0.0703278,2.7781944-0.1273499,5.5300789-0.1976624,8.3082733c-0.0018463,0.2896805-0.0552521,0.407856-0.1738281,0.4071007
			c-0.1448517-0.0009232-0.3018951-0.1467628-0.445816-0.2925224c-0.8246155-0.7953911-2.4991913-2.531105-3.8600311-3.8961525
			c-1.4263458-1.4313164-2.9168091-3.1264038-3.1522369-3.3781281l0.1094208,5.5711098
			c0.0197296,1.0273018,0.188797,1.3707924,0.4516144,1.4646492c0.2232666,0.0804062,0.473465,0.0951958,0.684082,0.0965347
			c0.1448364,0.0009232,0.2237244,0.0277519,0.2232208,0.106739c-0.0006714,0.1053772-0.119278,0.1309547-0.3036346,0.1297798
			c-0.8560486-0.0054398-1.3824921-0.048317-1.6326447-0.0499077c-0.118576-0.0007515-0.7377014,0.0348396-1.4225006,0.0304832
			c-0.1710968-0.0010872-0.2895966-0.0150375-0.2888489-0.1335487c0.0005035-0.0789833,0.0797272-0.1048088,0.211441-0.1039734
			c0.1710968,0.0010872,0.4082031-0.010601,0.5928955-0.062088c0.3431396-0.1032028,0.3982239-0.484726,0.4186401-1.6302872
			C145.5602417,43.951786,145.6335907,40.6995468,145.6711121,38.9483223z"/>
	</g>
	<g>
		<g>
			<path class="st0" d="M48.9722443,32.0731812c0,0,3.0443306-4.6243286-5.7022171-13.3781815
				c0,0,1.8772697,4.5170021,0.4388733,7.2802048c-1.4384003,2.7632027-2.5980301,5.2855968-1.8793526,6.7109947
				c0.7186813,1.425396,2.65271,2.4657784,2.65271,2.4657784s-1.4711876-2.3868675-0.1098251-4.5288715
				c1.6452141-2.5886173,1.9678879-4.2846279,1.7290611-4.8752708
				C46.1014938,25.7478352,48.8278427,27.5325413,48.9722443,32.0731812z"/>
		</g>
		<g>
			<path class="st0" d="M27.7616158,37.8642159c0,0-0.0487022-0.0717354-0.1246414-0.2157822
				c-0.0740871-0.1445122-0.1834049-0.3590889-0.2851658-0.6480141c-0.1030827-0.2879753-0.2160435-0.6470146-0.2825298-1.0747528
				c-0.0379963-0.2132835-0.0600853-0.4434357-0.0778008-0.6881561c-0.0099277-0.2446747-0.0096951-0.5042534,0.0159283-0.7744789
				c0.0399628-0.5415001,0.1721802-1.1277771,0.4086552-1.7141457c0.2416477-0.5834656,0.5919361-1.1612186,1.0330296-1.688467
				c0.1127739-0.128931,0.2265091-0.2598629,0.3469219-0.3854389c0.1271191-0.1218948,0.2407799-0.2439842,0.3824673-0.3678608
				c0.1249046-0.1100883,0.2412739-0.219099,0.3899784-0.334959l0.2146168-0.1698856l0.21735-0.1560936
				c0.5804482-0.4187279,1.2269936-0.7633858,1.902874-1.031992c0.3375378-0.1360226,0.6862888-0.2413292,1.0350132-0.3384895
				c0.3512306-0.0882359,0.7051315-0.1608448,1.0599937-0.2055359c0.353714-0.052948,0.7086487-0.0722237,1.0582809-0.0793819
				c0.0873528-0.0040989,0.1746864,0.0012283,0.2615204,0.0014763c0.0900269,0.0018406,0.1797562,0.0036716,0.2691689,0.0054932
				c0.0814171,0.0054073,0.1625443,0.010788,0.2433586,0.0161591l0.1209602,0.0086956l0.1298218,0.0142021
				c0.6887321,0.070446,1.3241234,0.2168865,1.9128799,0.4294701c0.5865631,0.2110291,1.1078491,0.4937019,1.5508575,0.7999039
				c0.2256775,0.1470833,0.4233246,0.3139038,0.6115761,0.4680672c0.1748047,0.1714649,0.350399,0.3202438,0.4904747,0.4857254
				c0.0722542,0.0797176,0.1421928,0.1568813,0.2096977,0.2313576c0.0663147,0.0751362,0.1224556,0.1546669,0.1789093,0.2281685
				c0.0556946,0.0738068,0.1091156,0.1446056,0.1601677,0.2122593c0.0497398,0.0683727,0.0912209,0.1381912,0.1335793,0.201704
				c0.0824127,0.1288357,0.1593857,0.2404194,0.2158661,0.3445225c0.0553513,0.104332,0.1024361,0.1930695,0.1406097,0.2650242
				c0.0741577,0.1438675,0.1137085,0.220602,0.1137085,0.220602S41.7418861,31.8593941,41.6334,31.738987
				c-0.0531464-0.0601864-0.1186905-0.1344223-0.1957512-0.2217007c-0.0789032-0.0852833-0.1764145-0.1773548-0.2790146-0.2843552
				c-0.0527916-0.0522747-0.1050529-0.1100197-0.165554-0.1651878c-0.0613556-0.0540123-0.1255608-0.1105309-0.1924934-0.1694527
				c-0.0678177-0.0575905-0.1339722-0.1214905-0.2074165-0.1823311c-0.0748558-0.0589218-0.1524086-0.1199589-0.2325287-0.1830158
				c-0.1547241-0.1314793-0.342514-0.2416954-0.5265999-0.371027c-0.1968918-0.112051-0.3919449-0.2447929-0.6153946-0.349102
				c-0.4379158-0.2219467-0.933815-0.4113827-1.4726562-0.5493488c-0.5357361-0.1383343-1.1291084-0.2206287-1.7216568-0.244812
				l-0.1108322-0.0051899l-0.1212692-0.000576c-0.0809898-0.0008354-0.1622925-0.0016651-0.2438889-0.0025063
				c-0.0737152,0.0023327-0.1476974,0.0046787-0.2219238,0.0070248c-0.0773582,0.0036278-0.1550598,0.0020504-0.2326927,0.0097809
				c-0.1551933,0.0144119-0.3118019,0.0194054-0.4676208,0.0428486c-0.1563988,0.0167561-0.3131828,0.0357342-0.469326,0.0641174
				c-0.6255035,0.103548-1.2505341,0.2705784-1.8471947,0.511488c-0.5999146,0.2320576-1.1725769,0.533123-1.6998672,0.8850708
				l-0.1968632,0.1326447l-0.1841621,0.1361179c-0.120573,0.0826454-0.2533283,0.1944275-0.3814507,0.297102
				c-0.112196,0.0880299-0.2288265,0.2012691-0.3424454,0.2994747c-0.1100178,0.1051254-0.2180634,0.2107277-0.3238678,0.316946
				c-0.4108181,0.4346466-0.752636,0.9028778-1.0106907,1.3862305c-0.1247482,0.2432899-0.2372589,0.4865112-0.3236046,0.7313576
				c-0.0494308,0.1205559-0.0814533,0.2444077-0.1220436,0.3640175c-0.0299969,0.1220551-0.068222,0.2408447-0.0900745,0.3605919
				c-0.1015472,0.4763489-0.1440334,0.9298172-0.1445312,1.3351936c0.0003815,0.4052773,0.0314522,0.7628937,0.0744572,1.0560188
				c0.0446434,0.2927818,0.090992,0.5239639,0.1317062,0.6793022
				C27.7352791,37.7816582,27.7616158,37.8642159,27.7616158,37.8642159z"/>
		</g>
		<g>
			<path class="st0" d="M29.7416801,37.1144104c0,0-0.0321159-0.0572281-0.0789185-0.1720657
				c-0.0462322-0.114502-0.1126137-0.285099-0.1687412-0.5114021c-0.0299549-0.1128426-0.0538254-0.2397614-0.0820026-0.3791237
				c-0.0188122-0.1397781-0.0466404-0.2925835-0.0519409-0.4573936c-0.0306091-0.3304596-0.0025253-0.7071037,0.0603333-1.1191063
				c0.023735-0.1015854,0.0479698-0.2052956,0.0726662-0.3109779c0.0135746-0.0527077,0.0238419-0.1073074,0.0407658-0.1601448
				c0.0182056-0.0525246,0.0365734-0.1055222,0.0550976-0.1589775c0.0379333-0.1067696,0.0743504-0.2172928,0.1201534-0.3255081
				c0.0516758-0.1058502,0.1041374-0.2133141,0.1573257-0.3222618c0.0281162-0.0537796,0.0513821-0.1115799,0.0844212-0.1632843
				c0.0334511-0.0515823,0.0671196-0.1034851,0.1009941-0.1557159c0.0686073-0.1040268,0.1362514-0.2116966,0.2096291-0.3165894
				c0.0804405-0.0983658,0.1624775-0.1979256,0.2473946-0.2969971c0.0423794-0.0497246,0.0849609-0.0996857,0.1277332-0.1498718
				c0.0444813-0.0482559,0.0939598-0.0910454,0.1412067-0.1371365c0.096384-0.0904465,0.193573-0.1816521,0.2914639-0.2735119
				l0.0372334-0.0340862l0.0186558-0.0170574l0.0093365-0.0085354c0.0058403-0.0046158-0.0064697,0.0043163,0.0142708-0.0114326
				l0.0045433-0.0035934l0.0728054-0.0576439l0.1463242-0.1158581c0.108448-0.078949,0.2273006-0.1664886,0.341156-0.2414608
				c0.115202-0.0732384,0.2305126-0.1481171,0.3517818-0.2138538c0.2385712-0.1386147,0.4900856-0.2591858,0.7479248-0.367178
				c0.2604332-0.1012669,0.5250015-0.1969738,0.797123-0.2674026c0.5431175-0.1437187,1.1050377-0.2175598,1.657795-0.2146378
				c0.1380997-0.0037575,0.2756042,0.0074387,0.4122162,0.0117836c0.068264,0.0040054,0.1360893,0.0128803,0.2037773,0.0191727
				l0.1012955,0.010416l0.0505028,0.0052376l0.0243874,0.0029469l0.0115738,0.0017815l0.02314,0.0035496
				c0.1258621,0.0204105,0.2383881,0.0333595,0.3811073,0.0640659c0.0678062,0.0140018,0.1353722,0.0279598,0.2026787,0.0418568
				c0.0644188,0.0172539,0.1285858,0.0344391,0.1924858,0.051548c0.5094948,0.1376171,0.9843941,0.3467693,1.393959,0.6067257
				c0.410347,0.2599201,0.7510567,0.5699387,1.0237846,0.8830032c0.0651817,0.0806046,0.1290092,0.1595249,0.191391,0.2366581
				c0.0598297,0.0785713,0.1117439,0.1601753,0.1639366,0.2377853c0.1080933,0.1527557,0.186985,0.3116989,0.2658653,0.4560356
				c0.1478996,0.2946587,0.2487602,0.5608063,0.3158607,0.7834167c0.0794106,0.2175255,0.1048393,0.4003563,0.1347351,0.5191307
				c0.0246086,0.1203232,0.037735,0.1844864,0.037735,0.1844864s-0.0338554-0.0562935-0.0973396-0.1618423
				c-0.0625954-0.1051826-0.14748-0.261795-0.2746391-0.4476357c-0.1184883-0.1901321-0.2820473-0.407238-0.4746819-0.642498
				c-0.1032562-0.11269-0.1998634-0.2410011-0.3255234-0.3544846c-0.0613823-0.0577431-0.1185875-0.1215363-0.1839409-0.179821
				c-0.0665359-0.0564003-0.134613-0.114109-0.2041359-0.1730385c-0.2829475-0.2269707-0.6084862-0.4402561-0.9768677-0.6103783
				c-0.3674088-0.1718178-0.7768822-0.2992916-1.212101-0.3794117l-0.1636696-0.028801l-0.1599579-0.020586
				c-0.0991096-0.0167294-0.2340355-0.0249748-0.3555603-0.0366859L35.946907,31.233942l-0.0116692-0.0010395l-0.0058327-0.0005188
				c0.0227966,0.0024891,0.003231,0.0005875,0.0069275,0.0010929l-0.043026-0.0015507l-0.0861664-0.0031719
				c-0.0575256-0.0015316-0.1150017-0.0057983-0.172821-0.0053196c-0.1155968,0.0015831-0.2315674-0.0045776-0.3479462,0.0037346
				c-0.4650536,0.0205727-0.9359932,0.0839596-1.3916283,0.2105675c-0.4581871,0.1165333-0.9002304,0.2924175-1.3149757,0.5059643
				c-0.1052017,0.0508804-0.2039299,0.1123219-0.3052177,0.1685734c-0.100666,0.0576363-0.1878738,0.1139374-0.2858334,0.1749229
				l-0.1533585,0.1063728l-0.0763054,0.0529251l-0.0562344,0.0458374c-0.0878887,0.0697327-0.1751442,0.138958-0.2616806,0.2076149
				c-0.0428925,0.0348244-0.0887737,0.0668602-0.1290436,0.1035576l-0.1150723,0.114418
				c-0.0762005,0.0762863-0.1537399,0.1504211-0.2311687,0.2238846c-0.0693874,0.0793228-0.1338654,0.1613121-0.2007713,0.240593
				c-0.0673714,0.0790901-0.1336536,0.1578712-0.1862068,0.2439079c-0.0568867,0.0841103-0.112999,0.1670723-0.1682682,0.2487869
				c-0.0506191,0.0846329-0.0917015,0.1727676-0.1395226,0.2565689c-0.0232143,0.042408-0.0462322,0.0844536-0.069046,0.1261368
				c-0.0217896,0.0422401-0.0371494,0.0866623-0.0559502,0.1294289c-0.0367298,0.0865135-0.0727711,0.1714058-0.1080761,0.2545586
				c-0.1162663,0.3417702-0.2121983,0.6693878-0.2520523,0.9704399c-0.0319996,0.1497307-0.0346355,0.2922173-0.0548878,0.4250374
				c-0.0085754,0.1324539-0.0186195,0.2560921-0.0192299,0.3675308c-0.0010014,0.2228851,0.0008316,0.4018784,0.0125484,0.5227203
				C29.7329712,37.0487251,29.7416801,37.1144104,29.7416801,37.1144104z"/>
		</g>
		<g>
			<path class="st0" d="M32.3792725,36.5074005c0,0-0.0218735-0.0307388-0.0563469-0.0933037
				c-0.0322723-0.0625343-0.0841179-0.1549072-0.1320267-0.2790642c-0.0511093-0.1236572-0.1015968-0.2784233-0.1435318-0.4626884
				c-0.0247955-0.0919151-0.0341759-0.1918831-0.053009-0.2982864c-0.0099277-0.1067085-0.021244-0.2203369-0.0214348-0.3404617
				c-0.0020199-0.2400703,0.0264721-0.5064316,0.104393-0.7853699c0.0840607-0.2747688,0.2086868-0.5691757,0.4102898-0.8272514
				c0.0506668-0.0635033,0.093338-0.1374054,0.153759-0.1935883c0.0586205-0.0586891,0.1176567-0.117794,0.1770592-0.1772575
				l0.0452118-0.0444336l0.0113602-0.0111046l0.0056877-0.0055542c-0.0090218,0.0067863,0.0155106-0.0124321,0.0138741-0.0111732
				l0.0025024-0.0021172l0.0200653-0.016964l0.0805168-0.0680847c0.0637398-0.0485229,0.1476097-0.110096,0.2158127-0.1524239
				c0.2824745-0.1876793,0.6040268-0.3229141,0.936882-0.4097786c0.3346519-0.0802841,0.6814194-0.1109161,1.0182457-0.0798302
				c0.0839462,0.0092239,0.1677589,0.0161781,0.2500343,0.0314217l0.1356506,0.0261765l0.1016006,0.025959l0.0521736,0.013607
				l0.0633507,0.0185852l0.125309,0.0379791c0.0765228,0.028389,0.1522446,0.0560303,0.2250214,0.0899696
				c0.2935219,0.1294174,0.5525818,0.3059959,0.7634468,0.5018196c0.2099304,0.1973572,0.3770065,0.4090271,0.4965515,0.61866
				c0.0637703,0.1024246,0.1095467,0.2079544,0.1575279,0.3040504c0.0390015,0.1009445,0.07827,0.1939545,0.107399,0.2839317
				c0.0258293,0.0914459,0.0511665,0.1751556,0.0706062,0.2534943c0.0161934,0.0795403,0.0299454,0.1520996,0.0405388,0.2177887
				c0.0261841,0.1294441,0.0233192,0.2370186,0.0315933,0.3061676c0.0047073,0.0703964,0.0049973,0.1080704,0.0049973,0.1080704
				s-0.0226746-0.0302773-0.0651932-0.0870476c-0.0420647-0.0563011-0.0972977-0.1412086-0.177002-0.2412186
				c-0.0381088-0.0499916-0.0802994-0.1053391-0.1262321-0.165596c-0.0500946-0.0569801-0.0999603-0.1196175-0.15448-0.1845436
				c-0.0567207-0.0616074-0.1170731-0.1271629-0.1806984-0.1962738c-0.0698318-0.0619202-0.1316833-0.1349716-0.2099762-0.196106
				c-0.1454124-0.1326294-0.3163719-0.2517738-0.4995804-0.3556404c-0.1836281-0.104023-0.3851318-0.1862221-0.5990524-0.2445297
				c-0.0529633-0.0159378-0.1094666-0.0231819-0.1631393-0.0383987l-0.0750656-0.0129318l-0.0373535-0.0069809l-0.0499573-0.0070915
				l-0.1038933-0.0142326l-0.0032578-0.0004425c-0.0041656-0.0007401,0.0241089,0.0045013,0.0108948,0.0022163l-0.0053635-0.0003471
				l-0.0107231-0.0007019l-0.0214424-0.0014305l-0.0428658-0.0029984c-0.0567703-0.0068321-0.1145973-0.0065727-0.1720123-0.0093765
				c-0.2305183-0.0000534-0.4641075,0.0223808-0.6897049,0.0815315c-0.2265511,0.0541039-0.4440575,0.1418343-0.6458778,0.2512398
				c-0.0548134,0.0286636-0.08564,0.050457-0.1382065,0.0809212l-0.0876999,0.0585365l-0.0218544,0.0145836l-0.0027275,0.0018272
				c-0.003437,0.0025063,0.019516-0.0151978,0.0088806-0.0069389l-0.0040054,0.0032539l-0.0080109,0.0065079l-0.032135,0.0259056
				c-0.086113,0.0686073-0.1761932,0.1331825-0.2487602,0.2122231c-0.1591988,0.1468124-0.2800636,0.3231316-0.3878517,0.5032463
				c-0.049305,0.0928459-0.1001053,0.1840134-0.1367989,0.2804184c-0.045433,0.0931549-0.0734329,0.1903152-0.1065063,0.2838936
				c-0.0336227,0.093586-0.052124,0.1879578-0.0789337,0.2775078c-0.0186615,0.0907478-0.0408745,0.17799-0.0543823,0.2616615
				c-0.0306396,0.1671295-0.0505981,0.3179741-0.0633011,0.4437599
				C32.382473,36.3551826,32.3792725,36.5074005,32.3792725,36.5074005z"/>
		</g>
	</g>
	<g>
		<g>
			<path class="st0" d="M23.3567905,40.4013214c0,0-5.5258484-0.3425598-8.7730961,11.5984383
				c0,0,2.9860172-3.874424,6.0986519-4.0000534c3.1126328-0.1256332,5.8777409-0.3734283,6.7572365-1.7056236
				c0.8794975-1.3321953,0.8207302-3.5275078,0.8207302-3.5275078s-1.3396378,2.4631081-3.874979,2.346756
				c-3.0639668-0.1406097-4.695961,0.4225655-5.089716,0.92342C19.2956181,46.0367508,19.4887924,42.7839317,23.3567905,40.4013214z
				"/>
		</g>
		<g>
			<path class="st0" d="M38.9260902,55.9262581c0,0-0.0380287,0.077919-0.125267,0.2154236
				c-0.0885544,0.1361237-0.2203941,0.3376503-0.4204941,0.5695801c-0.1986237,0.232605-0.4539948,0.5091095-0.7920761,0.7794418
				c-0.1661758,0.1389999-0.3548889,0.272583-0.5584221,0.4096146c-0.2073593,0.130249-0.4327011,0.2590942-0.6799088,0.3712006
				c-0.4897118,0.2345238-1.0641403,0.4112625-1.6904755,0.4975853c-0.6263885,0.0803909-1.3018303,0.0636787-1.9785919-0.0569344
				c-0.1679344-0.0337524-0.3380814-0.0673447-0.5069008-0.1093979c-0.1689606-0.0496979-0.3313999-0.0876236-0.5093212-0.1489792
				c-0.1576176-0.0536461-0.3100529-0.1004219-0.4845085-0.1718521l-0.2540989-0.1017609l-0.2434921-0.1109886
				c-0.6518784-0.295475-1.2723503-0.6851234-1.8414173-1.138031c-0.2858257-0.2252502-0.5505753-0.475502-0.8082428-0.7297745
				c-0.2511673-0.2608871-0.4901066-0.5318642-0.7052975-0.8175468c-0.2217865-0.2805901-0.4149609-0.5789719-0.5949879-0.8787766
				c-0.0469837-0.0737572-0.0857792-0.1521835-0.1287308-0.2276497c-0.0431595-0.0790329-0.0861778-0.1577988-0.1290474-0.2362823
				c-0.0357838-0.0733337-0.0714474-0.1464005-0.1069622-0.2191887l-0.0525875-0.1092758l-0.0522175-0.1197052
				c-0.2812691-0.6326141-0.4700832-1.2567253-0.5783234-1.8732567c-0.1084976-0.6138535-0.1223812-1.2066879-0.076931-1.7432976
				c0.0154266-0.2689323,0.0619144-0.5233612,0.1020908-0.76334c0.0618725-0.2369156,0.1036682-0.4632378,0.1776161-0.6670418
				c0.0332489-0.1023254,0.0654335-0.2013702,0.0964947-0.2969666c0.0322266-0.0948944,0.0733223-0.1831436,0.1090317-0.2686691
				c0.0363541-0.0850143,0.0712261-0.1665649,0.1045475-0.2444954c0.0345993-0.0771446,0.0745564-0.1478462,0.1086063-0.2161751
				c0.070816-0.1355553,0.1293678-0.2578163,0.191618-0.3585739c0.0630074-0.0998955,0.1165962-0.184864,0.1600494-0.2537575
				c0.087965-0.1358681,0.1348839-0.2083321,0.1348839-0.2083321s-0.0269566,0.0821266-0.0774994,0.2361145
				c-0.0258026,0.0760345-0.0576286,0.1698151-0.095047,0.2800674c-0.0347748,0.1108589-0.0661831,0.2412376-0.1080189,0.3834534
				c-0.0191154,0.0717926-0.0432377,0.1458473-0.0610275,0.2257652c-0.0163631,0.0800896-0.0334835,0.1638985-0.0513325,0.2512665
				c-0.0162563,0.087471-0.0388126,0.1766396-0.0550919,0.2706108c-0.0139103,0.0942421-0.0283165,0.1918755-0.0431976,0.2927437
				c-0.0371628,0.1996117-0.0394382,0.4173431-0.0601387,0.6413651c0.000658,0.2265434-0.0175495,0.4617767,0.0030289,0.7075157
				c0.0251274,0.490303,0.1072884,1.0147591,0.2554569,1.5508842c0.1463051,0.5336113,0.3698864,1.0893784,0.6434822,1.6155396
				l0.0505962,0.0987434l0.0597878,0.1055107c0.0395355,0.0706863,0.0792351,0.1416435,0.1190701,0.2128601
				c0.0386696,0.0628014,0.077486,0.125824,0.1164207,0.189064c0.0416069,0.0653191,0.078867,0.133522,0.1241684,0.1970406
				c0.0896568,0.127491,0.1718464,0.2608948,0.2696495,0.3844376c0.0922909,0.1273727,0.1867008,0.2539749,0.2889519,0.3753471
				c0.4008064,0.4912567,0.8564587,0.9505386,1.362112,1.3484802c0.4995899,0.4051666,1.0455074,0.7523766,1.613018,1.0349274
				l0.2129593,0.1048698l0.2096596,0.0921249c0.1316509,0.06353,0.2946396,0.1231461,0.4474201,0.1832733
				c0.1321602,0.0535851,0.2883949,0.0984879,0.430088,0.1482506c0.1459084,0.0431976,0.2912521,0.084446,0.4360123,0.1234474
				c0.5813637,0.1403732,1.1575661,0.2041855,1.7052422,0.1878014c0.2731171-0.0127106,0.5400848-0.0359993,0.7954597-0.0828018
				c0.1291733-0.0170441,0.2525558-0.0508308,0.3765182-0.0750732c0.1208191-0.0346527,0.2428894-0.0605392,0.3576546-0.1011086
				c0.4637985-0.1487007,0.8783836-0.3372726,1.2303619-0.5383682c0.3514595-0.2018089,0.6463051-0.4065514,0.8792648-0.5895882
				c0.231842-0.184288,0.4093933-0.3394356,0.5239372-0.4519882C38.8675499,55.9901543,38.9260902,55.9262581,38.9260902,55.9262581
				z"/>
		</g>
		<g>
			<path class="st0" d="M37.2911415,54.5809669c0,0-0.0336914,0.0563164-0.1100616,0.1540146
				c-0.0763702,0.0970383-0.191391,0.2394485-0.3598442,0.40065c-0.0830193,0.0820923-0.1812744,0.1658974-0.2881889,0.2596283
				c-0.111927,0.0858116-0.2306786,0.1859207-0.3710442,0.2724533c-0.2715149,0.1908455-0.6122818,0.3537216-1.0010109,0.5040016
				c-0.0999451,0.0299072-0.2019768,0.0604362-0.305954,0.0915489c-0.0524788,0.0144234-0.1049576,0.0326576-0.1592178,0.044239
				c-0.0546265,0.0103188-0.1097412,0.0207291-0.1653328,0.0312309c-0.111496,0.0201607-0.225502,0.0435104-0.3421669,0.0575676
				c-0.1175346,0.007782-0.2368584,0.015686-0.35783,0.0236969c-0.0606422,0.0023422-0.1223564,0.010891-0.1836433,0.0079269
				c-0.0613899-0.0033836-0.1231613-0.0067902-0.1853218-0.0102196c-0.1243668-0.0078125-0.2514153-0.0129776-0.3789101-0.0245018
				c-0.1253395-0.0208931-0.2525063-0.0425797-0.3806839-0.0670052c-0.0642128-0.0120544-0.1287308-0.0241623-0.1935387-0.0363274
				c-0.0639839-0.0146027-0.1257133-0.0362625-0.1891899-0.0543442c-0.1263962-0.0386658-0.2538452-0.077652-0.3822155-0.1169243
				l-0.0480862-0.015358l-0.0240746-0.0077095l-0.0120487-0.0038567c-0.0069084-0.0027695,0.0069618,0.0034676-0.0170135-0.0066986
				l-0.0053768-0.0021553l-0.0862083-0.0345154l-0.1732712-0.0693626c-0.1224174-0.0548477-0.2574577-0.1144562-0.3791103-0.175972
				c-0.1208172-0.063549-0.2431126-0.1263771-0.3604393-0.1989174c-0.2388725-0.138092-0.4685268-0.2963829-0.6904106-0.4664192
				c-0.2173386-0.1756248-0.4319057-0.357605-0.6282978-0.5587044c-0.3947029-0.3997993-0.7381248-0.8506546-1.0103836-1.3317184
				c-0.0719166-0.1179543-0.1305599-0.2428322-0.1947041-0.3635254c-0.0304623-0.0612221-0.0564804-0.124485-0.0846691-0.1863441
				l-0.0413208-0.093071l-0.0205612-0.0464211l-0.0095673-0.022625l-0.0042095-0.0109291l-0.0084248-0.021843
				c-0.0448589-0.1193542-0.0895653-0.2234268-0.1338711-0.3625221c-0.0215626-0.0657997-0.0430412-0.1313629-0.0644417-0.1966705
				c-0.0170536-0.0644722-0.0340424-0.1286926-0.0509663-0.1926422c-0.1338825-0.5104904-0.1884956-1.0265236-0.1665478-1.5111237
				c0.0215263-0.48526,0.1211433-0.935009,0.2571964-1.327282c0.0375328-0.0966301,0.0742798-0.1912422,0.1101933-0.2837143
				c0.0384331-0.0909729,0.0834274-0.1765862,0.1248207-0.2604561c0.0788059-0.1697311,0.177496-0.3171997,0.2635212-0.4573975
				c0.1821384-0.2748146,0.3629265-0.4946404,0.5227203-0.6635284c0.1492615-0.1770439,0.2952614-0.2899971,0.3834553-0.3749847
				c0.092165-0.0811691,0.1413116-0.1244583,0.1413116-0.1244583s-0.032011,0.0573616-0.0920353,0.164917
				c-0.0601444,0.1066055-0.1538315,0.2581139-0.2518654,0.4608345c-0.1060696,0.1973305-0.2131329,0.4471779-0.321497,0.7312775
				c-0.0464458,0.1456146-0.1097488,0.2932281-0.1457462,0.4586754c-0.0195885,0.0819664-0.0465012,0.1633148-0.0645828,0.2489967
				c-0.0158577,0.0857697-0.0320892,0.1735268-0.0486584,0.2631454c-0.0562687,0.3583412-0.0794945,0.7468338-0.043972,1.1510429
				c0.0335732,0.4042053,0.1265316,0.8228683,0.2733746,1.2403221l0.0563793,0.1563339l0.0616589,0.149025
				c0.0347538,0.0943108,0.094677,0.2154808,0.1449299,0.3267479l0.0097904,0.0212669l0.0048981,0.0106392l0.0024509,0.0053215
				c-0.0091743-0.021019-0.0010967-0.0030975-0.0024967-0.0065575l0.0200462,0.038105l0.0400848,0.0763397
				c0.0272675,0.0506744,0.0521393,0.1026688,0.0812969,0.1525955c0.0588417,0.099514,0.1111507,0.2032013,0.1762199,0.3000488
				c0.2490444,0.3932838,0.5381641,0.7703934,0.8745327,1.1027946c0.3288937,0.3396225,0.7012596,0.6357346,1.0927315,0.8894348
				c0.0964489,0.0659866,0.1988392,0.1211052,0.2980022,0.1810265c0.1000538,0.0586929,0.1922588,0.1063728,0.2938747,0.1610489
				l0.1685371,0.0801849l0.0838547,0.0398941l0.0677299,0.0260086c0.1041946,0.0415916,0.2076416,0.0828857,0.3102303,0.1238365
				c0.0515404,0.0199051,0.1021461,0.0437889,0.154007,0.0604858l0.1564827,0.0429649
				c0.1040726,0.0281906,0.2069473,0.0586166,0.3091812,0.0892792c0.1033249,0.0207672,0.2065163,0.0359573,0.308567,0.0545959
				c0.1021194,0.0191345,0.2034225,0.0374832,0.304203,0.0403099c0.1012611,0.0075455,0.2011375,0.0149879,0.2995186,0.0223198
				c0.0985947,0.0018501,0.1954918-0.006321,0.2919769-0.0064888c0.0483398-0.0009422,0.0962639-0.001873,0.1437721-0.0028
				c0.0474854-0.0020943,0.0936661-0.010849,0.1401176-0.0157967c0.0933266-0.0111389,0.1848984-0.0220718,0.274601-0.0327759
				c0.3543434-0.0690231,0.6862984-0.1486588,0.9673271-0.2637405c0.1458282-0.0466728,0.2707672-0.1152229,0.39608-0.1636772
				c0.1191902-0.0584068,0.2314606-0.1111565,0.3284569-0.1660271c0.1938896-0.1099358,0.3482857-0.2005119,0.4473114-0.270752
				C37.2384796,54.6211777,37.2911415,54.5809669,37.2911415,54.5809669z"/>
		</g>
		<g>
			<path class="st0" d="M35.4532127,52.5941696c0,0-0.0158005,0.0342598-0.052948,0.0952759
				c-0.0382156,0.0590897-0.0925865,0.1499939-0.1764984,0.2532883c-0.0818825,0.1058197-0.1910706,0.2265663-0.3301086,0.354557
				c-0.067421,0.0672073-0.1495018,0.1250458-0.23246,0.1942825c-0.0876503,0.0616646-0.1806183,0.1279716-0.2847519,0.1878548
				c-0.2072983,0.1211014-0.4525757,0.2287941-0.7333412,0.2998581c-0.280201,0.0636597-0.5976028,0.1018867-0.9217529,0.0552597
				c-0.0802879-0.012394-0.1656265-0.0126762-0.2444115-0.0371742c-0.0800667-0.0216827-0.1606979-0.0435295-0.2418213-0.065506
				l-0.0610352-0.0171394l-0.0152817-0.0043373l-0.0076485-0.0021706c0.010376,0.0044518-0.0184975-0.0072784-0.0165901-0.006485
				l-0.0030823-0.0011215l-0.0246925-0.008976l-0.099102-0.0360146c-0.0737896-0.0311813-0.168911-0.0733414-0.2395439-0.1114807
				c-0.3032703-0.1517944-0.5804672-0.3635635-0.82131-0.6091919c-0.2360306-0.2504539-0.4349995-0.5361061-0.5754757-0.8438148
				c-0.0337296-0.0774231-0.0693626-0.1536026-0.0970364-0.2325668l-0.0447254-0.1307144l-0.0279827-0.101059l-0.0141335-0.0520363
				l-0.0153675-0.0642052l-0.0293427-0.1276131c-0.0134087-0.0805092-0.0270691-0.1599503-0.0338001-0.2399712
				c-0.0336304-0.3190193-0.0092068-0.6315804,0.0558758-0.9118919c0.0668755-0.2802658,0.1674786-0.5304604,0.2899399-0.7384033
				c0.0571671-0.1062508,0.1259766-0.1984329,0.185503-0.287838c0.0681973-0.0840225,0.1293793-0.1643333,0.1929703-0.2343369
				c0.0665035-0.0678749,0.1265392-0.1314735,0.1848488-0.1872864c0.0609627-0.0535927,0.1170845-0.1016006,0.1688137-0.1434479
				c0.0992966-0.0870667,0.1940594-0.1380615,0.2499466-0.1796188c0.0587406-0.0390816,0.0912876-0.0580635,0.0912876-0.0580635
				s-0.0150013,0.0347328-0.0431213,0.0998459c-0.0279388,0.0644875-0.074152,0.1546211-0.1213036,0.2734985
				c-0.0244312,0.0579147-0.0514793,0.1220398-0.0809288,0.1918526c-0.0245361,0.0717888-0.0540943,0.1461945-0.0833244,0.2257805
				c-0.0252571,0.0798378-0.0521336,0.1647949-0.0804691,0.2543602c-0.0190105,0.0913734-0.0516472,0.1813583-0.0657692,0.2796822
				c-0.0427895,0.1921043-0.0611782,0.3996735-0.0602226,0.6102753c0.0010319,0.2110405,0.0298862,0.4267426,0.0856419,0.641346
				c0.0125008,0.053875,0.0343037,0.1065063,0.0477848,0.1606369l0.0260983,0.0715637l0.0125122,0.035881l0.0186787,0.0468712
				l0.0393028,0.0972252l0.0012341,0.0030441c0.0014305,0.0039787-0.0080795-0.023159-0.0034904-0.0105553l0.0023651,0.0048256
				l0.0047207,0.009655l0.0094185,0.0193176l0.0187092,0.038681c0.0222931,0.0526543,0.0512657,0.1027031,0.0773773,0.1539116
				c0.1145535,0.2000389,0.2501431,0.3915672,0.41362,0.5579033c0.1595707,0.1696777,0.3438244,0.314785,0.5390873,0.4355125
				c0.0521164,0.0333061,0.0863533,0.0492249,0.138916,0.079689l0.0943909,0.0469933l0.0235176,0.0117111l0.0029411,0.001461
				c0.0038872,0.0017357-0.0228882-0.0093803-0.010437-0.0042572l0.004818,0.0018578l0.0096283,0.0037155l0.0384521,0.0150032
				c0.1023369,0.0406113,0.2031517,0.0866699,0.3078079,0.1103401c0.2065277,0.0651474,0.4196014,0.0823631,0.629467,0.0863457
				c0.105072-0.003376,0.2094307-0.0046196,0.3113213-0.02071c0.1034164-0.0068893,0.2016373-0.0308952,0.2992706-0.0487213
				c0.0979195-0.0173531,0.1889992-0.048214,0.2800331-0.0694733c0.0880165-0.0289192,0.1747513-0.0530167,0.2540665-0.0828934
				c0.1602478-0.0564995,0.3010521-0.1141701,0.4165077-0.1656837
				C35.3195457,52.6670647,35.4532127,52.5941696,35.4532127,52.5941696z"/>
		</g>
	</g>
	<g>
		<g>
			<path class="st0" d="M43.2752037,58.2832985c0,0,2.3528099,5.0116463,14.3864212,2.1264648
				c0,0-4.8323364-0.7589264-6.4371033-3.4289436c-1.6047707-2.6700211-3.149826-4.9765358-4.7407036-5.108345
				c-1.5908737-0.1318092-3.4883423,0.9738464-3.4883423,0.9738464s2.803833-0.0075874,3.9191437,2.2722321
				c1.3478584,2.7551689,2.6254845,3.9163055,3.2538872,4.0212097
				C50.1685066,59.1397629,47.2224464,60.5321922,43.2752037,58.2832985z"/>
		</g>
		<g>
			<path class="st0" d="M49.4175987,37.1717415c0,0,0.0866089-0.004055,0.2491112,0.006443
				c0.1619301,0.0123177,0.4020081,0.0312004,0.7015305,0.0953598c0.299408,0.062542,0.6645699,0.1537819,1.0640373,0.3205376
				c0.2017174,0.0790215,0.4095039,0.1804161,0.6274376,0.2931519c0.2138176,0.1193542,0.4350395,0.2551537,0.6520767,0.4181671
				c0.4408607,0.3169556,0.8717079,0.7359695,1.2481728,1.2439308c0.3712845,0.5108566,0.6809425,1.1113663,0.9001007,1.7629204
				c0.0510292,0.163517,0.10326,0.3288956,0.1474342,0.4971733c0.0375328,0.1720734,0.0822639,0.3327713,0.1138725,0.5182991
				c0.0286255,0.1640167,0.0607872,0.3201942,0.0818977,0.5075188l0.0327454,0.2717514l0.019558,0.26688
				c0.0538216,0.7136917,0.0099564,1.4450493-0.1140823,2.1616936c-0.0603409,0.3588753-0.1527328,0.7112694-0.2520561,1.0593834
				c-0.1082458,0.3455887-0.2312088,0.6852913-0.3784828,1.0112267c-0.1396294,0.3292732-0.3086128,0.6419983-0.4851532,0.9438667
				c-0.042141,0.0766296-0.0923042,0.1483154-0.1378784,0.222229c-0.0485992,0.0758057-0.0970383,0.1513596-0.145298,0.2266502
				c-0.047142,0.0666008-0.0941124,0.1329689-0.1409073,0.1990738l-0.0706062,0.0985985l-0.0799294,0.1032791
				c-0.4198608,0.5504799-0.8766594,1.0157814-1.3654938,1.4067612c-0.4863663,0.3899193-0.9997215,0.6867561-1.4922485,0.9045448
				c-0.243309,0.1156006-0.4888115,0.1969872-0.7186089,0.2769737c-0.2375259,0.0594864-0.4561195,0.1314926-0.6703987,0.1644859
				c-0.1057205,0.0199699-0.2080574,0.0392952-0.3068275,0.0579491c-0.0987129,0.0172958-0.1958542,0.0236206-0.2880211,0.0333633
				c-0.0920296,0.008934-0.1803093,0.0175018-0.2646675,0.025692c-0.0842819,0.006691-0.1654892,0.0055923-0.2417717,0.0085297
				c-0.1529121,0.0029716-0.2882729,0.0103149-0.4065437,0.0040932c-0.1178818-0.0073051-0.2181435-0.0135117-0.2994423-0.0185509
				c-0.1614151-0.0119209-0.247509-0.0182838-0.247509-0.0182838s0.0849838-0.015789,0.2443275-0.0453911
				c0.0790863-0.0138779,0.1766281-0.0309868,0.2913055-0.0511055c0.1139412-0.0227242,0.2433891-0.0577774,0.3882294-0.0893669
				c0.0721512-0.017704,0.1486931-0.0321007,0.2273369-0.0548706c0.0781097-0.0241051,0.1598473-0.0493279,0.2450523-0.0756187
				c0.0845375-0.0277443,0.173584-0.0507736,0.2638283-0.0816154c0.0893478-0.0330467,0.1819077-0.0672913,0.2775307-0.1026688
				c0.1929436-0.0632477,0.385025-0.1657982,0.5914726-0.2552071c0.1983986-0.1093559,0.4134865-0.2063332,0.6191597-0.3423805
				c0.4180222-0.2574654,0.8386116-0.581356,1.2377472-0.9687538c0.3978233-0.3845558,0.777977-0.8475342,1.1081429-1.340168
				l0.0623207-0.0917969l0.0638466-0.1031075c0.0430183-0.0686188,0.0862007-0.1375122,0.1295433-0.2066536
				c0.0365181-0.0640755,0.0731659-0.1283836,0.1099434-0.1929016c0.0373192-0.0678596,0.0792542-0.1332932,0.1132164-0.2035294
				c0.0687866-0.1398621,0.1463394-0.2760124,0.2077484-0.4211235c0.0674133-0.1421165,0.1331367-0.2857208,0.1905022-0.4336891
				c0.2384682-0.5874634,0.4225578-1.2076836,0.5288277-1.842308c0.1155205-0.6327744,0.157959-1.2783585,0.1333084-1.9118385
				l-0.0102615-0.2371597l-0.0198631-0.2281418c-0.0074844-0.1459885-0.0334511-0.3175812-0.0540733-0.4804688
				c-0.016449-0.1416588-0.0520821-0.3002625-0.0764656-0.4484482c-0.0321693-0.1487312-0.065773-0.2960281-0.1010704-0.4417381
				c-0.1560135-0.5773621-0.376709-1.1134338-0.6540565-1.5859795c-0.1422882-0.2334709-0.290905-0.4564667-0.4545822-0.6580009
				c-0.076973-0.1051254-0.1658516-0.1971321-0.2466393-0.2942276c-0.0884094-0.0893402-0.1697311-0.1839905-0.2604218-0.2651825
				c-0.353138-0.335434-0.717617-0.608551-1.0630188-0.8207436c-0.3457832-0.2113914-0.6669502-0.3717155-0.9393654-0.4881744
				c-0.2729759-0.1148796-0.4943199-0.1961288-0.6480446-0.2425613
				C49.5017548,37.1924133,49.4175987,37.1717415,49.4175987,37.1717415z"/>
		</g>
		<g>
			<path class="st0" d="M49.0225754,39.2518425c0,0,0.0655746,0.0025139,0.1879463,0.0225945
				c0.121788,0.0203934,0.3019333,0.0529099,0.5242233,0.1232719c0.1118736,0.0334053,0.232563,0.0793495,0.3661156,0.1281281
				c0.1290169,0.0569763,0.2738533,0.1130753,0.4171562,0.1946526c0.2977753,0.1465302,0.6042671,0.3672371,0.9227448,0.6360664
				c0.0742226,0.073307,0.1499939,0.1481476,0.227211,0.2244186c0.0378532,0.0391083,0.0790443,0.0763855,0.1152573,0.1184196
				c0.0352783,0.0429611,0.0708771,0.0863113,0.106781,0.1300316c0.0712242,0.0881195,0.1464424,0.1769104,0.2147903,0.2724991
				c0.0632668,0.0993614,0.127491,0.2002335,0.1926041,0.3025017c0.0311737,0.0520668,0.068306,0.1021004,0.0951347,0.1572838
				c0.0265083,0.0554733,0.0531769,0.1112938,0.0800209,0.1674652c0.0528603,0.1128464,0.109333,0.2267723,0.1604424,0.3441353
				c0.0418587,0.1199799,0.0838928,0.2419434,0.1240158,0.3661079c0.0202599,0.0621109,0.0406151,0.1245193,0.0610657,0.1872101
				c0.01791,0.0631371,0.0285492,0.1276817,0.0431709,0.1920433c0.0267715,0.1294403,0.053772,0.2599564,0.0809593,0.3914146
				l0.0096169,0.0495567l0.0047989,0.0248184l0.0023994,0.0124207c0.0008888,0.0073929-0.0002975-0.0077705,0.0022964,0.0181427
				l0.0006905,0.0057487l0.0111198,0.0921936l0.0223503,0.1852989c0.0106697,0.1337166,0.0232239,0.2807922,0.0276756,0.4170418
				c0.0022697,0.1364937,0.0058784,0.2739334-0.0014191,0.4116821c-0.0064316,0.2758408-0.0350113,0.5532951-0.0776215,0.8295708
				c-0.0497017,0.274971-0.1063004,0.5505676-0.1884003,0.819397c-0.1611748,0.5381966-0.391758,1.0559196-0.6830101,1.5257301
				c-0.0689392,0.1197205-0.1503181,0.2311211-0.2253914,0.3453407c-0.0390739,0.056118-0.0820732,0.109314-0.1227989,0.1637459
				l-0.0617981,0.0809326l-0.0308495,0.040329l-0.0152512,0.0192528l-0.0075684,0.0089417l-0.0151138,0.0178795
				c-0.0831566,0.0966568-0.1529808,0.1858444-0.2537193,0.2915001c-0.0473633,0.0505028-0.0945587,0.1008263-0.141571,0.150959
				c-0.0483627,0.0459137-0.0965385,0.0916519-0.1445084,0.1372032c-0.3835068,0.3625565-0.8099403,0.6582413-1.2455597,0.8716774
				c-0.435997,0.214119-0.8783379,0.3426895-1.2877617,0.4117012c-0.1027832,0.0134735-0.2034187,0.0266685-0.3017807,0.0395699
				c-0.0982552,0.0099678-0.1949577,0.0116081-0.2883987,0.0155678c-0.1867256,0.0123711-0.3634682-0.0033875-0.5277519-0.011528
				c-0.3285179-0.0278168-0.6081543-0.0808487-0.8330231-0.1399231c-0.2269707-0.0459175-0.3961563-0.119751-0.5130539-0.1563034
				c-0.1154518-0.0418701-0.177021-0.0641975-0.177021-0.0641975s0.0656853,0.0005379,0.1888542,0.001545
				c0.1223869,0.0015717,0.3002739,0.0110016,0.5251694-0.0003433c0.2240219-0.001709,0.4945946-0.0277596,0.7958298-0.0691185
				c0.1500359-0.0291786,0.3099098-0.044529,0.4723244-0.0923958c0.0813065-0.022171,0.1655846-0.0376244,0.2494278-0.0629044
				c0.0828476-0.0272751,0.1676178-0.055172,0.2541885-0.0836716c0.3413467-0.1227036,0.6932793-0.288868,1.0307846-0.5141144
				c0.3384438-0.2235336,0.6610489-0.5060997,0.9567223-0.8353539l0.1100616-0.1245193L50.56427,47.91782
				c0.06604-0.0757713,0.1435547-0.1865158,0.2170258-0.2840233l0.0139542-0.0187988l0.0069809-0.009407l0.0034904-0.0047035
				c-0.0140305,0.0181427-0.0021896,0.002449-0.0045509,0.0053368l0.0237999-0.0358772l0.047718-0.0718193
				c0.0313568-0.0482483,0.0650215-0.0950317,0.0948143-0.1445808c0.0590401-0.0993996,0.1248741-0.1950684,0.1785851-0.2986488
				c0.225399-0.4072952,0.417366-0.84198,0.5474319-1.2966423c0.1399918-0.4515724,0.2209358-0.9203873,0.2555084-1.3855934
				c0.01157-0.1162872,0.0107574-0.2325706,0.0157051-0.3483276c0.0034409-0.1159439,0.000988-0.2197189,0.0001602-0.3351059
				l-0.0105896-0.1863403l-0.0052681-0.0927124l-0.0097084-0.0718994c-0.013546-0.1113663-0.0269966-0.2219353-0.0403328-0.3315926
				c-0.0072861-0.0547638-0.0106354-0.1106224-0.0208931-0.1641312l-0.0374489-0.1578941
				c-0.0252419-0.1048279-0.0479507-0.2096748-0.0701447-0.3140755c-0.0313911-0.100605-0.0676193-0.1984177-0.1002693-0.2968826
				c-0.0322456-0.0987663-0.0647964-0.1964378-0.1107063-0.2861977c-0.0420036-0.0924454-0.0834312-0.1836319-0.1242409-0.2734489
				c-0.0457191-0.0873756-0.099411-0.1684456-0.1458855-0.2530022c-0.0240364-0.0419464-0.047863-0.0835419-0.0714912-0.1247711
				c-0.0246353-0.0406456-0.0544891-0.0769501-0.0811348-0.1153221c-0.0545807-0.0765114-0.1081429-0.1515923-0.1606026-0.2251358
				c-0.23069-0.2776794-0.4599342-0.5306282-0.6958199-0.7218819c-0.1109657-0.1055069-0.2310829-0.1821861-0.3337593-0.2688408
				c-0.1084633-0.0765076-0.2086411-0.149662-0.3033485-0.2083969c-0.1895294-0.1172905-0.3431168-0.2092323-0.4522781-0.2623672
				C49.0831337,39.2787323,49.0225754,39.2518425,49.0225754,39.2518425z"/>
		</g>
		<g>
			<path class="st0" d="M48.1622963,41.8180199c0,0,0.0376396-0.0025902,0.1089973,0.0006981
				c0.070179,0.0051498,0.1760292,0.0091972,0.3069267,0.0332031c0.1321411,0.0210152,0.2904892,0.058815,0.4695168,0.1193199
				c0.0913277,0.0268707,0.1814728,0.0710983,0.2820396,0.1106186c0.0961761,0.0472794,0.1989784,0.0969925,0.3015099,0.1595802
				c0.2057648,0.1236916,0.4180031,0.2871361,0.6151505,0.4992943c0.1903839,0.2152176,0.3763199,0.4752846,0.4910622,0.7820091
				c0.0276833,0.0763779,0.068409,0.151371,0.0847511,0.2322426c0.0194244,0.0806427,0.0389786,0.1618614,0.058651,0.243576
				l0.0142708,0.0617638l0.0035362,0.0154877l0.0017662,0.0077553c-0.0010757-0.0112381,0.0024948,0.0197182,0.0022774,0.0176659
				l0.0004959,0.0032425l0.0039825,0.0259666l0.015995,0.1042252c0.0080795,0.0797005,0.0167694,0.1833839,0.017231,0.2636528
				c0.0124702,0.3389091-0.0401955,0.6837425-0.140007,1.0129471c-0.1063652,0.3272972-0.2613945,0.6389885-0.4638596,0.9099617
				c-0.0517197,0.0667648-0.1014328,0.1345978-0.1574097,0.1967888l-0.0931854,0.1019974l-0.0752106,0.0730705l-0.0388603,0.0373802
				l-0.0489388,0.0443115l-0.0978508,0.0870132c-0.0641823,0.0504189-0.1273079,0.100544-0.1942673,0.1448746
				c-0.2636909,0.1826782-0.5495911,0.3113327-0.826725,0.3888435c-0.2779541,0.0759087-0.545723,0.1077957-0.7869301,0.1002197
				c-0.1206512,0.0008736-0.2345505-0.0152245-0.3415565-0.0245094c-0.1064491-0.0194778-0.2062759-0.034584-0.298214-0.0567513
				c-0.0914688-0.0257454-0.1760826-0.0478706-0.2530403-0.072216c-0.0762825-0.0277443-0.14534-0.0539207-0.2068863-0.0792046
				c-0.124054-0.0452957-0.2142868-0.1039352-0.2775726-0.1330032c-0.0624847-0.0327606-0.0947647-0.0521965-0.0947647-0.0521965
				s0.0376663-0.0035172,0.108284-0.0101128c0.0699844-0.0064583,0.1712379-0.009201,0.2981529-0.0249176
				c0.0625343-0.006382,0.1317711-0.013443,0.2071495-0.0211334c0.0747566-0.0129471,0.1542168-0.022747,0.23806-0.0353203
				c0.0821609-0.0161819,0.16959-0.0333977,0.2617607-0.051548c0.0892754-0.0271988,0.1838799-0.0417786,0.2769089-0.0765991
				c0.1890564-0.0547104,0.3799629-0.1382446,0.5642357-0.2402077c0.1846275-0.1022377,0.3599854-0.2311211,0.5214577-0.3830719
				c0.041256-0.0368347,0.0769539-0.0812302,0.1179657-0.1190491l0.0502396-0.0572548l0.0254669-0.0282021l0.0321465-0.0388908
				l0.0664101-0.0811577l0.002079-0.0025444c0.0028038-0.0031662-0.0164337,0.0182037-0.0075836,0.0081291l0.0030975-0.0043907
				L49.3172112,46.0028l0.0124207-0.0175362l0.0249481-0.0349846c0.0354843-0.0448418,0.0654716-0.0942841,0.0978546-0.141777
				c0.1204681-0.196537,0.2233658-0.4074364,0.2907791-0.630703c0.072216-0.221447,0.1110306-0.4527435,0.1231728-0.6819916
				c0.0041924-0.0617104,0.0017166-0.0993843,0.0032005-0.1601181l-0.0041008-0.1053658l-0.0010185-0.0262527l-0.0001335-0.0032806
				c-0.0003433-0.0042419,0.0027657,0.0245819,0.0012779,0.0112l-0.0006828-0.0051155l-0.0013657-0.010231l-0.0053024-0.0409317
				c-0.0135155-0.109272-0.0215187-0.2198181-0.0510101-0.3229866c-0.0420189-0.2124443-0.1292267-0.4076157-0.2265015-0.5936165
				c-0.0534172-0.0905457-0.1046181-0.1814919-0.1676521-0.2631416c-0.0557022-0.0874023-0.1239204-0.1620369-0.1864357-0.2391205
				c-0.0622406-0.0775604-0.1330414-0.1426353-0.1954002-0.2122803c-0.0676308-0.0633202-0.1304169-0.1278305-0.1947098-0.1830597
				c-0.126503-0.1134377-0.2447014-0.2092552-0.3453217-0.2857971
				C48.2904205,41.9002724,48.1622963,41.8180199,48.1622963,41.8180199z"/>
		</g>
	</g>
</g>
</svg>
