<?xml version="1.0" encoding="utf-8"?>
<!-- Generator: Adobe Illustrator 25.3.0, SVG Export Plug-In . SVG Version: 6.00 Build 0)  -->
<svg version="1.1" id="Layer_1" xmlns="http://www.w3.org/2000/svg" xmlns:xlink="http://www.w3.org/1999/xlink" x="0px" y="0px"
	 viewBox="0 0 400 140" style="enable-background:new 0 0 400 140;" xml:space="preserve">
<g>
	<g>
		<path d="M147.2657013,47.1840019h2.8370819v12.8761673h-2.8370819V47.1840019z"/>
		<path d="M152.6850433,47.1840019h3.8556213l5.4741211,8.9478874h0.0364532v-8.9478874h2.8370972v12.8761673h-3.7100372
			l-5.6197052-9.1661224h-0.0364532v9.1661224h-2.8370972V47.1840019z"/>
		<path d="M173.8724213,50.3302879c-0.230484-0.2910309-0.5427704-0.5060387-0.9365997-0.645565
			c-0.3942261-0.1392593-0.7670593-0.2092247-1.1184998-0.2092247c-0.2062683,0-0.4183197,0.0244904-0.6365509,0.0727921
			c-0.2182312,0.0485725-0.4244995,0.1244583-0.6183929,0.227253c-0.1940155,0.103199-0.3516998,0.2396317-0.4727936,0.4092979
			c-0.1213684,0.1699333-0.1819153,0.375927-0.1819153,0.618248c0,0.388176,0.1455841,0.685257,0.4364777,0.8912506
			c0.2910309,0.2062645,0.657547,0.3818512,1.1003418,0.5274315c0.4423981,0.1454468,0.9184265,0.2908936,1.4276886,0.4364738
			c0.50914,0.1454506,0.9848938,0.3517113,1.4275665,0.6182518c0.4425354,0.2669449,0.8093109,0.6247101,1.1003418,1.0730247
			c0.2910309,0.448719,0.4364777,1.0489426,0.4364777,1.8005295c0,0.7155304-0.1336212,1.3398361-0.4001617,1.873188
			c-0.2667999,0.5337524-0.6273956,0.9761505-1.0820312,1.3275909c-0.4546356,0.3518448-0.9820709,0.6124649-1.5822906,0.7821312
			c-0.6000824,0.1696663-1.2338104,0.2545662-1.9004974,0.2545662c-0.8366241,0-1.6125641-0.127285-2.3278351-0.3819847
			c-0.7155304-0.2545662-1.3822174-0.6665535-2.0005951-1.2366371l2.0187683-2.2187042
			c0.2910309,0.3881721,0.6575317,0.6882133,1.1003418,0.9001274c0.4423828,0.2123184,0.900116,0.3183441,1.3730621,0.3183441
			c0.230072,0,0.4636536-0.0273132,0.7001953-0.0818062c0.2364044-0.0546265,0.4483185-0.1364326,0.6365509-0.2455521
			c0.1878204-0.1091194,0.3391876-0.2483749,0.4546356-0.4183121c0.115036-0.1696663,0.17276-0.3697395,0.17276-0.6002197
			c0-0.3877678-0.1486816-0.6938667-0.4456329-0.9184303c-0.2972107-0.2241554-0.6700439-0.415081-1.1184998-0.572773
			c-0.4485779-0.1574211-0.9337616-0.3152466-1.4548645-0.4729385c-0.5215149-0.1574211-1.0065613-0.369606-1.4548798-0.6365471
			c-0.4487152-0.2665443-0.8215485-0.6182518-1.1184998-1.0547295c-0.297226-0.4364738-0.4456329-1.012207-0.4456329-1.7277374
			c0-0.6911774,0.1364441-1.2973175,0.4091644-1.8186951c0.2728729-0.5212402,0.6365509-0.9577141,1.0911865-1.3094254
			c0.4547729-0.3515778,0.9789734-0.6152916,1.5731506-0.7911453c0.5940247-0.1755867,1.2063599-0.2637177,1.836853-0.2637177
			c0.7275085,0,1.4305267,0.103199,2.109726,0.3091927c0.6788025,0.2062645,1.2912598,0.5517845,1.836853,1.0365639
			L173.8724213,50.3302879z"/>
		<path d="M188.8034058,55.095192c0,0.7638321-0.1153107,1.4671173-0.34552,2.1097221
			c-0.230484,0.6427383-0.5729065,1.2003059-1.0275421,1.673111s-1.0214996,0.8428116-1.7004242,1.1093521
			c-0.6791992,0.2665443-1.4611969,0.4001503-2.3461304,0.4001503c-0.8973083,0-1.6853485-0.133606-2.3642883-0.4001503
			c-0.6790619-0.2665405-1.2457886-0.6365471-1.7004242-1.1093521s-0.7973328-1.0303726-1.0275421-1.673111
			c-0.230484-0.6426048-0.34552-1.34589-0.34552-2.1097221v-7.91119h2.8370819v7.8020706
			c0,0.4001465,0.0636444,0.7701569,0.1910706,1.1093521c0.1272736,0.3396034,0.305954,0.6337242,0.536438,0.882103
			c0.2302094,0.2486458,0.5060425,0.4427986,0.8274689,0.5819206c0.321167,0.1395264,0.6697845,0.2092247,1.0457153,0.2092247
			c0.3756561,0,0.7213135-0.0696983,1.0366974-0.2092247c0.3151093-0.139122,0.5879822-0.3332748,0.8183289-0.5819206
			c0.2302094-0.2483788,0.4093018-0.5424995,0.5365753-0.882103c0.1272888-0.3391953,0.1909332-0.7092056,0.1909332-1.1093521
			v-7.8020706h2.8370819V55.095192z"/>
		<path d="M191.4222565,47.1840019h4.9832916c0.6544342,0,1.2760468,0.0636406,1.8637543,0.1909256
			c0.5882568,0.1272812,1.103302,0.3395996,1.5462341,0.6365471c0.4423981,0.2972183,0.7938385,0.6973686,1.0548706,1.2003098
			c0.2604828,0.5033455,0.3907166,1.1307449,0.3907166,1.8823357c0,0.9094124-0.2362671,1.6822586-0.7093353,2.3188095
			c-0.4725342,0.6365509-1.1635742,1.0397911-2.0731201,1.2094574l3.2738342,5.4377823h-3.4008484l-2.6920471-5.1468887h-1.4003906
			v5.1468887h-2.8369598V47.1840019z M194.2592163,52.5126648h1.6732483c0.2545624,0,0.5242004-0.0090141,0.8094482-0.0271797
			c0.2846985-0.0182991,0.5424957-0.0727882,0.7728424-0.1637459c0.2303467-0.0909538,0.4214172-0.2333069,0.5731812-0.4273262
			c0.1512299-0.193882,0.2271118-0.4666138,0.2271118-0.8184586c0-0.3273544-0.0667267-0.5879784-0.2001953-0.7819977
			c-0.1334839-0.193882-0.303009-0.3424225-0.50914-0.4456215c-0.206131-0.1027985-0.4429321-0.1727638-0.7093353-0.2090912
			c-0.2669525-0.0364609-0.5274353-0.0546265-0.7819977-0.0546265h-1.8551636V52.5126648z"/>
		<path d="M207.4444427,47.1840019h2.345993l5.601532,12.8761673h-3.2006531l-1.1094818-2.7279739h-5.0014343l-1.0728912,2.7279739
			h-3.1282654L207.4444427,47.1840019z M208.5356293,50.9305077l-1.5639801,4.0010719h3.146286L208.5356293,50.9305077z"/>
		<path d="M216.6833649,47.1840019h3.8556213l5.4742432,8.9478874h0.0363312v-8.9478874h2.8370972v12.8761673h-3.7100525
			l-5.6198273-9.1661224h-0.0363312v9.1661224h-2.8370819V47.1840019z"/>
		<path d="M239.9255524,50.5303612c-0.2790527-0.3393326-0.6213379-0.6002235-1.0274048-0.7819977
			c-0.4063416-0.1819077-0.8761902-0.2728653-1.4095306-0.2728653c-0.5336151,0-1.02742,0.103199-1.482193,0.3091927
			c-0.4547729,0.2062645-0.8487244,0.4941978-1.1821442,0.8639374c-0.3336792,0.369873-0.594162,0.8093109-0.7819977,1.3184433
			c-0.1880951,0.5092659-0.2820129,1.0610504-0.2820129,1.6550827c0,0.606411,0.0939178,1.1610184,0.2820129,1.6639633
			c0.1878357,0.5033455,0.4456329,0.9398193,0.7728577,1.3094254c0.3274841,0.3700104,0.7122955,0.6579437,1.154953,0.8639374
			c0.4423981,0.2062607,0.9184418,0.3091927,1.4275665,0.3091927c0.5820618,0,1.0971069-0.1210938,1.5459595-0.3638191
			c0.4483185-0.2423248,0.8183289-0.5819244,1.1094971-1.0183983l2.3640137,1.7640648
			c-0.5454559,0.7638321-1.236496,1.3277283-2.0731201,1.6914101c-0.8366241,0.3636856-1.6977386,0.5455971-2.5825348,0.5455971
			c-1.006424,0-1.9339905-0.157692-2.7824554-0.472805c-0.8490143-0.3152466-1.5822906-0.7667923-2.2006836-1.3549042
			c-0.6183777-0.5879784-1.1003418-1.3004112-1.4458618-2.1370354c-0.34552-0.8364906-0.51828-1.769989-0.51828-2.8006287
			c0-1.0305099,0.17276-1.9642754,0.51828-2.800766c0.34552-0.8366241,0.8274841-1.54879,1.4458618-2.1370354
			c0.6183929-0.587841,1.3516693-1.0393867,2.2006836-1.3549042c0.848465-0.3151131,1.7760315-0.472805,2.7824554-0.472805
			c0.3638306,0,0.7424469,0.0335045,1.136673,0.0999718c0.3939514,0.0668716,0.7819977,0.1728935,1.1638489,0.3183403
			c0.3821106,0.1454468,0.7486267,0.3396034,1.1003265,0.5819244c0.3514404,0.2427254,0.6668243,0.5396729,0.9458771,0.8912506
			L239.9255524,50.5303612z"/>
		<path d="M244.0723419,47.1840019h8.7475433v2.6188545h-5.9104462v2.4006157h5.5832214v2.618988h-5.5832214v2.6188545h6.2379456
			v2.6188545h-9.0750427V47.1840019z"/>
	</g>
	<g>
		<path d="M147.2657013,18.6264629h7.0682373c0.8207397,0,1.6466064,0.05826,2.4765015,0.1741047
			c0.8300323,0.116251,1.5751648,0.3480778,2.2356567,0.6960201c0.6600952,0.3480778,1.1956024,0.8346062,1.6063843,1.4591808
			c0.4103699,0.6249771,0.6158295,1.4550076,0.6158295,2.4899559c0,1.0710068-0.2991028,1.9591618-0.8969116,2.6640625
			c-0.5981903,0.7053051-1.3880005,1.2093239-2.3695374,1.5125961v0.0535507
			c0.624588,0.0896091,1.1914368,0.2635803,1.7001648,0.5221825c0.508728,0.2588711,0.9458771,0.5889187,1.3119812,0.9905472
			c0.3655701,0.4016266,0.646637,0.8701248,0.8433533,1.4056282c0.196167,0.5355053,0.2945251,1.1069317,0.2945251,1.7134781
			c0,0.9998283-0.2142029,1.8340302-0.6426086,2.5034103c-0.4284058,0.6692467-0.9817963,1.2093239-1.6599274,1.6198311
			c-0.6786652,0.410778-1.4416809,0.7053032-2.2891998,0.8834457c-0.8479309,0.1786804-1.6912842,0.2677536-2.5300598,0.2677536
			h-7.764389V18.6264629z M151.4423523,26.203434h3.0254669c0.3213043,0,0.6378937-0.0355225,0.9504395-0.1071014
			c0.3121643-0.0710411,0.5932312-0.1874256,0.8433533-0.3480778c0.2497253-0.1606503,0.4506073-0.3748512,0.6023865-0.6424694
			c0.1514893-0.2677517,0.2276459-0.5890541,0.2276459-0.9639053c0-0.3923435-0.0848999-0.7183552-0.254425-0.9772282
			c-0.1697998-0.2586021-0.3881836-0.4593487-0.6559296-0.6023731c-0.267746-0.1427555-0.5714264-0.2451477-0.9102173-0.3079815
			c-0.3393402-0.0622959-0.6693878-0.093647-0.9906769-0.093647h-2.8380432V26.203434z M151.4423523,34.0481567h3.7483978
			c0.3212891,0,0.646637-0.035656,0.9772186-0.1071014c0.3300476-0.0711784,0.6291504-0.1963081,0.8968964-0.3748512
			c0.2677612-0.1782799,0.4861298-0.4103737,0.6559296-0.6961555c0.1694031-0.285244,0.254303-0.6333199,0.254303-1.0440979
			c0-0.4460278-0.1116791-0.8074265-0.3346252-1.0843277c-0.2233582-0.2766323-0.5045624-0.486124-0.8433533-0.6292839
			c-0.339325-0.142622-0.705307-0.2409763-1.0977783-0.2945271c-0.392746-0.0535488-0.7588501-0.0803242-1.0976562-0.0803242
			h-3.1593323V34.0481567z"/>
		<path d="M181.7008514,30.2729912c0,1.1245575-0.1697998,2.1599083-0.508728,3.1057854
			c-0.3391876,0.9462814-0.843338,1.767025-1.5125885,2.4631805c-0.6693878,0.696022-1.5039825,1.2408066-2.503418,1.633152
			c-0.9998322,0.3923416-2.1510162,0.5890541-3.4537201,0.5890541c-1.3211365,0-2.4812164-0.1967125-3.4806366-0.5890541
			c-0.9998322-0.3923454-1.8340302-0.93713-2.5032806-1.633152c-0.6693726-0.6961555-1.1739349-1.5168991-1.5127258-2.4631805
			c-0.3393402-0.9458771-0.508728-1.9812279-0.508728-3.1057854V18.6264629h4.176651V30.112339
			c0,0.5890541,0.0937805,1.133707,0.2812042,1.6332855c0.1874237,0.4998474,0.45047,0.932827,0.7898102,1.2985306
			c0.3387909,0.3659706,0.7449951,0.6517525,1.2182007,0.8566704c0.4726715,0.2054558,0.9859619,0.3078461,1.539505,0.3078461
			c0.5529938,0,1.0617218-0.1023903,1.5260468-0.3078461c0.4639282-0.2049179,0.8655548-0.4906998,1.2047424-0.8566704
			c0.3389282-0.3657036,0.6025085-0.7986832,0.7899475-1.2985306c0.1872864-0.4995785,0.2810669-1.0442314,0.2810669-1.6332855
			V18.6264629h4.176651V30.2729912z"/>
		<path d="M198.2277374,23.5528259c-0.4106445-0.499445-0.9149323-0.8834457-1.5123291-1.1511974
			C196.1169281,22.1338768,195.425354,22,194.6401215,22c-0.7852173,0-1.5125885,0.1519051-2.181839,0.4551773
			c-0.6693726,0.3036766-1.2495422,0.7275047-1.740387,1.2717533c-0.4910889,0.5446529-0.8746948,1.1914291-1.1511841,1.941
			c-0.2769012,0.7497044-0.4149628,1.562109-0.4149628,2.4364052c0,0.8927307,0.1380615,1.7093067,0.4149628,2.4498615
			c0.2764893,0.7408237,0.6559143,1.3834286,1.1378632,1.9276791c0.4819641,0.544651,1.0484161,0.9684792,1.7001648,1.2717514
			c0.6513519,0.3036766,1.3522186,0.4550438,2.1019135,0.4550438c0.8562775,0,1.6151276-0.1781425,2.2754822-0.5353699
			c0.6603699-0.356823,1.2050323-0.8568039,1.6334229-1.4994087l3.4805145,2.5970573
			c-0.8035278,1.1245575-1.8207245,1.9544525-3.0521088,2.4899559c-1.2319183,0.5355034-2.4993744,0.803257-3.8018036,0.803257
			c-1.4820557,0-2.8474579-0.2322311-4.0966034-0.6961555c-1.2495575-0.4639244-2.3292999-1.128727-3.2396545-1.9946823
			c-0.9102325-0.8654175-1.6197052-1.9142227-2.1284332-3.1458817c-0.508728-1.2315235-0.7630157-2.6058025-0.7630157-4.1231079
			c0-1.516901,0.2542877-2.8915844,0.7630157-4.1231079s1.2182007-2.2799263,2.1284332-3.1458797
			c0.9103546-0.8655529,1.990097-1.5303574,3.2396545-1.9946842c1.2491455-0.4639244,2.6145477-0.6960201,4.0966034-0.6960201
			c0.5349579,0,1.0930786,0.0492458,1.6732483,0.1471958c0.5796356,0.0983562,1.1511993,0.2542973,1.7136078,0.4684982
			c0.5618744,0.2142029,1.1016846,0.4999828,1.6194305,0.8568058c0.517746,0.3572273,0.9816589,0.7943764,1.3923035,1.3118496
			L198.2277374,23.5528259z"/>
		<path d="M205.1591339,18.6264629h4.1766663v7.8714981l7.3625031-7.8714981h5.461853l-8.4335022,8.8084946l9.1565704,10.147253
			h-5.8367157l-7.7107086-8.9959221v8.9959221h-4.1766663V18.6264629z"/>
		<path d="M225.1016693,18.6264629h4.176651v18.9557476h-4.176651V18.6264629z"/>
		<path d="M232.804306,18.6264629h5.6757965l8.0589294,13.1727123h0.0535431V18.6264629h4.1766663v18.9557476h-5.4618683
			l-8.2728577-13.4938812h-0.0535583v13.4938812h-4.176651V18.6264629z"/>
		<path d="M275.4543457,18.6264629h4.1766357v7.0682411h8.1122131v-7.0682411h4.1766663v18.9557476h-4.1766663v-8.192667h-8.1122131
			v8.192667h-4.1766357V18.6264629z"/>
		<path d="M302.0134277,18.6264629h3.4535828l8.2464905,18.9557476h-4.7121582l-1.6331482-4.0160065h-7.362793l-1.5798645,4.0160065
			h-4.6047974L302.0134277,18.6264629z M303.6196594,24.14188l-2.3023987,5.8901348h4.6317139L303.6196594,24.14188z"/>
		<path d="M315.6144104,18.6264629h6.2078247l4.2878113,12.3694572h0.0526123l4.3140259-12.3694572h6.1816406v18.9557476h-4.1035461
			V23.0440979h-0.0526123l-4.8927612,14.5381126h-3.1303406l-4.7084961-14.5381126h-0.0526123v14.5381126h-4.1035461V18.6264629z"/>
		<rect x="268.4927979" y="27.6901054" width="3.9037037" height="10.4251852"/>
		<rect x="264.8187256" y="27.6901054" width="5.2355556" height="3.5362964"/>
		<path d="M269.1931763,28.6543541c-0.1385803,3.1132355-2.4889221,5.5928841-5.3765564,5.5928841
			c-2.9767456,0-5.3898926-2.6329823-5.3898926-5.8809357s2.413147-5.8809357,5.3898926-5.8809357
			c1.8597412,0,3.4993896,1.0277672,4.4681396,2.591053l3.504364-2.6553497
			c-1.7962952-2.506422-4.6974182-4.1355038-7.9725037-4.1355038c-5.4533081,0-9.8740692,4.5132999-9.8740692,10.0807362
			s4.4207611,10.0807343,9.8740692,10.0807343c3.5654297,0,6.6888428-1.9297981,8.42453-4.8216171l-2.8183594-4.3623505
			L269.1931763,28.6543541z"/>
	</g>
	<g>
		<path d="M99.7922821,2.3105152C79.5753174,2.380466,63.341671,19.0702515,63.341671,39.2873421v12.7890701
			c0,0.4313889,0.3497124,0.7811012,0.7811012,0.7811012h1.9828339h4.0671844c0.4313965,0,0.781105-0.3497124,0.781105-0.7811012
			V39.2047157c0-16.009964,12.8554688-29.2266426,28.8653336-29.2820244
			c16.0455093-0.0555058,29.0702209,12.9349966,29.0702209,28.967598c0,12.5599937-7.9940567,23.2511826-19.1714706,27.2667999
			c-0.5094147,0.1830139-1.0474167-0.1956863-1.0474167-0.736969V28.8854408c0-0.4313927-0.3497162-0.781105-0.781105-0.781105
			h-6.0500107c-0.4313965,0-0.781105,0.3497124-0.781105,0.781105l-0.1033325,45.7575111
			c0,0.4432678,0.3686905,0.802597,0.811409,0.7806015c19.3453369-0.960968,34.73526-16.949398,34.73526-36.5332642
			C136.5016785,18.6446037,120.0542755,2.2404087,99.7922821,2.3105152z"/>
		<path d="M70.1727905,59.1952896h-6.0500107c-0.4314003,0-0.7811089,0.3497086-0.7811089,0.781105v14.7127914
			c0,0.4313965,0.3497086,0.781105,0.7811089,0.781105h6.0500107c0.4313965,0,0.781105-0.3497086,0.781105-0.781105V59.9763947
			C70.9538956,59.5449982,70.604187,59.1952896,70.1727905,59.1952896z"/>
		<path d="M82.8139038,46.6575127h-6.0500183c-0.4313965,0-0.781105,0.3497086-0.781105,0.781105v27.2505684
			c0,0.4313965,0.3497086,0.781105,0.781105,0.781105h6.0500183c0.4313965,0,0.781105-0.3497086,0.781105-0.781105V47.4386177
			C83.5950089,47.0072212,83.2453003,46.6575127,82.8139038,46.6575127z"/>
		<path d="M95.3516769,38.0641632h-6.0500107c-0.4313965,0-0.781105,0.3497086-0.781105,0.781105v35.8439178
			c0,0.4313965,0.3497086,0.781105,0.781105,0.781105h6.0500107c0.4313965,0,0.781105-0.3497086,0.781105-0.781105V38.8452682
			C96.132782,38.4138718,95.7830734,38.0641632,95.3516769,38.0641632z"/>
	</g>
</g>
</svg>
