<?xml version="1.0" encoding="utf-8"?>
<!-- Generator: Adobe Illustrator 25.3.0, SVG Export Plug-In . SVG Version: 6.00 Build 0)  -->
<svg version="1.1" id="Layer_1" xmlns="http://www.w3.org/2000/svg" xmlns:xlink="http://www.w3.org/1999/xlink" x="0px" y="0px"
	 viewBox="0 0 150 65" style="enable-background:new 0 0 150 65;" xml:space="preserve">
<style type="text/css">
	.st0{fill:#FFFFFF;}
</style>
<g>
	<path class="st0" d="M2.725687,27.0601387c0.3752625,0,0.720516-0.0033951,1.0656714,0.0009632
		c0.3388119,0.0042782,0.6821475-0.0161457,1.01544,0.0310631c1.1357694,0.1608791,1.8733215,0.8124046,2.2417169,1.8911133
		c0.0200305,0.058651,0.0370655,0.1183243,0.0809875,0.1748486c0-0.0734043,0-0.1468105,0-0.2202148
		c-0.0000005-2.1042404,0.0007663-4.2084808-0.0012212-6.3127193c-0.0001931-0.2042904-0.0068116-0.4097157-0.0289087-0.612608
		c-0.0485406-0.4457073-0.1620288-0.8591957-0.6229448-1.0884495c0.0538435,0,0.107687,0,0.1615305-0.0000019
		c1.6834183-0.0000286,3.3668365-0.0006924,5.0502539,0.0003872c0.3856688,0.000246,0.7677727,0.040102,1.1362495,0.1580868
		c1.8325605,0.5867825,2.1288347,2.4539413,1.4300423,3.6731701c-0.3207245,0.5595856-0.7727242,0.9644508-1.4033308,1.1491413
		c-0.0272408,0.0079784-0.0523176,0.0233345-0.1068172,0.0482368c0.1601477,0.0391655,0.2896242,0.0634308,0.4144564,0.1025162
		c1.08813,0.3406887,1.7185001,1.0910645,1.9262981,2.1963692c0.1127214,0.5995846,0.0428782,1.1892395-0.2422142,1.7355995
		c-0.4261007,0.8165951-1.1161604,1.2804241-2.0142374,1.4389591c-0.2254362,0.0397968-0.4580154,0.0535927-0.6873941,0.0543461
		c-1.4401703,0.0047321-2.8803644,0.0023994-4.3205509,0.0024014c-0.0751953,0-0.1503901,0.0000019-0.2379017,0.0000019
		c0.0000005,0.9213562,0.000001,1.8197708,0.0000014,2.7457886c0.0311775-0.0514488,0.0538082-0.0840492,0.071713-0.1190643
		c0.192163-0.3758011,0.4956865-0.5744362,0.9211245-0.5779076c0.2040052-0.0016632,0.4080362-0.0002861,0.6390581-0.0002861
		c-0.0112457,0.3227425,0.0454407,0.6348228-0.0406265,0.9399261c-0.118845,0.4212952-0.4966049,0.7023697-0.9423933,0.7134819
		c-0.2105751,0.005249-0.4213896,0.0009003-0.653996,0.0009003c-0.0168409,0.6563263-0.0054169,1.2996979-0.0074849,1.9428177
		c-0.0020976,0.6523705-0.0004621,1.3047523-0.0004616,1.9571342c0.0000005,0.6459808,0.0000005,1.2919617,0.000001,1.9379463
		c0.0000005,0.6448784,0.000001,1.2897606,0.000001,1.9466972c-0.1465626,0-0.2780604,0-0.4331393,0
		c-0.0153699-0.6396675-0.0047479-1.2825356-0.0066676-1.9251633c-0.0019484-0.6523705-0.0004296-1.3047562-0.0004301-1.9571342
		c-0.000001-0.6459808-0.0000005-1.2919655-0.000001-1.9379463c-0.0000005-0.6448631-0.0000014-1.2897224-0.0000014-1.9546928
		c-0.087863-0.0034599-0.1620722-0.0066452-0.2363019-0.0092506c-0.197855-0.0069504-0.3993731,0.0079575-0.5928612-0.024704
		c-0.4840531-0.0817108-0.8118362-0.4807968-0.8185368-0.9692612c-0.002882-0.2101097-0.0004826-0.4202919-0.000483-0.642662
		c0.0604062-0.006916,0.1088161-0.016552,0.1573553-0.0172539c0.1471882-0.0021248,0.2944603,0.0012436,0.4416399-0.0011902
		c0.4579468-0.0075645,0.7820311,0.1974945,0.9778881,0.6093407c0.0123682,0.0260086,0.0291829,0.0499039,0.0632801,0.1074257
		c-0.0000005-0.9375763-0.000001-1.8356781-0.0000014-2.7619247c-0.1936617,0-0.3833838,0.0010014-0.5730929-0.0001984
		c-0.454217-0.0028744-0.9097729,0.0143852-1.3623838-0.0143261c-1.2549272-0.079607-2.2955029-1.0896492-2.4340625-2.3424625
		c-0.0161242-0.145792-0.0241444-0.2931328-0.0251069-0.439827c-0.0031052-0.4732742-0.0011561-0.9465809-0.0011551-1.4198742
		C2.7256873,27.2069168,2.7256873,27.1441555,2.725687,27.0601387z M11.510848,27.0590343
		c-0.5054159,0-0.9905462-0.0018997-1.4756432,0.0012341c-0.1337776,0.000864-0.2684355,0.009346-0.4010286,0.0268726
		c-1.1739788,0.1551857-2.0623374,1.1625538-2.0690789,2.3455124c-0.0026588,0.466486-0.0008192,0.9330025,0.0000157,1.3995018
		c0.0000997,0.0555363,0.0067997,0.1110592,0.0107241,0.1709137c0.0507803,0.0047817,0.0881419,0.0113201,0.1255102,0.011364
		c0.492444,0.000576,0.9848957,0.0015926,1.4773273-0.0009899c0.1018677-0.0005341,0.2045479-0.0093765,0.3053532-0.0244236
		c1.2052784-0.1799164,2.0595188-1.2342587,2.0378103-2.3931618c-0.0084963-0.4535599-0.0010509-0.9074154-0.0016317-1.3611355
		C11.5201416,27.1845188,11.5150166,27.1343231,11.510848,27.0590343z"/>
	<path class="st0" d="M20.7195454,26.1348743c0.0698128,0.0198154,0.1028118,0.0323048,0.1369572,0.0384254
		c1.3696404,0.2455349,2.114378,1.4969215,2.1151676,2.5846062c0.0009232,1.2773056-0.8596516,2.2580376-2.0375824,2.509306
		c-0.2423611,0.0516987-0.4943218,0.0799026-0.742075,0.0813541c-1.3311996,0.0077877-2.662468,0.0036983-3.9937115,0.0037136
		c-0.0310535,0-0.0621071,0-0.0931606,0c-0.0038109-0.0087337-0.0076199-0.0174675-0.0114307-0.0262012
		c0.0352001-0.0200081,0.0707054-0.0394993,0.105547-0.0601139c0.1740685-0.1029968,0.2761116-0.2623005,0.3452454-0.4460049
		c0.102993-0.2736874,0.1267204-0.5600891,0.1268253-0.8488331c0.0008659-2.4046135,0.0011177-4.8092289-0.0010471-7.2138405
		c-0.0001373-0.1527634-0.0134964-0.3067417-0.0354633-0.4580135c-0.0530319-0.365181-0.1774044-0.6906948-0.5873108-0.8802128
		c0.10145-0.0047836,0.1502151-0.0090752,0.1989822-0.0090904c1.1968403-0.0003719,2.3936787-0.0002041,3.590519-0.0003452
		c0.354847-0.000042,0.7030582,0.0496864,1.0367088,0.1691017c1.6923141,0.6056767,1.8795948,2.309927,1.2902622,3.385128
		c-0.3008785,0.5489368-0.7333145,0.9464474-1.3443775,1.1293087
		C20.7979126,26.0996532,20.7775326,26.1105061,20.7195454,26.1348743z M17.9022503,26.591938
		c0,1.3332958,0,2.6596165,0.0000019,3.9919891c0.0496387,0.0042858,0.0869961,0.010294,0.1243591,0.0103207
		c0.6014519,0.0004177,1.2029343,0.0033627,1.8043346-0.0023041c0.1590061-0.0014973,0.3199425-0.0185738,0.4762497-0.0482063
		c0.6779346-0.1285133,1.1353951-0.5059814,1.3005924-1.1920567c0.0752716-0.3126087,0.0865078-0.6305161,0.0535412-0.952261
		c-0.1033478-1.0086346-0.830349-1.7425709-1.8439026-1.8045921c-0.6056957-0.0370636-1.2148838-0.0173836-1.8225117-0.0218945
		C17.9646339,26.57271,17.9342575,26.5850754,17.9022503,26.591938z M17.8986969,25.8209648
		c0.038084,0.0062866,0.0624714,0.0138397,0.086853,0.0138168c0.5246105-0.0004692,1.0497169,0.0121384,1.5737076-0.0064678
		c0.6521263-0.0231571,1.120451-0.3504581,1.4153652-0.9283066c0.1361485-0.2667637,0.1891289-0.5559921,0.2081871-0.85075
		c0.0350533-0.542141-0.0966187-1.0272732-0.5104485-1.4082279c-0.3544025-0.3262482-0.7766285-0.4885254-1.2549362-0.4965096
		c-0.4669342-0.0077953-0.9340954-0.0022755-1.4011574-0.0017681c-0.0365181,0.0000401-0.0730267,0.0066166-0.1175728,0.0109329
		C17.898695,23.3780041,17.8986969,24.5903721,17.8986969,25.8209648z"/>
	<path class="st0" d="M132.3123627,24.8657875c0.6289673-0.2629089,1.2579346-0.5258198,1.9155273-0.8006973
		c0.0236664,0.2300167,0.0086517,0.4440823,0.0113678,0.6568832c0.0027618,0.2158642,0.0006104,0.4317913,0.0361481,0.6621609
		c0.0415649-0.051075,0.0823822-0.1027775,0.1248016-0.1531277c0.5821533-0.6908436,1.3217926-1.0856876,2.2263184-1.1212368
		c0.8015137-0.0314999,1.3839874,0.4118977,1.6159668,1.1774311c0.010788,0.0355721,0.0198517,0.0716648,0.0391388,0.1417332
		c0.0540009-0.0647087,0.0919342-0.1098309,0.1295319-0.1552334c0.6235504-0.7529316,1.4221954-1.155714,2.4019012-1.1653252
		c0.6345367-0.0062237,1.1157379,0.2846889,1.4354248,0.8338299c0.2168579,0.3724709,0.3087616,0.7822819,0.342392,1.2067699
		c0.0121002,0.1527367,0.0129395,0.306633,0.0130615,0.4600048c0.0010071,1.1317558-0.0024719,2.2635269,0.0031738,3.395256
		c0.0010834,0.2160778,0.0242462,0.4339561,0.0588684,0.6474953c0.0465546,0.2869225,0.1638641,0.5376244,0.4441681,0.6884632
		c-0.6859741,0-1.3719482,0.0000019-2.0775146,0.0000019c0.0396118-0.0287266,0.0699463-0.0525112,0.1020203-0.0736866
		c0.1341705-0.0885849,0.2285156-0.2141247,0.2659607-0.3644753c0.0536804-0.215517,0.1082001-0.4366722,0.1149292-0.6568661
		c0.0169983-0.5557842,0.0079956-1.1123791,0.0085144-1.6686478c0.0005646-0.5946522-0.0001373-1.1893044,0.0001678-1.7839565
		c0.0001831-0.3208275-0.0234375-0.6388054-0.1169739-0.947794c-0.0258331-0.0853901-0.0537872-0.171093-0.0910034-0.2519474
		c-0.1974182-0.4287739-0.5382538-0.6374588-1.0067596-0.6320896c-0.9896088,0.0113411-1.8680115,0.8720531-1.8799896,1.8648281
		c-0.0134125,1.1124096-0.0036621,2.2251091-0.0020599,3.3376808c0.0001526,0.1084156,0.0099335,0.2172413,0.0219269,0.3251381
		c0.0461121,0.4146557,0.1542664,0.6089439,0.4738464,0.8544292c-0.6915283,0-1.3766785,0.0000019-2.0992737,0.0000019
		c0.391037-0.2040367,0.4543762-0.5507164,0.5011444-0.902998c0.0159149-0.1199341,0.0168304-0.242466,0.0167847-0.3638077
		c-0.0004425-1.1509018,0.0034943-2.3018703-0.0089417-3.4526558c-0.0027313-0.2528076-0.0411377-0.5112801-0.1049805-0.7562523
		c-0.1981049-0.7600956-0.7223816-1.0123615-1.4594269-0.8650494c-0.6869049,0.137291-1.5107269,0.8876801-1.5217285,1.7858906
		c-0.0010071,0.0830536-0.0067444,0.1660805-0.0065918,0.2491112c0.0020905,1.0549507,0.0045929,2.1098976,0.0079498,3.1648464
		c0.0002441,0.076622,0.003067,0.153801,0.0125732,0.2297382c0.0441895,0.3527508,0.1083984,0.6965828,0.493042,0.9115295
		c-0.7379913,0-1.4321442,0-2.1523285,0c0.0466461-0.0326595,0.0776215-0.0564556,0.1105957-0.0770512
		c0.1665192-0.103981,0.2743835-0.2586117,0.3149261-0.442461c0.0519867-0.23563,0.1004028-0.4779625,0.1021729-0.7177582
		c0.0096588-1.3171139,0.007431-2.6343498,0.0018158-3.9515095c-0.000946-0.222578-0.0247345-0.4472923-0.0617981-0.6670036
		c-0.0724182-0.4290409-0.2497559-0.5706444-0.69133-0.5826454c-0.0189972-0.000515-0.0379181-0.0036163-0.0568695-0.0055122
		C132.3180847,24.8880768,132.3152313,24.8769321,132.3123627,24.8657875z"/>
	<path class="st0" d="M79.322403,21.4152298c0.0375061-0.0018902,0.0750198-0.0054245,0.1125336-0.0054321
		c1.1326218-0.0002651,2.2652664-0.0031738,3.3978729,0.0010891c0.5773468,0.0021725,1.1325836,0.1172791,1.6442642,0.3922443
		c0.6898575,0.3707199,1.1966858,0.9083385,1.3753967,1.6856041c0.3552322,1.5448723-0.4978714,2.9390202-2.0375214,3.2972374
		c-0.1676941,0.0390186-0.3388443,0.0632-0.5143509,0.0953522c0.0029984,0.011198,0.0020447,0.0351868,0.0122757,0.04175
		c0.2941666,0.1885796,0.4905167,0.4636593,0.6684265,0.7543316c0.5306091,0.8669338,1.0599289,1.7346611,1.589798,2.6020412
		c0.0433273,0.0709209,0.087883,0.1410942,0.1306,0.2123737c0.2259521,0.3771114,0.5490799,0.6348305,0.9616165,0.7830601
		c0.0458755,0.0164871,0.0917664,0.0329895,0.1376419,0.0494843c-0.0016403,0.0067749-0.0032883,0.0135498-0.0049286,0.0203266
		c-0.6428223,0-1.2856369,0-1.9451675,0.0000019c-0.0452576-0.0734234-0.0958176-0.1534443-0.1444473-0.2346268
		c-0.64048-1.0693703-1.2782364-2.1403885-1.923439-3.2069111c-0.105072-0.1736984-0.2312775-0.3380966-0.3678055-0.4885941
		c-0.2678986-0.2953072-0.6113815-0.4313831-1.0103607-0.4272881c-0.0888824,0.0009136-0.1777954,0.0001335-0.2801437,0.0001335
		c-0.0073929,0.0594482-0.0185318,0.1075916-0.0185776,0.1557484c-0.0009232,0.9782906-0.0024338,1.9565907,0.0014572,2.9348679
		c0.0006104,0.1526356,0.0164108,0.3070889,0.0436401,0.4573593c0.0622711,0.3435078,0.1909256,0.6480446,0.5380325,0.8103104
		c-0.7846756,0-1.5693359,0-2.3847504,0c0.0638351-0.0360413,0.105011-0.0591621,0.1460648-0.0824909
		c0.1764603-0.100256,0.2797852-0.2588844,0.3475647-0.443224c0.0893097-0.2429199,0.1196823-0.4962082,0.1197128-0.7535
		c0.0003281-2.4425297,0.0022354-4.8850632-0.0033646-7.3275814c-0.0004959-0.2149658-0.0344467-0.4335842-0.0823135-0.6438122
		C79.7657166,21.8034058,79.6096191,21.5667095,79.322403,21.4152298z M81.1260071,22.1387482
		c-0.0431824,0.3191662-0.0283813,4.0073586,0.0130157,4.1392517c0.5301819-0.0000019,1.0608597,0.0049667,1.5913467-0.0031395
		c0.1519852-0.0023212,0.3058929-0.0319099,0.4546432-0.0670319c0.7591248-0.1792297,1.2569885-0.6350689,1.435051-1.4034767
		c0.0470734-0.2031441,0.0617828-0.4181309,0.0601883-0.6274433c-0.0078125-1.0250187-0.7294693-1.8491287-1.7448273-1.9956684
		C82.3374176,22.0949364,81.7355118,22.163599,81.1260071,22.1387482z"/>
	<path class="st0" d="M123.5190353,42.7831192c-0.651268,0-1.302536,0-1.9538269-0.0001068
		c-0.0013885-0.010498-0.006958-0.0282478-0.0035019-0.0302238c0.2583923-0.1477242,0.3525162-0.3962326,0.3988495-0.6673012
		c0.0267868-0.1568146,0.0414963-0.3176117,0.0420151-0.4766808c0.0035324-1.0869865,0.009201-2.1740723-0.0032501-3.2609253
		c-0.0031891-0.2783089-0.0645065-0.5566063-0.1085892-0.8334045c-0.0137863-0.0866051-0.0527039-0.1710281-0.0902481-0.2517433
		c-0.1959457-0.4211617-0.5538635-0.6311073-1.0192413-0.6023407c-0.9194489,0.0568314-1.7173538,0.8170166-1.7394714,1.7347031
		c-0.0280151,1.162735-0.0000305,2.3268585,0.0081558,3.4903526c0.0007629,0.1071815,0.0262299,0.2157822,0.0518875,0.3208771
		c0.0577393,0.236515,0.1719208,0.436779,0.437294,0.5714417c-0.6965103,0-1.3484879,0-2.0372238,0
		c0.3562241-0.1904945,0.4277039-0.506424,0.4697342-0.8340073c0.0178375-0.1390266,0.0212708-0.2806206,0.021492-0.4210625
		c0.0017014-1.0294456,0.0021744-2.0588989,0.0001526-3.0883484c-0.0005722-0.2878876-0.0145264-0.5757637-0.0933762-0.8551025
		c-0.031105-0.1101952-0.067543-0.2202492-0.1150055-0.324234c-0.1919937-0.4206085-0.5334015-0.604969-0.9847717-0.5952415
		c-0.9269333,0.0199776-1.796051,0.9099884-1.7826614,1.8443871c0.01474,1.0292435,0.0015335,2.0588608,0.0052567,3.088295
		c0.0005951,0.1654739,0.0145493,0.3327942,0.0423965,0.4958344c0.0470505,0.2754326,0.1446686,0.5276527,0.4484863,0.6911316
		c-0.7131271,0-1.3801041,0-2.0868378,0.0000038c0.405571-0.2038269,0.4777298-0.5565376,0.5150375-0.9255219
		c0.0102768-0.1015511,0.0115814-0.2043343,0.0114975-0.3065491c-0.0010529-1.3043633-0.0005341-2.6087341-0.0078735-3.9130669
		c-0.00103-0.1836624-0.0270844-0.3703842-0.0673065-0.5499306c-0.0746155-0.3330345-0.2363815-0.4573402-0.5781479-0.4769287
		c-0.0364609-0.0020866-0.0729446-0.0036926-0.1197128-0.0410995c0.6021271-0.2519836,1.2042465-0.5039711,1.8298111-0.7657661
		c0,0.4321899,0.0000076,0.842926,0.0000076,1.2536583c0.0131607,0.0064354,0.0263367,0.012867,0.0394974,0.0192986
		c0.040535-0.0507927,0.0797729-0.1026764,0.1217804-0.1522179c0.571579-0.6741066,1.2923737-1.0576286,2.1822433-1.0754089
		c0.733963-0.0146675,1.2848129,0.4082069,1.4978867,1.1111565c0.0126038,0.0415802,0.0261078,0.0828934,0.0469513,0.148941
		c0.0514679-0.0628281,0.0890274-0.1096573,0.1276093-0.1556358c0.6016388-0.7167816,1.3656921-1.1024361,2.3065414-1.105545
		c0.608757-0.0020103,1.0651703,0.2789307,1.3671646,0.8047905c0.2591095,0.4511566,0.3371964,0.948349,0.3399887,1.4586639
		c0.0051422,0.9399071,0.0011826,1.8798599,0.0016479,2.8197937c0.0001297,0.2685318-0.0054016,0.5374146,0.0066452,0.8054619
		c0.0071335,0.1584244,0.0340881,0.3176765,0.0691071,0.4727287
		C123.1712723,42.4460068,123.2870483,42.6478615,123.5190353,42.7831192z"/>
	<path class="st0" d="M103.9562912,35.7940865c0,0.446949,0,0.8543663,0,1.3043938
		c0.0588989-0.0723572,0.0926743-0.1144867,0.1271133-0.1560555c0.5598297-0.6756592,1.2737045-1.0633049,2.1538773-1.0957108
		c0.7777252-0.0286331,1.3312454,0.394989,1.5522919,1.140583c0.0089188,0.0300674,0.0156631,0.0607834,0.0329971,0.12883
		c0.0541306-0.0675049,0.0905685-0.1146164,0.1287308-0.1602783c0.6052322-0.7240562,1.3749542-1.1114998,2.3239288-1.1108475
		c0.576561,0.0003967,1.0180664,0.261673,1.3224182,0.7501221c0.2035599,0.3267059,0.302948,0.6895866,0.3427048,1.0681458
		c0.0219955,0.2094116,0.0298538,0.4211197,0.0304337,0.6318283c0.0029221,1.0617142-0.0005875,2.1234512,0.0031281,3.1851578
		c0.0006638,0.1910629,0.0142441,0.3834534,0.0401382,0.572731c0.0411072,0.3003387,0.1511002,0.5657768,0.4810867,0.7264748
		c-0.7014847,0-1.3609009,0-2.06353,0c0.3396072-0.1714211,0.4224319-0.4580154,0.4696503-0.7594833
		c0.0236588-0.1509705,0.0321503-0.3056602,0.0325394-0.4587059c0.0026779-1.0553207,0.0041351-2.1106606-0.000061-3.1659698
		c-0.0014725-0.3720055-0.036293-0.7415886-0.1841431-1.0897331c-0.1845245-0.4345131-0.5267944-0.658741-0.9921188-0.6460342
		c-0.2451096,0.0066948-0.4857559,0.0501213-0.7036438,0.1673164c-0.6898804,0.3710861-1.0964127,0.924408-1.0964737,1.732811
		c-0.0000763,0.9913673-0.0042648,1.982769,0.0032501,2.9740791c0.0016937,0.2220993,0.0312195,0.4463997,0.0721893,0.6651459
		c0.045105,0.2407608,0.1647949,0.4430351,0.4013138,0.5578766c-0.1434708,0.0418587-1.434288,0.0563736-1.9887543,0.0218048
		c0.4068298-0.2470856,0.4646912-0.6407394,0.4682159-1.0386887c0.0104828-1.1831055,0.0052261-2.3663788,0.0014038-3.549572
		c-0.0009079-0.2827911-0.0508423-0.560112-0.1522369-0.8257217c-0.1999283-0.5238075-0.6040802-0.7498055-1.1627274-0.6967163
		c-0.7304688,0.0694237-1.5044556,0.7600441-1.6244049,1.5272675c-0.0137634,0.0880394-0.0209885,0.1780243-0.0211105,0.2671165
		c-0.0014114,1.0553246-0.0022278,2.1106606,0.0006866,3.1659775c0.0003891,0.1399384,0.0159683,0.2806931,0.0354538,0.4195404
		c0.0410995,0.2928696,0.1361237,0.5579262,0.4521332,0.7294312c-0.7073898,0-1.3742294,0-2.037056,0
		c0.0897675-0.0868912,0.1976624-0.1660233,0.2724304-0.2691498c0.1433029-0.1976547,0.1739349-0.4364281,0.1971893-0.6728783
		c0.0093613-0.0952301,0.0089798-0.1916504,0.0090179-0.287529c0.0005493-1.2280159,0.0039062-2.4560509-0.002594-3.6840363
		c-0.0013123-0.2479095-0.0211029-0.4993095-0.0670166-0.742569c-0.0702972-0.3723984-0.2289734-0.4926987-0.6055756-0.5143166
		c-0.0284882-0.0016365-0.0568924-0.0047073-0.0938263-0.0430946
		C102.717865,36.3117676,103.3203812,36.059906,103.9562912,35.7940865z"/>
	<path class="st0" d="M38.179142,36.5665741c0.6028824-0.2521095,1.2057648-0.5042191,1.8321037-0.7661362
		c0,0.4346275,0,0.8460655,0,1.2575073c0.01297,0.0063553,0.0259476,0.0127068,0.0389175,0.0190659
		c0.0400467-0.0514336,0.0782814-0.1043968,0.1204033-0.1540718c0.5813217-0.6855659,1.3141098-1.070282,2.2202187-1.0772247
		c0.6941948-0.0053215,1.2393112,0.4120865,1.4492836,1.0739326c0.0172005,0.0542221,0.0331764,0.1088371,0.0580215,0.1905632
		c0.0551186-0.0687943,0.0952873-0.1214561,0.1380577-0.1719131c0.6003571-0.7082748,1.3600769-1.0893097,2.2937164-1.0936356
		c0.6012039-0.0027847,1.0547791,0.2715759,1.3594589,0.7864037c0.2441826,0.4126015,0.3356323,0.8697395,0.3451843,1.3413391
		c0.0120468,0.5945587,0.0057831,1.1895027,0.006443,1.7842789c0.000679,0.613987-0.0052872,1.2280502,0.0033684,1.8419151
		c0.0027695,0.1965599,0.031414,0.3947983,0.0687294,0.5883179c0.0478439,0.2480927,0.169529,0.4542274,0.4492607,0.5872765
		c-0.6951065,0-1.3481636,0.0000038-2.0186806,0.0000038c0.0367241-0.0289078,0.0665627-0.053997,0.0980072-0.0768929
		c0.2018127-0.1469498,0.2762489-0.3653831,0.3148155-0.5946198c0.0306129-0.1819038,0.0451088-0.3685112,0.0458412-0.553112
		c0.0041733-1.0424843,0.0020714-2.0849915,0.0019989-3.127491c-0.0000267-0.3080139-0.0242081-0.6132736-0.1128883-0.9101105
		c-0.0237198-0.0793762-0.0505371-0.1585464-0.0842705-0.2340927c-0.1869659-0.4186935-0.5309868-0.6307831-0.9905128-0.6195526
		c-0.9931107,0.0242767-1.7850227,0.9503632-1.7816849,1.759697c0.0036125,0.8761597-0.0021019,1.7523575-0.0022163,2.6285362
		c-0.0000381,0.2493706-0.0012741,0.499054,0.0106316,0.7479935c0.0066719,0.139431,0.0304375,0.2796516,0.0619926,0.4159279
		c0.0537567,0.2321472,0.16399,0.4300537,0.392662,0.5440292c-0.1386452,0.0452423-1.3151741,0.0603027-1.9878235,0.0257988
		c0.4426231-0.2614822,0.4741783-0.6923599,0.4797096-1.1109848c0.0148621-1.1254425,0.0096817-2.2512436,0.0022049-3.3768349
		c-0.0022087-0.3325157-0.0456963-0.663414-0.1772499-0.9754562c-0.1876411-0.4450836-0.5321388-0.6735725-1.0035286-0.6574783
		c-0.2254295,0.0076942-0.4483719,0.0454521-0.6500664,0.1493225c-0.7155952,0.3685226-1.144001,0.9269218-1.143795,1.7615089
		c0.0002403,0.9785423-0.0016022,1.9570885,0.0016289,2.9356194c0.0005646,0.1721687,0.0138588,0.3452148,0.0347939,0.5162048
		c0.0442009,0.3610382,0.1485977,0.5368042,0.4369659,0.7574348c-0.6824303,0-1.3546829,0-2.0710182,0
		c0.3806114-0.1818962,0.4688148-0.4978905,0.5126114-0.834938c0.0180626-0.1389923,0.0213852-0.2806435,0.0215683-0.4210968
		c0.0015793-1.2215614,0.0036697-2.4431381-0.0015182-3.6646805c-0.0009727-0.2291412-0.0190086-0.4604797-0.054985-0.6867065
		c-0.0652466-0.410305-0.2275581-0.5442085-0.6414261-0.5658569c-0.0226822-0.0011902-0.0452995-0.0036125-0.0679436-0.0054588
		C38.1851349,36.5894623,38.1821404,36.5780182,38.179142,36.5665741z"/>
	<path class="st0" d="M50.008194,42.9429092c0-0.0819664,0-0.1503105,0-0.2186584
		c0-2.6029053,0.0019073-5.2058144-0.0029526-7.808712c-0.0004883-0.2605629-0.0200462-0.5253143-0.0695877-0.7805977
		c-0.0780869-0.4023666-0.222065-0.5185585-0.6276093-0.580204c-0.0182762-0.0027809-0.0359764-0.0093384-0.1032257-0.0272942
		c0.6449814-0.2515755,1.2497253-0.4874611,1.8839302-0.7348328c0.0000038,1.4152946,0.0000038,2.7992058,0.0000038,4.1831207
		c0.0119705,0.0043488,0.023941,0.0086975,0.0359116,0.0130463c0.0350914-0.0400467,0.0707092-0.0796432,0.1051865-0.1202087
		c0.5409622-0.6363373,1.2165108-1.0080261,2.0627251-1.0241928c0.6812248-0.0130119,1.2431335,0.2537689,1.6885986,0.7666283
		c0.3571815,0.4112167,0.5666695,0.8936615,0.6710281,1.4232178c0.1748848,0.8874435,0.1572113,1.7680435-0.128624,2.6321182
		c-0.214962,0.6498528-0.5706215,1.2133522-1.0894203,1.6656799c-0.4811249,0.4194756-1.0465927,0.6293907-1.6831932,0.6506462
		c-0.5942535,0.0198441-1.1751366-0.0449944-1.7292404-0.276722c-0.0353165-0.0147629-0.0738602-0.022377-0.1081009-0.0390549
		c-0.3068161-0.1494331-0.5566063-0.0565071-0.7737656,0.1791344c-0.0259819,0.0281944-0.0524635,0.0559425-0.0794754,0.0831375
		C50.0565109,42.9330597,50.0483055,42.9326553,50.008194,42.9429092z M51.1012077,39.8161812
		c-0.0034523,0.0000038-0.0069008,0.0000076-0.0103531,0.0000153c0,0.172554-0.0016937,0.3451309,0.00037,0.5176582
		c0.0037422,0.3129692-0.0055161,0.627079,0.0185051,0.9385681c0.0322685,0.4184494,0.2535019,0.7193298,0.6478348,0.8714905
		c0.1650467,0.0636864,0.3424606,0.1051369,0.5180397,0.1301041c0.7470284,0.1062126,1.3433113-0.144516,1.7740021-0.771637
		c0.1971092-0.2870102,0.3456154-0.5967026,0.4390259-0.9317245c0.1744957-0.6258125,0.1897545-1.2600021,0.0928726-1.8993835
		c-0.0746269-0.4925041-0.2280502-0.9552803-0.5146217-1.3682976c-0.5235367-0.7545395-1.3876991-0.7473526-1.9199066-0.4339256
		c-0.6083107,0.358242-0.9885178,0.8901825-1.0398445,1.6058655C51.0752182,38.9198608,51.1012077,39.3689499,51.1012077,39.8161812
		z"/>
	<path class="st0" d="M120.6747513,31.3487206c-0.697258,0-1.394516,0-2.133522,0.0000019
		c0.4437103-0.2209072,0.5130234-0.6070404,0.5496368-1.0081635c0.0092773-0.1016827,0.0091171-0.2044468,0.0091324-0.3067131
		c0.000473-2.2897491,0.002594-4.5795021-0.0026398-6.8692398c-0.0006104-0.2670307-0.0208588-0.5380402-0.0702286-0.8000126
		c-0.0769806-0.4084167-0.2366409-0.5349522-0.6471939-0.5793571c-0.0292282-0.0031624-0.0581512-0.0090923-0.0932541-0.0468159
		c0.6185837-0.265379,1.2371674-0.530756,1.8884659-0.8101711c0.003273,0.0967045,0.0078506,0.1695061,0.0078812,0.2423096
		c0.0004272,1.317564,0.0001984,2.635128,0.000618,3.9526939c0.0000229,0.0732594,0.0044861,0.1465168,0.0082397,0.2613392
		c0.0471039-0.0498734,0.0637741-0.0654907,0.0781174-0.083004c0.5726929-0.6987114,1.3226776-1.0815334,2.2080612-1.1825562
		c0.6023941-0.0687313,1.1629181,0.0673599,1.5954285,0.5329456c0.3025894,0.3257408,0.4427948,0.7294731,0.5033417,1.1609421
		c0.0283279,0.2018204,0.0397949,0.4074821,0.0404282,0.6114597c0.0036697,1.1704464-0.0000153,2.3409157,0.0034866,3.511364
		c0.000618,0.2039967,0.010437,0.4097919,0.0391693,0.6114597c0.0462646,0.3247013,0.149292,0.6237583,0.4758759,0.7937584
		c-0.6784439,0-1.3568802,0-2.0647736,0c0.3988953-0.2410946,0.4547195-0.6303425,0.4594574-1.0104809
		c0.0161133-1.2917233,0.0094757-2.5837917,0.0018845-3.8756733c-0.0010834-0.1828327-0.0403061-0.3694515-0.0881271-0.5472736
		c-0.1688461-0.6279545-0.5805817-0.9402618-1.2281952-0.947834c-0.8696518-0.01017-1.7935104,0.7095222-1.9873352,1.5564575
		c-0.0324631,0.1418438-0.0428925,0.2913857-0.043396,0.437439c-0.0035934,1.0297337-0.0046997,2.0594997,0.0004501,3.089222
		c0.0010223,0.2035618,0.0215683,0.4086609,0.0526276,0.6100464
		C120.2828445,30.9411602,120.4023132,31.1892452,120.6747513,31.3487206z"/>
	<path class="st0" d="M99.3569717,21.7388763c0.6233444-0.2666855,1.2466965-0.533371,1.9002991-0.8130016
		c0,1.4942741,0,2.9538403,0,4.4134064c0.0113449,0.0043163,0.0226822,0.0086327,0.0340271,0.012949
		c0.0270081-0.0294456,0.0545578-0.0584164,0.0809402-0.0884075c0.6513672-0.740509,1.468544-1.1350155,2.4562912-1.15415
		c0.1887436-0.0036564,0.3839111,0.0328541,0.5669556,0.0837364c0.4912872,0.13657,0.8368988,0.4522495,1.050972,0.9128723
		c0.1447678,0.3114891,0.2122269,0.6422539,0.2359772,0.982542c0.0088882,0.1274376,0.0085068,0.2556744,0.0085602,0.3835487
		c0.0005951,1.1896515-0.0029526,2.379324,0.0033875,3.5689411c0.0011444,0.2158298,0.0290146,0.4337425,0.067337,0.6465931
		c0.0495453,0.2750969,0.1786194,0.506094,0.4526749,0.632618c-0.1537704,0.0432529-1.3927917,0.0574856-2.0714951,0.0239391
		c0.4036026-0.2519512,0.4572449-0.6492825,0.4612198-1.043972c0.0128326-1.272625,0.0079727-2.5454826,0.0005417-3.8181953
		c-0.0011063-0.1895008-0.0361862-0.3829861-0.083992-0.5672665c-0.1621094-0.6249409-0.5767059-0.9425545-1.2231674-0.9550743
		c-0.8807373-0.0170574-1.8194427,0.7241726-2.0024033,1.5854855c-0.022377,0.1053448-0.0314636,0.2153721-0.0316925,0.3232594
		c-0.0022507,1.1001053-0.0044403,2.2002316,0.0015106,3.3003101c0.0010223,0.1901474,0.0263672,0.3829842,0.0652542,0.569418
		c0.0526276,0.2522736,0.1707611,0.4694176,0.4213486,0.5995846c-0.6941376,0-1.3882751,0.0000019-2.1214905,0.0000019
		c0.3783417-0.1848698,0.4727936-0.5060368,0.5193405-0.848877c0.0231628-0.1705246,0.030777-0.344305,0.0309219-0.5166245
		c0.0019455-2.244997,0.0033951-4.4900036-0.0014725-6.734993c-0.0005798-0.2674026-0.0364075-0.5349827-0.0618362-0.8019142
		c-0.0071869-0.0753727-0.0320435-0.1497993-0.0546799-0.2228374c-0.0787277-0.2539291-0.2563782-0.3881607-0.5171051-0.4188271
		c-0.0609589-0.0071697-0.121933-0.0141411-0.1828995-0.021204C99.360527,21.7614498,99.358757,21.7501621,99.3569717,21.7388763z"
		/>
	<path class="st0" d="M93.7353973,33.6325111c0,0.6689873,0,1.320118,0,2.0120621
		c-0.03965-0.0643044-0.0627136-0.0965576-0.0804749-0.1315041c-0.0550003-0.1081924-0.1031265-0.2201309-0.1625214-0.325779
		c-0.3957825-0.7039909-0.9885178-1.1419106-1.7811432-1.305397c-0.5266113-0.1086197-1.0541-0.1110611-1.5811691-0.0026093
		c-0.6969299,0.1433983-1.2669296,0.4989815-1.7245712,1.0385818c-0.5445786,0.6421165-0.8567657,1.3864441-0.9682846,2.2176552
		c-0.116478,0.8683205-0.061203,1.7213478,0.2307358,2.5528259c0.1148987,0.3272552,0.2698059,0.6347275,0.461174,0.9239578
		c0.6974106,1.0541115,1.6786423,1.5768585,2.9430008,1.5669632c1.0026703-0.0078468,1.8283768-0.4222488,2.5343323-1.1081505
		c0.1124115-0.1092186,0.2210617-0.2223129,0.3632507-0.3656921c0,0.3223038,0.0065002,0.6008224-0.0052948,0.8785629
		c-0.0024796,0.0582466-0.0656433,0.1198997-0.1121445,0.1693954c-0.6412582,0.6824799-1.4279099,1.0911713-2.355072,1.2157478
		c-0.8365326,0.1124001-1.6622696,0.0462265-2.4597321-0.2381706c-1.1884079-0.4238205-2.0055237-1.2521477-2.5099106-2.3906212
		c-0.6564865-1.4818039-0.5625763-3.7047539,0.4848938-5.2121925c0.8201981-1.1803589,1.9312439-1.8751564,3.3601151-2.0531464
		c1.0413666-0.1297188,2.0547791-0.0322189,3.0242081,0.3937836C93.5077286,33.5175323,93.6152115,33.5741501,93.7353973,33.6325111
		z"/>
	<path class="st0" d="M23.7651348,40.7448845c0,0.2794495,0.0058651,0.5470963-0.004467,0.8141136
		c-0.0023403,0.0604401-0.0505466,0.1283646-0.095253,0.1765099c-0.5694141,0.6131783-1.2597446,1.0197449-2.0838814,1.1811562
		c-1.0308723,0.2019081-2.0431118,0.1229782-3.0103836-0.2906227c-1.0965042-0.4688606-1.8664455-1.2889977-2.2829437-2.3920975
		c-0.6069832-1.6076088-0.5256033-3.2069664,0.2984543-4.7256279c0.7377319-1.3595657,1.8955784-2.1776772,3.4325161-2.413044
		c1.149416-0.1760216,2.2714062-0.0674133,3.3333302,0.4472275c0.0345173,0.0167274,0.0687733,0.0340614,0.102541,0.0522461
		c0.02248,0.0121078,0.043869,0.0262337,0.0741158,0.0445137c0,0.6529198,0,1.3098564,0.0000019,2.0045242
		c-0.0366821-0.0624352-0.0580158-0.0959244-0.076601-0.1308708c-0.0839634-0.1578865-0.1577454-0.322052-0.2522926-0.4732819
		c-0.3469925-0.5550041-0.8390579-0.9267311-1.4686184-1.103199c-0.6406765-0.1795845-1.2890778-0.1860085-1.9355793-0.0266228
		c-0.6151752,0.1516609-1.1263447,0.4779472-1.5433464,0.9516563c-0.5748959,0.6530762-0.9042988,1.4177895-1.0181503,2.2764664
		c-0.1098156,0.8282318-0.0656719,1.6455994,0.194828,2.4447784c0.1255684,0.385231,0.3033943,0.745121,0.5317326,1.0802116
		c0.6995354,1.0265884,1.6734791,1.5266876,2.913168,1.5162849c1.0033207-0.0084229,1.8270283-0.4267921,2.5349102-1.1100998
		C23.5188065,40.9633217,23.6343536,40.8637009,23.7651348,40.7448845z"/>
	<path class="st0" d="M24.3764858,33.5728302c0.5963001-0.255127,1.1926003-0.5102501,1.8186607-0.7781067
		c0.0000019,1.4325523,0.0000019,2.8343353,0.0000019,4.2361221c0.0188713,0.0115204,0.0377426,0.0230484,0.0566139,0.0345726
		c0.0160732-0.0330696,0.0258636-0.0715752,0.0491333-0.0984116c0.6291122-0.7254028,1.4201984-1.1206551,2.3849564-1.1200905
		c0.8224659,0.0004807,1.4084053,0.4587898,1.6428852,1.2461472c0.0863075,0.2898026,0.1234932,0.5867882,0.1231136,0.8894806
		c-0.0014362,1.144783-0.0017624,2.2895737,0.0006828,3.4343491c0.0003681,0.1721992,0.0101986,0.3451729,0.0286713,0.5163841
		c0.0462093,0.4282951,0.13657,0.5877762,0.4679127,0.8450165c-0.6554527,0-1.2979755,0-1.9409199,0
		c-0.0004654-0.0061836-0.0055294-0.0238075-0.0014439-0.026268c0.2284737-0.1375809,0.3176003-0.360424,0.3621597-0.6053009
		c0.0250721-0.1378021,0.0430794-0.2790718,0.0434723-0.4188347c0.0033169-1.1831169,0.0057411-2.3662682-0.0019531-3.5493393
		c-0.0013161-0.2023239-0.0336514-0.408947-0.083292-0.6056099c-0.1512508-0.5992355-0.5668659-0.912468-1.1856003-0.9145584
		c-0.8196449-0.0027695-1.6921406,0.6670227-1.8888073,1.46035c-0.0380192,0.1533699-0.05303,0.315979-0.0538063,0.4744492
		c-0.0047569,0.972084-0.0036945,1.9442062-0.0010319,2.9163055c0.0004349,0.1595459,0.0121212,0.319725,0.0294743,0.4784317
		c0.0408916,0.3739204,0.1429958,0.5501099,0.4511471,0.7914505c-0.6736679,0-1.3358574,0-1.9980793,0
		c0-0.0064201-0.0035095-0.0232315,0.0004997-0.0252686c0.341774-0.1735764,0.4202576-0.4959984,0.4623032-0.8326759
		c0.0213184-0.1706924,0.0232277-0.344574,0.023344-0.517025c0.0014267-2.1104889,0.0029125-4.2209854-0.0016079-6.3314667
		c-0.0005894-0.2739449-0.0325527-0.5480042-0.0550194-0.8215981c-0.0056801-0.0691986-0.026556-0.1381302-0.0476646-0.2049103
		c-0.0854645-0.2703705-0.2615166-0.4069443-0.5486584-0.4281197c-0.0436172-0.0032158-0.0876732-0.0004463-0.1315269-0.0004463
		C24.3802338,33.6028481,24.3783588,33.5878372,24.3764858,33.5728302z"/>
	<path class="st0" d="M94.2809296,27.5226746c-0.0008698,1.1109982-0.2305603,1.9467754-0.768074,2.6878395
		c-0.7471085,1.0300255-1.7756042,1.433857-3.0205612,1.3538265c-0.353157-0.0227032-0.6971283-0.0923901-1.0247574-0.2284679
		c-0.7797165-0.3238373-1.3029404-0.9046879-1.6466599-1.6598415c-0.2871628-0.6309204-0.371933-1.2989521-0.3347855-1.9841099
		c0.0457458-0.8438435,0.3068008-1.612896,0.8158112-2.2950001c0.6287231-0.8425255,1.4756927-1.2551823,2.5166168-1.291008
		c0.3792648-0.013052,0.754097,0.0253162,1.1202698,0.1274281c0.8805771,0.245573,1.4868927,0.8209877,1.9093781,1.6077824
		C94.1636581,26.4286747,94.2827835,27.0645714,94.2809296,27.5226746z M93.0946503,28.0304966
		c0.0022964-0.7434654-0.158577-1.4446449-0.5465546-2.0856457c-0.1908722-0.3153458-0.4295959-0.587698-0.7393188-0.7930298
		c-0.9130859-0.6053467-2.0599823-0.3684826-2.6453857,0.554882c-0.1188736,0.1874847-0.2225952,0.3899479-0.2987823,0.5981216
		c-0.3116455,0.8517075-0.301796,1.715271-0.0501709,2.5787086c0.1543732,0.5296631,0.4122162,1.0053596,0.8113861,1.3923855
		c0.509819,0.4943161,1.1237869,0.6684742,1.8173752,0.5359535c0.4941483-0.0944157,0.8477783-0.3976898,1.1129837-0.8135319
		C92.9390793,29.3979683,93.097908,28.7364388,93.0946503,28.0304966z"/>
	<path class="st0" d="M30.5247917,30.8551044c-0.3226833,0.2409019-0.6465321,0.4802685-0.9671459,0.7238903
		c-0.071228,0.0541229-0.1394367,0.0489559-0.2161713,0.0259819c-0.4714508-0.1411419-0.7971458-0.4439392-0.9929867-0.8912544
		c-0.0177288-0.0404987-0.0325375-0.0822659-0.0496063-0.1230659c-0.0021229-0.0050774-0.0098515-0.0078106-0.0225067-0.0172329
		c-0.160326,0.2425823-0.3595295,0.4459076-0.6123486,0.594265c-0.3185329,0.1869202-0.6626091,0.302124-1.0249424,0.3616104
		c-0.4468594,0.0733624-0.8933258,0.0744324-1.3296432-0.0621567c-0.1513195-0.047369-0.2999458-0.1121063-0.4389267-0.1886311
		c-0.8950348-0.4928131-0.9426556-1.5132179-0.5731335-2.1390629c0.1793098-0.30369,0.4263115-0.5407276,0.7105255-0.7429848
		c0.4788055-0.3407402,1.0100708-0.5778904,1.5651894-0.7571049c0.4555969-0.1470852,0.9212341-0.2631474,1.3825703-0.3924351
		c0.0672646-0.0188503,0.1353493-0.0347672,0.2214317-0.0567303c-0.0084114-0.5036201,0.0489216-1.0084476-0.0922527-1.5032043
		c-0.1479435-0.5184746-0.4830036-0.830122-1.0220928-0.9094048c-0.3665314-0.0539074-0.7311497-0.03652-1.077467,0.0970078
		c-0.1573868,0.0606804-0.3109665,0.1547604-0.4379311,0.2659931c-0.3029327,0.265398-0.3484364,0.6089058-0.2426186,0.981905
		c0.0424519,0.1496468,0.1519642,0.2463455,0.3055801,0.3378391c-0.4100266,0.167099-0.7957268,0.3242836-1.1873131,0.4838657
		c-0.1205235-0.1797867-0.1655388-0.3722076-0.1890678-0.5674477c-0.0712414-0.5912113,0.1050911-1.0976982,0.5391502-1.5106068
		c0.3473396-0.3304119,0.7626095-0.5360889,1.2246799-0.644928c0.5535278-0.1303825,1.1131477-0.1662178,1.6747704-0.0510082
		c0.9718781,0.1993694,1.5441589,0.8727627,1.5795956,1.870554c0.0142899,0.4023876,0.0049095,0.8056374,0.0051842,1.2084942
		c0.000494,0.7290096,0.0006752,1.4580193-0.0001545,2.1870289c-0.0002689,0.2380028,0.0225868,0.4725227,0.0988007,0.699213
		c0.1458302,0.4337444,0.4587288,0.6666164,0.917099,0.6832848c0.0810146,0.0029469,0.1622295,0.0004196,0.243351,0.0004196
		C30.5192051,30.8311672,30.5219975,30.8431358,30.5247917,30.8551044z M28.1790733,27.8118954
		c-0.8147068,0.2021961-1.5917892,0.4089832-2.2769375,0.8579865c-0.1325989,0.0868988-0.2557201,0.1932259-0.3672295,0.3063259
		c-0.316637,0.3211479-0.4032059,0.7083263-0.2640438,1.131855c0.134285,0.4086876,0.4478703,0.631937,0.8578205,0.7095509
		c0.6460495,0.1223145,1.2002201-0.0727024,1.6644897-0.5298481c0.2585983-0.2546329,0.3856506-0.5672874,0.3858128-0.9305782
		c0.0001945-0.4348564,0.0000744-0.8697128,0.0000877-1.3045712C28.1790752,27.9829235,28.1790733,27.9132271,28.1790733,27.8118954
		z"/>
	<path class="st0" d="M127.507103,26.4764099c-0.36763,0.1500282-0.7498856,0.3060284-1.1391449,0.4648857
		c-0.1093292-0.1212444-0.1423187-0.2715816-0.1714783-0.4189606c-0.1475754-0.7461681,0.1001053-1.3453732,0.6915741-1.8097305
		c0.408287-0.3205414,0.8824844-0.4857121,1.3897324-0.560091c0.4780884-0.0701027,0.9573517-0.0771313,1.4308167,0.0363655
		c0.8786621,0.2106285,1.4229279,0.8693695,1.4758606,1.7809715c0.0074158,0.1275749,0.0079041,0.2556744,0.0079803,0.3835335
		c0.0006104,1.0296707-0.0038452,2.0593739,0.00383,3.0889893c0.0015564,0.2089539,0.0269012,0.4228001,0.0776062,0.625309
		c0.120575,0.4815617,0.4649506,0.7408028,0.9609833,0.7521763c0.0701447,0.0016079,0.1403351,0.0002213,0.2341003,0.0002213
		c-0.0321503,0.0367012-0.0498505,0.0654182-0.0749512,0.0842953c-0.2914581,0.2190914-0.5859833,0.434166-0.8750305,0.656353
		c-0.080368,0.0617676-0.1548767,0.0712891-0.2483063,0.0425129c-0.4629822-0.1425762-0.7861176-0.438633-0.9796906-0.879549
		c-0.0196686-0.0448208-0.0359802-0.0911121-0.0572205-0.1453075c-0.0249786,0.0180931-0.0432739,0.025219-0.0520325,0.0385895
		c-0.2696228,0.4115238-0.6662445,0.6449852-1.1216431,0.791254c-0.5913239,0.1899319-1.1910248,0.2367897-1.7943039,0.0632515
		c-0.1581421-0.0454903-0.3131409-0.1133842-0.4576874-0.1926556c-0.9458084-0.5186749-0.9217682-1.5938568-0.5557404-2.1728134
		c0.1667099-0.2636948,0.3811951-0.4798717,0.6298676-0.6644478c0.493515-0.3663025,1.0481873-0.6138573,1.6274643-0.8023834
		c0.455246-0.148159,0.9213104-0.2631817,1.3826599-0.3925591c0.066803-0.0187321,0.1341858-0.0354309,0.2186737-0.0576477
		c-0.0148315-0.480072,0.0465393-0.9590302-0.0710602-1.4318027c-0.146698-0.5897465-0.4968262-0.9129925-1.1016541-0.9894085
		c-0.3392029-0.0428562-0.6771545-0.0144577-1.0041275,0.0975189c-0.2038116,0.0698013-0.3817902,0.1806049-0.5229034,0.3438911
		c-0.2461395,0.2848263-0.2837753,0.6113281-0.1489868,0.9502087
		C127.3085632,26.2757206,127.4195709,26.366354,127.507103,26.4764099z M130.1112213,27.8366833
		c-0.0348816-0.0025482-0.0546417-0.0087223-0.0719299-0.0045719c-0.6410217,0.1539745-1.2732849,0.334034-1.8631592,0.6372147
		c-0.268837,0.138176-0.5196762,0.3016434-0.7260056,0.5262299c-0.2941284,0.3201694-0.3790283,0.6927948-0.2469864,1.1024685
		c0.1319885,0.4095078,0.4412231,0.6384583,0.8508301,0.7172661c0.6843262,0.1316681,1.2626953-0.0841675,1.7325287-0.588932
		c0.2218018-0.238308,0.3278809-0.5277634,0.3255005-0.856863c-0.0032654-0.453846-0.0007935-0.907732-0.0007935-1.361599
		C130.1112061,27.9512501,130.1112213,27.8946056,130.1112213,27.8366833z"/>
	<path class="st0" d="M38.262989,31.3455639c-0.7482567,0-1.4498138,0-2.1856613,0.0000019
		c0.0565491-0.0373573,0.0893402-0.0599594,0.1230392-0.0811195c0.1600456-0.1004887,0.250843-0.2520466,0.3112907-0.4247704
		c0.0856667-0.2447872,0.1063042-0.5004921,0.1069107-0.7562828c0.0030785-1.2983456,0.0044403-2.5967178-0.0014687-3.8950443
		c-0.0010414-0.2289562-0.0367546-0.4580441-0.062233-0.6864281c-0.0076981-0.0689888-0.0305328-0.1373367-0.0538826-0.2033463
		c-0.0887222-0.2508335-0.2689705-0.3805389-0.5342064-0.3922577c-0.0546532-0.0024147-0.1095047-0.000349-0.1642685-0.000349
		c-0.0027657-0.0130005-0.0055313-0.026001-0.0083008-0.0389996c0.6251183-0.265049,1.2502327-0.5300961,1.9046631-0.8075733
		c0,0.4580574,0,0.8872356,0,1.3164139c0.0115585,0.0039711,0.0231171,0.0079441,0.0346718,0.0119152
		c0.0304604-0.0366096,0.0600014-0.0740299,0.0915146-0.1097107c0.6362953-0.7204075,1.4296265-1.1391945,2.3941574-1.1673813
		c0.9222488-0.0269508,1.5858269,0.5021343,1.8226814,1.3948669c0.0775375,0.2922344,0.1078758,0.5908279,0.1081085,0.8923302
		c0.0009232,1.1832275-0.0016022,2.3664627,0.0022354,3.5496788c0.000679,0.2102051,0.014679,0.4217434,0.0417862,0.6301651
		c0.0407906,0.3136253,0.1544838,0.5913887,0.4978447,0.7647915c-0.7366333,0-1.4277992,0.0000019-2.1557693,0.0000019
		c0.3530693-0.1912308,0.43536-0.5028324,0.4737854-0.8320045c0.0221748-0.18997,0.0300789-0.3825207,0.0305748-0.573946
		c0.0027733-1.0744915,0.0018616-2.1489944,0.0009766-3.2234936c-0.0002403-0.2887077-0.0266266-0.5749512-0.1088257-0.8531342
		c-0.1802368-0.609993-0.6091537-0.946846-1.3192902-0.8903599c-0.7845039,0.0623989-1.3381615,0.497736-1.7290497,1.1558552
		c-0.1289978,0.2171936-0.1833611,0.4625168-0.1834183,0.7169437c-0.0002518,1.1128731-0.0009842,2.2257481,0.0013351,3.3386154
		c0.0002556,0.120882,0.0134392,0.2425289,0.0304451,0.3624306C37.7798958,30.8765526,37.8906784,31.1734905,38.262989,31.3455639z"
		/>
	<path class="st0" d="M73.7075272,26.704113c0.524704,0,1.0015182,0,1.5137253,0
		c-0.3993225,0.3751583-0.5343246,0.8569889-0.7038879,1.3221302c-0.2468796,0.6772232-0.587883,1.3039627-1.023819,1.8787041
		c-0.0307922,0.0405941-0.0604248,0.0820675-0.0999756,0.1358795c0.0628967,0.0480309,0.1199417,0.0986481,0.183548,0.1389389
		c0.2697601,0.1708813,0.5382385,0.3442039,0.8140411,0.5049076c0.1090012,0.0635166,0.2344818,0.100338,0.3548508,0.142519
		c0.2710876,0.0950031,0.5159225,0.0411835,0.7354355-0.1400433c0.0437088-0.0360851,0.0875702-0.0719852,0.1371231-0.1127129
		c-0.0358124,0.3549805-0.3557205,0.7996082-0.6641998,0.9242802c-0.184288,0.0744781-0.3798981,0.0870934-0.5637894,0.019268
		c-0.2326889-0.085825-0.4645767-0.1824856-0.6800003-0.3041782c-0.2554016-0.1442699-0.4930267-0.3199749-0.7380524-0.4825134
		c-0.052681-0.0349426-0.1040573-0.0718365-0.1634598-0.1129704c-0.0728073,0.0577793-0.1420288,0.1127338-0.2112885,0.1676502
		c-0.4792404,0.3800316-1.0087204,0.6550484-1.6207809,0.7389221c-0.5003128,0.0685616-0.996666,0.0435314-1.4748154-0.1382179
		c-1.3102493-0.4980297-1.3315887-1.8894901-0.7683029-2.6197147c0.2259064-0.2928562,0.5049438-0.5238438,0.8026505-0.7361526
		c0.1186676-0.0846233,0.240448-0.1648941,0.3687973-0.2526054c-0.0715866-0.0987854-0.1359711-0.1850147-0.1976166-0.2731533
		c-0.250206-0.3577156-0.475502-0.728796-0.5876312-1.1560326c-0.2410889-0.9185829,0.2461624-1.7631016,1.1661301-1.9949265
		c0.5244522-0.1321583,1.0431061-0.0934944,1.5298233,0.1617775c0.6337814,0.3324051,0.8845062,0.9232616,0.6961441,1.6130085
		c-0.0847015,0.3101215-0.2491379,0.5725403-0.4710999,0.8010445c-0.2647781,0.2725849-0.5763397,0.4857368-0.8912354,0.6943703
		c-0.0581512,0.0385284-0.1163712,0.0769501-0.1948242,0.1288185c0.5972824,0.7057343,1.2543869,1.3329506,1.9548187,1.9185162
		c0.0242157-0.0122547,0.0459671-0.0162315,0.0557327-0.029211c0.4543304-0.6038303,0.8096008-1.2565594,0.9708481-2.0015965
		c0.0267715-0.1237125,0.0299149-0.2533627,0.0354843-0.3806419C73.9810944,27.0503216,73.8948059,26.8774681,73.7075272,26.704113z
		 M70.2529831,28.1854c-0.2856979,0.1895924-0.535408,0.3936844-0.7451401,0.6468582
		c-0.4985809,0.601862-0.3206711,1.2958927,0.1427612,1.7131329c0.3631592,0.3269634,0.7898254,0.4539223,1.2743301,0.4014282
		c0.5503998-0.0596352,0.9972-0.321373,1.4145279-0.7024345C71.5833969,29.6076164,70.8942261,28.928236,70.2529831,28.1854z
		 M70.609848,27.3801212c0.3214722-0.2114716,0.6202164-0.4086819,0.8662109-0.6703072
		c0.1034164-0.1099911,0.1971054-0.237114,0.2640686-0.3719025c0.2513885-0.5060062,0.073616-1.0928402-0.413269-1.3796253
		c-0.2897568-0.1706753-0.601799-0.2050838-0.9223709-0.1003609c-0.5128555,0.1675415-0.764801,0.7019634-0.577507,1.2403831
		C69.9928131,26.5749798,70.2958908,26.9704285,70.609848,27.3801212z"/>
	<path class="st0" d="M74.2941132,43.0045586c-0.4713211-0.0066605-0.9305725-0.0747528-1.3624573-0.2743835
		c-0.7555008-0.3492165-1.2422333-0.9447632-1.5461807-1.7026215c-0.217804-0.5431137-0.2857132-1.1119156-0.2598801-1.6925125
		c0.0391998-0.8811646,0.3148804-1.6765099,0.8730545-2.3681984c0.5678101-0.7036209,1.3096313-1.0643005,2.2050552-1.1189919
		c0.4964828-0.0303192,0.9851761,0.0190582,1.4523697,0.2001762c0.7765198,0.3010445,1.2950974,0.8722305,1.6459808,1.6073532
		c0.2757492,0.5777245,0.3633041,1.1952553,0.3392334,1.8293915c-0.0321121,0.8459816-0.2776337,1.6194382-0.8002777,2.2964935
		c-0.5771561,0.7476654-1.3352661,1.1516075-2.2786865,1.2078896
		C74.4729309,42.9944878,74.3835144,42.9994316,74.2941132,43.0045586z M76.5039825,39.6495514
		c0.0039062-0.8029594-0.1697769-1.5125122-0.5909805-2.1519127c-0.1740112-0.2641678-0.3878708-0.4906883-0.6556702-0.6634941
		c-0.8820648-0.5691795-1.9680099-0.3362198-2.5258408,0.5491257c-0.1049042,0.1665001-0.1966553,0.3450928-0.2675476,0.5284996
		c-0.2854385,0.7384605-0.2965393,1.4967346-0.1282272,2.2614326c0.1244736,0.5655441,0.3695755,1.0743141,0.7644119,1.5025482
		c0.4744415,0.514576,1.0697937,0.706768,1.7541809,0.606945c0.507637-0.0740433,0.8716736-0.374855,1.1396561-0.7996483
		C76.3557053,40.9096031,76.5111237,40.2795067,76.5039825,39.6495514z"/>
	<path class="st0" d="M94.8392563,39.5221596c0.0008087-0.9387703,0.2674179-1.7880821,0.8538742-2.5293121
		c0.584137-0.7383118,1.3544235-1.1063347,2.2883224-1.1475677c0.4777069-0.0210953,0.9466324,0.0290642,1.3941498,0.2052345
		c0.8300171,0.3267403,1.3633194,0.9482727,1.7047424,1.749794c0.267128,0.6270599,0.3154984,1.2884636,0.2570114,1.9575195
		c-0.0709152,0.811161-0.3628311,1.5372887-0.89328,2.1615715c-0.5593185,0.6582642-1.2736816,1.007534-2.1334534,1.0680771
		c-0.5762711,0.0405807-1.1378479-0.0154724-1.6681213-0.2600021c-0.7694626-0.3548241-1.2558136-0.9669189-1.5577774-1.7400703
		C94.9009018,40.5167084,94.8370056,40.0241966,94.8392563,39.5221596z M95.9419785,39.347126
		c0.0134659,0.1275482,0.026886,0.3836708,0.0697479,0.6347733c0.1040344,0.6096191,0.34198,1.1626549,0.7498169,1.6338234
		c0.4403534,0.5087395,0.9989777,0.7354469,1.6710205,0.6832771c0.3785934-0.0293884,0.7033157-0.1762009,0.9740219-0.4411926
		c0.3041306-0.297718,0.4966049-0.6640472,0.6293945-1.0617485c0.2281494-0.683342,0.241272-1.3795776,0.094696-2.0805092
		c-0.122551-0.5860367-0.3594666-1.1194-0.7749329-1.5585556c-0.4896011-0.5175247-1.0933075-0.7125359-1.7943573-0.5867157
		c-0.4833298,0.0867462-0.8292999,0.3768578-1.0936813,0.776104C96.0916519,37.914299,95.9502411,38.548378,95.9419785,39.347126z"
		/>
	<path class="st0" d="M33.4403076,38.0949593c-0.4042168,0.1645279-0.7698212,0.3133392-1.1437988,0.4655609
		c-0.1305275-0.1850243-0.1711807-0.3905296-0.1912346-0.5985298c-0.0562325-0.5833054,0.1483231-1.0656128,0.5864182-1.4504089
		c0.3859177-0.3389778,0.8433228-0.5247345,1.3445129-0.6088448c0.4896431-0.0821724,0.979805-0.0954132,1.4671669,0.0190887
		c0.8041954,0.1889381,1.3190079,0.7747917,1.4015656,1.598217c0.0165443,0.1649933,0.0256691,0.3314285,0.0260735,0.4972267
		c0.0023766,0.9844208-0.0017624,1.9688644,0.0038147,2.9532623c0.0010414,0.1838341,0.016613,0.3721771,0.0593681,0.5503197
		c0.1239738,0.5165215,0.4931107,0.7825241,1.0250397,0.7599449c0.0441475-0.001873,0.0881233-0.0077858,0.1321831-0.0118217
		c0.0105057,0.0117226,0.0210152,0.0234451,0.0315208,0.0351639c-0.0330963,0.0175743-0.0690498,0.031292-0.0988426,0.0533257
		c-0.282753,0.2090836-0.5660439,0.417511-0.8453865,0.6310806c-0.0733414,0.0560722-0.1391106,0.0684242-0.2286644,0.0421524
		c-0.4467964-0.1310692-0.7527771-0.4179688-0.9454918-0.8341751c-0.0213013-0.0460014-0.0346184-0.0956955-0.0517693-0.144043
		c-0.0142899,0.0014687-0.0303841-0.0012856-0.0338936,0.0041122c-0.2880783,0.4435081-0.7168198,0.6805305-1.2102089,0.8197823
		c-0.5333252,0.150528-1.0709915,0.1772041-1.6086884,0.0269318c-0.134243-0.0375137-0.2655411-0.0936928-0.3897285-0.1576996
		c-0.9637508-0.4967194-0.9388237-1.5662041-0.5649986-2.135231c0.1603279-0.2440567,0.3627701-0.4454117,0.5956879-0.6179657
		c0.4411201-0.3268089,0.9332314-0.5580215,1.4510689-0.7272072c0.4851875-0.1585236,0.9809494-0.284729,1.4721107-0.4249687
		c0.0542564-0.0154915,0.10886-0.0297546,0.1698608-0.0463753c-0.0065994-0.4502792,0.0348396-0.8916512-0.0634003-1.3273544
		c-0.1356773-0.6017036-0.4764519-0.9189606-1.0869179-0.9938126c-0.3208427-0.039341-0.6423683-0.0159988-0.9445724,0.1028862
		c-0.151432,0.0595703-0.2997284,0.1473808-0.4234619,0.2528572c-0.2759361,0.2352142-0.3327408,0.5469475-0.2536888,0.8897057
		C33.1598892,37.882637,33.2547874,38.0059967,33.4403076,38.0949593z M35.8954506,39.4250641
		c-0.0429001-0.006794-0.0561981-0.0127449-0.0675278-0.0101433c-0.6682396,0.1532364-1.3264961,0.3396416-1.9239426,0.6853828
		c-0.2022018,0.1170158-0.3938408,0.2648468-0.559948,0.4292221c-0.5242462,0.5187721-0.3640366,1.5056229,0.498127,1.7241325
		c0.6007195,0.1522446,1.1391945-0.0023918,1.6036606-0.4098091c0.300518-0.263607,0.4519424-0.5961876,0.4498901-0.9977036
		c-0.0015984-0.3131943-0.0002785-0.6264-0.0002594-0.9396019C35.8954582,39.7475052,35.8954506,39.5884705,35.8954506,39.4250641z"
		/>
	<path class="st0" d="M63.1352463,24.3435574c0.6712112,0,1.3424301,0,2.0361328,0
		c-0.0236664,0.0301895-0.0333328,0.0528469-0.050415,0.0627918c-0.2912598,0.1695099-0.4994583,0.4180088-0.6569595,0.7085247
		c-0.0971375,0.1791992-0.1823425,0.3661995-0.2573242,0.5558491c-0.6788216,1.7168465-1.3505783,3.4364891-2.0323143,5.1521759
		c-0.2884102,0.7258224-0.6324577,1.4251938-1.0728493,2.0735168c-0.2271843,0.3344574-0.4742126,0.6549454-0.791069,0.9081993
		c-0.1880646,0.1503105-0.4032555,0.2669373-0.6076546,0.3964996c-0.0495262,0.0313988-0.1021843,0.0509796-0.1575165,0.001133
		c-0.4028053-0.3628922-0.8066635-0.724617-1.1983986-1.1150894c0.0385971,0.0054016,0.0781441,0.0071297,0.1156387,0.0167961
		c0.2704353,0.069725,0.5444527,0.0805283,0.8185768,0.036541c0.3518143-0.0564537,0.650238-0.2215309,0.9044228-0.4696617
		c0.2585907-0.2524223,0.4622726-0.5463562,0.6441841-0.85569c0.1133232-0.1926937,0.2102127-0.3951149,0.3255272-0.586525
		c0.0705719-0.1171398,0.0611229-0.2203655,0.0133667-0.3419418c-0.5441933-1.385416-1.0843773-2.7724018-1.6254616-4.1590347
		c-0.1532745-0.3927841-0.3062248-0.7856922-0.4588852-1.1787128c-0.1882858-0.4847431-0.4735832-0.8897152-0.9402161-1.1467628
		c-0.0136833-0.0075378-0.021122-0.0263977-0.0415535-0.0532017c0.8210106,0,1.6270752,0,2.460392-0.0000019
		c-0.0370598,0.0330849-0.0525322,0.051096-0.0716858,0.0633564c-0.2449303,0.1567688-0.3276863,0.3862553-0.2804947,0.6618843
		c0.0256958,0.1500568,0.0673141,0.2996655,0.1208153,0.442337c0.4867249,1.297945,0.9776115,2.5943279,1.4675751,3.891058
		c0.0112076,0.0296783,0.0258789,0.0580482,0.0498428,0.1112366c0.030407-0.0582447,0.0560722-0.0978127,0.0728149-0.1408424
		c0.4724808-1.2145405,0.9466782-2.4284286,1.4130707-3.6453037c0.0726128-0.1894665,0.1238937-0.3903809,0.1566544-0.5906372
		c0.0209846-0.1282635,0.0031395-0.2674942-0.0210037-0.3974113C63.4350166,24.5539665,63.291317,24.4449368,63.1352463,24.3435574z
		"/>
	<path class="st0" d="M57.8402328,27.7217541c-1.5473824,0-3.079586,0.0000019-4.6187782,0.0000019
		c0,0.1495667-0.0082817,0.2761688,0.0014687,0.4013672c0.0372009,0.4774914,0.1591377,0.9314766,0.4029236,1.3472424
		c0.7324028,1.2490749,2.0326653,1.3987865,3.0380478,0.9366932c0.4083366-0.187685,0.7429199-0.4719524,1.0367126-0.8074207
		c0.0584602-0.0667572,0.1155853-0.1346893,0.1955986-0.1916523c-0.0160828,0.0575085-0.0298767,0.1157761-0.0486374,0.1723976
		c-0.1131973,0.3415375-0.2630043,0.6651478-0.473175,0.9590607c-0.4311333,0.6029091-1.020092,0.9295788-1.753521,1.0128155
		c-0.4448395,0.0504856-0.8822403,0.0220013-1.3103065-0.1054726c-0.8381996-0.2496014-1.403801-0.8134556-1.7845001-1.5789776
		c-0.3268929-0.6573257-0.4224472-1.3630753-0.4013557-2.0873756c0.0176086-0.604929,0.1210632-1.1942959,0.3655472-1.7532806
		c0.2154922-0.4926987,0.5040398-0.9357624,0.9171219-1.2846603c0.7178192-0.6062889,1.5444565-0.7673931,2.4455223-0.544239
		c0.5324554,0.1318645,0.9319344,0.4658279,1.2432289,0.9087334c0.3521996,0.5011101,0.5545006,1.0635738,0.6552353,1.6625729
		c0.0443993,0.2639999,0.0607262,0.5327511,0.0882492,0.7995052C57.8440094,27.6116753,57.8402328,27.6551285,57.8402328,27.7217541
		z M53.2099419,27.069706c0.1731186,0.048111,3.2392578,0.04459,3.4016342-0.0073166
		c-0.0155029-0.1789169-0.0252304-0.3631229-0.0485649-0.5455914c-0.0507622-0.3970966-0.1740952-0.7711964-0.385025-1.1130314
		c-0.1954384-0.3167458-0.4590302-0.5478382-0.835907-0.6195354c-0.5447044-0.1036243-1.015831,0.0479927-1.3959351,0.4454594
		C53.455677,25.7425632,53.2447166,26.3726521,53.2099419,27.069706z"/>
	<path class="st0" d="M112.7359085,27.7222347c-1.5641098,0.0000019-3.0911102,0.0000019-4.6183395,0.0000019
		c-0.057312,0.1278744-0.0225906,0.2428627-0.0161438,0.3539982c0.0262299,0.4519596,0.1332092,0.884182,0.3459778,1.2859173
		c0.7089844,1.3386745,2.0569687,1.5279827,3.1076431,1.0401173c0.3953857-0.1835976,0.7216949-0.4581146,1.0085754-0.7824459
		c0.0540543-0.0611153,0.1090622-0.1213875,0.1833878-0.2040005c0,0.0588036,0.0071869,0.0890713-0.0010681,0.1143093
		c-0.1257629,0.3850422-0.2913208,0.7506065-0.5382996,1.0750637c-0.3722687,0.4890804-0.8595276,0.7937069-1.4644318,0.9087296
		c-0.6112061,0.1162205-1.2115021,0.0797291-1.7915039-0.1506844c-0.7413788-0.2945137-1.2360306-0.8465328-1.5720367-1.5520744
		c-0.2833633-0.5950241-0.3798676-1.2308464-0.375946-1.8832321c0.004303-0.7172909,0.122879-1.4124432,0.441925-2.0632858
		c0.210495-0.4293842,0.4784164-0.8183575,0.8472519-1.1267738c0.7206116-0.60256,1.5469513-0.7654457,2.4473495-0.5372295
		c0.5814438,0.1473694,0.9987488,0.5271854,1.3160858,1.023468c0.3512192,0.5493011,0.5337601,1.1577873,0.6169815,1.7985744
		C112.7019653,27.2432423,112.7135239,27.466013,112.7359085,27.7222347z M111.4957123,27.0923309
		c-0.0182037-0.2092495-0.0271988-0.3936787-0.051506-0.576067c-0.0581284-0.4360867-0.1957016-0.8448505-0.4496307-1.2084064
		c-0.1858597-0.266098-0.4294891-0.4548244-0.7536392-0.5196095c-0.5673447-0.1133919-1.0486298,0.0516911-1.4416351,0.4695301
		c-0.3178635,0.3379574-0.5147247,0.7426186-0.6208191,1.1920166c-0.0492554,0.2086296-0.0967178,0.4182358-0.0752258,0.6425381
		C109.2309647,27.0923328,110.346283,27.0923328,111.4957123,27.0923309z"/>
	<path class="st0" d="M147.233078,39.3091354c-1.4875946,0-2.9515839,0.0000038-4.4245453,0.0000038
		c-0.0443115,0.1829338-0.0042877,0.3521957,0.0142059,0.5203056c0.0445099,0.4046783,0.1601105,0.7883186,0.3647461,1.1420784
		c0.7172699,1.2399788,2.0008698,1.3438148,2.9341278,0.9033432c0.3950195-0.1864319,0.7167664-0.4652138,1.0008545-0.7915878
		c0.0440216-0.0505714,0.0874939-0.1016388,0.1499939-0.1743126c0,0.0530128,0.0045929,0.0727654-0.0006714,0.0894203
		c-0.1277618,0.4051971-0.3013763,0.7872734-0.5679169,1.1225891c-0.4037323,0.5079079-0.9365997,0.7816963-1.5742035,0.8568878
		c-0.3705597,0.0437012-0.7413483,0.0323105-1.1064301-0.0529251c-0.8942566-0.208786-1.4938965-0.7737961-1.8916016-1.5766983
		c-0.2245026-0.4532127-0.3317413-0.9387054-0.3648071-1.4404373c-0.0564423-0.8565331,0.0539246-1.6847801,0.4494019-2.4586143
		c0.2147675-0.4202385,0.4922638-0.7948685,0.8709412-1.0825653c0.6838226-0.5195465,1.451004-0.6422653,2.2710724-0.4298401
		c0.4622345,0.1197319,0.8209839,0.4072533,1.1058502,0.7855377c0.3859406,0.5124969,0.5911407,1.0997238,0.6965942,1.7252083
		c0.0328979,0.1951065,0.0514832,0.392807,0.0710754,0.5898705C147.2397919,39.1182442,147.233078,39.2005463,147.233078,39.3091354
		z M142.7891235,38.6996346c0.2808838,0.0396194,3.1161194,0.0281258,3.2684326-0.0151024
		c-0.0149231-0.1733551-0.0236511-0.3513451-0.0467224-0.5274544c-0.0546265-0.4168587-0.1851654-0.8079185-0.4261627-1.1563301
		c-0.1851349-0.2676773-0.4299927-0.4514275-0.7565918-0.5118446c-0.4949951-0.0915604-0.9277496,0.0399971-1.284317,0.3887558
		C143.0375824,37.3727531,142.8375549,37.9998474,142.7891235,38.6996346z"/>
	<path class="st0" d="M57.7134018,39.2986946c-0.0101128,0.5175133,0.072628,0.9839401,0.268528,1.4291039
		c0.15979,0.3631287,0.3871307,0.6788292,0.7005577,0.9233704c0.6858444,0.5351067,1.4418755,0.5762444,2.2302094,0.2788773
		c0.4529343-0.1708527,0.8108978-0.4812241,1.1250992-0.8435211c0.0457268-0.0527344,0.0912361-0.1056633,0.166153-0.1924591
		c-0.0149612,0.0773125-0.018528,0.115406-0.0298195,0.1510468c-0.1166801,0.3682137-0.2777405,0.7147598-0.512001,1.0240784
		c-0.4227676,0.5582314-0.991169,0.8507576-1.6831017,0.9149017c-0.3984375,0.0369377-0.7931938,0.0154266-1.1791725-0.0946198
		c-0.7068176-0.2015228-1.2236938-0.6462631-1.601059-1.2650528c-0.3024063-0.4958801-0.4582253-1.0404549-0.5055237-1.6140518
		c-0.0605049-0.733696-0.0038185-1.4574852,0.2601242-2.1526642c0.2289696-0.6030655,0.5680771-1.1335449,1.0937843-1.5212822
		c0.6723785-0.4959145,1.4250946-0.6067009,2.2239265-0.4010048c0.4279785,0.110199,0.7717247,0.3650475,1.0485001,0.7074242
		c0.3954773,0.4892197,0.6130142,1.0577888,0.7349548,1.6677055c0.0638351,0.3192978,0.0948524,0.6420021,0.1060715,0.9881477
		C60.680481,39.2986946,59.2117615,39.2986946,57.7134018,39.2986946z M60.9723663,38.7125092
		c-0.0105972-0.1629524-0.0154915-0.308445-0.0303001-0.4529228c-0.0442886-0.4320297-0.1678543-0.8389015-0.4037781-1.2068291
		c-0.1871719-0.291893-0.4391098-0.4981232-0.7884102-0.5627136c-0.5429649-0.1003952-0.999218,0.0669785-1.3683472,0.4678612
		c-0.3525963,0.3829079-0.5473862,0.8438225-0.6287804,1.354126c-0.0205917,0.1290665-0.0290489,0.260067-0.0441971,0.4004822
		C58.8033867,38.712513,59.8702431,38.712513,60.9723663,38.7125092z"/>
	<path class="st0" d="M129.9818268,39.3032646c-1.5138702,0-2.9821777,0-4.4584885,0.0000038
		c-0.0431824,0.1955338-0.0043793,0.3707771,0.0157852,0.5453072c0.0436935,0.3780785,0.1495819,0.7379684,0.3340302,1.0724449
		c0.7296219,1.3230247,2.0909424,1.4084244,3.0471039,0.9124832c0.3632812-0.1884232,0.6614838-0.4564476,0.9274597-0.7633057
		c0.0411987-0.0475388,0.0834198-0.0941887,0.1349792-0.152298c0.0032959,0.0355034,0.0107269,0.0551872,0.0057983,0.0710258
		c-0.1459198,0.4685097-0.3530731,0.9044876-0.6885834,1.27005c-0.2835999,0.3089867-0.6284485,0.5260277-1.0326538,0.6335335
		c-0.640976,0.170475-1.2814407,0.1564293-1.9035797-0.0824127c-0.7466888-0.2866669-1.2383957-0.8408051-1.5604019-1.5555344
		c-0.3070221-0.6815033-0.3739548-1.4024696-0.3209763-2.1384048c0.0459671-0.6384544,0.200943-1.2477455,0.5235519-1.8066597
		c0.2965775-0.5138206,0.6770782-0.9457779,1.2207794-1.2101555c0.5429535-0.264019,1.1145935-0.3226318,1.7014618-0.20084
		c0.5093155,0.1056938,0.9129257,0.387455,1.2287674,0.796463c0.3590088,0.4649277,0.5723419,0.9961243,0.6808472,1.5677605
		C129.9006042,38.5941048,129.9315186,38.9315453,129.9818268,39.3032646z M128.772644,38.7099342
		c-0.015564-0.1884804-0.0240784-0.3592873-0.0447235-0.5286217c-0.0508728-0.4174652-0.1800232-0.8087502-0.4152679-1.1603889
		c-0.1807709-0.2702293-0.4212036-0.4625435-0.7465439-0.5267525c-0.5810852-0.1146736-1.0569763,0.07687-1.4370575,0.5172806
		c-0.2852325,0.3304977-0.4633942,0.7168159-0.5499954,1.1433678c-0.0362473,0.1785583-0.0556259,0.3605309-0.084816,0.5551147
		C126.5935898,38.7099342,127.6641769,38.7099342,128.772644,38.7099342z"/>
	<path class="st0" d="M47.7260284,24.579401c0,0.5573463,0,1.1044388,0,1.6515312
		c-0.0086784,0.002203-0.0173607,0.004406-0.0260391,0.006609c-0.0181313-0.0577469-0.0348663-0.1159744-0.0546036-0.1731682
		c-0.2036438-0.5900307-0.5673676-1.0277405-1.1849823-1.2080517c-0.4054451-0.1183701-0.8086891-0.1059208-1.1970673,0.0794334
		c-0.8474655,0.4044495-0.7162933,1.3730831-0.1993103,1.7308559c0.3198586,0.2213554,0.65662,0.4191284,0.9918861,0.6171951
		c0.2970619,0.175499,0.6064873,0.3301506,0.9028549,0.5067501c0.1861916,0.1109505,0.3685493,0.2332058,0.5347672,0.3717766
		c0.387249,0.3228207,0.5981979,0.7407722,0.6254807,1.2475567c0.060051,1.1155834-0.5963593,1.7544403-1.3944855,2.0019703
		c-0.8447723,0.2619991-1.692112,0.2282848-2.5192299-0.0947304c-0.1649742-0.0644245-0.3146896-0.1681023-0.4707527-0.2549191
		c-0.059124-0.0328865-0.0947685-0.078371-0.094532-0.1531658c0.0018501-0.5939922,0.00103-1.187994,0.0280724-1.7913113
		c0.0131531,0.0358009,0.0264893,0.0715389,0.0394363,0.1074142c0.0606956,0.1680584,0.1108589,0.3408108,0.1836433,0.5034599
		c0.3862572,0.8631496,1.1166725,1.2178535,2.0368576,1.1439915c0.272049-0.0218372,0.5265846-0.0995522,0.7567215-0.2500267
		c0.4061165-0.265543,0.5506363-0.7349548,0.3451462-1.1742935c-0.0638008-0.1364002-0.1503792-0.2741833-0.2602997-0.3743382
		c-0.1876068-0.1709499-0.3899727-0.3325539-0.6073914-0.4626255c-0.4880676-0.2919903-0.9968643-0.5495815-1.4829025-0.8447266
		c-0.5274506-0.3202915-0.8792953-0.775156-0.9518433-1.4089127c-0.0936966-0.8185749,0.2887497-1.5512257,1.0160828-1.950737
		c0.4270859-0.2345905,0.890419-0.31036,1.3704262-0.3008957C46.6881905,24.117363,47.2254448,24.2608452,47.7260284,24.579401z"/>
	<path class="st0" d="M79.495636,36.771656c-0.405571,0-0.7861328,0-1.1767578,0c0-0.2361526,0-0.4510422,0-0.6943817
		c0.3843918-0.0121994,0.7705765,0.002346,1.1767883-0.0086975c0-0.0905304-0.0003586-0.1655083,0.000061-0.2404823
		c0.0029297-0.5137405,0.0441666-1.0227089,0.2270432-1.5082855c0.0627213-0.1665268,0.1381454-0.3311157,0.2296219-0.4834862
		c0.3823547-0.6368942,0.9530792-0.942421,1.6938553-0.925396c0.196228,0.0045052,0.3919144,0.0320091,0.5966644,0.0497131
		c0,0.4234962,0,0.8215408,0,1.2508965c-0.0485916-0.0593872-0.0801086-0.0957222-0.1092529-0.1338692
		c-0.1897354-0.2484283-0.4410934-0.3817596-0.7523422-0.4044571c-0.2831039-0.0206413-0.5027542,0.0844116-0.6344986,0.3387566
		c-0.0581818,0.1123161-0.1062851,0.2340698-0.1340637,0.3571472c-0.1251678,0.554493-0.0690994,1.1171799-0.0801239,1.6983109
		c0.5763397,0,1.1359177,0,1.7083893,0c0,0.2402267,0,0.4598923,0,0.7025032c-0.5639725,0-1.1232605,0-1.6942368,0
		c-0.0058823,0.07687-0.0137939,0.1322136-0.0138168,0.1875572c-0.0006332,1.5152817-0.0025253,3.030571,0.0020981,4.5458374
		c0.0006104,0.1969032,0.0242233,0.3956223,0.0573044,0.5900841c0.0474625,0.2790527,0.1604462,0.5248451,0.4691696,0.6819725
		c-0.7135849,0-1.3844681,0-2.0913239,0.0000038c0.4150085-0.2214622,0.4741898-0.5994797,0.5175552-0.9838943
		c0.0092773-0.082283,0.0075378-0.1660194,0.0075607-0.2490845c0.0003967-1.5152779,0.0003052-3.0305595,0.0003052-4.5458374
		C79.495636,36.9331017,79.495636,36.8696404,79.495636,36.771656z"/>
	<path class="st0" d="M140.8746033,37.7900734c-0.3755798,0.1658592-0.7360687,0.325058-1.1148376,0.4923248
		c0.0110168-0.1623192,0.024353-0.2998199,0.029068-0.4376183c0.0278473-0.8175621-0.6376953-1.3712044-1.4679413-1.2562103
		c-0.4628143,0.0640984-0.8247375,0.2936821-1.1056366,0.6597023c-0.2742462,0.3573799-0.4392395,0.7630959-0.5139313,1.20438
		c-0.1247253,0.7369232-0.1043243,1.4673004,0.1714172,2.1698685c0.0993347,0.2530632,0.2311249,0.5013084,0.3897858,0.7218094
		c0.5978851,0.8309097,1.6347198,1.0598488,2.5402679,0.5785789c0.397171-0.2110748,0.7110291-0.5178719,0.9876251-0.866642
		c0.0357056-0.0450287,0.0715332-0.0900116,0.108963-0.1335831c0.0058594-0.006794,0.0206909-0.0058746,0.0478973-0.0125999
		c-0.1480255,0.5617523-0.3950348,1.0552444-0.81604,1.453968c-0.4917603,0.4657478-1.0764771,0.6646004-1.7504425,0.6335144
		c-0.6320038-0.0291519-1.2093201-0.2004013-1.6965637-0.6168709c-0.510376-0.436245-0.8144073-1.0002441-0.9504547-1.6478119
		c-0.1931305-0.9192162-0.1467438-1.8306503,0.1767426-2.7180443c0.2377472-0.6521873,0.627243-1.2026215,1.1892548-1.6131706
		c0.7414093-0.5416031,1.5704193-0.7118263,2.4530182-0.4450989c0.7090759,0.2142906,1.1238861,0.7262459,1.2716522,1.4503593
		C140.8496704,37.5305405,140.8577423,37.65765,140.8746033,37.7900734z"/>
	<path class="st0" d="M95.7828903,25.0758038c-0.3118668,0-0.5960846,0-0.9234619,0
		c0.6732712-0.7982063,1.3175125-1.5619812,1.9617538-2.325758c0.0133743,0.0040627,0.0267639,0.0081253,0.0401459,0.012188
		c0,0.5188599,0,1.0377216,0,1.5782166c0.6924591,0,1.3606033,0,2.0405502,0c0,0.2497101,0,0.4773083,0,0.730669
		c-0.0648041,0.0039024-0.1317368,0.0113106-0.1986923,0.0114307c-0.5373993,0.0009594-1.0747986,0.0005455-1.6121979,0.0005512
		c-0.0684433,0-0.1368866,0-0.2277832,0c0,0.086792,0,0.1490612,0,0.2113304
		c0.0000076,1.3552437-0.0046921,2.7105198,0.0044098,4.0657005c0.0016098,0.2398586,0.0337753,0.4869308,0.0988617,0.717411
		c0.1382141,0.4894524,0.5179367,0.7032318,1.0194016,0.6095982c0.3811722-0.0711746,0.6802521-0.2817535,0.9435806-0.553093
		c0.0567017-0.0584259,0.1108475-0.1193352,0.1713028-0.1846466c0.0102005,0.0280552,0.019928,0.0407085,0.0176315,0.0505486
		c-0.1083221,0.4634323-0.2860565,0.8959713-0.6671295,1.2002392c-0.5300369,0.4231892-1.1311264,0.4952583-1.7507324,0.2377872
		c-0.4794464-0.1992321-0.7286987-0.6103592-0.8390961-1.1004238c-0.0501328-0.2224693-0.0741806-0.4552937-0.0752182-0.6835804
		c-0.0065613-1.4383183-0.0033264-2.8766804-0.0033264-4.3150272
		C95.7828903,25.2633648,95.7828903,25.1877861,95.7828903,25.0758038z"/>
	<path class="st0" d="M48.7343864,21.7562275c0.6204262-0.2469044,1.2408447-0.4938068,1.8784752-0.7475605
		c0.010685,0.0606499,0.0235176,0.1013889,0.024086,0.1422977c0.0023651,0.172575,0.0011101,0.3452015,0.0011101,0.5178089
		c0.0000153,2.7872906,0.0000229,5.5745831,0.0000229,8.3618736c0,0.2496967,0.009491,0.4978771,0.0797386,0.7405643
		c0.0684662,0.2365532,0.1830864,0.4355736,0.4199257,0.5466976c-0.132988,0.0456161-1.3292542,0.0608273-2.1102638,0.0289192
		c-0.0000687-0.0099297-0.0035973-0.0267467,0.0004311-0.0288086c0.3238411-0.1655388,0.4155769-0.4690456,0.4633904-0.7928486
		c0.0232468-0.1574249,0.0315628-0.3183384,0.0316963-0.4776859c0.0019264-2.3014317,0.0031395-4.602869-0.0014381-6.9042931
		c-0.0004692-0.2351475-0.0359421-0.4705906-0.0621986-0.7051105c-0.0084038-0.0750599-0.035183-0.1491165-0.0609398-0.220993
		c-0.0911713-0.2544117-0.2735596-0.3930874-0.5430374-0.4167061c-0.0379448-0.0033264-0.0760841-0.004406-0.1141281-0.006525
		C48.7389641,21.7813148,48.7366753,21.7687721,48.7343864,21.7562275z"/>
	<path class="st0" d="M30.6170006,24.8481121c0.5895176-0.2573452,1.179039-0.5146904,1.7792587-0.7767048
		c0.0551224,0.1498852,0.02285,0.2960091,0.028614,0.438345c0.0056877,0.14048,0.0012436,0.2813683,0.0012436,0.4220772
		c0.0000038,0.1471043-0.0004845,0.2942123,0.0001488,0.4413128c0.0005875,0.1360435,0.0023689,0.2720833,0.0036278,0.408123
		c0.0128822,0.0013962,0.0257645,0.0027905,0.0386429,0.0041866c0.0270157-0.0549469,0.0540581-0.1098843,0.0810471-0.1648445
		c0.2454796-0.4998779,0.6013794-0.9053116,1.0686607-1.2055702c0.3945084-0.2534981,0.8261223-0.3752575,1.2979507-0.2748909
		c0.1236229,0.0262947,0.2421532,0.0765018,0.3633537,0.1158371c0.0000038,0.5097542,0.0000038,1.0047054,0.0000038,1.5336571
		c-0.0573463-0.0647392-0.0939827-0.104805-0.1292114-0.1460667c-0.4958649-0.5807343-1.2461014-0.6390972-1.8192024-0.1314812
		c-0.395401,0.3502235-0.6250763,0.8038521-0.7660179,1.3054771c-0.0974579,0.3468513-0.1370735,0.7025051-0.1382256,1.0618362
		c-0.0023689,0.7355175-0.0017815,1.4710484,0.0002213,2.2065678c0.0003471,0.1276703,0.0050392,0.2564888,0.0225296,0.3827286
		c0.0481567,0.347599,0.130558,0.6796036,0.520977,0.8749046c-0.7458,0-1.4458923,0-2.1842899,0
		c0.4203854-0.203886,0.4948654-0.571104,0.5404758-0.9508591c0.0144405-0.1202335,0.0151386-0.2426109,0.0150871-0.364006
		c-0.0005684-1.3814697-0.0002422-2.7629509-0.0068607-4.1443958c-0.0008488-0.1773491-0.0238533-0.358223-0.0643349-0.5309753
		c-0.0773907-0.3302593-0.2263775-0.4423351-0.5659065-0.4623032c-0.0251942-0.001482-0.0503464-0.003767-0.0755177-0.0056763
		C30.6251831,24.8729649,30.6210938,24.8605385,30.6170006,24.8481121z"/>
	<path class="st0" d="M113.2672272,24.8488712c0.5885544-0.2569771,1.1771011-0.5139542,1.7770691-0.7759209
		c0.0576706,0.1488514,0.0236588,0.294548,0.029747,0.4360161c0.0060577,0.1404171,0.0013275,0.2812996,0.0013275,0.421978
		c0,0.1470737,0,0.2941456,0,0.4412193c0,0.137495,0.0000076,0.2749901,0.0000076,0.412487
		c0.0140381,0.0030136,0.0280762,0.0060291,0.042099,0.0090427c0.0205917-0.0430202,0.0414429-0.0859146,0.0617142-0.1290874
		c0.222168-0.4733467,0.5508347-0.8593788,0.9693069-1.1693993c0.2771683-0.2053299,0.5869141-0.3346081,0.9314499-0.3780689
		c0.300827-0.0379486,0.5832443,0.0147343,0.8499374,0.1520309c0,0.5023689,0,0.9964447,0,1.5250626
		c-0.0538635-0.0633965-0.085434-0.1003189-0.1167603-0.137455c-0.5186386-0.6148262-1.3099136-0.6553459-1.888298-0.0923843
		c-0.3626938,0.3530293-0.5819397,0.7893143-0.712944,1.2727623c-0.0839691,0.3098869-0.1289444,0.6263046-0.1290207,0.9473476
		c-0.0001907,0.8438282,0.0029907,1.6876564,0.0062943,2.5314789c0.000267,0.0700455,0.0067902,0.1408615,0.0185623,0.2099285
		c0.055748,0.3270302,0.1457367,0.6354446,0.5153122,0.8181667c-0.7481995,0-1.448288,0.0000019-2.1848907,0.0000019
		c0.4186172-0.2041035,0.4955368-0.5701599,0.5392609-0.9504528c0.015274-0.1329212,0.0141449-0.2681465,0.0142441-0.4023228
		c0.000946-1.3044739,0.0027618-2.6089554-0.0016174-3.9134159c-0.0007324-0.2163639-0.0260086-0.433075-0.0487366-0.6486988
		c-0.0078735-0.0746841-0.0378113-0.1483593-0.0656433-0.2193775c-0.0747375-0.1907177-0.2171402-0.2944584-0.4213486-0.3129921
		c-0.0605927-0.005497-0.1212463-0.0102177-0.1818771-0.0152931
		C113.2706909,24.8706398,113.268959,24.8597565,113.2672272,24.8488712z"/>
	<path class="st0" d="M130.6249695,36.5616379c0.5984955-0.2612305,1.1582794-0.505558,1.7471619-0.7625961
		c0,0.5737572,0,1.1224937,0,1.6712303c0.0117493,0.0019531,0.0234985,0.0039062,0.0352325,0.0058594
		c0.0273438-0.0546989,0.0556488-0.1089401,0.0818634-0.1641769c0.216095-0.455265,0.5372925-0.8232574,0.9437714-1.1161995
		c0.3308105-0.2383957,0.7007294-0.366375,1.1132507-0.3524132c0.2011108,0.0068054,0.3896484,0.0597115,0.5743103,0.1582985
		c0,0.4727707,0,0.9429054,0,1.4543457c-0.0595703-0.0649757-0.0999756-0.1068192-0.1379395-0.1507797
		c-0.2888489-0.3345985-0.6487274-0.488308-1.0920868-0.4277763c-0.3061981,0.0418053-0.5499725,0.1998978-0.7564697,0.4195251
		c-0.3230896,0.3436089-0.5328827,0.7520447-0.6338196,1.2087555c-0.0617218,0.2793846-0.1087189,0.5674782-0.1147003,0.8526573
		c-0.0159454,0.760685-0.0083618,1.5219116-0.0046234,2.2828979c0.0007324,0.1462593,0.0164795,0.294281,0.0431061,0.4382019
		c0.0524445,0.2835884,0.1553802,0.540802,0.4754791,0.6971779c-0.7088318,0-1.3747406,0-2.0750275,0
		c0.4138184-0.2211952,0.4673157-0.600853,0.509491-0.984787c0.0083466-0.0759811,0.0059814-0.1533089,0.0059967-0.230011
		c0.0003204-1.3046417,0.0024109-2.6092911-0.0021515-3.9139175c-0.0006714-0.1905975-0.0155487-0.3848991-0.0552826-0.5707817
		c-0.0702209-0.3285599-0.2061005-0.464798-0.5249481-0.4876366
		C130.7278137,36.5873795,130.6985931,36.5774269,130.6249695,36.5616379z"/>
	<path class="st0" d="M67.3181,35.9973679c0,0.4808426,0,0.9504166,0,1.4577866
		c-0.0628128-0.0715523-0.1025848-0.1175156-0.1430511-0.1628494c-0.4781876-0.5357094-1.1886444-0.5819702-1.7231674-0.1023216
		c-0.4356918,0.3909569-0.6747589,0.8963623-0.7798233,1.4618912c-0.0533752,0.2872658-0.0785904,0.5828819-0.0838547,0.875309
		c-0.0119781,0.6645813-0.010437,1.3296318-0.0001297,1.9942703c0.003624,0.2344246,0.0345993,0.4709244,0.0789185,0.7015228
		c0.0450516,0.2344131,0.1698837,0.4268837,0.40448,0.5332108c-0.1509705,0.0436287-1.2892685,0.0574379-1.9999924,0.0264854
		c-0.0005722-0.01054-0.0050774-0.0284424-0.0011063-0.0305786c0.2898369-0.1556091,0.3893127-0.4282608,0.4380836-0.7262268
		c0.0246735-0.1507301,0.0371742-0.3051224,0.0375061-0.4578972c0.0028458-1.3104134,0.0041313-2.620842-0.0011215-3.9312401
		c-0.0007668-0.1901932-0.023468-0.3834457-0.0627785-0.5696411c-0.0696373-0.3298836-0.1834908-0.4250412-0.5118256-0.4758759
		c-0.0306778-0.0047493-0.0610771-0.0112915-0.0996513-0.0474701c0.5623741-0.2453613,1.1247482-0.4907188,1.7137718-0.7477036
		c0,0.3051338,0,0.578083,0,0.8510284c0,0.2679596,0,0.5359192,0,0.8038826
		c0.0088806,0.0033875,0.0177536,0.0067749,0.0266342,0.0101624c0.0224228-0.0397911,0.0475235-0.078331,0.0668716-0.1195602
		c0.2224197-0.473999,0.5524979-0.8582764,0.9787369-1.1589508c0.3276749-0.2311401,0.6924667-0.353878,1.0976028-0.3390503
		C66.9549942,35.8508987,67.1429596,35.9044609,67.3181,35.9973679z"/>
</g>
</svg>
