<?xml version="1.0" encoding="utf-8"?>
<!-- Generator: Adobe Illustrator 25.3.0, SVG Export Plug-In . SVG Version: 6.00 Build 0)  -->
<svg version="1.1" id="Layer_1" xmlns="http://www.w3.org/2000/svg" xmlns:xlink="http://www.w3.org/1999/xlink" x="0px" y="0px"
	 viewBox="0 0 400 200" style="enable-background:new 0 0 400 200;" xml:space="preserve">
<g>
	<g>
		<path d="M67.6907501,73.3883743L46.3314438,94.7476807c-1.2793236,1.2793274-1.2793236,3.353447,0,4.6327667
			l14.4699249,14.4699326L67.6907501,73.3883743z"/>
		<path d="M61.1164055,114.1654663l12.3139839,12.3139801c1.2793121,1.2793274,3.3528366,1.2793274,4.632164,0
			l12.3133926-12.3139801H61.1164055z"/>
		<path d="M105.1616745,94.7478638L82.8521423,72.438942l-5.0213165,29.4938507h14.9915543l-1.9981766,11.7847061
			l14.337471-14.3368683C106.440979,98.1013107,106.440979,96.0271912,105.1616745,94.7478638"/>
		<polygon points="297.3187256,87.0859528 292.0324707,99.2439194 291.3689575,87.0859528 287.852417,87.0859528 
			282.6050415,99.2627716 281.8467407,87.0859528 277.0261841,87.0859528 279.2421875,107.8759689 282.945343,107.8759689 
			287.9177856,96.4403687 288.6048279,107.8759689 292.3450623,107.8759689 302.2375793,87.0859528 		"/>
		<path d="M309.221344,91.5125504c-4.5944824,0-9.0270691,3.7467041-9.880188,8.351799
			c-0.413269,2.2301254,0.1142578,4.4296341,1.447113,6.0321655c1.319397,1.5860519,3.2757568,2.4597397,5.5082397,2.4597397
			c4.0133972,0,8.8215942-2.9277725,9.827179-8.3523712c0.426239-2.3002014-0.0706482-4.4461288-1.3988647-6.0433807
			C313.4307861,92.40448,311.4249573,91.5125504,309.221344,91.5125504 M308.6184998,95.8244324
			c0.8848572,0,1.6790466,0.3679581,2.2348022,1.0373688c0.647644,0.7788925,0.8854675,1.8545074,0.6676331,3.0290298
			c-0.369751,1.996994-2.2424927,4.1529465-4.621582,4.1529465c-0.9584656,0-1.7956238-0.3714981-2.3566895-1.0455933
			c-0.611145-0.7347488-0.828949-1.779747-0.6140442-2.9407425
			C304.4408264,97.2956924,306.981781,95.8244324,308.6184998,95.8244324"/>
		<path d="M328.2020264,91.5124054h-0.9302368c-1.2492981,0-2.1005859,0.3714981-2.74823,0.8572159l0.0647888-0.3508911h-4.3301697
			l-2.9383545,15.8575745h4.6233215l1.6219788-8.7521286c0.2584534-1.3953018,0.8766174-3.0102081,3.3840332-3.1132278
			l0.4221497-0.017662L328.2020264,91.5124054z"/>
		<polygon points="326.9975281,107.8762512 331.6213989,107.8762512 335.4735107,87.0862579 330.850769,87.0862579 		"/>
		<path d="M350.1268921,87.0858459l-1.0461731,5.6424484c-0.9643555-0.8348312-2.1812744-1.215744-3.8126526-1.215744
			c-3.8408813,0-8.5784302,3.1932907-9.5345764,8.351799c-0.4350281,2.3496399,0.0547791,4.5208893,1.3788452,6.1134109
			c1.2575378,1.5112915,3.1638489,2.3784943,5.2303162,2.3784943c2.0081787,0,3.4611816-0.7129593,4.3955078-1.4000092
			l-0.1707458,0.9201889h4.330719l3.8521118-20.7905884H350.1268921z M345.0384827,95.8244324
			c0.9508057,0,1.7520447,0.3585434,2.3160706,1.0361786c0.6381836,0.767128,0.8848572,1.8521576,0.6758728,2.9772415
			c-0.3768005,2.0311432-2.3596497,4.205925-4.7116394,4.205925c-0.9319763,0-1.7538452-0.3720932-2.3154907-1.0461884
			c-0.6464539-0.7777252-0.880188-1.8692398-0.6570435-3.0737839
			C340.7059937,97.9850998,342.7206421,95.8244324,345.0384827,95.8244324"/>
		<polygon points="126.5803833,87.1086807 121.8498917,87.1086807 117.9972076,107.8998642 128.7533875,107.8998642 
			129.5823364,103.4266586 123.5566254,103.4266586 		"/>
		<path d="M145.004776,93.2274094c-0.7706451-0.78125-2.1388702-1.6920242-4.2053375-1.6920242
			c-4.4761505,0-8.509552,3.5447769-9.3802948,8.2446442c-0.472168,2.548645-0.004715,4.8258591,1.3158112,6.4136887
			c1.1721649,1.4100113,2.9218903,2.1859665,4.9265442,2.1859665c1.5389557,0,3.3864136-0.6187592,4.8246765-1.5601501
			l-0.2001648,1.0803299h4.3307343l2.9383698-15.8581696h-4.330719L145.004776,93.2274094z M135.9777222,100.1338501
			c0.3844299-2.0776367,2.1812592-4.2859879,4.7522583-4.2859879c0.9702301,0,1.836853,0.3732605,2.3790741,1.0250015
			c0.5958099,0.7164841,0.7912598,1.7402954,0.5652008,2.9607468c-0.4545135,2.4532547-2.4156036,4.2330017-4.6633911,4.2330017
			c-1.009079,0-1.8409576-0.3585434-2.4067383-1.0385284C135.9906616,102.2904053,135.7687073,101.2624664,135.9777222,100.1338501"
			/>
		<path d="M160.4228668,91.5351334c-1.5601501,0-2.7641144,0.5439987-3.6177826,1.0885925l0.1083221-0.5822678h-4.3572235
			l-2.9389496,15.8581696h4.6239166l1.3852997-7.473999c0.2189941-1.1821747,0.4915924-2.6534195,1.212204-3.4617615
			c0.7365112-0.8831024,1.8015137-1.1162415,2.261322-1.1162415c0.6134644,0,1.0509033,0.1677933,1.337616,0.5127945
			c0.7500305,0.901947,0.3856201,2.866539,0.2484436,3.6065903l-1.4700775,7.9326172h4.6239319l1.5624847-8.4324493
			c0.2313843-1.2451859,0.7106171-3.8344345-0.4603729-5.634201
			C163.8634338,92.1368256,161.8334808,91.5351334,160.4228668,91.5351334"/>
		<path d="M182.3448792,87.1085587l-1.0455933,5.6430359c-0.9643402-0.8354187-2.1812592-1.2163315-3.8132324-1.2163315
			c-3.8408966,0-8.5778656,3.193306-9.5339661,8.351799c-0.4356689,2.3502274,0.0541687,4.5214767,1.3782196,6.1139984
			c1.2575378,1.5112915,3.1638641,2.3790894,5.2309265,2.3790894c2.0081635,0,3.4611664-0.7129593,4.3948975-1.4005966
			l-0.1701508,0.9201813h4.3295746l3.8532562-20.7911758H182.3448792z M177.2564545,95.8477325
			c0.9508057,0,1.7520752,0.3579559,2.3160858,1.0361786c0.6381836,0.767128,0.8842621,1.8521652,0.6758575,2.9766464
			c-0.3767853,2.0317383-2.3596497,4.2059326-4.7116394,4.2059326c-0.9319763,0-1.7538452-0.370903-2.3154907-1.0455933
			c-0.6464386-0.7777252-0.8795776-1.8692474-0.6564484-3.0737915
			C172.9245453,98.0078049,174.9391937,95.8477325,177.2564545,95.8477325"/>
		<path d="M194.0158539,91.5351334c-2.6546021,0-5.7484131,1.8774948-6.3300781,5.0189819
			c-0.4221344,2.2766418,0.6222992,4.0393066,2.8830414,4.8423309c2.5144806,0.9037094,2.6652069,1.044426,2.5603943,1.6107941
			c-0.0765381,0.4097519-0.5115967,1.0597153-1.3558502,1.0597153c-0.8371887,0-1.0161591-0.4686279-1.0662079-1.3923492
			l-0.0270691-0.5010223h-4.6092224l-0.0459137,0.478653c-0.080658,0.8295212-0.2148895,2.2177658,0.6022797,3.5276871
			c0.8418884,1.3770599,2.5303802,2.2000961,4.5167694,2.2000961c2.7211456,0,5.9774323-1.9651871,6.6521301-5.6065063
			c0.6723328-3.6272049-2.2607422-4.5727081-3.6607666-5.0230942l-0.072403-0.025322
			c-1.795639-0.6187515-1.8403931-0.700592-1.7791595-1.0308762c0.0653381-0.3514633,0.4427338-0.8465958,1.0762024-0.8465958
			c0.3785553,0,0.6340637,0.1289291,0.6458282,0.7600708l0.010025,0.5198441h4.4472961l0.0635834-0.4562607
			c0.19664-1.4076767-0.1336365-2.65168-0.9572754-3.5983505C196.7199097,92.0956268,195.4246826,91.5351334,194.0158539,91.5351334
			"/>
		<path d="M209.3562927,95.8477325c1.841568,0,2.2825165,1.1397934,2.545105,1.8209686l0.1312866,0.3391037h4.9765778
			l-0.0894928-0.6075592c-0.6411285-4.3289719-4.1499939-5.8649826-6.9606171-5.8649826
			c-4.5650482,0-8.9670105,3.7113724-9.812439,8.2723083c-0.429184,2.3166733,0.0647583,4.4702606,1.3911743,6.0645599
			c1.3252411,1.5937042,3.3387146,2.5080185,5.5235138,2.5080185c3.6319122,0,6.9435425-2.0864792,8.8592834-5.58181
			l0.4303589-0.7847672h-5.1461182l-0.1595459,0.1966248c-0.9979095,1.2322311-2.0912018,1.8562927-3.2480621,1.8562927
			c-1.0414734,0-1.8886566-0.356781-2.4508972-1.0326385c-0.6187744-0.7441711-0.8395538-1.8027191-0.6211243-2.9795914
			C205.236908,97.2924957,207.4417267,95.8477325,209.3562927,95.8477325"/>
		<path d="M232.141037,92.0416946l-0.2231293,1.2010193c-0.7783051-0.7835999-2.1582947-1.7073288-4.2023926-1.7073288
			c-4.4767456,0-8.5095673,3.5447769-9.3803101,8.2446442c-0.472168,2.548645-0.0052948,4.8258591,1.3158112,6.4136887
			c1.1715851,1.4100113,2.9219055,2.1859665,4.9265442,2.1859665c1.5395355,0,3.3863983-0.6187592,4.8246918-1.5601501
			l-0.2001801,1.0803299h4.3307343l2.9377899-15.8581696H232.141037z M222.8932037,100.1338501
			c0.3856201-2.0776367,2.1824188-4.2859879,4.7528534-4.2859879c0.9702148,0,1.8374481,0.3732605,2.3790741,1.0250015
			c0.5957947,0.7164841,0.7912445,1.7402954,0.5646057,2.9607468c-0.4545135,2.4532547-2.4150085,4.2330017-4.662796,4.2330017
			c-1.009079,0-1.8415527-0.3591309-2.4067535-1.0385284C222.906723,102.2904053,222.6841888,101.2624664,222.8932037,100.1338501"
			/>
		<path d="M247.9252777,91.5349731c-1.6696625,0-3.171524,0.4809875-4.4802856,1.4306259l0.1713257-0.9237289h-4.3313141
			l-3.8520966,20.7905884h4.6244965l1.0662079-5.7595901c0.7488708,0.6793976,1.8568878,1.3069916,3.8768311,1.3069916
			c4.4037323,0,8.5348816-3.6807785,9.4056244-8.3794632c0.4327087-2.3378754-0.0995026-4.683403-1.4235687-6.2759171
			C251.7909088,92.2920761,250.0423737,91.5349731,247.9252777,91.5349731 M242.2116089,100.0539551
			c0.4874573-2.6334076,2.7782288-4.2065048,4.7110443-4.2065048c0.8931122,0,1.6885071,0.3656006,2.2407227,1.0296936
			c0.6317139,0.7594681,0.860733,1.8186111,0.6446686,2.9837189c-0.5316162,2.8688965-3.0943909,4.2059174-4.6580658,4.2059174
			c-0.6988373,0-1.6849518-0.2867203-2.3549347-1.0932846C242.1845093,102.2399368,241.9884644,101.2579269,242.2116089,100.0539551
			"/>
		<path d="M271.4949341,93.8337479c-1.2504883-1.5036392-3.0949707-2.2984161-5.3333435-2.2984161
			c-4.6893005,0-8.8934631,3.6018753-9.7789001,8.3782806c-0.4309387,2.326088,0.0612488,4.4843979,1.3864746,6.0781097
			c1.2810974,1.5395355,3.2327576,2.3879089,5.4940796,2.3879089c3.8249817,0,7.2072754-2.7352676,8.5725708-5.4369812
			l0.1053772-0.2078247h-5.0201721c-0.7782593,0.8713379-1.8244629,1.3317184-3.0549011,1.3317184
			c-1.1245117,0-1.8244934-0.472168-2.2136536-0.8683701c-0.356781-0.3638458-0.5699158-0.7730179-0.678833-1.1109543h11.2242432
			l0.1348267-0.3302689c0.1772156-0.4350815,0.4291687-1.1050644,0.5740051-1.8898544
			C273.3241272,97.6140137,272.8095703,95.414505,271.4949341,93.8337479 M261.6318665,98.1738892
			c1.2333984-2.0829391,3.1355896-2.3260803,3.9539185-2.3260803c0.6411438,0,1.5342407,0.1307068,2.1494751,0.7559357
			c0.3797302,0.3856201,0.6046448,0.9125443,0.6717834,1.5701447H261.6318665z"/>
	</g>
	<g>
		<path d="M67.6907501,73.3883743L46.3314438,94.7476807c-1.2793236,1.2793274-1.2793236,3.353447,0,4.6327667
			l14.4699249,14.4699326L67.6907501,73.3883743z"/>
		<path d="M61.1164055,114.1654663l12.3139839,12.3139801c1.2793121,1.2793274,3.3528366,1.2793274,4.632164,0
			l12.3133926-12.3139801H61.1164055z"/>
		<path d="M105.1616745,94.7478638L82.8521423,72.438942l-5.0213165,29.4938507h14.9915543l-1.9981766,11.7847061
			l14.337471-14.3368683C106.440979,98.1013107,106.440979,96.0271912,105.1616745,94.7478638"/>
		<polygon points="297.3187256,87.0859528 292.0324707,99.2439194 291.3689575,87.0859528 287.852417,87.0859528 
			282.6050415,99.2627716 281.8467407,87.0859528 277.0261841,87.0859528 279.2421875,107.8759689 282.945343,107.8759689 
			287.9177856,96.4403687 288.6048279,107.8759689 292.3450623,107.8759689 302.2375793,87.0859528 		"/>
		<path d="M309.221344,91.5125504c-4.5944824,0-9.0270691,3.7467041-9.880188,8.351799
			c-0.413269,2.2301254,0.1142578,4.4296341,1.447113,6.0321655c1.319397,1.5860519,3.2757568,2.4597397,5.5082397,2.4597397
			c4.0133972,0,8.8215942-2.9277725,9.827179-8.3523712c0.426239-2.3002014-0.0706482-4.4461288-1.3988647-6.0433807
			C313.4307861,92.40448,311.4249573,91.5125504,309.221344,91.5125504 M308.6184998,95.8244324
			c0.8848572,0,1.6790466,0.3679581,2.2348022,1.0373688c0.647644,0.7788925,0.8854675,1.8545074,0.6676331,3.0290298
			c-0.369751,1.996994-2.2424927,4.1529465-4.621582,4.1529465c-0.9584656,0-1.7956238-0.3714981-2.3566895-1.0455933
			c-0.611145-0.7347488-0.828949-1.779747-0.6140442-2.9407425
			C304.4408264,97.2956924,306.981781,95.8244324,308.6184998,95.8244324"/>
		<path d="M328.2020264,91.5124054h-0.9302368c-1.2492981,0-2.1005859,0.3714981-2.74823,0.8572159l0.0647888-0.3508911h-4.3301697
			l-2.9383545,15.8575745h4.6233215l1.6219788-8.7521286c0.2584534-1.3953018,0.8766174-3.0102081,3.3840332-3.1132278
			l0.4221497-0.017662L328.2020264,91.5124054z"/>
		<polygon points="326.9975281,107.8762512 331.6213989,107.8762512 335.4735107,87.0862579 330.850769,87.0862579 		"/>
		<path d="M350.1268921,87.0858459l-1.0461731,5.6424484c-0.9643555-0.8348312-2.1812744-1.215744-3.8126526-1.215744
			c-3.8408813,0-8.5784302,3.1932907-9.5345764,8.351799c-0.4350281,2.3496399,0.0547791,4.5208893,1.3788452,6.1134109
			c1.2575378,1.5112915,3.1638489,2.3784943,5.2303162,2.3784943c2.0081787,0,3.4611816-0.7129593,4.3955078-1.4000092
			l-0.1707458,0.9201889h4.330719l3.8521118-20.7905884H350.1268921z M345.0384827,95.8244324
			c0.9508057,0,1.7520447,0.3585434,2.3160706,1.0361786c0.6381836,0.767128,0.8848572,1.8521576,0.6758728,2.9772415
			c-0.3768005,2.0311432-2.3596497,4.205925-4.7116394,4.205925c-0.9319763,0-1.7538452-0.3720932-2.3154907-1.0461884
			c-0.6464539-0.7777252-0.880188-1.8692398-0.6570435-3.0737839
			C340.7059937,97.9850998,342.7206421,95.8244324,345.0384827,95.8244324"/>
		<polygon points="126.5803833,87.1086807 121.8498917,87.1086807 117.9972076,107.8998642 128.7533875,107.8998642 
			129.5823364,103.4266586 123.5566254,103.4266586 		"/>
		<path d="M145.004776,93.2274094c-0.7706451-0.78125-2.1388702-1.6920242-4.2053375-1.6920242
			c-4.4761505,0-8.509552,3.5447769-9.3802948,8.2446442c-0.472168,2.548645-0.004715,4.8258591,1.3158112,6.4136887
			c1.1721649,1.4100113,2.9218903,2.1859665,4.9265442,2.1859665c1.5389557,0,3.3864136-0.6187592,4.8246765-1.5601501
			l-0.2001648,1.0803299h4.3307343l2.9383698-15.8581696h-4.330719L145.004776,93.2274094z M135.9777222,100.1338501
			c0.3844299-2.0776367,2.1812592-4.2859879,4.7522583-4.2859879c0.9702301,0,1.836853,0.3732605,2.3790741,1.0250015
			c0.5958099,0.7164841,0.7912598,1.7402954,0.5652008,2.9607468c-0.4545135,2.4532547-2.4156036,4.2330017-4.6633911,4.2330017
			c-1.009079,0-1.8409576-0.3585434-2.4067383-1.0385284C135.9906616,102.2904053,135.7687073,101.2624664,135.9777222,100.1338501"
			/>
		<path d="M160.4228668,91.5351334c-1.5601501,0-2.7641144,0.5439987-3.6177826,1.0885925l0.1083221-0.5822678h-4.3572235
			l-2.9389496,15.8581696h4.6239166l1.3852997-7.473999c0.2189941-1.1821747,0.4915924-2.6534195,1.212204-3.4617615
			c0.7365112-0.8831024,1.8015137-1.1162415,2.261322-1.1162415c0.6134644,0,1.0509033,0.1677933,1.337616,0.5127945
			c0.7500305,0.901947,0.3856201,2.866539,0.2484436,3.6065903l-1.4700775,7.9326172h4.6239319l1.5624847-8.4324493
			c0.2313843-1.2451859,0.7106171-3.8344345-0.4603729-5.634201
			C163.8634338,92.1368256,161.8334808,91.5351334,160.4228668,91.5351334"/>
		<path d="M182.3448792,87.1085587l-1.0455933,5.6430359c-0.9643402-0.8354187-2.1812592-1.2163315-3.8132324-1.2163315
			c-3.8408966,0-8.5778656,3.193306-9.5339661,8.351799c-0.4356689,2.3502274,0.0541687,4.5214767,1.3782196,6.1139984
			c1.2575378,1.5112915,3.1638641,2.3790894,5.2309265,2.3790894c2.0081635,0,3.4611664-0.7129593,4.3948975-1.4005966
			l-0.1701508,0.9201813h4.3295746l3.8532562-20.7911758H182.3448792z M177.2564545,95.8477325
			c0.9508057,0,1.7520752,0.3579559,2.3160858,1.0361786c0.6381836,0.767128,0.8842621,1.8521652,0.6758575,2.9766464
			c-0.3767853,2.0317383-2.3596497,4.2059326-4.7116394,4.2059326c-0.9319763,0-1.7538452-0.370903-2.3154907-1.0455933
			c-0.6464386-0.7777252-0.8795776-1.8692474-0.6564484-3.0737915
			C172.9245453,98.0078049,174.9391937,95.8477325,177.2564545,95.8477325"/>
		<path d="M194.0158539,91.5351334c-2.6546021,0-5.7484131,1.8774948-6.3300781,5.0189819
			c-0.4221344,2.2766418,0.6222992,4.0393066,2.8830414,4.8423309c2.5144806,0.9037094,2.6652069,1.044426,2.5603943,1.6107941
			c-0.0765381,0.4097519-0.5115967,1.0597153-1.3558502,1.0597153c-0.8371887,0-1.0161591-0.4686279-1.0662079-1.3923492
			l-0.0270691-0.5010223h-4.6092224l-0.0459137,0.478653c-0.080658,0.8295212-0.2148895,2.2177658,0.6022797,3.5276871
			c0.8418884,1.3770599,2.5303802,2.2000961,4.5167694,2.2000961c2.7211456,0,5.9774323-1.9651871,6.6521301-5.6065063
			c0.6723328-3.6272049-2.2607422-4.5727081-3.6607666-5.0230942l-0.072403-0.025322
			c-1.795639-0.6187515-1.8403931-0.700592-1.7791595-1.0308762c0.0653381-0.3514633,0.4427338-0.8465958,1.0762024-0.8465958
			c0.3785553,0,0.6340637,0.1289291,0.6458282,0.7600708l0.010025,0.5198441h4.4472961l0.0635834-0.4562607
			c0.19664-1.4076767-0.1336365-2.65168-0.9572754-3.5983505C196.7199097,92.0956268,195.4246826,91.5351334,194.0158539,91.5351334
			"/>
		<path d="M209.3562927,95.8477325c1.841568,0,2.2825165,1.1397934,2.545105,1.8209686l0.1312866,0.3391037h4.9765778
			l-0.0894928-0.6075592c-0.6411285-4.3289719-4.1499939-5.8649826-6.9606171-5.8649826
			c-4.5650482,0-8.9670105,3.7113724-9.812439,8.2723083c-0.429184,2.3166733,0.0647583,4.4702606,1.3911743,6.0645599
			c1.3252411,1.5937042,3.3387146,2.5080185,5.5235138,2.5080185c3.6319122,0,6.9435425-2.0864792,8.8592834-5.58181
			l0.4303589-0.7847672h-5.1461182l-0.1595459,0.1966248c-0.9979095,1.2322311-2.0912018,1.8562927-3.2480621,1.8562927
			c-1.0414734,0-1.8886566-0.356781-2.4508972-1.0326385c-0.6187744-0.7441711-0.8395538-1.8027191-0.6211243-2.9795914
			C205.236908,97.2924957,207.4417267,95.8477325,209.3562927,95.8477325"/>
		<path d="M232.141037,92.0416946l-0.2231293,1.2010193c-0.7783051-0.7835999-2.1582947-1.7073288-4.2023926-1.7073288
			c-4.4767456,0-8.5095673,3.5447769-9.3803101,8.2446442c-0.472168,2.548645-0.0052948,4.8258591,1.3158112,6.4136887
			c1.1715851,1.4100113,2.9219055,2.1859665,4.9265442,2.1859665c1.5395355,0,3.3863983-0.6187592,4.8246918-1.5601501
			l-0.2001801,1.0803299h4.3307343l2.9377899-15.8581696H232.141037z M222.8932037,100.1338501
			c0.3856201-2.0776367,2.1824188-4.2859879,4.7528534-4.2859879c0.9702148,0,1.8374481,0.3732605,2.3790741,1.0250015
			c0.5957947,0.7164841,0.7912445,1.7402954,0.5646057,2.9607468c-0.4545135,2.4532547-2.4150085,4.2330017-4.662796,4.2330017
			c-1.009079,0-1.8415527-0.3591309-2.4067535-1.0385284C222.906723,102.2904053,222.6841888,101.2624664,222.8932037,100.1338501"
			/>
		<path d="M247.9252777,91.5349731c-1.6696625,0-3.171524,0.4809875-4.4802856,1.4306259l0.1713257-0.9237289h-4.3313141
			l-3.8520966,20.7905884h4.6244965l1.0662079-5.7595901c0.7488708,0.6793976,1.8568878,1.3069916,3.8768311,1.3069916
			c4.4037323,0,8.5348816-3.6807785,9.4056244-8.3794632c0.4327087-2.3378754-0.0995026-4.683403-1.4235687-6.2759171
			C251.7909088,92.2920761,250.0423737,91.5349731,247.9252777,91.5349731 M242.2116089,100.0539551
			c0.4874573-2.6334076,2.7782288-4.2065048,4.7110443-4.2065048c0.8931122,0,1.6885071,0.3656006,2.2407227,1.0296936
			c0.6317139,0.7594681,0.860733,1.8186111,0.6446686,2.9837189c-0.5316162,2.8688965-3.0943909,4.2059174-4.6580658,4.2059174
			c-0.6988373,0-1.6849518-0.2867203-2.3549347-1.0932846C242.1845093,102.2399368,241.9884644,101.2579269,242.2116089,100.0539551
			"/>
		<path d="M271.4949341,93.8337479c-1.2504883-1.5036392-3.0949707-2.2984161-5.3333435-2.2984161
			c-4.6893005,0-8.8934631,3.6018753-9.7789001,8.3782806c-0.4309387,2.326088,0.0612488,4.4843979,1.3864746,6.0781097
			c1.2810974,1.5395355,3.2327576,2.3879089,5.4940796,2.3879089c3.8249817,0,7.2072754-2.7352676,8.5725708-5.4369812
			l0.1053772-0.2078247h-5.0201721c-0.7782593,0.8713379-1.8244629,1.3317184-3.0549011,1.3317184
			c-1.1245117,0-1.8244934-0.472168-2.2136536-0.8683701c-0.356781-0.3638458-0.5699158-0.7730179-0.678833-1.1109543h11.2242432
			l0.1348267-0.3302689c0.1772156-0.4350815,0.4291687-1.1050644,0.5740051-1.8898544
			C273.3241272,97.6140137,272.8095703,95.414505,271.4949341,93.8337479 M261.6318665,98.1738892
			c1.2333984-2.0829391,3.1355896-2.3260803,3.9539185-2.3260803c0.6411438,0,1.5342407,0.1307068,2.1494751,0.7559357
			c0.3797302,0.3856201,0.6046448,0.9125443,0.6717834,1.5701447H261.6318665z"/>
	</g>
</g>
</svg>
