<?xml version="1.0" encoding="utf-8"?>
<!-- Generator: Adobe Illustrator 25.3.0, SVG Export Plug-In . SVG Version: 6.00 Build 0)  -->
<svg version="1.1" id="Layer_1" xmlns="http://www.w3.org/2000/svg" xmlns:xlink="http://www.w3.org/1999/xlink" x="0px" y="0px"
	 viewBox="0 0 200 100" style="enable-background:new 0 0 200 100;" xml:space="preserve">
<style type="text/css">
	.st0{fill:#FFFFFF;}
</style>
<g>
	<g>
		<path class="st0" d="M36.4,34.2c0.2,1.6,1.6,2.7,3.3,2.7c1.1,0,1.9-0.4,2.6-1.3l4.3,0c-1.3,3.1-3.9,4.9-6.9,4.9
			c-4,0-7.4-3.3-7.4-7.4c0-4,3.2-7.5,7.4-7.5c4.2,0,7.4,3.3,7.4,7.7c0,0.4,0,0.7-0.1,1.1L36.4,34.2z M42.9,31.4
			C42.5,30,41.3,29,39.6,29c-1.5,0-2.8,0.9-3.2,2.4L42.9,31.4z"/>
		<path class="st0" d="M58.2,40l0-7.8c0-1.9-0.7-2.8-2.2-2.8c-1.7,0-2.4,0.9-2.4,2.8l0,7.7l-4.2,0l0-14l3.9,0l0,1.5l0.1,0
			c0.9-1.4,2.1-2,3.8-2c2.5,0,5.2,1.4,5.2,5.6l0,9L58.2,40z"/>
		<path class="st0" d="M68.8,34.2c0.2,1.6,1.6,2.7,3.3,2.7c1.1,0,1.9-0.4,2.6-1.3l4.3,0c-1.3,3.1-3.9,4.9-6.9,4.9
			c-4,0-7.4-3.3-7.4-7.4c0-4,3.2-7.5,7.4-7.5c4.2,0,7.4,3.3,7.4,7.7c0,0.4,0,0.7-0.1,1.1L68.8,34.2z M75.2,31.4
			C74.9,30,73.6,29,72,29c-1.5,0-2.8,0.9-3.2,2.4L75.2,31.4z"/>
		<path class="st0" d="M81.7,40l0-14l3.9,0l0,1.5l0.1,0c0.7-1.5,1.9-2,3.5-2l0,4.2c-2.5,0-3.3,1-3.3,2.6l0,7.7L81.7,40z"/>
		<path class="st0" d="M101,38.4c-0.6,1.3-2.2,2.1-3.9,2.1c-4.1,0-7.1-3.2-7.1-7.4c0-4.3,3-7.6,7.1-7.6c1.8,0,3.2,0.7,3.9,1.8l0.1,0
			l0-1.3l4.2,0l0,12.5c0,1.9-0.3,3.3-0.8,4.3c-1,1.9-3.8,3.4-7.3,3.4c-4,0-6.6-2.3-6.9-4.9l4.9,0c0.5,1,1.4,1.4,2.5,1.4
			c2.1,0,3.4-1.4,3.4-3.9L101,38.4z M101.1,33c0-2-1.4-3.6-3.4-3.6c-1.9,0-3.4,1.6-3.4,3.5c0,2,1.3,3.6,3.4,3.6
			C99.7,36.5,101.1,35.1,101.1,33"/>
		<path class="st0" d="M111.6,34.3c0.2,1.6,1.6,2.7,3.3,2.7c1.1,0,1.9-0.4,2.6-1.3l4.3,0c-1.3,3.1-3.9,4.9-6.9,4.9
			c-4,0-7.4-3.3-7.4-7.4c0-4,3.2-7.5,7.4-7.5c4.2,0,7.4,3.3,7.4,7.7c0,0.4,0,0.7-0.1,1.1L111.6,34.3z M118.1,31.4
			c-0.3-1.4-1.6-2.4-3.2-2.4c-1.5,0-2.8,0.9-3.2,2.4L118.1,31.4z"/>
		<polygon class="st0" points="125.4,40 125.4,29.1 123.3,29.1 123.3,26 125.4,26 125.4,21.3 129.6,21.3 129.6,26 131.6,26 
			131.6,29.1 129.6,29.1 129.6,40 		"/>
		<path class="st0" d="M133.5,21.3l4.2,0l0,3.2l-4.2,0L133.5,21.3z M133.5,26l4.2,0l0,14l-4.2,0L133.5,26z"/>
		<path class="st0" d="M150.6,31.4c-0.6-1.3-1.7-2-3.1-2c-1.9,0-3.2,1.6-3.2,3.6c0,2,1.4,3.6,3.3,3.6c1.4,0,2.4-0.7,3-1.9l4.3,0
			c-0.8,3.5-3.8,5.8-7.4,5.8c-4.1,0-7.4-3.4-7.4-7.5c0-4.2,3.3-7.5,7.4-7.5c3.7,0,6.7,2.3,7.5,5.9L150.6,31.4z"/>
		<path class="st0" d="M163.2,29.9c0-0.8-0.6-1.1-1.3-1.1c-0.7,0-1.2,0.4-1.2,0.9c0,0.8,0.7,1.1,2.6,1.6c3.3,0.9,4.4,2.2,4.4,4.3
			c0,2.9-2.5,4.8-5.7,4.8c-3.2,0-5.4-1.8-5.7-4.7l4.2,0c0.1,0.9,0.8,1.3,1.6,1.3c0.7,0,1.5-0.4,1.5-1.1c0-0.8-0.5-1.2-2.6-1.8
			c-3.5-1.1-4.5-2.5-4.5-4.1c0-2.8,2.6-4.6,5.4-4.6c3,0,5.2,1.7,5.4,4.4L163.2,29.9z"/>
	</g>
	<g>
		<g>
			<path class="st0" d="M76.1,67.3c0.2,1.6,1.6,2.7,3.4,2.7c1.2,0,1.9-0.4,2.6-1.3l4.4,0c-1.4,3.1-4,4.9-7,4.9
				c-4.1,0-7.6-3.3-7.6-7.4c0-4,3.3-7.5,7.5-7.5c4.3,0,7.6,3.3,7.6,7.7c0,0.4,0,0.7-0.1,1.1L76.1,67.3z M82.7,64.4
				C82.3,63,81,62,79.4,62c-1.5,0-2.9,0.9-3.2,2.4L82.7,64.4z"/>
			<path class="st0" d="M98.3,73l0-7.8c0-1.9-0.7-2.8-2.2-2.8c-1.7,0-2.5,0.9-2.5,2.8l0,7.7l-4.3,0l0-14l4,0l0,1.5l0.1,0
				c0.9-1.4,2.2-2,3.9-2c2.6,0,5.3,1.4,5.3,5.6l0,9L98.3,73z"/>
			<path class="st0" d="M109.1,67.3c0.2,1.6,1.6,2.7,3.4,2.7c1.2,0,1.9-0.4,2.6-1.3l4.4,0c-1.4,3.1-4,4.9-7,4.9
				c-4.1,0-7.6-3.3-7.6-7.4c0-4,3.3-7.5,7.5-7.5c4.3,0,7.6,3.3,7.6,7.7c0,0.4,0,0.7-0.1,1.1L109.1,67.3z M115.7,64.4
				c-0.3-1.4-1.6-2.4-3.3-2.4c-1.5,0-2.9,0.9-3.2,2.4L115.7,64.4z"/>
			<path class="st0" d="M122.3,73l0-14l4,0l0,1.5l0.1,0c0.7-1.5,1.9-2,3.6-2l0,4.2c-2.6,0-3.4,1-3.4,2.6l0,7.7L122.3,73z"/>
			<path class="st0" d="M142,71.4c-0.6,1.3-2.2,2.1-4,2.1c-4.2,0-7.2-3.2-7.2-7.4c0-4.3,3.1-7.6,7.2-7.6c1.9,0,3.3,0.7,4,1.8l0.1,0
				l0-1.3l4.3,0l0,12.5c0,1.9-0.3,3.3-0.8,4.3c-1,1.9-3.8,3.4-7.4,3.4c-4.1,0-6.7-2.3-7.1-4.9l5,0c0.5,1,1.4,1.4,2.5,1.4
				c2.2,0,3.5-1.4,3.5-3.9L142,71.4z M142.1,66.1c0-2-1.4-3.6-3.5-3.6c-1.9,0-3.4,1.6-3.4,3.5c0,2,1.4,3.6,3.4,3.6
				C140.7,69.6,142.1,68.1,142.1,66.1"/>
			<polygon class="st0" points="150.9,77.7 153.2,72.3 147.9,59 152.5,59 155.3,67.1 155.4,67.1 158.1,59 162.7,59 155.5,77.7 			
				"/>
		</g>
		<g>
			<path class="st0" d="M71.9,43.6c-0.1,1-0.3,2-0.4,3c-0.5,3.4-1,6.9-1.6,10.3c-0.6,3.2-1.6,6.2-3.4,8.9c-2.1,3.2-4.9,5.3-8.5,6.5
				c-0.9,0.3-1.5,0.9-1.7,1.8c-0.3,1.2-0.5,2.4-0.7,3.6c-0.1,0.8-0.6,1.4-1.4,1.7c0.2-0.8,0.5-1.6,0.7-2.4c0.2-0.5,0.3-1,0.5-1.5
				c0-0.1,0.1-0.2,0.1-0.2c1.6-4.5,3.8-8.6,6-12.8c1.8-3.4,3.6-6.8,5.4-10.2c0.3-0.6,0.7-1.2,1-1.8c0-0.1,0-0.1,0-0.2
				c0,0-0.1,0.1-0.1,0.1l-1.1,1.8c-4.2,6.4-7.7,13.1-10.8,20.2c-0.4-1-0.7-1.9-1-2.7c-0.1-1.6-0.3-3.1-0.4-4.7
				c0.3-3.6,1.9-6.6,4.2-9.3c2.5-3,5.5-5.5,8.5-8C68.7,46.3,70.3,44.9,71.9,43.6L71.9,43.6z"/>
			<path class="st0" d="M54.4,64.9c0.1,1.6,0.3,3.1,0.4,4.7c-0.3,0.7-0.5,1.3-0.8,2.2C53,69.8,52,68,51,66.2c-1.5-2.6-3-4.7-3.6-4.9
				c2.8,4.6,5.7,9.2,7.9,14.1c-0.2,0.5-0.3,1-0.5,1.5c-0.3-1.3-0.6-2.5-1-3.8c-0.2-0.7-0.7-1.1-1.4-1.2c-0.8-0.2-1.7-0.5-2.4-0.8
				c-1.9-0.8-3.3-2.2-4.1-4.2c-1.2-3.1-1.9-6.4-2.6-9.7c-0.2-0.8-0.3-1.6-0.5-2.6C47.3,57.6,51.7,60.2,54.4,64.9"/>
		</g>
	</g>
</g>
</svg>
