<?xml version="1.0" encoding="utf-8"?>
<!-- Generator: Adobe Illustrator 25.3.0, SVG Export Plug-In . SVG Version: 6.00 Build 0)  -->
<svg version="1.1" id="Layer_1" xmlns="http://www.w3.org/2000/svg" xmlns:xlink="http://www.w3.org/1999/xlink" x="0px" y="0px"
	 viewBox="0 0 750.2 400.1" style="enable-background:new 0 0 750.2 400.1;" xml:space="preserve">
<style type="text/css">
	.st0{fill:#FFFFFF;}
</style>
<g>
	<path class="st0" d="M720,18.9H30v109h11.1l-9.5-44.2l5.7-1.7l0,0l0.4-0.1l118.1-35.4l0,0.6l6.4-1.2c0.2,0,0.4-0.1,0.6,0
		c0.5-0.1,1-0.1,1.5,0c10.3,3.4,46.4,13.4,76-0.4c0.6-0.3,1.2-0.3,1.8-0.1c0.2,0,0.4,0,0.7,0l6.2,1.1l-0.1-0.5L368,82l0,0l5.9,1.7
		l-9.5,44.1h21.4l-9.5-44.2l8-2.5l0,0.1l107.5-32.7l7.3-3.7c6.8-3.4,21.6-5,46.6-5c25.5,0,41.5,1.7,47.7,5l3.9,2.1L713,82l0,0
		l5.4,1.7l-0.4,1.8l-9.1,42.5H720V18.9z"/>
</g>
</svg>
