<?xml version="1.0" encoding="utf-8"?>
<!-- Generator: Adobe Illustrator 25.3.0, SVG Export Plug-In . SVG Version: 6.00 Build 0)  -->
<svg version="1.1" id="Layer_1" xmlns="http://www.w3.org/2000/svg" xmlns:xlink="http://www.w3.org/1999/xlink" x="0px" y="0px"
	 viewBox="0 0 120 90" style="enable-background:new 0 0 120 90;" xml:space="preserve">
<style type="text/css">
	.st0{fill:none;}
	.st1{fill:#FFFFFF;}
</style>
<g>
	<polygon class="st0" points="57.3596649,28.6140118 57.3596649,28.6142216 57.3596649,28.6142216 	"/>
	<path class="st0" d="M55.3264465,63.2787399c-0.3407135-0.0700264-0.7040062-0.1066055-1.0799446-0.1089058
		c-0.475853-0.0029259-0.9518089-0.0036583-1.4276619-0.0036583l-0.8474007,0.0005226l-0.8485489,0.0005226l-0.2811432-0.000103
		c-0.3721771,0-0.744873,0.0268593-1.1076431,0.0797424c-0.8868027,0.1290779-1.307785,0.5369949-1.4076996,1.3639107
		c-0.1160126,0.9603806-0.0767136,1.9264069-0.0178719,2.9989319c0.0282173,0.5138931,0.2200012,0.884079,0.5863228,1.1315689
		c0.281456,0.1902161,0.6301155,0.2930603,1.1657524,0.343956c0.3352814,0.0317764,0.6709785,0.0385666,1.0081444,0.0385666
		l0.4416733-0.0027161l0.4570427-0.0027161c0.1715088,0,0.3434334,0.0017776,0.4744949,0.0070038
		c0.1860352-0.006691,0.3730087-0.0087814,0.5604019-0.0087814l0.4269409,0.0024033l0.4192085,0.0024033
		c0.4019585,0,0.8743629-0.0093002,1.3289986-0.0780716c0.860363-0.1303253,1.2740288-0.5108643,1.3830376-1.2726669
		c0.1479912-1.0327072,0.1485138-2.1310425,0.0016708-3.2646027C56.4739075,63.8238869,56.0812492,63.4338379,55.3264465,63.2787399
		z"/>
	<path class="st0" d="M84.5969925,37.175602c0.1178894-1.634182,0.1129761-3.2630386-0.01474-4.8414078
		c-0.061554-0.7621193-0.3210678-1.3506374-0.7931519-1.7994213c-0.4558945-0.4332104-1.0380402-0.7066212-1.946579-0.9140816
		c-1.3962021-0.3186626-2.8119507-0.3661118-4.1339493-0.369875c-1.2929459-0.0036583-2.5865173-0.0047035-3.8794632-0.0047035
		l-2.6832962,0.0010452l-2.6839218,0.0010452h-1.9141769l-1.9142838,0.0001049
		c-2.2948151,0-4.5894241-0.0005226-6.9103699-0.0031357c0.0072136,3.7548809,0.006794,7.5102825,0.0016747,11.2838688
		l9.8092766-0.0103455c3.825325-0.0031357,7.6506424-0.0062714,11.4759674-0.0128555
		c1.1949081-0.0018806,2.2358704-0.1490364,3.182457-0.4496193C83.7052765,39.5758743,84.4918518,38.6335716,84.5969925,37.175602z"
		/>
	<path class="st0" d="M100.8168564,67.5965347c0.0764008-1.0127411,0.0734711-2.0252762-0.0086746-3.009491
		c-0.0655365-0.7853165-0.3925552-1.15728-1.1661682-1.3265953c-0.1449661-0.0317726-0.2941055-0.047554-0.4419937-0.0617676
		c-0.2978668-0.0285301-0.5962524-0.0344887-0.8963165-0.0344887l-0.3998642,0.0024033l-0.4165955,0.0025101
		c-0.1581345,0-0.3168869-0.0015678-0.4331055-0.006691c-0.1726608,0.0065842-0.3465729,0.0086746-0.5212173,0.0086746
		l-0.3763504-0.0020905l-0.3688354-0.0020905c-0.3019409,0-0.6054459,0.0058517-0.9088516,0.0352211
		c-1.0005112,0.0967827-1.5652008,0.6067047-1.6784973,1.5154533c-0.1387939,1.1141205-0.1291809,2.1692963,0.0284271,3.136261
		c0.0895691,0.5496445,0.3857651,0.8925552,0.9320602,1.0790024c0.2649384,0.0905151,0.4818115,0.1369171,0.6824722,0.1461182
		c0.7743454,0.0356369,1.5490036,0.0568542,2.3234558,0.0568542c0.7441406,0,1.4665451-0.0201721,2.1474533-0.0598907
		C100.3195724,69.0172958,100.7408752,68.602478,100.8168564,67.5965347z"/>
	<path class="st0" d="M14.515975,66.9976654c0.0712786-0.626564,0.0465088-1.2622147,0.0202761-1.9350815l-0.0058527-0.1520691
		c-0.0112877-0.2959824-0.0743093-0.572525-0.1870804-0.8216858c-0.2399645-0.5299911-0.6755791-0.7944145-1.4564047-0.8842964
		c-0.2988062-0.0343819-0.5983429-0.0424309-0.889102-0.0424309l-0.4709406,0.0049133l-0.4448118,0.0047035
		c-0.1078587,0-0.2130003-0.001255-0.2939987-0.0042877l-0.6302204-0.0011482l-0.5292597-0.0009422
		c-0.2381868,0-0.4678049,0.0008354-0.697422,0.0039711c-0.4237003,0.0056458-0.7579365,0.0434799-1.0516214,0.1187286
		c-0.7613859,0.1953392-0.9340429,0.5744095-1.0103383,0.9253693l-0.0160952,0.6330414
		c-0.0244565,0.8489685-0.0474496,1.6508026,0.0628128,2.4454193c0.0878963,0.6325226,0.3741608,0.9808655,0.9281902,1.1293793
		c0.1932464,0.0517349,0.3662171,0.0817337,0.5290504,0.0916595c0.5608234,0.0341797,1.1219597,0.0430603,1.6830959,0.0430603
		c0.3226347,0,0.6452703-0.0029221,0.967905-0.0059586c0.3255615-0.0029221,0.6510191-0.0058517,1.0174456-0.0058517
		c0.0009403,0,0.0020905,0,0.0031357,0c0.4300756,0,0.8070583-0.0376205,1.1525812-0.1148605
		C14.0397043,68.24086,14.4217033,67.826149,14.515975,66.9976654z"/>
	<path class="st0" d="M7.0515752,71.6663132c0.039402,0.1489334,0.1220727,0.3214874,0.4364514,0.4720917
		c0.3695617,0.1770477,0.8017282,0.2633743,1.321372,0.2637939c0.3397751,0.0004196,0.67976,0.0037613,1.01964,0.0072098
		c0.3545122,0.0035553,0.7089195,0.007103,1.0633268,0.007103c0.7492619,0,1.3246126-0.016304,1.8654728-0.0529861
		c0.270483-0.0182877,0.5052214-0.0519409,0.7176991-0.1027374c0.6907339-0.1649246,0.9601707-0.4748077,1.0364666-1.2561569
		c0.0119143-0.1201859,0.0243521-0.2406921,0.0303087-0.3611984c-0.2972383,0.1586533-0.6428661,0.2754974-1.0383482,0.3516922
		c-0.5570602,0.1072311-1.0986519,0.1257248-1.5550652,0.1298065c-0.5567474,0.0049133-1.1137028,0.0073166-1.6705542,0.0073166
		c-0.5562248,0-1.1122398-0.0024033-1.6684637-0.006897c-0.6389995-0.005127-1.1782928-0.0694046-1.6719127-0.2006683
		c0.0596776,0.1036758,0.1055589,0.2434082,0.1000199,0.4252625C7.0346441,71.4612579,7.030777,71.5874023,7.0515752,71.6663132z"/>
	<path class="st1" d="M16.7879028,71.098381c0.0214272-3.1854858,0.0055408-6.3710785,0.0101395-9.5565605
		c0.0002079-0.1455917-0.0460911-0.1834259-0.1724491-0.1834259c-0.0059566,0-0.0120182,0-0.0182896,0.0002098
		c-0.1446476,0.0036583-0.2892952,0.0047035-0.4340477,0.0047035c-0.193038,0-0.3861799-0.0018806-0.579217-0.0018806
		c-0.0030308,0-0.0060625,0-0.0089884,0c-0.304554,0.000103-0.304554,0.0002098-0.3046589,0.3061218
		c-0.0001049,0.2218819,0,0.4437675,0,0.6656494c0,0.2136269,0,0.4272537,0,0.6407776
		c-0.3182459-0.7372437-0.788559-1.2905426-1.5544386-1.5560074c-0.4242229-0.147049-0.8637047-0.1966934-1.3086214-0.1980553
		c-0.547863-0.0016708-1.0955172-0.0022964-1.6434851-0.0022964c-0.6566629,0-1.3135338,0.0008354-1.9701958,0.0017738
		c-0.4678059,0.0006294-0.9322667,0.0390892-1.393383,0.1234322c-1.5038538,0.2750816-2.4626665,1.1451607-2.7075434,2.6394005
		c-0.2115364,1.2908554-0.2223015,2.6092987,0.0266514,3.9001541c0.2295132,1.1898956,0.9657106,1.9806442,2.1304159,2.3624344
		c0.5721107,0.1875,1.1606293,0.2459259,1.7552109,0.2507324c0.5544472,0.0044937,1.1087904,0.006897,1.6633425,0.006897
		c0.5549698,0,1.1101494-0.0024033,1.6650143-0.0073166c0.4821243-0.0042801,0.9646654-0.0267563,1.4415636-0.118515
		c0.7806168-0.1503983,1.4202433-0.4871445,1.7329493-1.2722549c0.0063753-0.0160904,0.0153637-0.0304108,0.0348034-0.0304108
		c0.006793,0,0.0150499,0.0017776,0.0248737,0.0059586c0,0.4860916,0.0041809,0.976265-0.0020895,1.4662247
		c-0.0025091,0.1974335-0.024457,0.3949585-0.0436869,0.5918655c-0.0948992,0.9719849-0.5603008,1.5086594-1.5099163,1.7354584
		c-0.2694378,0.0643768-0.5444136,0.0997086-0.8213768,0.118515c-0.6357594,0.0430603-1.2717276,0.0543518-1.9081144,0.0543518
		c-0.6943922,0-1.3892021-0.0134811-2.0835934-0.0142136c-0.5462961-0.0005264-1.0891423-0.084343-1.5929003-0.3256683
		c-0.3826265-0.1833191-0.6619925-0.4585037-0.7731957-0.8791733c-0.042851-0.1623077-0.0392976-0.3300552-0.0342808-0.4963379
		c0.0030308-0.0981369-0.031354-0.1406708-0.1332555-0.1406708c-0.0012541,0-0.0025082,0-0.0037622,0
		c-0.2030711,0.0018768-0.4061422,0.0028152-0.6092134,0.0028152c-0.2090282,0-0.4180565-0.0009384-0.6270847-0.0029221
		c-0.0011497,0-0.0024037,0-0.0035534,0c-0.1003337,0-0.1320014,0.039711-0.1348233,0.1389008
		c-0.0109739,0.3992386,0.0213208,0.7910614,0.16994,1.1665878c0.396945,1.0030212,1.2014947,1.4865036,2.1975145,1.7310638
		c0.2425771,0.0594711,0.4972782,0.0520477,0.7329574,0.1433945c1.6643882,0,3.3287759,0,4.9931636,0
		c0.0272779-0.054245,0.0804758-0.0412827,0.1246853-0.0445251c0.3878517-0.0289459,0.7688055-0.0990753,1.1444292-0.197319
		C15.8442459,73.7137451,16.7775574,72.6343231,16.7879028,71.098381z M15.1418056,67.06884
		c-0.1257305,1.1050262-0.7172804,1.7313843-1.8069448,1.9751053c-0.4257908,0.0952148-0.8587923,0.1300201-1.290122,0.1300201
		c-0.0019865,0-0.0038671,0-0.0057487,0c-0.0119143,0-0.0236197,0-0.0355349,0
		c-0.6489277,0-1.2981701,0.0118103-1.9472027,0.0118103c-0.5738869,0-1.1478786-0.009201-1.7214527-0.0442123
		c-0.2219877-0.0134811-0.4395862-0.0545578-0.6537356-0.1119308c-0.8464599-0.2269058-1.2741318-0.8242035-1.3889928-1.6511154
		c-0.1464243-1.0545502-0.0724287-2.1172485-0.0525708-3.176918c0.0007315-0.0389862,0.0121236-0.0779648,0.019753-0.1166382
		c0.1605339-0.8094635,0.7123685-1.2142448,1.4638252-1.4069672c0.3927641-0.1007538,0.7959795-0.133049,1.1996136-0.138485
		c0.232439-0.0031319,0.464879-0.0040741,0.7058878-0.0040741c0.3582745,0,0.7355709,0.0020905,1.1594801,0.0020905
		c0.0952129,0.0031357,0.1933517,0.0043907,0.2939987,0.0043907c0.2881451,0,0.5970888-0.0096169,0.9157524-0.0096169
		c0.3142738,0,0.6381636,0.0093002,0.9612169,0.0465088c0.8525219,0.0981407,1.5769091,0.4086494,1.9580727,1.2501984
		c0.1520681,0.33601,0.2287807,0.6940804,0.2426815,1.0573692C15.187479,65.6135864,15.2241631,66.3441391,15.1418056,67.06884z"/>
	<path class="st1" d="M44.3488045,52.3763466c0.5360527-1.6837234,0.7334824-3.4181366,0.7726746-5.1698952
		c0.0412827-1.8453026,0.0160942-3.692173,0.0275917-5.538311c0.0010452-0.1681633-0.0445251-0.2071457-0.2088203-0.2071457
		c-0.0002098,0-0.0004196,0-0.0006256,0c-3.2848816,0.0019836-6.5693436,0.0031357-9.8543243,0.0031357
		c-3.6336441,0-7.2678108-0.001358-10.9015579-0.0044937c-0.0001049,0-0.0003147,0-0.0004177,0
		c-0.1912613,0-0.2127914,0.0641708-0.2116413,0.2280502c0.006897,1.0380325,0.0130634,2.0763817-0.0034485,3.1142082
		c-0.003973,0.2459183,0.0657387,0.2903404,0.2953568,0.2903404c0.0008354,0,0.0015678,0,0.0024033,0
		c5.3969002-0.0070038,10.7939072-0.0042877,16.1909142-0.0099297c0.0006256,0,0.0011482,0,0.0016708,0
		c0.1993065,0,0.265049,0.0357437,0.2620163,0.2540741c-0.0142136,0.9903755-0.0058517,1.9810638-0.0063744,2.9715462
		c-0.0003128,0.571064-0.0404472,1.1388893-0.1434975,1.7012787c-0.3503342,1.9116707-1.4107323,3.2255173-3.2594833,3.8805084
		c-1.0879936,0.3854446-2.2167435,0.5263329-3.3608627,0.5276909c-2.9282761,0.0037613-5.8560314,0.0053291-8.7843075,0.0053291
		c-3.0868263,0-6.1742783-0.0017776-9.2611027-0.0050163c-1.0316591-0.0010452-2.0531807-0.115593-3.0509768-0.3980942
		c-1.8283701-0.517868-3.125391-1.6163101-3.7574921-3.4386215c-0.3355951-0.9678001-0.4531736-1.9719696-0.454114-2.9898338
		c-0.0041809-4.1603966-0.0031357-8.3207893-0.0006275-12.4811821c0.0004177-0.7216721,0.0622902-1.4390564,0.2141495-2.1463051
		c0.4629974-2.1572762,1.7069254-3.6065731,3.8434029-4.2564411c1.063118-0.3233681,2.154768-0.4477386,3.2569742-0.4488888
		c0.9686365-0.0009403,1.9373789-0.001358,2.9060163-0.001358c3.9525146,0,7.9049263,0.0072098,11.8574429,0.0168266
		c0.9576626,0.0022984,1.9155331,0.0332355,2.8719425,0.0932255c1.2174873,0.0764008,2.4291191,0.1872902,3.6160851,0.4949799
		c1.6868591,0.4374962,2.7836304,1.4381142,3.1096115,3.1957302c0.156456,0.8439484,0.2150879,1.6954269,0.2061005,2.5524445
		c-0.0011482,0.1078568-0.0111847,0.1932449,0.1492462,0.1932449c0.0007324,0,0.001358,0,0.0020905,0
		c0.6458969-0.0031357,1.2917938-0.0042839,1.9376907-0.0042839s1.2917938,0.0011482,1.9376945,0.0025063
		c0.0004158,0,0.0007286,0,0.0011482,0c0.1092186,0,0.1514397-0.031353,0.1520691-0.1471558
		c0.006897-1.1966858-0.0016747-2.3917007-0.2830238-3.5652905c-0.3701897-1.5438824-1.1115112-2.8674488-2.3260689-3.9080963
		c-0.9209785-0.7890816-1.9828415-1.3216858-3.1278992-1.697937c-1.9233742-0.6319981-3.9120674-0.8412342-5.9214554-0.8463554
		c-2.5022793-0.0063763-5.0042439-0.008152-7.5065212-0.008152c-3.1126404,0-6.2248611,0.0027161-9.3373966,0.0027161
		c-0.1545773,0-0.309885,0-0.4644613,0c-0.0008364,0-0.0015678,0-0.0022993,0c-1.1971054,0-2.3879395,0.078804-3.5679035,0.2856369
		c-1.4544191,0.2548065-2.8417397,0.6948109-4.0779333,1.5295658c-1.6066957,1.0850658-2.5738697,2.6248722-3.1419039,4.4462395
		c-0.5645852,1.8101845-0.7341075,3.6775398-0.7383924,5.5569115c-0.0080476,3.5414619-0.0534067,7.0833435,0.0272779,10.6244926
		c0.0341763,1.4996719,0.2187481,2.9818916,0.6250992,4.4312935c0.8193908,2.9229469,2.6226778,4.9087143,5.5451026,5.8324127
		c1.6312561,0.5156708,3.3128891,0.6988831,5.0117664,0.7090225c1.3117561,0.0078392,2.6233044,0.0101395,3.9826164,0.0101395
		c1.9421864,0,3.9817791-0.0047035,6.2572613-0.0047035c0.4726124-0.0049133,0.9649792-0.0065842,1.4738579-0.0065842
		c1.3490677,0,2.8138351,0.0123329,4.3309612,0.0123329c1.2678623,0,2.5724049-0.0086746,3.8767414-0.0404472
		c1.1817436-0.0287437,2.3493767-0.1847839,3.4972534-0.4779434C41.6209869,56.8286476,43.4721413,55.1294594,44.3488045,52.3763466
		z"/>
	<path class="st1" d="M89.2666855,48.33395c-0.1311646-1.3148918-0.5523605-2.4988289-1.5509949-3.4206429
		c-0.7497787-0.6921997-1.650589-1.1026268-2.6118088-1.4008064c-0.4521255-0.140255-0.9165878-0.2320213-1.4052963-0.3395653
		c0.0836105-0.092598,0.1588669-0.0819397,0.227951-0.0889397c0.7336884-0.0738945,1.456398-0.2035942,2.1595688-0.4301796
		c1.5904999-0.5126419,2.7249985-1.5039597,3.2615738-3.1181831c0.2749786-0.8274384,0.368103-1.6839294,0.3708191-2.5500374
		c0.0037613-1.2042122-0.0024033-2.4085312-0.0169296-3.6126366c-0.0124359-1.0310326-0.1044083-2.0553761-0.3398819-3.0621605
		c-0.3187714-1.3629684-0.9292374-2.5528622-2.0594482-3.4290047c-0.8272324-0.6414032-1.7744446-1.0294628-2.776001-1.2964973
		c-1.7660828-0.4709415-3.5750122-0.591341-5.390007-0.5936413c-8.7495041-0.0106602-17.499115-0.004179-26.2487259-0.0090923
		c-0.0002098,0-0.0003128,0-0.0005226,0c-0.1911545,0-0.2324371,0.0573788-0.2324371,0.2398605
		c0.0043869,10.7459335,0.0044937,21.4919739-0.0006294,32.2380142c-0.000103,0.1914673,0.0571709,0.2312889,0.2325439,0.2312889
		c0.0020905,0,0.0041809,0,0.0062714,0c0.6664886-0.0037613,1.3328705-0.0061646,1.9994621-0.0061646
		c0.6410866,0,1.2823868,0.0022964,1.9234772,0.0077324c0.0044937,0,0.0088844,0.000103,0.0131683,0.000103
		c0.2130013,0,0.2760201-0.0491219,0.2756042-0.2806206c-0.0082588-4.1208878-0.0041809-8.2417755-0.0111847-12.3626633
		c-0.0004158-0.2192688,0.0590515-0.2691231,0.2717361-0.2691231c0.0004196,0,0.0009422,0,0.0013618,0
		c7.2913208,0.0057487,14.5825424,0.0036583,21.8738708,0.0060616c0.8406067,0.0003128,1.6756744,0.0683517,2.5006027,0.2442513
		c1.6625061,0.3545113,2.7197723,1.3404961,3.1379318,2.9945374c0.1753769,0.6937637,0.2581482,1.4006996,0.2586746,2.1160965
		c0.0016708,2.4328804,0.0029221,4.8658676-0.0039749,7.298748c-0.0006256,0.1901093,0.039505,0.2518768,0.235054,0.2518768
		c0.0026093,0,0.0052261,0,0.0079422,0c0.6126633-0.0048065,1.2252197-0.0073166,1.8379898-0.0073166
		c0.6156921,0,1.2315903,0.0025101,1.8472824,0.0078392c0.0035553,0,0.0070038,0,0.0104523,0
		c0.1970062,0,0.2493744-0.0474472,0.248642-0.2558479c-0.0085754-2.5518188-0.0062714-5.1036377-0.0049133-7.6553497
		C89.3162231,49.2985115,89.3146515,48.8153419,89.2666855,48.33395z M79.0110245,41.135746
		c-7.2194214,0.0123329-14.438736,0.0125427-21.6580467,0.0235176c-0.0005226,0-0.001152,0-0.0016747,0
		c-0.212059,0-0.2577286-0.0585289-0.2574158-0.2639008c0.0062714-4.0097885,0.006794-8.019474-0.001358-12.0291576
		c-0.0005226-0.2218838,0.0698128-0.2519836,0.2634773-0.2519836c0.0010452,0,0.0020905,0,0.0031357,0
		c0.0002098,0,0.0003128,0,0.0005226,0v-0.0002098v0.0002098c2.4247284,0.0036564,4.8490372,0.0042839,7.2737656,0.0042839
		c1.2760162,0,2.5524445-0.0002079,3.8284607-0.0002079c1.7892838,0,3.5779343-0.0019855,5.367218-0.0019855
		c1.2935715,0,2.5876617,0.0010452,3.8812332,0.0047016c1.4341431,0.004076,2.8661957,0.0646954,4.2723312,0.3856583
		c0.8258743,0.1885433,1.6099396,0.4724026,2.2403641,1.0715828c0.6306381,0.5993881,0.9195175,1.3697624,0.98703,2.2052498
		c0.1329422,1.643589,0.1336746,3.2944946,0.0151596,4.9374542c-0.1292877,1.7921066-1.15802,2.9007912-2.8421555,3.4355888
		C81.2861938,41.0048943,80.1539917,41.1338654,79.0110245,41.135746z"/>
	<path class="st1" d="M113.7429504,39.3186646c1.1666946-3.6478577,1.9848328-7.3616638,2.0636368-11.2108154
		c0.0459824-2.2458-0.2101822-4.4492702-0.8033981-6.6225376c-0.4328003-1.5856895-1.3607788-2.7401524-2.7574005-3.5573483
		c-0.9563065-0.5595684-1.9815903-0.9479427-3.0450211-1.2414188c-2.504364-0.6910477-5.0713348-0.9259949-7.6545105-1.0176535
		c-0.7587738-0.0268602-1.5174408-0.0390892-2.2765274-0.0390892c-0.9358215,0-1.8719482,0.0186043-2.8078766,0.0510035
		c-1.3374634,0.0464039-2.6732635,0.1185188-4.0072784,0.2179117c-2.0368805,0.1516504-4.0690536,0.3546171-6.0976715,0.5951033
		c-1.9415588,0.2302456-3.878624,0.4922619-5.8115082,0.7849007c-2.315506,0.3504372-4.6251678,0.738184-6.9266739,1.171814
		c-1.1751556,0.2214642-2.3484344,0.4526501-3.5225449,0.6794453c0.0396118,0.0195446,0.077446,0.0269661,0.1141281,0.0269661
		c0.0189209,0,0.0375214-0.0019875,0.0559158-0.005331c1.2538605-0.2254372,2.5141907-0.4059334,3.7771454-0.5719013
		c2.7726517-0.364336,5.5568008-0.5937443,8.3508835-0.6874943c0.8029861-0.0269642,1.6059647-0.04076,2.4092636-0.04076
		c0.9073868,0,1.8152008,0.017662,2.7225952,0.0537205c2.1853867,0.086956,4.3594894,0.2803059,6.5186462,0.6355495
		c2.4187698,0.3979912,4.7858124,0.9866142,7.063797,1.9048748c2.3494797,0.9472122,4.5048752,2.2067127,6.3237381,3.9908733
		c1.8425827,1.8074665,3.1056366,3.9636974,3.8069229,6.4474773c0.8559723,3.0318508,0.8181381,6.1008015,0.3584824,9.1828213
		c-0.375618,2.519001-1.0478592,4.9643173-1.8783264,7.368454c-0.6137085,1.7764282-1.3168793,3.5173187-2.0933151,5.2610359
		c0.1427689-0.0330276,0.1581345-0.1312714,0.1994171-0.2014008c0.8065338-1.3714333,1.5502548-2.7766266,2.2529068-4.2038727
		C111.5086517,45.3853951,112.7560272,42.4045486,113.7429504,39.3186646z"/>
	<path class="st1" d="M102.0419693,57.4400558c-0.0075226-1.8144684-0.0046005-3.6289406-0.0046005-5.443409
		c0.0001068-8.9139061-0.0007324-17.8277092,0.0050201-26.7416153c0.0000992-0.2152996-0.0547638-0.2731991-0.2641068-0.2731991
		c-0.0031357,0-0.006485,0-0.0097198,0c-0.6475754,0.0052242-1.2952499,0.0079422-1.9428177,0.0079422
		c-0.6440125,0-1.2880325-0.002718-1.9319458-0.008152c-0.0048065,0-0.009613-0.0001049-0.0143127-0.0001049
		c-0.217598,0-0.289299,0.0443153-0.2888794,0.2914906c0.0088806,5.356245,0.006691,10.712492,0.006691,16.0687351
		c0,5.3640823,0.0014648,10.7282715-0.0052261,16.0924606c-0.0003128,0.2089233,0.0517349,0.2587776,0.2512512,0.2587776
		c0.0031357,0,0.0062714,0,0.0095139,0c0.6560287-0.0050163,1.3119659-0.0075264,1.9679947-0.0075264
		c0.6593857,0,1.3188705,0.0025101,1.9781418,0.0075264c0.0025101,0,0.0049133,0,0.0073166,0
		C102.0051804,57.6929817,102.0427017,57.6294365,102.0419693,57.4400558z"/>
	<path class="st1" d="M101.5602646,61.8688431c-0.6629333-0.4108429-1.4018478-0.5795288-2.1688766-0.6200829
		c-0.6656494-0.0351143-1.3319321-0.0481796-1.9982071-0.0481796c-0.6568756,0-1.3136368,0.0126457-1.96978,0.0291595
		c-1.2424622,0.03125-2.3605576,0.3798027-3.0172195,1.658535c0-0.4868279-0.0079422-0.9100037,0.0040741-1.3326607
		c0.0043945-0.154995-0.0452499-0.1975327-0.1813278-0.1975327c-0.0063782,0-0.0130615,0.0001068-0.0199661,0.0003128
		c-0.1882248,0.0051231-0.37677,0.0091972-0.5651016,0.0091972c-0.1604309,0-0.3206558-0.0030289-0.4805603-0.0108681
		c-0.0156784-0.0007324-0.0306244-0.0011482-0.0447311-0.0011482c-0.1779861,0-0.2325439,0.0647964-0.2320175,0.2718391
		c0.0076294,3.4862785,0.0053253,6.9726601,0.0053253,10.4589424c0,0.6496582,0.0071106,1.29953-0.0046005,1.9490814
		c-0.0030289,0.1732864,0.0468292,0.2236633,0.2011948,0.2236633c0.008461,0,0.0171356-0.0001068,0.0261307-0.0004196
		c0.1994095-0.0063782,0.3990326-0.0100327,0.5986557-0.0100327c0.1887512,0,0.3775024,0.0032349,0.565834,0.0106583
		c0.0099335,0.0004196,0.0194397,0.0006256,0.0285339,0.0006256c0.1683731,0,0.2063141-0.0678253,0.2052689-0.240799
		c-0.0075302-1.2518692-0.0039749-2.5038452-0.0039749-3.7557144c0-0.1849899,0-0.3699799,0-0.5635376
		c0.0839233,0.031456,0.0856018,0.0940628,0.1057739,0.1411972c0.2377625,0.5567474,0.6636581,0.8916092,1.2356644,1.057991
		c0.4217148,0.1227036,0.8544083,0.1664963,1.2905426,0.1681671c0.6065979,0.0024033,1.2132034,0.0035553,1.8198013,0.0035553
		c0.5740967,0,1.1481934-0.0010452,1.72229-0.0033493c0.5786896-0.0024033,1.1536255-0.053299,1.7217636-0.1718216
		c1.4161682-0.2953568,2.3057938-1.1137009,2.5771103-2.5639343c0.1217575-0.6514435,0.1240616-1.3071594,0.115593-1.9643478
		c-0.0095139-0.7433014,0.049118-1.4895325-0.0894623-2.2279282
		C102.829483,63.1882286,102.4050522,62.3924599,101.5602646,61.8688431z M101.4448776,67.6438751
		c-0.0993881,1.3164597-0.7758102,1.9838867-2.0939407,2.0608139c-0.727623,0.0424271-1.4557724,0.0610352-2.1841354,0.0610352
		c-0.7840652,0-1.5684433-0.0215302-2.3524017-0.0575867c-0.2927475-0.0134811-0.5781708-0.0840302-0.8569107-0.1791382
		c-0.7603455-0.259613-1.2235489-0.7959824-1.3503265-1.5737762c-0.1792374-1.0996933-0.1686859-2.2163239-0.0317688-3.3154984
		c0.1542587-1.2374496,0.9821167-1.9425011,2.2428741-2.0644684c0.3236771-0.0313568,0.6473541-0.0381508,0.9694672-0.0381508
		c0.2496872,0,0.4984283,0.0040779,0.7451859,0.0040779c0.1665955,0,0.3325653-0.0018806,0.4971771-0.008152
		c0.1532211,0.0047035,0.3054962,0.0062714,0.4571457,0.0062714c0.2740326,0,0.5458755-0.0050163,0.8164597-0.0050163
		c0.3201294,0,0.6384811,0.007,0.9563065,0.0374146c0.1730804,0.0166168,0.3471985,0.0363693,0.516716,0.0734749
		c1.0296783,0.2253304,1.5701218,0.8236732,1.6591644,1.8894081
		C101.5222168,65.5693741,101.5229492,66.6091843,101.4448776,67.6438751z"/>
	<path class="st1" d="M56.4955444,61.5750542c-0.6309547-0.1996231-1.2793579-0.2947311-1.9371719-0.327652
		c-0.5785904-0.0289497-1.1573906-0.0372086-1.7362938-0.0372086c-0.6411934,0-1.2825966,0.0101395-1.923687,0.0136948
		c-0.7924271,0.0042839-1.5805664,0.0838203-2.3480148,0.3065376c-1.415226,0.4106369-2.3120613,1.2991104-2.4675789,2.7961731
		c-0.131897,1.2691116-0.1520653,2.550354,0.0236206,3.816124c0.1611595,1.1616745,0.8281708,1.978241,1.9215965,2.4318314
		c0.4487839,0.186142,0.9163818,0.2978668,1.3945351,0.3737488c0.6785049,0.1075439,1.3604584,0.1216507,2.0430412,0.1216507
		c0.2429962,0,0.4859886-0.0017776,0.7289848-0.0017776c0.0798492,0,0.1599083,0.0002136,0.2397575,0.0007324
		c0.3243065,0,0.648613,0.0033417,0.9729195,0.0033417c0.1986809,0,0.3975716-0.0012512,0.5962524-0.0053253
		c0.8009987-0.0166168,1.5966644-0.086647,2.3703842-0.3131256c1.3432159-0.3933945,2.2408867-1.2302322,2.4251442-2.6491165
		c0.1684761-1.2973404,0.1666985-2.6138,0.0020905-3.9111328C58.6284676,62.8331947,57.7913094,61.9852715,56.4955444,61.5750542z
		 M57.184082,67.8599091c-0.1542625,1.0773315-0.8179283,1.6404495-1.9122963,1.8061066
		c-0.4741783,0.0718002-0.9496155,0.0851822-1.4232712,0.0851822c-0.2830238,0-0.5652122-0.0047073-0.8461494-0.0047073
		c-0.1797638,0-0.3592148,0.0018845-0.5377235,0.0083618c-0.1663857-0.0050125-0.3319359-0.0065842-0.4971733-0.0065842
		c-0.3010025,0-0.6004333,0.0053329-0.898716,0.0053329c-0.3570213,0-0.7125778-0.0076294-1.0677185-0.0413895
		c-0.516613-0.0490189-1.0190125-0.1518555-1.4588089-0.4489899c-0.5720062-0.3866043-0.8268089-0.9673843-0.8625526-1.6190338
		c-0.0568581-1.0351028-0.103157-2.0779495,0.0214233-3.1089783c0.1364975-1.1299057,0.8019371-1.7455978,1.9421883-1.9116707
		c0.3975716-0.0578995,0.796814-0.0862236,1.1984634-0.0862236c0.0029259,0,0.0057487,0,0.0086746,0
		c0.0909271,0.0001068,0.1816444,0.0001068,0.2724686,0.0001068c0.5653152,0,1.1306305-0.001152,1.6959496-0.001152
		c0.477108,0,0.954422,0.0008354,1.43153,0.0037613c0.4035301,0.0024071,0.8051758,0.0400314,1.2028542,0.1217613
		c0.9754295,0.2004585,1.6049194,0.7686996,1.7336807,1.7633629C57.3345833,65.5656128,57.3470192,66.722374,57.184082,67.8599091z"
		/>
	<path class="st1" d="M80.613121,70.7316437c-0.0027161-0.0153656-0.0004196-0.0316696-0.0004196-0.0474472
		c0-3.0267334-0.0018768-6.053566,0.0046005-9.0801926c0.0004196-0.1859283-0.0438995-0.2481155-0.2140427-0.2481155
		c-0.0109787,0-0.0224762,0.0002098-0.0344925,0.0007324c-0.1822739,0.0076294-0.3648605,0.0104485-0.5474472,0.0104485
		c-0.213623,0-0.4273529-0.0038643-0.6408768-0.0086746c-0.0052261-0.000103-0.0102463-0.000206-0.0152588-0.000206
		c-0.1336746,0-0.1917877,0.0430603-0.1704636,0.186451c0.006897,0.0465088,0.0010452,0.0948982,0.0010452,0.1424522
		c0,1.7747574,0.0043869,3.5496178-0.0014648,5.3244743c-0.0046997,1.4252625-0.5281067,2.1407623-1.7995224,2.4852448
		c-0.1067123,0.0289459-0.2155075,0.0512085-0.3242035,0.0715866c-0.7955627,0.1489334-1.5976028,0.187294-2.400795,0.187294
		c-0.3283844,0-0.6569748-0.0063782-0.9853592-0.0143204c-0.6795502-0.0164108-1.3603592-0.078598-1.9968491-0.3601532
		c-0.5313492-0.2349472-0.8545074-0.6316833-0.962677-1.2069321c-0.0560226-0.2981796-0.0590515-0.5985489-0.0596771-0.898407
		c-0.0036621-1.885849-0.0055389-3.7715988,0.0032349-5.6573486c0.0008392-0.1983643-0.0488052-0.2629547-0.2257462-0.2629547
		c-0.0124359,0-0.0256042,0.0003128-0.0394058,0.0009384c-0.1825867,0.0082588-0.3654861,0.0118103-0.5485916,0.0118103
		c-0.1974258,0-0.3949585-0.0041809-0.5920715-0.0108681c-0.0087814-0.0003128-0.0173492-0.0004196-0.0256042-0.0004196
		c-0.157608,0-0.2019272,0.0575867-0.2014008,0.2271118c0.0060577,2.0917435-0.0051193,4.1835976,0.0074234,6.2752342
		c0.007103,1.1926117,0.445961,2.1610413,1.5557938,2.7327347c0.5427399,0.2795715,1.1290665,0.4125137,1.7344131,0.4478455
		c0.4821243,0.0282135,0.9642487,0.0357437,1.446785,0.0357437c0.5543442,0,1.1087952-0.0100403,1.6632385-0.0100403
		c0.0958405,0,0.1918945,0.0003204,0.2878342,0.0010452c0.0196457,0.0001068,0.0391922,0.0002136,0.0588455,0.0002136
		c0.455368,0,0.909584-0.0384598,1.3583679-0.1240616c0.8017273-0.1529007,1.4836807-0.4952927,1.9167862-1.2246933
		c0.0709686-0.1195679,0.1323166-0.2447739,0.1980591-0.3673706c0.0160904,0.0038681,0.0320816,0.007843,0.0480728,0.0117111
		c0,0.4589157,0.0048065,0.9179459-0.0028229,1.3767624c-0.0022964,0.1411972,0.0419159,0.1900024,0.1768417,0.1900024
		c0.0043869,0,0.0088806-0.0000992,0.0134811-0.000206c0.1887512-0.0042877,0.3777161-0.0065842,0.5666733-0.0065842
		c0.1835251,0,0.366951,0.0021973,0.5503769,0.006691c0.0062637,0.000206,0.0123291,0.000206,0.0182877,0.000206
		C80.573616,70.9293823,80.6406097,70.8860092,80.613121,70.7316437z"/>
	<path class="st1" d="M36.25774,61.9548569c-0.5258141-0.4203529-1.1531067-0.5772285-1.8034973-0.6610489
		c-0.515255-0.0663681-1.031868-0.0817299-1.5489006-0.0817299c-0.447319,0-0.8948479,0.0114937-1.3420658,0.0114937
		c-0.0412827,0-0.0826702-0.000103-0.123848-0.0003128c-0.0055408,0-0.0111847,0-0.0167236,0
		c-0.3743687,0-0.7452908,0.0655327-1.1047134,0.1802864c-0.6930332,0.2213631-1.2196808,0.6467361-1.6075325,1.2770576
		c0-0.3798027-0.0039711-0.7596054,0.0021954-1.1392021c0.0019855-0.126255-0.0313549-0.1825867-0.1633568-0.1825867
		c-0.0031357,0-0.0062695,0-0.00951,0.000103c-0.1965904,0.0037651-0.3931828,0.0057487-0.5898781,0.0057487
		c-0.191679,0-0.3834629-0.0019836-0.575037-0.0062714c-0.0038662-0.000103-0.0076294-0.000103-0.0112877-0.000103
		c-0.1329422,0-0.1569805,0.0571709-0.1568756,0.1811218c0.0029259,3.0667572,0.0032406,6.1336212-0.0007305,9.2004852
		c-0.0001049,0.138588,0.0322933,0.1897964,0.1693115,0.1897964c0.0048084,0,0.0099297-0.0000992,0.0150509-0.000206
		c0.2070427-0.0053329,0.4141884-0.009201,0.6214409-0.009201c0.1812267,0,0.3624554,0.0030365,0.5432644,0.0105591
		c0.0145283,0.0006256,0.0283241,0.0009384,0.0414925,0.0009384c0.1777782,0,0.2363052-0.0586319,0.2352619-0.2687073
		c-0.0100346-1.9336166-0.0064812-3.8672256-0.0055408-5.8008423c0.0006275-1.2451859,0.8189735-2.1743164,2.0546436-2.2840538
		c0.4430351-0.039299,0.8866978-0.0593643,1.3303623-0.0593643c0.6086884,0,1.2172737,0.0377274,1.8229332,0.1151733
		c1.0577888,0.1352425,1.5091858,0.6423454,1.5999031,1.6997108c0.032505,0.3798065,0.0490189,0.7591934,0.0355339,1.1387863
		c-0.0058517,0.1622086,0.0449409,0.2075653,0.1884422,0.2075653c0.0080452,0,0.016407-0.0000992,0.0249786-0.000412
		c0.178299-0.0056458,0.3567047-0.0079498,0.5351105-0.0079498c0.1940842,0,0.3882713,0.0027237,0.5821457,0.0070038
		c0.0052223,0.0001068,0.0103455,0.0002136,0.0152588,0.0002136c0.1293869,0,0.1789284-0.039299,0.1756859-0.1844711
		c-0.0128555-0.5619736,0.0204849-1.1254044-0.0451508-1.6856041C37.0619736,63.0901947,36.8499146,62.4284134,36.25774,61.9548569z
		"/>
</g>
</svg>
