<?xml version="1.0" encoding="utf-8"?>
<!-- Generator: Adobe Illustrator 25.3.0, SVG Export Plug-In . SVG Version: 6.00 Build 0)  -->
<svg version="1.1" id="Layer_1" xmlns="http://www.w3.org/2000/svg" xmlns:xlink="http://www.w3.org/1999/xlink" x="0px" y="0px"
	 viewBox="0 0 120 60" style="enable-background:new 0 0 120 60;" xml:space="preserve">
<style type="text/css">
	.st0{fill:#FFFFFF;}
</style>
<g>
	<g>
		<path class="st0" d="M70.32732,39.90635c-4.39087,0-7.66869,3.14456-7.66869,7.39282c0,4.26913,3.27782,7.4763,7.66869,7.4763
			s7.66891-3.20717,7.66891-7.4763C77.99623,43.07178,74.71819,39.90635,70.32732,39.90635z M70.36775,51.52656
			c-2.10435,0-3.90522-1.8326-3.90522-4.20652c0-2.37413,1.78065-4.16499,3.90522-4.16499
			c2.12478,0,3.82435,1.79087,3.82435,4.16499C74.1921,49.69396,72.49254,51.52656,70.36775,51.52656z"/>
		<polygon class="st0" points="90.99567,40.01043 86.625,40.01043 83.95415,44.15456 81.3035,40.01043 76.99371,40.01043 
			81.70827,47.17435 76.66979,54.60869 81,54.60869 83.95415,50.08956 86.96915,54.60869 91.40045,54.60869 86.32153,46.98674 		"/>
		<polygon class="st0" points="113.44643,40.01043 113.44643,48.79869 107.01208,40.01043 103.75446,40.01043 103.75446,54.60869 
			107.21426,54.60869 107.21426,45.86217 113.64903,54.60869 116.88641,54.60869 116.88641,40.01043 		"/>
		<polygon class="st0" points="91.51292,43.05109 101.48226,43.05109 101.48226,40.01043 93.53488,40.01043 		"/>
		<polygon class="st0" points="93.92678,54.56728 101.48223,54.56728 101.48223,51.52663 91.89006,51.52663 		"/>
		<polygon class="st0" points="89.70092,45.73545 88.87267,46.97872 90.04853,48.7761 101.48223,48.7761 101.48223,45.73545 
			89.72572,45.73545 		"/>
	</g>
	<path class="st0" d="M57.32016,45.20274c0-0.64646-0.52405-1.17059-1.17052-1.17059h-5.93351l3.47675-6.25835
		c0.31407-0.56514,0.11039-1.27781-0.45468-1.59175c-0.56556-0.31419-1.27794-0.11032-1.59175,0.4548l-4.10848,7.39531H35.5302
		l-4.10854-7.39531c-0.314-0.56519-1.02662-0.76856-1.59175-0.4548c-0.56512,0.314-0.76874,1.02662-0.4548,1.59175l3.47689,6.25835
		h-5.28389c-0.64646,0-1.17059,0.52412-1.17059,1.17059s0.52412,1.17059,1.17059,1.17059h6.58456l6.35815,11.44476
		c0.20647,0.37154,0.59815,0.60199,1.02328,0.60199c0.42506,0,0.81681-0.23043,1.02322-0.60199l6.35821-11.44476h7.23413
		C56.79611,46.37332,57.32016,45.84921,57.32016,45.20274z M41.53408,54.83917l-4.70328-8.46585h9.40643L41.53408,54.83917z"/>
</g>
</svg>
