<?xml version="1.0" encoding="utf-8"?>
<!-- Generator: Adobe Illustrator 25.2.1, SVG Export Plug-In . SVG Version: 6.00 Build 0)  -->
<svg version="1.1" id="Layer_1" xmlns="http://www.w3.org/2000/svg" xmlns:xlink="http://www.w3.org/1999/xlink" x="0px" y="0px"
	 viewBox="0 0 120 90" style="enable-background:new 0 0 120 90;" xml:space="preserve">
<style type="text/css">
	.st0{fill:#FFFFFF;}
</style>
<g>
	<path class="st0" d="M39.1,32.9h9.8L58.4,50c0.3,0.6,0.9,0.9,1.5,0.9s1.2-0.3,1.5-0.9L71,32.9h9.8c1,0,1.7-0.8,1.7-1.7
		s-0.8-1.7-1.7-1.7h-7.9l5.2-9.3c0.5-0.8,0.2-1.9-0.7-2.4c-0.8-0.5-1.9-0.2-2.4,0.7l-6.1,11H51l-6.1-11c-0.5-0.8-1.5-1.1-2.4-0.7
		c-0.8,0.5-1.1,1.5-0.7,2.4l5.2,9.3h-7.9c-1,0-1.7,0.8-1.7,1.7S38.1,32.9,39.1,32.9z M52.9,32.9h14l-7,12.6L52.9,32.9z"/>
	<path class="st0" d="M43.7,60.1c-3.7,0-6.4,2.6-6.4,6.2s2.7,6.3,6.4,6.3s6.4-2.7,6.4-6.3C50.1,62.7,47.4,60.1,43.7,60.1z
		 M43.8,69.8c-1.8,0-3.3-1.5-3.3-3.5s1.5-3.5,3.3-3.5s3.2,1.5,3.2,3.5C47,68.2,45.5,69.8,43.8,69.8z"/>
	<polygon class="st0" points="61,60.1 57.4,60.1 55.1,63.6 52.9,60.1 49.3,60.1 53.3,66.1 49,72.4 52.7,72.4 55.1,68.6 57.7,72.4 
		61.4,72.4 57.1,66 	"/>
	<polygon class="st0" points="79.8,60.1 79.8,67.5 74.4,60.1 71.7,60.1 71.7,72.4 74.6,72.4 74.6,65 80,72.4 82.7,72.4 82.7,60.1 	
		"/>
	<polygon class="st0" points="61.5,62.7 69.8,62.7 69.8,60.1 63.1,60.1 	"/>
	<polygon class="st0" points="63.5,72.3 69.8,72.3 69.8,69.8 61.8,69.8 	"/>
	<polygon class="st0" points="59.9,64.9 59.2,66 60.2,67.5 69.8,67.5 69.8,64.9 60,64.9 	"/>
</g>
</svg>
