<?xml version="1.0" encoding="utf-8"?>
<!-- Generator: Adobe Illustrator 25.3.0, SVG Export Plug-In . SVG Version: 6.00 Build 0)  -->
<svg version="1.1" id="Layer_1" xmlns="http://www.w3.org/2000/svg" xmlns:xlink="http://www.w3.org/1999/xlink" x="0px" y="0px"
	 viewBox="0 0 120 105" style="enable-background:new 0 0 120 105;" xml:space="preserve">
<style type="text/css">
	.st0{fill:#333B58;}
	.st1{fill:#FFFFFF;}
	.st2{fill:#0F0F0F;}
	.st3{fill:#FFFFFE;}
	.st4{fill:#3CAB45;}
	.st5{fill:#F2E615;}
	.st6{clip-path:url(#SVGID_2_);}
	.st7{fill:#E62E2A;}
	.st8{fill:#DBCA5D;}
</style>
<path class="st0" d="M21.5,7.9v56.8c1.9,24.4,33.1,25.8,38.9,33.2c5.7-7.4,36.9-8.8,38.9-33.2V7.9C99.3,7.9,21.5,7.9,21.5,7.9z"/>
<path class="st1" d="M60.6,19.8v76.4c6.3-6.9,35.5-8.5,37.3-31.8V19.8H60.6z"/>
<g id="N5KLAL.tif">
	<g>
		<path class="st2" d="M92.6,68c-2.6,0.6-5.2,1.1-7.7,1.7h-0.1c-0.2,0-0.2,0.1-0.1,0.2c0.2,0.7,0.5,1.4,0.6,2.2
			c0.3,2.6-0.6,4.7-2.5,6.2c-1.5,1.2-3.2,2-4.9,2.8c-0.6,0.2-1,0.6-1.5,1c-1.2,1.4-2.7,2.6-4.3,3.6c-1.5,1-3.2,1.1-4.9,0.8
			c-1-0.2-1.8-0.7-2.7-1.2c-0.1-0.1-0.1-0.1-0.2,0c-1.1,1.7-2.3,3.5-3.4,5.2c0,0,0,0,0,0.1l0,0c-0.6-1-1.1-2-1.8-3.2
			c-0.5-0.9-1-1.7-1.5-2.6c-0.5,0.3-1,0.7-1.6,0.9c-1.4,0.7-2.8,0.9-4.4,0.7c-1-0.1-1.8-0.7-2.6-1.2c-1.2-0.9-2.4-1.9-3.4-3.1
			c-0.5-0.5-1-0.8-1.6-1.1c-1.8-0.8-3.5-1.8-5.1-3.1c-1.2-1-1.9-2.3-2.3-3.9c-0.3-1.5-0.3-2.8,0.1-4.2c0-0.2,0-0.2-0.1-0.2
			c-1.9-0.5-4-0.9-5.9-1.4c0,0-0.1,0-0.2-0.1c0.7-0.8,1.2-1.7,1.9-2.5c0.6-0.8,1.1-1.5,1.8-2.3c0.2-0.3,0.2-0.3-0.1-0.6
			c-0.9-0.7-1.7-1.4-2.3-2.4c-0.8-1.2-0.9-2.6-0.5-4.1c0.5-1.7,1.1-3.3,1.9-4.8c0.1-0.3,0.2-0.7,0.2-1c0-2,0.6-4,1.2-5.9
			c0.6-1.5,1.4-2.8,2.5-4c1.1-1.1,2.5-1.8,4.1-1.8c0.3,0,0.3,0,0.3-0.3c-0.2-2-0.5-4-0.7-6c0-0.2-0.1-0.6-0.1-0.8
			c0.1,0,0.1,0,0.2,0.1c2.3,0.9,4.7,1.8,6.9,2.8c0.2,0.1,0.2,0,0.2-0.1c0.5-1.2,1-2.3,1.9-3.2c0.8-0.7,1.8-1,2.8-1.1
			c1.9-0.2,3.7-0.1,5.7,0.2c0.3,0.1,0.7,0.1,1,0.2c0.2,0.1,0.5,0,0.7,0c2-0.6,4.1-0.8,6.1-0.7c2.8,0.2,5.1,1.5,6.4,4.2
			c0.1,0.1,0.1,0.1,0.2,0.1c2-0.8,4.1-1.7,6.1-2.5c0.1,0,0.1-0.1,0.2-0.1c-0.3,2.5-0.8,5.1-1.1,7.6c0.1,0,0.3,0,0.5,0
			c1.6-0.1,3.1,0.2,4.5,0.9c1.4,0.7,2.3,1.7,2.7,3.2c0.5,1.6,0.8,3.2,1.2,4.8c0.3,1.4,0.8,2.6,1.4,3.9c0.7,1.4,1.1,2.7,1.4,4.3
			c0.2,2-0.1,4-1.4,5.6c-0.1,0.2-0.3,0.5-0.6,0.6c-0.1,0.1-0.1,0.1,0,0.2C89.5,64.5,91,66.2,92.6,68C92.4,67.9,92.4,67.9,92.6,68
			C92.6,67.9,92.6,67.9,92.6,68z M40.3,65.5h-0.1c-2,0.6-4.1,1.1-6.1,1.7c-0.1,0-0.1,0.1-0.2,0c1.8-0.8,3.6-1.5,5.3-2.3
			c-0.1,0-0.2-0.1-0.5-0.1c-1.4,0-2.7-0.3-3.9-1c-0.1-0.1-0.2-0.1-0.3,0.1c-0.6,0.8-1.2,1.6-1.8,2.3c-0.3,0.5-0.7,0.9-1.1,1.4
			c-0.1,0.1-0.1,0.2,0.1,0.2c0.2,0,0.6,0.1,0.8,0.2c1.4,0.3,2.7,0.7,4.1,1c0.1,0,0.2,0,0.2-0.1c0.3-0.7,0.9-1.2,1.4-1.7
			C38.9,66.5,39.6,66,40.3,65.5C40.3,65.5,40.4,65.5,40.3,65.5C40.3,65.4,40.3,65.4,40.3,65.5z M73.2,41.8c0.3-0.2,0.6-0.3,0.9-0.6
			c1-0.6,2-1.2,3.3-1.6c0.1,0,0.1-0.1,0.1-0.1c0-0.1,0-0.2,0-0.3c0.2-1.5,0.5-3,0.6-4.4c0-0.3,0.1-0.8,0.1-1.1h-0.1
			c-1.7,0.7-3.3,1.2-5,1.9c-0.1,0-0.1,0.1-0.1,0.2c0.1,1.1,0,2.3-0.2,3.5c-0.1,0.6-0.2,1-0.2,1.6l0,0c1.4-1.6,2.6-3.2,4-4.8
			c0,0.1,0,0.2-0.1,0.2c-0.6,1-1.2,1.9-1.8,3C74.3,39.9,73.8,40.9,73.2,41.8C73.2,41.6,73.2,41.8,73.2,41.8L73.2,41.8z M46.3,40.5
			C46.3,40.5,46.4,40.6,46.3,40.5C46.4,40.5,46.4,40.5,46.3,40.5c-0.5-0.8-1-1.6-1.6-2.4c-0.3-0.6-0.8-1.1-1.1-1.8l0,0
			c0.3,0.2,0.6,0.6,0.8,0.9c0.9,1,1.7,1.9,2.6,3c0.3,0.5,0.8,0.9,1.1,1.2c0-0.1,0-0.1,0-0.2c-0.1-0.6-0.5-1-0.6-1.6
			c-0.2-1.1-0.1-2.3,0.1-3.4c0.1-0.5,0.1-0.3-0.3-0.5c-1.4-0.6-2.7-1-4.1-1.6c-0.5-0.2-1-0.3-1.5-0.6c0,0.1,0,0.2,0,0.3
			c0,0.3,0.1,0.8,0.1,1.1c0.1,1.4,0.2,2.7,0.5,4c0,0.1,0.1,0.1,0.2,0.2c0.7,0.1,1.4,0.3,2.2,0.6C45.2,40.1,45.7,40.3,46.3,40.5z
			 M80.4,65.5C80.4,65.4,80.3,65.4,80.4,65.5C80.3,65.5,80.3,65.5,80.4,65.5c0.6,0.3,1,0.9,1.5,1.2c0.9,0.7,1.7,1.5,2.3,2.4
			c0.1,0.1,0.2,0.1,0.3,0.1c1.8-0.3,3.8-0.8,5.6-1.1c0.3-0.1,0.8-0.1,1.1-0.2c-1.4-1.5-2.6-3-4-4.4c-0.1-0.1-0.1-0.1-0.2,0
			c-1.4,0.8-2.8,1.2-4.3,1.4c-0.3,0-0.7,0.1-1,0.1c0.1,0,0.1,0.1,0.1,0.1c1.4,0.6,2.7,1.1,4.1,1.7c0.6,0.2,1.2,0.5,1.8,0.8l0,0
			c-0.1,0-0.1,0-0.2,0c-1.6-0.5-3.1-0.8-4.7-1.2C82.1,65.9,81.2,65.6,80.4,65.5z M43.5,63.9c-0.1,0.1-0.2,0.1-0.2,0.2
			c-0.8,0.7-1.7,1.4-2.6,1.9c-0.9,0.7-1.7,1.2-2.4,2.2c-0.3,0.5-0.8,0.9-0.9,1.5c-0.6,1.5-0.6,3-0.2,4.4c0.3,1.4,0.9,2.6,2.2,3.4
			c1.4,1.1,3,2,4.5,2.7c0.7,0.3,1.4,0.6,1.9,1.2c0.9,1,2,2,3.2,2.8c0.6,0.5,1.1,0.9,1.9,1.1c1.1,0.5,2.4,0.3,3.6,0
			c1.4-0.5,2.6-1,3.5-2.3c1-1.5,1.6-3.1,2-4.8c0.1-0.2,0.1-0.6,0.1-0.8c0.1-0.3,0.1-0.7,0.3-0.9c0.1-0.1,0.2-0.1,0.3,0
			c0.2,0.2,0.2,0.5,0.3,0.8c0.1,0.6,0.2,1.1,0.3,1.7c0.2,0.9,0.7,1.8,1,2.7c0.7,1.6,1.7,2.6,3.3,3.4c1.2,0.6,2.6,0.8,4,0.6
			c0.9-0.1,1.6-0.7,2.3-1.1c1.4-0.9,2.5-1.9,3.6-3.2c0.5-0.6,1-0.9,1.6-1.2c1.4-0.6,2.6-1.2,3.8-2c0.7-0.5,1.4-0.9,1.9-1.7
			c1-1.4,1.5-2.8,1.4-4.5c0-1.2-0.5-2.4-1.2-3.3c-1-1.1-2.2-2.2-3.5-3.1c-0.6-0.3-1.1-0.7-1.7-1.1c-0.1-0.1-0.2-0.2-0.2-0.5
			c0-0.1,0.2-0.1,0.3-0.2c0.7-0.1,1.2-0.1,1.9,0c1.9,0.1,3.8-0.1,5.6-0.8c2.4-0.9,4-2.7,3.8-5.6C89.2,56,88.7,54.5,88,53
			c-0.2-0.6-0.6-1.1-0.8-1.8c-0.6-1.8-1-3.6-1.5-5.3c-0.2-0.8-0.3-1.6-0.7-2.4c-0.6-1.4-1.6-2.2-2.8-2.8c-1.6-0.7-3.2-1-4.9-0.3
			c-1.5,0.6-2.8,1.4-4.1,2.4c-0.6,0.5-1.1,1-1.8,1.5c-0.2,0.1-0.5,0.3-0.7,0.3c-0.1,0.1-0.2,0-0.2-0.1c0-0.2,0-0.3,0.1-0.6
			c0.2-0.9,0.7-1.7,1-2.5c0.1-0.3,0.3-0.7,0.3-1c0.1-0.8,0.2-1.5,0.3-2.3s0.2-1.6,0-2.5c-0.6-3-2.8-4.9-5.8-4.9
			c-1.9,0-3.8,0.2-5.6,0.7c-0.5,0.1-0.9,0.1-1.2,0c-0.3-0.1-0.7-0.2-1-0.2c-1.7-0.2-3.4-0.5-5.1-0.2c-1.5,0.1-2.6,0.8-3.5,1.9
			c-0.6,0.8-1,1.6-1.4,2.6c-0.3,1.2-0.6,2.5-0.3,3.7c0.2,0.8,0.5,1.6,0.8,2.4c0.2,0.6,0.6,1.1,0.8,1.7c0.1,0.2,0.1,0.5,0.1,0.7
			c0,0.2-0.1,0.2-0.2,0.2c-0.2-0.1-0.5-0.2-0.6-0.3c-0.8-0.6-1.5-1.4-2.2-2c-0.2-0.2-0.5-0.3-0.7-0.6c-0.9-0.6-1.9-0.9-3.1-1.2
			c-0.8-0.2-1.7-0.3-2.5-0.2c-1.4,0.2-2.4,0.9-3.3,1.9c-1,1.1-1.7,2.5-2.3,3.9c-0.6,1.7-1.1,3.5-1.1,5.3c0,0.5-0.1,0.8-0.3,1.1
			c-0.8,1.5-1.4,3-1.8,4.5c-0.2,1-0.3,2,0.1,3c1,2.3,2.8,3.5,5.1,4c0.9,0.2,1.8,0.1,2.6,0.2c0.6,0,1.2,0,1.8-0.2
			c0.2-0.1,0.6-0.1,0.8-0.1C42.9,63.8,43.2,63.7,43.5,63.9z M60.1,80.6L60.1,80.6c-0.1,0.2-0.2,0.5-0.3,0.7c-0.5,1-0.9,2-1.7,3
			c-0.1,0.1,0,0.1,0,0.2c0.7,1.1,1.2,2.3,1.9,3.4c0.2,0.3,0.5,0.8,0.7,1.1c0.9-1.4,1.9-2.8,2.8-4.2c0.1-0.1,0-0.1,0-0.2
			c-0.2-0.2-0.5-0.5-0.7-0.7c-0.7-0.8-1-1.7-1.5-2.7c-0.1-0.3-0.2-0.6-0.3-0.9l0,0c-0.1,2.2-0.2,4.4-0.5,6.6l0,0
			C60.3,84.8,60.2,82.7,60.1,80.6z"/>
		<path class="st3" d="M43.5,63.9c-0.2-0.2-0.6-0.2-0.8-0.1c-0.2,0-0.6,0.1-0.8,0.1c-0.6,0.1-1.2,0.2-1.8,0.2c-0.9,0-1.8,0-2.6-0.2
			c-2.4-0.6-4.2-1.8-5.1-4c-0.5-1-0.3-2-0.1-3c0.5-1.6,1-3.1,1.8-4.5c0.2-0.3,0.3-0.8,0.3-1.1c0-1.8,0.5-3.6,1.1-5.3
			c0.5-1.4,1.2-2.7,2.3-3.9c0.9-1,1.9-1.7,3.3-1.9c0.9-0.1,1.7,0,2.5,0.2c1,0.3,2,0.7,3.1,1.2c0.2,0.1,0.5,0.3,0.7,0.6
			c0.7,0.7,1.4,1.4,2.2,2c0.2,0.1,0.3,0.2,0.6,0.3c0.1,0.1,0.2,0,0.2-0.2c0-0.2-0.1-0.5-0.1-0.7c-0.2-0.6-0.6-1.1-0.8-1.7
			c-0.3-0.8-0.7-1.6-0.8-2.4c-0.3-1.2-0.1-2.5,0.3-3.8c0.3-0.9,0.7-1.8,1.4-2.6c0.9-1.1,2-1.8,3.5-1.9c1.7-0.1,3.4,0,5.1,0.2
			c0.3,0.1,0.7,0.1,1,0.2c0.5,0.1,0.9,0.1,1.2,0c1.8-0.6,3.8-0.7,5.6-0.7c3,0,5.3,1.9,5.8,4.9c0.1,0.8,0.1,1.6,0,2.5
			c-0.1,0.8-0.2,1.5-0.3,2.3c-0.1,0.3-0.2,0.7-0.3,1c-0.3,0.8-0.8,1.6-1,2.5c-0.1,0.2-0.1,0.3-0.1,0.6c0,0.1,0.1,0.2,0.2,0.1
			c0.2-0.1,0.5-0.2,0.7-0.3c0.6-0.5,1.1-1,1.8-1.5c1.2-1,2.6-1.8,4.1-2.4c1.7-0.7,3.3-0.3,4.9,0.3c1.2,0.6,2.3,1.5,2.8,2.8
			c0.3,0.8,0.5,1.6,0.7,2.4c0.5,1.8,0.9,3.6,1.5,5.3c0.2,0.6,0.6,1.1,0.8,1.8c0.7,1.5,1.1,3,1.2,4.5c0.1,3-1.4,4.7-3.8,5.6
			c-1.8,0.7-3.6,0.9-5.6,0.8c-0.7,0-1.2-0.1-1.9,0c-0.1,0-0.3,0-0.3,0.2c0,0.1,0.1,0.3,0.2,0.5c0.5,0.5,1.1,0.8,1.7,1.1
			c1.4,0.8,2.5,1.8,3.5,3.1c0.8,0.9,1.2,2,1.2,3.3c0.1,1.7-0.3,3.2-1.4,4.5c-0.6,0.7-1.2,1.1-1.9,1.7c-1.1,0.8-2.4,1.5-3.8,2
			c-0.7,0.2-1.1,0.7-1.6,1.2c-1,1.2-2.3,2.3-3.6,3.2c-0.7,0.5-1.4,0.9-2.3,1.1c-1.4,0.2-2.7,0-4-0.6c-1.5-0.7-2.6-1.8-3.3-3.4
			c-0.3-0.9-0.8-1.7-1-2.7c-0.1-0.6-0.2-1.1-0.3-1.7c-0.1-0.2-0.1-0.6-0.3-0.8c-0.1-0.1-0.2-0.1-0.3,0c-0.2,0.2-0.3,0.6-0.3,0.9
			c-0.1,0.2-0.1,0.6-0.1,0.8c-0.5,1.7-1,3.4-2,4.8c-0.9,1.1-2,1.8-3.5,2.3c-1.2,0.3-2.4,0.3-3.6,0c-0.7-0.2-1.2-0.7-1.9-1.1
			C48,83.9,47,83,46,82c-0.6-0.6-1.2-0.9-1.9-1.2c-1.7-0.7-3.2-1.6-4.5-2.7c-1.1-0.9-1.8-2-2.2-3.4c-0.3-1.5-0.3-3,0.2-4.4
			c0.2-0.6,0.6-1,0.9-1.5c0.7-0.8,1.6-1.5,2.4-2.2c0.9-0.7,1.8-1.2,2.6-1.9C43.4,64.1,43.5,64,43.5,63.9z M71.1,72.8L71.1,72.8
			C71.2,72.8,71.2,72.8,71.1,72.8c-0.2-0.5-0.6-0.9-0.9-1.4c0-0.1-0.1-0.1-0.1-0.2c-0.1-0.7-0.1-1.5-0.2-2.2c0-0.1,0-0.1,0.1-0.1
			c0.3,0,0.7,0,0.9,0c1.1-0.2,2-0.8,2.7-1.7s1-1.9,1.5-3.1c0.1-0.5,0.2-0.8,0.2-1.2c0-0.1,0-0.3,0.1-0.5c0.5-0.9,0.7-1.8,0.9-2.7
			c0.3-1.4-0.1-2.4-1-3.3c-0.3-0.3-0.7-0.6-1.1-0.8c-0.1-0.1-0.1-0.1,0-0.2c0.3-0.3,0.6-0.7,0.9-1.1c0.1-0.1,0.2-0.2,0.3-0.2
			c0.7-0.2,1.2-0.5,1.8-0.8c0,0,0.1,0,0.1-0.1h-0.1c-0.7,0.2-1.5,0.3-2.2,0.6c-0.1,0-0.1,0.1-0.2,0c-0.6-0.2-1.1-0.3-1.7-0.6
			c0.5-0.8,0.7-1.7,0.6-2.6c-0.1-0.9-0.3-1.7-1-2.4c-0.9-0.8-1.8-1.5-3-1.9c-0.2-0.1-0.6-0.2-0.7-0.5c-0.7-0.7-1.5-1.2-2.3-1.8
			c-1-0.7-2.2-0.8-3.3-0.3c-0.7,0.2-1.2,0.6-1.8,1c-0.2-0.3-0.5-0.7-0.7-1c-0.2-0.3-0.3-0.6-0.3-1c0-0.2,0-0.5,0-0.7
			c0-0.5-0.1-0.8-0.1-1.2c-0.1,0.6-0.1,1.2-0.1,1.8c0,0.5-0.1,0.9-0.5,1.2c-0.1,0.2-0.3,0.3-0.5,0.6c-0.1,0.1-0.1,0.2-0.3,0
			c-0.5-0.5-1-0.8-1.7-1c-1.2-0.5-2.4-0.5-3.4,0.3c-0.8,0.6-1.5,1.1-2.2,1.8c-0.2,0.2-0.5,0.5-0.8,0.6c-0.8,0.3-1.5,0.8-2.3,1.2
			c-1.1,0.7-1.6,1.8-1.7,3.1c-0.1,0.9,0.1,1.8,0.6,2.6c-0.6,0.2-1.1,0.3-1.7,0.6c-0.1,0-0.2,0-0.2,0c-0.5-0.1-1-0.2-1.5-0.3
			c-0.3-0.1-0.6-0.1-0.9-0.2c0.6,0.2,1,0.5,1.6,0.7c0.7,0.2,1.2,0.6,1.6,1.2c0.1,0.1,0.1,0.2-0.1,0.3c-0.8,0.5-1.4,1-1.8,1.8
			c-0.3,0.7-0.6,1.4-0.5,2.2c0.1,0.6,0.2,1.2,0.3,1.8c0.2,0.7,0.6,1.4,0.8,2c0.3,0.9,0.6,1.8,0.9,2.8c0.2,0.7,0.6,1.4,1.1,1.8
			c1.1,0.9,2.4,1.2,3.8,1c0.1,0,0.1,0,0.1,0.1c0,0.7-0.1,1.4-0.1,2c0,0.1,0,0.2-0.1,0.3c-0.3,0.6-0.7,1.1-1.1,1.7l0,0l0,0
			c0.5-0.5,0.8-0.9,1.2-1.5c0.2-0.3,0.5-0.5,0.9-0.6c0.2,0,0.5-0.1,0.7-0.2s0.3,0,0.3,0.2c0.5,1.7,1.5,2.8,3.3,3.1
			c1.2,0.2,2.6,0.1,3.9-0.2c0.2,0,0.3-0.1,0.6,0c0.9,0.2,1.8,0.3,2.7,0.2c0.6,0,1.2-0.1,1.7-0.3c1.1-0.6,1.7-1.5,2.2-2.6
			c0-0.1,0.1-0.2,0.2-0.1c0.7,0.2,1.5,0.5,2.2,0.7c0.1,0,0.2,0.1,0.2,0.2C70.5,72.1,70.7,72.4,71.1,72.8z M68.7,82.4
			c0.2,0,0.3,0,0.6-0.1c1.8-0.6,3.4-1.4,4.7-3c0.3-0.3,0.6-0.8,0.9-1c0.8-0.7,1.8-1.1,2.7-1.5c0.6-0.2,0.9-0.5,1.4-0.8
			c0.7-0.6,1-1.4,1.5-2c0-0.1,0.1-0.2,0.1-0.3c0-0.1-0.1-0.2-0.2-0.1c-0.1,0.1-0.2,0.2-0.3,0.3c-0.5,0.5-0.8,1-1.4,1.4
			c-0.7,0.6-1.5,1-2.3,1.4c-0.2,0.1-0.6,0.2-0.8,0.3c-1.1,0.5-2.2,1.1-2.6,2.4c0,0,0,0.1-0.1,0.1c-0.6,0.7-1.2,1.4-2.2,1.8
			c-0.6,0.2-1.1,0.6-1.7,0.8C68.8,82.1,68.7,82.2,68.7,82.4z M40.1,73.9c0.1,0.3,0.3,0.6,0.5,0.8c0.7,1,1.5,1.9,2.7,2.4
			c0.3,0.1,0.6,0.2,0.8,0.5c1.6,0.8,3,1.7,4,3.2c0.1,0.2,0.3,0.3,0.5,0.5c0.7,0.5,1.4,0.8,2.2,0.9c0.2,0,0.6,0.1,0.8,0
			c-0.7-0.2-1.2-0.6-1.8-1c-0.9-0.6-1.6-1.4-2.3-2.2c-0.8-0.8-1.6-1.6-2.6-2c-0.5-0.2-0.9-0.3-1.4-0.5c-1.1-0.3-2.2-0.9-3-1.9
			C40.5,74.1,40.4,74,40.1,73.9z M54.4,34.1c0.2,0.1,0.3,0.1,0.5,0.1c0.5,0,0.9-0.1,1.2-0.1c0.8-0.1,1.5-0.1,2.3,0.2
			c0.6,0.2,1.1,0.3,1.8,0.5c1.1,0.1,2.3-0.1,3.4-0.6c0.8-0.3,1.6-0.3,2.4-0.3c0.5,0,1,0.1,1.5,0.1c0.1,0,0.1,0,0.2,0
			c0-0.1-0.1-0.1-0.1-0.1c-0.3-0.2-0.8-0.2-1.1-0.3c-1.1-0.3-2.3-0.3-3.4,0c-1.4,0.5-2.7,0.6-4.2,0.1c-0.7-0.2-1.4-0.3-2.2-0.2
			C55.9,33.4,55.1,33.6,54.4,34.1z M39,44.4c-0.2,0.1-0.3,0.2-0.5,0.5c-0.6,0.8-0.9,1.6-1.1,2.5c-0.2,0.8-0.2,1.6-0.3,2.5
			c0,0.6-0.1,1-0.3,1.5c-0.3,0.8-0.8,1.6-1.1,2.3c-0.5,0.8-0.7,1.7-0.6,2.6c0,0.5,0.1,0.9,0.2,1.2c0.1-0.1,0.1-0.2,0.2-0.3
			c0-0.2,0.1-0.5,0.1-0.8c0-0.6,0.1-1.1,0.2-1.8c0.2-0.6,0.6-1.1,0.9-1.6c0.9-1,1.4-2.3,1.2-3.8c0-1.2,0.2-2.5,0.7-3.6
			C38.8,45.3,38.9,44.8,39,44.4z M80.5,44.8c0,0.2,0.2,0.3,0.3,0.5c0.7,0.7,1,1.5,1.2,2.3s0.2,1.6,0.2,2.5c0,1.1,0.3,2.2,1.1,3
			c0.6,0.6,0.9,1.2,1.1,2c0.1,0.5,0.2,0.8,0.5,1.2c0.1,0.3,0.2,0.7,0.5,1.1c0.2-0.3,0.2-0.7,0.1-1.1c-0.1-0.8-0.3-1.5-0.7-2.2
			c-0.3-0.8-0.7-1.5-1.1-2.3c-0.6-1.1-0.8-2.3-0.8-3.5c0-1.6-0.8-2.7-2-3.5C80.7,44.8,80.6,44.8,80.5,44.8z"/>
		<path class="st4" d="M87.7,67.4c-0.6-0.3-1.2-0.6-1.8-0.8c-1.4-0.6-2.7-1.1-4.1-1.7c0,0-0.1,0-0.1-0.1c0.3,0,0.7-0.1,1-0.1
			c1.6-0.2,3.1-0.6,4.3-1.4c0.1-0.1,0.2,0,0.2,0c1.2,1.5,2.6,3,4,4.4c-0.5,0.1-0.8,0.1-1.1,0.2c-1.8,0.3-3.8,0.8-5.6,1.1
			c-0.1,0-0.2,0.1-0.3-0.1c-0.6-0.9-1.4-1.7-2.3-2.4c-0.5-0.5-1-0.9-1.5-1.2l0,0c0.8,0.2,1.7,0.5,2.5,0.7c1.6,0.5,3.1,0.8,4.7,1.2
			C87.6,67.4,87.7,67.4,87.7,67.4C87.8,67.4,87.8,67.4,87.7,67.4C87.8,67.4,87.8,67.4,87.7,67.4C87.8,67.4,87.8,67.4,87.7,67.4z"/>
		<path class="st4" d="M43.6,36.3c0.3,0.6,0.8,1.1,1.1,1.8c0.6,0.8,1,1.6,1.6,2.4l0,0c-0.6-0.2-1.1-0.6-1.7-0.7
			c-0.7-0.2-1.4-0.5-2.2-0.6c-0.1,0-0.1-0.1-0.2-0.2c-0.1-1.4-0.2-2.7-0.5-4c0-0.3-0.1-0.8-0.1-1.1c0-0.1,0-0.2,0-0.3
			c0.5,0.2,1,0.3,1.5,0.6c1.4,0.6,2.7,1,4.1,1.6c0.3,0.1,0.3,0,0.3,0.5c-0.2,1.1-0.3,2.3-0.1,3.4c0.1,0.6,0.3,1,0.6,1.6
			c0,0,0.1,0.1,0,0.2c-0.3-0.5-0.8-0.9-1.1-1.2c-0.9-1-1.7-1.9-2.6-3C44.1,36.9,43.9,36.5,43.6,36.3L43.6,36.3
			c-0.1-0.1-0.1-0.1-0.1-0.1S43.5,36.2,43.6,36.3C43.5,36.2,43.5,36.2,43.6,36.3C43.5,36.3,43.6,36.3,43.6,36.3z"/>
		<path class="st4" d="M73.2,41.6c0.6-0.8,1-1.7,1.6-2.5c0.6-1,1.2-1.9,1.8-3c0-0.1,0.1-0.1,0.1-0.2c-1.4,1.6-2.7,3.2-4,4.8l0,0
			c0.1-0.6,0.1-1,0.2-1.6c0.2-1.1,0.3-2.3,0.2-3.5c0-0.1,0-0.2,0.1-0.2c1.7-0.7,3.3-1.2,5-1.9c0,0,0,0,0.1,0c0,0.5-0.1,0.8-0.1,1.1
			c-0.2,1.5-0.5,3-0.6,4.4c0,0.1,0,0.2,0,0.3s0,0.1-0.1,0.1c-1.1,0.3-2.2,1-3.3,1.6C73.8,41.3,73.6,41.5,73.2,41.6L73.2,41.6z
			 M77,35.9C76.9,35.9,76.9,35.9,77,35.9C76.9,36,76.9,36,76.9,36l0,0C76.9,36,76.9,36,77,35.9L77,35.9L77,35.9
			C77,35.7,77,35.7,77,35.9z"/>
		<path class="st4" d="M40.3,65.5c-0.7,0.6-1.4,1-1.9,1.6c-0.6,0.6-1,1.1-1.4,1.7c-0.1,0.1-0.1,0.1-0.2,0.1c-1.4-0.3-2.7-0.7-4.1-1
			c-0.2-0.1-0.6-0.1-0.8-0.2c-0.2,0-0.2-0.1-0.1-0.2c0.3-0.5,0.7-0.9,1.1-1.4c0.6-0.8,1.2-1.5,1.8-2.3c0.1-0.1,0.1-0.1,0.3-0.1
			c1.2,0.7,2.5,1,3.9,1c0.1,0,0.2,0,0.5,0.1c-1.8,0.7-3.5,1.5-5.3,2.3c0.1,0,0.2,0,0.2,0c2-0.6,4.1-1.1,6.1-1.7
			C40.2,65.5,40.2,65.5,40.3,65.5L40.3,65.5z M33.7,67.2L33.7,67.2C33.7,67.2,33.6,67.2,33.7,67.2C33.6,67.2,33.6,67.2,33.7,67.2
			L33.7,67.2z"/>
		<path class="st4" d="M60.1,80.6c0.1,2,0.2,4.2,0.5,6.2l0,0c0.1-2.2,0.2-4.4,0.5-6.6l0,0c0.1,0.3,0.2,0.6,0.3,0.9
			c0.3,1,0.8,1.9,1.5,2.7c0.2,0.2,0.5,0.5,0.7,0.7c0.1,0.1,0.1,0.1,0,0.2c-0.9,1.4-1.8,2.7-2.8,4.2c-0.2-0.5-0.5-0.8-0.7-1.1
			c-0.7-1.1-1.2-2.3-1.9-3.4c0-0.1-0.1-0.1,0-0.2c0.8-0.8,1.2-1.8,1.7-3C59.8,81.1,59.9,80.9,60.1,80.6L60.1,80.6z"/>
		<path class="st4" d="M80.4,65.5C80.3,65.5,80.3,65.5,80.4,65.5C80.3,65.4,80.4,65.4,80.4,65.5L80.4,65.5z"/>
		<path class="st4" d="M40.3,65.5C40.3,65.4,40.3,65.4,40.3,65.5C40.4,65.5,40.3,65.5,40.3,65.5L40.3,65.5z"/>
		<path class="st4" d="M73.2,41.8L73.2,41.8C73.2,41.8,73.2,41.6,73.2,41.8C73.2,41.6,73.2,41.6,73.2,41.8z"/>
		<path class="st4" d="M46.3,40.5C46.4,40.5,46.4,40.5,46.3,40.5C46.4,40.6,46.3,40.5,46.3,40.5L46.3,40.5z"/>
		<path class="st2" d="M49.9,72.9c0.3-0.6,0.7-1.1,1.1-1.7c0.1-0.1,0.1-0.2,0.1-0.3c0-0.7,0.1-1.4,0.1-2c0-0.1,0-0.1-0.1-0.1
			c-1.4,0.1-2.6-0.1-3.8-1c-0.6-0.5-0.9-1.1-1.1-1.8c-0.2-0.9-0.6-1.9-0.9-2.8c-0.2-0.7-0.6-1.4-0.8-2c-0.1-0.6-0.3-1.2-0.3-1.8
			c-0.1-0.8,0.1-1.5,0.5-2.2c0.5-0.8,1-1.4,1.8-1.8c0.1-0.1,0.2-0.1,0.1-0.3c-0.3-0.6-0.9-1-1.6-1.2c-0.6-0.1-1-0.5-1.6-0.7
			c0.3,0.1,0.6,0.1,0.9,0.2c0.5,0.1,1,0.2,1.5,0.3c0.1,0,0.1,0,0.2,0c0.6-0.2,1.1-0.3,1.7-0.6c-0.5-0.8-0.6-1.7-0.6-2.6
			c0.1-1.2,0.6-2.4,1.7-3.1c0.7-0.5,1.5-0.9,2.3-1.2c0.3-0.1,0.6-0.3,0.8-0.6c0.7-0.7,1.4-1.2,2.2-1.8c1.1-0.8,2.3-0.8,3.4-0.3
			c0.7,0.2,1.2,0.6,1.7,1c0.1,0.1,0.2,0.1,0.3,0c0.1-0.2,0.2-0.5,0.5-0.6c0.3-0.3,0.5-0.8,0.5-1.2c0-0.6,0.1-1.2,0.1-1.8
			c0,0.5,0.1,0.8,0.1,1.2c0,0.2,0,0.5,0,0.7c0,0.3,0.1,0.7,0.3,1c0.2,0.3,0.5,0.7,0.7,1c0.6-0.5,1.1-0.8,1.8-1
			c1.1-0.3,2.3-0.3,3.3,0.3c0.8,0.6,1.6,1.1,2.3,1.8c0.2,0.2,0.5,0.3,0.7,0.5c1.1,0.5,2,1.1,3,1.9c0.7,0.7,1,1.5,1,2.4
			c0.1,0.9-0.1,1.8-0.6,2.6c0.6,0.2,1.1,0.3,1.7,0.6c0.1,0,0.1,0,0.2,0c0.7-0.2,1.5-0.3,2.2-0.6h0.1c0,0.1-0.1,0.1-0.1,0.1
			c-0.6,0.2-1.2,0.5-1.8,0.8c-0.1,0-0.2,0.1-0.3,0.2c-0.2,0.3-0.6,0.7-0.9,1.1c-0.1,0.1-0.1,0.1,0,0.2c0.5,0.2,0.8,0.5,1.1,0.8
			c0.9,0.9,1.4,2,1,3.3c-0.2,0.9-0.5,1.9-0.9,2.7c-0.1,0.1-0.1,0.3-0.1,0.5c0,0.5-0.1,0.9-0.2,1.2c-0.3,1-0.8,2.2-1.5,3.1
			c-0.7,0.9-1.6,1.6-2.7,1.7c-0.3,0-0.7,0-0.9,0c-0.1,0-0.2,0-0.1,0.1c0.1,0.7,0.1,1.5,0.2,2.2c0,0.1,0.1,0.1,0.1,0.2
			c0.3,0.5,0.6,0.9,0.9,1.4l0,0c-0.3-0.3-0.6-0.7-0.9-1c-0.1-0.1-0.1-0.1-0.2-0.2c-0.7-0.2-1.5-0.5-2.2-0.7c-0.1,0-0.2,0-0.2,0.1
			c-0.5,1.1-1.1,2-2.2,2.6c-0.6,0.3-1.1,0.3-1.7,0.3c-0.9,0-1.8,0-2.7-0.2c-0.2,0-0.3,0-0.6,0c-1.2,0.3-2.5,0.5-3.9,0.2
			c-1.8-0.2-2.8-1.4-3.3-3.1c-0.1-0.2-0.1-0.3-0.3-0.2s-0.5,0.1-0.7,0.2c-0.3,0.1-0.7,0.2-0.9,0.6C50.9,72,50.4,72.4,49.9,72.9
			C50.1,72.9,49.9,72.9,49.9,72.9z M68.1,68L68.1,68L68.1,68C68.1,68.1,68.1,68.1,68.1,68c0.6,0.8,1,1.6,1.5,2.4c0,0,0,0,0.1,0
			c-0.1-0.6-0.1-1.1-0.2-1.7c0,0,0-0.1-0.1-0.1C69,68.5,68.6,68.2,68.1,68L68.1,68z M46.6,54.3L46.6,54.3L46.6,54.3
			c0,0.2,0.2,0.3,0.3,0.5c0,0,0.1,0.1,0.1,0c0.1,0,0.3-0.1,0.5-0.2C47.2,54.5,47,54.4,46.6,54.3z M74.3,54.3
			c-0.5,0.2-0.9,0.3-1.5,0.6c0.3,0.1,0.6,0.1,0.8,0.2c0.1,0,0.1,0,0.2-0.1C74,54.8,74.2,54.6,74.3,54.3
			C74.4,54.3,74.4,54.3,74.3,54.3C74.4,54.3,74.4,54.3,74.3,54.3z M52.1,70.5c0.3,0,0.6-0.1,0.9-0.2c0.1,0,0.1,0,0.1-0.1
			c0-0.3,0-0.6,0-0.9c0,0,0,0-0.1,0C52.7,69.7,52.3,70.2,52.1,70.5C52,70.5,52,70.5,52.1,70.5C52,70.5,52.1,70.5,52.1,70.5z
			 M51.8,70.1c0.5-0.7,0.9-1.5,1.4-2.3c-0.5,0.2-0.8,0.5-1.2,0.6c-0.1,0-0.1,0.1-0.1,0.1C51.8,69.1,51.8,69.6,51.8,70.1
			C51.7,70.1,51.7,70.2,51.8,70.1C51.7,70.2,51.8,70.2,51.8,70.1z M69.4,70.9C69.5,71,69.5,71,69.4,70.9
			C69.5,70.9,69.5,70.9,69.4,70.9c-0.6-0.7-1-1.4-1.6-1.9c0,0,0,0-0.1,0c0.1,0.5,0,0.9-0.1,1.4c0,0.1,0,0.1,0.1,0.1
			C68.4,70.6,68.8,70.7,69.4,70.9z M63,73.1c0.5,0,1,0,1.5-0.1c0.8-0.2,1.4-0.7,1.7-1.4c0.7-1.1,1-2.3,0.5-3.5
			c-0.1-0.3-0.3-0.8-0.5-1.1c-0.1-0.2-0.1-0.5-0.2-0.7c0-0.1-0.1-0.2,0-0.3c0.1-0.1,0.2,0,0.3,0.1c0.2,0.1,0.6,0.3,0.8,0.5
			c0.6,0.5,1.1,0.8,1.7,1.1c0.5,0.2,0.8,0.5,1.4,0.5c1.1,0,1.9-0.5,2.6-1.2c0.9-1.1,1.4-2.5,1.5-4c0-0.3,0.1-0.7,0.2-1
			c0.3-0.6,0.6-1.2,0.8-1.9c0.2-0.6,0.3-1.1,0.2-1.7c-0.1-0.7-0.6-1.2-1.1-1.6c-0.7-0.6-1.6-0.9-2.5-0.9c-0.7,0-1.5,0-2.2-0.1
			c-0.1,0-0.3,0-0.5-0.1c0-0.1,0.1-0.2,0.2-0.3c0.6-0.5,1.1-0.9,1.7-1.4c0.9-0.7,1.4-1.6,1.4-2.7s-0.3-2-1.2-2.7
			c-0.6-0.5-1.1-0.8-1.7-1c-0.9-0.3-1.7-0.9-2.4-1.7c-0.3-0.3-0.8-0.7-1.2-1c-1.5-1-3.6-0.7-4.7,0.8c-0.5,0.7-0.8,1.6-1,2.4
			c-0.1,0.3-0.1,0.7-0.2,0.9c-0.1,0.1-0.2,0.2-0.2,0c-0.1-0.1-0.1-0.3-0.1-0.5c-0.1-0.7-0.3-1.4-0.7-2c-0.3-0.9-0.9-1.5-1.8-1.9
			c-1.1-0.6-2.3-0.6-3.3,0.2c-0.7,0.6-1.5,1.1-2,1.7c-0.2,0.3-0.6,0.6-1,0.7c-0.8,0.3-1.6,0.8-2.3,1.2c-0.5,0.3-0.8,0.8-1,1.2
			c-0.5,1.1-0.3,2.8,1,4c0.6,0.5,1.1,1,1.8,1.4c0.1,0.1,0.3,0.2,0.3,0.3c-0.1,0.2-0.3,0.1-0.5,0.1c-0.7-0.1-1.4-0.2-2.2-0.1
			c-0.7,0.1-1.2,0.1-1.8,0.6c-1.1,0.8-1.8,1.7-1.7,3.1c0,0.5,0.1,0.9,0.2,1.4c0.2,0.8,0.6,1.5,0.8,2.3c0.5,1,0.7,2.2,1,3.2
			c0.5,1.6,2.3,2.4,3.6,2.3c1.1-0.1,1.9-0.8,2.8-1.4c0.3-0.2,0.6-0.6,0.9-0.8c0.1,0,0.1-0.1,0.2-0.1s0,0.1,0,0.2
			c-0.1,0.3-0.2,0.7-0.3,1c-0.5,0.9-0.6,1.9-0.7,3c-0.1,1.7,1,3.1,2.7,3.3c1.2,0.1,2.4,0.1,3.6-0.2c0.2-0.1,0.6-0.1,0.8,0
			C61.6,73,62.2,73.1,63,73.1z M74.2,53.8L74.2,53.8c-0.3-0.2-0.8-0.3-1.1-0.5h-0.1c-0.2,0.3-0.6,0.6-0.8,0.9
			C72.8,54.1,73.5,54,74.2,53.8z M48.8,54.4c-0.2-0.3-0.6-0.6-0.8-0.9c0,0-0.1-0.1-0.1,0c-0.3,0.1-0.8,0.2-1.1,0.3l0,0
			C47.4,53.9,48.1,54.1,48.8,54.4z M60.2,43.9L60.2,43.9c-0.2,0.2-0.5,0.6-0.6,0.8c0,0.1,0,0.1,0,0.2c0.1,0.2,0.3,0.5,0.5,0.8
			C60.2,45.1,60.2,44.5,60.2,43.9z M60.9,45.5c0.2-0.2,0.3-0.5,0.5-0.7v-0.1c-0.2-0.2-0.3-0.6-0.6-0.8c0,0,0,0-0.1,0
			C60.7,44.5,60.7,44.9,60.9,45.5z"/>
		<path class="st2" d="M68.7,82.4c0-0.2,0.1-0.2,0.2-0.3c0.6-0.2,1.1-0.6,1.7-0.8c0.8-0.5,1.5-1,2.2-1.8c0,0,0-0.1,0.1-0.1
			c0.5-1.2,1.5-1.8,2.6-2.4c0.2-0.1,0.6-0.2,0.8-0.3c0.8-0.3,1.6-0.8,2.3-1.4c0.6-0.3,0.9-0.9,1.4-1.4c0.1-0.1,0.2-0.2,0.3-0.3
			c0.1-0.1,0.2,0,0.2,0.1c0,0.1,0,0.2-0.1,0.3c-0.3,0.8-0.8,1.5-1.5,2c-0.5,0.3-0.8,0.7-1.4,0.8c-1,0.3-1.9,0.8-2.7,1.5
			c-0.3,0.3-0.7,0.7-0.9,1c-1.2,1.5-2.8,2.4-4.7,3C69,82.4,68.8,82.4,68.7,82.4z"/>
		<path class="st2" d="M40.1,73.9c0.2,0.1,0.5,0.3,0.6,0.5c0.8,0.9,1.8,1.5,3,1.9c0.5,0.1,0.9,0.3,1.4,0.5c1,0.5,1.8,1.2,2.6,2
			c0.7,0.8,1.4,1.6,2.3,2.2c0.6,0.3,1.1,0.7,1.8,1c-0.3,0.1-0.6,0-0.8,0c-0.8-0.2-1.5-0.5-2.2-0.9c-0.2-0.1-0.3-0.2-0.5-0.5
			c-1-1.5-2.5-2.4-4-3.2c-0.2-0.1-0.6-0.3-0.8-0.5c-1.1-0.5-2-1.2-2.7-2.4C40.4,74.4,40.2,74.1,40.1,73.9z"/>
		<path class="st2" d="M54.4,34.1c0.7-0.6,1.5-0.7,2.3-0.8c0.8-0.1,1.5,0.1,2.2,0.2c1.4,0.5,2.8,0.3,4.2-0.1c1.1-0.3,2.3-0.3,3.4,0
			c0.5,0.1,0.8,0.2,1.1,0.3c0,0,0.1,0,0.1,0.1s-0.1,0.1-0.2,0c-0.5,0-1-0.1-1.5-0.1c-0.8-0.1-1.6-0.1-2.4,0.3
			c-1,0.5-2.2,0.7-3.4,0.6c-0.7,0-1.2-0.2-1.8-0.5c-0.7-0.3-1.5-0.3-2.3-0.2c-0.5,0-0.9,0.1-1.2,0.1C54.7,34.3,54.6,34.3,54.4,34.1z
			"/>
		<path class="st2" d="M39,44.4c0,0.5-0.2,0.9-0.3,1.2c-0.6,1.1-0.8,2.4-0.7,3.6c0.1,1.5-0.3,2.6-1.2,3.8c-0.3,0.5-0.8,0.9-0.9,1.6
			c-0.2,0.6-0.2,1.1-0.2,1.8c0,0.2-0.1,0.5-0.1,0.8c0,0.1,0,0.2-0.2,0.3c-0.1-0.5-0.2-0.9-0.2-1.2c-0.1-0.9,0.1-1.8,0.6-2.6
			c0.5-0.8,0.8-1.5,1.1-2.3c0.2-0.5,0.3-0.9,0.3-1.5c0-0.8,0.1-1.7,0.3-2.5c0.2-0.9,0.7-1.7,1.1-2.5C38.6,44.6,38.7,44.5,39,44.4z"
			/>
		<path class="st2" d="M80.5,44.8c0.1,0,0.2,0.1,0.3,0.1c1.4,0.8,2,1.9,2,3.5c0,1.2,0.2,2.4,0.8,3.5c0.3,0.8,0.8,1.5,1.1,2.3
			c0.3,0.7,0.6,1.4,0.7,2.2c0,0.3,0.1,0.7-0.1,1.1c-0.1-0.5-0.2-0.8-0.5-1.1c-0.1-0.5-0.2-0.8-0.5-1.2c-0.2-0.8-0.7-1.5-1.1-2
			c-0.7-0.9-1.1-1.8-1.1-3c0-0.8,0-1.7-0.2-2.5c-0.2-0.9-0.6-1.7-1.2-2.3C80.7,45.2,80.6,45.1,80.5,44.8z"/>
		<path class="st2" d="M71.1,72.7C71.2,72.8,71.2,72.8,71.1,72.7C71.1,72.8,71.1,72.8,71.1,72.7C71.1,72.8,71.1,72.7,71.1,72.7z"/>
		<path class="st2" d="M50.1,72.9C50.1,73,49.9,73,50.1,72.9C49.9,72.9,49.9,72.9,50.1,72.9C49.9,72.9,50.1,72.9,50.1,72.9z"/>
		<path class="st2" d="M87.7,67.4C87.8,67.4,87.8,67.4,87.7,67.4C87.8,67.4,87.8,67.4,87.7,67.4C87.8,67.4,87.8,67.4,87.7,67.4
			L87.7,67.4z"/>
		<path class="st2" d="M43.6,36.3C43.6,36.3,43.5,36.3,43.6,36.3L43.6,36.3L43.6,36.3L43.6,36.3z"/>
		<path class="st2" d="M43.6,36.2C43.5,36.2,43.5,36.2,43.6,36.2C43.5,36.2,43.5,36.2,43.6,36.2C43.5,36.2,43.5,36.2,43.6,36.2
			C43.5,36.2,43.6,36.2,43.6,36.2z"/>
		<path class="st2" d="M76.9,35.9C76.9,36,76.9,36,76.9,35.9C76.9,36,76.8,36,76.9,35.9C76.9,36,76.9,35.9,76.9,35.9L76.9,35.9z"/>
		<path class="st2" d="M76.9,35.9L76.9,35.9L76.9,35.9C77,35.9,77,35.9,76.9,35.9L76.9,35.9z"/>
		<path class="st2" d="M77,35.9C77,35.7,77,35.7,77,35.9L77,35.9L77,35.9z"/>
		<path class="st2" d="M33.7,67.2L33.7,67.2C33.6,67.2,33.6,67.2,33.7,67.2C33.6,67.2,33.7,67.2,33.7,67.2L33.7,67.2z"/>
		<path class="st3" d="M63,73.1c-0.8,0-1.4-0.1-2-0.3c-0.2-0.1-0.6,0-0.8,0c-1.1,0.3-2.4,0.3-3.6,0.2c-1.6-0.2-2.8-1.6-2.7-3.3
			c0.1-1,0.2-2,0.7-3c0.1-0.3,0.2-0.7,0.3-1c0-0.1,0.1-0.2,0-0.2s-0.1,0-0.2,0.1c-0.3,0.2-0.6,0.6-0.9,0.8c-0.8,0.8-1.7,1.4-2.8,1.5
			c-1.4,0.1-3.2-0.6-3.6-2.3c-0.3-1-0.6-2.2-1-3.2c-0.3-0.8-0.7-1.5-0.8-2.3c0-0.3-0.2-0.8-0.2-1.4c0-1.4,0.7-2.4,1.7-3.1
			c0.6-0.3,1.1-0.5,1.8-0.6s1.4,0,2.2,0.1c0.2,0,0.5,0.1,0.5-0.1c0.1-0.1-0.1-0.3-0.3-0.3c-0.7-0.3-1.2-0.9-1.8-1.4
			c-1.2-1.1-1.4-2.8-1-4c0.2-0.6,0.6-0.9,1-1.2c0.7-0.5,1.5-0.9,2.3-1.2c0.3-0.1,0.7-0.3,1-0.7c0.6-0.7,1.2-1.2,2-1.7
			c1-0.8,2.2-0.7,3.3-0.2c0.8,0.3,1.5,1,1.8,1.9c0.2,0.7,0.6,1.4,0.7,2c0,0.1,0.1,0.3,0.1,0.5c0.1,0.1,0.2,0.1,0.2,0
			c0.1-0.3,0.1-0.6,0.2-0.9c0.2-0.9,0.5-1.7,1-2.4c1-1.5,3.2-1.8,4.7-0.8c0.5,0.3,0.8,0.6,1.2,1c0.7,0.7,1.5,1.2,2.4,1.7
			c0.6,0.2,1.1,0.7,1.7,1c0.9,0.7,1.2,1.6,1.2,2.7s-0.5,2-1.4,2.7c-0.6,0.5-1.1,0.9-1.7,1.4c-0.1,0.1-0.3,0.2-0.2,0.3
			c0,0.1,0.2,0.1,0.5,0.1c0.7,0.1,1.5,0.1,2.2,0.1c0.9,0,1.7,0.3,2.5,0.9c0.6,0.5,0.9,0.9,1.1,1.6c0.1,0.6,0,1.1-0.2,1.7
			c-0.2,0.7-0.5,1.4-0.8,1.9c-0.1,0.3-0.2,0.7-0.2,1c-0.1,1.5-0.6,2.8-1.5,4c-0.7,0.8-1.6,1.2-2.6,1.2c-0.5,0-0.9-0.2-1.4-0.5
			c-0.6-0.3-1.2-0.7-1.7-1.1c-0.2-0.2-0.5-0.3-0.8-0.5c-0.1,0-0.2-0.1-0.3-0.1c-0.1,0.1-0.1,0.2,0,0.3c0,0.2,0.1,0.5,0.2,0.7
			c0.1,0.3,0.2,0.8,0.5,1.1c0.6,1.2,0.2,2.4-0.5,3.5c-0.5,0.7-1,1.1-1.7,1.4C64,73.1,63.5,73.1,63,73.1z M64.8,52.3L64.8,52.3
			c-0.7,0.8-1.4,1.5-1.9,2.2c-0.1,0.1-0.1,0.1-0.3,0.1c-1.5-0.8-3.1-0.8-4.5,0.1c-0.1,0.1-0.2,0.1-0.3,0c-0.6-0.7-1.2-1.2-1.8-1.9
			c0,0-0.1-0.1-0.2-0.1c0,0.1,0.1,0.1,0.1,0.1c0.6,0.7,1.1,1.4,1.7,2c0.1,0.1,0.1,0.2,0,0.3c-0.5,0.3-0.8,0.8-1.1,1.4
			c-0.5,0.9-0.6,1.8-0.5,2.8c0,0.1,0,0.2-0.1,0.3c-0.1,0-0.1,0.1-0.2,0.1c-0.8,0.3-1.6,0.8-2.4,1.1c0,0-0.1,0-0.2,0
			c0.1,0,0.1,0,0.1,0c0.1,0,0.1,0,0.2,0c0.8-0.3,1.7-0.6,2.5-0.9c0.1-0.1,0.2,0,0.2,0.1c0.7,1.8,2,2.8,3.9,3.1
			c0.2,0,0.2,0.1,0.2,0.2c0,1,0.1,1.9,0.1,3c0.1-0.7,0.1-1.5,0.1-2.2c0-0.3,0.1-0.6,0.1-0.9c0-0.1,0-0.1,0.1-0.1
			c2-0.2,3.4-1.2,4.1-3.1c0-0.1,0.1-0.1,0.2-0.1c0.8,0.3,1.6,0.6,2.4,0.9c0.1,0,0.1,0.1,0.2,0c-0.1,0-0.1-0.1-0.2-0.1
			c-0.8-0.3-1.6-0.8-2.4-1.1c-0.1,0-0.1-0.1-0.1-0.2c0.2-1.8-0.3-3.3-1.7-4.4c-0.1-0.1-0.1-0.2,0-0.3C63.8,53.9,64.3,53.1,64.8,52.3
			C64.8,52.4,64.9,52.3,64.8,52.3C64.8,52.3,64.9,52.3,64.8,52.3C64.9,52.3,64.9,52.3,64.8,52.3L64.8,52.3z M46.9,58.9
			c-0.1,0.1,0,0.2,0,0.3c0,0.7,0.2,1.4,0.7,1.9c0.6,0.8,0.7,1.7,0.8,2.6c0,0.7,0.5,1.2,1,1.7c0,0,0.1,0.1,0.2,0c0.1,0,0-0.1,0-0.2
			c-0.1-0.2-0.2-0.5-0.3-0.6c-0.2-0.5-0.5-0.9-0.5-1.4c0.1-0.8-0.1-1.5-0.6-2c-0.5-0.6-0.8-1.2-1-1.9C47.1,59.1,47,59,46.9,58.9z
			 M73.7,59c-0.2,0.1-0.2,0.3-0.2,0.6c-0.1,0.6-0.3,1.1-0.7,1.6c-0.1,0.1-0.2,0.2-0.2,0.3c-0.3,0.5-0.5,1-0.3,1.6
			c0,0.6,0,1.1-0.3,1.7c0,0.1-0.1,0.1-0.1,0.2c0,0.1,0,0.2,0.1,0.2c0.1,0,0.1-0.1,0.2-0.1c0.1-0.1,0.1-0.2,0.2-0.3
			c0.2-0.6,0.3-1,0.5-1.6c0.1-0.7,0.2-1.4,0.6-1.9c0.2-0.3,0.3-0.7,0.5-1C73.9,59.7,73.9,59.4,73.7,59z M57.6,71.3
			c0.1,0.1,0.2,0.2,0.3,0.2c0.5,0.1,1,0,1.5-0.1c0.9-0.2,1.7-0.3,2.6,0c0.7,0.2,1.2,0.1,1.9-0.1c0.1,0,0.2,0,0.1-0.2
			c0-0.1-0.1-0.1-0.2-0.1c-0.2,0-0.3,0-0.6,0.1c-0.3,0.1-0.6,0.1-0.9,0C62,71,61.8,71,61.4,70.9c-0.6-0.2-1.1-0.2-1.7,0
			c-0.5,0.1-0.9,0.2-1.4,0.3C58.2,71.2,57.9,71.2,57.6,71.3z M66,45.7c-0.1,0-0.2,0-0.2,0c0,0.1,0,0.1,0.1,0.2
			c0.1,0.1,0.2,0.1,0.3,0.2c0.6,0.3,1,0.7,1.4,1.2c0.2,0.3,0.5,0.6,0.9,0.7c0.2,0.1,0.6,0.2,0.8,0.3c0.6,0.2,1.1,0.3,1.5,0.8
			c0.1,0.1,0.1,0.1,0.2,0.2h0.1v-0.1c-0.3-0.5-0.6-0.9-1.1-1c-0.9-0.3-1.7-0.7-2.3-1.5c0,0,0-0.1-0.1-0.1
			C67.1,46.2,66.7,45.9,66,45.7z M54.9,45.7c0-0.1,0-0.1-0.2-0.1c-0.5,0.2-0.8,0.5-1,0.8c-0.5,0.6-1.1,1.1-1.8,1.4
			c-0.6,0.2-1,0.6-1.4,0.9c-0.1,0.1-0.2,0.3-0.3,0.5c0,0.1-0.1,0.1,0,0.2c0.1,0.1,0.1,0,0.2,0c0.1-0.1,0.2-0.2,0.3-0.3
			c0.3-0.5,0.8-0.7,1.4-0.9c0.2,0,0.3-0.1,0.6-0.1c0.3-0.1,0.6-0.2,0.8-0.6c0.5-0.6,0.8-1.2,1.4-1.7C54.9,46,54.9,45.9,54.9,45.7z"
			/>
		<path class="st4" d="M69.4,70.9c-0.6-0.1-1.1-0.3-1.7-0.5c-0.1,0-0.1,0-0.1-0.1c0.1-0.5,0.1-0.9,0.1-1.4c0,0,0,0,0.1,0
			C68.4,69.6,68.9,70.2,69.4,70.9C69.5,70.9,69.5,70.9,69.4,70.9z"/>
		<path class="st4" d="M68.2,68.1c0.5,0.2,0.8,0.5,1.2,0.6c0,0,0.1,0,0.1,0.1c0.1,0.6,0.1,1.1,0.2,1.7c0,0,0,0-0.1,0
			C69.2,69.7,68.7,68.9,68.2,68.1C68.1,68.1,68.2,68.1,68.2,68.1z"/>
		<path class="st4" d="M51.7,70.1c0-0.5,0-1,0.1-1.5c0-0.1,0-0.1,0.1-0.1c0.5-0.1,0.9-0.5,1.2-0.6C52.7,68.6,52.2,69.4,51.7,70.1
			C51.8,70.1,51.7,70.1,51.7,70.1z"/>
		<path class="st4" d="M74.2,53.8c-0.7,0.2-1.4,0.3-2,0.6c0.2-0.3,0.6-0.6,0.8-0.9c0-0.1,0.1,0,0.1,0C73.5,53.5,73.8,53.6,74.2,53.8
			L74.2,53.8z"/>
		<path class="st4" d="M48.8,54.4c-0.7-0.2-1.4-0.3-2-0.6l0,0c0.3-0.1,0.8-0.2,1.1-0.3c0.1,0,0.1,0,0.1,0
			C48.2,53.7,48.6,54,48.8,54.4z"/>
		<path class="st4" d="M52,70.5c0.3-0.5,0.7-0.8,1-1.2c0,0,0,0,0.1,0c0,0.3,0,0.6,0,0.9c0,0.1,0,0.1-0.1,0.1
			C52.7,70.4,52.3,70.5,52,70.5C52.1,70.5,52.1,70.5,52,70.5z"/>
		<path class="st4" d="M60.2,43.9c0,0.6-0.1,1.1-0.1,1.7c-0.2-0.3-0.3-0.6-0.5-0.8c0-0.1,0-0.1,0-0.2C59.8,44.4,60.1,44.1,60.2,43.9
			L60.2,43.9z"/>
		<path class="st4" d="M60.9,45.5c0-0.6-0.1-1.1-0.1-1.6c0,0,0,0,0.1,0c0.2,0.2,0.3,0.6,0.6,0.8v0.1C61.1,45.1,61,45.3,60.9,45.5z"
			/>
		<path class="st4" d="M74.4,54.4c-0.1,0.2-0.3,0.5-0.5,0.7c-0.1,0.1-0.1,0.1-0.2,0.1c-0.2-0.1-0.5-0.1-0.8-0.2
			C73.4,54.7,73.8,54.5,74.4,54.4C74.3,54.3,74.4,54.4,74.4,54.4z"/>
		<path class="st4" d="M46.6,54.3c0.3,0.1,0.6,0.2,0.9,0.3c-0.2,0.1-0.3,0.1-0.5,0.2c-0.1,0-0.1,0-0.1,0
			C46.9,54.6,46.6,54.5,46.6,54.3C46.6,54.4,46.6,54.3,46.6,54.3z"/>
		<path class="st4" d="M68.1,68L68.1,68C68.2,68.1,68.1,68.1,68.1,68C68.1,68.1,68.1,68.1,68.1,68L68.1,68z"/>
		<path class="st4" d="M51.8,70.1C51.8,70.2,51.7,70.2,51.8,70.1C51.7,70.2,51.7,70.1,51.8,70.1C51.7,70.1,51.8,70.1,51.8,70.1z"/>
		<path class="st4" d="M52.1,70.5C52.1,70.5,52,70.5,52.1,70.5C52,70.5,52,70.5,52.1,70.5L52.1,70.5z"/>
		<path class="st4" d="M69.5,70.9L69.5,70.9C69.5,71,69.5,71,69.5,70.9L69.5,70.9z"/>
		<path class="st4" d="M74.3,54.3C74.4,54.3,74.4,54.3,74.3,54.3C74.4,54.3,74.4,54.3,74.3,54.3C74.4,54.4,74.3,54.3,74.3,54.3z"/>
		<path class="st4" d="M46.6,54.4C46.6,54.3,46.6,54.3,46.6,54.4C46.6,54.3,46.6,54.3,46.6,54.4C46.6,54.3,46.6,54.4,46.6,54.4z"/>
		<path class="st4" d="M68.1,68L68.1,68L68.1,68L68.1,68z"/>
		<path class="st2" d="M53.1,60.9c0.8-0.3,1.6-0.8,2.4-1.1c0.1,0,0.1-0.1,0.2-0.1c0.1,0,0.2-0.1,0.1-0.3c-0.1-1,0-1.9,0.5-2.8
			c0.2-0.6,0.7-1,1.1-1.4c0.1-0.1,0.1-0.1,0-0.3c-0.6-0.7-1.1-1.4-1.7-2c0,0,0-0.1-0.1-0.1c0.1,0,0.1,0.1,0.2,0.1
			c0.6,0.7,1.2,1.2,1.8,1.9c0.1,0.1,0.2,0.1,0.3,0c1.5-0.8,3-0.8,4.5-0.1c0.1,0.1,0.2,0,0.3-0.1c0.6-0.7,1.2-1.4,1.8-2l0,0
			c-0.6,0.7-1,1.5-1.6,2.2c-0.1,0.1-0.1,0.2,0,0.3c1.4,1.1,1.9,2.6,1.7,4.4c0,0.1,0,0.2,0.1,0.2c0.8,0.3,1.6,0.8,2.4,1.1
			c0.1,0,0.1,0.1,0.2,0.1c-0.1,0-0.2,0-0.2,0c-0.8-0.3-1.6-0.6-2.4-0.9c-0.1,0-0.2,0-0.2,0.1c-0.7,1.9-2,3-4.1,3.1
			c-0.1,0-0.1,0-0.1,0.1c0,0.3-0.1,0.6-0.1,0.9c0,0.7-0.1,1.5-0.1,2.2c0-1-0.1-1.9-0.1-3c0-0.2,0-0.2-0.2-0.2
			c-1.9-0.2-3.2-1.2-3.9-3.1c-0.1-0.1-0.1-0.2-0.2-0.1c-0.8,0.3-1.7,0.6-2.5,0.9C53.4,60.9,53.2,60.9,53.1,60.9L53.1,60.9z
			 M60.5,62.7c2.3,0,4.1-1.8,4.1-4.1s-1.8-4.1-4.1-4.1c-2.3,0-4.1,1.8-4.1,4.1C56.3,60.9,58.2,62.7,60.5,62.7z"/>
		<path class="st2" d="M46.9,58.9c0.1,0.1,0.2,0.2,0.2,0.5c0.2,0.7,0.6,1.4,1,1.9c0.5,0.6,0.7,1.2,0.6,2c-0.1,0.6,0.2,0.9,0.5,1.4
			c0.1,0.2,0.2,0.3,0.3,0.6c0,0,0.1,0.1,0,0.2c-0.1,0-0.1,0-0.2,0c-0.5-0.5-0.9-1-1-1.7c-0.1-0.9-0.2-1.8-0.8-2.6
			c-0.3-0.6-0.6-1.2-0.7-1.9C46.9,59.1,46.8,59,46.9,58.9z"/>
		<path class="st2" d="M73.7,59c0.1,0.3,0.1,0.8,0,1.1c-0.1,0.3-0.2,0.7-0.5,1c-0.3,0.6-0.5,1.2-0.6,1.9c-0.1,0.6-0.1,1.1-0.5,1.6
			c-0.1,0.1-0.1,0.2-0.2,0.3c0,0.1-0.1,0.1-0.2,0.1c-0.1,0-0.1-0.1-0.1-0.2s0-0.1,0.1-0.2c0.2-0.6,0.3-1,0.3-1.7
			c0-0.6,0-1.1,0.3-1.6c0.1-0.1,0.2-0.2,0.2-0.3c0.3-0.5,0.6-1,0.7-1.6C73.6,59.4,73.6,59.1,73.7,59z"/>
		<path class="st2" d="M57.6,71.3c0.3-0.1,0.7-0.1,1-0.2c0.5,0,0.9-0.1,1.4-0.3c0.6-0.2,1.1-0.2,1.7,0c0.2,0.1,0.6,0.2,0.9,0.2
			c0.3,0.1,0.6,0.1,0.9,0c0.2-0.1,0.3-0.1,0.6-0.1c0.1,0,0.2,0,0.2,0.1s-0.1,0.1-0.1,0.2c-0.7,0.2-1.2,0.3-1.9,0.1
			c-0.9-0.3-1.8-0.2-2.6,0c-0.5,0.1-1,0.2-1.5,0.1C57.8,71.5,57.7,71.4,57.6,71.3z"/>
		<path class="st2" d="M66,45.7c0.7,0.1,1.2,0.5,1.6,0.9c0,0,0,0.1,0.1,0.1c0.6,0.8,1.4,1.2,2.3,1.5c0.6,0.2,0.9,0.6,1.1,1v0.1H71
			c-0.1,0-0.2-0.1-0.2-0.2c-0.3-0.5-0.9-0.7-1.5-0.8c-0.2-0.1-0.6-0.2-0.8-0.3c-0.3-0.1-0.7-0.3-0.9-0.7c-0.3-0.6-0.8-1-1.4-1.2
			C66.1,46,66,46,65.9,45.9c0,0-0.1-0.1-0.1-0.2C65.7,45.7,65.9,45.7,66,45.7z"/>
		<path class="st2" d="M54.9,45.7c0,0.1-0.1,0.1-0.1,0.2c-0.7,0.5-1,1-1.4,1.7c-0.2,0.3-0.5,0.5-0.8,0.6c-0.2,0.1-0.3,0.1-0.6,0.1
			c-0.6,0.1-1,0.5-1.4,0.9c-0.1,0.1-0.2,0.2-0.3,0.3c-0.1,0-0.1,0.1-0.2,0s0-0.1,0-0.2c0.1-0.2,0.2-0.3,0.3-0.5
			c0.3-0.5,0.8-0.7,1.4-0.9c0.8-0.3,1.4-0.8,1.8-1.4c0.3-0.3,0.7-0.7,1-0.8C54.9,45.6,54.9,45.7,54.9,45.7z"/>
		<path class="st2" d="M53.1,60.9c0,0.1-0.1,0-0.1,0C53.1,60.9,53.1,60.9,53.1,60.9L53.1,60.9z"/>
		<path class="st2" d="M64.8,52.3C64.9,52.3,64.8,52.4,64.8,52.3C64.8,52.4,64.8,52.4,64.8,52.3L64.8,52.3L64.8,52.3z"/>
		<path class="st2" d="M64.8,52.3L64.8,52.3C64.9,52.3,64.9,52.3,64.8,52.3C64.9,52.3,64.8,52.3,64.8,52.3L64.8,52.3z"/>
		<path class="st5" d="M60.5,62.7c-2.3,0-4.1-1.8-4.1-4.1s1.8-4.1,4.1-4.1c2.3,0,4.1,1.8,4.1,4.1S62.8,62.7,60.5,62.7z"/>
	</g>
</g>
<g id="N5KLAL.tif_1_">
	<g>
		<defs>
			<rect id="SVGID_1_" x="60.5" y="24.5" width="32.8" height="69"/>
		</defs>
		<clipPath id="SVGID_2_">
			<use xlink:href="#SVGID_1_"  style="overflow:visible;"/>
		</clipPath>
		<g class="st6">
			<path class="st2" d="M92.6,68c-2.6,0.6-5.2,1.1-7.7,1.7h-0.1c-0.2,0-0.2,0.1-0.1,0.2c0.2,0.7,0.5,1.4,0.6,2.2
				c0.3,2.6-0.6,4.7-2.5,6.2c-1.5,1.2-3.2,2-4.9,2.8c-0.6,0.2-1,0.6-1.5,1c-1.2,1.4-2.7,2.6-4.3,3.6c-1.5,1-3.2,1.1-4.9,0.8
				c-1-0.2-1.8-0.7-2.7-1.2c-0.1-0.1-0.1-0.1-0.2,0c-1.1,1.7-2.3,3.5-3.4,5.2c0,0,0,0,0,0.1l0,0c-0.6-1-1.1-2-1.8-3.2
				c-0.5-0.9-1-1.7-1.5-2.6c-0.5,0.3-1,0.7-1.6,0.9c-1.4,0.7-2.8,0.9-4.4,0.7c-1-0.1-1.8-0.7-2.6-1.2c-1.2-0.9-2.4-1.9-3.4-3.1
				c-0.5-0.5-1-0.8-1.6-1.1c-1.8-0.8-3.5-1.8-5.1-3.1c-1.2-1-1.9-2.3-2.3-3.9c-0.3-1.5-0.3-2.8,0.1-4.2c0-0.2,0-0.2-0.1-0.2
				c-1.9-0.5-4-0.9-5.9-1.4c0,0-0.1,0-0.2-0.1c0.7-0.8,1.2-1.7,1.9-2.5c0.6-0.8,1.1-1.5,1.8-2.3c0.2-0.3,0.2-0.3-0.1-0.6
				c-0.9-0.7-1.7-1.4-2.3-2.4c-0.8-1.2-0.9-2.6-0.5-4.1c0.5-1.7,1.1-3.3,1.9-4.8c0.1-0.3,0.2-0.7,0.2-1c0-2,0.6-4,1.2-5.9
				c0.6-1.5,1.4-2.8,2.5-4c1.1-1.1,2.5-1.8,4.1-1.8c0.3,0,0.3,0,0.3-0.3c-0.2-2-0.5-4-0.7-6c0-0.2-0.1-0.6-0.1-0.8
				c0.1,0,0.1,0,0.2,0.1c2.3,0.9,4.7,1.8,6.9,2.8c0.2,0.1,0.2,0,0.2-0.1c0.5-1.2,1-2.3,1.9-3.2c0.8-0.7,1.8-1,2.8-1.1
				c1.9-0.2,3.7-0.1,5.7,0.2c0.3,0.1,0.7,0.1,1,0.2c0.2,0.1,0.5,0,0.7,0c2-0.6,4.1-0.8,6.1-0.7c2.8,0.2,5.1,1.5,6.4,4.2
				c0.1,0.1,0.1,0.1,0.2,0.1c2-0.8,4.1-1.7,6.1-2.5c0.1,0,0.1-0.1,0.2-0.1c-0.3,2.5-0.8,5.1-1.1,7.6c0.1,0,0.3,0,0.5,0
				c1.6-0.1,3.1,0.2,4.5,0.9c1.4,0.7,2.3,1.7,2.7,3.2c0.5,1.6,0.8,3.2,1.2,4.8c0.3,1.4,0.8,2.6,1.4,3.9c0.7,1.4,1.1,2.7,1.4,4.3
				c0.2,2-0.1,4-1.4,5.6c-0.1,0.2-0.3,0.5-0.6,0.6c-0.1,0.1-0.1,0.1,0,0.2C89.5,64.5,91,66.2,92.6,68C92.4,67.9,92.4,67.9,92.6,68
				C92.6,67.9,92.6,67.9,92.6,68z M40.3,65.5h-0.1c-2,0.6-4.1,1.1-6.1,1.7c-0.1,0-0.1,0.1-0.2,0c1.8-0.8,3.6-1.5,5.3-2.3
				c-0.1,0-0.2-0.1-0.5-0.1c-1.4,0-2.7-0.3-3.9-1c-0.1-0.1-0.2-0.1-0.3,0.1c-0.6,0.8-1.2,1.6-1.8,2.3c-0.3,0.5-0.7,0.9-1.1,1.4
				c-0.1,0.1-0.1,0.2,0.1,0.2c0.2,0,0.6,0.1,0.8,0.2c1.4,0.3,2.7,0.7,4.1,1c0.1,0,0.2,0,0.2-0.1c0.3-0.7,0.9-1.2,1.4-1.7
				C38.9,66.5,39.6,66,40.3,65.5C40.3,65.5,40.4,65.5,40.3,65.5C40.3,65.4,40.3,65.4,40.3,65.5z M73.2,41.8c0.3-0.2,0.6-0.3,0.9-0.6
				c1-0.6,2-1.2,3.3-1.6c0.1,0,0.1-0.1,0.1-0.1c0-0.1,0-0.2,0-0.3c0.2-1.5,0.5-3,0.6-4.4c0-0.3,0.1-0.8,0.1-1.1h-0.1
				c-1.7,0.7-3.3,1.2-5,1.9c-0.1,0-0.1,0.1-0.1,0.2c0.1,1.1,0,2.3-0.2,3.5c-0.1,0.6-0.2,1-0.2,1.6l0,0c1.4-1.6,2.6-3.2,4-4.8
				c0,0.1,0,0.2-0.1,0.2c-0.6,1-1.2,1.9-1.8,3C74.3,39.9,73.8,40.9,73.2,41.8C73.2,41.6,73.2,41.8,73.2,41.8L73.2,41.8z M46.3,40.5
				C46.3,40.5,46.4,40.6,46.3,40.5C46.4,40.5,46.4,40.5,46.3,40.5c-0.5-0.8-1-1.6-1.6-2.4c-0.3-0.6-0.8-1.1-1.1-1.8l0,0
				c0.3,0.2,0.6,0.6,0.8,0.9c0.9,1,1.7,1.9,2.6,3c0.3,0.5,0.8,0.9,1.1,1.2c0-0.1,0-0.1,0-0.2c-0.1-0.6-0.5-1-0.6-1.6
				c-0.2-1.1-0.1-2.3,0.1-3.4c0.1-0.5,0.1-0.3-0.3-0.5c-1.4-0.6-2.7-1-4.1-1.6c-0.5-0.2-1-0.3-1.5-0.6c0,0.1,0,0.2,0,0.3
				c0,0.3,0.1,0.8,0.1,1.1c0.1,1.4,0.2,2.7,0.5,4c0,0.1,0.1,0.1,0.2,0.2c0.7,0.1,1.4,0.3,2.2,0.6C45.2,40.1,45.7,40.3,46.3,40.5z
				 M80.4,65.5C80.4,65.4,80.3,65.4,80.4,65.5C80.3,65.5,80.3,65.5,80.4,65.5c0.6,0.3,1,0.9,1.5,1.2c0.9,0.7,1.7,1.5,2.3,2.4
				c0.1,0.1,0.2,0.1,0.3,0.1c1.8-0.3,3.8-0.8,5.6-1.1c0.3-0.1,0.8-0.1,1.1-0.2c-1.4-1.5-2.6-3-4-4.4c-0.1-0.1-0.1-0.1-0.2,0
				c-1.4,0.8-2.8,1.2-4.3,1.4c-0.3,0-0.7,0.1-1,0.1c0.1,0,0.1,0.1,0.1,0.1c1.4,0.6,2.7,1.1,4.1,1.7c0.6,0.2,1.2,0.5,1.8,0.8l0,0
				c-0.1,0-0.1,0-0.2,0c-1.6-0.5-3.1-0.8-4.7-1.2C82.1,65.9,81.2,65.6,80.4,65.5z M43.5,63.9c-0.1,0.1-0.2,0.1-0.2,0.2
				c-0.8,0.7-1.7,1.4-2.6,1.9c-0.9,0.7-1.7,1.2-2.4,2.2c-0.3,0.5-0.8,0.9-0.9,1.5c-0.6,1.5-0.6,3-0.2,4.4c0.3,1.4,0.9,2.6,2.2,3.4
				c1.4,1.1,3,2,4.5,2.7c0.7,0.3,1.4,0.6,1.9,1.2c0.9,1,2,2,3.2,2.8c0.6,0.5,1.1,0.9,1.9,1.1c1.1,0.5,2.4,0.3,3.6,0
				c1.4-0.5,2.6-1,3.5-2.3c1-1.5,1.6-3.1,2-4.8c0.1-0.2,0.1-0.6,0.1-0.8c0.1-0.3,0.1-0.7,0.3-0.9c0.1-0.1,0.2-0.1,0.3,0
				c0.2,0.2,0.2,0.5,0.3,0.8c0.1,0.6,0.2,1.1,0.3,1.7c0.2,0.9,0.7,1.8,1,2.7c0.7,1.6,1.7,2.6,3.3,3.4c1.2,0.6,2.6,0.8,4,0.6
				c0.9-0.1,1.6-0.7,2.3-1.1c1.4-0.9,2.5-1.9,3.6-3.2c0.5-0.6,1-0.9,1.6-1.2c1.4-0.6,2.6-1.2,3.8-2c0.7-0.5,1.4-0.9,1.9-1.7
				c1-1.4,1.5-2.8,1.4-4.5c0-1.2-0.5-2.4-1.2-3.3c-1-1.1-2.2-2.2-3.5-3.1c-0.6-0.3-1.1-0.7-1.7-1.1c-0.1-0.1-0.2-0.2-0.2-0.5
				c0-0.1,0.2-0.1,0.3-0.2c0.7-0.1,1.2-0.1,1.9,0c1.9,0.1,3.8-0.1,5.6-0.8c2.4-0.9,4-2.7,3.8-5.6C89.2,56,88.7,54.5,88,53
				c-0.2-0.6-0.6-1.1-0.8-1.8c-0.6-1.8-1-3.6-1.5-5.3c-0.2-0.8-0.3-1.6-0.7-2.4c-0.6-1.4-1.6-2.2-2.8-2.8c-1.6-0.7-3.2-1-4.9-0.3
				c-1.5,0.6-2.8,1.4-4.1,2.4c-0.6,0.5-1.1,1-1.8,1.5c-0.2,0.1-0.5,0.3-0.7,0.3c-0.1,0.1-0.2,0-0.2-0.1c0-0.2,0-0.3,0.1-0.6
				c0.2-0.9,0.7-1.7,1-2.5c0.1-0.3,0.3-0.7,0.3-1c0.1-0.8,0.2-1.5,0.3-2.3s0.2-1.6,0-2.5c-0.6-3-2.8-4.9-5.8-4.9
				c-1.9,0-3.8,0.2-5.6,0.7c-0.5,0.1-0.9,0.1-1.2,0c-0.3-0.1-0.7-0.2-1-0.2c-1.7-0.2-3.4-0.5-5.1-0.2c-1.5,0.1-2.6,0.8-3.5,1.9
				c-0.6,0.8-1,1.6-1.4,2.6c-0.3,1.2-0.6,2.5-0.3,3.7c0.2,0.8,0.5,1.6,0.8,2.4c0.2,0.6,0.6,1.1,0.8,1.7c0.1,0.2,0.1,0.5,0.1,0.7
				c0,0.2-0.1,0.2-0.2,0.2c-0.2-0.1-0.5-0.2-0.6-0.3c-0.8-0.6-1.5-1.4-2.2-2c-0.2-0.2-0.5-0.3-0.7-0.6c-0.9-0.6-1.9-0.9-3.1-1.2
				c-0.8-0.2-1.7-0.3-2.5-0.2c-1.4,0.2-2.4,0.9-3.3,1.9c-1,1.1-1.7,2.5-2.3,3.9c-0.6,1.7-1.1,3.5-1.1,5.3c0,0.5-0.1,0.8-0.3,1.1
				c-0.8,1.5-1.4,3-1.8,4.5c-0.2,1-0.3,2,0.1,3c1,2.3,2.8,3.5,5.1,4c0.9,0.2,1.8,0.1,2.6,0.2c0.6,0,1.2,0,1.8-0.2
				c0.2-0.1,0.6-0.1,0.8-0.1C42.9,63.8,43.2,63.7,43.5,63.9z M60.1,80.6L60.1,80.6c-0.1,0.2-0.2,0.5-0.3,0.7c-0.5,1-0.9,2-1.7,3
				c-0.1,0.1,0,0.1,0,0.2c0.7,1.1,1.2,2.3,1.9,3.4c0.2,0.3,0.5,0.8,0.7,1.1c0.9-1.4,1.9-2.8,2.8-4.2c0.1-0.1,0-0.1,0-0.2
				c-0.2-0.2-0.5-0.5-0.7-0.7c-0.7-0.8-1-1.7-1.5-2.7c-0.1-0.3-0.2-0.6-0.3-0.9l0,0c-0.1,2.2-0.2,4.4-0.5,6.6l0,0
				C60.3,84.8,60.2,82.7,60.1,80.6z"/>
			<path class="st7" d="M43.5,63.9c-0.2-0.2-0.6-0.2-0.8-0.1c-0.2,0-0.6,0.1-0.8,0.1c-0.6,0.1-1.2,0.2-1.8,0.2c-0.9,0-1.8,0-2.6-0.2
				c-2.4-0.6-4.2-1.8-5.1-4c-0.5-1-0.3-2-0.1-3c0.5-1.6,1-3.1,1.8-4.5c0.2-0.3,0.3-0.8,0.3-1.1c0-1.8,0.5-3.6,1.1-5.3
				c0.5-1.4,1.2-2.7,2.3-3.9c0.9-1,1.9-1.7,3.3-1.9c0.9-0.1,1.7,0,2.5,0.2c1,0.3,2,0.7,3.1,1.2c0.2,0.1,0.5,0.3,0.7,0.6
				c0.7,0.7,1.4,1.4,2.2,2c0.2,0.1,0.3,0.2,0.6,0.3c0.1,0.1,0.2,0,0.2-0.2c0-0.2-0.1-0.5-0.1-0.7c-0.2-0.6-0.6-1.1-0.8-1.7
				c-0.3-0.8-0.7-1.6-0.8-2.4c-0.3-1.2-0.1-2.5,0.3-3.8c0.3-0.9,0.7-1.8,1.4-2.6c0.9-1.1,2-1.8,3.5-1.9c1.7-0.1,3.4,0,5.1,0.2
				c0.3,0.1,0.7,0.1,1,0.2c0.5,0.1,0.9,0.1,1.2,0c1.8-0.6,3.8-0.7,5.6-0.7c3,0,5.3,1.9,5.8,4.9c0.1,0.8,0.1,1.6,0,2.5
				c-0.1,0.8-0.2,1.5-0.3,2.3c-0.1,0.3-0.2,0.7-0.3,1c-0.3,0.8-0.8,1.6-1,2.5c-0.1,0.2-0.1,0.3-0.1,0.6c0,0.1,0.1,0.2,0.2,0.1
				c0.2-0.1,0.5-0.2,0.7-0.3c0.6-0.5,1.1-1,1.8-1.5c1.2-1,2.6-1.8,4.1-2.4c1.7-0.7,3.3-0.3,4.9,0.3c1.2,0.6,2.3,1.5,2.8,2.8
				c0.3,0.8,0.5,1.6,0.7,2.4c0.5,1.8,0.9,3.6,1.5,5.3c0.2,0.6,0.6,1.1,0.8,1.8c0.7,1.5,1.1,3,1.2,4.5c0.1,3-1.4,4.7-3.8,5.6
				c-1.8,0.7-3.6,0.9-5.6,0.8c-0.7,0-1.2-0.1-1.9,0c-0.1,0-0.3,0-0.3,0.2c0,0.1,0.1,0.3,0.2,0.5c0.5,0.5,1.1,0.8,1.7,1.1
				c1.4,0.8,2.5,1.8,3.5,3.1c0.8,0.9,1.2,2,1.2,3.3c0.1,1.7-0.3,3.2-1.4,4.5c-0.6,0.7-1.2,1.1-1.9,1.7c-1.1,0.8-2.4,1.5-3.8,2
				c-0.7,0.2-1.1,0.7-1.6,1.2c-1,1.2-2.3,2.3-3.6,3.2c-0.7,0.5-1.4,0.9-2.3,1.1c-1.4,0.2-2.7,0-4-0.6c-1.5-0.7-2.6-1.8-3.3-3.4
				c-0.3-0.9-0.8-1.7-1-2.7c-0.1-0.6-0.2-1.1-0.3-1.7c-0.1-0.2-0.1-0.6-0.3-0.8c-0.1-0.1-0.2-0.1-0.3,0c-0.2,0.2-0.3,0.6-0.3,0.9
				c-0.1,0.2-0.1,0.6-0.1,0.8c-0.5,1.7-1,3.4-2,4.8c-0.9,1.1-2,1.8-3.5,2.3c-1.2,0.3-2.4,0.3-3.6,0c-0.7-0.2-1.2-0.7-1.9-1.1
				C48,83.9,47,83,46,82c-0.6-0.6-1.2-0.9-1.9-1.2c-1.7-0.7-3.2-1.6-4.5-2.7c-1.1-0.9-1.8-2-2.2-3.4c-0.3-1.5-0.3-3,0.2-4.4
				c0.2-0.6,0.6-1,0.9-1.5c0.7-0.8,1.6-1.5,2.4-2.2c0.9-0.7,1.8-1.2,2.6-1.9C43.4,64.1,43.5,64,43.5,63.9z M71.1,72.8L71.1,72.8
				C71.2,72.8,71.2,72.8,71.1,72.8c-0.2-0.5-0.6-0.9-0.9-1.4c0-0.1-0.1-0.1-0.1-0.2c-0.1-0.7-0.1-1.5-0.2-2.2c0-0.1,0-0.1,0.1-0.1
				c0.3,0,0.7,0,0.9,0c1.1-0.2,2-0.8,2.7-1.7s1-1.9,1.5-3.1c0.1-0.5,0.2-0.8,0.2-1.2c0-0.1,0-0.3,0.1-0.5c0.5-0.9,0.7-1.8,0.9-2.7
				c0.3-1.4-0.1-2.4-1-3.3c-0.3-0.3-0.7-0.6-1.1-0.8c-0.1-0.1-0.1-0.1,0-0.2c0.3-0.3,0.6-0.7,0.9-1.1c0.1-0.1,0.2-0.2,0.3-0.2
				c0.7-0.2,1.2-0.5,1.8-0.8c0,0,0.1,0,0.1-0.1h-0.1c-0.7,0.2-1.5,0.3-2.2,0.6c-0.1,0-0.1,0.1-0.2,0c-0.6-0.2-1.1-0.3-1.7-0.6
				c0.5-0.8,0.7-1.7,0.6-2.6c-0.1-0.9-0.3-1.7-1-2.4c-0.9-0.8-1.8-1.5-3-1.9c-0.2-0.1-0.6-0.2-0.7-0.5c-0.7-0.7-1.5-1.2-2.3-1.8
				c-1-0.7-2.2-0.8-3.3-0.3c-0.7,0.2-1.2,0.6-1.8,1c-0.2-0.3-0.5-0.7-0.7-1c-0.2-0.3-0.3-0.6-0.3-1c0-0.2,0-0.5,0-0.7
				c0-0.5-0.1-0.8-0.1-1.2c-0.1,0.6-0.1,1.2-0.1,1.8c0,0.5-0.1,0.9-0.5,1.2c-0.1,0.2-0.3,0.3-0.5,0.6c-0.1,0.1-0.1,0.2-0.3,0
				c-0.5-0.5-1-0.8-1.7-1c-1.2-0.5-2.4-0.5-3.4,0.3c-0.8,0.6-1.5,1.1-2.2,1.8c-0.2,0.2-0.5,0.5-0.8,0.6c-0.8,0.3-1.5,0.8-2.3,1.2
				c-1.1,0.7-1.6,1.8-1.7,3.1c-0.1,0.9,0.1,1.8,0.6,2.6c-0.6,0.2-1.1,0.3-1.7,0.6c-0.1,0-0.2,0-0.2,0c-0.5-0.1-1-0.2-1.5-0.3
				c-0.3-0.1-0.6-0.1-0.9-0.2c0.6,0.2,1,0.5,1.6,0.7c0.7,0.2,1.2,0.6,1.6,1.2c0.1,0.1,0.1,0.2-0.1,0.3c-0.8,0.5-1.4,1-1.8,1.8
				c-0.3,0.7-0.6,1.4-0.5,2.2c0.1,0.6,0.2,1.2,0.3,1.8c0.2,0.7,0.6,1.4,0.8,2c0.3,0.9,0.6,1.8,0.9,2.8c0.2,0.7,0.6,1.4,1.1,1.8
				c1.1,0.9,2.4,1.2,3.8,1c0.1,0,0.1,0,0.1,0.1c0,0.7-0.1,1.4-0.1,2c0,0.1,0,0.2-0.1,0.3c-0.3,0.6-0.7,1.1-1.1,1.7l0,0l0,0
				c0.5-0.5,0.8-0.9,1.2-1.5c0.2-0.3,0.5-0.5,0.9-0.6c0.2,0,0.5-0.1,0.7-0.2s0.3,0,0.3,0.2c0.5,1.7,1.5,2.8,3.3,3.1
				c1.2,0.2,2.6,0.1,3.9-0.2c0.2,0,0.3-0.1,0.6,0c0.9,0.2,1.8,0.3,2.7,0.2c0.6,0,1.2-0.1,1.7-0.3c1.1-0.6,1.7-1.5,2.2-2.6
				c0-0.1,0.1-0.2,0.2-0.1c0.7,0.2,1.5,0.5,2.2,0.7c0.1,0,0.2,0.1,0.2,0.2C70.5,72.1,70.7,72.4,71.1,72.8z M68.7,82.4
				c0.2,0,0.3,0,0.6-0.1c1.8-0.6,3.4-1.4,4.7-3c0.3-0.3,0.6-0.8,0.9-1c0.8-0.7,1.8-1.1,2.7-1.5c0.6-0.2,0.9-0.5,1.4-0.8
				c0.7-0.6,1-1.4,1.5-2c0-0.1,0.1-0.2,0.1-0.3c0-0.1-0.1-0.2-0.2-0.1c-0.1,0.1-0.2,0.2-0.3,0.3c-0.5,0.5-0.8,1-1.4,1.4
				c-0.7,0.6-1.5,1-2.3,1.4c-0.2,0.1-0.6,0.2-0.8,0.3c-1.1,0.5-2.2,1.1-2.6,2.4c0,0,0,0.1-0.1,0.1c-0.6,0.7-1.2,1.4-2.2,1.8
				c-0.6,0.2-1.1,0.6-1.7,0.8C68.8,82.1,68.7,82.2,68.7,82.4z M40.1,73.9c0.1,0.3,0.3,0.6,0.5,0.8c0.7,1,1.5,1.9,2.7,2.4
				c0.3,0.1,0.6,0.2,0.8,0.5c1.6,0.8,3,1.7,4,3.2c0.1,0.2,0.3,0.3,0.5,0.5c0.7,0.5,1.4,0.8,2.2,0.9c0.2,0,0.6,0.1,0.8,0
				c-0.7-0.2-1.2-0.6-1.8-1c-0.9-0.6-1.6-1.4-2.3-2.2c-0.8-0.8-1.6-1.6-2.6-2c-0.5-0.2-0.9-0.3-1.4-0.5c-1.1-0.3-2.2-0.9-3-1.9
				C40.5,74.1,40.4,74,40.1,73.9z M54.4,34.1c0.2,0.1,0.3,0.1,0.5,0.1c0.5,0,0.9-0.1,1.2-0.1c0.8-0.1,1.5-0.1,2.3,0.2
				c0.6,0.2,1.1,0.3,1.8,0.5c1.1,0.1,2.3-0.1,3.4-0.6c0.8-0.3,1.6-0.3,2.4-0.3c0.5,0,1,0.1,1.5,0.1c0.1,0,0.1,0,0.2,0
				c0-0.1-0.1-0.1-0.1-0.1c-0.3-0.2-0.8-0.2-1.1-0.3c-1.1-0.3-2.3-0.3-3.4,0c-1.4,0.5-2.7,0.6-4.2,0.1c-0.7-0.2-1.4-0.3-2.2-0.2
				C55.9,33.4,55.1,33.6,54.4,34.1z M39,44.4c-0.2,0.1-0.3,0.2-0.5,0.5c-0.6,0.8-0.9,1.6-1.1,2.5c-0.2,0.8-0.2,1.6-0.3,2.5
				c0,0.6-0.1,1-0.3,1.5c-0.3,0.8-0.8,1.6-1.1,2.3c-0.5,0.8-0.7,1.7-0.6,2.6c0,0.5,0.1,0.9,0.2,1.2c0.1-0.1,0.1-0.2,0.2-0.3
				c0-0.2,0.1-0.5,0.1-0.8c0-0.6,0.1-1.1,0.2-1.8c0.2-0.6,0.6-1.1,0.9-1.6c0.9-1,1.4-2.3,1.2-3.8c0-1.2,0.2-2.5,0.7-3.6
				C38.8,45.3,38.9,44.8,39,44.4z M80.5,44.8c0,0.2,0.2,0.3,0.3,0.5c0.7,0.7,1,1.5,1.2,2.3s0.2,1.6,0.2,2.5c0,1.1,0.3,2.2,1.1,3
				c0.6,0.6,0.9,1.2,1.1,2c0.1,0.5,0.2,0.8,0.5,1.2c0.1,0.3,0.2,0.7,0.5,1.1c0.2-0.3,0.2-0.7,0.1-1.1c-0.1-0.8-0.3-1.5-0.7-2.2
				c-0.3-0.8-0.7-1.5-1.1-2.3c-0.6-1.1-0.8-2.3-0.8-3.5c0-1.6-0.8-2.7-2-3.5C80.7,44.8,80.6,44.8,80.5,44.8z"/>
			<path class="st4" d="M87.7,67.4c-0.6-0.3-1.2-0.6-1.8-0.8c-1.4-0.6-2.7-1.1-4.1-1.7c0,0-0.1,0-0.1-0.1c0.3,0,0.7-0.1,1-0.1
				c1.6-0.2,3.1-0.6,4.3-1.4c0.1-0.1,0.2,0,0.2,0c1.2,1.5,2.6,3,4,4.4c-0.5,0.1-0.8,0.1-1.1,0.2c-1.8,0.3-3.8,0.8-5.6,1.1
				c-0.1,0-0.2,0.1-0.3-0.1c-0.6-0.9-1.4-1.7-2.3-2.4c-0.5-0.5-1-0.9-1.5-1.2l0,0c0.8,0.2,1.7,0.5,2.5,0.7c1.6,0.5,3.1,0.8,4.7,1.2
				C87.6,67.4,87.7,67.4,87.7,67.4C87.8,67.4,87.8,67.4,87.7,67.4C87.8,67.4,87.8,67.4,87.7,67.4C87.8,67.4,87.8,67.4,87.7,67.4z"/>
			<path class="st4" d="M43.6,36.3c0.3,0.6,0.8,1.1,1.1,1.8c0.6,0.8,1,1.6,1.6,2.4l0,0c-0.6-0.2-1.1-0.6-1.7-0.7
				c-0.7-0.2-1.4-0.5-2.2-0.6c-0.1,0-0.1-0.1-0.2-0.2c-0.1-1.4-0.2-2.7-0.5-4c0-0.3-0.1-0.8-0.1-1.1c0-0.1,0-0.2,0-0.3
				c0.5,0.2,1,0.3,1.5,0.6c1.4,0.6,2.7,1,4.1,1.6c0.3,0.1,0.3,0,0.3,0.5c-0.2,1.1-0.3,2.3-0.1,3.4c0.1,0.6,0.3,1,0.6,1.6
				c0,0,0.1,0.1,0,0.2c-0.3-0.5-0.8-0.9-1.1-1.2c-0.9-1-1.7-1.9-2.6-3C44.1,36.9,43.9,36.5,43.6,36.3L43.6,36.3
				c-0.1-0.1-0.1-0.1-0.1-0.1S43.5,36.2,43.6,36.3C43.5,36.2,43.5,36.2,43.6,36.3C43.5,36.3,43.6,36.3,43.6,36.3z"/>
			<path class="st4" d="M73.2,41.6c0.6-0.8,1-1.7,1.6-2.5c0.6-1,1.2-1.9,1.8-3c0-0.1,0.1-0.1,0.1-0.2c-1.4,1.6-2.7,3.2-4,4.8l0,0
				c0.1-0.6,0.1-1,0.2-1.6c0.2-1.1,0.3-2.3,0.2-3.5c0-0.1,0-0.2,0.1-0.2c1.7-0.7,3.3-1.2,5-1.9c0,0,0,0,0.1,0c0,0.5-0.1,0.8-0.1,1.1
				c-0.2,1.5-0.5,3-0.6,4.4c0,0.1,0,0.2,0,0.3s0,0.1-0.1,0.1c-1.1,0.3-2.2,1-3.3,1.6C73.8,41.3,73.6,41.5,73.2,41.6L73.2,41.6z
				 M77,35.9C76.9,35.9,76.9,35.9,77,35.9C76.9,36,76.9,36,76.9,36l0,0C76.9,36,76.9,36,77,35.9L77,35.9L77,35.9
				C77,35.7,77,35.7,77,35.9z"/>
			<path class="st4" d="M40.3,65.5c-0.7,0.6-1.4,1-1.9,1.6c-0.6,0.6-1,1.1-1.4,1.7c-0.1,0.1-0.1,0.1-0.2,0.1c-1.4-0.3-2.7-0.7-4.1-1
				c-0.2-0.1-0.6-0.1-0.8-0.2c-0.2,0-0.2-0.1-0.1-0.2c0.3-0.5,0.7-0.9,1.1-1.4c0.6-0.8,1.2-1.5,1.8-2.3c0.1-0.1,0.1-0.1,0.3-0.1
				c1.2,0.7,2.5,1,3.9,1c0.1,0,0.2,0,0.5,0.1c-1.8,0.7-3.5,1.5-5.3,2.3c0.1,0,0.2,0,0.2,0c2-0.6,4.1-1.1,6.1-1.7
				C40.2,65.5,40.2,65.5,40.3,65.5L40.3,65.5z M33.7,67.2L33.7,67.2C33.7,67.2,33.6,67.2,33.7,67.2C33.6,67.2,33.6,67.2,33.7,67.2
				L33.7,67.2z"/>
			<path class="st4" d="M60.1,80.6c0.1,2,0.2,4.2,0.5,6.2l0,0c0.1-2.2,0.2-4.4,0.5-6.6l0,0c0.1,0.3,0.2,0.6,0.3,0.9
				c0.3,1,0.8,1.9,1.5,2.7c0.2,0.2,0.5,0.5,0.7,0.7c0.1,0.1,0.1,0.1,0,0.2c-0.9,1.4-1.8,2.7-2.8,4.2c-0.2-0.5-0.5-0.8-0.7-1.1
				c-0.7-1.1-1.2-2.3-1.9-3.4c0-0.1-0.1-0.1,0-0.2c0.8-0.8,1.2-1.8,1.7-3C59.8,81.1,59.9,80.9,60.1,80.6L60.1,80.6z"/>
			<path class="st4" d="M80.4,65.5C80.3,65.5,80.3,65.5,80.4,65.5C80.3,65.4,80.4,65.4,80.4,65.5L80.4,65.5z"/>
			<path class="st4" d="M40.3,65.5C40.3,65.4,40.3,65.4,40.3,65.5C40.4,65.5,40.3,65.5,40.3,65.5L40.3,65.5z"/>
			<path class="st4" d="M73.2,41.8L73.2,41.8C73.2,41.8,73.2,41.6,73.2,41.8C73.2,41.6,73.2,41.6,73.2,41.8z"/>
			<path class="st4" d="M46.3,40.5C46.4,40.5,46.4,40.5,46.3,40.5C46.4,40.6,46.3,40.5,46.3,40.5L46.3,40.5z"/>
			<path class="st2" d="M49.9,72.9c0.3-0.6,0.7-1.1,1.1-1.7c0.1-0.1,0.1-0.2,0.1-0.3c0-0.7,0.1-1.4,0.1-2c0-0.1,0-0.1-0.1-0.1
				c-1.4,0.1-2.6-0.1-3.8-1c-0.6-0.5-0.9-1.1-1.1-1.8c-0.2-0.9-0.6-1.9-0.9-2.8c-0.2-0.7-0.6-1.4-0.8-2c-0.1-0.6-0.3-1.2-0.3-1.8
				c-0.1-0.8,0.1-1.5,0.5-2.2c0.5-0.8,1-1.4,1.8-1.8c0.1-0.1,0.2-0.1,0.1-0.3c-0.3-0.6-0.9-1-1.6-1.2c-0.6-0.1-1-0.5-1.6-0.7
				c0.3,0.1,0.6,0.1,0.9,0.2c0.5,0.1,1,0.2,1.5,0.3c0.1,0,0.1,0,0.2,0c0.6-0.2,1.1-0.3,1.7-0.6c-0.5-0.8-0.6-1.7-0.6-2.6
				c0.1-1.2,0.6-2.4,1.7-3.1c0.7-0.5,1.5-0.9,2.3-1.2c0.3-0.1,0.6-0.3,0.8-0.6c0.7-0.7,1.4-1.2,2.2-1.8c1.1-0.8,2.3-0.8,3.4-0.3
				c0.7,0.2,1.2,0.6,1.7,1c0.1,0.1,0.2,0.1,0.3,0c0.1-0.2,0.2-0.5,0.5-0.6c0.3-0.3,0.5-0.8,0.5-1.2c0-0.6,0.1-1.2,0.1-1.8
				c0,0.5,0.1,0.8,0.1,1.2c0,0.2,0,0.5,0,0.7c0,0.3,0.1,0.7,0.3,1c0.2,0.3,0.5,0.7,0.7,1c0.6-0.5,1.1-0.8,1.8-1
				c1.1-0.3,2.3-0.3,3.3,0.3c0.8,0.6,1.6,1.1,2.3,1.8c0.2,0.2,0.5,0.3,0.7,0.5c1.1,0.5,2,1.1,3,1.9c0.7,0.7,1,1.5,1,2.4
				c0.1,0.9-0.1,1.8-0.6,2.6c0.6,0.2,1.1,0.3,1.7,0.6c0.1,0,0.1,0,0.2,0c0.7-0.2,1.5-0.3,2.2-0.6h0.1c0,0.1-0.1,0.1-0.1,0.1
				c-0.6,0.2-1.2,0.5-1.8,0.8c-0.1,0-0.2,0.1-0.3,0.2c-0.2,0.3-0.6,0.7-0.9,1.1c-0.1,0.1-0.1,0.1,0,0.2c0.5,0.2,0.8,0.5,1.1,0.8
				c0.9,0.9,1.4,2,1,3.3c-0.2,0.9-0.5,1.9-0.9,2.7c-0.1,0.1-0.1,0.3-0.1,0.5c0,0.5-0.1,0.9-0.2,1.2c-0.3,1-0.8,2.2-1.5,3.1
				c-0.7,0.9-1.6,1.6-2.7,1.7c-0.3,0-0.7,0-0.9,0c-0.1,0-0.2,0-0.1,0.1c0.1,0.7,0.1,1.5,0.2,2.2c0,0.1,0.1,0.1,0.1,0.2
				c0.3,0.5,0.6,0.9,0.9,1.4l0,0c-0.3-0.3-0.6-0.7-0.9-1c-0.1-0.1-0.1-0.1-0.2-0.2c-0.7-0.2-1.5-0.5-2.2-0.7c-0.1,0-0.2,0-0.2,0.1
				c-0.5,1.1-1.1,2-2.2,2.6c-0.6,0.3-1.1,0.3-1.7,0.3c-0.9,0-1.8,0-2.7-0.2c-0.2,0-0.3,0-0.6,0c-1.2,0.3-2.5,0.5-3.9,0.2
				c-1.8-0.2-2.8-1.4-3.3-3.1c-0.1-0.2-0.1-0.3-0.3-0.2s-0.5,0.1-0.7,0.2c-0.3,0.1-0.7,0.2-0.9,0.6C50.9,72,50.4,72.4,49.9,72.9
				C50.1,72.9,49.9,72.9,49.9,72.9z M68.1,68L68.1,68L68.1,68C68.1,68.1,68.1,68.1,68.1,68c0.6,0.8,1,1.6,1.5,2.4c0,0,0,0,0.1,0
				c-0.1-0.6-0.1-1.1-0.2-1.7c0,0,0-0.1-0.1-0.1C69,68.5,68.6,68.2,68.1,68L68.1,68z M46.6,54.3L46.6,54.3L46.6,54.3
				c0,0.2,0.2,0.3,0.3,0.5c0,0,0.1,0.1,0.1,0c0.1,0,0.3-0.1,0.5-0.2C47.2,54.5,47,54.4,46.6,54.3z M74.3,54.3
				c-0.5,0.2-0.9,0.3-1.5,0.6c0.3,0.1,0.6,0.1,0.8,0.2c0.1,0,0.1,0,0.2-0.1C74,54.8,74.2,54.6,74.3,54.3
				C74.4,54.3,74.4,54.3,74.3,54.3C74.4,54.3,74.4,54.3,74.3,54.3z M52.1,70.5c0.3,0,0.6-0.1,0.9-0.2c0.1,0,0.1,0,0.1-0.1
				c0-0.3,0-0.6,0-0.9c0,0,0,0-0.1,0C52.7,69.7,52.3,70.2,52.1,70.5C52,70.5,52,70.5,52.1,70.5C52,70.5,52.1,70.5,52.1,70.5z
				 M51.8,70.1c0.5-0.7,0.9-1.5,1.4-2.3c-0.5,0.2-0.8,0.5-1.2,0.6c-0.1,0-0.1,0.1-0.1,0.1C51.8,69.1,51.8,69.6,51.8,70.1
				C51.7,70.1,51.7,70.2,51.8,70.1C51.7,70.2,51.8,70.2,51.8,70.1z M69.4,70.9C69.5,71,69.5,71,69.4,70.9
				C69.5,70.9,69.5,70.9,69.4,70.9c-0.6-0.7-1-1.4-1.6-1.9c0,0,0,0-0.1,0c0.1,0.5,0,0.9-0.1,1.4c0,0.1,0,0.1,0.1,0.1
				C68.4,70.6,68.8,70.7,69.4,70.9z M63,73.1c0.5,0,1,0,1.5-0.1c0.8-0.2,1.4-0.7,1.7-1.4c0.7-1.1,1-2.3,0.5-3.5
				c-0.1-0.3-0.3-0.8-0.5-1.1c-0.1-0.2-0.1-0.5-0.2-0.7c0-0.1-0.1-0.2,0-0.3c0.1-0.1,0.2,0,0.3,0.1c0.2,0.1,0.6,0.3,0.8,0.5
				c0.6,0.5,1.1,0.8,1.7,1.1c0.5,0.2,0.8,0.5,1.4,0.5c1.1,0,1.9-0.5,2.6-1.2c0.9-1.1,1.4-2.5,1.5-4c0-0.3,0.1-0.7,0.2-1
				c0.3-0.6,0.6-1.2,0.8-1.9c0.2-0.6,0.3-1.1,0.2-1.7c-0.1-0.7-0.6-1.2-1.1-1.6c-0.7-0.6-1.6-0.9-2.5-0.9c-0.7,0-1.5,0-2.2-0.1
				c-0.1,0-0.3,0-0.5-0.1c0-0.1,0.1-0.2,0.2-0.3c0.6-0.5,1.1-0.9,1.7-1.4c0.9-0.7,1.4-1.6,1.4-2.7s-0.3-2-1.2-2.7
				c-0.6-0.5-1.1-0.8-1.7-1c-0.9-0.3-1.7-0.9-2.4-1.7c-0.3-0.3-0.8-0.7-1.2-1c-1.5-1-3.6-0.7-4.7,0.8c-0.5,0.7-0.8,1.6-1,2.4
				c-0.1,0.3-0.1,0.7-0.2,0.9c-0.1,0.1-0.2,0.2-0.2,0c-0.1-0.1-0.1-0.3-0.1-0.5c-0.1-0.7-0.3-1.4-0.7-2c-0.3-0.9-0.9-1.5-1.8-1.9
				c-1.1-0.6-2.3-0.6-3.3,0.2c-0.7,0.6-1.5,1.1-2,1.7c-0.2,0.3-0.6,0.6-1,0.7c-0.8,0.3-1.6,0.8-2.3,1.2c-0.5,0.3-0.8,0.8-1,1.2
				c-0.5,1.1-0.3,2.8,1,4c0.6,0.5,1.1,1,1.8,1.4c0.1,0.1,0.3,0.2,0.3,0.3c-0.1,0.2-0.3,0.1-0.5,0.1c-0.7-0.1-1.4-0.2-2.2-0.1
				c-0.7,0.1-1.2,0.1-1.8,0.6c-1.1,0.8-1.8,1.7-1.7,3.1c0,0.5,0.1,0.9,0.2,1.4c0.2,0.8,0.6,1.5,0.8,2.3c0.5,1,0.7,2.2,1,3.2
				c0.5,1.6,2.3,2.4,3.6,2.3c1.1-0.1,1.9-0.8,2.8-1.4c0.3-0.2,0.6-0.6,0.9-0.8c0.1,0,0.1-0.1,0.2-0.1s0,0.1,0,0.2
				c-0.1,0.3-0.2,0.7-0.3,1c-0.5,0.9-0.6,1.9-0.7,3c-0.1,1.7,1,3.1,2.7,3.3c1.2,0.1,2.4,0.1,3.6-0.2c0.2-0.1,0.6-0.1,0.8,0
				C61.6,73,62.2,73.1,63,73.1z M74.2,53.8L74.2,53.8c-0.3-0.2-0.8-0.3-1.1-0.5h-0.1c-0.2,0.3-0.6,0.6-0.8,0.9
				C72.8,54.1,73.5,54,74.2,53.8z M48.8,54.4c-0.2-0.3-0.6-0.6-0.8-0.9c0,0-0.1-0.1-0.1,0c-0.3,0.1-0.8,0.2-1.1,0.3l0,0
				C47.4,53.9,48.1,54.1,48.8,54.4z M60.2,43.9L60.2,43.9c-0.2,0.2-0.5,0.6-0.6,0.8c0,0.1,0,0.1,0,0.2c0.1,0.2,0.3,0.5,0.5,0.8
				C60.2,45.1,60.2,44.5,60.2,43.9z M60.9,45.5c0.2-0.2,0.3-0.5,0.5-0.7v-0.1c-0.2-0.2-0.3-0.6-0.6-0.8c0,0,0,0-0.1,0
				C60.7,44.5,60.7,44.9,60.9,45.5z"/>
			<path class="st2" d="M68.7,82.4c0-0.2,0.1-0.2,0.2-0.3c0.6-0.2,1.1-0.6,1.7-0.8c0.8-0.5,1.5-1,2.2-1.8c0,0,0-0.1,0.1-0.1
				c0.5-1.2,1.5-1.8,2.6-2.4c0.2-0.1,0.6-0.2,0.8-0.3c0.8-0.3,1.6-0.8,2.3-1.4c0.6-0.3,0.9-0.9,1.4-1.4c0.1-0.1,0.2-0.2,0.3-0.3
				c0.1-0.1,0.2,0,0.2,0.1c0,0.1,0,0.2-0.1,0.3c-0.3,0.8-0.8,1.5-1.5,2c-0.5,0.3-0.8,0.7-1.4,0.8c-1,0.3-1.9,0.8-2.7,1.5
				c-0.3,0.3-0.7,0.7-0.9,1c-1.2,1.5-2.8,2.4-4.7,3C69,82.4,68.8,82.4,68.7,82.4z"/>
			<path class="st2" d="M40.1,73.9c0.2,0.1,0.5,0.3,0.6,0.5c0.8,0.9,1.8,1.5,3,1.9c0.5,0.1,0.9,0.3,1.4,0.5c1,0.5,1.8,1.2,2.6,2
				c0.7,0.8,1.4,1.6,2.3,2.2c0.6,0.3,1.1,0.7,1.8,1c-0.3,0.1-0.6,0-0.8,0c-0.8-0.2-1.5-0.5-2.2-0.9c-0.2-0.1-0.3-0.2-0.5-0.5
				c-1-1.5-2.5-2.4-4-3.2c-0.2-0.1-0.6-0.3-0.8-0.5c-1.1-0.5-2-1.2-2.7-2.4C40.4,74.4,40.2,74.1,40.1,73.9z"/>
			<path class="st2" d="M54.4,34.1c0.7-0.6,1.5-0.7,2.3-0.8c0.8-0.1,1.5,0.1,2.2,0.2c1.4,0.5,2.8,0.3,4.2-0.1c1.1-0.3,2.3-0.3,3.4,0
				c0.5,0.1,0.8,0.2,1.1,0.3c0,0,0.1,0,0.1,0.1s-0.1,0.1-0.2,0c-0.5,0-1-0.1-1.5-0.1c-0.8-0.1-1.6-0.1-2.4,0.3
				c-1,0.5-2.2,0.7-3.4,0.6c-0.7,0-1.2-0.2-1.8-0.5c-0.7-0.3-1.5-0.3-2.3-0.2c-0.5,0-0.9,0.1-1.2,0.1C54.7,34.3,54.6,34.3,54.4,34.1
				z"/>
			<path class="st2" d="M39,44.4c0,0.5-0.2,0.9-0.3,1.2c-0.6,1.1-0.8,2.4-0.7,3.6c0.1,1.5-0.3,2.6-1.2,3.8c-0.3,0.5-0.8,0.9-0.9,1.6
				c-0.2,0.6-0.2,1.1-0.2,1.8c0,0.2-0.1,0.5-0.1,0.8c0,0.1,0,0.2-0.2,0.3c-0.1-0.5-0.2-0.9-0.2-1.2c-0.1-0.9,0.1-1.8,0.6-2.6
				c0.5-0.8,0.8-1.5,1.1-2.3c0.2-0.5,0.3-0.9,0.3-1.5c0-0.8,0.1-1.7,0.3-2.5c0.2-0.9,0.7-1.7,1.1-2.5C38.6,44.6,38.7,44.5,39,44.4z"
				/>
			<path class="st2" d="M80.5,44.8c0.1,0,0.2,0.1,0.3,0.1c1.4,0.8,2,1.9,2,3.5c0,1.2,0.2,2.4,0.8,3.5c0.3,0.8,0.8,1.5,1.1,2.3
				c0.3,0.7,0.6,1.4,0.7,2.2c0,0.3,0.1,0.7-0.1,1.1c-0.1-0.5-0.2-0.8-0.5-1.1c-0.1-0.5-0.2-0.8-0.5-1.2c-0.2-0.8-0.7-1.5-1.1-2
				c-0.7-0.9-1.1-1.8-1.1-3c0-0.8,0-1.7-0.2-2.5c-0.2-0.9-0.6-1.7-1.2-2.3C80.7,45.2,80.6,45.1,80.5,44.8z"/>
			<path class="st2" d="M71.1,72.7C71.2,72.8,71.2,72.8,71.1,72.7C71.1,72.8,71.1,72.8,71.1,72.7C71.1,72.8,71.1,72.7,71.1,72.7z"/>
			<path class="st2" d="M50.1,72.9C50.1,73,49.9,73,50.1,72.9C49.9,72.9,49.9,72.9,50.1,72.9C49.9,72.9,50.1,72.9,50.1,72.9z"/>
			<path class="st2" d="M87.7,67.4C87.8,67.4,87.8,67.4,87.7,67.4C87.8,67.4,87.8,67.4,87.7,67.4C87.8,67.4,87.8,67.4,87.7,67.4
				L87.7,67.4z"/>
			<path class="st2" d="M43.6,36.3C43.6,36.3,43.5,36.3,43.6,36.3L43.6,36.3L43.6,36.3L43.6,36.3z"/>
			<path class="st2" d="M43.6,36.2C43.5,36.2,43.5,36.2,43.6,36.2C43.5,36.2,43.5,36.2,43.6,36.2C43.5,36.2,43.5,36.2,43.6,36.2
				C43.5,36.2,43.6,36.2,43.6,36.2z"/>
			<path class="st2" d="M76.9,35.9C76.9,36,76.9,36,76.9,35.9C76.9,36,76.8,36,76.9,35.9C76.9,36,76.9,35.9,76.9,35.9L76.9,35.9z"/>
			<path class="st2" d="M76.9,35.9L76.9,35.9L76.9,35.9C77,35.9,77,35.9,76.9,35.9L76.9,35.9z"/>
			<path class="st2" d="M77,35.9C77,35.7,77,35.7,77,35.9L77,35.9L77,35.9z"/>
			<path class="st2" d="M33.7,67.2L33.7,67.2C33.6,67.2,33.6,67.2,33.7,67.2C33.6,67.2,33.7,67.2,33.7,67.2L33.7,67.2z"/>
			<path class="st7" d="M63,73.1c-0.8,0-1.4-0.1-2-0.3c-0.2-0.1-0.6,0-0.8,0c-1.1,0.3-2.4,0.3-3.6,0.2c-1.6-0.2-2.8-1.6-2.7-3.3
				c0.1-1,0.2-2,0.7-3c0.1-0.3,0.2-0.7,0.3-1c0-0.1,0.1-0.2,0-0.2s-0.1,0-0.2,0.1c-0.3,0.2-0.6,0.6-0.9,0.8
				c-0.8,0.8-1.7,1.4-2.8,1.5c-1.4,0.1-3.2-0.6-3.6-2.3c-0.3-1-0.6-2.2-1-3.2c-0.3-0.8-0.7-1.5-0.8-2.3c0-0.3-0.2-0.8-0.2-1.4
				c0-1.4,0.7-2.4,1.7-3.1c0.6-0.3,1.1-0.5,1.8-0.6s1.4,0,2.2,0.1c0.2,0,0.5,0.1,0.5-0.1c0.1-0.1-0.1-0.3-0.3-0.3
				c-0.7-0.3-1.2-0.9-1.8-1.4c-1.2-1.1-1.4-2.8-1-4c0.2-0.6,0.6-0.9,1-1.2c0.7-0.5,1.5-0.9,2.3-1.2c0.3-0.1,0.7-0.3,1-0.7
				c0.6-0.7,1.2-1.2,2-1.7c1-0.8,2.2-0.7,3.3-0.2c0.8,0.3,1.5,1,1.8,1.9c0.2,0.7,0.6,1.4,0.7,2c0,0.1,0.1,0.3,0.1,0.5
				c0.1,0.1,0.2,0.1,0.2,0c0.1-0.3,0.1-0.6,0.2-0.9c0.2-0.9,0.5-1.7,1-2.4c1-1.5,3.2-1.8,4.7-0.8c0.5,0.3,0.8,0.6,1.2,1
				c0.7,0.7,1.5,1.2,2.4,1.7c0.6,0.2,1.1,0.7,1.7,1c0.9,0.7,1.2,1.6,1.2,2.7s-0.5,2-1.4,2.7c-0.6,0.5-1.1,0.9-1.7,1.4
				c-0.1,0.1-0.3,0.2-0.2,0.3c0,0.1,0.2,0.1,0.5,0.1c0.7,0.1,1.5,0.1,2.2,0.1c0.9,0,1.7,0.3,2.5,0.9c0.6,0.5,0.9,0.9,1.1,1.6
				c0.1,0.6,0,1.1-0.2,1.7c-0.2,0.7-0.5,1.4-0.8,1.9c-0.1,0.3-0.2,0.7-0.2,1c-0.1,1.5-0.6,2.8-1.5,4c-0.7,0.8-1.6,1.2-2.6,1.2
				c-0.5,0-0.9-0.2-1.4-0.5c-0.6-0.3-1.2-0.7-1.7-1.1c-0.2-0.2-0.5-0.3-0.8-0.5c-0.1,0-0.2-0.1-0.3-0.1c-0.1,0.1-0.1,0.2,0,0.3
				c0,0.2,0.1,0.5,0.2,0.7c0.1,0.3,0.2,0.8,0.5,1.1c0.6,1.2,0.2,2.4-0.5,3.5c-0.5,0.7-1,1.1-1.7,1.4C64,73.1,63.5,73.1,63,73.1z
				 M64.8,52.3L64.8,52.3c-0.7,0.8-1.4,1.5-1.9,2.2c-0.1,0.1-0.1,0.1-0.3,0.1c-1.5-0.8-3.1-0.8-4.5,0.1c-0.1,0.1-0.2,0.1-0.3,0
				c-0.6-0.7-1.2-1.2-1.8-1.9c0,0-0.1-0.1-0.2-0.1c0,0.1,0.1,0.1,0.1,0.1c0.6,0.7,1.1,1.4,1.7,2c0.1,0.1,0.1,0.2,0,0.3
				c-0.5,0.3-0.8,0.8-1.1,1.4c-0.5,0.9-0.6,1.8-0.5,2.8c0,0.1,0,0.2-0.1,0.3c-0.1,0-0.1,0.1-0.2,0.1c-0.8,0.3-1.6,0.8-2.4,1.1
				c0,0-0.1,0-0.2,0c0.1,0,0.1,0,0.1,0c0.1,0,0.1,0,0.2,0c0.8-0.3,1.7-0.6,2.5-0.9c0.1-0.1,0.2,0,0.2,0.1c0.7,1.8,2,2.8,3.9,3.1
				c0.2,0,0.2,0.1,0.2,0.2c0,1,0.1,1.9,0.1,3c0.1-0.7,0.1-1.5,0.1-2.2c0-0.3,0.1-0.6,0.1-0.9c0-0.1,0-0.1,0.1-0.1
				c2-0.2,3.4-1.2,4.1-3.1c0-0.1,0.1-0.1,0.2-0.1c0.8,0.3,1.6,0.6,2.4,0.9c0.1,0,0.1,0.1,0.2,0c-0.1,0-0.1-0.1-0.2-0.1
				c-0.8-0.3-1.6-0.8-2.4-1.1c-0.1,0-0.1-0.1-0.1-0.2c0.2-1.8-0.3-3.3-1.7-4.4c-0.1-0.1-0.1-0.2,0-0.3
				C63.8,53.9,64.3,53.1,64.8,52.3C64.8,52.4,64.9,52.3,64.8,52.3C64.8,52.3,64.9,52.3,64.8,52.3C64.9,52.3,64.9,52.3,64.8,52.3
				L64.8,52.3z M46.9,58.9c-0.1,0.1,0,0.2,0,0.3c0,0.7,0.2,1.4,0.7,1.9c0.6,0.8,0.7,1.7,0.8,2.6c0,0.7,0.5,1.2,1,1.7
				c0,0,0.1,0.1,0.2,0c0.1,0,0-0.1,0-0.2c-0.1-0.2-0.2-0.5-0.3-0.6c-0.2-0.5-0.5-0.9-0.5-1.4c0.1-0.8-0.1-1.5-0.6-2
				c-0.5-0.6-0.8-1.2-1-1.9C47.1,59.1,47,59,46.9,58.9z M73.7,59c-0.2,0.1-0.2,0.3-0.2,0.6c-0.1,0.6-0.3,1.1-0.7,1.6
				c-0.1,0.1-0.2,0.2-0.2,0.3c-0.3,0.5-0.5,1-0.3,1.6c0,0.6,0,1.1-0.3,1.7c0,0.1-0.1,0.1-0.1,0.2c0,0.1,0,0.2,0.1,0.2
				c0.1,0,0.1-0.1,0.2-0.1c0.1-0.1,0.1-0.2,0.2-0.3c0.2-0.6,0.3-1,0.5-1.6c0.1-0.7,0.2-1.4,0.6-1.9c0.2-0.3,0.3-0.7,0.5-1
				C73.9,59.7,73.9,59.4,73.7,59z M57.6,71.3c0.1,0.1,0.2,0.2,0.3,0.2c0.5,0.1,1,0,1.5-0.1c0.9-0.2,1.7-0.3,2.6,0
				c0.7,0.2,1.2,0.1,1.9-0.1c0.1,0,0.2,0,0.1-0.2c0-0.1-0.1-0.1-0.2-0.1c-0.2,0-0.3,0-0.6,0.1c-0.3,0.1-0.6,0.1-0.9,0
				C62,71,61.8,71,61.4,70.9c-0.6-0.2-1.1-0.2-1.7,0c-0.5,0.1-0.9,0.2-1.4,0.3C58.2,71.2,57.9,71.2,57.6,71.3z M66,45.7
				c-0.1,0-0.2,0-0.2,0c0,0.1,0,0.1,0.1,0.2c0.1,0.1,0.2,0.1,0.3,0.2c0.6,0.3,1,0.7,1.4,1.2c0.2,0.3,0.5,0.6,0.9,0.7
				c0.2,0.1,0.6,0.2,0.8,0.3c0.6,0.2,1.1,0.3,1.5,0.8c0.1,0.1,0.1,0.1,0.2,0.2h0.1v-0.1c-0.3-0.5-0.6-0.9-1.1-1
				c-0.9-0.3-1.7-0.7-2.3-1.5c0,0,0-0.1-0.1-0.1C67.1,46.2,66.7,45.9,66,45.7z M54.9,45.7c0-0.1,0-0.1-0.2-0.1
				c-0.5,0.2-0.8,0.5-1,0.8c-0.5,0.6-1.1,1.1-1.8,1.4c-0.6,0.2-1,0.6-1.4,0.9c-0.1,0.1-0.2,0.3-0.3,0.5c0,0.1-0.1,0.1,0,0.2
				c0.1,0.1,0.1,0,0.2,0c0.1-0.1,0.2-0.2,0.3-0.3c0.3-0.5,0.8-0.7,1.4-0.9c0.2,0,0.3-0.1,0.6-0.1c0.3-0.1,0.6-0.2,0.8-0.6
				c0.5-0.6,0.8-1.2,1.4-1.7C54.9,46,54.9,45.9,54.9,45.7z"/>
			<path class="st4" d="M69.4,70.9c-0.6-0.1-1.1-0.3-1.7-0.5c-0.1,0-0.1,0-0.1-0.1c0.1-0.5,0.1-0.9,0.1-1.4c0,0,0,0,0.1,0
				C68.4,69.6,68.9,70.2,69.4,70.9C69.5,70.9,69.5,70.9,69.4,70.9z"/>
			<path class="st4" d="M68.2,68.1c0.5,0.2,0.8,0.5,1.2,0.6c0,0,0.1,0,0.1,0.1c0.1,0.6,0.1,1.1,0.2,1.7c0,0,0,0-0.1,0
				C69.2,69.7,68.7,68.9,68.2,68.1C68.1,68.1,68.2,68.1,68.2,68.1z"/>
			<path class="st4" d="M51.7,70.1c0-0.5,0-1,0.1-1.5c0-0.1,0-0.1,0.1-0.1c0.5-0.1,0.9-0.5,1.2-0.6C52.7,68.6,52.2,69.4,51.7,70.1
				C51.8,70.1,51.7,70.1,51.7,70.1z"/>
			<path class="st4" d="M74.2,53.8c-0.7,0.2-1.4,0.3-2,0.6c0.2-0.3,0.6-0.6,0.8-0.9c0-0.1,0.1,0,0.1,0
				C73.5,53.5,73.8,53.6,74.2,53.8L74.2,53.8z"/>
			<path class="st4" d="M48.8,54.4c-0.7-0.2-1.4-0.3-2-0.6l0,0c0.3-0.1,0.8-0.2,1.1-0.3c0.1,0,0.1,0,0.1,0
				C48.2,53.7,48.6,54,48.8,54.4z"/>
			<path class="st4" d="M52,70.5c0.3-0.5,0.7-0.8,1-1.2c0,0,0,0,0.1,0c0,0.3,0,0.6,0,0.9c0,0.1,0,0.1-0.1,0.1
				C52.7,70.4,52.3,70.5,52,70.5C52.1,70.5,52.1,70.5,52,70.5z"/>
			<path class="st4" d="M60.2,43.9c0,0.6-0.1,1.1-0.1,1.7c-0.2-0.3-0.3-0.6-0.5-0.8c0-0.1,0-0.1,0-0.2
				C59.8,44.4,60.1,44.1,60.2,43.9L60.2,43.9z"/>
			<path class="st4" d="M60.9,45.5c0-0.6-0.1-1.1-0.1-1.6c0,0,0,0,0.1,0c0.2,0.2,0.3,0.6,0.6,0.8v0.1C61.1,45.1,61,45.3,60.9,45.5z"
				/>
			<path class="st4" d="M74.4,54.4c-0.1,0.2-0.3,0.5-0.5,0.7c-0.1,0.1-0.1,0.1-0.2,0.1c-0.2-0.1-0.5-0.1-0.8-0.2
				C73.4,54.7,73.8,54.5,74.4,54.4C74.3,54.3,74.4,54.4,74.4,54.4z"/>
			<path class="st4" d="M46.6,54.3c0.3,0.1,0.6,0.2,0.9,0.3c-0.2,0.1-0.3,0.1-0.5,0.2c-0.1,0-0.1,0-0.1,0
				C46.9,54.6,46.6,54.5,46.6,54.3C46.6,54.4,46.6,54.3,46.6,54.3z"/>
			<path class="st4" d="M68.1,68L68.1,68C68.2,68.1,68.1,68.1,68.1,68C68.1,68.1,68.1,68.1,68.1,68L68.1,68z"/>
			<path class="st4" d="M51.8,70.1C51.8,70.2,51.7,70.2,51.8,70.1C51.7,70.2,51.7,70.1,51.8,70.1C51.7,70.1,51.8,70.1,51.8,70.1z"/>
			<path class="st4" d="M52.1,70.5C52.1,70.5,52,70.5,52.1,70.5C52,70.5,52,70.5,52.1,70.5L52.1,70.5z"/>
			<path class="st4" d="M69.5,70.9L69.5,70.9C69.5,71,69.5,71,69.5,70.9L69.5,70.9z"/>
			<path class="st4" d="M74.3,54.3C74.4,54.3,74.4,54.3,74.3,54.3C74.4,54.3,74.4,54.3,74.3,54.3C74.4,54.4,74.3,54.3,74.3,54.3z"/>
			<path class="st4" d="M46.6,54.4C46.6,54.3,46.6,54.3,46.6,54.4C46.6,54.3,46.6,54.3,46.6,54.4C46.6,54.3,46.6,54.4,46.6,54.4z"/>
			<path class="st4" d="M68.1,68L68.1,68L68.1,68L68.1,68z"/>
			<path class="st2" d="M53.1,60.9c0.8-0.3,1.6-0.8,2.4-1.1c0.1,0,0.1-0.1,0.2-0.1c0.1,0,0.2-0.1,0.1-0.3c-0.1-1,0-1.9,0.5-2.8
				c0.2-0.6,0.7-1,1.1-1.4c0.1-0.1,0.1-0.1,0-0.3c-0.6-0.7-1.1-1.4-1.7-2c0,0,0-0.1-0.1-0.1c0.1,0,0.1,0.1,0.2,0.1
				c0.6,0.7,1.2,1.2,1.8,1.9c0.1,0.1,0.2,0.1,0.3,0c1.5-0.8,3-0.8,4.5-0.1c0.1,0.1,0.2,0,0.3-0.1c0.6-0.7,1.2-1.4,1.8-2l0,0
				c-0.6,0.7-1,1.5-1.6,2.2c-0.1,0.1-0.1,0.2,0,0.3c1.4,1.1,1.9,2.6,1.7,4.4c0,0.1,0,0.2,0.1,0.2c0.8,0.3,1.6,0.8,2.4,1.1
				c0.1,0,0.1,0.1,0.2,0.1c-0.1,0-0.2,0-0.2,0c-0.8-0.3-1.6-0.6-2.4-0.9c-0.1,0-0.2,0-0.2,0.1c-0.7,1.9-2,3-4.1,3.1
				c-0.1,0-0.1,0-0.1,0.1c0,0.3-0.1,0.6-0.1,0.9c0,0.7-0.1,1.5-0.1,2.2c0-1-0.1-1.9-0.1-3c0-0.2,0-0.2-0.2-0.2
				c-1.9-0.2-3.2-1.2-3.9-3.1c-0.1-0.1-0.1-0.2-0.2-0.1c-0.8,0.3-1.7,0.6-2.5,0.9C53.4,60.9,53.2,60.9,53.1,60.9L53.1,60.9z
				 M60.5,62.7c2.3,0,4.1-1.8,4.1-4.1s-1.8-4.1-4.1-4.1c-2.3,0-4.1,1.8-4.1,4.1C56.3,60.9,58.2,62.7,60.5,62.7z"/>
			<path class="st2" d="M46.9,58.9c0.1,0.1,0.2,0.2,0.2,0.5c0.2,0.7,0.6,1.4,1,1.9c0.5,0.6,0.7,1.2,0.6,2c-0.1,0.6,0.2,0.9,0.5,1.4
				c0.1,0.2,0.2,0.3,0.3,0.6c0,0,0.1,0.1,0,0.2c-0.1,0-0.1,0-0.2,0c-0.5-0.5-0.9-1-1-1.7c-0.1-0.9-0.2-1.8-0.8-2.6
				c-0.3-0.6-0.6-1.2-0.7-1.9C46.9,59.1,46.8,59,46.9,58.9z"/>
			<path class="st2" d="M73.7,59c0.1,0.3,0.1,0.8,0,1.1c-0.1,0.3-0.2,0.7-0.5,1c-0.3,0.6-0.5,1.2-0.6,1.9c-0.1,0.6-0.1,1.1-0.5,1.6
				c-0.1,0.1-0.1,0.2-0.2,0.3c0,0.1-0.1,0.1-0.2,0.1c-0.1,0-0.1-0.1-0.1-0.2s0-0.1,0.1-0.2c0.2-0.6,0.3-1,0.3-1.7
				c0-0.6,0-1.1,0.3-1.6c0.1-0.1,0.2-0.2,0.2-0.3c0.3-0.5,0.6-1,0.7-1.6C73.6,59.4,73.6,59.1,73.7,59z"/>
			<path class="st2" d="M57.6,71.3c0.3-0.1,0.7-0.1,1-0.2c0.5,0,0.9-0.1,1.4-0.3c0.6-0.2,1.1-0.2,1.7,0c0.2,0.1,0.6,0.2,0.9,0.2
				c0.3,0.1,0.6,0.1,0.9,0c0.2-0.1,0.3-0.1,0.6-0.1c0.1,0,0.2,0,0.2,0.1s-0.1,0.1-0.1,0.2c-0.7,0.2-1.2,0.3-1.9,0.1
				c-0.9-0.3-1.8-0.2-2.6,0c-0.5,0.1-1,0.2-1.5,0.1C57.8,71.5,57.7,71.4,57.6,71.3z"/>
			<path class="st2" d="M66,45.7c0.7,0.1,1.2,0.5,1.6,0.9c0,0,0,0.1,0.1,0.1c0.6,0.8,1.4,1.2,2.3,1.5c0.6,0.2,0.9,0.6,1.1,1v0.1H71
				c-0.1,0-0.2-0.1-0.2-0.2c-0.3-0.5-0.9-0.7-1.5-0.8c-0.2-0.1-0.6-0.2-0.8-0.3c-0.3-0.1-0.7-0.3-0.9-0.7c-0.3-0.6-0.8-1-1.4-1.2
				C66.1,46,66,46,65.9,45.9c0,0-0.1-0.1-0.1-0.2C65.7,45.7,65.9,45.7,66,45.7z"/>
			<path class="st2" d="M54.9,45.7c0,0.1-0.1,0.1-0.1,0.2c-0.7,0.5-1,1-1.4,1.7c-0.2,0.3-0.5,0.5-0.8,0.6c-0.2,0.1-0.3,0.1-0.6,0.1
				c-0.6,0.1-1,0.5-1.4,0.9c-0.1,0.1-0.2,0.2-0.3,0.3c-0.1,0-0.1,0.1-0.2,0s0-0.1,0-0.2c0.1-0.2,0.2-0.3,0.3-0.5
				c0.3-0.5,0.8-0.7,1.4-0.9c0.8-0.3,1.4-0.8,1.8-1.4c0.3-0.3,0.7-0.7,1-0.8C54.9,45.6,54.9,45.7,54.9,45.7z"/>
			<path class="st2" d="M53.1,60.9c0,0.1-0.1,0-0.1,0C53.1,60.9,53.1,60.9,53.1,60.9L53.1,60.9z"/>
			<path class="st2" d="M64.8,52.3C64.9,52.3,64.8,52.4,64.8,52.3C64.8,52.4,64.8,52.4,64.8,52.3L64.8,52.3L64.8,52.3z"/>
			<path class="st2" d="M64.8,52.3L64.8,52.3C64.9,52.3,64.9,52.3,64.8,52.3C64.9,52.3,64.8,52.3,64.8,52.3L64.8,52.3z"/>
			<path class="st5" d="M60.5,62.7c-2.3,0-4.1-1.8-4.1-4.1s1.8-4.1,4.1-4.1c2.3,0,4.1,1.8,4.1,4.1S62.8,62.7,60.5,62.7z"/>
		</g>
	</g>
</g>
<g>
	<path class="st8" d="M29.6,16.4c0,0.9-0.5,1.2-1.4,1.2h-2.6c-0.8,0-1.4-0.3-1.4-1.2v-5.2c0-0.8,0.5-1.3,1.4-1.3h2.6
		c0.8,0,1.4,0.3,1.4,1.3V16.4z M27.6,15.9v-4.2h-1.3v4.2H27.6z"/>
	<path class="st8" d="M36.4,17.7h-2v-2.6h-1.1v2.6h-2V9.9h3.7c0.9,0,1.4,0.3,1.4,1.2v2c0,0.6-0.2,0.9-0.7,1l0,0
		c0.5,0.1,0.7,0.3,0.7,0.9v2.5H36.4z M34.4,13.4v-1.6h-1.1v1.6H34.4z"/>
	<path class="st8" d="M40.2,17.7h-2V9.9h2V17.7z"/>
	<path class="st8" d="M46.9,17.7h-3.6c-0.9,0-1.4-0.3-1.4-1.2v-5.2c0-0.9,0.5-1.3,1.4-1.3h3v1.8h-2.3V16h1v-2.3h2v4H46.9z"/>
	<path class="st8" d="M50.5,17.7h-2V9.9h2V17.7z"/>
	<path class="st8" d="M57.9,17.7h-1.7l-1.9-3.5v3.5h-2V9.9h1.7l1.9,3.4V9.9h2V17.7z"/>
	<path class="st8" d="M67.6,16.4c0,0.9-0.5,1.2-1.4,1.2h-3.3v-1.8h2.6v-1.2h-1.2c-1.1,0-1.4-0.6-1.4-1.3v-2.3c0-0.9,0.5-1.3,1.4-1.3
		h3.1v1.8h-2.4v1.1h1.2c0.9,0,1.4,0.3,1.4,1.4V16.4z"/>
	<path class="st8" d="M73.7,17.7h-4.4V9.9h4.4v1.8h-2.5v1.1h2.5v1.7h-2.5v1.2h2.5V17.7z"/>
	<path class="st8" d="M80.4,17.7h-2v-2.6h-1.1v2.6h-2V9.9h3.8c0.9,0,1.4,0.3,1.4,1.2v2c0,0.6-0.2,0.9-0.7,1l0,0
		c0.5,0.1,0.7,0.3,0.7,0.9v2.5H80.4z M78.5,13.4v-1.6h-1.1v1.6H78.5z"/>
	<path class="st8" d="M84.2,17.7h-2V9.9h2V17.7z"/>
	<path class="st8" d="M90.4,17.7H86V9.9h4.4v1.8h-2.5v1.1h2.5v1.7h-2.5v1.2h2.5V17.7z"/>
	<path class="st8" d="M96.7,16.4c0,0.9-0.5,1.2-1.4,1.2H92v-1.8h2.6v-1.2h-1.2c-1.1,0-1.4-0.6-1.4-1.3v-2.3c0-0.9,0.5-1.3,1.4-1.3
		h3.1v1.8H94v1.1h1.2c0.9,0,1.4,0.3,1.4,1.4C96.6,14.1,96.6,16.4,96.7,16.4z"/>
</g>
<g>
	<path class="st0" d="M68,25.6h-1.9v-3.3h0.8v2.5h1v0.8H68z"/>
	<path class="st0" d="M71.3,25.6h-0.8v-0.9h-0.6v0.9H69v-2.7c0-0.3,0.2-0.6,0.6-0.6h1.7V25.6z M70.4,23.9V23h-0.6v0.9H70.4z"/>
	<path class="st0" d="M74.8,25.6h-0.7l-0.9-1.5v1.5h-0.8v-3.3h0.7l0.8,1.5v-1.5h0.8v3.3H74.8z"/>
	<path class="st0" d="M77.9,25.6h-1.4c-0.3,0-0.6-0.1-0.6-0.6v-2.3c0-0.3,0.2-0.6,0.6-0.6h1.4V23h-1v1.7h1V25.6z"/>
	<path class="st0" d="M81.2,25.6h-0.8v-0.9h-0.6v0.9H79v-2.7c0-0.3,0.2-0.6,0.6-0.6h1.6C81.2,22.3,81.2,25.6,81.2,25.6z M80.3,23.9
		V23h-0.6v0.9H80.3z"/>
	<path class="st0" d="M84.3,25.1c0,0.3-0.2,0.6-0.6,0.6h-1.4v-0.8h1.1v-0.6h-0.6c-0.5,0-0.6-0.2-0.6-0.5v-0.9c0-0.3,0.2-0.6,0.6-0.6
		h1.2v0.8h-1v0.5h0.6c0.3,0,0.6,0.1,0.6,0.6V25.1z"/>
	<path class="st0" d="M87.6,25.6h-0.8v-1.2h-0.6v1.2h-0.8v-3.3h0.8v1.2h0.6v-1.2h0.8V25.6z"/>
	<path class="st0" d="M89.6,25.6h-0.8v-3.3h0.8V25.6z"/>
	<path class="st0" d="M92.9,25.6h-0.8v-1.1h-0.5v1.1h-0.8v-3.3h1.6c0.3,0,0.6,0.1,0.6,0.6v0.8c0,0.2-0.1,0.3-0.3,0.5l0,0
		c0.2,0,0.3,0.1,0.3,0.3v1.1H92.9z M92,23.7V23h-0.5v0.7H92z"/>
	<path class="st0" d="M95.9,25.6H94v-3.3H96v0.8h-1v0.5h1v0.8h-1v0.6h1v0.7H95.9z"/>
	<path class="st0" d="M75.6,29.3h-0.8v-0.9h-0.6v0.9h-0.8v-2.7c0-0.3,0.2-0.6,0.6-0.6h1.6C75.6,26,75.6,29.3,75.6,29.3z M74.8,27.7
		v-0.9h-0.6v0.9H74.8z"/>
	<path class="st0" d="M78.7,29.3h-1.4c-0.3,0-0.6-0.1-0.6-0.6v-2.3c0-0.3,0.2-0.6,0.6-0.6h1.4v0.8h-1v1.7h1V29.3z"/>
	<path class="st0" d="M82,29.3h-0.8v-0.9h-0.6v0.9h-0.8v-2.7c0-0.3,0.2-0.6,0.6-0.6H82C82,26,82,29.3,82,29.3z M81.2,27.7v-0.9h-0.6
		v0.9H81.2z"/>
	<path class="st0" d="M85.3,28.8c0,0.3-0.2,0.6-0.6,0.6H83v-3.3h1.7c0.3,0,0.6,0.1,0.6,0.6V28.8z M84.5,28.6v-1.7h-0.6v1.7H84.5z"/>
	<path class="st0" d="M88.4,29.3h-1.9V26h1.9v0.8h-1v0.5h1V28h-1v0.6h1V29.3z"/>
	<path class="st0" d="M92.7,29.3h-0.9v-1.5l-0.7,1.1H91l-0.7-1.1v1.5h-0.8V26h0.7l0.9,1.7L92,26h0.7V29.3z"/>
	<path class="st0" d="M96,27.6c0,0.3-0.2,0.6-0.6,0.6h-0.1v1.1h-0.8v-1.1h-0.1c-0.3,0-0.6-0.1-0.6-0.6V26h0.8v1.4h0.6V26H96V27.6z"
		/>
</g>
<g>
	<path class="st1" d="M26.9,23.9c0,0.3-0.2,0.6-0.6,0.6h-0.1v1.1h-0.8v-1.1h-0.1c-0.3,0-0.6-0.1-0.6-0.6v-1.6h0.8v1.4h0.6v-1.4h0.8
		V23.9z"/>
	<path class="st1" d="M30.2,25.1c0,0.3-0.2,0.6-0.6,0.6h-1.1c-0.3,0-0.6-0.1-0.6-0.6v-2.3c0-0.3,0.2-0.6,0.6-0.6h1.1
		c0.3,0,0.6,0.1,0.6,0.6V25.1z M29.3,24.8v-1.7h-0.6v1.7H29.3z"/>
	<path class="st1" d="M33.5,25.6h-0.8v-1.1h-0.5v1.1h-0.8v-3.3H33c0.3,0,0.6,0.1,0.6,0.6v0.8c0,0.2-0.1,0.3-0.3,0.5l0,0
		c0.2,0,0.3,0.1,0.3,0.3v1.1H33.5z M32.6,23.7V23h-0.5v0.7H32.6z"/>
	<path class="st1" d="M36.8,25.6H36v-1.1h-0.5v1.1h-0.8v-3.3h0.8v1.4l0,0l0.5-1.4h0.8l-0.6,1.5l0,0c0.2,0,0.5,0.2,0.5,0.5v1.4H36.8z
		"/>
	<path class="st1" d="M39.7,25.1c0,0.3-0.2,0.6-0.6,0.6h-1.4v-0.8h1.1v-0.6h-0.6c-0.5,0-0.6-0.2-0.6-0.5v-0.9c0-0.3,0.2-0.6,0.6-0.6
		h1.2v0.8h-1v0.5h0.6c0.3,0,0.6,0.1,0.6,0.6C39.7,24.1,39.7,25.1,39.7,25.1z"/>
	<path class="st1" d="M43.1,25.6h-0.8v-1.2h-0.6v1.2H41v-3.3h0.8v1.2h0.6v-1.2h0.8V25.6z"/>
	<path class="st1" d="M45.1,25.6h-0.8v-3.3h0.8V25.6z"/>
	<path class="st1" d="M48.4,25.6h-0.8v-1.1h-0.5v1.1h-0.8v-3.3h1.6c0.3,0,0.6,0.1,0.6,0.6v0.8c0,0.2-0.1,0.3-0.3,0.5l0,0
		c0.2,0,0.3,0.1,0.3,0.3v1.1H48.4z M47.6,23.7V23h-0.5v0.7H47.6z"/>
	<path class="st1" d="M51.4,25.6h-1.9v-3.3h1.9v0.8h-1v0.5h1v0.8h-1v0.6h1V25.6z"/>
	<path class="st1" d="M26.9,29.3h-0.8v-0.9h-0.6v0.9h-0.8v-2.7c0-0.3,0.2-0.6,0.6-0.6h1.6V29.3z M26.1,27.7v-0.9h-0.6v0.9H26.1z"/>
	<path class="st1" d="M29.9,29.3h-1.4c-0.3,0-0.6-0.1-0.6-0.6v-2.3c0-0.3,0.2-0.6,0.6-0.6h1.4v0.8h-1v1.7h1V29.3z"/>
	<path class="st1" d="M33.2,29.3h-0.8v-0.9h-0.6v0.9h-0.8v-2.7c0-0.3,0.2-0.6,0.6-0.6h1.6V29.3z M32.4,27.7v-0.9h-0.6v0.9H32.4z"/>
	<path class="st1" d="M36.7,28.8c0,0.3-0.2,0.6-0.6,0.6h-1.7v-3.3h1.7c0.3,0,0.6,0.1,0.6,0.6V28.8z M35.7,28.6v-1.7h-0.6v1.7H35.7z"
		/>
	<path class="st1" d="M39.6,29.3h-1.9V26h1.9v0.8h-1v0.5h1V28h-1v0.6h1V29.3z"/>
	<path class="st1" d="M43.9,29.3h-0.8v-1.5l-0.7,1.1h-0.1l-0.7-1.1v1.5h-0.8V26h0.7l0.9,1.7l0.9-1.7H44v3.3H43.9z"/>
	<path class="st1" d="M47.2,27.6c0,0.3-0.2,0.6-0.6,0.6h-0.1v1.1h-0.8v-1.1h-0.1c-0.3,0-0.6-0.1-0.6-0.6V26h0.8v1.4h0.5V26h0.8v1.6
		H47.2z"/>
</g>
</svg>
