<?xml version="1.0" encoding="utf-8"?>
<!-- Generator: Adobe Illustrator 25.3.0, SVG Export Plug-In . SVG Version: 6.00 Build 0)  -->
<svg version="1.1" id="Layer_1" xmlns="http://www.w3.org/2000/svg" xmlns:xlink="http://www.w3.org/1999/xlink" x="0px" y="0px"
	 viewBox="0 0 400 200" style="enable-background:new 0 0 400 200;" xml:space="preserve">
<style type="text/css">
	.st0{fill:#FFDA00;}
	.st1{fill:#FFB71B;}
	.st2{fill:#00263A;}
</style>
<g>
	<polygon class="st0" points="122.42921,11.5 181.41495,11.5 122.42921,53.08694 	"/>
	<polygon class="st1" points="181.41551,11.5 240.40125,11.5 240.40125,53.08694 	"/>
	<g>
		<path class="st2" d="M120.25452,174.2164c0.59078,0.65454,1.29969,1.29214,2.12491,1.91292
			c0.82339,0.62454,1.74991,1.17595,2.77579,1.65799c1.02771,0.48386,2.17928,0.87019,3.4546,1.16656
			c1.27531,0.29442,2.69131,0.44254,4.24799,0.44254c1.68042,0,3.24455-0.24004,4.69054-0.72195
			c1.44794-0.48204,2.70825-1.15913,3.78096-2.03116c1.07465-0.87021,1.92058-1.89804,2.54318-3.07961
			c0.62271-1.1834,0.93396-2.47565,0.93396-3.87469c0-1.61862-0.26442-2.99512-0.79327-4.1317
			c-0.52885-1.13463-1.23033-2.09114-2.10054-2.86954c-0.87215-0.77646-1.86047-1.40845-2.96329-1.89047
			c-1.10464-0.48192-2.23366-0.86266-3.38522-1.14401c-1.95985-0.4351-3.49971-0.97896-4.61934-1.6335
			c-1.12146-0.65271-1.68042-1.50792-1.68042-2.56757c0-0.40327,0.1163-0.78401,0.35074-1.14401
			c0.23248-0.35635,0.54201-0.66771,0.93213-0.93213c0.38817-0.26443,0.82521-0.47449,1.30713-0.63211
			c0.48204-0.15373,0.97151-0.23248,1.47037-0.23248c0.74648,0,1.45355,0.09375,2.12309,0.28125
			c0.66953,0.18567,1.2847,0.4201,1.84366,0.69965c0.56067,0.28125,1.06526,0.58322,1.51718,0.91141
			c0.4501,0.32635,0.84776,0.62833,1.19095,0.90958l4.06038-4.48048c-0.27942-0.28136-0.69197-0.66197-1.23593-1.14401
			c-0.54568-0.48204-1.24533-0.94896-2.10054-1.401c-0.85704-0.4501-1.89047-0.84021-3.1058-1.16656
			c-1.21155-0.32819-2.61255-0.4913-4.19911-0.4913c-1.92996,0-3.60283,0.25687-5.01883,0.77072
			c-1.416,0.51398-2.59756,1.2135-3.54652,2.10052c-0.9509,0.88715-1.65798,1.90742-2.12308,3.05705
			c-0.46887,1.15157-0.70136,2.38007-0.70136,3.68719c0,1.18535,0.2025,2.25816,0.60761,3.22211
			c0.40327,0.96396,0.9715,1.81929,1.70297,2.56563c0.73135,0.74841,1.60167,1.386,2.61439,1.91486
			c1.01089,0.52898,2.10809,0.93408,3.28965,1.2135c2.42871,0.6226,4.20105,1.25276,5.32069,1.89047
			c1.12158,0.63956,1.68042,1.5323,1.68042,2.68376c0,0.52896-0.1313,1.00345-0.39572,1.42355
			c-0.26443,0.4201-0.61517,0.77829-1.05026,1.07281c-0.43706,0.29625-0.91714,0.52324-1.44794,0.67697
			c-0.52885,0.15752-1.05771,0.23444-1.58656,0.23444c-0.90215,0-1.74991-0.11813-2.54318-0.35074
			c-0.79327-0.23248-1.52475-0.53629-2.19427-0.90958c-0.66954-0.37512-1.27727-0.78584-1.82111-1.23593
			c-0.54396-0.45193-1.01844-0.89459-1.42355-1.33163L120.25452,174.2164z M156.8264,173.02545
			c-0.66954-0.32635-1.22278-0.76889-1.65788-1.32968c-0.4351-0.55896-0.76901-1.19095-1.00345-1.89047
			c-0.23248-0.69965-0.35062-1.42355-0.35062-2.17001c0-0.74635,0.11813-1.47038,0.35062-2.16991
			c0.23444-0.70148,0.56834-1.32225,1.00345-1.86792c0.4351-0.54396,0.98834-0.97906,1.65787-1.30725
			c0.66954-0.32635,1.42355-0.48947,2.26378-0.48947c0.84021,0,1.58667,0.16312,2.23926,0.48947
			c0.65454,0.32819,1.20595,0.76329,1.65799,1.30725c0.4501,0.54567,0.78584,1.16644,1.00333,1.86792
			c0.21762,0.69952,0.32635,1.42355,0.32635,2.16991c0,0.74646-0.10873,1.47037-0.32635,2.17001
			c-0.21748,0.69952-0.55322,1.33151-1.00333,1.89047c-0.45204,0.56079-1.00345,1.00333-1.65799,1.32968
			c-0.65259,0.32819-1.39905,0.49142-2.23926,0.49142C158.24994,173.51688,157.49593,173.35364,156.8264,173.02545
			 M148.18983,172.18707c0.57579,1.41417,1.37846,2.65193,2.40434,3.70975c1.02783,1.05771,2.26376,1.89987,3.71158,2.52065
			c1.44598,0.6226,3.04022,0.93396,4.78441,0.93396c1.74234,0,3.3289-0.31136,4.7599-0.93396
			c1.43098-0.62077,2.66132-1.46294,3.68915-2.52065c1.02588-1.05782,1.82671-2.29558,2.4025-3.70975
			c0.57579-1.41783,0.86264-2.93318,0.86264-4.55179c0-1.6185-0.28685-3.13387-0.86264-4.5518
			c-0.57579-1.41405-1.37662-2.65193-2.40251-3.70964c-1.02782-1.05782-2.25815-1.89047-3.68915-2.49625
			c-1.43098-0.60773-3.01755-0.91153-4.7599-0.91153c-1.74417,0-3.33841,0.3038-4.78439,0.91153
			c-1.44781,0.60577-2.68375,1.43843-3.71158,2.49625c-1.02589,1.05771-1.82855,2.29559-2.40434,3.70964
			c-0.57578,1.41795-0.86276,2.9333-0.86276,4.5518C147.32707,169.25389,147.61406,170.76924,148.18983,172.18707
			 M189.61549,171.32248c-0.46704,0.53079-1.08965,1.02028-1.86804,1.47037c-0.77646,0.45204-1.74225,0.67709-2.89381,0.67709
			c-0.8084,0-1.5323-0.17067-2.16989-0.51385c-0.63773-0.34135-1.18156-0.78584-1.63361-1.32968
			c-0.4501-0.54396-0.79329-1.16656-1.02589-1.86621c-0.23444-0.70137-0.35074-1.40845-0.35074-2.12491
			c0-0.77829,0.1163-1.5172,0.35074-2.21684c0.2326-0.70135,0.57579-1.31468,1.02589-1.84354
			c0.45204-0.52885,0.99588-0.95651,1.63361-1.2847c0.63759-0.32635,1.3615-0.48947,2.16989-0.48947
			c1.1834,0,2.13235,0.21748,2.84882,0.65454c0.71452,0.43509,1.32225,0.93396,1.81927,1.4928l4.06038-4.38673
			c-0.9959-1.08963-2.22427-1.96167-3.68536-2.61438c-1.46465-0.65271-3.19017-0.9809-5.18196-0.9809
			c-1.71225,0-3.29147,0.3038-4.73746,0.91153c-1.44783,0.60577-2.69315,1.43843-3.73402,2.49625
			c-1.04283,1.05771-1.86049,2.29559-2.45126,3.70964c-0.59079,1.41794-0.88715,2.9333-0.88715,4.5518
			c0,1.71236,0.28893,3.28209,0.86459,4.71503c0.57578,1.43098,1.37662,2.66693,2.4025,3.70964
			c1.02783,1.04282,2.26559,1.85304,3.71159,2.42688c1.44598,0.57579,3.05704,0.86459,4.83121,0.86459
			c2.02177,0,3.77351-0.35818,5.25143-1.07465c1.47781-0.71452,2.66693-1.56973,3.57091-2.56563L189.61549,171.32248z
			 M196.57161,153.49236h7.1869v-6.02032h-7.1869V153.49236z M196.80228,178.60313h6.7218v-21.89061h-6.7218V178.60313z
			 M225.64912,171.97519c-0.49898,0.37512-1.29225,0.81766-2.38007,1.33163c-1.08965,0.51385-2.50565,0.77072-4.24788,0.77072
			c-1.77429,0-3.16774-0.44449-4.17679-1.33151c-1.01273-0.88715-1.53413-1.92047-1.56412-3.10397h15.59085v-1.11964
			c0-1.83611-0.23444-3.52408-0.70137-5.06381c-0.46703-1.54158-1.15912-2.86382-2.07614-3.96846
			c-0.91908-1.1028-2.0481-1.96739-3.38535-2.59012c-1.33713-0.6226-2.89381-0.93396-4.66798-0.93396
			c-1.77234,0-3.35901,0.3188-4.76001,0.95651s-2.58257,1.4872-3.54836,2.54501c-0.96407,1.05783-1.70297,2.29559-2.21683,3.70976
			c-0.51202,1.41782-0.77084,2.88637-0.77084,4.4111c0,1.74419,0.2738,3.33647,0.81766,4.78429
			c0.54396,1.44794,1.33908,2.68387,2.3819,3.71158c1.04088,1.02589,2.30875,1.82867,3.80351,2.40251
			c1.4928,0.57579,3.17322,0.86459,5.04126,0.86459c1.39906,0,2.64438-0.13313,3.73402-0.39755
			c1.08781-0.26443,2.02933-0.56641,2.8226-0.90959c0.7934-0.34329,1.43855-0.69208,1.93742-1.05026
			c0.49702-0.35829,0.87215-0.61516,1.11963-0.77084L225.64912,171.97519z M213.28027,165.34908
			c0-0.46692,0.1013-0.94151,0.3038-1.42538c0.20067-0.48009,0.49519-0.92458,0.88531-1.32968
			c0.39-0.40317,0.87958-0.73891,1.47037-1.00334c0.59261-0.26442,1.27715-0.39572,2.05542-0.39572
			c0.77646,0,1.44611,0.1313,2.00679,0.39572c0.56079,0.26443,1.02782,0.60017,1.39917,1.00334
			c0.37511,0.40511,0.65259,0.84959,0.84021,1.32968c0.1875,0.48387,0.28125,0.95847,0.28125,1.42538H213.28027z
			 M234.33066,170.24977c0,1.36906,0.13885,2.61256,0.42012,3.73402c0.27942,1.11963,0.74646,2.07614,1.39917,2.86954
			c0.65454,0.79523,1.50974,1.41783,2.56744,1.86794c1.05783,0.45009,2.36507,0.67514,3.92165,0.67514
			c2.4888,0,4.79184-0.83827,6.90747-2.52063l-2.70642-4.10536c-0.43694,0.31123-0.90396,0.58322-1.40088,0.81583
			c-0.49704,0.23444-1.08977,0.35074-1.77429,0.35074c-0.90202,0-1.56229-0.28699-1.98239-0.86459
			c-0.42012-0.57579-0.632-1.39162-0.632-2.44943v-8.63472l5.649-0.00002v-5.27386h-5.649v-6.62978h-6.71986v6.62978h-3.45459
			v5.27388h3.45459V170.24977z M249.78094,186.67889c0.80827,0.59077,1.69542,1.04282,2.65938,1.35419
			c0.9659,0.31123,2.0386,0.46692,3.22211,0.46692c1.5229,0,2.79262-0.2982,3.80339-0.88702
			c1.01089-0.59079,1.86621-1.36163,2.56757-2.31059c0.69952-0.94907,1.29031-2.02371,1.77417-3.22211
			c0.48019-1.19656,0.97153-2.4025,1.47037-3.61589l8.96109-21.75003h-7.14182l-4.94751,13.81483l-5.46136-13.81483h-7.65578
			l9.99074,21.65617l-0.65271,1.77429c-0.43695,1.08963-0.89642,1.85854-1.37845,2.31058
			c-0.48206,0.45009-1.08221,0.67697-1.79674,0.67697c-0.53079,0-1.02026-0.11058-1.47037-0.32819
			c-0.45193-0.21748-0.86459-0.46509-1.23776-0.74646L249.78094,186.67889z"/>
		<path class="st2" d="M122.44891,137.11304h11.66921c1.86794,0,3.55397-0.16322,5.06383-0.48958
			c1.50975-0.32625,2.78506-0.84766,3.82777-1.56413c1.04282-0.71452,1.85109-1.63348,2.42688-2.75323
			c0.57579-1.11963,0.86459-2.48869,0.86459-4.10719c0-1.24349-0.22688-2.32569-0.67697-3.24466
			c-0.45204-0.91714-1.00345-1.67848-1.65799-2.2862c-0.6526-0.6076-1.34468-1.07281-2.07616-1.39906
			c-0.73146-0.3283-1.37662-0.55335-1.93741-0.67709c0.37329-0.0957,0.83278-0.29636,1.37662-0.6076
			c0.54398-0.31136,1.05783-0.73902,1.54169-1.28287c0.48009-0.54385,0.90019-1.19839,1.25848-1.96179
			c0.35818-0.76146,0.5363-1.64104,0.5363-2.63694c0-1.0577-0.18567-2.07615-0.55884-3.05704
			c-0.37318-0.98078-0.9809-1.84354-1.82112-2.59c-0.84021-0.74829-1.92984-1.34663-3.26709-1.79672
			c-1.33723-0.45193-2.97073-0.67892-4.90059-0.67892h-11.66921V137.11304z M129.30934,118.4426v-7.00123h4.15607
			c0.49704,0,1.00345,0.05632,1.51537,0.16506c0.51396,0.10886,0.97345,0.29453,1.37856,0.55896
			c0.40317,0.26443,0.72952,0.62455,0.97896,1.0727c0.24944,0.45387,0.37329,1.02027,0.37329,1.7048
			c0,0.65271-0.12386,1.20595-0.37329,1.65799c-0.24944,0.4501-0.56824,0.80827-0.95651,1.07281
			c-0.39012,0.26443-0.84021,0.45949-1.35406,0.58323c-0.51204,0.12569-1.03345,0.18567-1.5623,0.18567H129.30934z
			 M129.30934,131.70032v-8.1227h4.57434c0.52885,0,1.10464,0.05437,1.72725,0.16323c0.62271,0.11058,1.1985,0.31136,1.72736,0.6076
			c0.52885,0.29636,0.96396,0.70892,1.30725,1.23788c0.34135,0.52885,0.51385,1.21339,0.51385,2.05177
			c0,0.93396-0.18007,1.66544-0.53641,2.19427c-0.35818,0.52885-0.80267,0.93398-1.33151,1.21533
			c-0.52898,0.27943-1.10475,0.45766-1.72736,0.53447c-0.62273,0.07875-1.18156,0.11813-1.68044,0.11813H129.30934z
			 M149.52147,128.8065c0,2.92392,0.73135,5.13319,2.19234,6.62794c1.46294,1.49292,3.45471,2.23927,5.97534,2.23927
			c1.27531,0,2.49809-0.27187,3.66466-0.81584c1.16656-0.54384,2.10808-1.23776,2.82455-2.07614l0.18567,2.3313h6.44032v-21.88877
			h-6.67293v11.80807c0,0.6226-0.09375,1.23032-0.27942,1.82111c-0.18762,0.59077-0.46887,1.10463-0.84216,1.53973
			c-0.37317,0.4351-0.82327,0.78584-1.35223,1.05026c-0.53069,0.26443-1.13646,0.39574-1.821,0.39574
			c-1.1835,0-2.07808-0.35635-2.68387-1.07281c-0.60577-0.71452-0.90958-1.69542-0.90958-2.94075v-12.60134h-6.72169V128.8065z
			 M174.81975,112.00215h7.18874v-6.02216h-7.18874V112.00215z M175.05235,137.11304h6.72169v-21.8906h-6.72169V137.11304z
			 M185.9751,137.11304h6.72182v-31.13305h-6.72182V137.11304z M211.87927,137.11304h6.25476v-31.13305h-6.67488v9.5237
			c-0.6226-0.2175-1.22838-0.39756-1.81915-0.53824c-0.59273-0.13874-1.41794-0.20822-2.47382-0.20822
			c-1.30714,0-2.63878,0.24016-3.99101,0.72402c-1.35406,0.48192-2.5844,1.20595-3.68903,2.16807
			c-1.10281,0.96578-2.00494,2.18672-2.70631,3.66465c-0.69963,1.47976-1.05026,3.19773-1.05026,5.15758
			c0,1.74419,0.24944,3.3083,0.74635,4.69247c0.49898,1.38406,1.17412,2.56746,2.03116,3.54652
			c0.85521,0.9809,1.86804,1.73479,3.03265,2.26364c1.1684,0.52898,2.41945,0.7934,3.75851,0.7934
			c1.36906,0,2.59001-0.27199,3.66466-0.81778c1.07281-0.54201,1.95241-1.22093,2.63693-2.02921L211.87927,137.11304z
			 M211.45915,127.21983c0,0.62272-0.07875,1.22849-0.23248,1.81927c-0.15762,0.59261-0.41449,1.10463-0.77084,1.53973
			c-0.35829,0.43694-0.80838,0.78767-1.35419,1.05026c-0.54384,0.26443-1.189,0.39757-1.93546,0.39757
			c-1.55669,0-2.72313-0.50447-3.50153-1.5172c-0.77829-1.01088-1.16841-2.31058-1.16841-3.89725
			c0-1.80428,0.47643-3.28403,1.42538-4.43366c0.94896-1.15157,2.27866-1.72736,3.99101-1.72736
			c0.80838,0,1.48537,0.06376,2.03116,0.18567c0.54202,0.12569,1.04843,0.32635,1.51535,0.60773V127.21983z M222.10066,112.00215
			h7.18874v-6.02216h-7.18874V112.00215z M222.3351,137.11304h6.72169v-21.89061h-6.72169V137.11304z M233.30295,137.11304h6.67476
			v-11.76113c0-0.65271,0.09375-1.26788,0.27942-1.84366c0.18762-0.57579,0.46704-1.08209,0.84216-1.51536
			c0.37134-0.43705,0.83838-0.78767,1.39906-1.05222c0.56079-0.26247,1.21349-0.39572,1.95996-0.39572
			c1.08963,0,1.93729,0.35829,2.54501,1.07281c0.6076,0.71647,0.90958,1.68043,0.90958,2.89392v12.60135h6.72169v-13.53542
			c0-2.9238-0.73891-5.13503-2.21866-6.626c-1.47794-1.49475-3.47533-2.24121-5.99596-2.24121
			c-1.27715,0-2.49808,0.26443-3.66466,0.79328c-1.16656,0.52896-2.10808,1.22849-2.82443,2.10052l-0.18567-2.37995h-6.44228
			V137.11304z M259.44144,144.67494c1.2135,0.81023,2.55258,1.401,4.0155,1.77612c1.46097,0.37134,3.17322,0.55884,5.13318,0.55884
			c3.45462,0,6.1759-0.86459,8.16769-2.59c1.99179-1.72736,2.98767-4.39612,2.98767-8.00456v-20.02452
			c-1.30542-0.46887-2.77579-0.85521-4.40927-1.16656c-1.63544-0.31136-3.35526-0.46704-5.15952-0.46704
			c-1.89792,0-3.61774,0.27954-5.15759,0.83839c-1.53973,0.56078-2.86197,1.36162-3.96661,2.40433
			c-1.10464,1.04466-1.96167,2.28815-2.56744,3.73414c-0.60773,1.44599-0.9097,3.05704-0.9097,4.83121
			c0,1.52474,0.22504,2.92574,0.67526,4.20106c0.4519,1.27531,1.09708,2.38007,1.93924,3.31403
			c0.83826,0.93398,1.87354,1.65788,3.10202,2.16991c1.23032,0.51385,2.62195,0.77084,4.1785,0.77084
			c2.33316,0,4.20108-0.60577,5.60025-1.82111v1.54169c0,1.61665-0.43512,2.83005-1.30533,3.64026
			c-0.87396,0.80827-2.07053,1.21339-3.59528,1.21339c-1.1835,0-2.26376-0.14813-3.24466-0.44255
			c-0.97894-0.29819-1.90546-0.70891-2.77567-1.23788L259.44144,144.67494z M273.11755,127.35857
			c0,1.43098-0.37329,2.48137-1.11975,3.15091s-1.80612,1.00333-3.17325,1.00333c-1.46292,0-2.57693-0.46509-3.33841-1.401
			c-0.76328-0.93213-1.14218-2.19244-1.14218-3.77912c0-0.8101,0.11447-1.57912,0.34891-2.31058
			c0.23248-0.73135,0.58884-1.36906,1.07269-1.91486c0.48206-0.54385,1.08026-0.9809,1.79672-1.30714
			c0.71649-0.32635,1.5567-0.48959,2.52066-0.48959c0.71646,0,1.29224,0.03938,1.72736,0.11825
			c0.43692,0.07681,0.87201,0.19311,1.30725,0.34879V127.35857z"/>
		<path class="st2" d="M122.44913,95.62489h21.93754v-6.25477h-14.8895V64.49196h-7.04804V95.62489z M164.97003,88.99695
			c-0.49702,0.37318-1.29031,0.81583-2.37994,1.32969c-1.08965,0.51385-2.50565,0.77084-4.248,0.77084
			c-1.77234,0-3.16579-0.44449-4.17667-1.32969c-1.01283-0.88715-1.5323-1.92241-1.56424-3.1058h15.59096v-1.11964
			c0-1.83427-0.23444-3.52408-0.70148-5.06382c-0.46509-1.53974-1.15901-2.86198-2.07614-3.96662
			c-0.91896-1.10476-2.04616-1.96935-3.38522-2.59196c-1.33725-0.62077-2.89198-0.93396-4.66811-0.93396
			c-1.77234,0-3.35901,0.32063-4.76001,0.95834c-1.39906,0.63772-2.58246,1.48537-3.54652,2.54319
			c-0.96579,1.0577-1.70285,2.29559-2.21683,3.71159c-0.51385,1.41599-0.77074,2.88637-0.77074,4.40916
			c0,1.74418,0.27188,3.33841,0.81767,4.78623c0.54384,1.44598,1.33723,2.68192,2.37994,3.70975
			c1.04088,1.02772,2.31059,1.82855,3.80351,2.40434c1.49475,0.57578,3.17517,0.86276,5.04126,0.86276
			c1.39917,0,2.6445-0.13129,3.73415-0.39572c1.0878-0.26443,2.02921-0.56834,2.82443-0.91153
			c0.7934-0.34135,1.43855-0.69209,1.93547-1.05026c0.49896-0.35635,0.87215-0.61322,1.12157-0.7689L164.97003,88.99695z
			 M152.60118,82.369c0-0.46703,0.1013-0.94151,0.30391-1.42355c0.2025-0.48193,0.49692-0.92641,0.88704-1.32969
			c0.38828-0.40511,0.87775-0.74085,1.47037-1.00528c0.59077-0.26248,1.27531-0.39572,2.05371-0.39572
			c0.77646,0,1.44598,0.13324,2.00677,0.39572c0.55885,0.26443,1.02771,0.60017,1.401,1.00528
			c0.37318,0.40327,0.6526,0.84776,0.84021,1.32969c0.18567,0.48203,0.27943,0.95651,0.27943,1.42355H152.60118z
			 M189.94206,88.99695c-0.49886,0.37318-1.29225,0.81583-2.37994,1.32969c-1.08977,0.51385-2.50565,0.77084-4.248,0.77084
			c-1.77417,0-3.16772-0.44449-4.17667-1.32969c-1.01283-0.88715-1.53413-1.92242-1.56424-3.1058h15.58902v-1.11964
			c0-1.83427-0.2325-3.52409-0.69952-5.06382c-0.46704-1.53974-1.15901-2.86199-2.07616-3.96663
			c-0.91896-1.10475-2.04799-1.96935-3.38522-2.59195c-1.33908-0.62077-2.89392-0.93396-4.66811-0.93396
			c-1.77417,0-3.36084,0.32063-4.76001,0.95834c-1.40089,0.63772-2.58246,1.48537-3.54836,2.54319
			c-0.96394,1.0577-1.70297,2.29559-2.21683,3.71158c-0.51385,1.416-0.76889,2.88637-0.76889,4.40917
			c0,1.74418,0.27003,3.33841,0.81583,4.78622c0.54384,1.44599,1.33713,2.68193,2.37994,3.70975
			c1.04271,1.02772,2.31059,1.82855,3.80534,2.40434c1.49292,0.57578,3.17334,0.86276,5.03943,0.86276
			c1.40102,0,2.64633-0.1313,3.73402-0.39572c1.08965-0.26443,2.03116-0.56835,2.82455-0.91153
			c0.79329-0.34135,1.43843-0.69209,1.9373-1.05026c0.49702-0.35635,0.87032-0.61322,1.11975-0.7689L189.94206,88.99695z
			 M177.57321,82.369c0-0.46703,0.1013-0.94151,0.30197-1.42355c0.20261-0.48192,0.49886-0.92641,0.88898-1.32968
			c0.38828-0.40511,0.87776-0.74085,1.46854-1.00528c0.59079-0.26248,1.27715-0.39572,2.0536-0.39572
			c0.7784,0,1.44792,0.13324,2.00871,0.39572c0.55885,0.26443,1.02589,0.60017,1.39906,1.00528
			c0.37329,0.40327,0.65454,0.84776,0.84021,1.32968c0.18762,0.48204,0.27942,0.95652,0.27942,1.42355H177.57321z
			 M212.15903,95.62489h6.25465V64.49195h-6.67476v9.52175c-0.62271-0.21749-1.23033-0.39572-1.82111-0.53641
			c-0.59077-0.14056-1.416-0.21005-2.47188-0.21005c-1.30725,0-2.63887,0.24199-3.991,0.72403
			c-1.35419,0.48192-2.58452,1.20583-3.68721,2.1699c-1.10658,0.9659-2.00871,2.18684-2.70825,3.66465
			c-0.69952,1.47792-1.05026,3.19589-1.05026,5.15757c0,1.74236,0.24944,3.30647,0.74646,4.69065
			c0.49704,1.38406,1.17401,2.56745,2.03116,3.54652c0.85521,0.9809,1.8661,1.73663,3.0345,2.26365
			c1.16656,0.52885,2.4175,0.7934,3.75658,0.7934c1.36917,0,2.59012-0.27199,3.66476-0.81583
			c1.07269-0.54396,1.95229-1.22094,2.63498-2.03116L212.15903,95.62489z M211.73892,85.72985
			c0,0.6226-0.07875,1.23032-0.2326,1.81916c-0.1575,0.59273-0.41255,1.10475-0.77084,1.54169
			c-0.35817,0.4351-0.81021,0.78584-1.35406,1.05026s-1.18901,0.39573-1.93547,0.39573c-1.55667,0-2.72507-0.50447-3.50153-1.51719
			c-0.7784-1.01089-1.16656-2.30875-1.16656-3.89725c0-1.80428,0.47264-3.2821,1.42343-4.43366
			c0.94908-1.15157,2.27876-1.72736,3.99112-1.72736c0.80829,0,1.48537,0.06376,2.03105,0.18761
			c0.54396,0.12374,1.05038,0.32624,1.51547,0.60577V85.72985z M221.35454,93.15107
			c1.08769,1.08976,2.50369,1.89803,4.24788,2.42689c1.74236,0.52897,3.59344,0.7934,5.5533,0.7934
			c1.2135,0,2.40445-0.14069,3.57089-0.42011c1.16658-0.27942,2.2094-0.70708,3.12836-1.28287
			c0.91714-0.57578,1.6485-1.29969,2.19246-2.1699c0.54384-0.87215,0.81766-1.91486,0.81766-3.12836
			c0-1.80416-0.5063-3.25015-1.51718-4.3398c-1.01089-1.08964-2.63695-1.94485-4.87816-2.56757
			c-1.64861-0.43694-2.95573-0.82522-3.92163-1.1684c-0.96408-0.34135-1.446-0.8702-1.446-1.58667
			c0-0.49703,0.2325-0.89458,0.69954-1.189c0.46703-0.29636,1.21533-0.44449,2.24121-0.44449
			c1.14963,0,2.18489,0.1875,3.10385,0.56067c0.91714,0.37329,1.73492,0.7934,2.45128,1.26032l2.84698-4.43355
			c-1.1834-0.81022-2.47565-1.42538-3.87471-1.84366c-1.39917-0.42194-3.03265-0.63199-4.90059-0.63199
			c-1.30724,0-2.52818,0.16506-3.66476,0.4913c-1.13657,0.32635-2.11552,0.7934-2.94073,1.39917
			c-0.82521,0.60761-1.47037,1.32408-1.93741,2.14735c-0.46692,0.82522-0.69952,1.75174-0.69952,2.77763
			c0,0.99589,0.19322,1.86804,0.58333,2.61439c0.38818,0.74646,0.90204,1.38417,1.53975,1.91302
			c0.6376,0.52885,1.36906,0.97334,2.19427,1.32969c0.82523,0.35829,1.65799,0.64709,2.4982,0.86459
			c1.02588,0.27953,1.87354,0.52896,2.54308,0.74646c0.66771,0.21761,1.19095,0.42949,1.56424,0.63016
			c0.37317,0.20261,0.63016,0.4201,0.77072,0.65454c0.13885,0.2326,0.20822,0.48959,0.20822,0.76901
			c0,0.71635-0.32635,1.19839-0.97894,1.44781c-0.65271,0.24944-1.47977,0.37329-2.47565,0.37329
			c-1.08781,0-2.21501-0.21761-3.38158-0.65454c-1.1684-0.4351-2.10991-0.97906-2.82443-1.63361L221.35454,93.15107z"/>
	</g>
</g>
</svg>
