<?xml version="1.0" encoding="utf-8"?>
<!-- Generator: Adobe Illustrator 25.3.0, SVG Export Plug-In . SVG Version: 6.00 Build 0)  -->
<svg version="1.1" id="Layer_1" xmlns="http://www.w3.org/2000/svg" xmlns:xlink="http://www.w3.org/1999/xlink" x="0px" y="0px"
	 viewBox="0 0 750.2 400.1" style="enable-background:new 0 0 750.2 400.1;" xml:space="preserve">
<g>
	<path d="M113.1,219.1c-2,8.2-4.6,16.7-7.9,25.5l0,78.8l-0.8,33.2l0,2.4v2.5c0,0,0,0,0,0c0,0-0.1,0,0,0h0c0,0,0.1,0,0.2,0
		c0,0,0,0,0,0v0c0,0,19.8,4.4,44.3,7.7c-3.3-7.3-8.6-16.6-16.7-28.4C122.3,326.3,116.8,280.4,113.1,219.1z"/>
	<path d="M300,336.7C300,336.7,300,336.7,300,336.7l-0.1-21.4h-0.4l0.1-69.5c-3.2-8.2-5.7-16.3-7.6-24
		c-3.7,59.9-9.2,104.7-19.1,119.3c-7.7,11.3-13,20.4-16.3,27.5c24.4-3.3,43.5-7,43.5-7v-2.2v-5.3V336.7z"/>
	<path d="M477.9,366.6c-11-18.5-16.5-79.2-20.2-158.8c-2,10.6-4.9,21.9-9.2,33.6l0,82.2l-0.9,37.5c0,0,0.3,0.3,0.4,0.3l0,0
		c0,0,0,0,0,0c0,0.1,0.1,0.1,0.2,0.2c0.1,0,0.1,0.1,0.2,0.1c0,0,14.1,7.2,34.5,13.8C481.5,372.6,479.8,369.7,477.9,366.6z"/>
	<path d="M643.2,315.3l-0.2,0l0.1-72c-4.3-11.6-7.3-22.8-9.4-33.3c-3.7,78.6-9.2,138.3-20.1,156.6c-1.6,2.7-3.1,5.4-4.6,7.9
		c20.1-6.4,34.2-13.1,34.2-13.1v-3.3h0L643.2,315.3z"/>
	<path d="M643.1,241.1l0.1-90.5c-0.9,0-1.4-0.3-1.7-0.8c-0.9-1.1-2.1-2.9-3.1-4.7c-1.5-2.5-3.4-6.2-4.9-10.8
		C631.1,145.7,624.3,188.9,643.1,241.1z"/>
	<path d="M453,145c-1,1.6-2,3.1-3,4.4c-0.3,0.3-0.5,0.6-0.7,0.8c-0.2,0.3-0.5,0.5-0.8,0.6l0,88.4c17.6-50.3,11.6-91.9,9.1-104.2
		C456.2,139.3,454.4,142.7,453,145z"/>
	<path d="M298.8,148.3l50,9.6l2.7-12.4l-60.9-13.8c0,0.2-0.1,0.4-0.2,0.7C293.3,141.3,297.6,146.9,298.8,148.3z"/>
	<path d="M53.6,145.3l2.7,12.6l49.3-9.8c1.5-1.8,5.9-7.4,8.6-16.3L53.6,145.3z"/>
	<path d="M401.1,157.1l47.9-9.3c0.1-0.2,0.3-0.4,0.5-0.6c0.7-0.9,1.7-2.3,2.8-4.1c1.4-2.5,3.3-6.2,4.8-10.8
		c-0.1-0.2-0.1-0.4-0.1-0.6l-58.7,12.5L401.1,157.1z"/>
	<path d="M639.2,143.3c1,1.7,2.1,3.3,2.9,4.3c0.3,0.1,3.3,0.7,4,0.8c1.2,0.2,1.7,0.3,1.9,0.4l45.7,8.4l2.6-11.8l-62.2-13.6
		C635.6,136.7,637.6,140.7,639.2,143.3z"/>
	<path d="M105.5,150.5c-0.1,0.1-0.2,0.2-0.4,0.4l0,91.6c20.6-55.9,11.6-101.8,9.8-109.9C111.9,142.5,107.1,148.7,105.5,150.5z"/>
	<path d="M299.6,243.7l0.1-92.5c-0.4-0.1-0.9-0.4-1.2-0.7c-1.4-1.8-5.6-7.2-8.6-15.8C287.2,146.8,279.8,190.9,299.6,243.7z"/>
</g>
</svg>
