<?xml version="1.0" encoding="utf-8"?>
<!-- Generator: Adobe Illustrator 25.3.0, SVG Export Plug-In . SVG Version: 6.00 Build 0)  -->
<svg version="1.1" id="Layer_1" xmlns="http://www.w3.org/2000/svg" xmlns:xlink="http://www.w3.org/1999/xlink" x="0px" y="0px"
	 viewBox="0 0 750.2 400.1" style="enable-background:new 0 0 750.2 400.1;" xml:space="preserve">
<g>
	<polygon points="643.3,166.6 643.3,161.7 643.3,161.7 	"/>
	<path d="M288,128c-0.2-0.9-0.4-1.8-0.6-2.9c0-0.1,0-0.2-0.1-0.3c-1.5-7.1-3.7-17.5-8.1-27.8c-0.2-0.4-0.3-0.7-0.5-1.1
		c-3-6.7-6.5-12.4-10.5-17.1c-3.6-4.2-7.7-7.5-12.1-10c-1.7-0.9-3.4-1.7-5.1-2.4l-2.1-0.6c-1.4,5.4-3.8,11.4-7.4,17
		c-8.5,13.2-21.6,20.2-38,20.3h-1.9l-0.1,0c-16.2,0-29.3-6.9-37.9-19.9c-0.2-0.3-0.4-0.6-0.6-0.9c-2.4-3.8-4.2-7.6-5.5-11.4
		c-0.6-1.8-1.2-3.5-1.6-5.2l-1.8,0.5c-10.2,4-18,10.7-24,20.6c-1.7,2.8-3.2,5.9-4.7,9.2c-4.8,11.3-7.3,23-8.8,30l-0.5,2.2
		c-0.2,1.1-0.5,2.1-0.8,3.1c0.3,1.1,2.6,10.4,3.5,25.3h167.2c0.8-11.5,2.5-19.7,3.4-23.3c-0.1-0.2-0.1-0.5-0.2-0.7
		c0-0.1-0.1-0.2-0.1-0.3C288.7,130.9,288.3,129.5,288,128z"/>
	<path d="M114.4,131c0.4-1.2,0.7-2.5,1-3.8l0.5-2.1c1.5-7.1,4-19,9-30.6c6.6-15.6,14-22.6,25.7-28.1l5-2.3l-0.5-1.4
		c-0.5-2.3-0.9-4.5-1.1-6.3c-0.4-2.6-0.5-4.7-0.5-6.2c0-0.2,0-0.4,0-0.6c0,0,0-0.1,0-0.1c0,0,0,0,0,0c0,0,0,0,0,0L40.1,83.7
		l13.3,60.9L114.4,131z"/>
	<path d="M251.6,49.4l-0.4,0.1c-0.1,2.5-0.5,9.1-1.8,15.1l2.4,0.9c12.8,5,19.8,13.4,27.8,29.1c5.5,10.8,7.3,22.4,8.8,29.8
		c0.2,1,0.4,2,0.6,2.9c0.3,1.2,0.6,2.4,0.9,3.6l0-0.1l61.6,13.9l13.3-61L251.6,49.4z"/>
	<path d="M496.8,63.3l24.3-15.5c-2.2,0.1-7.4,0.2-9.3,0.3l-1.5,0.1c-1.5,0.1-3,0.2-4.3,0.3c-1.9,0.1-3.5,0.2-4.8,0.3
		c-1.1,0.1-1.6,0.1-1.8,0.2h-0.1l-14,4.3l-84.2,25.5l-16.4,5l5.6,25.3l7.7,34.5l59.4-12.7l0,0.1c0.3-0.9,0.5-1.7,0.7-2.7
		c0.1-0.4,0.2-0.7,0.3-1.1c0-0.1,0-0.2,0.1-0.3c0.1-0.7,0.3-1.5,0.5-2.3c0-0.2,0.1-0.5,0.1-0.7c0.6-2.7,1.2-5.8,2-9.2
		c1.2-4.9,2.8-10.4,5-16.1c0.3-0.8,0.6-1.6,1-2.3C473.6,81.4,484.3,70.7,496.8,63.3z"/>
	<path d="M710,83.8l-116.3-35l-0.3-0.1c-3.3-0.2-13.5-0.6-21.5-0.9l22.7,15.6c12.4,7.3,23.3,18.5,29.7,33.4c0.7,1.7,1.4,3.3,2,4.9
		c3.2,8.5,4.9,16.3,6.2,22.4c0.2,1.2,0.5,2.3,0.7,3.3c0.3,1.2,0.6,2.4,0.9,3.5l62.6,13.7L710,83.8z"/>
</g>
</svg>
