<?xml version="1.0" encoding="utf-8"?>
<!-- Generator: Adobe Illustrator 25.3.0, SVG Export Plug-In . SVG Version: 6.00 Build 0)  -->
<svg version="1.1" id="Layer_1" xmlns="http://www.w3.org/2000/svg" xmlns:xlink="http://www.w3.org/1999/xlink" x="0px" y="0px"
	 viewBox="0 0 750.2 400.1" style="enable-background:new 0 0 750.2 400.1;" xml:space="preserve">
<style type="text/css">
	.st0{fill:none;}
</style>
<g>
	<path class="st0" d="M174.3,150.8c4.3,0.5,8.5,1.2,12.3,2.1C182.7,151.8,178.6,151.2,174.3,150.8z"/>
	<path d="M114.4,131c0.4-1.2,0.7-2.5,1-3.8l0.5-2.1c1.5-7.1,4-19,9-30.6c6.6-15.6,14-22.6,25.7-28.1l5-2.3l-0.5-1.4
		c-0.5-2.3-0.9-4.5-1.1-6.3c-0.4-2.6-0.5-4.7-0.5-6.2c0-0.2,0-0.4,0-0.6c0,0,0-0.1,0-0.1c0,0,0,0,0,0c0,0,0,0,0,0L40.1,83.7
		l13.3,60.9L114.4,131z"/>
	<path d="M365,83.7L251.6,49.4l-0.4,0.1c-0.1,2.5-0.5,9.1-1.8,15.1l2.4,0.9c12.8,5,19.8,13.4,27.8,29.1c5.5,10.8,7.3,22.4,8.8,29.8
		c0.2,1,0.4,2,0.6,2.9c0.3,1.2,0.6,2.4,0.9,3.6l0-0.1l61.6,13.9L365,83.7z"/>
	<path d="M496.8,63.3l24.3-15.5c-2.2,0.1-7.4,0.2-9.3,0.3l-1.5,0.1c-1.5,0.1-3,0.2-4.3,0.3c-1.9,0.1-3.5,0.2-4.8,0.3
		c-1.1,0.1-1.6,0.1-1.8,0.2h-0.1l-14,4.3l-84.2,25.5l-16.4,5l5.6,25.3l7.7,34.5l59.4-12.7l0,0.1c0.3-0.9,0.5-1.7,0.7-2.7
		c0.1-0.4,0.2-0.7,0.3-1.1c0-0.1,0-0.2,0.1-0.3c0.1-0.7,0.3-1.5,0.5-2.3c0-0.2,0.1-0.5,0.1-0.7c0.6-2.7,1.2-5.8,2-9.2
		c1.2-4.9,2.8-10.4,5-16.1c0.3-0.8,0.6-1.6,1-2.3C473.6,81.4,484.3,70.7,496.8,63.3z"/>
	<path d="M710,83.8l-116.3-35l-0.3-0.1c-3.3-0.2-13.5-0.6-21.5-0.9l22.7,15.6c12.4,7.3,23.3,18.5,29.7,33.4c0.7,1.7,1.4,3.3,2,4.9
		c3.2,8.5,4.9,16.3,6.2,22.4c0.2,1.2,0.5,2.3,0.7,3.3c0.3,1.2,0.6,2.4,0.9,3.5l62.6,13.7L710,83.8z"/>
	<path d="M203.1,118.9l-5.1-16c-14.5-1-26.4-7.7-34.3-19.8c-0.2-0.3-0.4-0.6-0.6-0.9c-2.4-3.8-4.2-7.6-5.5-11.4
		c-0.6-1.8-1.2-3.5-1.6-5.2l-1.8,0.5c-10.2,4-18,10.7-24,20.6c-1.7,2.8-3.2,5.9-4.7,9.2c-1.2,2.9-2.3,5.8-3.3,8.7
		C150.8,105.1,188.7,102.2,203.1,118.9z"/>
	<path d="M282.2,104.7c-0.8-2.5-1.8-5.1-2.9-7.7c-0.2-0.4-0.3-0.7-0.5-1.1c-3-6.7-6.5-12.4-10.5-17.1c-3.6-4.2-7.7-7.5-12.1-10
		c-1.7-0.9-3.4-1.7-5.1-2.4l-2.1-0.6c-1.4,5.4-3.8,11.4-7.4,17c-7.6,11.9-19,18.7-33.1,20l-5.2,16.2
		C217.4,102.3,253.9,104.9,282.2,104.7z"/>
	<path d="M186.6,152.8c-3.8-0.9-8-1.6-12.3-2.1c-18.2-2-39.9-0.5-55.8,1.3c0.2,2.8,0.4,5.9,0.5,9.2c21.8-5.5,53.9-12.5,73.7-6.5
		c0.8,0.2,1.6,0.5,2.3,0.8C192.5,154.4,189.7,153.6,186.6,152.8z"/>
	<path d="M203.1,160c-2.3-1.9-4.9-3.4-8-4.5C198.1,156.7,200.8,158.2,203.1,160C203.1,160,203.1,160,203.1,160z"/>
	<path d="M203.1,160c0.1,0,0.1,0.1,0.2,0.1C203.2,160.1,203.1,160,203.1,160C203.1,160,203.1,160,203.1,160z"/>
	<path d="M211,155.5c0.7-0.3,1.4-0.5,2.1-0.7c19.4-5.9,50.8,0.7,72.6,6.1c0.2-3.2,0.4-6.2,0.7-9C263.7,149.5,230.3,147.7,211,155.5z
		"/>
	<path d="M203.1,160c2.2-1.8,4.9-3.3,8-4.5C208,156.6,205.3,158.1,203.1,160C203.1,160,203.1,160,203.1,160
		C203.1,160,203.1,160,203.1,160c-0.1,0-0.1,0.1-0.2,0.1C203,160.1,203,160,203.1,160C203.1,160,203.1,160,203.1,160
		C203.1,160,203.1,160,203.1,160z"/>
</g>
</svg>
