<?xml version="1.0" encoding="utf-8"?>
<!-- Generator: Adobe Illustrator 25.3.0, SVG Export Plug-In . SVG Version: 6.00 Build 0)  -->
<svg version="1.1" id="Layer_1" xmlns="http://www.w3.org/2000/svg" xmlns:xlink="http://www.w3.org/1999/xlink" x="0px" y="0px"
	 viewBox="0 0 750.2 400.1" style="enable-background:new 0 0 750.2 400.1;" xml:space="preserve">
<g>
	<path d="M74.1,73.4l14.6,63.3l25.7-5.7c0.3-1.1,0.6-2.3,0.9-3.6L101,65.3L74.1,73.4z"/>
	<polygon points="290.4,130.9 317.8,137.1 332.4,73.8 305.4,65.7 	"/>
	<path d="M431.1,136.5l26.4-5.6l0,0.1c0.2-0.7,0.4-1.5,0.6-2.2l-14.4-62.8l-27,8.1L431.1,136.5z"/>
	<path d="M647.2,64.9l-14.4,61.3c0.1,0.4,0.2,0.9,0.3,1.3c0.3,1.2,0.6,2.4,0.9,3.5l25.3,5.5L674.1,73L647.2,64.9z"/>
	<path d="M119.2,173.1c-0.3,13.4-2,29.4-6.3,46.8h178.6c-4.3-17.5-5.8-33.4-5.9-46.8H119.2z"/>
</g>
</svg>
