<?xml version="1.0" encoding="utf-8"?>
<!-- Generator: Adobe Illustrator 25.3.0, SVG Export Plug-In . SVG Version: 6.00 Build 0)  -->
<svg version="1.1" id="Layer_1" xmlns="http://www.w3.org/2000/svg" xmlns:xlink="http://www.w3.org/1999/xlink" x="0px" y="0px"
	 viewBox="0 0 750.2 400.1" style="enable-background:new 0 0 750.2 400.1;" xml:space="preserve">
<style type="text/css">
	.st0{fill:none;}
</style>
<g>
	<rect x="110.9" y="305.5" class="st0" width="182.7" height="13.8"/>
	<rect x="110.9" y="288.1" class="st0" width="182.7" height="13.5"/>
	<rect x="110.9" y="270.4" class="st0" width="182.7" height="13.8"/>
	<rect x="110.9" y="253" class="st0" width="182.7" height="13.5"/>
	<rect x="110.9" y="323.3" class="st0" width="182.7" height="13.8"/>
	<rect x="110.9" y="235.2" class="st0" width="182.7" height="13.8"/>
	<rect x="110.9" y="341" class="st0" width="182.7" height="13.4"/>
	<path d="M119.1,161.1c0,1.3,0.1,2.6,0.1,3.9h166.5c0-1.3,0.1-2.6,0.2-3.9H119.1z"/>
	<path d="M287.7,200.1c-0.2-1.3-0.4-2.6-0.5-3.9H117.4c-0.2,1.3-0.4,2.6-0.6,3.9H287.7z"/>
	<rect x="110.9" y="231.3" width="182.7" height="3.9"/>
	<rect x="110.9" y="266.5" width="182.7" height="3.9"/>
	<rect x="110.9" y="337.1" width="182.7" height="3.9"/>
	<rect x="110.9" y="301.6" width="182.7" height="3.9"/>
	<path d="M293.6,249.1v3.9v13.5v3.9v13.8v3.9v13.5v3.9v13.8v3.9v13.8v3.9v13.4v3.9v4.5c4.1-0.7,6.4-1.2,6.4-1.2v-2.2v-5.3v-17.4
		c0,0,0,0,0,0l-0.1-21.4h-0.4l0.1-69.5c-2.4-6.2-4.4-12.2-6-18.1v3.7v3.9V249.1z"/>
	<path d="M110.9,363v-4.7v-3.9V341v-3.9v-13.8v-3.9v-13.8v-3.9v-13.5v-3.9v-13.8v-3.9V253v-3.9v-13.8v-3.9v-4
		c-1.6,5.6-3.5,11.4-5.7,17.3l0,78.8l-0.8,33.2l0,2.4v2.5c0,0,0,0,0,0c0,0-0.1,0,0,0h0c0,0,0.1,0,0.2,0c0,0,0,0,0,0v0
		C104.7,361.7,107,362.2,110.9,363z"/>
	<path d="M456.5,213.9c-1.9,8.8-4.5,18-7.9,27.6l0,82.2l-0.9,37.5c0,0,0.3,0.3,0.4,0.3l0,0c0,0,0,0,0,0c0,0.1,0.1,0.1,0.2,0.2
		c0.1,0,0.1,0.1,0.2,0.1c0,0,2.9,1.5,8,3.7V213.9z"/>
	<path d="M643.2,358.1L643.2,358.1l0-42.8l-0.2,0l0.1-72c-3.8-10.2-6.6-20.1-8.6-29.5v151.4c5.5-2.3,8.7-3.8,8.7-3.8V358.1z"/>
	<path d="M643.1,241.1l0.1-90.5c-0.9,0-1.4-0.3-1.7-0.8c-0.9-1.1-2.1-2.9-3.1-4.7c-1.5-2.5-3.4-6.2-4.9-10.8
		C631.1,145.7,624.3,188.9,643.1,241.1z"/>
	<path d="M453,145c-1,1.6-2,3.1-3,4.4c-0.3,0.3-0.5,0.6-0.7,0.8c-0.2,0.3-0.5,0.5-0.8,0.6l0,88.4c17.6-50.3,11.6-91.9,9.1-104.2
		C456.2,139.3,454.4,142.7,453,145z"/>
	<path d="M298.8,148.3l50,9.6l2.7-12.4l-60.9-13.8c0,0.2-0.1,0.4-0.2,0.7C293.3,141.3,297.6,146.9,298.8,148.3z"/>
	<path d="M53.6,145.3l2.7,12.6l49.3-9.8c1.5-1.8,5.9-7.4,8.6-16.3L53.6,145.3z"/>
	<path d="M401.1,157.1l47.9-9.3c0.1-0.2,0.3-0.4,0.5-0.6c0.7-0.9,1.7-2.3,2.8-4.1c1.4-2.5,3.3-6.2,4.8-10.8
		c-0.1-0.2-0.1-0.4-0.1-0.6l-58.7,12.5L401.1,157.1z"/>
	<path d="M639.2,143.3c1,1.7,2.1,3.3,2.9,4.3c0.3,0.1,3.3,0.7,4,0.8c1.2,0.2,1.7,0.3,1.9,0.4l45.7,8.4l2.6-11.8l-62.2-13.6
		C635.6,136.7,637.6,140.7,639.2,143.3z"/>
	<path d="M105.5,150.5c-0.1,0.1-0.2,0.2-0.4,0.4l0,91.6c20.6-55.9,11.6-101.8,9.8-109.9C111.9,142.5,107.1,148.7,105.5,150.5z"/>
	<path d="M299.6,243.7l0.1-92.5c-0.4-0.1-0.9-0.4-1.2-0.7c-1.4-1.8-5.6-7.2-8.6-15.8C287.2,146.8,279.8,190.9,299.6,243.7z"/>
</g>
</svg>
