<?xml version="1.0" encoding="utf-8"?>
<!-- Generator: Adobe Illustrator 25.3.0, SVG Export Plug-In . SVG Version: 6.00 Build 0)  -->
<svg version="1.1" id="Layer_1" xmlns="http://www.w3.org/2000/svg" xmlns:xlink="http://www.w3.org/1999/xlink" x="0px" y="0px"
	 viewBox="0 0 750.2 400.1" style="enable-background:new 0 0 750.2 400.1;" xml:space="preserve">
<g>
	<path d="M88.7,136.7l25.7-5.7c0.3-1.1,0.6-2.3,0.9-3.6L101,65.3l-26.9,8.1L88.7,136.7z"/>
	<path d="M124.2,58.3l6,25.8c5.4-8.7,11.7-13.6,20.4-17.7l5-2.3l-0.5-1.4c-0.5-2.3-0.9-4.5-1.1-6.3c-0.4-2.6-0.5-4.7-0.5-6.2
		c0-0.2,0-0.4,0-0.6c0,0,0-0.1,0-0.1c0,0,0,0,0,0c0,0,0,0,0,0L124.2,58.3z"/>
	<polygon points="332.4,73.8 305.4,65.7 290.4,130.9 317.8,137.1 	"/>
	<path d="M251.9,65.5c9.4,3.7,15.7,9.2,21.6,18.2l6-25.9l-27.9-8.4l-0.4,0.1c-0.1,2.5-0.5,9.1-1.8,15.1L251.9,65.5z"/>
	<path d="M457.5,130.9c0.2-0.7,0.4-1.5,0.6-2.2l-14.4-62.8l-27,8.1l14.3,62.4L457.5,130.9L457.5,130.9z"/>
	<path d="M496.8,63.3l24.3-15.5c-2.2,0.1-7.4,0.2-9.3,0.3l-1.5,0.1c-1.5,0.1-3,0.2-4.3,0.3c-1.9,0.1-3.5,0.2-4.8,0.3
		c-1.1,0.1-1.6,0.1-1.8,0.2h-0.1l-14,4.3l-17.2,5.2l5.9,25.5C480.2,75.2,488.1,68.5,496.8,63.3z"/>
	<path d="M647.2,64.9l-14.4,61.3c0.1,0.4,0.2,0.9,0.3,1.3c0.3,1.2,0.6,2.4,0.9,3.5l25.3,5.5L674.1,73L647.2,64.9z"/>
	<path d="M617.3,84.4l6.2-26.6l-29.8-9l-0.3-0.1c-3.3-0.2-13.5-0.6-21.5-0.9l22.7,15.6C603.2,68.5,611.2,75.5,617.3,84.4z"/>
	<path d="M242.9,80.4h26.7c-5.3-6.6-11.5-11.3-18.6-14l-2.1-0.6C247.7,70.4,245.7,75.5,242.9,80.4z"/>
	<path d="M156,65.7l-1.9,0.5c-7.9,3.1-14.3,7.7-19.6,14.2H162C159.1,75.5,157.2,70.3,156,65.7z"/>
	<path d="M119,178.7c-0.6,11.4-2.1,24.3-5.4,38.2h177.2c-3.2-13.9-4.6-26.8-5.1-38.2H119z"/>
	<polygon points="105.1,245.9 105.2,284.1 299.6,284.1 299.6,245.9 	"/>
	<path d="M105.2,312.2l0,11.2l-0.8,33.2l0,2.4v2.5c0,0,0,0,0,0c0,0-0.1,0,0,0h0c0,0,0.1,0,0.2,0c0,0,0,0,0,0v0
		c0,0,49,10.8,88.4,11.6c0,0,0,0,0,0c0.6,0,1.2,0,1.8,0c0.2,0,0.3,0,0.5,0c0.5,0,0.9,0,1.4,0c0.3,0,0.6,0,0.9,0c0.3,0,0.7,0,1,0
		c0.6,0,1.2,0,1.9,0c42.9-0.6,99.5-11.7,99.5-11.7v-2.2v-5.3v-17.4c0,0,0,0,0,0l-0.1-21.4h-0.4l0-3H105.2z"/>
	<path d="M286.8,148.6c0.9-7.3,2-12.6,2.6-15.3c-0.5-1.7-1-3.4-1.4-5.3c-0.2-0.9-0.4-1.8-0.6-2.9c-0.8-4-1.9-9.1-3.5-14.7H120.4
		c-1.7,6.1-2.9,11.6-3.8,15.6l-0.5,2.2c-0.2,1-0.5,2-0.7,3l0,0c0,0.2,1.7,6.5,2.8,17.4H286.8z"/>
</g>
</svg>
