<?xml version="1.0" encoding="utf-8"?>
<!-- Generator: Adobe Illustrator 25.3.0, SVG Export Plug-In . SVG Version: 6.00 Build 0)  -->
<svg version="1.1" id="Layer_1" xmlns="http://www.w3.org/2000/svg" xmlns:xlink="http://www.w3.org/1999/xlink" x="0px" y="0px"
	 viewBox="0 0 750.2 400.1" style="enable-background:new 0 0 750.2 400.1;" xml:space="preserve">
<g>
	<path d="M289.4,133.3c-0.1-0.2-0.1-0.5-0.2-0.7c0-0.1-0.1-0.2-0.1-0.3c-0.4-1.4-0.8-2.8-1.1-4.3c-0.2-0.9-0.4-1.8-0.6-2.9
		c0-0.1,0-0.2-0.1-0.3c-1.3-6.2-3.1-14.9-6.5-23.9l-77.7,12.2l-79.5-12.6c-3.7,9.8-5.7,19.5-7,25.5l-0.5,2.2
		c-0.2,1.1-0.5,2.1-0.8,3.1c0.2,0.8,1.3,5.3,2.3,12.7l85.4,13.5l84.3-13.3C288.1,139.2,288.9,135.4,289.4,133.3z"/>
</g>
</svg>
