<?xml version="1.0" encoding="utf-8"?>
<!-- Generator: Adobe Illustrator 25.3.0, SVG Export Plug-In . SVG Version: 6.00 Build 0)  -->
<svg version="1.1" id="Layer_1" xmlns="http://www.w3.org/2000/svg" xmlns:xlink="http://www.w3.org/1999/xlink" x="0px" y="0px"
	 viewBox="0 0 750.2 400.1" style="enable-background:new 0 0 750.2 400.1;" xml:space="preserve">
<g>
	<polygon points="643.3,161.7 643.3,161.7 643.3,166.6 	"/>
	<path d="M101,65.3l-26.9,8.1l14.6,63.3l25.7-5.7c0.3-1.1,0.6-2.3,0.9-3.6L101,65.3z"/>
	<polygon points="290.4,130.9 317.8,137.1 332.4,73.8 305.4,65.7 	"/>
	<path d="M443.7,65.9l-27,8.1l14.3,62.4l26.4-5.6l0,0.1c0.2-0.7,0.4-1.5,0.6-2.2L443.7,65.9z"/>
	<path d="M647.2,64.9l-14.4,61.3c0.1,0.4,0.2,0.9,0.3,1.3c0.3,1.2,0.6,2.4,0.9,3.5l25.3,5.5L674.1,73L647.2,64.9z"/>
	<path d="M286.7,149.2c0.9-7.6,2-13.2,2.7-16c-0.1-0.2-0.1-0.5-0.2-0.7c0-0.1-0.1-0.2-0.1-0.3c-0.4-1.4-0.8-2.8-1.1-4.3
		c-0.2-0.9-0.4-1.8-0.6-2.9c0-0.1,0-0.2-0.1-0.3c-0.8-4-1.9-9-3.5-14.6H120.5c-1.8,6.2-3,11.8-3.8,15.8l-0.5,2.2
		c-0.2,1.1-0.5,2.1-0.8,3.1c0.2,0.9,1.8,7.4,2.9,17.9H286.7z"/>
</g>
</svg>
