<?xml version="1.0" encoding="utf-8"?>
<!-- Generator: Adobe Illustrator 25.3.0, SVG Export Plug-In . SVG Version: 6.00 Build 0)  -->
<svg version="1.1" id="Layer_1" xmlns="http://www.w3.org/2000/svg" xmlns:xlink="http://www.w3.org/1999/xlink" x="0px" y="0px"
	 viewBox="0 0 750.2 400.1" style="enable-background:new 0 0 750.2 400.1;" xml:space="preserve">
<g>
	<path d="M281.1,155.2l5,2.1c0.1-1.1,0.2-2.2,0.3-3.3L281.1,155.2z"/>
	<path d="M299.4,245.3c-1.5-3.8-2.8-7.6-3.9-11.3l-14.4,5.2L299.4,245.3z"/>
	<polygon points="299.5,315.3 299.5,309 281.1,317.1 299.6,320.2 299.6,315.3 	"/>
	<path d="M123.4,155.2l-4.7-1.1c0.1,1,0.1,2,0.2,3L123.4,155.2z"/>
	<path d="M108.9,234c-1.1,3.4-2.3,6.9-3.6,10.4l0,0.8l18.2-6L108.9,234z"/>
	<polygon points="123.4,317.1 105.2,309.1 105.2,320.1 	"/>
	<path d="M629.9,157.4c0.1-1.2,0.1-2.3,0.2-3.4l-5.4,1.2L629.9,157.4z"/>
	<path d="M642.8,245.2l0-2.9c-1-2.9-2-5.7-2.9-8.5l-15.2,5.5L642.8,245.2z"/>
	<polygon points="624.7,317.1 642.7,320.1 642.7,309.2 	"/>
	<path d="M467,155.2l-6.2-1.4c0.1,1.2,0.2,2.5,0.2,3.9L467,155.2z"/>
	<path d="M451.2,233.6c-0.8,2.6-1.7,5.2-2.7,7.9l0,3.9l18.5-6L451.2,233.6z"/>
	<polygon points="467,317.1 448.6,309 448.6,320.2 	"/>
</g>
</svg>
