<?xml version="1.0" encoding="utf-8"?>
<!-- Generator: Adobe Illustrator 25.3.0, SVG Export Plug-In . SVG Version: 6.00 Build 0)  -->
<svg version="1.1" id="Layer_1" xmlns="http://www.w3.org/2000/svg" xmlns:xlink="http://www.w3.org/1999/xlink" x="0px" y="0px"
	 viewBox="0 0 750.2 400.1" style="enable-background:new 0 0 750.2 400.1;" xml:space="preserve">
<g>
	<polygon points="643.3,161.7 643.3,161.7 643.3,166.6 	"/>
	<path d="M53.4,144.6l61-13.6c0.4-1.2,0.7-2.5,1-3.8l0.5-2.1c1.5-7.1,4-19,9-30.6c6.6-15.6,14-22.6,25.7-28.1l5-2.3l-0.5-1.4
		c-0.5-2.3-0.9-4.5-1.1-6.3c-0.4-2.6-0.5-4.7-0.5-6.2c0-0.2,0-0.4,0-0.6c0,0,0-0.1,0-0.1c0,0,0,0,0,0c0,0,0,0,0,0L40.1,83.7
		L53.4,144.6z"/>
	<path d="M251.6,49.4l-0.4,0.1c-0.1,2.5-0.5,9.1-1.8,15.1l2.4,0.9c12.8,5,19.8,13.4,27.8,29.1c5.5,10.8,7.3,22.4,8.8,29.8
		c0.2,1,0.4,2,0.6,2.9c0.3,1.2,0.6,2.4,0.9,3.6l0-0.1l61.6,13.9l13.3-61L251.6,49.4z"/>
	<path d="M398.1,143.5l59.4-12.7l0,0.1c0.3-0.9,0.5-1.7,0.7-2.7c0.1-0.4,0.2-0.7,0.3-1.1c0-0.1,0-0.2,0.1-0.3
		c0.1-0.7,0.3-1.5,0.5-2.3c0-0.2,0.1-0.5,0.1-0.7c0.6-2.7,1.2-5.8,2-9.2c1.2-4.9,2.8-10.4,5-16.1c0.3-0.8,0.6-1.6,1-2.3
		c6.4-14.8,17.1-25.5,29.6-32.8l24.3-15.5c-2.2,0.1-7.4,0.2-9.3,0.3l-1.5,0.1c-1.5,0.1-3,0.2-4.3,0.3c-1.9,0.1-3.5,0.2-4.8,0.3
		c-1.1,0.1-1.6,0.1-1.8,0.2h-0.1l-14,4.3l-84.2,25.5l-16.4,5l5.6,25.3L398.1,143.5z"/>
	<path d="M710,83.8l-116.3-35l-0.3-0.1c-3.3-0.2-13.5-0.6-21.5-0.9l22.7,15.6c12.4,7.3,23.3,18.5,29.7,33.4c0.7,1.7,1.4,3.3,2,4.9
		c3.2,8.5,4.9,16.3,6.2,22.4c0.2,1.2,0.5,2.3,0.7,3.3c0.3,1.2,0.6,2.4,0.9,3.5l62.6,13.7L710,83.8z"/>
	<path d="M203.3,161.1l83.9-15.5c0.8-5.8,1.7-10,2.2-12.3c-0.5-1.7-1-3.4-1.4-5.3c-0.2-0.9-0.4-1.8-0.6-2.9
		c-1.5-7.3-3.8-18.4-8.6-29.2C272.2,81,262.9,71,251,66.4l-2.1-0.6c-1.4,5.4-3.8,11.4-7.4,17c-8.5,13.2-21.6,20.2-38,20.3h-1.9
		c-16.2,0-29.3-6.9-37.9-19.9c-3.9-5.8-6.3-12-7.7-17.5l-1.9,0.5C141,71.3,131.9,80.8,125.4,96c-4.8,11.3-7.3,23-8.8,30l-0.5,2.2
		c-0.2,1-0.5,2-0.7,3l0,0c0,0.2,1.4,5.4,2.5,14.5l75.6,14L203.3,161.1z"/>
</g>
</svg>
