<?xml version="1.0" encoding="utf-8"?>
<!-- Generator: Adobe Illustrator 25.3.0, SVG Export Plug-In . SVG Version: 6.00 Build 0)  -->
<svg version="1.1" id="Layer_1" xmlns="http://www.w3.org/2000/svg" xmlns:xlink="http://www.w3.org/1999/xlink" x="0px" y="0px"
	 viewBox="0 0 750.2 400.1" style="enable-background:new 0 0 750.2 400.1;" xml:space="preserve">
<g>
	<path d="M605.9,130.1c0.1,0,0.3-0.1,0.4-0.1v-5.1h-4.5c0,0.2,0,0.4,0.2,0.6c0.3,0.1,0.7,0.1,1,0.2c-0.2,1-2.3,2-1.5,2.5
		c2.1,1.3-0.8,1.1-0.7,1.7c0.1,0.6,1.2,0.1,1.2,0.8c-1.1,0-2.2,0-3.3,0c-1.2-0.5-2.4-0.4-3.8-0.2c1,0.8,2.5,0.5,3.1,1.5
		c-1.5,0.1-3,0.1-4.4,0.3c-0.4,0-1-0.1-1.2,0.4c-0.9,1.9-1,2-3.3,1.4c-1.8-0.5-3.7-0.8-5.6-1.1c0.8-0.1,1.7-0.2,2.5-0.3
		c0-0.1,0-0.2,0-0.4c-1.9-0.2-3.7-0.3-5.8-0.5c3,3.8,8.2,3.3,12.6,4.4c-0.2-0.3-0.4-0.7-0.7-1.1c-0.2-0.3-0.1-0.3,0.3-0.2
		c1-0.1,3.6,1,2-1.4c-0.2-0.3,0.4-0.7,0.9-0.7c1.6,0.1,3.2-0.4,5.9,0.8c-4.3-0.5-2.4,1.1-2.2,1.6c0.7,1.7,0.8,3-2.5,3.1
		c2.6,0.3,5.3,1.4,6.9-1.1c0.3-0.6,1.1-0.5,1.8-0.5c0.4,0,0.8-0.1,1.1-0.2v-3.9c-0.6,0-1.2-0.1-1-0.2
		C606.5,131.7,603.7,130.7,605.9,130.1z"/>
	<path d="M523.8,231.4c0.3-0.6,1.3-2.3,0.5-2.4c-2-0.3-3.4-1.6-5.6-1.5c-0.5,0-1.3,0-1.5-0.5c-0.1-0.6,1-0.3,1.3-0.7
		c-1.2,0.1-2.9-0.6-2.5,1.3c0.1,0.7-1,0.4-1.6,0.3c-1-0.7-1.6-1.8-3.1-2.1c0.4-0.3,0.1-1.7,1.6-0.6c0.6,0.4,1.2-0.3,1.7-0.6
		c0.2-0.1,0.4-0.3,0-0.4c-0.1,0-0.2,0.1-0.4,0.2c-1.1-0.2-2.2-0.9-3.5-0.2c-0.4,0.1-0.7,0.3-0.7,0.7c-2,0.3-2.4,1.3-2.2,2.6
		c-0.1,0.2-0.2,0.3-0.4,0.5c-0.6-1.3-1.8,0.4-2.6-0.4c0.3-0.6,0.5-1.2,0.8-1.9c1.2-0.8-0.6-1.3-0.3-2.1c0.7-0.3,1.9-0.3,1.9-1.1
		c0-0.7-1.1-0.7-1.8-0.9c-1-0.3-2.1-0.6-3.1-0.8c-1.3,0-1.1,1.3-2.3,1.4c-0.5,0-1-0.1-1.5,0c-1,0.3-1.4-1.4-2.4-0.4
		c-0.7,0.7-0.1,1.4,0.4,2.1c0.7,1-1.7,0.9-2,1.9c0,0.1-1.8,0.3-1.7-0.2c0.2-2-2.2-1.6-3.5-2.3c1.3-0.6,3.6-0.5,2.5-2.4
		c-0.1-0.2,0.6-0.7,0.6-0.6c0.2,0.5,1.7,0.2,1.2,1.1c-0.2,0.4,0.4,1,0.8,1c0.6-0.1,1.3-0.5,1.5-1c0.2-0.3,0.3-1-0.8-1.1
		c-1.2-0.1-1.9-1-3.1-0.9c-0.3-0.9-1.2-1.2-2.3-1.6c-0.2-0.1-0.5-0.1-0.7-0.2v13.8c0.1,0.2,0.3,0.4,0.4,0.6c0.2-1.2,0.6-1.6,1.3-1.9
		c1.3,0.9,1.7,2,0.8,3.1c-0.7,0.9-0.5,1.2,0.6,1.7c0.9,0.4,2.7,0.3,2.3,1.8c-0.1,0.4,0.9,0.4,1.4,0.6c2.2,1.2,6.2,0.6,6,3.8
		c1.5-0.5-0.4-0.8,0.1-1.2c0.3,0,0.5,0,0.8,0c0.2,0,0.3,0,0.5,0.1c0.3,0.7,2.2,1.2,0.4,2.1c-2.5,1.2-5.2,1.2-8,0.8
		c-0.1,0-0.2,0.1-0.4,0.2c0.5,0.3,0.9,0.5,1.4,0.8c-1.9,0.5-3.8-0.2-5.6,0.5c-0.8,0.3-1.6,1-1,1.1c1.1,0.3,1.2,0.9,1.3,1.4H510
		c-0.5-0.6-0.5-1.3-0.5-2c0.9-0.2-0.2-1.4,1.1-1.4c0.5,0,1.1,0.1,1.6,0.1c0.7,0.4,0.9,0.9,0.4,1.5c0.4,0.7,1,1.4,2.1,1
		c0.8-0.3,0-0.9-0.1-1.3l0.1-0.1c0.7,0,1.1-0.3,1.3-0.8c1.6,0.1,1.2,3.1,3.8,1.3c0.5,0.9-0.6,1.1-1,1.7h2c0.8-1.4,1.3-2.9,1.9-4.6
		c-1.2,0.7-2.2,1.6-2.6,0.1c0-0.2-0.2-0.4-0.2-0.5c-0.1,0.1-0.2,0.2-0.3,0.2c-1.8,1.5-2.7-0.3-3.1-0.8c-0.8-1.2,1.2-1,1.9-1.5
		c-1.8-0.3-1.8-0.3-2.6-2.1c-0.4,0.7-1.4,1.2-0.9,2.1c0.4,1-0.7,0.5-1.2,0.6c-3.1-1.5-1-2.9,0.1-4.4c0.4-0.2,0.7-0.4,1.1-0.6
		c0.6,0,1.2,0,1.8,0c-0.1-0.6,0.2-1,1.1-0.9c0.6,0.1,0.8,0.3,0.9,0.9c0,1.2,0.5,2,2.4,0.8c1.3-0.8,2.4-2,4.7-2
		C523.4,233.7,523,233.1,523.8,231.4z"/>
	<path d="M595.8,244.2c-0.5,0-0.9-0.6-1.3-0.8c-1.9,0.2-3.8,0-5.6,0.4c0-0.2,0-0.3-0.4-0.3c0.1,0.1,0.1,0.2,0.2,0.4c0,0-0.1,0-0.1,0
		c0.1,1.5,0,2.7-2.8,2.6c1.7,0.2,3.3,0.3,4.9,0.2c0.5,0,0.3-0.6,0.3-1c1.1-0.3,1,0.4,1.2,0.9c0,0.1,0,0.2,0,0.3h4.8
		c0-0.1,0-0.2,0.1-0.3C597.8,245.4,598.3,244.4,595.8,244.2z"/>
	<path d="M600.7,246.1c-0.2-0.3-0.6-0.7-1.1-0.3c-0.4,0.2-0.7,0.7-0.3,1c0.1,0,0.1,0.1,0.1,0.1h2.2
		C601.3,246.7,600.9,246.4,600.7,246.1z"/>
	<path d="M493,190.5c0.2,1.2,1.9,1.3,2.5,2.4c0.3-2.4,3.2-1.6,4.7-2.5c-0.8-0.2-1.7-0.3-1.7-1.1c2.2-0.4,3.7-1.3,2.8-3.1
		c-0.5-1,0.4-0.7,0.9-0.8c3.3-1,3.4-1.2,0.9-3.4c1.7,0.5,2.4-0.8,3.7-0.9c1.6,0.6,3.1,1.3,5.5,0.4c-1.6-0.6-2.2-1.8-3.8-1.8
		c-1.1-1-2.2-2-3.4-3.1c0.4,0,0.9,0.1,0.8-0.3c0-0.2-0.4-0.2-0.7-0.1c-0.8,0.3-1.2,0.2-1.4-0.5c1.1,0.1,2.1-0.6,3.3-0.3
		c0.2,0,0.3,0,0.5,0.1c0-0.1-0.1-0.2-0.1-0.3c0.4-0.3,0.7-0.8,1.4-0.5c1.4,0.7,4,0,3.3-0.8c-1.7-2,1.1-3.7-0.2-5.7
		c-0.8-1.3-1-3.6,1.4-4.3c2.2-0.5,5-0.8,7,1c0.4,0.4,1,0.8,1.8,0.5c0-1.4-0.3-2.5-2.6-2.5c-1,0-1.2-0.7-0.8-1.1
		c1.3-1.2,0.1-1.8-1.1-2.3c-1.2-0.5-2.4-0.9-3.6,0.3c-1,1-2.5,1.6-3.8,2.4c-0.6-0.6-1.2-0.5-2-0.2c0.6,0.1,1.2,0.3,1.7,0.4
		c-0.7,1.4,1.6,2.6,0,4.1c-1.3-1.2-2.9-2.1-5.1-1.6c1.4,1.3,2.9,2.7,2.7,4.6c-1.5-0.2-3.2,0.7-4.9-0.5c-0.6-0.4-3.1-0.8-3.9,0.3
		c-0.8,1.1-1.9,0.8-2.9,0.9c-2.7-0.9-3.8-3.1-6.2-4.4c-0.2-0.1-0.5-0.3-0.7-0.4v25.1c0.8-0.1,1.5-0.2,2.3-0.3
		C492,190.1,492.9,189.8,493,190.5z"/>
	<path d="M490.8,161.3c0.5,0.6,0.3,1.6,1.6,1.4c0.6-0.1,1.5,0.6,1.6-0.2c0.3-1.5,1.6-2.4,2.9-3.1c1.7-1,1.2-3.2,4.2-3.6
		c-3.2-0.5-5.7-1.1-4.8-3.8c0.3-0.9-1-1.8-1.6-2.1c-2.9-1.7-1.2-2.1,1-2.5c-0.5,0.1-0.8,0.4-0.4,0.7c0.6,0.5,0.7-0.1,1-0.3
		c0.3-0.2,0.7-0.4,0.9,0.1c0,0.7,0.2,1.3,1.1,1.7c-0.9,1.2,1.8,2.9-0.9,4c1.9-0.7,4.1-0.5,5.9-1.2c1.3,0,2.5,0.1,1.4-1.4
		c-0.3-0.4,2.2-0.3,2-1.5c-0.1-0.7-0.7-0.7-1.3-0.4c-1.4,0.7-1.8-0.4-2.6-0.8c-0.5-1.5,1.9,0,2.2-1.2c0.4-1.4,1.6-2.6,3.5-3.3
		c0.8-0.3,1.8-0.7,1.2-1.6c0.2,0.3,0.6,0.5,0.9,0.3c0.5-0.5-0.2-0.7-0.6-1.1c-0.7-1.1-2.3-1.6-3.3-2.5c-2.9-2.6-6.6-4.8-9.7-7.4
		c-2.1-1.8-6-2.7-5.3-5.9c0.4-0.8,1.5,0.8,1.7-0.3c0-0.1,0-0.3,0-0.4H489v34.7C489.8,160.1,490.3,160.7,490.8,161.3z"/>
	<path d="M585.5,194.6c0.4,0.3,0.7,0.3,1,0.2C586.2,194.7,585.9,194.6,585.5,194.6z"/>
	<path d="M605.1,185.5c-1.1,0.9-1.6-0.4-2.5-0.2c0.5-1.6-2.1-2-2.3-3.3c-0.3,0.3-0.8,0.6-1.1,0.2c-0.2-0.2,0.3-0.5,0.7-0.5
		c0.3-0.4,0.7-1-0.2-1c-0.8,0-1.9,0.3-2,0.9c-0.2,0.6,0,1.4,1.4,1.3c1.1-0.1,1.6,0.4,1.2,1c-0.4,0.7-1,0-1.6,0
		c-1.3-0.1-2.1-0.8-3.2-1.1c-1.8-0.2-1-0.9-0.5-1.6c0.4-0.5,0.1-1-0.6-1.3c-0.3-0.1-1,0.2-1,0.2c0.5,1.8-2.6,2.6-2.2,4.3
		c-2,0.4-2.9-1.3-4.9-1.3c-3.2,0.1-6.2-0.3-8.6-2.3c-1.6-1.3-3.7-2.3-4.9-3.9c0.1-0.4,0.1-0.8-0.4-1l-0.1-0.1c0.6-2.4,2.6-0.9,4-0.8
		c2,1.1,3.9,0.6,6.5,0c-2.5-0.6-4.4,0-5.9-0.9c-0.1-1,1.1-2.4-1.2-2.9c1.1-0.9,0-2.7,2.5-3.2c-1,0.3-1.9,0.2-2.8,0
		c0.1-0.1,0.3-0.2,0.3-0.5c-0.1-0.1-0.4-0.2-0.6-0.3c-0.4-0.1-0.6,0.2-0.8,0.4c-1.5-0.5-3-1.1-4.7-0.1c-1,0.5-2.9,0.2-4.3,0.2
		c-0.7-0.2-1.4-0.4-2.4,0.1c0.7,0.1,1.3,0.3,1.8,0.4c0.9,0.1,1.8,0.3,2.8,0.4c0,0.1,0,0.2,0,0.3c-2.4,0-4.8,0-7.1,0
		c0.9,0.4,2,0.3,2.3,1.1c-0.1-0.1-0.2-0.1-0.3-0.1c-1.5,0.1-3.1-0.4-4.4,0.3c-1.6,0-2.4,0.7-3,1.7c-0.1,0.1,0.2,0.5,0.4,0.5
		c1.5,0.3,1.9-0.8,2.7-1.3c0.6,0,1.1,0,1.7,0c1,0.7,1.8,1.3-0.4,1.8c-3,0.8-3.1,1.7-0.6,3.3c0.3,0.2,0.6,0.8,0.5,0.9
		c-1.6,1.3,0.1,0.9,0.9,0.9c0.7,0,1.6-0.3,2,0.5c-2.7-0.1-5.5-0.3-7,2.3c2.4-0.4,2.7,1.9,4.8,1.8c-0.9,0.7-2.4,0.8-3.2,0.6
		c-1.5-0.4-2.3-0.6-3.1,0.7c-0.4,0.6-2,0.1-1.7-0.6c0.7-2.1-1.4-1.4-2.6-1.6c-0.4-0.5,1.4-0.7,0.5-1.1c-0.7-0.3-1.9-0.3-2.2,0.7
		c-0.9,0.2-2.7,0.6-2.4-0.3c0.5-1.8-1-0.3-1.2-0.6c0.2-1.4,2.5-2.5,0.6-4.2c-0.7-0.6,1.4-0.1,1.6-1c0.1-0.4,0.9-0.1,1.1,0.5
		c0.3,0.8,1,1,2,0.8c1.5-0.3,2.1-1.4,2.9-2.2c0.3-0.3,0-1.2,1.2-0.7c0.3,0.1,0.9,0.9,1.2,0c0.1-0.3,0.2-0.8-0.3-1.2
		c-2.1-1.4-4-3.1-6.3-4.3c-2.5-1.3-3.5-3.8-6.9-4.2c0.3-0.9-0.6-1.8-1.2-0.9c-0.9,1.1-2.1,0.5-2.9,0.9c-0.3-0.2-0.7-0.3-1-0.5
		c-1.6-0.4-1.9-1.4-2.5-2.5c0.6,0,1.3-0.1,1.4,0c0.8,0.9,1.7,0.4,2.3,0c0.7-0.6-0.2-1-0.7-1.4c-1.9-1.6-3.9-3-6.8-3.4
		c-0.5-0.1-1.1-0.4-0.8-0.7c2-1.7-1.2-1.1-1.4-1.8c-0.6-1.5-2.6-1.2-4-1.9c0.5,1.2,1.7,2,3.2,2.4c0,0.2-0.2,0.6-0.1,0.6
		c1.2,0.7-0.4,2.3,1.5,2.7c-1.2,0.7-2.4,1.8-4,1.4c-1-0.3-1.7,0-2.4,0.2c-0.4,0.1,0.1,0.4,0.3,0.7c0.8,1,1.5-0.4,2.4,0.1
		c-0.1,0.7-1.4,1.7,0.4,2.2c-0.8,0.9-0.1,2.5-2.2,2.8c-0.5,1.7-1.7,3.3,0.2,3.5c2,0.3,1.2,1,1.4,1.7c0.5,1.4-1.1,0.5-1.3,0.9
		c-0.2,0.3,1,0,0.8,0.7c-1.1,0.2-2.3,0-3.4-0.2c-0.9-0.2-1.6,0-1.6,0.8c-0.1,0.6-0.1,0.9,1,0.9s1.2,0.2,0.4,1.1
		c-0.8,0.8-1.6,0.5-2.4,0.8c0.2,0.8,2,1,1.4,2c-0.7,0.1-1.1,1.6-2.2,0.3c-0.4-0.5,0.6-1.6-0.9-1.4c-1,0.2-2.6,0.3-2.7,1.6
		c2.6,1.2,6.2,1.5,6.7,4.4c0.1,0.3,0.3,0.6,0.8,0.3c1.6-1,3-0.1,4.5,0.2h0.1c1.3,0.9,0.9,2.9,3.5,2.9c-0.3,0.5-0.5,0.9-1.5,0.7
		c-1.2-0.3-1.5,0.4-1.8,1c-0.6,1.2,1.3,0.8,1.4,0.8c1.5-0.3,1.1,0.7,1.5,1.2c1.6-0.8,2.1-1.9,2.3-3.4c1.8,1.7,2.2,3.7,0.7,4
		c-0.9,0.2-1.1,0.5-1.5,0.9c1.3-0.3,2,1.3,3.2,0.6c0.6-0.4,1-0.6,1.7-0.3c0.8,0.3-0.7,1.3,0.7,1.5c-0.6,0.3-0.6,1.1-1.6,1.2
		c-0.7,0-1.5-0.4-2.5,0.7c5.3-0.8,9.7,3.8,14.6,0c-0.3-0.4-0.8-0.9-1.5-1.7c1.2-0.1,2.1-0.1,3.1-0.2c-1.1-0.4-3.5-0.1-1.4-1.7
		c0.1-0.1,0.2-0.8-0.3-0.6c-1.8,1-1.2-0.6-1.8-0.9c-0.8-0.3,0-1.6-1.6-1.4c-0.4-1.6,1-2.5,2.4-3.3c1.7,0,2.9-0.1,2.5,1.9
		c-0.2,0.9-2.5,1-1.2,1.7c1.6,0.8,1.8,1.9,2.4,3c0.5,1.1,1.9,0.4,2.7,0.7c0.2,0.1,1.2-0.2,1.2-0.8c0.1-1.2-1.4-0.4-1.9-0.9
		c-0.2-0.2-0.6-0.3-1-0.5c1.5-0.7,2.7-0.1,3.7,0.2c2,0.5,2.7,0,2.9-1.4c-0.6-0.2-1.5-0.1-1.7-0.9c0.5,0,0.9-0.1,1.2-0.1
		c1.7-0.1,3.7,0.6,4.3-1.5c0.2-0.8,2-1,2.7-0.3c1.1,1.1,1.5,0.5,2.4-0.1c0.7-0.5,1.6-0.8,2.4-1.2c0.8,0,1.2,0.5,1.7,0.8
		c4.8,2.3,6.7,7.6,13.7,7.7c0.8,0-0.4,1.7,1.5,1.2c0.6-0.3,1.4-0.4,1.7,0.1c0.1,0.2,0,0.4-0.3,0.5c1.9,0.6,3.1,2.2,5.3,2.3
		c0,0-0.1,0.1,0,0.1c0,0.1,0.1,0.2,0.1,0.3c-0.5,0.3-1,0.5-1.5,0.8c0.8,0.5,1.8-0.2,2.6,0.4c-0.8,0.7-2.8-0.1-2.8,0.7
		c0.1,1-0.4,1.1-1.3,1c-2.5-0.5-3.8-0.1-3.1,2.1c0.1,0.3-0.3,0.7-0.5,1c-0.9-0.1-1.8-0.3-2.8-0.4c-0.5-0.5,0.1-0.5,0.5-0.7
		c2.2-0.9-1.1-1.8-0.1-2.8c0.4-0.4-0.3-0.5-0.8-0.6c-3-0.2-4.3-1.6-4.4-3.7c-2,0.9-5,0.7-5.5,3.1c-0.4-0.1-0.8-0.2-1-0.4
		c-1-0.9-2-0.3-2.2,0.2c-0.4,0.7-0.1,1.6,1.5,1.4c0.1,0.3,0.1,0.6,0.2,0.8c-0.1,0.3-0.2,0.6-0.7,0.4c-0.1-0.1-0.3-0.2-0.4-0.2
		c0,0.1,0,0.2,0,0.3c0.8,1.7,0.2,3.4,0.5,5.1c-1-1.2-3-2.1-2.8-3.8c0-0.3,0.1-0.6,0-0.9c-0.2-0.6-0.4-1-1.6-0.7
		c-0.6,0.2-1.3-0.3-1.5,0.6c-0.3,1.4-2,1.8-3.6,2.2c0-0.5,0.3-1.1-0.7-1.2c-0.8,0-0.5,0.6-0.6,1c-0.1,0.3,0,0.7,0.1,1.1
		c-0.8,0.2-0.9,2.1-2.4,0.5c-0.9-0.6-3-0.2-2.5-2.2c-1.1,1.2-1.8,2.2-3.5,1.9c-0.9-0.2-1.3-1.3-2.6,0c-1,1-1.3,1.6-0.5,2.6
		c2.9,2.8,7.1,4.5,9.9,7.4c1.2,1.3,2.8,2.7,4.9,3c2.3,0.3,1.8,1.7,2.6,2.5c0.3,0.4,0.8,0.7,1.2,1c3.1,2.1,6.3,4,8.8,6.5
		c0.3,0.3,1,0.8,1.3,0.8c2.3-0.4,3.4,1.1,4.8,1.6c1.9-2.2-1.7-4-0.3-6.2c0.1-0.2-0.8-0.6,0-0.8c0.9-0.2,0.7,0.4,0.8,0.8
		c0.1,0.7-0.3,1.8,1.5,1.5c0.6-0.1,2.3-3.2,1.9-3.5c-0.5-0.4-1.1-1.9-1.9-0.1c-0.2,0.3-0.8,0.4-1.3,0.2c-0.1-0.1-0.2-0.5-0.1-0.6
		c2.7-1.8-0.7-2.3-1.3-3.3c-0.9-0.5-1.8-0.7-2.9-0.7c0.4-1.2-1-2.5,0.3-3.8c0.6,1.3,4.1,2.7,5.7,2.2c-0.2-1-3.3-1.6-0.6-2.9
		c1,0.1,1.8-0.2,1.5-0.9c-0.2-0.4-1.4-0.5-2.2-0.2c-1.6,0-0.9-0.6-0.5-1.1c2.4-1.1,4.7-2.8,7.5-0.5c0.1,0.3-0.1,0.9,0.4,0.9
		c0.9-0.1,0.7-0.8,0.9-1.2c1,0.2,0.4,1.1,1.1,1.4c-0.3,1,1.3,1.4,1.4,2.2c0.3,2,1.3,0.8,2.2,0.4c0.1,1.1,0,1.9-1.7,2.4
		c-1.1,0.3-1.3,1.4-1.1,2.3s1.2,0.9,2.1,1.2c1.4,0.4,1.7-0.2,2.6-0.7c1.2-0.7,0.8-2.3,2.7-2.4c0.2,0,0.4,0,0.7,0.1
		c-0.1-0.1-0.1-0.3-0.2-0.4c-0.3-1.5-2.8-0.5-3.4-1.6c-0.2-0.5-0.2-0.9,0.3-1.3c1.7-0.1,2-1.5,3.9-1.9c-1.9-0.7-3.3-0.5-4.7-0.3
		c0.1-0.2,0.1-0.3,0.2-0.5c-0.5-0.7-1.4-0.8-2.4-0.8c-0.2-0.2-0.5-0.4-0.7-0.6c-0.7-0.8-1.8-0.8-2.9-0.9l-0.2-0.1H590
		c-0.2-0.3-0.4-0.7-0.7-1c-0.3-0.3-0.5-0.1-0.6,0.1c-0.2-0.3-0.4-0.5-0.4-0.8c-0.2-0.6,0.3-0.4,0.6-0.2c1.3,0.7,1.6-0.1,2.2-0.7
		c0.6-0.7,1.4-1.9,1.8-1.8c2.7,0.5,3-2.1,5.3-1.9c-2.4-0.2-4.6-0.2-7.1-0.9c1.5-0.4,2.6-1.1,3.2-1.9c1.3-1.8,3-1.9,5.2-1.1
		c0.2,0.6,0.4,1.3,1.4,0.4c0.5-0.4,0.7-1.1,1.5-1.3c0.1,0.1,0.2,0.2,0.3,0.3c0.1-0.2,0.1-0.4,0.2-0.5c0-0.6-0.9-1.3,0.3-1.7
		c0.6-0.2,0.9,0.6,1.5,0.8c1.4,0.6-1.6,1.2-0.5,2.1c0.4,1.6-0.3,3.2-1.8,4.2c-0.9,0.6-2,1.2-3.2,1.7c-0.4,0.2-0.6,0.7-0.9,1
		c0.4,0.2,0.8,0.5,1.3,0.5c0.8,0.1,0.9-0.2,0.7-0.8c-0.1-0.7,0.7-0.6,1.3-0.4c1.1,0.4-0.5,0.6-0.2,1c0.9,0.3,0.5,1.2,2,1.5
		c0.9,0.2,2.1,0.6,2.9,1.3v-21.9C606,185.5,605.8,184.9,605.1,185.5z"/>
	<path d="M489,237.7c0.1-0.8,0.2-1.7,0.3-2.5c-0.1,0-0.2,0-0.3,0V237.7z"/>
	<path d="M500.3,127.7c3.6-0.4,3.7,2.5,5.7,3.6c0.2,0.1,0.1,0.9-0.8,0.9c-0.2,0.1-0.4,0.1-0.6,0.2c0.1,0.1,0.2,0.2,0.2,0.3
		c0.2,0.2,0.4,0.4,0.5,0.7c-0.8,0.7-2.2,1.5-1.5,2.3c0.6,0.7,2.3,0.6,3.6,0.5c0.8-0.1,1.7,0.1,2.5-0.4c-0.6-0.9-2.2,0-2.7-0.9
		c2.6-1.9,2.6-1.9,2.5-3.2c1.5-0.7,2.4-1.7,1.5-2.8c-1.3-1.8-0.1-2.2,1.5-2.6c0.8,0.6,0.5,1.5,1.3,2.6c0.7-1.4,2.2-2.4-0.3-3.1
		c-0.7-0.3-1.3-0.8-2-0.9h-12.9c0.4,0.7,0.6,1.4,1,2.1C499.9,127.3,499.4,127.7,500.3,127.7z"/>
	<path d="M602.4,153.7c-0.1-1.3,0.9-2.3,3.1-2.2c-1.6-0.3-3.3-0.3-1.1-1.7c1.3-0.9,0.7-1.4-0.8-1.5c-1.6-0.2-3.1,0.4-4.7,0
		c-1-0.2-1.8-0.3-2.4,0.9c-0.6,1.3,0.8,1,1.1,1.6c0.1,0.1,0.5,0.1,0.2,0.5c-0.7,0.1-1.5,0.1-2.3,0.2c0,0.9,2.3,0.1,1.5,1.4
		c-0.6,1-0.3,2-0.1,3c0.3,1.5,1.9,1.1,3,1.4c0.7,0.2,1.7,0.3,1.7,1.1c0,0.7-0.9,0.9-1.7,1c-1.5,0-3.7-0.3-1.4,1.6
		c0.2-0.1-0.1,0.3-0.1,0.3c-2-0.2-3.4,1.5-5.5,1.3c4.5,0.2,8.9,0.1,13.4,0.6v0c-1.7-1.2-4.5-1.3-4.9-3.5c1.4,0,2.4-0.4,3.3-1.3
		c0.4-0.4,0.9-0.6,1.6-0.6v-0.6C604.2,156.6,602.5,155.2,602.4,153.7z"/>
	<path d="M556.4,241.7c0.1-0.1,0.1-0.2,0.2-0.3c-0.2,0-0.4,0-0.6,0c-0.9,0.3-1.7-0.1-2.6-0.2c-0.4,0-1,0.4-1.2-0.2
		c-0.1-0.3,0-0.6,0.2-0.8c0.4-0.4,1.1-0.5,1.5-0.1c0.8,0.5,1.3,0.8,2-0.1c0.2-0.3,0.9-0.6,0-0.7c-1-0.1-1.3-1.7-2.5-0.9
		c-0.9,0.5-1.7,0.5-2.4,0.2c-1.1-0.6-1.9-1.2-3,0.2c-1.3,1.7,1.1,1.3,1.7,1.8c0.5,0.5,2.1,1.1,1.5,1.3c-1.7,0.6-3.2,1.7-4.7,2.1
		c-2.4,0.6-5,0.6-6.9,2.7c3-0.4,5.6,0.1,8.2,0.2h8.4c0.1-0.1,0.2-0.2,0.2-0.4c0.2-0.7-0.4-0.9-0.8-1.3
		C553.8,243.7,553.9,243,556.4,241.7z"/>
	<path d="M578.6,148.2c-2.3-0.1-4.6-0.2-6.9-0.3c1,0.4,2,0.5,3,0.6c1.9,0.2,3.9,0.1,5.5,0.7c3.4,1.2,5.4,1.4,7.8-0.2
		c0.4-0.2,1.1-0.6,0.7-1.3c-0.7-1,1.4-0.1,1-0.9c-0.8-0.1-1.6-0.2-2.9-0.3c1.6-0.5,3,0.1,4.1-0.5c-0.1-1.5-2.6,0.2-2.6-1.2
		c0-1.2,1.5-0.6,2.3-1c-1.3-0.3-2.6-0.4-3.5-0.8c-1.4-0.7-2.9-0.4-4.4-0.6c-2.9-0.3-1.8,1.8-2.9,2.6c0.1,0,0.1,0,0.2,0
		c0.6,0,1.3-0.1,1.6,0.3c0.3,0.5-0.5,0.9-1.1,1.2c-0.7,0.3-1.3,0.9-2.3,0.9c-0.3,0-1-0.1-0.3,0.4C578.1,147.9,578.4,148,578.6,148.2
		c0.3,0,0.7,0.1,1,0.2C579.5,148.6,579.1,148.4,578.6,148.2z"/>
	<path d="M552.5,130.5c0.4-0.8-1.9-1.3-0.3-1.7c2-0.4,4.2-0.2,6.3-0.3c0,1.4,1.1,3.1-1.7,4c3.6-0.7,6.8-1.9,10.4-2.3
		c-0.7-0.3-1.5-0.7-2.8-1.3c2.8,0,4.8,0,6.9,0c0-0.1,0-0.3,0-0.4c-3.1,0-6.3,0-9.4,0c2-0.6,2.1-0.6,2.1-2.1c0-0.3,0-0.5,0.2-0.7
		c0.3-0.3,1.3-0.4,1.3-0.8h-6.4c-0.6,0.2-1.2,0.2-1.9,0.1c1.2,1.3,2.8,0.8,4.1,1.1c-4.2,0-7.7,2-11.8,2.1c-0.2-0.1-0.3,0.1-0.4,0.3
		c-1.6,0.2-0.8,1.1-0.4,1.5C549.8,131,551.3,130.6,552.5,130.5z"/>
	<path d="M558.7,234.4c-0.8,0.4-1.6,0.7-2.1,0c-1.2-1.6-2.8-0.7-4.4-0.4c0.6,0.1,1.2,0.2,1.8,0.3c-2,0.2-4,0.3-5.9,0.2
		c-1.7,0-2.3,0.7-2.2,1.8c0.1,1.3,1.4,0.9,2.4,1c2.9,0.1,6-1.2,8.5,0.9c2.1-0.9,4.4,0.1,6.5-0.5c0.1,0,0.1-0.3,0.2-0.6
		c-2.1-0.1-4.1-0.1-6.1-0.2C560.9,237,558.4,235.3,558.7,234.4z"/>
	<path d="M564.8,227c-2.1-1.8-3.3-0.1-4.4,0.4c-0.9,0.4-1.4,1.5-1.4,2.6c-0.1,2.9,3.1,1.1,4.4,1.9c1.1,0.7,2.4-0.1,3.2-0.9
		c0.7-0.7,1-1.8,2.6-2.1C567.5,228.3,565.6,227.7,564.8,227z"/>
	<path d="M550.9,148.5c-2.2-0.4-2.1-0.4-2.1,1.1c0,0.3-0.2,0.7-0.5,1c-1.4,1.4-0.9,2.4,1.4,3.1c-1.9,0.5-3.5,0.4-5.1-0.2
		c-1.2-0.5-1.2-0.5-2,0.5c3.4,1.1,6.8,0.6,10.5,0.1c-0.8-0.5-0.5-1.3-1-1.8c-1.1-0.9-1-2,0.4-2.7c0.7-0.3,1.6-0.5,2.5-0.8
		C553.6,148.1,552.3,148.8,550.9,148.5z"/>
	<path d="M585,153.6c0,0.1-0.9,0.1-1.1-0.1c-2.2-2.7-6-1.4-9-2c2.7,1.2,2.7,1.2-0.8,3.3c3.1,1.3,5.6-0.9,8.5-0.5
		c2.8,0.4,5.1-0.5,6.9-2C587.9,152.4,585.9,152,585,153.6z"/>
	<path d="M578.2,165c0.3-0.2,0.6-0.4,0.8-0.6c0.6-0.7,0.1-1.9,1.5-2.3c-1.2-0.2-2.5-0.5-3.7-0.6c-1.7-0.1-3.5,0.7-4,1.5
		c-1.4,2,1.3,1.9,3.4,2.3c-1.6,0.3-2.5,0.4-4,0.7c1.7,0.9,3,0.6,4.2,0.5c0.2,0.4,0.6,0.8,1.2,0.6c1.2-0.4,0.5-1.2,0.5-1.9
		c-0.1-0.2-0.2-0.3-0.4-0.5c0,0,0.1-0.1,0.2-0.1C578,164.6,578.1,164.8,578.2,165z"/>
	<path d="M535.1,139.9c2,1.5,5.8,2,8.6,1.2c0.3-0.1,0.6-0.3,1-0.4c-1.9-2.1,1.8-0.7,1.6-1.7c-2.2-0.3-4.5-2.3-7.1-0.2
		c-0.3,0.3-0.5-0.3-0.8-0.4c-1.2-0.4-2.3,0-3.3,0.4C534.7,138.9,534.5,139.5,535.1,139.9z"/>
	<path d="M540.3,131.5c2.4,0,4.7,0,7.1,0c-0.5-0.7-1.6,0-2.1-0.8c4.4-1.3-1.4-1.3-0.5-2.2c-0.7,0.4-1.3,0.4-1.6-0.4
		c-0.1-0.3,0-1-0.6-0.8c-1.9,0.8-3.9-0.3-6.3,0.1C540,128.8,541.5,130.4,540.3,131.5z"/>
	<path d="M597.3,223.4c-1.1-0.4-2-0.7-2.3-1.4c-0.6-1.5-2-0.8-3.2-0.7c-0.9,0-1.3,0.5-1.1,1c0.4,0.9,0.6,2,2.3,2
		c1.4,0,1.5,0.8,2.3,1.5C595.1,224.4,595.9,223.8,597.3,223.4z"/>
	<path d="M538.7,207.2c-0.2-0.7-1.4-2.2-1.8-1.7c-0.9,1-2,0.9-3.2,1c-0.9,0.1-1,0.6-1.1,1c0.6,2.3,3,0,4.2,1.1
		C537.1,208.8,539,208.1,538.7,207.2z"/>
	<path d="M538.8,133.6c3.1,2.7,7.1,1,10.7,1.4c-0.9-0.3-2-0.1-2.9-0.3c-1.4-0.4-4-0.4-3.9-1.7c0.2-1.6-1.2-0.8-1.5-0.8
		c-1.9,0-0.1,0.8-0.4,1.1c0.1,0.1,0.2,0.2,0.3,0.3c-0.2,0-0.4,0-0.6,0C539.9,133.5,539.3,133.3,538.8,133.6z"/>
	<path d="M566.5,167.4c-0.4,0-0.8,0.1-1.2,0.1C565.8,167.5,566.2,167.5,566.5,167.4z"/>
	<path d="M566.5,167.4c2.3-0.2,3.9-0.9,4.7-2.7c0.3-0.8-0.1-1.1-0.9-1.4c-0.8-0.2-1.4,0.2-1.7,0.7c-0.5,0.8,1.6,0.5,1.2,1.5
		c-1.2,0.3-2.1-1-3.3-0.3C565.9,165.8,568.4,167.1,566.5,167.4z"/>
	<path d="M580.9,178.9c-0.6-0.1-0.6,0.1-0.5,0.5c0.2,0.8,1.4,1.2,1.9,0.9c1.3-0.6,3.3-0.5,3.8-1.8c0.4-1.1-1.6-1.2-2.2-2.1
		c-0.2,1.2-0.5,2.3-2.2,2.7C581.5,179.1,581.2,178.9,580.9,178.9z"/>
	<path d="M588.6,215.5c-0.3,0-0.6,0.3-0.7,0.3c-1.4-0.9-2.9,1.5-4.2-0.2c-0.1,1.7,2.7,2,3.3,3.4c0.1,0.3,1,0.2,1,0
		c-0.2-1.1,1-1.9,1.2-2.9C589.3,215.9,589.2,215.5,588.6,215.5z"/>
	<path d="M557.5,136.6c0.2-0.1,1.1,0.1,1.3,0.3c1.8,2.3,2.5-0.2,3.8-0.4c-1.8,0.2-3.3-1.5-4.1-1.1c-1.9,0.9-4,0.7-6.3,0.9
		C554.2,136.8,555.7,137.6,557.5,136.6z"/>
	<path d="M579.4,156.9c3,0.3,6.1,1,8.9-0.7C585.2,154.6,582.5,157.1,579.4,156.9z"/>
	<path d="M509.5,145.6c-0.1-0.2-1.3-0.4-1.6-0.3c-1.1,0.7,0.1,1.2,0.4,1.8c0.1,0.2,0.2,0.5,0.1,0.6c-0.3,0.8-0.4,1.5,1.1,1.6
		c1.7,0.1,1.6-0.8,1.5-1.7C512.7,146.1,509.9,146.4,509.5,145.6z"/>
	<path d="M538.8,200.4c0.2,0,0.4,0.2,0.4,0.1c0.3-0.1,0.1-0.3,0-0.5c0.2,0,0.4-0.1,0.5-0.1c0.8-0.2,1.8,1.4,2.5,0
		c0.6-1.3-0.8-1.6-2-1.8c-0.5-0.1-1.1-0.1-1.7-0.2c-0.3-0.1-0.3,0-0.2,0.2C538.7,198.8,537.2,199.8,538.8,200.4z"/>
	<path d="M570.9,159.8c0.2,1.1,1.4,0.5,2.2,0.7c0.7-0.2,2.2,0.4,2-0.6c-0.2-1.1-1.9-0.7-2.9-1C570.7,158.4,571.6,159.8,570.9,159.8z
		"/>
	<path d="M560.6,232.8c-0.5,0.8-3.1-0.1-2.1,1.6c2.1-0.2,4.2,0.6,6.2-0.3c-0.9-0.8-2.8-0.6-2.8-0.7
		C562.3,232.1,560.9,232.4,560.6,232.8z"/>
	<path d="M563.2,188.5c-0.2-0.4-0.9-1.5-1.5-1c-1.4,1.2-3.5,0.2-4.9,1.1c1.7,0.2,3.5,0.3,5.2,0.5
		C562.6,189.1,563.5,189.1,563.2,188.5z"/>
	<path d="M526.2,193.5c-0.2,1.1-0.8,2.4,0.4,3.2c0.5,0.3,1.4-0.5,2.2-1C527.7,195.1,526.3,194.6,526.2,193.5z"/>
	<path d="M515.2,207.9c1.6,1.1,3.6,0.4,5.5,0.3C519.1,206.7,517,208.6,515.2,207.9z"/>
	<path d="M585.4,234.7c0.8-0.4,1.3-0.9,1.4-1.6c0.1-0.8-1-0.8-1.7-0.9c-0.7-0.1-1.1,0.4-0.9,0.9
		C584.4,233.7,584.5,234.4,585.4,234.7z"/>
	<path d="M584.8,159.9c-1.6-0.3-3.1-0.3-5.6-0.1C581.6,160.1,582.9,162.1,584.8,159.9z"/>
	<path d="M551.4,157c0.1-0.1,0.2-0.3,0.1-0.4c-0.3-0.5-1-0.4-1.5-0.4c-1.3,0-2.5,0-4.1,0c1.4,0.4,2.7,0.2,3.7,0.8
		C550.1,157.4,550.8,157.4,551.4,157z"/>
	<path d="M538,202.2c-0.1-0.8-0.3-1.5-1.5-1.7c-0.6-0.1-1,0.2-0.9,0.7c0.2,0.7,0.3,1.5,1.4,1.7C537.7,202.8,538.1,202.7,538,202.2z"
		/>
	<path d="M593.5,149.1c-1.1,0-2.3,0-2.1,1.4c0.7-0.1,1.3-0.2,1.9-0.1c0.7,0,1.2,0,1.2-0.6C594.4,149.4,594,149.1,593.5,149.1z"/>
	<path d="M532.4,244c-1.4,0-2.6,0-3.8,0C529.7,243.9,531.3,246.3,532.4,244z"/>
	<path d="M585.4,196.1c-1.3-0.5-2.6-0.1-4.2,0.3C585.1,197,585.1,197,585.4,196.1z"/>
	<path d="M553.4,199.9c1.1,0.1,2.3,0.6,3-0.3c0.2-0.3,0.4-1.5-0.9-1.6C553.6,197.8,554.3,199.3,553.4,199.9z"/>
	<path d="M568,231.6c2.2,0.8,3.7,0.1,5.1,0.2C571.6,231.3,570.2,231.3,568,231.6z"/>
	<path d="M601.6,207.4c-0.5,0-1.3,0-1.2,0.3c0.2,0.7,0.8,1.4,1.5,1.7c1,0.2,1.1,0,1.1-0.5C602.9,208.2,603,207.5,601.6,207.4z"/>
	<path d="M585.9,136.8c-1.1-0.2-2.2-0.5-3,0.2c-0.1,0,0.1,0.5,0.4,0.7C584.8,138.5,584.9,136.9,585.9,136.8z"/>
	<path d="M588.1,230.7c1.8,0,3.6,0,5.4,0v-0.1c-1.8-0.1-3.6-0.3-5.4-0.4C588.1,230.4,588.1,230.6,588.1,230.7z"/>
	<path d="M603.9,183.4c0.6,0,1.4-0.4,1.4-0.9c0-0.6-0.9-0.6-1.5-0.8s-1,0.1-1.2,0.7C602.7,182.9,603.2,183.4,603.9,183.4z"/>
	<path d="M538.8,213.9c-0.6,0.2-1.4,0.2-1.5,0.8c-0.1,0.1-0.1,0.3,0,0.4c0.9,0.4,1.1-0.4,1.7-0.5c0.8-0.2,1.6-0.5,2.8-0.9
		C540.5,213.6,539.6,213.5,538.8,213.9z"/>
	<path d="M587.4,131.5c0.5,0,1.2-0.1,1.3-0.6c0.1-0.5-0.5-0.4-0.9-0.5c-0.6,0-1.3,0.1-1.4,0.6C586.3,131.4,586.9,131.5,587.4,131.5z
		"/>
	<path d="M547.5,159.4c1.2-0.2,2-0.4,2.7-1.2C548.9,158,548.1,158.2,547.5,159.4z"/>
	<path d="M556.2,231.6c-2.3-1.5-2.4,1-4.8,0.7C553.9,233,554.8,232,556.2,231.6z"/>
	<path d="M521.5,158.6c0.7,0,1.4-0.2,1.5-0.8c0-0.5-0.8-0.5-1.3-0.6c-0.5-0.1-1.1,0-1.3,0.5C520.5,158.2,520.8,158.6,521.5,158.6z"
		/>
	<path d="M543.5,198.2c0.8-0.2,1.7-0.4,1.8-1.1c0-0.2-0.7-0.5-1-0.8c-0.6,0.5-1.1,0.9-1.6,1.3C542.8,198.2,543.1,198.3,543.5,198.2z
		"/>
	<path d="M591.5,154.3c1.1-0.1,2-0.1,3.4-0.2C593.2,153.1,593.2,153.1,591.5,154.3z"/>
	<path d="M590.7,242c0.7,0.1,0.3,1.3,1.5,0.9c0.4-0.2,0.6-0.7,0.2-0.9C591.9,241.5,591.2,241.2,590.7,242z"/>
	<path d="M561.6,133.6c-0.4,1.8,0.5,2,2,1.8C563,134.9,562.5,134.4,561.6,133.6z"/>
	<path d="M532.8,213.8c0.9,0,1.7,0,2.7,0C534.4,212.7,534.4,212.7,532.8,213.8z"/>
	<path d="M586.4,158.8c-2.1,0-4.1,0-6.2,0C582.3,159.1,584.4,159.6,586.4,158.8z"/>
	<path d="M586.5,158.7C586.4,158.8,586.5,158.8,586.5,158.7L586.5,158.7z"/>
	<path d="M520.3,240.5c-0.5,0.6-0.6,1.1,0.2,1.7c0.7-0.6,0.9-1.1,0.3-1.7C520.7,240.4,520.3,240.4,520.3,240.5z"/>
	<path d="M586.2,243.9c0-0.2-0.3-0.5-0.5-0.8c-0.4,0.4-0.8,0.6-1,1c-0.2,0.4,0.4,0.5,0.6,0.5C586.1,244.6,586.2,244.2,586.2,243.9z"
		/>
	<path d="M588.2,161.2c-1,0-1.9,0-2.9,0c0,0,0,0,0,0.1c0.9,0,1.7,0,2.6,0C588,161.2,588.1,161.2,588.2,161.2z"/>
	<path d="M556.1,193.5c-0.1-0.2-0.5-0.4-0.9-0.4c-0.4-0.1-0.8,0.1-0.7,0.4c0.2,0.4,0.6,0.6,1.1,0.6C556,194,556.3,193.8,556.1,193.5
		z"/>
	<path d="M588.7,179.3c0.3,0.1,0.6-0.1,0.5-0.3c-0.1-0.3-0.3-0.5-0.5-0.7c-0.5,0-0.7,0.1-0.7,0.3
		C588.2,178.9,588.4,179.2,588.7,179.3z"/>
	<path d="M582.5,245.4c0.3,0,0.8,0.5,0.8-0.2c-0.5,0-1.1,0-2.2,0.1C582,245.4,582.3,245.5,582.5,245.4z"/>
	<path d="M564.3,134.1c0.6-0.1,0.6-0.4,0.6-1.2c-0.5,0.5-0.7,0.8-0.9,1C564,134,564.2,134.2,564.3,134.1z"/>
	<path d="M589,158.9c-0.7-0.1-1.3-0.1-1.9-0.1C587.7,159,588.2,159.4,589,158.9z"/>
	<path d="M544.9,128.4c-0.2-0.2,0-0.7-0.7-0.6c-0.1,0-0.2,0.1-0.2,0.1C543.9,128.4,544.5,128.3,544.9,128.4z"/>
	<path d="M557.1,191.6c0,0,0-0.2,0.1-0.2c-0.1,0-0.2-0.1-0.2-0.1c-0.1,0-0.2,0.1-0.4,0.2C556.8,191.6,556.9,191.6,557.1,191.6z"/>
	<path d="M501.9,220.1c-0.1,0.4,0.2,0.6,0.7,0.7c0.1,0,0.3,0,0.4,0c0-0.1-0.1-0.2-0.1-0.3c-0.1-0.2-0.2-0.5-0.3-0.7
		C502.3,219.9,501.9,220,501.9,220.1z"/>
	<polygon points="516.5,207.1 516.8,207.1 516.7,207 	"/>
	<path d="M589.4,220.6c-0.3,0.1-0.4,0.2-0.6,0.3L589.4,220.6z"/>
	<path d="M555.9,182.4c-0.1,0-0.3,0.1-0.4,0.2c0.2,0.1,0.3,0.2,0.4,0.2c0.1,0,0.3-0.1,0.4-0.2C556.1,182.5,556,182.4,555.9,182.4z"
		/>
	<path d="M555.8,132c0,0.1,0.1,0.1,0.1,0.2C555.9,132.1,555.9,132,555.8,132C555.9,131.9,555.8,132,555.8,132z"/>
	<path d="M490.2,235c0-0.1,0-0.2,0-0.2c-0.5-0.2-0.5,0.2-0.7,0.3C489.7,235.3,490,235.4,490.2,235z"/>
	<path d="M550.2,233.4c-0.1-0.1-0.3-0.1-0.4-0.2c0,0-0.1,0.1-0.2,0.1c0.1,0.1,0.3,0.1,0.4,0.2C550,233.6,550.1,233.5,550.2,233.4z"
		/>
	<path d="M513.3,177.8c0-0.1,0.1-0.2,0.1-0.3C513.2,177.6,512.9,177.6,513.3,177.8z"/>
	<path d="M590.3,242.3c0.1-0.1,0.2-0.1,0.3-0.2C590.4,242.1,590.1,242,590.3,242.3z"/>
	<path d="M531.7,208.6c-0.1-0.1-0.2-0.1-0.2-0.1c0,0.1,0,0.1,0,0.2C531.6,208.7,531.7,208.7,531.7,208.6
		C531.8,208.6,531.8,208.6,531.7,208.6z"/>
	<path d="M542.5,196.4c-0.1,0-0.1,0-0.2,0c0,0,0,0.1-0.1,0.1C542.3,196.5,542.3,196.5,542.5,196.4
		C542.5,196.5,542.5,196.4,542.5,196.4z"/>
	<path d="M588.7,223.9c0,0-0.1,0.1-0.2,0.1c0.2,0,0.3,0.1,0.5,0.1c0,0,0.1-0.1,0.2-0.1C589,224,588.9,223.9,588.7,223.9z"/>
	<path d="M589.3,221.8c0,0,0.1,0.1,0.1,0.1c0.2,0,0.3-0.1,0.5-0.1c0-0.1-0.1-0.1-0.1-0.2C589.6,221.7,589.5,221.7,589.3,221.8z"/>
	<polygon points="580.2,161.1 580.4,160.9 580.2,160.9 	"/>
	<path d="M552.4,155.6C552.4,155.6,552.5,155.6,552.4,155.6C552.4,155.5,552.4,155.5,552.4,155.6z"/>
	<path d="M552.6,155.6c0.1,0,0.2-0.1,0.2-0.1l-0.1-0.1c-0.1,0.1-0.1,0.1-0.2,0.1C552.5,155.5,552.6,155.6,552.6,155.6z"/>
	<path d="M544.9,150.4c0.2,0.2,0.3,0.3,0.5,0.4l0,0c0.5,0.4,0.9,0.3,1.3-0.1c-0.4,0-0.7-0.1-1.1-0.1
		C545.4,150.5,545.1,150.5,544.9,150.4z"/>
	<path d="M554.6,152.9c0,0,0.1-0.1,0.2-0.1c-0.2-0.1-0.3-0.1-0.5-0.1c0,0-0.1,0.1-0.2,0.1C554.3,152.8,554.4,152.8,554.6,152.9z"/>
	<polygon points="587.4,132.3 587.5,132.2 587.3,132.2 	"/>
	<path d="M513.7,170.2c0.1,0,0.2,0,0.2-0.1c0,0-0.1-0.1-0.2-0.1c-0.1,0-0.2,0.1-0.2,0.1S513.6,170.2,513.7,170.2z"/>
	<polygon points="506.6,226.6 506.5,226.7 506.6,226.7 	"/>
	<polygon points="589.6,220.6 589.4,220.6 589.4,220.6 589.5,220.7 	"/>
</g>
</svg>
