<?xml version="1.0" encoding="utf-8"?>
<!-- Generator: Adobe Illustrator 25.2.1, SVG Export Plug-In . SVG Version: 6.00 Build 0)  -->
<svg version="1.1" id="Layer_1" xmlns="http://www.w3.org/2000/svg" xmlns:xlink="http://www.w3.org/1999/xlink" x="0px" y="0px"
	 viewBox="0 0 120 60" style="enable-background:new 0 0 120 60;" xml:space="preserve">
<style type="text/css">
	.st0{fill:#FFFFFF;}
</style>
<g>
	<polygon class="st0" points="0,35.2 2.7,35.2 2.7,38.4 8.4,38.4 8.4,35.2 11.1,35.2 11.1,44 8.4,44 8.4,40.7 2.7,40.7 2.7,44 0,44 
			"/>
	<path class="st0" d="M17.6,35.2h3.5l4.8,8.8h-3l-0.8-1.6h-5.5L15.9,44h-3L17.6,35.2z M17.7,40.6h3.5l-1.8-3.3L17.7,40.6z"/>
	<path class="st0" d="M27.7,35.2h8.2c2.1,0,2.6,1,2.6,2.6v0.6c0,1.2-0.3,1.9-1.5,2.2l0,0c0.8,0.1,1.5,0.5,1.5,1.9V44h-2.7v-1
		c0-0.9-0.3-1.2-1.1-1.2h-4.3V44h-2.7V35.2z M30.4,39.6h4.5c0.7,0,1-0.3,1-0.9v-0.3c0-0.8-0.4-0.9-1.2-0.9h-4.3V39.6z"/>
	<polygon class="st0" points="40.3,35.2 50.6,35.2 50.6,37.4 46.8,37.4 46.8,44 44.1,44 44.1,37.4 40.3,37.4 	"/>
	<path class="st0" d="M52.4,35.2h7.4c2.6,0,3.2,1.3,3.2,3V39c0,1.3-0.6,2.8-2.5,2.8h-5.4V44h-2.7V35.2z M55.1,39.6h4.2
		c0.6,0,0.9-0.4,0.9-0.9v-0.3c0-0.6-0.3-0.9-1.1-0.9h-4C55.1,37.5,55.1,39.6,55.1,39.6z"/>
	<path class="st0" d="M64.9,35.2h2.7v5.1c0,1.1,0.4,1.6,1.5,1.6h2.7c1.1,0,1.5-0.4,1.5-1.6v-5.1H76v5.7c0,2.2-1.1,3.2-3.6,3.2h-3.9
		c-2.5,0-3.6-1-3.6-3.2C64.9,40.9,64.9,35.2,64.9,35.2z"/>
	<path class="st0" d="M78.3,35.2h8.1c2.1,0,2.6,1,2.6,2.6v0.6c0,1.2-0.3,1.9-1.5,2.2l0,0c0.8,0.1,1.5,0.5,1.5,1.9V44h-2.7v-1
		c0-0.9-0.3-1.2-1.1-1.2H81V44h-2.7C78.3,44,78.3,35.2,78.3,35.2z M81,39.6h4.4c0.7,0,1-0.3,1-0.9v-0.3c0-0.8-0.4-0.9-1.2-0.9H81
		C81,37.5,81,39.6,81,39.6z"/>
	<polygon class="st0" points="95.2,41 90.3,35.2 93.6,35.2 96.5,38.8 99.5,35.2 102.8,35.2 97.9,41 97.9,44 95.2,44 	"/>
	<path class="st0" d="M45,10.9l0.7,6.8c0.2,2.5,1.9,4.3,3.3,4.6c0.4,0.1,0.9,0.1,0.9,0.1v1.8h-1c0-0.8-1.5-1.3-2.5-1.6
		c-1.3-0.5-3.7-1.8-4-4.7L41.8,11H45V10.9z"/>
	<path class="st0" d="M41.2,10.1V6.8c0-0.8,0.7-1.6,2.7-2l4.8-0.7v-2L50,1.4v3.3l-4,0.8c-1.3,0.3-2.1,1-2.1,1.8v2.6h-2.7V10.1z"/>
	<path class="st0" d="M55.6,10.9l-0.7,6.8c-0.2,2.5-1.9,4.3-3.3,4.6c-0.4,0.1-0.9,0.1-0.9,0.1v1.8h1c0-0.8,1.5-1.3,2.5-1.6
		c1.3-0.5,3.7-1.8,4-4.7l0.6-6.9h-3.2V10.9z"/>
	<path class="st0" d="M59.5,10.1V6.8c0-0.8-0.7-1.6-2.7-2L52,4.1v-2l-1.3-0.7v3.3l4,0.8c1.3,0.3,2.1,1,2.1,1.8v2.6h2.7V10.1z"/>
	<path class="st0" d="M0.1,50h2.6v4.9c0,1.1,0.4,1.5,1.4,1.5h2.6c1.1,0,1.4-0.4,1.4-1.5V50h2.6v5.4c0,2.1-1.1,3.1-3.5,3.1H3.5
		c-2.4,0-3.5-1-3.5-3.1V50H0.1z"/>
	<polygon class="st0" points="12.4,50 16.4,50 21.2,56.1 21.3,56.1 21.3,50 23.8,50 23.8,58.4 19.8,58.4 15,52.3 14.9,52.3 
		14.9,58.4 12.4,58.4 	"/>
	<rect x="25.6" y="50" class="st0" width="2.6" height="8.4"/>
	<polygon class="st0" points="29.1,50 31.9,50 35.2,56.2 38.5,50 41.4,50 36.8,58.4 33.6,58.4 	"/>
	<polygon class="st0" points="42.2,50 51.4,50 51.4,51.9 44.7,51.9 44.7,53.3 51,53.3 51,55 44.7,55 44.7,56.4 51.5,56.4 51.5,58.4 
		42.2,58.4 	"/>
	<path class="st0" d="M52.9,50h7.8c2,0,2.5,1,2.5,2.5V53c0,1.1-0.3,1.8-1.4,2.1l0,0c0.8,0.1,1.4,0.5,1.4,1.9v1.4h-2.6v-1
		c0-0.9-0.3-1.2-1.1-1.2h-4.1v2.2h-2.6L52.9,50L52.9,50z M55.5,54.1h4.3c0.7,0,1-0.3,1-0.9V53c0-0.7-0.4-0.9-1.2-0.9h-4v2H55.5z"/>
	<path class="st0" d="M64.7,55.6h2.6c0,0.9,0.4,1,1.1,1h3.2c0.5,0,1.1-0.1,1.1-0.7c0-0.7-0.3-0.8-3.6-0.8c-3.9,0-4.3-0.5-4.3-2.5
		c0-1.5,0.1-2.7,3.4-2.7h3.6c3,0,3.3,1,3.3,2.5v0.3h-2.7c0-0.6-0.1-0.9-1.3-0.9h-2.9c-0.6,0-1,0.2-1,0.7c0,0.7,0.3,0.8,3.1,0.7
		c4,0,5,0.2,5,2.7c0,2.3-0.8,2.6-4.2,2.6H68c-2.4,0-3.3-0.4-3.3-2.3C64.7,56.2,64.7,55.6,64.7,55.6z"/>
	<rect x="77" y="50" class="st0" width="2.6" height="8.4"/>
	<polygon class="st0" points="80.7,50 90.5,50 90.5,52.1 86.9,52.1 86.9,58.4 84.3,58.4 84.3,52.1 80.7,52.1 	"/>
	<polygon class="st0" points="95.4,55.5 90.7,50 93.9,50 96.7,53.4 99.5,50 102.7,50 98,55.5 98,58.4 95.4,58.4 	"/>
</g>
</svg>
