<?xml version="1.0" encoding="utf-8"?>
<!-- Generator: Adobe Illustrator 25.2.1, SVG Export Plug-In . SVG Version: 6.00 Build 0)  -->
<svg version="1.1" id="Layer_1" xmlns="http://www.w3.org/2000/svg" xmlns:xlink="http://www.w3.org/1999/xlink" x="0px" y="0px"
	 viewBox="0 0 400 140" style="enable-background:new 0 0 400 140;" xml:space="preserve">
<style type="text/css">
	.st0{fill:#FFE800;}
	.st1{fill:#FFFFFF;}
</style>
<g>
	<g>
		<path class="st0" d="M366.3,87.1c-1.4-0.4-3.5-0.2-5.1-0.2H39.7c-1.6,0-3.7-0.2-5,0.2l-0.1,26.8l5.3,0.1l326.2,0
			C366.5,105.5,366.2,95.8,366.3,87.1"/>
		<path class="st1" d="M48.8,55.5l4.2-0.1c2,3.1,4,6.3,5.9,9.6l4.5,7.3c0.8,1.2,1.4,0.8,3.2,0.8l29.7,0l2.3-7.5l16.8,0l2.5,7.5
			l15.9,0c-0.6-2.3-13.7-34.1-16-39.7c-1-2.3-1.5-5.6-3.2-5.6l-15.5,0l-17.8,45c-0.6-0.5-15.1-22.5-15.5-23.6
			c2-3.5,14.1-20,14.5-21.4l-16.3,0c-0.5,1.3-1.7,2.8-2.5,4.2c-1.1,1.7-7.5,11.8-8.3,12.7l-4.3,0V27.7l-14.2,0v1.8l0,43.5h14.2
			L48.8,55.5z M107.3,38.7l4.9,16.1l-10.1,0L107.3,38.7z"/>
		<path class="st1" d="M336.2,73l0-14.9h5.4c0.7,0.2,7.4,13.4,7.9,14.8l16.7,0.1c-1.5-3-9.5-13.9-11.3-17.4
			c1.1-1.1,6.9-2.8,7.7-11.2c1.6-18.7-19.1-16.6-31.1-16.6c-2.7,0-7-0.2-9.5,0.1l0,45.1L336.2,73z M336.2,38.4
			c2.1,0,6.5-0.2,8.4,0.1c2.6,0.5,3.3,2,3.3,5c-0.1,6.1-4.6,5.2-11.6,5L336.2,38.4z"/>
		<path class="st1" d="M152.4,58.1h5.8c0.8,1.8,6.9,14,7.7,14.8l16.5,0L171,55.6c1.3-1.2,7.8-3.1,7.8-12.3
			c0-16.3-15.3-15.5-26.7-15.5c-4,0-10.3-0.4-14,0.1v1.9l0,43.1l14.2,0.1L152.4,58.1z M164,43.5c-0.1,6.5-5.8,5.1-11.6,5V38.4
			C159.3,38.3,164.2,37.2,164,43.5"/>
		<path class="st1" d="M240.9,73V56l14.9,0l0,17l14.1,0l0-45.2l-14.1,0v16.7l-14.9,0l0-16.7c-2.8,0-12.2-0.3-14.2,0.2l0,44.9
			L240.9,73z"/>
		<path class="st1" d="M315.4,73l0.2-11.2l-23.1,0l0-6.7h18.4c0-2.3,0.3-8.1-0.2-10l-18.2,0l0-6h22.2l-0.2-11.3
			c-4.1-0.1-34.5-0.3-36.2,0.2l0,44.9L315.4,73z"/>
		<path class="st1" d="M193.7,71.3c3.8,1.8,8.4,2.6,13.2,2.6c4.2,0,10.2-0.9,13.3-2.8l-1.4-10.2c-1.5,0-8,2.9-14.8,1.3
			c-5.2-1.2-6.2-5.2-6.2-11.3c0-10.3,2.5-13.1,13.6-12.2c1.8,0.1,6.5,1.2,7.4,1.1l1.4-11c-8.4-1.9-18.6-3.3-26.8,1.3
			c-3.7,2-5.9,4.1-7.8,7.9C180.6,47.2,181.8,65.5,193.7,71.3"/>
		<polygon class="st1" points="132.3,27.7 121.8,27.7 121.7,37.4 132.3,37.4 		"/>
		<polygon class="st1" points="93,27.7 82.5,27.7 82.5,37.4 93,37.4 		"/>
	</g>
</g>
</svg>
