<?xml version="1.0" encoding="utf-8"?>
<!-- Generator: Adobe Illustrator 25.3.0, SVG Export Plug-In . SVG Version: 6.00 Build 0)  -->
<svg version="1.1" id="Layer_1" xmlns="http://www.w3.org/2000/svg" xmlns:xlink="http://www.w3.org/1999/xlink" x="0px" y="0px"
	 viewBox="0 0 750.2 400.1" style="enable-background:new 0 0 750.2 400.1;" xml:space="preserve">
<path d="M164.5,87.4c-7.4-14.6-9.7-30.5-9.9-37.8c-0.3-0.6-0.4-0.9-0.4-0.9l-26.4,8.1l0.1,1.1c2.3,18.2,2.9,33.9,1.8,47.5h48.6
	C173,101.1,168.3,95,164.5,87.4z"/>
<path d="M277.1,57.7l0.2-1.3l-25.7-7.7c-0.5-0.1-0.9-0.1-0.9-0.1c0,0.4-0.2,0.8-0.4,1.3c-0.3,9.4-3.4,24.7-9.6,37.2
	c-3.8,7.8-8.5,13.9-13.9,18.3h48.6C274.2,91.7,274.8,76,277.1,57.7z"/>
<path d="M292.5,155.3c-0.9-1.2-1.9-2.5-2.8-3.9H115.4c-0.9,1.4-1.9,2.7-2.8,3.9H292.5z"/>
</svg>
