<?xml version="1.0" encoding="utf-8"?>
<!-- Generator: Adobe Illustrator 25.3.0, SVG Export Plug-In . SVG Version: 6.00 Build 0)  -->
<svg version="1.1" id="Layer_1" xmlns="http://www.w3.org/2000/svg" xmlns:xlink="http://www.w3.org/1999/xlink" x="0px" y="0px"
	 viewBox="0 0 750.2000122 400.1000061" style="enable-background:new 0 0 750.2000122 400.1000061;" xml:space="preserve">
<path d="M123.1047363,211.4407043v-75.1749878c-0.6861572,1.7884521-1.4179077,3.5351562-2.2047119,5.234314
	c-3.5975342,7.7661743-7.583374,13.2418823-10.8835449,16.8710938l0.2355957,53.0695801H123.1047363z"/>
<path d="M284.1000366,141.3000183c-1.185791-2.5755615-2.2562256-5.2566528-3.2145996-8.0481567v78.1888428h13.3084717
	l0.2389526-53.8186035C291.2556152,153.9720764,287.4862061,148.6664124,284.1000366,141.3000183z"/>
<path d="M466.4452515,211.4407043v-77.6553955c-0.914856,2.5961304-1.9274902,5.100769-3.0452881,7.5147095
	c-3.9112549,8.508606-8.3399658,14.2852783-11.8007812,17.8813477l0.4641113,52.2593384H466.4452515z"/>
<path d="M626.5999756,141.3000183c-0.8503418-1.8469238-1.6407471-3.7487183-2.3740845-5.7055664v75.8462524h14.6610718
	l0.4553833-51.2749023C635.7655029,156.7229309,630.8742676,150.6758728,626.5999756,141.3000183z"/>
</svg>
