<?xml version="1.0" encoding="utf-8"?>
<!-- Generator: Adobe Illustrator 25.3.0, SVG Export Plug-In . SVG Version: 6.00 Build 0)  -->
<svg version="1.1" id="Layer_1" xmlns="http://www.w3.org/2000/svg" xmlns:xlink="http://www.w3.org/1999/xlink" x="0px" y="0px"
	 viewBox="0 0 750.2 400.1" style="enable-background:new 0 0 750.2 400.1;" xml:space="preserve">
<path d="M203.1,157.6l-83.6-13.2c-0.2,0.4-0.4,0.9-0.7,1.3l84.3,13.4l83.3-13.1c-0.2-0.4-0.4-0.8-0.7-1.3L203.1,157.6z"/>
<path d="M275,100.4l-52.9,8.3c-1.2,0.7-2.5,1.4-3.8,2l56.8-8.9C275.1,101.3,275.1,100.9,275,100.4z"/>
<path d="M182.5,108.5l-52.5-8.3c0,0.5,0,0.9-0.1,1.4l56.1,8.9C184.9,109.8,183.7,109.2,182.5,108.5z"/>
</svg>
