<?xml version="1.0" encoding="utf-8"?>
<!-- Generator: Adobe Illustrator 25.3.0, SVG Export Plug-In . SVG Version: 6.00 Build 0)  -->
<svg version="1.1" id="Layer_1" xmlns="http://www.w3.org/2000/svg" xmlns:xlink="http://www.w3.org/1999/xlink" x="0px" y="0px"
	 viewBox="0 0 750.2 400.1" style="enable-background:new 0 0 750.2 400.1;" xml:space="preserve">
<path d="M277.1,57.7l0.2-1.3l-25.7-7.7c-0.5-0.1-0.9-0.1-0.9-0.1c0,0.4-0.2,0.8-0.4,1.3c-0.3,9.4-3.4,24.7-9.6,37.2
	c-5.7,11.6-13.3,19.5-22.4,23.6l56.8-8.9C274.4,89,275,74.4,277.1,57.7z"/>
<path d="M186.1,110.4c-8.7-4.1-16-11.9-21.6-23c-7.4-14.6-9.7-30.5-9.9-37.8c-0.3-0.6-0.4-0.9-0.4-0.9l-26.4,8.1l0.1,1.1
	c2.1,16.5,2.8,30.9,2,43.6l11.8,1.9L186.1,110.4z"/>
</svg>
