<?xml version="1.0" encoding="utf-8"?>
<!-- Generator: Adobe Illustrator 25.3.0, SVG Export Plug-In . SVG Version: 6.00 Build 0)  -->
<svg version="1.1" id="Layer_1" xmlns="http://www.w3.org/2000/svg" xmlns:xlink="http://www.w3.org/1999/xlink" x="0px" y="0px"
	 viewBox="0 0 750.2 400.1" style="enable-background:new 0 0 750.2 400.1;" xml:space="preserve">
<polygon points="447.6,172.5 447.6,218.8 643.1,218.8 643.2,172.5 "/>
<path d="M447.7,306.3v46.8c0,0,0.1,0,0.2,0v0.1c0.1,0,0.3,0.1,0.6,0.1c0,0,47.8,24.4,95.3,24.4s99.4-24.7,99.4-24.7l0.1-46.7
	L447.7,306.3L447.7,306.3z"/>
<path d="M507.8,54.2c-1.4-1.3-5.4-4.8-8-5.6l0.1-0.6h-0.4l-29.2,8.8l0.1,0.9c0.5,4.1,0.9,8.1,1.3,12l40.4-11.9
	C510.7,56.7,509.3,55.5,507.8,54.2z"/>
<path d="M618.4,68.8c0.3-3.6,0.7-7.3,1.2-11.1l0.2-1.5l0.1-0.4l-26-7.9l-0.3-0.1c0,0-0.5,0-1.3-0.1l-0.1,0.7c-1.2,0-3.6,1.9-5.5,3.5
	c-1,0.8-2,1.6-3,2.3c-1.3,1.1-2.6,2.2-4,3.2L618.4,68.8z"/>
<polygon points="104.2,172.5 104.2,218.8 299.7,218.8 299.8,172.5 "/>
<path d="M104.3,353.3c0.1,0,0.2,0,0.3,0v0.1c0,0,55.5,3.2,95.8,2.6c42.9-0.6,99.5-2.7,99.5-2.7l-0.1-47H104.3L104.3,353.3z"/>
<path d="M127.8,56.8l0.1,1.1c0.6,4.4,1,8.7,1.4,12.9l27-7.9c-1.1-5.5-1.6-10.1-1.6-13.2c-0.3-0.5-0.4-0.8-0.4-0.9l-2,0.6L127.8,56.8
	z"/>
<path d="M275.9,68.7c0.3-3.6,0.7-7.2,1.2-11l0.2-1.3l-25.7-7.7c-0.5-0.1-0.9-0.1-0.9-0.1c0,0.4-0.2,0.8-0.4,1.3
	c-0.1,3.1-0.5,6.8-1.2,10.9L275.9,68.7z"/>
</svg>
