<?xml version="1.0" encoding="utf-8"?>
<!-- Generator: Adobe Illustrator 25.3.0, SVG Export Plug-In . SVG Version: 6.00 Build 0)  -->
<svg version="1.1" id="Layer_1" xmlns="http://www.w3.org/2000/svg" xmlns:xlink="http://www.w3.org/1999/xlink" x="0px" y="0px"
	 viewBox="0 0 750.2 400.1" style="enable-background:new 0 0 750.2 400.1;" xml:space="preserve">
<path d="M104.2,163.6l0,1.4h195.6l0-2.1c-0.6-0.5-1.3-1.1-2.1-1.8H107.4C106.1,162.3,105,163.1,104.2,163.6z"/>
<rect x="104.2" y="178.8" width="195.6" height="3.9"/>
<rect x="104.2" y="196.2" width="195.5" height="3.9"/>
<rect x="104.2" y="213.9" width="195.5" height="3.9"/>
<rect x="104.2" y="231.3" width="195.5" height="3.9"/>
<rect x="104.2" y="249.1" width="195.5" height="3.9"/>
<rect x="104.3" y="266.5" width="195.4" height="3.9"/>
<rect x="104.3" y="284.2" width="195.5" height="3.9"/>
<rect x="104.3" y="301.6" width="195.5" height="3.9"/>
<rect x="104.3" y="319.4" width="195.5" height="3.9"/>
<rect x="104.3" y="337.2" width="195.6" height="3.9"/>
</svg>
