<?xml version="1.0" encoding="utf-8"?>
<!-- Generator: Adobe Illustrator 25.3.0, SVG Export Plug-In . SVG Version: 6.00 Build 0)  -->
<svg version="1.1" id="Layer_1" xmlns="http://www.w3.org/2000/svg" xmlns:xlink="http://www.w3.org/1999/xlink" x="0px" y="0px"
	 viewBox="0 0 750.2000122 400.1000061" style="enable-background:new 0 0 750.2000122 400.1000061;" xml:space="preserve">
<path d="M142.355896,341.0530701c-15.3604126-16.3288574-28.0715942-85.835144-31.7924805-170.9472046
	c3.7208862,85.1120605,9.1557007,152.4293213,21.7914429,170.9472046c3.5010986,5.1309814,6.4949951,9.7904663,9.0333252,14.0211182
	c4.2477417,0.1541748,8.7028809,0.3019409,13.2773438,0.4344482
	C151.5390625,351.297821,147.484375,346.5049133,142.355896,341.0530701z"/>
<path d="M264.1615601,354.4884949c2.4625244-4.0751953,5.3380127-8.5388184,8.6791992-13.4354248
	c12.319519-18.0544434,17.7937622-82.4996948,21.5084839-164.5944824l0.0014038-0.3251343
	c-4.0455933,82.3493042-16.5148926,148.9781494-31.5108643,164.9196167
	c-4.8710938,5.1782227-8.7796631,9.7658081-11.8387451,13.8214111
	C255.5576782,354.7459412,259.9716797,354.6159973,264.1615601,354.4884949z"/>
<path d="M482.937561,366.6109314c-14.5197144-17.7428589-26.6707153-90.109314-31.1002197-180.6132812
	c-0.2564697-5.2400513-0.4886475-10.5371704-0.6922607-15.8917847
	c3.5306396,92.8353271,8.6055298,167.2454224,19.9102783,192.7975464c3.7651978,1.4002686,7.8999023,2.8475952,12.3342285,4.2650757
	C483.2374878,366.9815979,483.0916138,366.7991638,482.937561,366.6109314z"/>
<path d="M641.3675537,170.1059265c-0.6095581,16.0268555-1.461792,31.567688-2.5259399,46.4419556
	c-5.3295898,74.4951172-16.0098267,132.1578979-28.5421143,149.1296387
	c4.2022095-1.3566895,8.1224976-2.7176514,11.6884155-4.0193481
	C632.921875,334.9988098,637.8925781,261.4761658,641.3675537,170.1059265z"/>
</svg>
