<?xml version="1.0" encoding="utf-8"?>
<!-- Generator: Adobe Illustrator 25.3.0, SVG Export Plug-In . SVG Version: 6.00 Build 0)  -->
<svg version="1.1" id="Layer_1" xmlns="http://www.w3.org/2000/svg" xmlns:xlink="http://www.w3.org/1999/xlink" x="0px" y="0px"
	 viewBox="0 0 120 60" style="enable-background:new 0 0 120 60;" xml:space="preserve">
<style type="text/css">
	.st0{fill:#1D1D1B;}
	.st1{fill:#E1251B;}
</style>
<g>
	<polygon class="st0" points="8.6254997,35.2279243 11.3266602,35.2279243 11.3266602,38.3667946 17.0214405,38.3667946 
		17.0214405,35.2279243 19.7229996,35.2279243 19.7229996,44.0359459 17.0214405,44.0359459 17.0214405,40.7013359 
		11.3266602,40.7013359 11.3266602,44.0359459 8.6254997,44.0359459 	"/>
	<path class="st0" d="M26.2132607,35.2280045H29.72925l4.8422909,8.807621h-3.004879l-0.8392792-1.5585594h-5.4765205
		l-0.7895699,1.5585594h-3.0165291L26.2132607,35.2280045z M26.2610397,40.5802231h3.4561691l-1.7527504-3.308979
		L26.2610397,40.5802231z"/>
	<path class="st0" d="M36.2983398,35.2280731h8.15205c2.0817108,0,2.6405907,1.0346413,2.6405907,2.6161194v0.559269
		c0,1.1783409-0.2664299,1.8712006-1.508461,2.1644287v0.0229111c0.8031616,0.1464119,1.4719505,0.4986801,1.4719505,1.948101
		v1.4968109h-2.6996193v-1.0606499c0-0.9224014-0.2672005-1.2276688-1.1084213-1.2276688h-4.2453613v2.2883186h-2.7027283
		V35.2280731z M39.0010681,39.5569344h4.4647789c0.7289886,0,0.9989204-0.2901115,0.9989204-0.9243317v-0.2905083
		c0-0.7806282-0.3911018-0.9243393-1.2420311-0.9243393h-4.2216606
		C39.0010757,37.4177551,39.0010757,39.5569344,39.0010681,39.5569344z"/>
	<polygon class="st0" points="48.9183311,35.2279243 59.2118912,35.2279243 59.2118912,37.4175949 55.4154892,37.4175949 
		55.4154892,44.0359459 52.7150993,44.0359459 52.7150993,37.4175949 48.9183311,37.4175949 	"/>
	<path class="st0" d="M61.0403709,35.228035h7.3597527c2.5675735,0,3.1874161,1.2894211,3.1874161,3.0165291v0.753849
		c0,1.3134918-0.5705338,2.8215714-2.4817276,2.8215714h-5.3646584v2.2156906h-2.700779
		C61.0403748,44.035675,61.0403748,35.228035,61.0403709,35.228035z M63.7411499,39.6322441h4.1975784
		c0.6334534,0,0.8750076-0.4136086,0.8750076-0.9383087V38.353714c0-0.5965385-0.2908936-0.9359894-1.1060867-0.9359894h-3.9664993
		V39.6322441z"/>
	<path class="st0" d="M73.5503769,35.2279243h2.702713v5.0838699c0,1.1189117,0.3992615,1.5581703,1.5076828,1.5581703h2.675148
		c1.109993,0,1.508461-0.4392586,1.508461-1.5581703v-5.0838699h2.7034988v5.6691589
		c0,2.1881218-1.1332932,3.2347984-3.6150131,3.2347984h-3.8694229c-2.4821167,0-3.6130676-1.0466805-3.6130676-3.2347984
		V35.2279243z"/>
	<path class="st0" d="M86.8697891,35.2280731h8.1520462c2.0809326,0,2.6409836,1.0346413,2.6409836,2.6161194v0.559269
		c0,1.1783409-0.2687607,1.8712006-1.5100098,2.1644287v0.0229111c0.8035431,0.1464119,1.4719467,0.4986801,1.4719467,1.948101
		v1.4968109h-2.7011566v-1.0606499c0-0.9224014-0.2679825-1.2276688-1.1057129-1.2276688h-4.2469101v2.2883186h-2.7011795
		C86.8697968,44.0357132,86.8697968,35.2280731,86.8697891,35.2280731z M89.5709686,39.5569344h4.4651718
		c0.7289886,0,0.9973526-0.2901115,0.9973526-0.9243317v-0.2905083c0-0.7806282-0.3891525-0.9243393-1.2412567-0.9243393h-4.2212677
		V39.5569344z"/>
	<polygon class="st0" points="103.7960281,40.9701233 98.9160614,35.2279663 102.1753235,35.2279663 105.147171,38.8270645 
		108.1136017,35.2279663 111.3748169,35.2279663 106.4944763,40.9701233 106.4944763,44.035984 103.7960281,44.035984 	"/>
	<path class="st1" d="M53.6473389,10.8617554l0.666069,6.7764282c0.219429,2.4918308,1.8917885,4.2566204,3.2740211,4.6154709
		c0.3887711,0.1002102,0.9348183,0.0850601,0.9348183,0.0850601v1.7927494h-1.0256996
		c0-0.8190899-1.5426292-1.2668896-2.5294991-1.6078892c-1.3387413-0.4648895-3.7024002-1.7810993-3.9897995-4.7246208
		l-0.6124802-6.9371996C50.364769,10.8617544,53.6473389,10.8617544,53.6473389,10.8617554z"/>
	<path class="st1" d="M49.751049,10.0819654V6.7943454c0-0.842,0.7449112-1.57758,2.6603813-1.9589701l4.8387985-0.6979299
		V2.1815856l1.2715492-0.6816002v3.3016l-4.0398979,0.8462701c-1.3476715,0.2734199-2.1345291,0.95153-2.1345291,1.84829v2.5858107
		C52.3473511,10.0819559,49.751049,10.0819559,49.751049,10.0819654z"/>
	<path class="st1" d="M64.175827,10.8617554l-0.6660805,6.7764282c-0.2206001,2.4918308-1.8917885,4.2566204-3.2740211,4.6154709
		c-0.3895416,0.1002102-0.9379311,0.0850601-0.9379311,0.0850601v1.7927494h1.0303688
		c0-0.8190899,1.5403099-1.2668896,2.5279503-1.6078892c1.3387337-0.4648895,3.7035637-1.7810993,3.9909706-4.7246208
		l0.6120834-6.9371996C67.4591675,10.8617544,64.175827,10.8617544,64.175827,10.8617554z"/>
	<path class="st1" d="M68.071373,10.0819654V6.7943454c0-0.842-0.7441406-1.57758-2.6588364-1.9589701l-4.8403587-0.6979299
		V2.1815856l-1.2707787-0.6816002v3.3016l4.0402985,0.8462701c1.3468933,0.2734199,2.1333466,0.95153,2.1333466,1.84829v2.5858107
		C65.4750443,10.0819559,68.071373,10.0819559,68.071373,10.0819654z"/>
	<path class="st0" d="M8.5367098,52.9305649c0-2.4696808,1.3865004-3.0522499,3.7163897-3.0522499h3.0409899
		c3.6818209,0,4.1595201,0.7923012,4.13622,3.1804314h-2.5865993v-0.2330284c0-0.6058693-0.4427395-0.7802505-1.2117405-0.7802505
		h-2.8196297c-1.3628101,0-1.6191397,0.6404381-1.6191397,1.6890602v0.9087982c0,1.2234001,0.2563295,1.6894493,1.4793301,1.6894493
		h2.7613602c1.1651297,0,1.5146799-0.1165085,1.5146799-1.1651306h2.5865993v0.7922897
		c0,1.4214592-0.5126591,2.5399895-3.1109104,2.5399895h-4.1711588c-2.3298903,0-3.7163897-0.5825691-3.7163897-3.053051
		C8.5367107,55.4468727,8.5367107,52.9305649,8.5367098,52.9305649z"/>
	<path class="st0" d="M25.1980305,52.930645c0-2.470089,1.3865108-3.0526505,3.7163906-3.0526505h4.1478806
		c2.3302689,0,3.7167702,0.5825691,3.7167702,3.0526505v2.5162888c0,2.4704781-1.3865013,3.053051-3.7167702,3.053051h-4.1478806
		c-2.3298702,0-3.7163906-0.5825691-3.7163906-3.053051V52.930645z M27.8545494,54.643383
		c0,1.223011,0.256321,1.6894493,1.4797192,1.6894493h3.3085918c1.223381,0,1.4797211-0.4664307,1.4797211-1.6894493v-0.9087982
		c0-1.0486107-0.2563286-1.6890488-1.6195297-1.6890488h-3.0293503c-1.3628197,0-1.6191406,0.6404381-1.6191406,1.6890488v0.9087982
		H27.8545494z"/>
	<polygon class="st0" points="42.6284294,49.9714737 45.2150192,49.9714737 45.2150192,56.2395058 51.0286598,56.2395058 
		51.0286598,58.4066544 42.6284294,58.4066544 	"/>
	<polygon class="st0" points="56.4118805,49.9714737 58.9984703,49.9714737 58.9984703,56.2395058 64.8121109,56.2395058 
		64.8121109,58.4066544 56.4118805,58.4066544 	"/>
	<polygon class="st0" points="70.1952972,49.9714737 79.42276,49.9714737 79.42276,51.9285049 72.7818909,51.9285049 
		72.7818909,53.2804642 79.0732193,53.2804642 79.0732193,55.0281639 72.7818909,55.0281639 72.7818909,56.3793259 
		79.5742264,56.3793259 79.5742264,58.4066544 70.1952972,58.4066544 	"/>
	<path class="st0" d="M85.2369766,52.9305649c0-2.4696808,1.3864975-3.0522499,3.7167664-3.0522499h3.8915634
		c2.9357529,0,3.3435364,1.0598907,3.3435364,2.7031097v0.2675896h-2.5399933c0-0.8389015-0.4773178-0.9437599-1.3045731-0.9437599
		H89.536293c-1.3049393,0-1.6428299,0.3145905-1.6428299,1.7593498v1.0486298c0,1.4447708,0.3378906,1.7593498,1.6428299,1.7593498
		h2.7613831c0.6757736,0,1.3511734-0.1048698,1.3511734-0.9204597v-0.2446709h-3.2153931v-1.7476997h5.8019714v2.4001694
		c0,2.4234695-1.2583389,2.5399895-4.1707764,2.5399895H88.953743c-2.3302689,0-3.7167664-0.5825691-3.7167664-3.053051V52.9305649z
		"/>
	<polygon class="st0" points="102.0847626,49.9714737 111.3122177,49.9714737 111.3122177,51.9285049 104.6709671,51.9285049 
		104.6709671,53.2804642 110.9626694,53.2804642 110.9626694,55.0281639 104.6709671,55.0281639 104.6709671,56.3793259 
		111.4632874,56.3793259 111.4632874,58.4066544 102.0847626,58.4066544 	"/>
</g>
</svg>
