<?xml version="1.0" encoding="utf-8"?>
<!-- Generator: Adobe Illustrator 25.3.0, SVG Export Plug-In . SVG Version: 6.00 Build 0)  -->
<svg version="1.1" id="Layer_1" xmlns="http://www.w3.org/2000/svg" xmlns:xlink="http://www.w3.org/1999/xlink" x="0px" y="0px"
	 viewBox="0 0 120 60" style="enable-background:new 0 0 120 60;" xml:space="preserve">
<style type="text/css">
	.st0{fill:#FFFFFF;}
</style>
<g>
	<polygon class="st0" points="8.63251,35.22323 11.33329,35.22323 11.33329,38.36166 17.02728,38.36166 17.02728,35.22323 
		19.72845,35.22323 19.72845,44.03003 17.02728,44.03003 17.02728,40.69588 11.33329,40.69588 11.33329,44.03003 8.63251,44.03003 	
		"/>
	<path class="st0" d="M26.21781,35.22331h3.5155l4.84161,8.8064h-3.00446l-0.83916-1.55835h-5.47576l-0.78946,1.55835h-3.01611
		L26.21781,35.22331z M26.26558,40.57479h3.45569l-1.7525-3.30851L26.26558,40.57479z"/>
	<path class="st0" d="M36.30149,35.22338h8.15091c2.08142,0,2.64022,1.03449,2.64022,2.61576v0.55919
		c0,1.17817-0.26639,1.87094-1.50825,2.16413v0.02291c0.80305,0.14639,1.47175,0.49861,1.47175,1.94783v1.4966h-2.69925v-1.0605
		c0-0.92227-0.26716-1.2275-1.10826-1.2275h-4.24477v2.288h-2.70235V35.22338z M39.00384,39.55164h4.46416
		c0.72889,0,0.99878-0.29007,0.99878-0.9242v-0.29047c0-0.78052-0.39105-0.92421-1.24186-0.92421h-4.22108V39.55164z"/>
	<polygon class="st0" points="48.91972,35.22323 59.21185,35.22323 59.21185,37.4126 55.41597,37.4126 55.41597,44.03003 
		52.71596,44.03003 52.71596,37.4126 48.91972,37.4126 	"/>
	<path class="st0" d="M61.04007,35.22335h7.35872c2.56721,0,3.18697,1.28924,3.18697,3.01611v0.75374
		c0,1.3133-0.57044,2.82117-2.48138,2.82117h-5.36391v2.21538h-2.70041V35.22335z M63.74047,39.62694h4.197
		c0.63335,0,0.87489-0.41356,0.87489-0.93819v-0.34017c0-0.59646-0.29085-0.93586-1.10594-0.93586h-3.96594V39.62694z"/>
	<path class="st0" d="M73.54833,35.22323h2.70234v5.08317c0,1.11875,0.3992,1.55795,1.50747,1.55795h2.67477
		c1.10983,0,1.50825-0.4392,1.50825-1.55795v-5.08317h2.70312v5.66837c0,2.18782-1.13313,3.23435-3.61451,3.23435H77.1609
		c-2.48177,0-3.61256-1.04654-3.61256-3.23435V35.22323z"/>
	<path class="st0" d="M86.86588,35.22338h8.15091c2.08064,0,2.64061,1.03449,2.64061,2.61576v0.55919
		c0,1.17817-0.26873,1.87094-1.5098,2.16413v0.02291c0.80343,0.14639,1.47174,0.49861,1.47174,1.94783v1.4966h-2.70079v-1.0605
		c0-0.92227-0.26794-1.2275-1.10555-1.2275h-4.24632v2.288h-2.7008V35.22338z M89.56668,39.55164h4.46455
		c0.72889,0,0.99722-0.29007,0.99722-0.9242v-0.29047c0-0.78052-0.38909-0.92421-1.24107-0.92421h-4.22069V39.55164z"/>
	<polygon class="st0" points="103.78976,40.96463 98.91047,35.22328 102.16927,35.22328 105.14071,38.82187 108.10673,35.22328 
		111.36749,35.22328 106.48783,40.96463 106.48783,44.03006 103.78976,44.03006 	"/>
	<path class="st0" d="M53.64806,10.86046l0.66597,6.77548c0.2194,2.49148,1.89153,4.25602,3.27356,4.61483
		c0.38871,0.1002,0.93469,0.08505,0.93469,0.08505v1.7925h-1.02556c0-0.81898-1.54242-1.26671-2.52915-1.60767
		c-1.33855-0.46482-3.70189-1.78085-3.98924-4.72396l-0.6124-6.93624H53.64806z"/>
	<path class="st0" d="M49.75232,10.08078V6.79362c0-0.84189,0.7448-1.57736,2.66001-1.95869l4.83813-0.69783V2.18151L58.52183,1.5
		v3.30114l-4.03933,0.84615c-1.34748,0.27338-2.13423,0.9514-2.13423,1.84803v2.58545H49.75232z"/>
	<path class="st0" d="M64.17509,10.86046l-0.66599,6.77548c-0.22057,2.49148-1.89153,4.25602-3.27357,4.61483
		c-0.38948,0.1002-0.9378,0.08505-0.9378,0.08505v1.7925h1.03023c0-0.81898,1.54009-1.26671,2.5276-1.60767
		c1.33855-0.46482,3.70304-1.78085,3.99041-4.72396l0.61199-6.93624H64.17509z"/>
	<path class="st0" d="M68.07008,10.08078V6.79362c0-0.84189-0.74403-1.57736-2.65846-1.95869L60.57194,4.1371V2.18151L59.30134,1.5
		v3.30114l4.03974,0.84615c1.3467,0.27338,2.13306,0.9514,2.13306,1.84803v2.58545H68.07008z"/>
	<path class="st0" d="M8.73032,49.97269h2.58623v4.86919c0,1.07178,0.38406,1.49117,1.44418,1.49117h2.56293
		c1.06013,0,1.44456-0.4194,1.44456-1.49117v-4.86919h2.58624v5.42838c0,2.09696-1.08341,3.09883-3.45996,3.09883h-3.70422
		c-2.37654,0-3.45995-1.00187-3.45995-3.09883V49.97269z"/>
	<polygon class="st0" points="20.96251,49.97269 24.96963,49.97269 29.82755,56.10006 29.85085,56.10006 29.85085,49.97269 
		32.43708,49.97269 32.43708,58.4067 28.42958,58.4067 23.57204,52.27895 23.54874,52.27895 23.54874,58.4067 20.96251,58.4067 	"/>
	<rect x="34.18474" y="49.97276" class="st0" width="2.58624" height="8.434"/>
	<polygon class="st0" points="37.70292,49.97269 40.53379,49.97269 43.83027,56.23985 47.12713,49.97269 49.95802,49.97269 
		45.42627,58.4067 42.23425,58.4067 	"/>
	<polygon class="st0" points="50.75063,49.97269 59.9768,49.97269 59.9768,51.92945 53.33685,51.92945 53.33685,53.28122 
		59.62731,53.28122 59.62731,55.02867 53.33685,55.02867 53.33685,56.37965 60.12825,56.37965 60.12825,58.4067 50.75063,58.4067 	
		"/>
	<path class="st0" d="M61.54979,49.97257h7.80492c1.9921,0,2.52798,0.99023,2.52798,2.50469v0.5355
		c0,1.13041-0.25629,1.79445-1.44456,2.07365v0.02369c0.76888,0.13941,1.40961,0.47725,1.40961,1.86395v1.43253H69.2615v-1.01352
		c0-0.88538-0.25629-1.17662-1.05974-1.17662h-4.06573v2.19014h-2.58624V49.97257z M64.13602,54.11987h4.27504
		c0.69939,0,0.95528-0.27997,0.95528-0.88538V52.9549c0-0.74557-0.3728-0.88538-1.18826-0.88538h-4.04206V54.11987z"/>
	<path class="st0" d="M73.33897,55.64582h2.58585c0.01165,0.89704,0.37279,0.96654,1.11836,0.96654h3.16872
		c0.54754,0,1.10673-0.05785,1.10673-0.71063c0-0.73354-0.30289-0.78053-3.6347-0.78053c-3.89062,0-4.33331-0.4656-4.33331-2.53925
		c0-1.52611,0.13979-2.70273,3.40132-2.70273h3.61141c2.98232,0,3.26153,1.01352,3.26153,2.49303v0.26794h-2.58585
		c0-0.61743-0.06989-0.87373-1.25816-0.87373h-2.86583c-0.5821,0-0.97858,0.19844-0.97858,0.65238
		c0,0.73394,0.31454,0.75724,3.08756,0.74559c4.01876-0.01165,4.95073,0.233,4.95073,2.69108
		c0,2.27169-0.76887,2.64448-4.20515,2.64448h-3.13416c-2.35285,0-3.29648-0.44307-3.29648-2.27169V55.64582z"/>
	<rect x="85.57122" y="49.97276" class="st0" width="2.58585" height="8.434"/>
	<polygon class="st0" points="89.28719,49.97269 99.14246,49.97269 99.14246,52.06926 95.50813,52.06926 95.50813,58.4067 
		92.92151,58.4067 92.92151,52.06926 89.28719,52.06926 	"/>
	<polygon class="st0" points="104.012,55.47105 99.34084,49.97277 102.46297,49.97277 105.30511,53.4207 108.14725,49.97277 
		111.26937,49.97277 106.59823,55.47105 106.59823,58.40678 104.012,58.40678 	"/>
</g>
</svg>
