<?xml version="1.0" encoding="utf-8"?>
<!-- Generator: Adobe Illustrator 25.3.0, SVG Export Plug-In . SVG Version: 6.00 Build 0)  -->
<svg version="1.1" id="Layer_1" xmlns="http://www.w3.org/2000/svg" xmlns:xlink="http://www.w3.org/1999/xlink" x="0px" y="0px"
	 viewBox="0 0 400 140" style="enable-background:new 0 0 400 140;" xml:space="preserve">
<style type="text/css">
	.st0{fill:#1D1D1B;}
	.st1{fill:#FFFFFF;}
</style>
<g>
	<g>
		<path class="st0" d="M19.46491,60.05389c-5.26514,0-9.64062-1.78906-12.65283-5.17285
			c-1.4502-1.63574-2.53955-3.604-3.23975-5.85059c-1.8125-3.5752-2.36182-8.12695-1.60156-13.45117
			c1.2749-8.91064,5.19141-17.32764,11.02832-23.69971C19.01032,5.33466,26.35553,1.73016,33.68219,1.73016
			c5.19922,0,9.50928,1.76367,12.46387,5.09961c0.61279,0.68799,1.16553,1.4458,1.65039,2.26123
			c1.45068-3.08057,4.51123-4.24072,6.41064-4.96045c1.44824-0.56299,6.50098-2.40479,10.54052-2.40479
			c0.67578,0,2.73291,0,4.06348,1.50879c0.56348,0.63037,0.91162,1.43164,1.03369,2.38184
			c0.03564,0.03662,0.07031,0.07373,0.10498,0.1123c0.06348,0.0708,0.125,0.146,0.18457,0.2251
			c1.01221-0.66943,2.0752-1.10107,2.95166-1.45703c2.33008-0.99072,8.02246-2.76562,11.04492-2.76562
			c0.68213,0,2.75781,0,4.0332,1.51758c0.5166,0.61816,0.80957,1.35498,0.89258,2.24756
			c0.08203,0.07861,0.16162,0.16211,0.23682,0.25195c1.33594,1.58252,0.91846,3.63428,0.39062,6.23242
			c-0.07129,0.31006-0.12256,0.56982-0.17432,0.85156l-0.85693,3.69482c1.35742-0.67822,2.70215-1.00977,4.0835-1.00977
			c2.46533,0,4.55615,0.93066,6.04736,2.69141c0.78809,0.92529,1.40137,2.08398,1.82275,3.44336
			c0.7041,1.11084,1.20068,2.43359,1.48242,3.94531c3.98975-5.63525,8.88037-9.01855,13.87451-9.56885
			c0.32275-0.04541,0.68848-0.07031,1.04346-0.07031c2.92334,0,4.61914,1.49219,5.74121,2.479
			c0.0957,0.08252,0.20947,0.18018,0.31836,0.27197c0.26074-0.146,0.54932-0.32666,0.70264-0.43164l0.30859-0.19141
			c2.05811-1.18066,3.93799-2.15039,6.25537-2.15039c1.52197,0,2.69678,0.47217,3.4917,1.40332
			c0.51172,0.61475,0.80322,1.36328,0.87158,2.23193c0.09326,0.08594,0.18164,0.17676,0.26416,0.27393
			c0.81641,0.95947,1.04883,2.23975,0.70996,3.91211c-0.00488,0.02637-0.01025,0.05322-0.01514,0.07959
			c3.3418-5.38965,9.74658-8.24414,15.46729-8.24414c2.77051,0,6.46533,0.83008,8.52588,3.15918
			c0.74902,0.83984,1.24365,1.81836,1.46973,2.90918c1.02588,1.3584,1.42676,3.03223,1.15918,4.84961
			c-0.38867,2.70068-2.34131,6.98828-5.92529,6.98828c-0.55908,0-1.04199-0.104-1.45996-0.27832
			c0.65771,1.05322,1.29785,2.24121,1.77344,3.58008c1.65527,2.94336,2.22217,5.86035,1.75,9.10205
			c-1.4375,10.06494-11.44629,13.71875-17.82275,13.71875c-1.55664,0-6.85938-0.25098-9.72656-3.47803
			c-0.50439-0.56885-0.90723-1.20215-1.20264-1.88916c-3.41553,2.97705-8.58301,5.01172-11.32422,5.01172
			c-1.64648,0-2.94678-0.47656-3.86426-1.41553c-0.56201-0.57178-0.95215-1.29834-1.15918-2.16064
			c-0.06006-0.0542-0.11865-0.10938-0.1748-0.16748c-0.04346-0.04443-0.08496-0.08936-0.12549-0.13477
			c-2.24805,2.04785-5.27246,4.23535-9.16602,4.23535c-2.32324,0-4.2959-0.87646-5.70459-2.53467
			c-0.58398-0.68115-1.07031-1.51074-1.4458-2.46631c-0.98486-1.20654-1.66602-2.80322-1.99951-4.67139
			c-4.83691,6.24805-11.36719,9.67236-18.50879,9.67236h-0.38086c-2.84863-0.05762-6.7583-0.72998-9.26514-3.6084
			c-0.65869-0.75488-1.17139-1.6123-1.52441-2.5498c-0.21729-0.2666-0.41699-0.54395-0.59814-0.82959
			c-3.62646,4.57324-11.19921,6.56396-14.44531,6.56396c-2.10742,0-3.72607-0.65869-4.81055-1.95801
			c-0.46875-0.56445-0.81689-1.23828-1.0376-2.00586c-0.104-0.10449-0.2041-0.21289-0.2998-0.32666
			c-1.39111-1.68457-1.71143-4.16357-0.98096-7.58154c0.05371-0.25439,0.1084-0.50977,0.16357-0.76611
			c-0.84912,1.14111-1.74854,2.22998-2.68848,3.25439C34.28278,56.41718,26.87506,60.05389,19.46491,60.05389z M137.98346,44.59784
			c0.11768,0.15723,0.22754,0.32617,0.33154,0.50928c0.03125-0.04004,0.0542-0.08936,0.06299-0.14941
			c0.02881-0.22021-0.04443-0.54053-0.21875-0.94727c-0.52539-0.81641-1.1499-1.7998-1.71631-2.91992
			c-1.00488-1.59814-2.71533-4.32227-3.03027-8.04053c-0.63428,2.51367-1.2998,5.25342-1.91162,8.20312
			c0.73242-0.44043,1.52246-0.66846,2.33447-0.66846c2.83887,0,3.67676,2.57129,4.0791,3.80664L137.98346,44.59784z
			 M30.60211,18.62665c-0.85986,0.82275-2.34961,2.84033-4.08789,7.72754c-1.80566,5.06934-3.03418,10.89746-3.41992,13.57812
			c-0.16553,1.15479-0.26855,2.18848-0.30859,3.08643c0.896-0.89551,2.37891-2.97656,4.08301-7.75293
			c1.81299-5.08496,3.04297-10.93213,3.42725-13.62158C30.45709,20.52313,30.55963,19.51288,30.60211,18.62665z M63.59577,41.66278
			c0.12939,0.07471,0.25195,0.1582,0.36768,0.25c0.4917-2.02246,1.10156-4.16699,1.64843-6.08936
			c0.24658-0.83789,0.45068-1.55469,0.62451-2.20605c1.38672-5.13428,2.77588-10.53906,3.58252-15.375
			c-0.24951-0.13281-0.47607-0.29297-0.67822-0.47949L63.59577,41.66278z"/>
		<path class="st1" d="M64.74738,2.22862c1.06441,0,2.63036,0.1413,3.68688,1.3385c0.53368,0.59714,0.84166,1.35237,0.93111,2.28346
			c0.0718,0.06711,0.142,0.13786,0.20984,0.21352c0.16423,0.18298,0.30009,0.38632,0.4202,0.60139
			c1.08246-0.80952,2.29601-1.30353,3.27969-1.70267c2.326-0.98895,7.90598-2.729,10.85559-2.729
			c0.63102,0,2.52364,0,3.64882,1.33849c0.52229,0.62502,0.74525,1.34572,0.79102,2.16089
			c0.11818,0.10248,0.23266,0.21262,0.33832,0.33833c1.18597,1.40544,0.79807,3.27187,0.27377,5.85211
			c-0.0608,0.2603-0.11414,0.52794-0.1675,0.81796l-0.00741,0.03718l-1.04168,4.48386
			c-0.01846,0.08507-0.03877,0.17227-0.05795,0.25816c1.37413-0.85493,2.98802-1.5007,4.82825-1.5007
			c2.31859,0,4.27197,0.87,5.6635,2.51337c0.76991,0.90423,1.35155,2.03336,1.74639,3.33154
			c0.87977,1.36418,1.42863,3.09661,1.62711,5.08827c3.68036-5.61739,8.59582-9.80286,14.24525-10.42532
			c0.31923-0.04462,0.66116-0.06693,0.98827-0.06693c2.73666,0,4.34807,1.4203,5.41248,2.35725
			c0.18234,0.15614,0.42593,0.36434,0.58557,0.49075c0.34195-0.16361,0.8435-0.47591,1.04906-0.61718l0.28861-0.17848
			c1.98405-1.1377,3.80105-2.07458,5.99062-2.07458c1.37575,0,2.41737,0.41638,3.10919,1.22688
			c0.48401,0.58089,0.73424,1.28979,0.76402,2.14378c0.13239,0.11059,0.25854,0.22811,0.37091,0.36068
			c0.71457,0.84027,0.9048,1.98543,0.60043,3.48748c-0.36473,1.88877-0.95029,4.16415-1.61935,6.78161
			c-0.85144,3.3313-1.81656,7.09391-2.66797,11.2878c-0.03058,0.171-0.07608,0.40154-0.12947,0.63948
			c-0.00826,0.04122-0.01698,0.08475-0.02602,0.12997c0.842-0.84595,1.88194-1.40897,3.10042-1.40897
			c2.47824,0,3.2081,2.25311,3.60342,3.46518c0.02812,0.08443,0.06044,0.18193,0.09464,0.28327
			c0.22672,0.29211,0.40729,0.61177,0.5544,0.92921c0.26375-0.04736,0.7148-0.22559,0.78748-0.73657
			c0.04576-0.34584-0.05681-0.75595-0.25383-1.21602c-0.00423-0.00666-0.00827-0.01318-0.0125-0.01982
			c-0.54871-0.86459-1.16356-1.83395-1.71715-2.92914c-1.63939-2.61127-3.58763-6.10388-2.88194-11.0267
			c1.28479-8.92318,9.77631-13.74168,17.11249-13.74168c2.65312,0,6.19574,0.78078,8.14957,2.98923
			c0.71996,0.80743,1.18053,1.75089,1.37592,2.78973c0.99767,1.26881,1.38588,2.83888,1.132,4.563
			c-0.36473,2.53568-2.15895,6.55853-5.42783,6.55853c-2.31113,0-3.12451-2.03745-3.56531-3.14541
			c-0.01378-0.03521-0.03009-0.07543-0.04541-0.1138c-0.16248-0.16382-0.30655-0.33993-0.43585-0.52193
			c-0.04144,0.08407-0.07729,0.18611-0.09686,0.30854c-0.02969,0.20707-0.02591,0.41798,0.00185,0.6328
			c0.27029,0.41382,0.57382,0.84855,0.89598,1.30946c1.04172,1.48772,2.29478,3.27807,3.08534,5.5037
			c1.29955,2.3222,2.26706,5.14742,1.72623,8.86111c-1.39102,9.7411-11.12187,13.28805-17.32497,13.28805
			c-1.49779,0-6.62909-0.24536-9.35091-3.30898c-0.61044-0.6878-1.05525-1.47018-1.33141-2.32726
			c-0.00186-0.00211-0.00391-0.00404-0.00577-0.00618c-0.02011-0.02248-0.0383-0.04604-0.05804-0.06873
			c-3.38,3.22993-8.91444,5.35571-11.50744,5.35571c-1.51309,0-2.68375-0.42384-3.50455-1.26409
			c-0.59984-0.60984-0.91045-1.34205-1.06452-2.07989c-0.09213-0.07875-0.18327-0.15864-0.26807-0.24609
			c-0.16302-0.1675-0.30441-0.34318-0.42812-0.52452c-2.04588,1.92098-5.16656,4.47153-9.22433,4.47153
			c-2.17423,0-4.01398-0.81798-5.32155-2.35716c-0.57559-0.67136-1.03736-1.48136-1.38939-2.39811
			c-1.18177-1.41486-1.89268-3.38359-2.10538-5.70728c-4.71384,6.6208-11.33888,10.46255-18.84273,10.46255h-0.38048
			c-2.22718-0.04462-6.34738-0.52052-8.88641-3.43543c-0.6415-0.73577-1.12834-1.562-1.46171-2.4738
			c-0.38713-0.46595-0.71688-0.9652-0.98629-1.49843c-3.24618,4.80589-11.2287,6.9838-14.49884,6.9838
			c-1.96132,0-3.44375-0.60229-4.42464-1.77718c-0.45184-0.54382-0.77532-1.19268-0.97495-1.94861
			c-0.12725-0.12107-0.24893-0.24864-0.3632-0.3848c-1.27734-1.54666-1.57384-3.88157-0.87464-7.15339
			c0.22546-1.06418,0.46255-2.14243,0.70677-3.22775c-1.23032,1.875-2.59836,3.64148-4.09386,5.27114
			C34,55.98174,26.72461,59.55103,19.46495,59.55103c-5.12389,0-9.35827-1.72518-12.2772-5.00443
			c-1.41055-1.59064-2.45861-3.49393-3.13548-5.66571c-1.78157-3.52966-2.32693-8.02541-1.5838-13.23055
			C3.73006,26.83128,7.60715,18.51042,13.3695,12.2196c5.9145-6.43954,13.12864-9.9865,20.31266-9.9865
			c5.04034,0,9.22882,1.70287,12.08748,4.93004c0.801,0.89948,1.48207,1.90228,2.04452,2.99814
			c0.02339,0.03023,0.04559,0.06146,0.06875,0.09186c1.12509-3.60065,4.43936-4.87056,6.50261-5.65242
			C56.24057,3.87939,60.96166,2.22862,64.74738,2.22862 M64.23286,42.9604c0.52291-2.29353,1.25532-4.86462,1.88098-7.06396
			c0.22784-0.77334,0.43336-1.49464,0.60829-2.149c1.43941-5.33075,2.86464-10.90741,3.65495-15.801
			c-0.42541-0.16702-0.82625-0.42411-1.15775-0.83254c-0.13219-0.16045-0.23869-0.33031-0.32666-0.50666l-5.87629,25.32975
			c0.36552,0.14959,0.69243,0.37616,0.95566,0.67637C64.07018,42.72381,64.15591,42.84029,64.23286,42.9604 M22.26636,44.05711
			c1.2613-0.66628,3.131-3.17109,5.07582-8.62239c1.82439-5.11595,3.0637-11.00523,3.45114-13.71938
			c0.25502-1.77168,0.34002-3.09409,0.33409-4.07948c-1.0568,0.45538-2.97364,2.60775-5.08673,8.54997
			c-1.81702,5.10111-3.05589,10.97548-3.4438,13.67475C22.3297,41.72465,22.25118,43.07779,22.26636,44.05711 M64.74738,1.2231
			c-4.01645,0-8.8392,1.70668-10.72627,2.44046c-1.68655,0.63908-4.59082,1.73961-6.25638,4.43706
			c-0.38155-0.56749-0.79727-1.10434-1.24416-1.60617c-3.05152-3.44493-7.49159-5.26686-12.83841-5.26686
			c-7.46886,0-14.94571,3.66216-21.05323,10.31184C6.72352,17.98644,2.76195,26.49828,1.47309,35.50797
			c-0.76989,5.39256-0.21682,10.0183,1.64414,13.75149c0.72269,2.28319,1.83879,4.28598,3.31821,5.95428
			c3.11166,3.4958,7.61677,5.34282,13.02952,5.34282c7.55293,0,15.09239-3.69436,21.22952-10.40257
			c0.48739-0.53111,0.96413-1.07954,1.42875-1.64339c-0.42602,2.9261,0.00795,5.13136,1.3158,6.71496
			c0.07775,0.09268,0.15889,0.18316,0.24358,0.27174c0.2415,0.78476,0.60966,1.47803,1.09646,2.06396
			c1.18612,1.42068,2.93448,2.14011,5.19805,2.14011c3.20604,0,10.52713-1.89841,14.40435-6.23922
			c0.06425,0.08642,0.1302,0.17194,0.19769,0.25636c0.3736,0.96378,0.90691,1.84664,1.58688,2.62657
			c2.62832,3.0174,6.68441,3.72106,9.62418,3.77995l0.40061,0.00021c6.97977,0,13.38238-3.1914,18.24313-9.04025
			c0.38622,1.47849,1.00317,2.76458,1.82664,3.79364c0.39218,0.97761,0.89783,1.83095,1.50436,2.53841
			c1.5041,1.77052,3.60923,2.70821,6.08492,2.70821c3.81501,0,6.80226-1.98836,9.06971-3.97746
			c0.24458,0.80489,0.64639,1.49474,1.19847,2.05602c1.01327,1.03729,2.43436,1.5645,4.22141,1.5645
			c2.69887,0,7.65909-1.89439,11.15278-4.71479c0.27425,0.50774,0.60773,0.98364,0.99786,1.42319
			c3.0065,3.38405,8.493,3.64703,10.10292,3.64703c6.55194,0,16.83774-3.76875,18.32039-14.15144
			c0.48473-3.32831-0.08815-6.32493-1.80292-9.42017c-0.33575-0.92883-0.74532-1.7831-1.18282-2.56931
			c0.13686,0.01208,0.27843,0.01839,0.42435,0.01839c3.9294,0,5.99403-4.43791,6.4231-7.42089
			c0.2814-1.91082-0.12927-3.68066-1.18854-5.13197c-0.25433-1.13415-0.7798-2.15348-1.56415-3.0331
			c-2.16855-2.45118-6.01982-3.32556-8.90007-3.32556c-5.30815,0-11.1895,2.39583-14.8125,6.9466
			c-0.06175-0.98962-0.38445-1.83308-0.96654-2.51759c-0.05174-0.06103-0.10614-0.12074-0.16437-0.18025
			c-0.10289-0.89326-0.42625-1.67097-0.96407-2.31645c-0.90236-1.05729-2.20578-1.58875-3.8817-1.58875
			c-2.43862,0-4.46182,1.04434-6.49081,2.20784l-0.31729,0.19554c-0.09813,0.0668-0.24588,0.16182-0.40451,0.25833
			c-0.01614-0.01382-0.03193-0.02734-0.04726-0.04047c-1.09925-0.96775-2.95238-2.599-6.06647-2.599
			c-0.37895,0-0.76882,0.0265-1.12746,0.07661c-4.84058,0.53294-9.59413,3.66162-13.54494,8.87852
			c-0.29871-1.10371-0.72234-2.09758-1.26746-2.97119c-0.44138-1.39746-1.08074-2.59381-1.90157-3.55785
			c-1.58757-1.87489-3.81132-2.86703-6.42909-2.86703c-1.1227,0-2.24898,0.21775-3.36669,0.64951l0.61751-2.65775l0.00359-0.01548
			l0.01052-0.05275c0.05309-0.28798,0.1032-0.54034,0.16052-0.78575l0.00332-0.01418l0.01205-0.0593
			c0.55482-2.7302,0.99304-4.88671-0.49982-6.65582c-0.04404-0.05241-0.09052-0.1044-0.13972-0.1563
			c-0.11478-0.91612-0.43938-1.68449-0.98651-2.33923C87.12265,1.2283,84.87072,1.2283,84.1307,1.2283
			c-3.24023,0-9.01716,1.86023-11.24902,2.80919c-0.76122,0.30875-1.67274,0.67857-2.58338,1.21991
			c-0.16607-0.9252-0.53978-1.71751-1.1143-2.36034C67.70676,1.2231,65.47933,1.2231,64.74738,1.2231L64.74738,1.2231z
			 M23.41154,41.4444c0.04807-0.45552,0.10834-0.93636,0.18069-1.44115c0.38218-2.65934,1.60193-8.44425,3.39568-13.48
			c1.10359-3.10341,2.14754-5.11374,2.98633-6.34431c-0.04742,0.44209-0.10617,0.90681-0.17617,1.39314
			c-0.38111,2.66988-1.6017,8.47375-3.40298,13.52491C25.24759,38.31338,24.21276,40.2657,23.41154,41.4444L23.41154,41.4444z
			 M132.20168,40.36562c0.36223-1.68781,0.74043-3.30679,1.11729-4.85299c0.50697,1.98827,1.34724,3.60863,2.07877,4.84111
			c-0.45033-0.17141-0.96747-0.27177-1.56236-0.27177C133.27699,40.08197,132.72931,40.17791,132.20168,40.36562L132.20168,40.36562
			z"/>
	</g>
	<path class="st1" d="M18.25255,55.11621c-9.58657,0-15.71358-6.78904-13.93463-19.18478
		C6.82625,18.49408,19.88672,4.07575,33.69979,4.07575c9.57867,0,15.70568,6.78904,13.92675,19.18476
		C45.12561,40.69788,32.0577,55.11621,18.25255,55.11621 M32.64327,22.00382c0.39487-2.7364,1.10988-8.90085-2.33388-8.90085
		c-6.02865,0-10.225,18.69406-11.00778,24.09256c-0.39531,2.72901-1.10244,8.886,2.33344,8.886
		C27.6637,46.08154,31.86748,27.39494,32.64327,22.00382"/>
	<path class="st1" d="M59.68801,41.3269c-0.12947,0.83287-0.30439,2.44649,0.60783,2.44649
		c0.55495,0,1.14792-0.20819,1.71817-0.20819c0.95765,0,1.0644,1.18975,0.92751,2.17131
		c-0.83612,5.80743-10.46812,8.88593-14.12487,8.88593c-3.04844,0-4.65986-1.74002-3.59549-6.78904
		c2.4174-11.33238,6.02079-24.22637,7.9287-32.4208c0.27379-1.12284,0.12158-1.68055-0.8287-1.68055
		c-0.44821,0-0.92703,0.14873-1.3683,0.14873c-1.1326,0-1.66479-0.63205-1.46712-2.03742
		c0.50947-3.50235,3.2614-4.62519,5.64074-5.53237c2.92687-1.1154,6.81931-2.23821,9.68492-2.23821
		c1.97661,0,3.12453,0.6246,2.72923,3.36105L59.68801,41.3269z"/>
	<path class="st1" d="M85.18023,14.50094c-0.50945,2.38693-1.26949,4.9003-1.61935,7.35421
		c-0.07609,0.56514-0.0074,1.2641,0.49416,1.2641c1.07182,0,4.24969-5.24983,8.81818-5.24983
		c5.64075,0,6.91813,6.37267,5.77763,12.39579c-2.67583,13.86065-11.23558,24.77663-23.91603,24.77663
		c-4.62182,0-10.06491-2.09694-9.07662-9.02726c0.47883-3.28667,2.05226-8.39519,2.97978-11.76367
		c1.4597-5.39109,3.10921-11.76369,3.8924-17.22174c0.28119-1.96309,0.38-2.65464-1.29266-2.80336
		c-1.66482-0.13383-2.31857-0.27514-1.97616-2.72897c0.4408-3.01155,2.7821-3.99313,4.87286-4.83338
		c2.45544-1.04849,7.70088-2.58771,10.1257-2.58771c3.42844,0,2.74451,2.02259,1.9613,5.94875L85.18023,14.50094z
		 M77.95074,45.24126c-0.0306,0.98153-0.12199,2.37949,0.88904,2.37949c3.4971,0,6.63694-13.65243,6.7585-14.84219
		c0.12156-1.2641,0.4482-3.91874-1.01102-3.91874C81.3713,28.85982,77.95074,44.05895,77.95074,45.24126"/>
	<path class="st1" d="M132.39333,20.95093c-0.83655,4.20134-2.75194,10.49956-4.29517,18.06196
		c-0.21299,1.12282-0.7605,3.36106-0.58558,4.48384c0.11415,0.83286,0.50945,0.76594,1.1173,0.83286
		c0.82869,0.14872,1.3154,0.63207,1.1711,1.75489c-0.66165,4.55081-9.47238,8.61828-12.5816,8.61828
		c-5.01715,0-1.73299-5.95618-3.53471-5.95618c-1.45968,0-5.13175,6.29825-10.93956,6.29825
		c-5.19205,0-6.50747-5.67366-5.47369-11.33988c2.25824-12.61138,10.26302-24.36763,19.0812-25.34919
		c4.01402-0.48336,5.11646,2.87028,6.75066,2.87028c0.63101,0,1.74877-0.7659,2.31113-1.11536
		c1.71026-0.98158,3.29945-1.82187,5.04781-1.82187C132.04346,18.28881,132.78076,18.98781,132.39333,20.95093 M119.88036,28.37202
		c0.13643-0.91462,0.10627-2.32001-0.79853-2.24566c-3.03311,0.28255-8.30917,10.71522-8.89426,15.1991
		c-0.15216,1.04849-0.251,2.87028,0.89687,2.72902C114.11759,43.77192,119.49246,31.87435,119.88036,28.37202"/>
	<path class="st1" d="M155.31505,28.92375c-2.25829,0-1.68013-4.05257-3.82423-4.05257c-0.9577,0-1.85458,0.83281-2.0374,2.02998
		c-0.64587,4.55081,6.93344,7.9119,5.71684,16.31453c-1.24673,8.67776-9.92805,11.8306-15.62216,11.8306
		c-3.61078,0-10.07281-1.25665-9.22882-7.1385c0.30391-2.09698,1.78639-4.96723,3.70221-4.96723
		c2.36404,0,1.29222,4.68462,4.11282,4.68462c1.13258,0,2.53156-0.77329,2.7668-2.31253
		c0.52475-3.71055-6.00548-7.34674-4.86497-15.1991c1.20081-8.39526,9.46451-12.18015,15.27234-12.18015
		c2.92683,0,8.40009,1.19719,7.7236,5.88186C158.72816,25.91962,157.28374,28.92375,155.31505,28.92375"/>
</g>
<g>
	<g>
		<path class="st0" d="M255.46478,60.05389c-5.26562,0-9.64062-1.78906-12.65332-5.17285
			c-1.44824-1.63477-2.53809-3.60254-3.23926-5.8501c-1.8125-3.57568-2.36133-8.12695-1.60156-13.45166
			c1.27539-8.91016,5.19141-17.32715,11.02734-23.69922c6.0127-6.54541,13.35742-10.1499,20.68359-10.1499
			c5.19922,0,9.50977,1.76367,12.46387,5.09961c0.61426,0.68896,1.16699,1.44678,1.65137,2.26074
			c1.4502-3.08105,4.51074-4.24023,6.41113-4.95996c1.44727-0.56299,6.49707-2.40479,10.53906-2.40479
			c0.67578,0,2.7334,0,4.06445,1.50879c0.5625,0.63037,0.91016,1.43164,1.0332,2.38184
			c0.03516,0.03613,0.06934,0.07275,0.10352,0.11084c0.06445,0.07129,0.12598,0.14697,0.18555,0.22656
			c1.01465-0.6709,2.07715-1.10205,2.95215-1.45703c2.3291-0.99072,8.02148-2.76562,11.04492-2.76562
			c0.68164,0,2.75781,0,4.0332,1.51758c0.5166,0.61768,0.80859,1.354,0.89258,2.24756c0.08105,0.07812,0.16016,0.16064,0.23633,0.25
			c1.33594,1.58447,0.91895,3.63623,0.39062,6.23438c-0.07031,0.31006-0.12207,0.57031-0.1748,0.85205l-0.85645,3.69434
			c1.35742-0.67822,2.70312-1.00977,4.08398-1.00977c2.46484,0,4.55566,0.93066,6.04688,2.69141
			c0.78711,0.92334,1.40039,2.08203,1.82324,3.44287c0.70508,1.11133,1.20117,2.43408,1.48242,3.94531
			c3.99023-5.63525,8.88086-9.01807,13.875-9.56836c0.32227-0.04541,0.68848-0.07031,1.04297-0.07031
			c2.92285,0,4.61816,1.49219,5.74023,2.479c0.09668,0.08252,0.21094,0.18018,0.31934,0.27197
			c0.26172-0.14648,0.5498-0.32666,0.70215-0.43115l0.30957-0.19238c2.05664-1.18018,3.93652-2.1499,6.25488-2.1499
			c1.52246,0,2.69727,0.47217,3.49219,1.40381c0.51074,0.61328,0.80273,1.3623,0.87109,2.23096
			c0.09277,0.08643,0.18164,0.17676,0.26367,0.27441c0.81738,0.95996,1.0498,2.24023,0.71094,3.9126
			c-0.00586,0.02637-0.01074,0.05273-0.01562,0.07959c3.3418-5.39062,9.74609-8.24463,15.4668-8.24463
			c2.77148,0,6.46582,0.83008,8.52637,3.15918c0.74805,0.83838,1.24316,1.81689,1.46973,2.90918
			c1.02539,1.35742,1.42676,3.03125,1.15918,4.84912c-0.38867,2.70117-2.3418,6.98877-5.92578,6.98877
			c-0.55859,0-1.04102-0.10352-1.45898-0.27783c0.65723,1.05225,1.29688,2.24023,1.77246,3.58008
			c1.65527,2.94238,2.22266,5.85938,1.75,9.10156c-1.43652,10.06494-11.44531,13.71875-17.82227,13.71875
			c-1.55664,0-6.85938-0.25098-9.72656-3.47803c-0.50488-0.56982-0.9082-1.20361-1.20312-1.89014
			c-3.3418,2.8999-8.5918,5.0127-11.32324,5.0127c-1.64746,0-2.94727-0.47656-3.86426-1.41602
			c-0.5625-0.57129-0.95215-1.29736-1.15918-2.15967c-0.06055-0.05371-0.11816-0.10938-0.1748-0.16699
			c-0.04395-0.04492-0.08594-0.08984-0.12598-0.13525c-2.24805,2.04736-5.27246,4.23486-9.16602,4.23486
			c-2.32324,0-4.2959-0.87646-5.7041-2.53467c-0.58398-0.68115-1.07031-1.51074-1.44629-2.46582
			c-0.98438-1.20654-1.66602-2.80371-2-4.67236c-4.83691,6.24902-11.36719,9.67285-18.50879,9.67285h-0.37988
			c-2.84863-0.05762-6.75879-0.72998-9.26562-3.6084c-0.65723-0.75391-1.16992-1.61133-1.52441-2.5498
			c-0.21777-0.2666-0.41699-0.54395-0.59863-0.83008c-3.62598,4.57373-11.19922,6.56445-14.44531,6.56445
			c-2.10742,0-3.72559-0.65918-4.80957-1.95801c-0.46777-0.56299-0.81641-1.23682-1.03809-2.00635
			c-0.10449-0.104-0.20508-0.2124-0.2998-0.32617c-1.3916-1.68408-1.71191-4.16309-0.98047-7.58154
			c0.05371-0.25439,0.1084-0.50977,0.16309-0.76611c-0.84863,1.14062-1.74805,2.22949-2.68945,3.25439
			C270.28314,56.41718,262.87494,60.05389,255.46478,60.05389z M373.98334,44.59784
			c0.11816,0.15771,0.22754,0.32666,0.33105,0.50928c0.03125-0.04004,0.05469-0.08887,0.0625-0.14893
			c0.0293-0.2207-0.04395-0.54102-0.21777-0.94727c-0.52637-0.81934-1.15137-1.8042-1.71582-2.92041
			c-1.00586-1.59766-2.71582-4.32129-3.03125-8.03857c-0.63379,2.51367-1.2998,5.25195-1.91113,8.20117
			c0.73242-0.43994,1.52246-0.66846,2.33398-0.66846c2.83789,0,3.67578,2.56982,4.0791,3.8042L373.98334,44.59784z
			 M266.6015,18.62714c-0.86035,0.82275-2.34961,2.84033-4.08691,7.72705c-1.80762,5.07275-3.03516,10.89893-3.41992,13.57764
			c-0.16602,1.15723-0.26855,2.19092-0.30859,3.08691c0.89551-0.896,2.37891-2.97705,4.08203-7.75293
			c1.81641-5.09326,3.04492-10.93652,3.42676-13.62109C266.45599,20.52313,266.55853,19.51288,266.6015,18.62714z
			 M299.59662,41.66278c0.12891,0.07471,0.25098,0.1582,0.36621,0.25c0.49512-2.03271,1.1084-4.18799,1.6582-6.11963
			c0.2373-0.80762,0.44141-1.52441,0.61523-2.17578c1.38672-5.13574,2.77637-10.54297,3.58301-15.375
			c-0.25-0.13281-0.47656-0.29297-0.67871-0.47949L299.59662,41.66278z"/>
		<path class="st1" d="M300.74725,2.22862c1.06439,0,2.63037,0.1413,3.68689,1.3385
			c0.53369,0.59714,0.84164,1.35237,0.93112,2.28346c0.07178,0.06711,0.142,0.13786,0.20984,0.21352
			c0.16422,0.18298,0.30011,0.38632,0.4202,0.60139c1.08246-0.80952,2.29602-1.30353,3.27969-1.70267
			c2.32599-0.98895,7.90594-2.729,10.85556-2.729c0.63104,0,2.52365,0,3.64883,1.33849
			c0.52228,0.62502,0.74524,1.34572,0.79102,2.16089c0.11819,0.10248,0.2327,0.21262,0.33832,0.33833
			c1.186,1.40544,0.7981,3.27187,0.2738,5.85211c-0.06082,0.2603-0.11414,0.52794-0.16751,0.81796l-0.00742,0.03718
			l-1.04169,4.48386c-0.01843,0.08507-0.03879,0.17227-0.05795,0.25816c1.37415-0.85493,2.98801-1.5007,4.82828-1.5007
			c2.31857,0,4.27197,0.87,5.66348,2.51337c0.76993,0.90423,1.35153,2.03336,1.74637,3.33154
			c0.87976,1.36418,1.42865,3.09661,1.62714,5.08827c3.68036-5.61739,8.59583-9.80286,14.24524-10.42532
			c0.31921-0.04462,0.66116-0.06693,0.98828-0.06693c2.73663,0,4.34805,1.4203,5.41248,2.35725
			c0.18234,0.15614,0.42593,0.36434,0.58557,0.49075c0.34192-0.16361,0.84351-0.47591,1.04907-0.61718l0.2886-0.17848
			c1.98404-1.1377,3.80106-2.07458,5.9906-2.07458c1.37573,0,2.41742,0.41638,3.10922,1.22688
			c0.48398,0.58089,0.73422,1.28979,0.76401,2.14378c0.13239,0.11059,0.25854,0.22811,0.37091,0.36068
			c0.71457,0.84027,0.90479,1.98543,0.60043,3.48748c-0.36475,1.88877-0.95029,4.16415-1.61935,6.78161
			c-0.85144,3.3313-1.81656,7.09391-2.66794,11.2878c-0.03064,0.171-0.07611,0.40154-0.12949,0.63948
			c-0.00827,0.04122-0.017,0.08475-0.02603,0.12997c0.84198-0.84595,1.88196-1.40897,3.10043-1.40897
			c2.47821,0,3.2081,2.25311,3.60339,3.46518c0.02817,0.08443,0.06046,0.18193,0.09464,0.28327
			c0.22675,0.29211,0.40729,0.61177,0.55441,0.92921c0.26373-0.04736,0.71478-0.22559,0.78748-0.73657
			c0.04575-0.34584-0.05679-0.75595-0.25385-1.21602c-0.00421-0.00666-0.00827-0.01318-0.01251-0.01982
			c-0.54871-0.86459-1.16354-1.83395-1.7171-2.92914c-1.63937-2.61127-3.58765-6.10388-2.88196-11.0267
			c1.28479-8.92318,9.77634-13.74168,17.11249-13.74168c2.65311,0,6.19571,0.78078,8.14957,2.98923
			c0.71997,0.80743,1.18051,1.75089,1.37592,2.78973c0.99768,1.26881,1.38586,2.83888,1.13199,4.563
			c-0.36472,2.53568-2.15894,6.55853-5.4278,6.55853c-2.31116,0-3.12454-2.03745-3.56534-3.14541
			c-0.01376-0.03521-0.03006-0.07543-0.04541-0.1138c-0.16245-0.16382-0.30652-0.33993-0.43582-0.52193
			c-0.04147,0.08407-0.0773,0.18611-0.09686,0.30854c-0.02972,0.20707-0.02591,0.41798,0.00183,0.6328
			c0.27029,0.41382,0.57379,0.84855,0.89597,1.30946c1.04175,1.48772,2.2948,3.27807,3.08536,5.5037
			c1.29953,2.3222,2.26706,5.14742,1.7262,8.86111c-1.39102,9.7411-11.12183,13.28805-17.32492,13.28805
			c-1.4978,0-6.62912-0.24536-9.35089-3.30898c-0.61047-0.6878-1.0553-1.47018-1.33145-2.32726
			c-0.00186-0.00211-0.00391-0.00404-0.00577-0.00618c-0.02008-0.02248-0.03827-0.04604-0.05804-0.06873
			c-3.37997,3.22993-8.91443,5.35571-11.50745,5.35571c-1.51306,0-2.68375-0.42384-3.50452-1.26409
			c-0.59985-0.60984-0.91046-1.34205-1.06451-2.07989c-0.09216-0.07875-0.18329-0.15864-0.2681-0.24609
			c-0.16302-0.1675-0.30438-0.34318-0.4281-0.52452c-2.0459,1.92098-5.16656,4.47153-9.22433,4.47153
			c-2.17426,0-4.01398-0.81798-5.32153-2.35716c-0.57562-0.67136-1.03738-1.48136-1.3894-2.39811
			c-1.18176-1.41486-1.89267-3.38359-2.10538-5.70728c-4.71384,6.6208-11.3389,10.46255-18.84274,10.46255h-0.38046
			c-2.22717-0.04462-6.34738-0.52052-8.88641-3.43543c-0.64151-0.73577-1.12833-1.562-1.46173-2.4738
			c-0.38712-0.46595-0.71686-0.9652-0.98627-1.49843c-3.24619,4.80589-11.2287,6.9838-14.49887,6.9838
			c-1.96127,0-3.44373-0.60229-4.42459-1.77718c-0.45187-0.54382-0.77536-1.19268-0.97498-1.94861
			c-0.12726-0.12107-0.24893-0.24864-0.36319-0.3848c-1.27734-1.54666-1.57385-3.88157-0.87463-7.15339
			c0.22543-1.06418,0.46252-2.14243,0.70676-3.22775c-1.23032,1.875-2.59836,3.64148-4.09387,5.27114
			c-5.95258,6.50648-13.22797,10.07577-20.48761,10.07577c-5.1239,0-9.35826-1.72518-12.27722-5.00443
			c-1.41055-1.59064-2.45862-3.49393-3.13548-5.66571c-1.78157-3.52966-2.32692-8.02541-1.58379-13.23055
			c1.26158-8.81907,5.13867-17.13993,10.901-23.43075c5.91452-6.43954,13.12866-9.9865,20.31268-9.9865
			c5.04034,0,9.22882,1.70287,12.08746,4.93004c0.80103,0.89948,1.48209,1.90228,2.04453,2.99814
			c0.02341,0.03023,0.04559,0.06146,0.06876,0.09186c1.12509-3.60065,4.43936-4.87056,6.50262-5.65242
			C292.24042,3.87939,296.96152,2.22862,300.74725,2.22862 M300.23273,42.9604c0.52292-2.29353,1.25531-4.86462,1.88101-7.06396
			c0.22781-0.77334,0.43332-1.49464,0.60828-2.149c1.43939-5.33075,2.86462-10.90741,3.65497-15.801
			c-0.42545-0.16702-0.82626-0.42411-1.15778-0.83254c-0.13217-0.16045-0.23868-0.33031-0.32666-0.50666l-5.87628,25.32975
			c0.36551,0.14959,0.69241,0.37616,0.95566,0.67637C300.07007,42.72381,300.15579,42.84029,300.23273,42.9604 M258.26624,44.05711
			c1.26129-0.66628,3.13098-3.17109,5.07581-8.62239c1.8244-5.11595,3.06372-11.00523,3.45114-13.71938
			c0.25504-1.77168,0.34003-3.09409,0.33411-4.07948c-1.05679,0.45538-2.97366,2.60775-5.08673,8.54997
			c-1.81702,5.10111-3.05588,10.97548-3.44379,13.67475C258.32956,41.72465,258.25107,43.07779,258.26624,44.05711
			 M300.74725,1.2231c-4.01657,0-8.83923,1.70668-10.72626,2.44046c-1.68652,0.63908-4.59082,1.73961-6.25638,4.43706
			c-0.38156-0.5675-0.79733-1.1044-1.2442-1.6062c-3.05151-3.4449-7.49158-5.26683-12.83838-5.26683
			c-7.46887,0-14.94571,3.66216-21.05325,10.31184c-5.90541,6.44704-9.86696,14.95888-11.15582,23.96854
			c-0.7699,5.39256-0.21681,10.0183,1.64413,13.75149c0.72269,2.28319,1.83879,4.28598,3.31821,5.95428
			c3.11168,3.4958,7.61679,5.34282,13.02954,5.34282c7.55292,0,15.09238-3.69436,21.22949-10.40257
			c0.4874-0.53111,0.96417-1.07957,1.42877-1.64342c-0.42603,2.92608,0.00793,5.13139,1.3158,6.71498
			c0.07892,0.09406,0.1593,0.18382,0.24362,0.27199c0.24152,0.78471,0.60965,1.47787,1.0965,2.06377
			c1.186,1.42064,2.93439,2.14007,5.19794,2.14007c3.20605,0,10.52716-1.89839,14.40436-6.23921
			c0.06427,0.08646,0.13019,0.17192,0.19769,0.25636c0.37366,0.96381,0.90698,1.84671,1.58691,2.62656
			c2.62833,3.0174,6.68439,3.72106,9.62418,3.77995l0.4006,0.00021c6.9798,0,13.38242-3.19139,18.24313-9.04025
			c0.38623,1.47849,1.00317,2.76457,1.82666,3.79363c0.39218,0.97766,0.89786,1.83104,1.50439,2.53843
			c1.50403,1.7705,3.60919,2.70818,6.08487,2.70818c3.81497,0,6.80225-1.98836,9.06973-3.97745
			c0.24454,0.80489,0.64633,1.49471,1.19846,2.05602c1.01324,1.03729,2.43433,1.5645,4.22137,1.5645
			c2.69891,0,7.65912-1.89439,11.1528-4.71478c0.27426,0.50774,0.60773,0.98363,0.99789,1.42319
			c3.00644,3.38405,8.49295,3.64703,10.10291,3.64703c6.55191,0,16.83771-3.76875,18.32034-14.15144
			c0.48474-3.32829-0.0881-6.32493-1.80289-9.42017c-0.33575-0.92883-0.7453-1.7831-1.18283-2.56931
			c0.13702,0.01212,0.27829,0.01839,0.42438,0.01839c3.92938,0,5.99402-4.43791,6.42307-7.42089
			c0.2814-1.91089-0.12927-3.68069-1.18851-5.13197c-0.25436-1.13416-0.77985-2.1535-1.56415-3.0331
			c-2.16861-2.45118-6.01987-3.32556-8.90009-3.32556c-5.30817,0-11.18951,2.39584-14.8125,6.94662
			c-0.06177-0.98963-0.38446-1.83311-0.96655-2.51761c-0.05173-0.06103-0.10611-0.12074-0.16437-0.18025
			c-0.10287-0.89326-0.42624-1.67097-0.96405-2.31645c-0.90234-1.05729-2.20575-1.58875-3.88171-1.58875
			c-2.4386,0-4.46182,1.04434-6.49078,2.20784l-0.31729,0.19556c-0.09814,0.06679-0.24585,0.16179-0.40451,0.25832
			c-0.01614-0.01382-0.03195-0.02734-0.04727-0.04047c-1.09924-0.96775-2.95239-2.599-6.06647-2.599
			c-0.379,0-0.76886,0.0265-1.12747,0.07661c-4.84058,0.53294-9.59412,3.66162-13.54492,8.87853
			c-0.29877-1.10383-0.72229-2.09753-1.26749-2.97121c-0.44138-1.39739-1.08078-2.5939-1.90155-3.55786
			c-1.58752-1.87486-3.81131-2.867-6.42908-2.867c-1.12271,0-2.24899,0.21775-3.36673,0.64951l0.61752-2.65775l0.0036-0.01548
			l0.01053-0.05275c0.05307-0.28791,0.10318-0.54027,0.16052-0.78568l0.00333-0.01422l0.01205-0.05932
			c0.55481-2.7302,0.99304-4.88671-0.49991-6.65585c-0.04398-0.05238-0.09045-0.10439-0.13968-0.1563
			c-0.11478-0.91614-0.43936-1.68443-0.98648-2.33919c-1.42847-1.69925-3.68042-1.69925-4.42044-1.69925
			c-3.2402,0-9.01715,1.86023-11.24899,2.80919c-0.76126,0.30878-1.67276,0.67859-2.5834,1.21991
			c-0.16608-0.9252-0.53979-1.71753-1.11429-2.36034C303.70663,1.2231,301.47922,1.2231,300.74725,1.2231L300.74725,1.2231z
			 M259.41141,41.44438c0.0481-0.45556,0.10834-0.93633,0.18073-1.44112c0.38217-2.65941,1.60193-8.44434,3.39566-13.48003
			c1.10358-3.10339,2.14752-5.11375,2.98633-6.34433c-0.04742,0.44209-0.10617,0.90682-0.17618,1.39315
			c-0.38113,2.66991-1.60175,8.47379-3.40302,13.52491C261.24744,38.31339,260.21265,40.26569,259.41141,41.44438
			L259.41141,41.44438z M368.20157,40.3656c0.36218-1.68764,0.74048-3.30701,1.11728-4.85301
			c0.50699,1.98827,1.34723,3.60865,2.07874,4.84113c-0.45032-0.17141-0.96744-0.27175-1.56232-0.27175
			C369.27686,40.08197,368.72922,40.17789,368.20157,40.3656L368.20157,40.3656z"/>
	</g>
	<path class="st1" d="M254.25243,55.11621c-9.58658,0-15.71358-6.78904-13.93463-19.18478
		c2.50833-17.43735,15.5688-31.85568,29.38188-31.85568c9.57867,0,15.70566,6.78904,13.92673,19.18476
		C281.12549,40.69788,268.05756,55.11621,254.25243,55.11621 M268.64316,22.00382c0.39487-2.7364,1.10986-8.90085-2.33389-8.90085
		c-6.02866,0-10.22501,18.69406-11.00778,24.09256c-0.39531,2.72901-1.10243,8.886,2.33344,8.886
		C263.66357,46.08154,267.86734,27.39494,268.64316,22.00382"/>
	<path class="st1" d="M295.6879,41.3269c-0.12949,0.83287-0.30438,2.44649,0.60782,2.44649
		c0.55496,0,1.14792-0.20819,1.71817-0.20819c0.95767,0,1.06439,1.18975,0.92752,2.17131
		c-0.83612,5.80743-10.46814,8.88593-14.12488,8.88593c-3.04843,0-4.65985-1.74002-3.59549-6.78904
		c2.41742-11.33238,6.02081-24.22637,7.92871-32.4208c0.27377-1.12284,0.12158-1.68055-0.8287-1.68055
		c-0.44821,0-0.92703,0.14873-1.36829,0.14873c-1.1326,0-1.66479-0.63205-1.46713-2.03742
		c0.50946-3.50235,3.26138-4.62519,5.64075-5.53237c2.92685-1.1154,6.81931-2.23821,9.68491-2.23821
		c1.97662,0,3.12454,0.6246,2.72922,3.36105L295.6879,41.3269z"/>
	<path class="st1" d="M321.18011,14.50094c-0.50946,2.38693-1.2695,4.9003-1.61935,7.35421
		c-0.07608,0.56514-0.00742,1.2641,0.49417,1.2641c1.07181,0,4.24969-5.24983,8.81818-5.24983
		c5.64075,0,6.91812,6.37267,5.77762,12.39579c-2.67584,13.86065-11.2356,24.77663-23.91605,24.77663
		c-4.6218,0-10.06491-2.09694-9.0766-9.02726c0.47882-3.28667,2.05225-8.39519,2.97977-11.76367
		c1.45972-5.39109,3.10922-11.76369,3.8924-17.22174c0.28119-1.96309,0.38-2.65464-1.29263-2.80336
		c-1.66483-0.13383-2.31857-0.27514-1.97617-2.72897c0.4408-3.01155,2.7821-3.99313,4.87286-4.83338
		c2.45544-1.04849,7.70087-2.58771,10.1257-2.58771c3.42844,0,2.74451,2.02259,1.9613,5.94875L321.18011,14.50094z
		 M313.95062,45.24126c-0.03061,0.98153-0.12201,2.37949,0.88904,2.37949c3.4971,0,6.63693-13.65243,6.75848-14.84219
		c0.12155-1.2641,0.44821-3.91874-1.01102-3.91874C317.37119,28.85982,313.95062,44.05895,313.95062,45.24126"/>
	<path class="st1" d="M368.39322,20.95093c-0.83658,4.20134-2.75195,10.49956-4.2952,18.06196
		c-0.21298,1.12282-0.7605,3.36106-0.58557,4.48384c0.11417,0.83286,0.50946,0.76594,1.11731,0.83286
		c0.8287,0.14872,1.3154,0.63207,1.17108,1.75489c-0.66165,4.55081-9.47238,8.61828-12.58157,8.61828
		c-5.01715,0-1.733-5.95618-3.53473-5.95618c-1.45966,0-5.13174,6.29825-10.93954,6.29825
		c-5.19205,0-6.50748-5.67366-5.47369-11.33988c2.25824-12.61138,10.26303-24.36763,19.08121-25.34919
		c4.01401-0.48336,5.11646,2.87028,6.75064,2.87028c0.63101,0,1.74878-0.7659,2.31113-1.11536
		c1.71027-0.98158,3.29947-1.82187,5.04782-1.82187C368.04333,18.28881,368.78064,18.98781,368.39322,20.95093 M355.88025,28.37202
		c0.13641-0.91462,0.10626-2.32001-0.79855-2.24566c-3.03311,0.28255-8.30914,10.71522-8.89426,15.1991
		c-0.15216,1.04849-0.25098,2.87028,0.89688,2.72902C350.11746,43.77192,355.49234,31.87435,355.88025,28.37202"/>
	<path class="st1" d="M391.31491,28.92375c-2.25827,0-1.68011-4.05257-3.82422-4.05257c-0.9577,0-1.85458,0.83281-2.03741,2.02998
		c-0.64584,4.55081,6.93347,7.9119,5.71686,16.31453c-1.24673,8.67776-9.92807,11.8306-15.62216,11.8306
		c-3.61078,0-10.07281-1.25665-9.22882-7.1385c0.30389-2.09698,1.78638-4.96723,3.70221-4.96723
		c2.36404,0,1.29221,4.68462,4.11282,4.68462c1.13257,0,2.53156-0.77329,2.76678-2.31253
		c0.52475-3.71055-6.00546-7.34674-4.86496-15.1991c1.20081-8.39526,9.46451-12.18015,15.27234-12.18015
		c2.92682,0,8.40009,1.19719,7.7236,5.88186C394.72803,25.91962,393.2836,28.92375,391.31491,28.92375"/>
</g>
</svg>
