<?xml version="1.0" encoding="utf-8"?>
<!-- Generator: Adobe Illustrator 25.3.0, SVG Export Plug-In . SVG Version: 6.00 Build 0)  -->
<svg version="1.1" id="Layer_1" xmlns="http://www.w3.org/2000/svg" xmlns:xlink="http://www.w3.org/1999/xlink" x="0px" y="0px"
	 viewBox="0 0 400 140" style="enable-background:new 0 0 400 140;" xml:space="preserve">
<style type="text/css">
	.st0{fill:#FFCD00;}
</style>
<g>
	<path class="st0" d="M162.6,137.2c-1.2,0-2.5,0-3.7-0.1s-2.5-0.1-3.8-0.3V120c1.2-0.1,2.4-0.2,3.5-0.3c1.1-0.1,2.2-0.1,3.2-0.1
		c2.7,0,4.7,0.4,6,1.2c1.3,0.8,1.9,2,1.9,3.7c0,1.8-1,3-2.9,3.5v0.1c1.1,0.2,2,0.7,2.6,1.3c0.6,0.7,0.9,1.6,0.9,2.7
		c0,1.7-0.6,2.9-1.9,3.7C167.1,136.8,165.2,137.2,162.6,137.2z M162.1,126.8c0.9,0,1.6-0.1,2-0.4s0.6-0.7,0.6-1.4
		c0-0.6-0.2-1-0.6-1.3c-0.4-0.3-1-0.4-1.9-0.4c-0.8,0-1.5,0-2.1,0.1v3.3h2V126.8z M162.5,133.6c0.9,0,1.6-0.1,2-0.4
		c0.4-0.3,0.6-0.8,0.6-1.4c0-0.6-0.2-1.1-0.6-1.3c-0.4-0.3-1.1-0.4-2.1-0.4H160v3.5c0.1,0,0.2,0,0.3,0s0.2,0,0.4,0s0.4,0,0.7,0
		C161.7,133.6,162,133.6,162.5,133.6z"/>
	<path class="st0" d="M172.3,120h13.3v3.9h-8.2v2.6h7.3v4h-7.3v2.5h8.4v4h-13.6v-17H172.3z"/>
	<path class="st0" d="M188,120h5.2v13h7v4H188V120z"/>
	<path class="st0" d="M201.8,120h5.2v13h7v4h-12.1L201.8,120L201.8,120z"/>
	<path class="st0" d="M215.7,120H229v3.9h-8.2v2.6h7.3v4h-7.3v2.5h8.4v4h-13.6v-17H215.7z"/>
	<path class="st0" d="M237.5,137.3c-0.5,0-1,0-1.6,0s-1.1-0.1-1.7-0.1c-0.6-0.1-1.2-0.1-1.8-0.2c-0.6-0.1-1.1-0.2-1.7-0.3v-4.1
		c1.2,0.3,2.4,0.5,3.4,0.6s2,0.2,2.8,0.2c0.9,0,1.6-0.1,1.9-0.3c0.4-0.2,0.6-0.5,0.6-0.8c0-0.4-0.2-0.8-0.6-1
		c-0.4-0.2-1.1-0.4-2-0.5c-1-0.1-1.8-0.3-2.6-0.6c-0.7-0.3-1.4-0.6-1.9-1.1s-0.9-1-1.1-1.7c-0.3-0.7-0.4-1.4-0.4-2.3
		c0-1.7,0.6-2.9,1.9-3.9c1.3-0.9,3.1-1.4,5.4-1.4c0.4,0,0.8,0,1.2,0s0.8,0.1,1.3,0.1c0.5,0.1,0.9,0.1,1.5,0.2
		c0.5,0.1,1.1,0.2,1.8,0.3v4.1c-0.4-0.1-0.8-0.2-1.3-0.3c-0.4-0.1-0.9-0.2-1.3-0.2c-0.5-0.1-0.9-0.1-1.3-0.2c-0.4,0-0.8-0.1-1.2-0.1
		c-1.6,0-2.5,0.4-2.5,1.1c0,0.5,0.2,0.9,0.7,1.1c0.5,0.3,1.2,0.5,2.2,0.6c1,0.2,1.8,0.4,2.5,0.7c0.7,0.3,1.3,0.6,1.8,1
		c0.5,0.4,0.8,0.9,1,1.4c0.2,0.6,0.3,1.2,0.3,2C244.9,135.4,242.4,137.3,237.5,137.3z"/>
</g>
</svg>
