<?xml version="1.0" encoding="utf-8"?>
<!-- Generator: Adobe Illustrator 25.3.0, SVG Export Plug-In . SVG Version: 6.00 Build 0)  -->
<svg version="1.1" id="Layer_1" xmlns="http://www.w3.org/2000/svg" xmlns:xlink="http://www.w3.org/1999/xlink" x="0px" y="0px"
	 viewBox="0 0 400 200" style="enable-background:new 0 0 400 200;" xml:space="preserve">
<style type="text/css">
	.st0{fill:#FFFFFF;}
</style>
<g>
	<path class="st0" d="M134.6,52.5c0.7,0.1,1.5,0.2,2.2,0.3c5.8,0.8,10.9,3.1,15.2,7c5,4.5,8,10,9,16.6c2.3,14.8-7.5,29-22.2,32
		c-15.1,3.1-29.9-6.5-33.2-21.5c-3.4-15.1,6.1-30.2,21.2-33.6c1.5-0.3,3-0.4,4.6-0.7c0.2,0,0.3-0.1,0.5-0.1
		C132.8,52.5,133.7,52.5,134.6,52.5z M115.3,76.1c0.1,0.6,0.1,1.8,0.3,2.9c0.5,3.2,1.7,6.2,3.3,9.1c2.1,3.8,4.7,7.1,8.2,9.6
		c3.2,2.3,6.8,3.6,10.8,3.1c4.6-0.6,8.2-2.8,10.7-6.7c2.2-3.4,2.6-7.2,2-11.1c-0.4-3.1-1.5-6.1-2.9-8.9c-2.1-4-4.8-7.6-8.5-10.3
		c-2.8-2-5.8-3.3-9.2-3.3c-4.5,0-8.3,1.8-11.3,5.2C116.3,68.5,115.3,71.8,115.3,76.1z"/>
	<path class="st0" d="M323.6,107.8c-7.9,0-15.8,0-23.7,0c-2.3,0-4.5,0-6.8,0c-0.2,0-0.3,0-0.5,0c0-18,0-36,0-54.1
		c3.9,0,7.9,0,11.8,0c0,0.2,0,0.4,0,0.6c0,14.6,0,29.1,0,43.7c0,0.7-0.1,0.7,0.7,0.7c6,0,11.9,0,17.9,0c0.2,0,0.4,0,0.6,0
		C323.6,101.7,323.6,104.7,323.6,107.8z"/>
	<path class="st0" d="M76.4,53.6c0.2,0,0.3,0,0.5,0c3.6,0,7.2,0,10.8,0c0.2,0,0.3,0,0.6,0c0,15,0,30,0,45c6.4,0,12.7,0,19.1,0
		c0,3.1,0,6.1,0,9.1c-0.2,0-0.4,0-0.6,0c-9.9,0-19.9,0-29.8,0c-0.2,0-0.4,0-0.6,0C76.4,89.7,76.4,71.7,76.4,53.6z"/>
	<path class="st0" d="M175.7,147.5c-0.8-0.1-1.7-0.3-2.5-0.5c-5.7-1.4-10.1-6.3-10.8-12.2c-0.9-7.7,4.4-14.7,12.1-15.9
		c7.7-1.2,15.1,4.2,16.3,11.8c1.2,7.7-3.7,14.8-11.3,16.4c-0.6,0.1-1.3,0.2-1.9,0.3C177,147.5,176.4,147.5,175.7,147.5z
		 M166.8,130.6c0,0.2,0,0.5,0,0.9c0.6,4.4,2.6,8,6.1,10.7c1.8,1.4,3.9,2.2,6.3,2c4-0.4,7.2-3.8,7.3-7.8c0.1-3.1-0.9-5.8-2.5-8.4
		c-1.3-2.1-3-3.9-5.2-5c-1.6-0.8-3.4-1.2-5.2-0.9C169.4,122.9,166.8,126.2,166.8,130.6z"/>
	<path class="st0" d="M246.7,53.7c0,3,0,6,0,9c-6.4,0-12.7,0-19.1,0c0,4.5,0,8.9,0,13.4c6.4,0,12.7,0,19.1,0c0,2.7,0,5.3,0,8
		c-0.2,0-0.4,0-0.6,0c-6,0-12,0-18,0c-0.6,0-0.6,0-0.6,0.6c0,4.5,0,9.1,0,13.6c0,0.2,0,0.3,0,0.5c6.4,0,12.7,0,19.1,0c0,3,0,6,0,9
		c-10.3,0-20.6,0-30.9,0c0-0.2,0-0.4,0-0.5c0-17.7,0-35.3,0-53c0-0.4,0.1-0.6,0.6-0.6c10,0,19.9,0,29.9,0
		C246.4,53.7,246.5,53.7,246.7,53.7z"/>
	<path class="st0" d="M212.2,53.7c-0.5,1.2-0.9,2.3-1.4,3.4c-6.7,16.7-13.4,33.4-20.1,50.1c-0.2,0.5-0.4,0.6-0.9,0.6
		c-3.1,0-6.3,0-9.4,0c-0.3,0-0.5-0.1-0.6-0.4c-7.1-17.7-14.3-35.5-21.4-53.2c-0.1-0.1-0.1-0.3-0.2-0.5c0.1,0,0.3,0,0.4,0
		c3.7,0,7.4,0,11.1,0c0.4,0,0.5,0.2,0.6,0.5c3.5,8.8,7.1,17.5,10.6,26.3c1.9,4.6,3.7,9.2,5.6,13.8c0.1,0.1,0.1,0.3,0.2,0.5
		c0.1-0.3,0.2-0.4,0.2-0.6c5-12.6,10.1-25.1,15.1-37.7c0.3-0.9,0.7-1.7,1.1-2.6c0.1-0.1,0.2-0.3,0.4-0.3c2.9,0,5.8,0,8.6,0
		C212,53.7,212.1,53.7,212.2,53.7z"/>
	<path class="st0" d="M254.7,53.7c0.2,0,0.4,0,0.5,0c3.6,0,7.2,0,10.7,0c0.5,0,0.6,0.1,0.6,0.6c0,14.6,0,29.2,0,43.7
		c0,0.8-0.1,0.7,0.7,0.7c5.9,0,11.8,0,17.7,0c0.2,0,0.4,0,0.6,0c0,3,0,6,0,9.1c-10.3,0-20.6,0-30.9,0
		C254.7,89.7,254.7,71.7,254.7,53.7z"/>
	<path class="st0" d="M221.9,147c-1.6,0-3.1,0-4.7,0c0-7,0-14,0-20.9c0,0-0.1,0-0.1,0c0,0.1-0.1,0.2-0.1,0.4
		c-2.4,6.7-4.8,13.4-7.2,20.1c-0.1,0.4-0.3,0.5-0.7,0.5c-1,0-2,0-3,0c-0.4,0-0.5-0.1-0.6-0.4c-2.4-6.7-4.8-13.4-7.2-20.1
		c-0.1-0.1-0.1-0.3-0.2-0.4c0,0-0.1,0-0.1,0c0,7,0,13.9,0,20.9c-1.6,0-3.1,0-4.7,0c0-9.1,0-18.1,0-27.2c2.5,0,5,0,7.6,0
		c2.4,6.8,4.8,13.6,7.3,20.6c0.1-0.3,0.2-0.4,0.2-0.5c2.2-6.5,4.5-13.1,6.7-19.6c0.1-0.4,0.3-0.5,0.7-0.5c1.9,0,3.8,0,5.7,0
		c0.2,0,0.3,0,0.5,0C221.9,128.8,221.9,137.9,221.9,147z"/>
	<path class="st0" d="M160.1,147c-1.6,0-3.1,0-4.7,0c0-4.2,0-8.3,0-12.5c-3.7,0-7.3,0-11,0c0,4.2,0,8.3,0,12.4c-1.6,0-3.1,0-4.7,0
		c0-9,0-18.1,0-27.2c1.6,0,3.1,0,4.7,0c0,3.7,0,7.3,0,11c3.7,0,7.3,0,11,0c0-3.7,0-7.3,0-11c1.6,0,3.2,0,4.7,0
		C160.1,128.8,160.1,137.9,160.1,147z"/>
	<path class="st0" d="M224.7,119.8c4.9,0,9.8,0,14.7,0c0,1.4,0,2.7,0,4.1c-3.3,0-6.6,0-10,0c0,2.5,0,4.9,0,7.4c3.3,0,6.6,0,10,0
		c0,1.2,0,2.4,0,3.6c-3.3,0-6.6,0-10,0c0,2.7,0,5.3,0,8c3.3,0,6.6,0,10,0c0,1.4,0,2.7,0,4.1c-4.9,0-9.8,0-14.7,0
		C224.7,137.9,224.7,128.9,224.7,119.8z"/>
	<path class="st0" d="M259,124.3c-1.2,0.6-2.4,1.2-3.6,1.8c0-0.1-0.1-0.1-0.1-0.1c-0.6-1.6-1.8-2.5-3.4-2.8
		c-1.2-0.2-2.4-0.2-3.6,0.3c-1.3,0.5-2,1.4-2.1,2.8c-0.1,1.3,0.4,2.4,1.5,3.1c0.5,0.3,1,0.5,1.6,0.7c2,0.6,4.1,1.2,6.1,1.8
		c2.8,0.9,4.4,2.8,4.9,5.7c0.4,2.3,0,4.6-1.6,6.5c-1.3,1.6-3,2.5-4.9,2.9c-2.7,0.6-5.3,0.4-7.8-0.7c-2-0.9-3.3-2.5-4.1-4.5
		c-0.1-0.3-0.1-0.4,0.2-0.6c1.1-0.5,2.2-1.1,3.3-1.7c0,0.1,0.1,0.1,0.1,0.2c0.6,2.2,2.1,3.4,4.3,3.7c1.3,0.2,2.5,0.2,3.8-0.2
		c2.8-1,3.1-3.7,2.3-5.5c-0.3-0.7-0.9-1.3-1.6-1.5c-1.7-0.6-3.4-1.1-5.1-1.7c-1-0.3-1.9-0.6-2.9-0.9c-3.1-1.3-4.4-3.8-4.2-7
		c0.3-4.1,3.2-6.5,6.9-7.1c2.1-0.3,4.1-0.1,6.1,0.8c1.7,0.8,2.9,2,3.8,3.6C258.8,124,258.9,124.1,259,124.3z"/>
</g>
</svg>
