<?xml version="1.0" encoding="utf-8"?>
<!-- Generator: Adobe Illustrator 25.3.0, SVG Export Plug-In . SVG Version: 6.00 Build 0)  -->
<svg version="1.1" id="Layer_1" xmlns="http://www.w3.org/2000/svg" xmlns:xlink="http://www.w3.org/1999/xlink" x="0px" y="0px"
	 viewBox="0 0 750.2000122 400.1000061" style="enable-background:new 0 0 750.2000122 400.1000061;" xml:space="preserve">
<g>
	<path d="M476.9761963,77.5466614c1.4603882-1.6502686,3.0435791-3.2470703,4.7589111-4.7815552l-14.2404785-6.2401733
		L476.9761963,77.5466614z"/>
	<path d="M123.3654785,59.6471863l13.3233643,15.4876709c1.5610962-1.5751953,3.2427979-3.09552,5.0648804-4.5478516
		L123.3654785,59.6471863z"/>
	<path d="M628.8135376,58.8160706c0.0516357,0.0187988,0.1036987,0.0375366,0.1552734,0.0563354
		C628.9172363,58.8536072,628.8651733,58.8348694,628.8135376,58.8160706z"/>
	<path d="M632.0601196,60.0118103c0.0960693,0.0357666,0.1928101,0.0714722,0.2886963,0.1072388
		C632.2529297,60.0832825,632.156189,60.0475159,632.0601196,60.0118103z"/>
	<path d="M640.1125488,63.0987244c-0.1351318-0.0532837-0.2694702-0.1065674-0.4049683-0.1598511l-0.444458,0.5164185
		L640.1125488,63.0987244z"/>
	<path d="M638.4031372,62.4266663c0.1801147,0.0701904,0.3604736,0.1402588,0.539978,0.2104492
		C638.7635498,62.566925,638.583313,62.4967957,638.4031372,62.4266663z"/>
	<path d="M625.5073853,57.5765686l-1.0084229-0.3096313c0.3447266,0.1220703,0.6901245,0.2440796,1.0328979,0.366272
		L625.5073853,57.5765686z"/>
	<path d="M635.84375,61.6790466l0.1547241-0.1798706c-0.2469482-0.0944824-0.4924927-0.1890869-0.7406616-0.2835083
		c0.0691528,0.0263062,0.1384277,0.0526733,0.2075195,0.0789795L635.84375,61.6790466z"/>
	<path d="M610.999939,73.3999329c0.5-1.3999023,1-2.6999512,1.4000244-4c1.5-4.0998535,2.7999878-7.6999512,3.5-8.5998535
		c2.4283447-2.7197876,5.409729-3.7349243,6.8624268-4.0662842l-10.2734985-3.1542969l-19.5293579-2.9176636
		c0,0,4.161499,15.2589722,16.8441162,22.322998c0.901062,0.5018921,1.7438965,1.1017456,2.5211182,1.7778931l0.0601807-0.0252075
		C611.9335327,74.2866516,611.4720459,73.8406067,610.999939,73.3999329z"/>
	<path d="M467.4946289,66.5249329l14.2404785,6.2401733c2.0294189-1.8154297,4.2370605-3.5464478,6.664917-5.164978
		c7.8167725-3.9558105,16.842041-19.0088501,16.842041-19.0088501l-15.6235352,3.0117798l-13.0184326,3.9970703
		c-6.4920044,2.2059937-12.7243042,4.461853-18.6434937,6.7452393l1.5993652,0.7008057L467.4946289,66.5249329z"/>
	<path d="M141.7537231,70.5870056c3.1519775-2.5124512,6.7058105-4.8292236,10.7462769-6.8870239
		c-7.942749-6.067749-6.1748657-13.4146118-6.1748657-13.4146118l-15.6883545,5.3988037
		c-0.1553955-0.0206909-0.2620239-0.0966797-0.4368286-0.1841431l0.1000977,0.3000488
		c-2.8666992,0.9880371-5.6625366,1.9802856-8.4000854,2.9752197l1.4655151,0.8718872L141.7537231,70.5870056z"/>
	<path d="M265.1999512,57.3000793c3.7034912-1.8929443,6.2398682-2.3552246,7.8634644-2.3510742l-13.5518799-4.6636353
		c0,0,1.7678833,7.3468628-6.1748657,13.4146118c0.2769165,0.0648804,0.5436401,0.1248169,0.8153687,0.1871338
		c2.3067017-1.2614136,4.4448853-2.5151367,6.2479858-3.6871948
		C262.1999512,59.0000305,263.8000488,58.1001282,265.1999512,57.3000793z"/>
	<path d="M275.5983887,56.0919495l-0.0617676-0.2918701l-1.5873413-0.5462646L274,55.0000305l-0.0999756,0.5
		C274.4718018,55.696991,275.0315552,55.8946838,275.5983887,56.0919495z"/>
	<path d="M273.5393677,54.960968c0.1608276,0.0103149,0.3222656,0.0206299,0.4606323,0.0390625
		C273.8609619,54.9814758,273.7051392,54.9691467,273.5393677,54.960968z"/>
	<path d="M269.5692139,76.8696594l15.086731-17.5374146c-2.942749-1.0838013-5.9650879-2.1640625-9.0575562-3.2402954
		c-0.5668335-0.1972656-1.1265869-0.3949585-1.6983643-0.5919189l0.0999756-0.5
		c-0.1383667-0.0184326-0.2998047-0.0287476-0.4606323-0.0390625c-0.1477661-0.0094604-0.3087158-0.0115356-0.4759521-0.0119629
		c-1.6235962-0.0041504-4.1599731,0.4581299-7.8634644,2.3510742c-1.3999023,0.8000488-3,1.6999512-4.7999268,2.8998413
		c-1.8031006,1.1720581-3.9412842,2.4257812-6.2479858,3.6871948c-0.2519531,0.1377563-0.4960327,0.2750854-0.7520142,0.4129639
		C260.0166626,67.8786926,265.2929688,72.1567688,269.5692139,76.8696594z"/>
	<path d="M635.84375,61.6790466l-0.378418-0.3843994c-0.0690918-0.0263062-0.1383667-0.0526733-0.2075195-0.0789795
		c-0.9612427-0.3659668-1.9301758-0.7315063-2.9089966-1.0966187c-0.0958862-0.0357666-0.192627-0.0714722-0.2886963-0.1072388
		c-1.0213623-0.380249-2.0510864-0.7600708-3.0913086-1.1394043c-0.0515747-0.0187988-0.1036377-0.0375366-0.1552734-0.0563354
		c-1.0841064-0.3948975-2.1773071-0.7891846-3.2816772-1.1828613c-0.3427734-0.1221924-0.6881714-0.2442017-1.0328979-0.366272
		c-0.5335693-0.1889648-1.060791-0.3782959-1.598999-0.5669556c-0.0401001,0.008606-0.0947266,0.0240479-0.1375732,0.0338135
		c-1.4526978,0.3313599-4.434082,1.3464966-6.8624268,4.0662842c-0.7000122,0.8999023-2,4.5-3.5,8.5998535
		c-0.4000244,1.3000488-0.9000244,2.6000977-1.4000244,4c0.4721069,0.4406738,0.9335938,0.8867188,1.3850098,1.3375854
		c2.2714233,2.2685547,4.28302,4.6634521,6.0765381,7.1473999L635.84375,61.6790466z"/>
</g>
</svg>
