<?xml version="1.0" encoding="utf-8"?>
<!-- Generator: Adobe Illustrator 25.3.0, SVG Export Plug-In . SVG Version: 6.00 Build 0)  -->
<svg version="1.1" id="Layer_1" xmlns="http://www.w3.org/2000/svg" xmlns:xlink="http://www.w3.org/1999/xlink" x="0px" y="0px"
	 viewBox="0 0 750.2000122 400.1000061" style="enable-background:new 0 0 750.2000122 400.1000061;" xml:space="preserve">
<g>
	<path d="M448.6000977,169.3999329l-0.8000488,183.9001465c0.1000977,0,0.3000488,0.0998535,0.6000977,0.0998535
		c0.8908081,0.0990601,2.5710449,0.2960205,5.8057861,0.4939575l-2.1455688-209.9414673
		c-1.2878418,2.315979-2.8010864,4.2719727-4.6603394,5.7475586L448.6000977,169.3999329z"/>
	<path d="M643.2000732,193.6999817l0.2000122-1c1.0999756-21.6999512,1.2000122-21.8999023,1.4000244-22.0998535
		l-0.4000244-20.9001465c-1.0205078-0.7937012-1.9294434-1.7426147-2.7631226-2.8039551l-1.7402954,25.0014648
		l-2.7405396,181.921814c3.7789917-0.2628174,5.3185425-0.4692383,5.8439331-0.6193237L643.2000732,193.6999817z"/>
	<path d="M299.9000854,353.5000916l0.2000732-106.8000488c0.0998535,0,0.1999512,0,0.2999268,0.1000977v-0.000061v-4.6000366
		l0.0003052-0.1073608l0.0197754-7.0447388v-0.0001221l0.1799927-64.1478271c0-0.3999023,0.1999512-0.6999512,0.5998535-0.8999023
		l-1.3999023-20.1999512c-2.6781006-2.0830078-4.6473999-5.1670532-6.2385864-8.9304199v213.0453491
		c1.4574585-0.0834351,2.7174072-0.1560059,3.7385864-0.2147827
		C298.500061,353.6001892,299.4000854,353.6001892,299.9000854,353.5000916z"/>
	<path d="M104.8000488,149.8000793l-1.4000244,20.1999512c0.1999512,0,0.2999268,0.1000977,0.5,0.1999512
		c0.0888062,0.0888062,0.1504517,0.2024536,0.1998291,0.3219604c0.0617676,0.1495972,0.1000977,0.3112793,0.1000977,0.4780884
		l0.1000977,76.5l0.2999268,0.1000977l0.0999756,105.8999023c0.5,0,1.4000244,0.1000977,2.6000977,0.2001953
		c0.9961548,0.0497437,2.1914062,0.1242676,3.5844727,0.2113647V141.091217
		C109.3198853,144.7090149,107.3934937,147.700531,104.8000488,149.8000793z"/>
</g>
</svg>
