<?xml version="1.0" encoding="utf-8"?>
<!-- Generator: Adobe Illustrator 25.3.0, SVG Export Plug-In . SVG Version: 6.00 Build 0)  -->
<svg version="1.1" id="Layer_1" xmlns="http://www.w3.org/2000/svg" xmlns:xlink="http://www.w3.org/1999/xlink" x="0px" y="0px"
	 viewBox="0 0 120 90" style="enable-background:new 0 0 120 90;" xml:space="preserve">
<style type="text/css">
	.st0{fill:#FFFFFF;}
	.st1{fill:#1D1D1B;}
	.st2{clip-path:url(#SVGID_2_);}
	.st3{clip-path:url(#SVGID_6_);}
	.st4{clip-path:url(#SVGID_10_);}
	.st5{fill:url(#SVGID_13_);}
	.st6{fill:#EA0029;}
	.st7{clip-path:url(#SVGID_15_);}
</style>
<g>
	<g>
		<path class="st0" d="M23,79.5c0.1,0,0.2-0.1,0.3-0.2L26,76l-2.5-3.2c-0.1-0.1-0.1-0.1-0.2-0.1c0,0-0.1,0-0.1,0v-0.2h3.2v0.2
			c-0.1,0-0.2,0-0.2,0c-0.1,0-0.1,0.1-0.1,0.1c0,0,0.1,0.1,0.2,0.3c0.1,0.1,0.3,0.3,0.4,0.5c0.1,0.2,0.3,0.3,0.4,0.5
			c0.1,0.2,0.2,0.3,0.3,0.3c0.1-0.1,0.1-0.2,0.3-0.3c0.1-0.2,0.3-0.3,0.4-0.5c0.1-0.2,0.3-0.3,0.4-0.5c0.1-0.1,0.2-0.2,0.2-0.3
			c0-0.1,0-0.1-0.1-0.1c-0.1,0-0.1,0-0.2,0v-0.2h3.1v0.2c-0.1,0-0.3,0.1-0.3,0.2l-2.5,3.1l2.7,3.5c0,0,0.1,0.1,0.1,0.1
			c0,0,0.1,0,0.1,0v0.2h-3.2v-0.2c0.2,0,0.3,0,0.3-0.1c0,0,0-0.1-0.1-0.2c-0.1-0.1-0.2-0.3-0.3-0.5c-0.1-0.2-0.3-0.4-0.4-0.6
			c-0.2-0.2-0.3-0.4-0.5-0.6c0,0-0.1,0.1-0.2,0.2c-0.1,0.1-0.2,0.2-0.3,0.3c-0.1,0.1-0.2,0.2-0.3,0.4c-0.1,0.1-0.2,0.3-0.3,0.4
			c-0.1,0.1-0.2,0.2-0.2,0.3c-0.1,0.1-0.1,0.1-0.1,0.2c0,0.1,0,0.1,0.1,0.1c0.1,0,0.1,0,0.2,0v0.2H23V79.5z"/>
		<path class="st0" d="M39.6,78c0.1,0,0.1,0,0.2-0.1c0,0,0.1-0.2,0.1-0.3H40V80h-0.2c0-0.1,0-0.2-0.1-0.3c0,0-0.1,0-0.2,0h-7.1v-0.2
			c0.2,0,0.3,0,0.3-0.1c0,0,0.1-0.1,0.1-0.2v-6.3c0-0.1,0-0.1-0.1-0.2c0,0-0.1-0.1-0.3-0.1v-0.2h2.8v0.2c-0.2,0-0.3,0-0.3,0.1
			c0,0-0.1,0.1-0.1,0.2V78H39.6z"/>
		<path class="st0" d="M50.7,79.5c0.2,0,0.3,0,0.3-0.1s0.1-0.1,0.1-0.2v-5l0,0l-2.4,5.2l-2.4-5.3h0v5.1c0,0.1,0,0.1,0.1,0.2
			s0.1,0.1,0.3,0.1v0.2h-2.4v-0.2c0.2,0,0.3,0,0.3-0.1c0,0,0.1-0.1,0.1-0.2v-6.3c0-0.1,0-0.1-0.1-0.2c0,0-0.1-0.1-0.3-0.1v-0.2h3.5
			v0.2c-0.2,0-0.3,0.1-0.3,0.2c0,0,0,0.1,0.1,0.2c0.1,0.1,0.1,0.3,0.2,0.5c0.1,0.2,0.2,0.4,0.3,0.6c0.1,0.2,0.2,0.5,0.3,0.7
			c0.1,0.2,0.2,0.4,0.3,0.6c0.1,0.2,0.1,0.3,0.1,0.3c0.2-0.3,0.3-0.7,0.5-1c0.2-0.3,0.3-0.6,0.4-0.9s0.2-0.5,0.3-0.7
			c0.1-0.2,0.1-0.3,0.1-0.3c0-0.2-0.1-0.2-0.3-0.2v-0.2h3.7v0.2c-0.2,0-0.3,0-0.3,0.1c0,0-0.1,0.1-0.1,0.2v6.3c0,0.1,0,0.1,0.1,0.2
			c0,0,0.1,0.1,0.3,0.1v0.2h-2.7V79.5z"/>
		<path class="st0" d="M58.7,72.5c0.6,0,1.1,0.1,1.6,0.2c0.5,0.2,1,0.4,1.3,0.7c0.4,0.3,0.7,0.7,0.9,1.1c0.2,0.5,0.3,1,0.3,1.6
			s-0.1,1.1-0.3,1.6c-0.2,0.5-0.5,0.8-0.9,1.1c-0.4,0.3-0.8,0.5-1.3,0.7c-0.5,0.1-1.1,0.2-1.6,0.2s-1.1-0.1-1.6-0.2
			c-0.5-0.1-1-0.4-1.3-0.7c-0.4-0.3-0.7-0.7-0.9-1.1c-0.2-0.5-0.3-1-0.3-1.6s0.1-1.1,0.3-1.6c0.2-0.5,0.5-0.8,0.9-1.1
			c0.4-0.3,0.8-0.5,1.3-0.7C57.6,72.5,58.1,72.5,58.7,72.5z M58.7,74.1c-0.3,0-0.6,0-0.8,0.1c-0.3,0.1-0.5,0.2-0.7,0.4
			c-0.2,0.2-0.4,0.4-0.5,0.6c-0.1,0.2-0.2,0.5-0.2,0.8c0,0.3,0.1,0.6,0.2,0.8c0.1,0.2,0.3,0.5,0.5,0.6c0.2,0.2,0.4,0.3,0.7,0.4
			c0.3,0.1,0.5,0.1,0.8,0.1s0.6,0,0.8-0.1c0.3-0.1,0.5-0.2,0.7-0.4c0.2-0.2,0.4-0.4,0.5-0.6c0.1-0.2,0.2-0.5,0.2-0.8
			c0-0.3-0.1-0.6-0.2-0.8c-0.1-0.2-0.3-0.5-0.5-0.6c-0.2-0.2-0.4-0.3-0.7-0.4C59.3,74.2,59,74.1,58.7,74.1z"/>
		<path class="st0" d="M65.6,79.5c0.2,0,0.3,0,0.3-0.1s0.1-0.1,0.1-0.2v-5.1h-2.3c-0.1,0-0.1,0-0.2,0.1c0,0-0.1,0.2-0.1,0.3h-0.2
			v-2.4h0.2c0,0.2,0,0.3,0.1,0.3c0,0,0.1,0.1,0.2,0.1h6.7c0.1,0,0.1,0,0.2-0.1c0,0,0.1-0.2,0.1-0.3h0.2v2.4h-0.2
			c0-0.2,0-0.3-0.1-0.3c0,0-0.1-0.1-0.2-0.1H68v5.1c0,0.1,0,0.1,0.1,0.2c0,0,0.1,0.1,0.3,0.1v0.2h-2.8V79.5z"/>
		<path class="st0" d="M75.4,72.5c0.6,0,1.1,0.1,1.6,0.2c0.5,0.2,1,0.4,1.3,0.7c0.4,0.3,0.7,0.7,0.9,1.1c0.2,0.5,0.3,1,0.3,1.6
			s-0.1,1.1-0.3,1.6c-0.2,0.5-0.5,0.8-0.9,1.1c-0.4,0.3-0.8,0.5-1.3,0.7c-0.5,0.1-1.1,0.2-1.6,0.2c-0.6,0-1.1-0.1-1.6-0.2
			c-0.5-0.1-1-0.4-1.3-0.7c-0.4-0.3-0.7-0.7-0.9-1.1c-0.2-0.5-0.3-1-0.3-1.6s0.1-1.1,0.3-1.6c0.2-0.5,0.5-0.8,0.9-1.1
			c0.4-0.3,0.8-0.5,1.3-0.7C74.2,72.5,74.8,72.5,75.4,72.5z M75.4,74.1c-0.3,0-0.6,0-0.8,0.1c-0.3,0.1-0.5,0.2-0.7,0.4
			c-0.2,0.2-0.4,0.4-0.5,0.6c-0.1,0.2-0.2,0.5-0.2,0.8c0,0.3,0.1,0.6,0.2,0.8c0.1,0.2,0.3,0.5,0.5,0.6c0.2,0.2,0.4,0.3,0.7,0.4
			c0.3,0.1,0.5,0.1,0.8,0.1s0.6,0,0.8-0.1c0.3-0.1,0.5-0.2,0.7-0.4c0.2-0.2,0.4-0.4,0.5-0.6c0.1-0.2,0.2-0.5,0.2-0.8
			c0-0.3-0.1-0.6-0.2-0.8c-0.1-0.2-0.3-0.5-0.5-0.6c-0.2-0.2-0.4-0.3-0.7-0.4C75.9,74.2,75.7,74.1,75.4,74.1z"/>
		<path class="st0" d="M83.1,79.2c0,0.1,0,0.1,0.1,0.2s0.1,0.1,0.3,0.1v0.2h-2.8v-0.2c0.2,0,0.3,0,0.3-0.1c0,0,0.1-0.1,0.1-0.2v-6.3
			c0-0.1,0-0.1-0.1-0.2c0,0-0.1-0.1-0.3-0.1v-0.2h5c1,0,1.7,0.2,2.2,0.5s0.7,0.9,0.7,1.7c0,0.6-0.2,1.1-0.5,1.5s-0.8,0.6-1.4,0.8
			l1.6,2.2c0.1,0.2,0.2,0.2,0.4,0.2v0.2h-2.8v-0.2c0.2,0,0.3-0.1,0.3-0.2c0,0,0-0.1-0.1-0.2c-0.1-0.1-0.2-0.2-0.3-0.4
			c-0.1-0.2-0.2-0.3-0.4-0.5c-0.1-0.2-0.3-0.3-0.4-0.5c-0.1-0.2-0.2-0.3-0.3-0.4c-0.1-0.1-0.1-0.2-0.2-0.3h-1.3V79.2z M85.4,75.5
			c0.4,0,0.7-0.1,0.8-0.2s0.2-0.3,0.2-0.5c0-0.2-0.1-0.4-0.2-0.5c-0.1-0.1-0.4-0.2-0.8-0.2h-2.3v1.5H85.4z"/>
		<path class="st0" d="M90.4,76.9c0,0.1,0,0.1,0,0.3c0,0.1,0.1,0.2,0.3,0.3c0.2,0.1,0.4,0.2,0.6,0.3c0.3,0.1,0.6,0.2,0.9,0.3
			c0.3,0.1,0.7,0.1,1,0.1c0.7,0,1.2-0.1,1.5-0.2c0.3-0.2,0.5-0.4,0.5-0.7c0-0.2-0.1-0.3-0.4-0.3c-0.3-0.1-0.6-0.1-1-0.2
			c-0.4,0-0.9-0.1-1.3-0.1c-0.5,0-0.9-0.1-1.3-0.3c-0.4-0.1-0.8-0.3-1-0.6c-0.3-0.2-0.4-0.6-0.4-1c0-0.3,0.1-0.7,0.2-0.9
			c0.2-0.3,0.4-0.5,0.7-0.7c0.3-0.2,0.6-0.4,1-0.5c0.4-0.1,0.9-0.2,1.4-0.2c0.5,0,0.9,0,1.3,0.1c0.4,0.1,0.7,0.1,1.1,0.2
			c0.3,0.1,0.6,0.1,0.8,0.2c0.2,0.1,0.4,0.1,0.4,0.1c0.1,0,0.2,0,0.2-0.1c0.1,0,0.1-0.1,0.1-0.1l0.1,0.1L96,74.8l-0.2-0.1v-0.1
			c0-0.1-0.1-0.2-0.3-0.3c-0.2-0.1-0.4-0.2-0.7-0.2c-0.3-0.1-0.6-0.1-0.9-0.2c-0.3,0-0.7-0.1-1-0.1c-0.6,0-1,0.1-1.2,0.2
			c-0.2,0.1-0.4,0.3-0.4,0.4c0,0.2,0.1,0.3,0.2,0.3c0.2,0.1,0.4,0.1,0.6,0.2c0.3,0,0.6,0.1,0.9,0.1c0.3,0,0.7,0.1,1,0.1
			c0.4,0,0.7,0.1,1,0.2c0.3,0.1,0.6,0.2,0.9,0.4c0.3,0.2,0.5,0.4,0.6,0.6c0.2,0.3,0.2,0.6,0.2,1c0,0.3-0.1,0.6-0.2,0.9
			c-0.1,0.3-0.3,0.5-0.6,0.8c-0.3,0.2-0.7,0.4-1.2,0.5c-0.5,0.1-1.1,0.2-1.8,0.2c-0.6,0-1.1,0-1.5-0.1c-0.4-0.1-0.8-0.1-1-0.2
			c-0.3-0.1-0.5-0.1-0.7-0.2c-0.2-0.1-0.3-0.1-0.4-0.1c-0.1,0-0.1,0-0.1,0.1c0,0-0.1,0.1-0.1,0.1l-0.2,0l1-2.4L90.4,76.9z"/>
	</g>
	<g>
		<g>
			<circle class="st1" cx="59.4" cy="40.9" r="26.8"/>
			<g>
				<g>
					<defs>
						<circle id="SVGID_1_" cx="59.4" cy="40.9" r="25.8"/>
					</defs>
					<clipPath id="SVGID_2_">
						<use xlink:href="#SVGID_1_"  style="overflow:visible;"/>
					</clipPath>
					<g class="st2">
						<g>
							<defs>
								<rect id="SVGID_3_" x="28.6" y="10" width="61.7" height="61.7"/>
							</defs>
							<clipPath id="SVGID_4_">
								<use xlink:href="#SVGID_3_"  style="overflow:visible;"/>
							</clipPath>
							<g style="clip-path:url(#SVGID_4_);">
								
									<image style="overflow:visible;" width="130" height="129" xlink:href="C96A3422FBA9BCF6.jpg"  transform="matrix(0.48 0 0 0.48 28.32 9.84)">
								</image>
							</g>
						</g>
					</g>
				</g>
			</g>
			<g>
				<g>
					<defs>
						<circle id="SVGID_5_" cx="59.4" cy="40.9" r="24.9"/>
					</defs>
					<clipPath id="SVGID_6_">
						<use xlink:href="#SVGID_5_"  style="overflow:visible;"/>
					</clipPath>
					<g class="st3">
						<g>
							<defs>
								<rect id="SVGID_7_" x="29.6" y="11" width="59.8" height="59.8"/>
							</defs>
							<clipPath id="SVGID_8_">
								<use xlink:href="#SVGID_7_"  style="overflow:visible;"/>
							</clipPath>
							<g style="clip-path:url(#SVGID_8_);">
								
									<image style="overflow:visible;" width="126" height="125" xlink:href="C96A3422FBA9BCFA.jpg"  transform="matrix(0.48 0 0 0.48 29.28 10.8)">
								</image>
							</g>
						</g>
					</g>
				</g>
			</g>
			<g>
				<g>
					<defs>
						<circle id="SVGID_9_" cx="59.4" cy="40.9" r="21.9"/>
					</defs>
					<clipPath id="SVGID_10_">
						<use xlink:href="#SVGID_9_"  style="overflow:visible;"/>
					</clipPath>
					<g class="st4">
						<g>
							<defs>
								<rect id="SVGID_11_" x="32.6" y="14" width="53.8" height="53.8"/>
							</defs>
							<clipPath id="SVGID_12_">
								<use xlink:href="#SVGID_11_"  style="overflow:visible;"/>
							</clipPath>
							<g style="clip-path:url(#SVGID_12_);">
								
									<image style="overflow:visible;" width="113" height="113" xlink:href="C96A3422FBA9BCFD.jpg"  transform="matrix(0.48 0 0 0.48 32.16 13.68)">
								</image>
							</g>
						</g>
					</g>
				</g>
			</g>
			<circle class="st1" cx="59.4" cy="40.9" r="21.1"/>
			<g>
				<linearGradient id="SVGID_13_" gradientUnits="userSpaceOnUse" x1="59.4462" y1="61.3519" x2="59.4462" y2="20.3894">
					<stop  offset="0" style="stop-color:#691C32"/>
					<stop  offset="0.926" style="stop-color:#E1251B"/>
				</linearGradient>
				<circle class="st5" cx="59.4" cy="40.9" r="20.5"/>
			</g>
			<path class="st6" d="M59.4,22.8c5.7,0,10.8,2.6,14.1,6.7h3c-3.7-5.5-9.9-9.1-17-9.1s-13.3,3.6-17,9.1h3
				C48.7,25.4,53.8,22.8,59.4,22.8z"/>
		</g>
		<g>
			<defs>
				<circle id="SVGID_14_" cx="59.4" cy="40.9" r="20.5"/>
			</defs>
			<clipPath id="SVGID_15_">
				<use xlink:href="#SVGID_14_"  style="overflow:visible;"/>
			</clipPath>
			<g class="st7">
				<polygon class="st0" points="42,29.5 50.1,29.5 66.8,45.8 78.3,45.8 78.3,52.3 65.1,52.3 				"/>
				<polygon class="st0" points="53.2,42.6 42.1,52.4 50.9,52.4 57.5,46.7 				"/>
				<polygon class="st0" points="59.2,37.2 63.2,41.1 77.3,29.5 68.4,29.4 				"/>
			</g>
		</g>
		<polygon class="st0" points="59.2,37.2 63.2,41.1 77.3,29.5 68.4,29.4 		"/>
	</g>
</g>
</svg>
