<?xml version="1.0" encoding="utf-8"?>
<!-- Generator: Adobe Illustrator 25.3.0, SVG Export Plug-In . SVG Version: 6.00 Build 0)  -->
<svg version="1.1" id="Layer_1" xmlns="http://www.w3.org/2000/svg" xmlns:xlink="http://www.w3.org/1999/xlink" x="0px" y="0px"
	 viewBox="0 0 350 350" style="enable-background:new 0 0 350 350;" xml:space="preserve">
<style type="text/css">
	.st0{fill:#FFFFFF;}
	.st1{fill:#1C355E;}
	.st2{fill-rule:evenodd;clip-rule:evenodd;fill:#241A17;}
	.st3{fill:#241A17;}
	.st4{fill:#65B32E;}
</style>
<g>
	<g>
		<path class="st0" d="M16.6,32.5v285h316.9v-285H16.6z M331.3,315.4H18.7V34.6h312.5V315.4z"/>
		<rect x="24" y="39.5" class="st0" width="302" height="270.9"/>
		<path class="st1" d="M18.7,315.4h312.5V34.6H18.7V315.4z M24,39.5h302v270.9H24V39.5z"/>
	</g>
	<g>
		<g>
			<path class="st2" d="M58.8,89.1c-0.7,0.3-1.5,0.4-2.3,0.4h-8.3c-0.6,0-1.3-0.1-2-0.3c-0.9-0.3-1.4-0.7-1.4-1.1
				c0-0.5,0.5-0.9,1.4-1.1c0.7-0.2,1.3-0.3,2-0.3h8.3c0.6,0,1.3,0.1,2,0.3c0.9,0.3,1.4,0.6,1.4,1.1C59.8,88.5,59.5,88.8,58.8,89.1
				L58.8,89.1z M58.7,83.2c-0.7,0.3-1.4,0.4-2.3,0.4h-6.7c-1.9,0-3.5,0.3-4.9,0.8c-1.9,0.8-2.9,2-2.9,3.6l0,5.5
				c0,0.7-0.6,1.3-1.8,1.7c-0.9,0.3-1.8,0.4-2.7,0.4c-0.9,0-1.8-0.1-2.7-0.4c-1.2-0.4-1.8-0.9-1.8-1.7V88c0-2.6,1.8-4.6,5.3-5.9
				c2.5-0.9,5.4-1.4,8.6-1.4h9.7c0.7,0,1.3,0.1,2,0.3c0.9,0.3,1.4,0.6,1.4,1.1C59.8,82.6,59.4,82.9,58.7,83.2L58.7,83.2z"/>
			<path class="st2" d="M82.7,95.5H70.3c-1.9,0-3.6-0.3-5.4-0.9c-2.3-0.8-3.5-2-3.5-3.5v-6.1c0-1.5,1.2-2.7,3.5-3.5
				c1.7-0.6,3.5-0.9,5.4-0.9h12.4c1.8,0,3.6,0.3,5.4,0.9c2.3,0.8,3.5,2,3.5,3.5v6.1c0,1.5-1.2,2.7-3.5,3.5
				C86.4,95.2,84.6,95.5,82.7,95.5L82.7,95.5z M82.6,84.7c0-0.5-0.4-0.8-1.1-1c-0.5-0.2-1.1-0.3-1.6-0.3h-6.7
				c-0.6,0-1.1,0.1-1.6,0.3c-0.7,0.2-1.1,0.6-1.1,1v6.7c0,0.4,0.4,0.8,1.1,1c0.5,0.2,1.1,0.3,1.6,0.3h6.7c0.6,0,1.1-0.1,1.6-0.3
				c0.7-0.3,1.1-0.6,1.1-1V84.7L82.6,84.7z"/>
			<path class="st3" d="M105.9,88.6c0-0.5,0.5-0.8,1.4-1.1c0.6-0.2,1.3-0.3,2-0.3h3.7c0.6,0,1.1-0.1,1.6-0.3c0.7-0.2,1.1-0.6,1.1-1
				v-1.5c0-0.6-0.9-1-2.7-1h-6.7c-1.8,0-2.7,0.3-2.7,1v0.2l-0.1,9c0,0.7-0.6,1.3-1.8,1.7c-0.8,0.3-1.8,0.4-2.7,0.4
				c-0.9,0-1.8-0.1-2.7-0.4c-1.2-0.4-1.8-0.9-1.8-1.7v-8.4c0,0,0-0.1,0-0.3c0.2-1.4,1.4-2.5,3.7-3.2c1.6-0.6,3.4-0.9,5.2-0.9h11.3
				c3.8,0,6.6,0.6,8.2,1.7c1,0.6,1.4,1.3,1.4,2v1.2c0,1.2-0.9,2.2-2.6,3.1c-0.7,0.3-1.6,0.6-2.6,0.8l4,2.1c0.8,0.4,1.2,1,1.2,1.6
				c0,0.7-0.7,1.3-2,1.7c-1,0.3-1.9,0.5-2.9,0.5c-1.1,0-1.9-0.2-2.6-0.6l-10-5.4C106.3,89.3,105.9,89,105.9,88.6L105.9,88.6z"/>
			<path class="st2" d="M129.7,95.3c0.7,0.2,1.5,0.3,2.4,0.3c1.8,0,3.1-0.4,3.7-1.1L143,86l4.2,4.5c0.5,0.5,1.3,0.8,2.4,0.8
				c0.6,0,1.3-0.1,1.9-0.3c0.8-0.3,1.2-0.6,1.2-1.2c0-0.3-0.1-0.5-0.3-0.7l-7.3-7.3c-0.2-0.1-0.3-0.2-0.6-0.3
				c-1-0.6-2.2-0.9-3.7-0.9c-1.8,0-3,0.4-3.6,1.1l-9.5,10.6c-0.3,0.3-0.4,0.6-0.4,0.9C127.3,94.2,128.1,94.8,129.7,95.3L129.7,95.3z
				 M151,83.9l9.5,10.6c0.6,0.7,1.9,1.1,3.6,1.1c1,0,2-0.2,2.9-0.5c1.3-0.4,1.9-1,1.9-1.8c0-0.3-0.1-0.6-0.4-0.9L159,81.8
				c-0.6-0.7-1.9-1.1-3.6-1.1c-1,0-2,0.2-2.9,0.5c-1.3,0.4-1.9,1-1.9,1.8C150.6,83.3,150.7,83.6,151,83.9L151,83.9z"/>
			<path class="st3" d="M192.3,85.7v-1c0-0.5-0.4-0.8-1.1-1c-0.5-0.2-1.1-0.3-1.6-0.3h-11.9c-0.7,0-1.3-0.1-1.9-0.2
				c-0.9-0.2-1.4-0.6-1.4-1.1s0.4-0.8,1.3-1.1c0.6-0.2,1.2-0.3,1.9-0.3h14.8c1.9,0,3.6,0.3,5.4,0.9c2.3,0.8,3.5,2,3.5,3.5v8.3
				c0,0.7-0.6,1.3-1.8,1.7c-0.9,0.3-1.8,0.4-2.7,0.4c-0.9,0-1.8-0.1-2.7-0.4c-1.2-0.4-1.8-0.9-1.8-1.7v-3.8c0-0.4-0.4-0.8-1.1-1
				c-0.5-0.2-1.1-0.3-1.6-0.3h-6.7c-0.6,0-1.1,0.1-1.6,0.3c-0.7,0.3-1.1,0.6-1.1,1v1.8c0,0.4,0.4,0.8,1.1,1c0.5,0.2,1.1,0.3,1.6,0.3
				h3.3c0.6,0,1.3,0.1,2,0.3c0.9,0.3,1.4,0.6,1.4,1.1c0,0.5-0.5,0.8-1.4,1.1c-0.7,0.2-1.3,0.3-2,0.3H180c-1.9,0-3.6-0.3-5.4-0.9
				c-2.3-0.8-3.5-2-3.5-3.5V90c0-1.5,1.2-2.7,3.5-3.5c1.7-0.6,3.5-0.8,5.4-0.8H192.3L192.3,85.7z"/>
			<path class="st3" d="M213.2,93.4c0,0.7,0.6,1.3,1.8,1.7c0.9,0.3,1.8,0.4,2.7,0.4c0.9,0,1.8-0.1,2.7-0.4c1.2-0.4,1.8-0.9,1.8-1.7
				l0-10h6.4c1.4,0,2.3-0.1,2.8-0.2c0.9-0.2,1.4-0.6,1.4-1.1c0-0.2,0-0.4-0.1-0.4c-1.4-0.7-2.7-1-4.1-1h-21.8
				c-2.8,0-4.2,0.5-4.2,1.4c0,0.6,0.5,0.9,1.4,1.1c0.5,0.1,1.5,0.2,2.8,0.2h6.4L213.2,93.4L213.2,93.4z"/>
			<path class="st3" d="M238.6,95.5c-0.9,0-1.8-0.1-2.7-0.4c-1.2-0.4-1.8-0.9-1.8-1.7V82.8c0-0.7,0.6-1.3,1.8-1.7
				c0.9-0.3,1.8-0.4,2.7-0.4c0.9,0,1.8,0.1,2.7,0.4c1.2,0.4,1.8,0.9,1.8,1.7v10.7c0,0.7-0.6,1.3-1.8,1.7
				C240.4,95.4,239.5,95.5,238.6,95.5L238.6,95.5z"/>
			<path class="st2" d="M268,95.5h-12.4c-1.9,0-3.6-0.3-5.4-0.9c-2.3-0.8-3.5-2-3.5-3.5v-6.1c0-1.5,1.2-2.7,3.5-3.5
				c1.7-0.6,3.5-0.9,5.4-0.9H268c1.8,0,3.6,0.3,5.4,0.9c2.3,0.8,3.5,2,3.5,3.5v6.1c0,1.5-1.2,2.7-3.5,3.5
				C271.6,95.2,269.8,95.5,268,95.5L268,95.5z M267.8,84.7c0-0.5-0.4-0.8-1.1-1c-0.5-0.2-1.1-0.3-1.6-0.3h-6.7
				c-0.6,0-1.1,0.1-1.6,0.3c-0.7,0.2-1.1,0.6-1.1,1v6.7c0,0.4,0.4,0.8,1.1,1c0.5,0.2,1.1,0.3,1.6,0.3h6.7c0.6,0,1.1-0.1,1.6-0.3
				c0.7-0.3,1.1-0.6,1.1-1V84.7L267.8,84.7z"/>
			<path class="st3" d="M308,89.9l-0.1-4.8c0-1.5-1.2-2.7-3.6-3.5c-1.7-0.6-3.5-0.9-5.3-0.9h-10.5c-1.9,0-3.6,0.3-5.4,0.9
				c-2.3,0.8-3.5,2-3.5,3.5l0,8.3c0,0.7,0.6,1.3,1.8,1.7c0.9,0.3,1.8,0.4,2.7,0.4c0.9,0,1.8-0.1,2.7-0.4c1.2-0.4,1.8-0.9,1.8-1.7
				l0-8.6c0-0.4,0.4-0.8,1.1-1c0.5-0.2,1.1-0.3,1.6-0.3h4.7c0.6,0,1.1,0.1,1.6,0.3c0.7,0.3,1.1,0.6,1.1,1l0.1,8.6
				c0,0.7,0.6,1.3,1.8,1.7c0.8,0.3,1.8,0.4,2.7,0.4c0.9,0,1.8-0.1,2.7-0.4c1.2-0.4,1.8-0.9,1.8-1.7V89.9L308,89.9z"/>
		</g>
		<path class="st4" d="M170.3,49c-3.7,0-7.2,0.8-10.5,2.5c-4.8,2.5-7.7,6.3-8.7,11.3l-2,11h2.3l1.9-10.9c0.8-4.4,3.3-7.7,7.5-9.9
			c3-1.5,6.2-2.3,9.6-2.3h10.4c0.7,0,1.4,0.2,2,0.5c0.9,0.4,1.3,1.1,1.1,1.9c-0.1,0.7-0.6,1.3-1.4,1.7c-0.8,0.4-1.7,0.7-2.6,0.7
			h-7.2c-2,0-3.9,0.5-5.6,1.4c-2.3,1.3-3.7,3.4-4.2,6l-1.9,10.9h9.5c3.7,0,7.2-0.8,10.5-2.5c4.8-2.5,7.7-6.3,8.7-11.3l2-11H170.3z
			 M182.3,63.2c-0.1,0.6-0.6,1.2-1.4,1.7c-0.8,0.4-1.7,0.6-2.6,0.6h-8.9c-0.7,0-1.4-0.2-2-0.5c-0.9-0.5-1.3-1.1-1.1-1.9
			c0.1-0.8,0.7-1.5,1.8-1.9c0.8-0.3,1.5-0.5,2.2-0.5h8.9c0.7,0,1.4,0.2,2,0.5C182.1,61.7,182.4,62.3,182.3,63.2z"/>
		<path class="st0" d="M180.9,64.9c0.8-0.5,1.3-1,1.4-1.7c0.1-0.8-0.2-1.5-1.1-1.9c-0.7-0.3-1.3-0.5-2-0.5h-8.9
			c-0.7,0-1.4,0.2-2.2,0.5c-1,0.4-1.6,1.1-1.8,1.9c-0.1,0.8,0.2,1.4,1.1,1.9c0.7,0.3,1.3,0.5,2,0.5h8.9
			C179.2,65.5,180,65.3,180.9,64.9z"/>
		<path class="st0" d="M167.2,56.9c1.7-1,3.6-1.4,5.6-1.4h7.2c0.9,0,1.8-0.2,2.6-0.7c0.8-0.4,1.3-1,1.4-1.7c0.1-0.8-0.2-1.4-1.1-1.9
			c-0.6-0.3-1.3-0.5-2-0.5h-10.4c-3.4,0-6.6,0.8-9.6,2.3c-4.2,2.2-6.7,5.5-7.5,9.9l-1.9,10.9h9.7L163,63
			C163.5,60.3,164.9,58.3,167.2,56.9z"/>
		<g>
			<path class="st3" d="M313.2,86.7c-0.4,0-0.9-0.1-1.2-0.2c-0.4-0.2-0.7-0.4-1-0.6c-0.3-0.3-0.5-0.6-0.6-0.9
				c-0.2-0.4-0.2-0.8-0.2-1.2c0-0.4,0.1-0.8,0.2-1.2c0.2-0.4,0.4-0.7,0.6-0.9s0.6-0.5,1-0.6c0.4-0.2,0.8-0.2,1.2-0.2
				c0.4,0,0.9,0.1,1.2,0.2c0.4,0.2,0.7,0.4,1,0.6s0.5,0.6,0.7,0.9c0.2,0.4,0.2,0.8,0.2,1.2c0,0.4-0.1,0.8-0.2,1.2
				c-0.2,0.4-0.4,0.7-0.7,0.9c-0.3,0.3-0.6,0.5-1,0.6C314,86.6,313.6,86.7,313.2,86.7z M313.2,86.3c0.4,0,0.7-0.1,1.1-0.2
				c0.3-0.1,0.6-0.3,0.9-0.5c0.2-0.2,0.4-0.5,0.6-0.8c0.1-0.3,0.2-0.7,0.2-1.1c0-0.4-0.1-0.7-0.2-1c-0.1-0.3-0.3-0.6-0.6-0.8
				c-0.2-0.2-0.5-0.4-0.9-0.6c-0.3-0.1-0.7-0.2-1.1-0.2c-0.4,0-0.7,0.1-1.1,0.2c-0.3,0.1-0.6,0.3-0.8,0.6c-0.2,0.2-0.4,0.5-0.6,0.8
				c-0.1,0.3-0.2,0.7-0.2,1c0,0.4,0.1,0.7,0.2,1c0.1,0.3,0.3,0.6,0.6,0.8c0.2,0.2,0.5,0.4,0.8,0.6C312.4,86.2,312.8,86.3,313.2,86.3
				z M311.9,81.9h1.6c0.2,0,0.3,0,0.5,0.1c0.1,0.1,0.3,0.2,0.4,0.3c0.1,0.1,0.2,0.2,0.2,0.4s0.1,0.3,0.1,0.4c0,0.2-0.1,0.5-0.2,0.7
				c-0.1,0.2-0.3,0.3-0.5,0.4l0.9,1.4H314l-0.8-1.3h-0.7v1.3h-0.7V81.9z M313.4,83.7c0.2,0,0.3-0.1,0.4-0.2c0.1-0.1,0.1-0.3,0.1-0.4
				c0-0.2-0.1-0.3-0.2-0.4c-0.1-0.1-0.2-0.2-0.4-0.2h-0.9v1.2H313.4z"/>
		</g>
	</g>
</g>
</svg>
