<?xml version="1.0" encoding="utf-8"?>
<!-- Generator: Adobe Illustrator 25.3.0, SVG Export Plug-In . SVG Version: 6.00 Build 0)  -->
<svg version="1.1" id="Layer_1" xmlns="http://www.w3.org/2000/svg" xmlns:xlink="http://www.w3.org/1999/xlink" x="0px" y="0px"
	 viewBox="0 0 400 140" style="enable-background:new 0 0 400 140;" xml:space="preserve">
<style type="text/css">
	.st0{fill:#FFFFFF;}
	.st1{fill:#FF8300;}
</style>
<g>
	<polygon class="st0" points="130,11.3 130,71.3 271,71.3 271,11.3 130,11.3 	"/>
	<path class="st1" d="M160.8,31.7c1.5,0,2.2,0.5,2.2,1.5c0,0.7-0.2,1.2-0.8,2.2l-6.8,11.6h5.5c1.4,0,2.2,0.6,2.2,1.8
		c0,1.3-0.7,1.9-2.2,1.9h-9c-1.5,0-2.1-0.6-2.1-1.8c0-0.8,0.3-1.3,0.6-1.9l6.8-11.6h-5.2c-1.4,0-2.2-0.6-2.2-1.8
		c0-1.3,0.7-1.9,2.2-1.9H160.8L160.8,31.7z"/>
	<path class="st1" d="M165.4,39.3c0-4.9,0.7-8,6.6-8c4.5,0,6,2.5,6,7.5c0,1.7-0.2,3.1-2.4,3.1h-5.6v1.9c0,2.3,0.2,4.1,1.9,4.1
		c0.9,0,1.6-1,1.7-2c0.1-1.9,0.9-2.3,2.1-2.3c1.3,0,2.2,0.4,2.2,2.1c0,3.5-2.4,5.5-5.9,5.5c-5.9,0-6.6-3.1-6.6-8V39.3L165.4,39.3z
		 M173.7,38.8v-1.6c0-1.4-0.5-2.6-1.9-2.6c-1.4,0-1.9,1.1-1.9,2.6v1.6H173.7L173.7,38.8z"/>
	<path class="st1" d="M181,33.9c0-1.8,0.8-2.6,2.2-2.6c1.3,0,2.2,0.8,2.2,2.5h0.1c0.7-1.7,2.4-2.5,4-2.5c2.4,0,4.1,1.5,4.1,4.7v12.7
		c0,1.8-0.8,2.6-2.2,2.6c-1.3,0-2.2-0.8-2.2-2.6V37c0-1.4-0.7-2-1.7-2c-1.4,0-2.3,1-2.3,3.4v10.3c0,1.8-0.8,2.6-2.2,2.6
		c-1.3,0-2.2-0.8-2.2-2.6V33.9L181,33.9z"/>
	<path class="st1" d="M207.2,31.7c1.5,0,2.2,0.5,2.2,1.5c0,0.7-0.2,1.2-0.8,2.2l-6.8,11.6h5.5c1.4,0,2.2,0.6,2.2,1.8
		c0,1.3-0.7,1.9-2.2,1.9h-9c-1.5,0-2.1-0.6-2.1-1.8c0-0.8,0.3-1.3,0.6-1.9l6.8-11.6h-5.2c-1.4,0-2.2-0.6-2.2-1.8
		c0-1.3,0.7-1.9,2.2-1.9H207.2L207.2,31.7z"/>
	<path class="st1" d="M211.8,39.3c0-4.9,0.7-8,6.6-8c4.5,0,6,2.5,6,7.5c0,1.7-0.2,3.1-2.4,3.1h-5.6v1.9c0,2.3,0.2,4.1,1.9,4.1
		c0.9,0,1.6-1,1.7-2c0.1-1.9,0.9-2.3,2.1-2.3c1.3,0,2.2,0.4,2.2,2.1c0,3.5-2.4,5.5-5.9,5.5c-5.9,0-6.6-3.1-6.6-8V39.3L211.8,39.3z
		 M220.1,38.8v-1.6c0-1.4-0.5-2.6-1.9-2.6c-1.4,0-1.9,1.1-1.9,2.6v1.6H220.1L220.1,38.8z"/>
	<path class="st1" d="M227.4,33.6c0-1.4,0.6-2.3,2-2.3c1.4,0,2,0.9,2,2.3v1.8h0.1c0.6-2.4,1.7-4.1,3.2-4.1c1.2,0,2.1,0.8,2.1,2.8
		c0,1.3-0.7,2.6-2.7,2.6c-1.3,0-2.4,0.9-2.4,2.6v9.5c0,1.8-0.8,2.6-2.2,2.6c-1.3,0-2.2-0.8-2.2-2.6V33.6L227.4,33.6z"/>
	<path class="st1" d="M238.2,38.7c0-4.1,1.3-7.4,6.5-7.4c5.2,0,6.5,3.3,6.5,7.4v5.2c0,4.1-1.3,7.4-6.5,7.4c-5.2,0-6.5-3.3-6.5-7.4
		V38.7L238.2,38.7z M242.8,43.5c0,3.5,0.6,4.4,2,4.4c1.4,0,2-0.8,2-4.4V39c0-3.5-0.7-4.3-2-4.3c-1.3,0-2,0.8-2,4.3V43.5L242.8,43.5z
		"/>
</g>
</svg>
