<?xml version="1.0" encoding="utf-8"?>
<!-- Generator: Adobe Illustrator 25.3.0, SVG Export Plug-In . SVG Version: 6.00 Build 0)  -->
<svg version="1.1" id="Layer_1" xmlns="http://www.w3.org/2000/svg" xmlns:xlink="http://www.w3.org/1999/xlink" x="0px" y="0px"
	 viewBox="0 0 170 120" style="enable-background:new 0 0 170 120;" xml:space="preserve">
<style type="text/css">
	.st0{fill:#373A36;}
	.st1{fill:#FFFFFF;}
	.st2{fill:#008FBE;}
</style>
<g>
	<path class="st0" d="M49.9,41.1l0.2,38.2c0,0.7,0.4,1.3,1,1.6l33.2,18.9c0.6,0.3,1.3,0.3,1.9,0l33-19.3c0.6-0.3,0.9-1,0.9-1.6
		l-0.2-38.2c0-0.7-0.4-1.3-1-1.6L85.7,20.2c-0.6-0.3-1.3-0.3-1.9,0l-33,19.3C50.3,39.8,49.9,40.4,49.9,41.1z"/>
	<g>
		<g>
			<path class="st1" d="M82,60.3l-18.2,0.1c0.3,1.6,1,2.9,2.1,3.8c1.1,0.9,2.6,1.4,4.4,1.4c2.1,0,3.9-0.8,5.5-2.3l4.8,2.2
				c-1.2,1.7-2.6,3-4.3,3.8c-1.7,0.8-3.6,1.2-5.9,1.2c-3.5,0-6.4-1.1-8.7-3.3c-2.2-2.2-3.4-5-3.4-8.4c0-3.4,1.1-6.3,3.3-8.6
				c2.2-2.3,5-3.4,8.3-3.5c3.6,0,6.5,1.1,8.7,3.4c2.2,2.3,3.4,5.3,3.4,9L82,60.3z M76.3,55.8c-0.4-1.3-1.1-2.3-2.2-3.1
				c-1.1-0.8-2.4-1.2-3.8-1.2c-1.6,0-3,0.5-4.2,1.4c-0.7,0.6-1.4,1.5-2.1,2.9L76.3,55.8z"/>
			<path class="st1" d="M81,47.3l6.6,0l4.5,6.1l4.4-6.2l6.5,0l-7.6,10.7l8.7,11.9l-6.6,0l-5.4-7.4l-5.3,7.4l-6.5,0L88.8,58L81,47.3z
				"/>
			<polygon class="st1" points="108.6,49 105.6,47.2 105.7,69.8 111.8,69.8 111.7,47.2 111.7,47.2 			"/>
			<path class="st2" d="M105.5,41.4l0,3.3c0,0.1,0,0.1,0.1,0.2l2.9,1.6c0.1,0,0.1,0,0.2,0l2.8-1.7c0.1,0,0.1-0.1,0.1-0.2l0-3.3
				c0-0.1,0-0.1-0.1-0.2l-2.9-1.6c-0.1,0-0.1,0-0.2,0l-2.8,1.7C105.6,41.3,105.5,41.4,105.5,41.4z"/>
		</g>
		<g>
			<path class="st2" d="M62.9,77l-3.3,0c0,0.3,0.2,0.5,0.4,0.7c0.2,0.2,0.5,0.3,0.8,0.3c0.4,0,0.7-0.1,1-0.4l0.9,0.4
				c-0.2,0.3-0.5,0.5-0.8,0.7c-0.3,0.1-0.7,0.2-1.1,0.2c-0.6,0-1.2-0.2-1.6-0.6c-0.4-0.4-0.6-0.9-0.6-1.5c0-0.6,0.2-1.2,0.6-1.6
				c0.4-0.4,0.9-0.6,1.5-0.6c0.7,0,1.2,0.2,1.6,0.6c0.4,0.4,0.6,1,0.6,1.6L62.9,77z M61.9,76.2c-0.1-0.2-0.2-0.4-0.4-0.6
				s-0.4-0.2-0.7-0.2c-0.3,0-0.5,0.1-0.8,0.2c-0.1,0.1-0.3,0.3-0.4,0.5L61.9,76.2z"/>
			<path class="st2" d="M63.2,74.7l1.2,0l0.8,1.1l0.8-1.1l1.2,0l-1.4,2l1.6,2.2l-1.2,0l-1-1.4l-1,1.4l-1.2,0l1.6-2.2L63.2,74.7z"/>
			<path class="st2" d="M68.1,72.9c0.2,0,0.3,0.1,0.5,0.2c0.1,0.1,0.2,0.3,0.2,0.5c0,0.2-0.1,0.3-0.2,0.5c-0.1,0.1-0.3,0.2-0.5,0.2
				c-0.2,0-0.3-0.1-0.5-0.2c-0.1-0.1-0.2-0.3-0.2-0.5c0-0.2,0.1-0.3,0.2-0.5C67.8,73,67.9,72.9,68.1,72.9z M67.6,74.6l1,0l0,4.1
				l-1,0L67.6,74.6z"/>
			<path class="st2" d="M69.6,76.2l1.9,0l0,1l-1.9,0L69.6,76.2z"/>
			<path class="st2" d="M75.5,74.6l1,0l0,3.5c0,0.7-0.1,1.2-0.4,1.5c-0.4,0.4-0.9,0.7-1.7,0.7c-0.4,0-0.7,0-1-0.1s-0.5-0.2-0.7-0.4
				c-0.2-0.2-0.3-0.4-0.4-0.7l1.1,0c0.1,0.1,0.2,0.2,0.4,0.3c0.2,0.1,0.3,0.1,0.6,0.1c0.3,0,0.5,0,0.7-0.1c0.2-0.1,0.3-0.2,0.4-0.3
				c0.1-0.1,0.1-0.4,0.1-0.7c-0.2,0.2-0.4,0.3-0.6,0.4c-0.2,0.1-0.4,0.1-0.7,0.1c-0.6,0-1-0.2-1.4-0.6c-0.4-0.4-0.6-0.9-0.6-1.5
				c0-0.7,0.2-1.2,0.6-1.6c0.4-0.4,0.8-0.5,1.3-0.5c0.2,0,0.5,0,0.7,0.1c0.2,0.1,0.4,0.2,0.6,0.4L75.5,74.6z M74.5,75.5
				c-0.3,0-0.6,0.1-0.8,0.3c-0.2,0.2-0.3,0.5-0.3,0.8c0,0.3,0.1,0.6,0.3,0.8s0.5,0.3,0.8,0.3c0.3,0,0.6-0.1,0.8-0.3
				c0.2-0.2,0.3-0.5,0.3-0.8c0-0.3-0.1-0.6-0.3-0.8C75.1,75.6,74.8,75.5,74.5,75.5z"/>
			<path class="st2" d="M77.2,74.6l0.9,0l0,0.5c0.1-0.2,0.2-0.4,0.4-0.5c0.2-0.1,0.3-0.2,0.5-0.2c0.1,0,0.3,0,0.4,0.1l-0.3,0.9
				c-0.1-0.1-0.2-0.1-0.3-0.1c-0.2,0-0.3,0.1-0.4,0.3c-0.1,0.2-0.2,0.6-0.2,1.2l0,0.2l0,1.7l-1,0L77.2,74.6z"/>
			<path class="st2" d="M81.7,74.5c0.4,0,0.8,0.1,1.1,0.3c0.3,0.2,0.6,0.5,0.8,0.8c0.2,0.3,0.3,0.7,0.3,1.1c0,0.4-0.1,0.8-0.3,1.1
				c-0.2,0.3-0.5,0.6-0.8,0.8c-0.3,0.2-0.7,0.3-1.1,0.3c-0.6,0-1.1-0.2-1.5-0.6c-0.4-0.4-0.6-0.9-0.6-1.5c0-0.6,0.2-1.2,0.7-1.6
				C80.6,74.6,81.1,74.5,81.7,74.5z M81.7,75.4c-0.3,0-0.6,0.1-0.8,0.3c-0.2,0.2-0.3,0.5-0.3,0.9c0,0.4,0.1,0.7,0.3,0.9
				c0.2,0.2,0.5,0.3,0.8,0.3c0.3,0,0.6-0.1,0.8-0.3c0.2-0.2,0.3-0.5,0.3-0.9c0-0.4-0.1-0.6-0.3-0.9C82.3,75.5,82,75.4,81.7,75.4z"/>
			<path class="st2" d="M84.5,74.5l1,0l0,2c0,0.4,0,0.7,0.1,0.8c0.1,0.2,0.1,0.3,0.3,0.3c0.1,0.1,0.3,0.1,0.4,0.1
				c0.2,0,0.3,0,0.4-0.1c0.1-0.1,0.2-0.2,0.3-0.4c0-0.1,0.1-0.4,0.1-0.8l0-2l1,0l0,1.8c0,0.7-0.1,1.2-0.2,1.5
				c-0.1,0.3-0.3,0.6-0.6,0.7c-0.3,0.2-0.6,0.3-1,0.3c-0.5,0-0.8-0.1-1.1-0.3c-0.3-0.2-0.5-0.5-0.6-0.8c-0.1-0.2-0.1-0.7-0.1-1.4
				L84.5,74.5z"/>
			<path class="st2" d="M90,74.5l0,0.5c0.2-0.2,0.4-0.3,0.6-0.4c0.2-0.1,0.5-0.1,0.7-0.1c0.5,0,1,0.2,1.4,0.6
				c0.4,0.4,0.6,0.9,0.6,1.6c0,0.6-0.2,1.1-0.6,1.5c-0.4,0.4-0.8,0.6-1.4,0.6c-0.2,0-0.5,0-0.7-0.1c-0.2-0.1-0.4-0.2-0.6-0.4l0,1.9
				l-1,0l0-5.6L90,74.5z M91.1,75.4c-0.3,0-0.6,0.1-0.8,0.3c-0.2,0.2-0.3,0.5-0.3,0.9c0,0.4,0.1,0.7,0.3,0.9
				c0.2,0.2,0.5,0.3,0.8,0.3c0.3,0,0.6-0.1,0.8-0.3c0.2-0.2,0.3-0.5,0.3-0.9c0-0.4-0.1-0.6-0.3-0.9C91.7,75.5,91.4,75.4,91.1,75.4z"
				/>
			<path class="st2" d="M94.5,77.5c0.2,0,0.3,0.1,0.4,0.2c0.1,0.1,0.2,0.3,0.2,0.4s-0.1,0.3-0.2,0.4c-0.1,0.1-0.3,0.2-0.4,0.2
				c-0.2,0-0.3-0.1-0.4-0.2c-0.1-0.1-0.2-0.3-0.2-0.4s0.1-0.3,0.2-0.4C94.2,77.6,94.3,77.5,94.5,77.5z"/>
			<path class="st2" d="M99.9,75.3l-0.9,0.5c-0.2-0.2-0.3-0.3-0.5-0.4s-0.3-0.1-0.6-0.1c-0.4,0-0.7,0.1-0.9,0.4s-0.4,0.5-0.4,0.9
				c0,0.4,0.1,0.6,0.4,0.9c0.2,0.2,0.5,0.3,0.9,0.3c0.5,0,0.8-0.2,1.1-0.5l0.8,0.6c-0.4,0.6-1.1,0.9-1.9,0.9c-0.7,0-1.3-0.2-1.7-0.6
				c-0.4-0.4-0.6-0.9-0.6-1.5c0-0.4,0.1-0.8,0.3-1.1c0.2-0.3,0.5-0.6,0.8-0.8c0.4-0.2,0.8-0.3,1.2-0.3c0.4,0,0.8,0.1,1.1,0.2
				C99.5,74.8,99.7,75,99.9,75.3z"/>
			<path class="st2" d="M102.6,74.3c0.4,0,0.8,0.1,1.1,0.3c0.3,0.2,0.6,0.5,0.8,0.8c0.2,0.3,0.3,0.7,0.3,1.1c0,0.4-0.1,0.8-0.3,1.1
				c-0.2,0.3-0.5,0.6-0.8,0.8c-0.3,0.2-0.7,0.3-1.1,0.3c-0.6,0-1.1-0.2-1.5-0.6c-0.4-0.4-0.6-0.9-0.6-1.5c0-0.6,0.2-1.2,0.7-1.6
				C101.6,74.5,102.1,74.3,102.6,74.3z M102.6,75.3c-0.3,0-0.6,0.1-0.8,0.3c-0.2,0.2-0.3,0.5-0.3,0.9c0,0.4,0.1,0.7,0.3,0.9
				c0.2,0.2,0.5,0.3,0.8,0.3c0.3,0,0.6-0.1,0.8-0.3c0.2-0.2,0.3-0.5,0.3-0.9c0-0.4-0.1-0.6-0.3-0.9C103.2,75.4,103,75.3,102.6,75.3z
				"/>
			<path class="st2" d="M105.5,74.4l1,0l0,0.5c0.2-0.2,0.4-0.3,0.6-0.4c0.2-0.1,0.5-0.1,0.7-0.1c0.3,0,0.5,0.1,0.7,0.2
				c0.2,0.1,0.4,0.3,0.5,0.6c0.2-0.2,0.4-0.4,0.6-0.6c0.2-0.1,0.5-0.2,0.8-0.2c0.3,0,0.6,0.1,0.8,0.2c0.2,0.1,0.4,0.3,0.5,0.5
				c0.1,0.2,0.1,0.6,0.2,1.1l0,2.4l-1,0l0-2.1c0-0.5-0.1-0.8-0.2-1c-0.1-0.2-0.3-0.2-0.5-0.2c-0.2,0-0.3,0.1-0.5,0.2
				c-0.1,0.1-0.2,0.2-0.3,0.4c-0.1,0.2-0.1,0.5-0.1,0.9l0,1.9l-1,0l0-2c0-0.4,0-0.6-0.1-0.8c-0.1-0.2-0.1-0.3-0.2-0.4
				c-0.1-0.1-0.2-0.1-0.4-0.1c-0.2,0-0.3,0.1-0.5,0.2c-0.1,0.1-0.2,0.2-0.3,0.4c-0.1,0.2-0.1,0.5-0.1,0.9l0,1.8l-1,0L105.5,74.4z"/>
		</g>
	</g>
</g>
</svg>
