<?xml version="1.0" encoding="utf-8"?>
<!-- Generator: Adobe Illustrator 25.3.0, SVG Export Plug-In . SVG Version: 6.00 Build 0)  -->
<svg version="1.1" id="Layer_1" xmlns="http://www.w3.org/2000/svg" xmlns:xlink="http://www.w3.org/1999/xlink" x="0px" y="0px"
	 viewBox="0 0 400 200" style="enable-background:new 0 0 400 200;" xml:space="preserve">
<style type="text/css">
	.st0{fill:#DADADA;}
	.st1{fill:#FFFFFF;}
	.st2{fill:#EDEDED;}
</style>
<g>
	<g>
		<path class="st0" d="M192.6,77.4c0-14.3,11.1-25.7,26.2-25.7c11.4,0,21.3,7.7,24.2,18.8h-10.3c-2.5-5.8-7.1-9.4-14.3-9.4
			c-9,0-16.1,7.3-16.1,16.3c0,9,7.1,16.3,16.1,16.3c6.9,0,11.4-3.4,14-9h10.6c-3.2,10.8-12.8,18.4-24.1,18.4
			C203.5,103.1,192.6,91.7,192.6,77.4z"/>
		<path class="st0" d="M256.5,61.5h-13.3v-9.1h36.1v9.1H266v40.9h-9.5V61.5z"/>
		<path class="st0" d="M296.3,61.5h-13.3v-9.1h36.1v9.1h-13.3v40.9h-9.5V61.5z"/>
	</g>
	<g>
		<path class="st1" d="M193.8,127.5c0-8.9,6.6-15.7,16.3-15.7c7.1,0,12.7,4.5,14.4,10.8h-6.6c-1.3-3.1-4.1-5-8.3-5
			c-5.8,0-10,4.4-10,10c0,5.8,4.5,10,10,10c5.1,0,8.1-2.5,9.2-6.3h-9.4v-5.6h15.7v2.2c0,8.2-5.8,15.4-15.5,15.4
			C200.9,143.3,193.8,136.5,193.8,127.5z"/>
		<path class="st1" d="M227.8,121.8h5.7v3.4c1.1-2.2,2.9-3.4,5.8-3.4h2.3v5.6H238c-3.1,0-4.4,1.6-4.4,5.5v9.9h-5.8V121.8z"/>
		<path class="st1" d="M242.6,132.3c0-6,4.8-10.9,10.9-10.9c6,0,10.9,4.9,10.9,10.9c0,6-4.8,10.9-10.9,10.9
			C247.4,143.3,242.6,138.4,242.6,132.3z M258.7,132.3c0-3-2.4-5.5-5.3-5.5c-3,0-5.2,2.5-5.2,5.5c0,3,2.3,5.5,5.2,5.5
			C256.4,137.8,258.7,135.3,258.7,132.3z"/>
		<path class="st1" d="M266.6,134.7v-12.8h5.8v12.1c0,2.9,1.2,4.5,3.7,4.5c2.2,0,3.6-1.5,3.6-4.9v-11.6h5.8v21h-5.7v-2.4
			c-1.2,1.8-3.1,2.9-5.5,2.9C269.4,143.3,266.6,140.2,266.6,134.7z"/>
		<path class="st1" d="M294.4,140.8v11.7h-5.8v-30.7h5.8v2.4c1.3-1.6,3.5-2.8,6.3-2.8c4.7,0,10.2,3.5,10.2,10.9
			c0,7.4-5.6,10.9-10.1,10.9C298,143.3,295.7,142.3,294.4,140.8z M305.2,132.3c0-3.2-2.4-5.6-5.6-5.6c-3.1,0-5.4,2.5-5.4,5.6
			c0,3.1,2.3,5.7,5.4,5.7C302.8,138,305.2,135.5,305.2,132.3z"/>
	</g>
	<path class="st1" d="M174.5,118.3c0-7.8-6.3-14.1-14.1-14.1l0,0c0,0-3.3-0.4-8.4,1.6c-5.1,2.1-8.6,7-8.6,7l-0.7,0.9
		c0,0-3.1,4.9-6.8,7.5c-3.5,2.4-7.2,5.3-15.4,5.7l-1,0c6.3,8.8,15.4,15.3,26,18.5c11-3.3,20.4-10.4,26.8-19.6l0.1-0.1
		C173.8,123.7,174.5,121.1,174.5,118.3z"/>
	<path class="st1" d="M171.8,68.5c1.8,2.4,2.7,5.3,2.7,8.4c0,7.8-6.3,14.1-14.1,14.1c0,0,0,0,0,0c0,0-3.3,0.4-8.4-1.6
		c-5.1-2.1-8.6-7-8.6-7l-0.7-0.9c0,0-3.1-4.9-6.8-7.5c-3.5-2.4-7.2-5.2-15.5-5.7l-1,0c6.3-8.8,15.4-15.3,26-18.5
		C156.2,52.9,165.4,59.6,171.8,68.5L171.8,68.5z"/>
	<path class="st2" d="M119.5,127.1C119.5,127.1,119.5,127.1,119.5,127.1L119.5,127.1c-0.3,0-0.7,0-1,0c-0.3,0-0.6,0-0.9,0
		c0,0,0,0,0,0c0,0,0,0,0,0c-20.2,0-36.6-13.2-36.6-29.5s16.4-29.5,36.6-29.5c0,0,0,0,0,0c0,0,0,0,0,0c0.3,0,0.6,0,0.9,0
		c0.3,0,0.7,0,1,0v0c0,0,0,0,0,0c5.4-7.4,12.7-13.3,21.3-16.8c1.5-0.6,3.1-1.2,4.7-1.7c-4.2-1.3-8.6-2-13.2-2.1c-0.5,0-0.9,0-1.4,0
		c-27.7,0-50.1,22.4-50.1,50.1v0.1v0.1c0,27.7,22.5,50.1,50.1,50.1c0.5,0,0.9,0,1.4,0c4.6-0.1,9-0.9,13.2-2.1
		c-1.6-0.5-3.2-1.1-4.7-1.7C132.3,140.4,124.9,134.5,119.5,127.1z M80.9,97.6C80.9,97.6,80.9,97.6,80.9,97.6c0-0.1,0-0.1,0-0.2
		L80.9,97.6z"/>
	<path class="st0" d="M109.8,97.6c0-11,3.6-21.2,9.7-29.4c0,0,0,0,0,0c0,0,0,0,0,0v0c-0.6,0-1.3,0-2,0C97.4,68.1,81,81.3,81,97.6
		s16.4,29.5,36.6,29.5c0.7,0,1.3,0,2,0v0c0,0,0,0,0,0C113.4,118.8,109.8,108.6,109.8,97.6z"/>
</g>
</svg>
