<?xml version="1.0" encoding="utf-8"?>
<!-- Generator: Adobe Illustrator 25.3.0, SVG Export Plug-In . SVG Version: 6.00 Build 0)  -->
<svg version="1.1" id="Layer_1" xmlns="http://www.w3.org/2000/svg" xmlns:xlink="http://www.w3.org/1999/xlink" x="0px" y="0px"
	 viewBox="0 0 150 65" style="enable-background:new 0 0 150 65;" xml:space="preserve">
<style type="text/css">
	.st0{fill:#FFFFFF;}
</style>
<g>
	<path class="st0" d="M54.4,38.7h9.7l9.4,16.9c0.3,0.5,0.9,0.9,1.5,0.9c0.6,0,1.2-0.3,1.5-0.9l9.4-16.9h9.7c1,0,1.7-0.8,1.7-1.7
		c0-1-0.8-1.7-1.7-1.7h-7.8l5.1-9.2c0.5-0.8,0.2-1.9-0.7-2.3c-0.8-0.5-1.9-0.2-2.3,0.7l-6.1,10.9H66.2l-6.1-10.9
		c-0.5-0.8-1.5-1.1-2.3-0.7c-0.8,0.5-1.1,1.5-0.7,2.3l5.1,9.2h-7.8c-1,0-1.7,0.8-1.7,1.7C52.7,38,53.5,38.7,54.4,38.7z M68.1,38.7
		h13.9L75,51.2L68.1,38.7z"/>
</g>
</svg>
