<?xml version="1.0" encoding="utf-8"?>
<!-- Generator: Adobe Illustrator 25.3.0, SVG Export Plug-In . SVG Version: 6.00 Build 0)  -->
<svg version="1.1" id="Layer_1" xmlns="http://www.w3.org/2000/svg" xmlns:xlink="http://www.w3.org/1999/xlink" x="0px" y="0px"
	 viewBox="0 0 400 140" style="enable-background:new 0 0 400 140;" xml:space="preserve">
<g>
	<path d="M194.7,39.3c-17.1,0-31,13.9-31,31c0,17.1,13.9,31,31,31s31-13.9,31-31C225.7,53.2,211.9,39.3,194.7,39.3z M194.7,89.8
		c-10.8,0-19.5-8.8-19.5-19.5s8.8-19.5,19.5-19.5c10.8,0,19.5,8.8,19.5,19.5S205.5,89.8,194.7,89.8z"/>
	<path d="M330.3,39.3c-17.1,0-31,13.9-31,31c0,17.1,13.9,31,31,31c17.1,0,31-13.9,31-31C361.3,53.2,347.4,39.3,330.3,39.3z
		 M330.3,89.8c-10.8,0-19.5-8.8-19.5-19.5s8.8-19.5,19.5-19.5s19.5,8.8,19.5,19.5S341.1,89.8,330.3,89.8z"/>
	<path d="M154.1,40.7l-21.8,37.8l-21.8-37.8c-0.2-0.4-0.7-0.7-1.2-0.7H99.2c-1,0-1.7,1.1-1.2,2l33.1,57.3c0.5,0.9,1.8,0.9,2.4,0
		l33.1-57.3c0.5-0.9-0.1-2-1.2-2h-10.1C154.8,40,154.4,40.3,154.1,40.7z"/>
	<path d="M100.7,74.2L100.7,74.2c0,0.1,0,0.3-0.1,0.4c-0.1,0.7-0.7,1.2-1.3,1.2H82.5c-0.5,0-0.9-0.3-1.2-0.7l-4.8-8.3
		c-0.5-0.9,0.1-2,1.2-2h11c-2.5-8.5-10.6-14.6-20.1-14c-9.7,0.6-17.5,8.4-18.2,18.1c-0.8,11.4,8.2,21,19.5,21
		c5.6,0,10.6-2.3,14.2-6.1c0.6-0.7,1.7-0.5,2.2,0.3l4.5,7.8c0.3,0.6,0.2,1.3-0.3,1.7c-5.5,4.9-12.7,7.8-20.6,7.8
		c-17.6,0-31.8-14.7-31-32.5c0.8-16.1,13.9-29,30-29.5c15.9-0.5,29.1,10.9,31.6,26l0,0l0,0c0.3,1.6,0.4,3.3,0.4,5
		C100.9,71.6,100.8,72.9,100.7,74.2z"/>
	<path d="M293.3,66.3L293.3,66.3c0-0.1,0-0.3-0.1-0.4c-0.1-0.7-0.7-1.2-1.3-1.2h-16.7c-0.5,0-0.9,0.3-1.2,0.7l-4.8,8.3
		c-0.5,0.9,0.1,2,1.2,2h11c-2.5,8.5-10.6,14.6-20.1,14c-9.7-0.6-17.5-8.4-18.2-18.1c-0.8-11.4,8.2-21,19.5-21
		c5.6,0,10.6,2.3,14.2,6.1c0.6,0.7,1.7,0.5,2.2-0.3l4.5-7.8c0.3-0.6,0.2-1.3-0.3-1.7c-5.5-4.9-12.7-7.8-20.6-7.8
		c-17.6,0-31.8,14.7-31,32.5c0.8,16.1,13.9,29,30,29.5c15.9,0.5,29.1-10.9,31.6-26l0,0l0,0c0.3-1.6,0.4-3.3,0.4-5
		C293.5,68.9,293.4,67.6,293.3,66.3z"/>
</g>
</svg>
