<?xml version="1.0" encoding="utf-8"?>
<!-- Generator: Adobe Illustrator 25.3.0, SVG Export Plug-In . SVG Version: 6.00 Build 0)  -->
<svg version="1.1" id="Layer_1" xmlns="http://www.w3.org/2000/svg" xmlns:xlink="http://www.w3.org/1999/xlink" x="0px" y="0px"
	 viewBox="0 0 200 100" style="enable-background:new 0 0 200 100;" xml:space="preserve">
<style type="text/css">
	.st0{fill:#E1251B;}
	.st1{fill:#1E1E1C;}
	.st2{fill:#FFFFFF;}
</style>
<g>
	<g>
		<g>
			<rect x="46.3" y="26.2" class="st0" width="53.7" height="32.7"/>
			<rect x="100" y="26.2" class="st1" width="53.7" height="32.7"/>
			<path class="st2" d="M92,42.5h0.6c1.8,0,3.3-1.5,3.3-3.3v-3.2c0-3.8-3.1-6.9-6.9-6.9H50.4V56h9.1V45.2h23.6c2,0,3.6,1.6,3.6,3.6
				V56h9.1v-9.6C95.9,44.2,94.1,42.5,92,42.5z M84.1,39.8H59.5v-5.3h24.5c1.5,0,2.7,1.2,2.7,2.7C86.8,38.6,85.6,39.8,84.1,39.8z"/>
			<path class="st2" d="M142.7,29.1h-38.6V56h38.6c3.8,0,6.9-3.1,6.9-6.9V35.9C149.5,32.2,146.5,29.1,142.7,29.1z M140.5,47.2
				c0,1.9-1.5,3.4-3.4,3.4h-23.8V34.5H137c1.9,0,3.4,1.5,3.4,3.4V47.2z"/>
		</g>
		<g>
			<path d="M61.8,72.2c-0.4-0.3-0.5-0.7-0.5-1.1c0-1.8,0-3.6,0.1-5.4c0-0.2,0.1-0.5,0.3-0.6c0.6-0.5,0.5-1.3-0.3-1.6
				c-0.9-0.3-1.8-0.2-2.7,0c-0.6,0.2-0.7,1-0.3,1.4c0.2,0.2,0.3,0.5,0.4,0.8c0,0.2,0,0.4,0,0.7c0,0.2,0,0.4,0,0.6
				c0,0.3-0.1,0.4-0.4,0.4c-0.4,0-0.8,0-1.2,0c-0.3,0-0.4-0.1-0.4-0.4c0-0.4,0-0.9,0-1.3c0-0.2,0.2-0.5,0.3-0.7
				c0.5-0.6,0.3-1.4-0.5-1.6c-0.6-0.1-1.2-0.1-1.8,0c-0.3,0-0.7,0.2-0.9,0.4c-0.5,0.3-0.4,0.9,0,1.2c0.3,0.2,0.4,0.4,0.4,0.8
				c0,1.8,0,3.7,0,5.5c0,0.3-0.1,0.5-0.3,0.8c-0.6,0.5-0.5,1.2,0.3,1.5c0.7,0.2,1.3,0.2,2,0.1c0.3,0,0.6-0.1,0.8-0.3
				c0.5-0.3,0.5-0.9,0.1-1.4c-0.1-0.2-0.3-0.4-0.3-0.6c0-0.6,0-1.2,0-1.9c0-0.1,0.2-0.3,0.3-0.3c0.4-0.1,0.9-0.1,1.4-0.1
				c0.2,0,0.4,0.1,0.4,0.4c0,0.7,0,1.3-0.1,2c0,0.2-0.1,0.3-0.2,0.5c-0.6,0.6-0.4,1.3,0.4,1.6c0.8,0.2,1.6,0.2,2.4,0
				c0.1,0,0.3-0.1,0.4-0.2C62.1,73.1,62.2,72.5,61.8,72.2z"/>
			<path d="M153.1,65.4c-0.5-1-1.2-1.8-2.3-2c-0.6-0.1-1.2-0.1-1.8-0.1c-0.6,0-1.2,0.1-1.8,0.1c-0.4,0-0.7,0-1.1,0
				c-0.4,0-0.6,0.3-0.7,0.6c-0.1,0.4,0,0.6,0.3,0.8c0.3,0.2,0.4,0.4,0.4,0.7c0,0.9,0,1.8,0,2.7c0,1.2-0.1,2.4-0.1,3.6
				c0,0.2-0.1,0.4-0.3,0.5c-0.1,0.1-0.2,0.3-0.3,0.4c-0.2,0.7,0.3,1.1,1,1c0.4-0.1,0.8-0.1,1.2-0.1c0.6,0,1.3,0,1.9,0.1
				c1.5,0.2,2.6-0.4,3.4-1.7c0.5-0.8,0.7-1.6,0.8-2.5C153.7,68.1,153.7,66.7,153.1,65.4z M150.7,70.6c-0.1,0.2-0.1,0.5-0.3,0.7
				c-0.2,0.2-0.5,0.5-0.7,0.6c-0.7,0.3-1.1,0-1.1-0.7c0-0.9,0-1.8,0-2.8c0-0.9,0-1.8,0-2.7c0-0.6,0.2-0.7,0.7-0.6
				c0.5,0.1,0.9,0.4,1.1,0.9c0.2,0.6,0.4,1.2,0.4,1.8C151,68.6,151,69.6,150.7,70.6z"/>
			<path d="M118.6,63.4c-0.7-0.2-1.4-0.2-2.1,0c-0.6,0.2-0.7,1-0.3,1.3c0.4,0.3,0.5,0.7,0.5,1.2c0,0.4,0,0.9,0,1.3
				c0,0.3-0.2,0.3-0.4,0.1c-0.1-0.1-0.3-0.3-0.4-0.4c-0.8-1-1.7-2.1-2.5-3.1c-0.2-0.2-0.4-0.4-0.6-0.5c-0.7-0.1-1.3-0.2-1.9,0.1
				c-0.5,0.3-0.6,1-0.2,1.3c0.4,0.3,0.5,0.7,0.6,1.1c0.2,1.7,0.1,3.5,0,5.2c0,0.4-0.1,0.7-0.5,1c-0.4,0.4-0.3,1.1,0.2,1.3
				c0.7,0.4,1.5,0.4,2.2,0c0.6-0.3,0.6-1,0.1-1.4c-0.3-0.2-0.4-0.6-0.4-0.9c0-0.3,0-0.5,0-0.8c0-0.4,0-0.8,0.1-1.2
				c0.1-0.3,0.3-0.4,0.5-0.2c0.1,0.1,0.2,0.2,0.3,0.3c0.5,0.6,1,1.2,1.5,1.8c0.7,0.8,1.3,1.6,2,2.4c0.4,0.4,0.7,0.3,0.9-0.2
				c0.1-0.2,0.1-0.5,0.1-0.8c0-1.8,0-3.6,0.1-5.4c0-0.5,0-1,0.1-1.4c0-0.3,0.1-0.6,0.4-0.8C119.3,64.5,119.2,63.6,118.6,63.4z"/>
			<path d="M63.6,64.7c-0.9,1.1-1.2,2.4-1.2,3.8c0,1.2,0.3,2.4,1,3.5c0.8,1.2,2,1.9,3.4,1.7c1.3-0.2,2.3-0.9,3-2.1
				c1.3-2.3,1-4.6-0.3-6.7C67.9,62.6,65,62.9,63.6,64.7z M67.6,70.9c0,0.1-0.1,0.2-0.1,0.3c-0.2,0.5-0.8,0.6-1.2,0.2
				c-0.2-0.2-0.3-0.4-0.4-0.6c-0.5-1.1-0.8-2.3-0.8-3.5c0-0.5,0-1,0.3-1.4c0.3-0.5,0.8-0.6,1.2-0.2c0.3,0.3,0.5,0.7,0.6,1.1
				c0.3,0.8,0.5,1.6,0.6,2.5C67.9,69.8,67.8,70.4,67.6,70.9z"/>
			<path d="M127.4,68.5c-0.8-0.3-1.5-0.3-2.3-0.1c-0.3,0.1-0.7,0.2-0.9,0.3c-0.3,0.2-0.4,0.5-0.3,0.8c0.1,0.3,0.3,0.5,0.6,0.4
				c0.2,0,0.4,0.1,0.4,0.3c0,0.3,0,0.5,0,0.8c-0.1,0.5-0.6,0.7-1,0.4c-0.3-0.2-0.6-0.6-0.8-0.9c-0.5-0.9-0.6-1.8-0.6-2.8
				c0,0,0-0.6,0.1-1.2c0-0.2,0.1-0.4,0.2-0.6c0.4-1.1,1.5-1.2,2.2-0.3c0.2,0.3,0.4,0.6,0.6,0.9c0.2,0.3,0.5,0.5,0.8,0.5
				c0.4-0.1,0.5-0.4,0.6-0.7c0.2-0.9,0.1-1.8-0.5-2.6c-0.2-0.3-0.4-0.3-0.8-0.2c-0.2,0.1-0.4,0.1-0.6,0c-1.8-0.7-3.5-0.1-4.6,1.5
				c-0.9,1.3-1.1,2.8-0.9,4.4c0.2,1.3,0.6,2.4,1.6,3.3c1.9,1.7,4.5,1.2,5.5-1.1c0.2-0.4,0.3-0.8,0.4-1.2c0.1-0.3,0.1-0.4,0.4-0.5
				c0.2-0.1,0.3-0.3,0.4-0.5C128.1,69,127.8,68.7,127.4,68.5z"/>
			<path d="M51,67.1c-0.3-0.1-0.7-0.2-1-0.4c-0.2-0.1-0.4-0.3-0.6-0.5c-0.2-0.3-0.1-0.6,0.1-0.8c0.2-0.3,0.5-0.3,0.8-0.1
				c0.3,0.1,0.5,0.3,0.7,0.5c0.2,0.2,0.4,0.5,0.7,0.8c0.2,0.2,0.4,0.4,0.7,0.3c0.3-0.1,0.4-0.3,0.5-0.6c0.1-0.9-0.2-1.7-0.8-2.4
				c-0.1-0.2-0.4-0.2-0.6-0.1c-0.2,0.1-0.4,0.1-0.6,0c-0.6-0.2-1.1-0.4-1.7-0.3c-1.6,0.3-2.8,1.9-2.6,3.6c0.2,1.5,1,2.5,2.3,3.1
				c0.3,0.1,0.6,0.3,0.9,0.4c0.4,0.2,0.5,0.6,0.4,0.9c-0.1,0.3-0.4,0.5-0.8,0.5c-0.7,0-1.3-0.3-1.7-0.9c-0.2-0.3-0.4-0.7-0.6-1
				c-0.2-0.4-0.6-0.3-0.8,0.1c0,0.1-0.1,0.2-0.1,0.4c0,0.7,0.1,1.4,0.4,2.1c0.1,0.4,0.4,0.7,0.9,0.8c0.5,0.2,1,0.3,1.5,0.4
				c0.4,0.1,0.9,0.1,1.3,0c1.4-0.3,2.4-1.4,2.7-2.9C53.3,69.1,52.6,67.8,51,67.1z"/>
			<path d="M74.9,63.3c-0.7,0.1-1.4,0.1-2.1,0.1c-0.3,0-0.7,0-1,0c-0.5,0-0.7,0.2-0.8,0.5c-0.1,0.4,0.1,0.6,0.5,0.8
				c0.3,0.1,0.5,0.3,0.5,0.7c0,2,0,3.9,0,5.9c0,0.4-0.1,0.7-0.5,0.9c-0.4,0.3-0.4,0.9,0,1.1c0.1,0.1,0.3,0.2,0.4,0.2
				c0.7,0,1.3,0.1,2,0.1c0.3,0,0.5-0.1,0.8-0.2c0.5-0.3,0.6-0.8,0.1-1.2c-0.3-0.3-0.5-0.6-0.5-1c0-0.2,0-0.5,0-0.7
				c0-0.8-0.2-0.8,0.8-0.7c1,0.1,1.8-0.2,2.4-1c0.6-0.8,0.8-1.7,0.7-2.6C78.1,64.5,77,63.1,74.9,63.3z M75.6,67.6
				c-0.1,0.2-0.3,0.4-0.5,0.5c-0.5,0.2-0.8,0-0.8-0.5c0-0.3,0-0.7,0-1c0-0.4,0-0.8,0-1.2c0-0.3,0.1-0.4,0.4-0.4
				c0.4,0,0.7,0.2,0.9,0.5C75.9,66.2,75.9,66.9,75.6,67.6z"/>
			<path d="M84.8,63.3c-1.5,0.2-2.9,0.2-4.4,0.1c-0.3,0-0.7-0.1-1-0.1c-0.3,0-0.6,0.2-0.7,0.5c-0.1,0.3,0,0.6,0.3,0.8
				c0.3,0.2,0.4,0.5,0.4,0.8c0,1,0.1,2,0,2.9c0,1.1-0.1,2.1-0.1,3.2c0,0.2-0.1,0.4-0.3,0.6c-0.4,0.3-0.4,0.6-0.3,1
				c0.1,0.4,0.4,0.6,0.8,0.6c0.7,0,1.4,0,2,0c0.3,0,0.6-0.1,0.9-0.2c0.3-0.1,0.5-0.4,0.5-0.8c0-0.3-0.1-0.6-0.5-0.6
				c-0.3,0-0.4-0.3-0.4-0.5c0-0.7-0.1-1.5-0.1-2.2c0-0.3,0.2-0.4,0.4-0.4c0.3,0,0.6,0.3,0.7,0.7c0,0.2,0,0.4,0.1,0.6
				c0,0.1,0.2,0.3,0.3,0.3c0.1,0,0.3-0.1,0.4-0.2c0.1-0.1,0.2-0.3,0.2-0.5c0.1-0.6,0.2-1.2,0.3-1.9c-0.1-0.5-0.2-1.1-0.3-1.6
				c0-0.1-0.3-0.3-0.4-0.3c-0.1,0-0.3,0.2-0.4,0.3c-0.1,0.2-0.1,0.4-0.2,0.6c-0.1,0.4-0.3,0.5-0.6,0.5c-0.4,0-0.5-0.2-0.5-0.6
				c0-0.5,0.1-1,0.1-1.6c0-0.3,0.2-0.5,0.6-0.5c0.3,0,0.6,0,0.8,0.1c0.5,0,0.8,0.3,1,0.7c0.1,0.2,0.3,0.4,0.4,0.6
				c0.2,0.2,0.5,0.2,0.6,0c0.1-0.1,0.2-0.3,0.2-0.4c0.1-0.9,0-1.7-0.5-2.4C85.1,63.4,84.9,63.3,84.8,63.3z"/>
			<path d="M96,63.4c-1,0.1-1.9,0.1-2.9,0.1c-0.5,0-0.9-0.1-1.3-0.1c-0.3,0-0.6,0.1-0.7,0.3c-0.4,0.6-0.7,1.2-0.8,1.9
				c0,0.3,0,0.6,0,0.9c0,0.3,0.2,0.5,0.5,0.6c0.3,0.1,0.6-0.1,0.7-0.4c0.2-0.3,0.3-0.6,0.5-0.9c0,0,0.1-0.1,0.1-0.1
				c0.2-0.2,0.5-0.1,0.6,0.1c0,0,0,0.1,0,0.1c0,1.8-0.1,3.6-0.1,5.3c0,0.3-0.2,0.6-0.5,0.7c-0.3,0.1-0.5,0.4-0.4,0.7
				c0.1,0.6,0.5,0.8,0.9,0.9c0.8,0.2,1.7,0.2,2.6,0.1c0.2,0,0.4-0.1,0.6-0.2c0.5-0.2,0.6-1.1,0-1.4c-0.5-0.2-0.6-0.6-0.6-1.1
				c0-0.8,0-1.6,0-2.4c0,0,0,0,0,0c0-0.7,0-1.5,0-2.2c0-0.2,0-0.4,0-0.6c0,0,0,0,0,0c0.1-0.3,0.5-0.3,0.6-0.1c0,0,0,0,0,0
				c0.2,0.3,0.3,0.6,0.4,0.9c0.2,0.4,0.5,0.5,0.8,0.5c0.3-0.1,0.6-0.4,0.6-0.8c0.1-0.8-0.1-1.6-0.5-2.3C96.8,63.3,96.7,63.3,96,63.4
				z"/>
			<path d="M103.8,63.4c-1,0.1-1.9,0.1-2.9,0.1c-0.5,0-0.9-0.1-1.3-0.1c-0.3,0-0.6,0.1-0.7,0.3c-0.4,0.6-0.7,1.2-0.8,1.9
				c0,0.3,0,0.6,0,0.9c0,0.3,0.2,0.5,0.5,0.6c0.3,0.1,0.6-0.1,0.7-0.4c0.2-0.3,0.3-0.6,0.5-0.9c0,0,0.1-0.1,0.1-0.1
				c0.2-0.2,0.5-0.1,0.6,0.1c0,0,0,0.1,0,0.1c0,1.8-0.1,3.6-0.1,5.3c0,0.3-0.2,0.6-0.5,0.7c-0.3,0.1-0.5,0.4-0.4,0.7
				c0.1,0.6,0.5,0.8,0.9,0.9c0.8,0.2,1.7,0.2,2.6,0.1c0.2,0,0.4-0.1,0.6-0.2c0.5-0.2,0.6-1.1,0-1.4c-0.5-0.2-0.6-0.6-0.6-1.1
				c0-0.8,0-1.6,0-2.4c0,0,0,0,0,0c0-0.7,0-1.5,0-2.2c0-0.2,0-0.4,0-0.6c0,0,0,0,0,0c0.1-0.3,0.5-0.3,0.6-0.1c0,0,0,0,0,0
				c0.2,0.3,0.3,0.6,0.4,0.9c0.2,0.4,0.5,0.5,0.8,0.5c0.3-0.1,0.6-0.4,0.6-0.8c0.1-0.8-0.1-1.6-0.5-2.3
				C104.7,63.3,104.6,63.3,103.8,63.4z"/>
			<path d="M143.3,63.4c-1,0.1-1.9,0.1-2.9,0.1c-0.5,0-0.9-0.1-1.3-0.1c-0.3,0-0.6,0.1-0.7,0.3c-0.4,0.6-0.7,1.2-0.8,1.9
				c0,0.3,0,0.6,0,0.9c0,0.3,0.2,0.5,0.5,0.6c0.3,0.1,0.6-0.1,0.7-0.4c0.2-0.3,0.3-0.6,0.5-0.9c0,0,0.1-0.1,0.1-0.1
				c0.2-0.2,0.5-0.1,0.6,0.1c0,0,0,0.1,0,0.1c0,1.8-0.1,3.6-0.1,5.3c0,0.3-0.2,0.6-0.5,0.7c-0.3,0.1-0.5,0.4-0.4,0.7
				c0.1,0.6,0.5,0.8,0.9,0.9c0.8,0.2,1.7,0.2,2.6,0.1c0.2,0,0.4-0.1,0.6-0.2c0.5-0.2,0.6-1.1,0-1.4c-0.5-0.2-0.6-0.6-0.6-1.1
				c0-0.8,0-1.6,0-2.4c0,0,0,0,0,0c0-0.7,0-1.5,0-2.2c0-0.2,0-0.4,0-0.6c0,0,0,0,0,0c0.1-0.3,0.5-0.3,0.6-0.1c0,0,0,0,0,0
				c0.2,0.3,0.3,0.6,0.4,0.9c0.2,0.4,0.5,0.5,0.8,0.5c0.3-0.1,0.6-0.4,0.6-0.8c0.1-0.8-0.1-1.6-0.5-2.3
				C144.2,63.3,144,63.3,143.3,63.4z"/>
			<path d="M137.7,70.2c-0.1-0.1-0.4-0.2-0.5-0.2c-0.1,0-0.3,0.2-0.4,0.4c-0.1,0.3-0.1,0.5-0.2,0.8c-0.1,0.3-0.3,0.6-0.7,0.7
				c-0.6,0.2-1.1,0-1.2-0.7c0-0.2,0-0.4,0-0.6c0-1.5,0-3,0-4.6c0-0.2,0-0.3,0-0.5c0-0.3,0.2-0.5,0.4-0.6c0.4-0.2,0.5-0.6,0.3-0.9
				c-0.1-0.2-0.4-0.4-0.6-0.5c-0.4-0.1-0.9-0.1-1.3-0.2c-0.2,0-0.4,0-0.6,0c-0.4,0.1-0.9,0.2-1.3,0.4c-0.6,0.3-0.6,1,0,1.3
				c0.4,0.2,0.5,0.4,0.5,0.8c0,1.8,0,3.6,0.1,5.3c0,0.6-0.1,1.1-0.6,1.4c-0.2,0.1-0.2,0.4-0.1,0.6c0.1,0.2,0.3,0.3,0.4,0.4
				c0.1,0.1,0.3,0,0.4,0c1.5,0,3.1-0.1,4.6,0.1c0.2,0,0.4-0.1,0.5-0.2c0.4-0.8,0.7-1.6,0.6-2.4C137.9,70.8,137.8,70.5,137.7,70.2z"
				/>
			<path d="M109.3,71.3c0-1.9,0-3.8,0-5.6c0-0.4,0.1-0.7,0.5-0.9c0.2-0.2,0.3-0.4,0.2-0.6c-0.1-0.4-0.3-0.6-0.7-0.7
				c-1-0.3-1.9-0.2-2.8,0.2c-0.6,0.2-0.7,0.8-0.3,1.3c0.3,0.3,0.4,0.6,0.4,1c0,1.8,0,3.6,0,5.4c0,0.3-0.1,0.6-0.4,0.9
				c-0.5,0.5-0.4,1.1,0.3,1.3c0,0,1.3,0.4,2.9-0.1c0.6-0.2,0.7-1,0.2-1.4C109.4,71.9,109.3,71.6,109.3,71.3z"/>
			<path d="M89.4,71.3c0-1.9,0-3.8,0-5.6c0-0.4,0.1-0.7,0.5-0.9c0.2-0.2,0.3-0.4,0.2-0.6c-0.1-0.4-0.3-0.6-0.7-0.7
				c-1-0.3-1.9-0.2-2.8,0.2c-0.6,0.2-0.7,0.8-0.3,1.3c0.3,0.3,0.4,0.6,0.4,1c0,1.8,0,3.6,0,5.4c0,0.3-0.1,0.6-0.4,0.9
				c-0.5,0.5-0.4,1.1,0.3,1.3c0,0,1.3,0.4,2.9-0.1c0.6-0.2,0.7-1,0.2-1.4C89.5,71.9,89.4,71.6,89.4,71.3z"/>
		</g>
	</g>
	<path d="M31.8,13.3v73.3h136.3V13.3H31.8z M166.8,85.3H33.2V14.7h133.6V85.3z"/>
</g>
</svg>
