<?xml version="1.0" encoding="utf-8"?>
<!-- Generator: Adobe Illustrator 25.3.0, SVG Export Plug-In . SVG Version: 6.00 Build 0)  -->
<svg version="1.1" id="Layer_1" xmlns="http://www.w3.org/2000/svg" xmlns:xlink="http://www.w3.org/1999/xlink" x="0px" y="0px"
	 viewBox="0 0 1010 500" style="enable-background:new 0 0 1010 500;" xml:space="preserve">
<style type="text/css">
	.st0{fill:#FFFFFF;}
	.st1{fill:#095540;}
	.st2{font-family:'ArialMT';}
	.st3{font-size:8.0982px;}
	.st4{fill:none;stroke:#475B38;stroke-width:0.931;stroke-miterlimit:10;}
	.st5{fill:none;stroke:#475B38;stroke-width:1.1117;stroke-miterlimit:10;}
</style>
<g>
	<polygon points="194.6,432.5 185.5,432.5 185.5,421.2 194.6,421.2 194.6,425.3 	"/>
	<g>
		<path class="st0" d="M188,428.7c-0.5,0-0.8,0.3-0.8,0.8s0.4,0.8,0.8,0.8c0.5,0,0.8-0.3,0.8-0.8S188.4,428.7,188,428.7z M188,429.9
			c-0.2,0-0.4-0.2-0.4-0.5s0.2-0.4,0.4-0.4s0.4,0.2,0.4,0.4C188.4,429.7,188.2,429.9,188,429.9z"/>
		<polygon class="st0" points="190.2,428.7 189.7,428.7 189.4,429.1 189.1,428.7 188.7,428.7 189.2,429.4 188.6,430.2 189.1,430.2 
			189.4,429.7 189.7,430.2 190.2,430.2 189.7,429.4 		"/>
		<polygon class="st0" points="192.6,428.7 192.6,429.6 191.9,428.7 191.5,428.7 191.5,430.2 191.9,430.2 191.9,429.3 192.6,430.2 
			193,430.2 193,428.7 		"/>
		<polygon class="st0" points="190.2,429 191.3,429 191.3,428.7 190.5,428.7 		"/>
		<polygon class="st0" points="190.5,430.2 191.3,430.2 191.3,429.9 190.3,429.9 		"/>
		<polygon class="st0" points="190,429.3 190,429.4 190.1,429.6 191.3,429.6 191.3,429.3 		"/>
		<path class="st0" d="M192.9,425.1c0-0.1-0.1-0.2-0.2-0.2h-1.1l0.6-1.1c0.1-0.1,0-0.2-0.1-0.3c-0.1-0.1-0.2,0-0.3,0.1L191,425h-2.2
			l-0.8-1.4c-0.1-0.1-0.2-0.1-0.3-0.1c-0.1,0.1-0.1,0.2-0.1,0.3l0.6,1.1h-1c-0.1,0-0.2,0.1-0.2,0.2s0.1,0.2,0.2,0.2h1.2l1.2,2.1
			c0,0.1,0.1,0.1,0.2,0.1s0.1,0,0.2-0.1l1.2-2.1h1.3C192.8,425.3,192.9,425.2,192.9,425.1z M190,426.9l-0.9-1.6h1.7L190,426.9z"/>
	</g>
</g>
<g>
	<text transform="matrix(1 0 0 1 362.9133 58.9348)" class="st1 st2 st3">Woven Size Label</text>
</g>
<line class="st4" x1="332.7" y1="107.5" x2="380.4" y2="61.9"/>
<g>
	<line class="st4" x1="890.2" y1="322" x2="758" y2="322"/>
</g>
<g>
	<line class="st4" x1="242" y1="322.6" x2="126.3" y2="322.6"/>
</g>
<text transform="matrix(1 0 0 1 897.5425 320.0693)" class="st1 st2 st3">PRE-DYED</text>
<text transform="matrix(1 0 0 1 897.5425 329.4693)" class="st1 st2 st3">FABRIC 1</text>
<text transform="matrix(1 0 0 1 69.2027 320.0693)" class="st1 st2 st3">PRE-DYED</text>
<text transform="matrix(1 0 0 1 69.2027 329.4693)" class="st1 st2 st3">FABRIC 1</text>
<g>
	<line class="st4" x1="207.9" y1="146.8" x2="207.9" y2="106.7"/>
</g>
<text transform="matrix(1 0 0 1 182.4621 92.0693)" class="st1 st2 st3">PRE-DYED</text>
<text transform="matrix(1 0 0 1 182.4621 101.4693)" class="st1 st2 st3">FABRIC 1</text>
<g>
	<text transform="matrix(1 0 0 1 417.6426 474.1201)" class="st1 st2 st3">HEM BINDING WITH DROP TAIL TO BACK</text>
</g>
<polyline class="st4" points="389.4,410.9 483.1,460.6 666.1,427.8 "/>
<g>
	<text transform="matrix(1 0 0 1 87.3649 433.668)" class="st1 st2 st3">RIBBED CUFFS</text>
</g>
<line class="st4" x1="180.9" y1="429.5" x2="154.7" y2="431.2"/>
<g>
	<text transform="matrix(1 0 0 1 188.3764 472.9385)" class="st1 st2 st3">Sleeve PIP LABEL</text>
</g>
<line class="st4" x1="216.6" y1="462.8" x2="190.6" y2="427.8"/>
<g>
	<g>
		<text transform="matrix(1 0 0 1 263.3011 35.3746)" class="st1 st2 st3">COLLAR BINDING</text>
	</g>
	<line class="st5" x1="301.9" y1="82" x2="294" y2="41.1"/>
</g>
</svg>
