<?xml version="1.0" encoding="utf-8"?>
<!-- Generator: Adobe Illustrator 25.3.0, SVG Export Plug-In . SVG Version: 6.00 Build 0)  -->
<svg version="1.1" id="Layer_1" xmlns="http://www.w3.org/2000/svg" xmlns:xlink="http://www.w3.org/1999/xlink" x="0px" y="0px"
	 viewBox="0 0 1010 500" style="enable-background:new 0 0 1010 500;" xml:space="preserve">
<style type="text/css">
	.st0{fill:#095540;}
	.st1{font-family:'ArialMT';}
	.st2{font-size:8.0982px;}
	.st3{fill:none;stroke:#475B38;stroke-width:0.931;stroke-miterlimit:10;}
	.st4{fill:#FFFFFF;}
</style>
<g>
	<text transform="matrix(1 0 0 1 485.219 382.0495)" class="st0 st1 st2">SIDE PIP LABEL</text>
</g>
<line class="st3" x1="438" y1="378.9" x2="480" y2="378.9"/>
<g>
	<polygon points="442,385.6 432.9,385.6 432.9,374.2 442,374.2 442,378.3 	"/>
	<g>
		<path class="st4" d="M435.4,381.7c-0.5,0-0.8,0.3-0.8,0.8c0,0.5,0.4,0.8,0.8,0.8s0.8-0.3,0.8-0.8
			C436.2,382,435.9,381.7,435.4,381.7z M435.4,382.9c-0.2,0-0.4-0.2-0.4-0.5c0-0.3,0.2-0.4,0.4-0.4s0.4,0.2,0.4,0.4
			C435.8,382.7,435.6,382.9,435.4,382.9z"/>
		<polygon class="st4" points="437.6,381.7 437.2,381.7 436.9,382.1 436.6,381.7 436.1,381.7 436.6,382.4 436.1,383.2 436.6,383.2 
			436.9,382.8 437.2,383.2 437.7,383.2 437.1,382.4 		"/>
		<polygon class="st4" points="440,381.7 440,382.6 439.3,381.7 439,381.7 439,383.2 439.4,383.2 439.4,382.3 440.1,383.2 
			440.4,383.2 440.4,381.7 		"/>
		<polygon class="st4" points="437.7,382 438.7,382 438.7,381.7 437.9,381.7 		"/>
		<polygon class="st4" points="437.9,383.2 438.7,383.2 438.7,382.9 437.7,382.9 		"/>
		<polygon class="st4" points="437.5,382.3 437.4,382.4 437.5,382.6 438.7,382.6 438.7,382.3 437.5,382.3 		"/>
		<path class="st4" d="M440.3,378.1c0-0.1-0.1-0.2-0.2-0.2H439l0.6-1.1c0.1-0.1,0-0.2-0.1-0.3c-0.1-0.1-0.2,0-0.3,0.1l-0.8,1.4h-2.2
			l-0.8-1.4c-0.1-0.1-0.2-0.1-0.3-0.1c-0.1,0.1-0.1,0.2-0.1,0.3l0.6,1.1h-1c-0.1,0-0.2,0.1-0.2,0.2c0,0.1,0.1,0.2,0.2,0.2h1.2
			l1.2,2.1c0,0.1,0.1,0.1,0.2,0.1s0.1,0,0.2-0.1l1.2-2.1h1.3C440.2,378.3,440.3,378.3,440.3,378.1z M437.4,379.9l-0.9-1.6h1.7
			L437.4,379.9z"/>
	</g>
</g>
<g>
	<polygon points="575.3,385.6 566.2,385.6 566.2,374.2 575.3,374.2 575.3,378.3 	"/>
	<g>
		<path class="st4" d="M568.7,381.7c-0.5,0-0.8,0.3-0.8,0.8c0,0.5,0.4,0.8,0.8,0.8s0.8-0.3,0.8-0.8
			C569.5,382,569.1,381.7,568.7,381.7z M568.7,382.9c-0.2,0-0.4-0.2-0.4-0.5c0-0.3,0.2-0.4,0.4-0.4s0.4,0.2,0.4,0.4
			C569.1,382.7,568.9,382.9,568.7,382.9z"/>
		<polygon class="st4" points="570.9,381.7 570.4,381.7 570.1,382.1 569.8,381.7 569.4,381.7 569.9,382.4 569.3,383.2 569.8,383.2 
			570.1,382.8 570.4,383.2 570.9,383.2 570.4,382.4 		"/>
		<polygon class="st4" points="573.3,381.7 573.3,382.6 572.6,381.7 572.2,381.7 572.2,383.2 572.6,383.2 572.6,382.3 573.3,383.2 
			573.7,383.2 573.7,381.7 		"/>
		<polygon class="st4" points="570.9,382 572,382 572,381.7 571.1,381.7 		"/>
		<polygon class="st4" points="571.2,383.2 572,383.2 572,382.9 571,382.9 		"/>
		<polygon class="st4" points="570.7,382.3 570.6,382.4 570.8,382.6 572,382.6 572,382.3 570.7,382.3 		"/>
		<path class="st4" d="M573.6,378.1c0-0.1-0.1-0.2-0.2-0.2h-1.1l0.6-1.1c0.1-0.1,0-0.2-0.1-0.3c-0.1-0.1-0.2,0-0.3,0.1l-0.8,1.4
			h-2.2l-0.8-1.4c-0.1-0.1-0.2-0.1-0.3-0.1c-0.1,0.1-0.1,0.2-0.1,0.3l0.6,1.1h-1c-0.1,0-0.2,0.1-0.2,0.2c0,0.1,0.1,0.2,0.2,0.2h1.2
			l1.2,2.1c0,0.1,0.1,0.1,0.2,0.1c0.1,0,0.1,0,0.2-0.1l1.2-2.1h1.3C573.5,378.3,573.6,378.3,573.6,378.1z M570.7,379.9l-0.9-1.6h1.7
			L570.7,379.9z"/>
	</g>
</g>
<g>
	<text transform="matrix(1 0 0 1 363.9133 84.8407)" class="st0 st1 st2">Heatset Size Label</text>
</g>
<line class="st3" x1="331" y1="134.9" x2="382.3" y2="86.7"/>
<g>
	<text transform="matrix(1 0 0 1 417.6426 474.1201)" class="st0 st1 st2">HEM BINDING WITH DROP TAIL TO BACK</text>
</g>
<polyline class="st3" points="389.4,410.9 483.1,460.6 666.1,427.8 "/>
</svg>
