<?xml version="1.0" encoding="utf-8"?>
<!-- Generator: Adobe Illustrator 25.3.0, SVG Export Plug-In . SVG Version: 6.00 Build 0)  -->
<svg version="1.1" id="Layer_1" xmlns="http://www.w3.org/2000/svg" xmlns:xlink="http://www.w3.org/1999/xlink" x="0px" y="0px"
	 viewBox="0 0 1010 500" style="enable-background:new 0 0 1010 500;" xml:space="preserve">
<style type="text/css">
	.st0{fill:none;stroke:#475B38;stroke-width:0.931;stroke-miterlimit:10;}
	.st1{fill:#095540;}
	.st2{font-family:'ArialMT';}
	.st3{font-size:8.0982px;}
	.st4{fill:#FFFFFF;}
</style>
<g>
	<line class="st0" x1="468.9" y1="298.3" x2="386.7" y2="298.3"/>
</g>
<g>
	<line class="st0" x1="611.3" y1="298.9" x2="529" y2="298.9"/>
</g>
<text transform="matrix(1 0 0 1 476.2728 296.3517)" class="st1 st2 st3">SUBLIMATED</text>
<text transform="matrix(1 0 0 1 476.2728 305.7517)" class="st1 st2 st3">FABRIC 1</text>
<g>
	<polygon points="163.9,146.1 161.7,137.3 172.7,134.5 174.9,143.3 170.9,144.3 	"/>
	<g>
		<path class="st4" d="M166,138.7c-0.1-0.5-0.5-0.7-1-0.6c-0.4,0.1-0.7,0.5-0.6,1c0.1,0.5,0.5,0.7,1,0.6
			C165.9,139.6,166.2,139.2,166,138.7z M164.8,139c-0.1-0.2,0.1-0.5,0.3-0.5c0.2-0.1,0.5,0.1,0.5,0.3c0.1,0.2-0.1,0.4-0.3,0.5
			S164.9,139.3,164.8,139z"/>
		<polygon class="st4" points="166.6,140.9 166.5,140.4 166,140.3 166.3,139.9 166.2,139.4 165.6,140.1 164.7,139.8 164.8,140.2 
			165.3,140.4 164.9,140.8 165.1,141.3 165.7,140.6 		"/>
		<polygon class="st4" points="167.2,143.2 166.2,143.4 167,142.5 166.9,142.2 165.4,142.6 165.5,142.9 166.4,142.7 165.6,143.6 
			165.7,144 167.2,143.6 		"/>
		<polygon class="st4" points="166.3,141 166.5,142.1 166.8,142 166.6,141.1 		"/>
		<polygon class="st4" points="165.1,141.6 165.3,142.3 165.6,142.3 165.4,141.3 		"/>
		<polygon class="st4" points="165.9,140.9 165.8,140.8 165.6,141 165.9,142.2 166.2,142.1 165.9,140.9 		"/>
		<path class="st4" d="M170.7,142.7c0.1,0,0.2-0.1,0.2-0.3l-0.3-1.1l1.3,0.3c0.1,0,0.2,0,0.3-0.2c0-0.1,0-0.2-0.2-0.3l-1.5-0.4
			l-0.5-2.1l1.1-1.1c0.1-0.1,0.1-0.2,0-0.3c-0.1-0.1-0.2-0.1-0.3,0l-1,0.9l-0.2-0.9c0-0.1-0.1-0.2-0.3-0.2c-0.1,0-0.2,0.1-0.2,0.3
			l0.3,1.2l-1.8,1.6c-0.1,0.1-0.1,0.1-0.1,0.2c0,0.1,0.1,0.1,0.2,0.2l2.3,0.6l0.3,1.3C170.4,142.6,170.6,142.7,170.7,142.7z
			 M168.3,140.3l1.3-1.2l0.4,1.7L168.3,140.3z"/>
	</g>
</g>
<g>
	<text transform="matrix(1 0 0 1 363.9133 84.8407)" class="st1 st2 st3">Heatset Size Label</text>
</g>
<line class="st0" x1="333.7" y1="125.5" x2="382.3" y2="86.7"/>
<g>
	<line class="st0" x1="223.7" y1="123.1" x2="223.7" y2="83"/>
</g>
<text transform="matrix(1 0 0 1 198.2738 68.3517)" class="st1 st2 st3">SUBLIMATED</text>
<text transform="matrix(1 0 0 1 198.2738 77.7517)" class="st1 st2 st3">FABRIC 1</text>
<g>
	<text transform="matrix(1 0 0 1 417.6426 474.1201)" class="st1 st2 st3">HEM BINDING WITH DROP TAIL TO FRONT &amp; BACK</text>
</g>
<polyline class="st0" points="389.4,410.9 483.1,460.6 666.1,427.8 "/>
<g>
	<text transform="matrix(1 0 0 1 64.9607 157.1758)" class="st1 st2 st3">Sleeve Binding</text>
</g>
<line class="st0" x1="167.4" y1="152.2" x2="141.2" y2="153.9"/>
<g>
	<text transform="matrix(1 0 0 1 81.8267 111.0065)" class="st1 st2 st3">Sleeve PIP LABEL</text>
</g>
<line class="st0" x1="129.6" y1="115" x2="171.4" y2="139.8"/>
</svg>
