<?xml version="1.0" encoding="utf-8"?>
<!-- Generator: Adobe Illustrator 25.3.0, SVG Export Plug-In . SVG Version: 6.00 Build 0)  -->
<svg version="1.1" id="Layer_1" xmlns="http://www.w3.org/2000/svg" xmlns:xlink="http://www.w3.org/1999/xlink" x="0px" y="0px"
	 viewBox="0 0 120 90" style="enable-background:new 0 0 120 90;" xml:space="preserve">
<style type="text/css">
	.st0{fill:#00263A;}
</style>
<g>
	<polygon class="st0" points="29.32228,10 52.64998,10 29.32228,26.44681 	"/>
	<polygon class="st0" points="52.6502,10 75.97789,10 75.97789,26.44681 	"/>
	<g>
		<path class="st0" d="M28.46224,74.35112c0.23364,0.25886,0.514,0.51102,0.84036,0.75652
			c0.32563,0.24699,0.69205,0.46507,1.09777,0.6557c0.40644,0.19135,0.86186,0.34414,1.36623,0.46135
			c0.50436,0.11644,1.06436,0.17502,1.68,0.17502c0.66457,0,1.28315-0.09493,1.85501-0.28552
			c0.57263-0.19064,1.07106-0.45841,1.49529-0.80328c0.425-0.34415,0.75955-0.75063,1.00578-1.21792
			c0.24627-0.46801,0.36936-0.97907,0.36936-1.53236c0-0.64014-0.10457-1.18452-0.31372-1.63401
			c-0.20915-0.44872-0.48657-0.827-0.83072-1.13484c-0.34491-0.30708-0.73578-0.55701-1.17192-0.74764
			c-0.43686-0.19059-0.88337-0.34116-1.33879-0.45244c-0.77509-0.17207-1.38407-0.38716-1.82686-0.64602
			c-0.44352-0.25813-0.66457-0.59635-0.66457-1.01542c0-0.15948,0.046-0.31006,0.13871-0.45243
			c0.09194-0.14094,0.21436-0.26407,0.36864-0.36864c0.15351-0.10458,0.32635-0.18764,0.51694-0.24998
			c0.19064-0.0608,0.38422-0.09194,0.5815-0.09194c0.29522,0,0.57485,0.03708,0.83964,0.11123
			c0.26479,0.07343,0.50808,0.16615,0.72913,0.2767c0.22174,0.11123,0.42129,0.23065,0.60002,0.36044
			c0.17801,0.12907,0.33527,0.24849,0.471,0.35972l1.6058-1.77194c-0.11051-0.11127-0.27366-0.2618-0.48879-0.45243
			c-0.21581-0.19064-0.4925-0.3753-0.83072-0.55407c-0.33894-0.17801-0.74764-0.33229-1.22828-0.46135
			c-0.47915-0.12979-1.03321-0.1943-1.66067-0.1943c-0.76326,0-1.42485,0.10159-1.98485,0.30481
			c-0.56,0.20327-1.02728,0.47992-1.40258,0.83072c-0.37606,0.35085-0.6557,0.75435-0.83963,1.20901
			c-0.18543,0.45542-0.27738,0.94127-0.27738,1.45821c0,0.46879,0.08009,0.89307,0.2403,1.27428
			c0.15948,0.38123,0.38421,0.71949,0.67349,1.01466c0.28924,0.29598,0.63343,0.54813,1.03394,0.75729
			c0.39978,0.2092,0.83371,0.36941,1.30099,0.47991c0.96051,0.24623,1.66143,0.49545,2.10423,0.74765
			c0.44357,0.25293,0.66457,0.606,0.66457,1.06137c0,0.2092-0.05193,0.39684-0.1565,0.56299
			c-0.10458,0.16615-0.24329,0.3078-0.41536,0.42428c-0.17285,0.11716-0.36271,0.20693-0.57263,0.26773
			c-0.20915,0.06229-0.4183,0.09271-0.62745,0.09271c-0.35678,0-0.69205-0.04672-1.00578-0.13871
			c-0.31372-0.09194-0.60301-0.21209-0.86779-0.35972c-0.26479-0.14835-0.50513-0.31078-0.72021-0.48878
			c-0.21512-0.17873-0.40277-0.3538-0.56299-0.52664L28.46224,74.35112z M42.92569,73.88012
			c-0.26479-0.12907-0.48358-0.30408-0.65566-0.52586c-0.17207-0.22105-0.30413-0.47099-0.39684-0.74764
			c-0.09194-0.2767-0.13866-0.56299-0.13866-0.85819c0-0.29517,0.04672-0.58151,0.13866-0.85816
			c0.09272-0.27742,0.22477-0.52292,0.39684-0.73872c0.17208-0.21513,0.39087-0.3872,0.65565-0.51699
			c0.26479-0.12907,0.56299-0.19357,0.89528-0.19357c0.33229,0,0.6275,0.06451,0.88558,0.19357
			c0.25886,0.12979,0.47693,0.30186,0.6557,0.51699c0.17801,0.21581,0.31079,0.4613,0.3968,0.73872
			c0.08606,0.27665,0.12907,0.56299,0.12907,0.85816c0,0.2952-0.043,0.5815-0.12907,0.85819
			c-0.08601,0.27665-0.21879,0.52659-0.3968,0.74764c-0.17877,0.22179-0.39684,0.3968-0.6557,0.52586
			c-0.25808,0.12979-0.5533,0.19435-0.88558,0.19435C43.48868,74.07447,43.19048,74.00991,42.92569,73.88012 M39.51011,73.54856
			c0.22771,0.55927,0.54515,1.04878,0.95087,1.46713c0.40649,0.4183,0.89527,0.75136,1.46785,0.99686
			c0.57186,0.24622,1.20235,0.36936,1.89214,0.36936c0.68906,0,1.31652-0.12314,1.88245-0.36936
			c0.56593-0.24551,1.0525-0.57856,1.45899-0.99686c0.40571-0.41835,0.72242-0.90786,0.95014-1.46713
			c0.22771-0.56072,0.34116-1.16002,0.34116-1.80014c0-0.64009-0.11344-1.23939-0.34116-1.80015
			c-0.22771-0.55923-0.54443-1.04879-0.95015-1.46709c-0.40648-0.41834-0.89305-0.74764-1.45898-0.98721
			c-0.56593-0.24035-1.19338-0.3605-1.88245-0.3605c-0.68979,0-1.32027,0.12015-1.89213,0.3605
			c-0.57258,0.23957-1.06137,0.56887-1.46785,0.98721c-0.40572,0.4183-0.72316,0.90786-0.95087,1.46709
			c-0.22771,0.56077-0.34121,1.16006-0.34121,1.80015C39.1689,72.38854,39.2824,72.98784,39.51011,73.54856 M55.89313,73.20663
			c-0.1847,0.20992-0.43093,0.4035-0.73877,0.5815c-0.30707,0.17877-0.68902,0.26778-1.14444,0.26778
			c-0.31971,0-0.606-0.0675-0.85815-0.20322c-0.25221-0.135-0.46729-0.31079-0.64606-0.52586
			c-0.17801-0.21513-0.31373-0.46136-0.40572-0.73805c-0.09271-0.27737-0.13871-0.55701-0.13871-0.84035
			c0-0.3078,0.046-0.60002,0.13871-0.87672c0.09199-0.27737,0.22771-0.51993,0.40572-0.72908
			c0.17877-0.20915,0.39385-0.37828,0.64606-0.50807c0.25216-0.12907,0.53844-0.19357,0.85815-0.19357
			c0.46801,0,0.8433,0.08601,1.12665,0.25886c0.28258,0.17207,0.52293,0.36936,0.71949,0.59037l1.6058-1.73486
			c-0.39386-0.43093-0.87965-0.7758-1.45749-1.03394c-0.57924-0.25814-1.26165-0.38793-2.04936-0.38793
			c-0.67716,0-1.30171,0.12015-1.87357,0.3605c-0.57259,0.23957-1.06509,0.56887-1.47673,0.98721
			c-0.41242,0.4183-0.73579,0.90786-0.96943,1.46709c-0.23365,0.56076-0.35085,1.16006-0.35085,1.80015
			c0,0.6772,0.11427,1.298,0.34193,1.8647c0.22771,0.56593,0.54443,1.05472,0.95014,1.46709
			c0.40649,0.41241,0.896,0.73284,1.46786,0.95979c0.57186,0.22771,1.209,0.34193,1.91064,0.34193
			c0.79957,0,1.49235-0.14165,2.07684-0.425c0.58445-0.28258,1.05472-0.6208,1.41222-1.01466L55.89313,73.20663z M58.64414,66.15517
			h2.84228v-2.38092h-2.84228V66.15517z M58.73536,76.08598h2.65834v-8.6573h-2.65834V76.08598z M70.14372,73.46477
			c-0.19733,0.14835-0.51106,0.32336-0.94127,0.52663c-0.43093,0.20322-0.99094,0.3048-1.67995,0.3048
			c-0.7017,0-1.25278-0.17579-1.65183-0.52659c-0.40051-0.35085-0.60672-0.75951-0.61858-1.22755h6.16588v-0.4428
			c0-0.72614-0.09272-1.3937-0.27738-2.00263c-0.1847-0.60966-0.4584-1.13258-0.82107-1.56945
			c-0.36348-0.43613-0.80998-0.77807-1.33884-1.02434c-0.5288-0.24623-1.14444-0.36937-1.84609-0.36937
			c-0.70093,0-1.32842,0.12608-1.88249,0.37829c-0.55406,0.2522-1.02135,0.58816-1.4033,1.0065
			c-0.38127,0.41835-0.67349,0.90786-0.87671,1.46714c-0.2025,0.56071-0.30485,1.14149-0.30485,1.7445
			c0,0.68979,0.10828,1.31951,0.32337,1.89209c0.21513,0.57263,0.52958,1.06142,0.94199,1.46786
			c0.41165,0.40572,0.91307,0.72321,1.50422,0.95015c0.59037,0.22771,1.25494,0.34193,1.99372,0.34193
			c0.5533,0,1.0458-0.05265,1.47673-0.15723c0.43021-0.10458,0.80256-0.224,1.11629-0.35973
			c0.31377-0.13577,0.56892-0.2737,0.76621-0.41535c0.19656-0.1417,0.34491-0.24329,0.44279-0.30486L70.14372,73.46477z
			 M65.25208,70.84427c0-0.18466,0.04007-0.37235,0.12015-0.56371c0.07936-0.18987,0.19584-0.36565,0.35013-0.52586
			c0.15424-0.15945,0.34785-0.29222,0.5815-0.3968c0.23437-0.10458,0.50509-0.1565,0.81288-0.1565
			c0.30708,0,0.57191,0.05193,0.79365,0.1565c0.22178,0.10458,0.40648,0.23735,0.55334,0.3968
			c0.14835,0.16021,0.25808,0.336,0.33228,0.52586c0.07415,0.19136,0.11123,0.37905,0.11123,0.56371H65.25208z M73.5771,72.78239
			c0,0.54144,0.05492,1.03322,0.16615,1.47673c0.1105,0.44279,0.2952,0.82108,0.55334,1.13485
			c0.25886,0.3145,0.59707,0.56072,1.01537,0.73873c0.41835,0.178,0.93533,0.26701,1.55093,0.26701
			c0.98427,0,1.89507-0.33152,2.73177-0.99686l-1.07034-1.62359c-0.1728,0.12309-0.3575,0.23065-0.55402,0.32265
			c-0.19656,0.09271-0.43098,0.13871-0.7017,0.13871c-0.35673,0-0.61785-0.1135-0.784-0.34193
			c-0.16615-0.22771-0.24994-0.55035-0.24994-0.9687v-3.41486l2.23406-0.00001v-2.08571h-2.23406v-2.62194H73.5771v2.62194h-1.36622
			v2.08572h1.36622V72.78239z M79.68738,79.27979c0.31966,0.23364,0.67051,0.41241,1.05173,0.53556
			C81.1211,79.93843,81.54534,80,82.01339,80c0.60228,0,1.10442-0.11794,1.50417-0.3508
			c0.39979-0.23365,0.73805-0.5385,1.01542-0.9138c0.27665-0.37534,0.5103-0.80034,0.70165-1.27428
			c0.18991-0.47322,0.38422-0.95014,0.5815-1.43002l3.54393-8.60171h-2.82445l-1.95664,5.46349l-2.15986-5.46349H79.3914
			l3.95114,8.56459l-0.25813,0.7017c-0.17281,0.43092-0.35452,0.73502-0.54515,0.91379
			c-0.19064,0.178-0.42799,0.26772-0.71058,0.26772c-0.20992,0-0.40349-0.04373-0.5815-0.12979
			c-0.17873-0.08601-0.34193-0.18393-0.48951-0.2952L79.68738,79.27979z"/>
		<path class="st0" d="M29.33008,59.67747h4.61494c0.73873,0,1.40553-0.06455,2.00264-0.19362
			c0.59708-0.12902,1.10144-0.33523,1.51381-0.61858c0.41241-0.28258,0.73207-0.64601,0.95978-1.08885
			c0.22771-0.44279,0.34193-0.98423,0.34193-1.62431c0-0.49178-0.08973-0.91977-0.26773-1.2832
			c-0.17878-0.36271-0.39685-0.66381-0.6557-0.90415c-0.25809-0.24029-0.5318-0.42427-0.82108-0.5533
			c-0.28928-0.12983-0.54442-0.21884-0.7662-0.26778c0.14763-0.03785,0.32935-0.1172,0.54443-0.24029
			c0.21513-0.12314,0.41835-0.29227,0.6097-0.50735c0.18987-0.21508,0.35601-0.47394,0.49771-0.77585
			c0.14165-0.30114,0.2121-0.649,0.2121-1.04286c0-0.4183-0.07343-0.82108-0.22101-1.209
			c-0.14759-0.38788-0.38792-0.72908-0.72021-1.02429c-0.33229-0.29594-0.76321-0.53257-1.29207-0.71057
			c-0.52885-0.17873-1.17487-0.2685-1.93809-0.2685h-4.61494C29.33008,47.36497,29.33008,59.67747,29.33008,59.67747z
			 M32.04324,52.29368v-2.76885h1.64364c0.19657,0,0.39684,0.02227,0.5993,0.06528c0.20326,0.04305,0.38498,0.11648,0.54519,0.22106
			c0.15945,0.10458,0.28851,0.24699,0.38716,0.42423c0.09864,0.1795,0.14763,0.4035,0.14763,0.67422
			c0,0.25813-0.04898,0.47693-0.14763,0.6557c-0.09865,0.17801-0.22473,0.31965-0.37828,0.42427
			c-0.15428,0.10458-0.33228,0.18172-0.5355,0.23066c-0.2025,0.04971-0.40871,0.07343-0.61786,0.07343
			C33.68689,52.29368,32.04324,52.29368,32.04324,52.29368z M32.04324,57.53685v-3.21237h1.80906
			c0.20915,0,0.43687,0.0215,0.68309,0.06456c0.24627,0.04373,0.47398,0.12314,0.68314,0.24029
			c0.20915,0.1172,0.38123,0.28036,0.51699,0.48956c0.135,0.20915,0.20322,0.47987,0.20322,0.81144
			c0,0.36937-0.07121,0.65865-0.21214,0.86779c-0.14165,0.20915-0.31744,0.36937-0.52659,0.48064
			c-0.2092,0.11051-0.4369,0.18099-0.68313,0.21137c-0.24628,0.03114-0.46729,0.04672-0.66458,0.04672L32.04324,57.53685
			L32.04324,57.53685z M40.03674,56.3924c0,1.15635,0.28923,2.03008,0.86703,2.62122
			c0.57856,0.59042,1.36627,0.88559,2.36313,0.88559c0.50436,0,0.98795-0.10752,1.4493-0.32265
			c0.46135-0.21508,0.8337-0.48951,1.11705-0.82107l0.07343,0.92198h2.54702V51.0209h-2.63901v4.66986
			c0,0.24622-0.03708,0.48656-0.1105,0.72021c-0.0742,0.23364-0.18543,0.43686-0.33306,0.60893
			c-0.14758,0.17208-0.32559,0.31079-0.53478,0.41536c-0.20988,0.10458-0.44945,0.15651-0.72017,0.15651
			c-0.46805,0-0.82184-0.14093-1.06142-0.42428c-0.23957-0.28258-0.35972-0.6705-0.35972-1.16301V51.0209h-2.6583V56.3924z
			 M50.04171,49.74661h2.843v-2.38165h-2.843V49.74661z M50.1337,59.67747h2.6583v-8.6573h-2.6583V59.67747z M54.45343,59.67747
			h2.65834v-12.3125h-2.65834V59.67747z M64.69802,59.67747h2.47363v-12.3125h-2.63979v3.76643
			c-0.24623-0.08602-0.4858-0.15723-0.71944-0.21286c-0.23441-0.05487-0.56076-0.08235-0.97834-0.08235
			c-0.51695,0-1.04358,0.09498-1.57837,0.28634c-0.53551,0.19059-1.02208,0.47693-1.45894,0.85743
			c-0.43614,0.38195-0.79292,0.86481-1.07029,1.4493c-0.27669,0.58521-0.41536,1.26464-0.41536,2.03972
			c0,0.68979,0.09864,1.30837,0.29517,1.85578c0.19733,0.54737,0.46434,1.01538,0.80328,1.40258
			c0.33822,0.38792,0.73877,0.68607,1.19935,0.89523c0.46208,0.2092,0.95684,0.31377,1.48642,0.31377
			c0.54144,0,1.0243-0.10756,1.4493-0.32341c0.42428-0.21436,0.77214-0.48285,1.04286-0.80251L64.69802,59.67747z M64.53187,55.7649
			c0,0.24627-0.03114,0.48584-0.09194,0.71949c-0.06234,0.23436-0.16393,0.43686-0.30486,0.60893
			c-0.1417,0.1728-0.3197,0.31151-0.53555,0.41536c-0.21508,0.10458-0.47022,0.15723-0.76543,0.15723
			c-0.61564,0-1.07694-0.19951-1.38478-0.60002c-0.3078-0.39978-0.46208-0.91379-0.46208-1.54129
			c0-0.71356,0.18842-1.29877,0.56371-1.75343c0.3753-0.45542,0.90117-0.68314,1.57837-0.68314
			c0.3197,0,0.58743,0.02522,0.80328,0.07343c0.21436,0.04971,0.41464,0.12906,0.59929,0.24034V55.7649z M68.74037,49.74661h2.843
			v-2.38165h-2.843V49.74661z M68.83309,59.67747h2.65829v-8.6573h-2.65829V59.67747z M73.17065,59.67747h2.63974v-4.65129
			c0-0.25813,0.03707-0.50142,0.1105-0.72913c0.0742-0.22771,0.18471-0.42794,0.33306-0.59929
			c0.14685-0.17284,0.33156-0.31151,0.5533-0.41613c0.22178-0.1038,0.47991-0.1565,0.77512-0.1565
			c0.43093,0,0.76616,0.1417,1.0065,0.42427c0.2403,0.28335,0.35973,0.66458,0.35973,1.14449v4.98359h2.65829v-5.35299
			c0-1.1563-0.29222-2.0308-0.87743-2.62045c-0.5845-0.59114-1.37443-0.88635-2.37128-0.88635
			c-0.50509,0-0.98794,0.10458-1.4493,0.31372c-0.46135,0.20919-0.8337,0.48585-1.117,0.83072l-0.07343-0.94122h-2.5478V59.67747z
			 M83.50791,62.66806c0.47992,0.32043,1.0095,0.55407,1.58805,0.70242c0.57779,0.14685,1.25494,0.22101,2.03008,0.22101
			c1.36623,0,2.44244-0.34193,3.23016-1.02429c0.78772-0.68314,1.18157-1.73858,1.18157-3.16565v-7.9193
			c-0.51627-0.18543-1.09777-0.33822-1.74378-0.46135c-0.64678-0.12314-1.32693-0.18471-2.04049-0.18471
			c-0.75059,0-1.43074,0.11055-2.03973,0.33157c-0.60893,0.22178-1.13185,0.53849-1.56872,0.95087
			c-0.43686,0.41314-0.7758,0.90491-1.01537,1.47678c-0.24034,0.57186-0.35976,1.209-0.35976,1.91065
			c0,0.603,0.089,1.15707,0.26705,1.66143c0.17872,0.50436,0.43387,0.94127,0.76693,1.31063
			c0.33151,0.36937,0.74094,0.65566,1.22679,0.85815c0.48656,0.20322,1.03693,0.30486,1.65251,0.30486
			c0.92271,0,1.66145-0.23957,2.21479-0.72021v0.60971c0,0.63935-0.17208,1.11923-0.51624,1.43965
			c-0.34563,0.31966-0.81885,0.47987-1.42186,0.47987c-0.46805,0-0.89527-0.05858-1.2832-0.17502
			c-0.38715-0.11793-0.75357-0.28036-1.09772-0.48956L83.50791,62.66806z M88.91655,55.81977
			c0,0.56593-0.14763,0.98133-0.44284,1.24612s-0.71429,0.39679-1.25496,0.39679c-0.57855,0-1.01913-0.18393-1.32027-0.55407
			c-0.30186-0.36864-0.45171-0.86707-0.45171-1.49457c0-0.32038,0.04527-0.62451,0.13799-0.91379
			c0.09194-0.28924,0.23287-0.54144,0.42422-0.75729c0.19064-0.21508,0.42722-0.38793,0.71057-0.51695
			c0.28336-0.12906,0.61564-0.19362,0.99687-0.19362c0.28334,0,0.51105,0.01558,0.68313,0.04676
			c0.1728,0.03038,0.34486,0.07637,0.517,0.13794V55.81977z"/>
		<path class="st0" d="M29.33016,43.26973h8.67586v-2.47364h-5.8885v-9.83882h-2.78736
			C29.33017,30.95727,29.33017,43.26973,29.33016,43.26973z M46.14634,40.64851c-0.19656,0.14758-0.51029,0.32264-0.94122,0.52587
			c-0.43093,0.20322-0.99093,0.30485-1.68,0.30485c-0.70092,0-1.25201-0.17579-1.65179-0.52586
			c-0.40055-0.35085-0.606-0.76028-0.61863-1.22828h6.16592v-0.44279c0-0.72541-0.09272-1.3937-0.27742-2.00264
			c-0.18393-0.60894-0.45837-1.13186-0.82107-1.56872c-0.36343-0.43691-0.80922-0.77884-1.33879-1.02507
			c-0.52885-0.2455-1.14372-0.36936-1.84614-0.36936c-0.70093,0-1.32842,0.1268-1.88249,0.37901
			c-0.5533,0.2522-1.02131,0.58743-1.40258,1.00578c-0.38195,0.4183-0.67344,0.90786-0.87671,1.46786
			c-0.20322,0.56-0.30481,1.1415-0.30481,1.74373c0,0.68979,0.10752,1.32027,0.32338,1.89286
			c0.21508,0.57185,0.52885,1.06065,0.94122,1.46713c0.41165,0.40644,0.9138,0.72316,1.50422,0.95087
			c0.59114,0.22771,1.25571,0.34121,1.99372,0.34121c0.55334,0,1.04585-0.05192,1.47678-0.1565
			c0.4302-0.10458,0.80251-0.22477,1.11701-0.36049c0.31377-0.13499,0.56892-0.27371,0.76544-0.41536
			c0.19733-0.14093,0.34491-0.24252,0.44356-0.30408L46.14634,40.64851z M41.2547,38.02729
			c0-0.1847,0.04007-0.37235,0.12019-0.56299c0.08009-0.19059,0.19652-0.36637,0.35081-0.52587
			c0.15356-0.16021,0.34713-0.29299,0.5815-0.39757c0.23364-0.10381,0.50436-0.1565,0.8122-0.1565
			c0.30708,0,0.57186,0.05269,0.79364,0.1565c0.22102,0.10458,0.40644,0.23735,0.55407,0.39757
			c0.14759,0.15948,0.25809,0.33527,0.33229,0.52587c0.07343,0.19064,0.11051,0.37828,0.11051,0.56299H41.2547z M56.02229,40.64851
			c-0.19729,0.14758-0.51106,0.32264-0.94122,0.52587c-0.43098,0.20322-0.99093,0.30485-1.68,0.30485
			c-0.70165,0-1.25277-0.17579-1.65179-0.52586c-0.40055-0.35085-0.60672-0.76028-0.61863-1.22828h6.16515v-0.44279
			c0-0.72541-0.09195-1.39371-0.27665-2.00264c-0.1847-0.60894-0.45837-1.13186-0.82108-1.56872
			c-0.36343-0.43691-0.80994-0.77884-1.33879-1.02507c-0.52958-0.2455-1.14449-0.36936-1.84615-0.36936
			c-0.70165,0-1.32914,0.1268-1.88249,0.37901c-0.55403,0.2522-1.02131,0.58743-1.40331,1.00578
			c-0.38122,0.4183-0.67349,0.90786-0.87671,1.46785c-0.20322,0.56-0.30408,1.1415-0.30408,1.74374
			c0,0.68979,0.1068,1.32027,0.32264,1.89286c0.21508,0.57186,0.52881,1.06065,0.94122,1.46713
			c0.41237,0.40644,0.91379,0.72316,1.50494,0.95087c0.59042,0.22771,1.25499,0.34121,1.993,0.34121
			c0.55407,0,1.04657-0.05193,1.47673-0.1565c0.43093-0.10458,0.80328-0.22477,1.11706-0.36049
			c0.31373-0.135,0.56887-0.27371,0.76616-0.41536c0.19656-0.14093,0.34419-0.24252,0.44284-0.30408L56.02229,40.64851z
			 M51.13065,38.02729c0-0.1847,0.04006-0.37235,0.11942-0.56299c0.08013-0.19059,0.19729-0.36637,0.35157-0.52586
			c0.15355-0.16021,0.34714-0.29299,0.58078-0.39757c0.23365-0.10381,0.50508-0.1565,0.81216-0.1565
			c0.30784,0,0.57262,0.05269,0.79441,0.1565c0.22101,0.10458,0.40572,0.23735,0.5533,0.39757
			c0.14763,0.15948,0.25886,0.33527,0.33229,0.52586c0.0742,0.19064,0.1105,0.37828,0.1105,0.56299H51.13065z M64.80865,43.26973
			h2.47359V30.95727h-2.63974v3.76567c-0.24627-0.08601-0.48657-0.1565-0.72021-0.21214
			c-0.23364-0.05559-0.56-0.08307-0.97758-0.08307c-0.51699,0-1.04362,0.0957-1.57836,0.28634
			c-0.53555,0.19059-1.02213,0.47688-1.45822,0.85815c-0.43763,0.38199-0.79441,0.86485-1.07106,1.4493
			c-0.27665,0.58449-0.41536,1.26391-0.41536,2.03972c0,0.68907,0.09865,1.30764,0.29521,1.85506
			c0.19657,0.54737,0.4643,1.01538,0.80328,1.40258c0.33822,0.38793,0.73801,0.68681,1.20008,0.89523
			c0.46135,0.20915,0.95607,0.31378,1.48565,0.31378c0.54148,0,1.02434-0.10757,1.44934-0.32264
			c0.42422-0.21513,0.77209-0.48286,1.04208-0.80328L64.80865,43.26973z M64.64251,39.35644
			c0,0.24622-0.03114,0.48657-0.09199,0.71944c-0.06229,0.23441-0.16315,0.4369-0.30486,0.6097
			c-0.14165,0.17207-0.32042,0.31079-0.5355,0.41536c-0.21508,0.10457-0.47023,0.1565-0.76544,0.1565
			c-0.61563,0-1.07771-0.1995-1.38478-0.60002c-0.30784-0.39978-0.46135-0.91306-0.46135-1.54128
			c0-0.71356,0.18692-1.298,0.56294-1.75343c0.37534-0.45543,0.90121-0.68314,1.57841-0.68314
			c0.31966,0,0.58743,0.02522,0.80324,0.0742c0.21513,0.04894,0.41541,0.12902,0.59933,0.23957V39.35644z M68.4453,42.29138
			c0.43016,0.43098,0.99016,0.75064,1.67995,0.95979c0.68906,0.20919,1.42113,0.31377,2.19622,0.31377
			c0.47991,0,0.95091-0.05564,1.41222-0.16615c0.46136-0.1105,0.87377-0.27964,1.23721-0.50735
			c0.36271-0.22771,0.65195-0.514,0.86707-0.85815c0.21507-0.34492,0.32336-0.75729,0.32336-1.23721
			c0-0.71351-0.20023-1.28537-0.60001-1.7163c-0.39979-0.43093-1.04286-0.76915-1.92921-1.01543
			c-0.65199-0.1728-1.16894-0.32636-1.55093-0.46208c-0.38128-0.13499-0.57187-0.34415-0.57187-0.62749
			c0-0.19657,0.09195-0.35379,0.27666-0.47023c0.1847-0.1172,0.48064-0.17579,0.88635-0.17579
			c0.45466,0,0.86408,0.07415,1.22752,0.22173c0.36271,0.14763,0.68613,0.31378,0.96943,0.49844l1.12592-1.75338
			c-0.46801-0.32042-0.97906-0.56371-1.53237-0.72913c-0.55334-0.16687-1.19935-0.24994-1.93808-0.24994
			c-0.51699,0-0.99985,0.06528-1.44935,0.1943c-0.44949,0.12906-0.83665,0.31377-1.163,0.55334
			c-0.32635,0.2403-0.5815,0.52365-0.7662,0.84923c-0.18465,0.32636-0.27665,0.69278-0.27665,1.0985
			c0,0.39386,0.07642,0.73877,0.2307,1.03394c0.15352,0.29521,0.35674,0.54741,0.60894,0.75656
			c0.25216,0.20915,0.54144,0.38494,0.86779,0.52586c0.32636,0.1417,0.6557,0.25591,0.98799,0.34193
			c0.40572,0.11055,0.74094,0.20919,1.00574,0.29521c0.26406,0.08606,0.47099,0.16985,0.61862,0.24921
			c0.14758,0.08013,0.24921,0.16614,0.30481,0.25886c0.05491,0.09199,0.08234,0.19362,0.08234,0.30413
			c0,0.2833-0.12907,0.47394-0.38715,0.57258c-0.25813,0.09865-0.58521,0.14763-0.97906,0.14763
			c-0.43021,0-0.876-0.08606-1.33735-0.25886c-0.46207-0.17207-0.83443-0.3872-1.117-0.64606L68.4453,42.29138z"/>
	</g>
</g>
</svg>
