<?xml version="1.0" encoding="utf-8"?>
<!-- Generator: Adobe Illustrator 25.3.0, SVG Export Plug-In . SVG Version: 6.00 Build 0)  -->
<svg version="1.1" id="Layer_1" xmlns="http://www.w3.org/2000/svg" xmlns:xlink="http://www.w3.org/1999/xlink" x="0px" y="0px"
	 viewBox="0 0 750.2 400.1" style="enable-background:new 0 0 750.2 400.1;" xml:space="preserve">
<path d="M281.5,102.7h-71.9c-2,0.2-4,0.4-6.1,0.4l-1.9,0c-2.2,0-4.3-0.1-6.4-0.4h-72.3c-0.4,1.3-0.9,2.6-1.3,3.8h161.2
	C282.4,105.3,281.9,104,281.5,102.7z"/>
<rect x="105.2" y="152.6" width="194.6" height="3.8"/>
<path d="M287.6,120.2c0.3,1.5,0.6,3,0.9,4.3c0.1,0.6,0.2,1.1,0.3,1.6L303.2,65l-2.4-0.7L287.6,120.2z"/>
<polygon points="316.9,151.8 319.3,152.2 337.3,75.3 334.9,74.6 "/>
<path d="M116.7,121.4c0.4-1.7,0.8-3.6,1.3-5.6l-12-52.1l-2.4,0.7L116.7,121.4z"/>
<polygon points="89.6,151.3 71.8,74.1 69.4,74.9 87.1,151.8 "/>
<path d="M448.7,64.3l-2.4,0.7l13.2,57.4c0.4-1.8,0.8-3.7,1.2-5.7L448.7,64.3z"/>
<polygon points="429.5,151.6 432,151.1 414.4,74.7 412,75.4 "/>
<path d="M644.7,64.1l-2.3-0.7l-12.2,51.6c0.5,1.9,0.9,3.7,1.3,5.4L644.7,64.1z"/>
<polygon points="678.9,74.4 676.6,73.6 658.5,150.7 660.9,151.1 "/>
</svg>
