<?xml version="1.0" encoding="utf-8"?>
<!-- Generator: Adobe Illustrator 25.3.0, SVG Export Plug-In . SVG Version: 6.00 Build 0)  -->
<svg version="1.1" id="Layer_1" xmlns="http://www.w3.org/2000/svg" xmlns:xlink="http://www.w3.org/1999/xlink" x="0px" y="0px"
	 viewBox="0 0 750.2 400.1" style="enable-background:new 0 0 750.2 400.1;" xml:space="preserve">
<rect x="105.2" y="161.1" width="194.6" height="3.9"/>
<rect x="105.2" y="178.8" width="194.5" height="3.9"/>
<rect x="105.2" y="196.2" width="194.5" height="3.9"/>
<rect x="105.2" y="213.9" width="194.5" height="3.9"/>
<rect x="105.2" y="231.3" width="194.5" height="3.9"/>
<rect x="105.2" y="249.1" width="194.4" height="3.9"/>
<rect x="105.2" y="266.5" width="194.4" height="3.9"/>
<rect x="105.2" y="284.2" width="194.4" height="3.9"/>
<rect x="105.2" y="301.6" width="194.4" height="3.9"/>
<rect x="105.2" y="319.4" width="194.3" height="3.9"/>
<rect x="105.3" y="337.2" width="194.3" height="3.9"/>
<path d="M286.3,355.3H116.7c6,1.1,13.9,2.5,22.7,3.9H261C270.8,357.8,279.6,356.4,286.3,355.3z"/>
</svg>
