<?xml version="1.0" encoding="utf-8"?>
<!-- Generator: Adobe Illustrator 25.3.0, SVG Export Plug-In . SVG Version: 6.00 Build 0)  -->
<svg version="1.1" id="Layer_1" xmlns="http://www.w3.org/2000/svg" xmlns:xlink="http://www.w3.org/1999/xlink" x="0px" y="0px"
	 viewBox="0 0 750.2 400.1" style="enable-background:new 0 0 750.2 400.1;" xml:space="preserve">
<path d="M280.8,100.9c-0.6-1.7-1.3-3.4-2-5C272.2,81,262.9,71,251,66.4l-2.1-0.6c-1.4,5.4-3.8,11.4-7.4,17
	c-8.5,13.2-21.6,20.2-38,20.3l-1.9,0c-16.2,0-29.3-6.9-37.9-19.9c-3.9-5.8-6.3-12-7.7-17.5l-1.9,0.5C141,71.3,131.9,80.8,125.4,96
	c-0.6,1.5-1.2,3-1.8,4.5l79.5,12.6L280.8,100.9z"/>
</svg>
