<?xml version="1.0" encoding="utf-8"?>
<!-- Generator: Adobe Illustrator 25.3.0, SVG Export Plug-In . SVG Version: 6.00 Build 0)  -->
<svg version="1.1" id="Layer_1" xmlns="http://www.w3.org/2000/svg" xmlns:xlink="http://www.w3.org/1999/xlink" x="0px" y="0px"
	 viewBox="0 0 240.9 34" style="enable-background:new 0 0 240.9 34;" xml:space="preserve">
<style type="text/css">
	.st0{fill:#93D500;}
	.st1{fill:#FFFFFF;}
	.st2{font-family:'Arial-BoldMT';}
	.st3{font-size:8.3797px;}
	.st4{fill:none;stroke:#000000;stroke-width:0.6718;stroke-miterlimit:10;}
	.st5{fill:#010000;}
</style>
<path class="st0" d="M155.7,10.2H216c0.9,0,0.9,0.9,0.9,1.8v9.9c0,0.9,0,0.9-0.9,0.9h-60.3c-0.9,0-0.9,0-0.9-0.9V12
	C154.8,11.1,154.8,10.2,155.7,10.2"/>
<text transform="matrix(1 0 0 1 175.2491 19.4733)" class="st1 st2 st3">375C</text>
<g>
	<path d="M26.5,10.2h60.3c0.9,0,0.9,0.9,0.9,1.8v9.9c0,0.9,0,0.9-0.9,0.9H26.5c-0.9,0-0.9,0-0.9-0.9V12
		C25.6,11.1,25.6,10.2,26.5,10.2"/>
	<text transform="matrix(1 0 0 1 41.5362 19.4821)" class="st1 st2 st3">BLACK</text>
</g>
<g>
	<path class="st4" d="M90.8,10.1h60.3c0.9,0,0.9,0.9,0.9,1.8v9.9c0,0.9,0,0.9-0.9,0.9H90.8c-0.9,0-0.9,0-0.9-0.9v-9.9
		C89.9,11,89.9,10.1,90.8,10.1"/>
	<text transform="matrix(1 0 0 1 105.9268 19.3737)" class="st5 st2 st3">WHITE</text>
</g>
</svg>
