<?xml version="1.0" encoding="utf-8"?>
<!-- Generator: Adobe Illustrator 25.3.0, SVG Export Plug-In . SVG Version: 6.00 Build 0)  -->
<svg version="1.1" id="Layer_1" xmlns="http://www.w3.org/2000/svg" xmlns:xlink="http://www.w3.org/1999/xlink" x="0px" y="0px"
	 viewBox="0 0 170 120" style="enable-background:new 0 0 170 120;" xml:space="preserve">
<style type="text/css">
	.st0{fill:#1D1D1B;}
	.st1{fill:#FFFFFF;}
	.st2{fill:#FF8300;}
</style>
<g>
	<g>
		<g>
			<rect x="34.8" y="29.9" class="st0" width="100.5" height="60"/>
		</g>
		<g>
			<g>
				<path class="st1" d="M48.1,39h4.3l4.1,13.3h-3.7L52,49.5h-3.7l-0.7,2.8H44L48.1,39z M48.9,46.8h2.5l-0.2-0.9
					c-0.3-1.3-0.7-2.9-1-4.2h-0.1c-0.3,1.4-0.6,3-0.9,4.2L48.9,46.8z"/>
			</g>
			<g>
				<path class="st2" d="M56.8,52.6h-4.3l-0.7-2.8h-3.3l-0.7,2.8h-4.1l4.2-13.8h4.6l0.1,0.2L56.8,52.6z M52.9,52.1h3.2l-3.9-12.8
					h-3.9l-3.9,12.8h3.1l0.7-2.8h4.1L52.9,52.1z M51.7,47h-3.1l0.3-1.2c0.3-1.1,0.6-2.4,0.8-3.6l0.2-0.9h0.5v0.2
					c0.1,0.6,0.3,1.3,0.4,1.9c0.2,0.8,0.4,1.6,0.5,2.3L51.7,47z M49.3,46.5h1.8L51,45.9c-0.2-0.7-0.4-1.5-0.5-2.3
					c-0.1-0.3-0.2-0.7-0.2-1c-0.2,1.1-0.5,2.3-0.8,3.3L49.3,46.5z"/>
			</g>
			<g>
				<path class="st1" d="M56.5,39h3.6l3,5.9l1.3,3h0.1c-0.2-1.4-0.5-3.4-0.5-5.1v-3.9h3.4v13.3h-3.6l-3-6l-1.3-3h-0.1
					c0.2,1.5,0.5,3.4,0.5,5.1v3.9h-3.4V39z"/>
			</g>
			<g>
				<path class="st2" d="M67.5,52.6h-4l-3-6.1l-0.7-1.7c0.1,1.2,0.3,2.5,0.3,3.7v4.1h-3.9V38.8h4l0.1,0.1l3,5.9l0.7,1.7
					c-0.1-1.2-0.3-2.5-0.3-3.6v-4.1h3.9L67.5,52.6L67.5,52.6z M63.8,52.1H67V39.3h-2.9v3.6c0,1.3,0.2,2.9,0.4,4.2l0.1,1.1h-0.5
					l-1.3-3.1l-2.9-5.8h-3.2v12.8h2.9v-3.6c0-1.2-0.2-2.7-0.3-4c0-0.4-0.1-0.8-0.1-1.1v-0.3h0.5l1.3,3.1L63.8,52.1z"/>
			</g>
			<g>
				<polygon class="st1" points="71.6,42 68,42 68,39 78.6,39 78.6,42 75.1,42 75.1,52.3 71.6,52.3 				"/>
			</g>
			<g>
				<path class="st2" d="M75.3,52.6h-4V42.2h-3.5v-3.5h11.1v3.5h-3.5L75.3,52.6L75.3,52.6z M71.8,52.1h3V41.7h3.5v-2.5h-10v2.5h3.5
					C71.8,41.7,71.8,52.1,71.8,52.1z"/>
			</g>
			<g>
				<polygon class="st1" points="79.3,39 82.9,39 82.9,44 86.8,44 86.8,39 90.4,39 90.4,52.3 86.8,52.3 86.8,47.1 82.9,47.1 
					82.9,52.3 79.3,52.3 				"/>
			</g>
			<g>
				<path class="st2" d="M90.6,52.6h-4v-5.3h-3.5v5.3h-4V38.8h4v5h3.5v-5h4V52.6z M87.1,52.1h3V39.3h-3v5h-4.5v-5h-3v12.8h3v-5.3
					h4.5V52.1z"/>
			</g>
			<g>
				<path class="st1" d="M91.5,45.6c0-4.4,2.5-6.8,6.2-6.8s6.2,2.5,6.2,6.8c0,4.4-2.5,7-6.2,7S91.5,50,91.5,45.6 M100.3,45.6
					c0-2.4-1-3.8-2.6-3.8s-2.6,1.4-2.6,3.8c0,2.4,1,3.9,2.6,3.9C99.3,49.6,100.3,48,100.3,45.6"/>
			</g>
			<g>
				<path class="st2" d="M97.7,52.8c-3.9,0-6.4-2.8-6.4-7.2s2.5-7.1,6.4-7.1s6.4,2.7,6.4,7.1S101.6,52.8,97.7,52.8z M97.7,39
					c-3.7,0-5.9,2.5-5.9,6.6s2.3,6.7,5.9,6.7c3.7,0,5.9-2.6,5.9-6.7C103.6,41.6,101.4,39,97.7,39z M97.7,49.8
					c-1.7,0-2.8-1.6-2.8-4.2c0-2.5,1.1-4.1,2.8-4.1s2.8,1.5,2.8,4.1C100.5,48.2,99.4,49.8,97.7,49.8z M97.7,42.1
					c-1.5,0-2.3,1.3-2.3,3.6s0.9,3.7,2.3,3.7s2.3-1.4,2.3-3.7S99.2,42.1,97.7,42.1z"/>
			</g>
			<g>
				<path class="st1" d="M105,39h3.6l3,5.9l1.3,3h0.1c-0.2-1.4-0.5-3.4-0.5-5.1v-3.9h3.4v13.3h-3.6l-3-6l-1.3-3h-0.1
					c0.2,1.5,0.5,3.4,0.5,5.1v3.9H105V39z"/>
			</g>
			<g>
				<path class="st2" d="M116.1,52.6h-4l-3-6.1l-0.7-1.7c0.1,1.2,0.3,2.5,0.3,3.7v4.1h-3.9V38.8h4l0.1,0.1l3,5.9l0.7,1.7
					c-0.1-1.2-0.3-2.5-0.3-3.6v-4.1h3.9L116.1,52.6L116.1,52.6z M112.4,52.1h3.2V39.3h-2.9v3.6c0,1.3,0.2,2.9,0.3,4.2l0.1,1.1h-0.5
					l-1.3-3.1l-2.9-5.8h-3.2v12.8h2.9v-3.6c0-1.3-0.2-2.7-0.3-4c0-0.4-0.1-0.7-0.1-1.1v-0.3h0.5l1.3,3.1L112.4,52.1z"/>
			</g>
			<g>
				<path class="st1" d="M119.9,47.8l-4-8.7h3.8l1,2.8c0.3,1,0.7,1.9,1,3h0.1c0.3-1,0.7-2,1-3l1-2.8h3.7l-4,8.7v4.6H120L119.9,47.8z
					"/>
			</g>
			<g>
				<path class="st2" d="M123.7,52.6h-4v-4.8l-4.2-9h4.3l1,3c0.2,0.6,0.4,1.1,0.6,1.7c0.1,0.2,0.2,0.5,0.2,0.7
					c0.1-0.4,0.3-0.8,0.4-1.2s0.3-0.8,0.4-1.2l1-3h4.3l-4.2,9v4.8H123.7z M120.2,52.1h3v-4.4l3.9-8.4H124l-0.9,2.6
					c-0.1,0.4-0.3,0.8-0.4,1.2c-0.2,0.6-0.4,1.1-0.6,1.8l-0.1,0.2h-0.4l-0.1-0.2c-0.1-0.4-0.3-0.9-0.4-1.3c-0.2-0.6-0.4-1.1-0.6-1.7
					l-0.9-2.6h-3.2l3.9,8.5v4.3C120.3,52.1,120.2,52.1,120.2,52.1z"/>
			</g>
			<g>
				<polygon class="st1" points="44.3,54.1 48.5,54.1 48.5,60 53.2,60 53.2,54.1 57.4,54.1 57.4,70 53.2,70 53.2,63.7 48.5,63.7 
					48.5,70 44.3,70 				"/>
			</g>
			<g>
				<path class="st2" d="M57.6,70.2H53v-6.3h-4.2v6.3H44V53.9h4.7v5.9H53v-5.9h4.7v16.3H57.6z M53.5,69.7h3.7V54.4h-3.7v5.9h-5.2
					v-5.9h-3.7v15.3h3.7v-6.3h5.2V69.7z"/>
			</g>
			<g>
				<rect x="59.4" y="54.1" class="st1" width="4.2" height="15.8"/>
			</g>
			<g>
				<path class="st2" d="M63.9,70.2h-4.7V53.9h4.7V70.2z M59.7,69.7h3.7V54.4h-3.7V69.7z"/>
			</g>
			<g>
				<path class="st1" d="M65,62.2c0-5.3,3.7-8.3,7.9-8.3c2.3,0,4,1,5.2,2.1l-2.2,2.7c-0.8-0.7-1.6-1.2-2.8-1.2
					c-2.1,0-3.8,1.7-3.8,4.6c0,3,1.3,4.6,4.1,4.6c0.4,0,0.9-0.1,1.2-0.3v-2.2h-2.3v-3.4h6v7.6c-1.1,1.1-3.1,1.9-5.4,1.9
					C68.5,70.3,65,67.6,65,62.2"/>
			</g>
			<g>
				<path class="st2" d="M73,70.5c-5,0-8.2-3.3-8.2-8.3c0-5.1,3.3-8.6,8.1-8.6c2.6,0,4.4,1.2,5.3,2.2l0.2,0.2l-2.5,3l-0.2-0.2
					c-0.8-0.7-1.5-1.1-2.7-1.1c-2.1,0-3.5,1.7-3.5,4.3c0,2.9,1.3,4.4,3.9,4.4c0.4,0,0.7-0.1,1-0.2v-1.8h-2.3v-3.9h6.5v7.9l-0.1,0.1
					C77.5,69.5,75.5,70.5,73,70.5z M72.9,54.1c-3.7,0-7.6,2.5-7.6,8.1c0,5.8,4,7.8,7.7,7.8c2.3,0,4.1-0.9,5.1-1.8V61h-5.5v2.9h2.3
					v2.6l-0.1,0.1c-0.3,0.2-0.8,0.3-1.4,0.3c-2.9,0-4.4-1.7-4.4-4.9c0-2.9,1.6-4.8,4-4.8c1.2,0,2,0.4,2.8,1.1l1.9-2.3
					C76.8,55.1,75.2,54.1,72.9,54.1z"/>
			</g>
			<g>
				<path class="st1" d="M79.3,62.2c0-5.3,3.7-8.3,7.9-8.3c2.3,0,4,1,5.2,2.1l-2.2,2.7c-0.8-0.7-1.6-1.2-2.8-1.2
					c-2.1,0-3.8,1.7-3.8,4.6c0,3,1.3,4.6,4.1,4.6c0.4,0,0.9-0.1,1.2-0.3v-2.2h-2.3v-3.4h6v7.6c-1.1,1.1-3.1,1.9-5.4,1.9
					C82.8,70.3,79.3,67.6,79.3,62.2"/>
			</g>
			<g>
				<path class="st2" d="M87.3,70.5c-5,0-8.2-3.3-8.2-8.3c0-5.1,3.3-8.6,8.1-8.6c2.6,0,4.4,1.2,5.3,2.2l0.2,0.2l-2.5,3L90,58.8
					c-0.8-0.7-1.5-1.1-2.7-1.1c-2.1,0-3.5,1.7-3.5,4.3c0,2.9,1.3,4.4,3.9,4.4c0.4,0,0.7-0.1,1-0.2v-1.8h-2.3v-3.9h6.5v7.9l-0.1,0.1
					C91.8,69.5,89.8,70.5,87.3,70.5z M87.2,54.1c-3.7,0-7.6,2.5-7.6,8.1c0,5.8,4,7.8,7.7,7.8c2.3,0,4.1-0.9,5.1-1.8V61h-5.5v2.9h2.3
					v2.6l-0.1,0.1c-0.3,0.2-0.8,0.3-1.4,0.3c-2.9,0-4.4-1.7-4.4-4.9c0-2.9,1.6-4.8,4-4.8c1.2,0,2,0.4,2.8,1.1L92,56
					C91,55.1,89.5,54.1,87.2,54.1z"/>
			</g>
			<g>
				<rect x="94.2" y="54.1" class="st1" width="4.2" height="15.8"/>
			</g>
			<g>
				<path class="st2" d="M98.7,70.2H94V53.9h4.7V70.2z M94.5,69.7h3.7V54.4h-3.7V69.7z"/>
			</g>
			<g>
				<path class="st1" d="M100.5,54.1h4.3l3.5,7.1l1.5,3.6h0.1c-0.2-1.7-0.5-4.1-0.5-6v-4.6h4V70H109l-3.5-7.1l-1.5-3.6h-0.1
					c0.2,1.8,0.5,4.1,0.5,6v4.6h-4L100.5,54.1z"/>
			</g>
			<g>
				<path class="st2" d="M113.6,70.2h-4.7l-0.1-0.1l-3.5-7.1l-1-2.3c0.2,1.5,0.4,3.2,0.4,4.7v4.8h-4.5V53.9h4.7L105,54l3.5,7.1
					l1,2.3c-0.2-1.5-0.4-3.2-0.4-4.6V54h4.5V70.2z M109.2,69.7h3.9V54.4h-3.5v4.3c0,1.6,0.2,3.5,0.4,5c0,0.4,0.1,0.7,0.1,1V65h-0.5
					l-1.6-3.7l-3.4-6.9h-3.9v15.3h3.5v-4.3c0-1.5-0.2-3.2-0.4-4.7c-0.1-0.4-0.1-0.9-0.1-1.3v-0.3h0.5l1.6,3.7L109.2,69.7z"/>
			</g>
			<g>
				<path class="st1" d="M114.4,68l2.4-2.9c1.1,0.9,2.5,1.5,3.7,1.5c1.3,0,1.8-0.4,1.8-1.1c0-0.8-0.8-1-2.1-1.5l-2-0.8
					c-1.7-0.7-3.2-2.1-3.2-4.4c0-2.7,2.4-4.9,5.9-4.9c1.8,0,3.8,0.7,5.3,2.1l-2.1,2.6c-1.1-0.8-2-1.1-3.2-1.1c-1,0-1.7,0.4-1.7,1.1
					c0,0.8,0.9,1,2.3,1.6l1.9,0.8c2,0.8,3.1,2.1,3.1,4.3c0,2.7-2.2,5.1-6.2,5.1C118.4,70.3,116.1,69.5,114.4,68"/>
			</g>
			<g>
				<path class="st2" d="M120.4,70.5c-2.2,0-4.5-0.9-6.2-2.3L114,68l2.7-3.2l0.2,0.2c1.1,0.9,2.5,1.5,3.5,1.5c1.6,0,1.6-0.6,1.6-0.9
					c0-0.5-0.5-0.7-1.6-1.2l-0.3-0.1l-2-0.8c-2.1-0.8-3.3-2.5-3.3-4.6c0-2.9,2.6-5.2,6.1-5.2c2,0,4,0.8,5.4,2.2l0.2,0.2l-2.4,3
					l-0.2-0.1c-1.1-0.8-2-1.1-3-1.1c-0.5,0-1.4,0.1-1.4,0.8c0,0.5,0.6,0.7,1.8,1.2l2.3,0.9c2.2,0.9,3.2,2.4,3.2,4.6
					C126.8,67.8,124.6,70.5,120.4,70.5z M114.7,68c1.5,1.3,3.6,2,5.6,2c4.1,0,5.9-2.5,5.9-4.8c0-2-1-3.3-2.9-4.1l-2.3-0.9
					c-1.3-0.5-2.1-0.8-2.1-1.7c0-0.8,0.7-1.3,1.9-1.3c1.1,0,2,0.3,3.1,1.1l1.8-2.3c-1.3-1.2-3.1-1.9-4.9-1.9c-3.2,0-5.6,2-5.6,4.7
					s2.1,3.8,3,4.2l2.3,1c1.2,0.5,2,0.8,2,1.6c0,0.6-0.4,1.4-2.1,1.4c-1.1,0-2.5-0.5-3.7-1.4L114.7,68z"/>
			</g>
			<g>
				<polygon class="st1" points="46.1,73.4 44.2,73.4 44.2,72.3 49.3,72.3 49.3,73.4 47.3,73.4 47.3,79.1 46.1,79.1 				"/>
			</g>
			<g>
				<path class="st2" d="M47.5,79.2H46v-5.7h-1.9v-1.3h5.3v1.3h-1.9C47.5,73.5,47.5,79.2,47.5,79.2z M46.3,78.9h0.9v-5.7h1.9v-0.8
					h-4.8v0.8h1.9L46.3,78.9L46.3,78.9z"/>
			</g>
			<g>
				<path class="st1" d="M54,72.3h2.3c1.4,0,2.5,0.5,2.5,2c0,1-0.5,1.6-1.3,1.9l1.6,2.8h-1.3l-1.4-2.6h-1V79h-1.2L54,72.3z
					 M56.1,75.5c0.9,0,1.4-0.4,1.4-1.2c0-0.8-0.5-1-1.4-1h-1v2.2H56.1z"/>
			</g>
			<g>
				<path class="st2" d="M59.2,79.2h-1.6l-1.4-2.6h-0.8v2.6H54v-7h2.4c1.7,0,2.6,0.7,2.6,2.1c0,1-0.4,1.6-1.3,2L59.2,79.2z
					 M57.7,78.9h1l-1.6-2.7h0.1c0.8-0.3,1.3-0.9,1.3-1.8c0-1.3-0.8-1.9-2.3-1.9h-2.1V79H55v-2.6h1.2L57.7,78.9z M56.1,75.6H55v-2.4
					h1.1c0.7,0,1.5,0.1,1.5,1.2C57.7,75.2,57.1,75.6,56.1,75.6z M55.3,75.4h0.8c0.9,0,1.3-0.3,1.3-1c0-0.6-0.4-0.9-1.3-0.9h-0.8
					V75.4z"/>
			</g>
			<g>
				<path class="st1" d="M64.9,72.3h1.4l2.2,6.7h-1.3l-0.5-1.8h-2.3L63.9,79h-1.2L64.9,72.3z M64.7,76.3h1.7l-0.2-0.8
					c-0.2-0.7-0.4-1.5-0.6-2.2l0,0c-0.2,0.8-0.4,1.5-0.6,2.2L64.7,76.3z"/>
			</g>
			<g>
				<path class="st2" d="M68.7,79.2h-1.5v-0.1l-0.5-1.7h-2.1L64,79.2h-1.5l2.3-7h1.6L68.7,79.2z M67.3,78.9h1l-2.1-6.5H65l-2.1,6.5
					h0.9l0.5-1.8h2.4v0.1L67.3,78.9z M66.6,76.4h-2l0.3-1c0.2-0.8,0.4-1.5,0.6-2.2v-0.1h0.2l0.1,0.5c0.2,0.6,0.3,1.2,0.5,1.8
					L66.6,76.4z M64.9,76.2h1.4l-0.2-0.7c-0.2-0.6-0.3-1.2-0.5-1.8l0,0c-0.1,0.6-0.3,1.2-0.5,1.8L64.9,76.2z"/>
			</g>
			<g>
				<path class="st1" d="M72.9,72.3h1.2l2.1,3.8l0.7,1.4l0,0c-0.1-0.7-0.2-1.5-0.2-2.3v-2.9h1.1V79h-1.2l-2.1-3.8L74,73.9l0,0
					c0.1,0.7,0.2,1.5,0.2,2.3v2.9h-1.1L72.9,72.3z"/>
			</g>
			<g>
				<path class="st2" d="M74.2,79.2h-1.4v-7h1.4l2.1,3.8l0.4,0.9l0,0c0-0.5-0.1-1.2-0.1-1.7v-3H78v7h-1.4l-2.1-3.8l-0.4-0.9v0.1
					c0,0.5,0.1,1.1,0.1,1.6V79.2z M73.1,78.9H74v-2.8c0-0.5-0.1-1.1-0.1-1.6c0-0.2,0-0.4-0.1-0.7v-0.1H74l0.7,1.5l2.1,3.7h1v-6.5H77
					v2.8c0,0.5,0.1,1.1,0.1,1.7c0,0.2,0,0.4,0.1,0.6v0.1h-0.3l-0.7-1.5l-2.1-3.7h-1V78.9z"/>
			</g>
			<g>
				<path class="st1" d="M82.8,78.2l0.7-0.8c0.5,0.5,1.1,0.8,1.7,0.8c0.8,0,1.2-0.3,1.2-0.9s-0.4-0.7-1-1l-0.9-0.4
					c-0.7-0.3-1.4-0.8-1.4-1.8c0-1.1,0.9-1.9,2.3-1.9c0.8,0,1.5,0.3,2.1,0.9l-0.6,0.8c-0.4-0.4-0.9-0.6-1.5-0.6s-1.1,0.3-1.1,0.8
					s0.5,0.7,1.1,0.9l0.9,0.4c0.8,0.3,1.4,0.8,1.4,1.8c0,1.1-0.9,2-2.4,2C84.3,79.2,83.4,78.8,82.8,78.2"/>
			</g>
			<g>
				<path class="st2" d="M85.2,79.3c-0.9,0-1.9-0.4-2.5-1l-0.1-0.1l0.9-1l0.1,0.1c0.5,0.5,1.1,0.7,1.7,0.7c0.7,0,1-0.3,1-0.7
					s-0.3-0.6-0.9-0.9l-1-0.4c-0.9-0.4-1.4-1-1.4-1.9c0-1.1,1-2,2.4-2c0.8,0,1.6,0.3,2.2,0.9l0.1,0.1L86.8,74l-0.1-0.1
					c-0.5-0.4-0.9-0.5-1.4-0.5c-0.6,0-0.9,0.3-0.9,0.7s0.4,0.6,0.9,0.8l1,0.4c0.6,0.3,1.4,0.8,1.4,1.9
					C87.8,78.4,86.7,79.3,85.2,79.3z M83,78.2c0.6,0.6,1.4,0.9,2.3,0.9c1.3,0,2.3-0.8,2.3-1.9c0-0.8-0.4-1.3-1.3-1.7l-1-0.4
					c-0.5-0.2-1.1-0.4-1.1-1s0.5-0.9,1.2-0.9c0.5,0,1,0.2,1.4,0.5l0.5-0.6c-0.5-0.5-1.2-0.7-1.9-0.7c-1.2,0-2.1,0.8-2.1,1.8
					c0,0.8,0.4,1.3,1.3,1.7l0.9,0.4c0.6,0.3,1.1,0.5,1.1,1.1s-0.5,1-1.3,1c-0.6,0-1.2-0.3-1.7-0.7L83,78.2z"/>
			</g>
			<g>
				<path class="st1" d="M92.5,72.3h2.1c1.5,0,2.6,0.5,2.6,2.1c0,1.5-1.1,2.2-2.6,2.2h-1v2.5h-1.2L92.5,72.3z M94.5,75.6
					c1,0,1.5-0.4,1.5-1.2c0-0.8-0.5-1.1-1.5-1.1h-0.8v2.3C93.7,75.6,94.5,75.6,94.5,75.6z"/>
			</g>
			<g>
				<path class="st2" d="M93.8,79.2h-1.4v-7h2.2c1.8,0,2.7,0.7,2.7,2.2c0,1.4-1,2.3-2.7,2.3h-0.8C93.8,76.7,93.8,79.2,93.8,79.2z
					 M92.6,78.9h0.9v-2.5h1.1c1.5,0,2.4-0.8,2.4-2.1c0-1.3-0.8-2-2.5-2h-2L92.6,78.9L92.6,78.9z M94.5,75.8h-1v-2.6h1
					c0.8,0,1.6,0.1,1.6,1.2C96.1,75.3,95.6,75.8,94.5,75.8z M93.8,75.5h0.7c0.9,0,1.4-0.3,1.4-1.1c0-0.7-0.4-1-1.4-1h-0.7V75.5z"/>
			</g>
			<g>
				<path class="st1" d="M101.7,75.7c0-2.2,1.2-3.5,3-3.5s3,1.3,3,3.5s-1.2,3.5-3,3.5C102.9,79.2,101.7,77.9,101.7,75.7 M106.4,75.7
					c0-1.5-0.7-2.4-1.7-2.4c-1.1,0-1.7,0.9-1.7,2.4s0.7,2.5,1.7,2.5C105.7,78.2,106.4,77.2,106.4,75.7"/>
			</g>
			<g>
				<path class="st2" d="M104.7,79.3c-1.9,0-3.1-1.4-3.1-3.6s1.2-3.6,3.1-3.6s3.1,1.4,3.1,3.6C107.7,77.9,106.5,79.3,104.7,79.3z
					 M104.7,72.4c-1.7,0-2.8,1.3-2.8,3.3c0,2.1,1.1,3.4,2.8,3.4c1.7,0,2.8-1.3,2.8-3.4C107.5,73.6,106.4,72.4,104.7,72.4z
					 M104.7,78.3c-1.1,0-1.9-1-1.9-2.6s0.7-2.5,1.9-2.5s1.9,1,1.9,2.5C106.5,77.3,105.8,78.3,104.7,78.3z M104.7,73.4
					c-1,0-1.6,0.9-1.6,2.3s0.6,2.4,1.6,2.4s1.6-0.9,1.6-2.4C106.3,74.3,105.7,73.4,104.7,73.4z"/>
			</g>
			<g>
				<path class="st1" d="M112.6,72.3h2.3c1.4,0,2.5,0.5,2.5,2c0,1-0.5,1.6-1.3,1.9l1.6,2.8h-1.3l-1.4-2.6h-1V79h-1.2L112.6,72.3z
					 M114.7,75.5c0.9,0,1.4-0.4,1.4-1.2c0-0.8-0.5-1-1.4-1h-1v2.2H114.7z"/>
			</g>
			<g>
				<path class="st2" d="M117.8,79.2h-1.6l-1.4-2.6H114v2.6h-1.4v-7h2.4c1.7,0,2.6,0.7,2.6,2.1c0,1-0.4,1.6-1.3,2L117.8,79.2z
					 M116.3,78.9h1l-1.6-2.7h0.1c0.8-0.3,1.3-0.9,1.3-1.8c0-1.3-0.8-1.9-2.3-1.9h-2.1V79h0.9v-2.6h1.2L116.3,78.9z M114.7,75.6h-1.1
					v-2.4h1.1c0.7,0,1.5,0.1,1.5,1.2C116.3,75.2,115.7,75.6,114.7,75.6z M113.9,75.4h0.8c0.9,0,1.3-0.3,1.3-1c0-0.6-0.4-0.9-1.3-0.9
					h-0.8V75.4z"/>
			</g>
			<g>
				<polygon class="st1" points="123.4,73.4 121.5,73.4 121.5,72.3 126.6,72.3 126.6,73.4 124.6,73.4 124.6,79.1 123.4,79.1 				"/>
			</g>
			<g>
				<path class="st2" d="M124.8,79.2h-1.4v-5.7h-1.9v-1.3h5.3v1.3h-1.9L124.8,79.2L124.8,79.2z M123.6,78.9h0.9v-5.7h1.9v-0.8h-4.8
					v0.8h1.9L123.6,78.9L123.6,78.9z"/>
			</g>
		</g>
	</g>
</g>
</svg>
