<?xml version="1.0" encoding="utf-8"?>
<!-- Generator: Adobe Illustrator 25.3.0, SVG Export Plug-In . SVG Version: 6.00 Build 0)  -->
<svg version="1.1" id="Layer_1" xmlns="http://www.w3.org/2000/svg" xmlns:xlink="http://www.w3.org/1999/xlink" x="0px" y="0px"
	 viewBox="0 0 400 200" style="enable-background:new 0 0 400 200;" xml:space="preserve">
<style type="text/css">
	.st0{fill:#002E6D;}
	.st1{fill:#FFC629;}
	.st2{fill:#FFFFFF;}
</style>
<g>
	<g>
		<polygon class="st0" points="283.57495,46.18657 200.00404,143.5778 116.42504,46.18657 		"/>
		<path class="st1" d="M200.00391,145.13495l-0.77002-0.89648l-85.0166-99.06641h171.56494L200.00391,145.13495z
			 M118.63232,47.20135l81.37158,94.81836l81.36426-94.81836H118.63232z"/>
	</g>
	<g>
		<path class="st2" d="M198.44777,52.31025v13.65778c1.20789-1.36037,2.52031-2.43058,3.98686-3.09398
			c1.43355-0.68046,3.02953-1.02059,4.73843-1.02059c1.96103,0,3.68658,0.29201,5.12839,0.9391
			c1.44165,0.61563,2.54333,1.49148,3.32155,2.59317c0.74487,1.1182,1.21443,2.23481,1.37701,3.28838
			c0.12943,1.085,0.21896,3.33804,0.21896,6.82234v21.27311c0,3.48208-0.21896,6.05874-0.70517,7.76092
			c-0.45459,1.68433-1.5396,3.15899-3.26501,4.40675c-1.6857,1.26289-3.7347,1.84657-6.07573,1.84657
			c-1.69394,0-3.27342-0.3403-4.72333-1.06836c-1.46519-0.77821-2.79408-1.81492-4.00197-3.33839l-0.93066,3.56388h-13.44035
			V52.31025H198.44777z M202.83955,76.12686c0-2.42904-0.17102-4.03343-0.46303-4.76335
			c-0.30679-0.76156-0.90747-1.14998-1.8299-1.14998c-0.86761,0-1.43356,0.35716-1.70218,1.00408
			c-0.25885,0.61545-0.39668,2.28447-0.39668,4.90925v20.35052c0,2.54368,0.13783,4.18092,0.44635,4.89278
			c0.29201,0.73009,0.89096,1.07008,1.75702,1.07008c0.90747,0,1.50813-0.33999,1.78349-1.10168
			c0.25882-0.73009,0.40492-2.52854,0.40492-5.29908V76.12686z"/>
	</g>
	<g>
		<g>
			<g>
				<path class="st1" d="M222.02719,139.30032c-1.40193-1.84793-5.63748-2.17172-7.8575-0.82635
					c-2.22812,1.32753-2.79546,3.69383-2.55174,5.9783c0.23407,2.31749,0.48637,7.11263,11.04138,5.52457
					c0-1.13295,0-2.57666,0-2.57666c-2.15504,0.29219-7.71985,1.44371-7.99516-2.18686h8.27066
					C223.1122,143.75516,223.42912,141.1469,222.02719,139.30032z M214.66417,142.86421c0-0.84283,0.57402-2.68941,2.82706-2.68941
					c2.2515,0,2.47046,1.41,2.5435,2.68941H214.66417z"/>
			</g>
			<g>
				<path class="st1" d="M281.59415,139.30032c-1.39197-1.84793-5.62115-2.17172-7.85748-0.82635
					c-2.2283,1.32753-2.78741,3.69383-2.55161,5.9783c0.26691,2.31749,0.5108,7.11263,11.06616,5.52457
					c0-1.13295,0-2.57666,0-2.57666c-2.16367,0.29219-7.72827,1.44371-7.98865-2.18686h8.25592
					C282.689,143.75516,283.01279,141.1469,281.59415,139.30032z M274.26257,142.86421c0-0.84283,0.54413-2.68941,2.81229-2.68941
					c2.25131,0,2.45361,1.41,2.55981,2.68941H274.26257z"/>
			</g>
			<g>
				<path class="st1" d="M293.91614,139.30032c-1.40176-1.84793-5.6373-2.17172-7.85715-0.82635
					c-2.22849,1.32753-2.8125,3.69383-2.55191,5.9783c0.25058,2.31749,0.51767,7.11263,11.06628,5.52457
					c0-1.13295,0-2.57666,0-2.57666c-2.16348,0.29219-7.74475,1.44371-7.98846-2.18686h8.25555
					C295.00131,143.75516,295.31824,141.1469,293.91614,139.30032z M286.5849,142.86421c0-0.84283,0.54242-2.68941,2.81177-2.68941
					c2.2515,0,2.43747,1.41,2.52719,2.68941H286.5849z"/>
			</g>
			<g>
				<path class="st1" d="M224.5872,137.66273v12.63789h3.15068v-8.45662c0.91591-0.79475,2.20493-1.70221,3.68661-1.60457
					c1.45006,0.11273,1.81493,0.98926,1.81493,2.51202c0,1.55438,0,7.54916,0,7.54916c1.72559,0,3.15895,0,3.15895,0
					c0-3.51573,0-7.30716,0-8.19815c0-0.87378-0.23389-2.57596-1.46655-3.56319c-1.19792-0.98929-4.28557-1.52344-7.53406,0.72803
					c-0.20247-0.95558-0.39648-1.60458-0.39648-1.60458H224.5872z"/>
			</g>
			<g>
				<path class="st1" d="M257.75281,137.66273v12.63789h3.14398v-8.45662c0.95563-0.79475,2.22812-1.70221,3.67819-1.60457
					c1.47327,0.11273,1.85501,0.98926,1.85501,2.51202c0,1.55438,0,7.54916,0,7.54916c1.68393,0,3.15875,0,3.15875,0
					c0-3.51573,0-7.30716,0-8.19815c0-0.87378-0.2753-2.57596-1.47482-3.56319c-1.19791-0.98929-4.30048-1.52344-7.54898,0.72803
					c-0.2272-0.95558-0.38156-1.60458-0.38156-1.60458H257.75281z"/>
			</g>
			<g>
				<path class="st1" d="M309.1785,137.66273v12.63789h3.1524v-8.45662c0.93051-0.79475,2.203-1.70221,3.66974-1.60457
					c1.48154,0.11273,1.85486,0.98926,1.85486,2.51202c0,1.55438,0,7.54916,0,7.54916c1.70081,0,3.16718,0,3.16718,0
					c0-3.51573,0-7.30716,0-8.19815c0-0.87378-0.25021-2.57596-1.48325-3.56319c-1.19791-0.98929-4.30048-1.52344-7.53369,0.72803
					c-0.21756-0.95558-0.39667-1.60458-0.39667-1.60458H309.1785z"/>
			</g>
			<g>
				<path class="st1" d="M241.34927,138.31174c-2.12361,1.05322-3.69469,2.72104-3.25694,6.83694
					c0.42812,4.06645,3.88063,5.88208,8.86984,4.34213c0.04967,0.77821-0.33188,2.21985-1.41707,2.51204
					c-1.10992,0.32312-3.7428,0.64691-6.17355-0.32518v2.54501c2.25305,0.53418,4.63379,0.93912,7.35652,0.21039
					c2.71263-0.69641,3.4989-2.0253,3.4989-5.36369c0-3.35283,0-10.85526,0-10.85526
					C247.28717,137.84218,243.42305,137.27502,241.34927,138.31174z M246.97865,146.76976
					c-0.45305,0.37192-4.31717,1.66783-5.4436-0.82773c-1.12643-2.50996,0.17754-4.6171,1.08501-5.23308
					c0.93237-0.64688,3.05447-0.50253,4.3586-0.14572V146.76976z"/>
			</g>
			<g>
				<path class="st1" d="M325.98007,138.31174c-2.10541,1.05322-3.66974,2.72104-3.24832,6.83694
					c0.42142,4.06645,3.88046,5.88208,8.87122,4.34213c0.05637,0.77821-0.3403,2.21985-1.41864,2.51204
					c-1.08517,0.32312-3.73297,0.64691-6.16354-0.32518v2.54501c2.2515,0.53418,4.64218,0.93912,7.3316,0.21039
					c2.72067-0.69641,3.53223-2.0253,3.53223-5.36369c0-3.35283,0-10.85526,0-10.85526
					C331.92639,137.84218,328.08719,137.27502,325.98007,138.31174z M331.62769,146.76976
					c-0.47778,0.37192-4.32697,1.66783-5.4534-0.82773c-1.11679-2.50996,0.15433-4.6171,1.09482-5.23308
					c0.90747-0.64688,3.06134-0.50253,4.35858-0.14572V146.76976z"/>
			</g>
			<g>
				<rect x="252.38223" y="137.66273" class="st1" width="3.2485" height="12.63789"/>
			</g>
			<g>
				<rect x="303.86429" y="137.66273" class="st1" width="3.24869" height="12.63789"/>
			</g>
			<g>
				<path class="st1" d="M296.41995,137.66273v12.63789h3.19196v-8.36038c0.67203-0.76173,1.53168-1.6692,3.14246-1.6692
					c0-1.03671,0-2.60831,0-2.60831c-0.793,0.03372-2.34088,0.40494-3.45114,1.57159l-0.42969-1.57159H296.41995z"/>
			</g>
		</g>
		<g>
			<polygon class="st1" points="62.80786,129.54642 129.12395,52.31025 195.41513,129.54642 			"/>
		</g>
		<g>
			<polygon class="st1" points="204.58505,129.54642 270.89291,52.31025 337.19214,129.54642 			"/>
		</g>
		<g>
			<path class="st0" d="M146.03864,93.86929h-13.56819V88.4241c0-1.89468-0.16258-3.19056-0.47127-3.8392
				c-0.29852-0.69676-0.87431-1.05354-1.70891-1.05354c-0.81792,0-1.37701,0.29214-1.65234,0.89095
				c-0.29201,0.61562-0.43808,1.92787-0.43808,4.00179v22.27856c0,1.70218,0.21912,2.94998,0.62386,3.80795
				c0.44637,0.84248,1.07008,1.24706,1.90468,1.24706c0.97227,0,1.62759-0.4379,1.97597-1.27905
				c0.35663-0.90746,0.51097-2.57631,0.51097-5.00721v-5.62255h12.82332c-0.02336,3.77599-0.17754,6.59464-0.41316,8.45803
				c-0.24216,1.91154-1.03688,3.8392-2.38092,5.80059c-1.36205,2.0253-3.10239,3.48412-5.24937,4.50436
				c-2.15508,1.00369-4.83624,1.48975-8.02835,1.48975c-4.03499,0-7.2668-0.66374-9.61611-2.07413
				c-2.39757-1.37701-4.06659-3.30467-5.0636-5.81467c-0.98049-2.52854-1.4585-6.09242-1.4585-10.66172V92.15211
				c0-4.08306,0.39651-7.06451,1.19965-9.10681c0.78631-2.05727,2.54333-3.83921,5.15145-5.47507
				c2.6497-1.58943,5.84167-2.36596,9.63293-2.36596c3.72629,0,6.94986,0.74506,9.59943,2.36596
				c2.6662,1.60268,4.41495,3.59549,5.30576,6.0259C145.60228,85.99509,146.03864,89.42955,146.03864,93.86929z"/>
		</g>
		<g>
			<path class="st0" d="M273.81793,76.04713l-0.56732,6.17179c2.09042-4.42287,5.11981-6.789,9.09015-7.01466V91.7955
				c-2.63303,0-4.56915,0.3566-5.82516,1.08501c-1.23111,0.69676-1.99265,1.70045-2.25302,2.9479
				c-0.30679,1.29796-0.44464,4.21284-0.44464,8.78182v18.6815h-14.37119v-47.2446
				C259.44675,76.04713,273.81793,76.04713,273.81793,76.04713z"/>
		</g>
	</g>
</g>
</svg>
