<?xml version="1.0" encoding="utf-8"?>
<!-- Generator: Adobe Illustrator 25.3.0, SVG Export Plug-In . SVG Version: 6.00 Build 0)  -->
<svg version="1.1" id="Layer_1" xmlns="http://www.w3.org/2000/svg" xmlns:xlink="http://www.w3.org/1999/xlink" x="0px" y="0px"
	 viewBox="0 0 120 60" style="enable-background:new 0 0 120 60;" xml:space="preserve">
<style type="text/css">
	.st0{fill:#FFFFFF;}
	.st1{fill:#E00C19;}
	.st2{fill:#1D1D1B;}
</style>
<g>
	<g>
		<polygon class="st0" points="24.12677,27.78455 111.04161,27.8135 111.35072,26.06364 24.42712,26.03469 		"/>
		<polygon class="st1" points="110.97939,26.32053 24.7676,26.29181 24.55172,27.52266 110.72674,27.55136 		"/>
		<g>
			<path class="st2" d="M26.21995,24.98306c0.57604,0.28106,1.34348,0.42362,2.28099,0.42393
				c0.89489,0.0003,1.69389-0.16044,2.37482-0.47801c0.68232-0.31853,1.16768-0.70053,1.44274-1.13572
				c0.26513-0.41905,0.49102-1.09385,0.6912-2.06302l0.15322-0.7402l-3.75902-0.00125l-0.28175,1.36245
				c-0.12879,0.62417-0.22168,0.80199-0.25536,0.84936c-0.02199,0.03146-0.05088,0.05964-0.14967,0.06223
				c-0.00185-0.09095,0.01172-0.2823,0.09091-0.66706l0.86434-4.18143c0.11881-0.57471,0.21004-0.75155,0.24393-0.80101
				c0.014-0.02036,0.03909-0.05707,0.1613-0.0625c-0.00314,0.09642-0.02191,0.28326-0.09401,0.63083l-0.40372,1.95421
				l3.75908,0.00125l0.22457-1.08638c0.18264-0.88341,0.22026-1.52611,0.11552-1.96448
				c-0.11754-0.49117-0.4882-0.9024-1.10096-1.22296c-0.57984-0.30308-1.35392-0.45701-2.30113-0.45733
				c-0.6865-0.00023-1.32329,0.09406-1.89355,0.27975c-0.57432,0.18714-1.05466,0.44887-1.42723,0.77768
				c-0.37214,0.32876-0.6304,0.67889-0.76784,1.0407c-0.12869,0.33929-0.25841,0.8285-0.39622,1.49577l-0.54341,2.63021
				c-0.19117,0.9235-0.2354,1.60431-0.13614,2.08175C25.22511,24.25175,25.5977,24.67954,26.21995,24.98306"/>
			<path class="st2" d="M33.3056,21.09888c-0.19563,0.94714-0.30127,1.59501-0.32269,1.98125
				c-0.02356,0.43071,0.1006,0.83666,0.3697,1.20664c0.27693,0.38086,0.6903,0.66942,1.22826,0.85762
				c0.50292,0.17587,1.0935,0.26509,1.75465,0.26531c0.68601,0.00023,1.31643-0.09095,1.87365-0.27096
				c0.56248-0.18194,1.04067-0.44721,1.42107-0.78834c0.37976-0.34061,0.646-0.72413,0.79108-1.13921
				c0.13633-0.39043,0.29519-1.0288,0.48561-1.9516l0.31857-1.54029c0.19541-0.94692,0.30128-1.59475,0.32268-1.98098
				c0.02362-0.43077-0.10032-0.83667-0.3697-1.20664c-0.27692-0.38086-0.69008-0.66942-1.22826-0.85768
				c-0.50291-0.17586-1.09344-0.26509-1.75464-0.26531c-0.68596-0.00023-1.31638,0.09074-1.87339,0.27102
				c-0.56296,0.18189-1.04067,0.44694-1.42085,0.78808c-0.38019,0.34087-0.64628,0.72413-0.79156,1.13947
				c-0.13606,0.38946-0.29493,1.02783-0.48562,1.95133L33.3056,21.09888z M37.86314,17.59618
				c0.0052-0.00498,0.0104-0.009,0.01517-0.0128c-0.00598,0.09969-0.02662,0.27115-0.08616,0.55864l-0.85457,4.13688
				c-0.13615,0.65687-0.22268,0.86448-0.26225,0.93007c-0.00686,0.01162-0.01373,0.02106-0.02081,0.02866
				c0.00899-0.11888,0.03822-0.33766,0.12004-0.73357l0.86858-4.20393C37.75985,17.73631,37.8494,17.61231,37.86314,17.59618"/>
			<polygon class="st2" points="43.65557,25.22299 44.12661,22.94202 44.5109,25.22328 47.77596,25.22437 49.76426,15.60155 
				46.48908,15.60046 45.99051,18.01312 45.50463,15.60013 42.36842,15.59908 40.38012,25.2219 			"/>
			<path class="st2" d="M49.36077,19.47462c0.10954,0.36355,0.29366,0.65867,0.54696,0.87707
				c0.22351,0.1926,0.66453,0.48235,1.34901,0.88634c0.08639,0.05025,0.16618,0.09761,0.2398,0.1419l-2.70451-0.0009
				l-0.16959,0.8205c-0.14871,0.71866-0.16808,1.2666-0.06021,1.6756c0.12297,0.46464,0.50008,0.84698,1.12039,1.13609
				c0.57396,0.26755,1.30088,0.40323,2.16093,0.40352c0.76867,0.00026,1.47744-0.11153,2.10555-0.33247
				c0.64278-0.2262,1.11412-0.51612,1.401-0.86222c0.28189-0.33999,0.48781-0.83883,0.62966-1.52625
				c0.19853-0.95877,0.14693-1.65139-0.15746-2.11733c-0.29347-0.44931-1.03383-0.98186-2.26333-1.6283l2.9494,0.00098
				l0.12145-0.58698c0.02393-0.11721,0.04483-0.22923,0.06244-0.33599l1.60884,0.00054l-1.48791,7.20068l3.75881,0.00125
				l1.48812-7.20068l1.61592,0.00054l-1.48812,7.20068l3.75902,0.00125l0.8354-4.04266
				c0.01207,0.00167,0.02268,0.00333,0.03222,0.005c0.00511,0.08549-0.00154,0.27324-0.08051,0.65683l-0.69899,3.38087
				l3.54919,0.00118l0.53819-2.60533c0.20611-0.99763,0.21804-1.2742,0.20555-1.40397
				c-0.02126-0.21666-0.13412-0.44899-0.33558-0.69063c-0.06461-0.07699-0.14676-0.14852-0.24594-0.21437
				c0.21645-0.08209,0.39482-0.18575,0.53406-0.31027c0.31622-0.2829,0.54633-0.79004,0.70362-1.55109
				c0.17454-0.84509,0.1205-1.46033-0.16563-1.88096c-0.29702-0.43677-0.76817-0.72417-1.36205-0.83092
				c-0.51003-0.09161-1.45534-0.13641-2.89062-0.13688l-2.25343-0.00075l-0.13592-0.00005l-7.11998-0.00237l-0.30595,1.48154
				c-0.01297-0.14799-0.04042-0.27589-0.08183-0.38481c-0.14978-0.39336-0.53591-0.71509-1.14816-0.95638
				c-0.55597-0.21919-1.25689-0.33048-2.08308-0.33076c-0.7485-0.00025-1.41945,0.09804-1.99468,0.29225
				c-0.58876,0.19871-1.05087,0.48081-1.37376,0.83853c-0.32215,0.35676-0.55296,0.88973-0.70597,1.62945
				C49.25495,18.69718,49.25428,19.1227,49.36077,19.47462 M67.53599,17.79653c0.00663,0.0417,0.00918,0.12623-0.02191,0.27753
				l-0.10217,0.4949c-0.08256,0.39875-0.17639,0.50099-0.19415,0.51754c-0.00048,0-0.00069,0.00027-0.00117,0.00048l0.26848-1.29996
				C67.50614,17.79035,67.52274,17.79368,67.53599,17.79653 M52.3512,22.77357c-0.04961,0.23963-0.12897,0.35993-0.18677,0.41839
				c-0.05254,0.05299-0.10632,0.07618-0.18328,0.07857c-0.00046-0.06871,0.00879-0.1928,0.05293-0.40562l0.20658-0.99902
				c0.06608,0.05116,0.10557,0.08671,0.12882,0.11062C52.38036,21.99189,52.47973,22.15203,52.3512,22.77357 M53.22533,17.56916
				c-0.00357,0.06582-0.01545,0.16787-0.04749,0.32206l-0.15038,0.72858c-0.05493-0.04788-0.0672-0.07152-0.0672-0.07201
				l-0.00332-0.00686c-0.02083-0.04455-0.06152-0.18403,0.00753-0.51863c0.04762-0.2304,0.12108-0.34235,0.17464-0.39561
				C53.16989,17.59589,53.1983,17.57864,53.22533,17.56916"/>
			<path class="st2" d="M70.36766,23.19988c-0.02195,0.37508,0.08594,0.73718,0.32076,1.07617
				c0.24451,0.35217,0.65594,0.63719,1.22419,0.84722c0.53608,0.19813,1.18016,0.29851,1.91398,0.29876
				c0.6567,0.00022,1.25442-0.08202,1.77663-0.24452c0.5293-0.16485,0.98475-0.41051,1.35406-0.73053
				c0.36737-0.31815,0.61799-0.63778,0.7462-0.95028c0.11967-0.29245,0.24847-0.77641,0.39429-1.47942l1.32401-6.4058
				l-3.75951-0.00125l-1.41881,6.86469c-0.0655,0.31894-0.1191,0.5091-0.15796,0.62202
				c0.01258-0.08806,0.03203-0.20173,0.06219-0.34687l1.47523-7.13985l-3.75898-0.00125l-1.14845,5.55808
				C70.50108,22.20368,70.38744,22.86886,70.36766,23.19988"/>
			<path class="st2" d="M94.45317,15.61643l-0.13593-0.00004l-7.12002-0.00237l-0.32518,1.57416
				c-0.00541-0.02889-0.01156-0.05682-0.01819-0.08432c-0.11749-0.49091-0.48773-0.90235-1.10069-1.22297
				c-0.57983-0.30281-1.35392-0.45679-2.30091-0.45711c-0.68651-0.00023-1.32372,0.09384-1.89381,0.27953
				c-0.57432,0.18714-1.05439,0.44886-1.42724,0.77789c-0.37214,0.32882-0.63033,0.67873-0.76756,1.04048
				c-0.12895,0.3393-0.25861,0.8285-0.39643,1.49599l-0.54362,2.63004c-0.19096,0.92346-0.23547,1.60426-0.13593,2.08171
				c0.11254,0.53994,0.48512,0.96774,1.10737,1.27126c0.57605,0.28105,1.34348,0.42388,2.28094,0.4242
				c0.89516,0.0003,1.69368-0.16072,2.37482-0.47828c0.68258-0.31853,1.16817-0.70053,1.44327-1.13572
				c0.26466-0.41906,0.49074-1.09385,0.69093-2.06302l0.1528-0.74021l-3.75882-0.00125l-0.28152,1.36272
				c-0.12901,0.62391-0.22169,0.80172-0.25531,0.8493c-0.02251,0.03129-0.05073,0.05969-0.14972,0.06202
				c-0.00163-0.09069,0.01173-0.28225,0.09118-0.66707l0.8638-4.18142c0.11887-0.57466,0.21031-0.75156,0.24399-0.80102
				c0.01394-0.02036,0.03882-0.0568,0.16151-0.06223c-0.00336,0.09616-0.02191,0.283-0.09373,0.63057l-0.40395,1.9542
				l3.75903,0.00125l0.22462-1.08638c0.08064-0.38996,0.13279-0.73288,0.15706-1.03217l1.5456,0.00051l-1.48758,7.20073
				l3.75901,0.00125l1.48785-7.20073l1.6157,0.00054l-1.48764,7.20073l3.75908,0.00125l1.98831-9.62282L94.45317,15.61643z"/>
			<path class="st2" d="M104.83217,21.28105l0.3183-1.54034c0.19569-0.94687,0.30128-1.59501,0.32275-1.98097
				c0.02383-0.43072-0.10038-0.83688-0.36971-1.20686c-0.27698-0.38086-0.69008-0.66947-1.22853-0.85763
				c-0.50287-0.17592-1.09297-0.26514-1.75417-0.26536c-0.68623-0.00023-1.31643,0.09095-1.87366,0.27123
				c-0.56296,0.18189-1.04089,0.44672-1.42107,0.78808c-0.37997,0.34065-0.646,0.72417-0.79108,1.13925
				c-0.13631,0.38947-0.29514,1.02762-0.48635,1.95134l-0.31783,1.54028c-0.19589,0.94714-0.30122,1.59523-0.32294,1.98124
				c-0.02357,0.43072,0.10059,0.83688,0.36975,1.20664c0.27715,0.38086,0.6903,0.66942,1.22849,0.85762
				c0.50264,0.17586,1.09295,0.26509,1.75416,0.26531c0.68623,0.00023,1.31664-0.09073,1.87364-0.27097
				c0.56249-0.18194,1.04068-0.44699,1.42108-0.78834c0.37997-0.34061,0.64606-0.72391,0.79107-1.13921
				C104.48261,22.84217,104.64148,22.20381,104.83217,21.28105 M100.60034,23.23017
				c-0.00713,0.01185-0.01401,0.02106-0.02087,0.02867c0.00904-0.11867,0.03822-0.33745,0.12009-0.73357l0.86853-4.20372
				c0.11671-0.56404,0.20627-0.68782,0.21999-0.70417c0.00525-0.00471,0.01045-0.009,0.01517-0.01281
				c-0.00594,0.0997-0.02663,0.27115-0.08611,0.55885l-0.85511,4.13694C100.72639,22.95718,100.63991,23.16484,100.60034,23.23017"
				/>
			<polygon class="st2" points="110.41383,15.62174 109.91524,18.03441 109.42968,15.62142 106.29343,15.62037 104.30511,25.2432 
				107.58057,25.24429 108.05187,22.96331 108.43591,25.24457 111.70097,25.24566 113.68927,15.62284 			"/>
			<path class="st0" d="M32.99889,19.82662l-2.95032-0.00098l0.32351-1.56445c0.0939-0.45508,0.12101-0.73904,0.081-0.85199
				c-0.03946-0.11273-0.16685-0.16911-0.38167-0.16918c-0.24339-0.00008-0.41156,0.06852-0.50513,0.2056
				c-0.09384,0.13708-0.18769,0.43351-0.28185,0.88955l-0.86407,4.18148c-0.09035,0.43734-0.11677,0.72264-0.07892,0.85622
				c0.03785,0.13332,0.1714,0.20041,0.40016,0.20049c0.21949,0.00007,0.37699-0.06693,0.47222-0.20068
				c0.0955-0.13375,0.19434-0.4477,0.29635-0.94191l0.23407-1.13157l2.95037,0.00098l-0.07258,0.35089
				c-0.19263,0.93176-0.41233,1.59235-0.65876,1.98231c-0.24615,0.38969-0.68364,0.73102-1.31175,1.02422
				c-0.62812,0.29319-1.35846,0.43949-2.18989,0.43921c-0.86408-0.00029-1.55075-0.12481-2.06029-0.37341
				c-0.50927-0.24833-0.80969-0.59249-0.90092-1.03155c-0.09151-0.43954-0.04605-1.10019,0.13632-1.98248l0.54341-2.62999
				c0.134-0.64883,0.26253-1.13536,0.38576-1.45976c0.12301-0.32439,0.3545-0.63664,0.69464-0.93679
				c0.33992-0.29994,0.77405-0.53611,1.30265-0.70858c0.5286-0.17199,1.1128-0.25824,1.75294-0.25803
				c0.86879,0.00029,1.55835,0.13387,2.06853,0.4007c0.51023,0.26656,0.81301,0.59913,0.90828,0.99698
				c0.09559,0.39811,0.05653,1.01733-0.11731,1.85771L32.99889,19.82662z"/>
			<path class="st0" d="M40.51932,21.18045c-0.18688,0.90453-0.34623,1.54499-0.47778,1.921
				c-0.13155,0.37649-0.37061,0.71998-0.71761,1.03128c-0.34705,0.31129-0.77834,0.55031-1.29392,0.7171
				c-0.51583,0.16652-1.0934,0.24968-1.73348,0.24947c-0.60766-0.0002-1.13644-0.07901-1.58748-0.23685
				c-0.45131-0.15762-0.79105-0.39405-1.0204-0.70935c-0.22935-0.31502-0.33344-0.65815-0.31294-1.02878
				c0.02049-0.3708,0.12656-1.01936,0.31796-1.94614l0.31835-1.54034c0.18689-0.90427,0.34597-1.54478,0.47751-1.921
				c0.1316-0.37628,0.37061-0.71999,0.71767-1.03128c0.347-0.3113,0.77828-0.55031,1.29412-0.71689
				c0.51557-0.16673,1.09313-0.24989,1.7337-0.24967c0.60717,0.0002,1.13617,0.07922,1.58748,0.23685
				c0.45082,0.15784,0.79056,0.39427,1.01992,0.70935c0.22935,0.31524,0.33365,0.65815,0.31316,1.029
				c-0.02049,0.37057-0.12656,1.01937-0.31796,1.94592L40.51932,21.18045z M38.18022,18.22125
				c0.08659-0.41885,0.11294-0.68667,0.07841-0.80343c-0.03432-0.11675-0.14251-0.17531-0.32459-0.17537
				c-0.15415-0.00005-0.28205,0.04728-0.38322,0.14175c-0.10139,0.09446-0.19973,0.37336-0.29556,0.83674l-0.86858,4.20367
				c-0.10791,0.52261-0.14779,0.84515-0.11942,0.96759c0.02837,0.12243,0.14059,0.18357,0.33714,0.18363
				c0.20057,0.00007,0.34365-0.07026,0.42892-0.21109c0.08506-0.14088,0.18277-0.47639,0.29207-1.00655L38.18022,18.22125z"/>
			<polygon class="st0" points="49.29596,15.91172 47.43595,24.91412 44.84979,24.91326 44.16091,20.82014 43.3153,24.91275 
				40.84856,24.91193 42.70856,15.90953 45.17557,15.91035 45.99166,19.96445 46.82915,15.9109 			"/>
			<path class="st0" d="M56.16814,18.63876l-2.73984-0.00091l0.13754-0.66726c0.06454-0.31139,0.07049-0.50959,0.01799-0.59484
				c-0.05255-0.08529-0.16055-0.12816-0.32391-0.12821c-0.17763-0.00006-0.32376,0.05767-0.43861,0.17245
				c-0.11463,0.11509-0.19665,0.28931-0.2448,0.52305c-0.06217,0.30051-0.05769,0.52686,0.0135,0.67889
				c0.06603,0.15209,0.30632,0.33569,0.71992,0.5506c1.18551,0.61893,1.90754,1.12686,2.16699,1.52337
				c0.25864,0.39699,0.29729,1.03633,0.11487,1.91884c-0.13229,0.64122-0.32476,1.11384-0.57635,1.41756
				c-0.25255,0.30398-0.67054,0.55887-1.25506,0.76423c-0.58452,0.20557-1.23648,0.30837-1.95589,0.30813
				c-0.78974-0.00026-1.439-0.11936-1.94827-0.35654c-0.50933-0.23745-0.81233-0.5397-0.90928-0.90678
				c-0.09695-0.36707-0.07598-0.88806,0.0635-1.56266l0.1217-0.58934l2.74026,0.00091l-0.2265,1.0956
				c-0.06973,0.33717-0.07596,0.55408-0.01865,0.65047c0.05701,0.0964,0.18369,0.14452,0.37997,0.14458
				c0.19634,0.00006,0.35501-0.06099,0.47581-0.18337c0.12107-0.12238,0.20636-0.304,0.25618-0.5448
				c0.10984-0.5299,0.09006-0.87659-0.05841-1.03979c-0.15292-0.1632-0.55702-0.43595-1.21165-0.8179
				c-0.65373-0.3857-1.08173-0.66574-1.28418-0.84011c-0.20191-0.17432-0.34959-0.41524-0.44254-0.7231
				c-0.093-0.30764-0.09024-0.70073,0.00865-1.17881c0.14259-0.68951,0.35774-1.19359,0.64557-1.51225
				c0.28761-0.31887,0.69785-0.56787,1.22998-0.74767c0.5324-0.17954,1.14905-0.26933,1.85001-0.26909
				c0.76604,0.00026,1.39848,0.09877,1.89785,0.29548c0.49889,0.19671,0.80524,0.44423,0.91856,0.74265
				c0.11354,0.29843,0.09659,0.80541-0.05116,1.52076L56.16814,18.63876z"/>
			<polygon class="st0" points="63.84388,15.91657 63.47172,17.71803 61.71982,17.71744 60.23198,24.91838 57.28167,24.9174 
				58.7695,17.71646 57.02448,17.71588 57.3969,15.91442 			"/>
			<path class="st0" d="M64.51667,15.91678l2.08834,0.0007c1.39218,0.00046,2.32565,0.04338,2.80137,0.12877
				c0.47498,0.08565,0.83199,0.30343,1.07011,0.65373c0.23834,0.35056,0.2782,0.9094,0.11978,1.67684
				c-0.14495,0.70039-0.35206,1.17135-0.62142,1.41208c-0.2693,0.241-0.73112,0.3853-1.38589,0.43316
				c0.56001,0.11526,0.92085,0.26926,1.0818,0.46212c0.1612,0.19279,0.24969,0.3697,0.26524,0.53099
				c0.01587,0.16128-0.05135,0.60522-0.20171,1.33171l-0.49075,2.3745l-2.73978-0.00091l0.61836-2.99182
				c0.0991-0.48162,0.11296-0.78021,0.04103-0.8951c-0.072-0.11489-0.31115-0.17226-0.71775-0.1724l-0.83868,4.05901
				l-2.9501-0.00098L64.51667,15.91678z M67.1487,17.45805l-0.41366,2.0018c0.33152,0.00011,0.57166-0.03605,0.71967-0.1082
				c0.14801-0.07241,0.26295-0.3066,0.34525-0.70343l0.10227-0.4949c0.05904-0.28534,0.03328-0.47263-0.07684-0.56174
				C67.71532,17.50278,67.48942,17.45816,67.1487,17.45805"/>
			<path class="st0" d="M78.9533,15.9216l-1.2438,6.01654c-0.14088,0.68195-0.26801,1.16098-0.38125,1.43725
				c-0.11308,0.2761-0.33721,0.55973-0.67332,0.8504c-0.33563,0.29093-0.74467,0.51146-1.22636,0.66144
				c-0.48196,0.14997-1.02876,0.22488-1.64091,0.22467c-0.67722-0.00023-1.25692-0.08944-1.73899-0.26744
				c-0.48158-0.17828-0.82133-0.40993-1.01923-0.69558c-0.19807-0.28543-0.28773-0.58668-0.26893-0.90377
				c0.01859-0.31682,0.1332-0.98313,0.34284-1.99898l1.10077-5.32676l2.95033,0.00098l-1.39487,6.75032
				c-0.08112,0.39285-0.10629,0.64433-0.07507,0.75352c0.03121,0.10941,0.12854,0.16411,0.2919,0.16417
				c0.18685,0.00006,0.31995-0.06025,0.39836-0.18076c0.07845-0.12025,0.16404-0.40489,0.25702-0.85337l1.37044-6.63359
				L78.9533,15.9216z"/>
			<path class="st0" d="M86.17405,19.84433l-2.95059-0.00098l0.32355-1.56445c0.09412-0.45508,0.12123-0.73904,0.0815-0.85199
				c-0.04-0.11274-0.16739-0.16911-0.38194-0.16918c-0.24319-0.00008-0.41135,0.06853-0.50514,0.2056
				c-0.0941,0.13708-0.18769,0.43351-0.2819,0.88955l-0.86402,4.18148c-0.09035,0.43734-0.11677,0.72264-0.07892,0.85622
				c0.03763,0.13332,0.17139,0.20041,0.40016,0.20049c0.2197,0.00007,0.37698-0.06693,0.47249-0.20068
				c0.09545-0.13375,0.19407-0.4477,0.29608-0.94191l0.23406-1.13157l2.9501,0.00098l-0.07259,0.35089
				c-0.19235,0.93176-0.41185,1.59236-0.65822,1.98231c-0.24647,0.38969-0.68369,0.73103-1.31202,1.02423
				c-0.62833,0.29319-1.35824,0.43948-2.18941,0.43921c-0.86482-0.00029-1.55128-0.12481-2.06077-0.37341
				c-0.50928-0.24833-0.80947-0.59249-0.90092-1.03155c-0.09151-0.43954-0.04584-1.10019,0.13632-1.98248l0.54314-2.62999
				c0.13453-0.64883,0.26301-1.13536,0.38602-1.45976c0.12302-0.32439,0.35452-0.63664,0.69485-0.93679
				c0.33944-0.29994,0.77405-0.53612,1.30244-0.70858c0.52859-0.17199,1.1128-0.25824,1.75289-0.25803
				c0.86912,0.00029,1.55862,0.13387,2.06858,0.4007c0.51045,0.26656,0.81301,0.59913,0.90855,0.99698
				c0.09506,0.39812,0.05599,1.01733-0.11757,1.85772L86.17405,19.84433z"/>
			<polygon class="st0" points="93.98454,15.92661 93.6126,17.72807 91.8605,17.72748 90.37265,24.92842 87.42255,24.92744 
				88.91018,17.7265 87.16541,17.72592 87.53757,15.92446 			"/>
			<polygon class="st0" points="97.60783,15.92781 95.7473,24.93021 92.79725,24.92923 94.65725,15.92683 			"/>
			<path class="st0" d="M104.44423,21.20174c-0.18687,0.90453-0.34602,1.54499-0.47778,1.921
				c-0.13133,0.37649-0.37034,0.71998-0.7174,1.03128c-0.34726,0.31129-0.77833,0.55031-1.29412,0.7171
				c-0.51579,0.16652-1.0934,0.24968-1.73349,0.24946c-0.60739-0.0002-1.13666-0.07901-1.58747-0.23685
				c-0.45104-0.15762-0.79121-0.39405-1.02035-0.70935c-0.22915-0.31502-0.33322-0.65815-0.31294-1.02878
				c0.02048-0.3708,0.12656-1.01937,0.31817-1.94614l0.31808-1.54034c0.18716-0.90427,0.34602-1.54478,0.47779-1.921
				c0.13133-0.37628,0.37061-0.71999,0.71739-1.03128c0.34706-0.3113,0.77855-0.55031,1.29413-0.71689
				c0.51557-0.16673,1.0934-0.24989,1.73347-0.24967c0.60744,0.0002,1.1364,0.07922,1.58749,0.23684
				c0.4513,0.15784,0.791,0.39428,1.02013,0.70935c0.22958,0.31524,0.33371,0.65815,0.31322,1.029
				c-0.02028,0.37057-0.12657,1.01937-0.31775,1.94592L104.44423,21.20174z M102.1054,18.24255
				c0.08653-0.41885,0.11268-0.68667,0.07841-0.80343c-0.03432-0.11675-0.14252-0.17531-0.32507-0.17537
				c-0.15394-0.00005-0.28157,0.04728-0.38297,0.14175c-0.10117,0.09446-0.19977,0.37336-0.29561,0.83674l-0.86853,4.20367
				c-0.10796,0.52261-0.14783,0.84515-0.11947,0.96759c0.02863,0.12243,0.14064,0.18357,0.33739,0.18363
				c0.20058,0.00007,0.34361-0.07026,0.42871-0.21109c0.08505-0.14089,0.18272-0.47639,0.29229-1.00655L102.1054,18.24255z"/>
			<polygon class="st0" points="113.2209,15.93301 111.36063,24.93541 108.775,24.93455 108.08558,20.84143 107.24029,24.93404 
				104.77349,24.93322 106.63375,15.93082 109.10051,15.93164 109.91681,19.98574 110.75437,15.93219 			"/>
			<path class="st2" d="M43.36309,33.82667c-0.27268-0.44931-0.96774-0.98189-2.12505-1.62825l2.79359,0.00093l0.12145-0.58703
				c0.15911-0.76905,0.1773-1.31254,0.05569-1.6614c-0.13719-0.39336-0.49941-0.71507-1.07664-0.9563
				c-0.52423-0.21897-1.18674-0.33025-1.96913-0.33051c-0.70901-0.00024-1.34559,0.09801-1.89263,0.29202
				c-0.55991,0.19872-1.00092,0.48088-1.31078,0.83855c-0.30939,0.35676-0.53404,0.88952-0.68705,1.62924
				c-0.10839,0.52331-0.11421,0.94905-0.01748,1.30101c0.10006,0.36376,0.27116,0.65888,0.50863,0.87705
				c0.20951,0.19281,0.62358,0.48233,1.26776,0.88626c0.08097,0.05051,0.15605,0.09766,0.22518,0.14195l-2.56151-0.00085
				l-0.17007,0.82023c-0.14871,0.71888-0.17329,1.26687-0.0756,1.67581c0.1109,0.46469,0.46362,0.84697,1.04818,1.13607
				c0.54051,0.26753,1.22745,0.40347,2.04227,0.40374c0.7282,0.00024,1.40054-0.11177,1.99802-0.33278
				c0.61105-0.22614,1.06128-0.51613,1.33705-0.86223c0.27031-0.33973,0.47105-0.83884,0.61357-1.5262
				C43.68687,34.98522,43.6461,34.29254,43.36309,33.82667 M40.68542,31.27258c0.04767-0.2302,0.11852-0.34214,0.16966-0.3954
				c0.02965-0.03103,0.05689-0.04833,0.08245-0.05775c-0.00404,0.06582-0.01662,0.16786-0.04867,0.32222l-0.15085,0.72863
				c-0.05133-0.0481-0.06248-0.07179-0.06248-0.072l-0.00332-0.00713C40.65331,31.74665,40.61617,31.60712,40.68542,31.27258
				 M39.69455,36.52074c0.00023-0.06893,0.01046-0.19274,0.05437-0.40562l0.20706-0.99902
				c0.062,0.0512,0.09892,0.0867,0.12072,0.11088c0.01018,0.01517,0.10248,0.17525-0.0261,0.79659
				c-0.04955,0.23989-0.12608,0.35993-0.18173,0.41839C39.81842,36.49522,39.76723,36.51841,39.69455,36.52074"/>
			<path class="st2" d="M50.85827,35.26251l1.32657-6.4058l-3.56061-0.00119l-1.42165,6.86469
				c-0.0657,0.31895-0.11857,0.5091-0.15676,0.62202c0.0131-0.08827,0.03303-0.20173,0.06315-0.34687l1.47813-7.13985
				l-3.56034-0.00119l-1.15081,5.55787c-0.21468,1.03691-0.32998,1.70204-0.35234,2.03306
				c-0.02526,0.37508,0.07292,0.73745,0.29181,1.07637c0.22702,0.35196,0.6136,0.63675,1.14942,0.84698
				c0.50553,0.19811,1.11428,0.29871,1.80978,0.29894c0.62186,0.00021,1.18882-0.0822,1.68541-0.24477
				c0.50281-0.16465,0.93715-0.41026,1.29059-0.73056c0.35177-0.31815,0.59318-0.63774,0.71759-0.95007
				C50.58532,36.44954,50.71262,35.96579,50.85827,35.26251"/>
			<path class="st2" d="M58.26332,34.47262c-0.01745-0.21671-0.12157-0.44883-0.30973-0.69041
				c-0.06059-0.07747-0.13733-0.14873-0.23062-0.21463c0.20558-0.0821,0.37612-0.18576,0.50945-0.31028
				c0.30277-0.28285,0.52645-0.79004,0.68418-1.55104c0.17485-0.8451,0.13052-1.46011-0.13552-1.88074
				c-0.27649-0.43676-0.71965-0.72442-1.28134-0.83089c-0.48183-0.09182-1.3767-0.13666-2.73593-0.13711l-2.26317-0.00076
				l-1.99233,9.62304l3.56033,0.00119l0.83702-4.04288c0.01115,0.00166,0.02133,0.00333,0.03033,0.00499
				c0.0042,0.0857-0.00459,0.27346-0.08384,0.6571L54.152,38.48101l3.36143,0.00112l0.5396-2.6056
				C58.2594,34.87917,58.27394,34.60239,58.26332,34.47262 M55.65773,31.04708c0.00566,0.0417,0.0073,0.12596-0.02379,0.27732
				l-0.10248,0.49485c-0.08252,0.39875-0.17255,0.50104-0.18981,0.5176c-0.00048,0.00027-0.00074,0.00027-0.00118,0.00048
				l0.2694-1.29996C55.6298,31.04069,55.64545,31.04402,55.65773,31.04708"/>
			<path class="st2" d="M65.84907,28.8836l-1.61851,4.25079l0.16845-0.76143l-1.72568-0.02376l0.23948-1.08353l1.93828,0.02668
				l0.53391-2.41514l-5.49806-0.07569l-2.12167,9.59519l3.56021,0.04901l0.83367-3.77015l1.47706,0.02033l-1.43227,3.76191
				l3.69639,0.05089l0.52479-1.61125l0.29145,0.00401l-0.20697,1.61563l3.63127,0.04999l0.41352-9.6187L65.84907,28.8836z
				 M66.94241,34.68787c0.04936-0.14802,0.10464-0.30855,0.16479-0.48011c-0.01601,0.16579-0.03055,0.32662-0.04404,0.48178
				L66.94241,34.68787z"/>
			<path class="st2" d="M78.03645,34.25937l-3.56081-0.00119l-0.28201,1.36251c-0.12928,0.62412-0.21885,0.80193-0.25129,0.8493
				c-0.02156,0.03151-0.04906,0.05964-0.14287,0.06223c-0.00066-0.09096,0.01431-0.28225,0.09402-0.66706l0.86573-4.18142
				c0.11908-0.57465,0.20747-0.75155,0.24062-0.80128c0.0133-0.0201,0.03721-0.0568,0.15325-0.06218
				c-0.0041,0.0961-0.02406,0.28294-0.0961,0.63078l-0.40441,1.95399l3.56033,0.00118l0.22484-1.08617
				c0.18285-0.88342,0.22594-1.52611,0.1316-1.96448c-0.1057-0.49116-0.45197-0.9026-1.02897-1.22294
				c-0.54549-0.30307-1.27718-0.45698-2.1742-0.45728c-0.65001-0.00022-1.25458,0.09381-1.79669,0.27978
				c-0.54613,0.18688-1.00396,0.44888-1.36067,0.77792c-0.35628,0.32855-0.60483,0.67847-0.7392,1.04049
				c-0.12585,0.33929-0.25413,0.82872-0.39216,1.49577l-0.54459,2.63026c-0.19116,0.92324-0.24092,1.60425-0.15227,2.08169
				c0.10027,0.53994,0.44798,0.96745,1.03441,1.27124c0.54218,0.28104,1.26749,0.42359,2.15526,0.42389
				c0.84777,0.00028,1.60653-0.16048,2.25504-0.47805c0.64988-0.31854,1.11413-0.70055,1.37949-1.13574
				c0.25569-0.41906,0.47755-1.09386,0.67845-2.06303L78.03645,34.25937z"/>
			<polygon class="st2" points="79.38947,28.86581 77.39686,38.48864 80.95719,38.48982 82.94978,28.867 			"/>
			<polygon class="st2" points="87.20836,28.86842 86.70886,31.28108 86.27583,28.86811 83.30579,28.86712 81.31298,38.48994 
				84.41537,38.49097 84.88786,36.21 85.22572,38.49125 88.31814,38.49228 90.31094,28.86945 			"/>
			<path class="st2" d="M96.24306,29.16633c-0.54929-0.3213-1.28189-0.48448-2.17817-0.48478
				c-0.89822-0.0003-1.68066,0.17895-2.32558,0.53205c-0.6447,0.35354-1.08129,0.7555-1.29717,1.19494
				c-0.2021,0.412-0.39013,1.04468-0.57438,1.93378l-0.55386,2.67453c-0.13208,0.63886-0.20213,1.10842-0.21381,1.43494
				c-0.01271,0.35761,0.07175,0.70453,0.25066,1.0316c0.18861,0.34465,0.5077,0.63435,0.9481,0.86182
				c0.43327,0.22371,0.92673,0.33707,1.46738,0.33725c0.44991,0.00015,0.86411-0.0807,1.23094-0.24068
				c0.14474-0.06293,0.28304-0.13868,0.41499-0.2267l0.05387,0.27895l2.38678,0.00079l1.12901-5.45249l-3.69771-0.00123
				l0.29485-1.42334c0.12498-0.60263,0.20741-0.73236,0.22279-0.75251c0.01046-0.01393,0.02065-0.02508,0.04005-0.03166
				c-0.00571,0.11009-0.03205,0.33172-0.12198,0.76482l-0.25044,1.20692l3.56103,0.00119l0.12858-0.62042
				c0.16154-0.77971,0.19534-1.36677,0.10313-1.79468C97.15904,29.91424,96.81625,29.50205,96.24306,29.16633 M93.09543,35.02947
				l-0.14066,0.67814c-0.10388,0.50128-0.19629,0.68435-0.24203,0.74871c-0.0348,0.04828-0.06938,0.06939-0.11178,0.07763
				c0.00029-0.08833,0.01451-0.26402,0.08328-0.59573l0.18837-0.90882L93.09543,35.02947z"/>
			<path class="st0" d="M43.68523,31.88889l-2.59512-0.00086l0.13803-0.66699c0.06475-0.31166,0.07264-0.50987,0.02362-0.59511
				c-0.04848-0.08524-0.15057-0.12794-0.3052-0.12799c-0.16836-0.00006-0.30736,0.05746-0.41776,0.17224
				c-0.1097,0.1151-0.18909,0.28932-0.23746,0.52305c-0.06238,0.30051-0.06053,0.52686,0.00476,0.67894
				c0.06127,0.15203,0.28664,0.33584,0.67592,0.55075c1.11584,0.6189,1.79435,1.12661,2.03524,1.52338
				c0.24069,0.39671,0.26985,1.03606,0.08722,1.91856c-0.13303,0.64122-0.3203,1.11385-0.56241,1.41757
				c-0.24231,0.30399-0.64118,0.55888-1.19702,0.76425c-0.55611,0.20558-1.17489,0.30839-1.85619,0.30817
				c-0.74781-0.00025-1.36159-0.11934-1.84128-0.35651c-0.47963-0.23745-0.7635-0.53968-0.85096-0.90676
				c-0.08773-0.36686-0.06177-0.88784,0.07792-1.56266l0.12214-0.58912l2.59517,0.00087l-0.22677,1.09538
				c-0.06995,0.33717-0.07833,0.55408-0.0253,0.65047c0.05303,0.09639,0.17255,0.14451,0.35848,0.14457
				c0.18567,0.00006,0.33651-0.06099,0.45281-0.18311c0.1156-0.12244,0.19901-0.304,0.24883-0.54507
				c0.10984-0.5299,0.09527-0.87659-0.04371-1.03979c-0.14322-0.1632-0.52272-0.43567-1.13801-0.81787
				c-0.61509-0.38569-1.01736-0.66572-1.20694-0.84009c-0.18962-0.1741-0.32665-0.41524-0.41113-0.72308
				c-0.08464-0.30764-0.07743-0.70073,0.02172-1.1788c0.14254-0.68951,0.35228-1.19359,0.62826-1.51226
				c0.27625-0.31866,0.66729-0.56788,1.17413-0.74769c0.50609-0.17955,1.091-0.26935,1.75476-0.26913
				c0.72558,0.00024,1.32398,0.09874,1.7942,0.29545c0.47042,0.1967,0.75758,0.44422,0.86168,0.74264
				c0.10436,0.29842,0.08238,0.80541-0.06563,1.52075L43.68523,31.88889z"/>
			<path class="st0" d="M51.71017,29.16694l-1.24594,6.01632c-0.14109,0.68217-0.26705,1.16119-0.37723,1.43746
				c-0.11025,0.27611-0.32602,0.55947-0.64723,0.8504c-0.32169,0.29094-0.71133,0.51126-1.16933,0.66151
				c-0.45779,0.14992-0.97686,0.22463-1.5566,0.22444c-0.64169-0.00021-1.18966-0.08921-1.6438-0.26742
				c-0.45436-0.17799-0.77394-0.40997-0.95807-0.69534c-0.1844-0.28542-0.26555-0.58689-0.24433-0.90377
				c0.02117-0.31681,0.13717-0.98312,0.34756-1.99898l1.10292-5.32676l2.79424,0.00093l-1.39772,6.75036
				c-0.08133,0.39281-0.10795,0.64407-0.0793,0.75321c0.02789,0.1094,0.11952,0.16416,0.27436,0.16421
				c0.17714,0.00006,0.30361-0.06004,0.37944-0.18055c0.07556-0.12052,0.16022-0.40489,0.25294-0.85337l1.37354-6.63358
				L51.71017,29.16694z"/>
			<path class="st0" d="M52.79195,29.16739l1.97808,0.00066c1.3185,0.00044,2.20244,0.04335,2.65189,0.12851
				c0.44897,0.08564,0.78443,0.30342,1.00616,0.65371c0.22184,0.35056,0.25311,0.9094,0.09443,1.67683
				c-0.14517,0.70039-0.34681,1.17135-0.60453,1.41208c-0.258,0.241-0.69704,0.38531-1.31773,0.4334
				c0.52942,0.11504,0.86919,0.26904,1.01973,0.46188c0.15012,0.19279,0.23197,0.36997,0.24493,0.53099
				c0.01298,0.16128-0.05562,0.60522-0.2062,1.33192L57.167,38.17166l-2.59512-0.00087l0.61952-2.99155
				c0.0996-0.48188,0.11631-0.78026,0.04957-0.89514c-0.06724-0.1151-0.29335-0.17247-0.67814-0.1726l-0.84061,4.05901
				l-2.79429-0.00093L52.79195,29.16739z M55.26773,30.70839l-0.41462,2.0018c0.31398,0.0001,0.54158-0.03605,0.68299-0.1082
				c0.14089-0.07242,0.25229-0.30661,0.33459-0.70343l0.10248-0.49469c0.05906-0.28556,0.0371-0.47284-0.06638-0.56169
				C55.80381,30.75311,55.59028,30.7085,55.26773,30.70839"/>
			<polygon class="st0" points="60.11346,29.16974 64.84573,29.17132 64.47289,30.97277 62.53463,30.97213 62.181,32.67915 
				63.90679,32.67972 63.5522,34.39242 61.82662,34.39185 61.04372,38.17307 58.24916,38.17214 			"/>
			<path class="st0" d="M70.08125,29.17302l-0.26633,9.00293L66.9593,38.175l0.18524-1.61821l-1-0.00034l-0.50303,1.6181
				l-2.88879-0.00096l3.28939-9.00192L70.08125,29.17302z M67.40155,34.96079c0.06969-1.01965,0.18878-2.27989,0.35741-3.78115
				c-0.64182,1.7237-1.08155,2.98405-1.31931,3.78083L67.40155,34.96079z"/>
			<path class="st0" d="M77.86688,33.09599l-2.79451-0.00093l0.32394-1.56467c0.09422-0.45487,0.1232-0.73882,0.08673-0.85177
				c-0.03641-0.11273-0.15623-0.1691-0.35986-0.16917c-0.2302-0.00008-0.39028,0.06826-0.4808,0.20534
				c-0.09026,0.13708-0.18293,0.43377-0.27688,0.88981l-0.86594,4.18121c-0.09036,0.43761-0.11892,0.72291-0.08459,0.85649
				c0.03452,0.13331,0.16003,0.20014,0.37695,0.20021c0.20786,0.00007,0.3578-0.06667,0.44971-0.20042
				c0.0917-0.13375,0.18887-0.4477,0.29156-0.94212l0.23391-1.13135l2.79472,0.00093l-0.07302,0.35068
				c-0.19261,0.93197-0.40788,1.59283-0.64572,1.98253c-0.2379,0.38969-0.65619,0.73103-1.25424,1.02397
				c-0.59875,0.2932-1.29162,0.43956-2.07953,0.4393c-0.81836-0.00027-1.46762-0.12457-1.94687-0.37311
				c-0.4799-0.24837-0.76037-0.59253-0.84197-1.03185c-0.08176-0.43927-0.03109-1.09992,0.15154-1.98243l0.54481-2.62999
				c0.134-0.64856,0.26135-1.13515,0.38173-1.45954c0.12039-0.3244,0.34287-0.63665,0.66859-0.9368
				c0.32524-0.30016,0.73921-0.53639,1.24203-0.7086c0.50255-0.17221,1.05669-0.25821,1.66317-0.25801
				c0.82312,0.00027,1.47475,0.13353,1.95516,0.40034c0.4799,0.26682,0.76274,0.59939,0.84885,0.99723
				c0.08558,0.39811,0.04131,1.01711-0.13252,1.85744L77.86688,33.09599z"/>
			<polygon class="st0" points="82.47519,29.17719 80.61116,38.17959 77.8166,38.17866 79.68067,29.17626 			"/>
			<polygon class="st0" points="89.83624,29.17964 87.97195,38.18204 85.52294,38.18122 84.91666,34.08813 84.06918,38.18074 
				81.73289,38.17996 83.5969,29.17756 85.93346,29.17834 86.66052,33.23241 87.49995,29.17886 			"/>
			<path class="st0" d="M96.68415,32.49614l-2.7943-0.00093l0.16933-0.81738c0.10677-0.51527,0.14687-0.83776,0.12065-0.96754
				c-0.02602-0.12977-0.13892-0.19472-0.3381-0.19479c-0.17237-0.00006-0.30124,0.05554-0.38651,0.16684
				c-0.08504,0.11103-0.17535,0.39657-0.27048,0.85621l-0.89488,4.32039c-0.08353,0.40422-0.10775,0.67012-0.0723,0.79802
				c0.0355,0.1279,0.14632,0.19183,0.3322,0.19189c0.20363,0.00006,0.35689-0.07208,0.45969-0.21671
				c0.10307-0.14442,0.19765-0.42621,0.28468-0.84533l0.22086-1.06741l-0.56409-0.00019l0.28346-1.36792l3.27262,0.00109
				l-1.00049,4.83212l-1.75655-0.00058l-0.12483-0.64511c-0.24805,0.27794-0.53155,0.48645-0.85035,0.62511
				c-0.31902,0.13888-0.67564,0.20839-1.0697,0.20825c-0.46938-0.00016-0.88917-0.09597-1.25926-0.28669
				c-0.37004-0.19099-0.63233-0.4274-0.78639-0.70927c-0.15433-0.28182-0.22573-0.57761-0.21475-0.88714
				c0.01078-0.30948,0.08034-0.77384,0.20864-1.39281l0.55356-2.67474c0.17813-0.85999,0.36304-1.48463,0.55408-1.87364
				c0.191-0.38923,0.5825-0.74596,1.17419-1.0702c0.59163-0.32397,1.30348-0.48593,2.13588-0.48565
				c0.81862,0.00027,1.46858,0.14135,1.95017,0.42307c0.48155,0.28198,0.76418,0.61691,0.8474,1.00409
				c0.08369,0.38745,0.04893,0.95012-0.1038,1.6877L96.68415,32.49614z"/>
		</g>
	</g>
	<g>
		<g>
			<polygon class="st1" points="6.00432,31.0099 8.74943,15.99951 14.12031,15.98719 13.1883,21.21667 18.10198,21.21831 
				19.04986,16.00735 24.44631,16.00914 21.69548,30.97721 16.32813,30.97542 17.36965,25.24821 12.43436,25.24657 
				11.38534,31.0161 			"/>
			<path class="st0" d="M13.81487,16.24365l-0.93238,5.22892l5.43339,0.00181l0.94762-5.21076l4.87553,0.00163L21.48223,30.7209
				l-4.84753-0.00161l1.04155-5.72694l-5.4555-0.00182l-1.04915,5.76948L6.31129,30.7541l2.65129-14.4992L13.81487,16.24365
				 M14.42637,15.73033l-0.61268,0.00142L8.9614,15.74299l-0.42579,0.00099l-0.07659,0.41883l-2.65129,14.4992l-0.11031,0.60324
				l0.61325,0.00074l4.8603,0.00592l0.42774,0.00053l0.07654-0.42084l0.97268-5.34902l4.41496,0.00147l-0.93181,5.12365
				l-0.10972,0.60329l0.61318,0.0002l4.84754,0.00162l0.42653,0.00014l0.0771-0.4195l2.65679-14.45565l0.11106-0.60423
				l-0.61435-0.00021l-4.87553-0.00162l-0.42734-0.00014l-0.07645,0.42044l-0.87116,4.79032l-4.39501-0.00146l0.82513-4.62737
				L14.42637,15.73033L14.42637,15.73033z"/>
		</g>
		<g>
			<polygon class="st1" points="17.29927,43.76554 20.04438,28.75515 25.41527,28.74283 24.48326,33.97232 29.39694,33.97395 
				30.34482,28.76299 35.74127,28.76479 32.99044,43.73285 27.62309,43.73107 28.6646,38.00386 23.72932,38.00221 
				22.68029,43.77174 			"/>
			<path class="st0" d="M25.10983,28.9993l-0.93238,5.22892l5.43339,0.00181l0.94762-5.21076l4.87553,0.00163l-2.65679,14.45565
				l-4.84753-0.00162l1.04155-5.72694l-5.4555-0.00182l-1.04915,5.76948l-4.8603-0.00592l2.65129-14.4992L25.10983,28.9993
				 M25.72133,28.48598l-0.61268,0.00142l-4.85229,0.01124l-0.42579,0.00099l-0.07659,0.41883l-2.65129,14.4992l-0.11031,0.60323
				l0.61325,0.00074l4.86031,0.00592l0.42774,0.00053l0.07654-0.42085l0.97268-5.34902l4.41496,0.00147l-0.93181,5.12365
				l-0.10972,0.60329l0.61318,0.00021l4.84753,0.00161l0.42653,0.00014l0.0771-0.41951l2.65679-14.45565l0.11106-0.60423
				l-0.61435-0.0002l-4.87553-0.00162l-0.42734-0.00014l-0.07645,0.42044l-0.87116,4.79032l-4.39501-0.00146l0.82513-4.62737
				L25.72133,28.48598L25.72133,28.48598z"/>
		</g>
	</g>
</g>
</svg>
