<?xml version="1.0" encoding="utf-8"?>
<!-- Generator: Adobe Illustrator 25.3.0, SVG Export Plug-In . SVG Version: 6.00 Build 0)  -->
<svg version="1.1" id="Layer_1" xmlns="http://www.w3.org/2000/svg" xmlns:xlink="http://www.w3.org/1999/xlink" x="0px" y="0px"
	 viewBox="0 0 400 200" style="enable-background:new 0 0 400 200;" xml:space="preserve">
<style type="text/css">
	.st0{fill:#FFC629;}
	.st1{fill:#002E6D;}
	.st2{fill:#FFFFFF;}
</style>
<g>
	<polygon class="st0" points="113.44611,45.5 286.55524,45.5 200.00539,146.36374 	"/>
	<polygon class="st1" points="281.45337,47.84523 200.00487,142.76309 118.54846,47.84523 	"/>
	<path class="st2" d="M198.48811,53.8134v13.31092c1.1772-1.32581,2.4563-2.36886,3.8856-3.0154
		c1.39714-0.66319,2.95259-0.99467,4.6181-0.99467c1.91122,0,3.59296,0.2846,4.99815,0.91525
		c1.40503,0.6,2.47873,1.45361,3.23718,2.52731c0.72595,1.0898,1.18358,2.17805,1.34204,3.20486
		c0.12614,1.05745,0.21341,3.25327,0.21341,6.64908v20.73286c0,3.39364-0.21341,5.90487-0.68727,7.56382
		c-0.44304,1.64156-1.50049,3.07876-3.18208,4.29483c-1.6429,1.23083-3.63985,1.79967-5.92143,1.79967
		c-1.65092,0-3.19029-0.33167-4.60338-1.04122c-1.42798-0.75845-2.72313-1.76883-3.90033-3.25362l-0.90703,3.47337h-13.09901
		V53.8134H198.48811z M202.76837,77.02515c0-2.36735-0.16669-3.931-0.45128-4.64238
		c-0.29901-0.74222-0.88441-1.12077-1.78342-1.12077c-0.84558,0-1.39717,0.34809-1.65895,0.97858
		c-0.25227,0.59982-0.38661,2.22646-0.38661,4.78457v19.83369c0,2.47908,0.13434,4.07474,0.43501,4.76852
		c0.28461,0.71156,0.86833,1.04291,1.7124,1.04291c0.88441,0,1.46983-0.33135,1.73819-1.07371
		c0.25226-0.71156,0.39465-2.46433,0.39465-5.16451V77.02515z"/>
	<g>
		<g>
			<path class="st1" d="M221.4687,138.59425c-1.36632-1.80101-5.49431-2.11658-7.65794-0.80537
				c-2.17154,1.29381-2.72446,3.60002-2.48694,5.82648c0.22813,2.25864,0.47403,6.93199,10.76097,5.38426
				c0-1.10417,0-2.51123,0-2.51123c-2.10033,0.28477-7.52379,1.40706-7.79211-2.13133h8.06062
				C222.52615,142.93594,222.83504,140.39392,221.4687,138.59425z M214.29268,142.06763c0-0.82144,0.55943-2.62111,2.75526-2.62111
				c2.19431,0,2.40771,1.37419,2.4789,2.62111H214.29268z"/>
			<path class="st1" d="M279.52289,138.59425c-1.35663-1.80101-5.47839-2.11658-7.65796-0.80537
				c-2.17169,1.29381-2.71658,3.60002-2.48679,5.82648c0.26013,2.25864,0.49783,6.93199,10.78513,5.38426
				c0-1.10417,0-2.51123,0-2.51123c-2.1087,0.28477-7.53201,1.40706-7.78577-2.13133h8.04623
				C280.5899,142.93594,280.90549,140.39392,279.52289,138.59425z M272.3775,142.06763c0-0.82144,0.5303-2.62111,2.74088-2.62111
				c2.19412,0,2.39127,1.37419,2.49481,2.62111H272.3775z"/>
			<path class="st1" d="M291.53195,138.59425c-1.36618-1.80101-5.49414-2.11658-7.65762-0.80537
				c-2.17188,1.29381-2.74106,3.60002-2.48709,5.82648c0.2442,2.25864,0.50452,6.93199,10.78525,5.38426
				c0-1.10417,0-2.51123,0-2.51123c-2.10855,0.28477-7.54807,1.40706-7.78561-2.13133h8.04593
				C292.58957,142.93594,292.89844,140.39392,291.53195,138.59425z M284.38687,142.06763c0-0.82144,0.52866-2.62111,2.74039-2.62111
				c2.19431,0,2.37555,1.37419,2.46298,2.62111H284.38687z"/>
			<path class="st1" d="M223.9637,136.99825v12.31694h3.07068v-8.24185c0.89264-0.77458,2.14893-1.659,3.59299-1.56383
				c1.41322,0.10988,1.76883,0.96414,1.76883,2.44824c0,1.51489,0,7.35744,0,7.35744c1.68176,0,3.07872,0,3.07872,0
				c0-3.42644,0-7.1216,0-7.98996c0-0.85158-0.22795-2.51053-1.42931-3.47269c-1.1675-0.96417-4.17673-1.48474-7.34273,0.70953
				c-0.19733-0.9313-0.38641-1.56383-0.38641-1.56383H223.9637z"/>
			<path class="st1" d="M256.28702,136.99825v12.31694h3.06415v-8.24185c0.93134-0.77458,2.17154-1.659,3.58475-1.56383
				c1.43588,0.10988,1.80792,0.96414,1.80792,2.44824c0,1.51489,0,7.35744,0,7.35744c1.64117,0,3.07855,0,3.07855,0
				c0-3.42644,0-7.1216,0-7.98996c0-0.85158-0.26834-2.51053-1.43738-3.47269c-1.16751-0.96417-4.19128-1.48474-7.35727,0.70953
				c-0.22144-0.9313-0.37186-1.56383-0.37186-1.56383H256.28702z"/>
			<path class="st1" d="M306.40668,136.99825v12.31694h3.07236v-8.24185c0.90689-0.77458,2.14706-1.659,3.57657-1.56383
				c1.44388,0.10988,1.80771,0.96414,1.80771,2.44824c0,1.51489,0,7.35744,0,7.35744c1.65762,0,3.08676,0,3.08676,0
				c0-3.42644,0-7.1216,0-7.98996c0-0.85158-0.24387-2.51053-1.44556-3.47269c-1.16751-0.96417-4.19128-1.48474-7.34241,0.70953
				c-0.21204-0.9313-0.38657-1.56383-0.38657-1.56383H306.40668z"/>
			<path class="st1" d="M240.30008,137.63077c-2.06969,1.02647-3.60085,2.65193-3.17424,6.66331
				c0.41725,3.96318,3.78209,5.73268,8.64459,4.23184c0.04842,0.75845-0.32346,2.16348-1.38107,2.44824
				c-1.08174,0.31493-3.64775,0.63049-6.01677-0.31691v2.48038c2.19582,0.52061,4.5161,0.91527,7.16969,0.20505
				c2.64374-0.67873,3.41003-1.97386,3.41003-5.22748c0-3.26768,0-10.57957,0-10.57957
				C246.08717,137.17314,242.32118,136.62038,240.30008,137.63077z M245.7865,145.87399
				c-0.44154,0.36246-4.20753,1.62547-5.30536-0.80672c-1.09782-2.44621,0.17303-4.49985,1.05745-5.10017
				c0.90869-0.63046,2.97691-0.48978,4.24791-0.14203V145.87399z"/>
			<path class="st1" d="M322.78159,137.63077c-2.05194,1.02647-3.57657,2.65193-3.16583,6.66331
				c0.41071,3.96318,3.78192,5.73268,8.6459,4.23184c0.05496,0.75845-0.33167,2.16348-1.3826,2.44824
				c-1.05762,0.31493-3.63818,0.63049-6.00702-0.31691v2.48038c2.19431,0.52061,4.52429,0.91527,7.14539,0.20505
				c2.65161-0.67873,3.44254-1.97386,3.44254-5.22748c0-3.26768,0-10.57957,0-10.57957
				C328.57687,137.17314,324.83517,136.62038,322.78159,137.63077z M328.28577,145.87399
				c-0.46567,0.36246-4.2171,1.62547-5.31494-0.80672c-1.08841-2.44621,0.15045-4.49985,1.06705-5.10017
				c0.8844-0.63046,2.98358-0.48978,4.24789-0.14203V145.87399z"/>
			<rect x="251.05284" y="136.99825" class="st1" width="3.166" height="12.31693"/>
			<rect x="301.22745" y="136.99825" class="st1" width="3.16617" height="12.31693"/>
			<path class="st1" d="M293.97214,136.99825v12.31694h3.11093v-8.14807c0.65494-0.74239,1.49277-1.6268,3.06262-1.6268
				c0-1.01039,0-2.54207,0-2.54207c-0.77286,0.03287-2.2814,0.39465-3.36349,1.53168l-0.41876-1.53168H293.97214z"/>
		</g>
		<polygon class="st1" points="61.18849,131.43318 130.92546,50.21251 200.63551,131.43318 		"/>
		<polygon class="st0" points="66.29296,129.08806 130.92487,53.8134 195.53249,129.08806 		"/>
		<polygon class="st1" points="199.36583,131.43318 269.09338,50.21251 338.81152,131.43318 		"/>
		<polygon class="st0" points="204.46953,129.08806 269.09341,53.8134 333.70889,129.08806 		"/>
		<path class="st1" d="M147.40999,94.31699h-13.22362v-5.3069c0-1.84657-0.15845-3.10954-0.4593-3.74171
			c-0.29094-0.67906-0.8521-1.02678-1.66551-1.02678c-0.79713,0-1.34204,0.28473-1.61037,0.86832
			c-0.28459,0.6-0.42696,1.87891-0.42696,3.90016v21.71277c0,1.65895,0.21355,2.87506,0.60802,3.71124
			c0.43501,0.82109,1.04291,1.21539,1.85631,1.21539c0.94757,0,1.58626-0.42679,1.92577-1.24657
			c0.34758-0.88441,0.49802-2.51088,0.49802-4.88004v-5.47976h12.49765c-0.02278,3.68009-0.17303,6.42715-0.40268,8.24323
			c-0.23601,1.863-1.01054,3.74171-2.32045,5.65327c-1.32745,1.97387-3.02359,3.39564-5.11606,4.38996
			c-2.10036,0.97821-4.71342,1.45193-7.82446,1.45193c-3.93251,0-7.08225-0.64689-9.37189-2.02145
			c-2.33668-1.34204-3.96332-3.22075-4.93501-5.667c-0.9556-2.46432-1.42146-5.9377-1.42146-10.39095V92.64342
			c0-3.97936,0.38644-6.88509,1.16918-8.87553c0.76633-2.00502,2.47873-3.7417,5.02062-5.33602
			c2.58241-1.54907,5.69331-2.30587,9.3883-2.30587c3.63165,0,6.77336,0.72613,9.35562,2.30587
			c2.5985,1.56197,4.30284,3.50417,5.17102,5.87286C146.98471,86.64278,147.40999,89.99001,147.40999,94.31699z"/>
		<path class="st1" d="M271.94415,76.94746l-0.55292,6.01505c2.03735-4.31055,4.98978-6.61659,8.85931-6.83652v16.16988
			c-2.56619,0-4.45312,0.34754-5.67725,1.05745c-1.19983,0.67907-1.94205,1.65727-2.1958,2.87304
			c-0.29901,1.26499-0.43335,4.10585-0.43335,8.5588v18.20705h-14.00623V76.94746H271.94415z"/>
	</g>
</g>
</svg>
