<?xml version="1.0" encoding="utf-8"?>
<!-- Generator: Adobe Illustrator 25.3.0, SVG Export Plug-In . SVG Version: 6.00 Build 0)  -->
<svg version="1.1" id="Layer_1" xmlns="http://www.w3.org/2000/svg" xmlns:xlink="http://www.w3.org/1999/xlink" x="0px" y="0px"
	 viewBox="0 0 750.2 400.1" style="enable-background:new 0 0 750.2 400.1;" xml:space="preserve">
<g>
	<path d="M356.6,234.1l-5.6,1.2c0.2,1.1,0.4,2.2,0.6,3.3l5.6-1.2C357,236.3,356.8,235.2,356.6,234.1z"/>
	<path d="M355.2,225.7l-5.6,1.2c0.2,1.1,0.4,2.2,0.6,3.3l5.6-1.2C355.6,227.9,355.4,226.8,355.2,225.7z"/>
	<path d="M353.7,217.3l-5.6,1.2c0.2,1.1,0.4,2.2,0.6,3.3l5.6-1.2C354.1,219.6,353.9,218.4,353.7,217.3z"/>
	<path d="M352.8,212.3c-0.2-1.1-0.4-2.2-0.6-3.3l-5.6,1.2c0.2,1.1,0.4,2.2,0.6,3.3L352.8,212.3z"/>
	<path d="M351.3,204c-0.2-1.1-0.4-2.2-0.6-3.3l-5.6,1.2c0.2,1.1,0.4,2.2,0.6,3.3L351.3,204z"/>
	<path d="M349.7,195.6c-0.2-1.1-0.4-2.2-0.6-3.3l-5.5,1.2c0.2,1.1,0.4,2.2,0.6,3.3L349.7,195.6z"/>
	<path d="M362.8,275l-5.6,1.2c0.2,2,0.5,3.9,0.7,5.8l5.5-1.2C363.2,278.9,363,277,362.8,275z"/>
	<path d="M361.7,266.6l-5.6,1.2c0.3,2,0.5,3.9,0.8,5.8l5.6-1.2C362.2,270.4,362,268.5,361.7,266.6z"/>
	<path d="M361.3,263.9c-0.3-1.9-0.5-3.8-0.8-5.7l-5.6,1.2c0.3,2,0.6,3.9,0.8,5.7L361.3,263.9z"/>
	<path d="M360.1,255.5c-0.3-1.9-0.6-3.8-0.9-5.7l-5.6,1.2c0.3,1.9,0.6,3.9,0.9,5.7L360.1,255.5z"/>
	<path d="M357.8,241.4l-5.6,1.2c0.3,1.9,0.6,3.8,0.9,5.7l5.6-1.2C358.5,245.2,358.2,243.3,357.8,241.4z"/>
	<path d="M364.1,287.7c-0.1-1.1-0.2-2.2-0.3-3.4l-5.5,1.2c0.1,1.2,0.2,2.3,0.3,3.4L364.1,287.7z"/>
	<path d="M331.6,106.2C331.6,106.2,331.7,106.2,331.6,106.2c-0.3-2-0.7-3.9-1.1-5.7c0,0,0,0-0.1,0l-5,1.1c0.4,1.8,0.7,3.7,1.2,5.7
		L331.6,106.2z"/>
	<path d="M329.9,97.9c-0.1-0.3-0.1-0.6-0.2-0.9c-1,0.1-2.7,0.4-5.1,0.8c0.1,0.4,0.2,0.8,0.2,1.2L329.9,97.9
		C329.9,97.9,329.9,97.9,329.9,97.9z"/>
	<path d="M337.2,146.2l-0.1-0.3l2.7-0.6c-0.1-0.5-0.2-0.9-0.3-1.4l-2.7,0.6l-0.1-0.5c-0.1-0.3-0.4-0.5-0.8-0.5l-1.9,0.4
		c0.2,1.1,0.4,2.2,0.7,3.3l2-0.4C337,146.9,337.2,146.5,337.2,146.2z"/>
	<path d="M334.8,138.7c0.4-0.1,0.6-0.4,0.6-0.8l-0.1-0.3l2.8-0.6c-0.1-0.5-0.2-0.9-0.3-1.4l-2.8,0.6l-0.1-0.5
		c-0.1-0.3-0.4-0.5-0.8-0.5l-1.8,0.4c0.2,1.1,0.4,2.2,0.7,3.3L334.8,138.7z"/>
	<path d="M333.1,130.4c0.4-0.1,0.6-0.4,0.6-0.8l-0.1-0.3l2.8-0.6c-0.1-0.5-0.2-0.9-0.3-1.4l-2.8,0.6l-0.1-0.5
		c-0.1-0.3-0.4-0.5-0.8-0.5l-1.8,0.4c0.2,1.1,0.4,2.2,0.7,3.3L333.1,130.4z"/>
	<path d="M331.4,119.2c-0.1-0.3-0.4-0.5-0.8-0.5l-1.7,0.4c0.2,1.1,0.4,2.2,0.7,3.3l1.7-0.4c0.4-0.1,0.6-0.4,0.6-0.8l-0.1-0.3
		l2.9-0.6c-0.1-0.5-0.2-0.9-0.3-1.4l-2.9,0.6L331.4,119.2z"/>
	<path d="M329.6,113.8c0.4-0.1,0.6-0.4,0.6-0.8l-0.1-0.3l2.9-0.6c-0.1-0.5-0.2-0.9-0.3-1.4l-2.9,0.6l-0.1-0.5
		c-0.1-0.3-0.4-0.5-0.8-0.5l-1.6,0.3c0.2,1.1,0.4,2.2,0.7,3.3L329.6,113.8z"/>
	<path d="M342.2,186.5c0.1,0.5,0.2,0.9,0.3,1.4l2.7-0.6l0.1,0.3c0.1,0.3,0.4,0.5,0.8,0.5l2.1-0.4c-0.2-1.1-0.4-2.2-0.6-3.3l-2.2,0.5
		c-0.4,0.1-0.6,0.4-0.6,0.8l0.1,0.5L342.2,186.5z"/>
	<path d="M340.9,179.5l2.5-0.5l0.1,0.3c0.1,0.3,0.4,0.5,0.8,0.5l2.3-0.5c-0.2-1.1-0.4-2.2-0.6-3.3l-2.3,0.5
		c-0.4,0.1-0.6,0.4-0.6,0.8l0.1,0.5l-2.5,0.5C340.7,178.6,340.8,179,340.9,179.5z"/>
	<path d="M341.7,170.9c0.1,0.3,0.4,0.5,0.8,0.5l2.4-0.5c-0.2-1.1-0.4-2.2-0.7-3.3l-2.4,0.5c-0.4,0.1-0.6,0.4-0.6,0.8l0.1,0.5
		l-2.4,0.5c0.1,0.5,0.2,0.9,0.3,1.4l2.4-0.5L341.7,170.9z"/>
	<path d="M339.9,162.6c0.1,0.3,0.4,0.5,0.8,0.5l2.5-0.5c-0.2-1.1-0.4-2.2-0.7-3.3l-2.5,0.5c-0.4,0.1-0.6,0.4-0.6,0.8l0.1,0.5
		l-2.2,0.5c0.1,0.5,0.2,0.9,0.3,1.4l2.3-0.5L339.9,162.6z"/>
	<path d="M338.2,154.3c0.1,0.3,0.4,0.5,0.8,0.5l2.6-0.5c-0.2-1.1-0.4-2.2-0.7-3.3l-2.6,0.6c-0.4,0.1-0.6,0.4-0.6,0.8l0.1,0.5
		l-2.1,0.4c0.1,0.5,0.2,0.9,0.3,1.4l2.1-0.5L338.2,154.3z"/>
	<path d="M628.3,236.4c0.2,1.1,0.4,2.2,0.6,3.3l6.4-1.4c-0.2-1.1-0.4-2.2-0.6-3.3L628.3,236.4z"/>
	<path d="M626.8,228c0.2,1.1,0.4,2.2,0.6,3.3l6.4-1.4c-0.2-1.1-0.4-2.2-0.6-3.3L626.8,228z"/>
	<path d="M625.4,219.7c0.2,1.1,0.4,2.2,0.6,3.3l6.4-1.4c-0.2-1.1-0.4-2.2-0.6-3.3L625.4,219.7z"/>
	<path d="M623.9,211.3c0.2,1.1,0.4,2.2,0.6,3.3l6.4-1.4c-0.2-1.1-0.4-2.2-0.6-3.3L623.9,211.3z"/>
	<path d="M622.3,203c0.2,1.1,0.4,2.2,0.6,3.3l6.4-1.3c-0.2-1.1-0.4-2.2-0.6-3.3L622.3,203z"/>
	<path d="M621.4,198l6.4-1.3c-0.2-1.1-0.4-2.2-0.6-3.3l-6.4,1.3C621,195.7,621.2,196.9,621.4,198z"/>
	<path d="M634.4,277.3c0.2,2,0.5,3.9,0.7,5.8l6.4-1.4c-0.2-1.8-0.4-3.8-0.6-5.8L634.4,277.3z"/>
	<path d="M633.3,268.9c0.3,2,0.5,3.9,0.8,5.8l6.4-1.4c-0.2-1.9-0.5-3.8-0.8-5.8L633.3,268.9z"/>
	<path d="M632.1,260.5c0.3,2,0.6,3.9,0.8,5.7l6.4-1.4c-0.3-1.9-0.5-3.8-0.8-5.7L632.1,260.5z"/>
	<path d="M631.7,257.8l6.4-1.4c-0.3-1.9-0.6-3.8-0.9-5.7l-6.4,1.4C631.2,254,631.5,255.9,631.7,257.8z"/>
	<path d="M629.5,243.7c0.3,1.9,0.6,3.8,0.9,5.7l6.4-1.4c-0.3-1.9-0.6-3.8-0.9-5.7L629.5,243.7z"/>
	<path d="M635.7,290.1l6.4-1.4c-0.1-1.1-0.2-2.2-0.3-3.4l-6.4,1.4C635.5,287.9,635.6,289,635.7,290.1z"/>
	<path d="M602.6,102.8c0.4,1.8,0.8,3.7,1.2,5.7l6-1.3c-0.4-2-0.8-3.9-1.2-5.7L602.6,102.8z"/>
	<path d="M601.6,97.9c0.2,0.7,0.3,1.5,0.5,2.3l5.9-1.2c-0.1-0.7-0.3-1.3-0.4-1.9C606.4,97.2,604.4,97.5,601.6,97.9z"/>
	<path d="M611.8,148.6l6.3-1.3c-0.2-1.1-0.5-2.2-0.7-3.3l-6.3,1.3C611.4,146.3,611.6,147.4,611.8,148.6z"/>
	<path d="M610.1,140.2l6.2-1.3c-0.2-1.1-0.5-2.2-0.7-3.3l-6.2,1.3C609.7,138,609.9,139.1,610.1,140.2z"/>
	<path d="M608.5,131.9l6.2-1.3c-0.2-1.1-0.5-2.2-0.7-3.3l-6.1,1.3C608,129.7,608.3,130.8,608.5,131.9z"/>
	<path d="M606.8,123.6l6.1-1.3c-0.2-1.1-0.5-2.2-0.7-3.3l-6.1,1.3C606.4,121.4,606.6,122.5,606.8,123.6z"/>
	<path d="M605.1,115.3l6-1.3c-0.2-1.1-0.5-2.2-0.7-3.3l-6,1.3C604.7,113,604.9,114.2,605.1,115.3z"/>
	<path d="M619.7,189l6.4-1.3c-0.1-0.5-0.2-0.9-0.3-1.4l-6.3,1.3C619.6,188.1,619.6,188.5,619.7,189z"/>
	<path d="M618.1,180.7l6.3-1.3c-0.1-0.5-0.2-0.9-0.3-1.4l-6.3,1.3C618,179.8,618.1,180.2,618.1,180.7z"/>
	<path d="M616.5,172.3l6.3-1.3c-0.1-0.5-0.2-0.9-0.3-1.4l-6.3,1.3C616.4,171.4,616.4,171.9,616.5,172.3z"/>
	<path d="M614.8,164l6.3-1.3c-0.1-0.5-0.2-0.9-0.3-1.4l-6.3,1.3C614.7,163.1,614.7,163.6,614.8,164z"/>
	<path d="M613.2,155.7l6.3-1.3c-0.1-0.5-0.2-0.9-0.3-1.4l-6.3,1.3C613,154.8,613.1,155.2,613.2,155.7z"/>
	<path d="M401.3,237.2l0.1-0.4l1,0.2c0.2-1.1,0.3-2.2,0.5-3.4l-0.9-0.2l0.1-0.4c0.1-0.4-0.2-0.9-0.7-1l-4.3-0.9
		c-0.3,1.9-0.6,3.8-0.9,5.7l4,0.8C400.7,237.9,401.2,237.6,401.3,237.2z"/>
	<path d="M404.3,225.3l-0.4-0.1l0.1-0.4c0.1-0.4-0.2-0.9-0.7-1l-4.7-1c-0.3,1.9-0.6,3.8-0.9,5.7l4.4,0.9c0.5,0.1,1-0.2,1.1-0.6
		l0.1-0.4l0.6,0.1C403.9,227.5,404.1,226.4,404.3,225.3z"/>
	<path d="M398.9,220.2l4.8,1c0.5,0.1,1-0.2,1.1-0.6l0.1-0.4l0.2,0c0.2-1.1,0.4-2.2,0.5-3.3l0,0l0.1-0.4c0.1-0.4-0.2-0.9-0.7-1
		l-5.1-1.1C399.5,216.4,399.2,218.3,398.9,220.2z"/>
	<path d="M401.3,206.1c-0.3,1.9-0.6,3.8-1,5.7l5.2,1.1c0.3,0.1,0.6,0,0.8-0.2c0.3-1.7,0.6-3.4,0.9-5.2c-0.1-0.1-0.3-0.2-0.5-0.3
		L401.3,206.1z"/>
	<path d="M401.7,203.4l5.5,1.2c0.2,0,0.3,0,0.4,0c0.3-1.9,0.6-3.7,0.9-5.6c-0.1,0-0.1-0.1-0.2-0.1l-5.7-1.2
		C402.4,199.6,402.1,201.5,401.7,203.4z"/>
	<path d="M410.1,190.6l-5.9-1.2c-0.3,1.9-0.7,3.8-1,5.7l5.8,1.2c0,0,0.1,0,0.1,0C409.4,194.4,409.7,192.5,410.1,190.6z"/>
	<path d="M397.2,274.7l-2.9-0.6c-0.5-0.1-1,0.2-1.1,0.6l-0.1,0.4l-2.1-0.4c-0.1,1.2-0.3,2.3-0.4,3.4l1.8,0.4l-0.1,0.4
		c-0.1,0.4,0.2,0.9,0.7,1l3.5,0.7C396.7,278.6,396.9,276.7,397.2,274.7z"/>
	<path d="M394.2,270.1l-0.1,0.4c-0.1,0.4,0.2,0.9,0.7,1l2.7,0.6c0.2-1.9,0.5-3.8,0.7-5.8l-2.2-0.5c-0.5-0.1-1,0.2-1.1,0.6l-0.1,0.4
		l-2.8-0.6c-0.1,1.1-0.3,2.3-0.4,3.4L394.2,270.1z"/>
	<path d="M399.4,257.8l-1.6-0.3c-0.5-0.1-1,0.2-1.1,0.6l-0.1,0.4l-3.5-0.7c-0.2,1.1-0.3,2.3-0.5,3.4l3.2,0.7l-0.1,0.4
		c-0.1,0.4,0.2,0.9,0.7,1l2,0.4C398.8,261.7,399.1,259.8,399.4,257.8z"/>
	<path d="M399.7,255.1c0.3-1.9,0.5-3.8,0.8-5.7l-1-0.2c-0.5-0.1-1,0.2-1.1,0.6l-0.1,0.4l-4-0.8c-0.2,1.1-0.3,2.2-0.5,3.4l3.8,0.8
		l-0.1,0.4c-0.1,0.4,0.2,0.9,0.7,1L399.7,255.1z"/>
	<path d="M400.1,246.5l0.9,0.2c0.3-1.9,0.6-3.8,0.9-5.7l-0.5-0.1c-0.5-0.1-1,0.2-1.1,0.6l-0.1,0.4l-4.5-1c-0.2,1.1-0.3,2.2-0.5,3.4
		l4.3,0.9l-0.1,0.4C399.2,246,399.6,246.4,400.1,246.5z"/>
	<path d="M392.5,285.8l-0.1,0.3c-0.1,0.3,0.2,0.7,0.6,0.8l2.9,0.6c0.1-1.1,0.2-2.2,0.3-3.4l-2.5-0.5c-0.4-0.1-0.8,0.1-0.8,0.5
		l-0.1,0.5l-2.7-0.6c0,0.5-0.1,0.9-0.1,1.4L392.5,285.8z"/>
	<path d="M420.3,103l5.7,1.2c0.2-1.1,0.4-2.2,0.7-3.3l-5.7-1.2C420.8,100.8,420.6,101.9,420.3,103z"/>
	<path d="M412.5,143.5l5.8,1.2c0.1-0.5,0.2-0.9,0.3-1.4l-5.8-1.2C412.7,142.6,412.6,143,412.5,143.5z"/>
	<path d="M414.4,133.8c-0.1,0.5-0.2,0.9-0.3,1.4l5.8,1.2c0.1-0.5,0.2-0.9,0.3-1.4L414.4,133.8z"/>
	<path d="M421.7,126.7l-5.8-1.2c-0.1,0.5-0.2,0.9-0.3,1.4l5.8,1.2C421.5,127.6,421.6,127.1,421.7,126.7z"/>
	<path d="M417.6,117.1c-0.1,0.5-0.2,0.9-0.3,1.4l5.7,1.2c0.1-0.5,0.2-0.9,0.3-1.4L417.6,117.1z"/>
	<path d="M418.9,110.2l5.7,1.2c0.1-0.5,0.2-0.9,0.3-1.4l-5.7-1.2C419.1,109.2,419,109.7,418.9,110.2z"/>
	<path d="M405.4,182.4c-0.2,1.1-0.4,2.2-0.6,3.3l5.9,1.2c0.2-1.1,0.4-2.2,0.6-3.3L405.4,182.4z"/>
	<path d="M406.9,174.1c-0.2,1.1-0.4,2.2-0.6,3.3l5.9,1.2c0.2-1.1,0.4-2.2,0.6-3.3L406.9,174.1z"/>
	<path d="M407.8,169l5.8,1.2c0.2-1.1,0.4-2.2,0.6-3.3l-5.8-1.2C408.2,166.8,408,167.9,407.8,169z"/>
	<path d="M409.9,157.4c-0.2,1.1-0.4,2.2-0.6,3.3l5.8,1.2c0.2-1.1,0.4-2.2,0.6-3.3L409.9,157.4z"/>
	<path d="M411.5,149c-0.2,1.1-0.4,2.2-0.6,3.3l5.8,1.2c0.2-1.1,0.4-2.2,0.6-3.3L411.5,149z"/>
	<path d="M124.2,237.8l-5.8-1.2c-0.2,1.1-0.3,2.2-0.5,3.4l5.8,1.2C123.9,240,124,238.9,124.2,237.8z"/>
	<path d="M125.5,229.4l-5.8-1.2c-0.2,1.1-0.4,2.2-0.5,3.3l5.8,1.2C125.2,231.6,125.3,230.5,125.5,229.4z"/>
	<path d="M126.9,221l-5.8-1.2c-0.2,1.1-0.4,2.2-0.5,3.3l5.8,1.2C126.5,223.2,126.7,222.1,126.9,221z"/>
	<path d="M128.2,212.6l-5.8-1.2c-0.2,1.1-0.4,2.2-0.6,3.3l5.8,1.2C127.9,214.9,128,213.7,128.2,212.6z"/>
	<path d="M129.6,204.2l-5.7-1.2c-0.2,1.1-0.4,2.2-0.6,3.3l5.7,1.2C129.3,206.5,129.4,205.4,129.6,204.2z"/>
	<path d="M131.1,195.9l-5.7-1.2c-0.2,1.1-0.4,2.2-0.6,3.3l5.7,1.2C130.7,198.1,130.9,197,131.1,195.9z"/>
	<path d="M118.6,278.8l-5.8-1.2c-0.2,2-0.4,4-0.6,5.8l5.8,1.2C118.2,282.8,118.4,280.9,118.6,278.8z"/>
	<path d="M119.6,270.4l-5.8-1.2c-0.2,2-0.5,3.9-0.7,5.8l5.8,1.2C119.1,274.3,119.3,272.4,119.6,270.4z"/>
	<path d="M120.7,261.9l-5.8-1.2c-0.3,2-0.5,3.9-0.8,5.8l5.8,1.2C120.2,265.8,120.4,263.9,120.7,261.9z"/>
	<path d="M121.9,253.5l-5.8-1.2c-0.3,2-0.6,3.9-0.8,5.7l5.8,1.2C121.3,257.4,121.6,255.5,121.9,253.5z"/>
	<path d="M123.1,245.1l-5.8-1.2c-0.3,1.9-0.6,3.9-0.9,5.7l5.8,1.2C122.5,249,122.8,247,123.1,245.1z"/>
	<path d="M117.7,288.2l-5.8-1.2c-0.1,1-0.1,2-0.2,2.9c2,0.5,3.9,1,5.8,1.4C117.6,290.3,117.6,289.3,117.7,288.2z"/>
	<path d="M148,103.8l-5.5-1.2c-0.4,1.8-0.7,3.7-1.1,5.7l5.5,1.2C147.3,107.5,147.7,105.6,148,103.8z"/>
	<path d="M149.1,98.5c-2.6-0.3-4.5-0.5-5.6-0.7c-0.1,0.7-0.3,1.4-0.4,2.2l5.5,1.2C148.7,100.3,148.9,99.4,149.1,98.5z"/>
	<path d="M139.9,146.3l-5.6-1.2c-0.2,1.1-0.4,2.2-0.6,3.3l5.6,1.2C139.5,148.5,139.7,147.4,139.9,146.3z"/>
	<path d="M141.5,138l-5.6-1.2c-0.2,1.1-0.4,2.2-0.6,3.3l5.6,1.2C141.1,140.2,141.3,139.1,141.5,138z"/>
	<path d="M143,129.6l-5.6-1.2c-0.2,1.1-0.4,2.2-0.6,3.3l5.6,1.2C142.6,131.8,142.8,130.7,143,129.6z"/>
	<path d="M144.6,121.3l-5.5-1.2c-0.2,1.1-0.4,2.2-0.6,3.3l5.6,1.2C144.2,123.5,144.4,122.4,144.6,121.3z"/>
	<path d="M140.1,115.1l5.5,1.2c0.2-1.1,0.4-2.2,0.6-3.3l-5.5-1.2C140.5,112.9,140.3,114,140.1,115.1z"/>
	<path d="M132,190.2c0.1-0.5,0.2-0.9,0.2-1.4l-5.7-1.2c-0.1,0.5-0.2,0.9-0.2,1.4L132,190.2z"/>
	<path d="M133.5,181.9c0.1-0.5,0.2-0.9,0.2-1.4l-5.7-1.2c-0.1,0.5-0.2,0.9-0.2,1.4L133.5,181.9z"/>
	<path d="M135.2,172.1l-5.7-1.2c-0.1,0.5-0.2,0.9-0.2,1.4l5.7,1.2C135.1,173,135.1,172.6,135.2,172.1z"/>
	<path d="M136.5,165.1c0.1-0.5,0.2-0.9,0.2-1.4l-5.6-1.2c-0.1,0.5-0.2,0.9-0.2,1.4L136.5,165.1z"/>
	<path d="M138.2,155.4l-5.6-1.2c-0.1,0.5-0.2,0.9-0.3,1.4l5.6,1.2C138.1,156.3,138.2,155.9,138.2,155.4z"/>
</g>
</svg>
