<?xml version="1.0" encoding="utf-8"?>
<!-- Generator: Adobe Illustrator 25.3.0, SVG Export Plug-In . SVG Version: 6.00 Build 0)  -->
<svg version="1.1" id="Layer_1" xmlns="http://www.w3.org/2000/svg" xmlns:xlink="http://www.w3.org/1999/xlink" x="0px" y="0px"
	 viewBox="0 0 750.2 400.1" style="enable-background:new 0 0 750.2 400.1;" xml:space="preserve">
<g>
	<path d="M398.6,263.7l-6.1-0.8c-1.4,10.8-2.5,20.1-2.9,27c2,0.5,4,1,6,1.4C396,284.2,397.1,274.7,398.6,263.7z"/>
	<path d="M635.8,291.3c2.1-0.5,4.2-1,6.4-1.5c-0.4-6.8-1.5-15.9-3-26.5l-6.5,0.8C634.2,275,635.3,284.3,635.8,291.3z"/>
	<path d="M397,232.3l6.1,0.8c1.1-7,2.3-14.3,3.5-21.7l-6-0.8C399.3,218,398.1,225.3,397,232.3z"/>
	<path d="M630.5,211.2L624,212c1.3,7.4,2.6,14.6,3.8,21.6l6.5-0.8C633.1,225.8,631.8,218.5,630.5,211.2z"/>
	<path d="M407.3,172.1l5.9,0.8c0.8-4.6,1.6-9.1,2.4-13.5l-5.9-0.8C408.9,163,408.1,167.5,407.3,172.1z"/>
	<path d="M615.5,167.4l0.1,0.1c0.4,2,0.8,4,1.2,6l6.4-0.8c-0.9-4.5-1.8-9-2.7-13.5l-6.4,0.8C614.5,162.5,615,164.9,615.5,167.4z"/>
	<path d="M418.6,112l5.8,0.8c0.4-1.9,0.7-3.6,1.1-5.4l-5.8-0.8C419.3,108.3,418.9,110.1,418.6,112z"/>
	<path d="M609.7,107.3l-6,0.8c0.1,0.5,0.2,1,0.3,1.5c0.3,1.2,0.5,2.5,0.8,3.8l6.1-0.8C610.5,110.8,610.1,109,609.7,107.3z"/>
	<path d="M120.5,263.3l-5.9-0.8c-1.5,10.9-2.5,20.3-2.9,27.3c2,0.5,3.9,1,5.8,1.4C117.9,284.1,119,274.5,120.5,263.3z"/>
	<path d="M358.7,291c1.8-0.4,3.7-0.9,5.5-1.3c-0.4-6.8-1.4-15.7-2.9-26.1l-5.6,0.7C357.2,274.9,358.2,284.1,358.7,291z"/>
	<path d="M350.8,233.8l5.7-0.7c-1.2-7-2.5-14.3-3.8-21.6l-5.7,0.7C348.3,219.6,349.6,226.8,350.8,233.8z"/>
	<path d="M119.1,232l5.9,0.8c1.1-7,2.3-14.3,3.5-21.7l-5.8-0.8C121.4,217.7,120.2,225,119.1,232z"/>
	<path d="M129.4,171.8l5.7,0.7c0.8-4.6,1.6-9.1,2.4-13.5l-5.7-0.7C131.1,162.7,130.2,167.2,129.4,171.8z"/>
	<path d="M339.7,173.7l5.6-0.7c-0.9-4.5-1.8-9-2.7-13.5l-5.5,0.7C338,164.6,338.9,169.1,339.7,173.7z"/>
	<path d="M140.7,111.7l5.6,0.7c0.4-1.9,0.7-3.6,1.1-5.4l-5.6-0.7C141.5,108,141.1,109.8,140.7,111.7z"/>
	<path d="M332,107.6l-5.3,0.7c0.1,0.4,0.2,0.9,0.3,1.3c0.3,1.3,0.5,2.6,0.8,4l5.3-0.7C332.7,111.1,332.3,109.3,332,107.6z"/>
</g>
</svg>
