<?xml version="1.0" encoding="utf-8"?>
<!-- Generator: Adobe Illustrator 25.3.0, SVG Export Plug-In . SVG Version: 6.00 Build 0)  -->
<svg version="1.1" id="Layer_1" xmlns="http://www.w3.org/2000/svg" xmlns:xlink="http://www.w3.org/1999/xlink" x="0px" y="0px"
	 viewBox="0 0 750.2 400.1" style="enable-background:new 0 0 750.2 400.1;" xml:space="preserve">
<style type="text/css">
	.st0{fill:none;}
</style>
<g>
	<path class="st0" d="M620,166.5c-0.3-0.9-0.6-1.9-0.9-2.8C618.7,164.8,619,165.7,620,166.5z"/>
	<path d="M121,259.4c-0.6,0.2-1.3,0.5-1.9,0.7c-1.5,0.5-2.9,1-4.4,1.5c-0.1,1.1-0.3,2.1-0.4,3.2c2.1-0.7,4.2-1.4,6.3-2.1
		C120.7,261.6,120.9,260.5,121,259.4z"/>
	<path d="M135.2,168.2c-0.1,0-0.1,0.1-0.2,0.1c0.3,0.2,0.5,0.4,0.8,0.6c0-0.1,0-0.3,0.1-0.4C135.7,168.4,135.4,168.3,135.2,168.2z"
		/>
	<path d="M133.6,181c0.1-0.3,0.1-0.6,0.2-0.9c-1.9-0.1-3.9-0.2-5.8-0.3c0,0.2-0.1,0.4-0.1,0.7c0.3,0,0.7,0.1,1,0.1
		C130.5,180.7,132.1,180.9,133.6,181z"/>
	<path d="M639.4,264.6c-0.3-2.2-0.6-4.4-1-6.7c-0.1,0.1-0.2,0.2-0.2,0.3c-1,1.4-2,2.8-2.9,4.1c-0.8,1.1-1.5,2.2-2.3,3.3
		c0.2,1.7,0.5,3.3,0.7,4.9C635.6,268.6,637.5,266.6,639.4,264.6z"/>
	<path d="M395.6,290.7c-0.7,0.1-1.4,0.1-2.1,0.2c0.7,0.2,1.3,0.3,2,0.4C395.6,291.1,395.6,290.9,395.6,290.7z"/>
	<path d="M140,145c0,0,0.1,0,0.1-0.1c0.1-0.6,0.2-1.2,0.3-1.8c-2.1,1-4.3,2-6.4,3c-0.1,0.6-0.2,1.3-0.4,1.9c1.9-0.9,3.9-1.9,5.9-2.8
		C139.8,145.1,139.9,145.1,140,145z"/>
	<path d="M361.2,263.3c-1.8-0.2-3.7-0.4-5.5-0.6c-0.1,0-0.2,0-0.3,0c0.3,2.1,0.6,4.1,0.8,6c2,0.4,4,0.9,5.9,1.3
		C361.9,267.9,361.6,265.7,361.2,263.3z"/>
	<path d="M136.3,134.8c1.2,0.8,2.4,1.7,3.6,2.5c-1.5,0.6-3,1.3-4.5,1.9c-0.1,0.3-0.1,0.6-0.2,1c1.8-0.8,3.6-1.5,5.4-2.3
		c0.3,0.2,0.5,0.4,0.8,0.6c0.2-0.9,0.3-1.8,0.5-2.7c-1.7-1.3-3.4-2.5-5.1-3.8C136.6,132.9,136.4,133.8,136.3,134.8z"/>
	<path d="M325.8,103.5c0.1,0.4,0.2,0.9,0.3,1.4c1.8,0,3.6-0.1,5.3-0.1c-0.1-0.5-0.2-0.9-0.3-1.4
		C329.3,103.4,327.5,103.5,325.8,103.5z"/>
	<path d="M419.3,115.5C419.2,115.5,419.2,115.5,419.3,115.5c-0.5-0.1-0.9-0.2-1.3-0.3c-0.2,1-0.4,2-0.6,3c0.3,0,0.6,0.1,0.9,0.1
		c-0.2,0.1-0.3,0.2-0.5,0.3c0.6-0.1,1.1-0.1,1.7-0.2c1.2,0.1,2.5,0.2,3.7,0.3c0.2-1.3,0.5-2.5,0.7-3.7c-0.6,0.3-1.2,0.7-1.7,1
		C421.2,115.9,420.3,115.7,419.3,115.5z"/>
	<path d="M396.4,281.5c0-0.4,0.1-0.9,0.1-1.3c0,0-0.1,0-0.1,0c0,0,0.1,0,0.1,0c0.1-0.9,0.2-1.9,0.3-2.9c-0.6,0.1-1.3,0.2-1.9,0.2
		c-1.4-0.5-2.7-1.1-4.1-1.6c-0.1,0.6-0.1,1.2-0.2,1.8c0.1,0.1,0.2,0.1,0.3,0.2c-0.1,0-0.2,0-0.3,0c-0.1,1-0.2,2-0.3,2.9
		c1.2-0.1,2.4-0.2,3.6-0.4C394.8,280.8,395.6,281.2,396.4,281.5z"/>
	<path d="M395.2,285.7c0.3,0,0.5-0.1,0.8-0.1c0.1-0.8,0.1-1.6,0.2-2.4c-1.7,0.4-3.3,0.8-4.9,1.2c0,0,0,0-0.1,0
		c-0.4,0-0.9,0.1-1.3,0.1c-0.1,0.9-0.1,1.7-0.2,2.5C391.6,286.6,393.4,286.1,395.2,285.7z"/>
	<path d="M358.4,244.9c-0.2-1-0.3-2-0.5-3c-1.8,0.8-3.6,1.5-5.4,2.3c0.2,1.1,0.3,2.1,0.5,3.1c0.6-0.3,1.2-0.6,1.8-0.9
		C356,246,357.2,245.4,358.4,244.9z"/>
	<path d="M412.9,141.6c-0.1,0.5-0.2,1-0.3,1.5c1.1,0.5,2.1,1,3.1,1.5c0.8,0.4,1.6,0.9,2.4,1.3c0.1-0.4,0.1-0.8,0.2-1.2
		c-0.9-0.5-1.7-1-2.6-1.5C414.8,142.6,413.9,142.1,412.9,141.6z"/>
	<path d="M413.3,139.3c-0.1,0.3-0.1,0.6-0.2,0.9c1.8,0.7,3.5,1.5,5.3,2.2c0.1,0,0.2,0.1,0.3,0.1c0-0.3,0.1-0.5,0.1-0.8c0,0,0,0,0,0
		C417,140.9,415.2,140.1,413.3,139.3z"/>
	<path d="M404,226.8c0,0-0.1,0-0.1,0c-1.6,0.2-3.2,0.4-4.8,0.6c-0.5,0.1-0.9,0.2-1.4,0.2c-0.2,1.3-0.4,2.5-0.6,3.8
		c2.2-0.8,4.4-1.5,6.6-2.3C403.8,228.4,403.9,227.6,404,226.8z"/>
	<path d="M404.2,217.1c0.5-0.1,1-0.1,1.4,0c0.1-0.5,0.2-0.9,0.2-1.4c-2-0.5-4-0.9-5.9-1.4c-0.3,1.8-0.6,3.6-0.9,5.5
		c0.7,0.3,1.4,0.6,2.1,0.9c0.7,0.3,0.9,0.8,0.5,1.2c-1.1,1-0.5,2,0.5,2.9c0.5,0.4,0.9,0.8,1.4,1.2c0.2,0,0.4,0.1,0.7,0.1
		c0.4-2.8,0.9-5.6,1.4-8.4C405.1,217.5,404.7,217.3,404.2,217.1z"/>
	<path d="M397.1,275.7c0.3-2.8,0.7-5.9,1.1-9c-1.9-1.4-3.7-2.9-5.6-4.3c-0.1,1-0.3,2.1-0.4,3.1c0.4,0.5,0.9,1,1.3,1.6
		c0.3,0.4,0.5,0.9,0.5,1.4c0.1,0.7-0.8,1.1-2.2,0.8c0,0-0.1,0-0.1,0c-0.2,1.8-0.4,3.5-0.6,5.1c0.3,0.1,0.5,0.1,0.8,0.2
		C393.6,275,395.3,275.3,397.1,275.7z"/>
	<path d="M360.3,257c-0.1-0.4-0.1-0.9-0.2-1.4c-2-0.7-4-1.4-6.1-2c0.1,0.3,0.1,0.7,0.2,1c0.9,0.3,1.8,0.6,2.7,1
		C358.1,256.1,359.2,256.5,360.3,257z"/>
	<path d="M327.9,114.2c0.1,0.4,0.2,0.9,0.3,1.3c0.8,0.1,1.7,0.1,2.5,0.2c1,0.1,2,0.1,3,0.2c-0.1-0.5-0.2-0.9-0.3-1.4
		c-1.6-0.1-3.2-0.1-4.7-0.2C328.4,114.3,328.2,114.3,327.9,114.2z"/>
	<path d="M124.6,235.1c0-0.3,0.1-0.5,0.1-0.8c-1.8-1.7-3.5-3.4-5.2-5.1c0,0.3-0.1,0.5-0.1,0.8C121.1,231.6,122.9,233.4,124.6,235.1z
		"/>
	<path d="M421.4,98c0.2,0,0.3-0.1,0.5-0.1c-0.2,0-0.3-0.1-0.5-0.1C421.4,97.9,421.4,97.9,421.4,98z"/>
	<path d="M633.2,230.1c0.2,0,0.4-0.1,0.6-0.1c-0.1-0.6-0.2-1.2-0.3-1.7c-1.2-0.1-1.7-0.7-1.2-1.3c0.2-0.3,0.5-0.6,0.8-0.9
		c-0.2-0.9-0.3-1.8-0.5-2.7c-0.2,0.2-0.5,0.3-0.7,0.5c-1.5,0.9-3,1.8-4.4,2.7c-0.3,0.2-0.5,0.4-0.8,0.5c0.2,1,0.4,2.1,0.5,3.1
		c0.5,0.1,1.1,0.2,1.6,0.2C630.3,230.3,631.8,230.2,633.2,230.1z"/>
	<path d="M145.5,102.5c0.4,0,0.8,0,1.3,0c0.5,0,1,0,1.5,0c0.1-0.6,0.2-1.2,0.4-1.8c-1.2,0.1-2.3,0.1-3.5,0.2c-0.5,0-1,0.1-1.4,0.1
		c-0.3,0-0.6,0.1-0.9,0.1c-0.1,0.5-0.2,1.1-0.3,1.7C143.5,102.6,144.5,102.5,145.5,102.5z"/>
	<path d="M639.3,290.5c-0.7-0.6-1.3-1.3-1.8-2c-0.4-0.6-0.9-1.2-1.3-1.8c1.8-0.7,3.6-1.3,5.7-1.6c0-0.5-0.1-0.9-0.1-1.4
		c-0.3,0.1-0.6,0.1-0.8,0.2c-1.8,0.6-3.6,1.1-5.4,1.7c0-0.1-0.1-0.1-0.1-0.2c0.2,2.1,0.4,4.1,0.5,5.9
		C636.9,291,638.1,290.8,639.3,290.5C639.3,290.5,639.3,290.5,639.3,290.5z"/>
	<path d="M324.6,97.8c0.2,0.8,0.3,1.6,0.5,2.4c0.1,0,0.2,0,0.3,0c1.8,0.7,3.6,1.3,5.4,1.9c-0.4-1.8-0.8-3.5-1.1-5.1
		C328.7,97.1,327,97.4,324.6,97.8z"/>
	<path d="M112.9,286c-0.3,0.1-0.6,0.1-0.9,0.1c-0.1,1.2-0.2,2.3-0.2,3.3c0.4,0,0.9,0,1.5,0c1.5-0.2,3-0.4,4.5-0.7
		c0.2-2,0.3-4.1,0.6-6.4c-1,0.6-2.1,1.3-3.1,1.9C114.3,284.8,113.6,285.4,112.9,286z"/>
	<path d="M640.6,282.2c0.3-0.1,0.6-0.1,0.9-0.2c-0.1-0.8-0.2-1.5-0.2-2.3c-2.5,0.2-4.6,0.8-6.4,1.6c0.1,0.7,0.2,1.5,0.2,2.2
		c0.8-0.2,1.5-0.4,2.4-0.6C638.5,282.6,639.6,282.4,640.6,282.2z"/>
	<path d="M612.7,121.1c-0.9-1-1.8-1.9-2.7-2.9c-1.9-2-3.7-4-5.5-6c0.5,2.6,1.1,5.3,1.6,8.1c2.4,1.7,4.9,3.4,7.4,5.1
		C613.3,123.9,613,122.5,612.7,121.1z"/>
	<path d="M632.3,222.4c0.1,0,0.2,0,0.2,0c-0.1-0.6-0.2-1.3-0.3-1.9c-1.8,0.7-3.6,1.4-5.6,1.9c-0.2,0.1-0.4,0.1-0.7,0.2
		c0.1,0.6,0.2,1.1,0.3,1.7c1-0.3,2-0.5,2.9-0.8C630.1,223,631.2,222.7,632.3,222.4z"/>
	<path d="M139.9,116.1c-0.3,1.6-0.7,3.3-1,5.1c0,0,0.1,0,0.1,0c0.6,0.6,1.2,1.2,1.7,1.8c-0.8,0.2-1.5,0.5-2.3,0.7
		c0,0.1,0,0.2-0.1,0.3c0.3,0.2,0.6,0.5,0.8,0.7c0.8-0.2,1.7-0.5,2.5-0.7c0.7,0.7,1.4,1.4,2.1,2.1c0.3-1.7,0.7-3.4,1-5.1
		c-0.2-0.2-0.4-0.5-0.7-0.7c0.3,0,0.5-0.1,0.8-0.1c0.1-0.6,0.2-1.1,0.3-1.7c-0.8,0.1-1.7,0.3-2.5,0.4
		C141.7,117.9,140.8,117,139.9,116.1z"/>
	<path d="M363.3,279.3c-1.9,0.1-3.8,0.2-5.7,0.2c0.1,1.1,0.2,2.1,0.3,3.1c1.9-0.1,3.8-0.2,5.6-0.3
		C363.5,281.4,363.4,280.4,363.3,279.3z"/>
	<path d="M419.8,105.8c0.7,0.3,1.5,0.7,2.2,1c-0.5,0.1-1.1,0.2-1.6,0.2c-0.3-0.1-0.5-0.3-0.8-0.4c-0.5,2.3-0.9,4.7-1.4,7.2
		c0.2,0.1,0.4,0.2,0.6,0.3c0.4,0.3,0.8,0.5,1.2,0.8c1.5-0.9,3-1.8,4.5-2.7c0.4-2.1,0.8-4.1,1.2-6c-0.1,0-0.2,0-0.3,0
		c-0.5-0.2-1.1-0.5-1.6-0.7c-1.2-0.5-2.4-1.1-3.5-1.6C420,104.6,419.9,105.2,419.8,105.8z"/>
	<path d="M141.7,106.6c-0.5,2.7-1.1,5.6-1.7,8.7c0.8,0.2,1.5,0.5,2.2,0.9c0.4,0.2,0.8,0.4,1.2,0.7c0.6,0.4,1.2,0.9,1.8,1.3
		c0.3-1.4,0.5-2.7,0.8-4c-0.2-0.4-0.4-0.7-0.5-1.1c0-0.2-0.1-0.3-0.1-0.5c0-0.5,0.2-0.8,0.7-1.1c0.1,0,0.2-0.1,0.3-0.1
		c0.3-1.6,0.6-3.1,0.9-4.6c-0.3,0-0.5,0-0.8-0.1C145,106.6,143.3,106.6,141.7,106.6z"/>
	<path d="M608,99.4c-0.2-0.8-0.4-1.6-0.5-2.4c-1.1,0.2-3.1,0.5-5.9,0.9c0.1,0.5,0.2,1,0.3,1.5C603.9,99.4,606,99.4,608,99.4z"/>
	<path d="M413.1,149.5c-0.5-0.3-1-0.7-1.5-1c-0.4,1.9-0.7,3.8-1.1,5.8c1.9,0.4,3.8,0.7,5.9,0.9c0.1-0.5,0.2-1,0.3-1.6
		c-0.3-0.1-0.7-0.1-1-0.2c-1.2-0.3-2.4-0.6-2.8-1.4c0.1-0.1,0.2-0.3,0.4-0.5C414.3,150.8,413.9,150.1,413.1,149.5z"/>
	<path d="M414.3,155.9c-0.1-0.3-0.3-0.6-1.1-0.6c-1.1,0.3-1.8,0.9-2.6,1.4c-0.2,0.2-0.4,0.3-0.6,0.5c-0.1,0.6-0.2,1.2-0.3,1.8
		c0.3-0.2,0.7-0.5,1.1-0.7c0.3-0.2,0.8-0.2,1.3-0.4c0.3,0.4,0.5,0.7,0.6,1c0.4,1.2,0.7,2.4,1.1,3.6c0.2,0.6,0.5,1.2,0.9,1.7
		c0.1-0.5,0.2-1.1,0.3-1.6c0-0.1-0.1-0.2-0.1-0.3c-0.5-1.6-0.5-3.2-0.5-4.8C414.4,157.1,414.4,156.5,414.3,155.9z"/>
	<path d="M412.2,178.5c0-0.2,0.1-0.5,0.1-0.7c0,0,0,0,0,0c-1.8-1-3.7-1.9-5.5-2.8c0,0.2-0.1,0.5-0.1,0.7c0.5,0.2,1,0.5,1.4,0.7
		C409.4,177.1,410.8,177.8,412.2,178.5z"/>
	<path d="M343.2,192c0.7-0.1,1.2-0.3,1.6-0.6c0.9-0.5,1.9-1,2.6-1.5c0.3-0.2,0.6-0.5,1-0.7c-1.5-7.8-3-15.6-4.5-23.2
		c-0.2,0.2-0.4,0.4-0.5,0.7c-0.1,0.3-0.3,0.5-0.4,0.8c-0.2,1-0.4,2.1-0.4,3.1c0,1.5,0.4,3,0.5,4.5c0.2,1.8,0.3,3.6,0.3,5.5
		c0,2.4-0.5,4.8-1,7.2C342.7,189.2,343,190.6,343.2,192z"/>
	<path d="M330,124.5c0.1,0.7,0.3,1.3,0.4,2c0.2,0,0.5,0,0.7,0c0,0,0,0,0,0c0.6,0.5,1.2,1,1.8,1.5c0.4,0.4,0.8,0.7,1.2,1.1
		c-0.9-0.5-1.9-1-3-1.5c-0.2-0.1-0.5-0.2-0.7-0.3c0.4,2,0.8,4,1.2,6c0.9,0,1.9,0,2.8-0.2c1.4-0.2,2.1-0.7,2.2-1.3
		c0.1,0.2,0.2,0.3,0.3,0.5c-0.7-3.3-1.3-6.5-2-9.5c-0.4,0.1-0.8,0.1-1.2,0.2c-1.1,0.2-2.1,0.5-3,0.8
		C330.5,124.1,330.2,124.3,330,124.5z"/>
	<path d="M358.7,291c1.8-0.4,3.7-0.9,5.5-1.3c-0.1-1.2-0.2-2.4-0.3-3.7c-1.9,0.1-3.7,0.2-5.6,0.3C358.5,287.9,358.6,289.5,358.7,291
		z"/>
	<path d="M639.6,266.4c-2,1.8-3.9,3.6-5.9,5.3c0.3,2.2,0.6,4.3,0.8,6.3c2.1-2.5,4-5.1,5.6-7.7C640,269,639.8,267.7,639.6,266.4z"/>
	<path d="M419.6,130.5c-0.1,0-0.2,0-0.2,0.1c0.5,0,1,0.1,1.5,0.1c0-0.2,0.1-0.4,0.1-0.6C420.6,130.3,420.1,130.4,419.6,130.5z"/>
	<path d="M116.6,274.2c0.4-0.5,0.6-1,0.8-1.6c0.2-0.7-0.6-1.2-2-1.3c-0.5,0-1.1,0-1.7,0c-0.1,0-0.2,0-0.3,0
		c-0.3,2.3-0.5,4.6-0.8,6.7c0.4-0.3,0.8-0.7,1.2-1C115,276.1,115.8,275.2,116.6,274.2z"/>
	<path d="M408,167.9c0.1,0.1,0.2,0.3,0.3,0.4c1.5,2,3.1,3.9,4.6,5.9c0.2-1.1,0.4-2.3,0.6-3.4c-1.7-2.2-3.3-4.4-4.9-6.6
		C408.5,165.5,408.2,166.7,408,167.9z"/>
	<path d="M628.6,201c-2.2,0-4.3,0-6.4,0c0.1-0.4,0.3-0.7,0.4-1.1c1.9-0.1,3.8-0.1,5.8-0.1c-2-10.8-4.1-21.6-6.2-32.2
		c-0.1,0-0.1,0-0.2-0.1c-0.4-1.3-0.7-2.6-1.1-3.8c-0.2-0.7-0.4-1.4-0.6-2.1c0.2-0.2,0.4-0.3,0.5-0.5c-2.5-12.4-4.9-24.1-7.1-34.6
		c-2.5-1.7-5-3.4-7.4-5.1c1,4.9,2,10.1,3.1,15.6c0.4,1,0.9,1.9,1.3,2.9c-0.3-0.1-0.5-0.1-0.7-0.2c0.3,1.5,0.6,3,0.9,4.6
		c0.6,0.2,1.2,0.3,1.8,0.5c1.6,4.4,3,8.9,4.1,13.4c0.8,3.3,1.6,6.5,2.1,9.8c-1.6-3.3-3.4-6.7-5.3-9.9c0.3,1.4,0.5,2.7,0.8,4.1
		c0.2,0.5,0.5,0.9,0.7,1.4c1.8,3.5,3.4,7.1,4.5,10.7c0.1,2.3,0.3,4.6,0.2,6.8c-0.1,1.8-0.3,3.7-0.6,5.5c1.9,9.8,3.7,19.8,5.5,29.5
		c0.1-0.2,0.3-0.3,0.4-0.5c1.8-2.1,3.5-4.2,5-6.3C629.7,206.7,629.1,203.9,628.6,201z M619.1,163.7c0.3,0.9,0.6,1.9,0.9,2.8
		C619,165.7,618.7,164.8,619.1,163.7z"/>
	<path d="M634.6,234.4c-2.1,0.4-4.3,0.7-6.5,1c0,0.2,0.1,0.4,0.1,0.6c0.4,0,0.8-0.1,1.1-0.1c1.8-0.3,3.6-0.6,5.4-0.9
		C634.7,234.8,634.6,234.6,634.6,234.4z"/>
	<path d="M356.7,234.6c-1.9,0.3-3.7,0.7-5.6,1.1c0.1,0.7,0.2,1.5,0.4,2.2c1.9-0.3,3.7-0.7,5.6-1C357,236.1,356.8,235.3,356.7,234.6z
		"/>
	<path d="M337.5,162.3h5.4c0.1,0,0.2,0,0.3,0c-0.2-0.8-0.3-1.5-0.5-2.3c-1.9-0.6-3.9-1-6-1.4C337,159.8,337.3,161,337.5,162.3z"/>
	<path d="M409.7,192.7c0.1-0.4,0.1-0.8,0.2-1.2c-1.9-0.9-3.7-1.7-5.7-2.6c-0.1,0.4-0.1,0.8-0.2,1.2c0.4,0.2,0.8,0.3,1.2,0.5
		C406.7,191.4,408.2,192.1,409.7,192.7z"/>
	<path d="M334.9,148.9c0.1,0.5,0.2,1,0.3,1.5c0.8-0.7,1.7-1.4,2.8-2c0.9-0.5,1.6-1,2.1-1.5c-0.2-1-0.4-1.9-0.6-2.8
		c-0.2,0.4-0.4,0.7-0.6,1.1c-0.5,0.6-1,1.2-1.8,1.8C336.3,147.6,335.6,148.3,334.9,148.9z"/>
	<path d="M415.3,128.9c-0.1,0.4-0.1,0.7-0.2,1.1c0.8-0.2,1.5-0.4,2.3-0.5c0.6-0.1,1.1-0.3,1.7-0.4c-0.3,0-0.6,0-0.9,0
		C417.2,128.9,416.3,128.9,415.3,128.9z"/>
	<path d="M352.2,208.9c-1.8,0.9-3.6,1.8-5.3,2.7c0.3,1.9,0.7,3.8,1,5.7c1.8-0.7,3.6-1.5,5.4-2.2C352.9,213,352.5,211,352.2,208.9z"
		/>
	<path d="M409,197.1c-1.1-0.4-2.2-0.7-3.4-1c-0.8-0.2-1.7-0.4-2.5-0.6c-0.2,1-0.3,2-0.5,3c2.1,0.2,4.1,0.4,6,0.8
		C408.7,198.5,408.8,197.8,409,197.1z"/>
	<path d="M352.1,220.6c-1.1,0.5-2.2,1-3.4,1.4c0,0.2,0.1,0.3,0.1,0.5c1-0.4,2-0.8,3-1.2C351.8,221,351.9,220.8,352.1,220.6z"/>
	<path d="M128.9,206c-0.1-0.2-0.3-0.4-0.4-0.5c-1.2-1.5-2.3-3-3.4-4.4c0,0-0.1,0-0.1,0c-0.2-0.1-0.5-0.1-0.7-0.2
		c-0.3,1.8-0.6,3.6-0.9,5.4c0,0,0,0,0,0.1c0,0,0,0-0.1,0c0,0.2-0.1,0.3-0.1,0.5c0.2,0,0.3,0,0.5,0c0.5,0.7,1.1,1.4,1.6,2.2
		c0.4,0.5,0.7,1.1,1.1,1.6c-0.1,0-0.2,0-0.3,0c-1.2-0.1-2.4-0.1-3.5-0.1c0,0.1,0,0.3-0.1,0.4c0.8,0,1.6-0.1,2.4-0.1
		c0.6,0,1.2,0,1.7,0.1c0.5,0.7,1,1.4,1.5,2.1c0.4-2.3,0.8-4.6,1.1-6.9C129.2,206,129.1,206,128.9,206z"/>
</g>
</svg>
