<?xml version="1.0" encoding="utf-8"?>
<!-- Generator: Adobe Illustrator 25.3.0, SVG Export Plug-In . SVG Version: 6.00 Build 0)  -->
<svg version="1.1" id="Layer_1" xmlns="http://www.w3.org/2000/svg" xmlns:xlink="http://www.w3.org/1999/xlink" x="0px" y="0px"
	 viewBox="0 0 750.2 400.1" style="enable-background:new 0 0 750.2 400.1;" xml:space="preserve">
<g>
	<path d="M136.7,132.7l5.8,0c0-0.1,0-0.2,0-0.2l-5.8,0C136.7,132.5,136.7,132.6,136.7,132.7z"/>
	<path d="M144.3,122.9c0-0.1,0-0.2,0-0.2l-5.8,0c0,0.1,0,0.2,0,0.2L144.3,122.9z"/>
	<path d="M146.2,113.1c0-0.1,0-0.2,0-0.3l-5.8,0c0,0.1,0,0.2,0,0.2L146.2,113.1z"/>
	<path d="M148.1,103.3c0-0.1,0-0.2,0.1-0.3l-5.7,0c0,0.1,0,0.2,0,0.2L148.1,103.3z"/>
	<path d="M111.8,287.9l5.9,0c0-0.1,0-0.1,0-0.2l-5.9,0C111.8,287.8,111.8,287.8,111.8,287.9z"/>
	<path d="M118.7,278.1c0-0.1,0-0.1,0-0.2l-6,0c0,0.1,0,0.1,0,0.2L118.7,278.1z"/>
	<path d="M119.9,268.1l-6,0c0,0.1,0,0.1,0,0.2l6,0C119.9,268.3,119.9,268.2,119.9,268.1z"/>
	<path d="M121.2,258.4l-6,0c0,0.1,0,0.1,0,0.2l6,0C121.2,258.5,121.2,258.4,121.2,258.4z"/>
	<path d="M122.5,248.8c0-0.1,0-0.1,0-0.2l-6,0c0,0.1,0,0.1,0,0.2L122.5,248.8z"/>
	<path d="M124,239c0-0.1,0-0.1,0-0.2l-6,0c0,0.1,0,0.1,0,0.2L124,239z"/>
	<path d="M125.5,229.2c0-0.1,0-0.1,0-0.2l-6,0c0,0.1,0,0.1,0,0.2L125.5,229.2z"/>
	<path d="M127.1,219.4c0-0.1,0-0.1,0-0.2l-6,0c0,0.1,0,0.1,0,0.2L127.1,219.4z"/>
	<path d="M128.6,210.1c0-0.1,0-0.1,0-0.2l-6,0c0,0.1,0,0.1,0,0.2L128.6,210.1z"/>
	<path d="M130.3,200.3c0-0.1,0-0.1,0-0.2l-5.9,0c0,0.1,0,0.1,0,0.2L130.3,200.3z"/>
	<path d="M132,190.5c0-0.1,0-0.1,0-0.2l-5.9,0c0,0.1,0,0.1,0,0.2L132,190.5z"/>
	<path d="M133.7,180.8c0-0.1,0-0.1,0-0.2l-5.9,0c0,0.1,0,0.1,0,0.2L133.7,180.8z"/>
	<path d="M135.4,171c0-0.1,0-0.2,0-0.2l-5.9,0c0,0.1,0,0.1,0,0.2L135.4,171z"/>
	<path d="M137.2,161.2c0-0.1,0-0.2,0-0.2l-5.9,0c0,0.1,0,0.1,0,0.2L137.2,161.2z"/>
	<path d="M139,151.4c0-0.1,0-0.2,0-0.2l-5.8,0c0,0.1,0,0.1,0,0.2L139,151.4z"/>
	<path d="M140.8,141.6c0-0.1,0-0.2,0-0.2l-5.8,0c0,0.1,0,0.1,0,0.2L140.8,141.6z"/>
	<path d="M141.7,136.9l-5.8,0c-0.1,0.3-0.1,0.5-0.2,0.8l5.8,0C141.6,137.5,141.6,137.2,141.7,136.9z"/>
	<path d="M143.4,128c0.1-0.3,0.1-0.6,0.2-0.8l-5.8,0c-0.1,0.3-0.1,0.5-0.2,0.8L143.4,128z"/>
	<path d="M139.5,118.2l5.8,0c0.1-0.3,0.1-0.6,0.2-0.8l-5.8,0C139.6,117.6,139.5,117.9,139.5,118.2z"/>
	<path d="M141.4,108.4l5.8,0c0.1-0.3,0.1-0.6,0.2-0.9l-5.8,0C141.5,107.8,141.4,108.1,141.4,108.4z"/>
	<path d="M148.8,98.5c-2.4-0.3-4.2-0.5-5.3-0.7c-0.1,0.3-0.1,0.5-0.2,0.8l5.7,0L148.8,98.5z"/>
	<path d="M113.6,283.1l4.5,0c0-0.2,0-0.5,0.1-0.7l-4.6,0l-1.4,0c0,0.2,0,0.5-0.1,0.7L113.6,283.1z"/>
	<path d="M119.2,273.4c0-0.2,0.1-0.5,0.1-0.7l-5.7,0l-0.3,0c0,0.2-0.1,0.5-0.1,0.7l0.4,0L119.2,273.4z"/>
	<path d="M120.6,262.9l-6,0c0,0.2-0.1,0.5-0.1,0.7l6,0C120.5,263.4,120.5,263.1,120.6,262.9z"/>
	<path d="M115.8,253.8l6,0c0-0.2,0.1-0.5,0.1-0.7l-6,0C115.9,253.3,115.8,253.6,115.8,253.8z"/>
	<path d="M126.4,223.7l-1.5,0l0.9,0.7l0.5,0C126.3,224.2,126.4,224,126.4,223.7z"/>
	<path d="M127.9,214.4l-6,0c0,0.2-0.1,0.5-0.1,0.7l6,0C127.8,214.9,127.9,214.7,127.9,214.4z"/>
	<path d="M123.5,205.4l5.9,0c0-0.3,0.1-0.5,0.1-0.8l-5.9,0C123.6,204.9,123.5,205.1,123.5,205.4z"/>
	<path d="M125.2,195.6l5.9,0c0-0.3,0.1-0.5,0.1-0.8l-5.9,0C125.3,195.1,125.2,195.3,125.2,195.6z"/>
	<path d="M132.9,185l-5.9,0c0,0.2-0.1,0.5-0.1,0.7l5.9,0C132.8,185.6,132.9,185.3,132.9,185z"/>
	<path d="M134.7,175.3l-5.9,0c0,0.3-0.1,0.5-0.1,0.8l5.9,0C134.6,175.8,134.6,175.5,134.7,175.3z"/>
	<path d="M140,145.9l-4.1,0l1,0.8l3,0C139.9,146.4,139.9,146.2,140,145.9z"/>
	<path d="M337.2,132.6c0,0,0-0.1,0-0.1l-5.6,0c0,0,0,0.1,0,0.1L337.2,132.6z"/>
	<path d="M420.6,132.7c0-0.1,0-0.2,0.1-0.3l-6,0c0,0.1,0,0.2-0.1,0.3L420.6,132.7z"/>
	<path d="M335.2,122.7l-5.5,0c0,0,0,0.1,0,0.1l5.5,0C335.2,122.8,335.2,122.7,335.2,122.7z"/>
	<path d="M416.5,122.6c0,0.1,0,0.2-0.1,0.3l6,0c0-0.1,0-0.2,0.1-0.3L416.5,122.6z"/>
	<path d="M424.3,113.1c0-0.1,0-0.2,0.1-0.3l-6,0c0,0.1,0,0.2-0.1,0.3L424.3,113.1z"/>
	<path d="M333.1,113.1c0,0,0-0.1,0-0.1l-5.4,0c0,0,0,0.1,0,0.1L333.1,113.1z"/>
	<path d="M331.1,103.3c0,0,0-0.1,0-0.1l-5.3,0c0,0,0,0.1,0,0.1L331.1,103.3z"/>
	<path d="M426.2,103.4c0-0.1,0-0.2,0.1-0.3l-5.9,0c0,0.1,0,0.2-0.1,0.3L426.2,103.4z"/>
	<path d="M364.1,287.9c0-0.1,0-0.1,0-0.2l-5.6,0c0,0.1,0,0.1,0,0.2L364.1,287.9z"/>
	<path d="M389.7,287.7c0,0.1,0,0.2,0,0.3l6.1,0c0-0.1,0-0.2,0-0.3L389.7,287.7z"/>
	<path d="M363.2,278.1c0-0.1,0-0.1,0-0.2l-5.7,0c0,0.1,0,0.1,0,0.2L363.2,278.1z"/>
	<path d="M396.8,278.2c0-0.1,0-0.2,0-0.3l-6.2,0c0,0.1,0,0.2,0,0.3L396.8,278.2z"/>
	<path d="M391.8,268.4l6.2,0c0-0.1,0-0.2,0-0.3l-6.2,0C391.8,268.2,391.8,268.3,391.8,268.4z"/>
	<path d="M361.9,268.1l-5.7,0c0,0.1,0,0.1,0,0.2l5.7,0C361.9,268.3,361.9,268.2,361.9,268.1z"/>
	<path d="M399.2,258.6c0-0.1,0-0.2,0-0.3l-6.2,0c0,0.1,0,0.2,0,0.3L399.2,258.6z"/>
	<path d="M360.5,258.3l-5.8,0c0,0.1,0,0.1,0,0.2l5.8,0C360.5,258.5,360.5,258.4,360.5,258.3z"/>
	<path d="M359,248.8c0-0.1,0-0.1,0-0.2l-5.8,0c0,0.1,0,0.1,0,0.2L359,248.8z"/>
	<path d="M400.6,248.8c0-0.1,0-0.2,0-0.3l-6.2,0c0,0.1,0,0.2,0,0.3L400.6,248.8z"/>
	<path d="M357.4,238.8l-5.8,0c0,0.1,0,0.1,0,0.2l5.8,0C357.4,238.9,357.4,238.8,357.4,238.8z"/>
	<path d="M402.1,239c0-0.1,0-0.2,0-0.3l-6.2,0c0,0.1,0,0.2,0,0.3L402.1,239z"/>
	<path d="M355.8,229.2c0-0.1,0-0.1,0-0.2l-5.8,0c0,0.1,0,0.1,0,0.2L355.8,229.2z"/>
	<path d="M403.7,228.9l-6.2,0c0,0.1,0,0.2,0,0.3l6.2,0C403.7,229.1,403.7,229,403.7,228.9z"/>
	<path d="M348.3,219.4l5.8,0c0-0.1,0-0.1,0-0.2l-5.8,0C348.2,219.3,348.3,219.3,348.3,219.4z"/>
	<path d="M399.1,219.2c0,0.1,0,0.2-0.1,0.3l6.2,0c0-0.1,0-0.2,0.1-0.3L399.1,219.2z"/>
	<path d="M346.6,210.1l5.8,0c0-0.1,0-0.1,0-0.2l-5.8,0C346.6,210,346.6,210,346.6,210.1z"/>
	<path d="M400.6,209.9c0,0.1,0,0.2-0.1,0.3l6.2,0c0-0.1,0-0.2,0.1-0.3L400.6,209.9z"/>
	<path d="M344.8,200.3l5.8,0c0-0.1,0-0.1,0-0.2l-5.8,0C344.8,200.2,344.8,200.3,344.8,200.3z"/>
	<path d="M408.4,200.4c0-0.1,0-0.2,0.1-0.3l-6.1,0c0,0.1,0,0.2-0.1,0.3L408.4,200.4z"/>
	<path d="M404,190.6l6.1,0c0-0.1,0-0.2,0.1-0.3l-6.1,0C404,190.4,404,190.5,404,190.6z"/>
	<path d="M348.7,190.5c0-0.1,0-0.1,0-0.2l-5.8,0c0,0.1,0,0.1,0,0.2L348.7,190.5z"/>
	<path d="M411.8,180.8c0-0.1,0-0.2,0.1-0.3l-6.1,0c0,0.1,0,0.2-0.1,0.3L411.8,180.8z"/>
	<path d="M346.8,180.6l-5.7,0c0,0.1,0,0.1,0,0.2l5.7,0C346.8,180.7,346.8,180.6,346.8,180.6z"/>
	<path d="M344.9,171c0-0.1,0-0.1,0-0.2l-5.7,0c0,0.1,0,0.1,0,0.2L344.9,171z"/>
	<path d="M413.6,170.7l-0.9,0l-5.2,0c0,0.1,0,0.2-0.1,0.3l5.2,0l0.9,0C413.5,170.9,413.6,170.8,413.6,170.7z"/>
	<path d="M412.7,160.9l-3.4,0c0,0.1,0,0.2-0.1,0.3l3.4,0l2.6,0c0-0.1,0-0.2,0.1-0.3L412.7,160.9z"/>
	<path d="M343,161.2c0-0.1,0-0.1,0-0.2l-5.7,0c0,0,0,0.1,0,0.1L343,161.2z"/>
	<path d="M341,151.4c0-0.1,0-0.1,0-0.2l-5.7,0c0,0,0,0.1,0,0.1L341,151.4z"/>
	<path d="M412.7,151.1l-1.6,0c0,0.1,0,0.2-0.1,0.3l1.6,0l4.4,0c0-0.1,0-0.2,0.1-0.3L412.7,151.1z"/>
	<path d="M339.1,141.6c0-0.1,0-0.1,0-0.2l-5.6,0c0,0,0,0.1,0,0.1L339.1,141.6z"/>
	<path d="M412.9,141.3c0,0.1,0,0.2-0.1,0.3l6,0c0-0.1,0-0.2,0.1-0.3L412.9,141.3z"/>
	<path d="M413.8,136.8c-0.1,0.3-0.1,0.7-0.2,1l6,0c0.1-0.3,0.1-0.7,0.2-1L413.8,136.8z"/>
	<path d="M416.7,128.1l-1.1-0.9c-0.1,0.3-0.1,0.6-0.2,0.9L416.7,128.1z"/>
	<path d="M332.1,108.3c0-0.2-0.1-0.4-0.1-0.6l-5.4,0c0,0.2,0.1,0.4,0.1,0.6L332.1,108.3z"/>
	<path d="M421.2,98.7l5.9,0c0-0.1,0-0.1,0-0.2c-2.8-0.3-4.7-0.5-5.8-0.7C421.3,98.1,421.3,98.4,421.2,98.7z"/>
	<path d="M329.9,97.9l-5.3,0c0,0.2,0.1,0.4,0.1,0.6l5.3,0C330,98.3,329.9,98.1,329.9,97.9z"/>
	<path d="M392.2,283.3l-1.1-0.9l-0.9,0c0,0.3-0.1,0.6-0.1,0.9L392.2,283.3z"/>
	<path d="M358,283.2l5.7,0c0-0.3,0-0.5-0.1-0.8l-5.7,0C358,282.7,358,282.9,358,283.2z"/>
	<path d="M362.5,272.6l-5.7,0c0,0.2,0.1,0.5,0.1,0.7l5.7,0C362.6,273.1,362.5,272.9,362.5,272.6z"/>
	<path d="M355.5,263.6l5.8,0c0-0.3-0.1-0.5-0.1-0.8l-5.7,0C355.5,263.1,355.5,263.4,355.5,263.6z"/>
	<path d="M356.2,253.1l-2.3,0c0,0.2,0.1,0.5,0.1,0.7l3,0L356.2,253.1z"/>
	<path d="M399.9,253.9c0-0.3,0.1-0.6,0.1-1l-6.2,0c0,0.3-0.1,0.6-0.1,0.9L399.9,253.9z"/>
	<path d="M401.3,244.1c0-0.3,0.1-0.6,0.1-1l-6.2,0c0,0.3-0.1,0.6-0.1,0.9L401.3,244.1z"/>
	<path d="M402.8,234.4c0.1-0.3,0.1-0.6,0.2-1l-6.2,0c0,0.3-0.1,0.6-0.1,0.9L402.8,234.4z"/>
	<path d="M398.4,223.6c-0.1,0.3-0.1,0.6-0.2,0.9l6.2,0c0.1-0.3,0.1-0.7,0.2-1L398.4,223.6z"/>
	<path d="M347.5,215.1l5.8,0c0-0.2-0.1-0.5-0.1-0.7l-5.8,0C347.4,214.7,347.5,214.9,347.5,215.1z"/>
	<path d="M406.1,214.3l-6.2,0c-0.1,0.3-0.1,0.6-0.2,1l6.2,0C405.9,215,406,214.6,406.1,214.3z"/>
	<path d="M346.3,205.3l5.2,0c0-0.2-0.1-0.5-0.1-0.7l-5.1,0l-0.7,0c0,0.2,0.1,0.5,0.1,0.7L346.3,205.3z"/>
	<path d="M405.3,205.5l-1.2-1l-2.5,0c-0.1,0.3-0.1,0.6-0.2,1L405.3,205.5z"/>
	<path d="M346.3,195.6l3.4,0c0-0.2-0.1-0.5-0.1-0.7l-3.2,0l-2.5,0c0,0.2,0.1,0.4,0.1,0.7L346.3,195.6z"/>
	<path d="M341.9,185.1c0,0.2,0.1,0.4,0.1,0.7l4.2,0l1.5,0c0-0.2-0.1-0.5-0.1-0.7l-1.4,0L341.9,185.1z"/>
	<path d="M340.2,176l5.7,0c0-0.2-0.1-0.5-0.1-0.7l-5.7,0C340.1,175.5,340.1,175.8,340.2,176z"/>
	<path d="M412.6,176.2c0.1-0.3,0.1-0.7,0.2-1l-0.1,0l-6,0c-0.1,0.3-0.1,0.7-0.2,1L412.6,176.2z"/>
	<path d="M343.9,165.5l-5.7,0c0,0.2,0.1,0.4,0.1,0.6l5.7,0C344,166,343.9,165.7,343.9,165.5z"/>
	<path d="M408.5,165.4c-0.1,0.3-0.1,0.7-0.2,1l4.4,0l1.7,0c0.1-0.3,0.1-0.7,0.2-1l-1.9,0L408.5,165.4z"/>
	<path d="M341.9,155.7l-5.7,0c0,0.2,0.1,0.4,0.1,0.6l5.7,0C342,156.2,342,156,341.9,155.7z"/>
	<path d="M416.1,156.6c0.1-0.3,0.1-0.7,0.2-1l-3.7,0l-2.4,0c-0.1,0.3-0.1,0.7-0.2,1l2.6,0L416.1,156.6z"/>
	<path d="M334.3,146c0,0.2,0.1,0.4,0.1,0.6l0.6,0L334.3,146z"/>
	<path d="M412.7,145.8l-0.6,0c-0.1,0.3-0.1,0.7-0.2,1l0.8,0l5.3,0c0.1-0.3,0.1-0.7,0.2-1L412.7,145.8z"/>
	<path d="M608.6,132.4c0,0.1,0,0.2,0,0.2l6.5,0c0-0.1,0-0.2-0.1-0.2L608.6,132.4z"/>
	<path d="M606.6,122.7c0,0.1,0,0.2,0,0.2l6.4,0c0-0.1,0-0.2-0.1-0.2L606.6,122.7z"/>
	<path d="M604.7,112.9c0,0.1,0,0.1,0,0.2l6.3,0c0-0.1,0-0.2-0.1-0.2L604.7,112.9z"/>
	<path d="M602.7,103.1c0,0.1,0,0.1,0,0.2l6.2,0c0-0.1,0-0.2-0.1-0.2L602.7,103.1z"/>
	<path d="M635.5,287.7c0,0.1,0,0.2,0,0.3l6.5,0c0-0.1,0-0.2,0-0.3L635.5,287.7z"/>
	<path d="M634.5,277.9c0,0.1,0,0.2,0,0.3l6.6,0c0-0.1,0-0.2,0-0.3L634.5,277.9z"/>
	<path d="M633.2,268.1c0,0.1,0,0.2,0,0.3l6.6,0c0-0.1,0-0.2,0-0.3L633.2,268.1z"/>
	<path d="M631.8,258.3c0,0.1,0,0.2,0,0.3l6.6,0c0-0.1,0-0.2,0-0.3L631.8,258.3z"/>
	<path d="M630.3,248.5c0,0.1,0,0.2,0,0.3l6.7,0c0-0.1,0-0.2,0-0.3L630.3,248.5z"/>
	<path d="M628.7,238.7c0,0.1,0,0.2,0,0.3l6.7,0c0-0.1,0-0.2,0-0.3L628.7,238.7z"/>
	<path d="M627,229c0,0.1,0,0.2,0,0.3l6.7,0c0-0.1,0-0.2-0.1-0.3L627,229z"/>
	<path d="M625.3,219.2c0,0.1,0,0.2,0,0.3l6.7,0c0-0.1,0-0.2-0.1-0.3L625.3,219.2z"/>
	<path d="M623.6,209.9c0,0.1,0,0.2,0,0.3l6.6,0c0-0.1,0-0.2-0.1-0.3L623.6,209.9z"/>
	<path d="M621.8,200.1c0,0.1,0,0.2,0,0.3l6.6,0c0-0.1,0-0.2-0.1-0.3L621.8,200.1z"/>
	<path d="M620,190.3c0,0.1,0,0.2,0,0.3l6.6,0c0-0.1,0-0.2-0.1-0.3L620,190.3z"/>
	<path d="M618.1,180.5c0,0.1,0,0.2,0,0.3l6.6,0c0-0.1,0-0.2-0.1-0.3L618.1,180.5z"/>
	<path d="M616.2,170.7c0,0.1,0,0.2,0,0.3l6.6,0c0-0.1,0-0.2-0.1-0.3L616.2,170.7z"/>
	<path d="M614.2,161c0,0.1,0,0.2,0,0.2l6.6,0c0-0.1,0-0.2-0.1-0.3L614.2,161z"/>
	<path d="M612.3,151.2c0,0.1,0,0.2,0,0.2l6.6,0c0-0.1,0-0.2-0.1-0.3L612.3,151.2z"/>
	<path d="M616.9,141.4l-6.5,0c0,0.1,0,0.2,0,0.2l6.5,0C616.9,141.6,616.9,141.5,616.9,141.4z"/>
	<path d="M609.5,136.9c0.1,0.3,0.1,0.5,0.2,0.8l6.5,0c-0.1-0.3-0.1-0.6-0.2-0.8L609.5,136.9z"/>
	<path d="M613.9,127.1l-6.4,0c0.1,0.3,0.1,0.5,0.2,0.8l6.4,0C614.1,127.7,614,127.4,613.9,127.1z"/>
	<path d="M611.9,117.4l-6.3,0c0.1,0.3,0.1,0.5,0.2,0.8l6.3,0C612,117.9,611.9,117.6,611.9,117.4z"/>
	<path d="M603.6,107.6c0.1,0.3,0.1,0.5,0.2,0.8l6.2,0c-0.1-0.3-0.1-0.5-0.2-0.8L603.6,107.6z"/>
	<path d="M602.3,97.8c-0.2,0-0.4,0.1-0.7,0.1c0,0.2,0.1,0.5,0.1,0.7l6.1,0c-0.1-0.3-0.1-0.5-0.2-0.8L602.3,97.8z"/>
	<path d="M631,253.2l0.8,0.7l5.9,0c0-0.3-0.1-0.6-0.1-1l-6.6,0C631,253.1,631,253.1,631,253.2z"/>
	<path d="M629.4,243.2c0.1,0.3,0.1,0.6,0.1,0.9l6.7,0c-0.1-0.3-0.1-0.6-0.2-0.9L629.4,243.2z"/>
	<path d="M627.8,233.4c0.1,0.3,0.1,0.6,0.2,0.9l6.7,0c-0.1-0.3-0.1-0.6-0.2-0.9L627.8,233.4z"/>
	<path d="M632.7,223.6l-6.7,0c0.1,0.3,0.1,0.6,0.2,0.9l6.7,0C632.8,224.2,632.8,223.9,632.7,223.6z"/>
	<path d="M624.4,214.3c0.1,0.3,0.1,0.6,0.2,0.9l6.7,0c-0.1-0.3-0.1-0.6-0.2-0.9L624.4,214.3z"/>
	<path d="M629.3,204.5l-6.6,0c0.1,0.3,0.1,0.6,0.2,0.9l6.6,0C629.4,205.2,629.3,204.9,629.3,204.5z"/>
	<path d="M620.8,194.8c0.1,0.3,0.1,0.6,0.2,0.9l6.6,0c-0.1-0.3-0.1-0.6-0.2-0.9L620.8,194.8z"/>
	<path d="M619.1,185l-0.2,0c0.1,0.3,0.1,0.6,0.2,0.9l1,0L619.1,185z"/>
	<path d="M618.5,155.6l1,0.9l0.4,0c-0.1-0.3-0.1-0.6-0.2-0.9L618.5,155.6z"/>
	<path d="M611.3,145.9c0.1,0.3,0.1,0.5,0.2,0.8l6.5,0c-0.1-0.3-0.1-0.6-0.2-0.9L611.3,145.9z"/>
</g>
</svg>
