<?xml version="1.0" encoding="utf-8"?>
<!-- Generator: Adobe Illustrator 25.3.0, SVG Export Plug-In . SVG Version: 6.00 Build 0)  -->
<svg version="1.1" id="Layer_1" xmlns="http://www.w3.org/2000/svg" xmlns:xlink="http://www.w3.org/1999/xlink" x="0px" y="0px"
	 viewBox="0 0 750.2 400.1" style="enable-background:new 0 0 750.2 400.1;" xml:space="preserve">
<path d="M326.1,77.4c-10.5-5.6-23.3-11.3-38.2-16.9l1.6,5.5c0.1,0.3,0.1,0.6,0.2,0.9c1,4.5,2.1,16.3,2.7,23.4l0.2,2.3
	c0.8,8.8,0.9,15.4,1,22.4c0.1,3.2,0.1,6.6,0.2,10.1c0.4,11.5,2.3,17.4,3.7,20.4c0.9,1.8,1.9,3.1,3,3.8l0.2,0.1l1.4,20.7
	c0.2,0.1,0.3,0.3,0.4,0.5l0.1,0.1c0.1,0.1,0.1,0.2,0.1,0.4l12,199.8H353c1.3-16.7,4-52.8,5.2-94.4C360,224,359.6,152,348.9,107
	C345.9,94.3,337.6,83.5,326.1,77.4z M117.8,60.3C117.8,60.3,117.9,60.3,117.8,60.3c0.1-0.1,0.1-0.1,0.1-0.2L117.8,60.3z M116.6,60.6
	c0,0.1,0,0.1-0.1,0.2h0.1V60.6z M90,373H52c0.3,3.3,0.5,5.6,0.6,6.8h37.1L90,373L90,373L90,373z M154.5,262.7
	c-0.8,3.5-7.5,32.6-14.5,45.7c-6.8,12.8-14.1,21-15.1,22.1l5.2,24.6c4.1,0.2,8.5,0.5,13,0.7c21.1,1.1,45.6,2.1,59.3,2.1
	c17.1,0,50.8-1.7,73.9-2.9l5.2-24.5c-1.1-1.2-8.3-9.3-15.1-22.1c-7-13-13.7-42.2-14.5-45.7c-2.9,0.5-23.9,3.7-48.5,3.7l0,0
	c-0.1,0-0.1,0-0.2,0c-0.1,0-0.1,0-0.2,0l0,0C178.4,266.3,157.5,263.1,154.5,262.7z M300,150c-1.2-0.9-2.2-2.2-3.2-4
	c-1.5-3-3.4-9.1-3.9-20.8c-0.1-3.6-0.2-6.9-0.2-10.1c-0.1-7-0.2-13.6-1-22.3l-0.2-2.3c-0.6-7-1.7-18.8-2.7-23.3
	c-0.7-3.2-1.3-5.3-2.1-7v-0.1c-4.1-1.5-8.4-3.1-12.8-4.6L274,55c-1.5-0.2-4.3,0-8.8,2.3c-1.4,0.8-3,1.7-4.8,2.9
	c-2,1.3-4.4,2.7-7,4.1l-6.1,3.1l-9,3.5c-19.4,29.9-9,101-8.9,101.9l0.1,0.6h-10.1V173c-0.1-0.8-6.8-67,11.2-99.8c0,0,0,0,0-0.1
	c-5,1.1-10.1,1.9-15.7,2.3l-11,8.6c-0.2,0.1-0.4,0.2-0.6,0.2s-0.5-0.1-0.6-0.2L192,75.3c-4.7-0.3-9.2-0.9-13.5-1.8
	c17.8,32.8,11.1,98.6,11,99.3v0.4h-10.1l0.1-0.6c0.1-0.8,10.3-70.7-8.3-101c-0.9-0.3-1.9-0.6-2.8-0.9l-9.6-3.9
	c-1.8-0.9-3.5-1.7-5.1-2.6l-0.4-0.2c-0.1-0.1-0.2-0.1-0.3-0.2l-0.4-0.2c-2.2-1.2-4.1-2.4-5.9-3.5c-1.8-1.1-3.4-2.1-4.8-2.9
	c-7.5-4-10.2-1.9-10.2-1.8c-0.2,0.2-0.6,0.3-0.9,0.2c-0.2,0-0.3-0.1-0.5-0.2l0.1,0.3c-4.3,1.5-8.4,3-12.4,4.5
	c-0.6,1.8-1.2,3.8-1.8,6.8c-1,4.4-2,16.2-2.7,23.2l-0.2,2.3c-0.8,8.8-0.9,15.4-1,22.3c-0.1,3.2-0.1,6.6-0.2,10.1
	c-0.4,11.7-2.3,17.8-3.9,20.8c-0.9,1.8-2,3.2-3.2,4l-1.4,20.2l-0.1,0.1h0.2c0.2,0,0.3,0.1,0.5,0.2c0.2,0.2,0.3,0.5,0.3,0.8l0.1,76.5
	l0.3,0.1l0.1,105.9c0.5,0,1.4,0.1,2.6,0.2c2,0.1,4.8,0.3,8.4,0.5c3.8,0.2,8.4,0.5,13.4,0.7l-5.2-24.8l0.1-0.1
	c0.1-0.1,7.8-8.4,15.1-22.1s14.4-45.5,14.5-45.8l0.1-0.3l0.4,0.1c0.2,0,22.5,3.7,48.9,3.8c26.5,0,48.7-3.7,48.9-3.8l0.4-0.1l0.1,0.3
	c0.1,0.3,7.1,32.1,14.5,45.8c7.3,13.7,15.1,22,15.1,22.1l0.1,0.1l-5.2,24.7c9.1-0.5,16.5-0.9,20.4-1.1c1.2-0.1,2.1-0.1,2.6-0.2
	l0.2-106.8c0.1,0,0.2,0,0.3,0.1v-4.6l0.2-71.3c0-0.4,0.2-0.7,0.6-0.9l-0.1-1.1L300,150z M102.6,168.6l1.3-19.4l0.2-0.1
	c1.1-0.7,2.1-2,3-3.8c1.5-3,3.3-8.9,3.7-20.4c0.1-3.6,0.2-6.9,0.2-10.1c0.1-7,0.2-13.6,1-22.4l0.2-2.3c0.6-7.1,1.7-18.9,2.7-23.4
	c0.6-2.5,1.1-4.4,1.6-5.9c-14.6,5.5-27.3,11.1-37.6,16.6C67.3,83.5,59,94.3,56,107c-10.7,45-11,117-9.4,169.5
	c1.3,41.5,3.9,77.7,5.2,94.4H90l0,0l0.2,0.1l12.1-199.9c0-0.2,0.1-0.4,0.3-0.6V170l0,0l-0.1-0.2L102.6,168.6z M287.9,60.5
	L287.9,60.5L287.9,60.5L287.9,60.5z M202.2,374.1c-0.5,0-1.1,0-1.6,0c-19.7,0-36.8-4.5-51.6-9.1c-11.1-0.7-20-1.4-26.9-2.1
	c8.1,1.9,17.1,5.1,27.1,8.2c14.8,4.6,31.8,9,51.3,9c0.5,0,1.1,0,1.6,0c19-0.3,35.1-4.6,49.3-9.1c8.7-2.7,16.6-5.4,24-7.3
	c-6.8,0.6-15.1,1.1-24.6,1.5C236.8,369.6,220.8,373.8,202.2,374.1z M276.8,355.6c-23.1,1.3-57.2,3-74.5,3c-26.2,0-91.1-3.8-97.5-4.2
	v5.4c0.2,0,0.6,0.1,1,0.2c1,0.2,2.4,0.4,4.3,0.6c3.9,0.5,9.7,1.2,17.6,1.9c15.8,1.4,39.7,2.8,72.5,2.8c57.4,0,91.1-3.9,98.6-4.8
	c0.5-0.1,0.9-0.1,1.2-0.2v-6c-2.3,0.1-11.2,0.7-23,1.3C276.9,355.6,276.8,355.6,276.8,355.6z M632.8,355.2
	c-11.2,0.6-23.5,5.2-37.8,9.7c-14.2,4.5-30.5,8.9-49.6,9.1c-0.5,0-1.1,0-1.6,0c-19.6,0-36.8-4.5-51.6-9.1
	c-14.8-4.6-27.4-9.3-37.9-9.9c-3.9-0.2-5.6-0.4-6.4-0.5v6.1c0.1,0,0.3,0.1,0.6,0.1c0.9,0.1,2.6,0.3,5.9,0.5
	c10.7,0.6,23.3,5.4,38.1,10c14.8,4.6,31.8,9,51.3,9c0.5,0,1.1,0,1.6,0c19-0.2,35.1-4.6,49.3-9.1s26.5-9.1,38-9.7
	c7.2-0.4,9.7-0.7,10.4-0.9v-6.1c-0.2,0-0.6,0.1-1.1,0.2C640.6,354.6,637.9,354.9,632.8,355.2z M142.7,55.5c1.5,0.8,3.1,1.8,4.9,2.9
	c2.9,1.8,6.4,3.9,10.5,6l9.6,4.1c0.5,0.2,1.1,0.4,1.6,0.5c-0.1-0.1-0.2-0.3-0.3-0.4c-1.9-2.5-4.1-4.7-6.6-6.4l-0.4-0.3l0.3-0.4
	c0.1-0.1,1.3-1.8,3.3-1.8c1.5,0,2.9,0.8,4.3,2.6c2.7,2.4,5,5.3,7.1,8.6c0.1,0.1,0.1,0.3,0.2,0.4c3.8,0.9,7.8,1.5,12,1.9
	c-3.3-2.7-7-5.5-10.9-8.4c-4-3-8.2-6.1-12.2-9.3H166c-0.2-0.2-0.4-0.4-0.5-0.5c-12.2-9.9-22.9-20.9-24.9-33.9
	c-14.3,14.5-10.6,28.6-9.2,32.4C133,52.6,136.6,52.2,142.7,55.5z M142.6,18.5c0-0.1,0.1-0.2,0.1-0.4L142.6,18.5z M202.9,21.9
	c27.7,0,59.9,3.4,60.2,3.4v0.2c0.8-2.2,1.3-4.5,1.4-6.8l-0.7-0.4c0,0.3,0.1,0.5,0.2,0.6c-0.6-0.6-6.8-3.3-65.4-3.3
	c-48.6,0-55.2,2.2-56.1,3l-0.2,0.5c0.2,1.8,0.5,3.5,1,5.2C150.5,23.8,178.8,21.9,202.9,21.9z M242.6,53.9c-0.5,0.4-0.9,0.8-1.4,1.1
	c-4.1,3.3-8.3,6.5-12.4,9.5c-3.9,2.9-7.6,5.7-10.9,8.4c5-0.5,9.7-1.3,14.3-2.4l0,0c2-3.2,4.3-6,7-8.3c1.3-1.7,2.7-2.5,4.2-2.5
	c2,0,3.3,1.8,3.3,1.8l0.3,0.4l-0.4,0.3c-2.2,1.5-4.2,3.4-6,5.6l7.2-2.9c4.7-2.2,8.5-4.6,11.7-6.5c1.9-1.1,3.5-2.1,4.9-2.9
	c6.2-3.3,9.7-2.9,11.4-2.2c1.4-3.8,5.2-17.8-9.2-32.4C264.5,33.5,254.3,44.2,242.6,53.9z M244.2,49.9c8-7,14.9-14.4,18.3-22.6
	c-4.1-0.4-33.8-3.3-59.5-3.3c-23.6,0-51,1.8-58.8,2.4c3.1,8.2,9.8,15.7,17.7,22.6C182.5,46,219.7,43.4,244.2,49.9z M315.3,379.7h37
	c0.1-1.2,0.3-3.5,0.6-6.8h-38L315.3,379.7z M519,46.3c8.8-0.1,18.1,0,27.2,0.1c11.4,0.1,22.2,0.3,31.9,0
	c14.9-0.4,27.8-5.9,32.1-13.7c2.1-3.8,2-8-0.3-12.1c-7.9-5.5-96.3-6.5-118.6,0.2c-0.8,0.9-3.6,4.8-2.6,11.2
	C489.3,36.4,501.8,46.5,519,46.3z M660.9,379.7H698c0.1-1.2,0.3-3.5,0.6-6.8h-38L660.9,379.7z M447.7,170.7l-0.1-1.6l-0.2-20.9
	l0.2-0.2c0.2-0.1,0.2-0.1,0.4-0.6c0.2-0.4,0.4-1.1,1-2.2c1.5-3,3.3-8.9,3.7-20.4c0.1-3.6,0.2-6.9,0.2-10.1c0.1-7,0.2-13.6,1-22.4
	c0.5-5.8,1.8-16.4,2.9-21.7c0.7-3.2,1.7-6.5,2.7-9.1c-1.4,0.5-2.8,1.1-4.2,1.6l1-0.4c-1.1,0.4-2.3,0.9-3.4,1.3
	c-10.9,4.4-20.6,8.8-28.6,13.1c-11.5,6.2-19.8,17-22.9,29.6c-10.7,45-11,117-9.4,169.5c1.3,41.5,3.9,77.7,5.2,94.4h38.2v0.3h0.1h0.1
	L447.7,170.7L447.7,170.7L447.7,170.7z M397.4,372.7c0.3,3.3,0.5,5.6,0.6,6.8h37.1l0.4-6.5l-2.4-0.3H397.4z M647,148.1
	c-0.1-0.4-0.4-1-1-2.2c-1.5-3-3.4-9.1-3.9-20.8c-0.1-3.6-0.2-6.9-0.2-10.1c-0.1-7-0.2-13.6-1-22.3c-0.7-7.2-1.9-16.9-2.9-21.5
	c-0.8-3.6-2-7.5-3.2-10.1c-3.8-1.4-7.8-2.9-11.8-4.3c-1.4,0.3-4.5,1.3-7,4.1c-0.7,0.9-2,4.5-3.5,8.6c-0.4,1.3-0.9,2.6-1.4,4
	l-0.3,1.1l-0.1-0.1c-4.7,13-12.1,30.9-24.8,41.2c-0.1,0.1-0.1,0.1-0.2,0.1c-9.8,4.9-28.6,5.6-34.2,5.6c0,0-0.1,0-0.2,0
	c-0.1,0-0.3,0-0.6,0c-0.2,0-0.4,0-0.6,0c-0.1,0-0.2,0-0.2,0c-5.6-0.1-24.3-0.7-34.2-5.6c-0.1,0-0.1-0.1-0.2-0.1
	c-14.4-11.7-22-33.4-26.6-46.3c-0.1-0.3-0.2-0.6-0.3-1l-0.3-1c-1.2-3.3-2.2-6-2.8-6.7c-3.3-3.9-7.7-4.3-7.8-4.3
	c-0.4,0-0.7-0.2-0.9-0.5c0,0-0.1-0.2-0.3-0.5c-4.4,1.5-8.7,3-12.9,4.6c-0.4,0.1-0.8,0.3-1.2,0.4l0.3-0.1c-0.6,0.2-1.3,0.5-1.9,0.7
	c-1.2,2.6-2.3,6.4-3.1,9.8c-1,4.7-2.2,14.4-2.9,21.6c-0.8,8.8-0.9,15.4-1,22.3c-0.1,3.2-0.1,6.6-0.2,10.1
	c-0.4,11.7-2.3,17.8-3.9,20.8c-0.6,1.1-0.8,1.8-1,2.2s-0.2,0.6-0.5,0.9l0.2,21.2l-0.8,183.3c0.1,0,0.3,0.1,0.6,0.1
	c0.9,0.1,2.6,0.3,5.9,0.5c10.7,0.6,23.3,5.4,38.1,10c14.8,4.6,31.8,9,51.3,9c0.5,0,1.1,0,1.6,0c19-0.2,35.1-4.6,49.3-9.1
	s26.5-9.1,38-9.7c7.2-0.4,9.7-0.7,10.4-0.9l0.2-159.5l0.2-1c1-18.9,1.2-21.5,1.3-22c0,0,0,0,0-0.1c0,0,0,0,0-0.1v-0.3h0.3
	c0.1-0.1,0.3-0.1,0.4-0.2l1.9-21.4C647.2,148.7,647.1,148.5,647,148.1z M460.8,61L460.8,61c0.1-0.1,0.1-0.2,0.1-0.2L460.8,61z
	 M459.6,61.3c0,0.1,0,0.1-0.1,0.2c0,0,0,0,0.1,0V61.3z M634.8,61.1L634.8,61.1L634.8,61.1z M694.5,107c-3-12.7-11.3-23.5-22.9-29.6
	c-9.3-5-20.4-10-33.2-14.9c-0.8-0.3-1.6-0.6-2.4-0.9c1.1,2.6,2.2,6.1,2.9,9.4c1.2,5.3,2.4,15.8,2.9,21.7c0.8,8.8,0.9,15.4,1,22.4
	c0.1,3.2,0.1,6.6,0.2,10.1c0.4,11.5,2.3,17.4,3.7,20.4c0.6,1.2,0.8,1.8,1,2.2s0.2,0.4,0.4,0.6l0.2,0.1l-1.9,22.3l0.1,0.1h-0.1
	c0.1,0.1,0.1,0.3,0.2,0.4l13.7,199.5h38.3c1.3-16.7,4-52.8,5.2-94.4C705.6,224,705.2,152,694.5,107z M487.3,59.3c1,1.1,2,4,3.9,9.4
	c4.5,12.7,11.9,33.8,25.7,45.2c9.7,4.8,29.1,5.3,33.6,5.3c3.7,0,24-0.4,34-5.3c13.8-11.3,21.3-32.5,25.7-45.2
	c1.9-5.4,2.9-8.2,3.9-9.4c2.7-3.1,6-4.3,7.8-4.8l0.1-0.3c0.2,0.1,0.3,0.1,0.5,0.2c0.4-1.6,1.1-5.6,0.5-10.8
	c-0.9-7.3-4.1-13.8-9.5-19.4c0.7,3.3,0.2,6.6-1.5,9.7c-4.8,8.6-18.2,14.5-34.1,14.9c-9.8,0.3-20.6,0.1-32,0
	c-9.1-0.1-18.4-0.2-27.2-0.1c-0.2,0-0.4,0-0.6,0c-18.1,0-31.2-10.6-32-16.2c-0.5-3.1-0.2-5.7,0.4-7.7c-15,14.5-9.6,27.1-8.3,29.7
	C480.1,54.6,484.1,55.6,487.3,59.3z M166.1,55.2c-0.2-0.2-0.4-0.3-0.6-0.5C165.7,54.9,165.8,55.1,166.1,55.2z M188.5,172.3
	c0.6-6.7,7.6-85.6-19.5-109.4c-1.2-1.5-2.4-2.3-3.5-2.3c-1,0-1.8,0.6-2.2,1c12.6,9,19.4,30.4,20,63.5c0.4,22.7-2.3,43.5-2.8,47.1
	L188.5,172.3L188.5,172.3z M245.5,61.7c-0.4-0.4-1.2-1-2.2-1l0,0c-1.1,0-2.3,0.7-3.4,2.2c-27.1,23.9-20.2,102.8-19.5,109.5h8
	c-0.5-3.7-3.3-24.5-2.8-47.1C226.1,92,232.9,70.7,245.5,61.7z"/>
</svg>
