<?xml version="1.0" encoding="utf-8"?>
<!-- Generator: Adobe Illustrator 25.3.0, SVG Export Plug-In . SVG Version: 6.00 Build 0)  -->
<svg version="1.1" id="Layer_1" xmlns="http://www.w3.org/2000/svg" xmlns:xlink="http://www.w3.org/1999/xlink" x="0px" y="0px"
	 viewBox="0 0 750.2 400.1" style="enable-background:new 0 0 750.2 400.1;" xml:space="preserve">
<path d="M358.2,188.9c-0.2-5.7-0.5-11.3-0.9-16.8c-0.3-5.6-0.7-11-1.2-16.4c-0.6-7.2-1.4-14.1-2.3-20.8s-1.9-13.1-3.1-19.1
	c-0.6-3-1.2-5.9-1.9-8.7c-0.4-1.6-0.8-3.1-1.4-4.7c-0.5-1.5-1.2-3-1.8-4.5c-0.3-0.7-0.7-1.4-1.1-2.1c-0.8-1.4-1.6-2.8-2.5-4.1
	c-0.5-0.7-0.9-1.3-1.4-1.9c-3.9-5-8.8-9.3-14.6-12.3c-10.5-5.6-23.3-11.3-38.2-16.9l1.6,5.5c0.1,0.3,0.1,0.6,0.2,0.9
	c1,4.5,2.1,16.3,2.7,23.4l0.2,2.3c0.8,8.8,0.9,15.4,1,22.4c0.1,3.2,0.1,6.6,0.2,10.1c0.4,11.5,2.3,17.4,3.7,20.4
	c0.9,1.8,1.9,3.1,3,3.8l0.2,0.1l1.4,20.7c0.2,0.1,0.3,0.3,0.4,0.5l0.1,0.1c0.1,0.1,0.1,0.2,0.1,0.4l12,199.8H353
	c1.3-16.7,4-52.8,5.2-94.4c0.3-9.8,0.6-20.4,0.7-31.3c0.2-12.7,0.1-26-0.2-39.2C358.6,200.3,358.5,194.6,358.2,188.9z M117.8,60.3
	c0.1-0.1,0.1-0.1,0.1-0.2L117.8,60.3z M116.6,60.6c0,0.1,0,0.1-0.1,0.2h0.1V60.6z M90.1,373L90.1,373H52c0.1,1.6,0.3,3,0.4,4.1
	c0,0.3,0,0.6,0.1,0.8c0,0.4,0.1,0.7,0.1,1.1c0,0.2,0,0.3,0,0.4s0,0.3,0,0.4h37.1l0,0l0,0l0,0L90.1,373L90.1,373L90.1,373z M300,150
	c-0.1-0.1-0.1-0.1-0.2-0.2l0,0c-0.3-0.2-0.5-0.4-0.8-0.7c-0.8-0.8-1.5-1.8-2.2-3.1c-1.5-3-3.4-9.1-3.9-20.8
	c-0.1-3.6-0.2-6.9-0.2-10.1c-0.1-7-0.2-13.6-1-22.3l-0.2-2.3c-0.6-7-1.7-18.8-2.7-23.3c-0.7-3.2-1.3-5.3-2.1-7v-0.1
	c-0.4-0.1-0.8-0.3-1.2-0.5l0,0c-2.3-0.9-4.7-1.7-7.1-2.6c-0.9-0.3-1.8-0.7-2.8-1l-0.1-0.3l-1.6-0.5L274,55c-0.1,0-0.3,0-0.5,0
	c-0.1,0-0.3,0-0.5,0l-13.6-4.7c0,0,1.8,7.3-6.2,13.4c0.3,0.1,0.5,0.1,0.8,0.2c-0.3,0.1-0.5,0.3-0.8,0.4l-3.6,1.8l0,0l-2.5,1.3
	l-9,3.5l-7.6,2.2c-4.8,1.1-13.4,2.2-18.9,2.7l-0.1,0.5L208,92.2l-0.7,3.2h-0.1v262.3c18.2-0.3,48.1-1.7,69.1-2.9h0.8
	c9-0.5,16.3-0.9,20.2-1.1c1.2-0.1,2.1-0.1,2.6-0.2l0.2-106.8c0.1,0,0.2,0,0.3,0.1v-4.6l0.1-47.2l0.3-0.5l0.1-23.6
	c0-0.4,0.2-0.7,0.6-0.9l-0.1-1.1L300,150z M103.9,149.2l0.2-0.1c1.1-0.7,2.1-2,3-3.8c1.5-3,3.3-8.9,3.7-20.4
	c0.1-3.6,0.2-6.9,0.2-10.1c0.1-7,0.2-13.6,1-22.4l0.2-2.3c0.6-7.1,1.7-18.9,2.7-23.4c0.6-2.5,1.1-4.4,1.6-5.9
	c-14.6,5.5-27.3,11.1-37.6,16.6c-8,4.2-14.4,10.6-18.6,18.3c-0.4,0.7-0.7,1.4-1.1,2.1c-0.7,1.4-1.3,2.9-1.8,4.5
	c-0.5,1.5-1,3.1-1.4,4.7c-0.3,1.4-0.7,2.8-1,4.3c-1.3,5.8-2.4,12.1-3.3,18.6c-0.5,3.3-0.9,6.6-1.3,10c-0.4,3.4-0.8,6.9-1.1,10.4
	c-0.2,1.8-0.3,3.5-0.5,5.3c-0.9,10.8-1.6,21.9-2.1,33.3c-1.2,30.2-0.9,61.3-0.1,87.6c0.3,9.1,0.6,17.9,1,26.3
	c0.2,4.8,0.4,9.5,0.7,14c0.1,1.1,0.1,2.3,0.2,3.4c0.8,15.5,1.7,29.1,2.5,39.3c0.1,1.5,0.2,2.9,0.3,4.2c0.2,2.7,0.4,5.1,0.5,7.1H90
	l0.2,0.1L102.3,171c0-0.2,0.1-0.4,0.3-0.6V170l-0.1-0.2l0.1-1.2L103.9,149.2z M250.8,365.2c-14,4.4-30,8.6-48.6,8.9
	c-0.5,0-1.1,0-1.6,0c-19.7,0-36.8-4.5-51.6-9.1c-1.4-0.1-2.7-0.2-4.1-0.3c-6.6-0.4-12.3-0.9-17.3-1.3c-1-0.1-1.9-0.2-2.9-0.3
	c-0.9-0.1-1.8-0.2-2.7-0.3l0,0l0,0c1,0.2,2,0.5,3.1,0.8c0.9,0.2,1.8,0.5,2.8,0.8c1.6,0.5,3.3,1,5,1.5c1.3,0.4,2.6,0.8,3.9,1.2
	c1.4,0.4,2.8,0.9,4.2,1.3c0.6,0.2,1.3,0.4,1.9,0.6c0.4,0.1,0.8,0.2,1.1,0.4c0.4,0.1,0.8,0.3,1.2,0.4l0,0l0,0c0.1,0,0.2,0.1,0.4,0.1
	c1.2,0.4,2.3,0.7,3.5,1.1c14.8,4.6,31.8,9,51.3,9c0.5,0,1.1,0,1.6,0c1.6,0,3.1-0.1,4.6-0.2s3-0.2,4.5-0.3c1-0.1,2-0.2,2.9-0.3
	c1.9-0.2,3.9-0.4,5.7-0.7c1.9-0.3,3.7-0.6,5.6-0.9c2.1-0.4,4.1-0.8,6.1-1.3c2-0.4,4-0.9,5.9-1.4c2.9-0.8,5.7-1.6,8.5-2.4
	c1.8-0.5,3.6-1.1,5.4-1.7c1.1-0.3,2.2-0.7,3.2-1c1.3-0.4,2.5-0.8,3.8-1.2c6-1.9,11.6-3.7,17-5.1l0,0l0,0
	C268.6,364.3,260.3,364.8,250.8,365.2z M632.8,355.2c-11.2,0.6-23.5,5.2-37.8,9.7c-12.4,3.9-26.5,7.8-42.6,8.8
	c-2.3,0.1-4.6,0.2-7,0.3c-0.5,0-1.1,0-1.6,0c-9.8,0-19-1.1-27.6-2.8c-8.6-1.7-16.6-4-24-6.3c-12-3.7-22.6-7.5-31.8-9.2
	c-2.1-0.4-4.2-0.6-6.1-0.7s-3.3-0.2-4.3-0.3h-0.1c-0.5,0-0.9-0.1-1.2-0.1c-0.3,0-0.6-0.1-0.8-0.1l0,0v6.1l0,0l0,0
	c0.1,0,0.3,0.1,0.6,0.1c0.3,0,0.8,0.1,1.4,0.1c0.2,0,0.4,0,0.7,0.1c1,0.1,2.2,0.2,3.9,0.3c10.7,0.6,23.3,5.4,38.1,10
	c14.8,4.6,31.8,9,51.3,9c0.5,0,1.1,0,1.6,0c19-0.2,35.1-4.6,49.3-9.1c1.8-0.6,3.5-1.1,5.2-1.7s3.4-1.1,5.1-1.6
	c3.3-1.1,6.6-2.1,9.7-3c1.6-0.4,3.1-0.9,4.7-1.2c2.3-0.6,4.6-1,6.8-1.4c1.1-0.2,2.2-0.3,3.3-0.5s2.2-0.2,3.3-0.3
	c0.4,0,0.7,0,1.1-0.1h0.1l0,0c0,0,0,0,0.1,0s0.1,0,0.2,0c0,0,0,0,0.1,0l0,0c0.1,0,0.2,0,0.3,0c0.2,0,0.3,0,0.5,0c0.1,0,0.2,0,0.2,0
	l0,0l0,0c0.3,0,0.7,0,1-0.1c0.3,0,0.6,0,0.9-0.1c0.1,0,0.1,0,0.2,0c0.2,0,0.4,0,0.6,0c0.1,0,0.1,0,0.2,0c0.3,0,0.5,0,0.7-0.1
	c0.5,0,1-0.1,1.4-0.1s0.7-0.1,1-0.1c0.7-0.1,1.2-0.1,1.5-0.2c0.1,0,0.1,0,0.2,0c0.1,0,0.1,0,0.2,0v-6.1l0,0c-0.2,0-0.6,0.1-1.1,0.2
	C640.6,354.6,637.9,354.9,632.8,355.2z M314.9,372.9v0.8l0.3,5.9l0,0l0,0h37c0.1-1.2,0.3-3.5,0.6-6.8l0,0L314.9,372.9L314.9,372.9z
	 M660.6,372.9l0.3,6.8H698c0.1-1.2,0.3-3.5,0.6-6.8l0,0H660.6L660.6,372.9z M435.4,370.9L435.4,370.9h0.2l12.1-200.1v-0.1l0,0
	l-0.1-1.6l-0.2-20.9l0.2-0.2c0.2-0.1,0.2-0.1,0.4-0.6c0.2-0.4,0.4-1.1,1-2.2c1.5-3,3.3-8.9,3.7-20.4c0.1-3.6,0.2-6.9,0.2-10.1
	c0.1-7,0.2-13.6,1-22.4c0.5-5.8,1.8-16.4,2.9-21.7c0.7-3.2,1.7-6.5,2.7-9.1c0,0,0,0,0.1,0v-0.2c0,0.1,0,0.1-0.1,0.2
	c-1.4,0.5-2.8,1.1-4.2,1.6l1-0.4c-1.1,0.4-2.3,0.9-3.4,1.3c-10.9,4.4-20.6,8.8-28.6,13.1c-11.5,6.2-19.8,17-22.9,29.6
	c-10.7,45-11,117-9.4,169.5c1.3,41.5,3.9,77.7,5.2,94.4h38.2L435.4,370.9L435.4,370.9z M645.2,169.9l1.9-21.4c0.1,0.2,0,0-0.1-0.4
	s-0.4-1-1-2.2c-1.5-3-3.4-9.1-3.9-20.8c-0.1-3.6-0.2-6.9-0.2-10.1c-0.1-7-0.2-13.6-1-22.3c-0.7-7.2-1.9-16.9-2.9-21.5
	c-0.8-3.6-2-7.5-3.2-10.1c-1.6-0.6-3.3-1.2-4.9-1.8v-0.1c-1.4-0.5-2.9-1.1-4.4-1.6v-0.1l-1-0.3c-0.5-0.2-1.1-0.4-1.6-0.6h-0.1
	l-10.3-3.2l-1-0.1l0,0l-26-4.8h-1c-13.7-1.9-40.2-2-40.2-2s-22.8,0.2-34.5,1.8l-4.5,0.2l-15.6,3l-13,4c0-0.1-0.1-0.1-0.1-0.2
	c-4.4,1.5-8.7,3-12.9,4.6c-0.4,0.1-0.8,0.3-1.2,0.4l0.3-0.1c-0.6,0.2-1.3,0.5-1.9,0.7c-1.2,2.6-2.3,6.4-3.1,9.8
	c-1,4.7-2.2,14.4-2.9,21.6c-0.8,8.8-0.9,15.4-1,22.3c-0.1,3.2-0.1,6.6-0.2,10.1c-0.4,11.7-2.3,17.8-3.9,20.8c-0.6,1.1-0.8,1.8-1,2.2
	s-0.2,0.6-0.5,0.9l0.2,21.2l-0.8,183.3c0,0,0.1,0,0.2,0v0.1c0.1,0,0.3,0.1,0.6,0.1c0.9,0.1,2.6,0.3,5.9,0.5
	c10.7,0.6,23.3,5.4,38.1,10c14.8,4.6,31.8,9,51.3,9c0.5,0,1.1,0,1.6,0c19-0.2,35.1-4.6,49.3-9.1s26.5-9.1,38-9.7
	c7.2-0.4,9.7-0.7,10.4-0.9l0.2-159.5l0.2-1c1.1-21.7,1.2-21.9,1.4-22.1l-0.1-0.5h0.1C644.9,170,645.1,170,645.2,169.9z M460.8,61
	c0.1-0.1,0.1-0.2,0.1-0.2L460.8,61z M695.5,111.3c-0.3-1.5-0.6-2.9-1-4.3c-0.4-1.6-0.8-3.1-1.4-4.7c-0.5-1.5-1.2-3-1.8-4.5
	c-0.3-0.7-0.7-1.4-1.1-2.1c-0.8-1.4-1.6-2.8-2.5-4.1c-1.8-2.6-3.9-5.1-6.2-7.2c-2.9-2.7-6.2-5.1-9.8-7c-9.3-5-20.4-10-33.2-14.9
	c-0.8-0.3-1.6-0.6-2.4-0.9c1.1,2.6,2.2,6.1,2.9,9.4c1.2,5.3,2.4,15.8,2.9,21.7c0.8,8.8,0.9,15.4,1,22.4c0.1,3.2,0.1,6.6,0.2,10.1
	c0.4,11.5,2.3,17.4,3.7,20.4c0.6,1.2,0.8,1.8,1,2.2s0.2,0.4,0.4,0.6l0.2,0.1l-1.9,22.3l0.1,0.1h-0.1c0.1,0.1,0.1,0.3,0.2,0.4
	l13.7,199.5h38.3c1.3-16.7,4-52.8,5.2-94.4C705.5,225.6,705.2,156.5,695.5,111.3z M142.6,18.5c0-0.1,0.1-0.2,0.1-0.4L142.6,18.5z
	 M277,355.7h-0.2c-21.1,1.2-51.3,2.7-69.5,2.9v6.7c53.1-0.3,84.3-3.9,91.5-4.8c0.5-0.1,0.9-0.1,1.2-0.2v-6
	C297.7,354.4,288.8,355,277,355.7L277,355.7z M199,365.3v-6.7c-28-0.3-88-3.8-94.2-4.2v5.4c0.2,0,0.6,0.1,1,0.2
	c1,0.2,2.4,0.4,4.3,0.6c3.9,0.5,9.7,1.2,17.6,1.9C143.3,363.9,166.8,365.3,199,365.3z M435.5,373l-2.4-0.3h-35.7
	c0.3,3.3,0.5,5.6,0.6,6.8h0.1c0,0.1,0,0.2,0,0.3h37.1l0.4-6.8H435.5L435.5,373z M203.7,306.1v-0.2v-0.8l-1.5-0.5h-1.9v2.8h1.9
	l1.5-0.5V306.1z M203.7,311.5v-0.2v-0.8l-1.5-0.5h-1.9v2.8h1.9l1.5-0.5V311.5z M203.7,327.5v-0.2v-0.8l-1.5-0.5h-1.9v2.8h1.9
	l1.5-0.5V327.5z M203.7,322.2V322v-0.8l-1.5-0.5h-1.9v2.8h1.9l1.5-0.5V322.2z M203.7,316.8v-0.2v-0.8l-1.5-0.5h-1.9v2.8h1.9l1.5-0.5
	V316.8z M203.7,300.7v-0.2v-0.8l-1.5-0.5h-1.9v2.8h1.9l1.5-0.5V300.7z M203.7,279.3v-0.2v-0.8l-1.5-0.5h-1.9v2.8h1.9l1.5-0.5V279.3z
	 M203.7,284.6v-0.2v-0.8l-1.5-0.5h-1.9v2.8h1.9l1.5-0.5V284.6z M203.7,295.4v-0.2v-0.8l-1.5-0.5h-1.9v2.8h1.9l1.5-0.5V295.4z
	 M203.7,290v-0.2V289l-1.5-0.5h-1.9v2.8h1.9l1.5-0.5V290z M206,339.5h-2.1l-1.5,0.5v0.8v0.2v0.8l1.5,0.5h2.1V339.5z M206,323.4h-2.1
	l-1.5,0.5v0.8v0.2v0.8l1.5,0.5h2.1V323.4z M206,328.7h-2.1l-1.5,0.5v0.8v0.2v0.8l1.5,0.5h2.1V328.7z M206,318h-2.1l-1.5,0.5v0.8v0.2
	v0.8l1.5,0.5h2.1V318z M206,312.6h-2.1l-1.5,0.5v0.8v0.2v0.8l1.5,0.5h2.1V312.6z M206,307.3h-2.1l-1.5,0.5v0.8v0.2v0.8l1.5,0.5h2.1
	V307.3z M206,334.1h-2.1l-1.5,0.5v0.8v0.2v0.8l1.5,0.5h2.1V334.1z M203.7,332.9v-0.2v-0.8l-1.5-0.5h-1.9v2.8h1.9l1.5-0.5V332.9z
	 M203.7,155.9v-0.2v-0.8l-1.5-0.5h-1.9v2.8h1.9l1.5-0.5V155.9z M206,144.2h-2v0.8v0.2v0.8h2V144.2z M203.7,273.9v-0.2v-0.8l-1.5-0.5
	h-1.9v2.8h1.9l1.5-0.5V273.9z M203.7,193.4v-0.2v-0.8l-1.5-0.5h-1.9v2.8h1.9l1.5-0.5V193.4z M203.7,204.2V204v-0.8l-1.5-0.5h-1.9
	v2.8h1.9l1.5-0.5V204.2z M203.7,198.8v-0.2v-0.8l-1.5-0.5h-1.9v2.8h1.9l1.5-0.5V198.8z M203.7,209.5v-0.2v-0.8l-1.5-0.5h-1.9v2.8
	h1.9l1.5-0.5V209.5z M203.7,166.6v-0.2v-0.8l-1.5-0.5h-1.9v2.8h1.9l1.5-0.5V166.6z M203.7,172v-0.2V171l-1.5-0.5h-1.9v2.8h1.9
	l1.5-0.5V172z M203.7,161.2V161v-0.8l-1.5-0.5h-1.9v2.8h1.9l1.5-0.5V161.2z M203.7,188.1v-0.2v-0.8l-1.5-0.5h-1.9v2.8h1.9l1.5-0.5
	V188.1z M203.7,177.3v-0.2v-0.8l-1.5-0.5h-1.9v2.8h1.9l1.5-0.5V177.3z M203.7,182.7v-0.2v-0.8l-1.5-0.5h-1.9v2.8h1.9l1.5-0.5V182.7z
	 M206,301.9h-2.1l-1.5,0.5v0.8v0.2v0.8l1.5,0.5h2.1V301.9z M203.7,231v-0.2V230l-1.5-0.5h-1.9v2.8h1.9l1.5-0.5V231z M203.7,241.7
	v-0.2v-0.8l-1.5-0.5h-1.9v2.8h1.9l1.5-0.5V241.7z M203.7,252.4v-0.2v-0.8l-1.5-0.5h-1.9v2.8h1.9l1.5-0.5V252.4z M203.7,247.1v-0.2
	v-0.8l-1.5-0.5h-1.9v2.8h1.9l1.5-0.5V247.1z M203.7,263.2V263v-0.8l-1.5-0.5h-1.9v2.8h1.9l1.5-0.5V263.2z M203.7,257.8v-0.2v-0.8
	l-1.5-0.5h-1.9v2.8h1.9l1.5-0.5V257.8z M203.7,214.9v-0.2v-0.8l-1.5-0.5h-1.9v2.8h1.9l1.5-0.5V214.9z M203.7,220.3v-0.2v-0.8
	l-1.5-0.5h-1.9v2.8h1.9l1.5-0.5V220.3z M203.7,236.3v-0.2v-0.8l-1.5-0.5h-1.9v2.8h1.9l1.5-0.5V236.3z M203.7,225.6v-0.2v-0.8
	l-1.5-0.5h-1.9v2.8h1.9l1.5-0.5V225.6z M203.7,268.5v-0.2v-0.8l-1.5-0.5h-1.9v2.8h1.9l1.5-0.5V268.5z M203.7,338.3v-0.2v-0.8
	l-1.5-0.5h-1.9v2.8h1.9l1.5-0.5V338.3z M206,141h-2.1l-1.5,0.5v0.8v0.2v0.8l1.5,0.5h2.1V141z M206,135.6h-2.1l-1.5,0.5v0.8v0.2v0.8
	l1.5,0.5h2.1V135.6z M206,130.2h-2.1l-1.5,0.5v0.8v0.2v0.8l1.5,0.5h2.1V130.2z M206,119.5h-2.1l-1.5,0.5v0.8v0.2v0.8l1.5,0.5h2.1
	V119.5z M206,124.9h-2.1l-1.5,0.5v0.8v0.2v0.8l1.5,0.5h2.1V124.9z M206,167.8h-2.1l-1.5,0.5v0.8v0.2v0.8l1.5,0.5h2.1V167.8z
	 M206,114.1h-2.1l-1.5,0.5v0.8v0.2v0.8l1.5,0.5h2.1V114.1z M206,146.3h-2.1l-1.5,0.5v0.8v0.2v0.8l1.5,0.5h2.1V146.3z M206,162.4
	h-2.1l-1.5,0.5v0.8v0.2v0.8l1.5,0.5h2.1V162.4z M206,157.1h-2.1l-1.5,0.5v0.8v0.2v0.8l1.5,0.5h2.1V157.1z M206,151.7h-2.1l-1.5,0.5
	v0.8v0.2v0.8l1.5,0.5h2.1V151.7z M206,117.3h-2v0.8v0.2v0.8h2V117.3z M206,106.6h-2v0.8v0.2v0.8h2V106.6z M206,112h-2v0.8v0.2v0.8h2
	V112z M201.3,90.9c0-0.3,0.1-0.6,0.3-0.8c-0.4-0.5-0.9-1.1-1.4-1.8v4.2C200.5,91.8,200.9,91.3,201.3,90.9z M206,138.8h-2v0.8v0.2
	v0.8h2V138.8z M206,128.1h-2v0.8v0.2v0.8h2V128.1z M115.7,354.2c3.8,0.2,8.5,0.5,13.6,0.7h0.8c4,0.2,8.3,0.5,12.8,0.7
	c19.5,1,42,2,56.1,2.1V86.3c-1.7-2.9-3.2-6.5-3.3-10.5c-5.9-0.6-14-1.6-17.2-2.3l-7.4-1.8c-0.9-0.3-1.9-0.6-2.8-0.9l-0.1-0.1l-7-2.8
	v-0.1l-2.5-1c-1.8-0.9-3.5-1.7-5.1-2.6l-0.4-0.2c-0.1-0.1-0.2-0.1-0.3-0.2l-0.4-0.2c-0.3-0.1-0.5-0.3-0.8-0.4
	c-7.2-6-5.5-12.9-5.5-12.9L133,54.9c-0.6,0.1-1,0.3-1.2,0.4l-1,0.4c0,0,0,0-0.1,0c-0.2,0-0.3-0.1-0.5-0.2l0.1,0.2
	c-0.1,0-0.1-0.1-0.2-0.1l0.1,0.2c-4.3,1.5-8.3,3-12.3,4.5c-0.6,1.8-1.2,3.8-1.8,6.8c-1,4.4-2,16.2-2.7,23.2l-0.2,2.3
	c-0.8,8.8-0.9,15.4-1,22.3c-0.1,3.2-0.1,6.6-0.2,10.1c-0.4,11.7-2.3,17.8-3.9,20.8c-0.3,0.6-0.6,1.1-1,1.6c-0.7,0.9-1.5,1.7-2.4,2.5
	l-1.4,20.2c0.2,0,0.3,0.1,0.5,0.2c0.2,0.2,0.3,0.5,0.3,0.8l0.1,76.5l0.3,0.1l0.1,105.9c0.5,0,1.4,0.1,2.6,0.2
	C109.3,353.8,112.1,354,115.7,354.2z M206,173.1h-2.1l-1.5,0.5v0.8v0.2v0.8l1.5,0.5h2.1V173.1z M206,133.4h-2v0.8v0.2v0.8h2V133.4z
	 M206,122.7h-2v0.8v0.2v0.8h2V122.7z M206,108.8h-2.1l-1.5,0.5v0.8v0.2v0.8l1.5,0.5h2.1V108.8z M206,194.6h-2.1l-1.5,0.5v0.8v0.2
	v0.8l1.5,0.5h2.1V194.6z M206,253.6h-2.1l-1.5,0.5v0.8v0.2v0.8l1.5,0.5h2.1V253.6z M206,259h-2.1l-1.5,0.5v0.8v0.2v0.8l1.5,0.5h2.1
	V259z M206,248.3h-2.1l-1.5,0.5v0.8v0.2v0.8l1.5,0.5h2.1V248.3z M206,242.9h-2.1l-1.5,0.5v0.8v0.2v0.8l1.5,0.5h2.1V242.9z
	 M206,264.4h-2.1l-1.5,0.5v0.8v0.2v0.8l1.5,0.5h2.1V264.4z M206,280.5h-2.1l-1.5,0.5v0.8v0.2v0.8l1.5,0.5h2.1V280.5z M206,291.2
	h-2.1l-1.5,0.5v0.8v0.2v0.8l1.5,0.5h2.1V291.2z M206,269.7h-2.1l-1.5,0.5v0.8v0.2v0.8l1.5,0.5h2.1V269.7z M206,285.8h-2.1l-1.5,0.5
	v0.8v0.2v0.8l1.5,0.5h2.1V285.8z M206,237.5h-2.1l-1.5,0.5v0.8v0.2v0.8l1.5,0.5h2.1V237.5z M206,275.1h-2.1l-1.5,0.5v0.8v0.2v0.8
	l1.5,0.5h2.1V275.1z M206,232.2h-2.1l-1.5,0.5v0.8v0.2v0.8l1.5,0.5h2.1V232.2z M206,296.5h-2.1l-1.5,0.5v0.8v0.2v0.8l1.5,0.5h2.1
	V296.5z M206,200h-2.1l-1.5,0.5v0.8v0.2v0.8l1.5,0.5h2.1V200z M206,189.3h-2.1l-1.5,0.5v0.8v0.2v0.8l1.5,0.5h2.1V189.3z M206,183.9
	h-2.1l-1.5,0.5v0.8v0.2v0.8l1.5,0.5h2.1V183.9z M206,178.5h-2.1l-1.5,0.5v0.8v0.2v0.8l1.5,0.5h2.1V178.5z M206,205.3h-2.1l-1.5,0.5
	v0.8v0.2v0.8l1.5,0.5h2.1V205.3z M206,221.4h-2.1l-1.5,0.5v0.8v0.2v0.8l1.5,0.5h2.1V221.4z M206,226.8h-2.1l-1.5,0.5v0.8v0.2v0.8
	l1.5,0.5h2.1V226.8z M206,216.1h-2.1l-1.5,0.5v0.8v0.2v0.8l1.5,0.5h2.1V216.1z M206,210.7h-2.1l-1.5,0.5v0.8v0.2v0.8l1.5,0.5h2.1
	V210.7z M203.7,343.6v-0.2v-0.8l-1.5-0.5h-1.9v2.8h1.9l1.5-0.5V343.6z M206,337.3h-2v0.8v0.2v0.8h2V337.3z M206,331.9h-2v0.8v0.2
	v0.8h2V331.9z M206,326.6h-2v0.8v0.2v0.8h2V326.6z M202,335.4v-0.8h-1.8v1.8h1.8v-0.8V335.4z M206,342.7h-2v0.8v0.2v0.8h2V342.7z
	 M202,340.8V340h-1.8v1.8h1.8V341V340.8z M206,321.2h-2v0.8v0.2v0.8h2V321.2z M206,294.4h-2v0.8v0.2v0.8h2V294.4z M206,289h-2v0.8
	v0.2v0.8h2V289z M206,299.7h-2v0.8v0.2v0.8h2V299.7z M206,310.5h-2v0.8v0.2v0.8h2V310.5z M206,315.8h-2v0.8v0.2v0.8h2V315.8z
	 M206,305.1h-2v0.8v0.2v0.8h2V305.1z M202,271.1v-0.8h-1.8v1.8h1.8v-0.8V271.1z M202,287.1v-0.8h-1.8v1.8h1.8v-0.8V287.1z
	 M202,330.1v-0.8h-1.8v1.8h1.8v-0.8V330.1z M202,292.5v-0.8h-1.8v1.8h1.8v-0.8V292.5z M206,283.7h-2v0.8v0.2v0.8h2V283.7z
	 M202,276.4v-0.8h-1.8v1.8h1.8v-0.8V276.4z M202,297.9v-0.8h-1.8v1.8h1.8V298V297.9z M202,281.8V281h-1.8v1.8h1.8V282V281.8z
	 M202,319.3v-0.8h-1.8v1.8h1.8v-0.8V319.3z M202,303.2v-0.8h-1.8v1.8h1.8v-0.8V303.2z M202,324.7v-0.8h-1.8v1.8h1.8v-0.8V324.7z
	 M202,314v-0.8h-1.8v1.8h1.8v-0.8V314z M202,308.6v-0.8h-1.8v1.8h1.8v-0.8V308.6z M206,149.5h-2v0.8v0.2v0.8h2V149.5z M206,192.5h-2
	v0.8v0.2v0.8h2V192.5z M206,187.1h-2v0.8v0.2v0.8h2V187.1z M206,181.7h-2v0.8v0.2v0.8h2V181.7z M206,203.2h-2v0.8v0.2v0.8h2V203.2z
	 M206,176.4h-2v0.8v0.2v0.8h2V176.4z M206,208.5h-2v0.8v0.2v0.8h2V208.5z M206,197.8h-2v0.8v0.2v0.8h2V197.8z M202,265.7v-0.8h-1.8
	v1.8h1.8v-0.8V265.7z M206,154.9h-2v0.8v0.2v0.8h2V154.9z M206,165.6h-2v0.8v0.2v0.8h2V165.6z M206,171h-2v0.8v0.2v0.8h2V171z
	 M206,160.3h-2v0.8v0.2v0.8h2V160.3z M206,251.5h-2v0.8v0.2v0.8h2V251.5z M206,256.8h-2v0.8v0.2v0.8h2V256.8z M206,246.1h-2v0.8v0.2
	v0.8h2V246.1z M206,262.2h-2v0.8v0.2v0.8h2V262.2z M206,278.3h-2v0.8v0.2v0.8h2V278.3z M206,272.9h-2v0.8v0.2v0.8h2V272.9z
	 M206,267.6h-2v0.8v0.2v0.8h2V267.6z M206,213.9h-2v0.8v0.2v0.8h2V213.9z M206,219.3h-2v0.8v0.2v0.8h2V219.3z M206,224.6h-2v0.8v0.2
	v0.8h2V224.6z M206,240.7h-2v0.8v0.2v0.8h2V240.7z M206,235.4h-2v0.8v0.2v0.8h2V235.4z M206,230h-2v0.8v0.2v0.8h2V230z M202,212
	v-0.8h-1.8v1.8h1.8v-0.8V212z M202,126.2v-0.8h-1.8v1.8h1.8v-0.8V126.2z M202,136.9v-0.8h-1.8v1.8h1.8v-0.8V136.9z M202,131.6v-0.8
	h-1.8v1.8h1.8v-0.8V131.6z M202,120.8V120h-1.8v1.8h1.8V121V120.8z M200.3,105.7h1.8v-0.8v-0.2v-0.1c-0.5-0.1-1-0.3-1.4-0.7h-0.4
	L200.3,105.7L200.3,105.7z M202,115.5v-0.8h-1.8v1.8h1.8v-0.8V115.5z M202,110.1v-0.8h-1.8v1.8h1.8v-0.8V110.1z M202,163.7v-0.8
	h-1.8v1.8h1.8v-0.8V163.7z M202,158.4v-0.8h-1.8v1.8h1.8v-0.8V158.4z M202,142.3v-0.8h-1.8v1.8h1.8v-0.8V142.3z M202,169.1v-0.8
	h-1.8v1.8h1.8v-0.8V169.1z M202,147.7v-0.8h-1.8v1.8h1.8v-0.8V147.7z M202,153v-0.8h-1.8v1.8h1.8v-0.8V153z M203.7,123.7v-0.2v-0.8
	l-1.5-0.5h-1.9v2.8h1.9l1.5-0.5V123.7z M203.7,129.1v-0.2v-0.8l-1.5-0.5h-1.9v2.8h1.9l1.5-0.5V129.1z M203.7,134.4v-0.2v-0.8
	l-1.5-0.5h-1.9v2.8h1.9l1.5-0.5V134.4z M202,174.5v-0.8h-1.8v1.8h1.8v-0.8V174.5z M203.7,145.1V145v-0.8l-1.5-0.5h-1.9v2.8h1.9
	l1.5-0.5V145.1z M203.7,118.3v-0.2v-0.8l-1.5-0.5h-1.9v2.8h1.9l1.5-0.5V118.3z M203.7,139.8v-0.2v-0.8l-1.5-0.5h-1.9v2.8h1.9
	l1.5-0.5V139.8z M203.7,107.6v-0.2v-0.8l-1.5-0.5h-1.9v2.8h1.9l1.5-0.5V107.6z M200.3,103.6L200.3,103.6
	C200.4,103.6,200.3,103.5,200.3,103.6L200.3,103.6z M206,102.9C206,103,206,103,206,102.9L206,102.9L206,102.9z M203.7,113v-0.2V112
	l-1.5-0.5h-1.9v2.8h1.9l1.5-0.5V113z M206,103.4h-0.3c-0.1,0.1-0.2,0.3-0.3,0.4c-0.5,0.6-1.2,0.9-1.9,0.9h-1c0,0,0,0-0.1,0l0,0v0.2
	v0.8l1.5,0.5h2.1V103.4z M206,94.3L206,94.3v0.2V94.3z M202,238.9v-0.8h-1.8v1.8h1.8V239V238.9z M202,228.1v-0.8h-1.8v1.8h1.8v-0.8
	V228.1z M202,244.2v-0.8h-1.8v1.8h1.8v-0.8V244.2z M202,260.3v-0.8h-1.8v1.8h1.8v-0.8V260.3z M202,233.5v-0.8h-1.8v1.8h1.8v-0.8
	V233.5z M203.7,150.5v-0.2v-0.8l-1.5-0.5h-1.9v2.8h1.9l1.5-0.5V150.5z M202,222.8V222h-1.8v1.8h1.8V223V222.8z M202,217.4v-0.8h-1.8
	v1.8h1.8v-0.8V217.4z M202,179.9v-0.8h-1.8v1.8h1.8V180V179.9z M202,190.6v-0.8h-1.8v1.8h1.8v-0.8V190.6z M202,195.9v-0.8h-1.8v1.8
	h1.8v-0.8V195.9z M202,185.2v-0.8h-1.8v1.8h1.8v-0.8V185.2z M202,201.3v-0.8h-1.8v1.8h1.8v-0.8V201.3z M202,254.9v-0.8h-1.8v1.8h1.8
	v-0.8V254.9z M202,249.6v-0.8h-1.8v1.8h1.8v-0.8V249.6z M202,206.7v-0.8h-1.8v1.8h1.8v-0.8V206.7z M206,355.6h-2.1l-1.5,0.5v0.8v0.2
	v0.8l1.5,0.5h2.1V355.6z M202,356.9v-0.8h-1.8v1.8h1.8v-0.8V356.9z M200.3,361.1h1.9l1.5-0.5v-0.8v-0.2v-0.8l-1.5-0.5h-1.9V361.1z
	 M206,358.8h-2v0.8v0.2v1.1l-0.7,0.3h0.6h2.1L206,358.8L206,358.8z M206,366v-0.8l0,0v-3.8h-2.1l-1.7,0.1l0,0h-2v3.8l0,0v0.7
	L206,366L206,366z M206,350.2h-2.1l-1.5,0.5v0.8v0.2v0.8l1.5,0.5h2.1V350.2z M202,351.5v-0.8h-1.8v1.8h1.8v-0.8V351.5z M206,348h-2
	v0.8v0.2v0.8h2V348z M206,353.4h-2v0.8v0.2v0.8h2V353.4z M206,344.8h-2.1l-1.5,0.5v0.8v0.2v0.8l1.5,0.5h2.1V344.8z M203.7,354.4
	v-0.2v-0.8l-1.5-0.5h-1.9v2.8h1.9l1.5-0.5V354.4z M203.7,349v-0.2V348l-1.5-0.5h-1.9v2.8h1.9l1.5-0.5V349z M202,346.1v-0.8h-1.8v1.8
	h1.8v-0.8V346.1z M152.1,61.7c5.4,3.7,10.3,5.7,15.8,7.8c4,1.6,15.4,3.7,18.4,3.7c0.8,0.1,8.4,1.1,8.8,1.1
	c0.4-1.5-3.8-11.3-14.7-14.2c-21.7-8.5-20.7-29.7-20.7-29.7c-6.1,1.9-12,20.3-12,20.3C147.6,51.2,146.8,58,152.1,61.7z M201.5,45.8
	c24,0,37.4,0.4,37.4,0.4s5.8-10.4,5.6-16.4c0,0-14.4-2.5-41.7-2.5S161,30.1,161,30.1s1.8,13,5.8,16.9
	C166.9,47.1,177.5,45.8,201.5,45.8z M225.2,60c-10.9,3-13.8,12.7-13.4,14.2c0.4,0,6.6-1,7.4-1.1c2.9,0,14.4-2.1,18.4-3.7
	c5.5-2.1,10.4-4,15.8-7.8c5.3-3.7,4.5-10.5,4.4-11c0,0-5.8-18.4-12-20.3C245.8,30.4,246.9,51.6,225.2,60z M544.7,44.6
	c6.2,0,11.7,0,16.3,0.1c12.2,0.4,25.4,1.5,39,4.6c-5.3-14.9-7.3-17.5-10.7-19.4c-1.5-0.5-3.4-1.1-3.6-1.2c0,0,0,0,0-0.1
	c0,0-13.7-2.5-39.7-2.5s-39.8,2.8-39.8,2.8s-2.1,0.6-3.6,1.2c-3.5,1.9-5.5,4.5-10.7,19.4c0,0,16.5-3.7,41.6-4.8
	C536.7,44.7,540.5,44.6,544.7,44.6z M203.9,93.4v-0.8c-0.5-0.5-1.1-1.1-1.8-1.9c-0.1,0.1-0.1,0.3-0.1,0.4v2.4c0,0.5,0.4,1,1,1
	S203.9,93.9,203.9,93.4z M209.6,75.9c0,0-2.6-1.3-7-1.3c-1.5,0-3.2,0.1-5,0.5c0,9.6,8.5,16.7,8.5,16.7L209.6,75.9z M200.7,93.6
	l-0.5,7.2c-0.1,1,0.2,1.9,0.8,2.5c0.4,0.4,0.9,0.7,1.4,0.7h1c0.5,0,1-0.2,1.4-0.7c0.6-0.6,0.9-1.6,0.8-2.5l-0.5-7.1l-0.4-0.3
	c0,0-0.1-0.1-0.2-0.1v0.2c0,0.9-0.7,1.7-1.7,1.7s-1.7-0.7-1.7-1.7V92C201,92.4,200.8,93,200.7,93.6z M205.1,101.6
	c0,0.7-0.6,1.3-1.3,1.3h-1.5c-0.7,0-1.3-0.6-1.3-1.3v-0.8c0-0.7,0.6-1.3,1.3-1.3h1.5c0.7,0,1.3,0.6,1.3,1.3V101.6z M204.1,100.8
	c0-0.2-0.2-0.4-0.4-0.4h-1.5c-0.2,0-0.4,0.2-0.4,0.4v0.8c0,0.2,0.2,0.4,0.4,0.4h1.5c0.2,0,0.4-0.2,0.4-0.4V100.8z"/>
</svg>
