<?xml version="1.0" encoding="utf-8"?>
<!-- Generator: Adobe Illustrator 25.3.0, SVG Export Plug-In . SVG Version: 6.00 Build 0)  -->
<svg version="1.1" id="Layer_1" xmlns="http://www.w3.org/2000/svg" xmlns:xlink="http://www.w3.org/1999/xlink" x="0px" y="0px"
	 viewBox="0 0 750.2 400.1" style="enable-background:new 0 0 750.2 400.1;" xml:space="preserve">
<path d="M142.6,18.5c0-0.1,0.1-0.2,0.1-0.4L142.6,18.5z M202.2,374.1c-0.5,0-1.1,0-1.6,0c-19.7,0-36.8-4.5-51.6-9.1
	c-11.1-0.7-20-1.4-26.9-2.1c8.1,1.9,17.1,5.1,27.1,8.2c14.8,4.6,31.8,9,51.3,9c0.5,0,1.1,0,1.6,0c19-0.3,35.1-4.6,49.3-9.1
	c8.7-2.7,16.6-5.4,24-7.3c-6.8,0.6-15.1,1.1-24.6,1.5C236.8,369.6,220.8,373.8,202.2,374.1z M298.8,360.5c0.5-0.1,0.9-0.1,1.2-0.2
	v-6c-2.3,0.1-11.2,0.7-23,1.3l0,0h-0.2c-21.1,1.2-51.3,2.7-69.5,2.9v6.7C260.4,365,291.6,361.4,298.8,360.5z M104.8,354.4v5.4
	c0.2,0,0.6,0.1,1,0.2c1,0.2,2.4,0.4,4.3,0.6c3.9,0.5,9.7,1.2,17.6,1.9c15.6,1.4,39.1,2.8,71.3,2.8v-6.7
	C171,358.3,110.9,354.8,104.8,354.4z M632.8,355.2c-11.2,0.6-23.5,5.2-37.8,9.7c-14.2,4.5-30.5,8.9-49.6,9.1c-0.5,0-1.1,0-1.6,0
	c-19.6,0-36.8-4.5-51.6-9.1c-14.8-4.6-27.4-9.3-37.9-9.9c-3.9-0.2-5.6-0.4-6.4-0.5v6.1c0.1,0,0.3,0.1,0.6,0.1
	c0.9,0.1,2.6,0.3,5.9,0.5c10.7,0.6,23.3,5.4,38.1,10c14.8,4.6,31.8,9,51.3,9c0.5,0,1.1,0,1.6,0c19-0.2,35.1-4.6,49.3-9.1
	s26.5-9.1,38-9.7c7.2-0.4,9.7-0.7,10.4-0.9v-6.1c-0.2,0-0.6,0.1-1.1,0.2C640.6,354.6,637.9,354.9,632.8,355.2z M315.3,379.7h37
	c0.1-1.2,0.3-3.5,0.6-6.8h-38L315.3,379.7z M660.9,379.7H698c0.1-1.2,0.3-3.5,0.6-6.8h-38L660.9,379.7z M694.5,107
	c-3-12.7-11.3-23.5-22.9-29.6c-12.3-6.6-27.8-13.3-46.1-19.8v-0.1l-1-0.3c-0.5-0.2-1.1-0.4-1.6-0.6h-0.1l-10.3-3.2L593,50.7
	c0,0,4.2,15.3,16.8,22.3c1.3,0.7,2.5,1.6,3.5,2.7c13.2,13.8,17.3,31.8,20.6,46.5c2.7,11.9,5,22.1,11.2,26.9l0.2,0.1l0.4,21
	c0.4,0.1,0.9,0.5,0.9,0.9l13.7,199.5h38.3c1.3-16.7,4-52.8,5.2-94.4C705.6,224,705.2,152,694.5,107z M447.8,171l-1.3-21.5l0.2-0.2
	c6.2-4.8,8.5-15.1,11.2-26.9c4.1-18.1,9.2-40.6,30.5-54.8c7.8-4,16.8-19,16.8-19l-15.6,3l-13,4c-20.6,7-38.6,14.5-52.2,21.8
	c-11.5,6.2-19.8,17-22.9,29.6c-10.7,45-11,117-9.4,169.5c1.3,41.5,3.9,77.7,5.2,94.4h38.2l0.2,0.1l12.1-199.9L447.8,171L447.8,171z
	 M397.5,373c0.3,3.3,0.5,5.6,0.6,6.8h37.1l0.4-6.8h-0.1H397.5z M633,122.5c-3.5-15.3-7.7-33.4-22.2-47.2h-0.4
	c-2.2-2-11.9-7.3-14.9-15c-1.8-4.6-3.2-7-4.9-10.4c-8.7-3.2-46.4-3.3-46.4-3.3s-26.8,0.3-37.3,2.2c-1.7,3.4-8.6,13.4-12.5,16.3
	c-4,2.9-5.8,3.9-5.8,3.9c-20.7,14-25.9,35.6-29.9,53.4c-2.7,11.9-5.1,22.3-11.4,27.3l1.2,19.7l-0.8,183.9c0.1,0,0.3,0.1,0.6,0.1
	c0.9,0.1,2.6,0.3,5.9,0.5c10.7,0.6,23.3,5.4,38.1,10c14.8,4.6,31.8,9,51.3,9c0.5,0,1.1,0,1.6,0c19-0.2,35.1-4.6,49.3-9.1
	s26.5-9.1,38-9.7c7.2-0.4,9.7-0.7,10.4-0.9l0.2-159.5l0.2-1c1.1-21.7,1.2-21.9,1.4-22.1l-0.4-20.9
	C638.1,144.8,635.7,134.5,633,122.5z M52,373c0.3,3.3,0.5,5.6,0.6,6.8h37.1l0.4-6.8H90H52z M104,149.3c6.2-4.8,8.5-15.1,11.3-26.9
	c4.6-20,10.3-45,37.2-58.7c-7.9-6.1-6.2-13.4-6.2-13.4l-15.7,5.4c-0.2,0-0.3-0.1-0.4-0.2l0.1,0.3c-20.6,7.1-37.9,14.4-51.4,21.6
	C67.3,83.5,59,94.3,56,107c-10.7,45-11,117-9.4,169.5c1.3,41.5,3.9,77.7,5.2,94.4H90l0.2,0.1l12.1-199.9c0-0.2,0.1-0.4,0.3-0.6
	l1.4-21V149.3z M202.2,304.6h-1.9v2.8h1.9l1.5-0.5v-0.8v-0.2v-0.8L202.2,304.6z M202.2,310h-1.9v2.8h1.9l1.5-0.5v-0.8v-0.2v-0.8
	L202.2,310z M202.2,326h-1.9v2.8h1.9l1.5-0.5v-0.8v-0.2v-0.8L202.2,326z M202.2,320.7h-1.9v2.8h1.9l1.5-0.5v-0.8V322v-0.8
	L202.2,320.7z M202.2,315.3h-1.9v2.8h1.9l1.5-0.5v-0.8v-0.2v-0.8L202.2,315.3z M202.2,299.2h-1.9v2.8h1.9l1.5-0.5v-0.8v-0.2v-0.8
	L202.2,299.2z M202.2,277.8h-1.9v2.8h1.9l1.5-0.5v-0.8v-0.2v-0.8L202.2,277.8z M202.2,283.1h-1.9v2.8h1.9l1.5-0.5v-0.8v-0.2v-0.8
	L202.2,283.1z M202.2,293.9h-1.9v2.8h1.9l1.5-0.5v-0.8v-0.2v-0.8L202.2,293.9z M202.2,288.5h-1.9v2.8h1.9l1.5-0.5V290v-0.2V289
	L202.2,288.5z M202.4,340v0.8v0.2v0.8l1.5,0.5h2.1v-2.8h-2.1L202.4,340z M202.4,323.9v0.8v0.2v0.8l1.5,0.5h2.1v-2.8h-2.1
	L202.4,323.9z M202.4,329.2v0.8v0.2v0.8l1.5,0.5h2.1v-2.8h-2.1L202.4,329.2z M202.4,318.5v0.8v0.2v0.8l1.5,0.5h2.1V318h-2.1
	L202.4,318.5z M202.4,313.1v0.8v0.2v0.8l1.5,0.5h2.1v-2.8h-2.1L202.4,313.1z M202.4,307.8v0.8v0.2v0.8l1.5,0.5h2.1v-2.8h-2.1
	L202.4,307.8z M202.4,334.6v0.8v0.2v0.8l1.5,0.5h2.1v-2.8h-2.1L202.4,334.6z M202.2,331.4h-1.9v2.8h1.9l1.5-0.5v-0.8v-0.2v-0.8
	L202.2,331.4z M202.2,154.4h-1.9v2.8h1.9l1.5-0.5v-0.8v-0.2v-0.8L202.2,154.4z M204,145v0.2v0.8h2v-1.8h-2V145z M202.2,272.4h-1.9
	v2.8h1.9l1.5-0.5v-0.8v-0.2v-0.8L202.2,272.4z M202.2,191.9h-1.9v2.8h1.9l1.5-0.5v-0.8v-0.2v-0.8L202.2,191.9z M202.2,202.7h-1.9
	v2.8h1.9l1.5-0.5v-0.8V204v-0.8L202.2,202.7z M202.2,197.3h-1.9v2.8h1.9l1.5-0.5v-0.8v-0.2v-0.8L202.2,197.3z M202.2,208h-1.9v2.8
	h1.9l1.5-0.5v-0.8v-0.2v-0.8L202.2,208z M202.2,165.1h-1.9v2.8h1.9l1.5-0.5v-0.8v-0.2v-0.8L202.2,165.1z M202.2,170.5h-1.9v2.8h1.9
	l1.5-0.5V172v-0.2V171L202.2,170.5z M202.2,159.7h-1.9v2.8h1.9l1.5-0.5v-0.8V161v-0.8L202.2,159.7z M202.2,186.6h-1.9v2.8h1.9
	l1.5-0.5v-0.8v-0.2v-0.8L202.2,186.6z M202.2,175.8h-1.9v2.8h1.9l1.5-0.5v-0.8v-0.2v-0.8L202.2,175.8z M202.2,181.2h-1.9v2.8h1.9
	l1.5-0.5v-0.8v-0.2v-0.8L202.2,181.2z M202.4,302.4v0.8v0.2v0.8l1.5,0.5h2.1v-2.8h-2.1L202.4,302.4z M202.2,229.5h-1.9v2.8h1.9
	l1.5-0.5V231v-0.2V230L202.2,229.5z M202.2,240.2h-1.9v2.8h1.9l1.5-0.5v-0.8v-0.2v-0.8L202.2,240.2z M202.2,250.9h-1.9v2.8h1.9
	l1.5-0.5v-0.8v-0.2v-0.8L202.2,250.9z M202.2,245.6h-1.9v2.8h1.9l1.5-0.5v-0.8v-0.2v-0.8L202.2,245.6z M202.2,261.7h-1.9v2.8h1.9
	l1.5-0.5v-0.8V263v-0.8L202.2,261.7z M202.2,256.3h-1.9v2.8h1.9l1.5-0.5v-0.8v-0.2v-0.8L202.2,256.3z M202.2,213.4h-1.9v2.8h1.9
	l1.5-0.5v-0.8v-0.2v-0.8L202.2,213.4z M202.2,218.8h-1.9v2.8h1.9l1.5-0.5v-0.8v-0.2v-0.8L202.2,218.8z M202.2,234.8h-1.9v2.8h1.9
	l1.5-0.5v-0.8v-0.2v-0.8L202.2,234.8z M202.2,224.1h-1.9v2.8h1.9l1.5-0.5v-0.8v-0.2v-0.8L202.2,224.1z M202.2,267h-1.9v2.8h1.9
	l1.5-0.5v-0.8v-0.2v-0.8L202.2,267z M202.2,336.8h-1.9v2.8h1.9l1.5-0.5v-0.8v-0.2v-0.8L202.2,336.8z M202.4,141.5v0.8v0.2v0.8
	l1.5,0.5h2.1V141h-2.1L202.4,141.5z M202.4,136.1v0.8v0.2v0.8l1.5,0.5h2.1v-2.8h-2.1L202.4,136.1z M202.4,130.7v0.8v0.2v0.8l1.5,0.5
	h2.1v-2.8h-2.1L202.4,130.7z M202.4,120v0.8v0.2v0.8l1.5,0.5h2.1v-2.8h-2.1L202.4,120z M202.4,125.4v0.8v0.2v0.8l1.5,0.5h2.1v-2.8
	h-2.1L202.4,125.4z M202.4,168.3v0.8v0.2v0.8l1.5,0.5h2.1v-2.8h-2.1L202.4,168.3z M202.4,114.7v0.8v0.2v0.8l1.5,0.5h2.1v-2.8h-2.1
	L202.4,114.7z M202.4,146.8v0.8v0.2v0.8l1.5,0.5h2.1v-2.8h-2.1L202.4,146.8z M202.4,162.9v0.8v0.2v0.8l1.5,0.5h2.1v-2.8h-2.1
	L202.4,162.9z M202.4,157.6v0.8v0.2v0.8l1.5,0.5h2.1v-2.8h-2.1L202.4,157.6z M202.4,152.2v0.8v0.2v0.8l1.5,0.5h2.1v-2.8h-2.1
	L202.4,152.2z M204,118.2v0.2v0.8h2v-1.8h-2V118.2z M204,107.4v0.2v0.8h2v-1.8h-2V107.4z M204,112.8v0.2v0.8h2V112h-2V112.8z
	 M288.4,122.6c-3.3-14.3-7.1-31-18.8-44.3l-0.1-0.1l-2-2.2l-0.6-0.5c-2.4-2.4-5.1-4.7-8.3-6.9l-5.9-3.9l-0.1,0.1l-5.2,2.6l-9,3.5
	l-7.6,2.2c-4.8,1.1-13.4,2.2-18.9,2.7l-0.1,0.5l-3.5,15.9l-0.7,3.2h-0.1v262.3c18.2-0.3,48.1-1.7,69.1-2.9h0.8
	c9-0.5,16.3-0.9,20.2-1.1c1.2-0.1,2.1-0.1,2.6-0.2l0.2-106.8c0.1,0,0.2,0,0.3,0.1v-4.6l0.2-71.3c0-0.4,0.2-0.7,0.6-0.9l-1.4-20.2
	C293.5,144.9,291.1,134.5,288.4,122.6z M201.3,90.9c0-0.3,0.1-0.6,0.3-0.8c-0.4-0.5-0.9-1.1-1.4-1.8v4.2
	C200.5,91.8,200.9,91.3,201.3,90.9z M204,139.6v0.2v0.8h2v-1.8h-2V139.6z M204,128.9v0.2v0.8h2v-1.8h-2V128.9z M195.7,75.8
	c-5.9-0.6-14-1.6-17.2-2.3l-7.4-1.8c-0.9-0.3-1.9-0.6-2.8-0.9l-0.1-0.1l-9.6-3.8l0,0l0,0V67c-2-1-3.7-2-5.4-3l-0.2,0.3
	c-26.6,13.5-32.3,38.3-36.8,58.1c-2.7,12-5.1,22.3-11.4,27.4l-1.4,20.2c0.2,0,0.3,0.1,0.5,0.2c0.2,0.2,0.3,0.5,0.3,0.8l0.1,76.5
	l0.3,0.1l0.1,105.9c0.5,0,1.4,0.1,2.6,0.2c2,0.1,4.8,0.3,8.4,0.5c3.8,0.2,8.5,0.5,13.6,0.7h0.8c4,0.2,8.3,0.5,12.8,0.7
	c19.5,1,42,2,56.1,2.1V86.3C197.3,83.5,195.8,79.9,195.7,75.8z M202.4,173.7v0.8v0.2v0.8l1.5,0.5h2.1v-2.8h-2.1L202.4,173.7z
	 M204,134.2v0.2v0.8h2v-1.8h-2V134.2z M204,123.5v0.2v0.8h2v-1.8h-2V123.5z M202.4,109.3v0.8v0.2v0.8l1.5,0.5h2.1v-2.8h-2.1
	L202.4,109.3z M202.4,195.1v0.8v0.2v0.8l1.5,0.5h2.1v-2.8h-2.1L202.4,195.1z M202.4,254.1v0.8v0.2v0.8l1.5,0.5h2.1v-2.8h-2.1
	L202.4,254.1z M202.4,259.5v0.8v0.2v0.8l1.5,0.5h2.1V259h-2.1L202.4,259.5z M202.4,248.8v0.8v0.2v0.8l1.5,0.5h2.1v-2.8h-2.1
	L202.4,248.8z M202.4,243.4v0.8v0.2v0.8l1.5,0.5h2.1v-2.8h-2.1L202.4,243.4z M202.4,264.9v0.8v0.2v0.8l1.5,0.5h2.1v-2.8h-2.1
	L202.4,264.9z M202.4,281v0.8v0.2v0.8l1.5,0.5h2.1v-2.8h-2.1L202.4,281z M202.4,291.7v0.8v0.2v0.8l1.5,0.5h2.1v-2.8h-2.1
	L202.4,291.7z M202.4,270.2v0.8v0.2v0.8l1.5,0.5h2.1v-2.8h-2.1L202.4,270.2z M202.4,286.3v0.8v0.2v0.8l1.5,0.5h2.1v-2.8h-2.1
	L202.4,286.3z M202.4,238v0.8v0.2v0.8l1.5,0.5h2.1v-2.8h-2.1L202.4,238z M202.4,275.6v0.8v0.2v0.8l1.5,0.5h2.1v-2.8h-2.1
	L202.4,275.6z M202.4,232.7v0.8v0.2v0.8l1.5,0.5h2.1v-2.8h-2.1L202.4,232.7z M202.4,297.1v0.8v0.2v0.8l1.5,0.5h2.1v-2.8h-2.1
	L202.4,297.1z M202.4,200.5v0.8v0.2v0.8l1.5,0.5h2.1V200h-2.1L202.4,200.5z M202.4,189.8v0.8v0.2v0.8l1.5,0.5h2.1v-2.8h-2.1
	L202.4,189.8z M202.4,184.4v0.8v0.2v0.8l1.5,0.5h2.1v-2.8h-2.1L202.4,184.4z M202.4,179v0.8v0.2v0.8l1.5,0.5h2.1v-2.8h-2.1
	L202.4,179z M202.4,205.9v0.8v0.2v0.8l1.5,0.5h2.1v-2.8h-2.1L202.4,205.9z M202.4,221.9v0.8v0.2v0.8l1.5,0.5h2.1v-2.8h-2.1
	L202.4,221.9z M202.4,227.3v0.8v0.2v0.8l1.5,0.5h2.1v-2.8h-2.1L202.4,227.3z M202.4,216.6v0.8v0.2v0.8l1.5,0.5h2.1v-2.8h-2.1
	L202.4,216.6z M202.4,211.2v0.8v0.2v0.8l1.5,0.5h2.1v-2.8h-2.1L202.4,211.2z M202.2,342.1h-1.9v2.8h1.9l1.5-0.5v-0.8v-0.2v-0.8
	L202.2,342.1z M204,338.1v0.2v0.8h2v-1.8h-2V338.1z M204,332.7v0.2v0.8h2v-1.8h-2V332.7z M204,327.4v0.2v0.8h2v-1.8h-2V327.4z
	 M202,335.6v-0.2v-0.8h-1.8v1.8h1.8V335.6z M204,343.5v0.2v0.8h2v-1.8h-2V343.5z M202,341v-0.2V340h-1.8v1.8h1.8V341z M204,322v0.2
	v0.8h2v-1.8h-2V322z M204,295.2v0.2v0.8h2v-1.8h-2V295.2z M204,289.8v0.2v0.8h2V289h-2V289.8z M204,300.6v0.2v0.8h2v-1.8h-2V300.6z
	 M204,311.3v0.2v0.8h2v-1.8h-2V311.3z M204,316.6v0.2v0.8h2v-1.8h-2V316.6z M204,305.9v0.2v0.8h2v-1.8h-2V305.9z M202,271.2V271
	v-0.8h-1.8v1.8h1.8V271.2z M202,287.3v-0.2v-0.8h-1.8v1.8h1.8V287.3z M202,330.2V330v-0.8h-1.8v1.8h1.8V330.2z M202,292.7v-0.2v-0.8
	h-1.8v1.8h1.8V292.7z M204,284.5v0.2v0.8h2v-1.8h-2V284.5z M202,276.6v-0.2v-0.8h-1.8v1.8h1.8V276.6z M202,298v-0.2V297h-1.8v1.8
	h1.8V298z M202,282v-0.2V281h-1.8v1.8h1.8V282z M202,319.5v-0.2v-0.8h-1.8v1.8h1.8V319.5z M202,303.4v-0.2v-0.8h-1.8v1.8h1.8V303.4z
	 M202,324.9v-0.2v-0.8h-1.8v1.8h1.8V324.9z M202,314.1V314v-0.8h-1.8v1.8h1.8V314.1z M202,308.8v-0.2v-0.8h-1.8v1.8h1.8V308.8z
	 M204,150.3v0.2v0.8h2v-1.8h-2V150.3z M204,193.3v0.2v0.8h2v-1.8h-2V193.3z M204,187.9v0.2v0.8h2v-1.8h-2V187.9z M204,182.5v0.2v0.8
	h2v-1.8h-2V182.5z M204,204v0.2v0.8h2v-1.8h-2V204z M204,177.2v0.2v0.8h2v-1.8h-2V177.2z M204,209.4v0.2v0.8h2v-1.8h-2V209.4z
	 M204,198.6v0.2v0.8h2v-1.8h-2V198.6z M202,265.9v-0.2v-0.8h-1.8v1.8h1.8V265.9z M204,155.7v0.2v0.8h2v-1.8h-2V155.7z M204,166.4
	v0.2v0.8h2v-1.8h-2V166.4z M204,171.8v0.2v0.8h2V171h-2V171.8z M204,161.1v0.2v0.8h2v-1.8h-2V161.1z M204,252.3v0.2v0.8h2v-1.8h-2
	V252.3z M204,257.6v0.2v0.8h2v-1.8h-2V257.6z M204,246.9v0.2v0.8h2v-1.8h-2V246.9z M204,263v0.2v0.8h2v-1.8h-2V263z M204,279.1v0.2
	v0.8h2v-1.8h-2V279.1z M204,273.7v0.2v0.8h2v-1.8h-2V273.7z M204,268.4v0.2v0.8h2v-1.8h-2V268.4z M204,214.7v0.2v0.8h2v-1.8h-2
	V214.7z M204,220.1v0.2v0.8h2v-1.8h-2V220.1z M204,225.4v0.2v0.8h2v-1.8h-2V225.4z M204,241.5v0.2v0.8h2v-1.8h-2V241.5z M204,236.2
	v0.2v0.8h2v-1.8h-2V236.2z M204,230.8v0.2v0.8h2V230h-2V230.8z M202,212.2V212v-0.8h-1.8v1.8h1.8V212.2z M202,126.4v-0.2v-0.8h-1.8
	v1.8h1.8V126.4z M202,137.1v-0.2v-0.8h-1.8v1.8h1.8V137.1z M202,131.7v-0.2v-0.8h-1.8v1.8h1.8V131.7z M202,121v-0.2V120h-1.8v1.8
	h1.8V121z M202,104.9v-0.2v-0.1c-0.5-0.1-1-0.3-1.4-0.7h-0.4v1.8h1.8L202,104.9L202,104.9z M202,115.6v-0.2v-0.8h-1.8v1.8h1.8V115.6
	z M202,110.3v-0.2v-0.8h-1.8v1.8h1.8V110.3z M202,163.9v-0.2v-0.8h-1.8v1.8h1.8V163.9z M202,158.6v-0.2v-0.8h-1.8v1.8h1.8V158.6z
	 M202,142.5v-0.2v-0.8h-1.8v1.8h1.8V142.5z M202,169.3v-0.2v-0.8h-1.8v1.8h1.8V169.3z M202,147.8v-0.2v-0.8h-1.8v1.8h1.8V147.8z
	 M202,153.2V153v-0.8h-1.8v1.8h1.8V153.2z M202.2,122.2h-1.9v2.8h1.9l1.5-0.5v-0.8v-0.2v-0.8L202.2,122.2z M202.2,127.6h-1.9v2.8
	h1.9l1.5-0.5v-0.8v-0.2v-0.8L202.2,127.6z M202.2,132.9h-1.9v2.8h1.9l1.5-0.5v-0.8v-0.2v-0.8L202.2,132.9z M202,174.6v-0.2v-0.8
	h-1.8v1.8h1.8V174.6z M202.2,143.6h-1.9v2.8h1.9l1.5-0.5v-0.8V145v-0.8L202.2,143.6z M202.2,116.8h-1.9v2.8h1.9l1.5-0.5v-0.8v-0.2
	v-0.8L202.2,116.8z M202.2,138.3h-1.9v2.8h1.9l1.5-0.5v-0.8v-0.2v-0.8L202.2,138.3z M202.2,106.1h-1.9v2.8h1.9l1.5-0.5v-0.8v-0.2
	v-0.8L202.2,106.1z M200.3,103.5L200.3,103.5l0.1,0.1C200.3,103.5,200.3,103.5,200.3,103.5z M206,103L206,103L206,103L206,103z
	 M202.2,111.5h-1.9v2.8h1.9l1.5-0.5V113v-0.2V112L202.2,111.5z M206,103.4h-0.3c-0.1,0.1-0.2,0.3-0.3,0.4c-0.5,0.6-1.2,0.9-1.9,0.9
	h-1c0,0,0,0-0.1,0l0,0v0.2v0.8l1.5,0.5h2.1V103.4z M206,94.6v-0.2l0,0V94.6z M202,239v-0.2V238h-1.8v1.8h1.8V239z M202,228.3v-0.2
	v-0.8h-1.8v1.8h1.8V228.3z M202,244.4v-0.2v-0.8h-1.8v1.8h1.8V244.4z M202,260.5v-0.2v-0.8h-1.8v1.8h1.8V260.5z M202,233.7v-0.2
	v-0.8h-1.8v1.8h1.8V233.7z M202.2,149h-1.9v2.8h1.9l1.5-0.5v-0.8v-0.2v-0.8L202.2,149z M202,222.9v-0.2V222h-1.8v1.8h1.8V222.9z
	 M202,217.6v-0.2v-0.8h-1.8v1.8h1.8V217.6z M202,180v-0.2V179h-1.8v1.8h1.8V180z M202,190.8v-0.2v-0.8h-1.8v1.8h1.8V190.8z
	 M202,196.1v-0.2v-0.8h-1.8v1.8h1.8V196.1z M202,185.4v-0.2v-0.8h-1.8v1.8h1.8V185.4z M202,201.5v-0.2v-0.8h-1.8v1.8h1.8V201.5z
	 M202,255.1v-0.2v-0.8h-1.8v1.8h1.8V255.1z M202,249.8v-0.2v-0.8h-1.8v1.8h1.8V249.8z M202,206.8v-0.2v-0.8h-1.8v1.8h1.8V206.8z
	 M206,355.6h-2.1l-1.5,0.5v0.8v0.2v0.8l1.5,0.5h2.1V355.6z M200.3,357.9h1.8v-0.8v-0.2v-0.8h-1.8V357.9z M203.7,359.7v-0.2v-0.8
	l-1.5-0.5h-1.9v2.8h1.9l1.5-0.5V359.7z M204,358.8v0.8v0.2v1.1l-0.7,0.3h0.6h2.1v-2.3L204,358.8z M206,361.4h-2.1l-1.7,0.1l0,0h-2
	v3.8l0,0v0.7h5.7v-0.8l0,0v-3.8L206,361.4L206,361.4z M202.4,350.7v0.8v0.2v0.8l1.5,0.5h2.1v-2.8h-2.1L202.4,350.7z M202,352.5v-0.8
	v-0.2v-0.8h-1.8v1.8H202z M204,348v0.8v0.2v0.8h2V348H204z M204,353.4v0.8v0.2v0.8h2v-1.8H204z M202.4,345.3v0.8v0.2v0.8l1.5,0.5
	h2.1v-2.8h-2.1L202.4,345.3z M203.7,355.2v-0.8v-0.2v-0.8l-1.5-0.5h-1.9v2.8h1.9L203.7,355.2z M202.2,350.3l1.5-0.5V349v-0.2V348
	l-1.5-0.5h-1.9v2.8H202.2z M200.3,347.1h1.8v-0.8v-0.2v-0.8h-1.8V347.1z M326.1,77.4c-13.3-7.1-30.3-14.3-50.5-21.3l-0.1-0.3
	l-1.6-0.5L274,55c-0.3,0-0.6-0.1-0.9-0.1l-13.6-4.7c0,0,1.8,7.3-6.2,13.4c0.3,0.1,0.5,0.1,0.8,0.2c-0.3,0.1-0.5,0.3-0.8,0.4
	c25.7,13.9,31.3,38.3,35.8,58.1c2.7,11.9,5.1,22.1,11.3,26.9l0.2,0.1L302,170c0.2,0.1,0.3,0.3,0.4,0.5l0.1,0.1
	c0.1,0.1,0.1,0.2,0.1,0.4l12,199.8H353c1.3-16.7,4-52.8,5.2-94.4C360,224,359.6,152,348.9,107C345.9,94.3,337.6,83.5,326.1,77.4z
	 M152.1,61.7c5.4,3.7,10.3,5.7,15.8,7.8c4,1.6,15.4,3.7,18.4,3.7c0.8,0.1,8.4,1.1,8.8,1.1c0.4-1.5-3.8-11.3-14.7-14.2
	c-21.7-8.5-20.7-29.7-20.7-29.7c-6.1,1.9-12,20.3-12,20.3C147.6,51.2,146.8,58,152.1,61.7z M201.5,45.8c24,0,37.4,0.4,37.4,0.4
	s5.8-10.4,5.6-16.4c0,0-14.4-2.5-41.7-2.5S161,30.1,161,30.1s1.8,13,5.8,16.9C166.9,47.1,177.5,45.8,201.5,45.8z M225.2,60
	c-10.9,3-13.8,12.7-13.4,14.2c0.4,0,6.6-1,7.4-1.1c2.9,0,14.4-2.1,18.4-3.7c5.5-2.1,10.4-4,15.8-7.8c5.3-3.7,4.5-10.5,4.4-11
	c0,0-5.8-18.4-12-20.3C245.8,30.4,246.9,51.6,225.2,60z M544.7,44.6c6.2,0,11.7,0,16.3,0.1c12.2,0.4,25.4,1.5,39,4.6
	c-5.3-14.9-7.3-17.5-10.7-19.4c-1.5-0.5-3.4-1.1-3.6-1.2c0,0,0,0,0-0.1c0,0-13.7-2.5-39.7-2.5s-39.8,2.8-39.8,2.8s-2.1,0.6-3.6,1.2
	c-3.5,1.9-5.5,4.5-10.7,19.4c0,0,16.5-3.7,41.6-4.8C536.7,44.7,540.5,44.6,544.7,44.6z M200.7,93.6l-0.5,7.2c-0.1,1,0.2,1.9,0.8,2.5
	c0.4,0.4,0.9,0.7,1.4,0.7h1c0.5,0,1-0.2,1.4-0.7c0.6-0.6,0.9-1.6,0.8-2.5l-0.5-7.1l-0.4-0.3c0,0-0.1-0.1-0.2-0.1v0.2
	c0,0.9-0.7,1.7-1.7,1.7s-1.7-0.7-1.7-1.7V92C201,92.4,200.8,93,200.7,93.6z M205.1,101.6c0,0.7-0.6,1.3-1.3,1.3h-1.5
	c-0.7,0-1.3-0.6-1.3-1.3v-0.8c0-0.7,0.6-1.3,1.3-1.3h1.5c0.7,0,1.3,0.6,1.3,1.3V101.6z M202,91v2.4c0,0.5,0.4,1,1,1s1-0.4,1-1v-0.8
	c-0.5-0.5-1.1-1.1-1.8-1.9C202.1,90.7,202,90.9,202,91z M204.1,100.8c0-0.2-0.2-0.4-0.4-0.4h-1.5c-0.2,0-0.4,0.2-0.4,0.4v0.8
	c0,0.2,0.2,0.4,0.4,0.4h1.5c0.2,0,0.4-0.2,0.4-0.4V100.8z M206.1,91.8l3.5-15.9c0,0-2.6-1.3-7-1.3c-1.5,0-3.2,0.1-5,0.5
	C197.6,84.7,206.1,91.8,206.1,91.8z"/>
</svg>
