<?xml version="1.0" encoding="utf-8"?>
<!-- Generator: Adobe Illustrator 25.3.0, SVG Export Plug-In . SVG Version: 6.00 Build 0)  -->
<svg version="1.1" id="Layer_1" xmlns="http://www.w3.org/2000/svg" xmlns:xlink="http://www.w3.org/1999/xlink" x="0px" y="0px"
	 viewBox="0 0 750.2 400.1" style="enable-background:new 0 0 750.2 400.1;" xml:space="preserve">
<path d="M105,298.3l0.2-8.3l0,0l-0.1-139.1c0.2-0.2,0.3-0.3,0.4-0.4c1.8-2.1,7.9-9.9,10.6-22.3l0.5-2.2c1.5-7,4-18.7,8.8-30
	c5.3-12.3,12.3-20.9,21.7-26.4l4.9,20.3l0.5,1.9l1.7-1L175.1,79c6.1,2.5,16.8,6.2,18.8,9.9c-0.2,0.8-0.3,1.6-0.3,2.5v57.8v1.5h1.5
	h13.7h1.5v-1.5V91.6c0.7-1.6,4.9-10.8,16.1-14.2L250,90.8l1.7,1l0.5-1.9l4.9-20.4c8.3,4.9,15.1,12.9,20.3,23.7
	c0.4,0.9,0.9,1.8,1.3,2.7c4.8,10.8,7.1,21.9,8.6,29.2c0.2,1.1,0.4,2,0.6,2.9c2.7,12.6,8.8,20.3,10.5,22.5c0.3,0.3,0.8,0.6,1.2,0.7
	V290l0,0l0.1,8.3l0.4,55.3c-0.5,0.1-1.4,0.1-2.6,0.2c-13.9,0.8-71,4.1-95.1,4.1c-3.4,0-7.5-0.1-12.1-0.2c-0.6,0-1.1,0-1.7,0
	c-11.1-0.3-24.5-0.8-37.4-1.5c-2.7-0.1-5.4-0.3-8-0.4c-10.5-0.6-20.2-1.1-27.2-1.5c-0.9,0-1.8-0.1-2.5-0.1c-2.4-0.1-4.3-0.3-5.8-0.4
	c-0.3,0-0.6,0-0.8-0.1c-0.8-0.1-1.4-0.1-1.8-0.1L105,298.3z M522.3,48c-0.2,0.5-0.5,0.9-1,1.2l-26,16.6c-12,7-21.1,17.8-27.2,32
	c-4.4,10.1-6.4,19.9-7.8,27.1c-0.2,1.2-0.5,2.3-0.7,3.3c-1.6,7.5-4.5,13.3-6.6,16.8c-1,1.6-2,3.1-3,4.4c-0.3,0.3-0.5,0.6-0.7,0.8
	c-0.2,0.3-0.5,0.5-0.8,0.6l0.1,139.2l0,0l-0.1,8.3l-0.6,55.2c0.1,0,0.3,0.1,0.6,0.1c0.9,0.1,2.6,0.3,5.9,0.5
	c10.7,0.6,23.3,5.4,38.1,10c14.8,4.6,31.8,9,51.3,9c0.5,0,1.1,0,1.6,0c19-0.2,35.1-4.6,49.3-9.1s26.5-9.1,38-9.7
	c7.2-0.4,9.7-0.7,10.4-0.9l0.1-55.1V290h-0.1l0.1-139.4c-0.9,0-1.4-0.3-1.7-0.8c-0.9-1.1-2.1-2.9-3.1-4.7c-2.1-3.5-5-9.3-6.6-16.8
	c-0.2-0.9-0.4-1.9-0.6-2.9l-0.1-0.4c-1.5-7.1-3.5-16.9-7.8-27.1c-6.1-14.2-15.2-25-27.1-32c-0.1,0-0.1-0.1-0.1-0.1l-24.2-16.6
	c-0.5-0.4-0.8-0.8-1-1.4c-7.4-0.3-16-0.6-25.2-0.6C537.4,47.2,529.4,47.5,522.3,48z M279.6,94.6c5.5,10.8,7.3,22.4,8.8,29.8
	c0.2,1,0.4,2,0.6,2.9c2.6,11.9,8.4,19.3,9.8,21l50,9.6L365,83.7l-109.2-33l3.9,6.9l0.3,0.5l-0.1,0.6l-2.3,9.6
	C266.9,73.4,272.9,81.4,279.6,94.6z M56.3,157.9l49.3-9.8c1.8-2.1,7.4-9.4,9.8-20.9l0.5-2.1c1.5-7.1,4-19,9-30.6
	c5.9-13.9,12.4-20.9,21.9-26.2l-2.3-9.7l-0.1-0.6l0.3-0.5l3.8-6.8l-108.4,33L56.3,157.9z M493.7,51.2l-3.1,0.5l-5.3,1.6L384.7,83.7
	l16.4,73.4l47.9-9.3c0.1-0.2,0.3-0.4,0.5-0.6c0.7-0.9,1.7-2.3,2.8-4.1c1.9-3.4,4.6-8.8,6.2-16c0.2-1,0.4-2.1,0.7-3.3
	c1.5-7.3,3.5-17.2,8-27.6c6.4-14.8,17.1-25.5,29.6-32.8l23.9-15.3C504.8,49.3,493.9,51.1,493.7,51.2z M571.7,47.8l22.8,15.6
	c12.4,7.3,23.3,18.5,29.7,33.4c4.5,10.4,6.6,20,8.1,27.3c0.2,1.2,0.5,2.3,0.7,3.3c1.5,7.1,4.2,12.6,6.2,15.9c1,1.7,2.1,3.3,2.9,4.3
	c0.3,0.1,3.3,0.7,4,0.8c1.2,0.2,1.7,0.3,1.9,0.4l45.7,8.4l16.4-73.4L596.4,49.6l0,0C596.2,49.6,586.5,48.5,571.7,47.8z M195.2,149.1
	h13.7v-3.9h-13.7V149.1z M224,76l0.8,0.5c-12,4.3-15.9,14.9-15.9,14.9v51.9h-13.7v-52C194.5,81.9,214.3,77.5,224,76z M205.9,130.5
	c0-2-1.7-3.7-3.7-3.7s-3.7,1.7-3.7,3.7s1.7,3.7,3.7,3.7S205.9,132.6,205.9,130.5z M205.9,107c0-2-1.7-3.7-3.7-3.7s-3.7,1.7-3.7,3.7
	s1.7,3.7,3.7,3.7S205.9,109,205.9,107z M545.8,45.7c28.6,0,50.8,2.4,50.8,2.4l-7-12.2c0,0-15.5-3.6-44.1-3.6s-43.9,3.5-43.9,3.5
	l-8.1,13.9C493.4,49.7,517.2,45.7,545.8,45.7z M205.1,130.5c0,1.6-1.3,3-3,3c-1.6,0-3-1.3-3-3c0-1.6,1.3-3,3-3
	C203.8,127.6,205.1,128.9,205.1,130.5z M201.5,130.6c0.2-0.1,0.3-0.4,0.2-0.6c-0.1-0.2-0.4-0.3-0.6-0.2c-0.2,0.1-0.3,0.4-0.2,0.6
	S201.3,130.7,201.5,130.6z M202.3,131.1c-0.1-0.2-0.4-0.3-0.6-0.2c-0.2,0.1-0.3,0.4-0.2,0.6c0.1,0.2,0.4,0.3,0.6,0.2
	C202.3,131.6,202.4,131.4,202.3,131.1z M202.7,130c0.2-0.1,0.3-0.4,0.2-0.6c-0.1-0.2-0.4-0.3-0.6-0.2c-0.2,0.1-0.3,0.4-0.2,0.6
	C202.2,130,202.5,130.1,202.7,130z M203.5,130.6c-0.1-0.2-0.4-0.3-0.6-0.2c-0.2,0.1-0.3,0.4-0.2,0.6c0.1,0.2,0.4,0.3,0.6,0.2
	C203.5,131.1,203.6,130.9,203.5,130.6z M205.1,107c0,1.6-1.3,3-3,3c-1.6,0-3-1.3-3-3c0-1.6,1.3-3,3-3S205.1,105.3,205.1,107z
	 M201.5,107c0.2-0.1,0.3-0.4,0.2-0.6s-0.4-0.3-0.6-0.2c-0.2,0.1-0.3,0.4-0.2,0.6S201.3,107.1,201.5,107z M202.3,107.6
	c-0.1-0.2-0.4-0.3-0.6-0.2c-0.2,0.1-0.3,0.4-0.2,0.6s0.4,0.3,0.6,0.2C202.3,108.1,202.4,107.8,202.3,107.6z M202.7,106.5
	c0.2-0.1,0.3-0.4,0.2-0.6s-0.4-0.3-0.6-0.2c-0.2,0.1-0.3,0.4-0.2,0.6S202.5,106.6,202.7,106.5z M203.5,107.1
	c-0.1-0.2-0.4-0.3-0.6-0.2c-0.2,0.1-0.3,0.4-0.2,0.6s0.4,0.3,0.6,0.2C203.5,107.5,203.6,107.3,203.5,107.1z M186.5,79.1
	c0.3-0.8,1.1-1.2,2.1-1.2c0.5,0,0.9,0.1,1.4,0.3c1.5,0.6,2.4,2,2,3c-0.3,0.8-1.1,1.2-2.1,1.2c-0.5,0-0.9-0.1-1.4-0.3
	C187,81.5,186.1,80.1,186.5,79.1z M188.7,79.9c0.2,0,0.4-0.1,0.4-0.3c0-0.2-0.3-0.4-0.5-0.4s-0.4,0.1-0.4,0.3
	C188.3,79.7,188.5,79.9,188.7,79.9z M189.8,79.3c-0.2,0-0.4,0.1-0.4,0.3c0,0.2,0.3,0.4,0.5,0.4s0.4-0.1,0.4-0.3
	S190.1,79.3,189.8,79.3z M188.9,80.9c0.2,0,0.4-0.1,0.4-0.3c0-0.2-0.3-0.4-0.5-0.4s-0.4,0.1-0.4,0.3
	C188.4,80.7,188.7,80.9,188.9,80.9z M190.1,81c0.2,0,0.4-0.1,0.4-0.3c0-0.2-0.3-0.4-0.5-0.4s-0.4,0.1-0.4,0.3S189.9,81,190.1,81z
	 M202.2,374.1c-0.5,0-1.1,0-1.6,0c-19.7,0-36.8-4.5-51.6-9.1c-11.1-0.7-20-1.4-26.9-2.1c8.1,1.9,17.1,5.1,27.1,8.2
	c14.8,4.6,31.8,9,51.3,9c0.5,0,1.1,0,1.6,0c19-0.3,35.1-4.6,49.3-9.1c8.7-2.7,16.6-5.4,24-7.3c-6.8,0.6-15.1,1.1-24.6,1.5
	C236.8,369.6,220.8,373.8,202.2,374.1z M298.8,360.5c-7.5,0.9-41.2,4.8-98.6,4.8c-32.8,0-56.7-1.4-72.5-2.8
	c-7.9-0.7-13.7-1.4-17.6-1.9c-1.9-0.2-3.3-0.4-4.3-0.6c-0.4-0.1-0.8-0.2-1-0.2v-5.4c6.4,0.4,71.3,4.2,97.5,4.2
	c26.1,0,90.9-3.9,97.7-4.3v6C299.7,360.4,299.3,360.4,298.8,360.5z M642,354.6c0.5-0.1,0.9-0.2,1.1-0.2v6.1
	c-0.7,0.2-3.2,0.5-10.4,0.9c-11.5,0.6-23.8,5.2-38,9.7s-30.3,8.9-49.3,9.1c-0.5,0-1.1,0-1.6,0c-19.5,0-36.5-4.4-51.3-9
	s-27.4-9.4-38.1-10c-3.3-0.2-5-0.4-5.9-0.5c-0.3,0-0.5-0.1-0.6-0.1v-6.1c0.8,0.1,2.5,0.3,6.4,0.5c10.5,0.6,23.1,5.3,37.9,9.9
	s32,9.1,51.6,9.1c0.5,0,1.1,0,1.6,0c19.1-0.2,35.4-4.6,49.6-9.1c14.3-4.5,26.6-9.1,37.8-9.7C637.9,354.9,640.6,354.6,642,354.6z"/>
</svg>
