<?xml version="1.0" encoding="utf-8"?>
<!-- Generator: Adobe Illustrator 25.3.0, SVG Export Plug-In . SVG Version: 6.00 Build 0)  -->
<svg version="1.1" id="Layer_1" xmlns="http://www.w3.org/2000/svg" xmlns:xlink="http://www.w3.org/1999/xlink" x="0px" y="0px"
	 viewBox="0 0 750.2 400.1" style="enable-background:new 0 0 750.2 400.1;" xml:space="preserve">
<path d="M384.1,83.4l16.6,74.4l46.5-9.1c1.8-2.1,4.8-7.8,5.3-22.7v-1.2c0.8-22.6,1.9-55.2,8.4-64.8L384.1,83.4z M56.1,158.4
	l47.7-9.7l0.2-0.1c0.1-0.1,0.4-0.2,0.6-0.5c0.5-0.5,1.3-1.4,2.1-3.1c1.6-3.2,3.3-9.2,3.7-20.2c0.6-16.5,1.3-41.2,4.6-56.4
	c0.9-4.2,1.3-6.4,2.7-8.9L39.4,83.3L56.1,158.4z M300.2,148.4l0.2,0.1l49,10L366,83.3L286.1,59c1.3,2.4,2.2,5,3.1,9.2
	c3.2,15.2,4,39.9,4.6,56.4c0.4,10.9,2.1,16.9,3.7,20.2c0.8,1.6,1.6,2.5,2.1,3.1C299.9,148.2,300.1,148.3,300.2,148.4z M693.9,157.7
	l16.6-74.3l-80.1-24.2c6.4,9.6,7.6,42.8,8.4,65.4v1.2c0.5,14.9,3.5,20.6,5.3,22.7L693.9,157.7z M259.7,57.6l0.3,0.5l-0.1,0.6
	l-7.5,31.2l-0.5,1.9l-1.7-1l-23.6-13.4c-11.3,3.4-15.5,12.6-16.1,14.2v57.5v1.5H209h-13.7h-1.5v-1.5V91.4c-0.1-0.9,0-1.7,0.3-2.5
	c-2-3.8-12.7-7.4-18.8-9.9l-20.9,11.9l-1.7,1l-0.5-1.9l-7.5-31.2l-0.1-0.6l0.3-0.5l4-7.2l-29.4,9c-1.5,2.2-2.4,4.7-3.4,9.4
	c-1.1,5-1.9,11.1-2.5,17.6c-1.2,13-1.7,27.6-2.1,38.6s-2.1,17.2-3.8,20.6c-1.3,2.6-2.6,3.6-3.2,4l0.1,203.7c0.1,0,0.2,0,0.3,0v0.1
	h0.1v0.3c0.4,0,1,0.1,1.8,0.1c0.3,0,0.5,0,0.8,0.1c1.5,0.1,3.4,0.2,5.8,0.4c0.8,0,1.7,0.1,2.5,0.1c7,0.4,16.7,0.9,27.2,1.5
	c2.6,0.1,5.3,0.3,8,0.4c12.9,0.6,26.4,1.2,37.4,1.5c0.6,0,1.2,0,1.7,0c4.6,0.1,8.7,0.2,12.1,0.2c24.1,0,81.2-3.3,95.1-4.1
	c1.2-0.1,2.1-0.1,2.6-0.2l-0.1-63.6l0,0v-18.1l0,0l0.1-122.5c-0.5-0.3-1.9-1.3-3.2-4c-1.7-3.4-3.4-9.6-3.8-20.6
	c-0.6-16.5-1.3-41.2-4.5-56.2c-1-4.7-2.1-7.6-3.5-9.8l-29.6-8.9L259.7,57.6z M599.3,49.9l-2.9-0.3c-0.2,0-22.4-2.4-50.6-2.4
	c-28.1,0-51.8,3.9-52.1,4l-3.2,0.5l0.6-1.1l-28.6,8.6c-0.3,0.4-0.4,0.6-0.5,0.8c-6.5,8.7-7.8,43.3-8.5,64.7v1.2
	c-0.5,16-4,21.8-6,23.7l0.1,203.6c0,0,0.1,0,0.2,0v0.3c0.1,0,0.3,0.1,0.6,0.1c0.9,0.1,2.6,0.3,5.9,0.5c10.7,0.6,23.3,5.4,38.1,10
	c1.4,0.4,2.8,0.9,4.3,1.3c13.8,4.1,29.4,7.7,47,7.7c0.5,0,1.1,0,1.6,0c17-0.2,31.7-3.7,44.8-7.7c1.5-0.5,3-0.9,4.5-1.4
	c14.2-4.5,26.5-9.1,38-9.7c7.2-0.4,9.7-0.7,10.4-0.9v-0.3h0.1l-0.1-42.5V290l0,0v-18.2l0,0l0.1-122.9c-2-2.4-5-8.4-5.5-23.2v-1.2
	c-0.7-21.5-1.8-56.8-8.3-65.5c-0.1-0.1-0.1-0.2-0.2-0.4L599,49.5L599.3,49.9z M448.6,290L448.6,290L448.6,290z M250.8,365.2
	c-14,4.4-30,8.6-48.6,8.9c-0.5,0-1.1,0-1.6,0c-19.7,0-36.8-4.5-51.6-9.1c-11.1-0.7-20-1.4-26.9-2.1c8.1,1.9,17.1,5.1,27.1,8.2
	c14.8,4.6,31.8,9,51.3,9c0.5,0,1.1,0,1.6,0c19-0.3,35.1-4.6,49.3-9.1c8.7-2.7,16.6-5.4,24-7.3C268.6,364.3,260.3,364.8,250.8,365.2z
	 M300,354.3c-6.8,0.4-71.6,4.3-97.7,4.3c-26.2,0-91.1-3.8-97.5-4.2v0.5v4.9c0.2,0,0.6,0.1,1,0.2c1,0.2,2.4,0.4,4.3,0.6
	c3.9,0.5,9.7,1.2,17.6,1.9c15.8,1.4,39.7,2.8,72.5,2.8c57.4,0,91.1-3.9,98.6-4.8c0.5-0.1,0.9-0.1,1.2-0.2v-5.4L300,354.3L300,354.3z
	 M545.4,374c-0.5,0-1.1,0-1.6,0c-18.9,0-35.5-4.2-50-8.6c-0.5-0.2-1.1-0.3-1.6-0.5c-14.8-4.6-27.4-9.3-37.9-9.9
	c-3.9-0.2-5.6-0.4-6.4-0.5v0.5v5.6c0.1,0,0.3,0.1,0.6,0.1c0.9,0.1,2.6,0.3,5.9,0.5c10.7,0.6,23.3,5.4,38.1,10
	c14.8,4.6,31.8,9,51.3,9c0.5,0,1.1,0,1.6,0c19-0.2,35.1-4.6,49.3-9.1s26.5-9.1,38-9.7c7.2-0.4,9.7-0.7,10.4-0.9V355v-0.6
	c-0.2,0-0.6,0.1-1.1,0.2c-1.4,0-4.1,0.3-9.2,0.6c-11.2,0.6-23.5,5.2-37.8,9.7c-0.5,0.2-1.1,0.3-1.6,0.5
	C579.6,369.7,563.8,373.8,545.4,374z M195.2,145.2h13.7v3.9h-13.7V145.2z M195.2,91.3v51.9h13.7V91.3c0,0,3.9-10.7,15.9-14.9L224,76
	C214.3,77.5,194.5,81.9,195.2,91.3z M202.2,134.2c-2,0-3.7-1.7-3.7-3.7s1.7-3.7,3.7-3.7s3.7,1.7,3.7,3.7
	C205.9,132.6,204.2,134.2,202.2,134.2z M202.2,110.7c-2,0-3.7-1.7-3.7-3.7s1.7-3.7,3.7-3.7s3.7,1.7,3.7,3.7S204.2,110.7,202.2,110.7
	z M202.2,127.6c-1.6,0-3,1.3-3,3c0,1.6,1.3,3,3,3c1.6,0,3-1.3,3-3C205.1,128.9,203.8,127.6,202.2,127.6z M200.9,130.3
	c-0.1-0.2,0-0.5,0.2-0.6s0.5,0,0.6,0.2s0,0.5-0.2,0.6C201.3,130.7,201,130.6,200.9,130.3z M202.1,131.7c-0.2,0.1-0.5,0-0.6-0.2
	s0-0.5,0.2-0.6s0.5,0,0.6,0.2C202.4,131.4,202.3,131.6,202.1,131.7z M202.1,129.8c-0.1-0.2,0-0.5,0.2-0.6s0.5,0,0.6,0.2
	s0,0.5-0.2,0.6C202.5,130.1,202.2,130,202.1,129.8z M203.2,131.2c-0.2,0.1-0.5,0-0.6-0.2s0-0.5,0.2-0.6s0.5,0,0.6,0.2
	C203.6,130.9,203.5,131.1,203.2,131.2z M202.2,104c-1.6,0-3,1.3-3,3c0,1.6,1.3,3,3,3c1.6,0,3-1.3,3-3
	C205.1,105.3,203.8,104,202.2,104z M200.9,106.8c-0.1-0.2,0-0.5,0.2-0.6s0.5,0,0.6,0.2s0,0.5-0.2,0.6S201,107,200.9,106.8z
	 M202.1,108.2c-0.2,0.1-0.5,0-0.6-0.2s0-0.5,0.2-0.6s0.5,0,0.6,0.2C202.4,107.8,202.3,108.1,202.1,108.2z M202.1,106.2
	c-0.1-0.2,0-0.5,0.2-0.6s0.5,0,0.6,0.2s0,0.5-0.2,0.6C202.5,106.6,202.2,106.5,202.1,106.2z M203.2,107.6c-0.2,0.1-0.5,0-0.6-0.2
	s0-0.5,0.2-0.6s0.5,0,0.6,0.2C203.6,107.3,203.5,107.5,203.2,107.6z M188.5,82.1c0.5,0.2,1,0.3,1.4,0.3c1,0,1.8-0.4,2.1-1.2
	c0.4-1.1-0.5-2.5-2-3c-0.5-0.2-1-0.3-1.4-0.3c-1,0-1.8,0.4-2.1,1.2C186.1,80.1,187,81.5,188.5,82.1z M188.2,79.6
	c0-0.2,0.1-0.3,0.4-0.3c0.2,0,0.5,0.2,0.5,0.4c0,0.2-0.1,0.3-0.4,0.3C188.5,79.9,188.3,79.7,188.2,79.6z M188.4,80.5
	c0-0.2,0.1-0.3,0.4-0.3s0.5,0.2,0.5,0.4c0,0.2-0.1,0.3-0.4,0.3C188.7,80.9,188.4,80.7,188.4,80.5z M189.6,80.6
	c0-0.2,0.1-0.3,0.4-0.3c0.2,0,0.5,0.2,0.5,0.4c0,0.2-0.1,0.3-0.4,0.3C189.9,81,189.7,80.8,189.6,80.6z M190.3,79.7
	c0,0.2-0.1,0.3-0.4,0.3c-0.2,0-0.5-0.2-0.5-0.4c0-0.2,0.1-0.3,0.4-0.3C190.1,79.3,190.3,79.5,190.3,79.7z"/>
</svg>
