<?xml version="1.0" encoding="utf-8"?>
<!-- Generator: Adobe Illustrator 25.3.0, SVG Export Plug-In . SVG Version: 6.00 Build 0)  -->
<svg version="1.1" id="Layer_1" xmlns="http://www.w3.org/2000/svg" xmlns:xlink="http://www.w3.org/1999/xlink" x="0px" y="0px"
	 viewBox="0 0 750.20001 400.10001" style="enable-background:new 0 0 750.20001 400.10001;" xml:space="preserve">
<style type="text/css">
	.st0{fill:current;}
</style>
<path class="st0" d="M104.97227,298.30093l0.21176-8.30096h-0.01521l-0.06885-139.09998
	c0.20001-0.20001,0.30005-0.29999,0.40002-0.40002c1.79999-2.09998,7.90002-9.89996,10.59998-22.29999l0.5-2.20001
	c1.5-7,4-18.69995,8.80005-30c5.27826-12.34302,12.27136-20.927,21.72827-26.44891l4.90326,20.34875l0.46716,1.93878
	l1.73315-0.98657L175.12854,78.957c6.09039,2.48871,16.79175,6.17896,18.80847,9.92987
	c-0.2113,0.80933-0.30658,1.64032-0.25348,2.49835v57.7627v1.5h1.5h13.70624h1.5v-1.5V91.61826
	c0.66205-1.62689,4.86981-10.82373,16.12616-14.19818l23.59662,13.43195l1.73315,0.98657l0.46716-1.93878l4.92706-20.44739
	c8.27118,4.94794,15.05078,12.92035,20.29095,23.71136c0.43359,0.89288,0.85663,1.80493,1.2691,2.73621
	c4.80005,10.79999,7.10004,21.90002,8.60004,29.20001c0.20001,1.09998,0.39996,2,0.59998,2.89996
	c2.70001,12.60004,8.79999,20.30005,10.5,22.5c0.30005,0.30005,0.80005,0.60004,1.20001,0.70001l-0.13763,138.79999h-0.00226
	l0.05743,8.30096L300,353.60001c-0.5,0.09998-1.39996,0.09998-2.59998,0.20001c-13.90002,0.79999-71,4.09998-95.10004,4.09998
	c-3.42499,0-7.52502-0.0625-12.07812-0.17346c-0.56915-0.01385-1.14539-0.0285-1.72821-0.04382
	c-11.07452-0.29175-24.5484-0.84674-37.44952-1.47662c-2.716-0.13263-5.40662-0.26855-8.04413-0.40607
	c-10.5-0.60004-20.20001-1.10004-27.20001-1.5c-0.89996-0.04999-1.75-0.09998-2.54999-0.14844
	c-2.40002-0.14532-4.34998-0.27661-5.84998-0.35156c-0.29999-0.02502-0.5813-0.04999-0.84222-0.07343
	c-0.78278-0.07031-1.38281-0.12659-1.75781-0.12659L104.97227,298.30093z M522.26068,48.0239
	c-0.18451,0.47412-0.51685,0.88031-0.96051,1.17609l-26,16.60004c-12,7-21.09998,17.79999-27.20001,32
	c-4.39996,10.09998-6.39996,19.89996-7.79999,27.09998c-0.20001,1.20001-0.5,2.29999-0.70001,3.29999
	c-1.59998,7.5-4.5,13.30005-6.59998,16.80005c-1,1.59998-2,3.09998-3,4.39996c-0.29999,0.29999-0.5,0.60004-0.70001,0.79999
	c-0.20001,0.30005-0.5,0.5-0.79999,0.60004l0.06891,139.19995h0.026l-0.09088,8.30096l-0.60419,55.19904
	c0.09998,0,0.29999,0.10004,0.59998,0.10004c0.90002,0.09998,2.60004,0.29999,5.90002,0.5
	c10.70001,0.59998,23.29999,5.39996,38.09998,10c14.79999,4.59998,31.79999,9,51.29999,9c0.5,0,1.09998,0,1.59998,0
	c19-0.20001,35.09998-4.60004,49.29999-9.10004s26.5-9.09998,38-9.70001c7.20001-0.39996,9.70001-0.70001,10.40002-0.89996
	l0.05408-55.09906l0.00818-8.30096h-0.09991l0.13788-139.39996c-0.90021,0-1.40021-0.29999-1.7002-0.79999
	c-0.90002-1.10004-2.09998-2.90002-3.09998-4.70001c-2.09998-3.5-5-9.29999-6.59998-16.79999
	c-0.20001-0.90002-0.40002-1.90002-0.59998-2.90002l-0.09998-0.40002c-1.5-7.09998-3.5-16.89996-7.79999-27.09998
	c-6.09998-14.20001-15.20001-25-27.09998-32c-0.09998,0-0.09998-0.09998-0.09998-0.09998l-24.20001-16.60004
	c-0.4527-0.36212-0.81122-0.81464-0.95154-1.41492c-7.38055-0.34857-15.9541-0.60748-25.17725-0.60748
	C537.36664,47.17758,529.36584,47.53006,522.26068,48.0239z M279.59998,94.60001c5.5,10.79999,7.29999,22.39996,8.79999,29.79999
	c0.20001,1,0.40002,2,0.60004,2.90002c2.59998,11.89996,8.39996,19.29999,9.79999,20.99994l50,9.60004L365,83.69998
	L255.75555,50.65689l3.93762,6.91229l0.28668,0.51257l-0.13757,0.57104l-2.30151,9.55133
	C266.86401,73.40231,272.88666,81.42514,279.59998,94.60001z M56.29999,157.89999l49.29999-9.79999
	c1.80005-2.10004,7.40002-9.40002,9.80005-20.90002l0.5-2.09998c1.5-7.10004,4-19,9-30.60004
	c5.86041-13.85193,12.35925-20.91895,21.93152-26.1803l-2.32935-9.66687l-0.13763-0.57098l0.28674-0.51263l3.82648-6.84125
	L40.09998,83.69998L56.29999,157.89999z M493.69147,51.15695l-3.13397,0.52826l-5.25745,1.61481L384.70001,83.69998
	l16.40002,73.40002L449,147.80002c0.10004-0.20001,0.29999-0.40002,0.5-0.60004c0.70001-0.89996,1.70001-2.29999,2.79999-4.09998
	c1.90002-3.40002,4.60004-8.79999,6.20001-16c0.20001-1,0.40002-2.10004,0.70001-3.29999c1.5-7.30005,3.5-17.20001,8-27.60004
	c6.40002-14.79999,17.10004-25.5,29.60004-32.79999l23.87256-15.26276C504.83313,49.30612,493.85175,51.12991,493.69147,51.15695z
	 M571.73236,47.82217L594.5,63.39999c12.40002,7.29999,23.29999,18.5,29.70001,33.40002c4.5,10.39996,6.59998,20,8.09998,27.29999
	c0.20001,1.20001,0.5,2.29999,0.70001,3.29999c1.5,7.10004,4.20001,12.60004,6.20001,15.90002
	c1,1.69995,2.09998,3.29999,2.90002,4.29999c0.29999,0.09998,3.29999,0.70001,4,0.79999
	c1.20001,0.20001,1.70001,0.29999,1.90002,0.40002l45.70001,8.39996l16.40002-73.39996L596.4306,49.62106l-0.04749-0.00525
	C596.23706,49.5997,586.4765,48.53909,571.73236,47.82217z M195.18353,149.14792h13.70624v-3.92926h-13.70624V149.14792z
	 M223.95392,75.9617l0.79309,0.45148c-11.97797,4.26624-15.85724,14.92346-15.85724,14.92346v51.90552h-13.70624V91.33664
	C194.54114,81.91855,214.33472,77.53348,223.95392,75.9617z M205.87201,130.52878c0-2.04828-1.66644-3.71466-3.71472-3.71466
	s-3.71472,1.66638-3.71472,3.71466c0,2.04834,1.66644,3.71472,3.71472,3.71472S205.87201,132.57712,205.87201,130.52878z
	 M205.87201,106.95236c0-2.04828-1.66644-3.71466-3.71472-3.71466s-3.71472,1.66638-3.71472,3.71466
	s1.66644,3.71472,3.71472,3.71472S205.87201,109.00064,205.87201,106.95236z M545.77136,45.67758
	c28.61176,0,50.77637,2.44733,50.77637,2.44733l-7.01172-12.22345c0,0-15.52936-3.57648-44.14111-3.57648
	c-28.61169,0-43.8587,3.48236-43.8587,3.48236l-8.09412,13.87048C493.44208,49.67783,517.15967,45.67758,545.77136,45.67758z
	 M205.12201,130.52878c0,1.63739-1.32739,2.96472-2.96472,2.96472c-1.63739,0-2.96472-1.32733-2.96472-2.96472
	c0-1.63733,1.32733-2.96466,2.96472-2.96466C203.79462,127.56412,205.12201,128.89145,205.12201,130.52878z M201.53888,130.56088
	c0.22906-0.09967,0.33398-0.36615,0.23431-0.59528c-0.09967-0.22906-0.36621-0.33398-0.59528-0.23431
	c-0.22913,0.09967-0.33398,0.36621-0.23431,0.59528S201.30975,130.66055,201.53888,130.56088z M202.28461,131.14096
	c-0.09973-0.22906-0.36621-0.33398-0.59534-0.23431c-0.22906,0.09967-0.33398,0.36621-0.23431,0.59528
	c0.09967,0.22913,0.36621,0.33398,0.59528,0.23431C202.27936,131.63657,202.38428,131.37009,202.28461,131.14096z
	 M202.71423,130.04953c0.22906-0.09967,0.33398-0.36621,0.23431-0.59528c-0.09967-0.22913-0.36621-0.33405-0.59528-0.23438
	c-0.22913,0.09967-0.33398,0.36621-0.23431,0.59528C202.21863,130.04428,202.48511,130.1492,202.71423,130.04953z
	 M203.45996,130.62961c-0.09967-0.22913-0.36621-0.33405-0.59534-0.23438c-0.22906,0.09967-0.33398,0.36621-0.23431,0.59534
	c0.09967,0.22906,0.36621,0.33398,0.59528,0.23431C203.45471,131.12521,203.55963,130.85867,203.45996,130.62961z
	 M205.12201,106.95236c0,1.63739-1.32739,2.96472-2.96472,2.96472c-1.63739,0-2.96472-1.32733-2.96472-2.96472
	c0-1.63733,1.32733-2.96466,2.96472-2.96466C203.79462,103.9877,205.12201,105.31503,205.12201,106.95236z M201.53888,106.98447
	c0.22906-0.09967,0.33398-0.36621,0.23431-0.59528s-0.36621-0.33398-0.59528-0.23431
	c-0.22913,0.09967-0.33398,0.36621-0.23431,0.59528S201.30975,107.08414,201.53888,106.98447z M202.28461,107.56454
	c-0.09973-0.22906-0.36621-0.33398-0.59534-0.23431c-0.22906,0.09967-0.33398,0.36621-0.23431,0.59528
	s0.36621,0.33398,0.59528,0.23431C202.27936,108.06015,202.38428,107.79361,202.28461,107.56454z M202.71423,106.47311
	c0.22906-0.09973,0.33398-0.36621,0.23431-0.59534c-0.09967-0.22906-0.36621-0.33398-0.59528-0.23431
	c-0.22913,0.09967-0.33398,0.36621-0.23431,0.59528C202.21863,106.46786,202.48511,106.57278,202.71423,106.47311z
	 M203.45996,107.05313c-0.09967-0.22906-0.36621-0.33398-0.59534-0.23431c-0.22906,0.09967-0.33398,0.36621-0.23431,0.59528
	c0.09967,0.22913,0.36621,0.33405,0.59528,0.23438C203.45471,107.5488,203.55963,107.28226,203.45996,107.05313z
	 M186.54657,79.05679c0.29144-0.75067,1.13019-1.17639,2.12195-1.17645c0.4505-0.00006,0.93237,0.08777,1.40918,0.27289
	c1.52637,0.59265,2.4201,1.95801,1.99628,3.04968c-0.2915,0.75061-1.13031,1.17645-2.12201,1.17645
	c-0.4505,0-0.93237-0.08777-1.40918-0.27289C187.01648,81.51382,186.12268,80.14847,186.54657,79.05679z M188.72546,79.9274
	c0.23938,0.01648,0.40613-0.12323,0.37256-0.31207c-0.03363-0.18878-0.25494-0.35522-0.49432-0.37164
	c-0.23932-0.01648-0.40613,0.12323-0.3725,0.31207C188.26483,79.74454,188.48608,79.91098,188.72546,79.9274z M189.83179,79.32809
	c-0.23938-0.01642-0.40619,0.12329-0.37256,0.31207c0.03363,0.18884,0.25494,0.35522,0.49426,0.3717
	c0.23938,0.01648,0.40619-0.12323,0.37256-0.31207C190.29242,79.51102,190.07111,79.34457,189.83179,79.32809z M188.89789,80.89615
	c0.23938,0.01648,0.40619-0.12329,0.37256-0.31207c-0.03363-0.18884-0.25488-0.35522-0.49426-0.3717
	s-0.40613,0.12329-0.37256,0.31207C188.43726,80.71329,188.65857,80.87967,188.89789,80.89615z M190.12598,80.98062
	c0.23938,0.01642,0.40613-0.12329,0.3725-0.31207c-0.03357-0.18884-0.25488-0.35522-0.49426-0.3717
	c-0.23932-0.01648-0.40613,0.12323-0.3725,0.31207S189.8866,80.96414,190.12598,80.98062z M202.19998,374.10001
	c-0.5,0-1.10001,0-1.60001,0c-19.7,0-36.79999-4.5-51.59999-9.10001c-11.10001-0.70001-20-1.39999-26.9-2.10001
	c8.1,1.90002,17.1,5.10001,27.1,8.20001c14.8,4.60001,31.8,9,51.3,9c0.5,0,1.10001,0,1.60001,0
	c19-0.30002,35.10001-4.60001,49.3-9.10001c8.70001-2.69998,16.60001-5.39999,24-7.29999
	c-6.79999,0.60001-15.10001,1.10001-24.59999,1.5C236.8,369.60001,220.8,373.79999,202.19998,374.10001z M298.80002,360.49997
	c-7.5,0.89999-41.20001,4.79999-98.60001,4.79999c-32.8,0-56.70001-1.39999-72.50001-2.79999
	c-7.9-0.69998-13.7-1.39999-17.6-1.89999c-1.9-0.20001-3.3-0.39999-4.3-0.60001c-0.4-0.10001-0.8-0.20001-1-0.20001v-5.39999
	c6.4,0.40002,71.3,4.20001,97.5,4.20001c26.09999,0,90.90001-3.89999,97.7-4.29999v6
	C299.70001,360.39999,299.29999,360.39999,298.80002,360.49997z M642.00006,354.60004c0.5-0.10001,0.89996-0.20001,1.09998-0.20001
	v6.10001c-0.70001,0.19998-3.20001,0.5-10.40002,0.89999c-11.5,0.60001-23.79999,5.20001-38,9.70001
	s-30.29999,8.89999-49.29999,9.10001c-0.5,0-1.09998,0-1.59998,0c-19.5,0-36.5-4.39999-51.29999-9
	c-14.80002-4.60001-27.39999-9.39999-38.10001-10c-3.29999-0.20001-5-0.39999-5.89999-0.5c-0.30002,0-0.5-0.10001-0.60001-0.10001
	v-6.10001c0.79999,0.10001,2.5,0.29999,6.39999,0.5c10.5,0.60001,23.10001,5.29999,37.89999,9.89999
	c14.80002,4.60001,32.00003,9.10001,51.60001,9.10001c0.5,0,1.09998,0,1.59998,0C564.5,373.80002,580.79999,369.40002,595,364.90002
	c14.29999-4.5,26.59998-9.10001,37.79999-9.70001C637.90002,354.89999,640.59998,354.60001,642.00006,354.60004z"/>
</svg>
