<?xml version="1.0" encoding="utf-8"?>
<!-- Generator: Adobe Illustrator 25.3.0, SVG Export Plug-In . SVG Version: 6.00 Build 0)  -->
<svg version="1.1" id="Layer_1" xmlns="http://www.w3.org/2000/svg" xmlns:xlink="http://www.w3.org/1999/xlink" x="0px" y="0px"
	 viewBox="0 0 750.2 400.1" style="enable-background:new 0 0 750.2 400.1;" xml:space="preserve">
<path d="M235.8,103.6c-7.2,0-14-0.1-20.5-0.3c0,0.7,0,1.5,0.1,2.1c0.1,3.7,0.2,6.8,0,8.5c-0.9,6-6.7,9.1-6.9,9.2
	c-0.1,0.1-0.2,0.1-0.4,0.1s-0.4-0.1-0.6-0.2l-4.3-4.4c-0.2-0.2-0.2-0.4-0.2-0.7s0.2-0.5,0.4-0.6c0,0,3.7-1.9,4.7-4.9
	c0.9-2.3,1.2-5.7,1.4-9.3c-27.5-0.9-48.2-3.1-58.9-4.4h0.2c-9,44.7-29.3,154.7-31.6,192.9c32.1,7,59.1,5.5,77,2.7l39.7-99v-91.7
	H235.8z M329.4,95.4c-1.1-5.2-2-8.8-2.4-10.4l-1.3-0.2l0,0l0,0c-3.2,0.2-11.7,0.8-22.9,1.4c-10.8,0.5-24.6,1.1-38.8,1.6
	c0,1.8,0,4-0.1,6.7c0,0.6,0,1.2,0,1.8c0,1.7-0.1,3.5,0,5.2c30.5-1.2,52.4-4.1,61.6-5.5C327.3,95.8,328.6,95.6,329.4,95.4z
	 M215.3,96.5c0,1.7,0,3.5,0,5.2c6.9,0.2,14.1,0.3,21.7,0.3c7.5,0,14.6-0.1,21.4-0.3c0-1.7,0.1-3.6,0-5.4c-0.1-3.5-0.3-6.8-1.1-8.4
	c-7,0.2-13.9,0.3-20.6,0.3l0,0h-0.1h-0.2c-6.5,0-13.3-0.1-20.1-0.3C215.6,89.5,215.3,92.9,215.3,96.5z M324.6,97.8
	c0.7,3.4,1.5,7.4,2.4,11.8c9.6,47.3,29.3,145,31.7,181.4c1.8-0.4,3.7-0.9,5.5-1.3c-2.4-39.5-26.1-154.1-34.5-192.7
	C328.7,97.1,327,97.4,324.6,97.8z M197.9,294.1c12.2-2.1,19.9-4.7,21.6-5.3l16.3-66.8h1.5l15.7,66.8c1.9,0.6,10.7,3.4,24.3,5.4
	l-40.7-96.6L197.9,294.1z M143.5,97.8c-8,39.4-29.5,153-31.8,192.1c2,0.5,3.9,1,5.8,1.4c2.4-38.5,22.6-148.1,31.6-192.8
	C146.5,98.2,144.6,98,143.5,97.8z M323.1,98c-10.4,1.5-31.2,4-59.1,5.1c0.1,4.4,0.4,8.5,1.3,11c1,3.3,5.2,10,5.2,10
	c0.2,0.3,0.1,0.8-0.2,1l-5.7,4.1c-0.1,0.1-0.3,0.1-0.5,0.1c-0.1,0-0.1,0-0.2,0c-0.2-0.1-0.4-0.2-0.5-0.4c-0.2-0.4-4.3-9.6-5.1-15.3
	c-0.2-1.7-0.1-4.8,0-8.5c0-0.6,0-1.3,0.1-2c-6.6,0.2-13.6,0.3-21,0.3v91.8l41.4,98.2l-1.4,0.6c18.9,2.8,47.1,4.3,79.8-2.9
	c-2.3-36.1-22.1-134.1-31.7-181.5C324.6,105.4,323.8,101.4,323.1,98z M209.5,101.6c0-1.7,0-3.4,0-5c0-0.9,0-1.8,0-2.7
	c0-2.5,0-4.5,0-6.1c-14.3-0.4-28.3-1-39.2-1.6c-11.1-0.6-19.6-1.2-22.9-1.4l-1.3,0.2c-0.4,1.6-1.2,5.6-2.4,11.3
	c0.9,0.1,2.3,0.3,4.2,0.6C157.7,98.1,179.6,100.5,209.5,101.6z M225.9,87.1L225.9,87.1L225.9,87.1z M205.1,118.2l3.1,3.3
	c1.3-0.9,5-3.6,5.6-7.8c0.2-1.5,0.1-4.6,0-8.2c-0.3-10.1-0.3-18,2.4-19.6c0.6-0.3,1.5-0.6,2.8,0.2l-0.4,0.7l0,0l6.2,0.3
	c-4.3-4.4-7.9-4.8-9.7-4.6c-1.9,0.2-3.1,1-3.5,1.8c-0.6,0.9-0.5,5.4-0.5,9.7c0.1,6.5,0.2,14.6-1.5,19
	C208.8,115.5,206.4,117.3,205.1,118.2z M254.7,85.9c1.3-0.7,2.2-0.5,2.8-0.2c2.8,1.6,2.7,9.5,2.4,19.6c-0.1,3.6-0.2,6.7,0,8.2
	c0.6,4.5,3.6,11.5,4.6,14l4.3-3.1c-1.1-1.8-4.1-6.9-5-9.7c-1.7-4.4-1.5-13.1-1.4-20.2c0.1-4.7,0.2-9.5-0.4-10.4
	c-0.5-0.8-1.6-1.6-3.5-1.8c-1.8-0.2-5.4,0.2-9.7,4.6l6.2-0.3L254.7,85.9z M421.4,97.8c-8,39.4-29.5,153.1-31.8,192.1
	c2,0.5,4,1,6,1.4c2.4-38.4,22.6-148.1,31.6-192.8C424.4,98.2,422.5,98,421.4,97.8z M607.5,97c-1.1,0.2-3.1,0.5-5.9,0.9
	c0.7,3.4,1.5,7.3,2.4,11.7c3.1,15.3,7.2,35.8,11.5,57.8l0.1,0.1l0,0c9,46.3,18.6,99.2,20.2,123.8c2.1-0.5,4.2-1,6.4-1.5
	C639.7,250.2,616,135.6,607.5,97z M428.7,98.8c-3.2,15.9-7.8,40.2-12.6,66.5l27-34.2c2.9-3.7,7.2-5.8,11.9-5.8h25
	c25.7,0.4,64.2,0.7,69.2,0.2v-0.2H575c4.7,0,9,2.1,11.9,5.8l26.5,33.6c-4.1-20.9-8-40.2-10.9-54.8c-0.9-4.4-1.7-8.3-2.4-11.7
	c-14,2-44.6,5.5-85.3,5.5C474,103.6,442.9,100.5,428.7,98.8z M475.8,294.1c12.2-2.1,19.9-4.7,21.6-5.3l16.3-66.8h1.5l15.7,66.8
	c1.9,0.6,10.7,3.4,24.3,5.4l-40.7-96.6L475.8,294.1z M585.7,132c-2.6-3.3-6.5-5.2-10.7-5.2h-25c-2,0.4-12.4,0.8-70,0h-25
	c-4.2,0-8.1,1.9-10.7,5.2l-28.7,36.3l-0.1-0.1c-8.4,46.8-17,99.4-18.5,123.4c32,7,59,5.5,76.9,2.7l39.7-99v-68.1h0.8h0.8v68.1
	l41.4,98.2l-1.4,0.6c18.7,2.8,46.7,4.3,79-2.7c-1.5-24.4-11.1-77.2-20.1-123.6L585.7,132z M514.9,102c44.4,0,76.8-4.2,88.5-6
	c1.7-0.3,3-0.5,3.8-0.6c-1.1-5.2-2-8.8-2.4-10.4l-1.3-0.2l0,0l0,0c-3.2,0.2-11.7,0.8-22.9,1.4c-17.8,0.9-43.7,2-66.1,2l0,0h-0.1
	h-0.2c-22.4-0.1-48.3-1.1-66.1-2c-11.1-0.6-19.6-1.2-22.9-1.4l-1.3,0.2c-0.4,1.6-1.2,5.6-2.4,11.3c0.9,0.1,2.3,0.3,4.2,0.6
	C438.3,98.4,471,102,514.9,102z"/>
</svg>
