<?xml version="1.0" encoding="utf-8"?>
<!-- Generator: Adobe Illustrator 25.3.0, SVG Export Plug-In . SVG Version: 6.00 Build 0)  -->
<svg version="1.1" id="Layer_1" xmlns="http://www.w3.org/2000/svg" xmlns:xlink="http://www.w3.org/1999/xlink" x="0px" y="0px"
	 viewBox="0 0 750.2 400.1" style="enable-background:new 0 0 750.2 400.1;" xml:space="preserve">
<path d="M296.7,145.4c-1.3-2.6-2.6-6.7-3.3-13.3c-2,6.5-15.4,54.1,6.4,112.2l0.1-94.9C299.4,149.1,298,148.1,296.7,145.4z
	 M110.8,131.9c-0.7,6.8-2,11-3.3,13.6s-2.6,3.6-3.2,4v95.1C126.7,185.7,112.5,137.4,110.8,131.9z M104.4,361.7
	C104.4,361.7,104.3,361.7,104.4,361.7 M299.7,246.4c-24.4-63.3-6.9-114.7-6.7-115.2l0.1-0.3l0.2,0.1c-0.2-1.8-0.3-3.9-0.4-6.1
	c-0.6-16.5-1.3-41.2-4.5-56.2c-1-4.7-2.1-7.6-3.5-9.8l-33.3-10c-0.5-0.1-0.9-0.1-0.9-0.1c0,1.9-0.3,5.7-0.9,9.1
	c-2.9,19-14.7,44.4-46.3,44.6h-1.9c-31,0-43.1-24.7-46.4-43.5c-0.7-3.6-1-10.1-1-10.1l-34.9,10.6c-1.5,2.2-2.4,4.7-3.4,9.4
	c-1.1,5-1.9,11.1-2.5,17.6c-1.2,13-1.7,27.6-2.1,38.6c-0.1,2.2-0.2,4.2-0.4,6l0.3-0.1l0.1,0.3c0.2,0.5,17.7,52.2-7,115.6l0.1,109.9
	v2.4v2.5c0,0,0.1,0,0.2,0c4.3,0.9,57.2,12.2,95.8,11.6c42.9-0.6,99.5-11.7,99.5-11.7v-2.2v-22.7l-0.2-64.8V246.4z M643.1,243.4
	c-22.8-61.9-5.9-111.7-5.7-112.2l0.1-0.3l0.3,0.1h0.2c-0.1-1.6-0.2-3.4-0.3-5.2v-1.2c-0.7-21.5-1.8-56.8-8.3-65.5
	c-0.1-0.1-0.1-0.2-0.2-0.4L593.9,48l-0.3-0.1c0,0-1.5-0.1-4.2-0.2c-2.7-0.2-6.3-0.3-10.9-0.6c-9.1-0.5-21.3-0.9-33.5-0.9
	c-18.3,0-36.2,1.3-43.9,1.8l-1.6,0.2l-36.9,11.1c-0.3,0.4-0.4,0.6-0.5,0.8c-6.5,8.7-7.8,43.3-8.5,64.7v1.2c-0.1,1.8-0.2,3.4-0.3,5
	h0.1l0.1,0.3c0.2,0.5,17.2,50.6-5.9,112.7l0.1,117.3c0,0,0.3,0.3,0.4,0.3c0.1,0.1,0.2,0.2,0.4,0.2c0,0,47.8,24.4,95.3,24.4
	s99.4-24.7,99.4-24.7v-3.3l0.1-86.3h-0.2L643.1,243.4L643.1,243.4z M638,131.7c-1.4,4.3-15.6,51.3,5.1,109.4l0.1-92.2
	C641.5,146.9,639.1,142.2,638,131.7L638,131.7z M447.6,241.7c20.3-56.1,7.8-101.9,5.6-109.3c-1.1,11.1-3.9,15.6-5.6,17.2V241.7z
	 M452.2,131.1c0.1-1.6,0.2-3.3,0.3-5.1v-1.2c0.8-22.6,1.9-55.2,8.4-64.8l-76.8,23.4l13.4,60.2L452.2,131.1z M397.7,144.3l3,13.5
	l46.5-9.1c1.5-1.8,3.9-6.2,4.9-16.8L397.7,144.3z M104.6,148.1c0.5-0.5,1.3-1.4,2.1-3.1c1.2-2.4,2.5-6.5,3.2-13.1l-56.7,13.5l2.9,13
	l47.7-9.7l0.2-0.1C104.1,148.5,104.4,148.4,104.6,148.1z M109.9,131.1c0.3-1.9,0.4-4,0.5-6.3c0.6-16.5,1.3-41.2,4.6-56.4
	c0.9-4.2,1.3-6.4,2.7-8.9L39.4,83.3L53,144.6L109.9,131.1z M352.2,145.6l-57.9-13.7c0.7,6.4,2,10.4,3.2,12.9
	c0.8,1.6,1.6,2.5,2.1,3.1c0.3,0.3,0.5,0.4,0.6,0.5l0.2,0.1l49,10L352.2,145.6L352.2,145.6z M366,83.3L286.1,59
	c1.3,2.4,2.2,5,3.1,9.2c3.2,15.2,4,39.9,4.6,56.4c0.1,2.4,0.2,4.6,0.4,6.5l58,13.8h0.2L366,83.3z M638.8,125.8
	c0.1,2,0.2,3.8,0.3,5.4l57.7,13.5l13.7-61.3l-80.1-24.2c6.4,9.6,7.6,42.8,8.4,65.4L638.8,125.8L638.8,125.8z M639.2,132
	c1,10.3,3.4,14.7,4.9,16.5l49.8,9.2l2.7-12.3L639.2,132z M200.7,381c-20.1,0-48.4-7.2-64.9-12.2c-10.5-1.5-19.9-3.2-26.9-4.5
	c17.1,7.2,58.6,22,91.8,22c33.5,0,76.8-14.7,94.9-22c-7.2,1.2-17,2.8-28.1,4.3C249.9,373.9,221.1,381,200.7,381z M33.9,85l16.2,75.4
	l4.5-1.2L37.9,83.6L33.9,85z M378.6,85l16.1,74.8l4.5-1.1l-16.6-75.1L378.6,85z M350.7,159.2l4.6,1.2L371.5,85l-4-1.4L350.7,159.2z
	 M712.1,83.6l-16.7,75.1l4.5,1.1L716,85L712.1,83.6z M240.9,53c0.3-2.6,0.4-4.5,0.4-5.3c-32.4,15.1-71.4,2.6-77.8,0.5
	c0,0.8,0.1,2.5,0.4,4.9C188.8,60.6,216,60.5,240.9,53z M201.7,100.6c0.1,0,0.2,0,0.3,0h1.5c35.4-0.2,45.1-33.6,45.3-51.7l-6.5-1.1
	c-0.1,2.6-0.7,13-5,23.5c-6.4,15.6-18.1,23.9-33.8,24H202c-0.1,0-0.2,0-0.3,0c-36,0-38.9-41.3-39.1-47l-6.5,1.2
	C156.5,67.5,166.5,100.6,201.7,100.6z M592.2,47.2c-4.1-3.1-18.8-5.7-46.5-5.7s-41.7,2.6-45.5,5.7c5.4-0.4,25.3-1.8,45.6-1.8
	C566,45.4,586.5,46.8,592.2,47.2z"/>
</svg>
