<?xml version="1.0" encoding="utf-8"?>
<!-- Generator: Adobe Illustrator 25.3.0, SVG Export Plug-In . SVG Version: 6.00 Build 0)  -->
<svg version="1.1" id="Layer_1" xmlns="http://www.w3.org/2000/svg" xmlns:xlink="http://www.w3.org/1999/xlink" x="0px" y="0px"
	 viewBox="0 0 750.2 400.1" style="enable-background:new 0 0 750.2 400.1;" xml:space="preserve">
<path d="M263.2,129.1c0.1,4.4,0.4,8.5,1.3,11c1,3.3,5.2,10,5.2,10c0.2,0.3,0.1,0.8-0.2,1l-5.7,4.1c-0.1,0.1-0.3,0.1-0.5,0.1
	c-0.1,0-0.1,0-0.2,0c-0.2-0.1-0.4-0.2-0.5-0.4c-0.2-0.4-4.3-9.6-5.1-15.3c-0.2-1.7-0.1-4.8,0-8.5c0-0.6,0-1.3,0.1-2
	c-6.6,0.2-13.6,0.3-21,0.3v91.8l28.1,68.5c15.3,0.4,40.4-1,71.2-7.3l-27.3-156.9C297.2,127.1,281.8,128.4,263.2,129.1z M328.6,121.5
	c-1.2-5.3-2-8.9-2.4-10.4l-1.3-0.2l0,0l0,0c-3.2,0.2-11.7,0.8-22.9,1.4c-10.8,0.5-24.6,1.1-38.8,1.6c0,1.8,0,4-0.1,6.7
	c0,0.6,0,1.2,0,1.8c0,1.7-0.1,3.5,0,5.2c30.5-1.2,52.4-4.1,61.6-5.5C326.5,121.8,327.8,121.6,328.6,121.5z M310.1,125.6l27.3,156.8
	c6.1-1.3,12.5-2.7,19.1-4.4c-2.3-38.6-20.3-123-27.5-155C326.7,123.4,320.2,124.4,310.1,125.6z M142.5,123.8
	c-7.3,32.6-25.1,115.9-27.3,154.2c5.5,1.4,10.8,2.7,16,3.8l27.1-156C149.9,124.9,144.5,124.1,142.5,123.8z M235.1,129.7
	c-7.2,0-14-0.1-20.5-0.3c0,0.7,0,1.5,0.1,2.1c0.1,3.7,0.2,6.8,0,8.5c-0.9,6-6.7,9.1-6.9,9.2c-0.1,0.1-0.2,0.1-0.4,0.1
	s-0.4-0.1-0.6-0.2l-4.3-4.4c-0.2-0.2-0.2-0.4-0.2-0.7c0-0.2,0.2-0.5,0.4-0.6c0,0,3.7-1.9,4.7-4.9c0.9-2.3,1.2-5.7,1.4-9.3
	c-20.4-0.7-37.2-2.1-48.8-3.3l-27.2,156.2c32.3,6.8,58.6,8.3,74.3,7.9l28-68.5V129.7z M214.5,122.6c0,1.7,0,3.5,0,5.2
	c6.9,0.2,14.1,0.3,21.7,0.3c7.5,0,14.6-0.1,21.4-0.3c0-1.7,0.1-3.6,0-5.4c-0.1-3.5-0.3-6.8-1.1-8.4c-7,0.2-13.9,0.3-20.6,0.3l0,0
	h-0.1h-0.2c-6.5,0-13.3-0.1-20.1-0.3C214.8,115.6,214.5,118.9,214.5,122.6z M208.8,290c3.6-0.1,6.5-0.3,8.8-0.6l18.2-43l18.2,43
	c2.3,0.3,5.3,0.5,8.9,0.6l-27.1-66.3L208.8,290z M208.8,127.6c0-1.7,0-3.4,0-5c0-0.9,0-1.8,0-2.7c0-2.5,0-4.5,0-6.1
	c-14.3-0.4-28.3-1-39.2-1.6c-11.1-0.6-19.6-1.2-22.9-1.4l-1.3,0.2c-0.4,1.6-1.3,5.5-2.6,11.2c0.9,0.1,2.4,0.3,4.5,0.6
	C156.9,124.1,178.8,126.6,208.8,127.6z M487.3,290c3.5-0.1,6.4-0.3,8.7-0.6l18.2-43l18.2,43c2.4,0.3,5.4,0.5,9.1,0.6l-27.1-66.3
	L487.3,290z M607.3,123c-2.3,0.4-8.8,1.4-18.9,2.6l27.3,156.8c6.1-1.3,12.5-2.7,19.1-4.4C632.5,239.4,614.5,155,607.3,123z
	 M514.6,129.7c-33.1,0-59.8-2-76.3-3.7l-27.2,156.2c32.4,6.8,58.7,8.3,74.5,7.9l28.7-70.4l28.8,70.4c15.3,0.3,40.3-1.1,71-7.3
	l-27.3-156.9C570.5,127.6,545.4,129.7,514.6,129.7z M420.8,123.8c-7.3,32.6-25.1,115.9-27.3,154.2c5.5,1.4,10.8,2.7,16,3.8l27.1-156
	C428.3,124.9,422.8,124.1,420.8,123.8z M514.6,128.1c44.4,0,76.8-4.2,88.5-6c1.8-0.3,3.1-0.5,3.9-0.6c-1.2-5.3-2-8.9-2.4-10.4
	l-1.3-0.2l0,0l0,0c-3.2,0.2-11.7,0.8-22.9,1.4c-17.8,0.9-43.7,2-66.1,2l0,0h-0.1H514c-22.4-0.1-48.3-1.1-66.1-2
	c-11.1-0.6-19.6-1.2-22.9-1.4l-1.3,0.2c-0.4,1.6-1.3,5.5-2.6,11.2c0.9,0.1,2.4,0.3,4.5,0.6C438,124.5,470.7,128.1,514.6,128.1z
	 M204.3,144.2l3.1,3.3c1.3-0.9,5-3.6,5.6-7.8c0.2-1.5,0.1-4.6,0-8.2c-0.3-10.1-0.3-18,2.4-19.6c0.6-0.3,1.5-0.6,2.8,0.2l-0.4,0.7
	l0,0l6.2,0.3c-4.3-4.4-7.9-4.8-9.7-4.6c-1.9,0.2-3.1,1-3.5,1.8c-0.6,0.9-0.5,5.4-0.5,9.7c0.1,6.5,0.2,14.6-1.5,19
	C208,141.6,205.6,143.4,204.3,144.2z M254.3,112.6l-0.4-0.7c1.3-0.7,2.2-0.5,2.8-0.2c2.8,1.6,2.7,9.5,2.4,19.6
	c-0.1,3.6-0.2,6.7,0,8.2c0.6,4.5,3.6,11.5,4.6,14l4.3-3.1c-1.1-1.8-4.1-6.9-5-9.7c-1.7-4.4-1.5-13.1-1.4-20.2
	c0.1-4.7,0.2-9.5-0.4-10.4c-0.5-0.8-1.6-1.6-3.5-1.8c-1.8-0.2-5.4,0.2-9.7,4.6L254.3,112.6L254.3,112.6z M247,113L247,113L247,113z"
	/>
</svg>
