<?xml version="1.0" encoding="utf-8"?>
<!-- Generator: Adobe Illustrator 25.3.0, SVG Export Plug-In . SVG Version: 6.00 Build 0)  -->
<svg version="1.1" id="Layer_1" xmlns="http://www.w3.org/2000/svg" xmlns:xlink="http://www.w3.org/1999/xlink" x="0px" y="0px"
	 viewBox="0 0 750.2 400.1" style="enable-background:new 0 0 750.2 400.1;" xml:space="preserve">
<path d="M202.2,374.1c-0.5,0-1.1,0-1.6,0c-19.7,0-36.8-4.5-51.6-9.1c-11.1-0.7-20-1.4-26.9-2.1c8.1,1.9,17.1,5.1,27.1,8.2
	c14.8,4.6,31.8,9,51.3,9c0.5,0,1.1,0,1.6,0c19-0.3,35.1-4.6,49.3-9.1c8.7-2.7,16.6-5.4,24-7.3c-6.8,0.6-15.1,1.1-24.6,1.5
	C236.8,369.6,220.8,373.8,202.2,374.1z M632.8,355.2c-11.2,0.6-23.5,5.2-37.8,9.7c-14.2,4.5-30.5,8.9-49.6,9.1c-0.5,0-1.1,0-1.6,0
	c-19.6,0-36.8-4.5-51.6-9.1c-14.8-4.6-27.4-9.3-37.9-9.9c-3.9-0.2-5.6-0.4-6.4-0.5v6.1c0.1,0,0.3,0.1,0.6,0.1
	c0.9,0.1,2.6,0.3,5.9,0.5c10.7,0.6,23.3,5.4,38.1,10c14.8,4.6,31.8,9,51.3,9c0.5,0,1.1,0,1.6,0c19-0.2,35.1-4.6,49.3-9.1
	s26.5-9.1,38-9.7c7.2-0.4,9.7-0.7,10.4-0.9v-6.1c-0.2,0-0.6,0.1-1.1,0.2C640.6,354.6,637.9,354.9,632.8,355.2z M315.3,379.7h37
	c0.1-1.2,0.3-3.5,0.6-6.8h-38L315.3,379.7z M660.9,379.7H698c0.1-1.2,0.3-3.5,0.6-6.8h-38L660.9,379.7z M694.5,107
	c-3-12.7-11.3-23.5-22.9-29.6c-12.3-6.6-27.8-13.3-46.1-19.8l0-0.1l-1-0.3c-0.5-0.2-1.1-0.4-1.6-0.6c0,0-0.1,0-0.1,0l-10.3-3.2
	L593,50.7c0,0,4.2,15.3,16.8,22.3c1.3,0.7,2.5,1.6,3.5,2.7c13.2,13.8,17.3,31.8,20.6,46.5c2.7,11.9,5,22.1,11.2,26.9l0.2,0.1l0.4,21
	c0.4,0.1,0.9,0.5,0.9,0.9l13.7,199.5h38.3c1.3-16.7,4-52.8,5.2-94.4C705.6,224,705.2,152,694.5,107z M447.8,171l-1.3-21.5l0.2-0.2
	c6.2-4.8,8.5-15.1,11.2-26.9c4.1-18.1,9.2-40.6,30.5-54.8c7.8-4,16.8-19,16.8-19l-15.6,3l-13,4c-20.6,7-38.6,14.5-52.2,21.8
	c-11.5,6.2-19.8,17-22.9,29.6c-10.7,45-11,117-9.4,169.5c1.3,41.5,3.9,77.7,5.2,94.4h38.2l0.2,0.1l12.1-199.9V171z M397.5,373
	c0.3,3.3,0.5,5.6,0.6,6.8h37.1l0.4-6.8l-0.1,0H397.5z M633,122.5c-3.5-15.3-7.7-33.4-22.2-47.2l-0.4,0c-2.2-2-11.9-7.3-14.9-15
	c-1.8-4.6-3.2-7-4.9-10.4c-8.7-3.2-46.4-3.3-46.4-3.3s-26.8,0.3-37.3,2.2c-1.7,3.4-8.6,13.4-12.5,16.3c-4,2.9-5.8,3.9-5.8,3.9
	c-20.7,14-25.9,35.6-29.9,53.4c-2.7,11.9-5.1,22.3-11.4,27.3l1.2,19.7l-0.8,183.9c0.1,0,0.3,0.1,0.6,0.1c0.9,0.1,2.6,0.3,5.9,0.5
	c10.7,0.6,23.3,5.4,38.1,10c14.8,4.6,31.8,9,51.3,9c0.5,0,1.1,0,1.6,0c19-0.2,35.1-4.6,49.3-9.1s26.5-9.1,38-9.7
	c7.2-0.4,9.7-0.7,10.4-0.9l0.2-159.5l0.2-1c1.1-21.7,1.2-21.9,1.4-22.1l-0.4-20.9C638.1,144.8,635.7,134.5,633,122.5z M52,373
	c0.3,3.3,0.5,5.6,0.6,6.8h37.1l0.4-6.8l-0.1,0H52z M104,149.3c6.2-4.8,8.5-15.1,11.3-26.9c4.6-20,10.3-45,37.2-58.7
	c-7.9-6.1-6.2-13.4-6.2-13.4l-15.7,5.4c-0.2,0-0.3-0.1-0.4-0.2l0.1,0.3c-20.6,7.1-37.9,14.4-51.4,21.6C67.3,83.5,59,94.3,56,107
	c-10.7,45-11,117-9.4,169.5c1.3,41.5,3.9,77.7,5.2,94.4H90l0.2,0.1l12.1-199.9c0-0.2,0.1-0.4,0.3-0.6l1.4-21
	C104,149.5,104,149.3,104,149.3z M288.4,122.6c-3.3-14.3-7.1-31-18.8-44.3l-0.1-0.1l-2-2.2l-0.6-0.5c-2.4-2.4-5.1-4.7-8.3-6.9
	l-5.9-3.9l-0.1,0.1l-5.2,2.6l-9,3.5l-5.1,1.5l-2.5,0.7c-4.8,1.1-13.4,2.2-18.9,2.7l-2.3,0.3h-2.1v19.3v63.3H199V86.3V75.7
	c-0.2,0-0.4,0.1-0.6,0.1c-2.3,0-5.2-0.3-8-0.6c-4.4-0.5-8.9-1.1-11.4-1.6c0,0-0.1,0-0.1,0c-0.2,0-0.3-0.1-0.4-0.1l-2.7-0.7l-4.7-1.2
	c-0.9-0.3-1.9-0.6-2.8-0.9l-0.1-0.1l-9.6-3.8v0l0,0l0,0.1c-2-1-3.7-2-5.4-3l-0.2,0.3c-26.6,13.5-32.3,38.3-36.8,58.1
	c-2.7,12-5.1,22.3-11.4,27.4l-1.4,20.2c0.2,0,0.3,0.1,0.5,0.2c0.1,0.1,0.2,0.2,0.2,0.3c0.1,0.1,0.1,0.3,0.1,0.5l0.1,76.5l0.3,0.1
	l0.1,105.9c0.5,0,1.4,0.1,2.6,0.2c2,0.1,4.8,0.3,8.4,0.5c3.8,0.2,8.5,0.5,13.6,0.7l0.8,0c4,0.2,8.3,0.5,12.8,0.7
	c1.1,0.1,2.3,0.1,3.4,0.2c0,0,0,0,0,0c0.1,0,0.2,0,0.3,0c1.1,0.1,2.2,0.1,3.4,0.2c0.1,0,0.3,0,0.4,0c0,0,0,0,0,0
	c1.1,0.1,2.2,0.1,3.4,0.2c0,0,0,0,0,0c0.1,0,0.3,0,0.4,0c0,0,0,0,0,0c1.1,0.1,2.3,0.1,3.4,0.2c0,0,0,0,0,0c0.1,0,0.2,0,0.3,0
	c1.2,0.1,2.4,0.1,3.5,0.2c0.1,0,0.2,0,0.2,0c0.2,0,0.4,0,0.7,0c2.3,0.1,4.5,0.2,6.8,0.3c0.6,0,1.2,0,1.8,0.1c0.6,0,1.2,0,1.9,0.1
	c1.2,0,2.4,0.1,3.6,0.1c0,0,0,0,0,0c0,0,0,0,0,0c1.2,0,2.4,0.1,3.5,0.1c0,0,0,0,0,0c0,0,0,0,0,0c1.1,0,2.2,0.1,3.3,0.1
	c0.3,0,0.6,0,0.9,0c0.8,0,1.6,0,2.3,0.1c0.3,0,0.7,0,1,0c0.7,0,1.5,0,2.2,0.1c0.3,0,0.6,0,0.9,0c0.7,0,1.4,0,2.1,0
	c0.3,0,0.6,0,0.9,0c0.7,0,1.3,0,2,0c0.3,0,0.6,0,0.8,0c0.6,0,1.3,0,1.9,0c0.1,0,0.3,0,0.5,0v0c1.1,0,2.2,0,3.2,0c1.6,0,3.3,0,5.1,0
	v0c18.2-0.3,48.1-1.7,69.1-2.9l0.8,0c9-0.5,16.3-0.9,20.2-1.1c1.2-0.1,2.1-0.1,2.6-0.2l0.2-106.8c0.1,0,0.2,0,0.3,0.1v0v-4.6l0-0.1
	l0-7v0l0.2-64.1c0-0.4,0.2-0.7,0.6-0.9l-1.4-20.2C293.5,144.9,291.1,134.5,288.4,122.6z M326.1,77.4c-13.3-7.1-30.3-14.3-50.5-21.3
	l-0.1-0.3l-1.6-0.5L274,55c-0.3,0-0.6-0.1-0.9-0.1l-13.6-4.7c0,0,1.8,7.3-6.2,13.4c0.3,0.1,0.5,0.1,0.8,0.2
	c-0.3,0.1-0.5,0.3-0.8,0.4c25.7,13.9,31.3,38.3,35.8,58.1c2.7,11.9,5.1,22.1,11.3,26.9l0.2,0.1l1.4,20.7c0.2,0.1,0.3,0.3,0.4,0.5
	l0.1,0.1c0.1,0.1,0.1,0.2,0.1,0.4l12,199.8H353c1.3-16.7,4-52.8,5.2-94.4C360,224,359.6,152,348.9,107
	C345.9,94.3,337.6,83.5,326.1,77.4z M544.7,44.6c6.2,0,11.7,0,16.3,0.1c12.2,0.4,25.4,1.5,39,4.6c-5.3-14.9-7.3-22.5-10.7-24.4
	c-1.5-0.5-3.4-1.1-3.6-1.2c0,0,0,0,0-0.1c0,0-13.7-2.5-39.7-2.5c-26,0-39.8,2.8-39.8,2.8s-2.1,0.6-3.6,1.2
	c-3.5,1.9-5.5,9.5-10.7,24.4c0,0,16.5-3.7,41.6-4.8C536.7,44.7,540.5,44.6,544.7,44.6z M277,355.7l-0.2,0c-0.7,0-1.4,0.1-2.1,0.1
	c-0.4,0-0.8,0-1.1,0.1c-0.3,0-0.6,0-0.9,0.1c-0.4,0-0.9,0-1.3,0.1c-0.3,0-0.6,0-1,0.1c-0.4,0-0.7,0-1.1,0.1c-0.4,0-0.9,0-1.3,0.1
	c-0.3,0-0.7,0-1,0.1c-0.4,0-0.8,0-1.2,0.1c-0.4,0-0.7,0-1.1,0.1c-0.4,0-0.8,0-1.2,0.1c-0.4,0-0.8,0-1.2,0.1c-0.4,0-0.8,0-1.2,0.1
	c-0.4,0-0.8,0-1.2,0.1c-0.3,0-0.7,0-1,0.1c-0.5,0-1,0.1-1.5,0.1c-0.2,0-0.3,0-0.5,0c-0.6,0-1.2,0.1-1.9,0.1c-0.1,0-0.3,0-0.4,0
	c-2.8,0.1-5.6,0.3-8.4,0.4c-0.2,0-0.5,0-0.7,0c-0.6,0-1.1,0.1-1.7,0.1c-0.2,0-0.5,0-0.7,0c-0.6,0-1.1,0.1-1.7,0.1
	c-0.2,0-0.5,0-0.7,0c-0.6,0-1.2,0.1-1.8,0.1c-0.2,0-0.4,0-0.6,0c-0.6,0-1.2,0.1-1.8,0.1c-0.2,0-0.4,0-0.6,0c-0.6,0-1.2,0-1.8,0.1
	c-0.2,0-0.3,0-0.5,0c-0.6,0-1.3,0.1-1.9,0.1c-0.1,0-0.2,0-0.2,0c-1.8,0.1-3.7,0.1-5.5,0.2c-1.8,0.1-3.5,0.1-5.3,0.2c0,0-0.1,0-0.1,0
	c-0.6,0-1.2,0-1.8,0.1c-0.1,0-0.3,0-0.4,0c-0.5,0-1.1,0-1.6,0c-0.2,0-0.3,0-0.5,0c-0.5,0-1,0-1.5,0c-0.2,0-0.3,0-0.5,0
	c-0.5,0-1,0-1.5,0c-0.1,0-0.3,0-0.4,0c-0.5,0-1,0-1.5,0c-0.1,0-0.2,0-0.4,0c-0.5,0-1,0-1.5,0c-0.1,0-0.2,0-0.3,0c-0.5,0-1,0-1.5,0
	c-1.8,0-3.5,0-5,0c-1,0-2.2,0-3.3,0c-0.4,0-0.9,0-1.3,0c0,0,0,0,0,0c-3.5,0-7.5-0.1-11.8-0.3c-0.9,0-1.9-0.1-2.8-0.1
	c-1.5,0-3-0.1-4.5-0.2c-0.5,0-1.1,0-1.6-0.1c-7.1-0.3-14.6-0.6-22.1-0.9c0,0-0.1,0-0.1,0c-1.7-0.1-3.3-0.2-4.9-0.2
	c-1.7-0.1-3.5-0.2-5.2-0.3c-0.5,0-1,0-1.4-0.1c-2.4-0.1-4.8-0.2-7.2-0.4c-2.8-0.1-5.6-0.3-8.2-0.4c-1.2-0.1-2.4-0.1-3.6-0.2
	c-0.6,0-1.2-0.1-1.7-0.1c-0.1,0-0.2,0-0.3,0c-0.4,0-0.8,0-1.1-0.1c-0.1,0-0.2,0-0.2,0c-0.3,0-0.6,0-0.9-0.1c-0.2,0-0.4,0-0.5,0
	c-0.4,0-0.7,0-1.1-0.1c0,0,0,0,0,0c-0.8,0-1.5-0.1-2.3-0.1c-0.1,0-0.3,0-0.4,0c-0.3,0-0.6,0-0.8,0c-0.1,0-0.2,0-0.2,0
	c-0.3,0-0.6,0-0.8,0c-0.1,0-0.3,0-0.4,0c-0.2,0-0.4,0-0.7,0c-0.1,0-0.3,0-0.4,0c-0.2,0-0.4,0-0.6,0c-0.2,0-0.3,0-0.5,0
	c-0.2,0-0.4,0-0.5,0c-0.2,0-0.3,0-0.5,0c-0.1,0-0.2,0-0.3,0c-0.3,0-0.5,0-0.8,0c0,0-0.1,0-0.1,0c-0.2,0-0.5,0-0.7,0c0,0-0.1,0-0.1,0
	c-0.7,0-1.4-0.1-1.9-0.1c0,0-0.1,0-0.1,0c-0.1,0-0.2,0-0.3,0c-0.4,0-0.7,0-1-0.1v5.4c0.2,0,0.6,0.1,1,0.2c1,0.2,2.4,0.4,4.3,0.6
	c3.9,0.5,9.7,1.2,17.6,1.9c1,0.1,2,0.2,3,0.3c0.7,0.1,1.4,0.1,2.1,0.2c0.4,0,0.7,0.1,1.1,0.1c15.6,1.2,37.5,2.3,66.3,2.3
	c2.4,0,4.8,0,7.1,0c0,0,0,0,0,0c33.2-0.2,57.8-1.7,73.4-3c0,0,0,0,0,0c0.8-0.1,1.5-0.1,2.2-0.2c0,0,0,0,0.1,0
	c0.7-0.1,1.4-0.1,2.1-0.2c0,0,0.1,0,0.1,0c0.6-0.1,1.3-0.1,1.9-0.2c0,0,0.1,0,0.1,0c0.6-0.1,1.2-0.1,1.7-0.2c0.1,0,0.1,0,0.2,0
	c0.5-0.1,1-0.1,1.5-0.2c0.1,0,0.1,0,0.2,0c0.5,0,0.9-0.1,1.4-0.1c0.1,0,0.2,0,0.2,0c0.4,0,0.8-0.1,1.2-0.1c0.1,0,0.2,0,0.3,0
	c0.3,0,0.7-0.1,1-0.1c0.1,0,0.2,0,0.3,0c0.3,0,0.6-0.1,0.9-0.1c0.1,0,0.1,0,0.2,0c0.3,0,0.6-0.1,0.9-0.1c0,0,0.1,0,0.1,0
	c0.6-0.1,1.1-0.1,1.5-0.2c0.5-0.1,0.9-0.1,1.2-0.2v-6C297.7,354.4,288.8,355,277,355.7L277,355.7z M206,144.2l-2,0v0.8v0.2v0.8h2
	V144.2z M206,141h-2.1l-1.5,0.5v0.8v0.2v0.8l1.5,0.5h2.1V141z M206,135.6h-2.1l-1.5,0.5v0.8v0.2v0.8l1.5,0.5h2.1V135.6z M206,130.2
	h-2.1l-1.5,0.5v0.8v0.2v0.8l1.5,0.5h2.1V130.2z M206,119.5h-2.1l-1.5,0.5v0.8v0.2v0.8l1.5,0.5h2.1V119.5z M206,124.9h-2.1l-1.5,0.5
	v0.8v0.2v0.8l1.5,0.5h2.1V124.9z M206,114.1h-2.1l-1.5,0.5v0.8v0.2v0.8l1.5,0.5h2.1V114.1z M206,146.3h-2.1l-1.5,0.5v0.8v0.2v0.8
	l1.5,0.5h2.1V146.3z M206,117.3l-2,0v0.8v0.2v0.8h2V117.3z M206,106.6l-2,0v0.8v0.2v0.8h2V106.6z M206,112l-2,0v0.8v0.2v0.8h2V112z
	 M201.3,69.9c0-0.3,0.1-0.6,0.3-0.8c-0.4-0.5-0.9-1.1-1.4-1.8v4.2C200.5,70.8,200.9,70.3,201.3,69.9z M206,138.8l-2,0v0.8v0.2v0.8h2
	V138.8z M206,128.1l-2,0v0.8v0.2v0.8h2V128.1z M206,133.4l-2,0v0.8v0.2v0.8h2V133.4z M206,122.7l-2,0v0.8v0.2v0.8h2V122.7z
	 M206,108.8h-2.1l-1.5,0.5v0.8v0.2v0.8l1.5,0.5h2.1V108.8z M206,149.5l-2,0v0.8v0.2v0.8h2V149.5z M202,126.2v-0.8h-1.8v1.8l1.8,0
	v-0.8V126.2z M202,136.9v-0.8h-1.8v1.8l1.8,0v-0.8V136.9z M202,131.6v-0.8h-1.8v1.8l1.8,0v-0.8V131.6z M202,120.8V120h-1.8v1.8
	l1.8,0V121V120.8z M202,115.5v-0.8h-1.8v1.8l1.8,0v-0.8V115.5z M202,110.1v-0.8h-1.8v1.8l1.8,0v-0.8V110.1z M202,142.3v-0.8h-1.8
	v1.8l1.8,0v-0.8V142.3z M202,147.7v-0.8h-1.8v1.8l1.8,0v-0.8V147.7z M203.7,123.7v-0.2v-0.8l-1.5-0.5h-1.9v2.8h1.9l1.5-0.5V123.7z
	 M203.7,129.1v-0.2v-0.8l-1.5-0.5h-1.9v2.8h1.9l1.5-0.5V129.1z M203.7,134.4v-0.2v-0.8l-1.5-0.5h-1.9v2.8h1.9l1.5-0.5V134.4z
	 M203.7,145.1V145v-0.8l-1.5-0.5h-1.9v2.8h1.9l1.5-0.5V145.1z M203.7,118.3v-0.2v-0.8l-1.5-0.5h-1.9v2.8h1.9l1.5-0.5V118.3z
	 M203.7,139.8v-0.2v-0.8l-1.5-0.5h-1.9v2.8h1.9l1.5-0.5V139.8z M203.7,107.6v-0.2v-0.8l-1.5-0.5h-1.9v2.8h1.9l1.5-0.5V107.6z
	 M203.7,113v-0.2V112l-1.5-0.5h-1.9v2.8h1.9l1.5-0.5V113z M206,100v-0.2v-1.7h-2.1l-1.5,0.5v0.8v0.2v0.8l1.5,0.5h2.1V100z
	 M206,106.3v-2.8v-0.1h-0.3c0,0,0,0.1-0.1,0.1h-1.8l-1.5,0.5v0.7v0v0.1v0.1v0.1v0.7v0.1l1.5,0.5L206,106.3L206,106.3z M206,94.6
	v-0.2v-1.6h-2.1l-1.5,0.5v0.8v0.2v0.8l1.5,0.5h2.1V94.6z M206,96l-2,0v0.8V97v0.8h2V96z M206,85.3l-2,0v0.8v0.2V87h2V85.3z
	 M206,90.6l-2,0v0.8v0.2v0.8h2V90.6z M206,103L206,103v-1.7l-2,0v0.8v0.2v0.8L206,103L206,103z M206,87.4h-2.1l-1.5,0.5v0.8v0.2v0.8
	l1.5,0.5h2.1V87.4z M202,105L202,105v-0.2v-0.1v-0.1V104h-1.3c0,0-0.1-0.1-0.1-0.1h-0.4v0.1v1.7v0.1l1.8,0v-0.1V105z M202,99.5v-0.8
	h-1.8v1.8l1.8,0v-0.8V99.5z M200.3,84.4l1.8,0v-0.8v-0.2v-0.1c-0.5-0.1-1-0.3-1.4-0.7h-0.4V84.4z M202,94.1v-0.8h-1.8v1.8l1.8,0
	v-0.8V94.1z M202,88.7v-0.8h-1.8v1.8l1.8,0v-0.8V88.7z M203.7,102.3v-0.2v-0.8l-1.5-0.5h-1.9v2.6v0.1v0.1h1.9l1.5-0.5V102.3z
	 M203.7,97v-0.2V96l-1.5-0.5h-1.9v2.8h1.9l1.5-0.5V97z M203.7,86.2v-0.2v-0.8l-1.5-0.5h-1.9v2.8h1.9l1.5-0.5V86.2z M200.3,82.2
	L200.3,82.2c0.1,0,0-0.1,0-0.1V82.2z M203.7,91.6v-0.2v-0.8l-1.5-0.5h-1.9v2.8h1.9l1.5-0.5V91.6z M206,82h-0.3
	c-0.1,0.1-0.2,0.3-0.3,0.4c-0.5,0.6-1.2,0.9-1.9,0.9h-1c0,0,0,0-0.1,0v0v0.2v0.8l1.5,0.5h2.1V82z M200.3,151.8h1.9l1.5-0.5v-0.8
	v-0.2v-0.8l-1.5-0.5h-1.9V151.8z M203.9,72.4v-0.8c-0.5-0.5-1.1-1.1-1.8-1.9c-0.1,0.1-0.1,0.3-0.1,0.4v2.4c0,0.5,0.4,1,1,1
	S203.9,72.9,203.9,72.4z M209.6,54.9c0,0-2.6-1.3-7-1.3c-1.5,0-3.2,0.1-5,0.5c0,9.6,8.5,16.7,8.5,16.7L209.6,54.9z M206,157.1v-0.8
	c0,0,0,0,0,0v-1.5v-2.3V152h-2.1l-1.5,0.5v0.1l-0.2,0l0,0h-2v3.8c0,0,0,0,0,0v0.7H206z M220.4,51.4c0,0,0,0.1,0,0.1l-8.2,2.1
	c0,0-2.3,13.6-4.5,17.2c0,2.3,0,3.1,0,3.4h4.6l0.1-0.1c1.6-0.2,6.2-0.9,6.9-1.1c2.9,0,14.4-2.1,18.4-3.7c5.5-2.1,10.4-4,15.8-7.8
	c5.3-3.7,4.5-10.5,4.4-11c0,0-5.6-24.5-11.7-26.4c0,0-2.1,9.3-5.9,16.7C237.8,45.6,236.3,49.2,220.4,51.4z M151.9,61.7
	c5.4,3.7,10.3,5.7,15.8,7.8c4,1.6,15.4,3.7,18.4,3.7c0.8,0.1,7,1.1,7.4,1.1h4.6c0,0-0.3-5.6-0.3-10.2c-2.3-3.7-3.4-10.4-3.4-10.4
	l-9.5-2.3c-15.8-2.3-17.4-5.8-19.8-10.4c-3.8-7.3-5.9-16.7-5.9-16.7c-6.1,1.9-11.7,26.4-11.7,26.4C147.5,51.2,146.6,58,151.9,61.7z
	 M201.1,82.4c0.4,0.4,0.9,0.7,1.4,0.7h1c0.5,0,1-0.2,1.4-0.7c0.6-0.6,0.9-1.6,0.8-2.5l-0.5-7.1l-0.4-0.3c0,0-0.1-0.1-0.2-0.1v0.2
	c0,0.9-0.7,1.7-1.7,1.7s-1.7-0.7-1.7-1.7V71c-0.3,0.5-0.5,1-0.6,1.7l-0.5,7.2C200.2,80.8,200.5,81.8,201.1,82.4z M200.9,79.9
	c0-0.7,0.6-1.3,1.3-1.3h1.5c0.7,0,1.3,0.6,1.3,1.3v0.8c0,0.7-0.6,1.3-1.3,1.3h-1.5c-0.7,0-1.3-0.6-1.3-1.3V79.9z M202.2,81.1h1.5
	c0.2,0,0.4-0.2,0.4-0.4v-0.8c0-0.2-0.2-0.4-0.4-0.4h-1.5c-0.2,0-0.4,0.2-0.4,0.4v0.8C201.8,80.9,202,81.1,202.2,81.1z M203.5,44.3
	c24,0,32.6,0.8,32.6,0.8s8.7-15.2,8.5-21.2c0,0-14.4-2.5-41.7-2.5c-27.3,0-41.8,2.8-41.8,2.8s1.6,14.3,9.3,22.4
	C170.4,46.5,179.5,44.3,203.5,44.3z"/>
</svg>
