<?xml version="1.0" encoding="utf-8"?>
<!-- Generator: Adobe Illustrator 25.3.0, SVG Export Plug-In . SVG Version: 6.00 Build 0)  -->
<svg version="1.1" id="Layer_1" xmlns="http://www.w3.org/2000/svg" xmlns:xlink="http://www.w3.org/1999/xlink" x="0px" y="0px"
	 viewBox="0 0 750.2 400.1" style="enable-background:new 0 0 750.2 400.1;" xml:space="preserve">
<path d="M358.2,188.9c-0.2-5.7-0.5-11.3-0.9-16.8c-0.3-5.6-0.7-11-1.2-16.4c-0.6-7.2-1.4-14.1-2.3-20.8s-1.9-13.1-3.1-19.1
	c-0.6-3-1.2-5.9-1.9-8.7c-0.4-1.6-0.8-3.1-1.4-4.7c-0.5-1.5-1.2-3-1.8-4.5c-0.3-0.7-0.7-1.4-1.1-2.1c-0.8-1.4-1.6-2.8-2.5-4.1
	c-0.5-0.7-0.9-1.3-1.4-1.9c-3.9-5-8.8-9.3-14.6-12.3c-10.5-5.6-23.3-11.3-38.2-16.9l1.6,5.5c0.1,0.3,0.1,0.6,0.2,0.9
	c1,4.5,2.1,16.3,2.7,23.4l0.2,2.3c0.8,8.8,0.9,15.4,1,22.4c0.1,3.2,0.1,6.6,0.2,10.1c0.4,11.5,2.3,17.4,3.7,20.4
	c0.9,1.8,1.9,3.1,3,3.8l0.2,0.1l1.4,20.7c0.2,0.1,0.3,0.3,0.4,0.5l0.1,0.1c0.1,0.1,0.1,0.2,0.1,0.4l12,199.8H353
	c1.3-16.7,4-52.8,5.2-94.4c0.3-9.8,0.6-20.4,0.7-31.3c0.2-12.7,0.1-26-0.2-39.2C358.6,200.3,358.5,194.6,358.2,188.9z M117.8,60.3
	c0.1-0.1,0.1-0.1,0.1-0.2L117.8,60.3z M116.6,60.6c0,0.1,0,0.1-0.1,0.2h0.1V60.6z M90.1,373L90.1,373H52c0.1,1.6,0.3,3,0.4,4.1
	c0,0.3,0,0.6,0.1,0.8c0,0.4,0.1,0.7,0.1,1.1c0,0.2,0,0.3,0,0.4s0,0.3,0,0.4h37.1l0,0l0,0l0,0L90.1,373L90.1,373L90.1,373z M300,150
	c-0.1-0.1-0.1-0.1-0.2-0.2l0,0c-0.3-0.2-0.5-0.4-0.8-0.7c-0.8-0.8-1.5-1.8-2.2-3.1c-1.5-3-3.4-9.1-3.9-20.8
	c-0.1-3.6-0.2-6.9-0.2-10.1c-0.1-7-0.2-13.6-1-22.3l-0.2-2.3c-0.6-7-1.7-18.8-2.7-23.3c-0.7-3.2-1.3-5.3-2.1-7v-0.1
	c-0.4-0.1-0.8-0.3-1.2-0.5l0,0c-2.3-0.9-4.7-1.7-7.1-2.6c-0.9-0.3-1.8-0.7-2.8-1l-0.1-0.3l-1.6-0.5L274,55c-0.1,0-0.3,0-0.5,0
	c-0.1,0-0.3,0-0.5,0l-13.6-4.7c0,0,1.8,7.3-6.2,13.4c0.3,0.1,0.5,0.1,0.8,0.2c-0.3,0.1-0.5,0.3-0.8,0.4l-3.6,1.8l0,0l-2.5,1.3
	l-9,3.5l-7.6,2.2c-4.8,1.1-13.4,2.2-18.9,2.7l-2.3,0.3h-2.1v82.6H199v-83c-0.2,0-0.4,0.1-0.6,0.1c-6.3-0.1-16.8-1.6-19.9-2.3
	l-7.4-1.8c-0.9-0.3-1.9-0.6-2.8-0.9l-0.1-0.1l-7-2.8v-0.1l-2.5-1c-1.8-0.9-3.5-1.7-5.1-2.6l-0.4-0.2c-0.1-0.1-0.2-0.1-0.3-0.2
	l-0.4-0.2c-0.3-0.1-0.5-0.3-0.8-0.4c-7.2-6-5.5-12.9-5.5-12.9L133,54.9c-0.6,0.1-1,0.3-1.2,0.4l-1,0.4c0,0,0,0-0.1,0
	c-0.2,0-0.3-0.1-0.5-0.2l0.1,0.2c-0.1,0-0.1-0.1-0.2-0.1l0.1,0.2c-4.3,1.5-8.3,3-12.3,4.5c-0.6,1.8-1.2,3.8-1.8,6.8
	c-1,4.4-2,16.2-2.7,23.2l-0.2,2.3c-0.8,8.8-0.9,15.4-1,22.3c-0.1,3.2-0.1,6.6-0.2,10.1c-0.4,11.7-2.3,17.8-3.9,20.8
	c-0.3,0.6-0.6,1.1-1,1.6c-0.7,0.9-1.5,1.7-2.4,2.5l-1.4,20.2c0.2,0,0.3,0.1,0.5,0.2c0.2,0.2,0.3,0.5,0.3,0.8l0.1,76.5l0.3,0.1
	l0.1,105.9c0.5,0,1.4,0.1,2.6,0.2c2,0.1,4.8,0.3,8.4,0.5c3.8,0.2,8.5,0.5,13.6,0.7h0.8c4,0.2,8.3,0.5,12.8,0.7
	c1.1,0.1,2.3,0.1,3.4,0.2c0.1,0,0.2,0,0.4,0c1.1,0.1,2.2,0.1,3.4,0.2c0.1,0,0.3,0,0.4,0c1.1,0.1,2.2,0.1,3.4,0.2c0.2,0,0.3,0,0.5,0
	c1.1,0.1,2.3,0.1,3.4,0.2c0.1,0,0.2,0,0.4,0c1.2,0.1,2.4,0.1,3.5,0.2c0.1,0,0.2,0,0.2,0c5,0.2,10,0.4,14.8,0.6l0,0
	c1.2,0,2.4,0.1,3.5,0.1l0,0c8.5,0.3,16.2,0.5,22,0.5c1.6,0,3.3,0,5.1,0l0,0c0.4,0,0.8,0,1.2,0c0.2,0,0.4,0,0.6,0c0.4,0,0.7,0,1.1,0
	c0.3,0,0.5,0,0.8,0c0.4,0,0.7,0,1.1,0c0.3,0,0.6,0,0.8,0c0.4,0,0.8,0,1.2,0c0.3,0,0.5,0,0.8,0c0.4,0,0.8,0,1.2,0c0.3,0,0.6,0,0.9,0
	c0.4,0,0.8,0,1.2,0c0.3,0,0.6,0,0.9,0c0.4,0,0.8,0,1.2,0c0.3,0,0.7,0,1,0c0.4,0,0.8,0,1.2,0c0.3,0,0.6,0,1,0s0.9,0,1.3,0
	c0.2,0,0.4,0,0.6,0c1.1,0,2.2-0.1,3.3-0.1c0.2,0,0.4,0,0.6,0c0.5,0,1,0,1.5-0.1c0.3,0,0.6,0,0.9,0c0.5,0,0.9,0,1.4-0.1
	c0.3,0,0.7,0,1,0c0.4,0,0.9,0,1.3-0.1c0.3,0,0.7,0,1,0c0.5,0,0.9,0,1.4-0.1c0.3,0,0.6,0,1,0c0.5,0,0.9,0,1.4-0.1
	c0.4,0,0.8,0,1.1-0.1c0.4,0,0.9,0,1.3-0.1c0.4,0,0.7,0,1.1,0c0.5,0,0.9,0,1.4-0.1c0.3,0,0.7,0,1,0c0.5,0,0.9,0,1.4-0.1
	c0.4,0,0.8,0,1.3-0.1c0.4,0,0.8,0,1.2-0.1c0.4,0,0.8,0,1.3-0.1c0.9,0,1.8-0.1,2.6-0.1c0.3,0,0.6,0,0.9,0c0.4,0,0.8,0,1.3-0.1
	c0.4,0,0.8,0,1.2-0.1c0.4,0,0.8,0,1.2-0.1c0.4,0,0.8,0,1.2-0.1c0.4,0,0.7,0,1.1-0.1c0.5,0,0.9,0,1.4-0.1c0.3,0,0.6,0,1,0
	c0.5,0,0.9,0,1.4-0.1c0.4,0,0.8,0,1.1-0.1c0.4,0,0.8,0,1.2-0.1c0.3,0,0.7,0,1-0.1c0.5,0,0.9,0,1.4-0.1c0.3,0,0.6,0,0.9,0
	c0.4,0,0.8,0,1.2-0.1c0.4,0,0.8,0,1.1-0.1c0.3,0,0.5,0,0.8,0c0.4,0,0.9,0,1.3-0.1c0.7,0,1.4-0.1,2-0.1h0.8c9-0.5,16.3-0.9,20.2-1.1
	c1.2-0.1,2.1-0.1,2.6-0.2l0.2-106.8c0.1,0,0.2,0,0.3,0.1v-4.6l0.1-47.2l0.3-0.5l0.1-23.6c0-0.4,0.2-0.7,0.6-0.9l-0.1-1.1L300,150z
	 M103.9,149.2l0.2-0.1c1.1-0.7,2.1-2,3-3.8c1.5-3,3.3-8.9,3.7-20.4c0.1-3.6,0.2-6.9,0.2-10.1c0.1-7,0.2-13.6,1-22.4l0.2-2.3
	c0.6-7.1,1.7-18.9,2.7-23.4c0.6-2.5,1.1-4.4,1.6-5.9c-14.6,5.5-27.3,11.1-37.6,16.6c-8,4.2-14.4,10.6-18.6,18.3
	c-0.4,0.7-0.7,1.4-1.1,2.1c-0.7,1.4-1.3,2.9-1.8,4.5c-0.5,1.5-1,3.1-1.4,4.7c-0.3,1.4-0.7,2.8-1,4.3c-1.3,5.8-2.4,12.1-3.3,18.6
	c-0.5,3.3-0.9,6.6-1.3,10c-0.4,3.4-0.8,6.9-1.1,10.4c-0.2,1.8-0.3,3.5-0.5,5.3c-0.9,10.8-1.6,21.9-2.1,33.3
	c-1.2,30.2-0.9,61.3-0.1,87.6c0.3,9.1,0.6,17.9,1,26.3c0.2,4.8,0.4,9.5,0.7,14c0.1,1.1,0.1,2.3,0.2,3.4c0.8,15.5,1.7,29.1,2.5,39.3
	c0.1,1.5,0.2,2.9,0.3,4.2c0.2,2.7,0.4,5.1,0.5,7.1H90l0.2,0.1L102.3,171c0-0.2,0.1-0.4,0.3-0.6V170l-0.1-0.2l0.1-1.2L103.9,149.2z
	 M250.8,365.2c-14,4.4-30,8.6-48.6,8.9c-0.5,0-1.1,0-1.6,0c-19.7,0-36.8-4.5-51.6-9.1c-1.4-0.1-2.7-0.2-4.1-0.3
	c-6.6-0.4-12.3-0.9-17.3-1.3c-1-0.1-1.9-0.2-2.9-0.3c-0.9-0.1-1.8-0.2-2.7-0.3l0,0l0,0c1,0.2,2,0.5,3.1,0.8c0.9,0.2,1.8,0.5,2.8,0.8
	c1.6,0.5,3.3,1,5,1.5c1.3,0.4,2.6,0.8,3.9,1.2c1.4,0.4,2.8,0.9,4.2,1.3c0.6,0.2,1.3,0.4,1.9,0.6c0.4,0.1,0.8,0.2,1.1,0.4
	c0.4,0.1,0.8,0.3,1.2,0.4l0,0l0,0c0.1,0,0.2,0.1,0.4,0.1c1.2,0.4,2.3,0.7,3.5,1.1c14.8,4.6,31.8,9,51.3,9c0.5,0,1.1,0,1.6,0
	c1.6,0,3.1-0.1,4.6-0.2s3-0.2,4.5-0.3c1-0.1,2-0.2,2.9-0.3c1.9-0.2,3.9-0.4,5.7-0.7c1.9-0.3,3.7-0.6,5.6-0.9
	c2.1-0.4,4.1-0.8,6.1-1.3c2-0.4,4-0.9,5.9-1.4c2.9-0.8,5.7-1.6,8.5-2.4c1.8-0.5,3.6-1.1,5.4-1.7c1.1-0.3,2.2-0.7,3.2-1
	c1.3-0.4,2.5-0.8,3.8-1.2c6-1.9,11.6-3.7,17-5.1l0,0l0,0C268.6,364.3,260.3,364.8,250.8,365.2z M632.8,355.2
	c-11.2,0.6-23.5,5.2-37.8,9.7c-12.4,3.9-26.5,7.8-42.6,8.8c-2.3,0.1-4.6,0.2-7,0.3c-0.5,0-1.1,0-1.6,0c-9.8,0-19-1.1-27.6-2.8
	c-8.6-1.7-16.6-4-24-6.3c-12-3.7-22.6-7.5-31.8-9.2c-2.1-0.4-4.2-0.6-6.1-0.7s-3.3-0.2-4.3-0.3h-0.1c-0.5,0-0.9-0.1-1.2-0.1
	c-0.3,0-0.6-0.1-0.8-0.1l0,0v6.1l0,0l0,0c0.1,0,0.3,0.1,0.6,0.1c0.3,0,0.8,0.1,1.4,0.1c0.2,0,0.4,0,0.7,0.1c1,0.1,2.2,0.2,3.9,0.3
	c10.7,0.6,23.3,5.4,38.1,10c14.8,4.6,31.8,9,51.3,9c0.5,0,1.1,0,1.6,0c19-0.2,35.1-4.6,49.3-9.1c1.8-0.6,3.5-1.1,5.2-1.7
	s3.4-1.1,5.1-1.6c3.3-1.1,6.6-2.1,9.7-3c1.6-0.4,3.1-0.9,4.7-1.2c2.3-0.6,4.6-1,6.8-1.4c1.1-0.2,2.2-0.3,3.3-0.5s2.2-0.2,3.3-0.3
	c0.4,0,0.7,0,1.1-0.1h0.1l0,0c0,0,0,0,0.1,0s0.1,0,0.2,0c0,0,0,0,0.1,0l0,0c0.1,0,0.2,0,0.3,0c0.2,0,0.3,0,0.5,0c0.1,0,0.2,0,0.2,0
	l0,0l0,0c0.3,0,0.7,0,1-0.1c0.3,0,0.6,0,0.9-0.1c0.1,0,0.1,0,0.2,0c0.2,0,0.4,0,0.6,0c0.1,0,0.1,0,0.2,0c0.3,0,0.5,0,0.7-0.1
	c0.5,0,1-0.1,1.4-0.1s0.7-0.1,1-0.1c0.7-0.1,1.2-0.1,1.5-0.2c0.1,0,0.1,0,0.2,0c0.1,0,0.1,0,0.2,0v-6.1l0,0c-0.2,0-0.6,0.1-1.1,0.2
	C640.6,354.6,637.9,354.9,632.8,355.2z M314.9,372.9v0.8l0.3,5.9l0,0l0,0h37c0.1-1.2,0.3-3.5,0.6-6.8l0,0L314.9,372.9L314.9,372.9z
	 M660.6,372.9l0.3,6.8H698c0.1-1.2,0.3-3.5,0.6-6.8l0,0H660.6L660.6,372.9z M435.4,370.9L435.4,370.9h0.2l12.1-200.1v-0.1l0,0
	l-0.1-1.6l-0.2-20.9l0.2-0.2c0.2-0.1,0.2-0.1,0.4-0.6c0.2-0.4,0.4-1.1,1-2.2c1.5-3,3.3-8.9,3.7-20.4c0.1-3.6,0.2-6.9,0.2-10.1
	c0.1-7,0.2-13.6,1-22.4c0.5-5.8,1.8-16.4,2.9-21.7c0.7-3.2,1.7-6.5,2.7-9.1c0,0,0,0,0.1,0v-0.2c0,0.1,0,0.1-0.1,0.2
	c-1.4,0.5-2.8,1.1-4.2,1.6l1-0.4c-1.1,0.4-2.3,0.9-3.4,1.3c-10.9,4.4-20.6,8.8-28.6,13.1c-11.5,6.2-19.8,17-22.9,29.6
	c-10.7,45-11,117-9.4,169.5c1.3,41.5,3.9,77.7,5.2,94.4h38.2L435.4,370.9L435.4,370.9z M645.2,169.9l1.9-21.4c0.1,0.2,0,0-0.1-0.4
	s-0.4-1-1-2.2c-1.5-3-3.4-9.1-3.9-20.8c-0.1-3.6-0.2-6.9-0.2-10.1c-0.1-7-0.2-13.6-1-22.3c-0.7-7.2-1.9-16.9-2.9-21.5
	c-0.8-3.6-2-7.5-3.2-10.1c-1.6-0.6-3.3-1.2-4.9-1.8v-0.1c-1.4-0.5-2.9-1.1-4.4-1.6v-0.1l-1-0.3c-0.5-0.2-1.1-0.4-1.6-0.6h-0.1
	l-10.3-3.2l-1-0.1l0,0l-26-4.8h-1c-13.7-1.9-40.2-2-40.2-2s-22.8,0.2-34.5,1.8l-4.5,0.2l-15.6,3l-13,4c0-0.1-0.1-0.1-0.1-0.2
	c-4.4,1.5-8.7,3-12.9,4.6c-0.4,0.1-0.8,0.3-1.2,0.4l0.3-0.1c-0.6,0.2-1.3,0.5-1.9,0.7c-1.2,2.6-2.3,6.4-3.1,9.8
	c-1,4.7-2.2,14.4-2.9,21.6c-0.8,8.8-0.9,15.4-1,22.3c-0.1,3.2-0.1,6.6-0.2,10.1c-0.4,11.7-2.3,17.8-3.9,20.8c-0.6,1.1-0.8,1.8-1,2.2
	s-0.2,0.6-0.5,0.9l0.2,21.2l-0.8,183.3c0,0,0.1,0,0.2,0v0.1c0.1,0,0.3,0.1,0.6,0.1c0.9,0.1,2.6,0.3,5.9,0.5
	c10.7,0.6,23.3,5.4,38.1,10c14.8,4.6,31.8,9,51.3,9c0.5,0,1.1,0,1.6,0c19-0.2,35.1-4.6,49.3-9.1s26.5-9.1,38-9.7
	c7.2-0.4,9.7-0.7,10.4-0.9l0.2-159.5l0.2-1c1.1-21.7,1.2-21.9,1.4-22.1l-0.1-0.5h0.1C644.9,170,645.1,170,645.2,169.9z M460.8,61
	c0.1-0.1,0.1-0.2,0.1-0.2L460.8,61z M695.5,111.3c-0.3-1.5-0.6-2.9-1-4.3c-0.4-1.6-0.8-3.1-1.4-4.7c-0.5-1.5-1.2-3-1.8-4.5
	c-0.3-0.7-0.7-1.4-1.1-2.1c-0.8-1.4-1.6-2.8-2.5-4.1c-1.8-2.6-3.9-5.1-6.2-7.2c-2.9-2.7-6.2-5.1-9.8-7c-9.3-5-20.4-10-33.2-14.9
	c-0.8-0.3-1.6-0.6-2.4-0.9c1.1,2.6,2.2,6.1,2.9,9.4c1.2,5.3,2.4,15.8,2.9,21.7c0.8,8.8,0.9,15.4,1,22.4c0.1,3.2,0.1,6.6,0.2,10.1
	c0.4,11.5,2.3,17.4,3.7,20.4c0.6,1.2,0.8,1.8,1,2.2s0.2,0.4,0.4,0.6l0.2,0.1l-1.9,22.3l0.1,0.1h-0.1c0.1,0.1,0.1,0.3,0.2,0.4
	l13.7,199.5h38.3c1.3-16.7,4-52.8,5.2-94.4C705.5,225.6,705.2,156.5,695.5,111.3z M435.5,373l-2.4-0.3h-35.7
	c0.3,3.3,0.5,5.6,0.6,6.8h0.1c0,0.1,0,0.2,0,0.3h37.1l0.4-6.8H435.5L435.5,373z M206,144.2h-2v0.8v0.2v0.8h2V144.2z M206,141h-2.1
	l-1.5,0.5v0.8v0.2v0.8l1.5,0.5h2.1V141z M206,135.6h-2.1l-1.5,0.5v0.8v0.2v0.8l1.5,0.5h2.1V135.6z M206,130.2h-2.1l-1.5,0.5v0.8v0.2
	v0.8l1.5,0.5h2.1V130.2z M206,119.5h-2.1l-1.5,0.5v0.8v0.2v0.8l1.5,0.5h2.1V119.5z M206,124.9h-2.1l-1.5,0.5v0.8v0.2v0.8l1.5,0.5
	h2.1V124.9z M206,114.1h-2.1l-1.5,0.5v0.8v0.2v0.8l1.5,0.5h2.1V114.1z M206,146.3h-2.1l-1.5,0.5v0.8v0.2v0.8l1.5,0.5h2.1V146.3z
	 M206,117.3h-2v0.8v0.2v0.8h2V117.3z M206,106.6h-2v0.8v0.2v0.8h2V106.6z M206,112h-2v0.8v0.2v0.8h2V112z M201.3,69.9
	c0-0.3,0.1-0.6,0.3-0.8c-0.4-0.5-0.9-1.1-1.4-1.8v4.2C200.5,70.8,200.9,70.3,201.3,69.9z M206,138.8h-2v0.8v0.2v0.8h2V138.8z
	 M206,128.1h-2v0.8v0.2v0.8h2V128.1z M206,133.4h-2v0.8v0.2v0.8h2V133.4z M206,122.7h-2v0.8v0.2v0.8h2V122.7z M206,108.8h-2.1
	l-1.5,0.5v0.8v0.2v0.8l1.5,0.5h2.1V108.8z M206,149.5h-2v0.8v0.2v0.8h2V149.5z M200.3,127.2h1.8v-0.8v-0.2v-0.8h-1.8V127.2z
	 M200.3,137.9h1.8v-0.8v-0.2v-0.8h-1.8V137.9z M200.3,132.5h1.8v-0.8v-0.2v-0.8h-1.8V132.5z M200.3,121.8h1.8V121v-0.2V120h-1.8
	V121.8z M200.3,116.4h1.8v-0.8v-0.2v-0.8h-1.8V116.4z M200.3,111.1h1.8v-0.8v-0.2v-0.8h-1.8V111.1z M200.3,143.3h1.8v-0.8v-0.2v-0.8
	h-1.8V143.3z M200.3,148.6h1.8v-0.8v-0.2v-0.8h-1.8V148.6z M200.3,125h1.9l1.5-0.5v-0.8v-0.2v-0.8l-1.5-0.5h-1.9V125z M200.3,130.4
	h1.9l1.5-0.5v-0.8v-0.2v-0.8l-1.5-0.5h-1.9V130.4z M200.3,135.7h1.9l1.5-0.5v-0.8v-0.2v-0.8l-1.5-0.5h-1.9V135.7z M200.3,146.5h1.9
	l1.5-0.5v-0.8V145v-0.8l-1.5-0.5h-1.9V146.5z M200.3,119.7h1.9l1.5-0.5v-0.8v-0.2v-0.8l-1.5-0.5h-1.9V119.7z M200.3,141.1h1.9
	l1.5-0.5v-0.8v-0.2v-0.8l-1.5-0.5h-1.9V141.1z M200.3,108.9h1.9l1.5-0.5v-0.8v-0.2v-0.8l-1.5-0.5h-1.9V108.9z M200.3,114.3h1.9
	l1.5-0.5V113v-0.2V112l-1.5-0.5h-1.9V114.3z M206,100v-0.2v-1.7h-2.1l-1.5,0.5v0.8v0.2v0.8l1.5,0.5h2.1V100z M206,106.3v-2.8v-0.1
	h-0.3c0,0,0,0.1-0.1,0.1h-1.8l-1.5,0.5v0.7l0,0v0.1v0.1v0.1v0.7v0.1l1.5,0.5L206,106.3L206,106.3z M206,92.8h-2.1l-1.5,0.5v0.8v0.2
	v0.8l1.5,0.5h2.1V92.8z M206,96h-2v0.8V97v0.8h2V96z M206,85.3h-2v0.8v0.2V87h2V85.3z M206,90.6h-2v0.8v0.2v0.8h2V90.6z M206,103
	L206,103v-1.7h-2v0.8v0.2v0.8L206,103L206,103z M206,87.4h-2.1l-1.5,0.5v0.8v0.2v0.8l1.5,0.5h2.1V87.4z M200.3,104v1.7v0.1h1.8v-0.1
	V105v-0.1v-0.1v-0.1v-0.1V104h-1.3l-0.1-0.1L200.3,104L200.3,104z M200.3,100.4h1.8v-0.8v-0.2v-0.8h-1.8V100.4z M200.3,84.4h1.8
	v-0.8v-0.2v-0.1c-0.5-0.1-1-0.3-1.4-0.7h-0.4L200.3,84.4L200.3,84.4z M200.3,95.1h1.8v-0.8v-0.2v-0.8h-1.8V95.1z M200.3,89.7h1.8
	v-0.8v-0.2v-0.8h-1.8V89.7z M200.3,103.5L200.3,103.5v0.2h1.9l1.5-0.5v-0.8v-0.2v-0.8l-1.5-0.5h-1.9V103.5z M200.3,98.3h1.9l1.5-0.5
	V97v-0.2V96l-1.5-0.5h-1.9V98.3z M200.3,87.6h1.9l1.5-0.5v-0.8v-0.2v-0.8l-1.5-0.5h-1.9V87.6z M200.3,82.2L200.3,82.2
	C200.4,82.2,200.3,82.1,200.3,82.2L200.3,82.2z M200.3,92.9h1.9l1.5-0.5v-0.8v-0.2v-0.8l-1.5-0.5h-1.9V92.9z M206,82h-0.3
	c-0.1,0.1-0.2,0.3-0.3,0.4c-0.5,0.6-1.2,0.9-1.9,0.9h-1c0,0,0,0-0.1,0l0,0v0.2v0.8l1.5,0.5h2.1V82z M200.3,151.8h1.9l1.5-0.5v-0.8
	v-0.2v-0.8l-1.5-0.5h-1.9V151.8z M544.7,44.6c6.2,0,11.7,0,16.3,0.1c12.2,0.4,25.4,1.5,39,4.6c-5.3-14.9-7.3-22.5-10.7-24.4
	c-1.5-0.5-3.4-1.1-3.6-1.2c0,0,0,0,0-0.1c0,0-13.7-2.5-39.7-2.5s-39.8,2.8-39.8,2.8s-2.1,0.6-3.6,1.2c-3.5,1.9-5.5,9.5-10.7,24.4
	c0,0,16.5-3.7,41.6-4.8C536.7,44.7,540.5,44.6,544.7,44.6z M203,73.4c0.5,0,1-0.4,1-1v-0.8c-0.5-0.5-1.1-1.1-1.8-1.9
	c-0.1,0.1-0.1,0.3-0.1,0.4v2.4C202,72.9,202.5,73.4,203,73.4z M209.6,54.9c0,0-2.6-1.3-7-1.3c-1.5,0-3.2,0.1-5,0.5
	c0,9.6,8.5,16.7,8.5,16.7L209.6,54.9z M206,157.1v-0.8l0,0v-1.5v-2.3V152h-2.1l-1.5,0.5v0.1h-0.2l0,0h-2v3.8l0,0v0.7H206z
	 M220.4,51.4L220.4,51.4l-8.2,2.2c0,0-2.3,13.6-4.5,17.2c0,2.3,0,3.1,0,3.4h4.6l0.1-0.1c1.6-0.2,6.2-0.9,6.9-1.1
	c2.9,0,14.4-2.1,18.4-3.7c5.5-2.1,10.4-4,15.8-7.8c5.3-3.7,4.5-10.5,4.4-11c0,0-5.6-24.5-11.7-26.4c0,0-2.1,9.3-5.9,16.7
	C237.8,45.6,236.3,49.2,220.4,51.4z M151.9,61.7c5.4,3.7,10.3,5.7,15.8,7.8c4,1.6,15.4,3.7,18.4,3.7c0.8,0.1,7,1.1,7.4,1.1h4.6
	c0,0-0.3-5.6-0.3-10.2c-2.3-3.7-3.4-10.4-3.4-10.4l-9.5-2.3c-15.8-2.3-17.4-5.8-19.8-10.4c-3.8-7.3-5.9-16.7-5.9-16.7
	c-6.1,1.9-11.7,26.4-11.7,26.4C147.5,51.2,146.6,58,151.9,61.7z M277,355.7h-0.2c-0.7,0-1.4,0.1-2.1,0.1c-0.4,0-0.8,0-1.1,0.1
	c-0.3,0-0.6,0-0.9,0.1c-0.4,0-0.9,0-1.3,0.1c-0.3,0-0.6,0-1,0.1c-0.4,0-0.7,0-1.1,0.1c-0.4,0-0.9,0-1.3,0.1c-0.3,0-0.7,0-1,0.1
	c-0.4,0-0.8,0-1.2,0.1c-0.4,0-0.7,0-1.1,0.1c-0.4,0-0.8,0-1.2,0.1c-0.4,0-0.8,0-1.2,0.1c-0.4,0-0.8,0-1.2,0.1c-0.4,0-0.8,0-1.2,0.1
	c-0.3,0-0.7,0-1,0.1c-0.5,0-1,0.1-1.5,0.1c-0.2,0-0.3,0-0.5,0c-0.6,0-1.2,0.1-1.9,0.1c-0.1,0-0.3,0-0.4,0c-2.8,0.1-5.6,0.3-8.4,0.4
	c-0.2,0-0.5,0-0.7,0c-0.6,0-1.1,0.1-1.7,0.1c-0.2,0-0.5,0-0.7,0c-0.6,0-1.1,0.1-1.7,0.1c-0.2,0-0.5,0-0.7,0c-0.6,0-1.2,0.1-1.8,0.1
	c-0.2,0-0.4,0-0.6,0c-0.6,0-1.2,0.1-1.8,0.1c-0.2,0-0.4,0-0.6,0c-0.6,0-1.2,0-1.8,0.1c-0.2,0-0.3,0-0.5,0c-0.6,0-1.3,0.1-1.9,0.1
	c-0.1,0-0.2,0-0.2,0c-1.8,0.1-3.7,0.1-5.5,0.2s-3.5,0.1-5.3,0.2h-0.1c-0.6,0-1.2,0-1.8,0.1c-0.1,0-0.3,0-0.4,0c-0.5,0-1.1,0-1.6,0
	c-0.2,0-0.3,0-0.5,0c-0.5,0-1,0-1.5,0c-0.2,0-0.3,0-0.5,0c-0.5,0-1,0-1.5,0c-0.1,0-0.3,0-0.4,0c-0.5,0-1,0-1.5,0c-0.1,0-0.2,0-0.4,0
	c-0.5,0-1,0-1.5,0c-0.1,0-0.2,0-0.3,0c-0.5,0-1,0-1.5,0c-1.8,0-3.5,0-5,0c-1,0-2.2,0-3.3,0c-0.4,0-0.9,0-1.3,0l0,0
	c-3.5,0-7.5-0.1-11.8-0.3c-0.9,0-1.9-0.1-2.8-0.1c-1.5,0-3-0.1-4.5-0.2c-0.5,0-1.1,0-1.6-0.1c-7.1-0.3-14.6-0.6-22.1-0.9h-0.1
	c-1.7-0.1-3.3-0.2-4.9-0.2c-1.7-0.1-3.5-0.2-5.2-0.3c-0.5,0-1,0-1.4-0.1c-2.4-0.1-4.8-0.2-7.2-0.4c-2.8-0.1-5.6-0.3-8.2-0.4
	c-1.2-0.1-2.4-0.1-3.6-0.2c-0.6,0-1.2-0.1-1.7-0.1c-0.1,0-0.2,0-0.3,0c-0.4,0-0.8,0-1.1-0.1c-0.1,0-0.2,0-0.2,0
	c-0.3,0-0.6,0-0.9-0.1c-0.2,0-0.4,0-0.5,0c-0.4,0-0.7,0-1.1-0.1l0,0c-0.8,0-1.5-0.1-2.3-0.1c-0.1,0-0.3,0-0.4,0c-0.3,0-0.6,0-0.8,0
	c-0.1,0-0.2,0-0.2,0c-0.3,0-0.6,0-0.8,0c-0.1,0-0.3,0-0.4,0c-0.2,0-0.4,0-0.7,0c-0.1,0-0.3,0-0.4,0c-0.2,0-0.4,0-0.6,0s-0.3,0-0.5,0
	s-0.4,0-0.5,0c-0.2,0-0.3,0-0.5,0c-0.1,0-0.2,0-0.3,0c-0.3,0-0.5,0-0.8,0h-0.1c-0.2,0-0.5,0-0.7,0h-0.1c-0.7,0-1.4-0.1-1.9-0.1h-0.1
	c-0.1,0-0.2,0-0.3,0c-0.4,0-0.7,0-1-0.1v5.4c0.2,0,0.6,0.1,1,0.2c1,0.2,2.4,0.4,4.3,0.6c3.9,0.5,9.7,1.2,17.6,1.9c1,0.1,2,0.2,3,0.3
	c0.7,0.1,1.4,0.1,2.1,0.2c0.4,0,0.7,0.1,1.1,0.1c15.6,1.2,37.5,2.3,66.3,2.3c2.4,0,4.8,0,7.1,0l0,0c33.2-0.2,57.8-1.7,73.4-3l0,0
	c0.8-0.1,1.5-0.1,2.2-0.2c0,0,0,0,0.1,0c0.7-0.1,1.4-0.1,2.1-0.2h0.1c0.6-0.1,1.3-0.1,1.9-0.2h0.1c0.6-0.1,1.2-0.1,1.7-0.2
	c0.1,0,0.1,0,0.2,0c0.5-0.1,1-0.1,1.5-0.2c0.1,0,0.1,0,0.2,0c0.5,0,0.9-0.1,1.4-0.1c0.1,0,0.2,0,0.2,0c0.4,0,0.8-0.1,1.2-0.1
	c0.1,0,0.2,0,0.3,0c0.3,0,0.7-0.1,1-0.1c0.1,0,0.2,0,0.3,0c0.3,0,0.6-0.1,0.9-0.1c0.1,0,0.1,0,0.2,0c0.3,0,0.6-0.1,0.9-0.1h0.1
	c0.6-0.1,1.1-0.1,1.5-0.2c0.5-0.1,0.9-0.1,1.2-0.2v-6C297.7,354.4,288.8,355,277,355.7L277,355.7z M201.1,82.4
	c0.4,0.4,0.9,0.7,1.4,0.7h1c0.5,0,1-0.2,1.4-0.7c0.6-0.6,0.9-1.6,0.8-2.5l-0.5-7.1l-0.4-0.3c0,0-0.1-0.1-0.2-0.1v0.2
	c0,0.9-0.7,1.7-1.7,1.7s-1.7-0.7-1.7-1.7V71c-0.3,0.5-0.5,1-0.6,1.7l-0.5,7.2C200.2,80.8,200.5,81.8,201.1,82.4z M200.9,79.9
	c0-0.7,0.6-1.3,1.3-1.3h1.5c0.7,0,1.3,0.6,1.3,1.3v0.8c0,0.7-0.6,1.3-1.3,1.3h-1.5c-0.7,0-1.3-0.6-1.3-1.3V79.9z M202.2,81.1h1.5
	c0.2,0,0.4-0.2,0.4-0.4v-0.8c0-0.2-0.2-0.4-0.4-0.4h-1.5c-0.2,0-0.4,0.2-0.4,0.4v0.8C201.8,80.9,202,81.1,202.2,81.1z M203.5,44.3
	c24,0,32.6,0.8,32.6,0.8s8.7-15.2,8.5-21.2c0,0-14.4-2.5-41.7-2.5s-41.8,2.8-41.8,2.8s1.6,14.3,9.3,22.4
	C170.4,46.5,179.5,44.3,203.5,44.3z"/>
</svg>
