<?xml version="1.0" encoding="utf-8"?>
<!-- Generator: Adobe Illustrator 25.3.0, SVG Export Plug-In . SVG Version: 6.00 Build 0)  -->
<svg version="1.1" id="Layer_1" xmlns="http://www.w3.org/2000/svg" xmlns:xlink="http://www.w3.org/1999/xlink" x="0px" y="0px"
	 viewBox="0 0 750.2 400.1" style="enable-background:new 0 0 750.2 400.1;" xml:space="preserve">
<path d="M132.9-347.6c14.1-0.3,27.3,2.9,35.5,8.3c0.8-1.8,1.1-3.3,1-4.4c-0.2-1.6-0.2-2.5-0.1-3c-24.3-8.3-46.5-8.2-67.6,0.1
	c0.1,0.5,0.1,1.4-0.1,2.9c-0.1,1.1,0.2,2.7,1,4.5C109.5-344.3,120.2-347.3,132.9-347.6z"/>
<path d="M525.2-339.8c-4.1-3.1-18.8-12.6-46.5-12.6s-41.7,9.6-45.5,12.6c5.4-0.4,25.3-1.8,45.6-1.8
	C499-341.6,519.5-340.2,525.2-339.8z"/>
<path d="M178.6,77.5c4,2.3,8.3,3.6,10.9,4.3c2.4-16.7-7.2-17.8-15.7-24.3c-7.2-5.4-8.5-10.1-8-15.8c-4.2,2.5-9.3,5.6-10,6.2
	c-0.1,0.7-1.5,8.7,3.8,14.1C164.9,67.4,173.1,74.5,178.6,77.5z M200.4,83.5c3.9,0.1,7.9-0.4,12-1.4c-0.2-1-0.5-3.1-0.4-5.6
	c-2.8,0.6-5.6,1-8.2,1.2c-3.5,0.2-7.2-0.3-11-1.2c0.1,2.7-0.3,5-0.5,6C194.9,83,197.6,83.4,200.4,83.5z M231.1,57.8
	c-8.4,6.3-17.8,7.5-15.8,23.6c2.8-0.8,7.4-2.2,11-3.8c5.8-2.6,14.2-8.7,18.9-15.4c4.3-6,4-13.3,3.9-14.2c-0.6-0.6-5.7-3.7-9.9-6.2
	C239.9,48.4,238.5,52.2,231.1,57.8z M199.9,39.4c14.1-0.3,27.3,2.9,35.5,8.3c0.8-1.8,1.1-3.3,1-4.4c-0.2-1.6-0.2-2.5-0.1-3
	c-24.3-8.3-46.5-8.2-67.6,0.1c0.1,0.5,0.1,1.4-0.1,2.9c-0.1,1.1,0.2,2.7,1,4.5C176.5,42.7,187.2,39.7,199.9,39.4z M227.6,57.7
	c-6.8,4.4-10.4,7.9-10.4,7.9c-5.2,4.7-4.1,14-3.8,16.3c0.4-0.1,1.1-0.3,2-0.5c-2-16.1,7.4-17.2,15.8-23.6c7.4-5.6,8.8-9.4,8.1-15.9
	c-0.7-0.4-1.4-0.8-2-1.2c0,0.4,0,1.1,0.1,2.5C237.7,46.9,234.4,53.2,227.6,57.7z M173.8,57.6c8.5,6.4,18.1,7.5,15.7,24.3
	c0.8,0.2,1.4,0.4,1.8,0.4c0.4-2.2,1.7-11.9-3.5-16.7c0,0-3.6-3.5-10.5-7.9c-6.9-4.5-10.2-10.8-9.8-14.5c0.2-1.4,0.1-2.2,0.1-2.5
	c-0.6,0.4-1.3,0.7-1.9,1.1C165.3,47.5,166.6,52.2,173.8,57.6z M592.2,47.2c-4.1-3.1-18.8-12.6-46.5-12.6s-41.7,9.6-45.5,12.6
	c5.4-0.4,25.3-1.8,45.6-1.8C566,45.4,586.5,46.8,592.2,47.2z M250.8,365.2c9.5-0.4,17.8-0.9,24.6-1.5c-7.4,1.9-15.3,4.6-24,7.3
	c-14.2,4.5-30.3,8.8-49.3,9.1c-0.5,0-1.1,0-1.6,0c-19.5,0-36.5-4.4-51.3-9c-10-3.1-19-6.3-27.1-8.2c6.9,0.7,15.8,1.4,26.9,2.1
	c14.8,4.6,31.9,9.1,51.6,9.1c0.5,0,1.1,0,1.6,0C220.8,373.8,236.8,369.6,250.8,365.2z M300,360.3v-6c-6.8,0.4-71.6,4.3-97.7,4.3
	c-26.2,0-91.1-3.8-97.5-4.2v5.4c0.2,0,0.6,0.1,1,0.2c1,0.2,2.4,0.4,4.3,0.6c3.9,0.5,9.7,1.2,17.6,1.9c15.8,1.4,39.7,2.8,72.5,2.8
	c57.4,0,91.1-3.9,98.6-4.8C299.3,360.4,299.7,360.4,300,360.3z M300.1,149.8c0,0-7.5-8-10.6-22.1c-1.5-7-3.8-19.9-9.3-32.4
	S265.9,70.6,251.5,65l-4.7-1.3c-5,6.6-13.2,12.6-19.1,15.3c-5.9,2.6-14,4.7-14,4.7l-0.5,0.1v-0.1c-3.8,0.9-7.6,1.5-11.4,1.5
	c-0.4,0-0.7,0-1.1,0c-2.9-0.1-5.7-0.5-8.4-1.1v0.1l-0.5-0.1c0,0-7.3-1.4-13.9-5.1c-4.7-2.7-11.6-8.3-17-13.4
	c-0.4-0.3-0.7-0.6-1.1-0.9l-0.1-0.1l-0.1-0.2c-0.3-0.3-0.6-0.6-0.9-0.8l-5.6,1.6c-14.4,5.7-23.2,17.8-28.7,30.3s-7.8,25.4-9.3,32.4
	c-2.8,13-9.3,20.7-10.4,21.9l0.1,203.8c0.5,0,1.4,0.1,2.6,0.2c2,0.1,4.8,0.3,8.4,0.5c7,0.4,16.7,0.9,27.2,1.5
	c21.1,1.1,45.6,2.1,59.3,2.1c24.1,0,81.2-3.3,95.1-4.1c1.2-0.1,2.1-0.1,2.6-0.2l0.2-203.4L300.1,149.8L300.1,149.8z M632.8,355.2
	c-11.2,0.6-23.5,5.2-37.8,9.7c-14.2,4.5-30.5,8.9-49.6,9.1c-0.5,0-1.1,0-1.6,0c-19.6,0-36.8-4.5-51.6-9.1
	c-14.8-4.6-27.4-9.3-37.9-9.9c-3.9-0.2-5.6-0.4-6.4-0.5v6.1c0.1,0,0.3,0.1,0.6,0.1c0.9,0.1,2.6,0.3,5.9,0.5
	c10.7,0.6,23.3,5.4,38.1,10c14.8,4.6,31.8,9,51.3,9c0.5,0,1.1,0,1.6,0c19-0.2,35.1-4.6,49.3-9.1s26.5-9.1,38-9.7
	c7.2-0.4,9.7-0.7,10.4-0.9v-6.1c-0.2,0-0.6,0.1-1.1,0.2C640.6,354.6,637.9,354.9,632.8,355.2z M624.5,97.3
	c-5.2-12-13.5-24.3-27.8-32.7l0,0l-25.1-17.4c-8-0.3-17.3-0.6-26.6-0.6c-8.2,0-16.2,0.2-23.3,0.5l-27.4,17.5l0,0
	C480,73,471.6,85.3,466.5,97.3c-5.2,12-7.1,23.6-8.6,30.7c-2.6,12-8.4,19.6-10.1,21.6l0.1,203.9c0.1,0,0.3,0.1,0.6,0.1
	c0.9,0.1,2.6,0.3,5.9,0.5c10.7,0.6,23.3,5.4,38.1,10c14.8,4.6,31.8,9,51.3,9c0.5,0,1.1,0,1.6,0c19-0.2,35.1-4.6,49.3-9.1
	s26.5-9.1,38-9.7c7.2-0.4,9.7-0.7,10.4-0.9l0.2-203.6c-1.5-1.8-7.5-9.4-10.2-21.7C631.6,121,629.7,109.3,624.5,97.3z M33.9,85
	l16.2,75.4l4.5-1.2L37.9,83.6L33.9,85z M378.6,85l16.1,74.8l4.5-1.1l-16.6-75.1L378.6,85z M371.5,85l-16.2,75.4l-4.6-1.2l16.8-75.6
	L371.5,85z M716,85l-16.1,74.8l-4.5-1.1l16.7-75.1L716,85z M251.6,48.8v0.3c0,2.8-0.7,8.6-4.2,13.6l4.4,1.3l0,0
	c14.8,5.8,23.7,18.2,29.3,30.9s7.9,25.6,9.4,32.6c2.6,12.2,8.6,19.7,10,21.3l48.8,9.7l16.4-75.1L251.6,48.8z M153.6,48.8L153.6,48.8
	c0,0.2,0.1,0,0.1,0.3c0,2.8-0.2,8.6,3.4,13.6l-4.4,1.3l0.6-0.2c-14.8,5.8-24,16.7-30.1,31.2c-5.4,12.7-7.9,25.6-9.4,32.6
	c-2.6,12.2-8.7,19.6-10.1,21.2L56,158.4l-16.4-75L153.6,48.8z M525.5,371.6c5.8,0.8,11.8,1.3,18.1,1.3c0.5,0,1.1,0,1.6,0
	c3.8,0,7.5-0.3,11-0.6L525.5,371.6z M511.8,47.5L511.8,47.5c-2.1,0.1-4,0.2-5.8,0.3c-1.9,0.1-3.5,0.2-4.8,0.3
	c-1.1,0.1-1.6,0.1-1.9,0.2l0,0h-0.1c0,0,0,0-0.1,0l-14,4.3l-101,30.8l16.6,74.4l46.4-8.9c0.2-0.2,0.4-0.5,0.6-0.8
	c0.7-0.9,1.7-2.3,2.8-4.2c2.2-3.7,4.8-9.1,6.3-16.1c1.5-7,3.5-18.7,8.7-30.9c5.2-12.1,13.7-24.6,28.2-33.1l26-16.6
	C516.9,47.3,514.3,47.4,511.8,47.5z M593.8,48.2h-0.3c-4-0.3-12.4-0.7-20.4-1l24.2,16.6c14.5,8.5,23,21,28.2,33.1s7.2,23.9,8.7,30.9
	s4.1,12.4,6.3,16.1c1.1,1.8,2.2,3.5,3,4.5c0.2,0.3,4.1,0.7,4.3,0.9l46.3,8.5l16.6-74.4L593.8,48.2z"/>
</svg>
