<?xml version="1.0" encoding="utf-8"?>
<!-- Generator: Adobe Illustrator 25.3.0, SVG Export Plug-In . SVG Version: 6.00 Build 0)  -->
<svg version="1.1" id="Layer_1" xmlns="http://www.w3.org/2000/svg" xmlns:xlink="http://www.w3.org/1999/xlink" x="0px" y="0px"
	 viewBox="0 0 750.2 400.1" style="enable-background:new 0 0 750.2 400.1;" xml:space="preserve">
<path d="M643.3,166.6v-4.9l0,0V166.6z M592.2,47.2c-4.1-3.1-18.8-5.7-46.5-5.7s-41.7,2.6-45.5,5.7c5.4-0.4,25.3-1.8,45.6-1.8
	C566,45.4,586.5,46.8,592.2,47.2z M33.9,85l16.2,75.4l4.5-1.2L37.9,83.6L33.9,85z M378.6,85l16.1,74.8l4.5-1.1l-16.6-75.1L378.6,85z
	 M350.7,159.2l4.6,1.2L371.5,85l-4-1.4L350.7,159.2z M712.1,83.6l-16.7,75.1l4.5,1.1L716,85L712.1,83.6z M288,128
	c-0.2-0.9-0.4-1.8-0.6-2.9c-1.5-7.3-3.8-18.4-8.6-29.2C272.2,81,262.9,71,251,66.4l-2.1-0.6c-1.4,5.4-3.8,11.4-7.4,17
	c-8.5,13.2-21.6,20.2-38,20.3h-1.9c-16.2,0-29.3-6.9-37.9-19.9c-3.9-5.8-6.3-12-7.7-17.5l-1.9,0.5C141,71.3,131.9,80.8,125.4,96
	c-4.8,11.3-7.3,23-8.8,30l-0.5,2.2c-2.7,12.4-8.8,20.2-10.6,22.3c-0.1,0.1-0.2,0.2-0.4,0.4l0.1,202.1c5.1,1.1,57.3,12,95.3,11.5
	c40.5-0.6,93.8-10.6,99-11.6l0.2-201.7c-0.4-0.1-0.9-0.4-1.2-0.7C296.8,148.3,290.7,140.6,288,128z M641.5,149.8
	c-0.9-1.1-2.1-2.9-3.1-4.7c-2.1-3.5-5-9.3-6.6-16.8c-0.2-0.9-0.4-1.9-0.6-2.9l-0.1-0.4c-1.5-7.1-3.5-16.9-7.8-27.1
	c-6.1-14.2-15.2-25-27.1-32c-0.1,0-0.1-0.1-0.1-0.1l-24.2-16.6c-0.5-0.4-0.9-0.9-1-1.6c-9.2-0.4-17.8-0.6-25.7-0.6l0,0
	c-7.1,0-14.7,0.2-22.8,0.5c-0.1,0.7-0.5,1.3-1.1,1.7l-26,16.6c-12,7-21.1,17.8-27.2,32c-4.4,10.1-6.4,19.9-7.8,27.1
	c-0.2,1.2-0.5,2.3-0.7,3.3c-1.6,7.5-4.5,13.3-6.6,16.8c-1,1.6-2,3.1-3,4.4c-0.3,0.3-0.5,0.6-0.7,0.8c-0.2,0.3-0.5,0.5-0.8,0.6
	l0.1,202c0.1,0,0.1,0,0.2,0l0.2,0.1c0.5,0.2,48.2,24.4,95.1,24.4c45.1,0,94.6-22.5,98.9-24.5l0.2-202.2
	C642.3,150.6,641.8,150.3,641.5,149.8z M163.9,53.1c-0.3-2.4-0.4-4.1-0.4-4.9c6.4,2.1,45.4,14.6,77.8-0.5c0,0.8-0.1,2.7-0.4,5.3
	C216,60.5,188.8,60.6,163.9,53.1z M248.8,48.9l-6.5-1.1c-0.1,2.6-0.7,13-5,23.5c-6.4,15.6-18.1,23.9-33.8,24H202c-0.1,0-0.2,0-0.3,0
	c-36,0-38.9-41.3-39.1-47l-6.5,1.2c0.4,18,10.4,51.1,45.6,51.1c0.1,0,0.2,0,0.3,0h1.5C238.9,100.4,248.6,67,248.8,48.9z M592.2,47.2
	c-4.1-3.1-18.8-5.7-46.5-5.7s-41.7,2.6-45.5,5.7c5.4-0.4,25.3-1.8,45.6-1.8C566,45.4,586.5,46.8,592.2,47.2z M251.2,49.5
	c-0.1,2.5-0.5,9.1-1.8,15.1l2.4,0.9c12.8,5,19.8,13.4,27.8,29.1c5.5,10.8,7.3,22.4,8.8,29.8c0.2,1,0.4,2,0.6,2.9
	c2.6,11.9,8.4,19.3,9.8,21l50,9.6L365,83.7L251.6,49.4L251.2,49.5z M115.9,125.1c1.5-7.1,4-19,9-30.6c6.6-15.6,14-22.6,25.7-28.1
	l5.1-2.3l-0.5-1.5c-1.4-6.1-1.7-11-1.7-13.2c0-0.1,0-0.1,0-0.2L40.1,83.7l16.2,74.2l49.3-9.8c1.8-2.1,7.4-9.4,9.8-20.9L115.9,125.1z
	 M458.5,127.1c0.2-1,0.4-2.1,0.7-3.3c1.5-7.3,3.5-17.2,8-27.6c6.4-14.8,17.1-25.5,29.6-32.8l24.4-15.6c-2.1,0.1-7.5,0.2-9.4,0.3
	l-1.5,0.1l0,0c-1.5,0.1-3,0.2-4.3,0.3c-1.9,0.1-3.5,0.2-4.8,0.3c-1.1,0.1-1.6,0.1-1.8,0.2h-0.1l-14,4.3L384.7,83.7l16.4,73.4
	l47.9-9.3c0.1-0.2,0.3-0.4,0.5-0.6c0.7-0.9,1.7-2.3,2.8-4.1C454.2,139.7,456.9,134.3,458.5,127.1z M593.4,48.7
	c-3.3-0.2-13.6-0.6-21.7-0.9l22.8,15.6c12.4,7.3,23.3,18.5,29.7,33.4c4.5,10.4,6.6,20,8.1,27.3c0.2,1.2,0.5,2.3,0.7,3.3
	c1.5,7.1,4.2,12.6,6.2,15.9c1,1.7,2.1,3.3,2.9,4.3c0.3,0.1,3.3,0.7,4,0.8c1.2,0.2,1.7,0.3,1.9,0.4l45.7,8.4l16.4-73.4l-116.4-35
	L593.4,48.7z M200.7,381c-20.1,0-48.4-7.2-64.9-12.2c-10.5-1.5-19.9-3.2-26.9-4.5c17.1,7.2,58.6,22,91.8,22
	c33.5,0,76.8-14.7,94.9-22c-7.2,1.2-17,2.8-28.1,4.3C249.9,373.9,221.1,381,200.7,381z M200.5,366c-38.4,0.5-91-10.9-95.8-11.7v5
	v2.4c0,0,55.5,12.2,95.8,11.6c42.9-0.6,99.5-11.7,99.5-11.7v-2.2l0,0v2.2l0,0v-7.5c-0.2,0.1-0.5,0.2-1,0.4
	C290.9,356,239.9,365.4,200.5,366z M448.5,354.5c-0.2,0-0.4,0-0.6-0.1v6.8c0.1,0,0.3,0.5,0.6,0.5c0,0,47.8,24.4,95.3,24.4
	s99.4-24.7,99.4-24.7v-7.5c-2.7,1-53.1,24.9-99.4,24.9C496.3,379,448.5,354.5,448.5,354.5z"/>
</svg>
