<?xml version="1.0" encoding="utf-8"?>
<!-- Generator: Adobe Illustrator 25.3.0, SVG Export Plug-In . SVG Version: 6.00 Build 0)  -->
<svg version="1.1" id="Layer_1" xmlns="http://www.w3.org/2000/svg" xmlns:xlink="http://www.w3.org/1999/xlink" x="0px" y="0px"
	 viewBox="0 0 750.2 400.1" style="enable-background:new 0 0 750.2 400.1;" xml:space="preserve">
<g>
	<polygon points="299.6,315.3 299.6,339.7 299.9,339.7 299.9,336.7 299.8,309.3 299.5,309.4 299.5,315.3 	"/>
	<path d="M105.3,339.7l0-30.6l-0.8-0.1v44.4c0,0,0.1,0,0.1,0l0.3-13.6H105.3z"/>
	<polygon points="105.2,255.7 104.4,255.6 104.4,286 105.2,286.1 	"/>
	<polygon points="299.6,256.1 299.6,286.4 299.7,286.4 299.7,271.9 299.7,256 203.1,271.2 183.3,268.1 203.1,271.2 	"/>
	<polygon points="136.2,291.1 203.1,301.7 244.9,295.1 203.1,301.7 	"/>
	<polygon points="245.9,211.2 203.1,217.9 134.3,207 203.1,217.9 	"/>
	<path d="M203.1,240.1l-52.6-8.3L203.1,240.1l90-14.1c-2-7.4-3.4-14.6-4.4-21.4l-0.3,0.1c1.1,6.8,2.7,13.9,4.7,21.3L203.1,240.1z"/>
	<path d="M116.2,204.2l-0.6-0.1c-1,6.8-2.4,14-4.3,21.4l0.1,0C113.4,218.1,115,211,116.2,204.2z"/>
	<path d="M115.6,150.8c0.6,4.1,1.1,8.8,1.5,14l2.1,0.3c-0.1-5.1-0.4-9.8-0.7-13.9L115.6,150.8z"/>
	<path d="M285.6,165.5l-82.5,13l-15.8-2.5l15.8,2.5l84-13.2c0.3-5.2,0.9-9.9,1.5-14l-2.1,0.3C286.1,155.7,285.8,160.4,285.6,165.5z"
		/>
	<polygon points="204.7,111.2 203.1,111.4 203.1,111.4 	"/>
	<path d="M282.1,104.5l-79,12.4l-80.8-12.8c0.6-1.7,1.2-3.4,1.9-5.2l-11.6-1.8c-0.1,1.8-0.2,3.6-0.3,5.5l90.9,14.4l88.8-14
		c-0.1-1.8-0.2-3.6-0.3-5.4l-11.5,1.8C280.9,101.1,281.5,102.8,282.1,104.5z"/>
	<polygon points="643.3,309.3 642.7,309.4 642.7,339.7 643.2,339.7 643.2,348 643.2,347.8 	"/>
	<path d="M448.4,339.7l0-5.8l0.2-10.2l0-14.7l71.3,11.3l-72.2-11.5v44.4c0,0,0.1,0,0.2,0l0.3-13.5H448.4z"/>
	<polygon points="476.7,290.6 546.5,301.7 611.2,291.5 546.5,301.7 	"/>
	<polygon points="643.3,272 643.3,271.9 643.1,271.9 643.1,271.8 643.1,271.8 643.1,256 546.5,271.2 515.2,266.3 546.5,271.2 
		642.7,256.1 642.7,286.5 643.3,286.4 	"/>
	<polygon points="447.7,255.6 447.7,286 448.6,286.1 448.6,255.7 	"/>
	<polygon points="586.5,211.7 546.5,217.9 479.9,207.4 546.5,217.9 	"/>
	<path d="M458.4,204l-0.6-0.1c-1,6.8-2.4,14-4.3,21.4l0.2,0C455.7,218,457.2,210.8,458.4,204z"/>
	<path d="M546.5,240.1l-49.6-7.9L546.5,240.1l91.1-14.3c-2-7.4-3.4-14.6-4.4-21.4l-0.5,0.1c1.2,6.8,2.7,13.9,4.8,21.3L546.5,240.1z"
		/>
	<path d="M457.8,150.6c0.6,4.1,1.2,8.8,1.5,14l2.1,0.3c-0.1-5.1-0.4-9.8-0.7-13.9L457.8,150.6z"/>
	<path d="M629.6,165.4l-83.1,13.1l0,0l85.1-13.4c0.3-5.2,0.9-9.9,1.5-14l-2.8,0.4C629.9,155.6,629.7,160.3,629.6,165.4z"/>
	<polygon points="546.5,111.4 506.2,105 546.5,111.4 	"/>
	<path d="M625.7,104.4l-79.3,12.5l-80.8-12.8c0.6-1.7,1.3-3.4,2-5.2l-12.7-2c0,0.1,0,0.3,0,0.4c-0.1,1.7-0.2,3.3-0.3,5.1l91.9,14.6
		l90.3-14.2c-0.1-1.8-0.2-3.6-0.3-5.4l-12.7,2C624.5,101.1,625.2,102.8,625.7,104.4z"/>
	<polygon points="105.2,286.2 136.2,291.1 203.1,301.7 244.9,295.1 299.6,286.5 299.6,286.4 299.6,256.1 203.1,271.2 183.3,268.1 
		105.2,255.7 105.2,255.7 105.2,286.1 	"/>
	<path d="M111.4,225.5l39.1,6.2l52.6,8.3l89.9-14.2c-2-7.4-3.6-14.5-4.7-21.3c0,0,0,0,0,0l-42.5,6.7l-42.8,6.7L134.3,207l-18.1-2.9
		c0,0,0,0,0,0C115,211,113.4,218.1,111.4,225.5C111.4,225.5,111.4,225.5,111.4,225.5z"/>
	<path d="M285.6,165.5c0.1-5.1,0.5-9.8,0.9-13.9c0,0,0,0,0,0l-83.4,13.1l-84.7-13.4c0,0,0,0,0,0c0.4,4.1,0.6,8.8,0.7,13.9
		c0,0,0,0,0,0l68.2,10.8l15.8,2.5L285.6,165.5z"/>
	<path d="M203.1,116.9l79-12.4c-0.6-1.7-1.2-3.4-1.9-5.1c0,0,0-0.1,0-0.1l-75.5,11.9l-1.6,0.2l0,0l-78.9-12.5c0,0,0,0,0,0
		c-0.7,1.7-1.3,3.5-1.9,5.2L203.1,116.9z"/>
	<path d="M299.9,339.7h-0.3l0-24.4h-0.1l0-5.9v0l-96.4,15.1L105.2,309v0.1l0,30.6h-0.5l-0.3,13.6l-0.1,3.3l0,2.4v2.5c0,0,0,0,0,0
		c0,0-0.1,0,0,0h0c0,0,0.1,0,0.2,0c0,0,0,0,0,0v0c0,0,49,10.8,88.4,11.6c0,0,0,0,0,0c0.6,0,1.2,0,1.8,0c0.2,0,0.3,0,0.5,0
		c0.5,0,0.9,0,1.4,0c0.3,0,0.6,0,0.9,0c0.3,0,0.7,0,1,0c0.6,0,1.2,0,1.9,0c42.9-0.6,99.5-11.7,99.5-11.7v-2.2v-5.3L299.9,339.7
		L299.9,339.7z"/>
	<polygon points="546.5,271.2 515.2,266.3 448.6,255.7 448.6,255.7 448.6,286.1 448.6,286.2 476.7,290.6 546.5,301.7 611.2,291.5 
		642.7,286.5 642.7,286.5 642.7,256.1 	"/>
	<path d="M453.6,225.4l43.2,6.8l49.6,7.9l91-14.3c-2-7.4-3.6-14.5-4.8-21.3c0,0,0,0,0,0l-46.2,7.3l-40,6.3l-66.5-10.5l-21.5-3.4
		c0,0,0,0,0,0C457.2,210.8,455.7,218,453.6,225.4C453.6,225.4,453.6,225.4,453.6,225.4z"/>
	<path d="M630.3,151.5C630.3,151.5,630.3,151.5,630.3,151.5l-83.8,13.1l-85.8-13.6c0,0,0,0,0,0c0.4,4.1,0.6,8.8,0.7,13.9
		c0,0,0,0,0,0l85.1,13.5l0,0l83.1-13.1C629.7,160.3,629.9,155.6,630.3,151.5z"/>
	<path d="M546.5,116.9l79.3-12.5c-0.6-1.7-1.2-3.4-1.9-5.1c0,0,0-0.1,0-0.1l-77.3,12.1l0,0l-40.3-6.4l-38.5-6.1c0,0,0,0,0,0
		c-0.7,1.7-1.4,3.5-2,5.2L546.5,116.9z"/>
	<path d="M642.7,339.7l0-30.3v0l-96.2,15.1l-26.6-4.2L448.6,309l0,14.7l-0.2,10.2l0,5.8h-0.1l-0.3,13.5l-0.2,8c0,0,0.3,0.3,0.4,0.3
		l0,0c0,0,0,0,0,0c0,0.1,0.1,0.1,0.2,0.2c0.1,0,0.1,0.1,0.2,0.1c0,0,47.8,24.4,95.3,24.4s99.4-24.7,99.4-24.7v-3.3h0l0-10.1l0-8.3
		H642.7z"/>
</g>
</svg>
