<?xml version="1.0" encoding="utf-8"?>
<!-- Generator: Adobe Illustrator 25.3.0, SVG Export Plug-In . SVG Version: 6.00 Build 0)  -->
<svg version="1.1" id="Layer_1" xmlns="http://www.w3.org/2000/svg" xmlns:xlink="http://www.w3.org/1999/xlink" x="0px" y="0px"
	 viewBox="0 0 750.2 400.1" style="enable-background:new 0 0 750.2 400.1;" xml:space="preserve">
<g>
	<polygon points="202.3,131 202.5,131.2 202.5,131.2 202.5,131.2 277.1,56.6 274.5,55.8 202.5,127.8 149.2,74.6 145.3,70.7 
		145.3,70.7 130.7,56.1 128,56.8 201.6,130.4 	"/>
	<path d="M202.6,161.2l86.8-86.8c-0.2-1-0.3-1.9-0.5-2.9l-86.3,86.3l-71.9-71.9c0,0,0,0.1-0.1,0.1l-15.1-15.1
		c-0.2,0.9-0.3,1.8-0.5,2.8l86.7,86.7L202.6,161.2z"/>
	<path d="M202.3,190.8l0.4,0.4l81.1-81.1c0,0,0-0.1,0-0.1l8.1-8.1c-0.1-1.1-0.1-2.1-0.2-3.2l-89.1,89.1l-81.1-81.1c0,0,0,0,0,0l-9-9
		c-0.1,1.1-0.1,2.1-0.2,3.2l89.3,89.3L202.3,190.8z"/>
	<path d="M111.3,131.3c0,0.1,0.2,0.7,0.6,1.9l90.1,90.1l0.8,0.8l0,0l0,0l85.5-85.5c0,0,0-0.1,0-0.1l3.5-3.5c0.7-2.4,1.1-3.8,1.1-3.8
		l0.1-0.3l0.2,0.1c0-0.2,0-0.4-0.1-0.6l-90.4,90.4l-60.2-60.2L111.1,129c0,0.2,0,0.5-0.1,0.7c0,0,0,0.1,0,0.1c0,0.3-0.1,0.7-0.1,1
		c0,0.1,0,0.2,0,0.2l0.3-0.1L111.3,131.3z"/>
	<path d="M283.9,169.8l-81,81L119.2,167c0,0,0,0,0,0l-2.1-2.1c0.1,1.1,0.1,2.3,0.2,3.5l1.9,1.9c0,0,0,0,0,0l21.8,21.8l61.1,61.1
		l0.6,0.5l0.3,0.3l0,0l0,0l83.9-83.9c0-1.2,0.1-2.4,0.2-3.6L283.9,169.8z"/>
	<path d="M116.4,197.4l85.8,85.8l0.9,0.9l84.9-84.9c-0.1-1-0.2-2.1-0.3-3.1l-84.6,84.6l-50.2-50.2l-35.4-35.4c0,0,0,0,0,0l-0.8-0.8
		C116.6,195.4,116.5,196.4,116.4,197.4z"/>
	<path d="M292.1,221.8l-88.9,88.9l-90.6-90.6c-0.2,0.9-0.4,1.8-0.7,2.7l37.2,37.1l16.7,16.7l36.5,36.5l0.5,0.5l0.4,0.4l43.4-43.4
		l46.1-46.1c0,0,0,0,0,0l0,0C292.5,223.6,292.3,222.7,292.1,221.8z"/>
	<path d="M167.1,363.2l-62.7-62.7v3.3l0.8,0.8l0,0.1l67.5,67.5c1.2,0.1,2.4,0.2,3.6,0.3L167.1,363.2
		C167.1,363.2,167.1,363.2,167.1,363.2z"/>
	<path d="M299.8,303.4l-0.2,0.2v0l-67.8,67.8c1.2-0.1,2.5-0.2,3.7-0.4l9.4-9.4c0,0,0.1,0,0.1,0l54.9-54.9L299.8,303.4z"/>
	<path d="M299.9,336.7L299.9,336.7l0-3.4L266,367.3c1.3-0.2,2.6-0.4,3.9-0.6l10-10c0,0,0.1,0,0.1,0L299.9,336.7L299.9,336.7z"/>
	<path d="M251.6,48.9c-0.1,0-0.1,0-0.2,0l-0.7,0.7c0,0.8-0.1,1.7-0.2,2.7c0,0.3,0,0.6-0.1,0.8l3.5-3.5L251.6,48.9z"/>
	<path d="M154.5,53.1c-0.1-1.4-0.2-2.6-0.2-3.4l-0.7-0.7l-2.6,0.8l3.5,3.5C154.5,53.3,154.5,53.2,154.5,53.1z"/>
	<path d="M288.9,149.3l-86.1,86.1l-87.7-87.7c0.2,1.3,0.4,2.6,0.6,4L202,238l0.8,0.8l0,0l0,0l83.3-83.3c0,0,0,0,0-0.1l2.2-2.2
		C288.5,151.9,288.7,150.6,288.9,149.3z"/>
	<path d="M114.6,210.3l87.6,87.6l0.9,0.9l86.8-86.8c-0.2-1-0.3-1.9-0.5-2.9l-0.2,0.2c0,0,0,0,0,0l-67.4,67.4l-18.7,18.7l-33-32.9
		l-54.6-54.6c0,0,0,0,0,0l-0.4-0.4C114.9,208.4,114.8,209.3,114.6,210.3z"/>
	<path d="M184.7,364.6l-80.3-80.3v3.4l76.7,76.7c0,0,0,0,0,0l8.8,8.8c1.1,0,2.1,0.1,3.2,0.1c0,0,0,0,0,0c0.1,0,0.1,0,0.2,0
		L184.7,364.6C184.7,364.6,184.7,364.6,184.7,364.6z"/>
	<path d="M151.6,361.3l-47.2-47.2v3.4l0.8,0.8v0l52.2,52.2c1.3,0.2,2.5,0.3,3.8,0.4l-9.7-9.7C151.5,361.3,151.6,361.3,151.6,361.3z"
		/>
	<path d="M299.8,320.4L299.8,320.4l0.1-3.4l-52.8,52.8c1.3-0.2,2.6-0.3,3.8-0.5l9.6-9.6c0,0,0.1,0,0.1,0L299.8,320.4L299.8,320.4z"
		/>
	<path d="M116,355.6l-11.5-11.5l-0.1,3.3l0.2,0.2l0,0l17.5,17.5c1.3,0.2,2.7,0.5,4.1,0.7L116,355.6C116,355.6,116,355.6,116,355.6z"
		/>
	<path d="M292.3,354.6C292.3,354.6,292.3,354.6,292.3,354.6l-10.1,10.2c1.4-0.2,2.7-0.5,4-0.7l13.8-13.8v0V347v0l-3.3,3.3
		L292.3,354.6z"/>
	<path d="M157.2,67.4l-1.1-1.1c0,0,0,0,0,0l-0.5-0.5l0,0l-13.3-13.3l-2.6,0.8l19.3,19.3C158.4,70.9,157.7,69.2,157.2,67.4z"/>
	<path d="M202,115.5l0.4,0.4l0,0l0,0l15.5-15.5c-1.4,0.4-2.9,0.8-4.4,1.1l-0.8,0.8c0,0-0.1,0-0.1,0l-10.3,10.3L192,102.2
		c0,0,0,0,0,0l-0.7-0.7c-1.6-0.3-3.1-0.7-4.6-1.2l14.7,14.7L202,115.5z"/>
	<path d="M543.5,152.8l0.3,0.3l0,0l0,0L632,64.8c-0.3-0.9-0.6-1.7-0.9-2.5l-87.4,87.4l-67-67c0,0,0,0,0,0l-17.1-17.1
		c-0.3,0.8-0.5,1.7-0.8,2.6l84,84L543.5,152.8z"/>
	<path d="M544,216L544,216L544,216l87.7-87.7c0,0,0,0,0,0l5.9-5.9c0-1.1-0.1-2.1-0.1-3.2l-6.3,6.3c0,0,0,0,0,0L597,159.7l-53,52.9
		l-90.3-90.3c0,0.7-0.1,1.3-0.1,2c0,0.2,0,0.3,0,0.5v0.8l89.6,89.6L544,216z"/>
	<path d="M459,161.1l84.1,84.1l1,0.8l88.1-88.1c0.1-1.3,0.3-2.6,0.4-3.8l-88.5,88.5l-82.9-82.9c0,0.1,0,0.2,0,0.2l-2.6-2.6
		C458.8,158.6,458.9,159.8,459,161.1z"/>
	<path d="M459.2,190.9l84.2,84.2l0.2,0.2l0.7,0.7l0,0l0,0l87.2-87.2c-0.1-1.1-0.1-2.1-0.2-3.1l-1,1c0,0,0,0,0,0l-76.6,76.6l-9.5,9.5
		l-84.9-84.9C459.4,188.8,459.3,189.8,459.2,190.9z"/>
	<path d="M544.2,334.7l0.2,0.2l0,0l0,0l32.2-32.2l39.5-39.5l25-25c-0.3-0.8-0.6-1.7-0.8-2.5l0,0c0,0,0,0,0,0l-18.9,18.9l-8.6,8.6
		l-68.4,68.4L476,263.1l-26-26c0,0,0,0,0,0l0,0c-0.3,0.8-0.6,1.7-0.9,2.5l94.4,94.4L544.2,334.7z"/>
	<polygon points="447.7,264.6 447.7,267.9 448.6,268.8 448.6,268.8 543.8,364 544.5,364.8 544.6,364.9 643.1,266.4 643.1,263 
		544.6,361.5 	"/>
	<path d="M530.4,377.2l-82.7-82.7v3.3l0.9,0.9v0l87.2,87.2c1.2,0.1,2.3,0.1,3.5,0.2L530.4,377.2
		C530.4,377.2,530.4,377.2,530.4,377.2z"/>
	<path d="M543.4,63.1L543.4,63.1L543.4,63.1l15.9-15.8c0,0,0,0,0,0l0.9-0.9c-1.1,0-2.2-0.1-3.3-0.1l-13.4,13.4l-5.4-5.3l-7.1-7.1
		c0,0,0,0-0.1,0l-0.8-0.8c-1.1,0-2.1,0.1-3.2,0.1l15.7,15.7L543.4,63.1z"/>
	<polygon points="542.9,137 543.7,137.7 543.7,137.7 543.7,137.7 624.2,57.2 621.6,56.4 590.9,87.1 543.7,134.4 467.2,57.9 
		464.6,58.7 542.8,136.9 	"/>
	<path d="M636.2,135.2l-4.5,4.5c0,0,0,0,0-0.1l-50.9,50.9L544,227.3l-84.2-84.2c0,0,0,0,0,0l-4.2-4.2c0.3,1.3,0.6,2.7,0.9,4.2
		l3.8,3.8c0,0,0,0,0,0.1l83,83l0.3,0.3l0.5,0.6l91.2-91.2C635.5,137.8,635.9,136.4,636.2,135.2z"/>
	<path d="M457.5,205.9l85.9,85.9l0.3,0.3l0.5,0.5l0,0l0,0l88.8-88.8c-0.1-1-0.3-1.9-0.4-2.9l-0.5,0.5c0,0,0,0,0-0.1l-61.7,61.7
		l-26.1,26.1l-86.3-86.3C457.8,203.9,457.7,204.9,457.5,205.9z"/>
	<path d="M544.3,318.6L544.3,318.6L544.3,318.6l55.5-55.5l37.6-37.6c0,0,0,0,0,0l0.1-0.1c-0.2-0.9-0.5-1.8-0.7-2.6l-92.4,92.4
		l-52.1-52.1l-37.3-37.3l-1.2-1.2c-0.2,0.9-0.5,1.8-0.7,2.7l90.5,90.5L544.3,318.6z"/>
	<polygon points="448.6,252.7 448.6,252.7 459,263.1 543.6,347.7 544.5,348.6 544.5,348.6 544.5,348.6 594.4,298.7 629.9,263.1 
		642.7,250.3 642.7,250.3 643.1,249.9 643.1,246.6 544.5,345.2 480.6,281.4 462.4,263.1 448.5,249.3 448.5,249.3 447.6,248.4 
		447.6,248.5 447.7,251.8 	"/>
	<path d="M643.1,276.8L643.1,276.8l-98.1,98l-0.4,0.4l-96.9-96.9v3.3l0.9,0.9l0,0.1l95.2,95.2l0.8,0.8l0.8-0.8c0,0,0,0,0.1,0
		l97.9-97.9l0-3.3L643.1,276.8z"/>
	<path d="M472,363.3L447.7,339v3.4l18.9,18.9c0,0,0,0,0,0l13,13c1.6,0.5,3.3,1.1,5,1.6L472,363.3C472,363.3,472,363.3,472,363.3z"/>
	<path d="M543.4,77.8l30.9-30.9c-1,0-2.1-0.1-3.2-0.1l-0.9,0.9c0,0,0,0-0.1,0l-26.8,26.8l-21.2-21.2l-6.1-6.1
		c-1.1,0.1-2.2,0.1-3.2,0.2L542.6,77L543.4,77.8z"/>
	<path d="M135.7,79.1l66,66l0.8,0.8l0,0l0,0L286.4,62c-0.3-0.9-0.7-1.6-1.1-2.3l-82.8,82.8l-83-83l-0.2,0c-0.4,0.6-0.8,1.3-1.1,2
		L135.7,79.1C135.7,79,135.7,79.1,135.7,79.1z"/>
	<path d="M124.6,97.9l77.1,77.1l0.5,0.5l0.3,0.4L291,87.5c-0.1-1-0.2-2.1-0.3-3.1l-11.8,11.8c0,0,0,0,0,0l-76.3,76.3l-88.9-88.9
		c0,0.4-0.1,0.9-0.1,1.3c-0.1,0.5-0.1,1-0.2,1.6c0,0,0,0.1,0,0.1L124.6,97.9C124.7,97.9,124.6,97.9,124.6,97.9z"/>
	<path d="M117.8,120.9l84.1,84.1l0.8,0.8l84-84c0,0,0,0,0,0l5.9-5.9c0-1-0.1-2.1-0.1-3.2l-6.3,6.3c0,0,0,0,0,0l-83.3,83.3
		l-90.9-90.9c0,1.1-0.1,2.2-0.1,3.2l6,6C117.8,120.8,117.8,120.8,117.8,120.9z"/>
	<path d="M202.1,267.9l0.8,0.8l0,0l0,0l83.9-83.9c0-1.1-0.1-2.2-0.1-3.3l-0.9,0.9c0,0,0,0,0,0L203,265.4l-73.9-73.9l-10.2-10.2
		c0,0,0,0,0,0l-1.3-1.3c0,1.1,0,2.1-0.1,3.2l1.2,1.2c0,0,0,0,0,0L202.1,267.9z"/>
	<polygon points="105.2,258.6 123.2,276.7 202.5,355.9 203.3,356.7 283.3,276.7 299.6,260.4 299.6,260.4 299.7,260.3 299.7,257 
		299.6,257.1 299.6,257.1 280,276.7 203.3,353.4 186.4,336.5 104.4,254.4 104.4,257.8 105.2,258.6 	"/>
	<path d="M247.3,71l4.3-4.3c0,0,0,0,0,0L265.2,53l-2.5-0.8l-14.9,14.9c-0.5,1.7-1.1,3.3-1.7,5L247.3,71
		C247.3,70.9,247.3,70.9,247.3,71z"/>
	<path d="M508.1,57.6l34.6,34.6l0.3,0.3l0.5,0.6l0,0l0,0L581,55.6l0,0l7.9-7.9c-1-0.1-2-0.1-3.2-0.2l-42.2,42.2l-33.4-33.4l0,0
		l-8.4-8.4c-0.2,0-0.4,0-0.7,0l-1.6,0.2l-0.6,0.2L508.1,57.6L508.1,57.6z"/>
	<polygon points="489.9,69.3 542.8,122.2 543.7,123.1 543.7,123.1 543.7,123.1 612.9,53.8 610.3,53 572.4,91 543.7,119.7 
		478.5,54.5 475.9,55.3 489.9,69.3 	"/>
	<path d="M464.7,106.8l78.3,78.3l0.8,0.8l81.8-81.8c0,0,0,0,0,0l10.6-10.6c-0.1-1-0.2-2-0.2-3.1l-11.2,11.2c0,0,0,0,0,0L544,182.6
		l-88.8-88.8c-0.1,1-0.2,2.1-0.2,3.1l9.8,9.8C464.8,106.7,464.7,106.8,464.7,106.8z"/>
	<path d="M456.5,213.8l-0.3-0.3c-0.2,0.9-0.4,1.8-0.6,2.7l87.9,87.9l0.8,0.8l0,0l0,0l41.8-41.8l27.9-27.9l20.9-20.8
		c-0.2-0.9-0.4-1.9-0.5-2.8l-0.3,0.3c0,0,0,0,0-0.1l-51.3,51.3l-13.7,13.7l-24.8,24.8l-38.4-38.4L456.5,213.8
		C456.5,213.8,456.5,213.8,456.5,213.8z"/>
	<polygon points="499.1,63.4 542.7,106.9 542.9,107.1 543.5,107.8 601.1,50.2 598.5,49.4 543.5,104.4 533.3,94.2 490.2,51 
		487.6,51.8 499.1,63.3 	"/>
	<path d="M469.9,93.9l73,73l0.8,0.8l0,0l0,0L634.5,77c-0.1-1-0.3-1.9-0.4-2.9l-15.2,15.2c0,0,0,0,0,0l-75,75L457,77.4
		c-0.1,1-0.3,1.9-0.4,2.9L470,93.7C470,93.8,470,93.8,469.9,93.9z"/>
	<path d="M461.6,118.4l81.4,81.4l0.7,0.7l0.1,0.1l93.2-93.2c0-0.9-0.1-1.9-0.1-2.9c0-0.1,0-0.2,0-0.4l-93,93l-89.6-89.6
		c-0.1,1.1-0.1,2.1-0.1,3.2L461.6,118.4C461.6,118.4,461.6,118.4,461.6,118.4z"/>
	<path d="M543.3,259.8l0.8,0.8l80.3-80.3l6.8-6.7c0-1.2,0.1-2.3,0.1-3.5l-87.2,87.2l-82.8-82.8c0,0,0,0,0,0l-1.7-1.7
		c0,1.1,0,2.2,0,3.3l1.5,1.5c0,0,0,0,0,0L543.3,259.8z"/>
	<path d="M202.5,342.2l0.8,0.8l66.4-66.4l30-30v0l0.1-0.1v-0.2c0-0.1-0.1-0.2-0.1-0.3l0-0.3c-0.2-0.6-0.4-1.2-0.7-1.8l-32.6,32.6
		l-63,63L106,242.4c0,0,0,0,0,0l0,0c-0.3,0.7-0.5,1.4-0.8,2.1v0c0,0.1-0.1,0.2-0.1,0.4l52.4,52.4L202.5,342.2z"/>
	<path d="M299.6,276.8l0.1-0.1l0-3.3l-0.1,0.1v0l-3.2,3.2l-93,93l-4.8-4.8c0,0,0,0,0.1,0l-94.3-94.3v3.4l0.8,0.8v0l1.8,1.8
		l95.5,95.5l0.8,0.8L299.6,276.8L299.6,276.8z"/>
	<path d="M105,331l-0.6-0.6l0,2.6l0,0.7l0.5,0.5l0,0l33.6,33.6c1.3,0.2,2.6,0.4,3.9,0.6L105,331L105,331z"/>
	<path d="M104.4,361.6C104.4,361.6,104.4,361.6,104.4,361.6C104.3,361.6,104.3,361.6,104.4,361.6L104.4,361.6c0,0,0.1,0.1,0.3,0.1
		c0,0,0,0,0,0v0c0,0,0.1,0,0.2,0l-0.6-0.6V361.6z"/>
	<path d="M202.4,329.9l0.8,0.8l54.1-54.1l39.3-39.3c-0.3-0.8-0.6-1.7-0.8-2.5l-41.8,41.8l-50.7,50.7l-50.7-50.7l-43.4-43.4
		c0,0,0,0,0,0l0,0c-0.3,0.9-0.5,1.7-0.8,2.6l57.8,57.7L202.4,329.9z"/>
	<path d="M299.6,290.5l0.2-0.2l0-3.4l-48.8,48.9l-37,37c1.2-0.1,2.4-0.1,3.6-0.2L299.6,290.5L299.6,290.5z"/>
	<path d="M643.1,293.2l-71.2,71.2L559.2,377c0,0,0,0,0,0l-9,9c1.2-0.1,2.4-0.1,3.5-0.2l9.1-9.1c0,0,0,0,0,0l80.3-80.3l0-3.3
		L643.1,293.2L643.1,293.2z"/>
	<path d="M448.5,326.2l-0.8-0.8v3.3l39.9,39.9c0,0,0,0,0,0L499,380c1.5,0.4,2.9,0.7,4.4,1.1L448.5,326.2L448.5,326.2z"/>
	<path d="M643.2,324.1l-56.6,56.6c1.5-0.3,3-0.7,4.4-1.1l11.4-11.4c0,0,0,0,0.1,0l40.7-40.7L643.2,324.1L643.2,324.1L643.2,324.1z"
		/>
	<path d="M448.6,309.1l-0.9-0.9v3.3l0.9,0.9v0l71.9,71.9c1.3,0.2,2.6,0.4,3.9,0.5L448.6,309.1L448.6,309.1z"/>
	<path d="M643,306.9l-77.7,77.7c1.3-0.2,2.6-0.4,3.9-0.6l10-10c0,0,0,0,0.1,0l64-64l0-3.3L643,307L643,306.9z"/>
	<path d="M610.2,374.1l33-33l0-3.3l-37.9,37.8C607,375.1,608.7,374.6,610.2,374.1z"/>
</g>
</svg>
