<?xml version="1.0" encoding="utf-8"?>
<!-- Generator: Adobe Illustrator 25.3.0, SVG Export Plug-In . SVG Version: 6.00 Build 0)  -->
<svg version="1.1" id="Layer_1" xmlns="http://www.w3.org/2000/svg" xmlns:xlink="http://www.w3.org/1999/xlink" x="0px" y="0px"
	 viewBox="0 0 750.2 400.1" style="enable-background:new 0 0 750.2 400.1;" xml:space="preserve">
<g>
	<path d="M299.9,357.4c-0.6-0.3-1.2-0.7-1.7-1.1c-0.3-0.2-0.7-0.4-1-0.6c-0.8-0.5-1.5-1-2.3-1.5c-33.9-23.5-63.2-73.9-91.8-128.3
		c-0.1-0.2-0.2-0.3-0.3-0.5c-0.7-1.3-1.3-2.5-2-3.8c-4.1-7.9-8.3-15.9-12.4-23.9c-19.7-38.2-39.4-76.5-60.4-107.3c0,0,0,0,0,0
		c-4.2-6.2-8.5-12.1-12.9-17.7c-0.3,1.6-0.5,3.4-0.8,5.1c0,0.2,0,0.3-0.1,0.5c18.1,23.1,35.2,52.6,51.9,84c0.1,0.1,0.1,0.2,0.2,0.3
		c1.1,2.1,2.2,4.1,3.3,6.2c0.2,0.4,0.4,0.8,0.6,1.2c0.8,1.5,1.6,3.1,2.4,4.6c4,7.6,8,15.3,11.9,23C219.9,266,255,335.4,297.5,362.1
		c1.6-0.3,2.5-0.5,2.5-0.5v-2.2L299.9,357.4C300,357.5,299.9,357.5,299.9,357.4L299.9,357.4z"/>
	<path d="M278.1,356.9L278.1,356.9c-60.6-56.8-107.2-195.2-164.8-269c-0.2,2-0.3,4.1-0.5,6.1c3,3.9,6,7.9,8.9,12.1c0,0,0,0,0,0
		c18.4,26.2,35.8,58.4,53,91.5c33.6,64.6,66.5,132.9,105.3,167.5c2.2-0.4,4.3-0.7,6.3-1c0,0,0,0,0,0c0,0,0,0,0.1,0
		C283.5,361.9,280.8,359.5,278.1,356.9z"/>
	<path d="M263.9,359.2c-54.5-62.1-98.4-185.7-151.6-255c-0.1,0.8-0.2,1.6-0.3,2.4c0,0.9-0.1,1.9-0.1,2.8c0,0.4,0,0.8,0,1.2
		c2.1,2.8,4.2,5.6,6.3,8.5c0,0,0,0,0,0c16.1,22.7,31.4,49.9,46.5,78.5c32.6,61.8,64.2,129.7,100.6,169.7c1.8-0.3,3.6-0.5,5.4-0.8
		c0,0,0,0,0,0c0,0,0,0,0.1,0C268.3,364.2,266.1,361.8,263.9,359.2z"/>
	<path d="M256.9,368.5c-2.1-2.5-4.1-5.1-5.9-7.6c-49.2-64.3-90.4-174.8-139.5-239.9c0,0.5-0.1,1-0.1,1.5c0,0.9-0.1,1.8-0.1,2.6
		c0,0.3,0,0.6,0,0.9c0,0.5-0.1,0.9-0.1,1.4c1.6,2.2,3.2,4.4,4.8,6.6c0,0,0,0.1,0,0.1c13.2,18.7,25.9,40.5,38.4,63.6
		c32.2,59.4,62.9,127.2,97.6,171.5C253.7,369,255.3,368.8,256.9,368.5C256.9,368.5,256.9,368.5,256.9,368.5
		C256.9,368.5,256.9,368.5,256.9,368.5z"/>
	<path d="M216.8,364.3c-22-36.7-42.8-79.9-64.2-120c0,0,0,0,0,0c-0.8-1.5-1.5-2.9-2.3-4.3c-0.3-0.5-0.5-1-0.8-1.4
		c-0.6-1.2-1.3-2.3-1.9-3.5c-0.4-0.7-0.8-1.5-1.2-2.2c-0.6-1-1.1-2-1.7-3c-0.5-0.9-0.9-1.7-1.4-2.6c-0.5-0.9-1-1.8-1.5-2.8
		c-0.5-0.9-1-1.8-1.5-2.7c-0.5-0.9-1-1.7-1.5-2.6c-0.5-0.9-1.1-1.9-1.6-2.8c-0.5-0.8-1-1.7-1.4-2.5c-0.5-0.9-1.1-1.9-1.6-2.8
		c-0.5-0.8-1-1.7-1.4-2.5c-0.5-0.9-1.1-1.8-1.6-2.7c-0.5-0.8-1-1.7-1.5-2.5c-0.5-0.9-1-1.7-1.6-2.6c-0.5-0.8-1-1.7-1.5-2.5
		c-0.1-0.2-0.2-0.3-0.3-0.5c-0.2-0.4-0.4-0.7-0.7-1.1c-0.9-1.5-1.8-2.9-2.7-4.4c-0.4-0.6-0.7-1.1-1.1-1.7c-0.9-1.4-1.8-2.9-2.7-4.3
		c-0.2-0.3-0.4-0.6-0.6-0.9c0,0,0,0,0,0c-0.4-0.6-0.8-1.2-1.1-1.8c-0.1,2.1-0.2,4.3-0.3,6.5c0.8,1.3,1.7,2.6,2.5,3.9
		c0.4,0.7,0.9,1.4,1.3,2c0.9,1.4,1.8,2.9,2.7,4.4c0.1,0.1,0.1,0.2,0.2,0.3c15.5,25.1,30.4,53.7,45.3,82.6
		c15.9,30.9,31.8,62,48.3,89.3c0,0,0.1,0,0.1,0c0,0,0,0,0,0c1.4-0.1,2.8-0.2,4.2-0.3c-0.9-1.4-1.7-2.8-2.6-4.2
		C218.3,366.9,217.6,365.6,216.8,364.3z"/>
	<path d="M195.7,364.9c-14.8-27.1-29.3-56.1-44-84c-1.6-2.9-3.1-5.9-4.7-8.8c-10.8-20.2-21.7-39.7-33-57.1c0,0,0,0,0,0.1
		c-0.1-0.1-0.2-0.3-0.3-0.4c-0.3,1.7-0.7,3.5-1.1,5.2c22.7,35.1,44.1,78.5,65.9,120.1c0,0,0,0,0,0c0,0.1,0.1,0.2,0.1,0.3
		c0,0,0,0.1,0,0.1c0.2,0.4,0.4,0.7,0.6,1.1c0.7,1.4,1.5,2.8,2.2,4.2c0.3,0.7,0.7,1.3,1,1.9c4.6,8.7,9.1,17.3,13.8,25.7c0,0,0,0,0,0
		c0,0,0,0,0,0c0.2,0,0.3,0,0.5,0c0.3,0,0.6,0,0.9,0c0.3,0,0.7,0,1,0c0.6,0,1.1,0,1.7,0c0,0,0,0,0,0c0,0,0.1,0,0.1,0
		C198.8,370.5,197.2,367.7,195.7,364.9z"/>
	<path d="M104.4,291.5v7.1c0.3,0.4,0.5,0.8,0.8,1.3v0c4,6.5,8,13.2,12,20.1c0,0.1,0.1,0.1,0.1,0.2c0,0.1,0.1,0.1,0.1,0.2
		c8.8,15.4,17.5,31.7,26.1,48.2c0.1,0,0.2,0,0.2,0c0,0,0,0,0,0c1.3,0.2,2.7,0.4,4.1,0.6c-1.8-3.1-3.4-6.2-4.9-9.2
		C130.4,335.9,117.6,312.4,104.4,291.5z"/>
	<path d="M120.5,356.4c-0.3-0.5-0.6-1.1-0.9-1.6c-0.6-1-1.1-2-1.7-3.1c-4.5-8-9-15.8-13.5-23.2v7.1c0.2,0.3,0.3,0.5,0.5,0.8l0,0.1
		c5.5,9.1,10.9,18.7,16.3,28.5c1.4,0.3,2.9,0.5,4.4,0.8c0,0,0,0,0-0.1c0,0,0.1,0,0.1,0C123.9,362.6,122.2,359.5,120.5,356.4z"/>
	<path d="M108.5,353.8c-1.5-2.2-2.7-4.5-4.1-6.7v6.1h0.1l0,1.1c1.6,2.7,3.3,5.5,4.9,8.3c1.3,0.3,2.9,0.6,4.6,0.9c0,0,0-0.1-0.1-0.1
		c0,0,0.1,0,0.1,0C112.2,360.2,110.3,357,108.5,353.8z"/>
	<path d="M290.3,81.2c-0.3-2.8-0.7-5.4-1.1-7.9C285.7,68,282,62.6,278.6,57l-5.4-1.6c5.7,9.4,11.5,18.3,17.3,26.4
		C290.4,81.6,290.4,81.4,290.3,81.2z"/>
	<path d="M291.5,94.4c-9.2-12.5-17.9-26.5-26.7-41.5l-5-1.5c10.5,18.3,21,35.6,32.1,50.4C291.8,99.3,291.7,96.8,291.5,94.4z"/>
	<path d="M287.6,195.3c-0.2-0.3-0.4-0.5-0.7-0.8c0,0,0,0,0,0c-21.3-25.7-41-60.5-60.3-97.3c0,0,0,0,0,0c-0.1-0.2-0.2-0.3-0.3-0.5
		c-1,0.6-2,1.1-3,1.6c20.9,39.9,42.1,77.8,65.2,104.8C288.1,200.4,287.8,197.8,287.6,195.3z"/>
	<path d="M299.9,330.9L299.9,330.9C299.9,330.9,299.9,330.9,299.9,330.9l0-6.2c-0.1,0-0.1-0.1-0.2-0.1c-0.3-0.2-0.6-0.4-0.9-0.7
		c-1.3-0.9-2.6-1.9-3.9-2.9c-0.1-0.1-0.3-0.2-0.4-0.3c-0.3-0.2-0.5-0.4-0.8-0.6c-0.5-0.4-1-0.8-1.5-1.2c-0.1-0.1-0.3-0.2-0.4-0.4
		c-0.6-0.5-1.2-1-1.8-1.6c-0.3-0.2-0.6-0.5-0.8-0.7c-0.6-0.6-1.3-1.1-1.9-1.7c-0.2-0.2-0.4-0.4-0.6-0.6c-0.7-0.6-1.4-1.3-2.1-2
		c-0.1-0.1-0.1-0.1-0.2-0.2c-8.4-8.1-16.5-17.7-24.4-28.5c-14.3-19.3-27.9-42.4-41.3-67c-0.3-0.5-0.5-1-0.8-1.5
		c-0.3-0.5-0.6-1.1-0.9-1.6c-2.7-5.1-5.5-10.2-8.2-15.4c-22.3-42.4-44.1-87.4-67.4-124.1c0,0,0,0-0.1,0.1c-3.8-6-7.6-11.8-11.5-17.3
		l-4,1.2C185.5,139.4,233.9,286.4,299.9,330.9z"/>
	<path d="M299.9,340.7c-1.1-0.7-2.2-1.5-3.3-2.2c-0.1,0-0.3-0.1-0.4-0.2c0,0-0.1-0.1-0.1-0.1c-0.1-0.1-0.3-0.2-0.4-0.3
		c-0.8-0.6-1.6-1.2-2.4-1.8c-0.5-0.4-1.1-0.8-1.6-1.3c-0.5-0.4-1.1-0.8-1.6-1.3c-0.7-0.5-1.3-1.1-2-1.7c-0.4-0.3-0.8-0.7-1.2-1
		c-0.7-0.6-1.5-1.3-2.2-2c-0.3-0.3-0.6-0.5-0.9-0.8c-0.8-0.8-1.6-1.5-2.4-2.3c-0.2-0.2-0.4-0.4-0.6-0.6c-0.9-0.9-1.8-1.8-2.7-2.7
		c-0.1-0.1-0.1-0.1-0.2-0.2c-57.7-59.3-103.1-190.7-158.6-262.7c-0.8,1.2-1.4,2.5-2,4.2c4.9,6.3,9.8,13.1,14.6,20.3c0,0,0,0,0,0
		c21.9,32.8,42.5,73.6,63.1,113.6c32.7,63.3,65.7,124.6,105,149.4v-6.1C300,340.9,299.9,340.9,299.9,340.7L299.9,340.7z"/>
	<path d="M477.6,360.3c0,0,0.1-0.1,0.1-0.1c0.7-0.7,1.3-1.3,2-2c0.1-0.1,0.1-0.1,0.2-0.2c0.1-0.1,0.2-0.2,0.2-0.2
		c1.3-1.3,2.5-2.6,3.8-4c0.1-0.1,0.2-0.2,0.3-0.3c0.5-0.6,1.1-1.2,1.6-1.8c0.3-0.3,0.5-0.6,0.8-0.9c0.5-0.6,1-1.1,1.5-1.7
		c0.3-0.3,0.6-0.7,0.9-1c0.9-1,1.8-2.1,2.7-3.2c0.3-0.4,0.6-0.7,0.9-1.1c0.4-0.5,0.9-1.1,1.3-1.6c0.4-0.5,0.8-0.9,1.1-1.4
		c0.4-0.5,0.8-1,1.2-1.6c0.4-0.5,0.8-1.1,1.3-1.6c0.4-0.5,0.7-0.9,1.1-1.4c0.7-1,1.5-2,2.2-3c0.2-0.3,0.5-0.7,0.7-1
		c0.6-0.8,1.1-1.5,1.7-2.3c0.3-0.4,0.6-0.8,0.9-1.2c0.5-0.8,1.1-1.5,1.6-2.3c0.3-0.4,0.5-0.7,0.8-1.1c0.8-1.1,1.5-2.2,2.3-3.3
		c0.8-1.2,1.6-2.4,2.5-3.7c0.1-0.2,0.3-0.4,0.4-0.6c0.7-1.1,1.4-2.1,2.1-3.2c0.1-0.2,0.3-0.4,0.4-0.6c6.2-9.6,12.3-19.8,18.3-30.4
		c34.8-61.2,67.2-135.8,104.1-185c-0.1-2.1-0.3-4.2-0.4-6.3c-3.3,4.4-6.6,9-9.9,13.8c0-0.1,0-0.1-0.1-0.2
		c-16.4,24.2-32,52.9-47.4,82.5c-25.9,49.6-51.4,101.9-79.3,139.7l-0.1,0.1c-0.8,1.1-1.7,2.3-2.5,3.4c0,0,0,0,0,0
		c-1.9,2.5-3.7,4.8-5.6,7.1c0,0,0,0,0,0c-9.5,11.7-19.4,21.5-29.6,28.9c0,0,0.1,0,0.1,0.1c0,0-0.1,0-0.1,0.1
		c0.4,0.2,0.8,0.3,1.2,0.5c0.5,0.2,0.9,0.4,1.4,0.6c0.9,0.4,1.8,0.7,2.8,1.1c2.3-1.8,4.5-3.7,6.7-5.7c0.4-0.6,0.9-1,1.3-1.5
		c0.8-0.7,1.6-1.5,2.4-2.3C477.5,360.4,477.5,360.4,477.6,360.3z"/>
	<path d="M637.2,110.2c0-0.6-0.1-1.2-0.1-1.8c-2.5,3.3-4.9,6.8-7.4,10.4c0,0,0,0,0,0c-20,29.2-38.9,65.4-57.7,101.8
		c-30.7,59.6-61.3,120-96.7,152.3c0,0,0,0,0,0c0,0,0,0,0,0c1.6,0.6,3.3,1.1,5,1.7c2-2,4.1-4.1,6.1-6.3h0.1
		c54.6-59.4,98.4-181.9,150.9-253.4C637.3,113.4,637.3,111.8,637.2,110.2z"/>
	<path d="M501.4,367.9c0.9-1.1,1.7-2.2,2.5-3.3c0.4-0.5,0.8-1.1,1.2-1.6c1-1.3,1.9-2.6,2.9-3.9c0.4-0.6,0.8-1.2,1.3-1.8
		c0.9-1.2,1.7-2.4,2.5-3.6c0.5-0.7,0.9-1.3,1.4-2c0.8-1.1,1.5-2.2,2.3-3.3c0.4-0.6,0.8-1.2,1.2-1.7c0.9-1.4,1.9-2.9,2.8-4.4
		c0.4-0.6,0.8-1.2,1.2-1.8c1-1.5,1.9-3,2.9-4.6c0.3-0.5,0.6-1,1-1.5c0.9-1.4,1.7-2.8,2.6-4.2c0.2-0.4,0.5-0.8,0.7-1.2
		c1-1.7,2.1-3.5,3.1-5.2c0.3-0.4,0.5-0.9,0.8-1.3c1.1-1.8,2.1-3.6,3.2-5.5c0.2-0.3,0.3-0.5,0.5-0.8
		c33.8-58.8,65.5-131.1,100.8-181.3c0.6-2.3,1.1-3.6,1.1-3.7l0.1-0.3l0.3,0.1h0.2c-0.1-1.5-0.2-3.3-0.3-5c-1.6,2.2-3.2,4.5-4.8,6.8
		c0-0.1-0.1-0.3-0.1-0.5c-17.6,25.5-34.3,56.4-50.8,88.2c-30.3,58.2-60,119.5-93.9,156.5c0.1,0,0.3,0.1,0.4,0.1c0,0,0,0-0.1,0.1
		c0.6,0.2,1.2,0.4,1.8,0.6c1,0.3,1.9,0.6,2.9,0.8c1.9-2.2,3.8-4.5,5.6-6.8c0.3-0.9,0.8-1.6,1.4-2.3
		C500.5,369,500.9,368.4,501.4,367.9z"/>
	<path d="M526.6,367.6c0.3-0.5,0.7-1.1,1-1.6c0.3-0.5,0.6-1,0.9-1.5c0.5-0.8,1-1.5,1.4-2.3c0.1-0.1,0.2-0.3,0.3-0.4
		c0.4-0.7,0.9-1.4,1.3-2.1c0.6-0.9,1.1-1.8,1.6-2.7c2.5-4.1,5-8.4,7.4-12.7c0.2-0.3,0.4-0.6,0.6-1c0.4-0.7,0.8-1.4,1.2-2.1
		c0.6-1.1,1.3-2.3,1.9-3.4c0.2-0.3,0.4-0.7,0.6-1c0.5-0.9,1-1.9,1.5-2.8c0.2-0.3,0.3-0.6,0.5-0.9c0.6-1,1.2-2,1.7-3
		c0.5-1,1.1-1.9,1.6-2.9c0.7-1.3,1.4-2.6,2.1-3.9c0,0,0,0,0-0.1c0.2-0.3,0.3-0.6,0.5-0.9c26.1-48.3,51.3-102.1,78.5-144.4
		c0-2.5,0-4.9,0.1-7.2c-0.6,0.9-1.1,1.7-1.7,2.6c0,0,0,0,0,0c-3.4,5.3-6.8,10.8-10.1,16.5c0,0,0,0.1,0,0.1c-1.5,2.5-3,5.1-4.5,7.7
		c-0.1,0.2-0.2,0.4-0.3,0.6c-0.7,1.1-1.3,2.3-2,3.5c-0.1,0.1-0.1,0.2-0.2,0.3c-0.7,1.2-1.3,2.3-2,3.5c-0.2,0.4-0.4,0.8-0.7,1.2
		c-0.5,0.8-0.9,1.7-1.4,2.5c-0.2,0.4-0.4,0.8-0.7,1.2c-0.6,1-1.1,2.1-1.7,3.1c-0.3,0.6-0.7,1.3-1,1.9c-0.3,0.5-0.5,1-0.8,1.5
		c-0.6,1.2-1.3,2.3-1.9,3.5c-0.2,0.4-0.4,0.8-0.7,1.2c0,0,0,0,0,0c-0.5,0.9-0.9,1.7-1.4,2.6c-0.1,0.2-0.2,0.4-0.3,0.5
		c-4.4,8.2-8.8,16.5-13.1,24.9c-0.4,0.8-0.8,1.6-1.3,2.4c-0.1,0.2-0.3,0.5-0.4,0.7c-6.5,12.6-13,25.3-19.6,37.9
		c-11.5,22-23.1,43.6-34.9,63.1c-0.3,0.4-0.5,0.9-0.8,1.3c-0.7,1.1-1.3,2.1-2,3.2c-5.3,8.6-10.7,16.7-16.2,24.3c0,0,0,0,0.1,0
		c0,0,0,0,0,0c1.4,0.3,2.9,0.5,4.3,0.8c1.7-2.5,3.4-5,5.1-7.5c0.2-0.4,0.5-0.8,0.8-1.3c1.2-1.9,2.5-3.8,3.7-5.8
		C525.9,368.6,526.3,368.1,526.6,367.6z"/>
	<path d="M635.9,218.9c-0.1,0.1-0.1,0.2-0.2,0.2c0,0,0,0,0-0.1c-0.3,0.5-0.6,0.9-0.9,1.4c-12.1,19.2-23.8,40.7-35.4,62.8h0
		c-15.9,30.2-31.5,61.7-47.6,90.5c0,0.1-0.1,0.1-0.1,0.2c-1.1,1.9-2.1,3.8-3.2,5.6c-0.1,0.2-0.3,0.5-0.4,0.7c-1,1.8-2,3.6-3.1,5.3
		c-0.1,0.1-0.2,0.3-0.3,0.4c0,0,0,0,0,0c0,0,0,0,0,0c1.3,0,2.7,0,4-0.1c0.1,0,0.1,0,0.2,0c0,0,0,0,0,0c0,0,0,0,0,0
		c1.6-2.8,3.2-5.6,4.8-8.5h0.1c27.9-50.2,54.5-108.2,83.2-153.4C636.7,222.3,636.2,220.6,635.9,218.9z"/>
	<path d="M607.2,314.1c1.1-2,2.1-4,3.2-6.1c0.5-0.9,1-1.8,1.5-2.7c0.6-1.1,1.1-2.1,1.7-3.2c9.7-18,19.5-35.2,29.5-50.9v-0.1
		c0,0,0,0,0,0l0-7c0,0,0,0,0,0v0C624,273.6,606,308.9,587.9,344c-5.9,11.4-11.7,22.7-17.6,33.8c-1.2,2.2-2.3,4.3-3.5,6.5
		c0,0,0,0,0,0c0,0,0,0.1-0.1,0.1c1.4-0.2,2.8-0.4,4.2-0.6c1.7-3.1,3.3-6.3,5-9.5c0.1-0.1,0.2-0.3,0.3-0.5
		c10.3-19.7,20.5-39.8,30.8-59.4C607.1,314.3,607.2,314.2,607.2,314.1z"/>
	<path d="M643.2,317.9c-7.7,12.9-15.3,26.5-22.8,40.6c-2.6,4.9-5.2,9.8-7.8,14.8c0,0,0,0,0,0c0,0,0,0,0,0c1.6-0.5,3.2-1.1,4.7-1.6
		c8.5-16.2,17.2-32,25.9-46.8L643.2,317.9C643.2,317.9,643.2,317.9,643.2,317.9L643.2,317.9z"/>
	<path d="M643.2,336.5L643.2,336.5c-4.2,7.1-8.3,14.4-12.4,21.9c-0.1,0.3-0.3,0.5-0.4,0.8c-1.8,3.2-3.5,6.5-5.3,9.7
		c1.2-0.5,2.4-0.9,3.6-1.4c0.5-0.2,1-0.4,1.4-0.5c2-3.6,3.9-7.2,5.9-10.7c0.8-1.4,1.6-2.8,2.4-4.2c1.5-2.6,2.9-5.1,4.4-7.7
		c0.1-0.2,0.3-0.5,0.4-0.7L643.2,336.5C643.2,336.5,643.2,336.6,643.2,336.5L643.2,336.5z"/>
	<path d="M458.7,68.5c2.3-3.3,4.7-6.6,6.9-10.1l-3,0.9c-0.3,0.4-0.4,0.6-0.5,0.8c-1.2,1.6-2.2,4.1-3.1,7.3
		C458.9,67.8,458.8,68.1,458.7,68.5z"/>
	<path d="M455.4,90.7c8.4-11,16.6-23.3,24.6-36.6l-5.3,1.6c-6.1,9.6-12.2,18.8-18.5,27.2c-0.1,0.5-0.1,1-0.2,1.5
		c0,0.3-0.1,0.5-0.1,0.8c0,0.1,0,0.1,0,0.2c-0.1,1.4-0.3,2.8-0.4,4.2C455.5,90,455.4,90.4,455.4,90.7z"/>
	<path d="M454.4,105c-0.1,1.7-0.1,3.3-0.2,5c13.6-17,26.6-37.6,39.2-60l-5,1.5c-11,19-22.2,36.4-33.8,51.2
		C454.5,103.5,454.4,104.2,454.4,105z"/>
	<path d="M453.6,124.8v1.1v0.1c0,0.1,0,0.2,0,0.3c0,0.7-0.1,1.4-0.1,2c2.8-3.3,5.5-6.8,8.3-10.5c0,0,0,0,0,0
		c0.2-0.3,0.4-0.6,0.6-0.8c0.8-1.1,1.6-2.2,2.4-3.3c0.2-0.3,0.5-0.7,0.7-1c0.9-1.2,1.7-2.4,2.6-3.7c0.2-0.3,0.4-0.5,0.6-0.8
		c0.9-1.3,1.8-2.6,2.7-3.9c0.2-0.3,0.4-0.6,0.6-0.9c0.8-1.3,1.7-2.5,2.5-3.8c0.3-0.4,0.6-0.9,0.9-1.3c0.7-1.1,1.4-2.2,2.2-3.3
		c0.5-0.8,1.1-1.7,1.6-2.5c0.4-0.7,0.9-1.4,1.3-2.1c0.8-1.3,1.6-2.6,2.4-3.9c0.1-0.2,0.3-0.4,0.4-0.6c3.9-6.4,7.8-13,11.6-19.7
		c0,0,0,0,0,0c3.4-6,6.8-12.1,10.1-18.3c-1.5,0.1-2.8,0.2-3.9,0.3l-0.2,0c-15.2,27.6-30.7,53.2-47.2,73.3
		C453.7,122.5,453.6,123.7,453.6,124.8z"/>
	<path d="M456.3,142.3c0.9-1.1,1.9-2.3,2.8-3.4c0,0,0,0,0,0c0.6-0.7,1.2-1.5,1.7-2.2c0.2-0.2,0.4-0.5,0.5-0.7
		c0.4-0.6,0.9-1.1,1.3-1.7c0.3-0.4,0.6-0.8,0.9-1.2c0.2-0.3,0.4-0.5,0.6-0.8c1-1.4,2.1-2.8,3.1-4.2c0.7-1,1.4-2,2.2-3
		c0.3-0.4,0.6-0.9,0.9-1.3c0.8-1.1,1.6-2.2,2.3-3.4c0.2-0.3,0.5-0.7,0.7-1c0.8-1.2,1.6-2.4,2.4-3.6c0.2-0.3,0.4-0.6,0.6-0.9
		c0.8-1.3,1.7-2.5,2.5-3.8c0.2-0.3,0.3-0.5,0.5-0.8c0.9-1.3,1.7-2.7,2.6-4c0.1-0.2,0.3-0.4,0.4-0.6c0.9-1.4,1.8-2.8,2.7-4.3
		c0.1-0.1,0.1-0.2,0.2-0.3c10.3-16.8,20.4-35.1,30.4-54c-1.4,0.1-2.7,0.2-4,0.2c-18.1,34-36.6,65.8-56.5,89.7
		C455.5,138.5,455.9,140.3,456.3,142.3z"/>
	<path d="M459.2,191c0.4-0.4,0.8-0.8,1.1-1.3c0,0,0,0.1,0,0.1c30.6-35.1,57.8-89.6,85.3-142.7c0,0,0,0,0,0c0.1-0.3,0.3-0.6,0.4-0.9
		c-0.3,0-0.7,0-1,0c-0.9,0-1.8,0-2.8,0c-26.5,51.5-53.1,103.7-82.7,137.8C459.5,186.3,459.4,188.6,459.2,191z"/>
	<path d="M459.4,218.7c-0.1,0.1-0.2,0.2-0.2,0.2c-0.5,0.6-1.1,1.1-1.6,1.7c-0.1,0.1-0.2,0.3-0.4,0.4c-0.5,0.5-1,1-1.5,1.5
		c-0.1,0.1-0.3,0.3-0.4,0.4c-0.5,0.5-1,1-1.6,1.6c-0.7,2.9-1.5,5.8-2.4,8.7c0,0,0.1-0.1,0.1-0.1c0,0,0,0,0,0.1
		c4.2-3.8,8.3-8.1,12.4-12.6c4.6-5.2,9.1-10.8,13.6-16.8c0-0.1,0.1-0.1,0.1-0.2c0.6-0.8,1.1-1.5,1.7-2.3c0.1-0.1,0.2-0.2,0.3-0.3
		c0.5-0.7,1.1-1.5,1.6-2.2c0.5-0.7,1-1.4,1.5-2c0.1-0.2,0.3-0.4,0.4-0.6c0.5-0.7,1-1.4,1.5-2.2c0-0.1,0.1-0.1,0.1-0.2
		c23.4-33.9,45.2-77.3,67.1-119.7c0.2-0.4,0.4-0.8,0.6-1.1c0.1-0.2,0.2-0.3,0.3-0.5c4.3-8.4,8.7-16.8,13.1-25c0,0,0,0,0,0
		c0.2-0.3,0.3-0.6,0.5-0.9c-1.2,0-2.5-0.1-3.8-0.1c-0.2,0.3-0.3,0.6-0.5,0.9c0,0,0,0,0,0c-6.1,11.6-12.2,23.4-18.3,35.3
		C516.5,134.6,489.7,186.4,459.4,218.7z"/>
	<path d="M501.3,241.3c0.2-0.3,0.3-0.5,0.5-0.8c0.7-1,1.3-2.1,2-3.1c0.4-0.6,0.7-1.2,1.1-1.8c0.3-0.5,0.6-1,0.9-1.5
		c0.7-1,1.3-2.1,2-3.2c0.1-0.1,0.1-0.2,0.2-0.3c0.7-1.2,1.5-2.4,2.2-3.7c0.1-0.1,0.1-0.2,0.2-0.3c1.2-2,2.5-4.1,3.7-6.2
		c20.1-34.2,39.3-73.6,59-110.7c0.5-0.9,0.9-1.7,1.4-2.6c0.1-0.2,0.2-0.4,0.3-0.5c10.3-19.3,20.7-38,31.3-55l-3.7-1.1
		c-2.8,4.5-5.6,9.2-8.3,14l0,0c-28.5,49.1-55.4,108.2-84.1,156c-19.2,32-39.3,58.9-61.3,74.5v0.1c-0.3,0.2-0.6,0.4-0.9,0.6v6.2
		C466.8,288.9,484.5,267.3,501.3,241.3z"/>
	<path d="M455.4,80.5c0.1-0.9,0.2-1.8,0.3-2.7c-1.9-4.9-3.7-9.8-5.3-14.6l-3.9,1.2c2.4,7,5.2,14,8.3,21.2
		C454.9,83.8,455.1,82.1,455.4,80.5z"/>
	<path d="M459.5,62.6c0,0,0-0.1,0.1-0.1c0.1-0.3,0.2-0.5,0.4-0.8c0.3-0.6,0.6-1.2,1-1.7l-4,1.2c0.5,1.5,1,2.9,1.5,4.5
		C458.7,64.5,459.1,63.5,459.5,62.6z"/>
	<path d="M393.1,124l1.8,8c2,3.6,4,7.2,6,10.8l3.5-0.8c-4-7.3-8.1-14.6-12.1-21.8L393.1,124z"/>
	<path d="M387.9,100.5c7.1,13.3,14.5,26.8,22,40.3l3.4-0.8c-9.8-17.6-19.4-35.2-28.3-52.5L387.9,100.5z"/>
	<path d="M388.9,81.9l-0.2,0.1c9.2,18.6,19.6,37.6,30.2,56.7l3.5-0.8c-10.6-19.3-21-38.4-30.1-57L388.9,81.9z"/>
	<path d="M398.4,79l-0.5,0.2c9,18.7,19.4,38,30,57.4l3.5-0.8c-10.7-19.6-21.1-39-30-57.7L398.4,79z"/>
	<path d="M407.1,76.4c8.7,18.9,19,38.4,29.8,58.2l3.5-0.8c-10.8-20-21.1-39.6-29.7-58.5L407.1,76.4z"/>
	<path d="M420.2,72.4l-0.9,0.3l-2.7,0.8c8.4,19,18.6,38.9,29.4,59l3.4-0.8C438.6,111.5,428.4,91.5,420.2,72.4z"/>
	<path d="M452.5,124.8c0-0.7,0-1.4,0.1-2c0-1.4,0.1-2.9,0.1-4.4c-8.6-16.8-16.5-33.2-22.8-49l-3.7,1.1c7.3,17.7,16.4,36.2,26.3,54.9
		V124.8z"/>
	<path d="M453.7,98.9c-5.2-11.1-9.9-21.9-13.8-32.5l-3.8,1.2c4.9,12.6,10.7,25.6,17.1,38.9C453.4,104,453.5,101.4,453.7,98.9z"/>
	<path d="M115,68.4c0.2-1.1,0.5-2.1,0.7-3c0.2-0.8,0.4-1.6,0.5-2.3c-0.4-0.9-0.8-1.9-1.2-2.8l-3.7,1.1c1.1,2.6,2.3,5.3,3.4,7.9
		C114.9,69,114.9,68.7,115,68.4z"/>
	<path d="M113.1,80c-2.7-5.7-5.3-11.2-7.7-16.8l-3.6,1.1c3.3,7.4,6.9,14.9,10.6,22.4C112.6,84.5,112.9,82.2,113.1,80z"/>
	<path d="M111.5,99.7c0-0.6,0.1-1.3,0.1-1.9C106,87.1,100.8,76.5,96,66.1l-3.6,1.1c5.7,12.2,12.1,24.7,18.8,37.4
		C111.3,102.9,111.4,101.3,111.5,99.7z"/>
	<path d="M110.7,117.5c0-0.7,0-1.3,0-2C102.1,99.7,94,84.2,86.7,69l-3.5,1c8.3,17,17.6,34.5,27.3,52.1
		C110.5,120.6,110.6,119.1,110.7,117.5z"/>
	<path d="M109.3,131.2c-11.1-20.1-22.1-40.1-31.7-59.5l-3.5,1.1c9.8,19.3,20.7,39.3,31.7,59.3L109.3,131.2z"/>
	<path d="M65.1,75.5c10,19.3,20.9,39,31.8,58.7l3.3-0.8c-11-19.8-21.9-39.6-31.7-58.9L65.1,75.5z"/>
	<path d="M56.2,78.2c10.1,19.2,21,38.7,31.8,58.1l3.4-0.8c-10.8-19.5-21.8-39.1-31.8-58.3L56.2,78.2z"/>
	<path d="M47.4,80.9c10.2,19,21,38.3,31.6,57.5l3.4-0.8c-10.7-19.3-21.6-38.7-31.8-57.7L47.4,80.9z"/>
	<path d="M39.4,83.3l0.6,2.9c9.8,18.1,20.1,36.3,30,54.4l3.4-0.8C63,120.7,52.3,101.5,42,82.5L39.4,83.3z"/>
	<path d="M46.9,116.9c4.8,8.6,9.6,17.2,14.2,25.8l3.4-0.8c-6.6-12.1-13.4-24.3-20.2-36.5L46.9,116.9z"/>
	<path d="M53,144.6l2.5-0.6c-1.5-2.7-2.9-5.4-4.4-8.2L53,144.6z"/>
	<path d="M291.3,82.5c0.2,2.2,0.5,4.5,0.6,6.8c0,0.4,0.1,0.9,0.1,1.3c6.7,14.8,14.4,30,22.6,45.4l4.5,1.1
		c-10.7-20.2-20.5-40-28.3-58.9C291,79.5,291.2,81,291.3,82.5z"/>
	<path d="M293.5,115.2c3.1,5.9,6.2,11.9,9.4,18l4.5,1.1c-5-9.3-9.7-18.5-14.3-27.6C293.2,109.6,293.3,112.4,293.5,115.2z"/>
	<path d="M294.1,128.3c0.1,1,0.1,1.9,0.2,2.8l1.5,0.4C295.2,130.4,294.7,129.4,294.1,128.3z"/>
	<path d="M355.4,80.1c1.9,6.6,4.2,13.4,6.8,20.4l0.1-0.5l1.6-7c-1.3-3.9-2.5-7.6-3.5-11.3L355.4,80.1z"/>
	<path d="M342.6,76.2c3.9,13.3,9.4,27.2,15.8,41.6l1.4-6.3c-4.9-11.6-9.1-22.9-12.3-33.8L342.6,76.2z"/>
	<path d="M330.3,72.4l-0.5-0.1c5.9,19.2,14.7,39.6,25.2,60.8l0.2-1l1.1-4.8c-8.9-18.5-16.4-36.6-21.5-53.6L330.3,72.4z"/>
	<path d="M317,68.4c7.5,23.7,19.5,49.5,33.3,76l1.9,0.5l0.1,0l0.7-2.9c-12.9-25.2-24-49.6-31.1-72.1L317,68.4z"/>
	<path d="M304.3,64.5c7.9,24.1,20.2,50.2,34.3,77.1l4.5,1.1C329.2,116,317,90,309.2,66L304.3,64.5z"/>
	<path d="M291.6,60.7c8.2,24.5,20.9,50.9,35.2,78.2l4.5,1.1c-14.2-27.1-26.8-53.4-34.8-77.7L291.6,60.7z"/>
	<path d="M695.4,78.9l-4.6-1.4c4.1,10.3,8.8,20.7,14,31.5l1.3-5.8c-3.8-8.3-7.3-16.4-10.5-24.3L695.4,78.9z"/>
	<path d="M708.2,82.7l-4.8-1.4c1.6,4,3.2,7.9,4.9,12l1.5-6.6C709.2,85.3,708.7,84,708.2,82.7z"/>
	<path d="M638.7,121.4c2,3.7,4.1,7.4,6.2,11.2l4.5,1.1c-3.7-6.7-7.3-13.3-10.9-19.9C638.5,116.4,638.6,119,638.7,121.4z"/>
	<path d="M637.4,95.4c0,0.5,0.1,1,0.1,1.6c0.1,1.3,0.2,2.5,0.2,3.8c6,11.4,12.3,22.9,18.7,34.5l4.5,1c-8.2-14.9-16.3-29.8-23.7-44.3
		C637.2,93.1,637.3,94.3,637.4,95.4z"/>
	<path d="M630.4,59.2c0.2,0.3,0.4,0.7,0.6,1c0.2,0.3,0.3,0.6,0.5,0.9c0,0.1,0.1,0.1,0.1,0.2c0.9,1.9,1.7,4.3,2.3,7.1
		c0,0.1,0,0.2,0.1,0.3c0.1,0.4,0.2,0.9,0.3,1.3c0.3,1.5,0.6,3.1,0.9,4.7c9.7,20.5,21,41.7,32.8,63.2l4.4,1
		c-14.9-27-29.1-53.8-39.9-79.1L630.4,59.2z"/>
	<path d="M644,63.3l-3.8-1.1c10.7,25,24.7,51.6,39.5,78.5l4.4,1C669.4,115,655.5,88.5,645,63.6L644,63.3z"/>
	<path d="M652.7,65.9c10.3,24.7,24,50.9,38.6,77.5l4.4,1c-14.4-26.4-28-52.5-38.2-77.1L652.7,65.9z"/>
	<path d="M665.2,69.7c8.9,21.7,20.6,44.6,33.1,67.9l1.2-5.2c-11.2-21.1-21.4-41.6-29.5-61.2L665.2,69.7z"/>
	<path d="M677.8,73.5c6.6,16.3,14.7,33.1,23.6,50.4l1.2-5.4c-7.5-14.8-14.3-29.5-20-43.5L677.8,73.5z"/>
	<path d="M190.6,336.3c-24.5-46-48.3-96-73.9-135.6c0,0,0,0.1,0,0.1c-0.2-0.3-0.4-0.6-0.6-0.9c-0.2,1.9-0.5,3.8-0.8,5.7
		c30,46.4,57.7,107.1,86.8,159.2c0,0,0,0,0.1,0c1.6,2.8,3.1,5.5,4.7,8.2c1.3,0,2.7-0.1,4-0.2c0,0,0,0,0-0.1c0,0,0.1,0,0.1,0
		C204.1,361.2,197.3,348.9,190.6,336.3z"/>
	<path d="M508.7,303.8c0.2-0.2,0.3-0.5,0.5-0.7c0.2-0.4,0.5-0.7,0.7-1.1c0.5-0.7,0.9-1.4,1.4-2.2c0.1-0.1,0.2-0.3,0.3-0.4
		c15.3-23.6,29.9-50.9,44.4-78.9c22.2-42.7,44.1-86.9,67.6-122c0,0,0,0,0,0c3.9-5.7,7.8-11.3,11.7-16.5c-0.2-2-0.5-3.9-0.8-5.8
		c-62,81.5-111.5,236.2-180,279.9h0.1c-2.2,1.4-4.5,2.7-6.7,3.9v0c0,0,0,0-0.1,0l0,1c0,0,0.3,0.3,0.4,0.3l0,0c0,0,0,0,0,0
		c0,0.1,0.1,0.1,0.2,0.2c0.1,0,0.1,0.1,0.2,0.1c0,0,1.4,0.7,3.9,1.9c0,0,0,0,0,0c0,0,0,0,0,0C472.6,351.8,491.1,330.4,508.7,303.8z"
		/>
	<path d="M643.1,299.6C643.1,299.6,643.1,299.7,643.1,299.6L643.1,299.6c-14.5,23.8-28.5,50.4-42.4,77.4c0,0,0.1,0,0.1,0
		c0,0,0,0,0,0c1.5-0.4,3-0.9,4.5-1.3c1.7-3.3,3.4-6.6,5.1-9.9c0,0,0,0,0.1,0c10.8-20.6,21.6-40.7,32.8-59.2l0-7.1
		c0,0.1-0.1,0.2-0.1,0.2L643.1,299.6z"/>
	<path d="M638.5,363.5C638.5,363.5,638.5,363.5,638.5,363.5C638.5,363.5,638.5,363.5,638.5,363.5c3-1.3,4.7-2.1,4.7-2.1v-3.3v0h0
		l0-2.8c-1.5,2.5-2.9,5.1-4.4,7.7C638.7,363.2,638.6,363.3,638.5,363.5z"/>
	<path d="M448,349.6L448,349.6c20.5-11.3,39.2-32.6,57.1-59.3c0.1-0.1,0.2-0.3,0.3-0.4c0.4-0.6,0.9-1.3,1.3-1.9c0,0,0,0,0,0
		c13.3-20.2,26.2-43.4,38.9-67.4c24-45.4,47.4-94.2,72.6-132.7c0-0.1-0.1-0.1-0.1-0.2c4.8-7.4,9.7-14.4,14.6-20.9
		c-0.5-1.8-1-3.4-1.6-4.7c-62.8,83.5-112.9,241.5-183.3,281.3v6.1C447.8,349.7,447.9,349.7,448,349.6z"/>
	<path d="M118.2,148.3C118.2,148.4,118.2,148.4,118.2,148.3c-1.3-1.9-2.7-3.8-4-5.7c0.5,2.7,1.1,5.7,1.6,9.2
		c41.4,59.9,77.6,149.4,118.8,211h0.1c1.6,2.4,3.2,4.8,4.9,7.1c0.2,0.2,0.3,0.5,0.5,0.7c0,0,0,0,0,0c0,0,0,0,0,0
		c1.5-0.2,3-0.3,4.5-0.5c-34-46.5-64.4-114.4-96.5-172.4C138.3,180,128.4,163.3,118.2,148.3z"/>
	<path d="M260.8,71.9c7.3,12.5,14.6,24.4,22.2,35.3c0-0.1-0.1-0.2-0.1-0.3c3.3,4.7,6.5,9.2,9.9,13.5c-0.1-2.2-0.2-4.5-0.3-6.9
		C278.4,95,265.1,72.8,252,49l-0.4-0.1c-0.5-0.1-0.9-0.1-0.9-0.1c0,1.1-0.1,2.7-0.3,4.5c3.5,6.3,7,12.5,10.5,18.6
		C260.9,71.9,260.8,71.9,260.8,71.9z"/>
	<path d="M249.1,70.1c0.5,0.8,0.9,1.6,1.4,2.5c12.6,22.6,25.4,43.6,38.8,61.3c0,0,0,0,0,0c0.7,0.9,1.4,1.9,2.2,2.8
		c0.6-2.5,1.1-4.1,1.4-4.9c-1.9-2.4-3.7-4.9-5.6-7.4c0,0,0-0.1,0-0.1c-12.4-16.9-24.4-36.7-36.1-57.8c0,0,0,0,0,0
		c-0.7-1.3-1.5-2.6-2.2-4c-0.4,1.6-0.8,3.3-1.3,4.9c0.5,0.8,0.9,1.7,1.4,2.5C249.1,70,249.1,70,249.1,70.1z"/>
	<path d="M243.7,79.1c14,25.6,28.2,49.6,43.2,69.2c0,0,0-0.1,0-0.1c0.6,0.8,1.2,1.6,1.8,2.4c0.3-2,0.6-3.8,0.9-5.5
		c-15.5-19.9-30.1-44.4-44.5-70.7c-0.6,1.3-1.2,2.6-1.8,3.9C243.4,78.5,243.6,78.8,243.7,79.1C243.7,79.1,243.7,79.1,243.7,79.1z"/>
	<path d="M238,87.6c9.2,17,18.5,33.4,28,48.5c0,0,0.1,0.1,0.1,0.1c0.6,0.9,1.1,1.8,1.7,2.6c0.1,0.2,0.3,0.5,0.4,0.7
		c0.4,0.7,0.9,1.4,1.3,2c0.2,0.3,0.4,0.6,0.6,0.9c0.4,0.6,0.8,1.2,1.2,1.8c0.2,0.4,0.5,0.7,0.7,1.1c0.2,0.4,0.5,0.7,0.7,1.1
		c0.8,1.2,1.6,2.3,2.4,3.5c0.1,0.1,0.1,0.2,0.2,0.3c0.5,0.7,1,1.5,1.5,2.2c0,0,0,0.1,0.1,0.1c0.7,1.1,1.5,2.1,2.3,3.2
		c0.7,0.9,1.3,1.8,2,2.7c0.1,0.1,0.1,0.2,0.2,0.3c1.9,2.6,3.9,5.2,5.8,7.7c0.1-2.1,0.3-4.2,0.5-6.2c-0.8-1-1.6-2.1-2.4-3.1
		c-0.6-0.8-1.2-1.6-1.8-2.5c-0.7-0.9-1.3-1.8-2-2.7c-0.8-1.1-1.6-2.2-2.3-3.3c-0.4-0.5-0.7-1-1.1-1.6c-0.9-1.3-1.8-2.6-2.7-3.9
		c-0.2-0.3-0.4-0.6-0.6-0.9c-2.5-3.7-5-7.5-7.5-11.4c-0.1-0.1-0.1-0.2-0.2-0.3c-1-1.6-2-3.2-3-4.8c-0.1-0.2-0.2-0.3-0.3-0.5
		c-2.3-3.8-4.6-7.6-6.9-11.5c-0.4-0.7-0.8-1.3-1.2-2c-0.7-1.2-1.4-2.4-2.1-3.6c-0.7-1.3-1.4-2.5-2.2-3.8c-0.4-0.6-0.7-1.3-1.1-1.9
		c-0.9-1.6-1.8-3.2-2.7-4.8c-0.2-0.3-0.3-0.6-0.5-0.9c-2.3-4.2-4.7-8.4-7-12.7c-0.7,1-1.5,2-2.3,3C237.7,87.2,237.9,87.4,238,87.6
		C238,87.6,238,87.6,238,87.6z"/>
	<path d="M231.2,94.1c17.6,33.1,35.5,64.3,54.7,88.3c0,0,0-0.1,0-0.1c0.3,0.4,0.6,0.8,1,1.2c-0.1-2.3-0.1-4.6-0.1-6.8
		c-18.6-23.3-36-53.4-53.1-85.4c-0.9,0.8-1.8,1.6-2.7,2.3C231.1,93.7,231.2,93.9,231.2,94.1C231.2,94.1,231.2,94.1,231.2,94.1z"/>
	<path d="M235,139.3c0,0.1,0.1,0.1,0.1,0.2c0.8,1.5,1.6,3,2.4,4.4c0,0,0,0.1,0.1,0.1c5.1,9.2,10.2,18.1,15.4,26.7
		c0.1,0.1,0.1,0.2,0.2,0.3c0.8,1.3,1.6,2.6,2.4,3.9c0.1,0.2,0.3,0.4,0.4,0.7c0.7,1.2,1.5,2.4,2.2,3.6c0.1,0.2,0.3,0.4,0.4,0.6
		c0.6,1,1.3,2,1.9,3c0.3,0.4,0.5,0.8,0.8,1.2c0.6,1,1.3,2,1.9,3c0.3,0.5,0.7,1,1,1.5c0.4,0.6,0.8,1.2,1.2,1.8
		c0.6,0.9,1.2,1.8,1.8,2.7c0.3,0.4,0.6,0.9,0.9,1.3c0.8,1.1,1.6,2.3,2.4,3.4c0,0,0,0,0,0c0.7,1,1.4,1.9,2.1,2.9
		c0.1,0.2,0.3,0.4,0.4,0.5c1,1.3,1.9,2.6,2.9,3.9c0.1,0.1,0.1,0.2,0.2,0.3c5.5,7.2,11,13.9,16.7,19.9c-0.8-2.9-1.4-5.8-2-8.7
		c-0.1-0.1-0.1-0.1-0.2-0.2c0,0,0,0,0-0.1c-5.1-5.6-10.1-11.8-15-18.4c-20-26.9-38.7-61.3-57.2-96.8c0,0,0,0-0.1,0
		c-0.1-0.2-0.2-0.4-0.3-0.5c-1.1,0.3-2.2,0.6-3.3,0.9c6.1,11.7,12.1,23.2,18.2,34.5C233.7,136.9,234.4,138.1,235,139.3z"/>
	<path d="M205.8,103c17.2,33.4,34.4,66.6,52.6,94.6c13.2,20.3,26.8,38,41.2,50.9l0,0c0,0,0.1,0.1,0.1,0.1v-2.2
		c0-0.1-0.1-0.2-0.1-0.3l0-0.3c-0.7-1.9-1.4-3.7-2-5.5c-0.1-0.1-0.1-0.1-0.2-0.2c0,0,0-0.1,0-0.1c-32-30.5-60.2-83.6-88.1-137.9
		c-1.2,0.1-2.4,0.2-3.7,0.3C205.6,102.6,205.7,102.8,205.8,103C205.8,103,205.8,103,205.8,103z"/>
	<path d="M232.2,172.1c0.3,0.6,0.6,1.2,1,1.8c4.5,8.2,9.1,16.1,13.7,23.8c8.1,13.5,16.4,26.1,24.9,37.3c0.1,0.1,0.1,0.1,0.2,0.2
		c1,1.3,2,2.6,3,3.9c0.2,0.2,0.3,0.4,0.5,0.6c0.9,1.1,1.8,2.3,2.7,3.4c0.3,0.3,0.5,0.6,0.8,1c0.8,1,1.6,1.9,2.4,2.8
		c0.5,0.6,1.1,1.3,1.6,1.9c0.5,0.6,1,1.2,1.5,1.7c0.8,0.9,1.7,1.9,2.5,2.8c0.2,0.2,0.4,0.4,0.6,0.6c3.9,4.2,7.9,8,12,11.5V259
		c0,0-0.1-0.1-0.1-0.1l0-0.1c-17.1-14.9-33-36.3-48.4-61.2c-17.6-28.6-34.5-61.7-51.4-94.4c-0.1-0.3-0.3-0.5-0.4-0.8
		c-1.4-0.1-2.7-0.2-4-0.3c11.7,22.6,23.4,45.5,35.2,67.1C231.1,170.2,231.7,171.2,232.2,172.1z"/>
	<path d="M228.2,183.8c0.3,0.5,0.6,1.1,0.9,1.6c2.3,4.1,4.6,8.2,6.9,12.2c13.5,23.7,27.5,45.4,42.1,62.6c0.1,0.1,0.2,0.2,0.2,0.3
		c0.5,0.6,1,1.2,1.5,1.8c0.1,0.2,0.3,0.3,0.4,0.5c0.4,0.5,0.9,1,1.3,1.5c0.2,0.2,0.4,0.4,0.6,0.6c0.4,0.4,0.7,0.8,1.1,1.2
		c1.4,1.5,2.8,3,4.1,4.4c0,0,0,0,0,0c0.6,0.6,1.1,1.2,1.7,1.7c0,0,0,0,0,0c3.5,3.5,7,6.7,10.6,9.6l0-6.3c0,0-0.1-0.1-0.1-0.1v0
		c-21.3-17.6-40.8-45.5-59.5-77.7c-17.4-29.9-34.2-63.6-51.1-96.1c0,0,0,0,0,0c-0.1-0.2-0.2-0.5-0.4-0.7c-1.6-0.4-3.2-1-4.7-1.6
		c14.6,27.8,29.1,56.7,43.9,83.7C227.9,183.2,228,183.5,228.2,183.8z"/>
	<path d="M155.1,65.9c0.6,1.1,1.3,2.2,1.9,3.3c0,0,0-0.1,0-0.1c0.7,1.2,1.4,2.5,2.2,3.7c-1.9-4.7-3.2-9.5-3.9-13.9c0,0,0-0.1,0-0.1
		c-1.7-3-3.5-5.8-5.3-8.7l-3.7,1.1C149.2,56.1,152.2,61,155.1,65.9L155.1,65.9z"/>
	<path d="M168.1,88.9c10.2,18.5,20.2,38,30.2,57.5c27.1,52.6,54.3,104.9,84.9,137c5.3,5.6,10.8,10.6,16.3,14.8v0c0,0,0,0,0.1,0
		l0-0.1c0.1,0.1,0.2,0.2,0.2,0.2l0-6.3c-25.6-20-48.7-55.2-70.9-95.3c-1-1.7-1.9-3.5-2.9-5.2c-0.3-0.6-0.7-1.3-1-1.9
		c-1.1-2-2.1-3.9-3.2-5.9c-0.1-0.1-0.1-0.2-0.2-0.3c-0.5-0.9-1-1.8-1.4-2.7c-14.9-27.8-29.5-57.3-44.5-85.1c0,0,0,0,0,0
		c-0.2-0.4-0.4-0.8-0.6-1.2c-3.2-2.4-6-5.2-8.4-8.3c0.5,1,1.1,2,1.6,3C168.2,88.9,168.1,88.9,168.1,88.9z"/>
	<path d="M150.2,76.3c0.4,0.6,0.8,1.3,1.1,1.9c1.2,1.9,2.3,3.9,3.5,5.9c0.2,0.3,0.4,0.6,0.6,1c0.3,0.5,0.5,0.9,0.8,1.4
		c20.1,34.7,39.3,74.3,59,111.2c13.7,25.7,27.6,50.1,42.1,70.8c0.4,0.5,0.7,1.1,1.1,1.6c0.2,0.3,0.4,0.5,0.5,0.8
		c3.1,4.3,6.2,8.5,9.4,12.5c6.5,8.1,13.1,15.5,19.9,21.8c0.2,0.2,0.5,0.4,0.7,0.7c0.6,0.6,1.2,1.1,1.8,1.6c0.4,0.3,0.7,0.6,1.1,0.9
		c0.6,0.5,1.2,1.1,1.9,1.6c0.5,0.4,1,0.8,1.5,1.2c0.3,0.2,0.5,0.4,0.8,0.6c1.3,1.1,2.7,2.1,3.9,3l0-6.2c-0.1-0.1-0.2-0.1-0.3-0.2
		l0-0.1c-29.4-21.8-55.4-63.8-80.6-110.5c-23.2-43-45.6-90.2-69.4-129.4c0,0,0,0,0,0c-3.1-5.2-6.3-10.2-9.5-15.1l-3.8,1.2
		c3.7,5.6,7.4,11.4,11.1,17.4C148.3,73.2,149.2,74.8,150.2,76.3z"/>
	<path d="M633.8,210.7C633.8,210.7,633.8,210.7,633.8,210.7c0.1-0.2,0.2-0.3,0.3-0.5c-0.3-1.9-0.6-3.7-0.9-5.6c-0.3,0.5-0.6,1-1,1.5
		c-0.8,1.2-1.5,2.4-2.3,3.7c-0.4,0.6-0.8,1.3-1.2,1.9c-0.7,1.1-1.3,2.2-2,3.3c-1,1.6-1.9,3.2-2.8,4.8c0,0,0,0.1-0.1,0.1
		c-0.1,0.2-0.2,0.4-0.4,0.6c-1.1,1.8-2.1,3.7-3.2,5.5c-0.7,1.3-1.5,2.5-2.2,3.8c-0.2,0.4-0.4,0.8-0.7,1.2
		c-9.5,16.6-18.8,34.3-28.1,52.2c-18.3,35.3-36.5,71.5-55.5,102.5c0,0,0,0,0,0c0,0,0,0,0,0.1c1.4,0.1,2.8,0.2,4.2,0.2
		c0,0,0-0.1,0-0.1c0,0,0,0,0,0c0-0.1,0.1-0.2,0.1-0.2c30.6-50.9,58.9-114.4,89.5-165.1C629.8,217.2,631.8,213.9,633.8,210.7z"/>
	<path d="M486.8,110.1c-0.5,0.8-1,1.6-1.4,2.3c-0.2,0.4-0.4,0.7-0.7,1c-0.5,0.9-1.1,1.7-1.6,2.6c-0.5,0.7-0.9,1.4-1.4,2.1
		c-0.2,0.4-0.5,0.7-0.7,1.1c-0.6,1-1.3,1.9-1.9,2.9c0,0.1-0.1,0.1-0.1,0.2c-0.7,1.1-1.5,2.2-2.2,3.4c-0.1,0.1-0.1,0.2-0.2,0.3
		c-3.9,5.8-7.8,11.3-11.7,16.5c0,0,0,0,0,0c-1,1.3-2,2.7-3.1,4c-0.2,0.3-0.4,0.5-0.6,0.8c-1.1,1.3-2.1,2.6-3.2,3.9
		c0.3,1.8,0.5,3.7,0.7,5.8c0.8-0.9,1.5-1.9,2.3-2.8c0,0,0,0,0,0c11.8-14.6,23.1-32,34.2-50.9c0.1-0.2,0.3-0.5,0.4-0.7
		c0.7-1.2,1.4-2.4,2.1-3.5c0.2-0.4,0.4-0.8,0.7-1.1c0.4-0.8,0.9-1.5,1.3-2.3c0.3-0.6,0.7-1.2,1-1.8c0.3-0.5,0.5-0.9,0.8-1.4
		c0.7-1.3,1.5-2.6,2.2-4c0.1-0.2,0.2-0.3,0.3-0.5c5.6-10,11.1-20.3,16.6-30.7c0.1-0.2,0.2-0.3,0.2-0.5c0.4-0.7,0.8-1.5,1.1-2.2
		c1.3-2.4,2.5-4.8,3.8-7.2c0,0,0,0,0,0c0.1-0.3,0.3-0.5,0.4-0.8c-1.3,0.1-2.6,0.1-3.9,0.2c-0.5,1-1,1.9-1.5,2.9l0,0
		C509.4,70.8,498.3,91.4,486.8,110.1C486.8,110,486.8,110.1,486.8,110.1z"/>
	<path d="M461.4,164.5c-0.6,0.8-1.3,1.6-1.9,2.3c0.1,2.1,0.2,4.2,0.2,6.4c27.2-32.1,51.9-79.3,76.4-127c0,0,0,0-0.1,0
		c-1.3,0-2.5,0.1-3.8,0.1c-0.1,0.3-0.3,0.6-0.4,0.8c0,0,0,0,0,0C509.1,91.1,486.3,134,461.4,164.5
		C461.4,164.5,461.4,164.5,461.4,164.5z"/>
	<path d="M458.7,202.4c-0.3,0.3-0.5,0.5-0.8,0.8c-0.4,2.6-0.8,5.2-1.3,7.9c36-37.8,67.3-103.4,99.4-164.8c-1.3,0-2.5,0-3.8-0.1
		c-0.1,0.3-0.3,0.6-0.4,0.9c0,0,0,0,0,0C521.8,104.9,492.3,165.5,458.7,202.4C458.7,202.3,458.7,202.4,458.7,202.4z"/>
	<path d="M579,110.5c-1,1.9-2,3.8-3,5.7c-0.2,0.4-0.4,0.8-0.7,1.2c-0.3,0.6-0.6,1.2-1,1.8c-17.8,33.8-35.4,69.5-53.6,101.3
		c-13.9,24.3-28.1,46.4-43.1,63.9c-0.1,0.2-0.3,0.3-0.4,0.5c-0.3,0.3-0.5,0.6-0.8,0.9c-5.3,6.1-10.7,11.6-16.2,16.4
		c-3.5,3-7,5.8-10.5,8.2c-0.1,0.1-0.2,0.1-0.3,0.2c-0.3,0.2-0.6,0.4-0.9,0.6v0c-0.3,0.2-0.6,0.4-0.9,0.6v6.1
		c0.3-0.2,0.6-0.4,0.9-0.6l0,0c27.9-18.1,52.6-54.5,76.3-96.8c26.9-48,52.5-103.5,79.9-148.4c0,0,0,0,0,0c3.7-6,7.4-11.9,11.1-17.4
		l-3.8-1.2c-11.2,17.2-22,36.3-32.7,56.3C579.2,110,579.1,110.2,579,110.5z"/>
	<path d="M609.2,76.3c-26.8,43-51.8,96.6-77.9,144.2c-23.7,43.2-48.2,81.4-75.7,101.9c-0.3,0.2-0.5,0.4-0.8,0.6
		c-0.3,0.2-0.6,0.5-0.9,0.7c-1.8,1.3-3.6,2.5-5.4,3.6c-0.2,0.1-0.5,0.3-0.7,0.4v6.1c0.2-0.1,0.4-0.2,0.6-0.3l0,0.1
		c32.1-19.4,60-63.2,86.9-113c25.5-47.1,50.1-99.6,76.5-141.3c0,0,0,0,0,0c4.7-7.5,9.6-14.7,14.4-21.4l-4-1.2
		C617.9,62.9,613.5,69.5,609.2,76.3C609.2,76.4,609.2,76.3,609.2,76.3z"/>
	<path d="M230.2,367.4c-1.3-2-2.5-3.9-3.8-5.9c-0.1-0.2-0.2-0.3-0.3-0.4c-13.7-21.8-26.9-46.5-40.1-71.7
		c-16.1-31-32.1-62.9-48.6-91.6c-1.4-2.4-2.8-4.8-4.2-7.2c-0.2-0.3-0.4-0.7-0.6-1c-0.6-1.1-1.3-2.2-1.9-3.2c-0.3-0.5-0.6-1-0.9-1.5
		c-0.3-0.6-0.7-1.1-1-1.7c-0.4-0.6-0.8-1.3-1.2-1.9c0-0.1-0.1-0.1-0.1-0.2c-0.9-1.5-1.9-3.1-2.8-4.6c-0.2-0.3-0.3-0.5-0.5-0.8
		c-1.5-2.3-2.9-4.6-4.4-6.8c-0.1-0.2-0.3-0.4-0.4-0.6c0-0.1-0.1-0.1-0.1-0.2c0,0,0,0,0,0c-0.7-1.1-1.4-2.1-2.1-3.2
		c0.2,2.4,0.3,4.9,0.3,7.5c0.6,0.8,1.1,1.7,1.7,2.5c0,0,0,0,0,0c1.3,2,2.6,4,3.9,6c0,0,0.1,0.1,0.1,0.1c0.4,0.7,0.9,1.4,1.3,2.1
		c0.3,0.5,0.6,1,0.9,1.4c0.4,0.6,0.8,1.3,1.2,1.9c0.6,0.9,1.2,1.9,1.7,2.9c0.2,0.3,0.3,0.6,0.5,0.8c1.3,2.1,2.6,4.3,3.9,6.5
		c0.8,1.3,1.6,2.6,2.3,4c0.1,0.2,0.3,0.4,0.4,0.7c14.9,25.7,29.3,54,43.8,82.1c0.5,1,1.1,2.1,1.6,3.1c14.6,28.2,29.3,56,44.6,80.3
		c0,0,0,0.1,0.1,0.1c1,1.6,2.1,3.3,3.1,4.9c0,0,0,0,0,0c0,0,0,0,0,0c0,0,0,0,0,0c1.4-0.1,2.9-0.3,4.3-0.4c-0.4-0.6-0.8-1.3-1.3-1.9
		C231.1,368.7,230.6,368,230.2,367.4z"/>
	<path d="M110.7,228.1C110.7,228.1,110.7,228.1,110.7,228.1C110.6,228,110.6,228,110.7,228.1c-0.5,1.5-1,3.1-1.5,4.7
		c25,38.2,48.3,86.4,72,131.6h0.1c1.5,2.9,3,5.8,4.6,8.6c1.1,0.1,2.2,0.1,3.3,0.1c0.2,0,0.3,0,0.5,0c0.1,0,0.2,0,0.3,0
		c-10.1-18.7-20.1-38.2-30-57.5C143.8,284.6,127.6,254,110.7,228.1z"/>
	<path d="M105.1,244.6L105.1,244.6c0,0.1-0.1,0.2-0.1,0.2c22.8,34.3,44.2,77.2,65.6,118.7h0.1c1.5,2.9,3,5.8,4.5,8.7c0,0,0,0,0,0
		c0,0,0,0,0,0c1.3,0.1,2.7,0.2,4,0.3c-24-45.6-47.4-94.2-72.6-132.4C106.2,241.7,105.7,243.2,105.1,244.6z"/>
	<path d="M168.9,371.8c-20.9-40.4-41.7-82-63.7-115.7l0,0.2c-0.3-0.4-0.6-0.9-0.8-1.3l0,0.5l0.1,6.4c0.3,0.4,0.5,0.8,0.8,1.2v0
		c3.3,5.1,6.6,10.4,9.9,15.9c0.9,1.4,1.7,2.9,2.5,4.3c15.2,25.8,29.9,54.5,44.7,83.1c0.9,1.7,1.7,3.3,2.6,5c0,0,0,0,0,0c0,0,0,0,0,0
		C166.2,371.5,167.6,371.7,168.9,371.8C168.9,371.8,168.9,371.8,168.9,371.8C168.9,371.8,168.9,371.8,168.9,371.8z"/>
	<path d="M153.7,361.7C153.7,361.6,153.8,361.6,153.7,361.7c-16-31.4-32.3-62.2-49.3-88.6v7.1c0.2,0.4,0.5,0.8,0.8,1.2l0,0
		c0.2,0.3,0.4,0.6,0.6,0.9c0.2,0.3,0.4,0.6,0.6,1c16.5,26.1,32.2,56.4,48,86.8c1.4,0.2,2.7,0.3,4.1,0.5c-0.5-1-1-2-1.5-2.9
		C155.8,365.7,154.8,363.7,153.7,361.7z"/>
	<path d="M105.2,311.3L105.2,311.3c-0.3-0.3-0.5-0.8-0.8-1.2v7.1c0.3,0.5,0.6,1,0.9,1.5c5,8.2,10,16.8,14.9,25.6
		c2.5,4.4,4.9,8.9,7.4,13.5c1.7,3.1,3.3,6,4.9,9.1c1.4,0.2,2.8,0.5,4.2,0.7c0,0,0,0,0,0c0.1,0,0.1,0,0.2,0
		C126.4,347.9,115.9,328.8,105.2,311.3z"/>
	<path d="M552.5,303.7c0.1-0.1,0.1-0.3,0.2-0.4c6-11.2,11.9-22.6,17.8-34c17.4-33.6,34.7-67.7,52.8-97.1c0.1-0.2,0.2-0.3,0.3-0.5
		c0.6-1,1.3-2.1,1.9-3.1c0.4-0.7,0.9-1.4,1.3-2.1c0.3-0.4,0.5-0.8,0.8-1.2c0.7-1,1.3-2.1,2-3.1c0,0,0,0,0,0c0.8-1.3,1.6-2.5,2.5-3.8
		c0.3-3.1,0.7-5.9,1.1-8.5c-1.1,1.6-2.1,3.2-3.2,4.8c0,0,0-0.1,0-0.1c-13,19.8-25.6,42.4-38,65.9c-19.7,37.3-39,76.8-59.2,111.1
		c-0.4,0.8-0.9,1.5-1.3,2.2c-0.6,1-1.2,2-1.8,3c-0.8,1.4-1.7,2.8-2.5,4.2c-0.3,0.4-0.5,0.8-0.8,1.2c-8.6,13.9-17.4,26.8-26.4,38.1
		c0,0,0,0,0,0c0,0,0,0,0,0c0.6,0.1,1.2,0.3,1.8,0.4c0.9,0.2,1.8,0.4,2.7,0.7c15.8-20.6,30.8-45.9,45.4-73
		C550.9,306.8,551.7,305.3,552.5,303.7z"/>
	<path d="M535.7,371.2c0.9-1.5,1.8-3.1,2.8-4.6c0.6-1.1,1.3-2.2,1.9-3.3c0.2-0.4,0.4-0.8,0.7-1.1c30.8-53,59.6-117.6,91-167
		c-0.2-2.1-0.4-4.2-0.5-6.3c-6.2,9.8-12.4,20.2-18.5,31c-0.1,0.2-0.3,0.4-0.4,0.7c-0.3,0.6-0.6,1.1-0.9,1.7c-0.5,1-1.1,2-1.6,2.9
		c-26.6,48-52,103-79.3,147.1c-0.2,0.3-0.4,0.7-0.6,1c0,0,0,0,0,0c0,0,0,0,0,0c0,0,0,0-0.1,0c-2.4,3.9-4.8,7.6-7.2,11.3c0,0,0,0,0,0
		c0,0,0,0,0,0.1c1.4,0.2,2.8,0.4,4.2,0.5c2.8-4.4,5.6-9,8.4-13.6C535.6,371.4,535.7,371.3,535.7,371.2z"/>
	<path d="M609.8,290.1c0.1-0.2,0.2-0.5,0.4-0.7c1.1-2,2.2-4.1,3.3-6.1c8.5-15.5,17-30.6,25.8-44.4c0-0.1,0.1-0.1,0.1-0.2
		c0.4-0.7,0.9-1.4,1.3-2.1c0,0,0,0,0,0c0,0,0,0,0,0c-0.3-0.8-0.5-1.5-0.7-2.3c-0.3-0.8-0.5-1.6-0.8-2.4
		c-27.2,42.7-52.5,96.7-78.7,145.1c-1.6,2.9-3.2,5.8-4.8,8.7c0,0,0.1,0,0.1,0c0,0,0,0,0,0c0.6-0.1,1.3-0.1,1.9-0.2
		c0.1,0,0.1,0,0.2,0c0.7-0.1,1.4-0.1,2.1-0.2c16.2-29.6,32-61.6,48.1-91.9C608.7,292.2,609.3,291.2,609.8,290.1z"/>
	<path d="M643.1,263.4l0-0.8c0,0,0,0,0,0v0c-11.6,18.3-22.8,38.7-33.9,59.7c-2.6,4.8-5.1,9.7-7.7,14.6c-0.1,0.2-0.2,0.4-0.4,0.7
		c-0.4,0.8-0.8,1.6-1.3,2.4c-5.8,11.1-11.5,22.3-17.2,33.3c-1.6,3.1-3.2,6.2-4.8,9.2c0,0,0.1,0,0.1,0c0,0,0,0,0,0.1
		c1.4-0.3,2.9-0.6,4.3-0.9c20.1-38.6,39.9-78.6,60.9-112L643.1,263.4z"/>
	<path d="M643.1,288.1L643.1,288.1c0-0.2,0.1-0.2,0.1-0.3v-7.1c-16.9,27.2-33,58.5-49.2,89.8h0.1c-1.7,3.2-3.3,6.4-5,9.6
		c1.5-0.4,2.9-0.7,4.4-1.1c0,0,0,0,0,0c0,0,0,0,0,0C609.8,347.4,626.1,315.7,643.1,288.1L643.1,288.1z"/>
	<path d="M448.6,252.2c10.2-8.4,20-19.2,29.5-31.7c23.3-30.6,44.8-71.5,66.2-113c10.5-20.4,21.1-41,31.8-60.5
		c-1.3-0.1-2.6-0.1-3.9-0.2C532,121.1,494,208.4,447.6,246.6l0,6.3C447.9,252.6,448.2,252.4,448.6,252.2L448.6,252.2z"/>
	<path d="M451.2,266.6c1.5-1.3,3-2.6,4.6-3.9c0.3-0.3,0.6-0.6,0.9-0.9c0.3-0.3,0.7-0.6,1-1c0.5-0.4,0.9-0.9,1.4-1.3
		c0.2-0.2,0.4-0.4,0.6-0.6c0.7-0.7,1.4-1.4,2.1-2c0.2-0.2,0.4-0.4,0.5-0.5c0.6-0.6,1.2-1.2,1.8-1.8c0.1-0.1,0.2-0.3,0.4-0.4
		c1.5-1.6,3-3.2,4.5-4.9c0,0,0,0,0,0c7.5-8.5,14.8-18.1,21.9-28.6c10.5-15.4,20.7-32.8,30.7-51c0,0,0,0,0,0c0.7-1.2,1.4-2.5,2-3.7
		c0-0.1,0.1-0.1,0.1-0.2c1.3-2.5,2.7-4.9,4-7.4c0.1-0.2,0.2-0.4,0.3-0.6c0.6-1.1,1.2-2.2,1.8-3.3c0.1-0.1,0.1-0.3,0.2-0.4
		c0.7-1.2,1.3-2.5,2-3.7c0.1-0.1,0.1-0.2,0.2-0.3c0.6-1.2,1.2-2.3,1.8-3.5c0.1-0.2,0.2-0.3,0.3-0.5c15.7-29.9,31.3-61.2,47.2-89.9
		l0,0c1.6-2.8,3.1-5.6,4.7-8.4c-1.2-0.1-2.5-0.1-4-0.2c-43.8,78.3-84.2,176.4-134.6,215.8l0,6.3c1.1-0.9,2.2-1.7,3.3-2.7
		C451,266.7,451.1,266.6,451.2,266.6z"/>
	<path d="M448.6,278.8L448.6,278.8c-0.3,0.3-0.6,0.5-0.9,0.7v6.2c0.2-0.2,0.5-0.5,0.9-0.7c0.1-0.1,0.3-0.2,0.4-0.3
		c0.6-0.4,1.1-0.8,1.7-1.3c0.1,0,0.1-0.1,0.2-0.1c54.7-42.5,97.5-153.9,145.6-234.5l-2.6-0.8l-0.3-0.1c0,0-0.3,0-0.7,0
		c-2.2,3.7-4.4,7.5-6.5,11.4l-0.1,0c-29.5,52.4-57.5,114.1-87.9,161.3C482.6,245,466.2,265.5,448.6,278.8z"/>
</g>
</svg>
