<?xml version="1.0" encoding="utf-8"?>
<!-- Generator: Adobe Illustrator 25.3.0, SVG Export Plug-In . SVG Version: 6.00 Build 0)  -->
<svg version="1.1" id="Layer_1" xmlns="http://www.w3.org/2000/svg" xmlns:xlink="http://www.w3.org/1999/xlink" x="0px" y="0px"
	 viewBox="0 0 750.2 400.1" style="enable-background:new 0 0 750.2 400.1;" xml:space="preserve">
<style type="text/css">
	.st0{fill:none;}
</style>
<g>
	<path class="st0" d="M602.9,221.6c-3.1,0-6.2,0-9.3,0c0,6.4,0,12.6,0,18.9c3.1,0,6.2,0,9.3,0C602.9,234.2,602.9,227.9,602.9,221.6z
		"/>
	<path class="st0" d="M517.5,70.1c-3.2,0-6.3,0-9.3,0c0,3.1,0,6.2,0,9.3c3.2,0,6.3,0,9.3,0C517.5,76.3,517.5,73.2,517.5,70.1z"/>
	<path class="st0" d="M631.3,193.3c-3.2,0-6.3,0-9.5,0c0,3.2,0,6.2,0,9.4c-3.2,0-6.3,0-9.4,0c0,3.2,0,6.3,0,9.4c6.3,0,12.6,0,18.9,0
		C631.3,205.8,631.3,199.6,631.3,193.3z"/>
	<path class="st0" d="M574.5,240.5c3.2,0,6.3,0,9.3,0c0-3.2,0-6.3,0-9.4c-3.2,0-6.2,0-9.3,0C574.5,234.3,574.5,237.4,574.5,240.5z"
		/>
	<path class="st0" d="M555.5,250c3.1,0,6.2,0,9.4,0c0-6.4,0-12.7,0-18.9c-3,0-6.1,0-9.4,0C555.5,237.5,555.5,243.7,555.5,250z"/>
	<path class="st0" d="M565,231c3.2,0,6.3,0,9.4,0c0-3.1,0-6.3,0-9.4c-3,0-6.1,0-9.4,0C565,224.8,565,227.9,565,231z"/>
	<path class="st0" d="M536.6,259.4c6.4,0,12.6,0,18.9,0c0-3.1,0-6.2,0-9.3c-6.3,0-12.6,0-18.9,0
		C536.6,253.2,536.6,256.3,536.6,259.4z"/>
	<path class="st0" d="M470.1,231c0-3.1,0-6.2,0-9.4c-3.2,0-6.3,0-9.4,0c0,3,0,6.1,0,9.4C463.9,231,467.1,231,470.1,231z"/>
	<path class="st0" d="M545.9,212.3c-3.1,0-6.2,0-9.3,0c0,3.2,0,6.2,0,9.3c3.1,0,6.2,0,9.3,0C545.9,218.3,545.9,215.3,545.9,212.3z"
		/>
	<path class="st0" d="M517.1,259.8c0-3.1,0-6.3,0-9.5c6.4,0,12.7,0,18.9,0c0-3.1,0-6.1,0-9.4c3.2,0,6.2,0,9.4,0c0-3.2,0-6.2,0-9.4
		c-3,0-6.1,0-9.4,0c0-3.3,0-6.4,0-9.5c-3.1,0-6.1,0-9.4,0c0-3.2,0-6.3,0-9.5c-6.5,0-12.7,0-19,0c0,3.1,0,6.2,0,9.5
		c-3.3,0-6.4,0-9.5,0c0,6.3,0,12.6,0,19c3.2,0,6.3,0,9.4,0c0,6.3,0,12.6,0,19c3.3,0,6.4,0,9.5,0c0,6.1,0,12.2,0,18.3h0.6
		c0,3.2,0,6.4,0,9.7c0,0,0,0,0,0c0,0,0,0,0,0c0,0,0,0,0,0c2.9,0,5.9,0,8.8,0c0-9.5,0-18.8,0-28.2
		C523.3,259.8,520.2,259.8,517.1,259.8z M508.2,240.5c0-3,0-6.1,0-9.3c6.3,0,12.5,0,18.8,0c0,3,0,6.1,0,9.3
		C520.7,240.5,514.5,240.5,508.2,240.5z"/>
	<path class="st0" d="M517.6,288C517.6,288,517.6,288,517.6,288c-0.2,0-0.4,0-0.6,0c0,0.2,0,0.3,0,0.5c-6.1,0-12.2,0-18.3,0
		c0,2.9,0,5.9,0,9c3.1,0,6.2,0,9.4,0c0,3.2,0,6.2,0,9.4c-0.2,0-0.4,0-0.5,0c0,0.1,0,0.3,0,0.4c-6.2,0-12.4,0-18.9,0
		c0-6.2,0-12.5,0-18.8c-3,0-5.9,0-8.8,0c0,9.4,0,18.7,0,28.1c6.3,0,12.5,0,18.8,0c0,3.2,0,6.3,0,9.4c0,0,0,0,0,0c0,0,0,0,0,0
		c3.1,0,6.2,0,9.5,0c0,6.4,0,12.6,0,18.8c6.2,0,12.2,0,18.3,0c0-3.1,0-6,0-9c-3,0-6.1,0-9.3,0c0-9.5,0-18.9,0-28.5
		c0.2,0,0.3,0,0.5,0c0-0.1,0-0.2,0-0.3c2.9,0,5.9,0,8.8,0c0-3,0-6,0-9.2c-3.2,0-6.3,0-9.4,0c0-3.3,0-6.3,0-9.4c0.2,0,0.4,0,0.5,0
		C517.6,288.2,517.6,288.1,517.6,288C517.6,288,517.6,288,517.6,288C517.6,288,517.6,288,517.6,288z"/>
	<path class="st0" d="M536.7,269c0,6.4,0,12.6,0,19c3.1,0,6.2,0,9.4,0c0,3.2,0,6.3,0,9.4c6.3,0,12.6,0,18.9,0c0-6.2,0-12.5,0-18.8
		c0,0,0,0,0,0c0,0,0,0,0,0c3.1,0,6.2,0,9.5,0c0,0,0,0,0,0c0,0,0,0,0,0c0,6.3,0,12.5,0,18.8c6.2,0,12.5,0,18.8,0c0-4.7,0-9.2,0-13.8
		c0-1.7,0-3.4,0-5.2c-3.2,0-6.2,0-9.4,0c0,0,0-0.1,0-0.1h0.1c0-3.3,0-6.2,0-9.3C568.2,269,552.5,269,536.7,269z"/>
	<path class="st0" d="M593.6,98.2c3.1,0,6.2,0,9.5,0c0,3.3,0,6.4,0,9.6c3.2,0,6.2,0,9.4,0c0,6.4,0,12.6,0,18.8c6.4,0,12.6,0,18.8,0
		c0-6.3,0-12.5,0-18.9c-3.2,0-6.3,0-9.5,0c0-6.4,0-12.7,0-19c-6.3,0-12.5,0-18.8,0c0-3,0-5.9,0-8.8c-0.1,0-0.1,0-0.2,0
		c0-0.2,0-0.3,0-0.5c-3.1,0-6.1,0-9.3,0C593.5,85.7,593.5,92,593.6,98.2z"/>
	<path class="st0" d="M508.2,183.7c3.2,0,6.3,0,9.4,0c0,3.3,0,6.3,0,9.4c3.1,0,6.3,0,9.4,0c0-6.1,0-12.3,0-18.4c-0.1,0-0.2,0-0.3,0
		c0-0.2,0-0.3,0-0.5c-6.1,0-12.3,0-18.5,0C508.2,177.4,508.2,180.5,508.2,183.7z"/>
	<path class="st0" d="M555.6,174.2c3.1,0,6.3,0,9.4,0c0-3.2,0-6.2,0-9.3c0,0-0.1,0-0.1,0c0,0,0-0.1,0-0.1c-3.1,0-6.2,0-9.3,0
		C555.6,167.9,555.6,171.1,555.6,174.2z"/>
	<path class="st0" d="M498.1,371.9c0-2.6,0-5.2,0-7.9c-3.1,0-6,0-9,0c0,3.1,0,6.2,0,9.3c0,0,0,0,0,0c0,0,0,0,0,0.1
		c3.1,0,6.3,0,9.4,0c0,0,0,0,0-0.1c0,0,0,0,0,0c0-0.4,0-0.8,0-1.2C498.5,372,498.3,372,498.1,371.9z"/>
	<path class="st0" d="M498.6,212.1c3.3,0,6.4,0,9.5,0c0-3.1,0-6.2,0-9.4c3.2,0,6.3,0,9.5,0c0-3.3,0-6.4-0.1-9.4c-6.3,0-12.5,0-19,0
		c0-6.5,0-12.7,0-18.9c-3.2,0-6.2,0-9.4,0c0,12.6,0,25.2,0,37.8c-3.2,0-6.3,0-9.4,0c0-6.3,0-12.5,0-18.9c-3.3,0-6.4,0-9.5,0
		c0,3.1,0,6.2,0,9.4c-3.2,0-6.3,0-9.5,0c0,3.3,0,6.4,0,9.5c6.3,0,12.6,0,18.9,0c0,3.1,0,6.2,0,9.4c6.5,0,12.8,0,19,0
		C498.6,218.5,498.6,215.4,498.6,212.1z"/>
	<path class="st0" d="M498.5,250.1c-6.3,0-12.6,0-18.8,0c0,3.1,0,6.2,0,9.4c6.4,0,12.6,0,18.8,0
		C498.5,256.3,498.5,253.2,498.5,250.1z"/>
	<path class="st0" d="M479.8,278.5c3.1,0,6.2,0,9.4,0c0,3.2,0,6.3,0,9.4c3.1,0,6.3,0,9.4,0c0-6.3,0-12.5,0-18.8
		c-6.4,0-12.6,0-18.8,0C479.8,272.3,479.8,275.3,479.8,278.5z"/>
	<path class="st0" d="M527.1,335.6c0-0.1,0-0.1,0-0.2c-0.2,0-0.4,0-0.6,0c0,0.1,0,0.1,0,0.2C526.7,335.6,526.9,335.6,527.1,335.6z"
		/>
	<path class="st0" d="M460.7,287.8c0-3,0-5.9,0-8.8c-0.2,0-0.3,0-0.5,0c0-0.2,0-0.3,0-0.5c-3,0-5.9,0-8.9,0c0,3.1,0,6.2,0,9.3
		C454.5,287.8,457.6,287.8,460.7,287.8z"/>
	<path class="st0" d="M460.7,279c0-0.2,0-0.3,0-0.5c0,0,0,0,0,0C460.7,278.7,460.7,278.8,460.7,279C460.7,279,460.7,279,460.7,279z"
		/>
	<path class="st0" d="M479.7,354.6c0,3,0,6.1,0,9.2c3.1,0,6,0,8.9,0c0-3,0-6.2,0-9.2C485.7,354.6,482.6,354.6,479.7,354.6z"/>
	<path class="st0" d="M460.8,363.7c3.2,0,6.2,0,9.4,0c0-0.2,0-0.3,0-0.5c-0.2-0.1-0.4-0.1-0.5-0.2c0-2.8,0-5.6,0-8.4
		c0.2,0,0.4,0,0.5,0c0-0.1,0-0.2,0-0.3c3.1,0,6,0,8.9,0c0-3,0-6,0-9.2c0.2,0,0.4,0,0.6,0c0-0.1,0-0.2,0-0.3c3.1,0,6,0,8.9,0
		c0-3,0-6.1,0-9.1c0.2,0,0.4,0,0.6,0c0-0.1,0-0.2,0-0.3c0,0,0,0,0,0c0,0,0,0,0,0c0,0,0,0,0,0c-0.2,0-0.4,0-0.6,0c0,0.2,0,0.3,0,0.5
		c-3.1,0-6.2,0-9.5,0c0-3.3,0-6.3,0-9.5c-3.1,0-5.9,0-8.8,0c0,6.2,0,12.2,0,18.5c0,0,0,0,0,0c0,0,0,0,0,0c-6.4,0-12.7,0-18.9,0
		c0,0,0,0,0,0c0,0,0,0-0.1,0c0,3.1,0,6.3,0,9.4c0,0,0,0,0.1,0c0,0,0,0,0,0c3.1,0,6.2,0,9.5,0C460.8,357.6,460.8,360.7,460.8,363.7z"
		/>
	<path class="st0" d="M460.8,325.9C460.8,325.9,460.8,325.9,460.8,325.9C460.8,325.9,460.8,325.9,460.8,325.9c3.1,0,5.9,0,8.8,0
		c0-6.2,0-12.2,0-18.4c-3.1,0-6,0-8.9,0c0,3,0,5.9,0,8.9c-0.2,0-0.4,0-0.7,0c0,0.2,0,0.3,0,0.5c-2.9,0-5.8,0-8.8,0
		c0,6.3,0,12.3,0,18.4c0,0,0,0,0,0c0,0,0,0,0,0.1c3.1,0,6.2,0,9.5,0C460.8,332.1,460.8,329,460.8,325.9z"/>
	<path class="st0" d="M546,164.7c3.2,0,6.3,0,9.4,0c0-3.1,0-6.2,0-9.5c3.3,0,6.4,0,9.5,0c0-12.6,0-25.2,0-37.9c-3.2,0-6.3,0-9.4,0
		c0,3.1,0,6.2,0,9.5c-3.3,0-6.4,0-9.5,0c0,6.3,0,12.5,0,19c-3.3,0-6.3,0-9.4,0c0,3.2,0,6.2,0,9.5c3.1,0,6.2,0,9.4,0
		C546,158.5,546,161.6,546,164.7z"/>
	<path class="st0" d="M574.6,126.7c3.1,0,6.2,0,9.3,0c0-3.2,0-6.3,0-9.3c-3.1,0-6.2,0-9.3,0C574.6,120.6,574.6,123.7,574.6,126.7z"
		/>
	<path class="st0" d="M555.6,212c6.2,0,12.4,0,18.9,0c0,3.3,0,6.4,0,9.5c3.1,0,6.2,0,9.5,0c0-3.2,0-6.3,0-9.5c3.2,0,6.3,0,9.4,0
		c0-3.2,0-6.3,0-9.4c-6.3,0-12.5,0-19,0c0-3.3,0-6.4,0-9.5c-6.2,0-12.4,0-18.8,0C555.6,199.4,555.6,205.6,555.6,212z"/>
	<path class="st0" d="M602.8,117.3c-3.2,0-6.3,0-9.3,0c0,3.2,0,6.3,0,9.4c3.2,0,6.3,0,9.3,0C602.8,123.5,602.8,120.4,602.8,117.3z"
		/>
	<path class="st0" d="M593.4,70c-3.2,0-6.3,0-9.3,0c0,3.2,0,6.2,0,9.4c3.2,0,6.2,0,9.3,0C593.4,76.2,593.4,73.1,593.4,70z"/>
	<path class="st0" d="M584,269c3.1,0,6.2,0,9.3,0c0-6.4,0-12.6,0-18.8c-3.1,0-6.2,0-9.3,0C584,256.5,584,262.8,584,269z"/>
	<path class="st0" d="M546,183.7c3.2,0,6.2,0,9.5,0c0-3.3,0-6.4,0-9.5c-6.3,0-12.6,0-18.9,0c0,6.3,0,12.5,0,19c-3.3,0-6.4,0-9.5,0
		c0,3,0,6.1,0,9.3c6.3,0,12.5,0,18.9,0C546,196.3,546,190.1,546,183.7z"/>
	<path class="st0" d="M584,117.3c3.1,0,6.3,0,9.4,0c0-6.3,0-12.6,0-18.9c-9.4,0-18.8,0-28.3,0c0,3.2,0,6.2,0,9.5
		c6.3,0,12.6,0,18.9,0C584,111.2,584,114.2,584,117.3z"/>
	<path class="st0" d="M460.8,145.7c3.2,0,6.3,0,9.3,0c0-2.9,0-6,0-8.9c-0.1,0-0.2,0-0.3,0c0-0.2,0-0.3,0-0.5c-3,0-6,0-9,0
		C460.8,139.5,460.8,142.6,460.8,145.7z"/>
	<path class="st0" d="M194.7,278.5c-3.2,0-6.2,0-9.2,0c0,3.1,0,6.3,0,9.4c3-0.1,6.2-0.1,9.2-0.1
		C194.7,284.7,194.7,281.7,194.7,278.5z"/>
	<path class="st0" d="M185.3,287.9c-3.1,0-6.1,0-9.3,0c0,3.3,0,6.4,0,9.5c3,0,6.2,0,9.3,0C185.3,294.1,185.3,291,185.3,287.9z"/>
	<path class="st0" d="M204.4,297.4c0-3.2,0-6.3,0-9.4c-3.2,0-6.3,0-9.4,0c0,6.3,0,12.6,0,18.9c6.3,0,12.5,0,18.8,0
		c0-3.3,0-6.3,0-9.5C210.6,297.4,207.6,297.4,204.4,297.4z"/>
	<path class="st0" d="M185.3,278.4c0.1,0,0.1,0,0.2,0c0,0,0-0.1,0-0.1h0c0-3,0-6.1,0-9.1c-6.4,0-12.6,0-18.9,0c0,3.2,0,6.2,0,9.3
		C172.8,278.5,179.1,278.5,185.3,278.4C185.3,278.4,185.3,278.4,185.3,278.4z"/>
	<path class="st0" d="M213.9,212.2c0-3.3,0-6.4,0-9.5c-3,0-6.1,0-9.3,0c0,6.3,0,12.6,0,18.9c6.2,0,12.4,0,18.8,0c0,3.2,0,6.2,0,9.5
		c3.3,0,6.4,0,9.5,0c0-6.3,0-12.6,0-18.9C226.6,212.2,220.4,212.2,213.9,212.2z"/>
	<path class="st0" d="M223.2,278.3c0.1,0,0.1,0,0.2,0c0,0,0,0,0,0h0c0-6.2,0-12.4,0-18.7c3.2,0,6.3,0,9.5,0c0-6.5,0-12.7,0-19
		c-3.1,0-6.1,0-9.4,0c0,3.1,0,6.2,0,9.5c-3.3,0-6.4,0-9.5,0c0,6.3,0,12.5,0,19c-3.3,0-6.4,0-9.5,0c0,3.1,0,6.2,0,9.4
		c6.4,0,12.5,0,18.7,0C223.2,278.4,223.2,278.4,223.2,278.3z"/>
	<path class="st0" d="M270.8,136.4c-3.2,0-6.3,0-9.4,0c0,3.2,0,6.2,0,9.3c3.1,0,6.3,0,9.4,0C270.8,142.6,270.8,139.5,270.8,136.4z"
		/>
	<path class="st0" d="M232.9,231.1c0,3.1,0,6.3,0,9.4c3.1,0,6.1,0,9.1,0c0,0,0-0.1,0-0.1c0.1,0,0.2,0,0.3,0c0-3.1,0-6.2,0-9.3
		C239.2,231.1,236,231.1,232.9,231.1z"/>
	<path class="st0" d="M138,363.7c0-1.4,0-2.8,0-4.3c0,0,0,0-0.1,0c0-8.1,0-16,0-24.1c-3.2,0-6.2,0-9.3,0c0,0,0,0,0,0c0,0,0,0,0,0
		c0,0,0,0,0,0c0,0,0,0,0,0c0,0,0,0,0,0c0,6.3,0,12.5,0,18.9c-3.2,0-6.3,0-9.4,0c0,0,0,0,0,0c0,0,0,0,0,0c0,0,0,0,0,0c0,0,0,0,0,0
		c0,0,0,0,0,0c0,3.1,0,6.2,0,9.3C125.6,363.7,131.8,363.7,138,363.7z"/>
	<path class="st0" d="M204.4,136.3c-3.3,0-6.3,0-9.4,0c0-3.2,0-6.3,0-9.4c-3.1,0-6.3,0-9.4,0c0,3.1,0,6.3,0,9.4c3.1,0,6.2,0,9.3,0
		c0,6.3,0,12.6,0,18.9c-3.1,0-6.2,0-9.4,0c0,6.5,0,12.8,0,19c3.1,0,6.2,0,9.4-0.1c0,3.3,0,6.4,0,9.5c3.1,0,6.2,0,9.4,0
		c0,3.2,0,6.3,0,9.5c3.3,0,6.4,0,9.5,0c0-6.3,0-12.5,0-19c6.5,0,12.7,0,18.9,0c0-3.2,0-6.2,0-9.4c-12.6,0-25.2,0-37.8,0
		c0-3.2,0-6.3,0-9.4c0,0,0.1,0,0.1,0c6.3,0,12.4,0,18.8,0c0-3.3,0-6.4,0-9.5c0,0-0.1,0-0.1,0c-3.1,0-6.1,0-9.3,0
		C204.4,142.6,204.4,139.5,204.4,136.3z"/>
	<path class="st0" d="M242.3,362c0-5.7,0-11.4,0-17.2c-3.3,0-6.4,0-9.6,0c0-3.2,0-6.3,0-9.3c-3.2,0-6.1,0-9.3,0c0,3.1,0,6.2,0,9.4
		c0,0-0.1,0-0.1,0c0,0,0,0,0,0c-3.2,0-6.3,0-9.3,0c0,3.3,0,6.3,0,9.4c6.2,0,12.5,0,19,0c0,3.2,0,6.4,0,9.5c3.1,0,6.3,0,9.4,0
		c0,0,0,0,0-0.1c0,0,0,0,0,0c0-0.6,0-1.2,0-1.8C242.4,362,242.3,362,242.3,362z"/>
	<path class="st0" d="M242.5,325.7c3.2,0,6.3,0,9.3,0c0-3.2,0-6.2,0-9.3c-3.1,0-6.2,0-9.3,0C242.5,319.7,242.5,322.7,242.5,325.7z"
		/>
	<path class="st0" d="M242.2,164.8c0,3.2,0,6.3,0,9.3c9.5,0,18.8,0,28.3,0c0-6.3,0-12.6,0-18.8c-3.1,0-6.2,0-9.5,0
		c0-3.3,0-6.4,0-9.5c-3.1,0-6.3,0-9.4,0c0,6.3,0,12.5,0,19C248.3,164.8,245.2,164.8,242.2,164.8z"/>
	<path class="st0" d="M498.6,325.9c-0.2,0-0.4,0-0.6,0c0,0.1,0,0.3,0,0.4c-2.9,0-5.9,0-8.9,0c0,3.1,0,6.1,0,9c0,0,0,0,0,0
		c0,0,0,0,0,0c0,0,0,0,0,0c0,0,0,0,0,0c0,0,0,0,0,0c2.9,0,5.9,0,8.9,0c0-3.2,0-6.2,0-9.2c0.2,0,0.4,0,0.6,0
		C498.7,326.1,498.7,326,498.6,325.9C498.7,325.9,498.6,325.9,498.6,325.9C498.6,325.9,498.6,325.9,498.6,325.9z"/>
	<path class="st0" d="M138.1,117.3c-3.2,0-6.3,0-9.4,0c0,3.1,0,6.3,0,9.4c3.1,0,6.3,0,9.4,0C138.1,123.7,138.1,120.6,138.1,117.3z"
		/>
	<polygon class="st0" points="128.6,306.9 128.6,306.9 128.6,306.9 128.6,306.9 	"/>
	<path class="st0" d="M195,250.1c-3.3,0-6.4,0-9.5,0c0,3.1,0,6.2,0,9.5c3.3,0,6.3,0,9.5,0c0,3.2,0,6.3,0,9.4c3.3,0,6.3,0,9.4,0
		c0-6.3,0-12.5,0-19c3.3,0,6.4,0,9.5,0c0-6.2,0-12.4,0-18.8c-6.3,0-12.5,0-18.9,0C195,237.4,195,243.6,195,250.1z"/>
	<path class="st0" d="M232.9,183.8c-3.2,0-6.3,0-9.5,0c0,3.2,0,6.2,0,9.4c-3.3,0-6.3,0-9.4,0c0,3.1,0,6.3,0,9.4c6.3,0,12.6,0,18.9,0
		C232.9,196.4,232.9,190.1,232.9,183.8z"/>
	<path class="st0" d="M128.5,126.8c-3.1,0-6.2,0-9.3,0c0,3.3,0,6.3,0,9.4c3.2,0,6.2,0,9.3,0C128.5,133.1,128.5,129.9,128.5,126.8z"
		/>
	<path class="st0" d="M280.5,259.5c3.2,0,6.2,0,9.3,0c0-3.1,0-6.2,0-9.3c-3.2,0-6.3,0-9.3,0C280.5,253.3,280.5,256.4,280.5,259.5z"
		/>
	<path class="st0" d="M399.7,132.6c3.2,0,6.3,0,9.3,0c0-3.2,0-6.2,0-9.4c-3.2,0-6.2,0-9.3,0C399.7,126.4,399.7,129.5,399.7,132.6z"
		/>
	<path class="st0" d="M418.7,113.8c0,6.4,0,12.6,0,18.9c3.2,0,6.2,0,9.3,0c0-6.3,0-12.6,0-18.9C424.9,113.8,421.8,113.8,418.7,113.8
		z"/>
	<path class="st0" d="M157.1,240.5c6.4,0,12.7,0,18.9,0c0-3,0-6.1,0-9.4c-6.3,0-12.6,0-18.9,0C157.1,234.2,157.1,237.3,157.1,240.5z
		"/>
	<path class="st0" d="M185.5,240.6c-3.2,0-6.3,0-9.4,0c0,3.1,0,6.3,0,9.4c3.1,0,6.3,0,9.4,0C185.5,247,185.5,243.9,185.5,240.6z"/>
	<path class="st0" d="M147.6,174.1c3.2,0,6.3,0,9.4,0c0-6.4,0-12.6,0-18.8c-3.2,0-6.3,0-9.4,0C147.6,161.7,147.6,167.9,147.6,174.1z
		"/>
	<path class="st0" d="M176,145.7c3.2,0,6.3,0,9.4,0c0-3.2,0-6.3,0-9.4c-3,0-6.1,0-9.4,0C176,139.5,176,142.6,176,145.7z"/>
	<path class="st0" d="M128.6,164.8c-3.2,0-6.3,0-9.4,0c0,3.1,0,6.3,0,9.4c6.3,0,12.5,0,18.8,0c0-6.4,0-12.7,0-18.8
		c-3.2,0-6.2,0-9.4,0C128.6,158.5,128.6,161.6,128.6,164.8z"/>
	<path class="st0" d="M147.7,231.1c3.2,0,6.3,0,9.3,0c0-6.3,0-12.6,0-18.9c-3.1,0-6.2,0-9.3,0C147.7,218.6,147.7,224.8,147.7,231.1z
		"/>
	<path class="st0" d="M194.9,212.1c-3.2,0-6.3,0-9.3,0c0,3.1,0,6.2,0,9.3c3.2,0,6.3,0,9.3,0C194.9,218.3,194.9,215.2,194.9,212.1z"
		/>
	<path class="st0" d="M166.6,259.4c3.2,0,6.3,0,9.4,0c0-3.2,0-6.2,0-9.3c-3.1,0-6.2,0-9.4,0C166.6,253.3,166.6,256.4,166.6,259.4z"
		/>
	<path class="st0" d="M138.1,268.9c6.4,0,12.6,0,18.8,0c0-3.2,0-6.2,0-9.3c-6.3,0-12.6,0-18.8,0
		C138.1,262.7,138.1,265.8,138.1,268.9z"/>
	<path class="st0" d="M289.7,231.1c-3.1,0-6.2,0-9.5,0c0-3.3,0-6.4,0-9.5c-6.3,0-12.5,0-19,0c0-3.3,0-6.3,0-9.4c-3.2,0-6.2,0-9.4,0
		c0,3.1,0,6.2,0,9.4c-3.2,0-6.3,0-9.4,0c0,3.2,0,6.3,0,9.4c3.1,0,6.2,0,9.5,0c0,3.3,0,6.4,0,9.5c12.6,0,25.2,0,37.8,0
		C289.7,237.3,289.7,234.2,289.7,231.1z"/>
	<path class="st0" d="M574.4,297.5c-3.1,0-6.3,0-9.4,0c0,3.1,0,6.3,0,9.4c3.1,0,6.2,0,9.4,0C574.4,303.7,574.4,300.6,574.4,297.5z"
		/>
	<path class="st0" d="M565,316.4c0-1.7,0-3.3,0-5c0-1.4,0-2.8,0-4.3c-3,0-6.1,0-9.4,0c0,3.2,0,6.2,0,9.3
		C558.7,316.4,561.9,316.4,565,316.4C565,316.4,565,316.4,565,316.4C565,316.4,565,316.4,565,316.4z"/>
	<path class="st0" d="M565,316.4C565,316.4,565,316.4,565,316.4C565,316.4,565,316.5,565,316.4C565,316.5,565,316.5,565,316.4
		C565,316.5,565,316.4,565,316.4z"/>
	<path class="st0" d="M565,316.5c0,6.3,0,12.5,0,18.8c3.3,0,6.4,0,9.5,0c0-3.1,0-6.2,0-9.5c3.2,0,6.3,0,9.4,0c0-3.1,0-6.2,0-9.4
		C577.5,316.5,571.2,316.5,565,316.5z"/>
	<path class="st0" d="M631.3,325.9c-3.1,0-6.3,0-9.4,0c0,0,0,0,0,0c0,0,0,0,0,0c0,6.3,0,12.5,0,19c3.3,0,6.4,0,9.4,0c0,0,0,0,0,0
		c0,0,0,0,0.1,0C631.4,338.5,631.4,332.2,631.3,325.9C631.4,325.9,631.3,325.9,631.3,325.9C631.3,325.9,631.3,325.9,631.3,325.9
		C631.3,325.9,631.3,325.9,631.3,325.9C631.3,325.9,631.3,325.9,631.3,325.9C631.3,325.9,631.3,325.9,631.3,325.9z"/>
	<path class="st0" d="M593.4,344.9C593.4,344.9,593.4,344.9,593.4,344.9C593.4,344.9,593.4,344.9,593.4,344.9
		C593.4,344.9,593.4,344.9,593.4,344.9z"/>
	<path class="st0" d="M592.7,326.2c-2.9,0-5.8,0-8.7,0c0,3,0,6,0,9.2c-0.2,0-0.5,0-0.7,0c0,0.1,0,0.2,0,0.3c-3.1,0-5.9,0-8.8,0
		c0,3,0,6.1,0,9.1c0,0,0,0,0,0c0,0,0,0,0,0c0,0,0,0,0,0c6.3,0,12.6,0,18.9,0c0,0,0,0,0,0c0,0,0,0,0,0c0,0,0,0,0.1,0
		c0-6.3,0-12.6,0-18.9c0,0,0,0-0.1,0c0,0,0,0,0,0c-0.2,0-0.5,0-0.7,0C592.7,326,592.7,326.1,592.7,326.2z"/>
	<path class="st0" d="M498.5,344.9c-3.2,0-6.2,0-9.3,0c0,3.1,0,6.3,0,9.4c3.1,0,6.2,0,9.3,0C498.5,351.1,498.5,348,498.5,344.9z"/>
	<path class="st0" d="M658.5,112.9c3.2,0,6.3,0,9.3,0c0-3.2,0-6.2,0-9.4c-3.2,0-6.2,0-9.3,0C658.5,106.7,658.5,109.8,658.5,112.9z"
		/>
	<path class="st0" d="M554.9,316.7c-3.1,0-6.2,0-9.5,0c0-6.4,0-12.7,0-19c-2.9,0-5.8,0-8.9,0c0,3.2,0,6.1,0,9.2c-0.2,0-0.4,0-0.6,0
		c0,0.1,0,0.2,0,0.3c-3.1,0-5.9,0-8.8,0c0,9.4,0,18.8,0,28.1c2.9,0,5.8,0,8.9,0c0-3.1,0-6.1,0-9c0.2,0,0.4,0,0.6,0
		c0-0.1,0-0.2,0-0.3c3.2,0,6.3,0,9.4,0c0,6.4,0,12.6,0,18.8c0,0,0,0,0,0c0,0,0,0,0,0.1c2.9,0,5.9,0,8.8,0
		C554.9,335.4,554.9,326.1,554.9,316.7z"/>
	<path d="M299.4,344.6c-1.3,0.1-2.7,0.1-4.2,0.2c1.4,0,2.8,0,4.2,0V344.6z"/>
	<path d="M185.5,287.9C185.5,288,185.5,288,185.5,287.9c3.1,0,6.3,0,9.4,0c0-3.1,0-6.2,0-9.4c-0.1,0-0.2,0-0.3,0c0,3.2,0,6.2,0,9.3
		C191.7,287.8,188.5,287.8,185.5,287.9C185.5,287.9,185.5,287.9,185.5,287.9C185.5,287.9,185.5,287.9,185.5,287.9
		C185.5,287.9,185.5,287.9,185.5,287.9z"/>
	<circle cx="246.8" cy="122.1" r="6.7"/>
	<path d="M251.6,108c0-3.3,0-6.4,0-9.5c3.1,0,6.3,0,9.4,0c0-6.3,0-12.6,0-18.8c3.3,0,6.4,0,9.6,0c0,3.2,0,6.2,0,9.2
		c6.3,0,12.6,0,18.8,0c0-4.4,0-8.7,0-13c-0.3-2.1-0.6-4.1-1-5.9c-2.8,0-5.5,0-8.4,0c0-3.2,0-6.3,0-9.4c-6.4,0-12.7,0-18.9,0
		c0,3.1,0,6.2,0,9.5c-3.3,0-6.4,0-9.6,0c0,3.2,0,6.2,0,9.3c-3,0-5.9,0-8.8,0c-1.9,3.4-4.1,6.7-6.8,9.6c5.2,0,10.4,0,15.7,0
		c0,3.2,0,6.3,0,9.4c-3.1,0-6.2,0-9.5,0c0,3.3,0,6.4,0,9.5c-3.1,0-6.2,0-9.4,0c0-5.4,0-10.6,0-15.8c-2.9,2.5-6.1,4.7-9.9,6.4
		c0.2,0,0.3,0,0.5,0c0,9.6,0,19,0,28.3c3.2,0,6.2,0,9.4,0c0-3.2,0-6.2,0-9.4c3.3,0,6.3,0,9.4,0c0-3.1,0-6.3,0-9.4
		C245.2,108,248.3,108,251.6,108z"/>
	<path d="M289.8,278.4C289.8,278.3,289.8,278.3,289.8,278.4c-3.1-0.1-6.2-0.1-9.4-0.1c0,0,0,0,0,0.1
		C283.6,278.4,286.6,278.4,289.8,278.4z"/>
	<path d="M299.3,297.4C299.3,297.4,299.3,297.4,299.3,297.4c0,3.2,0,6.3,0,9.4c0,0,0,0,0,0C299.3,303.7,299.3,300.6,299.3,297.4z"/>
	<path d="M119,278.5c0,3.2,0,6.3,0,9.4c0.1,0,0.1,0,0.2,0c0-3.2,0-6.2,0-9.4C119.1,278.5,119.1,278.5,119,278.5z"/>
	<path d="M185.3,278.5c0.1,0,0.1,0,0.2,0c0,0,0,0,0-0.1C185.4,278.4,185.4,278.4,185.3,278.5C185.3,278.4,185.3,278.4,185.3,278.5z"
		/>
	<path d="M223.2,278.5c0.1,0,0.1,0,0.2,0c0-0.1,0-0.1,0-0.2c-0.1,0-0.1,0-0.2,0C223.2,278.4,223.2,278.4,223.2,278.5z"/>
	<path d="M213.8,145.8C213.8,145.8,213.7,145.8,213.8,145.8C213.7,145.8,213.8,145.8,213.8,145.8
		C213.8,145.8,213.8,145.8,213.8,145.8z"/>
	<path d="M176,297.5c3.1,0,6.2,0,9.5,0c0-3.3,0-6.4,0-9.5c0,0,0,0,0,0c0,0,0,0,0,0c0,0,0,0,0-0.1c-0.1,0-0.1,0-0.2,0
		c0,3.1,0,6.2,0,9.5C182.2,297.4,179,297.4,176,297.5C176,297.4,176,297.4,176,297.5C176,297.4,176,297.4,176,297.5
		C176,297.4,176,297.4,176,297.5z"/>
	<path d="M166.3,278.5c0,6.3,0,12.5,0,18.8c0.1,0,0.1,0,0.2,0c0-6.3,0-12.6,0-18.8C166.4,278.5,166.4,278.5,166.3,278.5z"/>
	<path d="M289.9,344.8C289.9,344.8,289.9,344.8,289.9,344.8c0-9.4,0-18.8,0-28.2c3.3,0,6.7,0,9.9,0l0-0.1c-3.3,0-6.6,0-10,0
		C289.9,326,289.9,335.4,289.9,344.8z"/>
	<path d="M147.4,288c0,3.2,0,6.2,0,9.3c0.1,0,0.1,0,0.2,0c0-3,0-6.1,0-9.3C147.5,288,147.5,288,147.4,288z"/>
	<path d="M299.8,315.3l-0.1-17.9c-0.1,0-0.1,0-0.2,0l0,17.9H299.8z"/>
	<path d="M299.6,278.6c-0.1,0-0.2,0-0.4,0c0,3.2,0,6.2,0,9.4c-6.3,0-12.6,0-18.8,0c0,0,0,0.1,0,0.1c6.2,0,12.4,0,18.8,0
		c0-3.2,0-6.2,0-9.4c0.2,0,0.3,0,0.5,0l0-6.8v-2.8c-3.3,0-6.6,0-9.9,0c0,3.1,0,6,0,9.2h9.8L299.6,278.6z"/>
	<path d="M270.3,307c0,3.1,0,6,0,9.2c0.2,0,0.4,0,0.5,0c0-3.1,0-6.1,0-9.2C270.7,307,270.5,307,270.3,307z"/>
	<path d="M242,240.5c0.1,0,0.2,0,0.3,0c0,0,0-0.1,0-0.1c-0.1,0-0.2,0-0.3,0C242,240.4,242,240.5,242,240.5z"/>
	<path d="M279.8,316.5c0,13.4,0,26.6,0,39.9c0.2,0,0.4-0.1,0.6-0.1c0-13.3,0-26.5,0-39.9C280.2,316.5,280,316.5,279.8,316.5z"/>
	<path d="M270.7,287.9c0-3.2,0-6.4,0-9.6h9.7c0-3,0-6,0-9.3c3.1,0,6.2,0,9.4,0c0-3.1,0-6.2,0-9.3c3.1,0,6.1,0,9.4,0
		c0-4.9,0-9.8,0-14.6c-1.8-4.7-3.3-9.3-4.7-13.9c-1.6,0-3.2,0-4.7,0c0-3.1,0-6.2,0-9.5c-3.3,0-6.4,0-9.5,0c0-3.1,0-6.1,0-9.4
		c3.2,0,6.5,0,9.7,0c-0.6-3.3-1.1-6.5-1.6-9.7c-2.7,0-5.4,0-8.1,0c0-3.1,0-6.1,0-9.2c-3.2,0-6.2,0-9.5,0c0,3,0,6.1,0,9.4
		c-9.6,0-19,0-28.5,0c0,3.1,0,6.2,0,9.4c-3.2,0-6.4,0-9.5,0c0-3.1,0-6.3,0-9.4c3.1,0,6.3,0,9.4,0c0-6.2,0-12.5,0-18.9
		c14.9,0,29.7,0,44.7,0c-0.4-11,0.2-20.6,1.2-28.6c-5.8,0-11.7,0-17.4,0c0-3.1,0-6.3,0-9.4c3.1,0,6.1,0,9.4,0c0-3.2,0-6.2,0-9.5
		c3.2,0,6.3,0,9.5,0c0-3.3,0-6.4,0-9.5c-6.3,0-12.5,0-19,0c0-9.6,0-19,0-28.4c-3.2,0-6.3,0-9.4,0c0,9.4,0,18.8,0,28.4
		c-3.2,0-6.4,0-9.5,0c0,6.3,0,12.6,0,18.9c3.1,0,6.3,0,9.4,0c0,3.1,0,6.2,0,9.5c3.3,0,6.4,0,9.5,0c0,6.2,0,12.5,0,18.8
		c-9.5,0-18.8,0-28.3,0c0-3,0-6.1,0-9.3c3,0,6.1,0,9.4,0c0-6.5,0-12.7,0-19c-3.1,0-6.1,0-9.4,0c0,3.1,0,6.2,0,9.4
		c-6.4,0-12.6,0-19.1,0c0-3.1,0-6.2,0-9.3c-3.1,0-6.2,0-9.3-0.1c0,3.1,0,6.2,0,9.5c-6.4,0-12.5,0-18.8,0c0,0-0.1,0-0.1,0
		c0,3.1,0,6.2,0,9.4c12.6,0,25.2,0,37.8,0c0,3.2,0,6.2,0,9.4c-6.2,0-12.4,0-18.9,0c0,6.5,0,12.7,0,19c-3.1,0-6.2,0-9.5,0
		c0-3.2,0-6.3,0-9.5c-3.2,0-6.3,0-9.4,0c0-3.1,0-6.2,0-9.5c-3.2,0.1-6.3,0.1-9.4,0.1c0-6.2,0-12.5,0-19c3.2,0,6.3,0,9.4,0
		c0-6.3,0-12.6,0-18.9c-3.1,0-6.2,0-9.3,0c0-3.1,0-6.3,0-9.4c3.1,0,6.3,0,9.4,0c0,3.1,0,6.2,0,9.4c3.1,0,6.1,0,9.4,0
		c0,3.2,0,6.3,0,9.5c3.2,0,6.2,0,9.3,0c0,0,0,0,0,0c0-6.3,0-12.6,0-19c-6.5,0-12.7,0-19,0c0-8.3,0-16.5,0-24.8
		c-3.5-0.5-6.7-1.2-9.6-2.3c0,2.7,0,5.4,0,8.1c-3.2,0-6.2,0-9.4,0c0-3.2,0-6.2,0-9.4c-3.2,0-6.1,0-9.1,0c0,0,0,0-0.1,0c0,0,0,0,0,0
		c0-3.2,0-6.3,0.1-9.5c-3.2,0-6.3,0-9.5,0c0-3.1,0-6.3,0-9.4c-6.3,0-12.5,0-18.8,0c0,3.3,0,6.4,0,9.5c6.4,0,12.6,0,18.8,0
		c0,3.1,0,6.2,0,9.3c0,0,0,0.1,0,0.1c0,0,0,0,0,0c3,0,6.2,0,9.2,0c0,3.1,0,6.2,0,9.5c-3.2,0-6.4,0-9.5,0c0,3.1,0,6.2,0,9.5
		c9.6,0,18.9,0,28.4,0c0,3.2,0,6.3,0,9.4c-6.3,0-12.5,0-18.8,0c0,6.4,0,12.7,0,19c3.2,0,6.3,0,9.3,0c0,6.2,0,12.5,0,18.8
		c-3.1,0-6.2,0-9.4,0c0-3,0-6.1,0-9.4c-3.3,0-6.4,0-9.5,0c0-3.1,0-6.1,0-9.4c-9.5,0-18.9,0-28.4,0c0-3.3,0-6.4,0-9.5
		c3.1,0,6.2,0,9.5,0c0-3.3,0-6.4,0-9.5c3.1,0,6.2,0,9.5,0c0-6.5,0-12.7,0-19c3.1,0,6.3,0,9.4-0.1c0-3.1,0-6.3,0-9.4
		c-3.1,0-6.2,0-9.5,0c0,3.3,0,6.4,0,9.4c-3.1,0-6.2,0-9.5,0c0-3.2,0-6.3,0-9.3c-3.2,0-6.3,0-9.4,0c0,6.4,0,12.6,0,18.8
		c-3.1,0-6.2,0-9.4,0c0-6.3,0-12.5,0-19c-2.2,0-4.4,0-6.5,0c-0.6,9.5-0.9,19.1-1.2,26.9c-0.1,2.2-0.2,4.2-0.4,6l0.3-0.1l0.1,0.3
		c0.1,0.2,3.1,9.1,4.9,24c0.9,0,1.8,0,2.7,0c0,3.1,0,6.2,0,9.4c-0.6,0-1.2,0-1.8,0c0.2,3,0.3,6.2,0.4,9.5c0.5,0,0.9,0,1.4,0
		c0,6.3,0,12.6,0,18.9c9.5,0,18.9,0,28.4,0c0-3.1,0-6.2,0-9.5c6.4,0,12.7,0,19,0c0-3.1,0-6.2,0-9.4c6.4,0,12.7,0,19,0
		c0,3.1,0,6.2,0,9.5c3.3,0,6.4,0,9.5,0c0,6.3,0,12.5,0,19c-3.2,0-6.3,0-9.5,0c0,3.3,0,6.3,0,9.4c-3.1,0-6.2,0-9.5,0
		c0,3.3,0,6.4,0,9.4c-3.2,0-6.2,0-9.4,0c0-3.2,0-6.2,0-9.4c-3.3,0-6.3,0-9.4,0c0-6.2,0-12.5,0-18.9c-3.2,0-6.3,0-9.4,0
		c0,0-0.1,0-0.1,0c0,0,0,0,0,0c0,3.1,0,6.2,0,9.3c-9.5,0-18.9,0-28.5,0c0-3.1,0-6.2,0-9.3c-0.7,0-1.5,0-2.2,0
		c-0.8,8.9-2.2,18.4-4.6,28.5c2.3,0,4.6,0,6.9,0c0-3.2,0-6.3,0-9.4c6.4,0,12.6,0,19,0c0,15.7,0,31.5,0,47.2c-3.1,0-6.1,0-9.4,0
		c0,3.2,0,6.2,0,9.4c-6.4,0-12.6,0-19,0c0-6.3,0-12.6,0-18.8c6.3,0,12.5,0,18.8,0c0-3.3,0-6.4,0-9.5c-6.4,0-12.6,0-18.8,0
		c0-3.2,0-6.4,0-9.5c-0.9,3.1-1.9,6.3-3,9.4c0.9,0,1.9,0,2.8,0c0,3.1,0,6.3,0,9.4c-1.7,0-3.4,0-5.2,0l0,28.4c0.3,0,0.6,0,0.8,0v0
		h61.4c0,0.1,0,0.1,0,0.2c0,0,0,0,0,0c0-3.1,0-6.1,0-9.3c6.3,0,12.5,0,18.9,0c0,3,0,6.1,0,9.1h19c0,0.1,0,0.1,0,0.2c0,0,0,0,0,0
		c0-3.2,0-6.3,0-9.4c3.1,0,6.2,0,9.5,0c0-6.5,0-12.7,0-19c3.1,0,6.2,0,9.5,0c0-3.3,0-6.4,0-9.5c3.3,0,6.3,0,9.4,0c0,6.3,0,12.5,0,19
		c-3.2,0-6.3,0-9.5,0c0,6.3,0,12.5,0,18.7h9.3c0-3.3,0-6.4,0-9.4c3.2,0,6.2,0,9.4,0c0,3.2,0,6.2,0,9.3c3.3,0,6.3,0,9.3,0
		c0-6.3,0-12.5,0-18.9c-3.2,0-6.2,0-9.4,0c0-6.4,0-12.6,0-18.8c-3,0-6,0-9.1,0c0-3.1,0-6.3,0-9.4c-3.1,0-6.2,0-9.5,0
		c0-3.3,0-6.3,0-9.5c-6.4,0-12.6,0-18.8,0c0-6.3,0-12.6,0-18.9c3.2,0,6.3,0,9.3,0c0,3.1,0,6.2,0,9.5c6.5,0,12.7,0,19,0
		c0,6.3,0,12.6,0,18.9c3.1,0,6.3,0,9.4,0c0,3.1,0,6.2,0,9.3c3,0,6.1,0,9.1,0c0,3.1,0,6.2,0,9.4c6.4,0,12.6,0,18.9,0
		c0,3.2,0,6.2,0,9.4c-3,0-6.1,0-9.3,0c0,3.2,0,6.3,0,9.6c3.1,0,6.1,0,9.3,0c0,6.4,0,12.5,0,18.9c-6.2,0-12.4,0-18.9,0
		c0,3.3,0,6.4,0,9.5c0.2,0,0.3,0,0.5,0c0-3,0-6.1,0-9.3C258.3,287.9,264.5,287.9,270.7,287.9z M261.4,145.7c0-3.1,0-6.1,0-9.3
		c3.1,0,6.2,0,9.4,0c0,3.1,0,6.2,0,9.3C267.7,145.7,264.5,145.7,261.4,145.7z M128.7,117.3c3.1,0,6.2,0,9.4,0c0,3.3,0,6.4,0,9.4
		c-3.1,0-6.3,0-9.4,0C128.7,123.6,128.7,120.4,128.7,117.3z M119.2,126.8c3.1,0,6.2,0,9.3,0c0,3.1,0,6.3,0,9.4c-3.1,0-6.1,0-9.3,0
		C119.2,133.1,119.2,130.1,119.2,126.8z M138,174.2c-6.3,0-12.5,0-18.8,0c0-3.1,0-6.3,0-9.4c3.1,0,6.2,0,9.4,0c0-3.2,0-6.3,0-9.4
		c3.2,0,6.2,0,9.4,0C138,161.5,138,167.8,138,174.2z M157,174.1c-3.1,0-6.2,0-9.4,0c0-6.2,0-12.4,0-18.8c3.1,0,6.2,0,9.4,0
		C157,161.5,157,167.7,157,174.1z M185.4,145.7c-3.1,0-6.2,0-9.4,0c0-3.1,0-6.2,0-9.4c3.3,0,6.4,0,9.4,0
		C185.4,139.4,185.4,142.5,185.4,145.7z M156.9,268.9c-6.2,0-12.4,0-18.8,0c0-3.1,0-6.2,0-9.3c6.2,0,12.5,0,18.8,0
		C156.9,262.7,156.9,265.7,156.9,268.9z M157,231.1c-3,0-6.1,0-9.3,0c0-6.3,0-12.5,0-18.9c3.1,0,6.2,0,9.3,0
		C157,218.5,157,224.8,157,231.1z M185.6,212.1c3,0,6.1,0,9.3,0c0,3.1,0,6.2,0,9.3c-3,0-6.1,0-9.3,0
		C185.6,218.3,185.6,215.2,185.6,212.1z M176,259.4c-3.1,0-6.2,0-9.4,0c0-3,0-6.1,0-9.3c3.2,0,6.3,0,9.4,0
		C176,253.2,176,256.2,176,259.4z M176,240.5c-6.2,0-12.5,0-18.9,0c0-3.2,0-6.3,0-9.4c6.3,0,12.6,0,18.9,0
		C176,234.4,176,237.5,176,240.5z M176.1,250c0-3.1,0-6.3,0-9.4c3.1,0,6.2,0,9.4,0c0,3.3,0,6.4,0,9.4C182.4,250,179.2,250,176.1,250
		z M213.9,231.2c0,6.4,0,12.6,0,18.8c-3.1,0-6.2,0-9.5,0c0,6.5,0,12.7,0,19c-3.1,0-6.1,0-9.4,0c0-3.1,0-6.2,0-9.4
		c-3.2,0-6.2,0-9.5,0c0-3.3,0-6.4,0-9.5c3.1,0,6.2,0,9.5,0c0-6.5,0-12.7,0-18.9C201.4,231.2,207.6,231.2,213.9,231.2z M214,193.2
		c3.1,0,6.1,0,9.4,0c0-3.2,0-6.2,0-9.4c3.2,0,6.3,0,9.5,0c0,6.3,0,12.6,0,18.8c-6.3,0-12.6,0-18.9,0C214,199.5,214,196.3,214,193.2z
		 M289.8,259.5c-3.1,0-6.1,0-9.3,0c0-3.1,0-6.2,0-9.3c3,0,6.1,0,9.3,0C289.8,253.3,289.8,256.4,289.8,259.5z M251.9,240.5
		c0-3.1,0-6.2,0-9.5c-3.3,0-6.4,0-9.5,0c0-3.1,0-6.2,0-9.4c3.1,0,6.2,0,9.4,0c0-3.2,0-6.3,0-9.4c3.2,0,6.2,0,9.4,0
		c0,3.1,0,6.1,0,9.4c6.5,0,12.7,0,19,0c0,3.1,0,6.2,0,9.5c3.3,0,6.4,0,9.5,0c0,3.1,0,6.2,0,9.4C277.1,240.5,264.5,240.5,251.9,240.5
		z"/>
	<path d="M260.9,297.4c0,3.2,0,6.3,0,9.3c0.2,0,0.3,0,0.5,0c0-3.1,0-6.1,0-9.3C261.2,297.4,261.1,297.4,260.9,297.4z"/>
	<path d="M176,316.3c0-6.3,0-12.5,0-18.8c0,0,0,0-0.1,0c0,0,0,0,0,0c-0.1,0-0.1,0-0.2,0c0,6.3,0,12.5,0,18.8c-3.2,0-6.2,0-9.3,0
		c0,0,0,0.1,0,0.1C169.7,316.3,172.7,316.3,176,316.3z"/>
	<path d="M194.7,306.9c0,3.1,0,6.1,0,9.2c0.1,0,0.2,0,0.3,0c0-3.1,0-6.1,0-9.2C194.9,306.9,194.8,306.9,194.7,306.9z"/>
	<path d="M166.2,307c0,0,0-0.1,0-0.1c-3.2,0-6.2,0-9.3,0c0,12.6,0,25.2,0,37.8c0.1,0,0.2,0,0.3,0c0-12.6,0-25.1,0-37.7
		C160.1,307,163.1,307,166.2,307z"/>
	<path d="M204.4,288c-3.3,0-6.3,0-9.4,0c0,6.3,0,12.6,0,18.9c0,0,0,0,0,0c0-6.3,0-12.6,0-18.9C198.1,288,201.2,288,204.4,288
		c0,3.1,0,6.2,0,9.4c3.2,0,6.2,0,9.4,0c0,3.2,0,6.2,0,9.5c0,0,0,0,0,0c0-3.3,0-6.3,0-9.5c-3.2,0-6.2,0-9.4,0
		C204.4,294.2,204.4,291.1,204.4,288z"/>
	<path d="M119,79.5c0-3.2,0-6.2,0-9.5c-1.1,0-2.2,0-3.3,0c-0.6,2.9-1.1,6.1-1.5,9.5C115.8,79.5,117.4,79.5,119,79.5z"/>
	<path d="M252,335.4c3.2,0,6.3,0,9.2,0c0,0,0,0,0-0.1C258.2,335.3,255.1,335.3,252,335.4C252,335.4,252,335.4,252,335.4z"/>
	<path d="M242.4,297.5c0,0-0.1,0-0.1,0c0.1,3.1,0.1,6.2,0.1,9.4c0,0,0,0,0,0C242.4,303.7,242.4,300.6,242.4,297.5z"/>
	<path d="M223.3,344.9c-3.2,0-6.2,0-9.3,0c0,0,0,0,0,0C217,344.9,220.1,344.9,223.3,344.9C223.3,344.9,223.3,344.9,223.3,344.9z"/>
	<path d="M185.5,364.6C185.5,364.6,185.6,364.6,185.5,364.6c0.1-0.3,0.1-0.5,0.1-0.8c0,0-0.1,0-0.1,0
		C185.5,364.1,185.5,364.3,185.5,364.6z"/>
	<path d="M242.5,316.4C242.5,316.4,242.5,316.4,242.5,316.4c0,3.2,0,6.3,0,9.3c3.2,0,6.2,0,9.4,0c0,0,0,0,0-0.1c-3.1,0-6.2,0-9.3,0
		C242.5,322.7,242.5,319.7,242.5,316.4z"/>
	<path d="M204.6,364.8C204.6,364.8,204.6,364.8,204.6,364.8c0-3.5,0-6.9,0-10.5c0,0,0,0,0,0C204.6,357.9,204.6,361.3,204.6,364.8z"
		/>
	<path d="M213.9,354.3c0,3.1,0,6.2,0,9.5c0,0,0,0,0,0C213.9,360.6,213.9,357.5,213.9,354.3C213.9,354.3,213.9,354.3,213.9,354.3z"/>
	<path d="M232.7,344.8c3.2,0,6.3,0,9.6,0c0,5.8,0,11.5,0,17.2c0,0,0.1,0,0.1,0c0-5.7,0-11.4,0-17.2c-3.3,0-6.3,0-9.6,0
		c0-3.2,0-6.3,0-9.3c-3.2,0-6.2,0-9.4,0c0,0,0,0,0,0.1c3.2,0,6.1,0,9.3,0C232.7,338.5,232.7,341.6,232.7,344.8z"/>
	<path d="M261.4,335.3C261.4,335.3,261.3,335.3,261.4,335.3C261.3,335.3,261.3,335.3,261.4,335.3
		C261.4,335.3,261.4,335.3,261.4,335.3z"/>
	<path d="M138,359.4c0-8,0-16,0-24.1c0,0,0,0-0.1,0C137.9,343.4,137.9,351.3,138,359.4C137.9,359.4,137.9,359.4,138,359.4z"/>
	<path d="M128.6,306.9C128.6,306.9,128.6,306.9,128.6,306.9L128.6,306.9C128.6,306.9,128.6,306.9,128.6,306.9z"/>
	<path d="M128.6,306.9C128.6,306.9,128.6,306.9,128.6,306.9c3.1,0,6.1,0,9.4,0c0-3.2,0-6.2,0-9.5c3.3,0,6.4,0,9.5,0c0,0,0,0,0-0.1
		c-3.1,0-6.2,0-9.5,0c0,3.3,0,6.4,0,9.5C134.8,306.9,131.7,306.9,128.6,306.9C128.6,306.9,128.6,306.9,128.6,306.9
		C128.6,306.9,128.6,306.9,128.6,306.9z"/>
	<path d="M128.6,306.9c0,9.5,0,18.9,0,28.4c0,0,0,0,0,0C128.6,325.8,128.6,316.4,128.6,306.9C128.6,306.9,128.6,306.9,128.6,306.9z"
		/>
	<path d="M289.8,117.4c0,3.2,0,6.3,0,9.3c1.1,0,2.1,0,3.2,0c0-0.6-0.1-1.2-0.1-1.8c0-0.2,0-0.4,0-0.7c-0.1-2.1-0.2-4.5-0.3-6.8
		C291.7,117.4,290.7,117.4,289.8,117.4z"/>
	<path d="M261.4,98.4C261.4,98.3,261.3,98.3,261.4,98.4L261.4,98.4z"/>
	<path d="M251.9,60.5c3.3,0,6.3,0,9.4,0h0c0.1,0,0.1-0.1,0,0c0.1-0.1,0-0.1,0,0c0-2.9,0-5.7,0-8.7l-9.7-2.9
		c-0.5-0.1-0.9-0.1-0.9-0.1c0,0,0,0,0,0c0,0.5,0,1.2-0.1,1.9c0,0.1,0,0.2,0,0.4c0.4,0,0.9,0,1.3,0C251.9,54.3,251.9,57.4,251.9,60.5
		z"/>
	<path d="M104.3,287.9l0,9.5c1.7,0,3.4,0,5.2,0c0,0,0,0,0,0c-1.4,0-2.9,0-4.3,0l0-9.5c1.4,0,2.9,0,4.3,0c0,0,0,0,0,0
		C107.8,287.9,106,287.9,104.3,287.9z"/>
	<path d="M109.7,325.8c0-3.1,0-6.2,0-9.3c0,0,0,0,0,0C109.7,319.6,109.7,322.7,109.7,325.8C109.7,325.8,109.7,325.8,109.7,325.8z"/>
	<path d="M105.1,325.8l0.1-2.4l0-6.9c-0.3,0-0.5,0-0.8,0v9.3c1.8,0,3.5,0,5.3,0c0,0,0,0,0,0C108.2,325.8,106.7,325.8,105.1,325.8z"
		/>
	<path d="M119.2,354.3C119.2,354.3,119.2,354.3,119.2,354.3c3.1,0,6.2,0,9.4,0c0-6.4,0-12.6,0-18.9c0,0,0,0,0,0c0,6.3,0,12.5,0,18.9
		C125.3,354.3,122.3,354.3,119.2,354.3z"/>
	<path d="M280.4,107.8c3.1,0,6.1,0,9.3,0c0-3.2,0-6.2,0-9.3c-3.2,0-6.2,0-9.3,0C280.4,101.7,280.4,104.7,280.4,107.8z"/>
	<path d="M128.6,306.9c0-3.1,0-6.2,0-9.3c0,0,0,0,0,0C128.6,300.7,128.6,303.8,128.6,306.9C128.6,306.9,128.6,306.9,128.6,306.9z"/>
	<path d="M109.7,325.8L109.7,325.8C109.7,325.8,109.7,325.8,109.7,325.8C109.7,325.8,109.7,325.8,109.7,325.8z"/>
	<path d="M109.7,325.8c0,3.2,0,6.3,0,9.5c0,0,0,0,0,0C109.7,332.1,109.7,329,109.7,325.8C109.7,325.8,109.7,325.8,109.7,325.8z"/>
	<path d="M119.1,325.8C119.1,325.8,119.1,325.8,119.1,325.8c-3.2,0-6.3,0-9.4,0c0,0,0,0,0,0C112.8,325.8,115.9,325.8,119.1,325.8z"
		/>
	<path d="M261.4,335.3C261.4,335.3,261.4,335.3,261.4,335.3L261.4,335.3C261.4,335.3,261.4,335.3,261.4,335.3z"/>
	<path d="M270.7,344.7c0-3.2,0-6.2,0-9.3c0,0,0,0,0,0C270.7,338.5,270.7,341.5,270.7,344.7C270.7,344.7,270.7,344.7,270.7,344.7z"/>
	<path d="M185.5,325.9c0,3.1,0,6.2,0,9.3c0,0,0,0,0,0C185.5,332.1,185.5,329,185.5,325.9C185.5,325.9,185.5,325.9,185.5,325.9z"/>
	<path d="M194.8,325.9L194.8,325.9c-3.2,0-6.3,0-9.3,0v0C188.6,325.9,191.6,325.9,194.8,325.9z"/>
	<path d="M175.9,354.2c0-3.2,0-6.2,0-9.3c0,0,0,0,0,0C175.9,348,175.9,351,175.9,354.2C175.9,354.2,175.9,354.2,175.9,354.2z"/>
	<path d="M166.6,344.8C166.6,344.8,166.6,344.8,166.6,344.8C166.6,344.8,166.6,344.8,166.6,344.8
		C166.6,344.8,166.6,344.8,166.6,344.8z"/>
	<path d="M299.5,335.3c0.1,0,0.2,0,0.4,0l0,0C299.8,335.3,299.6,335.3,299.5,335.3C299.5,335.3,299.5,335.3,299.5,335.3z"/>
	<path d="M175.9,183.7c-3.2,0-6.3,0-9.3,0c0,0,0,0,0,0c0,6.3,0,12.5,0,18.8c3.2,0,6.2,0,9.3,0C175.9,196.2,175.9,190,175.9,183.7z"
		/>
	<path d="M157,107.8C157,107.9,157.1,107.9,157,107.8L157,107.8z"/>
	<path d="M157,107.8C157.1,107.9,157.1,107.8,157,107.8L157,107.8z"/>
	<path d="M166.5,85.9c0,1,0,1.9,0.1,3c0.8,0,1.7,0,2.4,0C168.1,87.9,167.3,87,166.5,85.9z"/>
	<path d="M155.2,59c-0.4-2-0.6-4.8-0.8-6.9c0-0.4-0.1-0.7-0.1-1.1c-2.4,0-4.7,0-7,0l-18.7,5.7c0,4.4,0,8.9,0,13.3
		c9.5,0,18.9,0,28.5,0c0,3.3,0,6.4,0,9.5c1.7,0,3.4,0,5.2,0C158.6,72.8,156.3,65.5,155.2,59z"/>
	<path d="M157.1,98.3C157,98.4,157.1,98.4,157.1,98.3L157.1,98.3z"/>
	<path d="M214,101.4c-2.9,0.6-6.1,1-9.5,1.1c0,4.9,0,9.9,0,14.7c3.3,0,6.4,0,9.5,0C214,111.9,214,106.6,214,101.4z"/>
	<path d="M223.5,136.4c0,3.2,0,6.3,0,9.3c3.1,0,6.2,0,9.3,0c0-3.2,0-6.3,0-9.3C229.6,136.4,226.6,136.4,223.5,136.4z"/>
	<path d="M593.4,307.2c3,0,5.9,0,8.8,0c0-0.1,0-0.2,0-0.3c-2.8,0-5.7,0-8.8,0C593.4,307,593.4,307.1,593.4,307.2z"/>
	<path d="M583.3,335.4c-3,0-5.9,0-8.8,0c0,0.1,0,0.2,0,0.3c2.9,0,5.7,0,8.8,0C583.3,335.6,583.3,335.5,583.3,335.4z"/>
	<path d="M469.7,363c0.2,0.1,0.4,0.1,0.5,0.2c0-2.9,0-5.7,0-8.6c-0.2,0-0.4,0-0.5,0C469.7,357.4,469.7,360.2,469.7,363z"/>
	<path d="M592.7,325.9c-2.9,0-5.8,0-8.7,0c0,0.1,0,0.2,0,0.3c2.9,0,5.8,0,8.7,0C592.7,326.1,592.7,326,592.7,325.9z"/>
	<path d="M602.9,288.2c3,0,5.9,0,8.9,0c0-0.1,0-0.2,0-0.3c-3,0-5.8,0-8.9,0C602.9,288,602.9,288.1,602.9,288.2z"/>
	<path d="M479.6,325.9c-3.2,0-6.3,0-9.4,0c0,0,0,0,0,0c0,0,0,0,0,0c0,6.3,0,12.5,0,18.9c0,0,0,0,0,0c0-6.3,0-12.3,0-18.5
		c2.9,0,5.7,0,8.8,0c0,3.2,0,6.2,0,9.5c3.3,0,6.4,0,9.5,0c0-0.2,0-0.3,0-0.5c-2.9,0-5.8,0-8.9,0C479.6,332.1,479.6,329,479.6,325.9z
		"/>
	<path d="M489.1,363.8C489.2,363.8,489.2,363.8,489.1,363.8c0-3.1,0-6.3,0-9.4c-3.1,0-6.3,0-9.4,0c0,0.1,0,0.2,0,0.3
		c2.9,0,6,0,8.9,0c0,3,0,6.2,0,9.2C488.8,363.8,489,363.8,489.1,363.8C489.1,363.8,489.1,363.8,489.1,363.8
		C489.1,363.8,489.1,363.8,489.1,363.8z"/>
	<path d="M498.1,371.9c0.2,0.1,0.4,0.1,0.6,0.1c0-2.7,0-5.4,0-8.3c-3.3,0-6.4,0-9.5,0c0,0,0,0,0,0c0,0,0,0,0,0c0,0.1,0,0.1,0,0.2
		c2.9,0,5.9,0,9,0C498.1,366.7,498.1,369.3,498.1,371.9z"/>
	<path d="M503.8,373.3c0.4,0.1,0.7,0.2,1.1,0.2c0.9,0,1.8,0,2.7,0c0,0.2,0,0.4,0,0.6c0.2,0,0.4,0.1,0.6,0.1c0-0.3,0-0.6,0-1
		C506.7,373.3,505.3,373.3,503.8,373.3z"/>
	<path d="M460.7,279C460.7,279,460.7,279,460.7,279c0,2.9,0,5.8,0,8.8c-3.1,0-6.2,0-9.4,0c0-3.1,0-6.2,0-9.3c0,0,0,0,0,0
		c0,3.1,0,6.2,0,9.3c3.2,0,6.3,0,9.4,0C460.7,284.8,460.7,281.9,460.7,279z"/>
	<path d="M470.1,136.8c0-0.2,0-0.3,0-0.5c-0.1,0-0.2,0-0.3,0c0,0.2,0,0.3,0,0.5C469.9,136.8,470,136.8,470.1,136.8z"/>
	<path d="M448.6,323.7l0-44.8c-0.3,0-0.6,0-0.9,0l0,56.9c1,0,2,0,2.9,0c0-0.2,0-0.3,0-0.5c-0.8,0-1.5,0-2.3,0L448.6,323.7z"/>
	<path d="M451.2,278.3h9c0-2.9,0-5.7,0-8.8c-3.3,0-6.4,0-9.5,0c0,3,0,6,0,9c0.2,0,0.3,0,0.5,0C451.2,278.4,451.2,278.3,451.2,278.3z
		"/>
	<path d="M470.3,278.3h9.5c0,0.1,0,0.2,0,0.2c3.2,0,6.2,0,9.4,0c0,3.3,0,6.3,0,9.4c3.1,0,6.3,0,9.4,0c0-3.2,0-6.4,0-9.7H517
		c0-6.1,0-12.2,0-18.3c-3.1,0-6.2,0-9.5,0c0-6.4,0-12.7,0-19c-3.1,0-6.2,0-9.4,0c0-6.4,0-12.7,0-19c3.1,0,6.2,0,9.5,0
		c0-3.3,0-6.4,0-9.5c6.3,0,12.5,0,19,0c0,3.2,0,6.3,0,9.5c3.3,0,6.3,0,9.4,0c0,3.1,0,6.2,0,9.5c3.3,0,6.4,0,9.4,0c0,3.2,0,6.2,0,9.4
		c-3.2,0-6.2,0-9.4,0c0,3.3,0,6.3,0,9.4c-6.2,0-12.5,0-18.9,0c0,3.2,0,6.4,0,9.5c3.1,0,6.2,0,9.3,0c0,9.4,0,18.7,0,28.2
		c0.2,0,0.4,0,0.6,0c0-3.3,0-6.5,0-9.7h9.7c0,3.2,0,6.5,0,9.7c3.2,0,6.2,0,9.4,0c0,3.3,0,6.3,0,9.4c6.3,0,12.6,0,18.9,0c0,0,0,0,0,0
		c-6.3,0-12.6,0-18.9,0c0-3.1,0-6.2,0-9.4c-3.2,0-6.3,0-9.4,0c0-6.4,0-12.6,0-19c15.8,0,31.5,0,47.3,0c0,3.1,0,6,0,9.3h27.8
		c0-6.2,0-12.3,0-18.5c3.2,0,6.3,0,9.4,0c0-3.1,0-6.1,0-9.4c-5.6-0.3-11.9-0.3-18.3-0.3c0-3.3,0-6.4,0-9.5c6.3,0,12.6,0,18.9,0
		c0-3.3,0-6.4,0-9.5c-3.1,0-6.2,0-9.5,0c0-3.2,0-6.4,0-9.5c-3.1,0-6.3,0-9.4,0c0-3.1,0-6.2,0-9.4c3.2,0,6.3,0,9.4,0
		c0,3.1,0,6.3,0.1,9.4c3.1,0,6.2,0,9.5,0c0,3.2,0,6.3,0,9.4c0,0,0,0.1,0,0.1c5.7,0,11.4,0,17.1,0c-0.9-3.2-1.8-6.3-2.5-9.4
		c-1.7,0-3.5,0-5.2,0c0-3.3,0-6.4,0-9.5c1.1,0,2.1,0,3.2,0c-1.9-10.2-2.9-19.7-3.2-28.5c-9.5,0-18.9,0-28.4,0c0,6.2,0,12.5,0,18.9
		c-3.2,0-6.3,0-9.4,0c0-3.1,0-6.2,0-9.5c-6.5,0-12.8,0-19,0c0-3.1,0-6.2,0-9.5c-3.3,0-6.4,0-9.5,0c0-3.3,0-6.3,0-9.4
		c6.3,0,12.5,0,19,0c0,3.2,0,6.3,0,9.5c6.4,0,12.5,0,18.8,0c0-3.1,0-6.2,0-9.5c-3.3,0-6.4,0-9.4,0c0-3.2,0-6.2,0-9.4
		c3.2,0,6.2,0,9.3,0c0-3.3,0-6.3,0-9.3c-6.3,0-12.5,0-18.9,0c0,3.2,0,6.2,0,9.4c-6.4,0-12.6,0-18.8,0c0,3.1,0,6.1,0,9.3
		c-3.1,0-6.3,0-9.4,0c0-3.1,0-6.3,0-9.4c3.1,0,6.2,0,9.3,0c0-3.1,0-6.2,0-9.3c3.1,0,6.2,0,9.4,0c0-6.4,0-12.6,0-18.9
		c3.2,0,6.2,0,9.4,0c0,3,0,6.1,0,9.3c3.2,0,6.3,0,9.6,0c0-3.1,0-6.1,0-9.3c6.4,0,12.5,0,18.9,0c0,6.2,0,12.4,0,18.9
		c3.3,0,6.4,0,9.5,0c0-3.1,0-6.2,0-9.5c3.3,0,6.4,0,9.5,0c0-3.2,0-6.2,0-9.4c1.6,0,3.1,0,4.7,0c0.9-3.4,1.5-5.3,1.5-5.4l0.1-0.3
		l0.2,0.1c-0.1-1.5-0.2-3.1-0.2-4.9v-1.2c-0.4-13-1-31.1-2.8-45.2c-4.3,0-8.6,0-12.9,0c0-3.2,0-6.2,0-9.4c3.8,0,7.6,0,11.3,0
		c-0.8-3.9-1.8-7.1-3-9.3c-6.1,0-12,0-18,0c0,6.4,0,12.5,0,18.9c-3.1,0-6.2,0-9.1,0c0,2.9,0,5.8,0,8.8c6.3,0,12.5,0,18.8,0
		c0,6.3,0,12.6,0,19c3.2,0,6.3,0,9.5,0c0,6.4,0,12.6,0,18.9c-6.2,0-12.4,0-18.8,0c0-6.2,0-12.4,0-18.8c-3.2,0-6.2,0-9.4,0
		c0-3.2,0-6.3,0-9.6c-3.3,0-6.4,0-9.5,0c-0.1-6.2-0.1-12.5-0.1-18.8c3.1,0,6.2,0,9.3,0c0-0.4-0.1-0.9-0.1-1.3c0-8.2,0-16.5,0-24.7
		c0-0.6,0-1.2,0-1.9c-3.2,0-6.3,0-9.5,0c0,3.2,0,6.2,0,9.4c-6.4,0-12.7,0-18.9,0c0,6.2,0,12.5,0,19c-3.2,0-6.4,0-9.5,0
		c0,3.1,0,6.2,0,9.5c-3.3,0-6.3,0-9.6,0c0,3.2,0,6.3,0,9.5c-3.2,0-6.3,0-9.4,0c0,3.1,0,6.1,0,9.4c3.1,0,6.2,0,9.4,0
		c0,3.3,0,6.4,0,9.5c-3.1,0-6.2,0-9.5,0c0,3.3,0,6.4,0,9.5c-3.1,0-6.1,0-9.4,0c0-6.3,0-12.5,0-18.9c-3.2,0-6.3,0-9.6,0
		c0-6.4,0-12.7,0-19c-3.1,0-6.2,0-9.4,0c0-3.2,0-6.4,0-9.5c3.1,0,6.3,0,9.4-0.1c0-6.3,0-12.6,0-18.9c-3.1,0-6.1,0-9.3,0
		c0-3.2,0-6.2,0-9.5c3.1,0,6.2,0,9.3,0c0-1.5,0-3,0-4.4c-7.3,0.3-13.9,0.7-19,1c0,4.3,0,8.6,0,13c-3.2,0-6.2,0-9.5,0
		c0,3.2,0,6.3,0,9.4c-3.2,0-6.2,0-9.4,0c0-6.2,0-12.4,0-18.6l-19,5.7c0,1.2,0,2.3,0,3.5c-2.9,0-5.5,0-8.3,0
		c-0.4,0.7-0.8,1.5-1.2,2.5c0,2.3,0,4.6,0,6.9c6.2,0,12.5,0,18.9,0c0,3.2,0,6.2,0,9.5c3.2,0,6.3,0,9.5,0c0,3.2,0,6.2,0,9.4
		c3.2,0,6.2,0,9.5,0c0,6.5,0,12.7,0,19c3.1,0,6.2,0,9.4,0c0-3.1,0-6.2,0-9.4c3.2,0,6.3,0,9.5,0c0,6.3,0,12.4,0,18.8
		c3.2,0,6.2,0,9.4,0c0,3.2,0,6.3,0,9.5c-3.1,0-6.1,0-9.2,0c0,3.2,0,6.2,0,9.5c3,0,6.1,0,9.4,0c0,9.6,0,19,0,28.5c3.1,0,6.2,0,9.4,0
		c0,3.2,0,6.4,0,9.5c-3,0-6.1,0-9.1,0c0,6.1,0,12.3,0,18.4c-3.1,0-6.3,0-9.4,0c0-3.1,0-6.1,0-9.4c-3.1,0-6.2,0-9.4,0
		c0-3.2,0-6.3,0-9.5c6.2,0,12.4,0,18.5,0c0-2.9,0-6,0-8.9c-6.2,0-12.5,0-18.9,0c0-15.8,0-31.5,0-47.4c-3.2,0-6.3,0-9.6,0
		c0-3.3,0-6.4,0-9.5c-3.1,0-6.2,0-9.4,0c0-3.2,0-6.2,0-9.4c-3.2,0-6.2,0-9.4,0c0-3.2,0-6.2,0-9.5c-6.4,0-12.6,0-19.1,0
		c0-6.5,0-12.7,0-19c-0.7,0-1.4,0-2.1,0c-1.7,7.7-2.8,18-3.4,28.5c5,0,10,0,14.9,0c0,3.1,0,6.1,0,9.3c3.2,0,6.3,0,9.5,0
		c0,9.6,0,19.1,0,28.5c-3,0-6.1,0-9.1,0c0,2.9,0,6,0,8.9c-3,0-6.1,0-9.3,0c0-3.1,0-6.2,0-9.4c3,0,6,0,9,0c0-2.9,0-5.8,0-8.9
		c-3.2,0-6.2,0-9.5,0c0-3.2,0-6.3,0-9.5c-2.2,0-4.4,0-6.5,0c-0.1,2.4-0.2,4.7-0.2,6.9v1.2c-0.1,1.8-0.2,3.4-0.3,5h0.1l0.1,0.3
		c0.1,0.2,3.2,9.3,5,24.5c3.7,0,7.5,0,11.2,0c0-3.1,0-6.3,0-9.4c3.1,0,6.2,0,9.5,0c0-3.3,0-6.4,0-9.5c6.2,0,12.5,0,18.8,0
		c0,9.5,0,18.8,0,28.3c-3,0-6.1,0-9.3,0c0-3,0-6.1,0-9.4c-6.5,0-12.7,0-19,0c0,3.1,0,6.1,0,9.4c3.1,0,6.2,0,9.4,0
		c0,6.4,0,12.6,0,19.1c-3.1,0-6.2,0-9.3,0c0,3.1,0,6.3-0.1,9.4c-3.6,0-7.1,0-10.7,0c-0.5,5.9-1.3,12.1-2.5,18.5c1.4,0,2.9,0,4.3,0
		c0,3.1,0,6.3,0,9.4c3.1,0,6.2,0,9.4,0c0,3.2,0,6.3,0,9.4c-3,0-6.2,0-9.4,0c0-3.3,0-6.4,0-9.4c-2.1,0-4.2,0-6.3,0
		c-1.1,4.4-2.3,8.8-3.7,13.4c0,2,0,4,0,6c6.4,0,12.7,0,19,0c0-3.2,0-6.3,0-9.3c6.2,0,12.5,0,18.8,0c0,3.1,0,6.2,0,9.4
		c-3,0-6.1,0-9.4,0c0,3.3,0,6.4,0,9.5c-3.1,0-6.1,0-9.4,0c0,9.3,0,18.5,0,27.9c0.2,0,0.4,0,0.6,0
		C470.3,278.4,470.3,278.3,470.3,278.3z M612.4,202.7c3.1,0,6.2,0,9.4,0c0-3.2,0-6.2,0-9.4c3.2,0,6.3,0,9.5,0c0,6.3,0,12.5,0,18.8
		c-6.3,0-12.6,0-18.9,0C612.4,209,612.4,205.9,612.4,202.7z M593.6,221.6c3.1,0,6.2,0,9.3,0c0,6.3,0,12.6,0,18.9c-3.1,0-6.2,0-9.3,0
		C593.6,234.2,593.6,228,593.6,221.6z M508.2,79.4c0-3.1,0-6.2,0-9.3c3,0,6.1,0,9.3,0c0,3.1,0,6.2,0,9.3
		C514.5,79.4,511.4,79.4,508.2,79.4z M536.6,221.6c0-3.1,0-6.1,0-9.3c3.1,0,6.2,0,9.3,0c0,3,0,6,0,9.3
		C542.8,221.6,539.7,221.6,536.6,221.6z M555.5,259.4c-6.3,0-12.5,0-18.9,0c0-3.1,0-6.2,0-9.3c6.3,0,12.6,0,18.9,0
		C555.5,253.2,555.5,256.3,555.5,259.4z M564.9,250c-3.2,0-6.3,0-9.4,0c0-6.3,0-12.5,0-18.9c3.3,0,6.4,0,9.4,0
		C564.9,237.3,564.9,243.6,564.9,250z M574.4,231c-3.1,0-6.2,0-9.4,0c0-3.1,0-6.2,0-9.4c3.3,0,6.4,0,9.4,0
		C574.4,224.7,574.4,227.9,574.4,231z M583.8,240.5c-3,0-6.1,0-9.3,0c0-3.1,0-6.2,0-9.4c3.1,0,6.1,0,9.3,0
		C583.8,234.2,583.8,237.3,583.8,240.5z M593.3,269c-3.1,0-6.2,0-9.3,0c0-6.2,0-12.5,0-18.8c3.1,0,6.2,0,9.3,0
		C593.3,256.4,593.3,262.6,593.3,269z M574.4,193.1c0,3.1,0,6.2,0,9.5c6.5,0,12.7,0,19,0c0,3.1,0,6.2,0,9.4c-3.1,0-6.2,0-9.4,0
		c0,3.2,0,6.3,0,9.5c-3.3,0-6.4,0-9.5,0c0-3.1,0-6.2,0-9.5c-6.5,0-12.7,0-18.9,0c0-6.4,0-12.6,0-18.9
		C562,193.1,568.2,193.1,574.4,193.1z M583.9,126.7c-3.1,0-6.2,0-9.3,0c0-3,0-6.1,0-9.3c3.1,0,6.2,0,9.3,0
		C583.9,120.4,583.9,123.5,583.9,126.7z M593.5,117.3c3,0,6.1,0,9.3,0c0,3.1,0,6.2,0,9.4c-3,0-6.1,0-9.3,0
		C593.5,123.6,593.5,120.5,593.5,117.3z M584.1,70c3,0,6.1,0,9.3,0c0,3.1,0,6.2,0,9.4c-3.1,0-6.1,0-9.3,0
		C584.1,76.2,584.1,73.2,584.1,70z M565.1,98.4c9.5,0,18.9,0,28.3,0c0,6.3,0,12.6,0,18.9c-3.1,0-6.3,0-9.4,0c0-3.1,0-6.1,0-9.4
		c-6.3,0-12.6,0-18.9,0C565.1,104.6,565.1,101.6,565.1,98.4z M536.6,145.8c3.1,0,6.1,0,9.4,0c0-6.5,0-12.7,0-19c3.1,0,6.2,0,9.5,0
		c0-3.3,0-6.4,0-9.5c3.1,0,6.2,0,9.4,0c0,12.7,0,25.3,0,37.9c-3.1,0-6.2,0-9.5,0c0,3.3,0,6.4,0,9.5c-3.1,0-6.2,0-9.4,0
		c0-3.1,0-6.2,0-9.4c-3.2,0-6.3,0-9.4,0C536.6,152,536.6,149,536.6,145.8z M527.1,193.2c3.1,0,6.2,0,9.5,0c0-6.5,0-12.7,0-19
		c6.3,0,12.6,0,18.9,0c0,3.1,0,6.2,0,9.5c-3.3,0-6.3,0-9.5,0c0,6.4,0,12.6,0,18.8c-6.4,0-12.6,0-18.9,0
		C527.1,199.3,527.1,196.2,527.1,193.2z M498.6,287.9c-3.1,0-6.3,0-9.4,0c0-3.1,0-6.2,0-9.4c-3.2,0-6.3,0-9.4,0c0-3.2,0-6.2,0-9.4
		c6.2,0,12.4,0,18.8,0C498.6,275.4,498.6,281.6,498.6,287.9z M479.6,221.6c0-3.2,0-6.3,0-9.4c-6.3,0-12.6,0-18.9,0
		c0-3.1,0-6.2,0-9.5c3.2,0,6.3,0,9.5,0c0-3.2,0-6.3,0-9.4c3.1,0,6.2,0,9.5,0c0,6.4,0,12.6,0,18.9c3.1,0,6.2,0,9.4,0
		c0-12.6,0-25.2,0-37.8c3.2,0,6.2,0,9.4,0c0,6.2,0,12.4,0,18.9c6.5,0,12.7,0,19,0c0.1,3,0.1,6.1,0.1,9.4c-3.2,0-6.3,0-9.5,0
		c0,3.2,0,6.3,0,9.4c-3.1,0-6.2,0-9.5,0c0,3.3,0,6.4,0,9.5C492.4,221.6,486.1,221.6,479.6,221.6z M479.7,250.1c6.2,0,12.5,0,18.8,0
		c0,3.1,0,6.2,0,9.4c-6.2,0-12.4,0-18.8,0C479.7,256.3,479.7,253.2,479.7,250.1z"/>
	<path d="M489.2,354.3c3.1,0,6.2,0,9.3,0c0-3.2,0-6.3,0-9.4c-3.2,0-6.3,0-9.3,0C489.2,348,489.2,351.2,489.2,354.3z M489.2,344.9
		c3.1,0,6.1,0,9.3,0c0,3.1,0,6.2,0,9.4c-3.1,0-6.2,0-9.3,0C489.2,351.2,489.2,348,489.2,344.9z"/>
	<path d="M565,307.1c0-0.1,0-0.1,0-0.2c-3.1,0-6.2,0-9.4,0c0,3.2,0,6.3,0,9.4c0,0,0,0,0.1,0c0-3.1,0-6.1,0-9.3
		C558.9,307.1,562,307.1,565,307.1z"/>
	<path d="M643.1,250v-6.6c-0.9-2.3-1.7-4.6-2.4-6.9c0,1.4,0,2.8,0,4.2c-3.1,0-6.2,0-9.3,0c0,3.2,0,6.2,0,9.3
		C635.3,250,639.2,250,643.1,250z"/>
	<path d="M565,316.5c0,6.3,0,12.5,0,18.8c0,0,0,0,0,0C565,329,565,322.8,565,316.5C565,316.5,565,316.5,565,316.5z"/>
	<path d="M565,316.4c0-1.7,0-3.3,0-5C565,313,565,314.7,565,316.4C565,316.4,565,316.4,565,316.4z"/>
	<path d="M574.4,306.9C574.4,306.9,574.4,306.9,574.4,306.9c0.1-3.3,0.1-6.4,0.1-9.4c-3.1,0-6.3,0-9.4,0c0,0,0,0,0,0
		c3.1,0,6.3,0,9.4,0C574.4,300.6,574.4,303.7,574.4,306.9z"/>
	<path d="M565,316.4C565,316.4,565,316.4,565,316.4C565,316.4,565,316.5,565,316.4c6.2,0.1,12.5,0.1,18.9,0.1c0,3.2,0,6.3,0,9.4
		c0,0,0,0,0,0c0-3.1,0-6.2,0-9.5C577.5,316.4,571.3,316.4,565,316.4C565,316.4,565,316.4,565,316.4z"/>
	<path d="M451.2,316.9c3,0,5.9,0,8.8,0c0-0.2,0-0.3,0-0.5c-3,0-5.8,0-8.8,0C451.2,316.6,451.2,316.7,451.2,316.9z"/>
	<path d="M517,287.9c-6.1,0-12.2,0-18.3,0c0,0.1,0,0.3,0,0.4c6.1,0,12.2,0,18.3,0C517,288.2,517,288.1,517,287.9z"/>
	<path d="M488.6,307.2c6.5,0,12.7,0,18.9,0c0-0.1,0-0.3,0-0.4c-6,0-12.1,0-18.4,0c0-6.3,0-12.5,0-18.8c-3.1,0-6.2,0-9.4,0
		c0,0.1,0,0.3,0,0.4c2.9,0,5.8,0,8.8,0C488.6,294.7,488.6,301,488.6,307.2z"/>
	<path d="M498,325.9c-2.9,0-5.8,0-8.9,0c0,0.1,0,0.3,0,0.4c3,0,6,0,8.9,0C498,326.2,498,326,498,325.9z"/>
	<path d="M555.5,344.9C555.5,344.9,555.5,344.9,555.5,344.9C555.5,344.9,555.5,344.9,555.5,344.9c0,3.1,0,6.1,0,9.3c0,0,0,0,0,0
		c0-3.1,0-6.2,0-9.1c6.1,0,12.2,0,18.3,0c0-0.1,0-0.2,0-0.3C567.7,344.8,561.6,344.8,555.5,344.9
		C555.5,344.8,555.5,344.9,555.5,344.9z"/>
	<path d="M488.6,344.8c0.2,0,0.4,0,0.5,0c0-3,0-6.1,0-9.1c-0.2,0-0.4,0-0.6,0C488.6,338.7,488.6,341.8,488.6,344.8z"/>
	<path d="M470.2,325.9c0-6.3,0-12.6,0-18.8c-3.3,0-6.4,0-9.6,0c0,0.2,0,0.3,0,0.5c3,0,5.9,0,8.9,0c0,6.2,0,12.2,0,18.4
		c-2.9,0-5.7,0-8.8,0c0,0,0,0,0,0C464,325.9,467.1,325.9,470.2,325.9C470.2,325.9,470.2,325.9,470.2,325.9
		C470.2,325.9,470.2,325.9,470.2,325.9z"/>
	<path d="M479.1,354.3c0.2,0,0.4,0,0.6,0c0-3,0-6,0-9.2c-0.2,0-0.4,0-0.6,0C479.1,348.3,479.1,351.3,479.1,354.3z"/>
	<path d="M574.5,297.4C574.5,297.4,574.5,297.4,574.5,297.4c6.3,0,12.5,0,18.8,0c0-4.7,0-9.2,0-13.8c0,4.6,0,9.2,0,13.8
		C587,297.4,580.7,297.4,574.5,297.4z"/>
	<path d="M527,174.7c0-0.2,0-0.3,0-0.5c-0.1,0-0.2,0-0.3,0c0,0.2,0,0.3,0,0.5C526.8,174.7,526.9,174.7,527,174.7z"/>
	<path d="M565,164.9C565,164.9,565,164.8,565,164.9c0-0.1-0.1-0.1-0.1-0.1c0,0,0,0.1,0,0.1C564.9,164.9,565,164.9,565,164.9z"/>
	<path d="M603,79.9c0-0.2,0-0.3,0-0.5c-0.1,0-0.2,0-0.2,0c0,0.2,0,0.3,0,0.5C602.9,79.9,602.9,79.9,603,79.9z"/>
	<path d="M517.2,335.7c3.2,0,6.3,0,9.3,0c0,3,0,5.9,0,9c0.2,0,0.4,0,0.6,0c0-3.1,0-6.1,0-9.1c-0.2,0-0.4,0-0.6,0c0-0.1,0-0.1,0-0.2
		c-2.9,0-5.8,0-8.8,0c0-9.4,0-18.7,0-28.2c-0.2,0-0.3,0-0.5,0C517.2,316.8,517.2,326.2,517.2,335.7z"/>
	<path d="M498.1,335.4c0.2,0,0.4,0,0.6,0c0-3.2,0-6.2,0-9.2c-0.2,0-0.4,0-0.6,0C498.1,329.2,498.1,332.2,498.1,335.4z"/>
	<path d="M565,278.6C565,278.6,565,278.6,565,278.6c3.2,0,6.2,0,9.5,0c0,0,0,0,0,0C571.2,278.6,568.1,278.6,565,278.6z"/>
	<path d="M517.1,297.7c3.1,0,6.2,0,9.4,0c0,3.2,0,6.2,0,9.2c0.2,0,0.4,0,0.6,0c0-3.1,0-6.2,0-9.5c-3.2,0-6.3,0-9.4,0
		c0-3.1,0-6.1,0-9.1c-0.2,0-0.4,0-0.5,0C517.1,291.4,517.1,294.4,517.1,297.7z"/>
	<path d="M460.7,279c0-0.2,0-0.3,0-0.5c-0.2,0-0.3,0-0.5,0c0,0.2,0,0.3,0,0.5C460.4,279,460.5,279,460.7,279z"/>
	<path d="M508.2,354.6c9.3,0,18.4,0,27.8,0c0-0.1,0-0.2,0-0.3c-9.3,0-18.5,0-27.8,0C508.2,354.4,508.2,354.5,508.2,354.6z"/>
	<path d="M536.6,345.1c3.1,0,5.9,0,8.8,0c0-0.1,0-0.2,0-0.3c-2.9,0-5.8,0-8.8,0C536.6,344.9,536.6,345,536.6,345.1z"/>
	<path d="M545.4,316.7c3.3,0,6.4,0,9.5,0c0,9.4,0,18.7,0,28.2c0.2,0,0.4,0,0.6,0c0,0,0,0,0-0.1c0,0,0,0,0,0c0-9.5,0-18.9,0-28.4
		c-3.1,0-6.2,0-9.5,0c0-6.4,0-12.7,0-19c-3.1,0-6.2,0-9.5,0c0,0.1,0,0.2,0,0.2c3.1,0,6,0,8.9,0C545.4,304,545.4,310.3,545.4,316.7z"
		/>
	<path d="M447.6,260l0,9.5c1,0,2.1,0,3.1,0c0-3.1,0-6.2,0-9.5C449.7,260,448.6,260,447.6,260z"/>
	<path d="M535.9,306.9c-3,0-5.9,0-8.8,0c0,0.1,0,0.2,0,0.3c2.9,0,5.7,0,8.8,0C535.9,307.1,535.9,307,535.9,306.9z"/>
	<path d="M536,335.3c0.2,0,0.4,0,0.6,0c0-3.1,0-6.1,0-9c-0.2,0-0.4,0-0.6,0C536,329.2,536,332.2,536,335.3z"/>
	<path d="M643.1,271.8L643.1,271.8l0-12.3c-7.1,0-14.1,0-21.2,0c0,3.1,0,6.2,0,9.5c3.2,0,6.3,0,9.5,0c0,3.2,0,6.2,0,9.3h11.7l0,0.1
		c0.1,0,0.1,0,0.2,0l0-6.4v-0.1L643.1,271.8L643.1,271.8z"/>
	<path d="M632.5,155.2c-3.5,0-7.1,0-10.6,0.1c0,3.1,0,6.2,0,9.4c3.1,0,6.2,0,9.4,0c0,2,0,3.9,0,5.9
		C631.5,164.9,631.9,159.8,632.5,155.2z"/>
	<path d="M631.4,354.3c0-3.3,0-6.2,0-9.3c0,0,0,0-0.1,0C631.3,348,631.3,351.1,631.4,354.3C631.4,354.3,631.4,354.3,631.4,354.3z"/>
	<path d="M621.9,325.9c0,6.3,0,12.6,0,19c0,0,0,0,0,0C621.9,338.4,621.9,332.2,621.9,325.9C621.9,325.9,621.9,325.9,621.9,325.9z"/>
	<path d="M621.9,325.9c-3.1,0-6.2,0-9.5,0c0,0,0,0,0,0C615.7,325.9,618.8,325.9,621.9,325.9C621.9,325.9,621.9,325.9,621.9,325.9z"
		/>
	<path d="M565.1,363.7c9.5,0,18.9,0,28.3,0c0,0,0,0,0,0C583.9,363.7,574.6,363.7,565.1,363.7C565.1,363.7,565.1,363.7,565.1,363.7z"
		/>
	<path d="M574.5,344.9C574.5,344.9,574.5,344.9,574.5,344.9c0,3.1,0,6.2,0,9.5c-3.3,0-6.4,0-9.4,0c0,0,0,0,0,0c3,0,6.1,0,9.4,0
		C574.5,351.1,574.5,348,574.5,344.9z"/>
	<path d="M593.4,344.9C593.4,344.9,593.4,344.9,593.4,344.9C593.5,344.9,593.5,344.9,593.4,344.9
		C593.4,344.9,593.4,344.9,593.4,344.9C593.4,344.9,593.4,344.9,593.4,344.9z"/>
	<path d="M621.9,316.5c-6.3,0-12.5,0-19,0c0-3.3,0-6.4,0-9.5c0,0,0,0,0,0c0,3.1,0,6.2,0,9.5C609.4,316.5,615.6,316.5,621.9,316.5
		c0,3.2,0,6.3,0,9.4c0,0,0,0,0,0C621.9,322.8,621.9,319.7,621.9,316.5z"/>
	<path d="M631.3,325.9c-3.1,0-6.3,0-9.4,0c0,0,0,0,0,0C625,325.9,628.2,325.9,631.3,325.9C631.3,325.9,631.3,325.9,631.3,325.9z"/>
	<path d="M612.3,297.6C612.3,297.6,612.3,297.6,612.3,297.6c0,3.2,0,6.2,0,9.3c0,0,0,0,0,0C612.3,303.8,612.3,300.7,612.3,297.6z"/>
	<path d="M555.6,79.2c3.3,0,6.3,0,9.4,0c0-6.3,0-12.6,0-18.9c-3.1,0.1-6.3,0.1-9.5,0.1c0-3.3,0-6.4,0-9.4c-3.2,0-6.3,0-9.3,0
		c0,6.3,0,12.5,0,18.8c3.1,0,6.2,0,9.4,0C555.6,73,555.6,76.1,555.6,79.2z"/>
	<path d="M640.9,297.4c0.7,0,1.4,0,2.1,0l0,17.9l0.2,0v-17.9C642.4,297.4,641.6,297.4,640.9,297.4c0,6.5,0,12.7,0,18.9
		c0.8,0,1.5,0,2.3,0v0c-0.8,0-1.5,0-2.3,0C640.9,310.1,640.9,303.9,640.9,297.4z"/>
	<path d="M536.5,98.3c3.3,0,6.4,0,9.5,0c0-6.3,0-12.6,0-18.9c-6.4,0-12.7,0-18.9,0c0,3.1,0,6.3,0,9.4c3.1,0,6.2,0,9.4,0
		C536.5,92,536.5,95,536.5,98.3z"/>
	<path d="M602.8,325.9c-3.2,0-6.3,0-9.3,0c0,0,0,0,0,0C596.6,325.9,599.6,325.9,602.8,325.9C602.8,325.9,602.8,325.9,602.8,325.9z"
		/>
	<path d="M640.7,325.9c-3.2,0-6.3,0-9.3,0c0,0,0,0,0,0C634.5,325.9,637.5,325.9,640.7,325.9C640.7,325.9,640.7,325.9,640.7,325.9z"
		/>
	<path d="M574.5,51.1c-3.2,0-6.3,0-9.4,0c0,3.2,0,6.3,0,9.3c3.1,0,6.3,0,9.4,0C574.5,57.3,574.5,54.2,574.5,51.1z"/>
	<path d="M536.4,51c-3.2,0-6.3,0-9.3,0c0,3.1,0,6.3,0,9.4c3.1,0,6.2,0,9.3,0C536.4,57.2,536.4,54.1,536.4,51z"/>
	<path d="M447.7,344.9v8.3c0,0,0.1,0,0.2,0l0.2-8.3C448,344.9,447.8,344.9,447.7,344.9z"/>
	<path d="M527,231.2c-6.3,0-12.5,0-18.8,0c0,3.2,0,6.3,0,9.3c6.3,0,12.5,0,18.8,0C527,237.3,527,234.2,527,231.2z"/>
	<path d="M470.1,174.3c-3.2,0-6.2,0-9.3,0c0,3.2,0,6.2,0,9.3c3.2,0,6.3,0,9.3,0C470.1,180.5,470.1,177.4,470.1,174.3z"/>
	<path d="M460.5,60.7c0.1-0.2,0.3-0.5,0.4-0.7l-4.4,1.4c0,1.6,0,3.2,0,4.9c0.6,0,1.1,0,1.7,0C458.8,64,459.6,62.1,460.5,60.7z"/>
	<path d="M452.8,116.9c0.2-4.1,0.3-8.4,0.6-12.7c-5.3,0-10.5,0-15.8,0c0-3.1,0-6.2,0-9.4c3.1,0,6.2,0,9.4,0c0-3.2,0-6.2,0-9.4
		c2.6,0,5.2,0,7.8,0c0.4-3.4,0.8-6.6,1.3-9.6c-9.3,0-18.6,0-28,0c0-1.9,0-3.8,0-5.8l-18.9,5.8v0.1c6.4,0,12.6,0,18.9,0
		c0,6.2,0,12.5,0,18.9c-3.2,0-6.3,0-9.4,0c0-3.1,0-6.2,0-9.5c-6.5,0-12.7,0-19,0c0-2.2,0-4.4,0-6.6l-15.6,4.7l0.4,1.9
		c5.1,0,10.1,0,15.1,0c0,3.1,0,6.2,0,9.5c6.5,0,12.7,0,19,0c0,3.1,0,6.1,0,9.4c-3.1,0-6.2,0-9.4,0c0,3.2,0,6.3,0,9.5
		c-3.3,0-6.4,0-9.5,0c0-3.1,0-6.2,0-9.5c-3.7,0-7.3,0-10.9,0l2.1,9.6c3,0,5.9,0,8.7,0c0,3.1,0,6.3,0,9.4c-2.2,0-4.4,0-6.6,0
		l4.5,20.4l30.5-7c0-1.3,0-2.6,0-3.9c-3.1,0-6.1,0-9.3,0c0-6.3,0-12.5,0-18.9c3.1,0,6.2,0,9.3,0c0,6.3,0,12.6,0,18.9
		c5.7,0,11.5,0,17.2,0l1.7-0.4c0-3.2,0-6.1,0-9.1c-3.1,0-6.2,0-9.5,0c0-3.2,0-6.4,0-9.5c-3.1,0-6.3,0-9.4,0c0-3.1,0-6.2,0-9.4
		c3.2,0,6.3,0,9.4,0c0,3.1,0,6.3,0.1,9.4c0,0,0,0,0,0c0,0,0,0,0.1,0c3.1,0,6.1,0,9.4,0c0,3.2,0,6.4,0,9.5c0,0,0.1,0,0.1,0
		c1.8,0,3.6,0,5.4,0C452.6,121.2,452.7,119,452.8,116.9z M409,132.6c-3,0-6.1,0-9.3,0c0-3.1,0-6.2,0-9.4c3.1,0,6.1,0,9.3,0
		C409,126.4,409,129.4,409,132.6z"/>
	<path d="M104.7,118.5c2,0,3.9,0,5.9,0c0.4-12.6,1.1-28,2.8-40.6c0-0.1,0-0.2,0-0.3c0.1-0.5,0.1-1,0.2-1.5c0.2-1.6,0.5-3.2,0.8-4.7
		c0-3.6,0-7.2,0-10.8l-9.7,2.9c0,8.8,0,17.5,0,26.4c-3,0-6.1,0-9.3,0c0-3,0-6.1,0-9.4c-6.5,0-12.7,0-19,0c0,3.1,0,6.1,0,9.4
		c3.1,0,6.2,0,9.4,0c0,6.4,0,12.6,0,19.1c-3.1,0-6.2,0-9.3,0c0,3.1,0,6.3-0.1,9.4c-6.3,0-12.6,0-19,0c0,6.5,0,12.7,0,19
		c-2,0-4,0-6,0l1.6,7.2l4.5-1.1c0-2.1,0-4.1,0-6.1c3.1,0,6.3,0,9.4,0c0-3.1,0-6.2,0-9.5c3.2,0,6.3,0,9.5,0c0-3.2,0-6.3,0-9.4
		c3.1,0,6.2,0,9.5,0c0,6.2,0,12.2,0,18.3l9.4-2.2c0-11.7,0-23.3,0-35c3.2,0,6.2,0,9.4,0C104.7,105.8,104.7,112,104.7,118.5z"/>
	<path d="M83.3,137.4c-5.5,0-11,0-16.4,0c0,1.3,0,2.6,0,3.9L83.3,137.4z"/>
	<path d="M57.3,99.4c-3.2,0-6.2,0-9.4,0c0-3.3,0-6.3,0-9.4c3.1,0,6.2,0,9.5,0c0-3.3,0-6.4,0-9.5c6.3,0,12.6,0,18.9,0
		c0-2.8,0-5.6,0-8.4l-6.8,2l-12.1,3.7c0,0.9,0,1.7,0,2.6c-2.8,0-5.6,0-8.5,0l-1,0.3c0,3.2,0,6.2,0,9.2c-2.4,0-4.7,0-7,0l4.2,18.9
		c4.1,0,8.2,0,12.2,0C57.3,105.6,57.3,102.6,57.3,99.4z"/>
	<path d="M47.7,120.6l0.1,0.5c0-1,0-1.9,0-2.9c-0.2,0-0.4,0-0.6,0L47.7,120.6z"/>
	<path d="M76.3,108.8c0-3.1,0-6.2,0-9.3c-3.2,0-6.2,0-9.3,0c0,3.2,0,6.2,0,9.3C70.2,108.8,73.3,108.8,76.3,108.8z"/>
	<path d="M85.9,69.2L80,71c2,0,3.9,0,5.9,0C85.9,70.4,85.9,69.8,85.9,69.2z"/>
	<path d="M342.8,142.6l9.4,2.2l0.2,0l0.6-2.7c-3.4,0-6.8,0-10.2,0C342.8,142.3,342.8,142.5,342.8,142.6z"/>
	<path d="M304.9,104.2C304.8,104.3,304.9,104.3,304.9,104.2L304.9,104.2z"/>
	<path d="M292.5,94.7c1,0,2,0,3,0c0-3.2,0-6.3,0-9.4c3.1,0,6.2,0,9.5,0c0,6.4,0,12.6,0,18.9c3.1,0,6.2,0,9.4,0
		c-0.1-12.2-0.1-24.4-0.1-36.6l-9.5-2.9c0,3.7,0,7.4,0,11.2c-3.1,0-6.2,0-9.3,0c0,3.1,0,6.3-0.1,9.4c-1.2,0-2.5,0-3.7,0
		C292,88.4,292.3,91.5,292.5,94.7z"/>
	<path d="M361.8,82l-9.5-2.9c-0.1,2.1-0.1,4.1,0,6.2c3.1,0,6.2,0,9.5,0C361.8,84.2,361.8,83.1,361.8,82z"/>
	<path d="M352.3,85.3c-3.2,0-6.3,0-9.5,0c0-3,0-5.9,0-9l-1.2-0.4c-2.7,0-5.4,0-8.2,0c0-0.8,0-1.7,0-2.5l-9.7-2.9c0,4.9,0,9.8,0,14.9
		c6.5,0,12.7,0,19,0c0,3.1,0,6.2,0,9.5c-3.2,0-6.3,0-9.5,0c0,3.2,0,6.3,0,9.4c-3.1,0-6.2,0-9.5,0c0,3.3,0,6.4,0,9.5
		c-6.2,0-12.5,0-19,0c0-3.2,0-6.3,0-9.4c-3.9,0-7.8,0-11.7,0c0.2,3.2,0.3,6.4,0.4,9.5c0.6,0,1.2,0,1.7,0c0,3.2,0,6.3,0,9.4
		c-0.4,0-0.9,0-1.3,0c0,0.4,0,0.9,0,1.3c0.1,2.4,0.2,4.6,0.4,6.5l1,0.2c0-2.7,0-5.4,0-7.9c6.2,0,12.5,0,18.8,0c0,3.1,0,6.2,0,9.4
		c-3,0-6.1,0-9.4,0c0,0.3,0,0.5,0,0.8l28.5,6.8c0-2.5,0-5,0-7.5c-3.1,0-6.2,0-9.4,0c0-6.4,0-12.7,0-19c3.1,0,6.2,0,9.5,0
		c0-3.3,0-6.4,0-9.5c6.3,0,12.5,0,19,0c0,3.2,0,6.3,0,9.5c2.4,0,4.7,0,7,0l4.2-19.1c-3.7,0-7.5,0-11.2,0
		C352.3,91.5,352.3,88.4,352.3,85.3z"/>
	<path d="M352.1,123.3c-6.3,0-12.5,0-18.8,0c0,3.2,0,6.3,0,9.3c6.3,0,12.5,0,18.8,0C352.1,129.4,352.1,126.4,352.1,123.3z"/>
	<path d="M288.9,66.9c0.1,0.4,0.2,0.8,0.3,1.3c0.2,0.8,0.3,1.7,0.5,2.6c0.1,0.3,0.1,0.7,0.2,1c0,0.1,0,0.2,0,0.3
		c0.2,1.2,0.4,2.5,0.6,3.8c1.6,0,3.2,0,4.8,0c0-3.1,0-6.2,0-9.3c-2.2-0.1-4.4-0.1-6.5-0.1c0,0.1,0,0.2,0.1,0.3
		C288.9,66.8,288.9,66.8,288.9,66.9z"/>
	<path d="M649,94c0-3.2,0-6.2,0-9.4c3.2,0,6.2,0,9.5,0c0-3.2,0-6.3,0-9.5c8.1,0,16.2,0,24.3,0l-33.9-10.3c0,3.4,0,6.8,0,10.2
		c-4.5,0-9.1,0-13.7,0c1.3,7.5,2,16.4,2.5,25.5c0.1,1,0.1,2.1,0.2,3.1c0.5,0,1,0,1.6,0c0-3.1,0-6.2,0-9.5C642.8,94,645.8,94,649,94z
		"/>
	<path d="M658.4,135.7c0-1.3,0-2.5,0-3.8c-5.5,0-10.9,0-16.3,0L658.4,135.7z"/>
	<path d="M696.3,94.2c0,3.2,0,6.2,0,9.2c-6.3,0-12.6,0-18.9,0c0-3.2,0-6.3,0-9.3c-6.3,0-12.5,0-19,0c0,3.3,0,6.3,0,9.4
		c-6.3,0-12.6,0-18.9,0.1c0,3.1,0,6.2,0,9.4c3.1,0,6.2,0,9.4,0c0,3.2,0,6.2,0,9.4c6.3,0,12.6,0,19,0c0,5.2,0,10.3,0,15.5l28.5,6.7
		c0-1.1,0-2.1,0-3.2c0.4,0,0.7,0,1.1,0l4.2-19c-1.8,0-3.6,0-5.4,0c0,6.5,0,12.7,0,19c-3.1,0-6.1,0-9.4,0c0-3.1,0-6.2,0-9.4
		c-3.2,0-6.3,0-9.4,0c0-3.2,0-6.2,0-9.4c3,0,6.1,0,9.3,0c0-3.2,0-6.3,0-9.6c5.8,0,11.4,0,17,0l1.9-8.7c0-3.4,0-6.8,0-10.1
		C702.6,94.2,699.5,94.2,696.3,94.2z M667.8,112.9c-3,0-6.1,0-9.3,0c0-3.1,0-6.2,0-9.4c3.1,0,6.1,0,9.3,0
		C667.8,106.7,667.8,109.7,667.8,112.9z"/>
	<path d="M677.5,94c3.1,0,6.2,0,9.3,0c0-3.2,0-6.3,0-9.3c-3.2,0-6.2,0-9.3,0C677.5,87.9,677.5,91,677.5,94z"/>
	<path d="M295.2,344.8c-1.8,0-3.5,0-5.3,0c0,0,0,0,0,0c0-9.4,0-18.8,0-28.2c3.3,0,6.6,0,10,0c0,0,0,0,0.1,0l0-1.3h-0.1h-0.3l0-17.9
		l0,0c-0.1,0-0.2,0-0.2,0c0,0,0,0,0,0c0,3.2,0,6.3,0,9.4c0,0,0,0,0,0c-6.4,0-12.5,0-18.9,0c0-6.2,0-12.4,0-18.7c0,0,0-0.1,0-0.1
		c6.2,0,12.4,0,18.8,0c0-3.2,0-6.2,0-9.4c0.1,0,0.2,0,0.4,0l0-0.3h-9.8h0c0,0,0,0,0,0c0,0,0,0,0,0.1c-3.1,0-6.2,0-9.4,0
		c0,0,0,0,0-0.1c0,0,0,0,0,0h0h-9.7c0,3.2,0,6.4,0,9.6c-6.2,0-12.4,0-18.9,0c0,3.2,0,6.3,0,9.3c0,0.1,0,0.1,0,0.2c3,0,5.9,0,9,0
		c0.2,0,0.3,0,0.5,0c0,3.2,0,6.2,0,9.3c0,0.1,0,0.2,0,0.3c3,0,5.9,0,8.9,0c0.2,0,0.4,0,0.5,0c0,3.1,0,6.1,0,9.2c0,0.1,0,0.2,0,0.3
		c3,0,5.9,0,9,0c0.2,0,0.4,0,0.6,0c0,13.3,0,26.6,0,39.9c0,2.5,0,5,0,7.5c2.5,0,4.9,0,7.3,0c0.7-0.1,1.4-0.2,2.1-0.4c0-3,0-5.9,0-9
		c3.1,0,6.2,0,9.4,0c0,2.4,0,4.8,0,7.3c0.5-0.1,0.8-0.2,0.8-0.2v-2.2v-5.3v-9.3c-0.2,0-0.4,0-0.6,0
		C298,344.8,296.6,344.8,295.2,344.8z"/>
	<path d="M138,297.5c0,3.2,0,6.3,0,9.5c-3.2,0-6.3,0-9.4,0c0,9.5,0,18.9,0,28.4c0,0,0,0,0,0c3,0,6.1,0,9.3,0c0,0,0,0,0.1,0
		c0,8.1,0,16,0,24.1c0,1.4,0,2.8,0,4.3c-6.2,0-12.4,0-18.9,0c0-3.1,0-6.2,0-9.3c-4.9,0-9.8,0-14.7,0l-0.1,2.3l0,2.4v2.5c0,0,0,0,0,0
		c0,0-0.1,0,0,0h0c0,0,0.1,0,0.2,0c0,0,0,0,0,0v0c0,0,30,6.6,61.9,9.8c0-2.5,0-5,0-7.7c-6.4,0-12.6,0-19.1,0c0-22.2,0-44.3,0-66.4
		c0,0,0,0,0,0C144.4,297.5,141.3,297.5,138,297.5z"/>
	<path d="M261.4,335.3C261.4,335.3,261.4,335.3,261.4,335.3C261.3,335.3,261.3,335.3,261.4,335.3
		C261.3,335.3,261.3,335.3,261.4,335.3C261.3,335.3,261.3,335.4,261.4,335.3L261.4,335.3z"/>
	<ellipse cx="147.6" cy="297.4" rx="0" ry="0"/>
	<path d="M251.8,297.5c-3.1,0-6.1,0-9.4,0c0,0,0,0,0,0c0,3.1,0,6.2,0,9.4c0,0,0,0,0,0c-3.2,0-6.2,0-9.4,0c0,6.3,0,12.6,0,19
		c-6.4,0-12.6,0-19,0c0,3.2,0,6.3,0,9.5c-3.2,0-6.2,0-9.4,0c0,3.2,0,6.2,0,9.5c-3.2,0-6.3,0-9.5,0c0,3.2,0,6.2,0,9.4
		c-3.2,0-6.2,0-9.6,0c0,3.3,0,6.4,0,9.5c-3.1,0-6.2,0-9.4,0c0,2.9,0,5.8,0,8.6c3.2,0.2,6.3,0.5,9.5,0.6c0-2.8,0-5.6,0-8.4
		c0-0.3,0-0.5,0-0.8c0,0,0.1,0,0.1,0c3,0,6.1,0,9.3,0c0,3.1,0,6.2,0,9.3c-1.8,0-3.7,0-5.6,0c1.3,0,2.5,0.1,3.8,0.1c0,0,0,0,0,0
		c0.6,0,1.2,0,1.8,0c0.2,0,0.3,0,0.5,0c0.5,0,0.9,0,1.4,0c0.3,0,0.6,0,0.9,0c0.3,0,0.7,0,1,0c0.6,0,1.2,0,1.9,0c1.3,0,2.7,0,4.1-0.1
		c0-2.8,0-5.6,0-8.4c0-3.5,0-6.9,0-10.5c0,0,0,0,0,0c3.1,0,6.2,0,9.3,0c0,0,0,0,0,0c0,3.1,0,6.2,0,9.5c0,0,0,0,0,0
		c6.5,0,12.7,0,19,0c0,2.5,0,5,0,7.5c3.2-0.3,6.3-0.6,9.5-1c0-2.2,0-4.3,0-6.5c-3.1,0-6.3,0-9.4,0c0-3.1,0-6.2,0-9.5
		c-6.5,0-12.7,0-19,0c0-3.1,0-6.1,0-9.4c0,0,0,0,0,0c3.1,0,6.1,0,9.3,0c0,0,0.1,0,0.1,0c0-3.2,0-6.3,0-9.4c0,0,0,0,0-0.1
		c3.2,0,6.2,0,9.4,0c0,3,0,6.1,0,9.3c3.2,0,6.3,0,9.6,0c0,5.8,0,11.5,0,17.2c0,0.6,0,1.2,0,1.8c6.3,0,12.6,0,18.8,0
		c0-3.3,0-6.3,0-9.5c-3.2,0-6.2,0-9.2,0c0-6.3,0-12.5,0-18.9c0,0,0,0,0-0.1c3.1,0,6.2,0,9.2,0c0,0,0.1,0,0.1,0c0-6.3,0-12.5,0-19
		c-3.3,0-6.3,0-9.4,0C251.9,310.1,251.9,303.8,251.8,297.5C251.8,297.5,251.8,297.5,251.8,297.5
		C251.8,297.5,251.8,297.5,251.8,297.5C251.8,297.5,251.8,297.5,251.8,297.5z M251.8,316.4c0,3.1,0,6.1,0,9.3c0,0,0,0,0,0.1
		c-3.1,0-6.2,0-9.4,0c0-3,0-6.1,0-9.3c0,0,0,0,0,0C245.6,316.4,248.7,316.4,251.8,316.4z"/>
	<path d="M251.8,297.5C251.8,297.5,251.8,297.5,251.8,297.5C251.9,297.5,251.9,297.5,251.8,297.5
		C251.9,297.4,251.9,297.4,251.8,297.5C251.9,297.4,251.9,297.4,251.8,297.5C251.8,297.4,251.8,297.4,251.8,297.5z"/>
	<path d="M128.6,306.9C128.6,306.9,128.6,306.9,128.6,306.9C128.6,306.9,128.6,306.9,128.6,306.9
		C128.6,306.9,128.6,306.9,128.6,306.9C128.6,306.9,128.6,306.9,128.6,306.9C128.6,306.9,128.6,306.9,128.6,306.9L128.6,306.9
		L128.6,306.9C128.6,306.9,128.6,306.9,128.6,306.9C128.6,306.9,128.6,306.9,128.6,306.9C128.6,306.9,128.6,306.9,128.6,306.9z"/>
	<path d="M105.2,297.4c1.4,0,2.9,0,4.3,0c0,0,0,0,0,0c0-3.2,0-6.2,0-9.5c0,0,0,0,0,0c-1.5,0-2.9,0-4.3,0L105.2,297.4z"/>
	<path d="M105.1,325.8c1.5,0,3,0,4.5,0c0-3.1,0-6.2,0-9.3c0,0,0,0,0,0c-1.5,0-3,0-4.5,0v0l0,6.9L105.1,325.8z"/>
	<path d="M128.6,335.4C128.6,335.4,128.6,335.4,128.6,335.4C128.6,335.3,128.6,335.3,128.6,335.4
		C128.6,335.3,128.6,335.3,128.6,335.4C128.6,335.4,128.6,335.4,128.6,335.4C128.6,335.4,128.6,335.4,128.6,335.4
		C128.6,335.4,128.6,335.4,128.6,335.4z"/>
	<path d="M119.2,354.3C119.2,354.3,119.2,354.3,119.2,354.3C119.1,354.3,119.1,354.3,119.2,354.3
		C119.1,354.3,119.1,354.3,119.2,354.3C119.1,354.3,119.1,354.3,119.2,354.3C119.1,354.3,119.1,354.3,119.2,354.3
		C119.2,354.3,119.2,354.3,119.2,354.3z"/>
	<path d="M119.2,335.3C119.2,335.3,119.1,335.3,119.2,335.3C119.1,335.3,119.1,335.3,119.2,335.3
		C119.1,335.4,119.1,335.4,119.2,335.3C119.1,335.4,119.1,335.4,119.2,335.3C119.1,335.4,119.1,335.4,119.2,335.3
		C119.1,335.4,119.1,335.4,119.2,335.3C119.2,335.4,119.2,335.4,119.2,335.3C119.2,335.4,119.2,335.3,119.2,335.3z"/>
	<path d="M128.6,354.3c0-6.4,0-12.6,0-18.9c0,0,0,0,0,0c-3.1,0-6.3,0-9.4,0c0,6.3,0,12.6,0,18.9c0,0,0,0,0,0
		C122.3,354.3,125.3,354.3,128.6,354.3z"/>
	<path d="M242.4,363.8C242.4,363.8,242.4,363.8,242.4,363.8C242.4,363.8,242.4,363.8,242.4,363.8
		C242.4,363.8,242.4,363.8,242.4,363.8C242.4,363.8,242.4,363.8,242.4,363.8z"/>
	<path d="M128.6,297.6C128.6,297.6,128.6,297.6,128.6,297.6c-3.2,0-6.3,0-9.3,0c0,3.2,0,6.2,0,9.3c3.2,0,6.3,0,9.3,0c0,0,0,0,0,0
		C128.6,303.8,128.6,300.7,128.6,297.6z"/>
	<path d="M109.7,325.8C109.7,325.8,109.7,325.8,109.7,325.8C109.7,325.8,109.7,325.8,109.7,325.8
		C109.7,325.8,109.7,325.8,109.7,325.8C109.7,325.8,109.7,325.8,109.7,325.8C109.7,325.8,109.7,325.8,109.7,325.8
		C109.7,325.8,109.7,325.8,109.7,325.8C109.7,325.8,109.7,325.8,109.7,325.8C109.7,325.8,109.7,325.8,109.7,325.8
		C109.7,325.8,109.7,325.8,109.7,325.8C109.7,325.8,109.7,325.8,109.7,325.8C109.7,325.8,109.7,325.8,109.7,325.8
		C109.7,325.8,109.7,325.8,109.7,325.8z"/>
	<path d="M119.1,325.8C119.1,325.8,119.1,325.8,119.1,325.8c-3.3,0-6.3,0-9.4,0c0,3.1,0,6.3,0,9.5c0,0,0,0,0,0c3.2,0,6.3,0,9.4,0
		c0,0,0,0,0,0c0,0,0,0,0,0C119.1,332.2,119.1,329.1,119.1,325.8z"/>
	<path d="M270.7,344.7C270.7,344.7,270.7,344.7,270.7,344.7c0-3.2,0-6.2,0-9.3c0,0,0,0,0,0c-3.2,0-6.3,0-9.3,0c0,3.1,0,6.2,0,9.3
		C264.6,344.7,267.7,344.7,270.7,344.7z"/>
	<path d="M261.4,335.3L261.4,335.3C261.4,335.3,261.4,335.3,261.4,335.3C261.4,335.3,261.3,335.4,261.4,335.3
		C261.3,335.4,261.3,335.4,261.4,335.3C261.4,335.4,261.4,335.4,261.4,335.3z"/>
	<path d="M166.6,344.8C166.5,344.8,166.5,344.8,166.6,344.8C166.5,344.8,166.5,344.8,166.6,344.8L166.6,344.8z"/>
	<path d="M185.5,325.9C185.5,325.9,185.5,325.9,185.5,325.9C185.5,325.9,185.5,325.9,185.5,325.9L185.5,325.9z"/>
	<path d="M185.5,288C185.5,288,185.5,288,185.5,288C185.5,288,185.5,288,185.5,288C185.5,287.9,185.5,287.9,185.5,288
		C185.5,287.9,185.5,287.9,185.5,288C185.5,288,185.5,288,185.5,288C185.5,288,185.5,288,185.5,288z"/>
	<ellipse cx="176" cy="297.4" rx="0" ry="0"/>
	<path d="M251.8,278.3h-9.3c0,0,0,0,0,0.1C245.7,278.3,248.7,278.3,251.8,278.3C251.8,278.3,251.8,278.3,251.8,278.3z"/>
	<path d="M223.4,278.3C223.4,278.3,223.4,278.3,223.4,278.3c0,0.1,0,0.1,0,0.2c-0.1,0-0.1,0-0.2,0c-6.2,0-12.3,0-18.7,0c0,0,0,0,0,0
		c0-0.1,0-0.1,0-0.2h-19h0c0,0,0,0.1,0,0.1c0,0,0,0,0,0.1c-0.1,0-0.1,0-0.2,0c-6.2,0-12.5,0-18.7,0c0,0,0,0,0,0c0-0.1,0-0.1,0-0.2
		h-61.4v0l0,0.2c4.6,0,9.2,0,13.8,0c0.1,0,0.1,0,0.2,0c0,3.2,0,6.3,0,9.4c0,0,0,0.1,0,0.1c9.5,0,18.8,0,28.2,0c0.1,0,0.1,0,0.2,0
		c0,3.2,0,6.2,0,9.3c0,0,0,0.1,0,0.1c3.1,0,6.1,0,9.4,0c0-6.3,0-12.5,0-18.9c3.2,0,6.3,0,9.3,0c0.1,0,0.1,0,0.2,0
		c0,6.2,0,12.5,0,18.8c0,0,0,0.1,0,0.1c3.3,0,6.3,0,9.3,0c0.1,0,0.1,0,0.2,0c0,0,0,0,0,0c0-3.1,0-6.1,0-9.5c3.2,0,6.2,0,9.3,0
		c0.1,0,0.1,0,0.2,0c0,0,0,0,0,0c0-3.1,0-6.3,0-9.4c3,0,6,0,9.2,0c0.1,0,0.2,0,0.3,0c0,3.2,0,6.3,0,9.4c-3.1,0-6.3,0-9.4,0.1
		c0,3.1,0,6.2,0,9.5c-3.2,0-6.4,0-9.5,0c0,6.3,0,12.5,0,18.8c-3.3,0-6.4,0-9.6,0c0,0,0-0.1,0-0.1c0-3.1,0-6.1,0-9.2
		c-0.1,0-0.2,0-0.3,0c-3.1,0-6.1,0-9,0c0,12.6,0,25.1,0,37.7c0,0,0,0.1,0,0.1c3.2,0,6.3,0,9.3,0c0-6.3,0-12.6,0-19
		c6.5,0,12.7,0,19,0c0-6.3,0-12.6,0-18.9c3.2,0,6.2,0,9.2,0c0.1,0,0.2,0,0.3,0c0,3,0,6,0,9.2c0,0.1,0,0.1,0,0.2c9.5,0,18.9,0,28.5,0
		c0-12.6,0-25.2,0-37.8c3.1,0,6.2,0,9.5,0c0-0.1,0-0.2,0-0.2h-0.3H223.4L223.4,278.3z M213.8,306.9
		C213.8,306.9,213.8,306.9,213.8,306.9c-6.3,0-12.5,0-18.8,0c0,0,0,0,0,0c0-6.3,0-12.6,0-18.9c3.1,0,6.2,0,9.4,0c0,3.1,0,6.2,0,9.4
		c3.2,0,6.2,0,9.4,0C213.8,300.6,213.8,303.6,213.8,306.9z"/>
	<path d="M185.5,325.9L185.5,325.9C185.5,325.9,185.5,325.9,185.5,325.9C185.5,325.9,185.5,325.9,185.5,325.9
		C185.5,325.9,185.5,325.9,185.5,325.9C185.5,325.9,185.5,325.9,185.5,325.9z"/>
	<path d="M185.5,335.2C185.5,335.2,185.5,335.2,185.5,335.2c3.2,0,6.3,0,9.3,0c0-3.2,0-6.2,0-9.3c0,0,0,0,0,0c-3.2,0-6.2,0-9.3,0
		C185.5,329,185.5,332.1,185.5,335.2z"/>
	<path d="M175.9,354.2C175.9,354.2,175.9,354.2,175.9,354.2c0-3.2,0-6.2,0-9.3c0,0,0,0,0,0c-3.2,0-6.3,0-9.3,0c0,3.1,0,6.2,0,9.3
		C169.8,354.2,172.9,354.2,175.9,354.2z"/>
	<path d="M166.6,344.9C166.6,344.9,166.6,344.9,166.6,344.9C166.6,344.8,166.6,344.8,166.6,344.9
		C166.6,344.8,166.5,344.9,166.6,344.9C166.5,344.9,166.5,344.9,166.6,344.9C166.5,344.9,166.5,344.9,166.6,344.9z"/>
	<path d="M299.9,325.9c-0.2,0-0.4,0-0.5,0c0,3.2,0,6.3,0,9.3c0,0,0.1,0,0.1,0c0.1,0,0.3,0,0.4,0c0,0,0,0,0.1,0L299.9,325.9z"/>
	<path d="M565,316.4C565,316.4,565,316.4,565,316.4C565,316.4,565,316.4,565,316.4C565,316.4,565,316.4,565,316.4
		C565,316.4,565,316.4,565,316.4C565,316.4,565,316.4,565,316.4C565,316.4,565,316.4,565,316.4z"/>
	<path d="M602.9,306.9C602.9,306.9,602.9,306.9,602.9,306.9L602.9,306.9C602.9,306.9,602.9,306.9,602.9,306.9z"/>
	<path d="M517.6,287.9C517.6,287.9,517.6,287.9,517.6,287.9C517.6,288,517.6,288,517.6,287.9C517.6,288,517.6,288,517.6,287.9
		C517.6,288,517.6,288,517.6,287.9C517.6,288,517.6,288,517.6,287.9C517.6,287.9,517.6,287.9,517.6,287.9z"/>
	<path d="M489.1,335.3C489.1,335.3,489.1,335.3,489.1,335.3C489.1,335.4,489.1,335.4,489.1,335.3
		C489.2,335.4,489.2,335.4,489.1,335.3C489.2,335.4,489.2,335.4,489.1,335.3C489.2,335.3,489.2,335.3,489.1,335.3z"/>
	<path d="M451.2,316.4c3,0,5.8,0,8.8,0c0.2,0,0.4,0,0.7,0c0-3.1,0-5.9,0-8.9c0-0.2,0-0.3,0-0.5c3.2,0,6.3,0,9.6,0
		c0,6.3,0,12.5,0,18.8c3.1,0,6.1,0,9.4,0c0,3.2,0,6.2,0,9.5c3.1,0,6,0,8.9,0c0.2,0,0.4,0,0.6,0c0,0,0,0,0,0c0,0,0,0,0,0c0,0,0,0,0,0
		c0-2.9,0-5.9,0-9c0-0.1,0-0.3,0-0.4c3,0,5.9,0,8.9,0c0.2,0,0.4,0,0.6,0c0-3.1,0-6.1,0-9.4c-6.3,0-12.5,0-18.8,0
		c0-9.4,0-18.6,0-28.1c0-0.1,0-0.3,0-0.4c3.1,0,6.2,0,9.4,0c0,6.3,0,12.6,0,18.8c6.3,0,12.3,0,18.4,0c0.2,0,0.4,0,0.5,0
		c0-3.2,0-6.2,0-9.4c-3.2,0-6.2,0-9.4,0c0-3.1,0-6.1,0-9c0-0.1,0-0.3,0-0.4c6.1,0,12.2,0,18.3,0c0.2,0,0.4,0,0.6,0
		c0-3.2,0-6.4,0-9.7H517h-18.4c0,3.2,0,6.4,0,9.7c-3.1,0-6.3,0-9.4,0c0-3.1,0-6.2,0-9.4c-3.2,0-6.3,0-9.4,0c0-0.1,0-0.2,0-0.2h-9.5
		c0,0.1,0,0.1,0,0.2c-0.2,0-0.4,0-0.6,0c-3.1,0-6,0-9,0c0-0.1,0-0.1,0-0.2h-0.5h-9c0,0.1,0,0.1,0,0.2c-0.2,0-0.3,0-0.5,0
		c-0.7,0-1.4,0-2.1,0l0,0.4l0,44.8l-0.3,11.7c0.8,0,1.5,0,2.3,0c0.2,0,0.4,0,0.6,0c0-6.1,0-12.2,0-18.4
		C451.2,316.7,451.2,316.6,451.2,316.4z M451.3,278.5C451.3,278.5,451.3,278.5,451.3,278.5c3,0,6,0,8.9,0c0.2,0,0.3,0,0.5,0
		c0,0,0,0,0,0c0,0.2,0,0.3,0,0.5c0,2.9,0,5.8,0,8.8c-3.1,0-6.2,0-9.4,0C451.3,284.7,451.3,281.6,451.3,278.5z"/>
	<ellipse cx="451.2" cy="335.4" rx="0" ry="0"/>
	<circle cx="498.6" cy="325.9" r="0"/>
	<path d="M631.4,278.3L631.4,278.3c0,0.1,0,0.1,0,0.2c0,0,0,0,0,0c3.9,0,7.8,0,11.7,0l0,0l0-0.1H631.4z"/>
	<path d="M631.4,278.5C631.4,278.5,631.4,278.5,631.4,278.5C631.4,278.5,631.4,278.5,631.4,278.5
		C631.4,278.4,631.4,278.4,631.4,278.5L631.4,278.5z"/>
	<path d="M602.9,287.9c3.1,0,5.9,0,8.9,0c0.2,0,0.4,0,0.7,0c0-3.2,0-6.4,0-9.6h-0.7H584h-0.1c0,0,0,0.1,0,0.1c3.2,0,6.2,0,9.4,0
		c0,1.7,0,3.4,0,5.2c0,4.6,0,9.2,0,13.8c-6.3,0-12.6,0-18.8,0c0,0,0,0,0,0c0-6.3,0-12.5,0-18.8c0,0,0,0,0,0c-3.3,0-6.3,0-9.5,0
		c0,0,0,0,0,0c0,6.3,0,12.6,0,18.8c0,0,0,0,0,0c-6.3,0-12.6,0-18.9,0c0-3.1,0-6.2,0-9.4c-3.2,0-6.3,0-9.4,0c0-3.3,0-6.5,0-9.7H527
		c0,3.2,0,6.4,0,9.7c-0.2,0-0.4,0-0.6,0c-2.9,0-5.8,0-8.8,0c0,0.1,0,0.2,0,0.3c0,3,0,5.9,0,9.1c3.1,0,6.2,0,9.4,0c0,3.3,0,6.4,0,9.5
		c-0.2,0-0.4,0-0.6,0c-2.9,0-5.9,0-8.8,0c0,0.1,0,0.2,0,0.3c0,9.5,0,18.8,0,28.2c3,0,5.9,0,8.8,0c0.2,0,0.4,0,0.6,0
		c0,0.1,0,0.1,0,0.2c0,3,0,6,0,9.1c-0.2,0-0.4,0-0.6,0c-6.1,0-12.1,0-18.3,0c0-6.2,0-12.4,0-18.8c-3.3,0-6.4,0-9.5,0
		c0,0.1,0,0.2,0,0.3c0,3,0,6,0,9.2c-0.2,0-0.4,0-0.6,0c-3,0-6,0-8.9,0c0,0.1,0,0.2,0,0.3c0,3,0,6.1,0,9.1c-0.2,0-0.4,0-0.5,0
		c-2.9,0-5.9,0-8.9,0c0,0.1,0,0.2,0,0.3c0,3.2,0,6.2,0,9.2c-0.2,0-0.4,0-0.6,0c-2.9,0-5.8,0-8.9,0c0,0.1,0,0.2,0,0.3
		c0,2.9,0,5.7,0,8.6c0,0.2,0,0.3,0,0.5c-3.2,0-6.2,0-9.4,0c0-3,0-6.1,0-9.4c-3.3,0-6.4,0-9.5,0c0,2.9,0,5.8,0,8.7
		c4.7,2.2,15,6.8,28.5,11.3c0-0.4,0-0.7,0-1.1c3.3,0,6.3,0,9.4,0c0-3.1,0-6.2,0-9.3c0-0.1,0-0.1,0-0.2c-0.2,0-0.4,0-0.5,0
		c-2.9,0-5.8,0-8.9,0c0-3.2,0-6.2,0-9.2c0-0.1,0-0.2,0-0.3c3.1,0,6.3,0,9.4,0c0,3.1,0,6.3,0,9.4c3.1,0,6.2,0,9.5,0
		c0,2.8,0,5.5,0,8.3c0,0.4,0,0.8,0,1.2c1.7,0,3.4,0,5.2,0c1.4,0,2.9,0,4.4,0c0,0.3,0,0.6,0,1c0,2.7,0,5.3,0,7.9
		c1.1,0.2,2.3,0.5,3.4,0.7c2,0,4,0,6,0c0,0.4,0,0.7,0,1.1c3.1,0.5,6.3,0.9,9.4,1.3c0-0.8,0-1.6,0-2.5c3.3,0,6.3,0,9.4,0
		c0-6.4,0-12.6,0-18.9c-9.5,0-18.9,0-28.2,0c0-3.1,0-6.1,0-9.2c0-0.1,0-0.2,0-0.3c9.3,0,18.4,0,27.8,0c0.2,0,0.4,0,0.6,0
		c0-3.1,0-6.1,0-9.2c0-0.1,0-0.2,0-0.3c3,0,5.9,0,8.8,0c0.2,0,0.4,0,0.6,0c0-6.2,0-12.5,0-18.8c-3.1,0-6.2,0-9.4,0
		c0,0.1,0,0.2,0,0.3c0,2.9,0,5.9,0,9c-0.2,0-0.4,0-0.6,0c-3.1,0-6,0-8.9,0c0-9.4,0-18.8,0-28.1c0-0.1,0-0.2,0-0.3c2.9,0,5.8,0,8.8,0
		c0.2,0,0.4,0,0.6,0c0-3.1,0-6.1,0-9.2c0-0.1,0-0.2,0-0.2c3.3,0,6.4,0,9.5,0c0,6.3,0,12.6,0,19c3.3,0,6.4,0,9.5,0
		c0,9.5,0,18.9,0,28.4c6.1,0,12.2,0,18.3,0c0.2,0,0.4,0,0.7,0c0-3,0-6.1,0-9.1c0-0.1,0-0.2,0-0.3c2.9,0,5.8,0,8.8,0
		c0.2,0,0.5,0,0.7,0c0-3.2,0-6.2,0-9.2c0-0.1,0-0.2,0-0.3c2.9,0,5.8,0,8.7,0c0.2,0,0.5,0,0.7,0c0-6.2,0-12.4,0-18.7
		c0-0.1,0-0.2,0-0.3c3.1,0,5.9,0,8.8,0c0.2,0,0.5,0,0.7,0c0-6.2,0-12.3,0-18.7C602.9,288.1,602.9,288,602.9,287.9z M498.5,354.3
		c-3.1,0-6.2,0-9.3,0c0-3.1,0-6.3,0-9.4c3.1,0,6.1,0,9.3,0C498.5,348,498.5,351.1,498.5,354.3z M565,297.5
		C565,297.5,565,297.5,565,297.5c3.1,0,6.3,0,9.4,0c0,3.1,0,6.2,0,9.4c0,0,0,0-0.1,0c-3.2,0-6.3,0-9.4,0
		C565,303.8,565,300.6,565,297.5z M583.9,325.9C583.9,325.9,583.9,325.9,583.9,325.9c-3.1,0-6.2,0-9.5,0c0,3.3,0,6.4,0,9.5
		c-3.1,0-6.1,0-9.5,0c0,0,0,0,0,0c0-6.3,0-12.6,0-18.8c0,0,0-0.1,0-0.1c-3.1,0-6.3,0-9.4,0c0,0,0,0-0.1,0c0-3.1,0-6.2,0-9.4
		c3.3,0,6.4,0,9.4,0c0,0.1,0,0.1,0,0.2c0,1.4,0,2.8,0,4.3c0,1.7,0,3.3,0,5c6.2,0,12.5,0,18.9,0C583.9,319.6,583.9,322.7,583.9,325.9
		z"/>
	<ellipse cx="546" cy="344.8" rx="0" ry="0"/>
	<path d="M489.2,363.8C489.2,363.8,489.2,363.8,489.2,363.8C489.1,363.8,489.1,363.8,489.2,363.8
		C489.1,363.8,489.1,363.8,489.2,363.8C489.2,363.8,489.2,363.8,489.2,363.8C489.2,363.8,489.2,363.8,489.2,363.8z"/>
	<ellipse cx="489.2" cy="373.3" rx="0" ry="0"/>
	<path d="M631.3,354.3c0-3.2,0-6.3,0-9.3c0,0,0-0.1,0-0.1c-3.1,0-6.1,0-9.4,0c0,0,0,0,0,0c0-6.4,0-12.7,0-19c-3.1,0-6.2,0-9.5,0
		c0,0-0.1,0-0.1,0c0,12.7,0,25.3,0,38c-3.2,0-6.2,0-9.3,0c0,3.2,0,6.3,0,9.4c3.3,0,6.5,0,9.8,0c7.2-2.4,13.6-4.8,18.5-6.8
		c0-0.9,0-1.8,0-2.8c2.3,0,4.5,0,6.7,0c1.1-0.5,2-0.9,2.8-1.2c0-2.8,0-5.4,0-8.2C637.6,354.3,634.6,354.3,631.3,354.3
		C631.4,354.3,631.4,354.3,631.3,354.3z"/>
	<path d="M621.9,325.9C621.9,325.9,621.9,325.9,621.9,325.9C621.9,325.9,621.9,325.9,621.9,325.9
		C621.9,325.9,621.9,325.9,621.9,325.9C621.9,325.9,621.9,325.9,621.9,325.9C621.9,325.9,621.9,325.9,621.9,325.9
		C621.9,325.9,621.9,325.9,621.9,325.9C621.9,325.9,621.9,325.9,621.9,325.9C621.9,325.9,621.9,325.9,621.9,325.9z"/>
	<ellipse cx="631.4" cy="344.8" rx="0" ry="0"/>
	<path d="M555.5,382.8c-3.2,0-6.3,0-9.3,0c0,1.1,0,2.2,0,3.2c6.3-0.1,12.7-0.6,18.9-1.5c0-0.6,0-1.2,0-1.8c3.2,0,6.2,0,9.4,0
		c0,0.1,0,0.2,0,0.3c6.5-1.2,12.8-2.6,18.8-4.1c0-1.9,0-3.8,0-5.6c-12.6,0-25.1,0-37.8,0C555.5,376.5,555.5,379.6,555.5,382.8z"/>
	<path d="M593.4,344.9C593.4,344.9,593.4,344.9,593.4,344.9c-6.3,0-12.6,0-18.9,0c0,0,0,0,0,0c0,3.1,0,6.2,0,9.5c-3.3,0-6.4,0-9.4,0
		c0,0,0,0,0,0c0,3.2,0,6.2,0,9.3c0,0,0,0,0,0c9.5,0,18.8,0,28.3,0c0,0,0,0,0,0C593.4,357.4,593.4,351.1,593.4,344.9
		C593.4,344.9,593.4,344.9,593.4,344.9C593.4,344.9,593.4,344.9,593.4,344.9z"/>
	<path d="M593.4,344.9C593.4,344.9,593.4,344.9,593.4,344.9C593.4,344.9,593.4,344.9,593.4,344.9
		C593.5,344.9,593.5,344.9,593.4,344.9C593.5,344.9,593.5,344.9,593.4,344.9C593.5,344.8,593.5,344.8,593.4,344.9
		C593.4,344.8,593.4,344.8,593.4,344.9C593.4,344.8,593.4,344.9,593.4,344.9z"/>
	<path d="M631.3,325.9C631.3,325.9,631.4,325.9,631.3,325.9C631.4,325.9,631.4,325.9,631.3,325.9
		C631.4,325.9,631.4,325.9,631.3,325.9C631.4,325.9,631.3,325.9,631.3,325.9C631.3,325.9,631.3,325.9,631.3,325.9
		C631.3,325.9,631.3,325.9,631.3,325.9z"/>
	<path d="M602.9,306.9C602.9,306.9,602.9,306.9,602.9,306.9C602.9,306.9,602.9,306.9,602.9,306.9
		C602.9,306.9,602.9,306.9,602.9,306.9z"/>
	<path d="M621.9,316.5c0,3.2,0,6.3,0,9.4c3.1,0,6.3,0,9.4,0c0,0,0,0,0,0c0-6.3,0-12.5,0-19c-3.2,0-6.3,0-9.5,0c0-3.2,0-6.2,0-9.3
		c-3.2,0-6.2,0-9.5,0c0,0,0,0,0,0.1c0,3.1,0,6.2,0,9.3c0,0,0,0,0,0c-3.2,0-6.3,0-9.4,0c0,0,0,0,0,0.1c0,3.1,0,6.2,0,9.5
		C609.4,316.5,615.6,316.5,621.9,316.5z"/>
	<path d="M574.5,344.8C574.5,344.8,574.5,344.8,574.5,344.8C574.5,344.8,574.5,344.9,574.5,344.8
		C574.5,344.9,574.5,344.9,574.5,344.8C574.5,344.9,574.5,344.9,574.5,344.8C574.5,344.9,574.5,344.8,574.5,344.8
		C574.5,344.8,574.5,344.8,574.5,344.8z"/>
	<path d="M643,315.3l0-17.9c-0.7,0-1.4,0-2.1,0c0,6.5,0,12.7,0,18.9c0.8,0,1.5,0,2.3,0c0,0,0,0,0,0l0-1l0,0L643,315.3z"/>
	<circle cx="470.2" cy="325.9" r="0"/>
	<ellipse cx="451.2" cy="344.8" rx="0" ry="0"/>
	<path d="M470.2,344.8c0-6.4,0-12.6,0-18.9c-3.1,0-6.1,0-9.4,0c0,0,0,0,0,0c0,3.1,0,6.2,0,9.5c-3.3,0-6.4,0-9.5,0c0,3.1,0,6.3,0,9.4
		C457.5,344.8,463.7,344.8,470.2,344.8C470.2,344.8,470.2,344.8,470.2,344.8z"/>
	<path d="M602.8,344.8c0-6.4,0-12.6,0-18.9c0,0,0,0,0,0c-3.2,0-6.2,0-9.3,0c0,0,0,0,0,0c0,6.3,0,12.6,0,18.9
		C596.6,344.8,599.7,344.8,602.8,344.8z"/>
	<path d="M593.5,325.9C593.5,325.9,593.5,325.9,593.5,325.9C593.5,325.9,593.5,325.9,593.5,325.9
		C593.4,325.9,593.4,325.9,593.5,325.9C593.4,325.9,593.4,325.9,593.5,325.9C593.4,325.9,593.4,325.9,593.5,325.9z"/>
	<path d="M640.7,344.8c0-6.4,0-12.6,0-18.9c0,0,0,0,0,0c-3.2,0-6.2,0-9.3,0c0,0,0,0,0,0c0,6.3,0,12.6,0,18.9
		C634.5,344.8,637.6,344.8,640.7,344.8z"/>
	<path d="M555.5,344.9C555.5,344.9,555.5,344.9,555.5,344.9C555.5,344.9,555.5,344.9,555.5,344.9
		C555.5,344.9,555.5,344.8,555.5,344.9C555.5,344.8,555.5,344.8,555.5,344.9C555.5,344.8,555.5,344.9,555.5,344.9z"/>
	<path d="M554.9,344.9c-2.9,0-5.9,0-8.8,0c0,3.1,0,6.2,0,9.3c3.2,0,6.3,0,9.4,0c0,0,0,0,0,0c0-3.2,0-6.3,0-9.3
		C555.3,344.9,555.1,344.9,554.9,344.9z"/>
	<path d="M451.2,354.3C451.2,354.3,451.2,354.3,451.2,354.3C451.2,354.3,451.3,354.3,451.2,354.3
		C451.3,354.3,451.3,354.3,451.2,354.3C451.3,354.3,451.2,354.3,451.2,354.3z"/>
	<path d="M448.1,344.9L448.1,344.9l-0.2,8.3l0,1.1c1.1,0,2.2,0,3.3,0c0-3.1,0-6.3,0-9.4C450.2,344.9,449.1,344.9,448.1,344.9z"/>
	<path d="M622,287.8c3.2,0,6.2,0,9.3,0c0-3.2,0-6.3,0-9.3c0,0,0,0,0,0c-3.1,0-6.2,0-9.3,0C622,281.7,622,284.8,622,287.8z"/>
	<path d="M631.4,278.5C631.4,278.5,631.3,278.4,631.4,278.5C631.3,278.5,631.3,278.5,631.4,278.5
		C631.4,278.5,631.4,278.5,631.4,278.5z"/>
	<ellipse cx="498.6" cy="373.3" rx="0" ry="0"/>
	<path d="M489.2,377.3c3,0.9,6.2,1.8,9.4,2.6c0-2.2,0-4.4,0-6.6c-3.1,0-6.3,0-9.4,0C489.2,374.7,489.2,376,489.2,377.3z"/>
</g>
</svg>
