<?xml version="1.0" encoding="utf-8"?>
<!-- Generator: Adobe Illustrator 25.3.0, SVG Export Plug-In . SVG Version: 6.00 Build 0)  -->
<svg version="1.1" id="Layer_1" xmlns="http://www.w3.org/2000/svg" xmlns:xlink="http://www.w3.org/1999/xlink" x="0px" y="0px"
	 viewBox="0 0 750.2 400.1" style="enable-background:new 0 0 750.2 400.1;" xml:space="preserve">
<style type="text/css">
	.st0{fill:none;}
	.st1{fill:none;stroke:#000000;stroke-width:0;stroke-linecap:round;stroke-linejoin:round;}
</style>
<g>
	<polygon class="st0" points="470.2,311.4 470.2,311.4 470.2,311.4 	"/>
	<polygon class="st0" points="470.2,311.4 470.3,311.4 470.3,311.3 	"/>
	<polygon class="st0" points="149.4,299.3 137.2,284.7 136.9,284.7 136.9,299.3 136.9,299.3 136.9,302.3 129.9,302.3 129.9,328.9 
		151.1,303.5 152.1,302.3 151.9,302.3 149.3,299.3 	"/>
	<polygon class="st0" points="511.1,338.9 511,338.9 511,338.9 511.1,339.1 	"/>
	<polygon class="st0" points="611.8,251.6 611.8,224.1 604.7,224.1 604.7,205.6 589.8,224.1 589.5,224.1 	"/>
	<polygon class="st0" points="477.8,338.9 500,338.9 500,328.4 500,311.4 500,311.4 	"/>
	<polygon class="st0" points="455.5,293.2 460.4,299.3 460.5,299.3 470.2,311.3 470.2,293.2 	"/>
	<polygon class="st0" points="477.8,338.8 477.7,338.9 477.8,338.9 	"/>
	<polygon class="st0" points="122,302.3 122,302.3 122,302.3 	"/>
	<polygon class="st0" points="477.7,251.6 477.7,224.1 485.2,224.1 485.2,205.6 470.3,224.1 455.5,224.1 	"/>
	<polygon class="st0" points="500,224.1 499.9,224.1 477.7,251.6 500,251.6 	"/>
	<polygon class="st0" points="515,311.4 515,293.2 514.8,293.2 500.1,311.4 500.1,311.4 522.3,338.9 522.3,311.4 	"/>
	<polygon class="st0" points="611.8,163.9 611.8,136.4 604.7,136.4 604.7,118.2 604.4,118.2 589.8,136.4 589.5,136.4 	"/>
	<polygon class="st0" points="522.3,224.1 515,224.1 515,205.6 500.1,224.1 522.3,251.6 	"/>
	<polygon class="st0" points="511.2,251.6 544.7,293.2 544.7,251.5 544.6,251.5 544.6,224.1 522.3,251.6 	"/>
	<polygon class="st0" points="529.9,311.3 529.9,293.2 515.3,293.2 520.2,299.3 520.2,299.3 	"/>
	<polygon class="st0" points="522.3,338.9 522.3,338.9 522.3,338.8 	"/>
	<polygon class="st0" points="529.9,311.4 529.9,311.4 529.9,311.3 	"/>
	<polygon class="st0" points="151.9,302.3 151.9,302.3 151.9,302.3 	"/>
	<polygon class="st0" points="129.9,329 129.9,329 129.9,329 	"/>
	<polygon class="st0" points="241.6,217.9 241.6,244.5 263.9,244.5 241.7,217.9 	"/>
	<polygon class="st0" points="241.5,302.3 226.8,284.7 226.6,284.7 226.6,299.3 226.6,299.3 226.6,302.3 219.3,302.3 219.3,329 
		241.5,302.3 241.5,302.3 241.5,302.3 	"/>
	<polygon class="st0" points="271.4,302.3 271.4,302.3 271.4,302.3 	"/>
	<polygon class="st0" points="230.5,244.5 230.5,284.7 241.5,284.7 241.5,299.3 241.5,299.3 241.5,302.3 244.1,299.3 244.2,299.3 
		256.3,284.8 256.5,284.8 256.5,302.3 263.9,302.3 263.9,302.4 263.9,302.4 263.9,329 275.6,314.9 286.1,302.3 271.4,302.3 
		268.8,299.3 268.9,299.3 256.7,284.7 264.1,284.7 264.1,284.7 230.6,244.5 	"/>
	<polygon class="st0" points="263.9,217.9 263.9,244.5 286.1,217.9 271.4,217.9 256.5,200 256.5,217.9 	"/>
	<polygon class="st0" points="181.7,302.3 181.7,302.3 181.7,302.3 	"/>
	<polygon class="st0" points="219.3,329 219.3,329 219.3,329 	"/>
	<polygon class="st0" points="271.4,284.7 271.4,302.3 273.9,299.3 273.9,299.3 286.1,284.7 	"/>
	<polygon class="st0" points="515.2,118.1 529.9,136.3 529.9,118.1 	"/>
	<polygon class="st0" points="151.9,217.9 136.9,200 136.9,217.9 129.9,217.9 129.9,244.5 152.1,217.9 	"/>
	<polygon class="st0" points="226.6,200 226.6,217.9 219.3,217.9 219.3,244.5 241.5,217.9 	"/>
	<polygon class="st0" points="211.7,284.7 211.7,302.3 214.2,299.3 214.2,299.3 226.4,284.7 	"/>
	<polygon class="st0" points="211.7,302.3 211.7,302.3 211.7,302.3 211.7,302.3 	"/>
	<polygon class="st0" points="241.6,302.4 241.6,329 263.9,329 241.7,302.4 	"/>
	<polygon class="st0" points="241.7,302.3 241.6,302.3 241.6,302.4 241.6,302.4 	"/>
	<polygon class="st0" points="511.1,293.2 511.1,251.6 511,251.6 477.5,293.2 484.9,293.2 480,299.3 480,299.3 470.3,311.4 
		470.2,311.4 470.2,311.4 455.5,311.4 477.7,338.9 477.7,338.9 477.7,311.4 485.2,311.4 485.2,299.3 485.2,299.3 485.2,293.2 
		485.4,293.2 490.3,299.3 490.3,299.3 500.1,311.4 500.1,293.2 	"/>
	<polygon class="st0" points="604.4,293.2 599.5,299.3 599.5,299.3 598.8,300.2 589.8,311.4 589.6,311.4 600.1,324.5 611.8,338.8 
		611.8,311.4 604.7,311.4 604.7,311.4 604.7,311.4 604.7,299.3 604.7,299.3 604.7,293.2 	"/>
	<polygon class="st0" points="611.8,338.9 611.8,338.9 611.8,338.9 	"/>
	<polygon class="st0" points="500,49.2 499.9,49.2 477.7,76.7 500,76.7 	"/>
	<polygon class="st0" points="559.9,311.4 559.9,311.4 559.9,311.4 	"/>
	<polygon class="st0" points="611.7,338.9 611.8,338.9 611.8,338.9 	"/>
	<polygon class="st0" points="89.6,135.7 109.1,121 89.6,121 	"/>
	<polygon class="st0" points="589.8,311.3 589.8,311.4 589.8,311.4 	"/>
	<polygon class="st0" points="455.6,118.2 470.3,136.4 470.3,118.2 	"/>
	<polygon class="st0" points="500.1,136.4 500,136.4 477.8,163.9 500.1,163.9 	"/>
	<polygon class="st0" points="263.9,159.5 241.7,132.9 241.6,132.9 241.6,159.5 	"/>
	<polygon class="st0" points="559.9,311.4 559.9,311.4 559.9,311.4 	"/>
	<polygon class="st0" points="271.4,115.3 271.4,132.9 286.1,115.3 	"/>
	<polygon class="st0" points="211.7,115.3 211.7,132.9 226.4,115.3 	"/>
	<polygon class="st0" points="567.1,338.9 567.1,338.9 567.1,338.8 	"/>
	<polygon points="197,244.4 197,217.9 196.8,217.9 196.8,217.8 174.5,244.5 163.4,244.5 196.9,284.7 196.9,244.4 	"/>
	<polygon points="105.2,305.1 104.4,306 104.4,338.8 104.8,339.3 105.2,323.4 	"/>
	<polygon points="107.6,329 107.6,302.3 107.6,302.3 107.6,329 	"/>
	<path d="M129.7,358C129.7,358,129.7,358,129.7,358l0-29h0V358z"/>
	<path d="M163.1,329l-25.3,30.4c0,0,0,0,0,0L163.1,329L163.1,329z"/>
	<polygon points="197,302.3 197,328.8 197,328.8 197,302.3 196.8,302.3 196.8,302.3 196.8,302.3 	"/>
	<path d="M196.9,364.9C196.9,364.9,196.9,364.9,196.9,364.9l0-36h0V364.9z"/>
	<path d="M163.4,329l29.9,35.9c0,0,0,0,0,0L163.4,329L163.4,329z"/>
	<path d="M297.7,353.6C297.7,353.6,297.7,353.6,297.7,353.6l0-24.6h0V353.6z"/>
	<path d="M273.6,357.7C273.6,357.7,273.6,357.7,273.6,357.7l13.4-16L273.6,357.7z"/>
	<polygon points="169.6,323.1 174.5,329 174.5,329 	"/>
	<polygon points="152.1,302.3 152.1,302.3 151.1,303.5 	"/>
	<polygon points="166.8,302.3 174.5,302.3 174.5,329 174.5,329 174.5,302.3 166.8,302.3 166.8,284.7 166.5,284.7 154.4,299.3 
		166.8,299.3 	"/>
	<polygon points="152.2,329 129.9,329 129.9,329 152.2,329 152.2,302.3 152.2,302.3 	"/>
	<polygon points="119.5,299.3 122,299.3 122,284.7 107.3,284.7 122,302.3 122,302.3 	"/>
	<polygon points="129.9,302.3 129.9,329 129.9,328.9 129.9,302.3 	"/>
	<polygon points="122,302.3 122,302.3 107.7,302.3 107.7,302.3 122,302.3 	"/>
	<polygon points="129.9,329 129.8,328.9 129.9,329 129.9,329 	"/>
	<polygon points="124.6,299.3 136.9,299.3 136.9,284.7 137.2,284.7 149.4,299.3 151.9,299.3 151.9,302.3 151.9,302.3 151.9,302.3 
		151.9,284.7 163.3,284.7 163.3,244.5 163.2,244.5 129.7,284.7 136.7,284.7 122,302.3 122,302.3 	"/>
	<polygon points="167,284.7 179.4,299.5 179.2,299.3 181.7,299.3 181.7,284.7 	"/>
	<polygon points="181.7,302.3 184.2,299.3 196.8,299.3 196.8,302.2 196.8,302.2 196.8,284.7 196.6,284.7 196.4,284.7 181.7,302.3 
		181.7,302.3 	"/>
	<path d="M107.6,244.5v-6.7c-1,2.9-2.1,5.9-3.2,8.9l0,7.6l25.3,30.4v-40.2H107.6z"/>
	<polygon points="299.8,315.3 299.8,302.3 299.6,302.3 299.5,315.3 	"/>
	<polygon points="219.3,329 219.3,329 230.4,329 230.4,329 	"/>
	<path d="M230.5,329v34.2c0,0,0.1,0,0.1,0V329h0L230.5,329L230.5,329z"/>
	<polygon points="286.1,302.3 286.1,302.3 275.6,314.9 	"/>
	<path d="M286.2,302.3V329h-22.1v30.2c0,0,0.1,0,0.1,0V329h22.1L286.2,302.3l0.2,0.1L286.2,302.3L286.2,302.3z"/>
	<polygon points="241.7,302.3 241.6,302.4 241.7,302.4 263.9,329 263.9,329 241.7,302.3 	"/>
	<polygon points="256.7,284.7 268.9,299.3 271.4,299.3 271.4,302.3 271.4,302.3 271.4,302.3 271.4,284.7 286.1,284.7 273.9,299.3 
		286.3,299.3 286.3,302.2 286.3,302.2 286.3,302.2 286.3,284.7 297.7,284.7 297.7,244.5 297.6,244.5 264.1,284.7 264.1,284.7 
		264.1,284.7 264.1,284.7 	"/>
	<polygon points="256.3,284.8 244.2,299.3 256.5,299.3 256.5,302.3 256.5,302.3 256.5,284.8 	"/>
	<polygon points="241.6,302.4 241.6,329 241.6,329 241.6,302.4 	"/>
	<rect x="263.9" y="302.4" width="0" height="26.6"/>
	<polygon points="211.7,302.3 197.1,302.3 197.1,302.3 211.7,302.3 	"/>
	<polygon points="211.7,302.3 211.7,302.3 211.7,302.3 	"/>
	<path d="M211.7,302.3L211.7,302.3L211.7,302.3l0-17.6h14.7l-12.2,14.6h12.4v-14.6h0.2l14.7,17.6v0l-2.5-3h2.5v-14.6h-11v-40.2h0.1
		l33.5,40.2v-40.2h22.1v-26.6h0.1l6.8,8.2c-0.7-2.8-1.4-5.6-2-8.4h-4.8V200l-14.9,17.9h14.7l-22.2,26.6h-22.3v-26.6h0.1l22.2,26.6
		v-26.6h-7.4V200l-15,17.9l-22.2,26.6h11.1l-33.5,40.2h0.1l12.2,14.6h2.5V302.3z"/>
	<line class="st1" x1="264.1" y1="284.7" x2="264.1" y2="284.7"/>
	<polygon points="219.3,329 214.5,323.2 219.3,329 219.3,329 	"/>
	<polygon points="219.3,302.3 219.3,329 219.3,329 219.3,302.3 	"/>
	<path d="M116.1,200c-0.4,3-0.8,6.1-1.3,9.2l7.2,8.7V200H116.1z"/>
	<path d="M136.9,217.9V200L122,217.9h-8.9c-0.4,1.7-0.8,3.3-1.2,5l18,21.6v-26.6H136.9z"/>
	<polygon points="151.9,200 136.9,200 151.9,217.9 	"/>
	<polygon points="166.8,217.9 166.8,200 151.9,217.9 152.1,217.9 129.9,244.5 152.2,244.5 152.2,217.9 152.3,217.9 174.5,244.5 
		174.5,217.9 	"/>
	<polygon points="181.7,200 166.8,200 181.7,217.9 	"/>
	<polygon points="196.6,217.7 196.6,200 181.7,217.9 196.6,217.9 	"/>
	<polygon points="196.8,200 211.7,217.9 211.7,200 	"/>
	<polygon points="226.6,217.9 226.6,200 211.7,217.9 197.1,217.9 219.3,244.5 219.3,217.9 	"/>
	<polygon points="241.5,200 226.6,200 241.5,217.9 	"/>
	<polygon points="271.4,200 256.5,200 271.4,217.9 	"/>
	<path d="M129.7,199.7v-40.1h-13c0.7,7.3,1.1,15.9,0.7,25.3L129.7,199.7z"/>
	<polygon points="163.3,159.6 163.2,159.6 129.7,199.8 163.3,199.8 	"/>
	<polygon points="196.9,199.8 196.9,199.7 196.9,159.5 197,159.5 197,132.9 196.8,132.9 174.5,159.6 163.4,159.6 	"/>
	<path d="M286.8,172.6l-22.7,27.2h24C286.9,189.9,286.6,180.8,286.8,172.6z"/>
	<polygon points="129.9,159.6 152.2,159.6 152.2,132.9 152.3,132.9 174.5,159.6 174.5,132.9 166.8,132.9 166.8,115.3 166.5,115.3 
		151.9,132.9 152.1,132.9 	"/>
	<path d="M136.7,115.3l-14.6,17.5v-17.4h-10.4v-0.1c-0.1,1.7-0.1,3.4-0.2,5l10.5,12.6l0,0h-10.2c0.4,1.4,1.1,3.8,1.8,7.1l16.3,19.5
		v-26.6h7.1v-17.6h0.2l14.7,17.6v-17.6h11.4v-34c-0.7-1.2-1.4-2.5-2.1-3.8l-31.5,37.8H136.7z"/>
	<polygon points="181.7,115.3 167,115.3 181.7,132.9 	"/>
	<polygon points="196.6,132.8 196.8,132.8 196.8,115.3 196.6,115.3 196.4,115.3 181.7,132.9 196.6,132.9 	"/>
	<path d="M114.8,75.1c-0.5,3.5-1,7.4-1.4,11.4c-0.3,2.8-0.5,5.6-0.7,8.5l17,20.4v-0.1V75.1H114.8z"/>
	<path d="M183.3,99l13.5,16.3v-13C191.7,101.8,187.3,100.7,183.3,99z"/>
	<polygon points="263.9,159.5 263.9,132.9 256.5,132.9 256.5,115.3 256.3,115.3 241.6,132.9 241.7,132.9 	"/>
	<path d="M230.5,159.6l33.6,40.2v-40.2h22.1V133h0.1l4.7,5.6c0.6-2.6,1.2-4.6,1.5-5.8h-6.2v-17.5h6.3c-0.4-10.1-0.9-21.6-2-31.8
		l-26.5,31.8V75.1h22.1V61.4c-0.4-0.9-0.8-1.7-1.3-2.5l-6-1.8l-15,18V52.6l-12.3-3.7c-0.5-0.1-0.9-0.1-0.9-0.1
		c0,1.9-0.3,5.7-0.9,9.1c0,0,0,0,0,0.1c0,0,0,0,0,0.1c0,0.1,0,0.2,0,0.2l14.1,16.8h-19c-1.6,3.5-3.5,6.9-5.8,10.1l25.1,30.1v0h-7.4
		l14.7,17.6v-17.6h14.7l-14.7,17.6h14.7l-22.2,26.6h-22.3v-26.6l-22.2,26.6L230.5,159.6l-33.6,40.1h33.6V159.6z"/>
	<path d="M129.9,56.3l-10.6,3.2c-0.4,0.5-0.7,1.1-1,1.7l11.6,13.9V56.3z"/>
	<path d="M154.2,48.9l-1.2,0.4l1.4,1.6C154.2,49.7,154.2,48.9,154.2,48.9z"/>
	<polygon points="152.2,49.5 151,49.9 129.9,75.1 152.2,75.1 	"/>
	<path d="M211.7,132.9v-17.6h14.7L211.7,132.9h-14.6l22.2,26.6v-26.6h7.3v-17.6h0.2l14.7,17.6v-17.6h-11V93.9
		c-5.9,4.5-13.4,7.6-22.8,8.4l-10.8,13h0.1L211.7,132.9z"/>
	<path d="M643.2,322.6l0,19l-14,17.3c0,0,0,0,0.1,0l13.9-17.2L643.2,322.6l-1.8-2.2L643.2,322.6z"/>
	<rect x="612" y="338.9" width="22.1" height="0"/>
	<path d="M578.3,374.1V339l0-0.1v0.1L578.3,374.1C578.3,374.1,578.3,374.1,578.3,374.1z"/>
	<path d="M547,377.8l31.3-38.8h-0.1l-31.3,38.8C546.9,377.8,547,377.8,547,377.8z"/>
	<path d="M447.7,343.5v9.7c0,0,0.1,0,0.2,0l0.2-9.2L447.7,343.5z"/>
	<polygon points="611.8,338.9 611.8,338.9 611.8,338.9 	"/>
	<polygon points="611.7,338.9 611.8,338.9 611.8,338.8 600.1,324.5 	"/>
	<polygon points="589.8,311.4 589.8,311.4 589.5,311.4 589.6,311.4 589.8,311.4 	"/>
	<polygon points="567.1,338.8 567.1,311.4 567.1,311.4 567.1,338.9 567.1,338.9 	"/>
	<polygon points="574.8,299.3 580,299.3 589.8,311.4 589.8,311.4 575.1,293.2 574.8,293.2 574.8,311.4 574.8,311.4 	"/>
	<polygon points="589.4,311.4 578.6,324.7 589.4,311.4 589.4,338.9 589.4,338.9 589.4,311.4 	"/>
	<polygon points="619.6,299.3 629.4,299.3 619.6,311.4 619.6,311.4 634.3,293.2 619.6,293.2 619.6,311.4 619.6,311.4 	"/>
	<polygon points="604.4,293.2 604.7,293.2 604.7,299.3 609.8,299.3 604.9,293.2 611.9,293.2 578.4,251.6 578.3,251.6 578.3,293.2 
		589.8,293.2 589.8,299.3 599.5,299.3 	"/>
	<rect x="604.7" y="311.4" width="7.1" height="0"/>
	<polygon points="598.8,300.2 589.8,311.3 589.8,311.4 	"/>
	<polygon points="634,311.4 611.8,338.9 611.8,338.9 634,311.4 	"/>
	<polygon points="559.9,311.4 559.9,299.3 569.7,299.3 563.6,306.9 574.6,293.2 559.9,293.2 559.9,311.4 559.9,311.4 	"/>
	<polygon points="559.9,311.4 559.9,311.4 559.9,311.4 	"/>
	<polygon points="545.2,293.2 545,293.2 544.9,293.2 544.9,299.3 550.1,299.3 	"/>
	<rect x="544.9" y="311.3" width="0.1" height="0"/>
	<polygon points="559.9,311.4 559.9,311.4 545,311.4 545,311.4 	"/>
	<path d="M643.1,243.4c-1.7-4.7-3.2-9.3-4.5-13.8l-4.4-5.5h-0.1v27.5h-22.2v41.6l31.2-38.7V243.4z"/>
	<polygon points="544.7,251.5 544.7,293.2 578.2,251.6 567.1,251.6 544.9,224 544.9,224.1 544.8,224.1 544.6,224.1 544.6,251.5 	"/>
	<polygon points="500,311.4 500,311.4 500,311.4 499.9,311.4 477.8,338.8 477.8,338.9 	"/>
	<polygon points="447.7,311.3 447.7,320.8 448.6,319.7 448.6,311.3 	"/>
	<path d="M455.3,299.3h5.1l-4.9-6.1h14.7v18.1l0,0l0,0v-12.1h9.7l4.9-6.1h-7.4l33.5-41.6h0.1v41.6h-11v18.2l0,0v-12.1h9.8l-9.8,12.1
		h0l14.7-18.2h0.2v18.2h7.3v27.5l0,0l0,0v-27.5H515v-12.1h5.2l-4.9-6.1h14.6v18.1l0,0l0,0v-12.1h9.7l4.9-6.1h0.1l-33.5-41.6h11.1
		l-22.2-27.5l-14.9-18.5v18.5h-7.5v27.5l22.2-27.5h0.1v27.5h-22.3l-22.2-27.5h14.8l-13.1-16.2c-0.5,3.2-1.2,6.5-1.9,9.9v6.2h-1.5
		c-0.2,0.9-0.5,1.9-0.7,2.8l2.2-2.7h0.1v27.5h22.1v41.6l-29.9-37.1l0,37.1h7.7v18.1h0V299.3z"/>
	<polygon points="470.2,311.4 455.5,311.4 455.5,311.4 470.2,311.4 	"/>
	<polygon points="455.3,311.4 455.3,311.4 455.3,338.9 455.4,338.9 455.4,311.4 	"/>
	<polygon points="470.2,311.4 470.2,311.4 470.2,311.4 	"/>
	<polygon points="500,328.4 500,338.9 477.8,338.9 477.7,338.9 477.7,338.9 500,338.9 	"/>
	<polygon points="477.7,338.9 477.7,338.9 477.7,338.9 	"/>
	<path d="M477.4,338.9v26.4c0,0,0.1,0,0.1,0v-26.4H477.4z"/>
	<polygon points="485.2,293.2 485.2,299.3 490.3,299.3 485.4,293.2 	"/>
	<path d="M511,338.9L511,338.9l0,35.5c0,0,0.1,0,0.1,0v-35.3L511,338.9z"/>
	<polygon points="544.6,311.4 544.5,311.4 533.9,324.6 	"/>
	<path d="M633.4,205.6h-13.8v18.5l13.9-17.3C633.5,206.4,633.4,206,633.4,205.6z"/>
	<polygon points="611.8,224.1 611.8,251.6 634,224.1 619.6,224.1 604.7,205.6 604.7,224.1 	"/>
	<polygon points="589.8,205.6 589.8,224.1 604.7,205.6 	"/>
	<polygon points="589.4,251.6 611.8,251.6 589.5,224.1 589.8,224.1 574.8,205.6 574.8,224.1 567.1,224.1 567.1,251.6 589.4,224.1 	
		"/>
	<polygon points="559.9,224.1 574.8,205.6 559.9,205.6 	"/>
	<polygon points="545,224 545,224.1 559.9,224.1 545,205.6 	"/>
	<polygon points="529.9,205.6 529.9,224.1 544.9,205.6 	"/>
	<polygon points="522.3,224.1 522.3,251.6 544.6,224.1 529.9,224.1 515,205.6 515,224.1 	"/>
	<polygon points="500.1,205.6 500.1,224.1 515,205.6 	"/>
	<polygon points="470.3,205.6 470.3,224.1 485.2,205.6 	"/>
	<path d="M612,163.9v41.5l19.2-23.9c-0.2-6.4,0-12.3,0.4-17.6H612z"/>
	<path d="M634.1,144.7c0.5-2.5,0.9-4.7,1.4-6.6l-1.4-1.7V144.7z"/>
	<polygon points="578.3,163.9 578.3,205.4 611.9,205.4 578.4,163.9 	"/>
	<polygon points="567.1,163.9 544.9,136.3 544.9,136.4 544.8,136.4 544.6,136.4 544.6,163.8 544.7,163.8 544.7,205.4 578.2,163.9 	
		"/>
	<path d="M457.6,205.4h19.9l-17.9-22.2C459.4,190.1,458.8,197.6,457.6,205.4z"/>
	<polygon points="589.4,163.9 611.8,163.9 589.5,136.4 589.8,136.4 575.1,118.2 574.8,118.2 574.8,136.4 567.1,136.4 567.1,163.9 
		589.4,136.4 	"/>
	<polygon points="619.6,118.2 619.6,136.4 634.3,118.2 	"/>
	<polygon points="604.7,118.2 604.7,136.4 611.8,136.4 611.8,163.9 634,136.4 619.6,136.4 604.9,118.2 611.9,118.2 578.4,76.6 
		578.3,76.6 578.3,118.2 589.8,118.2 589.8,136.4 604.4,118.2 	"/>
	<polygon points="559.9,118.2 559.9,136.4 574.6,118.2 	"/>
	<polygon points="559.9,136.4 545.2,118.2 545,118.2 544.9,118.2 544.9,136.2 545,136.2 545,136.4 	"/>
	<path d="M612,118.1l23.9-29.6c-0.5-5.2-1-10.1-1.8-14.4v2.6H612V118.1z"/>
	<path d="M578.2,76.6h-11l22.2-27.5h0.3l-1.2-1.5c-2.6-0.2-5.9-0.3-10-0.5c-1.2-0.1-2.4-0.1-3.7-0.2v2.3h-7.7v27.4L544.9,49v0.1
		h-0.1h-0.2v27.4h0.1v41.6v0.1L578.2,76.6z"/>
	<polygon points="544.7,205.4 511.1,163.9 511.1,205.4 	"/>
	<polygon points="500.1,136.4 485.4,118.2 485.2,118.2 485.2,136.4 477.8,136.4 477.8,163.9 500,136.4 	"/>
	<polygon points="611.8,53.4 611.8,76.6 626.8,58 	"/>
	<path d="M589.8,47.7v1.4l1.1-1.3C590.5,47.7,590.2,47.7,589.8,47.7z"/>
	<polygon points="611.7,76.6 589.4,49.1 589.4,76.6 	"/>
	<path d="M559.9,46.4v2.7l2.2-2.7C561.4,46.4,560.6,46.4,559.9,46.4z"/>
	<path d="M557.7,46.3c-4.1-0.1-8.4-0.1-12.7-0.1V49v0.1h14.9L557.7,46.3z"/>
	<path d="M529.9,46.5v2.6l2.1-2.7C531.3,46.4,530.6,46.4,529.9,46.5z"/>
	<path d="M522.3,76.6l22.2-27.5h-14.6l-2.1-2.6c-4.6,0.2-8.9,0.4-12.8,0.6v2h7.3V76.6z"/>
	<polygon points="500.1,48.1 500.1,49.1 500.9,48 	"/>
	<path d="M477.4,76.7V118l-22-27.3c-0.3,3.1-0.5,6.2-0.7,9.4c-0.4,6.2-0.7,12.5-0.9,18.1h1.5v18.1h-0.4c0,0.1,0.1,0.3,0.1,0.4
		l0.3-0.3h0.1v1.8c1.3,5.6,3,14.5,3.8,25.7h18.3v41.5l33.6-41.5h11.2l-22.2-27.5v27.5h-22.3l-22.2-27.5h14.7l-14.7-18.2h14.7v18.2
		l14.7-18.2h-7.4l-0.1-0.1l33.6-41.5h11.2l-22.2-27.5l-0.8-0.9l-21.6,6.5v21.9l22.2-27.5h0.1v27.5h-22.3L463.4,59l-0.8,0.3
		c-0.3,0.4-0.4,0.6-0.5,0.8c-2.2,3-3.9,9.1-5.1,16.6H477.4z"/>
	<polygon points="500.1,118.1 500.1,136.3 514.8,118.1 515,118.1 515,136.3 522.3,136.3 522.3,163.8 544.5,136.3 529.9,136.3 
		515.2,118.1 529.9,118.1 529.9,136.3 544.6,118.1 544.7,118.1 511.1,76.6 511.1,118.1 	"/>
	<path d="M456.6,72.8c0.6-2.9,1.2-5.5,2-7.7l-14.4,10.8V76H456C456.2,74.9,456.4,73.8,456.6,72.8z"/>
	<polygon points="444.2,65.1 435.9,67.6 419.9,72.5 444.2,72.5 	"/>
	<path d="M460.4,60.8c0.1-0.3,0.3-0.6,0.5-0.8l-3.6,1.1h2.9C460.3,61,460.4,60.9,460.4,60.8z"/>
	<path d="M454.7,86.6c0.1-0.7,0.1-1.4,0.2-2.1c0-0.1,0-0.2,0-0.2l-10.7-8V91h10C454.3,89.5,454.5,88.1,454.7,86.6z"/>
	<path d="M444.2,105.9v0.1h9.1c0.1-2.5,0.3-5,0.4-7.5l-9.5,7.1V105.9z"/>
	<polygon points="399.6,106.2 399.6,106.1 444.2,106.1 405.4,76.9 399.7,78.6 399.7,83.7 386.4,93.7 389.2,106 389.2,106.2 	"/>
	<polygon points="384.1,83.4 384.1,83.4 384.2,83.7 399.7,83.7 394.9,80.1 	"/>
	<polygon points="393.1,123.5 394.2,128.5 399.7,128.5 	"/>
	<path d="M452.9,112.9l-8.6-6.6v-0.1l-44.5,33.5v-11.1l-4.7,3.6l2.6,11.4l5.6-1.3l-3.3-2.5v-0.1h14.7l29.7-6.8V121h8.3
		C452.7,118.4,452.8,115.6,452.9,112.9z"/>
	<path d="M452.3,129.7l-2.7,2l2.6-0.6C452.2,130.6,452.3,130.2,452.3,129.7z"/>
	<path d="M111.1,106.2c0-0.6,0.1-1.2,0.1-1.8L109,106h0.1v0.2H111.1z"/>
	<path d="M89.6,76h19.5v7.7h3.6c0.6-5.6,1.3-10.9,2.3-15.3c0.1-0.4,0.2-0.8,0.3-1.2c0.1-0.3,0.1-0.6,0.1-0.9l-5.7-4.4l-2.9,0.9
		l-17.2,13V76z"/>
	<path d="M116.9,61.3c0.2-0.6,0.5-1.2,0.8-1.8l-6.3,1.9h5.3C116.8,61.4,116.8,61.3,116.9,61.3z"/>
	<polygon points="89.6,68 74.9,72.5 89.6,72.5 	"/>
	<polygon points="89.6,91 109.1,91 89.6,76.3 	"/>
	<polygon points="89.6,105.9 89.6,106 108.9,106 108.9,105.9 109.1,105.9 109.1,91 89.6,105.6 	"/>
	<polygon points="53.5,79 51,79.8 45.1,81.6 45.1,83.7 40.3,87.3 44.5,106 44.5,106.2 45,106.2 45,106.1 89.6,106.1 	"/>
	<polygon points="39.4,83.3 39.5,83.7 45.1,83.7 43,82.2 	"/>
	<path d="M109.1,128.6h1.1c0.1-1.2,0.2-2.5,0.2-3.8c0.2-5,0.4-10.9,0.7-16.9l-2-1.5V121l-19.5,14.7V121h19.5l-19.5-14.7v-0.1
		L51,135.3l1,4.5h21.2l16.4-3.9v0h0.1l19.4-4.6V128.6z"/>
	<polygon points="327.3,71.5 326.1,72.4 326.1,72.5 330.5,72.5 	"/>
	<polygon points="326.1,83.7 296.5,106 296.6,106 296.6,106.2 325.9,106.2 325.9,106.1 361,106.1 361.6,103.1 362.3,99.9 
		326.1,72.6 	"/>
	<path d="M289.2,68.2c0.1,0.6,0.3,1.3,0.4,1.9c0.3,1.8,0.7,3.8,1,5.9h6v7.7H326l-28-21.1l-1.6-0.5l-0.9-0.3l-6.7,5
		C289,67.3,289.1,67.7,289.2,68.2z"/>
	<path d="M286.7,60.3c0.1,0.3,0.3,0.6,0.4,0.8h5.9l-6.9-2.1c0.2,0.3,0.3,0.6,0.5,1C286.6,60.1,286.7,60.2,286.7,60.3z"/>
	<path d="M291.8,87.4c0.1,1.2,0.2,2.4,0.3,3.6h4.4h0.1L291.8,87.4z"/>
	<path d="M293,106h3.4v-0.1h0.1V91l-4.1,3.2C292.6,98.1,292.9,102.1,293,106z"/>
	<polygon points="326.1,138.7 326.1,128.5 315.8,136.2 	"/>
	<polygon points="330.4,139.7 353.6,139.7 359,114.8 327,138.9 	"/>
	<path d="M296.7,120.9h-0.1l-2.8,2.1c0,0.5,0,1,0.1,1.5c0.1,2.5,0.3,4.7,0.5,6.6l2.3,0.6v-3.2h29.4h0.1l-29.5-22.2V120.9z"/>
	<path d="M293.6,119.3c0,0.3,0,0.5,0,0.8c0,0.3,0,0.5,0.1,0.8h2.9l-3-2.2C293.6,118.9,293.6,119.1,293.6,119.3z"/>
	<path d="M651.1,106v-0.1h0h0.1V91l-13.4,10.1c0.1,1.6,0.2,3.2,0.3,4.8v0.1H651.1z"/>
	<polygon points="684.6,75.6 680.7,74.4 680.7,83.7 651.1,106 651.2,106 651.2,106.2 680.6,106.2 680.6,106.1 705.4,106.1 
		706.7,100.6 708.3,93.4 	"/>
	<path d="M647.1,64.2l-12.2,9.2c0,0.2,0.1,0.5,0.1,0.7c0.1,0.3,0.1,0.6,0.1,0.9c0.1,0.3,0.1,0.7,0.2,1h15.9v7.7h29.5l-20.6-15.5
		L647.1,64.2z"/>
	<path d="M631.7,61.6v-0.5h5l-6.3-1.9c0.4,0.5,0.7,1.1,1,1.8C631.5,61.2,631.6,61.4,631.7,61.6z"/>
	<path d="M635.9,79.4c0.4,3.6,0.8,7.5,1.2,11.6h14.1h0.1L635.9,79.4z"/>
	<path d="M680.7,128.5l-0.1,0.1l-29.5-22.2v14.4l-12.8-9.6c0.1,3.3,0.3,6.6,0.4,9.7h12.4h0.1l-12.2,9.2c0,0.3,0,0.6,0.1,1
		c0,0.1,0,0.1,0,0.2l12,2.8v-5.4h29.5l-12.4,9.4l14.8,3.5l-2.2-1.6v-0.1h17.2l3.5-15.7l-20.7,15.6V128.5z"/>
	<path d="M129.7,329h-22.1h0v-26.6v0h-0.1l-2.3,2.8v0l0,18.3l-0.4,15.9l0,0L127,366c0.9,0.2,1.7,0.3,2.6,0.5V358V329L129.7,329z"/>
	<path d="M163.2,329l-25.3,30.4l-6.2,7.4c4.8,0.8,10,1.6,15.5,2.4h16.1V329L163.2,329L163.2,329z"/>
	<polygon points="196.9,328.9 196.9,328.9 197,328.9 197,328.8 197,302.3 196.8,302.3 196.8,302.3 196.8,302.3 196.8,302.2 
		174.5,329 174.5,329 174.5,329 163.4,329 163.4,329 193.3,364.9 196.9,369.2 196.9,364.9 	"/>
	<path d="M297.7,329L297.7,329L287,341.7l-13.4,16l-8,9.6c15.2-2.2,27.2-4.4,32.1-5.3v-8.4V329L297.7,329z"/>
	<polygon points="174.5,302.3 166.8,302.3 166.8,299.3 154.4,299.3 154.4,299.3 151.9,302.3 151.9,302.3 151.9,302.3 152.1,302.3 
		152.1,302.3 151.1,303.5 129.9,328.9 129.9,329 129.9,329 129.9,329 152.2,329 152.2,302.3 152.2,302.3 152.3,302.3 169.6,323.1 
		174.5,329 	"/>
	<polygon points="122,302.3 122,302.3 122,302.3 122,302.3 122,299.3 122,299.3 119.5,299.3 	"/>
	<polygon points="129.9,302.3 129.9,302.3 136.9,302.3 136.9,299.3 136.9,299.3 124.6,299.3 122,302.3 107.7,302.3 107.7,302.3 
		129.8,328.9 129.9,329 	"/>
	<polygon points="151.9,299.3 149.4,299.3 149.3,299.3 151.9,302.3 151.9,302.3 	"/>
	<polygon points="179.4,299.5 181.7,302.3 181.7,302.3 181.7,302.3 181.7,299.3 181.7,299.3 179.2,299.3 	"/>
	<polygon points="184.2,299.3 181.7,302.3 181.7,302.3 196.6,302.3 196.6,302.2 196.8,302.2 196.8,302.2 196.8,299.3 	"/>
	<path d="M299.8,315.3h-0.3l0-13l0-0.1h-13.3h0v-2.9h-12.4h0l-2.5,3l0,0l0,0h14.7h0l-10.5,12.6L263.9,329l0,0h0h-22.3h0v-26.6v-0.1
		h0.1h0l22.2,26.6v-26.6v-0.1h-7.4h0v-3h-12.2h-0.1l-2.5,3h0L219.3,329l0,0h0h0h11.1l0,0l-33.5,40.2h33.6v-6V329h0.1l0,0l32.3,38.7
		c0.4-0.1,0.8-0.1,1.2-0.2v-8.3V329h22.1v-26.6h0.1l0.1,0.1l13.5,16.3L299.8,315.3L299.8,315.3z"/>
	<polygon points="271.4,299.3 268.9,299.3 268.8,299.3 271.4,302.3 271.4,302.3 	"/>
	<polygon points="241.5,299.3 239,299.3 241.5,302.3 241.5,302.3 241.5,299.3 	"/>
	<polygon points="219.3,302.3 219.3,302.3 226.6,302.3 226.6,299.3 226.6,299.3 214.2,299.3 214.2,299.3 211.7,302.3 211.7,302.3 
		211.7,302.3 211.7,302.3 197.1,302.3 197.1,302.3 214.5,323.2 219.3,329 	"/>
	<polygon points="211.7,302.3 211.7,302.3 211.7,299.3 209.2,299.3 209.1,299.3 211.7,302.3 211.7,302.3 	"/>
	<polygon points="500.1,299.3 500.1,311.4 509.9,299.3 	"/>
	<polygon points="529.9,311.3 520.2,299.3 520.2,299.3 515,299.3 515,311.4 522.3,311.4 522.3,338.8 522.3,338.9 533.9,324.6 
		544.5,311.4 544.6,311.4 529.9,311.4 529.9,311.4 	"/>
	<polygon points="529.9,311.3 529.9,311.4 539.7,299.3 539.7,299.3 529.9,299.3 	"/>
	<path d="M643.2,322.6l-1.8-2.2l-7.3-9h-0.1v27.5v0H612h-0.1v34.6c2.7-0.9,5.3-1.8,7.7-2.6l9.6-11.9l14-17.3L643.2,322.6z"/>
	<path d="M578.3,380.5h9.2c7.1-1.7,13.8-3.6,20-5.5l-29.1-36h-0.1v0v35.1V380.5z"/>
	<polygon points="567.1,338.9 544.9,311.3 544.9,311.4 544.8,311.4 544.6,311.4 544.6,338.8 544.7,338.8 544.7,380.5 546.9,377.8 
		578.2,339 578.2,338.9 567.1,338.9 567.1,338.9 	"/>
	<path d="M448.1,344l-0.2,9.2l-0.2,8c0,0,0.3,0.3,0.4,0.3l0,0c0,0,0,0,0,0c0,0.1,0.1,0.1,0.2,0.2c0.1,0,0.1,0.1,0.2,0.1
		c0,0,8.2,4.2,21.3,9.1L448.1,344L448.1,344z"/>
	<polygon points="600.1,324.5 589.6,311.4 589.5,311.4 589.8,311.4 580,299.3 574.8,299.3 574.8,311.4 574.8,311.4 567.1,311.4 
		567.1,311.4 567.1,338.8 567.1,338.9 578.6,324.7 589.4,311.4 589.4,311.4 589.4,338.9 589.4,338.9 611.8,338.9 611.7,338.9 	"/>
	<polygon points="619.6,299.3 619.6,311.4 629.4,299.3 	"/>
	<polygon points="611.8,338.9 634,311.4 634,311.4 619.6,311.4 619.6,311.4 619.6,311.4 609.8,299.3 609.8,299.3 604.7,299.3 
		604.7,299.3 604.7,311.4 604.7,311.4 611.8,311.4 611.8,311.4 611.8,338.8 611.8,338.9 611.8,338.9 611.8,338.9 611.8,338.9 	"/>
	<polygon points="589.8,311.4 589.8,311.3 598.8,300.2 599.5,299.3 599.5,299.3 589.8,299.3 589.8,299.3 589.8,311.4 589.8,311.4 	
		"/>
	<polygon points="559.9,299.3 559.9,311.4 559.9,311.4 563.6,306.9 569.7,299.3 	"/>
	<polygon points="559.9,311.4 559.9,311.4 559.9,311.4 559.9,311.4 559.9,311.4 550.2,299.3 550.1,299.3 544.9,299.3 544.9,299.3 
		544.9,311.3 544.9,311.3 545,311.3 545,311.3 545,311.4 545,311.4 559.9,311.4 	"/>
	<path d="M522.3,338.9L522.3,338.9L522.3,338.9l-22.2-27.5h0h0l0,0l-9.8-12.1h0h-5.1h0v12.1h-7.4v27.5v0l0,0l0.1-0.1l22.1-27.5h0.1
		v0v17v10.5h-22.3l0,0l-22.2-27.5l0,0h14.7h0h0h0l0,0l0,0l-9.7-12h-0.1h-5.1v12h0h-6.7v0l0,8.4l0,0.1l6.7-8.3l0,0h0.1v27.5v0h22h0.1
		v26.4v8.3c1.4,0.5,2.9,1,4.3,1.5L511,339l0,0l0,0h0.1v0.2v35.3v6h33.6l-33.5-41.5H522.3z"/>
	<polygon points="480,299.3 470.3,299.3 470.3,311.3 470.3,311.4 480,299.3 	"/>
</g>
</svg>
