<?xml version="1.0" encoding="utf-8"?>
<!-- Generator: Adobe Illustrator 25.3.0, SVG Export Plug-In . SVG Version: 6.00 Build 0)  -->
<svg version="1.1" id="Layer_1" xmlns="http://www.w3.org/2000/svg" xmlns:xlink="http://www.w3.org/1999/xlink" x="0px" y="0px"
	 viewBox="0 0 750.2 400.1" style="enable-background:new 0 0 750.2 400.1;" xml:space="preserve">
<g>
	<path d="M136.4,269.3c35.1,1.2,84.4,13.2,98.6-0.6c14.2-13.8-1.5-15,38.9-15c12.6,0,20.7-3,25.8-6.9v-0.4c-2.1-5.5-3.9-11-5.5-16.3
		c-24.8,8-59.6,7.6-71.9,17.1c-11.9,9.1-86.8,6.7-118,9.1l0,17.3C111.6,270.9,121.6,268.8,136.4,269.3z"/>
	<path d="M299.7,279.2l0-7.3v-4.3c-10.6,0.9-25,3.8-32.7,8c-12.3,6.6-41.1,22.8-87.7,18c-40.8-4.2-49.5-15.3-74.9-0.3v15.5
		c0.3-0.1,0.6-0.2,0.8-0.3v0c1.7-0.7,3.6-1.4,5.7-2.2h0c1.1-0.4,2.2-0.8,3.4-1.3c15.1-5.9,30.2-3,49,1.3h-0.1
		c6.6,1.5,13.6,3.1,21.2,4.6c0.7,0.1,1.3,0.3,2,0.4c0.7,0.1,1.4,0.3,2.1,0.4c1,0.2,2.1,0.4,3.1,0.5c0.5,0.1,0.9,0.2,1.4,0.2
		c1.5,0.3,3.1,0.5,4.6,0.7c0.4,0.1,0.8,0.1,1.2,0.2c1.7,0.2,3.4,0.5,5.2,0.7c0.6,0.1,1.2,0.1,1.9,0.2c0.5,0.1,1.1,0.1,1.6,0.2
		c0.8,0.1,1.5,0.1,2.3,0.1c0.4,0,0.7,0,1.1,0.1c0.8,0,1.5,0,2.3,0.1c0.3,0,0.6,0,0.9,0c0.8,0,1.5,0,2.3,0c0.3,0,0.5,0,0.8,0
		c0.8,0,1.5-0.1,2.3-0.1c0.2,0,0.5,0,0.7-0.1c0.8-0.1,1.5-0.1,2.3-0.2c0.2,0,0.4,0,0.5-0.1c0.8-0.1,1.5-0.2,2.3-0.3
		c0.1,0,0.3,0,0.4-0.1c0.8-0.1,1.5-0.3,2.3-0.4c0.1,0,0.1,0,0.2,0c0.8-0.2,1.5-0.4,2.3-0.6c0.2-0.1,0.5-0.1,0.7-0.2
		c0.5-0.1,1-0.3,1.5-0.4c0.3-0.1,0.5-0.2,0.8-0.2c0.5-0.1,0.9-0.3,1.4-0.5c0.3-0.1,0.5-0.2,0.8-0.3c0.5-0.2,0.9-0.3,1.3-0.5
		c0.2-0.1,0.5-0.2,0.7-0.3c0.5-0.2,1.1-0.4,1.6-0.7c0.2-0.1,0.4-0.2,0.6-0.3c0.5-0.2,1.1-0.5,1.6-0.8c0.3-0.1,0.6-0.3,0.8-0.4
		c0.3-0.2,0.6-0.3,1-0.5c0.3-0.2,0.6-0.3,0.9-0.5c0.3-0.2,0.5-0.3,0.8-0.5c0.2-0.1,0.4-0.2,0.5-0.3h0c11.7-7,19.9-16.7,29.8-22.9
		C285.3,277.2,293.9,277.6,299.7,279.2z"/>
	<path d="M164.7,178.8c-9.4-4.6-27.9-3.3-47.2-2.8c0,5.6-0.2,11.5-0.7,17.9c36.3-6.4,22-2.2,38.4,8.4c17.2,11,66.4-9.8,102.7-17.4
		c12.2-2.6,21.6-2.9,28.9-2.4c-0.2-5.8,0-11.2,0.2-16.2C253.2,170.2,178.5,185.4,164.7,178.8z"/>
	<path d="M197.4,231.7c38.8-12.2,60.5-30.3,86.5-25.4c1.9,0.3,3.6,0.7,5.2,1c-0.9-5.4-1.5-10.6-1.8-15.7
		c-24.3-7.3-32.2,4.5-69.4,15.5c-44.9,13.3-76.1,2.7-89.5-1.5c-3.4-1.1-7.9-1.7-12.7-2.1c-0.4,3-0.9,6.1-1.5,9.2
		c2.4,0.4,4.9,1.1,7.7,2.1C142.1,222.6,158.6,243.8,197.4,231.7z"/>
	<path d="M299.7,260.8v-7.1c-23.7,11.6-54.9,13.9-57.4,17.8C240.1,274.9,279.2,266.4,299.7,260.8z"/>
	<path d="M105.5,243.6c23.2,0.8,41.7-2.3,40.1-4.2c-1.6-1.9-23.8-0.1-37-4.6C107.6,237.7,106.6,240.7,105.5,243.6z"/>
	<path d="M111.4,131.6c0.5,1.5,2.7,8.7,4.3,20c6.6-0.7,14.7-0.5,29.1,1.9c33.9,5.6,58.7,1.1,77.9-2.3c9.5-1.7,38.8-1.2,65.9-0.2
		c1.8-12.3,4.3-19.6,4.4-19.8l0.1-0.3l0.1,0c0-0.2,0-0.3-0.1-0.5c-23.4,2.6-65.5,6.5-67.1,1.6c-1.5-4.6,39.2-27.7,65.1-41.9
		c-0.6-7.3-1.4-14.2-2.5-20c-14.3,9.9-54.8,36.9-75,41.5c-24.8,5.6-40.7,22.6-66.6,24.8C132.1,137.7,119.4,134.6,111.4,131.6z"/>
	<path d="M112.8,93.3c-0.5,6.7-0.8,13.7-1.1,20.1c16.3,3.5,24.7,3.3,36.5,0.5c12.3-2.9,24.1-9,35.1-14.9c-4.5-1.9-8.4-4.5-11.7-7.5
		c-6.6,2.7-13.3,4.2-20.2,4.2C138.6,95.8,125.2,94.4,112.8,93.3z"/>
	<path d="M282.1,58.1l-30.5-9.2c-0.5-0.1-0.9-0.1-0.9-0.1c0,1.9-0.3,5.7-0.9,9.1c-0.7,4.5-1.9,9.4-3.8,14.3c5-2,8.4-3.3,8.4-3.3
		S273.6,65,282.1,58.1z"/>
	<path d="M113.8,83.4c13.6-0.6,30-8.3,43.3-16.2c-0.8-2.8-1.5-5.5-1.9-8.2c-0.2-1.2-0.4-2.7-0.6-4.2c-12.3,3.5-26.7,7.8-36.7,7.2
		c-0.1,0.3-0.2,0.6-0.4,0.9c-0.6,1.5-1.1,3.4-1.6,5.8C115.1,72.9,114.4,78,113.8,83.4z"/>
	<path d="M274.7,116.2c0,1.7,8.1,2.8,18,3.1c-0.1-2.8-0.2-5.8-0.3-8.8c0-0.4,0-0.8-0.1-1.2C278.6,112.6,274.7,112.8,274.7,116.2z"/>
	<path d="M601.6,157c-35.1-1.2-84.4-13.2-98.6,0.6c-14.2,13.8,1.5,15-38.9,15c-1.6,0-3,0-4.4,0.1c0.1,6,0,12.6-0.6,19.6
		c22.1-4.4,46.6-5.6,56.6-13.2c11.6-8.7,83.2-6.7,115.6-8.8c0.2-6.4,0.8-12.1,1.4-17.1C625.6,155.7,615.8,157.5,601.6,157z"/>
	<path d="M534.1,112.4c-40.4-4.8-52.7,19.2-71.2,30.6c-2,1.2-4,2.2-5.9,3c0.5,2.8,1,5.9,1.4,9.4c4.9-1.3,9.4-2.8,12.7-4.6
		c12.3-6.6,41-22.8,87.6-18c43,4.4,50.4,16.5,79.3-2.4c-0.1-1.5-0.2-3-0.3-4.6v-0.1v-1.1c0-0.2,0-0.5,0-0.7c-0.1-2.4-0.2-5-0.3-7.8
		c-3.4,1.3-7.8,3-13.6,5.3C599.1,131,574.5,117.2,534.1,112.4z"/>
	<path d="M573.3,247.7c13.1,6.3,43.9,1.4,69.8,2.9v-7.2c-1.6-4.3-3-8.6-4.2-12.7c-3.8-0.1-8.2,0.3-13.1,1.1c-42,7.4-25.9,3.3-43-7.7
		c-17.2-11-66.4,9.8-102.7,17.4c-14.2,3-24.4,3-32.3,2c-0.1,0.2-0.1,0.3-0.2,0.5l0,16.4C479.6,257.4,559.1,240.8,573.3,247.7z"/>
	<path d="M450.7,234.9c24.3,7.2,32.1-4.6,69.4-15.6c44.9-13.3,76.1-2.7,89.5,1.5c6.7,2.1,17.7,2.7,27.2,2.3
		c-0.8-3.3-1.5-6.5-2.1-9.6c-4.9,1.1-11.1,1.1-18.5-1.8c-20.3-7.8-36.8-29-75.6-16.9c-38.5,12-60.2,29.8-85.9,25.5
		C453.6,225.1,452.3,229.9,450.7,234.9z"/>
	<path d="M459,160.5c0.1,1.4,0.2,2.9,0.3,4.4c18-5.2,34.6-7.1,36.4-9.9C497.3,152.6,477.7,156.2,459,160.5z"/>
	<path d="M465.6,111.6c-3.8,4.8-7.9,8.3-11.9,10.7c0,0.6,0,1.2-0.1,1.7c0,0.3,0,0.5,0,0.8v1v0.2c0,0.1,0,0.2,0,0.3
		c-0.1,1.7-0.2,3.2-0.3,4.7h0.1l0.1,0.3c0,0.1,0.5,1.5,1.2,4c14.7-7.2,32.6-25.6,48.5-37c18.5-13.2,51.4,1.2,94.5,4.2
		c25.9,1.8,33.1,0.6,38.8-5.2c-0.1-1.2-0.1-2.3-0.2-3.5c-0.6-7.9-1.4-15.6-2.5-21.8c-0.2-0.9-0.4-1.8-0.5-2.6
		c-18.4,5.9-14.4,25.3-25.2,24.8c-12.3-0.6-62.3-15.6-96.6-16.2C477.2,77.5,482,90.7,465.6,111.6z"/>
	<path d="M559.4,71.7c35.6,3,45.7,11,41.8,0.6c-1.4-3.6-22.6-9.6-52.7-10.2c-21.6-0.4-24.2-7.4-37.7-14.7c-4,0.2-7.4,0.5-9.7,0.6
		l-1.6,0.2l-27.7,8.3c2.9,1.7,6.4,2.8,10.2,2.7C501.9,58.5,523.8,68.7,559.4,71.7z"/>
	<path d="M465.9,58.3l-3.3,1c-0.3,0.4-0.4,0.6-0.5,0.8c-2,2.7-3.6,8-4.7,14.5c-0.9,5.1-1.6,11.1-2.1,17.3
		C464.8,79.3,469,66.5,465.9,58.3z"/>
	<path d="M592.4,187c1.8,2,26.6-0.2,39.4,5.4c-0.3-3.3-0.4-6.6-0.5-9.7C608.7,182,590.8,185,592.4,187z"/>
	<path d="M643.1,271.7L643.1,271.7l0-0.3c-17.4,2-20.4,6.5-49.9,1.6c-33.9-5.6-58.7-1.1-77.9,2.3c-9.7,1.7-39.9,1.1-67.6,0.1v20.4
		c23.8-2.6,62.6-6,64.2-1.3c0.6,1.8-4.9,6.2-13.4,11.8h-0.1c-13.4,8.8-34.2,20.6-50.1,29.2l0,0c-0.2,0.1-0.4,0.2-0.6,0.3v17.3
		c0,0,0.1,0,0.2,0l-0.1,4.1c12.8-8.9,55.5-37.8,76.5-42.6c8.3-1.9,15.6-5,22.6-8.5h-0.1c14-6.9,26.8-14.9,44.1-16.4
		c26-2.3,45.2,9,45.2,9l7.2-0.7l0-26.2v-0.1h-0.2V271.7z"/>
	<path d="M575.1,362.8c-16.3,10.2-20.9,12.9-18.1,13.4c0.1,0,0.2,0,0.4,0c0,0,0,0,0,0c0.3,0,0.6,0,1,0c0.1,0,0.1,0,0.2,0
		c0,0,0.1,0,0.1,0c1.5,0,3.6-0.2,6.2-0.4c7.1-0.5,19.5-4.7,31.7-7.9c0.4-0.1,0.8-0.2,1.2-0.3c0.1,0,0.2,0,0.3-0.1
		c4.5-1.2,9.1-2.1,13.2-2.7c0.1,0,0.2,0,0.3,0c0.4-0.1,0.9-0.1,1.3-0.2c0.2,0,0.4,0,0.6-0.1c2.9-0.3,5.6-0.3,8-0.1
		c6.5,0.7,12.4,0.1,17-1c3-1.3,4.7-2.1,4.7-2.1v-3.3h0l0-8.6c-3.8-3.8-8.6-5.8-13.9-6.3C612.8,341.5,590.9,353,575.1,362.8z"/>
	<path d="M459.5,60.4c0,0.7,0,1.5,0,2.2c0.4-1,0.9-1.9,1.4-2.6L459.5,60.4z"/>
	<path d="M452.2,131.1c0,0,0-0.1,0-0.1c0.1-1.6,0.2-3.2,0.3-5v-1.2c0.2-7,0.5-15.1,1-23.1c0.4-6.2,0.8-12.4,1.5-18.1
		c-2.6-1.9-7.2-8.8-12.5-18l-16.2,4.9c4.5,9.5,8,18.4,9.3,25.1c2.5,13.6,8.4,24.7,13.5,36.2L452.2,131.1z"/>
	<path d="M403,77.6l-18.9,5.8l0,0l1.9,8.3c11.1,14.6,23.5,31,28.7,48l12.2-2.8c-4.6-10.5-9.9-20.5-13.4-29.7
		C410.9,99.9,406.7,88.3,403,77.6z"/>
	<path d="M109.9,124.9c0.6-16.5,1.3-41.2,4.6-56.4c0.9-4.2,1.3-6.4,2.7-8.8l-2.2,0.7c-1,18.2-8.8,38.8-12.1,67
		c-0.2,1.9-0.4,3.8-0.5,5.6l7.1-1.7C109.7,129.3,109.8,127.2,109.9,124.9z"/>
	<path d="M69,140.8l14.4-3.4c0-18,7-41.8,9.4-70.3l-11.1,3.4C77.6,89,70.9,117.2,69,140.8z"/>
	<path d="M52.6,113c-0.2,7.9-1.2,13.2-2.7,17.5l3.1,14.1l2.2-0.5c2.7-11.8,5.7-25.4,7-42c1-11.4,2.4-20.2,3.6-26.7l-9.8,3
		C54.3,87.2,52.8,99.2,52.6,113z"/>
	<path d="M293.8,124.6c0.1,2.4,0.2,4.6,0.4,6.5l10.5,2.5c-2.7-10.1-7.2-18.8-11.6-27.4C293.4,112.8,293.6,119.1,293.8,124.6z"/>
	<path d="M321.6,69.8l-1.7-0.5L302,63.8c0.4,2.5,0.9,5,1.5,7.7c4.5,19.2,16.9,37.3,23.7,53.1c1.8,4.2,4.1,9.8,6.6,15.9l18.5,4.4
		l0.2,0l1.7-7.7c-15.3-18.5-32.5-39.9-32.5-62.3C321.5,73.2,321.5,71.5,321.6,69.8z"/>
	<path d="M348.9,78.1c1.6,2.8,3.2,5.5,4.8,8.1c3.8,6.2,6.6,10.6,8.6,13.7l2.5-11l0.3-1.6c-0.4-1.5-0.8-3-1.2-4.6L348.9,78.1z"/>
	<path d="M636.5,85.3c0.7,7,1.2,14.7,1.6,22.1C638.9,98.9,638.2,91.6,636.5,85.3z"/>
	<path d="M635.6,60.8c6,7.8,12.2,15.6,17,23c7.8,11.9,4.5,28.9-0.2,50.5l12.7,3c3.6-15,6.7-30.9,7.6-44.4c0.6-9.9-0.1-16.6-1.9-21.5
		L635.6,60.8z"/>
	<path d="M691.3,77.6c-3.2,16.3-10.6,35.2-14.2,62.5l8.9,2.1c0.4-3.7,0.8-7.6,1-11.6c1.6-26.4,11.8-23.9,21.8-47.6L691.3,77.6z"/>
	<path d="M272.4,314.8c2.8-3.5,5.7-6.3,8.6-8.5h0c6.6-4.9,13.4-7,18.8-7.8l0-10.2c-2.6-0.7-5.7-0.8-9.5,0
		c-15.8,3.6-37,26.4-55.5,39.5c-18.5,13.2-51.4-1.2-94.5-4.2c-21.8-1.5-30.3-0.9-35.9,2.8v26.6c0,0,0.1,0,0.1,0l-0.1,3.5l0,0.4
		c18.8-5.8,14.7-25.4,25.6-24.9c12.3,0.6,62.3,15.6,96.6,16.2S256,335.8,272.4,314.8z"/>
	<path d="M183.2,355.2c-1.6-0.2-3.1-0.3-4.7-0.5c-35.5-3-45.6-11-41.7-0.6c0.4,0.9,2,2,4.6,3c0.1,0,0.2,0.1,0.3,0.1
		c0.2,0.1,0.5,0.2,0.7,0.3c2.9,1.1,6.7,2.1,11.4,3.1c0.1,0,0.2,0,0.3,0.1c0.4,0.1,0.7,0.1,1.1,0.2c0.3,0,0.5,0.1,0.8,0.1
		c0.2,0,0.4,0.1,0.6,0.1c0.4,0.1,0.9,0.2,1.3,0.2c0,0,0,0,0.1,0c5.9,1,12.9,1.9,20.6,2.4c0.2,0,0.4,0,0.7,0c0.6,0,1.3,0.1,1.9,0.1
		c2.7,0.1,5.4,0.3,8.3,0.3c0,0,0.1,0,0.1,0c2.9,0.1,5.5,0.3,7.8,0.5c9.5,1.2,14.4,4.1,19.7,7.8c15.1-1,30.7-2.8,44.3-4.7
		c-1.7-0.5-3.5-0.7-5.4-0.6C237,367.9,216.2,358.6,183.2,355.2z"/>
	<path d="M287.3,329c-0.2,0.2-0.4,0.4-0.5,0.6c-0.7,0.7-1.3,1.5-1.9,2.2c-0.2,0.2-0.3,0.4-0.5,0.6c-0.5,0.6-0.9,1.2-1.4,1.7
		c-0.2,0.2-0.3,0.4-0.5,0.7c-0.6,0.7-1.1,1.5-1.6,2.2c-0.1,0.1-0.2,0.2-0.2,0.3c-0.5,0.6-0.9,1.3-1.3,1.9c-0.1,0.2-0.3,0.4-0.4,0.7
		c-0.4,0.6-0.8,1.2-1.1,1.9c-0.1,0.1-0.2,0.3-0.2,0.4c-3.3,5.6-5.4,11.1-6.2,15.9c0,0,0,0,0.1,0c-0.5,3-0.5,5.9,0.1,8.3
		c2.7-0.4,5.3-0.8,7.8-1.2c5.6-7.9,14.6-21.3,20.6-31.8l0-15.6C296.7,319.7,292.3,323.5,287.3,329z"/>
	<path d="M448.6,316.5c11.4-2.7,14.7-3.1,14.7-6.3c0-0.1,0-0.2-0.1-0.3c-0.7-1.5-7.2-2.4-15.5-2.7v9.4
		C448,316.5,448.3,316.5,448.6,316.5L448.6,316.5z"/>
	<path d="M589.8,312.5c-0.2,0.1-0.5,0.1-0.7,0.2c-18.9,4.6-36.8,16.8-52.4,23.5c-6.8,2.9-17.5,7.3-27.5,11.3
		c-13.4,5.4-25.6,10.2-25.6,10.2s-15.6,3-24.9,8.7c9.5,4.1,25,10,42.8,14.3c13.2-8.4,29.3-24.5,46.9-36.2c0,0,0,0,0.1,0
		c0.8-0.5,1.6-1.1,2.4-1.6c0.4-0.2,0.8-0.5,1.2-0.7c0.4-0.3,0.9-0.5,1.3-0.8c0.5-0.3,1.1-0.6,1.6-0.9c0.3-0.2,0.6-0.3,0.9-0.5
		c0.6-0.4,1.3-0.7,1.9-1c0.2-0.1,0.4-0.2,0.5-0.3c9.1-4.8,18.5-8,28-8c19.5,0,40.7,3.3,56.8,3.5V334c0,0,0,0,0,0l0-17.1
		C614.7,309.6,605.1,308.9,589.8,312.5z"/>
</g>
</svg>
