<?xml version="1.0" encoding="utf-8"?>
<!-- Generator: Adobe Illustrator 25.3.0, SVG Export Plug-In . SVG Version: 6.00 Build 0)  -->
<svg version="1.1" id="Layer_1" xmlns="http://www.w3.org/2000/svg" xmlns:xlink="http://www.w3.org/1999/xlink" x="0px" y="0px"
	 viewBox="0 0 750.2 400.1" style="enable-background:new 0 0 750.2 400.1;" xml:space="preserve">
<g>
	<path d="M113.2,138.2C113.2,138.2,113.2,138.2,113.2,138.2l3.6,0c0,0,0,0,0,0L113.2,138.2z"/>
	<path d="M230.8,138l57.6,0.1c0,0.1,0,0.1,0,0.2l-57.5,0.1l-73.5-0.1l73.5,0.1l60.1-0.1c0-0.1,0-0.1,0.1-0.2L230.8,138l-86.8,0.1
		L230.8,138z"/>
	<path d="M230.8,128.2l57.2,0.1c0,0.1,0,0.1,0,0.2l5,0c0-0.1,0-0.1,0-0.2L230.8,128.2l-119.7,0.2c0,0,0,0,0,0l4.9,0c0,0,0,0,0,0
		L230.8,128.2z"/>
	<polygon points="230.8,128.6 196.5,128.5 230.8,128.6 271.9,128.5 	"/>
	<path d="M230.8,118.5l55.2,0.1c0,0.1,0,0.1,0,0.2l6.6,0c0-0.1,0-0.1,0-0.2L230.8,118.5l-119.2,0.1l6.6,0c0,0,0,0,0,0L230.8,118.5z"
		/>
	<path d="M230.8,108.7l52.6,0.1c0,0.1,0,0.1,0.1,0.2l8.8,0c0-0.1,0-0.1,0-0.2L230.8,108.7l-118.9,0.1c0,0,0,0,0,0l9,0L230.8,108.7z"
		/>
	<path d="M182,99.1l1.4,0c-0.2-0.1-0.3-0.1-0.5-0.2L112.5,99c0,0,0,0,0,0l15,0l54.2-0.1C181.8,99,181.9,99.1,182,99.1z"/>
	<path d="M253.3,99.2h38.5c0,0,0-0.1,0-0.1c0,0,0-0.1,0-0.1l-11.7,0c0,0.1,0,0.1,0.1,0.2L253.3,99.2z"/>
	<path d="M221.9,98.9c-0.2,0.1-0.5,0.2-0.7,0.3h1.5c0.2-0.1,0.4-0.2,0.7-0.3H221.9z"/>
	<path d="M168.4,89.2c0,0.1,0.1,0.1,0.1,0.2l-39.9-0.1c0,0,0,0,0,0l-15.5,0c0,0,0,0,0,0l56.3,0.1c-0.1-0.1-0.1-0.1-0.2-0.2
		L168.4,89.2z"/>
	<path d="M252.3,89.1l-16.6,0c-0.1,0.1-0.2,0.2-0.3,0.3l0.9,0c0.1-0.1,0.2-0.2,0.3-0.3L252.3,89.1z"/>
	<path d="M291.1,89.2l-15.7,0c0,0.1,0.1,0.1,0.1,0.2l15.6,0C291.1,89.3,291.1,89.3,291.1,89.2C291.1,89.2,291.1,89.2,291.1,89.2z"/>
	<path d="M242.8,79.3c-0.1,0.1-0.1,0.2-0.2,0.3l0.8,0c0-0.1,0.1-0.2,0.1-0.3l25.2,0c0,0.1,0.1,0.1,0.1,0.2l21.2,0c0,0,0,0,0,0
		c0,0,0,0,0,0c0,0,0,0,0-0.1L242.8,79.3z"/>
	<path d="M162.3,79.6c0-0.1-0.1-0.1-0.1-0.2l-5.6,0l4.8,0c0,0.1,0.1,0.1,0.1,0.2l-26.2,0c0,0,0-0.1,0.1-0.1l-21.2,0c0,0,0,0,0,0
		L162.3,79.6z"/>
	<path d="M247,69.5c0,0.1-0.1,0.2-0.1,0.3l0.8,0c0-0.1,0.1-0.2,0.1-0.2l9.7,0c0.1,0.1,0.2,0.1,0.3,0.2l30.8-0.1c0,0,0,0,0,0
		c0,0,0-0.1,0-0.1L247,69.5z"/>
	<path d="M157.9,69.6l-42.2,0.1c0,0,0,0,0,0l42.3,0.1C158,69.7,157.9,69.7,157.9,69.6z M146.8,69.8c0.1,0,0.1-0.1,0.2-0.1l10.2,0
		c0,0.1,0,0.1,0,0.2L146.8,69.8z"/>
	<path d="M119,59.9h36.3c0,0,0-0.1,0-0.1L119,59.9C119.1,59.8,119.1,59.9,119,59.9z"/>
	<path d="M249.5,59.8c0,0.1,0,0.2-0.1,0.2c0,0,0,0,0,0.1h36.2c-0.1-0.1-0.1-0.2-0.2-0.3H249.5z"/>
	<path d="M154.3,50.2C154.3,50.2,154.3,50.1,154.3,50.2l-4-0.1l-0.3,0.1H154.3z"/>
	<path d="M250.7,50c0,0.1,0,0.2,0,0.3h5.6l-1-0.3H250.7z"/>
	<path d="M243.6,361.8h-3.3H243.6C243.6,361.8,243.6,361.8,243.6,361.8z"/>
	<polygon points="111.3,352.2 104.4,352.2 144.9,352.2 	"/>
	<polygon points="241.8,352 230.8,352 224.6,352 230.8,352 	"/>
	<polygon points="263.8,352.3 299.9,352.3 299.9,352.3 	"/>
	<polygon points="230.8,342.6 106.4,342.4 104.4,342.4 230.8,342.6 299.9,342.5 299.9,342.5 	"/>
	<polygon points="230.8,342.2 299.9,342.3 299.9,342.3 230.8,342.2 177.7,342.3 	"/>
	<polygon points="230.8,332.4 299.9,332.5 299.9,332.5 230.8,332.4 130.7,332.6 	"/>
	<polygon points="230.8,332.8 131.9,332.6 230.8,332.8 299.9,332.7 299.9,332.7 	"/>
	<polygon points="104.4,332.6 105,332.6 105,332.6 	"/>
	<polygon points="230.8,322.6 299.9,322.7 299.9,322.7 230.8,322.6 104.4,322.8 106.5,322.8 	"/>
	<polygon points="230.8,323 178.6,322.9 230.8,323 299.9,322.9 299.9,322.9 	"/>
	<polygon points="263.5,312.9 299.5,312.9 299.5,313.1 299.8,313.1 299.8,312.9 	"/>
	<polygon points="145.4,313 104.4,313 111.4,313 	"/>
	<polygon points="230.8,313.2 225.4,313.2 230.8,313.2 240.2,313.2 	"/>
	<polygon points="205.4,303.4 105.2,303.3 105.2,303.2 174,303.1 104.4,303.2 104.4,303.3 	"/>
	<rect x="299.5" y="303.2" transform="matrix(1 -3.045053e-03 3.045053e-03 1 -0.922 0.9139)" width="0.2" height="0.1"/>
	<rect x="299.6" y="293.4" transform="matrix(1 -3.046908e-03 3.046908e-03 1 -0.8927 0.9144)" width="0.2" height="0.1"/>
	<polygon points="176.9,293.6 105.2,293.5 105.2,293.4 202.7,293.3 104.4,293.4 104.4,293.5 	"/>
	<polygon points="262.4,283.8 299.7,283.8 299.7,283.6 299.6,283.6 299.6,283.8 	"/>
	<polygon points="111.9,283.7 104.4,283.7 148.4,283.7 	"/>
	<polygon points="231.7,283.5 230.8,283.5 230.1,283.5 230.8,283.5 	"/>
	<polygon points="104.4,273.9 230.8,274.1 299.7,274 299.7,273.8 230.8,273.7 183.2,273.8 230.8,273.7 299.6,273.8 299.6,274 
		230.8,274.1 107,273.9 	"/>
	<polygon points="230.8,263.9 299.6,264 299.6,264.2 230.8,264.3 126.2,264.1 230.8,264.3 299.7,264.2 299.7,264 230.8,263.9 
		136.4,264 	"/>
	<polygon points="104.4,264.1 105.2,264.1 105.2,264.1 	"/>
	<polygon points="230.8,254.1 299.6,254.2 299.6,254.4 230.8,254.5 172.9,254.4 230.8,254.5 299.7,254.4 299.7,254.2 230.8,254.1 
		104.4,254.3 106,254.3 	"/>
	<polygon points="105.2,244.5 105.2,244.5 110.8,244.5 142.2,244.5 	"/>
	<path d="M299,244.4C299,244.4,299,244.4,299,244.4l-34.1,0L299,244.4z"/>
	<polygon points="219.8,244.7 230.8,244.7 249.9,244.7 230.8,244.7 	"/>
	<polygon points="170.8,234.6 108.6,234.7 108.6,234.7 115.7,234.7 	"/>
	<path d="M111.4,225l69,0.1l-68.8-0.1c0,0,0,0,0,0l87.8-0.1l-87.9,0.1C111.4,224.9,111.4,225,111.4,225z"/>
	<path d="M292.8,225c0,0,0-0.1,0-0.1l0,0C292.8,224.9,292.8,225,292.8,225L292.8,225z"/>
	<path d="M116.2,215.7l-2.6,0c0,0,0,0,0,0l60,0L116.2,215.7z"/>
	<path d="M290.7,215.7c0,0,0-0.1,0-0.1l-0.2,0c0,0,0,0.1,0,0.1L290.7,215.7z"/>
	<path d="M115.9,205.9C115.9,205.9,115.9,205.9,115.9,205.9l-0.6,0c0,0,0,0,0,0l29.6,0L115.9,205.9z"/>
	<path d="M263.8,206h25.2c0-0.1,0-0.1,0-0.2l-0.3,0c0,0.1,0,0.1,0,0.2L263.8,206z"/>
	<polygon points="242.4,205.7 230.8,205.7 224.1,205.7 230.8,205.7 	"/>
	<path d="M116.5,196.1l114.3,0.2l56.9-0.1c0-0.1,0-0.2,0-0.2l-56.9-0.1l-53.5,0.1l53.5-0.1l56.3,0.1c0,0.1,0,0.1,0,0.2l-56.3,0.1
		l-113.4-0.1c0,0,0,0,0,0L116.5,196.1C116.5,196.1,116.5,196.1,116.5,196.1z"/>
	<path d="M117.3,186.3C117.3,186.3,117.3,186.3,117.3,186.3l1.2,0c0,0,0,0,0,0L117.3,186.3z"/>
	<path d="M230.8,186.1l55.3,0.1c0,0.1,0,0.1,0,0.2l-55.3,0.1l-99.3-0.1l99.3,0.2l56.2-0.1c0-0.1,0-0.2,0-0.2L230.8,186.1l-100.5,0.1
		L230.8,186.1z"/>
	<path d="M230.8,176.3l54.8,0.1c0,0.1,0,0.1,0,0.2l-54.8,0.1l-52.4-0.1l52.4,0.1l55.9-0.1c0-0.1,0-0.2,0-0.2L230.8,176.3l-113.3,0.1
		c0,0,0,0,0,0l1.6,0c0,0,0,0,0,0L230.8,176.3z"/>
	<path d="M285.6,166.6c0,0.1,0,0.1,0,0.2l1.4,0c0-0.1,0-0.1,0-0.2h-23.5L285.6,166.6z"/>
	<polygon points="225.6,166.9 230.8,166.9 239.8,166.9 230.8,166.9 	"/>
	<path d="M145.6,166.7l-28.4,0c0,0,0,0,0,0l2,0c0,0,0,0,0,0L145.6,166.7z"/>
	<path d="M287.9,157c0,0,0-0.1,0-0.1l-1.8,0c0,0,0,0.1,0,0.1L287.9,157z"/>
	<path d="M205.5,157.1l-86.6-0.1c0,0,0,0,0-0.1l55.3-0.1l-57.8,0c0,0,0,0.1,0,0.1L205.5,157.1z"/>
	<path d="M289.3,147l-58.4-0.1L115,147.1c0,0,0,0,0,0l7.3,0l108.5-0.1l56.2,0.1c0,0.1,0,0.1,0,0.2l2.2,0
		C289.2,147.1,289.3,147.1,289.3,147z"/>
	<polygon points="176.1,142.6 176.1,142.6 192.4,142.6 	"/>
	<polygon points="245.6,142.7 245.4,142.5 241.9,142.5 245.4,142.5 	"/>
	<polygon points="177,143.4 176.4,142.8 177,143.4 230.8,143.5 246.5,143.5 246.4,143.5 230.8,143.5 	"/>
	<path d="M290.1,142.7h-2.5c0,0.2-0.1,0.4-0.1,0.6l-4.8,0l-0.8-0.7h-0.1l0.9,0.7h7.1C290,143.2,290,142.9,290.1,142.7z"/>
	<path d="M114.3,143.2l16.9,0.1h11.3l0,0l-11.2,0l-13.7-0.1c0-0.1,0-0.2,0-0.3l13.8-0.1l10.5,0l0,0h-10.6l-17,0.1
		C114.2,142.9,114.3,143.1,114.3,143.2z"/>
	<path d="M115.8,133.1l-3.9,0c0,0.1,0,0.1,0.1,0.2l18.9,0.2l-0.1-0.1l-14.9-0.1C115.8,133.2,115.8,133.2,115.8,133.1z"/>
	<polygon points="234.9,133.7 233.8,133.7 234.9,133.7 233.8,132.8 	"/>
	<polygon points="164.5,132.9 164.7,133.1 164.5,132.9 	"/>
	<path d="M289.4,133.3c0,0.1,0,0.2-0.1,0.2l2.9,0c0.1-0.3,0.1-0.5,0.2-0.7l-22.4-0.1l0.1,0.1l19.1,0
		C289.3,133,289.4,133.1,289.4,133.3z"/>
	<polygon points="271.1,133.6 271.1,133.6 270.6,133.2 	"/>
	<path d="M287.1,123.7l5.7,0c0-0.2,0-0.5,0-0.7l-34.3-0.1l0.1,0.1L287,123C287,123.3,287.1,123.5,287.1,123.7z"/>
	<polygon points="222,122.9 197.5,123 222,122.9 	"/>
	<polygon points="157,123.7 164.5,123.8 220.7,123.9 164.5,123.8 	"/>
	<polygon points="152.8,123.1 153.4,123.1 152.8,123.1 153.2,123.4 	"/>
	<path d="M117.2,123.3l-5.8,0.1c0,0.1,0,0.1,0,0.2l7.7,0.1l-0.1-0.1l-1.8,0C117.1,123.5,117.2,123.4,117.2,123.3z"/>
	<path d="M247.9,114.1L247.9,114.1l44.6-0.1c0,0,0,0,0-0.1c0-0.2,0-0.4,0-0.6l-7.8,0c0.1,0.2,0.1,0.5,0.2,0.7L247.9,114.1z"/>
	<polygon points="246.8,113.2 247.5,113.8 246.8,113.2 	"/>
	<polygon points="141.2,113.3 141.3,113.3 158.6,113.3 	"/>
	<polygon points="144.3,113.9 164.5,114 211.5,114.1 211.5,114.1 164.5,114 	"/>
	<polygon points="129.6,103.6 129.6,103.6 129.7,103.6 	"/>
	<polygon points="131.3,104.1 130.2,104.1 130.2,104.1 131.3,104.1 164.5,104.2 199.8,104.3 199.8,104.3 164.5,104.2 	"/>
	<polygon points="199.2,103.7 198.8,103.4 170,103.5 198.8,103.4 	"/>
	<path d="M281.8,103.5c0.1,0.2,0.2,0.5,0.3,0.7l-0.8,0l10.9,0c0-0.2,0-0.5,0-0.7L281.8,103.5z"/>
	<polygon points="235.1,103.4 235.4,103.7 235.1,103.4 	"/>
	<path d="M175.1,94.4c-0.3-0.2-0.6-0.5-0.9-0.7h-1c0.3,0.2,0.6,0.5,0.9,0.7H175.1z"/>
	<path d="M118.4,94.2l7.8,0.1c0.1-0.1,0.1-0.3,0.2-0.4l4.9,0l33.2-0.1l4.8,0h-4.7l-33.2,0.1L118,93.9L118.4,94.2z"/>
	<polygon points="142.7,94.3 164.5,94.4 167.1,94.4 164.5,94.4 	"/>
	<path d="M231,93.5c-0.4,0.3-0.9,0.7-1.3,1h1c0.4-0.3,0.8-0.6,1.2-1l45.8,0.1c0.1,0.2,0.2,0.5,0.4,0.8l13.4,0c0,0,0,0,0,0
		c0-0.2,0-0.4,0-0.7L231,93.5z"/>
	<path d="M240.2,84.8c0.2-0.3,0.4-0.6,0.7-1l-0.8,0c-0.2,0.3-0.5,0.7-0.7,1l42.9-0.1l-0.9-0.8l-9.1,0c0.2,0.3,0.4,0.5,0.5,0.8
		L240.2,84.8z"/>
	<path d="M131.6,84.4c0.1-0.1,0.2-0.3,0.3-0.4l32.3-0.1c0.2,0.2,0.3,0.4,0.5,0.7h0.8c-0.2-0.2-0.3-0.5-0.5-0.7h-0.5L131.3,84
		l-17.7,0.1c0,0.1,0,0.1,0,0.2l17.7,0.1L131.6,84.4z"/>
	<path d="M140,74.7c0.2-0.2,0.4-0.4,0.6-0.5l18.3,0c0.1,0.2,0.2,0.4,0.3,0.6l0.8,0c-0.1-0.2-0.2-0.5-0.3-0.7l-28.4,0.1l-16.3,0.1
		c0,0.1,0,0.2,0,0.3l16.5,0.1L140,74.7z"/>
	<path d="M249.8,74l-4.5,0c-0.1,0.3-0.2,0.6-0.4,0.9l0.8,0c0.1-0.3,0.3-0.6,0.4-0.9L249.8,74z"/>
	<path d="M270.6,74.8l-1-0.7l-6,0c0.3,0.2,0.5,0.5,0.8,0.7L270.6,74.8z"/>
	<path d="M116.9,64.9l14.3,0.1H153l-0.7-0.6l-21,0.1L117,64.6C116.9,64.7,116.9,64.8,116.9,64.9z"/>
	<path d="M257.9,64.3h-9.4c-0.1,0.3-0.1,0.5-0.2,0.8c0,0,0,0.1,0,0.1H259L257.9,64.3z"/>
	<polygon points="140.6,54.6 135.4,54.6 133.5,55.2 141.3,55.2 	"/>
	<polygon points="186.3,356.6 186.3,356.6 187.1,357.3 	"/>
	<path d="M131.3,357.2l-7.5-0.1c0.3,0.1,0.5,0.1,0.8,0.2l6.8,0.1l33.2,0.1l22.6-0.1l-0.1,0l-22.7-0.1L131.3,357.2z"/>
	<polygon points="221.5,356.5 221.6,356.6 221.5,356.5 	"/>
	<path d="M222.6,357.4L222.6,357.4l8.3,0.1l45.2-0.1c0.1,0,0.2,0,0.3-0.1l-45.6,0.1L222.6,357.4z"/>
	<polygon points="209.8,346.7 213.3,346.7 209.8,346.7 210.5,347.3 	"/>
	<polygon points="280.2,347.5 280.1,347.4 280.2,347.5 	"/>
	<polygon points="221.5,347.7 230.8,347.7 246.3,347.6 230.8,347.7 	"/>
	<polygon points="105.5,347.1 131.3,346.9 164.5,346.8 174.4,346.8 164.5,346.8 131.3,346.9 105.5,347.1 105.5,347.1 	"/>
	<polygon points="174.6,346.8 174.6,346.8 175.2,347.3 	"/>
	<polygon points="131.3,337.1 162.9,337 163.1,337.2 162.9,337 131.3,337.1 104.4,337.3 104.4,337.4 104.9,337.4 104.9,337.3 	"/>
	<polygon points="198.2,337 199.2,337.8 199.2,337.8 198.3,337 	"/>
	<polygon points="216.1,337.9 230.8,337.9 268.6,337.8 268.6,337.8 230.8,337.9 	"/>
	<polygon points="256.9,328 257,328 255.9,327.1 237.3,327.1 255.9,327.1 	"/>
	<polygon points="187.5,328 210.5,328.1 187.5,328 187,327.6 	"/>
	<polygon points="292.4,327.2 292.4,327.2 294.7,327.2 	"/>
	<polygon points="105.1,327.6 105.1,327.5 131.3,327.3 147.4,327.3 131.3,327.3 104.4,327.5 104.4,327.6 	"/>
	<polygon points="280.7,317.4 280.7,317.4 288.3,317.4 	"/>
	<polygon points="281.2,317.8 281.6,318.2 284.7,318.2 281.6,318.2 	"/>
	<polygon points="140,317.8 139.7,317.5 135.9,317.5 139.7,317.5 	"/>
	<polygon points="105.2,317.9 105.2,317.8 104.4,317.8 104.4,317.9 131.3,318.1 140.3,318.1 140.3,318.1 131.3,318.1 	"/>
	<polygon points="174.9,317.4 174.9,317.4 227.4,317.3 	"/>
	<polygon points="175,317.5 175.8,318.2 205.1,318.3 175.8,318.2 	"/>
	<polygon points="245.4,318.3 238.3,318.3 245.4,318.3 244.2,317.3 231.9,317.3 244.2,317.3 	"/>
	<polygon points="299.5,307.7 299.5,308.4 297.2,308.4 282.4,308.4 297.2,308.4 299.8,308.4 299.8,307.7 	"/>
	<polygon points="269,307.6 269,307.6 279.4,307.6 	"/>
	<polygon points="232.5,307.5 232.5,307.5 230.8,307.5 205.4,307.6 230.8,307.5 	"/>
	<polygon points="233.7,308.5 233.6,308.5 233.7,308.5 	"/>
	<polygon points="164.5,308.4 164.1,308.4 163.3,307.7 163.3,307.7 164.1,308.4 164.5,308.4 199.4,308.5 	"/>
	<polygon points="128.1,307.8 128.1,307.8 128.2,307.9 	"/>
	<polygon points="105.2,308 104.4,308 104.4,308.1 128.6,308.3 128.6,308.3 105.2,308.1 	"/>
	<polygon points="297.2,298.6 299.8,298.6 299.8,297.9 298.3,297.9 299.6,297.9 299.6,298.6 297.2,298.6 258.4,298.7 258.4,298.7 	
		"/>
	<polygon points="257.3,297.8 257.6,298 257.3,297.8 	"/>
	<polygon points="105.2,298.3 105.2,298.2 104.4,298.2 104.4,298.3 116.9,298.4 116.7,298.2 116.9,298.4 	"/>
	<polygon points="160.4,298.6 164.5,298.6 192.1,298.6 164.5,298.6 	"/>
	<polygon points="151.7,297.9 151.7,297.9 163,297.9 	"/>
	<polygon points="245.6,288 246.6,288.8 245.6,288 	"/>
	<polygon points="297.2,288.1 280.1,288.1 297.2,288.1 299.6,288.1 299.6,288.8 297.2,288.8 280.6,288.8 297.2,288.8 299.8,288.8 
		299.8,288.1 	"/>
	<polygon points="209.3,288 209.3,288 209.8,288.5 	"/>
	<polygon points="158.5,288.8 164.5,288.8 187.5,288.9 164.5,288.8 	"/>
	<polygon points="193.7,288 164.5,288.1 157.4,288.1 164.5,288.1 	"/>
	<polygon points="104.4,288.5 105.1,288.5 105,288.4 104.4,288.4 	"/>
	<polygon points="198.6,279.1 198.6,279.1 178.7,279 	"/>
	<polygon points="129,278.9 129.3,278.9 129,278.9 	"/>
	<polygon points="131.3,278.4 164.5,278.3 197.6,278.2 197.9,278.4 197.6,278.2 164.5,278.3 131.3,278.4 128.4,278.4 128.6,278.5 
		128.4,278.4 	"/>
	<polygon points="291,279 235.1,279.2 233.9,278.2 233.9,278.2 235.1,279.2 	"/>
	<polygon points="299.6,278.3 299.6,279 298.6,279 299.7,279 299.7,278.3 297.2,278.3 272.3,278.3 297.2,278.3 	"/>
	<polygon points="186.9,269.3 186.9,269.3 174.6,269.2 	"/>
	<polygon points="164.5,268.5 179.3,268.5 164.5,268.5 131.3,268.6 116.9,268.7 116.9,268.7 131.3,268.6 	"/>
	<polygon points="230.8,269.4 246.8,269.3 230.8,269.4 223.4,269.4 222.3,268.4 222.2,268.4 223.4,269.4 	"/>
	<polygon points="292.6,269.2 292.7,269.2 291.8,268.5 265.2,268.5 291.8,268.5 	"/>
	<polygon points="210.9,258.8 211.7,259.6 229.4,259.6 211.7,259.6 	"/>
	<polygon points="281,259.5 281,259.5 237.1,259.6 	"/>
	<polygon points="280.1,258.7 264,258.7 280.1,258.7 	"/>
	<polygon points="210.6,258.6 210.6,258.6 223.7,258.6 	"/>
	<polygon points="146.8,258.8 131.3,258.8 105.3,259 105.4,259 131.3,258.8 	"/>
	<polygon points="174.7,259 174.4,258.7 170.9,258.7 174.4,258.7 	"/>
	<polygon points="175.2,259.5 175.2,259.5 169.4,259.4 	"/>
	<polygon points="199,248.9 199.3,249.2 199,248.9 	"/>
	<polygon points="269.4,249.7 269.1,249.5 269.4,249.7 	"/>
	<polygon points="131.3,249.6 147,249.6 131.3,249.6 105.1,249.4 105.1,249.3 104.3,249.3 104.3,249.4 	"/>
	<polygon points="163.5,249.6 163.4,249.5 163.5,249.6 	"/>
	<path d="M107,239.6c0,0,0-0.1,0-0.1l0,0C107,239.5,107,239.6,107,239.6l24.3,0.2h10.6l-10.6,0L107,239.6z"/>
	<polygon points="151.5,239.6 151.1,239.2 144.1,239.2 151.1,239.2 	"/>
	<path d="M292,239.9l-0.8-0.7h0L292,239.9l5.2,0h0.1c0,0,0,0,0,0l-0.1,0L292,239.9z"/>
	<polygon points="238.3,239 230.8,239 187.4,239.1 187.4,239.1 230.8,239 	"/>
	<polygon points="257.8,240 257.8,240 243.1,240 	"/>
	<polygon points="294,229.4 279.5,229.3 279.6,229.3 294,229.4 	"/>
	<path d="M294.2,230.1C294.2,230.1,294.2,230.1,294.2,230.1h-7H294.2z"/>
	<path d="M110.2,229.8c0-0.1,0-0.1,0-0.2l-0.1,0C110.1,229.7,110.1,229.8,110.2,229.8l21.1,0.2h5.4l-5.4,0L110.2,229.8z"/>
	<polygon points="175.7,229.4 176.6,230.1 176.6,230.1 175.8,229.4 	"/>
	<polygon points="236.1,229.2 230.8,229.2 208.4,229.3 230.8,229.2 	"/>
	<polygon points="165.5,220.8 183.5,220.8 165.5,220.8 165.1,220.4 	"/>
	<polygon points="233.9,219.9 235.1,220.9 235.1,220.9 233.9,219.9 230.8,219.9 171.3,220.1 230.8,219.9 	"/>
	<path d="M291.6,220.1l-23.2-0.1l0,0L291.6,220.1c0,0.2,0,0.5,0.1,0.7l-3.2,0h3.3C291.7,220.6,291.7,220.3,291.6,220.1z"/>
	<polygon points="128.8,220.5 128.5,220.2 116.5,220.3 128.5,220.2 	"/>
	<path d="M112.8,220.3l-0.2,0c0,0.1,0,0.2-0.1,0.2l16.5,0.1l0,0l-16.3-0.1C112.7,220.5,112.7,220.4,112.8,220.3z"/>
	<path d="M289.6,210.3l-32.9-0.1l0,0l32.7,0.1c0,0.2,0.1,0.5,0.1,0.7l-31.8,0.1l-0.6-0.5l0.5,0.5l32.1-0.1
		C289.7,210.8,289.7,210.5,289.6,210.3z"/>
	<path d="M114.5,210.8l2.7,0l0,0l-2.3,0c0-0.1,0-0.2,0.1-0.3l1.9,0l0.1,0.1l-0.1-0.1l-2.4,0C114.5,210.6,114.5,210.7,114.5,210.8z"
		/>
	<polygon points="153.8,211 164.5,211 172.8,211 164.5,211 153.8,211 153.6,210.8 	"/>
	<polygon points="178.2,210.3 164.5,210.3 153.1,210.3 153.1,210.3 164.5,210.3 	"/>
	<polygon points="223.4,211.1 222.3,210.2 223.4,211.1 	"/>
	<polygon points="164.5,200.5 148.7,200.6 164.5,200.5 210.6,200.4 210.6,200.4 	"/>
	<polygon points="211.7,201.3 211.4,201 211.7,201.3 	"/>
	<polygon points="141.4,200.6 141.7,200.8 141.4,200.6 	"/>
	<path d="M257.2,200.4l30.5,0.1c0,0.2,0.1,0.5,0.1,0.7l0.4,0c0-0.2-0.1-0.5-0.1-0.7L257.2,200.4z"/>
	<path d="M286.6,191.4l0.7,0c0-0.3,0-0.5-0.1-0.7l-30,0l29.3,0.1C286.6,191,286.6,191.2,286.6,191.4z"/>
	<polygon points="264.6,191.5 234.5,191.6 234.5,191.6 	"/>
	<polygon points="233.3,190.6 233.7,191 233.3,190.6 	"/>
	<polygon points="164.5,190.7 179.9,190.7 164.5,190.7 131.3,190.8 129.8,190.8 129.8,190.8 131.3,190.8 	"/>
	<polygon points="228.7,181.8 222.8,181.8 221.6,180.8 224.3,180.8 221.6,180.8 222.8,181.8 	"/>
	<path d="M285.8,181.6l0.9,0c0-0.2,0-0.5,0-0.7l-37.9-0.1l36.9,0.1C285.8,181.2,285.8,181.4,285.8,181.6z"/>
	<path d="M131.3,181l16.1,0L131.3,181l-13.1,0.1l0.4,0.3l0.2,0c0-0.1,0-0.2,0-0.3L131.3,181z"/>
	<polygon points="187.4,180.9 187.4,180.9 187.8,181.3 	"/>
	<polygon points="188.3,181.7 188.3,181.7 185.9,181.7 	"/>
	<polygon points="176.6,171.9 176.6,171.9 173.1,171.9 	"/>
	<path d="M117.4,171.7l13.9,0.1h15.1l-15.1,0l-12.1-0.1c0-0.1,0-0.2,0-0.3l-1.8,0C117.4,171.5,117.4,171.6,117.4,171.7z"/>
	<polygon points="175.8,171.2 175.7,171.1 169.6,171.2 175.7,171.1 	"/>
	<polygon points="279.5,171.1 236.1,171 279.5,171.1 279.9,171.5 	"/>
	<polygon points="210.1,171.1 210,171.1 211.1,172 223.3,172 211.1,172 	"/>
	<polygon points="280.4,171.9 280.4,171.9 265,171.9 	"/>
	<path d="M131.3,162l33.2,0.1h0.4l0,0l-0.4,0L131.3,162l-12.2-0.1c0-0.1,0-0.2,0-0.3l-2.2,0c0,0.1,0,0.2,0,0.3L131.3,162z"/>
	<polygon points="267.8,161.3 268.7,162.1 268.8,162.1 267.8,161.3 230.8,161.2 208.7,161.3 230.8,161.2 	"/>
	<polygon points="198.7,161.6 199.4,162.2 217.8,162.2 199.4,162.2 	"/>
	<polygon points="249.2,152.4 257.2,152.4 256.6,151.9 257.2,152.4 	"/>
	<polygon points="249.3,151.5 230.8,151.4 186.7,151.5 186.7,151.5 230.8,151.4 	"/>
	<path d="M118.5,152.1c0-0.1,0-0.2,0-0.3l-2.8,0c0,0.1,0,0.2,0,0.3l15.5,0.1h4.7l-4.8,0L118.5,152.1z"/>
	<polygon points="138.4,151.7 152.5,151.6 153.2,152.2 153.2,152.2 152.5,151.6 	"/>
	<path d="M635.5,138.2C635.5,138.2,635.5,138.2,635.5,138.2l-3.5,0c0,0,0,0,0,0L635.5,138.2z"/>
	<path d="M512.9,138.4l90.2-0.1L512.9,138.4l-53.9-0.1c0-0.1,0-0.1,0-0.2l53.8-0.1l106.7,0.1L512.8,138l-57.4,0.1
		c0,0.1,0,0.1,0.1,0.2L512.9,138.4z"/>
	<polygon points="512.8,128.6 479.9,128.5 512.9,128.6 554.8,128.5 	"/>
	<path d="M512.8,128.2l119,0.2c0,0,0,0,0,0l6,0L512.8,128.2l-59.3,0.1c0,0.1,0,0.1,0,0.2l6,0c0-0.1,0-0.1,0-0.2L512.8,128.2z"/>
	<path d="M512.8,118.5l116.9,0.1c0,0,0,0,0,0l7.8,0L512.8,118.5l-59,0c0,0.1,0,0.1,0,0.2l7.8,0c0-0.1,0-0.1,0-0.2L512.8,118.5z"/>
	<path d="M512.8,109l-48.8-0.1c0-0.1,0-0.1,0.1-0.2l-9.9,0c0,0.1,0,0.1,0,0.2L512.8,109l124.3-0.1l-15.4,0L512.8,109z"/>
	<path d="M454.8,99.2l58.1,0.1l123.7-0.2l-12.8,0c0,0,0,0,0,0l-110.9,0.1l-45.3-0.1c0-0.1,0.1-0.1,0.1-0.2l-12.8,0
		C454.8,99.1,454.8,99.1,454.8,99.2z"/>
	<polygon points="520.1,89.1 512.8,89.1 507.2,89.1 512.8,89.1 	"/>
	<path d="M455.5,89.4l57.3,0.1l123.1-0.2l-16.9,0c0,0,0,0,0,0l-106.2,0.1l-40.5-0.1c0-0.1,0.1-0.1,0.1-0.2l-16.9,0
		C455.5,89.3,455.5,89.3,455.5,89.4z"/>
	<polygon points="559.3,79.4 512.8,79.3 479.3,79.4 512.8,79.3 	"/>
	<path d="M456.6,79.6l56.2,0.1l122.1-0.2l-22.8,0c0,0,0,0,0.1,0.1l-99.4,0.1l-33.8,0c0.1-0.1,0.1-0.2,0.2-0.3l-22.6,0
		C456.6,79.5,456.6,79.5,456.6,79.6z"/>
	<path d="M512.9,69.9l76.7-0.1L512.9,69.9l-23.6-0.1c0.1-0.1,0.3-0.2,0.4-0.3l23.2,0l81.1,0.1l-81.1-0.1l-54.4,0.1c0,0,0,0.1,0,0.1
		c0,0,0,0.1,0,0.1L512.9,69.9z"/>
	<path d="M633.3,69.7L633.3,69.7l-31.5-0.1c0,0,0.1,0.1,0.1,0.1L633.3,69.7z"/>
	<path d="M512.9,60.1l35.3-0.1L512.9,60.1l-8.6,0l0.5-0.3l8.1,0l74.6,0.1l0.2,0.1l42.3-0.1c0,0,0,0,0,0l-117.1-0.2l-50.5,0.1
		c0,0.1-0.1,0.1-0.1,0.2L512.9,60.1z"/>
	<polygon points="492.5,50.3 512.8,50.3 601.2,50.2 600.8,50.1 573.2,50.1 573.4,50.2 519.6,50.3 520,50 512.8,50 493.5,50 	"/>
	<polygon points="499.6,371.9 501.8,371.9 499.6,371.9 	"/>
	<path d="M468,361.8C468,361.8,468.1,361.8,468,361.8h35.4H468z"/>
	<path d="M621.6,361.9C621.6,361.9,621.6,361.9,621.6,361.9l-75.4-0.1L621.6,361.9z"/>
	<path d="M590.9,362l30.5,0c0,0,0.1,0,0.1,0L590.9,362z"/>
	<polygon points="594.8,352.2 643.2,352.2 634.3,352.2 	"/>
	<polygon points="519.9,352 512.8,352 505.4,352 512.8,352 	"/>
	<polygon points="447.9,352.3 447.9,352.1 447.7,352.1 447.7,352.3 479.9,352.3 	"/>
	<polygon points="512.8,342.2 575.9,342.3 512.8,342.2 449.9,342.3 	"/>
	<polygon points="512.8,342.6 448.1,342.5 448.2,342.3 447.7,342.3 447.7,342.5 512.8,342.6 643.2,342.4 639.4,342.4 	"/>
	<polygon points="512.8,332.8 448.4,332.7 448.4,332.5 512.8,332.4 631.9,332.6 512.8,332.4 447.7,332.5 447.7,332.7 512.8,332.8 
		630.5,332.6 	"/>
	<polygon points="512.8,322.6 447.7,322.7 447.7,322.9 448.6,322.9 448.6,322.7 512.8,322.6 639.2,322.8 643.2,322.8 	"/>
	<polygon points="512.8,323 451.2,322.9 512.8,323 574.8,322.9 	"/>
	<polygon points="480.1,312.9 447.7,312.9 447.7,313.1 448.6,313.1 448.6,312.9 	"/>
	<polygon points="643.2,313 594.3,313 634.3,313 	"/>
	<polygon points="506.4,313.2 512.8,313.2 518.9,313.2 512.8,313.2 	"/>
	<polygon points="567,303.1 629.3,303.2 643.3,303.2 643.3,303.2 	"/>
	<rect x="447.7" y="303.2" width="0.9" height="0.1"/>
	<polygon points="564.2,293.6 643.3,293.5 643.3,293.5 628.8,293.5 	"/>
	<rect x="447.7" y="293.4" width="0.9" height="0.1"/>
	<polygon points="591.4,283.7 643.3,283.7 633.8,283.7 	"/>
	<polygon points="448.6,283.6 447.7,283.6 447.7,283.8 481.2,283.8 448.6,283.8 	"/>
	<polygon points="513.3,283.5 512.8,283.5 511.9,283.5 512.8,283.5 	"/>
	<polygon points="569.5,273.8 512.8,273.7 456.4,273.8 512.8,273.7 	"/>
	<polygon points="512.8,274.1 448.6,274 448.6,273.8 447.7,273.8 447.7,274 512.8,274.1 643.3,273.9 638.8,273.9 	"/>
	<polygon points="643.1,264.1 643.1,264.1 643.1,264.1 	"/>
	<polygon points="512.8,264.3 448.6,264.2 448.6,264 512.8,263.9 624.6,264.1 512.8,263.9 447.7,264 447.7,264.2 512.8,264.3 
		636.7,264.1 	"/>
	<polygon points="512.8,254.1 447.7,254.2 447.7,254.4 512.8,254.5 581.2,254.4 512.8,254.5 448.6,254.4 448.6,254.2 512.8,254.1 
		639.8,254.3 643.1,254.3 	"/>
	<polygon points="499.7,244.7 512.8,244.7 525.4,244.7 512.8,244.7 	"/>
	<polygon points="478.8,244.4 447.6,244.4 447.6,244.6 448.5,244.6 448.5,244.4 	"/>
	<polygon points="643.1,244.5 597.6,244.5 634.8,244.5 	"/>
	<polygon points="629.8,234.7 640.1,234.7 640.1,234.7 570.3,234.6 	"/>
	<path d="M450.8,234.7c0,0,0,0.1,0,0.1l0,0C450.8,234.8,450.8,234.7,450.8,234.7L450.8,234.7z"/>
	<path d="M561.2,225.1l76.2-0.1c0,0,0,0,0,0l-9.2,0L561.2,225.1z"/>
	<path d="M453.6,224.9c0,0,0,0.1,0,0.1l0.2,0c0,0,0-0.1,0-0.1L453.6,224.9z"/>
	<path d="M567.7,215.8l67.5-0.1c0,0,0,0,0,0l-5.8,0L567.7,215.8z"/>
	<path d="M455.8,215.6c0,0,0,0.1,0,0.1l0.3,0c0,0,0-0.1,0-0.1L455.8,215.6z"/>
	<path d="M632.9,205.9C632.9,205.9,632.9,205.9,632.9,205.9l-38,0.1l38.5,0c0,0,0,0,0,0L632.9,205.9z"/>
	<polygon points="520.4,205.7 512.8,205.7 504.9,205.7 512.8,205.7 	"/>
	<path d="M458.1,205.8l-0.6,0c0,0.1,0,0.1,0,0.2h22.4l-21.8,0C458.1,205.9,458.1,205.8,458.1,205.8z"/>
	<path d="M512.8,196.3l-53.3-0.1c0-0.1,0-0.1,0-0.2l53.2-0.1l63.2,0.1l-63.3-0.1l-54,0.1c0,0.1,0,0.2,0,0.2L512.8,196.3l119.3-0.1
		c0,0,0,0,0,0l-0.8,0c0,0,0,0,0,0L512.8,196.3z"/>
	<path d="M631.4,186.3l-118.6-0.2l-53.3,0.1c0,0.1,0,0.2,0,0.2l53.3,0.1L631.4,186.3C631.4,186.3,631.4,186.3,631.4,186.3z
		 M512.8,186.5l-52.2-0.1c0-0.1,0-0.1,0-0.2l52.2-0.1l117.5,0.2c0,0,0,0,0,0L512.8,186.5z"/>
	<path d="M512.8,176.3l-53.1,0.1c0,0.1,0,0.2,0,0.2l53.1,0.1l61.9-0.1l-61.9,0.1l-51.6-0.1c0-0.1,0-0.1,0-0.2L512.8,176.3l116.9,0.2
		c0,0,0,0,0,0l1.5,0c0,0,0,0,0,0L512.8,176.3z"/>
	<polygon points="506.5,166.9 512.8,166.9 518.7,166.9 512.8,166.9 	"/>
	<path d="M629.6,166.7l1.9,0c0,0,0,0,0,0l-37.2,0L629.6,166.7C629.6,166.7,629.6,166.7,629.6,166.7z"/>
	<path d="M480.1,166.6h-20.7c0,0.1,0,0.1,0,0.2l2,0c0-0.1,0-0.1,0-0.2L480.1,166.6z"/>
	<path d="M629.2,156.9l3,0c0,0,0,0,0,0l-65.3-0.1L629.2,156.9z"/>
	<path d="M458.6,156.9c0,0,0,0.1,0,0.1l2.5,0c0,0,0-0.1,0-0.1L458.6,156.9z"/>
	<path d="M512.8,147.3l-52.6-0.1c0-0.1,0-0.1,0-0.2l-3,0c0,0.1,0,0.1,0,0.2L512.8,147.3l120.8-0.1c0,0,0,0,0,0l-5.5,0L512.8,147.3z"
		/>
	<path d="M461.8,142.6L461.8,142.6l-5.4,0c0,0.2,0.1,0.5,0.1,0.7h3.3c0-0.2-0.1-0.5-0.1-0.7L461.8,142.6z"/>
	<polygon points="498.3,142.5 498.3,142.5 501.8,142.5 	"/>
	<polygon points="566.7,143.4 512.8,143.5 497.2,143.5 497.1,143.5 512.8,143.5 566.7,143.4 567.6,142.6 551.2,142.6 567.6,142.6 	
		"/>
	<path d="M631.2,142.9c0,0.1,0,0.1,0,0.2l-18.8,0.1l-11.2,0l0.7-0.6l0.5,0l-0.5,0l-0.7,0.6h11.2l22.1-0.2c0-0.1,0-0.1,0-0.2
		L631.2,142.9z"/>
	<polygon points="509.9,133.7 508.8,133.7 508.8,133.7 	"/>
	<polygon points="579.2,132.9 579.1,132.9 578.7,133.3 	"/>
	<path d="M632.9,133.1c0,0,0,0.1,0,0.1l3.9,0c0,0,0-0.1,0-0.1l-23.3-0.2l-0.6,0.5l0,0l0.5-0.4L632.9,133.1z"/>
	<path d="M472.5,133.7l1-0.9l0,0L472.5,133.7l-14.3-0.1c0.1-0.2,0.1-0.5,0.2-0.7l-4.4,0c0.1,0.2,0.1,0.5,0.2,0.7L472.5,133.7z"/>
	<path d="M637.6,123.4l-6.8-0.1c0,0.1,0,0.1,0,0.2l-6.2,0l0.3-0.3l-0.1,0l-0.3,0.3l13-0.1V123.4z"/>
	<polygon points="546.1,123 521.6,122.9 521,123.4 521.6,122.9 	"/>
	<polygon points="590.8,123.1 590.2,123.1 590.8,123.1 	"/>
	<polygon points="522.9,123.9 579.2,123.8 586.7,123.7 579.2,123.8 	"/>
	<path d="M484.2,123.9l1-0.9l0,0L484.2,123.9l-23.7-0.1c0-0.2,0.1-0.5,0.1-0.7l-7,0c0,0.2,0,0.5,0,0.7L484.2,123.9z"/>
	<polygon points="636.5,113.6 636.4,113.7 637.3,113.7 637.3,113.6 	"/>
	<path d="M462.7,114c0.1-0.2,0.1-0.5,0.2-0.7l-8.8,0c0,0.1,0,0.3,0,0.4c0,0.1,0,0.2,0,0.3l41.8,0.1l1.1-0.9l-0.1,0l-1.1,0.9
		L462.7,114z"/>
	<polygon points="601.8,113.9 602.1,113.6 601.8,113.9 	"/>
	<polygon points="585.1,113.3 602.4,113.3 602.5,113.3 	"/>
	<polygon points="532.2,114.1 532.2,114.1 579.2,114 599.5,113.9 579.2,114 	"/>
	<path d="M508.6,103.3L508.6,103.3l-54.1,0.1c0,0.2,0,0.5,0,0.7l11.1,0c0.1-0.2,0.2-0.4,0.2-0.7L508.6,103.3z"/>
	<polygon points="544.9,103.4 544.9,103.4 573.9,103.5 	"/>
	<polygon points="614.1,103.6 614,103.6 614.1,103.6 613.5,104.1 612.4,104.1 579.2,104.2 543.9,104.3 543.9,104.3 579.2,104.2 
		612.4,104.1 613.5,104.1 	"/>
	<path d="M512.8,93.5l7.4,0l0.1-0.1L512.8,93.5l-57.6,0.1c0,0.2,0,0.5-0.1,0.7l14.6,0c0.1-0.2,0.2-0.4,0.3-0.7L512.8,93.5z"/>
	<path d="M612.4,93.8l-33.2-0.1h-4.8l4.8,0L612.4,93.8l9,0.1c0.1,0.1,0.1,0.2,0.2,0.4l3.7,0l0.3-0.3L612.4,93.8z"/>
	<polygon points="555.7,94.5 555.6,94.5 579.2,94.4 601.3,94.3 579.2,94.4 	"/>
	<polygon points="568.1,83.9 567.2,84.6 567.3,84.6 568.1,83.9 	"/>
	<path d="M612.4,84l3.3,0c0.1,0.1,0.2,0.3,0.3,0.4l19.5-0.2c0-0.1,0-0.1,0-0.2L612.4,84l-33.2-0.1H569l10.2,0L612.4,84z"/>
	<path d="M462.4,83.9l-0.9,0.7l13.8,0.1c0.2-0.3,0.4-0.5,0.5-0.8L462.4,83.9z"/>
	<polygon points="495.9,84.7 512.8,84.8 520.2,84.8 512.8,84.8 	"/>
	<polygon points="531.7,84 531.9,83.8 530,83.8 531.9,83.8 	"/>
	<path d="M607.2,74.2c0.2,0.2,0.3,0.3,0.5,0.5l4.7,0l21.8-0.2c0-0.1,0-0.1,0-0.2l-21.7-0.2h-32.6l-0.5,0.4l0.4-0.4L607.2,74.2z"/>
	<polygon points="543.5,74 524.6,74 543.4,74 	"/>
	<path d="M522.8,75l-9.9,0l-29.5-0.1c0.3-0.3,0.6-0.6,0.9-0.8l-10.2,0l-1,0.8l39.7,0.1L522.8,75z"/>
	<path d="M612.4,64.5l-18.3-0.1l0.8,0.6l17.5-0.1l19.6-0.1c0-0.1,0-0.1-0.1-0.2L612.4,64.5z"/>
	<polygon points="485.8,64.3 484.7,65.1 496.3,65.1 497.7,64.3 	"/>
	<polygon points="552.4,65.1 554.2,65.1 554.4,64.9 554.2,65.1 	"/>
	<polygon points="612.4,54.7 603,54.6 602.4,55.2 612.4,55.2 617.3,55.1 616,54.7 	"/>
	<polygon points="512.8,54.4 497.5,54.4 496.4,55.4 511.6,55.4 513.2,54.4 	"/>
	<polygon points="542.2,55.3 565.9,55.3 566.4,54.8 565.9,55.3 	"/>
	<polygon points="566.8,54.5 515.7,54.4 566.8,54.5 	"/>
	<polygon points="533.1,377 548.1,376.9 533.1,377 	"/>
	<path d="M566,376.1c0.1,0,0.2,0,0.4,0l-32.2-0.1l-1,0.9l1-0.9L566,376.1z"/>
	<polygon points="573.5,366.4 545.8,366.3 545.1,366.9 545.8,366.3 	"/>
	<polygon points="544.8,367.2 544.8,367.2 579.2,367.1 601.3,367 579.2,367.1 	"/>
	<path d="M509.4,367.2l-26.3-0.1c0,0,0.1,0,0.1,0L509.4,367.2l1.2-1l-30.1,0.1c0,0,0,0,0,0l30-0.1L509.4,367.2z"/>
	<path d="M522.1,356.5L522.1,356.5l-9.3-0.1l-57.5,0.1c0.1,0,0.1,0.1,0.2,0.1l57.3-0.1L522.1,356.5z"/>
	<polygon points="626.2,357.1 626.2,357.1 620.9,357.1 	"/>
	<polygon points="556.6,357.4 556.5,357.4 579.2,357.3 603.5,357.2 579.2,357.3 	"/>
	<polygon points="612.4,356.7 626.6,356.8 626.5,356.9 626.6,356.8 612.4,356.7 579.2,356.6 574.7,356.6 579.2,356.6 	"/>
	<polygon points="612.4,346.9 638.1,347.1 638.1,347.1 612.4,346.9 579.2,346.8 569.2,346.8 579.2,346.8 	"/>
	<polygon points="568.2,347.5 568.3,347.5 569,346.9 	"/>
	<polygon points="497.2,347.6 512.8,347.7 522,347.7 512.8,347.7 	"/>
	<polygon points="464.3,346.8 463.4,347.5 463.5,347.5 464.3,346.8 	"/>
	<polygon points="530.3,346.7 533.8,346.7 533.8,346.7 	"/>
	<polygon points="643.2,337.4 643.1,337.4 641.4,337.4 	"/>
	<polygon points="612.4,337.1 626,337.2 612.4,337.1 580.7,337 579.9,337.7 579.9,337.7 580.7,337 	"/>
	<polygon points="545.5,337 545.4,337 544.8,337.5 	"/>
	<polygon points="527.2,337.9 512.8,337.9 475,337.8 475.8,337.1 475,337.8 512.8,337.9 	"/>
	<polygon points="447.7,327.3 447.7,327.9 448.5,327.9 448.5,327.3 	"/>
	<polygon points="451.3,327.2 449.6,327.2 451.2,327.2 	"/>
	<polygon points="556.1,328 556.1,328 533.8,328.1 	"/>
	<polygon points="557.1,327.2 557.1,327.2 556.9,327.3 	"/>
	<polygon points="506.3,327.1 487.7,327.1 486.7,328 486.7,328 487.7,327.1 	"/>
	<polygon points="591.6,327.9 591.6,327.9 591.8,327.7 	"/>
	<polygon points="632.4,327.5 612.4,327.3 596.3,327.3 612.4,327.3 	"/>
	<polygon points="498.3,318.3 505.3,318.3 498.3,318.3 	"/>
	<polygon points="567.8,318.2 567.8,318.2 538.7,318.3 	"/>
	<polygon points="511.8,317.3 499.4,317.3 498.5,318.1 499.4,317.3 	"/>
	<polygon points="516.4,317.3 568.7,317.4 568.7,317.4 	"/>
	<polygon points="603.3,318.1 604,317.5 607.8,317.5 604,317.5 603.3,318.1 612.4,318.1 631.2,317.9 612.4,318.1 	"/>
	<polygon points="463,317.4 462.1,318.2 448.6,318.2 448.6,317.5 447.7,317.5 447.7,318.2 462.1,318.2 463,317.4 456.4,317.4 	"/>
	<polygon points="643.3,308 643.3,308 627.4,307.9 643,308 	"/>
	<polygon points="615,308.3 630.4,308.1 615.1,308.3 	"/>
	<polygon points="474.7,307.6 474.2,308 474.7,307.6 465.8,307.6 	"/>
	<polygon points="448.6,307.7 447.7,307.7 447.7,308.4 461.2,308.4 448.6,308.4 	"/>
	<polygon points="579.2,308.4 544.3,308.5 579.2,308.4 579.5,308.4 580.4,307.7 580.3,307.7 579.5,308.4 	"/>
	<polygon points="509.9,308.5 510,308.5 511.1,307.5 512.8,307.5 538.1,307.6 512.8,307.5 511.1,307.5 	"/>
	<polygon points="521.6,298.7 521.6,298.7 522.1,298.4 	"/>
	<polygon points="580.7,297.9 592,297.9 592,297.9 	"/>
	<polygon points="551.6,298.6 579.2,298.6 583.3,298.6 579.2,298.6 	"/>
	<polygon points="627.1,298.1 626.9,298.3 627.1,298.1 	"/>
	<polygon points="643.3,298.2 629.3,298.1 643.1,298.2 643.1,298.3 626.8,298.4 626.8,298.4 643.3,298.3 	"/>
	<polygon points="448.6,298.6 448.6,297.9 447.7,297.9 447.7,298.6 485.3,298.7 486.4,297.8 486.4,297.8 485.3,298.7 	"/>
	<polygon points="638.7,288.4 638.7,288.4 638.7,288.4 	"/>
	<polygon points="643.3,288.4 638.9,288.4 643.1,288.4 643.1,288.5 639,288.5 643.3,288.5 	"/>
	<polygon points="448.6,288.1 460.8,288.1 447.7,288.1 447.7,288.8 460.2,288.8 448.6,288.8 	"/>
	<polygon points="498.1,288 498,288 497.5,288.4 	"/>
	<polygon points="556.3,288.8 579.2,288.8 585.2,288.8 579.2,288.8 	"/>
	<polygon points="534.4,288 533.3,288.9 533.3,288.9 534.4,288 	"/>
	<polygon points="586.4,288.1 579.2,288.1 549.8,288 579.2,288.1 	"/>
	<polygon points="603,288.7 603.6,288.2 603.6,288.2 603,288.7 	"/>
	<polygon points="546,278.2 579.2,278.3 612.4,278.4 615.2,278.4 615.2,278.4 612.4,278.4 579.2,278.3 546,278.2 545,279.1 
		564.9,279 545,279.1 	"/>
	<polygon points="614.7,278.9 614.9,278.7 614.7,278.9 614.4,278.9 	"/>
	<polygon points="470.1,278.3 447.7,278.3 447.7,279 448.6,279 448.6,278.3 	"/>
	<polygon points="457.9,279 508.6,279.2 509.8,278.2 509.7,278.2 508.6,279.2 	"/>
	<polygon points="612.4,268.6 626.8,268.7 626.8,268.7 612.4,268.6 579.2,268.5 564.4,268.5 579.2,268.5 	"/>
	<polygon points="556.7,269.3 569,269.2 556.7,269.3 	"/>
	<polygon points="478.6,268.5 451.8,268.5 451,269.2 451,269.2 451.8,268.5 	"/>
	<polygon points="496.7,269.3 512.8,269.4 520.2,269.4 520.2,269.4 512.8,269.4 	"/>
	<polygon points="568.4,259.5 574.2,259.4 568.4,259.5 	"/>
	<polygon points="572.8,258.7 569.3,258.7 568.8,259.2 569.3,258.7 	"/>
	<polygon points="612.4,258.8 596.9,258.8 612.4,258.8 638.3,259 638.3,259 	"/>
	<polygon points="520,258.6 533,258.6 533,258.6 	"/>
	<polygon points="479.9,258.7 463.5,258.7 462.7,259.5 463.5,258.7 	"/>
	<polygon points="514.3,259.6 531.9,259.6 532,259.5 531.9,259.6 	"/>
	<polygon points="462.6,259.5 506.8,259.6 462.6,259.5 	"/>
	<polygon points="580.1,249.6 580.2,249.6 580.8,249 	"/>
	<polygon points="596.6,249.6 612.4,249.6 631.7,249.4 612.4,249.6 	"/>
	<polygon points="475.2,248.9 474.7,249.4 475.2,248.9 	"/>
	<polygon points="543.7,249.7 544.7,248.9 544.7,248.9 543.7,249.7 	"/>
	<polygon points="555.4,239.9 555.8,239.6 555.4,239.9 	"/>
	<polygon points="556.3,239.1 556.3,239.1 512.8,239 505.2,239 512.8,239 	"/>
	<polygon points="486.9,239.1 486.7,239.3 486.9,239.1 	"/>
	<polygon points="500.6,240 485.9,240 485.9,240 	"/>
	<polygon points="641.7,239.5 641.1,239.5 641.7,239.5 	"/>
	<polygon points="591.8,239.8 591.9,239.8 592.4,239.4 	"/>
	<polygon points="592.6,239.2 592.6,239.2 599.6,239.2 	"/>
	<polygon points="601.8,239.8 612.4,239.8 625.4,239.7 612.4,239.8 	"/>
	<path d="M451.6,239.9l0.9-0.7h-0.1L451.6,239.9l-2.5,0c0.1-0.2,0.2-0.4,0.2-0.7h0c-0.1,0.2-0.2,0.5-0.2,0.7H451.6z"/>
	<polygon points="463.3,230.1 463.7,229.8 463.3,230.1 	"/>
	<path d="M452.3,230.1c0.1-0.2,0.1-0.5,0.2-0.7l11.7,0l0.1,0l-11.8,0.1C452.3,229.6,452.3,229.9,452.3,230.1l4.2,0L452.3,230.1z"/>
	<polygon points="603.5,230 603.5,230 603.8,229.8 	"/>
	<path d="M638.6,229.7l-11.1-0.1L638.6,229.7c0,0,0,0.1,0,0.1l-26.2,0.2l-5.4,0h5.4l26.3-0.2C638.6,229.8,638.6,229.7,638.6,229.7z"
		/>
	<polygon points="535.1,229.3 512.8,229.2 507.5,229.2 512.8,229.2 	"/>
	<polygon points="567.1,230.1 567.9,229.4 567.9,229.4 567.1,230.1 	"/>
	<polygon points="497.5,230.2 497.5,230.2 498.5,229.4 	"/>
	<path d="M454.9,220.8c0.1-0.2,0.1-0.5,0.2-0.7l20.2-0.1l0,0l-20.5,0.1c-0.1,0.2-0.1,0.5-0.2,0.7h0.5L454.9,220.8z"/>
	<path d="M636.2,220.4l-21-0.2l-0.1,0.1l0.1-0.1l20.8,0.2c0,0,0,0.1,0,0.1l-21.3,0.2l0,0l21.5-0.2
		C636.2,220.5,636.2,220.4,636.2,220.4z"/>
	<polygon points="512.8,219.9 572.5,220.1 512.8,219.9 509.8,219.9 508.6,220.9 508.6,220.9 509.8,219.9 	"/>
	<polygon points="560.1,220.8 578.2,220.8 579,220.1 579,220.1 578.2,220.8 	"/>
	<path d="M456.8,210.3c0,0.2-0.1,0.5-0.1,0.7l29.2,0.1l0,0l-28.8-0.1c0.1-0.2,0.1-0.5,0.1-0.7l29.8-0.1l0,0l0.1,0L456.8,210.3z"/>
	<polygon points="579.2,211 570.8,211 579.2,211 589.9,211 590.3,210.6 589.9,211 	"/>
	<polygon points="520.2,211.1 520.3,211.1 521.1,210.4 	"/>
	<polygon points="579.2,210.3 565.4,210.3 579.2,210.3 590.6,210.3 590.6,210.3 	"/>
	<path d="M634.2,210.5l-7.4,0l0,0l7,0.1c0,0.1,0,0.1,0,0.2l-7.4,0.1l0.2-0.2l-0.3,0.2l7.8,0C634.2,210.7,634.2,210.6,634.2,210.5z"
		/>
	<polygon points="579.2,200.5 594.9,200.6 579.2,200.5 533,200.4 531.9,201.3 532,201.3 533,200.4 	"/>
	<path d="M485.6,200.4l-27.3,0.1c0,0.2-0.1,0.5-0.1,0.7l0.7,0c0-0.2,0.1-0.5,0.1-0.7L485.6,200.4z"/>
	<polygon points="498.7,200.4 498.7,200.4 497.9,201 	"/>
	<polygon points="543.6,191.5 543.7,191.5 544,191.2 	"/>
	<polygon points="612.4,190.8 579.2,190.7 563.7,190.7 579.2,190.7 612.4,190.8 613.9,190.8 613.9,190.8 	"/>
	<path d="M485.7,190.6l-26.5,0c0,0.3,0,0.5-0.1,0.8l1,0c0-0.2,0.1-0.5,0.1-0.7L485.7,190.6z"/>
	<polygon points="481.9,191.5 509.2,191.6 510.4,190.6 510.4,190.6 509.2,191.6 	"/>
	<polygon points="555.3,181.7 556.1,181 555.3,181.7 557.6,181.7 	"/>
	<polygon points="625.4,181.1 625.4,181.1 612.4,181 596.3,181 612.4,181 	"/>
	<path d="M494.8,180.8l-35.1,0.1c0,0.2,0,0.5,0,0.7l1.3,0c0-0.2,0-0.5,0-0.7L494.8,180.8z"/>
	<polygon points="514.9,181.8 520.9,181.8 521.5,181.3 520.9,181.8 	"/>
	<polygon points="522,180.8 519.4,180.8 522,180.8 	"/>
	<polygon points="520.4,172 532.6,172 533.7,171.1 533.6,171.1 532.6,172 	"/>
	<polygon points="464,171.3 463.2,171.9 478.9,171.9 463.2,171.9 	"/>
	<polygon points="464.2,171.1 464.2,171.1 507.8,171 	"/>
	<path d="M624.5,171.3l5.1,0c0,0.1,0,0.2,0,0.2l-17.2,0.1l-15.1,0h15.2l18.9-0.2c0-0.1,0-0.2,0-0.3L624.5,171.3z"/>
	<polygon points="567.9,171.1 574.1,171.2 567.9,171.1 567,171.9 570.5,171.9 567,171.9 	"/>
	<polygon points="579.2,162.1 578.7,162.1 578.7,162.1 579.2,162.1 612.4,162 624.8,161.9 612.4,162 	"/>
	<path d="M631.8,161.8c0-0.1,0-0.1,0-0.2l-2.2,0c0,0.1,0,0.1,0,0.2L631.8,161.8z"/>
	<polygon points="525.9,162.2 544.3,162.2 545.3,161.3 545.3,161.3 544.3,162.2 	"/>
	<polygon points="474.9,162.1 474.9,162.1 475.3,161.8 	"/>
	<polygon points="534.9,161.3 512.8,161.2 475.9,161.3 475.9,161.3 512.8,161.2 	"/>
	<polygon points="605.4,151.7 591.2,151.6 590.4,152.2 590.5,152.2 591.2,151.6 	"/>
	<path d="M632.9,151.8l-7.3,0l4.6,0c0,0.1,0,0.2,0,0.2l-17.9,0.1l-4.8,0h4.8l20.5-0.1C632.9,152,632.9,151.9,632.9,151.8z"/>
	<polygon points="512.8,151.4 494.4,151.5 512.8,151.4 556.9,151.5 556.9,151.5 	"/>
	<polygon points="486.5,152.4 494.5,152.4 486.5,152.4 	"/>
	<path d="M157.4,138.3l73.5,0.1l57.5-0.1c0-0.1,0-0.1,0-0.2l-57.6-0.1l-86.8,0.1l-27.2,0c0,0,0,0,0,0c0,0,0,0,0,0c0,0,0,0,0,0
		L157.4,138.3z"/>
	<path d="M196.5,128.5l34.4,0l41.1-0.1l16.2,0c0,0,0,0,0,0c0-0.1,0-0.1,0-0.2l-57.2-0.1l-114.8,0.1c0,0,0,0,0,0c0,0,0,0,0,0
		L196.5,128.5z"/>
	<path d="M230.8,118.8l55.2-0.1c0,0,0,0,0,0c0-0.1,0-0.1,0-0.2l-55.2-0.1l-112.6,0.1c0,0,0,0,0,0c0,0,0,0,0,0L230.8,118.8z"/>
	<path d="M120.8,108.9l110,0.1l52.7-0.1c0,0,0,0,0,0c0-0.1,0-0.1-0.1-0.2l-52.6-0.1L121,108.8L120.8,108.9
		C120.8,108.8,120.8,108.9,120.8,108.9z"/>
	<path d="M182.2,99.2c0,0-0.1,0-0.1-0.1c-0.1,0-0.2-0.1-0.3-0.1L127.5,99l-3.3,0c0,0,0,0,0,0.1L182.2,99.2z"/>
	<path d="M280.2,99.2c0-0.1,0-0.1-0.1-0.2c0,0,0,0,0,0l-49.3-0.1l-7.5,0c0,0,0,0,0,0c-0.2,0.1-0.4,0.2-0.7,0.3c0,0,0,0,0,0l8.2,0
		l22.5,0L280.2,99.2z"/>
	<path d="M275.4,89.2l-23.1,0l-15.7,0c-0.1,0.1-0.2,0.2-0.3,0.3c0,0,0,0,0,0l39.2-0.1c0,0,0,0,0-0.1
		C275.5,89.3,275.5,89.2,275.4,89.2C275.4,89.2,275.4,89.2,275.4,89.2z"/>
	<path d="M168.6,89.4c0-0.1-0.1-0.1-0.1-0.2c0,0,0,0,0,0l-39.7,0.1c0,0,0,0,0,0c0,0,0,0,0,0L168.6,89.4z"/>
	<path d="M243.5,79.3c0,0.1-0.1,0.2-0.1,0.3c0,0,0,0,0,0l25.6,0c0,0,0,0-0.1-0.1c0-0.1-0.1-0.1-0.1-0.2L243.5,79.3z"/>
	<path d="M161.5,79.6c0-0.1-0.1-0.1-0.1-0.2l-4.8,0l-21.3,0c0,0,0,0,0,0c0,0,0,0.1-0.1,0.1L161.5,79.6z"/>
	<path d="M247.8,69.6c0,0.1-0.1,0.2-0.1,0.2c0,0,0,0,0,0.1l10.2,0c0,0-0.1,0-0.1-0.1c-0.1-0.1-0.2-0.1-0.3-0.2L247.8,69.6z"/>
	<path d="M147,69.6c-0.1,0-0.1,0.1-0.2,0.1l10.4,0c0-0.1,0-0.1,0-0.2L147,69.6z"/>
	<path d="M167.7,371.7c0.6,0.1,1.2,0.1,1.9,0.2l57.1,0.1c1.3-0.1,2.5-0.2,3.8-0.3L167.7,371.7z"/>
	<path d="M243.6,361.8l-3.3,0l-9.5,0l-125,0.2c0,0,0.1,0,0.1,0l124.9,0.2l66.8-0.1c0.3-0.1,0.6-0.1,0.9-0.2L243.6,361.8z"/>
	<polygon points="241.8,352 230.8,352 224.6,352 104.5,352.2 104.5,352.2 111.3,352.2 144.9,352.2 230.8,352.3 263.8,352.3 
		299.9,352.3 300,352.3 300,352.1 	"/>
	<polygon points="106.4,342.4 230.8,342.6 299.9,342.5 300,342.5 300,342.3 299.9,342.3 230.8,342.2 177.7,342.3 104.7,342.4 
		104.7,342.4 	"/>
	<polygon points="230.8,332.4 130.7,332.6 105,332.6 105,332.6 105,332.6 105,332.6 131.9,332.6 230.8,332.8 299.9,332.7 
		299.9,332.7 299.9,332.5 299.9,332.5 	"/>
	<polygon points="230.8,322.6 106.5,322.8 105.2,322.8 105.2,322.8 178.6,322.9 230.8,323 299.9,322.9 299.9,322.9 299.9,322.7 
		299.9,322.7 	"/>
	<polygon points="263.5,312.9 230.8,312.9 145.4,313 111.4,313 105.2,313 105.2,313 225.4,313.2 230.8,313.2 240.2,313.2 
		299.5,313.1 299.5,313.1 299.5,312.9 	"/>
	<polygon points="105.2,303.2 105.2,303.3 205.4,303.4 230.8,303.4 299.5,303.3 299.5,303.3 299.5,303.2 299.5,303.2 230.8,303.1 
		174,303.1 	"/>
	<polygon points="105.2,293.4 105.2,293.5 176.9,293.6 230.8,293.6 299.6,293.5 299.6,293.5 299.6,293.4 299.6,293.4 230.8,293.3 
		202.7,293.3 	"/>
	<polygon points="111.9,283.7 148.4,283.7 230.8,283.8 262.4,283.8 299.6,283.8 299.6,283.6 299.6,283.6 231.7,283.5 230.8,283.5 
		230.1,283.5 105.2,283.7 105.2,283.7 	"/>
	<polygon points="230.8,274.1 299.6,274 299.6,273.8 230.8,273.7 183.2,273.8 105.2,273.9 105.2,273.9 107,273.9 	"/>
	<polygon points="126.2,264.1 230.8,264.3 299.6,264.2 299.6,264 230.8,263.9 136.4,264 105.2,264.1 105.2,264.1 105.2,264.1 
		105.2,264.1 	"/>
	<polygon points="105.2,254.3 172.9,254.4 230.8,254.5 299.6,254.4 299.6,254.2 230.8,254.1 106,254.3 105.2,254.3 	"/>
	<path d="M299,244.4l-34.1,0l-34,0l-88.6,0.1l-31.4,0l-5.6,0c0,0,0,0,0,0l114.7,0.1l11,0l19.1,0l49.2-0.1c0-0.1,0-0.1-0.1-0.2
		L299,244.4z"/>
	<path d="M108.6,234.8l122.2,0.2l64.9-0.1c0-0.1,0-0.1-0.1-0.2l-64.8-0.1l-60,0.1l-55.1,0.1L108.6,234.8
		C108.6,234.7,108.6,234.7,108.6,234.8z"/>
	<path d="M111.6,224.9C111.6,224.9,111.6,225,111.6,224.9l68.8,0.1l50.4,0.1l62-0.1c0,0,0,0,0,0c0,0,0-0.1,0-0.1c0,0,0,0,0,0
		l-61.9-0.1l-31.5,0L111.6,224.9z"/>
	<path d="M116.2,215.7l57.3,0.1l57.3,0.1l59.7-0.1c0,0,0,0,0,0c0,0,0-0.1,0-0.1c0,0,0,0,0,0l-59.7-0.1l-116.9,0.1c0,0,0,0,0,0
		L116.2,215.7z"/>
	<path d="M145,205.9l85.9,0.1l32.9,0l24.8,0c0-0.1,0-0.1,0-0.2c0,0,0,0,0,0l-46.2-0.1l-11.6,0l-6.7,0l-108.3,0.1c0,0,0,0,0,0
		c0,0,0,0,0,0L145,205.9z"/>
	<path d="M230.8,196.3l56.3-0.1c0-0.1,0-0.1,0-0.2l-56.3-0.1l-53.5,0.1l-60,0.1c0,0,0,0,0,0c0,0,0,0,0,0L230.8,196.3z"/>
	<path d="M118.4,186.3C118.4,186.3,118.4,186.3,118.4,186.3l13,0l99.3,0.1l55.3-0.1c0-0.1,0-0.1,0-0.2l-55.3-0.1l-100.5,0.1
		L118.4,186.3C118.4,186.3,118.4,186.3,118.4,186.3C118.4,186.3,118.4,186.3,118.4,186.3z"/>
	<path d="M178.4,176.6l52.4,0.1l54.8-0.1c0-0.1,0-0.1,0-0.2l-54.8-0.1L119,176.5c0,0,0,0,0,0c0,0,0,0,0,0L178.4,176.6z"/>
	<path d="M225.6,166.9l5.3,0l9,0l45.8-0.1c0,0,0,0,0,0c0-0.1,0-0.1,0-0.2l-22.1,0l-32.7,0l-85.2,0.1l-26.4,0c0,0,0,0,0,0
		c0,0,0,0,0,0L225.6,166.9z"/>
	<path d="M118.9,156.9C118.9,156.9,118.9,157,118.9,156.9l86.6,0.2l25.4,0L286,157c0,0,0,0,0,0c0,0,0-0.1,0-0.1c0,0,0,0,0,0
		l-55.2-0.1l-56.6,0.1L118.9,156.9z"/>
	<path d="M230.8,147l-108.5,0.1l-4.3,0c0,0,0,0,0,0.1l112.8,0.1l56.2-0.1c0,0,0,0,0,0c0-0.1,0-0.1,0-0.2L230.8,147z"/>
	<polygon points="245.6,142.7 245.4,142.5 241.9,142.5 230.8,142.5 192.4,142.6 176.1,142.6 176.1,142.6 176.4,142.8 177,143.4 
		230.8,143.5 246.4,143.5 246.5,143.5 	"/>
	<path d="M287.5,143.3c0-0.2,0.1-0.4,0.1-0.6c0,0,0-0.1,0-0.1l-5.8,0l0.1,0.1l0.8,0.7L287.5,143.3z"/>
	<path d="M117.5,142.8c0,0.1,0,0.2,0,0.3l13.7,0.1l11.2,0l0.1,0l-0.7-0.6l0,0l-10.5,0L117.5,142.8z"/>
	<path d="M289.3,133.6C289.4,133.5,289.4,133.5,289.3,133.6c0-0.1,0-0.2,0.1-0.3c0-0.1-0.1-0.3-0.1-0.4l-19.1,0l0,0l0.4,0.4l0.5,0.4
		l0,0L289.3,133.6z"/>
	<path d="M115.9,133.3l14.9,0.1l0.1,0l-0.6-0.5l-14.4,0.1c0,0,0,0,0,0C115.8,133.2,115.8,133.2,115.9,133.3z"/>
	<polygon points="233.8,132.8 233.7,132.7 230.8,132.7 164.5,132.9 164.5,132.9 164.7,133.1 165.3,133.5 230.8,133.7 233.8,133.7 
		234.9,133.7 	"/>
	<path d="M287.1,123.7c0-0.2-0.1-0.4-0.1-0.7l-28.4-0.1l-0.1,0l1,0.9L287.1,123.7C287.1,123.8,287.1,123.7,287.1,123.7z"/>
	<polygon points="153.2,123.4 153.6,123.7 157,123.7 164.5,123.8 220.7,123.9 223.2,123.9 222,122.9 222,122.9 197.5,123 
		164.5,123.1 153.4,123.1 152.8,123.1 	"/>
	<path d="M117.1,123.6l1.8,0l0.1,0l-0.4-0.3l-1.5,0c0,0,0,0,0,0.1C117.2,123.4,117.1,123.5,117.1,123.6z"/>
	<polygon points="141.9,113.9 144.3,113.9 164.5,114 211.5,114.1 211.5,114.1 210.4,113.2 164.5,113.3 158.6,113.3 141.3,113.3 
		141.2,113.3 	"/>
	<path d="M246.8,113.2L246.8,113.2l0.8,0.6l0.4,0.3h0l37-0.1c-0.1-0.2-0.1-0.5-0.2-0.7c0,0,0,0,0,0L246.8,113.2z"/>
	<polygon points="199.2,103.7 198.8,103.4 170,103.5 164.5,103.5 131.3,103.6 129.7,103.6 129.6,103.6 129.6,103.6 130.2,104.1 
		130.2,104.1 131.3,104.1 164.5,104.2 199.8,104.3 199.8,104.3 	"/>
	<path d="M281.8,103.5C281.8,103.5,281.8,103.5,281.8,103.5l-46.7-0.1l0.1,0.1l0.3,0.3l0.8,0.7l45-0.1l0.8,0
		C281.9,104,281.9,103.7,281.8,103.5z"/>
	<path d="M131.3,93.8l-4.9,0c-0.1,0.1-0.1,0.3-0.2,0.4c0,0,0,0,0,0l5.1,0l11.5,0l21.7,0.1l2.6,0l7.1,0c0,0,0,0,0,0
		c-0.3-0.2-0.6-0.5-0.9-0.7c0,0,0,0,0,0l-3.9,0l-4.8,0L131.3,93.8z"/>
	<path d="M232,93.5c-0.4,0.3-0.8,0.6-1.2,1c0,0-0.1,0-0.1,0.1l0.2,0l47.3-0.1c0,0,0,0,0,0c-0.1-0.3-0.2-0.5-0.4-0.8L232,93.5z"/>
	<path d="M240.8,83.8C240.8,83.8,240.8,83.8,240.8,83.8c-0.2,0.3-0.4,0.7-0.7,1l32.5-0.1c-0.2-0.3-0.4-0.5-0.5-0.8c0,0,0,0,0,0
		L240.8,83.8z"/>
	<path d="M131.9,84c-0.1,0.1-0.2,0.3-0.3,0.4c0,0-0.1,0.1-0.1,0.1l32.9,0.1l0.2,0c0,0,0,0,0,0c-0.2-0.2-0.3-0.4-0.5-0.7L131.9,84z"
		/>
	<path d="M249.8,74l-3.7,0c-0.1,0.3-0.3,0.6-0.4,0.9c0,0,0,0,0,0.1l18.8,0c0,0-0.1-0.1-0.1-0.1c-0.3-0.3-0.5-0.5-0.8-0.7
		c0,0,0,0,0,0L249.8,74z"/>
	<path d="M140.6,74.2c-0.2,0.2-0.4,0.3-0.6,0.5c0,0,0,0,0,0l19.2,0.1c0,0,0,0,0,0c-0.1-0.2-0.2-0.4-0.3-0.6L140.6,74.2z"/>
	<path d="M234.3,367.2l32.5-0.1c1.9-0.3,3.7-0.6,5.5-0.8l-39.2-0.1L234.3,367.2z"/>
	<path d="M131.3,366.5l-1.3,0c1,0.2,2,0.3,3,0.5l31.5,0.1l34.4,0.1l-1-0.9l-33.4,0.1L131.3,366.5z"/>
	<polygon points="164.5,356.6 131.3,356.7 117.1,356.8 117.4,357.1 123.8,357.1 131.3,357.2 164.5,357.3 187.1,357.4 187.2,357.4 
		187.1,357.3 186.3,356.6 186.2,356.6 	"/>
	<polygon points="221.5,356.5 221.5,356.5 221.6,356.6 222.6,357.4 222.6,357.4 230.8,357.5 276.4,357.3 291.9,357.3 291,356.6 
		230.8,356.4 	"/>
	<polygon points="210.5,347.3 210.9,347.6 221.5,347.7 230.8,347.7 246.3,347.6 280.2,347.5 280.2,347.5 280.1,347.4 279.3,346.8 
		230.8,346.7 213.3,346.7 209.8,346.7 	"/>
	<polygon points="131.3,346.9 105.5,347.1 105.5,347.1 105.7,347.2 131.3,347.4 164.5,347.5 175.4,347.5 175.2,347.3 174.6,346.8 
		174.6,346.8 174.4,346.8 164.5,346.8 	"/>
	<polygon points="131.3,337.6 163.7,337.7 163.1,337.2 162.9,337 131.3,337.1 104.9,337.3 104.9,337.4 104.9,337.4 	"/>
	<polygon points="198.2,337 198.3,337 199.2,337.8 199.2,337.8 216.1,337.9 230.8,337.9 268.6,337.8 268.6,337.8 267.6,337 
		230.8,336.9 	"/>
	<polygon points="299.9,327.3 297.2,327.3 294.7,327.2 292.4,327.2 292.4,327.2 293.2,327.9 297.2,327.9 299.9,327.9 	"/>
	<polygon points="210.5,328.1 230.8,328.1 257,328 256.9,328 255.9,327.1 237.3,327.1 230.8,327.1 186.6,327.2 187,327.6 187.5,328 
			"/>
	<polygon points="105.1,327.5 105.1,327.6 105.1,327.6 131.3,327.8 152,327.9 151.3,327.3 147.4,327.3 131.3,327.3 	"/>
	<polygon points="175,317.5 175.8,318.2 205.1,318.3 230.8,318.3 238.3,318.3 245.4,318.3 244.2,317.3 231.9,317.3 230.8,317.3 
		227.4,317.3 174.9,317.4 174.9,317.4 	"/>
	<polygon points="281.2,317.8 281.6,318.2 284.7,318.2 297.2,318.1 299.9,318.1 299.9,317.5 297.2,317.5 288.3,317.4 280.7,317.4 
		280.7,317.4 	"/>
	<polygon points="105.2,317.9 131.3,318.1 140.3,318.1 140.3,318.1 140,317.8 139.7,317.5 135.9,317.5 131.3,317.6 105.2,317.8 
		105.2,317.8 	"/>
	<polygon points="299.5,308.4 299.5,307.7 299.5,307.7 297.2,307.7 279.4,307.6 269,307.6 269,307.6 270,308.4 282.4,308.4 
		297.2,308.4 	"/>
	<polygon points="164.5,308.4 199.4,308.5 230.8,308.5 233.7,308.5 233.7,308.5 233.6,308.5 232.5,307.5 232.5,307.5 230.8,307.5 
		205.4,307.6 164.5,307.7 163.3,307.7 163.3,307.7 164.1,308.4 	"/>
	<polygon points="105.2,308.1 128.6,308.3 128.6,308.3 128.2,307.9 128.1,307.8 128.1,307.8 105.2,308 105.2,308 	"/>
	<polygon points="152.4,298.5 160.4,298.6 164.5,298.6 192.1,298.6 222,298.7 220.9,297.8 164.5,297.9 163,297.9 151.7,297.9 
		151.7,297.9 	"/>
	<polygon points="299.6,298.6 299.6,297.9 298.3,297.9 297.2,297.9 257.3,297.8 257.3,297.8 257.6,298 258.4,298.7 258.4,298.7 
		297.2,298.6 	"/>
	<polygon points="105.2,298.3 116.9,298.4 116.7,298.2 116.5,298.1 105.2,298.2 105.2,298.2 	"/>
	<polygon points="193.7,288 164.5,288.1 157.4,288.1 140.1,288.2 140.7,288.7 158.5,288.8 164.5,288.8 187.5,288.9 210.3,288.9 
		209.8,288.5 209.3,288 209.3,288 	"/>
	<polygon points="299.6,288.8 299.6,288.1 297.2,288.1 280.1,288.1 245.6,288 245.6,288 246.6,288.8 246.7,288.9 280.6,288.8 
		297.2,288.8 	"/>
	<polygon points="197.9,278.4 197.6,278.2 164.5,278.3 131.3,278.4 128.4,278.4 128.6,278.5 129,278.9 129,278.9 129.3,278.9 
		131.3,278.9 164.5,279 178.7,279 198.6,279.1 198.6,279.1 	"/>
	<polygon points="291,279 297.2,279 298.6,279 299.6,279 299.6,278.3 297.2,278.3 272.3,278.3 233.9,278.2 233.9,278.2 235.1,279.2 
			"/>
	<polygon points="117.2,269 131.3,269.1 164.5,269.2 174.6,269.2 186.9,269.3 186.9,269.3 186,268.5 179.3,268.5 164.5,268.5 
		131.3,268.6 116.9,268.7 116.9,268.7 	"/>
	<polygon points="230.8,269.4 246.8,269.3 292.7,269.2 292.6,269.2 291.8,268.5 265.2,268.5 230.8,268.4 222.2,268.4 222.3,268.4 
		223.4,269.4 	"/>
	<polygon points="105.5,259.1 131.3,259.3 164.5,259.4 169.4,259.4 175.2,259.5 175.2,259.5 174.7,259 174.4,258.7 170.9,258.7 
		164.5,258.8 146.8,258.8 131.3,258.8 105.4,259 105.3,259 	"/>
	<polygon points="210.9,258.8 211.7,259.6 229.4,259.6 230.8,259.6 237.1,259.6 281,259.5 281,259.5 280.1,258.7 280.1,258.7 
		264,258.7 230.8,258.6 223.7,258.6 210.6,258.6 210.6,258.6 	"/>
	<polygon points="230.8,248.8 199,248.9 199,248.9 199.3,249.2 200,249.7 230.8,249.8 269.4,249.7 269.4,249.7 269.1,249.5 
		268.4,248.9 	"/>
	<polygon points="131.3,249.6 147,249.6 163.5,249.6 163.5,249.6 163.4,249.5 162.7,249 131.3,249.1 105.1,249.3 105.1,249.3 
		105.1,249.4 	"/>
	<polygon points="256.7,239.1 238.3,239 230.8,239 187.4,239.1 187.4,239.1 188.3,239.9 230.8,240 243.1,240 257.8,240 257.8,240 	
		"/>
	<path d="M297.2,239.2L297.2,239.2l-6,0l0,0l0.8,0.7l5.2,0l0.1,0l0.1,0C297.3,239.6,297.3,239.4,297.2,239.2z"/>
	<path d="M107,239.6l24.3,0.2l10.6,0l10,0l-0.3-0.2l-0.4-0.4l-7,0l-12.8,0l-24.3,0.2c0,0,0,0,0,0C107,239.5,107,239.6,107,239.6z"/>
	<polygon points="230.8,230.2 246.1,230.2 245,229.3 236.1,229.2 230.8,229.2 208.4,229.3 175.7,229.4 175.8,229.4 176.6,230.1 
		176.6,230.1 	"/>
	<path d="M294.1,229.4L294.1,229.4l-14.5,0l-0.1,0l0.9,0.8l6.8,0l7,0l0,0C294.2,229.8,294.1,229.6,294.1,229.4z"/>
	<path d="M110.2,229.8l21.1,0.2l5.4,0l3.4,0l-0.7-0.5l-8.2,0l-21.1,0.2c0,0,0,0,0,0C110.2,229.7,110.2,229.8,110.2,229.8z"/>
	<path d="M112.8,220.3c0,0.1,0,0.1-0.1,0.2l16.3,0.1l0,0l-0.2-0.2l-0.4-0.3l-12,0.1L112.8,220.3
		C112.8,220.3,112.8,220.3,112.8,220.3z"/>
	<polygon points="183.5,220.8 230.8,220.9 235.1,220.9 235.1,220.9 233.9,219.9 230.8,219.9 171.3,220.1 164.7,220.1 165.1,220.4 
		165.5,220.8 	"/>
	<path d="M291.5,220.1l-23.1-0.1l-0.1,0l1,0.8l19.1,0l3.2,0C291.7,220.6,291.6,220.3,291.5,220.1z"/>
	<path d="M289.5,211c0-0.2-0.1-0.5-0.1-0.7l-32.7-0.1l0,0l0.5,0.4l0.6,0.5L289.5,211z"/>
	<path d="M115,210.5c0,0.1,0,0.2-0.1,0.3l2.3,0l0,0l-0.2-0.2l-0.1-0.1L115,210.5z"/>
	<polygon points="164.5,211 172.8,211 223.4,211.1 223.4,211.1 222.3,210.2 222.3,210.2 178.2,210.3 164.5,210.3 153.1,210.3 
		153.1,210.3 153.6,210.8 153.8,211 	"/>
	<polygon points="148.7,200.6 141.4,200.6 141.4,200.6 141.7,200.8 142.1,201.1 164.5,201.2 211.7,201.3 211.7,201.3 211.4,201 
		210.6,200.4 210.6,200.4 164.5,200.5 	"/>
	<path d="M257.2,200.4l-12.2,0l1.1,0.9l41.7-0.1c0,0,0,0,0,0c0-0.2-0.1-0.5-0.1-0.7L257.2,200.4z"/>
	<path d="M286.6,191.4C286.6,191.4,286.6,191.4,286.6,191.4c0-0.3,0-0.5-0.1-0.7l-29.3-0.1l-23.9-0.1l0,0l0.4,0.4l0.7,0.6l0,0
		l30.1-0.1L286.6,191.4z"/>
	<polygon points="200,191.5 199,190.7 179.9,190.7 164.5,190.7 131.3,190.8 129.8,190.8 129.8,190.8 130.4,191.3 131.3,191.3 
		164.5,191.4 	"/>
	<path d="M187.8,181.3l-0.5-0.4l0,0l-22.9,0.1l-17.1,0l-16.1,0l-12.5,0.1c0,0.1,0,0.2,0,0.3c0,0,0,0,0,0l12.5,0.1l33.2,0.1l21.5,0.1
		l2.4,0l0,0L187.8,181.3z"/>
	<path d="M222.8,181.8l5.9,0l2.1,0l55-0.1c0,0,0,0,0,0c0-0.2,0-0.5,0-0.7l-36.9-0.1l-18.1,0l-6.5,0l-2.7,0L222.8,181.8z"/>
	<path d="M131.3,171.8l15.1,0l18,0l8.6,0l3.5,0l0,0l-0.8-0.7l-0.1-0.1l-6.2,0l-5.1,0l-33.2,0.1l-12.1,0.1c0,0,0,0,0,0
		c0,0.1,0,0.2,0,0.3L131.3,171.8z"/>
	<polygon points="236.1,171 230.8,171 210,171.1 210.1,171.1 211.1,172 223.3,172 230.8,172 265,171.9 280.4,171.9 280.4,171.9 
		279.9,171.5 279.5,171.1 	"/>
	<polygon points="198.7,161.6 199.4,162.2 217.8,162.2 230.8,162.2 268.8,162.1 268.7,162.1 267.8,161.3 230.8,161.2 208.7,161.3 
		198.4,161.3 	"/>
	<path d="M131.3,162l33.2,0.1l0.4,0l0.1,0l-0.8-0.7l-32.8,0.1l-12.2,0.1c0,0,0,0,0,0c0,0.1,0,0.2,0,0.3L131.3,162z"/>
	<polygon points="187.7,152.3 230.8,152.4 249.2,152.4 257.2,152.4 256.6,151.9 256.1,151.5 249.3,151.5 230.8,151.4 186.7,151.5 
		186.7,151.5 	"/>
	<path d="M138.4,151.7l-7.1,0l-12.8,0.1c0,0,0,0,0,0c0,0.1,0,0.2,0,0.3l12.8,0.1l4.8,0l17.2,0l-0.1,0l-0.7-0.6L138.4,151.7z"/>
	<path d="M512.8,138l-53.8,0.1c0,0.1,0,0.1,0,0.2l53.8,0.1l90.3-0.1l28.8,0c0,0,0,0,0,0c0,0,0,0,0,0c0,0,0,0,0,0l-12.5,0L512.8,138z
		"/>
	<path d="M479.9,128.5l32.9,0l42-0.1l77-0.1c0,0,0,0,0,0c0,0,0,0,0,0l-119-0.2l-53.3,0.1c0,0.1,0,0.1,0,0.2c0,0,0,0,0,0L479.9,128.5
		z"/>
	<path d="M512.8,118.8l116.9-0.1c0,0,0,0,0,0c0,0,0,0,0,0l-116.9-0.1l-51.2,0.1c0,0.1,0,0.1,0,0.2c0,0,0,0,0,0L512.8,118.8z"/>
	<path d="M627.2,108.8l-114.3-0.1l-48.7,0.1c0,0,0,0,0,0c0,0.1,0,0.1-0.1,0.2l48.8,0.1l108.9-0.1L627.2,108.8
		C627.2,108.9,627.2,108.8,627.2,108.8z"/>
	<path d="M512.8,99.2l110.9-0.1c0,0,0,0,0,0c0,0,0,0,0,0l-110.9-0.1l-45.2,0.1c0,0,0,0,0,0c0,0.1-0.1,0.1-0.1,0.2L512.8,99.2z"/>
	<path d="M512.8,89.4L619,89.3c0,0,0,0,0,0c0,0,0,0,0,0l-98.8-0.1l-7.3,0l-5.7,0l-34.7,0c0,0,0,0,0,0c0,0.1-0.1,0.1-0.1,0.2
		L512.8,89.4z"/>
	<path d="M512.8,79.7l99.4-0.1c0,0,0,0-0.1-0.1c0,0,0,0,0,0l-52.8-0.1l-46.5-0.1l-33.5,0l0,0l0,0c-0.1,0.1-0.1,0.2-0.2,0.3
		L512.8,79.7z"/>
	<path d="M512.8,69.5l-23.2,0c-0.1,0.1-0.3,0.2-0.4,0.3l23.6,0l76.8-0.1l12.3,0c0,0,0,0,0,0c0,0-0.1-0.1-0.1-0.1c0,0,0,0,0,0l-7.9,0
		L512.8,69.5z"/>
	<polygon points="512.8,59.7 504.8,59.8 504.3,60.1 512.8,60.1 548.2,60 587.6,60 587.6,60 587.4,59.8 	"/>
	<polygon points="573.4,50.2 573.2,50.1 573.1,50 520.1,50 520,50 519.6,50.3 	"/>
	<path d="M512.8,371.6l-40.9,0.1c0.2,0.1,0.4,0.2,0.6,0.2l27,0l2.2,0l11,0l104.3-0.1c0.1,0,0.1,0,0.2-0.1L512.8,371.6z"/>
	<path d="M621.5,362l20.5,0c0,0,0,0,0,0L621.5,362l-75.3-0.2l-33.4,0l-9.5,0l-35.3,0l-19.3,0c0.1,0,0.2,0.1,0.4,0.2l63.6,0.1l78-0.1
		L621.5,362z"/>
	<polygon points="643.2,352.2 519.9,352 512.8,352 505.4,352 447.9,352.1 447.9,352.1 447.9,352.3 479.9,352.3 512.8,352.3 
		594.8,352.2 634.3,352.2 643.2,352.2 	"/>
	<polygon points="643.2,342.4 575.9,342.3 512.8,342.2 449.9,342.3 448.2,342.3 448.2,342.3 448.1,342.5 512.8,342.6 639.4,342.4 
		643.2,342.4 	"/>
	<polygon points="512.8,332.4 448.4,332.5 448.4,332.7 512.8,332.8 630.5,332.6 643.2,332.6 643.2,332.6 631.9,332.6 	"/>
	<polygon points="512.8,322.6 448.6,322.7 448.6,322.9 448.6,322.9 451.2,322.9 512.8,323 574.8,322.9 643.2,322.8 643.2,322.8 
		639.2,322.8 	"/>
	<polygon points="594.3,313 512.8,312.9 480.1,312.9 448.6,312.9 448.6,313.1 448.6,313.1 506.4,313.2 512.8,313.2 518.9,313.2 
		643,313 643,313 634.3,313 	"/>
	<polygon points="567,303.1 512.8,303.1 448.6,303.2 448.6,303.2 448.6,303.3 448.6,303.3 512.8,303.4 643,303.2 643,303.2 
		629.3,303.2 	"/>
	<polygon points="512.8,293.3 448.6,293.4 448.6,293.4 448.6,293.5 448.6,293.5 512.8,293.6 564.2,293.6 628.8,293.5 643.1,293.5 
		643.1,293.5 	"/>
	<polygon points="643.1,283.7 513.3,283.5 512.8,283.5 511.9,283.5 448.6,283.6 448.6,283.6 448.6,283.8 481.2,283.8 512.8,283.8 
		591.4,283.7 633.8,283.7 643.1,283.7 	"/>
	<polygon points="569.5,273.8 512.8,273.7 456.4,273.8 448.6,273.8 448.6,273.8 448.6,274 512.8,274.1 638.8,273.9 643.1,273.9 
		643.1,273.9 	"/>
	<polygon points="624.6,264.1 512.8,263.9 448.6,264 448.6,264.2 512.8,264.3 636.7,264.1 643.1,264.1 643.1,264.1 643.1,264.1 
		643.1,264.1 	"/>
	<polygon points="512.8,254.1 448.6,254.2 448.6,254.4 512.8,254.5 581.2,254.4 643.1,254.3 643.1,254.3 639.8,254.3 	"/>
	<polygon points="499.7,244.7 512.8,244.7 525.4,244.7 643.1,244.5 643.1,244.5 634.8,244.5 597.6,244.5 512.8,244.4 478.8,244.4 
		448.5,244.4 448.5,244.6 448.5,244.6 	"/>
	<path d="M512.8,234.9l127.3-0.2c0,0,0,0,0,0l-10.4,0l-59.5-0.1l-57.5-0.1l-62,0.1c0,0,0,0,0,0c0,0,0,0.1,0,0.1c0,0,0,0,0,0
		L512.8,234.9z"/>
	<path d="M512.8,225.1l48.3-0.1l67-0.1l9.1,0c0,0,0,0,0,0l-124.4-0.2l-59.1,0.1c0,0,0,0,0,0c0,0,0,0.1,0,0.1c0,0,0,0,0,0
		L512.8,225.1z"/>
	<path d="M634.9,215.6l-122-0.2l-56.7,0.1c0,0,0,0,0,0c0,0,0,0.1,0,0.1c0,0,0,0,0,0l56.8,0.1l54.9-0.1l61.6-0.1L634.9,215.6
		C634.9,215.7,634.9,215.7,634.9,215.6z"/>
	<path d="M632.9,205.9C632.9,205.9,632.9,205.9,632.9,205.9C632.9,205.9,632.9,205.9,632.9,205.9l-112.5-0.2l-7.5,0l-8,0l-46.8,0.1
		c0,0,0,0,0,0c0,0.1,0,0.1,0,0.2l21.8,0l32.9,0l82.1-0.1L632.9,205.9z"/>
	<path d="M576.1,196l-63.2-0.1l-53.2,0.1c0,0.1,0,0.1,0,0.2l53.3,0.1l118.5-0.2c0,0,0,0,0,0c0,0,0,0,0,0L576.1,196z"/>
	<path d="M512.8,186.1l-52.2,0.1c0,0.1,0,0.1,0,0.2l52.2,0.1l117.5-0.2c0,0,0,0,0,0L512.8,186.1z"/>
	<path d="M512.8,176.3l-51.6,0.1c0,0.1,0,0.1,0,0.2l51.6,0.1l61.9-0.1l55-0.1c0,0,0,0,0,0c0,0,0,0,0,0L512.8,176.3z"/>
	<path d="M506.5,166.9l6.3,0l5.9,0l110.9-0.1c0,0,0,0,0,0c0,0,0,0,0,0l-35.3,0l-81.4-0.1l-32.7,0l-18.7,0c0,0.1,0,0.1,0,0.2
		c0,0,0,0,0,0L506.5,166.9z"/>
	<path d="M629.2,156.9l-62.2-0.1l-54.2-0.1l-51.8,0.1c0,0,0,0,0,0c0,0,0,0.1,0,0.1c0,0,0,0,0,0l51.7,0.1l117-0.2c0,0,0,0,0,0
		L629.2,156.9z"/>
	<path d="M630.7,147.1L512.8,147l-52.6,0.1c0,0,0,0,0,0c0,0.1,0,0.1,0,0.2l52.6,0.1l115.4-0.1L630.7,147.1
		C630.7,147.2,630.7,147.1,630.7,147.1z"/>
	<polygon points="497.1,143.5 497.2,143.5 512.8,143.5 566.7,143.4 567.6,142.6 551.2,142.6 512.8,142.5 501.8,142.5 498.3,142.5 
		498.3,142.5 	"/>
	<path d="M460.9,143.4l0.9-0.8h0l-2.1,0c0,0.2,0.1,0.5,0.1,0.7c0,0,0,0,0,0.1L460.9,143.4z"/>
	<path d="M601.2,143.3l11.2,0l18.8-0.1c0-0.1,0-0.1,0-0.2c0,0,0,0,0-0.1l-18.9-0.1l-10.1,0l-0.5,0L601.2,143.3z"/>
	<path d="M632.9,133.3C632.9,133.3,632.9,133.3,632.9,133.3c0-0.1,0-0.1,0-0.2l-19.5-0.1l-0.5,0.4l-0.1,0L632.9,133.3z"/>
	<polygon points="512.8,133.7 578.4,133.5 578.7,133.3 579.1,132.9 579.2,132.9 512.8,132.7 510,132.7 508.8,133.7 508.8,133.7 
		509.9,133.7 	"/>
	<path d="M472.5,133.6l1-0.8l0,0l-15.1,0c0,0,0,0,0,0c-0.1,0.2-0.1,0.5-0.2,0.7L472.5,133.6z"/>
	<polygon points="522.9,123.9 579.2,123.8 586.7,123.7 590.1,123.7 590.8,123.1 590.8,123.1 590.2,123.1 579.2,123.1 546.1,123 
		521.6,122.9 521,123.4 520.5,123.9 	"/>
	<path d="M630.8,123.5c0-0.1,0-0.1,0-0.2c0,0,0,0,0,0l-5.7,0l-0.1,0l-0.3,0.3L630.8,123.5z"/>
	<path d="M484.2,123.8l1-0.8l0,0l-24.5,0.1c0,0,0,0,0,0c0,0.2-0.1,0.5-0.1,0.7L484.2,123.8z"/>
	<path d="M462.9,113.2C462.9,113.3,462.9,113.3,462.9,113.2c-0.1,0.3-0.1,0.5-0.2,0.8l33.1,0.1l1.1-0.9l0.1,0L462.9,113.2z"/>
	<polygon points="579.2,113.3 533.3,113.2 532.2,114.1 532.2,114.1 579.2,114 599.5,113.9 601.8,113.9 601.8,113.9 602.1,113.6 
		602.5,113.3 602.4,113.3 585.1,113.3 	"/>
	<path d="M507.4,104.3l1.2-1l-0.1,0l-42.7,0.1c-0.1,0.2-0.2,0.4-0.2,0.7c0,0,0,0.1,0,0.1L507.4,104.3z"/>
	<polygon points="612.4,104.1 613.5,104.1 614.1,103.6 614,103.6 612.4,103.6 579.2,103.5 573.9,103.5 544.9,103.4 544.9,103.4 
		543.9,104.3 543.9,104.3 579.2,104.2 	"/>
	<path d="M512.8,94.6l6.2,0l1.2-1l0,0l-7.4,0L470,93.7c-0.1,0.2-0.2,0.4-0.3,0.7c0,0,0,0.1-0.1,0.1L512.8,94.6z"/>
	<path d="M612.4,93.8l-33.2-0.1l-4.8,0l-17.9,0l-1,0.8l0.1,0l23.5-0.1l22.1-0.1l11.1,0l9.2-0.1c0,0,0,0,0,0
		c-0.1-0.1-0.1-0.2-0.2-0.4L612.4,93.8z"/>
	<path d="M495.9,84.7l16.9,0l7.3,0l10.6,0l0.9-0.7l0.2-0.2l-1.8,0l-17.2,0l-37,0.1c0,0,0,0,0,0c-0.2,0.3-0.4,0.5-0.5,0.8
		c0,0,0,0,0,0L495.9,84.7z"/>
	<path d="M579.2,84.6l33.2-0.1l3.6,0c0,0,0,0,0,0c-0.1-0.1-0.2-0.3-0.3-0.4l-3.3,0l-33.2-0.1l-10.2,0l-0.8,0l0,0l-0.8,0.7l0,0
		L579.2,84.6z"/>
	<path d="M607.8,74.7C607.7,74.7,607.7,74.7,607.8,74.7c-0.2-0.2-0.4-0.4-0.5-0.5l-27.4-0.1l-0.4,0.4l-0.4,0.3l0.2,0L607.8,74.7z"/>
	<path d="M512.8,75l9.9,0l19.7-0.1l1-0.9l-0.1,0l-18.9,0l-11.7,0L484.3,74c0,0,0,0,0,0c-0.3,0.3-0.6,0.6-0.9,0.8L512.8,75z"/>
	<polygon points="594.1,64.4 591.4,64.4 590.7,65 594.9,65 594.9,65 594.1,64.4 	"/>
	<polygon points="512.8,65.2 552.4,65.1 554.2,65.1 554.4,64.9 555.1,64.3 512.8,64.2 497.8,64.2 497.7,64.3 496.3,65.1 496.3,65.2 
			"/>
	<polygon points="512.8,55.4 542.2,55.3 565.9,55.3 566.4,54.8 566.8,54.5 566.8,54.5 515.7,54.4 513.2,54.4 513.2,54.4 511.6,55.4 
		511.6,55.4 	"/>
	<path d="M498.9,376l-13.8,0c1,0.3,1.9,0.6,2.9,0.9l9.8,0L498.9,376z"/>
	<path d="M579.2,376.2l-13.2,0l-31.8-0.1l-1,0.9l-0.1,0.1h0l14.9,0l31.1-0.1l22.2-0.1c0.6-0.2,1.3-0.4,1.9-0.6L579.2,376.2z"/>
	<polygon points="612.4,366.5 579.2,366.4 573.5,366.4 545.8,366.3 545.1,366.9 544.8,367.2 544.8,367.2 579.2,367.1 601.3,367 
		612.4,367 614.5,367 615,366.5 	"/>
	<path d="M460.5,367.1l22.6,0.1l26.3,0.1l1.2-1l-30,0.1l-21.8,0.1C459.3,366.6,459.8,366.9,460.5,367.1z"/>
	<polygon points="451.8,357.3 512.8,357.5 521,357.4 522.2,356.5 522.1,356.5 512.8,356.4 455.5,356.6 452.6,356.6 	"/>
	<polygon points="626.5,356.9 626.6,356.8 612.4,356.7 579.2,356.6 574.7,356.6 557.5,356.6 556.5,357.4 556.6,357.4 579.2,357.3 
		603.5,357.2 612.4,357.2 620.9,357.1 626.2,357.1 626.2,357.1 	"/>
	<polygon points="638.1,347.1 612.4,346.9 579.2,346.8 569.2,346.8 569.1,346.8 569,346.9 568.3,347.5 568.2,347.5 579.2,347.5 
		612.4,347.4 638,347.2 638.1,347.1 	"/>
	<polygon points="512.8,346.7 464.3,346.8 464.3,346.8 463.5,347.5 463.4,347.5 497.2,347.6 512.8,347.7 522,347.7 532.7,347.6 
		533.8,346.7 533.8,346.7 530.3,346.7 	"/>
	<polygon points="643.2,337.4 626,337.2 612.4,337.1 580.7,337 579.9,337.7 579.9,337.7 612.4,337.6 641.4,337.4 643.1,337.4 
		643.2,337.4 	"/>
	<polygon points="512.8,337.9 527.2,337.9 544.4,337.8 544.8,337.5 545.4,337 545.5,337 512.8,336.9 476,337 475.8,337.1 475,337.8 
			"/>
	<polygon points="512.8,327.1 506.3,327.1 487.7,327.1 486.7,328 486.7,328 512.8,328.1 533.8,328.1 556.1,328 556.1,328 
		556.9,327.3 557.1,327.2 557.1,327.2 	"/>
	<polygon points="632.4,327.5 612.4,327.3 596.3,327.3 592.4,327.3 591.8,327.7 591.6,327.9 591.6,327.9 612.4,327.8 643.2,327.6 
		643.2,327.6 	"/>
	<polygon points="448.5,327.9 448.5,327.9 450.4,327.9 451.3,327.2 451.2,327.2 449.6,327.2 448.5,327.2 448.5,327.3 	"/>
	<polygon points="512.8,317.3 511.8,317.3 499.4,317.3 498.5,318.1 498.3,318.3 498.3,318.3 505.3,318.3 512.8,318.3 538.7,318.3 
		567.8,318.2 567.8,318.2 568.7,317.4 568.7,317.4 516.4,317.3 	"/>
	<polygon points="612.4,317.6 607.8,317.5 604,317.5 603.3,318.1 612.4,318.1 631.2,317.9 643.2,317.8 643.2,317.8 	"/>
	<polygon points="462.1,318.2 463,317.4 456.4,317.4 448.6,317.5 448.6,317.5 448.6,318.2 	"/>
	<polygon points="643,308 643,308 627.4,307.9 615.6,307.8 615,308.3 615.1,308.3 630.4,308.1 643,308 	"/>
	<polygon points="465.8,307.6 448.6,307.7 448.6,307.7 448.6,308.4 461.2,308.4 473.7,308.4 474.2,308 474.7,307.6 	"/>
	<polygon points="511.1,307.5 510,308.5 509.9,308.5 512.8,308.5 544.3,308.5 579.2,308.4 579.5,308.4 580.3,307.7 580.4,307.7 
		579.2,307.7 538.1,307.6 512.8,307.5 	"/>
	<polygon points="579.2,297.9 522.8,297.8 522.1,298.4 521.6,298.7 521.6,298.7 551.6,298.6 579.2,298.6 583.3,298.6 591.3,298.5 
		592,297.9 592,297.9 580.7,297.9 	"/>
	<polygon points="448.6,297.9 448.6,297.9 448.6,298.6 485.3,298.7 486.4,297.8 486.4,297.8 	"/>
	<polygon points="643.1,298.2 629.3,298.1 627.1,298.1 627.1,298.1 626.9,298.3 626.8,298.4 626.8,298.4 643.1,298.3 	"/>
	<polygon points="586.4,288.1 579.2,288.1 549.8,288 534.4,288 534.4,288 533.3,288.9 533.3,288.9 556.3,288.8 579.2,288.8 
		585.2,288.8 603,288.7 603,288.7 603.6,288.2 603.6,288.2 	"/>
	<polygon points="460.8,288.1 448.6,288.1 448.6,288.8 460.2,288.8 496.9,288.9 497.5,288.4 498,288 498.1,288 	"/>
	<polygon points="643.1,288.4 638.9,288.4 638.7,288.4 638.7,288.4 638.7,288.4 638.6,288.5 639,288.5 643.1,288.5 	"/>
	<polygon points="457.9,279 508.6,279.2 509.7,278.2 509.8,278.2 470.1,278.3 448.6,278.3 448.6,279 448.6,279 	"/>
	<polygon points="614.9,278.7 615.2,278.4 615.2,278.4 612.4,278.4 579.2,278.3 546,278.2 545,279.1 564.9,279 579.2,279 
		612.4,278.9 614.4,278.9 614.7,278.9 	"/>
	<polygon points="626.8,268.7 612.4,268.6 579.2,268.5 564.4,268.5 557.7,268.5 556.7,269.3 556.7,269.3 569,269.2 579.2,269.2 
		612.4,269.1 626.4,269 626.8,268.7 	"/>
	<polygon points="521.4,268.4 512.8,268.4 478.6,268.5 451.8,268.5 451,269.2 451,269.2 496.7,269.3 512.8,269.4 520.2,269.4 
		520.2,269.4 	"/>
	<polygon points="512.8,258.6 479.9,258.7 463.5,258.7 462.7,259.5 462.6,259.5 462.6,259.5 506.8,259.6 512.8,259.6 514.3,259.6 
		531.9,259.6 532,259.5 533,258.6 533,258.6 520,258.6 	"/>
	<polygon points="596.9,258.8 579.2,258.8 572.8,258.7 569.3,258.7 568.8,259.2 568.4,259.5 568.4,259.5 574.2,259.4 579.2,259.4 
		612.4,259.3 638.2,259.1 638.3,259 638.3,259 612.4,258.8 	"/>
	<polygon points="643.1,249.3 612.4,249.1 580.9,249 580.8,249 580.2,249.6 580.1,249.6 596.6,249.6 612.4,249.6 631.7,249.4 
		643.1,249.3 	"/>
	<polygon points="512.8,249.8 543.7,249.7 543.7,249.7 544.7,248.9 544.7,248.9 512.8,248.8 475.2,248.9 475.2,248.9 474.7,249.4 
		474.3,249.7 	"/>
	<polygon points="512.8,240 555.4,239.9 555.4,239.9 555.8,239.6 556.3,239.1 556.3,239.1 512.8,239 505.2,239 486.9,239.1 
		486.9,239.1 486.7,239.3 485.9,240 485.9,240 500.6,240 	"/>
	<path d="M641.8,239.5L641.8,239.5l-0.7,0l-28.7-0.2l-12.7,0l-7.1,0l0,0l-0.2,0.2l-0.5,0.4l0,0l10,0l10.6,0l13-0.1L641.8,239.5
		C641.8,239.5,641.8,239.5,641.8,239.5z"/>
	<path d="M451.6,239.9l0.8-0.7l0,0l-3.1,0c0,0,0,0,0,0c-0.1,0.2-0.2,0.4-0.2,0.7L451.6,239.9z"/>
	<polygon points="512.8,230.2 567.1,230.1 567.1,230.1 567.9,229.4 567.9,229.4 535.1,229.3 512.8,229.2 507.5,229.2 498.6,229.3 
		498.5,229.4 497.5,230.2 497.5,230.2 	"/>
	<path d="M452.3,230.1l4.2,0l6.8,0l0,0l0.4-0.3l0.5-0.4l0,0l-11.7,0C452.4,229.6,452.4,229.9,452.3,230.1z"/>
	<path d="M638.6,229.8c0,0,0-0.1,0-0.1l-11.1-0.1l-15.1-0.1l-8.2,0l-0.4,0.3l-0.2,0.2l0,0l3.4,0l5.4,0L638.6,229.8z"/>
	<polygon points="512.8,220.9 560.1,220.8 578.2,220.8 579,220.1 579,220.1 572.5,220.1 512.8,219.9 509.8,219.9 508.6,220.9 
		508.6,220.9 	"/>
	<path d="M454.9,220.8l0.3,0l19.1,0l1-0.8h0l-20.2,0.1C455,220.3,454.9,220.6,454.9,220.8z"/>
	<path d="M636,220.4l-20.8-0.2l-0.1,0.1l-0.4,0.3l0.1,0l21.3-0.2C636,220.5,636,220.4,636,220.4z"/>
	<path d="M457.2,210.3c0,0.2-0.1,0.5-0.1,0.7l28.8,0.1l0,0l1-0.8l0,0L457.2,210.3z"/>
	<polygon points="565.4,210.3 521.4,210.2 521.1,210.4 520.3,211.1 520.2,211.1 570.8,211 579.2,211 589.9,211 590.3,210.6 
		590.6,210.3 590.6,210.3 579.2,210.3 	"/>
	<path d="M633.8,210.7c0-0.1,0-0.1,0-0.2l-7-0.1l0,0l-0.1,0.1l-0.2,0.2L633.8,210.7z"/>
	<path d="M485.6,200.4l-26.6,0.1c0,0.2-0.1,0.5-0.1,0.7c0,0,0,0,0,0l38.7,0.1l0.4-0.3l0.8-0.6l0,0L485.6,200.4z"/>
	<polygon points="579.2,200.5 533,200.4 532,201.3 531.9,201.3 579.2,201.2 601.6,201.1 602.2,200.6 594.9,200.6 	"/>
	<path d="M485.7,190.6l-25.5,0.1c0,0.2-0.1,0.5-0.1,0.7c0,0,0,0,0,0l21.7,0.1l27.3,0.1l1.2-1l0,0L485.7,190.6z"/>
	<polygon points="579.2,190.7 563.7,190.7 544.7,190.7 544,191.2 543.7,191.5 543.6,191.5 579.2,191.4 612.4,191.3 613.3,191.3 
		613.9,190.8 613.9,190.8 612.4,190.8 	"/>
	<path d="M512.8,181.8l2.1,0l5.9,0l0.6-0.5l0.6-0.5l0,0l-2.6,0l-6.5,0l-18,0l-33.8,0.1c0,0.2,0,0.5,0,0.7c0,0,0,0,0,0L512.8,181.8z"
		/>
	<polygon points="557.6,181.7 579.2,181.6 612.4,181.5 625.1,181.4 625.4,181.1 625.4,181.1 612.4,181 596.3,181 579.2,181 
		556.3,180.9 556.1,181 555.3,181.7 	"/>
	<polygon points="464,171.3 463.2,171.9 478.9,171.9 512.8,172 520.4,172 532.6,172 533.6,171.1 533.7,171.1 512.8,171 507.8,171 
		464.2,171.1 464.2,171.1 	"/>
	<path d="M629.6,171.6c0-0.1,0-0.2,0-0.2l-5.1,0l-12.1-0.1l-33.2-0.1l-5.1,0l-6.1,0l-0.9,0.7l3.5,0l8.7,0l18,0l15.1,0L629.6,171.6z"
		/>
	<path d="M612.4,161.5l-32.8-0.1l-0.8,0.7h0l0.5,0l33.2-0.1l12.4-0.1l4.9,0c0,0,0,0,0,0c0-0.1,0-0.1,0-0.2c0,0,0,0,0,0L612.4,161.5z
		"/>
	<polygon points="475.3,161.8 474.9,162.1 474.9,162.1 512.8,162.2 525.9,162.2 544.3,162.2 545.3,161.3 545.3,161.3 534.9,161.3 
		512.8,161.2 475.9,161.3 475.9,161.3 	"/>
	<path d="M630.2,152.1c0-0.1,0-0.2,0-0.2l-4.6,0l-13.2-0.1l-7,0l-14.2,0l-0.7,0.6l-0.1,0l17.2,0l4.8,0L630.2,152.1z"/>
	<polygon points="494.4,151.5 487.6,151.5 486.5,152.4 486.5,152.4 494.5,152.4 512.8,152.4 556,152.3 556.9,151.5 556.9,151.5 
		512.8,151.4 	"/>
</g>
</svg>
