<?xml version="1.0" encoding="utf-8"?>
<!-- Generator: Adobe Illustrator 25.3.0, SVG Export Plug-In . SVG Version: 6.00 Build 0)  -->
<svg version="1.1" id="Layer_1" xmlns="http://www.w3.org/2000/svg" xmlns:xlink="http://www.w3.org/1999/xlink" x="0px" y="0px"
	 viewBox="0 0 750.2 400.1" style="enable-background:new 0 0 750.2 400.1;" xml:space="preserve">
<style type="text/css">
	.st0{fill:none;}
	.st1{fill:none;stroke:#000000;stroke-width:0;stroke-linecap:round;stroke-linejoin:round;}
</style>
<g>
	<polygon class="st0" points="551,145.6 541.5,151.1 548.5,151.1 	"/>
	<polygon class="st0" points="586.3,151.2 591.4,175.3 596.4,176.7 596.4,151.2 	"/>
	<polygon class="st0" points="120.7,243.9 120.7,255.3 126.1,245.3 126.2,245.3 126.9,243.9 	"/>
	<polygon class="st0" points="523.1,130.3 536.9,148 538.9,145.9 545.6,106.6 	"/>
	<polygon class="st0" points="596.4,104.7 596.4,102.7 592.7,104.7 	"/>
	<polygon class="st0" points="253.2,329.4 245.3,336.6 250.7,336.6 253.2,334.4 	"/>
	<polygon class="st0" points="289.2,336.5 289.2,336.5 289.2,336.5 289.2,336.5 	"/>
	<polygon class="st0" points="592.7,104.7 588.1,104.7 558.3,120.3 561,104.7 558.8,104.7 555.5,124.3 	"/>
	<polygon class="st0" points="201.6,336.5 201.6,336.5 201.6,336.5 201.6,336.5 	"/>
	<rect x="464.3" y="269.7" transform="matrix(0.8976 -0.4408 0.4408 0.8976 -71.3364 232.2902)" class="st0" width="0" height="0"/>
	<path class="st0" d="M245.2,336.6L245.2,336.6L245.2,336.6l-36.1,0v28c0,0,0,0,0,0v4.7l12.4-11.2L245.2,336.6z"/>
	<polygon class="st0" points="512.5,290.2 512.5,290.2 512.5,290.2 512.5,290.2 	"/>
	<polygon class="st0" points="253.2,228 253.2,223.2 243,243.9 245.4,243.9 	"/>
	<polygon class="st0" points="552.2,382.9 552.2,381.1 549.1,382.9 	"/>
	<polygon class="st0" points="213.3,330.8 209,330.1 209,334.7 	"/>
	<rect x="596.4" y="104.7" class="st0" width="0.1" height="0.1"/>
	<rect x="596.4" y="151.1" class="st0" width="0.1" height="0.1"/>
	<polygon class="st0" points="557.1,190.5 554,197.4 560.9,197.4 	"/>
	<polygon class="st0" points="179.4,290.2 183.4,290.2 164.9,248.9 164.9,257.8 	"/>
	<path class="st0" d="M494.4,227.5l-14.9-30.1h-2.4l19.3,39.1l11.7,1.7v-4.1L494.4,227.5z M497.8,234.6l-0.8-1.8l4.8,2.3
		L497.8,234.6z"/>
	<polygon class="st0" points="552.3,197.4 552.3,201.2 554,197.4 	"/>
	<polygon class="st0" points="508.1,238.2 508.1,241.4 509.5,238.4 	"/>
	<polygon class="st0" points="164.8,304.9 164.8,305 164.8,304.9 164.8,304.8 	"/>
	<rect x="132.2" y="290.1" class="st0" width="0" height="0"/>
	<polygon class="st0" points="502.7,197.4 493.1,197.4 503.8,202.5 	"/>
	<polygon class="st0" points="475.3,188.9 479.5,197.4 493.1,197.4 	"/>
	<polygon class="st0" points="204.6,290.2 204.6,290.2 204.6,290.2 204.6,290.2 	"/>
	<polygon class="st0" points="533.7,290.2 537.7,290.2 552.2,257.8 552.2,248.9 	"/>
	<polygon class="st0" points="205.6,292.5 205.6,292.4 204.6,290.2 183.4,290.2 190.6,306.3 209,309.7 209,293.1 208.9,293.1 	"/>
	<polygon class="st0" points="164.8,197.4 163.1,197.4 164.8,201.2 	"/>
	<polygon class="st0" points="607.7,219.3 597.3,214.4 613.2,243.8 626.3,243.8 	"/>
	<polygon class="st0" points="160,190.5 156.2,197.4 163.1,197.4 	"/>
	<polygon class="st0" points="640.6,264.6 642.9,265.7 641.8,264.2 640.6,262.7 	"/>
	<polygon class="st0" points="624.6,272.6 640.6,274.3 640.6,270.6 630.6,269.5 626.9,269.1 626.9,269.1 626.9,269.1 621.8,259.7 
		621.8,259.7 621.8,259.7 640.6,268.7 640.6,264.6 636.3,262.5 618.8,254.2 613.2,243.8 609,243.8 609.8,245.3 609.8,245.3 	"/>
	<rect x="209" y="293.1" transform="matrix(0.1813 -0.9834 0.9834 0.1813 -117.1449 445.4801)" class="st0" width="0" height="0"/>
	<polygon class="st0" points="508.1,111.1 520.8,127.4 542.3,104.8 508.1,104.8 508.1,111 504.8,106.8 506.8,104.7 499.5,104.7 
		508.1,115.7 	"/>
	<polygon class="st0" points="616.8,336.5 616.8,336.5 616.8,336.5 616.8,336.5 	"/>
	<polygon class="st0" points="224,197.4 237.6,197.4 241.8,188.9 	"/>
	<polygon class="st0" points="179.4,290.2 179.4,290.2 179.4,290.2 179.4,290.2 	"/>
	<polygon class="st0" points="534.2,70.7 508,98.3 508,103.5 542,67.8 508,64.2 508,67.9 	"/>
	<polygon class="st0" points="572.7,169 573.3,170.1 577.6,171.3 	"/>
	<polygon class="st0" points="213.3,202.5 224,197.4 214.4,197.4 	"/>
	<polygon class="st0" points="606.9,197.5 609.8,197.5 608.3,195.7 614.8,197.5 623.1,197.5 602.4,191.6 	"/>
	<polygon class="st0" points="164.9,257.8 164.9,257.7 164.9,257.8 164.9,257.9 	"/>
	<polygon class="st0" points="463.9,321.6 457.6,322.7 456.7,322.9 463.9,329.4 	"/>
	<polygon class="st0" points="158.3,234.1 153,243.9 157.2,243.9 158,242.4 158.6,243.9 162.7,243.9 	"/>
	<polygon class="st0" points="162.7,243.9 164.9,248.7 164.9,245.3 164.9,245.3 164.9,243.8 183.8,243.8 164.8,201.2 164.8,243.9 	
		"/>
	<polygon class="st0" points="508.1,336.5 510,336.5 508.1,334.8 	"/>
	<polygon class="st0" points="463.9,321.6 463.9,321.6 463.9,321.6 463.9,321.6 	"/>
	<polygon class="st0" points="209.1,245.3 209.1,245.3 209.1,243.9 210.1,243.9 209,241.4 209,243.8 206,243.8 209.1,250.7 	"/>
	<polygon class="st0" points="471.8,336.6 508,369.3 508,336.6 	"/>
	<polygon class="st0" points="503.9,330.9 508.1,334.7 508.1,330.1 	"/>
	<polygon class="st0" points="205.3,333.1 202.8,332.6 170.5,326.7 170.5,326.7 170.5,326.7 164.8,314 164.8,332.1 171.6,333.3 
		185.7,335.9 185.7,335.9 185.7,335.9 185.4,336.2 185.2,336.5 201.6,336.5 203.9,334.3 	"/>
	<polygon class="st0" points="209,336.4 209,334.8 207.2,336.4 	"/>
	<polygon class="st0" points="213,290.1 213,290.1 213,290.1 213,290.1 	"/>
	<polygon class="st0" points="182.8,149.4 209,149.5 209,115.7 	"/>
	<polygon class="st0" points="297,285 297,285 297,285 297,285 	"/>
	<polygon class="st0" points="131.2,336.6 131.2,336.6 131.2,336.6 131.2,336.6 	"/>
	<polygon class="st0" points="168.5,151.1 175.7,151.1 166,145.5 	"/>
	<polygon class="st0" points="188,309.6 182.7,297.8 179.4,290.2 164.9,290.2 164.9,257.8 162.8,253.3 158.6,243.9 157.2,243.9 
		132.2,290.1 154.2,290.1 155.3,288.1 156.3,286.1 156.3,286.1 156.3,286.1 158.1,290.1 164.8,290.1 164.8,304.9 173.1,323.4 
		209,330 209,313.4 196.1,311.1 	"/>
	<polygon class="st0" points="253.2,317.8 253.2,317.8 253.2,317.8 253.2,317.8 	"/>
	<polygon class="st0" points="209,309.7 209,313.4 209,313.4 209,313.4 253.2,321.6 253.2,317.8 	"/>
	<polygon class="st0" points="252.8,283.3 252.8,283.3 252.8,283.3 252.8,283.3 	"/>
	<polygon class="st0" points="253.2,334.4 253.2,334.4 253.2,334.4 253.2,334.4 	"/>
	<polygon class="st0" points="290.7,290.2 290.5,290.2 290.7,290.2 290.9,290.2 	"/>
	<polygon class="st0" points="253.2,297.5 253.2,297.5 253.2,297.5 253.2,297.5 	"/>
	<polygon class="st0" points="253.2,329.4 253.2,329.4 253.2,329.4 253.2,329.4 	"/>
	<polygon class="st0" points="253.2,329.4 260.4,322.9 259,322.7 253.2,321.6 	"/>
	<polygon class="st0" points="253.2,321.6 253.2,321.6 253.2,321.6 253.2,321.6 	"/>
	<polygon class="st0" points="131,336.4 131,336.4 146.1,334.8 147.3,334.7 149.7,330.2 155,320.3 155,320.4 155,320.3 160.7,333 
		161.7,335.2 164.8,335.8 164.8,332.1 164.3,332 164.3,332 164.3,332 155.4,312.1 145,331.3 123.3,333.6 124.8,335.2 126.1,336.6 
		131.2,336.6 131,336.4 	"/>
	<polygon class="st0" points="156.2,197.4 152,197.4 126.9,243.9 131,243.9 	"/>
	<polygon class="st0" points="167.1,197.5 164.9,192.5 164.9,197.5 	"/>
	<polygon class="st0" points="229.6,245.3 229.4,245.7 229.4,245.7 229.4,245.7 227.9,245.9 212,248.2 216.1,257.3 237.9,254.1 
		239,251.8 242.3,245.3 242.3,245.3 243,243.9 230.3,243.9 229.6,245.3 	"/>
	<rect x="120.5" y="104.7" class="st0" width="0.2" height="0.1"/>
	<path class="st0" d="M168.1,336.5l-2.4-0.5l-0.9-0.2v0.8h-33.6l4.3,4.6l6.8,7.1l0,0l0,0l-2.4,11.4c0,0,0,0,0,0l-1,4.6l11.3-5.4
		l3.4-1.6l0,0l0,0l8.4,4.8l1.3,0.8c0,0,0,0,0,0l1.5,0.9v-27.2H168.1z"/>
	<polygon class="st0" points="164.8,304.9 161.3,297.3 158.1,290.1 154.2,290.1 136.9,322.1 124.9,323.3 120.5,323.8 120.5,327.5 
		139.2,325.5 152,301.8 156,294.4 156,294.4 156,294.4 161.1,305.6 164.8,313.8 	"/>
	<polygon class="st0" points="128,290.1 153,243.9 131,243.9 130.3,245.3 130.3,245.3 124.3,256.3 120.7,263 120.7,290.1 	"/>
	<path class="st0" d="M240,197.4h-2.4l-14.9,30.1l-13.7,6.6v4.1l11.7-1.7L240,197.4z M219.3,234.6l-4,0.5l4.8-2.3L219.3,234.6z"/>
	<polygon class="st0" points="184.5,245.3 184.5,245.3 190.8,259.4 204.6,290.2 209,290.2 209,293.1 253.2,301.2 253.2,297.5 
		213,290.1 209.1,290.1 209.1,289.4 208.4,289.3 208.1,289.2 208.1,289.2 208.1,289.2 187.8,243.8 183.8,243.8 	"/>
	<polygon class="st0" points="161.6,124.3 158.3,104.7 156.1,104.7 158.8,120.3 129,104.7 124.4,104.7 	"/>
	<polygon class="st0" points="258.4,212.5 273.8,243.8 286.5,243.8 263.7,197.5 253.2,197.5 253.2,223.2 	"/>
	<polygon class="st0" points="124.4,104.7 120.7,102.7 120.7,104.7 	"/>
	<polygon class="st0" points="123,307.1 132.2,290.1 128,290.1 127.5,291.1 120.7,303.7 120.5,303.7 120.5,307.4 121.7,307.3 	"/>
	<polygon class="st0" points="271.4,243.8 272.1,245.3 272.2,245.3 277.5,256.1 297,258.9 297,256.8 290.7,255.9 279,254.1 
		276.1,248.3 273.8,243.8 	"/>
	<rect x="128" y="290.1" transform="matrix(0.4755 -0.8797 0.8797 0.4755 -188.0718 264.7571)" class="st0" width="0" height="0"/>
	<polygon class="st0" points="258.8,243.8 271.4,243.8 258.4,217.4 253.2,228 253.2,243.8 258.1,243.8 254.2,251.5 252.8,254.4 
		252.8,254.4 252.8,254.4 252.8,243.9 245.4,243.9 241.4,251.9 239.3,256.1 232.3,257.1 217,259.4 217.8,261.3 223.6,274.2 
		231.9,275.7 235.7,276.4 247.1,278.5 244,275.5 240.1,271.6 240.1,271.6 240.1,271.6 245.1,270.9 252.8,269.8 252.8,269.7 
		252.8,259.3 258.4,247.9 258.4,247.9 258.4,247.9 267.6,266.5 288.2,269.5 288.2,269.5 288.2,269.5 273.9,283.4 267.9,282.3 
		267.7,281.3 267.6,280.6 267.6,280.6 267.6,280.6 276.8,271.6 269.7,270.6 264.1,269.8 258.4,258.3 254.2,266.9 252.8,269.7 
		252.8,271.9 254.2,271.7 258.4,263.2 258.4,263.2 258.4,263.2 260.3,267 262.7,271.7 272.1,273.1 272.1,273.1 272.1,273.1 
		265.5,279.6 265.3,279.8 265.4,280.4 265.6,281.9 265.6,281.9 265.6,281.9 262,281.2 252.8,279.5 252.8,283.3 271.8,286.8 
		290.7,290.2 297,290.2 297,287.7 297,285 296.4,285.6 294.7,287.2 278.4,284.2 276.5,283.9 292.8,268 284.5,266.8 269,264.6 	"/>
	<polygon class="st0" points="211.1,246.2 217.3,245.3 217.5,245.3 226.9,243.9 210.1,243.9 	"/>
	<polygon class="st0" points="212.3,106.8 209,111 209,115.7 217.6,104.7 210.3,104.7 	"/>
	<polygon class="st0" points="253.2,131.2 253.2,128.3 220.7,128.2 239,104.7 235.3,104.7 214.8,131.1 	"/>
	<polygon class="st0" points="209.1,104.6 210.1,104.6 209.1,103.6 	"/>
	<polygon class="st0" points="120.7,263 120.7,263 120.7,263 120.7,263.1 	"/>
	<polygon class="st0" points="120.5,220.7 108.1,243.8 120.5,243.8 	"/>
	<polygon class="st0" points="180.2,148 194,130.3 171.5,106.6 178.2,145.9 	"/>
	<polygon class="st0" points="144.4,169.1 139.5,171.4 143.8,170.2 	"/>
	<polygon class="st0" points="126.1,197.4 123.2,197.4 120.5,200.9 120.5,204.7 	"/>
	<polygon class="st0" points="297,258.9 297,258.9 297,258.9 297,258.9 	"/>
	<polygon class="st0" points="113.7,339.5 110.8,336.5 105.8,336.5 120.7,352.2 120.7,346.8 	"/>
	<polygon class="st0" points="120.7,346.8 120.7,346.9 120.7,346.8 120.7,346.8 	"/>
	<polygon class="st0" points="126.1,336.6 126.1,336.6 126.1,336.6 126.1,336.6 	"/>
	<polygon class="st0" points="252.8,271.9 244.7,273.1 247.1,275.4 250.9,279.2 251.6,279.3 252.8,279.5 	"/>
	<polygon class="st0" points="252.8,279.5 252.8,279.5 252.8,279.5 252.8,279.5 	"/>
	<polygon class="st0" points="120.5,323.8 120.5,323.8 120.5,323.8 120.5,323.8 	"/>
	<polygon class="st0" points="120.5,307.4 120.5,307.4 120.5,307.4 120.5,307.4 	"/>
	<polygon class="st0" points="110.8,336.5 110.8,336.5 110.8,336.5 110.8,336.5 	"/>
	<rect x="120.5" y="151.1" class="st0" width="0.2" height="0.1"/>
	<polygon class="st0" points="214.4,197.4 223.8,152.4 209.1,152.4 209.1,197.4 	"/>
	<polygon class="st0" points="218.4,196 244.4,183.5 252.8,166.6 252.8,152.5 227.6,152.4 	"/>
	<polygon class="st0" points="187.8,243.8 206,243.8 185.3,197.5 167.1,197.5 	"/>
	<polygon class="st0" points="206.3,235.4 209,234.1 209,197.5 193,197.5 191.8,203.2 	"/>
	<polygon class="st0" points="250.8,197.4 252.8,193.4 252.8,171.4 240,197.4 	"/>
	<polygon class="st0" points="252.8,193.4 252.8,197.4 250.8,197.4 228,243.7 226.9,243.9 230.3,243.9 253.2,197.5 258.4,186.9 
		263.7,197.5 266.1,197.5 258.4,182 	"/>
	<polygon class="st0" points="297,256.8 297,256.8 297,256.8 297,256.8 	"/>
	<polygon class="st0" points="287.2,245.3 287.2,245.3 287.4,245.7 297,247.1 297,244.9 289,243.8 286.5,243.8 	"/>
	<polygon class="st0" points="211.4,289.8 213,290.1 252.8,290.1 252.8,283.3 225,278.1 221,277.4 221,277.4 221,277.4 212.6,258.6 
		209.1,250.7 209.1,289.4 	"/>
	<polygon class="st0" points="152,197.4 160.3,182.2 164.9,192.5 164.9,151.9 164.6,151.2 158.2,151.2 133.2,197.4 	"/>
	<polygon class="st0" points="275.1,58.3 271.4,58.3 252.8,82.3 252.8,86.9 	"/>
	<polygon class="st0" points="120.7,176.8 125.6,175.4 130.7,151.2 120.7,151.2 	"/>
	<polygon class="st0" points="252.8,86.9 239,104.7 252.8,104.7 	"/>
	<polygon class="st0" points="122.8,208.9 120.5,209.9 120.5,220.7 133.2,197.4 129,197.4 	"/>
	<polygon class="st0" points="114.3,213 120.5,209.9 120.5,204.7 	"/>
	<polygon class="st0" points="136.2,184.1 126.1,197.4 129,197.4 	"/>
	<polygon class="st0" points="207.6,238.4 209,241.4 209,238.2 	"/>
	<polygon class="st0" points="596.4,263 596.4,263 596.4,263 596.4,263 	"/>
	<polygon class="st0" points="596.5,303.7 605.1,304.6 628.8,307.1 635.2,291.4 633.4,291.2 624.3,290.2 596.5,290.2 	"/>
	<polygon class="st0" points="624.3,290.2 624.6,290.2 624.3,290.2 624,290.2 	"/>
	<polygon class="st0" points="552.2,245.3 552.2,245.3 552.2,248.8 554.4,243.9 552.3,243.9 552.3,201.2 533.3,243.8 552.2,243.8 	
		"/>
	<polygon class="st0" points="606.3,336.5 606.3,336.5 606.3,336.5 606.3,336.5 	"/>
	<polygon class="st0" points="589.1,290.1 596.4,290.1 596.4,263 595.1,260.6 586.8,245.3 586.8,245.3 586.1,243.9 564.1,243.9 	"/>
	<polygon class="st0" points="594.7,323.6 580.2,322.1 562.9,290.1 558.9,290.1 552.3,304.9 552.3,313.8 554.9,308 561.1,294.4 
		561.1,294.4 561.1,294.4 569.3,309.5 577.9,325.5 585.7,326.3 596.5,327.5 596.5,323.8 	"/>
	<polygon class="st0" points="613.1,329.3 596.5,327.5 596.5,336.5 606.3,336.5 611.8,330.7 	"/>
	<polygon class="st0" points="591,245.3 596.4,255.3 596.4,243.9 590.2,243.9 590.9,245.3 	"/>
	<polygon class="st0" points="640.6,348.4 640.6,348.4 640.6,348.4 640.6,348.4 	"/>
	
		<rect x="558.9" y="290.1" transform="matrix(0.4107 -0.9118 0.9118 0.4107 64.8641 680.5659)" class="st0" width="0" height="0.1"/>
	<polygon class="st0" points="596.5,303.7 596.5,303.7 596.5,303.7 596.5,303.7 	"/>
	<polygon class="st0" points="629,247.3 640.6,262.6 640.6,258.9 629.1,243.8 626.3,243.8 	"/>
	<polygon class="st0" points="640.6,270.6 640.6,270.6 640.6,270.6 640.6,270.6 	"/>
	<polygon class="st0" points="640.6,258.9 640.6,258.9 640.6,258.9 640.6,258.9 	"/>
	<polygon class="st0" points="627.3,310.7 596.5,307.4 596.5,323.8 620.9,326.4 	"/>
	<polygon class="st0" points="508.1,313.4 508.1,309.7 463.9,317.8 463.9,321.6 508.1,313.4 508.1,313.4 	"/>
	<polygon class="st0" points="636.6,287.9 636.6,287.9 636.6,287.9 612.6,285.3 596.4,255.3 596.4,263 610.3,288.7 624.3,290.2 
		639.1,290.2 639.5,289.2 640.6,286.4 640.6,278.1 	"/>
	<polygon class="st0" points="640.6,277.9 642.1,274.4 641.5,274.4 640.6,274.3 	"/>
	<polygon class="st0" points="515.5,336.5 515.5,336.5 515.5,336.5 515.5,336.5 	"/>
	<polygon class="st0" points="591,336.6 591,336.6 591,336.6 591,336.6 	"/>
	<rect x="463.9" y="297.5" class="st0" width="0" height="0"/>
	<polygon class="st0" points="515.5,336.5 510.1,336.5 534.2,358.3 530.9,382.9 534.6,382.9 538,356.9 	"/>
	<polygon class="st0" points="464,334.4 466.4,336.6 471.8,336.6 463.9,329.5 463.9,334.4 464,334.5 	"/>
	<polygon class="st0" points="552.3,304.9 552.3,290.1 558.9,290.1 560.7,286.1 560.7,286.1 560.7,286.1 562.9,290.1 584.9,290.1 
		559.9,243.9 558.4,243.9 557.8,245.3 557.8,245.3 552.2,257.8 552.2,290.2 537.7,290.2 535.4,295.4 529.1,309.6 520.4,311.2 
		508.1,313.4 508.1,330 544,323.4 	"/>
	<polygon class="st0" points="596.4,352.2 596.4,352.2 596.4,352.2 596.4,352.2 	"/>
	<polygon class="st0" points="611.3,336.5 606.3,336.5 602.5,340.4 596.4,346.8 596.4,352.2 	"/>
	<polygon class="st0" points="531.3,335.9 531.3,335.9 531.3,335.9 546.8,333.1 552.3,332.1 552.3,314 547.6,324.6 546.6,326.7 
		511.8,333.1 513.7,334.9 515.5,336.5 531.9,336.5 531.3,335.9 	"/>
	<path class="st0" d="M596.4,369.9v-17.7l-3.7,3.9l1.4,6.4l1.6,7.6c0,0,0,0,0,0l0.7,3.6L596.4,369.9
		C596.4,369.9,596.4,369.9,596.4,369.9z"/>
	<polygon class="st0" points="552.3,332.1 552.3,335.8 555.4,335.2 555.8,334.2 562,320.3 562,320.4 562,320.3 569.8,334.7 
		570.6,334.8 586.1,336.4 585.9,336.6 585.9,336.6 591,336.6 592.8,334.6 593.8,333.6 572.1,331.3 561.7,312.1 552.8,332 552.8,332 
		552.8,332 	"/>
	<polygon class="st0" points="504.1,290.1 505.3,289.9 508,289.4 508,250.7 507,252.9 496.1,277.4 496.1,277.4 496.1,277.4 
		493.4,277.9 464.3,283.3 464.3,290.1 	"/>
	<rect x="585.9" y="336.6" class="st0" width="0" height="0"/>
	<polygon class="st0" points="504.1,290.1 504.1,290.1 504.1,290.1 504.1,290.1 	"/>
	<polygon class="st0" points="510.4,245.3 510.4,245.3 511.1,243.8 508.1,243.8 508.1,241.4 507,243.9 508,243.9 508,245.3 
		508,245.3 508,250.7 508.9,248.7 	"/>
	<polygon class="st0" points="550.5,364.6 549.3,365.3 550.1,359 551.4,349.2 539.3,338.2 540.4,338 548.6,336.5 532,336.5 
		547.5,350.6 546.2,360.7 544.7,372.2 552.2,367.9 552.2,363.7 	"/>
	<polygon class="st0" points="552.3,336.6 552.3,335.8 551.5,336 549,336.5 552.2,336.5 552.2,363.7 559.3,359.6 563.4,357.2 
		563.4,357.2 563.4,357.2 566.6,358.7 578.2,364.2 575.5,351.4 574.8,348.3 574.8,348.3 574.8,348.3 585.3,337.2 585.9,336.6 	"/>
	<polygon class="st0" points="463.9,317.8 463.9,317.8 463.9,317.8 463.9,317.8 	"/>
	<polygon class="st0" points="508.1,293.1 508.1,290.2 512.5,290.2 521.6,269.9 532.6,245.3 532.6,245.3 533.3,243.8 529.3,243.8 
		519.7,265.1 508.9,289.2 508.3,289.3 508,289.4 508,290.1 504.1,290.1 463.9,297.5 463.9,301.2 506.7,293.4 	"/>
	<polygon class="st0" points="552.2,363.7 552.2,363.7 552.2,363.7 552.2,363.7 	"/>
	<polygon class="st0" points="611.4,336.5 616.8,336.5 620.8,326.6 	"/>
	<polygon class="st0" points="529.3,243.8 550,197.5 531.8,197.5 511.1,243.8 	"/>
	<polygon class="st0" points="552.2,257.8 552.2,257.8 552.2,257.8 552.2,257.8 	"/>
	<polygon class="st0" points="508.1,234.1 510.8,235.4 525.2,203.2 524.1,197.5 508.1,197.5 	"/>
	<polygon class="st0" points="502.7,197.4 508,197.4 508,152.4 493.2,152.4 	"/>
	<polygon class="st0" points="537.7,290.2 537.7,290.2 537.7,290.2 537.7,290.2 	"/>
	<polygon class="st0" points="498.7,196 489.5,152.4 464.3,152.5 464.3,166.6 472.7,183.5 	"/>
	<polygon class="st0" points="558.8,234.1 554.4,243.9 558.4,243.9 559.1,242.4 559.9,243.9 564.1,243.9 	"/>
	<polygon class="st0" points="464.3,104.7 478.1,104.7 464.3,86.9 	"/>
	<polygon class="st0" points="552.2,197.5 552.2,192.5 550,197.5 	"/>
	<polygon class="st0" points="586.1,243.9 590.2,243.9 565.1,197.4 560.9,197.4 	"/>
	<polygon class="st0" points="464.3,283.3 464.3,283.3 464.3,283.3 464.3,283.3 	"/>
	<polygon class="st0" points="533.7,290.2 512.5,290.2 511.9,291.6 511.5,292.5 508.1,293.1 508.1,309.7 526.5,306.3 	"/>
	<polygon class="st0" points="465.4,279.3 466.2,279.2 471.1,274.4 472.4,273.1 464.3,271.9 464.3,279.5 	"/>
	<polygon class="st0" points="552.3,63.3 552.3,67.8 553,63.9 	"/>
	<polygon class="st0" points="463.9,223.2 463.9,228 471.7,243.9 474.1,243.9 	"/>
	<polygon class="st0" points="464.3,279.5 464.3,279.5 464.3,279.5 464.3,279.5 	"/>
	<polygon class="st0" points="499.8,245.3 506,246.2 506,246.1 507,243.9 490.2,243.9 499.6,245.3 	"/>
	<polygon class="st0" points="464.3,171.4 464.3,193.4 466.2,197.4 477.1,197.4 	"/>
	<polygon class="st0" points="474.8,245.3 474.8,245.3 477.3,250.4 479.2,254.1 501,257.3 505.1,248.2 488.4,245.8 487.7,245.7 
		487.7,245.7 487.7,245.7 487.5,245.3 487.5,245.3 486.8,243.9 474.1,243.9 	"/>
	<polygon class="st0" points="546.8,100.1 542.3,104.8 548.1,104.8 552.2,81 552.2,68.8 	"/>
	<polygon class="st0" points="609,243.8 596.5,220.7 596.5,243.8 	"/>
	<rect x="584.9" y="290.1" transform="matrix(0.8797 -0.4755 0.4755 0.8797 -67.5883 313.0319)" class="st0" width="0" height="0"/>
	<rect x="589.1" y="290.1" class="st0" width="0" height="0"/>
	<polygon class="st0" points="508,103.6 507,104.6 508,104.6 	"/>
	<polygon class="st0" points="596.5,204.7 596.5,209.9 602.8,213 	"/>
	<polygon class="st0" points="640.6,286.4 640.6,286.5 640.6,286.4 640.6,286.3 	"/>
	<polygon class="st0" points="594.1,307.1 595.1,307.2 596.5,307.4 596.5,303.7 596.4,303.7 590.7,293.1 589.1,290.1 584.9,290.1 	
		"/>
	<polygon class="st0" points="471.5,64 485.4,81.9 487.9,82.2 486.6,83.4 502.6,104 508,98.3 508,67.9 	"/>
	<polygon class="st0" points="552.3,304.9 552.3,305 552.3,304.9 552.3,304.8 	"/>
	<polygon class="st0" points="596.5,200.9 593.9,197.4 591,197.4 596.5,204.7 	"/>
	<polygon points="44.9,107.9 49.6,80.2 47.3,80.9 43.6,102.3 	"/>
	<polygon points="47.6,120.2 76.8,104.8 76.5,104.8 76.5,102.6 47.1,118 	"/>
	<polygon points="59.7,93.8 76.5,85 76.5,82.5 62.5,89.8 65,75.5 62.7,76.2 	"/>
	<polygon points="76.5,154.3 92.2,151.1 76.5,151.1 	"/>
	<polygon points="677.2,124.3 668,70.6 665.7,69.9 674.4,120.3 640.6,102.6 640.6,104.8 640.3,104.8 640.2,104.8 	"/>
	<polygon points="654.5,89.8 640.6,82.5 640.6,82.6 640.6,85 640.6,85 640.6,85 657.4,93.8 652.6,65.9 650.3,65.2 	"/>
	<polygon points="643.2,155.5 640.6,158.2 640.6,163.5 643.2,160.8 	"/>
	<polygon points="640.6,348.4 640.6,348.4 640.6,350.9 640.6,350.9 	"/>
	<polygon points="640.6,350.9 640.7,350.9 643.2,350.9 643.2,350.9 640.6,350.9 	"/>
	<polygon points="643.2,348.3 641.8,348.4 643.2,348.3 	"/>
	<path d="M692.9,140.7l-4.7-27.3L708.5,92l1.6-7l-22.7,24l-5-29.4l24,2.6l-18.9-5.7l-5.7-0.6l-0.2-1.2l-2.3-0.7l12.6,73.2l-53.2-28
		c0,1.2,0.1,2.5,0.1,3.7l0.7-0.8l23.6,12.4L649,149.4l4.3,0.8l13.2-13.9l20.4,10.7l-7.6,8l4.3,0.8l6.7-7l4.4,2.3l-1-5.9l3.9-4.1
		l1.6-7L692.9,140.7z"/>
	<polygon points="640.8,189.5 640.6,189.5 640.6,191.9 643.2,192.6 643.2,183.2 640.6,171.2 640.6,189 	"/>
	<polygon points="564.1,374.3 564.1,374.3 565.2,374.8 	"/>
	<polygon points="634.6,333 634.6,333 635.1,331.9 	"/>
	<polygon points="643,312.4 643,315.3 643.2,315.3 643.2,316.1 643.3,311.8 	"/>
	<polygon points="640.6,258.9 640.6,258.9 640.6,262.6 640.6,262.7 	"/>
	<polygon points="640.6,268.7 640.6,268.7 643.1,269.9 643.1,262.2 643.1,262.2 643.1,269.9 	"/>
	<polygon points="640.6,268.7 640.6,268.7 640.6,264.6 640.6,264.6 	"/>
	<polygon points="640.6,264.6 643,265.7 642.9,265.7 640.6,264.6 	"/>
	<polygon points="641.8,264.2 640.6,262.7 640.6,262.7 	"/>
	<polygon points="640.6,278 642.1,274.4 642.1,274.4 640.6,277.9 	"/>
	<polygon points="643.3,271.8 643.1,271.8 643.1,270.8 641.6,270.7 643.1,270.8 643.1,280.4 642.7,281.4 643.3,279.9 	"/>
	<polygon points="641.5,274.4 640.6,274.3 640.6,274.3 	"/>
	<polygon points="640.6,286.4 640.6,286.3 640.6,278 640.6,278.1 	"/>
	<polygon points="640.6,274.3 640.6,274.3 640.6,270.6 640.6,270.6 	"/>
	<polygon points="639.8,217.2 643.1,221.6 643.1,218.2 	"/>
	<polygon points="639.3,164.9 640.6,171.2 640.6,163.5 	"/>
	<path d="M640.6,62.3l-3.4-1l0.3,2l-6.9-3.6c2.4,4,4.1,11.4,5.3,20.4l4.7,2.5v-0.1V62.3z"/>
	<path d="M640.3,104.8l-2.3-1.2c-0.1,0.4,0,0.8,0,1.2H640.3L640.3,104.8z"/>
	<path d="M640.6,85l-4.4-2.4c0.7,5.8,1.2,12.1,1.5,18.5l2.9,1.5L640.6,85L640.6,85L640.6,85z"/>
	<polygon points="638.2,350.9 638.2,350.9 639.5,350.9 	"/>
	<path d="M640.6,354.3C640.7,354.3,640.7,354.3,640.6,354.3l0.1-3.4h-0.1V354.3z"/>
	<polygon points="640.6,286.5 640.6,286.4 639.5,289.2 	"/>
	<polygon points="142.9,152.9 146.6,151.2 143.3,151.2 	"/>
	<polygon points="299.8,291.9 299.8,288.2 299.6,288.2 299.6,291.9 	"/>
	<polygon points="297,290.2 290.7,290.2 290.9,290.2 297,290.2 297,287.7 297,287.7 	"/>
	<polygon points="298.8,288 297.3,287.7 297.3,287.7 	"/>
	<path d="M292.8,224.9l-10.7-21.7l1.2-0.6l5.6,3.2c-0.2-1.6-0.5-3.1-0.7-4.7l-4.8-2.8l-3,1.5l-1.2-2.4h-2.4l19.3,38.9
		C294.9,232.5,293.8,228.7,292.8,224.9z"/>
	<path d="M288.6,151.1c0.1-0.5,0.2-1,0.2-1.5l-35.6-0.1v1.6H288.6z"/>
	<path d="M297,247.1L297,247.1l2.7,0.4v-1.1c0-0.1-0.1-0.2-0.1-0.3l0,1.3L297,247.1z"/>
	<path d="M297,247.1v-1.8h2.3c0,0,0,0,0-0.1l-2.3-0.3L297,247.1L297,247.1z"/>
	<polygon points="286.5,243.8 289,243.8 288.9,243.7 266.1,197.5 263.7,197.5 	"/>
	<polygon points="252.8,193.4 250.8,197.4 252.8,197.4 	"/>
	<polygon points="298.4,259.1 299.7,259.4 299.7,257.2 299.6,257.2 299.6,259.3 	"/>
	<polygon points="297,258.9 297,256.8 297,256.8 297,258.9 	"/>
	<polygon points="297,287.7 297,287.7 297,285 297,285 297,287.7 	"/>
	<polygon points="299.6,285.4 299.7,285.3 299.7,282.3 297.5,284.5 299.6,282.5 	"/>
	<polygon points="258.4,217.4 271.4,243.8 273.8,243.8 258.4,212.5 253.2,223.2 253.2,228 	"/>
	<polygon points="217,259.4 232.3,257.1 217,259.4 	"/>
	<polygon points="241.4,251.9 245.4,243.9 243,243.9 242.3,245.3 244.7,245.3 	"/>
	<polygon points="237.9,254.1 239,251.8 237.9,254.1 216.1,257.3 216.1,257.3 	"/>
	<polygon points="229.6,245.3 230.3,243.9 226.9,243.9 217.5,245.3 	"/>
	<polygon points="244.7,273.1 247.1,275.4 244.7,273.1 	"/>
	<polygon points="240.1,271.6 240.1,271.6 245.1,270.9 	"/>
	<polygon points="229.4,245.7 229.4,245.7 227.9,245.9 	"/>
	<polygon points="251.6,279.3 252.8,279.5 252.8,279.5 	"/>
	<polygon points="244,275.5 247.1,278.5 247.1,278.5 	"/>
	<polygon points="252.8,283.3 225,278.1 252.8,283.3 	"/>
	<polygon points="216.1,257.3 216.1,257.3 216.1,257.3 212,248.2 212,248.2 	"/>
	<polygon points="217,259.4 217.8,261.3 217,259.4 217,259.4 	"/>
	<polygon points="221,277.4 212.6,258.6 221,277.4 	"/>
	<polygon points="211.1,246.2 211.1,246.2 210.1,243.9 209.1,243.9 209.1,245.3 210.7,245.3 	"/>
	<polygon points="129,104.7 120.7,100.3 120.7,102.7 124.4,104.7 	"/>
	<polygon points="150.4,58.5 150.3,58.5 148.2,58.5 156.1,104.7 158.3,104.7 	"/>
	<polygon points="121.2,58.9 120.7,59.1 120.7,62.6 122,63.3 	"/>
	<polygon points="141.8,93.8 135.8,58.5 133.6,58.5 139,89.8 120.7,80.2 120.7,80.3 120.7,82.7 	"/>
	<path d="M293,131.3C293,131.2,293,131.2,293,131.3l0.1-0.4l0.2,0.1c-0.1-0.6-0.1-1.3-0.1-2c0-0.2,0-0.4,0-0.6l-39.9-0.1v2.9
		L293,131.3z"/>
	<path d="M308.5,128.3H294c0.1,1,0.1,1.9,0.2,2.8l0.4,0.1l12.4,0.1l2.2,3.4l4.1,1L308.5,128.3z"/>
	<polygon points="275.6,57.7 275.1,56 271.7,54.9 272.4,57.1 271.4,58.3 275.1,58.3 	"/>
	<polygon points="252.8,86.9 252.8,82.3 235.3,104.7 239,104.7 	"/>
	<polygon points="253.2,54.1 253.2,58.3 253.6,58.3 254.2,57.6 	"/>
	<path d="M210.1,104.6L210.1,104.6l0.2,0.1h7.3l4.6-5.9c-1.6,0.7-3.3,1.3-5,1.8l-2.6,3.4l-2.2-2.3c-1,0.2-2.1,0.3-3.2,0.5v1.3v0.1
		L210.1,104.6z"/>
	<path d="M252.8,58.6h-2.9v-0.1l-0.3,0.3c-0.4,2.1-0.8,4.3-1.4,6.5l4.5-5.8v-0.1V58.6z"/>
	<path d="M164.9,151.1h3.6l-2.5-5.6l9.7,5.6H209v-1.6v0l-26.2-0.1l26.2-33.7V111v0l-12.7,16.3l-21.5-22.6H169l7.3,42.4l-11.5-6v0.1
		v9.9h-0.2v0.1l0.3,0.7V151.1z M171.5,106.6l22.5,23.7L180.2,148l-2-2.1L171.5,106.6z"/>
	<polygon points="214.4,197.4 224,197.4 241.8,188.9 237.6,197.4 240,197.4 252.8,171.4 252.8,166.6 244.4,183.5 218.4,196 
		227.6,152.4 252.8,152.5 252.8,151.2 209.1,151.2 209.1,152.4 223.8,152.4 	"/>
	<polygon points="359,81.2 357.7,80.8 350,103.4 334.7,80.2 306.8,80.1 316.1,68.1 313.2,67.2 300.9,83 333.1,83.1 350.8,110 
		360.5,81.6 	"/>
	<path d="M292.2,107.1c0-0.8-0.1-1.5-0.1-2.3h-32.5l-1.8,2.3H292.2z"/>
	<path d="M321.6,104.3H297v0.6h-4c0,0.5,0,1,0.1,1.5c0,0.2,0,0.5,0,0.7l26.9,0.1l23.5,35.6l4.2,1L321.6,104.3z"/>
	<path d="M293,104.9L293,104.9C293,104.9,293,104.8,293,104.9L293,104.9z"/>
	<polygon points="323,70.2 322.4,71 325.6,71 	"/>
	<polygon points="349,85.4 351.3,78.8 349.7,78.3 348.5,78 348.2,78.8 347.5,77.7 345.6,77.1 343.1,76.3 	"/>
	<polygon points="120.7,263 120.7,263 124.3,256.3 	"/>
	<polygon points="126.9,243.9 126.2,245.3 130.3,245.3 131,243.9 	"/>
	<polygon points="160,190.5 163.1,197.4 164.8,197.4 164.8,201.2 183.8,243.8 187.8,243.8 167.1,197.5 164.9,197.5 164.9,192.5 
		160.3,182.2 152,197.4 156.2,197.4 	"/>
	<polygon points="213,290.1 213,290.1 211.4,289.8 	"/>
	<polygon points="208.9,293.1 205.6,292.5 205.6,292.4 205.6,292.5 	"/>
	<polygon points="209,290.2 209,293.1 209,293.1 209,290.2 204.6,290.2 204.6,290.2 	"/>
	<polygon points="294.7,336.5 298,333.4 294.7,336.5 	"/>
	<polygon points="289.2,336.5 289.2,336.5 289.3,336.5 294.6,336.5 294.7,336.5 	"/>
	<polygon points="299.5,306 299.5,309.7 299.8,309.8 299.8,306.1 253.2,297.5 253.2,297.5 	"/>
	<path d="M120.5,118l-8.8-4.7c0,0.8-0.1,1.6-0.1,2.4l0.7,0.4l8.2,8.6v-0.1V118z"/>
	<path d="M81,120.3l19.8-10.4l9.9,5.3c0-0.8,0.1-1.6,0.1-2.4l-10-5.3l-50.1,26.3l0.7,3.3l6.1,6.4l4.1-1l-7.7-8l23.6-12.4l12.9,13.6
		l4.2-1L81,120.3z"/>
	<polygon points="209,243.8 209,241.4 207.6,238.4 209,238.2 209,234.1 206.3,235.4 191.8,203.2 193,197.5 189.3,197.5 185.3,197.5 
		206,243.8 	"/>
	<polygon points="108.8,308.6 120.5,307.4 120.5,307.4 	"/>
	<polygon points="117.1,304.1 104.4,305.4 104.4,309.1 105.2,309 105.2,305.3 	"/>
	<polygon points="120.5,323.8 120.5,323.8 104.4,325.5 104.4,329.2 105,329.1 105.1,325.5 	"/>
	<polygon points="105.7,336.5 105.8,336.5 110.8,336.5 110.8,336.5 	"/>
	<polygon points="104.9,335.6 105,330.4 108,333.5 104.4,329.7 104.4,335.1 105.7,336.5 105.7,336.5 	"/>
	<polygon points="156.3,286.1 155.3,288.1 156.3,286.1 	"/>
	<polygon points="205.3,333.1 205.3,333.1 203.9,334.3 	"/>
	<polygon points="207.2,336.4 209,334.8 209,334.8 207.1,336.4 	"/>
	<polygon points="201.6,336.5 201.6,336.5 207,336.5 207,336.5 	"/>
	<polygon points="164.8,304.9 164.8,305 173.1,323.4 209,330 209,330 173.1,323.4 	"/>
	<polygon points="202.8,332.6 170.5,326.7 170.5,326.7 	"/>
	<polygon points="209,334.7 209,334.7 209,330.1 209,330 209,334.8 	"/>
	<path d="M128.4,354.9l-0.6,2.8c0,0,0,0,0,0L128.4,354.9l-7.7-8.1v0.1L128.4,354.9z"/>
	<polygon points="124,355.7 124.4,356.1 124.4,356.1 	"/>
	<polygon points="128,290.1 128,290.1 152.3,245.3 156.4,245.3 132.2,290.1 132.2,290.1 157.2,243.9 153,243.9 	"/>
	<polygon points="179.4,290.2 179.4,290.2 183.4,290.2 183.4,290.2 	"/>
	<polygon points="190.6,306.3 183.4,290.2 183.4,290.2 190.6,306.3 209,309.7 209,309.7 	"/>
	<polygon points="196.1,311.1 188,309.6 182.7,297.8 188,309.6 	"/>
	<polygon points="209,313.4 209,313.4 209,309.7 209,309.7 	"/>
	<polygon points="221.5,358.1 245.2,336.6 245.2,336.6 	"/>
	<polygon points="220.4,364 223.4,361.3 220.4,364 	"/>
	<polygon points="164.9,257.8 164.9,248.9 164.9,248.8 164.9,257.7 	"/>
	<polygon points="163.3,245.3 164.9,248.8 164.9,248.7 162.7,243.9 158.6,243.9 162.8,253.3 159.3,245.3 	"/>
	<polygon points="253.2,329.4 260.4,322.9 260.4,322.9 253.2,329.4 	"/>
	<polygon points="259,322.7 253.2,321.6 253.2,321.6 	"/>
	<polygon points="253.2,334.4 263.4,325.2 253.2,334.4 	"/>
	<polygon points="268.4,320.6 268.4,320.6 253.2,317.8 253.2,317.8 	"/>
	<polygon points="126.1,336.6 126.1,336.6 138.3,349.4 138.2,349.8 138.3,349.4 	"/>
	<polygon points="135.5,341.2 131.2,336.6 131.2,336.6 	"/>
	<path d="M139.9,359.7l2.4-11.4l0,0L139.9,359.7C139.9,359.7,139.9,359.7,139.9,359.7z"/>
	<polygon points="153.6,357.2 150.2,358.8 153.6,357.2 	"/>
	<polygon points="163.4,362.8 162.1,362 163.4,362.8 	"/>
	<path d="M153,361.6C153,361.6,153,361.6,153,361.6l0.5-0.2l0.6,0.3c0,0,0,0,0,0l-0.6-0.4L153,361.6z"/>
	<polygon points="168.1,336.5 168.3,336.5 165.7,336 	"/>
	<polygon points="168.3,336.5 168.5,336.5 185.1,336.5 185.2,336.5 	"/>
	<polygon points="185.7,335.9 171.6,333.3 185.7,335.9 	"/>
	<polygon points="185.2,336.5 185.2,336.5 185.4,336.2 	"/>
	<path d="M136.2,184.1l-7.2,13.3h4.2l25-46.2H154l-6.7,12.4l-17.2,8.2l4.3-20.6h-3.6h-0.1l-5.1,24.2l-4.9,1.4v0l-0.1,0v2.4l21-6
		l-18.4,24.2h2.9L136.2,184.1z M139.5,171.4l4.9-2.3l-0.6,1.1L139.5,171.4z"/>
	<path d="M120.5,209.9l-6.2,3.1l6.2-8.3v-3.8l-5.6,7.3c-0.5,3-1.1,6.2-1.8,9.3l6.6-3.1l-11.4,21c-0.9,2.8-1.8,5.6-2.9,8.4h2.6
		l12.4-23.1V209.9z"/>
	<polygon points="150.2,136 148,146.4 159.6,140.9 	"/>
	<polygon points="174,163.3 174.4,163.5 176.9,151.7 175.7,151.1 168.5,151.1 	"/>
	<polygon points="146.6,151.2 154,151.2 156.6,146.4 	"/>
	<polygon points="122.5,121.4 137.5,137.1 134.5,151.2 143.3,151.2 146.9,134.2 	"/>
	<polygon points="129,197.4 126.1,197.4 120.5,204.7 120.5,209.9 122.8,208.9 	"/>
	<path d="M120.7,176.8v-25.6h-0.2v-0.1h-4.9c1.1,7.3,1.9,16.3,1.9,26.6L120.7,176.8L120.7,176.8L120.7,176.8z"/>
	<polygon points="120.7,151.2 130.7,151.2 130.8,151.2 133.5,138.2 120.5,124.6 120.5,124.7 120.5,151.1 120.7,151.1 	"/>
	<path d="M258.4,155.2l8.7,17.5l17.7-8.5l2.3,1.3c0.3-4.8,0.8-9.1,1.3-13h-35.6v14.1L258.4,155.2z"/>
	<polygon points="219.3,234.6 220.1,232.8 215.3,235.1 	"/>
	<polygon points="180.5,152.3 176.9,169.7 189.3,197.5 198.8,152.4 	"/>
	<polygon points="209,234.1 222.7,227.5 237.6,197.4 224,197.4 213.3,202.5 214.4,197.4 209.1,197.4 209.1,152.4 202.5,152.4 
		193,197.5 209,197.5 	"/>
	<path d="M250.3,54.5c0,0.2-0.1,0.5-0.1,0.7c0,0.1,0,0.2,0,0.3c0,0.2-0.1,0.5-0.1,0.7c-0.1,0.6-0.2,1.1-0.3,1.7
		c0,0.2-0.1,0.4-0.1,0.6h0.2L251,57L250.3,54.5z"/>
	<path d="M212.3,106.8l-2-2.1l-0.1-0.1h-0.1h-1v-1v-0.1l-1.1-1.2c-1.4,0.1-2.9,0.2-4.5,0.2h-1.9c-15.3,0-26-6-33.3-14.4l2,11.9
		l4.5,4.7H209v0.1v6.2v0L212.3,106.8z"/>
	<path d="M286.9,169.7l-2.3-1.3l-15.9,7.6l10.6,21.5h8.5C286.7,187.3,286.6,178,286.9,169.7z"/>
	<polygon points="272.1,273.1 272.1,273.1 262.7,271.7 260.3,267 262.7,271.7 	"/>
	<polygon points="254.2,271.7 258.4,263.2 258.4,263.2 254.2,271.7 252.8,271.9 252.8,271.9 	"/>
	<polygon points="252.8,279.5 252.8,271.9 252.8,271.9 252.8,279.5 	"/>
	<polygon points="265.4,280.4 265.3,279.8 265.5,279.6 265.3,279.8 	"/>
	<polygon points="265.6,281.9 265.6,281.9 262,281.2 	"/>
	<polygon points="288.2,269.5 288.2,269.5 267.6,266.5 267.6,266.5 	"/>
	<polygon points="252.8,259.3 258.4,247.9 258.4,247.9 252.8,259.3 252.8,269.7 252.8,269.7 	"/>
	<polygon points="258.4,258.3 258.4,258.3 264.1,269.8 269.7,270.6 264.1,269.8 	"/>
	<polygon points="252.8,269.7 254.2,266.9 252.8,269.7 	"/>
	<polygon points="267.6,280.6 267.7,281.3 267.6,280.6 	"/>
	<polygon points="278.4,284.2 276.5,283.9 292.8,268 292.8,268 276.5,283.9 	"/>
	<polygon points="258.8,243.8 269,264.6 284.5,266.8 269,264.6 259.5,245.3 272.1,245.3 271.4,243.8 	"/>
	<polygon points="277.5,256.1 297,258.9 297,258.9 277.5,256.1 	"/>
	<polygon points="297,285 296.4,285.6 297,285 	"/>
	<polygon points="252.8,243.9 252.8,254.4 252.8,254.4 252.8,245.3 257.3,245.3 254.2,251.5 258.1,243.8 253.2,243.8 253.2,228 
		245.4,243.9 	"/>
	<polygon points="297,243.8 289,243.8 297,244.9 	"/>
	<polygon points="226.9,243.9 228,243.7 250.8,197.4 240,197.4 220.7,236.5 209,238.2 209,241.4 210.1,243.9 	"/>
	<polygon points="258.4,182 266.1,197.5 276.9,197.5 258.4,160.1 252.8,171.4 252.8,193.4 	"/>
	<polygon points="297,256.8 290.7,255.9 297,256.8 	"/>
	<polygon points="276.1,248.3 274.6,245.3 287.2,245.3 286.5,243.8 273.8,243.8 	"/>
	<polygon points="253.2,223.2 253.2,197.5 230.3,243.9 243,243.9 	"/>
	<polygon points="258.4,186.9 253.2,197.5 263.7,197.5 	"/>
	<polygon points="122.6,58.5 133.6,58.5 133,55.3 	"/>
	<path d="M120.7,62.6l-2.5-1.3c-0.9,1.8-1.6,4.1-2.3,7.6c-0.4,2-0.8,4.1-1.2,6.4c-0.1,0.6-0.2,1.2-0.2,1.7l6.2,3.3v-0.1V62.6z"/>
	<path d="M113.6,76.5c0.4-2.9,0.9-5.6,1.4-8.1c0.8-3.5,1.2-5.6,2.1-7.7c0,0,0,0,0,0l-1.2-0.6l-27.4,8.3l-12,3.6v10.5l24.3-12.8
		L113.6,76.5z"/>
	<path d="M76.9,104.9h34.3c0-0.5,0-0.9,0.1-1.4c0.1-1.2,0.1-2.4,0.2-3.5c0-0.7,0.1-1.3,0.1-2l-10.8-5.7L76.9,104.9z"/>
	<path d="M120.7,104.7v-2l-8.2-4.3c0,0.3,0,0.5-0.1,0.8c-0.1,1.9-0.2,3.7-0.3,5.6h8.4v-0.1H120.7z"/>
	<polygon points="164.8,104.7 158.3,104.7 161.6,124.3 124.4,104.7 120.7,104.7 120.7,104.8 120.5,104.8 120.5,117.9 160.6,139 
		162,136.5 163.9,140.7 164.8,141.2 164.8,141.1 	"/>
	<path d="M165.6,84.7c-0.2-0.3-0.4-0.6-0.7-1v21.1h4.1L165.6,84.7z"/>
	<path d="M155.1,58.5c0-0.1,0-0.2,0-0.3c-0.3-1.7-0.5-3.8-0.6-5.6c0-0.1,0-0.2,0-0.3l-4.4,4.3l0.3,2h0.1H155.1z"/>
	<polygon points="156.1,104.7 129,104.7 158.8,120.3 	"/>
	<path d="M154.2,49.3c0-0.2,0-0.3,0-0.4l-19,5.8l0.6,3.7h12.4l-0.5-2.7l0.4-0.4L154.2,49.3z"/>
	<path d="M120.6,82.7l-6.4-3.5c-0.3,1.9-0.4,3.9-0.7,5.9c0,0.5-0.1,0.9-0.1,1.4c-0.3,3.1-0.5,6.4-0.8,9.6l8,4.2V82.7z"/>
	<path d="M100.8,89.8l10.9,5.8c0.4-5.8,0.9-11.6,1.6-16.8l-12.4-6.5L76.5,85v17.6L100.8,89.8z"/>
	<path d="M297.1,104.2V62.3l-0.7-0.2l-6.7,8.7c0.1,0.5,0.2,1.1,0.3,1.6c0,0.1,0,0.2,0.1,0.4c0.2,1,0.3,2.1,0.5,3.2
		c0,0.2,0.1,0.4,0.1,0.6c0.1,0.5,0.1,1.1,0.2,1.6c0.1,0.9,0.2,1.8,0.3,2.7c0,0.1,0,0.2,0,0.2c0.8,7.3,1.4,15.2,1.8,23H297.1z"/>
	<path d="M292.1,104.2c-0.6-11.4-1.5-23.3-3.1-32.5l-25.3,32.5H292.1z"/>
	<polygon points="209,149.5 209,149.5 253.2,149.5 253.2,131.2 214.8,131.1 235.3,104.7 217.6,104.7 209,115.7 	"/>
	<polygon points="251.7,48.9 253.2,54.1 253.2,49.4 	"/>
	<polygon points="253.6,58.3 252.8,59.4 252.8,59.5 252.8,82.3 271.4,58.3 	"/>
	<path d="M286.2,59.2c1.1,2.1,2,4.4,2.8,7.9l4.5-5.7L286.2,59.2z"/>
	<path d="M252.8,104.7H239l-18.3,23.5l32.5,0.1v-23.5h6.4l28.7-36.7c-1-4.3-2-7.1-3.4-9.2l-2-0.6h-7.8l-22.3,28.6V104.7z"/>
	<path d="M167.5,363.3C167.6,363.3,167.6,363.3,167.5,363.3l-1.8-14.1l12.1-10.9l-0.1,0l-12,10.9L167.5,363.3z"/>
	<polygon points="149.7,330.2 155,320.4 155,320.3 	"/>
	<polygon points="164.8,336.6 131.2,336.6 131.2,336.6 164.8,336.6 164.8,335.8 164.8,335.8 	"/>
	<polygon points="131,336.4 146.1,334.8 131,336.4 	"/>
	<polygon points="160.7,333 161.7,335.2 164.8,335.8 164.8,335.8 161.7,335.2 	"/>
	<polygon points="164.8,314 164.8,313.9 164.8,332.1 164.8,332.1 	"/>
	<polygon points="164.8,332.1 164.8,332.1 164.3,332 164.3,332 	"/>
	<polygon points="161.1,305.6 164.8,313.9 164.8,313.8 	"/>
	<polygon points="152,301.8 156,294.4 156,294.4 	"/>
	<polygon points="145,331.3 155.4,312.1 155.4,312.1 145,331.3 123.3,333.6 124.8,335.2 123.3,333.6 	"/>
	<polygon points="120.7,336.6 120.7,346.8 120.7,346.8 120.7,336.6 126.1,336.6 126.1,336.6 	"/>
	<rect x="120.5" y="327.5" transform="matrix(0.9944 -0.1058 0.1058 0.9944 -34.4511 14.6167)" width="0" height="9"/>
	<rect x="120.5" y="326.5" transform="matrix(0.9943 -0.1063 0.1063 0.9943 -33.9775 15.6571)" width="18.7" height="0"/>
	<polygon points="110.8,336.5 113.7,339.5 110.8,336.5 	"/>
	<polygon points="179,356.8 179,356.9 201.6,336.5 201.6,336.5 	"/>
	<path d="M174,346.6l-4.5,4l1.7,13c0,0,0.1,0,0.1,0l-1.7-13L174,346.6z"/>
	<line class="st1" x1="104.4" y1="336.6" x2="104.4" y2="336.5"/>
	<path d="M104.4,351.1v2.2c0,0,0.1,0,0.1,0l0.1-2.2H104.4z"/>
	<path d="M120.7,356.6v-4.3l0,0L120.7,356.6C120.7,356.6,120.7,356.6,120.7,356.6z"/>
	<polygon points="104.6,347.1 104.9,336.6 104.4,336.6 104.4,346.6 106.2,351 106.2,351 	"/>
	<polygon points="123,307.1 123,307.1 121.7,307.3 	"/>
	<polygon points="120.5,307.4 120.5,307.4 120.5,323.8 120.5,323.8 	"/>
	<rect x="143.2" y="279.1" transform="matrix(0.4755 -0.8797 0.8797 0.4755 -180.1097 278.1119)" width="0" height="22"/>
	<polygon points="136.9,322.1 124.9,323.3 136.9,322.1 154.2,290.1 154.2,290.1 	"/>
	<polygon points="164.8,290.1 164.8,304.8 164.8,304.9 164.8,290.1 158.1,290.1 158.1,290.1 	"/>
	<polygon points="158.1,290.1 161.3,297.3 158.1,290.1 	"/>
	<polygon points="164.9,257.9 179.4,290.2 179.4,290.2 164.9,257.8 	"/>
	<polygon points="157.2,243.9 158.6,243.9 158,242.4 	"/>
	<polygon points="209,334.7 213.3,330.8 213.3,330.8 209,334.7 	"/>
	<path d="M209.1,364.6C209.1,364.6,209.1,364.6,209.1,364.6l0-28h0V364.6z"/>
	<polygon points="253.2,321.6 253.2,321.6 253.2,329.4 253.2,329.4 	"/>
	<polygon points="207.1,336.5 207,336.5 207,336.5 183,358.2 183,358.2 	"/>
	<polygon points="207.1,336.4 207.1,336.5 209,336.5 209,336.4 207.2,336.4 	"/>
	<polygon points="161.7,144.7 158.2,151.2 164.6,151.2 	"/>
	<polygon points="167.1,197.5 185.3,197.5 164.9,151.9 164.9,192.5 	"/>
	<polygon points="120.7,255.3 120.7,255.3 120.7,243.9 126.9,243.9 152,197.4 133.2,197.4 120.5,220.7 120.5,243.8 108.1,243.8 
		107.3,245.3 120.7,245.3 	"/>
	<polygon points="115.9,264.1 120.7,255.4 120.7,255.3 	"/>
	<polygon points="106.6,246.5 104.3,250.6 104.3,252.3 104.4,285.3 105.2,283.9 105.1,249.2 	"/>
	<polygon points="252.8,290.1 213,290.1 213,290.1 252.8,290.1 252.8,283.3 252.8,283.3 	"/>
	<rect x="249.6" y="293.9" transform="matrix(0.1821 -0.9833 0.9833 0.1821 -81.8687 489.31)" width="7.3" height="0"/>
	<polygon points="290.5,290.2 290.7,290.2 271.8,286.8 	"/>
	<polygon points="208.1,289.2 188.5,245.3 206.7,245.3 209.1,250.7 209.1,250.7 206,243.8 187.8,243.8 208.1,289.2 	"/>
	<polygon points="209.1,289.4 209.1,250.7 209.1,250.7 209.1,289.4 	"/>
	<polygon points="208.4,289.3 209.1,289.4 209.1,289.4 	"/>
	<polygon points="120.7,290.1 120.7,263 120.7,263.1 120.7,290.1 128,290.1 128,290.1 	"/>
	<polygon points="127.5,291.1 120.7,303.7 120.5,303.7 120.5,303.7 120.7,303.7 	"/>
	<polygon points="106.8,288.7 106.8,288.7 104.4,289 104.4,290.2 105.2,290.2 105.2,288.9 	"/>
	<rect x="120.5" y="290.2" width="0" height="13.5"/>
	<polygon points="162.7,243.9 164.8,243.9 164.8,201.2 163.1,197.4 156.2,197.4 131,243.9 153,243.9 158.3,234.1 	"/>
	<polygon points="164.9,245.3 184.5,245.3 183.8,243.8 164.9,243.8 	"/>
	<polygon points="204.6,290.2 190.8,259.4 204.6,290.2 	"/>
	<polygon points="253.2,317.8 253.2,317.8 253.2,301.2 253.2,301.2 	"/>
	<polygon points="209,293.1 253.2,301.2 253.2,301.2 209,293.1 	"/>
	<polygon points="250.8,336.6 250.8,336.6 252.8,336.6 252.8,336.6 	"/>
	<path d="M289.2,336.5L264,359.2c0.1,0,0.1,0,0.2,0l25.1-22.7H289.2L289.2,336.5z"/>
	<polygon points="253.2,336.5 253.3,336.5 253.3,334.4 253.2,334.4 253.2,334.4 	"/>
	<path d="M120.7,197.4v-18.2l-3.2,0.9c-0.1,5.5-0.4,11.3-1.1,17.4h4.1v3.4l2.7-3.5H120.7z"/>
	<polygon points="574.2,152.9 573.8,151.2 570.5,151.2 	"/>
	<path d="M463.9,149.6h-6.3c0.1,0.5,0.2,1,0.2,1.5h6V149.6z"/>
	<polygon points="464.3,197.4 466.2,197.4 464.3,193.4 	"/>
	<path d="M458.7,212.5l-4,8.2c-0.8,3.4-1.7,6.9-2.7,10.4l6.8-13.7l5.2,10.6v-4.8L458.7,212.5z"/>
	<polygon points="479.2,254.1 477.3,250.4 479.2,254.1 501,257.3 501,257.3 	"/>
	<polygon points="474.8,245.3 474.1,243.9 471.7,243.9 475,250.4 472.4,245.3 	"/>
	<polygon points="485.3,257.2 500.1,259.4 500.1,259.4 	"/>
	<line class="st1" x1="464.3" y1="269.7" x2="464.3" y2="269.7"/>
	<polygon points="472.4,273.1 472.4,273.1 471.1,274.4 	"/>
	<polygon points="501,257.3 501,257.3 505.1,248.2 505.1,248.2 501,257.3 	"/>
	<polygon points="488.4,245.8 487.7,245.7 487.7,245.7 	"/>
	<polygon points="464.3,283.3 464.3,283.3 493.4,277.9 	"/>
	<polygon points="499.6,245.3 490.2,243.9 486.8,243.9 487.5,245.3 	"/>
	<polygon points="507,252.9 496.1,277.4 496.1,277.4 	"/>
	<polygon points="464.3,279.5 465.4,279.3 464.3,279.5 	"/>
	<polygon points="507,243.9 506,246.1 506.4,245.3 508,245.3 508,243.9 	"/>
	<polygon points="477,271.6 471.6,270.8 477,271.6 	"/>
	<polygon points="470,278.5 473.9,274.7 470,278.5 	"/>
	<polygon points="596.4,102.7 596.4,100.3 588.1,104.7 592.7,104.7 	"/>
	<polygon points="568.9,58.5 566.7,58.5 558.8,104.7 561,104.7 	"/>
	<polygon points="552.3,63.3 553,63.9 552.3,67.8 552.3,68.2 552.2,68.8 552.2,81 555.3,63.1 554.9,62.7 552.2,60.2 552.2,63 
		552.3,63.1 	"/>
	<path d="M550.4,58.3l-12.3-12c-1,0-2,0-3,0.1l0.7,0.7l-5-0.6c-8.7,0.3-16.6,0.7-22.6,1.1v0.2l31.8,3.4l7.4,7.2h0.1H550.4z"/>
	<polygon points="598.1,58.3 599.6,49.7 597.5,49.1 596.5,54.8 596.5,58.3 	"/>
	<polygon points="613.1,53.8 610.2,52.9 599.8,58.3 604.5,58.3 	"/>
	<polygon points="596.4,62.6 596.4,58.5 595.9,58.5 595.1,63.3 	"/>
	<polygon points="575.3,93.8 596.4,82.7 596.4,82.7 596.4,82.7 596.4,80.2 578.1,89.8 583.5,58.5 581.3,58.5 581.3,58.5 	"/>
	<path d="M453.5,128.3c-0.1,0.9-0.1,1.9-0.2,2.7h0.1l0.1,0.2h10.4v-2.9H453.5z"/>
	<path d="M452.4,128.4h-43.9l-9.8,14.9l4.2-1l7.2-11l41.2-0.1l0.9-0.2C452.3,130.2,452.3,129.3,452.4,128.4z"/>
	<polygon points="464.3,86.9 464.3,86.9 464.3,86.9 478.1,104.7 481.8,104.7 464.3,82.3 	"/>
	<polygon points="506.9,104.6 507,104.6 508,103.6 508,103.5 508,98.3 502.6,104 486.6,83.4 487.9,82.2 485.4,81.9 471.5,64 
		508,67.9 508,64.2 468.3,60 467.2,58.5 465.3,58.5 464.3,58.8 464.3,59.4 499.5,104.7 506.8,104.7 	"/>
	<path d="M548.1,104.8h-5.8l-21.5,22.6l-12.7-16.3v4.6l0,0v0.1l26.2,33.7l-26.2,0.1v1.6h33.1l0.2-0.1h0.1l9.5-5.5l-2.5,5.5h0.1
		l0,0.1h3.5v0.8l0.3-0.7h-0.1v-0.1v-10l-11.5,6L548.1,104.8z M536.9,148l-13.8-17.7l22.5-23.7l-6.7,39.3L536.9,148z"/>
	<polygon points="479.5,197.4 475.3,188.9 493.1,197.4 502.7,197.4 493.2,152.4 508,152.4 508,151.2 464.3,151.2 464.3,152.5 
		489.5,152.4 498.7,196 472.7,183.5 464.3,166.6 464.3,171.4 477.1,197.4 	"/>
	<polygon points="410.3,75.4 407.3,76.3 410.3,80.1 394.9,80.1 386.1,82.8 385.1,83.1 416.2,83 	"/>
	<path d="M453.3,104.8h-33.2v-0.6h-24.6l-5,7.7l0.9,4l5.7-8.7l56.1-0.1C453.2,106.3,453.3,105.6,453.3,104.8z"/>
	<path d="M457.5,104.8h-3.1c0,0.7-0.1,1.4-0.1,2.1c0,0.1,0,0.1,0,0.2h5L457.5,104.8z"/>
	<polygon points="595.1,260.6 596.4,263 596.4,263 	"/>
	<polygon points="590.9,245.3 590.2,243.9 586.1,243.9 586.8,245.3 	"/>
	<polygon points="550,197.5 529.3,243.8 533.3,243.8 552.3,201.2 552.3,197.4 554,197.4 557.1,190.5 560.9,197.4 565.1,197.4 
		556.8,182.2 552.2,192.5 552.2,197.5 	"/>
	<polygon points="504.1,290.1 505.3,289.9 504.1,290.1 	"/>
	<polygon points="511.9,291.6 511.5,292.5 508.1,293.1 508.1,293.1 511.5,292.5 	"/>
	<polygon points="512.5,290.2 512.5,290.2 508.1,290.2 508.1,293.1 508.1,293.1 508.1,290.2 	"/>
	<polygon points="447.7,300.5 447.7,304.2 448.6,304 448.6,300.3 	"/>
	<polygon points="463.9,297.5 457.3,298.7 463.9,297.5 	"/>
	<path d="M607.6,151h4.3l25.7-27.1c-0.1-1.7-0.1-3.5-0.2-5.4l-21.2-11.1l-19.7,10.3v0.2l-0.1,0.1v6.5l8.3-8.5l11.6-6.1l19.8,10.4
		l-28.6,30.1L607.6,151z"/>
	<polygon points="510.8,235.4 508.1,234.1 508.1,238.2 509.5,238.4 508.1,241.4 508.1,243.8 511.1,243.8 531.8,197.5 527.8,197.5 
		524.1,197.5 525.2,203.2 	"/>
	<polygon points="596.5,307.4 596.5,307.4 596.5,303.7 596.5,303.7 	"/>
	<polygon points="596.5,323.8 596.5,327.5 596.5,327.5 596.5,323.8 	"/>
	<polygon points="620.9,326.5 611.4,336.5 611.4,336.5 620.8,326.6 	"/>
	<polygon points="616.8,336.5 616.8,336.5 616.8,336.5 620.2,336.5 620.2,336.5 	"/>
	<polygon points="635.2,291.4 633.4,291.2 635.2,291.4 	"/>
	<polygon points="620.2,336.5 620.2,336.5 639.1,290.2 639.1,290.2 	"/>
	<polygon points="628.8,307.1 628.8,307.1 605.1,304.6 	"/>
	<polygon points="611.8,330.7 613.1,329.3 596.5,327.5 596.5,327.5 613.1,329.3 	"/>
	<polygon points="624.6,290.2 639.1,290.2 639.1,290.2 624.3,290.2 	"/>
	<polygon points="627.3,310.7 620.9,326.4 596.5,323.8 596.5,323.8 620.9,326.4 627.3,310.7 596.5,307.4 596.5,307.4 	"/>
	<polygon points="606.3,336.5 611.3,336.5 611.4,336.5 606.3,336.5 	"/>
	<polygon points="560.7,286.1 560.7,286.1 558.9,290.1 559,290.1 	"/>
	<polygon points="510,336.5 510.1,336.5 515.5,336.5 515.5,336.5 	"/>
	<polygon points="508.1,330.1 508.1,330.1 508.1,334.7 508.1,334.8 508.1,330 	"/>
	<polygon points="552.3,305 552.3,304.9 544,323.4 508.1,330 508.1,330 544,323.4 	"/>
	<polygon points="508.1,334.8 510,336.5 510,336.5 508.1,334.8 	"/>
	<polygon points="546.6,326.7 547.6,324.6 546.6,326.7 511.8,333.1 513.7,334.9 511.8,333.1 	"/>
	<path d="M593.8,349.6l-5.1,5.3l3.4,16.1c0,0,0,0,0,0l-3.4-16.1L593.8,349.6z"/>
	<polygon points="592.7,356.1 592.7,356.1 596.4,352.2 596.4,352.2 	"/>
	<path d="M595.7,370.1l-1.6-7.6L595.7,370.1C595.7,370.1,595.7,370.1,595.7,370.1z"/>
	<polygon points="560.6,245.3 564.8,245.3 589.1,290.1 589.1,290.1 564.1,243.9 559.9,243.9 584.9,290.1 584.9,290.1 	"/>
	<polygon points="508.1,313.4 508.1,313.4 508.1,309.7 508.1,309.7 	"/>
	<polygon points="533.7,290.2 533.7,290.2 537.7,290.2 537.7,290.2 	"/>
	<polygon points="526.5,306.3 508.1,309.7 508.1,309.7 526.5,306.3 533.7,290.2 533.7,290.2 	"/>
	<polygon points="520.4,311.2 529.1,309.6 535.4,295.4 529.1,309.6 	"/>
	<polygon points="487.3,355.5 507.4,373.7 507.4,373.7 	"/>
	<polygon points="552.2,248.8 552.2,248.8 553.8,245.3 557.8,245.3 558.4,243.9 554.4,243.9 	"/>
	<polygon points="552.2,257.8 552.2,257.8 552.2,248.8 552.2,248.9 	"/>
	<polygon points="463.9,334.4 463.9,334.4 455.7,327 	"/>
	<polygon points="463.9,317.8 448.7,320.6 448.7,320.6 463.9,317.8 	"/>
	<polygon points="456.7,322.9 456.7,322.9 463.9,329.4 463.9,329.4 	"/>
	<polygon points="463.9,321.6 457.6,322.7 463.9,321.6 	"/>
	<polygon points="552.2,367.9 553.9,366.9 552.2,367.9 	"/>
	<polygon points="559.3,359.6 563.4,357.2 563.4,357.2 	"/>
	<polygon points="585.3,337.2 585.9,336.6 585.9,336.6 	"/>
	<polygon points="578.8,349.4 583.3,370.8 575.3,367 583.3,370.8 578.8,349.4 591,336.6 591,336.6 	"/>
	<polygon points="578.2,364.2 578.2,364.2 566.6,358.7 	"/>
	<polygon points="575.5,351.4 574.8,348.3 574.8,348.3 	"/>
	<polygon points="552.2,367.9 552.2,367.9 552.2,363.7 552.2,363.7 	"/>
	<polygon points="531.9,336.5 531.9,336.5 531.3,335.9 	"/>
	<polygon points="551.5,336 548.8,336.5 549,336.5 	"/>
	<polygon points="548.8,336.5 531.9,336.5 532,336.5 548.6,336.5 	"/>
	<polygon points="531.3,335.9 546.8,333.1 531.3,335.9 	"/>
	<path d="M643.1,245.2v-1.8c-0.5-1.3-0.9-2.5-1.3-3.8l-32-42.1h-2.9L643.1,245.2z"/>
	<path d="M632.9,202.7c-0.1-0.8-0.2-1.7-0.3-2.5l-9.5-2.7h-8.3L632.9,202.7z"/>
	<path d="M575.4,173.1l21,6v-2.3v-0.1l-5-1.4l-5.1-24.1h0l0-0.1h-3.7l4.3,20.6l-17.2-8.2l-6.7-12.4h-4.2l0.1,0.1h0l24.9,46.1h4.2
		l-7.1-13.2l10.1,13.3h2.9L575.4,173.1z M572.7,169l4.9,2.3l-4.3-1.2L572.7,169z"/>
	<polygon points="613.2,243.8 597.3,214.4 607.7,219.3 626.3,243.8 629.1,243.8 596.5,200.9 596.5,204.7 602.8,213 596.5,209.9 
		596.5,220.7 609,243.8 	"/>
	<polygon points="557.5,140.9 569.1,146.4 566.8,136 	"/>
	<polygon points="548.5,151.1 541.5,151.1 541.4,151.1 541.2,151.2 540.2,151.7 542.7,163.5 543.1,163.3 548.6,151.2 548.6,151.1 	
		"/>
	<polygon points="563.1,151.2 570.5,151.2 560.5,146.4 	"/>
	<polygon points="570.2,134.2 573.8,151.2 582.6,151.2 579.6,137.1 594.6,121.4 	"/>
	<polygon points="591,197.4 588.1,197.4 594.3,208.9 596.5,209.9 596.5,204.7 	"/>
	<polygon points="596.4,151.2 596.4,176.7 596.4,176.8 614.1,181.9 607.6,151.1 596.5,151.1 596.5,151.2 	"/>
	<polygon points="586.3,151.2 596.4,151.2 596.4,151.1 596.5,151.1 596.5,124.6 583.6,138.2 586.3,151.1 586.3,151.2 	"/>
	<polygon points="640.6,270.6 630.6,269.5 640.6,270.6 	"/>
	<polygon points="626.9,269.1 626.9,269.1 621.8,259.7 621.8,259.7 	"/>
	<path d="M631.4,186.9c-0.7-14.2,0.2-26.4,1.6-35.8h-21.1l-0.4,0.5l6.6,31.4L631.4,186.9z"/>
	<polygon points="636.3,262.5 618.8,254.2 614,245.3 627.4,245.3 629,247.3 626.3,243.8 613.2,243.8 618.8,254.2 	"/>
	<path d="M458.1,152.5c0.1,1,0.3,2.1,0.4,3.2l0.2-0.5l5.6,11.4v-14.1H458.1z"/>
	<polygon points="508,67.9 508,98.3 534.2,70.7 	"/>
	<polygon points="497.8,234.6 501.8,235.1 497,232.8 	"/>
	<polygon points="536.6,152.3 518.3,152.4 527.8,197.5 540.2,169.7 	"/>
	<polygon points="502.7,197.4 503.8,202.5 493.1,197.4 479.5,197.4 494.4,227.5 508.1,234.1 508.1,197.5 524.1,197.5 514.5,152.4 
		508,152.4 508,197.4 	"/>
	<path d="M508,103.5L508,103.5v1.1h-1h-0.1l-0.1,0.1l-2,2.1l3.3,4.2v-6.2h34.2l4.5-4.7l5.4-31.3l0.1-0.6v-0.4v-4.5v-0.2l-0.1-0.1
		l-4.8-4.7h-0.1h-39.1V47.8l-1.6-0.2c-2.2,0.1-4,0.3-5.5,0.4l-1.6,0.2L467,58l0.3,0.4H508v0.1v5.7l34,3.6L508,103.5z"/>
	<polygon points="464.3,279.5 464.3,271.9 464.3,271.9 464.3,279.5 	"/>
	<polygon points="464.3,271.9 464.3,271.9 462.9,271.7 458.7,263.2 458.7,263.2 462.9,271.7 	"/>
	<polygon points="454.4,271.7 456.4,267.8 454.4,271.7 447.7,272.7 447.7,275.8 448.6,276.6 448.6,272.6 	"/>
	<polygon points="451.8,279.8 451.4,281.9 451.4,281.9 451.8,279.8 	"/>
	<polygon points="447.7,282.6 448.6,282.4 448.6,282.4 448.6,279.7 447.7,278.8 	"/>
	<polygon points="449.2,282.3 449.5,280.6 449.5,280.6 449.2,282.3 	"/>
	<polygon points="464.3,269.7 464.3,269.7 464.3,259.3 458.7,247.9 458.7,247.9 464.3,259.3 	"/>
	<polygon points="453,269.8 448.6,270.4 448.6,266.7 449.5,266.5 449.5,266.5 447.7,266.8 447.7,270.6 453,269.8 458.7,258.3 
		458.7,258.3 	"/>
	<path d="M448,264.6l0.6-1.1l0-18.2h9l-1.6,3.3l2.4-4.8h-10.6c0,0.1,0,0.1-0.1,0.2l0.1,20.6H448z"/>
	<polygon points="463.9,243.8 459,243.8 462.1,250.1 459.8,245.3 464.3,245.3 464.3,254.4 464.3,254.4 464.3,243.9 471.7,243.9 
		463.9,228 	"/>
	<polygon points="508.1,241.4 508.1,238.2 496.4,236.5 477.1,197.4 466.2,197.4 489.1,243.7 490.2,243.9 507,243.9 	"/>
	<path d="M459,160.7c0.6,6.8,0.9,14.6,0.6,23.2l4.7,9.6v-22L459,160.7z"/>
	<polygon points="486.8,243.9 463.9,197.5 463.9,223.2 474.1,243.9 	"/>
	<path d="M458.6,197.5h5.3l-4.5-9.2C459.2,191.3,459,194.4,458.6,197.5z"/>
	<polygon points="599.8,58.3 598.1,58.3 597.9,59.3 	"/>
	<path d="M596.5,54.8v-6l-2.6-0.8l-0.3-0.1c0,0-1.5-0.1-4.2-0.2c-1.2-0.1-2.5-0.2-4-0.2l-1.9,11h12.4L596.5,54.8z"/>
	<path d="M634.9,79.5c-1.2-9.3-2.9-16.9-5.5-20.4c0,0-0.1-0.1-0.1-0.2l-0.9-0.5l-0.2-0.1h-23.7l-8,4.2v17.5l19.8-10.4L634.9,79.5z"
		/>
	<polygon points="596.5,80.1 596.4,80.2 596.5,80.2 	"/>
	<path d="M596.5,104.7v0.1h40.4c0-0.6-0.1-1.2-0.1-1.8l-20.5-10.8l-19.9,10.5L596.5,104.7L596.5,104.7z"/>
	<polygon points="596.5,117.7 596.5,104.8 596.4,104.8 596.4,104.7 592.7,104.7 555.5,124.3 558.8,104.7 552.3,104.7 552.3,141.2 
		553.2,140.7 555.1,136.5 556.5,139 596.4,118 596.5,117.9 	"/>
	<polygon points="552.2,104.8 552.2,81 548.1,104.8 	"/>
	<polygon points="550.4,58.3 552.2,60.2 552.2,58.3 	"/>
	<path d="M567.1,56.4l-10.4-10.1c-1.4,0-2.9,0-4.3-0.1v12.2h14.4L567.1,56.4z"/>
	<polygon points="588.1,104.7 561,104.7 558.3,120.3 	"/>
	<path d="M581.3,58.5l1.8-10.5l-0.7-0.7c-1.2-0.1-2.5-0.1-3.9-0.2c-5.4-0.3-11.8-0.6-18.7-0.7l9.2,8.9l0.4,0.4l-0.5,2.8H581.3
		L581.3,58.5z"/>
	<path d="M596.4,82.7v17.6l19.9-10.5l20.4,10.7c-0.4-6.3-0.8-12.6-1.5-18.4l-18.9-9.9L596.4,82.7L596.4,82.7L596.4,82.7z"/>
	<path d="M453.4,104.1L427,70.3l-6.9,2.1v31.8L453.4,104.1C453.4,104.1,453.4,104.1,453.4,104.1z"/>
	<polygon points="508.1,115.7 499.5,104.7 481.8,104.7 502.3,131.1 463.9,131.2 463.9,149.5 508.1,149.5 508.1,115.8 508.1,115.7 	
		"/>
	<path d="M456.6,72.4c1.1-5.4,2.5-9.8,4.3-12.4l-11.3,3.4L456.6,72.4z"/>
	<path d="M462.6,59.3c-0.3,0.4-0.4,0.6-0.5,0.8c-0.8,1.1-1.5,2.6-2.2,4.4c0,0,0,0,0,0c-0.2,0.4-0.3,0.9-0.5,1.3
		c0,0.2-0.1,0.3-0.1,0.5c-0.1,0.4-0.2,0.7-0.3,1.1c-0.5,1.9-1,3.9-1.4,6.2l6.7,8.6V59.4l-0.4-0.5L462.6,59.3z"/>
	<path d="M464.3,86.9L464.3,86.9L464.3,86.9l-7.4-9.5c-1.1,7.1-1.8,15.4-2.3,23.6l2.9,3.7h6.4v23.5l32.5-0.1l-18.3-23.4h-13.8V86.9z
		"/>
	<path d="M453.6,99.8c0.1-2.4,0.3-4.8,0.5-7.1c0.5-5.8,1.1-11.4,1.9-16.4l-9.3-11.9l-13.9,4.2l-2.8,0.9L453.6,99.8z"/>
	<polygon points="551.4,349.2 550.1,359 551.4,349.2 539.3,338.2 540.4,338 539.3,338.2 	"/>
	<polygon points="552.2,363.7 550.5,364.6 552.2,363.7 	"/>
	<polygon points="555.4,335.2 552.3,335.8 552.3,335.8 555.4,335.2 	"/>
	<polygon points="562,320.3 555.8,334.2 562,320.4 	"/>
	<polygon points="585.9,336.6 586.1,336.4 570.6,334.8 586.1,336.4 	"/>
	<polygon points="585.9,336.6 585.9,336.6 552.3,336.6 552.3,335.8 552.3,335.8 552.3,336.6 	"/>
	<polygon points="552.3,313.9 554.9,308 552.3,313.8 	"/>
	<polygon points="602.5,340.4 606.3,336.5 606.3,336.5 	"/>
	<polygon points="577.9,325.5 585.7,326.3 577.9,325.5 	"/>
	<polygon points="561.1,294.4 569.3,309.5 561.1,294.4 	"/>
	<polygon points="591,336.6 591,336.6 596.4,336.6 596.4,346.8 596.4,346.8 596.4,336.6 	"/>
	<polygon points="552.8,332 552.8,332 552.3,332.1 552.3,332.1 	"/>
	<polygon points="593.8,333.6 592.8,334.6 593.8,333.6 572.1,331.3 561.7,312.1 561.7,312.1 572.1,331.3 	"/>
	<polygon points="552.3,332.1 552.3,332.1 552.3,313.9 552.3,314 	"/>
	<polygon points="538,356.9 538,356.8 515.5,336.5 515.5,336.5 	"/>
	<polygon points="544.7,372.2 544.7,372.2 546.2,360.7 	"/>
	<path d="M596.4,369.9C596.4,369.9,596.4,369.9,596.4,369.9l0-17.7l0,0V369.9z"/>
	<polygon points="616.8,336.5 610.9,351 610.9,351 616.8,336.5 616.8,336.5 	"/>
	<polygon points="623.8,360.7 633.1,350.9 613,351 633.1,350.9 	"/>
	<rect x="562.9" y="290.1" transform="matrix(0.8797 -0.4755 0.4755 0.8797 -68.911 307.8034)" width="22" height="0"/>
	<polygon points="594.1,307.1 595.1,307.2 594.1,307.1 	"/>
	<polygon points="562.9,290.1 562.9,290.1 580.2,322.1 594.7,323.6 580.2,322.1 	"/>
	<polygon points="552.3,290.1 558.9,290.1 558.9,290.1 552.3,290.1 552.3,304.9 552.3,304.8 	"/>
	<polygon points="537.7,290.2 552.2,257.8 552.2,257.8 537.7,290.2 	"/>
	<polygon points="558.4,243.9 559.9,243.9 559.1,242.4 	"/>
	<polygon points="463.9,329.4 463.9,329.4 463.9,329.4 463.9,321.6 463.9,321.6 	"/>
	<polygon points="471.8,336.6 471.8,336.6 463.9,329.4 463.9,329.5 	"/>
	<polygon points="508.1,330.1 503.8,330.8 503.9,330.9 508.1,330.1 	"/>
	<polygon points="508,369.3 508,369.3 511.3,372.3 511.3,372.2 	"/>
	<polygon points="508,336.6 508,369.3 508,369.3 508,336.6 471.8,336.6 471.8,336.6 	"/>
	<polygon points="558.8,151.1 555.4,144.7 552.5,151.2 558.9,151.2 558.9,151.2 	"/>
	<polygon points="552.2,192.5 552.2,151.9 531.8,197.5 550,197.5 	"/>
	<polygon points="612.6,285.3 636.6,287.9 636.6,287.9 612.6,285.3 596.4,255.3 596.4,255.3 	"/>
	<polygon points="596.4,243.9 596.4,255.3 596.4,255.3 596.4,245.3 609.8,245.3 609,243.8 596.5,243.8 596.5,220.7 583.9,197.4 
		565.1,197.4 590.2,243.9 	"/>
	<polygon points="464.3,290.1 464.3,283.3 464.3,283.3 464.3,290.1 504.1,290.1 504.1,290.1 	"/>
	<rect x="463.9" y="290.2" width="0" height="7.3"/>
	<polygon points="452.2,285.5 447.7,286.3 447.7,290.2 448.6,290.2 448.6,286.2 	"/>
	<polygon points="528.6,245.3 519.7,265.1 529.3,243.8 511.1,243.8 510.4,245.3 	"/>
	<polygon points="508,250.7 508,250.7 508.9,248.7 	"/>
	<polygon points="508,289.4 508.3,289.3 508,289.4 	"/>
	<polygon points="508,289.4 508,250.7 508,250.7 508,289.4 	"/>
	<polygon points="596.4,290.1 596.4,263 596.4,263 596.4,290.1 589.1,290.1 589.1,290.1 	"/>
	<polygon points="624,290.2 624.3,290.2 610.3,288.7 610.3,288.7 	"/>
	<polygon points="596.5,303.7 596.5,303.7 596.4,303.7 590.7,293.1 596.4,303.7 	"/>
	<polygon points="554.4,243.9 558.8,234.1 564.1,243.9 586.1,243.9 560.9,197.4 554,197.4 552.3,201.2 552.3,243.9 	"/>
	<polygon points="521.6,269.9 512.5,290.2 512.5,290.2 	"/>
	<polygon points="552.2,245.3 552.2,243.8 533.3,243.8 532.6,245.3 	"/>
	<polygon points="463.9,301.2 463.9,301.2 506.7,293.4 	"/>
	<polygon points="463.9,301.2 463.9,301.2 463.9,317.8 463.9,317.8 	"/>
	<path d="M464.3,336.6v23.8c0,0,0,0,0,0L464.3,336.6l2.1,0l0,0H464.3z"/>
	<polygon points="464,334.5 466.4,336.6 466.4,336.6 464,334.4 	"/>
	<path d="M447.7,336.5v16.7c0,0,0.1,0,0.2,0l0.4-16.7H447.7z"/>
	<polygon points="640.6,258.9 630.3,245.3 640.6,245.3 640.6,243.8 629.1,243.8 640.6,258.9 	"/>
	<path d="M596.5,197.5h10.4l-4.5-5.9l20.7,5.9h9.2c-0.3-2.8-0.5-5.5-0.7-8.2l-35.2-10.1v18.2h-2.5l2.6,3.5V197.5z"/>
	<polygon points="615.3,348.4 615.3,348.4 619.7,337.7 	"/>
	<polygon points="628.2,348.4 640.6,348.4 640.6,348.4 	"/>
	<polygon points="609.8,197.5 614.8,197.5 608.3,195.7 	"/>
	<polygon points="501,257.3 501,257.3 479.2,254.1 477.3,250.4 474.8,245.3 474.8,245.3 472.4,245.3 475,250.4 477.8,256.1 
		485.3,257.2 500.1,259.4 	"/>
	<polygon points="493.4,277.9 496.1,277.4 496.1,277.4 507,252.9 508,250.7 508,250.7 508,250.7 508,245.3 508,245.3 506.4,245.3 
		506,246.1 506,246.2 499.8,245.3 499.6,245.3 487.5,245.3 487.5,245.3 487.7,245.7 487.7,245.7 488.4,245.8 505.1,248.2 
		505.1,248.2 501,257.3 500.1,259.4 500.1,259.4 493.5,274.2 485.2,275.7 481.4,276.4 470,278.5 470,278.5 473.9,274.7 477,271.6 
		477,271.6 471.6,270.8 464.3,269.8 464.3,269.7 464.3,269.7 464.3,271.9 464.3,271.9 464.3,271.9 472.4,273.1 472.4,273.1 
		471.1,274.4 466.2,279.2 465.4,279.3 464.3,279.5 464.3,279.5 464.3,283.3 464.3,283.3 	"/>
	<polygon points="590.9,245.3 586.8,245.3 586.8,245.3 595.1,260.6 596.4,263 596.4,263 596.4,255.3 596.4,255.3 596.4,255.3 
		591,245.3 	"/>
	<polygon points="508,289.4 508,289.4 508,289.4 505.3,289.9 504.1,290.1 504.1,290.1 508,290.1 	"/>
	<polygon points="511.9,291.6 512.5,290.2 512.5,290.2 508.1,290.2 508.1,293.1 511.5,292.5 	"/>
	<polygon points="463.9,301.2 463.9,297.5 463.9,297.5 457.3,298.7 448.6,300.3 448.6,300.3 448.6,304 448.6,304.1 463.9,301.2 
		463.9,301.2 	"/>
	<polygon points="640.6,350.9 643.2,350.9 643.2,350.9 643.2,348.3 643.2,348.3 641.8,348.4 640.6,348.4 640.6,348.4 	"/>
	<polygon points="624.3,290.2 633.4,291.2 635.2,291.4 635.2,291.4 628.8,307.1 628.8,307.1 605.1,304.6 596.5,303.7 596.5,303.7 
		596.5,307.4 627.3,310.7 620.9,326.4 596.5,323.8 596.5,327.5 613.1,329.3 611.8,330.7 606.3,336.5 606.3,336.5 611.4,336.5 
		620.9,326.5 620.8,326.6 616.8,336.5 616.8,336.5 620.2,336.5 639.1,290.2 624.6,290.2 	"/>
	<polygon points="562.9,290.1 560.7,286.1 560.7,286.1 559,290.1 558.9,290.1 562.9,290.1 562.9,290.1 	"/>
	<polygon points="552.3,304.9 552.3,305 544,323.4 508.1,330 508.1,334.8 510,336.5 515.5,336.5 515.5,336.5 513.7,334.9 
		511.8,333.1 546.6,326.7 547.6,324.6 552.3,314 552.3,313.9 552.3,313.8 	"/>
	<path d="M549.1,382.9l-5.5,3.2c0.1,0,0.2,0,0.2,0c2.5,0,5-0.1,7.5-0.2l13-7.5l10,4.8c2-0.4,4.1-0.7,6.1-1.2l-15.1-7.2l-1.1-0.5l0,0
		l-11.9,6.8v1.8H549.1z"/>
	<path d="M530.5,385.5c1.2,0.1,2.4,0.2,3.7,0.3l0.4-2.8h-3.7L530.5,385.5z"/>
	<path d="M594.1,362.5l-1.4-6.4l0,0l3.7-3.9l0,0v-5.3l-2.7,2.8l-5,5.3l3.4,16.1l1.7,7.9c0.9-0.2,1.8-0.5,2.6-0.7v-4.5l-0.7-3.6
		L594.1,362.5z"/>
	<polygon points="564.8,245.3 560.6,245.3 584.9,290.1 584.9,290.1 589.1,290.1 589.1,290.1 	"/>
	<polygon points="529.1,309.6 535.4,295.4 537.7,290.2 537.7,290.2 533.7,290.2 526.5,306.3 508.1,309.7 508.1,313.4 508.1,313.4 
		520.4,311.2 	"/>
	<path d="M508,369.3l-36.2-32.7l0,0h0h-5.4h0l0,0l21,18.9l20.1,18.1l0,0l-1.1,8.1c0.6,0.1,1.1,0.2,1.7,0.4L508,369.3L508,369.3
		L508,369.3z"/>
	<polygon points="552.2,248.8 552.2,257.8 552.2,257.8 557.8,245.3 557.8,245.3 553.8,245.3 	"/>
	<polygon points="463.9,329.4 463.9,329.4 456.7,322.9 456.7,322.9 457.6,322.7 463.9,321.6 463.9,321.6 463.9,317.8 463.9,317.8 
		448.7,320.6 448.7,320.6 455.7,327 463.9,334.4 463.9,334.4 463.9,329.5 	"/>
	<polygon points="578.8,349.4 591,336.6 591,336.6 585.9,336.6 585.9,336.6 585.3,337.2 574.8,348.3 574.8,348.3 575.5,351.4 
		578.2,364.2 578.2,364.2 566.6,358.7 563.4,357.2 563.4,357.2 559.3,359.6 552.2,363.7 552.2,363.7 552.2,367.9 553.9,366.9 
		563.6,361.3 575.3,367 583.3,370.8 	"/>
	<polygon points="546.8,333.1 531.3,335.9 531.3,335.9 531.3,335.9 531.9,336.5 548.8,336.5 551.5,336 552.3,335.8 552.3,335.8 
		552.3,335.8 552.3,332.1 552.3,332.1 552.3,332.1 	"/>
	<polygon points="643,315.3 643,312.4 643,312.3 635.1,331.9 634.6,333 634.6,333 643.2,333 643.2,330.5 639,330.5 643.2,320.2 
		643.2,316.1 643.2,315.3 	"/>
	<polygon points="640.6,262.7 641.8,264.2 642.9,265.7 643,265.7 640.6,264.6 640.6,268.7 643.1,269.9 643.1,262.2 643.1,262.1 
		640.6,258.9 640.6,258.9 	"/>
	<polygon points="643.1,270.8 641.6,270.7 640.6,270.6 640.6,270.6 640.6,274.3 641.5,274.4 642.1,274.4 642.1,274.4 640.6,278 
		640.6,286.3 640.6,286.4 642.7,281.4 643.1,280.4 	"/>
	<polygon points="640.6,268.7 621.8,259.7 621.8,259.7 626.9,269.1 626.9,269.1 630.6,269.5 640.6,270.6 640.6,270.6 640.6,268.7 
		640.6,268.7 	"/>
	<polygon points="614,245.3 618.8,254.2 636.3,262.5 640.6,264.6 640.6,264.6 640.6,264.6 640.6,262.7 640.6,262.7 640.6,262.6 
		629,247.3 627.4,245.3 	"/>
	<polygon points="464.3,271.9 462.9,271.7 458.7,263.2 458.7,263.2 456.4,267.8 454.4,271.7 448.6,272.6 448.6,276.6 448.6,276.7 
		451.8,279.8 451.8,279.8 451.4,281.9 451.4,281.9 464.3,279.5 464.3,279.5 	"/>
	<polygon points="464.3,259.3 458.7,247.9 458.7,247.9 449.5,266.5 449.5,266.5 448.6,266.7 448.6,270.4 453,269.8 458.7,258.3 
		458.7,258.3 464.3,269.7 464.3,269.7 	"/>
	<polygon points="448.6,282.4 449.2,282.3 449.2,282.3 449.5,280.6 449.5,280.6 448.6,279.7 448.6,279.7 448.6,282.4 	"/>
	<polygon points="448.5,245.3 448.6,263.5 448.6,263.5 455.9,248.6 457.6,245.3 	"/>
	<polygon points="459.8,245.3 462.1,250.1 464.3,254.4 464.3,254.4 464.3,245.3 	"/>
	<polygon points="549,336.5 548.8,336.5 548.6,336.5 540.4,338 539.3,338.2 551.4,349.2 550.1,359 549.3,365.3 550.5,364.6 
		552.2,363.7 552.2,363.7 552.2,336.5 	"/>
	<polygon points="586.1,336.4 570.6,334.8 569.8,334.7 562,320.3 562,320.4 555.8,334.2 555.4,335.2 555.4,335.2 552.3,335.8 
		552.3,336.6 585.9,336.6 585.9,336.6 585.9,336.6 	"/>
	<polygon points="606.3,336.5 606.3,336.5 596.5,336.5 596.5,327.5 596.5,327.5 596.5,327.5 585.7,326.3 577.9,325.5 577.9,325.5 
		569.3,309.5 561.1,294.4 561.1,294.4 554.9,308 552.3,313.9 552.3,332.1 552.8,332 552.8,332 561.7,312.1 561.7,312.1 572.1,331.3 
		593.8,333.6 592.8,334.6 591,336.6 591,336.6 596.4,336.6 596.4,346.8 596.4,346.8 602.5,340.4 	"/>
	<polygon points="552.2,367.9 544.7,372.2 544.7,372.2 546.2,360.7 547.5,350.6 532,336.5 531.9,336.5 531.9,336.5 515.5,336.5 
		515.5,336.5 538,356.8 538,356.9 534.6,382.9 549.1,382.9 552.2,381.1 552.2,367.9 552.2,367.9 	"/>
	<path d="M616.8,336.5L616.8,336.5l-5.3,0h-0.1l0,0l-14.9,15.7v0v17.7v3.8l0.9,4.3c7.3-2,14-4.2,20-6.2l-0.7-3.5l7.2-7.6l9.3-9.8
		l-20,0.1l-2.1,0l0,0L616.8,336.5z"/>
	<polygon points="595.1,307.2 594.1,307.1 594.1,307.1 584.9,290.1 584.9,290.1 562.9,290.1 580.2,322.1 594.7,323.6 596.5,323.8 
		596.5,323.8 596.5,323.8 596.5,307.4 596.5,307.4 596.5,307.4 	"/>
	<polygon points="552.3,290.1 552.3,304.8 552.3,304.9 558.9,290.1 558.9,290.1 	"/>
	<polygon points="537.7,290.2 537.7,290.2 552.2,290.2 552.2,257.8 552.2,257.8 	"/>
	<path d="M510.1,336.5L510.1,336.5l-0.1,0h-1.8v-1.6v-0.1l0,0l-4.2-3.8l-0.1,0l4.3-0.8l0,0V330v-16.6l-44.2,8.1v0v7.8l7.9,7.1H508
		v32.7l3.3,3l0,0l-1.4,10.2c0.8,0.2,1.5,0.3,2.3,0.4h18.7l3.3-24.7L510.1,336.5z"/>
	<polygon points="624.6,272.6 609.8,245.3 609.8,245.3 596.4,245.3 596.4,255.3 612.6,285.3 636.6,287.9 636.6,287.9 640.6,278.1 
		640.6,278 640.6,277.9 640.6,274.3 640.6,274.3 640.6,274.3 	"/>
	<polygon points="463.9,297.5 463.9,297.5 504.1,290.1 504.1,290.1 464.3,290.1 464.3,283.3 464.3,283.3 452.2,285.5 448.6,286.2 
		448.6,290.2 448.6,290.2 463.9,290.2 463.9,290.2 	"/>
	<polygon points="508.3,289.3 508.9,289.2 519.7,265.1 528.6,245.3 510.4,245.3 510.4,245.3 508.9,248.7 508,250.7 508,289.4 	"/>
	<path d="M447.8,359.4l0,1.8c0,0,0.3,0.3,0.4,0.3l0,0c0,0,0,0,0,0c0,0.1,0.1,0.1,0.2,0.2c0.1,0,0.1,0.1,0.2,0.1c0,0,1.4,0.7,3.9,1.9
		L447.8,359.4z"/>
	<path d="M640.6,350.9L640.6,350.9l-1.1,0l-1.3,0l0,0l-17.6,18.5l0.2,1.1c9.3-3.3,16.3-6.3,19.8-7.9v-8.2V350.9L640.6,350.9z"/>
	<polygon points="596.4,290.1 589.1,290.1 589.1,290.1 590.7,293.1 596.4,303.7 596.5,303.7 596.5,303.7 596.5,290.2 624.3,290.2 
		624,290.2 610.3,288.7 610.3,288.7 596.4,263 596.4,263 	"/>
	<polygon points="552.2,248.9 552.2,248.8 552.2,248.8 552.2,245.3 552.2,245.3 532.6,245.3 532.6,245.3 521.6,269.9 512.5,290.2 
		512.5,290.2 533.7,290.2 533.7,290.2 533.7,290.2 	"/>
	<polygon points="508.1,309.7 508.1,309.7 508.1,293.1 508.1,293.1 508.1,293.1 506.7,293.4 463.9,301.2 463.9,317.8 463.9,317.8 
		508.1,309.7 	"/>
	<path d="M466.4,336.6l-2.4-2.1l-0.1-0.1v2.1h-15.6l0,0l-0.4,16.7l0,1.3l15.1,13.6c0.4,0.2,0.9,0.4,1.3,0.5v-8.3v-23.8H466.4z"/>
	<polygon points="640.6,258.9 640.6,258.9 640.6,245.3 640.6,245.3 630.3,245.3 	"/>
	<polygon points="639.5,289.2 639.1,290.2 639.1,290.2 639.1,290.2 640.6,290.2 640.6,286.4 640.6,286.5 	"/>
	<polygon points="620.2,336.5 619.7,337.7 615.3,348.4 615.3,348.4 628.2,348.4 640.6,348.4 640.6,348.4 640.6,336.5 620.2,336.5 
		620.2,336.5 	"/>
	<path d="M300,361.6L300,361.6L300,361.6C300,361.6,300,361.6,300,361.6z"/>
	<polygon points="297,287.7 297,287.7 297,290.2 290.9,290.2 290.7,290.2 299.6,291.9 299.6,291.9 299.6,288.2 299.6,288.1 
		298.8,288 297.3,287.7 	"/>
	<path d="M297,247.1l2.6,0.4l0-1.3l0-0.3c-0.1-0.2-0.1-0.3-0.2-0.5h-0.1H297V247.1z"/>
	<polygon points="297,287.7 297.3,287.7 297.3,287.7 299.6,285.5 299.6,285.4 299.6,282.5 297.5,284.5 297,285 297,285 	"/>
	<polygon points="297,258.9 297,258.9 298.4,259.1 299.6,259.3 299.6,257.2 299.6,257.1 297,256.8 297,256.8 	"/>
	<polygon points="216.1,257.3 216.1,257.3 217,259.4 217,259.4 232.3,257.1 239.3,256.1 241.4,251.9 244.7,245.3 242.3,245.3 
		242.3,245.3 239,251.8 237.9,254.1 	"/>
	<polygon points="252.8,279.5 251.6,279.3 250.9,279.2 247.1,275.4 244.7,273.1 244.7,273.1 252.8,271.9 252.8,271.9 252.8,271.9 
		252.8,269.7 252.8,269.7 252.8,269.7 252.8,269.8 245.1,270.9 240.1,271.6 240.1,271.6 244,275.5 247.1,278.5 247.1,278.5 
		235.7,276.4 231.9,275.7 223.6,274.2 217.8,261.3 217,259.4 216.1,257.3 212,248.2 212,248.2 227.9,245.9 229.4,245.7 229.4,245.7 
		229.6,245.3 229.6,245.3 217.5,245.3 217.3,245.3 211.1,246.2 211.1,246.2 210.7,245.3 209.1,245.3 209.1,245.3 209.1,250.7 
		209.1,250.7 209.1,250.7 212.6,258.6 221,277.4 221,277.4 225,278.1 252.8,283.3 252.8,283.3 252.8,279.5 	"/>
	<polygon points="124.3,256.3 130.3,245.3 130.3,245.3 126.2,245.3 126.1,245.3 120.7,255.3 120.7,255.3 120.7,255.4 120.7,263 
		120.7,263 	"/>
	<polygon points="211.4,289.8 209.1,289.4 209.1,289.4 209.1,289.4 209.1,290.1 213,290.1 213,290.1 	"/>
	<polygon points="209,290.2 204.6,290.2 204.6,290.2 205.6,292.4 205.6,292.5 208.9,293.1 209,293.1 209,293.1 	"/>
	<polygon points="294.7,336.5 298,333.4 299.9,331.7 299.9,326.8 289.2,336.5 289.2,336.5 	"/>
	<polygon points="253.2,297.5 253.2,297.5 253.2,301.2 253.2,301.2 253.2,301.2 299.5,309.8 299.5,309.7 299.5,306 	"/>
	<polygon points="120.5,327.5 120.5,323.8 120.5,323.8 105.1,325.5 105,329.1 105,329.2 120.5,327.5 120.5,327.5 	"/>
	<polygon points="120.5,307.4 120.5,303.7 120.5,303.7 120.5,303.7 117.1,304.1 105.2,305.3 105.2,309 105.2,309 108.8,308.6 
		120.5,307.4 	"/>
	<polygon points="104.9,335.6 105.7,336.5 110.8,336.5 110.8,336.5 108,333.5 105,330.4 	"/>
	<polygon points="154.2,290.1 158.1,290.1 158.1,290.1 158.1,290.1 156.3,286.1 156.3,286.1 155.3,288.1 154.2,290.1 154.2,290.1 	
		"/>
	<polygon points="164.8,305 164.8,304.9 164.8,313.8 164.8,313.9 164.8,314 170.5,326.7 170.5,326.7 202.8,332.6 205.3,333.1 
		205.3,333.1 203.9,334.3 201.6,336.5 201.6,336.5 207,336.5 207.1,336.5 207.1,336.4 209,334.8 209,330 173.1,323.4 	"/>
	<path d="M120.7,346.9L120.7,346.9l0,5.3l3.3,3.5l0.4,0.4l0,0l-1.9,9.1c1.2,0.2,2.4,0.4,3.6,0.6l1.7-8.1l0.6-2.8L120.7,346.9z"/>
	<polygon points="132.2,290.1 156.4,245.3 152.3,245.3 128,290.1 128,290.1 132.2,290.1 	"/>
	<polygon points="209,309.7 190.6,306.3 183.4,290.2 179.4,290.2 179.4,290.2 182.7,297.8 188,309.6 196.1,311.1 209,313.4 
		209,313.4 	"/>
	<path d="M245.2,336.6l-23.7,21.5l-12.4,11.2v3.8c0.5,0,0.9,0,1.4-0.1l9.9-9l3-2.7l27.3-24.7L245.2,336.6L245.2,336.6z"/>
	<polygon points="164.9,248.8 163.3,245.3 159.3,245.3 162.8,253.3 164.9,257.8 164.9,257.7 	"/>
	<polygon points="253.2,317.8 253.2,321.6 253.2,321.6 259,322.7 260.4,322.9 260.4,322.9 253.2,329.4 253.2,329.4 253.2,334.4 
		253.2,334.4 263.4,325.2 268.4,320.6 268.4,320.6 253.2,317.8 	"/>
	<path d="M162.1,362l-8.4-4.8l0,0l-3.4,1.6l-11.3,5.4l1-4.6l2.4-11.4l0,0l-6.8-7.1l-4.3-4.6l0,0h-5.1l0,0l12.2,12.8l-0.1,0.4
		l-3.7,17.5c1.6,0.3,3.3,0.5,5,0.8l13.5-6.4l0.5-0.3l0.6,0.4l10.8,6.2v-4.2l-1.5-0.9L162.1,362z"/>
	<polygon points="185.7,335.9 185.7,335.9 171.6,333.3 164.8,332.1 164.8,332.1 164.8,332.1 164.8,335.8 164.8,335.8 164.8,335.8 
		165.7,336 168.3,336.5 185.2,336.5 185.4,336.2 	"/>
	<polygon points="252.8,271.9 252.8,279.5 252.8,279.5 262,281.2 265.6,281.9 265.6,281.9 265.4,280.4 265.3,279.8 265.5,279.6 
		272.1,273.1 272.1,273.1 262.7,271.7 260.3,267 258.4,263.2 258.4,263.2 254.2,271.7 	"/>
	<polygon points="252.8,269.7 254.2,266.9 258.4,258.3 258.4,258.3 264.1,269.8 269.7,270.6 276.8,271.6 267.6,280.6 267.6,280.6 
		267.7,281.3 267.9,282.3 273.9,283.4 288.2,269.5 288.2,269.5 267.6,266.5 267.6,266.5 258.4,247.9 258.4,247.9 252.8,259.3 	"/>
	<polygon points="277.5,256.1 277.5,256.1 272.2,245.3 272.1,245.3 259.5,245.3 269,264.6 284.5,266.8 292.8,268 292.8,268 
		276.5,283.9 278.4,284.2 294.7,287.2 296.4,285.6 297,285 297,285 297,258.9 297,258.9 	"/>
	<polygon points="252.8,245.3 252.8,254.4 252.8,254.4 254.2,251.5 257.3,245.3 	"/>
	<polygon points="297,247.1 287.4,245.7 287.2,245.3 287.2,245.3 274.6,245.3 276.1,248.3 279,254.1 290.7,255.9 297,256.8 
		297,256.8 297,247.1 297,247.1 	"/>
	<polygon points="168.1,336.5 164.9,336.5 164.9,363.7 167.8,365.3 167.5,363.3 165.7,349.2 177.7,338.3 177.8,338.2 168.5,336.5 
		168.3,336.5 	"/>
	<polygon points="164.8,336.6 164.8,335.8 161.7,335.2 160.7,333 155,320.3 155,320.4 149.7,330.2 147.3,334.7 146.1,334.8 
		131,336.4 131,336.4 131.2,336.6 131.2,336.6 	"/>
	<polygon points="113.7,339.5 120.7,346.8 120.7,346.8 120.7,336.6 126.1,336.6 126.1,336.6 124.8,335.2 123.3,333.6 145,331.3 
		155.4,312.1 155.4,312.1 164.3,332 164.3,332 164.8,332.1 164.8,313.9 161.1,305.6 156,294.4 156,294.4 152,301.8 139.2,325.5 
		139.2,325.5 120.5,327.5 120.5,336.5 120.5,336.5 110.8,336.5 110.8,336.5 	"/>
	<path d="M172.2,372.1l-7.3-4.2v3.5C167.3,371.6,169.7,371.9,172.2,372.1z"/>
	<path d="M201.6,336.5L201.6,336.5l-16.3,0h-0.1l0,0L174,346.6l-4.4,4l1.7,13l1.1,8.5c2.9,0.3,5.8,0.5,8.7,0.7l-2.1-15.9l0,0
		L201.6,336.5z"/>
	<path d="M105.7,336.5L105.7,336.5h-0.9l0,0.1l-0.2,10.5l1.6,3.9l-0.1,0l-1.6,0l0,0.1l-0.1,2.2l-0.1,3.3l0,2.4v2.5c0,0,0,0,0,0
		c0,0-0.1,0,0,0h0c0,0,0.1,0,0.2,0c0,0,0,0,0,0v0c0,0,6.2,1.4,16,3.2v-8.3v-4.3v-0.1L105.7,336.5L105.7,336.5z"/>
	<polygon points="136.9,322.1 154.2,290.1 132.2,290.1 132.2,290.1 123,307.1 123,307.1 121.7,307.3 120.5,307.4 120.5,307.4 
		120.5,323.8 120.5,323.8 124.9,323.3 	"/>
	<polygon points="164.8,290.1 158.1,290.1 161.3,297.3 164.8,304.9 164.8,304.8 	"/>
	<polygon points="164.9,257.9 164.9,257.8 164.9,290.2 179.4,290.2 179.4,290.2 	"/>
	<path d="M209.1,336.6L209.1,336.6h36.2l7.9-7.1v0v-7.8v0l-44.2-8.1V330v0.1l0,0l4.3,0.8l0,0l-4.3,3.9l0,0v0.1v1.6v0.1h-1.9
		L183,358.2l-0.1,0.1l2,14.7c2.8,0.1,5.5,0.2,8.2,0.3c0,0,0,0,0,0c0.6,0,1.2,0,1.8,0c0.2,0,0.3,0,0.5,0c0.5,0,0.9,0,1.4,0
		c0.3,0,0.6,0,0.9,0c0.3,0,0.7,0,1,0c0.6,0,1.2,0,1.9,0c1.8,0,3.6-0.1,5.4-0.1l-0.1-0.9l3.3-3v-4.7V336.6z"/>
	<polygon points="120.7,245.3 107.3,245.3 107.3,245.3 106.6,246.5 105.1,249.2 105.2,283.9 105.2,284 115.9,264.1 120.7,255.3 	"/>
	<polygon points="271.8,286.8 252.8,283.3 252.8,283.3 252.8,290.1 213,290.1 213,290.1 253.2,297.5 253.2,297.5 253.2,290.2 
		253.2,290.2 290.7,290.2 290.5,290.2 	"/>
	<polygon points="209.1,250.7 206.7,245.3 188.5,245.3 208.1,289.2 208.1,289.2 208.4,289.3 209.1,289.4 	"/>
	<path d="M297,336.5h-2.3h-0.1l0,0l-35.1,31.7c17.3-2.4,31.5-4.9,37.5-6V336.5z"/>
	<polygon points="120.5,303.7 120.7,303.7 127.5,291.1 128,290.1 128,290.1 120.7,290.1 120.7,263.1 120.7,263 106.8,288.7 
		106.8,288.7 105.2,288.9 105.2,290.2 105.2,290.2 120.5,290.2 120.5,290.2 	"/>
	<polygon points="204.6,290.2 204.6,290.2 190.8,259.4 184.5,245.3 184.5,245.3 164.9,245.3 164.9,245.3 164.9,248.7 164.9,248.8 
		164.9,248.9 183.4,290.2 183.4,290.2 183.4,290.2 	"/>
	<polygon points="209,293.1 209,309.7 209,309.7 209,309.7 253.2,317.8 253.2,317.8 253.2,301.2 209,293.1 	"/>
	<path d="M289.2,336.5h-35.9h-0.1v-2v0l-2.4,2.2h0.1h2v0v32.5c0.1,0,0.2,0,0.3,0l10.9-9.8L289.2,336.5L289.2,336.5z"/>
</g>
</svg>
