<?xml version="1.0" encoding="utf-8"?>
<!-- Generator: Adobe Illustrator 25.3.0, SVG Export Plug-In . SVG Version: 6.00 Build 0)  -->
<svg version="1.1" id="Layer_1" xmlns="http://www.w3.org/2000/svg" xmlns:xlink="http://www.w3.org/1999/xlink" x="0px" y="0px"
	 viewBox="0 0 750.2 400.1" style="enable-background:new 0 0 750.2 400.1;" xml:space="preserve">
<g>
	<path d="M130.8,256.3L130.8,256.3c0,0.4,0.4,0.8,0.9,0.8h34.4c0.1,0,0.3,0,0.4-0.1c0.4-0.1,0.6-0.4,0.6-0.7v-0.4h36.4
		c0.1,0,0.2,0,0.3-0.1c0.3-0.1,0.6-0.3,0.6-0.6V255h35.8v0.3c0,0.3,0.3,0.6,0.7,0.6h34.6v0.4c0,0.4,0.4,0.8,0.9,0.8h23.2V252l0-0.7
		h-23c-0.1,0-0.1,0-0.2,0h0c0,0,0,0,0,0c-0.1,0-0.1,0-0.2,0c-0.4,0.1-0.7,0.4-0.7,0.8v0.4h-34.4c-0.1,0-0.2,0-0.3,0.1
		c-0.3,0-0.6,0.3-0.6,0.6v0.5h-35.8v-0.5c0-0.3-0.3-0.6-0.7-0.6h-36.5v-0.4c0-0.4-0.4-0.8-0.9-0.8h-34.4c-0.3,0-0.5,0.1-0.7,0.3
		c0,0,0,0,0,0c-0.1,0.1-0.1,0.1-0.1,0.2c-0.1,0.1-0.1,0.2-0.1,0.3v0.4h-25.6v0h-0.8l0,3.4h26.5V256.3z"/>
	<path d="M130.8,247.8L130.8,247.8c0,0.4,0.4,0.8,0.9,0.8h34.4c0.1,0,0.2,0,0.4-0.1c0.4-0.1,0.7-0.4,0.7-0.7v-0.4h36.4
		c0.1,0,0.2,0,0.2,0c0.4,0,0.7-0.3,0.7-0.6v-0.3h35.8v0.3c0,0.3,0.3,0.6,0.7,0.6h34.6v0.4c0,0.4,0.4,0.8,0.9,0.8h23.2v0h0l0-2.8
		c-0.4-1-0.7-2-1.1-3h-21.9c0,0-0.1,0-0.1,0h-0.1c-0.5,0-0.9,0.4-0.9,0.8v0.4h-34.4c0,0-0.1,0-0.1,0h-0.1c-0.4,0-0.7,0.3-0.7,0.6
		v0.5h-35.8v-0.5c0-0.3-0.3-0.6-0.7-0.6h-36.5v-0.4c0-0.4-0.4-0.8-0.9-0.8h-34.4c-0.1,0-0.3,0-0.4,0.1c0,0-0.1,0-0.1,0.1
		c-0.1,0-0.1,0.1-0.2,0.1c-0.2,0.2-0.3,0.4-0.3,0.6v0.4h-25.4c-0.1,0.2-0.2,0.4-0.2,0.6v0c-0.3,0.7-0.6,1.5-0.8,2.2l0,0.5h26.5
		V247.8z"/>
	<path d="M130.8,239.3L130.8,239.3c0,0.4,0.4,0.8,0.9,0.8h34.4c0,0,0,0,0.1,0h0c0.5,0,0.9-0.4,0.9-0.8v-0.4h36.4c0,0,0,0,0.1,0h0.1
		c0.4,0,0.7-0.3,0.7-0.6V238h35.8v0.3c0,0.3,0.3,0.6,0.7,0.6h34.6v0.4c0,0.4,0.4,0.8,0.9,0.8h21c0,0,0,0,0,0h0.1
		c-0.7-1.9-1.3-3.9-1.9-5.8h-19c0,0,0,0,0,0h-0.2c-0.5,0-0.9,0.4-0.9,0.8v0.4h-34.6c-0.4,0-0.7,0.3-0.7,0.6v0.5h-35.8v-0.5
		c0-0.3-0.3-0.6-0.7-0.6h-0.2c0,0,0,0,0,0h-36.4v-0.4c0-0.4-0.4-0.8-0.9-0.8h-34.4c0,0,0,0,0,0h-0.1c-0.5,0-0.9,0.4-0.9,0.8v0.4
		h-22.5c-0.4,1.1-0.7,2.3-1.1,3.4h23.6V239.3z"/>
	<path d="M291,217.3h-14.6c-0.5,0-0.9,0.4-0.9,0.8v0.4h-34.6c-0.4,0-0.7,0.3-0.7,0.6v0.5h-35.8v-0.5c0-0.3-0.3-0.5-0.6-0.6
		c-0.1,0-0.2-0.1-0.3-0.1h-36.4v-0.4c0-0.4-0.3-0.6-0.7-0.7c-0.1,0-0.2-0.1-0.4-0.1h-34.4c-0.5,0-0.9,0.4-0.9,0.8v0.4h-17.9
		c-0.3,1.1-0.5,2.3-0.8,3.4h0.2c0,0,0,0,0,0h18.4v0.4h0c0,0.2,0.1,0.4,0.3,0.6c0.1,0.1,0.1,0.1,0.2,0.1c0,0,0,0,0.1,0
		c0.1,0.1,0.3,0.1,0.4,0.1h34.4c0.5,0,0.9-0.4,0.9-0.8v-0.4h36.5c0.4,0,0.7-0.3,0.7-0.6V221h35.8v0.3c0,0.3,0.3,0.6,0.7,0.6h0.1
		c0,0,0.1,0,0.1,0h34.4v0.4c0,0.4,0.4,0.8,0.9,0.8h0.1c0,0,0.1,0,0.1,0h15.7c0,0,0,0,0,0h0C291.9,221.1,291.4,219.2,291,217.3z"/>
	<path d="M276.4,214.7h14.1c-0.4-2-0.7-3.9-1.1-5.8h-0.3c0,0,0,0,0-0.1h-12.5c-0.2,0-0.3,0-0.4,0.1c-0.4,0.1-0.7,0.4-0.7,0.8v0.3
		h-34.4c-0.1,0-0.2,0-0.3,0.1c-0.3,0.1-0.5,0.3-0.5,0.6v0.5h-35.8v-0.5c0-0.3-0.3-0.6-0.7-0.6h-36.5v-0.4c0-0.4-0.4-0.8-0.9-0.8
		h-34.4c-0.4,0-0.7,0.2-0.9,0.5c-0.1,0.1-0.1,0.2-0.1,0.3v0.3h-15.7c0,0,0,0,0,0.1h-0.4c-0.2,1.1-0.4,2.3-0.6,3.4h16.8v0.4h0
		c0,0.4,0.4,0.8,0.9,0.8h34.4c0.2,0,0.3-0.1,0.4-0.1c0.3-0.1,0.6-0.4,0.6-0.7v-0.3h36.4c0.1,0,0.3,0,0.4-0.1
		c0.3-0.1,0.5-0.3,0.5-0.6v-0.2h35.8v0.3c0,0.3,0.3,0.6,0.7,0.6h34.6v0.4C275.5,214.3,275.9,214.7,276.4,214.7z"/>
	<path d="M104.4,289h0.8v0h26.7v0.3c0,0,0,0,0,0h0c0,0.3,0.3,0.6,0.7,0.6H167v0.4c0,0.4,0.4,0.8,0.9,0.8h0c0,0,0,0,0,0h34.4
		c0,0,0,0,0,0h0c0.5,0,0.9-0.4,0.9-0.8v-0.4h36.5c0,0,0,0,0,0h0.1c0.4,0,0.7-0.3,0.7-0.6V289h35.9v0.3c0,0.3,0.3,0.6,0.7,0.6h22.6
		v-3.4h-22.6c-0.4,0-0.7,0.3-0.7,0.6v0.5h-35.9v-0.5c0-0.3-0.3-0.6-0.7-0.6c0,0-0.1,0-0.1,0h-36.5v-0.4c0-0.3-0.2-0.6-0.6-0.7
		c-0.1,0-0.2-0.1-0.4-0.1h-34.4c-0.1,0-0.2,0-0.4,0.1c-0.3,0.1-0.6,0.4-0.6,0.7v0.4h-34.4c-0.1,0-0.2,0-0.3,0.1
		c-0.3,0.1-0.5,0.3-0.5,0.6v0.5h-27.4V289z"/>
	<path d="M104.4,280.5h0.8v0h26.7v0.3h0c0,0.2,0.2,0.5,0.5,0.6c0.1,0,0.2,0.1,0.3,0.1H167v0.4c0,0.4,0.4,0.8,0.9,0.8h34.4
		c0.5,0,0.9-0.4,0.9-0.8v-0.4h36.5c0.4,0,0.7-0.3,0.7-0.6v-0.3h35.9v0.3c0,0.2,0.2,0.5,0.5,0.6c0,0,0.1,0,0.1,0c0,0,0.1,0,0.1,0h0
		c0,0,0.1,0,0.1,0h22.4v0h0.1V278h-22.6c-0.4,0-0.7,0.3-0.7,0.6v0.5h-35.9v-0.5c0-0.3-0.2-0.5-0.5-0.6c-0.1,0-0.2-0.1-0.3-0.1h-36.5
		v-0.4c0-0.3-0.2-0.6-0.5-0.7c-0.1-0.1-0.3-0.1-0.4-0.1h-34.4c-0.1,0-0.3,0-0.4,0.1c-0.3,0.1-0.6,0.4-0.6,0.7v0.4h-34.4
		c-0.1,0-0.3,0-0.4,0.1c-0.2,0.1-0.4,0.3-0.4,0.5v0.5h-27.4V280.5z"/>
	<path d="M276.4,261.6v0.5h-35.9v-0.4c0-0.2-0.1-0.4-0.3-0.5c-0.1-0.1-0.3-0.2-0.5-0.2h-36.5v-0.4c0-0.2-0.1-0.4-0.3-0.6
		c-0.2-0.2-0.4-0.3-0.7-0.3h-34.4c-0.3,0-0.5,0.1-0.7,0.3c-0.2,0.1-0.3,0.3-0.3,0.6v0.4h-34.4c-0.2,0-0.4,0.1-0.5,0.2
		c-0.1,0.1-0.2,0.3-0.2,0.4v0.4h-27.4v1.4h0.8l0,0.1h26.7v0.2h0c0,0.2,0.1,0.3,0.2,0.4c0.1,0.1,0.3,0.2,0.5,0.2H167v0.4
		c0,0.4,0.4,0.8,0.9,0.8h34.4c0.5,0,0.9-0.4,0.9-0.8v-0.4h36.5c0.4,0,0.7-0.3,0.7-0.6v-0.3h35.9v0.2c0,0.2,0.1,0.3,0.3,0.5
		c0,0,0,0,0.1,0c0,0,0.1,0,0.1,0.1c0.1,0.1,0.2,0.1,0.4,0.1h22.4l0,0h0.1V261h-22.6C276.7,261,276.4,261.3,276.4,261.6z"/>
	<path d="M299.9,338.1h-22.6v-0.5c0-0.3-0.3-0.6-0.7-0.6H240v-0.4c0-0.4-0.4-0.8-0.9-0.8h-34.4c-0.2,0-0.3,0.1-0.5,0.2
		c-0.3,0.1-0.5,0.4-0.5,0.7v0.3h-34.3c-0.2,0-0.4,0.1-0.5,0.2c-0.2,0.1-0.3,0.3-0.3,0.5v0.4h-35.7v-0.5c0-0.3-0.3-0.6-0.7-0.6h-27.7
		v3.4h0.3l0,0.1H132c0.2,0,0.3-0.1,0.4-0.1c0.2-0.1,0.3-0.3,0.3-0.5v-0.2h35.8v0.3c0,0.3,0.3,0.6,0.7,0.6h34.4v0.4
		c0,0.4,0.4,0.8,0.9,0.8h34.4c0.5,0,0.9-0.4,0.9-0.8v-0.4h36.5c0.4,0,0.7-0.3,0.7-0.6v-0.3H300v-0.1L299.9,338.1L299.9,338.1
		L299.9,338.1z"/>
	<path d="M299.8,329.7h-22.6v-0.5c0-0.3-0.3-0.6-0.7-0.6H240v-0.4c0-0.1,0-0.2-0.1-0.3c-0.1-0.3-0.5-0.5-0.9-0.5h-34.4
		c-0.5,0-0.9,0.4-0.9,0.8v0.4h-34.4c-0.4,0-0.7,0.3-0.7,0.6v0.5h-35.7v-0.5c0-0.3-0.3-0.6-0.7-0.6h-0.1c0,0-0.1,0-0.1,0h-27l0,0
		h-0.6v3.4H132c0.4,0,0.8-0.3,0.8-0.6v-0.3h35.8v0.3c0,0.1,0,0.2,0.1,0.3c0.1,0.2,0.3,0.4,0.6,0.4h34.4v0.4c0,0.2,0.1,0.3,0.2,0.5
		c0.2,0.2,0.4,0.3,0.7,0.3H239c0.1,0,0.3,0,0.4-0.1c0.4-0.1,0.6-0.4,0.6-0.7V332h36.4c0.1,0,0.2,0,0.3-0.1c0.3-0.1,0.5-0.3,0.5-0.6
		v-0.3h22.6v0h0.1l0-1.4L299.8,329.7L299.8,329.7z"/>
	<path d="M299.8,321.2h-22.6v-0.5c0-0.3-0.3-0.6-0.7-0.6h-0.1c0,0,0,0,0,0H240v-0.4c0-0.1,0-0.2-0.1-0.3c0,0,0,0,0,0
		c0-0.1-0.1-0.2-0.2-0.2c0,0,0,0-0.1,0c-0.2-0.1-0.3-0.2-0.6-0.2h-34.4c0,0,0,0,0,0h-0.1c-0.5,0-0.9,0.4-0.9,0.8v0.4h-34.3
		c0,0,0,0,0,0h-0.1c-0.4,0-0.7,0.3-0.7,0.6v0.5h-35.7v-0.5c0-0.3-0.3-0.6-0.7-0.6h-27.7v3.4H132c0.1,0,0.2,0,0.3-0.1
		c0.1,0,0.2-0.1,0.3-0.2c0.1-0.1,0.2-0.2,0.2-0.4v-0.3h35.8v0.3c0,0.2,0.1,0.3,0.2,0.4c0.1,0.1,0.3,0.2,0.5,0.2h34.4v0.4
		c0,0.3,0.2,0.5,0.4,0.6c0.1,0.1,0.3,0.1,0.5,0.1H239c0,0,0,0,0.1,0h0c0.5,0,0.9-0.4,0.9-0.8v-0.4h36.4c0,0,0,0,0.1,0h0
		c0.4,0,0.7-0.3,0.7-0.6v-0.3h22.7l0-1.4L299.8,321.2L299.8,321.2z"/>
	<path d="M132.2,303.1h-27.7v3.4h0.7v0H132c0.3,0,0.6-0.2,0.7-0.4c0.1-0.1,0.1-0.2,0.1-0.2v-0.3h35.8v0.3c0,0.3,0.3,0.6,0.7,0.6
		h34.4v0.4c0,0.4,0.4,0.8,0.9,0.8h34.4c0.5,0,0.9-0.4,0.9-0.8v-0.4h36.5c0.4,0,0.7-0.3,0.7-0.6v-0.3h22.3v0h0.2v-1.4h-22.5v-0.5
		c0-0.3-0.2-0.5-0.5-0.6c-0.1,0-0.2-0.1-0.3-0.1H240v-0.4c0-0.4-0.4-0.8-0.9-0.8h-34.4c-0.1,0-0.3,0-0.4,0.1
		c-0.4,0.1-0.6,0.4-0.6,0.7v0.4h-34.3c-0.1,0-0.2,0-0.3,0.1c-0.3,0.1-0.5,0.3-0.5,0.6v0.5h-35.7v-0.5
		C132.9,303.4,132.6,303.1,132.2,303.1z"/>
	<path d="M274.9,353.3c0-0.1,0-0.2-0.1-0.3c0,0-0.1-0.1-0.1-0.1c0,0-0.1-0.1-0.1-0.1c-0.1-0.1-0.1-0.1-0.2-0.1c0,0,0,0-0.1,0
		c-0.1,0-0.2-0.1-0.4-0.1h-34.4c-0.5,0-0.9,0.4-0.9,0.8v0.4h-34.4c-0.4,0-0.7,0.3-0.7,0.6v0.5h-32v-0.5c0-0.3-0.3-0.6-0.7-0.6h-0.1
		c0,0,0,0-0.1,0h-36.3v-0.4c0-0.4-0.4-0.8-0.9-0.8h-0.2c0,0,0,0-0.1,0h-28.7l-0.1,4.1l0,1.7h26.7c0,0,0.1,0,0.1,0h2.1
		c0.5,0,0.9-0.4,0.9-0.8v-0.4h36.5c0.4,0,0.7-0.3,0.7-0.6v-0.3h32.1v0.3c0,0.2,0.1,0.3,0.2,0.4c0.1,0.1,0.3,0.2,0.5,0.2h34.4v0.4
		c0,0.2,0.1,0.4,0.3,0.6c0.2,0.1,0.4,0.2,0.6,0.2H270c0.1,0,0.1,0,0.1,0h3.8c0.5,0,0.9-0.4,0.9-0.8v-0.3h2.8c0.3,0,0.5-0.1,0.8-0.1
		H300v-3v-0.4h-25.1V353.3z"/>
	<path d="M299.9,345.2h-25v-0.4c0-0.4-0.4-0.8-0.9-0.8h-34.4c0,0,0,0,0,0h-0.1c-0.5,0-0.9,0.4-0.9,0.8v0.4h-34.8c0,0,0,0,0,0h-0.1
		c-0.4,0-0.7,0.3-0.7,0.6v0.5h-31.5v-0.5c0-0.3-0.3-0.6-0.7-0.6h-36.5v-0.4c0-0.4-0.4-0.8-0.9-0.8h-28.8v4.1l0,1.7h0v0h28.8
		c0.5,0,0.9-0.4,0.9-0.8v-0.4h36.5c0.4,0,0.7-0.3,0.7-0.6v-0.3H203v0.3c0,0.2,0.1,0.3,0.2,0.4c0.1,0.1,0.3,0.2,0.5,0.2h34.9v0.4
		c0,0.3,0.2,0.6,0.6,0.7c0.1,0,0.2,0.1,0.4,0.1H274c0.5,0,0.9-0.4,0.9-0.8v-0.4h25v0h0.1L299.9,345.2L299.9,345.2L299.9,345.2z"/>
	<path d="M130.8,78.9L130.8,78.9c0,0.4,0.4,0.8,0.9,0.8h3.4c0,0,0,0,0,0h26.4c0,0,0,0,0,0h0.8c-1.1-1.9-2-3.8-2.8-5.8h-27.9
		c-0.5,0-0.9,0.4-0.9,0.8v0.4h-16c-0.2,1.1-0.3,2.2-0.5,3.4h16.5V78.9z"/>
	<path d="M130.7,70.4L130.7,70.4c0.1,0.4,0.5,0.8,1,0.8h12.8c0,0,0,0,0,0h13.2c0,0,0,0,0,0h0.8c-0.6-1.7-1.2-3.3-1.6-5
		c-0.1-0.3-0.2-0.5-0.3-0.8h-24.9c-0.5,0-0.9,0.4-0.9,0.8v0.4h-14.4c-0.2,0.7-0.4,1.5-0.5,2.3c-0.1,0.4-0.2,0.7-0.2,1.1h15V70.4z"/>
	<path d="M275.8,61.9h-0.1c0,0.4,0.4,0.8,0.9,0.8h10.1c-0.6-1.5-1.2-2.7-1.8-3.8l-6.3-1.9h-2c-0.5,0-0.9,0.4-0.9,0.8v0.4h-25.9
		c-0.2,1.1-0.4,2.2-0.6,3.4h26.6V61.9z"/>
	<path d="M130.8,62c0,0.4,0.4,0.8,0.9,0.8H156c-0.3-1.3-0.6-2.6-0.8-3.8c-0.1-0.6-0.2-1.2-0.3-1.9h-23.2c-0.5,0-0.9,0.4-0.9,0.8v0.4
		h-7.5l-4,1.2c-0.4,0.7-0.8,1.3-1.2,2.1h12.7V62z"/>
	<path d="M154.2,48.9l-17.8,5.4h18.2C154.3,51.5,154.2,48.9,154.2,48.9z"/>
	<path d="M254.3,49.7h-3.6c0,0.9-0.1,2.1-0.2,3.4h15.1L254.3,49.7z"/>
	<path d="M131.7,103.5h0.1c0,0.3,0.3,0.6,0.7,0.6H167v0.4c0,0.3,0.2,0.6,0.6,0.7c0.1,0.1,0.2,0.1,0.4,0.1h34.4c0.2,0,0.3,0,0.4-0.1
		c0.3-0.1,0.5-0.4,0.5-0.7v-0.4h36.5c0.1,0,0.2,0,0.3-0.1c0.3-0.1,0.5-0.3,0.5-0.6v-0.3h35.9v0.3c0,0.3,0.3,0.6,0.7,0.6H292
		c-0.1-1.1-0.1-2.3-0.2-3.4h-11c0,0,0,0,0,0h-3.6c0,0-0.1,0-0.1,0h0c-0.1,0-0.1,0-0.2,0c0,0,0,0,0,0c-0.3,0.1-0.5,0.3-0.5,0.6v0.5
		h-35.9v-0.5c0-0.3-0.3-0.6-0.7-0.6h-21c0,0,0,0,0,0h-1.9c-4,1.1-8.4,1.8-13.3,1.8h-1.9c-6.5,0-12.2-1.1-17.1-3h-1.5c0,0,0,0,0,0
		h-15c-0.1,0-0.3,0-0.4,0.1c-0.3,0.1-0.6,0.4-0.6,0.7v0.4h-34.3c-0.1,0-0.2,0-0.3,0.1c-0.3,0.1-0.5,0.3-0.5,0.6v0.5h-19.5
		c0,0.5-0.1,0.9-0.1,1.4h19.5V103.5z"/>
	<path d="M240.5,95v-0.3h36V95c0,0.2,0.1,0.4,0.3,0.5c0.1,0.1,0.3,0.1,0.4,0.1h14.4c0-0.4-0.1-0.8-0.1-1.2c0-0.2,0-0.4,0-0.7
		c0-0.5-0.1-1-0.1-1.5h-14.1c-0.1,0-0.1,0-0.1,0c0,0,0,0,0,0c-0.3,0.1-0.6,0.3-0.6,0.6v0.5h-36v-0.5c0-0.3-0.3-0.6-0.7-0.6h-7.2
		c-1.4,1.2-2.9,2.4-4.5,3.4h11.8C240.2,95.6,240.5,95.3,240.5,95z"/>
	<path d="M134.2,159.7h-17.5c0.1,1.1,0.2,2.2,0.3,3.4h2.2c0,0,0,0,0,0h15c0.1,0,0.2,0,0.3-0.1c0,0,0.1,0,0.1-0.1c0,0,0.1,0,0.1-0.1
		c0.1-0.1,0.2-0.3,0.2-0.4v-0.3h35.8v0.3c0,0.3,0.3,0.6,0.7,0.6h34.4v0.4c0,0,0,0,0,0v0c0,0.4,0.4,0.8,0.9,0.8h34.4
		c0.5,0,0.9-0.4,0.9-0.8v-0.4h36.5c0.4,0,0.7-0.3,0.7-0.6v-0.3h6.4c0,0,0,0,0,0h1.6c0-0.5,0.1-0.9,0.1-1.4h-8.1v-0.5
		c0-0.3-0.2-0.5-0.6-0.6c-0.1,0-0.2-0.1-0.3-0.1h-36.4v-0.4c0-0.3-0.3-0.6-0.6-0.7c-0.1,0-0.2-0.1-0.4-0.1h-34.4
		c-0.5,0-0.9,0.4-0.9,0.8v0.4h-34.4c-0.4,0-0.7,0.3-0.7,0.6v0c0,0,0,0,0,0v0.5h-35.8v-0.5C134.9,160,134.6,159.7,134.2,159.7z"/>
	<path d="M134.2,151.2h-18.5c0.2,1.1,0.3,2.2,0.5,3.4h2.6c0,0,0,0,0,0h15.4c0.1,0,0.2,0,0.3-0.1c0.3-0.1,0.4-0.3,0.4-0.6v-0.2h35.8
		v0.3c0,0.3,0.3,0.6,0.7,0.6h34.4v0.4c0,0,0,0,0,0v0c0,0.4,0.4,0.8,0.9,0.8h34.4c0.5,0,0.9-0.4,0.9-0.8v-0.4h36.5
		c0.4,0,0.7-0.3,0.7-0.6v-0.3h6.9c0,0,0,0,0-0.1h2c0.1-0.5,0.1-0.9,0.2-1.4h-9.1v-0.4c0-0.3-0.2-0.5-0.5-0.6c-0.1,0-0.2-0.1-0.3-0.1
		h-36.4v-0.4c0-0.3-0.3-0.6-0.6-0.7c-0.1-0.1-0.3-0.1-0.4-0.1h-34.4c-0.5,0-0.9,0.4-0.9,0.8v0.4h-34.4c-0.4,0-0.7,0.3-0.7,0.6v0
		c0,0,0,0,0,0v0.4h-35.8v-0.5C134.9,151.5,134.6,151.2,134.2,151.2z"/>
	<path d="M134.2,142.7h-20c0.2,1,0.4,2.1,0.6,3.3h3.1c0,0,0,0.1,0,0.1h16.2c0.2,0,0.4-0.1,0.5-0.2c0.1-0.1,0.2-0.2,0.2-0.4v-0.2
		h35.8v0.3c0,0.3,0.3,0.6,0.7,0.6h34.4v0.4c0,0,0,0,0,0v0c0,0.4,0.4,0.8,0.9,0.8h34.4c0.5,0,0.9-0.4,0.9-0.8v-0.4h36.5
		c0.4,0,0.7-0.3,0.7-0.6v-0.3h7.9c0,0,0,0,0-0.1h2.3c0.1-0.5,0.2-0.9,0.3-1.4h-10.5v-0.4c0-0.3-0.2-0.5-0.5-0.6
		c-0.1-0.1-0.2-0.1-0.4-0.1h-36.4v-0.4c0-0.3-0.2-0.6-0.6-0.7c-0.1-0.1-0.3-0.1-0.4-0.1h-34.4c-0.5,0-0.9,0.4-0.9,0.8v0.4h-34.4
		c-0.4,0-0.7,0.3-0.7,0.6v0.1c0,0,0,0,0,0v0.4h-35.8v-0.5C134.9,143,134.6,142.7,134.2,142.7z"/>
	<path d="M134.2,134.2h-22c0.3,0.9,0.6,2.1,0.9,3.4h3.6c0,0,0,0,0,0.1h17.5c0.1,0,0.2,0,0.3-0.1c0.3-0.1,0.4-0.3,0.4-0.6v-0.2h35.8
		v0.3c0,0.3,0.3,0.6,0.7,0.6h34.4v0.3c0,0,0,0,0,0v0.1c0,0.4,0.4,0.8,0.9,0.8h34.4c0.5,0,0.9-0.4,0.9-0.8v-0.4h36.5
		c0.4,0,0.7-0.3,0.7-0.6v-0.3h9.3c0,0,0-0.1,0-0.1h2.8c0.1-0.5,0.2-1,0.4-1.4h-12.4v-0.4c0-0.3-0.2-0.5-0.5-0.6
		c-0.1-0.1-0.2-0.1-0.4-0.1h-36.4v-0.3c0-0.2-0.1-0.5-0.4-0.6c-0.2-0.2-0.4-0.3-0.6-0.3h-34.4c-0.5,0-0.9,0.4-0.9,0.8v0.4h-34.4
		c-0.4,0-0.7,0.3-0.7,0.6v0.1c0,0,0,0,0,0v0.4h-35.8v-0.5C134.9,134.5,134.6,134.2,134.2,134.2z"/>
	<path d="M134.9,128.6v-0.3h35.8v0.3c0,0,0,0,0,0v0c0,0.3,0.3,0.6,0.7,0.6h34.4v0.4c0,0.4,0.4,0.8,0.9,0.8h34.4c0.1,0,0.2,0,0.4-0.1
		c0.4-0.1,0.6-0.4,0.6-0.7v-0.4h36.4c0.1,0,0.1,0,0.2,0c0.4,0,0.7-0.3,0.7-0.6v-0.3h13.6c0-0.5-0.1-0.9-0.1-1.4h-13.5v-0.5
		c0-0.3-0.3-0.6-0.7-0.6h-36.5v-0.4c0-0.4-0.4-0.8-0.9-0.8h-34.4c-0.5,0-0.9,0.4-0.9,0.8v0c0,0,0,0,0,0v0.4h-34.4
		c-0.4,0-0.7,0.3-0.7,0.6v0.5h-35.8v-0.5c0-0.2-0.1-0.3-0.2-0.4c0,0,0,0-0.1,0c0,0-0.1-0.1-0.2-0.1c-0.1,0-0.2-0.1-0.3-0.1h-17.5
		c0,0,0,0,0,0h-5.4c-0.1,1.2-0.1,2.3-0.2,3.4h23.1C134.6,129.2,134.9,128.9,134.9,128.6z"/>
	<path d="M239.4,206.4H274c0.5,0,0.9-0.4,0.9-0.8v-0.4h13.9c-0.2-1.1-0.3-2.3-0.5-3.4h-0.4c0,0,0,0,0,0h-13v-0.4
		c0-0.2-0.1-0.4-0.3-0.6c0,0,0,0,0,0c-0.1-0.1-0.2-0.1-0.2-0.1c0,0,0,0,0,0c-0.1,0-0.2-0.1-0.3-0.1h0c0,0,0,0,0,0h-34.4
		c-0.5,0-0.9,0.4-0.9,0.8v0.4h-34.4c-0.4,0-0.7,0.3-0.7,0.6v0.5h-32v-0.5c0-0.3-0.3-0.6-0.7-0.6h-0.2c0,0,0,0,0,0h-36.3v-0.4
		c0-0.4-0.4-0.8-0.9-0.8h-0.2c0,0,0,0,0,0h-16.4c0,0,0,0,0,0H116c-0.2,1.9-0.5,3.8-0.8,5.8h18.2c0.2,0,0.4-0.2,0.6-0.4
		c0.1-0.1,0.1-0.2,0.1-0.4v-0.4h36.5c0.1,0,0.2,0,0.3-0.1c0.3-0.1,0.5-0.3,0.5-0.6v-0.3h32v0.3c0,0.3,0.3,0.6,0.7,0.6h34.4v0.4
		C238.5,206,238.9,206.4,239.4,206.4z"/>
	<path d="M287.4,193.3h-12.5v-0.4c0-0.4-0.4-0.8-0.9-0.8h-34.4c0,0,0,0-0.1,0h0c-0.5,0-0.9,0.4-0.9,0.8v0.4h-34.3c0,0-0.1,0-0.1,0h0
		c-0.4,0-0.7,0.3-0.7,0.6v0.5h-32v-0.5c0-0.3-0.3-0.6-0.7-0.6h-36.5v-0.4c0-0.4-0.4-0.8-0.9-0.8h-16.5c-0.2,1.9-0.3,3.8-0.6,5.8h0.8
		c0,0,0,0,0,0h16c0,0,0,0,0,0h0.2c0.2,0,0.5-0.2,0.6-0.5c0-0.1,0.1-0.2,0.1-0.2v-0.4h36.5c0.4,0,0.7-0.3,0.7-0.6v-0.3h32v0.3
		c0,0.3,0.3,0.6,0.7,0.6h0.1c0,0,0,0,0,0h34.3v0.4c0,0.4,0.4,0.8,0.9,0.8h0.1c0,0,0,0,0,0H274c0,0,0,0,0,0h0c0.1,0,0.2,0,0.3,0
		c0,0,0,0,0.1,0c0.1,0,0.2-0.1,0.2-0.1c0,0,0,0,0.1,0c0.2-0.2,0.3-0.4,0.3-0.6v-0.4h12.3c0,0,0,0,0,0h0.5
		C287.6,195.6,287.5,194.4,287.4,193.3z"/>
	<path d="M286.9,184.8h-12v-0.4c0-0.4-0.4-0.8-0.9-0.8h-34.4c-0.1,0-0.3,0-0.4,0.1c-0.4,0.1-0.7,0.4-0.7,0.7v0.4h-34.3
		c-0.1,0-0.2,0-0.3,0.1c-0.3,0.1-0.5,0.3-0.5,0.6v0.5h-32v-0.5c0-0.3-0.3-0.6-0.7-0.6h-36.5v-0.4c0-0.4-0.4-0.8-0.9-0.8h-16
		c-0.1,1.9-0.2,3.8-0.3,5.8h1.1c0,0,0,0,0,0h15c0,0,0.1,0,0.1,0h0.1c0.2,0,0.5-0.2,0.6-0.4c0.1-0.1,0.1-0.2,0.1-0.3v-0.4h36.5
		c0.4,0,0.7-0.3,0.7-0.6v-0.3h32v0.3c0,0.2,0.2,0.5,0.5,0.6c0.1,0,0.1,0,0.2,0c0,0,0,0,0,0h0c0,0,0.1,0,0.1,0h34.3v0.4
		c0,0.3,0.3,0.6,0.6,0.7c0.1,0,0.1,0,0.2,0c0,0,0,0,0,0h0c0,0,0.1,0,0.1,0H274c0.4,0,0.7-0.2,0.9-0.5c0.1-0.1,0.1-0.2,0.1-0.3v-0.4
		h11.4c0,0,0,0,0,0h0.8C287,187.1,286.9,185.9,286.9,184.8z"/>
	<path d="M286.7,176.3h-11.8v-0.4c0-0.4-0.4-0.8-0.9-0.8h-34.4c-0.1,0-0.3,0-0.4,0.1c-0.4,0.1-0.6,0.4-0.6,0.7v0.4h-34.3
		c-0.1,0-0.2,0-0.3,0.1c-0.3,0.1-0.5,0.3-0.5,0.6v0.4h-32V177c0-0.3-0.2-0.5-0.5-0.6c-0.1-0.1-0.2-0.1-0.3-0.1h-36.3V176
		c0-0.3-0.3-0.7-0.7-0.8c-0.1-0.1-0.3-0.1-0.4-0.1h-14.1c0,0,0,0,0,0.1h-1.6c0,1.9,0,3.8,0,5.8h15.9c0.1,0,0.3-0.2,0.4-0.3
		c0.1,0,0.1-0.1,0.1-0.2c0.1-0.1,0.1-0.2,0.1-0.4v-0.4h36.5c0.4,0,0.7-0.3,0.7-0.6v-0.3h32v0.2c0,0.2,0.2,0.5,0.5,0.6
		c0.1,0,0.2,0.1,0.3,0.1h34.3v0.4c0,0.3,0.2,0.6,0.6,0.7c0.1,0.1,0.3,0.1,0.4,0.1H274c0.4,0,0.7-0.2,0.9-0.5
		c0.1-0.1,0.1-0.2,0.1-0.3v-0.4h10.8c0,0,0,0,0,0h1C286.7,178.6,286.7,177.4,286.7,176.3z"/>
	<path d="M117.4,172.5h16c0.3-0.1,0.7-0.4,0.7-0.8v0c0,0,0,0,0,0v-0.4h36.5c0.2,0,0.4-0.1,0.5-0.2c0.1-0.1,0.2-0.3,0.2-0.4v-0.2H203
		v0.2c0,0,0,0,0,0.1v0c0,0.3,0.3,0.6,0.7,0.6h34.9v0.4c0,0.1,0,0.2,0.1,0.3c0.1,0.3,0.5,0.5,0.8,0.5H274c0.5,0,0.9-0.4,0.9-0.8v-0.4
		h11.9c0-1.2,0.1-2.3,0.1-3.4h-1.4c0,0,0,0,0,0h-10.7v-0.4c0-0.1,0-0.2-0.1-0.3c-0.1-0.3-0.5-0.5-0.9-0.5h-34.4
		c-0.5,0-0.9,0.4-0.9,0.8v0.4h-34.9c-0.4,0-0.7,0.3-0.7,0.6v0.5h-31.5v-0.5c0-0.3-0.2-0.5-0.6-0.6c-0.1,0-0.2-0.1-0.3-0.1h-36.3
		v-0.4c0-0.4-0.3-0.7-0.7-0.8c-0.1,0-0.2-0.1-0.4-0.1h-14c0,0,0,0,0,0h-2C117.3,168.6,117.4,170.5,117.4,172.5z"/>
	<path d="M473.3,256.3L473.3,256.3C473.3,256.3,473.3,256.3,473.3,256.3l0-0.4h34.6c0.4,0,0.7-0.3,0.7-0.6V255h36v0.2
		c0,0.1,0,0.2,0.1,0.3c0.1,0.2,0.3,0.4,0.7,0.4h36.5v0.4c0,0.4,0.4,0.8,0.9,0.8h34.4c0.1,0,0.3,0,0.4-0.1c0.4-0.1,0.6-0.4,0.6-0.7
		v-0.4H643v0h0.1l0-3.4h-25v-0.4c0-0.4-0.4-0.8-0.9-0.8h-34.4c-0.4,0-0.7,0.2-0.9,0.5c-0.1,0.1-0.1,0.2-0.1,0.3v0.4h-36.5
		c-0.4,0-0.7,0.3-0.7,0.6v0.5h-36v-0.5c0,0,0,0,0,0v0c0-0.3-0.3-0.6-0.7-0.6h-34.6v-0.4c0-0.4-0.4-0.8-0.9-0.8h-23.8v0h-0.8v5.8
		h24.7C472.9,257.1,473.3,256.7,473.3,256.3z"/>
	<path d="M473.3,247.8L473.3,247.8C473.3,247.8,473.3,247.8,473.3,247.8l0-0.4h34.6c0.4,0,0.7-0.3,0.7-0.6v-0.3h36v0.3
		c0,0.1,0,0.2,0.1,0.3c0.1,0.2,0.3,0.4,0.6,0.4h36.5v0.4c0,0.4,0.4,0.8,0.9,0.8h34.4c0.1,0,0.2,0,0.4-0.1c0.4-0.1,0.7-0.4,0.7-0.7
		v-0.4H643v0h0.1l0-3.4h-25v-0.4c0-0.4-0.4-0.8-0.9-0.8h-34.4c-0.1,0-0.3,0-0.4,0.1c0,0,0,0,0,0c-0.1,0-0.2,0.1-0.3,0.2
		c0,0-0.1,0.1-0.1,0.1c0,0,0,0-0.1,0.1c-0.1,0.1-0.1,0.2-0.1,0.3v0.4h-36.5c-0.4,0-0.7,0.3-0.7,0.6v0.5h-36v-0.5
		c0-0.1,0-0.2-0.1-0.2c-0.1-0.2-0.4-0.4-0.7-0.4h-34.6v-0.4c0-0.4-0.4-0.8-0.9-0.8h-23.8v0H448c-0.1,0.3-0.2,0.6-0.3,0.9v4.9h24.7
		C472.9,248.6,473.3,248.2,473.3,247.8z"/>
	<path d="M473.2,239.7c0-0.1,0.1-0.1,0.1-0.2c0-0.1,0.1-0.2,0.1-0.2v0c0,0,0,0,0,0v-0.4h34.6c0.4,0,0.7-0.3,0.7-0.6V238h36v0.3
		c0,0.2,0.1,0.3,0.2,0.4c0.1,0.1,0.3,0.2,0.5,0.2h36.5v0.4c0,0.4,0.4,0.8,0.9,0.8h34.4c0,0,0,0,0.1,0h0c0.5,0,0.9-0.4,0.9-0.8v-0.4
		h23.4c0,0,0,0,0,0h0c-0.4-1.1-0.8-2.3-1.1-3.4h0c0,0,0,0,0,0h-22.3v-0.4c0-0.4-0.4-0.8-0.9-0.8h-34.4c0,0,0,0,0,0h0
		c-0.5,0-0.9,0.4-0.9,0.8v0.4h-36.5c0,0,0,0,0,0c-0.4,0-0.7,0.3-0.7,0.6v0.5h-36v-0.5c0-0.3-0.3-0.6-0.7-0.6h-34.6v-0.4
		c0-0.3-0.2-0.5-0.5-0.7c0,0-0.1,0-0.1-0.1c0,0-0.1,0-0.1,0c-0.1,0-0.1,0-0.2,0h0c0,0,0,0,0,0H451c0,0,0,0,0,0h0
		c-0.6,1.9-1.2,3.9-1.9,5.8h23.4C472.7,240.1,473,239.9,473.2,239.7z"/>
	<path d="M635.8,218.5h-17.6v-0.4c0-0.4-0.3-0.6-0.7-0.7c-0.1,0-0.2-0.1-0.4-0.1h-34.4c-0.5,0-0.9,0.4-0.9,0.8v0.4h-36.5
		c-0.3,0-0.5,0.2-0.6,0.4c0,0.1-0.1,0.2-0.1,0.3v0.5h-36v-0.5c0-0.3-0.3-0.6-0.7-0.6h-34.6v-0.4c0,0,0,0,0,0v0
		c0-0.4-0.4-0.8-0.9-0.8h-17c-0.4,1.9-0.9,3.8-1.3,5.8h0.2c0,0,0,0,0,0h18.1c0.1,0,0.3,0,0.4-0.1c0.2-0.1,0.4-0.3,0.5-0.5
		c0-0.1,0.1-0.1,0.1-0.2v-0.4h34.6c0.3,0,0.6-0.2,0.7-0.4c0-0.1,0.1-0.1,0.1-0.2V221h36v0.3c0,0.3,0.3,0.6,0.7,0.6h36.5v0.4
		c0,0.1,0,0.2,0.1,0.3c0,0,0.1,0.1,0.1,0.1c0,0,0.1,0.1,0.1,0.1c0.2,0.2,0.4,0.3,0.7,0.3h34.4c0.5,0,0.9-0.4,0.9-0.8v-0.4h18.3
		c0,0,0,0,0,0h0.2C636.3,220.8,636,219.6,635.8,218.5z"/>
	<path d="M634.1,210h-16v-0.4c0-0.3-0.3-0.6-0.6-0.7c-0.1-0.1-0.3-0.1-0.4-0.1h-34.4c-0.5,0-0.9,0.4-0.9,0.8v0.4h-36.5
		c-0.3,0-0.6,0.2-0.7,0.4c0,0.1-0.1,0.2-0.1,0.3v0.4h-36v-0.5c0-0.3-0.3-0.6-0.7-0.6h-34.6v-0.4c0,0,0,0,0,0v0
		c0-0.4-0.4-0.8-0.9-0.8H457c-0.3,1.9-0.7,3.8-1.1,5.8h0.3c0,0,0,0,0,0h16.1c0.5,0,0.9-0.4,0.9-0.8v-0.4h34.6c0.4,0,0.7-0.3,0.7-0.6
		v0c0,0,0,0,0,0v-0.2h36v0.3c0,0.3,0.3,0.6,0.7,0.6h36.5v0.4c0,0.1,0,0.2,0.1,0.3c0.1,0.3,0.5,0.5,0.9,0.5h34.4
		c0.5,0,0.9-0.4,0.9-0.8v-0.4h16.3c0,0,0,0,0,0h0.3C634.5,212.3,634.3,211.1,634.1,210z"/>
	<path d="M643.1,271.9L643.1,271.9L643.1,271.9l0-1.2h0v0h-26v-0.5c0-0.3-0.3-0.6-0.7-0.6H582v-0.4c0-0.4-0.4-0.8-0.9-0.8h-34.4
		c-0.5,0-0.9,0.4-0.9,0.8v0.4h-36.5c-0.4,0-0.7,0.3-0.7,0.6v0.5h-35.9v-0.5c0-0.2-0.2-0.5-0.5-0.6c-0.1-0.1-0.2-0.1-0.4-0.1h-23.2
		v0.1h-0.8v3.4h24.1c0.4,0,0.7-0.3,0.7-0.6v-0.3h35.9v0.2c0,0.3,0.2,0.5,0.5,0.6c0.1,0.1,0.2,0.1,0.4,0.1h36.4v0.3
		c0,0.2,0.1,0.5,0.3,0.6c0.2,0.2,0.4,0.3,0.6,0.3h34.4c0.5,0,0.9-0.4,0.9-0.8v0c0,0,0,0,0,0V273h34.4c0.4,0,0.7-0.3,0.7-0.6v0
		c0,0,0,0,0-0.1v-0.2h26.2l0-0.2H643.1z"/>
	<path d="M643.1,320.1h-26.3c-0.2,0-0.3,0.1-0.4,0.2c-0.1,0.1-0.2,0.2-0.2,0.4v0.5h-35.8v-0.5c0-0.3-0.3-0.6-0.7-0.6h-34.4v-0.4
		c0-0.4-0.4-0.8-0.9-0.8H510c0,0,0,0,0,0h-0.1c-0.5,0-0.9,0.4-0.9,0.8v0.4h-36.4c0,0,0,0,0,0h-0.1c-0.4,0-0.7,0.3-0.7,0.6v0.5h-23.8
		v1.4h0.7v0h23.1v0.3c0,0.3,0.3,0.6,0.7,0.6h0.1c0,0,0,0,0.1,0H509v0.4c0,0.3,0.2,0.6,0.6,0.7c0.1,0,0.2,0.1,0.4,0.1h34.4
		c0.1,0,0.1,0,0.2,0c0.4-0.1,0.8-0.4,0.8-0.8v-0.4h34.3c0.1,0,0.2,0,0.3,0c0.3-0.1,0.5-0.3,0.5-0.6v-0.3h35.7v0.3
		c0,0.3,0.3,0.6,0.7,0.6h26.3v0h0.1l0-3.4L643.1,320.1L643.1,320.1z"/>
	<path d="M447.9,314.1h0.7l0,0h23.1v0.3c0,0.3,0.3,0.6,0.7,0.6H509v0.4c0,0.4,0.4,0.8,0.9,0.8h34.4c0.5,0,0.9-0.4,0.9-0.8V315h34.4
		c0.4,0,0.7-0.3,0.7-0.6v-0.3h35.7v0.3c0,0.3,0.3,0.6,0.7,0.6h0.1c0,0,0,0,0,0H643l0,0h0.1v-3.4h-26.3c-0.2,0-0.5,0.2-0.5,0.4
		c0,0.1-0.1,0.2-0.1,0.3v0.5h-35.8v-0.5c0-0.3-0.3-0.6-0.7-0.6h-34.4v-0.4c0-0.4-0.4-0.8-0.9-0.8H510c0,0-0.1,0-0.1,0h0
		c-0.5,0-0.9,0.4-0.9,0.8v0.4h-36.4c0,0-0.1,0-0.1,0h-0.1c-0.4,0-0.7,0.3-0.7,0.6v0.5h-23.8V314.1z"/>
	<path d="M544.4,301.9H510c-0.1,0-0.3,0-0.4,0.1c-0.4,0.1-0.7,0.4-0.7,0.7v0.4h-36.4c-0.1,0-0.2,0-0.3,0.1c-0.3,0.1-0.6,0.3-0.6,0.6
		v0.5h-23.8v1.4h0.7l0,0h23.1v0.3c0,0.3,0.3,0.6,0.7,0.6H509v0.4c0,0.4,0.4,0.8,0.9,0.8h34.4c0.5,0,0.9-0.4,0.9-0.8v-0.4h34.4
		c0.4,0,0.7-0.3,0.7-0.6v-0.3h35.7v0.3c0,0.3,0.2,0.5,0.5,0.6c0.1,0,0.2,0.1,0.3,0.1H643v0h0.2v-3.4h-26.4c-0.2,0-0.5,0.2-0.6,0.4
		c0,0.1-0.1,0.2-0.1,0.2v0.5h-35.8v-0.5c0-0.3-0.3-0.6-0.7-0.6h-34.4v-0.4C545.3,302.3,544.9,301.9,544.4,301.9z"/>
	<path d="M643,344h-27.4c-0.3,0-0.8,0.4-0.8,0.8v0.4h-36.5c-0.4,0-0.7,0.3-0.7,0.6v0.5H546v-0.5c0-0.3-0.3-0.6-0.7-0.6h-34.9v-0.4
		c0-0.4-0.4-0.8-0.9-0.8H475c-0.1,0-0.2,0-0.2,0c-0.4,0.1-0.7,0.4-0.7,0.7v0.4h-26.4v3.4h26.4v0.4c0,0.3,0.3,0.6,0.6,0.7
		c0.1,0,0.2,0.1,0.3,0.1h34.4c0,0,0,0,0,0h0c0.5,0,0.9-0.4,0.9-0.8v-0.4h34.8c0,0,0,0,0,0h0c0.4,0,0.7-0.3,0.7-0.6v-0.3h31.5v0.3
		c0,0.3,0.3,0.6,0.7,0.6h36.5v0.4c0,0.4,0.4,0.8,0.9,0.8H643v0h0.2l0-5.8L643,344L643,344z"/>
	<path d="M473.3,78.9v-0.4h6.7c0,0,0,0,0,0h27.9c0.3,0,0.6-0.2,0.7-0.4c0-0.1,0.1-0.1,0.1-0.2v-0.3h36v0.3c0,0.3,0.3,0.6,0.7,0.6
		h36.5v0.4c0,0.2,0.1,0.4,0.3,0.6c0.1,0,0.1,0.1,0.2,0.1c0,0,0.1,0,0.1,0.1c0.1,0,0.2,0.1,0.4,0.1h29.5c0,0,0,0,0,0h4.9
		c0.5,0,0.9-0.4,0.9-0.8v-0.4h16.7c-0.2-1.2-0.3-2.3-0.5-3.4H618v-0.4c0-0.4-0.4-0.8-0.9-0.8h-34.4c-0.5,0-0.9,0.4-0.9,0.8v0.4
		h-36.5c-0.3,0-0.5,0.1-0.6,0.3c-0.1,0.1-0.1,0.2-0.1,0.3v0.5h-36v-0.5c0-0.3-0.3-0.6-0.7-0.6h-34.6v-0.4c0-0.4-0.4-0.8-0.9-0.8
		h-14.9c-0.1,0.7-0.3,1.5-0.4,2.2c-0.1,1-0.3,1.9-0.4,2.9c0,0.2-0.1,0.4-0.1,0.7h15.8C472.9,79.7,473.3,79.4,473.3,78.9z"/>
	<path d="M473.3,70.4V70H489c0,0,0,0,0,0h18.9c0.4,0,0.7-0.3,0.7-0.6v0c0,0,0,0,0,0v-0.3h36v0.3c0,0.3,0.3,0.6,0.7,0.6h36.5v0.4
		c0,0.1,0,0.2,0.1,0.3c0.1,0.3,0.5,0.5,0.9,0.5h20.9c0,0,0,0,0,0h13.4c0.5,0,0.9-0.4,0.9-0.8V70h15.2c-0.2-1.2-0.5-2.3-0.8-3.4
		h-14.5v-0.4c0-0.4-0.4-0.8-0.9-0.8h-34.4c-0.5,0-0.9,0.4-0.9,0.8v0.4h-36.5c-0.4,0-0.7,0.3-0.7,0.6v0.5h-35.9v-0.4
		c0-0.3-0.2-0.5-0.5-0.6c-0.1,0-0.2-0.1-0.3-0.1h-34.6v-0.4c0-0.4-0.4-0.8-0.9-0.8h-12.7c-0.6,1.7-1.1,3.7-1.5,5.8h14.2
		C472.9,71.2,473.3,70.9,473.3,70.4z"/>
	<path d="M473.3,61.9v-0.4H502l-0.1,0h5.9c0.4,0,0.7-0.3,0.7-0.6v0c0,0,0,0,0,0v-0.2h36v0.3c0,0.3,0.3,0.6,0.7,0.6h36.5V62
		c0,0.4,0.4,0.8,0.9,0.8h34.4c0.5,0,0.9-0.4,0.9-0.8v-0.4h12.7c-0.4-1-0.9-1.9-1.4-2.5c-0.1-0.1-0.1-0.2-0.2-0.4l-1.5-0.4H618v-0.4
		c0-0.4-0.4-0.8-0.9-0.8h-33.9L583,57h-0.3c-0.5,0-0.9,0.4-0.9,0.8v0c0,0,0,0.1,0,0.1v0.3h-36.5c-0.4,0-0.7,0.3-0.7,0.6v0.5h-36
		v-0.4c0,0,0,0,0,0v-0.1c0-0.3-0.3-0.6-0.7-0.6h-0.6l-0.2,0.1h-33.7v-0.4c0-0.4-0.4-0.8-0.9-0.8h-2.3l-7.5,2.2l0,0
		c-0.3,0.4-0.4,0.6-0.5,0.8c-0.1,0.2-0.3,0.4-0.4,0.6c-0.1,0.2-0.2,0.3-0.3,0.5c-0.1,0.1-0.1,0.2-0.2,0.3c-0.2,0.4-0.4,0.8-0.6,1.2
		h11.8C472.9,62.7,473.3,62.4,473.3,61.9z"/>
	<path d="M508.6,52.4v-0.3h8.2l-0.1,0.1h27.9v0.3c0,0.3,0.3,0.6,0.7,0.6h32l-0.1-0.1h4.6v0.4c0,0.4,0.4,0.8,0.9,0.8h31.7l-19.1-5.8
		h-12.5c-0.5,0-0.9,0.4-0.9,0.8v0.4h-36.5c-0.3,0-0.6,0.2-0.7,0.4c0,0.1-0.1,0.2-0.1,0.2v0.4h-36v-0.5c0-0.3-0.3-0.6-0.7-0.6h-13.1
		l-11.6,3.5h24.7C508.3,53.1,508.6,52.8,508.6,52.4z"/>
	<path d="M472.5,103.5v-0.3h36v0.3c0,0.2,0.1,0.3,0.2,0.4c0.1,0.1,0.3,0.2,0.5,0.2h36.5v0.4c0,0.4,0.4,0.8,0.9,0.8H581
		c0.1,0,0.3,0,0.4-0.1c0.4-0.1,0.6-0.4,0.6-0.7v-0.4h34.3c0.1,0,0.2,0,0.3-0.1c0.3-0.1,0.5-0.3,0.5-0.6v-0.3h19.6
		c0-0.5,0-0.9-0.1-1.4h-19.5v-0.5c0-0.3-0.3-0.6-0.7-0.6H582v-0.4c0-0.4-0.4-0.8-0.9-0.8h-34.4c-0.5,0-0.9,0.4-0.9,0.8v0.4h-36.5
		c-0.4,0-0.7,0.3-0.7,0.6v0.5h-35.9v-0.5c0-0.3-0.3-0.6-0.7-0.6h-0.1c0,0-0.1,0-0.1,0h-4.9c0,0,0,0,0,0h-12.1
		c-0.1,1.1-0.1,2.3-0.2,3.4h17.3C472.2,104.1,472.5,103.8,472.5,103.5z"/>
	<path d="M472.5,95v-0.3h36V95c0,0.3,0.2,0.5,0.4,0.6c0.1,0,0.2,0.1,0.3,0.1h36.5V96c0,0.4,0.4,0.8,0.9,0.8H581c0,0,0,0,0.1,0h0
		c0.5,0,0.9-0.4,0.9-0.8v-0.4h34.3c0,0,0,0,0.1,0h0c0.4,0,0.7-0.3,0.7-0.6v-0.3h4.7c0,0,0,0,0,0h14.4c0-0.5-0.1-0.9-0.1-1.4h-19
		v-0.5c0-0.3-0.3-0.6-0.7-0.6h-0.1c0,0,0,0,0,0H582v-0.4c0-0.4-0.3-0.7-0.7-0.8c-0.1,0-0.1,0-0.2,0h-34.4c0,0,0,0,0,0h-0.1
		c-0.5,0-0.9,0.4-0.9,0.8v0.4h-36.4c0,0,0,0,0,0h-0.1c-0.4,0-0.7,0.3-0.7,0.6v0.5h-35.9v-0.5c0-0.3-0.3-0.6-0.7-0.6h-16.5
		c-0.1,1.1-0.2,2.3-0.3,3.4h16.8C472.2,95.6,472.5,95.3,472.5,95z"/>
	<path d="M472.5,86.5v-0.3h1.7c0,0,0,0,0,0h34.2v0.3c0,0.3,0.3,0.6,0.7,0.6h36.5v0.4c0,0.1,0,0.2,0.1,0.3c0,0.1,0.1,0.2,0.2,0.2
		c0,0,0,0,0,0c0.1,0.1,0.1,0.1,0.2,0.1c0,0,0.1,0,0.1,0c0.1,0,0.2,0,0.3,0c0,0,0.1,0,0.1,0h0c0,0,0,0,0,0h34.4
		c0.5,0,0.9-0.4,0.9-0.8v-0.4h34.4c0.4,0,0.7-0.3,0.7-0.6v-0.1c0-0.1-0.1-0.1-0.1-0.2h18.5c0-0.5-0.1-0.9-0.1-1.4H617v-0.5
		c0-0.3-0.3-0.6-0.7-0.6H582v-0.4c0-0.2-0.1-0.4-0.3-0.6c-0.2-0.1-0.4-0.2-0.6-0.2h-34.4c-0.1,0-0.2,0-0.2,0
		c-0.4,0.1-0.8,0.4-0.8,0.8v0.4h-36.4c0,0-0.1,0-0.1,0h0c-0.4,0-0.7,0.3-0.7,0.6v0.5h-35.9v-0.5c0-0.3-0.3-0.6-0.7-0.6h-15.7
		c-0.1,1.1-0.2,2.2-0.4,3.4h16C472.2,87.1,472.5,86.8,472.5,86.5z"/>
	<path d="M469.6,128.6L469.6,128.6c0,0.3,0.3,0.6,0.7,0.6h36.5v0.4c0,0.4,0.4,0.8,0.9,0.8h34.4c0,0,0.1,0,0.1,0h0
		c0.5,0,0.9-0.4,0.9-0.8v-0.4h34.3c0,0,0.1,0,0.1,0h0c0.4,0,0.7-0.3,0.7-0.6v-0.3h35.6v0.3c0,0.3,0.3,0.6,0.7,0.6h23.1
		c-0.1-1.1-0.1-2.2-0.2-3.4h-6.3c0,0,0,0,0,0h-16.4c0,0,0,0-0.1,0h-0.1c-0.4,0-0.7,0.3-0.7,0.6v0.5h-35.6v-0.5
		c0-0.3-0.3-0.6-0.7-0.6h-34.4v-0.4c0-0.4-0.4-0.8-0.9-0.8h-34.4c0,0,0,0-0.1,0h0c0,0-0.1,0-0.1,0c-0.1,0-0.1,0-0.2,0
		c-0.4,0.1-0.6,0.4-0.6,0.7v0.4h-36.5c-0.1,0-0.2,0-0.3,0.1c0,0,0,0,0,0c-0.1,0-0.1,0.1-0.2,0.1c0,0-0.1,0.1-0.1,0.1c0,0,0,0,0,0
		c0,0.1-0.1,0.2-0.1,0.2v0.5h-16c0,0.5,0,0.9-0.1,1.4h16.1V128.6z"/>
	<path d="M615.6,206.4h17.9c-0.3-2-0.6-3.9-0.8-5.8H632c0,0,0,0,0,0h-16.3c0,0,0,0,0,0h-0.2c-0.5,0-0.9,0.4-0.9,0.8v0.4h-36.4
		c0,0,0,0,0,0h-0.1c-0.4,0-0.7,0.3-0.7,0.6v0.5h-32v-0.5c0-0.3-0.3-0.6-0.7-0.6h-34.4v-0.4c0-0.4-0.4-0.8-0.9-0.8H475
		c-0.5,0-0.9,0.4-0.9,0.8v0.4h-15.3c0,0,0,0,0,0h-0.7c-0.1,1.1-0.3,2.3-0.5,3.4h16.5v0.4c0,0.3,0.2,0.6,0.5,0.7
		c0.1,0.1,0.2,0.1,0.4,0.1h34.4c0.1,0,0.2,0,0.2,0c0.4-0.1,0.7-0.4,0.7-0.8v-0.4h34.3c0.1,0,0.2,0,0.3-0.1c0.3-0.1,0.5-0.3,0.5-0.6
		v-0.3h32v0.3c0,0.3,0.3,0.6,0.7,0.6h36.5v0.4C614.7,206,615.1,206.4,615.6,206.4z"/>
	<path d="M631.8,192.1h-16.2c-0.5,0-0.9,0.4-0.9,0.8v0.4h-36.5c-0.4,0-0.7,0.3-0.7,0.6v0.5h-32v-0.5c0-0.3-0.2-0.5-0.5-0.6
		c-0.1,0-0.2-0.1-0.3-0.1h-34.3v-0.4c0-0.4-0.3-0.7-0.7-0.7c-0.1,0-0.2-0.1-0.3-0.1H475c-0.1,0-0.3,0-0.4,0.1
		c-0.3,0.1-0.5,0.4-0.5,0.7v0.4H459c-0.1,1.1-0.2,2.3-0.3,3.4h0.8c0,0,0,0,0,0h14.6v0.4c0,0.4,0.4,0.8,0.9,0.8h34.4
		c0.5,0,0.9-0.4,0.9-0.8v-0.4h34.4c0.4,0,0.7-0.3,0.7-0.6v-0.3h32v0.3c0,0.3,0.3,0.6,0.7,0.6h0.1c0,0,0,0,0,0h36.4v0.4
		c0,0.4,0.4,0.8,0.9,0.8h0.2c0,0,0,0,0,0h15.9c0,0,0,0,0,0h0.7C632.1,195.9,631.9,194,631.8,192.1z"/>
	<path d="M631.3,183.6h-15.7c-0.5,0-0.9,0.4-0.9,0.8v0.4h-36.5c-0.4,0-0.7,0.3-0.7,0.6v0.5h-32v-0.5c0-0.3-0.2-0.5-0.5-0.6
		c-0.1,0-0.2-0.1-0.3-0.1h-34.3v-0.4c0-0.3-0.2-0.6-0.6-0.7c-0.1-0.1-0.2-0.1-0.4-0.1H475c-0.3,0-0.5,0.1-0.6,0.3
		c-0.2,0.1-0.3,0.3-0.3,0.6v0.4h-14.5c0,1.1-0.1,2.3-0.2,3.4h1.1c0,0,0,0,0,0h13.6v0.4c0,0.4,0.4,0.8,0.9,0.8h34.4
		c0.5,0,0.9-0.4,0.9-0.8v-0.4h34.4c0.4,0,0.7-0.3,0.7-0.6v-0.3h32v0.3c0,0.3,0.3,0.6,0.7,0.6h0c0,0,0.1,0,0.1,0h36.4v0.4
		c0,0.4,0.4,0.8,0.9,0.8h0.1c0,0,0.1,0,0.1,0h14.8c0,0,0,0,0,0h1C631.5,187.4,631.4,185.5,631.3,183.6z"/>
	<path d="M631.2,175.1h-15.6c-0.5,0-0.9,0.4-0.9,0.8v0.4h-36.5c-0.4,0-0.7,0.3-0.7,0.6v0.5h-32V177c0-0.3-0.3-0.6-0.7-0.6h-34.4
		v-0.4c0-0.4-0.4-0.8-0.9-0.8H475c-0.5,0-0.9,0.4-0.9,0.8v0.4h-12.8c0,0,0,0,0,0.1h-1.5c0,1.1,0,2.3,0,3.4h14.4v0.3
		c0,0.4,0.4,0.8,0.9,0.8h34.4c0.5,0,0.9-0.4,0.9-0.8v-0.4h34.4c0.4,0,0.7-0.3,0.7-0.6v-0.3h32v0.2c0,0.2,0.2,0.5,0.5,0.6
		c0.1,0,0.2,0.1,0.3,0.1h36.4v0.4c0,0.3,0.3,0.7,0.7,0.8c0.1,0,0.2,0.1,0.4,0.1h14.2c0,0,0,0,0,0h1.3
		C631.2,178.9,631.2,177,631.2,175.1z"/>
	<path d="M459.6,171.3h14.5v0.4c0,0.1,0.1,0.3,0.1,0.4c0.1,0.3,0.4,0.5,0.8,0.5h34.4c0.2,0,0.4-0.1,0.6-0.2c0.2-0.1,0.4-0.4,0.4-0.6
		v-0.4h34.8c0.2,0,0.4-0.1,0.5-0.2c0.2-0.1,0.3-0.3,0.3-0.5v-0.2h31.5v0.3c0,0.3,0.3,0.6,0.7,0.6h36.5v0.4c0,0.4,0.4,0.8,0.9,0.8
		h15.6c0-2,0.1-3.9,0.2-5.8h-1.9c0,0,0,0,0,0h-13.8c-0.1,0-0.3,0-0.4,0.1c-0.4,0.1-0.7,0.4-0.7,0.8v0.4h-36.4c-0.1,0-0.2,0-0.3,0.1
		c-0.3,0.1-0.5,0.3-0.5,0.6v0.5H546v-0.5c0-0.2-0.1-0.3-0.2-0.4c-0.1-0.1-0.3-0.2-0.5-0.2h-34.8v-0.4c0-0.1,0-0.2-0.1-0.3
		c-0.1-0.3-0.5-0.5-0.9-0.5H475c-0.5,0-0.9,0.4-0.9,0.8v0.4h-12.7c0,0,0,0,0,0h-1.9C459.5,169,459.6,170.1,459.6,171.3z"/>
	<path d="M110,230.4h20.7v0.4h0.1c0,0.4,0.4,0.8,0.9,0.8h0c0,0,0,0,0,0h34.4c0.5,0,0.9-0.4,0.9-0.8v-0.4h36.5c0.4,0,0.7-0.3,0.7-0.6
		v-0.3h35.8v0.3c0,0.3,0.3,0.6,0.7,0.6h0.2c0,0,0,0,0,0h34.4v0.4c0,0.4,0.4,0.8,0.9,0.8h0.2c0,0,0,0,0,0h18.1c-0.5-1.7-1-3.3-1.5-5
		c-0.1-0.3-0.1-0.5-0.2-0.8h-16.7c-0.5,0-0.9,0.4-0.9,0.8v0.4h-34.6c-0.4,0-0.7,0.3-0.7,0.6v0.5h-35.7v-0.5c0-0.3-0.3-0.6-0.7-0.6
		h-0.2c0,0-0.1,0-0.1,0h-36.3v-0.4c0-0.4-0.4-0.8-0.9-0.8h-0.1c0,0-0.1,0-0.1,0h-34.4c-0.5,0-0.9,0.4-0.9,0.8v0.4h-19.9
		C110.5,228.1,110.2,229.3,110,230.4L110,230.4C110,230.4,110,230.4,110,230.4z"/>
	<path d="M244,78.5h24c0,0,0,0,0,0h7.8v0.4h-0.1c0,0.4,0.4,0.8,0.9,0.8h13.6c-0.2-2-0.5-4-0.8-5.8h-12.8c-0.5,0-0.9,0.4-0.9,0.8v0.4
		h-30.9c-0.5,1.1-1,2.3-1.6,3.4L244,78.5C244,78.5,244,78.5,244,78.5z"/>
	<path d="M247.6,70h10.5c0,0,0,0,0,0h17.5v0.4h0.1c0,0.4,0.4,0.8,0.9,0.8h12.3c-0.2-0.9-0.3-1.7-0.5-2.5c-0.3-1.2-0.5-2.3-0.8-3.3
		c0,0,0,0,0,0h-11.1c-0.5,0-0.9,0.4-0.9,0.8v0.4h-27.7c-0.3,1.1-0.7,2.3-1.1,3.4L247.6,70C247.6,70,247.6,70,247.6,70z"/>
	<path d="M117.9,120.2h13.9v0.2h0c0,0.2,0.1,0.3,0.2,0.4c0.1,0.1,0.3,0.2,0.5,0.2H167v0.4c0,0.4,0.4,0.8,0.9,0.8h34.4
		c0.5,0,0.9-0.4,0.9-0.8V121h36.5c0.4,0,0.7-0.3,0.7-0.6v-0.3h35.9v0.2c0,0.2,0.2,0.5,0.4,0.6c0.1,0.1,0.2,0.1,0.3,0.1h9.3
		c0,0,0,0,0,0h6.2c0-1.1-0.1-2.2-0.1-3.4h-15.4c-0.3,0-0.6,0.2-0.7,0.4c0,0.1-0.1,0.2-0.1,0.3v0.4h-36v-0.5c0-0.3-0.3-0.6-0.7-0.6
		h-36.5v-0.4c0-0.4-0.4-0.8-0.9-0.8H168c-0.1,0-0.3,0-0.4,0.1c-0.4,0.1-0.6,0.4-0.6,0.7v0.4h-34.3c-0.1,0-0.2,0-0.3,0.1
		c-0.3,0.1-0.5,0.3-0.5,0.6v0.4h-20.1c0,0.5,0,0.9-0.1,1.4L117.9,120.2C117.9,120.1,117.9,120.1,117.9,120.2z"/>
	<path d="M120.1,111.7h11.8v0.2h0c0,0.1,0,0.2,0.1,0.3c0,0,0,0,0,0c0,0,0.1,0.1,0.1,0.1c0.1,0.1,0.3,0.2,0.6,0.2H167v0.4
		c0,0.4,0.4,0.8,0.9,0.8h34.4c0.5,0,0.9-0.4,0.9-0.8v-0.4h36.5c0.4,0,0.7-0.3,0.7-0.6v-0.3h35.9v0.2c0,0.2,0.1,0.3,0.3,0.5
		c0.1,0.1,0.3,0.2,0.5,0.2h7.3c0,0,0,0,0-0.1h7.9c0-1.1-0.1-2.2-0.1-3.4h-15.1c-0.3,0-0.6,0.2-0.7,0.4c0,0.1-0.1,0.2-0.1,0.3v0.4
		h-36v-0.5c0-0.3-0.3-0.6-0.7-0.6h-36.5v-0.4c0-0.4-0.4-0.8-0.9-0.8H168c-0.2,0-0.3,0.1-0.4,0.1c-0.4,0.1-0.6,0.4-0.6,0.7v0.3h-34.3
		c-0.1,0-0.3,0-0.4,0.1c-0.3,0.1-0.5,0.3-0.5,0.6v0.4H112c0,0.5,0,0.9-0.1,1.4L120.1,111.7C120.1,111.6,120.1,111.7,120.1,111.7z"/>
	<path d="M126,94.7h5.8V95c0,0,0,0,0,0h0c0,0.3,0.3,0.6,0.7,0.6H167V96c0,0.3,0.3,0.6,0.6,0.7c0.1,0,0.2,0.1,0.3,0.1h10.9
		c-2.9-1.7-5.5-3.6-7.8-5.8h-3.2c0,0,0,0,0,0h0c-0.5,0-0.9,0.4-0.9,0.8v0.4h-34.4c0,0,0,0,0,0h0c-0.4,0-0.7,0.3-0.7,0.6v0.5h-18.9
		c0,0.5-0.1,0.9-0.1,1.4L126,94.7C126,94.7,126,94.7,126,94.7z"/>
	<path d="M238.4,87.1h1.4c0,0,0,0,0,0h0c0.1,0,0.1,0,0.1,0c0,0,0.1,0,0.1,0c0.3-0.1,0.4-0.3,0.4-0.6v-0.3h33.2c0,0,0,0,0,0h2.8v0.3
		c0,0.3,0.3,0.6,0.7,0.6h13.7c-0.1-1.1-0.2-2.3-0.3-3.4h-13.4c-0.4,0-0.7,0.3-0.7,0.6v0.5h-36v-0.5c0-0.3-0.2-0.4-0.5-0.5
		c-0.8,1.1-1.6,2.3-2.5,3.3L238.4,87.1C238.4,87.1,238.4,87.1,238.4,87.1z"/>
	<path d="M130.4,86.2h1.4v0.3c0,0,0,0,0,0h0c0,0.3,0.3,0.6,0.7,0.6h0c0,0,0,0,0,0h34c0,0,0,0,0,0h0.4v0.4c0,0.1,0,0.1,0,0.2
		c0,0-0.1-0.1-0.1-0.1c0,0.3,0.3,0.5,0.6,0.7c0,0,0,0,0-0.1c0.1,0.1,0.3,0.1,0.4,0.1h0.6c-1.3-1.5-2.5-3-3.6-4.6h-32.3
		c-0.1,0-0.2,0-0.3,0.1c-0.3,0.1-0.5,0.3-0.5,0.6v0.5h-18.2c0,0.5-0.1,0.9-0.1,1.4L130.4,86.2C130.4,86.2,130.4,86.2,130.4,86.2z"/>
	<path d="M299.6,295h-22.4c0,0,0,0,0,0h-0.1c-0.4,0-0.7,0.3-0.7,0.6v0.5h-35.9v-0.5c0-0.3-0.3-0.6-0.7-0.6h-36.5v-0.4
		c0-0.4-0.4-0.8-0.9-0.8h-34.4c-0.5,0-0.9,0.4-0.9,0.8v0.4h-34.4c-0.4,0-0.7,0.3-0.7,0.6v0.5h-27.4v1.4h0.8v0h26.7v0.3c0,0,0,0,0,0
		h0c0,0.3,0.3,0.6,0.7,0.6H167v0.4c0,0.3,0.2,0.6,0.6,0.7c0.1,0,0.2,0.1,0.4,0.1h34.4c0.1,0,0.2,0,0.4-0.1c0.3-0.1,0.6-0.4,0.6-0.7
		v-0.4h36.5c0.1,0,0.2,0,0.3-0.1c0.3-0.1,0.5-0.3,0.5-0.6v-0.3h35.9v0.3c0,0.3,0.3,0.6,0.7,0.6h22.7l0-3.4L299.6,295L299.6,295z"/>
	<path d="M202.9,268.6c-0.2-0.2-0.4-0.3-0.6-0.3h-34.4c-0.3,0-0.5,0.1-0.6,0.3c-0.2,0.1-0.3,0.3-0.3,0.6v0.4h-34.4
		c-0.2,0-0.4,0.1-0.5,0.2c-0.1,0.1-0.2,0.3-0.2,0.5v0.4h-27.4v1.4h0.8v0.1h26.7v0.2h0c0,0.2,0.1,0.3,0.2,0.4c0,0,0.1,0.1,0.2,0.1
		c0,0,0,0,0,0c0.1,0,0.2,0.1,0.3,0.1H167v0.4c0,0.4,0.4,0.8,0.9,0.8h34.4c0.5,0,0.9-0.4,0.9-0.8v-0.4h36.5c0.4,0,0.7-0.3,0.7-0.6
		v-0.3h35.9v0.2c0,0.2,0.2,0.5,0.5,0.6c0.1,0,0.2,0.1,0.3,0.1h22.4l0,0h0.1v-1v-2.4h-22.6c-0.4,0-0.7,0.3-0.7,0.6v0.5h-35.9v-0.4
		c0-0.3-0.2-0.5-0.4-0.6c-0.1-0.1-0.2-0.1-0.3-0.1h-36.5v-0.4C203.2,268.9,203.1,268.7,202.9,268.6z"/>
	<path d="M277.2,312.2c0-0.3-0.3-0.6-0.7-0.6h0c0,0-0.1,0-0.1,0H240v-0.4c0-0.4-0.4-0.8-0.9-0.8h-34.4c0,0-0.1,0-0.1,0
		c-0.5,0-0.9,0.4-0.9,0.8v0.4h-34.3c0,0-0.1,0-0.1,0c-0.4,0-0.7,0.3-0.7,0.6v0.5h-35.7v-0.5c0-0.3-0.3-0.6-0.7-0.6h-27.7v3.4h0.7v0
		H132c0.3,0,0.5-0.1,0.6-0.3c0.1-0.1,0.1-0.2,0.1-0.3v-0.3h35.8v0.3c0,0.3,0.3,0.6,0.7,0.6h34.4v0.4c0,0.4,0.4,0.8,0.9,0.8h34.4
		c0.5,0,0.9-0.4,0.9-0.8V315h36.5c0.4,0,0.7-0.3,0.7-0.6v-0.3h22.3v0h0.3v-1.4h-22.6V312.2z"/>
	<path d="M238.6,370.2v0.4h-34.4c-0.4,0-0.7,0.3-0.7,0.6v0.5h-32.1v-0.5c0-0.3-0.3-0.6-0.7-0.6h-12c10.1,1.2,20.6,2.2,30.7,2.5h14.2
		v0.1c15-0.4,31.4-1.9,46.4-3.8h-10.3C239,369.5,238.6,369.8,238.6,370.2z"/>
	<path d="M274.9,361.8c0-0.4-0.4-0.8-0.9-0.8h-34.4c-0.5,0-0.9,0.4-0.9,0.8v0.4h-34.4c-0.4,0-0.7,0.3-0.7,0.6v0.5h-32.1v-0.5
		c0-0.2-0.2-0.5-0.4-0.6c-0.1,0-0.2-0.1-0.3-0.1h-36.5v-0.4c0-0.4-0.4-0.8-0.9-0.8h-28.8v0.6c0,0,0,0,0,0c0,0-0.1,0,0,0h0
		c0,0,0.1,0,0.2,0c0,0,0,0,0,0v0c0,0,11,2.4,26.8,5.1h1.6c0.5,0,0.9-0.4,0.9-0.8v-0.4h36.5c0.4,0,0.7-0.3,0.7-0.6v-0.3H187
		c0.1,0,0.2,0,0.3,0h16.2v0.2c0,0.3,0.3,0.6,0.7,0.6h34.4v0.4c0,0.4,0.4,0.8,0.9,0.8h30c1.9-0.3,3.7-0.6,5.4-0.8v-0.4h2.4
		c9-1.4,16-2.7,19.7-3.4h-22.1V361.8z"/>
	<path d="M461.1,121h10.7c0.1,0,0.2,0,0.3-0.1c0.2-0.1,0.4-0.3,0.4-0.6v-0.2h36v0.3c0,0.3,0.3,0.6,0.7,0.6h36.5v0.4c0,0,0,0,0,0v0
		c0,0.4,0.4,0.8,0.9,0.8h34.4c0.5,0,0.9-0.4,0.9-0.8V121h34.4c0.4,0,0.7-0.3,0.7-0.6v-0.3H630c0,0,0,0,0-0.1h7.4c0-0.5,0-0.9,0-1.4
		h-20.3v-0.4c0-0.3-0.2-0.5-0.5-0.6c-0.1-0.1-0.2-0.1-0.4-0.1H582v-0.4c0,0,0,0,0,0v0c0-0.4-0.4-0.8-0.9-0.8h-34.4
		c-0.2,0-0.3,0-0.4,0.1c-0.3,0.1-0.6,0.4-0.6,0.7v0.4h-36.4c-0.1,0-0.2,0-0.3,0.1c-0.3,0.1-0.5,0.3-0.5,0.6v0.4h-35.9v-0.5
		c0-0.3-0.3-0.6-0.7-0.6H454c0,1.2-0.1,2.3-0.1,3.4L461.1,121C461.1,121,461.1,121,461.1,121z"/>
	<path d="M463,112.6h8.7c0.1,0,0.2,0,0.3-0.1c0.2,0,0.5-0.3,0.5-0.6v-0.2h36v0.3c0,0.3,0.3,0.6,0.7,0.6h36.5v0.3c0,0,0,0,0,0v0
		c0,0.4,0.4,0.8,0.9,0.8h34.4c0.5,0,0.9-0.4,0.9-0.8v-0.4h34.4c0.4,0,0.7-0.3,0.7-0.6v-0.3H628c0,0,0-0.1,0-0.1h9.1
		c0-0.5,0-0.9-0.1-1.4h-19.9v-0.4c0-0.3-0.2-0.5-0.6-0.6c-0.1-0.1-0.2-0.1-0.4-0.1H582v-0.3c0,0,0,0,0,0v0c0-0.4-0.4-0.8-0.9-0.8
		h-34.4c-0.3,0-0.5,0.1-0.6,0.3c-0.2,0.1-0.3,0.4-0.3,0.6v0.3h-36.4c-0.1,0-0.3,0-0.4,0.1c-0.3,0.1-0.5,0.3-0.5,0.6v0.4h-35.9v-0.5
		c0-0.3-0.3-0.6-0.7-0.6h-17.6c-0.1,1.1-0.1,2.3-0.1,3.4L463,112.6C463.1,112.5,463,112.5,463,112.6z"/>
	<path d="M542.3,158.5c-0.1,0-0.1,0-0.2,0h-34.4c-0.5,0-0.9,0.4-0.9,0.8v0.4h-36.5c-0.4,0-0.7,0.3-0.7,0.6v0.5H459
		c0,0.5,0.1,0.9,0.1,1.4h2.2c0,0,0,0,0,0h8.3v0.3c0,0.1,0,0.2,0.1,0.2c0,0,0.1,0.1,0.1,0.1c0,0,0,0,0.1,0.1c0.1,0.1,0.3,0.2,0.5,0.2
		h36.5v0.4c0,0.3,0.3,0.6,0.6,0.7c0.1,0,0.2,0,0.3,0.1c0,0,0,0,0,0h0c0,0,0,0,0.1,0h34.4c0.5,0,0.9-0.4,0.9-0.8v-0.4h34.4
		c0.4,0,0.7-0.3,0.7-0.6v-0.3h35.6v0.3c0,0.3,0.3,0.6,0.7,0.6h0.1c0,0,0,0,0.1,0h14.8c0,0,0,0,0,0h2.1c0.1-1.2,0.2-2.3,0.3-3.4
		h-17.4c-0.4,0-0.7,0.3-0.7,0.6v0.5h-35.6v-0.5c0-0.3-0.3-0.5-0.6-0.6c-0.1,0-0.2-0.1-0.3-0.1h-34.3v-0.4
		C543.1,158.9,542.8,158.6,542.3,158.5z"/>
	<path d="M542.5,150.1c-0.1-0.1-0.2-0.1-0.4-0.1h-34.4c-0.5,0-0.9,0.4-0.9,0.8v0.4h-36.5c-0.4,0-0.7,0.3-0.7,0.6v0.5H458
		c0.1,0.5,0.1,0.9,0.2,1.4h2.7c0,0,0,0,0,0.1h8.7v0.2c0,0.1,0,0.2,0.1,0.2c0.1,0.2,0.4,0.4,0.7,0.4h36.5v0.4c0,0.2,0.1,0.4,0.3,0.6
		c0,0,0.1,0.1,0.2,0.1c0,0,0.1,0,0.1,0c0.1,0.1,0.3,0.1,0.4,0.1h34.4c0.5,0,0.9-0.4,0.9-0.8v-0.4h34.4c0.4,0,0.7-0.3,0.7-0.6v-0.3
		h35.6v0.2c0,0.3,0.3,0.6,0.7,0.6h0c0.1,0,0.1,0,0.2,0H630c0,0,0,0,0,0h2.5c0.1-1.2,0.3-2.3,0.5-3.4h-18.4c-0.4,0-0.7,0.3-0.7,0.6
		v0.5h-35.6v-0.4c0-0.3-0.2-0.5-0.5-0.6c-0.1,0-0.2-0.1-0.3-0.1h-34.3v-0.4C543.1,150.5,542.9,150.2,542.5,150.1z"/>
	<path d="M542.9,141.8c-0.2-0.2-0.4-0.3-0.7-0.3h-34.4c-0.3,0-0.5,0.1-0.7,0.3c-0.2,0.1-0.3,0.3-0.3,0.6v0.4h-36.5
		c-0.2,0-0.4,0.1-0.5,0.2c-0.2,0.1-0.3,0.3-0.3,0.5v0.4h-13c0.1,0.5,0.2,0.9,0.3,1.4h3.2c0,0,0,0,0,0.1h9.6v0.2h0c0,0,0,0,0,0v0
		c0,0.3,0.3,0.6,0.7,0.6h36.5v0.4c0,0.2,0.1,0.4,0.3,0.6c0.2,0.2,0.4,0.3,0.7,0.3h34.4c0.5,0,0.9-0.4,0.9-0.8v-0.4h34.4
		c0.4,0,0.7-0.3,0.7-0.6v-0.3h35.6v0.2c0,0.3,0.2,0.5,0.6,0.6c0.1,0,0.2,0.1,0.3,0.1h16c0,0,0,0,0,0h3c0.2-1.2,0.4-2.3,0.6-3.4
		h-19.8c-0.4,0-0.7,0.3-0.7,0.6v0.5h-35.7v-0.4c0-0.2-0.1-0.3-0.2-0.4c-0.1-0.1-0.3-0.2-0.5-0.2h-34.4v-0.4
		C543.1,142.1,543,141.9,542.9,141.8z"/>
	<path d="M542.5,133.1c-0.1-0.1-0.3-0.1-0.4-0.1h-34.4c-0.5,0-0.9,0.4-0.9,0.8v0.4h-36.5c-0.4,0-0.7,0.3-0.7,0.6v0.5h-14.9
		c0.1,0.4,0.2,0.9,0.4,1.4h3.7c0,0,0,0.1,0,0.1h10.8v0.2c0,0,0,0,0,0v0c0,0.3,0.3,0.6,0.7,0.6h36.5v0.3c0,0.1,0.1,0.3,0.1,0.4
		c0.1,0.3,0.5,0.5,0.9,0.5h34.4c0.5,0,0.9-0.4,0.9-0.8v-0.4h34.4c0.4,0,0.7-0.3,0.7-0.6v-0.3h35.6v0.2c0,0.3,0.2,0.5,0.5,0.6
		c0.1,0.1,0.2,0.1,0.4,0.1h17.3c0,0,0,0,0-0.1h3.5c0.3-1.3,0.6-2.5,0.9-3.4h-21.9c-0.4,0-0.7,0.3-0.7,0.6v0.5h-35.6v-0.4
		c0-0.3-0.2-0.5-0.5-0.6c-0.1-0.1-0.2-0.1-0.4-0.1h-34.3v-0.3C543.1,133.5,542.9,133.2,542.5,133.1z"/>
	<path d="M451.8,231.6h20.5c0,0,0,0,0,0h0c0,0,0.1,0,0.1,0c0.1,0,0.1,0,0.2,0c0,0,0,0,0.1,0c0.3-0.1,0.5-0.4,0.5-0.7v-0.4h34.6
		c0,0,0,0,0,0h0c0.1,0,0.1,0,0.2,0c0,0,0.1,0,0.1,0c0.1,0,0.1-0.1,0.2-0.1c0,0,0,0,0,0c0.1-0.1,0.2-0.3,0.2-0.4v-0.3h36v0.3
		c0,0.3,0.3,0.6,0.7,0.6h36.5v0.4c0,0.2,0.1,0.4,0.3,0.6c0,0,0,0,0,0c0.1,0.1,0.2,0.1,0.3,0.2c0,0,0,0,0.1,0c0.1,0,0.2,0.1,0.3,0.1
		h0c0,0,0,0,0,0h34.4c0.5,0,0.9-0.4,0.9-0.8v-0.4h20.7c0,0,0,0,0,0h0c-0.3-1.1-0.7-2.3-1-3.4h-19.7v-0.4c0-0.4-0.4-0.8-0.9-0.8h0
		c0,0-0.1,0-0.1,0h-34.4c-0.5,0-0.9,0.4-0.9,0.8v0.4h-36.5c-0.2,0-0.4,0.1-0.5,0.2c-0.1,0.1-0.2,0.3-0.2,0.4v0.5h-36v-0.5
		c0-0.3-0.3-0.6-0.7-0.6h-34.6v-0.4c0,0,0,0,0,0v0c0-0.1,0-0.2-0.1-0.3c0,0,0,0,0-0.1c-0.2-0.2-0.4-0.4-0.8-0.4h-19
		C452.9,227.7,452.3,229.7,451.8,231.6L451.8,231.6C451.8,231.6,451.8,231.6,451.8,231.6z"/>
	<path d="M617.1,295.6c0-0.3-0.3-0.6-0.7-0.6H582v-0.4c0-0.4-0.4-0.8-0.9-0.8c0,0,0,0,0,0h0c0,0,0,0,0,0h-34.4
		c-0.5,0-0.9,0.4-0.9,0.8v0.4h-36.5c-0.4,0-0.7,0.3-0.7,0.6v0.5h-35.9v-0.5c0-0.3-0.3-0.6-0.7-0.6h-0.1c0,0,0,0,0,0h-23.2v0h-0.8
		v3.4h24.1c0.4,0,0.7-0.3,0.7-0.6v-0.3h35.9v0.3c0,0.3,0.3,0.6,0.7,0.6h0c0,0,0.1,0,0.1,0h36.4v0.4c0,0.4,0.4,0.7,0.8,0.8
		c0.1,0,0.1,0,0.2,0h34.4c0.2,0,0.4-0.1,0.6-0.2c0.2-0.1,0.3-0.3,0.3-0.6v-0.4h34.4c0.3,0,0.5-0.2,0.6-0.4c0-0.1,0.1-0.2,0.1-0.3
		v-0.3h25.9v0h0.2l0-1.4h-26.2V295.6z"/>
	<path d="M617.1,287.1c0-0.1-0.1-0.2-0.1-0.3c-0.1-0.2-0.3-0.3-0.6-0.3H582v-0.4c0-0.3-0.1-0.5-0.4-0.6c-0.2-0.1-0.3-0.2-0.5-0.2
		h-34.4c0,0,0,0-0.1,0c-0.5,0-0.9,0.4-0.9,0.8v0.4h-36.4c0,0,0,0-0.1,0h0c-0.4,0-0.7,0.3-0.7,0.6v0.5h-35.9v-0.5
		c0-0.3-0.3-0.6-0.7-0.6h-24.1v3.4h24.1c0.4,0,0.7-0.3,0.7-0.6V289h35.9v0.3c0,0.3,0.3,0.6,0.7,0.6h0.1c0,0,0,0,0,0h36.4v0.4
		c0,0.4,0.4,0.8,0.9,0.8h0.1c0,0,0,0,0,0h34.4c0,0,0.1,0,0.1,0c0.4-0.1,0.8-0.4,0.8-0.8v-0.4h34.4c0.1,0,0.1,0,0.2,0
		c0,0,0.1,0,0.1,0c0,0,0,0,0,0c0.2-0.1,0.4-0.3,0.4-0.6V289h26v0h0.2l0-1.4h-26.2V287.1z"/>
	<path d="M617.1,278.6c0-0.1,0-0.2-0.1-0.2c-0.1-0.2-0.3-0.4-0.7-0.4H582v-0.4c0-0.1,0-0.2-0.1-0.3c-0.1-0.3-0.4-0.5-0.8-0.5h-34.4
		c-0.1,0-0.3,0-0.4,0.1c-0.4,0.1-0.6,0.4-0.6,0.7v0.4h-36.4c-0.1,0-0.2,0-0.3,0.1c-0.3,0.1-0.5,0.3-0.5,0.6v0.5h-35.9v-0.5
		c0-0.3-0.3-0.6-0.7-0.6h-24.1v3.4h0.8v0h23.2c0,0,0.1,0,0.1,0h0.1c0.4,0,0.7-0.3,0.7-0.6v-0.3h35.9v0.3c0,0.3,0.3,0.6,0.7,0.6h36.5
		v0.4c0,0.4,0.4,0.8,0.9,0.8h34.4c0.5,0,0.9-0.4,0.9-0.8v-0.4h34.4c0.4,0,0.7-0.3,0.7-0.6v-0.3h26l0,0h0.2l0-1.4h-26.2V278.6z"/>
	<path d="M546.6,265.6h34.4c0.5,0,0.9-0.4,0.9-0.8v-0.4h34.4c0.4,0,0.7-0.3,0.7-0.6v-0.3h26l0-1.4H643v-0.1h-25.9v-0.4
		c0-0.3-0.2-0.5-0.4-0.6c-0.1-0.1-0.2-0.1-0.4-0.1H582v-0.4c0,0,0,0,0,0v0c0-0.4-0.4-0.8-0.9-0.8h-34.4c-0.2,0-0.4,0.1-0.5,0.2
		c-0.3,0.1-0.5,0.4-0.5,0.7v0.4h-36.4c-0.1,0-0.3,0-0.4,0.1c-0.3,0.1-0.5,0.3-0.5,0.6v0.4h-35.9v-0.5c0-0.3-0.3-0.6-0.7-0.6h-24.1
		v3.4h0.8l0,0h23.2c0.1,0,0.2,0,0.3-0.1c0.2-0.1,0.4-0.3,0.4-0.6v-0.2h36v0.3c0,0.3,0.3,0.6,0.7,0.6h36.5v0.4c0,0,0,0,0,0v0
		C545.7,265.3,546.1,265.6,546.6,265.6z"/>
	<path d="M616.6,337.1c-0.1,0-0.2,0.1-0.3,0.3c-0.1,0.1-0.1,0.2-0.1,0.3v0.5h-35.8v-0.5c0-0.2-0.1-0.3-0.2-0.4
		c-0.1-0.1-0.3-0.2-0.5-0.2h-34.4v-0.4c0-0.1,0-0.2-0.1-0.3c0-0.1-0.1-0.1-0.1-0.1c0,0,0-0.1-0.1-0.1c-0.2-0.2-0.4-0.3-0.7-0.3
		h-34.4c-0.5,0-0.9,0.4-0.9,0.8v0.4h-36.5c-0.4,0-0.7,0.3-0.7,0.6v0.5h-23.5l0,0h-0.3v1.4h23.8v0.2c0,0.3,0.2,0.5,0.6,0.6
		c0.1,0,0.2,0.1,0.3,0.1H509v0.4c0,0.2,0.1,0.4,0.3,0.6c0.2,0.2,0.4,0.3,0.7,0.3h34.4c0.2,0,0.3-0.1,0.5-0.1
		c0.3-0.1,0.5-0.4,0.5-0.7v-0.4h34.3c0.2,0,0.4-0.1,0.5-0.2c0.2-0.1,0.3-0.3,0.3-0.5v-0.2h35.7v0.3c0,0.3,0.3,0.6,0.7,0.6h26.3v0
		h0.1l0-3.4h-26.3C616.8,337.1,616.7,337.1,616.6,337.1z"/>
	<path d="M616.8,328.6L616.8,328.6c-0.1,0-0.1,0-0.1,0c0,0-0.1,0-0.1,0c0,0-0.1,0-0.1,0.1c-0.2,0.1-0.3,0.3-0.3,0.5v0.5h-35.8v-0.5
		c0-0.2-0.2-0.5-0.4-0.6c-0.1,0-0.2-0.1-0.3-0.1h-34.4v-0.4c0-0.2-0.1-0.4-0.3-0.6c0,0-0.1-0.1-0.1-0.1c0,0-0.1-0.1-0.1-0.1
		c-0.1,0-0.2-0.1-0.4-0.1h-34.4c-0.5,0-0.9,0.4-0.9,0.8v0.4h-36.5c-0.4,0-0.7,0.3-0.7,0.6v0.5h-23.8v1.4h23.8v0.3
		c0,0.3,0.3,0.6,0.7,0.6h0c0.1,0,0.1,0,0.2,0H509v0.4c0,0.3,0.2,0.5,0.4,0.6c0.2,0.1,0.3,0.2,0.6,0.2h34.4c0.1,0,0.3,0,0.4-0.1
		c0.3-0.1,0.6-0.4,0.6-0.7V332h34.3c0.1,0,0.2,0,0.3-0.1c0.3-0.1,0.5-0.3,0.5-0.6v-0.3h35.7v0.3c0,0.3,0.3,0.6,0.7,0.6h26.3v0h0.1
		l0-3.4L616.8,328.6C616.9,328.6,616.9,328.6,616.8,328.6z"/>
	<path d="M577.6,379.8v0.5h-32.1v-0.5c0-0.3-0.3-0.6-0.7-0.6h-34.4v-0.4c0-0.4-0.4-0.8-0.9-0.8h-18.2c6,1.7,12.5,3.3,19.1,4.6v-0.1
		h34.4c0.4,0,0.7-0.3,0.7-0.6v-0.3h32.1v0.3c0,0.3,0.2,0.5,0.5,0.6c5.1-1,10-2.1,14.8-3.3h-14.5
		C577.9,379.1,577.6,379.4,577.6,379.8z"/>
	<path d="M614.8,370.2v0.4h-21.6c0.1,0,0.2,0,0.2-0.1h-15.3c-0.3,0.1-0.5,0.3-0.6,0.6c0,0,0,0.1,0,0.1v0c0,0,0,0,0,0v0.5h-32.1v-0.5
		c0-0.1,0-0.2-0.1-0.2c-0.1-0.2-0.4-0.4-0.7-0.4h-34.4v-0.4c0-0.1,0-0.2-0.1-0.3c-0.1-0.3-0.5-0.5-0.9-0.5H475
		c-0.5,0-0.9,0.4-0.9,0.8v0.4h-4.7c3.9,1.5,8.3,3.1,13,4.6h27.1c0.5,0,0.9-0.4,0.9-0.8v-0.2c0,0,0,0,0,0V374h34.4
		c0.3,0,0.6-0.2,0.7-0.4c0-0.1,0.1-0.2,0.1-0.2v-0.2h32.1v0.2c0,0,0,0,0,0v0c0,0.3,0.3,0.6,0.7,0.6h32.1c4.8-1.6,9.3-3.1,13.2-4.6
		h-7.8C615.3,369.5,614.8,369.8,614.8,370.2z"/>
	<path d="M615.1,361.2c-0.2,0.1-0.3,0.3-0.3,0.6v0.4h-36.5c-0.4,0-0.7,0.3-0.7,0.6v0c0,0,0,0,0,0v0.5h-32.1v-0.5
		c0-0.2-0.1-0.3-0.2-0.4c-0.1-0.1-0.3-0.2-0.5-0.2h-34.4v-0.4c0-0.1,0-0.2-0.1-0.3c0-0.1-0.1-0.1-0.2-0.2c0,0,0,0,0,0
		c-0.2-0.2-0.4-0.3-0.7-0.3H475c-0.5,0-0.9,0.4-0.9,0.8v0.4h-24.6c1.3,0.6,3.8,1.8,7.4,3.4h17.3v0.4c0,0.4,0.4,0.8,0.9,0.8h6.8
		c0,0,0.1,0,0.1,0h27.6c0.5,0,0.9-0.4,0.9-0.8v-0.4h34.4c0.4,0,0.7-0.3,0.7-0.6v-0.3h32.1v0.3c0,0.3,0.3,0.6,0.7,0.6H611
		c0,0,0.1,0,0.1,0h3.7v0.4c0,0.4,0.4,0.8,0.9,0.8h14.9c7.9-3.1,12.6-5.4,12.6-5.4V361h-27.4C615.5,361,615.3,361.1,615.1,361.2z"/>
	<path d="M615.7,352.5h-0.1c-0.3,0-0.8,0.3-0.8,0.8v0.4h-36.5c-0.3,0-0.6,0.2-0.7,0.4c0,0.1-0.1,0.1-0.1,0.2v0.5h-32.1v-0.5
		c0-0.2-0.2-0.5-0.4-0.6c-0.1,0-0.2-0.1-0.3-0.1h-34.4v-0.4c0-0.2-0.1-0.4-0.3-0.6c0,0-0.1-0.1-0.1-0.1c-0.1,0-0.1-0.1-0.2-0.1
		c-0.1,0-0.2-0.1-0.4-0.1H475c-0.5,0-0.9,0.4-0.9,0.8v0.4h-26.2l-0.1,3.4h8.5c0,0,0,0,0.1,0h17.7v0.4c0,0.3,0.2,0.5,0.4,0.6
		c0.2,0.1,0.3,0.2,0.5,0.2h34.4c0.1,0,0.3,0,0.4-0.1c0.4-0.1,0.6-0.4,0.6-0.7v-0.4h34.3c0.1,0,0.2,0,0.3-0.1
		c0.3-0.1,0.5-0.3,0.5-0.6v-0.3h32v0.3c0,0.3,0.3,0.6,0.7,0.6h36.5v0.4c0,0.4,0.4,0.8,0.9,0.8h15.3c0,0,0,0,0.1,0h12.2v-0.2h0l0-5.6
		L615.7,352.5C615.8,352.5,615.7,352.5,615.7,352.5z"/>
</g>
</svg>
