<?xml version="1.0" encoding="utf-8"?>
<!-- Generator: Adobe Illustrator 25.3.0, SVG Export Plug-In . SVG Version: 6.00 Build 0)  -->
<svg version="1.1" id="Layer_1" xmlns="http://www.w3.org/2000/svg" xmlns:xlink="http://www.w3.org/1999/xlink" x="0px" y="0px"
	 viewBox="0 0 750.2 400.1" style="enable-background:new 0 0 750.2 400.1;" xml:space="preserve">
<g>
	<path d="M489,243.4v3.5h117.3v-3C567.2,240.4,528.1,240.2,489,243.4z"/>
	<path d="M489,214v7.3c39.1-1,78.2-1,117.3,0.2V214C567.2,213.6,528.1,213.6,489,214z"/>
	<path d="M489,228.2v7.3c39.1-2.4,78.2-2.2,117.3,0.5v-7.5C567.2,226.6,528.1,226.5,489,228.2z"/>
	<path d="M489,185.1v7.3c39.1,1.6,78.2,1.5,117.3-0.3v-7.4C567.2,187.3,528.1,187.5,489,185.1z"/>
	<path d="M489,199.4v7.3c39.1,0.3,78.2,0.3,117.3,0v-7.4C567.2,200.3,528.1,200.4,489,199.4z"/>
	<path d="M489,155.5v7.3c39.1,4.5,78.2,4.2,117.3-0.9v-7.5C567.2,160.5,528.1,160.9,489,155.5z"/>
	<path d="M489,169.9v7.4c39.1,3.1,78.2,2.9,117.3-0.6v-7.5C567.2,173.5,528.1,173.7,489,169.9z"/>
	<path d="M601.3,124.9c-37.4,8.9-74.9,9.1-112.3,0.5v7.6c39.1,8,78.2,7.5,117.3-1.5v-6.6H601.3z"/>
	<path d="M489,140.2v7.4c39.1,6.2,78.2,5.8,117.3-1.2v-7.6C567.2,146.8,528.1,147.2,489,140.2z"/>
</g>
</svg>
