<?xml version="1.0" encoding="utf-8"?>
<!-- Generator: Adobe Illustrator 25.3.0, SVG Export Plug-In . SVG Version: 6.00 Build 0)  -->
<svg version="1.1" id="Layer_1" xmlns="http://www.w3.org/2000/svg" xmlns:xlink="http://www.w3.org/1999/xlink" x="0px" y="0px"
	 viewBox="0 0 750.2 400.1" style="enable-background:new 0 0 750.2 400.1;" xml:space="preserve">
<style type="text/css">
	.st0{fill:#0D0D0D;}
</style>
<g>
	<path class="st0" d="M489,198.8V211c14.3,5.1,28.6,10.5,42.7,15.9c11.2,6.7,22.4,13.4,33.6,20h9.2c-16.7-10.4-33.3-21.2-49.8-31.7
		C512.9,209.6,501,204,489,198.8z"/>
	<path class="st0" d="M592.3,246.9h6.6c-1.5-0.6-3-1.2-4.5-1.8C593.7,245.7,593,246.3,592.3,246.9z"/>
	<path class="st0" d="M489,180.5c4,2.1,7.9,4.3,11.9,6.5c1.6,0.6,3.2,1.2,4.8,1.8c-3.8-2.9-7.5-5.8-11.3-8.6
		c11.5,5.1,23,10.4,34.4,15.8c-13.3-7.8-26.6-15.5-39.8-22.7V180.5z"/>
	<path class="st0" d="M505,174.6c10.7,8.3,21.6,16.8,32.5,25.5c6.5,3,12.9,6.1,19.3,9c6.2,2.4,12.5,4.8,18.7,7.1
		c10.3,3.8,20.6,7.3,30.8,10.4v-8.6c-28.2-10.7-56.7-24.3-85.2-37.4C515.7,178.6,510.4,176.6,505,174.6z"/>
	<path class="st0" d="M489,231.1v14.5c1,0.4,2,0.9,2.9,1.3h29.8C510.9,241.5,499.9,236.2,489,231.1z"/>
	<path class="st0" d="M492.9,219.3c15.1,8.6,30.2,17.7,45.3,26.9c-16.4-8.7-32.8-17.4-49.2-25.4v8.8c11.1,5.5,22.3,11.4,33.4,17.3
		h27.8C531.2,237.6,512.1,228.1,492.9,219.3z"/>
	<path class="st0" d="M606.3,136.2v-11.3h-29C587,129,596.6,132.8,606.3,136.2z"/>
	<path class="st0" d="M557.3,151.6c16.4,7.1,32.7,13.8,49,19.4v-5.6c-2.1-1.1-4.2-2.2-6.3-3.3c2.1,0.8,4.2,1.6,6.3,2.3v-10.5
		c-13.9-4.5-27.7-9.8-41.7-15.5c-2.7,1.2-5.4,2.4-8.1,3.6c-10.8-5.7-21.7-11.4-32.5-17.1h-2.6c1.5,0.8,3.1,1.7,4.6,2.5
		c-1.8-0.8-3.6-1.7-5.4-2.5h-19.5c15.2,6.8,30.5,14.1,45.6,21.3C550.3,148,553.8,149.8,557.3,151.6z"/>
	<path class="st0" d="M539.3,175.7c22.4,9.5,44.8,18.7,67,26.1v-17.2c-7.2-2.5-14.5-5.2-21.7-7.9c-2.9-1-5.8-2-8.8-3
		c-0.6-0.4-1.1-0.8-1.7-1.2c-28.2-11.5-56.6-24.6-85.1-35.8v13.2c4.2,2,8.5,4.1,12.7,6.3C514.2,162.5,526.7,169.1,539.3,175.7z"/>
	<path class="st0" d="M503,138.3c-4.7-1.9-9.3-3.7-14-5.5v3.6C493.7,137,498.4,137.6,503,138.3z"/>
</g>
</svg>
