<?xml version="1.0" encoding="utf-8"?>
<!-- Generator: Adobe Illustrator 25.3.0, SVG Export Plug-In . SVG Version: 6.00 Build 0)  -->
<svg version="1.1" id="Layer_1" xmlns="http://www.w3.org/2000/svg" xmlns:xlink="http://www.w3.org/1999/xlink" x="0px" y="0px"
	 viewBox="0 0 750.2 400.1" style="enable-background:new 0 0 750.2 400.1;" xml:space="preserve">
<g>
	<path d="M550.5,198.7c-1.3-1.9-2.5-3.8-4.2-5.3c-2.6-2.4-4.8-2.2-7,0.7c-1,1.3-2,2.7-2.9,4.2c-1.9,3.1-4.4,4.2-7.6,3.3
		c-0.6-0.2-1.2-0.3-1.8-0.4c-1,0-2,0.4-2.9,0.8c-2.7,1.4-5.2,1.2-7.6-0.7c-0.4-0.3-0.9-0.7-1.5-0.7c-0.3,1.5-1.3,1.9-2.5,2
		c-2.5,0.1-4.9-0.7-7.1-1.7c-2.6-1.2-5.1-1.1-7.6,0.1c-2.3,1.1-4.7,1.3-7.1,0.3c-0.7-0.3-1.3-0.3-1.7,0.1v2.6
		c0.3,0.2,0.8,0.2,1.1,0.2c1.2,0.1,2.3,0,3.5,0.2c0.6,0.1,1.4,0.3,1.4,1c0,0.9-0.9,1-1.5,0.9c-0.9-0.1-1.6,0.3-2,1.2
		c-0.6,1.2-1.5,1.7-2.5,2V232c2.4-2,5.2-1.7,8.1-0.6c0.8,0.3,1.5,0.6,2.3,0.8c2.1,0.7,3.9,0.2,5.2-2c0.8-1.3,1.7-2.3,3.3-1.8
		s2.5,1.7,2.9,3.3c0.9,3.7-0.8,7.9-3.9,9.9c-3,2-6.3,2.1-9.6,1.4c-2.9-0.5-5.6-0.5-8.3,0.3v3.6h9.8c1.3-1.6,3.3-2.2,5.5-1.4
		c1,0.4,1.9,0.9,2.7,1.4h30.3c0-0.3,0-0.5,0-0.8c0.1-2,0.6-3.9,1.4-5.6c1.6-3.3,4-4.3,7.3-3.3c3.4,1,6.3,3,9.3,5.1
		c4.1,2.8,8.5,4,13.1,2.4c8.6-3.1,16.8-1.3,24.8,2.2h10.2c-1.6-2.2-3.9-3.8-6.7-4.9c-5-1.9-10.1-3-15.4-2.4c-1.7,0.2-3.3,0.1-5,0.1
		c-0.7,0-1.3-0.2-1.7-0.9c-0.4-0.8,0-1.4,0.5-2c0.7-0.9,1.3-1.7,1.7-2.8c-3.9-1.4-7.7-2.9-10.5-6.5c-0.7-1-1.2-2.1-1.5-3.3
		c-0.3-1.6,0.3-2.6,1.8-2.9c1.3-0.2,2.6,0.2,3.9,0.5c1.8,0.5,3.5,1,5.4,0.9c2,0,3.2-1.1,3.4-3c0.2-1.4-0.5-2.4-2.5-3
		c-2-0.6-4.1-1-6.1-1.5c-1.3-0.3-2.5-1-3.4-2.1c-2.1-2.4-1.4-5,1.5-5.8c1.8-0.5,3.6-0.4,5.5-0.2c4,0.6,7.9,1.4,11.8,2.1
		c0,0.2,0,0.3,0,0.4c-0.6,0.5-1.4,0.8-1.2,1.8s1.1,1.2,1.9,1.4c1,0.2,1.9-0.2,2.8-0.6c1.4-0.7,2.7-0.5,3.7,0.7
		c3.2,3.8,7.3,3.9,11.5,3.8c0.5,0,1,0,1.5-0.1V204c-0.8-1.9-2.7-2.4-4.5-2.8c-0.8-0.2-1.6-0.4-2.1-1.2c-0.3-0.4-0.7-0.7-1.1-0.8
		c-2.8-0.1-4.8-2.1-7.1-3.5c-2.8-1.8-5.8-3.2-9.1-3.5c-0.8,1.6-1.6,3.1-2.6,4.5c-1.8,2.4-4.1,3.2-6.8,2.6c-0.9-0.2-1.8-0.5-2.6-0.8
		c-2-0.8-3.8-0.6-5.4,0.9c-0.2,0.2-0.6,0.5-0.8,0.5c-2-1.1-3,0.8-4.3,1.7c-0.5,0.3-0.8,0.8-1.3,1.2c-1.5,1.4-2.5,1.5-4.2,0.3
		C552.8,202,551.6,200.3,550.5,198.7z"/>
	<path d="M530.1,130.7c0.2,0.2,0.3,0.5,0.4,0.7c2.4,3.9,3.7,4,6.7,0.8c1-1.1,2.1-2.1,3.6-2.4c0.8-0.2,1.6-0.7,1.9-1.6
		c0.4-1.4,1-2.4,1.9-3.3h-21.7C525.9,125.8,528.2,127.9,530.1,130.7z"/>
	<path d="M583,125.2c2.3,1.9,4.7,1.4,7.1,0.4c0.5-0.2,1-0.4,1.4-0.5c0.8-0.1,1.4,0.3,1.8,1c0.4,0.7-0.1,1.3-0.6,1.7
		c-0.7,0.7-1.6,1.1-2.5,1.6c-0.2,0.6,0,1.1,0,1.7c0,2.2-0.7,3.9-2.5,5c-1.1,0.6-2.2,1.2-3.2,2c-1.6,1.1-1.7,2.6-0.4,4.1
		c0.4,0.5,0.9,1,1.4,1.3c2.3,1.3,4.4,2.7,6.4,4.6c0.9,0.9,2.1,1,3.3,1c2.1,0,4.2-0.3,6.2,0.5c1.1,0.4,1.8,1.1,2.3,2.3
		c0.6,1.6,1.4,2.9,2.6,3.7v-16.1c-0.5-0.6-0.9-1.2-1.2-2c-1.2-0.9-2.7-1.4-3.7-2.6c-0.6-0.7-1.3-1.4-1-2.5c0.3-1.1,1.2-1.3,2.1-1.4
		c1.3-0.2,2.6-0.1,3.8,0.1v-6.2h-24.2C582.4,124.9,582.7,125,583,125.2z"/>
	<path d="M581.1,125.2c0.3-0.1,0.6-0.3,0.9-0.3h-8.3c0.1,0.1,0.3,0.1,0.4,0.2C576.4,126.3,578.7,126.6,581.1,125.2z"/>
	<path d="M570,126.1c0.4-0.1,0.8-0.1,1.1-0.5c0.2-0.3,0.5-0.5,0.8-0.7h-9.4c0.1,0,0.2,0.1,0.3,0.2C565.1,127,567.6,126.4,570,126.1z
		"/>
	<path d="M492.1,172.6c1.8,2.5,2.5,2.6,5.2,1.2c3.3-1.7,6.7-3.2,10-4.9c2.3-2.5,3.6-5.6,4.7-8.9c1.8-5,4.5-6.6,9.3-5.8
		c1.7,0.3,3.4,0.9,5,1.8c1.6-1.4,3.3-1.3,5-0.5c4.2,1.9,8.6,2.8,13.1,3.5c2.5,0.4,5.1,0.9,7.7,0.2c0.7-0.2,1.3-0.5,1.3-1.6
		c-0.1-1.7-1.7-3.2-3.2-2.7c-1.6,0.5-3.3,0.7-4.9,0.9c-2.3,0.2-4.2-0.5-5.7-2.5c-1.2-1.6-2.8-2.6-4.8-2.4c-1.5,0.2-2.5-0.6-3.1-2.1
		c-0.8-2-2.4-3.2-3.7-4.6c-1.1-1.2-1.9-2.7-2.4-4.3c-1.4-0.9-2.7-0.8-3.9,0.5c-0.8,0.9-1.7,1-2.5,0c-1-1.2-2.4-1.4-3.6-2.1
		c2.1,0,4.1,0.4,6.1-0.1c0.4-0.1,0.9-0.2,1.3-0.3c0.9-0.3,1.5-1,1.6-2c0.1-1.1-0.7-1.6-1.5-1.9c-2.4-1.2-4.9-1.5-7.4-1.5
		s-5,0.1-7.5,0.1c-1.1,0-2.2-0.1-3.3-0.4c-3.3-1.1-6.6-1.9-10-2c-1.6-0.1-2.9-0.9-3.5-2.6c-0.4-1.1-0.8-2-1.4-2.7h-1v45.6
		C490.3,170.7,491.2,171.5,492.1,172.6z"/>
	<path d="M491.9,188.7c0.6-0.2,1.2-0.3,1.9-0.2c1.4,0,2.9,0,4.1,1c1.4-0.7,2.6-0.6,3.9,0.4c1.7,1.3,3.7,2.1,5.6,2.9
		c0.5,0.2,1.1,0.4,1.6,0c0.3-0.3,0.6-0.6,0.9-0.9c2.2-2.8,4.8-4.3,8.3-3.5c4.4,1,7.9-0.8,10.7-4.7c1.1-1.5,2.4-2.9,3.9-4
		c1.7-1.3,3.5-2,5.6-1.7c1.2-1.1,2.7-1.2,4.2-1.2c1.3,0.1,2.6,0.2,3.9,0.6c3.8,1.1,7.6,1.4,11.5,0.7c4.9-0.9,9.9-1.9,15-1.5
		c-4.5-3.2-9.3-5.3-14.8-4.5c-3.5,0.5-6.9,2.1-10.4,2.3c-2.1,0.1-4.3,1.1-6.3-0.1c-2.2-1.3-4.7-1.8-7-2.7c-0.6-0.2-1.6-0.1-1.5-1.3
		c0.1-1.2,1-1.3,1.8-1.3c1.7,0.1,3.3,0.7,4.7,1.7c2.8,1.8,7.9,1.5,10.5-0.8c0.7-0.6,1.4-1.3,0.4-2.3c-1.2,0.2-2.3,0.1-3.5-0.2
		c-6.6-1.7-12.9,0-19.2,2.2c-2.8,1-5.5,2.3-7.9,4.3c0,0.6,0,1.1-0.3,1.6c-1.5,2.6-3.4,4.7-6.1,5.7c-1.2,0.4-2.2,0.4-3.3-0.4
		c-2.1-1.6-4.4-1.7-6.6-0.3c-1.9,1.2-3.9,1.4-6,1c-2.8-0.6-5.7-1-8.5-1.2v9C489.9,189,490.9,188.8,491.9,188.7z"/>
	<path d="M578.6,165.8c1.8,2.1,3.6,1.9,5.5-0.2c2.3-2.6,4.5-5.3,6.7-8c-3.2-2.2-6.3-2.4-9.4,0.3c-0.6,0.6-1.3,1-2.1,1.4
		c-1.5,0.8-2.2,0.3-2.3-1.5c0-0.7,0-1.5,0-2.2c0-0.5,0.1-1.1-0.4-1.4s-0.9,0.1-1.2,0.4c-1.5,1.6-3.3,1.9-5.2,1.8
		c-1.8-0.1-3.5-0.2-5.3-0.3c-0.7,0-1.4-0.2-2.1,0.3C568.4,159,574.3,160.7,578.6,165.8z"/>
	<path d="M573.2,176.6c-0.1-0.1-0.1-0.1-0.2,0h0.1H573.2z"/>
	<path d="M560.1,190.3c0.7-1,1.1-2.1,1.4-3.3c-2-1.6-6.5-1.4-7.9,0.2c0.7,1.3,1.4,2.6,2.4,3.6C557.5,192.2,558.9,192.1,560.1,190.3z
		"/>
	<path d="M559.3,145.9c5.8,0.8,11.5,0.3,17.2-1.1c2.9-0.7,5.3-2.8,4.5-7.4c-3,1.2-6.1,2.2-9.2,1.2c-2.5-0.8-4.8-2.1-7.2-3.2
		c-0.8,0-1.6,0-2.4,0c-2.3,0-4.6-0.3-6.8,0.3c-1.7,0.5-3,2.1-2.7,3.5C553.2,141.7,556.9,145.6,559.3,145.9z"/>
</g>
</svg>
