<?xml version="1.0" encoding="utf-8"?>
<!-- Generator: Adobe Illustrator 25.3.0, SVG Export Plug-In . SVG Version: 6.00 Build 0)  -->
<svg version="1.1" id="Layer_1" xmlns="http://www.w3.org/2000/svg" xmlns:xlink="http://www.w3.org/1999/xlink" x="0px" y="0px"
	 viewBox="0 0 750.2 400.1" style="enable-background:new 0 0 750.2 400.1;" xml:space="preserve">
<polygon points="489,246.7 489,246.9 489.2,246.9 "/>
<polygon points="569.1,241.1 544.9,246.9 575.2,246.9 "/>
<polygon points="490.3,237.9 489,236.7 489,242.5 505.8,238.5 514.7,246.9 537.5,246.9 520.4,230.7 "/>
<path d="M580.2,206.2l-27.9,7.3l-18.1-16.1l-27.9,7.3L489,189.3v35.4l3.5,3.1l27.9-7.3l18.1,16.1l27.9-7.3l18.1,16.1l21.8-5.7v-2.6
	l-4.3,1.1l-12.3-10.9l16.6-4.3v-2.8l-8,2.1L580.2,206.2z M510,220.6l-12.3-10.9l18.8-4.9l12.3,10.9L510,220.6z M556,229.4
	l-12.3-10.9l18.8-4.9l12.3,10.9L556,229.4z"/>
<path d="M496,173.8l-7,2v6.5l12.4,10.2l25.6-7.4l17.7,14.6l25.6-7.4L588,207l18.3-5.3v-3.5l-9.7-7.9l9.7-2.8v-3.8l-15.1-12.4
	l-25.6,7.4l-17.7-14.6l-25.6,7.4l-17.7-14.6l-15.6,4.5v6.7L496,173.8z M570.6,178.2l12,9.8l-17.3,5l-12-9.8L570.6,178.2z
	 M527.3,171.1l12,9.8l-17.3,5l-12-9.8L527.3,171.1z"/>
<polygon points="532.9,150.3 522.4,142.4 537.2,137.6 521.2,125.5 498.8,132.7 509.3,140.6 494.4,145.5 510.5,157.6 "/>
<polygon points="575.6,156.4 591.6,168.5 606.3,163.7 606.3,155.4 603.6,153.3 606.3,152.4 606.3,139.4 602.3,136.4 579.9,143.7 
	590.4,151.6 "/>
<polygon points="496.7,132.1 497.9,133 498.8,132.7 497.6,131.8 "/>
<polygon points="489,142.4 489,146 492.3,144.9 "/>
<polygon points="496.6,132.2 489,126.4 489,134.7 "/>
<polygon points="573.4,155.8 574.7,156.7 575.6,156.4 574.4,155.5 "/>
<polygon points="532.9,150.3 534.1,151.2 535,150.9 533.8,150 "/>
<polygon points="535,150.9 551.1,163.1 573.4,155.8 563,147.9 577.8,143.1 561.7,130.9 539.4,138.2 549.8,146.1 "/>
<polygon points="539.4,138.2 538.2,137.3 537.2,137.6 538.4,138.5 "/>
<polygon points="494.4,145.5 493.2,144.5 492.3,144.9 493.5,145.8 "/>
<polygon points="579.9,143.7 578.7,142.8 577.8,143.1 579,144 "/>
<polygon points="560.7,124.9 555.3,124.9 557.2,126.2 "/>
<polygon points="595,130 606.3,125.9 606.3,124.9 587.5,124.9 "/>
</svg>
