<?xml version="1.0" encoding="utf-8"?>
<!-- Generator: Adobe Illustrator 25.3.0, SVG Export Plug-In . SVG Version: 6.00 Build 0)  -->
<svg version="1.1" id="Layer_1" xmlns="http://www.w3.org/2000/svg" xmlns:xlink="http://www.w3.org/1999/xlink" x="0px" y="0px"
	 viewBox="0 0 750.2 400.1" style="enable-background:new 0 0 750.2 400.1;" xml:space="preserve">
<g>
	<path d="M516.7,125.3c0.3-0.2,0.6-0.1,0.7,0.2c0.3,0,0.5,0,0.8,0c0.1-0.2,0.1-0.4,0.3-0.6h-4.8c0.6,0.3,1.4,0.3,2.2,0.5
		C516.1,125.4,516.4,125.3,516.7,125.3z"/>
	<path d="M585.9,133.4c0.6,0,1.3,0,1.9,0c6.2,0,12.3,0,18.5,0v-2c-16.6,0-33.1-0.1-49.7-0.1c-1.2,0-2.2,0-1.9,1.7
		c0.2,1-0.5,1.2-1.3,1.2c-0.6,0-1.5,0.1-1.4-0.8c0.4-2.6-1.4-2-2.7-2c-1.4,0-2.7-0.1-4.1,0c-1.2,0.1-1.7-0.4-1.5-1.5
		c-0.4-1.9-1.8-1.3-3-1.1c0,0.3,0,0.6,0,0.9c0.5,1.3,0.3,2.1-1.4,1.7c-16.6,0-33.2,0-49.8,0c-0.2,0-0.3,0-0.5,0v2
		c0.9,0,1.7-0.1,2.6,0c5.4,0.4,10.8,0.1,16.1,0.1c4.2,0,8.4,0,12.6,0c1.1,0,1.4,0.5,1.5,1.4c0.2,1.3-0.6,1.2-1.5,1.2
		c-4.2,0-8.3,0.1-12.5,0.2c0.3,2.2-0.5,3.1-2.8,2.7c-1.1-0.2-2.2,0-3.3,0c-1.2,0-2.6,0.3-2.3-1.8c0.2-1.1-0.8-0.9-1.5-1
		c-0.9-0.1-1.5,0.1-1.3,1.1c0.3,1.9-1,1.7-2.1,1.7c-1.8,0-3.7,0-5.5,0v2.7c3.4,0,6.7,0.1,10.1,0.1c2.5,0,3.7,0.6,3.3,3.1
		c0,0,0,0,0,0c-2.3-0.3-4.5-0.6-6,1.7c-0.5,0.7-1.3,0.4-2,0.5c-1.8,0.2-3.6,0.3-5.4,0.3v10.9c1.1,0.1,2.3,0.3,3.3-0.6
		c-0.6-1.5,0.7-1.4,1.5-1.8c1.1-0.6,2.3-0.1,3.4-0.3c0.6-0.8,1.1,0.3,1.7,0.1c0.7,0.4,1.1,0.9,0.8,1.7c-0.3,0.7,0.1,1.1,0.8,1
		c2.2-0.2,5,0.2,6.5-0.9c2.3-1.8,4.6-1.4,6.9-1.8c3.8,0,7.6,0,11.4,0c0.9-1.7-0.2-1.8-2.2-1.6c2.7-0.9,3.5,0.5,4.4,1.7
		c0.9,0,1.8,0,2.8,0c0.1,2.1,1.2,2.8,3.3,2.7c5.4-0.2,10.7-0.1,16.1-0.2c1.7,0,3.8,0.9,3.7-2.2c0-0.8,1.3-1.1,2.2-1.3
		c0.3-0.1,0.8,0.4,1.1,0.7c0.2,0.3,0.1,0.8-0.3,0.8c-0.9,0.2-0.9,0.6-0.6,1.3c0.3,0.7,0.9,0.9,1.5,0.8c1.8-0.2,3.6,0.5,5.5,0.1
		c1.8-0.4,3.8-0.8,5.6-0.5c3.4,0.6,6.8,0.3,10.2,0.4c1.6,0.2,3.1,0.5,2.8-2.1c-0.1-0.9,0.9-0.6,1.5-0.6c0.5,0,1.3-0.2,1.1,0.7
		c-0.4,2.7,1.5,2.1,2.9,2.1c2,0,4,0,6,0c1.3,0,2.9,0.4,2.5-1.9c-0.2-1,0.7-0.9,1.3-0.9c3.2,0,6.4,0,9.6,0v-1.8
		c-0.1-0.1-0.1-0.2-0.2-0.3c-0.8-1.2-1.7-2.3-3-0.4c-0.5,0.7-1.1,0.2-1.6-0.1c-0.9-0.4-0.8-1.2-0.8-1.9c0-0.9,0.8-0.7,1.4-0.9
		c1-0.4,2.4,0.9,3.2-0.6s0.8-1.6-1-2.4c-1.2-0.6-0.5-1.5-0.6-2.3c0.8-0.6,1.7-0.7,2.6-0.7v-2.9c-1.8-0.3-3.3,0.3-5,0.2
		c-2.5-0.1-5.1,0-7.6,0.1c-2.5,0-4.9,0-7.4,0s-5.1-0.1-7.6,0c-1.2,0-2.6-0.4-3.6,0.6c-0.3,3.2-2.8,2.1-4.6,2.3
		c-0.3,0.3-0.5,0.4-0.7-0.1c-0.9,0.1-1.8,0.1-2.6,0.2c0,0.4-0.2,0.9-0.6,0.7c-2.9-1.3-5.8-0.3-8.8-0.4c-1,0-2-0.3-2.7,0.8
		c-0.2,0.4-1,0.6-1.2,0.2c-0.7-2-2.6-0.7-3.7-1.5c-0.9,0.4-1.9,0.2-2.9,0.2c-0.9-0.6-1.1-4.2-2.9-0.6c-0.1,0.2-0.5,0.3-0.7,0.3
		c-4.5-0.5-9,1.3-13.4,0.3c-1.9-0.4-3.8,0.9-5.5-0.3c0.3-2.1-0.5-3.3-2.7-3.2c-0.7-0.1-1.3-0.2-2-0.2c-0.1,0.1-0.2,0.2-0.3,0.2
		c-0.5,0-1-0.2-1.1,0.5c0.4,0,0.8,0,1.2,0c1.1,0.1,1.9,0.3,1.7,1.8c-0.2,1.3-1.1,1-1.8,1c-2.4,0-4.9,0-7.3,0c-1.1,0-2.1-0.4-2.8,1.2
		c-0.7,1.5-1-1-1.9-0.7c0-2.4,0.4-4.1,3.6-3.2c1.4,0.4,3,0,4.6-0.1c-1.1-2-0.4-3,1.7-2.6c0.9,0.2,2.3-0.9,2.8,0.7
		c5.2-0.4,10.4-1.1,15.7-0.4c1-0.4,2-0.5,3.1-0.2c1.6,0,3.1,0,4.7,0c2.9-0.7,5.8-0.1,8.7-0.3c1.1-0.1,2.1,0.5,2.7-0.9
		c0.2-0.4,1.1-0.4,1.5-0.1c2.7,2.1,5.8-0.3,8.9,1.3c-0.6-1.1-1.9-1-1.1-2.1c0.3-0.4,0.5-0.8,1-0.7c0.7,0.1,0.7,0.5,0.7,1.1
		c-0.2,1.9,1.4,1.3,2.3,1.3c9.2,0.1,18.4,0.1,27.6,0.1c3.3,0,6.7,0,10-0.1v-2.4c-6.8,0-13.6,0-20.4,0c-0.9,0-1.8,0.2-1.9-1.3
		C583.9,133.3,584.8,133.4,585.9,133.4z"/>
	<path d="M524.1,126.2c1.2,0.2,1.9-0.6,2.5-1.3h-4.2c-0.1,0.2-0.1,0.4,0,0.6C523.1,125.5,523.7,125.4,524.1,126.2z"/>
	<path d="M558.6,125.1c1.6-0.1,3,0.8,4.7,0.6c0.7-0.1,0.9,1.6,0.9,2.6c0.2-0.1,0.3-0.2,0.5-0.3c-0.3-2,0.1-3.2,2.4-2.3
		c0.8,0.3,1.9-0.4,2.5,0.6c3.7-0.7,7.5-0.3,11.3-0.7c1.2-0.1,2.2,0,2,1.7c-0.1,1,0.5,1.3,1.4,1.2c0.6-0.1,1.5,0.2,1.5-0.7
		c-0.3-2.7,1.6-2,3-2.1c2.2,0,4.4,0,6.6,0c0.6,0,1.6,0.2,1.6-0.5c0-0.1,0-0.2,0-0.3h-47.5C552.1,127.8,555.6,125.4,558.6,125.1z"/>
	<path d="M506.9,161.1c-2.9,0-5.8-0.2-8.7-0.1c-3.1,0.1-6.1,0.1-9.2,0.1v2.7c6.6,0,13.1,0,19.7,0
		C508.5,162.6,506.2,162.9,506.9,161.1z"/>
	<path d="M567.3,226.5c1-0.2,1.9-0.3,2.9,0c0.9,0,1.8-0.1,2.7-0.1c0-0.9-2.5-0.6-1.1-2.4c0.3-0.3-0.8-0.3-1.3-0.3
		c-6.7,0-13.4-0.1-20.1-0.1c-11.1,0-22.3,0-33.4-0.1c-2.2,0-4.4,0-6.6,0c-7.1,0-14.3,0-21.4,0v11.3c6.3,0,12.6,0,18.8,0
		c1.1,0,2.3-0.3,2.3,1.6c-0.1,2,1.7,0.9,2.6,1.2c-0.5-2.3,0.8-3,3.2-2.6c-0.4-1.6-0.1-2.6,1.9-2.7c8-0.5,15.9-0.5,23.8-0.1
		c0.2,0,0.3,0,0.5,0.1c0.2,0,0.3,0,0.5,0c0.6,0,1.1-0.1,1.7-0.1c0.6-0.5,1.2-0.3,1.8-0.2c0.7-1.2,0.1-2.5,0.3-3.7
		c0.1-0.8-0.5-2,1.2-1.9c1.1,0,1.8,0.3,1.6,1.5c-0.2,1.1,0.5,1.3,1.5,1.4c1.1,0,1.5-0.4,1.3-1.4c-0.2-1.3,0.6-1.5,1.7-1.5
		c0.9,0,1.8,0,2.7,0.1c2.5,0,5,0.2,7.4-0.1C565,226.2,566.1,224.7,567.3,226.5z"/>
	<path d="M512.5,238C512.5,237.9,512.5,237.9,512.5,238L512.5,238L512.5,238z"/>
	<path d="M582.5,197.3c0.1-2.6-1.8-1.5-2.9-1.5c-1.1,0-3-0.9-2.7,1.6c0.1,1.1-0.6,1.1-1.4,1.1c-0.8,0-1.5,0-1.4-1.1
		c0.6-2-0.7-1.7-1.9-1.7c-10.6,0-21.2,0-31.8,0c-17.1,0-34.2,0-51.4,0v8.3c1.9,0,3.7,0,5.6,0c0.3,0,0.6,0.3,0.9,0.4v0.1
		c0.7,0.7,0.2,1.5,0.4,2.3c0.1,0.1,0.3,0.2,0.5,0.2c9-0.4,18-0.4,27,0.1c1.9,0,3.8,0,5.7,0c2.1-0.5,4.1-0.5,6.2,0c0.7,0,1.4,0,2.1,0
		c0.3-0.2,0.5-0.3,0.8,0c0.7-0.1,1.3-0.1,2-0.2c1.1-0.5,2.2-2.4,3.5-0.3c0.1,0,0.2-0.1,0.3-0.2c-0.9-1.6,0.4-1.2,1.1-1.4
		c-0.2-0.2-0.4-0.4-0.6-0.7c-2.9-0.1-5.8-0.3-8.7-0.3c-10,0-19.9,0-29.9,0c-1.5,0-2.4-0.4-1.9-1.9c0.5-1.6,2-0.8,3-0.8
		c25.7-0.1,51.5,0,77.2,0c7.3,0,14.7,0,22.1,0v-2.8c-7.2,0-14.5,0-21.7,0C583.7,198.5,582.4,199,582.5,197.3z"/>
	<path d="M519.8,240.7c-1.1,0.1-1.4-0.5-1.3-1.5c0.1-1.2-0.6-1.4-1.5-1.3c-1.4,0.1-2.8,0.1-4.3,0.1c0.3,1.9-0.2,2.8-2.5,2.7
		c-5.9-0.2-11.9-0.1-17.8-0.1c-1.1,0-2.3,0.2-2.1-1.6c0.2-1.2-0.6-1.2-1.3-1.2v5.7c0.8,0,1.7,0,2.5,0c9.3,0,18.6,0,27.9,0
		c0.8,0,1.9,0.4,1.9-1.2C521.3,241.2,521.1,240.5,519.8,240.7z"/>
	<path d="M493,172.2c-0.1,1.3,1,1,1.8,1c6.4,0,12.8,0,19.1,0.1c1.1,0,1.6-0.2,1.6-1.5c0-1.4-0.7-1.4-1.7-1.4c-0.9,0-1.8,0-2.7,0
		c-0.6,0-1.3,0-1.2-0.7c0.3-2.6-1.6-2-3-2c-3.1,0-6.2,0-9.3,0c-2.9,0-5.7,0-8.6,0v2.7c0.3,0,0.7,0.1,1,0.1
		C491.2,170.6,493.2,169.5,493,172.2z"/>
	<path d="M515.8,221c8.9,0.4,17.7-0.4,26.6,0.3c1.4,0.1,3-0.3,4.5-0.2c9.1-0.1,18.2-0.1,27.3-0.2c0.1-0.9,0.2-1.8,0.3-2.7
		c-6.7-1.3-13.4,0.1-20.1,0c-8.8-0.1-17.5,0.2-26.3-0.1c-4.2-0.2-8.3,0.3-12.5,0.1c-4.7-0.6-9.4,0.2-14.1,0c-4.2,0-8.3,0-12.5,0v2.8
		c5.3,0,10.5,0,15.8,0C508.5,221,512.2,221,515.8,221z"/>
	<path d="M604.4,209.8c-1.6-0.1-3.2-0.2-4.8-0.4c-2.2,0.8-4.5,0.6-6.8,0.2c-0.6,0-1.3,0-1.9,0c-0.4,0.1-0.9,0.1-1.3,0.2
		c-0.3,0-0.6,0-0.9,0c-2.1,0.3-4.2,0.1-6.3,0c-1-0.1-1.9-0.1-2.9-0.2c-0.5,0.4-0.9,0.5-1.3,0c-0.9,0.1-1.8,0.1-2.6,0.2
		c-3.9,0.4-7.8,0.4-11.7,0c-1,0.4-2,0-3.1-0.1c-4.4,0.7-8.9,0.3-13.3,0.2c-1.5,0-3,0.6-4.4-0.3c-0.3,0-0.6,0-0.9,0
		c-0.2,0-0.4,0.1-0.5,0.1c-0.6,0.2-1.2,0.4-1.9,0c-1.9,0-3.9,0.1-5.8,0.1c-1,0.2-2.1,0.6-3.1-0.1c-3.1-0.1-6.1-0.2-9.2-0.2
		c0.8,2,3.1,2.1,4.5,3.2c0.3,0,0.6,0,0.9,0c0.7-0.2,1.5-0.3,2.2-0.5c0,0.2,0,0.4-0.1,0.6c0,0.9,0,1.8,0.1,2.7c0.9,0,1.9,0,2.8,0
		c0.3-0.9-0.9-2.5,0.9-2.8c2.8-0.5,1.5,1.7,1.7,2.8c2.5,0.8,2.6-1.4,3.2-2.8c17.9,0,35.8-0.1,53.7-0.1c4.9,0,9.8,0,14.7,0V210
		C605.7,210.1,605,210,604.4,209.8z"/>
	<path d="M509.7,164.8c2.5,0,4.9,0.1,7.4,0.1c29.8,0,59.5,0,89.2,0v-2.8c-32.1,0-64.4,0-96.5,0.1
		C509.8,163.1,509.8,163.9,509.7,164.8z"/>
	<path d="M601.2,240.6c-0.9,0-1.7,0-1.5-1.3c0.3-1.8-1-1.5-2-1.5c-7,0-14,0-21,0c-1.3,0-2.5,0.1-2.2-1.8c0.1-0.9-0.4-1.1-1.1-1.1
		c-3,0-6,0-9,0c-0.8,0-1.2,0.3-1.2,1.1c0,0.6-0.2,1.7,0.6,1.6c3-0.3,2.4,1.8,2.3,3.4c-0.2,2,0.7,2.4,2.5,2.3
		c6.4,0,13.1,0.1,19.7,0.1c6,0,12,0,18,0v-2.8C604.6,240.6,602.9,240.5,601.2,240.6z"/>
	<path d="M599.2,215.3c-0.2,0-0.4,0-0.7,0c-0.2,0-0.3,0-0.5,0.1c1.1,0.8,2.2,1.6,3.4,2.4c-2.4-0.1-5.1,1.4-7.2-0.8
		c-0.5-0.5-1.1,0-1.4,0.2c-1.4,1-3.1,0.9-4.7,0.9c-2.8,0.1-5.5-0.6-8.3,0.1c0.1,0.9,0.2,1.8,0.3,2.7c8.7,0,17.5,0,26.2,0v-5.6
		C603.9,215.3,601.6,215.3,599.2,215.3z"/>
	<path d="M553.8,237.8c-0.6,0-1.3,0-1.9,0c-1.4,0-3.1,0.5-2.8-2c0.1-0.8-0.5-0.8-1.1-0.8c-2,0-4,0-6,0c-1.1,0-1.4,0.5-1.4,1.5
		c0,1.1,0.5,1.4,1.5,1.4c1.7,0,3.5,0,5.2,0c0.8,0,1.8-0.4,1.9,1.2c0,1.5-0.7,1.6-1.8,1.6c-4.2,0-8.5-0.6-12.6,0.2
		c-3.2,0.6-2-4.3-5-3.2c-0.3,0.1-0.4-0.7-0.3-1.2c0.1-1-0.2-1.4-1.3-1.5c-1.3,0-1.6,0.5-1.5,1.6c0.1,1-0.4,1.2-1.3,1.3
		c-3.2,0.4-1,2.8-1.4,4.3c-0.5,1.6,1,1.3,1.9,1.3c4.9,0,9.8,0,14.8,0s10,0,15,0c0.7-0.1,1.6,0.3,1.8-1.1
		C558.2,238.6,557.6,237.8,553.8,237.8z"/>
	<path d="M591.4,226.4c1.1-0.2,2.1-0.3,3.2-0.5c-0.5-0.7-0.9-1.5-1.4-2.2c-4.6,0-9.3,0.1-13.9,0.2c-0.8,0-1.9-0.5-2.4,0.7
		c-0.1,0.3-0.8,0.1-0.6,0.7c0.1,0.4,0.5,0.4,0.8,0.5c0.5,0.1,1.7-1.3,1.6,0.6C583,226.8,587.2,226.4,591.4,226.4z"/>
	<path d="M590.4,205.5c0.2-0.1,1.8-0.2,0.4-1.1c-2.4-0.1-4.7-0.5-7.5-0.1c1.7,1.2,3.8,1.1,4.7,2.8c0.3-0.6,0.9-0.2,1.3-0.3
		C588.6,205.3,589.8,205.8,590.4,205.5z"/>
	<path d="M587.9,207L587.9,207C587.8,207.1,587.9,207.1,587.9,207C587.9,207,587.9,207,587.9,207z"/>
	<path d="M579.3,215.5c-2.5,0-5.1,0-7.6,0C574.2,216.5,576.8,216.4,579.3,215.5z"/>
	<path d="M491.3,215.5c1-0.1,2,0,3,0c1.4,0,2.7-0.1,4.1-0.1c-0.1-2.5,1.3-3,3.5-2.9c2.4,0.2,4.8-0.5,7.2,0.1
		c0.2-0.3,0.4-0.5,0.7-0.1c2-0.1,4,0.3,6-0.3c-0.9-1.3-2.4-0.3-3.5-0.9c0.5-1.5,2.3-0.1,2.8-1.4c-3.6-0.1-7.2-0.1-10.8-0.2
		c-2.8,0.2-5.6,0.3-8.4-0.1c-2.3,0-4.6,0-6.9,0l0,0v5.9C489.8,215.6,490.5,215.6,491.3,215.5z"/>
	<path d="M516.8,209.9c-0.1,0.8,0,1.7-0.6,2.4c0.7,0.4,1.4,0.2,2.2,0.2c0.2-0.6-0.6-1.5,0.1-1.7c1.1-0.3,1.1,0.8,1.4,1.6
		c0.5,0.1,0.9,0.1,1.4,0.2c0.3-1.1-1.4-1.5-1-2.6C519.1,209.9,517.9,209.9,516.8,209.9z"/>
	<path d="M515.7,210c0.3,0,0.5,0,0.8,0C516.2,209.6,515.9,209.5,515.7,210z"/>
	<path d="M545.5,205.1c0,0.1,0.1,0.1,0.1,0.2C545.6,205.2,545.6,205.2,545.5,205.1L545.5,205.1z"/>
	<path d="M602.3,187.3c-0.5,0-0.9,0-1.4,0c-0.1-1.2-0.4-2.4,0.7-3.4c-7,0.6-13.7,0.4-20.4,0.4c-14,0-27.9,0-41.9,0
		c-16.7,0-33.5,0-50.3,0v5.9c0.7,0,1.5,0,2.2,0c0.5,0,1.1,0.1,1.6,0.1c1.1-0.1,2.3-0.6,3.3,0.4c0.9,0,1.8,0.1,2.7,0.1
		c0.9-0.1,1.8-0.1,2.7-0.2c0.4-0.9,1.1-0.5,1.7-0.4c4.9,0,9.8,0,14.7,0c0.9-0.3,1.9-0.3,2.8,0c4.2,0,8.3,0,12.5,0c0.6,0,1.1,0,1.7,0
		c10.9,0,21.9,0,32.8,0c-1.2,1-2.6,0.5-3.9,0.5c-4.7,0.1-9.5,0-14.7,0c1.1,1.7,2.1,2,3.5,2c7,0,14.1,0,21.1,0
		c10.4,0,20.8,0.1,31.2,0.2c0.5,0,1-0.1,1.4,0v-5.8c-1.1,0-2.1,0-3.2,0C602.8,187.2,602.6,187.2,602.3,187.3z"/>
	<path d="M489,178.8v2.8c6.7,0,13.5,0,20.2,0c0.2,0,0.3,0,0.5-0.1c0.1-0.1,0.3-0.3,0.4-0.4c0.1,0.1,0.1,0.3,0.2,0.4
		c0.1,0.1,0.3,0.1,0.4,0.1c1.3,0.6,2.7,0.4,4,0.4c24.9,0,49.8,0,74.7-0.1c1,0,2.2,1,3.2-0.2c0.3,0,0.6,0,0.9,0
		c0.6-0.3,1.2-0.3,1.8,0.1c1.4,0,2.8,0,4.2-0.1c0.6,1.4,1.7,1.4,2.9,1.2c0.8-0.2,2-0.5,2.3,0.1c0.4,0.8,1,1.1,1.6,1.2v-5.6
		c-21.4,0-42.8,0-64.2,0.1C524.4,178.7,506.7,178.8,489,178.8z"/>
</g>
</svg>
