<?xml version="1.0" encoding="utf-8"?>
<!-- Generator: Adobe Illustrator 25.3.0, SVG Export Plug-In . SVG Version: 6.00 Build 0)  -->
<svg version="1.1" id="Layer_1" xmlns="http://www.w3.org/2000/svg" xmlns:xlink="http://www.w3.org/1999/xlink" x="0px" y="0px"
	 viewBox="0 0 750.2 400.1" style="enable-background:new 0 0 750.2 400.1;" xml:space="preserve">
<g>
	<path d="M606.3,126.1v-1.2h-3.4c-22,38.1-43.1,82.1-64.8,122h3.9C563.5,206.9,584.4,163.5,606.3,126.1z"/>
	<path d="M606.3,145v-7.2c-19.7,34-38.6,72.7-57.9,109.1h3.9C570.2,212.7,587.9,176.8,606.3,145z"/>
	<path d="M606.3,163.8v-7.3c-16.3,28.4-32,59.9-47.9,90.5h3.9C576.9,218.7,591.4,190,606.3,163.8z"/>
	<path d="M568.3,246.9h3.8c11.3-21.9,22.6-43.9,34.2-64.4v-7.2C593.5,198,580.9,222.6,568.3,246.9z"/>
	<path d="M582.1,246.9c8-15.5,16-30.8,24.2-45.5v-7.1c-9.4,16.9-18.7,34.7-27.9,52.6H582.1z"/>
	<path d="M592.1,246.9c4.7-9,9.4-17.9,14.2-26.5v-7.2c-6,11-12,22.3-18,33.7H592.1z"/>
	<path d="M606.3,239.5v-7.3c-2.6,4.8-5.3,9.7-7.9,14.6h3.9C603.7,244.4,605,242,606.3,239.5z"/>
	<path d="M489,125.1v7c1.5-2.4,2.9-4.8,4.4-7.2h-4.3C489.1,125,489,125,489,125.1z"/>
	<path d="M489,143.3v7.2c5.2-8.1,10.3-16.7,15.3-25.5h-4.2C496.4,131.2,492.7,137.4,489,143.3z"/>
	<path d="M489,161.8v7.1c8.8-13.6,17.4-28.5,25.9-44h-4.1C503.7,137.8,496.4,150.2,489,161.8z"/>
	<path d="M489,180v7c12.4-18.7,24.3-39.9,36.1-62.1h-3.9C510.7,144.5,500,163.2,489,180z"/>
	<path d="M489,198.4v6.9c16-23.6,31.2-51.5,46.3-80.4h-3.8C517.6,151.2,503.6,176.6,489,198.4z"/>
	<path d="M489,216.4v6.9c19.5-28.2,38-63,56.2-98.4h-3.9C524.3,157.8,507.1,189.9,489,216.4z"/>
	<path d="M489,234.4v6.9c23.1-32.5,44.6-74.6,66.1-116.3h-3.8C531,164.2,510.7,203.5,489,234.4z"/>
	<path d="M492.9,246.9h4.7c23.5-35.1,45.4-79.3,67.5-122h-3.8C539,168.1,516.8,212.5,492.9,246.9z"/>
	<path d="M505,246.9h4.4c22.6-36.6,44-80.6,65.8-122h-3.8C549.4,166.7,527.9,210.9,505,246.9z"/>
	<path d="M516.4,246.9h4.2c22.1-37.9,43.1-81.9,64.8-122h-3.9C559.7,165.5,538.6,209.5,516.4,246.9z"/>
	<path d="M531.2,246.9c21.8-39.1,42.8-83,64.6-122h-4c-21.8,39.4-42.8,83.3-64.7,122H531.2z"/>
</g>
</svg>
