<?xml version="1.0" encoding="utf-8"?>
<!-- Generator: Adobe Illustrator 25.3.0, SVG Export Plug-In . SVG Version: 6.00 Build 0)  -->
<svg version="1.1" id="Layer_1" xmlns="http://www.w3.org/2000/svg" xmlns:xlink="http://www.w3.org/1999/xlink" x="0px" y="0px"
	 viewBox="0 0 750.2 400.1" style="enable-background:new 0 0 750.2 400.1;" xml:space="preserve">
<g>
	<polygon points="541.7,153.1 489,171.2 489,177.4 545.3,156.5 546.9,155.9 546.9,154.5 546.2,124.9 542.4,124.9 	"/>
	<polygon points="535.1,148.3 535.1,147.5 535.6,124.9 531.8,124.9 532.3,146.8 489,162.2 489,163.3 534.2,148.6 	"/>
	<polygon points="591.9,159.7 591,160 591,160.8 589.8,212 489,246.5 489,246.9 507.1,246.9 593.5,215.5 595.1,214.9 595.1,213.5 
		593.9,161.6 606.3,157.8 606.3,155.8 	"/>
	<polygon points="580.9,151.6 579.2,152.2 579.2,153.7 580.4,205.6 489,237.6 489,238 582.4,207.4 583.3,207.1 583.3,206.3 
		584.5,155.2 606.3,149 606.3,143.6 	"/>
	<polygon points="520.2,133.6 521.8,133 521.8,131.6 521.6,124.9 516.7,124.9 516.6,130.1 489,139.7 489,145.3 	"/>
	<polygon points="489,132.2 509.2,125.6 510.1,125.3 510.1,124.9 504.1,124.9 489,130.3 	"/>
	<polygon points="566.8,136.7 565.9,136.9 565.9,137.7 564.7,188.9 489,214.8 489,221.3 568.3,192.4 569.9,191.8 569.9,190.4 
		568.7,138.5 606.3,127.1 606.3,126 	"/>
	<polygon points="555.8,128.6 554.1,129.2 554.1,130.7 555.3,182.6 489,205.8 489,206.9 557.2,184.5 558.1,184.2 558.1,183.4 
		559.3,132.3 585.1,124.9 567.5,124.9 	"/>
	<polygon points="591.1,246.9 606.3,241.6 606.3,185.4 604.8,185.9 603.1,186.5 603.1,188 604.3,239.9 585,246.9 	"/>
</g>
</svg>
