<?xml version="1.0" encoding="utf-8"?>
<!-- Generator: Adobe Illustrator 25.3.0, SVG Export Plug-In . SVG Version: 6.00 Build 0)  -->
<svg version="1.1" id="Layer_1" xmlns="http://www.w3.org/2000/svg" xmlns:xlink="http://www.w3.org/1999/xlink" x="0px" y="0px"
	 viewBox="0 0 750.2 400.1" style="enable-background:new 0 0 750.2 400.1;" xml:space="preserve">
<g>
	<path d="M601.6,157.1c-35.1-1.2-84.4-13.2-98.6,0.6c-9.5,9.1-5.7,12.8-14,14.2v15.7c11.4-1.9,21.2-4.1,26.7-8.3
		c9.2-7,55.5-7.2,90.6-8v-14.2C604.8,157.2,603.2,157.1,601.6,157.1z"/>
	<path d="M489,142.1c15.6-6.4,38.7-12.5,69.7-9.3c23.3,2.4,36.1,7,47.6,7.8v-15.7H489V142.1z"/>
	<path d="M606.3,235c-17.2,2.2-10-2.2-23.5-10.9C567,214,524,230.8,489,239.4v7.5h56.7c11.1-1,20.1-1.2,25.3,0h35.4V235z"/>
	<path d="M540.6,194.7c-21.1,6.6-37.2,15-51.6,20.5v15.5c8-3.3,17.6-7.4,31.2-11.4c41.5-12.3,71.2-4.2,86.1,0.4v-12.9
		C589.8,197.7,573,184.6,540.6,194.7z"/>
	<path d="M495.7,155c0.6-1-2.1-1-6.7-0.4v3.1C492.7,156.8,495.1,155.9,495.7,155z"/>
	<path d="M592.4,187c0.8,0.9,6.6,1,13.9,1.3v-4.8C597,184.4,591.4,185.9,592.4,187z"/>
</g>
</svg>
