<?xml version="1.0" encoding="utf-8"?>
<!-- Generator: Adobe Illustrator 25.3.0, SVG Export Plug-In . SVG Version: 6.00 Build 0)  -->
<svg version="1.1" id="Layer_1" xmlns="http://www.w3.org/2000/svg" xmlns:xlink="http://www.w3.org/1999/xlink" x="0px" y="0px"
	 viewBox="0 0 750.2 400.1" style="enable-background:new 0 0 750.2 400.1;" xml:space="preserve">
<g>
	<polygon points="563.3,246.9 544.9,224 544.9,224.1 544.8,224.1 544.6,224.1 544.6,246.9 	"/>
	<polygon points="500.1,224.2 500.1,224.2 500.1,224.2 	"/>
	<polygon points="518.4,246.9 500.1,224.2 500.1,246.9 	"/>
	<polygon points="489,237.8 500,224.2 500.1,224.2 489,210.4 	"/>
	<polygon points="604.8,224.1 606.3,224.1 606.3,207.5 604.8,205.6 	"/>
	<polygon points="589.8,205.6 589.8,224.1 604.7,205.6 	"/>
	<polygon points="574.8,205.6 574.8,224.1 567.1,224.1 567.1,246.9 570.9,246.9 589.4,224.1 589.4,246.9 606.3,246.9 606.3,244.8 
		589.5,224.1 589.8,224.1 	"/>
	<polygon points="559.9,224.1 574.8,205.6 559.9,205.6 	"/>
	<polygon points="545,224 545,224.1 559.9,224.1 545,205.6 	"/>
	<polygon points="529.9,205.6 529.9,224.1 544.9,205.6 	"/>
	<polygon points="515,224.1 522.3,224.1 522.3,246.9 526.1,246.9 544.6,224.1 529.9,224.1 515,205.6 	"/>
	<polygon points="500.1,224.1 515,205.6 500.1,205.6 	"/>
	<polygon points="578.3,163.9 578.3,205.4 606.3,205.4 606.3,198.5 578.4,163.9 	"/>
	<polygon points="544.9,136.4 544.8,136.4 544.6,136.4 544.6,163.8 544.7,163.8 544.7,205.3 544.8,205.3 578.2,163.9 567.1,163.9 
		544.9,136.3 	"/>
	<polygon points="589.5,136.4 589.8,136.4 580.5,124.9 574.8,124.9 574.8,136.4 567.1,136.4 567.1,163.9 589.4,136.4 589.4,163.9 
		606.3,163.9 606.3,157.1 	"/>
	<rect x="604.7" y="124.9" width="1.6" height="11.5"/>
	<polygon points="589.8,124.9 589.8,136.4 599,124.9 	"/>
	<polygon points="559.9,124.9 559.9,136.4 569.2,124.9 	"/>
	<polygon points="545,136.2 545,136.4 559.9,136.4 550.6,124.9 544.9,124.9 544.9,136.2 	"/>
	<polygon points="489,124.9 489,150 500,136.4 500.1,136.4 490.8,124.9 	"/>
	<polygon points="511.3,163.9 522.3,163.9 500.1,136.4 500.1,163.9 489,163.9 489,191.3 511.1,163.9 511.2,163.9 511.2,205.4 
		544.8,205.4 544.8,205.3 544.7,205.3 	"/>
	<polygon points="529.9,136.4 520.6,124.9 515,124.9 515,136.4 522.3,136.4 522.3,163.9 544.5,136.4 	"/>
	<polygon points="529.9,124.9 529.9,136.4 539.2,124.9 	"/>
	<polygon points="509.3,124.9 500.1,124.9 500.1,136.3 	"/>
</g>
</svg>
