<?xml version="1.0" encoding="utf-8"?>
<!-- Generator: Adobe Illustrator 25.3.0, SVG Export Plug-In . SVG Version: 6.00 Build 0)  -->
<svg version="1.1" id="Layer_1" xmlns="http://www.w3.org/2000/svg" xmlns:xlink="http://www.w3.org/1999/xlink" x="0px" y="0px"
	 viewBox="0 0 750.2 400.1" style="enable-background:new 0 0 750.2 400.1;" xml:space="preserve">
<g>
	<path d="M507.9,244H489v2.9h19.6c0,0,0-0.1,0-0.1v-0.3h36v0.3c0,0,0,0.1,0,0.1h61.7v-4.1h-23.6c-0.5,0-0.9,0.4-0.9,0.8v0.4h-36.5
		c-0.4,0-0.7,0.3-0.7,0.6v0.5h-36v-0.5C508.6,244.3,508.3,244,507.9,244z"/>
	<path d="M507.9,235.5H489v3.4h18.9c0.4,0,0.7-0.3,0.7-0.6V238h36v0.3c0,0.3,0.3,0.6,0.7,0.6h36.5v0.4c0,0.4,0.4,0.8,0.9,0.8h23.6
		v-5.8h-23.6c-0.5,0-0.9,0.4-0.9,0.8v0.4h-36.5c-0.4,0-0.7,0.3-0.7,0.6v0.5h-36v-0.5C508.6,235.8,508.3,235.5,507.9,235.5z"/>
	<path d="M507.9,227H489v3.4h18.9c0.4,0,0.7-0.3,0.7-0.6v-0.3h36v0.3c0,0.3,0.3,0.6,0.7,0.6h36.5v0.4c0,0.4,0.4,0.8,0.9,0.8h23.6
		v-5.8h-23.6c-0.5,0-0.9,0.4-0.9,0.8v0.4h-36.5c-0.4,0-0.7,0.3-0.7,0.6v0.5h-36v-0.5C508.6,227.3,508.3,227,507.9,227z"/>
	<path d="M507.8,218.5H489v3.4h18.8c0.4,0,0.7-0.3,0.7-0.6V221h36v0.3c0,0.3,0.3,0.6,0.7,0.6h36.5v0.4c0,0.4,0.4,0.8,0.9,0.8h23.7
		v-5.8h-23.7c-0.5,0-0.9,0.4-0.9,0.8v0.4h-36.5c-0.4,0-0.7,0.3-0.7,0.6v0.5h-36v-0.5C508.5,218.8,508.2,218.5,507.8,218.5z"/>
	<path d="M507.9,210H489v3.4h18.9c0.4,0,0.7-0.3,0.7-0.6v-0.3h36v0.3c0,0.3,0.3,0.6,0.7,0.6h36.5v0.4c0,0.4,0.4,0.8,0.9,0.8h23.6
		v-5.8h-23.6c-0.5,0-0.9,0.4-0.9,0.8v0.4h-36.5c-0.4,0-0.7,0.3-0.7,0.6v0.5h-36v-0.5C508.6,210.3,508.3,210,507.9,210z"/>
	<path d="M506.8,163.1v0.4c0,0.4,0.4,0.8,0.9,0.8h34.4c0.5,0,0.9-0.4,0.9-0.8v-0.4h34.4c0.4,0,0.7-0.3,0.7-0.6v-0.3h28.2v-1.4h-28.2
		v-0.5c0-0.3-0.3-0.6-0.7-0.6H543v-0.4c0-0.4-0.4-0.8-0.9-0.8h-34.4c-0.5,0-0.9,0.4-0.9,0.8v0.4H489v3.4H506.8z"/>
	<path d="M542.1,150.1h-34.4c-0.5,0-0.9,0.4-0.9,0.8v0.4H489v3.4h17.8v0.4c0,0.4,0.4,0.8,0.9,0.8h34.4c0.5,0,0.9-0.4,0.9-0.8v-0.4
		h34.4c0.4,0,0.7-0.3,0.7-0.6v-0.3h28.2v-1.4h-28.2v-0.5c0-0.3-0.3-0.6-0.7-0.6H543v-0.4C543,150.5,542.6,150.1,542.1,150.1z"/>
	<path d="M578.1,143.9v-0.5c0-0.3-0.3-0.6-0.7-0.6H543v-0.4c0-0.4-0.4-0.8-0.9-0.8h-34.4c-0.5,0-0.9,0.4-0.9,0.8v0.4H489v3.4h17.8
		v0.4c0,0.4,0.4,0.8,0.9,0.8h34.4c0.5,0,0.9-0.4,0.9-0.8v-0.4h34.4c0.4,0,0.7-0.3,0.7-0.6v-0.3h28.2v-1.4H578.1z"/>
	<path d="M542.1,133.1h-34.4c-0.5,0-0.9,0.4-0.9,0.8v0.4H489v3.4h17.8v0.4c0,0.4,0.4,0.8,0.9,0.8h34.4c0.5,0,0.9-0.4,0.9-0.8v-0.4
		h34.4c0.4,0,0.7-0.3,0.7-0.6v-0.3h28.2v-1.4h-28.2v-0.5c0-0.3-0.3-0.6-0.7-0.6H543v-0.4C543,133.5,542.6,133.1,542.1,133.1z"/>
	<path d="M506.8,129.2v0.4c0,0.4,0.4,0.8,0.9,0.8h34.4c0.5,0,0.9-0.4,0.9-0.8v-0.4h34.4c0.4,0,0.7-0.3,0.7-0.6v-0.3h28.2V127h-28.1
		v-0.5c0-0.3-0.3-0.6-0.7-0.6h-34.4v-0.4c0-0.2-0.1-0.4-0.3-0.6h-35.5c-0.2,0.2-0.3,0.4-0.3,0.6v0.4H489v3.3H506.8z"/>
	<path d="M509.6,200.6H489v5.8h20.3c0.5,0,0.9-0.4,0.9-0.8v-0.4h34.4c0.4,0,0.7-0.3,0.7-0.6v-0.3h32.1v0.3c0,0.3,0.3,0.6,0.7,0.6
		h28.2v-3.4h-27.9c-0.4,0-0.7,0.3-0.7,0.6v0.5h-32.1v-0.5c0-0.3-0.3-0.6-0.7-0.6h-34.4v-0.4C510.5,201,510.1,200.6,509.6,200.6z"/>
	<path d="M509.4,192.1H489v5.8h20.4c0.5,0,0.9-0.4,0.9-0.8v-0.4h34.4c0.4,0,0.7-0.3,0.7-0.6v-0.3h32.1v0.3c0,0.3,0.3,0.6,0.7,0.6
		h28.1v-3.4h-28.1c-0.4,0-0.7,0.3-0.7,0.6v0.5h-32.1v-0.5c0-0.3-0.3-0.6-0.7-0.6h-34.4v-0.4C510.3,192.5,509.9,192.1,509.4,192.1z"
		/>
	<path d="M509.4,183.6H489v5.8h20.4c0.5,0,0.9-0.4,0.9-0.8v-0.4h34.4c0.4,0,0.7-0.3,0.7-0.6v-0.3h32.1v0.3c0,0.3,0.3,0.6,0.7,0.6
		h28.1v-3.4h-28.1c-0.4,0-0.7,0.3-0.7,0.6v0.5h-32.1v-0.5c0-0.3-0.3-0.6-0.7-0.6h-34.4v-0.4C510.4,184,510,183.6,509.4,183.6z"/>
	<path d="M509.4,175.1H489v5.8h20.4c0.5,0,0.9-0.4,0.9-0.8v-0.4h34.4c0.4,0,0.7-0.3,0.7-0.6v-0.3h32.1v0.3c0,0.3,0.3,0.6,0.7,0.6
		h28.1v-3.4h-28.1c-0.4,0-0.7,0.3-0.7,0.6v0.5h-32.1V177c0-0.3-0.3-0.6-0.7-0.6h-34.4V176C510.4,175.5,510,175.1,509.4,175.1z"/>
	<path d="M577.6,168.5v0.5H546v-0.5c0-0.3-0.3-0.6-0.7-0.6h-34.9v-0.4c0-0.5-0.4-0.8-1-0.8H489v5.8h20.5c0.5,0,0.9-0.4,0.9-0.8v-0.4
		h34.9c0.4,0,0.7-0.3,0.7-0.6v-0.3h31.6v0.3c0,0.3,0.3,0.6,0.7,0.6h28v-3.4h-28C577.9,167.9,577.6,168.2,577.6,168.5z"/>
</g>
</svg>
