<?xml version="1.0" encoding="utf-8"?>
<!-- Generator: Adobe Illustrator 25.3.0, SVG Export Plug-In . SVG Version: 6.00 Build 0)  -->
<svg version="1.1" id="Layer_1" xmlns="http://www.w3.org/2000/svg" xmlns:xlink="http://www.w3.org/1999/xlink" x="0px" y="0px"
	 viewBox="0 0 750.2 400.1" style="enable-background:new 0 0 750.2 400.1;" xml:space="preserve">

<g>
	<path class="st0" d="M488.4,67.6c-1.2-3.3-2.2-6-2.8-6.7c-3.3-3.9-7.7-4.3-7.8-4.3c-0.4,0-0.7-0.2-0.9-0.5c0,0-0.1-0.2-0.3-0.5
		c-4.9,1.7-9.6,3.3-14.2,5L477,77.5C480.2,73.9,483.9,70.6,488.4,67.6z"/>
	<path class="st0" d="M146.6,60.2c-1.8-1.1-3.4-2.1-4.8-2.9c-7.5-4-10.2-1.9-10.2-1.8c-0.2,0.2-0.6,0.3-0.9,0.2
		c-0.2,0-0.3-0.1-0.5-0.2l0.1,0.3c-2.7,0.9-5.3,1.8-7.9,2.8l14.2,16.6c4.3-4.3,9.4-8.2,15.8-11.4C150.3,62.5,148.4,61.3,146.6,60.2z
		"/>
	<path class="st0" d="M269.6,76.9l15.1-17.5c-3.5-1.3-7.1-2.6-10.8-3.8L274,55c-1.5-0.2-4.3,0-8.8,2.3c-1.4,0.8-3,1.7-4.8,2.9
		c-2,1.3-4.4,2.7-7,4.1C260,67.9,265.3,72.2,269.6,76.9z"/>
	<path class="st0" d="M635.8,61.7l-0.4-0.4c-4-1.5-8.2-3.1-12.6-4.6c-1.4,0.3-4.5,1.3-7,4.1c-0.7,0.9-2,4.5-3.5,8.6
		c-0.4,1.3-0.9,2.6-1.4,4c2.8,2.7,5.3,5.5,7.5,8.5L635.8,61.7z"/>
</g>
</svg>
