<?xml version="1.0" encoding="utf-8"?>
<!-- Generator: Adobe Illustrator 25.3.0, SVG Export Plug-In . SVG Version: 6.00 Build 0)  -->
<svg version="1.1" id="Layer_1" xmlns="http://www.w3.org/2000/svg" xmlns:xlink="http://www.w3.org/1999/xlink" x="0px" y="0px"
	 viewBox="0 0 750.2 400.1" style="enable-background:new 0 0 750.2 400.1;" xml:space="preserve">

<path class="st0" d="M474.6,80.5c0.8-1,1.6-2,2.4-2.9l-14.5-16.9c-1.3,0.5-2.5,0.9-3.7,1.4L474.6,80.5z"/>
<path class="st0" d="M118.7,60l15.4,17.9c0.8-0.9,1.7-1.9,2.6-2.8l-14.2-16.6C121.2,59,119.9,59.5,118.7,60z"/>
<path class="st0" d="M272,79.8l16.4-19c-1.2-0.5-2.5-0.9-3.7-1.4l-15.1,17.5C270.4,77.8,271.2,78.8,272,79.8z"/>
<path class="st0" d="M620.6,85.1l19.1-22.2c-1.2-0.5-2.5-1-3.7-1.4l-0.2,0.2l-17.4,20.2C619.2,82.9,619.9,84,620.6,85.1z"/>
</svg>
