<?xml version="1.0" encoding="utf-8"?>
<!-- Generator: Adobe Illustrator 25.3.0, SVG Export Plug-In . SVG Version: 6.00 Build 0)  -->
<svg version="1.1" id="Layer_1" xmlns="http://www.w3.org/2000/svg" xmlns:xlink="http://www.w3.org/1999/xlink" x="0px" y="0px"
	 viewBox="0 0 750.2 400.1" style="enable-background:new 0 0 750.2 400.1;" xml:space="preserve">

<g>
	<path class="st0" d="M299,149.1c-5.7-5.1-8-15.1-10.6-26.5c-0.9-4-1.9-8.2-3-12.4h-58c-1.2,13.6-0.9,27.6-0.2,38.9H299z"/>
	<path class="st0" d="M116.2,122.4c-2.6,11.5-4.9,21.4-10.6,26.7h76.1c0.7-11.3,1-25.3-0.2-38.9h-62.4
		C118,114.4,117.1,118.5,116.2,122.4z"/>
	<path class="st0" d="M220.1,110.2h-31.2c1.8,13.7,2.1,27.6,1.9,38.9h27.4C218,137.8,218.3,123.9,220.1,110.2z"/>
	<path class="st0" d="M645.1,149.1l0.2,0.1l0,2.5l56-0.1c-0.9-9.8-2.1-19.2-3.6-27.9l-63.6,0.1C636.8,135,639.2,144.5,645.1,149.1z"
		/>
	<path class="st0" d="M52.7,123.8c-1.5,8.8-2.6,18.2-3.6,28l54.7-0.1l0.1-2.2v-0.2c6-4.6,8.3-14.3,11-25.6L52.7,123.8z"/>
	<path class="st0" d="M394.6,151.8l52-0.1l-0.1-2.2l0.2-0.2c6-4.6,8.3-14.3,10.9-25.6l-59.4,0.1
		C396.7,132.5,395.6,141.9,394.6,151.8z"/>
	<path class="st0" d="M352.2,123.7l-62.7,0.1c2.6,11.3,5,20.9,11,25.5l0.2,0.1l0.2,2.3l54.9-0.1
		C354.8,141.8,353.7,132.5,352.2,123.7z"/>
</g>
</svg>
