<?xml version="1.0" encoding="utf-8"?>
<!-- Generator: Adobe Illustrator 25.3.0, SVG Export Plug-In . SVG Version: 6.00 Build 0)  -->
<svg version="1.1" id="Layer_1" xmlns="http://www.w3.org/2000/svg" xmlns:xlink="http://www.w3.org/1999/xlink" x="0px" y="0px"
	 viewBox="0 0 750.2 400.1" style="enable-background:new 0 0 750.2 400.1;" xml:space="preserve">

<path class="st0" d="M694.5,107c-3-12.7-11.3-23.5-22.9-29.6c-12.9-6.9-29.3-13.9-48.7-20.7c-1.4,0.3-4.5,1.3-7,4.1
	c-0.7,0.9-2,4.5-3.5,8.6c-0.4,1.3-0.9,2.6-1.4,4c15,14,19.4,33.3,22.9,48.8c2.7,11.9,5,22.1,11.2,26.9l0.2,0.1l0.4,21
	c0.4,0.1,0.9,0.5,0.9,0.9l13.7,199.5h38.3c1.3-16.7,4-52.8,5.2-94.4C705.6,224,705.2,152,694.5,107z"/>
<path class="st0" d="M477.8,56.6c-0.4,0-0.7-0.2-0.9-0.5c0,0-0.1-0.2-0.3-0.5c-20.6,7-38.6,14.5-52.2,21.8
	c-11.5,6.2-19.8,17-22.9,29.6c-10.7,45-11,117-9.4,169.5c1.3,41.5,3.9,77.7,5.2,94.4h38.2l0.2,0.1l12.1-199.9V171l-1.3-21.5l0.2-0.2
	c6.2-4.8,8.5-15.1,11.2-26.9c4.1-18.1,9.2-40.6,30.5-54.8c-1.2-3.3-2.2-6-2.8-6.7C482.3,57,477.9,56.6,477.8,56.6z"/>
<path class="st0" d="M104,149.5v-0.2c6.2-4.8,8.5-15.1,11.3-26.9c4.6-20,10.3-45,37.2-58.7c-2.2-1.2-4.1-2.4-5.9-3.5
	c-1.8-1.1-3.4-2.1-4.8-2.9c-7.5-4-10.2-1.9-10.2-1.8c-0.2,0.2-0.6,0.3-0.9,0.2c-0.2,0-0.3-0.1-0.5-0.2l0.1,0.3
	c-20.6,7.1-37.9,14.4-51.4,21.6C67.3,83.5,59,94.3,56,107c-10.7,45-11,117-9.4,169.5c1.3,41.5,3.9,77.7,5.2,94.4H90l0.2,0.1
	l12.1-199.9c0-0.2,0.1-0.4,0.3-0.6L104,149.5z"/>
<path class="st0" d="M230.6,73.1c-5,1.2-10.2,1.9-15.7,2.3L204,83.9c-0.2,0.1-0.4,0.2-0.6,0.2s-0.5-0.1-0.6-0.2L192,75.3
	c-4.7-0.3-9.2-0.9-13.5-1.8c4.8,8.9,7.8,20.2,9.7,31.9h32.6C222.6,93.5,225.7,82,230.6,73.1z"/>
<path class="st0" d="M269.6,78.3L269.6,78.3l-2.1-2.3l-0.6-0.5c-2.4-2.4-5.1-4.7-8.3-6.9l-5.9-3.9l-0.1,0.1l-5.2,2.6l-9,3.5
	c-5.8,8.9-8.9,21.4-10.4,34.6H284C281,96,276.8,86.5,269.6,78.3z"/>
<path class="st0" d="M171.1,71.7c-0.9-0.3-1.9-0.6-2.8-0.9l-0.1-0.1l-9.6-3.8v0l0,0l0,0.1c-2-1-3.7-2-5.4-3l-0.2,0.3
	c-19.4,9.8-27.6,25.6-32.5,41.1H181C179.5,92.6,176.5,80.5,171.1,71.7z"/>
<path class="st0" d="M218.2,151.4h-27.5c0,1.3-0.1,2.6-0.1,3.9h27.7C218.3,154,218.2,152.7,218.2,151.4z"/>
<path class="st0" d="M181.6,151.4h-76.9l-0.3,3.9h76.9C181.4,154,181.5,152.7,181.6,151.4z"/>
<path class="st0" d="M299.9,151.4h-72.6c0.1,1.3,0.2,2.6,0.3,3.9h72.6L299.9,151.4z"/>
<path class="st0" d="M326.1,77.4c-13.7-7.3-31.3-14.7-52.2-21.9L274,55c-1.5-0.2-4.3,0-8.8,2.3c-1.4,0.8-3,1.7-4.8,2.9
	c-2,1.3-4.4,2.7-7,4.1c25.7,13.9,31.3,38.3,35.8,58.1c2.7,11.9,5.1,22.1,11.3,26.9l0.2,0.1l1.4,20.7c0.2,0.1,0.3,0.3,0.4,0.5
	l0.1,0.1c0.1,0.1,0.1,0.2,0.1,0.4l12,199.8H353c1.3-16.7,4-52.8,5.2-94.4C360,224,359.6,152,348.9,107
	C345.9,94.3,337.6,83.5,326.1,77.4z"/>
<path class="st0" d="M142.7,55.5c1.5,0.8,3.1,1.8,4.9,2.9c2.9,1.8,6.4,3.9,10.5,6l9.6,4.1c0.5,0.2,1.1,0.4,1.6,0.5
	c-0.1-0.1-0.2-0.3-0.3-0.4c-1.9-2.5-4.1-4.7-6.6-6.4l-0.4-0.3l0.3-0.4c0.1-0.1,1.3-1.8,3.3-1.8c1.5,0,2.9,0.8,4.3,2.6
	c2.7,2.4,5,5.3,7.1,8.6c0.1,0.1,0.1,0.3,0.2,0.4c3.8,0.9,7.8,1.5,12,1.9c-3.3-2.7-7-5.5-10.9-8.4c-4-3-8.2-6.1-12.2-9.3H166
	c-0.2-0.2-0.4-0.4-0.5-0.5c-12.2-9.9-22.9-20.9-24.9-33.9c-14.3,14.5-10.6,28.6-9.2,32.4C133,52.6,136.6,52.2,142.7,55.5z"/>
<path class="st0" d="M242.6,53.9c-0.5,0.4-0.9,0.8-1.4,1.1c-4.1,3.3-8.3,6.5-12.4,9.5c-3.9,2.9-7.6,5.7-10.9,8.4
	c5-0.5,9.7-1.3,14.3-2.4l0,0c2-3.2,4.3-6,7-8.3c1.3-1.7,2.7-2.5,4.2-2.5c2,0,3.3,1.8,3.3,1.8l0.3,0.4l-0.4,0.3
	c-2.2,1.5-4.2,3.4-6,5.6l7.2-2.9c4.7-2.2,8.5-4.6,11.7-6.5c1.9-1.1,3.5-2.1,4.9-2.9c6.2-3.3,9.7-2.9,11.4-2.2
	c1.4-3.8,5.2-17.8-9.2-32.4C264.5,33.5,254.3,44.2,242.6,53.9z"/>
<path class="st0" d="M487.3,59.3c1,1.1,2,4,3.9,9.4c4.5,12.7,11.9,33.8,25.7,45.2c9.7,4.8,29.1,5.3,33.6,5.3c3.7,0,24-0.4,34-5.3
	c13.8-11.3,21.3-32.5,25.7-45.2c1.9-5.4,2.9-8.2,3.9-9.4c2.7-3.1,6-4.3,7.8-4.8l0.1-0.3c0.2,0.1,0.3,0.1,0.5,0.2
	c0.4-1.6,1.1-5.6,0.5-10.8c-0.9-7.3-4.1-13.8-9.5-19.4c0.7,3.3,0.2,6.6-1.5,9.7c-4.8,8.6-18.2,14.5-34.1,14.9
	c-9.8,0.3-20.6,0.1-32,0c-9.1-0.1-18.4-0.2-27.2-0.1c-0.2,0-0.4,0-0.6,0c-18.1,0-31.2-10.6-32-16.2c-0.5-3.1-0.2-5.7,0.4-7.7
	c-15,14.5-9.6,27.1-8.3,29.7C480.1,54.6,484.1,55.6,487.3,59.3z"/>
<path class="st0" d="M202.9,21.9c27.7,0,59.9,3.4,60.2,3.4v0.2c0.8-2.2,1.3-4.5,1.4-6.8l-0.7-0.4c0,0.3,0.1,0.5,0.2,0.6
	c-0.6-0.6-6.8-3.3-65.4-3.3c-48.6,0-55.2,2.2-56.1,3l-0.2,0.5c0.2,1.8,0.5,3.5,1,5.2C150.5,23.8,178.8,21.9,202.9,21.9z"/>
</svg>
