<?xml version="1.0" encoding="utf-8"?>
<!-- Generator: Adobe Illustrator 25.3.0, SVG Export Plug-In . SVG Version: 6.00 Build 0)  -->
<svg version="1.1" id="Layer_1" xmlns="http://www.w3.org/2000/svg" xmlns:xlink="http://www.w3.org/1999/xlink" x="0px" y="0px"
	 viewBox="0 0 750.2 400.1" style="enable-background:new 0 0 750.2 400.1;" xml:space="preserve">

<path class="st0" d="M269.5,78.2l-2-2.2l-0.6-0.5c-2.4-2.4-5.1-4.7-8.3-6.9l-5.9-3.9l-0.1,0.1l-5.2,2.6l-9,3.5
	c-6.3,9.8-9.5,23.9-10.9,38.6h57.7C282.2,98.7,277.8,87.7,269.5,78.2L269.5,78.2z"/>
<path class="st0" d="M230.6,73.1c-5,1.2-10.2,1.9-15.7,2.3L204,83.9c-0.2,0.1-0.4,0.2-0.6,0.2s-0.5-0.1-0.6-0.2L192,75.3
	c-4.7-0.3-9.2-0.9-13.5-1.8c5.4,9.9,8.5,22.8,10.2,36h31.4C221.9,96.1,225.1,83,230.6,73.1z"/>
<path class="st0" d="M168.3,70.8l-0.1-0.1l-9.6-3.8v0l0,0l0,0.1c-2-1-3.7-2-5.4-3l-0.2,0.3c-21,10.7-29,28.4-33.6,45.2h62.1
	c-1.3-14.3-4.4-28.1-10.3-37.8C170.2,71.4,169.2,71.1,168.3,70.8z"/>
<path class="st0" d="M142.7,55.5c1.5,0.8,3.1,1.8,4.9,2.9c2.9,1.8,6.4,3.9,10.5,6l9.6,4.1c0.5,0.2,1.1,0.4,1.6,0.5
	c-0.1-0.1-0.2-0.3-0.3-0.4c-1.9-2.5-4.1-4.7-6.6-6.4l-0.4-0.3l0.3-0.4c0.1-0.1,1.3-1.8,3.3-1.8c1.5,0,2.9,0.8,4.3,2.6
	c2.7,2.4,5,5.3,7.1,8.6c0.1,0.1,0.1,0.3,0.2,0.4c3.8,0.9,7.8,1.5,12,1.9c-3.3-2.7-7-5.5-10.9-8.4c-4-3-8.2-6.1-12.2-9.3H166
	c-0.2-0.2-0.4-0.4-0.5-0.5c-12.2-9.9-22.9-20.9-24.9-33.9c-14.3,14.5-10.6,28.6-9.2,32.4C133,52.6,136.6,52.2,142.7,55.5z"/>
<path class="st0" d="M242.6,53.9c-0.5,0.4-0.9,0.8-1.4,1.1c-4.1,3.3-8.3,6.5-12.4,9.5c-3.9,2.9-7.6,5.7-10.9,8.4
	c5-0.5,9.7-1.3,14.3-2.4l0,0c2-3.2,4.3-6,7-8.3c1.3-1.7,2.7-2.5,4.2-2.5c2,0,3.3,1.8,3.3,1.8l0.3,0.4l-0.4,0.3
	c-2.2,1.5-4.2,3.4-6,5.6l7.2-2.9c4.7-2.2,8.5-4.6,11.7-6.5c1.9-1.1,3.5-2.1,4.9-2.9c6.2-3.3,9.7-2.9,11.4-2.2
	c1.4-3.8,5.2-17.8-9.2-32.4C264.5,33.5,254.3,44.2,242.6,53.9z"/>
<path class="st0" d="M487.3,59.3c1,1.1,2,4,3.9,9.4c4.5,12.7,11.9,33.8,25.7,45.2c9.7,4.8,29.1,5.3,33.6,5.3c3.7,0,24-0.4,34-5.3
	c13.8-11.3,21.3-32.5,25.7-45.2c1.9-5.4,2.9-8.2,3.9-9.4c2.7-3.1,6-4.3,7.8-4.8l0.1-0.3c0.2,0.1,0.3,0.1,0.5,0.2
	c0.4-1.6,1.1-5.6,0.5-10.8c-0.9-7.3-4.1-13.8-9.5-19.4c0.7,3.3,0.2,6.6-1.5,9.7c-4.8,8.6-18.2,14.5-34.1,14.9
	c-9.8,0.3-20.6,0.1-32,0c-9.1-0.1-18.4-0.2-27.2-0.1c-0.2,0-0.4,0-0.6,0c-18.1,0-31.2-10.6-32-16.2c-0.5-3.1-0.2-5.7,0.4-7.7
	c-15,14.5-9.6,27.1-8.3,29.7C480.1,54.6,484.1,55.6,487.3,59.3z"/>
<path class="st0" d="M202.9,21.9c27.7,0,59.9,3.4,60.2,3.4v0.2c0.8-2.2,1.3-4.5,1.4-6.8l-0.7-0.4c0,0.3,0.1,0.5,0.2,0.6
	c-0.6-0.6-6.8-3.3-65.4-3.3c-48.6,0-55.2,2.2-56.1,3l-0.2,0.5c0.2,1.8,0.5,3.5,1,5.2C150.5,23.8,178.8,21.9,202.9,21.9z"/>
</svg>
