<?xml version="1.0" encoding="utf-8"?>
<!-- Generator: Adobe Illustrator 25.3.0, SVG Export Plug-In . SVG Version: 6.00 Build 0)  -->
<svg version="1.1" id="Layer_1" xmlns="http://www.w3.org/2000/svg" xmlns:xlink="http://www.w3.org/1999/xlink" x="0px" y="0px"
	 viewBox="0 0 750.20001 400.10001" style="enable-background:new 0 0 750.20001 400.10001;" xml:space="preserve">

<path class="st0" d="M152.1015,61.73251c5.40002,3.74951,10.31177,5.68158,15.81177,7.76465
	c4,1.59705,15.41321,3.66602,18.35291,3.67059c0.79999,0.13885,8.36475,1.11761,8.76477,1.11761
	c0.39996-1.52759-3.82361-11.28229-14.69415-14.24701c-21.74115-8.47058-20.65289-29.65405-20.65289-29.65405
	c-6.11176,1.93469-11.95886,20.33643-11.95886,20.33643C147.62506,51.20682,146.80151,57.98294,152.1015,61.73251z"/>
<path class="st0" d="M201.53839,45.82663c24.01013,0,37.4231,0.44696,37.4231,0.44696s5.75568-10.4234,5.61993-16.41223
	c0,0-14.38892-2.54114-41.65979-2.54114c-27.27075,0-41.82031,2.82349-41.82031,2.82349s1.82825,12.98877,5.78046,16.94171
	C166.88177,47.08542,177.5282,45.82663,201.53839,45.82663z"/>
<path class="st0" d="M225.19122,60.03836c-10.87054,2.96472-13.76038,12.71942-13.36035,14.24701
	c0.39996,0,6.63092-0.97876,7.43097-1.11761c2.93964-0.00458,14.35291-2.07355,18.35291-3.67059
	c5.5-2.08307,10.41174-4.01514,15.81171-7.76465c5.29999-3.74957,4.4765-10.5257,4.37646-11.01178
	c0,0-5.84705-18.40173-11.9588-20.33643C245.84412,30.38431,246.93237,51.56778,225.19122,60.03836z"/>
<path class="st0" d="M544.67725,44.63834c6.19977,0,11.65259,0.03296,16.315,0.08081
	c12.19836,0.40204,25.38416,1.48157,39.02606,4.578c-5.27063-14.87054-7.25299-17.51288-10.72943-19.38818
	c-1.51794-0.53101-3.43085-1.12225-3.61206-1.1781c-0.00031-0.01892,0.00085-0.03894,0.00043-0.0578
	c0,0-13.70593-2.54114-39.68237-2.54114c-25.97638,0-39.83533,2.82349-39.83533,2.82349s-2.05286,0.63123-3.64691,1.18884
	c-3.47644,1.87531-5.4588,4.51764-10.72943,19.38818c0,0,16.48804-3.73444,41.55658-4.78186
	C536.7005,44.68112,540.4718,44.63834,544.67725,44.63834z"/>
</svg>
