<?xml version="1.0" encoding="utf-8"?>
<!-- Generator: Adobe Illustrator 25.3.0, SVG Export Plug-In . SVG Version: 6.00 Build 0)  -->
<svg version="1.1" id="Layer_1" xmlns="http://www.w3.org/2000/svg" xmlns:xlink="http://www.w3.org/1999/xlink" x="0px" y="0px"
	 viewBox="0 0 750.2 400.1" style="enable-background:new 0 0 750.2 400.1;" xml:space="preserve">

<g>
	<path class="st0" d="M448.6,169.4l-0.8,183.9c0.1,0,0.3,0.1,0.6,0.1c0.9,0.1,2.6,0.3,5.8,0.5L452.1,144c-1.3,2.3-2.8,4.3-4.7,5.7
		L448.6,169.4z"/>
	<path class="st0" d="M643.2,193.7l0.2-1c1.1-21.7,1.2-21.9,1.4-22.1l-0.4-20.9c-1-0.8-1.9-1.7-2.8-2.8l-1.7,25l-2.7,181.9
		c3.8-0.3,5.3-0.5,5.8-0.6L643.2,193.7z"/>
	<path class="st0" d="M299.9,353.5l0.2-106.8c0.1,0,0.2,0,0.3,0.1v-4.6l0.2-71.3c0-0.4,0.2-0.7,0.6-0.9l-1.4-20.2
		c-2.7-2.1-4.6-5.2-6.2-8.9v213c1.5-0.1,2.7-0.2,3.7-0.2C298.5,353.6,299.4,353.6,299.9,353.5z"/>
	<path class="st0" d="M104.8,149.8l-1.4,20.2c0.2,0,0.3,0.1,0.5,0.2c0.2,0.2,0.3,0.5,0.3,0.8l0.1,76.5l0.3,0.1l0.1,105.9
		c0.5,0,1.4,0.1,2.6,0.2c1,0,2.2,0.1,3.6,0.2V141.1C109.3,144.7,107.4,147.7,104.8,149.8z"/>
</g>
</svg>
