<?xml version="1.0" encoding="utf-8"?>
<!-- Generator: Adobe Illustrator 25.3.0, SVG Export Plug-In . SVG Version: 6.00 Build 0)  -->
<svg version="1.1" id="Layer_1" xmlns="http://www.w3.org/2000/svg" xmlns:xlink="http://www.w3.org/1999/xlink" x="0px" y="0px"
	 viewBox="0 0 750.20001 400.10001" style="enable-background:new 0 0 750.20001 400.10001;" xml:space="preserve">
<path d="M191.85065,78.40549c0.22089,0.20905,0.42419,0.43048,0.58405,0.67468c0.5058,0.77271,0.62915,1.64539,0.33838,2.39417
	c-0.39636,1.02087-1.47729,1.65503-2.82104,1.65503c-0.10974,0-0.22284-0.02399-0.33423-0.03265
	c-0.45093-0.03522-0.909-0.12122-1.3465-0.29108c-0.88281-0.34283-1.62347-0.92029-2.08551-1.6261
	c-0.12683-0.19379-0.22937-0.39386-0.30762-0.59668c-0.23376-0.60602-0.2486-1.23657-0.03076-1.79755
	c0.2948-0.75928,0.96924-1.30341,1.84796-1.53302c-2.25818-0.55438-4.66718-1.02814-7.19092-1.35547l-1.65234,0.94061
	l-0.14972,0.08521l-2.11737,1.20526c4.51843,1.52783,10.98547,3.88586,15.1377,6.67621
	c1.15692,0.77747,2.13354,1.58807,2.83734,2.42389c1.03833-2.03674,2.98218-3.90271,5.82983-5.58911
	C198.17645,80.63974,195.26447,79.46457,191.85065,78.40549z"/>
</svg>
