<?xml version="1.0" encoding="utf-8"?>
<!-- Generator: Adobe Illustrator 25.3.0, SVG Export Plug-In . SVG Version: 6.00 Build 0)  -->
<svg version="1.1" id="Layer_1" xmlns="http://www.w3.org/2000/svg" xmlns:xlink="http://www.w3.org/1999/xlink" x="0px" y="0px"
	 viewBox="0 0 750.2 400.1" style="enable-background:new 0 0 750.2 400.1;" xml:space="preserve">
<path class="st0" d="M266.4,74.9l7.8-18.7l-3.6-1.1l-7.1,17.1C264.5,73.1,265.4,74,266.4,74.9z"/>
<path class="st0" d="M138.2,74.4c1-0.9,2-1.7,3-2.5L134.6,55l-3.6,1.1L138.2,74.4z"/>
<path class="st0" d="M472.6,57.1l7.6,19.3c0.9-1,1.9-1.9,2.9-2.8l-6.9-17.6L472.6,57.1z"/>
<path class="st0" d="M621.2,57.1l-3.6-1.1l-2.9,7.1l-5,12.2c1,1,1.9,2,2.8,3.1L621.2,57.1z"/>
</svg>
