<?xml version="1.0" encoding="utf-8"?>
<!-- Generator: Adobe Illustrator 25.3.0, SVG Export Plug-In . SVG Version: 6.00 Build 0)  -->
<svg version="1.1" id="Layer_1" xmlns="http://www.w3.org/2000/svg" xmlns:xlink="http://www.w3.org/1999/xlink" x="0px" y="0px"
	 viewBox="0 0 750.2 400.1" style="enable-background:new 0 0 750.2 400.1;" xml:space="preserve">
<path class="st0" d="M175.1,79l-20.9,11.9l-1.7,1l-0.5-1.9l-4.9-20.3c-9.5,5.5-16.5,14.1-21.7,26.4c-1.9,4.5-3.5,9.1-4.7,13.5h73
	V91.4c-0.1-0.9,0-1.7,0.3-2.5C191.9,85.1,181.2,81.4,175.1,79z"/>
<path class="st0" d="M277.5,93.2c-5.2-10.8-12-18.8-20.3-23.7l-4.9,20.4l-0.5,1.9l-1.7-1l-23.6-13.4c-11.3,3.4-15.5,12.6-16.1,14.2
	v17.9h73.3c-1.3-4.4-2.8-9-4.9-13.6C278.4,95,278,94.1,277.5,93.2z"/>
<rect x="195.2" y="145.2" class="st0" width="13.7" height="3.9"/>
<path class="st0" d="M195.2,91.3v51.9h13.7V91.3c0,0,3.9-10.7,15.9-14.9L224,76C214.3,77.5,194.5,81.9,195.2,91.3z M202.2,134.2
	c-2,0-3.7-1.7-3.7-3.7c0-2,1.7-3.7,3.7-3.7s3.7,1.7,3.7,3.7C205.9,132.6,204.2,134.2,202.2,134.2z M202.2,110.7
	c-2,0-3.7-1.7-3.7-3.7s1.7-3.7,3.7-3.7s3.7,1.7,3.7,3.7S204.2,110.7,202.2,110.7z"/>
<path class="st0" d="M202.2,127.6c-1.6,0-3,1.3-3,3c0,1.6,1.3,3,3,3c1.6,0,3-1.3,3-3C205.1,128.9,203.8,127.6,202.2,127.6z
	 M200.9,130.3c-0.1-0.2,0-0.5,0.2-0.6c0.2-0.1,0.5,0,0.6,0.2c0.1,0.2,0,0.5-0.2,0.6C201.3,130.7,201,130.6,200.9,130.3z
	 M202.1,131.7c-0.2,0.1-0.5,0-0.6-0.2c-0.1-0.2,0-0.5,0.2-0.6c0.2-0.1,0.5,0,0.6,0.2C202.4,131.4,202.3,131.6,202.1,131.7z
	 M202.1,129.8c-0.1-0.2,0-0.5,0.2-0.6c0.2-0.1,0.5,0,0.6,0.2c0.1,0.2,0,0.5-0.2,0.6C202.5,130.1,202.2,130,202.1,129.8z
	 M203.2,131.2c-0.2,0.1-0.5,0-0.6-0.2c-0.1-0.2,0-0.5,0.2-0.6c0.2-0.1,0.5,0,0.6,0.2C203.6,130.9,203.5,131.1,203.2,131.2z"/>
<path class="st0" d="M202.2,104c-1.6,0-3,1.3-3,3c0,1.6,1.3,3,3,3c1.6,0,3-1.3,3-3C205.1,105.3,203.8,104,202.2,104z M200.9,106.8
	c-0.1-0.2,0-0.5,0.2-0.6c0.2-0.1,0.5,0,0.6,0.2s0,0.5-0.2,0.6C201.3,107.1,201,107,200.9,106.8z M202.1,108.2
	c-0.2,0.1-0.5,0-0.6-0.2s0-0.5,0.2-0.6c0.2-0.1,0.5,0,0.6,0.2C202.4,107.8,202.3,108.1,202.1,108.2z M202.1,106.2
	c-0.1-0.2,0-0.5,0.2-0.6c0.2-0.1,0.5,0,0.6,0.2c0.1,0.2,0,0.5-0.2,0.6C202.5,106.6,202.2,106.5,202.1,106.2z M203.2,107.6
	c-0.2,0.1-0.5,0-0.6-0.2c-0.1-0.2,0-0.5,0.2-0.6c0.2-0.1,0.5,0,0.6,0.2C203.6,107.3,203.5,107.5,203.2,107.6z"/>
<path class="st0" d="M188.5,82.1c0.5,0.2,1,0.3,1.4,0.3c1,0,1.8-0.4,2.1-1.2c0.4-1.1-0.5-2.5-2-3c-0.5-0.2-1-0.3-1.4-0.3
	c-1,0-1.8,0.4-2.1,1.2C186.1,80.1,187,81.5,188.5,82.1z M188.2,79.6c0-0.2,0.1-0.3,0.4-0.3c0.2,0,0.5,0.2,0.5,0.4
	c0,0.2-0.1,0.3-0.4,0.3C188.5,79.9,188.3,79.7,188.2,79.6z M188.4,80.5c0-0.2,0.1-0.3,0.4-0.3s0.5,0.2,0.5,0.4
	c0,0.2-0.1,0.3-0.4,0.3C188.7,80.9,188.4,80.7,188.4,80.5z M189.6,80.6c0-0.2,0.1-0.3,0.4-0.3c0.2,0,0.5,0.2,0.5,0.4
	c0,0.2-0.1,0.3-0.4,0.3C189.9,81,189.7,80.8,189.6,80.6z M190.3,79.7c0,0.2-0.1,0.3-0.4,0.3c-0.2,0-0.5-0.2-0.5-0.4
	c0-0.2,0.1-0.3,0.4-0.3C190.1,79.3,190.3,79.5,190.3,79.7z"/>
</svg>
