<?xml version="1.0" encoding="utf-8"?>
<!-- Generator: Adobe Illustrator 25.3.0, SVG Export Plug-In . SVG Version: 6.00 Build 0)  -->
<svg version="1.1" id="Layer_1" xmlns="http://www.w3.org/2000/svg" xmlns:xlink="http://www.w3.org/1999/xlink" x="0px" y="0px"
	 viewBox="0 0 750.2 400.1" style="enable-background:new 0 0 750.2 400.1;" xml:space="preserve">
<g>
	<path d="M171.5,89.8c1.3,0.8,4.4,2.2,7.6,2.2c5.9,0,7.8-3.8,7.7-6.6c-0.1-4.8-4.4-6.8-8.8-6.8h-2.6v-3.5h2.6c3.4,0,7.6-1.7,7.6-5.8
		c0-2.7-1.7-5.1-6-5.1c-2.7,0-5.3,1.2-6.8,2.3l-1.2-3.4c1.8-1.3,5.2-2.6,8.9-2.6c6.7,0,9.8,4,9.8,8.1c0,3.5-2.1,6.5-6.3,8v0.1
		c4.2,0.8,7.6,4,7.6,8.8c0,5.5-4.2,10.2-12.4,10.2c-3.8,0-7.2-1.2-8.9-2.3L171.5,89.8z"/>
	<path d="M219.9,77.7c0,11.6-4.3,18-11.9,18c-6.7,0-11.2-6.2-11.3-17.5c0-11.4,4.9-17.7,11.9-17.7C215.8,60.5,219.9,66.9,219.9,77.7
		z M201.4,78.2c0,8.9,2.7,13.9,6.9,13.9c4.7,0,7-5.5,7-14.2c0-8.4-2.2-13.9-6.9-13.9C204.3,64,201.4,69,201.4,78.2z"/>
</g>
</svg>
