<?xml version="1.0" encoding="utf-8"?>
<!-- Generator: Adobe Illustrator 25.3.0, SVG Export Plug-In . SVG Version: 6.00 Build 0)  -->
<svg version="1.1" id="Layer_1" xmlns="http://www.w3.org/2000/svg" xmlns:xlink="http://www.w3.org/1999/xlink" x="0px" y="0px"
	 viewBox="0 0 750.2 400.1" style="enable-background:new 0 0 750.2 400.1;" xml:space="preserve">
<path class="st0" d="M293.6,140.1c2.2,4.4,4.4,7.2,5.2,8.2l50,9.6l1.9-8.7l-57.1-11.5V140.1z"/>
<path class="st0" d="M56.3,157.9l49.3-9.8c1-1.2,3.2-3.9,5.3-8.1v-2.4l-56.5,11.4L56.3,157.9z"/>
<path class="st0" d="M449.5,147.2c0.7-0.9,1.7-2.3,2.8-4.1c0.8-1.4,1.7-3.1,2.6-5.1l-55.5,11.2l1.8,7.9l47.9-9.3
	C449.1,147.6,449.3,147.4,449.5,147.2z"/>
<path class="st0" d="M639.2,143.3c1,1.7,2.1,3.3,2.9,4.3c0.3,0.1,3.3,0.7,4,0.8c1.2,0.2,1.7,0.3,1.9,0.4l45.7,8.4l1.8-7.9
	l-59.3-12.1C637.2,139.7,638.3,141.8,639.2,143.3z"/>
</svg>
