<?xml version="1.0" encoding="utf-8"?>
<!-- Generator: Adobe Illustrator 25.3.0, SVG Export Plug-In . SVG Version: 6.00 Build 0)  -->
<svg version="1.1" id="Layer_1" xmlns="http://www.w3.org/2000/svg" xmlns:xlink="http://www.w3.org/1999/xlink" x="0px" y="0px"
	 viewBox="0 0 750.2 400.1" style="enable-background:new 0 0 750.2 400.1;" xml:space="preserve">

<path class="st0" d="M230.5,197.6c11.5-5.1,22.9-10.2,34.4-15.1c-3.7,2.7-7.5,5.5-11.3,8.3c1.6-0.6,3.2-1.2,4.8-1.8
	c9-4.8,18.1-9.5,27.1-13.9c-0.1-2.4-0.1-4.7,0-7C267.3,177.1,248.9,187.2,230.5,197.6z M351.7,144.7l0.6-2.6c-1.8,0.5-3.6,1-5.5,1.5
	L351.7,144.7z M139.2,223.6c-8.1,2.6-16.2,5-24.2,7c-1.9,0.7-3.8,1.3-5.7,2c-1,3.1-2,6.2-3.2,9.4c0,0.1-0.1,0.2-0.1,0.2
	c0.2-0.1,0.3-0.2,0.5-0.3c3.1-1.9,6.1-3.8,9.2-5.8c22.5-4,45.2-11,68.2-19.1c6.2-2.2,12.4-4.5,18.7-6.8c6.4-2.9,12.9-5.7,19.3-8.7
	c10.9-8.3,21.7-16.5,32.5-24.4c-5.4,1.9-10.8,3.9-16.1,5.9C205.1,197.5,172,212.9,139.2,223.6z M291.8,221.2
	c-0.7-2.9-1.4-5.7-1.9-8.5c-22.9,10-45.8,21.6-68.6,33.2c15.1-8.8,30.3-17.5,45.3-25.7c-53.6,23.5-106.8,52.6-159.5,66.4
	c13.4-6.1,26.7-13.1,40-20.6c10.5-3.2,21-6.9,31.6-10.8c16.4-9,32.7-18.4,49-27.7c13.8-5.1,27.7-10.2,41.7-14.9
	c-3.1,1.9-6.2,3.8-9.3,5.9c9.5-5.1,19-9.1,28.5-11.9c-0.2-1.3-0.4-2.6-0.6-3.9c-0.5-3-0.9-5.9-1.2-8.8
	c-17.5,6.8-34.9,14.5-52.2,22.4c-20,12.2-40,24.7-60.2,36.5c-3.2-2.5-6.4-5.2-9.5-7.8c-20,7.7-39.9,14.3-59.7,18.6v12.9
	c9.9-1.7,19.8-4,29.8-6.8c-9.9,4-19.9,7.7-29.8,10.8v20.6c3.1-1.4,6.3-2.9,9.4-4.5c0.7,0.3,1.4,0.6,2.1,0.9
	c-3.8,1.6-7.7,3.2-11.5,4.7v9.9c38-9.3,76.4-26.6,115.1-44.3c24.6-11.2,49.3-22.6,74.2-32.1c0.5,0.2,1.1,0.4,1.6,0.5
	c-0.3-0.9-0.5-1.7-0.8-2.5c-1.2-3.8-2.3-7.6-3.2-11.3c-21.7,8.8-43.3,19-64.8,29.3c20.8-10.7,41.6-21.2,62.4-30.4
	C290.4,221.1,291.1,221.1,291.8,221.2z M153.5,50.2c0-0.2,0-0.4,0-0.6v-0.1l0,0l0,0l-27.8,8.4c9.4-0.2,18.8-1.1,28.2-2.4
	C153.7,53.2,153.5,51.5,153.5,50.2z M118.7,116.8c-0.2,0.8-0.4,1.6-0.6,2.3c2.2-0.7,4.5-1.3,6.7-2c2.6-0.8,5.2-1.7,7.8-2.6
	C128,115.4,123.4,116.2,118.7,116.8z M115.4,127.2l0.5-2.1c0.2-0.9,0.4-2,0.7-3.1c-5,0.6-10,1.1-15,1.4c5.2-1.1,10.4-2.5,15.6-4
	c0.2-0.8,0.4-1.6,0.6-2.5c-5.9,0.8-11.7,1.3-17.6,1.6c-15.9,0.7-31.8-0.6-47.6-4.6c-2.1-0.5-4.1-1.1-6.2-1.7l3,13.8
	c14.3,5.2,28.7,8,43.2,9c-6,1.8-12,3.3-18.1,4.5c-7.5-0.2-15.1-0.9-22.6-2.2l1.6,7.3l61-13.6C114.8,129.8,115.1,128.5,115.4,127.2z
	 M279.7,94.6c0.1,0.2,0.2,0.4,0.3,0.7c18.4-6.1,36.9-11.1,55.4-13.9c4.7-0.9,9.4-1.7,14.1-2.4l-52.1-15.8c-2.4,0.6-4.9,1.2-7.3,1.9
	c-3.3,0.9-6.6,1.9-9.9,2.8c-5.3,1.6-10.6,3.3-15.8,5C270.2,78,274.7,84.9,279.7,94.6z M116.6,126l-0.5,2.2c-0.2,1.1-0.5,2.1-0.8,3.1
	c0.2,1,1.9,7.7,2.9,18.6c3.4-0.6,6.8-1.3,10.2-2.1c35.4-9.3,71-25.6,106.7-40.9c-10.7,5.5-21.5,11.1-32.3,16.6c2.5-1,5-2,7.6-3
	c18.2-9,36.3-18.1,54.5-26.3c2.8,1.1,5.7,2.2,8.5,3.4c1.7-0.6,3.5-1.2,5.2-1.8c-3-6.6-6.4-12.3-10.5-16.9c-1.7-2-3.5-3.7-5.4-5.3
	c-6.7,2.2-13.3,4.5-19.9,6.9c-0.5,0.8-0.9,1.6-1.4,2.4c-8.5,13.2-21.6,20.2-38,20.3h-1.9h-0.1c-3,0-6-0.2-8.8-0.7
	c-6.8,2.4-13.6,4.6-20.4,6.8c-18.4,5.7-36.6,10.4-54.8,12.8C117.2,123.4,116.9,124.8,116.6,126z M251.6,49.4l-0.4,0.1
	c0,2-0.3,6.8-1.2,11.7c6.7-2.1,13.5-4.2,20.2-6.1L251.6,49.4z M94.4,104.8c9.1-0.2,18.3-1,27.4-2.4c0.9-2.6,1.9-5.3,3-7.9
	c0.8-1.9,1.6-3.6,2.4-5.2c-0.7,0.2-1.3,0.4-2,0.6c-6.1,1.8-12.1,3.3-18.2,4.6c-11.8,2.5-23.7,3.9-35.5,4.1c-9.5,0-19.1-0.8-28.7-2.6
	l0.3,1.2c6.2,2.1,12.3,3.7,18.5,4.9C72.5,104.2,83.4,105,94.4,104.8z M129,88.8c-1.3,2.3-2.4,4.7-3.5,7.3c-0.9,2.1-1.7,4.1-2.4,6.2
	c7.3-1.2,14.6-2.6,21.9-4.4c-0.6-0.4-1.3-0.8-1.9-1.2c-1.7-1.1-3.5-2.2-5.2-3.3c9.6-1.5,19.2-3.6,28.8-6.1c-1-1.3-2-2.6-3-4
	c-0.2-0.3-0.4-0.6-0.6-0.9c-1-1.6-1.9-3.2-2.7-4.8c-7,2.9-14.1,5.5-21.1,8C135.8,86.6,132.4,87.7,129,88.8z M285.4,110.2
	c0.7,2.7,1.3,5.2,1.7,7.6c2.7-1,5.5-2,8.2-3c1.8,0.3,3.6,0.6,5.4,0.9c20.1-7,40.2-12.2,60.4-14.3l1.3-5.9c-1.1,0.1-2.1,0.1-3.2,0.2
	c1.1-0.2,2.2-0.4,3.3-0.6l0.7-3c-6.6,0.3-13.2,0.9-19.7,1.8C324.1,97.2,304.7,103,285.4,110.2z M233.4,131.8c11-5.8,22-11.4,33-16.8
	c-2.6,1-5.2,2-7.8,3c-18.5,8.9-37.1,18.5-55.7,27.8c-2.7-1.1-5.4-2.3-8.1-3.4c-20.7,8-41.2,15.4-61.7,20.5
	c-4.6,1.4-9.3,2.7-13.9,3.9c0,3.3,0,6.9-0.2,10.6c13.4-3.2,26.9-7.4,40.4-12.3c-6.6,3.4-13.2,6.7-19.9,9.8c1.2,0.7,2.5,1.3,3.7,1.9
	c19.6-6,39.2-13.6,58.9-21.8c3.5-1.7,7-3.4,10.5-5.2c24.4-11.1,48.8-22.4,73.2-31.7c-0.5-2.4-1.2-4.9-1.9-7.6
	C267.1,117,250.3,124.3,233.4,131.8z M354,118.6c-9.2,0.7-18.3,2-27.4,3.7c-8.5,1.1-17,2.7-25.5,4.4c-3.8,1.1-7.5,2.3-11.3,3.6
	c0.1,0.2,0.1,0.4,0.2,0.6v-0.1l22.9,5.2c9.2-3.3,18.3-6.1,27.5-8.5c-1,0.8-2.1,1.6-3.1,2.4c-3.6,2.8-7.3,5.6-11,8.6
	c3.6-1,7.3-2,10.9-2.9c-0.8-0.3-1.7-0.6-2.5-0.9c6.7-1.5,13.3-2.7,20-3.7l2.6-11.8c-3.9,0.4-7.7,0.9-11.6,1.5
	C348.4,120,351.2,119.3,354,118.6z M289.1,132.3c-0.2-0.5-0.3-1-0.5-1.5c-10.8,3.6-21.5,7.6-32.3,11.7c4.9-0.7,9.9-1.3,14.9-2
	c-28.9,10.8-57.5,23.6-86,34.6c-0.6,0.4-1.1,0.7-1.7,1.1c-2.9,1-5.8,1.9-8.8,2.9c-7.6,2.8-15.2,5.5-22.8,8
	c-4.3,3.1-8.5,6.1-12.8,9.1c-7.5,1.8-15,3.3-22.5,4.4c-0.6,3.9-1.3,7.9-2.2,11.9c5.1-0.8,10.3-1.7,15.5-2.8
	c29.8-7.5,59.8-19.4,90.1-31.6c12.6-6.3,25.1-12.7,37.7-18.7c9.8-4.7,19.5-9.2,29.3-13.4c0.8-6,1.7-10.4,2.3-12.8
	c-0.1-0.2-0.1-0.5-0.2-0.7C289.2,132.5,289.1,132.4,289.1,132.3z M642.7,261.8c-16-4.3-32.1-10-48.2-16.6c-3.1,2.8-6.3,5.5-9.5,8.2
	c-20.2-12.3-40.2-25.4-60.2-38.1c-21.3-10.1-42.7-19.9-64.2-28.1c-0.4,4.5-1,9.2-1.7,14c24.5,7.3,48.8,16.6,72.8,25.8
	c16.3,9.7,32.7,19.6,49,29c10.6,4.1,21.1,7.9,31.6,11.3c10.2,6,20.5,11.7,30.7,16.9v-5.8c-6.2-2.3-12.5-4.8-18.7-7.4
	c6.1,1.8,12.2,3.3,18.3,4.7L642.7,261.8z M396.4,135.9l1.7,7.6l16-3.4c-4-1.2-8-2.4-11.9-3.4C400.2,136.4,398.3,136.2,396.4,135.9z
	 M464.4,160.5c-1.1-0.3-2.1-0.6-3.2-1c0.1,2.2,0.2,4.4,0.2,6.8c13.1,6.3,26.3,13.2,39.5,20.6c1.6,0.6,3.2,1.2,4.8,1.8
	c-3.8-2.9-7.5-5.8-11.3-8.6c11.5,5.1,23,10.4,34.4,15.8C507.3,183.3,485.8,171,464.4,160.5z M626.8,109.3c0.2,0.1,0.4,0.1,0.6,0.2
	v-0.1C627.1,109.3,626.9,109.3,626.8,109.3z M659.3,113.5c-10.1-0.5-20.3-1.8-30.5-3.8c0,0.1,0.1,0.2,0.1,0.4
	c1.9,0.7,3.7,1.3,5.6,1.9c7.8,2.6,15.6,4.8,23.4,6.6c-9.2-0.5-18.4-1.7-27.6-3.5c0.8,3.3,1.5,6.3,2,9c0.2,1.2,0.5,2.3,0.7,3.3
	c0.3,1.2,0.6,2.4,0.9,3.5l60.6,13.2c0.7-0.1,1.5-0.2,2.2-0.3l2.1-9.6c-4.6,0.5-9.2,0.9-13.8,1c-6-1.3-12.1-2.9-18.1-4.7
	c11.4-0.8,22.8-2.8,34.1-6.3l3.3-15C689.4,113,674.4,114.2,659.3,113.5z M473.6,87.3c4.1,1.4,8.2,2.8,12.3,4.3
	c2.9-1.2,5.7-2.3,8.5-3.5c18.1,8.6,36.3,18.1,54.5,27.5c2.5,1,5.1,2.1,7.6,3.1c-10.8-5.7-21.5-11.6-32.3-17.3
	c35.7,16,71.2,32.9,106.7,42.7c0.1,0,0.1,0,0.2,0c0.7-5.3,1.4-9.1,1.9-11.1c-0.4-1.5-0.9-3-1.2-4.6c-0.2-0.9-0.4-1.9-0.6-2.9
	l-0.1-0.4c-0.6-3-1.3-6.4-2.3-10.2c-13.9-2.7-27.8-6.6-41.7-11.1c-13.7-4.5-27.5-9.6-41.4-14.8c4.5,0.4,9.1,0.8,13.6,1.1
	C538,82,516.6,73.4,495,66C486.3,71.1,479.2,78.2,473.6,87.3z M472.2,86.8c5.6-8.9,13-15.9,21.3-21.4c-4.8-1.6-9.5-3.2-14.3-4.7
	c-3.1-1-6.2-1.9-9.3-2.8l-51.7,15.6c1.9,0.4,3.8,0.7,5.8,1.1C440.1,77.3,456.1,81.5,472.2,86.8z M521.1,47.8
	c-2.2,0.1-7.4,0.2-9.3,0.3l-1.5,0.1c-1.5,0.1-3,0.2-4.3,0.3c-1.9,0.1-3.5,0.2-4.8,0.3c-1.1,0.1-1.6,0.1-1.8,0.2h-0.1l-2.2,0.7
	c4.7,1.5,9.3,3,14,4.5L521.1,47.8z M687.8,92.6c-11.9-0.1-23.7-1.7-35.5-4.3c-6.1-1.3-12.1-2.9-18.2-4.8c-4.7-1.4-9.3-3-13.9-4.6
	c-3.6-1.3-7.2-2.6-10.8-4.1c3.5,3.5,6.7,7.4,9.4,11.8c0.9,0.2,1.9,0.3,2.8,0.5c-0.6,0.4-1.2,0.8-1.7,1.2c1.1,1.8,2.1,3.6,3,5.5
	c14.1,3.1,28.1,5.1,42.1,5.4c11,0.2,21.9-0.7,32.8-2.9c3.3-0.7,6.6-1.5,10-2.4l0.6-2.6C701.5,92.3,694.6,92.7,687.8,92.6z
	 M621.1,93.4c-0.8-1.5-1.5-3-2.4-4.4c-0.8,0.5-1.5,1-2.3,1.5c-0.6,0.4-1.3,0.8-1.9,1.2C616.7,92.4,618.9,92.9,621.1,93.4z
	 M617.1,86.3c-3.1-4.7-6.6-8.9-10.5-12.6c-2.7-1.1-5.4-2.2-8.1-3.4c-16.4-7-32.8-15.1-49.2-23.3c-1.4,0-2.9,0-4.3,0l0,0
	c-2.7,0-5.4,0-8.3,0.1c3,2.2,6,4.5,9.1,6.8c-5.9-2.2-11.8-4.4-17.8-6.6c-1.9,0.1-3.8,0.1-5.7,0.2c-0.1,0.7-0.5,1.3-1.1,1.7l-8.6,5.5
	C547.9,66.4,582.7,79.9,617.1,86.3z M462.4,109.8c0.8-2.7,1.6-5.5,2.7-8.4c-16.4-5.9-32.8-10.8-49.2-13.7
	c-10.3-1.5-20.5-2.3-30.8-2.1l0.4,1.6c4.9,0.6,9.8,1.4,14.7,2.4c-4.7-0.3-9.5-0.5-14.2-0.4l1.2,5.5c23.9,1.2,47.7,7.2,71.5,15.8
	C459.9,110.3,461.2,110.1,462.4,109.8z M463.9,109.6c0.1,0,0.1,0,0.2,0c27.6,10.2,55.2,23.6,82.7,36.6c3.5,1.8,7,3.6,10.5,5.4
	c19.7,8.5,39.3,16.5,58.9,22.7c1.3-0.7,2.5-1.3,3.7-2c-6.6-3.2-13.3-6.7-19.9-10.2c9.9,3.7,19.7,7.1,29.6,9.9c-0.1-4,0-7.7,0.1-11.2
	c-1.1-0.3-2.3-0.7-3.4-1.1c-20.5-5.4-41-13-61.7-21.4c-2.7,1.2-5.4,2.4-8.1,3.6c-18.6-9.7-37.2-19.8-55.7-29
	c-2.6-1.1-5.2-2.1-7.8-3.1c11,5.6,22,11.5,33,17.5c-19.8-9.2-39.7-18.1-59.6-25.4C465.4,104.5,464.6,107.1,463.9,109.6z M419,122.9
	c10,2.7,20,6,30,9.8l8.4-1.8v0.1c0.3-0.9,0.5-1.7,0.7-2.7c0.1-0.4,0.2-0.7,0.3-1.1c0-0.1,0-0.2,0.1-0.3c0.1-0.7,0.3-1.5,0.5-2.3
	c0-0.2,0.1-0.5,0.1-0.7c0.1-0.4,0.2-0.9,0.3-1.4c-0.4-0.1-0.8-0.3-1.2-0.4c-8.5-1.9-17-3.4-25.5-4.6c-9.1-1.8-18.2-3.1-27.4-3.9
	c2.8,0.7,5.6,1.4,8.4,2.2c-7.5-1.2-15-2-22.4-2.4l2.6,11.9c10.3,1,20.5,2.8,30.8,5.2c-0.8,0.3-1.7,0.6-2.5,0.9
	c3.6,0.9,7.3,1.9,10.9,3c-3.7-3.1-7.4-6.1-11-9C421.1,124.5,420.1,123.7,419,122.9z M620.2,194.6c-4.3-3.1-8.6-6.3-12.8-9.5
	c-7.6-2.6-15.2-5.4-22.8-8.3c-2.9-1-5.8-2-8.8-3c-0.6-0.4-1.1-0.8-1.7-1.2c-28.5-11.6-57.2-24.9-86-36.2c5,0.6,10,1.3,14.9,2
	c-14.1-5.7-28.2-11.1-42.3-15.6c-0.1,0.7-0.3,1.4-0.4,2c-0.2,1.2-0.5,2.3-0.7,3.3c-0.4,1.9-0.9,3.7-1.5,5.4c0.2,0.8,0.4,1.7,0.6,2.8
	c14.3,5.9,28.6,12.6,42.9,19.8c12.6,6.3,25.1,12.9,37.7,19.5c30.3,12.7,60.3,25.2,90.1,33c1.4,0.3,2.8,0.6,4.2,0.9
	c-0.8-4.3-1.5-8.4-2.1-12.5C627.8,196.3,624,195.5,620.2,194.6z M166,339.1c3-1.4,6-2.8,9.1-4.3c21.8-12.2,43.5-25.3,65.3-37.9
	c3.3,0.5,6.6,1,9.9,1.6c16.4-8.1,32.8-15.9,49.3-22.9v-1.8v-5.5v-2v-1v-4.8v-4.9v-0.3v-1.1v-3.5v-3c-0.8,0.6-1.6,1.2-2.4,1.8
	c-1.6,0.6-3.1,1.3-4.7,1.9c-3.4,0.4-6.7,1-10.1,1.7c-8.7,4.1-17.5,8.9-26.3,14.5c-31.1,14.5-62,30.4-92.8,43.7
	c5.4-1,10.8-2.1,16.2-3.3c-16.6,7.6-33.1,14.6-49.6,20.6c-8.2,3-16.4,5.6-24.6,8v14c-0.2,0.1-0.5,0.2-0.7,0.3l-0.1,5.9v2.4v2.5l0,0
	c0,0-0.1,0,0,0l0,0c0,0,0.1,0,0.2,0l0,0l0,0c0,0,0.7,0.1,1.9,0.4c32.6-11.6,65.3-28.3,98.1-45.8C191.8,324.1,178.9,331.8,166,339.1z
	 M281.5,311.1c6-3.1,12.1-6.1,18.1-9v-3v-3.4V291c-32.7,15.2-65.2,33.7-97.8,51.3c13.1-8,26.3-16.1,39.4-24.1
	c-3.1,1.6-6.2,3.2-9.2,4.7c-22.1,13.1-44.3,26.5-66.5,38.9c-3.2-0.7-6.4-1.5-9.5-2.4c-6.2,2.8-12.3,5.5-18.5,8
	c8.4,1.3,17.8,2.6,27.4,3.6c4-2.2,8-4.4,12-6.6c32.7-17.3,65.5-36.4,98.4-53.3C277.3,311.3,279.4,311.2,281.5,311.1z M281.4,322.6
	c-17.7,8.3-35.4,17.3-53,26.4c5.8-1.7,11.6-3.4,17.5-5.2c-19.1,9.7-38.1,19.8-57.1,29.3c1.4,0.1,2.8,0.1,4.3,0.1l0,0
	c0.6,0,1.2,0,1.8,0c0.2,0,0.3,0,0.5,0c0.5,0,0.9,0,1.4,0c0.3,0,0.6,0,0.9,0c0.3,0,0.7,0,1,0c0.6,0,1.2,0,1.9,0
	c6-0.1,12.3-0.4,18.6-0.8c3.4-2,6.9-4.1,10.3-6.1c23.5-13.9,47-27.5,70.5-39.6v-11.1C293.7,317.9,287.6,320.2,281.4,322.6z
	 M288.2,250.5c3.8-1.1,7.6-2.1,11.4-2.9v-1.4c-3.5,1.2-7,2.5-10.5,3.9C288.8,250.2,288.5,250.3,288.2,250.5z M620.2,223.1
	c-32.8-11.2-65.9-27.2-99.1-42.4c-5.4-2.1-10.7-4.1-16.1-6.1c10.7,8.3,21.6,16.8,32.5,25.5c6.5,3,12.9,6.1,19.3,9
	c6.2,2.4,12.5,4.8,18.7,7.1c21.8,8.1,43.4,15,64.9,19.3c-0.7-2.3-1.4-4.5-2.1-6.7C632.3,227,626.2,225.1,620.2,223.1z M643.1,286.1
	c-49.7-15.2-99.7-43.5-150.2-66.6c15.1,8.6,30.2,17.7,45.3,26.9c-26.7-14.1-53.4-28.3-80.2-39.7c-0.6,3.4-1.3,6.8-2.1,10.3
	c-1,4.5-2.3,9-3.7,13.7c29.2,10.7,58.2,24.6,87,38.4c34.9,16.6,69.6,33,103.9,43.1v-12c-0.1-0.1-0.2-0.1-0.4-0.2
	c0.1-0.1,0.2-0.1,0.4-0.2V286.1z M579.9,311.2c5.4,1.2,10.8,2.4,16.2,3.4c-31.9-14.4-63.9-31.6-96.1-47.2c-3.9-1.9-7.8-3.8-11.8-5.6
	c-0.3-0.2-0.7-0.3-1-0.5c8.6,2.9,17.3,6.6,25.9,11.2c-12.1-8.2-24.1-14.9-36-20.2c-4.8-0.9-9.7-1.6-14.6-2.1c-0.1,0-0.1-0.1-0.2-0.1
	c-1.6-1.2-3.2-2.4-4.7-3.6c4.6,0.9,9.2,2,13.7,3.3c-0.3-0.1-0.6-0.2-0.9-0.4c-5.4-2.1-10.8-3.9-16.2-5.5c-1.7-1.3-3.4-2.6-5.1-3.8
	c-0.2,0.4-0.3,0.9-0.5,1.3v15.3c0.5,0.2,1.1,0.4,1.6,0.7c-0.5,0.1-1.1,0.2-1.6,0.3v2.4v2.5v9.9c20.3,8.4,40.4,18.4,60.6,28.7
	c3.3-0.5,6.7-1.1,9.9-1.6c21.7,13.2,43.5,26.8,65.3,39.6c3,1.5,6,3,9.1,4.5c-12.9-7.6-25.8-15.6-38.7-23.7
	c28.5,15.9,57,31.1,85.5,42.8c1.9-0.9,3-1.4,3-1.4v-3.3l0,0v-6.7v-13.9c-4.6-1.5-9.1-3.1-13.7-4.9
	C613,326.4,596.5,319.1,579.9,311.2z M594,367.6c-22.2-12.9-44.3-26.9-66.5-40.6c-3.1-1.7-6.2-3.3-9.2-5
	c13.1,8.3,26.2,16.8,39.4,25.1c-32.5-18.4-65.1-37.6-97.7-53.5c-0.2-1-0.4-1.9-0.7-2.9c-0.9-0.2-1.8-0.3-2.7-0.5
	c-1.8-0.3-3.7-0.6-5.5-0.9c-0.8-0.4-1.7-0.8-2.5-1.1v11.3c9.8,4.6,19.6,9.6,29.4,14.8c2.1,0.1,4.2,0.2,6.3,0.4
	c32.9,17.6,65.7,37.6,98.4,55.6c4.1,2.4,8.3,4.8,12.5,7.2c0.4,0.2,0.9,0.4,1.3,0.6c7.8-2.1,15-4.4,21.3-6.6
	c-4.7-2.1-9.4-4.3-14.1-6.5C600.4,366,597.2,366.8,594,367.6z M531,354c-17.6-9.4-35.3-18.8-53-27.5c-9.8-4-19.6-7.8-29.4-11.3v8.4
	v1.4c27.1,13.9,54.3,30.3,81.4,47c7.4,4.6,14.8,9.2,22.2,13.7c8.4-0.5,16.8-1.6,25-3.2c-21.2-11-42.4-22.7-63.7-34.1
	C519.4,350.4,525.2,352.2,531,354z M448.4,332.5c0.3,0.1,0.5,0.2,0.8,0.4c-0.3-0.2-0.5-0.5-0.8-0.7V332.5z"/>
</svg>
