<?xml version="1.0" encoding="utf-8"?>
<!-- Generator: Adobe Illustrator 25.3.0, SVG Export Plug-In . SVG Version: 6.00 Build 0)  -->
<svg version="1.1" id="Layer_1" xmlns="http://www.w3.org/2000/svg" xmlns:xlink="http://www.w3.org/1999/xlink" x="0px" y="0px"
	 viewBox="0 0 750.2 400.1" style="enable-background:new 0 0 750.2 400.1;" xml:space="preserve">
<g>
	<polygon points="643.3,166.6 643.3,161.7 643.3,161.7 	"/>
	<path d="M251.6,49.4l-0.3,0.1c-0.1,2.5-0.5,9.1-1.8,15.1l2.4,0.9c4.5,1.8,8.2,3.9,11.6,6.7l7.1-17.1L251.6,49.4z"/>
	<path d="M150.6,66.4l5.1-2.3l-0.5-1.5c-1.4-6.1-1.7-11-1.7-13.2c0-0.1,0-0.1,0-0.2l-18.9,5.7l6.6,16.8
		C144,69.8,147.1,68.1,150.6,66.4z"/>
	<path d="M510.4,48.1L510.4,48.1c-1.5,0.1-2.9,0.2-4.2,0.3c-1.9,0.1-3.5,0.2-4.8,0.3c-1.1,0.1-1.6,0.1-1.8,0.2l-0.1,0l-14,4.3
		l-9.3,2.8l6.9,17.7c4.2-4,8.9-7.4,13.8-10.3l24.4-15.6c-2.1,0.1-7.5,0.2-9.4,0.3L510.4,48.1z"/>
	<path d="M617.5,55.9l-23.9-7.2l-0.2,0c-3.3-0.2-13.6-0.6-21.7-0.9l22.8,15.6c5.4,3.2,10.6,7.1,15.2,11.8l5-12.1L617.5,55.9z"/>
</g>
</svg>
