<?xml version="1.0" encoding="utf-8"?>
<!-- Generator: Adobe Illustrator 25.3.0, SVG Export Plug-In . SVG Version: 6.00 Build 0)  -->
<svg version="1.1" id="Layer_1" xmlns="http://www.w3.org/2000/svg" xmlns:xlink="http://www.w3.org/1999/xlink" x="0px" y="0px"
	 viewBox="0 0 750.2 400.1" style="enable-background:new 0 0 750.2 400.1;" xml:space="preserve">
<g>
	<path d="M141.4,108.1c-2.4,12.2-5.5,28.1-8.7,45.5l5.7,0.9c3.1-17.1,6.1-32.9,8.6-45.5L141.4,108.1z"/>
	<path d="M117.9,240c-3.2,20.5-5.5,38.4-6.2,49.9c2,0.5,3.9,1,5.8,1.4c0.7-11.6,3.1-29.6,6.2-50.4L117.9,240z"/>
	<path d="M419.3,108.3c-2.4,12.2-5.5,28.1-8.7,45.5l5.9,0.9c3.1-17.1,6.1-32.9,8.6-45.5L419.3,108.3z"/>
	<path d="M395.7,240.2c-3.1,20.5-5.5,38.3-6.1,49.7c2,0.5,4,1,6,1.4c0.7-11.5,3-29.5,6.2-50.2L395.7,240.2z"/>
	<path d="M331.9,107.1l-5.2,0.8c0.1,0.6,0.2,1.1,0.3,1.7c2.4,12,5.5,27.2,8.8,43.8l5.5-0.8C337.8,135,334.4,119.2,331.9,107.1z"/>
	<path d="M364.2,289.7c-0.7-11.7-3.3-30-6.8-51l-5.6,0.9c3.5,21.1,6.2,39.5,6.9,51.4C360.5,290.6,362.4,290.1,364.2,289.7z"/>
	<path d="M609.7,107.1l-6,0.9c0.1,0.5,0.2,1,0.3,1.5c2.4,12,5.5,27.3,8.8,43.9l6.4-1C615.6,135,612.3,119.2,609.7,107.1z"/>
	<path d="M642.2,289.8c-0.7-11.7-3.3-30.1-6.9-51.1l-6.5,1c3.5,21.2,6.2,39.7,7,51.6C637.9,290.8,640,290.3,642.2,289.8z"/>
</g>
</svg>
