<?xml version="1.0" encoding="utf-8"?>
<!-- Generator: Adobe Illustrator 25.3.0, SVG Export Plug-In . SVG Version: 6.00 Build 0)  -->
<svg version="1.1" id="Layer_1" xmlns="http://www.w3.org/2000/svg" xmlns:xlink="http://www.w3.org/1999/xlink" x="0px" y="0px"
	 viewBox="0 0 750.2 400.1" style="enable-background:new 0 0 750.2 400.1;" xml:space="preserve">
<path d="M127.6,181.6l5.7,0.8c0.2-1.3,0.5-2.6,0.7-3.8l-5.7-0.8C128.1,179,127.9,180.3,127.6,181.6z"/>
<path d="M125.1,232.1c0.2-1.3,0.4-2.6,0.6-3.9l-5.8-0.9c-0.2,1.3-0.4,2.6-0.6,3.9L125.1,232.1z"/>
<path d="M405.5,181.9l5.9,0.9c0.2-1.3,0.5-2.6,0.7-3.8l-5.9-0.9C406,179.3,405.7,180.6,405.5,181.9z"/>
<path d="M403.8,228.4l-6-0.9c-0.2,1.3-0.4,2.6-0.6,3.9l6,0.9C403.4,230.9,403.6,229.7,403.8,228.4z"/>
<path d="M624.1,177.6c-0.2-1.3-0.5-2.6-0.8-3.8l-6.4,0.9c0.2,1.3,0.5,2.6,0.7,3.8L624.1,177.6z"/>
<path d="M632.7,223.3l-6.5,0.9c0.2,1.3,0.5,2.6,0.7,3.8l6.5-0.9C633.1,225.9,632.9,224.6,632.7,223.3z"/>
<path d="M341.2,181.4l5.6-0.8c-0.2-1.3-0.5-2.6-0.7-3.8l-5.6,0.8C340.7,178.8,341,180.1,341.2,181.4z"/>
<path d="M355.3,226.3l-5.6,0.8c0.2,1.3,0.4,2.6,0.7,3.8l5.6-0.8C355.7,228.9,355.5,227.6,355.3,226.3z"/>
</svg>
