<?xml version="1.0" encoding="utf-8"?>
<!-- Generator: Adobe Illustrator 25.3.0, SVG Export Plug-In . SVG Version: 6.00 Build 0)  -->
<svg version="1.1" id="Layer_1" xmlns="http://www.w3.org/2000/svg" xmlns:xlink="http://www.w3.org/1999/xlink" x="0px" y="0px"
	 viewBox="0 0 750.2 400.1" style="enable-background:new 0 0 750.2 400.1;" xml:space="preserve">
<g>
	<path d="M197.7,135.9l-0.4,18.8l0,1.4l0.1,0v0l1.6,0.6l88.2,32.8c-0.2-2.4-0.3-4.8-0.3-7.2l-0.9-0.3c0,0,0,0,0-0.1l-83.4-28.7
		l-1.2-50.8c-1.8,0-3.5-0.1-5.2-0.3l2.3,0.7L197.7,135.9z"/>
	<path d="M160.9,76.8l-43.3-13.8c-0.6,1.6-1.1,3.4-1.6,6c-0.1,0.4-0.2,0.7-0.2,1.1l49.6,14.3C163.6,81.9,162.1,79.4,160.9,76.8z"/>
	<path d="M165,152.1l-1.7-0.6l-50.8-16.2c0.5,1.7,1,3.9,1.6,6.6l3.5,1c0,0,0,0.1,0,0.1l42.2,12.1l1.2,51.1l0,0.8l0,0v0l0.9,0.3
		L273.4,244l-0.4-0.1l0.3,0.1l-23.6-8.3l-85.9-30.2l1.2-51.9V152.1z"/>
	<path d="M291.8,99.5c-0.1-1.9-0.2-3.8-0.4-5.7l-16.6-5.7c0,0,0,0,0,0L264,84.3l-2.6-0.9l-0.3-11.3c0,0,0,0,0,0l-0.4-20.4l-3.7-1.1
		l-0.8,34.4v1.4l1.6,0.6L291.8,99.5z"/>
	<path d="M267.9,78.4C267.9,78.4,267.9,78.4,267.9,78.4L267.9,78.4l0.1,0.1c0,0,0,0,0,0l0.8,0.3l22,7.2c-0.1-0.6-0.1-1.3-0.2-1.9
		L270.8,77l0.5-22.2l-3.9-1.2l0.5,24.1V78.4z"/>
	<path d="M104.8,245.5c-0.2,0.4-0.3,0.8-0.5,1.2l0.1,26.8l0.8,0.3v0L264.5,333l35.4,13.2v0l0.1,0v-7.8v0l-194.6-69.1L104.8,245.5z"
		/>
	<path d="M234.1,125.2l0,0.1l0.9,0.3l21,6.8l33.9,11.1c0.1-0.3,0.1-0.6,0.2-0.8l-53.1-19l0.8-36.9c-1.4,1.7-2.9,3.3-4.5,4.8
		l0.7,32.9L234.1,125.2z"/>
	<path d="M154.2,49C154.2,48.9,154.2,48.9,154.2,49l-3.3,0.9l3.4,1C154.2,50,154.2,49.3,154.2,49z"/>
	<path d="M174.8,166.1l-0.6,24.3l0,1.4l1.6,0.6l120.4,43.8c-0.9-2.8-1.7-5.5-2.5-8.2l0,0c0,0,0-0.1,0-0.1l-114.1-39l-1.2-51.2V137
		l-0.1,0l0,0l-0.9-0.2l-59.5-16.1c0,0,0,0,0,0.1l-6.3-1.7c0,0,0,0.1,0,0.1l63.9,19.5L174.8,166.1z"/>
	<path d="M104.4,316l127,47.1c5.2-0.5,10.3-1,15.4-1.7l-142.4-50.6V316z"/>
	<path d="M104.4,301.1v2.4l6.3,2.2l152.2,53.2c0,0,0,0,0,0l-0.6-0.2l1.2,0.4L104.4,301.1z"/>
	<path d="M532.9,92.8l-0.3,0.1l-1.6,0.5l0,1.5l1.2,51.9l-70.9,25.3c0,0,0,0,0,0l-1.7,0.6c0,0.1,0,0.1,0,0.2l74.6-24.3l0.9-0.3v-0.8
		l1.2-51.1l96.7-27.7c-0.6-2.8-1.4-5.2-2.2-7.1l-28,8.9c0,0,0,0,0,0l-62.1,19.8L532.9,92.8z"/>
	<path d="M594.5,215l0.5-0.2l0,0l0,0v-1.4l-1.2-51.8l36.6-11.2c0,0,0-0.1,0-0.1l2.9-0.9c0.1-0.4,0.1-0.7,0.2-1l-41.5,11.2l-0.6,0.3
		L591,160l0,0.8l-1.2,51.2l-141.2,48.3v0l-0.9,0.3v7.9l145.7-53L594.5,215z"/>
	<path d="M636.5,134l-4.1,1.3c0,0,0-0.1,0-0.1l-51.6,16.4l-1.7,0.6l0,1.5l1.2,51.9L470.8,244l1.7-0.6l-1.7,0.6l111.6-36.6l0.9-0.3
		v-0.8l1.2-51.1l50.4-14.4C635.5,137.9,636.1,135.6,636.5,134z"/>
	<path d="M476.2,78.5v-0.8l0.5-22.6l-3.9,1.2l0.5,20.7l-17.1,6.2c-0.1,0.7-0.2,1.3-0.2,2l19.4-6.3L476.2,78.5z"/>
	<path d="M643.1,271.9L643.1,271.9L643.1,271.9l0-20l0-8.6c-1.1-3-2.1-6-3.1-9c-0.2-0.5-0.3-1-0.4-1.5l-0.9,36.4l-182.8,64.9
		l-8.2,2.9v7.8l194.7-72.2l0.7-0.3l0,0v0l0.2-0.1l0-0.3v-0.1H643.1z"/>
	<path d="M643.2,341.5l-102,36.2c0.1,0,0.1,0,0.2,0l-19.3,6.8c5.3,0.7,10.6,1.2,16,1.4l91.8-34l13.3-4.9v0l0,0L643.2,341.5
		L643.2,341.5L643.2,341.5z"/>
	<path d="M588.2,59.2l-1.4,0.4l0,0l-27.2,7.3l-40.9,11l-0.4,0.1l-0.6,0.1l0,0.5l0,0.4l-1.2,51.2l-58.7,20.2c0.3,1.9,0.6,4,0.8,6.1
		l2.7-1l58.9-21.9l0.7-0.3l0.9-0.3v-1.4l-0.7-26.6l-0.6-25.3l39.4-12L588.2,59.2z"/>
	<path d="M482.3,366.8l-12,4.3c3.3,1.2,6.9,2.5,10.8,3.8l162-60.1l0,0l0.2-0.1l0-5.1l-161.2,57.2
		C482.2,366.7,482.2,366.7,482.3,366.8z"/>
	<path d="M132.8,82.7C132.8,82.7,132.8,82.7,132.8,82.7l-2-0.5L179,96.9c-1.6-0.9-3.1-1.9-4.5-2.9l-15.8-4.3L132.8,82.7z"/>
	<path d="M209,147.5l0,0.8l0.9,0.3l75.7,24.7c0,0,0,0,0,0l1.2,0.4c0-0.1,0-0.1,0-0.2l-21.4-7.6l-53.4-19.1l1-45.2
		c-1.6,0.3-3.2,0.5-4.9,0.7l0,0.6c0,0,0,0,0,0L209,147.5z"/>
	<path d="M210.8,231.3L154.4,212l-1.2-51.2V160l-0.1,0l0,0l-0.9-0.2l-33.8-9.1c0,0,0,0,0,0l-2.9-0.8c0.1,0.4,0.1,0.8,0.2,1.2
		l34.7,10.6l-1.2,51.8l0,1.4l1.6,0.6l148.8,54.2v0l0.1,0v-7.9l-0.1,0v0L210.8,231.3z"/>
	<path d="M286.1,156.7C286.1,156.7,286.1,156.7,286.1,156.7l1.8,0.6c0.2-2.1,0.5-4.2,0.8-6.1l-61-21l-0.8-33.8
		c-1.2,0.7-2.4,1.3-3.6,1.9l0,0.7c0,0,0,0-0.1,0l-0.8,32.7l0,1.4l1.6,0.6L286.1,156.7z"/>
	<path d="M119.6,113.5l65.2,18.7l1.2,51.1l0,0.8l0,0v0l0.9,0.3l104.4,34.2c0-0.1,0-0.1,0-0.2l-0.1,0c0,0,0,0,0,0l-39.8-14
		l-62.4-21.9l1.2-51.9v-1.5l-1.7-0.6l-76.1-24.3c-0.1,2.3-0.2,4.6-0.3,6.9l7.6,2.2C119.6,113.3,119.6,113.4,119.6,113.5z"/>
	<path d="M130.5,246.3l-1.2-51.3v-0.8l0,0l0,0l-0.2,0l-0.8-0.2l-8.2-2.2l-2.1-0.6c0,0,0,0,0,0l-1-0.3c0,0.7-0.1,1.3-0.2,2l2.6,0.8
		l7.1,2.2l-1.2,51.9l0,0.7l-0.1,0.7l0.9,0.3l0.7,0.3l172.7,64.1l0,0l0.3,0.1l0-7.4l-58.7-20.8L130.5,246.3z"/>
	<path d="M139.9,239.8l0.7-32l0.4-19.9l0-0.6l0.1-0.9l-1.8-0.6l-19-6l-1.3-0.4c0,0,0,0,0,0l-1.4-0.5c0,1.7-0.1,3.5-0.1,5.3l18.4,5.3
		l0.7,28l0.5,23.1l0,0.8l0,0v0l0.8,0.3l59.9,20.9l101.9,35.6l0,0l0.2,0.1l0-0.2l-101-36.7L139.9,239.8z"/>
	<path d="M598,86.3l-54.2,14.6l-0.5,0.2l-0.4,0.1l0,0.5l0,0.3l-1.2,51.2l-73.1,25.2L461,181c0,0,0,0,0,0l-1.4,0.5
		c-0.1,2.3-0.2,4.7-0.3,7.1l1.1-0.4c0,0,0,0,0,0l10.2-3.8l74.6-27.7l1.6-0.6l0-0.4l0-1l-1.2-51.9L599,86.5l14.3-4.3l-0.2,0.1
		l0.3-0.1L598,86.3z"/>
	<path d="M470.5,92.7l15.9-5.9l1.6-0.6l0,0l0,0v-1.4l-0.8-32.9l-3.7,1.1L483,75.3c0,0,0,0,0,0l-0.2,8l-27.5,9.5
		c-0.1,1.8-0.3,3.6-0.4,5.5c0,0.1,0,0.2,0,0.2L470.5,92.7C470.5,92.7,470.5,92.7,470.5,92.7z"/>
	<path d="M507.2,123.7l-47.7,17.1c0,0,0,0,0,0.1l-3.2,1.1c0.1,0.3,0.1,0.5,0.2,0.8l52.8-17.2l0.4-0.2l0.4-0.1l0-0.8l0.9-41.4
		l0.2-9.7l33.9-9.7l33.6-9.6l0,0l18-5.2l-2.8-0.9l-0.3-0.1c0,0-1.5-0.1-4.2-0.2c-2.6-0.2-6.1-0.3-10.6-0.6l-71.1,22.7l-0.8,0.3
		l-0.9,0.3l0,1.5L507.2,123.7z"/>
	<path d="M450.7,235.2l117.6-42.8l1.6-0.6l0,0l0,0v-1.4l-1.2-51.8l29.1-8.9l32.1-9.8c0,0,0,0,0,0l6.3-1.9l-60.9,16.5l-8.6,2.3
		l-0.1,0l-0.7,0.2l0,0l0,0l0,0.3l-0.1,0.5l-0.6,26.3l-0.6,24.9l-56.2,19.2L453,227.2C452.3,229.8,451.5,232.5,450.7,235.2
		L450.7,235.2C450.7,235.2,450.7,235.2,450.7,235.2z"/>
	<path d="M626.3,106.1l-70.5,22.5l-1.7,0.6l0,1.5l1.2,51.9l-99.6,35c0,0.1,0,0.1,0,0.2l-0.3,0.1c0,0.1,0,0.1,0,0.2l102.1-33.5
		l0.7-0.3v0l0,0l0-0.8l1.1-50.9l0-0.2l77.9-22.3c-0.1-2.3-0.2-4.7-0.3-7.1L626.3,106.1C626.3,106.2,626.3,106.1,626.3,106.1z"/>
	<path d="M448.6,312.2l168.7-62.6l0.7-0.3l0.9-0.3l0-0.5l0-1l-1.2-51.9l13.2-4c0,0,0,0,0,0l0.9-0.3c0-0.6-0.1-1.2-0.1-1.9l-15.8,4.3
		l-0.9,0.3l0,0v0l0,0v0.8l-1.2,51.3l-165,58.6v0l-0.9,0.3v7.3L448.6,312.2L448.6,312.2z"/>
	<path d="M448.6,296.7l81.6-28.5l76.2-26.6l0.8-0.3v0l0,0l0-0.8l0.8-35.2l0.4-15.9l23-6.6c-0.1-1.8-0.1-3.6-0.1-5.4l-26.4,8.4
		l-0.9,0.3l-0.9,0.3l0,1.5l1.2,51.9l-155.7,56.7v0l-0.9,0.3v0.2L448.6,296.7L448.6,296.7z"/>
	<path d="M111.9,263.5l0,0.8l0.1,0.1l0.7,0.2l40.8,14.3l133.8,46.8l-3.6-1.3l3.6,1.3L169,282.5l-54.2-19.8l0.6-30.1l0.5-21.8l0-0.6
		l0.1-0.8l-1.2-0.4c-1,5.6-2.2,11.4-3.8,17.3l0.4,16.3L111.9,263.5z"/>
	<path d="M104.7,342.9l-0.3-0.1v5.5l27.2,10.1c0,0,0.1,0,0.1,0l35.6,13.2c7.6,0.8,15.3,1.3,22.7,1.6L104.7,342.9L104.7,342.9z"/>
	<path d="M104.9,333.6l-0.5-0.2v1.9l84.3,29.5c0.1,0,0.1,0,0.2,0l23.2,8.1c0.3,0,0.6,0,0.9,0L104.9,333.6L104.9,333.6z"/>
	<path d="M570.2,286l61.2-21.4l0.5-0.2l0.3-0.1l0-0.8l0.7-32.9l0.4-18.2l1.1-0.3c-0.3-1.5-0.5-3-0.8-4.5l-3.8,1.2l-1.8,0.6l0.1,1.1
		l0,0.4l1.2,51.9l-123.4,45l-49.1,17.9l1.5-0.5l-1.6,0.6L570.2,286z"/>
	<path d="M506.6,381.8l15.8-5.5c0,0,0,0,0,0l120.8-42.2v0l0,0l0-2L506.6,381.8C506.6,381.8,506.6,381.8,506.6,381.8z"/>
	<polygon points="643.1,299.9 528.3,341.7 480.6,359.1 482,358.6 480.6,359.1 525.4,343.5 643.3,302.3 643.3,299.9 643.1,300 	"/>
</g>
</svg>
