<?xml version="1.0" encoding="utf-8"?>
<!-- Generator: Adobe Illustrator 25.3.0, SVG Export Plug-In . SVG Version: 6.00 Build 0)  -->
<svg version="1.1" id="Layer_1" xmlns="http://www.w3.org/2000/svg" xmlns:xlink="http://www.w3.org/1999/xlink" x="0px" y="0px"
	 viewBox="0 0 750.2 400.1" style="enable-background:new 0 0 750.2 400.1;" xml:space="preserve">
<path d="M105.9,115.2c-20.4,4.3-42,9.1-56.2,12.2l3.7,17.1l61-13.6c0.4-1.2,0.7-2.5,1-3.8l0.5-2.1c1.5-7.1,4-19,9-30.6
	c6.6-15.6,14-22.6,25.7-28.1l5-2.3l-0.5-1.4c-0.2-0.8-0.3-1.6-0.5-2.4C145.5,66,122.9,82.4,105.9,115.2z"/>
<path d="M251.9,65.5c12.8,5,19.8,13.4,27.8,29.1c5.5,10.8,7.3,22.4,8.8,29.8c0.2,1,0.4,2,0.6,2.9c0.3,1.2,0.6,2.4,0.9,3.6l0-0.1
	l61.6,13.9l3.8-17.3c-14.2-3.1-35.9-7.9-56.3-12.3c-17.1-32.9-39.7-49.3-48.9-54.9c-0.2,1.4-0.5,2.9-0.8,4.3L251.9,65.5z"/>
<path d="M398.1,143.5l59.4-12.7l0,0.1c0.3-0.9,0.5-1.7,0.7-2.7c0.1-0.4,0.2-0.7,0.3-1.1c0-0.1,0-0.2,0.1-0.3
	c0.1-0.7,0.3-1.5,0.5-2.3c0-0.2,0.1-0.5,0.1-0.7c0.6-2.7,1.2-5.8,2-9.2c1.2-4.9,2.8-10.4,5-16.1c0.3-0.8,0.6-1.6,1-2.3
	c6.4-14.8,17.1-25.5,29.6-32.8l24.3-15.5c-0.7,0-1.7,0.1-2.9,0.1c-13.9,4.5-49.7,20.2-69,67.3c-19.7,4.2-40.6,8.8-54.8,11.9
	L398.1,143.5z"/>
<path d="M572.7,47.8c-0.3,0-0.6,0-0.8,0l22.7,15.6c12.4,7.3,23.3,18.5,29.7,33.4c0.7,1.7,1.4,3.3,2,4.9c3.2,8.5,4.9,16.3,6.2,22.4
	c0.2,1.2,0.5,2.3,0.7,3.3c0.3,1.2,0.6,2.4,0.9,3.5l62.6,13.7l3.8-17.2c-14.2-3.1-35.6-7.8-55.7-12.1
	C625.2,67.9,587.2,52.2,572.7,47.8z"/>
</svg>
