<?xml version="1.0" encoding="utf-8"?>
<!-- Generator: Adobe Illustrator 25.3.0, SVG Export Plug-In . SVG Version: 6.00 Build 0)  -->
<svg version="1.1" id="Layer_1" xmlns="http://www.w3.org/2000/svg" xmlns:xlink="http://www.w3.org/1999/xlink" x="0px" y="0px"
	 viewBox="0 0 750.2 400.1" style="enable-background:new 0 0 750.2 400.1;" xml:space="preserve">
<g>
	<path d="M129.1,173.5c-2.8,15.3-5.5,31.1-8,46.2l5.8,1.1c2.4-15.1,5.2-30.8,7.9-46.2L129.1,173.5z"/>
	<path d="M406.9,174.1c-2.8,15.3-5.5,31.1-8,46.2l6,1.1c2.4-15,5.1-30.8,7.9-46.2L406.9,174.1z"/>
	<path d="M354,219.3c-2.7-15.1-5.7-30.8-8.6-46l-5.5,1c2.9,15.2,5.9,31,8.6,46L354,219.3z"/>
	<path d="M632,219.4c-2.7-15.1-5.7-30.8-8.7-46l-6.3,1.2c2.9,15.2,5.9,31,8.6,46L632,219.4z"/>
</g>
</svg>
