<?xml version="1.0" encoding="utf-8"?>
<!-- Generator: Adobe Illustrator 25.3.0, SVG Export Plug-In . SVG Version: 6.00 Build 0)  -->
<svg version="1.1" id="Layer_1" xmlns="http://www.w3.org/2000/svg" xmlns:xlink="http://www.w3.org/1999/xlink" x="0px" y="0px"
	 viewBox="0 0 750.2 400.1" style="enable-background:new 0 0 750.2 400.1;" xml:space="preserve">
<g>
	<path d="M332.1,134.6c0.7,3.5,1.4,7.2,2.2,10.9l1.7,0.4c0.2,0,0.5,0,0.6,0l1.3-0.7c0.1-0.1,0.5-0.1,0.6,0c0.1,0.1,0.6,0,0.6,0
		l0.1,0c0-0.1,0.5-0.1,0.6,0l0,0c-0.7-3.7-1.5-7.2-2.2-10.7l-1.1,0.6c-0.1,0-0.5-0.9-0.7-0.9l-2-0.5c-0.2-0.1-0.6,0-0.6,0l0.4,1.1
		l-0.1,0L332.1,134.6z"/>
	<path d="M339.1,155.5l-0.1,1.1c0,0.1-0.5,0.1-0.6,0c-0.1-0.1-0.5-0.1-0.6,0l-1.2,0.7c0.7,3.5,1.4,7,2.1,10.5c0.2,0,0.4,0,0.4-0.1
		l0.1,0c0-0.1,0.5-0.1,0.6,0l1.7,0.7c0.2,0.1,0.6,0,0.6,0l0.2-0.5c0-0.1,0.3-0.1,0.5-0.1l1,0.1l0,1.6h0.1l0.8-0.1
		c-0.9-4.5-1.7-8.8-2.6-13.2l0,0.1l-0.1,0l-2.2-0.9C339.6,155.4,339.1,155.4,339.1,155.5z"/>
	<path d="M344.1,176.4L344.1,176.4l-0.1,1.9l-1.1-0.1c-0.2,0-0.5,0-0.5,0.1l-0.3,0.7l-0.1,0l-1.3-0.5c0.7,3.9,1.5,7.7,2.2,11.6
		l1.6,0.2h0.1l0-6.2l0.4-0.1c0.1,0,0.3,0,0.4,0l0.6,0.5c0,0,0.2,0,0.3,0l1.2-0.2c0,0,0,0,0.1,0c-0.5-2.6-1-5.1-1.5-7.6l-0.5-0.5
		c0,0-0.2,0-0.4,0L344.1,176.4L344.1,176.4z"/>
	<path d="M324.6,97.8c0.2,1.1,0.5,2.4,0.7,3.6c0.1,0,0.3,0,0.4,0l1.3,0.8c0.1,0.1,0.5,0.1,0.6,0l1.9-1c0.1-0.1,0.5-0.1,0.6,0
		l0.3,0.1c0.1,0,0.2,0,0.3,0c-0.3-1.6-0.7-3.1-1-4.5C328.7,97.1,327,97.4,324.6,97.8z"/>
	<path d="M329.5,111.5l-1.9,1c0.7,3.5,1.4,7.1,2.2,11c0.1,0,0.2,0,0.3,0l0.3,0.1c0.2,0.1,0.6,0,0.6,0v-0.4c0-0.1,0.3-0.1,0.5-0.1
		l1.1,0.2l0.4,0.1l0.3-0.1c0-0.1,0.4-0.1,0.6,0l1.4,0.3c-0.8-3.9-1.6-7.6-2.3-11.1l-1.6-0.2c-0.2,0-0.5,0-0.5,0.1v0.7l0,0l-0.8-0.4
		C329.9,112.7,329.6,111.5,329.5,111.5z"/>
	<path d="M350.8,220.9c-0.1,0-0.4,0-0.4,0v0.2c0,0-0.3,0.1-0.4,0l-1-0.4c-0.1,0-0.3,0-0.4,0l-0.1,0c0,0,0,0,0,0
		c0.5,2.6,0.9,5.2,1.4,7.8l0.3,0.1c0.1,0,0.4-0.6,0.4-0.7v-0.2c0,0,0.3-0.1,0.4,0l2.1,0.8c0.1,0,0.3,0,0.4,0l0.4-0.1
		c0.1,0,0.3,0,0.4,0l0.8,0.6c0.1,0,0.3,0,0.4,0l0.3-0.1c-0.5-2.8-1-5.5-1.5-8.4l0,0c-0.1,0-0.3,0-0.4,0l-0.4,0.1c-0.1,0-0.3,0-0.4,0
		L350.8,220.9z"/>
	<path d="M347.3,190.8l-0.8,0.7c-0.1,0-0.3,0-0.3,0l-0.6-0.5c0,0-0.2,0-0.4,0l-1.1,0.2l0,0l0,0l-0.1,4.4c0.2,1.1,0.4,2.2,0.6,3.2
		l0.5-0.1c0.1,0,0.3,0,0.4,0l0.6,0.5c0,0,0.2,0,0.3,0l1.2-0.2c0.1,0,0.3,0,0.3,0l0.5-0.1c0,0,0.3,0.1,0.4,0l0.1,0c0.1,0,0.3,0,0.4,0
		l1,0.4c0,0,0.1-0.1,0.2-0.2c-0.5-2.6-1-5.2-1.5-7.8c-0.1,0-0.2,0-0.2,0l-0.1,0c-0.1,0-0.4,0-0.4,0l-0.5-0.6
		C347.6,190.8,347.4,190.8,347.3,190.8z"/>
	<path d="M355.2,235.9l-1-0.7c-0.1,0-0.3,0-0.4,0l-0.4,0.1c-0.1,0-0.3,0-0.4,0l-2,0.2c0.4,2.5,0.8,5,1.2,7.4l0.7,0.3
		c0.1,0,0.3,0,0.4,0l0.4-0.1c0.1,0,0.3,0,0.4,0l0.8,0.6c0.1,0,0.3,0,0.4,0l1.3-0.6c0.1,0,0.3,0,0.4,0l0.2,0.1c0.1,0,0.4,0,0.4,0
		v-0.3c0,0,0.2-0.1,0.3,0l0,0c-0.4-2.5-0.8-5-1.3-7.6c0-0.1-0.1-0.1-0.1-0.1L355.2,235.9L355.2,235.9z"/>
	<path d="M350,206.5l-1-0.4c-0.1,0-0.3,0-0.4,0l-0.1,0c-0.1,0-0.4,0-0.4,0l-0.5-0.6c0,0-0.2,0-0.3,0l-0.8,0.7c-0.1,0-0.3,0-0.3,0
		l-0.3-0.3c0.5,2.7,1,5.3,1.4,7.9l0.2,0c0.1,0,0.3,0,0.3,0l0.5-0.1c0,0,0.3,0.1,0.4,0l0.1,0c0.1,0,0.3,0,0.4,0l1,0.4
		c0.1,0,0.4-0.6,0.4-0.7v-0.2c0,0,0.3-0.1,0.4,0l2.1,0.8c0,0,0,0,0,0c-0.5-2.6-0.9-5.2-1.4-7.8l-0.8,0.1c-0.1,0-0.4,0-0.4,0v0.2
		C350.4,206.5,350.1,206.5,350,206.5z"/>
	<path d="M357.7,250.4v0.5l0,0l-0.6-0.2c-0.1,0-0.3-0.8-0.3-0.8l-1.4,0.7l-0.1,0l-1-0.7c-0.1,0-0.3,0-0.4,0l-0.4,0.1
		c0.4,2.8,0.9,5.5,1.3,8.2l0.4,0.2c0.1,0,0.3,0,0.4,0l1.3-0.6c0.1,0,0.3,0,0.4,0l0.2,0.1c0.1,0,0.4,0,0.4,0v-0.3c0,0,0.2-0.1,0.3,0
		l0.7,0.1l0.3,0.1l0.2-0.1c0,0,0.2-0.1,0.4,0l0.8,0.2c-0.4-2.4-0.7-4.8-1.1-7.2l-1.3-0.1C357.8,250.3,357.7,250.3,357.7,250.4z"/>
	<path d="M358,265c-0.1,0-0.3,0-0.3,0v0.5l0,0l-0.6-0.2c-0.1,0-0.3-0.8-0.3-0.8l-1,0.5c0.4,2.6,0.7,5,1,7.4c0.1,0,0.3,0,0.4,0
		l0.2,0.1c0.1,0,0.4,0,0.4,0v-0.3c0,0,0.2-0.1,0.3,0l0.7,0.1l0.3,0.1l0.2-0.1c0,0,0.2-0.1,0.4,0l1.3,0.3c0.1,0,0.3,0,0.4,0l0.8-0.5
		c0,0,0.1,0,0.2,0c-0.3-2.2-0.6-4.4-0.9-6.7l-0.1,0.1c-0.1,0-0.3-0.6-0.4-0.6l-1.3-0.3c-0.1,0-0.4,0-0.4,0l0.3,0.7l-0.1,0L358,265z"
		/>
	<path d="M358,279.7c-0.1,0-0.3,0-0.3,0v0.2v0c0.3,2.5,0.5,4.9,0.7,7.1l0.4,0.1l0.3,0.1l0.2-0.1c0,0,0.2-0.1,0.4,0l1.3,0.3
		c0.1,0,0.3,0,0.4,0l0.8-0.5c0.1,0,0.3,0,0.4,0c0.1,0,0.4,0,0.4,0l0.1,0c0,0,0.3-0.1,0.4,0l0.4,0.1l0-0.9l0.1,0l0,0
		c-0.2-2.3-0.4-4.7-0.7-7.4c-0.1,0-0.1,0-0.1,0l-0.1,0.7c0,0-0.3,0.1-0.4,0c-0.1,0-0.3,0-0.4,0l-0.8,0.5c-0.1,0-0.3-0.6-0.4-0.6
		l-1.3-0.3c-0.1,0-0.4,0-0.4,0l0.1,0.2c0,0-0.1,0-0.1,0l0.2,0.5l0,0L358,279.7z"/>
	<path d="M118.1,279.8l-2.2-0.2c-0.1,0-0.3,0-0.4,0l-0.4-0.1c-0.1,0-0.3,0-0.4,0l-1,0.7l-0.1,0l-1.1-0.5c-0.3,2.8-0.5,5.4-0.7,7.7
		c0.1,0,0.3,0,0.3,0l1.3,0.6c0.1,0,0.3,0,0.4,0l0.8-0.6c0.1,0,0.3,0,0.4,0l0.4,0.1c0.1,0,0.3,0,0.4,0l2-0.8c0.2-2.2,0.4-4.5,0.7-6.9
		C118.5,279.8,118.2,279.8,118.1,279.8z"/>
	<path d="M113.5,273.3c0.1,0,0.3,0,0.4,0l0.8-0.6c0.1,0,0.3,0,0.4,0l0.4,0.1c0.1,0,0.3,0,0.4,0l2.1-0.8c0.1,0,0.4,0,0.4,0v0.2
		c0,0,0.3,0.7,0.4,0.7l0.5-0.2c0.3-2.5,0.6-5.2,1-8l0,0c-0.1,0-0.3,0-0.4,0l-1,0.4c-0.1,0-0.4,0-0.4,0V265c0,0-0.3-0.1-0.4,0
		l-2.2-0.2c-0.1,0-0.3,0-0.4,0l-0.4-0.1c-0.1,0-0.3,0-0.4,0l-0.4,0.3c-0.4,2.9-0.7,5.7-1,8.4L113.5,273.3z"/>
	<path d="M141.1,109.8l0.3,0.1c0.1,0.1,0.5,0.1,0.6,0l1.3-0.8c0.1-0.1,0.4-0.1,0.6,0l0.6,0.2c0.1,0,0.4,0,0.6,0l2.1-0.8
		c0.7-3.6,1.4-6.9,2-9.9c-2.6-0.3-4.5-0.5-5.6-0.7C142.8,101.3,142,105.3,141.1,109.8z"/>
	<path d="M129.2,175.4c0.2-0.1,0.6,0,0.6,0l0.1,0c0,0.1,0.5,0.1,0.6,0c0.1-0.1,0.5-0.1,0.6,0l1.3,0.7c0.1,0,0.4,0.1,0.6,0l1.6-0.4
		c0.7-3.7,1.3-7.3,2-10.9l-1.1,0.1l-0.1,0l0.4-1.1c0-0.1-0.4-0.1-0.6,0l-2,0.5c-0.2,0-0.6,1-0.7,0.9l-1.3-0.7c-0.1,0-0.3-0.1-0.4,0
		c-0.7,3.6-1.3,7.3-2,11L129.2,175.4z"/>
	<path d="M133,153.9l2-0.5c0.2-0.1,0.6,0,0.6,0l0.3,0.1l0.4-0.1l1.1-0.2c0.2,0,0.5,0,0.5,0.1v0.1v0.3c0,0.1,0.4,0.1,0.6,0
		c0.7-4,1.5-8,2.2-11.9l-1.3-0.6c-0.1-0.1-0.4,1.2-0.5,1.2l-0.8,0.4l0,0v-0.4v-0.3c0-0.1-0.3-0.1-0.5-0.1l-2.2,0.2l0,0l0.3-0.7
		c0,0,0,0-0.1-0.1l0.1-0.3c0-0.1-0.4-0.1-0.6,0l-0.1,0c-0.8,4.1-1.6,8.3-2.4,12.7C132.8,154,132.9,154,133,153.9z"/>
	<path d="M125.1,198.9L125.1,198.9l0-1.1l1-0.1c0.2,0,0.5,0,0.5,0.1l0.2,0.5c0,0.1,0.5,0.1,0.6,0l1.7-0.7c0.2-0.1,0.6,0,0.6,0l0.1,0
		c0,0.1,0.5,0.1,0.6,0c0,0,0.1,0,0.2,0c0.6-3.4,1.2-6.8,1.8-10.2c0,0.1-0.1,0.1-0.1,0.1l-1.3-0.7c-0.1-0.1-0.5-0.1-0.6,0
		c-0.1,0.1-0.6,0-0.6,0l-0.1-1.1c0-0.1-0.5-0.1-0.6,0l-2.2,0.9l-0.1,0l-0.1-0.3c-0.7,4.2-1.5,8.4-2.2,12.6L125.1,198.9z"/>
	<path d="M118.1,250.3l-1.8-0.2c-0.4,2.7-0.8,5.3-1.1,7.8l0.3,0.1c0.1,0,0.3,0,0.4,0l2.1-0.8c0.1,0,0.4,0,0.4,0v0.2
		c0,0,0.3,0.7,0.4,0.7l1-0.4c0.1,0,0.3,0,0.4,0l0.1,0c0.1,0,0.4,0,0.4,0l0.5,0.1c0,0,0.1,0,0.1,0c0.3-2.5,0.7-5,1.1-7.7l-0.7-0.6
		c-0.1,0-0.3,0-0.3,0l-0.5,0.6c0,0-0.3,0.1-0.4,0l-0.1,0c-0.1,0-0.3,0-0.4,0l-1,0.4c-0.1,0-0.4,0-0.4,0v-0.2
		C118.5,250.2,118.2,250.2,118.1,250.3z"/>
	<path d="M124.4,230.5L124.4,230.5l-0.1,4.5l-0.6-0.1c-0.1,0-0.3,0-0.4,0l-0.6,0.5c0,0-0.2,0-0.3,0l-0.8-0.7c-0.1,0-0.3,0-0.3,0
		l-0.5,0.6c0,0-0.3,0.1-0.4,0l-0.1,0c-0.1,0-0.3,0-0.4,0l-1,0.4c-0.1,0-0.4,0-0.4,0v-0.1c-0.4,2.4-0.7,4.7-1.1,7l0.5-0.2
		c0.1,0,0.4,0,0.4,0v0.2c0,0,0.3,0.7,0.4,0.7l1-0.4c0.1,0,0.3,0,0.4,0l0.1,0c0.1,0,0.4,0,0.4,0l0.5,0.1c0,0,0.2,0,0.3,0l1.2,0.2
		c0.1,0,0.3,0,0.3,0l0.4-0.4c0.6-4.1,1.3-8.2,1.9-12.5L124.4,230.5L124.4,230.5z"/>
	<path d="M122.7,213.9c0.1,0,0.3,0,0.3,0l0.6-0.5c0,0,0.2,0,0.4,0l0.4,0.1l0,6.7h0.1l1.7-0.2c0.2,0,0.5,0,0.5,0.1l0.2,0.5
		c0,0,0,0,0,0c0.7-4.1,1.4-8.3,2.1-12.5l-2,0.8l-0.1,0l-0.3-0.7c0-0.1-0.3-0.1-0.5-0.1l-1.1,0.1l-0.1-2.4l0,0l0,0l-1.1-0.2
		c-0.1,0-0.2,0-0.3,0c-0.5,2.8-0.9,5.5-1.4,8.2L122.7,213.9z"/>
	<path d="M119.8,228.2c0.1,0,0.3,0,0.4,0l0.1,0c0.1,0,0.4,0,0.4,0l0.5,0.1c0,0,0.2,0,0.3,0l1.2,0.2c0.1,0,0.3,0,0.3,0l0.6-0.5
		c0,0,0.2,0,0.4,0l1.1,0.2h0.1l-0.2-7.7l0,0l0,0l-1.1-0.2c-0.1,0-0.3,0-0.4,0l-0.6,0.5c0,0-0.2,0-0.3,0l-0.8-0.7c-0.1,0-0.3,0-0.3,0
		l-0.3,0.4C120.5,223.2,120.1,225.7,119.8,228.2L119.8,228.2z"/>
	<path d="M137.5,130.8c0.2,0,0.5,0,0.5,0.1v0.4c0,0.1,0.5,0.1,0.6,0l0.3-0.1c0.1-0.1,0.5-0.1,0.6,0l1.9,1c0.1,0.1,0.5,0.1,0.6,0
		l0.7-0.4c0.8-4.3,1.6-8.4,2.3-12.3c-0.1,0-0.4,0-0.5,0l-0.6-0.2c-0.2,0-0.5,0-0.6,0l-1.5,1l-0.2,0l-2.2-1.1c-0.1,0-0.2,0.4-0.3,0.8
		c-0.7,3.5-1.4,7.1-2.1,10.9L137.5,130.8z"/>
	<path d="M621.5,179.2l-1.3,0.7c-0.1,0-0.5-0.9-0.7-0.9l-1.8-0.4c0.8,4.1,1.6,8.2,2.3,12.3c0.1,0,0.1,0,0.1,0l1.3-0.7
		c0.1-0.1,0.5-0.1,0.6,0c0.1,0.1,0.6,0,0.6,0l0.1,0c0-0.1,0.5-0.1,0.6,0l1.7,0.7c0.2,0.1,0.6,0,0.6,0l0.2-0.5c0-0.1,0.3-0.1,0.5-0.1
		l0,0c-0.7-3.9-1.5-7.8-2.2-11.7l-0.8-0.3c-0.2-0.1-0.6,0-0.6,0l-0.1,1.1c0,0.1-0.5,0.1-0.6,0C622,179.2,621.6,179.2,621.5,179.2z"
		/>
	<path d="M628.2,198.7c-0.2-1-0.4-2.1-0.6-3.1l-0.1,3.2h0.1L628.2,198.7z"/>
	<path d="M638.9,279.9l-1-0.7c-0.1,0-0.3,0-0.4,0l-0.4,0.1c-0.1,0-0.3,0-0.4,0l-2.1,0.2c0.3,2.7,0.6,5.1,0.8,7.4l1.3,0.5
		c0.1,0,0.3,0,0.4,0l0.4-0.1c0.1,0,0.3,0,0.4,0l0.8,0.6c0.1,0,0.3,0,0.4,0l1.3-0.6c0.1,0,0.3,0,0.4,0l0.2,0.1c0.1,0,0.4,0,0.4,0
		v-0.2v-0.1c0,0,0.2-0.1,0.3,0l0.3,0c-0.2-2.1-0.4-4.4-0.7-6.9l0,0l-0.6-0.2c-0.1,0-0.3-0.8-0.3-0.8L638.9,279.9L638.9,279.9z"/>
	<path d="M637.6,264.6l-0.4,0.1c-0.1,0-0.3,0-0.4,0l-2.2,0.2c-0.1,0-0.4,0-0.4,0v0.2c0,0-0.3,0.1-0.4,0l-0.9-0.4
		c0.4,2.8,0.8,5.4,1.1,7.9l0,0c0.1,0,0.4-0.6,0.4-0.7v-0.2c0,0,0.3-0.1,0.4,0l2.1,0.8c0.1,0,0.3,0,0.4,0l0.4-0.1c0.1,0,0.3,0,0.4,0
		l0.8,0.6c0.1,0,0.3,0,0.4,0l1.2-0.6c-0.3-2.4-0.6-4.9-1-7.4l-0.4,0.2l-0.1,0l-1-0.7C637.9,264.5,637.7,264.5,637.6,264.6z"/>
	<path d="M607.6,111.8l-3.1,0.3c0.7,3.6,1.5,7.4,2.3,11.4l0.8,0.3c0.1,0,0.4,0,0.6,0l0.6-0.2c0.2,0,0.5,0,0.6,0l1.3,0.8
		c0.1,0.1,0.5,0.1,0.6,0l1.9-1c0,0,0,0,0,0c-0.8-3.9-1.6-7.5-2.3-10.9l0,0l-1.5-1c-0.1-0.1-0.4-0.1-0.6,0l-0.6,0.2
		C608,111.9,607.7,111.9,607.6,111.8z"/>
	<path d="M634.1,250.3v0.2c0,0-0.3,0.1-0.4,0l-1-0.4c-0.1,0-0.3,0-0.4,0l-0.1,0c-0.1,0-0.4,0-0.4,0l-0.5-0.6c0,0-0.2,0-0.3,0
		l-0.5,0.4c0.4,2.7,0.8,5.3,1.2,7.8l0.3-0.1c0,0,0.3,0.1,0.4,0l0.1,0c0.1,0,0.3,0,0.4,0l1,0.4c0.1,0,0.4-0.6,0.4-0.7v-0.2
		c0,0,0.3-0.1,0.4,0l2.1,0.8c0.1,0,0.3,0,0.4,0l0.4-0.1c0.1,0,0.3,0,0.4,0l0.5,0.3c-0.4-2.7-0.8-5.4-1.3-8.2l0,0c-0.1,0-0.3,0-0.4,0
		l-2.2,0.2C634.4,250.2,634.1,250.2,634.1,250.3z"/>
	<path d="M615.1,156.8c-0.2,0-0.5,0-0.5,0.1v0.3v0.4l0,0l-0.8-0.4c-0.1,0-0.3-0.7-0.4-1c0.7,3.7,1.5,7.4,2.2,11.2l0.1,0.1
		c0,0.2,0.1,0.4,0.1,0.6l0.6,0.1l0.4,0.1l0.3-0.1c0-0.1,0.4-0.1,0.6,0l2,0.5c0.2,0,0.5,0,0.6,0l1.3-0.7c0.1-0.1,0.5-0.1,0.6,0
		c0,0,0.1,0,0.1,0c-0.7-3.6-1.4-7.2-2.1-10.7c-0.2-0.3-0.4-0.8-0.5-0.8l-2-0.5c-0.2-0.1-0.6,0-0.6,0l0.1,0.3c-0.1,0-0.1,0-0.1,0.1
		l0.3,0.7l0,0L615.1,156.8z"/>
	<path d="M626,200.4l-0.3,0.7l-0.1,0l-2.2-0.9c-0.2-0.1-0.6,0-0.6,0l-0.1,1.1c0,0.1-0.5,0.1-0.6,0c0,0,0,0,0,0c0.7,3.7,1.4,7.4,2,11
		l1.1,0.4c0.2,0.1,0.6,0,0.6,0l0.2-0.5c0,0,0.3-0.1,0.5-0.1l1,0.1l0,1.1h0.1l1.1-0.2c0.1,0,0.3,0,0.4,0l0.6,0.5c0,0,0.2,0,0.3,0
		l1-0.2c-0.5-2.6-1-5.3-1.5-7.9l-0.2-0.2c0,0-0.2,0-0.4,0l-0.6,0.1l0-5l-0.1,0l0,0l-1.7-0.2C626.3,200.4,626,200.4,626,200.4z"/>
	<path d="M611,134.9l-0.2,0l-1.5-1c-0.1,0-0.3-0.1-0.5,0c0.8,4.1,1.7,8.4,2.6,12.8l1.8-0.9c0.1-0.1,0.5-0.1,0.6,0l0.3,0.1
		c0.2,0.1,0.6,0,0.6,0v-0.4c0-0.1,0.3-0.1,0.5-0.1l1.1,0.2l0.4,0.1l0.3-0.1c0-0.1,0.4-0.1,0.6,0l0.1,0c-0.8-3.7-1.5-7.4-2.2-10.9
		l-0.4,0c-0.2,0-0.5,0-0.5,0.1v0.7l0,0l-0.8-0.4c-0.1-0.1-0.4-1.3-0.5-1.2L611,134.9z"/>
	<path d="M601.6,97.9c0.2,1.1,0.5,2.2,0.7,3.4l0.9,0.4c0.1,0.1,0.6-0.9,0.6-1v-0.3c0-0.1,0.5-0.1,0.6,0l3.1,1.2c0.1,0,0.4,0,0.6,0
		l0.3-0.1c-0.3-1.6-0.7-3.1-1-4.5C606.4,97.2,604.4,97.5,601.6,97.9z"/>
	<path d="M632.3,235.3l-0.1,0c-0.1,0-0.4,0-0.4,0l-0.5-0.6c0,0-0.2,0-0.3,0l-0.8,0.7c-0.1,0-0.3,0-0.3,0l-0.6-0.5c0,0-0.2,0-0.4,0
		L628,235c0.5,2.7,0.9,5.3,1.3,7.9l0.2,0.2c0,0,0.2,0,0.3,0l1.2-0.2c0.1,0,0.3,0,0.3,0l0.5-0.1c0,0,0.3,0.1,0.4,0l0.1,0
		c0.1,0,0.3,0,0.4,0l1,0.4c0.1,0,0.4-0.6,0.4-0.7v-0.2c0,0,0.3-0.1,0.4,0l1.4,0.5c-0.4-2.4-0.8-4.9-1.2-7.5l-0.3,0
		c-0.1,0-0.4,0-0.4,0v0.2c0,0-0.3,0.1-0.4,0l-1-0.4C632.6,235.3,632.4,235.3,632.3,235.3z"/>
	<path d="M629.8,220.8l-0.6-0.5c0,0-0.2,0-0.4,0l-1.1,0.2l0,0l0,0l-0.1,2.4l-1.1-0.1c-0.2,0-0.5,0-0.5,0.1l-0.1,0.1
		c0.7,4,1.4,8,2.1,11.9l0.2,0h0.1l0-6.7l0.4-0.1c0.1,0,0.3,0,0.4,0l0.6,0.5c0,0,0.2,0,0.3,0l1.2-0.2c0.1,0,0.3,0,0.3,0l0.5-0.1
		c0,0,0.3,0.1,0.4,0l0.1,0c0.1,0,0.3,0,0.4,0l0.7,0.3c-0.4-2.6-0.9-5.2-1.4-7.8c-0.1,0-0.4,0-0.4,0l-0.5-0.6c0,0-0.2,0-0.3,0
		l-0.8,0.7C630,220.8,629.9,220.8,629.8,220.8z"/>
	<path d="M395.3,243.2l0.2-0.1c0.1,0,0.3,0,0.4,0l1.3,0.6c0.1,0,0.3,0,0.4,0l0.8-0.6c0.1,0,0.3,0,0.4,0l0.4,0.1c0.1,0,0.3,0,0.4,0
		l2-0.8c0.3-2.2,0.7-4.4,1-6.7c-0.1,0-0.4,0-0.4,0v-0.2c0,0-0.3-0.1-0.4,0l-2.2-0.2c-0.1,0-0.3,0-0.4,0l-0.4-0.1c-0.1,0-0.3,0-0.4,0
		l-1,0.7l-0.1,0l-0.9-0.4C396.1,238.1,395.7,240.7,395.3,243.2C395.3,243.2,395.3,243.2,395.3,243.2z"/>
	<path d="M393.4,257.6l0.2,0.1l0.3-0.1l0.7-0.1c0.1,0,0.3,0,0.3,0v0.3c0,0,0.3,0.1,0.4,0l0.2-0.1c0.1,0,0.3,0,0.4,0l1.3,0.6
		c0.1,0,0.3,0,0.4,0l0.8-0.6c0.1,0,0.3,0,0.4,0l0.4,0.1c0,0,0.1,0,0.1,0c0.4-2.6,0.7-5.2,1.1-7.9l-0.9-0.1c-0.1,0-0.3,0-0.4,0
		l-0.4-0.1c-0.1,0-0.3,0-0.4,0l-1,0.7l-0.1,0l-1.4-0.7c-0.1,0-0.3,0.8-0.3,0.8l-0.6,0.2l0,0v-0.5c0,0-0.2-0.1-0.3,0l-0.4,0
		c-0.4,2.4-0.7,4.8-1,7.1C393.3,257.6,393.4,257.6,393.4,257.6z"/>
	<path d="M397.6,229.1l0.8-0.6c0.1,0,0.3,0,0.4,0l0.4,0.1c0.1,0,0.3,0,0.4,0l2.1-0.8c0.1,0,0.4,0,0.4,0v0.2c0,0,0.3,0.7,0.4,0.7
		l1-0.4c0.1,0,0.2,0,0.3,0c0.4-2.7,0.9-5.4,1.3-8.1c-0.1,0-0.1,0-0.1,0l-0.5,0.6c0,0-0.3,0.1-0.4,0l-0.1,0c-0.1,0-0.3,0-0.4,0
		l-1,0.4c-0.1,0-0.4,0-0.4,0V221c0,0-0.3-0.1-0.4,0l-2.2-0.2c-0.1,0-0.3,0-0.4,0l-0.3-0.1C398.4,223.5,397.9,226.3,397.6,229.1
		C397.5,229.1,397.5,229.1,397.6,229.1z"/>
	<path d="M410.7,186.5l-0.3-0.7c0,0-0.3-0.1-0.5-0.1l-1.7,0.2l0,0l-0.1,0l0,5l-0.6-0.1c-0.1,0-0.3,0-0.4,0l-0.6,0.5c0,0-0.2,0-0.3,0
		l-0.8-0.7c-0.1,0-0.3,0-0.3,0l-0.5,0.6c0,0-0.3,0.1-0.4,0l-0.1,0c0,0-0.1,0-0.2,0c-0.5,2.7-0.9,5.3-1.4,8c0,0,0,0,0,0l1-0.4
		c0.1,0,0.3,0,0.4,0l0.1,0c0.1,0,0.4,0,0.4,0l0.5,0.1c0,0,0.2,0,0.3,0l1.2,0.2c0.1,0,0.3,0,0.3,0l0.6-0.5c0,0,0.2,0,0.4,0l1,0.2
		c0-0.3,0.1-0.6,0.1-0.9l0-0.2l0,0c0.6-3.8,1.3-7.5,2-11.3L410.7,186.5L410.7,186.5z"/>
	<path d="M391.3,272.8c0.1,0,0.3,0,0.4,0l1.3-0.3c0.1,0,0.4,0,0.4,0l0.2,0.1l0.3-0.1l0.7-0.1c0.1,0,0.3,0,0.3,0v0.1v0.2
		c0,0,0.3,0.1,0.4,0l0.2-0.1c0.1,0,0.3,0,0.4,0l1.3,0.6c0,0,0.1,0,0.2,0c0.3-2.8,0.7-5.7,1.1-8.8c0,0,0,0,0,0l-1,0.7l-0.1,0
		l-1.4-0.7c-0.1,0-0.3,0.8-0.3,0.8l-0.6,0.2l0,0v-0.2v-0.2c0,0-0.2-0.1-0.3,0l-1.4,0.2l0,0l0.2-0.5c0,0,0,0-0.1,0l0.1-0.2
		c0,0-0.2-0.1-0.4,0l-0.8,0.2C391.9,267.5,391.5,270.2,391.3,272.8L391.3,272.8z"/>
	<path d="M393,279.3l-1.3,0.3c-0.1,0-0.4,0.7-0.4,0.6l-0.8-0.5c-0.3,2.6-0.5,5-0.6,7.2c0.1,0,0.2,0,0.2,0c0.1,0,0.3,0,0.4,0l0.8,0.5
		c0.1,0,0.3,0,0.4,0l1.3-0.3c0.1,0,0.4,0,0.4,0l0.2,0.1l0.3-0.1l0.7-0.1c0.1,0,0.3,0,0.3,0v0.3c0,0,0.3,0.1,0.4,0l0.2-0.1
		c0.1,0,0.3,0,0.4,0l0,0c0.2-2.3,0.4-4.9,0.7-7.6l-0.7-0.4c-0.1,0-0.3,0.8-0.3,0.8l-0.6,0.2l0,0V280c0,0-0.2-0.1-0.3,0l-1.4,0.2
		l-0.1,0l0.3-0.7C393.4,279.3,393.2,279.3,393,279.3z"/>
	<path d="M416.1,131.3c0.1,0,0.4,0.1,0.6,0l2-0.5c0.2-0.1,0.6,0,0.6,0l0.3,0.1l0.4-0.1l0.9-0.1c0.8-4,1.5-7.9,2.2-11.7l0,0
		c-0.1-0.1-0.4,1.2-0.5,1.2l-0.8,0.4l0,0V120c0-0.1-0.3-0.1-0.5-0.1l-2.2,0.2l-0.1,0l0.4-1.1c0-0.1-0.4-0.1-0.6,0l-1.7,0.4
		c-0.7,3.6-1.4,7.3-2.2,11.2L416.1,131.3z"/>
	<path d="M411.2,153.8l1.7-0.7c0.2-0.1,0.6,0,0.6,0l0.1,0c0,0.1,0.5,0.1,0.6,0c0.1-0.1,0.5-0.1,0.6,0l1.3,0.7c0.1,0,0.3,0.1,0.5,0
		c0.8-4.3,1.6-8.6,2.3-12.7c-0.1,0-0.1,0-0.2,0l-2,0.5c-0.2,0-0.6,1-0.7,0.9l-1.3-0.7c-0.1-0.1-0.5-0.1-0.6,0c-0.1,0.1-0.6,0-0.6,0
		l-0.1-1.1c0-0.1-0.3-0.1-0.5-0.1c-0.8,4.2-1.6,8.5-2.4,13C410.7,153.8,411.1,153.8,411.2,153.8z"/>
	<path d="M421.4,97.8c-0.6,3.2-1.4,6.8-2.2,10.8c0,0,0.1,0,0.1,0l0.3,0.1l0.4-0.1l1.1-0.2c0.2,0,0.5,0,0.5,0.1v0.4
		c0,0.1,0.5,0.1,0.6,0l0.3-0.1c0.1-0.1,0.5-0.1,0.6,0l1.8,0.9c0.8-4.1,1.6-7.9,2.3-11.4c-1.9-0.2-3.4-0.4-4.5-0.5
		c0,0.1-0.1,0.1-0.1,0.1l-0.8,0.4l0,0v-0.6C421.6,97.8,421.5,97.8,421.4,97.8z"/>
	<path d="M401.6,213.2c0.1,0,0.4,0,0.4,0v0.2c0,0,0.3,0.7,0.4,0.7l1-0.4c0.1,0,0.3,0,0.4,0l0.1,0c0.1,0,0.4,0,0.4,0l0.5,0.1
		c0,0,0.2,0,0.3,0l1,0.1c0.5-2.7,0.9-5.5,1.4-8.3l-0.1,0c-0.1,0-0.3,0-0.4,0l-0.6,0.5c0,0-0.2,0-0.3,0l-0.8-0.7c-0.1,0-0.3,0-0.3,0
		l-0.5,0.6c0,0-0.3,0.1-0.4,0l-0.1,0c-0.1,0-0.3,0-0.4,0l-1,0.4c-0.1,0-0.4,0-0.4,0v-0.2c0,0-0.3-0.1-0.4,0l-0.5-0.1
		c-0.4,2.5-0.9,5.1-1.3,7.6L401.6,213.2z"/>
	<path d="M405.2,184.4l1.2,0.2c0.1,0,0.3,0,0.3,0l0.6-0.5c0,0,0.2,0,0.4,0l1.1,0.2h0.1l-0.2-7.7l0,0l0,0l-1.1-0.2
		c-0.1,0-0.3,0-0.4,0l-0.6,0.5c0,0-0.1,0-0.1,0c-0.5,2.5-0.9,5-1.3,7.6C405.1,184.4,405.1,184.4,405.2,184.4z"/>
	<path d="M408,169.4l0,6.2h0.1l1.7-0.2c0.2,0,0.5,0,0.5,0.1l0.2,0.5c0,0.1,0.5,0.1,0.6,0l1.5-0.6c0.6-3.6,1.3-7.3,1.9-10.9
		c-0.2,0-0.4,0-0.5,0c-0.1,0.1-0.6,0-0.6,0l-0.1-1.1c0-0.1-0.5-0.1-0.6,0l-2.2,0.9l-0.1,0l-0.3-0.7c0,0-0.3-0.1-0.5-0.1l-1,0.1
		c-0.3,1.9-0.7,3.8-1,5.7L408,169.4z"/>
	<path d="M363.9,286.1l0,0.9l0,2.8c0.1,0,0.2-0.1,0.3-0.1C364.1,288.6,364,287.4,363.9,286.1L363.9,286.1L363.9,286.1z"/>
</g>
</svg>
