<?xml version="1.0" encoding="utf-8"?>
<!-- Generator: Adobe Illustrator 25.3.0, SVG Export Plug-In . SVG Version: 6.00 Build 0)  -->
<svg version="1.1" id="Layer_1" xmlns="http://www.w3.org/2000/svg" xmlns:xlink="http://www.w3.org/1999/xlink" x="0px" y="0px"
	 viewBox="0 0 750.2 400.1" style="enable-background:new 0 0 750.2 400.1;" xml:space="preserve">
<g>
	<path d="M127.4,208.9c-1.3-1.1-2.6-2.2-4-3.1c-0.2,1.2-0.4,2.4-0.6,3.6C124.4,209.2,125.9,209,127.4,208.9z"/>
	<path d="M123.9,202.9c0.7,0,1.3-0.3,1.9-0.8c0.3-0.3,0.7-0.7,1.3-0.5c0.6,0.2,0.6,0.8,0.7,1.2c0.2,1.4,0.7,2.3,1.7,2.8
		c0.6-3.4,1.2-6.8,1.7-10.2c-1.9-0.5-3.8-1.1-5.6-1.8C125,196.6,124.5,199.8,123.9,202.9z"/>
	<path d="M340.8,179.3c0.6-0.1,1.2-0.2,1.8-0.4c1-0.3,2-0.5,3-1c0.2-0.1,0.4-0.2,0.6-0.3c-1.1-5.4-2.1-10.8-3.1-16
		c-2-0.3-3.9-0.7-5.9-1.1C338.4,166.7,339.6,173,340.8,179.3z"/>
	<path d="M335.3,151c2.4,0.9,4.7,2.2,6.3,3.4c-2.1-10.4-4.1-20.3-6-29.2c-1.9-0.8-3.9-1.3-5.8-1.5C331.5,132,333.4,141.2,335.3,151z
		"/>
	<path d="M140.4,143.8c1.1-5.9,2.2-11.5,3.2-16.9c-1.2-0.4-2.2-1-3.3-1.6c-0.6-0.3-0.8-1-0.9-1.6c-0.1-0.7,0.1-1,0.9-0.7
		c1.3,0.4,2.6,0.6,3.9,0.8c1.1-5.6,2.1-10.8,3-15.6c-0.6-0.3-1.3-0.5-1.9-0.8c-1.1-0.5-2.3-0.8-3.5-1.1c-0.1,0.5-0.2,1-0.3,1.5
		c0.2,0.1,0.4,0.2,0.6,0.3c0.7,0.4,1.5,0.8,0.7,1.7c-0.5,0.5-1.1,0.9-1.8,0.8c-1.7,8.8-3.7,19.2-5.9,30.7c1,0.4,2,0.7,3,1.1
		C138.9,142.9,139.7,143.3,140.4,143.8z"/>
	<path d="M350.3,231c1.8-0.2,3.4-1.1,4.8-2.6c0.2-0.2,0.3-0.3,0.5-0.5c-2.2-12.8-4.7-26.2-7.3-39.6c-1.7,0.1-3.3,0.6-5.4,1.7
		C345.5,203.9,348,217.8,350.3,231z"/>
	<path d="M327.4,111.5c1,0.4,2.1,0.7,3.2,0.8c0.9,0,1.8,0.2,2.5,0.7c-0.3-1.5-0.6-3-1-4.5c-1.9-0.1-3.7-0.4-5.6-0.8
		c0.1,0.6,0.3,1.3,0.4,1.9C327.1,110.2,327.3,110.9,327.4,111.5z"/>
	<path d="M117.5,291.3c0.1-1.6,0.2-3.4,0.4-5.2c-0.4,0-0.7,0.1-1.1,0.1c-1.6,0.1-3.3,0.3-4.9,0.4c-0.1,1.1-0.2,2.3-0.2,3.3
		C113.7,290.4,115.6,290.9,117.5,291.3z"/>
	<path d="M113.2,273.7c-0.1,0.5-0.1,1-0.2,1.5c0.5-0.2,1-0.5,1.5-0.8C114.1,274.1,113.7,273.9,113.2,273.7z"/>
	<path d="M122.4,249.9c-1.4-0.8-3.1-1.3-4.8-1.7c-0.3-0.1-0.6-0.1-0.9-0.2c-1.1,7.7-2.1,14.9-2.9,21.5c1.9,1,3.8,1.6,5.8,1.8
		C120.3,264.7,121.3,257.5,122.4,249.9z"/>
	<path d="M363.1,278c-0.8-6.8-1.9-14.8-3.2-23.5c-0.1,0-0.2-0.1-0.3-0.1c-1.9-0.4-3.8-0.8-5.7-1.3c1.4,9.1,2.6,17.5,3.5,24.7
		C359.3,278.8,361.2,278.7,363.1,278z"/>
	<path d="M358.2,285c0.2,2.2,0.4,4.2,0.5,6c1.8-0.4,3.7-0.9,5.5-1.3c-0.1-1.3-0.2-2.8-0.3-4.3c-0.2,0-0.4,0-0.6-0.1
		C361.6,285.2,359.9,285.1,358.2,285z"/>
	<path d="M356.9,235.8c-1.3-0.7-2.5-1.4-3.7-2.1c-0.9-0.5-1.7-1.1-2.7-1.4c0.4,2.3,0.8,4.5,1.1,6.8c1,0.8,2,1.7,3,2.6
		c0.5,0.5,1.1,0.8,1.9,1c0.8,0.2,1.6,0.6,1.1,1.4c-0.5,0.7-1.2,0-1.7-0.3c-1-0.4-1.8-1.5-3.1-1.2c-0.2,0-0.3,0.1-0.5,0.1
		c0.3,1.5,0.5,3,0.7,4.5c2.2,0.6,4.2,1.4,6.2,2.5C358.5,245.2,357.7,240.6,356.9,235.8z"/>
	<path d="M122.9,246.4c0.9-5.8,1.8-11.8,2.8-18c-0.9,0.6-1,1.6-0.9,3.6c0.1,1.2-0.1,2.6-1.6,2.8c-1.5,0.3-3.1,0.7-4.7,1
		c-0.3,1.9-0.6,3.9-0.9,5.8C119.1,243.5,120.9,245.1,122.9,246.4z"/>
	<path d="M148,103.9c-0.6-0.3-1.2-0.7-1.7-1.3c-1.1-0.2-2.2-0.4-3.3-0.4c-0.1,0-0.3,0-0.4,0c-0.1,0.6-0.2,1.1-0.3,1.7
		c1.8,0.7,3.6,1.4,5.3,2.1C147.8,105.2,147.9,104.6,148,103.9z"/>
	<path d="M622.7,204.7c0.4,2.3,0.8,4.6,1.3,6.9c0.3,0.1,0.7,0.3,1,0.5c0.4,0.2,1.3,0.4,0.9,1c-0.3,0.5-1.1,0.3-1.5,0.1c0,0,0,0,0,0
		c0.9,5,1.8,9.8,2.6,14.7c1.2,1.1,2.2,2.2,3.1,3.6c0.3,0.5,0.7,0.8,1.2,0.9c1.1,0.4,2.2,0.7,3.4,1.1c-1.6-9.1-3.3-18.6-5-28.2
		C627.2,204.8,624.9,204.7,622.7,204.7z"/>
	<path d="M402.7,235.2c-1.6-0.4-3.3-0.3-5.1,0.2c-0.4,0.1-0.8,0.2-1.2,0.3c-0.9,5.7-1.7,11.2-2.5,16.5c2,0.2,4.1,0.6,6.1,1
		C400.8,247.4,401.7,241.4,402.7,235.2z"/>
	<path d="M396.7,258.1c-0.5-0.7-1-1.5-1.9-2c-0.4-0.3-0.9-0.5-1.3-0.6c-1.5,10.9-2.7,20.6-3.4,28.4c0.2,0,0.5,0,0.7,0
		c1.9,0,3.6,0.4,5.3,1.1c0.6-6.9,1.6-15.3,2.9-24.7C398,259.5,397.2,258.8,396.7,258.1z"/>
	<path d="M404.5,187.4c-2.2,12.3-4.3,24.6-6.2,36.5c0.4-0.2,0.8-0.5,1.3-0.7c1.9-1.1,3.7-2.3,5.5-3.4c0,0,0,0,0.1,0
		c1.6-9.6,3.2-19.6,5-29.5C408.3,189.2,406.5,188.2,404.5,187.4z"/>
	<path d="M640.3,290.2c0.6-0.1,1.2-0.3,1.9-0.4c-0.1-1-0.1-2.1-0.2-3.3C641.6,287.9,641.1,289.2,640.3,290.2z"/>
	<path d="M607.4,102.8c-0.6-0.2-1.1-0.1-1.5,0.3c-0.4,0.5-0.1,0.9,0.2,1.4c0.9,1.2,2.2,1.8,3.5,2.4c-0.3-1.4-0.6-2.7-0.9-4
		C608.4,103.2,607.9,102.9,607.4,102.8z"/>
	<path d="M606.2,120.6c1.5,1,3.1,2,5.1,2.4c0.5,0.1,1.3,0.3,1,0.9c-0.2,0.6-0.8,1.2-1.7,1.1c-0.8-0.1-1.4-0.3-2.1-0.7
		c-0.4-0.2-0.8-0.7-1.3-0.7c-0.2,0-0.3,0-0.5,0c0.2,1.2,0.5,2.5,0.8,3.8c2,0.9,4.1,1.6,6.6,1.8c0.1,0,0.1,0,0.2,0
		c-1.4-6.7-2.7-12.8-3.9-18.3c-2.6-0.6-5-1.8-6.7-4.2c-0.2-0.2-0.3-0.4-0.5-0.6c0.2,1.1,0.5,2.3,0.7,3.5
		C604.7,113,605.4,116.7,606.2,120.6z"/>
	<path d="M621.8,166c-1.5-7.8-3.1-15.4-4.6-22.6c-1,0.2-1.9,0.4-2.9,0.7c-1.1,0.4-2.2,0.7-3.3,0.9c1,5.1,2.1,10.4,3.1,15.8
		c0.3,0.2,0.5,0.4,0.7,0.7C616.3,164.2,618.9,165.2,621.8,166z"/>
	<path d="M420.2,103.9c1.8,0.3,3.2,0.1,4.2-1.5c0.6-0.9,1.4-1.3,2.3-1.2c0.2-0.9,0.4-1.9,0.6-2.7c-2.8-0.3-4.7-0.5-5.8-0.7
		C421,99.7,420.6,101.7,420.2,103.9z"/>
	<path d="M413.3,144.4c-0.4-0.2-0.8-0.4-0.9-0.7c-1.4,7.4-2.8,15.2-4.3,23.2c1.9,0.4,3.9,0.8,5.9,1.1c1.4-7.8,2.8-15.4,4.1-22.7
		c-1-0.2-1.9-0.3-2.9-0.4C414.6,144.9,414,144.7,413.3,144.4z"/>
	<path d="M420.9,128.8c0.1,0,0.3,0.1,0.4,0.1c0.7-3.5,1.3-7,2-10.2c-1.9-0.4-3.8-0.8-5.8-1c-0.6,3-1.2,6.2-1.8,9.5
		C417.4,127.8,419.1,128.3,420.9,128.8z"/>
	<path d="M412.6,143.1c0.3-0.5,0.9-0.7,1.5-0.5c1.4,0.5,2.9,0.9,4.3,1.4c0.3-1.6,0.6-3.2,0.9-4.7c-1.7-1.4-3.4-2.8-5.3-4
		C413.6,137.9,413.1,140.5,412.6,143.1z"/>
	<path d="M634.9,249.4c-1.5-0.9-3-1.3-4.7-1.6c0.2,1.3,0.4,2.6,0.6,3.9c0,0,0,0,0.1,0c0,0,0,0-0.1,0c0.8,4.8,1.4,9.3,2.1,13.6
		c0.8,0.5,1.9,0.3,3.2-0.7c1.3-1.1,2.6-1,3.4,0c-0.6-4.5-1.4-9.3-2.2-14.3C636.4,250.1,635.6,249.8,634.9,249.4z"/>
	<path d="M627.9,199.6c-1.3,0.9-1.1,2.3,0.4,2.6c0.2,0,0.4,0.1,0.6,0.2c-0.2-1-0.4-2-0.6-3.1C628.2,199.5,628,199.5,627.9,199.6z"/>
	<path d="M623.8,189.2c1,0.5,1.9,1.1,2.9,1.6c-0.3-1.3-0.5-2.6-0.8-3.9c-0.5,0-1,0-1.5,0.1c-0.6,0.1-1.5,0.2-1.7,0.8
		C622.5,188.5,623.2,188.9,623.8,189.2z"/>
	<path d="M623,182.7c0,1,0.9,1.4,1.8,1.7c0.2,0.1,0.5,0.1,0.7,0.2c-0.2-1.3-0.5-2.6-0.7-3.8c0,0-0.1,0-0.1,0
		C623.6,181.1,623,181.8,623,182.7z"/>
	<path d="M623.4,173.7c-0.1-0.2-0.3-0.4-0.4-0.6c-2-2.7-4.6-4.8-7.5-6.3c0,0.2,0.1,0.4,0.1,0.6l0.1,0.1c0.8,3.9,1.5,7.9,2.3,11.9
		c2.1-0.5,4.2-1.1,6.4-1C624,176.8,623.7,175.3,623.4,173.7z"/>
</g>
</svg>
