<?xml version="1.0" encoding="utf-8"?>
<!-- Generator: Adobe Illustrator 25.3.0, SVG Export Plug-In . SVG Version: 6.00 Build 0)  -->
<svg version="1.1" id="Layer_1" xmlns="http://www.w3.org/2000/svg" xmlns:xlink="http://www.w3.org/1999/xlink" x="0px" y="0px"
	 viewBox="0 0 750.2 400.1" style="enable-background:new 0 0 750.2 400.1;" xml:space="preserve">
<g>
	<path d="M343.2,162c-0.4-2.1-0.8-4.1-1.2-6.2c-2.3-1.8-4.5-3.6-6.8-5.5c0.4,2,0.8,4.1,1.2,6.1C338.7,158.3,340.9,160.2,343.2,162z"
		/>
	<path d="M401.5,204.6c-0.3,1.5-0.5,3-0.8,4.5c1.8,1.5,3.6,2.9,5.4,4.4c0.3-1.5,0.5-3,0.8-4.6C405.1,207.5,403.3,206,401.5,204.6z"
		/>
	<path d="M399.5,216.4c-0.3,1.5-0.5,3-0.8,4.6c1.8,1.5,3.6,3,5.5,4.4c0.2-1.5,0.5-3,0.7-4.6C403.2,219.4,401.4,217.9,399.5,216.4z"
		/>
	<path d="M346.3,178.1c-0.4-2.1-0.8-4.1-1.2-6.1c-2.3-1.8-4.5-3.7-6.8-5.5c0.4,2,0.8,4.1,1.2,6.1
		C341.8,174.4,344.1,176.2,346.3,178.1z"/>
	<path d="M397.6,228.4c-0.2,1.5-0.5,3.1-0.7,4.6c1.8,1.5,3.7,3,5.5,4.5c0.2-1.5,0.5-3,0.7-4.6C401.2,231.3,399.4,229.9,397.6,228.4z
		"/>
	<path d="M349.4,194.1c-0.4-2-0.8-4.1-1.2-6.1c-2.3-1.8-4.5-3.7-6.8-5.5c0.4,2,0.8,4.1,1.2,6.1C344.9,190.4,347.1,192.2,349.4,194.1
		z"/>
	<path d="M395.7,240.4c-0.2,1.5-0.5,3.1-0.7,4.6c1.8,1.5,3.7,3,5.5,4.5c0.2-1.5,0.4-3.1,0.7-4.6
		C399.4,243.4,397.5,241.9,395.7,240.4z"/>
	<path d="M352.4,210c-0.4-2-0.7-4-1.1-6.1c-2.3-1.8-4.5-3.7-6.8-5.5c0.4,2,0.8,4.1,1.1,6.1C347.8,206.3,350.1,208.2,352.4,210z"/>
	<path d="M147.2,108c0.4-1.9,0.7-3.7,1.1-5.4c-1.9-0.2-3.8-0.4-5.6-0.5c-0.3,1.7-0.7,3.6-1.1,5.5C143.4,107.6,145.3,107.8,147.2,108
		z"/>
	<path d="M393.9,252.4c-0.2,1.6-0.4,3.1-0.7,4.6c1.9,1.5,3.7,3,5.6,4.6c0.2-1.5,0.4-3.1,0.6-4.6
		C397.6,255.4,395.8,253.9,393.9,252.4z"/>
	<path d="M355.2,225.8c-0.3-2-0.7-4-1.1-6c-2.3-1.8-4.5-3.7-6.8-5.5c0.4,2,0.7,4,1.1,6C350.7,222.2,352.9,224,355.2,225.8z"/>
	<path d="M392.2,264.5c-0.2,1.6-0.4,3.2-0.6,4.7c1.9,1.5,3.8,3.1,5.6,4.6c0.2-1.5,0.4-3.1,0.6-4.7
		C396,267.6,394.1,266.1,392.2,264.5z"/>
	<path d="M356.9,235.5c-2.2-1.8-4.5-3.7-6.7-5.5c0.3,2,0.7,4,1,6c2.2,1.8,4.5,3.6,6.7,5.5C357.5,239.6,357.2,237.6,356.9,235.5z"/>
	<path d="M144.4,122.3c0.4-1.9,0.7-3.7,1.1-5.5c-1.9-0.1-3.8-0.3-5.7-0.3c-0.4,1.8-0.7,3.7-1.1,5.6
		C140.6,122.1,142.5,122.2,144.4,122.3z"/>
	<path d="M390.8,276.8c-0.2,1.6-0.3,3.2-0.5,4.8c1.9,1.6,3.8,3.1,5.7,4.7c0.1-1.5,0.3-3.1,0.5-4.8
		C394.5,279.9,392.6,278.4,390.8,276.8z"/>
	<path d="M360.3,257c-0.3-1.9-0.6-3.9-0.9-5.9c-2.2-1.8-4.4-3.6-6.6-5.4c0.3,2,0.6,4,1,5.9C355.9,253.4,358.1,255.2,360.3,257z"/>
	<path d="M141.7,136.8c0.4-1.9,0.7-3.7,1-5.5c-1.9-0.1-3.8-0.1-5.8-0.1c-0.4,1.8-0.7,3.7-1.1,5.6
		C137.8,136.7,139.8,136.7,141.7,136.8z"/>
	<path d="M139,151.3c0.3-1.9,0.7-3.7,1-5.6c-1.9,0-3.9,0-5.8,0c-0.3,1.9-0.7,3.8-1.1,5.7C135.1,151.4,137,151.3,139,151.3z"/>
	<path d="M389.6,289.4c0,0.2,0,0.3,0,0.5c0.3,0.1,0.6,0.1,0.9,0.2C390.2,289.9,389.9,289.6,389.6,289.4z"/>
	<path d="M355.2,261.2c0.3,2,0.6,3.9,0.8,5.8c2.1,1.7,4.3,3.5,6.4,5.2c-0.2-1.9-0.5-3.8-0.8-5.8C359.5,264.7,357.3,263,355.2,261.2z
		"/>
	<path d="M136.3,166.1c0.3-1.9,0.7-3.8,1-5.6c-2,0-3.9,0.1-5.9,0.2c-0.3,1.9-0.7,3.8-1,5.7C132.4,166.2,134.3,166.1,136.3,166.1z"/>
	<path d="M357.3,276.4c0.2,2,0.5,3.9,0.7,5.7c2,1.7,4.1,3.3,6.1,5c-0.1-1.7-0.3-3.6-0.5-5.6C361.4,279.8,359.3,278.1,357.3,276.4z"
		/>
	<path d="M133.7,180.9c0.3-1.9,0.7-3.8,1-5.7c-2,0.1-4,0.2-6,0.4c-0.3,1.9-0.7,3.8-1,5.8C129.7,181.2,131.7,181.1,133.7,180.9z"/>
	<path d="M131,195.9c0.3-1.9,0.7-3.8,1-5.7c-2,0.2-4,0.4-6,0.7c-0.3,1.9-0.7,3.9-1,5.8C127,196.4,129,196.1,131,195.9z"/>
	<path d="M128.5,211c0.3-1.9,0.6-3.9,1-5.8c-2,0.2-4.1,0.5-6.1,0.9c-0.3,2-0.7,3.9-1,5.9C124.4,211.6,126.4,211.3,128.5,211z"/>
	<path d="M126,226.3c0.3-1.9,0.6-3.9,0.9-5.8c-2.1,0.3-4.1,0.7-6.2,1.1c-0.3,2-0.6,4-1,5.9C121.9,227,123.9,226.6,126,226.3z"/>
	<path d="M123.6,241.6c0.3-1.9,0.6-3.9,0.9-5.9c-2.1,0.4-4.1,0.8-6.2,1.3c-0.3,2-0.6,4-0.9,6C119.5,242.5,121.5,242.1,123.6,241.6z"
		/>
	<path d="M121.3,257.1c0.3-1.9,0.6-3.9,0.8-5.9c-2.1,0.5-4.2,1-6.2,1.6c-0.3,2-0.6,4-0.8,6C117.2,258.1,119.3,257.6,121.3,257.1z"/>
	<path d="M119.3,272.6c0.2-1.9,0.5-3.9,0.7-5.9c-2.1,0.5-4.2,1.1-6.2,1.8c-0.3,2.1-0.5,4.1-0.7,6
		C115.2,273.8,117.2,273.2,119.3,272.6z"/>
	<path d="M118.3,282.2c-2,0.6-4.1,1.2-6.1,1.9c-0.2,2.1-0.3,4-0.4,5.8c0.1,0,0.2,0.1,0.3,0.1c1.9-0.7,3.8-1.3,5.7-1.8
		C117.9,286.3,118,284.3,118.3,282.2z"/>
	<path d="M601.6,97.9c0.2,0.9,0.4,1.8,0.6,2.8c2-0.1,4-0.3,6-0.6c-0.2-1.1-0.5-2.1-0.7-3.1C606.4,97.2,604.4,97.5,601.6,97.9z"/>
	<path d="M604,109.7c0.4,1.8,0.7,3.6,1.1,5.6c2.1-0.2,4.1-0.4,6.1-0.7c-0.4-1.9-0.8-3.8-1.2-5.5C608.1,109.3,606.1,109.5,604,109.7z
		"/>
	<path d="M606.9,124.2c0.4,1.8,0.7,3.7,1.1,5.6c2.1-0.2,4.2-0.5,6.3-0.8c-0.4-1.9-0.8-3.7-1.2-5.5C611.1,123.8,609,124,606.9,124.2z
		"/>
	<path d="M609.8,138.7c0.4,1.8,0.7,3.7,1.1,5.5c2.1-0.2,4.2-0.5,6.3-0.9c-0.4-1.9-0.8-3.7-1.1-5.5
		C614.1,138.2,612,138.5,609.8,138.7z"/>
	<path d="M612.7,153.2c0.4,1.8,0.7,3.7,1.1,5.5c2.1-0.3,4.3-0.6,6.4-1c-0.4-1.9-0.7-3.7-1.1-5.5C617,152.7,614.9,153,612.7,153.2z"
		/>
	<path d="M615.6,167.7c0.4,1.8,0.7,3.7,1.1,5.5c2.1-0.3,4.2-0.6,6.4-1.1c-0.4-1.8-0.7-3.7-1.1-5.5
		C619.9,167.1,617.8,167.4,615.6,167.7z"/>
	<path d="M618.4,182.2c0.4,1.8,0.7,3.7,1.1,5.5c2.1-0.3,4.3-0.7,6.4-1.1c-0.4-1.8-0.7-3.7-1.1-5.5
		C622.7,181.5,620.6,181.9,618.4,182.2z"/>
	<path d="M425.6,106.3c0.3-1.6,0.6-3.1,0.9-4.5c-1.7-1.3-3.4-2.6-5.1-4c-0.3,1.4-0.6,2.9-0.9,4.5C422.2,103.7,423.9,105,425.6,106.3
		z"/>
	<path d="M423.3,118.2c0.3-1.5,0.6-3,0.9-4.5c-1.7-1.3-3.4-2.7-5.2-4c-0.3,1.5-0.6,2.9-0.9,4.5C419.9,115.5,421.6,116.8,423.3,118.2
		z"/>
	<path d="M621.2,196.7c0.3,1.8,0.7,3.7,1,5.5c2.1-0.3,4.3-0.8,6.4-1.2c-0.3-1.8-0.7-3.7-1-5.5C625.4,195.9,623.3,196.3,621.2,196.7z
		"/>
	<path d="M623.8,211.1c0.3,1.8,0.7,3.7,1,5.5c2.1-0.4,4.3-0.8,6.4-1.3c-0.3-1.8-0.7-3.7-1-5.5C628.1,210.4,626,210.8,623.8,211.1z"
		/>
	<path d="M421.1,130c0.3-1.5,0.6-3,0.9-4.5c-1.7-1.3-3.5-2.7-5.2-4.1c-0.3,1.5-0.6,3-0.9,4.5C417.6,127.3,419.3,128.6,421.1,130z"/>
	<path d="M626.4,225.6c0.3,1.9,0.6,3.7,1,5.5c2.1-0.4,4.3-0.8,6.4-1.4c-0.3-1.8-0.6-3.7-1-5.5C630.7,224.8,628.6,225.2,626.4,225.6z
		"/>
	<path d="M418.9,141.8c0.3-1.5,0.6-3,0.8-4.5c-1.7-1.4-3.5-2.7-5.2-4.1c-0.3,1.5-0.6,3-0.9,4.5C415.4,139.1,417.1,140.4,418.9,141.8
		z"/>
	<path d="M628.9,240.1c0.3,1.9,0.6,3.7,0.9,5.5c2.1-0.4,4.3-0.9,6.4-1.4c-0.3-1.8-0.6-3.7-0.9-5.5
		C633.2,239.2,631,239.7,628.9,240.1z"/>
	<path d="M416.7,153.6c0.3-1.5,0.6-3,0.8-4.5c-1.8-1.4-3.5-2.8-5.3-4.1c-0.3,1.5-0.6,3-0.8,4.5C413.2,150.9,414.9,152.3,416.7,153.6
		z"/>
	<path d="M631.2,254.6c0.3,1.9,0.6,3.7,0.8,5.5c2.1-0.4,4.3-0.9,6.4-1.5c-0.3-1.8-0.6-3.6-0.8-5.5
		C635.5,253.7,633.4,254.2,631.2,254.6z"/>
	<path d="M414.5,165.5c0.3-1.5,0.5-3,0.8-4.5c-1.8-1.4-3.5-2.8-5.3-4.2c-0.3,1.5-0.6,3-0.8,4.5C411,162.7,412.8,164.1,414.5,165.5z"
		/>
	<path d="M333.1,112.7c-0.5-2.2-0.9-4.3-1.3-6.2c-2.1-1.7-4.3-3.4-6.4-5.2c0.4,1.9,0.8,4,1.3,6.2C328.7,109.3,330.9,111,333.1,112.7
		z"/>
	<path d="M412.4,177.3c0.3-1.5,0.5-3,0.8-4.5c-1.8-1.4-3.5-2.8-5.3-4.2c-0.3,1.5-0.5,3-0.8,4.5C408.8,174.5,410.6,175.9,412.4,177.3
		z"/>
	<path d="M633.4,269.1c0.3,1.9,0.5,3.8,0.7,5.6c2.1-0.4,4.3-0.9,6.4-1.5c-0.2-1.8-0.5-3.6-0.7-5.6
		C637.7,268.2,635.5,268.7,633.4,269.1z"/>
	<path d="M405.8,180.4c-0.3,1.5-0.5,3-0.8,4.5c1.8,1.4,3.6,2.9,5.4,4.3c0.3-1.5,0.5-3,0.8-4.5C409.3,183.3,407.5,181.8,405.8,180.4z
		"/>
	<path d="M635.1,283.7c0.2,2,0.4,3.9,0.5,5.6c2.1-0.4,4.3-0.9,6.4-1.5c-0.1-1.7-0.3-3.6-0.5-5.6
		C639.4,282.8,637.3,283.3,635.1,283.7z"/>
	<path d="M336.5,129c-0.4-2.1-0.9-4.2-1.3-6.2c-2.2-1.8-4.4-3.5-6.6-5.3c0.4,2,0.8,4.1,1.2,6.2C332.1,125.5,334.3,127.2,336.5,129z"
		/>
	<path d="M403.7,192.2c-0.3,1.5-0.5,3-0.8,4.5c1.8,1.5,3.6,2.9,5.4,4.3c0.3-1.5,0.5-3,0.8-4.5C407.3,195.1,405.5,193.7,403.7,192.2z
		"/>
	<path d="M339.8,145.2c-0.4-2.1-0.8-4.2-1.3-6.2c-2.2-1.8-4.5-3.6-6.7-5.4c0.4,2,0.8,4.1,1.2,6.2
		C335.3,141.6,337.6,143.4,339.8,145.2z"/>
</g>
</svg>
