<?xml version="1.0" encoding="utf-8"?>
<!-- Generator: Adobe Illustrator 25.3.0, SVG Export Plug-In . SVG Version: 6.00 Build 0)  -->
<svg version="1.1" id="Layer_1" xmlns="http://www.w3.org/2000/svg" xmlns:xlink="http://www.w3.org/1999/xlink" x="0px" y="0px"
	 viewBox="0 0 750.2 400.1" style="enable-background:new 0 0 750.2 400.1;" xml:space="preserve">
<g>
	<path d="M299.9,359.4v-22.7l-0.2-64.8v-25.5c-2.5-6.4-4.5-12.6-6.1-18.7v135.1c4-0.7,6.3-1.2,6.3-1.2V359.4z"/>
	<path d="M110.9,226.9c-1.7,6.5-3.9,13.1-6.5,19.9l0,92.5l0,17.5v2.4v2.5c0,0,0.1,0,0.2,0c0.7,0.2,3,0.6,6.3,1.3v-0.1V226.9z"/>
	<path d="M453.5,225.4c-1.6,6-3.5,12.2-5.8,18.5l0,99l0,18.4c0,0,0,0,0.1,0.1c0-4.5,0.1-8.2,0.1-8.2v8.3c0.1,0.1,0.2,0.1,0.2,0.1
		c0.1,0.1,0.2,0.2,0.4,0.2c0,0,1.8,0.9,5,2.4V225.4z"/>
	<path d="M453.5,128.6c0,0.8-0.1,1.6-0.2,2.4h0.1l0.1,0.3L453.5,128.6L453.5,128.6z"/>
	<path d="M643.1,243.4c-2.2-6.1-4.1-12.1-5.6-17.9v137.4v1.1c3.7-1.6,5.7-2.5,5.7-2.5v-3.3l0.1-85.9l0-0.4h-0.2V243.4z"/>
	<path d="M637.5,131L637.5,131l0.3,0h0.2c0-0.3,0-0.6-0.1-0.8c0-0.5-0.1-0.9-0.1-1.4l-0.4-0.1V131z"/>
	<path d="M299.8,244.3l0.1-94.9c-0.5-0.3-1.9-1.3-3.2-4c-1.3-2.6-2.6-6.7-3.3-13.3C291.4,138.6,278,186.2,299.8,244.3z"/>
	<path d="M110.8,131.9c-0.7,6.8-2,11-3.3,13.6c-0.2,0.3-0.3,0.6-0.5,0.9s-0.3,0.5-0.5,0.8c-0.6,0.9-1.2,1.5-1.7,1.9
		c-0.1,0.1-0.2,0.2-0.3,0.2s-0.2,0.1-0.3,0.2v95.1C126.7,185.7,112.5,137.4,110.8,131.9z"/>
	<path d="M643.1,241.1l0.1-92.2c-1.7-2-4.1-6.7-5.1-17.2H638C636.6,136,622.4,183,643.1,241.1z"/>
	<path d="M453.2,132.4c-1.1,11.1-3.9,15.6-5.6,17.2v92.1C467.9,185.6,455.4,139.8,453.2,132.4z"/>
	<path d="M452.1,131.9l-54.4,12.4l3,13.5l46.5-9.1C448.7,146.9,451.1,142.5,452.1,131.9z"/>
	<path d="M103.8,148.7l0.2-0.1c0.1-0.1,0.4-0.2,0.6-0.5c0.5-0.5,1.3-1.4,2.1-3.1c1.2-2.4,2.5-6.5,3.2-13.1l-56.7,13.5l2.9,13
		L103.8,148.7z"/>
	<path d="M297.5,144.8c0.8,1.6,1.6,2.5,2.1,3.1c0.2,0.2,0.3,0.2,0.4,0.3c0.1,0.1,0.2,0.1,0.2,0.2l0.2,0.1l49,10l2.8-12.9l0,0
		l-57.9-13.7C295,138.3,296.3,142.3,297.5,144.8z"/>
	<path d="M644.1,148.5l49.8,9.2l2.7-12.3L639.2,132C640.2,142.3,642.6,146.7,644.1,148.5z"/>
</g>
</svg>
