<?xml version="1.0" encoding="utf-8"?>
<!-- Generator: Adobe Illustrator 25.3.0, SVG Export Plug-In . SVG Version: 6.00 Build 0)  -->
<svg version="1.1" id="Layer_1" xmlns="http://www.w3.org/2000/svg" xmlns:xlink="http://www.w3.org/1999/xlink" x="0px" y="0px"
	 viewBox="0 0 750.2 400.1" style="enable-background:new 0 0 750.2 400.1;" xml:space="preserve">
<style type="text/css">
	.st0{fill:none;}
</style>
<g>
	<polygon class="st0" points="496,173.7 484.1,163.9 466.8,168.9 478.8,178.7 	"/>
	<polygon class="st0" points="215.2,215.7 234,220.6 246.3,209.7 233.5,206.4 227.5,204.8 	"/>
	<polygon class="st0" points="169.3,224.5 188,229.4 200.3,218.5 197.8,217.8 181.5,213.6 	"/>
	<polygon class="st0" points="553.4,183.2 565.4,193 572.5,190.9 582.6,188 571.7,179 570.7,178.2 	"/>
	<path class="st0" d="M492.6,67.5C492.6,67.5,492.7,67.4,492.6,67.5l-3.1-2l-12.7,5.3l11.1,6.8l12.7-5.3L492.6,67.5z"/>
	<polygon class="st0" points="135.4,222.4 123.3,233.2 142,238.2 145.9,234.7 154.2,227.3 	"/>
	<polygon class="st0" points="539.3,180.8 527.4,171 510.2,176 522.1,185.8 	"/>
	<path class="st0" d="M624.7,111.2l-14.2,5.2l0.1,0l11.3,7.7l8.4-3.1c0,0,0,0,0,0.1l5.8-2.1L624.7,111.2z"/>
	<polygon class="st0" points="511.9,73 518.9,77.2 523,79.7 526.8,78.1 535.6,74.5 524.6,67.7 	"/>
	<path class="st0" d="M468.1,97.8C468.1,97.8,468.1,97.8,468.1,97.8C468.1,97.8,468.1,97.8,468.1,97.8l-9.1,3.3l11.4,7.8l14.2-5.2
		l-11.3-7.8L468.1,97.8z"/>
	<polygon class="st0" points="551.3,73.3 547.1,75.1 558.2,81.9 570.8,76.6 559.8,69.8 	"/>
	<polygon class="st0" points="582.3,77.2 593.3,84 603.9,79.6 606,78.7 594.9,71.9 	"/>
	<polygon class="st0" points="579.9,143.7 580,143.7 579.9,143.7 579.9,143.7 	"/>
	<polygon class="st0" points="618.4,148.5 618.4,148.5 618.4,148.5 618.4,148.5 	"/>
	<polygon class="st0" points="577.8,143.1 577.8,143.1 577.8,143.1 577.8,143.1 	"/>
	<polygon class="st0" points="572.6,112.6 584,120.4 598.1,115.2 586.8,107.4 	"/>
	<path class="st0" d="M618.4,148.5l-14.7,4.8l10.4,7.9l1-0.3l0.9,0.8l0.2,0.2l9.4-3.1l5.4-1.8l-1.1-0.8c0,0,0,0,0,0l-8.1-6.1
		l-1.2-0.9l0,0l-0.1-0.1l-0.9,0.3L618.4,148.5z"/>
	<polygon class="st0" points="616.2,161.9 616.2,161.9 616.2,161.9 616.2,161.9 	"/>
	<polygon class="st0" points="625.9,195.1 614,185.3 598.5,189.8 596.7,190.3 608.7,200.1 	"/>
	<polygon class="st0" points="614,161.2 614,161.2 614,161.2 614,161.2 	"/>
	<polygon class="st0" points="496.7,132.1 496.7,132.1 496.7,132.1 496.6,132.1 	"/>
	<polygon class="st0" points="498.8,132.7 498.8,132.7 498.8,132.7 498.8,132.7 	"/>
	<polygon class="st0" points="229,324.4 205.7,319.8 192.6,333.7 216,338.3 	"/>
	<polygon class="st0" points="151.5,333.6 138.4,347.5 161.8,352.2 175,338.2 174.4,338.1 	"/>
	<polygon class="st0" points="270.1,324.6 283.3,310.7 259.8,306 246.7,320 268.4,324.3 	"/>
	<polygon class="st0" points="127.9,161.9 127.8,161.9 127.9,161.9 127.9,161.9 	"/>
	<polygon class="st0" points="249,272.3 241.7,279.6 236.2,285.2 237.9,285.6 258.1,289.9 265.8,282.2 271,277 263.8,275.5 	"/>
	<polygon class="st0" points="245.2,132.7 245.3,132.7 245.2,132.7 245.2,132.7 	"/>
	<polygon class="st0" points="560.3,111.3 549,103.5 534.8,108.7 546.2,116.5 	"/>
	<polygon class="st0" points="245.2,132.7 234.8,140.6 243.2,143.4 249.6,145.5 250.2,145 250.8,144.5 251.2,144.7 251.7,144.9 
		254.4,142.8 262.2,136.9 247.4,132.1 246.2,133 	"/>
	<polygon class="st0" points="184.8,297.3 206.7,302 219.5,289.1 211,287.3 197.6,284.4 	"/>
	<polygon class="st0" points="233.9,176.1 216.7,171 204.8,180.8 222,185.8 	"/>
	<polygon class="st0" points="205.6,138.5 204.7,138.2 197.1,144 194.2,146.1 209,150.9 210.2,150 211.2,150.3 213.5,148.6 
		221.6,142.4 212.2,139.3 206.8,137.6 	"/>
	<polygon class="st0" points="164.1,143.7 164.1,143.7 164.1,143.7 164.1,143.7 	"/>
	<polygon class="st0" points="166.2,143.1 166.2,143.1 166.2,143.1 166.2,143.1 	"/>
	<polygon class="st0" points="168.1,301.2 149.8,297.3 146.2,296.5 138.5,304.2 133.3,309.4 155.2,314.1 	"/>
	<polygon class="st0" points="255.7,167.4 248,173.7 265.3,178.7 276.8,169.3 277.3,168.9 260,163.9 	"/>
	<polygon class="st0" points="165,144 164.1,143.7 153.6,151.6 168.4,156.4 169.6,155.5 169.6,155.5 169.6,155.5 170.6,155.8 
		181,147.9 166.2,143.1 	"/>
	<polygon class="st0" points="247.4,132.1 247.4,132.1 247.4,132.1 247.4,132.1 	"/>
	<polygon class="st0" points="145.9,115.2 160.1,120.4 171.4,112.6 157.2,107.4 	"/>
	<polygon class="st0" points="205.8,252.8 189.5,249 177,260.9 197.3,265.7 209.9,253.8 	"/>
	<polygon class="st0" points="161.1,264.2 140.8,259.4 128.3,271.3 148.6,276.1 	"/>
	<path class="st0" d="M489.3,362.7L476,347.8l-25,4.5l13.4,15l12.5-2.3c-0.1,0-0.2-0.1-0.3-0.1L489.3,362.7z"/>
	<polygon class="st0" points="522.5,107.5 511.1,99.7 497,104.9 508.3,112.7 	"/>
	<polygon class="st0" points="163.4,186.3 161.4,188 178.7,193 184.6,188.2 190.7,183.2 173.4,178.2 	"/>
	<polygon class="st0" points="130,161.2 130,161.2 130,161.2 130.1,161.2 	"/>
	<polygon class="st0" points="231.7,244.7 225.7,250.4 246.1,255.2 256.1,245.7 258.6,243.4 238.3,238.5 	"/>
	<path class="st0" d="M285,101.1l-4.8-1.7c0,0,0,0,0,0.1l-9.5-3.5l-11.4,7.8l14.2,5.2L285,101.1z"/>
	<polygon class="st0" points="170.6,155.8 170.6,155.8 170.6,155.8 170.6,155.8 	"/>
	<polygon class="st0" points="247.1,104.9 232.9,99.7 221.6,107.5 235.7,112.7 	"/>
	<polygon class="st0" points="209.2,108.7 195.1,103.5 183.7,111.3 197.9,116.5 	"/>
	<polygon class="st0" points="497.8,209.7 510.1,220.6 528.8,215.7 516.6,204.8 	"/>
	<polygon class="st0" points="572.6,337.5 569,338.2 582.2,352.2 605.6,347.5 592.5,333.6 	"/>
	<polygon class="st0" points="460.8,310.7 473.9,324.6 478.6,323.7 497.3,320 484.2,306 	"/>
	<polygon class="st0" points="495,272.3 476.2,276.3 473.1,277 485.9,289.9 501.6,286.5 507.8,285.2 498.4,275.7 	"/>
	<polygon class="st0" points="209,150.9 209,150.9 209,150.9 209,150.9 	"/>
	<polygon class="st0" points="130.1,185.3 125.8,188.8 118.1,195.1 135.4,200.1 147,190.7 147.4,190.3 133.4,186.2 	"/>
	<polygon class="st0" points="543.8,218.5 556.1,229.4 574.8,224.4 562.6,213.6 	"/>
	<polygon class="st0" points="589.8,227.3 602,238.1 620.8,233.2 608.6,222.4 	"/>
	<polygon class="st0" points="493.2,144.5 493.5,144.7 494.4,145.5 501.5,143.2 509.2,140.6 498.8,132.7 497.9,133 496.7,132.1 
		481.9,136.9 485.5,139.7 492.3,144.9 492.7,144.7 	"/>
	<polygon class="st0" points="538.4,319.8 527.1,322 514.9,324.4 519.4,329.2 528,338.4 551.4,333.7 543.4,325.1 	"/>
	<polygon class="st0" points="582.9,264.3 595.4,276.2 615.7,271.3 603.2,259.5 	"/>
	<polygon class="st0" points="485.4,243.4 498,255.3 518.3,250.4 505.8,238.6 	"/>
	<polygon class="st0" points="554.5,249 542.3,251.9 534.1,253.8 540.8,260.1 546.7,265.7 548.4,265.3 567.1,260.9 565.1,259 	"/>
	<polygon class="st0" points="586.1,299 576,301.2 583.7,309 588.8,314.2 610.7,309.4 597.9,296.5 	"/>
	<polygon class="st0" points="249.6,145.5 249.6,145.5 249.6,145.5 249.6,145.5 	"/>
	<polygon class="st0" points="546.4,284.4 537.5,286.3 524.5,289.1 537.4,302 558.8,297.4 559.3,297.3 555.2,293.2 	"/>
	<rect x="575.6" y="156.4" transform="matrix(0.95 -0.3123 0.3123 0.95 -20.052 187.5939)" class="st0" width="0" height="0"/>
	<polygon class="st0" points="285.8,127.3 285.8,127.3 285.8,127.3 285.8,127.3 	"/>
	<polygon class="st0" points="251.7,144.9 251.7,144.9 251.7,144.9 251.8,144.9 	"/>
	<polygon class="st0" points="532.9,150.3 532.9,150.3 532.9,150.3 532.9,150.3 	"/>
	<polygon class="st0" points="492.3,144.9 492.3,144.9 492.3,144.9 492.3,144.9 	"/>
	<polygon class="st0" points="575.6,156.4 590.4,151.6 579.9,143.7 579,144 577.8,143.1 563,147.9 573.4,155.8 574.4,155.5 	"/>
	<path class="st0" d="M545.7,377.6l-12.8-14.3l-24.9,4.5l13.4,15l25-4.6L545.7,377.6C545.8,377.6,545.7,377.6,545.7,377.6z"/>
	<polygon class="st0" points="533.8,150 535,150.9 549.8,146.1 545.5,142.8 539.4,138.2 539.2,138.2 538.4,138.5 538.4,138.5 
		538.4,138.5 537.2,137.6 522.4,142.4 532.9,150.3 	"/>
	<polygon class="st0" points="494.4,145.5 494.4,145.5 494.4,145.5 494.5,145.5 	"/>
	
		<rect x="573.4" y="155.8" transform="matrix(0.9509 -0.3094 0.3094 0.9509 -20.0641 185.0841)" class="st0" width="0.1" height="0"/>
	<polygon class="st0" points="535,150.9 535,150.9 535,150.9 535,150.9 	"/>
	<polygon points="262.4,338.5 246.3,356.5 262.4,338.5 	"/>
	<path d="M211.1,363.3l5.4,1c0.1,0,0.1,0,0.2,0L211.1,363.3L211.1,363.3z"/>
	<path d="M195.6,365C195.6,365,195.6,365,195.6,365l6.2-6.9L195.6,365z"/>
	<path d="M290.6,355C290.6,355,290.6,355,290.6,355l1.2-1.4L290.6,355z"/>
	<polygon points="268,347.8 267.9,347.9 292.9,352.5 293,352.4 	"/>
	<path d="M256.9,360.2l4-4.5L256.9,360.2C256.9,360.2,256.9,360.2,256.9,360.2z"/>
	<polygon points="299.7,344.9 299.4,345.2 299.4,345.2 	"/>
	<polygon points="243.1,327.6 244,326.6 244,326.6 	"/>
	<path d="M120.5,351.9l-3.4,3.6c0.1,0,0.2,0,0.3,0.1l3.4-3.6L120.5,351.9z"/>
	<polygon points="298.1,312.8 278.7,333.5 250.6,327.9 278.7,333.5 298.2,312.9 299.8,313.2 299.8,289.6 299.6,289.8 299.5,313.1 	
		"/>
	<polygon points="229.1,324.4 229,324.4 216,338.3 192.6,333.7 192.5,333.7 216,338.4 	"/>
	<polygon points="268.4,324.3 270.1,324.6 283.3,310.7 283.3,310.7 270.1,324.6 	"/>
	<polygon points="123.5,345.3 143,324.7 177.7,331.6 197.1,310.9 231.8,317.8 251.3,297.2 286,304 287.8,302.1 286,304 251.3,297.1 
		231.8,317.7 197.1,310.8 177.6,331.4 142.9,324.5 123.4,345.1 104.4,341.3 104.4,348.4 104.6,348.5 104.8,341.6 	"/>
	<polygon points="174.4,338.1 151.5,333.6 138.4,347.5 138.4,347.5 151.5,333.6 	"/>
	<polygon points="149.8,297.3 146.2,296.5 138.5,304.2 146.2,296.5 	"/>
	<polygon points="237.9,285.6 258.1,289.9 265.8,282.2 258.1,289.9 	"/>
	<polygon points="155.2,314.1 133.3,309.4 133.3,309.4 155.2,314.2 168.1,301.2 168.1,301.2 	"/>
	<polygon points="236.2,285.2 236.2,285.2 241.7,279.6 	"/>
	<polygon points="288.7,279.2 288.6,279.2 299.7,281.6 299.7,275.7 299.6,275.7 299.6,281.5 	"/>
	<polygon points="206.7,302 184.8,297.3 197.6,284.4 211,287.3 197.6,284.4 184.8,297.3 206.7,302 219.5,289.1 219.5,289.1 	"/>
	<polygon points="249,272.3 249,272.3 263.8,275.5 	"/>
	<polygon points="113.5,316.5 104.4,325.6 104.4,332.2 105,332.3 105.2,324.9 	"/>
	<polygon points="299.7,260.9 299.7,254.2 299.6,254.2 299.6,261 	"/>
	<polygon points="288.9,251.8 288.8,251.8 269.8,270.9 269.9,270.9 	"/>
	<polygon points="237.2,291.3 269.6,298.3 269.6,298.3 237.2,291.3 	"/>
	<polygon points="115.4,334.6 115.4,334.6 134.4,315.5 134.4,315.5 	"/>
	<polygon points="166.8,322.5 166.8,322.5 185.8,303.4 208.5,308.3 185.8,303.4 	"/>
	<polygon points="115.6,307.2 134.6,288.1 167,295.1 186.1,276 218.5,283 237.5,263.9 237.4,263.9 218.4,283 186,276 167,295.1 
		134.6,288.1 115.6,307.2 104.4,304.8 104.4,310.6 105.2,310.8 105.2,305 	"/>
	<polygon points="225.7,250.4 225.7,250.4 246.1,255.3 256.1,245.7 246.1,255.2 	"/>
	<polygon points="189.5,249 189.5,249 205.8,252.8 	"/>
	<path d="M279.2,245.5l-18.6,17.6l-30.1-7.2l-18.6,17.6l-30.1-7.2L163.2,284l-30.1-7.2l-18.6,17.6l-9.3-2.2l0-10.5l-0.8,0.7v9.7
		l10.1,2.4l18.5-17.7l30.1,7.2l18.6-17.6l30.1,7.2l18.6-17.6l30.1,7.2l18.6-17.6l20.6,4.9v-4.2c0-0.1-0.1-0.2-0.1-0.3l0,4.2
		L279.2,245.5z"/>
	<path d="M274.4,240L274.4,240l12.5-11.7l7.3,1.8c0-0.1,0-0.2-0.1-0.3l-7.2-1.7L274.4,240z"/>
	<polygon points="238.3,238.5 231.7,244.7 238.3,238.5 	"/>
	<polygon points="148.6,276.1 128.3,271.3 128.2,271.3 148.6,276.2 161.2,264.3 161.1,264.2 	"/>
	<polygon points="197.3,265.7 197.3,265.7 209.9,253.8 209.9,253.8 	"/>
	<polygon points="105.2,273 105.2,268.7 104.4,268.5 104.4,272.9 112.4,274.8 112.5,274.7 	"/>
	<path d="M292.9,225.4c0.2,0.8,0.5,1.6,0.7,2.4C293.4,227,293.1,226.2,292.9,225.4L292.9,225.4z"/>
	<polygon points="209.9,197.4 209.8,197.4 191.7,213.5 191.8,213.5 	"/>
	<polygon points="261.2,206.9 261.2,206.9 273.5,196 273.5,196 	"/>
	<rect x="232" y="215.1" transform="matrix(0.7483 -0.6634 0.6634 0.7483 -82.2717 213.4693)" width="16.4" height="0"/>
	<path d="M255.9,188.6l27.9,7.3l3-2.7c0.2,2.1,0.5,4.3,0.8,6.4l0.5,0.1c-0.3-2.4-0.5-4.8-0.7-7.2l-3.7,3.3L255.9,188.6l-18.2,16.1
		l-0.2,0l0.2,0.1L255.9,188.6z"/>
	<polygon points="181.5,213.6 197.8,217.8 181.5,213.6 169.2,224.4 169.3,224.5 	"/>
	<path d="M288.3,204.4c0.7,4.2,1.5,8.5,2.6,12.9l0.1,0c-1-4.5-1.8-9-2.4-13.3l-8.6,7.7l0,0L288.3,204.4z"/>
	<polygon points="227.5,204.8 233.5,206.4 227.5,204.8 215.2,215.7 215.2,215.7 	"/>
	<polygon points="163.9,206.2 163.8,206.2 145.7,222.3 145.7,222.3 	"/>
	<polygon points="135.4,222.4 154.2,227.3 145.9,234.7 154.3,227.3 135.4,222.4 123.2,233.2 123.3,233.2 	"/>
	<path d="M108.3,236.1L108.3,236.1c1.8-5.7,3.4-11.3,4.7-16.8l4.8-4.3l-0.1,0l-5.1,4.5C111.5,224.9,110,230.4,108.3,236.1
		L108.3,236.1l-0.1,0c-0.5,1.6-1.1,3.3-1.7,5c0.6-1.6,1.1-3.2,1.7-4.8L108.3,236.1z"/>
	<path d="M105.1,244.7c-0.3,0.7-0.6,1.5-0.8,2.2l0,4.9l0.8,0.2L105.1,244.7z"/>
	<polygon points="133.4,186.2 130.1,185.3 125.8,188.8 130.1,185.3 	"/>
	<path d="M114.5,212.6c2.4-11.2,3.7-21.7,4.3-31.2l-1.3-0.4c-0.2,9.8-1.2,20.6-3.4,32.3l16.4-13.7l11,3.2l-11-3.2L114.5,212.6z"/>
	<polygon points="260,163.9 255.7,167.4 260,163.9 	"/>
	<polygon points="161.4,188 161.4,188 178.7,193 184.6,188.2 178.7,193 	"/>
	<polygon points="248,173.7 248,173.8 265.3,178.8 276.8,169.3 265.3,178.7 	"/>
	<polygon points="163.4,186.3 173.4,178.2 190.7,183.2 190.7,183.2 173.4,178.2 	"/>
	<path d="M282.7,149.7l-15,12.5l15-12.3l3.9,1.1c-0.9,9-1.4,20.6-0.5,34.2l0.8-0.7c-0.5-13.1,0.4-24.4,1.7-33.2L282.7,149.7z"/>
	<polygon points="222,185.8 204.8,180.8 204.7,180.9 222,185.9 234,176.1 233.9,176.1 	"/>
	<polygon points="118.1,195.1 118.1,195.1 135.4,200.2 147,190.7 135.4,200.1 	"/>
	<path d="M119.2,168.4c0-3.3-0.1-6.5-0.2-9.4l-2.5-0.8c0.4,3.6,0.7,7.5,0.8,11.7l10.5-8l-0.1,0L119.2,168.4z"/>
	<path d="M118.1,147.4l-3.2-1c0.4,2.5,0.9,5.4,1.3,8.4l7.5-5.6l-0.1,0l-4.9,3.7C118.4,150.9,118.3,149.1,118.1,147.4z"/>
	<polygon points="125.7,148.5 125.7,148.5 124.7,148.2 123.5,149.1 123.5,149.1 124.7,148.2 	"/>
	<polygon points="125.1,149 125.7,148.5 125.7,148.5 	"/>
	<polygon points="246.4,131.8 247.4,132.1 247.4,132.1 246.4,131.8 245.2,132.7 245.3,132.7 	"/>
	<polygon points="127.9,161.9 127.9,161.9 128.8,162.2 129.3,161.8 128.8,162.2 	"/>
	<polygon points="130,161.2 130,161.2 129.1,160.9 128.8,161.2 129.1,160.9 	"/>
	<path d="M287.7,126.6c0,0.1,0,0.1,0,0.2l-1,0.7l-0.9-0.3l0,0l1,0.3l1.2-0.9l5,1.7c0-1.1-0.1-2.2-0.1-3.4c0,0,0-0.1,0-0.1
		c0-0.5,0-0.9,0-1.4c0-0.2,0-0.3-0.1-0.5l-4.9,3.7L287.7,126.6z"/>
	<polygon points="166.2,143.1 166.2,143.1 165,144 164.1,143.7 164.1,143.7 165,144 	"/>
	<polygon points="205.9,137.3 205.9,137.3 206.4,137.5 	"/>
	<rect x="209.9" y="150.8" transform="matrix(0.2912 -0.9567 0.9567 0.2912 5.0419 308.3236)" width="1.5" height="0"/>
	<polygon points="209,150.9 209,150.9 210.2,150 211.2,150.3 211.2,150.3 210.2,150 	"/>
	<polygon points="169.6,155.5 168.4,156.4 168.4,156.4 169.6,155.5 	"/>
	<polygon points="169.4,156.7 168.4,156.4 168.4,156.4 169.4,156.7 170.6,155.8 170.6,155.8 	"/>
	<polygon points="194.2,146.1 209,150.9 209,150.9 194.2,146.1 	"/>
	<polygon points="170.6,155.8 170.6,155.8 193,163.1 203.6,155 193,163.1 	"/>
	<polygon points="181,147.9 181.1,147.9 166.2,143.1 166.2,143.1 	"/>
	<polygon points="204.7,138.2 197.1,144 204.7,138.2 	"/>
	<polygon points="204.7,138.2 204.7,138.2 182.3,130.9 171.1,139.4 182.3,130.9 	"/>
	<polygon points="140.5,153.3 140.5,153.3 130,161.2 130.1,161.2 	"/>
	<polygon points="164.1,143.7 153.6,151.6 153.6,151.6 164.1,143.7 	"/>
	<polygon points="141.7,136.4 129.7,145.5 141.7,136.4 	"/>
	<path d="M290.7,139.6l-0.5,0.4l0.4,0.1C290.7,140,290.7,139.8,290.7,139.6z"/>
	<polygon points="250.5,145.8 249.6,145.5 249.6,145.5 250.5,145.8 251.7,144.9 251.7,144.9 	"/>
	<polygon points="251.2,144.7 250.8,144.5 250.2,145 250.8,144.5 	"/>
	<polygon points="251.7,144.9 268.5,150.3 251.8,144.9 	"/>
	<polygon points="262.2,136.9 262.2,136.9 254.4,142.8 	"/>
	<polygon points="263.4,120 263.4,120 247.4,132.1 247.4,132.1 	"/>
	<path d="M287.8,141.8l-5.2,3.9l7.6-5.7l-6.3-2l4.3,1.4C288,140.1,287.9,140.9,287.8,141.8z"/>
	<polygon points="275.4,135.2 275.4,135.2 285.8,127.3 285.8,127.3 	"/>
	<polygon points="234.8,140.6 243.2,143.4 234.8,140.6 	"/>
	<polygon points="237.8,154.4 249.6,145.5 249.6,145.5 	"/>
	<polygon points="212.2,139.3 206.8,137.6 206.8,137.6 	"/>
	<polygon points="233.5,157.6 233.5,157.6 223.6,154.4 	"/>
	<polygon points="208,136.7 206.8,137.6 206.8,137.6 	"/>
	<polygon points="221.6,142.4 221.6,142.4 213.5,148.6 	"/>
	<polygon points="245.2,132.7 232,128.4 245.2,132.7 	"/>
	<rect x="176.1" y="111.2" transform="matrix(0.3443 -0.9389 0.9389 0.3443 0.6094 245.5724)" width="0" height="22.4"/>
	<polygon points="203.4,114.7 224.4,122.4 224.4,122.4 203.5,114.7 	"/>
	<polygon points="241.3,110.9 262.2,118.6 262.3,118.6 241.3,110.9 	"/>
	<path d="M193.8,102.5c2.5,0.4,5.1,0.6,7.8,0.6h1.9c6.6,0,12.6-1.2,18.1-3.4l-0.8-0.3c-5,1.9-10.7,3.1-17.3,3.1h-1.9
		c-2.5,0-5-0.2-7.2-0.5l-4.9,3.4l0.1,0L193.8,102.5z"/>
	<polygon points="244,90.2 244,90.2 227.4,101.6 227.4,101.6 	"/>
	<path d="M276.1,90.4c0.9,1.8,1.8,3.6,2.7,5.5c0.5,1.2,1,2.3,1.4,3.5l4.8,1.7l-11.4,7.8l-14.2-5.2l0,0l14.2,5.2l8.1-5.6
		c0.6,1.8,1.2,3.5,1.7,5.3l-4.2-1.6l-0.1,0.1l13.1,4.9c-0.3-7.2-0.7-14.9-1.3-22.3l-9.1-3.3l-16.6,11.4l0.1,0L276.1,90.4z"/>
	<polygon points="247.2,105 247.1,104.9 235.7,112.7 221.6,107.5 221.6,107.5 235.8,112.7 	"/>
	<polygon points="168.3,97.8 168.3,97.8 151.6,109.2 151.7,109.2 	"/>
	<polygon points="115.6,130.6 127.8,122.3 127.8,122.3 	"/>
	<polygon points="157.2,107.4 171.4,112.6 171.4,112.6 157.2,107.4 145.8,115.1 145.9,115.2 	"/>
	<polygon points="209.3,108.8 209.2,108.7 197.9,116.5 183.7,111.3 183.7,111.3 197.9,116.6 	"/>
	<path d="M133.6,116.4l-13.5-4.9c0.3-1.1,0.6-2.2,1-3.4l1.3-0.9l-8.6,5.9l-2-0.7c0,0.6-0.1,1.2-0.1,1.8c0,0.8-0.1,1.6-0.1,2.4
		l7.7-5.3L133.6,116.4l-11.4,7.8l0,0L133.6,116.4z"/>
	<path d="M111.3,131.3c0,0.1,0.2,0.7,0.6,1.9l3.6-2.5c0.2-0.8,0.4-1.6,0.6-2.5l0.5-2.2c0.2-1.1,0.5-2.3,0.8-3.5l-5.9-2.1
		c-0.1,1.6-0.1,3.2-0.2,4.8c-0.1,2.2-0.2,4.2-0.4,6l0.3-0.1L111.3,131.3z"/>
	<path d="M267,75.1l18.8,7.9l4.4-2.7c-0.2-1.9-0.5-3.8-0.7-5.6l-10.8-4.5l8.8-5.4c-0.3-1.1-0.7-2.1-1-3c0-0.1-0.1-0.2-0.1-0.3
		l-7.4,4.5L260.1,58l-11.8,7.3c-0.4,1.7-1,3.4-1.6,5.1l7.8-4.7l12.7,5.3l-4.3,2.6c0.9,0.8,1.8,1.6,2.7,2.4l-15,9.1l-8.4-3.5
		c1.6-2.6,2.9-5.3,4-8l-0.7-0.3c-1.1,2.8-2.5,5.5-4.1,8.1l9,3.7L267,75.1z M247.7,69.7c0.4-1.3,0.8-2.6,1.2-3.9l2.1,0.6
		c0.4,0.2,0.8,0.4,1.3,0.5L247.7,69.7z"/>
	<path d="M160.6,78c0.7,1.4,1.5,2.7,2.3,4.1l1.1,0.5c-1-1.6-2-3.3-2.8-5L150.7,84l-0.8-0.3l0.9,0.4L160.6,78z"/>
	<path d="M137.5,88.3l-6.6-2.8c5.9-9.3,13.5-15.5,23.2-19.3l1.9-0.5c0.9,3.4,2.1,7.1,3.9,10.7l1.1,0.4c-1.9-3.8-3.3-7.8-4.3-11.7
		l-2-0.8l-16.4,10l-18.8-7.9l-3.4,2c0,0.1-0.1,0.2-0.1,0.4c-0.4,1.7-0.7,3.5-1,5.5l11.6,4.9l-11.1,6.8l-1.9-0.8
		c0,0.4-0.1,0.8-0.1,1.2c-0.2,1.7-0.3,3.4-0.4,5.1l13.2-8L137.5,88.3z"/>
	<polygon points="142.9,52.3 141.2,52.8 141.6,53 	"/>
	<path d="M545.8,377.6l-12.9-14.3l-0.1,0L545.8,377.6C545.7,377.6,545.8,377.6,545.8,377.6z"/>
	<polygon points="595.1,369.1 561.9,375.4 595.3,369.3 	"/>
	<path d="M481.6,338.5L481.6,338.5l-33.9,6.1l0,8.6c0,0,0.1,0,0.1,0v0.1c0,0,0.1,0,0.1,0l0.2-8.8L481.6,338.5z"/>
	<path d="M476,347.8l13.3,14.9l-12.6,2.3c0.1,0,0.2,0.1,0.3,0.1l12.5-2.3L476,347.8L476,347.8z"/>
	<path d="M495.8,370l1,1.1c0.1,0,0.1,0,0.2,0l-1-1.1L495.8,370z"/>
	<polygon points="538.4,353.9 538.4,353.9 501.4,360.6 501.5,360.6 	"/>
	<polygon points="460.8,310.7 460.7,310.7 473.9,324.6 478.6,323.7 473.9,324.6 	"/>
	<polygon points="572.6,337.5 592.5,333.6 605.6,347.5 605.7,347.5 592.5,333.6 	"/>
	<polygon points="538.3,319.8 527.1,322 538.4,319.8 	"/>
	<polygon points="514.9,324.4 519.4,329.2 514.9,324.4 	"/>
	<polygon points="448.6,294 447.6,293 447.7,314.8 459.9,327.7 448.6,315.7 	"/>
	<polygon points="551.4,333.7 551.5,333.7 543.4,325.1 	"/>
	<path d="M629.5,358.7c0.1,0,0.1,0,0.2-0.1l-6.3-6.7l-0.2,0L629.5,358.7z"/>
	<polygon points="465.2,302.6 458,304 458,304 	"/>
	<polygon points="643.2,340.9 643.2,340.6 620.5,345.1 605,328.8 620.5,345.3 	"/>
	<polygon points="474.4,298.3 474.4,298.3 506.8,291.3 525.8,310.4 525.8,310.4 506.8,291.3 	"/>
	<polygon points="576,301.2 583.7,309 576,301.2 	"/>
	<polygon points="524.5,289.1 524.5,289.1 537.4,302 558.8,297.4 537.4,302 	"/>
	<polygon points="473.1,277 473.1,277 485.9,289.9 501.6,286.5 485.9,289.9 	"/>
	<polygon points="555.2,293.2 546.4,284.4 537.5,286.3 546.4,284.4 	"/>
	<polygon points="643,309.9 643.1,309.9 643.1,304.1 635.6,305.7 643,304.1 	"/>
	<polygon points="609.6,315.5 628.6,334.6 628.7,334.6 609.7,315.5 	"/>
	<polygon points="643.1,325.6 643.1,325.6 640.2,326.2 640.2,326.3 	"/>
	<polygon points="558,276 577,295.1 609.4,288.1 610.2,289 609.4,288.1 577,295.1 558,276 525.6,283 506.6,263.9 506.5,263.9 
		525.6,283 	"/>
	<polygon points="597.9,296.5 586.1,299 597.9,296.5 	"/>
	<polygon points="558.2,303.4 577.2,322.5 577.2,322.5 558.2,303.4 	"/>
	<polygon points="453.3,270 456.4,273.1 456.4,273.1 	"/>
	<polygon points="486.8,268.2 474.2,270.9 455.2,251.8 455.1,251.8 474.1,270.9 	"/>
	<polygon points="448.6,280.6 448.6,274.8 447.7,275 447.7,280.9 455.4,279.2 455.4,279.2 	"/>
	<polygon points="447.7,253.4 447.7,264.3 448.6,265.2 448.6,253.2 	"/>
	<polygon points="498.4,275.7 495,272.3 476.2,276.3 495,272.3 	"/>
	<polygon points="632.5,274.5 631.6,274.7 643.1,285.6 643.1,291.3 643.3,291.2 643.3,285.8 631.6,274.7 	"/>
	<path d="M457.1,228.1l-4.5,1.1c0.4-1.5,0.9-3,1.3-4.5l-0.2,0c-0.4,1.6-0.8,3.1-1.3,4.7l4.7-1.1l12.4,11.7l0.1,0L457.1,228.1z"/>
	<polygon points="643.3,271.9 643.1,271.9 643.1,271.8 643.1,271.8 643.1,267.6 643.1,267.6 643.1,272 	"/>
	<polygon points="565.1,259 554.5,249 542.3,251.9 554.5,249 	"/>
	<polygon points="582.9,264.3 582.9,264.3 603.2,259.5 615.7,271.3 615.8,271.3 603.2,259.4 	"/>
	<path d="M611,276.9l-30.1,7.2l-18.6-17.6l-30.1,7.2L513.6,256l-30.1,7.2l-18.6-17.6l-16.3,3.9l0-5.1l-0.8-0.7c0,0.1,0,0.1-0.1,0.2
		v6.1l17.2-4.1l18.6,17.6l30.1-7.2l18.6,17.6l30.1-7.2l18.6,17.6L611,276.9l18.6,17.6l11.9-2.9l-12,2.8L611,276.9z"/>
	<polygon points="485.4,243.4 485.4,243.4 505.8,238.6 518.3,250.4 518.3,250.4 505.8,238.5 	"/>
	<polygon points="540.8,260.1 546.7,265.7 548.4,265.3 546.7,265.7 	"/>
	<polygon points="589.8,227.3 602,238.2 602,238.1 589.8,227.3 608.6,222.4 620.8,233.2 620.9,233.2 608.6,222.4 	"/>
	<polygon points="488.1,188.6 488.8,189.2 488.1,188.6 460.2,195.9 460.3,195.9 	"/>
	<polygon points="580.1,206.2 580.1,206.2 552.3,213.5 552.3,213.5 	"/>
	<polygon points="534.1,197.4 534.1,197.4 506.2,204.7 506.3,204.7 	"/>
	<polygon points="516.6,204.8 516.6,204.8 497.7,209.7 510,220.6 510.1,220.6 497.8,209.7 	"/>
	<polygon points="643.1,251 643.1,251 640,251.8 	"/>
	<polygon points="474.3,211.9 487.4,223.5 474.3,211.9 	"/>
	<polygon points="470.6,196 470.5,196 482.8,206.9 482.8,206.9 	"/>
	<polygon points="626.1,215 626.1,215 598.3,222.3 598.3,222.3 	"/>
	<polygon points="584.4,245.5 584.4,245.5 574.8,237 	"/>
	<path d="M457.5,206c-0.5,3.5-1.2,7-2,10.7l0.3-0.1c0.8-3.5,1.5-6.8,2.1-10.2L457.5,206z"/>
	<path d="M458.9,194.7c-0.1,1.5-0.3,2.9-0.5,4.4l0.8-0.2c0.2-1.2,0.3-2.3,0.5-3.5L458.9,194.7z"/>
	<path d="M637.2,224.8c0.9,3.2,1.8,6.4,2.9,9.7c-1-3.2-1.9-6.4-2.7-9.6L637.2,224.8z"/>
	<polygon points="538.4,236.7 538.4,236.7 535.2,233.8 	"/>
	<polygon points="543.7,218.5 556,229.4 556.1,229.4 543.8,218.5 562.6,213.6 574.8,224.4 574.8,224.4 562.6,213.6 	"/>
	<path d="M635.8,236.1l4.4-1.1c0,0,0,0,0,0L635.8,236.1L635.8,236.1z"/>
	<polygon points="630.4,254.3 630.4,254.3 614.5,240.1 	"/>
	<polygon points="572.5,190.9 565.4,193 553.4,183.2 570.7,178.2 571.7,179 570.7,178.2 553.4,183.2 565.3,193 	"/>
	<polygon points="614,185.3 598.5,189.8 614,185.3 	"/>
	<polygon points="483.1,178.4 483.8,178.2 483.8,178.2 	"/>
	<polygon points="544.8,199.9 527.1,185.3 501.5,192.8 498,189.9 501.5,192.8 527.1,185.4 544.8,200 570.4,192.6 588,207 588,207 
		570.3,192.5 	"/>
	<polygon points="541.6,166 522.3,171.6 522.4,171.6 	"/>
	<path d="M460.6,150.2l0.8-0.2l17.7,14.6l25.6-7.4l3.4,2.8l-3.5-2.8l-25.6,7.4l-17.7-14.6l-3.5,1c1.3,9,2.3,20.7,1.7,34.3l1.2-0.4
		C461.8,171,461.4,159.1,460.6,150.2z"/>
	<polygon points="496,173.8 496,173.7 478.8,178.7 466.8,168.9 466.8,168.9 478.7,178.8 	"/>
	<path d="M631.3,214.1l-17.7-14.6l-4.1,1.2l4.1-1.2L631.3,214.1l3.3-0.9c-2.4-12.2-3.3-23.5-3.5-33.7l-1.3,0.4
		c0.6,10,1.9,21.3,4.5,33.3L631.3,214.1z"/>
	<polygon points="539.3,180.9 539.3,180.8 522.1,185.8 510.2,176 510.1,176.1 522,185.9 	"/>
	<polygon points="625.9,195.1 625.9,195.1 608.7,200.1 596.7,190.3 596.7,190.3 608.6,200.2 	"/>
	<polygon points="619.3,148.2 620.5,149.1 620.5,149.1 619.3,148.2 618.4,148.5 618.4,148.5 	"/>
	<polygon points="538.4,138.5 537.2,137.6 537.2,137.6 538.4,138.5 	"/>
	<polygon points="539.4,138.2 539.2,138.2 539.4,138.2 	"/>
	<polygon points="539.4,138.2 538.2,137.3 538.2,137.3 539.4,138.2 	"/>
	<polygon points="537.5,137.5 537.2,137.6 537.2,137.6 	"/>
	<polygon points="561.7,130.9 541.1,137.6 561.7,130.9 	"/>
	<polygon points="577.8,143.1 563,147.9 563,147.9 577.8,143.1 	"/>
	<polygon points="551.1,163.1 539.9,154.6 551.1,163.1 573.4,155.8 573.4,155.8 	"/>
	<polygon points="535,150.9 535,150.9 549.8,146.1 545.5,142.8 549.8,146.1 	"/>
	<polygon points="603.6,153.3 603.6,153.3 614,161.2 614,161.2 	"/>
	<polygon points="575.6,156.4 591.6,168.5 591.6,168.5 575.6,156.4 	"/>
	<polygon points="618.4,148.5 606.6,139.6 618.4,148.5 	"/>
	<polygon points="590.4,151.6 580,143.7 579.9,143.7 590.4,151.6 	"/>
	<polygon points="602.3,136.4 595.9,138.5 602.3,136.4 	"/>
	<polygon points="579.9,143.7 579.9,143.7 579,144 577.8,143.1 577.8,143.1 579,144 	"/>
	<polygon points="509.9,129.1 498.8,132.7 498.8,132.7 	"/>
	<polygon points="522.4,142.4 522.4,142.4 532.9,150.3 532.9,150.3 	"/>
	<polygon points="494.5,145.5 494.4,145.5 510.5,157.6 523.7,153.3 510.5,157.6 	"/>
	<polygon points="509.3,140.6 509.2,140.6 501.5,143.2 	"/>
	<path d="M456.2,141.7l3.8,2.8c-0.3-2.4-0.6-4.5-0.9-6.2l-3.3,1.1C455.9,140.1,456,140.9,456.2,141.7z"/>
	<polygon points="481.8,136.9 485.5,139.7 481.9,136.9 	"/>
	<polygon points="496.6,132.1 496.7,132.1 480.6,120 477,121.2 480.6,120 	"/>
	<polygon points="478.7,149.3 492.3,144.9 492.3,144.9 	"/>
	<path d="M459.6,128.3C459.6,128.3,459.6,128.2,459.6,128.3c0.1-0.6,0.2-1.1,0.3-1.6l-1.7,0.6l10.5,7.9l0,0L459.6,128.3z"/>
	<polygon points="574.7,156.7 574.7,156.7 575.6,156.4 575.6,156.4 	"/>
	<polygon points="573.4,155.8 574.2,156.4 573.4,155.8 	"/>
	<polygon points="492.7,144.7 493.2,144.5 493.5,144.7 493.2,144.5 	"/>
	<polygon points="493.5,145.8 492.3,144.9 492.3,144.9 493.5,145.8 494.4,145.5 494.4,145.5 	"/>
	<polygon points="616.2,161.9 621.6,166 616.2,161.9 	"/>
	<polygon points="620.6,149.2 621.8,150.1 620.6,149.2 	"/>
	<path d="M631,157l-5.4,1.8l4.3-1.4c-0.2,4.4-0.4,9.3-0.3,14.6l1.6,1.2c0.2-11.6,1.5-21.3,2.8-28.4l-3.2,1c-0.4,3-0.7,6.5-0.9,10.3
		L631,157z"/>
	<polygon points="532.9,150.3 532.9,150.3 533.8,150 535,150.9 535,150.9 533.8,150 	"/>
	<polygon points="615.2,162.2 614.4,161.5 615.2,162.2 616.2,161.9 616.2,161.9 	"/>
	<polygon points="615,160.9 615.9,161.7 615,160.9 614,161.2 614,161.2 	"/>
	<polygon points="456.1,126.7 457.3,127.6 458.2,127.3 457,126.4 	"/>
	<polygon points="497.6,131.8 498.8,132.7 498.8,132.7 497.6,131.8 496.7,132.1 496.7,132.1 	"/>
	<path d="M453.6,124.9v1.1c0,0,0,0,0,0c0,0.4,0,0.8-0.1,1.2c0,0.1,0,0.2,0,0.3l2.5-0.8L453.6,124.9z"/>
	<polygon points="560.3,111.3 560.3,111.3 546.2,116.5 534.8,108.7 534.7,108.8 546.1,116.6 	"/>
	<polygon points="522.5,107.5 522.5,107.5 508.3,112.7 497,104.9 496.9,105 508.3,112.7 	"/>
	<path d="M465.2,105.4l5.2,3.6l14.2-5.2l0,0l-14.2,5.2l-11.4-7.8l9.1-3.3c0.8-1.9,1.7-3.7,2.6-5.5l-8.7-6l-6.4,2.3
		c-0.6,6.8-1,14-1.4,20.8c0,0.5,0,1.1-0.1,1.6l10.5-3.8C464.8,106.6,465,106,465.2,105.4z"/>
	<polygon points="578.3,118.5 595.1,130 595.2,130 578.4,118.5 	"/>
	<polygon points="481.7,118.6 481.7,118.6 502.7,110.9 519.5,122.4 519.5,122.4 502.7,110.9 	"/>
	<polygon points="586.8,107.4 598.1,115.2 598.2,115.1 586.8,107.4 572.6,112.6 572.6,112.6 	"/>
	<polygon points="464.8,107.1 475.1,114.1 464.8,107.1 	"/>
	<polygon points="540.5,114.7 557.3,126.2 557.3,126.2 540.6,114.7 	"/>
	<path d="M624.7,111.2l-14.2,5.2l0,0L624.7,111.2l11.4,7.8l-5.8,2.1c0.3,1.4,0.6,2.7,0.8,3.9l0.1,0.4c0.2,1,0.4,2,0.6,2.9
		c0.3,1.6,0.8,3.1,1.2,4.6c-0.1,0.2-0.1,0.5-0.2,0.8l-16.5-11.3l-0.1,0l16.7,11.5l4.1-1.5c0.2-0.7,0.3-1.1,0.4-1.1l0.1-0.3l0.3,0.1
		h0c-0.1-1.6-0.2-3.4-0.3-5.3v-1.2c-0.1-4.2-0.3-9-0.5-14l-7,2.6l-2-1.4c0.2,0.7,0.4,1.4,0.6,2.1L624.7,111.2z"/>
	<polygon points="621.8,124.2 621.8,124.2 610.6,116.4 	"/>
	<polygon points="518.9,77.2 523,79.7 526.8,78.1 523,79.7 	"/>
	<polygon points="582.3,77.2 582.2,77.3 593.3,84 603.9,79.6 593.3,84 	"/>
	<polygon points="547.1,75.1 558.2,81.9 558.2,81.9 547.1,75.1 	"/>
	<polygon points="559.8,69.8 551.3,73.3 559.8,69.8 	"/>
	<polygon points="511.9,73 511.9,73 524.6,67.7 535.6,74.5 535.7,74.4 524.6,67.7 	"/>
	<path d="M477,75.1l16.4,10l2.5-1l-2.5,1l-12.5-7.6c0.8-0.9,1.6-1.8,2.5-2.6l4.4,2.7l0,0l-11.1-6.8l12.7-5.3l3.2,1.9
		c0.9-0.6,1.7-1.1,2.6-1.6l0.7-0.4l4.3,2.6l18.8-7.9l16.4,10l18.8-7.9l16.4,10l18.8-7.9l16.4,10l1.2-0.5c3.3,3.1,6.2,6.5,8.9,10.4
		l2-0.8l16.4,10l2-0.8c-0.2-3.3-0.5-6.4-0.9-9.5l-6.7,2.8l-11.1-6.8l12.7-5.3l4.3,2.6c-0.2-1.6-0.5-3.2-0.8-4.6l-9-5.5l-18.8,7.9
		l-16.4-10l-18.8,7.9l-16.4-10L535.5,70l-16.4-10l-18.8,8l-16.4-10l-18.8,7.9l-4.7-2.8c-0.4,1-0.8,2.2-1.2,3.4l6.1,3.8l-7.7,3.3
		c-0.5,2.6-0.9,5.5-1.3,8.5l1.8,1.1L477,75.1z"/>
	<path d="M538.1,51.8l-0.5,0.2l-9-4.8c5.8-0.2,11.3-0.3,16.6-0.3c0.9,0,1.8,0,2.7,0l1.6-0.8c-1.5,0-3,0-4.6,0c-2.1,0-4.3,0-6.4,0.1
		l-0.9,0.4l-0.8-0.4c-3.3,0.1-6.6,0.2-9.8,0.3l10.4,5.5L538.1,51.8z"/>
	<path d="M605.6,51.5L593.9,48l-0.3-0.1c0,0-0.3,0-0.8,0l9.6,5.1L605.6,51.5z"/>
	<path d="M514.4,47.2c-5.6,0.3-10.2,0.6-13.3,0.8l-1.6,0.2l-0.5,0.2l6.1,3.2L514.4,47.2z"/>
	<path d="M581,47.2c-0.8,0-1.6-0.1-2.5-0.1c-2.3-0.1-4.7-0.2-7.3-0.3l-1,0.4l-1.1-0.5c-3.4-0.1-7.1-0.2-10.8-0.3l11.7,6.3L581,47.2z
		 M570.9,47.6c0.1,0.7,0.5,1.2,1,1.6l2.1,1.4l-4,1.9l-10-5.3C563.5,47.3,567.2,47.4,570.9,47.6z"/>
	<path d="M299.4,345.2L299.4,345.2l-37-6.7l0,0l-16.2,18l-3.7,4.1l-37-6.7l-3.7,4.2l-6.2,6.9l-7.3,8.1c1.6,0.1,3.2,0.1,4.8,0.1
		c0,0,0,0,0,0c0.6,0,1.2,0,1.8,0c0.2,0,0.3,0,0.5,0c0.5,0,0.9,0,1.4,0c0.3,0,0.6,0,0.9,0c0.3,0,0.7,0,1,0c0.6,0,1.2,0,1.9,0
		c0.5,0,1.1,0,1.6,0l8.9-10l0,0l5.6,1l19.4,3.5l-3.2,3.5c14.5-1.4,28.7-3.4,40.2-5.1l-18.6-3.4l2.3-2.6l4-4.5l7-7.8l0.1-0.1l25,4.6
		l-0.1,0.1l-1,1.1l-1.2,1.4l-8.8,9.8c8-1.3,13.9-2.4,16.5-2.9l1.6-1.8v-0.7v-5.3v-9.5l-0.3,0.4L299.4,345.2z"/>
	<path d="M148.7,369.4c0.4,0.1,0.8,0.1,1.3,0.2L148.7,369.4L148.7,369.4z"/>
	<path d="M224.5,347.2l18.5-19.7l0.9-1l0,0l6.7,1.3l28,5.6l19.5-20.6l1.4,0.3l0-23.4l0-0.1l-11.7,12.5L286,304l-34.7-6.9l-19.5,20.6
		l-34.7-6.9l-19.5,20.6l-34.7-6.9l-19.5,20.6l-18.8-3.7l-0.2,6.8l0,0.3l15.9,3.2l0.3,0.1l-3.4,3.6l-6.9,7.3
		c3.5,0.7,8.4,1.7,14.3,2.7l10.8-11.5l34.7,6.9l19.5-20.6L224.5,347.2z M259.8,306l23.4,4.6l0,0l-13.2,14l-1.7-0.3l-21.7-4.3
		L259.8,306z M192.6,333.7l13.1-13.9l23.3,4.6l0.1,0l-13.1,14L192.6,333.7L192.6,333.7z M161.8,352.2l-23.4-4.6l0,0l13.2-14
		l22.9,4.5l0.6,0.1L161.8,352.2z"/>
	<path d="M299.6,261l0-6.8l0-0.1l-10.7-2.3l0,0l-19,19.1l-0.1,0l-32.3-7l0,0l-19,19.1l-32.4-7l-19,19.1l-32.4-7l-19,19.1l-10.4-2.2
		l0,5.7l0,0.1l11.5,2.5l-3.2,3.2l-8.3,8.4l-0.2,7.4l0,0.1l10.4,2.2l0,0l19-19.1l0,0l32.4,7l0,0l19-19.1l22.7,4.9l9.8,2.1l19-19.1
		l0,0l32.4,7l0,0l19-19.1l0,0l10.9,2.4l0-5.9v0l-11.9-2.6L299.6,261L299.6,261z M155.2,314.2l-21.9-4.7l0,0l5.2-5.2l7.6-7.7l3.7,0.8
		l18.2,3.9l0,0L155.2,314.2z M206.7,302l-21.9-4.7l12.9-12.9l13.4,2.9l8.5,1.8l0,0L206.7,302z M265.8,282.2l-7.7,7.7l-20.2-4.4
		l-1.7-0.4l0,0l5.6-5.6l7.3-7.3l0,0l14.8,3.2l7.2,1.5L265.8,282.2z"/>
	<path d="M292.8,225.1l-20.4-4.8l-18.6,17.6l-30.1-7.2l-18.6,17.6l-30.1-7.2l-18.6,17.6l-30.1-7.2l-18.6,17.6l-2.5-0.6l0,0.1l0,4.3
		l7.3,1.7l-0.1,0.1l-7.2,6.8l0,0.2l0,10.5l9.3,2.2l18.6-17.6l30.1,7.2l18.6-17.6l30.1,7.2l18.6-17.6l30.1,7.2l18.6-17.6l20.4,4.8
		l0-4.2l0-0.3c-0.5-1.4-1-2.7-1.5-4.1l-3.3,3.1l-20.3-4.8l-0.1,0l12.6-11.9l7.2,1.7l0,0c-0.2-0.7-0.4-1.3-0.6-2
		c-0.2-0.8-0.5-1.6-0.7-2.4C292.9,225.3,292.8,225.2,292.8,225.1z M148.6,276.2l-20.4-4.8l0,0l12.6-11.9l20.3,4.8l0,0L148.6,276.2z
		 M197.3,265.7L197.3,265.7l-20.4-4.8l12.5-11.9l0,0l16.3,3.9l4.1,1l0,0L197.3,265.7z M256.1,245.7l-10.1,9.5l-20.4-4.8l0,0l6-5.7
		l6.5-6.2l0,0l20.4,4.8L256.1,245.7z"/>
	<path d="M105.2,252.1l8.4,2.2l18.1-16.1l27.9,7.3l18.1-16.1l27.9,7.3l18.1-16.1l27.9,7.3l18.1-16.1l21.2,5.5c0,0,0,0,0-0.1
		c-1-4.4-1.9-8.7-2.6-12.9l-8.3,7.4l0,0l-18.8-4.9l0,0l12.3-10.9l0,0l14.1,3.7c0,0,0,0,0,0c-0.3-2.2-0.6-4.3-0.8-6.4l-3,2.7
		l-27.9-7.3l-18.1,16.1l-0.2-0.1l-27.7-7.2l0,0l-18.1,16.1l0,0l-27.8-7.3l0,0l-18.1,16.1l0,0l-27.8-7.3l0,0l-4.8,4.3
		c-1.3,5.4-2.9,11-4.8,16.7l0.1,0l-0.1,0.1c-0.5,1.6-1.1,3.2-1.7,4.8c-0.2,0.6-0.5,1.3-0.7,1.9c-0.2,0.6-0.4,1.1-0.6,1.7v0
		L105.2,252.1L105.2,252.1z M227.5,204.8l6,1.6l12.8,3.4l0,0L234,220.6l0,0l-18.8-4.9l0,0L227.5,204.8z M181.5,213.6l16.3,4.3
		l2.5,0.7L188,229.4l-18.8-4.9l-0.1,0L181.5,213.6z M135.4,222.4l18.8,4.9l-8.4,7.4l-3.9,3.4l-18.8-4.9l-0.1,0L135.4,222.4z"/>
	<path d="M286.6,151.1l-3.9-1.1l-15,12.3l-2.7,2.3l-25.6-7.4l-17.7,14.6l-25.6-7.4l-17.7,14.6l-25.6-7.4l-17.7,14.6l-16.3-4.7
		c0,0.1,0,0.2,0,0.3c-0.6,9.5-1.9,20-4.3,31.2l15.9-13l11,3.2L156,207l17.7-14.6l25.6,7.4l17.7-14.6l25.6,7.4l17.7-14.6l25.6,7.4
		l0.2-0.2c0-0.1,0-0.1,0-0.2C285.1,171.7,285.6,160,286.6,151.1z M147,190.7l-11.6,9.5l-17.3-5l0,0l7.7-6.3l4.3-3.5l3.3,1l14,4.1
		L147,190.7z M190.7,183.2l-6.1,5l-5.9,4.8l-17.3-5l0,0l2-1.7l9.9-8.2L190.7,183.2L190.7,183.2z M222,185.9l-17.3-5l0.1-0.1
		l11.9-9.8l17.3,5l0,0L222,185.9z M276.8,169.3l-11.5,9.5l-17.3-5l0.1,0l7.6-6.3l4.3-3.5l0,0l17.3,5L276.8,169.3z"/>
	<polygon points="249.6,145.5 243.2,143.4 234.8,140.6 234.8,140.6 245.2,132.7 245.2,132.7 232,128.4 222.9,125.5 208,136.7 
		206.8,137.6 212.2,139.3 221.6,142.4 221.6,142.4 213.5,148.6 211.2,150.3 211.2,150.3 211.2,150.3 223.6,154.4 233.5,157.6 
		233.5,157.6 237.8,154.4 249.6,145.5 	"/>
	<polygon points="169.6,155.5 168.4,156.4 169.4,156.7 170.6,155.8 170.6,155.8 169.6,155.5 	"/>
	<path d="M118.1,147.4c0.2,1.7,0.4,3.5,0.5,5.4l4.9-3.7l0,0L118.1,147.4C118.1,147.4,118.1,147.4,118.1,147.4z"/>
	<path d="M127.8,161.9L127.8,161.9L119,159c0,0,0,0,0,0c0.1,2.9,0.2,6.1,0.2,9.4L127.8,161.9z"/>
	<polygon points="124.7,148.2 123.5,149.1 123.5,149.1 124.5,149.4 125.1,149 125.7,148.5 	"/>
	<polygon points="246.4,131.8 245.3,132.7 245.2,132.7 246.2,133 247.4,132.1 247.4,132.1 	"/>
	<polygon points="129.1,160.9 128.8,161.2 127.9,161.9 127.9,161.9 128.8,162.2 129.3,161.8 130,161.2 130,161.2 	"/>
	<path d="M286.8,127.6l1-0.7c0-0.1,0-0.1,0-0.2c0,0,0,0,0,0l-0.7-0.2l-1.2,0.9l0,0L286.8,127.6z"/>
	<polygon points="165,144 166.2,143.1 166.2,143.1 165.3,142.8 164.1,143.7 164.1,143.7 	"/>
	<polygon points="210.2,150 209,150.9 209,150.9 210,151.2 210,151.2 211.2,150.3 	"/>
	<polygon points="168.4,156.4 153.6,151.6 153.6,151.6 164.1,143.7 164.1,143.7 141.7,136.4 141.7,136.4 129.7,145.5 125.7,148.5 
		125.7,148.5 125.7,148.5 140.5,153.3 140.5,153.3 130.1,161.2 130,161.2 152.4,168.5 168.4,156.4 168.4,156.4 	"/>
	<polygon points="194.2,146.1 194.2,146.1 197.1,144 204.7,138.2 182.3,130.9 171.1,139.4 166.2,143.1 166.2,143.1 181.1,147.9 
		181,147.9 170.6,155.8 170.6,155.8 193,163.1 203.6,155 209,150.9 209,150.9 	"/>
	<polygon points="204.7,138.2 205.6,138.5 206.8,137.6 206.8,137.6 206.8,137.6 206.4,137.5 205.9,137.3 205.9,137.3 204.7,138.2 
		204.7,138.2 	"/>
	<polygon points="250.8,144.5 250.2,145 249.6,145.5 249.6,145.5 250.5,145.8 251.7,144.9 251.7,144.9 251.2,144.7 	"/>
	<path d="M285.8,127.3L285.8,127.3l-22.3-7.3l0,0l-16,12.1l0,0l14.8,4.8l0,0l-7.8,5.9l-2.7,2l0,0l16.8,5.5l5.6,1.8l8.5-6.4l5.2-3.9
		c0.1-0.9,0.3-1.7,0.4-2.5l-4.3-1.4l-8.5-2.8l-0.1,0L285.8,127.3z"/>
	<path d="M116.1,128.2c-0.2,0.9-0.4,1.7-0.6,2.5c0,0,0,0,0,0l0.2-0.1l12.1-8.3l0,0l21,7.7l16.8-11.5l0,0l21,7.7l0,0l16.8-11.5l0,0
		l21,7.7l0.1,0l16.8-11.5l0.1,0l20.9,7.7l0.1,0l16.7-11.5l0.1-0.1l4.2,1.6c-0.5-1.7-1.1-3.5-1.7-5.3l-8.1,5.6l-14.2-5.2l0,0
		l11.4-7.8l9.5,3.5c0,0,0,0,0-0.1c-0.5-1.2-0.9-2.3-1.4-3.5c-0.9-1.9-1.8-3.8-2.7-5.5l-10.9,7.4l-0.1,0l-21-7.7l-0.2,0.1l-16.6,11.4
		l0,0l-5.5-2c-0.1,0-0.2,0.1-0.2,0.1c-5.4,2.2-11.5,3.4-18.1,3.4h-1.9c-2.7,0-5.3-0.2-7.8-0.6l-4.2,2.9l-0.1,0l-21-7.7l-0.2,0.1
		l-16.7,11.4l0,0l-21-7.7l-8.2,5.6l-1.3,0.9c-0.3,1.1-0.7,2.3-1,3.4l13.5,4.9l-11.4,7.8l0,0l-4.8-1.8c0,0,0,0.1,0,0.1
		c-0.3,1.3-0.5,2.5-0.8,3.5L116.1,128.2z M221.6,107.5l11.4-7.8l14.1,5.2l0.1,0l-11.4,7.8L221.6,107.5L221.6,107.5z M183.7,111.3
		l11.3-7.8l14.2,5.2l0.1,0l-11.4,7.8L183.7,111.3L183.7,111.3z M157.2,107.4l14.2,5.2l0,0l-11.3,7.8l-14.2-5.2l0,0L157.2,107.4z"/>
	<path d="M154.1,66.2c-9.8,3.8-17.3,10.1-23.2,19.3l6.6,2.8l7.7,3.2l16.4-10l1.4,0.6c0,0,0,0,0-0.1c-0.9-1.3-1.6-2.7-2.3-4.1l-9.9,6
		l-0.9-0.4l-11.8-4.9l11.1-6.8l10.7,4.5c0,0,0,0,0,0c-1.7-3.7-3-7.3-3.9-10.7L154.1,66.2z"/>
	<path d="M248.9,65.8c-0.3,1.3-0.7,2.6-1.2,3.9l4.5-2.8c-0.4-0.2-0.8-0.4-1.3-0.5L248.9,65.8z"/>
	<path d="M250.6,85.1l15-9.1c-0.9-0.9-1.8-1.7-2.7-2.4c0,0,0,0,0,0l-6.7,4.1l-9.8-4.1c0,0.1,0,0.1-0.1,0.2c-1.1,2.7-2.4,5.3-4,8
		L250.6,85.1z"/>
	<path d="M595.3,369.3l-33.4,6.1l-3.6,0.7l-19.9-22.2l0,0l-36.9,6.7l0,0l-19.9-22.1l0,0l-33.5,6.1l-0.2,8.8l-0.2,7.8
		c0,0,0.3,0.3,0.4,0.3l0,0c0,0,0,0,0,0c0,0.1,0.1,0.1,0.2,0.2c0.1,0,0.1,0.1,0.2,0.1c0,0,11.4,5.8,28.5,11.7l18.8-3.4l0.1,0l1,1.1
		l9.6,10.7c11.8,2.6,24.6,4.3,37.3,4.3c2,0,4,0,6-0.1l3-0.5l0.3,0.4c4.3-0.3,8.5-0.7,12.8-1.3l-1.1-1.3l25-4.6l0.9,1
		c3.9-1,7.6-2,11.2-3L595.3,369.3L595.3,369.3z M477,365.1l-12.5,2.3l-13.4-15l25-4.5l0,0l13.4,15L477,365.1z M521.4,382.8l-13.4-15
		l24.9-4.5l0.1,0l12.9,14.3l0.6,0.6L521.4,382.8z"/>
	<path d="M620.5,345.3L605,328.8l-3.9-4.1l-34.7,6.9l-19.5-20.6l-34.7,6.9l-19.5-20.6l-27.6,5.5L458,304l0,0l-9.4-10l0,0l0,21.7
		l11.3,12l5.5,5.8l34.7-6.9l19.5,20.6l34.7-6.9l19.5,20.6l34.7-6.9l14.6,15.5c4.9-1.8,9.1-3.5,12.3-4.8l-5.8-6.2l-6.3-6.7l0.2,0
		l19.8-3.9l0-7.1l0,0L620.5,345.3z M478.6,323.7l-4.7,0.9l-13.2-14l0,0l23.4-4.6l13.2,14L478.6,323.7z M551.4,333.7l-23.4,4.6
		l-8.7-9.2l-4.5-4.7l0,0l12.2-2.4l11.3-2.2l0,0l5,5.3L551.4,333.7L551.4,333.7z M605.6,347.5l-23.4,4.6l-13.2-14l3.6-0.7l19.9-3.9
		L605.6,347.5L605.6,347.5z"/>
	<path d="M640.2,326.3L640.2,326.3l-12.9-12.9l15.7-3.4l0,0l0-5.8l-7.4,1.6l-7.2,1.5L610.2,289l-0.8-0.8l-32.4,7L558,276l-32.4,7
		l-19-19.1l0,0l-19.7,4.3l-12.7,2.7l-19-19.1l0,0l-6.6,1.4v0l0,11.9v0l4.8,4.8l3.1,3.1l0,0l-7.8,1.7v0l0,5.8l6.8-1.5l0,0l19,19.1
		l0,0l32.4-7l19,19.1l0,0l32.4-7l0,0l19,19.1l0,0l32.4-7l0.1,0l19,19.1l0,0l14.5-3.1l0-5.9l-0.1,0L640.2,326.3z M501.6,286.5
		l-15.7,3.4L473.1,277l0,0l3.1-0.7l18.8-4.1l3.5,3.5l9.4,9.5L501.6,286.5z M558.8,297.4l-21.4,4.6l-12.9-12.9l0,0l12.9-2.8l9-1.9
		l8.7,8.8l4.1,4.1L558.8,297.4z M588.8,314.2l-5.1-5.1l-7.7-7.8l0.1,0l10.1-2.2l11.8-2.5l0,0l12.8,12.9L588.8,314.2z"/>
	<path d="M631.6,274.7l0.9-0.2l10.6-2.5v0l0-4.3v0l-6.7,1.6l-18.6-17.6l-30.1,7.2l-18.6-17.6l-30.1,7.2l-18.6-17.6l-30.1,7.2
		l-18.6-17.6l-17.7,4.2c0,0.1,0,0.1-0.1,0.2c-0.4,1.5-0.8,3-1.3,4.5l4.5-1.1l12.6,11.9l-0.1,0l-20.3,4.8l-0.7-0.7l0,0.1l0,5.1
		l16.3-3.9l18.6,17.6l30.1-7.2l18.6,17.6l30.1-7.2l18.6,17.6l30.1-7.2l18.6,17.6l12-2.8l1.5-0.4v0l0-5.7L631.6,274.7z M518.3,250.4
		l-20.4,4.8l-12.5-11.9l0,0l20.4-4.8L518.3,250.4L518.3,250.4z M548.4,265.3l-1.7,0.4l-5.9-5.6l-6.7-6.3l8.2-1.9l12.2-2.9l10.6,10.1
		l1.9,1.8L548.4,265.3z M615.7,271.3l-20.3,4.8l-12.5-11.9l0,0l20.4-4.8L615.7,271.3L615.7,271.3z"/>
	<path d="M637.2,224.8l-11-9.8l0,0l-27.8,7.3l0,0l-18.1-16.1l0,0l-27.8,7.3l0,0l-18.1-16.1l0,0l-27.9,7.3l0,0l-17.5-15.5l-0.6-0.6
		l-27.9,7.3l0,0l-0.5-0.5c0,0,0,0,0,0c-0.1,1.2-0.3,2.3-0.5,3.5c0,0,0,0,0,0l11.3-3l0.1,0l12.3,10.9l-0.1,0l-18.8,4.9l-6-5.3
		c0,0,0,0,0,0c-0.6,3.3-1.3,6.7-2.1,10.2c0,0,0,0.1,0,0.1l18.4-4.8l0,0l13.1,11.7l5,4.4l27.9-7.3l14.9,13.2l3.2,2.9l0,0l27.9-7.3
		l8.5,7.6l9.6,8.5l0,0l27.9-7.3l2.1,1.9l16,14.2l0,0l9.5-2.5l3.1-0.8l0,0l0-7.7c-0.1-0.3-0.2-0.7-0.4-1l-7-6.2l0,0l4.4-1.2l0,0
		c0-0.1-0.1-0.2-0.1-0.4C639,231.3,638.1,228,637.2,224.8C637.2,224.8,637.2,224.8,637.2,224.8z M510.1,220.6L510.1,220.6
		l-12.3-10.9l18.8-4.9l0,0l12.2,10.9L510.1,220.6z M574.8,224.4l-18.8,4.9l0,0l-12.3-10.9l18.8-4.9L574.8,224.4L574.8,224.4z
		 M620.8,233.2l-18.8,4.9l0,0l-12.3-10.9l18.8-4.9L620.8,233.2L620.8,233.2z"/>
	<path d="M483.1,178.4l0.6-0.2l0,0l14.2,11.7l3.5,2.9l25.6-7.4l17.7,14.6l25.6-7.4L588,207l0,0l21.5-6.2l4.1-1.2l17.7,14.6l3-0.9
		c-2.6-12.1-3.9-23.3-4.5-33.3c0-0.1,0-0.1,0-0.2l-20.9,6.1l-17.7-14.6l-25.6,7.4l-17.7-14.6l-6.4,1.9l-19.2,5.6l0,0l-14.3-11.7
		l-3.4-2.8l-25.6,7.4l-17.7-14.6l-0.8,0.2c0.8,9,1.3,20.8,0.2,34.6c0,0,0,0.1,0,0.1L483.1,178.4z M596.7,190.3l1.8-0.5l15.5-4.5l0,0
		l11.9,9.8l0,0l-17.3,5L596.7,190.3L596.7,190.3z M570.7,178.2l1,0.8l11,9l-10.1,2.9l-7.2,2.1l-12-9.8L570.7,178.2z M510.2,176
		l17.2-5l11.9,9.8l0.1,0l-17.3,5L510.2,176L510.2,176z M466.8,168.9l17.3-5l11.9,9.8l0,0l-17.3,5L466.8,168.9L466.8,168.9z"/>
	<polygon points="575.6,156.4 574.4,155.5 573.4,155.8 573.4,155.8 574.2,156.4 574.7,156.7 574.7,156.7 575.6,156.4 	"/>
	<path d="M460,144.6l10,7.5l8.8-2.9l13.5-4.4l0,0l-6.8-5.2l-3.6-2.7l0,0l14.8-4.8l0,0l-16-12.1l-3.6,1.2l-17.1,5.6c0,0,0,0,0,0
		c-0.1,0.5-0.2,1-0.3,1.5c0,0,0,0.1,0,0.1l9.1,6.9l0,0l-9.6,3.1c0,0,0,0,0,0C459.3,140.1,459.7,142.2,460,144.6
		C460,144.6,460,144.6,460,144.6z"/>
	<polygon points="618.4,148.5 618.4,148.5 619.6,149.4 620.5,149.1 620.5,149.1 619.3,148.2 	"/>
	<polygon points="538.4,138.5 538.4,138.5 539.2,138.2 539.4,138.2 538.2,137.3 538.2,137.3 537.5,137.5 537.2,137.6 	"/>
	<polygon points="539.4,138.2 545.5,142.8 549.8,146.1 535,150.9 535,150.9 539.9,154.6 551.1,163.1 573.4,155.8 573.4,155.8 
		563,147.9 563,147.9 577.8,143.1 577.8,143.1 561.7,130.9 561.7,130.9 541.1,137.6 539.4,138.2 539.4,138.2 	"/>
	<polygon points="590.4,151.6 590.4,151.6 575.6,156.4 575.6,156.4 591.6,168.5 591.6,168.5 614,161.2 614,161.2 603.6,153.3 
		603.6,153.3 618.4,148.5 618.4,148.5 606.6,139.6 602.3,136.4 602.3,136.4 595.9,138.5 579.9,143.7 580,143.7 	"/>
	<polygon points="579,144 579.9,143.7 579.9,143.7 578.7,142.8 577.8,143.1 577.8,143.1 	"/>
	<polygon points="498.8,132.7 509.2,140.6 509.3,140.6 501.5,143.2 494.4,145.5 494.5,145.5 510.5,157.6 523.7,153.3 532.9,150.3 
		532.9,150.3 522.4,142.4 522.4,142.4 537.2,137.6 537.2,137.6 537.2,137.6 521.2,125.5 509.9,129.1 498.8,132.7 	"/>
	<polygon points="493.5,145.8 494.4,145.5 494.4,145.5 493.5,144.7 493.2,144.5 492.7,144.7 492.3,144.9 492.3,144.9 	"/>
	<path d="M621.8,150.1l8.1,6.1c0,0,0,0,0,0c0.2-3.8,0.6-7.3,0.9-10.3c0,0,0-0.1,0-0.1l-10.3,3.4l0.1,0.1L621.8,150.1z"/>
	<path d="M629.9,157.4l-4.3,1.4l-9.4,3.1l0.1,0l5.4,4.1l8,6c0,0,0,0,0,0C629.5,166.7,629.6,161.8,629.9,157.4z"/>
	<polygon points="533.8,150 532.9,150.3 532.9,150.3 534.1,151.2 535,150.9 535,150.9 	"/>
	<polygon points="616.2,161.9 616.2,161.9 615.9,161.7 615,160.9 614,161.2 614,161.2 614.4,161.5 615.2,162.2 	"/>
	<polygon points="498.8,132.7 498.8,132.7 497.6,131.8 496.7,132.1 496.7,132.1 497.9,133 	"/>
	<path d="M468.1,97.8C468.1,97.8,468.1,97.8,468.1,97.8l5.1-1.9l11.3,7.8l0,0l-14.2,5.2l-5.2-3.6c-0.2,0.6-0.4,1.2-0.6,1.8
		c0,0,0,0,0,0l0.2-0.1l0,0l10.2,7l6.6,4.5l0,0l21-7.7l16.8,11.5l0,0l21-7.7l0,0l16.8,11.5l0,0l21-7.7l0.1,0l16.8,11.5l0.1,0
		l20.9-7.7l0.1,0l16.5,11.3c0.1-0.3,0.1-0.5,0.2-0.8c-0.4-1.4-0.9-3-1.2-4.6c-0.2-0.9-0.4-1.9-0.6-2.9l-0.1-0.4
		c-0.3-1.2-0.5-2.5-0.8-3.9c0,0,0,0,0-0.1l-8.4,3.1l0,0l-11.3-7.7l-0.1,0l0,0l14.2-5.2l3.9,2.7c-0.2-0.7-0.4-1.4-0.6-2.1
		c0-0.1-0.1-0.2-0.1-0.3l-14.5-9.9l-21,7.7l-16.8-11.5l-21,7.7l-16.8-11.5l-21,7.7l-16.8-11.5l-21,7.7l-8.1-5.5c0,0,0,0,0,0
		C469.8,94.1,468.9,95.9,468.1,97.8C468.1,97.8,468.1,97.8,468.1,97.8z M586.8,107.4l11.4,7.8l-0.1,0l-14.2,5.2l-11.3-7.8l0,0
		L586.8,107.4z M534.8,108.7l14.1-5.2l11.4,7.8l0,0l-14.2,5.2L534.8,108.7L534.8,108.7z M497,104.9l14.1-5.2l11.3,7.8l0,0l-14.2,5.2
		L497,104.9L497,104.9z"/>
	<path d="M606.9,73.9l-1.2,0.5l-16.4-10l-18.8,7.9l-16.4-10l-18.8,7.9l-16.4-10L500.3,68l-4.3-2.6l-0.7,0.4
		c-0.9,0.5-1.8,1.1-2.6,1.6c0,0,0,0,0,0l7.9,4.8l-12.7,5.3l0,0l-4.4-2.7c-0.9,0.8-1.7,1.7-2.5,2.6l12.5,7.6l2.5-1l16.3-6.8l16.4,10
		l18.8-7.9l16.4,10l18.8-7.9l16.4,10l17-7.1c0,0,0,0,0-0.1C613.2,80.5,610.2,77,606.9,73.9z M535.6,74.5l-8.8,3.7l-3.8,1.6l-4.1-2.5
		l-7-4.3l0,0l12.7-5.3L535.6,74.5L535.6,74.5z M558.2,81.9L558.2,81.9l-11.1-6.8l0,0l4.2-1.8l8.5-3.5l0,0l11.1,6.8L558.2,81.9z
		 M603.9,79.6L593.3,84l-11.1-6.8l0,0l12.6-5.3l11.1,6.8L603.9,79.6z"/>
	<path d="M528.6,47.3l9,4.8l0.5-0.2L548,47c0,0,0,0-0.1,0c-0.9,0-1.8,0-2.7,0C539.9,47,534.4,47.1,528.6,47.3z"/>
	<path d="M574,50.6l-2.1-1.4c-0.5-0.4-0.9-0.9-1-1.6c-3.7-0.2-7.4-0.3-10.9-0.4l10,5.3L574,50.6z"/>
</g>
</svg>
