<?xml version="1.0" encoding="utf-8"?>
<!-- Generator: Adobe Illustrator 25.3.0, SVG Export Plug-In . SVG Version: 6.00 Build 0)  -->
<svg version="1.1" id="Layer_1" xmlns="http://www.w3.org/2000/svg" xmlns:xlink="http://www.w3.org/1999/xlink" x="0px" y="0px"
	 viewBox="0 0 750.2 400.1" style="enable-background:new 0 0 750.2 400.1;" xml:space="preserve">
<g>
	<path d="M343.4,174.5c0.6-0.4,1.3-0.9,1.9-1.4c-0.5-2.7-1.1-5.4-1.6-8c-1.4,0.3-2.9,0.4-4.3,0.1c-0.5-0.1-1-0.3-1.5-0.5
		c0.8,4,1.6,8,2.3,12C341.4,175.8,342.6,175.1,343.4,174.5z"/>
	<path d="M118.3,281.7c0.1-1.4,0.3-2.8,0.4-4.2c-0.4-0.2-0.8-0.3-1.2-0.5c-0.4,0-0.7,0.1-1.1,0.1c-1.7,0.2-2.5,0.7-3.8,1.4
		c-0.1,0.6-0.1,1.1-0.2,1.6c1.1,0.9,4.1,1.2,5.3,1.5C118,281.6,118.1,281.6,118.3,281.7z"/>
	<path d="M114.6,265.6c-0.1-0.1-0.2-0.2-0.3-0.4c-0.1,0.5-0.1,1.1-0.2,1.6c0.5-0.2,1-0.4,1.5-0.5
		C115.2,266.1,114.9,265.9,114.6,265.6z"/>
	<path d="M360.7,284.5c0,0.2,0.5,0.5,0.9,0.8l0.3,0.2c0.4,0.2,1.5,0.9,1.1,1.6c-0.5,0.8-2.6,0.6-3.6,0.4c-0.3-0.1-0.7-0.1-1-0.2
		c0.1,1.3,0.2,2.6,0.3,3.8c1.8-0.4,3.7-0.9,5.5-1.3c-0.1-2-0.3-4.2-0.5-6.6c-0.6,0.1-1.3,0.3-2,0.7
		C360.9,284.2,360.7,284.4,360.7,284.5z"/>
	<path d="M138.2,155.9c0.3-1.9,0.7-3.8,1-5.6c-1.3,0.2-2.6,0.3-3.9,0.2c-0.7-0.1-1.3-0.2-1.8-0.5c-0.4,2-0.7,4-1.1,6
		c0.5,0.1,1,0.2,1.4,0.2C135.3,156.4,136.7,156.1,138.2,155.9z"/>
	<path d="M132.3,169.2c-0.7-0.1-1.6-0.2-2.4-0.2c-1.2,6.5-2.4,13.2-3.6,19.9c0,0,0,0,0,0c0.9,0,1.9-0.1,2.9-0.2c0.1,0,0.2,0,0.3,0
		c0.4,0,0.9,0,1.4,0c0.5-0.1,0.9-0.1,1.3-0.2c1.1-6.2,2.2-12.4,3.3-18.6C134.5,169.6,133.4,169.3,132.3,169.2z"/>
	<path d="M394.1,263.6l-0.6-4.8c-0.2-0.1-0.3-0.2-0.5-0.2c-0.2,1.7-0.5,3.4-0.7,5C393,263.7,393.6,263.7,394.1,263.6z"/>
	<path d="M393.9,269.3c-0.7,0-1.5-0.1-2.2-0.1c-0.1,0.9-0.2,1.8-0.3,2.7c0.3,0,0.7,0,1-0.1c0.4-0.1,2.7-0.9,2.6-1.2l-0.2-1.3
		C394.5,269.3,394.2,269.3,393.9,269.3z"/>
	<path d="M359,266.8c0.8,0.5,1.8,1,2.9,1.3c-0.2-1.8-0.5-3.7-0.8-5.7c-1.1,0.1-2.8-0.7-4.1-1c-0.8,0.2-1.4,0.5-1.7,0.8
		c0.1,0.7,0.2,1.4,0.3,2.1C356.4,265.2,357.8,266.1,359,266.8z"/>
	<path d="M143.3,98.6l2.6-0.4c-0.8-0.1-1.5-0.2-2-0.3l-0.5,0.1C143.4,98.2,143.4,98.4,143.3,98.6z"/>
	<path d="M141,110.6C141,110.6,141,110.6,141,110.6l5.9-0.9c0-0.2,0.1-0.4,0.1-0.6l-6,1C141,110.2,141,110.4,141,110.6z"/>
	<path d="M141.4,108.2l5.9-1c0-0.2,0.1-0.4,0.1-0.6l-5.9,1C141.5,107.8,141.5,108,141.4,108.2z"/>
	<path d="M141.4,114.6c0.1,0.2,0.2,0.4,0.2,0.6l4.3-0.7c0-0.2,0.1-0.4,0.1-0.6L141.4,114.6z"/>
	<path d="M140.6,112.4c0,0.2-0.1,0.4-0.1,0.6l6-1c0-0.2,0.1-0.4,0.1-0.6L140.6,112.4z"/>
	<path d="M139.1,120.1l6-1c0-0.2,0.1-0.4,0.1-0.6l-6,1C139.2,119.7,139.1,119.9,139.1,120.1z"/>
	<path d="M141.5,116.8c-0.2,0.3-0.5,0.5-0.9,0.7l5-0.8c0-0.2,0.1-0.4,0.1-0.6L141.5,116.8z"/>
	<path d="M140.1,124.6l4-0.7c0-0.2,0.1-0.4,0.1-0.6l-4.9,0.8c0.1,0.1,0.2,0.1,0.3,0.2C139.7,124.4,139.9,124.5,140.1,124.6z"/>
	<path d="M138.7,121.9c0,0.2-0.1,0.4-0.1,0.6l6-1c0-0.2,0.1-0.4,0.1-0.6L138.7,121.9z"/>
	<path d="M139.4,129.4l-2.1,0.4c0,0.2-0.1,0.4-0.1,0.6l4.1-0.7C140.6,129.6,140,129.5,139.4,129.4z"/>
	<path d="M137.4,132.1c1.3,0,2.5,0,3.8,0l1.5-0.2c0-0.2,0.1-0.4,0.1-0.6L137.4,132.1z"/>
	<path d="M324.9,99.2l1.3-0.2c-0.5-0.1-0.9-0.1-1.4-0.1C324.8,99,324.9,99.1,324.9,99.2z"/>
	<path d="M330.8,102.3l-5.2,0.9c0,0.2,0.1,0.4,0.1,0.6l5.2-0.9C330.9,102.6,330.9,102.4,330.8,102.3z"/>
	<path d="M329.2,100.2l-4,0.7c0,0.2,0.1,0.4,0.1,0.6l5.1-0.9c0,0,0-0.1,0-0.1C330.1,100.4,329.7,100.3,329.2,100.2
		C329.3,100.2,329.3,100.2,329.2,100.2z"/>
	<path d="M326.7,108.1l5.2-0.9c0-0.2-0.1-0.4-0.1-0.6l-5.2,0.9C326.6,107.7,326.6,107.9,326.7,108.1z"/>
	<path d="M326.2,105.8l5.2-0.9c0-0.2-0.1-0.4-0.1-0.6l-5.2,0.9C326.1,105.4,326.2,105.6,326.2,105.8z"/>
	<path d="M332.8,111.6c0-0.2-0.1-0.3-0.1-0.5l-1,0.2C332.1,111.4,332.5,111.5,332.8,111.6z"/>
	<path d="M327.1,110.3l5.2-0.9c0-0.2-0.1-0.4-0.1-0.6l-5.2,0.9C327.1,109.9,327.1,110.1,327.1,110.3z"/>
	<path d="M348.7,221.6l1.9-0.3c-0.2-0.1-0.4-0.2-0.6-0.3c-0.1-0.1-0.2-0.1-0.4-0.1l-1,0.2C348.6,221.2,348.6,221.4,348.7,221.6z"/>
	<path d="M349.4,225.6c0,0.2,0.1,0.4,0.1,0.6l5.6-0.9c0-0.2-0.1-0.4-0.1-0.5c0,0,0,0,0,0L349.4,225.6z"/>
	<path d="M352.5,222.7l-3.6,0.6c0,0.2,0.1,0.4,0.1,0.6l4-0.7C352.9,223,352.7,222.8,352.5,222.7z"/>
	<path d="M355.8,229l-5.6,0.9c0,0.2,0.1,0.4,0.1,0.6l5.6-0.9C355.8,229.4,355.8,229.2,355.8,229z"/>
	<path d="M349.8,228.2l5.6-0.9c0-0.2-0.1-0.4-0.1-0.6l-5.6,0.9C349.8,227.9,349.8,228,349.8,228.2z"/>
	<path d="M356.5,233.6l-5.6,0.9c0,0.2,0.1,0.4,0.1,0.6l5.6-0.9C356.6,233.9,356.6,233.7,356.5,233.6z"/>
	<path d="M356.1,231.3l-5.6,0.9c0,0.2,0.1,0.4,0.1,0.6l5.6-0.9C356.2,231.6,356.2,231.4,356.1,231.3z"/>
	<path d="M356.6,236l0.4-0.1c0-0.2-0.1-0.4-0.1-0.6l-2,0.3C355.4,235.8,356,235.9,356.6,236z"/>
	<path d="M392.1,288.4c-0.2-0.1-0.3-0.2-0.5-0.3l-1.9,0.3c0,0.2,0,0.4,0,0.6l2.6-0.4C392.2,288.5,392.2,288.4,392.1,288.4z"/>
	<path d="M394.1,289.9l-2.6,0.4c0.5,0.1,1,0.2,1.5,0.3l1.9-0.3C394.6,290.2,394.3,290.1,394.1,289.9z"/>
	<path d="M121.1,219.7l6.1-1c0-0.2,0.1-0.4,0.1-0.6l-6.1,1C121.2,219.3,121.1,219.5,121.1,219.7z"/>
	<path d="M127.7,215.6l-4.5,0.8c-0.5,0.1-1.1,0.2-1.6,0.3c0,0.2-0.1,0.4-0.1,0.6l6.1-1C127.7,216,127.7,215.8,127.7,215.6z"/>
	<path d="M126.6,222.8l-6.1,1c0,0.2-0.1,0.4-0.1,0.6l6.1-1C126.5,223.2,126.5,223,126.6,222.8z"/>
	<path d="M126.9,220.4l-6.1,1c0,0.2-0.1,0.4-0.1,0.6l6.1-1C126.9,220.8,126.9,220.6,126.9,220.4z"/>
	<path d="M125.8,227.6l-6.1,1c0,0.2-0.1,0.4-0.1,0.6l6.1-1C125.7,228,125.8,227.8,125.8,227.6z"/>
	<path d="M126.2,225.2l-6.1,1c0,0.2-0.1,0.4-0.1,0.6l6.1-1C126.1,225.6,126.1,225.4,126.2,225.2z"/>
	<path d="M125.1,232.3l-6.2,1c0,0.2-0.1,0.4-0.1,0.6l6.2-1C125,232.7,125,232.5,125.1,232.3z"/>
	<path d="M125.4,229.8l-6.1,1c0,0.2-0.1,0.4-0.1,0.6l6.1-1C125.4,230.3,125.4,230.1,125.4,229.8z"/>
	<path d="M118.1,238.5c0.1,0,0.2,0.1,0.2,0.1l5.9-1c0-0.2,0.1-0.4,0.1-0.6l-6.2,1C118.1,238.2,118.1,238.4,118.1,238.5z"/>
	<path d="M124.6,235.2c0-0.2,0.1-0.4,0.1-0.6l-6.2,1c0,0.2-0.1,0.4-0.1,0.6L124.6,235.2z"/>
	<path d="M123.6,241.4l-6.2,1c0,0.2-0.1,0.4-0.1,0.6l6.2-1C123.6,241.8,123.6,241.6,123.6,241.4z"/>
	<path d="M118.6,240.5l5.4-0.9c0-0.2,0.1-0.4,0.1-0.6l-5.3,0.9C118.7,240,118.7,240.2,118.6,240.5z"/>
	<path d="M118.2,247.5c-0.2-0.2-0.4-0.3-0.5-0.5l-0.9,0.2c0,0.2-0.1,0.4-0.1,0.6L118.2,247.5z"/>
	<path d="M122.2,251.4c0-0.1,0-0.1,0-0.2c-0.1-0.1-0.3-0.2-0.4-0.3l-5.7,0.9c0,0.2-0.1,0.4-0.1,0.6L122.2,251.4z"/>
	<path d="M120.1,249.4c-0.1-0.1-0.1-0.1-0.2-0.2c-0.1-0.1-0.2-0.2-0.3-0.3l-3.2,0.5c0,0.2-0.1,0.4-0.1,0.6L120.1,249.4z"/>
	<path d="M119.6,255.9c0.6,0.1,1.3,0.2,1.9,0.2c0-0.2,0.1-0.4,0.1-0.6L119.6,255.9z"/>
	<path d="M115.7,254.8l6.2-1c0-0.2,0.1-0.4,0.1-0.6l-6.2,1C115.7,254.4,115.7,254.6,115.7,254.8z"/>
	<path d="M394.7,246.9c-0.4,2.5-0.7,5-1.1,7.4c2.2-0.9,4.4-2.2,6.7-3.2c0.4-2.9,0.9-5.9,1.3-8.9
		C399.6,243.7,397.3,245.4,394.7,246.9z"/>
	<path d="M609.1,135.1c0.3,1.3,0.5,2.7,0.8,4.1c1-0.2,1.9-0.4,2.8-0.7c0.9-0.3,1.8-0.6,2.6-1c-0.6-0.1-1.2-0.2-1.9-0.4
		C611.8,136.6,610.4,135.8,609.1,135.1z"/>
	<path d="M613,154.4c0,0,0,0.1,0,0.1l3.2-0.5C615.1,153.9,614,154.3,613,154.4z"/>
	<path d="M416.9,131.3c1.3,0,2.6,0.1,3.9,0.2c1-5.4,2-10.5,2.9-15.3c-0.7-0.1-1.3-0.2-1.9-0.3c-1.1-0.1-2.4-1-3.7-1.7
		c-1,5.2-2.1,10.9-3.3,17C415.5,131.3,416.2,131.3,416.9,131.3z"/>
	<path d="M606.1,101.1c-0.2-0.1-0.4-0.2-0.5-0.3c-0.3-0.2-0.6-0.3-0.9-0.4c-0.1,0-0.3-0.1-0.4-0.1c-0.2,0-0.4,0-0.6-0.1
		c-0.7-0.2-1.2-0.7-1.6-1.1c0,0-0.1-0.1-0.1-0.1c0.3,1.4,0.6,2.9,0.9,4.5c0.1,0,0.1,0.1,0.2,0.1c1.9,0.9,4,1.1,6.2,1.2
		c-0.2-1-0.4-1.9-0.6-2.8C607.8,101.8,606.9,101.4,606.1,101.1z"/>
	<path d="M632.6,231.9c0.2,0,0.3-0.1,0.5-0.1c-0.2,0-0.3,0-0.5-0.1c-1.2-0.2-2.3-0.4-3.4-1c-1-0.5-1.6-1.4-2.3-2.3
		c2.6,15,4.9,29.2,6.5,41.1c0.3,0.1,0.5,0.2,0.8,0.3c0.8,0.2,1.5,0,2.3,0c1,0,2,0.1,3,0.1c0.2,0,0.3,0,0.5,0
		c-1.5-11-3.5-24-5.9-37.9C633.7,232,633.1,231.9,632.6,231.9z"/>
	<path d="M408.9,192.3l-1.6,0.3c0.8,0.4,1.5,1,2.2,1.6c0.3-1.7,0.6-3.3,0.9-5c-0.3,0.2-0.5,0.4-0.7,0.7l-5.7,0.9
		c0,0.2-0.1,0.4-0.1,0.6c0.9,0.2,1.8,0.4,2.5,0.7l2.6-0.4C408.9,191.9,408.9,192.1,408.9,192.3z"/>
	<path d="M410.4,188.9c-0.2,0-0.4,0-0.7-0.1c-2.2-0.1-3.3,0.6-4.7,1.2l5.4-0.9C410.3,189.1,410.4,189,410.4,188.9z"/>
	<path d="M411.5,156.8l-1.5,0.3c0,0.2-0.1,0.4-0.1,0.6l3.2-0.5C412.6,157.1,412,156.9,411.5,156.8z"/>
	<path d="M415.7,158.8c0-0.1,0-0.2,0.1-0.3l-0.6,0.1C415.3,158.6,415.5,158.7,415.7,158.8z"/>
	<path d="M413.2,152.5l3.8-0.6c0-0.2,0.1-0.4,0.1-0.6l-4.7,0.8C412.7,152.2,412.9,152.3,413.2,152.5z"/>
	<path d="M415.9,154.4l0.7-0.1c0-0.2,0.1-0.4,0.1-0.6l-1.5,0.2C415.4,154.1,415.7,154.2,415.9,154.4z"/>
	<path d="M411.7,148.1l6.2-1c0-0.2,0.1-0.4,0.1-0.6l-6.2,1C411.7,147.7,411.7,147.9,411.7,148.1z"/>
	<path d="M411.2,150.5l6.2-1c0-0.2,0.1-0.4,0.1-0.6l-6.2,1C411.3,150.1,411.3,150.3,411.2,150.5z"/>
	<path d="M412.5,143.4l6.2-1c0-0.2,0.1-0.4,0.1-0.6l-6.2,1C412.6,143,412.6,143.2,412.5,143.4z"/>
	<path d="M412.1,145.8l6.2-1c0-0.2,0.1-0.4,0.1-0.6l-6.2,1C412.2,145.4,412.1,145.6,412.1,145.8z"/>
	<path d="M414.2,140.8c-0.4-0.1-0.7-0.2-1.1-0.3c0,0.2-0.1,0.3-0.1,0.5L414.2,140.8z"/>
	<path d="M405.3,196.9c0.2,0,0.5,0.1,0.7,0.1c0.3,0,0.8,0.1,1.4,0.1l1.6-0.3c0-0.2,0.1-0.4,0.1-0.6L405.3,196.9z"/>
	<path d="M408.9,192.3c0-0.2,0-0.4,0.1-0.6l-2.6,0.4l-2.7,0.5c0,0.2-0.1,0.4-0.1,0.6l3.8-0.6L408.9,192.3z"/>
	<path d="M409.1,194l-5.9,1c0,0.2-0.1,0.4-0.1,0.6l6.3-1C409.3,194.4,409.2,194.2,409.1,194z"/>
	<path d="M410.8,186.7l-6.3,1c0,0.2-0.1,0.4-0.1,0.6l6.3-1C410.7,187.1,410.7,186.9,410.8,186.7z"/>
	<path d="M410.3,189.2C410.3,189.1,410.3,189.1,410.3,189.2L405,190l-0.9,0.2c0,0.2-0.1,0.4-0.1,0.6l5.7-0.9
		C409.8,189.6,410,189.3,410.3,189.2z"/>
	<path d="M411.6,182l-6.3,1c0,0.2-0.1,0.4-0.1,0.6l6.3-1C411.5,182.4,411.5,182.2,411.6,182z"/>
	<path d="M411.1,184.5l-6.3,1c0,0.2-0.1,0.4-0.1,0.6l6.3-1C411.1,184.9,411.1,184.7,411.1,184.5z"/>
	<path d="M406.5,181.2c-0.3,0-0.6-0.1-0.9-0.1c0,0.1,0,0.2,0,0.2L406.5,181.2z"/>
	<path d="M420.8,111.5l3.9-0.7c0-0.2,0.1-0.4,0.1-0.6l-4.5,0.8C420.5,111.1,420.7,111.3,420.8,111.5z"/>
	<path d="M422.4,113c0.2,0.2,0.4,0.3,0.7,0.5l1.3-0.2c0-0.2,0.1-0.4,0.1-0.6L422.4,113z"/>
	<path d="M419.6,106.5c0,0.2-0.1,0.4-0.1,0.6l6.2-1c0-0.2,0.1-0.4,0.1-0.6L419.6,106.5z"/>
	<path d="M419,109.6l6.2-1c0-0.2,0.1-0.4,0.1-0.6l-6.2,1C419.1,109.2,419.1,109.4,419,109.6z"/>
	<path d="M426.2,103.7c0-0.2,0.1-0.4,0.1-0.6l-1.9,0.3c-0.8,0.3-1.5,0.6-2.4,0.7c-0.7,0.1-1.3,0.2-1.9,0.2c0,0.1-0.1,0.3-0.1,0.4
		L426.2,103.7z"/>
	<path d="M627.5,195.1l-6.4,1.1c0,0.2,0.1,0.4,0.1,0.6l6.4-1.1C627.6,195.5,627.5,195.3,627.5,195.1z"/>
	<path d="M621.6,199l2.6-0.4c1.3-0.2,2.6-0.5,3.9-0.7c0-0.2-0.1-0.4-0.1-0.5l-6.4,1.1C621.5,198.6,621.6,198.8,621.6,199z"/>
	<path d="M620.3,192.2l6.4-1.1c0-0.2-0.1-0.4-0.1-0.6l-6.4,1.1C620.3,191.8,620.3,192,620.3,192.2z"/>
	<path d="M620.8,194.5l6.4-1.1c0-0.2-0.1-0.4-0.1-0.6l-6.4,1.1C620.7,194.1,620.7,194.3,620.8,194.5z"/>
	<path d="M619.5,187.7l6.4-1.1c0-0.2-0.1-0.4-0.1-0.6l-6.4,1.1C619.4,187.3,619.4,187.5,619.5,187.7z"/>
	<path d="M619.9,190l6.4-1.1c0-0.2-0.1-0.4-0.1-0.6l-6.4,1.1C619.8,189.6,619.9,189.8,619.9,190z"/>
	<path d="M618.6,183.3l6.4-1.1c0-0.2-0.1-0.4-0.1-0.6l-6.4,1.1C618.6,182.9,618.6,183.1,618.6,183.3z"/>
	<path d="M619.1,185.6l6.4-1.1c0-0.2-0.1-0.4-0.1-0.6L619,185C619,185.2,619,185.4,619.1,185.6z"/>
	<path d="M624,177.2l-2.6,0.4c0,0.2,0,0.4,0,0.6l2.8-0.5C624.1,177.5,624.1,177.3,624,177.2z"/>
	<path d="M618.2,180.5c0,0-0.1,0-0.1,0c0,0.2,0.1,0.4,0.1,0.6l6.4-1.1c0-0.2-0.1-0.4-0.1-0.6L618.2,180.5z"/>
	<path d="M621.1,174l2.2-0.4c0-0.2-0.1-0.4-0.1-0.6l-1.7,0.3C621.4,173.6,621.2,173.8,621.1,174z"/>
	<path d="M621.2,176.4l2.6-0.4c0-0.2-0.1-0.4-0.1-0.6l-2.6,0.4C621.1,176,621.2,176.2,621.2,176.4z"/>
	<path d="M620.7,160.3c0-0.2-0.1-0.4-0.1-0.6l-2.3,0.4c0.4,0.1,0.8,0.3,1.1,0.4L620.7,160.3z"/>
	<path d="M618.2,155.4l-4.9,0.8c0,0.2,0.1,0.4,0.1,0.6l5.3-0.9C618.5,155.8,618.4,155.6,618.2,155.4z"/>
	<path d="M620.1,157.5l-6.4,1.1c0,0.2,0.1,0.3,0.1,0.4c0.1,0,0.3,0,0.4,0.1l6-1C620.2,157.8,620.2,157.6,620.1,157.5z"/>
</g>
</svg>
