<?xml version="1.0" encoding="utf-8"?>
<!-- Generator: Adobe Illustrator 25.3.0, SVG Export Plug-In . SVG Version: 6.00 Build 0)  -->
<svg version="1.1" id="Layer_1" xmlns="http://www.w3.org/2000/svg" xmlns:xlink="http://www.w3.org/1999/xlink" x="0px" y="0px"
	 viewBox="0 0 750.2 400.1" style="enable-background:new 0 0 750.2 400.1;" xml:space="preserve">
<g>
	<path d="M52.4,139.7l1.1,4.8l61-13.6c0.4-1.2,0.7-2.5,1-3.8l0.5-2.1c0.6-2.7,1.3-6.2,2.3-10.1c-0.4-1-0.7-1.5-0.7-1.5L52.4,139.7z"
		/>
	<path d="M352.7,140.2l-66.2-26.7c0,0-0.1,0.1-0.2,0.4c0.9,4,1.6,7.7,2.2,10.7c0.2,1,0.4,2,0.6,2.9c0.3,1.2,0.6,2.4,0.9,3.6l0-0.1
		l61.6,13.9L352.7,140.2z"/>
	<path d="M398.1,143.5l59.4-12.7l0,0.1c0.3-0.9,0.5-1.7,0.7-2.7c0.1-0.4,0.2-0.7,0.3-1.1c0-0.1,0-0.2,0.1-0.3
		c0.1-0.7,0.3-1.5,0.5-2.3c0-0.2,0.1-0.5,0.1-0.7c0.5-2.6,1.1-5.5,1.9-8.6c-0.5-1.2-0.8-1.8-0.8-1.8L397.1,139L398.1,143.5z"/>
	<path d="M630.1,114.2c0.9,3.6,1.6,7,2.2,9.9c0.2,1.2,0.5,2.3,0.7,3.3c0.3,1.2,0.6,2.4,0.9,3.5l62.6,13.7l0.9-4.1l-67-27
		C630.4,113.5,630.3,113.7,630.1,114.2z"/>
</g>
</svg>
