<?xml version="1.0" encoding="utf-8"?>
<!-- Generator: Adobe Illustrator 25.3.0, SVG Export Plug-In . SVG Version: 6.00 Build 0)  -->
<svg version="1.1" id="Layer_1" xmlns="http://www.w3.org/2000/svg" xmlns:xlink="http://www.w3.org/1999/xlink" x="0px" y="0px"
	 viewBox="0 0 750.2 400.1" style="enable-background:new 0 0 750.2 400.1;" xml:space="preserve">
<path d="M134.5,176.3c0.2-1.3,0.4-2.5,0.7-3.8l-5.7-0.9c-0.2,1.2-0.5,2.5-0.7,3.8L134.5,176.3z"/>
<path d="M120.9,220.9c-0.2,1.3-0.4,2.5-0.6,3.8l5.8,0.9c0.2-1.3,0.4-2.5,0.6-3.8L120.9,220.9z"/>
<path d="M406.1,178.5l5.9,0.9c0.2-1.3,0.4-2.5,0.7-3.8l-5.9-0.9C406.6,176,406.3,177.2,406.1,178.5z"/>
<path d="M398.3,223.9c-0.2,1.3-0.4,2.5-0.6,3.8l6,0.9c0.2-1.3,0.4-2.5,0.6-3.8L398.3,223.9z"/>
<path d="M345.5,174l-5.6,0.9c0.2,1.2,0.5,2.5,0.7,3.8l5.6-0.9C346,176.5,345.8,175.3,345.5,174z"/>
<path d="M355.4,226.9c-0.2-1.2-0.4-2.5-0.7-3.8l-5.6,0.9c0.2,1.3,0.4,2.5,0.7,3.8L355.4,226.9z"/>
<path d="M623.4,173.8l-6.4,1c0.2,1.2,0.5,2.5,0.7,3.8l6.4-1C623.9,176.3,623.6,175.1,623.4,173.8z"/>
<path d="M633.3,226.7c-0.2-1.2-0.4-2.5-0.7-3.8l-6.5,1c0.2,1.3,0.4,2.5,0.7,3.8L633.3,226.7z"/>
</svg>
