<?xml version="1.0" encoding="utf-8"?>
<!-- Generator: Adobe Illustrator 25.3.0, SVG Export Plug-In . SVG Version: 6.00 Build 0)  -->
<svg version="1.1" id="Layer_1" xmlns="http://www.w3.org/2000/svg" xmlns:xlink="http://www.w3.org/1999/xlink" x="0px" y="0px"
	 viewBox="0 0 750.2 400.1" style="enable-background:new 0 0 750.2 400.1;" xml:space="preserve">
<g>
	<path d="M418.7,142.8l-5.8-1.1c-5.1,27-11,59.5-15.6,88.3h6.2C408,201.8,413.6,169.9,418.7,142.8z"/>
	<path d="M339.4,143.2l-5.4,1c5.3,26.5,11.3,57.9,16.1,85.8h5.8C351.1,201.8,344.9,169.9,339.4,143.2z"/>
	<path d="M617,141.7l-6.5,0.5c1.6,8,3.3,16.5,5,25.2l0.1,0.1c4,20.6,8.1,42.4,11.6,62.5h6.7C628.9,201.2,622.5,168.7,617,141.7z"/>
	<path d="M140.3,144.3l-5.6-1c-5,26.7-10.7,58.5-15.2,86.7h6C129.8,202.3,135.3,171.1,140.3,144.3z"/>
</g>
</svg>
