<?xml version="1.0" encoding="utf-8"?>
<!-- Generator: Adobe Illustrator 25.3.0, SVG Export Plug-In . SVG Version: 6.00 Build 0)  -->
<svg version="1.1" id="Layer_1" xmlns="http://www.w3.org/2000/svg" xmlns:xlink="http://www.w3.org/1999/xlink" x="0px" y="0px"
	 viewBox="0 0 750.2 400.1" style="enable-background:new 0 0 750.2 400.1;" xml:space="preserve">
<style type="text/css">
	.st0{fill:none;}
</style>
<g>
	<polygon class="st0" points="582.6,188 570.7,178.2 553.4,183.2 565.3,193 	"/>
	<polygon class="st0" points="539.3,180.9 527.4,171 510.1,176.1 522,185.9 	"/>
	<polygon class="st0" points="171.4,112.6 157.2,107.4 145.8,115.1 160.1,120.4 	"/>
	<polygon class="st0" points="570.8,76.6 559.8,69.8 547.1,75.1 558.2,81.9 	"/>
	<polygon class="st0" points="277.3,168.9 260,163.9 248,173.8 265.3,178.8 	"/>
	<polygon class="st0" points="496,173.8 484.1,163.9 466.8,168.9 478.7,178.8 	"/>
	<polygon class="st0" points="625.9,195.1 614,185.3 596.7,190.3 608.6,200.2 	"/>
	<polygon class="st0" points="535.7,74.4 524.6,67.7 511.9,73 523,79.7 	"/>
	<polygon class="st0" points="209.3,108.8 195.1,103.5 183.7,111.3 197.9,116.6 	"/>
	<polygon class="st0" points="166.2,143.1 165,144 164.1,143.7 153.6,151.6 168.4,156.4 169.6,155.5 170.6,155.8 181.1,147.9 	"/>
	<polygon class="st0" points="247.2,105 232.9,99.7 221.6,107.5 235.8,112.7 	"/>
	<polygon class="st0" points="247.4,132.1 246.2,133 245.2,132.7 234.8,140.6 249.6,145.5 250.8,144.5 251.7,144.9 262.2,136.9 	"/>
	<polygon class="st0" points="206.8,137.6 205.6,138.5 204.7,138.2 194.2,146.1 209,150.9 210.2,150 211.2,150.3 221.6,142.4 	"/>
	<polygon class="st0" points="606,78.7 594.9,71.9 582.2,77.3 593.3,84 	"/>
	<polygon class="st0" points="615.8,271.3 603.2,259.4 582.9,264.3 595.4,276.2 	"/>
	<polygon class="st0" points="567.1,260.9 554.5,249 534.1,253.8 546.7,265.7 	"/>
	<polygon class="st0" points="532.9,150.3 533.8,150 535,150.9 549.8,146.1 539.4,138.2 538.4,138.5 537.2,137.6 522.4,142.4 	"/>
	<polygon class="st0" points="528.8,215.7 516.6,204.8 497.7,209.7 510,220.6 	"/>
	<polygon class="st0" points="518.3,250.4 505.8,238.5 485.4,243.4 498,255.3 	"/>
	<polygon class="st0" points="620.9,233.2 608.6,222.4 589.8,227.3 602,238.2 	"/>
	<polygon class="st0" points="574.8,224.4 562.6,213.6 543.7,218.5 556,229.4 	"/>
	<polygon class="st0" points="598.2,115.1 586.8,107.4 572.6,112.6 584,120.4 	"/>
	<polygon class="st0" points="522.5,107.5 511.1,99.7 496.9,105 508.3,112.7 	"/>
	<polygon class="st0" points="573.4,155.8 574.4,155.5 575.6,156.4 590.4,151.6 579.9,143.7 579,144 577.8,143.1 563,147.9 	"/>
	<polygon class="st0" points="560.3,111.3 549,103.5 534.7,108.8 546.1,116.6 	"/>
	<polygon class="st0" points="225.7,250.4 246.1,255.3 258.6,243.4 238.3,238.5 	"/>
	<polygon class="st0" points="128.2,271.3 148.6,276.2 161.2,264.3 140.8,259.4 	"/>
	<polygon class="st0" points="177,260.9 197.3,265.7 209.9,253.8 189.5,249 	"/>
	<polygon class="st0" points="507.9,367.8 521.4,382.8 546.4,378.2 532.9,363.3 	"/>
	<polygon class="st0" points="138.4,347.5 161.8,352.2 175,338.2 151.5,333.6 	"/>
	<polygon class="st0" points="229.1,324.4 205.7,319.8 192.5,333.7 216,338.4 	"/>
	<polygon class="st0" points="451.1,352.4 464.5,367.4 489.5,362.8 476,347.8 	"/>
	<polygon class="st0" points="168.1,301.2 146.2,296.5 133.3,309.4 155.2,314.2 	"/>
	<polygon class="st0" points="219.5,289.1 197.6,284.4 184.8,297.3 206.7,302 	"/>
	<polygon class="st0" points="283.3,310.7 259.8,306 246.7,320 270.1,324.6 	"/>
	<polygon class="st0" points="492.3,144.9 493.2,144.5 494.4,145.5 509.3,140.6 498.8,132.7 497.9,133 496.7,132.1 481.8,136.9 	"/>
	<polygon class="st0" points="271,277 249,272.3 236.2,285.2 258.1,289.9 	"/>
	<polygon class="st0" points="576,301.2 588.8,314.2 610.7,309.4 597.9,296.5 	"/>
	<polygon class="st0" points="460.7,310.7 473.9,324.6 497.3,320 484.2,306 	"/>
	<polygon class="st0" points="524.5,289.1 537.4,302 559.3,297.3 546.4,284.4 	"/>
	<polygon class="st0" points="514.9,324.4 528,338.4 551.5,333.7 538.3,319.8 	"/>
	<polygon class="st0" points="473.1,277 485.9,289.9 507.8,285.2 495,272.3 	"/>
	<polygon class="st0" points="234,176.1 216.7,171 204.7,180.9 222,185.9 	"/>
	<polygon class="st0" points="569,338.2 582.2,352.2 605.7,347.5 592.5,333.6 	"/>
	<polygon class="st0" points="154.3,227.3 135.4,222.4 123.2,233.2 142,238.2 	"/>
	<polygon class="st0" points="200.3,218.5 181.5,213.6 169.2,224.4 188,229.4 	"/>
	<polygon class="st0" points="246.3,209.7 227.5,204.8 215.2,215.7 234,220.6 	"/>
	<polygon class="st0" points="190.7,183.2 173.4,178.2 161.4,188 178.7,193 	"/>
	<polygon class="st0" points="147.4,190.3 130.1,185.3 118.1,195.1 135.4,200.2 	"/>
	<path d="M148.7,369.4c0.4,0.1,0.8,0.1,1.3,0.2L148.7,369.4L148.7,369.4z"/>
	<path d="M262.4,338.5l-19.9,22.2l-37-6.7l-17.3,19.2c1.6,0.1,3.2,0.1,4.8,0.1c0,0,0,0,0,0c0.6,0,1.2,0,1.8,0c0.2,0,0.3,0,0.5,0
		c0.5,0,0.9,0,1.4,0c0.3,0,0.6,0,0.9,0c0.3,0,0.7,0,1,0c0.6,0,1.2,0,1.9,0c0.5,0,1.1,0,1.6,0l9-10l25,4.6l-3.2,3.5
		c14.5-1.4,28.7-3.4,40.2-5.1l-18.6-3.4l13.4-15l25,4.6l-11.2,12.4c8-1.3,13.9-2.4,16.5-2.9l1.6-1.8v-0.7v-5.3v-9.5l-0.6,0.6
		L262.4,338.5z"/>
	<path d="M224.5,347.2l19.5-20.6l34.7,6.9l19.5-20.6l1.4,0.3l0-23.5L286,304l-34.7-6.9l-19.5,20.6l-34.7-6.9l-19.5,20.6l-34.7-6.9
		l-19.5,20.6l-18.8-3.7l-0.2,7.1l16.2,3.2l-10.3,10.9c3.5,0.7,8.4,1.7,14.3,2.7l10.8-11.5l34.7,6.9l19.5-20.6L224.5,347.2z
		 M259.8,306l23.5,4.6l-13.2,14l-23.5-4.6L259.8,306z M205.7,319.8l23.5,4.6l-13.1,14l-23.5-4.6L205.7,319.8z M161.8,352.2
		l-23.5-4.6l13.2-14l23.5,4.6L161.8,352.2z"/>
	<path d="M134.4,315.5l32.4,7l19-19.1l32.4,7l19-19.1l32.4,7l19-19.1l10.9,2.4l0-5.9l-11.9-2.6l12-12l0-7l-10.7-2.3l-19,19.1
		l-32.4-7l-19,19.1l-32.4-7l-19,19.1l-32.4-7l-19,19.1l-10.4-2.2l0,5.8l11.5,2.5l-11.5,11.6l-0.2,7.5l10.4,2.2L134.4,315.5z
		 M249,272.3L271,277l-12.9,12.9l-21.9-4.7L249,272.3z M197.6,284.4l21.9,4.7L206.7,302l-21.9-4.7L197.6,284.4z M146.2,296.5
		l21.9,4.7l-12.9,12.9l-21.9-4.7L146.2,296.5z"/>
	<path d="M253.8,237.8l-30.1-7.2l-18.6,17.6l-30.1-7.2l-18.6,17.6l-30.1-7.2l-18.6,17.6l-2.5-0.6l0,4.4l7.3,1.7l-7.3,6.9l0,10.6
		l9.3,2.2l18.6-17.6l30.1,7.2l18.6-17.6l30.1,7.2l18.6-17.6l30.1,7.2l18.6-17.6l20.4,4.8l0-4.6c-0.5-1.4-1-2.7-1.5-4.1l-3.3,3.1
		l-20.4-4.8l12.6-11.9l7.2,1.7c-0.5-1.6-0.9-3.2-1.3-4.7l-20.4-4.8L253.8,237.8z M148.6,276.2l-20.4-4.8l12.6-11.9l20.4,4.8
		L148.6,276.2z M197.3,265.7l-20.4-4.8l12.6-11.9l20.4,4.8L197.3,265.7z M246.1,255.3l-20.4-4.8l12.6-11.9l20.4,4.8L246.1,255.3z"/>
	<path d="M113.6,254.3l18.1-16.1l27.9,7.3l18.1-16.1l27.9,7.3l18.1-16.1l27.9,7.3l18.1-16.1l21.2,5.5c-1-4.4-1.9-8.8-2.6-13
		l-8.3,7.4l-18.8-4.9l12.3-10.9l14.1,3.7c-0.3-2.2-0.6-4.3-0.8-6.5l-3,2.7l-27.9-7.3l-18.1,16.1l-27.9-7.3l-18.1,16.1l-27.9-7.3
		l-18.1,16.1l-27.9-7.3l-4.9,4.3c-1.3,5.4-2.9,11-4.8,16.7l0.1,0l-0.1,0.1c-0.9,2.8-1.9,5.6-3,8.5l0,7.5L113.6,254.3z M227.5,204.8
		l18.8,4.9L234,220.6l-18.8-4.9L227.5,204.8z M181.5,213.6l18.8,4.9L188,229.4l-18.8-4.9L181.5,213.6z M135.4,222.4l18.8,4.9
		L142,238.2l-18.8-4.9L135.4,222.4z"/>
	<path d="M156,207l17.7-14.6l25.6,7.4l17.7-14.6l25.6,7.4l17.7-14.6l25.6,7.4l0.2-0.2c-1-13.6-0.5-25.4,0.5-34.4l-3.9-1.1L265,164.5
		l-25.6-7.4l-17.7,14.6l-25.6-7.4l-17.7,14.6l-25.6-7.4l-17.7,14.6l-16.3-4.7c-0.6,9.6-1.9,20.2-4.3,31.5l15.9-13L156,207z
		 M260,163.9l17.3,5l-12,9.8l-17.3-5L260,163.9z M216.7,171l17.3,5l-12,9.8l-17.3-5L216.7,171z M173.4,178.2l17.3,5l-12,9.8l-17.3-5
		L173.4,178.2z M130.1,185.3l17.3,5l-12,9.8l-17.3-5L130.1,185.3z"/>
	<polygon points="123.5,149.1 124.5,149.4 125.7,148.5 124.7,148.2 	"/>
	<polygon points="164.1,143.7 141.7,136.4 125.7,148.5 140.5,153.3 130,161.2 152.4,168.5 168.4,156.4 153.6,151.6 	"/>
	<polygon points="206.8,137.6 205.9,137.3 204.7,138.2 205.6,138.5 	"/>
	<polygon points="166.2,143.1 165.3,142.8 164.1,143.7 165,144 	"/>
	<polygon points="247.4,132.1 246.4,131.8 245.2,132.7 246.2,133 	"/>
	<path d="M119.2,168.4l8.7-6.5L119,159C119.1,161.9,119.2,165.1,119.2,168.4z"/>
	<path d="M287.7,126.8c0-0.1,0-0.2-0.1-0.2l-0.7-0.2l-1.2,0.9l0.9,0.3L287.7,126.8z"/>
	<polygon points="127.9,161.9 128.8,162.2 130,161.2 129.1,160.9 	"/>
	<path d="M118.6,152.9l4.9-3.7l-5.4-1.8C118.3,149.1,118.4,150.9,118.6,152.9z"/>
	<polygon points="204.7,138.2 182.3,130.9 166.2,143.1 181.1,147.9 170.6,155.8 193,163.1 209,150.9 194.2,146.1 	"/>
	<polygon points="249.6,145.5 250.5,145.8 251.7,144.9 250.8,144.5 	"/>
	<path d="M247.4,132.1l14.8,4.8l-10.5,7.9l22.4,7.3l13.6-10.3c0.1-0.9,0.3-1.7,0.4-2.5l-12.8-4.2l10.5-7.9l-22.4-7.3L247.4,132.1z"
		/>
	<polygon points="168.4,156.4 169.4,156.7 170.6,155.8 169.6,155.5 	"/>
	<polygon points="209,150.9 210,151.2 211.2,150.3 210.2,150 	"/>
	<polygon points="245.2,132.7 222.9,125.5 206.8,137.6 221.6,142.4 211.2,150.3 233.5,157.6 249.6,145.5 234.8,140.6 	"/>
	<path d="M148.8,130l16.8-11.5l21,7.7l16.8-11.5l21,7.7l16.8-11.5l21,7.7l16.8-11.5l4.2,1.6c-0.5-1.7-1.1-3.5-1.7-5.3l-8.1,5.6
		l-14.2-5.2l11.4-7.8l9.5,3.5c-0.5-1.2-0.9-2.3-1.5-3.5c-0.9-1.9-1.8-3.8-2.7-5.5l-10.9,7.4l-21-7.7l-16.8,11.5l-5.6-2
		c-5.5,2.3-11.6,3.5-18.3,3.5h-1.9c-2.7,0-5.3-0.2-7.8-0.6l-4.2,2.9l-21-7.7l-16.8,11.5l-21-7.7l-9.5,6.5c-0.3,1.1-0.7,2.3-1,3.4
		l13.5,4.9l-11.4,7.8l-4.8-1.8c-0.3,1.3-0.5,2.5-0.8,3.6l-0.5,2.2c-0.2,0.9-0.4,1.7-0.6,2.5l12.3-8.4L148.8,130z M232.9,99.7
		l14.2,5.2l-11.4,7.8l-14.2-5.2L232.9,99.7z M195.1,103.5l14.2,5.2l-11.4,7.8l-14.2-5.2L195.1,103.5z M157.2,107.4l14.2,5.2
		l-11.4,7.8l-14.2-5.2L157.2,107.4z"/>
	<path d="M161.6,81.5l1.4,0.6c-0.9-1.4-1.7-2.8-2.4-4.1l-9.9,6l-12.7-5.3l11.1-6.8l10.7,4.5c-1.7-3.7-3-7.3-3.9-10.7l-1.9,0.5
		c-9.8,3.8-17.3,10.1-23.2,19.3l14.3,6L161.6,81.5z"/>
	<path d="M265.6,76c-0.9-0.9-1.8-1.7-2.7-2.5l-6.7,4.1l-9.8-4.1c-1.1,2.7-2.5,5.4-4.1,8.1l8.4,3.5L265.6,76z"/>
	<path d="M251,66.4l-2.1-0.6c-0.3,1.3-0.7,2.6-1.2,3.9l4.5-2.8C251.8,66.8,251.4,66.6,251,66.4z"/>
	<path d="M558.3,376.1l-19.9-22.2l-37,6.7l-19.9-22.2l-33.5,6.1l-0.4,16.6c0,0,0.3,0.3,0.4,0.3l0,0c0,0,0,0,0,0
		c0,0.1,0.1,0.1,0.2,0.2c0.1,0,0.1,0.1,0.2,0.1c0,0,11.4,5.8,28.5,11.7l18.9-3.4l10.6,11.8c11.8,2.6,24.6,4.3,37.3,4.3
		c2,0,4,0,6-0.1l3-0.5l0.3,0.4c4.3-0.3,8.5-0.7,12.8-1.3l-1.1-1.3l25-4.6l0.9,1c3.9-1,7.6-2,11.2-3l-6.6-7.3L558.3,376.1z
		 M464.5,367.4l-13.4-15l25-4.6l13.4,15L464.5,367.4z M521.4,382.8l-13.4-15l25-4.6l13.4,15L521.4,382.8z"/>
	<path d="M601,324.7l-34.7,6.9l-19.5-20.6l-34.7,6.9l-19.5-20.6L458,304l-9.5-10l0,21.7l16.8,17.8l34.7-6.9l19.5,20.6l34.7-6.9
		l19.5,20.6l34.7-6.9l14.6,15.5c4.9-1.8,9.1-3.5,12.3-4.8L623.2,352l20-4l0-7.1l-22.7,4.5L601,324.7z M473.9,324.6l-13.2-14
		l23.5-4.6l13.2,14L473.9,324.6z M528,338.4l-13.1-14l23.5-4.6l13.1,14L528,338.4z M582.2,352.2l-13.2-14l23.5-4.6l13.2,14
		L582.2,352.2z"/>
	<path d="M640.2,326.3l-12.9-12.9l15.7-3.4l0-5.8l-14.6,3.1l-19-19.1l-32.4,7L558,276l-32.4,7l-19-19.1l-32.4,7l-19-19.1l-6.6,1.4
		l0,12l7.8,7.9l-7.8,1.7l0,5.9l6.8-1.5l19,19.1l32.4-7l19,19.1l32.4-7l19,19.1l32.4-7l19,19.1l14.5-3.1l0-5.9L640.2,326.3z
		 M485.9,289.9L473.1,277l21.9-4.7l12.9,12.9L485.9,289.9z M537.4,302l-12.9-12.9l21.9-4.7l12.9,12.9L537.4,302z M588.8,314.2
		L576,301.2l21.9-4.7l12.9,12.9L588.8,314.2z"/>
	<path d="M464.8,245.5l18.6,17.6l30.1-7.2l18.6,17.6l30.1-7.2l18.6,17.6l30.1-7.2l18.6,17.6l13.5-3.2l0-5.7l-11.5-10.9l11.5-2.7
		l0-4.4l-6.7,1.6l-18.6-17.6l-30.1,7.2l-18.6-17.6l-30.1,7.2l-18.6-17.6l-30.1,7.2l-18.6-17.6l-17.7,4.2c-0.4,1.6-0.9,3.1-1.3,4.7
		l4.5-1.1l12.6,11.9l-20.4,4.8l-0.7-0.7l0,5.2L464.8,245.5z M603.2,259.4l12.6,11.9l-20.4,4.8l-12.6-11.9L603.2,259.4z M554.5,249
		l12.6,11.9l-20.4,4.8l-12.6-11.9L554.5,249z M505.8,238.5l12.6,11.9l-20.4,4.8l-12.6-11.9L505.8,238.5z"/>
	<path d="M492.4,227.9l27.9-7.3l18.1,16.1l27.9-7.3l18.1,16.1l27.9-7.3l18.1,16.1l12.6-3.3l0-7.7c-0.1-0.3-0.2-0.7-0.4-1l-7-6.2
		l4.4-1.2c-1.1-3.4-2.1-6.8-3-10.2l-11-9.8l-27.9,7.3l-18.1-16.1l-27.9,7.3l-18.1-16.1l-27.9,7.3l-18.1-16.1l-27.9,7.3l-0.6-0.5
		c-0.2,1.2-0.3,2.4-0.5,3.6l11.4-3l12.3,10.9l-18.8,4.9l-6-5.3c-0.6,3.3-1.3,6.8-2.1,10.2l18.4-4.8L492.4,227.9z M608.6,222.4
		l12.3,10.9l-18.8,4.9l-12.3-10.9L608.6,222.4z M562.6,213.6l12.3,10.9l-18.8,4.9l-12.3-10.9L562.6,213.6z M516.6,204.8l12.3,10.9
		l-18.8,4.9l-12.3-10.9L516.6,204.8z"/>
	<path d="M483.8,178.2l17.7,14.6l25.6-7.4l17.7,14.6l25.6-7.4L588,207l25.6-7.4l17.7,14.6l3-0.9c-2.6-12.1-3.9-23.4-4.5-33.5
		l-20.9,6.1l-17.7-14.6l-25.6,7.4l-17.7-14.6l-25.6,7.4l-17.7-14.6l-25.6,7.4l-17.7-14.6l-0.8,0.2c0.9,9,1.3,20.9,0.2,34.7
		L483.8,178.2z M614,185.3l12,9.8l-17.3,5l-12-9.8L614,185.3z M570.7,178.2l12,9.8l-17.3,5l-12-9.8L570.7,178.2z M527.4,171l12,9.8
		l-17.3,5l-12-9.8L527.4,171z M484.1,163.9l12,9.8l-17.3,5l-12-9.8L484.1,163.9z"/>
	<path d="M630.9,145.8l-10.3,3.4l9.4,7.1C630.2,152.3,630.5,148.8,630.9,145.8z"/>
	<polygon points="579.9,143.7 578.7,142.8 577.8,143.1 579,144 	"/>
	<path d="M629.9,157.4l-13.7,4.4l13.4,10.1C629.5,166.7,629.6,161.8,629.9,157.4z"/>
	<polygon points="539.4,138.2 538.2,137.3 537.2,137.6 538.4,138.5 	"/>
	<polygon points="620.5,149.1 619.3,148.2 618.4,148.5 619.6,149.4 	"/>
	<polygon points="494.4,145.5 510.5,157.6 532.9,150.3 522.4,142.4 537.2,137.6 521.2,125.5 498.8,132.7 509.3,140.6 	"/>
	<polygon points="575.6,156.4 591.6,168.5 614,161.2 603.6,153.3 618.4,148.5 602.3,136.4 579.9,143.7 590.4,151.6 	"/>
	<polygon points="573.4,155.8 574.7,156.7 575.6,156.4 574.4,155.5 	"/>
	<polygon points="535,150.9 551.1,163.1 573.4,155.8 563,147.9 577.8,143.1 561.7,130.9 539.4,138.2 549.8,146.1 	"/>
	<polygon points="492.3,144.9 493.5,145.8 494.4,145.5 493.2,144.5 	"/>
	<polygon points="498.8,132.7 497.6,131.8 496.7,132.1 497.9,133 	"/>
	<polygon points="532.9,150.3 534.1,151.2 535,150.9 533.8,150 	"/>
	<polygon points="616.2,161.9 615,160.9 614,161.2 615.2,162.2 	"/>
	<path d="M460,144.6l10,7.5l22.4-7.3l-10.5-7.9l14.8-4.8L480.6,120l-20.7,6.7c-0.1,0.5-0.2,1-0.3,1.5c0,0,0,0.1,0,0.1l9.1,6.9
		l-9.7,3.1C459.3,140.1,459.7,142.2,460,144.6z"/>
	<path d="M481.7,118.6l21-7.7l16.8,11.5l21-7.7l16.8,11.5l21-7.7l16.8,11.5l21-7.7l16.5,11.3c0.1-0.3,0.1-0.5,0.2-0.8
		c-0.4-1.4-0.9-3-1.2-4.6c-0.2-0.9-0.4-1.9-0.6-2.9l-0.1-0.4c-0.3-1.2-0.5-2.5-0.8-3.9l-8.4,3.1l-11.4-7.8l14.2-5.2l3.9,2.7
		c-0.2-0.8-0.4-1.6-0.6-2.4l-14.5-9.9l-21,7.7l-16.8-11.5l-21,7.7l-16.8-11.5l-21,7.7l-16.8-11.5l-21,7.7l-8.1-5.5
		c-0.9,1.8-1.8,3.6-2.6,5.5c0,0,0,0,0,0l5.2-1.9l11.4,7.8l-14.2,5.2l-5.2-3.6c-0.2,0.6-0.4,1.2-0.6,1.8l0.2-0.1L481.7,118.6z
		 M586.8,107.4l11.4,7.8l-14.2,5.2l-11.4-7.8L586.8,107.4z M549,103.5l11.4,7.8l-14.2,5.2l-11.4-7.8L549,103.5z M511.1,99.7
		l11.4,7.8l-14.2,5.2l-11.4-7.8L511.1,99.7z"/>
	<path d="M512.2,77.2l16.4,10l18.8-7.9l16.4,10l18.8-7.9l16.4,10l17-7.1c-2.7-3.9-5.7-7.3-8.9-10.4l-1.2,0.5l-16.4-10l-18.8,7.9
		l-16.4-10l-18.8,7.9l-16.4-10L500.3,68l-4.3-2.6l-0.7,0.4c-0.9,0.5-1.8,1.1-2.7,1.7l7.9,4.8l-12.7,5.3l-4.4-2.7
		c-0.9,0.8-1.7,1.7-2.5,2.6l12.5,7.6L512.2,77.2z M594.9,71.9l11.1,6.8L593.3,84l-11.1-6.8L594.9,71.9z M559.8,69.8l11.1,6.8
		l-12.7,5.3l-11.1-6.8L559.8,69.8z M524.6,67.7l11.1,6.8L523,79.7L511.9,73L524.6,67.7z"/>
	<path d="M548,47c-0.9,0-1.9,0-2.8,0c-5.3,0-10.8,0.1-16.6,0.3l9,4.8L548,47z"/>
	<path d="M574,50.6l-2.1-1.4c-0.5-0.4-0.9-0.9-1-1.6c-3.7-0.2-7.4-0.3-10.9-0.4l10,5.3L574,50.6z"/>
</g>
</svg>
