<?xml version="1.0" encoding="utf-8"?>
<!-- Generator: Adobe Illustrator 25.3.0, SVG Export Plug-In . SVG Version: 6.00 Build 0)  -->
<svg version="1.1" id="Layer_1" xmlns="http://www.w3.org/2000/svg" xmlns:xlink="http://www.w3.org/1999/xlink" x="0px" y="0px"
	 viewBox="0 0 750.2 400.1" style="enable-background:new 0 0 750.2 400.1;" xml:space="preserve">
<style type="text/css">
	.st0{fill:none;}
</style>
<g>
	<polygon class="st0" points="252.8,87.2 252.2,87.7 248.4,92.6 252.8,93.9 	"/>
	<polygon class="st0" points="427.6,104.8 429.6,104.2 420.1,104.2 420.1,104.8 	"/>
	<polygon class="st0" points="276.5,283.9 292.8,268 269,264.6 258.8,243.8 271.4,243.8 258.4,217.4 253.2,228 253.2,243.8 
		258.1,243.8 252.8,254.4 252.8,243.9 245.4,243.9 239.3,256.1 217,259.4 223.6,274.2 231.9,275.7 235.7,276.4 247.1,278.5 
		240.1,271.6 252.8,269.8 252.8,269.7 252.8,259.3 258.4,247.9 267.6,266.5 288.2,269.5 273.9,283.4 267.9,282.3 267.6,280.6 
		276.8,271.6 264.1,269.8 258.4,258.3 252.8,269.7 252.8,271.9 254.2,271.7 258.4,263.2 262.7,271.7 272.1,273.1 265.3,279.8 
		265.6,281.9 252.8,279.5 252.8,283.3 290.7,290.2 297,290.2 297,287.7 297,285 294.7,287.2 	"/>
	<polygon class="st0" points="273.8,243.8 271.4,243.8 277.5,256.1 297,258.9 297,256.8 279,254.1 	"/>
	<polygon class="st0" points="541.4,151.1 548.6,151.1 551.1,145.5 	"/>
	<polygon class="st0" points="450.9,100.9 453.4,104.2 439.9,104.2 437.8,104.8 457.5,104.8 453.8,100.1 	"/>
	<polygon class="st0" points="158.2,151.2 133.2,197.4 152,197.4 160.3,182.2 164.9,192.5 164.9,151.9 164.6,151.2 	"/>
	<polygon class="st0" points="209.1,290.1 209.1,289.4 208.1,289.2 187.8,243.8 183.8,243.8 204.6,290.2 209,290.2 209,293.1 
		253.2,301.2 253.2,297.5 213,290.1 	"/>
	<polygon class="st0" points="498.7,196 489.5,152.4 464.3,152.5 464.3,166.6 472.7,183.5 	"/>
	<polygon class="st0" points="252.8,97 246.5,95.1 239,104.7 252.8,104.7 	"/>
	<polygon class="st0" points="502.7,197.4 508,197.4 508,152.4 493.2,152.4 	"/>
	<polygon class="st0" points="206.3,235.4 209,234.1 209,197.5 193,197.5 191.8,203.2 	"/>
	<polygon class="st0" points="523.1,130.3 536.9,148 538.9,145.9 545.6,106.6 	"/>
	<polygon class="st0" points="214.4,197.4 223.8,152.4 209.1,152.4 209.1,197.4 	"/>
	<polygon class="st0" points="556.8,182.2 565.1,197.4 583.9,197.4 558.9,151.2 552.5,151.2 552.2,151.9 552.2,192.5 	"/>
	<polygon class="st0" points="250.8,197.4 252.8,193.4 252.8,171.4 240,197.4 	"/>
	<polygon class="st0" points="182.8,149.4 209,149.5 209,115.7 	"/>
	<polygon class="st0" points="218.4,196 244.4,183.5 252.8,166.6 252.8,152.5 227.6,152.4 	"/>
	<polygon class="st0" points="468.7,92.6 464.9,87.7 464.3,87.2 464.3,93.9 	"/>
	<polygon class="st0" points="487.1,111.5 484.1,112.4 496.4,128.2 463.9,128.3 463.9,131.2 502.3,131.1 	"/>
	<polygon class="st0" points="508.1,115.7 508.1,149.5 534.3,149.4 	"/>
	<polygon class="st0" points="187.8,243.8 206,243.8 185.3,197.5 167.1,197.5 	"/>
	<polygon class="st0" points="508.1,234.1 510.8,235.4 525.2,203.2 524.1,197.5 508.1,197.5 	"/>
	<polygon class="st0" points="287.4,245.7 297,247.1 297,244.9 289,243.8 286.5,243.8 	"/>
	<polygon class="st0" points="211.4,106 212.2,106.9 209,111.1 209,115.7 215.6,107.3 	"/>
	<polygon class="st0" points="529.3,243.8 550,197.5 531.8,197.5 511.1,243.8 	"/>
	<polygon class="st0" points="168.5,151.1 175.7,151.1 166,145.5 	"/>
	<polygon class="st0" points="252.8,193.4 252.8,197.4 250.8,197.4 228,243.7 226.9,243.9 230.3,243.9 253.2,197.5 253.2,197.5 
		253.2,197.5 258.4,186.9 263.7,197.5 266.1,197.5 258.4,182 	"/>
	<polygon class="st0" points="463.9,223.2 463.9,228 471.7,243.9 474.1,243.9 	"/>
	<polygon class="st0" points="538,356.8 515.5,336.5 510,336.5 534.2,358.3 530.9,382.9 534.6,382.9 	"/>
	<polygon class="st0" points="209.1,250.7 209.1,289.4 213,290.1 252.8,290.1 252.8,283.3 221,277.4 	"/>
	<polygon class="st0" points="549.3,365.3 551.4,349.2 539.3,338.2 548.8,336.5 531.9,336.5 547.5,350.6 544.7,372.2 552.2,367.9 
		552.2,363.7 	"/>
	<polygon class="st0" points="572.1,331.3 561.7,312.1 552.8,332 552.3,332.1 552.3,335.8 555.4,335.2 562,320.3 569.8,334.7 
		586.1,336.4 585.9,336.6 591,336.6 593.8,333.6 	"/>
	<polygon class="st0" points="250.9,279.2 252.8,279.5 252.8,271.9 244.7,273.1 	"/>
	<polygon class="st0" points="120.7,102.7 120.7,100.3 100.8,89.8 76.5,102.6 76.5,104.8 76.8,104.8 100.8,92.3 	"/>
	<polygon class="st0" points="463.9,329.4 463.9,334.4 466.4,336.6 471.8,336.6 	"/>
	<polygon class="st0" points="212,248.2 216.1,257.3 237.9,254.1 243,243.9 230.3,243.9 229.4,245.7 	"/>
	<polygon class="st0" points="471.8,336.6 508,369.3 508,336.6 	"/>
	<polygon class="st0" points="243,243.9 245.4,243.9 253.2,228 253.2,223.2 	"/>
	<polygon class="st0" points="258.4,212.5 273.8,243.8 286.5,243.8 263.7,197.5 253.2,197.5 253.2,197.5 253.2,223.2 	"/>
	<polygon class="st0" points="611.4,336.5 616.8,336.5 620.9,326.5 	"/>
	<polygon class="st0" points="126.1,197.4 129,197.4 136.2,184.1 	"/>
	<polygon class="st0" points="464.3,171.4 464.3,193.4 466.2,197.4 477.1,197.4 	"/>
	<polygon class="st0" points="211.1,246.2 226.9,243.9 210.1,243.9 	"/>
	<polygon class="st0" points="253.2,321.6 253.2,329.4 260.4,322.9 	"/>
	<polygon class="st0" points="611.4,336.5 606.3,336.5 596.4,346.8 596.4,352.2 	"/>
	<polygon class="st0" points="596.4,352.2 592.7,356.1 596.4,373.7 	"/>
	<polygon class="st0" points="207.6,238.4 209,241.4 209,238.2 	"/>
	<polygon class="st0" points="213.3,202.5 224,197.4 214.4,197.4 	"/>
	<polygon class="st0" points="224,197.4 237.6,197.4 241.8,188.9 	"/>
	<polygon class="st0" points="142.9,152.9 143.3,151.2 134.5,151.2 130.2,171.8 147.3,163.6 154,151.2 146.6,151.2 	"/>
	<polygon class="st0" points="213.3,330.8 209,330 209,334.8 	"/>
	<polygon class="st0" points="307,131.3 306.8,131.3 307.1,131.4 	"/>
	<polygon class="st0" points="158,242.4 158.6,243.9 162.7,243.9 158.3,234.1 153,243.9 157.2,243.9 	"/>
	<polygon class="st0" points="642.1,274.4 640.6,274.3 640.6,278 	"/>
	<polygon class="st0" points="156.2,197.4 163.1,197.4 160,190.5 	"/>
	<polygon class="st0" points="167.1,197.5 164.9,192.5 164.9,197.5 	"/>
	<polygon class="st0" points="163.1,197.4 164.8,201.2 164.8,197.4 	"/>
	<polygon class="st0" points="479.2,254.1 501,257.3 505.1,248.2 487.7,245.7 486.8,243.9 474.1,243.9 	"/>
	<polygon class="st0" points="480,74.9 489.9,65.9 471.5,64 	"/>
	<polygon class="st0" points="209,313.4 253.2,321.6 253.2,317.8 209,309.7 	"/>
	<polygon class="st0" points="179.4,290.2 164.9,290.2 164.9,257.8 158.6,243.9 157.2,243.9 132.2,290.1 154.2,290.1 156.3,286.1 
		158.1,290.1 164.8,290.1 164.8,304.9 173.1,323.4 209,330 209,313.4 188,309.6 	"/>
	<polygon class="st0" points="507,243.9 490.2,243.9 506,246.2 	"/>
	<polygon class="st0" points="504.1,290.1 508,289.4 508,250.7 496.1,277.4 464.3,283.3 464.3,290.1 	"/>
	<polygon class="st0" points="209.1,243.9 210.1,243.9 209,241.4 209,243.8 206,243.8 209.1,250.7 	"/>
	<polygon class="st0" points="508.1,290.2 512.5,290.2 533.3,243.8 529.3,243.8 508.9,289.2 508,289.4 508,290.1 504.1,290.1 
		463.9,297.5 463.9,301.2 508.1,293.1 	"/>
	<path class="st0" d="M240,197.4h-2.4l-14.9,30.1l-13.8,6.6v4.1l11.7-1.7L240,197.4z M219.3,234.6l-4,0.6l4.8-2.3L219.3,234.6z"/>
	<polygon class="st0" points="190.6,306.3 209,309.7 209,293.1 205.6,292.5 204.6,290.2 183.4,290.2 	"/>
	<polygon class="st0" points="164.8,243.9 162.7,243.9 164.9,248.8 164.9,243.8 183.8,243.8 164.8,201.2 	"/>
	<polygon class="st0" points="508.1,313.4 508.1,309.7 463.9,317.8 463.9,321.6 	"/>
	<polygon class="st0" points="463.9,329.4 463.9,321.6 456.7,322.9 	"/>
	<polygon class="st0" points="164.9,257.8 179.4,290.2 183.4,290.2 164.9,248.8 	"/>
	<polygon class="st0" points="472.4,273.1 464.3,271.9 464.3,279.5 466.2,279.2 	"/>
	<polygon class="st0" points="120.7,82.7 120.7,80.2 100.8,69.7 76.5,82.5 76.5,85 100.8,72.2 	"/>
	<polygon class="st0" points="152,197.4 126.9,243.9 131,243.9 156.2,197.4 	"/>
	<polygon class="st0" points="533.7,290.2 512.5,290.2 511.5,292.5 508.1,293.1 508.1,309.7 526.5,306.3 	"/>
	<polygon class="st0" points="552.2,248.8 554.4,243.9 552.3,243.9 552.3,201.2 533.3,243.8 552.2,243.8 	"/>
	<polygon class="st0" points="289.5,104.8 297,104.8 297,104.2 287.5,104.2 	"/>
	<polygon class="st0" points="552.3,304.9 552.3,290.1 558.9,290.1 560.7,286.1 562.9,290.1 584.9,290.1 559.9,243.9 558.4,243.9 
		552.2,257.8 552.2,290.2 537.7,290.2 529.1,309.6 508.1,313.4 508.1,330 544,323.4 	"/>
	<polygon class="st0" points="410,131.4 410.3,131.3 410.1,131.3 	"/>
	<polygon class="st0" points="564.1,243.9 589.1,290.1 596.4,290.1 596.4,263 586.1,243.9 	"/>
	<polygon class="st0" points="552.2,192.5 550,197.5 552.2,197.5 	"/>
	<polygon class="st0" points="590.2,243.9 596.4,255.3 596.4,243.9 	"/>
	<polygon class="st0" points="511.8,333.1 515.5,336.5 531.9,336.5 531.3,335.9 552.3,332.1 552.3,313.9 546.6,326.7 	"/>
	<polygon class="st0" points="609,243.8 596.5,220.7 596.5,243.8 	"/>
	<polygon class="st0" points="586.1,243.9 590.2,243.9 565.1,197.4 560.9,197.4 	"/>
	<polygon class="st0" points="558.8,234.1 554.4,243.9 558.4,243.9 559.1,242.4 559.9,243.9 564.1,243.9 	"/>
	<polygon class="st0" points="552.2,382.9 552.2,381.1 549.1,382.9 	"/>
	<polygon class="st0" points="640.6,262.7 640.6,258.9 629.1,243.8 626.3,243.8 	"/>
	<polygon class="st0" points="591,197.4 596.5,204.7 596.5,200.9 593.9,197.4 	"/>
	<polygon class="st0" points="599.8,58.3 597.9,59.3 598.1,58.3 596.5,58.3 596.5,54.8 595.9,58.5 596.4,58.5 596.4,62.6 
		604.5,58.3 	"/>
	<polygon class="st0" points="606.9,197.5 609.8,197.5 608.3,195.7 614.8,197.5 623.1,197.5 602.4,191.6 	"/>
	<polygon class="st0" points="589.1,290.1 584.9,290.1 594.1,307.1 596.5,307.4 596.5,303.7 596.4,303.7 	"/>
	<polygon class="st0" points="618.8,254.2 613.2,243.8 609,243.8 624.6,272.6 640.6,274.3 640.6,270.6 626.9,269.1 621.8,259.7 
		640.6,268.7 640.6,264.6 	"/>
	<polygon class="st0" points="562.9,290.1 558.9,290.1 552.3,304.9 552.3,313.9 561.1,294.4 577.9,325.5 596.5,327.5 596.5,323.8 
		580.2,322.1 	"/>
	<polygon class="st0" points="596.5,303.7 628.8,307.1 635.2,291.4 624.3,290.2 596.5,290.2 	"/>
	<polygon class="st0" points="636.6,287.9 612.6,285.3 596.4,255.3 596.4,263 610.3,288.7 624.3,290.2 639.1,290.2 640.6,286.4 
		640.6,278 	"/>
	<polygon class="st0" points="508.1,238.2 508.1,241.4 509.5,238.4 	"/>
	<polygon class="st0" points="586.9,171.8 582.6,151.2 573.8,151.2 574.2,152.9 570.5,151.2 563.1,151.2 569.8,163.6 	"/>
	<rect x="120.5" y="104.7" class="st0" width="0.1" height="0.1"/>
	<polygon class="st0" points="580.9,184.1 588.1,197.4 591,197.4 	"/>
	<polygon class="st0" points="508.1,243.8 508.1,241.4 507,243.9 508,243.9 508,250.7 511.1,243.8 	"/>
	<polygon class="st0" points="593.9,197.4 596.4,197.4 596.4,179.2 575.4,173.1 	"/>
	<polygon class="st0" points="533.7,290.2 537.7,290.2 552.2,257.8 552.2,248.8 	"/>
	<polygon class="st0" points="607.7,219.3 597.3,214.4 613.2,243.8 626.3,243.8 	"/>
	<polygon class="st0" points="643,265.7 640.6,262.7 640.6,264.6 	"/>
	<polygon class="st0" points="320,107.2 297.4,107.2 325.5,115.5 	"/>
	<polygon class="st0" points="602.8,213 596.5,204.7 596.5,209.9 	"/>
	<polygon class="st0" points="620.9,326.4 627.3,310.7 596.5,307.4 596.5,323.8 	"/>
	<polygon class="st0" points="596.5,209.9 594.3,208.9 588.1,197.4 583.9,197.4 596.5,220.7 	"/>
	<path class="st0" d="M494.4,227.5l-14.9-30.1h-2.4l19.3,39.1l11.7,1.7v-4.1L494.4,227.5z M497.8,234.6l-0.9-1.7l4.8,2.3
		L497.8,234.6z"/>
	<polygon class="st0" points="552.2,336.5 552.2,363.7 563.4,357.2 578.2,364.2 574.8,348.3 585.9,336.6 552.3,336.6 552.3,335.8 
		548.8,336.5 	"/>
	<polygon class="st0" points="503.8,330.8 508.1,334.8 508.1,330 	"/>
	<polygon class="st0" points="606.3,336.5 613.1,329.3 596.5,327.5 596.5,336.5 	"/>
	<polygon class="st0" points="508.1,336.5 510,336.5 508.1,334.8 	"/>
	<polygon class="st0" points="552.3,197.4 552.3,201.2 554,197.4 	"/>
	<polygon class="st0" points="502.7,197.4 493.1,197.4 503.8,202.5 	"/>
	<polygon class="st0" points="475.3,188.9 479.5,197.4 493.1,197.4 	"/>
	<polygon class="st0" points="557.1,190.5 554,197.4 560.9,197.4 	"/>
	<polygon class="st0" points="508,67.9 494.8,66.5 482.2,77.8 485.2,81.7 485.6,81.9 487.9,82.2 487,83 507.8,98.5 508,98.3 	"/>
	<polygon class="st0" points="546.7,100.1 542.3,104.8 548.1,104.8 552.2,81 552.2,68.3 	"/>
	<polygon class="st0" points="220.7,128.2 233,112.4 230,111.5 214.8,131.1 253.2,131.2 253.2,128.3 	"/>
	<polygon class="st0" points="552.2,63.2 552.2,68.3 553,63.9 	"/>
	<polygon class="st0" points="209,111.1 209,105.3 207.4,104.8 174.8,104.8 196.3,127.4 	"/>
	<polygon class="st0" points="180.2,148 194,130.3 171.5,106.6 178.2,145.9 	"/>
	<polygon class="st0" points="158.3,104.7 156.1,104.7 158.8,120.3 129,104.7 124.4,104.7 161.6,124.3 	"/>
	<polygon class="st0" points="144.4,169 139.5,171.4 143.8,170.1 	"/>
	<polygon class="st0" points="508.1,105.3 508.1,111.1 520.8,127.4 542.3,104.8 509.7,104.8 	"/>
	<rect x="120.5" y="151.1" class="st0" width="0.1" height="0.1"/>
	<polygon class="st0" points="130.8,151.2 120.7,151.2 120.7,176.8 125.7,175.3 	"/>
	<path class="st0" d="M130.8,151.2h3.7l3-14.1l-15-15.7l24.4,12.8l-3.6,17h3.3l10-4.8l-2.6,4.8h4.2l3.5-6.4l2.9,6.4h0.2v-10
		l-0.9-0.5l-1.9-4.2l-1.4,2.5l-40.1-21.1v6.7l12.9,13.6L130.8,151.2z M150.2,136l9.4,4.9l0,0l-11.6,5.5L150.2,136z"/>
	<polygon class="st0" points="502.6,103.9 505.7,100.7 492.1,90.5 502.6,103.9 	"/>
	<polygon class="st0" points="277.2,104.2 263.7,104.2 266.2,100.9 263.3,100.1 259.6,104.8 279.3,104.8 	"/>
	<polygon class="st0" points="105.7,336.5 120.7,352.2 120.7,346.8 110.8,336.5 	"/>
	<polygon class="st0" points="485.2,109.1 481.8,104.7 478.1,104.7 482.2,110 	"/>
	<polygon class="st0" points="123.2,197.4 141.7,173.1 120.7,179.2 120.7,197.4 	"/>
	<polygon class="st0" points="253.2,118.4 253.2,128.3 286.6,128.4 	"/>
	<polygon class="st0" points="499.9,104.7 499.5,104.7 499.6,104.8 	"/>
	<polygon class="st0" points="552.2,60.2 550.4,58.3 547.3,58.3 552.2,63.2 	"/>
	<polygon class="st0" points="217.5,104.8 217.6,104.7 217.2,104.7 	"/>
	<polygon class="st0" points="234.9,110 239,104.7 235.3,104.7 231.9,109.1 	"/>
	<polygon class="st0" points="534.2,70.7 508,98.3 508,98.7 510.7,100.7 542,67.8 508,64.2 508,67.9 	"/>
	<polygon class="st0" points="131,336.4 147.3,334.7 155,320.3 161.7,335.2 164.8,335.8 164.8,332.1 164.3,332 155.4,312.1 
		145,331.3 123.3,333.6 126.1,336.6 131.2,336.6 	"/>
	<polygon class="st0" points="209,334.8 207.1,336.5 209,336.5 	"/>
	<polygon class="st0" points="170.5,326.7 164.8,313.9 164.8,332.1 185.7,335.9 185.2,336.5 201.6,336.5 205.3,333.1 	"/>
	<polygon class="st0" points="588.1,104.7 596.4,100.3 596.4,82.7 575.3,93.8 581.3,58.5 568.9,58.5 561,104.7 	"/>
	<polygon class="st0" points="573.3,170.1 577.6,171.4 572.7,169 	"/>
	<polygon class="st0" points="164.8,336.6 131.2,336.6 142.3,348.3 138.9,364.2 153.7,357.2 164.9,363.7 164.9,336.5 168.3,336.5 
		164.8,335.8 	"/>
	<polygon class="st0" points="596.4,104.7 596.4,102.7 592.7,104.7 	"/>
	<polygon class="st0" points="586.3,151.2 591.4,175.3 596.4,176.8 596.4,151.2 	"/>
	<rect x="596.4" y="151.1" class="st0" width="0.1" height="0.1"/>
	<polygon class="st0" points="245.3,336.6 209.1,336.6 209.1,369.3 	"/>
	<polygon class="st0" points="253.2,329.4 245.3,336.6 250.7,336.6 253.2,334.4 	"/>
	<rect x="596.4" y="104.7" class="st0" width="0.1" height="0.1"/>
	<polygon class="st0" points="133.2,197.4 129,197.4 122.8,208.9 120.5,209.9 120.5,220.7 	"/>
	<polygon class="st0" points="156,294.4 164.8,313.9 164.8,304.9 158.1,290.1 154.2,290.1 136.9,322.1 120.5,323.8 120.5,327.5 
		139.2,325.5 	"/>
	<polygon class="st0" points="120.5,220.7 108.1,243.8 120.5,243.8 	"/>
	<polygon class="st0" points="123.2,197.4 120.5,200.9 120.5,204.7 126.1,197.4 	"/>
	<polygon class="st0" points="505.7,106 501.5,107.3 508.1,115.7 508.1,111.1 504.9,106.9 	"/>
	<polygon class="st0" points="120.7,243.9 120.7,255.3 126.9,243.9 	"/>
	<path class="st0" d="M552.5,151.2l2.9-6.4l3.5,6.4h4.2l-2.6-4.8l10,4.8h3.3l-3.6-17l24.4-12.8l-15,15.7l3,14.1h3.7l-2.7-12.9
		l12.9-13.6v-6.7L556.5,139l-1.4-2.5l-1.9,4.2l-0.9,0.5v10H552.5z M566.8,136l2.2,10.5l-11.6-5.5l0,0L566.8,136z"/>
	<polygon class="st0" points="592.7,104.7 588.1,104.7 558.3,120.3 561,104.7 558.8,104.7 555.5,124.3 	"/>
	<polygon class="st0" points="132.2,290.1 128,290.1 120.7,303.7 120.5,303.7 120.5,307.4 123,307.1 	"/>
	<polygon class="st0" points="128,290.1 153,243.9 131,243.9 120.7,263 120.7,290.1 	"/>
	<polygon points="573.8,151.2 570.5,151.2 574.2,152.9 	"/>
	<path d="M251.2,50c0,0.9-0.1,2.2-0.2,3.8l2-0.4l-1.1-3.5L251.2,50z"/>
	<path d="M251.8,66.7l-4.1,3.1c-0.6,1.7-1.2,3.4-2,5.2l7.1-5.3v-2.5C252.5,67,252.1,66.9,251.8,66.7z"/>
	<polygon points="260.4,52.1 253.2,49.9 253.2,53.4 	"/>
	<polygon points="207.4,104.8 209,105.3 209,104.8 	"/>
	<polygon points="320.4,137.7 319.5,135.1 318.7,134.9 311.4,132.7 313.7,136.2 	"/>
	<polygon points="306.8,131.3 294.1,131.3 294.7,131.9 302,133.5 301,132.6 309.5,135.2 307.1,131.4 	"/>
	<polygon points="271.7,55.5 268.2,54.4 263,58.3 267.9,58.3 	"/>
	<path d="M296.9,128.4l-8.2-2.4c0.1,0.5,0.2,0.9,0.3,1.4c0.1,0.4,0.2,0.7,0.3,1.1L296.9,128.4z"/>
	<polygon points="209.1,104.7 210.2,104.7 209.1,103.6 	"/>
	<polygon points="214.5,103.9 214.5,103.9 214.5,104 	"/>
	<polygon points="234.9,110 231.9,109.1 230,111.5 233,112.4 	"/>
	<polygon points="217.5,104.8 217.2,104.7 210.2,104.7 211.4,106 215.6,107.3 	"/>
	<path d="M286.6,128.4l1.5,0c0-0.1-0.1-0.2-0.1-0.4c-0.2-0.8-0.3-1.5-0.5-2.4l-34.3-10.2v3L286.6,128.4z"/>
	<path d="M209.1,102.8c-0.2,0-0.5,0-0.7,0.1l0.7,0.7V102.8z"/>
	<path d="M460.6,151.1h3.3v-1.5l-3.4,0C460.6,150,460.6,150.5,460.6,151.1z"/>
	<polygon points="463.9,197.5 463.9,197.5 463.9,197.5 	"/>
	<polygon points="464.3,197.4 466.2,197.4 464.3,193.4 	"/>
	<path d="M458.7,212.5l-3.6,7.2c-0.9,3.6-1.9,7.3-3,11l6.6-13.3l5.3,10.6v-4.9L458.7,212.5z"/>
	<polygon points="479.2,254.1 474.1,243.9 471.7,243.9 477.8,256.1 500.1,259.4 501,257.3 	"/>
	<polygon points="508,250.7 508,243.9 507,243.9 506,246.2 490.2,243.9 486.8,243.9 487.7,245.7 505.1,248.2 501,257.3 500.1,259.4 
		493.5,274.2 485.2,275.7 481.4,276.4 470,278.5 477,271.6 464.3,269.8 464.3,269.7 464.3,271.9 472.4,273.1 466.2,279.2 
		464.3,279.5 464.3,283.3 496.1,277.4 	"/>
	<polygon points="592.7,104.7 596.4,102.7 596.4,100.3 588.1,104.7 	"/>
	<polygon points="640.2,104.8 677.2,124.3 668.1,71.2 665.8,70.5 674.4,120.3 640.6,102.6 640.6,104.8 	"/>
	<polygon points="568.9,58.5 566.7,58.5 558.8,104.7 561,104.7 	"/>
	<polygon points="553,63.9 552.2,68.3 552.2,81 555.3,63.1 554.9,62.7 552.2,60.2 552.2,63.2 	"/>
	<path d="M538.8,47.1c-5.2,0.1-10.7,0.2-16.4,0.4c-0.1,0.7-0.5,1.3-1.1,1.7l18.6,2l7.4,7.2h3.1L538.8,47.1z"/>
	<path d="M511.4,48.1l8,0.9l1.8-1.2c-2.1,0.1-7.5,0.2-9.4,0.3L511.4,48.1z"/>
	<polygon points="598.1,58.3 599.5,50.5 597.4,49.9 596.5,54.8 596.5,58.3 	"/>
	<polygon points="612.1,54.3 609.2,53.4 599.8,58.3 604.5,58.3 	"/>
	<polygon points="595.9,58.5 595.1,63.3 596.4,62.6 596.4,58.5 	"/>
	<polygon points="652.7,66.6 650.4,65.9 654.5,89.8 640.6,82.5 640.6,85 657.4,93.8 	"/>
	<polygon points="596.4,82.7 596.4,80.2 578.1,89.8 583.5,58.5 581.3,58.5 575.3,93.8 	"/>
	<polygon points="259.1,78.9 252.8,83.6 252.8,86.9 	"/>
	<polygon points="266.2,100.9 268.2,98.5 265.2,97.6 263.3,100.1 	"/>
	<polygon points="252.8,86.9 252.2,87.7 252.8,87.2 	"/>
	<path d="M277.2,104.2l2.1,0.6h2.9c-0.1-0.2-0.1-0.4-0.2-0.6L277.2,104.2z"/>
	<polygon points="252.8,93.9 248.4,92.6 246.5,95.1 252.8,97 	"/>
	<polygon points="297.4,107.2 287.1,107.1 328,119.3 325.5,115.5 	"/>
	<polygon points="336.4,141.3 339.7,142 336.2,131.7 329.9,122.2 	"/>
	<path d="M289.5,104.8l-2.1-0.6l-3.9,0c0.1,0.2,0.1,0.4,0.2,0.6H289.5z"/>
	<polygon points="331.2,117.2 330.5,117 329.9,116.8 332.4,120.7 	"/>
	<polygon points="240,93.2 243.5,94.2 250.3,85.4 	"/>
	<polygon points="398.6,143.4 402.7,142.5 407.5,135.2 403.2,136.5 	"/>
	<path d="M423,131.3l32.6-0.1l1.9-0.4l0,0.1c0.2-0.8,0.5-1.7,0.7-2.6l-27.7,0.1l-6.2,1.8L423,131.3z"/>
	<path d="M459.6,128.3c-0.2,1-0.5,2-0.7,2.9l5.1,0v-2.9L459.6,128.3z"/>
	<polygon points="410.1,131.3 410.3,131.3 420.2,128.4 408.5,128.4 405.7,132.7 410,131.4 	"/>
	<path d="M464.9,87.7l3.8,4.9l0.2-0.1c0.2-0.4,0.4-0.9,0.7-1.3L464.9,87.7z"/>
	<polygon points="473.6,94.2 470.6,95.1 478.1,104.7 481.8,104.7 	"/>
	<polygon points="466.7,85.4 464.3,82.3 464.3,83.6 	"/>
	<polygon points="481.3,78.7 485.2,81.7 482.2,77.8 	"/>
	<polygon points="507.9,102.3 505.7,100.7 502.6,103.9 	"/>
	<polygon points="508,67.9 508,64.2 499.3,63.3 496,65.3 494.8,66.5 	"/>
	<polygon points="507.8,98.5 508,98.7 508,98.3 	"/>
	<polygon points="502.6,103.9 492.1,90.5 483.4,83.9 499.5,104.7 499.9,104.7 	"/>
	<polygon points="480,74.9 471.5,64 489.9,65.9 493.5,62.6 468.3,60 467.4,58.7 464.4,59.6 476.5,75.1 478.3,76.4 	"/>
	<polygon points="485.6,81.9 487,83 487.9,82.2 	"/>
	<path d="M552.3,151.2v-10l-11.5,6l7.3-42.4h-5.8l-21.5,22.6l-12.7-16.3v4.7l26.2,33.7l-26.2,0.1v1.6h33.2l9.7-5.6l-2.5,5.6h3.6v0.8
		l0.3-0.7H552.3z M536.9,148l-13.8-17.7l22.5-23.7l-6.7,39.3L536.9,148z"/>
	<polygon points="479.5,197.4 475.3,188.9 493.1,197.4 502.7,197.4 493.2,152.4 508,152.4 508,151.2 464.3,151.2 464.3,152.5 
		489.5,152.4 498.7,196 472.7,183.5 464.3,166.6 464.3,171.4 477.1,197.4 	"/>
	<polygon points="356.5,81.1 357,82.8 357.5,81.4 	"/>
	<polygon points="362,97.4 363.2,92 360.1,82.8 358.5,87.2 	"/>
	<polygon points="410.3,80.1 396.5,80.1 386.7,83.1 416.2,83 410.6,75.9 407.7,76.8 	"/>
	<polygon points="307.5,66.3 304,65.2 297,70.5 297,74.1 	"/>
	<polygon points="342.4,99.3 354.1,133.6 355.3,128.2 347.2,104.5 341.6,96 297,82.8 297,85.8 	"/>
	<polygon points="420.1,104.8 420.1,104.2 395.5,104.3 390.9,111.3 391.7,115.2 397,107.2 419.7,107.2 427.6,104.8 	"/>
	<polygon points="430,107.1 459.3,107.1 457.5,104.8 437.8,104.8 	"/>
	<polygon points="586.1,243.9 596.4,263 596.4,255.3 590.2,243.9 	"/>
	<polygon points="552.3,197.4 554,197.4 557.1,190.5 560.9,197.4 565.1,197.4 556.8,182.2 552.2,192.5 552.2,197.5 550,197.5 
		529.3,243.8 533.3,243.8 552.3,201.2 	"/>
	<polygon points="508,290.1 508,289.4 504.1,290.1 	"/>
	<polygon points="512.5,290.2 508.1,290.2 508.1,293.1 511.5,292.5 	"/>
	<polygon points="448.6,300.3 448.6,304.1 463.9,301.2 463.9,297.5 	"/>
	<polygon points="692.9,140.7 688.2,113.5 708.2,92.5 709.7,85.6 687.4,109 682.4,79.6 703.7,81.9 684.6,76.1 681.8,75.8 
		681.7,75.2 679.4,74.6 691.2,143.5 694.6,144.2 697.2,141.5 698.8,134.6 	"/>
	<path d="M604.7,116l11.6-6.1l12.9,6.8c-0.2-0.9-0.4-1.8-0.7-2.8l-12.3-6.4l-19.8,10.4v6.7L604.7,116z"/>
	<polygon points="640.6,348.4 640.6,350.9 643.2,350.9 643.2,348.3 	"/>
	<path d="M632.2,129.8c-0.1-0.5-0.2-1-0.4-1.5c-0.2-0.9-0.4-1.9-0.6-2.8l-23.7,25l0.1,0.6h4.3L632.2,129.8z"/>
	<path d="M630.9,117.6l5.2,2.7l-3.8,4c0.2,1.1,0.5,2.2,0.7,3.1c0.1,0.4,0.2,0.8,0.3,1.2l6.2-6.5l23.6,12.4l-2.2,2.3l4.2,0.9l1.4-1.4
		l5.7,3l7.9,1.7l-49.9-26.2C630.5,115.7,630.7,116.7,630.9,117.6z"/>
	<polygon points="510.8,235.4 508.1,234.1 508.1,238.2 509.5,238.4 508.1,241.4 508.1,243.8 511.1,243.8 531.8,197.5 524.1,197.5 
		525.2,203.2 	"/>
	<polygon points="624.3,290.2 635.2,291.4 628.8,307.1 596.5,303.7 596.5,307.4 627.3,310.7 620.9,326.4 596.5,323.8 596.5,327.5 
		613.1,329.3 606.3,336.5 611.4,336.5 620.9,326.5 616.8,336.5 620.2,336.5 639.1,290.2 	"/>
	<polygon points="558.9,290.1 562.9,290.1 560.7,286.1 	"/>
	<polygon points="544,323.4 508.1,330 508.1,334.8 510,336.5 515.5,336.5 511.8,333.1 546.6,326.7 552.3,313.9 552.3,304.9 	"/>
	<path d="M549.1,382.9l-5.5,3.2c0.1,0,0.2,0,0.2,0c2.5,0,5-0.1,7.5-0.2l13-7.5l10,4.8c2-0.4,4.1-0.7,6.1-1.2l-16.2-7.8l-11.9,6.8
		v1.8H549.1z"/>
	<path d="M530.5,385.5c1.2,0.1,2.4,0.2,3.7,0.3l0.4-2.8h-3.7L530.5,385.5z"/>
	<path d="M592.7,356.1l3.7-3.9v-5.3l-7.7,8.1l5,24c0.9-0.2,1.8-0.5,2.6-0.7v-4.5L592.7,356.1z"/>
	<polygon points="559.9,243.9 584.9,290.1 589.1,290.1 564.1,243.9 	"/>
	<polygon points="537.7,290.2 533.7,290.2 526.5,306.3 508.1,309.7 508.1,313.4 529.1,309.6 	"/>
	<path d="M466.4,336.6l41,37.1l-1.1,8.1c0.6,0.1,1.1,0.2,1.7,0.4v-12.8l-36.2-32.7H466.4z"/>
	<polygon points="552.2,248.8 552.2,257.8 558.4,243.9 554.4,243.9 	"/>
	<polygon points="456.7,322.9 463.9,321.6 463.9,317.8 448.7,320.6 463.9,334.4 463.9,329.4 	"/>
	<polygon points="574.8,348.3 578.2,364.2 563.4,357.2 552.2,363.7 552.2,367.9 563.6,361.3 583.3,370.8 578.8,349.4 591,336.6 
		585.9,336.6 	"/>
	<polygon points="531.9,336.5 548.8,336.5 552.3,335.8 552.3,332.1 531.3,335.9 	"/>
	<polygon points="634.6,333 643.2,333 643.2,330.5 639,330.5 643.2,320.2 643.2,315.3 643,315.3 643,312.3 	"/>
	<path d="M632.3,202.6c-0.1-0.8-0.3-1.7-0.4-2.5l-8.9-2.6h-8.2L632.3,202.6z"/>
	<path d="M643.1,245.1l0-1.8c-0.4-1.2-0.9-2.4-1.3-3.6l-32.1-42.2h-2.9L643.1,245.1z"/>
	<path d="M586.3,151.2h-3.7l4.3,20.6l-17.2-8.2l-6.7-12.4h-4.2l25,46.2h4.2l-7.2-13.3l10.1,13.3h2.9l-18.5-24.3l21,6v-2.4l-5-1.4
		L586.3,151.2z M573.3,170.1l-0.6-1.1l4.9,2.3L573.3,170.1z"/>
	<polygon points="602.8,213 596.5,209.9 596.5,220.7 609,243.8 613.2,243.8 597.3,214.4 607.7,219.3 626.3,243.8 629.1,243.8 
		596.5,200.9 596.5,204.7 	"/>
	<polygon points="642.1,274.4 640.6,278 640.6,286.4 643.1,280.4 643.1,270.8 640.6,270.6 640.6,274.3 	"/>
	<polygon points="643,265.7 640.6,264.6 640.6,268.7 643.1,269.9 643.1,262.1 640.6,258.9 640.6,262.7 	"/>
	<polygon points="569.1,146.4 566.8,136 557.5,140.9 557.5,140.9 	"/>
	<polygon points="540.2,151.7 542.7,163.5 543.1,163.3 548.6,151.1 541.4,151.1 	"/>
	<polygon points="560.5,146.4 563.1,151.2 570.5,151.2 	"/>
	<polygon points="579.6,137.1 594.6,121.4 570.2,134.2 573.8,151.2 582.6,151.2 	"/>
	<polygon points="596.5,209.9 596.5,204.7 591,197.4 588.1,197.4 594.3,208.9 	"/>
	<polygon points="596.4,151.2 596.4,176.8 614.1,181.9 607.6,151.1 596.5,151.1 596.5,151.2 	"/>
	<polygon points="586.3,151.2 596.4,151.2 596.4,151.1 596.5,151.1 596.5,124.6 583.6,138.2 	"/>
	<polygon points="626.9,269.1 640.6,270.6 640.6,268.7 621.8,259.7 	"/>
	<path d="M618.1,183l12.3,3.5c-1.2-14.1-0.8-26.2,0-35.5h-18.4l-0.5,0.5L618.1,183z"/>
	<polygon points="640.6,264.6 640.6,262.7 626.3,243.8 613.2,243.8 618.8,254.2 	"/>
	<path d="M460.8,152.5c0.2,2.5,0.4,5.1,0.5,8l3,6.1v-14.1L460.8,152.5z"/>
	<polygon points="534.2,70.7 508,67.9 508,98.3 	"/>
	<polygon points="497.8,234.6 501.8,235.1 497,232.8 	"/>
	<polygon points="540.2,169.7 536.6,152.3 518.3,152.4 527.8,197.5 	"/>
	<polygon points="502.7,197.4 503.8,202.5 493.1,197.4 479.5,197.4 494.4,227.5 508.1,234.1 508.1,197.5 524.1,197.5 514.5,152.4 
		508,152.4 508,197.4 	"/>
	<path d="M504.5,58.5l3.6-2.3v-7.8c-0.7,0.1-1.5,0.1-2.1,0.2c-1.9,0.1-3.5,0.2-4.8,0.3c-1.1,0.1-1.6,0.1-1.8,0.2h-0.1l-14,4.3
		l-0.6,0.2l20.3,3.7l-1.4,1.3H504.5z"/>
	<polygon points="468.2,58.5 491.6,58.5 477,55.8 	"/>
	<polygon points="505.7,106 504.9,106.9 508.1,111.1 508.1,105.3 	"/>
	<polygon points="510.7,100.7 514.3,103.5 509.7,104.8 542.3,104.8 546.7,100.1 552.2,68.3 552.2,63.2 547.3,58.3 508.1,58.3 
		508.1,57.6 506.8,58.5 508,58.5 508,64.2 542,67.8 	"/>
	<polygon points="462.9,271.7 458.7,263.2 454.4,271.7 448.6,272.6 448.6,276.7 451.8,279.8 451.4,281.9 464.3,279.5 464.3,271.9 	
		"/>
	<polygon points="449.5,280.6 448.6,279.7 448.6,282.4 449.2,282.3 	"/>
	<polygon points="458.7,247.9 449.5,266.5 448.6,266.7 448.6,270.4 453,269.8 458.7,258.3 464.3,269.7 464.3,259.3 	"/>
	<polygon points="448.5,243.8 448.6,263.5 458.3,243.8 	"/>
	<polygon points="463.9,243.8 459,243.8 464.3,254.4 464.3,243.9 471.7,243.9 463.9,228 	"/>
	<polygon points="508.1,241.4 508.1,238.2 496.4,236.5 477.1,197.4 466.2,197.4 489.1,243.7 490.2,243.9 507,243.9 	"/>
	<path d="M461.4,165.6c0.1,6.2-0.1,13.1-0.7,20.5l3.6,7.3v-22L461.4,165.6z"/>
	<polygon points="486.8,243.9 463.9,197.5 463.9,223.2 474.1,243.9 	"/>
	<path d="M459.4,197.5h4.5l-3.6-7.3C460,192.6,459.7,195,459.4,197.5z"/>
	<polygon points="599.8,58.3 598.1,58.3 597.9,59.3 	"/>
	<polygon points="585.4,58.5 583.7,57.3 583.5,58.5 	"/>
	<path d="M596.5,49.7l-2.8-0.9l-0.3-0.1c-1.5-0.1-4.5-0.2-8.2-0.4l-1.3,7.8l3.4,2.3h8.6l0.6-3.7V49.7z"/>
	<path d="M607.4,74.4c-3.3-3.2-7-6-11-8.4v14.2L607.4,74.4z"/>
	<path d="M637.4,61.9l0.2,1.3l-5.7-3l-6.5-1.9h-21l-8,4.2v2c4.2,2.7,8.2,5.8,11.9,9.4l8-4.2l24.3,12.8V62.9L637.4,61.9z"/>
	<path d="M624,96.3c0.1,0.2,0.2,0.4,0.2,0.5c1.2,2.7,2.2,5.4,3.1,8h13L624,96.3z"/>
	<path d="M596.5,104.7v0.1h29.4c-0.8-2.3-1.6-4.6-2.6-6.9c-0.4-0.9-0.8-1.7-1.2-2.6l-5.8-3l-19.9,10.5v2H596.5z"/>
	<polygon points="555.1,136.5 556.5,139 596.5,117.9 596.5,104.8 596.4,104.8 596.4,104.7 592.7,104.7 555.5,124.3 558.8,104.7 
		552.3,104.7 552.3,141.2 553.2,140.7 	"/>
	<polygon points="552.2,104.8 552.2,81 548.1,104.8 	"/>
	<polygon points="552.2,58.3 550.4,58.3 552.2,60.2 	"/>
	<path d="M557.5,47.1c-1.8,0-3.5-0.1-5.2-0.1v11.4h14.4l0.3-2L557.5,47.1z"/>
	<polygon points="558.3,120.3 588.1,104.7 561,104.7 	"/>
	<path d="M583.1,48.2c-3.7-0.1-7.8-0.3-11.4-0.4l10.3,7L583.1,48.2z"/>
	<path d="M581.8,56l-9.9-6.8c-0.5-0.4-0.9-0.9-1-1.6c-3.5-0.2-6.9-0.3-10.2-0.4l8.3,8.1l0.4,0.4l-0.5,2.8h12.4L581.8,56z"/>
	<path d="M616.3,72.2l-6.4,3.3c4.9,5,9.1,10.9,12.5,17.5l18.2,9.6V85L616.3,72.2z"/>
	<path d="M616.3,89.8l4.1,2.2c-3.2-6.1-7-11.4-11.5-16l-12.6,6.6v17.6L616.3,89.8z"/>
	<polygon points="420.1,74.1 420.1,82.8 428.3,80.3 	"/>
	<polygon points="450.9,100.9 439.9,104.2 453.4,104.2 	"/>
	<polygon points="448.9,98.5 427.4,70.8 422.5,72.3 434.7,81.5 420.1,85.8 420.1,104.2 429.6,104.2 	"/>
	<polygon points="499.6,104.8 499.5,104.7 481.8,104.7 485.2,109.1 	"/>
	<polygon points="501.5,107.3 487.1,111.5 502.3,131.1 463.9,131.2 463.9,149.5 508.1,149.5 508.1,115.7 	"/>
	<polygon points="450,64 464.3,82.3 464.3,69.6 454.8,62.5 	"/>
	<polygon points="464.3,59.7 458.3,61.5 464.3,66 	"/>
	<polygon points="447.1,64.8 441.5,66.5 458,78.9 	"/>
	<path d="M478.1,104.7h-12.7c-0.6,1.6-1.1,3.2-1.5,4.7v6l18.3-5.4L478.1,104.7z"/>
	<polygon points="484.1,112.4 463.9,118.4 463.9,128.3 496.4,128.2 	"/>
	<polygon points="464.3,87.2 438,67.6 430.3,69.9 451.9,97.6 464.3,93.9 	"/>
	<path d="M457.5,104.8h6.4v0.1c0.1-0.4,0.2-0.7,0.4-1.1V97l-10.5,3.1L457.5,104.8z"/>
	<polygon points="548.8,336.5 539.3,338.2 551.4,349.2 549.3,365.3 552.2,363.7 552.2,336.5 	"/>
	<polygon points="585.9,336.6 586.1,336.4 569.8,334.7 562,320.3 555.4,335.2 552.3,335.8 552.3,336.6 	"/>
	<polygon points="596.5,336.5 596.5,327.5 577.9,325.5 561.1,294.4 552.3,313.9 552.3,332.1 552.8,332 561.7,312.1 572.1,331.3 
		593.8,333.6 591,336.6 596.4,336.6 596.4,346.8 606.3,336.5 	"/>
	<polygon points="547.5,350.6 531.9,336.5 515.5,336.5 538,356.8 534.6,382.9 549.1,382.9 552.2,381.1 552.2,367.9 544.7,372.2 	"/>
	<path d="M596.4,352.2v21.5l0.9,4.3c7.3-2,14-4.2,20-6.2l-0.7-3.5l16.5-17.3l-22.2,0.1l5.9-14.5h-5.4L596.4,352.2z"/>
	<polygon points="584.9,290.1 562.9,290.1 580.2,322.1 596.5,323.8 596.5,307.4 594.1,307.1 	"/>
	<polygon points="552.3,304.9 558.9,290.1 552.3,290.1 	"/>
	<polygon points="552.2,290.2 552.2,257.8 537.7,290.2 	"/>
	<polygon points="558.4,243.9 559.9,243.9 559.1,242.4 	"/>
	<path d="M534.2,358.3L510,336.5h-1.9v-1.7l-4.3-3.9l4.3-0.8v-16.6l-44.2,8.1v7.9l7.9,7.1H508v32.7l3.3,3l-1.4,10.3
		c0.8,0.2,1.5,0.3,2.3,0.4h18.7L534.2,358.3z"/>
	<polygon points="552.5,151.2 558.9,151.2 555.4,144.7 	"/>
	<polygon points="552.2,192.5 552.2,151.9 531.8,197.5 550,197.5 	"/>
	<polygon points="596.4,243.9 596.4,255.3 612.6,285.3 636.6,287.9 640.6,278 640.6,274.3 624.6,272.6 609,243.8 596.5,243.8 
		596.5,220.7 583.9,197.4 565.1,197.4 590.2,243.9 	"/>
	<polygon points="464.3,290.1 464.3,283.3 448.6,286.2 448.6,290.2 463.9,290.2 463.9,297.5 504.1,290.1 	"/>
	<polygon points="508,250.7 508,289.4 508.9,289.2 529.3,243.8 511.1,243.8 	"/>
	<path d="M447.7,361.2c0,0,0.3,0.3,0.4,0.3l0,0c0,0,0,0,0,0c0,0.1,0.1,0.1,0.2,0.2c0.1,0,0.1,0.1,0.2,0.1c0,0,1.4,0.7,3.9,1.9
		l-4.7-4.2L447.7,361.2z"/>
	<path d="M620.6,369.4l0.2,1.1c9.3-3.3,16.3-6.3,19.8-7.9v-11.7l-2.5,0L620.6,369.4z"/>
	<polygon points="596.4,263 596.4,290.1 589.1,290.1 596.4,303.7 596.5,303.7 596.5,290.2 624.3,290.2 610.3,288.7 	"/>
	<polygon points="564.1,243.9 586.1,243.9 560.9,197.4 554,197.4 552.3,201.2 552.3,243.9 554.4,243.9 558.8,234.1 	"/>
	<polygon points="552.2,248.8 552.2,243.8 533.3,243.8 512.5,290.2 533.7,290.2 	"/>
	<polygon points="508.1,293.1 463.9,301.2 463.9,317.8 508.1,309.7 	"/>
	<path d="M463.9,336.5h-15.6l-0.4,18.1l15.1,13.6c0.4,0.2,0.9,0.4,1.3,0.5v-32.1h2.1l-2.4-2.2V336.5z"/>
	<polygon points="640.6,243.8 629.1,243.8 640.6,258.9 	"/>
	<path d="M593.9,197.4l2.7,3.5v-3.4h10.4l-4.5-6l20.7,6h8.5c-0.4-2.9-0.7-5.8-1-8.6l-34.1-9.8v18.2H593.9z"/>
	<polygon points="640.6,290.2 640.6,286.4 639.1,290.2 	"/>
	<polygon points="620.2,336.5 615.3,348.4 640.6,348.4 640.6,336.5 	"/>
	<polygon points="609.8,197.5 614.8,197.5 608.3,195.7 	"/>
	<polygon points="146.6,151.2 143.3,151.2 142.9,152.9 	"/>
	<path d="M300,361.6L300,361.6L300,361.6C300,361.6,300,361.6,300,361.6z"/>
	<path d="M420.2,128.4l-9.9,2.9l-0.3,0.1l-4.3,1.3l-7.3,2.2l-0.7,0.2l-0.9,2.5l1.2,5.4l1.9-5.5l3.4-1l4.3-1.3l8.5-2.5l-10.2,9.2
		l7.2-1.5l10-9l1.2-1.1l6.2-1.8l29.6-8.8c0.2-1,0.5-2.1,0.7-3.2L420.2,128.4z"/>
	<path d="M487.1,111.5l14.4-4.3l4.2-1.2l2.5-0.7l1.6-0.5l4.6-1.4l-3.6-2.7l-2.7-2l-0.3-0.2L487,83l-1.5-1.1l-0.3-0.3l-4-3l1-0.9
		l12.5-11.3l1.2-1.1l-0.7,0.5c-6.4,3.8-12,8.6-16.8,14.5l4.8,3.6l8.7,6.5l13.6,10.2l2.2,1.7l-5.3,1.6l-0.1,0l-2.6,0.8l-0.3,0.1
		l-14.4,4.3l-3,0.9l-18.3,5.4l-1.7,0.5c-0.3,1.1-0.5,2.2-0.7,3.2l2.4-0.7l20.2-6L487.1,111.5z"/>
	<path d="M296.3,236.5c-1.3-4-2.5-8-3.6-11.8l-10.6-21.5l1.2-0.6l5.2,3c-0.3-1.6-0.5-3.1-0.7-4.7l-4.3-2.5l-3,1.4l-1.2-2.4h-2.4
		l19.2,39L296.3,236.5z"/>
	<polygon points="297,290.2 290.7,290.2 299.6,291.9 299.6,288.1 297.3,287.7 297,287.7 	"/>
	<path d="M299.6,247.5l0-1.7c-0.1-0.2-0.1-0.4-0.2-0.5l-2.4-0.3v2.2L299.6,247.5z"/>
	<path d="M286.6,151.1c0.1-0.5,0.1-1,0.2-1.4l-33.5-0.1v1.5H286.6z"/>
	<path d="M484.7,53.5l-7.7,2.3l14.6,2.7l5.4,1l-3.5,3.2l-3.7,3.3l-9.9,9l-1.7,1.5l-1.8-1.3L464.3,66l-6-4.5l-3.5,1.1l9.5,7.1
		l13.2,9.9c5.5-6.6,12.1-11.9,19.3-16.1l4.7-3l2.1-1.9l1.4-1.3L484.7,53.5z"/>
	<polygon points="253.2,197.5 253.2,197.5 253.2,197.5 	"/>
	<polygon points="286.5,243.8 289,243.8 288.9,243.7 266.1,197.5 263.7,197.5 	"/>
	<polygon points="252.8,193.4 250.8,197.4 252.8,197.4 	"/>
	<polygon points="297.3,287.7 299.6,285.5 299.6,282.5 297,285 297,287.7 	"/>
	<polygon points="299.6,259.3 299.6,257.1 297,256.8 297,258.9 	"/>
	<polygon points="253.2,223.2 253.2,228 258.4,217.4 271.4,243.8 273.8,243.8 258.4,212.5 	"/>
	<polygon points="237.9,254.1 216.1,257.3 217,259.4 239.3,256.1 245.4,243.9 243,243.9 	"/>
	<polygon points="210.1,243.9 209.1,243.9 209.1,250.7 221,277.4 252.8,283.3 252.8,279.5 250.9,279.2 244.7,273.1 252.8,271.9 
		252.8,269.7 252.8,269.8 240.1,271.6 247.1,278.5 235.7,276.4 231.9,275.7 223.6,274.2 217,259.4 216.1,257.3 212,248.2 
		229.4,245.7 230.3,243.9 226.9,243.9 211.1,246.2 	"/>
	<path d="M121.6,103.2c0.2-0.7,0.5-1.4,0.7-2.1l-1.6-0.9v2.4L121.6,103.2z"/>
	<path d="M123.2,101.6c-0.2,0.7-0.5,1.4-0.7,2.1l1.9,1h4.6L123.2,101.6z"/>
	<polygon points="49.5,80.8 47.2,81.5 43.9,100.9 45.1,106.5 	"/>
	<polygon points="76.5,102.6 47.5,117.8 48,120 76.8,104.8 76.5,104.8 	"/>
	<path d="M151.8,67.1c-0.7,0.3-1.4,0.6-2,1l6.3,36.6h2.2L151.8,67.1z"/>
	<path d="M149.6,66.9c0.3-0.2,0.6-0.3,1-0.5l1-0.5l-1.3-7.5h-2.2L149.6,66.9z"/>
	<polygon points="121.3,59 120.7,59.2 120.7,62.6 122,63.3 	"/>
	<polygon points="62.5,89.8 64.9,76.2 62.6,76.9 59.7,93.8 76.5,85 76.5,82.5 	"/>
	<path d="M128.6,86.8c0.4-0.6,0.7-1.3,1.1-1.9l-9-4.7v2.4L128.6,86.8z"/>
	<path d="M136.9,77.7l2.1,12.1l-8.1-4.3c-0.4,0.6-0.8,1.2-1.1,1.8l12.1,6.4l-3.1-17.9C138.1,76.5,137.5,77.1,136.9,77.7z"/>
	<path d="M136.6,75.9c0.6-0.6,1.2-1.2,1.9-1.8l-2.7-15.7h-2.2L136.6,75.9z"/>
	<path d="M477.1,93.2l-4.9-3.6c-1.1,1.9-2.1,3.9-3.1,6l1.5-0.4l3-0.9L477.1,93.2z"/>
	<path d="M458,78.9l-16.5-12.4l-3.5,1.1l26.2,19.7l0.6,0.4l4.7,3.5c0.5-0.9,0.9-1.7,1.4-2.6l-4.3-3.2l-2.5-1.8L458,78.9z"/>
	<path d="M290,131.1l0.1-0.2l2,0.5l2,0l12.8,0l0.2,0l0.1,0.1l2.5,3.8l0.1,0.1l4.1,0.9l-2.3-3.5l-2.8-4.3l-11.7,0l-7.6,0
		C289.5,129.3,289.7,130.2,290,131.1z"/>
	<polygon points="275.3,56.6 271.9,55.6 272.4,57.1 271.4,58.3 275.1,58.3 275.6,57.7 	"/>
	<path d="M253.2,128.3v2.9l35.6,0.1c-0.3-0.9-0.5-1.9-0.7-2.9l-1.5,0L253.2,128.3z"/>
	<path d="M468.7,92.6l-4.4,1.3l-12.4,3.7l-3,0.9l-19.3,5.7l-2.1,0.6l-7.9,2.3l-27.9,8.3l0.6,2.8l37.6-11.2l7.8-2.3l2.1-0.6l10.9-3.3
		l3-0.9l10.5-3.1l3-0.9c0.5-1.2,1.1-2.4,1.7-3.5L468.7,92.6z"/>
	<polygon points="246.5,95.1 248.4,92.6 252.2,87.7 252.8,86.9 252.8,83.6 252.8,82.3 250.3,85.4 243.5,94.2 235.3,104.7 239,104.7 
			"/>
	<polygon points="253.2,54.1 253.2,58.3 253.6,58.3 254.2,57.6 	"/>
	<path d="M250.4,58.5c-0.2,1.6-0.5,3.3-0.8,5l3.2-4.1v-0.9H250.4z"/>
	<path d="M210.2,104.7h7h0.4l3.9-5c-1.6,0.6-3.2,1.2-4.9,1.7l-2,2.5l0,0l-0.1-0.1l-1.6-1.7c-1.2,0.2-2.5,0.4-3.8,0.6v0.8
		L210.2,104.7z"/>
	<path d="M164.6,151.2l0.3,0.7v-0.8h3.6l-2.5-5.6l9.7,5.6H209v-1.6l-26.2-0.1l26.2-33.7v-4.7l-12.7,16.3l-21.5-22.6H169l7.3,42.4
		l-11.5-6v10H164.6z M171.5,106.6l22.5,23.7L180.2,148l-2-2.1L171.5,106.6z"/>
	<polygon points="214.4,197.4 224,197.4 241.8,188.9 237.6,197.4 240,197.4 252.8,171.4 252.8,166.6 244.4,183.5 218.4,196 
		227.6,152.4 252.8,152.5 252.8,151.2 209.1,151.2 209.1,152.4 223.8,152.4 	"/>
	<polygon points="350.8,110 358.5,87.2 360.1,82.8 360.2,82.3 357.5,81.4 357,82.8 350,103.4 334.7,80.2 306.8,80.1 315.6,68.8 
		312.7,67.9 300.9,83 333.1,83.1 341.6,96 347.2,104.5 	"/>
	<path d="M289.5,104.8h-5.7c0.3,0.8,0.5,1.5,0.7,2.3l2.6,0l10.3,0l22.7,0l5.5,8.3l2.5,3.8l1.9,2.9l6.3,9.6l7.4,11.2l4.1,0.9
		l-15.2-23.2l-2.6-3.9l-8.2-12.5l-24.6,0v0.6H289.5z"/>
	<path d="M279.3,104.8h-19.7l-1.8,2.3l25.2,0c-0.2-0.8-0.5-1.5-0.7-2.3H279.3z"/>
	<polygon points="422.5,72.3 419,73.3 420.1,74.1 428.3,80.3 420.1,82.8 386.7,92.7 387.3,95.5 420.1,85.8 434.7,81.5 	"/>
	<polygon points="351.1,79.5 348.3,78.6 348.2,78.8 348.1,78.6 343.7,77.3 349,85.4 	"/>
	<polygon points="322.5,70.9 322.4,71 323,71 	"/>
	<polygon points="126.9,243.9 120.7,255.3 120.7,263 131,243.9 	"/>
	<polygon points="160,190.5 163.1,197.4 164.8,197.4 164.8,201.2 183.8,243.8 187.8,243.8 167.1,197.5 164.9,197.5 164.9,192.5 
		160.3,182.2 152,197.4 156.2,197.4 	"/>
	<polygon points="209.1,290.1 213,290.1 209.1,289.4 	"/>
	<polygon points="209,293.1 209,290.2 204.6,290.2 205.6,292.5 	"/>
	<polygon points="299.9,331.7 299.9,326.8 289.2,336.5 294.7,336.5 	"/>
	<polygon points="299.5,309.8 299.5,306 253.2,297.5 253.2,301.2 	"/>
	<path d="M57.6,143.7l4.2-0.9l-7.8-8.2l23.6-12.4L91,136.2l4.2-0.9l-14.2-15l19.8-10.4l11.6,6.1l4.5,4.7c0.3-1.3,0.6-2.8,1-4.3
		l-17.1-9L51,133.7l0.9,4L57.6,143.7z"/>
	<path d="M118.7,116.9c-0.4,1.6-0.8,3.2-1.1,4.6l3,3.1v-6.7L118.7,116.9z"/>
	<polygon points="209,243.8 209,241.4 207.6,238.4 209,238.2 209,234.1 206.3,235.4 191.8,203.2 193,197.5 185.3,197.5 206,243.8 	
		"/>
	<polygon points="105,330.4 104.9,335.6 105.7,336.5 110.8,336.5 	"/>
	<polygon points="105.1,325.5 105,329.2 120.5,327.5 120.5,323.8 	"/>
	<polygon points="105.2,305.3 105.2,309 120.5,307.4 120.5,303.7 	"/>
	<polygon points="154.2,290.1 158.1,290.1 156.3,286.1 	"/>
	<polygon points="209,330 173.1,323.4 164.8,304.9 164.8,313.9 170.5,326.7 205.3,333.1 201.6,336.5 207.1,336.5 209,334.8 	"/>
	<path d="M124.4,356.1l-1.9,9.1c1.2,0.2,2.4,0.4,3.6,0.6l2.3-10.9l-7.7-8.1v5.3L124.4,356.1z"/>
	<polygon points="153,243.9 128,290.1 132.2,290.1 157.2,243.9 	"/>
	<polygon points="190.6,306.3 183.4,290.2 179.4,290.2 188,309.6 209,313.4 209,309.7 	"/>
	<path d="M209.1,369.3v3.8c0.5,0,0.9,0,1.4-0.1l40.3-36.4h-5.5L209.1,369.3z"/>
	<polygon points="162.7,243.9 158.6,243.9 164.9,257.8 164.9,248.8 	"/>
	<polygon points="260.4,322.9 253.2,329.4 253.2,334.4 268.4,320.6 253.2,317.8 253.2,321.6 	"/>
	<path d="M153.7,357.2l-14.7,7l3.4-16l-11.1-11.7h-5.1l12.2,12.8l-3.8,17.9c1.6,0.3,3.3,0.5,5,0.8l14-6.7l11.4,6.5v-4.2L153.7,357.2
		z"/>
	<polygon points="164.8,332.1 164.8,335.8 168.3,336.5 185.2,336.5 185.7,335.9 	"/>
	<path d="M123.2,197.4h2.9l10.1-13.3l-7.2,13.3h4.2l25-46.2H154l-6.7,12.4l-17.2,8.2l4.3-20.6h-3.7l-5.1,24.2l-5,1.4v2.4l21-6
		L123.2,197.4z M139.5,171.4l4.9-2.3l-0.6,1.1L139.5,171.4z"/>
	<path d="M115.6,207.5c-0.3,1.7-0.7,3.4-1,5.1l6-7.9v-3.8L115.6,207.5z"/>
	<path d="M120.5,209.9l-6.1,2.9c-0.3,1.5-0.7,3-1,4.6l6.3-3l-11.5,21.2c-0.9,2.7-1.9,5.5-2.9,8.2h2.6l12.5-23V209.9z"/>
	<polygon points="159.6,140.9 150.2,136 148,146.4 159.6,140.9 	"/>
	<polygon points="174,163.3 174.4,163.5 176.9,151.7 175.7,151.1 168.5,151.1 	"/>
	<polygon points="146.6,151.2 154,151.2 156.6,146.4 	"/>
	<polygon points="146.9,134.2 122.5,121.4 137.5,137.1 134.5,151.2 143.3,151.2 	"/>
	<polygon points="129,197.4 126.1,197.4 120.5,204.7 120.5,209.9 122.8,208.9 	"/>
	<path d="M120.5,151.2v-0.1h-2.1c0.6,7.2,1,16,0.6,26.2l1.6-0.5v-25.6H120.5z"/>
	<polygon points="120.7,151.2 130.8,151.2 133.5,138.2 120.5,124.6 120.5,151.1 120.7,151.1 	"/>
	<path d="M258.4,155.2l8.6,17.5l17.7-8.5l0.9,0.5c0.1-4.4,0.4-8.5,0.8-12.2l-33.6-0.1v14.1L258.4,155.2z"/>
	<polygon points="219.3,234.6 220.1,232.8 215.3,235.1 	"/>
	<polygon points="189.3,197.5 198.8,152.4 180.5,152.3 176.9,169.7 	"/>
	<polygon points="209,234.1 222.7,227.5 237.6,197.4 224,197.4 213.3,202.5 214.4,197.4 209.1,197.4 209.1,152.4 202.5,152.4 
		193,197.5 209,197.5 	"/>
	<path d="M251,57l-0.3-1c-0.1,0.5-0.1,1.1-0.2,1.6L251,57z"/>
	<path d="M209,104.8v0.5v5.8l3.3-4.2l-0.8-0.9l-1.3-1.3h-1.1v-1.1l-0.7-0.7c-1.6,0.2-3.2,0.3-4.9,0.3h-1.9
		c-13.4,0-24.7-4.8-33.1-13.8l1.9,10.9l4.5,4.7h32.6H209z"/>
	<path d="M285.6,168.9l-0.9-0.5l-15.9,7.6l10.6,21.5h8C285.9,187,285.5,177.4,285.6,168.9z"/>
	<polygon points="265.6,281.9 265.3,279.8 272.1,273.1 262.7,271.7 258.4,263.2 254.2,271.7 252.8,271.9 252.8,279.5 	"/>
	<polygon points="264.1,269.8 276.8,271.6 267.6,280.6 267.9,282.3 273.9,283.4 288.2,269.5 267.6,266.5 258.4,247.9 252.8,259.3 
		252.8,269.7 258.4,258.3 	"/>
	<polygon points="271.4,243.8 258.8,243.8 269,264.6 292.8,268 276.5,283.9 294.7,287.2 297,285 297,258.9 277.5,256.1 	"/>
	<polygon points="252.8,243.9 252.8,254.4 258.1,243.8 253.2,243.8 253.2,228 245.4,243.9 	"/>
	<polygon points="297,243.8 289,243.8 297,244.9 	"/>
	<polygon points="226.9,243.9 228,243.7 250.8,197.4 240,197.4 220.7,236.5 209,238.2 209,241.4 210.1,243.9 	"/>
	<polygon points="258.4,182 266.1,197.5 276.9,197.5 258.4,160.1 252.8,171.4 252.8,193.4 	"/>
	<polygon points="286.5,243.8 273.8,243.8 279,254.1 297,256.8 297,247.1 287.4,245.7 	"/>
	<polygon points="253.2,223.2 253.2,197.5 230.3,243.9 243,243.9 	"/>
	<polygon points="258.4,186.9 253.2,197.5 263.7,197.5 	"/>
	<polygon points="133.1,55.4 123,58.5 133.6,58.5 	"/>
	<polygon points="120.7,80.2 120.7,62.6 116.6,60.4 76.5,72.6 76.5,82.5 100.8,69.7 	"/>
	<polygon points="100.8,92.3 76.8,104.8 120.5,104.8 120.5,104.7 120.7,104.7 120.7,102.7 	"/>
	<path d="M162,136.5l1.9,4.2l0.9,0.5v-36.5h-6.5l3.4,19.6l-37.2-19.6h-2.3c-0.6,1.7-1.1,3.5-1.6,5.1v8.1l40.1,21.1L162,136.5z"/>
	<path d="M120.5,104.8v1.6c0.2-0.6,0.4-1.2,0.6-1.7h-0.4v0.1H120.5z"/>
	<path d="M165.7,86c-0.3-0.4-0.6-0.8-0.9-1.2v20h4.1L165.7,86z"/>
	<path d="M153.7,52.9l-3.7,3.6l0.3,2h4C154,56.4,153.8,54.5,153.7,52.9z"/>
	<polygon points="156.1,104.7 129,104.7 158.8,120.3 	"/>
	<path d="M148.1,55.3l5.4-5.3c0-0.2,0-0.5,0-0.7c0-0.1,0-0.1,0-0.2l-18.4,5.6l0.6,3.7h12.4l-0.5-2.8L148.1,55.3z"/>
	<polygon points="120.7,100.3 120.7,82.7 100.8,72.2 76.5,85 76.5,102.6 100.8,89.8 	"/>
	<path d="M283.6,104.2l3.9,0l9.6,0V85.8v-3v-8.7v-3.7v-7.3l-1.1-0.3l-19.8,25.4c1.1,2,2.3,4.1,3.5,6.4
		C281.2,97.8,282.5,101,283.6,104.2z"/>
	<path d="M263.7,104.2l13.5,0l4.8,0c-0.9-2.7-2-5.5-3.2-8.3c-1.1-2.4-2.2-4.6-3.4-6.8l-7.3,9.3l-1.9,2.5L263.7,104.2z"/>
	<polygon points="215.6,107.3 209,115.7 209,149.5 253.2,149.5 253.2,131.2 214.8,131.1 230,111.5 231.9,109.1 235.3,104.7 
		217.6,104.7 217.5,104.8 	"/>
	<polygon points="253.2,49.9 251.8,49.5 251.9,49.9 253,53.4 253.2,54.1 253.2,53.4 	"/>
	<path d="M260.9,71.9c-2.5-1.9-5.2-3.5-8.1-4.7v2.5v12.6L260.9,71.9z"/>
	<path d="M263,58.3h-9.3l-0.8,1.1v6.5c3.3,1.4,6.2,3,8.9,4.9l9.7-12.5h-3.5H263z"/>
	<path d="M263.9,72.6c4,3.4,7.3,7.6,10.6,12.9L293,61.9l-11.8-3.6h-6.1L263.9,72.6z"/>
	<path d="M252.8,87.2v6.7v3v7.7H239l-4.1,5.3l-1.9,2.5l-12.3,15.8l32.5,0.1v-9.9v-3v-10.6h6.4l3.7-4.8l1.9-2.5l8.7-11.1
		c-3.1-5.1-6.7-9.4-10.7-12.8l-4,5.2l-6.3,8V87.2z"/>
	<polygon points="164.9,363.7 167.8,365.3 165.7,349.2 177.8,338.2 168.3,336.5 164.9,336.5 	"/>
	<polygon points="155,320.3 147.3,334.7 131,336.4 131.2,336.6 164.8,336.6 164.8,335.8 161.7,335.2 	"/>
	<polygon points="145,331.3 155.4,312.1 164.3,332 164.8,332.1 164.8,313.9 156,294.4 139.2,325.5 120.5,327.5 120.5,336.5 
		110.8,336.5 120.7,346.8 120.7,336.6 126.1,336.6 123.3,333.6 	"/>
	<path d="M172.2,372.1l-7.3-4.2v3.5C167.3,371.6,169.7,371.9,172.2,372.1z"/>
	<path d="M169.5,350.6l2.9,21.5c2.9,0.3,5.8,0.5,8.7,0.7l-2.1-15.9l22.6-20.4h-16.4L169.5,350.6z"/>
	<path d="M104.9,336.5l-0.3,10.6l1.6,3.9l-1.7,0l-0.1,5.6l0,2.4v2.5c0,0,0,0,0,0c0,0-0.1,0,0,0h0c0,0,0.1,0,0.2,0c0,0,0,0,0,0v0
		c0,0,6.2,1.4,16,3.2v-12.7l-14.9-15.7H104.9z"/>
	<polygon points="154.2,290.1 132.2,290.1 123,307.1 120.5,307.4 120.5,323.8 136.9,322.1 	"/>
	<polygon points="158.1,290.1 164.8,304.9 164.8,290.1 	"/>
	<polygon points="164.9,290.2 179.4,290.2 164.9,257.8 	"/>
	<polygon points="157.2,243.9 158.6,243.9 158,242.4 	"/>
	<path d="M209.1,336.6h36.2l7.9-7.1v-7.9l-44.2-8.1V330l4.3,0.8l-4.3,3.9v1.7h-1.9l-24.1,21.8l2,14.7c2.8,0.1,5.5,0.2,8.2,0.3
		c0,0,0,0,0,0c0.6,0,1.2,0,1.8,0c0.2,0,0.3,0,0.5,0c0.5,0,0.9,0,1.4,0c0.3,0,0.6,0,0.9,0c0.3,0,0.7,0,1,0c0.6,0,1.2,0,1.9,0
		c1.8,0,3.6-0.1,5.4-0.1l-0.1-0.9l3.3-3V336.6z"/>
	<polygon points="161.7,144.7 158.2,151.2 164.6,151.2 	"/>
	<polygon points="167.1,197.5 185.3,197.5 164.9,151.9 164.9,192.5 	"/>
	<polygon points="126.9,243.9 152,197.4 133.2,197.4 120.5,220.7 120.5,243.8 108.1,243.8 105.1,249.2 105.2,284 120.7,255.3 
		120.7,243.9 	"/>
	<polygon points="252.8,290.1 213,290.1 253.2,297.5 253.2,290.2 290.7,290.2 252.8,283.3 	"/>
	<polygon points="209.1,289.4 209.1,250.7 206,243.8 187.8,243.8 208.1,289.2 	"/>
	<path d="M259.6,368.2c17.3-2.4,31.5-4.9,37.5-6v-25.7h-2.3L259.6,368.2z"/>
	<polygon points="128,290.1 120.7,290.1 120.7,263 106.8,288.7 105.2,288.9 105.2,290.2 120.5,290.2 120.5,303.7 120.7,303.7 	"/>
	<polygon points="162.7,243.9 164.8,243.9 164.8,201.2 163.1,197.4 156.2,197.4 131,243.9 153,243.9 158.3,234.1 	"/>
	<polygon points="164.9,248.8 183.4,290.2 204.6,290.2 183.8,243.8 164.9,243.8 	"/>
	<polygon points="209,309.7 253.2,317.8 253.2,301.2 209,293.1 	"/>
	<path d="M253.2,334.4l-2.4,2.2h2.1v32.5c0.1,0,0.2,0,0.3,0l36.1-32.6h-36V334.4z"/>
	<path d="M120.7,197.4v-18.2l-1.8,0.5c-0.3,5.6-0.8,11.6-1.7,17.9h3.4v3.4l2.7-3.5H120.7z"/>
</g>
</svg>
