<?xml version="1.0" encoding="utf-8"?>
<!-- Generator: Adobe Illustrator 25.3.0, SVG Export Plug-In . SVG Version: 6.00 Build 0)  -->
<svg version="1.1" id="Layer_1" xmlns="http://www.w3.org/2000/svg" xmlns:xlink="http://www.w3.org/1999/xlink" x="0px" y="0px"
	 viewBox="0 0 750.2 400.1" style="enable-background:new 0 0 750.2 400.1;" xml:space="preserve">
<path d="M112.2,103.5c-0.1,1-0.1,1.9-0.1,2.9h180.1c0-1-0.1-1.9-0.1-2.9H112.2z"/>
<path d="M115.9,152.8c0.1,0.9,0.2,1.9,0.4,2.9H288c0.1-1,0.2-2,0.4-2.9H115.9z"/>
<path d="M453.8,97.6c0.2-2.6,0.4-5.2,0.6-7.8c0-0.2,0-0.4,0.1-0.6l-5.9-25.5l-2.4,0.7L453.8,97.6z"/>
<polygon points="426.2,137 428.7,136.5 414.3,74.2 411.9,74.9 "/>
<path d="M111.5,98.7c0.2-2.9,0.4-5.7,0.6-8.6l-6.2-27.1l-2.4,0.7L111.5,98.7z"/>
<polygon points="71.7,73.5 69.3,74.2 83.8,137.3 86.2,136.7 "/>
<path d="M293.1,107.8l10.2-43.6l-2.4-0.7l-8.3,35.3C292.8,101.9,293,104.9,293.1,107.8z"/>
<polygon points="335.1,73.9 320.3,137.3 322.7,137.9 337.5,74.6 "/>
<path d="M636.7,87.3c0.2,2.6,0.5,5.2,0.7,7.9l7.4-31.6l-2.3-0.7L636.7,87.3z"/>
<polygon points="676.7,73.2 661.8,136.5 664.2,137.1 679.1,73.9 "/>
</svg>
