<?xml version="1.0" encoding="utf-8"?>
<!-- Generator: Adobe Illustrator 25.3.0, SVG Export Plug-In . SVG Version: 6.00 Build 0)  -->
<svg version="1.1" id="Layer_1" xmlns="http://www.w3.org/2000/svg" xmlns:xlink="http://www.w3.org/1999/xlink" x="0px" y="0px"
	 viewBox="0 0 750.2 400.1" style="enable-background:new 0 0 750.2 400.1;" xml:space="preserve">
<g>
	<path d="M132.8,82.7C132.8,82.7,132.8,82.8,132.8,82.7l43.8,13.4c-1.2-0.8-2.4-1.7-3.6-2.6L132.8,82.7z"/>
	<path d="M201.3,103.1c-1,0-1.9,0-2.8-0.1l-1.2,51.7l0,1.4l1.6,0.6l87.5,32.5c-0.2-2.5-0.4-4.9-0.5-7.2l-83.4-28.7L201.3,103.1z"/>
	<path d="M164.2,83.9c-0.2-0.2-0.3-0.5-0.5-0.7c-0.2-0.3-0.4-0.6-0.6-0.9c-1.2-1.9-2.3-3.9-3.2-5.8l-15.7-5c-2.1,1.5-4.1,3.1-6,5
		L164.2,83.9z"/>
	<path d="M212.9,102.2c-1.6,0.3-3.2,0.5-4.9,0.7l1,44.6l0,0.8l0.9,0.3l75.7,24.7c0-0.1,0-0.1,0-0.2l-73.7-26.3L212.9,102.2z"/>
	<path d="M153.2,160.8l0-0.8l-0.9-0.2l-33.8-9.1c0,0.4,0.1,0.9,0.1,1.3l31.8,9.7l-1.2,51.9l0,1.4l1.6,0.6l148.8,54.2l0-7.9
		L154.4,212L153.2,160.8z"/>
	<path d="M164.9,152.2l-1.7-0.6l-46.7-14.9c0.3,1.7,0.7,3.9,1,6.3l42.2,12.1l1.2,51.1l0,0.8l0.9,0.3L273.4,244l-109.6-38.5l1.2-51.9
		L164.9,152.2z"/>
	<path d="M278.1,94.4c-1-2.2-2.1-4.4-3.3-6.4l-13.5-4.6l-0.3-11.4c-1.5-1.1-3-2.1-4.6-3l-0.4,15.8l0,1.4l1.6,0.6L278.1,94.4z"/>
	<path d="M267.9,78.4l0,0.1l0.1,0C268,78.5,267.9,78.4,267.9,78.4z"/>
	<path d="M227.6,130.2l-0.8-33.1c-1.2,0.7-2.4,1.3-3.7,1.9l-0.8,32.7l0,1.4l1.6,0.6l62.1,23.1c0.2-2.2,0.3-4.2,0.5-6.2L227.6,130.2z
		"/>
	<path d="M233.3,92.3l0.7,32.2l0,0.8l0.9,0.3l52.7,17.2c0-0.3,0.1-0.6,0.1-0.9L237,123.7l0.8-35.9C236.4,89.5,234.9,91,233.3,92.3z"
		/>
	<path d="M179.5,189l-1.2-51.2l0-0.8l-0.9-0.2l-59.5-16.1c0,0.1,0,0.2-0.1,0.3l57.7,17.6l-1.2,51.9l0,1.4l1.6,0.6l120.4,43.8
		c-0.9-2.8-1.7-5.5-2.5-8.2L179.5,189z"/>
	<path d="M190,129.1l-1.7-0.6l-67-21.3c-0.7,2.1-1.2,4.2-1.8,6.2l65.2,18.7l1.2,51.1l0,0.8l0.9,0.3l104.3,34.2c0-0.1,0-0.1,0-0.2
		l-102.3-35.9l1.2-51.9L190,129.1z"/>
	<path d="M130.5,246.3l-1.2-51.2l0-0.8l-0.9-0.2l-10.4-2.8c-0.1,0.7-0.1,1.3-0.2,2l8.7,2.7l-1.2,51.9l0,1.4l1.6,0.6l172.7,64.1
		l0-7.4L130.5,246.3z"/>
	<path d="M139.9,239.8l1.2-51.9l0-1.5l-1.7-0.6l-20.4-6.5c-0.1,1.7-0.2,3.4-0.3,5.1l17.2,4.9l1.2,51.1l0,0.8l0.8,0.3l161.7,56.5
		l0-0.2L139.9,239.8z"/>
	<path d="M105.2,311.2l0,5.1l125.3,46.5c5.2-0.5,10.4-1,15.4-1.6L105.2,311.2z"/>
	<path d="M105.2,303.8l157.7,55.1c0,0,0,0,0,0l-157.7-57.4L105.2,303.8z"/>
	<path d="M545.3,156.7l1.6-0.6l0-1.4l-1.2-51.9l67.7-20.6l-69.6,18.8l-0.9,0.2l0,0.8l-1.2,51.2L461,181c-0.1,2.3-0.3,4.7-0.6,7.2
		L545.3,156.7z"/>
	<path d="M534.3,148.6l0.9-0.3l0-0.8l1.2-51.1l72.3-20.7c-1.8-1.8-3.7-3.6-5.8-5.1l-70,22.3l-1.7,0.6l0,1.5l1.2,51.9l-70.9,25.3
		c0,0.1,0,0.2,0,0.3L534.3,148.6z"/>
	<path d="M591.9,159.7L591,160l0,0.8l-1.2,51.2l-141.2,48.3l0,7.9l144.8-52.7l1.6-0.6l0-1.4l-1.2-51.9l36.6-11.2
		c0-0.4,0.1-0.8,0.1-1.1L591.9,159.7z"/>
	<path d="M582.4,207.4l0.9-0.3l0-0.8l1.2-51.1l47-13.5c0.4-2.7,0.8-4.8,1.1-6.5l-51.6,16.4l-1.7,0.6l0,1.5l1.2,51.9L470.8,244
		L582.4,207.4z"/>
	<path d="M470.5,92.7l15.9-5.9l1.6-0.6l0-1.4l-0.3-13.8c-1.6,1.3-3.2,2.7-4.7,4.2l-0.2,8.1l-8.6,3C472.8,88.4,471.6,90.5,470.5,92.7
		z"/>
	<path d="M520.2,133.6l1.6-0.6l0-1.4l-1.2-51.9l66.3-20.2l-0.1,0l-68.1,18.4l-0.9,0.2l0,0.8l-1.2,51.2l-56,19.3
		c0.2,1.9,0.4,3.9,0.5,6.1L520.2,133.6z"/>
	<path d="M509.2,125.6l0.9-0.3l0-0.8l1.2-51.1L578.7,54l-6.8-4.7l-64.2,20.5l-1.7,0.6l0,1.5l1.2,51.9l-47.7,17.1
		c0,0.3,0.1,0.6,0.1,1L509.2,125.6z"/>
	<path d="M568.3,192.4l1.6-0.6l0-1.4l-1.2-51.9l61.3-18.7c0-0.1,0-0.1,0-0.2l-63.2,17l-0.9,0.2l0,0.8l-1.2,51.2l-111.5,38.1
		c-0.8,2.7-1.6,5.4-2.5,8.1L568.3,192.4z"/>
	<path d="M558.1,184.1l0-0.8l1.2-51.1l68.9-19.7c-0.5-2-1.2-4.1-1.9-6.3l-70.5,22.5l-1.7,0.6l0,1.5l1.2,51.9l-99.6,35
		c0,0.1,0,0.2-0.1,0.2l101.6-33.3L558.1,184.1z"/>
	<path d="M618.9,249.1l0-1.4l-1.2-51.9l13.2-4c-0.1-0.6-0.1-1.2-0.2-1.9l-14.9,4l-0.9,0.2l0,0.8l-1.2,51.2l-165.1,58.6l0,7.3
		l168.7-62.6L618.9,249.1z"/>
	<path d="M607.1,241.3l0-0.8l1.2-51.1l21.8-6.2c-0.1-1.8-0.2-3.5-0.3-5.3l-25,8l-1.7,0.6l0,1.5l1.2,51.9l-155.7,56.7l0,0.2
		l157.7-55.1L607.1,241.3z"/>
	<polygon points="300,338.4 105.4,269.3 105.2,259.8 105.2,273.9 300,346.2 	"/>
	<path d="M111.9,264.3l0.8,0.3l174.6,61l-172.6-62.9l1.2-51.9l0-1.5l-0.7-0.2c-1.1,5.7-2.5,11.5-4.2,17.6l0.8,36.8L111.9,264.3z"/>
	<path d="M104.7,342.9l-0.1,5.5l62.7,23.3c7.6,0.8,15.3,1.3,22.7,1.6L104.7,342.9z"/>
	<path d="M104.9,333.5l0,1.9L212,372.9c0.3,0,0.6,0,0.9,0L104.9,333.5z"/>
	<path d="M642.4,272.7l0.7-0.3l0-29.1c-1.3-3.5-2.5-6.9-3.5-10.3l-0.8,36.2l-190.5,67.6l-0.2,7.8L642.4,272.7z"/>
	<path d="M632.2,264.3l0-0.8l1.2-51.1l0.7-0.2c-0.3-1.5-0.6-3-0.9-4.4l-3.4,1.1l-1.7,0.6l0,1.5l1.2,51.9l-172.6,62.9l174.6-61
		L632.2,264.3z"/>
	<path d="M643.2,341.5l-121.1,43c5.3,0.7,10.6,1.2,16,1.4l105.1-39L643.2,341.5z"/>
	<path d="M643.2,334.1l0-2l-136.6,49.8c0,0,0,0,0,0L643.2,334.1z"/>
	<path d="M643,314.7l0-5.1L470.3,371c3.3,1.2,6.9,2.5,10.8,3.8L643,314.7z"/>
	<polygon points="480.6,359.1 643.1,302.3 643.1,299.9 	"/>
</g>
</svg>
