<?xml version="1.0" encoding="utf-8"?>
<!-- Generator: Adobe Illustrator 25.3.0, SVG Export Plug-In . SVG Version: 6.00 Build 0)  -->
<svg version="1.1" id="Layer_1" xmlns="http://www.w3.org/2000/svg" xmlns:xlink="http://www.w3.org/1999/xlink" x="0px" y="0px"
	 viewBox="0 0 750.2 400.1" style="enable-background:new 0 0 750.2 400.1;" xml:space="preserve">
<g>
	<path d="M149.1,98.5c-2.6-0.3-4.5-0.5-5.6-0.7c-2.2,10.7-5.3,26.9-8.8,45.5l5.6,1C143.6,126.2,146.8,110.2,149.1,98.5z"/>
	<path d="M329.7,97c-1,0.1-2.7,0.4-5.1,0.8c0.7,3.4,1.5,7.4,2.4,11.8c2,9.7,4.4,21.6,7,34.6l5.4-1C335.5,124.1,332,107.7,329.7,97z"
		/>
	<path d="M607.5,97c-1.1,0.2-3.1,0.5-5.9,0.9c0.7,3.4,1.5,7.3,2.4,11.7c1.9,9.2,4.1,20.4,6.5,32.6l6.4-0.5
		C613.2,123.3,609.8,107.4,607.5,97z"/>
	<path d="M427.2,98.5c-2.8-0.3-4.7-0.5-5.8-0.7c-2.1,10.4-5.2,26-8.5,43.9l5.8,1C421.9,125.3,424.9,109.8,427.2,98.5z"/>
</g>
</svg>
