<?xml version="1.0" encoding="utf-8"?>
<!-- Generator: Adobe Illustrator 25.3.0, SVG Export Plug-In . SVG Version: 6.00 Build 0)  -->
<svg version="1.1" id="Layer_1" xmlns="http://www.w3.org/2000/svg" xmlns:xlink="http://www.w3.org/1999/xlink" x="0px" y="0px"
	 viewBox="0 0 750.2 400.1" style="enable-background:new 0 0 750.2 400.1;" xml:space="preserve">
<g>
	<path d="M111.8,288.1l5.3,3.1c0.1,0,0.2,0.1,0.4,0.1c0.3-4.7,0.8-10.4,1.6-16.9l-5.6-3.2C112.7,277.6,112.1,283.4,111.8,288.1z"/>
	<path d="M120.4,264.3l-6.1,0.7c-0.3,2-0.5,4-0.7,6l6.1-0.7C119.8,268.3,120.1,266.3,120.4,264.3z"/>
	<path d="M122.6,248.3c0.3-2,0.6-4,0.9-6l-6.1,0.7c-0.3,2-0.6,4-0.9,6L122.6,248.3z"/>
	<path d="M389.8,286.5l6.2-0.7c0.2-1.9,0.4-3.8,0.6-5.9l-6.2,0.7C390.2,282.7,390,284.7,389.8,286.5z"/>
	<path d="M358.7,291c1.8-0.4,3.7-0.9,5.5-1.3c-0.2-3-0.5-6.5-0.9-10.3l-6.1-3.3C357.9,281.7,358.4,286.8,358.7,291z"/>
	<path d="M125.9,226.9l-5.5-2.8c-1,6-1.9,11.9-2.8,17.6l6.1-0.8C124.4,236.4,125.1,231.7,125.9,226.9z"/>
	<path d="M635.8,291.3c2.1-0.5,4.2-1,6.4-1.5c-0.3-5.4-1.1-12.2-2.1-20l-7.2-4.3C634.3,275.7,635.4,284.6,635.8,291.3z"/>
	<path d="M121.9,214.8c-0.4,2.4-0.8,4.8-1.2,7.2l6.1-0.8c0.2-1.5,0.5-3,0.7-4.5l-1.5,0.2L121.9,214.8z"/>
	<path d="M393.9,252.8l6.3-0.8c0.2-1.5,0.4-3,0.7-4.5l-6.3,0.8C394.3,249.8,394.1,251.3,393.9,252.8z"/>
	<path d="M356.1,231.2l-5.7,0.7c1,5.7,1.9,11.3,2.8,16.7l3.4,1.8l-3.1,0.4c0.5,3,0.9,5.9,1.4,8.8l6.2,3.2
		C359.8,253.3,358.1,242.5,356.1,231.2z"/>
	<path d="M393.2,257.7c-0.7,5.2-1.4,10.2-1.9,14.7l6.3-0.8c0.4-3.4,0.9-7.1,1.4-10.9L393.2,257.7z"/>
	<path d="M405.2,219.4l-1.9-0.9l2.1-0.3c0.6-3.4,1.1-6.9,1.7-10.4l-5.7-2.7c-1.8,10.7-3.6,21.3-5.1,31.3l6.3-0.9
		C403.5,230.2,404.3,224.9,405.2,219.4z"/>
	<path d="M129.5,171.5c-1.8,10.2-3.7,20.7-5.5,31.1l5.5,2.7c1.8-10.9,3.8-21.9,5.7-32.7l-2.9-1.4L129.5,171.5z"/>
	<path d="M351.5,205.1c-0.2-0.9-0.3-1.8-0.5-2.7l-5.6,0.8c0.2,0.9,0.3,1.8,0.5,2.7L351.5,205.1z"/>
	<path d="M354,218.8l-5.6,0.8c0.2,0.9,0.3,1.8,0.5,2.7l5.6-0.8C354.3,220.6,354.1,219.7,354,218.8z"/>
	<path d="M632.9,224.8l-6.5,0.9c1,5.5,1.9,10.9,2.8,16.2l0.2,0.1l-0.2,0c0.8,4.6,1.5,9,2.1,13.3l7.2,3.4
		C637,248.4,635.1,236.9,632.9,224.8z"/>
	<path d="M136.5,165c0.1-0.8,0.3-1.6,0.4-2.3l-6,1c-0.1,0.3-0.1,0.6-0.2,0.9l3.5-0.5L136.5,165z"/>
	<path d="M139,151.5c0.2-1.2,0.4-2.4,0.6-3.5l-6,0.9c-0.1,0.3-0.1,0.6-0.2,0.9l1.3-0.2L139,151.5z"/>
	<path d="M622.5,204c0.5,2.8,1,5.6,1.5,8.3l7.2,3.2c-0.7-4.1-1.5-8.3-2.3-12.5L622.5,204z"/>
	<path d="M346.4,178.2l-4.9-2.2l4.3-0.7c-0.9-4.4-1.7-8.8-2.6-13.1l-6.2-2.8c1.9,9.9,3.9,20.2,5.9,30.6l5.6-0.9
		C347.8,185.5,347.1,181.9,346.4,178.2z"/>
	<path d="M621.2,196.6l7.2,3.2c-0.7-3.5-1.3-7-2-10.5l-6.4,1C620.4,192.4,620.8,194.5,621.2,196.6z"/>
	<path d="M408.6,164.6c-2,11.1-4.1,22.7-6.1,34.1l2.7,1.2l3.4-0.5c1.9-11.3,3.9-22.6,5.9-33.6l-3.4-1.5L408.6,164.6z"/>
	<path d="M412.2,145.2l2.3,0.9l-2.6,0.5c-0.8,4.4-1.7,8.9-2.5,13.5l5.6,2.3c1.8-10,3.6-19.6,5.3-28.6l-6.2,1.1
		C413.5,138.2,412.9,141.6,412.2,145.2z"/>
	<path d="M612.9,154.3l2-0.3l-2.2-0.9C612.8,153.5,612.9,153.9,612.9,154.3z"/>
	<polygon points="614.9,154 617.1,154.9 618.9,154.6 616.6,153.7 	"/>
	<path d="M619.6,154.9c0-0.1-0.1-0.3-0.1-0.4l-0.7,0.1L619.6,154.9z"/>
	<path d="M336.1,155.1l6.2,2.5l0,0c-1.2-5.8-2.3-11.4-3.4-16.7l-5.4,1C334.3,146.1,335.2,150.5,336.1,155.1z"/>
	<path d="M615.5,167.4l0.1,0.1c0.1,0.6,0.2,1.2,0.4,1.9l7.1,2.9c-0.5-2.3-0.9-4.6-1.3-6.8l-6.4,1.1
		C615.4,166.8,615.4,167.1,615.5,167.4z"/>
	<path d="M332.7,137.6l6.1,2.5c-0.7-3.5-1.4-6.9-2.1-10.2l-5.4,0.9C331.7,133.1,332.2,135.3,332.7,137.6z"/>
	<path d="M141.6,137c0.6-3.4,1.3-6.7,1.9-9.8l-2.9-1.2l3.2-0.6c0.9-4.5,1.7-8.8,2.5-12.9l-5.3-2.1c-1.6,8-3.4,17.4-5.3,27.6
		L141.6,137z"/>
	<path d="M604,109.6c0.5,2.7,1.1,5.5,1.7,8.5l6.1-1.2c-0.6-2.9-1.2-5.6-1.7-8.1l-6.7-2.5C603.5,107.3,603.8,108.4,604,109.6z"/>
	<path d="M329.7,97c-1,0.1-2.7,0.4-5.1,0.8c0.3,1.7,0.7,3.5,1.1,5.5l5.1-1C330.4,100.4,330.1,98.6,329.7,97z"/>
	<path d="M416.7,121.8l5.6,2.1c0.7-3.7,1.4-7.3,2.1-10.7l-6.2,1.2C417.6,116.8,417.1,119.3,416.7,121.8z"/>
	<path d="M149.1,98.5c-2.6-0.3-4.5-0.5-5.6-0.7c0,0.2-0.1,0.4-0.1,0.6L145,99l-2,1.4c-0.2,1.2-0.5,2.4-0.7,3.7l5.2,2.9
		C148,104,148.6,101.1,149.1,98.5z"/>
	<path d="M607,124.5c0.1,0.7,0.3,1.4,0.4,2.1l6.9,2.5c-0.1-0.7-0.3-1.4-0.4-2L607,124.5z"/>
	<path d="M425.3,108.2c0.2-1.1,0.4-2.2,0.7-3.3l-2.8,0.6l-3-1.1c-0.1,0.6-0.2,1.2-0.4,1.8L425.3,108.2z"/>
	<path d="M333.1,112.8c-0.2-0.7-0.3-1.4-0.4-2.1l-5.9-2.2c0.1,0.4,0.1,0.7,0.2,1.1c0.1,0.5,0.2,0.9,0.3,1.4l0.7-0.1L333.1,112.8z"/>
</g>
</svg>
