<?xml version="1.0" encoding="utf-8"?>
<!-- Generator: Adobe Illustrator 25.3.0, SVG Export Plug-In . SVG Version: 6.00 Build 0)  -->
<svg version="1.1" id="Layer_1" xmlns="http://www.w3.org/2000/svg" xmlns:xlink="http://www.w3.org/1999/xlink" x="0px" y="0px"
	 viewBox="0 0 750.2 400.1" style="enable-background:new 0 0 750.2 400.1;" xml:space="preserve">
<path d="M395.6,291.3c1.4-22.2,8.7-68.2,16.4-111.8L390,290C391.9,290.5,393.7,290.9,395.6,291.3z"/>
<path d="M111.7,289.9c2,0.5,3.9,1,5.8,1.4c1.4-21.9,8.5-67,16.1-109.9L112.9,276C112.4,281.3,111.9,286,111.7,289.9z"/>
<path d="M358.7,291c1.8-0.4,3.7-0.9,5.5-1.3c-0.1-1.4-0.2-2.9-0.3-4.4l-22.5-103.2C349.4,224.3,357.2,268.9,358.7,291z"/>
<path d="M635.8,291.3c1.9-0.4,3.7-0.9,5.7-1.3l-20.1-92.2C628.3,235.1,634.5,272,635.8,291.3z"/>
</svg>
