<?xml version="1.0" encoding="utf-8"?>
<!-- Generator: Adobe Illustrator 25.3.0, SVG Export Plug-In . SVG Version: 6.00 Build 0)  -->
<svg version="1.1" id="Layer_1" xmlns="http://www.w3.org/2000/svg" xmlns:xlink="http://www.w3.org/1999/xlink" x="0px" y="0px"
	 viewBox="0 0 750.2 400.1" style="enable-background:new 0 0 750.2 400.1;" xml:space="preserve">
<g>
	<path d="M105.2,314.6l0,8.8l-0.8,33.2l0,2.4v2.5c0,0,0,0,0,0c0,0-0.1,0,0,0h0c0,0,0.1,0,0.2,0c0,0,0,0,0,0v0c0,0,49,10.8,88.4,11.6
		c0,0,0,0,0,0c0.6,0,1.2,0,1.8,0c0.2,0,0.3,0,0.5,0c0.5,0,0.9,0,1.4,0c0.3,0,0.6,0,0.9,0c0.3,0,0.7,0,1,0c0.6,0,1.2,0,1.9,0
		c42.9-0.6,99.5-11.7,99.5-11.7v-2.2v-5.3v-17.4c0,0,0,0,0,0l-0.1-21.4h-0.4l0-0.7H105.2z"/>
	<polygon points="105.2,265.8 105.2,280.6 299.6,280.6 299.6,265.8 	"/>
	<path d="M105.1,249.6h194.5l0-3.8c0-0.1-0.1-0.2-0.1-0.3H105.1L105.1,249.6z"/>
</g>
</svg>
