<?xml version="1.0" encoding="utf-8"?>
<!-- Generator: Adobe Illustrator 25.3.0, SVG Export Plug-In . SVG Version: 6.00 Build 0)  -->
<svg version="1.1" id="Layer_1" xmlns="http://www.w3.org/2000/svg" xmlns:xlink="http://www.w3.org/1999/xlink" x="0px" y="0px"
	 viewBox="0 0 750.2 400.1" style="enable-background:new 0 0 750.2 400.1;" xml:space="preserve">
<path d="M137.9,126.5l5.6,0.9c0.2-1.3,0.5-2.5,0.7-3.8l-5.6-0.9C138.3,124,138.1,125.2,137.9,126.5z"/>
<path d="M129.4,171.8c-0.2,1.2-0.5,2.5-0.7,3.8l5.7,0.9c0.2-1.3,0.4-2.5,0.7-3.8L129.4,171.8z"/>
<path d="M415.8,126.5l5.8,0.9c0.2-1.3,0.5-2.5,0.7-3.8l-5.8-0.9C416.2,124,416,125.2,415.8,126.5z"/>
<path d="M407.3,171.8c-0.2,1.2-0.5,2.5-0.7,3.8l5.9,0.9c0.2-1.3,0.4-2.5,0.7-3.8L407.3,171.8z"/>
<path d="M334.9,121.5l-5.3,0.8c0.2,1.2,0.5,2.5,0.8,3.7l5.4-0.8C335.4,124,335.2,122.7,334.9,121.5z"/>
<path d="M345.6,174.2c-0.2-1.3-0.5-2.5-0.7-3.8l-5.6,0.9c0.2,1.2,0.5,2.5,0.7,3.8L345.6,174.2z"/>
<path d="M612.8,121.9l-6.2,0.9c0.2,1.2,0.5,2.5,0.8,3.7l6.2-1C613.4,124.4,613.1,123.1,612.8,121.9z"/>
<path d="M623.5,174.6c-0.2-1.3-0.5-2.5-0.7-3.8l-6.4,1c0.2,1.2,0.5,2.5,0.7,3.8L623.5,174.6z"/>
</svg>
