<?xml version="1.0" encoding="utf-8"?>
<!-- Generator: Adobe Illustrator 25.3.0, SVG Export Plug-In . SVG Version: 6.00 Build 0)  -->
<svg version="1.1" id="Layer_1" xmlns="http://www.w3.org/2000/svg" xmlns:xlink="http://www.w3.org/1999/xlink" x="0px" y="0px"
	 viewBox="0 0 750.2 400.1" style="enable-background:new 0 0 750.2 400.1;" xml:space="preserve">
<style type="text/css">
	.st0{fill:#0D0D0D;}
</style>
<g>
	<path class="st0" d="M112.8,277.4c2,0.2,3.9,0.5,5.9,0.7c0.2-1.9,0.4-3.9,0.7-5.9c-1.5-0.1-3-0.3-4.4-0.4c-0.5,0.2-1,0.3-1.6,0.5
		C113.2,274,113,275.7,112.8,277.4z"/>
	<path class="st0" d="M619.4,187.5c2.2,0.1,4.4,0.1,6.7,0.3c-0.2-1.2-0.5-2.4-0.7-3.6c-2.2,0.2-4.3,0.3-6.5,0.6
		C619.1,185.7,619.3,186.6,619.4,187.5z"/>
	<path class="st0" d="M352.7,245.6c1.8-0.8,3.6-1.5,5.4-2.3c-0.3-1.8-0.6-3.6-0.9-5.5c-1.8,0.8-3.6,1.6-5.4,2.5
		C352.2,242,352.5,243.8,352.7,245.6z"/>
	<path class="st0" d="M618.8,184.1c2.2-0.1,4.4-0.1,6.6-0.1c-0.4-2-0.8-4-1.2-6c-2.2-0.2-4.5-0.4-6.7-0.6
		C617.9,179.6,618.4,181.8,618.8,184.1z"/>
	<path class="st0" d="M399.2,218.3c-0.5,2.8-0.9,5.5-1.3,8.2c2.2-0.6,4.3-1.2,6.5-1.8c0.5-3.1,1-6.2,1.5-9.3
		c-0.6,0.2-1.2,0.4-1.8,0.6C402.5,216.8,400.9,217.5,399.2,218.3z"/>
	<path class="st0" d="M117.1,245c1.9,0.4,3.9,0.8,5.8,1.1c0.2-1.5,0.4-3,0.7-4.5c-2-0.1-4-0.2-5.9-0.4
		C117.5,242.5,117.3,243.7,117.1,245z"/>
	<path class="st0" d="M409.7,192.9c-2.2,0.9-4.4,1.9-6.6,2.8c0,0.1,0,0.3-0.1,0.4c2.2-0.7,4.3-1.5,6.5-2.2
		C409.6,193.6,409.6,193.2,409.7,192.9z"/>
	<path class="st0" d="M616.4,138.8c-2.2-0.1-4.4-0.1-6.5-0.2c0.5,2.4,1,4.8,1.4,7.3c2.2-0.1,4.3-0.2,6.5-0.3
		C617.3,143.3,616.8,141.1,616.4,138.8z"/>
	<path class="st0" d="M405.1,184.2c-0.5,2.6-0.9,5.2-1.4,7.8c2.3-1.3,4.5-2.6,6.8-3.9c0.3-2,0.7-4,1-6c-0.9,0.2-1.7,0.5-2.6,0.7
		C407.7,183.3,406.4,183.8,405.1,184.2z"/>
	<path class="st0" d="M347.3,214.1c1.8-0.5,3.7-1,5.5-1.5c-0.6-3.4-1.3-6.9-1.9-10.3c-1.8,0.6-3.6,1.2-5.5,1.8
		C346.1,207.4,346.7,210.8,347.3,214.1z"/>
	<path class="st0" d="M628.4,237.1c0.4,2.4,0.8,4.7,1.2,7.1c2.2-0.2,4.4-0.3,6.6-0.4c-0.4-2.3-0.8-4.6-1.2-6.9
		C632.8,236.9,630.6,237,628.4,237.1z"/>
	<path class="st0" d="M392.2,265.1c2.2-0.7,4.3-1.5,6.5-2.2c0.6-4.3,1.2-8.9,1.9-13.6c-2.1,0.7-4.1,1.5-6.2,2.2
		c-0.1,0-0.2,0.1-0.3,0.1C393.3,256.3,392.7,260.8,392.2,265.1z"/>
	<path class="st0" d="M361.3,263.4c-1.8,0.7-3.6,1.3-5.5,1.9c0.6,4.1,1.1,8.1,1.5,11.7c1.8-0.6,3.6-1.2,5.5-1.9
		C362.4,271.6,361.9,267.6,361.3,263.4z"/>
	<path class="st0" d="M630.6,212c-0.4-2.3-0.8-4.6-1.3-6.9c-2.1-0.2-4.3-0.4-6.4-0.6c2.1-0.2,4.1-0.4,6.2-0.6
		c-0.5-2.5-0.9-5-1.4-7.6c-2.2,0-4.4,0-6.6,0c1,5.2,1.9,10.4,2.9,15.6C626.2,212,628.4,212,630.6,212z"/>
	<path class="st0" d="M359.8,253.5c-1.8,0.8-3.6,1.6-5.4,2.4c0.2,1.6,0.5,3.1,0.7,4.7c1.8-1,3.5-2.1,5.3-3.1
		C360.2,256.1,360,254.8,359.8,253.5z"/>
	<path class="st0" d="M394,251.6c0.1,0,0.2-0.1,0.3-0.1c2.1-0.8,4.2-1.6,6.2-2.4c0.4-3,0.9-6.1,1.4-9.2c-2.2,0.8-4.4,1.7-6.6,2.5
		C394.9,245.5,394.5,248.6,394,251.6z"/>
	<path class="st0" d="M360.4,257.4c-1.8,1-3.5,2.1-5.3,3.1c0.2,1.7,0.5,3.3,0.7,4.9c1.8-0.6,3.6-1.3,5.5-1.9
		C361,261.5,360.7,259.5,360.4,257.4z"/>
	<path class="st0" d="M359.3,250.5c-1.8,0.6-3.6,1.3-5.5,1.9c0.2,1.2,0.4,2.3,0.5,3.4c1.8-0.8,3.6-1.6,5.4-2.4
		C359.6,252.5,359.5,251.5,359.3,250.5z"/>
	<path class="st0" d="M395.5,241.8c2.2-1,4.4-1.9,6.6-2.9c0.2-1.3,0.4-2.5,0.6-3.8c-2.2,0.8-4.4,1.5-6.6,2.3
		C395.9,238.9,395.7,240.4,395.5,241.8z"/>
	<path class="st0" d="M118.2,283.3c-2-0.1-3.9-0.2-5.9-0.4c-0.2,2.5-0.4,4.9-0.5,7c2,0.5,3.9,1,5.8,1.4
		C117.7,288.9,117.9,286.2,118.2,283.3z"/>
	<path class="st0" d="M114.9,271.7c-0.5-0.1-1-0.1-1.5-0.2c0,0.2-0.1,0.5-0.1,0.7C113.9,272,114.4,271.9,114.9,271.7z"/>
	<path class="st0" d="M632.6,223.2c-2.2-0.1-4.4-0.1-6.7-0.1c0.8,4.8,1.7,9.4,2.4,14c2.2-0.1,4.4-0.2,6.6-0.3
		C634.3,232.4,633.5,227.8,632.6,223.2z"/>
	<path class="st0" d="M618.9,184.8c2.2-0.2,4.3-0.4,6.5-0.6c0-0.1,0-0.2-0.1-0.3c-2.2,0-4.4,0.1-6.6,0.1
		C618.8,184.3,618.9,184.6,618.9,184.8z"/>
	<path class="st0" d="M390.1,282.9c-0.2,2.5-0.4,4.9-0.5,7c2,0.5,4,1,6,1.4c0.2-3.1,0.5-6.7,0.9-10.8
		C394.4,281.3,392.3,282.1,390.1,282.9z"/>
	<path class="st0" d="M627.7,196c-0.4-2.3-0.9-4.7-1.3-7c-2.2,0-4.4,0-6.6,0c0.5,2.4,0.9,4.8,1.3,7.2c2.2-0.1,4.3-0.1,6.5-0.2
		C627.6,196,627.6,196,627.7,196z"/>
	<path class="st0" d="M639.9,268.8c-2.2,0.4-4.3,0.7-6.5,1.1c0,0.2,0,0.4,0.1,0.5c2.2-0.2,4.4-0.3,6.6-0.4
		C640.1,269.6,640,269.2,639.9,268.8z"/>
	<path class="st0" d="M632.6,263.6c0.2,1.3,0.4,2.6,0.6,3.9c2.2-0.2,4.4-0.3,6.6-0.5c-0.2-1.2-0.3-2.5-0.5-3.7
		C637,263.4,634.8,263.5,632.6,263.6z"/>
	<path class="st0" d="M642.2,289.8c0-0.7-0.1-1.5-0.2-2.2c-2.2,0.1-4.3,0.1-6.5,0.2c0.1,1.2,0.2,2.4,0.3,3.5
		C637.9,290.8,640,290.3,642.2,289.8z"/>
	<path class="st0" d="M331.8,106.7c-1.7,0.4-3.4,0.8-5.1,1.3c0.1,0.5,0.2,1.1,0.3,1.6c0.6,3,1.3,6.3,2,9.7c1.7-0.5,3.4-1,5.2-1.6
		C333.3,113.8,332.5,110.1,331.8,106.7z"/>
	<path class="st0" d="M420.4,102.6c2.1-0.8,4.3-1.6,6.4-2.3c0.1-0.6,0.2-1.2,0.3-1.7c-2.8-0.3-4.7-0.5-5.8-0.7
		C421.1,99.3,420.8,100.9,420.4,102.6z"/>
	<path class="st0" d="M334.7,120.6c-1.7,0.5-3.5,1-5.2,1.6c0.5,2.7,1.1,5.5,1.7,8.4c1.7-0.5,3.5-1.1,5.2-1.6
		C335.9,126,335.3,123.3,334.7,120.6z"/>
	<path class="st0" d="M142.3,133.7c-1.9-0.4-3.7-0.8-5.6-1.3c-0.5,2.5-1,5.1-1.5,7.8c1.8,0.5,3.7,1,5.5,1.4
		C141.3,138.9,141.8,136.3,142.3,133.7z"/>
	<path class="st0" d="M146.8,110c-0.1,0-0.2,0-0.3-0.1c-1.8-0.1-3.6-0.2-5.4-0.3c-0.6,3.1-1.2,6.3-1.9,9.8c1.8,0.7,3.6,1.3,5.4,1.9
		C145.4,117.4,146.1,113.5,146.8,110z"/>
	<path class="st0" d="M136.8,163.3c0.3-1.8,0.6-3.5,0.9-5.2c-1.4-0.2-2.7-0.3-4.1-0.5c-0.5-0.1-1.1-0.2-1.6-0.2
		c-0.4,1.9-0.7,3.9-1.1,5.9C132.9,163.2,134.9,163.3,136.8,163.3z"/>
	<path class="st0" d="M129.3,172.3c1.8,0.7,3.7,1.3,5.5,1.9c0.2-1.4,0.5-2.8,0.7-4.2c-1.9-0.3-3.8-0.7-5.7-1.1
		C129.7,170.1,129.5,171.2,129.3,172.3z"/>
	<path class="st0" d="M342.9,160.7c-1-5.1-2-10.1-3-15c-1.8,0.5-3.6,1-5.3,1.5c1,4.9,2,9.9,3,15.1
		C339.3,161.8,341.1,161.3,342.9,160.7z"/>
	<path class="st0" d="M413.8,136.6c2.1-0.7,4.3-1.4,6.4-2.2c0.6-3.1,1.2-6.2,1.7-9.2c-2.1,0.7-4.3,1.4-6.4,2.1
		C415,130.4,414.4,133.5,413.8,136.6z"/>
	<path class="st0" d="M422.4,122.9c-2.1,0.8-4.3,1.6-6.4,2.4c-0.1,0.4-0.2,0.8-0.2,1.3c2.2-0.8,4.3-1.7,6.5-2.5
		C422.3,123.7,422.4,123.3,422.4,122.9z"/>
	<path class="st0" d="M607.5,97c-1.1,0.2-3.1,0.5-5.9,0.9c0.2,0.8,0.3,1.6,0.5,2.5c2.1,0,4.1,0.1,6.2,0.2
		C608,99.3,607.7,98.1,607.5,97z"/>
	<path class="st0" d="M127.9,214.7c-1.9-0.7-3.7-1.4-5.6-2.2c-0.1,0.9-0.3,1.8-0.4,2.6c1.9,0.3,3.9,0.6,5.8,0.9
		C127.7,215.6,127.8,215.1,127.9,214.7z"/>
	<path class="st0" d="M343,190.8c1.8-0.5,3.6-1.1,5.5-1.6c-1-5.3-2-10.7-3.1-15.9c-1.8,0.5-3.6,1.1-5.4,1.6
		C341,180.1,342,185.4,343,190.8z"/>
	<path class="st0" d="M131.3,194.7c-1.9-0.1-3.9-0.3-5.9-0.4c-0.9,5-1.7,10-2.6,14.9c1.9,0.5,3.8,1,5.7,1.4
		C129.4,205.3,130.3,200,131.3,194.7z"/>
	<path class="st0" d="M607.9,129c1.5,0,3,0.1,4.5,0.1c0.7,0,1.3,0,2,0.1c-0.7-3.5-1.4-6.9-2.1-10.1c-2.1-0.2-4.3-0.3-6.4-0.5
		C606.5,121.9,607.2,125.4,607.9,129z"/>
	<path class="st0" d="M407.7,169.5c2.2-0.8,4.3-1.6,6.5-2.5c1-5.5,2-10.8,2.9-16.1c-2.1,0.7-4.3,1.3-6.4,2
		C409.8,158.4,408.7,163.9,407.7,169.5z"/>
</g>
</svg>
