<?xml version="1.0" encoding="utf-8"?>
<!-- Generator: Adobe Illustrator 25.3.0, SVG Export Plug-In . SVG Version: 6.00 Build 0)  -->
<svg version="1.1" id="Layer_1" xmlns="http://www.w3.org/2000/svg" xmlns:xlink="http://www.w3.org/1999/xlink" x="0px" y="0px"
	 viewBox="0 0 750.2 400.1" style="enable-background:new 0 0 750.2 400.1;" xml:space="preserve">
<g>
	<path d="M127.6,216.7c2.4-14.4,4.9-29.3,7.5-43.8l-5.9-0.1c-2.6,14.5-5.2,29.4-7.6,43.8l0.1,0L127.6,216.7z"/>
	<path d="M405.7,216.7c2.4-14.4,4.9-29.3,7.5-43.8l-5.2-0.1l-0.8-0.3c-2.6,14.4-5.2,29.4-7.6,43.8l1,0.3L405.7,216.7z"/>
	<path d="M345,171.4l-4.2,1.4l-1.2,0c2.8,14.5,5.6,29.4,8.2,43.8l0.5,0l5-1.7C350.7,200.6,347.8,185.7,345,171.4z"/>
	<path d="M622.9,171.4l-4,1.4l-2.3,0c2.8,14.5,5.6,29.4,8.2,43.8l1.5,0l4.9-1.6C628.6,200.6,625.7,185.8,622.9,171.4z"/>
</g>
</svg>
