<?xml version="1.0" encoding="utf-8"?>
<!-- Generator: Adobe Illustrator 25.3.0, SVG Export Plug-In . SVG Version: 6.00 Build 0)  -->
<svg version="1.1" id="Layer_1" xmlns="http://www.w3.org/2000/svg" xmlns:xlink="http://www.w3.org/1999/xlink" x="0px" y="0px"
	 viewBox="0 0 750.2 400.1" style="enable-background:new 0 0 750.2 400.1;" xml:space="preserve">
<path d="M111.7,289.9c2,0.5,3.9,1,5.8,1.4c0.7-11,2.8-27.8,5.7-47.2l-5.8-1.2C114.5,262.3,112.3,279,111.7,289.9z"/>
<path d="M389.6,289.9c2,0.5,4,1,6,1.4c0.7-10.9,2.8-27.5,5.7-46.7l-6-1.2C392.4,262.5,390.2,279.1,389.6,289.9z"/>
<path d="M358.7,291c1.8-0.4,3.7-0.9,5.5-1.3c-0.7-10.9-3-27.6-6.1-46.8l-5.6,1.1C355.7,263.3,358,280,358.7,291z"/>
<path d="M635.8,291.3c2.1-0.5,4.2-1,6.4-1.5c-0.7-10.9-3-27.5-6.1-46.7l-6.4,1.3C632.8,263.6,635.1,280.3,635.8,291.3z"/>
</svg>
