<?xml version="1.0" encoding="utf-8"?>
<!-- Generator: Adobe Illustrator 25.3.0, SVG Export Plug-In . SVG Version: 6.00 Build 0)  -->
<svg version="1.1" id="Layer_1" xmlns="http://www.w3.org/2000/svg" xmlns:xlink="http://www.w3.org/1999/xlink" x="0px" y="0px"
	 viewBox="0 0 750.2 400.1" style="enable-background:new 0 0 750.2 400.1;" xml:space="preserve">
<path d="M127.8,180.4l5.7,1.2c5.7-32.5,11.7-63.9,15.6-83.1c-2.6-0.3-4.5-0.5-5.6-0.7C140,115.2,133.8,147,127.8,180.4z"/>
<path d="M119.5,229.6l5.8,1.2c0.2-1.3,0.4-2.6,0.6-3.9l-5.8-1.2C119.9,227,119.7,228.3,119.5,229.6z"/>
<path d="M405.7,180.6l5.9,1.2c5.7-32.6,11.7-64,15.6-83.3c-2.8-0.3-4.7-0.5-5.8-0.7C417.9,115.2,411.7,147.1,405.7,180.6z"/>
<path d="M397.4,229.7l6,1.2c0.2-1.3,0.4-2.6,0.6-3.9l-6-1.2C397.8,227.2,397.6,228.5,397.4,229.7z"/>
<path d="M329.7,97c-1,0.1-2.7,0.4-5.1,0.8c0.7,3.4,1.5,7.4,2.4,11.8c3.8,18.8,9.2,45.4,14.5,73.1l5.5-1.1
	C340.4,147.1,333.5,114.4,329.7,97z"/>
<path d="M356,230.6c-0.2-1.3-0.4-2.6-0.7-3.8l-5.6,1.2c0.2,1.3,0.4,2.6,0.7,3.8L356,230.6z"/>
<path d="M607.5,97c-1.1,0.2-3.1,0.5-5.9,0.9c0.7,3.4,1.5,7.3,2.4,11.7c3.1,15.3,7.2,35.8,11.5,57.8l0.1,0.1
	c0.8,3.9,1.5,7.8,2.3,11.7l6.3-1.3C617.7,144.9,611.2,113.8,607.5,97z"/>
<path d="M633.3,226.9c-0.2-1.3-0.4-2.6-0.7-3.8l-6.4,1.3c0.2,1.3,0.5,2.6,0.7,3.8L633.3,226.9z"/>
</svg>
