<?xml version="1.0" encoding="utf-8"?>
<!-- Generator: Adobe Illustrator 25.3.0, SVG Export Plug-In . SVG Version: 6.00 Build 0)  -->
<svg version="1.1" id="Layer_1" xmlns="http://www.w3.org/2000/svg" xmlns:xlink="http://www.w3.org/1999/xlink" x="0px" y="0px"
	 viewBox="0 0 750.2 400.1" style="enable-background:new 0 0 750.2 400.1;" xml:space="preserve">
<style type="text/css">
	.st0{fill:none;}
</style>
<g>
	<path class="st0" d="M125.3,223.1c-0.1-0.2-0.3-0.4-0.4-0.7C125,222.7,125.2,222.9,125.3,223.1z"/>
	<path class="st0" d="M124.4,221.8c0.2,0.2,0.3,0.4,0.5,0.7C124.7,222.2,124.6,222,124.4,221.8z"/>
	<path class="st0" d="M637.9,274.1c0-0.1,0.1-0.1,0.2-0.2C638,274,637.9,274,637.9,274.1z"/>
	<path class="st0" d="M638.3,274.6c-0.1,0-0.3-0.1-0.3-0.1C638.1,274.5,638.2,274.6,638.3,274.6z"/>
	<path class="st0" d="M360.2,280c-0.3,0-0.8,0.2-0.7,0.2c0.1,0.6,1.4,0.5,2.4,0.5C361.9,280.4,361.9,279.9,360.2,280z"/>
	<path class="st0" d="M419.1,136.2c0-0.1-0.1-0.1-0.1-0.2C419,136,419.1,136.1,419.1,136.2z"/>
	<path class="st0" d="M419,136c-0.1-0.1-0.2-0.1-0.3-0.2C418.8,135.8,418.9,135.9,419,136z"/>
	<path class="st0" d="M418.3,137.3C418.3,137.3,418.3,137.3,418.3,137.3c0-0.1-0.1-0.3-0.3-0.4c0.9-0.3,1.1-0.5,1.1-0.7
		c0,0.2-0.2,0.5-1.1,0.7c-1.2,0-2.4,0-3.6,0c0,0,0,0,0,0l0,0c0,0,0,0,0,0C414.3,139,417.1,137.1,418.3,137.3z"/>
	<path class="st0" d="M419.4,133.7c-0.3,0-0.7,0.1-1.1,0.2C418.8,133.8,419.1,133.7,419.4,133.7z"/>
	<path class="st0" d="M399.7,224.5c-0.2,0.1-0.4,0.1-0.6,0.1C399.3,224.6,399.5,224.6,399.7,224.5z"/>
	<path class="st0" d="M638.2,273.7c-0.1,0.1-0.1,0.1-0.2,0.2C638.1,273.8,638.2,273.8,638.2,273.7z"/>
	<path class="st0" d="M637.9,274.1c-0.1,0.1-0.1,0.2,0,0.3C637.8,274.3,637.8,274.2,637.9,274.1z"/>
	<path d="M327,109.6c2,10,4.5,22.2,7.2,35.5c0.2,0,0.4,0,0.7,0c1.8-0.1,3.4,0,4.9,0.1c-4-19.9-7.7-37.2-10.1-48.2
		c-1,0.1-2.7,0.4-5.1,0.8C325.3,101.2,326.1,105.2,327,109.6z"/>
	<path d="M132.3,156.1c-0.4,2.2-0.8,4.4-1.2,6.6c0.9,0.2,2.5,0,5.3-0.5c0.3,0,0.5-0.1,0.7-0.1c0.2-1.3,0.5-2.7,0.7-4
		C135.9,157.4,134.1,156.7,132.3,156.1z"/>
	<path d="M149.1,98.5c-2.6-0.3-4.5-0.5-5.6-0.7c-1.2,5.9-2.7,13.5-4.4,22.3c1.7,0.7,3.5,1.2,5.4,1.8C146.2,113,147.8,105,149.1,98.5
		z"/>
	<path d="M137.9,131.7c-0.4,0.7-0.6,1-1.2,0.7c-1.2,6.2-2.4,12.7-3.7,19.5c1,0,2.1-0.1,2.8,0.3c1,0.5,1.9,0.9,2.8,1.1
		c0.1-0.8,0.3-1.6,0.4-2.3c-1.3,0-2.5-0.1-3-0.8c1.2-0.1,2.2-0.4,3.3-0.7c1.3-7,2.6-13.8,3.8-20.2C140.7,130,138.3,131,137.9,131.7z
		"/>
	<path d="M642.2,289.8c-0.3-4.1-0.8-9.1-1.4-14.7c-1.6,0.4-2.7,0.7-3.8,1c-1.9-1-1.6-2-0.6-3.1c-0.8-0.3-1.7-0.6-2.6-0.8
		c1,7.4,1.7,13.8,2,19C637.9,290.8,640,290.3,642.2,289.8z"/>
	<path d="M632,219.7c-0.8-0.2-1.3-0.4-1.6-0.7c-0.5-0.5-0.2-1.1,1.1-2.2c-0.4-2.2-0.8-4.3-1.2-6.5c-2.1,0-4.2-0.1-6.2-0.4
		c-0.2,0-0.3-0.1-0.5-0.1c0.6,3.4,1.2,6.7,1.8,10.1c2.4,0.8,4.7,1.6,7.1,2.4C632.3,221.5,632.2,220.6,632,219.7z"/>
	<path d="M637.9,274.1c-0.1,0.1-0.1,0.2,0,0.3c0,0,0.1,0.1,0.2,0.1c0.1,0,0.2,0.1,0.3,0.1c0.4,0.1,1.2,0.1,2.4,0.1
		c-0.1-0.6-0.2-1.3-0.2-1.9c-0.2-0.1-0.4-0.1-0.6-0.2c-0.3,0.1-0.6,0.2-1,0.2c0.2,0.2-0.2,0.6-0.6,0.9c-0.1,0.1-0.1,0.1-0.2,0.2
		C638,274,637.9,274,637.9,274.1z"/>
	<path d="M624.9,209.1c-1.6-0.5,2-1,0.2-1.5c-0.6-0.2-1.3-0.3-2-0.4c0.1,0.4,0.2,0.9,0.2,1.3C623.5,208.9,623.1,209.4,624.9,209.1z"
		/>
	<path d="M636.6,246.7c-1.4,0.6-2.1,1.3-0.9,2.2c0.5,0.4,0.6,1.2,0,1.2c-2.4-0.3-3.7,0.3-5.1,0.8c1.1,6.9,2.1,13.5,2.9,19.5
		c2.7-0.1,4.7,0.6,6.8,1.1C639.3,264,638.1,255.6,636.6,246.7z"/>
	<path d="M636.1,243.4c-0.5,0.1-1,0.2-1.6,0.3c0.6,0.1,1.1,0.2,1.7,0.3C636.2,243.8,636.1,243.6,636.1,243.4z"/>
	<path d="M607.3,126c0.2,0.5,0.4,1.1,0.6,1.6c1.3,0.6,3,0.3,3.1-0.2c0.3-1,1.9-0.4,2.9-0.4c-1.8-8.6-3.4-16.4-4.8-22.8
		c-1.2-0.2-2.5-0.3-3.8-0.4c-0.5-1,4.9-0.5,2.6-1.8c-2.1,0.1-3.7,0.6-5.3,1c0.4,2.1,0.9,4.2,1.3,6.6
		C605,114.6,606.1,120.1,607.3,126z"/>
	<path d="M615.9,169.1c0.6,3,1.2,6.1,1.8,9.2c0.2,0.1,0.5,0.2,0.7,0.3c2.2,0.8,4.3,1.7,6.4,2.6c-1-4.9-1.9-9.8-2.9-14.6
		c-0.9,0.3-0.4,0.6-0.5,1C620.2,168.4,621.1,170.4,615.9,169.1z"/>
	<path d="M615.4,166.7c0.4-0.1,0.8-0.2,1.2-0.3h0c-0.1-0.1-0.2-0.1-0.2-0.2c0.1-0.1,0.2-0.2,0.3-0.3c-0.7,0-1.2-0.2-1.6-0.3
		C615.2,165.9,615.3,166.3,615.4,166.7z"/>
	<path d="M612.7,153.2c0.8,0.2,1.8,0.5,2.7,0.8c1.4,0.4,3.1,0.4,3.7-0.2c0,0,0.1-0.1,0.2-0.1c-0.1-0.4-0.1-0.7-0.2-1.1
		c-0.2,0-0.4-0.1-0.6-0.1c-2-0.3-5.9,0.4-6-1c-0.1-1.3,4.5-0.5,5.7-1.4c0.1,0,0.2-0.1,0.4-0.1c0-0.2-0.1-0.4-0.1-0.6
		c-1.3,0-2.7,0.1-1.4-0.9c0.8-0.6-0.2-1-2.6-0.9c-0.8,0-2-0.3-3-0.7C611.9,148.9,612.3,151,612.7,153.2z"/>
	<path d="M417.4,135.1c0.4,0.2,0.9,0.4,1.2,0.6c0.1,0.1,0.2,0.1,0.3,0.2c0.1,0.1,0.1,0.1,0.1,0.2c0,0,0,0,0,0c0,0.2-0.2,0.5-1.1,0.7
		c0.2,0.1,0.2,0.3,0.3,0.4c0.5,0,0.9-0.1,1.4-0.1c0.2-0.8,0.3-1.7,0.5-2.5c-0.1,0-0.1-0.1-0.1-0.1c-0.3-0.3-0.1-0.4,0.2-0.5
		c0-0.2,0.1-0.4,0.1-0.6c-0.3,0-0.6,0-1,0.1c-0.3,0-0.7,0.1-1.1,0.2C416.6,134.2,416.1,134.5,417.4,135.1z"/>
	<path d="M420.7,132.2c0.4-2,0.8-4,1.1-6c-3.5,0.3-5.2,1.3-6.4,2.4c-0.1,0.7-0.3,1.4-0.4,2.1c0.9,0.1,1.7,0.3,2,0.5
		C418.1,131.9,418.4,132.2,420.7,132.2z"/>
	<path d="M356.6,234.2c-0.1,0-0.2,0.1-0.3,0.1c-0.7,0.3,0.1,1.2-2.4,0.7c-0.7-0.1-1.8-0.9-2.5,0c-0.3,0.3-0.5,0.8,0.7,1.2
		c1.7,0.6,3.4,1.2,5.1,1.8C357.1,236.8,356.9,235.5,356.6,234.2z"/>
	<path d="M401.1,246c-0.2-0.1-0.3-0.2-0.5-0.3c-2.1,0.3-4.1,0.7-5.6-0.4c-0.3,2-0.6,4.1-0.9,6c1.8,0.5,3.8,0.9,6,1.1
		C400.4,250.3,400.7,248.1,401.1,246z"/>
	<path d="M401.3,244.3c0-0.1,0-0.2,0.1-0.3c-0.1,0-0.2,0.1-0.3,0.1C400.8,244.1,400.9,244.2,401.3,244.3z"/>
	<path d="M400.3,241.6c0.2,0.2,0.7,0.4,1.3,0.6c0.9-5.9,1.8-12,2.8-18.2c-0.6-0.1-1.3-0.2-2.2-0.2c-0.7,0-1.2,0.1-1.7,0.3
		c-0.3,0.1-0.6,0.2-0.9,0.3c-0.2,0.1-0.4,0.1-0.6,0.1c-0.3,0-0.6,0.1-0.9,0c-0.9,5.5-1.7,10.9-2.5,16
		C397.4,240.2,399.1,239.9,400.3,241.6z"/>
	<path d="M343.7,194.4c0.6,3.3,1.2,6.6,1.8,9.9c0.3,0.1,0.5,0.2,0.8,0.4c0.9-0.8,3-1.2,4.7-1.8c-0.4-1.9-0.7-3.8-1.1-5.7
		c-1.9-0.7-3.7-1.4-5.2-2.2C344.4,194.8,344.1,194.6,343.7,194.4z"/>
	<path d="M423.2,107.9c0.7,0.2,1.3,0.4,2,0.6c0.1-0.7,0.3-1.3,0.4-2c-0.4,0-0.8,0-1.3-0.1C423.9,106.9,423.6,107.4,423.2,107.9z"/>
	<path d="M125.3,223.1c0.6,1.2,0.2,2.3-4.4,2.9c1.4,0.8,3.1,1.4,4.9,2c0.5-3.4,1.1-6.8,1.7-10.3c-0.3,0-0.6,0.1-0.9,0.1
		c-4.5,0.7,0.7,1.4,0.5,2.2c0,0.1-0.2,0.3-0.3,0.5c-1.6,0-3.1-1-4.6-0.2c-1.1,0.6,2.1,0.5,2.1,1.1c0.1,0.1,0.2,0.2,0.2,0.3
		c0.2,0.2,0.3,0.4,0.5,0.7C125,222.7,125.2,222.9,125.3,223.1z"/>
	<path d="M630.3,210.4c-0.3-1.4-0.5-2.8-0.8-4.2c-0.5,0-1-0.1-1.5-0.1c-1.5-0.2-2.8-0.6-2.6-1.3c0.2-0.5,1.4-0.6,2.7-0.6
		c0.4,0,0.7,0,1,0c-0.1-0.8-0.3-1.5-0.4-2.3c-0.9-0.2-1.9-0.3-3.1-0.4c-1,0.6-6.4,0.9-0.7,2.1c-0.8,0-1.7,0-2.4,0
		c0.2,1.2,0.4,2.4,0.7,3.6c0.7,0,1.3,0.2,2,0.4c1.8,0.5-1.8,1-0.2,1.5c-1.7,0.3-1.3-0.3-1.5-0.5c0.1,0.4,0.2,0.9,0.2,1.3
		c0.2,0,0.3,0.1,0.5,0.1C626.2,210.3,628.2,210.3,630.3,210.4z"/>
	<path d="M625.6,201.5C625.6,201.5,625.7,201.5,625.6,201.5C625.7,201.5,625.7,201.5,625.6,201.5L625.6,201.5z"/>
	<path d="M353.9,218.3C353.9,218.3,353.9,218.3,353.9,218.3C353.9,218.3,353.9,218.3,353.9,218.3z"/>
	<path d="M349.8,227.8c0,0.1,0,0.1,0,0.2c0.1-0.1,0.2-0.1,0.3-0.2C350,227.8,349.9,227.8,349.8,227.8z"/>
	<path d="M353.3,224.7c0.3-0.2,1-0.3,1.7-0.3c-0.3-1.6-0.6-3.2-0.9-4.8c-0.6-0.1-1.2-0.2-1.8-0.3c-1.8-0.2-3.1-0.3-4-0.1
		c0.1,0.6,0.2,1.1,0.3,1.7c0.6,0.1,1.2,0.3,1.4,0.7c-0.5,0-0.9,0-1.3,0.1c0.1,0.4,0.2,0.9,0.2,1.3c0.5,0.2,1,0.4,1.5,0.6
		c0.7,0.3,0.3,1-0.5,0.8c-0.2,0-0.5-0.1-0.8-0.1c0.1,0.4,0.2,0.9,0.2,1.3C351,225.7,352.1,225.6,353.3,224.7z"/>
	<path d="M400,218.6c-0.3,0-0.6,0-0.8,0c0,0.1,0,0.3-0.1,0.4C399.4,219,399.7,218.8,400,218.6z"/>
	<path d="M399.1,224.7c0.2,0,0.4-0.1,0.6-0.1c0.3-0.1,0.6-0.2,0.9-0.3c0.5-0.2,1-0.3,1.7-0.3c0.5-0.4,1-0.8,2.3-0.7
		c0.1-0.6,0.2-1.2,0.3-1.7c-1.4-0.1-1-0.9-1.8-1.2c-3.2,0.8-4.3,1.9-4.7,3.4c0,0-0.1,0-0.1,0c-0.1,0.4-0.1,0.8-0.2,1.1
		C398.5,224.7,398.8,224.7,399.1,224.7z"/>
	<path d="M412,179.4c0.1-0.4,0.2-0.9,0.2-1.3C411.8,178.7,411.5,179.2,412,179.4z"/>
	<path d="M412.8,174.8c0-0.3,0.1-0.5,0.1-0.8c-1,0.2-2.2,0.3-3.6,0.3C410.9,174.4,412.1,174.6,412.8,174.8z"/>
	<path d="M417.3,119.7c0.6-0.1,2,0.1,2.1,0.2c0.2,0.7-1.8,0.7-2.6,1.6c-0.1,0.5-0.2,1-0.3,1.5c1.2,1.6,2.8,2,5.7,1.4
		c0.4-1.9,0.7-3.8,1.1-5.6c-0.1,0-0.2,0-0.3,0.1c-1.6,0.3,0-1-1.6-1.4c-1.3,0.2-2.1,0.7-3.7,0.8c-0.1,0-0.2,0-0.3,0
		c-0.1,0.4-0.2,0.9-0.3,1.3C417.1,119.7,417.2,119.7,417.3,119.7z"/>
	<path d="M361.9,280.8c0.7-0.1,1.2-0.1,1.5-0.2c0-0.3-0.1-0.6-0.1-1c-0.2-0.1-0.4-0.2-0.5-0.3c-1.5-0.7-3.4-0.7-5.3-0.6
		c0.1,0.9,0.2,1.7,0.3,2.6c1.1-0.1,2.3-0.1,3.4-0.1C361.5,281.1,361.7,280.9,361.9,280.8z M359.5,280.2c0-0.1,0.5-0.2,0.7-0.2
		c1.7-0.1,1.7,0.3,1.7,0.8C360.9,280.7,359.6,280.8,359.5,280.2z"/>
	<path d="M414.4,136.9C414.4,136.9,414.4,136.9,414.4,136.9C414.4,136.9,414.4,136.9,414.4,136.9L414.4,136.9z"/>
	<path d="M419.7,137.2c-0.5,0-0.9,0.1-1.4,0.1c0,0,0,0,0,0c-1.2-0.3-4,1.6-3.9-0.4c-0.2,0-0.4,0-0.7,0c-0.2,1-0.4,2-0.6,3
		c1.8-0.1,3.5-0.2,5.3-0.2c0.2,0,0.5,0,0.8,0C419.4,138.9,419.6,138.1,419.7,137.2z"/>
	<path d="M339.5,172.2c1.9,0,3.8,0.1,5.7,0.1c-0.1-0.3-0.1-0.7-0.2-1c-1.9,0.2-3.8,0.2-5.7,0.1C339.4,171.6,339.4,171.9,339.5,172.2
		z"/>
	<path d="M342.9,174.8C342.9,174.8,342.9,174.8,342.9,174.8C342.8,174.8,342.8,174.8,342.9,174.8
		C342.8,174.8,342.8,174.8,342.9,174.8L342.9,174.8z"/>
	<path d="M345.6,174.5c-0.1-0.7-0.3-1.5-0.4-2.2c-6.8,0-1.8,1.6-2.3,2.5C343.8,174.5,344.8,174.4,345.6,174.5z"/>
	<path d="M422,102.3c-0.5,0-1,0.1-1.6,0.1c-0.3,1.5-0.6,3-0.9,4.6c0.7,0.4,1.8,0.6,3.7,0.8c0.4-0.5,0.7-1,1.1-1.5
		c0.5,0.1,0.9,0.1,1.3,0.1c0.3-1.4,0.6-2.8,0.8-4.2C425.1,102.5,423.4,102.3,422,102.3z"/>
	<path d="M340.5,177.6c0.2,1.1,0.4,2.2,0.6,3.3c0.6-0.5,0.9-1.1,0.9-1.8C342.1,178.3,341.5,177.8,340.5,177.6z"/>
	<path d="M360.9,261c-0.3-2-0.6-4-0.9-6.1c-1.9,0.1-3.8,0.2-5.7,0.4c0,0.1,0,0.3,0.1,0.4c0.7,0.5,0.5,1.1,1.3,1.5
		c2.2,0.9,2.1,2-0.7,2.7c0,0.3,0.1,0.6,0.1,0.9c1,0,2.1-0.1,3.1,0C359.4,260.9,360.3,261,360.9,261z"/>
	<path d="M419.1,136.2C419.1,136.2,419.1,136.2,419.1,136.2c0-0.1-0.1-0.2-0.1-0.2c-0.1-0.1-0.2-0.1-0.3-0.2
		c-0.4-0.2-0.9-0.4-1.2-0.6c-1.3-0.7-0.8-1,1-1.3c0.4-0.1,0.7-0.1,1.1-0.2c0.4,0,0.7-0.1,1-0.1c0.1-0.5,0.2-0.9,0.3-1.4
		c-2.2,0-2.6-0.3-3.7-0.9c-0.4-0.2-1.1-0.4-2-0.5c-0.3,1.7-0.7,3.5-1,5.3c1.3,0.1,0.9,0.5,0.5,0.9c1.2,0,2.4,0,3.6,0
		C418.9,136.7,419.2,136.4,419.1,136.2z"/>
	<path d="M414.5,136.9C414.5,136.9,414.5,136.9,414.5,136.9C414.4,136.9,414.4,136.9,414.5,136.9L414.5,136.9L414.5,136.9z"/>
	<path d="M626,187.4c-0.6,0.2-1.3,0.5-1.9,0.5c-1.4,0.2-2.2,1.5-4.2,2.1c0.1,0.3,0.1,0.7,0.2,1c0,0,0.1,0,0.1,0
		c2.6,0.4,4.4,1.2,6.8,1.7C626.7,191,626.4,189.2,626,187.4z"/>
	<path d="M607.6,127.6c0.1,0,0.2-0.1,0.2-0.1c-0.2-0.5-0.3-1.1-0.6-1.6C607.4,126.5,607.5,127.1,607.6,127.6z"/>
	<path d="M400.6,245.6c0.2,0,0.4,0,0.6,0c0.1-0.4,0.1-0.9,0.2-1.3c-0.4-0.1-0.5-0.2-0.3-0.3c0.1,0,0.2-0.1,0.3-0.1
		c0.1-0.6,0.2-1.1,0.3-1.7c-0.6-0.2-1.1-0.4-1.3-0.6c-1.2-1.7-2.9-1.5-4.7-0.9c-0.2,1.5-0.5,3-0.7,4.5
		C396.5,246.3,398.4,245.9,400.6,245.6z"/>
	<path d="M351.5,206.9c0.1-0.1,0.2-0.1,0.3-0.2c-0.2-1.3-0.5-2.6-0.7-3.8c-1.6,0.6-3.8,1-4.7,1.8
		C348.2,205.3,352.4,204.9,351.5,206.9z"/>
	<path d="M627.5,195.1c0-0.1,0-0.2,0-0.2c-2.2,0-4.4,0.1-6.6,0.2c0.2,1,0.4,2.1,0.6,3.1c2.2,0.1,3.9-0.5,4.9-1.1
		c2.5-1.5-3.5-0.9-4-1.8c0.9,0,1.5-0.1,2-0.1C625.5,195.1,626.5,195.1,627.5,195.1z"/>
	<path d="M615.4,166.7c0,0.2,0.1,0.5,0.1,0.7l0.1,0.1c0.1,0.5,0.2,1.1,0.3,1.6c5.2,1.3,4.3-0.8,5.6-1.6c-2-0.2-2.1-1.4-4.9-1.2h0
		C616.2,166.4,615.8,166.5,615.4,166.7z"/>
	<path d="M362.7,274.3c-0.6,0-1.1,0-1.6-0.1c0.5,0.1,1.1,0.1,1.7,0.2C362.7,274.4,362.7,274.3,362.7,274.3z"/>
	<path d="M133,151.9c-0.1,0.4-0.1,0.8-0.2,1.2c0.8,0.2,1.3,0.5,0.8,0.8c-1.4,1.1,0.2,0.8,2.1,1c1,0.1,1.8,0.1,2.6,0.1
		c0.1-0.6,0.2-1.2,0.3-1.8c-0.9-0.2-1.9-0.6-2.8-1.1C135.1,151.8,134.1,151.9,133,151.9z"/>
	<path d="M613.7,158.4c0.1,0.6,0.2,1.2,0.3,1.7c0.9-0.2,1.6-0.5,1.6-1C615.7,158.6,614.9,158.4,613.7,158.4z"/>
	<path d="M121,222.4c-0.1,0-0.2,0-0.3,0c-0.2,1.1-0.4,2.2-0.5,3.4c0.2,0.1,0.5,0.2,0.7,0.3C119.9,224.8,123.4,223.6,121,222.4z"/>
	<path d="M342.8,174.8C342.8,174.8,342.8,174.8,342.8,174.8C342.8,174.8,342.8,174.8,342.8,174.8
		C342.8,174.8,342.8,174.8,342.8,174.8C342.9,174.8,342.8,174.8,342.8,174.8z"/>
	<path d="M340,174.8c0.1,0.4,0.2,0.8,0.2,1.2c1.8-0.1,4.1-0.1,2.6-1.3C341.9,174.8,340.9,174.8,340,174.8z"/>
	<path d="M614.8,163.7c0.1,0.6,0.2,1.2,0.4,1.9c0.4,0.2,0.9,0.3,1.6,0.3c3.1,0.3,3.4-0.6,4.1-1.4c0.5-0.5-0.5-0.8-1.5-0.7
		C618,163.9,616.2,163.6,614.8,163.7z"/>
	<path d="M406.4,212.5c-1,0.1-2.4,0.7-3.6,1c1,0.3,2.3,0.6,3.3,0.9C406.1,213.8,406.3,213.1,406.4,212.5z"/>
	<path d="M635.4,239.4c-1.2-0.9-3.9,0.7-5.1,0.5c-0.6-0.2-1.2-0.3-1.6-0.4c0.1,0.5,0.2,0.9,0.2,1.4c0.3,0.1,0.6,0.1,0.7,0.2
		c1.7-0.4,4.9-0.4,5.8-0.9C635.5,240,635.5,239.7,635.4,239.4z"/>
	<path d="M120.8,226C120.8,226,120.8,226,120.8,226C120.8,226,120.8,226,120.8,226c4.7-0.6,5.1-1.7,4.5-2.9
		c-0.1-0.2-0.3-0.4-0.4-0.7c-0.2-0.2-0.3-0.4-0.5-0.7c-0.1-0.1-0.2-0.2-0.2-0.3c-1.1,0.3-2.1,0.6-3.2,0.9
		C123.4,223.6,119.9,224.8,120.8,226z"/>
	<path d="M130.5,172.1C130.5,172.1,130.5,172.1,130.5,172.1C130.5,172.1,130.4,172.1,130.5,172.1L130.5,172.1z"/>
	<path d="M135.4,171.3c-1.3-0.3-2.8-0.3-4.9,0.9c1.6,0.1,3,0.5,4.6,0.7C135.2,172.3,135.3,171.8,135.4,171.3z"/>
	<path d="M359.7,253.1c-0.1-0.4-0.1-0.7-0.2-1.1c-0.8-0.1-1.6,0-2.3,0.2c-0.2,0.1-0.3,0.3-0.2,0.4
		C357.5,253.1,358.7,253.1,359.7,253.1z"/>
	<path d="M347.2,209.6c-0.4,0.3-0.9,1.5,1.7,1.6c3,0.2,2.9-0.7,3.4-1.3c0-0.2-0.1-0.4-0.1-0.6C350.3,209.2,348.3,208.8,347.2,209.6z
		"/>
	<path d="M412.9,141.2c-0.1,0.5-0.2,1-0.3,1.5c1.9-0.3,3.5-0.7,5.1-1.2C416.1,141.2,414.5,141.1,412.9,141.2z"/>
	<path d="M629.8,245.8c0,0.2,0.1,0.4,0.1,0.6c0.1-0.1,0.1-0.1,0.2-0.2C630.2,246,630,245.9,629.8,245.8z"/>
	<path d="M121.4,256.5C121.4,256.5,121.4,256.5,121.4,256.5C121.4,256.5,121.4,256.5,121.4,256.5
		C121.4,256.5,121.4,256.5,121.4,256.5z"/>
	<path d="M621.8,200.2c0.1,0.3,0.1,0.7,0.2,1c1.1,0.2,2.3,0.3,3.6,0.3c0-0.3,0-0.6,0-0.9C624.3,200.7,623.1,200.4,621.8,200.2z"/>
	<path d="M625.7,200.6L625.7,200.6C625.7,200.6,625.7,200.6,625.7,200.6C625.7,200.6,625.7,200.6,625.7,200.6
		C625.7,200.6,625.7,200.6,625.7,200.6z"/>
	<path d="M625.6,201.5C625.6,201.5,625.6,201.5,625.6,201.5L625.6,201.5C625.7,201.5,625.7,201.5,625.6,201.5z"/>
	<path d="M625.8,200.5c-0.1,0.1-0.1,0.1-0.1,0.2c0,0,0,0,0,0c0,0,0,0,0,0C625.7,200.6,625.8,200.5,625.8,200.5z"/>
	<path d="M628.2,198.9c-2.1,0.1-2.1,0.9-2.4,1.6c0.4-0.4,1.5-0.6,2.6-0.8C628.3,199.4,628.3,199.1,628.2,198.9z"/>
	<path d="M347.8,215.7c0.3,0.2,1.1,0.4,1.7,0.4c0.7,0.1,1.6-0.1,1.3-0.4c-0.3-0.3-1-0.6-2.1-0.6
		C347.9,215.2,347.3,215.4,347.8,215.7z"/>
	<path d="M359.7,290.7C359.8,290.7,359.8,290.7,359.7,290.7c0.1,0,0.1,0,0.1,0C359.8,290.7,359.8,290.7,359.7,290.7z"/>
	<path d="M415.9,149.5c-1.3,0-1.6,0.4-1.4,0.7c0.2,0.4-0.3,1,1.5,0.9c0.5,0,0.9-0.1,1.1-0.2c0.1-0.4,0.1-0.8,0.2-1.2
		C417.1,149.6,416.5,149.5,415.9,149.5z"/>
	<path d="M129.3,172.3c0.4,0,0.7,0,1.1-0.2c-0.3,0-0.7-0.1-1-0.1C129.3,172.1,129.3,172.2,129.3,172.3z"/>
	<path d="M130.5,172.1C130.5,172.1,130.4,172.1,130.5,172.1C130.4,172.1,130.4,172.1,130.5,172.1
		C130.4,172.1,130.4,172.1,130.5,172.1z"/>
	<polygon points="622.9,199.3 622.5,199.3 622.7,199.5 	"/>
	<path d="M354.7,253.9c0.2-0.1,0.4-0.1,0.6-0.2c-0.1,0-0.3,0-0.4-0.1c-0.1,0-0.3,0.1-0.4,0.1C354.5,253.8,354.6,253.9,354.7,253.9z"
		/>
	<path d="M139.1,150.9c0.1-0.5,0.2-1,0.3-1.4c-1.1,0.2-2.1,0.6-3.3,0.7C136.6,150.8,137.8,150.9,139.1,150.9z"/>
	<path d="M640.4,272.4c-0.2,0.1-0.4,0.1-0.5,0.2c0.2,0.1,0.4,0.1,0.6,0.2C640.5,272.7,640.4,272.5,640.4,272.4z"/>
	<path d="M631.5,216.9c-1.2,1-1.6,1.7-1.1,2.2c0.3,0.3,0.8,0.5,1.6,0.7C631.9,218.8,631.7,217.8,631.5,216.9z"/>
	<path d="M637,276.2c1.1-0.3,2.2-0.6,3.8-1c0-0.2,0-0.3-0.1-0.5c-1.2,0-1.9,0-2.4-0.1c-0.1,0-0.3-0.1-0.3-0.1s-0.1-0.1-0.2-0.1
		c-0.1-0.1,0-0.2,0-0.3c0-0.1,0.1-0.1,0.2-0.2c0.1-0.1,0.1-0.1,0.2-0.2c0.4-0.3,0.9-0.7,0.6-0.9c-1.1-0.1-1.9-0.1-2.4,0.3
		C635.4,274.1,635.1,275.2,637,276.2z"/>
	<path d="M420,134.7c0,0,0.1,0.1,0.1,0.1c0-0.2,0.1-0.4,0.1-0.6C420,134.3,419.8,134.4,420,134.7z"/>
	<path d="M625.5,204.8c-0.3,0.7,1,1.1,2.6,1.3c0.5,0.1,1,0.1,1.5,0.1c-0.1-0.7-0.2-1.3-0.4-2c-0.3,0-0.6,0-1,0
		C627,204.2,625.7,204.3,625.5,204.8z"/>
	<path d="M137.1,130.3c0.9-0.3,1.8-0.6,2.8-0.9c-0.9-0.2-1.8-0.3-2.6-0.3C137.3,129.5,137.2,129.9,137.1,130.3z"/>
	<polygon points="634.7,271.6 634.4,271.6 634.5,271.7 	"/>
</g>
</svg>
