<?xml version="1.0" encoding="utf-8"?>
<!-- Generator: Adobe Illustrator 25.3.0, SVG Export Plug-In . SVG Version: 6.00 Build 0)  -->
<svg version="1.1" id="Layer_1" xmlns="http://www.w3.org/2000/svg" xmlns:xlink="http://www.w3.org/1999/xlink" x="0px" y="0px"
	 viewBox="0 0 750.2 400.1" style="enable-background:new 0 0 750.2 400.1;" xml:space="preserve">
<path d="M129.6,170.9c-0.2,1.3-0.5,2.6-0.7,3.8l5.7,0.8c0.2-1.3,0.5-2.6,0.7-3.8L129.6,170.9z"/>
<path d="M126.4,188.4c-0.2,1.3-0.5,2.6-0.7,3.8l5.8,0.8c0.2-1.3,0.4-2.6,0.7-3.8L126.4,188.4z"/>
<path d="M123.5,205.6c-0.2,1.3-0.4,2.6-0.7,3.8l5.8,0.9c0.2-1.3,0.4-2.6,0.6-3.9L123.5,205.6z"/>
<path d="M120.5,223c-0.2,1.3-0.4,2.6-0.6,3.9l5.8,0.9c0.2-1.3,0.4-2.6,0.6-3.9L120.5,223z"/>
<path d="M117.8,240.2c-0.2,1.3-0.4,2.6-0.6,3.9l5.9,0.9c0.2-1.3,0.4-2.6,0.6-3.9L117.8,240.2z"/>
<path d="M115.2,257.8c-0.2,1.3-0.4,2.6-0.5,3.9l5.9,0.9c0.2-1.3,0.3-2.6,0.5-3.9L115.2,257.8z"/>
<path d="M113,275.1c-0.2,1.3-0.3,2.6-0.4,3.9l5.9,0.9c0.1-1.3,0.3-2.5,0.4-3.9L113,275.1z"/>
<path d="M407.9,168.4c-0.2,1.3-0.5,2.6-0.7,3.8l5.9,0.9c0.2-1.3,0.5-2.6,0.7-3.8L407.9,168.4z"/>
<path d="M404.8,185.9c-0.2,1.3-0.5,2.6-0.7,3.8l6,0.9c0.2-1.3,0.4-2.6,0.7-3.8L404.8,185.9z"/>
<path d="M401.8,203c-0.2,1.3-0.4,2.6-0.7,3.8l6,0.9c0.2-1.3,0.4-2.6,0.6-3.8L401.8,203z"/>
<path d="M398.9,220.5c-0.2,1.3-0.4,2.6-0.6,3.9l6,0.9c0.2-1.3,0.4-2.6,0.6-3.9L398.9,220.5z"/>
<path d="M396.1,237.7c-0.2,1.3-0.4,2.6-0.6,3.9l6.1,0.9c0.2-1.3,0.4-2.6,0.6-3.9L396.1,237.7z"/>
<path d="M393.5,255.2c-0.2,1.3-0.4,2.6-0.5,3.9l6.1,0.9c0.2-1.3,0.4-2.6,0.5-3.9L393.5,255.2z"/>
<path d="M391.2,272.5c-0.2,1.3-0.3,2.6-0.4,3.9l6.1,0.9c0.1-1.3,0.3-2.6,0.4-3.9L391.2,272.5z"/>
<path d="M392.5,290.6c1,0.2,2.1,0.5,3.1,0.7c0-0.1,0-0.2,0-0.2L392.5,290.6z"/>
<path d="M345.3,172.6c-0.3-1.3-0.5-2.6-0.8-3.8l-5.6,0.8c0.2,1.3,0.5,2.6,0.7,3.8L345.3,172.6z"/>
<path d="M348.6,190c-0.2-1.3-0.5-2.6-0.7-3.8l-5.6,0.8c0.2,1.3,0.5,2.6,0.7,3.8L348.6,190z"/>
<path d="M351.8,207.2c-0.2-1.3-0.5-2.6-0.7-3.8l-5.6,0.8c0.2,1.3,0.5,2.6,0.7,3.8L351.8,207.2z"/>
<path d="M355,224.6c-0.2-1.3-0.5-2.6-0.7-3.8l-5.6,0.8c0.2,1.3,0.5,2.6,0.7,3.8L355,224.6z"/>
<path d="M357.9,241.8c-0.2-1.3-0.4-2.6-0.6-3.9l-5.6,0.8c0.2,1.3,0.4,2.6,0.6,3.9L357.9,241.8z"/>
<path d="M360.7,259.3c-0.2-1.3-0.4-2.6-0.6-3.9l-5.6,0.8c0.2,1.3,0.4,2.6,0.6,3.9L360.7,259.3z"/>
<path d="M363,276.6c-0.1-1.3-0.3-2.6-0.5-3.9l-5.6,0.8c0.2,1.3,0.3,2.6,0.5,3.9L363,276.6z"/>
<path d="M623.1,172.5c-0.3-1.3-0.5-2.6-0.8-3.8l-6.4,0.9c0.2,1.3,0.5,2.6,0.7,3.8L623.1,172.5z"/>
<path d="M626.5,189.9c-0.2-1.3-0.5-2.6-0.7-3.8l-6.4,0.9c0.2,1.3,0.5,2.6,0.7,3.8L626.5,189.9z"/>
<path d="M629.7,207c-0.2-1.3-0.5-2.6-0.7-3.8l-6.5,0.9c0.2,1.3,0.5,2.6,0.7,3.8L629.7,207z"/>
<path d="M632.9,224.5c-0.2-1.3-0.5-2.6-0.7-3.8l-6.5,1c0.2,1.3,0.5,2.6,0.7,3.8L632.9,224.5z"/>
<path d="M635.8,241.7c-0.2-1.3-0.4-2.6-0.6-3.9l-6.5,1c0.2,1.3,0.4,2.6,0.6,3.9L635.8,241.7z"/>
<path d="M638.6,259.2c-0.2-1.3-0.4-2.6-0.6-3.9l-6.5,1c0.2,1.3,0.4,2.6,0.6,3.9L638.6,259.2z"/>
<path d="M640.9,276.4c-0.1-1.3-0.3-2.6-0.5-3.9l-6.5,1c0.2,1.3,0.3,2.6,0.5,3.9L640.9,276.4z"/>
<path d="M637.2,291l-1.5,0.2c0,0,0,0.1,0,0.1C636.3,291.2,636.8,291.1,637.2,291z"/>
</svg>
