<?xml version="1.0" encoding="utf-8"?>
<!-- Generator: Adobe Illustrator 25.3.0, SVG Export Plug-In . SVG Version: 6.00 Build 0)  -->
<svg version="1.1" id="Layer_1" xmlns="http://www.w3.org/2000/svg" xmlns:xlink="http://www.w3.org/1999/xlink" x="0px" y="0px"
	 viewBox="0 0 750.2 400.1" style="enable-background:new 0 0 750.2 400.1;" xml:space="preserve">
<path d="M203.1,160c0.1,0,0.1,0.1,0.2,0.1C203.2,160.1,203.1,160,203.1,160C203.1,160,203.1,160,203.1,160z"/>
<path d="M195.1,155.5c-0.7-0.3-1.5-0.5-2.3-0.8c3.7,1.4,7.2,3.1,10.3,5.3c0,0,0,0,0,0C200.8,158.2,198.1,156.7,195.1,155.5z"/>
<path d="M203.1,160c0,0,0.1,0.1,0.2,0.1c2.7-2.2,6-4,9.9-5.3c-0.7,0.2-1.4,0.5-2.1,0.7C208,156.7,205.3,158.2,203.1,160z"/>
<path d="M288,128c-0.2-0.9-0.4-1.8-0.6-2.9c0-0.1,0-0.2-0.1-0.3c-1.1-5.3-2.6-12.5-5.2-20.1c-28.3,0.2-64.7-2.4-78.9,14.3l-0.1,0.2
	l-0.1-0.3c-14.4-16.7-52.3-13.9-80.9-14.2c-2.7,8.3-4.4,16.1-5.5,21.3l-0.5,2.2c-0.2,1.1-0.5,2.1-0.8,3.1c0.3,1,2.1,8.6,3.1,20.8
	c15.9-1.8,37.5-3.3,55.8-1.3c4.2,0.4,8.4,1.1,12.3,2.1c3,0.7,5.9,1.6,8.5,2.7c3,1.1,5.7,2.6,8,4.5c2.3-1.9,4.9-3.4,8-4.5
	c19.2-7.8,52.7-6,75.4-3.6c0.9-9.1,2.2-15.5,3-18.7c-0.1-0.2-0.1-0.5-0.2-0.7c0-0.1-0.1-0.2-0.1-0.3
	C288.7,130.9,288.3,129.5,288,128z"/>
<path d="M203.2,119.3l0.1-0.2l5.2-16.2c-1.6,0.2-3.2,0.3-4.9,0.3h-1.9l-0.1,0c-1.2,0-2.4-0.1-3.6-0.1l5.1,16L203.2,119.3z"/>
</svg>
