<?xml version="1.0" encoding="utf-8"?>
<!-- Generator: Adobe Illustrator 25.3.0, SVG Export Plug-In . SVG Version: 6.00 Build 0)  -->
<svg version="1.1" id="Layer_1" xmlns="http://www.w3.org/2000/svg" xmlns:xlink="http://www.w3.org/1999/xlink" x="0px" y="0px"
	 viewBox="0 0 750.2 400.1" style="enable-background:new 0 0 750.2 400.1;" xml:space="preserve">
<g>
	<path d="M115.1,73.1c5-3.9,9.9-7.9,14.8-11.7c3.5-2.7,7-5.5,10.5-8.3l-21.1,6.4c-1.5,2.2-2.4,4.7-3.4,9.4
		C115.6,70.2,115.3,71.7,115.1,73.1z"/>
	<path d="M113.6,84c13.6-10.8,27.1-21.5,40.7-32.2c-0.1-1.6-0.2-2.8-0.2-2.8l-13.1,4c-8.7,6.9-17.4,13.8-26.1,20.7
		C114.5,76.8,114,80.3,113.6,84z"/>
	<path d="M113.5,85.4c0,0.4-0.1,0.8-0.1,1.1c0,0.5-0.1,1.1-0.1,1.6c-0.2,1.9-0.3,3.9-0.5,5.9c14.2-11.2,28.4-22.5,42.6-33.7
		c-0.1-0.4-0.2-0.8-0.2-1.3c-0.4-1.9-0.6-4.7-0.8-6.9c-13.7,10.9-27.2,21.8-40.8,32.5C113.6,84.9,113.5,85.1,113.5,85.4z"/>
	<path d="M112.5,99c0,0.7-0.1,1.3-0.1,2c-0.1,0.9-0.1,1.9-0.1,2.8c4.3-3.4,8.7-6.9,13.1-10.4c0.7-0.5,1.4-1.1,2.1-1.6c0,0,0,0,0,0
		c7.6-6.1,15.4-12.2,23.2-18.4c2.3-1.8,4.5-3.6,6.8-5.4c-0.7-2.3-1.3-4.7-1.8-6.9c-14.3,11.3-28.5,22.5-42.8,33.9
		C112.7,96.4,112.6,97.7,112.5,99z"/>
	<path d="M111.7,113.5c3.4-2.7,6.8-5.4,10.2-8.1c0,0,0,0,0,0.1c12.6-10,25.1-19.9,37.6-29.8c0,0,0,0,0,0c0.2-0.2,0.4-0.3,0.6-0.5
		c-0.8-1.7-1.5-3.5-2.1-5.2c-0.1-0.2-0.1-0.4-0.2-0.6c-15.2,12.1-30.4,24.1-45.7,36.2C112,108.2,111.8,110.9,111.7,113.5z"/>
	<path d="M118.8,120.1c-0.4,0.3-0.8,0.6-1.2,0.9c0,0,0,0,0,0c-2.1,1.7-4.3,3.4-6.4,5.1c-0.1,1.8-0.2,3.4-0.3,4.9l0.3-0.1l0.1,0.3
		c0,0,0.1,0.3,0.3,0.9c1.5-1.2,2.9-2.3,4.4-3.5c0,0,0,0.1,0,0.1c17.2-13.6,34.3-27.2,51.4-40.8c0,0,0,0,0,0c0.2-0.1,0.3-0.3,0.5-0.4
		c-1.1-1.3-2.1-2.7-3.1-4.1c-9.5,7.5-19.1,15.1-28.8,22.9C130.4,110.9,124.6,115.5,118.8,120.1z"/>
	<path d="M251.6,48.9c-0.5-0.1-0.9-0.1-0.9-0.1c0,0.4,0,0.7,0,1.2c0.4-0.4,0.8-0.7,1.2-1L251.6,48.9z"/>
	<path d="M116.3,156.5c22.5-17.8,45-35.6,67.6-53.7c0.8-0.6,1.5-1.2,2.3-1.8c0.1-0.1,0.2-0.1,0.2-0.2c0,0,0,0,0,0
		c0.2-0.1,0.4-0.3,0.5-0.4c-1.3-0.4-2.6-0.9-3.9-1.4c-22.3,17.6-44.8,35.6-67.2,53.6C116,153.8,116.2,155.1,116.3,156.5z"/>
	<path d="M257,50.5c-2.3,1.9-4.6,3.7-6.9,5.6c0,0.2-0.1,0.4-0.1,0.7c0,0.1,0,0.1,0,0.2c0,0.3-0.1,0.5-0.1,0.8
		c-0.1,0.8-0.3,1.6-0.4,2.5c3.6-2.9,7.3-5.7,10.8-8.7L257,50.5z"/>
	<path d="M116.9,161.6c0.1,1.1,0.2,2.2,0.3,3.4c0.7-0.5,1.4-1.1,2-1.6c0,0,0,0,0,0.1c25.4-20.2,50.9-40.4,76.5-60.7c0,0-0.1,0-0.1,0
		c0.2-0.2,0.4-0.4,0.7-0.5c-1.3-0.1-2.5-0.3-3.8-0.5c-23.8,18.8-47.4,37.6-70.6,56C120.2,159,118.5,160.3,116.9,161.6z"/>
	<path d="M266.1,53.3c-5.4,4.3-10.8,8.6-16.1,12.9l-0.1,0c-0.5,0.4-1,0.8-1.4,1.1c0,0,0,0.1,0,0.1c-0.3,0.3-0.7,0.6-1,0.8
		c-0.4,1.3-0.9,2.6-1.4,3.9c0,0.1,0,0.1-0.1,0.2c7.6-6.1,15.3-12.1,23-18.2L266.1,53.3z"/>
	<path d="M188.8,124.7c-7.3,5.9-14.6,11.6-21.9,17.4c-10.7,8.4-21.3,16.7-31.8,25.1c-1.2,1-2.4,1.9-3.7,2.9
		c-4.2,3.4-8.5,6.8-12.6,10.1c0,0,0,0,0,0c-0.5,0.4-1,0.8-1.4,1.1c0,0.6,0,1.3-0.1,2c0.4-0.4,0.9-0.7,1.4-1.1c0,0,0,0,0,0
		c35.4-28.1,71.2-56.1,107-84.5c-0.1,0.1-0.2,0.1-0.3,0.2c1.3-1.1,2.7-2.1,4-3.2c-2.8,2-5.9,3.6-9.3,4.9c-8.1,6.5-16.3,13-24.6,19.7
		C193.3,121.1,191.1,122.9,188.8,124.7z"/>
	<path d="M282.2,356.3c0,0,0.1,0,0.1,0c-0.6,0.5-1.2,0.9-1.7,1.4c-3.8,3-7.7,6.1-11.6,9.2c9.3-1.4,17.2-2.7,22.7-3.7
		c2.8-2.2,5.5-4.4,8.3-6.6v-2.5v-11.8c-2.6,2.1-5.3,4.2-8,6.3C288.8,351.2,285.5,353.8,282.2,356.3z"/>
	<path d="M251.4,360.9c16.2-12.8,32.3-25.5,48.5-38.4l0-0.1c0,0,0,0,0.1-0.1l0-7.1h-0.1l0-1.2c-4.8,3.8-9.7,7.7-14.5,11.5
		c-13.2,10.5-26.9,21.3-40.6,32.2c-5.9,4.7-11.8,9.4-17.8,14.1c4-0.3,7.9-0.7,11.8-1.1c4.2-3.3,8.3-6.5,12.5-9.8
		C251.3,360.9,251.4,360.9,251.4,360.9z"/>
	<path d="M236.6,362.6c21-16.7,42.1-33.4,63.2-50.1l0-7.7c-0.1,0.1-0.2,0.1-0.3,0.2v0c-28.6,22.7-57.1,45.3-85.5,67.8
		c3.5-0.2,7-0.4,10.6-0.7C228.6,368.9,232.6,365.8,236.6,362.6C236.6,362.6,236.6,362.6,236.6,362.6z"/>
	<path d="M222.4,363.9c25.8-20.5,51.5-40.9,77.4-61.4l0-7c-0.1,0.1-0.1,0.1-0.2,0.2v0c-32.4,25.7-65,51.6-97.9,77.6
		c3-0.1,6.1-0.2,9.2-0.3C214.7,369.9,218.5,366.9,222.4,363.9C222.4,363.9,222.4,363.9,222.4,363.9z"/>
	<path d="M208.8,364.8c21.5-17,43.2-34,65.6-52c2.8-2.3,5.6-4.5,8.4-6.8c5.5-4.4,11.1-8.9,16.7-13.3v0c0.1-0.1,0.1-0.1,0.2-0.2
		l0-6.3c-0.1,0-0.1,0.1-0.2,0.1l0-0.1c-36.8,29.2-73.6,58.4-109.5,86.9c1,0,2,0.1,3,0.1c0,0,0,0,0,0c0.6,0,1.2,0,1.8,0
		c0.2,0,0.3,0,0.5,0c0.5,0,0.9,0,1.4,0c0.3,0,0.6,0,0.9,0c0.1,0,0.2,0,0.2,0c3.6-2.8,7.2-5.7,10.8-8.5
		C208.7,364.8,208.8,364.8,208.8,364.8z"/>
	<path d="M299.7,272.5l0-0.6v-4.3c-40.6,32.2-80.7,64.1-121.7,96.5c0,0,0,0,0.1,0c-3.2,2.5-6.4,5.1-9.6,7.6c1.9,0.2,3.9,0.4,5.8,0.5
		c34.3-27.3,68.2-54.5,102.1-81.3C284.1,284.7,291.9,278.6,299.7,272.5z"/>
	<path d="M635.1,80.9c-0.8-6.7-1.9-12.5-3.3-16.8c-3.1-2.5-6.3-4.9-9.4-7.4L593.9,48l-0.3-0.1c0,0-0.1,0-0.3,0
		c5.7,4.5,11.4,9.1,17.1,13.5C618.6,67.9,626.9,74.5,635.1,80.9z"/>
	<path d="M636.1,91c-0.3-3.3-0.6-6.5-1-9.5c-14-11.2-28.2-22.4-42.2-33.6c-0.7,0-1.9-0.1-3.5-0.2c-2.4-0.2-5.4-0.3-9.2-0.5
		c18.6,14.8,37.2,29.4,55.9,44.2C636.1,91.3,636.1,91.1,636.1,91z"/>
	<path d="M631.7,162.7c0.1-1.4,0.2-2.7,0.4-4c-0.7-0.6-1.5-1.2-2.2-1.8c0,0,0,0,0-0.1c-37.9-30.3-75.9-60.7-113-89.6
		c-3.6-2.8-7.1-5.6-10.6-8.4l0,0c-3.9-3.1-7.7-6.1-11.5-9.2l-3.9,1.2c22,17.4,44,34.6,65.7,52C581.5,122.9,606.6,142.8,631.7,162.7z
		"/>
	<path d="M632.7,200.7c-0.1-0.6-0.2-1.3-0.2-1.9c-0.3-0.2-0.5-0.4-0.8-0.6c0,0,0,0,0-0.1c-8.9-7-17.7-14-26.5-21
		c-15.6-12.3-31.3-24.8-47-37.3c-22.2-17.7-44.5-35.4-66.7-53.1c-3.7-2.9-7.3-5.8-11-8.7c0,0,0,0,0,0c-6.6-5.2-13.1-10.4-19.7-15.6
		c-0.1,0.3-0.3,0.6-0.4,0.9c0,0.1-0.1,0.2-0.1,0.4c37.9,30,74,58.8,112.4,89.2C593,169.2,612.9,185,632.7,200.7z"/>
	<path d="M621.6,220c1.9,1.5,3.9,3,5.9,4.6c0.9,0.7,1.7,1.3,2.6,2c1.6,1.3,3.2,2.5,4.8,3.8c-0.5-0.4-1-0.8-1.5-1.2
		c0.5,0.4,1,0.8,1.4,1.1c-52.7-41.9-106.3-84.7-156.2-124.1c-3.6-2.9-7.1-5.6-10.6-8.4c0,0,0,0,0,0c-4.2-3.3-8.3-6.6-12.4-9.8
		c0,0,0,0.1,0,0.1c31.3,24.9,62.2,50.1,94.3,74.9C573.9,181.7,597.5,201.3,621.6,220z"/>
	<path d="M484.5,367.6c-7.2-5.7-14.5-11.4-21.7-17.1c-4.9-3.9-9.7-7.7-14.6-11.6l0,0c-0.2-0.1-0.4-0.3-0.5-0.4v9.2
		c0.1,0.1,0.2,0.2,0.3,0.3l0,0c11.4,9.1,22.9,18.2,34.4,27.3c5.7,1.8,11.8,3.6,18.3,5.2C495.3,376.2,489.9,371.9,484.5,367.6
		C484.5,367.6,484.5,367.6,484.5,367.6z"/>
	<path d="M502.4,372.5c-16.7-13.2-33.2-26.3-49.6-39.3c-1.4-1.1-2.9-2.3-4.3-3.4l0,0c-0.3-0.2-0.5-0.4-0.8-0.6l0,6.8l0,1.9
		c0.2,0.1,0.4,0.3,0.5,0.4l0,0c17.6,14,35.2,28.1,53,42.2c4.9,1.2,10,2.2,15.2,3.1C511.8,380,507,376.2,502.4,372.5
		C502.4,372.5,502.4,372.5,502.4,372.5z"/>
	<path d="M518.2,375.7c-17.8-14.1-35.5-28.2-52.9-41.9c-3.4-2.7-6.9-5.5-10.3-8.2c-1.7-1.4-3.4-2.7-5.1-4.1
		c-0.7-0.6-1.5-1.2-2.2-1.8v8.4c4.4,3.5,8.9,7,13.4,10.6c9.3,7.4,18.6,14.7,27.9,22c0.7,0.5,1.4,1.1,2.1,1.6
		c4.5,3.5,9,7.1,13.5,10.6c0,0,0,0,0.1,0c3.1,2.4,6.2,4.8,9.2,7.3c1.5,1.2,3.1,2.4,4.6,3.6c4,0.6,8,1.1,12.1,1.5
		C526.4,382.2,522.3,379,518.2,375.7C518.2,375.7,518.2,375.7,518.2,375.7z"/>
	<path d="M555.5,377.3c-35.3-28-71.6-56.8-107.8-85.5v6.4c3.4,2.7,6.8,5.4,10.2,8.1c2.7,2.1,5.4,4.3,8,6.4
		c31.6,25.2,61.6,48.8,91.9,72.7c2.3-0.2,4.7-0.5,7-0.8C561.7,382.2,558.6,379.8,555.5,377.3C555.5,377.3,555.5,377.3,555.5,377.3z"
		/>
	<path d="M565.9,376.2c-15.1-11.9-30.1-23.8-45.4-36.1c-24.4-19.4-48.5-38.5-72.8-57.7v5.8c0.3,0.2,0.6,0.5,0.9,0.7v0
		c17.7,14.1,35.6,28.2,53.9,42.7c22.4,17.8,44.2,35,66.2,52.5c2-0.3,4-0.6,5.9-1c-2.9-2.3-5.9-4.6-8.8-6.9
		C565.8,376.2,565.9,376.2,565.9,376.2z"/>
	<path d="M447.7,273.2v4.8c0.3,0.2,0.6,0.5,0.9,0.7v0c28.1,22.1,56.1,44.5,84.3,67c12.4,9.9,24.9,19.9,37.4,29.8c0,0,0,0,0,0
		c2.8,2.3,5.7,4.5,8.5,6.8c1.7-0.3,3.4-0.7,5.1-1.1c-43.7-34.6-86.4-68.5-129.4-102.6C452.3,276.8,450,275,447.7,273.2z"/>
	<path d="M593.9,370.6c-10.4-8.3-20.9-16.5-31.3-24.8c-21.9-17.3-43.7-34.6-65.4-51.8c-16.6-13.1-33.1-26.3-49.6-39.4v3.6
		c0.3,0.2,0.6,0.5,0.9,0.7v0c1,0.8,2.1,1.6,3.1,2.4c34,27,69.1,54.8,104.2,82.6c11.6,9.2,23.1,18.4,34.6,27.5c0,0,0,0,0,0
		c2.6,2.1,5.2,4.1,7.8,6.2c1.1-0.3,2.2-0.6,3.3-0.9C599,374.7,596.5,372.6,593.9,370.6C593.9,370.6,593.9,370.6,593.9,370.6z"/>
	<path d="M534.1,313.9c-18.9-15-37.8-30-56.7-45c-9.9-7.9-19.8-15.7-29.7-23.6l-0.1,2.8l0,0.1c50.6,40.1,100.5,79.7,152.2,120.8
		c0,0,0,0,0.1,0c2.5,2,5,4,7.6,6c0.9-0.3,1.8-0.6,2.7-0.9c-10-7.9-19.9-15.8-29.9-23.7C564.8,338.2,549.5,326,534.1,313.9z"/>
	<path d="M638.6,349.8c-39.8-31.1-78.2-62.8-118.4-93.9c-21-16.2-41.7-33.3-62.7-49.8c0,0.1,0,0.2,0,0.2c0.2,0.1,0.3,0.3,0.5,0.4
		c0,0,0,0,0,0c45.3,36,90.7,72.3,133.5,106c16.6,13.1,31.6,25,47.1,37.2c0,0,0-0.1,0.1-0.1C638.6,349.9,638.5,349.9,638.6,349.8
		C638.5,349.8,638.5,349.8,638.6,349.8z"/>
	<path d="M110.4,124.8c0.6-16.5,1.3-41.2,4.6-56.4c0.9-4.2,1.3-6.4,2.7-8.9L39.4,83.3L53,144.6l56.9-13.5
		C110.2,129.2,110.3,127.1,110.4,124.8z"/>
	<path d="M630.4,59.2c6.4,9.6,7.6,42.8,8.4,65.4v1.2c0.1,1.5,0.1,2.8,0.2,4.1c0,0.5,0.1,0.9,0.1,1.4l57.7,13.5l13.7-61.3L630.4,59.2
		z"/>
	<path d="M120.9,108.6c-3.1,2.4-6.1,4.9-9.2,7.3c0,0.6-0.1,1.2-0.1,1.8c-0.1,1.5-0.1,2.9-0.2,4.3c0,0.4,0,0.8,0,1.2
		c17.4-13.8,34.7-27.6,52.2-41.4c-1-1.6-1.9-3.2-2.7-4.9c-0.2,0.2-0.4,0.3-0.6,0.5c0,0,0,0,0,0C147.2,87.7,134.1,98.2,120.9,108.6
		C120.9,108.6,120.9,108.6,120.9,108.6z"/>
	<path d="M115.7,132.7c-1.1,0.9-2.2,1.7-3.3,2.6c0.3,1.3,0.7,2.9,1.2,4.7c19.9-15.7,39.7-31.3,59.6-47.2c-1.2-1-2.3-2-3.4-3.1
		c-0.2,0.1-0.3,0.3-0.5,0.4c0,0,0,0,0,0C151.2,104.5,133.3,118.6,115.7,132.7C115.7,132.6,115.7,132.7,115.7,132.7z"/>
	<path d="M117.3,141.5c-1,0.8-1.9,1.5-2.9,2.3c0.3,1.3,0.5,2.7,0.8,4.2c21.4-17,42.8-34,64.2-51c-1.2-0.7-2.3-1.4-3.4-2.1
		c-0.2,0.1-0.3,0.3-0.5,0.4c0,0,0,0,0,0C156.1,110.9,136.7,126.2,117.3,141.5C117.3,141.5,117.3,141.5,117.3,141.5z"/>
	<path d="M119.2,169.9c-0.6,0.5-1.2,0.9-1.8,1.4c0,0.9,0.1,1.9,0.1,2.9c30.2-23.9,60.3-47.8,90.6-71.9c-1.3,0.1-2.6,0.2-3.9,0.2
		c-0.3,0.2-0.5,0.4-0.8,0.6h0C175.2,125.4,147.3,147.6,119.2,169.9C119.2,169.9,119.2,169.9,119.2,169.9z"/>
	<path d="M236.9,88.8c4.3-3.4,8.6-6.8,12.9-10.3c3.1-2.5,6.3-5,9.6-7.6c0,0,0,0,0,0c5.8-4.6,11.8-9.4,17.9-14.2l-2-0.6
		c-11.8,9.4-23.6,18.6-35.4,28c-2,2.8-4.3,5.5-6.9,7.9c1.4-1.1,2.8-2.3,4.2-3.4C237.1,88.6,237,88.7,236.9,88.8z"/>
	<path d="M135.2,177.1c-5.7,4.5-11.4,9-17.2,13.6c0,0,0,0,0,0c-0.4,0.3-0.7,0.6-1.1,0.8c0,0.6-0.1,1.2-0.1,1.7
		c0.3-0.3,0.7-0.5,1-0.8c0,0,0,0,0,0c12.9-10.2,25.9-20.5,39-30.9c3.6-2.9,7.3-5.8,11-8.7c40.1-31.8,77.8-61.8,117.5-93.3
		c-0.1-0.3-0.3-0.5-0.4-0.7l-0.5-0.2c-6.7,5.3-13.4,10.6-20.1,15.9c0,0,0,0,0,0c-0.3,0.3-0.7,0.5-1,0.8c-4.3,3.4-8.6,6.8-12.9,10.2
		c-4,3.2-7.9,6.3-11.9,9.5c-2,1.6-4.1,3.2-6.1,4.9c-4.2,3.3-8.4,6.6-12.5,10C191.5,132.5,163.2,155,135.2,177.1z"/>
	<path d="M116.6,201.7C116.6,201.8,116.6,201.8,116.6,201.7c-0.3,0.2-0.5,0.4-0.7,0.6c-0.1,0.5-0.1,0.9-0.2,1.4
		c19-15,38-30,56.8-45.2c13.7-11,27.6-22.1,41.7-33.3c18.6-14.7,37.5-29.5,56-44.2c0,0,0,0,0,0c6-4.7,11.9-9.5,17.9-14.2
		c0-0.2-0.1-0.3-0.1-0.5c-0.1-0.2-0.1-0.3-0.2-0.5c-49.3,39.3-98.1,77.9-147.1,116.8C132.6,189,124.6,195.4,116.6,201.7z"/>
	<path d="M274,86.7c-53.3,42.3-106.3,84.4-159.6,126.7c0,0,0,0.1,0,0.1c-0.1,0.1-0.3,0.2-0.4,0.4c0,0.2-0.1,0.5-0.1,0.7
		c58.3-46.2,116.9-92.8,175.8-139.4c0-0.2-0.1-0.4-0.1-0.6C284.3,78.6,279.2,82.7,274,86.7C274,86.8,274,86.7,274,86.7z"/>
	<path d="M277.7,93.6c-5.2,4.1-10.6,8.4-16.1,12.7c-48.1,37.9-99.5,79-150.3,119.4c0,0,0,0.1,0,0.1c0.1-0.1,0.2-0.1,0.2-0.2
		c-0.1,0.1-0.3,0.2-0.4,0.3c0,0,0,0,0,0c2.5-2,5.1-4,7.7-5.9c24.2-18.7,47.7-38.3,71.7-56.9c34.1-26.4,66.7-53,100.1-79.5
		c0,0,0-0.1,0-0.1C286.3,86.8,282.1,90.2,277.7,93.6C277.7,93.6,277.7,93.6,277.7,93.6z"/>
	<path d="M299.9,332.7C299.9,332.7,299.9,332.7,299.9,332.7L299.9,332.7c-11.1,8.7-22,17.3-32.9,26c0,0,0.1,0,0.1,0
		c-4.3,3.4-8.6,6.8-12.9,10.2c5-0.6,9.8-1.3,14.2-2c10.5-8.3,21-16.7,31.5-25v-5.2c0,0,0,0,0,0L299.9,332.7z"/>
	<path d="M299.9,323.4C299.9,323.4,299.9,323.4,299.9,323.4L299.9,323.4c-6.7,5.3-13.4,10.6-20,15.9c-13.1,10.4-26.2,20.8-39.5,31.3
		c4.5-0.5,9-1,13.3-1.6c15.5-12.3,30.8-24.6,46.3-36.8L299.9,323.4z"/>
	<path d="M244.3,326.5c14.8-11.7,29.5-23.3,43.9-34.8c3.8-3,7.6-6,11.3-9l0,0c0.1,0,0.1-0.1,0.2-0.1l0-5.7c0,0-0.1,0.1-0.1,0.1
		c-26.7,21-53.1,41.9-79.7,63.2c-10.4,8.3-20.7,16.5-30.9,24.6c0,0,0.1,0,0.1,0c-3.3,2.6-6.7,5.3-10,7.9c2.2,0.2,4.4,0.3,6.6,0.4
		c17.3-13.7,34.5-27.4,52.2-41.4C240,329.9,242.2,328.2,244.3,326.5z"/>
	<path d="M299.6,262.7L299.6,262.7c0-0.1,0.1-0.1,0.1-0.1v-4.3c-24.4,19.3-48.7,38.5-73.1,58c-19.6,15.7-39.4,31.2-59.2,46.9
		c0,0,0,0,0.1,0c-3.1,2.5-6.2,4.9-9.3,7.4c1.6,0.2,3.1,0.4,4.7,0.5c8-6.4,16-12.8,24.3-19.2C224.1,323.1,261.8,292.8,299.6,262.7z"
		/>
	<path d="M299.6,252.7L299.6,252.7c0-0.1,0.1-0.1,0.1-0.1V249c-47.2,37.4-94.6,75-142.5,113c0,0,0.1,0,0.1,0
		c-3.1,2.4-6.1,4.9-9.2,7.3c1.3,0.2,2.5,0.3,3.8,0.5c45.8-36.4,92.3-73.1,136.8-108.5C292.3,258.5,295.9,255.6,299.6,252.7z"/>
	<path d="M297.9,241.2C297.9,241.2,297.8,241.2,297.9,241.2c-0.1,0.1-0.1,0-0.1,0c-50.1,39.8-100.2,79.4-150.7,119.5c0,0,0,0,0.1,0
		c-3,2.4-6,4.7-9,7.1c1,0.2,2.1,0.3,3.1,0.5c53.5-42.5,105-83.4,157.4-124.9C298.4,242.7,298.2,241.9,297.9,241.2z"/>
	<path d="M251.6,270.8c4.3-3.4,8.6-6.8,12.9-10.2c4.9-3.8,9.7-7.7,14.5-11.5c5.7-4.6,11.3-9,16.9-13.5c-0.2-0.5-0.3-1.1-0.5-1.6
		c0,0,0,0-0.1,0c0,0,0,0,0-0.1c-44.5,35.4-89.8,70.6-134.7,106.6c-7.4,5.9-15.4,12.3-23.5,18.7c0,0,0.1,0,0.1,0
		c-3,2.3-5.9,4.7-8.9,7c0.8,0.1,1.5,0.3,2.3,0.4c27.9-22.4,55.9-43.9,84.2-66.8C227.2,289.9,239.4,280.3,251.6,270.8z"/>
	<path d="M293.5,227.6c-0.1-0.3-0.2-0.7-0.3-1c0-0.1-0.1-0.3-0.1-0.4c-16.6,13.2-33.3,26.4-50.4,40c-39.3,31.2-76.4,60.7-115.3,91.5
		c0,0,0,0,0,0c-2.9,2.3-5.7,4.5-8.6,6.8c0.6,0.1,1.1,0.2,1.7,0.3C172.2,324,224.2,282.4,275.4,242
		C281.4,237.2,287.5,232.4,293.5,227.6z"/>
	<path d="M291.4,219.3C291.4,219.3,291.4,219.3,291.4,219.3c0-0.4-0.1-0.7-0.1-1c-2.8,2.2-5.6,4.5-8.5,6.7
		c-9.1,7.2-18.1,14.3-27.2,21.5c-1.1,0.9-2.2,1.8-3.3,2.6c-4.8,3.8-9.5,7.6-14.3,11.4c-39,31.4-80.8,63.8-120.3,95.3
		c0,0,0.1,0,0.1,0c-2.5,2-5.1,4.1-7.6,6.1c0.2,0.3,0.4,0.5,0.5,0.8c60.6-48.2,120.3-95.5,180.6-143.4
		C291.4,219.4,291.4,219.3,291.4,219.3z"/>
	<path d="M289.5,211c0.1-0.1,0.1-0.1,0.2-0.2c0-0.2-0.1-0.4-0.1-0.5c-4.3,3.4-8.5,6.8-12.8,10.1c-34.6,27.5-69.3,55-104.1,82.6
		c-21.4,17-42.9,34-64.4,51c0,0,0,0,0.1,0c-0.8,0.6-1.6,1.3-2.4,1.9c0.1,0.2,0.2,0.3,0.3,0.5C167.6,307.7,228.4,259.5,289.5,211
		C289.5,211,289.5,211,289.5,211z"/>
	<path d="M148.9,312.8c27-21.3,55.1-43.6,83.5-66.2c18.6-14.8,37.3-29.7,56-44.5c0-0.1,0-0.1,0-0.2c-0.1,0.1-0.3,0.2-0.4,0.3
		c0,0,0,0,0,0c-22.8,17.8-45.1,36.3-67.8,53.9c-39.3,30.4-76.8,61.3-115.5,91.7l0,0.1c0,0-0.1,0.1-0.1,0.1v0.1
		c8.9-7,17.6-13.9,26.5-21C136.8,322.3,142.8,317.6,148.9,312.8z"/>
	<path d="M568.9,47.5c15.9,12.6,31.7,25.1,47.5,37.6c0,0,0-0.1-0.1-0.1c6.8,5.4,13.6,10.8,20.4,16.2c-0.2-3.1-0.4-6.2-0.6-9.3
		c-18.7-14.8-37.5-29.8-56.3-44.8c-0.4,0-0.9-0.1-1.3-0.1c-3.2-0.2-6.8-0.3-10.6-0.5C568.2,46.9,568.6,47.2,568.9,47.5
		C569,47.5,569,47.5,568.9,47.5z"/>
	<path d="M556.7,47.1c19.8,15.7,39.5,31.3,58.4,46.3c3.2,2.5,6.3,5,9.5,7.5c0,0,0,0,0,0c4.2,3.4,8.5,6.7,12.7,10.1
		c0-1.1-0.1-2.2-0.1-3.4c0-0.7-0.1-1.3-0.1-2c-0.1-1.1-0.1-2.2-0.2-3.3c-23.4-18.6-47-37.3-70.4-55.7c-3.4-0.1-7-0.2-10.7-0.3
		c0.4,0.3,0.7,0.6,1.1,0.8C556.8,47.1,556.7,47.1,556.7,47.1z"/>
	<path d="M628.5,113.4C628.5,113.4,628.4,113.4,628.5,113.4c3,2.3,6.1,4.7,9.1,7.2c-0.1-2.5-0.2-5.1-0.3-7.8
		c-22.1-17.6-44.2-35.1-66.2-52.5c-5.5-4.4-11.1-8.8-16.6-13.2c0,0,0,0-0.1,0c-0.3-0.3-0.7-0.6-1-0.8c-2.8,0-5.6-0.1-8.4-0.1
		c-0.4,0-0.8,0-1.3,0c10.7,8.5,21.4,17,32.2,25.5C593.4,85.6,610.9,99.5,628.5,113.4z"/>
	<path d="M533.2,47.2c32.8,26,65.4,51.9,97.9,77.6c0,0,0-0.1,0-0.1c2.3,1.8,4.6,3.7,6.9,5.5c0-0.7-0.1-1.3-0.1-2c0-0.3,0-0.5,0-0.8
		c0-0.5-0.1-1-0.1-1.6v-0.1v-1.1c0-0.5,0-1.1-0.1-1.6c-32.2-25.6-64.6-51.2-96.7-76.7c-2.9,0-5.8,0.1-8.6,0.2
		C532.6,46.6,533,46.9,533.2,47.2C533.3,47.2,533.2,47.2,533.2,47.2z"/>
	<path d="M522.3,47.8c36.2,28.7,73.2,58.1,110.2,87.4c0,0,0,0,0-0.1c1,0.8,2.1,1.6,3.1,2.5c0.6-2.4,1.1-4.1,1.4-5.2
		c-1.7-1.4-3.5-2.7-5.2-4.1c0,0,0,0,0,0c-5.3-4.2-10.5-8.3-15.7-12.5c-4-3.2-7.9-6.3-11.8-9.5c-26-20.8-50.8-40.2-75.6-59.9
		c-2.6,0.1-5.2,0.2-7.6,0.3C521.5,47.1,521.9,47.4,522.3,47.8C522.3,47.8,522.3,47.8,522.3,47.8z"/>
	<path d="M549.7,79c17.7,14.2,35.4,28.2,53.1,42.3c2.8,2.2,5.6,4.4,8.4,6.7c6,4.8,12.1,9.5,18.1,14.3c0.6,0.5,1.2,0.9,1.7,1.4
		c0,0,0,0,0,0c0.9,0.7,1.8,1.4,2.8,2.2c0.3-1.8,0.7-3.4,1-4.9c-2.6-2-5.2-4.1-7.7-6.1c-19.5-15.5-39.3-31.2-59.5-47.2
		c-16-12.7-31.7-25.2-47.4-37.6l0,0c-1.2-0.9-2.4-1.9-3.6-2.8c-2.4,0.1-4.6,0.3-6.6,0.4c12.8,10.1,25.5,20.2,38.5,30.6
		C548.9,78.3,549.3,78.6,549.7,79z"/>
	<path d="M509.8,56.5C531,73.3,552,90,573,106.7c19.9,15.8,39.7,31.5,59.6,47.3c0.2-1.5,0.4-3,0.6-4.4c-0.9-0.7-1.7-1.4-2.6-2
		c0,0,0,0,0-0.1c-17.5-13.8-35-27.6-52.5-41.6c-24.2-19.3-48.5-38.8-73-58.3c-1.6,0.1-2.9,0.2-4.1,0.3l-1.6,0.2l-0.1,0
		C502.9,51,506.3,53.8,509.8,56.5L509.8,56.5z"/>
	<path d="M629.6,170.1C629.6,170.1,629.6,170.1,629.6,170.1c0.6,0.4,1.1,0.9,1.7,1.3c0-1.2,0.1-2.3,0.1-3.5
		c-4.3-3.5-8.6-6.9-12.9-10.3c-7.2-5.7-14.4-11.4-21.7-17.2c-32-25.4-64.8-51.4-97.5-77.3l0,0c-4.6-3.6-9.1-7.2-13.7-10.9l-3.2,1
		c7.3,5.8,14.5,11.5,21.8,17.3C546.3,104,588,137.2,629.6,170.1z"/>
	<path d="M490.4,69c46.8,37.1,93.1,73.8,139.5,110.6c0,0,0,0,0-0.1c0.5,0.4,0.9,0.7,1.4,1.1c0-1,0-1.9,0-2.9
		c-18-14.2-35.8-28.4-53.7-42.6c-16-12.7-32.1-25.5-48.3-38.3c-17.4-13.8-34.9-27.7-52.6-41.8l-2.7,0.8
		C479.4,60.3,484.9,64.6,490.4,69C490.4,69,490.4,69,490.4,69z"/>
	<path d="M484.6,73.8c2,1.6,4,3.2,5.9,4.7c33.2,26.7,66.7,52.9,99.9,79c1.9,1.5,3.7,2.9,5.6,4.4c0.5,0.4,1,0.8,1.5,1.2
		c11.4,9,22.9,18.1,34.2,27.2c0-0.7-0.1-1.4-0.1-2.1c-0.4-0.3-0.7-0.6-1.1-0.9c0,0,0,0,0,0c-0.9-0.7-1.8-1.4-2.7-2.1
		c-6.2-5-12.5-10-18.8-15.1c-15-12-30.1-23.8-45.3-35.8c-6.2-5-12.5-9.9-18.8-15c-19.7-15.9-39.2-31.2-58.6-46.5
		c-6.3-5-12.6-9.9-18.8-14.9l-2,0.6C471.9,63.6,478.4,68.8,484.6,73.8C484.6,73.7,484.6,73.7,484.6,73.8z"/>
	<path d="M475.1,85c31,24.5,62.7,49.3,92.8,73.5c21.9,17.6,44,35,66,52.4c0,0,0-0.1,0-0.1c0.1,0.1,0.3,0.2,0.4,0.3
		c-0.1-0.4-0.2-0.9-0.2-1.3c-58.9-46.7-117-92.7-175.7-139.4c-0.1,0.1-0.1,0.2-0.1,0.3c-0.1,0.2-0.1,0.5-0.2,0.7
		C463.7,75.9,469.4,80.4,475.1,85C475.1,84.9,475.1,85,475.1,85z"/>
	<path d="M636.5,222.4C636.5,222.4,636.5,222.4,636.5,222.4c0.1,0,0.1,0.1,0.2,0.1c-0.1-0.2-0.1-0.5-0.2-0.7
		c-0.1-0.1-0.1-0.1-0.2-0.2c0,0,0,0,0,0c-16.8-13.3-33.5-26.6-50.2-39.8c-34.2-27.1-68.4-54.3-102.6-81.4c-4-3.2-8-6.3-12-9.5
		c0,0,0,0,0,0c-4.9-3.9-9.9-7.8-14.8-11.7c0,0.1,0,0.2,0,0.3c0,0.1,0,0.2,0,0.3c31,24.6,61.9,49.1,92.8,73.5
		C578.5,176.4,607.6,199.4,636.5,222.4z"/>
	<path d="M452,351.6c-1.4-1.2-2.9-2.3-4.3-3.5v5.1c0,0,0.1,0,0.2,0l-0.2,8c0,0,0.3,0.3,0.4,0.3l0,0c0,0,0,0,0,0
		c0,0.1,0.1,0.1,0.2,0.2c0.1,0,0.1,0.1,0.2,0.1c0,0,13.5,6.9,33.2,13.3c-7.4-5.8-14.7-11.6-21.9-17.4
		C457.2,355.6,454.6,353.6,452,351.6z"/>
	<path d="M448.6,311.2c-0.3-0.2-0.6-0.5-0.9-0.7v7.6c24.4,19.4,48.8,38.8,73.1,58c0,0,0,0,0,0c4,3.2,8.1,6.4,12.1,9.6
		c3.4,0.2,6.7,0.4,10.1,0.4C511.7,361.2,480.2,336.2,448.6,311.2L448.6,311.2z"/>
	<path d="M448.6,301.9c-0.3-0.2-0.6-0.5-0.9-0.7l0,3.6l0,3.4c0.3,0.2,0.6,0.5,0.9,0.7l0,0c32.5,25.8,64.9,51.5,97.3,77.3
		c2.8,0,5.6-0.2,8.4-0.4C518.8,357.6,483.6,329.6,448.6,301.9L448.6,301.9z"/>
	<path d="M537.3,335.1c-2.8-2.2-5.6-4.5-8.5-6.7c-4.4-3.5-8.9-7.1-13.3-10.6c-0.6-0.5-1.2-1-1.9-1.5c-0.8-0.6-1.5-1.2-2.3-1.8
		c-6.3-5.1-12.7-10.1-19-15.2c-2.1-1.7-4.2-3.3-6.3-5c-12.8-10.2-25.6-20.3-38.4-30.5v4.4c0.3,0.2,0.6,0.5,0.9,0.7v0
		c35.1,28.1,70.3,56.1,104.7,83c12.2,9.5,23.8,18.9,35.5,28.3c1.4-0.3,2.8-0.7,4.2-1c-18.6-14.8-37.1-29.3-55.5-43.9
		C537.4,335.2,537.4,335.1,537.3,335.1z"/>
	<path d="M531.1,302c-27.2-21.5-54.3-42.8-81.3-64.2c-0.2,0.5-0.4,1.1-0.5,1.6c1.8,1.4,3.6,2.9,5.4,4.3c2.2,1.8,4.4,3.5,6.6,5.3
		c19,15.2,38.5,30.3,57.9,45.8c2,1.6,4.1,3.3,6.1,5c28.2,22.8,55.9,44.2,83.7,66.4c0,0,0,0,0,0c2.4,1.9,4.9,3.9,7.3,5.9
		c0.7-0.2,1.4-0.5,2.1-0.7c-13-10.3-26.8-21.1-38.7-30.7C563.5,327.6,547.3,314.8,531.1,302z"/>
	<path d="M468.7,243.3c-3.4-2.7-6.7-5.3-10.1-8c-2.1-1.7-4.3-3.4-6.4-5.1c0,0,0,0,0,0c0,0-0.1,0-0.1-0.1c-0.1,0.5-0.3,0.9-0.4,1.4
		c4.4,3.5,8.8,7,13.2,10.4c50.5,39.9,101.8,81,152.8,121.3c0,0,0.1,0,0.1,0c2.4,1.9,4.8,3.8,7.2,5.7c0.1,0,0.2-0.1,0.3-0.1
		c0.2-0.3,0.4-0.5,0.6-0.8c-43.8-34.6-84.6-67.1-128.3-101.8C487.9,258.5,478.3,250.9,468.7,243.3z"/>
	<path d="M492,252.3c-12.5-10-25.1-20-37.7-30c-0.1,0.3-0.2,0.7-0.3,1c0.1,0,0.1,0.1,0.2,0.1c0,0,0,0,0,0
		c56.3,44.6,112,88.8,168.5,133.7c1.2,1,2.4,1.9,3.6,2.9c0,0,0,0,0,0c1.1,0.9,2.2,1.8,3.4,2.7c0.2-0.3,0.4-0.5,0.5-0.8
		c-41.7-33.5-86.3-68-127.9-101.4C498.8,257.8,495.4,255.1,492,252.3z"/>
	<path d="M456.3,214.8c-0.1-0.1-0.2-0.2-0.3-0.2c0,0.2-0.1,0.3-0.1,0.5c59.4,47.1,118.5,94,178.1,141.4c0,0,0-0.1,0.1-0.1
		c0.1-0.2,0.2-0.3,0.3-0.5c-59.6-47.1-119-94.4-178.1-141.2C456.3,214.7,456.3,214.8,456.3,214.8z"/>
</g>
</svg>
