<?xml version="1.0" encoding="utf-8"?>
<!-- Generator: Adobe Illustrator 25.3.0, SVG Export Plug-In . SVG Version: 6.00 Build 0)  -->
<svg version="1.1" id="Layer_1" xmlns="http://www.w3.org/2000/svg" xmlns:xlink="http://www.w3.org/1999/xlink" x="0px" y="0px"
	 viewBox="0 0 750.2 400.1" style="enable-background:new 0 0 750.2 400.1;" xml:space="preserve">
<g>
	<path d="M131.3,161.3l5.7,0.8c4.6-25.2,9-48.2,12.1-63.6c-2.6-0.3-4.5-0.5-5.6-0.7C140.7,111.8,136.1,135.2,131.3,161.3z"/>
	<path d="M409.7,158.7l5.9,0.9c4.4-24.2,8.6-46.3,11.6-61.1c-2.8-0.3-4.7-0.5-5.8-0.7C418.6,111.3,414.3,133.7,409.7,158.7z"/>
	<path d="M329.7,97c-1,0.1-2.7,0.4-5.1,0.8c0.7,3.4,1.5,7.4,2.4,11.8c2.7,13.5,6.3,31.2,10.1,50.4l5.5-0.8
		C337.5,133.4,332.6,110.5,329.7,97z"/>
	<path d="M607.5,97c-1.1,0.2-3.1,0.5-5.9,0.9c0.7,3.4,1.5,7.3,2.4,11.7c2.7,13.6,6.3,31.2,10,50.4l6.4-0.9
		C615.3,133.4,610.5,110.5,607.5,97z"/>
</g>
</svg>
