<?xml version="1.0" encoding="utf-8"?>
<!-- Generator: Adobe Illustrator 25.3.0, SVG Export Plug-In . SVG Version: 6.00 Build 0)  -->
<svg version="1.1" id="Layer_1" xmlns="http://www.w3.org/2000/svg" xmlns:xlink="http://www.w3.org/1999/xlink" x="0px" y="0px"
	 viewBox="0 0 750.2 400.1" style="enable-background:new 0 0 750.2 400.1;" xml:space="preserve">
<style type="text/css">
	.st0{fill:none;stroke:#000000;stroke-width:0;stroke-linecap:round;stroke-linejoin:round;}
</style>
<g>
	<line class="st0" x1="643.3" y1="166.6" x2="643.3" y2="161.7"/>
	<path d="M674.3,72.5l-27-8.1l-9.4,39.7c0,0.7,0.1,1.5,0.1,2.2c0.1,1.6,0.2,3.2,0.2,4.8c0.1,1.6,0.1,3.2,0.2,4.7
		c0.1,3.1,0.2,6.1,0.3,8.9v1.2c0.5,14.9,3.5,20.6,5.3,22.7l11.8,2.2L674.3,72.5z"/>
	<path d="M111.3,125.1c-0.1,2.2-0.2,4.2-0.4,6l0.3-0.1l0.1,0.3c0.1,0.2,2.6,7.7,4.4,20.5h172.8c1.8-12.8,4.4-20.4,4.5-20.6l0.1-0.3
		l0.2,0.1c-0.2-1.8-0.3-3.9-0.4-6.1c-0.2-4.6-0.3-9.8-0.6-15.3l-0.3-4.1H112.1C111.8,112.5,111.5,119.3,111.3,125.1z"/>
	<path d="M104.3,246.9l0,38.8h195.4l0-13.8v-25.5c-0.9-2.4-1.8-4.7-2.6-7H107.1C106.2,241.9,105.3,244.4,104.3,246.9z"/>
	<polygon points="447.6,250.6 447.6,296.9 643.3,296.9 643.3,271.9 643.1,271.9 643.1,250.6 	"/>
	<path d="M452.5,126C452.5,126,452.5,126,452.5,126v-1.2c0.2-4.9,0.4-10.4,0.6-15.9c0-0.5,0.1-1.1,0.1-1.6l-9.6-42l-27,8.2
		l14.3,62.5l21.3-4.9C452.3,129.5,452.4,127.8,452.5,126z"/>
	<path d="M109.9,131.1c0.3-1.9,0.4-4,0.5-6.3c0,0,0,0,0,0c0.2-4.8,0.4-10.3,0.6-16.1l-6.8-29.6L101,65.4l-0.2-0.7L74,72.8l14.6,63.4
		L109.9,131.1z"/>
	<path d="M305.6,64.9l-2.7,11.7l-9.4,40.7c0.1,2.5,0.2,5,0.3,7.2c0.1,2.4,0.2,4.6,0.4,6.5l23.7,5.6l14.6-63.6L305.6,64.9z"/>
</g>
</svg>
