<?xml version="1.0" encoding="utf-8"?>
<!-- Generator: Adobe Illustrator 25.3.0, SVG Export Plug-In . SVG Version: 6.00 Build 0)  -->
<svg version="1.1" id="Layer_1" xmlns="http://www.w3.org/2000/svg" xmlns:xlink="http://www.w3.org/1999/xlink" x="0px" y="0px"
	 viewBox="0 0 750.2 400.1" style="enable-background:new 0 0 750.2 400.1;" xml:space="preserve">
<g>
	<path d="M350.5,200l-3.5,10.3l-0.5-0.8c0.3,1.6,0.6,3.1,0.9,4.7l3.9-10.2C351,202.6,350.8,201.3,350.5,200z"/>
	<path d="M359.2,249.5c0-0.1,0-0.1,0-0.2l-0.1,0.1L359.2,249.5z"/>
	<path d="M352.7,211.7c-0.1-0.7-0.3-1.5-0.4-2.2l-0.4-0.1l-0.8,2.1L352.7,211.7z"/>
	<path d="M355.7,228.5c0-0.1,0-0.2-0.1-0.4l-0.3,0.7L355.7,228.5z"/>
	<path d="M352.8,228.2l-2.6,2.5c0.1,0.5,0.2,1.1,0.3,1.6l0.9-0.5L352.8,228.2z"/>
	<path d="M358.4,244.8l-6.4-3.7c0.3,1.6,0.5,3.1,0.8,4.7l4.2,2.4l1.7-1.5C358.6,246.2,358.5,245.5,358.4,244.8z"/>
	<path d="M355.9,266c0.1,1,0.3,2,0.4,3l2.6-2.4L355.9,266z"/>
	<path d="M398.6,263.1l-3-22.4c-0.7,4.5-1.3,8.9-2,13.2l1.6,12.2l-3.1-1.8c-0.2,1.3-0.3,2.7-0.5,3.9l5.8,3.3
		C397.9,268.9,398.2,266,398.6,263.1z"/>
	<path d="M344.6,169.3c-0.2-0.9-0.4-1.8-0.5-2.8l-0.1,0.4l-7.8-11.9c0.5,2.5,1,5,1.5,7.6l4.9,7.4l0.8-2.1L344.6,169.3z"/>
	<path d="M331.1,103.6l-4.1-6.2c-0.7,0.1-1.5,0.3-2.5,0.4c0.1,0.5,0.2,1.1,0.3,1.7l7.8,11.9C332.2,108.6,331.6,106,331.1,103.6z"/>
	<path d="M124.1,238.3l-8.3,15.3c-0.1,0.5-0.2,1.1-0.2,1.6h3.5l3.4-6.2C123,245.5,123.6,242,124.1,238.3z"/>
	<path d="M141,116.3l-1.8,3.4c-0.7,3.8-1.5,7.8-2.3,12l8.3-15.4H141z"/>
	<path d="M141.4,108.5l5.2-2.5l0,0l-4.3-2.3C142,105.2,141.7,106.8,141.4,108.5z"/>
	<path d="M140.5,113c-0.2,1.1-0.4,2.2-0.6,3.3h1.2l2.6-4.8L140.5,113z"/>
	<path d="M148.2,103c0.3-1.6,0.6-3.1,0.9-4.5c-2.6-0.3-4.5-0.5-5.6-0.7c-0.2,1.2-0.5,2.4-0.7,3.7l4.9,2.6L148.2,103z"/>
	<path d="M121.6,255.2h-2.5l-4.7,8.8c-1.3,9.6-2.2,18-2.6,24.5l6-0.6C118.4,279.3,119.8,268,121.6,255.2z"/>
	<path d="M145.8,115.1l-0.6,1.2h0.4C145.7,115.9,145.8,115.5,145.8,115.1z"/>
	<path d="M127.1,184.4l8.8-16.2c0.3-1.9,0.7-3.8,1-5.7h-5.9C129.8,169.6,128.5,177,127.1,184.4z"/>
	<path d="M133.9,179.7l-8.7,16.1c-0.8,4.4-1.5,8.8-2.3,13.2h6C130.5,199.3,132.2,189.4,133.9,179.7z"/>
	<polygon points="616,162.6 616,162.6 616,162.6 	"/>
	<path d="M614.5,162.5h1.1v-4l-1.3,2.7C614.4,161.6,614.5,162.1,614.5,162.5z"/>
	<path d="M626,187.2l-4.7-9.6l-2.7,5.4c0.2,1.2,0.4,2.3,0.7,3.5l2-4l6.3,12.7C627,192.5,626.5,189.9,626,187.2z"/>
	<path d="M611.2,145.5l4.4-9v-1.2c-0.2-0.9-0.4-1.7-0.5-2.6l-4.6,9.3C610.7,143.2,611,144.4,611.2,145.5z"/>
	<path d="M605.6,117.5l6.3,0c-0.1-0.4-0.2-0.9-0.3-1.3h-6.3C605.4,116.7,605.5,117.1,605.6,117.5z"/>
	<path d="M633.4,269.5l6.8,1.2c-0.2-1.2-0.3-2.5-0.5-3.8l-6.8-1.3C633.1,267,633.3,268.3,633.4,269.5z"/>
	<path d="M419.2,139.7l-5-5.3c-0.3,1.5-0.6,2.9-0.8,4.4l2.7,2.8l-4.4,20.8l-2.9,0.8c-0.2,0.8-0.3,1.7-0.5,2.5l6.4-1.8
		C416.3,155.6,417.8,147.4,419.2,139.7z"/>
	<path d="M327.7,113l6.8,6.4c-0.4-1.9-0.8-3.7-1.1-5.4l-6.7-6.4c0.1,0.7,0.3,1.3,0.4,2C327.2,110.7,327.5,111.8,327.7,113z"/>
	<path d="M425.2,108.5l-4.9-5.2c-0.3,1.4-0.6,2.9-0.9,4.4l4.9,5.2C424.7,111.4,424.9,109.9,425.2,108.5z"/>
	<path d="M406.3,177.1c-0.1,0.8-0.3,1.7-0.4,2.5l6.4-1.8c0.1-0.8,0.3-1.7,0.4-2.5L406.3,177.1z"/>
	<path d="M332.8,138.6c0.3,1.5,0.6,3.1,0.9,4.7l1-2.6l5,4.8c-0.4-1.8-0.7-3.6-1.1-5.4l-4.7-4.5L332.8,138.6z"/>
	<path d="M402.7,207.9l-1.8,0.5c-0.1,0.8-0.3,1.6-0.4,2.3L402.7,207.9z"/>
	<path d="M360.1,255.3l-5.1,4.4c0.1,0.9,0.3,1.7,0.4,2.5l5.1-4.4C360.3,257,360.2,256.1,360.1,255.3z"/>
	<path d="M351.9,209.4l0.3-0.7c-0.3-1.6-0.6-3.2-0.9-4.8l-3.9,10.2c0.3,1.6,0.6,3.2,0.9,4.8l2.9-7.5L351.9,209.4z"/>
	<path d="M359.5,275l-2.2,1.9c0.1,0.9,0.2,1.8,0.3,2.6l2.2-1.9l3.2,0c-0.1-0.8-0.2-1.7-0.3-2.5L359.5,275z"/>
	<path d="M391,275.1c-0.1,0.9-0.2,1.7-0.3,2.5l6.2,0c0.1-0.8,0.2-1.7,0.3-2.5L391,275.1z"/>
	<path d="M403.1,195.3l6.4-1.9c0.1-0.8,0.3-1.7,0.4-2.5l-6.4,1.9C403.4,193.6,403.3,194.5,403.1,195.3z"/>
	<path d="M404.2,225.7l-6.8,8.9l3.9,9.6c0.3-2,0.6-4,0.9-6.1l-1.6-4l2.8-3.7C403.7,228.9,403.9,227.3,404.2,225.7z"/>
	<path d="M344.6,169.3l-1.3-1.2l-0.8,2.1l-2.3,6c0.3,1.6,0.6,3.1,0.9,4.7l2.9-7.7l1.6,1.5C345.3,172.8,345,171.1,344.6,169.3z"/>
	<path d="M355.3,228.8l0.3-0.7c-0.3-1.6-0.6-3.2-0.9-4.9l-1.9,5l-1.4,3.7l-0.9,0.5c0.1,0.8,0.3,1.5,0.4,2.2l2.7-1.4L355.3,228.8z"/>
	<path d="M359.1,249.3c-0.1-0.8-0.3-1.7-0.4-2.5l-1.7,1.5l-3.4,2.9c0.1,0.8,0.3,1.7,0.4,2.5l5-4.3L359.1,249.3z"/>
	<path d="M628.4,237.3c0.4,2.1,0.7,4.2,1.1,6.3l5.5-5.4L628.4,237.3z"/>
	<path d="M636.7,248.5l0.2-0.2c-0.4-2.5-0.8-5.1-1.3-7.8l-5.2,5.1l0.3,1.7L636.7,248.5z"/>
	<path d="M625.8,222.3c0.8,4.3,1.5,8.6,2.2,12.8l6.8,1c-0.2-1.3-0.4-2.6-0.7-3.9l-3.8-0.5L625.8,222.3z"/>
	<path d="M623.4,208.8c0.4,1.9,0.7,3.9,1.1,5.8l7.4,15l2,0.3c-1.2-6.9-2.5-13.9-3.8-21.1H623.4z"/>
	<path d="M619,151.7c-1.1-5.4-2.1-10.6-3.2-15.5l-0.2,0.4v22L619,151.7z"/>
	<path d="M615.5,167.4l0.1,0.1c0.1,0.7,0.3,1.4,0.4,2.1v-6.9l-1,2.1C615.1,165.6,615.3,166.5,615.5,167.4z"/>
	<path d="M619.7,155.2l-3.7,7.5h5.2C620.7,160.1,620.2,157.6,619.7,155.2z"/>
	<path d="M601.6,97.9c0.7,3.4,1.5,7.3,2.4,11.7c0.3,1.6,0.7,3.3,1,5l6.3,0c-1.5-6.9-2.7-12.8-3.8-17.6
		C606.4,97.2,604.4,97.5,601.6,97.9z"/>
	<path d="M630.7,251.1c0.2,1.4,0.4,2.8,0.7,4.2h6.6c-0.1-1-0.3-1.9-0.5-2.9L630.7,251.1z"/>
</g>
</svg>
