<?xml version="1.0" encoding="utf-8"?>
<!-- Generator: Adobe Illustrator 25.3.0, SVG Export Plug-In . SVG Version: 6.00 Build 0)  -->
<svg version="1.1" id="Layer_1" xmlns="http://www.w3.org/2000/svg" xmlns:xlink="http://www.w3.org/1999/xlink" x="0px" y="0px"
	 viewBox="0 0 750.2 400.1" style="enable-background:new 0 0 750.2 400.1;" xml:space="preserve">
<g>
	<path d="M607.5,97c-1.1,0.2-3.1,0.5-5.9,0.9c0.7,3.4,1.5,7.3,2.4,11.7c3.1,15.3,7.2,35.8,11.5,57.8l0.1,0.1
		c4,20.6,8.1,42.4,11.6,62.5h6.6C625.5,181.6,613.2,122.6,607.5,97z"/>
	<path d="M329.7,97.1c-1,0.1-2.7,0.4-5.1,0.8c0.7,3.4,1.5,7.4,2.4,11.8c6,29.5,15.9,78.7,23.1,120.3h5.8
		C347.6,181.6,335.3,122.7,329.7,97.1z"/>
	<path d="M149.1,98.5c-2.6-0.3-4.5-0.5-5.6-0.7c-5.3,26-16.4,84.3-24.1,132.2h5.9C132.7,183.6,143.2,127.4,149.1,98.5z"/>
	<path d="M427.2,98.5c-2.8-0.3-4.7-0.5-5.8-0.7c-5.3,26-16.4,84.4-24.1,132.2h6.3C410.9,183.6,421.4,127.4,427.2,98.5z"/>
</g>
</svg>
