<?xml version="1.0" encoding="utf-8"?>
<!-- Generator: Adobe Illustrator 25.3.0, SVG Export Plug-In . SVG Version: 6.00 Build 0)  -->
<svg version="1.1" id="Layer_1" xmlns="http://www.w3.org/2000/svg" xmlns:xlink="http://www.w3.org/1999/xlink" x="0px" y="0px"
	 viewBox="0 0 750.2 400.1" style="enable-background:new 0 0 750.2 400.1;" xml:space="preserve">
<path d="M131.2,162c-0.5,2.5-0.9,5.1-1.4,7.7l5.7,1.1c0.5-2.6,0.9-5.1,1.4-7.7L131.2,162z"/>
<path d="M125,232.4c0.4-2.5,0.8-5.1,1.2-7.7l-5.8-1.1c-0.4,2.6-0.8,5.2-1.2,7.7L125,232.4z"/>
<path d="M409,162.6c-0.5,2.5-0.9,5.1-1.4,7.7l5.9,1.1c0.5-2.6,0.9-5.1,1.4-7.7L409,162.6z"/>
<path d="M404.3,225.3l-6-1.1c-0.4,2.6-0.8,5.2-1.2,7.7l6,1.1C403.4,230.5,403.8,227.9,404.3,225.3z"/>
<path d="M337.6,162.9c0.5,2.5,1,5.1,1.5,7.7l5.5-1c-0.5-2.6-1-5.1-1.5-7.7L337.6,162.9z"/>
<path d="M356.1,230.9c-0.4-2.5-0.9-5.1-1.3-7.7l-5.6,1.1c0.5,2.6,0.9,5.2,1.3,7.7L356.1,230.9z"/>
<path d="M621,161.9l-6.4,1.2c0.3,1.4,0.6,2.9,0.8,4.3l0.1,0.1c0.2,1.1,0.4,2.2,0.6,3.3l6.3-1.2C622,167,621.5,164.4,621,161.9z"/>
<path d="M634,231c-0.4-2.5-0.9-5.1-1.3-7.7l-6.4,1.2c0.5,2.6,0.9,5.2,1.3,7.7L634,231z"/>
</svg>
