<?xml version="1.0" encoding="utf-8"?>
<!-- Generator: Adobe Illustrator 25.3.0, SVG Export Plug-In . SVG Version: 6.00 Build 0)  -->
<svg version="1.1" id="Layer_1" xmlns="http://www.w3.org/2000/svg" xmlns:xlink="http://www.w3.org/1999/xlink" x="0px" y="0px"
	 viewBox="0 0 750.2 400.1" style="enable-background:new 0 0 750.2 400.1;" xml:space="preserve">
<g>
	<path d="M117.5,180.7c-0.2,11.4-1.5,24.3-4.6,38.2h178.5c-3.1-13.9-4.4-26.8-4.6-38.2H117.5z"/>
	<path d="M284.9,58.9l-33.3-10c-0.5-0.1-0.9-0.1-0.9-0.1c0,1.9-0.3,5.7-0.9,9.1c-1.1,7.2-3.5,15.2-7.7,22.5h48.1
		c-0.5-4.3-1.1-8.3-1.8-11.7C287.4,64,286.3,61.1,284.9,58.9z"/>
	<path d="M154.2,48.9l-34.9,10.6c-1.5,2.2-2.4,4.7-3.4,9.4c-0.7,3.4-1.4,7.3-1.9,11.5h48.8c-4-6.9-6.4-14.6-7.6-21.4
		C154.5,55.4,154.2,48.9,154.2,48.9z"/>
	<path d="M104.3,246.8l0,37.3h195.4l0-12.2v-25.5c-0.1-0.2-0.1-0.3-0.2-0.5H104.7C104.6,246.2,104.5,246.5,104.3,246.8z"/>
	<path d="M200.4,373.3c42.9-0.6,99.5-11.7,99.5-11.7v-2.2v-22.7l-0.1-24.5H104.4l0,41c0.1,0,0.2,0,0.3,0v8.5
		C109.6,362.8,162.1,373.9,200.4,373.3z"/>
	<path d="M292.4,110.4H111.9c-0.2,5.3-0.4,10.3-0.6,14.7c-0.1,2.2-0.2,4.2-0.4,6l0.3-0.1l0.1,0.3c0.1,0.2,2.2,6.5,4,17.3H289
		c1.8-10.9,3.9-17.2,4-17.4l0.1-0.3l0.2,0.1c-0.1-1.2-0.2-2.5-0.3-3.9c0-0.1,0-0.3,0-0.4c0-0.6-0.1-1.1-0.1-1.7
		C292.7,120.5,292.6,115.6,292.4,110.4z"/>
	<path d="M453.1,108.9c0-0.5,0.1-1.1,0.1-1.6l-9.6-42l-27,8.2l14.3,62.5l21.3-4.9c0.1-1.6,0.2-3.3,0.3-5.1c0,0,0,0,0,0v-1.2
		C452.7,119.9,452.9,114.4,453.1,108.9z"/>
	<path d="M88.6,136.2l21.3-5.1c0.3-1.9,0.4-4,0.5-6.3c0,0,0,0,0,0c0.2-4.8,0.4-10.3,0.6-16.1l-10.2-44.1L74,72.8L88.6,136.2z"/>
	<path d="M332.5,73.1l-27-8.2l-12,52.4c0.1,2.5,0.2,5,0.3,7.2c0.1,2.4,0.2,4.6,0.4,6.5l23.7,5.6L332.5,73.1z"/>
	<path d="M647.3,64.3l-9.4,39.7c0,0.7,0.1,1.5,0.1,2.2c0.1,1.6,0.2,3.2,0.2,4.8c0.1,1.6,0.1,3.2,0.2,4.7c0.1,3.1,0.2,6.1,0.3,8.9
		v1.2c0.1,1.5,0.1,2.8,0.2,4.1c0,0.5,0.1,0.9,0.1,1.4l20.2,4.7l14.9-63.5L647.3,64.3z"/>
</g>
</svg>
