<?xml version="1.0" encoding="utf-8"?>
<!-- Generator: Adobe Illustrator 25.3.0, SVG Export Plug-In . SVG Version: 6.00 Build 0)  -->
<svg version="1.1" id="Layer_1" xmlns="http://www.w3.org/2000/svg" xmlns:xlink="http://www.w3.org/1999/xlink" x="0px" y="0px"
	 viewBox="0 0 750.2 400.1" style="enable-background:new 0 0 750.2 400.1;" xml:space="preserve">
<path d="M142.4,341.1c-12.4-13.2-23.1-61.3-28.7-124.3c-0.2,0.8-0.4,1.6-0.6,2.4c3.7,61.2,9.2,107.1,19.3,121.9
	c8,11.8,13.4,21.1,16.7,28.4c4.5,0.6,9.2,1.2,13.9,1.7C161.6,364.7,155.5,355,142.4,341.1z"/>
<path d="M292,221.8c-0.2-0.8-0.4-1.7-0.6-2.5c-5.7,61.8-16.2,108.7-28.5,121.8c-12.6,13.4-18.7,22.8-20.4,29.3
	c4.8-0.5,9.6-1.1,14.1-1.7c3.3-7.2,8.6-16.2,16.3-27.5C282.8,326.5,288.3,281.7,292,221.8z"/>
<path d="M483,375.5c4.7,1.5,9.7,3,14.9,4.3c-2.7-4-6-8.3-10-13.1c-13.4-16.4-24.8-79.4-30-160.3c-0.1,0.5-0.2,0.9-0.3,1.4
	c3.7,79.7,9.2,140.4,20.2,158.8C479.8,369.7,481.5,372.6,483,375.5z"/>
<path d="M633.7,210c-0.1-0.5-0.2-1-0.3-1.5c-5.2,79.8-16.5,141.8-29.8,158.1c-3.6,4.4-6.7,8.5-9.3,12.2c5.2-1.4,10.1-2.8,14.7-4.3
	c1.4-2.5,2.9-5.1,4.6-7.9C624.4,348.3,630,288.6,633.7,210z"/>
</svg>
