<?xml version="1.0" encoding="utf-8"?>
<!-- Generator: Adobe Illustrator 25.3.0, SVG Export Plug-In . SVG Version: 6.00 Build 0)  -->
<svg version="1.1" id="Layer_1" xmlns="http://www.w3.org/2000/svg" xmlns:xlink="http://www.w3.org/1999/xlink" x="0px" y="0px"
	 viewBox="0 0 750.2 400.1" style="enable-background:new 0 0 750.2 400.1;" xml:space="preserve">
<g>
	<path d="M287.4,198.4c-0.3-2.5-0.6-5-0.9-7.5c-56.2,4.8-112.4,4.7-168.5-0.1c-0.3,2.4-0.6,4.9-0.9,7.5
		C173.9,201.8,230.6,201.8,287.4,198.4z"/>
	<path d="M290,213.1c-0.5-2.5-1-5.1-1.4-7.5c-57.5,2.1-115.1,2.1-172.6-0.1c-0.4,2.5-0.9,5-1.5,7.6C173,213.7,231.5,213.7,290,213.1
		z"/>
	<path d="M285.6,168.3c0-2.7,0.1-5.2,0.2-7.7c-55.6,10.7-111.2,10.7-166.8-0.2c0.1,2.4,0.2,5,0.2,7.7
		C174.7,177.3,230.1,177.4,285.6,168.3z"/>
	<path d="M285.9,183c-0.2-2.6-0.3-5.1-0.3-7.5c-55.5,7.6-111,7.6-166.5-0.2c-0.1,2.4-0.2,4.9-0.4,7.5
		C174.4,189.2,230.2,189.2,285.9,183z"/>
	<path d="M288.8,136.3c0.2-1.2,0.5-2.2,0.7-3c-0.1-0.2-0.1-0.5-0.2-0.7c0-0.1-0.1-0.2-0.1-0.3c-0.4-1.2-0.7-2.5-1-3.8
		c-57.3,19.2-114.6,19-171.9-0.6l-0.1,0.3c-0.2,1.1-0.5,2.1-0.8,3.1c0.1,0.4,0.5,2.1,1,4.7C173.9,153.4,231.3,153.5,288.8,136.3z"/>
	<path d="M286.4,152.3c0.3-3,0.6-5.6,1-8C230.8,159,174.2,159,117.7,144c0.3,2.4,0.6,5.1,0.9,8.1C174.5,164.9,230.5,165,286.4,152.3
		z"/>
	<path d="M282.6,105.9c-0.8-2.3-1.6-4.7-2.6-7.1c-51.8,24.2-103.6,24-155.4-0.7c-1,2.4-1.8,4.8-2.6,7.2
		C175.5,129,229,129.2,282.6,105.9z"/>
	<path d="M286.4,120.4c-0.5-2.3-1.1-4.8-1.8-7.5c-54.9,22.1-109.8,21.9-164.7-0.6c-0.7,2.7-1.3,5.2-1.9,7.5
		C174.1,140.9,230.3,141.1,286.4,120.4z"/>
	<path d="M164.7,84.7c-7.9-2.8-15.8-6.4-23.7-10.9c-1.9,1.6-3.7,3.4-5.4,5.3c12.8,7.1,25.6,12.2,38.5,15.3
		C170.6,91.7,167.5,88.5,164.7,84.7z"/>
	<path d="M268.3,78.8c-1.4-1.6-2.8-3.1-4.4-4.4c-8,4.5-16,8.1-24,10.8c-2.8,3.8-5.9,7-9.5,9.6c12.9-2.9,25.8-7.9,38.7-14.9
		C268.8,79.5,268.6,79.2,268.3,78.8z"/>
	<path d="M277,92.1c-1.2-2.3-2.4-4.5-3.7-6.5c-47.3,24.8-94.6,24.6-142-0.7c-0.4,0.6-0.8,1.3-1.2,2c-0.9,1.4-1.7,2.9-2.5,4.5
		C177.4,116.6,227.2,116.8,277,92.1z"/>
	<path d="M257.2,69.4c-0.4-0.2-0.7-0.4-1.1-0.6c-1.7-0.9-3.4-1.7-5.1-2.4l-1.8-0.5c-0.1,0.1-0.2,0.1-0.3,0.2
		c-0.8,2.9-1.9,6.1-3.3,9.2C249.5,73.5,253.3,71.6,257.2,69.4z"/>
	<path d="M148.1,69c3.6,2.1,7.3,3.9,10.9,5.5c-0.5-1.2-1-2.5-1.4-3.7c-0.6-1.8-1.2-3.5-1.6-5.2l-1.8,0.5C152,67,150,68,148.1,69z"/>
	<path d="M630.7,190.8c-0.3-2.7-0.5-5.4-0.7-8c-56.4,5.2-112.8,5.3-169.1,0.3c-0.2,2.6-0.4,5.2-0.7,7.9
		C517.1,194.5,573.9,194.5,630.7,190.8z"/>
	<path d="M459.3,198.5c-0.4,2.6-0.8,5.3-1.3,8c58.3,0.7,116.7,0.7,175,0c-0.5-2.7-0.9-5.4-1.3-8
		C574.2,200.7,516.7,200.7,459.3,198.5z"/>
	<path d="M629.8,158.4c0.2-3,0.4-5.8,0.6-8.3c-56.6,12.1-113.2,12.3-169.8,0.6c0.2,2.5,0.4,5.3,0.6,8.2
		C517.4,168.7,573.6,168.5,629.8,158.4z"/>
	<path d="M629.6,166.2c-56.1,8.5-112.1,8.6-168.2,0.4c0,2.6,0,5.2-0.1,8c56.1,6.6,112.2,6.5,168.3-0.3
		C629.6,171.5,629.5,168.8,629.6,166.2z"/>
	<path d="M460.2,125.6c56.9,17.7,113.9,17.4,170.8-0.9c-0.5-2.4-1.1-5.1-1.7-8c-55.8,19.8-111.7,20.1-167.5,1
		c-0.6,2.6-1.1,5-1.5,7.2C460.3,125.1,460.2,125.4,460.2,125.6z"/>
	<path d="M458.3,133.1c-0.1,0.2-0.1,0.4-0.2,0.6c0.4,1.8,0.9,4.5,1.4,8.1c57.3,14,114.6,13.7,171.9-0.7c0.6-3.7,1.1-6.4,1.5-8.1
		c-0.1-0.2-0.1-0.5-0.2-0.7C574.6,149.2,516.5,149.5,458.3,133.1z"/>
	<path d="M621.4,93.9c-1.2-2.4-2.5-4.7-3.8-6.9c-48.1,22.8-96.3,23.1-144.4,1.1c-1.3,2.2-2.5,4.5-3.7,6.9
		C520,116.9,570.7,116.6,621.4,93.9z"/>
	<path d="M627,108.4c-0.8-2.5-1.6-5-2.6-7.6c-52.7,22.1-105.3,22.5-158,1.1c-1,2.6-1.8,5.1-2.5,7.5
		C518.3,129.9,572.7,129.6,627,108.4z"/>
	<path d="M495.2,65.9c-2.5,1.4-4.8,3-7,4.8c37.9,18.5,75.7,18.2,113.6-0.9c-1.8-1.4-3.7-2.7-5.7-3.8c-0.1,0-0.1-0.1-0.1-0.1
		l-1.2-0.8C561.6,81.3,528.4,81.6,495.2,65.9z"/>
	<path d="M613.1,80.7c-1.7-2.1-3.4-4.1-5.3-5.9c-41.7,21-83.5,21.3-125.2,1c-1.8,1.9-3.5,3.8-5.1,6
		C522.6,103.3,567.8,103,613.1,80.7z"/>
	<path d="M525.7,47.4c-1.1,0-2.2,0.1-3.3,0.1c-0.1,0.7-0.5,1.3-1.1,1.7l-4.2,2.7c19,6.9,38,6.6,56.9-1.1l-2.3-1.6
		c-0.5-0.4-0.9-0.9-1-1.6c-2.7-0.1-5.3-0.2-7.9-0.3C550.4,50.9,538,50.9,525.7,47.4z"/>
	<path d="M510.1,56.3l-7.2,4.6c28.2,12.6,56.3,12.3,84.5-1l-6.8-4.7C557.1,65.7,533.6,66,510.1,56.3z"/>
	<path d="M140.8,368.2c3.5,0.5,7.3,1.1,11,1.6c33.7-19.8,67.4-20,101.1-0.7c3.9-0.5,7.6-1,11.2-1.5
		C223,341.7,181.9,341.9,140.8,368.2z"/>
	<path d="M163,371.2c4.5,0.5,9,0.9,13.5,1.3c17.1-6.5,34.2-6.7,51.4-0.6c4.6-0.4,9.2-0.9,13.8-1.4
		C215.4,357.5,189.2,357.8,163,371.2z"/>
	<path d="M104.4,355.1l0,1.5l0,2.4v2.5c0,0,0,0,0,0c0,0-0.1,0,0,0h0c0,0,0.1,0,0.2,0c0,0,0,0,0,0v0c0,0,1.2,0.3,3.5,0.7
		c63.1-44.6,126.2-44.8,189.2-0.3c1.7-0.3,2.6-0.5,2.6-0.5v-2.2v-5.3V354C234.8,311.5,169.6,311.9,104.4,355.1z"/>
	<path d="M118.5,364.5c3.2,0.6,6.8,1.2,10.8,1.9c48.9-33,97.7-33.2,146.6-0.6c4.1-0.6,7.8-1.3,11-1.8
		C230.7,325.2,174.6,325.4,118.5,364.5z"/>
	<path d="M105.2,318.3l0,5.1l-0.1,3.8c64.9-31.4,129.9-31.6,194.8-0.5l0-8.9C235,290,170.1,290.1,105.2,318.3z"/>
	<path d="M104.9,336l-0.2,9.5c65.1-38.9,130.2-39.2,195.3-0.8v-8c0,0,0,0,0,0l0-1.3C234.9,300.9,169.9,301.1,104.9,336z"/>
	<path d="M299.6,292l0-8.2c-64.8-17-129.6-16.9-194.4,0.3l0,8.3C170,272.8,234.8,272.6,299.6,292z"/>
	<path d="M299.5,308.5l0-8.5c-64.8-21.9-129.6-21.7-194.4,0.4l0,8.5C170,284.1,234.8,283.9,299.5,308.5z"/>
	<path d="M299.6,260.2l0-7.9c-64.8-8.6-129.6-8.6-194.4,0.2l0,8C170,249.6,234.8,249.6,299.6,260.2z"/>
	<path d="M299.6,275.9l0-8.1c-64.8-12.6-129.6-12.5-194.4,0.3l0,8.1C170,261.2,234.8,261.1,299.6,275.9z"/>
	<path d="M293.7,228.2c-0.7-2.6-1.4-5.2-2.1-7.7c-59.6-0.8-119.3-0.8-178.9,0c-0.6,2.5-1.3,5.1-2.1,7.7
		C171.6,225.7,232.7,225.7,293.7,228.2z"/>
	<path d="M298.8,243.7c-1-2.7-2-5.4-2.8-8c-62.6-4.3-125.2-4.3-187.7,0.1c-0.9,2.7-1.8,5.4-2.9,8.1
		C169.9,237.3,234.4,237.3,298.8,243.7z"/>
	<path d="M477.8,373.7c2.8,1,5.8,1.9,8.9,2.9c38.3-26.7,76.6-26.6,114.8,0.1c3.2-0.9,6.2-1.9,9.1-2.8
		C566.4,341.8,522.1,341.8,477.8,373.7z"/>
	<path d="M495.5,379.1c3.1,0.8,6.4,1.6,9.7,2.4c25.9-15.3,51.8-15.3,77.8,0c3.3-0.7,6.6-1.5,9.8-2.3
		C560.3,357.9,527.9,357.9,495.5,379.1z"/>
	<path d="M513.6,383.2c4,0.7,8,1.3,12.1,1.8c12.2-3.4,24.4-3.4,36.5,0c4.1-0.5,8.2-1.1,12.2-1.8
		C554.2,374.9,533.9,374.9,513.6,383.2z"/>
	<path d="M447.8,355.4l-0.1,5.8c0,0,0.3,0.3,0.4,0.3l0,0c0,0,0,0,0,0c0,0.1,0.1,0.1,0.2,0.2c0.1,0,0.1,0.1,0.2,0.1
		c0,0,1,0.5,2.9,1.4c62.1-45.5,124.2-45.3,186.3,0.7c3.5-1.5,5.5-2.4,5.5-2.4v-3.3h0l0-0.7C578.1,311.3,513,310.7,447.8,355.4z"/>
	<path d="M459.7,366.8c2.6,1.1,5.5,2.3,8.7,3.5c50.6-37.2,101.2-37,151.8,0.4c3.3-1.2,6.3-2.3,8.9-3.4
		C572.7,325.3,516.2,325.1,459.7,366.8z"/>
	<path d="M448.6,316.9l0,6.8l-0.1,2.5c64.9-32.5,129.8-31.9,194.7,1.8l0-9.5C578.4,288.3,513.5,287.8,448.6,316.9z"/>
	<path d="M448.3,335.4l-0.2,9.9c65-40.2,130.1-39.6,195.1,1.9l0-10C578.3,300,513.3,299.3,448.3,335.4z"/>
	<path d="M448.6,281.1l0,8.7c64.8-20.4,129.7-20,194.5,1.1l0-8.8C578.2,263.6,513.4,263.3,448.6,281.1z"/>
	<path d="M448.6,298.3l0,8.9c64.8-25.8,129.6-25.3,194.5,1.4l0-9.1C578.2,275.7,513.4,275.3,448.6,298.3z"/>
	<path d="M448.5,247.8l0,8.4c64.8-11.1,129.7-10.9,194.5,0.6l0-8.5C578.3,238.9,513.4,238.8,448.5,247.8z"/>
	<path d="M448.6,264.2l0,8.5c64.8-15.5,129.7-15.2,194.5,0.8l0-8.6C578.2,251.2,513.4,251,448.6,264.2z"/>
	<path d="M456.4,214.3c-0.6,2.7-1.2,5.4-1.9,8.1c60.7-2.6,121.4-2.6,182.1,0.1c-0.7-2.8-1.4-5.5-2-8.2
		C575.2,213.4,515.8,213.4,456.4,214.3z"/>
	<path d="M452.2,230.3c-0.8,2.8-1.8,5.6-2.8,8.5c64.1-6.7,128.1-6.6,192.2,0.3c-1-2.9-1.9-5.7-2.8-8.6
		C576.6,225.9,514.4,225.8,452.2,230.3z"/>
</g>
</svg>
