<?xml version="1.0" encoding="utf-8"?>
<!-- Generator: Adobe Illustrator 25.3.0, SVG Export Plug-In . SVG Version: 6.00 Build 0)  -->
<svg version="1.1" id="Layer_1" xmlns="http://www.w3.org/2000/svg" xmlns:xlink="http://www.w3.org/1999/xlink" x="0px" y="0px"
	 viewBox="0 0 750.2 400.1" style="enable-background:new 0 0 750.2 400.1;" xml:space="preserve">
<g>
	<path d="M330,98.3c-0.1-0.4-0.2-0.8-0.3-1.3c-0.4,0-0.9,0.1-1.5,0.2l-2.9,3.8c0.2,0.9,0.4,1.7,0.5,2.7L330,98.3z"/>
	<path d="M335,121.9c-0.2-0.9-0.4-1.8-0.6-2.6l-4.4,5.6c0.2,0.9,0.4,1.8,0.5,2.7L335,121.9z"/>
	<path d="M146.8,110.2l-4.6-5.9c-0.2,0.9-0.3,1.8-0.5,2.7l4.6,5.9C146.4,111.9,146.6,111.1,146.8,110.2z"/>
	<path d="M142.2,134.1l-4.7-6c-0.2,0.9-0.3,1.8-0.5,2.7l4.7,6C141.9,135.9,142,135,142.2,134.1z"/>
	<path d="M339.9,145.7c-0.2-0.9-0.4-1.8-0.5-2.7l-4.5,5.7c0.2,0.9,0.4,1.8,0.5,2.7L339.9,145.7z"/>
	<path d="M137.7,158.3l-4.7-6.1c-0.2,0.9-0.3,1.8-0.5,2.7l4.7,6.1C137.4,160.1,137.6,159.2,137.7,158.3z"/>
	<path d="M344.7,169.7c-0.2-0.9-0.4-1.8-0.5-2.7l-4.6,5.9c0.2,0.9,0.3,1.8,0.5,2.7L344.7,169.7z"/>
	<path d="M133.5,181.8l-4.8-6.1c-0.2,0.9-0.3,1.8-0.5,2.7l4.8,6.2C133.2,183.6,133.3,182.7,133.5,181.8z"/>
	<path d="M349.2,193c-0.2-0.9-0.3-1.8-0.5-2.7l-4.6,6c0.2,0.9,0.3,1.8,0.5,2.7L349.2,193z"/>
	<path d="M129.3,206.2l-4.9-6.2c-0.2,0.9-0.3,1.8-0.5,2.7l4.9,6.3C129,208.1,129.1,207.2,129.3,206.2z"/>
	<path d="M353.7,217.3c-0.2-0.9-0.3-1.8-0.5-2.7l-4.7,6c0.2,0.9,0.3,1.8,0.5,2.7L353.7,217.3z"/>
	<path d="M125.3,230.9l-5-6.4c-0.2,0.9-0.3,1.9-0.4,2.8l5,6.4C125,232.8,125.1,231.9,125.3,230.9z"/>
	<path d="M357.9,242c-0.2-0.9-0.3-1.8-0.5-2.8l-4.8,6.1c0.2,0.9,0.3,1.9,0.4,2.8L357.9,242z"/>
	<path d="M361.8,267.2c-0.1-0.9-0.3-1.9-0.4-2.8l-4.9,6.2c0.1,1,0.3,1.9,0.4,2.9L361.8,267.2z"/>
	<path d="M121.5,256l-5.1-6.5c-0.1,0.9-0.3,1.9-0.4,2.8l5.1,6.5C121.2,257.9,121.4,256.9,121.5,256z"/>
	<path d="M113,275.9c-0.1,1-0.2,2-0.3,2.9l5.3,6.8c0.1-1,0.2-2,0.3-3L113,275.9z"/>
	<path d="M149.1,98.5c-0.9-0.1-1.7-0.2-2.4-0.3l2,2.5C148.8,100,149,99.2,149.1,98.5z"/>
	<path d="M332.4,109.8c-0.2-0.9-0.4-1.8-0.6-2.6l-4.3,5.5c0.2,0.9,0.4,1.8,0.5,2.7L332.4,109.8z"/>
	<path d="M144.5,121.9l-4.6-5.9c-0.2,0.9-0.3,1.8-0.5,2.7l4.6,5.9C144.2,123.7,144.3,122.8,144.5,121.9z"/>
	<path d="M337.4,133.5c-0.2-0.9-0.4-1.8-0.5-2.6l-4.4,5.7c0.2,0.9,0.4,1.8,0.5,2.7L337.4,133.5z"/>
	<path d="M140,146l-4.7-6c-0.2,0.9-0.3,1.8-0.5,2.7l4.7,6C139.6,147.8,139.8,146.9,140,146z"/>
	<path d="M342.3,157.4c-0.2-0.9-0.4-1.8-0.5-2.7l-4.5,5.8c0.2,0.9,0.3,1.8,0.5,2.7L342.3,157.4z"/>
	<path d="M135.3,171.8l-4.8-6.1c-0.2,0.9-0.3,1.8-0.5,2.7l4.8,6.1C134.9,173.6,135.1,172.7,135.3,171.8z"/>
	<path d="M347.3,183c-0.2-0.9-0.3-1.8-0.5-2.7l-4.6,5.9c0.2,0.9,0.3,1.8,0.5,2.7L347.3,183z"/>
	<path d="M131.6,193l-4.8-6.2c-0.2,0.9-0.3,1.8-0.5,2.7l4.8,6.2C131.2,194.8,131.4,193.9,131.6,193z"/>
	<path d="M351.3,204c-0.2-0.9-0.3-1.8-0.5-2.7l-4.7,6c0.2,0.9,0.3,1.8,0.5,2.7L351.3,204z"/>
	<path d="M127.4,217.5l-4.9-6.3c-0.2,0.9-0.3,1.8-0.5,2.8l4.9,6.3C127.1,219.4,127.3,218.4,127.4,217.5z"/>
	<path d="M355.7,228.5c-0.2-0.9-0.3-1.8-0.5-2.7l-4.7,6.1c0.2,0.9,0.3,1.8,0.5,2.7L355.7,228.5z"/>
	<path d="M123.5,242.4l-5-6.4c-0.1,0.9-0.3,1.9-0.4,2.8l5,6.4C123.2,244.2,123.4,243.3,123.5,242.4z"/>
	<path d="M359.8,253.3c-0.1-0.9-0.3-1.9-0.4-2.8l-4.8,6.2c0.1,0.9,0.3,1.9,0.4,2.8L359.8,253.3z"/>
	<path d="M119.9,267.6l-5.1-6.6c-0.1,1-0.3,1.9-0.4,2.9l5.2,6.6C119.7,269.6,119.8,268.6,119.9,267.6z"/>
	<path d="M363.2,279c-0.1-0.9-0.2-1.9-0.3-2.9l-5,6.4c0.1,1,0.2,2,0.3,3L363.2,279z"/>
	<path d="M111.8,288.1c0,0.6-0.1,1.2-0.1,1.8c0.6,0.2,1.3,0.3,1.9,0.5L111.8,288.1z"/>
	<path d="M426.7,100.8c0.2-0.8,0.3-1.6,0.5-2.3c-0.9-0.1-1.8-0.2-2.5-0.3L426.7,100.8z"/>
	<path d="M604.9,114.2c0.2,0.9,0.4,1.8,0.5,2.7l5-6.4c-0.2-0.9-0.4-1.8-0.6-2.6L604.9,114.2z"/>
	<path d="M417.3,118.6l4.8,6.1c0.2-0.9,0.3-1.8,0.5-2.7l-4.8-6.1C417.6,116.8,417.5,117.7,417.3,118.6z"/>
	<path d="M609.7,138.2c0.2,0.9,0.4,1.8,0.5,2.7l5.1-6.6c-0.2-0.9-0.4-1.8-0.5-2.6L609.7,138.2z"/>
	<path d="M412.7,142.6l4.9,6.2c0.2-0.9,0.3-1.8,0.5-2.7l-4.9-6.2C413,140.8,412.9,141.7,412.7,142.6z"/>
	<path d="M408.2,166.7l4.9,6.3c0.2-0.9,0.3-1.8,0.5-2.7l-4.9-6.3C408.6,164.9,408.4,165.8,408.2,166.7z"/>
	<path d="M614.5,162.2c0.2,0.9,0.3,1.8,0.5,2.7l5.3-6.8c-0.2-0.9-0.4-1.8-0.5-2.7L614.5,162.2z"/>
	<path d="M619,185.4c0.2,0.9,0.3,1.8,0.5,2.7l5.3-6.8c-0.2-0.9-0.3-1.8-0.5-2.7L619,185.4z"/>
	<path d="M404,190.2l5,6.4c0.2-0.9,0.3-1.8,0.5-2.7l-5-6.4C404.3,188.4,404.2,189.3,404,190.2z"/>
	<path d="M399.8,214.7l5.1,6.5c0.1-0.9,0.3-1.8,0.5-2.8l-5.1-6.5C400.1,212.9,400,213.8,399.8,214.7z"/>
	<path d="M623.6,209.7c0.2,0.9,0.3,1.8,0.5,2.7l5.4-6.9c-0.2-0.9-0.3-1.8-0.5-2.7L623.6,209.7z"/>
	<path d="M395.8,239.5l5.2,6.7c0.1-0.9,0.3-1.9,0.4-2.8l-5.2-6.6C396.1,237.6,396,238.5,395.8,239.5z"/>
	<path d="M627.9,234.2c0.2,0.9,0.3,1.8,0.5,2.7l5.5-7c-0.2-0.9-0.3-1.8-0.5-2.7L627.9,234.2z"/>
	<path d="M631.9,259.2c0.1,0.9,0.3,1.9,0.4,2.8l5.6-7.1c-0.1-0.9-0.3-1.9-0.4-2.8L631.9,259.2z"/>
	<path d="M392.2,264.7l5.3,6.8c0.1-0.9,0.2-1.9,0.4-2.9l-5.3-6.8C392.5,262.8,392.3,263.7,392.2,264.7z"/>
	<path d="M635.4,285.9c0.1,1,0.2,2,0.3,3l5.9-7.5c-0.1-1-0.2-1.9-0.3-2.9L635.4,285.9z"/>
	<path d="M389.7,288.9c0,0.3,0,0.7-0.1,1c0.3,0.1,0.7,0.2,1,0.3L389.7,288.9z"/>
	<path d="M607.8,98.4c-0.1-0.5-0.2-1-0.3-1.4c-0.4,0.1-0.8,0.1-1.3,0.2l-3.7,4.8c0.2,0.9,0.4,1.7,0.5,2.6L607.8,98.4z"/>
	<path d="M419.7,106.5l4.8,6.1c0.2-0.9,0.4-1.8,0.5-2.7l-4.7-6.1C420,104.7,419.8,105.6,419.7,106.5z"/>
	<path d="M415,130.4l4.8,6.2c0.2-0.9,0.3-1.8,0.5-2.7l-4.8-6.2C415.4,128.6,415.2,129.5,415,130.4z"/>
	<path d="M607.8,128.5l5.1-6.5c-0.2-0.9-0.4-1.8-0.6-2.6l-5,6.5C607.5,126.8,607.6,127.7,607.8,128.5z"/>
	<path d="M410.5,154.4l4.9,6.3c0.2-0.9,0.3-1.8,0.5-2.7l-4.9-6.3C410.8,152.6,410.7,153.5,410.5,154.4z"/>
	<path d="M612.6,152.5l5.2-6.7c-0.2-0.9-0.4-1.8-0.5-2.7l-5.2,6.7C612.2,150.8,612.4,151.6,612.6,152.5z"/>
	<path d="M405.8,180.3l5,6.4c0.2-0.9,0.3-1.8,0.5-2.7l-5-6.4C406.1,178.4,405.9,179.4,405.8,180.3z"/>
	<path d="M617.7,178.1l5.3-6.7c-0.2-0.9-0.4-1.8-0.5-2.7l-5.2,6.7C617.3,176.3,617.5,177.2,617.7,178.1z"/>
	<path d="M402.1,201.4l5,6.5c0.2-0.9,0.3-1.8,0.5-2.8l-5-6.5C402.4,199.6,402.2,200.5,402.1,201.4z"/>
	<path d="M621.6,199.1l5.3-6.8c-0.2-0.9-0.3-1.8-0.5-2.7l-5.3,6.8C621.3,197.3,621.5,198.2,621.6,199.1z"/>
	<path d="M398,226l5.1,6.6c0.1-0.9,0.3-1.9,0.4-2.8l-5.1-6.6C398.3,224.2,398.1,225.1,398,226z"/>
	<path d="M626.1,223.5l5.4-6.9c-0.2-0.9-0.3-1.8-0.5-2.7l-5.4,6.9C625.7,221.7,625.9,222.6,626.1,223.5z"/>
	<path d="M394.1,250.9l5.2,6.7c0.1-0.9,0.3-1.9,0.4-2.8l-5.2-6.7C394.4,249.1,394.3,250,394.1,250.9z"/>
	<path d="M630.2,248.3l5.5-7.1c-0.2-0.9-0.3-1.8-0.5-2.8l-5.5,7C629.9,246.4,630.1,247.4,630.2,248.3z"/>
	<path d="M390.8,276.5l5.4,7c0.1-1,0.2-2,0.3-3l-5.4-6.9C391,274.6,390.9,275.6,390.8,276.5z"/>
	<path d="M639.2,263.5l-5.6,7.2c0.1,1,0.3,1.9,0.4,2.9l5.7-7.2C639.5,265.4,639.4,264.5,639.2,263.5z"/>
</g>
</svg>
