<?xml version="1.0" encoding="utf-8"?>
<!-- Generator: Adobe Illustrator 25.3.0, SVG Export Plug-In . SVG Version: 6.00 Build 0)  -->
<svg version="1.1" id="Layer_1" xmlns="http://www.w3.org/2000/svg" xmlns:xlink="http://www.w3.org/1999/xlink" x="0px" y="0px"
	 viewBox="0 0 750.2 400.1" style="enable-background:new 0 0 750.2 400.1;" xml:space="preserve">
<g>
	<path d="M391.2,273.3c-0.7,6.4-1.3,12-1.6,16.6c2,0.5,4,1,6,1.4c0.3-4.6,0.8-10.3,1.6-16.8L391.2,273.3z"/>
	<path d="M635.8,291.3c2.1-0.5,4.2-1,6.4-1.5c-0.3-4.6-0.9-10.2-1.7-16.5l-6.4,1.4C634.9,281,635.5,286.7,635.8,291.3z"/>
	<path d="M119,275.1l-5.8-1.2c-0.7,6.2-1.2,11.6-1.5,16.1c2,0.5,3.9,1,5.8,1.4C117.8,286.8,118.3,281.3,119,275.1z"/>
	<path d="M358.7,291c1.8-0.4,3.7-0.9,5.5-1.3c-0.3-4.7-0.9-10.4-1.7-17l-5.6,1.2C357.8,280.5,358.4,286.3,358.7,291z"/>
</g>
</svg>
