<?xml version="1.0" encoding="utf-8"?>
<!-- Generator: Adobe Illustrator 25.3.0, SVG Export Plug-In . SVG Version: 6.00 Build 0)  -->
<svg version="1.1" id="Layer_1" xmlns="http://www.w3.org/2000/svg" xmlns:xlink="http://www.w3.org/1999/xlink" x="0px" y="0px"
	 viewBox="0 0 750.2 400.1" style="enable-background:new 0 0 750.2 400.1;" xml:space="preserve">
<style type="text/css">
	.st0{fill:none;}
	.st1{fill:none;stroke:#000000;stroke-width:0;stroke-linecap:round;stroke-linejoin:round;}
</style>
<g>
	<path class="st0" d="M174.3,150.8c4.3,0.5,8.5,1.2,12.3,2.1C182.7,151.8,178.6,151.2,174.3,150.8z"/>
	<path d="M630.4,59.2c3.2,4.8,5.1,15.5,6.3,27.8c0.6,6.2,1,12.7,1.4,19.2c0.1,1.6,0.2,3.2,0.2,4.8c0.1,1.6,0.1,3.2,0.2,4.7
		c0.1,3.1,0.2,6.1,0.3,8.9v1.2c0.5,14.9,3.5,20.6,5.3,22.7l49.8,9.2l16.6-74.3L630.4,59.2z"/>
	<line class="st1" x1="643.3" y1="166.6" x2="643.3" y2="161.7"/>
	<path d="M203.2,119.1c15.9-18.8,59.9-13.3,88.9-14.6c-0.6-12.8-1.7-26.2-3.7-35.8c-1-4.7-2.1-7.6-3.5-9.8l-4-1.2
		c-8.2,4.4-23.9,13.2-30.4,19.3c3.2-8.5,9.1-17.1,14.8-24l-13.6-4.1c-0.5-0.1-0.9-0.1-0.9-0.1c0,1.9-0.3,5.7-0.9,9.1
		c-2.9,19-14.7,44.4-46.3,44.6h-1.9c-31,0-43.1-24.7-46.4-43.5c-0.7-3.6-1-10.1-1-10.1L143,52.3c5.9,7.1,12.1,15.9,15.4,24.7
		c-6.8-6.4-23.6-15.7-31.4-19.9l-7.7,2.3c-1.5,2.2-2.4,4.7-3.4,9.4c-1.1,5-1.9,11.1-2.5,17.6c-0.5,5.8-0.9,11.9-1.2,17.9
		C141.3,106.1,187.2,100.1,203.2,119.1z"/>
	<path d="M186.6,152.8c-3.8-0.9-8-1.6-12.3-2.1c-19.3-2.1-42.4-0.3-58.5,1.6c0.4,2.9,0.8,6,1,9.4c21.8-5.5,55.4-13.2,75.9-7.1
		c0.8,0.2,1.6,0.5,2.3,0.8C192.5,154.4,189.7,153.6,186.6,152.8z"/>
	<path d="M203.1,160c0.1,0,0.1,0.1,0.2,0.1C203.2,160.1,203.1,160,203.1,160C203.1,160,203.1,160,203.1,160z"/>
	<path d="M203.1,160c-2.3-1.9-4.9-3.4-8-4.5C198.1,156.7,200.8,158.2,203.1,160C203.1,160,203.1,160,203.1,160z"/>
	<path d="M211,155.5c0.7-0.3,1.4-0.5,2.1-0.7c19.9-6.1,52.4,1,74.3,6.6c0.3-3.3,0.6-6.4,1-9.2C265.7,149.6,230.8,147.4,211,155.5z"
		/>
	<path d="M203.1,160c2.2-1.8,4.9-3.3,8-4.5C208,156.6,205.3,158.1,203.1,160C203.1,160,203.1,160,203.1,160
		C203.1,160,203.1,160,203.1,160c-0.1,0-0.1,0.1-0.2,0.1C203,160.1,203,160,203.1,160C203.1,160,203.1,160,203.1,160
		C203.1,160,203.1,160,203.1,160z"/>
	<path d="M452.5,124.8c0.2-4.9,0.4-10.4,0.6-15.9c0.1-2.4,0.2-4.8,0.4-7.2c0-0.8,0.1-1.6,0.1-2.4c0.2-3.2,0.4-6.4,0.7-9.5
		c0.1-1.5,0.3-3.1,0.4-4.6c0.2-1.5,0.3-3,0.5-4.4c0.1-0.7,0.2-1.4,0.3-2.1c1.2-8.3,2.9-15.2,5.3-18.8l-62.3,19l-14.5,4.4l13.4,60.2
		l54.7-12.5c0.1-1.6,0.2-3.3,0.3-5.1c0,0,0,0,0,0V124.8z"/>
	<path d="M109.9,131.1c0.3-1.9,0.4-4,0.5-6.3c0,0,0,0,0,0c0.2-6.2,0.5-13.5,0.8-21.1c0.6-12.6,1.7-25.8,3.8-35.3
		c0.9-4.2,1.3-6.4,2.7-8.9L39.4,83.3L53,144.6L109.9,131.1z"/>
	<path d="M366,83.3L286.1,59c0.1,0.2,0.2,0.3,0.2,0.5c1.2,2.3,2,4.8,2.9,8.7c3.2,15.2,4,39.9,4.6,56.4c0.1,2.4,0.2,4.6,0.4,6.5
		l58,13.8l0.2,0L366,83.3z"/>
</g>
</svg>
