<?xml version="1.0" encoding="utf-8"?>
<!-- Generator: Adobe Illustrator 25.3.0, SVG Export Plug-In . SVG Version: 6.00 Build 0)  -->
<svg version="1.1" id="Layer_1" xmlns="http://www.w3.org/2000/svg" xmlns:xlink="http://www.w3.org/1999/xlink" x="0px" y="0px"
	 viewBox="0 0 750.2 400.1" style="enable-background:new 0 0 750.2 400.1;" xml:space="preserve">
<path d="M402.7,197.9c-1.5,8.5-2.9,17.1-4.3,25.3l6,1c1.3-8.3,2.7-16.8,4.2-25.3L402.7,197.9z"/>
<path d="M408,168.2c-0.4,2.4-0.9,4.9-1.3,7.3l5.9,1c0.4-2.5,0.9-4.9,1.3-7.3L408,168.2z"/>
<path d="M354.7,222.9c-1.5-8.3-3-16.7-4.6-25.3l-5.6,0.9c1.6,8.5,3.1,17,4.6,25.3L354.7,222.9z"/>
<path d="M345.8,175.3c-0.5-2.5-1-4.9-1.4-7.3l-5.5,0.9c0.5,2.4,0.9,4.9,1.4,7.3L345.8,175.3z"/>
<path d="M632.6,223.1c-1.5-8.3-3-16.7-4.6-25.3l-6.4,1c1.6,8.5,3.1,17,4.6,25.3L632.6,223.1z"/>
<path d="M623.7,175.5c-0.5-2.5-1-4.9-1.4-7.3l-6.4,1c0.5,2.4,0.9,4.9,1.4,7.3L623.7,175.5z"/>
<path d="M124.7,198.6c-1.5,8.5-2.9,17.1-4.3,25.3l5.8,0.9c1.3-8.3,2.7-16.8,4.2-25.3L124.7,198.6z"/>
<path d="M129.9,168.8c-0.4,2.4-0.9,4.9-1.3,7.3l5.7,0.9c0.4-2.5,0.9-4.9,1.3-7.3L129.9,168.8z"/>
</svg>
