<?xml version="1.0" encoding="utf-8"?>
<!-- Generator: Adobe Illustrator 25.3.0, SVG Export Plug-In . SVG Version: 6.00 Build 0)  -->
<svg version="1.1" id="Layer_1" xmlns="http://www.w3.org/2000/svg" xmlns:xlink="http://www.w3.org/1999/xlink" x="0px" y="0px"
	 viewBox="0 0 750.2 400.1" style="enable-background:new 0 0 750.2 400.1;" xml:space="preserve">
<path d="M119.1,161.1c0,1.3,0.1,2.6,0.1,3.9h166.5c0-1.3,0.1-2.6,0.2-3.9H119.1z"/>
<path d="M118.9,178.8c-0.1,1.3-0.1,2.6-0.2,3.9h167.2c-0.1-1.3-0.1-2.6-0.2-3.9H118.9z"/>
<path d="M117.4,196.2c-0.2,1.3-0.4,2.6-0.6,3.9h170.9c-0.2-1.3-0.4-2.6-0.5-3.9H117.4z"/>
<path d="M114.3,213.9c-0.3,1.3-0.6,2.6-0.9,3.9H291c-0.3-1.3-0.6-2.6-0.9-3.9H114.3z"/>
<path d="M109.7,231.3c-0.4,1.3-0.8,2.6-1.2,3.9h187.4c-0.4-1.3-0.8-2.6-1.2-3.9H109.7z"/>
<rect x="105.1" y="249.1" width="194.5" height="3.9"/>
<rect x="105.2" y="266.5" width="194.4" height="3.9"/>
<rect x="105.2" y="284.2" width="194.4" height="3.9"/>
<rect x="105.2" y="301.6" width="194.4" height="3.9"/>
<polygon points="105.2,319.4 105.2,323.3 299.9,323.3 299.9,319.4 "/>
<polygon points="104.9,337.2 104.8,341.1 300,341.1 300,337.2 "/>
<polygon points="300,355.3 104.4,355.3 104.4,356.6 104.4,359 104.4,359.2 300,359.2 "/>
</svg>
