<?xml version="1.0" encoding="utf-8"?>
<!-- Generator: Adobe Illustrator 25.3.0, SVG Export Plug-In . SVG Version: 6.00 Build 0)  -->
<svg version="1.1" id="Layer_1" xmlns="http://www.w3.org/2000/svg" xmlns:xlink="http://www.w3.org/1999/xlink" x="0px" y="0px"
	 viewBox="0 0 750.2 400.1" style="enable-background:new 0 0 750.2 400.1;" xml:space="preserve">
<g>
	<path d="M410,157.3l5.9,0.9c0.3-1.6,0.6-3.1,0.9-4.7l-2-0.3l-1-16.4C412.5,143.4,411.3,150.2,410,157.3z"/>
	<path d="M619.5,188l6.8,1c-0.5-2.4-0.9-4.8-1.4-7.2l-6.8-0.9C618.6,183.3,619.1,185.6,619.5,188z"/>
	<path d="M616.5,172.2l6.7,0.9c0-0.1,0-0.1,0-0.2l-6.7-1C616.5,172,616.5,172.1,616.5,172.2z"/>
	<path d="M632.9,265.6l6.8,1c-0.4-2.5-0.7-5.2-1.1-7.9l-6.8-0.9C632.1,260.5,632.5,263.1,632.9,265.6z"/>
	<path d="M354.2,220.3l-5.9-0.8c0.3,1.8,0.6,3.6,0.9,5.4l5.9,0.9C354.9,223.9,354.5,222.1,354.2,220.3z"/>
	<path d="M134.6,143.7l5.7,0.7c0-0.1,0-0.3,0.1-0.4l-5.7-0.6C134.6,143.5,134.6,143.6,134.6,143.7z"/>
	<path d="M397.1,231.7l6.1,0.9c0.3-1.8,0.6-3.7,0.9-5.6l-6.1-0.8C397.6,228,397.3,229.9,397.1,231.7z"/>
	<path d="M141.7,136.5c0.4-2.2,0.8-4.4,1.2-6.6l-5.7-0.7c-0.4,2.2-0.8,4.4-1.3,6.7L141.7,136.5z"/>
	<path d="M352.4,210.5l-5.9-0.8c0.1,0.8,0.3,1.5,0.4,2.3l5.9,0.8C352.7,212,352.6,211.2,352.4,210.5z"/>
	<path d="M405.5,217.8l-6-0.8c-0.1,0.6-0.2,1.2-0.3,1.7l6,0.8C405.3,218.9,405.4,218.4,405.5,217.8z"/>
	<path d="M122,214.4l5.8,0.7c0.1-0.6,0.2-1.3,0.3-1.9l-5.9-0.6C122.2,213.2,122.1,213.8,122,214.4z"/>
	<path d="M129.3,206.4c0.3-1.7,0.6-3.5,0.9-5.2l-5.8-0.7c-0.3,1.8-0.6,3.5-0.9,5.3L129.3,206.4z"/>
	<path d="M358.4,286.6c0,0.5,0.1,1.1,0.1,1.6l5.7,0.8c0-0.5-0.1-1-0.1-1.6L358.4,286.6z"/>
	<path d="M611.8,148.4c0.4,2.1,0.8,4.2,1.3,6.4l6.8,1c-0.4-2.2-0.9-4.3-1.3-6.5L611.8,148.4z"/>
	<path d="M616.8,141c-0.1-0.4-0.2-0.7-0.2-1.1l-6.7-0.9c0.1,0.4,0.2,0.8,0.2,1.2L616.8,141z"/>
	<path d="M627.7,232.7l6.8,1c-0.4-2.4-0.8-4.9-1.3-7.3l-6.8-0.9C626.8,227.9,627.2,230.3,627.7,232.7z"/>
	<path d="M403.1,195.3c-0.3,1.7-0.6,3.3-0.9,5l6,0.9c0.3-1.7,0.6-3.4,0.9-5.1L403.1,195.3z"/>
	<path d="M332.5,136.9l5.7,0.7c-0.2-0.8-0.3-1.6-0.5-2.3l-5.7-0.6C332.2,135.4,332.4,136.2,332.5,136.9z"/>
	<path d="M349.1,192.7c-1.5-7.9-3-15.9-4.6-23.6l-1.3,21.4l-0.1,1.4l4.1,0.6L349.1,192.7z"/>
	<path d="M141.8,106.3l5.6,0.6c0.5-2.6,1-5,1.5-7.3l-5.6-0.7C142.8,101.2,142.3,103.7,141.8,106.3z"/>
	<path d="M404.4,188.1l6,0.8c0.1-0.7,0.3-1.5,0.4-2.2l-6-0.8C404.7,186.6,404.5,187.4,404.4,188.1z"/>
	<path d="M336.3,128.3c-0.4-1.8-0.7-3.5-1.1-5.2l-5.7-0.7c0.3,1.7,0.7,3.5,1.1,5.3L336.3,128.3z"/>
	<path d="M624.8,216.7l6.8,0.9c0-0.1,0-0.2,0-0.2l-6.8-0.9C624.8,216.5,624.8,216.6,624.8,216.7z"/>
	<path d="M391.7,268.6c-0.2,1.9-0.5,3.8-0.7,5.6l6.1,0.9c0.2-1.8,0.4-3.7,0.7-5.7L391.7,268.6z"/>
	<path d="M127.2,184.3l5.8,0.7c0.1-0.4,0.1-0.7,0.2-1.1l-5.8-0.6C127.3,183.7,127.2,184,127.2,184.3z"/>
	<path d="M355.5,263.5c0.3,1.9,0.5,3.8,0.8,5.6l5.8,0.9c-0.2-1.8-0.5-3.7-0.8-5.7L355.5,263.5z"/>
	<path d="M354.1,253.8c0.1,0.7,0.2,1.3,0.3,2l5.9,0.8c-0.1-0.7-0.2-1.3-0.3-2L354.1,253.8z"/>
	<path d="M134.4,176.8c0.4-2,0.7-4,1.1-5.9l-5.7-0.7c-0.4,2-0.7,4-1.1,6L134.4,176.8z"/>
	<path d="M399,260.3l-6.1-0.9c-0.1,0.6-0.2,1.1-0.2,1.7l6.1,0.8C398.9,261.4,398.9,260.9,399,260.3z"/>
	<path d="M122.1,245.9l0.3,4.5c0.4-2.9,0.9-5.9,1.3-9l-5.9-0.7c-0.2,1.6-0.5,3.1-0.7,4.6L122.1,245.9z"/>
</g>
</svg>
