<?xml version="1.0" encoding="utf-8"?>
<!-- Generator: Adobe Illustrator 25.3.0, SVG Export Plug-In . SVG Version: 6.00 Build 0)  -->
<svg version="1.1" id="Layer_1" xmlns="http://www.w3.org/2000/svg" xmlns:xlink="http://www.w3.org/1999/xlink" x="0px" y="0px"
	 viewBox="0 0 750.2 400.1" style="enable-background:new 0 0 750.2 400.1;" xml:space="preserve">
<path d="M119.9,227.3c-4.1,25.8-7.3,48.8-8.2,62.6c2,0.5,3.9,1,5.8,1.4c0.9-13.9,4-36.9,8.2-62.9L119.9,227.3z"/>
<path d="M397.9,226.6c-4.2,26.1-7.5,49.4-8.3,63.3c2,0.5,4,1,6,1.4c0.9-14,4.1-37.3,8.3-63.6L397.9,226.6z"/>
<path d="M364.2,289.7c-0.9-14.1-4.4-37.9-9.1-64.4l-5.6,1c4.6,26.5,8.3,50.3,9.2,64.6C360.5,290.6,362.4,290.1,364.2,289.7z"/>
<path d="M642.2,289.8c-0.9-14.2-4.5-38-9.2-64.5l-6.4,1.2c4.7,26.6,8.3,50.5,9.2,64.8C637.9,290.8,640,290.3,642.2,289.8z"/>
</svg>
