<?xml version="1.0" encoding="utf-8"?>
<!-- Generator: Adobe Illustrator 25.3.0, SVG Export Plug-In . SVG Version: 6.00 Build 0)  -->
<svg version="1.1" id="Layer_1" xmlns="http://www.w3.org/2000/svg" xmlns:xlink="http://www.w3.org/1999/xlink" x="0px" y="0px"
	 viewBox="0 0 750.2 400.1" style="enable-background:new 0 0 750.2 400.1;" xml:space="preserve">
<g>
	<polygon points="643.3,166.6 643.3,161.7 643.3,161.7 	"/>
	<path d="M288,128c-0.2-0.9-0.4-1.8-0.6-2.9c0-0.1,0-0.2-0.1-0.3c-1.1-5.1-2.5-12-4.9-19.3H121.9c-2.6,8-4.2,15.5-5.3,20.6l-0.5,2.2
		c-0.2,1.1-0.5,2.1-0.8,3.1c0.3,1,2,8.3,3.1,20.1h168c0.9-8.8,2.2-15,2.9-18.1c-0.1-0.2-0.1-0.5-0.2-0.7c0-0.1-0.1-0.2-0.1-0.3
		C288.7,130.9,288.3,129.5,288,128z"/>
</g>
</svg>
