<?xml version="1.0" encoding="utf-8"?>
<!-- Generator: Adobe Illustrator 25.3.0, SVG Export Plug-In . SVG Version: 6.00 Build 0)  -->
<svg version="1.1" id="Layer_1" xmlns="http://www.w3.org/2000/svg" xmlns:xlink="http://www.w3.org/1999/xlink" x="0px" y="0px"
	 viewBox="0 0 750.2 400.1" style="enable-background:new 0 0 750.2 400.1;" xml:space="preserve">
<style type="text/css">
	.st0{fill:none;}
</style>
<g>
	<path class="st0" d="M621.9,176.6c-0.2-0.1,0-0.3-0.2-0.4c-0.4,0.3-0.2,0.4-0.2,0.6C621.7,176.7,621.8,176.6,621.9,176.6z"/>
	<path class="st0" d="M621,176.6c0.1-0.3-0.1-0.3,0.3-0.8C620.8,176.1,620.4,176.9,621,176.6z"/>
	<path class="st0" d="M620.9,177.9c0-0.2-0.2,0.1-0.3,0.1c-0.2,0-0.5,0.1-0.3-0.1c0.3-0.2,0.6-0.3,0.7-0.1c0.6-0.4,1.1-0.9,1.4-1.2
		c-0.5,0.2-0.7,0.6-1.2,1c-0.1,0-0.3,0.1-0.4,0c-0.1-0.1,0.2-0.2,0.1-0.3c-0.3,0.2-0.4,0-0.9,0.3c-0.2,0.2-0.2,0.3-0.3,0.5
		C620,178.3,620.3,178.3,620.9,177.9z"/>
	<path class="st0" d="M618.8,178.2c0.3,0.1-0.1,0.3-0.1,0.5c0.2-0.2,0.3-0.1,0.5-0.3C619,178.3,619.4,177.8,618.8,178.2z"/>
	<path class="st0" d="M618.6,161.7c0.3,0.3,0.9,0.8,1.1,0.8C619.4,162.4,618.7,161.8,618.6,161.7z"/>
	<path class="st0" d="M638.8,279.6c-0.1,0.1-0.7,0.3-0.6,0.5C638.3,280.1,638.8,279.7,638.8,279.6z"/>
	<path class="st0" d="M626.4,204.6C626.4,204.6,626.4,204.6,626.4,204.6C626.3,204.6,626.3,204.6,626.4,204.6
		C626.4,204.7,626.4,204.6,626.4,204.6z"/>
	<path class="st0" d="M627.9,206.7c-0.1-0.1,0-0.1-0.1-0.2C627.7,206.6,627.8,206.7,627.9,206.7z"/>
	<path class="st0" d="M401.9,210.9c0,0-0.1,0-0.1,0.1c0,0,0,0,0,0C401.9,210.9,401.9,210.9,401.9,210.9z"/>
	<path class="st0" d="M619.6,177.6c0-0.1,0.1-0.2-0.1-0.3c-0.2,0.2-0.4,0.3-0.5,0.3C619.2,177.8,619.3,177.9,619.6,177.6z"/>
	<path class="st0" d="M623.6,177.4c0,0-0.1-0.1-0.1-0.1c-0.3,0.2-0.6,0.5-0.6,0.6C623.2,177.5,623.2,177.6,623.6,177.4z"/>
	<path class="st0" d="M618.3,162.6c0.1,0.1,0.3,0.2,0.4,0.3C618.9,163,618.2,162.5,618.3,162.6z"/>
	<path class="st0" d="M621.6,166.2c0-0.1-0.6-0.5-1.1-0.8C620.4,165.4,621.3,166.1,621.6,166.2z"/>
	<path class="st0" d="M340.8,170.3C340.7,170.3,340.7,170.3,340.8,170.3c0.9,0.8,1.8,1.7,2.6,2.5c0.2-0.2,0-0.2-0.1-0.2
		c-0.4-0.4-0.8-0.8-1.2-1.3c-0.3-0.2-0.6-0.5-0.9-0.7C341.1,170.6,340.9,170.4,340.8,170.3z"/>
	<path class="st0" d="M621.6,166.9c0.2,0.2,0.4,0.3,0.4,0.3C621.9,167.1,621.8,167,621.6,166.9C621.6,166.9,621.6,166.9,621.6,166.9
		z"/>
	<path class="st0" d="M619.7,162.6c0.1,0.1,0.4,0.3,0.4,0.3C620.1,162.8,619.8,162.6,619.7,162.6z"/>
	<path class="st0" d="M620.7,163.8c-0.2-0.1-0.5-0.4-0.5-0.4c0.4,0.3,1,0.8,1.2,0.9C621.2,164.2,620.9,164,620.7,163.8z"/>
	<path class="st0" d="M623.2,174.8c0,0,0-0.1,0.1-0.1c-0.1-0.1-0.3,0-0.6,0.2C622.8,175,623,175.1,623.2,174.8z"/>
	<path class="st0" d="M623.9,203.3c0,0.1,0.1,0.1,0.1,0.2C624.1,203.5,624,203.3,623.9,203.3z"/>
	<path class="st0" d="M619.3,163.4c0.1,0-0.2-0.3-0.4-0.3C618.8,163,619,163.2,619.3,163.4z"/>
	<path class="st0" d="M614.7,162.1c0.1,0.1,0.3,0.2,0.4,0.3C615.3,162.5,614.6,162,614.7,162.1z"/>
	<path class="st0" d="M617.4,163.5c-0.1,0-0.5-0.4-0.4-0.3C617,163.2,617.4,163.5,617.4,163.5z"/>
	<path class="st0" d="M616.8,162.9C617.2,163.3,617.3,163.3,616.8,162.9L616.8,162.9z"/>
	<path class="st0" d="M619.6,178.6c0,0.1-0.1,0.2-0.1,0.3c0.2-0.1,0.3-0.1,0.5-0.3C619.9,178.5,619.8,178.4,619.6,178.6z"/>
	<path class="st0" d="M352.1,216C352.1,216,352.1,215.9,352.1,216c0,0.1-0.3,0.1-0.1,0.3C352.2,216.2,351.9,216.1,352.1,216
		c0.1,0.1,0.5,0.1,0.3-0.1C352.2,215.9,352.2,216.1,352.1,216z"/>
	<path class="st0" d="M400.1,230.3c-0.1-0.1-0.3-0.2-0.3,0C399.9,230.3,400,230.4,400.1,230.3z"/>
	<path class="st0" d="M397.5,231.9c0.1,0.1,0.1,0.1,0.1,0.1c-0.2-0.1,0.1-0.1,0-0.2c0,0.1-0.4,0.1-0.2,0.3
		C397.6,232.2,397.4,231.9,397.5,231.9z"/>
	<path class="st0" d="M350.7,216.8c0.1,0,0-0.1-0.1-0.2C350.5,216.7,350.6,216.8,350.7,216.8z"/>
	<path class="st0" d="M351.1,216.6c0,0.1,0.1,0.1,0.2,0.2c-0.1,0,0,0.1,0,0.1c0-0.2,0.3,0,0.2-0.2
		C351.4,216.7,351.2,216.6,351.1,216.6z"/>
	<path class="st0" d="M401.4,236.1c0.1-0.1,0.2,0,0.3,0c-0.1-0.1-0.1-0.1-0.2-0.1c-0.1-0.1-0.2-0.3-0.3-0.2c0.1,0.1,0.1,0.1,0.2,0.1
		C401.3,236,401.3,236,401.4,236.1z"/>
	<path class="st0" d="M400.8,236.5c-0.1-0.1-0.3-0.3-0.3-0.2c0,0.1,0.1,0.1,0.2,0.2C400.7,236.5,400.8,236.5,400.8,236.5z"/>
	<path class="st0" d="M401.7,235.1c0.1,0.1,0,0.2,0.1,0.4C402,235.4,401.9,235.1,401.7,235.1z"/>
	<path class="st0" d="M352.5,211.4c0,0-0.1-0.1-0.1-0.1C352.4,211.4,352.4,211.4,352.5,211.4C352.5,211.5,352.5,211.4,352.5,211.4z"
		/>
	<path class="st0" d="M351.4,217.6c-0.1,0,0,0.2,0,0.2c0-0.1,0.2-0.1,0.1-0.2C351.5,217.7,351.5,217.7,351.4,217.6z"/>
	<path class="st0" d="M401.6,235.9c0.1-0.1-0.1-0.4,0.1-0.3c-0.1-0.1-0.2,0-0.2,0C401.5,235.6,401.5,235.8,401.6,235.9z"/>
	<path class="st0" d="M403.3,230.2c-0.1-0.1-0.2-0.2-0.3-0.1C403.1,230.1,403.2,230.2,403.3,230.2
		C403.3,230.2,403.3,230.2,403.3,230.2z"/>
	<path class="st0" d="M622.7,201.8c0.1,0.1,0,0.1,0.1,0.2C622.8,201.9,622.8,201.8,622.7,201.8z"/>
	<path class="st0" d="M351,218.2c0.1,0.1,0.1,0.2,0,0.3c0.1,0,0.2,0.1,0.2,0C351.2,218.4,351.1,218.1,351,218.2z"/>
	<path class="st0" d="M623.3,203c0,0,0,0.2,0.1,0.2c0,0,0,0,0.1,0c0,0,0,0.1,0.1,0c-0.1,0,0-0.1,0-0.1
		C623.4,203.1,623.3,203.1,623.3,203z"/>
	<path class="st0" d="M396.9,233.3c0.1,0.2,0.2,0.1,0.3,0C397,233.1,396.9,233.2,396.9,233.3z"/>
	<path class="st0" d="M623.1,202.7c0,0,0.1,0.2,0.1,0.1C623.1,202.8,623.2,202.7,623.1,202.7z"/>
	<path class="st0" d="M622.9,202.2c0.1,0.1,0.3,0.2,0.2,0.1C623.1,202.3,622.9,202.1,622.9,202.2z"/>
	<path class="st0" d="M349.3,217.6c0,0.1-0.1,0.2-0.2,0.3c0,0,0.1,0,0.1,0.1c0.1,0,0.1-0.2,0.2-0.1c0.1,0.1-0.1,0.1,0,0.2
		c0.2,0,0.1-0.1,0.2-0.2C349.4,217.7,349.4,217.6,349.3,217.6z"/>
	<path class="st0" d="M349.8,214c0-0.1,0.1,0,0.2-0.1c-0.1-0.1-0.1-0.1-0.2-0.2C349.7,213.9,349.7,214,349.8,214z"/>
	<path class="st0" d="M355.2,232.9c-0.5,0.4-1.1,0.8-1.3,1c0.5-0.4,1.4-1,2-1.5c0,0,0.1-0.1,0.1-0.1
		C355.7,232.5,355.5,232.7,355.2,232.9z"/>
	<path class="st0" d="M348.9,221.4c0,0.1,0.1,0.1,0.2,0.2c0,0,0.1,0,0-0.1C349,221.6,349,221.3,348.9,221.4z"/>
	<path class="st0" d="M352.5,234.4c0.1-0.1,0.3-0.3,0.4-0.3C352.8,234.2,352.5,234.4,352.5,234.4z"/>
	<path class="st0" d="M349.7,213.5C349.7,213.6,349.7,213.5,349.7,213.5C349.7,213.5,349.7,213.5,349.7,213.5
		C349.7,213.5,349.7,213.5,349.7,213.5z"/>
	<path class="st0" d="M616.1,151.1c-0.1,0.2-0.5,0.4-0.5,0.5C615.9,151.5,616.4,151.2,616.1,151.1z"/>
	<path class="st0" d="M616.7,150.4c-0.2,0.1-0.2,0.2-0.4,0.3c-0.2,0.2-0.5,0.2-0.7,0.5C615.6,151.4,616.6,150.6,616.7,150.4z"/>
	<path class="st0" d="M115.7,282.7c-0.2,0.1-0.4,0.3-0.4,0.4c0.2-0.1,0.2,0.1,0.5-0.3C115.8,282.7,115.8,282.7,115.7,282.7z"/>
	<path class="st0" d="M615.5,152.2C616,152.2,616,151.6,615.5,152.2L615.5,152.2z"/>
	<path class="st0" d="M615.3,152c0.1-0.1,0.2-0.2,0.3-0.3C615.6,151.6,615.1,152,615.3,152z"/>
	<path class="st0" d="M115.1,282.4c0-0.3-0.4-0.3-0.6,0C115.1,282,114.3,283,115.1,282.4z"/>
	<path class="st0" d="M616.2,151.7c0.1,0.1,0.2,0,0.5-0.2C616.6,151.4,616.4,151.5,616.2,151.7z"/>
	<path class="st0" d="M115.3,281.8c-0.1-0.2-0.4,0-0.7,0.1C114.8,281.9,114.9,282.1,115.3,281.8z"/>
	<path class="st0" d="M135.6,154c0.2-0.1,0.4-0.3,0.5-0.4c0.2-0.1,0.3-0.3,0.5-0.4c0,0,0,0-0.1-0.1c-0.4-0.3-1-0.7-1.5-1.2
		c-0.2,0.2-0.5,0.3-0.7,0.5c-0.1,0.1-0.2,0.2-0.3,0.3c0.2,0.2,0.5,0.4,0.8,0.6C135,153.5,135.3,153.7,135.6,154z"/>
	<path class="st0" d="M117.2,280.7c-0.5,0.3-0.4,0.1-0.2-0.2c-0.3,0.3-0.7,0.6-0.7,0.8C116.7,280.9,117.1,280.9,117.2,280.7z"/>
	<path class="st0" d="M329.8,110.9c-0.2,0.2-0.6,0.5-0.5,0.5c0.5-0.3,0.8-0.7,1.4-1C330.4,110.3,330.1,110.6,329.8,110.9z"/>
	<path class="st0" d="M137.8,152.1c0.1-0.1,0.1-0.1,0.2-0.2c-0.5-0.4-1.1-0.8-1.6-1.2c-0.2,0.2-0.5,0.4-0.7,0.5c0,0-0.1,0.1-0.1,0.1
		c0.5,0.4,1.1,0.9,1.6,1.3C137.5,152.4,137.6,152.3,137.8,152.1z"/>
	<path class="st0" d="M612.7,152.2c0.1,0.1,0.3,0,0.6-0.3C613.2,151.8,612.9,151.9,612.7,152.2z"/>
	<path class="st0" d="M614.2,147.8c-0.1,0.1-0.2,0.2-0.3,0.3C613.9,148.2,614.4,147.9,614.2,147.8z"/>
	<path class="st0" d="M112.4,286.2c0.2-0.1,0.8-0.4,0.6-0.6C112.9,285.8,112.4,286.1,112.4,286.2z"/>
	<path class="st0" d="M113.5,284.5c0.3-0.2,0.9-0.5,0.9-0.8c-0.5,0.4-1.3,0.9-1.5,1.3C113,285.3,113.3,284.7,113.5,284.5z"/>
	<path class="st0" d="M615,150.2c0.3-0.2,0.7-0.5,0.7-0.6C615.4,149.7,614.9,150,615,150.2z"/>
	<path class="st0" d="M330.2,108.3c0.1-0.1,0.5-0.4,0.5-0.4C330.5,107.9,330.1,108.2,330.2,108.3z"/>
	<path class="st0" d="M613.7,151.2c0.2-0.2,0.7-0.5,0.8-0.7C614.2,150.7,613.7,151,613.7,151.2z"/>
	<path class="st0" d="M115.2,283.1c-0.1,0-0.5,0.2-0.5,0.4c0.1-0.1,0.1-0.1,0.2,0c-0.4,0.2-0.3,0.3-0.3,0.5
		C115.1,283.7,115.5,283.3,115.2,283.1z"/>
	<path class="st0" d="M328.3,109.4c0.1,0,0.4-0.3,0.6-0.4C328.9,108.8,328.3,109.3,328.3,109.4z"/>
	<path class="st0" d="M330.1,106.2c0.4-0.2,0.8-0.6,1.1-0.8c0.1-0.1,0.2,0,0.3-0.2c-0.4,0-0.8,0.4-1.4,0.9
		C330.1,106,330.1,106.1,330.1,106.2z"/>
	<path class="st0" d="M329.4,108.8c0.1,0,0.6-0.3,0.6-0.4C329.8,108.4,329.4,108.6,329.4,108.8z"/>
	<path class="st0" d="M329.5,113.4c-0.3,0.2-0.4,0.4-0.5,0.5c0,0,0,0,0.1,0.1C329.3,113.8,329.6,113.6,329.5,113.4z"/>
	<path class="st0" d="M332,109.1c-0.2,0.2-1,0.8-0.9,0.9C331.4,109.8,331.9,109.3,332,109.1C332,109.1,332,109.1,332,109.1z"/>
	<path class="st0" d="M617.9,152.2c0.2-0.1,0.3-0.3,0.3-0.3C618.1,152,618,152,617.9,152.2C617.9,152.2,617.9,152.2,617.9,152.2z"/>
	<path class="st0" d="M617,150.7c0.5-0.3,0.4-0.3,0.5-0.5c0-0.1,0.1-0.2,0.1-0.2C617.1,150.3,617,150.5,617,150.7z"/>
	<path class="st0" d="M613.4,155.5c0,0.2,0.5-0.3,0.4-0.3C613.8,155.2,613.6,155.3,613.4,155.5z"/>
	<path class="st0" d="M327.8,112.5c0,0.1,0.6-0.3,0.6-0.4C328.2,112.1,327.9,112.3,327.8,112.5z"/>
	<path class="st0" d="M117.5,247.3C116.8,246.7,117.2,247.2,117.5,247.3L117.5,247.3z"/>
	<path class="st0" d="M330.7,113.2c-0.2,0.1-0.7,0.5-0.5,0.5C330.4,113.6,330.8,113.3,330.7,113.2z"/>
	<path class="st0" d="M121.6,248.2c0.3,0.2,0.3,0.3,0.5,0.4C122,248.5,121.6,248.2,121.6,248.2z"/>
	<path class="st0" d="M120.7,248.4c-0.1,0,0.6,0.5,0.6,0.4C121.2,248.7,120.9,248.5,120.7,248.4z"/>
	<path class="st0" d="M118.3,245.8c-0.3-0.2-0.7-0.5-0.7-0.5c0.2,0.2,0.7,0.5,1,0.7c0.1,0.1,0.1,0.1,0.3,0.3
		c0.2,0.1,0.3,0.2,0.4,0.2C119.1,246.4,118.7,246.1,118.3,245.8z"/>
	<path d="M340.7,170.3C340.7,170.3,340.7,170.3,340.7,170.3c0.2,0.1,0.3,0.3,0.5,0.4c0.3,0.2,0.6,0.4,0.9,0.7
		c-0.5-0.5-1.1-1-1.7-1.4C340.5,170.1,340.6,170.2,340.7,170.3z"/>
	<path d="M341.4,162.3c-0.5-0.1-0.9-0.6-1.3-1c-0.5-0.4-1.2-0.8-1.7-1.2c-0.6-0.5-1-0.9-1.5-1.3c0.2,0.9,0.4,1.8,0.5,2.7
		c0.2,0.1,0.3,0.2,0.5,0.4c0.1,0.1,0.2,0.2,0.3,0.3c0,0,0,0,0.1,0c0.1,0.1,0.2,0.2,0.3,0.3c0.7,0.5,1.6,1.2,2,1.5
		c0.2,0.1,0.2,0.3,0.4,0.4c1,0.8,2,1.6,3,2.4c0.1,0,0.1,0.1,0.2,0.1c-0.2-1-0.4-1.9-0.6-2.9c-0.1-0.1-0.1-0.1-0.2-0.2
		C342.7,163.4,341.9,163,341.4,162.3z"/>
	<path d="M336.1,155.2c0,0.3,0.1,0.5,0.1,0.8c0.4,0.2,0.7,0.5,1,0.7c0.5,0.4,0.8,0.5,1.1,0.8c0.4,0.3,0.8,0.7,1.2,1c0,0,0.2,0,0.2,0
		c0.3,0.1,0.7,0.5,0.9,0.7c0.6,0.4,1.1,1,1.5,1.3c0.1,0.1,0.4,0.2,0.6,0.3c0,0,0.1,0,0.1,0.1c-0.1-0.4-0.2-0.8-0.2-1.2
		c-0.1-0.1-0.2-0.3-0.4-0.3c-0.1-0.1-0.2,0-0.3-0.1c0,0-0.1-0.2-0.2-0.2c-0.1-0.1-0.3-0.2-0.4-0.2c-0.3-0.2-0.4-0.4-0.6-0.6
		c-0.4-0.3-0.9-0.6-1.3-0.9c-0.5-0.4-1-0.7-1.4-1.1c-0.6-0.4-1.1-0.8-1.7-1.2C336.3,155,336.2,155.1,336.1,155.2
		C336.2,155.2,336.1,155.2,336.1,155.2z"/>
	<path d="M401.1,211.7c0.2-0.2-0.2,0.1-0.2,0.1c0.5-0.4,0.2-0.3,0.3-0.3c0.2-0.2,0.5-0.4,0.7-0.6c0,0,0,0,0,0
		c-0.1,0.1-0.3,0.2-0.3,0.1c0.1-0.1,0.2-0.1,0.2-0.2c-0.4-0.3-0.8-0.6-1.1-0.9c-0.1,0.8-0.3,1.6-0.4,2.4c0.1,0,0.1-0.1,0.2-0.1
		C400.7,212,400.7,212,401.1,211.7z"/>
	<path d="M402.6,209.3c0.1,0.1,0.2,0.2,0.4,0.3c0.1-0.1,0.2-0.2,0.4-0.2c0.2-0.1,0.5-0.4,0.8-0.6c0,0,0,0,0.1,0
		c-0.5-0.4-1.1-0.9-1.7-1.3c-0.4-0.3-0.9-0.6-1.3-1c-0.1,0.5-0.2,1-0.3,1.5C401.5,208.4,402.1,208.9,402.6,209.3z"/>
	<polygon points="344.3,167.7 344.3,167.7 344.3,167.7 	"/>
	<path d="M340.3,166.2c0,0,0-0.1-0.1-0.2c-0.1,0-0.3-0.1-0.4-0.2c-0.2-0.2-0.3-0.4-0.5-0.6c-0.4-0.5-0.9-1-1.3-1.4
		c-0.1,0.1-0.1,0.2-0.1,0.4c0,0.1,0,0.1,0,0.2c0,0.1,0,0.1,0.1,0.2c0.1,0.1,0.3,0.3,0.5,0.5c0.1,0.2,0.3,0.4,0.3,0.5
		c1.2,0.9,2.5,1.8,3.9,2.7c-0.3-0.3-0.6-0.6-0.9-0.8C341.3,167,340.9,166.6,340.3,166.2z"/>
	<path d="M402.6,212.5c-0.1,0-0.2,0.1-0.2,0.1c-0.2,0.1-0.2,0.2-0.3,0.3c-0.2,0.1-0.2,0.1-0.3,0.2c-0.1,0-0.2,0.2-0.3,0.3
		c0,0-0.1,0-0.1,0c0,0-0.1,0.1-0.2,0.1c0,0-0.2,0.2-0.3,0.2c0,0,0.1-0.1,0.1-0.1c-0.1,0.1-0.2,0.1-0.2,0.2c0.5,0.4,1.1,0.8,1.6,1.3
		c0.2,0.2,0.3,0.4,0.5,0.5c0.2,0.2,0.4,0.2,0.7,0.4c0.1,0.1,0.1,0.2,0.2,0.2c0.3,0.2,1.4,1,1.5,1.1c0.1,0.1,0.1,0.1,0.1,0.2
		c0,0,0.1,0,0.1,0.1c0.2-1,0.3-2,0.5-3c-0.4-0.3-0.7-0.5-1.1-0.8c-0.6-0.5-0.9-1.1-1.7-1.4c0-0.1-0.1-0.1-0.1-0.1
		c0,0-0.1,0.1-0.2,0.1C402.9,212.3,402.7,212.5,402.6,212.5z"/>
	<path d="M399.9,214.3c-0.1,0.5-0.2,1-0.2,1.5c0.1,0.1,0.3,0.2,0.4,0.3c0.6,0.5,1.2,1,1.8,1.5c0.7,0.5,1.3,1,2,1.5
		c0.4,0.3,0.9,0.7,1.3,1c0.1-0.7,0.2-1.4,0.3-2.1c0,0-0.1-0.1-0.1-0.1c-1-0.7-1.9-1.3-2.8-2c-0.1-0.1-0.2-0.3-0.4-0.4
		c-0.2-0.1-0.3-0.2-0.5-0.3c-0.3-0.2-0.6-0.5-0.8-0.8c-0.2-0.1-0.3-0.1-0.4-0.2c-0.1,0-0.1-0.1-0.2-0.2
		C400.2,214.1,400.1,214.1,399.9,214.3C400,214.2,399.9,214.2,399.9,214.3z"/>
	<path d="M405.4,210.1c-0.1,0.1-0.5,0.4-0.7,0.5c-0.2,0.2,0.1,0,0.1,0.1c-0.1,0.1-0.2,0.1-0.2,0.2c0.6,0.5,1.2,1,1.9,1.5
		c0.1-0.6,0.2-1.1,0.3-1.7c-0.3-0.2-0.7-0.5-1-0.7c-0.1,0-0.1,0.1-0.1,0.1C405.5,210.1,405.4,210.1,405.4,210.1z"/>
	<path d="M398.5,243.5c-0.3,0.1-0.5,0.3-0.7,0.5c-0.1,0.1-0.1,0.1-0.2,0.1c0.3,0.2,0.6,0.5,0.9,0.7c0.8,0.6,1.6,1.2,2.4,1.8
		c0.1-0.5,0.1-1,0.2-1.4c-0.8-0.7-1.6-1.4-2.4-2.1C398.7,243.3,398.6,243.4,398.5,243.5z"/>
	<path d="M401.3,240.7c-0.2,0-0.4,0.1-0.6,0.2c-0.1,0.2-0.3,0.2-0.3,0.3c-0.2,0.2-0.3,0.3-0.5,0.4c0.1,0.2-0.1,0.4,0.1,0.6
		c0.4-0.2,0.2,0.1,0.3,0.2c0,0.1,0.1,0.1,0.2,0.1c0.2,0.2,0.5,0.3,0.7,0.5c0.1,0.1,0.2,0.2,0.2,0.2c0.1-0.7,0.2-1.3,0.3-2
		c-0.1,0-0.1-0.1-0.2-0.1c-0.2-0.1,0-0.2,0-0.3C401.3,240.9,401.4,240.7,401.3,240.7z"/>
	<path d="M634.8,280.5c0,0.2,0,0.4,0.1,0.6c0,0,0,0,0,0c0.3,0.2,0.5,0.4,0.8,0.6c0.1-0.1,0.2-0.2,0.3-0.3
		C635.6,281.1,635.2,280.8,634.8,280.5z"/>
	<path d="M636.4,282.3c0.3,0.2,0.5,0.4,0.8,0.7c0.1,0.1,0.3,0.2,0.4,0.3c0.2,0.2,0.2,0.2,0.4,0.4c0.5,0.4,1,0.7,1.5,1.1
		c0.3,0.3,0.7,0.6,1,0.9c0.2,0.1,0.3,0.2,0.4,0.3c0.1,0.1,0.2,0.3,0.4,0.4c0.2,0.2,0.5,0.3,0.7,0.5c0-0.2,0-0.5-0.1-0.7
		c-1.4-1.1-2.9-2.4-4.3-3.4c-0.2-0.1-0.2-0.2-0.4-0.3c-0.3-0.2-0.6-0.5-0.9-0.7c-0.1,0.1-0.2,0.2-0.3,0.3
		C636.1,282.1,636.2,282.2,636.4,282.3z"/>
	<path d="M637.6,289.8c-0.2,0.1,0.3,0.3,0.4,0.5c0.1,0.1,0.3,0.3,0.4,0.4c0.1,0,0.2,0,0.2-0.1C638.3,290.4,638,290.1,637.6,289.8z"
		/>
	<path d="M642.2,289.6c0-0.4-0.1-0.8-0.1-1.2c-0.1-0.1-0.1-0.1-0.2-0.2c-0.1,0-0.4-0.3-0.6-0.5c-0.9-0.7-1.5-1.2-2.1-1.7
		c-1.3-1-2.1-1.7-3.2-2.5c-0.3-0.2-0.5-0.4-0.6-0.5c-0.1-0.1-0.2-0.1-0.3-0.2c0,0.4,0.1,0.8,0.1,1.2c0.2,0.1,0.3,0.2,0.5,0.4
		C637.6,286,639.9,287.8,642.2,289.6z"/>
	<path d="M636.2,286.9c0.6,0.4,0.9,0.7,1.2,1c0.2,0.2,0.3,0.2,0.4,0.3c0.1,0.1,0.1,0.1,0.1,0.2c0.8,0.6,1.6,1.3,2.4,1.9
		c0.3-0.1,0.6-0.1,0.9-0.2c-0.3-0.3-0.6-0.6-1-0.9c-0.5-0.4-1.1-0.8-1.7-1.2c-1.2-0.9-2.3-1.7-3.4-2.6c0,0.3,0.1,0.7,0.1,1
		c0.1,0,0.1,0.1,0.2,0.1c0,0,0.1,0.1,0.2,0.2C636,286.8,636.1,286.8,636.2,286.9z"/>
	<path d="M615.2,136.3c-0.1-0.1-0.1-0.2-0.2-0.3c-0.5-0.4-1-0.7-1.3-1c-1-0.7-2.3-1.6-3.2-2.3c-0.2-0.1-0.2-0.3-0.3-0.3
		c-0.2-0.1-0.4-0.2-0.6-0.3c-0.3-0.2-0.5-0.4-0.8-0.6c-0.1-0.1-0.3-0.2-0.4-0.3c0.2,0.9,0.4,1.9,0.6,2.9c0.2,0.1,0.4,0.3,0.6,0.4
		c0.3,0.2,0.7,0.4,1,0.6c0.5,0.3,0.9,0.8,1.4,1.1c0.5,0.4,1,0.6,1.4,1c1.1,0.9,2.2,1.8,3.3,2.7c-0.2-1-0.4-2-0.6-3
		c-0.1-0.1-0.3-0.3-0.4-0.4C615.4,136.3,615.3,136.3,615.2,136.3z"/>
	<path d="M610.8,127.9c-0.5-0.4-1.3-1-1.9-1.5c-0.5-0.5-0.8-1-1.3-1.4c-0.2-0.1-0.4-0.2-0.6-0.3c0.3,1.7,0.7,3.4,1,5.1
		c0.3,0.3,0.7,0.5,1,0.8c1.2,0.9,2.6,1.8,3.8,2.8c0.2,0.1,0.1,0.2,0.3,0.3c0.2,0.1,0.3,0.2,0.5,0.3c0.7,0.5,1.3,1,2,1.5
		c-0.3-1.6-0.7-3.2-1-4.7c-0.1-0.1-0.2-0.1-0.4-0.2C613.3,129.7,611.9,128.9,610.8,127.9z"/>
	<path d="M424.4,102.3c-0.2-0.1-0.4-0.2-0.6-0.3c-1-0.6-1.8-1.4-2.8-2.1c-0.1,0.5-0.2,1-0.3,1.6c1.1,0.9,2.2,1.8,3.2,2.6
		c0.4,0.3,0.8,0.6,1.1,0.9c0.3,0.2,0.5,0.4,0.8,0.6c0.1-0.7,0.3-1.3,0.4-1.9c-0.4-0.3-0.8-0.5-1.1-0.8
		C424.8,102.7,424.6,102.4,424.4,102.3z"/>
	<path d="M421.2,108.6c0.2,0.1,0.2,0.2,0.3,0.3c0.4,0.3,0.8,0.6,1.3,0.9c0.5,0.4,1,0.7,1.3,0.9c0.1,0,0,0.1,0,0.1
		c0.3,0.2,0.5,0.3,0.6,0.4c0.1-0.4,0.1-0.7,0.2-1.1c-0.5-0.4-1.4-1-1.6-1c-0.3-0.1-0.6-0.5-0.8-0.6c-1-0.8-1.7-1.2-2.5-1.7
		c-0.2-0.1-0.2-0.2-0.3-0.3c-0.1,0.3-0.1,0.5-0.2,0.8c0.1,0.1,0.2,0.1,0.3,0.2C420.2,107.9,420.8,108.4,421.2,108.6z"/>
	<path d="M422.2,98.1c0.3,0.3,0.6,0.6,0.9,0.9c0.7,0.6,1.7,1,2.2,1.8c0.5,0.4,0.9,0.7,1.3,1c0.1-0.4,0.1-0.7,0.2-1.1
		c-0.6-0.5-1.2-0.9-1.7-1.3c0,0-0.1-0.1-0.2-0.2c-0.2-0.1-0.2-0.1-0.4-0.2c-0.4-0.3-0.7-0.6-1.1-0.9c-0.6-0.1-1.1-0.1-1.6-0.2
		C421.9,98,422,98.1,422.2,98.1z"/>
	<path d="M422.6,104.6c0,0-0.1,0-0.2,0c-0.3-0.1-0.5-0.5-0.7-0.6c-0.5-0.4-0.9-0.7-1.4-1c-0.1,0.5-0.2,0.9-0.3,1.4
		c0.8,0.6,1.7,1.2,2.3,1.7c0.1,0.1,0.1,0.1,0.1,0.2c0.1,0.1,0.2,0.1,0.3,0.2c1,0.7,1.7,1.2,2.5,1.8c0.1-0.5,0.2-1,0.3-1.5
		c-0.5-0.4-1.1-0.7-1.6-1.2C423.5,105.3,423,104.9,422.6,104.6z"/>
	<path d="M616,163.1c0.2,0.1,0.3,0.3,0.5,0.4C616.6,163.5,616,163.1,616,163.1z"/>
	<path d="M613.5,157.3C613.5,157.4,613.5,157.4,613.5,157.3C613.6,157.4,613.6,157.4,613.5,157.3
		C613.6,157.4,613.5,157.3,613.5,157.3z"/>
	<path d="M613.7,158.1c0,0.1,0.1,0.3,0.1,0.4c0.2,0.1,0.3,0.2,0.5,0.4c0.4,0.3,0.8,0.6,1.1,0.8c0.1,0.1,0.3,0.2,0.4,0.2
		c0.2,0.1,0.2,0.2,0.4,0.3c0,0,0.3,0.2,0.4,0.3c0.3,0.2,1,0.8,1.4,1.1c0.2,0.1,0.4,0.3,0.8,0.5c0.1,0.1,0,0.1,0.1,0.1
		c0.2,0.2,0.4,0.3,0.5,0.4c0.2,0.1,0.2,0.2,0.4,0.3c0.1,0.1,0.4,0.3,0.3,0.3c-0.2-0.2-0.4-0.3-0.7-0.5c-0.1-0.1-0.4-0.3-0.3-0.2
		c-0.1-0.1-0.1-0.1-0.1-0.1c-0.2-0.1-0.2-0.1-0.3-0.2c-0.1-0.1-0.7-0.5-0.8-0.6c-0.2-0.1-0.3-0.2-0.5-0.4c0,0-0.4-0.3-0.3-0.3
		c-0.1-0.1,0-0.1-0.1-0.1c-0.3-0.2-0.5-0.4-0.8-0.5c-0.2-0.1-0.2-0.2-0.4-0.3c0,0-0.2-0.2-0.3-0.2c-0.1-0.1-0.1-0.1-0.2-0.2
		c-0.1-0.1-0.1-0.1-0.2-0.1c-0.2-0.2-0.7-0.5-1.1-0.8c0.1,0.7,0.3,1.4,0.4,2.2c0.2,0.2,0.4,0.3,0.7,0.5c0.2,0.1,0.3,0.2,0.5,0.4
		c0.2,0.1,0.2,0.2,0.3,0.3c0.1,0.1,0.2,0.1,0.3,0.2c0.2,0.1,0.2,0.2,0.3,0.3c0.2,0.1,0.4,0.2,0.5,0.4c0.2,0.2,0.4,0.3,0.6,0.4
		c0.1,0.1,0.3,0.2,0.4,0.2c0.2,0.1,0.3,0.2,0.5,0.4c0.1,0.1,0.2,0.1,0.3,0.2c0.2,0.2,0.1,0.1,0.3,0.3c0.3,0.2,0.6,0.4,0.7,0.5
		c0,0,0.3,0.2,0.5,0.4c-0.2,0,0.1,0.1,0.4,0.4c0.2,0.1,0.1,0.1,0.2,0.2c0.4,0.3,0.9,0.6,1.2,0.9c-0.1,0-0.4-0.3-0.6-0.4
		c-0.3-0.2-0.6-0.5-0.9-0.7c-0.3-0.2-0.3-0.2-0.7-0.6c-0.1-0.1-0.2-0.1-0.4-0.2c-0.2-0.1-0.4-0.3-0.8-0.6c-0.5-0.4-1.1-0.8-1.4-1.1
		c-0.1-0.1-0.3-0.2-0.4-0.3c-0.2-0.2-0.5-0.3-0.7-0.5c0,0-0.1-0.1-0.3-0.3c-0.2-0.2-0.4-0.3-0.6-0.4c-0.2-0.1-0.2-0.2-0.3-0.3
		c-0.1-0.1-0.3-0.2-0.5-0.4c0,0.1,0,0.2,0.1,0.3c0.3,0.2,0.4,0.3,0.7,0.5c0.4,0.3,1,0.7,1.6,1.2c0.1,0.1,0.3,0.2,0.4,0.3
		c0.3,0.2,0.7,0.5,1,0.7c0.2,0.1,0.2,0.1,0.3,0.3c0.1,0.1,0.2,0.2,0.3,0.2c0.2,0.2,0.2,0.2,0.3,0.3c0,0,0.2,0.1,0.3,0.2
		c0.4,0.3,0.5,0.4,0.6,0.5c0,0,0,0.1,0.1,0.1c0.1,0,0.2,0.1,0.2,0.2c0.1,0.1,0.1,0.1,0.2,0.2c0.1,0.1,0.4,0.3,0.6,0.4
		c-0.2-0.2-0.5-0.4-0.8-0.6c0,0-0.2-0.2-0.2-0.2c0.4,0.2,0.8,0.6,1.2,0.9c0.2,0.2,0.4,0.2,0.6,0.4c0,0,0.1,0.1,0.1,0.1
		c0,0.1-0.6-0.4-0.7-0.3c-0.1-0.1,0-0.1-0.3-0.3c-0.3-0.1-0.4-0.3-0.6-0.4c-0.1-0.1-0.1-0.1-0.3-0.2c-0.1-0.1-0.1-0.1-0.2-0.2
		c-0.4-0.3-0.9-0.6-1.2-0.8c-0.2-0.1-0.3-0.3-0.5-0.4c-0.2-0.2,0.3,0.3-0.1,0c-0.3-0.2-0.4-0.4-0.6-0.5c-0.2-0.1-0.7-0.5-0.9-0.7
		c-0.1-0.1-0.2-0.1-0.4-0.2c-0.6-0.4-1.1-0.9-1.7-1.3c0,0.2,0.1,0.3,0.1,0.5c0.2,0.1,0.4,0.3,0.6,0.4c0.2,0.1,0.2,0.1,0.4,0.2
		c0.4,0.2,1.2,0.9,1.7,1.2c0.1,0.1,0.1,0.1,0.2,0.2c0.1,0,0.1,0,0.2,0.1c0,0,0.1,0.1,0.1,0.1c0.3,0.3,0.7,0.5,0.9,0.7
		c0.2,0.2,0.4,0.3,0.6,0.5c0.1,0.1,0.3,0.2,0.3,0.2c-0.1-0.1-0.2-0.2-0.1-0.1c0.3,0.2,0.4,0.3,0.6,0.4c0.2,0.2,0.3,0.2,0.4,0.3
		c0.1,0.1,0.1,0.1,0.2,0.2c0.1,0.1,0.2,0.1,0.4,0.2c0.2,0.1,0.4,0.3,0.6,0.4c0.1,0.1,0.1,0.1,0.3,0.2c0.2,0.1,0.3,0.2,0.5,0.4
		c0-0.1-0.1-0.3-0.1-0.4c0,0,0,0,0,0c0,0,0,0,0,0c-0.3-1.3-0.5-2.6-0.8-3.9c-0.1-0.1-0.1-0.1-0.2-0.2c0,0,0,0-0.1-0.2
		c-0.1-0.1,0,0-0.1,0c-0.1-0.1-0.5-0.4-0.7-0.5c-0.1-0.1,0,0-0.1-0.1c-0.2-0.2-0.9-0.7-1-0.8c0,0-0.2-0.2-0.2-0.2
		c-0.5-0.4-0.7-0.5-1-0.7c-0.1-0.1-0.3-0.2-0.4-0.3c-0.1-0.1-0.3-0.2-0.4-0.3c-0.1-0.1-0.1-0.1-0.2-0.2c-0.1-0.1-0.2-0.1-0.3-0.2
		c-0.2-0.1-0.2-0.1-0.3-0.3c-0.1-0.1-0.2-0.1-0.3-0.2c-0.2-0.2-0.4-0.3-0.6-0.5c-0.1-0.1-0.3-0.2-0.4-0.3c-0.1-0.1-0.3-0.2-0.4-0.3
		c-0.1-0.1-0.2-0.1-0.3-0.2c-0.1,0.1-0.2,0.1-0.3,0.2C613.8,158,613.7,158.1,613.7,158.1z M618.7,162.9c-0.1-0.1-0.3-0.2-0.4-0.3
		C618.2,162.5,618.9,163,618.7,162.9z M619.3,163.4c-0.2-0.2-0.5-0.3-0.4-0.3C619,163.1,619.4,163.4,619.3,163.4z M616.8,162.9
		C617.3,163.3,617.2,163.3,616.8,162.9L616.8,162.9z M617,163.2c0-0.1,0.4,0.3,0.4,0.3C617.4,163.5,617,163.2,617,163.2z
		 M615.1,162.4c-0.1-0.1-0.3-0.2-0.4-0.3C614.6,162,615.3,162.5,615.1,162.4z M621.6,166.9C621.6,166.9,621.6,166.9,621.6,166.9
		c0.2,0.1,0.3,0.2,0.4,0.3C621.9,167.2,621.8,167.1,621.6,166.9z M621.6,166.2c-0.2-0.2-1.1-0.8-1.1-0.8
		C620.9,165.8,621.5,166.1,621.6,166.2z M620.7,163.8c0.2,0.2,0.5,0.4,0.7,0.5c-0.2-0.1-0.8-0.6-1.2-0.9
		C620.3,163.5,620.5,163.7,620.7,163.8z M620.2,162.9c0,0-0.3-0.2-0.4-0.3C619.8,162.6,620.1,162.8,620.2,162.9z M619.7,162.6
		c-0.2,0-0.8-0.6-1.1-0.8C618.7,161.8,619.4,162.4,619.7,162.6z"/>
	<path d="M626.8,203.2c0.1,0,0-0.1-0.1-0.2c0,0-0.2-0.1-0.2-0.1C626.7,203.1,626.7,203.1,626.8,203.2z"/>
	<path d="M622.8,203.2c0,0.1,0.1,0.2,0.2,0.1C622.9,203.3,622.9,203.1,622.8,203.2z"/>
	<path d="M623.1,200.5c0,0-0.1,0-0.1,0c0-0.1,0,0-0.1-0.1c0,0,0-0.1,0-0.1c0,0-0.1,0-0.1-0.1c-0.2-0.1-0.2-0.2-0.3-0.2
		c-0.1,0.1-0.2-0.1-0.2-0.1c0,0-0.1,0-0.1,0c-0.1,0-0.1-0.1-0.1-0.1c0-0.1-0.1-0.1-0.2-0.1c0,0,0,0-0.1,0c0.1,0.6,0.2,1.2,0.3,1.8
		c0,0,0.1,0,0.1,0.1c0,0.1,0.1,0.1,0.1,0.2c0,0,0.1,0,0.1,0.1c0.1,0.1-0.1-0.1-0.1,0c-0.1-0.1-0.1-0.1-0.2-0.2c0,0.1,0,0.2,0.1,0.3
		c0.1,0,0.1,0.1,0.1,0.1c0,0,0,0-0.1,0c0,0,0,0.1,0,0.1c0,0,0,0,0,0c0.1,0.1,0.1,0.1,0,0.1c0,0,0,0.1,0,0.1c0,0,0,0,0,0
		c0-0.1,0-0.2,0.1-0.2c0,0-0.1-0.1-0.1-0.1c0.1,0,0.1,0,0.1,0c0.3,0.2,0.6,0.5,0.9,0.7c0.1,0,0.1,0,0.2,0c0,0,0,0.1,0,0.1
		c0.1,0.1,0.1,0,0.2,0c0,0.1,0,0.1,0.1,0.2c0.1,0,0.3,0,0.2,0.1c0,0-0.1-0.1-0.1-0.1c0.1,0,0,0.1,0.1,0.1c0,0,0.1-0.1,0.1,0
		c0.1,0-0.1-0.2,0.1-0.1c0,0,0,0.1,0,0.1c0,0-0.1,0-0.1,0c0,0.1,0.1,0.1,0.2,0.2c-0.1,0,0,0.1-0.1,0c-0.1-0.1-0.2-0.2-0.3-0.3
		c-0.1,0.1,0.2,0.1,0.1,0.2c0,0,0,0-0.1,0c0-0.1-0.1-0.1-0.2-0.1c0-0.1,0-0.1,0.1-0.1c-0.1-0.1-0.2-0.2-0.3-0.2
		c0.1,0,0.1,0.1,0.1,0.1c0,0-0.1,0-0.1,0c0.1,0,0-0.1-0.1-0.1c-0.2-0.1-0.3-0.2-0.4-0.2c-0.1,0-0.1,0.1-0.2,0.1c0,0,0.1,0.1,0.1,0.1
		c-0.1-0.1-0.2,0-0.2-0.1c0,0-0.1-0.2-0.2-0.1c0,0.1,0.3,0.2,0.4,0.2c0,0,0,0-0.1,0.1c0.1,0.1,0.2,0.2,0.3,0.3
		c0.1,0,0.2,0.1,0.2,0.1c0.4,0.4,0.9,0.7,1.3,0.9c0,0,0,0.1,0.1,0.1c0.1,0,0.3,0.1,0.4,0.3c0.1,0,0.2,0,0.2,0.1c0,0-0.2,0-0.1,0.1
		c0.1,0,0.1,0,0.2,0.1c0,0,0,0-0.1,0.1c0.2,0.1,0.4,0.2,0.4,0.3c0,0,0.1,0,0.1,0c0.1,0.1,0.4,0.2,0.6,0.4c0,0,0,0.1,0,0.1
		c0.1,0.1,0.2,0.1,0.2,0.2c0,0-0.1,0-0.1,0c0.1,0.1,0.2,0.1,0.2,0.1c0,0,0,0.1,0,0.1c0.1,0.1,0.1,0,0.2,0.1c0,0,0.1,0.1,0.1,0.2
		c0.1,0.1,0.1,0,0.2,0.1c0,0,0,0,0,0.1c0,0-0.1,0-0.1,0.1c0.4,0.1,0.8,0.6,1.2,0.9c0.2,0.1,0.3,0.3,0.5,0.4c0.1,0,0.3,0.2,0.1,0.1
		c0.2,0.1,0.3,0.2,0.5,0.4c0.1,0,0.1,0,0.2,0c0,0,0,0,0,0.1c0,0-0.1,0-0.1,0c0.1,0.1,0.2,0.1,0.3,0.1c0,0.1,0.1,0.1,0.2,0.2
		c0,0,0-0.1,0-0.1c0,0,0,0,0,0c0,0,0,0,0,0c-0.2-1.1-0.4-2.3-0.6-3.4c0,0,0,0-0.1,0c0,0.1-0.1,0-0.1,0c0,0-0.1,0.1-0.1,0
		c0-0.1,0.1,0,0-0.1c-0.1,0,0,0.1-0.1,0.1c-0.1-0.1-0.2,0-0.2-0.1c0.1,0,0-0.1,0.1-0.1c-0.1,0-0.3-0.2-0.3-0.2c0,0,0.1,0.1,0.1,0.1
		c-0.1-0.1-0.1-0.1-0.2-0.1c0,0-0.1-0.1-0.2-0.1c0,0,0-0.1,0-0.1c0,0-0.1,0-0.1,0c0,0-0.1-0.1-0.1-0.1c-0.2,0-0.4-0.2-0.5-0.3
		c0,0,0,0.1-0.1,0c-0.1-0.1-0.4-0.3-0.6-0.4c-0.1,0,0-0.1-0.1-0.1c0,0-0.1,0-0.1,0c0,0-0.1-0.1-0.1-0.1c-0.2-0.1,0.1,0.1,0,0.1
		c-0.1-0.1-0.1-0.1-0.1-0.2c-0.1-0.1-0.1-0.1-0.2-0.2c0,0-0.1,0-0.1,0c0,0,0-0.1,0-0.1c-0.1,0-0.2-0.1-0.4-0.2c0-0.1,0.1-0.1,0-0.2
		c0,0-0.1,0.1-0.1,0c0.1-0.1,0.1-0.1,0.3-0.1c-0.2-0.2-0.3-0.2-0.5-0.3c0,0-0.1,0-0.1,0c0,0,0-0.1-0.1-0.1c-0.1,0,0,0.1,0,0.1
		c0-0.1-0.1-0.1,0-0.1c-0.1-0.1-0.1,0-0.2,0c-0.3-0.2-0.5-0.4-0.9-0.5c0,0,0-0.1,0-0.1C623.9,201,623.5,200.8,623.1,200.5z
		 M622.8,202c-0.1-0.1-0.1-0.1-0.1-0.2C622.8,201.8,622.8,201.9,622.8,202z M622.9,202.2c0-0.1,0.2,0.1,0.2,0.1
		C623.2,202.4,623,202.3,622.9,202.2z M623.1,202.7c0.1,0,0.1,0.1,0.1,0.1C623.1,202.9,623.1,202.7,623.1,202.7z M623.5,203.3
		C623.4,203.3,623.4,203.2,623.5,203.3c-0.1-0.1-0.1,0-0.1,0c0,0-0.1-0.2-0.1-0.2C623.3,203.1,623.4,203.1,623.5,203.3
		C623.4,203.2,623.4,203.2,623.5,203.3z M624,203.5c-0.1-0.1-0.1-0.1-0.1-0.2C624,203.3,624.1,203.5,624,203.5z M627.8,206.5
		c0.1,0.1,0,0.1,0.1,0.2C627.8,206.7,627.7,206.6,627.8,206.5z M626.3,204.5C626.4,204.6,626.4,204.6,626.3,204.5
		c0.1,0.1,0,0.1,0,0.1C626.3,204.6,626.3,204.6,626.3,204.5z"/>
	<path d="M625.6,205.1c-0.3-0.2-0.5-0.4-0.7-0.5c-0.1-0.1-0.1-0.2-0.3-0.1c0.2,0.2,0.6,0.4,0.8,0.6
		C625.4,205,625.5,205.1,625.6,205.1z"/>
	<path d="M623.3,203.5c-0.1-0.1-0.2-0.2-0.3-0.2C623.2,203.4,623.2,203.5,623.3,203.5z"/>
	<path d="M616.3,144.6c-0.2,0.1-0.1-0.1-0.2-0.1c-0.1,0-0.6,0.2-0.7,0.3c-0.1,0.1-0.1,0.1-0.4,0.4c-0.1,0.1-0.2,0.1-0.4,0.2
		c-0.2,0.1-0.3,0.3-0.5,0.5c-0.5,0.4-1.3,1.1-1.9,1.5c-0.1,0.1-0.2,0.1-0.3,0.1c-0.1,0-0.1,0.1-0.2,0.2c0.3,1.6,0.6,3.2,1,4.8
		c0.1,0,0.2-0.1,0.3-0.1c0.5-0.4,0.5-0.5,0.8-0.7c0.1-0.1,0.4-0.2,0.5-0.4c-0.1,0.1-0.4,0.2-0.3,0c0.3-0.4,0.6-0.3,0.9-0.5
		c0.1-0.1,0.1-0.1,0.1-0.2c0.2-0.1,0.4-0.2,0.4-0.4c-0.3,0.2-0.5,0.4-0.4,0.2c0.4-0.3,0.6-0.2,0.9-0.4c0.3-0.2,0.4-0.4,0.7-0.6
		c0,0,0.2-0.1,0.3-0.2c0.4-0.2,1.1-0.9,1.4-1c-0.1-0.1,0-0.2,0.1-0.4c0-0.1,0-0.2,0-0.2c-0.5,0.3-0.2-0.1,0-0.2
		c-0.2-1.2-0.5-2.4-0.7-3.6c-0.1,0-0.1,0-0.2,0.1c-0.4,0.3-0.4,0.3-0.6,0.4C616.5,144.5,616.4,144.6,616.3,144.6z M612.7,152.2
		c0.2-0.3,0.5-0.4,0.6-0.3C613,152.2,612.8,152.3,612.7,152.2z M614.2,147.8c0.2,0-0.3,0.4-0.3,0.3C614,148,614.1,147.9,614.2,147.8
		z M613.7,151.2c0-0.2,0.5-0.5,0.8-0.7C614.4,150.7,613.9,151,613.7,151.2z M615,150.2c-0.1-0.1,0.4-0.4,0.7-0.6
		C615.7,149.7,615.3,150,615,150.2z"/>
	<path d="M617.6,151.9c-0.5,0.3-1.1,0.8-1.6,1.2c-0.1,0.1-0.3,0.3-0.4,0.4c-0.2,0.1-0.3,0.2-0.5,0.3c-0.4,0.3-0.8,0.7-1.3,1.1
		c-0.1,0.1-0.3,0.2-0.4,0.3c-0.1,0.1-0.2,0.2-0.3,0.3c0,0.2,0.1,0.5,0.1,0.7c0,0,0.1-0.1,0.1-0.1c0.2-0.2,0.1-0.3,0.3-0.4
		c0.2-0.2,0.2,0.1,0.4-0.2c0.1-0.4,0.7-0.5,1.2-0.9c0,0-0.1,0.1,0,0.1c0.4-0.3,0.7-0.7,1-0.9c0.3-0.3,0.3-0.1,0.5-0.3
		c0,0,0.1-0.2,0.3-0.3c0.2-0.1,0.3-0.1,0.5-0.3c0,0,0.4-0.3,0.3-0.3c0.3-0.2,0.5-0.6,0.8-0.8c0,0,0.2-0.1,0.3-0.2
		c0-0.2-0.1-0.4-0.1-0.6c0,0-0.1,0-0.1,0.1c-0.1,0.1-0.2,0.3-0.4,0.4C618.2,151.6,617.9,151.7,617.6,151.9z M613.4,155.5
		c0.2-0.2,0.3-0.2,0.4-0.3C614,155.2,613.4,155.7,613.4,155.5z M617.9,152.2C617.9,152.2,617.9,152.2,617.9,152.2
		c0.1-0.2,0.2-0.2,0.3-0.3C618.2,152,618.1,152.1,617.9,152.2z"/>
	<path d="M617.4,149.4c-0.4,0.4-0.4,0.4-0.9,0.6c-0.2,0.2-0.5,0.4-0.6,0.4c0,0,0-0.1-0.1-0.1c-0.3,0.1-0.7,0.6-0.9,0.8
		c-0.2,0.1-0.4,0.2-0.6,0.3c-0.2,0.1-0.2,0.2-0.3,0.3c-0.4,0.3-1,0.8-1.5,1.1c0.1,0.3,0.1,0.7,0.2,1c0.2-0.2,0.5-0.3,0.6-0.4
		c0.1-0.1,0-0.2,0.3-0.4c0.1,0,0.1,0.1-0.2,0.3c0.5-0.2,1.3-1.2,1.7-1.1c-0.3,0.3-0.7,0.4-1,0.7c-0.2,0.1-0.3,0.3-0.6,0.6
		c0,0-0.1,0-0.1,0c0,0.1-0.4,0.3-0.7,0.6c0,0.2,0.1,0.3,0.1,0.5c0,0,0,0,0.1,0c0,0,0,0.1,0,0.2c0,0.1,0,0.2,0.1,0.3
		c1.2-1,2.7-2.1,3.7-2.9c0.1-0.1,0.2-0.2,0.3-0.3c0.1-0.1,0.1,0,0.1,0c0.1-0.1,0-0.1,0.1-0.1c0.4-0.4,0.6-0.5,0.6-0.7
		c0.2-0.2,0.6-0.5,0.7-0.6c-0.2-0.1-0.2-0.2-0.5-0.2c0.2-0.2,0.4-0.3,0.6-0.4c0-0.1-0.1-0.3-0.1-0.4c-0.1,0.1-0.3,0.2-0.4,0.3
		c-0.1,0,0-0.1,0-0.2c0.1-0.1,0.3-0.2,0.4-0.3c0-0.2-0.1-0.5-0.1-0.7c0,0-0.1,0.1-0.1,0.1C617.9,148.9,617.7,149.1,617.4,149.4z
		 M616.2,150.8c0.2-0.1,0.2-0.3,0.4-0.3c-0.1,0.2-1,1-1.1,0.8C615.7,150.9,616,150.9,616.2,150.8z M615.3,152
		c-0.2,0,0.3-0.4,0.3-0.3C615.5,151.8,615.4,151.9,615.3,152z M615.5,152.2C616,151.6,616,152.2,615.5,152.2L615.5,152.2z
		 M615.6,151.6c0-0.1,0.3-0.4,0.5-0.5C616.4,151.2,615.9,151.5,615.6,151.6z M616.2,151.7c0.3-0.2,0.4-0.3,0.5-0.2
		C616.4,151.7,616.3,151.8,616.2,151.7z M617.5,150.2c-0.1,0.2-0.1,0.2-0.5,0.5c0-0.2,0.2-0.4,0.6-0.7
		C617.6,150,617.5,150.1,617.5,150.2z"/>
	<path d="M615.7,142.2c-0.2,0.1-0.3,0.3-0.4,0.4c-0.6,0.5-1.3,0.9-2,1.5c-0.2,0.1-0.2,0.3-0.4,0.4c-0.1,0.1-0.2,0.1-0.4,0.2
		c-0.1,0.1-0.3,0.3-0.4,0.4c-0.3,0.2-0.5,0.4-0.8,0.7c0,0-0.1,0-0.1,0.1c0.1,0.3,0.1,0.7,0.2,1c0.7-0.6,1.6-1.3,2.4-1.9
		c0.4-0.3,0.7-0.6,1.1-1c0.1-0.1,0.3-0.2,0.4-0.3c0.3-0.2,0.5-0.5,0.8-0.7c0.1-0.1,0.3-0.2,0.4-0.3c0.1-0.1,0.3-0.2,0.4-0.4
		c-0.1-0.3-0.1-0.7-0.2-1c-0.1,0.1-0.2,0.2-0.3,0.3C616.2,141.8,616,142,615.7,142.2z"/>
	<path d="M618.7,153.6c-0.2,0.2-1,0.7-1.4,1c-0.1,0.1-0.1,0.1-0.2,0.2c0,0-0.2,0.1-0.2,0.1c-0.1,0.1-0.2,0.1-0.2,0.2
		c-0.1,0.1-0.3,0.1-0.4,0.2c0,0-0.2,0.2-0.3,0.3c-0.3,0.3-0.8,0.6-1.1,0.8c-0.2,0.2-0.5,0.4-0.7,0.5c-0.1,0.1-0.3,0.2-0.5,0.3
		c0,0-0.1,0.1-0.1,0.1c0,0,0,0,0,0c0,0.2,0.1,0.5,0.1,0.7c0.1,0,0.1-0.1,0.2-0.1c0.1-0.1,0.2-0.1,0.3-0.2c0.2-0.1,0.3-0.3,0.5-0.4
		c0.3-0.1-0.1,0.2,0.1,0.1c0.3-0.3,0.7-0.5,1-0.8c0.2-0.1,0.3-0.3,0.5-0.4c0.3-0.2,0.6-0.3,0.9-0.5c0.2-0.1,0.4-0.4,0.6-0.5
		c0.4-0.3,1.1-0.7,1.7-1.2c0.1,0,0.1-0.1,0.2-0.1c-0.1-0.3-0.1-0.5-0.2-0.8c-0.1,0.1-0.3,0.1-0.4,0.2
		C618.8,153.5,618.8,153.6,618.7,153.6z"/>
	<path d="M616.1,154.4c0,0,0,0.1-0.1,0.2c-0.1,0.1-0.2,0.1-0.4,0.2c-0.3,0.2-0.7,0.6-1,0.8c-0.1,0.1-0.1,0-0.3,0.1
		c-0.3,0.2-0.6,0.6-1,0.7c0,0.2,0.1,0.5,0.1,0.7c0,0,0.1-0.1,0.1-0.1c0,0,0.1-0.1,0.2-0.1c0,0,0,0.1,0.1,0.1
		c0.2-0.1,0.6-0.4,0.7-0.5c0.1-0.1,0.3-0.3,0.4-0.5c0.2-0.2,0.3-0.1,0.5-0.3c0.2-0.1,0.2-0.2,0.3-0.3c0.2-0.1,0.4-0.2,0.5-0.3
		c0.2-0.1,0.6-0.5,0.9-0.7c0.1-0.1,0.2-0.1,0.4-0.2c0.1-0.1,0.3-0.3,0.5-0.4c0.1-0.1,0.2-0.1,0.3-0.1c0.2-0.1,0.5-0.4,0.7-0.5
		c0.1-0.1,0.1-0.2,0.2-0.2c-0.1-0.3-0.1-0.5-0.2-0.8c-0.1,0.1-0.2,0.2-0.3,0.2c-0.1,0.1-0.2,0.3-0.3,0.3c-0.1,0,0.3-0.3,0.2-0.3
		c-0.5,0.4-1.2,0.9-1.6,1.1c-0.1,0.2,0.2,0,0,0.1C616.9,153.9,616.2,154.3,616.1,154.4z"/>
	<path d="M619.9,179.8c-0.4,0.2-0.1,0.3-0.3,0.5c-0.4,0.4-1,0.7-1.3,1.1c0,0.2,0.1,0.5,0.1,0.7c0.4-0.4,0.8-0.7,0.8-1
		c0.3-0.1,0.5,0,0.8-0.2c0.1-0.2-0.1-0.3,0.3-0.5c0.3-0.2,0.5-0.1,1-0.4c0-0.1-0.2-0.1-0.1-0.3c0.3-0.2,0.3-0.4,0.5-0.5
		c0.1-0.1,0.3-0.1,0.4-0.2c0,0,0-0.3,0.2-0.2c0.1,0.1-0.3,0.3-0.1,0.3c0.4-0.4,0.5-0.1,0.9-0.5c-0.2-0.1,0.4-0.5,0.5-0.7
		c0.1,0.1,0.2-0.1,0.2,0c0,0.3-0.6,0.3-0.6,0.6c0.2-0.3,0.5-0.1,0.2,0c-0.3,0.2-0.5,0.2-0.9,0.5c0-0.1-0.3,0-0.3,0.1
		c0.3-0.2,0.5,0,0,0.4c-0.2-0.2-0.5-0.1-0.9,0.1c-0.1,0.5,0.6-0.2,0.7,0.1c-0.4,0.5-0.7,0.3-0.9,0.7c-0.2,0-0.4-0.1-0.7,0.1
		c-0.1,0.1-0.1,0.3-0.2,0.4c-0.3,0.1-1.3,1.1-1.1,0.7c-0.4,0.3-0.2,0.4-0.4,0.6c-0.1,0.1-0.1,0.1-0.2,0.2c0,0,0,0.1,0,0.1
		c0.2-0.1,0.3-0.1,0.4,0c0.4-0.4,1.1-1,1.8-1.5c0-0.1-0.3,0-0.1-0.1c0.3-0.3,0.4,0,0.7-0.1c0.6-0.6,2-1.5,2.2-1.9
		c-0.1,0.1-0.3,0.3-0.4,0.2c0.4-0.4,0.6-0.3,0.9-0.5c0.2-0.1,0.3-0.2,0.4-0.4c-0.1-0.5-0.2-1.1-0.3-1.6c-0.8,0.7-1.6,1.3-2,1.7
		c0.2,0-0.4,0.5-0.5,0.5c0,0,0-0.2,0-0.2c-0.6,0.4-1.7,1.4-0.7,1.1c0.1-0.2,0.5-0.6,0.6-0.8c0.1,0,0.2,0,0.3,0.1
		c-0.7,0.6-0.6,0.5-1.1,0.9C620.4,179.8,620.3,179.7,619.9,179.8z M623.4,177.2c0,0,0.1,0.1,0.1,0.1c-0.4,0.2-0.4,0.1-0.7,0.5
		C622.9,177.7,623.1,177.5,623.4,177.2z"/>
	<path d="M621.7,177.8c-0.3,0.2-0.7,0.4-0.6,0.6C621.3,178.2,621.7,178,621.7,177.8z"/>
	<path d="M619.3,173.2c-0.2,0.2-0.4,0.4-0.6,0.6c-0.2,0.1-0.7,0.6-1,0.8c-0.2,0.2-0.4,0.3-0.6,0.5c0.1,0.5,0.2,0.9,0.3,1.4
		c0.4-0.3,0.8-0.6,1-0.8c1.8-1.3,3-2.3,4.4-3.4c0.1-0.1,0.2-0.1,0.3-0.2c0-0.1,0-0.1,0-0.2c0,0,0,0,0,0c0,0,0,0,0,0
		c-0.1-0.5-0.2-1-0.3-1.6c-0.3,0.3-0.7,0.7-1.1,1C620.9,171.9,620.1,172.5,619.3,173.2z"/>
	<path d="M619.5,177.1c-0.4,0.2-0.6,0.5-1,0.8c-0.2,0.2-0.5,0.4-0.8,0.6c0,0.1,0,0.1,0,0.2c0.1,0,0.1-0.1,0.1,0
		c-0.2,0.4,0,0.4,0.3,0.3c-0.1,0.1-0.3,0.2-0.3,0.3c0,0,0,0.1,0,0.1c0.4-0.4,0.9-0.8,1.1-0.6c0,0.1-0.2,0.3-0.5,0.5
		c0-0.1,0.1-0.2,0.1-0.3c-0.3,0.2-0.4,0.3-0.5,0.5c0,0.1,0.3-0.1,0.4,0c0.1,0,0.1,0.1,0.1,0.1c0.1,0,0.5-0.4,0.5-0.1
		c0.5-0.2,0.4-0.6,0.6-0.6c-0.2,0.3-0.1,0.4-0.1,0.5c-0.4,0.4-0.3,0.1-0.6,0.2c-0.1,0.2,0.2,0.2-0.3,0.5c-0.3-0.1,0.3-0.4,0-0.4
		c-0.5,0.3-0.3,0.4-0.4,0.6c-0.1,0-0.1,0-0.2,0c0,0.1,0,0.2,0.1,0.3c0.2-0.1,0.4-0.2,0.4-0.2c-0.2,0.1-0.3,0.2-0.4,0.3
		c0,0,0,0.1,0,0.1c0.5-0.4,1-0.7,1.3-1c0.2-0.2,0.1-0.2,0.4-0.4c0,0,0.5-0.3,0.3-0.3c-0.2,0-0.4,0.3-0.5,0.1
		c0.1-0.1,0.1-0.1,0.2-0.2c0.3-0.2,0.4,0,0.7-0.3c-0.1-0.2-0.5,0.1-0.7,0.1c0.2-0.3,0.6-0.5,0.9-0.5c0.4,0,0,0,0.2-0.2
		c0.2-0.2,0.6-0.5,0.5-0.1c0.4-0.2,0-0.3,0.3-0.5c0.3-0.2,0.6-0.5,0.8-0.4c0.3,0-0.9,0.8-0.4,0.6c0.7-0.5,1.2-1,1.8-1.4
		c0-0.1,0-0.2,0-0.2c-0.5,0.4-1.1,0.8-1.3,0.5c0.4-0.3,0.7-0.5,0.6-0.2c0.2-0.1,0.4-0.3,0.6-0.5c0-0.1,0-0.1,0-0.2
		c-0.1,0.1-0.3,0.3-0.4,0.4c0.2-0.3,0.1-0.3-0.4,0c0-0.1,0.2-0.3,0.4-0.4c0.1,0,0.2,0.1,0.4-0.1c-0.1-0.3-0.1-0.6-0.2-1
		c-0.1,0-0.1,0-0.2,0.1c0-0.1,0.1-0.1,0.2-0.2c0-0.1,0-0.2-0.1-0.4c-0.4,0.3-0.9,0.6-1.1,1c0.3,0,0.5-0.5,0.6-0.4
		c0.2,0-0.2,0.3-0.4,0.4c0.1,0.1,0,0.2-0.2,0.4c0.1,0.1,0.4,0,0.1,0.3c-0.4,0.3-0.8,0.7-1,0.6c0.7-0.4,1-0.8,0.9-1.1
		c-0.4,0.1-0.8,0.6-1.1,0.9c-0.2,0.2-0.3,0.2-0.5,0.3c-0.2,0.2-0.2,0.4-0.4,0.6c0,0-0.3,0-0.4,0.2c-0.3,0.2-0.2,0.4-0.6,0.6
		C619.2,177.5,619.5,177.1,619.5,177.1z M623.3,174.7c-0.1,0.1-0.1,0.1-0.1,0.1c-0.3,0.2-0.4,0.2-0.5,0.1
		C623,174.7,623.2,174.5,623.3,174.7z M618.7,178.7c0-0.2,0.4-0.4,0.1-0.5c0.6-0.5,0.2,0,0.4,0.2C619,178.6,618.9,178.5,618.7,178.7
		z M619.5,178.9c0-0.1,0.1-0.2,0.1-0.3c0.2-0.1,0.3-0.1,0.4,0C619.7,178.8,619.6,178.8,619.5,178.9z M621.8,176.2
		c0.1,0.1-0.1,0.3,0.2,0.4c-0.1,0.1-0.2,0.2-0.3,0.3C621.6,176.6,621.4,176.5,621.8,176.2z M621.2,175.8c-0.3,0.5-0.1,0.4-0.3,0.8
		C620.4,176.9,620.8,176.1,621.2,175.8z M620,177.7c0.4-0.4,0.5-0.2,0.9-0.3c0,0.1-0.2,0.2-0.1,0.3c0.1,0,0.3-0.1,0.4,0
		c0.6-0.4,0.8-0.8,1.2-1c-0.3,0.4-0.8,0.8-1.4,1.2c-0.1-0.2-0.4-0.1-0.7,0.1c-0.2,0.2,0.2,0.2,0.3,0.1c0.1,0,0.3-0.2,0.3-0.1
		c-0.6,0.4-0.9,0.4-1.2,0.2C619.8,178,619.8,177.8,620,177.7z M619.6,177.4c0.1,0.1,0,0.2,0.1,0.3c-0.3,0.3-0.5,0.2-0.6,0
		C619.2,177.6,619.4,177.5,619.6,177.4z"/>
	<path d="M633.6,232.9C633.7,232.9,633.6,232.9,633.6,232.9c-0.1,0-0.1,0.1-0.1,0.1c0,0-0.1,0.1-0.2,0.1c-0.1,0.1-0.2,0.2-0.4,0.3
		c-1.1,1-1.9,2-3,2.9c-0.3,0.2-0.6,0.4-0.8,0.6c-0.3,0.2-0.4,0.5-0.7,0.7c0,0,0,0,0,0c0.2,1.2,0.4,2.5,0.6,3.7c1-1,2-2,3.1-3
		c0.5-0.5,1.1-1,1.7-1.4c0.3-0.2,0.7-0.6,1.1-0.8c-0.2-1.3-0.4-2.6-0.7-3.9c-0.2,0.2-0.3,0.4-0.4,0.5
		C633.8,232.8,633.7,232.9,633.6,232.9z"/>
	<path d="M629.2,233.5c-0.2,0.1-0.2,0.4-0.4,0.5c-0.1,0.1-0.4,0.2-0.5,0.4c-0.1,0.1-0.2,0.1-0.3,0.2c0.1,0.5,0.2,1.1,0.3,1.6
		c0.3-0.2,0.6-0.3,0.8-0.5c0.2-0.1,0.3-0.4,0.4-0.5c0.1-0.1,0.2-0.1,0.2-0.1c0.7-0.7,1.4-1.3,2.1-1.9c0.5-0.4,1-0.8,1.5-1.2
		c0.3-0.2,0.5-0.5,0.8-0.7c-0.1-0.5-0.2-1-0.3-1.6c-0.4,0.3-0.8,0.7-1.2,1c-0.8,0.6-1.6,1.3-2.5,2.1c-0.2,0.2-0.3,0.3-0.4,0.4
		C629.5,233.3,629.3,233.4,629.2,233.5z"/>
	<path d="M635.2,237.8c-0.1,0.1-0.2,0.1-0.2,0.2c-0.1,0.1-0.1,0.1-0.1,0.2c-0.1,0.1-0.2,0.1-0.3,0.1c-0.2,0.1-0.3,0.2-0.5,0.4
		c-0.4,0.5-1.5,1.1-2,1.6c-0.1,0.1-0.1,0.1-0.2,0.2c-0.2,0.1-0.3,0.3-0.4,0.5c-0.3,0.3-0.8,0.5-1.1,0.8c-0.2,0.2-0.3,0.4-0.5,0.6
		c-0.2,0.2-0.4,0.3-0.6,0.4c0.1,0.6,0.2,1.2,0.3,1.8c0.4-0.5,0.7-0.8,1.1-1.2c0.7-0.6,1.3-1.2,2-1.7c0.9-0.7,1.8-1.5,2.7-2.3
		C635.4,238.8,635.3,238.3,635.2,237.8z"/>
	<path d="M635.8,278.9c0.3-0.2,0.6-0.4,0.9-0.6c0.3-0.2,0.6-0.5,0.9-0.7c0.7-0.6,1.3-1.1,1.7-1.5c0.3-0.3,0.5-0.5,0.8-0.8
		c0.2-0.2,0.4-0.3,0.7-0.5c0-0.2-0.1-0.4-0.1-0.7c-0.3,0.3-0.7,0.5-1,0.8c-0.3,0.3-0.5,0.5-0.8,0.8c-1.3,1.1-2.7,2.2-3.8,3.1
		c-0.1,0.1-0.3,0.2-0.4,0.4c0,0.2,0.1,0.5,0.1,0.7c0.1-0.1,0.2-0.2,0.3-0.2C635.3,279.3,635.5,279.1,635.8,278.9z"/>
	<path d="M637.4,274.5c0.2-0.2,0.4-0.3,0.4-0.4c0.1-0.1,0.3-0.2,0.4-0.4c0.5-0.5,1.1-0.9,1.5-1.3c0.1-0.1,0.1-0.2,0.2-0.3
		c0.1-0.1,0.3-0.2,0.4-0.4c0-0.1,0-0.2,0-0.3c-0.2,0.1-0.4,0.3-0.6,0.3c-0.2,0.4-0.7,0.7-1.3,1.1c-0.2,0.1-0.4,0.3-0.6,0.5
		c-0.2,0.2-0.5,0.4-0.8,0.6c-0.2,0.2-0.4,0.4-0.6,0.6c-0.7,0.6-1.3,1-1.7,1.5c-0.2,0.1-0.4,0.3-0.5,0.4c0,0.2,0,0.4,0.1,0.5
		c0.6-0.5,1.3-1,1.9-1.5C636.6,275.2,637,274.8,637.4,274.5z"/>
	<path d="M636.3,281.7c0.2-0.2,0.5-0.4,0.7-0.5c0.1-0.1,0-0.1,0.2-0.2c0.2-0.2,0.1,0.2,0.3-0.1c0.7-0.7,1.8-1.4,2.5-2.1
		c0.3-0.2,0.8-0.5,1-0.8c-0.2,0.1-0.4,0.4-0.4,0.2c0.2-0.1,0.4-0.3,0.5-0.4c0-0.1,0-0.1,0-0.2c-0.1,0.1-0.3,0.2-0.4,0.3
		c-0.2,0.1-0.3,0.1-0.4,0.1c-0.4,0.4-1.1,0.8-1.3,1.2c-0.2,0.1-0.2,0-0.5,0.2c-0.2,0.1-0.4,0.3-0.4,0.4c-0.3,0.1-0.6,0.4-0.8,0.6
		c-0.4,0.3-0.8,0.7-1.2,0.9c0,0,0,0-0.1,0c-0.1,0.1-0.2,0.2-0.3,0.3c-0.1,0.1-0.2,0.2-0.3,0.3c-0.1,0.1-0.2,0.2-0.3,0.2
		c0,0.1,0,0.3,0,0.4c0.3-0.2,0.6-0.4,1-0.7C636.1,281.9,636.2,281.8,636.3,281.7z M638.8,279.6c0,0.1-0.5,0.5-0.6,0.5
		C638.1,279.9,638.7,279.7,638.8,279.6z"/>
	<path d="M416.4,146.3c0.1,0.2-0.2,0.4-0.3,0.6c-0.1,0.1-0.1,0.4,0.1,0.2c0,0.1-0.1,0.3,0,0.4c-0.1,0.4,0.5,0.3,0.6,0.6
		c0,0.4,0.2,0.5,0.4,0.7c0.2,0.2,0.1,0.2,0.3,0.3c0.2-1.3,0.5-2.6,0.7-3.9C417.6,145.6,416.9,145.9,416.4,146.3z"/>
	<path d="M414.1,145.2c-0.1,0.3-0.7,0.4-0.8,0.7c-0.2,0.3-0.2,0.6-0.3,0.9c0.3,0,0.2,0.3,0.5,0.2c0.1,0.2,0.4,0.2,0.6,0.4
		c0.6-0.4,1-0.3,1.6-0.8c0-0.5,0.6-0.5,0.9-0.7c0.2-0.1,0.3-0.3,0.5-0.4c0.5-0.4,0.9-0.8,1.4-1.2c0.2-0.9,0.3-1.8,0.5-2.7
		c-1.5,1.2-2.9,2.3-4,3.4C414.5,145.3,414.3,145.1,414.1,145.2z"/>
	<path d="M608.8,108c-0.2,0.1-0.2,0.2-0.4,0.4c-0.3,0.2-0.7,0.5-0.9,0.7c-0.2,0.1-0.1,0.2-0.2,0.3c-0.1,0.1-0.3,0.2-0.5,0.3
		c-0.1,0.1-0.2,0.2-0.3,0.3c-0.8,0.6-1,1.1-1.5,1.5c-0.2,0.1-0.3,0.3-0.5,0.4c0.1,0.6,0.2,1.2,0.4,1.8c0.9-0.7,1.8-1.5,2.7-2.2
		c0.6-0.5,1.2-1.1,1.8-1.6c0.3-0.2,0.6-0.5,0.9-0.7c-0.1-0.6-0.3-1.3-0.4-1.9c-0.2,0.1-0.3,0.3-0.5,0.4
		C609.1,107.9,608.9,107.9,608.8,108z"/>
	<path d="M607,101.1c-0.3,0.3-0.7,0.5-1.1,0.7c-0.2,0.3-0.4,0.5-0.8,0.7c-0.2,0.3-0.4,0.5-0.8,0.7c-0.5,0.3-1,0.8-1.4,1.2
		c0.1,0.5,0.2,1,0.3,1.6c1.8-1.4,3.6-2.8,5.3-4.2c-0.1-0.6-0.3-1.2-0.4-1.7C607.8,100.4,607.4,100.8,607,101.1z"/>
	<path d="M606.9,105.5c-0.6,0.5-1.3,0.7-1.7,1.4c-0.2,0.1-0.4,0.2-0.7,0.4c-0.1,0.1-0.2,0.3-0.3,0.3c-0.2,0.1-0.2,0.1-0.4,0.2
		c-0.1,0.1-0.2,0.2-0.3,0.2c0.1,0.6,0.2,1.1,0.3,1.7c0.1,0.5,0.2,1,0.3,1.6c1.4-1.1,2.7-2.3,4.1-3.4c0.2-0.2,0.4-0.3,0.6-0.4
		c0.2-0.2,0.3-0.4,0.5-0.5c0.1-0.1,0.1-0.1,0.2-0.1c-0.2-1-0.4-2-0.6-3c-0.2,0.2-0.3,0.3-0.4,0.4c-0.1,0.1-0.1,0-0.2,0.1
		C607.9,104.6,607.4,105.1,606.9,105.5z"/>
	<path d="M403.9,226.7c0,0,0.1-0.1,0.2-0.1c0,0,0-0.1,0-0.1C404,226.5,403.9,226.5,403.9,226.7z"/>
	<path d="M402.7,227.7c-0.2,0.2-0.5,0.5-0.7,0.6c-0.1,0.1-0.2,0-0.1,0.2c0.3-0.2,0.5-0.4,0.7-0.5
		C402.6,227.9,402.9,227.9,402.7,227.7z"/>
	<path d="M397.2,232.1c-0.2,0-0.1,0.1-0.2,0.3c0.1,0.2,0.2,0.1,0.3,0.3c0,0,0,0.1,0,0.1c-0.2,0.1-0.3,0.2-0.5,0.3
		c-0.1,0.6-0.2,1.1-0.3,1.7c0.1,0.1,0.2,0.1,0.3,0.3c-0.1,0.1-0.1,0.1-0.2,0.2c-0.1,0-0.1,0-0.2,0c-0.1,0.5-0.1,1-0.2,1.4
		c0,0,0,0,0,0.1c0,0,0.1-0.1,0.2,0c0,0,0,0.1,0,0.1c0.2,0.2,0.5,0.1,0.6,0.4c0.1,0,0.2,0,0.3,0.2c0.2,0,0.5,0.3,0.7,0.2
		c0.1,0.1,0.2,0.1,0.4,0.3c0.2-0.1,0.4-0.1,0.5-0.3c0-0.1,0-0.2,0-0.2c0.1-0.2,0.4-0.3,0.4-0.5c0.2,0,0.1-0.1,0.2-0.2
		c0.1-0.1,0.3-0.2,0.3-0.2c0,0,0-0.2,0-0.1c0.2,0,0.4,0.3,0.5,0.5c0.1,0,0-0.2,0.2-0.1c-0.1,0.1,0.2,0.2,0,0.3
		c0.1,0.1,0.2,0.1,0.3,0.3c0-0.1,0.2-0.2,0.3-0.3c0.1-0.1,0.1-0.2,0.1-0.3c0.1-0.2,0.3-0.3,0.4-0.3c0.1-0.1,0.3-0.2,0.3-0.3
		c0,0,0-0.1,0-0.1c0,0,0.2,0,0.2-0.1c0.1-0.1,0.1-0.2,0.2-0.2c-0.2-0.2,0.1-0.3,0.2-0.3c0-0.1,0.1-0.2,0.2-0.3
		c0.4-2.6,0.8-5.3,1.3-8c-0.3,0.2-0.6,0.5-0.7,0.9c-0.1,0-0.1,0-0.2,0c0,0.2-0.1,0.3-0.3,0.4c0,0.1,0,0.2-0.1,0.3
		c-0.1-0.1,0-0.2-0.1-0.2c0.1,0.1,0,0.2,0,0.3c0,0-0.1-0.1-0.1-0.1c-0.1,0.1-0.2,0.4-0.4,0.3c0,0.1,0.1,0.1,0.1,0.2
		c-0.2,0.1-0.3,0.3-0.5,0.4c0,0-0.1-0.1-0.1-0.1c-0.1,0-0.1,0.1-0.2,0.1c-0.1-0.1,0-0.1,0-0.1c-0.2,0-0.1,0.2-0.1,0.3
		c-0.1-0.1-0.2-0.1-0.2-0.1c-0.1,0,0,0.1-0.1,0.2c0,0-0.2,0-0.3,0c-0.1,0.1,0,0.1-0.1,0.2c0,0-0.1,0-0.1,0c0-0.1-0.1-0.1-0.1-0.1
		c-0.1,0.4-0.8,0.6-1.1,0.9c-0.1,0.1-0.4,0.2-0.5,0.4c0.1,0.1-0.1,0.3-0.1,0.1c0,0.2-0.3,0.2-0.5,0.3c0.1,0.1,0.1,0.2,0,0.3
		c0,0-0.1,0-0.1-0.1c-0.1-0.1,0.1-0.1,0-0.1c-0.2,0-0.1,0.2-0.1,0.3c-0.3-0.2-0.5,0.2-0.7,0.3c0,0,0,0,0,0c0,0,0,0.1,0,0.1
		C397.1,232.1,397.1,232,397.2,232.1z M396.9,233.3c0.1-0.1,0.2-0.1,0.3,0C397.1,233.3,397,233.4,396.9,233.3z M403.3,230.2
		C403.3,230.2,403.3,230.2,403.3,230.2c-0.1,0-0.2-0.1-0.3-0.1C403.1,230,403.2,230.1,403.3,230.2z M401.8,235.5
		c-0.2-0.2-0.1-0.2-0.1-0.4C401.9,235.1,402,235.4,401.8,235.5z M401.6,235.6c0,0,0.1-0.2,0.2,0c-0.3-0.1-0.1,0.2-0.1,0.3
		C401.5,235.8,401.5,235.6,401.6,235.6z M401.5,236c0.1,0,0.1,0,0.2,0.1c-0.1,0-0.2-0.1-0.3,0c-0.1-0.1-0.1-0.2,0-0.2
		c-0.1,0-0.1-0.1-0.2-0.1C401.3,235.7,401.4,235.9,401.5,236z M400.8,236.5c0,0-0.1,0-0.2,0c-0.1-0.1-0.2-0.2-0.2-0.2
		C400.6,236.2,400.7,236.4,400.8,236.5z M400.1,230.3c-0.1,0.1-0.2-0.1-0.3,0C399.7,230.2,400,230.2,400.1,230.3z M397.6,231.8
		c0.1,0.1-0.2,0.1,0,0.2c0,0-0.1,0-0.1-0.1c-0.1,0,0.1,0.2-0.1,0.1C397.3,231.9,397.6,231.9,397.6,231.8z"/>
	<path d="M403.4,209.4c-0.1,0.1-0.2,0.2-0.4,0.2c-0.3,0.2-0.7,0.4-1,0.7c0.1-0.1,0.2-0.1,0.2-0.1c-0.1,0.1-0.3,0.2-0.5,0.4
		c0,0,0.3-0.1,0.3,0c-0.1,0.1-0.2,0.2-0.3,0.2c-0.1,0.1-0.1,0.1-0.2,0.2c0,0.1,0.1-0.1,0.3-0.1c0.1-0.1,0.1-0.1,0.1-0.1
		c0,0-0.1,0.1-0.1,0.1c-0.2,0.2-0.5,0.4-0.7,0.6c0,0.1,0.2-0.1-0.3,0.3c0,0,0.4-0.2,0.2-0.1c-0.4,0.3-0.4,0.3-0.6,0.5
		c-0.1,0-0.1,0.1-0.2,0.1c-0.1,0.6-0.2,1.2-0.3,1.8c0,0,0.1,0,0.1-0.1c0.1-0.1,0.2-0.1,0.3-0.1c0,0,0.1,0,0.1,0
		c0.1,0,0.3-0.2,0.4-0.2c0,0-0.1,0.1-0.1,0.1c0,0,0.1,0,0.1-0.1c0.1-0.1,0.2-0.1,0.2-0.2c0,0-0.1,0.1-0.1,0.1c0,0,0.2-0.2,0.3-0.2
		c0.1,0,0.1-0.1,0.2-0.1c0,0,0.1,0,0.1,0c0.1-0.1,0.3-0.2,0.3-0.3c0.1-0.1,0.1,0,0.3-0.2c0.1-0.1,0.2-0.2,0.3-0.3
		c0,0,0.1-0.1,0.2-0.1c0.1-0.1,0.3-0.2,0.4-0.3c0.1-0.1,0.1-0.1,0.2-0.1c0,0,0.1-0.1,0.2-0.1c0,0,0-0.1,0.1-0.1
		c0.1-0.1,0.3-0.2,0.3-0.3c0.1-0.1,0-0.1,0.2-0.2c0.3-0.3,0.1-0.1,0.2-0.2c0,0,0.2-0.1,0.2-0.1c0,0-0.1,0-0.1,0
		c0.1-0.1,0.2-0.2,0.3-0.3c0.1-0.1,0.1-0.1,0.2-0.2c0,0-0.2,0.1-0.1-0.1c0.2-0.1,0.6-0.4,0.7-0.5c0,0,0.1,0,0.1,0
		c0,0,0.1-0.1,0.1-0.1c0.1-0.1,0.1-0.1,0.2-0.1c0.1-0.1,0.1-0.1,0.3-0.2c0.2-0.1,0.5-0.4,0.7-0.5c0,0,0.1-0.1,0.1-0.2c0,0,0,0,0,0
		c0.1-0.8,0.3-1.7,0.4-2.5c-0.6,0.5-1.5,1.1-2,1.5c-0.1,0.1-0.2,0.1-0.4,0.2c-0.2,0.1-0.2,0.1-0.3,0.3c-0.2,0.1-0.4,0.3-0.5,0.4
		c0,0-0.1,0-0.1,0C403.8,209,403.5,209.3,403.4,209.4z"/>
	<path d="M142.9,127.2c-0.7-0.5-1.4-1-2-1.4c-0.9-0.6-1.7-1.2-2.5-1.9c-0.1,0.6-0.3,1.3-0.4,2c0.1,0,0.2,0.1,0.2,0.2
		c0.2,0.2,0.3,0.4,0.5,0.5c0.8,0.6,1.6,1.3,2.6,1.9c0.5,0.3,1.1,0.9,1.7,1.4c0.1-0.7,0.3-1.4,0.4-2.1c-0.2-0.1-0.3-0.2-0.5-0.3
		C142.9,127.3,142.9,127.2,142.9,127.2z"/>
	<path d="M140.4,124.7c0.1,0.1,0.4,0.3,0.5,0.3c0,0,0.2,0,0.2,0c0.1,0.1,0.1,0.2,0.2,0.3c0.3,0.3,0.6,0.5,0.8,0.7
		c0.2,0.2,0.5,0.3,0.5,0.5c0.2,0.1,0.5,0.3,0.8,0.5c0.1-0.5,0.2-0.9,0.3-1.4c0,0-0.1,0-0.1-0.1c-0.1-0.1-0.1-0.2-0.2-0.2
		c-0.1-0.1-0.2-0.1-0.3-0.2c-0.1-0.1-0.1-0.2-0.2-0.2c-0.3-0.2-0.6-0.3-0.7-0.7c-0.4-0.1-0.7-0.4-1-0.6c-0.2-0.1-0.1-0.1-0.2-0.2
		c-0.4-0.3-0.9-0.6-1.3-0.9c-0.2-0.1-0.2-0.3-0.4-0.4c-0.1-0.1-0.3-0.1-0.5-0.2c0,0,0,0,0,0c-0.1,0.5-0.2,1-0.3,1.5
		C139.1,123.8,139.8,124.2,140.4,124.7z"/>
	<path d="M140.5,121.3c0.5,0.4,1.3,1,2,1.2c0.3,0.5,0.9,0.7,1.4,1c0.1,0.1,0.2,0.1,0.2,0.2c0.1-0.5,0.2-0.9,0.3-1.4
		c-0.1-0.1-0.2-0.2-0.4-0.2c-0.9-0.6-1.9-1.2-2.7-1.8c-0.5-0.3-1-0.6-1.4-0.9c-0.2-0.2-0.4-0.3-0.6-0.5c-0.1,0.5-0.2,1-0.3,1.5
		C139.5,120.8,140,121.1,140.5,121.3z"/>
	<path d="M137.7,129.3c0.6,0.3,0.8,0.8,1.3,0.9c0.3,0.5,0.8,0.7,1.2,1c0.2,0.2,0.4,0.4,0.6,0.6c0.5,0.4,1.2,0.9,1.6,1.1
		c0.1-0.3,0.1-0.6,0.2-0.9c0,0-0.1-0.1-0.1-0.1c-0.6-0.4-1.3-0.9-1.7-1.4c0-0.1-0.2-0.3-0.2-0.3c-0.2-0.2-0.6-0.3-0.7-0.4
		c-0.1,0,0-0.1,0-0.1c-0.4-0.3-0.9-0.6-1.2-0.9c-0.1-0.1-0.2-0.2-0.3-0.4c-0.1-0.1-0.2-0.2-0.3-0.3c-0.1-0.1-0.2-0.2-0.3-0.2
		c-0.1,0.3-0.1,0.6-0.2,0.9C137.5,129,137.7,129.1,137.7,129.3z"/>
	<path d="M144.6,98.1c0.6,0.5,1.2,1.1,1.8,1.5c0.3,0.3,0.8,0.6,1.1,0.8c0.3,0.3,0.7,0.6,1,0.9c0.1-0.5,0.2-1,0.3-1.4
		c-0.1-0.1-0.2-0.3-0.3-0.4c-0.1-0.1-0.4-0.3-0.5-0.4c-0.3-0.3-0.5-0.5-0.8-0.8c-1.1-0.1-2-0.2-2.7-0.3
		C144.5,98,144.6,98,144.6,98.1z"/>
	<path d="M352.6,211.5C352.6,211.5,352.6,211.5,352.6,211.5C352.6,211.5,352.6,211.4,352.6,211.5
		C352.6,211.4,352.6,211.4,352.6,211.5z"/>
	<path d="M344.7,199.7c0.2,0.8,0.3,1.7,0.5,2.5c0.9,0.7,1.8,1.3,2.7,1.9c0.3,0.2,0.6,0.4,0.9,0.6c0.3,0.2,0.6,0.3,0.9,0.5
		c0.2,0.1,0.8,0.5,0.8,0.5c0,0,0.1,0.1,0.2,0.2c0.1,0.1,0.4,0.1,0.5,0.2c0.1,0.1,0.1,0.1,0.1,0.2c0.1,0.1,0.2,0.1,0.3,0.2
		c0.1,0.1,0.2,0.2,0.4,0.3c-0.1-0.8-0.3-1.5-0.4-2.3c-0.7-0.5-1.3-1.1-2-1.6c-0.2-0.2-0.5-0.3-0.7-0.4c-0.3-0.2-0.5-0.4-0.8-0.6
		c-0.5-0.4-1-0.7-1.5-1.1C345.7,200.4,345.2,200,344.7,199.7z"/>
	<path d="M349.9,213.7C349.9,213.7,350,213.7,349.9,213.7C350,213.7,350,213.7,349.9,213.7C350,213.7,349.9,213.7,349.9,213.7z"/>
	<path d="M395.5,247.7c-0.2-0.2-0.6-0.4-0.8-0.6c-0.1,0.6-0.2,1.1-0.3,1.7c0.1,0.1,0.3,0.2,0.4,0.3c0.4,0.3,0.7,0.5,1.1,0.8
		c1.4,1.1,2.6,2.3,4,3.4c0.1-0.5,0.1-1,0.2-1.5c-1-0.9-2-1.7-3-2.6C396.6,248.8,396.1,248.2,395.5,247.7z"/>
	<path d="M350.6,213.2c-0.1,0.1-0.1,0.1-0.1,0.3C350.8,213.5,350.6,213.3,350.6,213.2z"/>
	<path d="M353.4,216c-0.1-0.2-0.2,0-0.2,0C353.4,216.2,353.4,216.1,353.4,216z"/>
	<path d="M350.3,213.2c-0.1-0.2-0.2-0.1-0.3,0C350.1,213.4,350.2,213.3,350.3,213.2z"/>
	<path d="M395.7,240.6c0.1,0.1,0.3,0.2,0.4,0.3c0.2,0.1,0.3,0.1,0.5,0.3c0.2,0.1,0.2,0.3,0.4,0.5c0.3,0.4,0.6,0.6,1,0.8
		c0.3,0.2,0.6,0.4,0.9,0.7c0.8,0.6,1.6,1.4,2.4,2.1c0.1-0.6,0.2-1.1,0.3-1.7c-1.8-1.5-3.7-3-5.5-4.5
		C395.8,239.6,395.7,240.1,395.7,240.6z"/>
	<path d="M350.7,210.1c0.1,0.1,0,0.1,0.1,0.2c0,0,0.2,0.1,0.3,0.2c0.4,0.3,0.8,0.6,1.2,0.9c0,0,0,0,0,0c0,0,0,0,0,0
		c0,0,0.1,0.1,0.1,0.1c0,0,0-0.1,0.1-0.1c-0.2-1.2-0.4-2.4-0.7-3.7c-0.7-0.5-1.5-1-2.3-1.5c-0.5-0.3-0.9-0.7-1.3-1
		c-0.1-0.1-0.3-0.1-0.3-0.2c-0.2-0.1-0.2-0.2-0.3-0.3c-0.1-0.1-0.5-0.4-0.6-0.5c-0.7-0.5-1.3-1-2-1.5c0.3,1.4,0.5,2.7,0.8,4.1
		c0.1,0.1,0.2,0.2,0.3,0.2C347.7,208,349.2,209,350.7,210.1z"/>
	<path d="M350.1,213.8c0.1,0,0.1-0.1,0.1-0.2C350.1,213.6,350,213.6,350.1,213.8z"/>
	<path d="M349.7,213.3c0.1,0.1-0.1,0.1,0,0.2c0,0,0,0,0.1,0c0.2,0,0.3-0.2,0.2-0.4c0.1,0,0.2-0.2,0.4,0c0.2,0,0-0.2,0.1-0.2
		c0.1,0,0,0.1,0,0.1c0.2,0.1,0.4,0.1,0.4,0.3c0.1,0,0.2,0,0.2-0.1c-0.1-0.1-0.2,0-0.2,0c0-0.1-0.3-0.2-0.2-0.3
		c0.1-0.1,0,0.1,0.2,0.2c0.1-0.1,0-0.2,0.2-0.1c0.1-0.1-0.1-0.1-0.2-0.2c0.1,0,0.2-0.1,0.3-0.1c0.1,0,0.1,0.2,0.3,0.2c0,0,0,0,0,0
		c-0.4-0.3-1-0.7-1.2-0.9c-0.1-0.1-0.1-0.1-0.2-0.2c-0.4-0.3-1.2-0.8-1.6-1.1c-0.1-0.1-0.1-0.1-0.2-0.2c-0.5-0.4-1.2-0.9-1.8-1.3
		c0.1,0.8,0.3,1.6,0.4,2.4c0.9,0.7,1.9,1.3,2.8,2C349.6,213.4,349.7,213.3,349.7,213.3z M350.8,212.8c-0.1,0.1-0.1,0.1-0.3,0
		C350.6,212.7,350.6,212.6,350.8,212.8z"/>
	<path d="M397.6,244.1c-0.8-0.6-1.5-1.2-2.2-1.8c-0.2,1.1-0.3,2.3-0.5,3.4c0.4,0.3,0.9,0.7,1.3,1c0.5,0.4,1,0.9,1.6,1.3
		c0.6,0.4,1.2,0.8,1.7,1.2c0.2,0.2,0.6,0.5,1,0.8c0.2-1.1,0.3-2.3,0.5-3.5c-0.8-0.6-1.6-1.2-2.4-1.8
		C398.3,244.6,397.9,244.4,397.6,244.1z"/>
	<path d="M345.7,177.3c-0.1,0,0-0.1-0.1-0.2c0,0-0.1,0-0.1-0.1c-0.2-0.2-0.5-0.2-0.7-0.3c-0.2-0.1-0.4-0.3-0.6-0.5
		c-0.3-0.2-0.6-0.5-0.7-0.7c-0.1-0.3-0.5-0.4-0.8-0.6c-0.2-0.1-0.3-0.3-0.4-0.4c0-0.1-0.2,0-0.2-0.1c-0.1-0.1-0.2-0.2-0.3-0.2
		c-0.1-0.1-0.3-0.1-0.3-0.3c-0.1-0.1-0.3,0-0.4-0.1c0-0.2-0.3-0.2-0.4-0.3c0,0,0-0.1-0.1-0.2c-0.2-0.1-0.4-0.2-0.5-0.3
		c0,0,0-0.1-0.1-0.2c-0.1-0.1-0.3-0.2-0.4-0.3c0.2,0.8,0.3,1.6,0.5,2.4c0.1,0,0.1,0.1,0.2,0.1c0.5,0.4,0.9,0.8,1.4,1.1
		c0.2,0.1,0.4,0.2,0.5,0.3c0.7,0.5,1.3,1.1,1.9,1.5c0.2,0.2,0.5,0.3,0.7,0.4c0.2,0.2,0.4,0.4,0.6,0.6c0.2,0.2,0.5,0.3,0.7,0.5
		c0.3,0.2,0.5,0.4,0.8,0.5c-0.2-0.9-0.3-1.7-0.5-2.6c0,0-0.1,0-0.1,0c-0.1-0.1-0.1-0.2-0.2-0.3C345.9,177.3,345.8,177.3,345.7,177.3
		z"/>
	<path d="M341.8,168.6c0,0-0.1-0.1-0.1-0.1c-0.1-0.1-0.2-0.1-0.3-0.2c-0.8-0.6-1.7-1.1-2.4-1.7c-0.2-0.2-0.3-0.3-0.5-0.5
		c-0.1-0.1-0.2-0.1-0.3-0.2c0.3,1.6,0.6,3.2,0.9,4.8c0.2,0.2,0.4,0.4,0.6,0.5c0.3,0.3,0.7,0.6,1,0.9c0.4,0.4,0.6,0.8,1.1,1.2
		c0.2,0.1,0.3,0.2,0.4,0.3c0.2,0.2,0.4,0.3,0.6,0.4c0.1,0.1,0.1,0.2,0.2,0.2c0.6,0.5,1.2,1,1.8,1.5c0.4,0.3,0.9,0.7,1.3,1
		c-0.3-1.8-0.7-3.6-1-5.3c-0.1-0.1-0.3-0.3-0.4-0.4c-0.1-0.1,0-0.2-0.1-0.2c-0.1-0.1-0.2-0.1-0.3-0.2c-0.1-0.1-0.1-0.2-0.2-0.3
		c-0.5-0.5-1.1-0.9-1.5-1.3c0,0-0.1-0.1-0.2-0.1c-0.2-0.1-0.4-0.2-0.5-0.2C341.9,168.8,341.9,168.7,341.8,168.6c0.1,0.1,0.1,0,0.1,0
		C341.8,168.6,341.8,168.6,341.8,168.6z M343.3,172.6c0,0,0.2,0.1,0.1,0.2c-0.8-0.8-1.8-1.7-2.7-2.5c-0.1-0.1-0.2-0.2-0.3-0.3
		c0.6,0.4,1.2,0.9,1.7,1.4C342.6,171.8,343,172.2,343.3,172.6z"/>
	<path d="M338.2,162.2c-0.2,0-0.3-0.2-0.4-0.2c-0.1-0.1-0.2-0.2-0.4-0.3c0.1,0.6,0.2,1.2,0.4,1.8c0.1,0.1,0.2,0.2,0.2,0.3
		c0.4,0.5,0.9,1,1.3,1.4c0.2,0.2,0.3,0.5,0.5,0.6c0.1,0.1,0.4,0.2,0.4,0.2c0.1,0,0,0.1,0.1,0.2c0.5,0.4,1,0.8,1.5,1.2
		c0.3,0.3,0.6,0.6,0.9,0.8c0,0,0,0,0.1,0.1c0.6,0.5,1.3,1.1,1.9,1.6c-0.1-0.7-0.3-1.4-0.4-2.1c0,0,0,0,0,0c-0.1-0.1-0.1-0.1-0.2-0.1
		c-0.5-0.5-1.1-0.9-1.7-1.5c-0.1-0.1-0.3-0.1-0.4-0.2c-0.1-0.1-0.1-0.3-0.2-0.3c-0.1-0.1-0.3-0.1-0.4-0.2c-0.1-0.1-0.2-0.2-0.3-0.3
		c-0.1-0.1-0.2-0.3-0.3-0.4c-0.1-0.1-0.3-0.1-0.4-0.2c-0.5-0.5-0.9-1-1.5-1.4c0.1-0.1-0.1-0.1-0.1-0.2c-0.1-0.1-0.2-0.2-0.3-0.3
		C338.5,162.4,338.4,162.3,338.2,162.2C338.2,162.2,338.2,162.2,338.2,162.2z"/>
	<path d="M330.9,115.5c-0.1-0.1-0.3-0.3-0.4-0.2C330.6,115.4,330.8,115.6,330.9,115.5z"/>
	<path d="M330,115.5c0,0,0.1,0,0.2,0.1c0,0,0.1-0.1,0.1-0.1c-0.1-0.1-0.2-0.1-0.2-0.2C330,115.4,329.9,115.4,330,115.5z"/>
	<path d="M329,113.9c0,0.1-0.1,0.1-0.1,0.2C328.9,114.1,329,114,329,113.9C329,114,329,114,329,113.9z"/>
	<path d="M327.8,113.4c0.1,0.1,0.1,0,0.3,0.1c0.2,0.2,0.4,0.3,0.6,0.5c0,0,0.1-0.1,0.1-0.1c0,0,0,0,0.1-0.1
		c-0.2-0.2-0.3-0.3-0.3-0.4c-0.1-0.1-0.1-0.1-0.2-0.1c0,0-0.2-0.1-0.2-0.2c-0.1-0.1-0.3-0.2-0.4-0.3c0,0-0.1,0.1-0.1,0.1
		C327.7,113.1,327.7,113.2,327.8,113.4z"/>
	<path d="M330.6,120.4c-0.5-0.4-1.2-0.7-1.5-1.1c-0.1,0-0.1-0.1-0.2-0.1c0.1,0.3,0.1,0.6,0.2,0.8c0,0,0.1,0,0.1,0.1
		c0.2,0.1,0.3,0.3,0.5,0.4c0.3,0.2,0.6,0.4,0.9,0.7c0.3,0.2,0.5,0.5,0.8,0.8c0.3,0.2,0.7,0.5,1,0.8c0.8,0.6,1.5,1.1,2,1.5
		c0.4,0.3,0.7,0.5,1,0.7c0.1,0,0.1,0.1,0.2,0.2c-0.1-0.3-0.1-0.5-0.2-0.8c-0.2-0.2-0.4-0.3-0.7-0.5
		C333.4,122.7,331.9,121.3,330.6,120.4z"/>
	<path d="M328.4,116.3c0,0.1,0,0.2,0.1,0.3c0.6,0.4,1.1,0.8,1.6,1c0.1,0.1,0.3,0.2,0.4,0.3c0.6,0.5,1.2,1,1.6,1.3
		c0.1,0.1,0.3,0.2,0.4,0.3c0.8,0.6,1.5,1.3,2.3,1.9c0.1,0,0.1,0.1,0.2,0.1c-0.1-0.3-0.1-0.6-0.2-0.8c-0.3-0.2-0.6-0.4-0.8-0.6
		c-0.3-0.3-0.6-0.5-0.9-0.7c-0.5-0.4-0.6-0.4-1-0.8c-0.8-0.4-1.5-1.1-2.3-1.8c-0.4-0.3-0.7-0.6-1-0.8c0,0-0.1,0-0.1,0.1
		C328.5,116.2,328.4,116.3,328.4,116.3z"/>
	<path d="M333.7,126.8c0.1-0.2-1-0.9-1.5-1.3c-0.1-0.1-0.1-0.2-0.2-0.4c-0.5-0.3-1.1-1-1.6-1.2c-0.2-0.2-0.1-0.2-0.3-0.4
		c-0.1-0.1-0.3-0.2-0.4-0.3c0,0.1,0,0.2,0.1,0.3c0.1,0.1,0.2,0.3,0.3,0.3c0,0-0.1-0.1-0.2-0.1c0,0,0,0.1,0,0.1
		c0.5,0.4,0.9,0.7,1.4,1c0.3,0.3,0.7,0.7,1,0.9c-0.1-0.1-0.5-0.4-0.3-0.4C332.4,125.8,333.1,126.3,333.7,126.8z"/>
	<path d="M135.3,151.1c-0.5-0.4-0.9-0.7-1.4-1.1c-0.2-0.1-0.3-0.3-0.5-0.4c-0.1,0.3-0.1,0.7-0.2,1c0.1,0.1,0.2,0.2,0.4,0.3
		c0.3,0.2,0.5,0.4,0.6,0.5c0.1,0.1,0.2,0.2,0.4,0.3c0,0,0.1-0.1,0.1-0.1C134.8,151.5,135,151.4,135.3,151.1z"/>
	<path d="M137.6,156.2c0.1,0.1,0.3,0.2,0.4,0.4c0-0.2,0.1-0.3,0.1-0.5c-0.1-0.1-0.1-0.1-0.2-0.2c-0.1,0-0.1-0.1-0.2-0.1
		c-0.1,0.1-0.3,0.2-0.4,0.3C137.5,156.1,137.6,156.2,137.6,156.2z"/>
	<path d="M135.6,154c-0.3-0.2-0.6-0.5-0.9-0.7c-0.3-0.2-0.5-0.4-0.8-0.6c-0.1,0.1-0.2,0.2-0.3,0.3c0.5,0.4,0.9,0.7,1.3,1.1
		c0.1,0.1,0.2,0.2,0.3,0.3c0,0,0.1-0.1,0.1-0.1C135.4,154.1,135.5,154.1,135.6,154z"/>
	<path d="M137,153.5C137,153.5,137.1,153.5,137,153.5c0.4,0.3,0.5,0.3,0.8,0.6c0.2,0.1,0.4,0.2,0.6,0.4c0.1-0.3,0.1-0.6,0.2-0.8
		c-0.2-0.2-0.5-0.4-0.7-0.5c-0.1,0-0.1-0.1-0.2-0.1c-0.1,0.1-0.2,0.1-0.2,0.2C137.3,153.3,137.2,153.4,137,153.5z"/>
	<path d="M135.7,154.7c0.3,0.2,0.7,0.5,0.7,0.5c0.1,0.1,0.1,0.1,0.1,0.2c0.2,0.1,0.3,0.3,0.5,0.4c0,0,0.1,0.1,0.2,0.1
		c0,0,0.1-0.1,0.1-0.1c0.1-0.1,0.1-0.1,0.2-0.2c-0.1-0.1-0.2-0.2-0.3-0.3c-0.4-0.3-0.8-0.6-1.2-0.9c-0.1,0.1-0.1,0.1-0.2,0.2
		C135.8,154.6,135.7,154.6,135.7,154.7z"/>
	<path d="M136.6,153.2c0.1-0.1,0.1-0.1,0.2-0.2c0.1-0.1,0.3-0.2,0.4-0.3c0,0,0,0,0.1-0.1c-0.5-0.4-1-0.9-1.6-1.3
		c-0.2,0.2-0.4,0.4-0.6,0.5c0,0-0.1,0-0.1,0.1C135.6,152.4,136.1,152.8,136.6,153.2C136.5,153.1,136.6,153.1,136.6,153.2z"/>
	<path d="M133.2,152.1c-0.1,0-0.1-0.1-0.2-0.1c0,0.2-0.1,0.3-0.1,0.5c0.1,0.1,0.2,0.2,0.3,0.3c0.1-0.1,0.2-0.2,0.3-0.3
		C133.5,152.3,133.4,152.2,133.2,152.1z"/>
	<path d="M136.7,150.2C136.7,150.2,136.7,150.2,136.7,150.2c-0.1,0-0.2,0-0.2,0.1c0,0,0,0,0.1,0.1
		C136.6,150.3,136.7,150.2,136.7,150.2z"/>
	<path d="M138.8,152.6c0-0.2,0.1-0.3,0.1-0.5c-0.1,0.1-0.2,0.2-0.3,0.3C138.6,152.4,138.7,152.5,138.8,152.6z"/>
	<path d="M138,151.9c0.2-0.1,0.3-0.3,0.5-0.4c-0.5-0.3-0.9-0.7-0.9-0.7c0-0.1-0.1-0.1-0.1,0c-0.1-0.1-0.2-0.2-0.3-0.3
		c-0.1-0.1-0.1-0.1-0.2-0.2c-0.2,0.2-0.4,0.3-0.6,0.4C136.9,151.1,137.5,151.6,138,151.9z"/>
	<path d="M134.5,149.3c0.3,0.2,0.6,0.4,0.9,0.6c0.2,0.2,0.4,0.3,0.6,0.5c0,0,0,0,0.1,0c0.2-0.2,0.4-0.3,0.6-0.5
		c-0.1-0.1-0.3-0.2-0.4-0.3c-0.3-0.2-0.6-0.4-0.9-0.7c-0.2-0.2-0.4-0.4-0.6-0.5c-0.2-0.2-0.5-0.3-0.7-0.5c0,0-0.1-0.1-0.2-0.2
		c-0.1,0.3-0.1,0.5-0.2,0.8C133.9,148.9,134.2,149.1,134.5,149.3z"/>
	<path d="M120.2,249.5c0.5,0.4,1,0.8,1.7,1.3c0.1,0.1,0.2,0.1,0.4,0.2c0.1-0.4,0.1-0.9,0.2-1.3c0,0,0,0,0,0
		c-0.4-0.3-0.4-0.3-0.8-0.6c-0.1-0.1-0.2-0.1-0.1-0.1c0.3,0.2,0.6,0.5,0.9,0.7c0-0.3,0.1-0.7,0.1-1c-0.1-0.1-0.2-0.2-0.3-0.3
		c0,0,0.1,0.2-0.1,0c-0.2-0.2-0.2-0.2-0.6-0.5c-0.2-0.2,0.1,0.2-0.2-0.1c-0.7-0.6-1.3-1-1.9-1.4c-0.1-0.1-0.1-0.1-0.1-0.2
		c-0.1-0.1-0.2-0.2-0.4-0.3c-0.3-0.3-0.1-0.1-0.4-0.3c-0.3-0.2-0.3-0.2-0.7-0.5c-0.1-0.1,0-0.1-0.1-0.2c0,0-0.2-0.1-0.4-0.3
		c-0.1,0.8-0.2,1.5-0.3,2.3c0,0,0.3,0.3,0.4,0.3c0,0-0.1-0.1-0.1,0c0.1,0.1,0.2,0.2,0.4,0.3c0.1,0.1,0.4,0.3,0.7,0.5
		c0.2,0.2,0.3,0.3,0.4,0.3c0.2,0.2,0.1,0.1,0.4,0.3c0,0-0.1-0.1,0.1,0C119.3,248.9,119.8,249.3,120.2,249.5z M122.1,248.6
		c-0.2-0.1-0.2-0.2-0.5-0.4C121.6,248.2,122,248.5,122.1,248.6z M120.7,248.4c0.1,0.1,0.5,0.3,0.6,0.4
		C121.3,248.9,120.6,248.4,120.7,248.4z M117.5,247.3C117.2,247.2,116.8,246.7,117.5,247.3L117.5,247.3z M119,246.4
		c-0.2-0.1-0.2-0.2-0.3-0.3c-0.3-0.2-0.8-0.5-1-0.7c0,0,0.4,0.2,0.7,0.5c0.4,0.3,0.8,0.6,1,0.7C119.2,246.6,119.1,246.5,119,246.4z"
		/>
	<path d="M118.2,248.5c0.2,0.1,0.5,0.4,0.7,0.5c0.3,0.2,1.1,0.8,1.3,0.9c0.1,0.1,0.3,0.3,0.5,0.4c0.1,0.1,0.3,0.2,0.4,0.3
		c0.3,0.2,0.7,0.5,0.9,0.7c0,0,0.1,0.1,0.1,0.1c0-0.1,0-0.2,0-0.3c-0.1-0.1-0.2-0.1-0.3-0.2c-0.4-0.3-0.9-0.7-1.3-1
		c-0.2-0.1-0.3-0.2-0.4-0.3c-0.3-0.2-0.5-0.4-0.7-0.6c-0.5-0.4-1.2-0.9-1.8-1.3c-0.1-0.1-0.2-0.2-0.4-0.2c-0.2-0.1-0.3-0.2-0.5-0.3
		c0,0.1,0,0.2,0,0.2c0.1,0.1,0.2,0.2,0.4,0.3c0.1,0.1,0.3,0.2,0.4,0.3c0.3,0.2,0.4,0.3,0.5,0.4C118.1,248.4,118.1,248.4,118.2,248.5
		z"/>
	<path d="M338.5,146.8c-0.3,0.3-0.6,0.7-1,1.1c-0.1,0.1-0.4,0.4-0.4,0.4c-0.1,0-0.1,0-0.2,0c-0.2,0.2-0.3,0.4-0.5,0.6
		c-0.4,0.3-0.9,0.7-1.3,1.1c0.1,0.5,0.2,1,0.3,1.5c0,0,0.1,0,0.1-0.1c0.2-0.1,0.3-0.2,0.5-0.1c0.8-0.7,1.6-1.6,2.5-2.5
		c0.1-0.1,0.2-0.2,0.3-0.3c0.1-0.1,0.3-0.1,0.4-0.2c0.2-0.2,0.4-0.5,0.6-0.7c0.1-0.1,0.3-0.2,0.4-0.2c0.1-0.1,0.1-0.1,0.2-0.2
		c-0.1-0.5-0.2-1-0.3-1.5c-0.2,0.2-0.4,0.3-0.6,0.5C339.1,146.5,338.9,146.7,338.5,146.8z"/>
	<path d="M334.3,143.5c-0.2,0.1-0.3,0.2-0.4,0.3c0.1,0.3,0.1,0.7,0.2,1.1c0.2-0.2,0.4-0.5,0.5-0.6c0-0.1,0.1,0,0.2,0
		c0.5-0.4,1-0.9,1.5-1.3c0.2-0.1,0.4-0.2,0.5-0.4c0.1-0.1,0.3-0.2,0.4-0.4c0.2-0.2,0.4-0.4,0.6-0.5c0.2-0.2,0.5-0.3,0.7-0.5
		c0.2-0.1,0.3-0.3,0.4-0.5c-0.1-0.3-0.1-0.6-0.2-0.9c-0.3,0.3-0.6,0.5-0.9,0.7c-0.2,0.2-0.5,0.5-0.6,0.6c-0.2,0.2-0.4,0.2-0.6,0.3
		c-0.3,0.2-0.4,0.6-0.8,0.6C335.4,142.7,334.6,143,334.3,143.5z"/>
	<path d="M334.5,147.1c0.1,0.7,0.3,1.5,0.4,2.3c0.6-0.5,1.1-1,1.6-1.4c0.3-0.3,0.5-0.5,0.8-0.8c0,0,0.1,0,0.2-0.1
		c0.7-0.7,1.5-1.4,2.2-2c-0.1-0.7-0.3-1.4-0.4-2.1c0,0,0,0,0,0c-1,0.9-2.1,1.8-3,2.7C335.9,146.1,335.2,146.6,334.5,147.1z"/>
	<path d="M338.9,150.8c-0.5,0.5-0.8,1.2-1.5,1.6c-0.1,0.3-0.3,0.4-0.6,0.5c-0.2,0.4-0.6,0.7-0.9,1.1c0.1,0.4,0.2,0.9,0.3,1.3
		c0,0,0,0,0,0c0.1-0.1,0.2-0.2,0.2-0.3c0.1-0.2,0.3-0.4,0.4-0.5c0.2-0.1,0.3-0.1,0.3-0.2c0,0,0-0.1,0-0.1c0.5-0.4,1.1-0.9,1.4-1.2
		c0.1-0.1,0.1-0.1,0.1-0.2c0.2-0.3,0.5-0.5,0.8-0.7c0.3-0.3,0.7-0.7,1-1c0.1-0.1,0.2-0.2,0.3-0.3c0,0,0.1-0.1,0.1-0.1
		c-0.1-0.4-0.2-0.9-0.3-1.3c0,0-0.1,0.1-0.1,0.1c-0.2,0.2-0.5,0.4-0.8,0.6C339.5,150.3,339.1,150.5,338.9,150.8z"/>
	<path d="M329.3,111.1c-0.6,0.5-1.2,0.9-1.7,1.4c0,0.2,0.1,0.3,0.1,0.5c0,0,0.1-0.1,0.1-0.1c0,0,0.1-0.1,0.1-0.1
		c0.1-0.1,0.4-0.2,0.5-0.3c0.2-0.1,0.4-0.4,0.7-0.6c0.4-0.3,0.7-0.5,1-0.8c0.2-0.1,0.2-0.2,0.4-0.4c0.2-0.2,0.4-0.3,0.6-0.4
		c0.2-0.1,0.4-0.4,0.6-0.6c0.2-0.2,0.4-0.3,0.6-0.5c0-0.2-0.1-0.4-0.1-0.7c-0.5,0.4-0.9,0.8-1.3,1.2
		C330.3,110.2,329.8,110.7,329.3,111.1z M327.8,112.5c0.1-0.2,0.5-0.4,0.6-0.4C328.4,112.2,327.8,112.6,327.8,112.5z M329.2,111.4
		c-0.1,0,0.3-0.3,0.5-0.5c0.3-0.3,0.7-0.6,0.9-0.5C330.1,110.7,329.7,111.1,329.2,111.4z M332,109.1C332,109.1,332,109.1,332,109.1
		c-0.1,0.2-0.6,0.7-0.9,0.9C331,109.8,331.8,109.3,332,109.1z"/>
	<path d="M326.8,108.5c0,0.2,0.1,0.4,0.1,0.6c0.1-0.1,0.2-0.2,0.3-0.2c0.1-0.1,0.1-0.2,0.3-0.3c0.1-0.1,0.4-0.3,0.6-0.4
		c0.2-0.2,0.6-0.5,0.7-0.6c0.2-0.1,0.3-0.1,0.5-0.3c0.3-0.2,0.6-0.5,0.9-0.8c0.2-0.2,0.5-0.4,0.6-0.6c0,0,0.1,0,0.1,0
		c0.2,0,0.4-0.2,0.6-0.4c0-0.2-0.1-0.4-0.1-0.6c-0.2,0.1-0.4,0.3-0.6,0.4c-0.4,0.3-0.5,0.4-0.8,0.7c-0.3,0.3-0.6,0.5-1,0.8
		C328.3,107.3,327.5,107.9,326.8,108.5z M331.4,105.1c-0.1,0.2-0.2,0.1-0.3,0.2c-0.3,0.2-0.8,0.6-1.1,0.8c0-0.1,0-0.1,0-0.1
		C330.7,105.6,331.1,105.1,331.4,105.1z"/>
	<path d="M330.2,107.9c-0.2,0-0.3,0.1-0.5,0.3c-0.1,0.1-0.2,0-0.2,0.1c-0.1,0.1-0.2,0.2-0.2,0.2c-0.2,0.2-0.7,0.4-0.8,0.5
		c-0.2,0.2-0.5,0.5-0.7,0.6c-0.1,0.1-0.1,0.1-0.2,0.1c0,0-0.1,0.1-0.2,0.2c-0.1,0.1-0.2,0.1-0.3,0.1c0,0.1,0,0.2,0.1,0.3
		c0.2-0.2,0.5-0.3,0.7-0.4c0.2,0-0.3,0.2-0.5,0.4c-0.1,0.1-0.1,0.1-0.2,0.1c0,0.1,0.1,0.3,0.1,0.4c0.6-0.4,1.1-0.9,1.6-1.3
		c0.1-0.1,0.3-0.2,0.5-0.3c0.3-0.2,0.5-0.4,0.7-0.6c0.1-0.1,0.3-0.2,0.4-0.3c0.2-0.1,0.2-0.3,0.4-0.4c0.3-0.2,0.8-0.5,1-0.7
		c0,0,0,0,0,0c-0.1-0.3-0.1-0.6-0.2-0.9c-0.1,0.1-0.2,0.1-0.3,0.2c-0.2,0.2-0.2,0.2-0.3,0.3c-0.3,0.2-0.6,0.4-0.9,0.6
		C330.1,107.9,330.6,107.6,330.2,107.9z M328.3,109.4c0-0.1,0.5-0.6,0.6-0.4C328.7,109.1,328.5,109.4,328.3,109.4z M329.4,108.8
		c0.1-0.2,0.5-0.4,0.6-0.4C330,108.5,329.5,108.8,329.4,108.8z M330.6,107.8c0.1,0.1-0.3,0.3-0.5,0.4
		C330.1,108.2,330.5,107.9,330.6,107.8z"/>
	<path d="M328.7,114c-0.2,0.2-0.4,0.4-0.7,0.6c0.1,0.6,0.2,1.2,0.4,1.7c0,0,0.1-0.1,0.1-0.1c0,0,0.1-0.1,0.1-0.1
		c0.1-0.1,0.2-0.1,0.2-0.2c0,0,0.1-0.2,0.3-0.3c0.1-0.1,0.2-0.1,0.3-0.2c0.1-0.1,0.2-0.2,0.3-0.3c0,0,0.2-0.1,0.3-0.2
		c0.6-0.5,1.5-1.2,2-1.7c0.1-0.1,0.2-0.3,0.4-0.4c0.2-0.2,0.4-0.3,0.7-0.4c0-0.1-0.1-0.2-0.1-0.4c0,0,0,0,0,0c0-0.1-0.1-0.2,0-0.3
		c0,0,0,0,0,0c0-0.1,0-0.1,0-0.2c-0.2,0.2-0.5,0.4-0.9,0.6c0.2-0.2,0.5-0.5,0.8-0.8c0-0.2-0.1-0.4-0.1-0.7c0,0-0.1,0.1-0.1,0.1
		c-0.1,0.1-0.3,0.2-0.5,0.3c-0.2,0.1-0.4,0.3-0.5,0.4c-0.2,0.2-0.3,0.4-0.5,0.5c-0.2,0.1-0.4,0.2-0.6,0.3c-0.2,0.2,0.2,0,0,0.2
		c-0.2,0.2-0.5,0.4-0.8,0.7c-0.2,0.1-0.3,0.1-0.5,0.3c-0.1,0.1-0.2,0.2-0.3,0.3c0,0,0,0-0.1,0.1C328.8,113.9,328.7,114,328.7,114z
		 M330.7,113.2c0.1,0.1-0.3,0.3-0.5,0.5C330,113.7,330.5,113.3,330.7,113.2z M329,113.9c0.1-0.2,0.2-0.3,0.5-0.5
		C329.6,113.6,329.3,113.8,329,113.9c0,0.1-0.1,0.1-0.1,0.2C328.9,114,329,114,329,113.9z"/>
	<path d="M112.1,289.1c0.2-0.2,0.8-0.5,0.7-0.7C112.5,288.6,112,288.9,112.1,289.1z"/>
	<path d="M117.5,286.3c-0.2,0.2-0.9,0.6-0.9,0.8C117.1,286.8,117.7,286.6,117.5,286.3z"/>
	<path d="M114,289.2c0.2-0.3,0.5,0,0.5-0.3c-0.1,0.1-0.2,0.1-0.3,0.1c0.1-0.2,0.5-0.5,0.5-0.7C114.4,288.5,114.1,289,114,289.2z"/>
	<path d="M112.7,289.1c-0.3,0.1-0.6,0.5-0.9,0.8c0,0,0.1,0,0.1,0c0.1-0.1,0.2-0.1,0.4-0.2C112.2,289.4,112.9,289.3,112.7,289.1z"/>
	<path d="M111.9,289.5c-0.1,0.1-0.1,0.1-0.2,0.1c0,0.1,0,0.1,0,0.2C111.8,289.7,112,289.6,111.9,289.5z"/>
	<path d="M117.7,285.2c0.2-0.1,0.3-0.2,0.3-0.3c0-0.1,0-0.1,0-0.2c-0.3,0.4-0.7,0.7-0.7,1c0.2-0.1,0.4-0.1,0.6-0.2
		c0-0.1,0-0.2,0-0.3C117.8,285.3,117.7,285.3,117.7,285.2z"/>
	<path d="M112.1,289.5c0.4-0.4,1.2-0.8,1.3-1.1C113,288.7,112.2,289.2,112.1,289.5z"/>
	<path d="M114.9,287.7c-0.5,0.3-0.6,0.7-0.8,0.4c-0.7,0.4-0.5,0.6-0.9,0.9c-0.1-0.1,0.3-0.5-0.2-0.2c-0.2,0.3,0,0.2-0.1,0.5
		c0.3-0.3,0.6-0.4,0.8-0.6c0-0.1,0-0.2,0.1-0.3c0.2-0.1,0.4-0.2,0.5-0.1c-0.1,0.1-0.3,0.2-0.1,0.3
		C114.7,288.2,115.1,287.9,114.9,287.7z"/>
	<path d="M113,283.3c-0.3,0.2-0.6,0.3-0.9,0.4c0,0,0,0.1,0,0.1C112.5,283.7,112.9,283.7,113,283.3z"/>
	<path d="M113.6,290c0,0,0-0.1,0-0.2c0.2-0.2,0.5-0.3,0.5-0.5c-0.1,0.1-0.2,0.1-0.2,0c-0.3,0.3-0.7,0.4-0.8,0.6
		c-0.1,0.1,0.1,0.1,0,0.2c-0.1,0.1-0.2,0-0.3,0.1c0.1,0,0.3,0.1,0.4,0.1c0,0,0,0,0-0.1C113.3,290.1,113.4,290.2,113.6,290z"/>
	<path d="M113.5,290.2c0.1,0.1,0.5-0.1,0.8-0.4C114.3,289.5,113.7,290.2,113.5,290.2z"/>
	<path d="M114.2,290.3c-0.1,0.1-0.1,0.1-0.2,0.2c0.1,0,0.2,0,0.3,0.1c0.1-0.2,0.3-0.4,0.5-0.5C114.5,290.2,114.4,290.3,114.2,290.3z
		"/>
	<path d="M115.4,288.6c0.3-0.1,0.3-0.2,0.6-0.4c0.2,0,0.8-0.3,0.8-0.6C116.4,287.8,115.6,288.2,115.4,288.6z"/>
	<path d="M115.5,286.3c-0.3,0.3-0.8,0.4-0.7,0.7C115,286.7,115.6,286.4,115.5,286.3z"/>
	<path d="M118,279c-0.1-0.2-0.4,0.2-0.5,0.3c-0.3,0.2-0.4,0.5-0.7,0.7c0,0.1,0.1,0.1,0,0.2c-0.3,0.1-0.6,0.3-0.7,0.5
		c0.5-0.4,0.8-0.4,1.1-0.7C117.4,279.8,117.4,279.4,118,279z"/>
	<path d="M117,285.4c-0.3,0.4-1,0.8-1.5,1.3c-0.2,0.1-0.3,0.4-0.5,0.5c-0.2,0.2-0.8,0.5-0.5,0.5c0.6-0.4,0.8-0.8,1.3-0.9
		c0,0,0.1,0.1,0.1,0.1c-0.3,0.3-0.4,0.2-0.6,0.4c0.2,0.1,0.6-0.3,1-0.6c0.3-0.2,0.6-0.5,0.9-0.7c-0.1-0.1,0.3-0.3,0.2-0.4
		c-0.5,0.3-1.1,0.3-1.4,0.8c0.3-0.3,0.4-0.3,0.5-0.1c-0.4,0.3-0.7,0.4-0.9,0.3c0.3-0.4,1.2-1.1,1.4-1
		C117,285.6,117.4,285.3,117,285.4z"/>
	<path d="M112.5,284.9c0.4-0.4,1.4-1.4,1.9-1.5c0.3-0.6,0.9-0.8,1.5-1.3c0-0.1-0.1-0.1,0-0.2c0.4-0.1,1-0.7,1.5-1.1
		c0.2-0.3-0.2,0,0-0.2c0.3-0.1,0.7-0.3,1.1-0.6c0,0,0-0.1,0-0.1c-0.4,0.3-0.6,0.3-0.9,0.5c0.2-0.3,0.7-0.7,0.9-0.7
		c0-0.1,0-0.2,0-0.4c-0.3,0.3-0.7,0.7-0.9,0.5c0.2-0.2,0.3-0.1,0.5-0.3c0.1-0.1-0.1-0.3,0-0.4c-0.4,0.2-0.6,0.7-0.8,1
		c-0.1,0-0.5,0.4-0.7,0.4c-0.3,0.2-0.3,0.6-0.6,0.6c0.3-0.2,0.5-0.4,0.3-0.5c-0.6,0.4-0.7,0.9-1,1c-0.1-0.1,0.4-0.4,0.4-0.6
		c-0.5,0.1-0.3,0.4-0.7,0.7c-0.2-0.1-0.1-0.3,0-0.4c-0.8,0.5-0.4,0.7-0.9,1.1c-0.2-0.1,0.3-0.4-0.1-0.3c-0.6,0.5-1.3,1-1.8,1.4
		c0,0.1,0,0.2,0,0.3c0.1,0,0.1-0.1,0.2-0.1c0.4-0.3,0.6-0.6,1-0.8c0.1-0.1-0.2,0.2-0.2,0.2c0,0.1,0.4-0.2,0.5-0.3
		c0.3-0.3-0.3,0.1-0.3-0.1c0.2-0.1,0.3-0.2,0.5-0.4c0,0.2,0,0.5,0.1,0.7c0.2,0.1,0.2-0.1,0.5-0.3c0.3,0-0.2,0.3,0,0.4
		c-0.3,0.2-0.3,0.1-0.2,0c-0.2,0-0.5,0.2-0.7,0.3c0-0.1,0.2-0.2,0.3-0.3c-0.2-0.1-0.3,0.3-0.6,0.4c-0.1,0.2,0.3-0.1,0.3-0.1
		c0,0.2-0.8,0.8-0.9,1.2c-0.3,0.1,0.2-0.6,0.6-0.8c-0.3,0.2-0.6,0.2-0.9,0.3c-0.1,0-0.1,0.1-0.2,0.2c0,0.4-0.1,0.7-0.1,1
		C112.2,285,112.4,284.9,112.5,284.9z M117,280.5c-0.2,0.3-0.3,0.5,0.2,0.2c-0.1,0.3-0.5,0.2-0.8,0.6
		C116.3,281,116.7,280.8,117,280.5z M115.3,281.8c-0.4,0.3-0.5,0.1-0.7,0.1C114.9,281.8,115.2,281.6,115.3,281.8z M114.5,282.4
		c0.2-0.3,0.6-0.3,0.6,0C114.3,283,115.1,282,114.5,282.4z"/>
	<path d="M118.6,278.9c0-0.1,0-0.1,0-0.2c-0.1,0.2-0.3,0.4-0.3,0.5C118.5,279.1,118.5,279,118.6,278.9z"/>
	<path d="M116.2,284.6c0.4-0.3,0.7-0.6,1.1-0.9c0.3-0.2,0.6-0.4,0.9-0.6c0-0.4,0.1-0.8,0.1-1.2c-0.1,0-0.2,0.1-0.2,0.1
		c0-0.1,0.1-0.2,0.3-0.3c0-0.2,0-0.5,0.1-0.7c-0.1,0-0.1,0.1-0.2,0.1c0.1,0.1-0.3,0.3-0.2,0.4c0.2-0.2,0.4-0.2,0.2,0
		c-0.4,0.1-0.4,0.2-0.3-0.1c-0.6,0.3,0,0.3-0.4,0.6c-0.2,0.1-0.2,0-0.3-0.1c-0.3,0.3-0.9,0.6-0.8,0.8c0.2-0.2,0.3-0.2,0.4,0
		c-0.2,0-0.6,0.5-0.8,0.4c0.3-0.3,0.1-0.4,0.3-0.7c-1.1,0.7-1.9,1.4-3.3,2.5c-0.2,0.3-0.3,0.6-0.9,1.1c-0.1,0.8-0.1,1.6-0.2,2.3
		c0.6-0.4,1-0.9,1.4-1.2C114,286.2,115.7,285,116.2,284.6z M115.7,282.7c0,0,0.1,0.1,0.1,0.1c-0.3,0.3-0.3,0.1-0.5,0.3
		C115.3,283,115.6,282.8,115.7,282.7z M114.9,283.5c0-0.1-0.1,0-0.2,0c-0.1-0.1,0.4-0.3,0.5-0.4c0.3,0.2-0.2,0.6-0.6,0.8
		C114.6,283.8,114.5,283.7,114.9,283.5z M114.4,283.7c0,0.3-0.6,0.5-0.9,0.8c-0.2,0.2-0.5,0.8-0.7,0.5
		C113.1,284.6,113.9,284.1,114.4,283.7z M112.4,286.2c-0.1-0.1,0.5-0.4,0.6-0.6C113.2,285.8,112.6,286.2,112.4,286.2z"/>
	<path d="M118.4,280.5c0,0,0-0.1,0-0.1c-0.8,0.6-1.5,1.2-2.2,1.8C116.9,281.9,117.7,281,118.4,280.5z"/>
	<path d="M112.3,285.2c-0.1,0-0.2,0.1-0.2,0.1c0,0.1,0,0.1,0,0.2C112.2,285.4,112.3,285.4,112.3,285.2z"/>
	<path d="M123.2,211.6c0.1-0.1,0.3-0.4,0.4-0.5c0,0,0.1,0,0.1,0c0.2-0.2,0.4-0.4,0.6-0.6c0.3-0.2,0.7-0.3,0.8-0.7
		c0.2,0,0.3-0.1,0.4-0.1c0.1,0,0.1-0.2,0.1-0.2c0.1-0.1,0.1,0,0.2-0.1c0.2-0.2,0.5-0.4,0.7-0.6c0.2-0.1,0.5-0.2,0.7-0.4
		c0.2-0.1,0.4-0.4,0.6-0.5c0.3-0.2,0.5-0.3,0.7-0.4c0.1-0.1,0.1-0.2,0.2-0.3c0.2-0.1,0.3-0.3,0.5-0.4c0.3-1.7,0.6-3.3,0.8-5
		c-0.3,0.2-0.6,0.4-0.8,0.6c-0.2,0.2-0.4,0.3-0.5,0.5c-0.3,0.2-0.5,0.5-0.8,0.8c-0.1,0.1-0.3,0.1-0.3,0.2c-0.9,0.7-1.8,1.5-2.6,2.2
		c-0.7,0.6-1.3,1.2-1.9,1.7c-0.2,1.4-0.5,2.9-0.7,4.3c0.2-0.2,0.5-0.4,0.6-0.5C123,211.7,123.2,211.6,123.2,211.6z"/>
	<path d="M123.2,207.2c0.4-0.3,0.4-0.6,0.6-0.8c0.2-0.3,0.5-0.5,0.8-0.7c0.4-0.3,0.8-0.7,1.1-0.9c0.5-0.2,0.7-0.7,1.1-1
		c0.2-0.2,0.6-0.4,0.7-0.5c0.1-0.1,0.1-0.2,0.2-0.2c0.1-0.1,0.3-0.2,0.4-0.4c0.1-0.1,0.3-0.3,0.5-0.4c0.2-0.1,0.1-0.3,0.2-0.5
		c0.3,0,0.3-0.4,0.5-0.5c0.1-0.1,0.2-0.1,0.2-0.1c0.2-0.2,0.4-0.5,0.5-0.6c0.1-0.1,0.2-0.1,0.2-0.1c0,0,0,0,0,0
		c0.1-0.9,0.3-1.7,0.4-2.6c-0.2,0.2-0.5,0.4-0.7,0.7c-0.8,0.8-1.9,1.7-2.9,2.6c-0.6,0.6-1.3,1.1-1.9,1.7c-0.2,0.2-0.3,0.4-0.5,0.6
		c-0.3,0.3-0.6,0.6-0.9,0.8C123.5,205.3,123.4,206.2,123.2,207.2C123.2,207.2,123.2,207.2,123.2,207.2z"/>
	<path d="M127.5,210.2c-1.5,1.3-3,2.5-4.4,3.9c-0.1,0.1-0.2,0.3-0.4,0.4c-0.1,0.1-0.4,0.2-0.5,0.3c-0.1,0-0.1,0.1-0.1,0.2
		c-0.1,0.1-0.2,0.2-0.3,0.3c-0.1,0.9-0.3,1.7-0.4,2.6c0.4-0.4,0.8-0.7,1.2-1.1c0.6-0.5,1.3-1.2,1.7-1.5c0,0,0.1,0,0.2-0.1
		c0.1-0.1,0-0.2,0.1-0.2c0-0.1,0.2-0.1,0.3-0.2c0.1-0.1,0.1-0.2,0.2-0.2c0,0,0.1,0,0.2-0.1c0.1-0.1,0.1-0.1,0.1-0.2
		c0.2-0.2,0.3-0.4,0.5-0.6c0.2-0.1,0.3-0.2,0.5-0.3c0.1-0.2,0.1-0.3,0.3-0.4c0.1-0.2,0.1-0.3,0.3-0.4c0.3-0.2,0.6-0.6,0.9-0.8
		c0.2-0.2,0.4-0.4,0.7-0.6c0.1-0.7,0.2-1.5,0.4-2.2C128.4,209.5,128,209.9,127.5,210.2z"/>
	<path d="M137.8,152.1c-0.2,0.2-0.4,0.3-0.6,0.5c0,0,0,0-0.1,0.1c-0.1,0.1-0.3,0.2-0.4,0.3c-0.1,0.1-0.1,0.1-0.2,0.2
		c-0.2,0.2-0.3,0.3-0.5,0.4c-0.2,0.1-0.3,0.3-0.5,0.4c-0.1,0.1-0.2,0.1-0.3,0.2c-0.1,0-0.1,0.1-0.1,0.1c-0.1,0.1-0.1,0.1-0.2,0.2
		c-0.2,0.1-0.3,0.2-0.5,0.3c-0.3,0.2-0.5,0.5-0.8,0.7c-0.3,0.2-0.6,0.4-0.9,0.6c-0.3,0.2-0.5,0.5-0.8,0.7c-0.1,0.3-0.1,0.6-0.2,0.9
		c0.9-0.7,1.9-1.5,2.6-2.1c0.4-0.3,0.7-0.7,1.1-1c0.1,0,0.1-0.1,0.2-0.1c0-0.1,0.1-0.1,0.2-0.2c0.2-0.2,0.6-0.6,1-0.9
		c0.1-0.1,0.3-0.2,0.4-0.3c0.1-0.1,0.2-0.1,0.2-0.2c0.2-0.1,0.4-0.3,0.5-0.4c0.1-0.1,0.2-0.2,0.3-0.3c0.1-0.1,0.2-0.2,0.3-0.3
		c0.1-0.3,0.1-0.7,0.2-1c-0.2,0.1-0.3,0.3-0.5,0.4c-0.2,0.2-0.3,0.3-0.5,0.4C138,152,137.9,152.1,137.8,152.1z"/>
	<path d="M137.3,155.7c0,0-0.1,0.1-0.1,0.1c-0.5,0.4-1,0.8-1.4,1.1c-0.1,0.1-0.2,0.2-0.3,0.3c-0.7,0.6-1.5,1.1-2.2,1.7
		c-0.4,0.3-0.7,0.6-1.1,1c-0.2,0.2-0.4,0.3-0.4,0.4c-0.1,0.1-0.2,0.2-0.3,0.3c0,0.3-0.1,0.5-0.1,0.8c0.1-0.1,0.3-0.3,0.4-0.4
		c0.2-0.2,0.5-0.4,0.8-0.6c0.2-0.2,0.4-0.4,0.6-0.6c0.7-0.6,1.3-1,1.7-1.5c0.3-0.2,0.5-0.5,0.8-0.7c0.5-0.4,0.5-0.4,0.9-0.7
		c0.3-0.3,0.6-0.6,1-0.9c0.1-0.1,0.2-0.2,0.4-0.3c0.2-0.1,0.3-0.3,0.5-0.4c0-0.2,0.1-0.4,0.1-0.6c-0.3,0.3-0.5,0.5-0.7,0.7
		c-0.1,0-0.1,0.1-0.1,0.1C137.5,155.6,137.4,155.7,137.3,155.7z"/>
	<path d="M135.4,151C135.4,151.1,135.4,151.1,135.4,151c-0.4,0.3-0.7,0.5-0.6,0.6c0,0-0.1,0.1-0.1,0.1c-0.3,0.2-0.7,0.5-1.1,0.8
		c-0.1,0.1-0.2,0.2-0.3,0.3c-0.2,0.1-0.3,0.2-0.5,0.3c0,0.2-0.1,0.4-0.1,0.6c0.3-0.2,0.6-0.4,0.8-0.6c0,0,0,0,0.1,0
		c0.1-0.1,0.2-0.2,0.3-0.3c0.1-0.1,0.2-0.2,0.3-0.3c0.2-0.2,0.5-0.3,0.7-0.5c0,0,0.1,0,0.1-0.1c0.2-0.2,0.4-0.4,0.6-0.5
		c0,0,0.1-0.1,0.1-0.1c0.2-0.2,0.4-0.3,0.7-0.5c0.2-0.1,0.4-0.3,0.6-0.4c0.5-0.4,1-0.8,1.5-1.2c0,0,0.1-0.1,0,0
		c-0.2,0.2-0.5,0.5-0.6,0.4c0.2-0.2,0.5-0.4,0.7-0.5c0.1-0.1,0.2-0.3,0.3-0.3c0.2-0.2,0.4-0.3,0.3-0.4c-0.2,0.2-0.5,0.3-0.7,0.5
		c-0.2,0.1-0.3,0.3-0.6,0.5c-0.3,0.2-0.6,0.5-0.9,0.6c0.1-0.1,0.5-0.4,0.5-0.4c-0.2,0.1-0.4,0.3-0.7,0.5c-0.2,0.1-0.4,0.3-0.6,0.5
		C135.9,150.7,135.6,150.9,135.4,151z M136.7,150.1C136.7,150.2,136.7,150.2,136.7,150.1c0,0.1,0,0.1-0.1,0.2c0,0,0,0-0.1-0.1
		C136.6,150.2,136.6,150.2,136.7,150.1z"/>
	<path d="M349.7,220.1c0,0,0.1,0.1,0.1,0.1c-0.1-0.1,0-0.1,0-0.1c-0.1,0-0.2,0-0.3,0.1C349.7,220.3,349.7,220.1,349.7,220.1z"/>
	<path d="M349.4,220.5c0-0.1,0.1-0.1,0.2-0.1C349.5,220.1,349.2,220.3,349.4,220.5z"/>
	<path d="M350,220.6c0,0-0.1,0.1-0.1,0.1C350,220.9,350.2,220.7,350,220.6z"/>
	<path d="M349.8,220.6c0,0-0.1,0.1-0.1,0.1c0.1,0,0,0.1,0.1,0.2c0,0,0.1,0,0.1-0.1C349.8,220.7,349.9,220.7,349.8,220.6z"/>
	<path d="M350.4,219.9c0.2,0.2,0.1,0.2,0.1,0.3c0.1,0,0.1,0,0.2,0C350.7,220.1,350.5,219.9,350.4,219.9z"/>
	<path d="M349.8,221C349.8,221,349.8,220.9,349.8,221c0-0.1,0-0.2-0.1-0.2c0,0-0.1,0-0.1,0.1C349.7,220.9,349.7,220.9,349.8,221z"/>
	<path d="M351.5,218.9c-0.1-0.1-0.1-0.1-0.1-0.2c-0.2,0,0,0.2-0.3,0.2c0.2,0.1,0,0.1,0.1,0.2c0,0,0.2,0.1,0.1,0.1
		c-0.1,0-0.1,0-0.2,0.1c0.1,0.2,0.2,0,0.2,0c0.1,0,0.2,0,0.2-0.1c-0.1-0.1-0.1-0.1-0.2-0.1c0.1-0.1-0.2-0.2-0.1-0.2
		C351.4,219,351.4,218.9,351.5,218.9z"/>
	<path d="M351,219.8C351,219.8,351,219.8,351,219.8c-0.1-0.2-0.1-0.1-0.2-0.1c0,0.1-0.3,0.3,0,0.1
		C350.8,219.8,350.9,219.9,351,219.8z"/>
	<path d="M349.6,219.4c0.1,0.1,0.2,0,0.3-0.1c0.2,0.1,0.4,0.2,0.5,0.1c0-0.1-0.2-0.2-0.1-0.2c0.1,0.2,0.2,0.1,0.3,0.2
		c0,0-0.2,0.1,0,0.1c0.1-0.1,0.2-0.1,0.3-0.2c0-0.1-0.2-0.2-0.1-0.2c0.1,0,0.1,0,0.1-0.1c0.1,0.1,0.1,0.2,0.2,0.1
		c-0.2-0.2-0.2-0.2-0.3-0.4c0,0,0.1-0.1,0.1,0c0,0.1,0.2,0.3,0.2,0.4c0.1-0.1-0.2-0.4-0.2-0.6c0,0,0.1,0,0-0.1c0,0.1-0.2,0-0.2,0.1
		c-0.1,0.1,0,0.2-0.2,0.2c0.1,0.2,0.2,0.1,0.3,0.2c0,0.1-0.2,0-0.1-0.1c-0.1,0.1,0,0.4-0.3,0.4c-0.2-0.2-0.3-0.1-0.4,0
		c0.1,0.1,0.1,0.1,0.2,0.1C350,219.3,349.6,219.2,349.6,219.4z"/>
	<path d="M349.3,213.8c-0.1,0.1-0.2-0.1-0.3,0c0.1,0.2,0.2,0,0.3,0.2C349.4,214,349.4,213.9,349.3,213.8z"/>
	<path d="M349.1,220c0.1-0.1,0.3,0,0.4,0c0-0.1-0.1-0.2-0.1-0.2c0-0.1,0.3,0,0.1-0.1c-0.2-0.1-0.3,0.1-0.2,0.2
		C349.1,219.7,349.1,219.8,349.1,220z"/>
	<path d="M349.6,219.9c0.1,0.1,0.2-0.2,0.3-0.1c-0.1,0-0.1,0.2,0,0.1c-0.1-0.1,0.1,0,0.1-0.1c-0.1-0.2-0.2-0.1-0.3-0.2
		C349.7,219.9,349.5,219.8,349.6,219.9z"/>
	<path d="M349.1,214.1c-0.1-0.2-0.2-0.1-0.3,0C348.9,214.3,349,214.1,349.1,214.1z"/>
	<path d="M351.9,218.9c0.1,0,0.2-0.1,0.1-0.2C351.9,218.7,351.8,218.8,351.9,218.9z"/>
	<path d="M348,214.6c-0.1,0-0.3-0.1-0.4,0C347.8,214.8,348,214.6,348,214.6z"/>
	<path d="M348.5,214c0.1-0.1,0.3-0.1,0.4-0.2c-0.2-0.2-0.2,0.1-0.3,0C348.7,213.9,348.4,213.9,348.5,214z"/>
	<path d="M348.7,213.3c-0.1,0.1-0.2,0.2-0.3,0.2c0.3,0.2,0.5-0.2,0.7-0.3C348.9,213,348.8,213.2,348.7,213.3z"/>
	<path d="M348.8,220.2c-0.2-0.1-0.3-0.1-0.5-0.1c0.1,0.6,0.2,1.3,0.3,1.9c0,0,0.1,0,0.1,0c0.3-0.1,0.6-0.4,1-0.5
		c-0.1-0.1,0-0.1,0-0.1c0-0.1-0.2-0.3-0.2-0.4c-0.2,0.1-0.3-0.3-0.4-0.3c0.1,0,0.1-0.1,0-0.2C349.2,220.5,349,220.4,348.8,220.2z
		 M349.1,221.6c0,0.1,0,0.1,0,0.1c-0.1-0.2-0.2-0.2-0.2-0.2C349,221.3,349,221.6,349.1,221.6z"/>
	<path d="M350.3,220.4c0.1,0,0.2,0,0.1-0.2C350.3,220.3,350.3,220.3,350.3,220.4z"/>
	<path d="M348.2,219.2C348.2,219.2,348.2,219.3,348.2,219.2C348.3,219.3,348.4,219.2,348.2,219.2
		C348.3,219.2,348.3,219.2,348.2,219.2z"/>
	<path d="M352.5,211.4C352.5,211.4,352.5,211.5,352.5,211.4c-0.1,0-0.1-0.1-0.1-0.1c0,0,0,0,0,0c0,0,0,0,0,0c-0.1,0-0.3,0.1-0.2,0.2
		c0,0,0-0.1,0.1-0.1c0.1,0.1,0.1,0.1,0.2,0.2c0,0,0,0.1,0,0.1c-0.1,0.1-0.2-0.1-0.3,0c0.1,0.2,0.3,0.1,0.5,0.1
		c-0.1,0.1-0.2,0-0.3,0.1c-0.1-0.2-0.4-0.1-0.3,0c0,0,0.1,0,0.1-0.1c0,0.1,0.2,0.2,0.2,0.3c-0.1-0.1-0.1,0-0.2,0
		c-0.2,0-0.1,0.1-0.1,0.2c-0.1-0.1-0.2-0.1-0.2-0.1c0.1,0.1,0.1,0.2,0,0.2c-0.1-0.1-0.2-0.2-0.3-0.2c0.2,0.2,0.4,0.2,0.5,0.3
		c0,0,0,0.1,0,0.1c-0.2,0-0.4-0.3-0.5-0.1c-0.1-0.1,0-0.1-0.1-0.2c-0.1,0.1-0.4,0.1-0.2,0.3c0.1,0,0-0.2,0.2-0.1
		c0,0.1-0.2,0.1-0.1,0.2c0.1,0.1,0.1,0,0.2,0c0,0.1,0.1,0.1,0,0.1c0,0,0,0,0,0c-0.1,0-0.2-0.2-0.3-0.2c-0.1,0.1-0.2,0.2-0.3,0.1
		c0.1,0.1,0.2,0.1,0.2,0.2c-0.2-0.1-0.1,0-0.2,0.1c-0.1-0.1,0-0.3-0.2-0.2c-0.1,0.1,0.2,0.2,0.2,0.3c0.1,0,0.1-0.1,0.2,0
		c0,0.1-0.1,0.2-0.2,0.1c-0.1-0.2-0.3-0.2-0.4-0.3c0,0,0.1-0.1,0-0.1c-0.1,0,0.1,0.2-0.1,0.2c-0.2-0.2-0.3,0-0.4,0
		c0.1,0.2,0,0.4-0.2,0.4c0,0,0,0,0,0c0,0,0,0,0-0.1c0-0.1,0.1-0.1,0-0.2c-0.1,0-0.1,0.1-0.1,0.1c0,0,0,0.1,0,0.1
		c0.1,0.1,0.2,0.2,0.3,0.2c-0.1-0.1,0-0.1,0.1-0.1c0,0,0,0,0,0c0,0,0,0,0,0c0.2,0.3-0.2,0-0.3,0c-0.1,0,0,0.1-0.1,0.1
		c0-0.1,0-0.1-0.1-0.1c0.1,0.2,0.2,0.1,0.3,0.3c0,0,0,0.1,0,0.1c-0.1,0-0.2-0.1-0.3-0.1c0.1,0.1,0.1,0.2,0,0.3c-0.2,0,0,0,0,0.1
		c-0.2,0-0.4,0.1-0.4,0.2c0,0,0.1,0,0,0c-0.2-0.1-0.2,0-0.3,0.1c-0.1-0.1,0-0.1-0.1-0.2c-0.1,0,0,0.1-0.2,0.2
		c-0.1-0.1-0.1-0.1-0.2-0.2c-0.1,0,0.1,0.2-0.1,0.2c-0.1,0-0.2-0.2-0.3-0.1c0.1,0.1,0.2,0.1,0.1,0.2c0,0,0,0.2-0.2,0.1
		c-0.3-0.2-0.2-0.4-0.4-0.5c0,0-0.1,0.1-0.1,0.1c0.3,1.5,0.5,3,0.8,4.4c0.1,0,0.1,0,0.2,0c0-0.1,0-0.4,0.3-0.2c0,0-0.3,0.2-0.2,0.2
		c0.1-0.1,0.5-0.2,0.2-0.3c0.1-0.1,0.1-0.3,0.3-0.3c0.2,0.1-0.2,0.2,0,0.3c0.1-0.1,0.2-0.1,0.2-0.2c-0.1-0.1-0.1-0.1-0.2-0.2
		c0.2,0,0-0.3,0.3-0.1c0.1,0.2-0.3,0-0.1,0.2c0.1,0.1,0.2-0.1,0.3-0.1c-0.1-0.1-0.3-0.3-0.2-0.3c0.1,0,0.2,0,0.3,0
		c0.1,0.1-0.1,0.1,0,0.2c0.1-0.1,0.3-0.2,0.2-0.3c0.1,0,0.1,0.1,0.2,0c-0.3-0.2,0.1-0.2-0.1-0.4c-0.1,0-0.4,0-0.4-0.2
		c0.3,0.1,0.5,0.1,0.8,0.2c0.1,0.2-0.4-0.1-0.2,0.2c0.1-0.1,0.2-0.1,0.3,0c-0.1-0.2,0.3-0.1,0.3-0.4c-0.1-0.2-0.2,0-0.2-0.1
		c0.1,0,0.2,0,0.3,0c0,0,0-0.1,0.1-0.2c0.1-0.1,0.1,0,0.2-0.1c0.1,0,0-0.2,0.1-0.2c0,0.2,0.2,0.1,0.3,0.2c0.1,0-0.1-0.3,0.1-0.2
		c0.1,0.2-0.2,0.2-0.2,0.3c0,0,0.2,0,0.2,0.1c-0.1-0.1-0.1,0.1-0.2,0c0.1,0.1,0.3,0.1,0.2,0.2c-0.1,0.1-0.2-0.1-0.3,0.1
		c0,0,0.1,0.1,0,0.1c0-0.1,0-0.1-0.1-0.1c-0.2,0.1,0.2,0.3,0.1,0.4c-0.1-0.1-0.1-0.1-0.2-0.2c0,0.2-0.2,0.1-0.2,0.2
		c0.1,0.1,0.1,0.4,0.3,0.6c0.2,0.1,0.1-0.1,0.2-0.2c0.2,0.1,0.2,0,0.4,0.2c-0.1,0-0.1-0.1-0.2,0.1c0.1,0.2,0.2,0,0.3,0.2
		c0,0-0.1,0.1-0.1,0.1c-0.1-0.2-0.2-0.1-0.2-0.1c0.2,0.2,0.3,0,0.4,0.1c0-0.1,0-0.1,0-0.1c-0.2-0.2-0.1-0.3-0.2-0.4
		c0.1,0.1,0.5,0.3,0.4,0.1c-0.1,0.1-0.3-0.1-0.2-0.2c0.1,0,0.2,0.1,0.3,0.2c-0.1-0.1,0-0.2,0-0.3c-0.2-0.2-0.3-0.1-0.5-0.2
		c0-0.1,0.1-0.2,0.3,0c0.1,0,0-0.1,0.1-0.1c0.1,0.1,0.1,0.1,0.1,0.2c0.1,0,0-0.2,0.1-0.1c-0.1,0,0,0.1,0.1,0.2c0,0-0.1,0.1,0,0.1
		c0.2,0,0.1-0.2,0.2-0.3c0.1-0.1,0.2-0.1,0.1-0.2c0.2,0.2,0.4,0,0.4-0.1c0,0-0.1,0.1-0.1,0c0-0.1,0.1,0,0.2-0.1
		c0.2-0.1,0.4-0.3,0.5-0.5c-0.3-1.9-0.7-3.9-1.1-5.8c0,0,0,0,0,0C352.6,211.5,352.6,211.5,352.5,211.4
		C352.6,211.4,352.6,211.4,352.5,211.4C352.6,211.4,352.6,211.3,352.5,211.4C352.6,211.3,352.5,211.4,352.5,211.4z M349.6,217.8
		c-0.1,0.1,0,0.2-0.2,0.2c-0.1-0.1,0.1-0.1,0-0.2c-0.1-0.1-0.1,0.1-0.2,0.1c0-0.1-0.1-0.1-0.1-0.1c0.1-0.1,0.2-0.1,0.2-0.3
		C349.4,217.6,349.4,217.7,349.6,217.8z M349.8,214c0-0.1-0.1-0.2,0-0.2c0.1,0,0.1,0.1,0.2,0.2C349.9,214.1,349.8,213.9,349.8,214z
		 M351.1,218.5c0-0.1,0.1-0.2,0-0.3c0.1-0.1,0.2,0.2,0.2,0.3C351.2,218.6,351.1,218.4,351.1,218.5z M351.4,217.8
		c0-0.1-0.1-0.2,0-0.2c0,0.1,0.1,0.1,0.1,0.1C351.6,217.8,351.5,217.8,351.4,217.8z M350.6,213.2c0,0.1,0.1,0.3-0.1,0.3
		C350.5,213.4,350.5,213.3,350.6,213.2z M350.3,213.2c-0.1,0.1-0.1,0.1-0.3,0C350.1,213.1,350.1,213.1,350.3,213.2z M350.1,213.8
		c-0.2-0.1-0.1-0.2,0.1-0.2C350.3,213.7,350.2,213.7,350.1,213.8z M350.7,216.8c-0.1,0-0.2-0.2-0.1-0.2
		C350.7,216.7,350.8,216.8,350.7,216.8z M351.3,217c0-0.1-0.1-0.1,0-0.1c-0.1,0-0.1-0.1-0.2-0.2c0.1-0.1,0.3,0.1,0.4,0.1
		C351.6,216.9,351.3,216.8,351.3,217z M352.1,216c-0.1,0,0.1,0.2-0.1,0.2c-0.2-0.2,0.1-0.2,0-0.3C352.1,215.9,352.1,216,352.1,216
		c0.2,0,0.2-0.2,0.3-0.2C352.5,216.1,352.1,216,352.1,216z M353.4,216c0,0.1-0.1,0.2-0.2,0C353.3,216,353.3,215.8,353.4,216z"/>
	<path d="M350.8,212.8c-0.1-0.1-0.2-0.1-0.3,0C350.6,212.9,350.7,212.8,350.8,212.8z"/>
	<path d="M355.3,248.7C355.3,248.7,355.3,248.7,355.3,248.7c-0.2,0-0.1,0.1-0.2,0.1c-0.1,0-0.2,0.1-0.3,0.2
		c-0.1,0.1-0.3,0.2-0.4,0.2c-0.1,0.1-0.1,0.1-0.2,0.2c-0.1,0.1-0.1,0.1-0.2,0.1c0-0.1-0.1,0-0.1,0c0,0-0.1,0-0.1,0
		c-0.1,0-0.1,0-0.2,0.1c-0.1,0-0.1,0.1-0.2,0.1c0,0-0.1,0-0.1,0c0,0,0,0-0.1,0c0.1,0.4,0.1,0.8,0.2,1.2c0.2-0.2,0.5-0.4,0.7-0.5
		c0.1-0.1,0.2-0.1,0.2-0.2c0,0,0.1,0,0.1,0c0.1,0,0.1-0.1,0.2-0.1c0.2-0.1,0.2-0.1,0.3-0.2c0.1-0.1,0.1-0.1,0.1-0.1c0,0,0,0,0-0.1
		c0,0-0.1,0-0.1,0c0,0,0.1-0.1,0.1-0.1c-0.1,0.1-0.1,0-0.1,0c0,0-0.2,0-0.2,0c0,0,0,0-0.1,0c-0.1,0-0.2,0.2-0.4,0.2c0,0-0.1,0-0.1,0
		c-0.1,0.1-0.2,0.1-0.2,0.1c0,0,0.1-0.1,0-0.1c-0.1,0-0.3,0.1-0.4,0.2c-0.2,0,0-0.2,0.2-0.3c0-0.1,0.1-0.2,0.2-0.2
		c0-0.1-0.1,0,0-0.1c0.1-0.1,0.2-0.2,0.3-0.2c0.1-0.1,0.2-0.1,0.3-0.2c0.1,0,0.1-0.1,0.2-0.2c0,0,0.1-0.1,0.1-0.1
		c0,0,0.1-0.1,0.1-0.1C355.3,248.8,355.3,248.8,355.3,248.7c0.2,0,0.4-0.2,0.5-0.3c0,0,0.1-0.1,0.1-0.1c0.1,0,0.1,0,0.1-0.1
		c0,0,0-0.1,0.1-0.1c0,0,0.1-0.1,0.1-0.1c0.1-0.1,0.2-0.2,0.3-0.3c-0.1,0-0.3,0.2-0.4,0.3c-0.1,0-0.1,0-0.2,0.1
		c-0.1,0.1-0.2,0.1-0.3,0.2c0,0,0.1,0,0,0.1C355.5,248.5,355.5,248.6,355.3,248.7z"/>
	<path d="M355.7,231.9c-0.1,0.1-0.5,0.3-0.6,0.4c-0.3,0.2-0.6,0.4-0.9,0.7c-0.2,0.1-0.4,0.3-0.6,0.4c-0.6,0.5-1.7,1.3-2.5,1.9
		c0,0-0.1,0-0.1,0.1c0,0.2,0.1,0.4,0.1,0.6c0.2-0.2,0.4-0.3,0.6-0.5c0.1-0.1,0.3-0.2,0.3-0.2c0.4-0.3,0.8-0.7,1.2-1
		c-0.2,0.2-0.6,0.5-0.8,0.6c-0.1,0.1-0.1,0.1-0.2,0.2c-0.2,0.1-0.2,0.2-0.3,0.2c-0.1,0-0.1,0.1-0.1,0.2c-0.2,0.1-0.2,0.2-0.3,0.2
		c-0.1,0.1-0.1,0.1-0.2,0.2c0,0.1,0,0.2,0.1,0.3c0.2-0.2,0.5-0.4,0.5-0.4c0.1-0.1,0.3-0.3,0.4-0.3c0.3-0.2,0.6-0.4,0.8-0.6
		c0.2-0.2-0.1,0,0.2-0.2c0.2-0.1,0.1,0,0.1,0c0.4-0.3,0.5-0.5,0.8-0.7c0.1-0.1,0.3-0.2,0.4-0.3c0.2-0.2,0.4-0.3,0.7-0.6
		c0.1-0.1-0.3,0.2,0,0c0.4-0.3,0.7-0.5,1.1-0.8c-0.1-0.3-0.1-0.6-0.2-0.9C356,231.7,355.9,231.8,355.7,231.9z M352.5,234.4
		c0,0,0.3-0.3,0.4-0.3C352.9,234.2,352.7,234.4,352.5,234.4z M353.9,233.9c0.3-0.2,0.8-0.7,1.3-1c0.3-0.2,0.5-0.4,0.7-0.6
		c0,0-0.1,0.1-0.1,0.1C355.3,232.9,354.4,233.6,353.9,233.9z"/>
	<path d="M351,235.3C351,235.3,351,235.3,351,235.3c0,0,0.2-0.1,0.3-0.2c0.1-0.1,0.3-0.3,0.5-0.4c0.2-0.1,0.4-0.3,0.5-0.4
		c0.5-0.4,0.8-0.7,1.3-0.9c0.8-0.7,1.8-1.4,2.6-1.9c-0.1-0.3-0.1-0.7-0.2-1c-0.2,0.1-0.4,0.3-0.4,0.3c-0.1,0.1-0.2,0.2-0.5,0.4
		c-0.5,0.3-0.8,0.5-1.1,0.7c-0.1,0.1-0.3,0.2-0.4,0.3c-0.2,0.2-0.5,0.3-0.7,0.5c-0.2,0.2-0.6,0.5-0.8,0.6c-0.2,0.1-0.7,0.6-1,0.8
		c-0.1,0.1-0.2,0.1-0.3,0.2C350.9,234.6,351,235,351,235.3z"/>
</g>
</svg>
