<?xml version="1.0" encoding="utf-8"?>
<!-- Generator: Adobe Illustrator 25.3.0, SVG Export Plug-In . SVG Version: 6.00 Build 0)  -->
<svg version="1.1" id="Layer_1" xmlns="http://www.w3.org/2000/svg" xmlns:xlink="http://www.w3.org/1999/xlink" x="0px" y="0px"
	 viewBox="0 0 750.2 400.1" style="enable-background:new 0 0 750.2 400.1;" xml:space="preserve">
<g>
	<path d="M336.4,156.3l4.9-3.8c-1.7-8.3-3.3-16.2-4.8-23.6l-4.8,3.7C333.1,140,334.7,148,336.4,156.3z"/>
	<path d="M349.4,194.2c-1.5-8-3-15.9-4.6-23.7l-5,3.8c1.5,7.8,3,15.8,4.5,23.8L349.4,194.2z"/>
	<path d="M357.1,237.1c-1.3-7.7-2.7-15.8-4.2-24l-5.1,3.9c1.5,8.3,2.9,16.3,4.2,24L357.1,237.1z"/>
	<path d="M358.1,284.2l5.3-4c-0.7-7.1-1.9-15.5-3.3-24.7l-5.2,3.9C356.3,268.8,357.4,277.2,358.1,284.2z"/>
	<path d="M613.6,157.5l5.7-4.4c-1.7-8.3-3.3-16.2-4.8-23.5l-5.6,4.3C610.4,141.3,611.9,149.2,613.6,157.5z"/>
	<path d="M627.4,194.8c-1.5-8-3-15.9-4.6-23.7l-5.7,4.4c1.5,7.9,3,15.8,4.5,23.8L627.4,194.8z"/>
	<path d="M635.2,237.7c-1.3-7.7-2.7-15.8-4.2-24l-5.8,4.5c1.5,8.3,2.9,16.4,4.2,24.1L635.2,237.7z"/>
	<path d="M635.3,285.5l6.1-4.6c-0.7-7-1.9-15.4-3.3-24.7l-6,4.5C633.6,270.1,634.7,278.5,635.3,285.5z"/>
	<path d="M415.4,128.2c-1.4,7.4-2.9,15.4-4.5,23.8l5.3,4c1.5-8.3,3-16.3,4.4-23.8L415.4,128.2z"/>
	<path d="M407.6,170.1c-1.4,7.9-2.9,15.9-4.3,24l5.4,4.1c1.4-8,2.8-16.1,4.2-24L407.6,170.1z"/>
	<path d="M405.6,217.4l-5.5-4.2c-1.4,8.3-2.7,16.4-3.9,24.2l5.5,4.2C402.9,233.9,404.2,225.7,405.6,217.4z"/>
	<path d="M399,260.3l-5.6-4.3c-1.3,9.4-2.4,17.8-3.1,24.9l5.7,4.4C396.7,278.3,397.7,269.8,399,260.3z"/>
	<path d="M137.5,128.5c-1.4,7.4-2.9,15.4-4.5,23.8l5.1,3.9c1.5-8.3,3-16.3,4.4-23.8L137.5,128.5z"/>
	<path d="M129.6,170.5c-1.4,7.9-2.9,15.9-4.3,24l5.2,4c1.4-8,2.8-16.1,4.2-24L129.6,170.5z"/>
	<path d="M127.4,217.6l-5.3-4c-1.4,8.3-2.7,16.4-3.9,24.2l5.4,4.1C124.7,234.1,126,225.9,127.4,217.6z"/>
	<path d="M120.9,260.5l-5.4-4.1c-1.3,9.4-2.4,17.8-3.1,24.9l5.6,4.2C118.6,278.5,119.6,270,120.9,260.5z"/>
</g>
</svg>
