<?xml version="1.0" encoding="utf-8"?>
<!-- Generator: Adobe Illustrator 25.3.0, SVG Export Plug-In . SVG Version: 6.00 Build 0)  -->
<svg version="1.1" id="Layer_1" xmlns="http://www.w3.org/2000/svg" xmlns:xlink="http://www.w3.org/1999/xlink" x="0px" y="0px"
	 viewBox="0 0 750.2 400.1" style="enable-background:new 0 0 750.2 400.1;" xml:space="preserve">
<g>
	<path d="M132.9,183.3l-15.4-8c0.1,7.3-0.3,15.3-1.3,23.9l16.7,8.6V183.3z"/>
	<path d="M132.9,226.5l-19.5-10.1c-1.5,6.9-3.4,14.1-5.9,21.5l25.3,13.1V226.5z"/>
	<polygon points="132.9,284.7 132.9,270.6 104.3,255.8 104.3,280.3 132.9,295.1 	"/>
	<path d="M132.9,337.5v-23.8L104.3,299l0,24.5l26.9,14C131.8,337.5,132.3,337.5,132.9,337.5z"/>
	<path d="M272.7,183.3v24.6l15.4-7.9c-1-8.5-1.4-16.5-1.4-23.8L272.7,183.3z"/>
	<path d="M272.7,251.1l24.2-12.4c-2.5-7.4-4.4-14.6-5.9-21.5l-18.2,9.4V251.1z"/>
	<polygon points="299.7,271.9 299.7,256.7 272.7,270.6 272.7,284.7 272.7,295.1 299.7,281.2 	"/>
	<path d="M272.7,313.8v23.8c0.5,0,1,0,1.6-0.1l25.5-13.2l-0.1-24.5L272.7,313.8z"/>
	<path d="M477.6,184.3l-17.9-9.9c0.1,7.3-0.2,15.3-1.2,23.9l19.1,10.6V184.3z"/>
	<path d="M477.6,227.5l-21.8-12.1c-1.4,6.9-3.3,14-5.7,21.4l27.5,15.3V227.5z"/>
	<polygon points="477.6,285.7 477.6,271.6 447.6,254.9 447.6,279.4 477.6,296.1 	"/>
	<path d="M477.6,338.5v-23.8l-30-16.7l0,24.6l28.4,15.8C476.6,338.5,477.1,338.5,477.6,338.5z"/>
	<path d="M614.7,184.3v24.6l17.8-9.7c-1-8.8-1.4-17-1.3-24.5L614.7,184.3z"/>
	<path d="M614.7,252.1l26.4-14.4c-2.5-7.3-4.3-14.5-5.8-21.4l-20.6,11.2V252.1z"/>
	<polygon points="643.3,271.9 643.1,271.9 643.1,256.1 614.7,271.6 614.7,285.7 614.7,296.1 643.3,280.5 	"/>
	<path d="M643.2,323.8l0-24.6l-28.6,15.6v23.8c0.5,0,1,0,1.6-0.1L643.2,323.8z"/>
</g>
</svg>
