<?xml version="1.0" encoding="utf-8"?>
<!-- Generator: Adobe Illustrator 25.3.0, SVG Export Plug-In . SVG Version: 6.00 Build 0)  -->
<svg version="1.1" id="Layer_1" xmlns="http://www.w3.org/2000/svg" xmlns:xlink="http://www.w3.org/1999/xlink" x="0px" y="0px"
	 viewBox="0 0 750.2 400.1" style="enable-background:new 0 0 750.2 400.1;" xml:space="preserve">
<g>
	<path d="M149.1,98.5c-2.6-0.3-4.5-0.5-5.6-0.7c-0.3,1.6-0.7,3.2-1,5c2.1-0.9,4.2-1.8,6.3-2.7C148.9,99.5,149,99,149.1,98.5z"/>
	<path d="M148.1,103.5c-2.1,0.9-4.2,1.8-6.3,2.7c-0.3,1.7-0.7,3.6-1.1,5.5c2.1-0.9,4.2-1.8,6.3-2.8
		C147.4,107,147.8,105.2,148.1,103.5z"/>
	<path d="M146.2,113c-2.1,0.9-4.2,1.8-6.3,2.8c-0.3,1.4-0.6,2.9-0.9,4.5c2.1-0.9,4.2-1.8,6.3-2.8C145.7,115.9,146,114.4,146.2,113z"
		/>
	<path d="M143.7,126.2c0.3-1.4,0.5-2.9,0.8-4.3c-2.1,0.9-4.2,1.8-6.3,2.8c-0.3,1.4-0.5,2.8-0.8,4.3
		C139.5,128,141.6,127.1,143.7,126.2z"/>
	<path d="M142.7,131.4c-2.1,0.9-4.2,1.8-6.3,2.8c-0.2,1.1-0.4,2.2-0.6,3.4c2.1-0.9,4.2-1.8,6.3-2.8
		C142.3,133.7,142.5,132.5,142.7,131.4z"/>
	<path d="M140.4,143.4c0.2-0.9,0.3-1.8,0.5-2.7c-2.1,0.9-4.2,1.8-6.3,2.8c-0.2,0.9-0.3,1.8-0.5,2.7
		C136.2,145.3,138.3,144.4,140.4,143.4z"/>
	<path d="M132.5,154.8c2.1-0.9,4.2-1.8,6.3-2.7c0.1-0.6,0.2-1.3,0.4-1.9c-2.1,0.9-4.2,1.8-6.3,2.7
		C132.7,153.5,132.6,154.2,132.5,154.8z"/>
	<path d="M137.5,159.3c-2.1,0.9-4.2,1.9-6.4,2.8c-0.1,0.5-0.2,1-0.3,1.5c2.1-0.9,4.2-1.8,6.4-2.8
		C137.3,160.3,137.4,159.8,137.5,159.3z"/>
	<path d="M135.7,169.5c0.1-0.4,0.1-0.7,0.2-1.1c-2.1,0.9-4.2,1.9-6.4,2.8c-0.1,0.4-0.1,0.7-0.2,1.1
		C131.4,171.4,133.6,170.5,135.7,169.5z"/>
	<path d="M134.1,178.2c0-0.2,0.1-0.4,0.1-0.6c-2.1,0.9-4.3,1.9-6.4,2.8c0,0.2-0.1,0.4-0.1,0.6C129.9,180.1,132,179.2,134.1,178.2z"
		/>
	<path d="M132.6,186.8c0-0.1,0-0.1,0-0.2c-2.1,0.9-4.3,1.9-6.4,2.8c0,0.1,0,0.1,0,0.2C128.4,188.7,130.5,187.8,132.6,186.8z"/>
	<path d="M601.6,97.9c0,0.2,0.1,0.5,0.1,0.7c0.8-0.4,1.7-0.7,2.5-1.1C603.5,97.6,602.6,97.8,601.6,97.9z"/>
	<path d="M608.9,103.5c-0.4-2-0.8-3.8-1.2-5.5c-1.9,0.8-3.7,1.6-5.6,2.4c0.4,1.7,0.7,3.6,1.1,5.5C605.1,105.1,607,104.3,608.9,103.5
		z"/>
	<path d="M609.4,105.7c-1.9,0.8-3.8,1.7-5.7,2.5c0.1,0.5,0.2,0.9,0.3,1.4c0.2,1.2,0.5,2.4,0.7,3.6c1.9-0.8,3.8-1.7,5.7-2.5
		C610.1,109,609.7,107.3,609.4,105.7z"/>
	<path d="M611.1,113.5c-1.9,0.8-3.8,1.7-5.8,2.5c0.3,1.5,0.6,3,0.9,4.6c1.9-0.8,3.9-1.7,5.8-2.5C611.7,116.5,611.4,115,611.1,113.5z
		"/>
	<path d="M612.8,121.6c-1.9,0.8-3.9,1.7-5.8,2.5c0.2,1.2,0.5,2.5,0.8,3.7c2-0.9,3.9-1.7,5.9-2.6C613.3,124,613,122.8,612.8,121.6z"
		/>
	<path d="M615.1,132.6c-0.2-1.2-0.5-2.4-0.7-3.5c-2,0.9-3.9,1.7-5.9,2.6c0.2,1.2,0.5,2.3,0.7,3.5
		C611.1,134.4,613.1,133.5,615.1,132.6z"/>
	<path d="M616,137c-2,0.9-4,1.7-6,2.6c0.2,0.9,0.4,1.9,0.6,2.8c2-0.9,4-1.7,6-2.6C616.4,138.9,616.2,138,616,137z"/>
	<path d="M618.1,147.1c-0.2-0.8-0.3-1.5-0.5-2.3c-2,0.9-4,1.7-6,2.6c0.1,0.7,0.3,1.5,0.4,2.3C614,148.9,616.1,148,618.1,147.1z"/>
	<path d="M613.5,157c2-0.9,4-1.8,6.1-2.6c-0.1-0.5-0.2-1.1-0.3-1.6c-2,0.9-4,1.8-6.1,2.6C613.2,155.9,613.4,156.4,613.5,157z"/>
	<path d="M620.8,160.6c-2,0.9-4.1,1.8-6.1,2.6c0.1,0.4,0.2,0.9,0.2,1.3c2-0.9,4.1-1.8,6.1-2.7C620.9,161.4,620.9,161,620.8,160.6z"
		/>
	<path d="M622.5,169.3c-0.1-0.3-0.1-0.7-0.2-1c-2,0.9-4,1.8-6,2.6c0.1,0.3,0.1,0.7,0.2,1C618.5,171.1,620.5,170.2,622.5,169.3z"/>
	<path d="M623.9,176.6c0-0.2-0.1-0.3-0.1-0.5c-2,0.9-4,1.8-6.1,2.6c0,0.2,0.1,0.3,0.1,0.5C619.9,178.4,621.9,177.5,623.9,176.6z"/>
	<path d="M625.4,184c0-0.1,0-0.1,0-0.2c-2,0.9-4.1,1.8-6.1,2.7c0,0.1,0,0.1,0,0.2C621.3,185.8,623.3,184.9,625.4,184z"/>
</g>
</svg>
