<?xml version="1.0" encoding="utf-8"?>
<!-- Generator: Adobe Illustrator 25.3.0, SVG Export Plug-In . SVG Version: 6.00 Build 0)  -->
<svg version="1.1" id="Layer_1" xmlns="http://www.w3.org/2000/svg" xmlns:xlink="http://www.w3.org/1999/xlink" x="0px" y="0px"
	 viewBox="0 0 750.2 400.1" style="enable-background:new 0 0 750.2 400.1;" xml:space="preserve">
<g>
	<path d="M223.9,363.7c-0.4-0.1-0.8-0.2-1.2-0.3c0,0,0,0,0,0c-9.1-2.3-18.2-3-27.3-2.1c-0.2,0-0.3,0-0.5,0.1
		c-1.2,0.1-2.4,0.3-3.6,0.5c0,0-0.1,0-0.1,0c-1.1,0.2-2.3,0.4-3.4,0.6c-0.4,0.1-0.9,0.2-1.3,0.3c-0.7,0.1-1.3,0.3-2,0.5
		c-7.1,1.7-14.3,4.4-21.4,8c4.5,0.5,9,0.9,13.5,1.3c17.1-6.5,34.2-6.7,51.4-0.6c4.6-0.4,9.2-0.9,13.8-1.4
		C235.7,367.5,229.7,365.3,223.9,363.7C223.8,363.7,223.9,363.7,223.9,363.7z"/>
	<path d="M299,353.3c-20.5-13.2-41-22.2-61.5-26.9c0,0,0,0,0,0c-3.1-0.7-6.2-1.3-9.3-1.9c-0.3,0-0.5-0.1-0.8-0.1
		c-1.4-0.2-2.7-0.4-4.1-0.6c-0.4-0.1-0.9-0.1-1.3-0.2c-1.1-0.1-2.2-0.3-3.2-0.4c-0.7-0.1-1.3-0.1-2-0.2c-0.9-0.1-1.7-0.2-2.6-0.2
		c-0.7,0-1.3-0.1-2-0.1c-1.1-0.1-2.1-0.1-3.2-0.2c-0.8,0-1.6,0-2.4-0.1c-0.5,0-1,0-1.5,0c-1.5,0-3,0-4.5,0c-0.3,0-0.5,0-0.8,0
		c-2.9,0.1-5.8,0.2-8.7,0.5c-0.1,0-0.2,0-0.3,0c-28.7,2.4-57.5,13.1-86.2,32.2l0,1.5l0,2.4v2.5c0,0,0,0,0,0c0,0-0.1,0,0,0h0
		c0,0,0.1,0,0.2,0c0,0,0,0,0,0v0c0,0,1.2,0.3,3.5,0.7c3.2-2.3,6.5-4.5,9.7-6.5c0,0,0,0,0,0c1.7-1.1,3.5-2.2,5.2-3.2
		c0.1,0,0.2-0.1,0.2-0.1c1.7-1,3.3-1.9,5-2.9c0.1-0.1,0.3-0.1,0.4-0.2c1.6-0.9,3.2-1.8,4.9-2.6c0.1-0.1,0.3-0.1,0.4-0.2
		c1.7-0.9,3.3-1.7,5-2.5c0.1,0,0.1-0.1,0.2-0.1c2.8-1.3,5.6-2.6,8.4-3.7c6-2.5,11.9-4.6,17.9-6.2c0.2,0,0.3-0.1,0.5-0.1
		c1.5-0.4,3-0.8,4.5-1.2c0.4-0.1,0.7-0.2,1.1-0.3c1.3-0.3,2.6-0.6,4-0.9c0.5-0.1,1-0.2,1.4-0.3c1.2-0.2,2.4-0.5,3.6-0.7
		c0.6-0.1,1.1-0.2,1.7-0.3c1.1-0.2,2.2-0.3,3.3-0.5c0.6-0.1,1.3-0.2,1.9-0.2c1-0.1,2.1-0.2,3.1-0.3c0.7-0.1,1.4-0.1,2.1-0.2
		c0.9-0.1,1.9-0.1,2.8-0.2c0.8,0,1.6-0.1,2.4-0.1c0.7,0,1.5,0,2.2-0.1c5.8-0.1,11.5,0.1,17.3,0.7c0,0,0,0,0,0
		c1.6,0.2,3.2,0.4,4.7,0.6c0,0,0.1,0,0.1,0c25,3.6,50.1,14.2,75.1,31.9c1.7-0.3,2.6-0.5,2.6-0.5v-2.2v-5.3V354
		c-0.4-0.2-0.7-0.5-1.1-0.7C298.9,353.3,299,353.3,299,353.3z"/>
	<path d="M276.5,357.2c-22.3-13.5-44.5-20.8-66.8-22c-0.8,0-1.6-0.1-2.5-0.1c-0.4,0-0.9,0-1.3,0c-1.1,0-2.2-0.1-3.3,0
		c-0.3,0-0.6,0-0.9,0c-1.2,0-2.5,0-3.7,0.1c-0.2,0-0.4,0-0.7,0c-1.3,0.1-2.7,0.1-4,0.2c-0.2,0-0.3,0-0.5,0c-1.4,0.1-2.8,0.3-4.2,0.4
		c-0.1,0-0.2,0-0.3,0c-1.5,0.2-2.9,0.4-4.4,0.6c0,0-0.1,0-0.1,0c-21.8,3.4-43.6,12.7-65.5,27.9c3.2,0.6,6.8,1.2,10.8,1.9
		c4.3-2.9,8.6-5.5,12.9-7.9c0.2-0.1,0.3-0.2,0.5-0.3c1.3-0.7,2.5-1.4,3.8-2c0.1-0.1,0.3-0.2,0.4-0.2c1.4-0.7,2.8-1.4,4.2-2.1
		c0,0,0,0,0.1,0c2.9-1.4,5.8-2.6,8.6-3.8c0,0,0,0,0.1,0c1.3-0.5,2.7-1,4-1.5c0.3-0.1,0.7-0.2,1-0.4c1-0.4,2.1-0.7,3.1-1
		c0.5-0.1,0.9-0.3,1.4-0.4c0.9-0.3,1.8-0.6,2.7-0.8c0.5-0.1,1-0.3,1.6-0.4c0.8-0.2,1.7-0.4,2.5-0.7c0.6-0.1,1.1-0.3,1.7-0.4
		c0.8-0.2,1.6-0.4,2.4-0.5c0.6-0.1,1.2-0.2,1.8-0.4c0.8-0.1,1.6-0.3,2.3-0.4c0.6-0.1,1.2-0.2,1.8-0.3c0.8-0.1,1.5-0.2,2.3-0.3
		c0.6-0.1,1.3-0.2,1.9-0.2c0.7-0.1,1.4-0.1,2.1-0.2c0.7-0.1,1.3-0.1,2-0.2c0.4,0,0.7,0,1.1-0.1c1.9-0.1,3.7-0.2,5.6-0.2
		c0.4,0,0.8,0,1.3,0c0.9,0,1.8,0,2.7,0c0.4,0,0.9,0,1.3,0c0.9,0,1.8,0.1,2.7,0.1c0.4,0,0.9,0,1.3,0.1c0.9,0.1,1.9,0.1,2.8,0.2
		c0.4,0,0.8,0.1,1.2,0.1c1,0.1,1.9,0.2,2.9,0.3c0.4,0,0.7,0.1,1.1,0.2c1,0.1,2,0.3,3,0.5c0.3,0.1,0.6,0.1,0.9,0.2
		c1.1,0.2,2.1,0.4,3.2,0.6c0.2,0,0.4,0.1,0.6,0.1c7.5,1.6,15.1,4,22.6,7.2c0.2,0.1,0.4,0.2,0.6,0.2c1.1,0.4,2.1,0.9,3.2,1.4
		c0.3,0.1,0.6,0.3,1,0.4c1,0.4,1.9,0.9,2.9,1.4c0.4,0.2,0.8,0.4,1.3,0.6c0.9,0.4,1.8,0.9,2.6,1.4c0.5,0.3,1.1,0.6,1.6,0.9
		c0.8,0.4,1.5,0.8,2.3,1.3c3.9,2.2,7.7,4.5,11.6,7.1c4.1-0.6,7.8-1.3,11-1.8c-3.5-2.4-7-4.7-10.4-6.8
		C276.4,357.2,276.5,357.2,276.5,357.2z"/>
	<path d="M105.2,292.3L105.2,292.3c28.9-8.7,57.8-13.6,86.6-14.6c0.3,0,0.5,0,0.8,0c1.5-0.1,3.1-0.1,4.6-0.1c0.5,0,1.1,0,1.6,0
		c1.3,0,2.6,0,3.9,0c1.1,0,2.2,0,3.4,0c0.7,0,1.5,0,2.2,0c4,0.1,8,0.2,12,0.4c0.1,0,0.2,0,0.3,0c1.9,0.1,3.8,0.2,5.7,0.4
		c0.2,0,0.3,0,0.5,0c1.9,0.1,3.7,0.3,5.6,0.5c0.1,0,0.3,0,0.4,0c1.9,0.2,3.8,0.4,5.7,0.6c0.1,0,0.2,0,0.3,0c2,0.2,3.9,0.5,5.9,0.7
		c0,0,0.1,0,0.1,0c10.2,1.3,20.3,3.1,30.4,5.4c0.1,0,0.2,0,0.3,0.1c1.8,0.4,3.6,0.8,5.4,1.3c0.6,0.1,1.2,0.3,1.7,0.4
		c1.3,0.3,2.6,0.6,3.9,1c0.9,0.2,1.8,0.5,2.6,0.7c0.9,0.3,1.9,0.5,2.8,0.8c1.1,0.3,2.3,0.6,3.4,1c0.6,0.2,1.2,0.4,1.9,0.5
		c0.7,0.2,1.4,0.4,2.1,0.6l0,0c0.1,0,0.1,0,0.2,0.1l0-8.3c-65.2-17.1-130.2-17-195.4,0.5l0,8.3C104.6,292.5,104.9,292.4,105.2,292.3
		z"/>
	<path d="M112.8,266.6c-0.3,0.1-0.6,0.1-0.9,0.2c-1.2,0.2-2.3,0.4-3.5,0.7c-1,0.2-2,0.4-3,0.6c-0.4,0.1-0.7,0.1-1.1,0.2v8.1
		c0.3-0.1,0.5-0.1,0.8-0.2l0,0c11.1-2.6,22.1-4.7,33.2-6.4c0.5-0.1,1-0.2,1.5-0.2c1.1-0.2,2.2-0.3,3.3-0.5c0.9-0.1,1.8-0.3,2.8-0.4
		c0.8-0.1,1.7-0.2,2.5-0.3c1.2-0.2,2.5-0.3,3.7-0.5c0.6-0.1,1.2-0.1,1.8-0.2c1.6-0.2,3.2-0.4,4.8-0.5c0.3,0,0.5-0.1,0.8-0.1
		c10.1-1,20.2-1.7,30.3-2c0,0,0.1,0,0.1,0c10.1-0.3,20.1-0.3,30.2,0.1c0.3,0,0.7,0,1,0c1.6,0.1,3.2,0.1,4.7,0.2
		c0.5,0,1.1,0.1,1.6,0.1c1.4,0.1,2.7,0.2,4.1,0.3c0.7,0,1.3,0.1,2,0.1c1.2,0.1,2.5,0.2,3.7,0.3c0.7,0.1,1.5,0.1,2.2,0.2
		c1.1,0.1,2.3,0.2,3.4,0.3c0.8,0.1,1.6,0.1,2.4,0.2c0.9,0.1,1.8,0.2,2.6,0.3c2.2,0.2,4.4,0.5,6.7,0.8c0.5,0.1,1,0.1,1.6,0.2
		c1.3,0.2,2.7,0.3,4,0.5c0.5,0.1,1,0.1,1.6,0.2c1.4,0.2,2.7,0.4,4.1,0.6c0.5,0.1,0.9,0.1,1.4,0.2c1.4,0.2,2.8,0.4,4.2,0.7
		c0.4,0.1,0.7,0.1,1.1,0.2c1.5,0.2,3,0.5,4.5,0.8c0.2,0,0.3,0.1,0.5,0.1c6.8,1.2,13.6,2.6,20.4,4.1c0.2,0,0.4,0.1,0.6,0.1
		c0.4,0.1,0.8,0.2,1.1,0.3l0,0c0,0,0.1,0,0.1,0l0-4v-4.1C237.4,255.6,175.1,255.2,112.8,266.6z"/>
	<path d="M287.2,190.9c-56.8,4.8-113.5,4.8-170.2-0.2c-0.2,2.5-0.4,5-0.7,7.5c0.3,0,0.5,0,0.8,0c0,0,0,0,0,0.1
		c56.8,3.5,113.6,3.5,170.4,0.1c0,0,0,0,0,0c0.2,0,0.3,0,0.5,0C287.6,195.8,287.4,193.3,287.2,190.9z"/>
	<path d="M287.5,160.2c-56.9,11.2-113.9,11.1-170.8-0.3c0.2,2.5,0.4,5.1,0.6,7.8c0.6,0.1,1.3,0.2,1.9,0.3c0,0,0,0,0,0.1
		c39.8,6.6,79.7,8.5,119.5,5.7c0.1,0,0.1,0,0.2,0c1.9-0.1,3.8-0.3,5.7-0.4c0.2,0,0.4,0,0.6-0.1c1.8-0.2,3.6-0.3,5.4-0.5
		c0.2,0,0.5,0,0.7-0.1c1.8-0.2,3.6-0.4,5.5-0.6c0.2,0,0.3,0,0.5-0.1c9.4-1,18.8-2.3,28.2-3.8c0,0,0,0,0,0c0.5-0.1,0.9-0.1,1.4-0.2
		C287.1,165.3,287.3,162.7,287.5,160.2z"/>
	<path d="M286.7,175.4c-0.4,0.1-0.8,0.1-1.1,0.2c0,0,0,0,0,0c-6,0.8-11.9,1.6-17.9,2.2c-0.2,0-0.4,0-0.5,0.1
		c-3.5,0.4-6.9,0.7-10.4,1c-0.1,0-0.2,0-0.3,0c-3.1,0.3-6.3,0.5-9.4,0.8c-0.6,0-1.1,0.1-1.7,0.1c-2.9,0.2-5.9,0.4-8.8,0.6
		c-0.9,0-1.8,0.1-2.7,0.1c-2.8,0.1-5.6,0.3-8.3,0.4c-1,0-2,0.1-3,0.1c-2.6,0.1-5.2,0.2-7.8,0.2c-1.1,0-2.1,0-3.2,0
		c-2.2,0-4.5,0.1-6.7,0.1c-1,0-1.9,0-2.9,0c-2.7,0-5.4,0-8.1-0.1c-1.1,0-2.1,0-3.2-0.1c-2.7-0.1-5.4-0.1-8.1-0.2c-1,0-2-0.1-2.9-0.1
		c-2.8-0.1-5.7-0.2-8.5-0.4c-0.7,0-1.3-0.1-2-0.1c-2.8-0.2-5.6-0.3-8.4-0.5c-0.4,0-0.9-0.1-1.3-0.1c-3.2-0.2-6.4-0.5-9.6-0.8
		c-0.5,0-0.9-0.1-1.4-0.1c-3.3-0.3-6.6-0.6-9.9-1c-0.2,0-0.4,0-0.6-0.1c-6.3-0.7-12.7-1.5-19-2.4c0,0,0,0,0,0
		c-0.5-0.1-1.1-0.1-1.6-0.2c0,2.5,0,5-0.1,7.6c6.9,0.8,13.7,1.5,20.6,2.1c0,0,0.1,0,0.1,0c3.2,0.3,6.3,0.5,9.5,0.8
		c0.7,0,1.3,0.1,2,0.1c2.8,0.2,5.7,0.4,8.5,0.6c1,0.1,2.1,0.1,3.1,0.2c2.6,0.1,5.2,0.3,7.8,0.4c1.4,0.1,2.7,0.1,4.1,0.2
		c2.3,0.1,4.6,0.2,6.9,0.3c1.9,0.1,3.7,0.1,5.6,0.1c1.9,0,3.7,0.1,5.6,0.1c3.2,0.1,6.3,0.1,9.5,0.1c0.6,0,1.2,0,1.7,0
		c27.9,0,55.8-1.5,83.6-4.6c0,0,0,0,0,0c0.3,0,0.6-0.1,0.9-0.1C286.7,180.3,286.7,177.8,286.7,175.4z"/>
	<path d="M111.3,131.3c0,0.1,0.4,1.3,1,3.4c1.4,0.4,2.7,0.8,4.1,1.2c0,0,0,0,0,0c0.6,0.2,1.2,0.4,1.8,0.5c1.2,0.3,2.3,0.7,3.5,1
		c0.8,0.2,1.6,0.4,2.3,0.6c1.1,0.3,2.2,0.6,3.3,0.9c0.8,0.2,1.6,0.4,2.4,0.6c1.1,0.3,2.1,0.5,3.2,0.8c0.8,0.2,1.6,0.4,2.4,0.6
		c1.1,0.3,2.2,0.5,3.2,0.8c0.8,0.2,1.6,0.3,2.3,0.5c1.1,0.2,2.2,0.5,3.3,0.7c0.8,0.2,1.5,0.3,2.3,0.5c1.1,0.2,2.2,0.4,3.4,0.6
		c0.7,0.1,1.5,0.3,2.2,0.4c1.2,0.2,2.3,0.4,3.5,0.6c0.7,0.1,1.4,0.2,2.1,0.3c1.2,0.2,2.4,0.4,3.6,0.5c0.7,0.1,1.3,0.2,2,0.3
		c1.2,0.2,2.5,0.3,3.7,0.5c0.6,0.1,1.2,0.2,1.8,0.2c1.3,0.2,2.6,0.3,3.9,0.4c0.6,0.1,1.1,0.1,1.7,0.2c1.4,0.1,2.7,0.3,4.1,0.4
		c0.5,0,1,0.1,1.5,0.1c1.5,0.1,2.9,0.2,4.4,0.3c0.4,0,0.8,0.1,1.2,0.1c1.6,0.1,3.2,0.2,4.7,0.3c0.3,0,0.5,0,0.8,0
		c1.8,0.1,3.5,0.1,5.3,0.2c0.1,0,0.2,0,0.3,0c30.8,0.7,61.5-3.6,92.3-12.8c0,0,0,0,0,0c1-0.3,2-0.6,3-0.9c0.7-2.6,1.2-4,1.2-4.1
		l0.1-0.3l0.2,0.1c-0.1-1.3-0.2-2.8-0.3-4.3c-60.6,21.4-121.2,21.2-181.7-0.6c-0.1,1.8-0.2,3.4-0.3,5l0.2-0.1L111.3,131.3z"/>
	<path d="M289.9,143.5c-58.5,15.8-117,15.6-175.7-0.5c0.5,2.4,1,5.2,1.4,8.3c1,0.2,1.9,0.5,2.9,0.7c0,0,0,0.1,0,0.1
		c33.9,7.8,67.9,10.9,101.8,9.3c0.2,0,0.5,0,0.7,0c1.6-0.1,3.2-0.2,4.8-0.3c0.6,0,1.1-0.1,1.7-0.1c1.3-0.1,2.5-0.2,3.8-0.3
		c0.8-0.1,1.5-0.1,2.3-0.2c1-0.1,2.1-0.2,3.1-0.3c0.9-0.1,1.9-0.2,2.8-0.3c0.7-0.1,1.4-0.2,2.2-0.2c4.3-0.5,8.6-1,12.9-1.6
		c0.4-0.1,0.8-0.1,1.2-0.2c1.4-0.2,2.7-0.4,4.1-0.6c0.5-0.1,1-0.2,1.5-0.2c1.3-0.2,2.6-0.4,3.9-0.6c0.6-0.1,1.1-0.2,1.7-0.3
		c1.3-0.2,2.5-0.4,3.8-0.7c0.6-0.1,1.2-0.2,1.9-0.4c1.2-0.2,2.4-0.5,3.6-0.7c0.8-0.2,1.5-0.3,2.3-0.5c1.1-0.2,2.1-0.4,3.2-0.7
		c1.6-0.3,3.2-0.7,4.8-1.1c0,0,0,0,0,0c0.7-0.2,1.4-0.3,2.1-0.5C288.9,148.7,289.4,146,289.9,143.5z"/>
	<path d="M251.6,48.9c-0.1,0-0.2,0-0.3,0c-0.2,0.2-0.4,0.3-0.6,0.4c0,1.8-0.2,4.7-0.7,7.5c-0.1,0.4-0.1,0.7-0.2,1.1c0,0,0,0,0,0
		c0,0.1,0,0.1,0,0.2c3.3-2.1,6.6-4.4,10-6.7L251.6,48.9z"/>
	<path d="M154.2,48.9l-7.9,2.4c2.9,2.1,5.8,4.1,8.6,5.8C154.4,53.5,154.2,48.9,154.2,48.9z"/>
	<path d="M602.3,368.2c-38.7-24.5-77.5-24.6-116.2-0.1c0,0,0,0,0,0c-2.8,1.7-5.5,3.6-8.3,5.6c2.8,1,5.8,1.9,8.9,2.9
		c3-2.1,5.9-4,8.9-5.7c0,0,0,0,0,0c14.1-8.3,28.1-12.9,42.2-14c0.1,0,0.2,0,0.3,0c1-0.1,1.9-0.1,2.9-0.2c0.1,0,0.1,0,0.2,0
		c1.8-0.1,3.7-0.1,5.5,0c0.2,0,0.4,0,0.5,0c0.8,0,1.7,0.1,2.5,0.1c0.4,0,0.7,0.1,1.1,0.1c1.5,0.1,2.9,0.3,4.4,0.5
		c0.3,0,0.7,0.1,1,0.1c0.7,0.1,1.4,0.2,2.1,0.3c0.6,0.1,1.1,0.2,1.7,0.3c0.6,0.1,1.3,0.2,1.9,0.4c1,0.2,2,0.4,2.9,0.7
		c0.6,0.1,1.2,0.3,1.7,0.5c0.8,0.2,1.7,0.5,2.5,0.7c0.5,0.1,1,0.3,1.4,0.4c1,0.3,2.1,0.7,3.1,1c0.2,0.1,0.4,0.1,0.6,0.2
		c1.3,0.5,2.6,1,3.8,1.5c0.3,0.1,0.6,0.2,0.8,0.4c1.2,0.5,2.4,1,3.5,1.6c0.1,0.1,0.3,0.1,0.4,0.2c6.2,2.9,12.4,6.6,18.7,10.9
		c3.2-0.9,6.2-1.9,9.1-2.8C607.9,371.9,605.1,370,602.3,368.2C602.3,368.2,602.3,368.2,602.3,368.2z"/>
	<path d="M582.8,373.3c-0.9-0.5-1.8-0.9-2.7-1.3c-0.5-0.3-1-0.5-1.6-0.7c-0.6-0.3-1.3-0.6-1.9-0.9c-0.7-0.3-1.5-0.6-2.2-1
		c-0.6-0.3-1.2-0.5-1.9-0.7c-0.5-0.2-1.1-0.4-1.6-0.6c-0.9-0.3-1.8-0.6-2.7-0.9c-0.5-0.2-1.1-0.3-1.6-0.5c-0.6-0.2-1.1-0.3-1.7-0.5
		c-0.8-0.2-1.5-0.4-2.3-0.6c-0.6-0.2-1.3-0.3-1.9-0.5c-0.6-0.1-1.1-0.2-1.7-0.4c-0.7-0.1-1.3-0.3-2-0.4c-0.8-0.1-1.5-0.3-2.3-0.4
		c-0.6-0.1-1.1-0.2-1.7-0.2c-0.6-0.1-1.1-0.1-1.7-0.2c-0.9-0.1-1.8-0.2-2.6-0.2c-0.6,0-1.1-0.1-1.7-0.1c-0.6,0-1.2,0-1.7,0
		c-0.8,0-1.7,0-2.5,0c-0.6,0-1.1,0-1.7,0c-0.6,0-1.2,0-1.7,0.1c-0.9,0.1-1.7,0.1-2.6,0.2c-0.6,0.1-1.2,0.1-1.8,0.2
		c-0.5,0.1-0.9,0.1-1.4,0.2c-1,0.1-2.1,0.3-3.1,0.5c-0.4,0.1-0.8,0.1-1.2,0.2c-0.7,0.1-1.4,0.3-2.1,0.4c-0.2,0-0.4,0.1-0.6,0.1
		c-1.4,0.3-2.7,0.7-4.1,1.1c-0.1,0-0.3,0.1-0.4,0.1c-8.9,2.6-17.8,6.9-26.6,12.7c3.1,0.8,6.4,1.6,9.7,2.4c4-2.4,8-4.4,12-6
		c0.7-0.3,1.4-0.5,2.1-0.8c0.5-0.2,0.9-0.4,1.4-0.5c0.7-0.3,1.4-0.5,2.1-0.7c0.5-0.2,1-0.3,1.4-0.5c0.7-0.2,1.4-0.4,2-0.6
		c0.5-0.1,1.1-0.3,1.6-0.4c0.6-0.2,1.3-0.3,1.9-0.4c0.6-0.1,1.2-0.2,1.8-0.4c0.6-0.1,1.1-0.2,1.7-0.3c0.7-0.1,1.4-0.2,2.1-0.3
		c0.5-0.1,0.9-0.1,1.4-0.2c0.9-0.1,1.9-0.2,2.8-0.2c0.2,0,0.5,0,0.7-0.1c2.5-0.1,5-0.1,7.5,0c0,0,0,0,0.1,0c1.2,0.1,2.4,0.2,3.6,0.3
		c0.2,0,0.3,0,0.5,0.1c1,0.1,2.1,0.3,3.1,0.4c0.3,0,0.5,0.1,0.8,0.1c1,0.2,1.9,0.4,2.9,0.6c0.3,0.1,0.6,0.1,1,0.2
		c0.9,0.2,1.7,0.4,2.6,0.7c0.4,0.1,0.8,0.2,1.2,0.3c0.8,0.2,1.5,0.5,2.3,0.7c0.5,0.2,1,0.3,1.5,0.5c0.5,0.2,1.1,0.4,1.6,0.6
		c0.7,0.3,1.4,0.5,2.1,0.8c0,0,0,0,0,0c4,1.6,8,3.6,12,6c3.3-0.7,6.6-1.5,9.8-2.3C589.4,377,586.1,375,582.8,373.3
		C582.8,373.3,582.8,373.3,582.8,373.3z"/>
	<path d="M639.5,354.7c-20.2-13.7-40.4-23.1-60.6-28.1c-0.2-0.1-0.4-0.1-0.6-0.2c-1.5-0.4-2.9-0.7-4.4-1c-0.2,0-0.4-0.1-0.7-0.1
		c-1.4-0.3-2.7-0.5-4.1-0.8c-0.2,0-0.4-0.1-0.6-0.1c-1.4-0.2-2.8-0.5-4.2-0.7c-0.4-0.1-0.7-0.1-1.1-0.2c-1.3-0.2-2.7-0.4-4-0.5
		c-0.3,0-0.7-0.1-1-0.1c-1.2-0.1-2.3-0.2-3.5-0.3c-0.3,0-0.6-0.1-1-0.1c-1.3-0.1-2.7-0.2-4-0.2c-0.4,0-0.8,0-1.3,0
		c-1.3,0-2.7-0.1-4-0.1c-0.3,0-0.7,0-1,0c-1.2,0-2.4,0-3.6,0.1c-0.3,0-0.6,0-0.9,0c-1.4,0.1-2.7,0.1-4.1,0.2c-0.4,0-0.7,0-1.1,0.1
		c-1.4,0.1-2.8,0.2-4.2,0.4c-0.2,0-0.4,0-0.6,0.1c-1.4,0.1-2.7,0.3-4.1,0.5c-0.2,0-0.3,0-0.5,0.1c-1.5,0.2-3,0.4-4.5,0.7
		c-0.2,0-0.4,0.1-0.6,0.1c-23.1,4.1-46.3,13.9-69.4,29.5c0,0,0,0,0,0c-0.7,0.4-1.3,0.9-2,1.4l-0.1,5.8c0,0,0.3,0.3,0.4,0.3l0,0
		c0,0,0,0,0,0c0,0.1,0.1,0.1,0.2,0.2c0.1,0,0.1,0.1,0.2,0.1c0,0,1,0.5,2.9,1.4c3.6-2.6,7.2-5.1,10.8-7.5c0.1-0.1,0.2-0.1,0.2-0.2
		c58.4-37.7,116.8-34.9,175.2,8.3c3.5-1.5,5.5-2.4,5.5-2.4v-3.3h0l0-0.7C641.9,356.4,640.7,355.6,639.5,354.7
		C639.5,354.7,639.5,354.7,639.5,354.7z"/>
	<path d="M621.5,361.8c-13.8-9.3-27.6-16.1-41.4-20.4c-0.3-0.1-0.5-0.2-0.8-0.3c-1.1-0.3-2.2-0.6-3.3-1c-0.5-0.1-1-0.3-1.5-0.4
		c-0.9-0.3-1.9-0.5-2.8-0.7c-0.7-0.2-1.3-0.3-2-0.5c-0.8-0.2-1.6-0.4-2.4-0.5c-0.8-0.2-1.6-0.3-2.4-0.5c-0.7-0.1-1.4-0.2-2.1-0.4
		c-1-0.2-1.9-0.3-2.9-0.4c-0.6-0.1-1.1-0.2-1.7-0.2c-1.1-0.1-2.3-0.3-3.4-0.4c-0.4,0-0.8-0.1-1.1-0.1c-1.4-0.1-2.9-0.2-4.3-0.3
		c-0.1,0-0.2,0-0.3,0c-9.6-0.4-19.2,0.4-28.8,2.4c0,0-0.1,0-0.1,0c-1.5,0.3-3.1,0.7-4.6,1.1c-0.1,0-0.2,0-0.3,0.1
		c-1.5,0.4-3,0.8-4.5,1.2c-0.1,0-0.3,0.1-0.4,0.1c-1.4,0.4-2.9,0.9-4.3,1.4c-0.2,0.1-0.3,0.1-0.5,0.2c-1.4,0.5-2.8,1-4.2,1.5
		c-0.2,0.1-0.4,0.1-0.6,0.2c-1.4,0.5-2.7,1.1-4.1,1.6c-0.2,0.1-0.5,0.2-0.7,0.3c-1.3,0.6-2.7,1.1-4,1.8c-0.3,0.1-0.5,0.2-0.8,0.4
		c-1.2,0.6-2.5,1.2-3.7,1.8c-0.4,0.2-0.7,0.4-1.1,0.5c-0.4,0.2-0.7,0.4-1.1,0.6c-6,3.1-12.1,6.6-18.1,10.7c0,0,0,0,0.1,0
		c-2.5,1.7-5,3.4-7.5,5.3c2.6,1.1,5.5,2.3,8.7,3.5c50.6-37.2,101.2-37,151.8,0.4c3.3-1.2,6.3-2.3,8.9-3.4
		C626.6,365.4,624,363.6,621.5,361.8C621.4,361.8,621.5,361.8,621.5,361.8z"/>
	<path d="M643.2,318.5c-1-0.5-2-0.9-3-1.3c-0.5-0.2-1-0.4-1.5-0.7c-1.3-0.6-2.6-1.2-4-1.7c-0.5-0.2-1.1-0.5-1.6-0.7
		c-1.3-0.6-2.6-1.1-3.9-1.6c-0.5-0.2-1.1-0.4-1.6-0.6c-1.3-0.5-2.7-1-4-1.5c-0.4-0.2-0.9-0.3-1.3-0.5c-4.5-1.6-9-3.2-13.5-4.5
		c-0.5-0.2-1-0.3-1.5-0.5c-1.1-0.3-2.2-0.6-3.3-1c-0.8-0.2-1.6-0.5-2.4-0.7c-1-0.3-2-0.5-3-0.8c-0.9-0.2-1.9-0.5-2.8-0.7
		c-0.9-0.2-1.9-0.4-2.8-0.7c-1-0.2-2.1-0.5-3.1-0.7c-0.8-0.2-1.7-0.4-2.5-0.5c-1.2-0.3-2.5-0.5-3.7-0.7c-0.6-0.1-1.3-0.2-1.9-0.4
		c-3.9-0.7-7.8-1.3-11.7-1.7c-0.1,0-0.2,0-0.3,0c-1.9-0.2-3.7-0.4-5.6-0.6c-0.3,0-0.6,0-0.8-0.1c-1.7-0.2-3.4-0.3-5.2-0.4
		c-0.3,0-0.6,0-0.8-0.1c-1.8-0.1-3.6-0.2-5.3-0.3c-0.2,0-0.3,0-0.5,0c-34.3-1.2-68.5,5.9-102.8,21.3v0c-0.3,0.1-0.6,0.3-0.9,0.4v9.3
		c0.3-0.1,0.6-0.3,0.8-0.4l0,0c0.6-0.3,1.2-0.6,1.8-0.9c0.1-0.1,0.2-0.1,0.3-0.2c10.3-5,20.6-9.2,30.9-12.6c0.1,0,0.2-0.1,0.3-0.1
		c1.7-0.6,3.4-1.1,5.1-1.6c0,0,0,0,0,0c46.8-14,93.5-10.8,140.3,9.5c0.1,0,0.2,0.1,0.3,0.1c1.6,0.7,3.3,1.4,4.9,2.2
		c0.3,0.1,0.6,0.3,1,0.5c1.4,0.7,2.9,1.4,4.3,2.1c1.8,0.9,3.7,1.8,5.5,2.8c0,0,0.1,0,0.1,0L643.2,318.5
		C643.2,318.5,643.2,318.5,643.2,318.5L643.2,318.5z"/>
	<path d="M643.2,337.3c-0.1-0.1-0.2-0.1-0.3-0.1c-30.4-17.4-60.8-26.8-91.1-28.1c-0.2,0-0.4,0-0.5,0c-1.8-0.1-3.7-0.1-5.5-0.1
		c-0.2,0-0.3,0-0.5,0c-4,0-7.9,0.1-11.9,0.3c-0.2,0-0.5,0-0.7,0c-1.7,0.1-3.4,0.2-5,0.4c-0.4,0-0.8,0.1-1.2,0.1
		c-1.6,0.2-3.3,0.4-4.9,0.6c-0.3,0-0.6,0.1-0.8,0.1c-3.9,0.5-7.7,1.2-11.6,2c-0.3,0.1-0.7,0.1-1,0.2c-1.6,0.3-3.2,0.7-4.8,1.1
		c-0.4,0.1-0.8,0.2-1.2,0.3c-1.8,0.4-3.6,0.9-5.3,1.4c-0.1,0-0.2,0.1-0.3,0.1c-4,1.1-8,2.3-11.9,3.7c-0.2,0.1-0.3,0.1-0.5,0.2
		c-1.9,0.7-3.8,1.3-5.7,2.1c-0.1,0-0.1,0.1-0.2,0.1c-10,3.8-19.9,8.5-29.9,14l0,0c-0.2,0.1-0.4,0.2-0.6,0.3v9.8
		c3-1.9,6.1-3.7,9.1-5.4c0,0,0.1,0,0.1-0.1c2.9-1.6,5.8-3.1,8.6-4.6c0.3-0.2,0.6-0.3,0.9-0.5c2.7-1.3,5.3-2.6,8-3.8
		c0.5-0.2,1.1-0.5,1.6-0.7c1-0.4,1.9-0.8,2.9-1.2c0.9-0.4,1.7-0.7,2.6-1.1c0.7-0.3,1.3-0.5,2-0.8c0.8-0.3,1.6-0.6,2.4-0.9
		c0.7-0.3,1.4-0.5,2.1-0.8c1-0.4,2-0.7,3.1-1.1c0.5-0.2,1.1-0.4,1.6-0.5c1.1-0.4,2.2-0.7,3.3-1.1c0.5-0.1,0.9-0.3,1.4-0.4
		c1.1-0.3,2.2-0.6,3.3-0.9c0.4-0.1,0.9-0.2,1.3-0.4c1.3-0.4,2.6-0.7,3.9-1c0.3-0.1,0.6-0.1,0.9-0.2c1.1-0.3,2.3-0.5,3.4-0.8
		c0.4-0.1,0.7-0.2,1.1-0.2c1.3-0.3,2.7-0.6,4-0.8c0.3-0.1,0.6-0.1,0.9-0.2c1.2-0.2,2.4-0.4,3.6-0.6c0.3,0,0.6-0.1,0.8-0.1
		c1.4-0.2,2.7-0.4,4.1-0.6c0.3,0,0.6-0.1,1-0.1c1.2-0.1,2.5-0.3,3.7-0.4c0.2,0,0.4,0,0.6-0.1c1.4-0.1,2.7-0.2,4.1-0.3
		c0.4,0,0.7,0,1.1-0.1c1.3-0.1,2.6-0.1,3.9-0.2c0.2,0,0.3,0,0.5,0c1.3,0,2.6-0.1,3.9-0.1c0.4,0,0.8,0,1.2,0c1.3,0,2.6,0,3.9,0.1
		c0.3,0,0.7,0,1,0c1,0,2.1,0.1,3.1,0.1c0.5,0,1,0.1,1.5,0.1c1.2,0.1,2.5,0.2,3.7,0.3c0.5,0,1,0.1,1.5,0.2c0.8,0.1,1.7,0.2,2.5,0.3
		c0.6,0.1,1.2,0.1,1.7,0.2c1.1,0.1,2.3,0.3,3.4,0.5c0.7,0.1,1.3,0.2,2,0.3c0.6,0.1,1.3,0.2,1.9,0.3c1.2,0.2,2.4,0.4,3.6,0.7
		c0.5,0.1,1.1,0.2,1.6,0.3c0.8,0.2,1.7,0.4,2.5,0.5c0.4,0.1,0.8,0.2,1.2,0.3c1.6,0.4,3.3,0.8,4.9,1.2c0.2,0,0.4,0.1,0.5,0.1
		c1,0.3,2,0.5,2.9,0.8c0,0,0,0,0,0c18.3,5.2,36.6,13.7,55,25.4v0c0,0,0,0,0,0L643.2,337.3C643.2,337.3,643.2,337.3,643.2,337.3
		L643.2,337.3z"/>
	<path d="M643.1,271.9L643.1,271.9V265c0,0,0,0,0,0l0,0c-42.7-9-85.4-12.2-128.1-9.6c-0.1,0-0.2,0-0.3,0c-1.8,0.1-3.7,0.2-5.5,0.4
		c-0.3,0-0.5,0-0.8,0.1c-1.7,0.1-3.4,0.3-5.1,0.4c-0.3,0-0.7,0.1-1,0.1c-1.7,0.1-3.3,0.3-5,0.5c-0.3,0-0.6,0.1-0.9,0.1
		c-1.9,0.2-3.9,0.4-5.8,0.6c-0.7,0.1-1.4,0.2-2.1,0.3c-1.2,0.1-2.3,0.3-3.5,0.4c-1.1,0.1-2.2,0.3-3.3,0.4c-0.7,0.1-1.5,0.2-2.2,0.3
		c-1.3,0.2-2.5,0.4-3.8,0.5c-0.6,0.1-1.1,0.2-1.7,0.3c-1.4,0.2-2.7,0.4-4.1,0.6c-0.4,0.1-0.8,0.1-1.2,0.2c-1.5,0.2-3,0.5-4.5,0.7
		c-0.2,0-0.4,0.1-0.5,0.1c-5.3,0.9-10.6,1.9-15.9,3v8.5c0.3-0.1,0.6-0.1,0.9-0.2v0c64.8-15.5,129.7-15.2,194.5,0.8l0,0
		c0.1,0,0.1,0,0.2,0.1l0-1.7H643.1z"/>
	<path d="M634.9,214.3c-22-0.3-43.9-0.5-65.9-0.6c-31.8-0.1-63.7,0-95.5,0.4c-5.8,0.1-11.7,0.1-17.5,0.2c-0.5,2.7-1.1,5.4-1.8,8.1
		c0.1,0,0.1,0,0.2,0c0,0,0,0,0,0c2.9-0.1,5.8-0.3,8.7-0.4c0,0,0,0,0.1,0c3.8-0.1,7.5-0.3,11.3-0.4c0.4,0,0.9,0,1.3,0
		c3.4-0.1,6.9-0.2,10.3-0.3c0.4,0,0.8,0,1.3,0c49.7-1.4,99.5-0.9,149.2,1.3c0,0,0,0,0,0c0.1,0,0.1,0,0.2,0
		C636,219.7,635.4,217,634.9,214.3z"/>
	<path d="M631.3,182.6c-57.2,5.4-114.4,5.5-171.6,0.3c-0.1,2.6-0.2,5.2-0.4,7.9c0.3,0,0.7,0,1,0.1c0,0,0,0,0,0.1
		c56.8,3.6,113.7,3.5,170.5-0.2c0,0,0-0.1,0-0.1c0.3,0,0.6,0,0.9-0.1C631.5,187.9,631.3,185.2,631.3,182.6z"/>
	<path d="M458,206.4C458,206.4,458,206.4,458,206.4c28.9,0.4,57.7,0.6,86.6,0.5c4.5,0,9,0,13.5,0c2.8,0,5.7,0,8.5,0c6,0,12,0,18-0.1
		c1.4,0,2.7,0,4.1,0c6.2,0,12.3-0.1,18.5-0.1c1.3,0,2.6,0,3.9,0c6.1-0.1,12.1-0.1,18.2-0.2c1.3,0,2.5,0,3.8,0c0,0,0,0,0,0
		c0.2,0,0.3,0,0.5,0c-0.4-2.7-0.8-5.4-1.1-8.1c-4.3,0.2-8.7,0.3-13,0.5c-0.3,0-0.6,0-1,0c-19.7,0.7-39.4,1.1-59.2,1.2
		c-2.2,0-4.4,0-6.5,0c-5.1,0-10.2,0-15.3,0c-3,0-6,0-9,0c-4,0-8-0.1-12-0.1c-3.6,0-7.2-0.1-10.8-0.2c-3-0.1-5.9-0.1-8.9-0.2
		c-4.4-0.1-8.8-0.2-13.2-0.3c-3.8-0.1-7.6-0.2-11.3-0.3c-0.2,0-0.4,0-0.5,0c-4.4-0.1-8.8-0.3-13.2-0.5c-0.3,2.6-0.7,5.3-1.1,8
		C457.6,206.4,457.8,206.4,458,206.4z"/>
	<path d="M458.8,158.4c0.8,0.1,1.6,0.3,2.4,0.4c0,0,0,0,0,0c52.4,9.2,104.9,9.6,157.3,1.4c0.4-0.1,0.7-0.1,1.1-0.2
		c1.6-0.2,3.1-0.5,4.7-0.8c0.6-0.1,1.2-0.2,1.8-0.3c1.2-0.2,2.4-0.4,3.6-0.6c0,0,0,0,0,0c0.8-0.1,1.6-0.3,2.4-0.4
		c0.3-3.1,0.7-5.9,1.1-8.5c-21.2,4.7-42.3,7.7-63.5,9c-0.1,0-0.2,0-0.4,0c-1.8,0.1-3.5,0.2-5.3,0.3c-0.4,0-0.7,0-1.1,0.1
		c-1.5,0.1-3,0.1-4.6,0.2c-0.6,0-1.1,0-1.7,0.1c-1.3,0-2.6,0.1-3.9,0.1c-0.8,0-1.5,0-2.3,0c-1,0-2.1,0-3.1,0c-1,0-2,0-3,0
		c-0.7,0-1.4,0-2.1,0c-1.3,0-2.6,0-3.9,0c-0.2,0-0.3,0-0.5,0c-25.8-0.4-51.6-3.2-77.5-8.6c0,0,0,0,0,0c-1-0.2-1.9-0.4-2.9-0.6
		C458.1,152.6,458.5,155.4,458.8,158.4z"/>
	<path d="M631.5,165.8c-16.4,2.6-32.9,4.4-49.3,5.5c-0.1,0-0.3,0-0.4,0c-3.3,0.2-6.6,0.4-9.9,0.6c-1.2,0.1-2.3,0.1-3.5,0.2
		c-1.5,0.1-3,0.1-4.6,0.2c-2.5,0.1-5,0.2-7.6,0.2c-1.1,0-2.1,0-3.2,0.1c-2.9,0-5.7,0.1-8.6,0.1c-0.6,0-1.2,0-1.8,0
		c-6.6,0-13.3-0.1-19.9-0.4c-0.2,0-0.5,0-0.7,0c-3.3-0.1-6.7-0.3-10-0.5c-0.3,0-0.7,0-1-0.1c-3.3-0.2-6.6-0.4-9.9-0.7
		c-0.3,0-0.7-0.1-1-0.1c-3.3-0.3-6.7-0.5-10-0.9c-0.2,0-0.4,0-0.6-0.1c-2.9-0.3-5.7-0.6-8.6-0.9c-0.9-0.1-1.8-0.2-2.7-0.3
		c-2.5-0.3-5-0.6-7.6-0.9c-1.5-0.2-3-0.4-4.6-0.6c-1-0.1-1.9-0.3-2.9-0.4c-1.4-0.2-2.8-0.4-4.1-0.6c0.2,2.6,0.3,5.3,0.3,8.1
		c0.5,0.1,1.1,0.1,1.6,0.2c0,0,0,0,0,0c56.1,6.6,112.2,6.5,168.3-0.3c0,0,0-0.1,0-0.1c0.5-0.1,1.1-0.1,1.6-0.2
		C631.3,171.2,631.4,168.4,631.5,165.8z"/>
	<path d="M459.6,141.7C459.6,141.7,459.6,141.7,459.6,141.7c44.2,10.8,88.3,13.1,132.5,7c0.5-0.1,1.1-0.2,1.6-0.2
		c1.3-0.2,2.6-0.4,3.9-0.6c0.8-0.1,1.5-0.2,2.3-0.4c1.1-0.2,2.1-0.3,3.2-0.5c0.9-0.1,1.7-0.3,2.6-0.5c0.9-0.2,1.9-0.3,2.8-0.5
		c1-0.2,1.9-0.4,2.9-0.5c0.8-0.2,1.7-0.3,2.5-0.5c1-0.2,2.1-0.4,3.1-0.6c0.8-0.2,1.5-0.3,2.3-0.5c1.1-0.2,2.2-0.5,3.3-0.7
		c0.6-0.1,1.2-0.3,1.8-0.4c2.2-0.5,4.4-1.1,6.6-1.6c0.2,0,0.4-0.1,0.6-0.1c0,0,0,0,0,0c1.2-0.3,2.3-0.6,3.5-0.9
		c1.2-5.6,2.3-8.8,2.4-8.9l0.1-0.3l0.3,0.1h0.2c0-0.1,0-0.2,0-0.3c-1.7,0.5-3.5,1-5.2,1.6c0,0,0,0,0,0c-1.5,0.4-2.9,0.8-4.4,1.2
		c-0.4,0.1-0.9,0.3-1.3,0.4c-1,0.3-2,0.5-3,0.8c-0.9,0.2-1.7,0.5-2.6,0.7c-0.8,0.2-1.7,0.4-2.5,0.6c-1,0.3-2.1,0.5-3.1,0.8
		c-0.7,0.2-1.5,0.3-2.2,0.5c-1.2,0.3-2.3,0.5-3.5,0.8c-0.6,0.1-1.3,0.3-1.9,0.4c-1.3,0.3-2.6,0.5-3.9,0.8c-0.5,0.1-1.1,0.2-1.6,0.3
		c-1.4,0.3-2.9,0.5-4.3,0.8c-0.4,0.1-0.8,0.1-1.1,0.2c-1.7,0.3-3.5,0.6-5.2,0.9c-0.1,0-0.2,0-0.2,0c-1.4,0.2-2.9,0.4-4.3,0.6
		c0,0-0.1,0-0.1,0c-1.4,0.2-2.8,0.4-4.2,0.6c-0.1,0-0.1,0-0.2,0c-1.4,0.2-2.7,0.3-4.1,0.5c-0.1,0-0.2,0-0.2,0
		c-1.4,0.2-2.7,0.3-4.1,0.4c-0.1,0-0.2,0-0.3,0c-1.3,0.1-2.7,0.3-4,0.4c-0.1,0-0.2,0-0.3,0c-1.3,0.1-2.7,0.2-4,0.3
		c-0.1,0-0.2,0-0.3,0c-1.3,0.1-2.7,0.2-4,0.3c-0.1,0-0.2,0-0.3,0c-1.3,0.1-2.7,0.1-4,0.2c-0.1,0-0.2,0-0.3,0c-1.3,0.1-2.6,0.1-4,0.1
		c-0.1,0-0.2,0-0.3,0c-1.3,0-2.6,0.1-4,0.1c-0.1,0-0.2,0-0.3,0c-1.3,0-2.7,0-4,0c-0.1,0-0.2,0-0.3,0c-1.3,0-2.7,0-4,0
		c-0.1,0-0.2,0-0.3,0c-1.3,0-2.7,0-4-0.1c-0.1,0-0.2,0-0.3,0c-1.4,0-2.7-0.1-4.1-0.1c-0.1,0-0.1,0-0.2,0c-1.4-0.1-2.8-0.1-4.1-0.2
		c-0.1,0-0.1,0-0.2,0c-1.4-0.1-2.8-0.2-4.2-0.3c0,0,0,0-0.1,0c-23-1.6-46-5.9-69-12.7c0.3,1.1,1.3,4.2,2.4,9.1
		C457.2,141.1,458.4,141.4,459.6,141.7z"/>
	<path d="M152.4,213.4c0.5,0,1,0,1.4,0c5,0,9.9,0.1,14.9,0.1c40.5,0.2,81,0.1,121.4-0.4c-0.5-2.6-0.9-5.1-1.3-7.6
		c-16.5,0.6-32.9,1-49.4,1.3c-1.1,0-2.2,0-3.3,0c-6.3,0.1-12.7,0.2-19,0.2c-2.1,0-4.2,0-6.3,0c-5.3,0-10.7,0-16,0
		c-2.4,0-4.8,0-7.3,0c-5.7,0-11.5-0.1-17.2-0.2c-1.8,0-3.6,0-5.4-0.1c-16.5-0.3-33.1-0.7-49.6-1.4c-0.4,2.5-0.8,5-1.3,7.6
		c0.1,0,0.3,0,0.4,0c0,0,0,0,0,0C127.1,213.2,139.8,213.3,152.4,213.4z"/>
	<path d="M122,105.2C122,105.2,122,105.2,122,105.2c1.1,0.5,2.2,0.9,3.2,1.4c0.8,0.3,1.5,0.6,2.3,1c1,0.4,2,0.8,2.9,1.2
		c0.8,0.3,1.7,0.7,2.5,1c0.9,0.4,1.8,0.7,2.7,1c0.9,0.3,1.9,0.7,2.8,1c0.8,0.3,1.7,0.6,2.5,0.9c1,0.4,2.1,0.7,3.1,1
		c0.7,0.2,1.5,0.5,2.2,0.7c1.3,0.4,2.7,0.8,4,1.2c0.5,0.1,0.9,0.3,1.4,0.4c1.8,0.5,3.6,1,5.4,1.4c0.3,0.1,0.6,0.1,0.9,0.2
		c1.5,0.4,3,0.7,4.5,1.1c0.6,0.1,1.1,0.2,1.7,0.4c1.2,0.3,2.5,0.5,3.7,0.8c0.7,0.1,1.3,0.2,2,0.4c1.1,0.2,2.3,0.4,3.4,0.6
		c0.7,0.1,1.4,0.2,2.1,0.3c1.1,0.2,2.2,0.3,3.3,0.5c0.7,0.1,1.5,0.2,2.2,0.3c1.1,0.1,2.1,0.3,3.2,0.4c0.7,0.1,1.5,0.2,2.2,0.2
		c1.1,0.1,2.1,0.2,3.2,0.3c0.8,0.1,1.5,0.1,2.3,0.2c1,0.1,2.1,0.1,3.1,0.2c0.8,0,1.5,0.1,2.3,0.1c1,0,2.1,0,3.1,0.1
		c0.8,0,1.5,0,2.3,0c1,0,2.1,0,3.1,0c0.8,0,1.5,0,2.3,0c1.2,0,2.4-0.1,3.5-0.1c1.5-0.1,3-0.2,4.5-0.3c0.8-0.1,1.7-0.1,2.5-0.2
		c1-0.1,2-0.2,3.1-0.3c0.8-0.1,1.5-0.1,2.3-0.2c1-0.1,2.1-0.3,3.1-0.4c0.7-0.1,1.4-0.2,2.2-0.3c1.1-0.2,2.1-0.3,3.2-0.5
		c0.7-0.1,1.4-0.2,2.1-0.3c1.1-0.2,2.2-0.4,3.3-0.6c0.7-0.1,1.3-0.3,2-0.4c1.1-0.2,2.2-0.5,3.3-0.7c0.6-0.1,1.3-0.3,1.9-0.4
		c1.1-0.3,2.3-0.5,3.4-0.8c0.6-0.1,1.2-0.3,1.8-0.5c1.2-0.3,2.4-0.6,3.6-1c0.5-0.1,1-0.3,1.5-0.4c1.3-0.4,2.5-0.7,3.8-1.1
		c0.4-0.1,0.7-0.2,1.1-0.3c6.1-1.9,12.1-4.1,18.2-6.6c0.5-0.2,1.1-0.4,1.6-0.7c0.9-0.4,1.7-0.7,2.6-1.1c0,0,0,0,0,0
		c3.1-1.4,6.2-2.8,9.3-4.3c-0.2-2.9-0.3-5.7-0.5-8.6c-21.7,11.6-43.4,19-65.1,22.1c0,0,0,0,0,0c-1.9,0.3-3.7,0.5-5.6,0.7
		c-0.2,0-0.4,0-0.6,0.1c-1.7,0.2-3.3,0.3-5,0.4c-0.3,0-0.6,0-1,0.1c-1.6,0.1-3.2,0.2-4.8,0.2c-0.4,0-0.7,0-1.1,0
		c-1.6,0.1-3.2,0.1-4.8,0.1c-0.3,0-0.7,0-1,0c-1.9,0-3.8,0-5.7-0.1c-0.2,0-0.4,0-0.7,0c-1.5-0.1-3-0.1-4.6-0.3
		c-0.5,0-0.9-0.1-1.4-0.1c-1.3-0.1-2.5-0.2-3.8-0.3c-0.6-0.1-1.3-0.1-1.9-0.2c-1.1-0.1-2.2-0.3-3.3-0.4c-0.8-0.1-1.5-0.2-2.3-0.3
		c-0.9-0.1-1.9-0.3-2.8-0.4c-0.9-0.1-1.8-0.3-2.6-0.4c-0.7-0.1-1.5-0.3-2.2-0.4c-1.1-0.2-2.1-0.4-3.2-0.6c-0.3-0.1-0.7-0.2-1-0.2
		c-6.4-1.4-12.7-3.1-19.1-5.3c0,0-0.1,0-0.1,0c-1.6-0.5-3.2-1.1-4.8-1.7c-0.1,0-0.2-0.1-0.4-0.1c-1.6-0.6-3.1-1.2-4.7-1.8
		c-0.1-0.1-0.3-0.1-0.4-0.2c-1.6-0.6-3.1-1.3-4.7-1.9c-0.1,0-0.2-0.1-0.3-0.1c-2.7-1.1-5.4-2.4-8-3.6c0,0,0,0,0,0
		c-3.9-1.8-7.8-3.8-11.6-6c-0.2,2.8-0.4,5.7-0.6,8.6C115.6,102.3,118.8,103.8,122,105.2C122,105.2,122,105.2,122,105.2z"/>
	<path d="M118,119.8c35.6,13.4,71.1,18.4,106.7,15c0.1,0,0.2,0,0.3,0c1.7-0.2,3.4-0.4,5.1-0.6c0.3,0,0.5-0.1,0.8-0.1
		c1.6-0.2,3.1-0.4,4.7-0.6c0.3,0,0.7-0.1,1-0.1c1.5-0.2,3.1-0.5,4.6-0.7c0.3-0.1,0.6-0.1,1-0.2c1.7-0.3,3.3-0.6,5-0.9
		c0.2,0,0.3-0.1,0.5-0.1c3.6-0.7,7.3-1.5,10.9-2.4c0.6-0.1,1.2-0.3,1.8-0.5c1.2-0.3,2.3-0.6,3.5-0.9c0.7-0.2,1.5-0.4,2.2-0.6
		c1-0.3,2-0.6,3.1-0.9c0.8-0.2,1.6-0.5,2.4-0.7c1-0.3,1.9-0.6,2.9-0.9c0.8-0.3,1.7-0.5,2.5-0.8c0.9-0.3,1.9-0.6,2.8-0.9
		c0.9-0.3,1.7-0.6,2.6-0.9c0.9-0.3,1.9-0.7,2.8-1c0.5-0.2,0.9-0.3,1.4-0.5c0,0,0,0,0,0c2.1-0.8,4.2-1.5,6.3-2.4
		c-0.1-2.7-0.2-5.5-0.3-8.4c-60.1,26.5-120.3,26.3-180.3-0.8c-0.1,2.9-0.2,5.7-0.4,8.4C113.7,118.1,115.9,118.9,118,119.8
		C118,119.7,118,119.8,118,119.8z"/>
	<path d="M245.1,90.6c0.1,0,0.3-0.1,0.4-0.1c1.5-0.5,3-1.1,4.4-1.6c0,0,0,0,0.1,0c12.7-4.9,25.5-11.9,38.2-20.8
		c-0.8-3.4-1.6-5.9-2.6-7.8c-7.2,5.5-14.5,10.2-21.7,14.3c0,0,0,0,0,0c-1.9,1.1-3.9,2.1-5.8,3.1c-0.1,0.1-0.2,0.1-0.4,0.2
		c-2.8,1.4-5.6,2.7-8.5,3.9c-0.3,0.1-0.6,0.3-1,0.4c-1.3,0.5-2.6,1-3.9,1.5c-0.4,0.1-0.7,0.3-1.1,0.4c-0.9,0.3-1.8,0.6-2.7,1
		c-0.6,0.2-1.3,0.4-1.9,0.6c-2.7,3.6-6,6.9-10,9.6c4.2-0.9,8.4-2,12.6-3.3C242.6,91.4,243.8,91,245.1,90.6z"/>
	<path d="M135.6,79.1c1,0.6,2,1.1,3,1.6c0.1,0.1,0.2,0.1,0.3,0.2c3.3,1.7,6.6,3.4,9.9,4.8c0.5,0.2,0.9,0.4,1.4,0.6
		c0.9,0.4,1.8,0.8,2.7,1.2c0.4,0.2,0.8,0.3,1.3,0.5c1,0.4,2,0.8,3,1.2c0.1,0,0.3,0.1,0.4,0.1c5.5,2.1,11,3.7,16.5,5.1
		c0,0-0.1,0-0.1-0.1c0.5,0.1,1,0.2,1.5,0.4c-3.8-2.7-7-6.1-9.7-9.7c-15.4-5.3-30.9-13.8-46.2-25.6l-0.3,0.1c-0.3,0.5-0.6,1-0.9,1.5
		c-0.8,1.5-1.3,3.3-2,5.8C122.8,71.4,129.2,75.5,135.6,79.1C135.6,79.1,135.6,79.1,135.6,79.1z"/>
	<path d="M127.6,91.3c2.7,1.4,5.5,2.7,8.2,3.9c0,0,0,0,0,0c7.3,3.3,14.5,6,21.8,8.3c0.3,0.1,0.7,0.2,1,0.3c1.4,0.4,2.8,0.8,4.2,1.2
		c0.5,0.1,0.9,0.2,1.4,0.4c1.3,0.3,2.6,0.7,3.9,1c0.5,0.1,0.9,0.2,1.4,0.3c1.4,0.3,2.9,0.6,4.3,0.9c0.3,0.1,0.6,0.1,0.9,0.2
		c1.8,0.3,3.5,0.6,5.3,0.9c0.2,0,0.5,0.1,0.7,0.1c1.5,0.2,3,0.4,4.4,0.6c0.6,0.1,1.1,0.1,1.7,0.2c1.2,0.1,2.3,0.2,3.5,0.3
		c0.6,0.1,1.2,0.1,1.9,0.1c1.1,0.1,2.3,0.2,3.4,0.2c0.6,0,1.2,0.1,1.8,0.1c1.2,0,2.5,0.1,3.7,0.1c0.5,0,1,0,1.5,0
		c1.7,0,3.5,0,5.2-0.1c0.1,0,0.1,0,0.2,0c1.7-0.1,3.3-0.1,5-0.3c0.5,0,1-0.1,1.5-0.1c1.2-0.1,2.5-0.2,3.7-0.3
		c0.6-0.1,1.1-0.1,1.7-0.2c1.2-0.1,2.4-0.3,3.6-0.5c0.5-0.1,1.1-0.1,1.6-0.2c1.3-0.2,2.7-0.4,4-0.6c0.4-0.1,0.8-0.1,1.2-0.2
		c3.5-0.6,7.1-1.4,10.6-2.3c0.2-0.1,0.4-0.1,0.6-0.2c1.6-0.4,3.1-0.8,4.7-1.3c0.4-0.1,0.7-0.2,1.1-0.3c1.4-0.4,2.9-0.9,4.3-1.3
		c0.3-0.1,0.7-0.2,1-0.3c1.6-0.5,3.1-1.1,4.7-1.6c0.2-0.1,0.3-0.1,0.5-0.2c5.5-2,10.9-4.3,16.4-6.9c0.1,0,0.1-0.1,0.2-0.1
		c0.9-0.4,1.8-0.9,2.8-1.3c0,0,0,0,0,0c4.6-2.3,9.2-4.7,13.7-7.4c-0.3-3-0.6-5.9-1-8.6c-5.5,3.5-10.9,6.7-16.4,9.6c0,0,0,0,0,0
		c-0.4,0.2-0.8,0.4-1.2,0.6c-0.9,0.4-1.7,0.9-2.6,1.3c-0.8,0.4-1.6,0.8-2.4,1.2c-1.1,0.5-2.1,1-3.2,1.5c-0.6,0.3-1.2,0.6-1.8,0.8
		c-1.6,0.7-3.3,1.4-4.9,2.1c-0.5,0.2-1,0.4-1.5,0.6c-1.2,0.5-2.4,1-3.7,1.4c-0.6,0.2-1.1,0.4-1.7,0.6c-1.2,0.4-2.4,0.8-3.6,1.2
		c-0.5,0.2-1,0.3-1.5,0.5c-1.4,0.4-2.7,0.8-4.1,1.2c-0.3,0.1-0.7,0.2-1,0.3c-2.6,0.7-5.2,1.4-7.7,1.9c-2.8,0.6-5.5,1.1-8.3,1.6
		c0,0-0.1,0-0.1,0c-1.1,0.2-2.2,0.3-3.3,0.5c-0.2,0-0.3,0-0.5,0.1c-0.9,0.1-1.9,0.2-2.8,0.3c-0.2,0-0.3,0-0.5,0c-1,0.1-2,0.2-3,0.3
		c-0.1,0-0.1,0-0.2,0c-33,2.6-65.9-7-98.9-28.7c-0.4,2.7-0.8,5.6-1.1,8.7C118.3,86.4,123,88.9,127.6,91.3
		C127.6,91.3,127.6,91.3,127.6,91.3z"/>
	<path d="M148.1,69c3.6,2.1,7.3,3.9,10.9,5.5c0,0,0-0.1,0-0.1c0.3,0.2,0.7,0.3,1,0.5c-1.4-3-2.4-6.2-3.3-9.2
		c-6.3-3.3-12.5-7.3-18.7-11.9l-8.8,2.7C135.5,61.3,141.8,65.5,148.1,69C148.1,69,148.1,69,148.1,69z"/>
	<path d="M245.6,75.2c3.9-1.7,7.8-3.6,11.7-5.8c0,0,0,0,0,0c6.6-3.7,13.1-8,19.7-12.9l-8.9-2.7c-6.7,5-13.5,9.2-20.1,12.7
		c-0.9,3.1-2,6.2-3.4,9.2C244.9,75.5,245.2,75.4,245.6,75.2C245.6,75.2,245.6,75.2,245.6,75.2z"/>
	<path d="M522.4,137.8c0.9,0.1,1.9,0.1,2.8,0.2c1,0.1,1.9,0.1,2.9,0.2c0.7,0,1.4,0.1,2,0.1c1.2,0.1,2.4,0.1,3.7,0.2
		c0.6,0,1.2,0,1.8,0.1c1.3,0,2.6,0.1,3.9,0.1c0.6,0,1.2,0,1.7,0c1.3,0,2.6,0,3.9,0c0.6,0,1.2,0,1.8,0c1.3,0,2.6,0,3.8-0.1
		c0.6,0,1.3,0,1.9-0.1c1.2,0,2.5-0.1,3.7-0.1c0.7,0,1.4-0.1,2.1-0.1c1.2-0.1,2.3-0.1,3.5-0.2c0.7,0,1.5-0.1,2.2-0.2
		c1.1-0.1,2.2-0.2,3.3-0.3c0.8-0.1,1.7-0.1,2.5-0.2c1-0.1,2-0.2,3-0.3c0.9-0.1,1.8-0.2,2.8-0.3c0.9-0.1,1.8-0.2,2.6-0.3
		c1-0.1,2.1-0.3,3.1-0.4c0.7-0.1,1.5-0.2,2.2-0.3c1.2-0.2,2.4-0.3,3.5-0.5c0.6-0.1,1.1-0.2,1.7-0.3c1.4-0.2,2.7-0.5,4.1-0.7
		c0.3-0.1,0.6-0.1,0.9-0.2c1.7-0.3,3.3-0.6,5-1c0.9-0.2,1.8-0.4,2.7-0.6c0.7-0.2,1.5-0.3,2.2-0.5c1.1-0.2,2.2-0.5,3.3-0.8
		c0.5-0.1,0.9-0.2,1.4-0.3c1.3-0.3,2.6-0.6,3.9-0.9c0.2,0,0.3-0.1,0.5-0.1c8.3-2.1,16.6-4.6,25-7.5c-0.1-2.7-0.2-5.7-0.3-8.7
		c-2.7,1-5.3,2-8,3c0,0,0,0,0,0c-55.8,19.8-111.7,20.1-167.5,1c0,0,0,0.1,0,0.1c-2.6-0.9-5.2-1.8-7.8-2.8c-0.1,3-0.2,5.9-0.3,8.6
		c22.9,7.6,45.7,12.3,68.5,14.2C522.2,137.8,522.3,137.8,522.4,137.8z"/>
	<path d="M487.2,101.8c1.9,0.6,3.7,1.2,5.6,1.8c0.1,0,0.2,0.1,0.3,0.1c1.5,0.4,3,0.9,4.6,1.3c0.3,0.1,0.6,0.2,0.8,0.2
		c1.4,0.4,2.8,0.7,4.2,1.1c0.4,0.1,0.8,0.2,1.2,0.3c1.3,0.3,2.6,0.6,3.9,0.9c0.5,0.1,1.1,0.2,1.6,0.3c1.2,0.2,2.4,0.5,3.6,0.7
		c0.7,0.1,1.3,0.2,2,0.3c1.1,0.2,2.2,0.4,3.2,0.5c0.9,0.1,1.8,0.3,2.7,0.4c0.8,0.1,1.7,0.2,2.5,0.3c3.6,0.4,7.3,0.8,10.9,1
		c0.1,0,0.2,0,0.3,0c1.8,0.1,3.5,0.2,5.2,0.2c0.2,0,0.3,0,0.5,0c1.7,0,3.4,0,5.1,0c0.1,0,0.3,0,0.4,0c1.7,0,3.5-0.1,5.2-0.1
		c0.1,0,0.2,0,0.3,0c23.3-1,46.6-6.7,69.9-17.1c0,0,0,0,0-0.1c4.8-2.1,9.6-4.5,14.4-7c-0.1-0.8-0.1-1.5-0.2-2.3
		c-0.2-2.3-0.5-4.5-0.8-6.6C584.7,107,534.8,112,484.8,93c-0.3-0.1-0.6-0.2-0.8-0.3c-1.5-0.6-3-1.2-4.5-1.8c-0.3-0.1-0.7-0.3-1-0.4
		c-1.6-0.7-3.2-1.4-4.8-2.1c-0.2-0.1-0.3-0.2-0.5-0.2c-5.5-2.5-11.1-5.3-16.6-8.5c-0.2,1.8-0.5,3.6-0.7,5.5c0,0.2,0,0.5-0.1,0.7
		c0,0.2,0,0.4-0.1,0.6c-0.1,0.7-0.1,1.4-0.2,2.1c10.3,5.3,20.6,9.6,30.9,13C486.7,101.6,486.9,101.7,487.2,101.8z"/>
	<path d="M486.5,116.8c1.6,0.4,3.2,0.8,4.8,1.2c0.6,0.1,1.1,0.3,1.7,0.4c1.3,0.3,2.7,0.6,4,0.9c0.9,0.2,1.9,0.4,2.8,0.6
		c1.1,0.2,2.1,0.4,3.2,0.6c2,0.4,4.1,0.8,6.1,1.1c0,0,0.1,0,0.1,0c1.5,0.3,3.1,0.5,4.6,0.7c0.3,0,0.5,0.1,0.8,0.1
		c1.4,0.2,2.8,0.4,4.2,0.5c0.4,0,0.8,0.1,1.2,0.1c1.3,0.1,2.6,0.3,3.9,0.4c0.6,0.1,1.1,0.1,1.7,0.1c1.2,0.1,2.3,0.2,3.5,0.3
		c1.7,0.1,3.4,0.2,5.1,0.3c0.4,0,0.9,0,1.3,0c1.4,0.1,2.8,0.1,4.2,0.1c0.5,0,0.9,0,1.4,0c1.4,0,2.8,0,4.2,0c0.4,0,0.8,0,1.2,0
		c1.5,0,3,0,4.5-0.1c0.3,0,0.6,0,0.9,0c1.6-0.1,3.3-0.1,4.9-0.2c0.2,0,0.3,0,0.5,0c23.3-1.4,46.5-6.7,69.8-15.7c0,0,0,0,0,0
		c3.3-1.3,6.6-2.6,9.9-4.1c0-0.9-0.1-1.9-0.1-2.8c-0.1-2-0.2-4.1-0.4-6.1c-4.5,2.2-9,4.2-13.5,6c-0.2,0.1-0.4,0.2-0.6,0.3
		c-1.4,0.6-2.7,1.1-4.1,1.6c-0.1,0-0.2,0.1-0.3,0.1c-38.3,14.8-76.6,18-114.9,9.8c0,0-0.1,0-0.1,0c-1.5-0.3-2.9-0.7-4.4-1
		c-0.1,0-0.1,0-0.2,0c-1.5-0.3-2.9-0.7-4.4-1.1c-0.1,0-0.2,0-0.2-0.1c-1.5-0.4-3-0.8-4.6-1.3c-0.1,0-0.2,0-0.2-0.1
		c-1.7-0.5-3.3-1-5-1.5c-0.5-0.1-0.9-0.3-1.4-0.4c-1.3-0.4-2.6-0.8-3.8-1.3c-0.7-0.2-1.3-0.5-2-0.7c-1-0.4-2.1-0.7-3.1-1.1
		c-0.8-0.3-1.7-0.6-2.5-0.9c-0.8-0.3-1.6-0.6-2.3-0.9c-0.7-0.3-1.5-0.6-2.2-0.9c0,0,0,0,0,0c-3.8-1.6-7.7-3.2-11.5-5
		c-0.1,1.6-0.2,3.3-0.3,4.9c-0.1,1.3-0.1,2.6-0.2,3.9C465.1,110.2,475.7,113.9,486.5,116.8C486.5,116.7,486.5,116.8,486.5,116.8z"/>
	<path d="M488.2,70.7c25.4,12.4,50.9,16.4,76.3,11.8c0,0,0,0,0,0c1.6-0.3,3.2-0.6,4.8-1c0.1,0,0.1,0,0.2,0c1.5-0.3,3.1-0.7,4.6-1.1
		c0.1,0,0.2-0.1,0.3-0.1c1.5-0.4,3-0.8,4.6-1.3c0.1,0,0.2-0.1,0.3-0.1c1.5-0.5,3-1,4.6-1.5c0.1,0,0.2-0.1,0.3-0.1
		c1.5-0.5,3.1-1.1,4.6-1.7c0.1,0,0.2-0.1,0.2-0.1c1.6-0.6,3.2-1.3,4.8-2c0,0,0,0,0.1,0c2.6-1.1,5.2-2.4,7.8-3.7c0,0,0,0,0,0
		c7.2-3.6,14.3-7.9,21.5-12.8l-9.6-2.9c-6.8,4.6-13.6,8.5-20.3,11.7c-0.7,0.3-1.4,0.7-2.1,1c-0.8,0.4-1.6,0.7-2.4,1.1
		c-0.6,0.3-1.2,0.5-1.9,0.8c-0.9,0.4-1.8,0.7-2.7,1.1c-0.5,0.2-1,0.4-1.5,0.6c-1,0.4-2,0.7-3,1.1c-0.4,0.1-0.7,0.2-1.1,0.4
		c-1.1,0.4-2.3,0.7-3.4,1.1c-0.2,0.1-0.3,0.1-0.5,0.1c-1,0.3-1.9,0.6-2.9,0.8c-0.2,0-0.4,0.1-0.5,0.1c-0.8,0.2-1.6,0.4-2.4,0.6
		c-0.2,0-0.3,0.1-0.5,0.1c-0.9,0.2-1.8,0.4-2.8,0.6c0,0-0.1,0-0.1,0c-29.7,6.2-59.4-0.5-89.1-20.1l-9.7,2.9
		C473.9,62.9,481.1,67.1,488.2,70.7C488.2,70.6,488.2,70.6,488.2,70.7z"/>
	<path d="M477.3,81.8c13.5,6.4,27.1,10.9,40.6,13.4c0.2,0,0.4,0.1,0.6,0.1c1.5,0.3,3.1,0.5,4.6,0.8c0.3,0,0.6,0.1,0.9,0.1
		c1.5,0.2,3.1,0.4,4.6,0.6c0.2,0,0.5,0.1,0.7,0.1c3.5,0.4,7,0.6,10.5,0.7c0.4,0,0.8,0,1.2,0c1.3,0,2.6,0,3.9,0c0.6,0,1.3,0,1.9,0
		c1.1,0,2.1-0.1,3.2-0.1c0.7,0,1.4-0.1,2.1-0.1c1-0.1,2-0.1,3-0.2c0.7-0.1,1.5-0.1,2.2-0.2c1-0.1,1.9-0.2,2.9-0.3
		c0.7-0.1,1.5-0.2,2.2-0.3c1.2-0.2,2.4-0.3,3.6-0.5c1.2-0.2,2.5-0.4,3.7-0.6c0.8-0.2,1.7-0.3,2.5-0.5c0.9-0.2,1.8-0.4,2.7-0.6
		c0.8-0.2,1.5-0.3,2.3-0.5c0.9-0.2,1.9-0.5,2.8-0.7c0.7-0.2,1.5-0.4,2.2-0.6c1-0.3,1.9-0.5,2.9-0.8c0.7-0.2,1.4-0.4,2.1-0.6
		c1-0.3,2-0.6,3-0.9c0.6-0.2,1.2-0.4,1.8-0.6c3.7-1.3,7.3-2.6,11-4.2c0.6-0.3,1.2-0.5,1.8-0.8c1-0.4,2-0.9,3.1-1.4
		c0.7-0.3,1.3-0.6,2-0.9c1-0.5,2-0.9,3-1.4c0.1,0,0.1-0.1,0.2-0.1c0,0,0,0,0,0c6.7-3.3,13.4-7.1,20.1-11.3c-0.4-1.9-0.9-3.6-1.4-5.2
		c-0.1-0.2-0.1-0.4-0.2-0.5c0-0.1-0.1-0.2-0.1-0.2c-0.3-0.8-0.6-1.5-0.9-2.2c-8.3,5.7-16.6,10.5-24.9,14.6c-0.7,0.4-1.5,0.7-2.2,1.1
		c-1.1,0.5-2.1,1-3.2,1.4c-0.6,0.3-1.2,0.5-1.8,0.8c-1.6,0.7-3.2,1.3-4.7,1.9c-0.7,0.3-1.4,0.5-2.1,0.8c-1,0.4-1.9,0.7-2.9,1.1
		c-0.8,0.3-1.5,0.5-2.3,0.8c-0.9,0.3-1.8,0.6-2.7,0.9c-0.8,0.2-1.5,0.5-2.3,0.7c-0.9,0.3-1.8,0.5-2.7,0.8c-0.7,0.2-1.5,0.4-2.2,0.6
		c-1,0.3-2,0.5-3,0.7c-0.7,0.2-1.3,0.3-2,0.5c-1.4,0.3-2.8,0.6-4.1,0.8c-0.3,0-0.5,0.1-0.8,0.2c-1.6,0.3-3.3,0.5-4.9,0.8
		c-0.5,0.1-1,0.1-1.5,0.2c-1.2,0.1-2.3,0.3-3.5,0.4c-0.6,0.1-1.1,0.1-1.7,0.2c-1.1,0.1-2.3,0.2-3.4,0.3c-0.5,0-1.1,0.1-1.6,0.1
		c-1.2,0.1-2.4,0.1-3.6,0.1c-0.4,0-0.9,0-1.3,0c-1.5,0-3,0-4.5,0c-0.2,0-0.3,0-0.5,0c-2.3-0.1-4.7-0.2-7-0.4
		c-2.9-0.3-5.8-0.6-8.7-1.1c-0.1,0-0.2,0-0.3-0.1c-1.7-0.3-3.3-0.6-5-0.9c-0.1,0-0.1,0-0.2,0c-1.4-0.3-2.7-0.6-4.1-0.9
		c-0.6-0.1-1.1-0.3-1.7-0.4c-0.8-0.2-1.6-0.4-2.4-0.6c-0.7-0.2-1.4-0.4-2-0.6c-0.7-0.2-1.3-0.4-2-0.6c-0.8-0.2-1.5-0.4-2.3-0.7
		c-0.5-0.1-1-0.3-1.4-0.5c-2-0.7-4-1.3-6-2.1c0,0-0.1,0-0.1,0c-1-0.4-2-0.8-3.1-1.2c-0.3-0.1-0.6-0.2-0.9-0.3
		c-1-0.4-2.1-0.8-3.1-1.3c-0.2-0.1-0.4-0.2-0.7-0.3c-9.6-4.2-19.2-9.4-28.8-15.8c-0.9,2.2-1.7,4.9-2.4,8.1
		C464.5,75.2,470.9,78.7,477.3,81.8C477.4,81.8,477.4,81.8,477.3,81.8z"/>
	<path d="M517.1,51.9c0.3,0.1,0.6,0.2,0.9,0.3c0.3,0.1,0.7,0.2,1,0.4c0.3,0.1,0.5,0.2,0.8,0.2c2.6,0.8,5.1,1.6,7.7,2.1
		c0,0,0,0,0.1,0c0.6,0.1,1.2,0.3,1.9,0.4c0.1,0,0.2,0,0.3,0.1c0.6,0.1,1.1,0.2,1.7,0.3c0.2,0,0.3,0.1,0.5,0.1
		c0.5,0.1,1.1,0.2,1.6,0.2c0.2,0,0.4,0.1,0.6,0.1c0.5,0.1,1,0.1,1.5,0.2c0.3,0,0.6,0.1,0.8,0.1c0.4,0,0.9,0.1,1.3,0.1
		c0.4,0,0.8,0.1,1.2,0.1c0.3,0,0.6,0,0.9,0.1c2.3,0.1,4.6,0.2,6.9,0.1c0,0,0,0,0,0c7.8-0.3,15.6-1.8,23.4-4.5c0,0,0.1,0,0.1,0
		c0.7-0.2,1.3-0.5,2-0.7c0.2-0.1,0.3-0.1,0.5-0.2c0.4-0.2,0.8-0.3,1.3-0.5l0,0c2.6-1,5.1-2.2,7.7-3.5c-1-0.1-2.1-0.1-3.2-0.2
		c-3.9-0.2-8.4-0.4-13.2-0.6c-13.9,4.5-28,4.5-41.9,0.2c-6.2,0.3-11.8,0.6-16.2,0.9C510.5,49.3,513.8,50.7,517.1,51.9L517.1,51.9z"
		/>
	<path d="M502.9,60.9c0.2,0.1,0.3,0.1,0.5,0.2c0.7,0.3,1.3,0.6,2,0.9c0.7,0.3,1.5,0.6,2.2,0.9c0.5,0.2,1,0.4,1.5,0.6
		c0.9,0.3,1.7,0.6,2.6,0.9c0.3,0.1,0.7,0.2,1,0.3c1,0.3,2,0.7,3,1c0.1,0,0.1,0,0.2,0.1c15.8,4.9,31.6,5.6,47.5,2.3c0,0,0,0,0.1,0
		c1.2-0.2,2.3-0.5,3.5-0.8c0.1,0,0.3-0.1,0.4-0.1c1.1-0.3,2.2-0.6,3.3-0.9c0.2-0.1,0.4-0.1,0.6-0.2c1.1-0.3,2.1-0.6,3.2-1
		c0.2-0.1,0.4-0.1,0.6-0.2c2.8-0.9,5.7-2,8.5-3.2c0.8-0.3,1.6-0.7,2.3-1c0.4-0.2,0.9-0.4,1.3-0.6c0.1-0.1,0.3-0.1,0.4-0.2l0,0
		c5.4-2.5,10.8-5.5,16.2-9l-9.3-2.8c-4.6,2.8-9.1,5.2-13.7,7.2l0,0c-23.5,10.4-47,10.7-70.5,1l-0.1,0.1c-4.7-2-9.5-4.3-14.2-7.1
		l-9.4,2.8C491.9,55.6,497.4,58.5,502.9,60.9L502.9,60.9z"/>
	<path d="M165.1,355.7c-0.1,0-0.2,0.1-0.3,0.1c-1,0.4-2,0.8-3,1.2c0,0-0.1,0-0.1,0c-1.9,0.8-3.8,1.7-5.7,2.6
		c-0.2,0.1-0.4,0.2-0.6,0.3c-0.9,0.4-1.7,0.9-2.6,1.3c-0.1,0.1-0.3,0.1-0.4,0.2c0,0,0,0,0,0c-3.9,2-7.8,4.2-11.6,6.7
		c3.5,0.5,7.3,1.1,11,1.6c4.5-2.6,8.9-4.9,13.4-6.8c0,0,0,0,0,0c24.7-10.7,49.4-10.9,74-0.7c0,0,0,0,0,0c4.6,1.9,9.1,4.2,13.7,6.8
		c3.9-0.5,7.6-1,11.2-1.5C231.1,346.8,198.1,342.9,165.1,355.7z"/>
	<path d="M271.5,307.4c-1.5-0.4-3-0.9-4.4-1.3c-0.4-0.1-0.9-0.2-1.3-0.4c-1.4-0.4-2.7-0.7-4.1-1.1c-0.5-0.1-1.1-0.3-1.6-0.4
		c-1.3-0.3-2.6-0.7-3.9-1c-0.5-0.1-1.1-0.2-1.6-0.4c-4.1-0.9-8.3-1.8-12.4-2.5c-0.8-0.1-1.7-0.3-2.5-0.4c-1-0.2-2-0.3-3-0.5
		c-0.9-0.1-1.8-0.3-2.7-0.4c-1-0.1-2-0.3-2.9-0.4c-0.9-0.1-1.9-0.2-2.8-0.3c-1-0.1-1.9-0.2-2.9-0.3c-0.9-0.1-1.9-0.2-2.8-0.3
		c-1-0.1-1.9-0.2-2.9-0.2c-1-0.1-2-0.1-2.9-0.2c-0.9-0.1-1.8-0.1-2.8-0.2c-1.1-0.1-2.3-0.1-3.4-0.1c-1.5,0-3-0.1-4.5-0.1
		c-1.1,0-2.1,0-3.2,0c-1,0-1.9,0-2.9,0c-0.9,0-1.9,0-2.8,0c-1,0-2,0.1-3,0.1c-0.9,0-1.8,0.1-2.7,0.1c-1,0.1-2,0.1-3,0.2
		c-0.9,0.1-1.8,0.1-2.7,0.2c-1,0.1-2,0.2-3,0.2c-0.9,0.1-1.8,0.2-2.6,0.3c-1,0.1-2,0.2-3.1,0.3c-0.9,0.1-1.7,0.2-2.6,0.3
		c-2.1,0.3-4.1,0.5-6.2,0.9c-0.7,0.1-1.5,0.2-2.2,0.3c-1,0.2-2.1,0.4-3.1,0.5c-0.9,0.2-1.7,0.3-2.6,0.5c-1,0.2-2,0.4-3.1,0.6
		c-0.9,0.2-1.8,0.4-2.6,0.5c-1,0.2-2,0.4-3,0.7c-0.9,0.2-1.8,0.4-2.7,0.6c-1,0.2-2,0.5-3,0.7c-0.9,0.2-1.8,0.5-2.8,0.7
		c-1,0.3-1.9,0.5-2.9,0.8c-1,0.3-2,0.6-3,0.9c-0.9,0.3-1.8,0.5-2.7,0.8c-1.6,0.5-3.3,1-4.9,1.6c-0.9,0.3-1.7,0.6-2.6,0.9
		c-1.2,0.4-2.5,0.8-3.7,1.3c-0.8,0.3-1.6,0.6-2.4,0.9c-1.1,0.4-2.3,0.8-3.4,1.3c-0.8,0.3-1.6,0.6-2.4,0.9c-1.1,0.4-2.3,0.9-3.4,1.4
		c-0.8,0.3-1.5,0.6-2.3,1c-1.2,0.5-2.4,1-3.6,1.5c-0.5,0.2-0.9,0.4-1.4,0.6v8.9c0.2-0.1,0.5-0.2,0.7-0.3l0,0
		c39.4-19.1,78.9-26.6,118.3-22.7c0.3,0,0.5,0.1,0.8,0.1c1.5,0.2,3,0.3,4.5,0.5c0.3,0,0.7,0.1,1,0.1c1.5,0.2,2.9,0.4,4.4,0.6
		c0.3,0,0.5,0.1,0.8,0.1c4.4,0.7,8.8,1.5,13.2,2.5c0.7,0.2,1.4,0.3,2.1,0.5c1,0.2,2,0.5,3,0.7c0.9,0.2,1.8,0.5,2.8,0.7
		c0.9,0.2,1.8,0.5,2.7,0.7c1.1,0.3,2.1,0.6,3.2,0.9c0.8,0.2,1.6,0.5,2.4,0.7c1.3,0.4,2.6,0.8,3.8,1.2c0.6,0.2,1.2,0.4,1.8,0.6
		c2.7,0.9,5.3,1.8,8,2.8c3.3,1.2,6.5,2.5,9.8,3.9c0.1,0,0.1,0.1,0.2,0.1c2,0.8,4,1.7,6,2.6c0,0,0,0,0.1,0c2,0.9,4,1.8,6,2.8l0,0
		c0,0,0,0,0.1,0l0-8.9c0,0,0,0-0.1,0l0-0.1c-9.2-4-18.5-7.3-27.7-10.1C271.9,307.6,271.7,307.5,271.5,307.4z"/>
	<path d="M300,335.4c-4-2.1-8.1-4.1-12.1-6c0,0-0.1,0-0.1-0.1c-8-3.7-16.1-6.9-24.1-9.6c-0.2-0.1-0.4-0.1-0.6-0.2
		c-1.9-0.6-3.8-1.2-5.7-1.8c0,0-0.1,0-0.1,0c-4-1.2-8-2.2-12-3.2c-0.2,0-0.3-0.1-0.5-0.1c-1.8-0.4-3.6-0.8-5.4-1.1
		c-0.3-0.1-0.5-0.1-0.8-0.2c-5.9-1.1-11.8-2-17.7-2.6c-0.2,0-0.5,0-0.7-0.1c-1.8-0.2-3.5-0.3-5.3-0.4c-0.2,0-0.4,0-0.7,0
		c-5.9-0.4-11.9-0.4-17.8-0.2c-0.2,0-0.4,0-0.6,0c-1.9,0.1-3.8,0.2-5.6,0.3c-0.1,0-0.2,0-0.3,0c-6.1,0.4-12.1,1.2-18.2,2.2
		c-0.1,0-0.1,0-0.2,0c-22.2,3.8-44.4,11.7-66.7,23.6l0,0c-0.2,0.1-0.3,0.2-0.5,0.3v9.4c3-1.8,6-3.5,9-5.2c0.1-0.1,0.2-0.1,0.3-0.2
		c1.9-1,3.7-2,5.6-2.9c0.3-0.1,0.6-0.3,0.9-0.4c1.7-0.8,3.4-1.7,5-2.5c0.5-0.2,0.9-0.4,1.4-0.6c1.5-0.7,3-1.4,4.6-2.1
		c0.6-0.3,1.2-0.5,1.8-0.8c1.4-0.6,2.8-1.2,4.2-1.7c0.7-0.3,1.4-0.6,2.2-0.8c1.3-0.5,2.5-1,3.8-1.4c0.8-0.3,1.6-0.6,2.5-0.9
		c1.2-0.4,2.3-0.8,3.5-1.2c0.9-0.3,1.8-0.6,2.7-0.9c1.1-0.3,2.2-0.7,3.3-1c1-0.3,2-0.6,2.9-0.8c1-0.3,2.1-0.6,3.1-0.8
		c1-0.3,2.1-0.5,3.1-0.8c1-0.2,1.9-0.5,2.9-0.7c1.1-0.2,2.2-0.5,3.3-0.7c0.9-0.2,1.9-0.4,2.8-0.5c1.1-0.2,2.2-0.4,3.3-0.6
		c0.9-0.1,1.8-0.3,2.7-0.4c1.1-0.2,2.3-0.3,3.4-0.5c0.9-0.1,1.8-0.2,2.7-0.3c1.2-0.1,2.3-0.2,3.5-0.3c0.9-0.1,1.7-0.1,2.6-0.2
		c1.2-0.1,2.3-0.2,3.5-0.2c0.9,0,1.7-0.1,2.6-0.1c1.2,0,2.3-0.1,3.5-0.1c0.9,0,1.7,0,2.6,0c1.2,0,2.3,0,3.5,0c0.9,0,1.7,0.1,2.6,0.1
		c1.2,0,2.3,0.1,3.5,0.2c0.9,0.1,1.8,0.1,2.6,0.2c1.1,0.1,2.3,0.2,3.4,0.3c0.9,0.1,1.8,0.2,2.7,0.3c1.1,0.1,2.3,0.3,3.4,0.4
		c0.9,0.1,1.8,0.3,2.7,0.4c1.1,0.2,2.2,0.4,3.4,0.5c0.9,0.2,1.8,0.3,2.7,0.5c1.1,0.2,2.2,0.4,3.4,0.7c0.9,0.2,1.8,0.4,2.8,0.6
		c1.1,0.3,2.2,0.5,3.3,0.8c0.9,0.2,1.9,0.5,2.8,0.7c1.1,0.3,2.2,0.6,3.3,0.9c0.9,0.3,1.9,0.5,2.8,0.8c1.1,0.3,2.2,0.7,3.3,1
		c0.9,0.3,1.8,0.6,2.8,0.9c1.1,0.4,2.2,0.8,3.4,1.2c0.9,0.3,1.8,0.7,2.7,1c1.1,0.4,2.3,0.9,3.4,1.3c0.9,0.4,1.8,0.7,2.7,1.1
		c1.2,0.5,2.3,1,3.5,1.5c0.9,0.4,1.7,0.7,2.6,1.1c1.2,0.5,2.4,1.1,3.6,1.6c0.8,0.4,1.6,0.8,2.5,1.2c1.2,0.6,2.5,1.2,3.7,1.8
		c0.8,0.4,1.5,0.8,2.3,1.2c1.3,0.7,2.6,1.4,3.9,2.1c0.7,0.4,1.4,0.8,2.1,1.2c1.4,0.8,2.7,1.5,4.1,2.3c0.3,0.2,0.6,0.4,1,0.6v0
		c0,0,0.1,0,0.1,0.1v-8c0,0,0,0,0,0L300,335.4z"/>
	<path d="M264.4,290.3c-1.2-0.3-2.4-0.5-3.5-0.7c-0.8-0.2-1.5-0.3-2.3-0.5c-1-0.2-2-0.4-3-0.6c-1-0.2-1.9-0.3-2.9-0.5
		c-0.9-0.1-1.7-0.3-2.6-0.4c-1.3-0.2-2.5-0.4-3.8-0.6c-0.6-0.1-1.2-0.2-1.8-0.3c-3.9-0.6-7.7-1-11.6-1.4c-0.3,0-0.6-0.1-1-0.1
		c-1.6-0.2-3.3-0.3-4.9-0.5c-0.4,0-0.8-0.1-1.2-0.1c-1.6-0.1-3.2-0.2-4.8-0.3c-0.3,0-0.7,0-1-0.1c-1.8-0.1-3.6-0.2-5.5-0.3
		c-0.1,0-0.2,0-0.3,0c-6-0.2-12-0.3-18-0.1c-0.2,0-0.4,0-0.6,0c-1.8,0-3.5,0.1-5.3,0.2c-0.3,0-0.6,0-0.8,0c-1.8,0.1-3.5,0.2-5.3,0.3
		c-0.2,0-0.4,0-0.6,0c-5.9,0.4-11.8,1-17.7,1.7c-0.5,0.1-1,0.1-1.4,0.2c-1.4,0.2-2.8,0.4-4.2,0.6c-0.6,0.1-1.3,0.2-1.9,0.3
		c-1.2,0.2-2.5,0.4-3.7,0.6c-0.7,0.1-1.5,0.2-2.2,0.4c-1.1,0.2-2.3,0.4-3.4,0.6c-0.8,0.2-1.6,0.3-2.4,0.5c-0.9,0.2-1.8,0.4-2.7,0.6
		c-2.3,0.5-4.5,1-6.8,1.5c-0.4,0.1-0.7,0.2-1.1,0.2c-1.5,0.3-2.9,0.7-4.4,1.1c-0.3,0.1-0.6,0.1-0.9,0.2c-1.6,0.4-3.1,0.8-4.7,1.2
		c-0.1,0-0.2,0.1-0.3,0.1c-7.1,1.9-14.3,4.1-21.4,6.5v8.6c0.3-0.1,0.5-0.2,0.8-0.3v0c0,0,0.1,0,0.1,0c1.4-0.6,2.9-1.1,4.3-1.6
		c0.4-0.2,0.8-0.3,1.2-0.5c3.6-1.3,7.2-2.5,10.8-3.7c2.3-0.7,4.7-1.5,7-2.2c0.1,0,0.2-0.1,0.3-0.1c2-0.6,3.9-1.1,5.9-1.6
		c0,0,0.1,0,0.1,0c26.4-7.1,52.8-10,79.3-8.9c0.1,0,0.3,0,0.4,0c1.8,0.1,3.5,0.2,5.3,0.3c0.4,0,0.8,0.1,1.2,0.1
		c1.5,0.1,3,0.2,4.5,0.4c0.5,0,1,0.1,1.5,0.1c1.5,0.1,3,0.3,4.5,0.5c0.4,0,0.9,0.1,1.3,0.1c1.9,0.2,3.7,0.5,5.6,0.7
		c0.6,0.1,1.2,0.2,1.8,0.3c1.2,0.2,2.4,0.4,3.7,0.6c1,0.2,1.9,0.3,2.9,0.5c0.9,0.1,1.7,0.3,2.6,0.5c1.1,0.2,2.2,0.4,3.3,0.6
		c0.7,0.1,1.3,0.3,2,0.4c1.2,0.3,2.5,0.5,3.7,0.8c0.4,0.1,0.7,0.2,1.1,0.2c13.3,3,26.7,7,40,12l0,0c0.1,0,0.2,0.1,0.3,0.1l0-8.5
		c-11.5-3.9-22.9-7-34.4-9.5C265.1,290.5,264.7,290.4,264.4,290.3z"/>
	<path d="M105.2,260.4c2.1-0.4,4.2-0.7,6.3-1c0.5-0.1,1-0.1,1.4-0.2c3.3-0.5,6.6-1,9.9-1.4c0.6-0.1,1.3-0.2,1.9-0.2
		c2.8-0.4,5.6-0.7,8.4-1.1c1.1-0.1,2.1-0.3,3.2-0.4c2.5-0.3,5-0.5,7.5-0.8c1.3-0.1,2.6-0.3,3.8-0.4c2.5-0.2,4.9-0.4,7.4-0.6
		c1.4-0.1,2.7-0.2,4.1-0.3c2.5-0.2,4.9-0.3,7.4-0.5c1.5-0.1,3-0.2,4.5-0.3c2.3-0.1,4.7-0.2,7-0.3c1.6-0.1,3.2-0.1,4.9-0.2
		c1.9-0.1,3.8-0.1,5.6-0.2c2.1-0.1,4.2-0.1,6.2-0.1c1.4,0,2.8,0,4.2,0c2.5,0,5.1,0,7.6,0c1.3,0,2.5,0,3.8,0c2.7,0,5.3,0.1,8,0.2
		c1.2,0,2.4,0.1,3.6,0.1c2.7,0.1,5.4,0.2,8.1,0.3c1.2,0.1,2.4,0.1,3.6,0.2c2.7,0.1,5.3,0.3,8,0.5c1.3,0.1,2.5,0.2,3.8,0.3
		c2,0.1,3.9,0.3,5.9,0.5c2,0.2,3.9,0.3,5.9,0.5c1.8,0.2,3.7,0.3,5.5,0.5c1.3,0.1,2.6,0.3,3.8,0.4c2.7,0.3,5.3,0.6,8,0.9
		c1.1,0.1,2.1,0.3,3.2,0.4c2.9,0.4,5.8,0.8,8.7,1.2c1,0.1,1.9,0.3,2.9,0.4c3,0.4,6.1,0.9,9.1,1.4c0.4,0.1,0.7,0.1,1.1,0.2l0,0
		c0,0,0.1,0,0.1,0v-8c-47.4-6.3-94.8-8-142.2-5c-0.1,0-0.2,0-0.4,0c-3.3,0.2-6.7,0.5-10,0.7c-0.8,0.1-1.5,0.1-2.3,0.2
		c-2.8,0.2-5.6,0.5-8.4,0.7c-1.4,0.1-2.7,0.3-4.1,0.4c-2.3,0.2-4.5,0.5-6.8,0.7c-2,0.2-4,0.4-6,0.7c-1.7,0.2-3.4,0.4-5.1,0.6
		c-2.7,0.3-5.5,0.7-8.2,1c-0.7,0.1-1.3,0.2-2,0.3l0,8C104.6,260.5,104.9,260.4,105.2,260.4L105.2,260.4z"/>
	<path d="M110.6,228.2c15.3-0.6,30.5-1.1,45.8-1.4c0.6,0,1.1,0,1.7,0c3.2-0.1,6.3-0.1,9.5-0.2c1.4,0,2.9,0,4.3-0.1
		c2.4,0,4.7-0.1,7.1-0.1c2.4,0,4.8,0,7.2-0.1c1.4,0,2.9,0,4.3,0c3.6,0,7.2,0,10.8,0c0.3,0,0.7,0,1,0c8.1,0,16.2,0,24.3,0.1
		c0.2,0,0.4,0,0.7,0c3.6,0,7.2,0.1,10.8,0.1c18.6,0.3,37.1,0.8,55.7,1.6c-0.1-0.5-0.3-1-0.4-1.6c-0.6-2.1-1.1-4.1-1.5-6.1
		c0,0-0.1,0-0.1,0c0,0,0,0,0,0c-1.3,0-2.6,0-3.9,0c-5-0.1-10-0.1-15-0.2c-0.5,0-1,0-1.4,0c-52.9-0.6-105.8-0.5-158.7,0.3
		c-0.6,2.6-1.3,5.1-2,7.8C110.5,228.2,110.6,228.2,110.6,228.2C110.6,228.2,110.6,228.2,110.6,228.2z"/>
	<path d="M246.1,239.9c0.2,0,0.3,0,0.5,0c3.4,0.2,6.7,0.3,10.1,0.5c0.4,0,0.7,0,1.1,0.1c3.3,0.2,6.6,0.4,9.8,0.6
		c0.4,0,0.8,0.1,1.2,0.1c3.3,0.2,6.6,0.5,9.8,0.7c0.4,0,0.7,0.1,1.1,0.1c3.4,0.3,6.7,0.6,10.1,0.9c0,0,0.1,0,0.1,0
		c3,0.3,5.9,0.6,8.9,0.9c-1-2.7-2-5.4-2.8-8c0,0-0.1,0-0.1,0c0,0,0,0,0,0c-62.6-4.3-125.1-4.2-187.6,0.1c-0.5,1.4-1,2.9-1.5,4.4
		c-0.4,1.3-0.9,2.5-1.4,3.8C152.3,239.1,199.2,237.8,246.1,239.9z"/>
	<path d="M513.6,383.2c4,0.7,8,1.3,12.1,1.8c12.2-3.4,24.4-3.4,36.5,0c4.1-0.5,8.2-1.1,12.2-1.8
		C554.2,374.9,533.9,374.9,513.6,383.2z"/>
	<path d="M643.1,282.1c-64.8-18.5-129.7-18.8-194.5-1v0c-0.3,0.1-0.6,0.2-0.9,0.2v8.7c0.3-0.1,0.6-0.2,0.9-0.3v0
		c0.1,0,0.2-0.1,0.4-0.1c1.1-0.4,2.3-0.7,3.4-1.1c0.9-0.3,1.8-0.5,2.6-0.8c1-0.3,2-0.6,3-0.8c1-0.3,2-0.6,3-0.8
		c0.8-0.2,1.6-0.4,2.4-0.7c1.2-0.3,2.3-0.6,3.5-0.9c0.5-0.1,1-0.2,1.5-0.4c8.7-2.2,17.3-4,26-5.4c0.1,0,0.2,0,0.4-0.1
		c1.7-0.3,3.4-0.5,5.1-0.8c0.1,0,0.3,0,0.4-0.1c1.7-0.2,3.5-0.5,5.2-0.7c0.1,0,0.2,0,0.3,0c31-3.9,62-3.1,93,2.5
		c0.1,0,0.3,0.1,0.4,0.1c1.5,0.3,3,0.6,4.5,0.9c0.5,0.1,0.9,0.2,1.4,0.3c1.3,0.3,2.7,0.5,4,0.8c0.6,0.1,1.3,0.3,1.9,0.4
		c1.2,0.3,2.4,0.5,3.7,0.8c0.8,0.2,1.5,0.4,2.3,0.5c1.1,0.3,2.2,0.5,3.3,0.8c0.9,0.2,1.8,0.5,2.7,0.7c1,0.3,2,0.5,2.9,0.8
		c1.1,0.3,2.3,0.6,3.4,0.9c0.8,0.2,1.5,0.4,2.3,0.6c1.7,0.5,3.4,1,5.1,1.5c0.2,0.1,0.4,0.1,0.6,0.2c2,0.6,4,1.3,6,1.9l0-8.8
		C643.2,282.2,643.1,282.2,643.1,282.1L643.1,282.1z"/>
	<path d="M643.1,299.5c-18.2-6.7-36.5-11.5-54.7-14.5c0,0-0.1,0-0.1,0c-2-0.3-3.9-0.6-5.9-0.9c-0.1,0-0.2,0-0.3,0
		c-8.1-1.1-16.2-1.9-24.3-2.3c0,0-0.1,0-0.1,0c-2-0.1-4-0.2-6-0.2c-0.1,0-0.1,0-0.2,0c-34.3-0.9-68.6,4.7-103,16.8v0
		c-0.3,0.1-0.6,0.2-0.9,0.3v9c65.2-26.2,130.4-25.8,195.6,1.1l0-9.1C643.2,299.6,643.1,299.5,643.1,299.5L643.1,299.5z"/>
	<path d="M448.6,256.2c18.5-3.2,37-5.4,55.6-6.8c0.3,0,0.5,0,0.8-0.1c1.6-0.1,3.2-0.2,4.8-0.3c0.7,0,1.4-0.1,2-0.1
		c1.2-0.1,2.4-0.1,3.6-0.2c1.7-0.1,3.4-0.2,5.2-0.2c0.2,0,0.3,0,0.5,0c40.7-1.7,81.4,1.1,122.1,8.4v-4.9l0-3.6
		c-57-8.2-113.9-9.4-170.9-3.4c-0.2,0-0.5,0.1-0.7,0.1c-3.5,0.4-6.9,0.8-10.4,1.2c-1.4,0.2-2.7,0.3-4.1,0.5
		c-2.3,0.3-4.5,0.6-6.8,0.9c-0.9,0.1-1.8,0.2-2.7,0.4l0,8.4C447.9,256.2,448.2,256.2,448.6,256.2L448.6,256.2z"/>
	<path d="M463,237.5c2.3-0.2,4.5-0.4,6.8-0.6c2.1-0.2,4.1-0.3,6.2-0.5c1.6-0.1,3.1-0.2,4.7-0.3c2.5-0.2,4.9-0.3,7.4-0.5
		c1.1-0.1,2.2-0.1,3.3-0.2c2.8-0.2,5.6-0.3,8.5-0.5c0.6,0,1.3-0.1,1.9-0.1c17.5-0.8,35.1-1.1,52.6-0.9c0.2,0,0.4,0,0.6,0
		c2.9,0,5.8,0.1,8.6,0.2c1.1,0,2.1,0,3.2,0.1c2.4,0.1,4.8,0.1,7.2,0.2c1.6,0.1,3.3,0.1,4.9,0.2c1.9,0.1,3.9,0.2,5.8,0.2
		c2.3,0.1,4.6,0.2,6.9,0.3c1.3,0.1,2.6,0.1,4,0.2c3.4,0.2,6.8,0.4,10.2,0.6c0.3,0,0.5,0,0.8,0c11.7,0.8,23.3,1.9,35,3.1c0,0,0,0,0,0
		c0,0,0,0,0,0c-0.6-1.6-1.1-3.2-1.6-4.8c-0.4-1.2-0.8-2.5-1.1-3.7c0,0,0,0,0,0c0,0,0,0,0-0.1c-27-2-53.9-3.2-80.9-3.4
		c-0.2,0-0.3,0-0.5,0c-12.1-0.1-24.3-0.1-36.4,0.1c-0.1,0-0.3,0-0.4,0c-3.8,0.1-7.7,0.2-11.5,0.3c-0.4,0-0.8,0-1.2,0
		c-3.7,0.1-7.4,0.2-11.1,0.4c-0.2,0-0.4,0-0.5,0c-14.7,0.6-29.3,1.4-44,2.4c0,0,0,0,0,0c0,0-0.1,0-0.1,0c-0.8,2.8-1.7,5.6-2.7,8.4
		c3.1-0.3,6.3-0.6,9.4-0.9C460.2,237.7,461.6,237.6,463,237.5z"/>
</g>
</svg>
