<?xml version="1.0" encoding="utf-8"?>
<!-- Generator: Adobe Illustrator 25.3.0, SVG Export Plug-In . SVG Version: 6.00 Build 0)  -->
<svg version="1.1" id="Layer_1" xmlns="http://www.w3.org/2000/svg" xmlns:xlink="http://www.w3.org/1999/xlink" x="0px" y="0px"
	 viewBox="0 0 750.2 400.1" style="enable-background:new 0 0 750.2 400.1;" xml:space="preserve">
<style type="text/css">
	.st0{fill:none;}
</style>
<g>
	<path class="st0" d="M176.4,159.6c-0.1-0.3-0.1-0.7-0.2-1c-1.6,0-3.3-0.2-4.9,0c-13.8,2.4-25.8,8.6-35.2,20.1
		c-2.8,3.4-2.8,3.6,1.1,5.8c0.4-0.5,0.7-0.8,1-1.2c6.2-8.9,14.4-14.7,23.9-18.4c3.5-1.4,7.2-2.3,10.8-3.6
		C174,160.9,175.2,160.2,176.4,159.6z"/>
	<path class="st0" d="M564.2,277.9c1.1,0.6,2.3,1,3.6,1.2c7.5,1.5,15,1,22.5,0.4c6.7-0.5,12.5-2.6,17.5-7.5c0.6-0.6,1.4-0.9,1.9-1.6
		c0.7-1,1.5-2,1.7-3.2c0.5-2.9-0.6-3.8-3.1-2.8c-1.6,0.7-3,1.6-4.5,2.6c-10.1,7-21.1,9.7-33,7.7c-1.5-0.2-2.9-0.4-4.2-0.6
		c-0.8,0-1.5-0.1-2,0.2c-0.7,0.4-1.4,1-2,1.5C563.2,276.5,563.5,277.5,564.2,277.9z"/>
	<path class="st0" d="M187.4,136.4c-1.1-0.6-2.3-1-3.6-1.2c-7.5-1.5-15-1-22.5-0.4c-6.7,0.5-12.5,2.6-17.5,7.5
		c-0.6,0.6-1.4,0.9-1.9,1.6c-0.7,1-1.5,2-1.7,3.2c-0.5,2.9,0.6,3.8,3.1,2.8c1.6-0.7,3-1.6,4.5-2.6c10.1-7,21.1-9.7,33-7.7
		c1.5,0.2,2.9,0.4,4.2,0.6c0.8,0,1.5,0.1,2-0.2c0.7-0.4,1.4-1,2-1.5C188.4,137.8,188.1,136.8,187.4,136.4z"/>
	<path class="st0" d="M273.3,236.4c0.2-0.6,0.2-1.2,0.2-1.9c-0.7-0.3-1.4-0.5-2-0.8c-0.6-0.3-1.1-0.7-1.6-1
		c-0.2,0.3-0.3,0.4-0.3,0.5c-0.1,0.6-0.1,1.1-0.2,1.7c-1.4,8.6-3.8,16.5-7.3,23.7c-4.7,9.5-11.5,17.6-20.9,23.8
		c-6.2,4-12.6,7.5-18.9,11.1c-8,4.4-16.1,8.5-24,13.1c-5.9,3.5-11.5,7.5-17.2,11.4c-1.6,1.1-2.9,2.7-4.3,4.1c0.2,0.3,0.4,0.6,0.6,1
		c1.4-0.6,2.8-1.1,4.1-1.9c6.2-3.4,12.4-6.9,18.6-10.2c16.7-8.7,33.3-17.5,48.7-28.8c5.2-3.8,9.3-8.7,12.5-14.5c1.7-3,3.1-6,4.5-9.1
		C268.9,251.4,271.3,244,273.3,236.4z"/>
	<path class="st0" d="M153.3,275.8c-3.1,3.3-6.2,6.7-9.1,10.2c-0.7,0.8-1,2.1-1.7,3.7c3.1-0.3,4.9-1.8,6.8-3.2
		c6.9-5.2,13-11.4,18.4-18.4c2.2-2.9,4-6.2,5.3-9.6c1.4-3.9,2.2-8,2.3-12.3c0.1-6.3-0.5-12.7-0.8-19c-0.1-1-0.4-2.1-0.8-3.7
		c-2.4,2.5-2.5,5-2.7,7.4c-0.4,5.1-0.8,10.3-1,15.4c-0.2,4.4-1.1,8.4-2.8,12.2c-0.7,1.5-1.5,2.9-2.4,4.3
		C161.5,267.9,157.2,271.7,153.3,275.8z"/>
	<path class="st0" d="M580.3,255.6c13.8-2.4,25.8-8.6,35.2-20.1c2.8-3.4,2.8-3.6-1.1-5.8c-0.4,0.5-0.7,0.8-1,1.2
		c-6.2,8.9-14.4,14.7-23.9,18.4c-3.5,1.4-7.2,2.3-10.8,3.6c-1.2,0.4-2.4,1.1-3.6,1.7c0.1,0.3,0.1,0.7,0.2,1
		C577.1,255.7,578.8,255.9,580.3,255.6z"/>
	<path class="st0" d="M489.8,285c0.5,0.3,1.1,0.2,2.1,0.4c-0.6-1.3-0.9-2.2-1.3-2.9c-1.2-1.8-2.4-3.7-3.9-5.3
		c-7.1-7.9-12.2-17.3-16.5-27.2c-2.1-4.8-4.1-9.6-6.3-14.4c-0.4-0.8-1.3-1.9-1.9-1.8c-1.1,0.1-2.6,0.6-3.2,1.5
		c-1.4,2.1-1.3,4.5,0.1,6.8c7.2,11.7,14.4,23.4,21.5,35.1C482.8,281.1,486.3,283,489.8,285z"/>
	<path class="st0" d="M478.3,177.9c-0.2,0.6-0.2,1.2-0.2,1.9c0.7,0.3,1.4,0.5,2,0.8c0.6,0.3,1.1,0.7,1.6,1c0.2-0.3,0.3-0.4,0.3-0.5
		c0.1-0.6,0.1-1.1,0.2-1.7c3.4-20.1,11.7-36.7,28.2-47.4c6.2-4,12.6-7.5,18.9-11.1c8-4.4,16.1-8.5,24-13.1
		c5.9-3.5,11.5-7.5,17.2-11.4c1.6-1.1,2.9-2.7,4.3-4.1c-0.2-0.3-0.4-0.6-0.6-1c-1.4,0.6-2.8,1.1-4.1,1.9
		c-6.2,3.4-12.4,6.9-18.6,10.2c-16.7,8.7-33.3,17.5-48.7,28.8c-5.2,3.8-9.3,8.7-12.5,14.5C484.8,156.4,481.2,166.9,478.3,177.9z"/>
	<path class="st0" d="M551.6,211.3c3.3,4.2,6.8,8.3,11.2,11.2c7.2,4.9,14.3,0.6,17.3-5.2c0.4-0.8,0.4-2.7,0.1-2.8
		c-0.9-0.5-2.3-0.7-3.2-0.3c-1.1,0.5-1.9,1.7-2.7,2.7c-1.3,1.7-2.8,2.2-4.7,1.9c-3.3-0.4-5.5-2.5-7.5-5.1c-3.1-3.9-6.1-7.8-9.2-11.7
		c-5-6.4-10-12.7-15-19.1c-3.3-4.2-3.6-9.1-0.9-13c3-4.3,7.5-5.5,12.3-3.1c3.7,1.8,6.7,4.4,8.2,8.7c0.6,1.9,1.5,3.7,2.4,5.4
		c0.3,0.7,0.8,1.4,1.3,2.1c0.3-0.1,0.5-0.1,0.8-0.2c0.1-1,0.4-2,0.2-3c-0.9-4.3-1.6-8.7-3-12.8c-1.1-3.3-3.1-6.3-6.7-7
		c-7-1.3-13.4,0.3-19.2,4.6c-6.4,4.8-7.5,13.2-2.7,19.3c4.7,6.1,9.4,12.1,14.1,18.2C546.8,205.2,549.2,208.3,551.6,211.3z"/>
	<path class="st0" d="M580.7,183.3c0.4-5.1,0.8-10.3,1-15.4c0.3-6.1,1.9-11.4,5.2-16.5c3.3-5,7.5-8.8,11.5-12.9
		c3.1-3.3,6.2-6.7,9.1-10.2c0.7-0.8,1-2.1,1.7-3.7c-3.1,0.3-4.9,1.8-6.8,3.2c-6.9,5.2-13,11.4-18.4,18.4c-4.8,6.3-7.4,13.7-7.6,21.9
		c-0.1,6.3,0.5,12.7,0.8,19c0.1,1,0.4,2.1,0.8,3.7C580.4,188.3,580.5,185.7,580.7,183.3z"/>
	<path class="st0" d="M199.5,254.3c7,1.3,13.4-0.3,19.2-4.6c6.4-4.8,7.5-13.2,2.7-19.3c-7.1-9.1-14.2-18.3-21.3-27.4
		c-3.3-4.2-6.8-8.3-11.2-11.2c-7.2-4.9-14.3-0.6-17.3,5.2c-0.4,0.8-0.4,2.7-0.1,2.8c0.9,0.5,2.3,0.7,3.2,0.3
		c1.1-0.5,1.9-1.7,2.7-2.7c1.3-1.7,2.8-2.2,4.7-1.9c3.3,0.4,5.5,2.5,7.5,5.1c8,10.3,16.1,20.5,24.2,30.8c3.3,4.2,3.6,9.1,0.9,13
		c-3,4.3-7.5,5.5-12.3,3.1c-3.7-1.8-6.7-4.4-8.2-8.7c-0.6-1.9-1.5-3.7-2.4-5.4c-0.3-0.7-0.8-1.4-1.3-2.1c-0.3,0.1-0.5,0.1-0.8,0.2
		c-0.1,1-0.4,2-0.2,3c0.9,4.3,1.6,8.7,3,12.8C193.8,250.5,195.8,253.6,199.5,254.3z"/>
	<path class="st0" d="M576.8,353.8c-0.7-0.2-1.5-0.2-2.2-0.4c-8.9-2.3-17.9-4.4-26.7-7c-5.3-1.6-10.4-4.2-15.6-6.3
		c-1.2-0.5-2.6-0.6-3.9-0.9c-0.1,0.3-0.3,0.6-0.4,0.9c1.3,1.2,2.4,2.8,3.8,3.6c10.6,6,21.1,12.1,32.9,14.9c3.8,0.9,7.9,0.8,11.9,0.8
		c0.9,0,2.4-1.5,2.7-2.5C579.6,355.3,578.4,354.1,576.8,353.8z"/>
	<path d="M160.8,78.3c-1-1.9-1.9-3.8-2.6-5.7c-4.4,0-8.9,0.2-13.4,0.5c-1.1,0.1-2.1,0.2-3.2,0.3c-2.9,2.3-5.5,5-7.9,8.1
		C142.7,79.3,151.7,78.3,160.8,78.3z"/>
	<path d="M155.9,65.7l-1.8,0.5c-0.4,0.2-0.9,0.4-1.3,0.5c1.1-0.1,2.2-0.2,3.3-0.3C156.1,66.2,156,66,155.9,65.7z"/>
	<path d="M285,114.6C272.7,101.9,260.5,89,248,76.5c-0.7-0.7-1.4-1.3-2.1-2c-0.8,1.8-1.6,3.6-2.6,5.3c0.1,0.1,0.2,0.1,0.3,0.2
		c1.6,1.1,3.2,2.1,4.6,3.4c3.1,2.9,6.1,5.9,9.1,8.9c9.8,9.8,19.7,19.6,29.4,29.5C286.2,119.6,285.7,117.1,285,114.6z"/>
	<path d="M285.6,173.9c-1.4-3.2-2.8-6.4-4.2-9.6c-4.3-9.9-9.4-19.3-16.5-27.2c-1.4-1.6-2.6-3.5-3.9-5.3c-0.5-0.7-0.8-1.6-1.3-2.9
		c1.1,0.2,1.7,0.2,2.1,0.4c3.6,1.9,7.1,3.9,9.4,7.8c4.8,8,9.7,16,14.6,23.9c0.1-2.3,0.3-4.4,0.4-6.4c-1-1.4-1.9-2.7-2.9-4.1
		c-2-2.9-3.7-6-5.4-9.1c-0.4-0.7,0.1-2,0.2-3c0.8,0.4,1.9,0.5,2.5,1.2c2.2,2.7,4.2,5.4,6.3,8.2c0.3-2.5,0.6-4.8,1-6.8
		c-2.1-2.3-4.1-4.5-6.1-6.8c-0.7-0.8-1.2-1.8-1.8-2.7c0.2-0.3,0.4-0.6,0.6-0.8c1.8,1,3.7,1.7,5.3,2.9c1,0.8,2,1.5,3,2.3
		c0.2-1,0.4-1.9,0.6-2.6c-0.1-0.2-0.1-0.5-0.2-0.7c0-0.1-0.1-0.2-0.1-0.3c-0.2-0.6-0.3-1.2-0.5-1.8c-5-4.5-10-9.1-15-13.6
		c-5.7-5.2-11.4-10.6-17-15.9c-5.5-5.2-11.1-10.4-16.6-15.7c-0.1-0.1-0.1-0.1-0.2-0.2c-1.7,2.4-3.6,4.5-5.6,6.4
		c4.6,3.4,9.1,7,13.6,10.5c6,4.6,11.6,9.7,17.3,14.7c1.7,1.5,2.9,3.6,4.1,5.6c0.4,0.7,0.6,2.3,0.2,2.9c-0.4,0.5-1.8,0.6-2.6,0.3
		c-5.1-1.6-9.4-4.6-12.9-8.9c-2.2-2.7-4.1-5.8-6.4-8.4c-2.9-3.4-5.8-7-9.3-9.5c-2.3-1.7-4.6-3.3-6.9-4.8c-1.2,1-2.5,1.9-3.8,2.7
		c1.4,0.8,2.7,1.7,4.1,2.6c2.1,1.3,3.9,3.2,5.7,5c0.7,0.6,1,1.6,1.5,2.4c-0.1,0.2-0.2,0.4-0.3,0.5c-0.7-0.2-1.5-0.2-2.2-0.6
		c-1.6-0.9-3.1-1.9-4.6-3c-2.4-1.9-4.9-3.6-7.4-5.2c-1.5,0.7-3,1.4-4.6,2c13.7,8,25.8,18.5,35.3,32.5c1.5,2.1,3.1,4.1,4.5,6.2
		c10.8,15.3,20.4,31.3,26.6,49.3C285.9,183.3,285.6,178.5,285.6,173.9z"/>
	<path d="M161.5,92c3.6,0.1,7.3,0.4,10.9,1c-2.5-2.1-4.9-4.6-7-7.4c-11.7,0.1-23.4,0.4-35.1,0.8c-0.1,0.1-0.2,0.3-0.2,0.4
		c-1,1.7-2,3.5-2.9,5.4c2.2-0.3,4.5-0.5,6.8-0.5C143.1,91.5,152.3,91.7,161.5,92z"/>
	<path d="M279.3,97c-0.2-0.4-0.3-0.7-0.5-1.1c-0.7-1.6-1.4-3.1-2.2-4.6c-1.6-1.7-3.3-3.4-4.9-5.2c-6.8-7.5-14.1-14.1-21.8-20.1
		l-1-0.3c-0.4,1.4-0.8,2.8-1.3,4.2c2.8,2.2,5.5,4.5,8,6.9c8.8,8.8,17.5,17.6,26.2,26.5C281,101.3,280.2,99.2,279.3,97z"/>
	<path d="M216.8,258.5c6.5-2,12.6-5.1,18.3-9.5c1.9-1.4,3.3-3.9,4.2-6.3c2.5-6.3,0.3-12-2.6-17.6c-2.3-4.4-4.5-8.9-6.2-13.5
		c-4.7-12.2-9.4-24.4-18.6-33.6c-5.6-5.7-11.6-10.8-18.3-14.8c-2.3-1.4-4.6-3-6.8-4.6c-0.6-0.5-1.1-1.3-1.6-1.9
		c0.1-0.2,0.2-0.4,0.3-0.6c1.1,0.2,2.2,0.3,3.2,0.7c8.2,3.2,16.2,7,22.5,13.7c12.2,13.1,22.4,27.6,25.6,46.6
		c0.3,1.6,1.1,3.1,1.7,4.6c0.3-0.1,0.5-0.1,0.8-0.2c1.2-2,1.4-4.4,1-6.6c-0.8-4.8-1.5-9.8-3.2-14.2c-9.2-23.6-24.2-41-46.7-49.9
		c-6.3-2.5-12.5-3-19-0.3c-12.3,4.9-24.3,10-35,18.5c-5.4,4.3-9.5,9.7-12.1,16.3c-2.2,5.5-4.1,11-5.7,16.7c-4.1,14.8-8,29.7-13.5,44
		l0,12.6h1.8c0.3-0.9,0.6-1.9,0.9-2.8c6-16.3,11-32.8,13.7-50.1c1.1-7.2,4.5-12.8,8.3-18.3c0.4-0.5,1.3-1.1,1.8-0.9
		c0.7,0.2,1.6,1,1.9,1.7c0.3,0.8,0,1.9-0.4,2.7c-2.4,5.8-5.3,11.4-7.1,17.4c-4.2,14.1-7.9,28.3-11.6,42.5c-0.3,1.1,0.4,2.4,0.7,3.7
		c1-0.6,2.1-1.2,3-2c0.6-0.5,0.8-1.5,1.1-2.3c0.8-2.6,1.7-5.2,2.2-7.8c3.1-15.3,8.3-29.7,15.1-43.4c2-4.2,4.9-8.1,6.1-12.6
		c1.2-4.4,4.1-6.2,6.9-8.4c2.7-2.2,5.6-4.2,8.5-6.2c5.4-3.9,11.4-6.1,17.6-7.6c1-0.2,2-0.2,3-0.3c0,0.2,0.1,0.4,0.1,0.7
		c-0.7,0.3-1.5,0.6-2.2,0.8c-6.1,1.7-11.3,5-16,9.6c-6.8,6.6-12.5,14.1-16.7,22.9c-1.4,3-3,5.9-4.7,8.7c-5.6,9.4-8.9,19.8-11.2,30.5
		c-0.2,0.8,0.3,2.2,0.8,2.6c0.6,0.4,2.1,0.1,2.5-0.5c1.3-1.6,2.5-3.4,3.3-5.4c2.4-5.5,4.9-11,6.8-16.8c3.2-9.7,8-18.3,13.1-26.7
		c5.9-9.6,13.9-16.2,23.6-20.3c2-0.9,4.3-1.4,6.5-1.2c3,0.2,6.1,0.8,8.8,2.1c8.2,4,15,10,20.6,17.6c1.2,1.7,2.6,3.5,2,6.2
		c-1.7-1-3.1-2.3-4.5-3.6c-3.9-3.6-7.5-7.5-11.6-10.9c-8.2-6.7-16.9-7.6-25.9-1.8c-13.4,8.7-22.2,21.5-27.2,37.4
		c-2.9,9.3-5.2,18.8-7.8,28.2c-1.5,5.2-3.3,10.2-5.6,14.8h6.6c4.7-10.6,7.9-21.9,10.6-33.2c3.5-14.3,8.7-27.5,17.5-38.9
		c4.7-6,10.8-8.3,17.7-8.2c3.9,0,7.6,1.4,10.5,4.4c5.9,6.2,11.8,12.4,17.9,18.4c7.3,7.2,13.3,15.6,18.9,24.3
		c3,4.7,3.9,10.1,1.8,15.6c-0.3,0.9-1.6,1.3-2.4,1.9c-0.3-1-0.9-2-0.8-2.9c0.5-3.6-0.1-6.9-1.9-9.9c-1.8-2.9-3.6-5.9-5.8-8.5
		c-7.9-9.5-15.9-18.8-24-28.1c-3.2-3.7-7.2-6.1-11.6-7.8c-6.9-2.5-13.4-0.2-18.1,5.9c-6.7,8.8-10.4,19-13,29.8
		c-2.4,10.3-5.1,20.5-7.8,30.7c-0.6,2.3-1.4,4.4-2.3,6.5h6.1c1.5-3,2.7-6.2,3.6-9.6c1.9-7.7,3.2-15.5,5-23.2
		c1.2-5.3,2.7-10.5,4.2-15.7c0.5-1.6,1.4-2.8,3.1-2c1.8,0.8,1.8,2.3,1.3,4c-0.4,1.6-1,3.2-1.3,4.9c-1.1,5.9-3.3,11.4-3.3,17.7
		c0,8.7-1.7,16.7-5.5,23.9h7c1.7-3.8,2.6-7.8,2.8-12.2c0.2-5.1,0.6-10.3,1-15.4c0.2-2.4,0.2-5,2.7-7.4c0.4,1.6,0.8,2.7,0.8,3.7
		c0.3,6.3,0.9,12.7,0.8,19c-0.1,4.3-0.9,8.5-2.3,12.3h4.9c0.6-2.4,1-4.9,1.3-7.3c1.4-11.1,1.4-22.2-2.2-32.9
		c-1.9-5.7-0.5-10.6,2.7-15.1c2.2-3,5-2.6,7,0.5c0.5,0.9,1.1,1.7,1.6,2.6c4.4,7.4,8.7,14.7,13.1,22.1c0.8,1.4,2,2.6,2.9,3.9
		c1.1,1.5,2.2,3.1,3,4.7c1,1.9,0.3,3.1-1.6,2.8c-1.4-0.2-2.9-1.1-4.1-2.1c-4.1-3.9-6.5-9.1-9-14.2c-1.4-2.9-2.9-5.8-4.6-8.5
		c-1-1.7-2.4-3.5-4.5-2.7c-2.2,0.9-1.8,3.3-1.5,5.3c0.6,3.4,1.5,6.7,2,10.1c0.8,6,1.6,11.9,2,17.9c0.3,4.6-0.2,8.9-1.4,12.9H216.8z
		 M162,164.8c-9.5,3.8-17.7,9.5-23.9,18.4c-0.3,0.4-0.6,0.7-1,1.2c-3.9-2.2-3.9-2.3-1.1-5.8c9.5-11.5,21.4-17.7,35.2-20.1
		c1.6-0.3,3.3,0,4.9,0c0.1,0.3,0.1,0.7,0.2,1c-1.2,0.6-2.3,1.2-3.6,1.7C169.2,162.5,165.5,163.4,162,164.8z M189.7,234.4
		c-0.2-0.9,0.1-2,0.2-3c0.3-0.1,0.5-0.1,0.8-0.2c0.4,0.7,0.9,1.4,1.3,2.1c0.8,1.8,1.7,3.6,2.4,5.4c1.5,4.3,4.5,6.9,8.2,8.7
		c4.8,2.3,9.3,1.2,12.3-3.1c2.7-3.9,2.4-8.8-0.9-13c-8-10.3-16.1-20.5-24.2-30.8c-2-2.6-4.3-4.7-7.5-5.1c-1.9-0.2-3.5,0.3-4.7,1.9
		c-0.8,1-1.7,2.2-2.7,2.7c-0.9,0.4-2.3,0.2-3.2-0.3c-0.3-0.2-0.3-2.1,0.1-2.8c3-5.8,10.1-10.1,17.3-5.2c4.4,3,7.9,7,11.2,11.2
		c7.1,9.1,14.2,18.3,21.3,27.4c4.8,6.1,3.7,14.5-2.7,19.3c-5.8,4.3-12.2,5.9-19.2,4.6c-3.6-0.7-5.6-3.7-6.7-7
		C191.4,243.1,190.6,238.7,189.7,234.4z"/>
	<path d="M257.5,246.2c2-9.9,1.6-19.8,0.5-29.8c-2.7-23.5-11.5-44.1-25.5-62.1c-1.6-2.1-3.8-3.8-5.9-5.3c-0.9-0.7-2.4-0.5-3.6-0.7
		c0.4,1.2,0.6,2.6,1.3,3.6c2.3,3.2,5,6.1,7.2,9.5c3.5,5.6,6.8,11.3,10,17.1c10.4,18.2,13.7,38.1,11.4,59.3c-0.4,3.9-1.2,7.8-2,11.6
		c-0.2,0.9-0.8,1.7-1.2,2.5c-0.3-0.1-0.5-0.1-0.8-0.2c-0.1-1.8-0.4-3.6-0.3-5.4c0.3-4.9,0.9-9.8,1.2-14.6c0.5-8.8,1.3-17.9-2-26.2
		c-4.3-10.8-9.4-21.3-14.2-31.9c-0.1-0.3-0.3-0.6-0.5-0.8c-5.5-6.4-10.8-13.1-16.6-19.1c-5.4-5.6-11.6-10.2-18.5-13.5
		c-3.4-1.6-4-2.9-2.9-6.7c0.2-0.7,0.4-1.4,0.7-2c1-2,0.6-3.9-0.6-5.6c-2.9-4-6.5-6.7-11.4-6.9c-2.4-0.1-4.7-0.1-7.1,0
		c-1,0-2,0.4-3,0.6c0.1,2.8,1.6,3.8,3.5,4.3c2.1,0.5,4.2,0.7,6.3,1.1c3.7,0.8,5,2.6,4.3,5.8c-0.5,2.1-2.2,2.2-5.8,1
		c-2.4-0.8-4.9-1.2-7.4-1.4c-2.6-0.1-5.2,0.1-7.7,0.5c-2,0.3-2.4-0.6-2-2.4c0.5-2.3,1.2-4.5,1.6-6.8c0.6-3.4-0.5-5-3.6-4.6
		c-4.4,0.6-8.9,1.3-13.2,2.8c-12.3,4.3-22.8,11.4-32.6,19.7c0.3,1.8,0.6,4,0.9,6.3c4.6-4.9,9.7-9.2,15.7-12.2
		c6.5-3.2,13.2-6,19.9-8.8c1.3-0.6,2.9-0.8,4.3-0.7c0.8,0.1,1.6,1.1,2,1.5c-0.3,3.2-1.5,4.8-3.5,5.7c-3.8,1.6-7.5,3.4-11.4,4.8
		c-8.6,3.2-15.9,8.4-22.4,15.2c-1.3,1.4-2.6,2.7-3.9,4c0.2,2.7,0.3,5.6,0.4,8.7c2.1-2.4,4.3-4.7,6.4-7c1.1-1.2,2.8-2,4.4-2.6
		c1.4-0.6,2.1,0.3,1.5,1.8c-0.5,1.2-1.2,2.4-1.9,3.5c-2.8,4.5-5.8,8.9-8.5,13.4c-0.7,1.1-1.3,2.2-2,3.3c-0.2,4.6-0.5,9.6-1.1,14.7
		c0.6-1.6,1.2-3.1,1.9-4.7c4.6-10.9,11.3-20.2,20.9-26.6c5-3.4,10-7,15.2-10c13.5-7.8,27.2-9,41-0.4c1.9,1.2,3.8,2.2,5.7,3.3
		c19.3,11.7,32.8,28.8,39.7,51.7c4.1,13.7,4.5,27.6-0.4,41.4c-1.3,3.8-3.5,6.5-6.7,8.7c-2.2,1.6-4.5,2.9-6.9,4.1h24.4
		C255.3,254.9,256.5,250.6,257.5,246.2z M186.9,140c-0.5,0.2-1.2,0.1-2,0.2c-1.2-0.2-2.7-0.4-4.2-0.6c-11.9-2-22.8,0.7-33,7.7
		c-1.4,1-2.9,2-4.5,2.6c-2.5,1.1-3.6,0.1-3.1-2.8c0.2-1.1,1-2.2,1.7-3.2c0.5-0.7,1.3-1,1.9-1.6c5-4.9,10.8-7,17.5-7.5
		c7.5-0.5,15-1.1,22.5,0.4c1.2,0.3,2.5,0.6,3.6,1.2c0.7,0.4,1,1.4,1.5,2.1C188.3,139,187.6,139.6,186.9,140z"/>
	<path d="M287.7,249.9c0.2-4.4,0.3-8.8,0.5-13.3c0-1.1,0.2-2.1,0.4-3.2c0.2,0,0.4-0.1,0.6-0.1c0.4,1,0.9,2.1,1.2,3.1
		c1.9,7.2,2.4,14.6,2.1,22.1h4.8c0.1-9.6-0.9-19.2-3.3-28.5c-3.6-14.5-8-28.8-12.1-43.2c-3.1-10.8-7.8-20.7-13.8-29.8
		c-6.3-9.4-13-18.5-19.5-27.8c-5.8-8.3-13.1-14.6-21.3-19.8c-4.3-2.7-8.6-5.2-13-7.6c-3.4,0.7-7,1.1-10.8,1.2h-0.2
		c7.4,3.4,14.6,7.4,21.6,11.8c11.3,7.2,20.8,16.8,28.3,28.4c4.6,7.2,8.7,14.7,13.2,22c6.6,10.6,11,22.2,14.4,34.3
		c2.9,10.5,5,21.1,2.5,32.1c-0.4,1.6-0.5,3.3-0.6,5c-0.5,7.2-0.8,14.5-1.3,21.7c0,0,0,0,0,0.1h5.4
		C287.3,255.8,287.6,252.9,287.7,249.9z"/>
	<path d="M269.4,234.9c0.1-0.6,0.1-1.1,0.2-1.7c0-0.1,0.2-0.3,0.3-0.5c0.5,0.3,1.1,0.7,1.6,1c0.6,0.3,1.2,0.5,2,0.8
		c-0.1,0.6-0.1,1.3-0.2,1.9c-2,7.6-4.4,15.1-7.5,22.2h7.6c1.6-4.8,3.1-9.7,4.8-14.5c2.7-7.9,3.1-16.1,1.6-24.2
		c-2.5-13.4-6.9-26.3-11.5-39c-2.8-7.7-5.7-15.4-10.2-22.2c-12.5-19.1-27.8-34.9-46.5-46.5c-6.2-3.8-12.5-7.4-19.2-9.9
		c-2.9-0.5-5.8-1.3-8.4-2.4c-1.4-0.3-2.8-0.5-4.2-0.6c-2.9-0.3-5.9-0.7-8.8-0.9c-8.4-0.7-16.8-1.8-25.2-1.7
		c-7.6,0.1-14.9,1.4-21.9,3.7c-0.8,2.1-1.5,4.2-2.2,6.3c4.9-1.8,9.9-3.2,15-4.1c6.3-1.1,12.8-0.5,19.3-0.7
		c15.9-0.7,30.8,3.3,45.2,10.3c14.4,7,27.6,16,38.2,28.8c18,21.7,27.9,47.7,34.1,75.7c0.8,3.4,0.7,7.1,1,10.7
		c-2.8,0.3-4-0.8-4.7-3.6c-1-4.2-1.9-8.4-3-12.6c-0.4-1.5-1.1-2.9-1.7-4.4c-0.3,0.1-0.6,0.1-0.9,0.2c-0.2,1.1-0.5,2.3-0.4,3.4
		c0.3,5.2,0.5,10.5,1.1,15.6c1.3,10.1-0.2,19.4-4.6,28.4c-0.7,1.5-1.5,3-2.4,4.4h4.2C265.6,251.4,268,243.5,269.4,234.9z"/>
	<path d="M119.4,114c-0.6,2.4-1.2,4.7-1.7,6.8c1.5-0.8,3-1.6,4.4-2.3c5.1-2.6,10.3-4.8,15.5-7.1c0.9-0.4,2-0.4,3-0.6
		c0.1,0.2,0.2,0.5,0.2,0.7c-1.3,0.9-2.5,1.8-3.8,2.6c-6.8,4.1-13.8,8-20.5,12.1l-0.4,2c-0.2,1.1-0.5,2.1-0.8,3.1
		c0,0.2,0.1,0.6,0.3,1.2c0.7-0.5,1.4-1,2.1-1.5c10.6-7.1,21.9-12.7,34-16.3c6.5-2,13.1-4.2,19.9-2.9c6.7,1.3,13.5,2.7,20,5.1
		c15.9,5.7,28.8,16.6,40.7,29c7.4,7.7,13.1,16.6,16.9,27.1c2.7,7.5,6.3,14.5,9.6,21.7c0.6,1.3,1.6,2.3,2.4,3.5
		c0.2-0.1,0.5-0.3,0.7-0.4c-0.3-1.5-0.4-3.1-0.9-4.5c-2.6-7.5-5-15.2-8.2-22.4c-9-20.6-22-37.4-40.1-49.4
		c-19.8-13.1-41.8-15.6-64.3-15.6c-4.8,0-9.6,1-14.3,1.7c-2.2,0.4-4.4,1.1-6.3,2.1C125.1,111.1,122.3,112.5,119.4,114z"/>
	<path d="M125.5,257.6c1.2-1.7,2.1-3.7,3.1-5.6c0.7-1.5-0.1-4.7-1.5-5.3c-2-0.8-2.3,1.3-3.2,2.5c-0.2,0.3-0.3,0.6-0.4,0.9
		c-1.5,2.8-3,5.7-4.6,8.5h5.9C125.1,258.2,125.3,257.9,125.5,257.6z"/>
	<path d="M218.6,143.7c0.6-0.1,1.4-0.7,1.6-1.2c0.2-0.4-0.1-1.5-0.5-1.9c-4-4-8.2-7.6-13.5-9.3c-1-0.3-2.1-0.3-3.1-0.5
		c-0.1,0.3-0.2,0.5-0.3,0.8c0.5,0.8,0.8,1.8,1.4,2.3c3.9,3.1,7.8,6.2,11.8,9.1C216.8,143.6,217.8,143.8,218.6,143.7z"/>
	<path d="M514.7,197.1c-0.3-1.6-1.1-3.1-1.7-4.6c-0.3,0.1-0.5,0.1-0.8,0.2c-1.2,2-1.4,4.4-1,6.6c0.2,0.9,0.3,1.8,0.5,2.7h4
		C515.4,200.5,515,198.8,514.7,197.1z"/>
	<path d="M615.7,202.1c3.8-7.8,6.2-16.1,8.1-24.7c0.2-0.8-0.3-2.2-0.8-2.6c-0.6-0.4-2.1-0.1-2.5,0.5c-1.3,1.6-2.5,3.4-3.3,5.4
		c-2.4,5.5-4.9,11-6.8,16.8c-0.5,1.6-1.1,3.1-1.7,4.7H615.7z"/>
	<path d="M631.8,198.9c-0.2,1.1-0.4,2.1-0.6,3.2h1.1C632.1,201,631.9,199.9,631.8,198.9z"/>
	<path d="M594.6,192.9c2.4-10.3,5.1-20.5,7.8-30.7c2.1-7.7,6-14.1,11.4-19.5c3.5-3.5,6.9-7.3,10.4-10.9c1-1.1,2.2-1.9,3.2-3
		c1.2-1.2,2.5-2.4,3.7-3.6l-0.1-0.3c-0.3-1.7-0.7-3.4-1.1-5.3c-2.6,3.2-5.4,6.3-8.4,9.1c-3.6,3.4-7.3,6.6-10.6,10.3
		c-6.9,7.6-13.3,15.7-15.8,26.3c-1.9,7.7-3.2,15.5-5,23.2c-1,4.5-2.3,9-3.6,13.5h5.5C593,199.1,593.8,196,594.6,192.9z"/>
	<path d="M468,202.1c-1-6.4-1.2-12.9,0.3-19.6c0.4-1.6,0.5-3.3,0.6-5c0.5-7.2,0.8-14.5,1.3-21.7c0.7-8.6,4-15.9,9.6-22
		c2-2.1,4.3-3.4,7.1-3.3c1.8,0.1,3,1.2,2.5,3.1c-0.5,2.1-1.2,4.5-2.5,6c-3.7,4.2-6.2,9-8,14.4c-1.8,5.4-3.5,10.9-5.4,16.4
		c-2.7,7.9-3.1,16.1-1.6,24.2c0.5,2.6,1,5.1,1.6,7.6h5.7c-0.3-1.4-0.7-2.9-1-4.3c-0.8-3.4-0.7-7.1-1-10.7c2.8-0.3,4,0.8,4.7,3.6
		c0.9,3.8,1.7,7.6,2.7,11.3h3.2c-0.2-4.5-0.5-9.1-1-13.5c-1.3-10.1,0.2-19.4,4.6-28.4c5.1-10.4,12.4-18.1,21.9-23.5
		c12.4-7.1,25.6-12.3,38.8-17.2c13.1-4.9,25.5-11.2,37.1-19.3c7.5-5.2,14.8-10.6,22.4-15.7c0.9-0.6,1.9-1.2,2.8-1.8
		c-0.9-1.2-1.9-2.5-2.9-3.6c-8.6,5.3-17.2,10.9-25.3,17.2c-6,4.7-12.5,8.7-19.6,11.3c-1,0.4-2.1,0.5-3.2,0.7
		c-0.1-0.3-0.2-0.6-0.3-0.9c2.2-1.7,4.3-3.5,6.6-5.1c12.4-8.4,24.7-17.1,37.5-25c0.5-0.3,1.1-0.7,1.6-1c-1.3-1.3-2.6-2.6-4-3.8
		c0,0,0,0,0,0c-6,3.9-12.1,7.7-17.8,11.3c-1.9-0.1-3.6-0.6-4.9-0.1c-5.8,2.2-11.5,4.6-17.1,7.1c-8.9,4.1-17.7,8.4-26.6,12.5
		c-1.3,0.6-2.9,0.7-4.4,1c-0.1-0.3-0.2-0.6-0.4-0.9c1.5-1.1,2.8-2.4,4.4-3.2c6.9-3.6,13.9-7.1,20.9-10.5
		c10.4-5.1,20.9-9.8,31.2-15.2c3.4-1.8,6.7-3.7,10-5.6c-1.3-0.9-2.7-1.8-4.2-2.7c-0.1,0-0.1-0.1-0.1-0.1l-0.3-0.2
		c-4.5,2.3-9,4.4-13.6,6.4c-7.9,3.4-15.7,7.1-23.6,10.6c-12.9,5.8-25,13.2-36.1,22.5c-7.6,6.3-15.4,12.2-23.1,18.4
		c-2.1,1.7-3.8,2.2-5.8,0.3c-2.5-2.4-5.1-2-7.8-0.3c-0.9,0.6-1.8,1.1-2.6,1.8c-12,9.7-18.5,22.6-19.2,39c-0.2,4.4-0.3,8.8-0.5,13.3
		c0,1.1-0.2,2.1-0.4,3.2c-0.2,0-0.4,0.1-0.6,0.1c-0.4-1-0.9-2.1-1.2-3.1c0-0.1,0-0.1-0.1-0.2c-0.2,4.9-0.6,10-1.2,15.4
		c0.8,3,1.6,6,2.5,9H468z M490.3,146.6c3.2-5.8,7.4-10.7,12.5-14.5c15.4-11.3,32-20.1,48.7-28.8c6.3-3.3,12.4-6.8,18.6-10.2
		c1.3-0.7,2.7-1.2,4.1-1.9c0.2,0.3,0.4,0.6,0.6,1c-1.4,1.4-2.7,3-4.3,4.1c-5.7,3.9-11.3,8-17.2,11.4c-7.9,4.6-16,8.6-24,13.1
		c-6.4,3.6-12.8,7.1-18.9,11.1c-16.5,10.7-24.9,27.4-28.2,47.4c-0.1,0.6-0.1,1.1-0.2,1.7c0,0.1-0.2,0.3-0.3,0.5
		c-0.5-0.3-1.1-0.7-1.6-1c-0.6-0.3-1.2-0.5-2-0.8c0.1-0.6,0.1-1.3,0.2-1.9C481.2,166.9,484.8,156.4,490.3,146.6z"/>
	<path d="M630.5,188.4c-0.5-4.8-0.7-9.5-0.9-13.8c-2.1,9.5-5,18.6-8.6,27.5h5.6C628,197.5,629.3,193,630.5,188.4z"/>
	<path d="M603.9,202.1c0.4-1.1,0.8-2.2,1.1-3.4c2.9-9.3,5.2-18.8,7.8-28.2c3.6-12.7,9.3-23.9,19.1-32.2c0.4-2.4,0.8-4.2,1-5.4
		c-0.2-0.5-0.3-1-0.4-1.5c-5.7,6.2-11.6,12.2-17.3,18.4c-1.1,1.2-2,2.8-2.7,4.3c-5.1,11.1-8.4,22.9-11.3,34.7
		c-1.1,4.5-2.4,8.9-3.9,13.2H603.9z"/>
	<path d="M522.4,47.5c0,0.2-0.1,0.3-0.1,0.5c0.9-0.2,1.8-0.4,2.8-0.6C524.2,47.5,523.3,47.5,522.4,47.5z"/>
	<path d="M588.8,60.9l-5.5-3.8c-11.6,6.7-23.3,13.4-34.9,20.1c-0.7,0.4-1.3,0.7-2,0.9c-1.5,0.4-2.4-0.6-2.4-2.2
		c0-1.9,1.3-2.4,2.6-2.9c12-4.7,23.2-11,34.1-17.8l-5.1-3.5c-3.3,2-6.6,4-9.9,6.1C552.7,66.1,539,72,525.3,78.2
		c-1.5,0.7-2.5,0-3-1.5c-0.4-1.4-0.5-2.7,1.3-3.5c4.9-2.3,9.6-4.9,14.4-7.4c6-3.1,12-6.2,18-9.5c4.1-2.2,8.1-4.7,12.1-7.1
		c0.7-0.4,1.3-1.1,2-1.6c-1,0-1.9-0.1-2.9-0.1c-0.2,0.1-0.4,0.1-0.7,0.2c-8.1,3.5-16.2,7-24.3,10.5c-4.1,1.7-8.1,3.8-12.3,4.9
		c-6.4,1.7-13,2.8-19.6,4c-1,0.2-2.1-0.2-3.1-0.4c-0.1-0.3-0.2-0.6-0.2-1c1.4-0.8,2.8-1.8,4.3-2.4c9.5-3.7,19.1-7.3,28.7-11
		c0.6-0.2,1.3-0.2,1.9-0.2c1.6-0.1,3.5,0.5,4.9-0.2c3.2-1.5,6.3-3.2,9.4-4.8c-3.9-0.1-7.6-0.1-11.1-0.1h0c-1.6,0-3.3,0-5,0
		c-6.1,2.1-12.2,4.3-18.3,6.5c-6.3,2.3-12.6,4.8-18.8,7.4l-7.5,4.8c-7,4.1-13,9.5-18,16.1c8.6-5,17.7-8.5,27.4-10.2
		c1.6-0.3,3.3,0.2,4.9,0.6c0.6,0.2,1.2,1.2,1.4,1.9c0.1,0.4-0.9,1.2-1.5,1.5c-9.3,4.7-18.7,9.3-28.1,13.9c-1.5,0.8-3.2,1.5-4.5,2.6
		c-3.1,2.5-6.3,5-9.5,7.4c-1.1,2.7-2,5.3-2.8,7.8c12.5-10.3,26.5-18,40.6-25.4c3.7-1.9,7.5-3.8,11.3-5.7c1,1.7,1.7,3.1,2.6,4.6
		c-1.2,0.6-2.3,1.1-3.5,1.6c-10.6,5.2-21.3,10.1-31.7,15.6c-8.1,4.3-15.3,9.9-21.5,16.8c-0.8,3.3-1.4,6.4-2,9.2
		c2.4-3.1,5.1-6.1,8.3-8.9c3.8-3.4,8-6.4,12.4-8.9c12.4-7.1,24.5-14.9,38.2-18.8c0.6-0.2,1.1-0.6,1.6-0.9c5.4-3,10.9-5.9,16.2-9
		c1.9-1.1,2.8,0.2,3.5,1.6c1,1.8-0.7,2-1.5,2.4c-9.1,4.1-18.1,8.4-27.2,12.3c-17,7.4-32.2,18.1-46.1,30.8c-3.1,2.8-5.5,6.1-7.4,9.7
		c0.5,2.6,1.3,6.8,1.9,12.1c1.9-9.6,6.5-17.8,14.4-23.8c10.6-8,21.6-15.5,32.4-23.2c1.3-0.9,2.8-1.4,4.3-1.9c0.8-0.3,1.8,0,2.7,0
		c-7.2,7.1-15,13-21.3,20.9c1.7-0.2,3.2-0.6,4.4-1.5c5.9-4.2,11.8-8.3,17.5-12.8c10.1-8,20.6-15,31.9-20.8
		c6.2-3.2,12.4-6.5,18.6-9.8C573,69.6,580.9,65.3,588.8,60.9z"/>
	<path d="M581.5,202.1c0.4-1.6,0.9-3.1,1.2-4.8c1.1-5.9,3.3-11.4,3.3-17.7c0-12.2,3.4-23.1,11-32.3c1.6-1.9,2.7-4.3,4.2-6.2
		c2.5-3.1,5.1-6,7.8-8.8c1.7-1.8,3.8-3.1,5.5-4.9c4.4-4.4,8.6-8.8,12.9-13.3c0.4-0.4,0.7-0.9,1-1.4c-0.1-0.4-0.2-0.8-0.3-1.2
		c-0.8,0.3-1.6,0.6-2.3,1.1c-2.8,2.4-5.6,5-8.4,7.5c-0.8,0.7-1.8,1.4-2.8,1.7c-1.7,0.4-2.6-0.8-1.6-2.4c1.1-1.8,2.4-3.5,3.9-4.8
		c2.8-2.5,5.9-4.6,8.8-7c0.3-0.3,0.7-0.6,1-0.9c-0.2-0.6-0.4-1.3-0.7-2c-0.3,0.1-0.6,0.1-0.8,0.3c-3.6,1.8-7.5,3.3-10.7,5.8
		c-9.1,7.1-17.9,14.5-26.7,22c-5.4,4.6-10.1,10.1-12.3,17.3c-1.3,4.2-2.3,8.5-2.8,12.9c-1.4,11.1-1.4,22.2,2.2,32.9
		c0.7,2.2,1,4.2,0.8,6.2H581.5z M577.2,187c-0.3-6.3-0.9-12.7-0.8-19c0.2-8.2,2.8-15.6,7.6-21.9c5.3-7,11.5-13.2,18.4-18.4
		c1.9-1.4,3.6-2.9,6.8-3.2c-0.7,1.6-1,2.9-1.7,3.7c-3,3.5-6,6.9-9.1,10.2c-4,4.2-8.2,7.9-11.5,12.9c-3.4,5.1-5,10.4-5.2,16.5
		c-0.2,5.1-0.6,10.3-1,15.4c-0.2,2.4-0.2,5-2.7,7.4C577.6,189.1,577.3,188.1,577.2,187z"/>
	<path d="M499,202.1c-1.1-8.3-1.1-16.8-0.1-25.5c0.4-3.9,1.2-7.8,2-11.6c0.2-0.9,0.8-1.7,1.2-2.5c0.3,0.1,0.5,0.1,0.8,0.2
		c0.1,1.8,0.4,3.6,0.3,5.4c-0.3,4.9-0.9,9.8-1.2,14.6c-0.4,6.5-0.9,13.1,0.1,19.4h5.2c-2.1-11.2-1.6-22.4,2.4-33.6
		c1.3-3.8,3.5-6.5,6.7-8.7c7-4.9,14.7-7.7,22.8-9.6c4.5-1,8.9-2.4,13.5-2.8c6.6-0.6,11.2-3.8,13.6-10.5c0.4-1,0.2-2.3,0.3-3.4
		c-1,0.1-2,0.2-2.9,0.4c-1.6,0.4-3.6,1.7-4.5-0.6c-0.8-2.2,1.3-3.1,2.8-3.9c4.2-2.4,8.4-4.8,12.5-7.2c1.6-1,3.1-1.6,4.6,0.1
		c1.3,1.6,1,3.7-0.5,5.6c-2.1,2.7-4,5.5-6,8.3c-3.1,4.3-5.9,8.9-9.3,12.9c-3,3.7-7,5.3-11.6,4.3c-1.4-0.3-2.8-0.4-4.2-0.3
		c-11.2,1.2-21.7,4.8-31,12c-1.9,1.4-3.3,3.9-4.2,6.3c-2.5,6.3-0.3,12,2.6,17.6c2.2,4.2,4.3,8.5,6,13h7.1c-3.2-4.2-6.3-8.6-9.2-13.1
		c-3-4.7-3.9-10.1-1.8-15.6c0.3-0.9,1.6-1.3,2.4-1.9c0.3,1,0.9,2,0.8,2.9c-0.5,3.6,0.1,6.9,1.9,9.9c1.8,2.9,3.6,5.9,5.8,8.5
		c2.6,3.1,5.3,6.2,7.9,9.3h8.6c-4.7-6.1-9.4-12.1-14.1-18.2c-4.8-6.1-3.7-14.5,2.7-19.3c5.8-4.3,12.2-5.9,19.2-4.6
		c3.6,0.7,5.6,3.7,6.7,7c1.4,4.1,2.1,8.5,3,12.8c0.2,0.9-0.1,2-0.2,3c-0.3,0.1-0.5,0.1-0.8,0.2c-0.4-0.7-0.9-1.4-1.3-2.1
		c-0.8-1.8-1.7-3.6-2.4-5.4c-1.5-4.3-4.5-6.9-8.2-8.7c-4.8-2.3-9.3-1.2-12.3,3.1c-2.7,3.9-2.4,8.8,0.9,13c5,6.4,10,12.7,15,19.1h7.3
		c-3.2-5.4-6.4-10.9-9.7-16.3c-0.8-1.4-2-2.6-2.9-3.9c-1.1-1.5-2.2-3.1-3-4.7c-1-1.9-0.3-3.1,1.6-2.8c1.4,0.2,2.9,1.1,4.1,2.1
		c4.1,3.9,6.5,9.1,9,14.2c1.4,2.9,2.9,5.8,4.6,8.5c0.7,1.3,1.7,2.6,3,2.9h1c0.2,0,0.3-0.1,0.5-0.1c2.2-0.9,1.8-3.3,1.5-5.3
		c-0.6-3.4-1.5-6.7-2-10.1c-0.8-6-1.6-11.9-2-17.9c-0.7-11.2,3.4-20.6,9.9-28.9c7.5-9.7,16.9-17,26.1-24.6c7.2-5.9,14.1-12,21.2-18
		c-0.5-1.2-1.1-2.4-1.7-3.6c-11.3,9.4-23.4,17.7-34.9,26.8c-0.1,0.1-0.2,0.2-0.4,0.3c-0.8,0-1.7,0.4-2.3,0c-0.5-0.4-1-1.7-0.8-2.2
		c0.6-1.4,1.5-3,2.6-3.9c4.1-3,8.4-5.7,12.6-8.6c2.7-1.9,5.3-4.1,8.1-5.8c4.8-2.8,9.1-6.2,13.3-9.8c-0.9-1.6-1.9-3.2-2.9-4.8
		c-9.3,6.9-18.6,13.9-28.1,20.5c-13,8.8-26.4,17-41.5,20.9c-10.2,2.6-20,6.5-29.4,11.5c-2.8,1.5-5.3,3.4-7.9,5.3
		c-0.6,0.5-0.9,1.6-1.3,2.4c0.8,0.3,1.8,1,2.5,0.8c3.5-0.9,7-1.9,10.4-3.2c4.7-1.8,9.2-4.2,13.9-5.8c3.1-1,6.4-1.3,9.6-1.6
		c1.1-0.1,2.5,0.6,3.4,1.4c1.5,1.3,1.3,2.6-0.5,3.6c-1.8,0.9-3.7,1.7-5.6,2.4c-8.1,2.7-16.1,5.3-24.2,7.9c-3.7,1.1-7.4,1.6-11-0.6
		c-0.7-0.5-2.1-0.3-2.9,0.1c-1.3,0.7-2.5,1.7-3.5,2.8c-3.7,3.9-5.2,9.1-6.3,14.4c-2,9.9-1.6,19.8-0.5,29.8c0.2,1.4,0.3,2.8,0.6,4.2
		H499z"/>
	<path d="M627.7,165.1c0.2-0.3,0.3-0.6,0.4-0.9c0.5-1,1.1-2,1.6-3c0.1-4,0.4-7.6,0.7-10.8c-1.4,2.1-2.9,4.2-4.3,6.3
		c-1.2,1.7-2.1,3.7-3.1,5.6c-0.7,1.5,0.1,4.7,1.5,5.3C626.5,168.4,626.8,166.3,627.7,165.1z"/>
	<path d="M484.7,373.1c-4.5-2.4-9.1-4.6-13.7-6.7c-1.1-0.5-2.4-0.4-3.6-0.5c0.1,0.8,0.3,1.1,0.6,1.2c3.6,2.3,7.2,4.6,10.8,6.9
		c5.3,1.8,11.1,3.6,17.2,5.2C492.1,377.2,488.4,375.1,484.7,373.1z"/>
	<path d="M502.2,202.1c0.4,2.3,1,4.6,1.8,6.8c4.3,10.8,9.4,21.3,14.2,31.9c0.1,0.3,0.3,0.6,0.5,0.8c5.5,6.4,10.8,13.1,16.6,19.1
		c5.4,5.6,11.6,10.2,18.5,13.5c3.4,1.6,4,2.9,2.9,6.7c-0.2,0.7-0.4,1.4-0.7,2c-1,2-0.6,3.9,0.6,5.6c2.9,4,6.5,6.7,11.4,6.9
		c2.4,0.1,4.7,0.1,7.1,0c1,0,2-0.4,3-0.6c-0.1-2.8-1.6-3.8-3.5-4.3c-2.1-0.5-4.2-0.7-6.3-1.1c-3.7-0.8-5-2.6-4.3-5.8
		c0.5-2.1,2.2-2.2,5.8-1c2.4,0.8,4.9,1.2,7.4,1.4c2.6,0.1,5.2-0.1,7.7-0.5c2-0.3,2.4,0.6,2,2.4c-0.5,2.3-1.2,4.5-1.6,6.8
		c-0.6,3.4,0.5,5,3.6,4.6c4.4-0.6,8.9-1.3,13.2-2.8c15.9-5.6,28.9-15.8,41.1-27.3l0-9.7c-7.3,9.1-14.7,18-25.1,23.1
		c-6.5,3.2-13.2,6-19.9,8.8c-1.3,0.6-2.9,0.8-4.3,0.7c-0.8-0.1-1.6-1.1-2-1.5c0.3-3.2,1.5-4.8,3.5-5.7c3.8-1.6,7.5-3.4,11.4-4.8
		c8.6-3.2,15.9-8.4,22.4-15.2c2.7-2.8,5.3-5.6,8.1-8.3c1.3-1.3,2.8-2.4,4.2-3.5c0.6-0.5,1.2-0.8,1.8-0.6l0-7.4
		c-0.5-1.4-1-2.9-1.5-4.3c-0.6,0.9-1.2,1.8-1.8,2.7c-4.2,5.6-9,10.6-13.7,15.7c-1.1,1.2-2.8,2-4.4,2.6c-1.4,0.6-2.1-0.3-1.5-1.8
		c0.5-1.2,1.2-2.4,1.9-3.5c2.8-4.5,5.8-8.9,8.5-13.4c2.6-4.4,5.2-8.8,7.4-13.4c-0.9-3.2-1.8-6.4-2.5-9.5c-1.2,3.2-2.4,6.4-3.8,9.5
		c-4.6,10.9-11.3,20.2-20.9,26.6c-5,3.4-10,7-15.2,10c-13.5,7.8-27.2,9-41,0.4c-1.9-1.2-3.8-2.2-5.7-3.3
		c-19.3-11.7-32.8-28.8-39.7-51.7c-0.8-2.6-1.4-5.2-1.9-7.8H502.2z M564.7,274.3c0.5-0.2,1.2-0.1,2-0.2c1.2,0.2,2.7,0.4,4.2,0.6
		c11.9,2,22.8-0.7,33-7.7c1.4-1,2.9-2,4.5-2.6c2.5-1.1,3.6-0.1,3.1,2.8c-0.2,1.1-1,2.2-1.7,3.2c-0.5,0.7-1.3,1-1.9,1.6
		c-5,4.9-10.8,7-17.5,7.5c-7.5,0.5-15,1.1-22.5-0.4c-1.2-0.3-2.5-0.6-3.6-1.2c-0.7-0.4-1-1.4-1.5-2.1
		C563.4,275.3,564,274.6,564.7,274.3z"/>
	<path d="M561.9,213.8c2,2.6,4.3,4.7,7.5,5.1c1.9,0.2,3.5-0.3,4.7-1.9c0.8-1,1.7-2.2,2.7-2.7c0.9-0.4,2.3-0.2,3.2,0.3
		c0.3,0.2,0.3,2.1-0.1,2.8c-3,5.8-10.1,10.1-17.3,5.2c-4.4-3-7.9-7-11.2-11.2c-2.4-3.1-4.8-6.2-7.2-9.3h-8.6
		c5.3,6.3,10.7,12.6,16.1,18.8c3.2,3.7,7.2,6.1,11.6,7.8c6.9,2.5,13.4,0.2,18.1-5.9c4.8-6.2,8-13.2,10.4-20.6h-5.5
		c-0.2,0.7-0.4,1.5-0.6,2.2c-0.5,1.6-1.4,2.8-3.1,2c-1.8-0.8-1.8-2.3-1.3-4c0,0,0-0.1,0-0.1h-5.9c-0.2,3.2-1.5,6.1-3.5,8.9
		c-2.2,3-5,2.6-7-0.5c-0.5-0.9-1.1-1.7-1.6-2.6c-1.1-1.9-2.3-3.8-3.4-5.8h-7.3C555.8,206,558.9,209.9,561.9,213.8z"/>
	<path d="M494.2,202.1c3.2,21.8,11.8,41,25,57.9c1.6,2.1,3.8,3.8,5.9,5.3c0.9,0.7,2.4,0.5,3.6,0.7c-0.4-1.2-0.6-2.6-1.3-3.6
		c-2.3-3.2-5-6.1-7.2-9.5c-3.5-5.6-6.8-11.3-10-17.1c-6.1-10.7-9.8-22-11.3-33.8H494.2z"/>
	<path d="M567.7,202.1h-1C567,202.1,567.3,202.1,567.7,202.1z"/>
	<path d="M521.1,202.6c4.7,12.2,9.4,24.4,18.6,33.6c5.6,5.7,11.6,10.8,18.3,14.8c2.3,1.4,4.6,3,6.8,4.6c0.6,0.5,1.1,1.3,1.6,1.9
		c-0.1,0.2-0.2,0.4-0.3,0.6c-1.1-0.2-2.2-0.3-3.2-0.7c-8.2-3.2-16.2-7-22.5-13.7c-11.1-12-20.6-25.1-24.6-41.7h-4
		c0.7,3.9,1.3,7.9,2.7,11.5c9.2,23.6,24.2,41,46.7,49.9c6.3,2.5,12.5,3,19,0.3c12.3-4.9,24.3-10,35-18.5c5.4-4.3,9.5-9.7,12.1-16.3
		c2.2-5.5,4.1-11,5.7-16.7c0.2-0.8,0.5-1.7,0.7-2.5c-0.5-2.6-1-5.2-1.4-7.7h-1.1c-0.4,2.2-0.8,4.3-1.1,6.5
		c-1.1,7.2-4.5,12.8-8.3,18.3c-0.4,0.5-1.3,1.1-1.8,0.9c-0.7-0.2-1.6-1-1.9-1.7c-0.3-0.8,0-1.9,0.4-2.7c2.4-5.8,5.3-11.4,7.1-17.4
		c0.4-1.3,0.8-2.7,1.2-4h-5.6c-1.8,4.5-3.8,9-6,13.4c-2,4.2-4.9,8.1-6.1,12.6c-1.2,4.4-4.1,6.2-6.9,8.4c-2.7,2.2-5.6,4.2-8.5,6.2
		c-5.4,3.9-11.4,6.1-17.6,7.6c-1,0.2-2,0.2-3,0.3c0-0.2-0.1-0.4-0.1-0.7c0.7-0.3,1.5-0.6,2.2-0.8c6.1-1.7,11.3-5,16-9.6
		c6.8-6.6,12.5-14.1,16.7-22.9c1.4-3,3-5.9,4.7-8.7c1.1-1.9,2.2-3.9,3.1-5.8h-7c-3.1,7.8-7.1,15-11.5,22.1
		c-5.9,9.6-13.9,16.2-23.6,20.3c-2,0.9-4.3,1.4-6.5,1.2c-3-0.2-6.1-0.8-8.8-2.1c-8.2-4-15-10-20.6-17.6c-1.2-1.7-2.6-3.5-2-6.2
		c1.7,1,3.1,2.3,4.5,3.6c3.9,3.6,7.5,7.5,11.6,10.9c8.2,6.7,16.9,7.6,25.9,1.8c12.5-8.1,21-19.7,26.1-34h-6.6
		c-3.3,9.3-7.6,17.9-13.6,25.7c-4.7,6-10.8,8.3-17.7,8.2c-3.9,0-7.6-1.4-10.5-4.4c-5.9-6.2-11.8-12.4-17.9-18.4
		c-3.5-3.5-6.7-7.2-9.7-11.1h-7.1C520.9,202.2,521,202.4,521.1,202.6z M578.8,253c3.6-1.2,7.3-2.2,10.8-3.6
		c9.5-3.8,17.7-9.5,23.9-18.4c0.3-0.4,0.6-0.7,1-1.2c3.9,2.2,3.9,2.3,1.1,5.8c-9.5,11.5-21.4,17.7-35.2,20.1c-1.6,0.3-3.3,0-4.9,0
		c-0.1-0.3-0.1-0.7-0.2-1C576.4,254.1,577.6,253.4,578.8,253z"/>
	<path d="M473.5,202.1c2.6,10.7,6.2,21.1,9.9,31.4c2.8,7.7,5.7,15.4,10.2,22.2c12.5,19.1,27.8,34.9,46.5,46.5
		c9.9,6.1,20.2,11.6,31.8,12.9c2.9,0.3,5.9,0.7,8.8,0.9c8.4,0.7,16.8,1.8,25.2,1.7c13.3-0.1,25.5-4,37.1-10.4l0-5.5
		c-8.9,4.8-18.2,8.3-28,10c-6.3,1.1-12.8,0.5-19.3,0.7c-15.9,0.7-30.8-3.3-45.2-10.3c-14.4-7-27.6-16-38.2-28.8
		c-17-20.6-26.8-45.1-33.1-71.4H473.5z"/>
	<path d="M483.6,257.2c6.3,9.4,13,18.5,19.5,27.8c5.8,8.3,13.1,14.6,21.3,19.8c12.9,8.1,26.4,14.8,40.5,20.1
		c6.7,2.5,13.6,3.9,20.7,3.8c12.6-0.1,25.1-0.4,37.7-0.9c7.1-0.3,13.8-1.7,20-4.7l0-6.9c-8,4-16.6,6.2-25.6,6.4
		c-9.2,0.2-18.4,0-27.5-0.3c-4.6-0.2-9.3-0.6-13.9-1.6c-17.7-3.8-34-11.6-49.5-21.4c-11.3-7.2-20.8-16.8-28.3-28.4
		c-4.6-7.2-8.7-14.7-13.2-22c-6.6-10.6-11-22.2-14.4-34.3c-1.1-4.1-2.2-8.3-2.8-12.5h-5.6c2.4,8.4,4.9,16.8,7.3,25.3
		C472.8,238.1,477.5,248.1,483.6,257.2z"/>
	<path d="M484.9,203.3c0.4,1.5,1.1,2.9,1.7,4.4c0.3-0.1,0.6-0.1,0.9-0.2c0.2-1.1,0.5-2.3,0.4-3.4c0-0.7-0.1-1.4-0.1-2.1h-3.2
		C484.7,202.5,484.8,202.9,484.9,203.3z"/>
	<path d="M587.6,354.4c5.9-0.4,11.9-0.5,17.6-1.7c8.1-1.8,16-4.5,24-6.8c0.8-0.2,1.5-0.6,2.2-1c3.9-2.5,7.8-4.9,11.7-7.4l0-7.2
		c-1.3,0.9-2.5,1.9-3.6,3c-3.8,3.6-7.8,6.5-12.5,7.9c-14.6,4.5-29.3,8-44.8,6.6c-16.7-1.5-32.7-5.7-47.7-13.7
		c-11.1-5.9-20.8-14.1-30.8-21.8c-6-4.6-11.6-9.7-17.3-14.7c-1.7-1.5-2.9-3.6-4.1-5.6c-0.4-0.7-0.6-2.3-0.2-2.9
		c0.4-0.5,1.8-0.6,2.6-0.3c5.1,1.6,9.4,4.6,12.9,8.9c2.2,2.7,4.1,5.8,6.4,8.4c2.9,3.4,5.8,7,9.3,9.5c28.3,20.9,59.7,28.4,93.5,25.6
		c6.4-0.5,12.8-1.3,18.9-3.9c2.2-1,4.4-2.3,6.4-3.7c0.8-0.6,1.3-1.7,2.3-3.1c-1.6-0.1-2.4-0.3-3.2-0.2c-3,0.4-6.1,0.6-9,1.4
		c-18.2,5.3-36.5,5.3-55,2.6c-17.2-2.5-32.6-9.6-47.2-19.2c-2.1-1.3-3.9-3.2-5.7-5c-0.7-0.6-1-1.6-1.5-2.4c0.1-0.2,0.2-0.4,0.3-0.5
		c0.7,0.2,1.5,0.2,2.2,0.6c1.6,0.9,3.1,1.9,4.6,3c11.8,9.2,25.3,14.6,38.9,19.8c1.6,0.6,3.5,0.3,5.2,0.4c0.1-0.4,0.2-0.8,0.3-1.3
		c-1.8-1-3.4-2.2-5.3-3c-5.7-2.5-11.5-4.7-17.1-7.4c-17.9-8.5-33.5-20.5-45.3-37.7c-1.5-2.1-3.1-4.1-4.5-6.2
		c-13.1-18.7-24.6-38.3-30.1-61.3c-0.7-3-1.7-5.8-2.6-8.7c-0.2-0.7-0.4-1.4-0.7-2.1c-0.6,3.6-1.3,7.4-2.2,11.2
		c0.2,1.1,0.4,2.3,0.7,3.4c0.1,0.7,0,1.5-0.4,2.6c-0.4-0.5-0.9-0.9-1.3-1.5c-0.5,2.2-1.1,4.3-1.7,6.5c0.8,1.8,1.6,3.6,2.4,5.4
		c0.3,0.6,0.6,1.4,0.5,2.1c0,0.7-0.3,1.9-0.7,2c-0.6,0.2-1.5-0.1-2.1-0.6c-0.6-0.4-1-1.2-1.3-1.9c-0.2-0.3-0.3-0.5-0.5-0.8
		c-0.6,2-1.3,4.1-2,6.1c6,8.8,12.4,17.3,18.4,26c2,2.9,3.7,6,5.4,9.1c0.4,0.7-0.1,2-0.2,3c-0.8-0.4-1.9-0.5-2.5-1.2
		c-3.1-3.9-6.1-7.9-9.1-11.8c-4.5-5.8-8.9-11.7-13.4-17.5l0,8.9c2.5,3.3,4.9,6.6,7.4,9.9c4.3,5.6,9.3,10.6,13.9,16
		c0.7,0.8,1.2,1.8,1.8,2.7c-0.2,0.3-0.4,0.6-0.6,0.8c-1.8-1-3.7-1.7-5.3-2.9c-3.8-2.8-7.4-6-11.1-8.8c-1.2-0.9-2.7-1.3-4-1.9
		c-0.2,0.3-0.4,0.7-0.7,1c1.3,1.5,2.5,3.2,4,4.5c8,7.3,16,14.5,24,21.8c5.7,5.2,11.4,10.6,17,15.9c5.5,5.2,11.1,10.4,16.6,15.7
		c1.5,1.4,1.4,2.9,0.2,4.6c-1.2,1.8-2.4,1.6-3.8,0.7c-1.6-1.1-3.2-2.1-4.6-3.4c-3.1-2.9-6.1-5.9-9.1-8.9
		c-11.8-11.8-23.7-23.6-35.4-35.5c-3.5-3.6-7-7.1-10.4-10.7l0,36.9c0.2,0.2,0.3,0.3,0.5,0.5c1.6,1.8,2.8,4.1,3.9,6.4
		c0.3,0.6-0.2,1.7-0.4,2.6c-0.6-0.3-1.4-0.5-1.9-1c-0.7-0.7-1.4-1.5-2.1-2.3l0,4.7l-0.1,3.4c5.2,5.6,10.6,10.9,16.4,15.8
		c6,5,12.1,9.9,18,14.9c0.8,0.7,1.3,1.6,2,2.4c-0.2,0.2-0.3,0.4-0.5,0.7c-0.8-0.3-1.7-0.4-2.4-0.8c-1.6-0.9-3.2-2-4.8-3.1
		c-4.5-3.3-8.8-6.8-13.3-10.1c-3.4-2.5-7.1-4-11.2-5c1,1.6,2,3,3.3,4c4.9,3.7,9.8,7.6,15,10.8c14.3,8.9,28.8,17.4,43.3,26.1
		c0.4,0.3,0.9,0.5,1.3,0.8c5.6,1,11.3,1.7,17.1,2.1c-10.1-4.4-19.6-10.2-28.6-17.2c-12.4-9.8-24.6-19.8-36.8-29.8
		c-2-1.6-3.8-3.6-5.1-5.9c-0.9-1.5-0.9-3.8-0.8-5.7c0-1.4,1.1-1.8,2.3-0.9c0.6,0.5,1.1,1,1.7,1.5c13.7,12.2,27.5,24.4,41.3,36.6
		c5.2,4.6,11.3,7.2,17.4,9.9c6.6,2.9,13.1,5.9,19.7,8.8c2.2,1,4.4,1.8,6.6,2.6c0,0.1,0,0.2,0,0.3c6.4-0.3,12.8-1,19.1-2
		c-7.4-1.9-14.8-3.9-22.2-6.1c-18.9-5.6-36.4-14.5-51.8-28.1c-15.4-13.6-29.9-28.4-44.4-43c-0.7-0.7-1.5-1.5-1.8-2.4
		c-0.3-0.8-0.5-2.2-0.1-2.8c0.4-0.6,1.8-1,2.5-0.7c1.4,0.6,2.8,1.5,3.9,2.6c8.1,8.2,16.4,16.3,24.2,24.8
		c16.6,18.1,35.9,31.6,57.5,41.4c2.2,1,4.5,1.8,6.8,2.3c8.4,1.8,16.8,4,24.7,7.5c3,1.3,6,2.4,9.1,3.1c3.2-0.6,6.4-1.3,9.5-2
		c-0.2,0-0.3,0-0.5-0.1c-1.2-0.2-2.5-0.2-3.7-0.6c-0.8-0.3-1.4-1.2-2.2-1.8c0.7-0.5,1.4-1.3,2.2-1.6c0.8-0.3,1.7-0.3,2.6-0.3
		c4.3-0.4,8.6-0.5,12.8-1.3c9.5-1.8,18.9-3.8,28.2-6.7c10-3.8,16.2-6.8,16.2-6.8v-3.3h0l0-1.8c-12.2,5.5-24.6,10.2-37.7,12.9
		c-14.2,2.9-28.4,4.9-42.7,0.8c-1.7-0.5-3.5-0.6-5.3-0.7c-9.9-0.6-19-3.8-27.7-8.7c-6.9-3.9-13.8-7.9-20.4-12.3
		c-4.8-3.2-9.4-6.8-13.5-10.9c-14.1-14-27.9-28.3-41.8-42.6c-1.2-1.2-2.2-2.6-3.1-4.1c-0.5-0.8-0.4-1.9-0.6-2.9c1,0,2.2-0.3,2.9,0.2
		c2.8,2,5.6,3.9,8,6.4c14.1,14.4,28,29.1,42.3,43.4c4.8,4.8,10.1,8.9,15.5,12.8c4,2.9,8.5,4.9,12.8,7.2c0.6,0.3,1.4-0.1,2.2-0.1
		c-0.2-0.8-0.1-1.8-0.6-2.4c-0.6-0.8-1.4-1.4-2.3-1.9c-2.1-1.3-4.4-2.3-6.5-3.7c-2.5-1.8-5-3.7-7.3-5.8c-1.2-1.1-2.5-2.9-1-4.6
		c1.4-1.6,2.5,0.4,3.5,1.2c11.5,9.9,24.3,17,38.3,21.8c10,3.4,20.2,5,30.6,2.6c6.4-1.5,12.9-2.9,19.3-4.3
		c12.1-2.5,23.6-6.7,34.8-11.8l0-5.4c-1.6,0.9-3.2,1.7-4.8,2.5c-14.6,7.2-30.3,11-45.9,14.5c-1.9,0.4-4-0.1-6-0.6
		c-1.2-0.3-2.7-1-2.3-2.9C584.6,355.2,585.8,354.5,587.6,354.4z M459,242.1c-1.4-2.2-1.5-4.7-0.1-6.8c0.6-0.9,2-1.4,3.2-1.5
		c0.6-0.1,1.5,1,1.9,1.8c2.2,4.7,4.2,9.6,6.3,14.4c4.3,9.9,9.4,19.3,16.5,27.2c1.4,1.6,2.6,3.5,3.9,5.3c0.5,0.7,0.8,1.6,1.3,2.9
		c-1.1-0.2-1.7-0.2-2.1-0.4c-3.6-1.9-7.1-3.9-9.4-7.8C473.4,265.5,466.1,253.8,459,242.1z M579.2,356.9c-0.3,1.1-1.7,2.5-2.7,2.5
		c-4,0-8.1,0.1-11.9-0.8c-11.7-2.8-22.3-8.9-32.9-14.9c-1.5-0.8-2.6-2.4-3.8-3.6c0.1-0.3,0.3-0.6,0.4-0.9c1.3,0.3,2.7,0.4,3.9,0.9
		c5.2,2.1,10.3,4.7,15.6,6.3c8.8,2.7,17.8,4.7,26.7,7c0.7,0.2,1.5,0.2,2.2,0.4C578.4,354.1,579.6,355.3,579.2,356.9z"/>
	<path d="M642.3,276.1c-2.6,2.7-5.5,5.2-8.5,7.3c-10.6,7.1-21.9,12.7-34,16.3c-6.5,2-13.1,4.2-19.9,2.9c-6.7-1.3-13.5-2.7-20-5.1
		c-15.9-5.7-28.8-16.6-40.7-29c-7.4-7.7-13.1-16.6-16.9-27.1c-2.7-7.5-6.3-14.5-9.6-21.7c-0.6-1.3-1.6-2.3-2.4-3.5
		c-0.2,0.1-0.5,0.3-0.7,0.4c0.3,1.5,0.4,3.1,0.9,4.5c2.6,7.5,5,15.2,8.2,22.4c9,20.6,22,37.4,40.1,49.4
		c19.8,13.1,41.8,15.6,64.3,15.6c4.8,0,9.6-1,14.3-1.7c2.2-0.4,4.4-1.1,6.3-2.1c6.5-3.2,12.9-6.6,19.4-9.8l0-6.4
		c-4.5,2.5-9,5.1-13.7,7.5c-5.1,2.6-10.3,4.8-15.5,7.1c-0.9,0.4-2,0.4-3,0.6c-0.1-0.2-0.2-0.5-0.2-0.7c1.3-0.9,2.5-1.8,3.8-2.6
		c8.8-5.3,17.8-10.2,26.4-15.8c0.7-0.5,1.5-1,2.2-1.5l0-7.6C642.8,275.5,642.6,275.8,642.3,276.1z"/>
	<path d="M533,270.6c-0.6,0.1-1.4,0.7-1.6,1.2c-0.2,0.4,0.1,1.5,0.5,1.9c4,4,8.2,7.6,13.5,9.3c1,0.3,2.1,0.3,3.1,0.5
		c0.1-0.3,0.2-0.5,0.3-0.8c-0.5-0.8-0.8-1.8-1.4-2.3c-3.9-3.1-7.8-6.2-11.8-9.1C534.9,270.7,533.8,270.5,533,270.6z"/>
	<path d="M450.1,339.7c-0.2-1-0.2-2.4-0.8-2.9c-0.3-0.3-0.7-0.6-1.1-1l-0.1,3.7C448.8,339.6,449.5,339.6,450.1,339.7z"/>
	<path d="M447.9,351.9l-0.1,2.3c5.1,3.4,10.2,6.8,15.3,10.2C462.1,360,453.1,353.3,447.9,351.9z"/>
	<path d="M312.3,75.1C313,91,309,105.9,302,120.3c-2,4-4.1,8-6.4,11.8l4.8,1.1c0.5-0.8,1-1.6,1.5-2.4c6.1-9.9,11.6-20.2,12.9-31.8
		c0.3-2.9,0.7-5.9,0.9-8.8c0.5-6.9,1.4-13.9,1.7-20.8l-5.1-1.5C312.2,70.2,312.2,72.7,312.3,75.1z"/>
	<path d="M322,80.7c-0.2,4.6-0.6,9.3-1.6,13.9c-3,14-8.5,27.1-15.5,39.6l6,1.4c5.3-9.5,9.8-19.4,13.6-29.6
		c2.5-6.7,3.9-13.6,3.8-20.7c0-4.2-0.1-8.5-0.2-12.7l-6-1.8C322.2,74.1,322.1,77.4,322,80.7z"/>
	<path d="M339.1,141.9c0.2-1.1,0.3-2.3,0.8-3.3c2.1-5.2,4.7-10.3,6.3-15.6c2.7-8.8,4.7-17.8,7-26.7c0.2-0.7,0.2-1.5,0.4-2.2
		c0.3-1.6,1.5-2.8,3.1-2.4c1.1,0.3,2.5,1.7,2.5,2.7c0,4,0.1,8.1-0.8,11.9c-2.8,11.7-8.9,22.3-14.9,32.9c-0.7,1.2-1.8,2.1-2.9,3.1
		l5.5,1.2c3.4-4.7,6.5-9.6,9.1-14.7l9.8-45.1l-4.8-1.5c-0.1,0.7-0.3,1.5-0.5,2.2c-0.3,1.2-1,2.7-2.9,2.3c-1.8-0.4-2.5-1.6-2.6-3.4
		c-0.1-1-0.1-1.9-0.2-2.9l-6.3-1.9c0.1,3.3,0.1,6.7-0.2,10.1c-1.5,16.7-5.7,32.7-13.7,47.7c-0.7,1.3-1.4,2.6-2.2,3.9L339.1,141.9z"
		/>
	<path d="M295.2,102.9c0.1-2.4,0.1-4.7,0-7.1c0-1-0.4-2-0.6-3c-2.8,0.1-3.8,1.6-4.3,3.5c-0.5,2.1-0.7,4.2-1.1,6.3
		c-0.7,3.2-2.2,4.7-4.7,4.4c0.8,2.8,1.5,5.6,2.1,8.2c0.6-0.2,1.1-0.5,1.7-0.9C292.3,111.5,295.1,107.8,295.2,102.9z"/>
	<path d="M289.3,72.8c0.6,1.3,0.8,2.9,0.7,4.3c-0.1,0.8-1.1,1.6-1.5,2c-3.2-0.3-4.8-1.5-5.7-3.5c-1.6-3.8-3.4-7.5-4.8-11.4
		c-1-2.8-2.3-5.5-3.8-8l-22.7-6.9l-0.4,0.1c0,1.2-0.1,3.4-0.4,6c1.2,1.4,2.4,2.9,3.4,4.5c2.4,3.6,4.9,7.1,7.2,10.7
		c5,3.6,9.1,8.3,13,14.7c-1.1-6.4-3.7-12.5-7.7-18.3c-1-1.4-2-2.9-2.6-4.5c-1.1-2.5-0.1-3.6,2.8-3.1c1.1,0.2,2.2,1,3.2,1.7
		c0.7,0.5,1,1.3,1.6,1.9c4.9,5,7,10.8,7.5,17.5c0.3,4.8,0.7,9.5,0.5,14.3c1,2,1.9,4.1,2.7,6.1c0.7-2.3,1.2-4.8,1.3-7.2
		c0.1-2.6-0.1-5.2-0.5-7.7c-0.3-2,0.6-2.4,2.4-2c2.3,0.5,4.5,1.2,6.8,1.6c3.4,0.6,5-0.5,4.6-3.6c-0.6-4.4-1.3-8.9-2.8-13.2
		c-0.9-2.6-1.9-5.1-3.1-7.5l-7.9-2.4C285.4,63.6,287.3,68.2,289.3,72.8z"/>
	<path d="M350.4,144.5l1.2,0.3l0.9-4.3C351.9,141.8,351.2,143.2,350.4,144.5z"/>
	<path d="M335.6,74.8c0.4,9.6-0.2,19.2-1.6,28.9c-1.8,12.3-5.9,23.6-11.6,34.5l4.4,1c10.2-19.6,14.8-40.5,14.7-62.5L335.6,74.8z"/>
	<path d="M319.2,137.4c4.4-8.1,7.7-16.6,11-25.2c0.6-1.6,0.3-3.5,0.4-5.2c-0.4-0.1-0.8-0.2-1.3-0.3c-1,1.8-2.2,3.4-3,5.3
		c-2.5,5.7-4.7,11.5-7.4,17.1c-1.2,2.5-2.5,5-3.8,7.4L319.2,137.4z"/>
	<path d="M249.9,62.4c-0.1,0.7-0.3,1.5-0.4,2.2l2.3,0.9C251.1,64.4,250.5,63.4,249.9,62.4z"/>
	<path d="M308.1,67.9c0-0.5,0-0.9,0-1.4L296.6,63c1,2.6,2,5.3,2.8,8c2,6.5,4.2,13.1,2.9,19.9c-1.3,6.7-2.7,13.5-5.1,20
		c-2.1,5.8-4.9,11.2-8.2,16.3c0,0,0,0.1,0,0.1c0.3,1.2,0.6,2.4,0.9,3.6l0-0.1l2.9,0.7C305.7,111.8,308.1,90.1,308.1,67.9z"/>
	<path d="M135.2,77.4c-2.8-2.8-5.3-5.8-7.7-8.9c-1.4-1.9-2.9-3.6-3.2-6.8c1.6,0.7,2.9,1,3.7,1.7c3.5,3,6.9,6,10.2,9.1
		c0.3,0.3,0.7,0.7,1,1c1.1-0.9,2.2-1.7,3.3-2.5c-0.6-0.4-1.2-0.8-1.7-1.2c-3.1-2.5-6-5.1-8.8-7.8c-1.5-1.5-2.8-3.2-4.2-4.8
		l-13.5,4.1c5.6,7,11.4,13.9,17.3,20.8C132.7,80.3,133.9,78.8,135.2,77.4z"/>
	<path d="M148.1,67.7c0.8-0.4,1.7-0.8,2.5-1.3l2.8-1.3c-4.1-2.1-7.7-4.8-11-8.1c-1.1-1.1-2.2-2.2-3.4-3.3l-5,1.5
		c1.5,1.6,3,3.1,4.7,4.6C141.7,62.6,144.8,65.3,148.1,67.7z"/>
	<path d="M81.7,71.1l-5.3,1.6c2.4,3.8,4.7,7.5,6.9,11c-0.1,1.9-0.6,3.6-0.1,4.9c2.2,5.8,4.6,11.5,7.1,17.1
		c4.1,8.9,8.4,17.7,12.5,26.6c0.2,0.4,0.3,0.7,0.4,1.1l6.6-1.5c-2.3-4.2-4.5-8.5-6.7-12.7c-3.3-6.3-6.8-12.4-10.2-18.6
		c-0.7-1.3-1.2-2.7-1.9-4.1c0.3-0.2,0.6-0.4,1-0.6c1.4,1.4,3,2.7,4.1,4.3c3.9,5.7,8,11.3,11.4,17.2c2.5,4.2,4.8,8.6,7.1,12.9
		c0.3-1,0.6-2.1,0.8-3.2l0.5-2.1c0.5-2.5,1.2-5.7,2.1-9.3c-4.7-12-10.6-23.5-18.2-34.2c-3.1-4.4-6.2-8.8-9.3-13.2l-5,1.5
		c3.3,5,6.7,9.8,10.4,14.6c4.7,6,8.7,12.5,11.3,19.6c0.4,1,0.5,2.1,0.7,3.2c-0.3,0.1-0.6,0.2-0.9,0.3c-1.7-2.2-3.5-4.3-5.1-6.6
		C95.1,91,88.2,81.2,81.7,71.1z"/>
	<path d="M49,81l-5,1.5c4.4,7.7,8.8,15.3,13.6,22.8c7,11,12.4,22.7,17.7,34.4l5-1.1c-0.9-1.6-1.8-3.2-2.7-4.8
		c-1.1-1.9,0.2-2.8,1.6-3.5c1.8-1,2,0.7,2.4,1.5c0.9,2,1.8,4,2.7,6l5.9-1.3c-2.4-3.9-4.7-7.9-6.8-12.1c-3.2-6.2-6.5-12.4-9.8-18.6
		c-5-9.2-9.9-18.5-15.1-27.6l-6,1.8c8.1,14.2,16.3,28.4,24.5,42.5c0.4,0.7,0.7,1.3,0.9,2c0.4,1.5-0.6,2.4-2.2,2.4
		c-1.9,0-2.4-1.3-2.9-2.6C66.8,109,58.1,94.9,49,81z"/>
	<path d="M153.6,51.4c-0.8-0.4-1.6-0.9-2.3-1.3l-5.7,1.7c1.4,1.3,2.7,2.6,4.1,3.8c1.2,1.1,2.8,2,4.3,2.7c0.2,0.1,0.3,0.1,0.5,0.2
		c-0.1-0.8-0.2-1.5-0.3-2.2C153.8,54.4,153.6,52.7,153.6,51.4z"/>
	<path d="M65.6,132.8c-3.1-6-6.2-12-9.5-18c-2.2-4.1-4.7-8.1-7.1-12.1c-0.5-0.8-1.2-1.4-1.8-2.2c-0.2,0.1-0.4,0.2-0.6,0.3
		c0.3,1.2,0.5,2.4,0.9,3.5c3.5,8.1,7,16.2,10.5,24.3c1.7,4.1,3.8,8.1,4.9,12.3c0.1,0.5,0.2,0.9,0.4,1.4l6.6-1.5
		C68.4,138.2,67,135.5,65.6,132.8z"/>
	<path d="M57.1,143.8c-1.6-4.3-3.3-8.6-4.9-12.9c-0.2-0.6-0.2-1.3-0.2-1.9c-0.1-1.6,0.5-3.5-0.2-4.9c-1.5-3.2-3.2-6.3-4.9-9.4
		l6.5,29.9L57.1,143.8z"/>
	<path d="M71.8,88.8c3.4,7.9,7.1,15.7,10.6,23.6c3.6,8,7.8,15.6,12.6,22.9l5.5-1.2c-0.3-0.5-0.6-0.9-0.9-1.4
		c-3.6-6.9-7.1-13.9-10.5-20.9c-5.1-10.4-9.8-20.9-15.2-31.2c-1.1-2-2.2-4.1-3.4-6.1L65.8,76C68,80.2,69.9,84.4,71.8,88.8z"/>
	<path d="M120.4,107c0.8-2.7,1.8-5.5,2.9-8.4c-0.4-0.7-0.9-1.5-1.3-2.2c-1-1.6-1.6-3.1,0.1-4.6c1.2-1,2.7-1,4.2-0.4
		c0.9-2,1.9-3.9,2.9-5.6c-5.1-5.3-9.6-11-14.2-16.7c-1.8-2.2-3.6-4.3-5.4-6.4l-4.9,1.5c5.1,6.8,10.2,13.7,15.4,20.4
		c0.1,0.1,0.2,0.2,0.3,0.4c0,0.8,0.4,1.7,0,2.3c-0.4,0.5-1.7,1-2.2,0.8c-1.4-0.6-3-1.5-3.9-2.6c-3-4.1-5.7-8.4-8.6-12.6
		c-1.7-2.5-3.7-4.8-5.3-7.3l-5.5,1.7c3.7,5,7.4,10.1,10.9,15.2C111.1,90.3,116.3,98.4,120.4,107z"/>
	<path d="M391,81.8c-1.8,2.2-3.5,4.5-5.2,6.8l1.2,5.3c1.4-1.9,3-3.8,4.6-5.6c1.1-1.2,2.9-2.5,4.6-1c1.6,1.4-0.4,2.5-1.2,3.5
		c-2.4,2.8-4.6,5.6-6.7,8.6l1.5,6.7c0.7-1.2,1.4-2.4,2.1-3.6c0.8-1.5,2.4-2.6,3.6-3.8c0.3,0.1,0.6,0.3,0.9,0.4
		c-0.3,1.3-0.4,2.7-0.9,3.9c-1.3,3.3-2.8,6.5-4.2,9.8l2.4,10.8c2.1-6.2,4.6-12.4,7.8-18.3c5.9-11.1,14.1-20.8,21.8-30.8
		c0.8-1.1,1.7-2.1,2.5-3.1L413.4,75c-2.3,2.4-4.6,4.9-6.9,7.3c-1.4,1.5-2.9,1.4-4.6,0.2c-1.8-1.2-1.6-2.4-0.7-3.8c0,0,0,0,0,0
		l-0.1,0L391,81.8z"/>
	<path d="M704.4,105.8c0.2,0.4,0.3,0.7,0.5,1.1l1.6-7.2c-1.7-3.8-3.5-7.5-5.1-11.3c-1.2-2.8-2.4-5.5-3.6-8.3l-5-1.5
		C696.7,87.7,700.5,96.8,704.4,105.8z"/>
	<path d="M708.3,91.8l1.8-8l-5.2-1.6C706.1,85.4,707.2,88.5,708.3,91.8z"/>
	<path d="M410.6,135.6c-0.7,1.9-1.3,3.7-1.8,5.6l7.8-1.7c4.2-14.8,11.1-28.7,19.5-42c7.2-11.3,16.8-20.8,28.4-28.3
		c7.2-4.6,14.7-8.7,22-13.2c4.3-2.7,8.9-5,13.5-7.1c-0.4,0-0.6,0.1-0.7,0.1h-0.1l-14,4.3l-10,3C467,62,458.8,68,450.5,73.8
		c-8.3,5.8-14.6,13.1-19.8,21.3C422.6,108,415.9,121.5,410.6,135.6z"/>
	<path d="M697.3,136.3c-5.1-14.6-10.1-29.3-15.5-43.9c-2.4-6.5-4.9-13-7.6-19.4l-11.7-3.5c0.5,1.9,0.9,3.9,1.3,5.9
		c0.3,1.6-0.2,3.3-0.6,4.9c-0.2,0.6-1.2,1.2-1.9,1.4c-0.4,0.1-1.2-0.9-1.5-1.5c-2.2-4.5-4.4-9-6.7-13.4l-5.5-1.7
		c2,3.6,3.9,7.2,5.8,10.8c1.9,3.7,3.8,7.5,5.7,11.3c-1.7,1-3.1,1.7-4.6,2.6c-0.6-1.2-1.1-2.3-1.6-3.5c-3.8-7.7-7.4-15.4-11.2-23.1
		l-7.2-2.2c5.4,9.3,10.5,18.7,13.4,29c0.2,0.6,0.6,1.1,0.9,1.6c3,5.4,5.9,10.9,9,16.2c1.1,1.9-0.2,2.8-1.6,3.5c-1.8,1-2-0.7-2.4-1.5
		c-4.1-9.1-8.4-18.1-12.3-27.2c-3.5-8.2-7.8-15.9-12.7-23.3l-7.5-2.3c4.9,6.9,9.8,13.8,14.6,20.7c0.9,1.3,1.4,2.8,1.9,4.3
		c0.3,0.8,0,1.8,0,2.7c-7.1-7.2-13-15-20.9-21.3c0.2,1.7,0.6,3.2,1.5,4.4c4.2,5.9,8.3,11.8,12.8,17.5c8,10.1,15,20.6,20.8,31.9
		c3.2,6.2,6.5,12.4,9.8,18.6c0.2,0.4,0.5,0.9,0.7,1.3l7.2,1.6c-3.8-6.6-7.6-13.1-11.4-19.7c-0.4-0.7-0.7-1.3-0.9-2
		c-0.4-1.5,0.6-2.4,2.2-2.4c1.9,0,2.4,1.3,2.9,2.6c3,7.7,6.7,15.1,10.8,22.3l7.5,1.6c-1-1.6-2-3.3-3.1-4.9
		c-8.2-12.8-14.1-26.6-20.3-40.2c-0.7-1.5,0-2.5,1.5-3c1.4-0.4,2.7-0.5,3.5,1.3c2.3,4.9,4.9,9.6,7.4,14.4c3.1,6,6.2,12,9.5,18
		c2.2,4.1,4.7,8.1,7.1,12.1c0.5,0.8,1.2,1.4,1.8,2.2c0.2-0.1,0.4-0.2,0.6-0.3c-0.3-1.2-0.5-2.4-0.9-3.5c-3.5-8.1-7-16.2-10.5-24.3
		c-1.7-4.1-3.8-8.1-4.9-12.3c-1.7-6.4-2.8-13-4-19.6c-0.2-1,0.2-2.1,0.4-3.1c0.3-0.1,0.6-0.2,1-0.2c0.8,1.4,1.8,2.8,2.4,4.3
		c3.7,9.5,7.3,19.1,11,28.7c0.2,0.6,0.2,1.3,0.2,1.9c0.1,1.6-0.5,3.5,0.2,4.9c2.5,5.1,5.2,10.2,8,15.1c0.9,1.5,2.3,2.8,3.6,4.1
		c0.5,0.5,1.5,0.7,2.7,1.2C697.5,137,697.4,136.7,697.3,136.3z"/>
	<path d="M454.5,127.3c-0.7-0.2-1.4-0.4-2-0.7c-2-1-3.9-0.6-5.6,0.6c-2.8,2-4.9,4.3-6,7.2l16.6-3.5l0,0.1c0.3-0.9,0.5-1.7,0.7-2.7
		c0-0.2,0.1-0.3,0.1-0.5C457.4,128,456.2,127.8,454.5,127.3z"/>
	<path d="M611.9,56.5c-0.6-0.9-1.1-1.8-1.8-2.6c0,0-0.1-0.1-0.1-0.1l-7.3-2.2c1.6,1.7,2.4,3.8,2.4,6.1c-0.1,1.8-1.2,3-3.1,2.5
		c-2.1-0.5-4.5-1.2-6-2.5c-4.2-3.7-9-6.2-14.4-8c-1.6-0.5-3.2-1.1-4.9-1.6c-1.7-0.1-3.3-0.1-4.9-0.2l22.7,15.6
		c12.4,7.3,23.3,18.5,29.7,33.4c0.7,1.7,1.4,3.3,2,4.9c2.8,7.4,4.4,14.2,5.6,19.9c0.1,0.2,0.2,0.5,0.4,0.7c1.6,3.1,3.3,6.3,5.1,9.4
		l6.4,1.4c-3.7-8-7.5-15.9-11.2-23.8c-0.6-1.3-0.7-2.9-1-4.4c0.3-0.1,0.6-0.2,0.9-0.4c1.1,1.5,2.4,2.8,3.2,4.4
		c3.6,6.9,7.1,13.9,10.5,20.9c0.7,1.4,1.3,2.8,2,4.2l7.7,1.7c-1-2.2-2-4.3-2.9-6.5c-5.8-12.9-13.2-25-22.5-36.1
		c-6.3-7.6-12.2-15.4-18.4-23.1c-1.7-2.1-2.2-3.8-0.3-5.8C613.9,61.7,613.5,59.1,611.9,56.5z"/>
	<path d="M521.1,47.8c-0.2,0-0.4,0-0.7,0c-6.2,1.9-12.3,4.1-18.4,6.3c-7.7,2.8-15.4,5.7-22.2,10.2c-19.1,12.5-34.9,27.8-46.5,46.5
		c-5.4,8.7-10.3,17.8-12.3,27.8l5.7-1.2c1.7-5.4,3.8-10.8,6.4-16.1c7-14.4,16-27.6,28.8-38.2c12.4-10.3,26.2-17.9,40.9-23.7
		L521.1,47.8z"/>
	<path d="M699.3,106.1c-3.2-6.3-5.5-13.1-8-19.8c-1.2-3.2-2.5-6.3-3.8-9.4l-7.2-2.2c2,4.5,4,9.1,5.9,13.7c0.3,0.7,0.5,1.4,0.7,2.1
		c0.8,3.4,1.2,7,2.6,10.3c3.6,8.7,7.2,17.3,10.9,26l2.7-12.2C702,111.8,700.8,108.9,699.3,106.1z"/>
	<path d="M385,83.6l-0.3,0.1l0.1,0.2C384.8,83.8,384.9,83.7,385,83.6z"/>
	<path d="M398.1,143.5l2.5-0.5c0.2-1.7,0.4-3.3,0.6-5c2.5-17.2,9.6-32.6,19.2-47.2c1.3-2.1,3.2-3.9,5-5.7c0.6-0.7,1.6-1,2.4-1.5
		c0.2,0.1,0.4,0.2,0.5,0.3c-0.2,0.7-0.2,1.5-0.6,2.2c-0.9,1.6-1.9,3.1-3,4.6c-9.2,11.8-14.6,25.3-19.8,38.9
		c-0.6,1.6-0.3,3.5-0.4,5.2c0.4,0.1,0.8,0.2,1.3,0.3c1-1.8,2.2-3.4,3-5.3c2.5-5.7,4.7-11.5,7.4-17.1c8.5-17.9,20.5-33.5,37.7-45.3
		c2.1-1.5,4.1-3.1,6.2-4.5c1.5-1.1,3.1-2.1,4.6-3.2l-25.6,7.7c-0.5,0.4-0.9,0.8-1.4,1.3c-2.7,2.2-5.8,4.1-8.4,6.4
		c-3.4,2.9-7,5.8-9.5,9.3c-12.1,16.4-19.8,33.9-23.5,52.3L398.1,143.5z"/>
	<path d="M482.8,73.9c-16.4,8.7-30,20.3-40.1,35.6c-5.7,8.7-9.4,17.7-11.8,27l5.6-1.2c0.5-1.6,1-3.1,1.5-4.7
		c5.7-15.9,16.6-28.8,29-40.7c2.2-2.1,4.5-4.1,7-5.9C476.6,80.3,479.6,76.9,482.8,73.9z"/>
	<path d="M695.4,144.2c0,0.1,0,0.1,0,0.2l1.1,0.2l0.4-1.9C695.9,142.3,695.3,142.8,695.4,144.2z"/>
	<path d="M461.8,102.5c-4,4-7.6,8.2-9.3,13.5c-0.3,1-0.3,2.1-0.5,3.1c0.3,0.1,0.5,0.2,0.8,0.3c0.8-0.5,1.8-0.8,2.3-1.4
		c2.7-3.3,5.3-6.7,7.8-10.1c0.5-1.7,1-3.3,1.6-5.1c-0.2-0.4-0.6-0.7-0.9-0.9C463.2,101.9,462.2,102.1,461.8,102.5z"/>
	<path d="M105.2,258.5l0,4c0.9-1.2,1.4-2.6,1.9-4H105.2L105.2,258.5z"/>
	<path d="M135.3,349.9c3.8-2.6,7.5-5.5,11.4-8c6-3.9,12.1-7.7,17.8-11.3c1.9,0.1,3.6,0.6,4.9,0.1c5.8-2.2,11.5-4.6,17.1-7.1
		c8.9-4.1,17.7-8.4,26.6-12.5c1.3-0.6,2.9-0.7,4.4-1c0.1,0.3,0.2,0.6,0.4,0.9c-1.5,1.1-2.8,2.4-4.4,3.2c-6.9,3.6-13.9,7.1-20.9,10.5
		c-10.4,5.1-20.9,9.8-31.2,15.2c-6.9,3.6-13.4,7.8-20.1,11.9c-3.9,2.4-7.7,4.8-11.3,7.6c-2.4,1.9-4.8,3.8-7.1,5.7
		c2.1,0.4,4.3,0.8,6.6,1.2c0.1-0.1,0.3-0.2,0.5-0.4c12-10.4,25.5-17.8,39.7-23.8c7.9-3.4,15.7-7.1,23.6-10.6
		c12.9-5.8,25-13.2,36.1-22.5c7.6-6.3,15.4-12.2,23.1-18.4c2.1-1.7,3.8-2.2,5.8-0.3c2.5,2.4,5.1,2,7.8,0.3c0.9-0.6,1.8-1.1,2.6-1.8
		c9.8-7.9,16-18,18.2-30.3h-5.4c-0.7,8.6-4,15.9-9.5,21.9c-2,2.1-4.3,3.4-7.1,3.3c-1.8-0.1-3-1.2-2.5-3.1c0.5-2.1,1.2-4.5,2.5-6
		c3.7-4.2,6.2-9,8-14.4c0.2-0.6,0.4-1.2,0.6-1.8h-7.6c-1.4,3.1-2.8,6.2-4.5,9.1c-3.2,5.8-7.4,10.7-12.5,14.5
		c-15.4,11.3-32,20.1-48.7,28.8c-6.3,3.3-12.4,6.8-18.6,10.2c-1.3,0.7-2.7,1.2-4.1,1.9c-0.2-0.3-0.4-0.6-0.6-1
		c1.4-1.4,2.7-3,4.3-4.1c5.7-3.9,11.3-8,17.2-11.4c7.9-4.6,16-8.6,24-13.1c6.4-3.6,12.8-7.1,18.9-11.1c9.5-6.1,16.2-14.2,20.9-23.8
		h-4.2c-4.9,8.2-11.4,14.5-19.5,19.1c-12.4,7.1-25.6,12.3-38.8,17.2c-13.1,4.9-25.5,11.2-37.1,19.3c-7.5,5.2-14.8,10.6-22.4,15.7
		c-3.6,2.4-7.4,4.4-11.2,6.4c-0.8,0.4-1.7,0.6-2.6,0.9c-0.1-0.2-0.3-0.5-0.4-0.7c1.6-1.6,3.1-3.3,4.9-4.6
		c10.8-8,21.4-16.2,32.4-23.7c13-8.8,26.4-17,41.5-20.9c10.2-2.6,20-6.5,29.4-11.5c2.8-1.5,5.3-3.4,7.9-5.3c0.6-0.5,0.9-1.6,1.3-2.4
		c-0.8-0.3-1.8-1-2.5-0.8c-3.5,0.9-7,1.9-10.4,3.2c-4.7,1.8-9.2,4.2-13.9,5.8c-3.1,1-6.4,1.3-9.6,1.6c-1.1,0.1-2.5-0.6-3.4-1.4
		c-1.5-1.3-1.3-2.6,0.5-3.6c1.8-0.9,3.7-1.7,5.6-2.4c8.1-2.7,16.1-5.3,24.2-7.9c3.7-1.1,7.4-1.6,11,0.6c0.7,0.5,2.1,0.3,2.9-0.1
		c1.3-0.7,2.5-1.7,3.5-2.8c0.6-0.6,1.1-1.3,1.6-2h-24.4c-5.1,2.5-10.4,4.3-15.9,5.5c-4.5,1-8.9,2.4-13.5,2.8
		c-6.6,0.6-11.2,3.8-13.6,10.5c-0.4,1-0.2,2.3-0.3,3.4c1-0.1,2-0.2,2.9-0.4c1.6-0.4,3.6-1.7,4.5,0.6c0.8,2.2-1.3,3.1-2.8,3.9
		c-4.2,2.4-8.4,4.8-12.5,7.2c-1.6,1-3.1,1.6-4.6-0.1c-1.3-1.6-1-3.7,0.5-5.6c2.1-2.7,4-5.5,6-8.3c3.1-4.3,5.9-8.9,9.3-12.9
		c3-3.7,7-5.3,11.6-4.3c1.4,0.3,2.8,0.4,4.2,0.3c4.3-0.4,8.6-1.3,12.7-2.5h-32.3c-1.7,5.8-4.7,11.1-8.5,16
		c-7.5,9.7-16.9,17-26.1,24.6c-7.7,6.3-15.2,13-22.9,19.5c-3.3,2.8-6.4,5.7-9.9,8.1c-4.6,3.1-8.5,7-12.3,11.1l-0.2,7.2
		c4.9-4.8,9.8-9.7,14.7-14.4c14.3-13.8,30.6-24.5,46-36.7c0.1-0.1,0.2-0.2,0.4-0.3c0.8,0,1.7-0.4,2.3,0c0.5,0.4,1,1.7,0.8,2.2
		c-0.6,1.4-1.5,3-2.6,3.9c-4.1,3-8.4,5.7-12.6,8.6c-2.7,1.9-5.3,4.1-8.1,5.8c-10.5,6.2-19.2,14.9-27.5,24.1
		c-4.5,5.1-8.8,10.5-13.4,15.4l-0.1,2.9l0,2.1c1.3-0.9,2.7-1.8,4-2.7c3-2.1,5.8-4.7,9-6.6c16.1-10.2,32.8-19.3,48-31.2
		c6-4.7,12.5-8.7,19.6-11.3c1-0.4,2.1-0.5,3.2-0.7c0.1,0.3,0.2,0.6,0.3,0.9c-2.2,1.7-4.3,3.5-6.6,5.1c-12.4,8.4-24.7,17.1-37.5,25
		c-12.2,7.6-23.4,16.6-34.7,25.6c1.5,0.3,3.3,0.7,5.5,1.1c2.6-1.7,5.2-3.5,7.8-5.2C127,355.7,131.1,352.8,135.3,349.9z"/>
	<path d="M292.3,260.6c-0.9,12.7-5.6,23.4-15.3,30.8c-10.6,8-21.6,15.5-32.4,23.2c-1.3,0.9-2.8,1.4-4.3,1.9c-0.8,0.3-1.8,0-2.7,0
		c7.2-7.1,15-13,21.3-20.9c-1.7,0.2-3.2,0.6-4.4,1.5c-5.9,4.2-11.8,8.3-17.5,12.8c-10.1,8-20.6,15-31.9,20.8
		c-6.2,3.2-12.4,6.5-18.6,9.8c-9.6,5.2-19.2,10.3-28.7,15.8c-3.6,2.1-6.7,5-9.9,7.7c-1,0.8-1.5,2.2-2.2,3.3c0.1,0.2,0.3,0.4,0.4,0.6
		c0.8-0.1,1.7-0.1,2.5-0.4c3.2-1.4,6.4-2.6,9.4-4.3c15.1-8.6,30.2-17.4,45.3-26.1c0.7-0.4,1.3-0.7,2-0.9c1.5-0.4,2.4,0.6,2.4,2.2
		c0,1.9-1.3,2.4-2.6,2.9c-17.9,7-34,17.6-50.1,28.3c-0.3,0.2-0.6,0.4-0.9,0.7c2.5,0.3,5,0.6,7.5,0.9c8.2-4.7,16.5-9.5,24.5-14.6
		c12.8-8.2,26.6-14.1,40.2-20.3c1.5-0.7,2.5,0,3,1.5c0.4,1.4,0.5,2.7-1.3,3.5c-4.9,2.3-9.6,4.9-14.4,7.4c-6,3.1-12,6.2-18,9.5
		c-4.1,2.2-8.1,4.7-12.1,7.1c-0.8,0.5-1.4,1.2-2.2,1.8c0.1,0.2,0.2,0.4,0.3,0.6c1.2-0.3,2.4-0.5,3.5-0.9c8.1-3.5,16.2-7,24.3-10.5
		c4.1-1.7,8.1-3.8,12.3-4.9c6.4-1.7,13-2.8,19.6-4c1-0.2,2.1,0.2,3.1,0.4c0.1,0.3,0.2,0.6,0.2,1c-1.4,0.8-2.8,1.8-4.3,2.4
		c-9.5,3.7-19.1,7.3-28.7,11c-0.6,0.2-1.3,0.2-1.9,0.2c-1.6,0.1-3.5-0.5-4.9,0.2c-5.1,2.5-10.2,5.2-15.1,8c-1.2,0.7-2.3,1.7-3.3,2.8
		c2.3,0.1,4.5,0.2,6.7,0.2c0,0,0,0,0,0c0.3,0,0.6,0,1,0c12-4.2,24-8.3,35.9-12.6c19-6.9,37.5-14.8,54.9-25.8c2-1.2,4.2-2.1,6.3-3
		c0.9-0.4,1.9-0.3,2.9-0.5c0.1,0.2,0.2,0.4,0.4,0.7c-0.7,0.9-1.3,1.9-2.1,2.6c-2.7,2-5.3,4.1-8.2,5.8c-16.3,9.5-33.1,17.6-50.3,24.7
		c-0.7,0.3-1.4,0.5-2.1,0.7c-3.4,0.8-7,1.2-10.3,2.6c-3.8,1.6-7.5,3.1-11.3,4.7c7.4-0.3,15-0.9,22.5-1.6c1.1-0.4,2.2-0.8,3.3-1.2
		c9.3-3.5,18.3-7.7,26.9-13.1c6.1-3.9,12.3-7.5,18.2-11.5c4.5-3,9.4-4.7,14.4-6c0.9-0.2,1.8-0.1,2.7-0.2c0.1,0.3,0.3,0.6,0.4,0.9
		c-1.9,1.8-3.6,3.9-5.7,5.4c-8.8,6.7-18.2,12.3-28.2,16.8c-5.5,2.5-11,4.9-16.5,7.2c5-0.6,9.8-1.2,14.4-1.9
		c7.9-3.4,15.8-6.7,23.8-10.1c1.6-0.7,3.3-1.1,4.9-1.5c0.7-0.2,1.5,0,2.2,0c0.1,0.2,0.1,0.5,0.2,0.7c-0.7,0.7-1.3,1.5-2.1,2
		c-2.2,1.3-4.4,2.7-6.7,3.8c-1.8,0.9-3.6,1.7-5.4,2.6c5.8-0.9,10.7-1.8,14.3-2.4c2.1-1.3,4.2-2.5,6.3-3.8v-4.9v-1.9
		c-0.1,0-0.2,0-0.4,0.1c0-1-0.2-2.2,0.2-2.9c0-0.1,0.1-0.1,0.1-0.2v-12.5c0,0,0,0,0,0l-0.1-21.4h-0.4l0-2.5
		c-6.5,6.5-13.5,12.3-21.1,17.2c-9.8,6.2-20.2,10.7-31.4,12.7c-1.6,0.3-3.3-0.2-4.9-0.6c-0.6-0.2-1.2-1.2-1.4-1.9
		c-0.1-0.4,0.9-1.2,1.5-1.5c9.3-4.7,18.7-9.3,28.1-13.9c1.5-0.8,3.2-1.5,4.5-2.6c8.3-6.5,16.6-12.9,24.7-19.7l0-7.8
		c-2.3,2.7-4.6,5.2-7.2,7.6c-13.7,12.8-29.7,21.5-45.9,30c-3.7,1.9-7.5,3.8-11.3,5.7c-1-1.7-1.7-3.1-2.6-4.6
		c1.2-0.6,2.3-1.1,3.5-1.6c10.6-5.2,21.3-10.1,31.7-15.6c11.2-5.9,20.7-14.6,28.2-25.3c1.3-1.9,2.5-3.8,3.6-5.8l0-10.8
		c-3,9.3-8.6,17.5-16.7,24.7c-3.8,3.4-8,6.4-12.4,8.9c-12.4,7.1-24.5,14.9-38.2,18.8c-0.6,0.2-1.1,0.6-1.6,0.9
		c-5.4,3-10.9,5.9-16.2,9c-1.9,1.1-2.8-0.2-3.5-1.6c-1-1.8,0.7-2,1.5-2.4c9.1-4.1,18.1-8.4,27.2-12.3c17-7.4,32.2-18.1,46.1-30.8
		c6.7-6.1,10.5-14.3,11.1-24.1c0.1-2.2,0.2-4.5,0.2-6.7h-4.8C292.4,259.2,292.4,259.9,292.3,260.6z"/>
	<path d="M119.1,276.4c-3.2,2.6-5.7,6.2-8.2,9.7c-2,2.8-3.9,5.6-5.7,8.4l0,7.5c1-1.2,2-2.4,3-3.6c1.6-2,2.7-4.6,4.3-6.8
		c1.9-2.8,3.8-5.7,6.1-8.2c5.9-6.4,12-12.6,17.9-19c1.1-1.2,2-2.8,2.7-4.3c0.2-0.5,0.4-1,0.7-1.5h-6.6
		C129.7,265.4,125.2,271.4,119.1,276.4z"/>
	<path d="M167.6,268.1c-5.3,7-11.5,13.2-18.4,18.4c-1.9,1.4-3.6,2.9-6.8,3.2c0.7-1.6,1-2.9,1.7-3.7c3-3.5,6-6.9,9.1-10.2
		c4-4.2,8.2-7.9,11.5-12.9c0.9-1.4,1.7-2.9,2.4-4.3h-7c-1.5,2.9-3.3,5.7-5.5,8.4c-1.6,1.9-2.7,4.3-4.2,6.2c-2.5,3.1-5.1,6-7.8,8.8
		c-1.7,1.8-3.8,3.1-5.5,4.9c-4.4,4.4-8.6,8.8-12.9,13.3c-0.6,0.6-0.9,1.5-1.4,2.2c0.1,0.2,0.3,0.4,0.4,0.6c0.9-0.4,1.9-0.6,2.6-1.3
		c2.8-2.4,5.6-5,8.4-7.5c0.8-0.7,1.8-1.4,2.8-1.7c1.7-0.4,2.6,0.8,1.6,2.4c-1.1,1.8-2.4,3.5-3.9,4.8c-2.8,2.5-5.9,4.6-8.8,7
		c-0.9,0.7-1.6,1.7-2.4,2.6c0.1,0.2,0.2,0.4,0.3,0.6c0.9-0.2,1.9-0.2,2.6-0.6c3.6-1.8,7.5-3.3,10.7-5.8c9.1-7.1,17.9-14.5,26.7-22
		c5.4-4.6,10.1-10.1,12.3-17.3c0.6-1.8,1-3.7,1.5-5.6h-4.9C171.6,262,169.8,265.2,167.6,268.1z"/>
	<path d="M137.8,271.6c-3.5,3.5-6.9,7.3-10.4,10.9c-1,1.1-2.2,1.9-3.2,3c-1.9,2-4.2,3.7-5.5,6.1c-3.7,6.6-8.6,12.2-13.5,17.8l0,6.4
		c3-3.4,6.3-6.5,8.7-10.3c4.8-7.3,9.9-14,16.1-19.8c3.6-3.4,7.3-6.6,10.6-10.3c4.7-5.1,9.1-10.5,12.3-16.7h-6.1
		C144.7,263.4,141.6,267.8,137.8,271.6z"/>
	<path d="M105.2,281.5l0,3.7c1.8-1.2,3.3-2.8,4.6-4.6c5.1-7.3,10.1-14.7,15.1-22H119c-1.2,2.3-2.5,4.5-3.8,6.8
		C112,270.8,108.5,276.1,105.2,281.5z"/>
	<path d="M117.8,316.4c0.7-0.8,1.2-1.9,1.7-2.9c-0.2-0.3-0.4-0.5-0.6-0.8c-0.9,0.4-1.8,0.8-2.6,1.3c-4,2.7-7.7,5.8-11.1,9.3l0,0.1
		l-0.2,6.4C109.3,325.3,113.6,320.9,117.8,316.4z"/>
</g>
</svg>
