<?xml version="1.0" encoding="utf-8"?>
<!-- Generator: Adobe Illustrator 25.3.0, SVG Export Plug-In . SVG Version: 6.00 Build 0)  -->
<svg version="1.1" id="Layer_1" xmlns="http://www.w3.org/2000/svg" xmlns:xlink="http://www.w3.org/1999/xlink" x="0px" y="0px"
	 viewBox="0 0 750.2 400.1" style="enable-background:new 0 0 750.2 400.1;" xml:space="preserve">
<path d="M132.5,187.5c6-34.6,12.5-68.5,16.6-89c-2.6-0.3-4.5-0.5-5.6-0.7c-3.8,18.6-10.6,53.7-16.9,89.7l0.3,0.1L132.5,187.5z"/>
<path d="M410.6,187.5c6-34.6,12.5-68.6,16.6-89c-2.8-0.3-4.7-0.5-5.8-0.7c-3.8,18.6-10.5,53.6-16.9,89.5l1,0.3L410.6,187.5z"/>
<path d="M348,186.7c-6.9-36.2-14.3-71.5-18.3-89.7c-1,0.1-2.7,0.4-5.1,0.8c0.7,3.4,1.5,7.4,2.4,11.8c4,19.9,9.8,48.6,15.4,78
	l2.4,0.1L348,186.7z"/>
<path d="M625.9,187c-7-36.4-14.4-71.7-18.4-90c-1.1,0.2-3.1,0.5-5.9,0.9c0.7,3.4,1.5,7.3,2.4,11.7c3.1,15.3,7.2,35.8,11.5,57.8
	l0.1,0.1c1.3,6.6,2.6,13.3,3.8,20l4.4,0.1L625.9,187z"/>
</svg>
