<?xml version="1.0" encoding="utf-8"?>
<!-- Generator: Adobe Illustrator 25.3.0, SVG Export Plug-In . SVG Version: 6.00 Build 0)  -->
<svg version="1.1" id="Layer_1" xmlns="http://www.w3.org/2000/svg" xmlns:xlink="http://www.w3.org/1999/xlink" x="0px" y="0px"
	 viewBox="0 0 750.2 400.1" style="enable-background:new 0 0 750.2 400.1;" xml:space="preserve">
<path d="M354,253.6l5.5-2c-0.3-2-0.6-4.1-1-6.1l-5.5,2C353.4,249.5,353.7,251.6,354,253.6z"/>
<path d="M117.3,254.6L117.3,254.6l0.1,0l0,0l4.4-0.5c0.3-2,0.6-4.1,0.9-6.2l-4.6,0.6l-0.1,0l-1.3-0.5c-0.3,2.1-0.6,4.1-0.9,6.2
	L117.3,254.6L117.3,254.6z"/>
<path d="M397.7,254.6L397.7,254.6L397.7,254.6l0.1,0l0,0l2.1-0.3c0.3-2,0.6-4.1,0.9-6.2l-2.3,0.3l-0.1,0l-3.7-1.4
	c-0.3,2.1-0.6,4.1-0.9,6.2L397.7,254.6z"/>
<path d="M636.5,245.7l-6.3,2.3c0.3,2.1,0.7,4.1,1,6.1l6.3-2.3C637.1,249.8,636.8,247.8,636.5,245.7z"/>
</svg>
