<?xml version="1.0" encoding="utf-8"?>
<!-- Generator: Adobe Illustrator 25.3.0, SVG Export Plug-In . SVG Version: 6.00 Build 0)  -->
<svg version="1.1" id="Layer_1" xmlns="http://www.w3.org/2000/svg" xmlns:xlink="http://www.w3.org/1999/xlink" x="0px" y="0px"
	 viewBox="0 0 750.2 400.1" style="enable-background:new 0 0 750.2 400.1;" xml:space="preserve">
<g>
	<path d="M430.9,136l21.3-4.9c0.1-1.6,0.2-3.3,0.3-5.1c0,0,0,0,0,0v-1.2c0.2-4.9,0.4-10.4,0.6-15.9c0-0.5,0.1-1.1,0.1-1.6l-9.6-42
		l-27,8.2L430.9,136z"/>
	<path d="M88.6,136.2l21.3-5.1c0.3-1.9,0.4-4,0.5-6.3c0,0,0,0,0,0c0.2-4.8,0.4-10.3,0.6-16.1l-10.2-44.1L74,72.8L88.6,136.2z"/>
	<path d="M305.6,64.9l-12,52.4c0.1,2.5,0.2,5,0.3,7.2c0.1,2.4,0.2,4.6,0.4,6.5l23.7,5.6l14.6-63.6L305.6,64.9z"/>
	<path d="M637.9,104c0,0.7,0.1,1.5,0.1,2.2c0.1,1.6,0.2,3.2,0.2,4.8c0.1,1.6,0.1,3.2,0.2,4.7c0.1,3.1,0.2,6.1,0.3,8.9v1.2
		c0.1,1.5,0.1,2.8,0.2,4.1c0,0.5,0.1,0.9,0.1,1.4l20.2,4.7l14.9-63.5l-27-8.1L637.9,104z"/>
	<path d="M299.9,359.4v-22.7l-0.2-64.8v-25.5c-2.5-6.4-4.5-12.6-6.1-18.7v135.1c4-0.7,6.3-1.2,6.3-1.2V359.4z"/>
	<path d="M110.9,226.9c-1.7,6.5-3.9,13.1-6.5,19.9l0,89l0,21v2.4v2.5c0,0,0.1,0,0.2,0c0,0,0.1,0,0.1,0c0-2.5,0-5.4,0-8.5v0.1v8.4
		c0.8,0.2,3,0.6,6.2,1.3v-0.1V226.9z"/>
	<path d="M453.4,131l0.1,0.3v-2.6l0,0C453.4,129.5,453.4,130.2,453.4,131L453.4,131z"/>
	<path d="M453.5,225.4c-1.6,6-3.5,12.2-5.8,18.5l0,94.4l0,23c0,0,0.3,0.3,0.4,0.3c0.1,0.1,0.2,0.2,0.4,0.2c0,0,1.8,0.9,5,2.4V225.4z
		"/>
	<path d="M637.5,128.6v2.4l0-0.1l0.3,0.1h0.2c0-0.3,0-0.6-0.1-0.8c0-0.5-0.1-0.9-0.1-1.4L637.5,128.6z"/>
	<path d="M643.1,243.4c-2.2-6.1-4.1-12.1-5.6-17.9v137.4v1.1c3.7-1.6,5.7-2.5,5.7-2.5v-3.3l0.1-85.9l0-0.4h-0.2V243.4z"/>
	<path d="M299.8,244.3l0.1-94.9c-0.5-0.3-1.9-1.3-3.2-4c-1.3-2.6-2.6-6.7-3.3-13.3C291.4,138.6,278,186.2,299.8,244.3z"/>
	<path d="M110.8,131.9c-0.7,6.8-2,11-3.3,13.6c-0.2,0.3-0.3,0.6-0.5,0.9s-0.3,0.5-0.5,0.8c-0.6,0.9-1.2,1.5-1.7,1.9
		c-0.1,0.1-0.2,0.2-0.3,0.2s-0.2,0.1-0.3,0.2v95.1C126.7,185.7,112.5,137.4,110.8,131.9z"/>
	<path d="M638.1,131.7L638.1,131.7c-1.5,4.3-15.7,51.3,5,109.4l0.1-92.2C641.5,146.9,639.1,142.2,638.1,131.7z"/>
	<path d="M453.2,132.4c-1.1,11.1-3.9,15.6-5.6,17.2v92.1C467.9,185.6,455.4,139.8,453.2,132.4z"/>
	<path d="M447.2,148.7c1.5-1.8,3.9-6.2,4.9-16.8l-54.4,12.4l3,13.5L447.2,148.7z"/>
	<path d="M103.8,148.7l0.2-0.1c0.1-0.1,0.4-0.2,0.6-0.5c0.5-0.5,1.3-1.4,2.1-3.1c1.2-2.4,2.5-6.5,3.2-13.1l-56.7,13.5l2.9,13
		L103.8,148.7z"/>
	<path d="M352.2,145.6L352.2,145.6l-57.9-13.7c0.7,6.4,2,10.4,3.2,12.9c0.8,1.6,1.6,2.5,2.1,3.1c0.2,0.2,0.3,0.2,0.4,0.3
		c0.1,0.1,0.2,0.1,0.2,0.2l0.2,0.1l49,10L352.2,145.6z"/>
	<path d="M696.6,145.4L639.2,132c1,10.3,3.4,14.7,4.9,16.5l49.8,9.2L696.6,145.4z"/>
</g>
</svg>
