<?xml version="1.0" encoding="utf-8"?>
<!-- Generator: Adobe Illustrator 25.3.0, SVG Export Plug-In . SVG Version: 6.00 Build 0)  -->
<svg version="1.1" id="Layer_1" xmlns="http://www.w3.org/2000/svg" xmlns:xlink="http://www.w3.org/1999/xlink" x="0px" y="0px"
	 viewBox="0 0 750.2 400.1" style="enable-background:new 0 0 750.2 400.1;" xml:space="preserve">
<g>
	<path d="M397.7,228c-4.1,25.5-7.2,48.3-8.1,61.9c2,0.5,4,1,6,1.4c0.9-13.7,4-36.6,8.1-62.3L397.7,228z"/>
	<path d="M405.9,179.9c-0.9,4.8-1.7,9.7-2.6,14.6l6,1c0.8-4.9,1.7-9.7,2.5-14.6L405.9,179.9z"/>
	<path d="M409.5,159.9c-0.2,1.3-0.5,2.7-0.7,4l5.9,0.9c0.2-1.3,0.5-2.7,0.7-4L409.5,159.9z"/>
	<path d="M364.2,289.7c-0.8-13.7-4.2-36.5-8.7-62.1l-5.6,0.9c4.5,25.6,7.9,48.5,8.8,62.5C360.5,290.6,362.4,290.1,364.2,289.7z"/>
	<path d="M349.4,194.1c-0.9-4.9-1.8-9.7-2.8-14.5l-5.6,0.9c0.9,4.8,1.8,9.7,2.8,14.5L349.4,194.1z"/>
	<path d="M337.2,160.5c0.3,1.3,0.5,2.7,0.8,4l5.5-0.9c-0.3-1.3-0.5-2.7-0.8-4L337.2,160.5z"/>
	<path d="M642.2,289.8c-0.9-13.7-4.3-36.5-8.7-61.9l-6.5,1c4.4,25.6,7.9,48.5,8.8,62.4C637.9,290.8,640,290.3,642.2,289.8z"/>
	<path d="M627.4,194.4c-0.9-4.9-1.9-9.7-2.8-14.5l-6.4,1c0.9,4.8,1.8,9.7,2.7,14.5L627.4,194.4z"/>
	<path d="M620.6,159.9l-6.4,1c0.3,1.3,0.5,2.7,0.8,4l6.4-1C621.2,162.6,620.9,161.2,620.6,159.9z"/>
	<path d="M119.6,228.7c-4,25.2-7.1,47.7-7.9,61.2c2,0.5,3.9,1,5.8,1.4c0.9-13.7,3.9-36.2,8-61.7L119.6,228.7z"/>
	<path d="M127.8,180.5c-0.9,4.8-1.7,9.7-2.6,14.6l5.8,0.9c0.8-4.9,1.7-9.7,2.5-14.6L127.8,180.5z"/>
	<path d="M131.5,160.5c-0.2,1.3-0.5,2.7-0.7,4l5.7,0.9c0.2-1.3,0.5-2.7,0.7-4L131.5,160.5z"/>
</g>
</svg>
