<?xml version="1.0" encoding="utf-8"?>
<!-- Generator: Adobe Illustrator 25.3.0, SVG Export Plug-In . SVG Version: 6.00 Build 0)  -->
<svg version="1.1" id="Layer_1" xmlns="http://www.w3.org/2000/svg" xmlns:xlink="http://www.w3.org/1999/xlink" x="0px" y="0px"
	 viewBox="0 0 750.2 400.1" style="enable-background:new 0 0 750.2 400.1;" xml:space="preserve">
<path d="M116.7,121.3c0.4-1.7,0.8-3.6,1.3-5.6l-11.9-52l-2.4,0.7L116.7,121.3z"/>
<polygon points="71.8,74.1 69.4,74.9 83.9,137.8 86.3,137.3 "/>
<path d="M303.2,65l-2.4-0.7l-13.1,55.9c0.3,1.5,0.6,3,0.9,4.3c0.1,0.6,0.2,1.1,0.3,1.6L303.2,65z"/>
<polygon points="320.2,137.6 322.6,138.2 337.3,75.3 334.9,74.6 "/>
<path d="M448.7,64.4l-2.4,0.7l13.2,57.3c0.4-1.8,0.8-3.7,1.2-5.7L448.7,64.4z"/>
<polygon points="414.4,74.7 412,75.4 426.3,137.5 428.8,137 "/>
<path d="M644.7,64.1l-2.3-0.7l-12.1,51.4c0.5,1.9,0.9,3.7,1.3,5.4L644.7,64.1z"/>
<polygon points="676.5,73.7 661.7,137 664.1,137.5 678.9,74.4 "/>
<path d="M121.5,106.5h161.2c-0.4-1.3-0.8-2.5-1.3-3.8h-71.8c-2,0.2-4.1,0.4-6.2,0.4h-1.9c-2.2,0-4.3-0.1-6.4-0.4h-72.4
	C122.4,104,121.9,105.3,121.5,106.5z"/>
<path d="M286.1,156.4c0.1-1.3,0.2-2.6,0.3-3.8H118.6c0.1,1.2,0.2,2.5,0.3,3.8H286.1z"/>
</svg>
