<?xml version="1.0" encoding="utf-8"?>
<!-- Generator: Adobe Illustrator 25.3.0, SVG Export Plug-In . SVG Version: 6.00 Build 0)  -->
<svg version="1.1" id="Layer_1" xmlns="http://www.w3.org/2000/svg" xmlns:xlink="http://www.w3.org/1999/xlink" x="0px" y="0px"
	 viewBox="0 0 750.2 400.1" style="enable-background:new 0 0 750.2 400.1;" xml:space="preserve">
<g>
	<path d="M347.8,185.4c-2-0.3-3.9-0.5-5.9-0.6c0.3,1.7,0.7,3.4,1,5.2c2,0.2,4,0.6,6,1.1C348.5,189.2,348.1,187.3,347.8,185.4z"/>
	<path d="M337,131.8c-0.6-0.1-1.2-0.2-1.8-0.2c-1.3-0.2-2.6-0.3-3.9-0.5c0.2,1.2,0.5,2.3,0.7,3.5c1.9,0.1,3.8,0.2,5.7,0.4
		C337.5,133.9,337.3,132.8,337,131.8z"/>
	<path d="M403.7,228.7c-1.9-1.1-3.8-2.1-5.7-3.2c-1.3,8-2.5,15.8-3.6,23.1c2.2-0.1,4.3-0.3,6.3-0.6
		C401.7,241.8,402.7,235.4,403.7,228.7z"/>
	<path d="M416.7,121.4c1.9,0.6,3.8,1.1,5.7,1.7c0.3-1.7,0.6-3.4,1-5c-1.9-0.6-3.7-1.2-5.6-1.8C417.4,118,417.1,119.6,416.7,121.4z"
		/>
	<path d="M343.7,178.2c0.9,0,1.8,0,2.7,0.1c-0.3-1.3-0.5-2.6-0.8-3.9c-1.9,0-3.8,0-5.7,0.1c0.2,1.3,0.5,2.6,0.7,3.8
		C341.6,178.2,342.6,178.2,343.7,178.2z"/>
	<path d="M328.9,118.8c0.4,1.7,0.7,3.5,1.1,5.4c1.9,0.1,3.7,0.2,5.6,0.4c-0.4-2-0.8-3.9-1.2-5.7
		C332.5,118.8,330.7,118.8,328.9,118.8z"/>
	<path d="M424.4,112.5c0.4-2.3,0.9-4.5,1.3-6.5c-1.9-0.5-3.8-1-5.7-1.4c-0.4,2-0.8,4.2-1.3,6.5C420.7,111.5,422.6,112,424.4,112.5z"
		/>
	<path d="M605.9,113.5c-0.4-0.1-0.8-0.1-1.2-0.2c0.6,3.1,1.3,6.5,2,9.9c0.2,0.1,0.3,0.2,0.5,0.3c1.1,0.8,1,1.9,1.4,2.9
		c-0.4,0-0.8,0-1.2,0c0.7,3.3,1.4,6.8,2.1,10.4c2.4,1.1,4.8,2.2,7.1,3.2c-2-9.9-4-19.1-5.6-27C609.6,113.5,607.2,113.7,605.9,113.5z
		"/>
	<path d="M331.3,104.3c-0.4-1.8-0.7-3.5-1.1-5c-1.8-0.1-3.6-0.2-5.3-0.3c0.3,1.5,0.6,3,1,4.7C327.6,103.9,329.5,104.1,331.3,104.3z"
		/>
	<path d="M397.6,270.8c0.2-2,0.5-4,0.8-6.1c-2.1,0.2-4.2,0.5-6.3,0.7c-0.3,2.2-0.6,4.4-0.8,6.5C393.4,271.5,395.5,271.1,397.6,270.8
		z"/>
	<path d="M361,261.3c-0.8-5.2-1.6-10.7-2.5-16.5c-2.2-3.4-3.6-7-5.3-10.4c-0.4-0.9,0.3-2,0.5-3c0.6-0.1,1.2-0.1,1.8-0.2
		c0.3,0.2,0.6,0.4,0.9,0.6c-0.7-4.3-1.5-8.6-2.3-13c-1.6-1.3-3.2-2.5-4.9-3.8c-0.5-0.4-1.1-0.8-1.8-1.2c3.2,17.6,6,34.5,8.1,48.9
		C357.2,262.2,359,261.7,361,261.3z"/>
	<path d="M128.4,211.8c-2.6,3-5.1,6.1-7.5,9.1c-1.2,7.6-2.4,14.9-3.5,21.9c3-4.2,5.7-8.4,8-12.7C126.3,224.2,127.3,218,128.4,211.8z
		"/>
	<path d="M345.8,203.8c1.3,0.9,2.4,1.7,3.6,2.6c0.9,0.7,1.8,1.3,2.7,2c-0.6-3.1-1.1-6.2-1.7-9.3c-1.9-0.9-3.9-1.7-6.2-2.4
		c0.4,2.3,0.8,4.5,1.3,6.8C345.5,203.6,345.6,203.7,345.8,203.8z"/>
	<path d="M399.9,253.9c-2.1,0.2-4.2,0.4-6.3,0.6c-0.3,2.1-0.6,4.2-0.9,6.2c2.1-0.1,4.2-0.3,6.3-0.4
		C399.3,258.2,399.6,256.1,399.9,253.9z"/>
	<path d="M137.4,159.8c-0.5,0.2-1,0.4-1.5,0.7c-2.2,1-3.1,2.8-4.4,4.2c-0.4,0.5-0.8,0.9-1.1,1.4c-0.9,4.8-1.7,9.6-2.6,14.4
		c2.3-1.7,4.5-3.5,6.8-5.2C135.6,170.1,136.5,164.9,137.4,159.8z"/>
	<path d="M427.2,98.5c-2.8-0.3-4.7-0.5-5.8-0.7c-0.1,0.7-0.3,1.5-0.5,2.2c1.9,0.5,3.8,1,5.7,1.5C426.8,100.5,427,99.5,427.2,98.5z"
		/>
	<path d="M130.3,200c0.6-3.3,1.1-6.5,1.7-9.8c-2.2,1.6-4.5,3.3-6.8,4.9c-0.7,3.9-1.3,7.7-2,11.6c1.3-1.3,2.6-2.7,3.9-4
		C128,201.7,129.1,200.9,130.3,200z"/>
	<path d="M357.7,279.8c0.7,0.2,1.3,0.5,1.8,1.1c0.9,1.1,0.1,1.9-1.4,2.5c0.3,2.8,0.5,5.3,0.7,7.6c1.8-0.4,3.7-0.9,5.5-1.3
		c-0.3-5.8-1.2-13.1-2.3-21.6c-2,0.4-3.8,0.8-5.6,1.3C356.8,273.1,357.3,276.6,357.7,279.8z"/>
	<path d="M618.4,181.9c0.8,4,1.5,8.1,2.3,12.1c2.6,1.9,5.1,3.9,7.7,5.8c-0.8-4.2-1.6-8.5-2.4-12.7c-1.8-1.3-3.6-2.5-5.4-3.8
		C619.9,182.9,619.1,182.4,618.4,181.9z"/>
	<path d="M392.4,278c-0.6,0-1.1,0-1.7-0.1c-0.4,3.3-0.6,6.4-0.8,9.2c2.1-0.2,4.1-0.5,6.2-0.7c0.2-2.6,0.5-5.5,0.9-8.6
		C395.3,277.9,393.8,278,392.4,278z"/>
	<path d="M146.3,112.5c-2.2,0.7-4.2,1.4-6.2,2.2c-0.3,1.4-0.5,2.8-0.8,4.2c2.1-0.2,4.1-0.5,6-0.9C145.6,116.2,146,114.3,146.3,112.5
		z"/>
	<path d="M627.9,234.2c3.9,7.5,6.8,15.1,8.4,22.9c1.2,5.8,0.7,11.3-2.3,16.5c0.8,5.8,1.3,11.1,1.7,15.5c2.2-1.4,4.3-2.8,6.2-4.4
		c-1.5-16.9-5.8-43.5-11-71.8c-2.6-1.8-5.2-3.6-7.6-5.5C624.8,216.6,626.4,225.6,627.9,234.2z"/>
	<path d="M341.1,168.6c1.1,0,2.3,0.1,3.4,0.2c-1.3-6.7-2.6-13.3-3.9-19.7c-1.9-0.1-3.8-0.2-5.7-0.3c1.3,6.4,2.6,13,3.9,19.8
		C339.5,168.5,340.3,168.5,341.1,168.6z"/>
	<path d="M615.5,167.4l0.1,0.1c0.2,1,0.4,2.1,0.6,3.1c2.5,1.4,4.9,2.8,7.4,4.2c-0.6-3.3-1.3-6.5-1.9-9.7c-2.5-1.5-5-3-7.5-4.5
		C614.6,162.8,615.1,165.1,615.5,167.4z"/>
	<path d="M610.1,108.9c-0.8-3.8-1.6-7.3-2.2-10.3c-0.6-0.4-1.2-0.9-1.8-1.4c-1.1,0.2-2.6,0.4-4.4,0.7c0.5,2.4,1,5,1.6,7.9
		c1.3,0.6,2.7,1.2,4,1.8C608.2,108,609.2,108.4,610.1,108.9z"/>
	<path d="M404.7,186.2c1.3,0.7,2.5,1.4,3.7,2.1c0.6,0.4,1.3,0.7,1.9,1.1c0.4-2.6,0.9-5.2,1.4-7.7c-1.8-1-3.6-1.9-5.6-2.8
		C405.6,181.3,405.2,183.7,404.7,186.2z"/>
	<path d="M408.5,165.3c-0.4,2.4-0.9,4.9-1.3,7.3c1.9,0.9,3.8,1.8,5.6,2.8c0.5-2.6,0.9-5.2,1.4-7.8
		C412.3,166.8,410.4,166.1,408.5,165.3z"/>
	<path d="M414.9,163.1c0.5-2.9,1-5.7,1.5-8.5c-0.7-0.3-1.4-0.7-2.2-1c-1.1-0.5-2.3-1-3.4-1.5c-0.5,2.9-1.1,5.9-1.6,8.9
		C411.2,161.7,413.1,162.4,414.9,163.1z"/>
	<path d="M119.2,273.5c0.6-5,1.3-10.5,2.1-16.3c-2.2,2.8-4.6,5.5-7.1,8.3c-0.6,4.8-1.2,9.3-1.6,13.4
		C115,277.1,117.2,275.3,119.2,273.5z"/>
	<path d="M399.7,215.7c1.9,1.1,3.8,2.1,5.6,3.2c0.5-3.3,1.1-6.5,1.6-9.8c-1.9-1-3.8-1.9-5.7-2.9
		C400.7,209.4,400.2,212.6,399.7,215.7z"/>
	<path d="M148.2,102.9c0.3-1.5,0.6-3,0.9-4.4c-2.3-0.3-4-0.4-5.1-0.6c-0.2,0.1-0.3,0.1-0.5,0.2c-0.4,2-0.9,4.3-1.3,6.7
		C144.1,104.1,146.2,103.5,148.2,102.9z"/>
	<path d="M408.3,200.9c0.4-2.5,0.9-5,1.3-7.5c-2-0.7-3.9-1.4-5.8-2.1c-0.4,2.4-0.8,4.7-1.2,7.1C404.5,199.2,406.4,200.1,408.3,200.9
		z"/>
	<path d="M338.7,139.9c-1.8-0.1-3.8-0.2-5.7-0.4c0.3,1.3,0.5,2.7,0.8,4.1c1.9,0.1,3.8,0.2,5.7,0.4
		C339.3,142.6,339,141.3,338.7,139.9z"/>
	<path d="M142.5,132.5c0.5-2.5,0.9-4.9,1.4-7.3c-2.1,0.6-4.2,1.3-6.2,2c-0.5,2.4-1,5-1.4,7.6C138.3,134,140.4,133.2,142.5,132.5z"/>
	<path d="M138.7,153.1c0.7-3.6,1.3-7.1,1.9-10.5c-2.2,1.1-4.3,2.2-6.4,3.3c-0.7,3.5-1.3,7.1-2,10.7
		C134.3,155.5,136.5,154.3,138.7,153.1z"/>
	<path d="M414.9,131.1c1.9,0.7,3.8,1.3,5.6,2c0.4-2.3,0.9-4.6,1.3-6.8c-1.8-0.6-3.7-1.3-5.6-1.9
		C415.7,126.7,415.3,128.9,414.9,131.1z"/>
	<path d="M327.7,113.1c1.9,0.2,3.7,0.4,5.6,0.6c-0.4-1.8-0.7-3.5-1.1-5.2c-1.8-0.2-3.7-0.3-5.5-0.5c0.1,0.5,0.2,1,0.3,1.5
		C327.2,110.7,327.5,111.9,327.7,113.1z"/>
	<path d="M618.9,151.2c-0.1-0.3-0.1-0.6-0.2-0.9c-0.1,0.3-0.1,0.6,0.1,0.8C618.8,151.2,618.9,151.2,618.9,151.2z"/>
	<path d="M118,284.7c-1.9,1.2-3.9,2.5-5.8,3.7c-0.2,0.1-0.3,0.2-0.5,0.3c0,0.4-0.1,0.8-0.1,1.2c2,0.5,3.9,1,5.8,1.4
		C117.6,289.3,117.8,287.1,118,284.7z"/>
	<path d="M412.7,142.8c0.3,0.1,0.6,0.2,1,0.3c1.3,0.4,3.2,0.6,4.9,0.6c0.3-1.5,0.5-2.9,0.8-4.3c-1.8-0.8-3.7-1.5-5.6-2.2
		C413.4,139,413,140.9,412.7,142.8z"/>
</g>
</svg>
