<?xml version="1.0" encoding="utf-8"?>
<!-- Generator: Adobe Illustrator 25.3.0, SVG Export Plug-In . SVG Version: 6.00 Build 0)  -->
<svg version="1.1" id="Layer_1" xmlns="http://www.w3.org/2000/svg" xmlns:xlink="http://www.w3.org/1999/xlink" x="0px" y="0px"
	 viewBox="0 0 750.2 400.1" style="enable-background:new 0 0 750.2 400.1;" xml:space="preserve">
<path d="M116.8,161.1c0.1,1.3,0.2,2.6,0.3,3.9h170c0.1-1.3,0.2-2.6,0.3-3.9H116.8z"/>
<path d="M117.5,178.8c0,1.3,0,2.6-0.1,3.9h169.4c0-1.3-0.1-2.6-0.1-3.9H117.5z"/>
<path d="M116.5,196.2c-0.1,1.3-0.3,2.6-0.4,3.9h172c-0.2-1.3-0.3-2.6-0.4-3.9H116.5z"/>
<path d="M113.9,213.9c-0.3,1.3-0.5,2.6-0.8,3.9h178c-0.3-1.3-0.6-2.6-0.8-3.9H113.9z"/>
<path d="M109.6,231.3c-0.4,1.3-0.8,2.6-1.2,3.9h187.4c-0.4-1.3-0.8-2.6-1.2-3.9H109.6z"/>
<rect x="104.3" y="249.1" width="195.4" height="3.9"/>
<rect x="104.3" y="266.5" width="195.4" height="3.9"/>
<polygon points="104.3,284.2 104.3,288.1 299.8,288.1 299.7,284.2 "/>
<polygon points="104.3,301.6 104.4,305.5 299.8,305.5 299.8,301.6 "/>
<polygon points="104.4,319.4 104.4,323.3 299.9,323.3 299.8,319.4 "/>
<rect x="104.4" y="337.2" width="195.5" height="3.9"/>
<polygon points="299.9,359.2 299.9,355.3 104.4,355.3 104.4,356.8 104.4,359.2 "/>
</svg>
