<?xml version="1.0" encoding="utf-8"?>
<!-- Generator: Adobe Illustrator 25.3.0, SVG Export Plug-In . SVG Version: 6.00 Build 0)  -->
<svg version="1.1" id="Layer_1" xmlns="http://www.w3.org/2000/svg" xmlns:xlink="http://www.w3.org/1999/xlink" x="0px" y="0px"
	 viewBox="0 0 750.2 400.1" style="enable-background:new 0 0 750.2 400.1;" xml:space="preserve">
<g>
	<path d="M299.6,315.3L299.6,315.3l0-5.9l-96.4,15.1L105.2,309l0,30.7h-0.5l-0.4,16.9l0,2.4v2.5c0,0,0,0,0,0c0,0-0.1,0,0,0h0
		c0,0,0.1,0,0.2,0c0,0,0,0,0,0v0c0,0,49,10.8,88.4,11.6c0,0,0,0,0,0c0.6,0,1.2,0,1.8,0c0.2,0,0.3,0,0.5,0c0.5,0,0.9,0,1.4,0
		c0.3,0,0.6,0,0.9,0c0.3,0,0.7,0,1,0c0.6,0,1.2,0,1.9,0c42.9-0.6,99.5-11.7,99.5-11.7v-2.2v-5.3v-14.4h-0.4L299.6,315.3z"/>
	<polygon points="203.1,301.7 299.6,286.5 299.6,256.1 203.1,271.2 105.2,255.7 105.2,286.2 	"/>
	<path d="M293.1,225.9c-2-7.4-3.6-14.5-4.7-21.4l-85.2,13.4l-87-13.8c-1.2,6.8-2.7,14-4.8,21.4l91.7,14.5L293.1,225.9z"/>
	<path d="M203.1,178.5l82.5-13c0.1-5.1,0.5-9.8,0.9-13.9l-83.4,13.1l-84.7-13.4c0.4,4.1,0.6,8.8,0.7,13.9L203.1,178.5z"/>
	<path d="M282.1,104.5c-0.6-1.7-1.2-3.4-1.9-5.2l-77.1,12.1l-78.9-12.5c-0.7,1.7-1.3,3.5-1.9,5.2l80.8,12.8L282.1,104.5z"/>
	<polygon points="546.5,301.7 642.7,286.5 642.7,256.1 546.5,271.2 448.6,255.7 448.6,286.2 	"/>
	<path d="M637.4,225.8c-2.1-7.4-3.6-14.5-4.8-21.4l-86.2,13.5l-88.1-14c-1.2,6.8-2.7,14-4.8,21.4l92.8,14.7L637.4,225.8z"/>
	<path d="M546.5,178.5l83.1-13.1c0.1-5.1,0.3-9.8,0.7-13.9l-83.8,13.2l-85.8-13.6c0.4,4.1,0.6,8.8,0.7,13.9L546.5,178.5z"/>
	<path d="M625.7,104.4c-0.6-1.7-1.2-3.4-2-5.2l-77.3,12.1l-78.8-12.5c-0.7,1.7-1.4,3.5-2,5.2l80.8,12.8L625.7,104.4z"/>
	<path d="M642.7,339.7l0-30.3l-96.2,15.1L448.6,309l0,14.7l-0.2,10.2l0,5.8h-0.1l-0.5,21.5c0,0,0.3,0.3,0.4,0.3l0,0c0,0,0,0,0,0
		c0,0.1,0.1,0.1,0.2,0.2c0.1,0,0.1,0.1,0.2,0.1c0,0,47.8,24.4,95.3,24.4s99.4-24.7,99.4-24.7v-3.3h0l0-18.4H642.7z"/>
</g>
</svg>
