<?xml version="1.0" encoding="utf-8"?>
<!-- Generator: Adobe Illustrator 25.3.0, SVG Export Plug-In . SVG Version: 6.00 Build 0)  -->
<svg version="1.1" id="Layer_1" xmlns="http://www.w3.org/2000/svg" xmlns:xlink="http://www.w3.org/1999/xlink" x="0px" y="0px"
	 viewBox="0 0 750.2 400.1" style="enable-background:new 0 0 750.2 400.1;" xml:space="preserve">
<g>
	<path d="M591.4,182.5l4.4-0.9c2,0,4.3,0.3,6.8,0.1c1.7-0.1,4.3-1.1,6.3-2.7l20.7-4.2c0,0,0,0,0.1,0c0-0.2,0-0.4,0-0.6l-20,4
		c0.6-0.6,1.1-1.3,1.4-2l18.5-3.7c0-0.2,0-0.4,0-0.6l-18.3,3.7c0.1-0.5,0.2-1,0.1-1.6l18.2-3.7c0-0.2,0-0.4,0-0.6l-18.3,3.7
		c-0.1-0.5-0.3-1-0.6-1.5c0,0-0.1-0.1-0.1-0.1l5.9-1.2c-0.9,0.1-1.7,0.1-2.5-0.1l-3.8,0.8c-0.4-0.5-1-1-1.6-1.4l3.4-0.7
		c-0.1-0.2-0.2-0.3-0.3-0.5l-3.8,0.8c-1-0.5-2.1-0.9-3.3-1.1l6.6-1.3c0-0.2,0-0.4-0.1-0.6l-8.2,1.6c-2.4-0.3-4.8-0.1-6.1,0.1
		c-2.7,0.5-5,1.5-7.3,2.6l-12.8,2.6c0.3,0.1,0.6,0.3,0.9,0.4l9.5-1.9c-2,0.9-4.2,1.6-6.7,1.8c-0.9,0.1-1.8,0.1-2.8,0.1
		c1.3,0.1,2.7,0.4,4.2,0.9l-1.8,0.4c0.3,0.1,0.5,0.3,0.8,0.4l2.1-0.4c0.9,0.3,1.8,0.7,2.7,1.2l-2.4,0.5c0.3,0.1,0.6,0.3,0.8,0.4
		l2.4-0.5c0.8,0.4,1.5,0.8,2.2,1.3l-2.3,0.5c0.2,0.1,0.4,0.3,0.7,0.5l2.3-0.5c0.6,0.4,1.1,0.8,1.6,1.2l-2.5,0.5
		c0.2,0.2,0.4,0.3,0.5,0.5l2.5-0.5c0.6,0.5,1.2,1,1.7,1.4l-2.6,0.5C591,182.2,591.2,182.3,591.4,182.5z"/>
	<path d="M587.9,187.3c-1.3,0-2.7,0-4,0.3c-6.3,1-12.2-2-18.3-3.1c-0.2,0.6-0.3,1.2-0.5,1.9c-1.7,5.6-5.1,3.9-7.7,0.1
		c-0.5-0.8-1-1.4-1.5-2l-12.1,0.5c-2.8-2.9-3.6-4.7-3.2-5.8c-0.3,0-0.6,0-0.9,0c-4.6,0.2-7.4,4.9-10,8.3c-3.3,4.3-6.7,4.2-11.3,4.2
		c-4.2,0-5.5,3.4-7.9,5.8c2.2,0.5,4.5,0.9,6.6,1.6c0.5,0.1,0.9,0.3,1.4,0.5c0.5,0.2,0.9,0.4,1.4,0.6c0.6,0.2,1.2,0.2,1.8,0.4
		c0.8,0.2,1.3,0.6,2.2,0.3c0.5-0.1,1.1-0.5,1.6-0.4c0.6,0.1,0.9,0.7,1.6,0.9c1,0.2,3.6-1.4,4.3-0.2c0.4,0.8-0.3,1.4-1.1,1.8
		c3,0.5,6,0.5,7.6-0.9c4.5-3.6,5.5-16.7,15.7-5.9c3.2,3.4,5.4,6.2,9,6c0.3-0.4,0.7-0.8,1-1.2c0.8-0.9,1.6-1.8,2.5-2.6
		c0.7-0.6,2.2-2.1,3.2-1.2c0.1,0.1,0.2,0.2,0.3,0.3c0.7-0.8,1.4-1.5,2.3-2c1.9-1.1,4.2,0,6.7,0.2C584.4,196,586.1,191.5,587.9,187.3
		z"/>
	<path d="M512.8,202c-0.1,0-0.1,0-0.2,0c-1.4-0.2-2.9-0.3-4.3-0.2c0.9,0.2,1.9,0.4,2.8,0.5C511.7,202.3,512.3,202.2,512.8,202z"/>
	<path d="M448.6,257.3c2.6-0.7,5.2-1.8,6.5-2.1c4.5-1.2,9.1-6.6,14-5.3c1.6,0.4,2.9,2,4.5,2.6c2.4,0.9,5.4,1.1,7.9,1.1
		c7.6,0.2,11.4-5.7,18.6-6.1c0.8,0,1.5-0.1,2.3-0.1c6.6,0.9,15.1-2,14.4-10.5c-0.1-0.9-0.3-1.8-0.7-2.6l17.6-3.6
		c0.7-0.3,1.4-0.6,2-1l-19.9,4c-0.2-0.3-0.4-0.5-0.6-0.7c-0.3-0.3-0.7-0.5-1.1-0.7l26.8-5.4c1.8-0.7,3.6-1.2,5.6-1.4
		c0.8-0.1,1.6-0.2,2.4-0.2l51.9-10.5c-0.1,0-0.2,0-0.4,0c-0.4,0-0.8-0.1-1.2-0.2c0,0-0.1,0-0.1,0l-4.7,1c-2,1.1-4.8,1.6-7.4,1.5
		L513,231.9c-0.7-0.1-1.3,0-1.8,0.4l-7.3,1.5c-0.5,0.2-1,0.4-1.5,0.5c-0.7,0.2-1.6,0.5-2.5,0.9l10.7-2.2c-0.5,0.6-0.8,1.4-1.3,2
		l-6.6,1.3c-0.7-0.2-1.5-0.3-2.1-0.5c-2.3-0.4-4.5-0.1-6.4,1.4c-0.7,0.6-1.2,1.4-1.8,2.1c-1,1-3,1.8-2.3-0.5
		c0.3-0.9,2.1-2.4,0.5-2.9c-1.5-0.5-3.2,0.6-4.7,0.6c-2.2,0-0.6-1.6-1.8-2.3c-0.5-0.3-1.3,0.5-1.7,0.8c-0.2,0.1-0.9,0.9-1.1,0.4
		c-0.1-0.2,0.5-0.7,0.6-0.9c0.3-0.3,0.5-0.6,0.6-1.1c0.2-0.9,0.1-1.9,0.3-2.8c0.2-1.4,0.9-3.1,0.6-4.5c-1.8,0-2.9,4.5-4.2,5.6
		c-0.8,0.7-1.7,1.2-2.5,1.9c-0.7,0.6-1.7,1-2.6,1.3c-1.1,0.3-1.9,0.1-3-0.2c-0.1,0-0.1,0-0.2-0.1c-0.4,2.2-3.3,4.2-4.9,5.6
		c-4.3,3.7-9.9,9.7-17.2,10.1L448.6,257.3z"/>
	<path d="M610.3,127.8c-0.8-0.4-2-0.7-3-0.9c1.5-0.3,3.5,0,5.1,0.3c0,0-0.1-0.1-0.1-0.1c-0.4-0.2-0.8-0.5-1.2-0.7
		c-2.1-1-4.6-1.4-6.8-1.1c-1.8,0.2-5,1.3-2.8,3.5c0.4,0.4,0.8,0.7,1.3,1c1.1,0.7,2.2,1.1,3.4,1.3c-0.4-0.7-0.7-1.4-0.7-2
		c0.2,0.3,0.5,0.6,0.9,0.9c1.5,0.5,4.6,0.7,5.7,1.8c1.1,1,1.3,3.4,2.9,5c-0.2-0.1-0.4-0.1-0.7-0.2c1,1.2,2.2,2.5,3.5,3.3
		c0,0,0.1,0,0.1,0l0.2,0c1.5-0.3,2.9-0.2,4.4,0c0.6,0,1.2,0.1,1.9,0.1c2.8,0.1,5.2,0,7.3-0.2c0.4-2.4,0.7-4.3,1-5.7
		c-0.5-0.1-1-0.1-1.6,0c-2.1,0.4-3.3,2.4-5,3.5c-2.4-0.2-4.6-1.1-7.1-3.1C615.8,131.8,614,129.5,610.3,127.8z"/>
	<path d="M461.1,120.9c-0.3,1.4-0.5,2.7-0.8,4c-0.2,1.2-0.5,2.3-0.7,3.3c-0.1,0.3-0.1,0.6-0.2,0.9c0.5,0.1,1,0.2,1.5,0.5
		c0.1,0.1,0.2,0.2,0.3,0.3c0,0.1,0.1,0.2,0.1,0.2c1.2,0.7,3.2,0.7,4.8,0.6c0.4,0,0.9,0,1.2,0c1.9,0,3.6,0,5.5,0.4
		c1.1,0.2,2.3,0.3,3.6,0.3c2.6,0.1,5.6,0.2,8,2c0.7,0.6,1.1,1.3,1.5,2.1c0.4,0.7,0.8,1.4,1.4,1.9c1.5,1.1,3.5,0.9,5.1,0.7
		c0.5,0,1-0.1,1.4-0.1c1.6,0,3.1,0.2,4.6,0.5c1.2,0.2,2.3,0.4,3.4,0.5c2.4,0.1,4.8-0.3,7.1-0.7c1.6-0.3,3.2-0.5,4.8-0.6
		c1-0.1,6.2-0.1,7.8,1.4c0.4,0.3,0.5,0.7,0.5,1.1c0,1.4-0.2,2.6-0.6,3.5c0.8,0,1.4,0.2,2,0.6c0,0.1,0,0.3,0,0.5l0.5-0.1
		c0.5,0.4,1,0.9,1.5,1.3c0,0,0.1,0.1,0.1,0.1l-0.7,0.2c0.1,0.2,0.2,0.4,0.3,0.5l0.9-0.2c0.4,0.4,0.8,1,1.2,1.5l-0.4,0.1
		c0.2,0.2,0.3,0.3,0.5,0.5l0.3-0.1c0.5,0.5,0.9,1.1,1.4,1.4l0,0c0.2,0.1,0.3,0.3,0.5,0.4c0,0,0,0,0.1,0.1l0.2,0
		c0.3,0.1,0.6,0.2,0.9,0.1c0.5-0.1,0.9-0.3,1.1-0.5l10.2-2.1c0.7,0.4,1.4,0.7,2.1,0.9c0.4,0.1,0.9,0.2,1.3,0.2l-14.6,2.9
		c0.1,0.2,0.2,0.4,0.4,0.5l16.5-3.3c1.3,0.1,2.6,0.4,3.9,0.8l-17.8,3.6c1-0.1,2-0.4,3.1,0l15.8-3.2c0.9,0.3,1.7,0.7,2.5,1.3
		l-16.1,3.3c0.2,0.2,0.4,0.3,0.5,0.5l16.1-3.3c0.6,0.5,1.3,1,1.9,1.3l-16.1,3.2c0.2,0.1,0.5,0.2,0.7,0.2c0.2,0,0.3,0.1,0.5,0.1
		l7.6-1.5c0.5-0.2,1-0.4,1.5-0.3l6.7-1.3c3,1.3,6.5,1.2,9.8,0.8c3.1-0.3,5.9,0.5,8.4-2.3c1.8-2,2-1.4,2,1.3c-0.1,6,3.8,1.9,6,0
		c3.2-2.7,6.7-1.7,10.1,0l-2.2,0.4c-0.2,0.2-0.4,0.5-0.6,0.7l3.6-0.7c0.8,0.4,1.6,0.8,2.3,1.2l-7.6,1.5c-0.1,0.2-0.3,0.4-0.5,0.7
		l8.8-1.8c0.1,0,0.1,0.1,0.2,0.1c0.9,0.5,1.8,0.8,2.6,1.1l-13,2.6c-0.2,0.2-0.3,0.5-0.5,0.7l14.7-3c0.3,0.1,0.6,0.2,0.9,0.2
		c1.3,0.3,2.6,0.4,3.9,0.4l-21.1,4.3c-0.4,0.3-0.7,0.6-1.1,0.8l37.4-7.5c0.2,0,0.3,0.1,0.5,0.1c0.6,0.1,1.2,0.3,1.8,0.4
		c0.8,0.1,1.5,0.2,2.3,0.3l-81.5,16.4c-0.2,0-0.4,0.1-0.6,0.1l-6.2,1.3c0.3,0.1,0.6,0.1,0.9,0.1c0.4,0,0.7,0,1.1,0.1l73-14.7
		c1.9-1,4.6-1.4,7.3-1.5l8.7-1.8c0-0.2,0-0.4,0-0.6l-1.4,0.3c-0.6-0.5-1.3-0.9-2-1.4l3.5-0.7c0-0.1,0-0.3,0-0.4
		c-0.1,0-0.3-0.1-0.4-0.1l-3.8,0.8c-0.7-0.4-1.3-0.8-2-1.2l2.2-0.4c-0.5-0.1-1.1-0.2-1.6-0.3l-1.3,0.3c-3.2-1.6-6.3-2.8-8.4-3
		c-1.1-0.1-2.3,0-3.5,0.1c-1.8,0.1-3.3-1.2-4.4-2.7c-0.9-1.2-0.9-2.5-2.5-2.8c-1.1-0.2-2.4-0.4-3.4-0.3c-2.8,0.3-6,1.5-8.2-0.5
		c-2-1.6-4.4-2.3-6.6-3.5c-0.4-0.2-0.8-0.5-1.2-0.8c-1-0.7-1.7-2.4-0.8-3.2c0.4-0.5,0.9-0.9,1.4-1.3c0.5-0.4,1.1-0.8,1.6-1.1
		c0.8-0.5,1.6-0.9,2.2-1.7c0.9-1.4,1.2-3.3,0.6-4.9c-0.1-0.2-0.2-0.4-0.3-0.7c-0.1,0.1-0.3,0.2-0.4,0.2c-2.5,1.5-3,4.1-5.2,5.9
		c-1,0.8-2,1.6-3.1,2.2c0,1.5,0.8,3-0.3,4.5c-0.5,0.7-1.1,1.4-1.6,1.9c-0.8,0.8-1.7,1.1-2.8,1.5c-0.4,0.2-0.9,0.3-1.3,0.5
		c-2.2,0.7-4.7,1.1-6.7,1.5c-3.2,0.6-6.3,1.1-9.6,1c-1,0-1.5-0.5-2.3-1.1c-0.9-0.7-2.2-0.7-3-1.6c-0.3-0.4-0.5-0.9-0.7-1.3
		c-0.2-0.4-0.5-0.7-0.9-1.1c-0.8-0.9-0.6-1.8,0.1-2.6c0.4-0.4,0.7-0.9,1.2-1.2c0.5-0.4,1.4-0.6,2-0.7c0.6-0.2,1.2-0.3,1.8-0.4
		c1.1-0.1,2.2-0.1,3.3-0.2c0.8-0.1,1.9-0.2,2.9-0.5c-0.5-0.2-1-0.5-1.6-1c-1.3-1-1.8-2.6-3.7-3c-2.6-0.6-3,2-5,2.5
		c-2.1,0.5-7.6-2.9-9-4.7c-0.7-0.9-0.8-1.7-0.5-2.4c-0.7,0.1-1.3,0.5-2,1.4c-1,1.2-0.7,2.9-1.7,4c-0.9,1.2-2.2,0.9-3.3,1.9
		c-2.2,2.1-3.2,4.9-5.7,4.4c-0.5-0.1-1-0.3-1.7-0.7c-3.4-4.6-7.3-7.8-13.1-7.3c-0.6-0.1-1.2-0.1-1.8-0.2c-1.8-0.2-3.6-0.4-5.4-0.7
		c-1.7-0.3-4.7-0.3-5.9-1.7c-0.5-0.6-0.5-1.6-0.9-2.2c-0.5-0.6-1.3-0.8-1.6-1.1c-0.9-1.1-1-2.8-2.3-3.6c-1.1-0.8-2.4-0.3-3.6-0.7
		c-1.8-0.7-2.7-2.6-4.2-3.6c-2.2-1.4-1.6,0-3.3,0.9c-1.6,0.9-4.5-0.4-6.4-0.6c-1.9-0.2-4.2-3.7-6.4-2.2c-1.2,0.8-0.5,2.6-2.4,2.9
		c-2.9,0.5-5.6-0.8-8-2.4c-0.3-0.2-0.5-0.4-0.8-0.6c-0.5,1.9-0.9,3.7-1.3,5.4c0.1,0.5,0.1,1-0.1,1.3
		C461.4,120.5,461.2,120.8,461.1,120.9z"/>
	<path d="M616.8,93.1l3.8-0.8c-0.1-0.2-0.2-0.4-0.3-0.5l-4.4,0.9c-1.2-0.5-2.4-0.8-3.6-0.7c-0.9,0.1-3.7,1.1-4.8,2.4l-5.9,1.2
		c0.2,0.2,0.4,0.3,0.5,0.5l4.9-1c-0.1,0.4-0.1,0.8,0.3,1.1c0.1,0.2,0.5,0.3,0.9,0.4l-4.6,0.9c0.1,0.1,0.1,0.1,0.2,0.2
		c0.1,0.1,0.2,0.2,0.3,0.3l5.7-1.1c0.6,0.1,1.2,0.2,1.5,0.4c0.4,0.2,0.9,0.5,1.3,0.8l-7.1,1.4c0.2,0.2,0.3,0.3,0.5,0.5l7.3-1.5
		c0.9,0.6,1.7,1,2.8,1.2l-8.7,1.7c0.2,0.2,0.4,0.3,0.5,0.5l11.9-2.4c1.4-0.2,2.8-0.3,4.1-0.1c-0.2-0.5-0.4-1-0.6-1.5
		c-0.2-0.4-0.4-0.9-0.6-1.3c-0.1-0.2-0.2-0.4-0.2-0.5c0-0.1-0.1-0.1-0.1-0.2c-0.8-0.2-1.6-0.6-2.4-1l1.8-0.4
		c-0.1-0.2-0.2-0.4-0.3-0.5l-2.3,0.5C618.3,94,617.5,93.5,616.8,93.1z"/>
	<path d="M623.9,232.3c-3.1-0.3-6.9-2.6-5.5-6.6c0.6-1.8,1.9-2.5,3.6-2.8c2.1-0.4,3.9-0.7,5.9-1.5c0.1,0,0.2-0.1,0.3-0.1
		c1.2-0.5,1.5-0.8,1.5-1.4c0,0,0-0.1,0-0.1c0,0,0,0,0,0c0-0.1,0-0.2,0-0.3c-0.1-0.4-0.2-1-0.2-1.8c1-0.4,1.9-1.6,2.9-1.8
		c0.9-0.2,1.8,0.3,2.7,0.1c-0.2-1.1-0.5-2.2-0.7-3.2c-1.3,0.3-3,1.2-3.8,1.5c-1.5,0.5-3,0.6-4.4,1.2c-2,0.9-3.7,2.6-5.6,3.7
		c-0.9,0.6-1.9,0.9-2.7,1.6c-0.8,0.7-1.2,2.1-2.5,2.2c-2.7,0.2-3.5-3.9-4.5-4.1c-0.5-0.1-1-0.1-1.4-0.1c-0.5,0-0.9,0.1-1.4,0.2
		c-0.7-0.1-1.5,0.2-2.1,0.7c-1.2,0.9-2.4,1.3-3.7,1.5c-0.4,0.1-0.8,0.1-1.3,0.1c-1.3,0.1-2.4-0.2-3.8,0.2c-1.2,0.4-2.4,1.1-3.5,1.8
		c-1.1,0.8-2,1.7-3.1,2.5c-0.9,0.6-1.6,1.7-2.6,2.2c-0.5,0.3-1,0.4-1.5,0.7c-0.8,0.6-1.2,1.4-1.6,2.2c-0.4,0.8-1.5,1.8-1.4,2.7
		c0.1,1.6,2.2,1.2,3.1,1.1c1.1-0.2,2.2-0.3,3.3-0.4c1-0.1,1.9-0.4,2.9-0.6c6-0.9,18.4,0,22.6,5.2c2.3,2.9,2.3,6.9,6.6,8.4
		c0.5,0.2,1,0.3,1.4,0.3c2,0.3,4.8-0.6,6.5-1.8c1.3-0.9,3.3-1.2,4.8-1.2c1.7,0.1,3.4,1.1,5.1,1.3c0.6,0.1,1.4,0.2,2.1,0.2
		c0.3-0.1,0.6-0.2,1-0.3l0-3.4c-1.9-5.2-3.5-10.3-5-15.3C633.2,228.5,628.8,232.7,623.9,232.3z"/>
	<path d="M637.3,264.5c1.9,0.2,2.8,1.7,4.5,2.1c0.3,0.1,0.6,0.1,0.9,0.2l0-7.6c-1.4,0.2-2.8-0.4-4.2-0.6c-1.9-0.2-3.4,0.5-5.3,0.5
		c-1.4,0-3-0.9-4.3-1.5c-2.7-1.3-5.7-3.1-8.7-3c-1.8,0.1-3.4,0.9-4.8,2.2c-2.4,2.5,0.4,5,2.3,6.5c1.6,1.2,3.4,2.2,5.3,2.6
		c3.3,0.8,6.7,0.1,9.8-1.1C634.3,264.5,635.8,264.4,637.3,264.5z"/>
	<path d="M477,200.3c1,0.3,1.9,0.4,2.9,0.4c0,0,0,0,0.1,0c0.4,0,0.8,0.1,1.1,0.1c0.3,0.1,0.6,0.1,1,0.1c1.2,0,2.6-1.3,3.6-2.3
		c-1.1-2-1.1-4.5-3.9-6.5c-1.5-1.1-3.9-0.8-5.6-1.4c-2.2-0.8-3.4-1.9-5.8-2c-1.8-0.1-2.8,0.6-3.9,1.2l-6.4,1.3c0,0.2,0,0.4-0.1,0.6
		l4.3-0.9c0.2,0.1,0.5,0.1,0.7,0.2c1,0.2,1.9,0.5,2.6,0.9l-7.8,1.6c0,0,0,0,0,0c0.1,0.1,0.3,0.2,0.4,0.3c0.1,0.1,0.2,0.1,0.3,0.1
		l7.8-1.6c0.7,0.5,1.4,1,1.9,1.7c0.4,0.5,0.8,1.1,1.1,1.5C473.1,198,474.1,199.4,477,200.3z"/>
	<path d="M505.4,79.7c-1.1,1.1-2.8,1.9-4.3,2c-1.6,0.1-2.8-0.7-4-1.7c-1.8-1.6-2.9-3.6-4.3-5.6c-1.1-1.7-2.7-3.5-4.8-3.2
		c-0.2,0-0.5,0.1-0.7,0.2c-2.3,1.9-4.5,4-6.5,6.2c0.2,0.5,0,1.6,0,1.6c-0.2,0.7-0.7,1.1-1.1,1.3c-0.6,0.4-1.3,0.6-2,0.8
		c-0.7,0.9-1.4,1.8-2,2.8c0.2,0.1,0.3,0.1,0.5,0.2l-0.8,0.2c-0.2,0.2-0.3,0.5-0.5,0.7l2.3-0.5c0.3,0.1,0.6,0.2,0.9,0.3
		c0.8,0.3,1.7,0.5,2.5,0.8l-7,1.4c-0.1,0.2-0.3,0.4-0.4,0.7l8.6-1.7c-0.1,0-0.1-0.1-0.2-0.1c0.7,0.2,1.5,0.9,2,1.3
		c0,0,0.1,0.1,0.1,0.1l-11.6,2.3c-0.1,0.2-0.3,0.4-0.4,0.7l12.4-2.5c0.3,0.3,0.6,0.7,0.8,1.1c0.1,0.2,0.2,0.3,0.4,0.5l-14.7,3
		c-0.1,0.2-0.2,0.4-0.3,0.7l15.4-3.1c0.3,0.5,0.7,0.9,1,1.4l-17.3,3.5c-0.1,0.2-0.2,0.4-0.3,0.7l18-3.6c0.2,0.2,0.3,0.4,0.5,0.7
		c0.3,0.3,0.5,0.6,0.7,0.9l-20.1,4c-0.1,0.1-0.1,0.2-0.2,0.3c0,0,0,0.1,0,0.1c0.6,0,1.3-0.1,1.9-0.2l5.9-1.2
		c1.4-0.4,2.7-0.7,4.1-0.8l8.8-1.8c0.9,0.9,1.4,0.7,3.3,1.5c1,0.4,1.5,0.9,2,1.4l-4.3,0.9c0,0,0.1,0.1,0.1,0.1
		c0.1,0.1,0.1,0.3,0.2,0.4l4.4-0.9c0.2,0.3,0.5,0.7,0.7,1.1l-5,1c-0.1,0.2-0.2,0.4-0.3,0.6l5.6-1.1c0,0,0,0,0,0
		c0.1,0.2,0.3,0.4,0.4,0.6c0.2,0.3,0.4,0.6,0.7,0.9l-14.2,2.9c-0.6,0.3-1.3,0.6-1.9,0.7c-0.9,0.2-1.7,0.3-2.5,0.2l-13.5,2.7
		c-0.1,0.2-0.1,0.4-0.2,0.6l32.7-6.6c0.5,0.6,1.1,1.1,1.9,1.3l-25.3,5.1c0.5,0.1,0.9,0.2,1.4,0.3l25.4-5.1c1.6,0.1,3-0.3,4.4-0.9
		l7.1-1.4c-0.1-0.2-0.4-0.3-0.9-0.4l-4,0.8c0.5-0.2,0.9-0.4,1.4-0.6c0.7-0.3,1.5-0.6,2.3-0.8c4.2-0.9,8.9,2.1,13.4,1.3
		c2.8-0.5,4.8-2.5,7.8-2.6c1.6,0,4.1,0.6,5.5,1.5c0.7,0.4,1.3,1.2,1.9,1.7L480.9,113c0.2,0.2,0.3,0.3,0.5,0.5l58.7-11.8
		c0.4,0.1,0.8,0.1,1.4,0c0.3-0.1,0.5-0.2,0.7-0.4l4.7-1c-0.8-0.1-1.7-0.1-2.5-0.1l-1.7,0.3c0.5-1,0.3-2.5,1-3.5
		c0.8-1.2,2.9-1.8,4.2-2.1c2.7-0.8,10.6-0.4,10.9-4.7c0.2-2.9-3.4-3.6-4.9-4.9c-1.4-1.1-3.1-4-2.3-5.9c0.8-1.8,2.7-1.8,4.1-2.7
		c1.7-1.1,2-2.7,0.2-3.3c-1.5-0.5-3,0-4.1,1.2c-2.1,2.4-1.9,6.6-4.2,8.7c-2.6,2.3-7.8,3-11.4,3.7c-3.5,0.7-18.1,3.8-17.3-5.4
		c0.3-3.5,6.3-3.1,8.7-3.7c1.4-0.4,7-1.9,3.8-4.1c-0.8-0.5-1.9-0.7-3-0.7c-1.7,0-3.6,0.2-4.9,0c-1.9-0.3-3.7-0.9-5.6-0.9
		c-1.8,0-2.3-0.2-3.7-1.3c-1.6-1.2-2.7-1.2-4.7-1.1c-1.7,0.1-3-0.7-4.6-0.8c-2.2-0.2-2.6,1.2-0.7,2.4c1.5,1,4,0.4,4.7,2.3
		C510,76.1,506.9,78.2,505.4,79.7z"/>
	<path d="M527.9,55.6c1.2,4.5,11.7,1.3,13.7,1.1c3.2-0.2,9.4,2.9,12.3,1.5c0.6-0.3,1.4-1.5,2-2.9c-0.1-0.8-0.2-1.6,0-2.3
		c0.2-1.1,0.8-2,1.6-2.7c0.6-0.5,1.9-0.7,2.4-1.3c0.3-0.5,0.4-1.1,0.4-1.8c-5.3-0.1-10.4-0.2-15.2-0.2h0c-1.1,0-2.3,0-3.4,0
		c-0.1,0.2-0.1,0.4-0.2,0.6c-1.2,2.6-3.5,2.3-5.8,2c0.1,0,0.1,0.1,0.2,0.1C531.4,50.5,526.7,51.1,527.9,55.6
		C527.9,55.6,527.9,55.6,527.9,55.6z"/>
	<path d="M571,50.8c1,0,2,0,2.9-0.1l-2.2-1.5c-0.5-0.4-0.9-0.9-1-1.6c-1.1,0-2.1-0.1-3.1-0.1C569.2,49.1,570.4,50.8,571,50.8z"/>
	<path d="M509.8,56.5l-1.7,1.1C508.8,57.4,509.4,57.1,509.8,56.5z"/>
	<path d="M494.4,162.1l9.3-1.9c0.2-0.2,0.4-0.4,0.5-0.7l-11.1,2.2c0.2,0.1,0.4,0.1,0.6,0.2C493.9,162,494.2,162,494.4,162.1z"/>
	<path d="M513.2,153.2l-34.7,7c0.3,0.2,0.7,0.3,1,0.4l32.9-6.6C512.6,153.7,512.9,153.4,513.2,153.2z"/>
	<path d="M507.5,156.7l-18.7,3.8c0.4,0.1,0.8,0.2,1.2,0.4l16.1-3.3C506.6,157.2,507,156.9,507.5,156.7z"/>
	<path d="M473.2,157.2c-0.4-0.1-0.8-0.2-1.2-0.3l-4.3,0.9c0.3,0.2,0.6,0.3,1,0.4L473.2,157.2z"/>
	<path d="M476.6,156.5l38.4-7.7c0,0,0,0,0,0c0-0.2,0-0.4,0.1-0.6l-38.4,7.8C476.7,156.1,476.6,156.3,476.6,156.5z"/>
	<path d="M514.6,150.6l-39.6,8c0.3,0.1,0.6,0.2,1,0.4l38.5-7.8C514.4,151,514.5,150.8,514.6,150.6z"/>
	<path d="M472.7,152c0.2,0.2,0.4,0.3,0.6,0.5l41.2-8.3c-0.1-0.2-0.2-0.4-0.3-0.5L472.7,152z"/>
	<path d="M475,153.9c0.2,0.2,0.4,0.3,0.5,0.5l39.6-8c0-0.2,0-0.4-0.1-0.6L475,153.9z"/>
	<path d="M467.7,148.4c0.2,0.1,0.4,0.3,0.7,0.5l29.9-6c-0.3-0.1-0.6-0.3-0.8-0.4L467.7,148.4z"/>
	<path d="M510.9,142l-40.6,8.2c0.2,0.2,0.4,0.3,0.6,0.5l41.5-8.4c-0.3-0.1-0.5-0.2-0.9-0.2C511.4,142,511.1,142,510.9,142z"/>
	<path d="M483,140.7l-21.2,4.3c0.2,0.2,0.4,0.3,0.5,0.5l21.9-4.4C483.9,141,483.5,140.9,483,140.7
		C483.1,140.8,483.1,140.7,483,140.7z"/>
	<path d="M493.9,140.9l-29.8,6c0.3,0.2,0.6,0.3,0.8,0.4l30.5-6.2c-0.3-0.1-0.7-0.2-1-0.3C494.2,140.9,494,140.9,493.9,140.9z"/>
	<path d="M469.9,139.3c-0.3-0.1-0.7-0.3-1-0.4l-9.4,1.9c0,0.2,0.1,0.4,0.1,0.6L469.9,139.3z"/>
	<path d="M460,143.1c0.2,0.2,0.3,0.3,0.5,0.5l13.7-2.8c-0.4-0.1-0.8-0.2-1.2-0.4L460,143.1z"/>
	<path d="M458.9,137.3l3.3-0.7c-0.4-0.1-0.8-0.2-1.2-0.4l-2.2,0.5C458.8,137,458.8,137.1,458.9,137.3z"/>
	<path d="M459.2,139.1c0,0.2,0.1,0.4,0.1,0.6l7.3-1.5c-0.4-0.1-0.7-0.3-1.1-0.4L459.2,139.1z"/>
	<path d="M581.7,222.7l-12.8,2.6c0.2,0.2,0.3,0.3,0.5,0.5l11.4-2.3C581,223.2,581.3,222.9,581.7,222.7z"/>
	<path d="M601.3,219.3c0-0.2,0.1-0.4,0.1-0.6l-2.1,0.4c0.1,0.2,0.1,0.4,0.2,0.5L601.3,219.3z"/>
	<path d="M572.5,227.3c0.2,0,0.4,0,0.7,0l5.6-1.1c0.2-0.2,0.3-0.4,0.5-0.7l-7.9,1.6c0.3,0.1,0.6,0.2,1,0.2
		C572.4,227.3,572.4,227.3,572.5,227.3z"/>
	<path d="M561.6,224.5l-1,0.2c0.1,0,0.2,0.1,0.3,0.1C561.1,224.7,561.3,224.6,561.6,224.5z"/>
	<path d="M606.4,215.6c0.5-0.1,1.2,0,1.8,0l1.5-0.3c0.4-0.3,0.6-0.6,0.7-0.7l-43.7,8.8c0.3,0.1,0.5,0.2,0.7,0.4c0,0,0,0,0.1,0
		l22.7-4.6c0.3-0.2,0.7-0.3,1.1-0.4c0.3,0,0.5,0,0.8,0l3.4-0.7c0.3-0.3,0.6-0.5,1-0.5c0.1,0,0.4,0.1,0.8,0.2l7.8-1.6
		C605.5,216,605.9,215.8,606.4,215.6z"/>
	<path d="M553.2,219.8l25.1-5.1c-0.4-0.1-0.8-0.2-1.2-0.4l-22.4,4.5C554.3,219.3,553.7,219.6,553.2,219.8z"/>
	<path d="M512.7,228l36.8-7.4c-0.7,0-1.4-0.1-2.1-0.2l-33.8,6.8C513.3,227.5,513,227.8,512.7,228z"/>
	<path d="M581.3,215.9l-71.6,14.4c-0.4,0.3-0.8,0.6-1.2,0.8l73.8-14.9C582,216.2,581.7,216.1,581.3,215.9z"/>
	<path d="M521.7,221c-0.5,0.3-0.9,0.6-1.4,0.9l17.8-3.6c-0.5-0.1-1.1-0.2-1.6-0.3L521.7,221z"/>
	<path d="M557.5,216.1c-0.2,0.2-0.4,0.5-0.6,0.7l16.1-3.3c-0.6-0.1-1.2-0.2-1.8-0.2L557.5,216.1z"/>
	<path d="M516.2,225l27.2-5.5c-0.4-0.1-0.8-0.2-1.2-0.3l-25,5C516.8,224.5,516.5,224.8,516.2,225z"/>
	<path d="M468.5,197.2l2.2-0.4c0.1-0.2,0.2-0.4,0.1-0.6l-4,0.8c0.2,0,0.4,0.1,0.6,0.1C467.7,197,468.1,197.1,468.5,197.2z"/>
	<path d="M494.7,187.2l9.9-2c1.2-0.7,2.7-1,4.1-0.8l9.4-1.9c0.2-0.2,0.3-0.4,0.5-0.7l-26.7,5.4c0.2,0,0.4,0,0.6,0
		C493.3,187.2,494,187.2,494.7,187.2z"/>
	<path d="M514.9,184.9l-3.1,0.6c0.3,0.1,0.6,0.2,0.9,0.2C513.5,185.7,514.2,185.3,514.9,184.9z"/>
	<path d="M463.2,195.3c0.3,0.1,0.5,0.3,0.8,0.4l6.2-1.3c-0.1-0.2-0.2-0.4-0.2-0.5L463.2,195.3z"/>
	<path d="M460.4,189.5l60-12.1c-0.2-0.2-0.4-0.3-0.8-0.4l-59.2,11.9C460.4,189.1,460.4,189.3,460.4,189.5z"/>
	<path d="M520.2,179.2l-45.1,9.1c1.2-0.1,2.4-0.1,3.4-0.3c1.2-0.2,2.5-0.4,3.8-0.5l37.5-7.6C519.9,179.6,520.1,179.4,520.2,179.2z"
		/>
	<path d="M490.3,178.6c-0.1-0.1-0.2-0.2-0.3-0.2l-4.2,0.8c0.1,0.2,0.3,0.3,0.5,0.5l4.3-0.9C490.4,178.8,490.4,178.7,490.3,178.6z"/>
	<path d="M503.5,175.9c-0.3,0.2-0.6,0.4-0.9,0.6l7.7-1.5c-0.1-0.2-0.4-0.3-0.7-0.4l-5.5,1.1C503.8,175.7,503.6,175.8,503.5,175.9z"
		/>
	<path d="M460.8,184.9l15.1-3c-0.8,0-1.5-0.1-2.3-0.1l-12.7,2.6C460.8,184.5,460.8,184.7,460.8,184.9z"/>
	<path d="M492,180.3l-4.6,0.9c0,0.3-0.3,0.5-0.6,0.7l5.8-1.2C492.5,180.7,492.2,180.5,492,180.3z"/>
	<path d="M510.9,176.6l-12.8,2.6c-0.4,0.2-0.9,0.6-1.4,0.9l14.6-3C511.1,176.9,511,176.8,510.9,176.6z"/>
	<path d="M460.6,187.3l22.3-4.5c-0.5-0.1-1-0.2-1.4-0.3l-20.8,4.2C460.6,186.9,460.6,187.1,460.6,187.3z"/>
	<path d="M461.1,180.2L461.1,180.2C461.1,180.2,461.1,180.2,461.1,180.2C461.1,180.2,461.1,180.2,461.1,180.2z"/>
	<path d="M460.9,182.6l6.9-1.4c-0.6-0.1-1.2-0.1-1.8-0.2l-5.1,1C461,182.2,461,182.4,460.9,182.6z"/>
	<path d="M618.6,101.3l-9,1.8c0.3,0.2,0.5,0.3,0.8,0.4l7.4-1.5C618.1,101.8,618.3,101.6,618.6,101.3z"/>
	<path d="M587.9,103.6c0.2-0.2,0.4-0.5,0.6-0.7l-9.5,1.9c0.6,0.1,1.1,0.2,1.7,0.2L587.9,103.6z"/>
	<path d="M591.8,97.6l-50.8,10.3c0.6,0.1,1.1,0.2,1.7,0.2l48.8-9.8C591.5,98,591.6,97.8,591.8,97.6z"/>
	<path d="M590.3,100.2l-16.7,3.4c0.4,0.1,0.9,0.2,1.3,0.3l15-3C590,100.7,590.1,100.4,590.3,100.2z"/>
	<path d="M567.1,105.5c0.3-0.3,0.5-0.5,0.8-0.8l-17.8,3.6c1.3-0.1,2.6-0.2,3.8-0.2L567.1,105.5z"/>
	<path d="M609,89.4l-45.4,9.2c0,0-0.1,0.1-0.1,0.1c-0.6,0.4-1.4,0.7-2.1,0.9l48-9.7C609.3,89.8,609.1,89.6,609,89.4z"/>
	<path d="M526.4,106.1c1-0.1,2.1-0.1,3.2,0l25.8-5.2c-0.8-0.1-1.7-0.1-2.5-0.1L526.4,106.1z"/>
	<path d="M516.9,108l-32.5,6.6c0.3,0,0.6,0.1,1,0.1c0.4,0,0.7,0,1.1,0.1l26.9-5.4C514.5,108.9,515.7,108.4,516.9,108z"/>
	<path d="M615.4,88.7l2.9-0.6c-0.1-0.2-0.2-0.4-0.3-0.5l-2.3,0.5C615.5,88.3,615.5,88.5,615.4,88.7z"/>
	<path d="M611,91.4l-12,2.4c0.3,0.1,0.5,0.3,0.8,0.4l12.2-2.5C611.6,91.7,611.3,91.6,611,91.4z"/>
	<path d="M593.7,94.9l-58.8,11.9c0.5,0.1,1,0.2,1.5,0.3l56.6-11.4C593.2,95.3,593.5,95.1,593.7,94.9z"/>
	<path d="M504,113l-6.6,1.3c1.9-0.2,3.9-0.5,5.7-1C503.4,113.2,503.7,113.1,504,113z"/>
	<path d="M613.4,91.5l6-1.2c-0.1-0.2-0.2-0.4-0.3-0.5l-4.9,1C614,91,613.7,91.3,613.4,91.5z"/>
	<path d="M606.7,85.8c-0.1-0.2-0.3-0.4-0.4-0.5l-31,6.2c0,0.2,0,0.4,0,0.6L606.7,85.8z"/>
	<path d="M528.2,101.7c-1.5,0.2-3,0.3-4.5,0.3l-44.5,9c0.1,0.2,0.3,0.3,0.4,0.5L528.2,101.7z"/>
	<path d="M607.7,87.4l-33.4,6.7c-0.1,0.1-0.2,0.1-0.3,0.2c-0.6,0.3-1.2,0.3-1.8,0.2l-6.3,1.3c-0.2,0.2-0.4,0.5-0.5,0.7l42.6-8.6
		C608,87.7,607.9,87.5,607.7,87.4z"/>
	<path d="M616.3,85.6c-0.1,0.2-0.1,0.4-0.2,0.6l0.8-0.2c-0.1-0.2-0.2-0.4-0.3-0.5L616.3,85.6z"/>
	<path d="M463.9,109.5c-0.1,0.2-0.1,0.4-0.2,0.6l2.3-0.5c0.6-0.3,1.2-0.7,1.8-1L463.9,109.5z"/>
	<path d="M598.8,82.9c-0.4-0.1-0.8-0.2-1.3-0.3l-23,4.6c0,0.2,0,0.4,0.1,0.6L598.8,82.9z"/>
	<path d="M575,89.5c0,0.2,0.1,0.4,0.1,0.6l29.7-6c-0.3-0.2-0.6-0.3-0.8-0.4L575,89.5z"/>
	<path d="M477.5,109.1c0.2,0.1,0.4,0.3,0.5,0.5l39.3-7.9c-0.7-0.1-1.4-0.1-2.1-0.2L477.5,109.1z"/>
	<path d="M465.3,105.2l9.8-2c-0.2-0.1-0.4-0.3-0.6-0.5l-9,1.8C465.4,104.7,465.3,104.9,465.3,105.2z"/>
	<path d="M593.2,81.1L575,84.8c-0.1,0.2-0.2,0.4-0.3,0.6l19.6-4C593.9,81.4,593.6,81.2,593.2,81.1z"/>
	<path d="M492.1,95.5c-0.3-0.1-0.7-0.3-1-0.4l-7.3,1.5c0.2,0.1,0.5,0.2,0.8,0.4c0,0,0.1,0,0.1,0L492.1,95.5z"/>
	<path d="M467.2,100c-0.1,0.2-0.2,0.4-0.3,0.6l5-1c-0.3-0.2-0.6-0.3-1-0.4L467.2,100z"/>
	<path d="M466,103.2l7.6-1.5c-0.1-0.2-0.2-0.3-0.4-0.5l-7,1.4C466.1,102.7,466,103,466,103.2z"/>
	<path d="M631.7,198.8l-0.8,0.2c0.3,0.1,0.6,0.2,0.9,0.3C631.8,199.1,631.8,198.9,631.7,198.8z"/>
	<path d="M624.9,195.5c0.2,0.2,0.4,0.3,0.6,0.5l5.7-1.1c0-0.2,0-0.4-0.1-0.6L624.9,195.5z"/>
	<path d="M627.6,197.3c0.3,0.2,0.5,0.3,0.8,0.4l3.2-0.6c0-0.2-0.1-0.4-0.1-0.6L627.6,197.3z"/>
	<path d="M621.4,191.5c0.1,0.2,0.2,0.3,0.4,0.5l8.9-1.8c0-0.2,0-0.4-0.1-0.6L621.4,191.5z"/>
	<path d="M622.9,193.6c0.1,0.2,0.3,0.3,0.4,0.5l7.6-1.5c0-0.2,0-0.4-0.1-0.6L622.9,193.6z"/>
	<path d="M618.3,187.6c0.2,0.2,0.3,0.3,0.5,0.5l11.5-2.3c0-0.2,0-0.4,0-0.6L618.3,187.6z"/>
	<path d="M620,189.6c0.1,0.2,0.2,0.3,0.4,0.5l10.1-2c0-0.2,0-0.4-0.1-0.6L620,189.6z"/>
	<path d="M629.9,180.6l-31.5,6.4c0.3,0.1,0.7,0.3,1,0.4l30.5-6.2C629.9,181,629.9,180.8,629.9,180.6z"/>
	<path d="M630.1,183.5c0-0.2,0-0.4,0-0.6l-14.3,2.9c0.3,0.1,0.5,0.3,0.8,0.4L630.1,183.5z"/>
	<path d="M628.3,177.3c-0.1-0.2-0.1-0.4-0.1-0.6l-35.1,7.1c0.2,0.2,0.4,0.3,0.6,0.5L628.3,177.3z"/>
	<path d="M629.7,179.4c-0.2-0.2-0.3-0.3-0.5-0.5l-33.4,6.7c0.3,0.2,0.5,0.3,0.8,0.4L629.7,179.4z"/>
	<path d="M627.5,168.3c-2,0.1-4.3,0.7-6.6,1.3L627.5,168.3z"/>
	<path d="M629.8,157.9l-1.2,0.2c0.4,0,0.8,0,1.2,0C629.8,158.1,629.8,158,629.8,157.9z"/>
	<path d="M611.7,161.6l-43.8,8.8c0.5,0.1,1,0.2,1.5,0.3l42-8.5C611.5,162,611.6,161.8,611.7,161.6z"/>
	<path d="M552.9,173.5l-9,1.8c1.4,0.1,3.4-0.4,4.5-0.6C550,174.4,551.5,173.9,552.9,173.5z"/>
	<path d="M611,164.7c0-0.2,0-0.4,0-0.6l-38.2,7.7c0.3,0.1,0.7,0.2,1,0.4L611,164.7z"/>
	<path d="M534.4,173.1l6.3-1.3c-0.3-0.1-0.6-0.3-0.9-0.4l-5.9,1.2c0,0,0,0,0,0C533.9,172.9,534.1,173,534.4,173.1z"/>
	<path d="M583.6,163.2c-0.4,0-0.9-0.1-1.3-0.3l-29.7,6c-0.1,0.2-0.2,0.4-0.4,0.7L583.6,163.2z"/>
	<path d="M547.8,165.3c0.4,0.1,0.8,0.2,1.2,0.4l29-5.9c-0.2-0.2-0.4-0.3-0.7-0.5L547.8,165.3z"/>
	<path d="M551.6,166.9c0.2,0.2,0.4,0.3,0.6,0.5l28.2-5.7c-0.2-0.2-0.4-0.3-0.6-0.5L551.6,166.9z"/>
	<path d="M528.6,165.1l41.1-8.3c-0.4-0.1-0.7-0.2-1.1-0.4l-40.3,8.1C528.4,164.8,528.5,164.9,528.6,165.1z"/>
	<path d="M541.1,164.4c0.7,0,1.5,0,2.4,0.1l30.8-6.2c-0.4-0.1-0.8-0.2-1.2-0.4L541.1,164.4z"/>
	<path d="M538.9,164.8l-8.1,1.6c0.5,0.1,1,0.2,1.5,0.3l4.9-1C537.7,165.4,538.3,165.1,538.9,164.8z"/>
	<path d="M529.8,159.6l3.6-0.7C532,158.7,530.7,158.7,529.8,159.6z"/>
	<path d="M562.1,154.8l-8.5,1.7c0.1,0.2,0.3,0.4,0.3,0.5l9.6-1.9C563,155.1,562.6,155,562.1,154.8z"/>
	<path d="M528.4,162c0,0.1,0,0.1-0.1,0.2l12.3-2.5c-0.7-0.1-1.4-0.1-2-0.2l-10,2C528.5,161.7,528.5,161.9,528.4,162z"/>
	<path d="M448.6,324l0,0.8c0.3-0.3,0.5-0.7,0.7-1C449,323.9,448.8,323.9,448.6,324z"/>
	<path d="M634.3,330.4c-0.5-0.2-2.1-0.9-3.9-1.4c-1.6-1.5-2.8-3.3-5-4c-1.8-0.6-3.8-0.2-5.7,0.2c-4.2,1-7.8,3.3-11.7,5
		c-1.4,0.6-3.2,1.5-4.8,1.4c-6.5-0.3-11.7-7.5-16.9-3.7c-1.7,1.3-0.7,5-3.2,5.9c-3.3,1.1-7.2-1.9-10.6-4.1c-3.2-2-8-6.6-12.7-10.2
		l9.8-2c-1.1,0-2.2,0-3.3,0.1l-7.2,1.5c-0.6-0.5-1.3-0.9-1.9-1.3l2.2-0.4c-0.2-0.1-0.4-0.3-0.6-0.5l-2.3,0.5
		c-0.8-0.5-1.5-0.9-2.3-1.3l11-2.2c0.5-0.3,0.9-0.6,1.4-0.9l-13.3,2.7c-1.3-0.6-2.5-0.9-3.6-0.8c-6.2,0.5-4,3.3,0,6.1l-28,5.6
		c0.1,0.2,0.3,0.3,0.4,0.5l28.2-5.7c0.7,0.5,1.4,0.9,2.1,1.3l-29,5.8c0.1,0.2,0.3,0.3,0.4,0.5l29.3-5.9c0.7,0.4,1.5,0.9,2.2,1.3
		l-30.4,6.1c0.1,0.2,0.2,0.3,0.3,0.5l30.8-6.2c0.8,0.5,1.6,0.9,2.3,1.3l-32.1,6.5c0.1,0.1,0.2,0.3,0.3,0.4c-1.4-0.5-3-0.3-4.4-0.8
		c-1.1-0.4-2-0.9-2.8-1.3c-0.9-0.4-1.8-0.7-3-0.7c-1.1,0.4-2.3,0.7-3.5,1c-0.6,0.2-1.2,0.3-1.8,0.4c-2.4,0.8-5,0.5-6.8-1.4
		c-3.8-3.4-7.8-5.7-12.1-7.5c-0.5-0.2-0.9-0.5-1.4-0.7c-13.6-6.2-21.4,2.8-33.2,2.1c-0.9,0.9-2.1,2-3.3,1.8c-0.3,0-0.5-0.1-0.7-0.2
		c-0.2-0.1-0.5-0.2-0.7-0.2c-0.6,0-1.3,0.3-1.9,0.6l-0.2,0.1c-0.8,0.4-1.8,0.9-2.7,1l-0.1,2.3c0.4,0.5,0.9,1,1.4,1.6
		c7.1,7.3,12.6-0.9,18.4-0.8c7.5,0.2,14.3,4.7,21.8,3.4c0.7-0.1,1.4-0.2,2-0.3c5-0.7,9.9,0.4,14.3,3.3c0.5,0.3,1,0.6,1.5,0.8
		c1.5,0.7,3.5,1.8,5.2,2c1.7,0.2,3.4-0.8,5.1-0.6c6,0.8-3.8,8.2,4.4,9.7c5.2,1,8.7-1.5,13.6-1.3c1.9,0.1,4.2,0.6,6.1,0.4
		c1.5-0.1,1.4-0.7,2.3-1.7c1.5-1.5,4.7-1.2,6.6-1.2c2.6,0,5.1-0.5,7.6-1.5c0.6-0.2,3.7-2.8,5.6-4.4c0.2,0.1,0.4,0.1,0.6,0.2l6.7-1.4
		c-0.3-0.1-0.8-0.2-1.4-0.3l-0.2,0c1.1-0.5,1.8-1.6,1.6-3.3c1.1-0.3,2.1-0.5,3.2-0.3c3.7,1,5.4,3.5,6.8,5.7
		c-0.3-0.1-0.5-0.1-0.7-0.2c0,0,0,0,0,0l-8.3,1.7c0.2,0.1,0.4,0.1,0.7,0.2c0.2,0,0.3,0.1,0.5,0.2l8-1.6c0.3,0.4,0.6,0.8,0.9,1.2
		c0.2-0.1,0.4-0.2,0.7-0.3c1.1-0.5,2.2-1,3.4-1.4c2.2-0.8,4.3-2,6.4-3.1c2.8-1.6,5.7-3.2,8.9-3.9c2.9-0.7,10.9-0.3,14.1,2
		c0.6,0.4,1,0.8,1.2,1.3c0.4-0.2,0.8-0.4,1.3-0.5c1.3-0.5,2.5-0.6,3.7-1.2c1.5-0.8,3.1-1.5,4.8-1.9c1.9,0.2,4.5-0.4,5.8-0.1
		c2.5,0.5,3,3,4.1,5c0.4,0.6,0.6,1.3,0.8,2l-1.9,0.4c-0.5,0.3-1,0.5-1.5,0.9l3.7-0.7c0.3,0.6,0.6,1.1,1.1,1.5l-7.1,1.4
		c-0.2,0.2-0.5,0.5-0.7,0.7l8.6-1.7c0.1,0,0.2,0.1,0.3,0.1c0.7,0.2,1,0.3,1.2,0.6c0.1,0.2,0.2,0.4,0.2,0.7l-12.8,2.6
		c-1.4,0.9-2.7,1-4,0.8l-20.3,4.1c0.1,0.2,0.2,0.4,0.3,0.5l37-7.5c0.1,0.7,0.4,1.2,0.7,1.6l-36.5,7.4c0.2,0.2,0.3,0.3,0.5,0.5
		l36.4-7.4l0-0.6l0-1.8l0-0.6l0-1.7l0-0.6l0-10c-0.2,0-0.4,0.1-0.6,0.1C639.9,331,636.9,331.3,634.3,330.4z"/>
	<path d="M643.1,298.7c-0.2,0.1-0.5,0.2-0.9,0.6c-1.9,1.7-0.4,1.7,0.9,2.4L643.1,298.7z"/>
	<path d="M637.1,321.9c-1.3,0-5.3-1.3-4.3,1.4c0.5,1.2,3.8,3,5.1,3c1.7,0.1,3.7-0.7,5.4-1.3l0-4.9c-0.1,0-0.2,0.1-0.3,0.1
		C641.1,320.9,639,321.8,637.1,321.9z"/>
	<path d="M452.7,271.9c-1.7-1.2-3.3-2.6-4-3.7c0-0.1-0.1-0.1-0.1-0.2c0,0,0,0,0,0l0,4.8C449.8,272.4,451.3,272.2,452.7,271.9z"/>
	<path d="M448.7,283.6C448.6,283.5,448.6,283.5,448.7,283.6l-0.1,6c0.3,0.1,0.6,0.2,0.9,0.3C455,291.4,451.3,285.2,448.7,283.6z"/>
	<path d="M577.2,371.1c-1.5-1.9-3.2-2.8-5.2-3c1.7-0.9,2.6-2,0.8-3.4c-0.4,0.3-0.9,0.6-1.3,0.9c-1.9,1.2-4,1.9-6.1,2.6
		c-1.6,0.6-3,1.6-4.4,2.5c-0.9,0.6-2,1-2.9,1.6c-0.6,0.4-1.1,0.7-1.7,0.9c-0.4,0.1-0.7,0.3-1,0.6c-0.4,0.3-0.7,0.5-1.2,0.6
		c-0.9,0.4-1.9,0.7-2.9,0.6c-6.5-0.3-11.5-7.5-16.8-3.7c-1.7,1.3-0.7,5-3.2,5.8c-3.2,1.1-7.1-1.9-10.5-4.1
		c-5.7-3.6-16.4-15.4-22.3-14.9c-2.3,0.2-3.4,0.7-3.7,1.4l-28.4,5.7c0.5,0.1,0.9,0.2,1.4,0.3l27-5.4c0.1,0.5,0.4,1,0.9,1.6
		l-23.1,4.7c0.6,0.1,1.1,0.2,1.7,0.3l21.9-4.4c0.4,0.4,0.9,0.8,1.5,1.3l-19,3.8c0.5,0.1,1,0.2,1.5,0.3l18.1-3.7
		c0.6,0.5,1.3,0.9,2,1.4l-16.2,3.3c0,0,0.1,0,0.1,0c0.4,0.1,0.7,0.2,1,0.3l15.8-3.2c3.7,2.4,7.9,4.5,8.8,5.2c2.7,2.1,2.6,5.6,5,7
		c3,1.8,5.8-1.2,8.6-0.4c5.2,1.4,6.4,6.1,8.7,8.2c1.7,0.1,3.3,0.2,5,0.3c0,0,0,0,0,0c2.2-1,2.7-4.6,5.1-5.1c3.7-0.8,9,2.2,13.1,2
		c4.5-0.3,7.8-2.6,11.5-4.2c0.7-0.3,1.5-0.5,2.3-0.6c1.9-0.4,3.9-0.8,5.7-1.5c1-0.4,1.9-0.9,2.8-1.5c0,0-0.1,0-0.1-0.1
		C578.3,374,578.5,372.8,577.2,371.1z"/>
	<path d="M508.4,380.4c-1.8-1.2-4.8-1.3-6.8-1.9c-1.4-0.4-4.2-4-6-5c-3.1-1.7-6.5-2.7-9.9-3.6c-7-1.7-13.4-4.1-20.7-2.5
		c-0.7,0.2-1.4,0.4-2.1,0.6c11.2,4.6,28,10.5,46.7,14.3C509.3,381.7,509.1,380.9,508.4,380.4z"/>
	<path d="M514.4,382.3c-0.5,0.2-0.9,0.5-1.2,0.8c1.6,0.3,3.3,0.6,5,0.8C516.9,383.1,516.3,381.7,514.4,382.3z"/>
	<path d="M628.5,319.6l14.7-3l0-0.6l-15.4,3.1C628,319.3,628.3,319.5,628.5,319.6z"/>
	<path d="M637.4,320.2l5.9-1.2l0-0.6l-7,1.4C636.6,319.9,637,320,637.4,320.2z"/>
	<path d="M643,311.5l0-3.9c-0.7,0.1-1.5,0.1-2.1,0c-0.4-0.1-0.9-0.1-1.4-0.1c0,0,0,0,0,0l0,0c-0.2,0-0.3,0-0.5,0.1l-7,1.4
		c0.1,0,0.3,0.1,0.4,0.1c0.2,0.1,0.5,0.1,0.7,0.2l5.2-1.1c0,0.1,0,0.2,0,0.4c0,0.6,0.3,1,0.8,1.2l-3.4,0.7c0.2,0.1,0.4,0.3,0.6,0.5
		l3.9-0.8c0.3,0.1,0.6,0.1,0.8,0.2c0.6,0.2,1.1,0.6,1.6,1l-5.7,1.1c0,0.2-0.1,0.5-0.3,0.6l6.3-1.3L643,311.5z"/>
	<path d="M643,313.9l-15.7,3.2c-0.1,0.2-0.2,0.4-0.2,0.6l15.9-3.2L643,313.9z"/>
	<path d="M619.4,311.6l-11.1,2.2c0.2,0.2,0.5,0.3,0.7,0.4l10.2-2.1C619.3,312,619.3,311.8,619.4,311.6z"/>
	<path d="M618.2,314.8c0.3-0.2,0.5-0.5,0.6-0.7l-7.3,1.5c0.4,0.1,0.7,0.3,1.1,0.4L618.2,314.8z"/>
	<path d="M637.1,304l4.6-0.9c-0.4-0.1-0.8-0.2-1.2-0.3l-4.5,0.9C636.3,303.7,636.7,303.8,637.1,304C637.1,304,637.1,304,637.1,304z"
		/>
	<path d="M604.9,310.5l1.9-0.4c0.5,0.3,1.1,0.5,1.7,0.6c2.3,0.3,5-0.1,6.8-1.8c0.2-0.2,0.3-0.3,0.5-0.5l17.1-3.5
		c-0.2-0.2-0.3-0.3-0.3-0.5l-16.4,3.3c0.3-0.5,0.5-1.1,0.8-1.7c0-0.1,0.1-0.1,0.1-0.2l20.3-4.1c-0.4-0.1-0.7-0.3-1.1-0.4l-18.8,3.8
		c0.3-0.6,0.4-1.2,0.2-1.8l14.6-2.9c-0.1-0.2-0.1-0.4-0.2-0.6l-14.6,3c-0.1-0.1-0.2-0.3-0.3-0.4c-0.5-0.6-1-0.7-1.6-0.8l16.7-3.4
		c0.2-0.3,0.5-0.5,0.8-0.7l-20.1,4c-0.8-0.2-1.6-0.4-2.5-0.2c-1.2,0.2-2.1,0.6-3.3,0c-0.2-0.1-0.3-0.2-0.4-0.3l28.9-5.8
		c0.1-0.2,0.2-0.4,0.3-0.6l-29.9,6c-0.5-0.4-1-0.9-1.5-1.4l31.1-6.3c-0.1-0.2-0.2-0.3-0.3-0.5l-31.2,6.3c-0.4-0.5-0.9-1-1.3-1.5
		l31.1-6.3c-0.1-0.1-0.1-0.1-0.2-0.2c-0.1-0.1-0.2-0.2-0.4-0.3l-30.9,6.2c0,0,0,0,0,0c-0.5-0.7-1-1.3-1.3-2l28.8-5.8
		c-0.3-0.1-0.6-0.3-0.9-0.4l-28.2,5.7c-0.3-0.5-0.5-1.1-0.7-1.6l27-5.4c-0.2-0.2-0.2-0.4-0.2-0.5l-27,5.4c-0.2-0.4-0.3-0.8-0.5-1.2
		c-0.1-0.1-0.2-0.3-0.2-0.4l36.5-7.4c-1,0-2.1,0-3.1,0l-33.9,6.8c-0.7-0.6-1.6-0.8-2.3-1.3l31.1-6.3c-0.1-0.1-0.3-0.2-0.3-0.3
		c-0.1-0.1-0.1-0.1-0.2-0.2l-31.1,6.3c-0.1-0.1-0.2-0.3-0.3-0.5c-0.1-0.3-0.3-0.6-0.4-0.9l16-3.2c-0.4-0.1-0.7-0.2-1-0.4l-15.2,3.1
		c-0.1-0.5-0.2-1-0.1-1.5c0-0.1,0-0.1,0.1-0.2l14-2.8c-0.1-0.2-0.1-0.4-0.1-0.6l-13.7,2.8c0.3-0.6,0.8-1.2,0.9-1.9l12-2.4
		c-0.1-0.2-0.1-0.4,0-0.6l-11.9,2.4c0-0.5,0-1.2-0.1-1.8l13-2.6c0-0.1,0-0.1-0.1-0.2c-0.1-0.1-0.1-0.2-0.2-0.3l-12.7,2.6
		c0-0.4,0-0.7,0-1c0-0.2,0-0.4-0.1-0.6l8.7-1.7c-0.8,0-1.6-0.1-2.3-0.1l-6.5,1.3c-0.2-0.7-0.7-1.2-1.2-1.5l0.9-0.2
		c-0.4,0-0.7,0-1.1,0c-0.7-0.4-1.5-0.7-2.3-0.9c-2.4-0.7-5-0.9-7.4-1.7c-1.7-0.5-2.3-1.2-2.9-2.9c-0.5-1.2-1.1-2.5-1.9-3.4
		c-0.6-0.7-1.2-1.1-2.1-1.4c-1.1-0.3-1.7-0.7-2.5-1.6c-1.6-1.7-2.8-3.7-4.6-5.2c-2.3-1.9-5.2-2.5-8-3.3c-3.3-0.9-6.7-2.2-10.1-1.3
		c-3.5,0.9-5.1,3.9-9.2,3c-1.4-0.3-2.1-1.4-3.9-1.5c-1.7-0.1-3.2,0.8-4.8,0.8c-1.5,0-2.8-0.8-4.3-0.7c-1.6,0.1-2.2,0.5-2.1,1.2
		c-0.1,0-0.3-0.1-0.4-0.1l-20.8,4.2c0.4,0.1,0.7,0.2,1,0.4l20.3-4.1c0.2,0.4,0.7,0.9,1.2,1.5l-19.2,3.9c0.3,0.1,0.6,0.3,0.8,0.4
		l18.9-3.8c0,0,0.1,0.1,0.1,0.1c0.5,0.5,1.1,0.9,1.7,1.3l-19.3,3.9c0.1,0.2,0.1,0.4,0.1,0.6l19.9-4c1,0.5,2,0.9,3.1,1.1l-26.3,5.3
		c0.1,0.2,0.2,0.4,0.3,0.5l27.5-5.6c0.2,0,0.3,0,0.5,0.1c3-0.4,6.1-0.8,9.1-1.5c1.4-0.3,3.1-0.3,4.9,0.1l-41.1,8.3
		c0.1,0.2,0.3,0.3,0.4,0.5l42-8.5c1.1,0.3,2.1,0.7,3.1,1.1l-37.7,7.6c0.6,0.1,1.1,0.2,1.6,0.3l36.9-7.4c0.7,0.4,1.4,0.8,2,1.2
		c0,0,0.1,0.1,0.1,0.1l-35.1,7.1c0.3,0.1,0.7,0.3,1,0.4l34.7-7c0.2,0.2,0.5,0.5,0.7,0.7c0.2,0.3,0.5,0.5,0.7,0.8l-5.2,1
		c0,0-0.1,0-0.1-0.1c-0.1-0.1-0.3-0.1-0.4-0.2c0.1,0.1,0.2,0.2,0.4,0.3l-28.3,5.7c0.2,0.2,0.3,0.3,0.4,0.5l8.8-1.8c0,0,0,0,0,0
		c0.5,0.6,1,0.9,1.6,0.9l-29.3,5.9c-7.7,0.7-22.9,2.8-16.2,9.2c3.1,2.9,9.2,3.1,12.5,3.4c5,0.4,10.6,1.9,15.1,1
		c1.1-0.2,2.1-0.5,3-0.8c0.9-0.3,1.8-0.6,2.7-0.9c3.8-1.7,7.9-1.1,11.9-0.7c1.4,0.1,2.7,0.2,4,0.3c4,0.3,8.1,0.9,12.2,2
		c7,2,15.1,6.1,21.5,5c1.4-0.2,2.3-1.1,3.1-2.1l8.5-1.7c0.1,0.1,0.2,0.2,0.2,0.3c0.2,0.4,0.4,0.8,0.5,1.2l-8.4,1.7
		c0.2,0.2,0.4,0.3,0.5,0.5l8.1-1.6c0.1,0.6,0.2,1.1,0.3,1.7l-7,1.4c0.1,0.2,0.3,0.3,0.4,0.5l6.7-1.4c0.2,0.7,0.4,1.5,0.9,2.1
		l-6.3,1.3c0.1,0.2,0.2,0.4,0.2,0.5l6.4-1.3c0.5,0.7,0.7,0.9,0.9,1.6l-6.9,1.4c0,0.2,0.1,0.4,0.1,0.6l7-1.4c0,0,0,0.1,0,0.1
		c0.1,0.6-0.1,1.1-0.2,1.6l-6.7,1.3c0,0.2,0,0.4,0.1,0.6l6.7-1.3c0,0.1,0.1,0.2,0.2,0.3c0.4,0.6,1.3,0.8,1.9,0.7
		c1.4-0.1,2.6-0.9,4-0.5l-12.2,2.5c0.1,0.2,0.2,0.4,0.4,0.5l7.2-1.4c0-0.1,0-0.1,0.2,0l5.4-1.1c0.9,0.4,1.7,0.7,2.6,1.1l-6.2,1.2
		c0.2,0.1,0.4,0.3,0.7,0.5l6.5-1.3c0.8,0.3,1.5,0.8,2.2,1.3l-6,1.2c1.1,0.1,2.4-0.1,3.7-0.2l2.9-0.6c0.6,0.5,1.2,0.9,1.8,1.3
		l-1.4,0.3C604.7,310.1,604.8,310.3,604.9,310.5z"/>
	<path d="M636,306l-29.9,6c0.2,0.2,0.3,0.3,0.5,0.5l30.8-6.2C637,306.2,636.5,306.1,636,306z"/>
	<path d="M643,304.6l-2.7,0.5c0.4,0.1,0.7,0.2,1.1,0.4l1.6-0.3L643,304.6z"/>
	<path d="M588.8,308.7c2.4,0.1,3.3-0.4,3.6-0.9l-4.3,0.9C588.3,308.7,588.6,308.7,588.8,308.7z"/>
	<path d="M643.1,283.2c-0.1,0-0.2,0-0.3-0.1l-10.3,2.1c0.5,0.1,1,0.2,1.5,0.3l9.2-1.8L643.1,283.2z"/>
	<path d="M643.1,285.5l-2.6,0.5c0.5,0,0.9,0.1,1.4,0.2c0.1,0,0.2,0,0.3,0.1l0.9-0.2L643.1,285.5z"/>
	<path d="M627.7,277l-6.4,1.3c-0.2,0.1-0.4,0.2-0.5,0.4c-0.2,0.1-0.3,0.3-0.4,0.4l6.9-1.4C627.5,277.5,627.6,277.2,627.7,277z"/>
	<path d="M618.4,281.8l8.1-1.6c0-0.2,0.1-0.4,0.1-0.6l-7.4,1.5C619,281.3,618.8,281.6,618.4,281.8z"/>
	<path d="M631.7,271.5l-1.9,0.4c-0.2,0.2-0.4,0.4-0.5,0.7l1.9-0.4C631.4,272,631.6,271.7,631.7,271.5z"/>
	<path d="M608.4,279.2l0.5-0.1C609.1,278,608.7,278.8,608.4,279.2z"/>
	<path d="M628.2,275.2l0.9-0.2c0.2-0.2,0.3-0.5,0.5-0.7l-1.1,0.2C628.4,274.8,628.3,275,628.2,275.2z"/>
	<path d="M497.1,276c0,0.2-0.1,0.4-0.1,0.6l17.6-3.6c-0.3-0.1-0.6-0.3-0.9-0.4L497.1,276z"/>
	<path d="M497.1,278.9l22-4.4c-0.4-0.1-0.9-0.2-1.4-0.3l-20.7,4.2C497,278.6,497,278.8,497.1,278.9z"/>
	<path d="M499.2,270.9c-0.2,0.2-0.4,0.4-0.5,0.7l8.5-1.7c-0.4-0.1-0.8-0.2-1.2-0.3L499.2,270.9z"/>
	<path d="M497.7,273.6C497.7,273.6,497.7,273.6,497.7,273.6c-0.1,0.3-0.2,0.5-0.2,0.6l13.7-2.8c-0.3-0.1-0.6-0.3-0.9-0.4
		L497.7,273.6z"/>
	<path d="M503.3,256.8l16.8-3.4c-0.3-0.1-0.6-0.3-1-0.4l-15.9,3.2C503.3,256.4,503.3,256.6,503.3,256.8z"/>
	<path d="M523.2,254.6l-19.3,3.9c0.1,0.2,0.3,0.3,0.4,0.5l20-4C524,254.8,523.6,254.7,523.2,254.6z"/>
	<path d="M504.8,251.3c-0.1,0.2-0.3,0.4-0.4,0.7l8.6-1.7c-0.3-0.1-0.7-0.3-1-0.4L504.8,251.3z"/>
	<path d="M503.5,254.5l13.1-2.6c-0.3-0.1-0.6-0.3-0.9-0.4l-12,2.4C503.6,254.1,503.6,254.3,503.5,254.5z"/>
	<path d="M509.2,379.6c0.2,0.2,0.4,0.3,0.6,0.5l2.9-0.6c0-0.2,0-0.4,0-0.6L509.2,379.6z"/>
	<path d="M502.9,376.4c0.3,0.1,0.5,0.1,0.8,0.2c0.1,0,0.2,0.1,0.4,0.1l7-1.4c-0.1-0.2-0.2-0.4-0.3-0.5L502.9,376.4z"/>
	<path d="M511.6,377.5c-0.1-0.2-0.1-0.4-0.1-0.6l-4.7,1c0.3,0.1,0.5,0.3,0.8,0.4L511.6,377.5z"/>
	<path d="M495.2,373.2c0.3,0.1,0.6,0.3,0.9,0.4l9.5-1.9c-0.2-0.1-0.4-0.3-0.6-0.5L495.2,373.2z"/>
	<path d="M498.9,374.9c0.3,0.1,0.7,0.3,1,0.4l9.4-1.9c-0.3-0.2-0.6-0.3-0.9-0.4L498.9,374.9z"/>
	<path d="M488.1,370c0.3,0.1,0.6,0.3,1,0.4l13.6-2.8c-0.1-0.2-0.1-0.4-0.2-0.5L488.1,370z"/>
	<path d="M491.8,371.6c0.3,0.1,0.6,0.3,0.9,0.4l11.1-2.2c-0.1-0.2-0.2-0.3-0.3-0.5L491.8,371.6z"/>
	<path d="M481,357.6l-23,4.6c0.2,0.1,0.4,0.2,0.6,0.3c0.1,0,0.2,0.1,0.3,0.1l23-4.6C481.7,357.9,481.4,357.7,481,357.6z"/>
	<path d="M496.9,356.8l-5.2,1.1c-0.1,0-0.1,0.1-0.2,0.1c-1.7,0.9-3.4,1.3-5.3,1.2c-0.2,0-0.3,0-0.5-0.1l-24.1,4.9
		c0.4,0.1,0.7,0.3,1.1,0.4l34.6-7C497.2,357.1,497.1,356.9,496.9,356.8z"/>
	<path d="M475.8,354.4l-28.1,5.7l0,0.6l28.8-5.8C476.3,354.7,476,354.6,475.8,354.4z"/>
	<path d="M478.6,356.2l-29.1,5.9c1.6,0,3.2-0.3,4.7-0.4l25.1-5.1C479.1,356.5,478.8,356.4,478.6,356.2z"/>
	<path d="M448.5,355.9l22.8-4.6c-0.2-0.2-0.5-0.3-0.7-0.4l-21.2,4.3C449.1,355.3,448.8,355.6,448.5,355.9z"/>
	<path d="M447.8,358.4l26.2-5.3c-0.2-0.2-0.4-0.3-0.6-0.5l-25.5,5.1L447.8,358.4z"/>
	<path d="M462.2,350.4c-0.5,0.3-1.1,0.6-1.6,0.9l7.7-1.6c-0.4-0.1-0.8-0.3-1.2-0.3L462.2,350.4z"/>
	<path d="M577.1,342.9c0.4,0.1,0.8,0.2,1.1,0.4l7.9-1.6c-0.2-0.2-0.4-0.3-0.6-0.5L577.1,342.9z"/>
	<path d="M584.9,343.7l-1.8,0.4C583.7,344,584.4,343.9,584.9,343.7z"/>
	<path d="M575,338.6l-7.4,1.5c0.4,0.1,0.9,0.2,1.3,0.3l7.7-1.6C576.1,338.8,575.5,338.7,575,338.6z"/>
	<path d="M577,320.2l-5.2,1c0.4,0.1,0.8,0.2,1.2,0.3l4.2-0.8C577.2,320.5,577.1,320.4,577,320.2z"/>
	<path d="M576.3,322.7c0.3,0,0.5,0,0.7-0.1L576.3,322.7z"/>
	<path d="M565,320.5c0.6,0,1.1,0,1.7,0.1l8.7-1.8c-0.1,0-0.1-0.1-0.2-0.1c-0.3-0.1-0.5-0.2-0.8-0.3l-10.3,2.1
		C564.5,320.5,564.8,320.5,565,320.5z"/>
	<path d="M534.7,320c-0.2-0.2-0.3-0.3-0.5-0.5L517,323c0.3,0.1,0.6,0.3,0.9,0.4L534.7,320z"/>
	<path d="M538.4,321.6c-0.5-0.1-0.9-0.2-1.4-0.3l-17.1,3.4c0.2,0.2,0.4,0.3,0.6,0.5L538.4,321.6z"/>
	<path d="M510.7,320.3l23.4-4.7c0.4-0.3,0.8-0.6,1.2-0.8l-25.7,5.2c0.2,0.1,0.4,0.1,0.5,0.2C510.3,320.2,510.5,320.3,510.7,320.3z"
		/>
	<path d="M573.3,307.1l-1.4,0.3c-0.5,0.2-1,0.5-1.4,0.9l3.1-0.6C573.6,307.3,573.5,307.2,573.3,307.1z"/>
	<path d="M533.3,318.1c-0.1-0.2-0.1-0.4-0.1-0.6l-19.5,3.9c0.3,0.1,0.6,0.3,0.9,0.4L533.3,318.1z"/>
	<path d="M562.9,311.7c-0.8,0.1-1.9,0.3-2.9,0.4l-1.9,0.4c-1.1,0.3-2.2,0.6-3,1.2l16.9-3.4c0.3-0.2,0.6-0.5,0.9-0.8l-5.6,1.1
		C565.8,311.3,564.4,311.4,562.9,311.7z"/>
	<path d="M493,319.2l43.6-8.8c-0.1-0.2-0.2-0.4-0.3-0.5l-44.2,8.9c0.1,0.1,0.3,0.1,0.4,0.2C492.7,319.1,492.8,319.2,493,319.2z"/>
	<path d="M500.5,319.8c1.1-0.2,2.2-0.4,3.4-0.4l33.2-6.7c0-0.2,0.1-0.4,0-0.6l-40.4,8.2c0.6,0,1.2-0.1,1.8-0.2
		C499.1,320,499.8,319.9,500.5,319.8z"/>
	<path d="M482.4,316.1l33.8-6.8c-0.4-0.1-0.7-0.2-1-0.4l-35.2,7.1C480.7,316.2,481.6,316,482.4,316.1z"/>
	<path d="M533.6,307.5l-5.5,1.1c-0.3,0.2-0.5,0.3-0.8,0.5c-0.2,0.1-0.4,0.3-0.6,0.4l7.8-1.6c-0.1-0.1-0.3-0.1-0.4-0.2
		C533.9,307.7,533.8,307.6,533.6,307.5z"/>
	<path d="M487.3,317.5l33.3-6.7c-0.1,0-0.1,0-0.2,0c-0.3-0.1-0.6-0.2-1-0.3l-33.7,6.8c0.1,0,0.3,0.1,0.4,0.1
		C486.5,317.4,486.9,317.5,487.3,317.5z"/>
	<path d="M509.1,306.1c-0.3-0.1-0.6-0.3-0.9-0.4l-41.8,8.4c0.4,0.1,0.9,0.2,1.3,0.3L509.1,306.1z"/>
	<path d="M477.4,314.8l35.1-7.1c-0.3-0.1-0.6-0.3-0.9-0.4l-35.7,7.2C476.4,314.5,476.9,314.6,477.4,314.8
		C477.4,314.8,477.4,314.8,477.4,314.8z"/>
	<path d="M502,303c-0.1,0-0.2-0.1-0.3-0.1c-0.2-0.1-0.5-0.2-0.7-0.3l-52.4,10.6l0,0.6L502,303z"/>
	<path d="M453.4,314.8c2.4-0.4,4.7-0.9,7-1.1l45.5-9.2c-0.1-0.1-0.3-0.1-0.4-0.2c-0.2-0.1-0.3-0.1-0.5-0.2l-56.1,11.3
		c0.6,0.1,1.4,0,2.1-0.2C451.9,315.1,452.7,314.9,453.4,314.8z"/>
	<path d="M454.4,307.3c0.1,0.2,0.2,0.4,0.3,0.5l20.7-4.2c-0.3-0.1-0.7-0.2-1-0.4L454.4,307.3z"/>
	<path d="M489.6,302.6C489.5,302.6,489.5,302.6,489.6,302.6c-1,0.5-2,0.9-3,1.2l10.7-2.2c-0.5-0.1-1.1-0.2-1.7-0.3L489.6,302.6z"/>
	<path d="M454.6,309.8c-0.1,0.2-0.1,0.4-0.2,0.5l28.2-5.7c-1,0.1-2,0.1-3,0l-25,5C454.6,309.7,454.6,309.7,454.6,309.8z"/>
	<path d="M467.8,300.5c-0.3-0.1-0.7-0.3-1.1-0.4l-18.1,3.7l0,0.6L467.8,300.5z"/>
	<path d="M470.7,301.7l-18.7,3.8c0.3,0.1,0.5,0.3,0.8,0.4l18.9-3.8c-0.2-0.1-0.4-0.2-0.6-0.2C471,301.8,470.9,301.8,470.7,301.7z"/>
	<path d="M448.8,299.7C448.8,299.7,448.8,299.7,448.8,299.7l6.8-1.4c-0.2-0.1-0.5-0.3-0.7-0.4l-6.3,1.3l0,0.5
		C448.7,299.7,448.8,299.7,448.8,299.7z"/>
	<path d="M459.8,299.9c-0.5-0.1-1-0.2-1.4-0.3l-9.8,2l0,0.6L459.8,299.9z"/>
	<path d="M451,294.7c-0.2-0.2-0.3-0.3-0.5-0.5l-1.9,0.4l0,0.6L451,294.7z"/>
	<path d="M453.2,296.7c-0.2-0.2-0.4-0.3-0.6-0.5l-4,0.8l0,0.6L453.2,296.7z"/>
	<path d="M449,292.8c-0.1-0.1-0.3-0.2-0.4-0.3l0,0.4L449,292.8z"/>
	<path d="M641.2,362.3c1.3-0.6,2-0.9,2-0.9v0l-3.1,0.6C640.5,362.1,640.9,362.2,641.2,362.3z"/>
	<path d="M632.8,359.4l10.4-2.1l0-0.6l-11.9,2.4C631.8,359.2,632.3,359.3,632.8,359.4z"/>
	<path d="M637.1,360.9l6.1-1.2v-0.6l-7.1,1.4C636.4,360.7,636.7,360.8,637.1,360.9z"/>
	<path d="M615.7,358.2l27.5-5.5l0-0.6l-28.6,5.8C615,358,615.4,358.1,615.7,358.2z"/>
	<path d="M624.2,358.8l19-3.8l0-0.6l-22.1,4.5C622.2,358.9,623.2,358.9,624.2,358.8z"/>
	<path d="M608.9,354.9l34.3-6.9l0-0.6l-35,7.1C608.4,354.6,608.7,354.8,608.9,354.9z"/>
	<path d="M611.9,356.7l31.3-6.3l0-0.6l-32.2,6.5C611.3,356.4,611.6,356.5,611.9,356.7z"/>
	<path d="M604.3,346.7l14.2-2.9c-0.3-0.1-0.6-0.3-0.9-0.4l-13.1,2.7C604.4,346.2,604.4,346.4,604.3,346.7z"/>
	<path d="M621.1,345l-16.9,3.4c0,0.1,0,0.3,0.1,0.4c0,0,0,0.1,0,0.1l17.6-3.6C621.7,345.3,621.4,345.2,621.1,345z"/>
	<path d="M612.2,342.2c-1.6,0-3.4,0.3-4.9,1L612.2,342.2z"/>
	<path d="M159.1,108.8l6.2-1.2c-0.2-0.1-0.4-0.3-0.7-0.5l-6.5,1.3c-0.8-0.3-1.5-0.8-2.2-1.3l6-1.2c-1.1-0.1-2.4,0.1-3.7,0.2
		l-2.9,0.6c-0.6-0.5-1.2-0.9-1.8-1.3l1.4-0.3c-0.1-0.2-0.2-0.4-0.3-0.5l-1.9,0.4c-0.5-0.3-1.1-0.5-1.7-0.6c-2.3-0.3-5,0.1-6.8,1.8
		c-0.2,0.2-0.3,0.3-0.5,0.5l-17.1,3.5c0.2,0.2,0.3,0.3,0.3,0.5l16.4-3.3c-0.3,0.5-0.5,1.1-0.8,1.7c0,0.1-0.1,0.1-0.1,0.2l-20.3,4.1
		c0.4,0.1,0.7,0.3,1.1,0.4l18.8-3.8c-0.3,0.6-0.4,1.2-0.2,1.8l-14.6,2.9c0.1,0.2,0.1,0.4,0.2,0.6l14.6-3c0.1,0.1,0.2,0.3,0.3,0.4
		c0.5,0.6,1,0.7,1.6,0.8l-16.7,3.4c-0.2,0.3-0.5,0.5-0.8,0.7l20.1-4c0.8,0.2,1.6,0.4,2.5,0.2c1.2-0.2,2.1-0.6,3.3,0
		c0.2,0.1,0.3,0.2,0.4,0.3l-28.9,5.8c-0.1,0.2-0.2,0.4-0.3,0.6l29.9-6c0.5,0.4,1,0.9,1.5,1.4l-31.1,6.3c0.1,0.2,0.2,0.3,0.3,0.5
		l31.2-6.3c0.4,0.5,0.9,1,1.3,1.5l-31.1,6.3c0.1,0.1,0.1,0.1,0.2,0.2c0.1,0.1,0.2,0.2,0.4,0.3l30.9-6.2c0,0,0,0,0,0
		c0.5,0.7,1,1.3,1.3,2l-28.8,5.8c0.3,0.1,0.6,0.3,0.9,0.4l28.2-5.7c0.3,0.5,0.5,1.1,0.7,1.6l-27,5.4c0.2,0.2,0.2,0.4,0.2,0.5l27-5.4
		c0.2,0.4,0.3,0.8,0.5,1.2c0.1,0.1,0.2,0.3,0.2,0.4l-36.5,7.4c1,0,2.1,0,3.1,0l33.9-6.8c0.7,0.6,1.6,0.8,2.3,1.3l-31.1,6.3
		c0.1,0.1,0.3,0.2,0.3,0.3c0.1,0.1,0.1,0.1,0.2,0.2l31.1-6.3c0.1,0.1,0.2,0.3,0.3,0.5c0.1,0.3,0.3,0.6,0.4,0.9l-16,3.2
		c0.4,0.1,0.7,0.2,1,0.4l15.2-3.1c0.1,0.5,0.2,1,0.1,1.5c0,0.1,0,0.1-0.1,0.2l-14,2.8c0.1,0.2,0.1,0.4,0.1,0.6l13.7-2.8
		c-0.3,0.6-0.8,1.2-0.9,1.9l-12,2.4c0.1,0.2,0.1,0.4,0,0.6l11.9-2.4c0,0.5,0,1.2,0.1,1.8l-13,2.6c0,0.1,0,0.1,0.1,0.2
		c0.1,0.1,0.1,0.2,0.2,0.3l12.7-2.6c0,0.4,0,0.7,0,1c0,0.2,0,0.4,0.1,0.6l-8.7,1.7c0.8,0,1.6,0.1,2.3,0.1l6.5-1.3
		c0.2,0.7,0.7,1.2,1.2,1.5l-0.9,0.2c0.4,0,0.7,0,1.1,0c0.7,0.4,1.5,0.7,2.3,0.9c2.4,0.7,5,0.9,7.4,1.7c1.7,0.5,2.3,1.2,2.9,2.9
		c0.5,1.2,1.1,2.5,1.9,3.4c0.6,0.7,1.2,1.1,2.1,1.4c1.1,0.3,1.7,0.7,2.5,1.6c1.6,1.7,2.8,3.7,4.6,5.2c2.3,1.9,5.2,2.5,8,3.3
		c3.3,0.9,6.7,2.2,10.1,1.3c3.5-0.9,5.1-3.9,9.2-3c1.4,0.3,2.1,1.4,3.9,1.5c1.7,0.1,3.2-0.8,4.8-0.8c1.5,0,2.8,0.8,4.3,0.7
		c1.6-0.1,2.2-0.5,2.1-1.2c0.1,0,0.3,0.1,0.4,0.1l20.8-4.2c-0.4-0.1-0.7-0.2-1-0.4l-20.3,4.1c-0.2-0.4-0.7-0.9-1.2-1.5l19.2-3.9
		c-0.3-0.1-0.6-0.3-0.8-0.4l-18.9,3.8c0,0-0.1-0.1-0.1-0.1c-0.5-0.5-1.1-0.9-1.7-1.3l19.3-3.9c-0.1-0.2-0.1-0.4-0.1-0.6l-19.9,4
		c-1-0.5-2-0.9-3.1-1.1l26.3-5.3c-0.1-0.2-0.2-0.4-0.3-0.5l-27.5,5.6c-0.2,0-0.3,0-0.5-0.1c-3,0.4-6.1,0.8-9.1,1.5
		c-1.4,0.3-3.1,0.3-4.9-0.1l41.1-8.3c-0.1-0.2-0.3-0.3-0.4-0.5l-42,8.5c-1.1-0.3-2.1-0.7-3.1-1.1l37.7-7.6c-0.6-0.1-1.1-0.2-1.6-0.3
		l-36.9,7.4c-0.7-0.4-1.4-0.8-2-1.2c0,0-0.1-0.1-0.1-0.1l35.1-7.1c-0.3-0.1-0.7-0.3-1-0.4l-34.7,7c-0.2-0.2-0.5-0.5-0.7-0.7
		c-0.2-0.3-0.5-0.5-0.7-0.8l5.2-1c0,0,0.1,0,0.1,0.1c0.1,0.1,0.3,0.1,0.4,0.2c-0.1-0.1-0.2-0.2-0.4-0.3l28.3-5.7
		c-0.2-0.2-0.3-0.3-0.4-0.5l-8.8,1.8c0,0,0,0,0,0c-0.5-0.6-1-0.9-1.6-0.9l29.3-5.9c7.7-0.7,22.9-2.8,16.2-9.2
		c-3.1-2.9-9.2-3.1-12.5-3.4c-5-0.4-10.6-1.9-15.1-1c-1.1,0.2-2.1,0.5-3,0.8c-0.9,0.3-1.8,0.6-2.7,0.8c-3.8,1.7-7.9,1.1-11.9,0.7
		c-1.4-0.1-2.7-0.2-4-0.3c-4-0.3-8.1-0.9-12.2-2c-7-2-15.1-6.1-21.5-5c-1.4,0.2-2.3,1.1-3.1,2.1l-8.5,1.7c-0.1-0.1-0.2-0.2-0.2-0.3
		c-0.2-0.4-0.4-0.8-0.5-1.2l8.4-1.7c-0.2-0.2-0.4-0.3-0.5-0.5l-8.1,1.6c-0.1-0.6-0.2-1.1-0.3-1.7l7-1.4c-0.1-0.2-0.3-0.3-0.4-0.5
		l-6.7,1.4c-0.2-0.7-0.4-1.5-0.9-2.1l6.3-1.3c-0.1-0.2-0.2-0.4-0.2-0.5l-6.4,1.3c-0.5-0.7-0.7-0.9-0.9-1.6l6.9-1.4
		c0-0.2-0.1-0.4-0.1-0.6l-7,1.4c0,0,0-0.1,0-0.1c-0.1-0.6,0.1-1.1,0.2-1.6l6.7-1.3c0-0.2,0-0.4-0.1-0.6l-6.7,1.3
		c0-0.1-0.1-0.2-0.2-0.3c-0.4-0.6-1.3-0.8-1.9-0.7c-1.4,0.1-2.6,0.9-4,0.5l12.2-2.5c-0.1-0.2-0.2-0.4-0.4-0.5l-7.2,1.4
		c0,0.1,0,0.1-0.2,0l-5.4,1.1C160.9,109.5,160,109.1,159.1,108.8z"/>
	<path d="M137,80.8c-1.3,0.6-2.6,1.2-4,1.6c-1,1.4-2,2.9-2.9,4.4c0,0,0,0.1-0.1,0.1c1.2,1.3,2.4,2.6,4.1,3.1
		c1.8,0.6,3.8,0.2,5.7-0.2c4.2-1,7.8-3.3,11.7-5c1.4-0.6,3.2-1.5,4.8-1.4c3.9,0.2,7.3,2.9,10.6,4.1c-1.1-1.4-2.2-2.8-3.2-4.3
		c-0.2-0.3-0.4-0.6-0.6-0.9c-0.4-0.5-0.7-1.1-1-1.7c-1.5,0.7-3.1,1.3-4.7,1.7c-2.9,0.7-10.9,0.3-14.1-2c-0.6-0.4-1-0.8-1.2-1.3
		c-0.4,0.2-0.8,0.4-1.3,0.5C139.4,80.1,138.2,80.2,137,80.8z"/>
	<path d="M237.5,88.2c-0.1,0.1-0.1,0.1-0.2,0.2l0.3-0.1C237.5,88.3,237.5,88.2,237.5,88.2z"/>
	<path d="M246.3,83.6c0.6-0.2,1.2-0.3,1.8-0.4c2.4-0.8,5-0.5,6.8,1.4c3.8,3.4,7.8,5.7,12.1,7.5c0.5,0.2,0.9,0.5,1.4,0.7
		c3.7,1.7,6.9,2.2,9.9,2.2c-2.4-5.3-5.2-10-8.3-14c-0.2,0-0.4,0-0.5,0.1c-0.7,0.1-1.4,0.2-2,0.3c-5,0.7-9.9-0.4-14.3-3.3
		c-0.5-0.3-1-0.6-1.5-0.8c-1.5-0.7-3.5-1.8-5.2-2c-0.3,0-0.6,0-0.8,0c-1.1,2.6-2.5,5.1-4.1,7.6c-0.3,0.5-0.6,0.9-0.9,1.4
		c0.7,0.3,1.4,0.4,2.3,0.5C244,84.3,245.2,83.9,246.3,83.6z"/>
	<path d="M124,199.5c-1,0.8-1.3,2.2-0.1,2.8c1.3,0.7,4.1-1.1,5.4-1.5c1.5-0.5,3-0.6,4.4-1.2c2-0.9,3.7-2.6,5.6-3.7
		c0.9-0.6,1.9-0.9,2.7-1.6c0.8-0.7,1.2-2.1,2.5-2.2c2.7-0.2,3.5,3.9,4.5,4.1c0.5,0.1,1,0.1,1.4,0.1c0.5,0,0.9-0.1,1.4-0.2
		c0.7,0.1,1.5-0.2,2.1-0.7c1.2-0.9,2.4-1.3,3.7-1.5c0.4-0.1,0.8-0.1,1.3-0.1c1.3-0.1,2.4,0.2,3.8-0.2c1.2-0.4,2.4-1.1,3.5-1.8
		c1.1-0.8,2-1.7,3.1-2.5c0.9-0.6,1.6-1.7,2.6-2.2c0.5-0.3,1-0.4,1.5-0.7c0.8-0.6,1.2-1.4,1.6-2.2c0.4-0.8,1.5-1.8,1.4-2.7
		c-0.1-1.6-2.2-1.2-3.1-1.1c-1.1,0.2-2.2,0.3-3.3,0.4c-1,0.1-1.9,0.4-2.9,0.6c-6,0.9-18.4,0-22.6-5.2c-2.3-2.9-2.3-6.9-6.6-8.4
		c-0.5-0.2-1-0.3-1.4-0.3c-2-0.3-4.8,0.6-6.5,1.8c-1.3,0.9-3.3,1.2-4.8,1.2c-1.7-0.1-3.4-1.1-5.1-1.3c-0.2,0-0.4-0.1-0.6-0.1
		c0,6-0.3,12.6-1,19.6c0.2,0,0.4,0,0.6,0c1-0.2,2-0.4,2.7-0.7c4.7-1.4,9.1-5.8,14.2-5.3c3.1,0.3,6.9,2.6,5.5,6.6
		c-0.6,1.8-1.9,2.5-3.6,2.8c-2.1,0.4-3.9,0.7-5.9,1.5c-0.1,0-0.2,0.1-0.3,0.1c-1.2,0.5-1.5,0.8-1.5,1.4c0,0,0,0.1,0,0.1c0,0,0,0,0,0
		c0,0.1,0,0.2,0,0.3c0.1,0.4,0.2,1,0.2,1.8c-1,0.4-1.9,1.6-2.9,1.8C126.2,199.5,125.1,198.6,124,199.5z"/>
	<path d="M122.3,150.4c-1.7-0.2-2.7-1.4-4.1-2c0.2,2.3,0.4,4.7,0.6,7.3c0.7,0.1,1.5,0.3,2.2,0.4c1.9,0.2,3.4-0.5,5.3-0.5
		c1.4,0,3,0.9,4.3,1.5c2.7,1.3,5.7,3.1,8.7,3c1.8-0.1,3.4-0.9,4.8-2.2c2.4-2.5-0.4-5-2.3-6.5c-1.6-1.2-3.4-2.2-5.3-2.6
		c-3.3-0.8-6.7-0.1-9.8,1.1C125.3,150.5,123.8,150.6,122.3,150.4z"/>
	<path d="M124.9,97.2l6.8-1.4c-0.2-0.2-0.4-0.3-0.7-0.5l-5.9,1.2C125.1,96.8,125,97,124.9,97.2z"/>
	<path d="M124,99.6l8.3-1.7c0.1-0.2,0.2-0.4,0.2-0.6l-8.2,1.7C124.2,99.1,124.1,99.4,124,99.6z"/>
	<path d="M140.2,103.3l11.1-2.2c-0.2-0.2-0.5-0.3-0.7-0.4l-10.2,2.1C140.3,102.9,140.2,103.1,140.2,103.3z"/>
	<path d="M121.4,107.1l6.2-1.3c-0.1,0-0.3-0.1-0.4-0.1c-0.2-0.1-0.5-0.1-0.7-0.2l-4.9,1C121.5,106.7,121.5,106.9,121.4,107.1z"/>
	<path d="M141.3,100.1c-0.3,0.2-0.5,0.5-0.6,0.7l7.3-1.5c-0.4-0.1-0.7-0.3-1.1-0.4L141.3,100.1z"/>
	<path d="M122.4,104c-0.1,0.2-0.1,0.4-0.2,0.6l1.7-0.3c-0.2-0.1-0.4-0.3-0.6-0.5L122.4,104z"/>
	<path d="M119.9,112.1l3.7-0.7c-0.4-0.1-0.7-0.2-1.1-0.3c0,0,0,0-0.1,0l-2.3,0.5C120.1,111.6,120,111.9,119.9,112.1z"/>
	<path d="M123.5,109l29.9-6c-0.2-0.2-0.3-0.3-0.5-0.5l-30.8,6.2C122.6,108.8,123,108.9,123.5,109z"/>
	<path d="M170.7,106.3c-2.4-0.1-3.3,0.4-3.6,0.9l4.3-0.9C171.3,106.3,171,106.3,170.7,106.3z"/>
	<path d="M127.2,129.7c-0.5-0.1-1-0.2-1.5-0.3l-10.2,2.1c0.5,0.1,1,0.2,1.4,0.3L127.2,129.7z"/>
	<path d="M117.7,128.8c-0.1,0-0.2,0-0.3-0.1L116,129c0,0.2-0.1,0.4-0.1,0.6l3.3-0.7C118.6,128.9,118.2,128.9,117.7,128.8z"/>
	<path d="M131.8,138l6.4-1.3c0.2-0.1,0.4-0.2,0.5-0.4c0.2-0.1,0.3-0.3,0.4-0.4l-6.9,1.4C132.1,137.5,132,137.7,131.8,138z"/>
	<path d="M141.2,133.1l-8.1,1.6c0,0.2-0.1,0.4-0.1,0.6l7.4-1.5C140.6,133.7,140.8,133.4,141.2,133.1z"/>
	<path d="M127.9,143.4l1.9-0.4c0.2-0.2,0.4-0.4,0.5-0.7l-1.9,0.4C128.2,143,128,143.2,127.9,143.4z"/>
	<path d="M151.2,135.8l-0.5,0.1C150.5,137,150.8,136.2,151.2,135.8z"/>
	<path d="M131.4,139.8l-0.9,0.2c-0.2,0.2-0.3,0.5-0.5,0.7l1.1-0.2C131.2,140.2,131.3,140,131.4,139.8z"/>
	<path d="M262.5,139c0-0.2,0.1-0.4,0.1-0.6l-17.6,3.6c0.3,0.1,0.6,0.3,0.9,0.4L262.5,139z"/>
	<path d="M262.5,136l-22,4.4c0.4,0.1,0.9,0.2,1.4,0.3l20.7-4.2C262.6,136.4,262.6,136.2,262.5,136z"/>
	<path d="M260.4,144.1c0.2-0.2,0.4-0.4,0.5-0.7l-8.5,1.7c0.4,0.1,0.8,0.2,1.2,0.3L260.4,144.1z"/>
	<path d="M261.9,141.4C261.9,141.4,261.9,141.3,261.9,141.4c0.1-0.3,0.2-0.5,0.2-0.6l-13.7,2.8c0.3,0.1,0.6,0.3,0.9,0.4L261.9,141.4
		z"/>
	<path d="M256.3,158.1l-16.8,3.4c0.3,0.1,0.6,0.3,1,0.4l15.9-3.2C256.3,158.5,256.3,158.3,256.3,158.1z"/>
	<path d="M236.4,160.4l19.3-3.9c-0.1-0.2-0.3-0.3-0.4-0.5l-20,4C235.6,160.1,236,160.3,236.4,160.4z"/>
	<path d="M254.7,163.7c0.1-0.2,0.3-0.4,0.4-0.7l-8.6,1.7c0.3,0.1,0.7,0.3,1,0.4L254.7,163.7z"/>
	<path d="M256.1,160.5l-13.1,2.6c0.3,0.1,0.6,0.3,0.9,0.4l12-2.4C256,160.9,256,160.7,256.1,160.5z"/>
	<path d="M177.9,192.3l12.8-2.6c-0.2-0.2-0.3-0.3-0.5-0.5l-11.4,2.3C178.6,191.8,178.2,192,177.9,192.3z"/>
	<path d="M158.3,195.6c0,0.2-0.1,0.4-0.1,0.6l2.1-0.4c-0.1-0.2-0.1-0.4-0.2-0.5L158.3,195.6z"/>
	<path d="M187.1,187.6c-0.2,0-0.4,0-0.7,0l-5.6,1.1c-0.2,0.2-0.3,0.4-0.5,0.7l7.9-1.6c-0.3-0.1-0.6-0.2-1-0.2
		C187.2,187.6,187.1,187.6,187.1,187.6z"/>
	<path d="M159.3,200.2c0.4,0,0.8,0.1,1.2,0.2c0,0,0.1,0,0.1,0l4.7-1c2-1.1,4.8-1.6,7.4-1.5l73.9-14.9c0.7,0.1,1.3,0,1.8-0.4l7.3-1.5
		c0.5-0.2,1-0.4,1.5-0.5c0.7-0.2,1.6-0.5,2.5-0.9l-10.7,2.2c0.5-0.6,0.8-1.4,1.3-2l6.6-1.3c0.7,0.2,1.5,0.3,2.1,0.5
		c2.3,0.4,4.5,0.1,6.4-1.4c0.7-0.6,1.2-1.4,1.8-2.1c1-1,3-1.8,2.3,0.5c-0.3,0.9-2.1,2.4-0.5,2.9c1.5,0.5,3.2-0.6,4.7-0.6
		c2.2,0,0.6,1.6,1.8,2.3c0.5,0.3,1.3-0.5,1.7-0.8c0.2-0.1,0.9-0.9,1.1-0.4c0.1,0.2-0.5,0.7-0.6,0.9c-0.3,0.3-0.5,0.6-0.6,1.1
		c-0.2,0.9-0.1,1.9-0.3,2.8c-0.2,1.4-0.9,3.1-0.6,4.5c1.8,0,2.9-4.5,4.2-5.6c0.8-0.7,1.7-1.2,2.5-1.9c0.7-0.6,1.7-1,2.6-1.3
		c-0.3-6.3-0.2-12.1,0-17.4c-2.3-0.8-5.2-1-7.6-1c-7.6-0.2-11.4,5.7-18.6,6.1c-0.8,0-1.5,0.1-2.3,0.1c-6.6-0.9-15.1,2-14.4,10.5
		c0.1,0.9,0.3,1.8,0.7,2.6l-17.6,3.6c-0.7,0.3-1.4,0.6-2,1l19.9-4c0.2,0.3,0.4,0.5,0.6,0.7c0.3,0.3,0.7,0.5,1.1,0.7l-26.8,5.4
		c-1.8,0.7-3.6,1.2-5.6,1.4c-0.8,0.1-1.6,0.2-2.4,0.2l-51.9,10.5C159,200.2,159.1,200.2,159.3,200.2z"/>
	<path d="M198,190.5l1-0.2c-0.1,0-0.2-0.1-0.3-0.1C198.5,190.2,198.2,190.4,198,190.5z"/>
	<path d="M168.3,196.1c-0.3,0-0.5,0-0.8,0l-3.4,0.7c-0.3,0.3-0.6,0.5-1,0.5c-0.1,0-0.4-0.1-0.8-0.2l-7.8,1.6
		c-0.4,0.3-0.8,0.5-1.3,0.7c-0.5,0.1-1.2,0-1.8,0l-1.5,0.3c-0.4,0.3-0.6,0.6-0.7,0.7l43.7-8.8c-0.3-0.1-0.5-0.2-0.7-0.4
		c0,0,0,0-0.1,0l-22.7,4.6C169.1,195.9,168.8,196,168.3,196.1z"/>
	<path d="M206.4,195.1l-25.1,5.1c0.4,0.1,0.8,0.2,1.2,0.4l22.4-4.5C205.3,195.7,205.8,195.4,206.4,195.1z"/>
	<path d="M246.9,186.9l-36.8,7.4c0.7,0,1.4,0.1,2.1,0.2l33.8-6.8C246.3,187.5,246.6,187.2,246.9,186.9z"/>
	<path d="M178.2,199l71.6-14.4c0.4-0.3,0.8-0.6,1.2-0.8l-73.8,14.9C177.6,198.8,177.9,198.9,178.2,199z"/>
	<path d="M237.9,194c0.5-0.3,0.9-0.6,1.4-0.9l-17.8,3.6c0.5,0.1,1.1,0.2,1.6,0.3L237.9,194z"/>
	<path d="M202.1,198.9c0.2-0.2,0.4-0.5,0.6-0.7l-16.1,3.3c0.6,0.1,1.2,0.2,1.8,0.2L202.1,198.9z"/>
	<path d="M243.4,189.9l-27.2,5.5c0.4,0.1,0.8,0.2,1.2,0.3l25-5C242.8,190.5,243.1,190.2,243.4,189.9z"/>
	<path d="M241.8,91.6l-9.8,2c-0.3,0.3-0.7,0.5-1,0.8l11.7-2.4C242.3,91.8,242.1,91.7,241.8,91.6z"/>
	<path d="M239,89.8l-3.7,0.7c-0.2,0.2-0.5,0.5-0.7,0.7l5-1C239.4,90.1,239.2,89.9,239,89.8z"/>
	<path d="M249.5,94.8c-0.2-0.1-0.4-0.1-0.6-0.2l-23.4,4.7c-0.4,0.3-0.8,0.6-1.2,0.8L250,95C249.9,95,249.7,94.9,249.5,94.8z"/>
	<path d="M186.2,107.9l1.4-0.3c0.5-0.2,1-0.5,1.4-0.9l-3.1,0.6C185.9,107.6,186,107.8,186.2,107.9z"/>
	<path d="M245.9,93.5c-0.3-0.1-0.6-0.3-0.9-0.4l-17.3,3.5c-0.4,0.3-0.9,0.5-1.3,0.8c0,0,0,0.1,0,0.1L245.9,93.5z"/>
	<path d="M196.7,103.3c0.5-0.1,1.1-0.2,1.7-0.3c-0.6,0-1.3-0.1-1.9-0.2l-8.9,1.8c-0.3,0.2-0.6,0.5-0.9,0.8l5.6-1.1
		C193.7,103.6,195.2,103.5,196.7,103.3z"/>
	<path d="M267.1,95.9c-0.2-0.1-0.3-0.1-0.5-0.2l-43.6,8.8c0.1,0.2,0.2,0.4,0.3,0.5l44.2-8.9C267.4,96.1,267.2,96,267.1,95.9z"/>
	<path d="M261.1,94.9c-0.7,0.1-1.4,0.2-2,0.3c-1.1,0.2-2.2,0.4-3.4,0.4l-33.2,6.7c0,0.2-0.1,0.4,0,0.6l40.4-8.2
		C262.3,94.7,261.7,94.8,261.1,94.9z"/>
	<path d="M279.7,99c-0.8-0.2-1.7,0-2.5-0.1l-33.8,6.8c0.4,0.1,0.7,0.2,1,0.4L279.7,99z"/>
	<path d="M226,107.4l5.5-1.1c0.3-0.2,0.5-0.3,0.8-0.5c0.2-0.1,0.4-0.3,0.6-0.4l-7.8,1.6c0.1,0.1,0.3,0.1,0.4,0.2
		C225.6,107.3,225.8,107.4,226,107.4z"/>
	<path d="M240.2,104.6l33.7-6.8c-0.1,0-0.3-0.1-0.4-0.1c-0.4-0.1-0.8-0.1-1.1-0.1l-33.3,6.7c0.1,0,0.1,0,0.2,0
		C239.6,104.3,239.9,104.4,240.2,104.6z"/>
	<path d="M281.7,103.2c-0.1-0.2-0.1-0.4-0.2-0.6l-31,6.2c0.3,0.1,0.6,0.3,0.9,0.4L281.7,103.2z"/>
	<path d="M280.9,101c-0.1-0.2-0.1-0.4-0.2-0.6l-33.6,6.8c0.3,0.1,0.6,0.3,0.9,0.4L280.9,101z"/>
	<path d="M258.6,112.4l24.4-4.9c-0.1-0.2-0.1-0.4-0.2-0.6l-25.3,5.1c0.1,0,0.2,0.1,0.3,0.1C258.1,112.2,258.4,112.3,258.6,112.4z"/>
	<path d="M254.6,110.8l27.7-5.6c-0.1-0.2-0.1-0.4-0.2-0.6l-28.5,5.7c0.1,0.1,0.3,0.1,0.4,0.2C254.3,110.7,254.4,110.8,254.6,110.8z"
		/>
	<path d="M270,112.4C270,112.4,270.1,112.4,270,112.4c1-0.5,2-0.9,3-1.2l-10.7,2.2c0.5,0.1,1.1,0.2,1.7,0.3L270,112.4z"/>
	<path d="M277,110.4c1-0.1,2-0.1,3,0l3.7-0.7c-0.1-0.2-0.1-0.4-0.2-0.6L277,110.4z"/>
	<path d="M155.3,68.3l-9.1,1.8c-0.5,0.3-0.9,0.6-1.4,0.9l10.3-2.1C155.2,68.7,155.2,68.5,155.3,68.3z"/>
	<path d="M155.3,66.1c0,0,0-0.1,0-0.1l-0.8,0.2l-0.3,0.1c-0.9,0.3-1.7,0.7-2.6,1.1l3.8-0.8C155.3,66.4,155.3,66.2,155.3,66.1z"/>
	<path d="M147.4,72.8c1.6,0,3.4-0.3,4.9-1L147.4,72.8z"/>
	<path d="M148,246.3l3.8-0.8c1,0.5,2.1,0.9,3.3,1.1l-6.6,1.3c0,0.2,0,0.4,0.1,0.6l8.2-1.6c2.4,0.3,4.8,0.1,6.1-0.1
		c2.7-0.5,5-1.5,7.3-2.6l12.8-2.6c-0.3-0.1-0.6-0.3-0.9-0.4l-9.5,1.9c2-0.9,4.2-1.6,6.7-1.8c0.9-0.1,1.8-0.1,2.8-0.1
		c-1.3-0.1-2.7-0.4-4.2-0.9l1.8-0.4c-0.3-0.1-0.5-0.3-0.8-0.4l-2.1,0.4c-0.9-0.3-1.8-0.7-2.7-1.2l2.4-0.5c-0.3-0.1-0.6-0.3-0.8-0.4
		l-2.4,0.5c-0.8-0.4-1.5-0.8-2.2-1.3l2.3-0.5c-0.2-0.1-0.4-0.3-0.7-0.5l-2.3,0.5c-0.6-0.4-1.1-0.8-1.6-1.2l2.5-0.5
		c-0.2-0.2-0.4-0.3-0.5-0.5l-2.5,0.5c-0.6-0.5-1.2-1-1.7-1.4l2.6-0.5c-0.2-0.2-0.4-0.3-0.6-0.5l-4.4,0.9c-2,0-4.3-0.3-6.8-0.1
		c-1.7,0.1-4.3,1.1-6.3,2.7l-20.7,4.2c-0.4,0.3-0.8,0.5-1.2,0.8l21.1-4.3c-0.6,0.6-1.1,1.3-1.4,2l-21,4.2c0,0.2,0,0.4,0.1,0.6
		l20.8-4.2c-0.1,0.5-0.2,1-0.1,1.6l-20.1,4.1c0.1,0.2,0.3,0.4,0.4,0.5l19.8-4c0.1,0.5,0.3,1,0.6,1.5c0,0,0.1,0.1,0.1,0.1l-5.9,1.2
		c0.9-0.1,1.7-0.1,2.5,0.1l3.8-0.8c0.4,0.5,1,1,1.6,1.4l-3.4,0.7C147.8,246,147.9,246.1,148,246.3z"/>
	<path d="M241.3,223.4c4.2,0,5.5-3.4,7.9-5.8c-2.2-0.5-4.5-0.9-6.6-1.6c-0.5-0.1-0.9-0.3-1.4-0.5c-0.5-0.2-0.9-0.4-1.4-0.6
		c-0.6-0.2-1.2-0.2-1.8-0.4c-0.8-0.2-1.3-0.6-2.2-0.3c-0.5,0.1-1.1,0.5-1.6,0.4c-0.6-0.1-0.9-0.7-1.6-0.9c-1-0.2-3.6,1.4-4.3,0.2
		c-0.4-0.8,0.3-1.4,1.1-1.8c-3-0.5-6-0.5-7.6,0.9c-4.5,3.6-5.5,16.7-15.7,5.9c-3.2-3.4-5.4-6.2-9-6c-0.3,0.4-0.7,0.8-1,1.2
		c-0.8,0.9-1.6,1.8-2.5,2.6c-0.7,0.6-2.2,2.1-3.2,1.2c-0.1-0.1-0.2-0.2-0.3-0.3c-0.7,0.8-1.4,1.5-2.3,2c-1.9,1.1-4.2,0-6.7-0.2
		c-5.8-0.5-7.5,4-9.3,8.2c1.3,0,2.7,0,4-0.3c6.3-1,12.2,2,18.3,3.1c0.2-0.6,0.3-1.2,0.5-1.9c1.7-5.6,5.1-3.9,7.7-0.1
		c0.5,0.8,1,1.4,1.5,2l12.1-0.5c2.8,2.9,3.6,4.7,3.2,5.8c0.3,0,0.6,0,0.9,0c4.6-0.2,7.4-4.9,10-8.3
		C233.3,223.3,236.7,223.4,241.3,223.4z"/>
	<path d="M246.8,212.9c0.1,0,0.1,0,0.2,0c1.4,0.2,2.9,0.3,4.3,0.2c-0.9-0.2-1.9-0.4-2.8-0.5C247.8,212.7,247.3,212.8,246.8,212.9z"
		/>
	<path d="M107.9,281.6c1,0.3,2.1,0.6,3.1,0.7c1.1-1,2.1-2.2,3.2-3.1c-2.3-0.1-4.4-1.1-6.5-2.1c-0.3,0-0.6,0.1-0.9,0.1
		c-0.7,0.1-1.2,0.3-1.6,0.5l0,3.3C106.2,281.2,107.3,281.4,107.9,281.6z"/>
	<path d="M155.3,289.6c1.8-0.2,5-1.3,2.8-3.5c-0.4-0.4-0.8-0.7-1.3-1c-1.1-0.7-2.2-1.1-3.4-1.3c0.4,0.7,0.7,1.4,0.7,2
		c-0.2-0.3-0.5-0.6-0.9-0.9c-1.5-0.5-4.6-0.7-5.7-1.8c-1.1-1-1.3-3.4-2.9-5c0.2,0.1,0.4,0.1,0.7,0.2c-1-1.2-2.2-2.5-3.5-3.3
		c0,0-0.1,0-0.1,0l-0.2,0c-1.5,0.3-2.9,0.2-4.4,0c-0.6,0-1.2-0.1-1.9-0.1c-5.7-0.2-9.9,0.3-13.4,1.6c-0.8,0.3-1.5,0.6-2.2,1
		c0.5,0.1,1,0.2,1.6,0.4c2.9,0.9,4.4,3.5,7.2,3c2.1-0.4,3.3-2.4,5-3.5c2.4,0.2,4.6,1.1,7.1,3.1c3.2,2.6,5,5,8.8,6.6
		c0.8,0.4,2,0.7,3,0.9c-1.5,0.3-3.5,0-5.1-0.3c0,0,0.1,0.1,0.1,0.1c0.4,0.2,0.8,0.5,1.2,0.7C150.6,289.5,153.1,289.9,155.3,289.6z"
		/>
	<path d="M106.1,266.3c-0.3-0.2-0.6-0.4-0.8-0.7c0,0-0.1-0.1-0.1-0.1l0,1.2C105.5,266.5,105.8,266.4,106.1,266.3z"/>
	<path d="M299.6,293.2l0-7.4c-0.3-0.1-0.5-0.2-0.8-0.4c-0.1-0.1-0.2-0.2-0.3-0.3c0-0.1-0.1-0.2-0.1-0.2c-1.2-0.7-3.2-0.7-4.8-0.6
		c-0.4,0-0.9,0-1.2,0c-1.9,0-3.6,0-5.5-0.4c-1.1-0.2-2.3-0.3-3.6-0.3c-2.6-0.1-5.6-0.2-8-2c-0.7-0.6-1.1-1.3-1.5-2.1
		c-0.4-0.7-0.8-1.4-1.4-1.9c-1.5-1.1-3.5-0.9-5.1-0.7c-0.5,0-1,0.1-1.4,0.1c-1.6,0-3.1-0.2-4.6-0.5c-1.2-0.2-2.3-0.4-3.4-0.5
		c-2.4-0.1-4.8,0.3-7.1,0.7c-1.6,0.3-3.2,0.5-4.8,0.6c-1,0.1-6.2,0.1-7.8-1.4c-0.4-0.3-0.5-0.7-0.5-1.1c0-1.4,0.2-2.6,0.6-3.5
		c-0.8,0-1.4-0.2-2-0.6c0-0.1,0-0.3,0-0.5l-0.5,0.1c-0.5-0.4-1-0.9-1.5-1.3c0,0-0.1-0.1-0.1-0.1l0.7-0.2c-0.1-0.2-0.2-0.4-0.3-0.5
		l-0.9,0.2c-0.4-0.4-0.8-1-1.2-1.5l0.4-0.1c-0.2-0.2-0.3-0.3-0.5-0.5l-0.3,0.1c-0.5-0.5-0.9-1.1-1.4-1.4l0,0
		c-0.2-0.1-0.3-0.3-0.5-0.4c0,0,0,0-0.1-0.1l-0.2,0c-0.3-0.1-0.6-0.2-0.9-0.1c-0.5,0.1-0.9,0.3-1.1,0.5l-10.2,2.1
		c-0.7-0.4-1.4-0.7-2.1-0.9c-0.4-0.1-0.9-0.2-1.3-0.2l14.6-2.9c-0.1-0.2-0.2-0.4-0.4-0.5l-16.5,3.3c-1.3-0.1-2.6-0.4-3.9-0.8
		l17.8-3.6c-1,0.1-2,0.4-3.1,0l-15.8,3.2c-0.9-0.3-1.7-0.7-2.5-1.3l16.1-3.3c-0.2-0.2-0.4-0.3-0.5-0.5l-16.1,3.3
		c-0.6-0.5-1.3-1-1.9-1.3l16.1-3.2c-0.2-0.1-0.5-0.2-0.7-0.2c-0.2,0-0.3-0.1-0.5-0.1l-7.6,1.5c-0.5,0.2-1,0.4-1.5,0.3l-6.7,1.3
		c-3-1.3-6.5-1.2-9.8-0.8c-3.1,0.3-5.9-0.5-8.4,2.3c-1.8,2-2,1.4-2-1.3c0.1-6-3.8-1.9-6,0c-3.2,2.7-6.7,1.7-10.1,0l2.2-0.4
		c0.2-0.2,0.4-0.5,0.6-0.7l-3.6,0.7c-0.8-0.4-1.6-0.8-2.3-1.2l7.6-1.5c0.1-0.2,0.3-0.4,0.5-0.7l-8.8,1.8c-0.1,0-0.1-0.1-0.2-0.1
		c-0.9-0.5-1.8-0.8-2.6-1.1l13-2.6c0.2-0.2,0.3-0.5,0.5-0.7l-14.7,3c-0.3-0.1-0.6-0.2-0.9-0.2c-1.3-0.3-2.6-0.4-3.9-0.4l21.1-4.3
		c0.4-0.3,0.7-0.6,1.1-0.8l-37.4,7.5c-0.2,0-0.3-0.1-0.5-0.1c-0.6-0.1-1.2-0.3-1.8-0.4c-0.8-0.1-1.5-0.2-2.3-0.3l81.5-16.4
		c0.2,0,0.4-0.1,0.6-0.1l6.2-1.3c-0.3-0.1-0.6-0.1-0.9-0.1c-0.4,0-0.7,0-1.1-0.1l-73,14.7c-1.9,1-4.6,1.4-7.3,1.5l-19.4,3.9
		c1.1,0.2,2.3-0.5,3.4-0.5c0.5,0,1,0,1.5,0.1l7.1-1.4c0.6,0.5,1.3,0.9,2,1.4l-4.4,0.9c0.4,0.1,0.9,0.2,1.3,0.3l3.8-0.8
		c0.7,0.4,1.3,0.8,2,1.2l-2.2,0.4c0.5,0.1,1.1,0.2,1.6,0.3l1.3-0.3c3.2,1.6,6.3,2.8,8.4,3c1.1,0.1,2.3,0,3.5-0.1
		c1.8-0.1,3.3,1.2,4.4,2.7c0.9,1.2,0.9,2.5,2.5,2.8c1.1,0.2,2.4,0.4,3.4,0.3c2.8-0.3,6-1.5,8.2,0.5c2,1.6,4.4,2.3,6.6,3.5
		c0.4,0.2,0.8,0.5,1.2,0.8c1,0.7,1.7,2.4,0.8,3.2c-0.4,0.5-0.9,0.9-1.4,1.3c-0.5,0.4-1.1,0.8-1.6,1.1c-0.8,0.5-1.6,0.9-2.2,1.7
		c-0.9,1.4-1.2,3.3-0.6,4.9c0.1,0.2,0.2,0.4,0.3,0.7c0.1-0.1,0.3-0.2,0.4-0.2c2.5-1.5,3-4.1,5.2-5.9c1-0.8,2-1.6,3.1-2.2
		c0-1.5-0.8-3,0.3-4.5c0.5-0.7,1.1-1.4,1.6-1.9c0.8-0.8,1.7-1.1,2.8-1.5c0.4-0.2,0.9-0.3,1.3-0.5c2.2-0.7,4.7-1.1,6.7-1.5
		c3.2-0.6,6.3-1.1,9.6-1c1,0,1.5,0.5,2.3,1.1c0.9,0.7,2.2,0.7,3,1.6c0.3,0.4,0.5,0.9,0.7,1.3c0.2,0.4,0.5,0.7,0.9,1.1
		c0.8,0.9,0.6,1.8-0.1,2.6c-0.4,0.4-0.7,0.9-1.2,1.2c-0.5,0.4-1.4,0.6-2,0.7c-0.6,0.2-1.2,0.3-1.8,0.4c-1.1,0.1-2.2,0.1-3.3,0.2
		c-0.8,0.1-1.9,0.2-2.9,0.5c0.5,0.2,1,0.5,1.6,1c1.3,1,1.8,2.6,3.7,3c2.6,0.6,3-2,5-2.5c2.1-0.5,7.6,2.9,9,4.7
		c0.7,0.9,0.8,1.7,0.5,2.4c0.7-0.1,1.3-0.5,2-1.4c1-1.2,0.7-2.9,1.7-4c0.9-1.2,2.2-0.9,3.3-1.9c2.2-2.1,3.2-4.9,5.7-4.4
		c0.5,0.1,1,0.3,1.7,0.7c3.4,4.6,7.3,7.8,13.1,7.3c0.6,0.1,1.2,0.1,1.8,0.2c1.8,0.2,3.6,0.4,5.4,0.7c1.7,0.3,4.7,0.3,5.9,1.7
		c0.5,0.6,0.5,1.6,0.9,2.2c0.5,0.6,1.3,0.8,1.6,1.1c0.9,1.1,1,2.8,2.3,3.6c1.1,0.8,2.4,0.3,3.6,0.7c1.8,0.7,2.7,2.6,4.2,3.6
		c2.2,1.4,1.6,0,3.3-0.9c1.6-0.9,4.5,0.4,6.4,0.6c1.9,0.2,4.2,3.7,6.4,2.2c1.2-0.8,0.5-2.6,2.4-2.9c2.9-0.5,5.6,0.8,8,2.4
		c0.5,0.4,1.2,0.9,1.8,1.5c-0.2,0.2-0.4,0.4-0.7,0.5l1-0.2c0.5,0.4,0.9,0.7,1.4,0.8l0-1.1l0-0.6l0-3.3c-1.1-0.6-1.8-2.5-1.4-3.7
		C298.4,293.9,298.9,293.5,299.6,293.2z"/>
	<path d="M289.2,220.7c-0.4-0.5-0.8-1.1-1.1-1.5c-1.6-2.2-2.6-3.6-5.6-4.5c-1-0.3-1.9-0.4-2.9-0.4c0,0,0,0-0.1,0
		c-0.4,0-0.8-0.1-1.1-0.1c-0.3-0.1-0.6-0.1-1-0.1c-1.2,0-2.6,1.3-3.6,2.3c1.1,2,1.1,4.5,3.9,6.5c1.5,1.1,3.9,0.8,5.6,1.4
		c2.2,0.8,3.4,1.9,5.8,2c1.7,0.1,2.6-0.5,3.7-1c0,0,0,0,0-0.1c-0.1-0.2-0.1-0.4-0.1-0.6c-0.1-0.5-0.2-0.9-0.4-1.4
		c-0.1-0.1-0.3-0.1-0.4-0.2l0.3-0.1c0-0.2-0.1-0.4-0.1-0.6l-1,0.2C290.4,222,289.8,221.4,289.2,220.7z"/>
	<path d="M291.8,338c-4.1,0.7-8.4,1.4-12.8-0.3c-0.5-0.2-0.3-1.9-0.3-1.9c0.2-0.7,0.7-1.1,1.1-1.3c1.3-0.8,3-1.1,4.7-1.3
		c2.6-0.3,5.2-0.3,7.7-0.2c1.2,0,2.5,0,3.7,0c0.6,0,1.3-0.1,1.9-0.1c0.7,0,1.4-0.1,2.1-0.1l0-2c-1.9-0.1-3.8,0.1-5.6,0.7
		c-2.3,1-4.5,1.1-6.6,0.7l12.2-2.5l0-0.6l-13.6,2.7c-1-0.3-2-0.7-3-1.1l16.5-3.3l0-0.6l-17.5,3.5c-0.3-0.1-0.6-0.2-0.9-0.3
		c-0.8-0.3-1.7-0.5-2.5-0.8l21-4.2l0-0.6l-22.1,4.5c0.1,0,0.1,0.1,0.2,0.1c-0.7-0.2-1.5-0.9-2-1.3c0,0-0.1-0.1-0.1-0.1l24-4.8l0-0.6
		l-24.4,4.9c-0.3-0.3-0.6-0.7-0.8-1.1c-0.1-0.2-0.2-0.3-0.4-0.5l25.6-5.2l0-0.6l-26,5.2c-0.3-0.5-0.7-0.9-1-1.4l26.9-5.4
		c-0.5-0.1-0.9-0.2-1.4-0.3l-25.9,5.2c-0.2-0.2-0.3-0.4-0.5-0.7c-0.3-0.3-0.5-0.6-0.7-0.9l22.1-4.5c-1.3-0.1-2.5,0-3.8,0.2l-5.9,1.2
		c-1.4,0.4-2.7,0.7-4.1,0.8l-8.8,1.8c-0.9-0.9-1.4-0.7-3.3-1.5c-1-0.4-1.5-0.9-2-1.4l4.3-0.9c0,0-0.1-0.1-0.1-0.1
		c-0.1-0.1-0.1-0.3-0.2-0.4l-4.4,0.9c-0.2-0.3-0.5-0.7-0.7-1.1l5-1c0.1-0.2,0.2-0.4,0.3-0.6l-5.6,1.1c0,0,0,0,0,0
		c-0.1-0.2-0.3-0.4-0.4-0.6c-0.2-0.3-0.4-0.6-0.7-0.9l14.2-2.9c0.6-0.3,1.3-0.6,1.9-0.7c0.9-0.2,1.7-0.3,2.5-0.2l18.1-3.6l0-0.6
		l-37.1,7.5c-0.5-0.6-1.1-1.1-1.9-1.3l25.3-5.1c-0.5-0.1-0.9-0.2-1.4-0.3l-25.4,5.1c-1.6-0.1-3,0.3-4.4,0.9l-7.1,1.4
		c0.1,0.2,0.4,0.3,0.9,0.4l4-0.8c-0.5,0.2-0.9,0.4-1.4,0.6c-0.7,0.3-1.5,0.6-2.3,0.8c-4.2,0.9-8.9-2.1-13.4-1.3
		c-2.8,0.5-4.8,2.5-7.8,2.6c-1.6,0-4.1-0.6-5.5-1.5c-0.7-0.4-1.3-1.2-1.9-1.7l58.5-11.8c-0.2-0.2-0.3-0.3-0.5-0.5l-58.7,11.8
		c-0.4-0.1-0.8-0.1-1.4,0c-0.3,0.1-0.5,0.2-0.7,0.4l-4.7,1c0.8,0.1,1.7,0.1,2.5,0.1l1.7-0.3c-0.5,1-0.3,2.5-1,3.5
		c-0.8,1.2-2.9,1.8-4.2,2.1c-2.7,0.8-10.6,0.4-10.9,4.7c-0.2,2.9,3.4,3.6,4.9,4.9c1.4,1.1,3.1,4,2.3,5.9c-0.8,1.8-2.7,1.8-4.1,2.7
		c-1.7,1.1-2,2.7-0.2,3.3c1.5,0.5,3,0,4.1-1.2c2.1-2.4,1.9-6.6,4.2-8.7c2.6-2.3,7.8-3,11.4-3.7c3.5-0.7,18.1-3.8,17.3,5.4
		c-0.3,3.5-6.3,3.1-8.7,3.7c-1.4,0.4-7,1.9-3.8,4.1c0.8,0.5,1.9,0.7,3,0.7c1.7,0,3.6-0.2,4.9,0c1.9,0.3,3.7,0.9,5.6,0.9
		c1.8,0,2.3,0.2,3.7,1.3c1.6,1.2,2.7,1.2,4.7,1.1c1.7-0.1,3,0.7,4.6,0.8c2.2,0.2,2.6-1.2,0.7-2.4c-1.5-1-4-0.4-4.7-2.3
		c-0.9-2.6,2.2-4.6,3.7-6.1c1.1-1.1,2.8-1.9,4.3-2c1.6-0.1,2.8,0.7,4,1.7c1.8,1.6,2.9,3.6,4.3,5.6c1.1,1.7,2.7,3.5,4.8,3.2
		c2.6-0.4,3.5-4,6.2-3.8c1.2,0.1,2.8,1.3,3.9,1.7c2.1,0.8,4.2,1.4,6.4,2.1c0.5,0.2,1,0.4,1.5,0.6c1.4,0.6,2.8,1.4,4.5,2.4
		c1.1,0.7,2.1,1.6,3.2,2.6c0.1,0,0.2,0.1,0.3,0.2c1,1,1.8,1.7,2.6,2.1v-14.2c-0.4-0.1-0.8-0.1-1.2-0.1
		C296.5,337.2,294.2,337.6,291.8,338z"/>
	<path d="M231.7,359.3c-1.2-4.5-11.7-1.3-13.7-1.1c-3.2,0.2-9.4-2.9-12.3-1.5c-0.6,0.3-1.4,1.5-2,2.9c0.1,0.8,0.2,1.6,0,2.3
		c-0.2,1.1-0.8,2-1.6,2.7c-0.6,0.5-1.9,0.7-2.4,1.3c-0.9,1.4,0.4,4-2,4.3c-4.3,0.5-8.1-6-9.2-6c-6.7,0.1-14.2,0.5-21.4-0.8
		c-3-0.6-6-2.5-8.8-3.6c-1.1-0.5-1.9-1.3-3-1.9c-2.1-1.1-1.6,1.1-3,1c-2.1-0.2-2.6-1.9-4.6-2.7c-2.4-1-7.6-2.9-10-3.1
		c-4.4-0.3-7.1,2.3-11.5,1.5c-1.7-0.3-3.3-0.9-4.9-1.4c-0.6-0.2-1.1-0.1-1.7-0.2c-0.8-0.1-1.5-0.6-2.3-0.8c-0.8-0.2-2.2-0.7-3-0.3
		c-1,0.5-0.3,1.1,0.2,1.5c1.7,1.4,4,2,6.1,2.7c1.7,0.6,4,1.2,5.2,2.8c0.6,0.7,0.7,1.5,0.5,2.4c-1.2,4.4-10.1,0.5-13.3,2.2
		c5.9,1.1,14.4,2.7,24.3,4.3c0.8-0.9,1.6-1.8,2.6-2.4c2.3-1.2,5.3-0.9,7.3,0.8c1.4,1.2,1.7,2.1,1.6,3.2c14.1,1.9,29.8,3.6,44.2,3.9
		c0,0,0,0,0,0c0.6,0,1.2,0,1.8,0c0.2,0,0.3,0,0.5,0c0.5,0,0.9,0,1.4,0c0.3,0,0.6,0,0.9,0c0.3,0,0.7,0,1,0c0.6,0,1.2,0,1.9,0
		c5.8-0.1,11.8-0.4,17.9-0.8c-0.7-0.9-1-2.1-0.8-3.4c0.1-0.6,0.3-1.2,0.6-1.8c1.2-2.6,3.5-2.3,5.8-2c-0.1,0-0.1-0.1-0.2-0.1
		C228.1,364.5,232.8,363.8,231.7,359.3C231.7,359.4,231.7,359.4,231.7,359.3z"/>
	<path d="M247.6,363.6c-0.5,1.8-0.9,3.5-1.7,4.3c0,0-0.1,0.1-0.1,0.1c-0.2,0.2-0.3,0.3-0.5,0.5c0,0,0,0-0.1,0.1
		c-0.8,0.7-1.9,1.3-3,1.8c3.4-0.4,6.7-0.8,10-1.2c-0.8-0.5-1.7-1-2.1-2.1c-0.2-0.6-0.4-1.2-0.5-1.6c-0.1-0.7-0.1-1.2,0-1.7
		c0,0,0,0,0,0c0.1-0.5,0.4-0.9,0.7-1.2c1.5-1.4,4.4-1.4,4.6-4.4c-0.9-0.5-1.8-0.8-2.5-0.8C249.4,357,248.4,360.5,247.6,363.6z"/>
	<path d="M265.2,252.9l-9.3,1.9c-0.2,0.2-0.4,0.4-0.5,0.7l11.1-2.2c-0.2-0.1-0.4-0.1-0.6-0.2C265.6,253,265.4,252.9,265.2,252.9z"/>
	<path d="M246.4,261.8l34.7-7c-0.3-0.2-0.7-0.3-1-0.4l-32.9,6.6C247,261.3,246.7,261.5,246.4,261.8z"/>
	<path d="M252.1,258.3l18.7-3.8c-0.4-0.1-0.8-0.2-1.2-0.4l-16.1,3.3C253,257.7,252.6,258,252.1,258.3z"/>
	<path d="M290.8,256.9l-4.5,0.9c0.4,0.1,0.8,0.2,1.2,0.3l4.3-0.9C291.6,257.1,291.3,257,290.8,256.9z"/>
	<path d="M244.6,266.2c0,0.2,0,0.4-0.1,0.6l38.4-7.8c0-0.2,0-0.4,0-0.6L244.6,266.2C244.6,266.2,244.6,266.2,244.6,266.2z"/>
	<path d="M245,264.4l39.6-8c-0.3-0.1-0.6-0.2-1-0.4l-38.5,7.8C245.1,263.9,245.1,264.2,245,264.4z"/>
	<path d="M245.1,270.8c0.1,0.2,0.2,0.4,0.3,0.5l41.5-8.4c-0.2-0.2-0.4-0.3-0.6-0.5L245.1,270.8z"/>
	<path d="M244.5,268.5c0,0.2,0,0.4,0.1,0.6l40-8.1c-0.2-0.2-0.4-0.3-0.5-0.5L244.5,268.5z"/>
	<path d="M291.8,266.6c-0.2-0.1-0.4-0.3-0.7-0.5l-29.9,6c0.3,0.1,0.6,0.3,0.8,0.4L291.8,266.6z"/>
	<path d="M247.1,272.7c0.3,0.1,0.5,0.2,0.9,0.2c0.2,0,0.4,0,0.7,0.1l40.6-8.2c-0.2-0.2-0.4-0.3-0.6-0.5L247.1,272.7z"/>
	<path d="M275.3,273.9c0.4,0.1,0.8,0.2,1.2,0.3c0,0,0,0,0,0l21.2-4.3c-0.2-0.2-0.4-0.3-0.5-0.5L275.3,273.9z"/>
	<path d="M264.2,273.8c0.3,0.1,0.7,0.2,1,0.3c0.1,0,0.3,0,0.4,0l29.8-6c-0.3-0.2-0.6-0.3-0.8-0.4L264.2,273.8z"/>
	<path d="M299.6,273.6l-9.9,2c0.3,0.1,0.7,0.3,1,0.4l8.8-1.8L299.6,273.6z"/>
	<path d="M299.6,271.8c-0.1-0.2-0.3-0.3-0.4-0.5l-13.7,2.8c0.4,0.1,0.8,0.2,1.2,0.4L299.6,271.8L299.6,271.8z"/>
	<path d="M299.6,277.8l-2.2,0.4c0.4,0.1,0.8,0.2,1.2,0.4l1-0.2L299.6,277.8z"/>
	<path d="M299.6,275.5l-6.6,1.3c0.4,0.1,0.7,0.3,1.1,0.4l5.5-1.1L299.6,275.5z"/>
	<path d="M288.8,218.8l2.4-0.5c0-0.2-0.1-0.4-0.1-0.6l-2.1,0.4C288.8,218.4,288.7,218.6,288.8,218.8z"/>
	<path d="M240.9,233.2l26.7-5.4c-0.2,0-0.4,0-0.6,0c-0.7,0-1.4,0-2.2,0l-9.9,2c-1.2,0.7-2.7,1-4.1,0.8l-9.4,1.9
		C241.2,232.7,241.1,232.9,240.9,233.2z"/>
	<path d="M244.7,230l3.1-0.6c-0.3-0.1-0.6-0.2-0.9-0.2C246.1,229.2,245.4,229.6,244.7,230z"/>
	<path d="M289.6,221l2-0.4c0-0.2-0.1-0.4-0.1-0.6l-2.1,0.4C289.5,220.6,289.6,220.8,289.6,221z"/>
	<path d="M240,238l53.5-10.8c-0.1-0.2-0.1-0.4-0.2-0.6l-54.1,10.9C239.4,237.8,239.6,237.9,240,238z"/>
	<path d="M281.1,227c-1.2,0.2-2.5,0.4-3.8,0.5l-37.5,7.6c-0.2,0.2-0.3,0.5-0.4,0.7l45.1-9.1C283.3,226.7,282.1,226.8,281.1,227z"/>
	<path d="M269.3,236.3c0.1,0.1,0.2,0.2,0.3,0.2l4.2-0.8c-0.1-0.2-0.3-0.3-0.5-0.5l-4.3,0.9C269.1,236.2,269.2,236.2,269.3,236.3z"/>
	<path d="M256.1,239.1c0.3-0.2,0.6-0.4,0.9-0.6l-7.7,1.5c0.1,0.2,0.4,0.3,0.7,0.4l5.5-1.1C255.8,239.3,255.9,239.2,256.1,239.1z"/>
	<path d="M286,233.2l8.7-1.7c-0.1-0.2-0.1-0.4-0.2-0.6l-10.8,2.2C284.5,233.1,285.3,233.2,286,233.2z"/>
	<path d="M267.5,234.6l4.6-0.9c0-0.3,0.3-0.5,0.6-0.7l-5.8,1.2C267.1,234.3,267.3,234.4,267.5,234.6z"/>
	<path d="M248.7,238.4l12.8-2.6c0.4-0.2,0.9-0.6,1.4-0.9l-14.6,3C248.5,238,248.6,238.2,248.7,238.4z"/>
	<path d="M278.2,232.5l15.8-3.2c-0.1-0.2-0.1-0.4-0.2-0.6l-17.1,3.5C277.2,232.2,277.7,232.3,278.2,232.5z"/>
	<path d="M293.5,234l1.8-0.4c-0.1-0.2-0.1-0.4-0.2-0.6l-3.4,0.7C292.3,233.9,292.9,233.9,293.5,234z"/>
	<path d="M141,313.6l9-1.8c-0.3-0.2-0.5-0.3-0.8-0.4l-7.4,1.5C141.5,313.1,141.2,313.4,141,313.6z"/>
	<path d="M171.7,311.4c-0.2,0.2-0.4,0.5-0.6,0.7l9.5-1.9c-0.6-0.1-1.1-0.2-1.7-0.2L171.7,311.4z"/>
	<path d="M167.8,317.4l50.8-10.3c-0.6-0.1-1.1-0.2-1.7-0.2l-48.8,9.8C168.1,317,168,317.2,167.8,317.4z"/>
	<path d="M169.3,314.7l16.7-3.4c-0.4-0.1-0.9-0.2-1.3-0.3l-15,3C169.6,314.3,169.4,314.5,169.3,314.7z"/>
	<path d="M192.5,309.5c-0.3,0.3-0.5,0.5-0.8,0.8l17.8-3.6c-1.3,0.1-2.6,0.2-3.8,0.2L192.5,309.5z"/>
	<path d="M196.1,316.3c0.6-0.4,1.4-0.7,2.1-0.9l-48,9.7c0.1,0.2,0.3,0.3,0.4,0.5l45.4-9.2C196,316.4,196.1,316.3,196.1,316.3z"/>
	<path d="M233.2,308.9c-1,0.1-2.1,0.1-3.2,0l-25.8,5.2c0.8,0.1,1.7,0.1,2.5,0.1L233.2,308.9z"/>
	<path d="M242.7,307l32.5-6.6c-0.3,0-0.6-0.1-1-0.1c-0.4,0-0.7,0-1.1-0.1l-26.9,5.4C245.1,306.1,243.9,306.6,242.7,307z"/>
	<path d="M148.6,323.6l12-2.4c-0.3-0.1-0.5-0.3-0.8-0.4l-12.2,2.5C148,323.3,148.3,323.4,148.6,323.6z"/>
	<path d="M223.2,308l-56.6,11.4c-0.2,0.3-0.4,0.5-0.6,0.7l58.8-11.9C224.2,308.1,223.7,308,223.2,308z"/>
	<path d="M255.6,302l6.6-1.3c-1.9,0.2-3.9,0.5-5.7,1C256.2,301.8,255.9,301.9,255.6,302z"/>
	<path d="M142.8,331.2l-11.1,2.2c0.3-0.3,0.5-0.8,0.7-1.6c0-0.1,0-0.2,0-0.3l10.8-2.2c0.1-0.2,0.1-0.4,0.2-0.6l-11,2.2
		c0-0.6-0.1-1.1-0.3-1.7l11.8-2.4c0.1-0.2,0.2-0.4,0.2-0.6l-12.2,2.5c-0.1-0.3-0.2-0.6-0.3-0.9c-0.1-0.2-0.2-0.5-0.3-0.7l13.9-2.8
		c0.2-0.3,0.5-0.6,0.8-0.8l-14.9,3c-0.2-0.6-0.4-1.1-0.5-1.6l13-2.6c1.2,0.5,2.4,0.8,3.6,0.7c0.9-0.1,3.7-1.1,4.8-2.4l5.9-1.2
		c-0.2-0.2-0.4-0.3-0.5-0.5l-4.9,1c0.1-0.4,0.1-0.8-0.3-1.1c-0.1-0.2-0.5-0.3-0.9-0.4l4.6-0.9c-0.1-0.1-0.1-0.1-0.2-0.2
		c-0.1-0.1-0.2-0.2-0.3-0.3l-5.7,1.1c-0.6-0.1-1.2-0.2-1.5-0.4c-0.4-0.2-0.9-0.5-1.3-0.8l7.1-1.4c-0.2-0.2-0.3-0.3-0.5-0.5l-7.3,1.5
		c-0.9-0.6-1.7-1-2.8-1.2l8.7-1.7c-0.2-0.2-0.4-0.3-0.5-0.5l-11.9,2.4c-2,0.3-4.1,0.5-5.7-0.4c-1.6-0.9-2.6-2.8-4.3-3.7
		c-3-1.7-6.7-1.1-10-1.3c0,0.1,0.1,0.1,0.1,0.2c0.8,0.8,1.8,1.3,2.9,1.7l0.2,0.1c1.4,0.6,2.8,1.1,4.1,1.9c0.1,0.1,0.3,0.2,0.4,0.3
		c0.3,0.2,0.5,0.3,0.8,0.4c0.1,0,0.2,0.1,0.4,0.1c0.2,0,0.3,0,0.5,0.1c0.5,0.2,1,0.7,1.3,1.1c0.1,0.1,0.2,0.2,0.3,0.4
		c0.3,0.3,0.5,0.8,0.5,1.1c0,0.2-0.2,0.6-0.6,0.8c-0.4,0.2-0.8,0.1-1.1-0.1l0.9-0.2c-0.4-0.1-0.7-0.1-1.1-0.2c-0.1,0-0.3,0-0.4,0
		c-0.1,0-0.2,0-0.2,0c-0.1,0-0.2,0-0.3,0l-3.1,0.6c-0.5,0.2-1,0.5-1.4,0.9l4.4-0.9c0,0.1,0,0.2,0,0.3c0,0.5,0,1.1-1,1.3
		c-1,0.2-2.1-0.2-2.9-0.5l-0.2-0.1c-1.3-0.5-2.6-1-4.4-1.9c-0.9-0.4-1.8-1-2.6-1.5c-1.8-1.1-3.7-2.2-5.8-2.5
		c-2.2-0.3-4.4,0.1-6.5,0.5l0,9.6l0,0.5c2.2,1.4,2,4.1,3.7,6.3c0.8,1,1.9,3.1,2.9,3.7c1.7,1,3.7-0.4,5.3-0.8
		c1.4-0.3,2.4-0.1,3.4,0.2l-11.5,2.3c-0.4,0.3-0.8,0.6-1.2,0.8l13.6-2.8c0.8,0.4,1.6,0.8,2.6,1.1c0.1,0,0.2,0,0.2,0.1l-19.5,3.9
		l0,0.6l37.8-7.6C142.7,331.6,142.7,331.4,142.8,331.2z"/>
	<path d="M152.9,329.2c0.1,0.2,0.3,0.4,0.4,0.5l31-6.2c0-0.2,0-0.4,0-0.6L152.9,329.2z"/>
	<path d="M231.4,313.3c1.5-0.2,3-0.3,4.5-0.3l44.5-9c-0.1-0.2-0.3-0.3-0.4-0.5L231.4,313.3z"/>
	<path d="M185.5,320.7c0.6-0.3,1.2-0.3,1.8-0.2l6.3-1.3c0.2-0.2,0.4-0.5,0.5-0.7l-42.6,8.6c0.1,0.2,0.2,0.4,0.3,0.5l33.4-6.7
		C185.3,320.8,185.4,320.7,185.5,320.7z"/>
	<path d="M141,336.1l-36.3,7.3l0,0.6l35.9-7.2C140.7,336.5,140.9,336.3,141,336.1z"/>
	<path d="M291.7,306.3l7.8-1.6l0-0.6l-6,1.2C292.9,305.7,292.3,306,291.7,306.3z"/>
	<path d="M185,327.2l-24.2,4.9c0.4,0.1,0.8,0.2,1.3,0.3l23-4.6C185,327.6,185,327.4,185,327.2z"/>
	<path d="M141.9,334.1c0.1-0.2,0.2-0.4,0.2-0.6l-37.3,7.5l0,0.6L141.9,334.1z"/>
	<path d="M184.6,325.5c0-0.2-0.1-0.4-0.1-0.6l-29.7,6c0.3,0.2,0.6,0.3,0.8,0.4L184.6,325.5z"/>
	<path d="M282.1,305.8c-0.2-0.1-0.4-0.3-0.5-0.5l-39.3,7.9c0.7,0.1,1.4,0.1,2.1,0.2L282.1,305.8z"/>
	<path d="M299.5,308.7l-15,3c0.2,0.1,0.4,0.3,0.6,0.5l14.4-2.9L299.5,308.7z"/>
	<path d="M122.8,342l-18.1,3.7l0,0.2c0.5,0,1.1,0,1.6,0.1l13.6-2.7C120.8,342.8,121.8,342.4,122.8,342z"/>
	<path d="M137.2,339.7c0.1-0.1,0.3-0.1,0.4-0.2c0.4-0.2,0.7-0.4,1-0.7l-9.8,2c1.2-0.1,2.4-0.1,3.6-0.1L137.2,339.7z"/>
	<path d="M184.6,330.2c0.1-0.2,0.2-0.4,0.3-0.6l-19.6,4c0.4,0.1,0.8,0.2,1.1,0.4L184.6,330.2z"/>
	<path d="M267.5,319.4c0.3,0.1,0.7,0.3,1,0.4l7.3-1.5c-0.2-0.1-0.5-0.2-0.8-0.4c0,0-0.1,0-0.1,0L267.5,319.4z"/>
	<path d="M294.7,314.5c0.2-0.2,0.3-0.5,0.5-0.7l-7.6,1.5c0.3,0.2,0.6,0.3,1,0.4L294.7,314.5z"/>
	<path d="M299.3,310.6l-13.3,2.7c0.1,0.2,0.2,0.3,0.4,0.5l12.5-2.5C299.1,311.1,299.2,310.9,299.3,310.6z"/>
	<path d="M127.5,215.7l-14.3,2.9c-0.1,0.2-0.1,0.4-0.1,0.6l15.6-3.1C128.3,215.9,127.9,215.8,127.5,215.7z"/>
	<path d="M118.3,215.2l-4.5,0.9c0,0.2-0.1,0.4-0.1,0.6l9-1.8C121.1,214.9,119.7,215,118.3,215.2z"/>
	<path d="M134,219l-22.1,4.5c-0.1,0.2-0.1,0.4-0.2,0.6l22.9-4.6C134.5,219.3,134.2,219.2,134,219z"/>
	<path d="M131.2,217.2l-18.6,3.8c-0.1,0.2-0.1,0.4-0.2,0.6l19.6-3.9C131.7,217.5,131.5,217.4,131.2,217.2z"/>
	<path d="M137.8,222.9l-27.3,5.5c-0.1,0.2-0.1,0.4-0.2,0.6l27.8-5.6C138.1,223.3,138,223.1,137.8,222.9z"/>
	<path d="M136.2,220.9l-24.9,5c-0.1,0.2-0.1,0.4-0.2,0.6l25.6-5.2C136.5,221.2,136.4,221,136.2,220.9z"/>
	<path d="M140.8,226.8l-31.7,6.4c-0.1,0.2-0.1,0.4-0.2,0.6l32.3-6.5C141.1,227.2,140.9,227,140.8,226.8z"/>
	<path d="M139.2,224.8l-29.3,5.9c-0.1,0.2-0.1,0.4-0.2,0.6l29.9-6C139.4,225.2,139.3,225,139.2,224.8z"/>
	<path d="M108.3,238.6l6.3-1.3c0-0.2,0-0.4,0-0.6l-7,1.4C107.9,238.3,108.1,238.5,108.3,238.6z"/>
	<path d="M128.5,234.6l32.7-6.6c-0.3-0.1-0.7-0.3-1-0.4l-32.7,6.6C127.8,234.3,128.1,234.4,128.5,234.6z"/>
	<path d="M121.2,233.7l22.6-4.5c-0.3-0.1-0.5-0.3-0.8-0.4l-34.7,7c-0.1,0.2-0.1,0.4-0.2,0.6l9.2-1.8
		C118.3,234.1,119.7,233.8,121.2,233.7z"/>
	<path d="M166.5,231.1c-0.2-0.2-0.4-0.3-0.6-0.5l-34.5,7c0.1,0.2,0.1,0.4,0.1,0.6L166.5,231.1z"/>
	<path d="M105.7,243.2c0,0.1,0,0.1,0,0.2l8.9-1.8c0.2-0.2,0.3-0.4,0.4-0.7l-9,1.8C105.8,242.9,105.7,243.1,105.7,243.2z"/>
	<path d="M108.5,240.5l6.4-1.3c0-0.2-0.1-0.4-0.1-0.6l-6.1,1.2C108.7,240,108.6,240.2,108.5,240.5z"/>
	<path d="M129.9,235.5c0.2,0.2,0.3,0.3,0.5,0.5l33.4-6.7c-0.3-0.2-0.5-0.3-0.8-0.4L129.9,235.5z"/>
	<path d="M108.3,247.5c-0.1-0.2-0.3-0.3-0.4-0.5l-2.7,0.5l0,0.6L108.3,247.5z"/>
	<path d="M105.1,245.8l1.3-0.3c-0.2-0.2-0.3-0.3-0.5-0.5l-0.7,0.1L105.1,245.8z"/>
	<path d="M132.1,246.6c2-0.1,4.3-0.7,6.6-1.3L132.1,246.6z"/>
	<path d="M111.7,251.4c-0.2-0.2-0.3-0.3-0.5-0.5l-6,1.2l0,0.6L111.7,251.4z"/>
	<path d="M109.8,249.4c-0.1-0.1-0.1-0.1-0.2-0.2c-0.1-0.1-0.2-0.2-0.3-0.3l-4.3,0.9l0,0.6L109.8,249.4z"/>
	<path d="M116.3,254.5l-6.9,1.4c0.5,0.1,1.1,0.2,1.6,0.3l6.2-1.3C116.9,254.8,116.6,254.6,116.3,254.5z"/>
	<path d="M114,253.2c-0.2-0.1-0.4-0.3-0.7-0.5l-8.2,1.6l0,0.6L114,253.2z"/>
	<path d="M131,256.8c-0.8,0-1.4-0.1-2-0.1c-0.2,0-0.5,0-0.7,0l-11.4,2.3c0.1,0.2,0.2,0.3,0.4,0.5L131,256.8z"/>
	<path d="M190.2,244.2l-42,8.5c-0.1,0.2-0.2,0.4-0.3,0.6l43.8-8.8C191.2,244.5,190.7,244.4,190.2,244.2z"/>
	<path d="M206.7,241.5l9-1.8c-1.4-0.1-3.4,0.4-4.5,0.6C209.6,240.6,208.1,241,206.7,241.5z"/>
	<path d="M122,256.2c-0.5-0.1-1-0.2-1.5-0.3l-6,1.2c0.3,0.1,0.6,0.3,0.8,0.4L122,256.2z"/>
	<path d="M148.5,250.9l38.2-7.7c-0.3-0.1-0.7-0.2-1-0.4l-37.1,7.5C148.5,250.5,148.5,250.7,148.5,250.9z"/>
	<path d="M225.2,241.9l-6.3,1.3c0.3,0.1,0.6,0.3,0.9,0.4l5.9-1.2c0,0,0,0,0,0C225.7,242.1,225.5,242,225.2,241.9z"/>
	<path d="M176,251.8c0.4,0,0.9,0.1,1.3,0.3l29.7-6c0.1-0.2,0.2-0.4,0.4-0.7L176,251.8z"/>
	<path d="M211.8,249.7c-0.4-0.1-0.8-0.2-1.2-0.4l-29,5.9c0.2,0.2,0.4,0.3,0.7,0.5L211.8,249.7z"/>
	<path d="M208,248.1c-0.2-0.2-0.4-0.3-0.6-0.5l-28.2,5.7c0.2,0.2,0.4,0.3,0.6,0.5L208,248.1z"/>
	<path d="M231,249.9l-41.1,8.3c0.4,0.1,0.7,0.2,1.1,0.4l40.3-8.1C231.2,250.2,231.1,250,231,249.9z"/>
	<path d="M218.5,250.6c-0.7,0-1.5,0-2.4-0.1l-30.8,6.2c0.4,0.1,0.8,0.2,1.2,0.4L218.5,250.6z"/>
	<path d="M220.7,250.2l8.1-1.6c-0.5-0.1-1-0.2-1.5-0.3l-4.9,1C221.9,249.6,221.3,249.9,220.7,250.2z"/>
	<path d="M229.8,255.4l-3.6,0.7C227.6,256.3,228.8,256.3,229.8,255.4z"/>
	<path d="M197.5,260.1l8.5-1.7c-0.1-0.2-0.3-0.4-0.3-0.5l-9.6,1.9C196.5,259.9,197,260,197.5,260.1z"/>
	<path d="M231.1,252.9c0-0.1,0-0.1,0.1-0.2l-12.3,2.5c0.7,0.1,1.4,0.1,2,0.2l10-2C231,253.2,231.1,253.1,231.1,252.9z"/>
	<path d="M284.5,105.9c-0.1-0.5-0.3-1-0.8-1.6c0.2,0.5,0.3,1,0.5,1.5C284.3,105.9,284.4,105.9,284.5,105.9z"/>
	<path d="M272.8,76.4c0.1,0.7,0.1,3.5-0.5,5.7c1.5,2.1,2.9,4.4,4.3,6.9c2.9-2.8,4.6-6.1,4.2-10.5c0.1-0.6,0.1-1.2,0.2-1.8
		c0.2-1.8,0.4-3.6,0.7-5.4c0.3-1.7,0.3-4.7,1.7-5.9c0.6-0.5,1.6-0.5,2.2-0.9c0.6-0.5,0.8-1.3,1.1-1.6c1-0.8,2.4-1,3.3-1.9l-17.8-5.4
		c0,0.3,0.1,0.6,0.1,0.8c0,1.6-0.3,3.1-0.5,4.6c-0.2,1.2-0.4,2.3-0.5,3.4c-0.1,2.4,0.3,4.8,0.7,7.1
		C272.4,73.2,272.7,74.8,272.8,76.4z"/>
	<path d="M360.8,98.3c0,0.1-0.1,0.1-0.1,0.2c-0.7-4.3-1.4-9-5.8-7.9c0,0,0,0,0,0c-4.5,1.2-1.3,11.7-1.1,13.7
		c0.2,3.2-2.9,9.4-1.5,12.3c0.3,0.6,1.5,1.4,2.9,2c0.8-0.1,1.6-0.2,2.3,0c0,0,0,0,0.1,0l3.5-16.2C360.4,101.2,360.6,99.8,360.8,98.3
		z"/>
	<path d="M250.5,65l-0.6-2.9c-0.1,0.5-0.2,1-0.3,1.5l0.2,1.2L250.5,65z"/>
	<path d="M255.5,67.1l-3.6-17.6l-0.3-0.1l-0.3,0.1l3.5,17.3C255,66.9,255.2,67,255.5,67.1z"/>
	<path d="M252.9,65.9l-2.1-10.2c-0.1,0.6-0.1,1.2-0.2,1.9l1.6,8.1C252.4,65.7,252.6,65.8,252.9,65.9z"/>
	<path d="M260.7,70.1L256.9,51l-0.6-0.2l3.8,18.9C260.3,69.8,260.5,70,260.7,70.1z"/>
	<path d="M258,68.5l-3.7-18.2l-0.6-0.2l3.6,18C257.6,68.2,257.8,68.3,258,68.5z"/>
	<path d="M266.3,74.8l-4.5-22.3l-0.6-0.2l4.4,21.8C265.8,74.3,266.1,74.6,266.3,74.8z"/>
	<path d="M263.4,72.2l-4.1-20.5l-0.6-0.2l4.1,20.1C263,71.8,263.2,72,263.4,72.2z"/>
	<path d="M268,60.2l-1.2-6.2l-0.6-0.2l1.5,7.2C267.7,60.7,267.9,60.4,268,60.2z"/>
	<path d="M268.3,74.3c0-0.2,0-0.4,0.1-0.7l-4.1-20.4l-0.6-0.2l4.5,22.1C268.2,74.9,268.3,74.6,268.3,74.3z"/>
	<path d="M269.5,57c0-0.1,0-0.3,0-0.4l-0.4-1.9l-0.6-0.2l0.7,3.6C269.3,57.7,269.4,57.4,269.5,57z"/>
	<path d="M302.3,105.4l6,29.6l0.6,0.1l-6.3-31.4C302.5,104.2,302.4,104.8,302.3,105.4z"/>
	<path d="M302.3,116.7l2.7,13.2c0.3,0.3,0.5,0.5,0.8,0.8l-3.6-17.8C302.2,114.1,302.3,115.4,302.3,116.7z"/>
	<path d="M311.7,126.2c-0.4-0.6-0.7-1.4-0.9-2.1l2.4,12l0.6,0.1l-2-9.9C311.8,126.3,311.8,126.3,311.7,126.2z"/>
	<path d="M309.6,118.1c0.1-0.8,0.1-1.7,0.1-2.5l-5.3-26.4c0.1,1,0.1,2.1,0,3.2L309.6,118.1z"/>
	<path d="M299.2,63.8l-0.6-0.2l2.5,12.4c0.5,1.2,0.9,2.4,1.3,3.6L299.2,63.8z"/>
	<path d="M303.4,99.1l7.3,36.4l0.6,0.1l-7.7-38C303.6,98.1,303.5,98.6,303.4,99.1z"/>
	<path d="M297.4,66.7l-0.7-3.7l-0.2-0.1c0.2,1,0.4,1.9,0.7,2.8C297.2,66.1,297.3,66.4,297.4,66.7z"/>
	<path d="M308.4,86.4l-4.3-21.1l-0.6-0.2l5.2,25.8C308.6,89.4,308.5,87.9,308.4,86.4z"/>
	<path d="M315.9,135l-1.3-6.3c-0.2-0.2-0.5-0.4-0.7-0.5l1.7,8.5l0.5,0.1C315.8,136.2,315.8,135.6,315.9,135z"/>
	<path d="M322.6,137.3l0.2,0.9l0.6,0.1l-0.2-1.1C323,137.3,322.8,137.3,322.6,137.3z"/>
	<path d="M320.7,137.7l0.3,0.1l0-0.1C320.8,137.7,320.8,137.7,320.7,137.7z"/>
	<path d="M308.9,78l-2.4-12l-0.6-0.2l2.9,14.2C308.8,79.4,308.8,78.7,308.9,78z"/>
	<path d="M325,137.5l0.3,1.3l0.6,0.1l-0.2-1.2C325.4,137.6,325.2,137.5,325,137.5z"/>
	<path d="M322.8,70.9l-11.7-3.5l-0.3-0.1l-1.8-0.6l-0.6-0.2l-0.2-0.1c0.1,0.4,0.3,0.7,0.4,1.1l1.4,7.1c0.2-0.1,0.3-0.4,0.4-0.9
		l-0.8-4c0.2,0.5,0.4,0.9,0.6,1.4c0.3,0.7,0.6,1.5,0.8,2.3c0.9,4.2-2.1,8.9-1.3,13.4c0.5,2.8,2.5,4.8,2.6,7.8c0,1.6-0.6,4.1-1.5,5.5
		c-0.4,0.7-1.2,1.3-1.7,1.9l-7.6-37.6l-0.6-0.2l7.8,38.5c-0.1,0.4-0.1,0.8,0,1.4c0.1,0.3,0.2,0.5,0.4,0.7l1,4.7
		c0.1-0.8,0.1-1.7,0.1-2.5l-0.3-1.7c1,0.5,2.5,0.3,3.5,1c1.2,0.8,1.8,2.9,2.1,4.2c0.8,2.7,0.4,10.6,4.7,10.9
		c2.9,0.2,3.6-3.4,4.9-4.9c1.1-1.4,4-3.1,5.9-2.3c1.8,0.8,1.8,2.7,2.7,4.1c1.1,1.7,2.7,2,3.3,0.2c0.5-1.5,0-3-1.2-4.1
		c-2.4-2.1-6.6-1.9-8.7-4.2c-2.3-2.6-3-7.8-3.7-11.4c-0.7-3.5-3.8-18.1,5.4-17.3c3.5,0.3,3.1,6.3,3.7,8.7c0.4,1.4,1.9,7,4.1,3.8
		c0.5-0.8,0.7-1.9,0.7-3c0-1.7-0.2-3.6,0-4.9c0.3-1.9,0.9-3.7,0.9-5.6c0-1.8,0.2-2.3,1.3-3.7c0.2-0.3,0.4-0.5,0.5-0.8l-16.8-5.1
		L322.8,70.9z"/>
	<path d="M119.8,86c0.3,0.9,0.6,1.8,0.8,2.7c1.7,3.8,1.1,7.9,0.7,11.9c-0.1,1.4-0.2,2.7-0.3,4c0,0.2,0,0.4-0.1,0.6
		c1.1-3.5,2.4-7.1,4-10.7c0.6-1.4,1.2-2.6,1.7-3.9c0.1-0.3,0.3-0.6,0.4-0.9c0.4-0.8,0.8-1.5,1.1-2.2c0.1-0.3,0.3-0.5,0.4-0.8
		c0.4-0.8,0.9-1.5,1.3-2.3c0.1-0.2,0.3-0.5,0.4-0.7c0.4-0.7,0.9-1.3,1.3-2c0.2-0.2,0.3-0.4,0.5-0.6c0.2-0.3,0.5-0.7,0.7-1
		c0.1-1.2,0.2-2.5,0.1-3.8l0.6,2.9c0.2-0.2,0.3-0.4,0.5-0.6l-1.4-7c-0.4-4.4-1.2-11.2-3.1-15l-8.1,2.5c-1,3-1.2,6.6-1.4,8.9
		c-0.4,5-1.9,10.6-1,15.1C119.3,84.1,119.5,85.1,119.8,86z"/>
	<path d="M115.1,128.6c-0.2,0.8-0.5,1.6-0.6,2.4l0,0C114.7,130.2,114.9,129.4,115.1,128.6z"/>
	<path d="M68.8,136.2c0,0.2-0.1,0.3-0.2,0.5l0.9,4.3l0.6-0.1l-1.1-5.4C68.9,135.7,68.8,136,68.8,136.2z"/>
	<path d="M95.6,112.7c-0.5-6.2-3.3-4-6.1,0l-5.6-28c-0.2,0.1-0.3,0.3-0.5,0.4l5.7,28.2c-0.5,0.7-0.9,1.4-1.3,2.1l-5.8-29
		c-0.2,0.1-0.3,0.3-0.5,0.4l5.9,29.3c-0.4,0.7-0.9,1.5-1.3,2.2L79.8,88c-0.2,0.1-0.3,0.2-0.5,0.3l6.2,30.8c-0.5,0.8-0.9,1.6-1.3,2.3
		l-6.5-32.1c-0.1,0.1-0.3,0.2-0.4,0.3c0.5-1.4,0.3-3,0.8-4.4c0.4-1.1,0.9-2,1.3-2.8c0.4-0.9,0.7-1.8,0.7-3c-0.4-1.1-0.7-2.3-1-3.5
		c-0.2-0.6-0.3-1.2-0.4-1.8c-0.2-0.7-0.4-1.3-0.4-2l-7.3,2.2c-0.2,0.5-0.3,1-0.3,1.5c-0.2,1.7,0.8,3.4,0.6,5.1
		c-0.8,6-8.2-3.8-9.7,4.4c-1,5.2,1.5,8.7,1.3,13.6c-0.1,1.9-0.6,4.2-0.4,6.1c0.1,1.5,0.7,1.4,1.7,2.3c1.5,1.5,1.2,4.7,1.2,6.6
		c0,2.6,0.5,5.1,1.5,7.6c0.2,0.6,2.8,3.7,4.4,5.6c-0.1,0.2-0.1,0.4-0.2,0.6l1.4,6.7c0.1-0.3,0.2-0.8,0.3-1.4l0-0.2
		c0.5,1.1,1.6,1.8,3.3,1.6c0.3,1.1,0.5,2.1,0.3,3.2c-0.2,0.8-0.5,1.4-0.8,2l2.9-0.6c0.8-1.3,1.6-2.6,2.4-3.8c2-3.2,6.6-8,10.2-12.7
		l2,9.8c0-1.1,0-2.2-0.1-3.3l-1.5-7.2c0.5-0.6,0.9-1.3,1.3-1.9l0.4,2.2c0.1-0.2,0.3-0.4,0.5-0.6l-0.5-2.3c0.5-0.8,0.9-1.5,1.3-2.3
		l2.2,11c0.3,0.5,0.6,0.9,0.9,1.4l-2.7-13.3C95.4,115,95.7,113.8,95.6,112.7z"/>
	<path d="M137.5,75l-3.1-15.2c-0.2,0-0.4-0.1-0.6-0.1l3.2,15.8C137.2,75.3,137.3,75.2,137.5,75z"/>
	<path d="M135.5,77L132,59.7c-0.2,0-0.4,0-0.6,0.1l3.6,17.8C135.2,77.4,135.4,77.2,135.5,77z"/>
	<path d="M140.9,68.7l-1.4-6.8c-0.2-0.2-0.4-0.4-0.7-0.5l1.7,8.5C140.6,69.5,140.8,69.1,140.9,68.7z"/>
	<path d="M139.1,73.6c0.1-0.2,0.2-0.4,0.3-0.6l-2.5-12.5c0,0-0.1,0-0.1,0c-0.2-0.1-0.4-0.1-0.5-0.2l2.7,13.5
		C139,73.7,139.1,73.6,139.1,73.6z"/>
	<path d="M67.2,140.9l0.1,0.6l0.6-0.1l-0.3-1.6C67.4,140.2,67.3,140.5,67.2,140.9z"/>
	<path d="M69.9,131.7l1.6,7.7c0.1-0.5,0.2-1.1,0.3-1.6l-1.5-7.4C70.2,130.8,70,131.2,69.9,131.7z"/>
	<path d="M88.8,135.8l0.2,0.9l0.6-0.1l-0.4-2C89.1,135,89,135.4,88.8,135.8z"/>
	<path d="M89.9,127.8c0,0.6,0,1.1-0.1,1.7l1.4,6.8l0.6-0.1l-1.8-9.1C89.9,127.2,89.9,127.5,89.9,127.8z"/>
	<path d="M90.9,96.9l-3.5-17.3c-0.1,0.3-0.3,0.6-0.4,0.9l3.4,16.9C90.6,97.2,90.7,97.1,90.9,96.9z"/>
	<path d="M89.1,99.8l-3.4-17.1c-0.2,0.2-0.3,0.4-0.5,0.6l3.6,17.9C88.9,100.7,89,100.2,89.1,99.8z"/>
	<path d="M95.6,98l-5.2-25.7c-0.1,0.2-0.1,0.4-0.2,0.5c-0.1,0.2-0.1,0.4-0.2,0.6l4.7,23.4C95.1,97.2,95.4,97.6,95.6,98z"/>
	<path d="M102.3,133.7l0.2,0c-0.1-0.1-0.2-0.3-0.3-0.4L102.3,133.7z"/>
	<path d="M92.9,95.9l-3.9-19.5c-0.1,0.3-0.3,0.6-0.4,0.9l3.8,18.7C92.5,96,92.7,95.9,92.9,95.9z"/>
	<path d="M98.7,125.6c-0.1-0.8-0.3-1.9-0.4-2.9l-0.4-1.9c-0.3-1.1-0.6-2.2-1.2-3l3.3,16.4l0.6-0.1l-0.8-4.2
		C99.1,128.6,99,127.1,98.7,125.6z"/>
	<path d="M100.5,99l-6.4-31.7l-0.6,0.2l6.4,31.8C100.2,99.2,100.3,99.1,100.5,99z"/>
	<path d="M98.3,99.8L91.9,68l-0.6,0.2l6.4,31.5C97.9,99.8,98.1,99.8,98.3,99.8z"/>
	<path d="M101.5,77.9l-2.4-12L98.5,66l2.6,12.9C101.2,78.6,101.4,78.2,101.5,77.9z"/>
	<path d="M101.3,90c-0.1-0.2-0.3-0.4-0.4-0.6l1.6,7.8c0.1-0.1,0.1-0.3,0.2-0.4c0.1-0.2,0.1-0.4,0.2-0.5l-1.1-5.5
		C101.6,90.5,101.4,90.3,101.3,90z"/>
	<path d="M99.7,83.1c0.1-0.3,0.2-0.6,0.3-1l-3.1-15.5l-0.6,0.2l3.3,16.5C99.6,83.2,99.7,83.1,99.7,83.1z"/>
	<path d="M103.5,64.5l-0.6,0.2l1.4,7.1c0.1-0.3,0.3-0.6,0.4-0.9L103.5,64.5z"/>
	<path d="M100.7,65.4l2,9.9c0.1-0.3,0.3-0.6,0.4-0.9l-1.8-9.2L100.7,65.4z"/>
	<path d="M107.6,64.4c0.1-0.2,0.2-0.5,0.3-0.7l-0.1-0.4l-0.6,0.2l0.3,1.3C107.5,64.6,107.5,64.5,107.6,64.4z"/>
	<path d="M106.1,68.2c0.1-0.2,0.1-0.3,0.2-0.5l-0.8-3.8l-0.6,0.2l0.9,4.5C105.9,68.5,106,68.3,106.1,68.2z"/>
	<path d="M513,48.1c-0.5,2-1.1,4-1.6,6l9.7-6.2C519.3,47.9,515.3,48,513,48.1z"/>
	<path d="M457.5,130.9c0.3-0.9,0.5-1.7,0.7-2.7c0.1-0.4,0.2-0.7,0.3-1.1c0-0.1,0-0.2,0.1-0.3c0.1-0.7,0.3-1.5,0.5-2.3
		c0-0.2,0.1-0.5,0.1-0.7c0.6-2.7,1.2-5.8,2-9.2c0.8-3.3,1.7-6.8,3-10.4c0.2-1.6,0.5-3.3,1.3-4.2c0.1-0.1,0.2-0.2,0.3-0.2
		c0.2-0.4,0.3-0.8,0.5-1.3c0.3-0.8,0.6-1.6,1-2.3c1.7-4,3.7-7.7,6-11.1l-0.3-1.3c0.1-1,0.4-1.9,0.8-2.9c0.1-0.1,0.1-0.3,0.2-0.4
		l0.5,2.7c0.2-0.2,0.3-0.4,0.5-0.6l-0.6-2.9c0.4-0.7,0.7-1.4,0.9-2.1c0.1-0.4,0.2-0.9,0.2-1.3l0.9,4.4c0.2-0.2,0.3-0.4,0.5-0.6
		l-1.2-6.1c0.1-1.3,0.4-2.6,0.8-3.9l1.7,8.5c0.2-0.2,0.3-0.4,0.5-0.5l-1.8-9.1c0.3-0.9,0.7-1.7,1.3-2.5l2,10
		c0.2-0.2,0.3-0.3,0.5-0.5l-2-10.1c0.5-0.6,1-1.3,1.3-1.9l2.1,10.6c0.2-0.2,0.3-0.3,0.5-0.5l-0.6-2.8c-0.2-0.5-0.4-1-0.3-1.5
		l-1.3-6.7c1.1-2.7,1.2-5.7,0.9-8.6l-9.8,3c0.2,1.8,0.4,3.6,0.3,5.4c0,1-0.5,1.5-1.1,2.3c-0.7,0.9-0.7,2.2-1.6,3
		c-0.4,0.3-0.9,0.5-1.3,0.7c-0.4,0.2-0.7,0.5-1.1,0.9c-0.9,0.8-1.8,0.6-2.6-0.1c-0.4-0.4-0.9-0.7-1.2-1.2c-0.4-0.5-0.6-1.4-0.7-2
		c-0.2-0.6-0.3-1.2-0.4-1.8c-0.1-1.1-0.1-2.2-0.2-3.3c0-0.2,0-0.5-0.1-0.8l-2.8,0.8c-0.7,0.6-1.4,1.3-1.6,2.4c-0.6,2.6,2,3,2.5,5
		c0.5,2.1-2.9,7.6-4.7,9c-0.9,0.7-1.7,0.8-2.4,0.5c0.1,0.7,0.5,1.3,1.4,2c1.2,1,2.9,0.7,4,1.7c1.2,0.9,0.9,2.2,1.9,3.3
		c2.1,2.2,4.9,3.2,4.4,5.7c-0.1,0.5-0.3,1-0.7,1.7c-4.6,3.4-7.8,7.3-7.3,13.1c-0.1,0.6-0.1,1.2-0.2,1.8c-0.2,1.8-0.4,3.6-0.7,5.4
		c-0.3,1.7-0.3,4.7-1.7,5.9c-0.6,0.5-1.6,0.5-2.2,0.9c-0.6,0.5-0.8,1.3-1.1,1.6c-1.1,0.9-2.8,1-3.6,2.3c-0.8,1.1-0.3,2.4-0.7,3.6
		c-0.7,1.8-2.6,2.7-3.6,4.2c-1.2,1.8-0.4,1.7,0.5,2.7L457.5,130.9L457.5,130.9z"/>
	<path d="M496.8,63.3l0.3-0.2l-2.6-12.7l-0.6,0.2l2.6,12.8C496.6,63.4,496.7,63.4,496.8,63.3z"/>
	<path d="M428,80c-0.1-0.3-0.2-0.5-0.4-0.7l-1-4.7c-0.1,0.8-0.1,1.7-0.1,2.5l0.3,1.7c-1-0.5-2.5-0.3-3.5-1c-1.2-0.8-1.8-2.9-2.1-4.2
		c-0.1-0.2-0.1-0.5-0.2-0.8l-10.3,3.1c1.3,2.7,1.9,6.5,2.5,9.4c0.7,3.5,3.8,18.1-5.4,17.3c-3.5-0.3-3.1-6.3-3.7-8.7
		c-0.4-1.4-1.9-7-4.1-3.8c-0.5,0.8-0.7,1.9-0.7,3c0,1.7,0.2,3.6,0,4.9c-0.3,1.9-0.9,3.7-0.9,5.6c0,1.8-0.2,2.3-1.3,3.7
		c-1.2,1.6-1.2,2.7-1.1,4.7c0.1,1.7-0.7,3-0.8,4.6c-0.2,2.2,1.2,2.6,2.4,0.7c1-1.5,0.4-4,2.3-4.7c2.6-0.9,4.6,2.2,6.1,3.7
		c1.1,1.1,1.9,2.8,2,4.3c0.1,1.6-0.7,2.8-1.7,4c-1.6,1.8-3.6,2.9-5.6,4.3c-1.7,1.1-3.5,2.7-3.2,4.8c0.4,2.6,4,3.5,3.8,6.2
		c-0.1,1.1-1,2.4-1.5,3.5l3.3-0.7c0.1-0.5,0.3-1,0.5-1.5c0.2-0.5,1.9-0.3,1.9-0.3c0.6,0.2,1,0.6,1.2,1l5.3-1.1l0.6-0.1l-0.1-0.7
		c0,0.1-0.1,0.1-0.1,0.2c0.2-0.7,0.9-1.5,1.3-2c0,0,0.1-0.1,0.1-0.1l0.4,2.2l0.6-0.1l-0.5-2.5c0.3-0.3,0.7-0.6,1.1-0.8
		c0.2-0.1,0.3-0.2,0.5-0.4l0.7,3.3l0.6-0.1l-0.7-3.6c0.5-0.3,0.9-0.7,1.4-1l0.9,4.3l0.6-0.1l-0.9-4.6c0.2-0.2,0.4-0.3,0.7-0.5
		c0.3-0.3,0.6-0.5,0.9-0.7l1.1,5.4l0.6-0.1l-1.2-5.8c0.9-0.9,0.7-1.4,1.5-3.3c0.4-1,0.9-1.5,1.4-2l0.9,4.3c0,0,0.1-0.1,0.1-0.1
		c0.1-0.1,0.3-0.1,0.4-0.2l-0.9-4.4c0.3-0.2,0.7-0.5,1.1-0.7l1,5c0.2,0.1,0.4,0.2,0.6,0.3l-1.1-5.6c0,0,0,0,0,0
		c0.2-0.1,0.4-0.3,0.6-0.4c0.3-0.2,0.6-0.4,0.9-0.7l2.4,12l0.6-0.1l-2.5-12.3c0.6-0.5,1.1-1.1,1.3-1.9l2.8,13.9l0.6-0.1l-3.1-15.2
		c0.1-1.6-0.3-3-0.9-4.4l-1.4-7.1c-0.2,0.1-0.3,0.4-0.4,0.9l0.8,4c-0.2-0.5-0.4-0.9-0.6-1.4c-0.3-0.7-0.6-1.5-0.8-2.3
		c-0.9-4.2,2.1-8.9,1.3-13.4c-0.5-2.8-2.5-4.8-2.6-7.8c0-1.6,0.6-4.1,1.5-5.5c0.4-0.7,1.2-1.3,1.7-1.9l10.7,52.8l0.6-0.1L428,81.3
		C428.2,80.9,428.2,80.5,428,80z"/>
	<path d="M434.5,78.9l-1.9-9.6l-0.6,0.2l2.3,11.2C434.3,80,434.4,79.4,434.5,78.9z"/>
	<path d="M434.6,68.6l-0.4,0.1l0.5,2.7C434.7,70.5,434.7,69.5,434.6,68.6z"/>
	<path d="M432.5,91.9l-4.3-21.4l-0.6,0.2l4.9,24.4C432.5,94,432.4,93,432.5,91.9z"/>
	<path d="M434.5,104.6l6,29.8l0.6-0.1l-5.3-26.1C435.3,107,434.9,105.8,434.5,104.6z"/>
	<path d="M433.5,85.1l-3.1-15.2l-0.6,0.2l3.3,16.6C433.3,86.1,433.4,85.6,433.5,85.1z"/>
	<path d="M439.7,118.4c-0.1-0.3-0.2-0.6-0.3-0.9l1.3,6.6C440.6,122.2,440.3,120.2,439.7,118.4z"/>
	<path d="M428.4,97.8l7.6,37.6l0.6-0.1l-8.5-42C428.3,94.8,428.4,96.3,428.4,97.8z"/>
	<path d="M428,106.2l6,29.6l0.6-0.1l-6.4-31.6C428.1,104.8,428,105.5,428,106.2z"/>
	<path d="M421.6,130.4l1.5,7.3c0.1-0.2,0.2-0.5,0.4-0.8c0,0,0-0.1,0-0.1l-1.5-7.4C421.9,129.7,421.7,130.1,421.6,130.4z"/>
	<path d="M497.2,52.1l-0.5-2.3l-0.6,0.2l0.7,3.7C497,53.1,497,52.6,497.2,52.1z"/>
	<path d="M495,64.4l-2.7-13.3l-0.6,0.2l2.7,13.4C494.6,64.6,494.8,64.5,495,64.4z"/>
	<path d="M491,67.1l-3-14.6l-0.6,0.2l3,14.8C490.7,67.3,490.8,67.2,491,67.1z"/>
	<path d="M493.1,65.7l-2.8-13.9l-0.6,0.2l2.8,14.1C492.7,65.9,492.9,65.8,493.1,65.7z"/>
	<path d="M487,70.2l-3.3-16.4l-0.6,0.2l3.4,16.6C486.6,70.4,486.8,70.3,487,70.2z"/>
	<path d="M489,68.6l-3.1-15.4l-0.6,0.2l3.2,15.7C488.7,68.8,488.8,68.7,489,68.6z"/>
	<path d="M483,67.9c0.2-0.1,0.4-0.3,0.5-0.3l-1.9-9.6c-0.1,0.5-0.2,1-0.3,1.4L483,67.9z"/>
	<path d="M657.6,95.9l-6-29.7L651,66l6.1,30.2C657.3,96.2,657.4,96,657.6,95.9z"/>
	<path d="M641.3,71.5c0.5,6.2,3.3,4,6.1,0l5.6,28c0.2-0.1,0.3-0.3,0.5-0.4l-5.7-28.2c0.5-0.7,0.9-1.4,1.3-2.1l5.8,29
		c0.2-0.1,0.3-0.3,0.5-0.4L649.7,68c0.4-0.7,0.8-1.4,1.2-2l-6.6-2c0,0-0.1,0.1-0.1,0.1l0-0.1l-0.6-0.2l0.2,1
		c-0.5,0.8-0.9,1.5-1.3,2.3l-0.8-3.8l-0.6-0.2l1,4.9C641.5,69.3,641.2,70.5,641.3,71.5z"/>
	<path d="M674,85.1c0.1-1.9,0.6-4.2,0.4-6.1c-0.1-1.5-0.7-1.4-1.7-2.3c-1-1-1.2-2.9-1.2-4.5l-7.1-2.1c0.5,1.3,0.9,2.7,1.3,4.2
		c0.6,2.5,0.9,5.1,0.5,7.7l-2.4-12.1l-0.6-0.2l2.8,13.9c-0.2,1.2-0.6,2.3-1.1,3.4l-3.6-17.8l-0.6-0.2l3.8,18.8
		c-0.3,0.7-0.7,1.3-1.2,1.9l-4.3-21.3l-0.6-0.2l4.5,22.1c-0.2,0.3-0.5,0.6-0.7,0.8c-0.2,0.3-0.5,0.5-0.7,0.7l-4.9-24.2l-0.6-0.2
		l5,24.9c-0.5,0.6-1,1.2-1.3,2L654.1,67l-0.6-0.2l5.7,28.1c0.1-0.1,0.3-0.2,0.4-0.3c-0.5,1.4-0.3,3-0.8,4.4c-0.4,1.1-0.9,2-1.3,2.8
		c-0.4,0.9-0.7,1.8-0.7,3c0.4,1.1,0.7,2.3,1,3.5c0.2,0.6,0.3,1.2,0.4,1.8c0.8,2.4,0.5,5-1.4,6.8c-3.4,3.8-5.7,7.8-7.5,12.1
		c-0.2,0.5-0.5,0.9-0.7,1.4c-0.5,1.2-1,2.4-1.3,3.5l13.1,2.9c0.2-1.7,0.3-3.5,0-5.3c-0.1-0.7-0.2-1.4-0.3-2c-0.7-5,0.4-9.9,3.3-14.3
		c0.3-0.5,0.6-1,0.8-1.5c0.7-1.5,1.8-3.5,2-5.2c0.2-1.7-0.8-3.4-0.6-5.1c0.8-6,8.2,3.8,9.7-4.4C676.3,93.6,673.8,90.1,674,85.1z"/>
	<path d="M697.5,80c-1.1,2.4-1.5,4.7,0.2,7c1.3,1.7,5,0.7,5.8,3.2c1.1,3.2-1.9,7.1-4.1,10.5c-3.6,5.7-15.4,16.4-14.9,22.3
		c0.2,2.3,0.7,3.4,1.4,3.7l3.3,16.3l0.6,0.1l-3.3-16.4c0.5-0.1,1-0.4,1.6-0.9l3.6,17.7l0.6,0.1l-3.7-18.3c0.4-0.4,0.8-0.9,1.3-1.5
		l3.8,19c0.1-0.5,0.2-1,0.3-1.5l-3.7-18.1c0.5-0.6,0.9-1.3,1.4-2l3.3,16.2c0,0,0-0.1,0-0.1c0.1-0.4,0.2-0.7,0.3-1l-3.2-15.8
		c2.4-3.7,4.5-7.9,5.2-8.8c2.1-2.7,5.6-2.6,7-5c1.8-3-1.2-5.8-0.4-8.6c0.8-2.8,2.5-4.4,4.2-5.7l2-8.8L697.5,80z"/>
	<path d="M696.4,135.9c-0.7,2.8-1.5,5.6-2.1,8.3l2.1,0.5l4.4-19.9c-0.4,0.4-0.7,0.9-0.9,1.2C698.3,129,697.3,132.5,696.4,135.9z"/>
	<path d="M590.1,60.3l1.1,0.7c0.2-0.2,0.5-0.4,0.7-0.7l0.3,1.3l0.7,0.5l-0.5-2.4c0-0.1,0.1-0.1,0.1-0.2c0.1-0.2,0.3-0.5,0.4-0.8
		c0.1-0.2,0.2-0.5,0.4-0.7l1,5c0,0,0,0,0,0l0,0l0.2,0.2c0.2,0.1,0.3,0.2,0.5,0.3l0-0.1c0.3-0.2,0.5-0.5,0.8-0.7
		c0.2-0.2,0.3-0.5,0.5-0.7c0-0.1,0.1-0.1,0.1-0.2l0.6,2.9c0.2,0.1,0.5,0.3,0.7,0.5l-0.8-4c0.4-0.6,0.9-1.1,1.4-1.6l1.3,6.5
		c-0.1,0.1-0.1,0.1-0.2,0.2c0.1,0.1,0.2,0.1,0.3,0.2c0.2,0.2,0.5,0.3,0.7,0.5c0.7,0.5,1.4,1,2.1,1.6c0.2,0.2,0.5,0.4,0.7,0.5
		c0.6,0.5,1.3,1,1.9,1.6c0.2,0.2,0.5,0.4,0.7,0.6c0,0,0,0,0,0c0,0,0,0,0-0.1l0.1-0.1c0.7-1.1,1.5-2,2.3-2.9c0.5-0.6,1.1-1.2,1.6-1.9
		c0.5-0.7,1.3-1.7,2.7-1.2l0.1,0l0,0.1c0.1,0.2,0.1,0.5,0.1,0.7c0,0.7-0.3,1.5-0.5,2.2c-0.1,0.3-0.2,0.5-0.3,0.7
		c-0.1,0.5-0.3,0.9-0.4,1.4c-0.3,1.3-0.7,2.7-1.5,3.9c-0.1,0.2-0.3,0.4-0.4,0.6c2.2,2.2,4.2,4.6,6.1,7.1c0.1-0.8,0.1-1.7,0.2-2.5
		c0.3-4,0.9-8.1,2-12.2c0.9-3.2,2.3-6.7,3.4-10.2l-9.7-2.9l-0.6-0.2l-0.5-0.1c0,0.3,0,0.5,0,0.8c-0.1,1-0.3,1.9-0.5,2.7l-0.8-3.9
		l-0.6-0.2l1,5c-0.4,0.7-0.9,1.3-1.4,1.6l-1.4-7.2l-0.6-0.2l1.5,7.6c-0.5,0.2-1.1,0.4-1.6,0.3l-1.7-8.5l-0.6-0.2l1.7,8.6
		c-0.7-0.1-1.4-0.5-2-1l-1.1-5.3c0.3-0.7,0.5-1.5,1-2.1c0.1-0.1,0.1-0.2,0.2-0.3l-1.7-0.5L601,51l-1.7-0.5l-0.6-0.2l-1.9-0.6
		l-0.6-0.2l-2.5-0.8l-0.3-0.1c-1.3-0.1-3.6-0.2-6.4-0.3c-1,0.8-2,1.6-2.8,2.6c-1,1.2-1.6,2.5-2.1,3.9l7.3,5L590.1,60.3z"/>
	<path d="M701.2,110.8l1.3,6.6l0.3-1.4l-1.1-5.4C701.6,110.6,701.4,110.7,701.2,110.8z"/>
	<path d="M703.4,110l0.4,1.8l0.3-1.4l-0.1-0.6C703.8,109.9,703.6,110,703.4,110z"/>
	<path d="M700.1,125.4l-1.9-9.5c-0.1,0.2-0.3,0.4-0.5,0.6l2,9.7C699.8,126,700,125.7,700.1,125.4z"/>
	<path d="M699.4,113l1.9,9.6c0.1-0.2,0.1-0.3,0.2-0.5l0.2-0.7l-1.9-9.2C699.6,112.4,699.5,112.7,699.4,113z"/>
	<path d="M693.6,119l2.9,14.4c0.1-0.3,0.3-0.6,0.4-1l-2.8-13.6C693.9,118.9,693.8,119,693.6,119z"/>
	<path d="M695.7,118.1l2.3,11.6c0.1-0.3,0.3-0.6,0.4-0.9l-2.2-11.1C696.1,117.9,695.9,118,695.7,118.1z"/>
	<path d="M684,140.4l0.3,1.5l0.6,0.1l-0.5-2.6C684.3,139.8,684.2,140.1,684,140.4z"/>
	<path d="M683.2,124.6l1.1,5.2c0,0.1,0.1,0.1,0.1,0.2c0.9,1.7,1.3,3.4,1.2,5.3c0,0.2,0,0.3-0.1,0.5l1.4,6.8l0.6,0.1l-3.7-18.5
		C683.5,124.3,683.4,124.4,683.2,124.6z"/>
	<path d="M649.9,103.7l-3.4-16.9c-0.2,0.2-0.3,0.3-0.5,0.5l3.5,17.3C649.6,104.3,649.7,104,649.9,103.7z"/>
	<path d="M651.7,100.9l-3.6-17.9c-0.1,0.5-0.2,0.9-0.3,1.4l3.4,17.1C651.3,101.3,651.5,101.1,651.7,100.9z"/>
	<path d="M641.2,86.2l5.2,25.7c0.1-0.2,0.1-0.4,0.2-0.5c0.1-0.2,0.1-0.4,0.2-0.6L642,87.4C641.7,87,641.5,86.6,641.2,86.2z"/>
	<path d="M644,88.3l3.9,19.5c0.1-0.3,0.3-0.6,0.4-0.9l-3.8-18.7C644.4,88.2,644.2,88.3,644,88.3z"/>
	<path d="M640.2,66.4l-0.8-3.9l-0.6-0.2l0.2,1C639.2,64.5,639.6,65.5,640.2,66.4z"/>
	<path d="M636.3,85.2l8.9,44.2c0.1-0.1,0.1-0.3,0.2-0.4c0.1-0.2,0.1-0.3,0.2-0.5l-8.8-43.6C636.7,85,636.5,85.1,636.3,85.2z"/>
	<path d="M646.3,121c-0.2-1.1-0.4-2.2-0.4-3.4l-6.7-33.2c-0.2,0-0.4-0.1-0.6,0l8.2,40.4c0-0.6-0.1-1.2-0.2-1.8
		C646.5,122.4,646.4,121.7,646.3,121z"/>
	<path d="M635.4,106.4l5.3,26l0.6,0.1l-5.5-27.2C635.6,105.7,635.5,106,635.4,106.4z"/>
	<path d="M635.6,94.2c0.1,0.2,0.3,0.4,0.4,0.6l-1.6-7.8c-0.1,0.1-0.1,0.3-0.2,0.4c-0.1,0.2-0.1,0.4-0.2,0.5l1.1,5.5
		C635.3,93.7,635.4,94,635.6,94.2z"/>
	<path d="M637.2,101.2c-0.1,0.3-0.2,0.6-0.3,1l6.2,30.8l0.6,0.1l-6.5-32.1C637.2,101,637.2,101.1,637.2,101.2z"/>
	<path d="M636.3,131.5l-3.8-19c-0.1,0.3-0.3,0.6-0.4,0.9l3.6,18.1L636.3,131.5z"/>
	<path d="M638.8,132l-4.6-23c-0.1,0.3-0.3,0.6-0.4,0.9l4.4,22L638.8,132z"/>
	<path d="M633,127.4c0.3,1.2,0.6,2.4,0.9,3.5l0.2,0l-3.1-15.4c-0.1,0.1-0.1,0.3-0.2,0.4c-0.1,0.1-0.1,0.3-0.2,0.4
		c0.7,2.7,1.2,5.3,1.7,7.7C632.5,125.3,632.8,126.4,633,127.4z"/>
</g>
</svg>
