<?xml version="1.0" encoding="utf-8"?>
<!-- Generator: Adobe Illustrator 25.3.0, SVG Export Plug-In . SVG Version: 6.00 Build 0)  -->
<svg version="1.1" id="Layer_1" xmlns="http://www.w3.org/2000/svg" xmlns:xlink="http://www.w3.org/1999/xlink" x="0px" y="0px"
	 viewBox="0 0 750.2 400.1" style="enable-background:new 0 0 750.2 400.1;" xml:space="preserve">
<g>
	<path d="M115.5,70.7c-0.9,4.6-1.6,10.1-2.1,15.8c0,0.2,0,0.5-0.1,0.7c1.9-0.4,3.8-1,5.7-1.6c3.6-1.1,7.1-1.6,10.8-0.4
		c0.5-0.1,1-0.2,1.5-0.4c-0.2,0.3-0.3,0.5-0.5,0.8c1.8-0.4,3.6-0.8,5.4-1.2c2.6-0.5,4.6,0.7,6.3,2.6c0.1,0.1,0.2,0.3,0.3,0.4
		c0.1,0.3,0,0.6-0.2,0.9c-0.4,0.7-1.1,0.6-1.7,0.5c-1.6-0.3-3.1-1-4.7-0.2c0.2,0.2,0.4,0.3,0.7,0.4c-0.1,0-0.2,0.1-0.3,0.1
		c2.3,1.6,4.6,2.7,7.4,2.3c0.8-0.1,1.6,0,2.4,0.3c0.4,0.1,0.7,0.4,0.9,0.7c0.1,0.3,0.1,0.5,0.1,0.9c0,1.1-0.8,1.4-1.6,1.6
		c-1.7,0.5-3.4,0.5-5.1,0.8c-1.1,0.1-2.5,0.1-2.8,1.5c-0.2,0.8,0,1.3,0.4,1.8c0.3,0.7,1.1,1.2,1.8,1.6c3.2,2.1,6.5,3,10.1,1.5
		c0.8-0.4,1.7-0.6,2.7-0.5c0.9,0.1,1.5-0.3,1.9-1.3c1-3,3-4.3,5.9-3.2c3.2,1.2,5.8,3.1,7.3,6.3c0.2,0.5,0.4,1,0.5,1.5
		c0.1,0.5,0.4,1,0.6,1.5c0,0,0,0,0,0c0.1,0.2,0.2,0.4,0.2,0.6c1.5,0.9,3,1.7,4.5,2.7c1.4,0.9,2.8,1,4.3,0.9c0.3-0.3,0.6-0.6,0.8-1
		c1.7-2.8,3.7-2.9,6.6-1.7c0.5,0.2,0.9,0.5,1.1,0.9c0.2,0.6,0.2,1.2,0.1,1.9c-0.1,2.3,0.3,4.2,1.2,6c0.8,2,2.1,3.8,3.9,5.3
		c0.8-1.1,1.8-1.3,3-1.3c4.1,0,7.8,1.6,11.3,3.6c6.9,3.9,14.1,6.7,21.8,7.8c0.3,0,0.5,0,0.8,0.1c4.9,1.7,9.9,1.5,14.9,0.3
		c3.1-0.8,6.2-0.3,9.2,0.4c3.5,0.9,7,1.7,10.5,2.6c1.9,0.5,3.8,1,5.6,2.1c0.5,0.3,1,0.6,1.4,0.9c0.8,0.7,1.6,1.4,2.1,2.3
		c0.1,0.4,0.2,0.9,0.1,1.4c-0.3,1.9-2,2.4-3.6,2.9c-0.8,0.3-1.7,0.3-2.4,0.9c0,0.2,0,0.4,0,0.6c0.1,0.1,0.1,0.2,0,0.3
		c-0.1,2.1-0.6,4-1.6,5.7c-0.8,1.3-1.8,2.3-3.3,2.7c-1.7,0.4-2.4,0.2-2.9-0.9c-0.1-0.2-0.1-0.4-0.2-0.7c-0.1-0.5-0.3-1-0.4-1.4
		c-1-3.3-3-4.6-7.4-5.1c-3.4-0.4-6.8-0.1-10.1-0.9c-0.3-0.1-0.6-0.1-0.9-0.3c-3.8-1.9-7.9-3.1-12.1-3.5c-0.8-0.1-1.6-0.6-2.4-0.9
		c-0.8-0.7-1.6-1.3-2.3-2.2c-2.4-3.2-5.7-5-9.2-6.3c-0.7-0.3-1.5-0.8-2.1,0.1c-0.3,0.5-0.2,1,0.1,1.4c0.1,0.5,0.5,0.9,0.8,1.3
		c0.8,0.9,1.7,1.9,2.5,2.8c0.1,0.1,0.2,0.3,0.2,0.4l0.1,0c2.3,1.9,4.8,3.7,6.2,6.5c0.1,0.3,0.3,0.6,0.3,1c0.1,0.2,0.1,0.3,0.2,0.4
		c0,0.1,0,0.1,0.1,0.2c0.4,1.2,1.5,1.6,2.6,1.7c0.9,0.1,1.8-0.1,2.7,0.2c0.4,0.2,0.7,0.3,0.9,0.5c0,0.3-0.2,0.7-0.7,1.2
		c-0.3,0.3-0.6,0.6-0.9,0.9c-1,0.9-1.8,0.8-2.6-0.3c-0.9-1.3-2.1-1.6-3.5-2c-1.9-0.5-3.6-1.4-5.7-0.7c-0.6,0.2-1.3-0.3-2-0.7
		c-4.9-3.5-9.9-6.9-14.3-11.1c-2.1-2-4.4-1.7-6.8-0.7c-0.4,0.2-0.8,0.5-0.8,1.1c0.1,0.3,0.2,0.4,0.4,0.6c0.1,0.5,0.5,0.7,0.9,0.8
		c0.6,0.2,1.3,0.3,2,0.3c1.3-0.2,2.5,0.2,3.4,1.4c4.1,1.9,7,5.4,9.9,8.9c0.1,0.1,0.2,0.2,0.3,0.2c0.1,0,0.2,0.1,0.3,0.1
		c0.2,0.2,0.5,0.4,0.7,0.6l0,0c1.8,1.8,3.6,3.4,6.2,3.8c0.4,0.1,1,0.3,1.3,0.6c0,0.1,0,0.2,0,0.4c-0.3,0.9-1.2,0-1.8-0.2
		c-2.1-1.1-4.3-2-6-3.8c-1.6-0.5-2.8-1.7-4.2-2.6c-0.8-0.5-1.7-1.2-2.4-0.2c-0.5,0.8-0.2,1.5,0.3,2.1c0.2,0.4,0.5,0.7,0.9,0.9
		c1.4,1,2.4,2.3,3.5,3.5c2.9,3,6.4,4.9,10.4,5c3.4,0.1,6.9-0.3,10.3-0.5c2.6-0.1,5.2-0.2,7.7-0.6c1.3-0.2,2.4,0.3,3.4,1.1
		c1.5,1.1,3.1,1.5,5,1.1c2.3-0.5,4.5,0,6.6,1.2c0.3,0.2,0.6,0.4,0.9,0.6c1.1,1,1.6,2.4,1.8,4.2c0,0.6,0.2,1.2,0.2,1.8
		c0.1,1.2,0.3,2.4,1.3,2.9c0.2,0.2,0.5,0.4,0.9,0.6c0.9,0.3,1.6-0.1,2.2-0.7c-0.9,2.7-3.5,4.1-6.4,3c-1.8-0.7-3.4-1.7-5-2.8
		c-3.5-2.3-7.2-4.3-11-5.8c-1,1-2.2,1.1-3.4,0.6c-1.9-0.8-3.8-1-5.8-0.7c-1.1,0.2-2.3,0-3.2-0.8c-2.4-2-4.9-1.9-7.4-0.5
		c-3.1,1.8-6.2,1.7-9.4,0.4c-2.5-1-4.9-2.2-7.3-3.3c-1-0.4-1.9-1.1-2.6-1.8c0-0.1-0.1-0.1-0.2-0.2c-0.1-0.1-0.1-0.1-0.2-0.2
		c-0.9-1.1-1.7-2.3-2.5-3.6c-0.5-0.9-1.1-1.7-1.8-2.5c-0.7-0.8-1.4-1.5-2.3-2c-0.5-0.3-0.9-0.6-1.3-1c-0.5-0.7-0.9-1.6-1.1-2.5
		c-0.3-1.5-0.9-2.5-1.8-3.3c-0.8-0.9-1.8-1.5-3.2-1.9c-2.6-0.8-5.2-1.8-7.7-2.9c-3.8-0.7-7.7-1.5-11.5-2.2c-0.3-0.1-0.5-0.2-0.8-0.3
		c-0.2-0.2-0.3-0.5-0.4-0.8c-0.1-1,0.3-1.7,1-2.2c0.8-0.6,1.7-0.7,2.6-1c1.9-0.7,2.2-1.8,1.1-3.6c-0.5-0.8-1.1-1.4-1.8-1.9
		c-0.7-0.6-1.5-1.1-2.3-1.4c-3.1-1.1-6.2-1.1-9.3-0.3c-1.4,0.4-2.2,1.3-2.1,2.9c0,0.7,0,1.4,0,2.1c0,0.8-0.3,1.4-0.8,1.8
		c-0.2,0.2-0.4,0.3-0.6,0.3c0-0.1,0-0.3,0-0.4c0.1-0.4,0.1-0.9,0.1-1.3c0-0.8-0.3-1.3-0.7-1.5c-0.3-0.7-1-0.8-1.9-0.4
		c-0.3,0.2-0.6,0.4-0.9,0.6c-0.3,0.2-0.5,0.3-0.7,0.3c0-0.1,0-0.2-0.1-0.3c-0.1-0.5-0.3-0.8-0.6-1.1c-0.3-0.7-1.1-1-1.8-1.1
		c-2.7-0.8-5.5-1-8.3-1.1c-1.6-0.1-2.8-1-4.1-1.9c-0.2-0.3-0.3-0.7-0.3-1.1c-0.1-0.7,0.1-1,0.7-0.7c3.4,1.3,7,1,10.3,2.5
		c0.8,0.4,1.8,0.5,2.7,0.3c0.6-0.2,1.4-0.1,1.6-1c0.1-0.5-0.2-0.9-0.5-1.2c-0.2-0.4-0.6-0.7-0.9-0.9c-1.2-0.9-2.5-1.7-3.8-2.5
		c-0.1-0.1-0.2-0.1-0.3-0.2c-0.2-0.3-0.1-0.7,0.4-1.3c1-1.3,1.2-2.8,0.2-4.2c-0.5-0.7-0.4-1,0.3-1.4c0.8-0.5,1.3-1.2,1.1-2.3
		c-0.1-0.4-0.2-0.7-0.5-0.8c-0.2-1-1-0.8-1.6-1c-1.9-0.5-3.6-1.5-5.3-2.4c-1.4-0.7-2.8-1.3-4.3-1.4c0,0.4,0.2,0.8,0.4,1.1
		c0.3,0.8,1,1.2,1.6,1.7c0.1,0.1,0.3,0.2,0.4,0.3c0,0.2,0,0.4-0.2,0.7c-0.6,0.7-1.3,1.2-2.1,0.5c-0.4-0.3-0.8-0.9-1-1.4
		c-1.3-2.4-5-4.2-7.6-3.5c-1.3,0.3-1.9,1.3-2.1,2.5c-0.2,1.2-0.3,2.5-0.5,3.7c-0.4,2.3-1.8,3-3.8,2.9c-1.3-0.1-2.3-0.4-3.3-0.9
		c-0.2,4.3-0.3,8.3-0.5,12c0,0.7-0.1,1.5-0.1,2.2c1.8,3.1,2.7,6.6,3.9,9.9c0.5,0.1,1.1,0.2,1.6,0.3c0,0.2,0.1,0.4,0.1,0.6
		c4.1,0.9,8.1,2.6,12,4.4c0.8,0.4,1.5,0.9,2.2,1.5c1.8,1.5,3.8,1.9,6,1.5c1.6-0.3,3.3-0.7,5-0.8c4.5-0.2,8,1.8,10.8,5.3
		c0.6,0.7,1,1.5,1.2,2.1c0.1,1.5-0.9,2.8-3,3.6c-1.7,0.6-3.4,0.2-5.1,0c-2.4,0.8-4.9,0.4-7.4,0.2c-1.7-0.1-3.3-0.7-5-0.2
		c-0.2,0.1-0.5,0.1-0.7,0.2c-0.9,0.4-2.1,0.9-1.9,2c0,0.2,0.1,0.3,0.1,0.4c0,0.1,0,0.1,0,0.2c0.2,1.3,1.5,0.9,2.3,0.8
		c2.5-0.4,5,0.1,7.3,1.2c6.8,3.1,13.7,5.6,20.7,8c2.4,0.8,4.9,1.6,7.4,1.3c0.7-0.1,1.5-0.1,1.8-0.7c0.5-1.5,1.5-1.1,2.5-1
		c3.1,0.5,6.2,0.8,9.2,0c2.5-0.7,4.3-2.2,5.1-5c0.8-2.8,1.5-3,4-1.7c4.6,2.4,9.3,4.6,14.5,5.2c2.1,0.2,4.3,0.3,6.4,0.5
		c2.6,0.2,4.6,1.7,5.5,3.9c0.2,0.8,0.4,1.7,0.3,2.7c-0.1,1.9-0.6,3.8-1.4,5.5c-1.6,3.2-4,4.2-7.3,3.2c-3.4-1-6.3-2.9-9.3-4.9
		c-4.1-2.7-8.5-3.9-13.1-2.3c-9.2,3.1-17.8,1.1-26.4-2.8c-3.8-1.7-7.4-3.7-11.1-5.7c0.1,0.9,0.3,1.7,0.6,2.5
		c1.3,4.7,4.4,7.6,8.8,9.2c5,1.8,10.1,2.9,15.4,2.3c1.7-0.2,3.3-0.1,5-0.1c0.7,0,1.3,0.2,1.7,0.9c0,0.5-0.3,0.9-0.7,1.2
		c-0.7,0.8-1.3,1.7-1.7,2.7c0.2,0.1,0.3,0.1,0.5,0.2c-0.1,0.2-0.2,0.4-0.2,0.5c3.9,1.3,7.7,2.8,10.5,6.3c0.5,0.7,0.9,1.4,1.2,2.2
		c0,0.1,0.1,0.2,0.1,0.3c0.3,1.6-0.3,2.5-1.8,2.8c-1.3,0.2-2.6-0.2-3.9-0.5c-1.8-0.5-3.5-0.9-5.4-0.9c-2,0-3.2,1-3.4,2.9
		c-0.1,0.5,0,0.9,0.2,1.3c0.1,1,0.9,1.7,2.5,2.2c2,0.6,4.1,1,6.1,1.4c1.3,0.3,2.5,0.9,3.4,2c0.5,0.5,0.8,1.1,1,1.6
		c0.3,1.6-0.7,2.9-2.7,3.4c-1.8,0.5-3.6,0.4-5.5,0.2c-3.9-0.6-7.6-1.3-11.4-1.9c0.5-0.4,1.2-0.8,1-1.6c0-0.1-0.1-0.3-0.1-0.4
		c0-0.1,0-0.1,0-0.2c-0.2-1-1.1-1.2-1.9-1.3c-1-0.2-1.9,0.2-2.8,0.6c-1.4,0.6-2.7,0.5-3.7-0.6c-3.2-3.7-7.3-3.8-11.5-3.7
		c-1.1,0-2.2,0.1-3.3,0.4c-1.6,0.4-3,0.1-4.5-0.8c-4.4-2.7-9.3-4-14.2-5.4c-4-1.1-7.9-2.3-11.6-4.2c-0.3,3.4-0.7,6.9-1.1,10.6
		c0.1,0,0.2,0,0.4,0.1c0.3,0,0.6,0.1,0.9,0c0.7,0,1.2-0.2,1.8-0.9c0.2-0.2,0.4-0.5,0.6-0.5c0.1,0,0.2,0,0.3,0
		c0.5,0.2,0.5,0.8,0.5,1.2c0.2,2,1,3,2.6,3.1c0.2,0,0.5,0,0.8,0c0.2,0,0.4,0,0.6,0c0.6,0.1,1.1,0.4,1.5,0.8c0.3,0.4,0.7,0.6,1.1,0.8
		c0.6,0.3,1.3,0.4,2,0.2c1.2-0.3,2.3,0,3.4,0.6c2.4,1.4,4.9,1.4,7.3,0c1.3-0.8,2.5-0.7,3.8,0c2.4,1.4,4.6,3,5,6.3
		c0.4,2.8,2.7,3.3,4.8,3.7c0.8,0.2,1.6,0.3,2.1,1.2c0.3,0.4,0.7,0.7,1.1,0.7c2.8,0.1,4.8,1.9,7,3.3c0,0,0.1,0.1,0.1,0.1
		c1.4,0.9,2.9,1.6,4.4,2.2c1.4,0.6,2.8,1,4.4,1.1c0.1,0,0.2,0,0.4,0c0,0,0,0,0,0c0,0,0,0,0,0c0.8-1.5,1.6-3,2.6-4.4
		c1.8-2.3,4.1-3.1,6.8-2.6c0.9,0.2,1.8,0.5,2.6,0.8c2,0.8,3.8,0.6,5.4-0.9c0.2-0.2,0.6-0.5,0.7-0.4c0.2,0.1,0.4,0.2,0.6,0.2
		c0.7,0.2,1.3,0,1.9-0.4c0.6-0.4,1.1-1,1.8-1.4c0.5-0.3,0.8-0.8,1.3-1.2c1.5-1.4,2.5-1.4,4.2-0.3c1.6,1.1,2.8,2.7,3.9,4.3
		c1.3,1.8,2.5,3.7,4.2,5.1c2,1.7,3.7,2,5.4,0.9c0.5-0.4,1.1-0.9,1.6-1.5c0.6-0.8,1.2-1.5,1.7-2.4c0.4-0.5,0.8-1.1,1.2-1.7
		c1.8-2.8,4.1-3.8,7-3.3c0.2,0,0.4,0.1,0.6,0.1c0,0,0.1,0,0.1,0c0.4,0.1,0.9,0.2,1.3,0.3c0.1,0,0.2,0.1,0.4,0.1
		c0.5,0,1.1-0.1,1.6-0.2c0.3-0.1,0.7-0.2,1-0.4c0.1-0.1,0.2-0.1,0.3-0.2c0.3-0.1,0.6-0.3,0.9-0.4c0,0,0.1,0,0.1-0.1
		c0.1,0,0.2-0.1,0.3-0.1c0.6-0.2,1.1-0.3,1.6-0.3c0,0,0,0,0.1,0c0.3,0,0.6,0,0.9,0c0.3,0,0.6,0.1,0.8,0.1c0,0,0.1,0,0.1,0
		c0.9,0.2,1.9,0.7,2.8,1.4c0.4,0.3,0.7,0.6,1.2,0.6c0.1,0,0.3,0.1,0.4,0.1c0.3-1.4,1.3-1.8,2.5-1.9c0.9,0,1.7,0,2.5,0.2
		c1.6,0.3,3.1,0.8,4.5,1.5c2.3,1,4.5,1,6.7,0.3c0.3-0.1,0.7-0.2,1-0.4c2.3-1.1,4.7-1.2,7.1-0.2c1.1,0.4,2,0.1,2.3-1.2
		c0.3-1.4-0.9-1.6-1.7-1.7c-0.3,0-0.6,0-0.9,0c-0.2,0-0.3,0-0.5,0c-0.7,0-1.4,0-2.1-0.1c-0.6-0.1-1.4-0.3-1.4-1c0-0.2,0-0.3,0.1-0.5
		c0.3-0.4,0.9-0.4,1.4-0.3c0.9,0.1,1.6-0.3,2-1.1c0.9-1.8,2.5-2.1,4.2-1.9c3.2,0.3,5.9,1.9,8.2,4.3c0.1,0.1,0.1,0.1,0.2,0.2
		c0.6,0.7,1.3,1.5,1.8,2.2c4.3,5.8,9.9,9.4,16.1,12c0,0,0,0,0,0c0,0,0,0,0,0c-0.2-0.8-0.5-1.6-0.7-2.4c-3-11.1-4.7-21.7-5.7-31.5
		c-0.3-0.4-0.2-1.1-0.2-1.6c-3.3-1.1-7.2,0.4-9.2,3.5c-0.5,0.8-1,1.6-1.6,2.4c-0.3,0.4-0.8,1-1.4,0.6c-0.1-0.1-0.2-0.2-0.2-0.3
		c0-0.3,0.1-0.7,0.2-1c0.5-2,1-4.1,1.6-6.3c0,0-0.1,0-0.1,0c0-0.1,0-0.2,0.1-0.3c-1,0.4-1.7,0.4-2.1-0.5c0-0.1-0.1-0.3-0.1-0.5
		c0-0.2-0.1-0.3-0.2-0.4c-0.2-0.7-1-0.7-1.8-0.7c-0.9,0-1.8,0.2-2.7,0.1c-0.6,0-1-0.2-1.2-0.4c-0.1-0.3,0-0.8,0.3-1.3
		c0.3-0.6,1-1.2,0.4-1.9c0-0.1-0.1-0.3-0.3-0.4c-0.7-0.6-1.5,0-2,0.6c-2.7,3.1-5.9,3-9.3,1.7c-0.8-0.3-1.5-0.6-2.3-0.8
		c-2.1-0.7-3.9-0.1-5.2,1.9c-0.8,1.2-1.7,2.2-3.3,1.8c-0.6-0.2-1.1-0.4-1.5-0.8c-0.5-0.6-0.9-1.3-1.1-2.2c-0.9-3.6,0.8-7.6,3.9-9.6
		c3-1.9,6.3-2,9.6-1.4c3.8,0.7,7.4,0.4,10.9-1.4c5-2.5,10-2.9,15.3-1.1c0.5,0.2,1,0.4,1.5,0.6c0-0.1,0-0.1,0-0.2
		c0.4,0.2,0.8,0.4,1.1,0.7c0-6,0.4-11.5,0.8-16.5c-0.5-0.1-1.1-0.2-1.6-0.3c-2.9-0.5-5.9-1.1-8.9-0.7c-2.1,0.3-3.5,1.6-4.8,3.1
		c-0.8,0.9-1.3,0.8-2,0c-0.7-0.7-1.4-1.4-1.9-2.2c-0.1-0.2-0.3-0.5-0.4-0.7c-1-2.2-0.7-4.1,1.2-5.6c2.5-2,5.4-2.6,8.4-3.1
		c2-0.3,3.9-0.4,5.9-0.6c0.9-0.1,2,0.1,3.3,0.6c0-0.1,0-0.3,0-0.4c0.7,0.2,1.3,0.5,2,0.8c1.8-12,4.2-19,4.3-19.2l0.1-0.3l0.1,0
		c-0.1-1.3-0.3-2.8-0.4-4.3c-0.2-0.2-0.5-0.3-0.7-0.5c-5.5-3.7-11.2-4.4-17.1-1.7c-2.7,1.2-5.2,0.1-7.7-0.8c-4-1.5-7.6-4-11.1-6.4
		c-2.2-1.5-4.6-2.8-6.9-4.1c-2.8-1.5-5.5-1.4-8.3,0c-1.6,0.8-3.2,1.4-5,1.1c-1.7-0.3-3.1-1.7-3.7-3.4c-0.1-0.3-0.1-0.7-0.1-1.1
		c0-0.7,0.4-1.2,0.8-1.7c0.3-0.3,0.7-0.5,1-0.7c2-1.2,2.6-2.6,1.9-4.1c-0.1-0.9-0.9-1.9-2.1-2.7c-0.8-0.6-1.7-0.9-2.7-1.2
		c-2.5-0.6-5-0.7-7.6-0.7c-0.9,0-1.8,0-2.5,0.9c0.2,0.1,0.5,0.3,0.7,0.5c-0.1,0.1-0.2,0.2-0.4,0.4c0.9,0.5,1.7,1.3,2.1,2.1
		c0.1,0.4,0.1,0.8,0,1.1c-0.3,1-2.1,1.5-4,1.2c-0.9-0.1-1.8-0.4-2.5-1c-1.7,1.8-3.9,2.4-6.3,2.5c-1.9,0-3.8,0.2-5.8,0.3
		c-1.5,0.1-2.7,0.8-3.9,1.6c-0.9,0.6-1.8,1.3-2.8,1.6c-0.2,0.1-0.5,0.1-0.8,0c0-0.2,0.1-0.4,0.2-0.6c0.5-1.2,1.5-1.8,2.6-2.1
		c1.9-0.5,3.7-1.3,5.5-2.3c1.5-0.8,3.1-0.6,4.6-0.6c0.6,0,1.6,0.3,1.8-0.7c0.1-0.5,0-0.9-0.2-1.2c0,0-0.1,0-0.1,0
		c0-0.2-0.1-0.4-0.1-0.6c-2.6,0.4-5.3,0.7-8.2,0.7h-1.9c-17.8,0-29.4-8.1-36.6-18.6c-1.9,0.7-3.9,1.4-5.9,2.1
		c-1.8,0.6-3.7,0.9-5.5,1.1c-2.7,0.2-4.9-0.7-6.5-3.1c-2.3-3.3-5.6-4.6-9.2-5c-2.2-0.3-4.4-0.2-6.5,0.2c-1.4,0.3-2.6,0-3.7-1.2
		c-1.5-1.6-3.3-2.6-5.6-2.4c-0.9,0.1-1.9-0.2-2.9-0.3c-1-0.2-1.8-0.8-2-2C116.9,72,116.4,71.2,115.5,70.7z"/>
	<path d="M252.4,101.5c3,2.2,6.5,3.8,10.5,4.7c2,0.5,4.2,0.2,6.2,0.1c2.1-0.1,4,0.4,5.8,1.7c1.6,1.1,3.3,1.9,5.2,2.2
		c0.1,0,0.1,0,0.2,0c0,0,0,0,0.1,0c0.7,0.1,1.4,0.5,2,0.9c0.7,0.4,1.4,0.7,2.1,0.9c0,0,0,0,0,0c0.4,0.1,0.7,0.2,1.1,0.2
		c0.8,0,1.5,0.2,2.1,0.8c1.4,1.3,3.1,1.6,4.8,1.5h0.1c-0.1-2-0.2-4.1-0.3-6.2c-3.1,0.4-6.1,0.3-9-0.4c0,0,0,0,0,0
		c-3.9-0.9-7.7-2.8-11.3-5.6c-0.8-0.6-1.5-1.2-2.2-1.8c-0.5-0.4-0.9-0.8-1.4-1.2c-0.1-0.1-0.3-0.3-0.4-0.4c-0.3-0.3-0.6-0.5-0.9-0.8
		c-0.8-0.8-1.6-1.6-2.3-2.4c-1.3-1.6-2.8-2.4-4.6-2.5c-0.4,0-0.8,0-1.2,0c-0.4,0-0.7,0-1.1,0.1c-1.3,0.3-2.6,0.5-3.9,0.5
		c-2.1,0-4.2-0.6-6.1-2.3c-0.2-0.1-0.3-0.2-0.5-0.3c-1-0.6-2.3-0.7-3.4-0.9C246,95.3,248.8,98.9,252.4,101.5z"/>
	<path d="M154.5,52.9c0-0.4-0.1-0.9-0.1-1.3c-0.9-0.1-1.7-0.2-2.5-0.8c-0.4-0.3-0.7-0.5-0.8-0.9l-5.8,1.8c3,1.2,6.1,1.8,9.2,2.2
		C154.5,53.5,154.5,53.2,154.5,52.9z"/>
	<path d="M106.8,275.8c0.1,0,0.1,0,0.2,0c0.2,0,0.3-0.1,0.5-0.2c0.3-0.1,0.5-0.2,0.8-0.3c0,0,0.1,0,0.1-0.1c0.2-0.1,0.4-0.2,0.6-0.3
		c0.2-0.1,0.3-0.2,0.5-0.4c0.1,0,0.1-0.1,0.2-0.1c0,0,0,0,0,0c0,0,0,0,0,0c-1-1-2.4-1.3-3.7-1.8c-0.2-0.1-0.4-0.2-0.5-0.2
		c0,0-0.1,0-0.1,0v0c-0.3-0.1-0.5-0.3-0.9-0.4l0,3.9C105.2,276,106,276,106.8,275.8z"/>
	<path d="M104.4,322.9v2.8c0.3-0.2,0.6-0.4,0.9-0.5c0-0.6-0.4-1.1-0.6-1.7C104.6,323.3,104.5,323.1,104.4,322.9z"/>
	<path d="M278.3,57.7c1.7-0.2,3.3,0.3,4.9,1.1c0.8,0.4,1.6,0.7,2.3,1.1c-0.2-0.3-0.4-0.7-0.6-1c0,0,0,0,0,0l-12.4-3.7
		C274,56.8,276.1,58,278.3,57.7z"/>
	<path d="M264,54.9c1.9,1.7,3.9,3.3,6.1,4.7c-0.4-2.1-1-4.2-2.8-5.2c-0.9-0.4-1.7-1-2.4-1.5l-2.7-0.8
		C262.6,53.1,263.1,54.1,264,54.9z"/>
	<path d="M298,245.8c0.6,0.3,1.1,0.6,1.7,0.7v-0.1c0-0.1-0.1-0.2-0.1-0.3l0-0.3c-0.3-0.7-0.5-1.5-0.8-2.2c-0.1,0-0.2,0-0.3,0
		c-0.1,0-0.1,0-0.2,0c-0.1,0-0.3,0.1-0.4,0.1c-0.3,0.1-0.5,0.4-0.6,0.8c0,0,0,0,0,0c0,0,0,0,0,0C297.2,245.1,297.6,245.5,298,245.8z
		"/>
	<path d="M112.1,226.6c0.1-0.2,0-0.4,0-0.5c-0.1-0.3-0.3-0.6-0.6-0.8c0,0,0,0.1,0,0.1c0,0-0.1-0.1-0.1-0.1c-0.2,0.7-0.4,1.4-0.6,2.1
		C111.2,227.3,111.9,227.2,112.1,226.6z"/>
	<path d="M296.6,308.3c-0.6,0.1-1.2,0-1.8-0.1c-1.3-0.2-2.6-0.7-3.9-1.2c-0.1,0-0.2-0.1-0.2-0.1c-1-0.4-2-0.6-3.1-0.5
		c-1.7,0.2-2.7,1.4-2.5,3c0,0.4,0.1,0.8,0.3,1.1c0,0,0,0,0,0c0.1,0.1,0.1,0.2,0.2,0.3c0,0,0,0,0,0c0.3,0.4,0.6,0.7,1.1,0.9
		c0.4,0.1,0.8,0.2,1.3,0.1c1.1-0.1,2.1-0.2,3.2-0.2c0.6,0,1.2,0,1.7,0.1c1.9-0.5,3.9-1,5.1-2.9c0,0,0,0,0,0c0,0,0,0,0,0
		C297.5,308.6,297,308.3,296.6,308.3z"/>
	<path d="M234,320.7c-0.1,0-0.1,0-0.2-0.1c-0.4-0.1-0.9-0.2-1.3-0.3c-1.1-0.3-2.2-0.5-3.4-0.8c-0.9-0.2-1.7-0.4-2.6-0.5
		c-1.5-0.3-3.1-0.4-4.6-0.5c-1.9-0.1-3.8-0.1-5.8-0.1c-1.2,0-2.5,0-3.7,0c-0.2,0.1-0.5,0.1-0.7,0.2c-0.1,0-0.3,0.1-0.3,0.4
		c0,0.1,0,0.3,0.1,0.4c0.1,0.3,0.5,0.5,0.7,0.6c2.8,1.7,5.7,2.2,8.7,0.8c2.6-1.1,5.2-1,7.9-0.1c2.5,0.9,5,2.1,7.8,2.1
		c0,0-0.1-0.1-0.1-0.1c0.1,0,0.1,0,0.2,0C236,321.7,235.1,321,234,320.7z"/>
	<path d="M173.6,260.3c0.6-0.5,1.3-1,2.1-1.4c0.9-0.5,1.5-0.5,1.9,0c0.2,0.3,0.3,0.8,0.4,1.4c0,0.7,0,1.4,0,2.1c0,0.5-0.1,1,0.4,1.3
		c0.2,0.1,0.4,0.1,0.5,0.1c0,0,0,0,0,0c0,0,0.1,0,0.1,0c0,0,0,0,0,0c0.2-0.1,0.3-0.2,0.5-0.4c0.1-0.1,0.2-0.2,0.3-0.3
		c0.5-0.4,1-0.7,1.5-1c1-0.5,2.2-0.6,3.4-0.5c1.8,0.1,3.5,0.2,5.3,0.3c0.7,0,1.4,0.2,2.1-0.3c0,0,0,0,0,0c0,0,0,0,0.1,0
		c-3.2-1.3-6.6-2.4-9.6-4.1c-2.2-1.2-4.3-2.7-6.2-4.8c-1.8-2-3.6-1.8-5.5,0.2c-2.3,2.5-4.5,5.1-6.7,7.7c0,0,0,0,0.1,0c0,0,0,0,0,0
		C167.4,262.8,170.5,262.9,173.6,260.3z"/>
	<path d="M112.2,103c0.4-0.5,0.8-1,0.9-1.7c-0.1-0.7-0.4-1.2-0.7-1.7C112.4,100.7,112.3,101.9,112.2,103z"/>
	<path d="M138.9,107.1c0.2,0.1,0.5,0.2,0.8,0.3c0.4,0.1,0.8,0.2,1.1,0c0.2-0.1,0.3-0.3,0.4-0.6c0.2-0.6-0.1-1-0.5-1.2
		c-0.4-0.2-0.9-0.4-1.3-0.6c-1.4-0.7-3.1-0.9-4-2.4c-0.9-0.2-1.8-0.4-2.7-0.4c-0.8,0-1.8-0.3-2.1,0.9c0,0,0,0,0,0c0,0,0,0,0,0
		C133.4,104.5,136.1,105.8,138.9,107.1z"/>
	<path d="M174.1,280.2C174.1,280.2,174.1,280.2,174.1,280.2c0.7-0.3,1.5-0.6,2.2-0.8c1-0.3,2.1-0.6,3.2-0.7c0.1,0,0.2,0,0.3,0
		c0.3,0,0.5,0,0.8,0c0.1,0,0.3,0,0.4,0c0.8,0,1.5,0.2,2.3,0.4c2.5,0.8,4.8,2.1,7.2,3.1c0,0,0,0,0,0c0,0,0,0,0,0c0.8,0,1.6,0,2.4,0
		c2.3,0,4.6,0.3,6.8-0.3c1.7-0.4,3-2.1,2.7-3.4c-0.5-2.4-4.2-6.2-6.6-6.5c-0.7-0.1-1.5-0.2-2.2-0.2c-5.1-0.4-10.1,0.1-15.1,1.3
		C175.6,273.7,173.2,275.7,174.1,280.2C174,280.2,174,280.2,174.1,280.2z"/>
	<path d="M633.1,282.6c-2.3-0.9-4.6-1.9-6.8-2.9c-0.8-0.4-1.5-0.9-2.2-1.5c-1.4-1.2-2.9-1.7-4.6-1.7c-0.6,0-1.1,0.1-1.7,0.2
		c-1.5,0.3-3.2,0.7-4.8,0.8c-4.4,0.2-7.9-1.9-10.7-5.5c-2.2-2.9-1.6-5.3,1.7-6.6c1-0.4,2-0.4,3-0.3c0.6,0.1,1.2,0.2,1.8,0.3
		c0,0,0.1,0,0.1,0c0.1,0,0.1,0,0.2,0c1.2-0.4,2.4-0.5,3.6-0.5c1.1,0.1,2.3,0.2,3.5,0.3c1.3,0.1,2.5,0.4,3.7,0.4c0.5,0,1,0,1.5-0.2
		c0.2-0.1,0.5-0.1,0.7-0.2c0.9-0.4,2.1-0.9,1.9-2.1c-0.1-0.8-0.6-1-1.2-0.9c-0.5-0.1-1,0.1-1.4,0.1c-0.9,0.1-1.7,0.2-2.6,0.1
		c-1.5-0.2-3-0.6-4.5-1.3c-6.8-3.2-13.7-5.8-20.7-8.3c-2-0.7-4-1.3-6-1.4c-0.5,0-1.1,0-1.6,0c-0.7,0.1-1.5,0.1-1.8,0.8
		c-0.2,0.7-0.6,1-1,1.1c-0.4,0-0.8-0.1-1.2-0.2c-2.7-0.5-5.5-0.8-8.2-0.2c-0.4,0.1-0.8,0.2-1.3,0.3c-2.5,0.7-4.3,2.3-5.1,5.2
		c-0.4,1.5-0.8,2.3-1.5,2.5c-0.6,0-1.3-0.2-2.3-0.8c-4.6-2.5-9.3-4.8-14.5-5.4c-2.1-0.2-4.2-0.3-6.3-0.5c0,0-0.1,0-0.1,0
		c-3.7-0.3-6.1-3.3-6-7.4c0.1-2,0.6-3.9,1.4-5.6c1-2,2.3-3.2,3.9-3.6c0.9-0.2,2-0.1,3.2,0.3c3.4,1,6.3,3,9.3,5.1
		c4.1,2.8,8.5,4,13.1,2.4c9.2-3.3,17.8-1.1,26.4,2.9c3.8,1.8,7.4,3.9,11.1,5.8c0-0.1,0-0.2,0-0.3c0.1,0,0.2,0.1,0.3,0.1
		c-0.9-6-4.2-9.5-9.2-11.4c-5-1.9-10.1-3-15.4-2.4c-1.7,0.2-3.3,0.1-5,0.1c-0.7,0-1.3-0.2-1.7-0.9c-0.4-0.8,0-1.4,0.5-2
		c0.7-0.9,1.3-1.7,1.7-2.8c-3.9-1.4-7.7-2.9-10.5-6.5c-0.7-1-1.2-2.1-1.5-3.3c-0.3-1.6,0.3-2.6,1.7-2.8c1.2-0.1,2.5,0.2,3.7,0.5
		c1.5,0.4,2.9,0.8,4.4,0.9c0.4,0,0.8,0.1,1.3,0.1c2,0,3.2-1.1,3.4-3c0.2-1.4-0.5-2.4-2.5-3c-1.4-0.4-2.8-0.8-4.2-1.1
		c-0.7-0.2-1.4-0.3-2.1-0.5c-0.3-0.1-0.6-0.2-0.8-0.3c-0.9-0.4-1.7-0.9-2.3-1.7c-2.1-2.4-1.4-5,1.5-5.8c1.8-0.5,3.6-0.4,5.5-0.2
		c3.9,0.6,7.8,1.4,11.6,2.1c0,0.1,0,0.2,0,0.3c-0.6,0.5-1.4,0.8-1.2,1.8c0.2,0.8,0.8,1.1,1.5,1.3c0.2,0.1,0.4,0.1,0.7,0.2
		c1,0.2,1.9-0.2,2.8-0.6c0.7-0.3,1.3-0.5,1.9-0.4c0.5,0.2,1,0.5,1.5,1c2,2.4,4.5,3.3,7,3.7c1.5,0.2,3.1,0.2,4.7,0.2
		c0.2,0,0.3,0,0.5,0c0.1,0,0.3,0,0.4,0c0.8-0.1,1.7-0.2,2.5-0.3c0.6-0.1,1.1-0.2,1.6-0.1c0.9,0.1,1.7,0.4,2.6,1
		c4.4,2.7,9.3,4.1,14.2,5.5c4.1,1.2,8.2,2.5,12,4.6c-0.9-3.2-1.7-6.4-2.4-9.5c-0.1,0.1-0.3,0.2-0.5,0.2c0,0,0,0-0.1,0
		c-0.5-0.2-0.5-0.8-0.5-1.3c-0.2-2-1-3.1-2.6-3.2c-0.3,0-0.6-0.1-0.9,0c-0.2,0-0.4,0-0.5,0c-0.5-0.1-1-0.3-1.4-0.8
		c-0.6-0.6-1.2-1-1.9-1.1c-0.4-0.1-0.9-0.1-1.4,0c-0.6,0.1-1.1,0.1-1.6,0c-0.5-0.1-1-0.3-1.5-0.6c-1.3-0.7-2.5-1.1-3.8-1.1
		c-1.3,0-2.6,0.3-3.8,1c-0.7,0.4-1.4,0.6-2.1,0.5c-0.4-0.1-0.9-0.2-1.3-0.5c-2.4-1.4-4.6-3.1-5-6.5c-0.4-2.6-2.3-3.3-4.2-3.7
		c-0.3-0.1-0.6-0.2-0.9-0.2c-0.2-0.1-0.5-0.1-0.7-0.2c-0.4-0.2-0.8-0.4-1-0.9c-0.3-0.4-0.7-0.7-1.1-0.8c-0.1-0.1-0.2-0.1-0.4-0.2
		c-1,0-1.9-0.3-2.8-0.7c-1.4-0.7-2.7-1.8-4-2.6c-0.8-0.5-1.5-0.9-2.3-1.3c-2.2-1.2-4.6-2.1-7.1-2.3c-0.8,1.6-1.6,3.1-2.6,4.5
		c-1.8,2.4-4.1,3.2-6.8,2.6c-0.9-0.2-1.8-0.5-2.6-0.8c-2-0.8-3.8-0.6-5.4,0.9c-0.2,0.2-0.6,0.5-0.8,0.5c-2-1.1-3,0.8-4.3,1.7
		c-0.5,0.3-0.8,0.8-1.3,1.2c-1.3,1.2-2.2,1.4-3.6,0.7c-0.1-0.1-0.2-0.1-0.3-0.2c0,0,0,0,0,0c-1.6-1.1-2.8-2.8-3.9-4.4
		c-1.3-1.9-2.5-3.8-4.2-5.3c-0.4-0.3-0.7-0.6-1.1-0.8c-2.3-1.7-4.2-1.3-6.2,1.3c-1,1.3-2,2.7-2.9,4.2c-1.9,3.1-4.4,4.2-7.6,3.3
		c-0.6-0.2-1.2-0.3-1.8-0.4c-1,0-2,0.4-2.9,0.8c-1.7,0.9-3.3,1.1-4.8,0.7c-0.8-0.3-1.6-0.7-2.4-1.3c-0.4-0.3-0.7-0.6-1.2-0.7
		c-0.2-0.1-0.4-0.2-0.7-0.2c-0.3,1.5-1.3,1.9-2.5,2c-1.2,0-2.4-0.1-3.6-0.4c-1.1-0.3-2.1-0.7-3.1-1.2c-0.7-0.3-1.3-0.5-2-0.7
		c-2-0.5-4-0.3-6,0.7c-2,0.9-4,1.2-6.1,0.6c-0.2-0.1-0.5-0.2-0.7-0.3c-0.1-0.1-0.3-0.1-0.4-0.1c-1-0.4-1.9,0-2.2,1.2
		c-0.2,1.2,0.4,1.5,1.1,1.6c0.3,0.1,0.6,0.2,0.9,0.2c1.1,0.1,2.3,0,3.4,0.2c0.5,0.1,1.1,0.4,1.1,0.9c0,0.9-0.9,1-1.5,0.9
		c-0.9-0.1-1.6,0.3-2,1.2c-0.9,1.8-2.5,2.2-4.2,2c-0.3,0-0.6-0.1-0.9-0.1c-2.7-0.6-5-2.1-6.9-4.2c-0.7-0.8-1.4-1.6-2-2.5
		c-4.5-6.3-10.4-10-16.9-12.7c0,0,0,0,0,0.1c-0.3-0.1-0.7-0.3-1-0.4c-0.8,12.6-3,26.8-7.5,41.8c0,0,0.1,0,0.1,0c0,0,0,0,0,0
		c3.2,1.7,5.3,1,9.5-2.2c1.5-1.1,3-2.3,4.5-3.5c0.4-0.3,0.8-1.1,1.4-0.7c0,0,0.1,0.1,0.1,0.1c0.2,0.4,0,0.9,0,1.4
		c0.1,0,0.1,0,0.2,0.1c0,0.1,0,0.1,0,0.2c3.3,1.2,7.2-0.4,9.2-3.7c0.5-0.8,1-1.7,1.6-2.5c0.3-0.5,0.8-1.1,1.4-0.7
		c0.1,0,0.1,0.1,0.2,0.1c0,0.3-0.1,0.7-0.2,1c-0.5,2.1-1,4.2-1.6,6.5c0.1,0,0.2-0.1,0.3-0.1c0,0.2-0.1,0.3-0.1,0.5
		c1-0.4,1.7-0.4,2.1,0.6c0,0.1,0,0.2,0.1,0.3c0,0.1,0,0.2,0.1,0.3c0,0,0,0,0,0.1c0.1,0.9,1,1,1.8,0.9c0.9,0,1.8-0.2,2.7-0.2
		c0.7,0,1.1,0.2,1.3,0.6c0,0.3-0.1,0.6-0.4,1.1c-0.2,0.5-0.8,1.1-0.6,1.6c-0.1,0.3,0,0.6,0.3,0.9c0.7,0.7,1.5,0,2-0.6
		c2.7-3.2,5.9-3.1,9.3-1.8c0.8,0.3,1.5,0.6,2.3,0.8c2.1,0.7,3.9,0.2,5.2-2c0.8-1.3,1.7-2.3,3.3-1.8c1.6,0.5,2.5,1.7,2.9,3.3
		c0.2,0.8,0.3,1.5,0.2,2.3c-0.3,2.8-1.8,5.5-4.1,7c-3,2-6.3,2.1-9.6,1.4c-3.8-0.7-7.4-0.4-10.9,1.4c-5,2.5-10,3-15.3,1.2
		c-1.6-0.6-3-1.3-4.2-2.6c-2-2.1-4.3-2.5-6.9-1.6c-0.8,0.3-1.7,0.6-2.4,1c-3.1,1.8-6.4,2.7-9.7,3.5v9.4c0.2,0,0.5,0,0.7,0
		c0.1,0,0.1,0,0.2,0l0,0.6c1.6,0,3.2-0.2,4.7-1c0.5-0.3,1.2-0.5,1.7,0c0.2,0.2,0.3,0.5,0.3,0.7c-0.1,0.2-0.1,0.4-0.2,0.6
		c-0.2,0.7-0.7,1.2-0.7,2c-0.1,0.3-0.2,0.5-0.1,0.9c4.9,0.3,9.6,2,14.5,2.9c2.9,0.6,5.9,1.1,8.9,0.7c2.1-0.3,3.5-1.6,4.8-3.2
		c0.8-0.9,1.3-0.8,2,0c1,1.1,2,2.1,2.6,3.5c0.5,1,0.6,1.9,0.5,2.8c-0.2,0.9-0.7,1.6-1.6,2.3c-2.5,2.1-5.4,2.7-8.4,3.2
		c-2,0.3-3.9,0.4-5.9,0.6c-3.4,0.3-10.8-3.9-12.6-7.2c-0.4-0.8-0.8-1.5-1.5-2.1c-0.9-0.8-1.9-1-2.9-0.2s-1.6,2.3-3.1,2.2
		s-2.6-1.2-3.8-2.1v27c0.2,0.1,0.3,0.2,0.5,0.3v0.9c1.7,1,3.5,1.5,5.6,1.4c3.2-0.1,5.9,2.1,8.5,3.9c3.8,2.7,7.8,3.8,11.8,3.3
		c1.8-0.2,3.7-0.7,5.6-1.6c1-0.4,1.9-0.6,2.8-0.6c1.6,0.1,3.1,0.8,4.6,1.4c4,1.5,7.6,4.1,11.1,6.6c2.2,1.6,4.6,2.9,6.9,4.2
		c1.8,1,3.6,1.4,5.4,1c1.1-0.1,2.2-0.5,3.2-1.1c0.7-0.4,1.4-0.7,2.1-0.9c0.8-0.2,1.6-0.2,2.5-0.1c2.3,0.4,4.1,2.8,3.9,5.4
		c0,0.4-0.1,0.7-0.3,1c0,0.1-0.1,0.1-0.1,0.2c-0.3,0.3-0.7,0.5-1,0.7c-0.8,0.5-1.4,1-1.7,1.6c-1.5,1.6-1.1,3.5,1.3,5.2
		c0.8,0.6,1.7,1,2.7,1.2c2.5,0.6,5,0.8,7.6,0.7c0.7,0,1.4,0,2-0.4c0.2-0.1,0.5-0.3,0.6-0.6c0,0,0,0-0.1,0c0.1-0.1,0.3-0.2,0.4-0.3
		c-1.8-1-2.9-2.9-2.5-4.2c0,0,0-0.1,0.1-0.1c0.7-0.5,2-0.7,3.3-0.5c0.9,0.2,1.8,0.4,2.5,1c0.1-0.1,0.1-0.1,0.2-0.2c0,0,0,0,0,0
		c0.6-0.6,1.2-1.1,1.9-1.5c1.3-0.6,2.7-0.9,4.1-0.9c1.9,0,3.8-0.2,5.8-0.3c1.5-0.1,2.7-0.8,3.9-1.7c0.9-0.7,1.8-1.3,2.8-1.6
		c0.3-0.1,0.7-0.2,1,0.1c0.3,0.4,0.2,0.9,0,1.3c-0.1,0.3-0.3,0.5-0.4,0.7c-0.5,0.4-1,0.6-1.6,0.8c-1.9,0.6-3.7,1.4-5.5,2.4
		c-1.5,0.8-3.1,0.6-4.6,0.6c-0.6,0-1.4-0.3-1.7,0.5c-0.1,0-0.2,0.1-0.2,0.2c-0.2,0.1-0.4,0.3-0.4,0.6c-0.2,1.2,0.6,1.7,1.5,2
		c2.2,0.7,4.4,0.5,6.6,0.8c2.3,0.3,4.7,0.4,6.7,1.8c0.8,0.5,1.5,1.1,1.9,2.1c0.2,0.5,0.3,1,0.1,1.5c-0.4,0.3-1,0.1-1.5-0.1
		c-4-2.7-8.6-3.1-13.1-3.8c0,0-0.1,0-0.2,0c0.1,0.1,0.1,0.3,0.2,0.4c0,0,0,0,0,0c0,0-0.1,0-0.2,0c0.1,0.1,0.1,0.2,0.2,0.3
		c-0.1,0-0.3-0.1-0.5-0.1c0,0-0.1,0-0.2,0c1.4,2.4,3.5,4.1,5.2,6.2c2.4,3,5.3,5.5,8.2,7.8c1.1,0.9,2.2,1.6,3.5,2.1
		c1.3,0.5,2.4,0.5,3.2,0c0.9-0.3,1.6-1.2,2.1-2.8c0.6-1.7,1.3-2.8,2.3-3.3c0.1,0,0.1,0,0.2-0.1c0,0,0,0,0,0c0.9-0.3,2-0.1,3.3,0.4
		c1.5,0.6,2.9,1.7,4.2,2.6c1.1,0.8,2.1,1.5,3.3,2.2c2.2,1.3,4.5,1.7,6.9,0.7c2.9-1.1,5.8-2.2,8.7-3.2c1.8-0.6,3.7-0.9,5.5-1.1
		c2.7-0.2,4.9,0.8,6.5,3.2c2.3,3.4,5.6,4.7,9.2,5.2c2.2,0.3,4.4,0.3,6.5-0.2c1.4-0.3,2.6,0,3.7,1.2c1.5,1.7,3.3,2.7,5.6,2.5
		c0.9-0.1,1.9,0.2,2.9,0.4c1,0.2,1.8,0.9,2,2.1c0.4,2,1.5,2.9,3,3.4c0.3-0.1,0.5-0.2,0.8-0.3c0.1,0,0.1,0,0.2,0.1
		c1.1-0.5,1.9-0.8,2.1-1l0-17.2c-0.2,0-0.4,0.1-0.6,0.1v0c-0.4,0.1-0.8,0.1-1.2,0.2c-0.1,0-0.2,0-0.3,0.1c-0.4,0.1-0.8,0.2-1.1,0.3
		c-1.4,0.4-2.8,0.8-4.2,1.3c-3.2,0.8-6.7,1.2-10.4,0.1c-2.1,0.5-4.1,1-6.2,1.5c-2.6,0.6-4.6-0.7-6.3-2.7c-0.5-0.5-0.9-1.2-0.4-2
		c0,0,0,0,0,0c0.4-0.1,0.8-0.1,1.2,0c1.6,0.3,3.1,1.1,4.7,0.2c-0.1,0-0.1-0.1-0.2-0.1c0.2-0.1,0.5-0.2,0.6-0.3
		c-2.3-1.6-4.6-2.8-7.4-2.4c-0.8,0.1-1.6,0-2.4-0.3c-0.9-0.4-1.5-1.1-1.4-2.2c0-0.3,0.1-0.6,0.2-0.9c0.3-0.2,0.6-0.3,0.9-0.4
		c1.7-0.5,3.4-0.5,5.1-0.8c1-0.1,2.1-0.1,2.6-1.1c0.3-0.2,0.5-0.5,0.6-0.9c0.4-1.5-0.9-2.3-1.8-2.9c-3.2-2.2-6.5-3.1-10.1-1.5
		c-0.8,0.4-1.7,0.6-2.7,0.5c-0.6-0.1-1,0.1-1.3,0.4c-0.5,0.2-0.9,0.6-1.1,1.3c-0.4,1.2-0.9,2.1-1.5,2.7c-1,0.7-2.3,0.8-3.9,0.2
		c-3.8-1.5-6.9-4.1-8.1-8.7c-0.1-0.5-0.4-1-0.6-1.6c-1.5-0.9-3-1.7-4.5-2.7c-1.4-0.9-2.8-1-4.3-1c-0.1,0.1-0.3,0.3-0.4,0.4
		c0,0,0,0-0.1,0c-0.3,0.3-0.6,0.6-0.8,1c-0.3,0.6-0.7,1-1,1.4c-1.4,1-3,0.8-5.1-0.1c-1.5-0.7-1.7-2.1-1.6-3.7
		c0.2-4.6-1.7-8.1-4.8-10.9c-0.1,0.2-0.3,0.3-0.4,0.5c0,0,0,0,0,0c-0.1,0.1-0.1,0.1-0.2,0.2c0,0,0,0-0.1,0c-0.7,0.5-1.4,0.7-2.3,0.6
		c-4.1,0-7.8-1.6-11.3-3.7c-6.9-4-14.1-6.9-21.8-8c-0.3,0-0.5,0-0.8-0.1c-4.9-1.7-9.9-1.6-14.9-0.3c-3.1,0.8-6.2,0.4-9.2-0.4
		c-3.5-0.9-7-1.8-10.5-2.7c-1.9-0.5-3.8-1.1-5.6-2.1c-0.5-0.3-1-0.6-1.4-1c-1.3-1.2-2.7-2.5-2.4-4.6c0.1-0.4,0.2-0.8,0.4-1.1
		c0.7-0.7,1.8-1.1,2.8-1.4c0.8-0.3,1.7-0.3,2.4-1c0-0.1,0-0.2,0-0.2c0.1-0.1,0.3-0.2,0.4-0.3c0-0.2,0-0.4,0-0.6
		c-0.1-0.1-0.1-0.2,0-0.3c0.1-2.1,0.6-4.1,1.6-5.9c0.1-0.2,0.3-0.4,0.4-0.6c0.7-0.8,1.5-1.4,2.5-1.6c2.2-0.5,2.8-0.1,3.3,2.2
		c0.9,4.1,2.9,5.6,7.6,6.2c3.4,0.4,6.8,0.1,10.1,1c0.3,0.1,0.6,0.1,0.9,0.3c3.8,2,7.9,3.2,12.1,3.6c0.8,0.1,1.6,0.6,2.4,1
		c0.2,0.1,0.3,0.3,0.5,0.4h0c0.4,0.4,0.9,0.8,1.4,1.3c0.1,0.1,0.2,0.2,0.3,0.3c0,0.1,0.1,0.1,0.1,0.2c0.1,0.1,0.1,0.1,0.2,0.2
		c2.4,3.2,5.6,5,9,6.3c0.7,0.3,1.5,0.8,2.1-0.1c0.1-0.1,0.1-0.3,0.2-0.4c0.1-0.1,0.2-0.2,0.2-0.2c0.5-0.8-0.1-1.6-0.6-2.2
		c-0.8-1-1.7-2-2.5-2.9c-0.1-0.1-0.2-0.3-0.2-0.4h-0.1c-2.7-2.3-5.7-4.4-6.8-8.4c-0.4-1.3-1.5-1.6-2.6-1.7c-0.9-0.1-1.8,0.1-2.7-0.2
		c-1.2-0.4-1.5-1-0.9-1.8c0.3-0.3,0.6-0.6,0.9-0.9c1-1,1.8-0.9,2.6,0.3c0.9,1.4,2.1,1.6,3.5,2c1.9,0.5,3.6,1.5,5.7,0.7
		c0.6-0.2,1.3,0.3,2,0.7c4.9,3.6,9.9,7.1,14.3,11.4c2.1,2.1,4.4,1.8,6.8,0.7c0.4-0.2,0.7-0.4,0.7-0.9c0.3-0.2,0.5-0.5,0.5-0.9
		c-0.1-0.5-0.5-0.7-0.9-0.8c-0.6-0.2-1.3-0.4-2-0.3c-1.3,0.2-2.5-0.2-3.4-1.4c-4.1-2-7-5.6-9.9-9.2c-0.1-0.1-0.2-0.2-0.3-0.2
		s-0.2-0.1-0.3-0.1c-0.2-0.2-0.5-0.4-0.7-0.6c-1.8-1.8-3.6-3.5-6.2-3.9c-0.6-0.1-1.5-0.5-1.5-1.2c0.4-0.2,1.1,0.4,1.5,0.6
		c2.1,1.1,4.3,2,6,3.9c1.6,0.6,2.8,1.8,4.2,2.7c0.8,0.5,1.7,1.3,2.4,0.2c0.1-0.2,0.2-0.3,0.2-0.5c0.1-0.1,0.1-0.1,0.2-0.2
		c0.7-1.1,0-2.1-0.8-2.7c-1.4-1-2.4-2.4-3.5-3.7c-2.9-3.1-6.4-5.1-10.4-5.2c-3.4-0.1-6.9,0.3-10.3,0.5c-2.6,0.1-5.2,0.2-7.7,0.6
		c-1.3,0.2-2.4-0.4-3.4-1.1c-1.5-1.2-3.1-1.5-5-1.1c-2.3,0.5-4.5,0-6.6-1.2c-2-1.1-3-2.9-3.2-5.3c0-0.6-0.2-1.2-0.2-1.8
		c-0.1-1.4-0.3-2.7-1.8-3.2c-1.4-0.5-2.1,0.7-2.9,1.6c0.1-1.2,0.5-2.1,1.1-2.9c1.3-1.2,3.1-1.6,5.1-0.9c1.8,0.7,3.4,1.8,5,2.9
		c3.5,2.4,7.2,4.4,11,6c1-1,2.2-1.1,3.4-0.6c1.9,0.8,3.8,1.1,5.8,0.8c1.1-0.2,2.3,0,3.2,0.8c2.4,2.1,4.9,2,7.4,0.5
		c3.1-1.9,6.2-1.8,9.4-0.4c2.5,1.1,4.9,2.3,7.3,3.4c2.7,1.3,4.4,3.7,5.9,6.4c0.9,1.7,2.1,3.1,3.7,4.1c1.5,0.9,2.5,2.4,2.9,4.2
		c0.6,2.8,2.1,4.2,4.5,4.9c2.6,0.8,5.2,1.8,7.7,3c3.8,0.8,7.7,1.5,11.5,2.3c0.2,0,0.4,0.1,0.5,0.2c0.5,0.2,0.9,0.7,1,1.4
		c0.1,0.8-0.2,1.4-0.6,1.9c-0.7,0.4-1.5,0.6-2.3,0.8c-0.7,0.3-1.2,0.6-1.4,1c-0.2,0.1-0.3,0.3-0.5,0.4c-0.7,0.7-0.7,1.7,0.1,3
		c0.9,1.5,2.1,2.4,3.6,2.9c3.1,1.1,6.2,1.1,9.3,0.3c0.9-0.2,1.5-0.7,1.8-1.3c0.7-0.5,1.1-1.4,1-2.5c0-0.7,0-1.5,0-2.2
		c0-0.5,0.1-0.9,0.3-1.2c0.2-0.1,0.4-0.2,0.6-0.1c0.4,0.2,0.3,0.5,0.2,0.9c0,0,0,0.1,0,0.1c0,0.1,0,0.3-0.1,0.4
		c0,0.3-0.1,0.5-0.1,0.8c0,1.5,0.9,2.1,2.1,1.4c0.3-0.2,0.6-0.4,0.9-0.6c0.6-0.4,1.1-0.7,1.2,0.5c0.1,1.2,1.1,1.5,2,1.8
		c2.7,0.8,5.5,1,8.3,1.2c1.6,0.1,2.8,1.1,4.1,1.9c0.4,0.3,0.5,0.7,0.6,1.1c0,0.1,0,0.2,0.1,0.3c0,0.1,0,0.1,0,0.2
		c-0.1,0-0.1,0-0.2,0c-3.4-1.3-7-1.1-10.3-2.6c-0.8-0.4-1.8-0.6-2.7-0.3c-0.6,0.2-1.3,0.1-1.5,0.8c-0.3,0.1-0.6,0.3-0.7,0.8
		c0,0.3,0,0.5,0.1,0.6c0.1,0.5,0.6,0.8,1,1c1.2,0.9,2.5,1.8,3.8,2.6c0.4,0.3,0.8,0.5,0.9,0.8c0.1,0.3,0,0.7-0.5,1.2
		c-1,1.3-1.2,2.9-0.2,4.3c0,0,0,0,0,0c0.2,0.3,0.3,0.6,0.3,0.8c-0.3,0.2-0.6,0.4-0.8,0.7c-0.7,0.5-1.1,1.2-0.9,2.2
		c0,0.2,0.1,0.3,0.2,0.5c0.3,0.8,1,0.7,1.5,0.8c1.9,0.6,3.6,1.6,5.3,2.5c1.4,0.7,2.8,1.3,4.3,1.5c0-0.3-0.1-0.5-0.2-0.7
		c0.2,0,0.4,0.1,0.5,0.1c-0.1-1.2-1-1.6-1.7-2.2c-0.4-0.3-0.9-0.7-0.8-1.3c0.4-0.4,0.8-0.7,1.3-0.7c0.1,0.1,0.2,0.1,0.4,0.2
		c0.4,0.4,0.8,0.9,1,1.4c0.7,1.4,2.2,2.6,3.8,3.2c1.4,0.6,2.9,0.9,4.1,0.6c1.1-0.3,1.7-1.1,2-2.3c0.1-0.3,0.2-0.6,0.3-0.9
		c0.2-1.3,0.3-2.6,0.5-3.8c0-0.2,0.1-0.4,0.2-0.6c0.6-1.4,1.8-1.9,3.5-1.9c0.2,0,0.4,0,0.5,0.1c0.8,0.1,1.5,0.3,2.2,0.6v0
		c0.1,0,0.2,0.1,0.3,0.1l0-0.6c0.2,0.1,0.4,0.2,0.6,0.3l0-15.7c-1.4-2.9-2.3-6.1-3.4-9.2C637.5,283.8,635.2,283.3,633.1,282.6z"/>
	<path d="M449.6,316.7c0.6,0,1.3,0,1.9,0c0.2,0,0.5,0,0.7,0c0.2,0,0.4,0,0.6,0c2.1-0.1,4.1-0.4,6.1-0.9c7.9-2.2,15-0.9,21.7,3.6
		c0.8,0.6,1.6,1.2,2.5,1.8c2.5,2.1,5.1,4.1,7.2,6.8c0.4,0.5,0.8,0.9,1.3,1.3c1,0.8,2.2,1.3,3.5,1.3h0.1c0.1,0,0.2,0,0.4,0
		c0.2,0,0.3,0,0.5,0c0.1,0,0.2,0,0.4,0c0.3,0,0.5,0,0.8-0.1c0.7-0.2,1.3-0.3,1.9-0.4c2.8-0.4,5.5,0,8,2.2c1,0.9,2.5,1,3.8,1.2v-0.1
		c0.1,0,0.1,0,0.2,0c-3.6-9.3-10.3-14.1-18.8-16.3c-2-0.5-4.2-0.2-6.2-0.1c-2.1,0.1-4-0.4-5.8-1.7c-1.6-1.2-3.4-2-5.3-2.4
		c-0.8-0.1-1.5-0.5-2.1-0.9c-1-0.7-2-1-3.2-1.1c-0.8,0-1.5-0.3-2.1-0.8c-1.4-1.3-3.1-1.6-4.8-1.6c-1.5,0-3.1,0.1-4.5-0.6
		c-3.4-1.7-6.9-2-10.4-1.9v10.8c0.4-0.1,0.8-0.1,1.2-0.1c0,0,0,0,0.1,0C449.3,316.7,449.5,316.7,449.6,316.7z"/>
	<path d="M635,104c-1.2-0.6-2.5-1.2-3.3,0.8c-0.2,0.6-0.8,0.3-1.2,0.1c-0.5-0.2-0.9-0.1-1.2,0.4s-0.1,1,0.1,1.4
		c1,1.8,2.9,2.3,4.3,3.4c1.1,0.9,2.4,1.6,3.6,2.3c-0.1-2.4-0.2-4.9-0.3-7.4C636.3,104.6,635.7,104.3,635,104z"/>
	<path d="M637.4,116.8c0-0.9-0.1-1.9-0.1-2.8c-3.8-0.4-7.5-1-9.8-5.1c-0.2-0.3-0.4-0.6-0.6-0.8c0,0,0,0,0,0
		c-0.1-0.2-0.3-0.3-0.4-0.4c-0.1-0.1-0.2-0.1-0.3-0.2c-0.1-0.1-0.2-0.1-0.3-0.2c-0.1-0.1-0.2-0.1-0.3-0.2c-0.2-0.1-0.4-0.2-0.6-0.3
		c-0.9-0.3-1.9-0.4-3-0.4c-0.3,0-0.6,0-1,0c-0.6,1.2-1.7,1.8-2.6,2.6c-0.5,0.4-1,0.2-1.5,0.1c-0.1,0-0.2,0-0.2,0
		c-0.7-0.1-1.7-0.8-1.7,0.9c0,0,0,0,0,0c0,0.2-0.1,0.3-0.3,0.3c-0.2,0-0.3,0-0.5,0c0,0-0.1,0-0.1,0c-1.1-0.1-2.1-0.5-3-1.2
		c-0.3-0.2-0.6-0.5-0.9-0.8c-1.6-1.6-2.7-3.5-4-5.3c-0.9-1.3-1.9-2.7-3.1-3.8c-0.4-0.4-0.8-0.8-1.3-1.1c-1.9-1.4-3.6-1.2-5.3,0.4
		c-1.1,1-1.9,2.2-2.7,3.5c-0.6,1-1.3,1.9-1.9,2.9c-1.5,2.2-3.4,3-5.6,2.9c-0.3,0-0.7-0.1-1-0.1c-2.3-0.4-4.6-1.1-6.7-2
		c-0.4-0.2-0.7-0.3-1.1-0.5c-2.7-1.3-5.1-1-7.3,1.2c-1.9,1.9-4.3,2.1-6.6,1.7c-3.9-0.7-7.9-0.9-11.8-1.4c-0.1,0-0.2,0-0.3,0
		c-0.1,0-0.2,0-0.3,0c-2.5-0.4-4.9-1.1-7.2-1.9c-0.3-0.1-0.6-0.2-0.9-0.3c-0.1,0-0.2-0.1-0.3-0.1c-0.4-0.1-0.8-0.3-1.2-0.4
		c-1.4-0.5-2.8-1-4.2-1.3c-6.1-1.4-12.1-0.6-18.2,1.3c-5.1,1.6-10.2,3.4-15.7,2.9c-3.4-0.3-6.8-0.6-10.2-1c-0.8-0.1-1.5-0.3-2.1-0.6
		c-1.2-0.6-2.2-1.6-2.9-3c-0.7-1.4-1.6-2.7-2.6-3.6c-0.1-0.1-0.2-0.2-0.3-0.2c-0.1-0.1-0.1-0.1-0.2-0.2c-2.1-1.6-4.8-1.9-8.7-0.3
		c-2.1,0.9-4.1,1.9-5.8,3.6c0,0,0.1,0.1,0.1,0.1c0,0,0,0,0,0c0.9,0.7,1.8,1.5,2.7,2.2c1.3,1,2.7,1.8,4.3,2.2
		c1.5,0.3,2.6,0.1,3.5-1.5c0.8-1.5,2-1.7,3.4-0.4c1.8,1.7,3.9,2.8,6.2,3.5c1.5,0.5,2.9,0.7,4.2-0.5c0.7-0.6,1.4-0.4,1.9,0.2
		c0.6,0.6,1.1,1.3,1.6,1.9c0,0,0,0,0.1,0.1c0,0,0,0,0.1,0.1c0,0,0,0,0,0c0.2,0.3,0.5,0.6,0.8,0.9c0.8,0.9,1.8,1.5,3,1.7
		c1.3,0.2,2.1,1.1,2.5,2.4c0.6,2.3,2.4,3.7,3.1,5.9c0.3,1.1,1.6,1.4,2.5,1.7c3.6,0.9,7,2.2,10.7,2.7c3.7,0.5,6.4,2.9,8.6,6.1
		c0.2,0.2,0.3,0.5,0.4,0.7c2.4,3.9,3.7,4,6.7,0.8c1-1.1,2.1-2.1,3.6-2.4c0.8-0.2,1.6-0.7,1.9-1.6c0.6-2.3,2-3.7,3.8-4.8
		c2.4-3.2,4.3-3.7,7.8-2.3c1.1,0.5,2.2,1.1,3.2,1.8c1.3,0.9,2.7,1.7,4.3,1.9c0.3,0,0.8,0,1,0.3c2.3,1.9,4.8,1.3,7.2,1
		c0.4-0.1,0.8-0.1,1.1-0.5c0.7-1,1.6-1.1,2.5-0.7c0.1,0.1,0.3,0.1,0.4,0.2c0.6,0.3,1.2,0.6,1.8,0.7c1.8,0.6,3.5,0.5,5.3-0.6
		c0.5-0.3,1-0.4,1.6-0.2c0.1,0,0.1,0.1,0.2,0.1c0.3,0.3,0.6,0.5,0.9,0.6c2,1.2,4.1,0.7,6.2-0.1c0.5-0.2,1-0.4,1.4-0.5
		c0.4-0.1,0.7,0,1,0.2c0,0,0.1,0.1,0.1,0.1c0.1,0.1,0.1,0.1,0.2,0.2c0.1,0.1,0.2,0.3,0.3,0.4c0.4,0.7-0.1,1.3-0.6,1.7
		c-0.7,0.7-1.6,1.1-2.5,1.6c-0.2,0.6,0,1.1,0,1.7c0,2.2-0.7,3.9-2.5,5c-1.1,0.6-2.2,1.2-3.2,2c-1.6,1.1-1.7,2.6-0.4,4.1
		c0.4,0.5,0.9,1,1.4,1.3c2.3,1.3,4.4,2.7,6.4,4.6c0,0,0,0,0,0c0,0,0,0,0,0c0,0,0,0,0,0c0.1,0.1,0.2,0.2,0.3,0.2
		c0.9,0.7,1.9,0.7,3,0.7c2.1,0,4.2-0.3,6.2,0.5c0.8,0.3,1.4,0.8,1.8,1.5c0.1,0.1,0.2,0.3,0.2,0.4c0.1,0.1,0.1,0.3,0.2,0.4
		c0.1,0.2,0.2,0.4,0.3,0.6c0,0.1,0.1,0.2,0.1,0.3c0.1,0.2,0.2,0.4,0.3,0.6c0.1,0.1,0.1,0.2,0.2,0.3c1,1.7,2.5,2.7,4.6,2.7
		c3,0.1,5.6,1.3,8,3.3c4.3,0.9,8.3,2.8,12.4,4.2c0,0,0-0.1,0-0.1c0,0,0.1,0,0.1,0c0.6,0.2,1.3,0.3,1.9,0.4c0.4-6,1.1-11.3,1.8-15.8
		c-1,0.2-1.9,0.4-2.9,0.5c0,0,0,0,0,0c-0.9,0.1-1.8,0.1-2.7,0.1c-2.2-0.1-4.5-0.4-6.7-0.8c-1.4-0.2-2.8-0.7-4.2-0.7
		c-1.7,0-2.7-0.9-3.6-2.3c-0.4-0.7-0.9-1.3-1.6-1.8c-2.5-1.4-5-3-6.4-6c-1.2-0.9-2.7-1.4-3.7-2.6c-0.6-0.7-1.3-1.4-1-2.5
		c0.1-0.3,0.2-0.5,0.3-0.6c0.4-0.5,1.1-0.6,1.7-0.7c2.4-0.3,4.6,0,6.8,1.3c0.9,0.5,1.8,1.1,2.7,1.6c1.5,0.2,2.9,0.6,4.4,0.4
		c0.4,0,0.8-0.2,1.2-0.4c1-0.5,1.6-1.4,1.8-2.8c0.2-1.6-0.9-2.2-1.9-2.6c-2.2-1-4.5-1.2-6.8-1.8c-1.6-0.4-2.9-1.3-3.9-2.8
		c-1.1-1.7-0.8-3.6,0.7-4.5c0.2-0.1,0.4-0.2,0.7-0.3c3.4-1,6.9-0.4,10.3,0.3c2.6,0.5,5.1,1.3,7.8,1.4c0.7,0,1.2,0.6,1.7,1
		c1,0.9,1.9,1.8,3,2.5c0-0.1,0-0.2-0.1-0.3c0.9,0.7,1.9,1.2,3,1.5c0.4,0.1,1,0.3,0.8,1c-0.2,0.6-0.6,1.2-1.4,1.1
		c-0.6-0.1-1.2-0.4-1.7-0.8c-0.3-0.3-0.7-0.7-1-0.7c-2,0.1-2.9-1.5-4-2.9c-0.3-0.4-0.6-0.7-1-1c-0.8-0.5-1.8-0.9-2.4-0.1
		c0,0.1-0.1,0.1-0.1,0.2c0,0-0.1,0.1-0.1,0.2c-0.5,0.7,0.4,1.4,0.9,1.9c2.6,2.7,5.3,5.5,8.6,6.9c0-0.2-0.1-0.3-0.1-0.5
		c1.2,0.5,2.4,0.9,3.8,1c0.3,0,0.7,0,1,0c0.1-0.4,0.2-0.6,0.2-0.6l0.1-0.3l0.3,0.1h0.2c-0.1-1.6-0.2-3.4-0.3-5.2v-1.2
		C637.6,122.2,637.5,119.5,637.4,116.8z"/>
	<path d="M488.1,61.9c1.3,0.7,2.5,1.4,3.7,2.3c1.4,1.1,2.8,0.9,4.1-0.2l0.1-0.1c3.3-3.6,5.9-2.2,7.8,1.8c1.1,2.3,2.1,4.7,3.8,6.5
		c1.3,1.3,2.5,2,3.9,1.9c0.8,0,1.7-0.3,2.6-0.9c1.4-0.8,2.7-1.9,3.9-2.9c1.8-1.5,1.7-4.7-0.8-5.4c-0.9-0.2-1.9-0.6-2.6-1.4
		c-0.3-0.3-0.5-0.7-0.4-1.2c0.1-0.2,0.2-0.4,0.4-0.5c0,0,0.1,0,0.1,0c0,0,0,0,0,0c0.1,0,0.2,0,0.3,0c0.6,0.1,1.2,0.2,1.8,0.4
		c0.7,0.2,1.4,0.7,2.2,0.7c2.3,0.2,4.4,0.9,6,2.7c0.2,0.2,0.4,0.3,0.7,0.4c3.5,0.6,6.8,2.5,10.4,2.6c0.1,0,0.1,0,0.2,0
		c0.5,0,1.1,0.1,1.6,0.2c0.5,0.1,1.1,0.3,1.6,0.6c0.6,0.3,1.2,0.8,1.1,1.7c-0.1,0.8-0.7,1.1-1.3,1.3c-1.3,0.5-2.7,0.8-4.1,0.9
		c-0.4,0-0.8,0-1.2,0c-0.8,0-1.6,0-2.4,0.1c-0.6,0-1.1,0.1-1.7,0.2c-2.3,0.6-3.3,2.9-2.4,5.4c0.7,2,2.2,3.2,4,3.9c3,1.2,6.1,1,9.2,1
		c3.8,0,7.6-0.3,11.3-1.4c0,0,0.1,0,0.1,0c0,0,0,0,0,0c0,0,0,0,0,0c0.2-0.1,0.5-0.2,0.7-0.2c1.7-0.7,3-2,3.7-4
		c0.7-1.7,1.3-3.5,2.4-4.9c0.5-0.7,1.2-1.1,1.9-1.3c0.7-0.2,1.4-0.1,2,0.3c1.2,0.6,1.3,1.7,0.3,2.6c-0.8,0.7-1.7,0.9-2.7,1.2
		c-2.3,0.8-3,2.3-2.3,4.9c0.6,2,1.6,3.5,3.3,4.5c0.7,0.4,1.3,0.9,1.8,1.5c1.2,1.6,1,3.7-0.6,4.8c-1.2,0.9-2.6,1-3.9,1.1
		c-2.1,0.2-4.2,0.3-6.2,0.5c-2.5,0.2-4,1.6-4.3,4.5c3.9,0.3,7.6,1.9,11.5,2.1c1.5,0.1,3,0.1,4.5-0.1c2.2-0.3,4.3-1.1,6-3.5
		c0.4-0.6,0.9-1.1,1.5-1.3c0.9-0.4,2-0.3,3.2,0.2c0.6,0.3,1.3,0.5,1.9,0.6c0.6,0.1,1.1,0,1.5-0.3c0.8-0.4,1.2-1.2,1.3-2.3
		c0-1.1-0.1-2.3-0.2-3.4c-0.3-3.3,0.7-5,3.6-5.7c0.2-0.1,0.4-0.1,0.7-0.1c1.7-0.3,3.3-0.1,5,0c0.8,0,1.6,0.1,2.4,0
		c0.1,0,0.1,0,0.2,0c0.1,0,0.3,0,0.4-0.1c0.2-0.1,0.5-0.2,0.7-0.2c0,0,0,0,0,0c1.7-0.4,3.4,0.1,5,0.8c2.9,1.5,5.7,3,8.9,3.4
		c1.7,0.3,2.8,1.7,3.6,3.4c0.7,1.5,1.4,3,2.2,4.4c0.7,1.3,1.7,1.9,2.6,1.9c0.9,0,1.8-0.6,2.5-1.8c0.5-0.8,0.9-1.8,1.2-2.7
		c0.3-0.9,0.7-1.8,1-2.7c-0.1-0.1-0.1-0.2-0.2-0.3c0.2-0.7,0.5-1.3,0.8-1.9c2-5.2,4.8-7.3,9.9-6.6c1.7,0.2,3.3,0.3,5,0.2
		c-0.6-5.2-1.4-10-2.3-14c-0.6,0.1-1.1,0.1-1.7,0.3c-3,0.7-5.9,0.2-8.7-1.4c-2.7-1.5-5.6-2.3-7.7-5c-0.6-0.8-1.6-1.1-2.6-0.4
		c-0.8,0.6-1.6,0.4-2.3-0.2c-6.4-6.2-14.2-8.5-22.4-9.2c-2.1-0.2-4.2-0.5-6.4-0.7c-1.2-0.1-2.1-0.6-2.8-1.7
		c-0.6-0.9-1.2-1.6-1.8-2.4c-2.1-0.1-4.4-0.2-6.8-0.3c-0.4,1-1,1.6-2.2,2.1c-1.9,0.7-2.7,2.7-2.1,4.7c4.1,0.6,7.6,2.4,9.5,6.9
		c0.7,1.7,1.8,3.1,3.3,4.1c2.2,1.6,4.4,2.1,6.7,1.3c0.8-0.2,1.5-0.6,2.3-1.2c1.3-0.9,2.7-1.6,4.1-2.1l0,0c1.3-0.5,2.7-0.8,4.1-1
		c2.9-0.5,5.5,0,7.1,3.1c0.4,0.7,0.8,1.4,1.5,1.7c2.4,1,4.3,2.8,6.3,4.7c1.2,1.1,2.6,1.4,3.9,0.3c1.8-1.5,3.6-0.2,5.4,0
		c0.7,0.1,0.4,0.8,0,1.1c-0.9,0.6-1.5,1.4-2.1,2.4c-0.4,0.6-0.9,0.8-1.6,0.9c-1.8,0.1-3.4-0.3-5.1-0.9c-1.7-0.7-3.4-1.3-5.1-2
		c-0.2-0.1-0.3-0.3-0.5-0.4c-0.9-0.3-1.7-0.7-2.6-1c-1.4-0.6-2.6-0.4-3.6,0.9c-1.2,1.4-2.6,2.2-4.5,2c-0.7-0.1-1.5,0.1-2.3,0.2
		c-0.4,0.1-0.8,0.1-1,0.4c-0.2,0.1-0.4,0.4-0.4,0.8c0,0.7,0.3,1.2,0.8,1.5c0.7,0.4,1.5,0.7,2.2,1.1c0.9,0.4,1.6,1.1,1.5,2.3
		c0,0.5-0.2,0.9-0.4,1.1c-0.3,0.3-0.7,0.4-1.1,0.6c-1.5,0.6-2.9,0.2-4.2-0.8c-2.6-1.9-5.1-3.8-8.1-4.9c-1.3-0.5-2.2-1.6-3-2.7
		c-3.8-5.6-9.2-8.3-14.7-11c-1.9-0.9-3.9-1.6-6-1.9c-1.9-0.3-3.5,0.3-4.7,1.9c-0.2,0.2-0.4,0.5-0.6,0.7c-0.6,0.8-1.1,1.5-1.6,2.1
		c-2.5,2.5-5.2,2.7-9.6,1.1c-2.6-0.9-5.1-2.1-7.7-3.2c-1.3-0.6-2.6-0.7-4,0.1c-1.1,0.6-2.4,0.4-3.3-0.3c-2.7-2-5.7-2.9-8.8-3.3
		c-0.6-0.1-1.2-0.3-1.7-0.6c-0.4-0.2-0.9-0.5-0.7-1.1c0-0.1,0.1-0.1,0.1-0.2c0.2-0.2,0.6-0.3,0.9-0.2c0.6,0.1,1.3,0.3,1.9,0.6
		c1.1,0.4,2.3,1,3.4,1.4c0.8,0.3,1.7,0.7,2.4-0.3c0.1-0.1,0.2-0.2,0.4-0.4c0.7-1.2-0.2-1.9-0.8-2.6c-1.6-1.9-3.3-3.6-5.1-5.3
		l-0.4,0.2c-0.1-0.1-0.2-0.2-0.2-0.2c-0.4-0.4-0.7-0.8-1.1-1.2c-1.5-0.9-3.2-1.4-4.6-2.6c-4.6,0.3-8.4,0.5-11,0.7l-1.6,0.2L477,55
		c1.7,1.5,3.5,2.5,5.1,3.7C484,60.1,486.1,60.9,488.1,61.9z"/>
	<path d="M459.6,65.4c-0.7,2-1.2,4.3-1.8,6.9c0.2,0.1,0.4,0.2,0.6,0.3c1.5,0.9,3.2,0.4,4.6-0.8c1-0.8,2-1.7,3-2.5
		c0.8-0.8,1.6-0.8,2.5-0.4c1.5,0.6,3,1,4.6,1c2.8,0.1,5.6,0.7,8.5,0.9c3,0.3,6,0.7,8.9-0.3c0.8-0.3,1.3-0.8,1.4-1.7
		c0-0.1,0.1-0.2,0.1-0.4c0-0.2,0-0.4,0-0.5c0,0,0,0,0,0c-0.1-0.8-0.8-1-1.5-1.3c-3.1-1.3-6.3-1.4-9.6-1.2c-2.6,0.2-5.2,0.5-7.7-0.1
		c-3.7-0.9-7.2-2.1-11-2.2c-0.5,0-1.1-0.1-1.5-0.4C460.3,63.5,459.9,64.4,459.6,65.4z"/>
	<path d="M471.7,91.3c0.4-0.3,0.8-0.6,1.4-0.7c0.8-0.2,1.6-0.6,2.3-1.3c2.5-2.6,6.3-1.9,8,1.5c1.4,2.9,4,4.4,6.7,3.8
		c1.6-0.4,3.2-0.8,4.9-1.1c0.9-0.1,1.8-0.2,2.7-0.1c0.3,0,0.6-0.1,0.8-0.2c0.1,0,0.1,0,0.2-0.1c0.1,0,0.1-0.1,0.2-0.1
		c0.9-0.7,1.3-2.2,0.5-3.2c-1.3-1.6-2.6-3.1-4.2-4.3c-0.5-0.4-1.1-0.7-1.7-1c-0.4-0.2-0.7-0.3-1.1-0.4c0,0,0,0,0,0
		c-0.2,0-0.4-0.1-0.7-0.1c-0.1,0-0.2,0-0.4,0c-0.2,0-0.3,0-0.5,0.1c-0.1,0-0.1,0-0.2,0c-0.1,0-0.3,0-0.4,0.1
		c-3.5,1.2-7,1.3-10.5,0.6c-1.2-0.3-2.5-0.6-3.7-1.1c0,0,0,0,0,0c-0.4-0.1-0.7-0.3-1.1-0.4c-3.5-1.4-6.7-3.4-9.8-5.7
		c-1.8-1.4-4-1.9-6.1-1.4c-0.6,0.2-1.3,0.3-1.9,0.5c-0.8,5.1-1.4,10.8-1.9,16.7c-0.1,0.8-0.1,1.6-0.2,2.5c3.8,1.8,5.6,1,8.5-2.5
		c0.6-0.7,1.1-1.4,2-1.4c1.2-0.1,1.9,0.8,1.3,2c-0.3,0.7-0.8,1.4,0.1,1.9c0.9,0.5,1.6,0.5,2.3-0.3c0.6-0.8,1-1.7,1.4-2.6
		C470.8,92.4,471.2,91.8,471.7,91.3z"/>
	<path d="M631.4,168.7c-5.5-1.5-11.2-1.9-16.9-2.6c-0.6,0-1.2-0.1-1.8,0c-3.7,0.4-5.4,1.7-6,4.6c-0.2,1-0.3,2.1-0.3,3.4
		c0,2.8,1.3,4,3.8,4.2c2.2,0.2,4.3-0.3,6.5-0.5c2-0.3,4-0.7,6.1-0.2c1.6,0.4,2.7,1.7,2.8,3.3c0,0.1,0,0.2,0,0.3c0,0.1,0,0.2,0,0.3
		c-0.1,1.3-1.1,1.9-2,2.4c-0.4,0.2-0.7,0.4-1.1,0.6c-0.8,0.5-1.1,1.2-1,2.1c0,0.3,0.1,0.6,0.2,0.9c0.7,1.6,1.9,2.6,3.3,3.3
		c1.9,0.9,3.8,1.2,5.8,1.1c0,0,0-0.1,0-0.1c0.3,0,0.6,0,0.9,0C631.1,183.4,631.1,175.7,631.4,168.7z"/>
	<path d="M578.6,165.8c1,1.2,2,1.6,3,1.4c0.8-0.1,1.7-0.6,2.6-1.6c2.3-2.6,4.5-5.3,6.7-8c0,0-0.1,0-0.1,0c0,0,0,0,0,0
		c-3.2-2.2-6.3-2.4-9.4,0.3c-0.6,0.6-1.3,1-2.1,1.4c-1.1,0.6-1.8,0.5-2.1-0.3c-0.1-0.3-0.2-0.6-0.2-1.1c0-0.7,0-1.5,0-2.2
		c0-0.3,0-0.7-0.1-1c0-0.2-0.1-0.4-0.4-0.5c-0.5-0.3-0.9,0.1-1.2,0.4c-1.5,1.6-3.3,1.9-5.2,1.8c-1.8-0.1-3.5-0.2-5.3-0.3
		c-0.7,0-1.4-0.2-2.1,0.3c0.1,0,0.1,0.1,0.2,0.1c-0.1,0-0.1,0.1-0.2,0.1c4.1,1.8,8.4,3.2,12.1,5.8
		C576.3,163.4,577.5,164.5,578.6,165.8z"/>
	<path d="M553.6,187.2c0.5,1,1,1.9,1.7,2.8c0.2,0.3,0.5,0.6,0.7,0.8c1.4,1.3,2.6,1.3,3.8-0.1c0.1-0.1,0.2-0.3,0.4-0.5
		c0.7-1,1.1-2.1,1.4-3.3C559.5,185.4,555,185.6,553.6,187.2C553.6,187.2,553.6,187.2,553.6,187.2L553.6,187.2
		C553.6,187.2,553.6,187.2,553.6,187.2z"/>
	<path d="M558.8,145.8c0.2,0,0.3,0.1,0.5,0.1c3.8,0.5,7.5,0.5,11.2,0c2-0.3,4-0.6,6-1.1c1.6-0.4,3.1-1.2,4-2.7
		c0.7-1.2,0.9-2.7,0.6-4.7c-3,1.3-6,2.2-9.2,1.2c-2.5-0.8-4.8-2.1-7.2-3.2c-0.8,0-1.6,0-2.4,0c-2.3,0-4.6-0.3-6.8,0.3
		c-1.2,0.3-2.2,1.3-2.5,2.3c-0.2,0.4-0.2,0.8-0.1,1.3C553.1,141.6,556.4,145.1,558.8,145.8z"/>
	<path d="M452.5,126v-1.2c0.8-22.6,1.9-55.2,8.4-64.8l-9.2,2.8c-1,1.7-2,3.4-3,5.1c-1.6,2.8-1.5,5.5,0,8.3c0.9,1.6,1.4,3.2,1.1,5
		c-0.4,2.3-2.8,4.1-5.4,3.9c-0.7,0-1.3-0.4-1.7-0.8c-0.3-0.3-0.5-0.7-0.7-1c-1.8-2.9-4.2-2.9-6.2,0c-0.6,0.8-1,1.7-1.2,2.7
		c-0.6,2.5-0.8,5-0.7,7.6c0,0.9,0,1.8,0.9,2.5c1-1.8,2.9-2.9,4.2-2.5c1,0.3,1.6,2.1,1.2,4c-0.2,0.9-0.4,1.8-1,2.5
		c1.9,1.7,2.5,3.9,2.5,6.3c0,1.9,0.2,3.8,0.3,5.8c0.1,1.5,0.8,2.7,1.7,3.9c0.7,0.9,1.3,1.8,1.6,2.8c0.1,0.3,0.2,0.7-0.1,1
		c-0.4,0.3-0.9,0.2-1.3,0c-1.2-0.5-1.8-1.5-2.1-2.6c-0.6-1.9-1.4-3.7-2.4-5.5c-0.8-1.5-0.6-3.1-0.6-4.6c0-0.6,0.3-1.6-0.7-1.8
		c-1.2-0.2-1.7,0.6-2,1.5c-0.7,2.2-0.5,4.4-0.8,6.6c-0.3,2.3-0.4,4.7-1.8,6.7c-0.5,0.8-1.1,1.5-2.1,1.9c-0.7,0.3-1.3,0.4-1.9-0.1
		c-0.6-0.5-0.4-1.1-0.1-1.7c2.7-4,3.1-8.6,3.8-13.1c0,0,0-0.1,0-0.2c-2.4,1.4-4.1,3.5-6.2,5.2c-3,2.4-5.5,5.3-7.8,8.2
		c-0.9,1.1-1.6,2.2-2.1,3.5c-0.9,2.6-0.2,3.9,2.6,4.9c3.4,1.1,4.4,3.1,3.2,6.2c-0.5,1.1-1.2,2.2-1.9,3.2l21.2-4.8
		c0.1-0.4,0.3-0.9,0.5-1.4c0.7-1.5,2.1-1.7,3.7-1.6c2.3,0.1,4.1-0.3,5.9-1.1C452.4,128.3,452.4,127.2,452.5,126z"/>
	<path d="M409.9,127.3c-1.1-1.8-1.5-3.9-2-5.9c-0.2-0.7,0.2-1.3,0.6-1.9c2-3.5,3.2-7.3,4.9-11c0.1-0.3,0.1-0.6,0.2-0.9
		c-2.6-2.2-3.9-4.9-4.2-8c-0.2-2-0.2-4.1,0.2-6.1c0.3-2,0.2-3.8-1.5-5.4c-0.7-0.6-0.7-1.4-0.6-2.3c0.4-2.8,1.5-5.5,1.2-8.4
		c0-0.5-0.1-1-0.2-1.4l-24.4,7.4l5.6,25c0.3-1.4,0.3-2.8,0.1-4.3c-0.6-4.5,0-9,1.1-13.4c0.5-2,1.7-3.8,4.1-4.5
		c1.7-0.5,2.6,0,2.8,1.6c0.3,1.7-0.1,3.5-0.6,5.1c-2,7-3.9,14-6.3,20.9l6.7,29.8l16.9-3.9c-0.3-0.8-0.6-1.6-1-2.4
		C412.1,134.1,410.5,130.8,409.9,127.3z"/>
	<path d="M430.2,69.4l-5.2,1.6c-0.2,0.7-0.3,1.5-0.5,2.3c3.1-1.2,5.7-2.7,7.9-4.5L430.2,69.4z"/>
	<path d="M415.9,115.3c-0.5-0.2-1-0.6-1.5-1c-1.1,3.3-2.1,6.6-3.1,9.8c2.9-1,4.9-2.8,6.1-5.3C418.2,117,417.8,116.2,415.9,115.3z"/>
	<path d="M104.3,128.3c-0.2,1.5-0.6,2.9-1,4.4l6.6-1.6c0.3-1.9,0.4-4,0.5-6.3c0.6-16.5,1.3-41.2,4.6-56.4c0.8-3.8,1.2-6,2.3-8.2
		c0-0.2,0.1-0.4,0.1-0.6l-10.8,3.3c0,0.1,0,0.1,0,0.2c-0.1,0.7-0.8,1.7,0.9,1.7c0.5,0,0.4,0.6,0.3,0.9c-0.2,1.5-0.8,2.8-2,4
		c-1.6,1.6-3.5,2.7-5.3,4C98.7,75,97,76.2,95.7,78c-1.4,1.9-1.2,3.6,0.4,5.3c1,1.1,2.2,1.9,3.5,2.7c1,0.6,1.9,1.3,2.9,1.9
		c2.5,1.7,3.3,4,2.8,6.7s-1.3,5.3-2.5,7.7c-1.3,2.7-1,5.1,1.2,7.3c1.9,1.9,2.1,4.3,1.7,6.6C105,120.2,104.8,124.3,104.3,128.3z"/>
	<path d="M62,101.8c2.1-2.9,2.3-5.9,0.2-8.9c-1.8-2.5-2.7-5.3-3.2-8.3c-0.5-2.9,0-5.5,3.1-7.1c0.7-0.4,1.4-0.8,1.7-1.5
		c0,0,0-0.1,0-0.1l-11.5,3.5c-1.8,4.1-2.7,8.6-3.1,13.1c-0.2,2.1-0.5,4.2-0.7,6.4c-0.1,1.2-0.6,2.1-1.7,2.8c-1,0.7-1.9,1.5-2.9,2.2
		l1.7,7.6c0.2,0.3,0.4,0.6,0.5,1c0.7,1.9,2.7,2.7,4.7,2.1c0.6-4.1,2.4-7.6,6.9-9.5C59.6,104.4,61,103.3,62,101.8z"/>
	<path d="M93.9,109.5c-1.8-1.3-2-2.9-1.2-4.8c0.3-0.6,0.5-1.3,0.6-1.9c0.2-1.5-0.8-2.6-2.5-2.6c-1.1,0-2.3,0.1-3.4,0.2
		c-3.3,0.3-5-0.7-5.7-3.6c-0.5-2-0.3-3.9-0.2-5.9c0-1,0.2-2-0.1-2.9c-0.8-2-0.3-3.9,0.6-5.7c1.5-2.9,3-5.7,3.4-8.9
		c0.3-1.7,1.7-2.8,3.4-3.6c1.5-0.7,3-1.4,4.4-2.2c0.6-0.3,1-0.7,1.3-1L70.3,74c-0.5,1.2-0.9,2.4-1.4,3.6c-0.6,1.4-0.4,2.6,0.9,3.6
		c1.4,1.2,2.2,2.6,2,4.5c-0.1,0.7,0.1,1.5,0.2,2.3c0.1,0.6,0.2,1.2,1,1.2c0.7,0,1.2-0.3,1.5-0.8c0.4-0.7,0.7-1.5,1.1-2.2
		c0.4-0.9,1.1-1.6,2.3-1.5c1.3,0,1.6,1,2,1.8c0.6,1.5,0.2,2.9-0.8,4.2c-1.9,2.6-3.8,5.1-4.9,8.1c-0.5,1.3-1.6,2.2-2.7,3
		c-5.6,3.8-8.3,9.2-11,14.7c-0.9,1.9-1.6,3.9-1.9,6c-0.3,2.1,0.5,3.8,2.3,5.1c4.7,3.1,5.5,5.9,3.5,11.5c-0.4,1-0.8,2.1-1.2,3.1
		l3.4-0.8c0.1-0.3,0.2-0.6,0.4-0.9c0.3-0.6,0.8-1.2,1.7-1.1c0.7,0.1,1.1,0.6,1.3,1.2l11.5-2.7c-0.1-3.3-0.4-6.7-1.4-9.9
		c-0.6-2.1-2-3.6-4.2-4.4c-1.7-0.7-3.5-1.3-4.9-2.4c-1.4-1.1-1.8-2.8-1.1-4.1c0.6-1.2,1.7-1.3,2.6-0.3c0.7,0.8,0.9,1.7,1.2,2.7
		c0.8,2.3,2.3,3,4.9,2.3c2-0.6,3.5-1.6,4.5-3.3c0.4-0.7,0.9-1.3,1.5-1.8c1.6-1.2,3.7-1,4.8,0.6c0.9,1.2,1,2.6,1.1,3.9
		c0.2,2.1,0.3,4.2,0.5,6.2c0.2,2.5,1.6,4,4.5,4.3c0.3-3.9,1.9-7.6,2.1-11.5C97.6,116,97.8,112.2,93.9,109.5z"/>
	<path d="M335.8,113.7c-3.4-1.1-4.4-3.1-3.2-6.2c0.6-1.5,1.7-2.9,2.6-4.2c0.8-1.1,1.5-2.1,2.2-3.3c1.3-2.2,1.7-4.5,0.7-6.9
		c-1.1-2.9-2.2-5.8-3.2-8.7c-0.6-1.8-0.9-3.7-1.1-5.5c-0.2-1.9,0.3-3.6,1.4-4.9l-6.1-1.9c-0.4,0.5-1,0.8-1.7,0.8
		c-1.1,0-1.5-0.8-1.7-1.6c0-0.1,0-0.1,0-0.2l-7.1-2.2c-0.6,2-0.6,4.1,0.4,6.4c0.4,0.8,0.6,1.7,0.5,2.7c-0.1,0.9,0.3,1.5,1.3,1.9
		c3.1,1,4.4,3,3.3,5.9c-1.5,3.8-4.1,6.9-8.7,8.1c-0.5,0.1-1,0.4-1.6,0.6c-0.9,1.5-1.7,3-2.7,4.5c-0.9,1.4-1,2.8-1,4.3
		c0.3,0.3,0.6,0.6,1,0.8c2.9,1.7,3,3.7,1.7,6.6c-0.7,1.5-2.1,1.7-3.7,1.6c-4.6-0.2-8.1,1.7-10.9,4.8c1.1,0.8,1.4,1.8,1.3,3
		c0,4.1-1.6,7.8-3.7,11.3c0,0,0,0,0,0.1l17.9,4.3c0-1.7-0.2-3.4-0.3-5.2c-0.1-1.5-0.8-2.7-1.7-3.9c-0.7-0.9-1.3-1.8-1.6-2.8
		c-0.1-0.3-0.2-0.7,0.1-1c0.4-0.3,0.9-0.2,1.3,0c1.2,0.5,1.8,1.5,2.1,2.6c0.6,1.9,1.4,3.7,2.4,5.5c0.8,1.5,0.6,3.1,0.6,4.6
		c0,0.3-0.1,0.6,0,0.9l2.1,0.5c0.3-0.3,0.5-0.7,0.6-1.1c0.7-2.2,0.5-4.4,0.8-6.6c0.3-2.3,0.4-4.7,1.8-6.7c0.5-0.8,1.1-1.5,2.1-1.9
		c0.7-0.3,1.3-0.4,1.9,0.1c0.6,0.5,0.4,1.1,0.1,1.7c-2.7,4-3.1,8.6-3.8,13.1c0,0,0,0.1,0,0.2c2.4-1.4,4.1-3.5,6.2-5.2
		c3-2.4,5.5-5.3,7.8-8.2c0.9-1.1,1.6-2.2,2.1-3.5C339.4,116,338.6,114.6,335.8,113.7z"/>
	<path d="M290.5,75.9c0.6,4.3,1.1,9,1.5,13.9c0.7-0.7,1.2-1.6,1.5-2.5c1.1-3.1,1.1-6.2,0.3-9.3c-0.4-1.4-1.4-2.2-3-2.1
		C290.7,75.9,290.6,75.9,290.5,75.9z"/>
	<path d="M295.4,70.1c0.8,0.1,1.2-0.5,1.6-1c0.9-1.2,1.8-2.5,2.6-3.8c0.6-0.9,1-1.3,2.1-0.4c1.3,1,2.9,1.2,4.3,0.2c0,0,0,0,0.1,0
		L295.8,62c-0.3,1.3-0.6,2.6-1.2,3.8c-0.4,0.8-0.6,1.8-0.3,2.7C294.5,69.1,294.5,69.9,295.4,70.1z"/>
	<path d="M309.7,66.5c0.2,0,0.4-0.1,0.5-0.2l-1.6-0.5l-1.2-0.3C307.9,66.3,308.6,66.7,309.7,66.5z"/>
	<path d="M289.5,70c0.1,0,0.3-0.1,0.5-0.1c1.2-0.1,1.5-1.1,1.8-2c0.7-2.2,0.9-4.5,1.1-6.8l-6.8-2.1c1.3,2.4,2.2,5,3.1,9.2
		C289.3,68.8,289.4,69.4,289.5,70z"/>
	<path d="M290.2,73.6c0.3-0.4,0.3-0.9,0-1.6c-0.1-0.2-0.2-0.3-0.3-0.5C289.9,72.2,290.1,72.9,290.2,73.6z"/>
	<path d="M361,95.7c-1.2,0.8-2.5,1.3-4,1.6c-2.9,0.4-5.1-0.7-6-3.3c-1-2.9-0.8-5.7,0.7-8.4c1-1.9,2.3-3.7,3.5-5.5l-12.4-3.8
		c0,0.1,0.1,0.2,0.1,0.4c0.6,1.9,1.1,3.7,1.5,5.6c0.1,0.6,0.4,1.2-0.2,1.7c-2.7,2.3-3.3,5.5-4.1,8.5c-1,4.3-0.1,8.5,1.8,12.5
		c1.5,3.3,3.1,6.5,3.7,10.1c1.1,1.8,1.5,3.9,2,5.9c0.2,0.7-0.2,1.3-0.6,1.9c-2,3.5-3.2,7.3-4.9,11c-0.1,0.3-0.1,0.6-0.2,0.9
		c2.6,2.2,3.9,4.9,4.2,8c0,0.2,0,0.4,0,0.6l6.1,1.4l0.2,0l11.4-51.8C363,94,362,94.8,361,95.7z"/>
	<path d="M338.2,123.5c-0.8,1.8-0.4,2.6,1.5,3.5c0.5,0.2,1,0.6,1.5,1c1-3.3,2.1-6.5,3.1-9.8C341.4,119.2,339.4,121,338.2,123.5z"/>
	<path d="M651.1,66.2c0-0.3,0-0.5,0.1-0.7l-4.9-1.5c-0.1,0.3-0.2,0.6-0.3,1c-0.2,1.3-1.1,2.1-2.4,2.5c-2.3,0.6-3.7,2.4-5.9,3.1
		c-1.1,0.3-1.4,1.6-1.7,2.5c-0.2,0.8-0.4,1.6-0.7,2.3c2.3,14.3,3,34,3.5,49v0.2c0,0,0,0,0,0v1c0,0.6,0,1.1,0.1,1.7
		c0,0.5,0.1,1,0.1,1.5c0.1,0.8,0.1,1.6,0.2,2.4l13.7,3.2c-0.3-0.6-0.8-1.2-1.4-1.8c-1.9-1.9-2.1-4.3-1.7-6.6c0.7-4,0.9-8.1,1.4-12.1
		c0.5-3.4,1.6-6.7,2.8-9.9c2.9-7.5,2.3-14.9,0-22.3C652.3,76.8,650.5,71.7,651.1,66.2z"/>
	<path d="M687.8,80.4c1.5,1.8,4.7,1.7,5.4-0.8c0.1-0.4,0.3-0.9,0.5-1.3l-9.3-2.8c0.1,0.3,0.3,0.6,0.5,0.9
		C685.7,77.8,686.7,79.1,687.8,80.4z"/>
	<path d="M700.3,80.3l-0.4-0.1c0,0.1,0,0.1-0.1,0.2c-0.4,1.1-1,2.3-1.4,3.4c-0.3,0.8-0.7,1.8,0.4,2.5c1.2,0.7,1.9-0.2,2.6-0.8
		c1.4-1.1,2.7-2.4,3.9-3.7L700.3,80.3z"/>
	<path d="M693.5,140.5c-0.7,1-1.2,2-1.5,3.1l4.7,1.1l1.7-7.8c-0.3,0.1-0.6,0.3-0.9,0.4C696,138,694.6,139,693.5,140.5z"/>
	<path d="M697.1,120.1c0.3-2.1-0.5-3.8-2.3-5.1c-4.7-3.1-5.5-5.9-3.5-11.5c0.9-2.6,2.1-5.1,3.2-7.7c0.6-1.3,0.7-2.6-0.1-4
		c-0.6-1.1-0.4-2.4,0.3-3.3c2-2.7,2.9-5.7,3.3-8.8v-0.1l-2-0.6c0,0.1-0.1,0.3-0.1,0.4c-0.2,0.7-0.7,1.4-0.7,2.2
		c-0.2,2.3-0.9,4.4-2.7,6c-0.2,0.2-0.3,0.4-0.4,0.7c-0.6,3.5-2.5,6.8-2.6,10.4c0,1.2-0.2,2.3-0.8,3.4c-0.3,0.6-0.8,1.2-1.7,1.1
		c-0.8-0.1-1.1-0.7-1.3-1.3c-0.7-1.7-0.9-3.6-0.9-5.4c0-1.3,0-2.7-0.3-3.9c-0.6-2.3-2.9-3.3-5.4-2.4c-2,0.7-3.2,2.2-3.9,4
		c-1.2,3-1,6.1-1,9.2c0,3.8,0.3,7.6,1.4,11.3c0.6,2.1,2,3.6,4.2,4.4c1.7,0.7,3.5,1.3,4.9,2.4c1.4,1.1,1.8,2.8,1.1,4.1
		c-0.6,1.2-1.7,1.3-2.6,0.3c-0.7-0.8-0.9-1.7-1.2-2.7c-0.8-2.3-2.3-3-4.9-2.3c-2,0.6-3.5,1.6-4.5,3.3c-0.4,0.7-0.9,1.3-1.5,1.8
		c-1.6,1.2-3.7,1-4.8-0.6c-0.9-1.2-1-2.6-1.1-3.9c-0.2-2.1-0.3-4.2-0.5-6.2c-0.2-2.5-1.6-4-4.5-4.3c-0.3,3.9-1.9,7.6-2.1,11.5
		c-0.2,3.7-0.3,7.6,3.5,10.3c1.5,1.1,1.9,2.5,1.5,4l20.1,4.7c0.3-0.2,0.6-0.5,0.9-0.7c5.6-3.8,8.3-9.2,11-14.7
		C696.1,124.2,696.8,122.2,697.1,120.1z"/>
	<path d="M660.8,106c0.5,0,0.7-0.4,0.9-0.8c1.8-2.8,2.2-5.7,0.9-8.7c-1.2-2.6-1.1-5.2-0.1-7.9c0.9-2.5,2.2-5,2.2-7.8
		c-1.1,0.6-1.9,1.5-2.2,2.7c-0.6,2.4-1.2,4.8-1.6,7.3c-0.8,4.7-0.5,9.4-0.6,14.2C660.5,105.3,660.2,105.9,660.8,106z"/>
	<path d="M105.2,304.4L105.2,304.4c0,0,0.1,0,0.1,0c0.9,0.1,1.9,0.3,2.7,0.6c0,0,0,0,0,0c1.6,0.6,3,1.5,4.4,2.6
		c0.2,0.1,0.3,0.3,0.5,0.4c0.3,0.2,0.6,0.5,0.9,0.7c1.5,1.2,3.2,2.2,4.9,3.1c0.1,0.1,0.3,0.1,0.4,0.2c0.3,0.1,0.5,0.3,0.8,0.4
		c1.2,0.5,2.5,1.2,3.3-0.8c0.2-0.6,0.8-0.3,1.2-0.1c0.5,0.2,0.9,0.1,1.2-0.3c0.3-0.5,0.1-0.9-0.1-1.4c0,0,0-0.1-0.1-0.1c0,0,0,0,0,0
		c-1-1.7-2.9-2.2-4.3-3.3c-1.4-1-2.9-1.8-4.3-2.7c-0.2-0.1-0.4-0.2-0.5-0.4c0-0.1,0-0.2,0-0.3c0.1-0.3,0.5-0.3,0.8-0.2
		c3.7,0.3,7.2,0.8,9.7,4.1c0.1,0.2,0.2,0.3,0.3,0.5l0,0c0.1,0.1,0.1,0.2,0.2,0.3c1.4,2.4,3.9,2.4,6.3,2.4c0.6-1.1,1.7-1.7,2.6-2.5
		c0.6-0.5,1.1-0.1,1.7-0.1c0.7,0.1,1.7,0.8,1.7-0.9c0-0.5,0.6-0.3,0.9-0.3c1.5,0.2,2.8,0.8,4,1.9c1.6,1.5,2.7,3.4,4,5.1
		c1.3,1.7,2.5,3.4,4.3,4.6c1.9,1.3,3.6,1.2,5.3-0.4c1.1-1,1.9-2.2,2.7-3.3c0.6-0.9,1.3-1.8,1.9-2.8c1.7-2.4,4-3.2,6.7-2.7
		c2.7,0.5,5.3,1.2,7.7,2.4c2.7,1.3,5.1,1,7.3-1.2c1.9-1.9,4.3-2,6.6-1.6c4,0.7,8.1,0.8,12.1,1.4c3.4,0.5,6.7,1.5,9.9,2.7
		c7.5,2.8,14.9,2.2,22.3,0c5.1-1.6,10.2-3.3,15.7-2.8c3.4,0.3,6.8,0.6,10.2,0.9c2.3,0.2,4,1.4,5.1,3.6c2.3,4.3,5.6,6.5,11.7,4
		c2.1-0.8,4.1-1.8,5.8-3.5c-0.1-0.1-0.2-0.2-0.3-0.2c0.1-0.1,0.2-0.2,0.3-0.2c-0.9-0.7-1.8-1.4-2.7-2.1c-1.3-1-2.7-1.7-4.3-2.1
		c-1.1-0.2-2-0.2-2.8,0.6c-0.2,0.2-0.4,0.5-0.6,0.8c0,0,0,0.1-0.1,0.1c-0.7,1.2-1.7,1.5-2.9,0.8c-0.2-0.1-0.3-0.2-0.5-0.4
		c-0.7-0.7-1.5-1.2-2.3-1.7c-1.2-0.7-2.5-1.3-3.9-1.7c-1.5-0.4-2.9-0.6-4.2,0.4c-0.7,0.6-1.4,0.3-1.9-0.2c-0.6-0.6-1.2-1.3-1.7-2
		c-1-1.3-2.1-2.3-3.8-2.5c-1.3-0.2-2.1-1.1-2.5-2.4c-0.6-2.2-2.4-3.6-3.1-5.7c-0.3-1-1.6-1.3-2.5-1.6c-3.6-0.9-7-2.1-10.7-2.6
		c-3.7-0.5-6.4-2.8-8.6-5.9c-0.2-0.2-0.3-0.5-0.4-0.7c-2.1-3.3-3.4-3.8-5.7-1.7c-0.3,0.3-0.7,0.6-1.1,1c-0.8,0.8-1.6,1.5-2.5,2
		c-0.3,0.1-0.7,0.2-1,0.3c-0.4,0.1-0.8,0.3-1.1,0.5c-0.1,0.1-0.2,0.2-0.3,0.3c-0.1,0.1-0.1,0.1-0.2,0.2c0,0,0,0.1-0.1,0.1
		c-0.1,0.1-0.2,0.3-0.2,0.4c-0.6,2.2-2,3.6-3.8,4.6c-2.4,3.1-4.3,3.6-7.8,2.2c-1.1-0.5-2.2-1.1-3.2-1.8c-1.3-0.9-2.7-1.6-4.3-1.8
		c-0.3,0-0.8,0-1-0.3c-2.3-1.9-4.8-1.2-7.2-0.9c-0.4,0.1-0.8,0.1-1.1,0.5l-0.1,0.1c-0.9,1-1.9,0.8-2.9,0.4c-2.3-1.2-4.6-1.4-7-0.1
		c-0.6,0.3-1.3,0.5-1.9,0c-2.3-1.8-4.7-1.4-7.1-0.4c-0.5,0.2-1,0.4-1.4,0.5c-0.8,0.1-1.4-0.3-1.8-1c0-0.1-0.1-0.1-0.1-0.2
		c0.1-0.4,0.4-0.7,0.7-1c0.7-0.7,1.6-1.1,2.5-1.5c0.2-0.5,0-1.1,0-1.6c0-2.1,0.7-3.8,2.5-4.9c1.1-0.6,2.2-1.2,3.2-1.9
		c1.1-0.7,1.5-1.7,1.2-2.6c-0.1-0.6-0.3-1.1-0.9-1.7c-0.4-0.5-0.9-0.9-1.4-1.2c-2.3-1.2-4.4-2.6-6.4-4.5c-0.9-0.9-2.1-0.9-3.3-1
		c-2.1,0-4.2,0.3-6.2-0.5c-1.1-0.4-1.8-1.1-2.3-2.2c-1-2.6-2.6-4.3-5.5-4.4c-3-0.1-5.6-1.3-8-3.2c-4.3-0.9-8.3-2.7-12.5-4.1
		c-1.6-0.5-3.2-0.5-4.8-0.4c-0.9,0.1-1.7-0.2-2.1-1.1c-1.3-3-3.8-3.9-6.4-4.7c-2-0.6-4.1-1.1-6.1-2c-0.3-0.1-0.5-0.2-0.8-0.2
		c-0.2,0.5-0.4,1-0.6,1.5l0,6.1c0,0,0.1,0,0.1,0c0.4,0.2,0.7,0.5,0.8,0.9v0c0,0,0,0,0,0c0.4,0.8,0.3,2,0.8,2.8
		c0.2,0.4-0.2,0.6-0.6,0.8c-0.3,0.2-0.7,0.4-1.1,0.6l0,10.1c0.3-0.1,0.6-0.1,0.9-0.2l0,0.8c0.2,0,0.4-0.1,0.5-0.1
		c1-0.3,2-0.1,2.9,0.6c3.2,2.2,6.5,2.7,10.2,1.1c4.9-2.1,10.1-1.5,15.2-0.7c1.4,0.2,2.8,0.6,4.2,0.7c1.7,0,2.7,0.9,3.6,2.3
		c0.4,0.7,0.9,1.3,1.6,1.7c2.5,1.4,5,2.9,6.4,5.8c1.2,0.9,2.7,1.3,3.7,2.5c0.2,0.3,0.5,0.6,0.7,0.9c0.1,0.3,0.1,0.6,0,0.9
		c-0.3,1.1-1.2,1.2-2.1,1.3c-2.4,0.3-4.6,0-6.8-1.2c-0.9-0.5-1.8-1.1-2.7-1.6c-1.5-0.2-2.9-0.6-4.4-0.4s-2.6,1.3-2.8,3
		c-0.1,0.7,0.1,1.2,0.5,1.6c0.3,0.9,1,1.3,1.9,1.6c2.2,0.9,4.5,1.2,6.8,1.7c1.6,0.4,2.9,1.3,3.8,2.7c0.7,1.8,0,3.5-2,4
		c-3.4,0.9-6.9,0.4-10.3-0.3c-2.6-0.5-5.1-1.3-7.8-1.3c-0.3,0-0.6-0.1-0.9-0.3c-0.2-0.2-0.4-0.3-0.6-0.5c-0.5-0.4-1-0.9-1.5-1.3
		c-0.1-0.1-0.3-0.2-0.4-0.4c0,0,0,0-0.1,0c-1.2-1-2.4-1.8-4-2.2c-0.1,0-0.2,0-0.3-0.1c0-0.1,0-0.1,0-0.2c0.2-0.6,0.6-1.2,1.4-1.1
		c0.6,0.1,1.2,0.3,1.7,0.7c0.3,0.2,0.7,0.7,1,0.7c1.2-0.1,2,0.5,2.7,1.2c0.3,0.3,0.6,0.7,0.8,1c0.1,0.1,0.2,0.2,0.2,0.3
		c0.1,0.1,0.1,0.2,0.2,0.3c0.3,0.4,0.6,0.7,1,0.9c0.8,0.5,1.8,0.8,2.4,0.1c0.2-0.3,0.2-0.6,0-0.9c0-0.5-0.7-1-1-1.3
		c-2.7-2.6-5.3-5.3-8.7-6.7c-1.1-0.5-2.3-0.8-3.7-0.9c-2.6-0.2-5,0.7-7.5,1c-2.3,0.2-4.6,0.5-6.8,0.8l0,17.6
		C104.7,304.3,105,304.3,105.2,304.4C105.2,304.4,105.2,304.4,105.2,304.4z"/>
	<path d="M272.9,356.2c-1.9-1.3-4-2.1-6-3.1c-1.3-0.6-2.5-1.4-3.7-2.2c-1.4-1-2.8-0.9-4.1,0.2l0,0c0,0,0,0,0,0c0,0-0.1,0.1-0.1,0.1
		c-0.4,0.4-0.8,0.8-1.2,1.1c-2.7,1.9-4.9,0.5-6.5-2.9c-1.1-2.2-2.1-4.5-3.8-6.3c-2.1-2-3.9-2.4-6.4-0.9l-0.1,0.1
		c-0.1,0-0.1,0.1-0.2,0.1c-0.8,0.5-1.6,1-2.3,1.6c-0.2,0.1-0.3,0.3-0.5,0.4c-0.3,0.2-0.6,0.4-0.8,0.6c-0.1,0.1-0.2,0.2-0.3,0.3
		c-0.1,0.1-0.1,0.1-0.2,0.2c0,0-0.1,0.1-0.1,0.1c-1.3,1.6-1,4.1,1.3,4.7c0.9,0.2,1.9,0.6,2.6,1.4c0.3,0.3,0.5,0.7,0.4,1.2
		c-0.2,0.4-0.5,0.6-0.9,0.5c-0.6-0.1-1.2-0.2-1.8-0.4c-0.7-0.2-1.4-0.6-2.2-0.7c-2.3-0.2-4.4-0.9-6-2.6c-0.1-0.1-0.2-0.2-0.4-0.3
		c-0.1,0-0.1-0.1-0.2-0.1c-0.1,0-0.1,0-0.1-0.1c-3.5-0.6-6.8-2.4-10.4-2.5c-1.2,0-2.3-0.2-3.4-0.8c-0.6-0.3-1.2-0.8-1.1-1.6
		c0.1-0.5,0.4-0.8,0.8-1c0.1-0.1,0.2-0.1,0.3-0.2c0.4-0.2,0.9-0.3,1.3-0.4c0,0,0,0,0,0c1.3-0.3,2.7-0.4,4.1-0.4c1.3,0,2.7,0,3.9-0.3
		c1.7-0.4,2.8-1.9,2.7-3.6c0-0.5-0.1-1.1-0.3-1.7c-0.7-1.9-2.2-3.1-4-3.7c-3-1.1-6.1-0.9-9.2-1c-3.8,0-7.6,0.2-11.3,1.3
		c-0.5,0.2-1,0.4-1.5,0.6c-1,0.5-1.8,1.3-2.4,2.3c-0.2,0.4-0.4,0.8-0.6,1.2c-0.3,0.8-0.6,1.6-1,2.4c0,0.1-0.1,0.2-0.1,0.3
		c-0.4,0.7-0.7,1.4-1.3,2c-0.4,0.5-0.9,0.9-1.4,1.1c-0.6,0.3-1.3,0.3-2,0.2c-0.1,0-0.1,0-0.2,0c-0.1,0-0.1-0.1-0.2-0.1
		c-0.1,0-0.2-0.1-0.3-0.1c-0.6-0.3-0.9-0.7-1-1.1c0-0.4,0.2-0.9,0.7-1.3c0.8-0.7,1.7-0.9,2.7-1.2c1.8-0.6,2.6-1.6,2.6-3.2
		c0-0.5-0.1-1.1-0.3-1.7c-0.6-1.9-1.6-3.4-3.3-4.3c-0.7-0.4-1.3-0.8-1.8-1.5c-0.7-0.9-0.9-2-0.6-3c0.2-0.6,0.6-1.1,1.2-1.6
		c1.2-0.9,2.6-1,3.9-1.1c2.1-0.2,4.2-0.3,6.2-0.5c2.5-0.2,4-1.6,4.3-4.4c0,0-0.1,0-0.1,0c0-0.1,0-0.2,0-0.2c-3.9-0.3-7.6-1.8-11.5-2
		c-3.7-0.2-7.6-0.3-10.3,3.4c-1.3,1.8-2.9,2-4.8,1.2c-0.6-0.3-1.3-0.5-1.9-0.6c-1.3-0.2-2.4,0.5-2.6,1.9c0,0.2-0.1,0.4-0.1,0.7
		c0,1.1,0.1,2.2,0.2,3.3c0.1,0.8,0.1,1.5,0,2.1c0,0.3-0.1,0.5-0.2,0.7c-0.5,1.3-1.5,2.1-3.4,2.5c-2,0.5-3.9,0.3-5.9,0.2
		c-1,0-2-0.2-2.9,0.1c-2,0.8-3.9,0.3-5.7-0.6c-2.9-1.4-5.7-2.9-8.9-3.3c-1.5-0.3-2.5-1.4-3.3-2.6c-0.1-0.1-0.1-0.2-0.2-0.4
		c-0.7-1.4-1.4-2.9-2.2-4.3c-0.1-0.2-0.2-0.3-0.3-0.4c-1.1-1.6-2.4-2-3.7-1.1c-0.4,0.3-0.8,0.7-1.2,1.4c-0.5,0.8-0.9,1.7-1.2,2.6
		c-0.6,1.6-1.1,3.1-1.8,4.7c-1,2.5-2.2,4.3-3.8,5.3c-1.6,1-3.5,1.3-6,1c-4.6-0.5-8.9-0.1-13.1,1.5c-0.4,0.2-0.9,0.3-1.3,0.5
		c-0.2,0.1-0.4,0.2-0.7,0.2c-0.2,0.1-0.4,0.2-0.7,0.2h-0.1c-1.5,0.4-2.9,0.6-4.4,0.6l0,17.4c0,0,0,0,0.1,0l0,0.2
		c0.4-0.1,0.8-0.2,1.3-0.2c1.9,0,3.8,0.6,5.7,0.9c1.1,0.2,2.2,0.3,3.3,0.2c1-0.1,1.9-0.6,2.3-1.7c0.4-1.1,0.2-2.1-0.5-3
		c0,0,0,0-0.1-0.1c-0.1-0.1-0.1-0.2-0.2-0.2c-1-1.2-2.3-1.9-3.7-2.6c-1.7-0.9-3.6-1.6-5.1-2.8c-0.3-0.2-0.7-0.4-0.9-0.7
		c-0.1-0.2-0.1-0.4,0.1-0.6c0.4-0.8,1.3-0.4,1.9-0.1c1.9,1,4,1.4,5.8,2.3c3,1.5,6.2,2.1,9.5,1.3c3-0.7,5.9-0.2,8.7,1.3
		c2,1,4.1,1.8,5.9,3.1c0.5,0.4,1,0.9,1.5,1.4c0.1,0.2,0.3,0.3,0.5,0.5c0.6,0.7,1.6,0.9,2.5,0.2c0.8-0.6,1.6-0.4,2.3,0.2
		c6.4,6,14.2,8.3,22.4,8.9c2.1,0.2,4.2,0.5,6.4,0.6c0.9,0.1,1.6,0.4,2.2,0.9c0.1,0.1,0.2,0.2,0.3,0.4c0.8,1.2,1.7,2.3,2.7,3.4
		c0.1,0.1,0.2,0.2,0.3,0.3c0,0,0,0,0,0c0.1,0.1,0.3,0.3,0.4,0.4c0.8,0.8,1.6,1.3,2.7,1.6c1.5,0.4,2.3,0,2.6-1.6
		c0.3-1.6,1-2.6,2.5-3.1c1.9-0.7,2.7-2.6,2.1-4.6c0,0,0,0-0.1,0c0-0.2-0.1-0.3-0.1-0.5c-4.1-0.6-7.6-2.3-9.5-6.7
		c-0.7-1.6-1.8-3-3.3-4c-2.9-2-5.9-2.2-8.9-0.1c-2.5,1.7-5.3,2.6-8.3,3.1c-2.6,0.5-5,0.1-6.6-2.2c0-0.1-0.1-0.2-0.1-0.2
		c-0.1-0.3-0.3-0.5-0.5-0.7c-0.4-0.5-0.7-1.1-1.4-1.4c-2.4-1-4.3-2.7-6.3-4.5c-1.2-1.1-2.6-1.4-3.9-0.3c-1.8,1.4-3.6,0.2-5.4,0
		c0,0,0,0,0,0c0.1-0.2,0.2-0.4,0.4-0.6c0.9-0.6,1.5-1.4,2.1-2.3c0.4-0.6,0.9-0.8,1.6-0.8c1.8-0.1,3.4,0.3,5.1,0.9
		c2.7,1,5.4,2.1,8.2,3.2c1.4,0.6,2.6,0.3,3.6-0.8c1.2-1.4,2.6-2.1,4.5-1.9c0.7,0.1,1.5-0.1,2.3-0.2c0.6-0.1,1.2-0.2,1.2-1
		c0-0.4-0.1-0.8-0.3-1c-0.1-0.3-0.3-0.5-0.6-0.6c0,0,0,0-0.1,0c-0.1-0.1-0.3-0.1-0.4-0.2c-0.6-0.3-1.2-0.5-1.7-0.9
		c-0.5-0.2-1-0.5-1.3-1c-0.1-0.3-0.2-0.6-0.2-1c0-1.2,1-1.6,1.8-1.9c1.5-0.6,2.9-0.2,4.2,0.8c2.6,1.9,5.1,3.7,8.1,4.7
		c1,0.3,1.8,1.1,2.5,1.9c0.1,0.2,0.2,0.3,0.3,0.5c0.4,0.6,0.9,1.2,1.3,1.7c3.7,4.4,8.6,6.8,13.6,9.2c1.9,0.9,3.9,1.6,6,1.9
		c2.1,0.3,3.8-0.4,5.1-2.3c3.1-4.5,5.9-5.3,11.5-3.4c2.6,0.9,5.1,2.1,7.7,3.1c1.3,0.5,2.6,0.7,4-0.1c1.1-0.6,2.4-0.4,3.3,0.3
		c2.7,2,5.7,2.8,8.8,3.2c0.6,0.1,1.2,0.3,1.7,0.6c0.2,0.1,0.4,0.2,0.6,0.4c0,0.1,0,0.1,0,0.2c-0.2,0.6-0.7,0.8-1.2,0.7
		c-0.6-0.1-1.3-0.3-1.9-0.6c-1.1-0.4-2.3-1-3.4-1.3c-0.8-0.3-1.8-0.7-2.5,0.4c-0.4,0.5-0.3,1-0.1,1.4c0.1,0.6,0.7,1,1,1.5
		c1.7,2,3.6,3.7,5.5,5.5c0.4,0.3,0.7,0.7,1.1,1.1l0,0c2,1.2,4.5,1.6,5.8,4.1c0.2,0.4,0.4,0.7,0.7,1.1c9.8-1.1,19.1-2.4,27.2-3.7
		c-0.3-0.1-0.6-0.2-0.9-0.2c0.3,0,0.6-0.1,0.9-0.1c-1.9-0.5-3.8-1-5.7-1.3c3.6-2.7,7.8-3.1,12-3.4c0-0.1-0.1-0.2-0.2-0.3
		c0.1,0,0.1,0,0.2,0C277.2,358.8,274.9,357.7,272.9,356.2z"/>
	<path d="M299.9,343.9c-0.1,0-0.1,0-0.2,0c-1-0.1-2-0.4-3-1c-1.5-0.9-3.2-0.3-4.6,0.8c0,0,0,0,0,0c0,0,0,0,0,0
		c-0.6,0.5-1.3,1-1.9,1.5c-0.3,0.3-0.7,0.6-1.1,0.9c-0.3,0.3-0.6,0.5-0.9,0.6c-0.5,0.1-1,0-1.6-0.2c-0.1,0-0.2-0.1-0.3-0.1
		c-1.4-0.5-2.8-0.8-4.3-0.9c-2.8-0.1-5.6-0.6-8.5-0.9c-3-0.3-6-0.7-8.9,0.3c-0.7,0.2-1.2,0.7-1.4,1.3c0,0.1,0,0.2-0.1,0.3
		c0,0.1-0.1,0.2-0.1,0.3v0.1c-0.1,1.2,0.7,1.4,1.5,1.7c1,0.4,2,0.7,3.1,0.9c1.8,0.3,3.6,0.4,5.5,0.3c0.3,0,0.7,0,1.1,0
		c2.6-0.1,5.2-0.5,7.7,0.1c2.8,0.7,5.5,1.5,8.3,1.9c0.9,0.1,1.9,0.2,2.8,0.2c0.3,0,0.7,0.1,1,0.2c0,0,0.1,0,0.1,0c0,0,0.1,0,0.1,0
		c0.7,0.3,1.3,0.9,1.7,1.6c0,0,0,0,0.1,0c0.1,0.1,0.1,0.2,0.1,0.3c0,0.1,0.1,0.2,0.1,0.3c0.7,2.3,2.1,3.6,3.8,4.4v0
		c0,0,0.1,0,0.1,0.1v-4.8L299.9,343.9C300,343.9,299.9,343.9,299.9,343.9L299.9,343.9z"/>
	<path d="M236.1,370.5c0,0-0.1,0-0.1,0c-0.3,0-0.6-0.1-0.8-0.1c-0.2,0-0.5,0-0.7,0c-0.4,0-0.8,0-1.2,0c0,0,0,0,0,0c0,0,0,0,0,0
		c-0.2,0.3-0.3,0.6-0.3,0.9c1.5-0.1,3-0.3,4.6-0.5c-0.1,0-0.1,0-0.2,0c0.1,0,0.2,0,0.3,0C237.1,370.7,236.6,370.6,236.1,370.5z"/>
	<path d="M586,353.5c1.2-0.4,2.4-0.6,3.6-0.6c0.1,0,0.1,0,0.2,0c0.2,0,0.4,0,0.7,0c0.2,0,0.3,0,0.5,0.1c0.2,0,0.3,0,0.5,0.1
		c0.3,0.1,0.5,0.1,0.8,0.2c0.1,0,0.1,0,0.2,0.1c0.5,0.2,1.1,0.4,1.6,0.6c0.1,0,0.2,0.1,0.2,0.1c1.9,1,3.7,2.3,5.5,3.5
		c0.8,0.5,1.4,0.9,2,1.1c2.4,1.1,4.1,0.6,6.7-1.7c2.1-1.8,4.1-3.7,6.7-4.5c0-0.1,0-0.1,0-0.2c0-0.2-0.1-0.3-0.1-0.5
		c-1.4-5.4-4-7.8-8.3-7.3c-1,0.1-2.2,0.3-3.4,0.7c-1.9,0.6-3.7,1.1-5.6,1.5c-0.4,0.1-0.7,0.2-1.1,0.2c-0.2,0-0.4-0.1-0.6-0.4
		c-1.9-2.2-4.2-3-6.7-3.6c-0.6-0.2-1.2-0.3-1.8-0.5c-4.3-1-8.5-0.1-12.5,1.8c-3.3,1.5-6.5,3.1-10.1,3.7c-1.2,0.7-2.5,1.1-3.8,1.5
		c-0.7,0.2-1.4,0.3-2.1,0.5c-0.7,0.2-1.3-0.2-1.9-0.6c-3.5-2-7.3-3.2-11-4.9c-0.3-0.1-0.6-0.1-0.9-0.2h-0.1c-2.2,2.6-4.9,3.9-8,4.2
		c-2,0.2-4.1,0.2-6.1-0.2c-2-0.3-3.8-0.2-5.4,1.5c-0.5,0.6-1.2,0.7-2,0.6c-0.1,0-0.1,0-0.2,0c-1.8-0.3-3.6-0.8-5.5-1.1
		c-1-0.2-2-0.2-3.1-0.1c-2.2,0.2-4.3,0.5-6.6,0.4c-0.1,0-0.2,0-0.3,0c-1-0.1-1.9-0.2-2.8-0.6c-0.3-0.1-0.6-0.3-0.9-0.5
		c-1.1-0.7-1.6-1.8-1.3-3.3c0.3-1.1,0.6-2.1,0.9-3.2c0.5-1.6,0.1-2.6-1.3-2.9c-0.1,0-0.2-0.1-0.3-0.1c0,0,0,0,0,0
		c-0.1,0-0.2,0-0.2-0.1c-0.5-0.1-1-0.1-1.5-0.1c-0.2,0-0.3,0-0.5,0s-0.5,0.1-0.7,0.1c-0.9,0-1.8-0.1-2.7-0.3c-1.1-0.4-2.2-1-3.2-1.8
		c-1.5-1.1-3-2.3-4.5-3.5c-1.4-1.1-2.9-1.9-4.5-2.4c0,0,0,0,0,0c-0.1,0-0.1,0-0.2-0.1c-1.7-0.6-3.5-0.9-5.3-0.9
		c-4.9,0.2-9.5-0.8-13.9-2.9c-2-0.9-4-1.6-6-2.3c-2.8-1-5.5-1.1-8.3,0.2c-1,0.5-2.1,0.9-3.1,1.1l0,17.6c0.1,0,0.2-0.1,0.2-0.1v0.1
		c0.1,0,0.1,0,0.2-0.1l0,0.2c2.1-1,4.1-1,5.9-0.2c1.1,0.5,2.1,1.2,3.1,2.2c2.5,2.5,5,5.1,7.9,7.1c1.1,0.8,2.2,1.4,3.3,1.9
		c1.8,0.8,3.7,1.1,5.8,0.5c0.9-0.2,1.8-0.5,2.5-1.1c0.5-0.4,1-0.7,1.4-0.7c0.3,0,0.6,0.2,0.8,0.4c0.2,0.2,0.4,0.5,0.6,0.9
		c0.2,0.4,0.5,0.7,0.7,1.1c0,0,0,0,0.1,0c0.1,0,0.2,0,0.3,0c0,0,0,0,0,0c0.4,0,0.8,0,1.1,0c0,0,0,0,0.1,0c0.2,0,0.4,0.1,0.6,0.1
		c0.6,0.1,1.1,0.3,1.6,0.6c1.4,0.7,2.6,1.7,3.8,2.8c4,3.6,7.3,8,11,11.9c0.2,0.2,0.3,0.3,0.5,0.5c2.2,2.3,4.7,4.2,7.2,6
		c0.7,0.5,1.5,0.9,2.4,1.1c0.2,0,0.3,0.1,0.5,0.1c1.8,0.3,2.9-0.3,3.6-2.2c1.3-3.3,3.1-4.6,5.6-4c0.3,0.1,0.7,0.2,1.1,0.4
		c0.1,0.1,0.3,0.2,0.5,0.2c0.1,0,0.2,0.1,0.2,0.1c0,0,0.1,0,0.1,0.1c1.1,0.7,2.2,1.4,3.2,2.2c0.2,0.2,0.4,0.4,0.6,0.5
		c1.4,1,2.8,1.8,4.2,2.3c2.4,0.8,4.8,0.6,7.5-0.9c4-2.2,8.2-4,12.6-5c1-0.2,2-0.6,2.6-1.7c-0.7-0.7-1.4-1.2-2.2-1.6
		c-2.2-1.4-4.7-1.6-7.5-1.3c-4.5,0.6-9,0-13.4-1.1c-0.7-0.2-1.3-0.4-1.9-0.8c-1-0.7-1.7-1.7-2.1-3.1c-0.4-1.4-0.1-2.3,0.9-2.7
		c0.1,0,0.3-0.1,0.4-0.1c1.7-0.3,3.5,0.1,5.1,0.6c10.7,3.1,21.5,5.9,31.7,10.5c0.9,0.4,1.8,0.7,2.8,0.9c1.5,0.4,2.8,0.3,4-0.1
		c1.2-0.4,2.2-1.1,3.2-2.3c0.5-0.6,1-1.1,1.5-1.4c0.9-0.5,1.7-0.4,2.8,0.1c0,0,0.1,0,0.1,0.1c0.4,0.3,0.8,0.6,0.9,1.2
		c0.2,1.1,0.8,2,1.7,2.4c0,0,0,0,0.1,0l0.1,0.1c0.2,0.1,0.4,0.2,0.6,0.3c3.5,1.1,7,2,10.5,0c1.4-0.8,2.9-0.8,4.3-0.1
		c1.7,0.8,3.4,1.1,5.2,1.1c1.1,0,2.1,0.1,3,0.9c0.4,0.4,1,0.8,0.9,1.5v0.1c0,0,0,0,0,0c1.8-0.6,3.7-1.2,5.4-1.7
		c0.3-0.1,0.7-0.2,1-0.3c0,0-0.1,0-0.1-0.1c0.1,0,0.2-0.1,0.4-0.1c-4.2-1.9-8.7-2.5-13.3-3c-5.2-0.5-9.4-3.2-12.8-7.6
		c-0.9-1.1-1.5-2.4-1.7-3.9c-0.2-1.3-0.1-2.5,0.4-3.5C583.6,354.9,584.6,354,586,353.5z"/>
	<path d="M555.1,382.6c-3.2,1.4-6.5,1.7-9.8,2.1c-0.9,0.1-1.8,0.2-2.4,0.9c-0.1,0.1-0.2,0.2-0.3,0.4c2.5,0,4.9,0,7.4,0
		c3.2-0.1,6.4-0.4,9.6-0.7c0,0-0.1,0-0.1-0.1c0,0,0.1,0,0.1,0C558,384.5,556.5,383.7,555.1,382.6z"/>
	<path d="M643,320.1c-0.2,0.2-0.3,0.3-0.5,0.5c-0.1,0.1-0.1,0.2-0.2,0.3c0.2,0,0.2,0,0.1,0.1c-0.3,0.4-0.5,0.8-0.6,1.4
		c0.1,0.4,0.3,0.7,0.4,1v0.1c0,0.1,0.1,0.2,0.1,0.3c0.1,0.2,0.2,0.3,0.3,0.5l0.1,0.1c0.1,0.1,0.2,0.2,0.3,0.4v-0.1v-0.2
		c0.1,0.1,0.2,0.1,0.2,0.2l0-4.6c-0.1,0.1-0.2,0.2-0.2,0.3V320.1z"/>
	<path d="M616.1,316.3c-0.1,0-0.2-0.1-0.5-0.1c-0.2-0.1-0.4-0.2-0.7-0.2c0,0,0,0,0,0c-0.1,0-0.1,0-0.2,0c-0.5-0.1-0.9,0.1-1.1,0.7
		c-0.4,1.3,1,1.4,1.8,1.8c0,0,0,0,0,0c0,0,0.1,0,0.1,0.1c1.3,0.7,2.6,0.9,3.6,2c0.1,0.1,0.2,0.3,0.3,0.4c0.9,0.2,1.8,0.4,2.7,0.5
		c0.4,0,0.8,0.1,1.2,0c0.4-0.1,0.8-0.3,0.9-1c0,0,0,0,0,0c0,0,0,0,0,0C621.6,319,618.9,317.6,616.1,316.3z"/>
	<path d="M116,205.1C116,205.1,116,205.1,116,205.1c-0.2-0.1-0.3-0.2-0.5-0.3c-0.2,1.6-0.5,3.2-0.8,4.8c0.5,0,1-0.1,1.5-0.1
		c1.3-0.1,2.6-0.3,3.9-0.5c0,0,0,0,0,0c0,0,0,0,0,0C118.8,207.4,117.5,206.1,116,205.1z"/>
	<path d="M140.5,74.2c1.1,3,2.7,4.7,5,5.2c1.7,0.4,3.7,0.2,6.2-0.6c0.2-0.1,0.4-0.1,0.5-0.2c1.7-0.5,3.3-0.9,5-1.3
		c0.6-0.1,1.2-0.3,1.7,0.2c0.8,0.9,1.6,1.5,2.6,2c0,0,0-0.1-0.1-0.1c0.4,0.2,0.7,0.4,1.1,0.5c-2.1-3.7-3.8-7.7-5.1-11.6
		c-0.8-0.6-1.6-1-2.5-1.6c-3.5-2.1-5.3-2-8.5,0.6c-2.1,1.8-4.1,3.6-6.7,4.3c0,0.1,0,0.1,0,0.2C140.1,72.8,140.3,73.5,140.5,74.2
		C140.6,74.2,140.6,74.2,140.5,74.2z"/>
	<path d="M245.8,74.7c0.2,0,0.4,0,0.6,0c0.2,0,0.4,0,0.6,0c1.4,0.1,2.7,0.4,3.9,1.2c0.9,0.6,1.4,1.4,1.4,2.4c0,0.2,0,0.4-0.1,0.7
		c-0.3,1-0.6,2.1-0.9,3.1c-0.3,1.1-0.2,1.9,0.3,2.4c0.3,0.3,0.7,0.5,1.4,0.6c0.6,0.1,1.2,0.2,1.8,0.1c2.6-0.4,4.9,0.5,7,2.1
		c1.5,1.1,3,2.2,4.5,3.3c2.9,2.1,6.1,3.3,9.6,3.1c4.9-0.2,9.5,0.7,13.9,2.8c0.7,0.3,1.4,0.6,2.1,0.8c0-0.2,0-0.4,0-0.6
		c-0.1-0.9-0.1-1.8-0.2-2.8c0-0.1,0-0.2,0-0.4c-0.1-0.8-0.1-1.7-0.2-2.5c-0.6-7.3-1.3-14.2-2.4-20.1c-2.5-1.5-5.1-2.4-8-1.6
		c-0.9,0.2-1.8,0.5-2.5,1.1c-1.4,1.1-2.4,0.8-3.2-0.7c-0.2-0.4-0.5-0.7-0.7-1c-3.1,0.2-5.4-1.5-7.6-3.5c-4-3.5-7.3-7.7-11-11.5
		c-1.6-1.6-3.3-3.1-5.1-4.4c-0.1,2-0.3,5.3-0.9,8.3c-0.8,5.4-2.4,11.3-4.9,17C245.3,74.8,245.5,74.7,245.8,74.7
		C245.8,74.7,245.8,74.7,245.8,74.7z"/>
	<path d="M275.4,245.1c-1.2-0.1-2.3-0.6-3.3-1.1c-1.5-0.6-3-0.7-4.5-0.2c-1,0.4-1.3,1-0.4,1.9c0.4,0.4,1.1,0.8,0.7,1.6
		c-0.2,0.4-0.5,0.6-0.9,0.7c-0.2,0-0.5,0-0.7,0c0,0-0.1,0-0.1,0c-0.1,0-0.2,0-0.3,0c0,0-0.1,0-0.1,0c-1.1-0.2-1.9-1-2.7-1.9
		c-0.9-1.2-1.6-1.8-2.3-2c-0.8-0.2-1.6,0.1-3,0.8c-3.3,1.6-6.7,3.1-10,4.7c-2.3,2.4-3.6,5.4-4.7,8.6c-1.8,4.8-4.5,6.4-9.3,5.6
		c-1.2-0.2-2.5-0.6-3.6-1.1c-0.4-0.2-0.8-0.4-1.2-0.7c0,0,0,0,0,0c0,0-0.1,0-0.2-0.1c-1.2,1-2.4,1.2-3.7,0.9
		c-0.4-0.1-0.7-0.2-1.1-0.4c-2.2-0.9-4.4-1.6-6.7-2.2c0,0-0.1,0-0.1,0c-0.5-0.1-0.9-0.2-1.4-0.3c-1.7-0.4-3.4-0.7-5.2-1
		c-2.5-0.4-5.1-0.9-7.7-0.2c-0.7,0.2-1.3,0.5-1.3,1.5c0,1.3,1.1,2.4,2.2,2.6c0.4,0.1,0.8,0.1,1.2,0c1.6-0.5,3.3-0.7,4.9-0.9
		c0.8-0.1,1.6,0,2.3,0.1c1.2,0.3,2.3,1,3.2,2.2c1,1.2,2.1,2.1,3.5,2.3c0.5,0.1,1,0.1,1.5,0.1c0.3,0,0.7,0,1,0
		c0.9,0.2,1.5,0.9,1.9,1.9c0.8,1.9,2.4,3.1,3.7,4.4c1.1,1.2,1.9,2.6,2.4,4.1c0.8,0.5,1.5,0.6,2.2,0.5c0.7-0.1,1.3-0.4,1.9-1
		c0.4-0.4,0.7-0.6,1.1-0.6c0.4,0,0.8,0.2,1.2,0.7c1,1.1,2.3,1.3,3.5,2c-1.4,0-2.7-0.1-3.9-0.1c-0.7,0-1.4,0.1-2.1,0.2
		c-0.4,0.1-0.9,0.2-1.3,0.3c-0.9,0.3-1.5,0.9-1.6,2c0,0.5,0.1,0.9,0.4,1.2c0,0,0,0,0.1,0.1c0.2,0.2,0.4,0.3,0.6,0.5
		c0.2,0.1,0.3,0.2,0.5,0.3c2.4,1.1,4.9,1.4,7.4,1.4s5-0.1,7.5-0.1c1.1,0,2.2,0.1,3.3,0.4c3.3,1,6.6,1.8,10,1.9c1,0.1,1.8,0.4,2.5,1
		c0,0,0,0,0.1,0.1c0.1,0.1,0.2,0.2,0.3,0.4c0.2,0.3,0.3,0.6,0.5,0.9c0.2,0.6,0.5,1.2,0.8,1.7c0.1,0.2,0.2,0.4,0.3,0.6
		c0,0,0.1,0.1,0.1,0.1c0.3,0.4,0.6,0.7,0.9,1c1.3,1.4,3.1,2,5.1,2.3c3.2,0.5,6.3,1.6,9.5,2c0.9,0.1,1.8,0.1,2.7,0.2
		c1.5,0.2,2.8,0.8,4.2,1.6c1.7,1,3.5,1.7,5.4,2.3c1.1,0.3,2.2,0.7,3.3,0.9c0.4,0.1,1,0.1,1.2-0.4c0.2-0.3,0.1-0.6,0-0.8
		c-0.1-0.3-0.3-0.6-0.5-0.8c0,0,0,0,0-0.1c-0.5-0.9-0.4-1.3,0.7-1.7c0.5-0.2,1.1-0.2,1.7-0.1c0.3,0.1,0.7,0.2,1,0.2l0-14.5
		c0,0,0,0,0,0c0,0-0.1,0-0.1-0.1l0-0.2c-2.3-0.9-4.1-2.5-5.6-4.5c-0.2-0.3-0.4-0.5-0.5-0.8c-0.1-0.4-0.1-0.9,0.3-1.3
		c0.6-1.2,1.5-1.1,2.4-0.6c1.2,0.8,2.5,0.9,3.6,0l0-4.4v-20.2c0,0-0.1,0-0.1,0l0-0.1c-4.1-1.4-8.1-2.9-12.3-4
		C283.4,246.6,279.4,245.6,275.4,245.1z"/>
	<path d="M110.2,238.6c0.5,0.7,1,1.4,1.4,2.2c0.1,0.2,0.2,0.3,0.3,0.5c0.1,0.2,0.2,0.3,0.3,0.5c1.2,2,2.7,3.6,4.5,4.9
		c1.9,1.4,3.9,2.4,6.2,3.1c5.7,1.7,11.7,2,17.6,2.7c0.3,0,0.7,0,1,0c0.2,0,0.3,0,0.5,0c0.1,0,0.2,0,0.3,0c4.9-0.5,6.3-2.6,6.2-7.7
		c0-1.7-0.5-2.8-1.5-3.4c-0.6-0.4-1.4-0.6-2.3-0.7c-2.2-0.2-4.3,0.2-6.5,0.5c-2,0.3-3.9,0.7-6,0.2c0,0,0,0,0,0
		c-1.6-0.4-2.7-1.6-2.8-3.2c-0.1-1,0.3-1.6,0.8-2.1c0.3-0.3,0.8-0.6,1.2-0.8c0.4-0.2,0.7-0.4,1.1-0.6c0.4-0.3,0.7-0.6,0.8-0.9
		c0.3-0.5,0.3-1.2,0-1.9c-0.7-1.6-1.9-2.6-3.3-3.2c-2.8-1.3-5.8-1.3-8.7-0.9c-0.4,0.1-0.8,0.1-1.1,0.2c-0.8,0.2-1.3,0.4-1.6,0.8
		c-0.3,0.3-0.4,0.8-0.5,1.4c-0.1,0.5-0.1,1.2,0,2c0,0.4,0,0.9-0.1,1.4c0,0.1,0,0.1,0,0.2c0,0.1,0,0.1-0.1,0.2c-0.2,0.5-0.5,0.9-1,1
		c-0.1,0-0.1,0-0.2,0c-2.2,0.5-4.4,1.5-6.7,1.1c-0.2,0-0.5-0.1-0.7-0.2c-0.2-0.1-0.3-0.2-0.3-0.5c0,0,0,0,0-0.1c0-0.1,0-0.2,0-0.4
		c0,0,0,0,0,0c0.1-0.3,0.3-0.6,0.7-0.8c0.2-0.1,0.5-0.2,0.7-0.3c0.1,0,0.2-0.1,0.3-0.1c0.8-0.3,1.4-1,1.4-2s-0.7-1.4-1.5-1.7
		c-0.1,0-0.3-0.1-0.4-0.1c-0.6,2.1-1.2,4.1-1.9,6.2c0,0,0,0,0,0c0,0,0,0,0,0C108.9,236.9,109.5,237.7,110.2,238.6z"/>
	<path d="M181.9,242.2L181.9,242.2L181.9,242.2l-0.1,0C181.8,242.2,181.8,242.2,181.9,242.2h-0.1
		C181.9,242.3,181.9,242.3,181.9,242.2c4.6,3.1,9.3,5.1,14.8,4.3c3.5-0.5,6.8-1.9,10.3-2.2c0.1,0,0.1,0,0.2,0
		c2.1-0.1,4.3-1.1,6.3,0.1c2.2,1.3,4.7,1.8,7,2.6c0.4,0.1,0.9,0.1,1.2,0.4c0.2,0.2,0.3,0.4,0.2,0.8c-0.1,1-0.8,1.2-1.5,1.2
		c-0.1,0-0.2,0-0.2,0c-1.7-0.1-3.3-0.7-4.7-1.6c-1.4-0.9-3.4-1.3-5.4-1.1c-0.1,0-0.2,0-0.3,0c-0.2,0-0.3,0-0.5,0.1
		c-1.7,0.2-3.3,0.8-4.4,1.8c-0.7,0.6-1.4,1.3-0.4,2.2c0,0,0.1,0,0.1,0c0.6-0.1,1.1-0.1,1.6-0.1c0.6,0,1.1,0.1,1.7,0.3
		c6.6,1.6,12.9,0,19.2-2.1c1-0.4,2.1-0.8,3.1-1.2c1.8-0.8,3.4-1.7,5-2.9c0-0.5,0-1.1,0.3-1.6c1.5-2.5,3.4-4.6,6.1-5.5
		c0.3-0.1,0.6-0.2,0.8-0.2c0.8-0.1,1.6,0.1,2.3,0.7c1.6,1.2,3.3,1.5,5,1c0.6-0.2,1.2-0.4,1.7-0.7c0.7-0.4,1.3-0.7,2-0.9
		c1.2-0.3,2.5-0.3,3.8,0c4.7,1,9.5,1.4,14.3,1.6c3,0.1,6.1,0.2,9.1,0.2c0.5,0,1-0.2,1.5-0.3c-2.5-1.5-5-3-7.9-3.7
		c-1.9-0.5-2.9-2.3-3.5-4.2c-0.4-1.2-0.6-2.4-0.9-3.6c-0.2,0.1-0.5,0-0.7,0.2c-0.1,0-0.1,0.1-0.2,0.2c-0.6,0.7-1.3,1.2-2,1.6
		c-1.2,0.6-2.6,0.9-4,1c-0.6,0.2-1.2,0.2-1.9,0.2c-1.4,0-2.9,0-4.1-0.9c0,0,0,0,0,0c0,0,0,0,0,0c-0.4,0.2-0.8,0.3-1.2,0.4
		c-0.9,0.1-1.8-0.2-2.7-0.8c-1.7-1.2-3.7-2.1-5.6-2.8c-0.5-0.2-1.1-0.3-1.6,0c-0.3,0.3-0.6,0.6-0.9,0.9c-2.2,2.8-4.8,4.1-8.3,3.4
		c-0.1,0-0.2,0-0.2,0c-1.8-0.3-3.4-0.3-4.9,0.2c-2.1,0.7-3.9,2.1-5.5,4.3c-1.1,1.5-2.4,2.8-3.9,3.9c-0.2,0.1-0.3,0.2-0.5,0.3
		c-0.6,0.4-1.3,0.8-2,1c-1,0.3-2,0.4-3.2,0.3c-1.2,1-2.7,1.2-4.2,1.1c-1.3-0.1-2.6-0.2-3.9-0.6c-3.8-1.1-7.6-1.4-11.5-0.7
		c-2.4,0.5-4.9,1-7.4,1.3c-2,0.3-4.1,0.4-6.1,0.4C183,242.3,182.5,242.2,181.9,242.2L181.9,242.2C182,242.2,182,242.2,181.9,242.2
		C182,242.2,181.9,242.2,181.9,242.2z"/>
	<path d="M138.4,186.8c0.6,0.4,1.3,0.9,2,1.3c1.3,0.3,2.4,0.2,3.7,0c0,0,0.1,0,0.1,0c0,0,0,0,0.1,0c1.8-0.2,3-1.2,3.5-3.1
		c0.5-1.9-0.2-3.4-1.5-4.6c-0.8-0.7-1.6-1.2-2.5-1.5c-0.7-0.3-1.5-0.4-2.3-0.4c-3.4,0.1-6.5,1.5-9.4,3.2
		C134.1,183.5,136.2,185.3,138.4,186.8z"/>
	<path d="M133.7,165.1C133.7,165.1,133.7,165.1,133.7,165.1C133.7,165.1,133.7,165.1,133.7,165.1c2.3,0.7,4.5,0.3,6.4-1.3
		c0,0-0.1,0-0.1,0c0,0,0,0,0.1,0C137.8,163.5,135.7,163.9,133.7,165.1z"/>
	<path d="M201.4,232c-0.7-1.3-1.4-2.5-2.4-3.5c0,0,0,0,0,0c-0.7-0.7-1.5-1-2.2-0.9c-0.7,0.1-1.3,0.5-2,1.4c-0.7,1-1.1,2-1.4,3.2
		C195.5,233.7,200,233.5,201.4,232z"/>
	<path d="M134.1,359.6c-2.8-1.2-5.2-0.4-7.2,1.8c-1,1-1.9,2.1-2.9,3.1c-0.3,0.3-0.7,0.6-1,0.8c0,0,0.1,0,0.1,0c0,0,0,0,0,0
		c4.1,0.7,8.7,1.5,13.6,2.3c0.1-0.5,0.3-1,0.5-1.5c0.4-1.4,0.3-2.7-0.1-3.8C136.5,361.1,135.6,360.2,134.1,359.6z"/>
	<path d="M300,333.8C299.9,333.8,299.9,333.8,300,333.8l-0.1-0.2c-0.3,0.1-0.5,0.1-0.6-0.3c-0.5-0.3-0.1-0.4,0.1-0.6
		c0.2-0.2,0.3-0.3,0.5-0.5l0,0c0,0,0,0,0.1-0.1l0-12.1c0,0,0,0-0.1,0l0,0c-0.9-0.4-1.7-0.6-2.4-0.7c-1.7-0.2-3,0.4-4.6,2
		c-0.1,0.1-0.2,0.2-0.3,0.3c-0.1,0.1-0.1,0.1-0.2,0.2c-0.2,0.3-0.5,0.5-0.7,0.8c-0.1,0.1-0.1,0.1-0.2,0.2c-0.5,0.5-0.9,0.9-1.5,1.1
		c-0.1,0-0.2,0.1-0.3,0.1c-0.3,0-0.5,0-0.8-0.1c-0.7-0.2-1-1-0.4-1.8c0.3-0.7,0.8-1.3-0.1-1.9c-0.1,0-0.2-0.1-0.4-0.1
		c-0.3-0.1-0.6-0.2-0.8-0.2c0,0-0.1,0-0.1,0c-0.1,0-0.2,0-0.2,0c-0.1,0-0.3,0.1-0.4,0.2c0,0,0,0,0,0c-0.2,0.1-0.4,0.3-0.6,0.5
		c-0.6,0.7-1,1.6-1.4,2.5c-0.4,1.1-1.1,1.9-2.2,2.2c-0.1,0-0.1,0-0.2,0.1c-0.2,0.1-0.5,0.1-0.7,0.2c-0.6,0.2-1.2,0.6-1.7,1.1
		c-0.1,0.1-0.2,0.2-0.3,0.2c-2.5,2.1-6,1.3-7.6-1.7c-1.4-2.8-4-4.3-6.7-3.6c-0.1,0-0.1,0-0.2,0c-0.9,0.2-1.9,0.5-2.8,0.7
		c-1.5,0.3-3,0.6-4.6,0.5c-0.2,0-0.4,0-0.6,0.1c0,0,0,0,0,0c-0.1,0-0.2,0.1-0.3,0.1c-1.2,0.5-1.8,2.2-0.9,3.3c1.7,2,3.5,4,5.9,5.1
		c0.8,0.4,1.6,0.6,2.5,0.5c0.3,0,0.6-0.1,0.9-0.2c5.2-1.8,10.3-1.1,15.4,0.8c3.5,1.3,6.7,3.3,9.8,5.5c1.8,1.3,4,1.8,6.1,1.3
		c1.3-0.3,2.6-0.7,3.9-1.2v-1.4c0,0,0,0,0,0L300,333.8z"/>
	<path d="M214.5,371.9c-1.8-0.2-3.4-0.9-4.8-2c-0.1-0.1-0.3-0.2-0.4-0.3c0,0,0,0,0,0c0,0,0,0,0,0c-0.2-0.1-0.4-0.2-0.5-0.2
		c-0.1,0-0.2-0.1-0.2-0.1c-1.3-0.6-2.5-0.7-3.5-0.3c-1.6,0.5-2.7,2.1-2.9,4.5c6.6-0.1,13.5-0.5,20.5-1c-1-0.2-2.1-0.3-3.2-0.2
		C217.8,372.1,216.1,372.1,214.5,371.9z"/>
	<path d="M467.7,171c1.9,0.5,3.9,1,5.8,1.4c2.1,0.5,4.1,0.9,6.1,1.1c1.2,0.2,2.3,0.7,3.3,1.1c0,0,0,0,0,0c0,0,0,0,0.1,0
		c1.5,0.6,3,0.7,4.5,0.2c1-0.4,1.3-1,0.4-2c-0.4-0.5-1.1-0.9-0.7-1.7c0.4-0.8,1.1-0.8,1.8-0.7c0.7,0.1,1.2,0.3,1.8,0.7
		c0.5,0.4,0.9,0.9,1.4,1.4c0.9,1.3,1.5,1.9,2.3,2.1c0.7,0.2,1.6-0.1,3-0.8c3.3-1.7,6.7-3.2,10-4.9c2.3-2.5,3.6-5.6,4.7-8.9
		c1.8-5,4.5-6.6,9.3-5.8c1.7,0.3,3.4,0.9,5,1.8c1.6-1.4,3.3-1.3,5-0.5c4.2,1.9,8.6,2.8,13.1,3.5c2.5,0.4,5.1,0.9,7.7,0.2
		c0.7-0.2,1.3-0.5,1.3-1.6c0-0.5-0.2-0.9-0.4-1.3c-0.5-1.2-1.8-2-2.9-1.6c-1.6,0.5-3.3,0.7-4.9,0.9c-2.3,0.2-4.2-0.5-5.7-2.5
		c-1.2-1.6-2.8-2.6-4.8-2.4c-1.5,0.2-2.5-0.6-3.1-2.1c-0.8-2-2.4-3.2-3.7-4.6c-1.1-1.2-1.9-2.7-2.4-4.3c-1.4-0.9-2.7-0.8-3.9,0.5
		c-0.8,0.9-1.7,1-2.5,0c-0.8-1-1.9-1.3-2.9-1.8c1.9,0,3.7,0.4,5.6-0.1c0.4-0.1,0.9-0.2,1.3-0.3c0.9-0.3,1.5-1,1.6-2
		c0-0.4-0.1-0.8-0.3-1.1c-0.2-0.6-0.8-0.9-1.4-1.1c-2.4-1.2-4.9-1.5-7.4-1.5s-5,0.1-7.5,0.1c-1.1,0-2.2-0.1-3.3-0.4
		c-3.3-1.1-6.6-1.9-10-2c-1.1-0.1-2.1-0.5-2.8-1.4c-0.2-0.3-0.3-0.6-0.5-0.9c-0.3-1-0.8-1.8-1.3-2.5c-1.4-2.1-3.5-3-5.9-3.4
		c-3.2-0.5-6.3-1.7-9.5-2.1c-0.9-0.1-1.8-0.1-2.7-0.2c-1.5-0.2-2.8-0.8-4.2-1.6c-2.7-1.6-5.7-2.7-8.7-3.3c-0.4-0.1-1-0.1-1.2,0.4
		c-0.3,0.6,0.1,1,0.4,1.5c0.8,1.2,0.7,1.6-0.6,2.1c-0.5,0.2-1.1,0.3-1.7,0.1c-0.8-0.2-1.6-0.4-2.4-0.5c-0.1,2.2-0.2,4.4-0.2,6.4v1.2
		c-0.1,1.8-0.2,3.4-0.3,5h0.1l0.1,0.3c0,0.1,0.2,0.7,0.6,1.9c0.1,0,0.3,0.1,0.4,0.1c1.6,0.5,2.9,1.3,4,2.3c0,0.1,0,0.1,0,0.2
		c0.9,0.8,1.7,1.7,2.5,2.8c0.1,0.2,0.3,0.4,0.4,0.6c0.2,0.5,0.3,1-0.1,1.6c-0.7,0.9-1.6,0.8-2.5,0.3c-1-0.6-1.9-0.8-2.8-0.5
		c1.4,6.4,3,15.9,3.5,27.6c0.6,0.2,1.3,0.5,1.9,0.7c0,0,0,0.1,0,0.1C463.5,169.8,465.6,170.5,467.7,171z"/>
	<path d="M468.6,104.9c-0.5-0.2-1-0.3-1.7-0.2c-0.1,0-0.2,0-0.3,0c-0.4,0-0.7,0.1-1.1,0.1c-1.1,0.1-2.3,0.1-3.4,0
		c-1.9,0.5-3.8,1-5.1,3c0.5,0.2,1,0.5,1.4,0.5c2.1-0.1,4,0.7,5.9,1.5c1,0.4,2,0.7,3.1,0.6c1.3-0.2,2.2-0.9,2.4-2
		c0.1-0.4,0.1-0.8,0.1-1.2C469.8,106.1,469.3,105.3,468.6,104.9z"/>
	<path d="M521.2,95.5c0.3,0.1,0.5,0.1,0.8,0.2c1,0.2,2,0.5,3,0.7c1.2,0.3,2.3,0.5,3.5,0.7c4.7,0.8,9.4,0.5,14.1,0.5
		c0.3-0.2,0.8,0,1-0.4c0,0,0-0.1,0-0.1c0-0.5-0.4-0.7-0.8-0.9c-2.8-1.8-5.7-2.2-8.7-0.9c-2.6,1.2-5.2,1.1-7.9,0.1
		c-2.5-0.9-5-2.2-7.8-2.2c0,0,0,0.1,0.1,0.1c0,0,0,0,0,0C519.1,94.4,520,95.2,521.2,95.5z"/>
	<path d="M573,176.6c0,0,0.1,0,0.1,0l0.1,0c0,0-0.1,0-0.1,0h0.1C573.1,176.5,573.1,176.5,573,176.6c-2.3-1.7-4.7-3-7.2-3.8
		c-2.4-0.8-4.9-1.1-7.6-0.7c-3.5,0.5-6.9,2.1-10.4,2.3c-2.1,0.1-4.3,1.1-6.3-0.1c-2.2-1.3-4.7-1.8-7-2.7c-0.4-0.1-1-0.1-1.3-0.5
		c-0.1-0.2-0.1-0.4-0.1-0.6c0.1-1.2,1-1.3,1.8-1.3c1.7,0.1,3.3,0.7,4.7,1.7c0,0,0,0,0.1,0c0.2,0.1,0.4,0.2,0.6,0.3
		c2.9,1.4,7.4,1,9.8-1.1c0.7-0.6,1.4-1.3,0.4-2.3c0,0,0,0-0.1,0c0,0-0.1-0.1-0.1-0.1c-1.2,0.2-2.3,0.1-3.5-0.2
		c-6.6-1.7-12.9,0-19.2,2.2c-2.8,1-5.5,2.3-7.9,4.3c0,0.6,0,1.1-0.3,1.6c-1.5,2.6-3.4,4.7-6.1,5.7c-1.1,0.4-2.1,0.4-3.1-0.3
		c-0.3-0.2-0.5-0.4-0.8-0.5c-1.9-1.2-4-1.1-6,0.1c-1.9,1.2-3.9,1.4-6,1c-7.7-1.6-15.5-1.7-23.3-1.8c-0.5,0-1,0.2-1.5,0.3
		c2.3,1.4,4.6,2.8,7.2,3.6c0.3,0.1,0.6,0.2,0.9,0.3c0.2,0,0.3,0.1,0.5,0.2c1.5,0.7,2.4,2.3,2.9,4.1c0.4,1.2,0.6,2.5,0.9,3.7
		c0,0,0,0,0.1,0c0,0,0,0.1,0,0.1c0.3-0.1,0.6,0,0.8-0.3c1.6-1.9,3.8-2.6,6.1-2.8c0.6-0.2,1.2-0.3,1.9-0.2c1.4,0,2.9,0,4.1,1
		c1.4-0.7,2.6-0.6,3.9,0.4c1.6,1.2,3.3,2,5.1,2.7c0.2,0.1,0.4,0.2,0.5,0.2c0.4,0.2,0.9,0.3,1.4,0.1c0.1,0,0.1,0,0.2-0.1
		c0.2-0.2,0.3-0.4,0.5-0.5c0.1-0.1,0.3-0.3,0.4-0.4c1.8-2.3,3.9-3.7,6.6-3.7c0.6,0,1.1,0.1,1.7,0.2c0,0,0,0,0,0
		c1.1,0.3,2.2,0.3,3.3,0.2c2.9-0.3,5.4-2,7.4-4.9c1.1-1.5,2.4-2.9,3.9-4c1.7-1.3,3.5-2,5.6-1.7c1.2-1.1,2.7-1.2,4.2-1.2
		c1.3,0.1,2.6,0.2,3.9,0.6c3.8,1.1,7.6,1.4,11.5,0.7C562.9,177.2,567.9,176.2,573,176.6C573,176.6,573,176.6,573,176.6L573,176.6
		C573.1,176.6,573,176.6,573,176.6z"/>
	<path d="M595.6,378.1c-0.6-0.1-1.1-0.2-1.7-0.4c-0.4-0.1-0.8-0.2-1.1-0.3c-0.5-0.1-0.9,0-1.1,0.7c-0.2,0.6,0.1,1,0.5,1.2
		c1-0.2,1.9-0.5,2.9-0.7c0.5-0.1,1-0.2,1.5-0.4c-0.2,0-0.4,0-0.6,0C595.8,378.2,595.7,378.1,595.6,378.1z"/>
	<path d="M487.6,376.9c-0.5-0.4-1-0.7-1.6-1c-0.5-0.3-0.7-0.7-0.9-1.2c-0.3-1-0.8-2.1-1.5-3.1c-1.6-2.4-4.1-4.5-6.9-4.2
		c-1.7,0.2-3.3-0.3-4.9-1.1c-0.9-0.5-1.8-0.8-2.7-1.3c-0.4-0.2-0.8-0.4-1.2-0.6c0,0-0.1,0-0.1,0c0,0-0.1,0-0.1,0
		c-2-1.1-4.3-1.9-6.1-3.3c-0.6-0.5-1.1-1-1.6-1.6c0,0,0-0.1-0.1-0.1c0,0,0,0,0,0c-0.3-0.5-0.7-1-1.1-1.4c-1.5-1.8-3.1-3.3-4.8-4.8
		c-1.7-1.5-3.4-3-4.9-4.8c-0.4-0.4-0.8-0.7-1.2-0.9c0,0,0,0-0.1-0.1c-0.1-0.1-0.2-0.1-0.3-0.2v6.1c0,0,0.1,0,0.2,0l-0.2,8
		c0,0,0,0,0,0l0,0c0,0,0.3,0.3,0.4,0.3l0,0c0,0,0,0,0,0c0,0,0,0,0,0c0,0,0,0,0.1,0.1c0,0,0.1,0.1,0.1,0.1c0,0,0.1,0,0.1,0
		c2.6-0.4,5.2-0.4,7.8,0.3c6.1,1.5,11.8,4.2,17.5,6.9c1.1,0.5,2.2,1,3.1,1.7c0.7,0.5,1.3,1.1,1.8,1.8c0.4,0.7,1,1.3,1.6,2
		c0.1,0.1,0.1,0.2,0.2,0.2c0,0,0,0,0,0c0,0,0,0,0,0C482.7,375.4,485.1,376.1,487.6,376.9C487.6,376.9,487.6,376.9,487.6,376.9
		C487.6,376.9,487.6,376.9,487.6,376.9z"/>
	<path d="M505.1,379.5c-1.5-1.1-3.3-1.5-5.5-1c-2,0.4-3.3,0.3-4.3-0.5c0,0,0,0,0,0c-0.1-0.1-0.2-0.2-0.3-0.3
		c-0.6-0.7-1.1-1.7-1.6-3.2c0-0.1-0.1-0.2-0.1-0.3c-0.3-1-0.7-2-1.3-2.9c-0.3-0.4-0.5-0.8-0.9-1.1c-2-1.7-4-3.4-6.2-4.8c0,0,0,0,0,0
		c0,0,0,0,0,0c0,0.1,0,0.1,0,0.2c0,0,0,0-0.1-0.1c0.1,0.6,0.3,1.2,0.5,1.8c0.1,0.2,0.1,0.4,0.2,0.5c0,0.1,0,0.1,0.1,0.2
		c0.4,1.2,1.1,2.2,2.1,2.7c0,0,0,0,0,0c0,0,0,0,0,0c0.3,0.2,0.6,0.4,0.9,0.5c2.1,1.3,3.7,2.9,3.9,6c0,0.3,0.4,0.5,0.5,0.8
		c0.1,0.1,0.1,0.2,0.1,0.4c2.5,0.7,5.2,1.4,7.9,2c0.9,0.2,1.7,0.4,2.6,0.6c0,0,0.1,0,0.1,0c0.4,0.1,0.9,0.2,1.3,0.3
		c0.8,0.2,1.5,0.3,2.3,0.5c0,0,0,0,0,0c0,0,0.1,0,0.1,0C506.7,380.9,506,380.1,505.1,379.5z"/>
	<path d="M524.4,384.8c-1.2-0.5-2.6-0.7-3.6-0.5c0.1,0,0.1,0,0.2,0c0,0-0.1,0-0.1,0C522,384.6,523.2,384.7,524.4,384.8
		c-0.1,0-0.1,0-0.2,0C524.3,384.8,524.3,384.8,524.4,384.8z"/>
	<path d="M556.4,340.6c-0.3-0.1-0.5-0.2-0.7-0.3c-1.4-0.5-2.1,0-2.9,1.7c-0.2,0.5-0.6,1-1,1.5h0.1c0,0,0.1,0,0.1,0c0,0,0,0,0,0
		c0.2,0.1,0.4,0.1,0.6,0.2c1.2,0.4,2.3,0.7,3.4,1.1c0.4,0.1,0.9,0.3,1.3,0.4c0,0,0,0,0,0c1,0.3,2.1,0.7,3.1,1c0.5,0.2,1,0.3,1.4,0.5
		c0,0,0,0,0,0C560.8,343.8,558.9,341.8,556.4,340.6z"/>
	<path d="M614.6,232.6c-1.3-0.3-2.5-0.2-3.8,0c-1.1,0.2-2,0.6-2.7,1.5c-0.4,0.5-0.7,1.1-0.9,1.8c-0.5,2,0.2,3.5,1.5,4.7
		c1.2,1.1,2.6,1.8,4.2,1.9c0.2,0,0.5,0,0.7,0c0.8,0,1.6-0.1,2.4-0.3c0,0,0,0,0.1,0c0.3-0.1,0.5-0.1,0.8-0.2c0.2,0,0.3-0.1,0.5-0.1
		c0.1,0,0.3-0.1,0.4-0.1c0.3-0.1,0.5-0.2,0.8-0.3c0.1,0,0.2-0.1,0.4-0.1c0.3-0.1,0.5-0.2,0.8-0.3c1.2-0.5,2.3-1.1,3.4-1.8
		C620.4,236.8,617.6,234.4,614.6,232.6z"/>
	<path d="M615,257.7C615,257.7,615,257.7,615,257.7C615,257.8,614.9,257.8,615,257.7c2.2,0.3,4.3-0.1,6.3-1.3c0,0,0,0,0,0
		c0,0,0,0,0.1,0C619,255.6,616.9,256.1,615,257.7z"/>
</g>
</svg>
