<?xml version="1.0" encoding="utf-8"?>
<!-- Generator: Adobe Illustrator 25.3.0, SVG Export Plug-In . SVG Version: 6.00 Build 0)  -->
<svg version="1.1" id="Layer_1" xmlns="http://www.w3.org/2000/svg" xmlns:xlink="http://www.w3.org/1999/xlink" x="0px" y="0px"
	 viewBox="0 0 750.2 400.1" style="enable-background:new 0 0 750.2 400.1;" xml:space="preserve">
<path d="M286.8,172.5H117.4c0.3,13.2-0.7,29-4.6,46.3h178.5C287.5,201.5,286.5,185.8,286.8,172.5z"/>
<path d="M115.9,68.9c-0.5,2.2-0.9,4.6-1.3,7.2l41.6-12.2c-0.4-1.6-0.8-3.3-1-4.8c-0.6-2.8-0.9-7.4-1-9.3l-35.3,10.4
	C117.6,62.2,116.8,64.6,115.9,68.9z"/>
<path d="M289.1,72.6c-0.2-1.3-0.5-2.6-0.7-3.9c-1-4.7-2.1-7.6-3.5-9.8l-33.3-10c-0.5-0.1-0.9-0.1-0.9-0.1c0,1.9-0.3,5.7-0.9,9.1
	c-0.1,1-0.3,2-0.5,3L289.1,72.6z"/>
<path d="M104.4,356.8v2.4v2.5c0,0,0.1,0,0.2,0c4.3,0.9,57.2,12.2,95.8,11.6c42.9-0.6,99.5-11.7,99.5-11.7v-2.2v-22.7l-0.1-30.4
	H104.4L104.4,356.8z"/>
<path d="M452.3,229.7h186.3c-6.2-21.6-7.8-41.2-7.4-57.2H459.7C460.1,188.5,458.5,208.1,452.3,229.7z"/>
<path d="M447.7,306.3l0,55c0,0,0.3,0.3,0.4,0.3c0.1,0.1,0.2,0.2,0.4,0.2c0,0,47.8,24.4,95.3,24.4s99.4-24.7,99.4-24.7v-3.3l0.1-51.9
	H447.7z"/>
</svg>
