<?xml version="1.0" encoding="utf-8"?>
<!-- Generator: Adobe Illustrator 25.3.0, SVG Export Plug-In . SVG Version: 6.00 Build 0)  -->
<svg version="1.1" id="Layer_1" xmlns="http://www.w3.org/2000/svg" xmlns:xlink="http://www.w3.org/1999/xlink" x="0px" y="0px"
	 viewBox="0 0 750.2 400.1" style="enable-background:new 0 0 750.2 400.1;" xml:space="preserve">
<g>
	<polygon points="297.7,309.4 279.2,313.9 279.2,309.1 260.2,313.8 259.5,313.9 259.5,309.3 240.7,313.9 240.6,313.9 240.6,309.2 
		221.7,313.8 221,313.9 221,309.3 202.2,313.9 202.2,313.9 202.1,313.9 202.1,313.9 202.1,313.9 183.3,309.3 183.3,313.9 
		182.5,313.8 163.7,309.2 163.7,313.9 163.6,313.9 144.8,309.3 144.8,313.9 144,313.8 125.1,309.1 125.1,313.9 106.2,309.3 
		106.2,313.9 104.4,313.5 104.4,320.8 105.4,321.1 105.4,316.5 124.4,321.1 124.4,316.3 144.2,321.1 144.2,316.4 163.3,321.1 
		163.3,316.3 183,321.1 183,316.4 201.9,321.1 201.9,321.1 202,321.1 202.1,321.1 202.1,321.1 221,316.4 221,321.1 240.7,316.3 
		240.7,321.1 259.8,316.4 259.8,321.1 279.6,316.3 279.6,321.1 298.2,316.5 298.2,321.1 299.9,320.7 299.8,313.4 297.7,313.9 	"/>
	<polygon points="299.4,300.9 299.4,296.3 279.6,301.2 279.6,296.3 260.5,301 260.5,296.3 240.8,301.1 240.8,296.3 221.7,301 
		221.7,296.3 202,301.1 182.3,296.3 182.3,301 163.2,296.3 163.2,301.1 143.5,296.3 143.5,301 124.4,296.3 124.4,301.2 104.6,296.3 
		104.6,301 104.4,300.9 104.4,307.2 105.4,307.5 105.4,302.9 106.2,303 125.1,307.7 125.1,302.9 144,307.5 144,302.9 163.6,307.6 
		163.6,302.9 182.5,307.5 182.5,302.9 202.1,307.6 202.1,307.7 221.7,302.9 221.7,307.5 240.7,302.9 240.7,307.6 260.2,302.9 
		260.2,307.5 279.2,302.9 279.2,307.7 297.7,303.1 298.8,302.9 298.8,307.4 299.8,307.2 299.8,300.8 	"/>
	<polygon points="132.3,274.8 109.5,269.3 109.5,275 104.4,273.8 104.4,292.5 109.5,293.8 109.5,288.3 133.1,293.8 133.1,288.2 
		155.9,293.8 155.9,288.4 179.3,293.8 179.3,288.2 201.9,293.7 201.9,293.8 202,293.7 202.1,293.8 202.1,293.7 224.7,288.5 
		224.7,293.8 248.1,288.1 248.1,293.8 270.9,288.5 270.9,293.8 294.5,288.3 294.5,293.8 299.8,292.5 299.7,273.7 294.5,275 
		294.5,269.3 271.7,274.8 271.7,269.3 248.3,275 248.3,269.3 225.5,274.8 225.5,269.3 202,274.7 178.5,269.3 178.5,274.8 
		155.7,269.3 155.7,275 132.3,269.3 	"/>
	<path d="M200.4,373.3c42.9-0.6,99.5-11.7,99.5-11.7v-2.2v-22.7l0-7.8l-5.4,1.3v-5.7l-22.7,5.5v-5.5l-23.5,5.7v-5.7l-22.7,5.5v-5.5
		l-23.5,5.7l-23.5-5.7v5.5l-22.7-5.5v5.7l-23.5-5.7v5.5l-22.7-5.5v5.7l-5.2-1.3l0,2.6l0,25.3v2.4v2.5c0,0,0.1,0,0.2,0
		c0-4.9,0.1-8.5,0.1-8.5v8.5C109.6,362.8,162.1,373.9,200.4,373.3z"/>
	<polygon points="643.1,250 639.4,250.9 639.4,245.2 616.7,250.7 616.7,245.2 593.2,250.9 593.2,245.2 570.5,250.7 570.5,245.2 
		546.9,250.6 523.4,245.2 523.4,250.7 500.7,245.2 500.7,250.9 477.2,245.2 477.2,250.7 454.5,245.2 454.5,250.9 447.6,249.2 
		447.6,259.7 643.1,259.7 	"/>
	<path d="M447.8,361.4c0-4.5,0.1-8.2,0.1-8.2v0.1c0,0,0.1,3.7,0.2,8.3c0,0,0,0,0,0c0.1,0.1,0.2,0.2,0.4,0.2c0,0,47.8,24.4,95.3,24.4
		s99.4-24.7,99.4-24.7v-3.3l0-25.7H447.7l0,11.6L447.8,361.4C447.7,361.3,447.7,361.3,447.8,361.4z"/>
	<polygon points="643.3,272.3 643.3,271.9 643.1,271.9 643.1,259.7 447.6,259.7 447.7,332.5 643.2,332.5 	"/>
</g>
</svg>
