<?xml version="1.0" encoding="utf-8"?>
<!-- Generator: Adobe Illustrator 25.3.0, SVG Export Plug-In . SVG Version: 6.00 Build 0)  -->
<svg version="1.1" id="Layer_1" xmlns="http://www.w3.org/2000/svg" xmlns:xlink="http://www.w3.org/1999/xlink" x="0px" y="0px"
	 viewBox="0 0 750.2 400.1" style="enable-background:new 0 0 750.2 400.1;" xml:space="preserve">
<g>
	<path d="M132.9,207.9v-24.6l-13.8-7.2c-0.3,7.2-0.9,15.1-2.2,23.5L132.9,207.9z"/>
	<path d="M132.9,226.5l-19.2-10c-1.6,6.9-3.6,14.1-6.1,21.4l25.3,13.1V226.5z"/>
	<polygon points="132.9,284.7 132.9,270.6 105.2,256.2 105.2,280.8 132.9,295.1 	"/>
	<path d="M132.9,337.5v-23.8l-27.7-14.4l0,24l0,0.5l26.1,13.6C131.8,337.5,132.3,337.5,132.9,337.5z"/>
	<path d="M272.7,207.9l14.9-7.7c-1.2-8.4-1.8-16.3-2-23.5l-12.9,6.7V207.9z"/>
	<path d="M272.7,251.1l24.3-12.5c-2.5-7.3-4.5-14.5-6.1-21.4l-18.1,9.3V251.1z"/>
	<polygon points="299.6,256.7 272.7,270.6 272.7,284.7 272.7,295.1 299.6,281.3 	"/>
	<path d="M299.5,315.3l0-15.3l-26.8,13.8v23.8c0.5,0,1,0,1.6-0.1l25.6-13.2l0-9H299.5z"/>
	<path d="M477.6,208.9v-24.6l-16.3-9.1c-0.2,7.2-0.9,15-2.1,23.4L477.6,208.9z"/>
	<path d="M477.6,227.5l-21.5-12c-1.6,6.9-3.5,13.9-6,21.2l27.5,15.3V227.5z"/>
	<polygon points="477.6,285.7 477.6,271.6 448.6,255.4 448.6,280 477.6,296.1 	"/>
	<path d="M477.6,338.5v-23.8l-29-16.1l0,24.6l27.5,15.2C476.6,338.5,477.1,338.5,477.6,338.5z"/>
	<path d="M614.7,208.9l17.1-9.4c-1.2-8.4-1.9-16.2-2.2-23.4l-15,8.2V208.9z"/>
	<path d="M614.7,252.1l26.4-14.4c-2.5-7.3-4.5-14.4-6.1-21.3l-20.3,11.1V252.1z"/>
	<polygon points="643.1,256.1 614.7,271.6 614.7,285.7 614.7,296.1 643.1,280.7 	"/>
	<path d="M643.2,323.8l0-8.5l-0.2,0l0-16l-28.3,15.5v23.8c0.5,0,1,0,1.6-0.1L643.2,323.8z"/>
</g>
</svg>
