<?xml version="1.0" encoding="utf-8"?>
<!-- Generator: Adobe Illustrator 25.3.0, SVG Export Plug-In . SVG Version: 6.00 Build 0)  -->
<svg version="1.1" id="Layer_1" xmlns="http://www.w3.org/2000/svg" xmlns:xlink="http://www.w3.org/1999/xlink" x="0px" y="0px"
	 viewBox="0 0 750.2 400.1" style="enable-background:new 0 0 750.2 400.1;" xml:space="preserve">
<path d="M114.6,76.1l41.6-12.2c-0.4-1.6-0.8-3.3-1-4.8c-0.6-2.8-0.9-7.4-1-9.3l-35.3,10.4c-1.3,2.1-2.1,4.5-3,8.8
	C115.4,71.1,115,73.5,114.6,76.1z"/>
<path d="M249.3,60.9l39.9,11.7c-0.2-1.3-0.5-2.6-0.7-3.9c-1-4.7-2.1-7.6-3.5-9.8l-33.3-10c-0.5-0.1-0.9-0.1-0.9-0.1
	c0,1.9-0.3,5.7-0.9,9.1C249.7,58.9,249.5,59.9,249.3,60.9z"/>
</svg>
