<?xml version="1.0" encoding="utf-8"?>
<!-- Generator: Adobe Illustrator 25.3.0, SVG Export Plug-In . SVG Version: 6.00 Build 0)  -->
<svg version="1.1" id="Layer_1" xmlns="http://www.w3.org/2000/svg" xmlns:xlink="http://www.w3.org/1999/xlink" x="0px" y="0px"
	 viewBox="0 0 750.2 400.1" style="enable-background:new 0 0 750.2 400.1;" xml:space="preserve">
<style type="text/css">
	.st0{fill:none;stroke:#000000;stroke-width:0;stroke-linecap:round;stroke-linejoin:round;}
</style>
<g>
	<path d="M391.6,269.7c-0.6,4.8-1.1,9.2-1.4,13.2l3.7,4.8l-1.4-10l1.4,10l1.8,2.4c0.5-6.7,1.4-15.4,2.7-25.4L391.6,269.7z"/>
	<path d="M407.4,206.4c0.5-2.9,1-5.9,1.5-8.8l-6-0.8c-0.2,1-0.4,2.1-0.5,3.1L407.4,206.4z"/>
	<path d="M401.7,241.6c0.8-5.4,1.7-11,2.6-16.8l-7,5.2c-0.6,3.6-1.1,7.2-1.7,10.7L401.7,241.6z"/>
	<path d="M408.9,197.4c1-6.1,2.1-12.2,3.2-18.2l-7,5.2c-0.7,4.1-1.4,8.1-2.1,12.2L408.9,197.4z"/>
	<path d="M415.9,157.8c1.2-6.8,2.4-13.3,3.6-19.6l-7,5.2c-0.8,4.4-1.7,9-2.5,13.6L415.9,157.8z"/>
	<path d="M421.9,125.8c2-10.5,3.8-19.8,5.3-27.3c-2.8-0.3-4.7-0.5-5.8-0.7c-1.2,5.8-2.7,13.2-4.3,21.8L421.9,125.8z"/>
	<path d="M117.3,291.2l0.5-3.2c0.6-8.2,1.9-18.8,3.6-31l-6.7,4.9c-1.5,11.2-2.6,20.8-3,28C113.6,290.4,115.5,290.9,117.3,291.2z"/>
	<path d="M127.6,216.4c0.4-2.2,0.7-4.4,1.1-6.6l1.5-11l-5.5-0.8c-0.7,4-1.4,8-2,11.9L127.6,216.4z"/>
	<path d="M123.4,242.9c1.2-8.3,2.6-17,4.1-25.9l-6.8,5c-1.1,6.9-2.2,13.6-3.2,20L123.4,242.9z"/>
	<path d="M135.4,171.3l-6.8,5c-1.3,7.1-2.6,14.4-3.8,21.6l5.8,0.8C132.1,189.5,133.8,180.3,135.4,171.3z"/>
	<path d="M139.5,132.5l0.3,0l-3.6,2.7c-1.4,7.3-2.8,15.1-4.3,23.1l4.4,0.6l3.7-26.4l0.1,0l2,2.6c0.3-1.8,0.7-3.5,1-5.2L139.5,132.5z
		"/>
	<path d="M145.7,115.5c1.2-6.4,2.4-12.1,3.4-17c-2.6-0.3-4.5-0.5-5.6-0.7c-1.6,8-3.8,18.9-6.2,31.7l2.3,2.9L142,115L145.7,115.5z"/>
	<line class="st0" x1="394.3" y1="291" x2="393.8" y2="287.7"/>
	<line class="st0" x1="393.8" y1="287.7" x2="392.4" y2="277.7"/>
	<path d="M361.2,262.7l-6.5-4.8c2,13.3,3.5,24.8,4,33c1.8-0.4,3.7-0.9,5.5-1.3C363.8,282.8,362.7,273.5,361.2,262.7z"/>
	<path d="M344.5,198.8l0,0.2c1,5.6,2.1,11.2,3.1,16.8l4.7-6.1c-0.7-3.9-1.4-7.7-2.2-11.6L344.5,198.8z"/>
	<path d="M352.3,242.7l5.7-0.8c-1-6.3-2.2-12.8-3.3-19.5l-6.7-4.9C349.5,226.2,351,234.7,352.3,242.7z"/>
	<path d="M339.3,171.2c1.8,9,3.5,18.3,5.2,27.5l5.6-0.8c-1.4-7.3-2.8-14.6-4.2-21.8L339.3,171.2z"/>
	<path d="M332.3,135.7l2.5-3.2l0.1,0l3.7,26.4l3.9-0.5c-1.7-8.4-3.3-16.4-4.8-23.9l-2.6-2l0.3,0l-4.2-3.1
		C331.4,131.4,331.8,133.6,332.3,135.7z"/>
	<path d="M329.7,97c-1,0.1-2.7,0.4-5.1,0.8c0.7,3.4,1.5,7.4,2.4,11.8c0.4,1.9,0.8,4,1.2,6.1l4.6-0.6l2.4,17.4l1.5-2
		C334,116.8,331.5,105.2,329.7,97z"/>
	<path d="M635.2,284l6.5-0.9c-0.8-7.8-2.1-17.4-3.7-28.2l-7.5-5.6C632.5,262.6,634.2,274.6,635.2,284z"/>
	<path d="M631.9,219.2c-0.3-1.7-0.6-3.5-0.9-5.2l-7.7-5.7c1.1,6.1,2.2,12.1,3.2,17.9L631.9,219.2z"/>
	<path d="M615.6,167.5c2.1,10.7,4.2,21.7,6.2,32.6l6.5-0.9c-2-10.5-4-21.1-6-31.3l-7.7-5.7c0.3,1.8,0.7,3.5,1,5.3L615.6,167.5z"/>
	<path d="M616.6,139.8c-1-4.9-2-9.6-2.9-14l-7.5-5.6c1.6,8,3.4,16.8,5.2,26.3L616.6,139.8z"/>
	<path d="M611.6,116.2c-1.6-7.5-3-14.1-4.1-19.2c-0.8,0.1-2.1,0.3-3.8,0.6l2.7,19.4L611.6,116.2z"/>
</g>
</svg>
