<?xml version="1.0" encoding="utf-8"?>
<!-- Generator: Adobe Illustrator 25.3.0, SVG Export Plug-In . SVG Version: 6.00 Build 0)  -->
<svg version="1.1" id="Layer_1" xmlns="http://www.w3.org/2000/svg" xmlns:xlink="http://www.w3.org/1999/xlink" x="0px" y="0px"
	 viewBox="0 0 750.2 400.1" style="enable-background:new 0 0 750.2 400.1;" xml:space="preserve">
<g>
	<path d="M281.1,155.2l6.7,2.8c0.2-1.5,0.3-3,0.5-4.4L281.1,155.2z"/>
	<path d="M299.3,245.3c-1.4-3.8-2.7-7.5-3.9-11.2l-14.4,5.2L299.3,245.3z"/>
	<polygon points="281.1,317.1 299.8,320.2 299.8,308.8 	"/>
	<path d="M116.5,158.1l6.9-2.9l-7.5-1.7C116.2,155,116.4,156.5,116.5,158.1z"/>
	<path d="M108.8,234c-1.2,3.7-2.5,7.5-3.9,11.4l18.6-6.1L108.8,234z"/>
	<polygon points="123.4,317.1 104.4,308.7 104.4,320.3 	"/>
	<path d="M624.7,155.2l7.5,3.1c0.2-1.7,0.4-3.4,0.6-5L624.7,155.2z"/>
	<path d="M643.1,245.3v-1.9c-1.2-3.2-2.3-6.4-3.3-9.6l-15.2,5.5L643.1,245.3z"/>
	<polygon points="643.3,308.9 624.7,317.1 643.2,320.2 	"/>
	<path d="M458.1,153.2c0.2,1.7,0.4,3.6,0.6,5.5l8.2-3.4L458.1,153.2z"/>
	<path d="M451.2,233.5c-1.1,3.4-2.2,6.8-3.5,10.3l0,1.8l19.4-6.3L451.2,233.5z"/>
	<polygon points="467,317.1 447.7,308.6 447.7,320.3 	"/>
</g>
</svg>
