<?xml version="1.0" encoding="utf-8"?>
<!-- Generator: Adobe Illustrator 25.3.0, SVG Export Plug-In . SVG Version: 6.00 Build 0)  -->
<svg version="1.1" id="Layer_1" xmlns="http://www.w3.org/2000/svg" xmlns:xlink="http://www.w3.org/1999/xlink" x="0px" y="0px"
	 viewBox="0 0 750.2 400.1" style="enable-background:new 0 0 750.2 400.1;" xml:space="preserve">
<polygon points="106.2,313.9 106.2,309.3 125.1,313.9 125.1,309.1 144,313.8 144.8,313.9 144.8,309.3 163.6,313.9 163.7,313.9 
	163.7,309.2 182.5,313.8 183.3,313.9 183.3,309.3 202.1,313.9 202.1,313.9 202.1,313.9 202.2,313.9 202.2,313.9 221,309.3 
	221,313.9 221.7,313.8 240.6,309.2 240.6,313.9 240.7,313.9 259.5,309.3 259.5,313.9 260.2,313.8 279.2,309.1 279.2,313.9 
	297.7,309.4 297.7,313.9 299.5,313.5 299.5,307.2 298.8,307.4 298.8,302.9 297.7,303.1 279.2,307.7 279.2,302.9 260.2,307.5 
	260.2,302.9 240.7,307.6 240.7,302.9 221.7,307.5 221.7,302.9 202.1,307.7 202.1,307.6 182.5,302.9 182.5,307.5 163.6,302.9 
	163.6,307.6 144,302.9 144,307.5 125.1,302.9 125.1,307.7 106.2,303 105.4,302.9 105.4,307.5 105.2,307.4 105.2,313.7 "/>
</svg>
