<?xml version="1.0" encoding="utf-8"?>
<!-- Generator: Adobe Illustrator 25.3.0, SVG Export Plug-In . SVG Version: 6.00 Build 0)  -->
<svg version="1.1" id="Layer_1" xmlns="http://www.w3.org/2000/svg" xmlns:xlink="http://www.w3.org/1999/xlink" x="0px" y="0px"
	 viewBox="0 0 750.2 400.1" style="enable-background:new 0 0 750.2 400.1;" xml:space="preserve">
<g>
	<path d="M149.1,98.5c-2.6-0.3-4.5-0.5-5.6-0.7c-4.8,23.5-14.4,73.6-21.8,118.4l3.5,1l4-10.1C136,166.3,144.2,122.8,149.1,98.5z"/>
	<path d="M427.2,98.5c-2.8-0.3-4.7-0.5-5.8-0.7c-4.8,23.5-14.4,73.5-21.8,118.3l3.8,1.1l2.2-0.1C412.7,173.5,421.9,124.8,427.2,98.5
		z"/>
	<path d="M353.3,215.3c-8.1-45.1-18.6-95.3-23.6-118.3c-1,0.1-2.7,0.4-5.1,0.8c0.7,3.4,1.5,7.4,2.4,11.8
		c4.8,23.8,12.2,60.4,18.7,95.6l5.1,10.9L353.3,215.3z"/>
	<path d="M347.8,216.9l1.1-0.3l-1.1,0.1C347.8,216.8,347.8,216.9,347.8,216.9z"/>
	<path d="M631.3,215.6c-8.2-45.2-18.7-95.5-23.8-118.6c-1.1,0.2-3.1,0.5-5.9,0.9c0.7,3.4,1.5,7.3,2.4,11.7
		c3.1,15.3,7.2,35.8,11.5,57.8l0.1,0.1c3.2,16.2,6.4,33.3,9.3,49.6l0.8,0L631.3,215.6z"/>
</g>
</svg>
