<?xml version="1.0" encoding="utf-8"?>
<!-- Generator: Adobe Illustrator 25.3.0, SVG Export Plug-In . SVG Version: 6.00 Build 0)  -->
<svg version="1.1" id="Layer_1" xmlns="http://www.w3.org/2000/svg" xmlns:xlink="http://www.w3.org/1999/xlink" x="0px" y="0px"
	 viewBox="0 0 750.2 400.1" style="enable-background:new 0 0 750.2 400.1;" xml:space="preserve">
<g>
	<path d="M355.1,260.6l5.5-2c-0.3-2.3-0.7-4.6-1.1-7l-5.5,2C354.4,256,354.8,258.3,355.1,260.6z"/>
	<path d="M352,241.1c0.4,2.1,0.7,4.3,1,6.3l5.5-2c-0.3-2.1-0.7-4.2-1-6.3L352,241.1z"/>
	<path d="M350.8,233.9l5.4-2c-1-6-2.1-12.2-3.3-18.5l-5.4,1.9C348.7,221.7,349.8,227.9,350.8,233.9z"/>
	<path d="M364.2,289.2c-0.4-5.8-1.2-13.2-2.3-21.6l-5.5,2c1.1,7.8,1.8,14.7,2.2,20.3C361.1,289.6,362.9,289.4,364.2,289.2z"/>
	<path d="M116.4,261.7L116.4,261.7L116.4,261.7l4.4-0.5c0.3-2.3,0.6-4.7,1-7.1l-4.4,0.5l0,0l-0.1,0l-0.1,0l0,0l-1.5-0.6
		c-0.3,2.4-0.7,4.8-1,7.1L116.4,261.7L116.4,261.7L116.4,261.7z"/>
	<path d="M118.1,248.4l4.6-0.6c0.3-2.1,0.6-4.3,1-6.5l-5,0.6l-1.1-0.4c-0.3,2.2-0.6,4.3-1,6.4L118.1,248.4L118.1,248.4z"/>
	<path d="M119.5,234.6L119.5,234.6L119.5,234.6l0.1,0.1l0,0l5.1-0.6c1-6.2,2-12.5,3.1-19l-6,0.7l0,0c-1.1,6.3-2.1,12.6-3,18.6
		L119.5,234.6z"/>
	<path d="M119.6,270.2l-4.3,0.5l-1.7-0.6c-0.9,7.7-1.6,14.4-1.9,19.8c0.5,0.1,0.9,0.2,1.4,0.3l1.4,0.2l2.6,0.3c0.2,0,0.3,0,0.4,0.1
		C117.9,285.2,118.6,278.2,119.6,270.2z"/>
	<path d="M396.7,261.7L396.7,261.7L396.7,261.7l2.1-0.3c0.3-2.3,0.6-4.7,1-7.1l-2.1,0.3l0,0l-0.1,0l-0.1,0l0,0l-3.8-1.4
		c-0.3,2.4-0.7,4.8-1,7.1L396.7,261.7L396.7,261.7L396.7,261.7z"/>
	<path d="M398.4,248.4L398.4,248.4l2.4-0.3c0.3-2.1,0.6-4.3,1-6.5l-2.6,0.3l-3.4-1.3c-0.3,2.2-0.7,4.3-1,6.4L398.4,248.4z"/>
	<path d="M396.8,233.4l3.1,1.1l0,0l0.1,0l0.1,0l0,0l2.8-0.3c1-6.2,2-12.5,3.1-19l-3.7,0.4l-2.4-0.8
		C398.8,221.1,397.7,227.4,396.8,233.4z"/>
	<path d="M397.7,270.5l-2,0.2l-4-1.5c-1,8-1.7,15-2,20.5c0.2,0,0.5,0.1,0.8,0.1l4.5,0.5l0.8,0.1C396,285.1,396.7,278.3,397.7,270.5z
		"/>
	<path d="M637.5,251.8l-6.3,2.3c0.4,2.4,0.7,4.8,1.1,7l6.3-2.3C638.2,256.6,637.8,254.2,637.5,251.8z"/>
	<path d="M635.4,239.4l-6.3,2.3c0.4,2.1,0.7,4.3,1,6.3l6.3-2.3C636.1,243.6,635.8,241.5,635.4,239.4z"/>
	<path d="M634.2,232.2c-1-6-2.1-12.2-3.3-18.5l-5.5,2l-0.8-0.1c1.2,6.4,2.3,12.8,3.3,18.9L634.2,232.2z"/>
	<path d="M642.2,289.8c-0.4-5.8-1.2-13.3-2.4-22l-6.3,2.3c1.1,8.3,1.9,15.5,2.3,21.1C637.9,290.8,640,290.3,642.2,289.8z"/>
</g>
</svg>
