<?xml version="1.0" encoding="utf-8"?>
<!-- Generator: Adobe Illustrator 25.3.0, SVG Export Plug-In . SVG Version: 6.00 Build 0)  -->
<svg version="1.1" id="Layer_1" xmlns="http://www.w3.org/2000/svg" xmlns:xlink="http://www.w3.org/1999/xlink" x="0px" y="0px"
	 viewBox="0 0 750.2 400.1" style="enable-background:new 0 0 750.2 400.1;" xml:space="preserve">
<g>
	<path d="M158.4,125.8c-8.4-0.9-13.9-1.7-15.9-1.9c-4.4,19.6-12.6,57.5-18.9,92.9l1.5,0.4l17.5-0.9L158.4,125.8z"/>
	<path d="M436.7,125.8c-8.4-0.9-13.9-1.7-15.9-1.9c-4.4,19.6-12.6,57.5-18.9,92.9l1.5,0.4l17.5-0.9L436.7,125.8z"/>
	<path d="M348.1,216.9c-6.4-36-14.7-74.5-19.1-93.9c-2.3,0.4-8.8,1.4-18.9,2.6l15.7,90.4l21.1,1.1L348.1,216.9z"/>
	<path d="M588.5,125.6l15.7,90.4l21.5,1.2l0.7-0.2c-6.4-36-14.7-74.6-19.1-94C605,123.4,598.5,124.4,588.5,125.6z"/>
</g>
</svg>
