<?xml version="1.0" encoding="utf-8"?>
<!-- Generator: Adobe Illustrator 25.3.0, SVG Export Plug-In . SVG Version: 6.00 Build 0)  -->
<svg version="1.1" id="Layer_1" xmlns="http://www.w3.org/2000/svg" xmlns:xlink="http://www.w3.org/1999/xlink" x="0px" y="0px"
	 viewBox="0 0 750.2 400.1" style="enable-background:new 0 0 750.2 400.1;" xml:space="preserve">
<g>
	<path d="M340.4,176.9c-1.8-8.9-3.6-17.4-5.2-25.2c-7.4,0.3-14.2,0.8-20.3,1.6l4.8,27.7c2.5-0.5,4.8-1.1,6.9-1.7
		C329.7,178.3,334.4,177.6,340.4,176.9z"/>
	<path d="M127.1,198.1c6.1-0.9,12.5-1.8,19.2-2.6l3.6-20.6c-7.4,0.9-13.6,2.1-18.9,3.4C129.6,184.8,128.3,191.4,127.1,198.1z"/>
	<path d="M596.3,170.9c7.5-0.1,14.6-0.2,21.1-0.3c-1.1-5.4-2.2-10.6-3.2-15.6c-6.2,0.6-13,1.1-20.4,1.4L596.3,170.9z"/>
	<path d="M414.7,152.2c-1.4,6.6-2.9,13.6-4.3,20.9c5.9-0.2,12-0.3,18.2-0.4l3.5-19.9C426.2,152.6,420.4,152.4,414.7,152.2z"/>
	<path d="M419,132.2c5.4,0.1,10.9,0.3,16.5,0.5l1.2-6.9c-8.4-0.9-13.9-1.7-15.9-1.9C420.3,126.3,419.6,129.1,419,132.2z"/>
	<path d="M152.9,157.4l1.6-9.4c-6.3,0.3-12.1,0.3-17.3,0c-0.7,3.3-1.4,6.8-2.2,10.4C140.8,158.1,146.8,157.8,152.9,157.4z"/>
	<path d="M310.1,125.6l1.7,9.8c6.3-0.6,12.8-1.1,19.6-1.5c-0.9-4.1-1.7-7.8-2.4-10.9C326.7,123.4,320.2,124.4,310.1,125.6z"/>
	<path d="M607.3,123c-2.3,0.4-8.8,1.4-18.9,2.6l2.5,14.2c6.3-0.5,12.7-1.3,19.6-2.4C609.3,131.9,608.2,127,607.3,123z"/>
	<path d="M415.7,246.5l4.1-23.6c-6.2,0.5-12.6,1-19.2,1.6c-1.3,7.8-2.6,15.4-3.6,22.6C403.5,246.9,409.7,246.7,415.7,246.5z"/>
	<path d="M350.3,229.6c-7.2,0.8-14.4,1.6-21.6,2.4l3.2,18.3c7.2-0.4,14.4-0.8,21.5-1.1C352.4,242.9,351.4,236.4,350.3,229.6z"/>
	<path d="M611.9,231.8c-1.7,0.1-3.3,0.2-4.9,0.3l3.2,18.3c7.2-0.1,14.4-0.1,21.6-0.1c-0.9-6.2-1.9-12.7-3-19.4
		C623.5,231.1,617.9,231.4,611.9,231.8z"/>
	<path d="M134.9,260.9l3.2-18.2c-7-0.6-13-1.2-18.4-1.9c-1.1,6.8-2,13.3-2.7,19.3C119.2,260.9,125.5,261.1,134.9,260.9z"/>
	<path d="M142.3,218.4c-7.5-0.5-13.6-1-18.7-1.3c-0.7,4.1-1.4,8.2-2.1,12.3c6.5,1.2,12.6,2.2,18.4,3.1L142.3,218.4z"/>
	<path d="M627.5,223.2c-0.5-3-1.1-6.1-1.6-9.2c-6.7,0.2-14,0.1-22.1-0.5l1.6,9.5C612.6,223.2,620.1,223.2,627.5,223.2z"/>
	<path d="M425.2,191.7c-6,0.3-12.3,0.8-18.9,1.4c-1.3,6.9-2.7,14-3.9,20.9c6.5-0.3,12.8-0.6,19-0.8L425.2,191.7z"/>
	<path d="M348.3,218.2c-1-5.7-2.1-11.4-3.1-17.1c-7.3,1.1-14.4,2.2-21.3,3.4l2.8,16.3c3.7-0.4,7.4-0.9,11.3-1.3
		C341.5,219,344.9,218.6,348.3,218.2z"/>
	<path d="M150.9,168.6l1-5.6c-6.4,0.6-12.5,1.2-18.2,1.8c-0.5,2.2-0.9,4.5-1.4,6.7C138.4,170.5,144.6,169.5,150.9,168.6z"/>
	<path d="M150.7,138c1.8-0.2,3.7-0.4,5.6-0.6l2-11.6c-2.2-0.2-4.2-0.5-6-0.7c-3.6,0.6-7.1,1.1-10.5,1.5c-0.8,3.5-1.7,7.6-2.6,12
		C142.8,138.5,146.6,138.4,150.7,138z"/>
	<path d="M598.4,182.6l1.2,6.9c7.9,0.5,15.4,1.1,22.1,2c-0.6-3-1.2-6-1.7-8.9C612.5,182.6,605.3,182.6,598.4,182.6z"/>
	<path d="M411.5,270.7c-6,0.2-11.8,0.3-17.5,0.6c-0.2,2.4-0.4,4.6-0.5,6.7c5.5,1.4,10.8,2.7,16,3.8L411.5,270.7z"/>
	<path d="M131.2,281.8l1.2-6.7c-5.8-0.1-11.4-0.2-17-0.3c-0.1,1.1-0.2,2.2-0.2,3.2C120.7,279.4,126,280.7,131.2,281.8z"/>
	<path d="M615.8,282.4c6.1-1.3,12.5-2.7,19.1-4.4c-0.1-1.7-0.2-3.5-0.4-5.3c-7.1,0.5-13.5,1-20.1,1.5L615.8,282.4z"/>
	<path d="M356.5,278c-0.1-1.5-0.2-3.1-0.3-4.8c-6.9,0.4-13.6,0.9-20.1,1.3l1.4,7.9C343.6,281.1,349.9,279.7,356.5,278z"/>
</g>
</svg>
