<?xml version="1.0" encoding="utf-8"?>
<!-- Generator: Adobe Illustrator 25.3.0, SVG Export Plug-In . SVG Version: 6.00 Build 0)  -->
<svg version="1.1" id="Layer_1" xmlns="http://www.w3.org/2000/svg" xmlns:xlink="http://www.w3.org/1999/xlink" x="0px" y="0px"
	 viewBox="0 0 750.2000122 400.1000061" style="enable-background:new 0 0 750.2000122 400.1000061;" xml:space="preserve">
<g>
	<path d="M157.6000366,62.3000183c0.1999512-0.1000366,0.3999634-0.2000122,0.5999756-0.3000488
		c-3.7000122-4.3999634-3.7999878-10.0999756-3.5999756-12.7999878l-115.4000244,34l12.4000244,56.4000244l59.3999634-12
		C113.5,121.0000305,130.6000366,75.5000305,157.6000366,62.3000183z"/>
	<path d="M592.000061,48.1999817c-1.2000732-0.0999756-3.4000854-0.2999878-6.2000732-0.5
		c1.5999756,1.1000366,3.7000122,2.2000122,6.4000244,3.6000366c27.2000122,13.2999878,44.2999878,68.7000122,46.5,76.2999878
		l59.5,12l12.4000244-56.4000244L592.000061,48.1999817z"/>
	<path d="M384,83.1999817l12.3999634,56.4000244l59.3000488-12c2.2999878-7.5999756,19.4000244-63,46.6000366-76.2999878
		c2.7999878-1.4000244,5-2.6000366,6.7000122-3.7000122c-2.2000122,0.0999756-4,0.2000122-5.6000366,0.3999634L384,83.1999817z"/>
	<path d="M250.2000122,49.0000305c0,2.5-0.5,7.8999634-3.5999756,12.7999878c0.2999878,0.2000122,0.5999756,0.2999878,0.8999634,0.5
		c27,13.2000122,44.1000366,58.7000122,46.5,65.2999878h0.1000366h0.0999756l59.4000244,12L366,83.1999817L250.2000122,49.0000305z"
		/>
	<path d="M170.9279175,73.4433289c-4.2186279-3.2962646-8.6802979-7.2957153-12.0278931-10.6433105c0,0,0,0,0-0.1000366
		c-0.2999878,0.1000366-0.6000366,0.3000488-0.9000244,0.4000244c-5.0341187,2.4615479-9.7211914,6.0690918-14.0304565,10.3433228
		h18.2565308H170.9279175z"/>
	<path d="M246.000061,62.6999817c0,0,0,0.1000366-0.1000366,0.1000366
		c-2.7802124,3.9386597-6.8018799,7.6707764-10.8599854,10.6433105h7.4393311h18.5488892
		c-4.28125-4.2301636-8.9337158-7.8011475-13.9282227-10.2433472
		C246.7000732,63.0000305,246.4000244,62.8000183,246.000061,62.6999817z"/>
</g>
</svg>
