<?xml version="1.0" encoding="utf-8"?>
<!-- Generator: Adobe Illustrator 25.3.0, SVG Export Plug-In . SVG Version: 6.00 Build 0)  -->
<svg version="1.1" id="Layer_1" xmlns="http://www.w3.org/2000/svg" xmlns:xlink="http://www.w3.org/1999/xlink" x="0px" y="0px"
	 viewBox="0 0 750.2000122 400.1000061" style="enable-background:new 0 0 750.2000122 400.1000061;" xml:space="preserve">
<g>
	<path d="M292.2000122,123.0000305C293,125.1000061,293.5999756,126.6999817,294,127.6000061h0.0999756h0.1000366l24.7000122,5
		l13.7000122-59.2999878l-27-8L292.2000122,123.0000305z"/>
	<path d="M87.9000244,132.3000183L111,127.6000061c0.5-1.2000122,1.5-3.7999878,2.9000244-7.4000244l-12.8000488-55.2999878l-27,8
		L87.9000244,132.3000183z"/>
	<path d="M416.8000488,73.6000061l13.5999756,59.0999756l25.2999878-5.0999756
		c0.2999878-0.9000244,0.7000122-2.4000244,1.3999634-4.4000244l-13.2999268-57.5999756L416.8000488,73.6000061z"/>
	<path d="M636.9000244,121.8000183c0.9000244,2.7000122,1.5,4.7000122,1.7999878,5.7999878l24.5999756,5L677,73.3000183l-27-8
		L636.9000244,121.8000183z"/>
	<path d="M286.6071777,170.1058655c-3.0942383,41.0637817-4.5068359,119.8222656,1.6855469,166.0390625h7.078125
		c-0.4462891-7.4957886-5.4169922-93.6118164-2.6982422-152.5429688
		c1.6640625-36.0405273,8.4775391-42.1054688,8.7666016-42.3461914l0.1826172-0.1518555l49.4462891,10.1713867l2.3618164-10.7267456
		l-59.1567383-11.9216919C293.642334,129.1322327,289.3395996,133.8514709,286.6071777,170.1058655z"/>
	<path d="M110.8845215,128.6297913L51.923584,140.5106506l2.3701172,10.7646484l49.4443359-10.1713867l0.1835938,0.1518555
		c0.2890625,0.2407227,7.1035156,6.3056641,8.7666016,42.3461914c2.7197266,58.9311523-2.2509766,145.0471802-2.6972656,152.5429688
		h6.7333984l0.1269531,0.2094727c6.2246094-46.1914062,4.8115234-125.1254883,1.7128906-166.2485352
		C115.8571777,134.1947327,111.6101074,129.2245178,110.8845215,128.6297913z"/>
	<path d="M631.2927246,170.1063538c-2.7543945,36.5258789-4.9423828,125.4418945,1.6767578,175.1938477
		c4.0019531-2.0517578,6.7255859-7.8981323,7.1044922-8.7495117c-0.2285156-3.7983398-5.5048828-92.6206055-2.7216797-152.9487305
		c1.6640625-36.0405273,8.4775391-42.1054688,8.7666016-42.3461914l0.1826172-0.1518555l49.4462891,10.1713867l2.3603516-10.7213745
		l-59.1542969-11.9212036C638.3210449,129.1424866,634.0222168,133.8778381,631.2927246,170.1063538z"/>
	<path d="M455.5622559,128.6356506l-58.9575195,11.8803711l2.3686523,10.7592773l49.4443359-10.1713867l0.1835938,0.1518555
		c0.2890625,0.2407227,7.1025391,6.3056641,8.7666016,42.3461914c2.7900391,60.4438477-2.5117188,149.4926758-2.7216797,152.9697266
		c0.3017578,0.8647461,2.8291016,7.8037109,6.4697266,9.0742188c0.0234375,0.0117188,0.1523438,0.0771484,0.3725586,0.1860352
		c6.706543-49.6479492,4.5117188-139.0683594,1.7485352-175.7255859
		C460.5339355,134.2259827,456.2907715,129.2362366,455.5622559,128.6356506z"/>
</g>
</svg>
