<?xml version="1.0" encoding="utf-8"?>
<!-- Generator: Adobe Illustrator 25.3.0, SVG Export Plug-In . SVG Version: 6.00 Build 0)  -->
<svg version="1.1" id="Layer_1" xmlns="http://www.w3.org/2000/svg" xmlns:xlink="http://www.w3.org/1999/xlink" x="0px" y="0px"
	 viewBox="0 0 750.2000122 400.1000061" style="enable-background:new 0 0 750.2000122 400.1000061;" xml:space="preserve">
<path d="M294.0133667,127.6742249l0.0625-0.0514526l0.0830078-0.0276489l0.1289062,0.0258789l59.3544922,11.9614258
	l2.6210938-11.9046021c-14.1901245-3.1419678-36.2831421-7.9996948-57.1480713-12.4463501
	c-2.1763306-4.1851807-4.442749-8.0923462-6.7568359-11.7542114
	C293.446167,115.4935608,293.9054565,125.1698303,294.0133667,127.6742249z"/>
<path d="M51.7111206,139.5456238l58.6601562-11.8214722c0.1010132-2.3553467,0.5355225-11.5734253,1.5598145-23.1569824
	c-2.0767822,3.3464355-4.1124268,6.8917236-6.0741577,10.6643066c-20.6817017,4.4075928-42.5741577,9.2199707-56.7768555,12.3641357
	L51.7111206,139.5456238z"/>
<path d="M396.3893433,139.5399475l58.9741211-11.8844604c0.0704346-2.8599243,0.4483032-14.9119263,2.0303345-30
	c-2.8135376,5.3096924-5.5647583,11.1500244-8.1963501,17.5759888c-20.0730591,4.2778931-41.282959,8.9362793-55.500061,12.081604
	L396.3893433,139.5399475z"/>
<path d="M638.5800171,127.5854187l0.1677246-0.1833496c0.0195312,0.06604,0.0410156,0.1378174,0.0585938,0.197937l0.03125-0.0107422
	l59.4858398,11.9876099l2.6565552-12.065918c-14.2116089-3.1455078-35.9016113-7.9121094-56.3947144-12.27948
	c-2.5679321-6.2705688-5.2503052-11.9794312-7.9928589-17.1859131
	C638.1272583,112.8334045,638.5063477,124.636322,638.5800171,127.5854187z"/>
</svg>
