<?xml version="1.0" encoding="utf-8"?>
<!-- Generator: Adobe Illustrator 25.3.0, SVG Export Plug-In . SVG Version: 6.00 Build 0)  -->
<svg version="1.1" id="Layer_1" xmlns="http://www.w3.org/2000/svg" xmlns:xlink="http://www.w3.org/1999/xlink" x="0px" y="0px"
	 viewBox="0 0 750.2000122 400.1000061" style="enable-background:new 0 0 750.2000122 400.1000061;" xml:space="preserve">
<g>
	<path d="M294.2731934,128.6268616c-0.6308594,0.5053711-4.9335938,5.2246094-7.6660156,41.4790039
		c-3.0942383,41.0637817-4.5068359,119.8222656,1.6855469,166.0390625h7.078125
		c-0.4462891-7.4957886-5.4169922-93.6118164-2.6982422-152.5429688
		c1.6640625-36.0405273,8.4775391-42.1054688,8.7666016-42.3461914l0.1826172-0.1518555l49.4462891,10.1713867l2.3618164-10.7267456
		L294.2731934,128.6268616z"/>
	<path d="M118.564209,170.1058655c-2.7070312-35.9111328-6.9541016-40.8813477-7.6796875-41.4760742L51.923584,140.5106506
		l2.3701172,10.7646484l49.4443359-10.1713867l0.1835938,0.1518555c0.2890625,0.2407227,7.1035156,6.3056641,8.7666016,42.3461914
		c2.7197266,58.9311523-2.2509766,145.0471802-2.6972656,152.5429688h6.7333984l0.1269531,0.2094727
		C123.0759277,290.1629944,121.6628418,211.2289124,118.564209,170.1058655z"/>
	<path d="M698.1081543,140.5539246l-59.1542969-11.9212036c-0.6328125,0.5097656-4.9316406,5.2451172-7.6611328,41.4736328
		c-2.7543945,36.5258789-4.9423828,125.4418945,1.6767578,175.1938477c4.0019531-2.0517578,6.7255859-7.8981323,7.1044922-8.7495117
		c-0.2285156-3.7983398-5.5048828-92.6206055-2.7216797-152.9487305
		c1.6640625-36.0405273,8.4775391-42.1054688,8.7666016-42.3461914l0.1826172-0.1518555l49.4462891,10.1713867
		L698.1081543,140.5539246z"/>
	<path d="M463.2370605,170.1063538c-2.703125-35.8803711-6.9462891-40.8701172-7.6748047-41.4707031l-58.9575195,11.8803711
		l2.3686523,10.7592773l49.4443359-10.1713867l0.1835938,0.1518555c0.2890625,0.2407227,7.1025391,6.3056641,8.7666016,42.3461914
		c2.7900391,60.4438477-2.5117188,149.4926758-2.7216797,152.9697266c0.3017578,0.8647461,2.8291016,7.8037109,6.4697266,9.0742188
		c0.0234375,0.0117188,0.1523438,0.0771484,0.3725586,0.1860352
		C468.1950684,296.1839905,466.0002441,206.7635803,463.2370605,170.1063538z"/>
</g>
</svg>
