<?xml version="1.0" encoding="utf-8"?>
<!-- Generator: Adobe Illustrator 25.3.0, SVG Export Plug-In . SVG Version: 6.00 Build 0)  -->
<svg version="1.1" id="Layer_1" xmlns="http://www.w3.org/2000/svg" xmlns:xlink="http://www.w3.org/1999/xlink" x="0px" y="0px"
	 viewBox="0 0 750.2 400.1" style="enable-background:new 0 0 750.2 400.1;" xml:space="preserve">
<style type="text/css">
	.st0{fill:none;}
</style>
<g>
	<path class="st0" d="M134,206.5c-1.5,0-3.1,0-4.6,0c1.3,1.6,2.6,3.2,3.9,4.9c0.2,0,0.3,0.1,0.5,0.1c1.7,0.3,3.3,0.7,5,1
		C137.1,210.5,135.5,208.5,134,206.5z"/>
	<path d="M131.9,258.8c0.2-1.3,0.2-2.6,0.1-3.8c-4.2,1.8-8.5,3.5-12.9,5.1c-0.8,0.3-1.5,0.5-2.3,0.8c-0.1,1.1-0.3,2.2-0.4,3.2
		c2.8-0.9,5.6-1.9,8.3-2.8C127.1,260.5,129.5,259.6,131.9,258.8z"/>
	<path d="M147.4,176.4c-3.2-2.8-7.1-5.3-11.1-7.7c-0.3-0.2-0.7-0.3-1-0.4c-0.1,0-0.1,0.1-0.2,0.1c0.5,0.4,0.9,0.7,1.4,1.1
		c2.4,1.7,4.9,3.3,7.2,5c1.3,1,2.3,2,3.2,3.1c0.4,0.5,0.7,1,0.9,1.5c0.2,0.9-0.6,1.4-2.2,1.5c-1.1,0.1-2.2,0.1-3.3,0.1
		c-3.8-0.2-7.7-0.4-11.5-0.6c-0.1,0.3-0.1,0.5-0.2,0.8c4.6,0.4,9.2,0.9,13.8,1.4c1.1,0.1,2.2,0.2,3.3,0.3c0.3,0,0.7,0,1,0l0.7-4.3
		C148.7,177.5,148,176.9,147.4,176.4z"/>
	<path d="M634.2,269.9c-0.2-1.7-0.3-3.5-0.6-5.3c-2.1,3-4.3,6-7.2,8.9c-2.6,2.6-4.7,5.2-6.2,8c0.4-0.1,0.9-0.2,1.3-0.3
		c0.9-0.8,1.8-1.5,2.8-2.3C627.8,276,631.1,273,634.2,269.9z"/>
	<path d="M409.8,280.4c-0.5,0.1-0.9,0.2-1.4,0.3c-0.7,0.1-1.4,0.3-2.2,0.4c1.1,0.2,2.2,0.5,3.3,0.7L409.8,280.4z"/>
	<path d="M430.8,130c-2.2-0.3-4.3-0.5-6.5-0.7c-1.5,0.4-3.1,0.8-4.6,1.2c-0.1,0-0.2,0-0.2,0.1c2.6,0.2,5.1,0.4,7.7,0.6
		c1.3,0.1,2.5,0.2,3.8,0.4c-1.1,0.9-2,1.9-2.7,2.9c-0.6,0.8-1.1,1.7-1.3,2.5c-0.4,1.5,1.2,2.5,4.1,2.4c1.1,0,2.3-0.1,3.4-0.3l2.1-12
		c-1.3,1-2.6,2-3.8,3C432,130.1,431.4,130.1,430.8,130z"/>
	<path d="M355.1,262.7c-4.5-0.4-9.1-0.9-13.6-1.2c-2.6-0.2-5.1-0.3-7.7-0.3l0.1,0.5c2.7,0.1,5.3,0.3,8,0.6c-1.2,0.1-2.4,0.1-3.6,0.1
		c-1.4,0-2.8,0-4.3,0l0.3,1.7c2.8,0.4,5.7,0.7,8.5,1.1c0.2,0,0.3,0.1,0.6,0.3c-3-0.2-5.9-0.5-8.9-0.7l0.2,1c7.3,0.6,14.4,1.6,21.2,3
		C355.5,266.7,355.3,264.7,355.1,262.7z"/>
	<path d="M423.8,154.4c-2.8-0.1-5.5-0.4-8.1-1c-0.4-0.1-0.8-0.2-1.2-0.3c-0.1,0.6-0.3,1.2-0.4,1.8c0.9,0.1,1.9,0.3,2.9,0.4
		c4.9,0.5,9.7,0.5,14.6,0.2l0.2-1.2C429.1,154.3,426.5,154.4,423.8,154.4z"/>
	<path d="M140,145c1.7-0.8,3.4-1.5,5.1-2.3c-0.2-0.2-0.5-0.4-0.7-0.6c-0.2-0.2-0.3-0.4-0.5-0.6c-2,0.9-4,1.8-6,2.7
		c-0.1,0.6-0.3,1.3-0.4,1.9c0.7-0.3,1.4-0.7,2-1C139.8,145.1,139.9,145.1,140,145z"/>
	<path d="M427.9,149.4c-2.7-1-5-2.2-7.3-3.4c-1.4-0.8-2.8-1.6-4.2-2.4c-0.1,0.4-0.2,0.8-0.3,1.2c1.7,0.9,3.4,1.9,5.1,2.8
		c1.1,0.6,2.3,1.2,3.5,1.7c2.1,0.9,4.4,1.7,6.9,2.4c0.1,0,0.3,0.1,0.4,0.1l0.2-1c-1.2-0.3-2.3-0.6-3.5-1
		C428.6,149.7,428.2,149.5,427.9,149.4z"/>
	<path d="M406,217.9c-0.6-0.2-1.1-0.5-1.8-0.8c1.5-0.2,2.5,0.1,3.5,0.3c4.3,0.8,8.5,1.8,12.6,2.9l0.2-0.9c-3.9-1.1-7.9-2.2-11.9-3.2
		c-2-0.5-4.1-1-6.1-1.4c-0.4,2-0.7,4-1.1,6c0.5,0.3,0.7,0.7,0.3,1.1c-1.1,1-0.5,2,0.5,2.9c0.5,0.4,0.9,0.8,1.4,1.2
		c4.2,0.5,8.4,1.1,12.5,1.9c1,0.2,1.9,0.4,2.9,0.6l1-5.8c-2.3-0.9-4.7-1.7-7-2.5C410.5,219.5,408.3,218.7,406,217.9z"/>
	<path d="M414.9,162.5c-0.5-1.6-0.5-3.2-0.5-4.8c0-0.6,0-1.2-0.1-1.8c0-0.1-0.1-0.3-0.3-0.4c-0.3,1.5-0.6,3-1,4.5
		c0.3,0.9,0.5,1.7,0.8,2.6c0.8,2.6,3.4,4.5,8,5.7c0.6,0.1,1.2,0.3,1.8,0.4c1.8,0.4,3.6,0.8,5.5,1.2l0.1-0.4
		c-2.1-0.5-4.1-0.9-6.2-1.4C418.4,167,415.7,165.1,414.9,162.5z"/>
	<path d="M406.2,228.1c3.9,2.6,7.6,5.3,11.3,8l1.2-6.7c-3.3-0.8-6.9-1.3-10.4-1.7c-0.4,0-0.7-0.1-1.1-0.1c0.2-0.2,0.3-0.4,0.4-0.7
		c-1.3-0.3-2.5-0.2-3.7-0.1c-1.3,0.1-2.5,0.3-3.7,0.5c-0.2,1.1-0.4,2.2-0.6,3.3c1.7-0.6,3.3-1.2,5-1.8
		C405.2,228.6,405.7,228.3,406.2,228.1z"/>
	<path d="M342.9,253c0.7-0.4,1.3-0.8,2-1.2c3.1,0.9,6.2,1.8,9.1,2.8c0-0.3-0.1-0.7-0.1-1c-0.7-0.2-1.4-0.4-2.1-0.7
		c-2-0.6-3.9-1.1-5.9-1.6c2.3-1.3,4.7-2.6,7.2-3.9c-0.2-1-0.3-2.1-0.5-3.1c-4.1,1.8-8,3.8-11.8,5.8c-3.1-0.7-6.2-1.4-9.4-2.1
		l0.1,0.7c0.7,0.1,1.3,0.3,2,0.4c2.1,0.5,4.3,1,6.3,1.5c-1.1,0.6-2.3,1.2-3.4,1.8c-0.6,0.3-1.2,0.7-1.7,1c-0.7,0.4-1.5,0.8-2.2,1.2
		l0.7,4c1.1-0.6,2.2-1.2,3.3-1.8C338.8,255.6,340.9,254.3,342.9,253z"/>
	<path d="M407,276c0-0.2,0-0.4-0.1-0.7c-0.4-0.8-0.9-1.7-1.7-2.5c-1.9-1.9-3.8-3.7-6.1-5.5c-1.4-1.1-2.9-2.2-4.3-3.3
		c-0.4,3.9-0.8,7.5-1,10.9c2.4,0.5,4.8,1,7.2,1.5c0.3,0.1,0.7,0.1,1,0.2c-2.3,0.3-4.6,0.6-7,0.8c-0.5-0.2-0.9-0.4-1.4-0.5
		c0,0.3,0,0.7-0.1,1c2.4,0.6,4.7,1.2,7,1.7c0,0,0,0-0.1,0c3.3-0.4,6.5-0.9,9.7-1.4l0.5-2.9C409.4,275.6,408.2,275.8,407,276z"/>
	<path d="M134.5,244.4c0.8,0.7,1.5,1.4,2.3,2.1c0.2,0.1,0.3,0.3,0.5,0.4l0.2-1c-0.7-0.6-1.4-1.2-2.1-1.8c-0.6-0.5-1.2-1-1.8-1.6
		c-4.3-3.8-8.4-7.8-12.4-11.7c0,0.3-0.1,0.5-0.1,0.8c3.8,3.8,7.7,7.5,11.7,11.2C133.3,243.3,133.9,243.9,134.5,244.4z"/>
	<path d="M629.6,235.8c0-0.2-0.1-0.4-0.1-0.6c-2.1,0.3-4.2,0.5-6.4,0.6c-3,0.2-6.1,0.2-9.1-0.1c-2.8-0.3-5.1-0.9-6.8-2.1l0.4,2.1
		c0.5,0.1,0.9,0.2,1.4,0.3c3,0.5,6.1,0.8,9.2,0.7c3.7-0.1,7.4-0.4,11-0.9C629.4,235.8,629.5,235.8,629.6,235.8z"/>
	<path d="M627.1,230.1c0.5,0.1,1.1,0.2,1.6,0.2c-0.2-1.4-0.5-2.7-0.7-4.1c-0.2,0.1-0.4,0.2-0.5,0.3c-0.7,0.5-1.4,0.9-1.9,1.5
		C624.7,228.8,625.4,229.7,627.1,230.1z"/>
	<path d="M337.5,240.6c4.7-1,9.3-1.9,14.1-2.8c-0.1-0.7-0.2-1.5-0.3-2.2c-3.7,0.7-7.5,1.4-11.2,2.2c-2.6,0.5-5.3,1.1-7.9,1.7
		c-0.7,0.2-1.4,0.3-2.2,0.5l0.4,2.2c1.6-0.4,3.3-0.7,4.9-1.1C336,240.9,336.8,240.7,337.5,240.6z"/>
	<path d="M132.8,254.7c0.2,1.3,0.3,2.5,0.2,3.8c0.1,0,0.1,0,0.2-0.1c0.7-0.2,1.5-0.5,2.2-0.7l0.8-4.5
		C135.1,253.7,134,254.2,132.8,254.7z"/>
	<path d="M634.8,277.7c-0.1-2-0.3-4.2-0.5-6.5c-0.6,0.5-1.2,1.1-1.8,1.6c-3,2.7-6.2,5.3-9.3,8c3.7-0.8,7.4-1.7,11.2-2.7
		C634.6,278,634.7,277.8,634.8,277.7z"/>
	<path d="M131.2,276.8c0.3-0.1,0.6-0.3,0.9-0.4l0.3-1.9c-1.4,0.5-2.8,1.1-4.1,1.7c-0.7,0.3-1.4,0.7-2,1.1c-1.4,0.8-2.7,1.7-4.1,2.5
		c1,0.2,1.9,0.5,2.9,0.7C127,279.1,128.9,277.9,131.2,276.8z"/>
	<path d="M627.6,223.8c-0.1-0.5-0.2-1.1-0.3-1.6c-0.3,0.1-0.5,0.2-0.8,0.2c-2.7,0.7-5.5,1.1-8.4,1.2c-0.1,0-0.2,0-0.3,0
		c2.5-2.6,5-5.2,7.3-7.8c0.3-0.3,0.6-0.7,0.8-1c-0.8-4.6-1.7-9.2-2.5-13.7c-0.4,0-0.9,0-1.3,0c0.1-0.4,0.3-0.7,0.4-1.1
		c0.2,0,0.4,0,0.7,0c-1.1-6-2.3-11.9-3.4-17.7c-0.4,5.3-1.8,10.5-3.2,15.7c-0.2,0.8-0.5,1.7-0.7,2.5c0.1,0,0.3,0,0.4,0
		c1.4-0.1,2.8-0.2,4.2-0.3c-0.1,0.4-0.3,0.7-0.4,1.1c-1.5,0.1-3.1,0.2-4.6,0.4c-0.7,2.6-1.4,5.2-2.2,7.8c-0.3,1-0.6,1.9-0.9,2.9
		c-0.7,0-1.4,0.1-2,0.2c-1.6,0.3-3,0.8-4.1,1.5c-0.8,0.5-1.6,1-2.3,1.5l0.2,1.4c0.8-0.5,1.7-1,2.6-1.5c0.3-0.1,0.8-0.2,1.3-0.3
		c0.1,0.3,0.4,0.5,0.3,0.6c-0.2,0.5-0.4,1.1-0.8,1.6c-0.9,1.1-1.8,2.3-2.7,3.4l0.2,1.1c1.9-2.1,3.9-4.1,6.1-6
		c-0.2,0.4-0.3,0.9-0.5,1.3c-0.8,2.1-1.7,4.2-2.8,6.3c-0.2,0-0.4,0.1-0.7,0.1c-0.6,0.1-1.2,0.2-1.8,0.2l1.7,9.7
		c2.7-2.4,5.3-4.8,7.8-7.3C619.5,225.8,623.6,224.9,627.6,223.8z"/>
	<path d="M615.2,163.7c0.5,1,1,2,1.5,3c-0.3-1.7-0.7-3.3-1-4.9c-1.4-2.5-2.8-5-4.4-7.5c-2.2-3.4-4.6-6.8-7.8-10
		c-1.1-1.1-2.3-2.2-3.5-3.2c0.3,0.1,0.6,0.2,0.9,0.3c-1.2-1.5-2.5-3-3.9-4.5c-0.3-0.4-0.7-0.7-1-1.1c-0.7-0.3-1.5-0.5-2.2-0.8
		c-1.3-0.5-2.6-0.9-4-1.4l0.7,4c0.5,0.2,0.9,0.4,1.4,0.5c0.9,0.3,1.8,0.7,2.7,1c0.3,0.2,0.5,0.3,0.8,0.5c4.5,2.9,7.8,6.2,10.6,9.7
		C609.8,154,612.7,158.8,615.2,163.7z"/>
	<path d="M348.4,280c-3.8,0.1-7.6,0.3-11.4,0.4l0.4,2C341,281.7,344.7,280.9,348.4,280z"/>
	<path d="M131.5,280.3c-0.2,0.1-0.4,0.1-0.5,0.2c-0.6,0.3-1.2,0.6-1.8,0.8c0.7,0.1,1.4,0.3,2,0.4L131.5,280.3z"/>
	<path d="M418.4,142.4c2.8,1.2,5.5,2.3,8.5,3.4c1.9,0.7,3.9,1.2,6,1.5l0.1-0.7c-2.1-0.4-4.1-0.9-6-1.6c-2.8-1.1-5.5-2.2-8.2-3.3
		c-0.6-0.3-1.2-0.5-1.8-0.8c-0.1,0.3-0.1,0.5-0.2,0.8C417.4,141.9,417.9,142.2,418.4,142.4z"/>
	<path d="M115.7,271.3c-0.1,1.5-0.3,3-0.4,4.4c0.5-0.5,0.9-1,1.3-1.5c0.4-0.5,0.6-1,0.8-1.6C117.6,271.9,116.9,271.5,115.7,271.3z"
		/>
	<path d="M312.1,136.9c2.5,2.4,4.7,4.9,6.9,7.3c0.4,0.4,1,0.8,1.5,1.2v-6.8c-0.4-0.4-0.9-0.9-1.2-1.3c-2.2-2.9-4.4-5.8-6.7-8.7
		c-0.7-0.9-1.3-1.7-1.9-2.6c1.3,0.1,2.6,0.1,4,0.2c0.4,0.1,0.8,0.2,1.2,0.4c4.2,1.3,7.9,3,10.8,5c0.5,0.4,1.1,0.7,1.7,1
		c0.9,0.4,1.9,0.6,3,0.7c-0.5-2.2-0.9-4.3-1.4-6.3c-0.6-0.2-1.1-0.4-1.7-0.6c0.5,0,1,0,1.6,0c-0.1-0.4-0.2-0.7-0.2-1
		c-1.1,0-2.2,0-3.3,0.1c-0.5,0-1,0-1.5,0c-0.4-0.1-0.9-0.2-1.3-0.3c-1.2-0.3-2.4-0.6-3.6-0.8c-2.7,0.4-5.9,0.8-9.7,1.2L312.1,136.9z
		"/>
	<path d="M342,191.4c0,0.2,0.3,0.5,0.5,0.7c0.4,0,0.7,0,1-0.1c-0.3-1.5-0.6-3.1-0.9-4.6c-0.1,0.5-0.2,0.9-0.3,1.4
		C342,189.6,342,190.5,342,191.4z"/>
	<path d="M149.1,141.1c2.3-0.9,4.6-1.8,7-2.6c0,0,0.1,0.1,0.1,0.1l0.8-4.5c-0.6-0.7-1.3-1.4-1.9-2.1c0.8-0.3,1.6-0.6,2.5-1l0.2-0.9
		c-1.1,0.4-2.1,0.8-3.2,1.3c-2.1-2.3-4.2-4.5-6.3-6.8c-2.7-0.3-4.6-0.6-5.6-0.8c-0.1,0.3-0.1,0.5-0.2,0.8c2.7,2.8,5.4,5.6,8.1,8.3
		c-2.3,0.9-4.5,1.8-6.7,2.8c0.1,0.2,0.2,0.5,0.3,0.7c2.3-1,4.7-1.9,7.1-2.9c1.2,1.2,2.4,2.4,3.5,3.5c-0.2,0.1-0.5,0.2-0.7,0.3
		c-0.6,0.2-1.1,0.5-1.7,0.7c-1.6,0.6-3.1,1.3-4.6,2c-2.5-1.9-4.9-3.7-7.4-5.6c-0.2,0.9-0.4,1.8-0.6,2.7c0.1,0.1,0.2,0.1,0.3,0.2
		c-0.1,0.1-0.3,0.1-0.4,0.2c-0.1,0.3-0.1,0.6-0.2,0.9c0.4-0.2,0.9-0.4,1.3-0.6c3.7,2.7,7.2,5.5,10.6,8.3c1.1,0.9,2.1,1.8,3.2,2.7
		l0.6-3.2C153,144.1,151,142.6,149.1,141.1z"/>
	<path d="M599.9,137.1c1.8,1.9,3.5,3.7,5.1,5.6c1.9,0.6,3.9,1.2,5.9,1.8c0.4,0.1,0.9,0.2,1.3,0.4c-1.8-8.6-3.5-16.1-4.8-21.8
		c-1,0.2-2.7,0.5-5.2,0.8c0.1,0.1,0.1,0.2,0.2,0.3c3.3,5.2,6.2,10.6,8.5,15.9c-0.9-0.2-1.7-0.4-2.6-0.6
		C605.4,138.7,602.6,137.9,599.9,137.1z"/>
	<path d="M411.4,168c-0.2,1.1-0.5,2.2-0.7,3.4c1.7,2.3,3.5,4.5,5.3,6.8c0.8,1,1.6,1.9,2.3,2.9c-2-1.1-4-2.1-6-3.2
		c-0.9-0.5-1.7-0.9-2.6-1.4c0,0.2-0.1,0.5-0.1,0.7c3.2,1.6,6.4,3.2,9.5,4.9c0,0,0,0,0.1,0c1.6,2,3.3,4.1,4.8,6.2
		c0.6,0.8,1.1,1.5,1.5,2.3l0.3-1.7c-0.1-0.1-0.1-0.2-0.2-0.3c-1-1.4-2.1-2.7-3.1-4.1c-0.4-0.6-1-1.1-1-2c1,0.6,1.4,1.1,1.9,1.6
		c0.9,1.1,1.9,2.1,2.8,3.2l0.3-1.5c-2.8-3.2-5.6-6.4-8.4-9.6C415.5,173.5,413.4,170.7,411.4,168z"/>
	<path d="M420.8,197.1c1.1,0.3,2.2,0.6,3.4,0.8l0.3-1.6c-0.4,0-0.8,0-1.2-0.1c-1.6-0.2-2.9-0.6-4.2-1c-3.2-1-6-2.3-8.8-3.6
		c-1.1-0.5-2.2-1-3.2-1.5c-0.1,0.4-0.2,0.8-0.2,1.2c1.8,0.8,3.5,1.6,5.3,2.4C414.7,195,417.6,196.2,420.8,197.1z"/>
	<path d="M315,153.9l0.5,2.6c4.2,1.1,8.5,2.2,12.8,3.2c0,0,0,0,0,0c-0.4,1.5-0.5,2.9-0.4,4.5c0.1,2.5,0.3,5,0.7,7.5
		c0.5,3.5,0.6,7-0.2,10.5c-0.3,1.4-0.9,2.8-2,4.1c-0.4,0.5-1,1.1-1.6,1.6c-0.1,0.1-0.2,0.1-0.3,0.2c-1.1,0.6-2.2,0.8-3.4,0.4
		l0.4,2.2c0.8,0.1,1.5-0.1,2.3-0.4c0,0,0,0,0,0c0.9-0.5,1.7-1,2.3-1.6c1.1-1,1.8-2.2,2.3-3.3c1.7-4,1.7-8,1.2-12
		c-0.4-3.2-0.8-6.4-0.8-9.6c0-1.3,0.2-2.5,0.5-3.8c0.2,0.1,0.5,0.1,0.7,0.2c1.9,0.5,3.4,1.1,4.1,2.2h3.3c-0.3-1.3-0.5-2.5-0.8-3.7
		c-0.5-0.1-1.1-0.2-1.6-0.3c-1.6-0.3-3.2-0.6-4.8-0.9c0.9-1.9,2.1-3.7,3.7-5.6c0.3-0.4,0.7-0.8,1.1-1.2c-0.1-0.5-0.2-1-0.3-1.5
		c-0.4,0.4-0.7,0.7-1.1,1.1c-2,2.2-3.5,4.5-4.4,6.9C324.4,156.1,319.7,155,315,153.9z"/>
	<path d="M342,219.5c2.1-0.8,4.1-1.5,6.1-2.3c-0.3-1.9-0.7-3.8-1-5.7c-0.5,0.3-1,0.5-1.5,0.8c-1.4,0.7-2.7,1.5-3.9,2.4
		c-0.7,0.5-1.4,1-1.5,1.6c-0.3,1.2-1.7,2-3.3,2.7c-3.2,1.4-6.4,2.9-9.7,4.3l0.3,1.8c1-0.4,1.9-0.7,2.9-1.1
		C334.2,222.4,338.1,221,342,219.5z"/>
	<path d="M332.2,207.8c0.2-0.2,0.3-0.4-0.2-0.7c-0.4,0.1-1,0.1-1.3,0.3c-1.2,0.5-2.4,1-3.5,1.6c-0.8,0.5-1.6,0.9-2.4,1.4l0.5,3
		c1.7-1.3,3.3-2.6,4.9-3.9C331,209,331.6,208.4,332.2,207.8z"/>
	<path d="M349,222.4c0-0.2-0.1-0.3-0.1-0.5c-3,1.2-6,2.4-9.2,3.5c-3.8,1.3-7.7,2.6-11.6,3.9l0.1,0.5c4.2-1.4,8.3-2.7,12.4-4.2
		C343.5,224.6,346.3,223.5,349,222.4z"/>
	<path d="M419.4,202.4c1.2,0.3,2.5,0.7,3.8,1l0.3-1.6c-1.2-0.3-2.4-0.6-3.5-1c-2.7-0.8-5.3-1.8-7.9-2.6c-2.1-0.7-4.1-1.4-6.3-2
		c-0.2,0.9-0.3,1.7-0.5,2.6c2.1,0.3,4.1,0.6,6,1.2C414,200.8,416.7,201.6,419.4,202.4z"/>
	<path d="M139.1,213.1c1.1,1.4,2.2,2.8,3.3,4.2l1.5-8.8c-1-0.1-2.1-0.3-3.1-0.6c-0.9-0.3-1.9-0.6-2.7-1c-0.2-0.1-0.5-0.2-0.7-0.3
		c2.4,0,4.7-0.2,7-0.5l0.2-1.3c-1.7,0.4-3.5,0.7-5.4,0.8c-1.1,0.1-2.3,0.1-3.4,0.2c-0.4-0.2-0.8-0.4-1.2-0.6c-1-0.5-1.9-1-2.9-1.5
		c0.6,0.7,1.1,1.4,1.7,2.2c-0.2,0-0.4,0-0.7,0c-1.3,0-2.6,0.1-3.9,0.1c-0.1-0.2-0.3-0.4-0.4-0.5c-0.8-1-1.5-1.9-2.3-2.9
		c-0.4,2-0.7,4-1.1,6c0.1,0.1,0.2,0.2,0.2,0.3c0.4,0.5,0.7,1.1,1.1,1.6c-0.1,0-0.2,0-0.3,0c-0.5,0-0.9-0.1-1.4-0.1
		c0,0.1,0,0.3-0.1,0.4c0.1,0,0.2,0,0.3,0c0.6,0,1.2,0,1.7,0.1c1.8,2.5,3.5,5,5.3,7.5c0.6,0.9,1.3,1.7,2.1,2.5c1.6,1.4,3.6,1.7,6.4,1
		c0.2-0.1,0.5-0.2,0.7-0.2c-2.6-3.2-5.1-6.4-7.7-9.7c1.5,0.3,3,0.6,4.4,0.9C138.4,212.9,138.8,213,139.1,213.1z M133.2,211.4
		c-1.3-1.6-2.6-3.2-3.9-4.9c1.5,0,3.1,0,4.6,0c1.6,2,3.1,4,4.7,6c-1.7-0.3-3.3-0.7-5-1C133.5,211.4,133.4,211.4,133.2,211.4z"/>
</g>
</svg>
