<?xml version="1.0" encoding="utf-8"?>
<!-- Generator: Adobe Illustrator 25.3.0, SVG Export Plug-In . SVG Version: 6.00 Build 0)  -->
<svg version="1.1" id="Layer_1" xmlns="http://www.w3.org/2000/svg" xmlns:xlink="http://www.w3.org/1999/xlink" x="0px" y="0px"
	 viewBox="0 0 750.2 400.1" style="enable-background:new 0 0 750.2 400.1;" xml:space="preserve">
<path d="M280.8,100.9c-8-14.5-19.5-30.7-33.7-37.7c-0.4-0.2-0.7-0.4-1.1-0.5c0,0,0,0.1-0.1,0.1c-4.8,6.8-13.3,13-19.3,15.7
	c-5.7,2.5-13.6,4.5-13.7,4.6l-0.5,0.1v-0.1c-3.7,0.9-7.5,1.4-11.1,1.4c-0.4,0-0.7,0-1.1,0c-2.8-0.1-5.6-0.5-8.2-1.1h0.1l-0.5-0.1
	c-0.1,0-7.2-1.4-13.5-4.9c-5.5-3.1-13.8-10.2-19.2-15.6c0,0,0,0,0-0.1c-0.3,0.1-0.6,0.3-0.9,0.4c-14.2,7-25.7,23-33.6,37.5
	l78.7,12.5L280.8,100.9z"/>
</svg>
