<?xml version="1.0" encoding="utf-8"?>
<!-- Generator: Adobe Illustrator 25.2.1, SVG Export Plug-In . SVG Version: 6.00 Build 0)  -->
<svg version="1.1" id="Layer_1" xmlns="http://www.w3.org/2000/svg" xmlns:xlink="http://www.w3.org/1999/xlink" x="0px" y="0px"
	 viewBox="0 0 750.2 400.1" style="enable-background:new 0 0 750.2 400.1;" xml:space="preserve">
<path d="M367.5,83.6l4,1.4L357,152.8l-4.5-1.2L367.5,83.6z M116.7,336.1l0.1,0.2c6.2-46.2,4.8-125.1,1.7-166.2
	c-2.7-35.9-7-40.9-7.7-41.5l-59,11.9l2.4,10.8l49.4-10.2l0.2,0.2c0.3,0.2,7.1,6.3,8.8,42.3c2.7,58.9-2.3,145-2.7,152.5H116.7z
	 M283.4,341.2c-0.3,0.2-34.4,19.2-80.8,19.2c-44.3,0-81.8-19.1-82.2-19.3c-1.4-0.5-2.9-1.9-4.2-4h-6c0.7,1.9,3.1,7.4,6.3,8.5
	c0.5,0.2,39.8,20.2,86.2,20.2c48.6,0,84.3-19.9,84.7-20.1c4-1.4,6.9-6.7,7.8-8.6h-6.6C286.9,339.2,285.1,340.6,283.4,341.2z
	 M294.3,128.6c-0.6,0.5-4.9,5.2-7.7,41.5c-3.1,41.1-4.5,119.8,1.7,166h7.1c-0.4-7.5-5.4-93.6-2.7-152.5c1.7-36,8.5-42.1,8.8-42.3
	l0.2-0.2l49.4,10.2l2.4-10.7L294.3,128.6z M33.9,85l14.4,67.8l4.5-1.2l-15-68L33.9,85z M111,127.6L111,127.6
	c2.5-6.6,19.6-52.1,46.6-65.3c0.2-0.1,0.4-0.2,0.6-0.3c-3.7-4.4-3.8-10.1-3.6-12.8l-115.4,34l12.4,56.4L111,127.6z M639,128.6
	c-0.6,0.5-4.9,5.2-7.7,41.5c-2.8,36.5-4.9,125.4,1.7,175.2c4-2.1,6.7-7.9,7.1-8.7c-0.2-3.8-5.5-92.6-2.7-152.9
	c1.7-36,8.5-42.1,8.8-42.3l0.2-0.2l49.4,10.2l2.4-10.7L639,128.6z M630.3,170c2.4-31.9,6.1-39.8,7.7-41.8
	c-1.7-5.7-18.8-62.7-46.1-76.1c-3.3-1.6-6-3.2-7.9-4.6c-9.2-0.5-23.7-1.2-38.2-1.2c-13.1,0-25.9,0.6-34.9,1.1c-2,1.5-4.7,3-8.1,4.7
	c-27.3,13.4-44.5,70.3-46.1,76.1c1.6,2,5.3,9.9,7.7,41.8c2.8,36.8,5,126.6-1.8,176.3c7.2,3.4,43.2,19.6,84.9,19.6
	c48.6,0,84.3-19.9,84.7-20.1l0,0C625.3,295.9,627.5,206.7,630.3,170z M463.2,170.1c-2.7-35.9-6.9-40.9-7.7-41.5l-59,11.9l2.4,10.8
	l49.4-10.2l0.2,0.2c0.3,0.2,7.1,6.3,8.8,42.3c2.8,60.4-2.5,149.5-2.7,153c0.3,0.9,2.8,7.8,6.5,9.1c0,0,0.2,0.1,0.4,0.2
	C468.2,296.2,466,206.8,463.2,170.1z M378.6,85l14.4,67.8l4.5-1.2l-15-68L378.6,85z M501.1,47.1c6.6-0.5,25.3-1.7,44.6-1.7
	c20.3,0,40.8,1.4,46.5,1.8c-0.1-0.1-0.3-0.2-0.4-0.3c-4.6-3.4-19.3-12.3-46.1-12.3c-26.3,0-40.2,8.6-44.8,12.1l0.1,0.5
	C501,47.1,501.1,47.1,501.1,47.1z M585.8,47.7c1.6,1.1,3.7,2.2,6.4,3.6c27.2,13.3,44.3,68.7,46.5,76.3l0,0l59.5,12l12.4-56.4
	l-118.6-35C590.8,48.1,588.6,47.9,585.8,47.7z M455.7,127.6L455.7,127.6c2.3-7.6,19.4-63,46.6-76.3c2.8-1.4,5-2.6,6.7-3.7
	c-2.2,0.1-4,0.2-5.6,0.4L384,83.2l12.4,56.4L455.7,127.6z M246.6,61.8c0.3,0.2,0.6,0.3,0.9,0.5c27,13.2,44.1,58.7,46.5,65.3l0.1,0
	l0.1,0l59.4,12l12.4-56.4L250.2,49C250.2,51.5,249.7,56.9,246.6,61.8z M712.2,83.6l-15,68l4.5,1.2L716.1,85L712.2,83.6z M192.1,83.4
	l-0.5-0.1c-0.1,0-7.2-1.4-13.5-4.9c-5.5-3.1-13.8-10.2-19.2-15.6c0,0,0,0,0-0.1c-0.3,0.1-0.6,0.3-0.9,0.4
	c-27.2,13.3-44.3,60-46.1,65.1c1.6,2,5.2,10,7.6,41.7c3.1,41.3,4.5,120.7-1.8,166.9c13.8,1.2,43.2,3.4,77.4,3.6c1,0,2.6,0,4.8,0
	l3.5,0l2.1,0c2.2,0,3.8,0,4.8,0c33.9-0.1,63.3-2.3,77.1-3.5c0,0,0,0,0,0c-6.3-46.2-4.9-125.6-1.8-166.9c2.4-31.8,6-39.7,7.6-41.7
	c-1.8-5.1-18.9-51.8-46.1-65.1c-0.4-0.2-0.7-0.4-1.1-0.5c0,0,0,0.1-0.1,0.1c-4.8,6.8-13.3,13-19.3,15.7c-5.7,2.5-13.6,4.5-13.7,4.6
	l-0.5,0.1l0-0.1c-3.7,0.9-7.5,1.4-11.1,1.4c-0.4,0-0.7,0-1.1,0c-2.8-0.1-5.6-0.5-8.2-1.1L192.1,83.4z M200.4,83.5
	c3.9,0.1,7.9-0.4,12-1.4c-0.2-1-0.5-3.1-0.4-5.6c-2.8,0.6-5.6,1-8.2,1.2c-3.5,0.2-7.2-0.3-11-1.2c0.1,2.7-0.3,5-0.5,6
	C194.9,83,197.6,83.4,200.4,83.5z M227.6,57.7c-6.8,4.4-10.4,7.9-10.4,7.9c-5.2,4.7-4.1,14-3.8,16.3c0.4-0.1,1.1-0.3,2-0.5
	c2.8-0.8,7.4-2.2,11-3.8c5.8-2.6,14.2-8.7,18.9-15.4c4.3-6,4-13.3,3.9-14.2c-0.6-0.6-5.7-3.7-9.9-6.2c-0.7-0.4-1.4-0.8-2-1.2
	c0,0.4,0,1.1,0.1,2.5C237.7,46.9,234.4,53.2,227.6,57.7z M199.9,39.4c14.1-0.3,27.3,2.9,35.5,8.3c0.8-1.8,1.1-3.3,1-4.4
	c0-0.4-0.1-0.7-0.1-1c-0.1-1,0-1.6,0-2c-24.3-8.3-46.5-8.2-67.6,0.1c0,0.3,0.1,0.8,0,1.5c0,0.4-0.1,0.8-0.1,1.3
	c-0.1,1.1,0.2,2.7,1,4.5C176.5,42.7,187.2,39.7,199.9,39.4z M178.6,77.5c4,2.3,8.3,3.6,10.9,4.3c0.8,0.2,1.4,0.4,1.8,0.4
	c0.4-2.2,1.7-11.9-3.5-16.7c0,0-3.6-3.5-10.5-7.9c-6.9-4.5-10.2-10.8-9.8-14.5c0.2-1.4,0.1-2.2,0.1-2.5c-0.6,0.4-1.3,0.7-1.9,1.1
	c-4.2,2.5-9.3,5.6-10,6.2c-0.1,0.7-1.5,8.7,3.8,14.1C164.9,67.4,173.1,74.5,178.6,77.5z M116.7,336.1l0.1,0.2
	c6.2-46.2,4.8-125.1,1.7-166.2c-2.7-35.9-7-40.9-7.7-41.5l-59,11.9l2.4,10.8l49.4-10.2l0.2,0.2c0.3,0.2,7.1,6.3,8.8,42.3
	c2.7,58.9-2.3,145-2.7,152.5H116.7z M283.4,341.2c-0.3,0.2-34.4,19.2-80.8,19.2c-44.3,0-81.8-19.1-82.2-19.3c-1.4-0.5-2.9-1.9-4.2-4
	h-6c0.7,1.9,3.1,7.4,6.3,8.5c0.5,0.2,39.8,20.2,86.2,20.2c48.6,0,84.3-19.9,84.7-20.1c4-1.4,6.9-6.7,7.8-8.6h-6.6
	C286.9,339.2,285.1,340.6,283.4,341.2z M294.3,128.6c-0.6,0.5-4.9,5.2-7.7,41.5c-3.1,41.1-4.5,119.8,1.7,166h7.1
	c-0.4-7.5-5.4-93.6-2.7-152.5c1.7-36,8.5-42.1,8.8-42.3l0.2-0.2l49.4,10.2l2.4-10.7L294.3,128.6z M33.9,85l14.4,67.8l4.5-1.2l-15-68
	L33.9,85z M111,127.6L111,127.6c2.5-6.6,19.6-52.1,46.6-65.3c0.2-0.1,0.4-0.2,0.6-0.3c-3.7-4.4-3.8-10.1-3.6-12.8l-115.4,34
	l12.4,56.4L111,127.6z M639,128.6c-0.6,0.5-4.9,5.2-7.7,41.5c-2.8,36.5-4.9,125.4,1.7,175.2c4-2.1,6.7-7.9,7.1-8.7
	c-0.2-3.8-5.5-92.6-2.7-152.9c1.7-36,8.5-42.1,8.8-42.3l0.2-0.2l49.4,10.2l2.4-10.7L639,128.6z M630.3,170
	c2.4-31.9,6.1-39.8,7.7-41.8c-1.7-5.7-18.8-62.7-46.1-76.1c-3.3-1.6-6-3.2-7.9-4.6c-9.2-0.5-23.7-1.2-38.2-1.2
	c-13.1,0-25.9,0.6-34.9,1.1c-2,1.5-4.7,3-8.1,4.7c-27.3,13.4-44.5,70.3-46.1,76.1c1.6,2,5.3,9.9,7.7,41.8
	c2.8,36.8,5,126.6-1.8,176.3c7.2,3.4,43.2,19.6,84.9,19.6c48.6,0,84.3-19.9,84.7-20.1l0,0C625.3,295.9,627.5,206.7,630.3,170z
	 M463.2,170.1c-2.7-35.9-6.9-40.9-7.7-41.5l-59,11.9l2.4,10.8l49.4-10.2l0.2,0.2c0.3,0.2,7.1,6.3,8.8,42.3
	c2.8,60.4-2.5,149.5-2.7,153c0.3,0.9,2.8,7.8,6.5,9.1c0,0,0.2,0.1,0.4,0.2C468.2,296.2,466,206.8,463.2,170.1z M378.6,85l14.4,67.8
	l4.5-1.2l-15-68L378.6,85z M501.1,47.1c6.6-0.5,25.3-1.7,44.6-1.7c20.3,0,40.8,1.4,46.5,1.8c-0.1-0.1-0.3-0.2-0.4-0.3
	c-4.6-3.4-19.3-12.3-46.1-12.3c-26.3,0-40.2,8.6-44.8,12.1l0.1,0.5C501,47.1,501.1,47.1,501.1,47.1z M585.8,47.7
	c1.6,1.1,3.7,2.2,6.4,3.6c27.2,13.3,44.3,68.7,46.5,76.3l0,0l59.5,12l12.4-56.4l-118.6-35C590.8,48.1,588.6,47.9,585.8,47.7z
	 M455.7,127.6L455.7,127.6c2.3-7.6,19.4-63,46.6-76.3c2.8-1.4,5-2.6,6.7-3.7c-2.2,0.1-4,0.2-5.6,0.4L384,83.2l12.4,56.4L455.7,127.6
	z M246.6,61.8c0.3,0.2,0.6,0.3,0.9,0.5c27,13.2,44.1,58.7,46.5,65.3l0.1,0l0.1,0l59.4,12l12.4-56.4L250.2,49
	C250.2,51.5,249.7,56.9,246.6,61.8z M712.2,83.6l-15,68l4.5,1.2L716.1,85L712.2,83.6z M192.1,83.4l-0.5-0.1c-0.1,0-7.2-1.4-13.5-4.9
	c-5.5-3.1-13.8-10.2-19.2-15.6c0,0,0,0,0-0.1c-0.3,0.1-0.6,0.3-0.9,0.4c-27.2,13.3-44.3,60-46.1,65.1c1.6,2,5.2,10,7.6,41.7
	c3.1,41.3,4.5,120.7-1.8,166.9c13.8,1.2,43.2,3.4,77.4,3.6c1,0,2.6,0,4.8,0l3.5,0l2.1,0c2.2,0,3.8,0,4.8,0
	c33.9-0.1,63.3-2.3,77.1-3.5c0,0,0,0,0,0c-6.3-46.2-4.9-125.6-1.8-166.9c2.4-31.8,6-39.7,7.6-41.7c-1.8-5.1-18.9-51.8-46.1-65.1
	c-0.4-0.2-0.7-0.4-1.1-0.5c0,0,0,0.1-0.1,0.1c-4.8,6.8-13.3,13-19.3,15.7c-5.7,2.5-13.6,4.5-13.7,4.6l-0.5,0.1l0-0.1
	c-3.7,0.9-7.5,1.4-11.1,1.4c-0.4,0-0.7,0-1.1,0c-2.8-0.1-5.6-0.5-8.2-1.1L192.1,83.4z M200.4,83.5c3.9,0.1,7.9-0.4,12-1.4
	c-0.2-1-0.5-3.1-0.4-5.6c-2.8,0.6-5.6,1-8.2,1.2c-3.5,0.2-7.2-0.3-11-1.2c0.1,2.7-0.3,5-0.5,6C194.9,83,197.6,83.4,200.4,83.5z
	 M227.6,57.7c-6.8,4.4-10.4,7.9-10.4,7.9c-5.2,4.7-4.1,14-3.8,16.3c0.4-0.1,1.1-0.3,2-0.5c2.8-0.8,7.4-2.2,11-3.8
	c5.8-2.6,14.2-8.7,18.9-15.4c4.3-6,4-13.3,3.9-14.2c-0.6-0.6-5.7-3.7-9.9-6.2c-0.7-0.4-1.4-0.8-2-1.2c0,0.4,0,1.1,0.1,2.5
	C237.7,46.9,234.4,53.2,227.6,57.7z M199.9,39.4c14.1-0.3,27.3,2.9,35.5,8.3c0.8-1.8,1.1-3.3,1-4.4c0-0.4-0.1-0.7-0.1-1
	c-0.1-1,0-1.6,0-2c-24.3-8.3-46.5-8.2-67.6,0.1c0,0.3,0.1,0.8,0,1.5c0,0.4-0.1,0.8-0.1,1.3c-0.1,1.1,0.2,2.7,1,4.5
	C176.5,42.7,187.2,39.7,199.9,39.4z M178.6,77.5c4,2.3,8.3,3.6,10.9,4.3c0.8,0.2,1.4,0.4,1.8,0.4c0.4-2.2,1.7-11.9-3.5-16.7
	c0,0-3.6-3.5-10.5-7.9c-6.9-4.5-10.2-10.8-9.8-14.5c0.2-1.4,0.1-2.2,0.1-2.5c-0.6,0.4-1.3,0.7-1.9,1.1c-4.2,2.5-9.3,5.6-10,6.2
	c-0.1,0.7-1.5,8.7,3.8,14.1C164.9,67.4,173.1,74.5,178.6,77.5z"/>
</svg>
