<?xml version="1.0" encoding="utf-8"?>
<!-- Generator: Adobe Illustrator 25.3.0, SVG Export Plug-In . SVG Version: 6.00 Build 0)  -->
<svg version="1.1" id="Layer_1" xmlns="http://www.w3.org/2000/svg" xmlns:xlink="http://www.w3.org/1999/xlink" x="0px" y="0px"
	 viewBox="0 0 750.2 400.1" style="enable-background:new 0 0 750.2 400.1;" xml:space="preserve">
<style type="text/css">
	.st0{fill:none;}
</style>
<g>
	<polygon class="st0" points="337.6,274.8 345.6,267.8 338.1,266.4 	"/>
	<polygon class="st0" points="343.3,240.5 343.5,240.5 343.4,240.4 	"/>
	<polygon class="st0" points="339.9,207.7 332.4,203.4 331.3,206.4 	"/>
	<polygon class="st0" points="146.9,155.6 143.2,162.5 150,162.5 	"/>
	<polygon class="st0" points="616,188.3 605.8,209 608.2,209 616,193.1 	"/>
	<polygon class="st0" points="338.5,202.6 334.8,197.1 333.8,199.9 	"/>
	<path d="M396.7,248.9c-0.7,4.9-1.3,9.6-1.8,14l0.4,3.2l-0.7-0.4c-0.1,1.4-0.3,2.7-0.4,4l5.8,3.3L396.7,248.9z"/>
	<polygon points="345.6,267.8 349.1,264.7 338.4,262.8 338.1,266.4 	"/>
	<polygon points="341,242.7 338.7,242 331.6,248.9 331.6,249.1 333.8,249.8 	"/>
	<path d="M350.4,230.6l-4.2,4.1l4.4-2.3C350.6,231.7,350.5,231.1,350.4,230.6z"/>
	<polygon points="339.3,220.2 328.4,230.8 328.9,233.4 343.9,218.7 327.5,216.3 326.7,218.4 	"/>
	<path d="M343.3,240.5L343.3,240.5l0.2,0.1l7.9,2.5l-0.1,2l1.5,0.9c-0.2-1.5-0.5-3.1-0.7-4.6l-6-3.5l1.4-1.4l-6.4,3.4L343.3,240.5z"
		/>
	<polygon points="316.9,164.5 318.2,171.8 319.4,173.6 320.7,170.3 	"/>
	<polygon points="322.4,172.9 321.1,176.2 333.1,194.5 334.4,191.1 	"/>
	<polygon points="324,205.4 324.4,207.6 327.9,208.1 328.7,206 	"/>
	<path d="M346.8,210l-10.7-16.2l-1.3,3.4l3.6,5.5l-4.7-2.7l-1.3,3.5l7.5,4.3l-8.6-1.3l-0.8,2.1l13.1,1.9l3.3,5l0.6-1.6
		C347.3,212.5,347,211.2,346.8,210z"/>
	<polygon points="321.9,193.1 322.7,197.8 330.2,202.1 331.5,198.6 	"/>
	<polygon points="333.9,261.9 334.5,265.8 335.3,265.9 335.5,262.2 	"/>
	<path d="M351,268.8l-13.7,12.4l0.2,1.2c1.7-0.4,3.4-0.7,5.2-1.1l13.2-11.9c-0.1-1.1-0.2-2.3-0.4-3.5l-3.6-0.7l-3.5,3.1L351,268.8z"
		/>
	<path d="M316.2,124.9c-1,0.1-2.1,0.3-3.2,0.4l3.7,5.6l1.3-3.4L316.2,124.9z"/>
	<path d="M337.5,162.5c-0.6-2.7-1.1-5.3-1.6-7.8l-4.1-6.2l-1.3,3.4L337.5,162.5z"/>
	<polygon points="319.7,130.1 318.4,133.4 328.8,149.2 330,145.9 	"/>
	<polygon points="150,162.5 151.7,162.5 151.7,163.9 152,162.6 151.9,162.6 151.9,157.6 147.3,147.3 139,162.5 143.2,162.5 
		146.9,155.6 	"/>
	<path d="M143.9,209H140l-21.6,39.9c-0.3,2.1-0.6,4.3-0.9,6.3h1.6l24.6-45.4L143.9,209z"/>
	<path d="M131.4,281l-0.4,0.8c0.1,0,0.2,0,0.3,0.1L131.4,281z"/>
	<path d="M133.3,269.6l2.5-14.4h-16.7l-2.1,3.9c-0.9,7-1.5,13.4-1.8,18.9c4.1,1,8.1,2,12,2.9L133.3,269.6z"/>
	<path d="M157.6,129.9l-2-4.4c-1.4-0.2-2.6-0.3-3.8-0.4v32.5l0.7,1.6L157.6,129.9z"/>
	<path d="M131.2,176.9l7.8-14.4h-4.8C133.2,167.1,132.2,171.9,131.2,176.9z"/>
	<path d="M145.5,199.7l5.9-34.1l-1.4-3.1h-6.9L128.8,189c-1.3,6.6-2.6,13.3-3.8,20h15l5.3-9.7L145.5,199.7z"/>
	<path d="M615.6,161.5c-0.1-0.7-0.3-1.4-0.4-2.1l-1.5,3.1h2V161.5z"/>
	<path d="M620.3,184.4c-0.2-1.2-0.5-2.3-0.7-3.5l-3.6,7.3v4.9L620.3,184.4z"/>
	<polygon points="603.7,213.2 604.3,216.8 608.2,209 605.8,209 	"/>
	<polygon points="613.7,244.3 608.2,238.8 608.8,242.5 609.9,243.6 609,243.4 609.6,247.2 615.6,248.3 615.6,244.6 	"/>
	<polygon points="615.6,234.9 607.7,236 608.1,238.1 615.6,237 615.6,234.7 	"/>
	<path d="M611.2,140.6l-3.9,8l-13.7,6.5l0.7,3.8l10.4-5l-4.2,8.5h2.4l9.1-18.5C611.7,142.9,611.4,141.7,611.2,140.6z"/>
	<path d="M588.5,125.6l0.1,0.6l0.1-0.7C588.6,125.6,588.5,125.6,588.5,125.6z"/>
	<path d="M634.2,269.7c-0.1-1.2-0.2-2.5-0.4-3.8l-17.8-3.3v3.7L634.2,269.7z"/>
	<path d="M322,124.1c-0.9,0.1-1.8,0.3-2.9,0.4l-1.1,3l-1.3,3.4l-3.9,10.1l0.8,4.9l4.7-12.3l1.3-3.4L322,124.1z"/>
	<path d="M436.7,125.8c0,0-0.1,0-0.1,0L436.7,125.8L436.7,125.8z"/>
	<path d="M431.3,156.9l-15.6,4.5l4.4-20.8l-2.4-2.5c-1.7,7.8-3.6,16.9-5.7,26.7l18.8-5.4L431.3,156.9z"/>
	<path d="M330.5,151.8l1.3-3.4l1.8-4.7c-0.3-1.5-0.7-3.1-1-4.5l-2.5,6.6l-1.3,3.4l-8.1,21l-1.3,3.4l-0.6,1.6l0.8,4.9l1.5-3.9
		l1.3-3.4L330.5,151.8z"/>
	<polygon points="415.8,234.1 417.2,237.6 418.5,230.6 	"/>
	<path d="M409.7,176.2c-0.2,0.8-0.3,1.7-0.5,2.5l19.3-5.5l0.4-2.5L409.7,176.2z"/>
	<path d="M354.7,259.9l-5.6,4.9l-3.5,3.1l-8,6.9l0.5-8.3l0.2-3.7l0.7-11.3l-5.3-1.7l-2.2-0.7l0.6,3.2l3.9,1.2l-0.6,8.7l-0.2,3.7
		l-0.2,3.1l1.6,9.3l11.6-10.1l3.5-3.1l3.2-2.8C354.9,261.6,354.8,260.7,354.7,259.9z"/>
	<path d="M348.4,218.6c-0.3-1.6-0.6-3.2-0.9-4.8l-0.6,1.6l-5.2,13.4l-12.5,6.6l0.4,2.2l14.3-7.6L348.4,218.6z"/>
	<path d="M422.9,204.9l0.8-4.9l-24.5,32.2c-0.3,1.7-0.6,3.5-0.8,5.2l13.2,32.3l1-5.9l-12.1-29.6L422.9,204.9z"/>
	<path d="M356.5,278c0-0.1,0-0.3,0-0.4l-0.7,0.6C356,278.1,356.2,278.1,356.5,278z"/>
	<path d="M406.1,194.4l19.6-5.6l0.4-2.5l-19.6,5.6C406.4,192.8,406.3,193.6,406.1,194.4z"/>
	<path d="M332.4,203.4l1.3-3.5l1.1-2.8l1.3-3.4l5.1-13.1c-0.3-1.6-0.6-3.1-0.9-4.7l-5.8,15.2l-1.3,3.4l-1.6,4.1l-1.3,3.5l-1.5,3.9
		l-0.8,2.1l-2.3,6.1l0.8,4.9l0.3-0.7l0.8-2.1l3-7.8l0.8-2.1L332.4,203.4z"/>
	<path d="M393.7,275.1c-0.1,0.9-0.1,1.7-0.2,2.5l16.7,0.1l0.4-2.5L393.7,275.1z"/>
	<path d="M348.4,245.1l-0.9,14.4l6.4-5.6c-0.1-0.8-0.2-1.7-0.4-2.6l-2.9,2.5l0.6-8.8l0.1-2l-7.9-2.5l-0.2-0.1l-2.2-0.7l6.4-3.4
		l3.6-1.9c-0.1-0.7-0.2-1.5-0.4-2.3l-4.4,2.3l-11.6,6.1l4,1.3l2.3,0.7L348.4,245.1z"/>
	<polygon points="596.3,170.8 600.4,162.5 594.9,162.5 	"/>
	<path d="M628.1,244.9l2.5-2.5c-0.2-1.6-0.5-3.3-0.8-5l-4.4-0.6l-4.2-8.6l-4.2,8.6l-1.4,0.2v7.6l12.8,2.4L628.1,244.9z"/>
	<path d="M630.7,247.4l0.7,0.1c-0.1-0.8-0.2-1.6-0.4-2.5l-0.6,0.6L630.7,247.4z"/>
	<path d="M626.9,234.9l2.6,0.4c-0.4-2.7-0.9-5.5-1.4-8.3l-6.9-14l-5.6,11.4v10.4l5.6-11.4L626.9,234.9z"/>
	<path d="M624.9,208.8h-3.3l5.2,10.6C626.2,215.9,625.6,212.4,624.9,208.8z"/>
	<polygon points="608.2,209 615.6,209 615.6,219.5 620.9,208.8 616,208.8 616,193.1 	"/>
	<polygon points="602.8,162.5 597,174.4 599.8,190.6 613.7,162.5 	"/>
	<path d="M616,163.3c0-0.2-0.1-0.3-0.1-0.5l-15.5,31.4L603,209h2.8l10.2-20.7V163.3z"/>
	<path d="M632.5,255.3c-0.2-1.3-0.4-2.6-0.5-4l-16.3-3v6.8H611l1.2,6.7l3.8,0.7v-7.3H632.5z"/>
	<path d="M615.8,282.4c0.1,0,0.2,0,0.2,0v-16l-3.1-0.6L615.8,282.4z"/>
</g>
</svg>
