<?xml version="1.0" encoding="utf-8"?>
<!-- Generator: Adobe Illustrator 25.3.0, SVG Export Plug-In . SVG Version: 6.00 Build 0)  -->
<svg version="1.1" id="Layer_1" xmlns="http://www.w3.org/2000/svg" xmlns:xlink="http://www.w3.org/1999/xlink" x="0px" y="0px"
	 viewBox="0 0 750.2000122 400.1000061" style="enable-background:new 0 0 750.2000122 400.1000061;" xml:space="preserve">
<g>
	<path d="M132.8638916,183.322052l-12.8687744-6.9053345c0.4935303,7.557373,0.9314575,16.0736694,1.2828979,25.2530518
		l11.5858765,6.2169189V183.322052z"/>
	<path d="M132.8638916,226.5219421l-11.0117188-5.9088745c0.18396,8.036499,0.3004761,16.3387451,0.3307495,24.7421875
		l10.6809692,5.7313843V226.5219421z"/>
	<path d="M132.8638916,284.6512756v-14.0823364l-10.7696533-5.7789307
		c-0.1054077,8.1846313-0.3027954,16.3158569-0.6038818,24.2405396l11.3735352,6.1030273V284.6512756z"/>
	<path d="M132.8638916,337.5393982v-23.7705688l-12.2787476-6.5887451
		c-0.5275879,8.3331909-1.2017212,16.2245483-2.0360718,23.4721069l12.7390747,6.8357544
		C131.8154297,337.5050964,132.3296509,337.5221863,132.8638916,337.5393982z"/>
	<path d="M272.7444458,207.8866882l11.1392822-5.977356c0.3493042-9.1720581,0.7850952-17.6861572,1.2764282-25.2495117
		l-12.4157104,6.6622314V207.8866882z"/>
	<path d="M272.7444458,226.5219421v24.5646973l10.2422485-5.4959717c0.0287476-8.4009399,0.1442261-16.7020874,0.3267822-24.7400513
		L272.7444458,226.5219421z"/>
	<path d="M283.079834,265.0229797l-10.3353882,5.5459595v14.0823364v10.4822998l10.9446411-5.8728638
		C283.3859863,281.3388367,283.1869507,273.2082214,283.079834,265.0229797z"/>
	<path d="M284.5991821,307.4075623l-11.8547363,6.3612671v23.7705688c0.5341797-0.0172119,1.0484619-0.0343018,1.5756836-0.0514526
		l12.3269043-6.614624C285.8083496,323.6313171,285.1300049,315.7422791,284.5991821,307.4075623z"/>
	<path d="M477.6160889,184.322113l-12.8772583-6.9099121c0.4484253,7.2162476,0.8657227,15.7706909,1.2127075,25.215332
		l11.6645508,6.2592163V184.322113z"/>
	<path d="M477.6160889,227.5220032l-11.0998535-5.9561768c0.1848145,7.961853,0.3134155,16.2802124,0.368042,24.762207
		l10.7318115,5.758667V227.5220032z"/>
	<path d="M477.6160889,285.6513367v-14.0823364l-10.7424316-5.7644043
		c-0.06427,8.1557007-0.2078857,16.3197632-0.4443359,24.3262329l11.1867676,6.0028076V285.6513367z"/>
	<path d="M477.6160889,338.5394592v-23.7705688l-11.9122314-6.3920898
		c-0.423584,8.3033447-0.9715576,16.2639771-1.6622925,23.6726074l11.9988403,6.4385986
		C476.567627,338.5051575,477.0819092,338.5222473,477.6160889,338.5394592z"/>
	<path d="M614.7160645,208.8867493l13.9067993-7.4623413c0.3580933-9.5048218,0.7869873-18.067688,1.2454224-25.2329712
		l-15.1522217,8.1306763V208.8867493z"/>
	<path d="M614.7160645,227.5220032v24.5646973l12.9375-6.9422607c0.0616455-8.4959106,0.1966553-16.8198853,0.3876953-24.7727051
		L614.7160645,227.5220032z"/>
	<path d="M627.6477661,264.6298523l-12.9317017,6.9391479v14.0823364v10.4822998l13.350769-7.1640015
		C627.8394775,280.9502869,627.7045288,272.7822571,627.6477661,264.6298523z"/>
	<path d="M614.7160645,314.7688904v23.7705688c0.5342407-0.0172119,1.0484619-0.0343018,1.5757446-0.0514526l14.0917969-7.5616455
		c-0.6732788-7.4303589-1.204895-15.4013672-1.6152954-23.697876L614.7160645,314.7688904z"/>
</g>
</svg>
