<?xml version="1.0" encoding="utf-8"?>
<!-- Generator: Adobe Illustrator 25.3.0, SVG Export Plug-In . SVG Version: 6.00 Build 0)  -->
<svg version="1.1" id="Layer_1" xmlns="http://www.w3.org/2000/svg" xmlns:xlink="http://www.w3.org/1999/xlink" x="0px" y="0px"
	 viewBox="0 0 750.2000122 400.1000061" style="enable-background:new 0 0 750.2000122 400.1000061;" xml:space="preserve">
<path d="M120.9768066,300.3825378h163.2171021c-0.0673218-1.2722778-0.1342163-2.545105-0.1954346-3.8328247H121.1722412
	C121.1110229,297.8374329,121.0441284,299.110321,120.9768066,300.3825378z"/>
<path d="M283.1201782,231.1899109H122.0508423c0.0187378,1.2748413,0.0374146,2.5492554,0.0524902,3.8327637H283.067627
	C283.0827026,233.7391663,283.1014404,232.4647522,283.1201782,231.1899109z"/>
<path d="M291.6343384,106.5282288c-0.1055908-1.2438354-0.2181396-2.5186768-0.3380737-3.8198853H113.0908813
	c-0.119751,1.2997437-0.2335815,2.5773926-0.3389893,3.8198853H291.6343384z"/>
<path d="M117.8607178,152.6280823c0.1507568,1.2120972,0.2996216,2.4873657,0.4467163,3.8198853H286.862854
	c0.1469116-1.3317871,0.2957153-2.6083984,0.4463501-3.8198853H117.8607178z"/>
<path d="M292.9000244,109.3000183l10.2999878-44.7000122l-2.4000244-0.7000122l-8.5999756,37.2999878
	C292.5,104.0000305,292.7000122,106.6999817,292.9000244,109.3000183z"/>
<polygon points="321.3999634,133.1000061 323.7999878,133.6000061 337.3999634,74.6999817 335,74.0000305 "/>
<path d="M112.2000122,102.0000305c0.1999512-2.5,0.5-5.1000366,0.7999878-7.7000122l-7.0999756-30.7999878L103.5,64.1999817
	L112.2000122,102.0000305z"/>
<polygon points="82.7999878,133.3000183 85.2999878,132.8999939 71.5999756,73.6000061 69.2000122,74.3999939 "/>
<path d="M457.0999756,101.1999817L448.5,64.1000061l-2.4000244,0.7000122l10.2999878,44.5
	C456.5999756,106.8000183,456.7999878,104.0000305,457.0999756,101.1999817z"/>
<polygon points="411.7999878,75.0000305 425.3999634,133.8000183 427.8999634,133.3000183 414.2000122,74.1999817 "/>
<path d="M644.7000122,63.6999817l-2.2999878-0.6999512l-6.5999756,28.3999634
	c0.2999878,2.6000366,0.5999756,5.1000366,0.7999878,7.5L644.7000122,63.6999817z"/>
<polygon points="676.5999756,73.1000061 662.9000244,132.5000305 665.2999878,133.0000305 679,73.8000183 "/>
</svg>
