<?xml version="1.0" encoding="utf-8"?>
<!-- Generator: Adobe Illustrator 25.3.0, SVG Export Plug-In . SVG Version: 6.00 Build 0)  -->
<svg version="1.1" id="Layer_1" xmlns="http://www.w3.org/2000/svg" xmlns:xlink="http://www.w3.org/1999/xlink" x="0px" y="0px"
	 viewBox="0 0 750.2 400.1" style="enable-background:new 0 0 750.2 400.1;" xml:space="preserve">
<g>
	<path d="M613.7,352.4l0.6,1.3c1-0.4,2-0.8,3-1.1l-0.6-1.4L613.7,352.4z"/>
	<path d="M627.7,339.6l1.1,2.4l2.8-1.2c-0.1-0.9-0.2-1.8-0.3-2.7L627.7,339.6z"/>
	<path d="M629.3,315.1l-0.7,0.3l0.9,2C629.4,316.7,629.3,315.9,629.3,315.1z"/>
	<path d="M620.4,329.5l9.6-4.2l-1.1-2.4l-12.5,5.4l9,20.7c1.1-0.5,2-0.9,2.9-1.3L620.4,329.5z"/>
	<path d="M526.8,359.7l2.2,5.2c1.2,0.1,2.4,0.2,3.6,0.4l-2.9-6.8L526.8,359.7z"/>
	<polygon points="610.7,323.2 607.8,324.5 616.5,344.5 607,348.6 608,351 620.5,345.6 	"/>
	<path d="M609.3,334.4l-1.1-2.4l-12.5,5.4l8.6,19.7c1-0.3,2-0.6,3-1l-7.6-17.6L609.3,334.4z"/>
	<polygon points="596.3,353.3 586.7,357.4 587.7,359.9 600.2,354.4 590.5,332 587.6,333.3 	"/>
	<path d="M589,343.2l-1.1-2.4l-12.5,5.4l7.1,16.3c1.1-0.2,2.1-0.4,3.2-0.6l-6.3-14.5L589,343.2z"/>
	<path d="M567.4,342.1l8.7,20l-5.4,2.4c3.2-0.4,6.3-0.9,9.3-1.4l-9.7-22.2L567.4,342.1z"/>
	<path d="M559.3,356.1l9.6-4.2l-1.1-2.4l-12.5,5.4l4.6,10.5c1.1-0.1,2.2-0.2,3.3-0.3L559.3,356.1z"/>
	<path d="M547.1,350.9l6.5,14.9c1.1,0,2.3-0.1,3.4-0.1l-7-16L547.1,350.9z"/>
	<path d="M539,364.9l9.6-4.2l-1.1-2.4l-12.5,5.4l0.7,1.7c1.2,0.1,2.3,0.1,3.5,0.2L539,364.9z"/>
	<path d="M628.9,308.6l-7,3.1l1.1,2.4l6.1-2.7C629,310.5,629,309.5,628.9,308.6z"/>
	<path d="M622.7,287.5l5.8,13.3c-0.1-2.9-0.2-5.8-0.3-8.7l-2.6-5.9L622.7,287.5z"/>
	<polygon points="623.3,321.6 614.6,301.6 624.2,297.4 623.2,295 610.7,300.4 620.4,322.8 	"/>
	<polygon points="521,331.8 529.7,351.8 520.1,355.9 521.1,358.4 533.6,352.9 523.9,330.5 	"/>
	<path d="M512.9,345.8l9.6-4.2l-1.1-2.4l-12.5,5.4l8.1,18.5c1.2,0.2,2.5,0.4,3.7,0.6L512.9,345.8z"/>
	<path d="M503.6,339.3l-2.9,1.3l8.7,20l-1.8,0.8c1.5,0.3,3,0.6,4.5,0.9l1.3-0.6L503.6,339.3z"/>
	<path d="M492.6,354.7l9.6-4.2l-1.1-2.4l-12.5,5.4l1.4,3.3c1.3,0.4,2.6,0.8,4,1.2L492.6,354.7z"/>
	<path d="M480.5,349.4l2.2,5c1.3,0.4,2.6,0.9,4,1.3l-3.3-7.6L480.5,349.4z"/>
	<polygon points="604.9,295.3 602,296.5 610.7,316.5 601.1,320.7 602.2,323.1 614.7,317.7 	"/>
	<polygon points="602.6,330.6 593.9,310.6 603.5,306.4 602.5,304 590,309.4 599.7,331.8 	"/>
	<polygon points="581.8,305.3 590.5,325.3 580.9,329.5 581.9,331.9 594.4,326.5 584.7,304.1 	"/>
	<polygon points="582.4,339.4 573.7,319.4 583.2,315.2 582.2,312.8 569.7,318.2 579.5,340.7 	"/>
	<polygon points="564.5,312.8 561.6,314.1 570.3,334.1 560.7,338.3 561.8,340.7 574.2,335.3 	"/>
	<polygon points="562.2,348.2 553.5,328.2 563.1,324 562,321.6 549.5,327 559.3,349.4 	"/>
	<polygon points="544.2,321.7 541.3,322.9 550,342.9 540.4,347.1 541.5,349.5 554,344.1 	"/>
	<polygon points="541.9,357 533.2,337 542.8,332.8 541.7,330.4 529.3,335.8 539,358.2 	"/>
	<path d="M625,263.7l2.7,6.3c0-2.5-0.1-5-0.1-7.5L625,263.7z"/>
	<path d="M627.8,276.9l-8.1-18.6l-2.9,1.3l8.7,20l-9.6,4.2l1.1,2.4l10.9-4.7C627.9,279.9,627.8,278.4,627.8,276.9z"/>
	<polygon points="617.4,293.7 608.7,273.7 618.3,269.5 617.3,267.1 604.8,272.5 614.5,294.9 	"/>
	<polygon points="599.5,267.1 596.6,268.4 605.3,288.4 595.7,292.6 596.8,295 609.2,289.6 	"/>
	<polygon points="597.2,302.5 588.5,282.5 598.1,278.3 597,275.9 584.5,281.3 594.3,303.7 	"/>
	<polygon points="497.7,311.4 494.8,312.7 503.5,332.7 493.9,336.8 495,339.3 507.5,333.8 	"/>
	<polygon points="495.4,346.7 486.7,326.7 496.3,322.6 495.2,320.2 482.8,325.6 492.5,348 	"/>
	<polygon points="474.5,321.5 483.2,341.5 473.7,345.6 474.7,348.1 487.2,342.6 477.4,320.2 	"/>
	<path d="M466.4,335.6l9.6-4.2L475,329l-10.9,4.7c-0.1,1.2-0.2,2.3-0.4,3.5l5.2,11.9c1.3,0.5,2.6,1.1,4.2,1.7L466.4,335.6z"/>
	<path d="M463.1,342.4c-0.2,1.3-0.3,2.6-0.5,3.9c0.7,0.3,1.6,0.7,2.7,1.3L463.1,342.4z"/>
	<polygon points="578.8,276.2 575.9,277.4 584.6,297.4 575,301.6 576,304 588.5,298.6 	"/>
	<polygon points="576.5,311.5 567.8,291.5 577.3,287.3 576.3,284.9 563.8,290.3 573.6,312.7 	"/>
	<polygon points="558.5,285 555.6,286.2 564.3,306.2 554.7,310.4 555.8,312.8 568.3,307.4 	"/>
	<polygon points="556.2,320.3 547.5,300.3 557.1,296.1 556,293.7 543.5,299.1 553.3,321.6 	"/>
	<polygon points="538.3,293.7 535.4,295 544.1,315 534.5,319.2 535.6,321.6 548.1,316.2 	"/>
	<polygon points="536,329.1 527.3,309.1 536.9,304.9 535.8,302.5 523.4,307.9 533.1,330.3 	"/>
	<polygon points="518.1,302.6 515.2,303.8 523.9,323.8 514.3,328 515.3,330.4 527.8,325 	"/>
	<polygon points="515.7,337.9 507.1,317.9 516.6,313.7 515.6,311.3 503.1,316.7 512.9,339.1 	"/>
	<path d="M627.6,247l-4.4-10.1l4.5-2c0-1,0-1.9,0-2.9l-8.5,3.7l8.3,19.1C627.6,252.2,627.6,249.6,627.6,247z"/>
	<polygon points="614,230.4 611.1,231.6 619.8,251.6 610.2,255.8 611.3,258.2 623.7,252.8 	"/>
	<polygon points="611.7,265.7 603,245.7 612.6,241.5 611.5,239.1 599,244.5 608.8,266.9 	"/>
	<polygon points="512.2,274.6 509.3,275.9 518,295.9 508.4,300 509.5,302.5 522,297 	"/>
	<polygon points="509.9,310 501.2,290 510.8,285.8 509.7,283.4 497.3,288.8 507,311.2 	"/>
	<polygon points="491.9,283.4 489.1,284.7 497.7,304.7 488.2,308.9 489.2,311.3 501.7,305.9 	"/>
	<polygon points="489.6,318.8 480.9,298.8 490.5,294.6 489.5,292.2 477,297.6 486.7,320 	"/>
	<polygon points="471.8,292.2 468.9,293.5 477.6,313.5 468,317.6 469,320.1 481.5,314.6 	"/>
	<path d="M469.5,327.5l-4.1-9.5c-0.2,2.3-0.3,4.6-0.5,6.8l1.7,4L469.5,327.5z"/>
	<path d="M469.3,301l-3.1,1.4c0,1-0.1,2-0.1,2.9l4.3-1.9L469.3,301z"/>
	<polygon points="593.3,239.4 590.4,240.6 599.1,260.6 589.5,264.8 590.5,267.2 603,261.8 	"/>
	<polygon points="591,274.7 582.3,254.7 591.9,250.5 590.8,248.1 578.3,253.5 588.1,276 	"/>
	<polygon points="573,248.2 570.1,249.4 578.8,269.4 569.2,273.6 570.3,276 582.8,270.6 	"/>
	<polygon points="570.7,283.5 562,263.5 571.6,259.4 570.5,256.9 558.1,262.3 567.8,284.8 	"/>
	<polygon points="552.8,257 549.9,258.2 558.6,278.2 549.1,282.4 550.1,284.8 562.6,279.4 	"/>
	<polygon points="550.5,292.3 541.8,272.3 551.4,268.1 550.4,265.7 537.9,271.1 547.6,293.5 	"/>
	<polygon points="532.6,265.8 529.7,267 538.4,287 528.8,291.2 529.8,293.6 542.3,288.2 	"/>
	<polygon points="530.3,301.1 521.6,281.1 531.1,276.9 530.1,274.5 517.6,279.9 527.4,302.4 	"/>
	<path d="M625.4,194.9l3.2,7.4c0.1-2.5,0.2-4.9,0.3-7.2l-0.6-1.4L625.4,194.9z"/>
	<path d="M628.1,217.5l-3.6,1.6l1.1,2.4l2.5-1.1C628,219.5,628.1,218.5,628.1,217.5z"/>
	<polygon points="626,229 617.3,209 626.8,204.8 625.8,202.4 613.3,207.8 623.1,230.3 	"/>
	<polygon points="608.1,202.4 605.2,203.7 613.9,223.7 604.3,227.9 605.4,230.3 617.8,224.9 	"/>
	<polygon points="605.8,237.8 597.1,217.8 606.7,213.6 605.6,211.2 593.1,216.6 602.9,239 	"/>
	<polygon points="587.8,211.3 584.9,212.5 593.6,232.5 584,236.7 585.1,239.1 597.6,233.7 	"/>
	<polygon points="585.5,246.6 576.8,226.6 586.4,222.4 585.3,220 572.9,225.4 582.6,247.8 	"/>
	<polygon points="482.3,280.9 483.3,283.4 495.8,277.9 486,255.5 483.2,256.8 491.8,276.8 	"/>
	<polygon points="483.7,290.9 475,270.9 484.6,266.7 483.6,264.3 471.1,269.7 480.8,292.1 	"/>
	<path d="M467,267.2c0,2.6-0.1,5.1-0.1,7.7l4.6,10.6l-4.9,2.1c0,1-0.1,2-0.1,2.9l8.9-3.9L467,267.2z"/>
	<polygon points="567.1,220.3 564.2,221.5 572.9,241.5 563.3,245.7 564.4,248.1 576.9,242.7 	"/>
	<polygon points="564.8,255.6 556.1,235.6 565.7,231.4 564.6,229 552.2,234.4 561.9,256.9 	"/>
	<polygon points="546.8,229.1 544,230.3 552.6,250.3 543.1,254.5 544.1,256.9 556.6,251.5 	"/>
	<polygon points="544.5,264.4 535.8,244.4 545.4,240.3 544.4,237.8 531.9,243.3 541.6,265.7 	"/>
	<polygon points="526.7,237.9 523.8,239.1 532.5,259.1 522.9,263.3 523.9,265.7 536.4,260.3 	"/>
	<polygon points="524.4,273.2 515.7,253.2 525.2,249 524.2,246.6 511.7,252 521.5,274.4 	"/>
	<polygon points="506.4,246.7 503.5,247.9 512.2,267.9 502.6,272.1 503.7,274.5 516.2,269.1 	"/>
	<polygon points="504.1,282 495.4,262 505,257.8 503.9,255.4 491.4,260.8 501.2,283.3 	"/>
	<path d="M630.3,170l-2.5,1.1l2.1,4.9C630,173.8,630.2,171.8,630.3,170C630.3,170,630.3,170,630.3,170z"/>
	<path d="M629.5,181.9l-7.1-16.2l-2.9,1.3l8.7,20l-9.6,4.2l1.1,2.4l9.4-4.1C629.2,186.9,629.4,184.3,629.5,181.9z"/>
	<polygon points="620.2,201 611.5,181.1 621,176.9 620,174.5 607.5,179.9 617.3,202.3 	"/>
	<polygon points="602.3,174.5 599.4,175.8 608.1,195.7 598.5,199.9 599.6,202.3 612,196.9 	"/>
	<polygon points="600,209.8 591.3,189.8 600.9,185.7 599.8,183.2 587.3,188.7 597.1,211.1 	"/>
	<polygon points="582,183.3 579.1,184.6 587.8,204.6 578.2,208.7 579.3,211.1 591.8,205.7 	"/>
	<polygon points="579.7,218.6 571,198.6 580.6,194.5 579.5,192.1 567.1,197.5 576.8,219.9 	"/>
	<polygon points="480.2,227.6 477.4,228.8 486,248.8 476.5,253 477.5,255.4 490,250 	"/>
	<path d="M477.9,262.9l-8.7-20l9.6-4.2l-1.1-2.4L467,241c0,1.6,0,3.2,0,4.8l8,18.3L477.9,262.9z"/>
	<path d="M469.7,258.8l-2.6-6c0,2.4,0,4.8,0,7.2L469.7,258.8z"/>
	<polygon points="561.3,192.3 558.4,193.6 567.1,213.6 557.5,217.7 558.6,220.2 571.1,214.7 	"/>
	<polygon points="559,227.6 550.3,207.7 559.9,203.5 558.8,201.1 546.4,206.5 556.1,228.9 	"/>
	<polygon points="541,201.1 538.1,202.4 546.8,222.4 537.3,226.5 538.3,229 550.8,223.5 	"/>
	<polygon points="538.7,236.5 530,216.5 539.6,212.3 538.6,209.9 526.1,215.3 535.8,237.7 	"/>
	<polygon points="520.9,209.9 518,211.2 526.7,231.2 517.1,235.3 518.1,237.7 530.6,232.3 	"/>
	<polygon points="518.6,245.2 509.9,225.2 519.4,221.1 518.4,218.6 505.9,224.1 515.7,246.5 	"/>
	<polygon points="500.6,218.7 497.7,220 506.4,240 496.8,244.1 497.9,246.6 510.3,241.1 	"/>
	<polygon points="498.3,254 489.6,234.1 499.2,229.9 498.1,227.5 485.6,232.9 495.4,255.3 	"/>
	<path d="M634,130.2l1.5,3.6c0.6-1.9,1.1-3.3,1.6-4.2l-0.3-0.6L634,130.2z"/>
	<path d="M631.5,157.2l-5.6-12.9l8-3.5c0.2-1.1,0.4-2.1,0.6-3l-0.1-0.1l-12.5,5.4l8.9,20.5C631,161.3,631.2,159.2,631.5,157.2z"/>
	<polygon points="616.6,137.8 613.7,139 622.4,159 612.8,163.2 613.9,165.6 626.4,160.2 	"/>
	<polygon points="614.3,173.1 605.6,153.1 615.2,149 614.1,146.5 601.7,152 611.4,174.4 	"/>
	<polygon points="596.4,146.6 593.5,147.8 602.2,167.8 592.6,172 593.7,174.4 606.2,169 	"/>
	<polygon points="594.1,181.9 585.4,161.9 595,157.7 594,155.3 581.5,160.7 591.2,183.1 	"/>
	<polygon points="576.2,155.4 573.3,156.6 582,176.6 572.4,180.8 573.4,183.2 585.9,177.8 	"/>
	<polygon points="573.9,190.7 565.2,170.7 574.7,166.5 573.7,164.1 561.2,169.5 571,192 	"/>
	<polygon points="704.4,111.2 705.4,106.8 703,107.9 	"/>
	<polygon points="694.8,103.8 702.3,121 703.4,115.8 697.7,102.5 	"/>
	<polygon points="694.9,130.4 700.8,127.8 701.5,124.6 693.9,127.9 	"/>
	<polygon points="682.7,116.7 692.1,138.4 693.5,138.7 695.4,137.9 686.7,117.9 696.2,113.7 695.2,111.3 	"/>
	<polygon points="674.6,112.6 683.3,132.6 676.9,135.3 681.5,136.2 687.2,133.7 677.5,111.3 	"/>
	<polygon points="675,120 662.5,125.5 665.8,133.1 669.6,133.8 666.5,126.6 676.1,122.5 	"/>
	<polygon points="654.3,121.4 658.8,131.7 662.6,132.4 657.2,120.1 	"/>
	<polygon points="651.6,130.2 655.7,131 654.7,128.9 	"/>
	<polygon points="474.4,199.6 471.5,200.9 480.2,220.9 470.6,225.1 471.7,227.5 484.1,222.1 	"/>
	<path d="M472.1,235l-5.4-12.3c0.1,2.7,0.1,5.5,0.2,8.3l2.3,5.3L472.1,235z"/>
	<path d="M471.9,208.4l-5.5,2.4c0,0.9,0.1,1.9,0.1,2.9l6.5-2.8L471.9,208.4z"/>
	<polygon points="555.5,164.4 552.6,165.6 561.3,185.6 551.7,189.8 552.7,192.2 565.2,186.8 	"/>
	<polygon points="553.1,199.7 544.5,179.7 554,175.6 553,173.1 540.5,178.6 550.3,201 	"/>
	<polygon points="535.2,173.2 532.3,174.5 541,194.4 531.4,198.6 532.5,201 544.9,195.6 	"/>
	<polygon points="532.9,208.5 524.2,188.5 533.8,184.4 532.7,181.9 520.2,187.4 530,209.8 	"/>
	<polygon points="515,182 512.1,183.2 520.8,203.2 511.2,207.4 512.3,209.8 524.8,204.4 	"/>
	<polygon points="512.7,217.3 504,197.3 513.6,193.1 512.5,190.7 500.1,196.1 509.8,218.6 	"/>
	<polygon points="491,216.2 492,218.6 504.5,213.2 494.7,190.8 491.9,192 500.5,212 	"/>
	<polygon points="492.4,226.1 483.7,206.1 493.3,202 492.3,199.5 479.8,205 489.5,227.4 	"/>
	<path d="M628.7,128.4l8.3-3.6c-0.2-0.7-0.5-1.6-0.8-2.5l-8.5,3.7L628.7,128.4z"/>
	<path d="M629.3,101.5c2.8,6.5,5,12.6,6.6,17.2l1.3,3.1L637,122c0.3,0.9,0.6,1.8,0.8,2.5l3.4-1.5l-9.8-22.4L629.3,101.5z"/>
	<polygon points="629.1,135.9 620.4,115.9 630,111.8 628.9,109.3 616.5,114.8 626.2,137.2 	"/>
	<polygon points="608.3,110.7 617,130.7 607.4,134.8 608.4,137.3 620.9,131.8 611.2,109.4 	"/>
	<polygon points="606,146 608.9,144.7 600.2,124.8 609.7,120.6 608.7,118.2 596.2,123.6 	"/>
	<polygon points="588.1,119.4 596.8,139.4 587.2,143.6 588.3,146 600.7,140.6 591,118.2 	"/>
	<polygon points="585.8,154.8 588.7,153.5 580,133.5 589.6,129.4 588.5,126.9 576,132.4 	"/>
	<polygon points="567.8,128.3 576.5,148.3 566.9,152.4 568,154.8 580.5,149.4 570.7,127 	"/>
	<polygon points="565.5,163.6 568.4,162.3 559.7,142.3 569.3,138.2 568.2,135.7 555.8,141.2 	"/>
	<polygon points="708.7,90.8 708.9,91.1 709,90.6 	"/>
	<polygon points="706.8,100.7 707.9,95.4 701.5,80.7 701.7,80.6 697.8,79.4 697.5,79.5 	"/>
	<polygon points="690.1,77.1 698,95.4 688.4,99.6 689.5,102 702,96.6 694,78.3 	"/>
	<polygon points="690.8,85.3 689.7,82.9 677.3,88.3 687,110.7 689.9,109.5 681.2,89.5 	"/>
	<polygon points="669.2,84.2 677.8,104.2 668.3,108.3 669.3,110.8 681.8,105.4 672,82.9 	"/>
	<polygon points="670.6,94.1 669.6,91.7 657.1,97.1 666.8,119.5 669.7,118.3 661,98.3 	"/>
	<polygon points="648.9,93 657.6,113 648,117.2 649.1,119.6 661.5,114.2 651.8,91.7 	"/>
	<polygon points="650.4,102.9 649.3,100.5 636.8,105.9 646.6,128.3 649.5,127.1 640.8,107.1 	"/>
	<path d="M468.9,171.3l-2.9,1.3l8.7,20l-8.9,3.9c0,0.7,0.1,1.4,0.1,2.2l0.2,0.6l12.5-5.4L468.9,171.3z"/>
	<path d="M466.3,206.8l0.4-0.2l-0.4-0.9C466.3,206,466.3,206.4,466.3,206.8z"/>
	<path d="M466.5,180l-1.4,0.6c0.1,0.9,0.1,1.9,0.2,2.8l2.3-1L466.5,180z"/>
	<polygon points="547.1,137.3 555.8,157.3 546.2,161.4 547.3,163.9 559.8,158.4 550,136 	"/>
	<polygon points="544.8,172.6 547.7,171.3 539,151.4 548.6,147.2 547.5,144.8 535.1,150.2 	"/>
	<polygon points="526.8,146.1 535.5,166.1 526,170.2 527,172.7 539.5,167.2 529.7,144.8 	"/>
	<polygon points="524.5,181.4 527.4,180.2 518.7,160.2 528.3,156 527.3,153.6 514.8,159 	"/>
	<polygon points="506.7,154.9 515.4,174.9 505.8,179 506.8,181.4 519.3,176 509.6,153.6 	"/>
	<polygon points="504.4,190.2 507.3,188.9 498.6,168.9 508.1,164.8 507.1,162.3 494.6,167.8 	"/>
	<polygon points="489.3,162.4 486.4,163.7 495.1,183.7 485.5,187.8 486.6,190.3 499,184.8 	"/>
	<polygon points="487,197.7 478.3,177.8 487.9,173.6 486.8,171.2 474.3,176.6 484.1,199 	"/>
	<path d="M622.7,73.9l8.7,20l-4.5,2c0.4,0.8,0.7,1.6,1.1,2.4l7.4-3.2l-9.8-22.4L622.7,73.9z"/>
	<path d="M627.1,98.7c-0.4-0.8-0.7-1.6-1.1-2.4l-4.2,1.8l1.1,2.4L627.1,98.7z"/>
	<path d="M623.3,108l-8.7-20l6.1-2.7c-0.4-0.8-0.8-1.6-1.3-2.3l-8.8,3.8l9.8,22.4L623.3,108z"/>
	<path d="M621.5,85l2.7-1.2l-1.1-2.4l-2.9,1.3C620.6,83.4,621.1,84.2,621.5,85z"/>
	<polygon points="601.5,106.9 602.6,109.3 615.1,103.9 605.3,81.5 602.4,82.7 611.1,102.7 	"/>
	<polygon points="600.1,118.1 603,116.8 594.3,96.8 603.9,92.7 602.8,90.2 590.4,95.7 	"/>
	<polygon points="582.2,91.5 590.9,111.5 581.4,115.7 582.4,118.1 594.9,112.7 585.1,90.3 	"/>
	<polygon points="579.9,126.8 582.8,125.6 574.1,105.6 583.7,101.4 582.7,99 570.2,104.4 	"/>
	<polygon points="562,100.3 570.7,120.3 561.1,124.5 562.1,126.9 574.6,121.5 564.9,99.1 	"/>
	<polygon points="559.7,135.7 562.6,134.4 553.9,114.4 563.4,110.2 562.4,107.8 549.9,113.2 	"/>
	<polygon points="681.2,82.8 684.1,81.6 681,74.5 677,73.3 	"/>
	<polygon points="672,76.3 662.4,80.4 663.5,82.8 675.9,77.4 673.7,72.3 669.8,71.2 	"/>
	<polygon points="660,68.3 656,67.1 651.2,69.2 661,91.6 663.9,90.3 655.2,70.3 	"/>
	<polygon points="645.5,64 643,65.1 651.7,85.1 642.1,89.2 643.2,91.7 655.7,86.2 646.1,64.2 	"/>
	<polygon points="643.6,99.1 634.9,79.2 644.5,75 643.4,72.6 631,78 640.7,100.4 	"/>
	<path d="M461.5,144c0.3,1.6,0.6,3.4,0.8,5.3l6.6,15.2l-4.8,2.1c0.1,0.9,0.1,1.8,0.2,2.8l8.5-3.7l-9.8-22.4L461.5,144z"/>
	<polygon points="541.3,109.3 550,129.3 540.4,133.5 541.4,135.9 553.9,130.5 544.2,108.1 	"/>
	<polygon points="539,144.7 541.8,143.4 533.2,123.4 542.7,119.3 541.7,116.8 529.2,122.2 	"/>
	<polygon points="521,118.2 529.7,138.1 520.1,142.3 521.2,144.7 533.6,139.3 523.9,116.9 	"/>
	<polygon points="518.7,153.5 521.6,152.2 512.9,132.2 522.5,128.1 521.4,125.6 508.9,131.1 	"/>
	<polygon points="500.8,126.9 509.5,146.9 499.9,151.1 501,153.5 513.5,148.1 503.7,125.7 	"/>
	<polygon points="498.5,162.3 501.4,161 492.7,141 502.3,136.8 501.2,134.4 488.8,139.8 	"/>
	<polygon points="480.6,135.7 489.2,155.7 479.7,159.9 480.7,162.3 493.2,156.9 483.4,134.5 	"/>
	<polygon points="478.2,171.1 481.1,169.8 472.4,149.8 482,145.7 481,143.2 468.5,148.7 	"/>
	<polygon points="625.6,66 616,70.1 617,72.6 629.5,67.1 625.6,58.1 621.6,56.9 	"/>
	<path d="M608.8,60.1l9.5-4.1l-4-1.2l-9.5,4.1l1.7,3.8c2.8,3.2,5.5,6.7,8,10.5L608.8,60.1z"/>
	<path d="M614.6,81.3l2.9-1.3l-0.7-1.7c-2.8-4.6-5.8-9.1-9.1-13L614.6,81.3z"/>
	<path d="M595.7,78.9l1.1,2.4l12.5-5.4L602,59.4c-1.7-1.6-3.5-3.1-5.4-4.4l8.6,19.8L595.7,78.9z"/>
	<path d="M597.4,54.4c1.3,0.9,2.6,1.9,3.8,3l-1.7-3.9L597.4,54.4z"/>
	<polygon points="597.2,88.9 588.5,68.9 598.1,64.7 597,62.3 584.6,67.7 594.3,90.1 	"/>
	<polygon points="576.4,63.6 585.1,83.6 575.5,87.7 576.6,90.1 589.1,84.7 579.3,62.3 	"/>
	<polygon points="574.1,98.9 577,97.6 568.3,77.6 577.9,73.5 576.8,71.1 564.4,76.5 	"/>
	<polygon points="556.2,72.4 564.9,92.4 555.3,96.5 556.3,99 568.8,93.5 559.1,71.1 	"/>
	<polygon points="553.9,107.7 556.8,106.4 548.1,86.5 557.6,82.3 556.6,79.9 544.1,85.3 	"/>
	<polygon points="640.3,62.5 636.3,61.3 637.4,63.7 	"/>
	<polygon points="637.8,71.2 633.1,60.3 629.1,59.2 634.9,72.5 	"/>
	<path d="M463.1,136.6l-2.8,1.2c0.2,0.8,0.4,1.7,0.6,2.6l6.2-2.7l-7.8-17.8c-0.6,1.7-1.1,3.3-1.5,4.5L463.1,136.6z"/>
	<path d="M454.4,116.6l2.8,6.3c0.4-1.3,0.9-2.8,1.5-4.5l-1.4-3.1L454.4,116.6z"/>
	<polygon points="455.9,126.6 454.8,124.1 442.3,129.6 442.6,130.2 451.5,128.4 	"/>
	<polygon points="437,124.2 434.1,125.5 436.7,131.4 439.9,130.8 	"/>
	<polygon points="416.8,133 414,134.2 414.7,135.9 417.8,135.3 	"/>
	<polygon points="535.5,81.4 544.2,101.4 534.6,105.5 535.6,108 548.1,102.5 538.4,80.1 	"/>
	<polygon points="533.2,116.7 536,115.5 527.4,95.5 536.9,91.3 535.9,88.9 523.4,94.3 	"/>
	<polygon points="515.2,90.2 523.9,110.2 514.3,114.4 515.4,116.8 527.8,111.4 518.1,88.9 	"/>
	<polygon points="512.9,125.5 515.8,124.3 507.1,104.3 516.7,100.1 515.6,97.7 503.1,103.1 	"/>
	<polygon points="495,99 503.7,119 494.1,123.1 495.2,125.6 507.7,120.1 497.9,97.7 	"/>
	<polygon points="495.6,133 486.9,113.1 496.5,108.9 495.4,106.5 483,111.9 492.7,134.3 	"/>
	<polygon points="474.7,107.8 483.4,127.8 473.9,131.9 474.9,134.4 487.4,128.9 477.6,106.5 	"/>
	<polygon points="472.4,143.1 475.3,141.9 466.6,121.9 476.2,117.7 475.2,115.3 462.7,120.7 	"/>
	<path d="M589.8,51.1l1,2.4l2-0.9c-0.3-0.2-0.6-0.3-1-0.5C591.2,51.8,590.5,51.4,589.8,51.1z"/>
	<path d="M590.8,50.6c0.4,0.2,0.9,0.5,1.4,0.7c0.6,0.3,1.1,0.6,1.6,0.9l4.7-2l-4-1.2L590.8,50.6z"/>
	<path d="M588.4,62.2l2.9-1.3l-5.2-12.1c-0.8-0.5-1.5-0.9-2.1-1.4c-0.7,0-1.3-0.1-2-0.1L588.4,62.2z"/>
	<path d="M579.1,55.7l-9.6,4.2l1.1,2.4l12.5-5.4l-4.2-9.6c-1.1-0.1-2.3-0.1-3.5-0.2L579.1,55.7z"/>
	<path d="M568.1,71l2.9-1.3l-8.7-20l6.8-3c-2-0.1-4-0.1-6.1-0.2l-4.6,2L568.1,71z"/>
	<path d="M559,64.5l-9.6,4.2l1.1,2.4l12.5-5.4l-8.4-19.2c-1.1,0-2.3,0-3.5,0L559,64.5z"/>
	<polygon points="550.9,78.5 542.2,58.5 551.7,54.4 550.7,52 538.2,57.4 548,79.8 	"/>
	<polygon points="530,53.3 538.7,73.3 529.1,77.4 530.2,79.9 542.6,74.4 532.9,52 	"/>
	<polygon points="530.6,87.4 521.9,67.4 531.5,63.2 530.4,60.8 517.9,66.2 527.7,88.6 	"/>
	<polygon points="609,53.2 608.7,53.1 608.8,53.4 	"/>
	<polygon points="428.2,97.5 436.9,117.5 427.3,121.7 428.4,124.1 440.9,118.7 431.1,96.3 	"/>
	<polygon points="425.9,132.9 428.8,131.6 420.1,111.6 429.7,107.5 428.6,105 416.2,110.5 	"/>
	<polygon points="407.1,130.5 408.1,132.9 420.6,127.5 410.9,105.1 408,106.4 416.7,126.3 	"/>
	<polygon points="407.2,137.4 399.9,120.4 409.4,116.3 408.4,113.8 395.9,119.3 404.1,138 	"/>
	<polygon points="390.8,114.2 394.3,130.2 396.5,135.1 395.5,135.5 396.1,138.2 400.4,136.3 	"/>
	<polygon points="509.3,62.3 518,82.3 508.4,86.4 509.5,88.9 521.9,83.4 512.2,61 	"/>
	<polygon points="507,97.6 509.9,96.4 501.2,76.4 510.8,72.2 509.7,69.8 497.2,75.2 	"/>
	<polygon points="489,71.1 497.7,91.1 488.1,95.3 489.2,97.7 501.7,92.3 491.9,69.8 	"/>
	<polygon points="486.7,106.4 489.6,105.2 480.9,85.2 490.5,81 489.4,78.6 477,84 	"/>
	<path d="M468.9,79.9L472,87c0.6-1.2,1.2-2.4,1.9-3.6l-2.1-4.8L468.9,79.9z"/>
	<path d="M477.5,99.9L468,104l1.1,2.4l12.5-5.4l-7.1-16.4c-0.6,1.2-1.3,2.4-1.9,3.6L477.5,99.9z"/>
	<path d="M462.9,106.9c0.5-1.3,1.1-2.7,1.7-4.1l-3.9-8.9l9.6-4.2l-1.1-2.4l-12.5,5.4L462.9,106.9z"/>
	<path d="M463.5,108.3l3,6.9l2.9-1.3l-4.3-9.8C464.6,105.6,464.1,106.9,463.5,108.3z"/>
	<polygon points="448.6,88.7 457.3,108.7 447.7,112.8 448.8,115.3 461.2,109.9 451.5,87.4 	"/>
	<polygon points="449.2,122.8 440.5,102.8 450.1,98.6 449,96.2 436.5,101.6 446.3,124 	"/>
	<path d="M545.1,50.6l-1.9-4.3c-1.1,0-2.3,0-3.4,0l2.4,5.5L545.1,50.6z"/>
	<polygon points="441.9,84.9 442.9,87.3 455.4,81.9 447.8,64.4 444.7,65.3 451.4,80.7 	"/>
	<polygon points="434.6,74.8 444.2,70.7 443.2,68.2 430.7,73.7 440.4,96.1 443.3,94.8 	"/>
	<polygon points="431.2,89.6 421.6,93.7 422.6,96.2 435.1,90.7 426.4,70.7 423.4,71.6 	"/>
	<polygon points="423.9,79.5 422.9,77.1 410.4,82.5 420.2,104.9 423.1,103.6 414.4,83.7 	"/>
	<polygon points="411,98.3 401.4,102.5 402.5,104.9 414.9,99.5 405.2,77.1 402.3,78.3 	"/>
	<polygon points="402.9,112.4 394.2,92.4 403.8,88.3 402.7,85.8 390.2,91.3 400,113.7 	"/>
	<polygon points="384.9,85.9 384.6,86 387.8,100.4 390.7,107.2 389.4,107.7 390,110.4 394.7,108.3 	"/>
	<path d="M522.9,49.7l1.1,2.4l12.5-5.4l-0.1-0.3c-2.1,0-4.2,0.1-6.3,0.2L522.9,49.7z"/>
	<path d="M521.5,60.8l2.9-1.3L518.9,47c-1.2,0.1-2.3,0.1-3.4,0.2L521.5,60.8z"/>
	<path d="M509.6,48.3l2.6,6l-9.6,4.2l1.1,2.4l12.5-5.4l-3.6-8.2c-0.6,0-1.2,0.1-1.7,0.1C510.5,47.7,510.1,48,509.6,48.3z"/>
	<path d="M495.6,56.8l5.6,12.9l2.9-1.3l-5.9-13.6C497.3,55.4,496.5,56.1,495.6,56.8z"/>
	<path d="M497.8,53.9l-1.6-3.8l-3,0.9l2.1,4.8C496.1,55.2,497,54.5,497.8,53.9z"/>
	<path d="M493.5,58.6c-0.8,0.7-1.6,1.5-2.4,2.3l1,2.2l-4.9,2.1c-1.2,1.4-2.3,2.9-3.4,4.4l12.3-5.3L493.5,58.6z"/>
	<path d="M490.7,59.9c0.8-0.8,1.6-1.6,2.4-2.3l-2.5-5.8l-3.1,0.9L490.7,59.9z"/>
	<path d="M482.5,67.2l0.7,1.5c0.7-0.9,1.4-1.8,2.1-2.7L482.5,67.2z"/>
	<path d="M481.1,78.4l2.9-1.3l-2.1-4.9c-0.7,1-1.4,2.1-2.1,3.1L481.1,78.4z"/>
	<path d="M481.4,71.2l-6.1-14l6.2-2.7l-9.6,2.8l7.4,17C480,73.3,480.7,72.2,481.4,71.2z"/>
	<polygon points="471.8,71.9 462.2,76.1 463.3,78.5 475.7,73.1 469.2,58.1 466.2,59 	"/>
	<polygon points="460.8,87.2 463.7,86 455,66 464.6,61.8 463.7,59.7 460.9,60.5 451,64.8 	"/>
	<polygon points="414.3,77 417.2,75.7 416.3,73.7 413.2,74.6 	"/>
	<polygon points="396.9,84.5 394.9,80 391.9,80.9 394,85.8 	"/>
	<path d="M120,314.6c-0.2,2.3-0.4,4.5-0.6,6.7l2.6-5.9L120,314.6z"/>
	<path d="M121.6,322.9l-1.1,2.4l9.6,4.2l-3.5,8c1.1,0.1,2.2,0.2,3.3,0.2l4.1-9.4L121.6,322.9z"/>
	<path d="M142.7,324.5l-2.9-1.3l-6.4,14.8c1.1,0.1,2.2,0.2,3.3,0.2L142.7,324.5z"/>
	<path d="M142.3,331.9l-1.1,2.4l9.6,4.2l-0.2,0.5c1.1,0.1,2.2,0.1,3.4,0.2l0.8-1.9L142.3,331.9z"/>
	<path d="M163,333.3l-2.9-1.3l-3.2,7.4c1.1,0.1,2.2,0.1,3.4,0.2L163,333.3z"/>
	<path d="M124.9,286.2l-3.7,8.5c-0.1,3-0.3,6-0.5,9l7.1-16.2L124.9,286.2z"/>
	<path d="M128.7,311.7l-8.2-3.6c-0.1,0.9-0.1,1.9-0.2,2.8l7.4,3.2L128.7,311.7z"/>
	<polygon points="139.8,300.4 127.4,295 126.3,297.4 135.9,301.6 127.2,321.6 130.1,322.8 	"/>
	<path d="M225.9,340.2l3.7-8.4l-2.9-1.3l-4.2,9.8C223.6,340.3,224.7,340.2,225.9,340.2z"/>
	<path d="M228.7,340.1c0.8,0,1.5,0,2.3-0.1l-1.9-0.8L228.7,340.1z"/>
	<path d="M246.9,339.3l-0.1,0.2c0.2,0,0.3,0,0.5,0L246.9,339.3z"/>
	<polygon points="149.4,320.7 139.8,316.5 148.5,296.5 145.6,295.3 135.8,317.7 148.3,323.1 	"/>
	<polygon points="160.5,309.4 148.1,304 147,306.4 156.6,310.6 147.9,330.6 150.8,331.8 	"/>
	<polygon points="169.6,329.5 160.1,325.3 168.8,305.3 165.9,304.1 156.1,326.5 168.6,331.9 	"/>
	<path d="M168.3,312.8l-1.1,2.4l9.6,4.2l-8.7,20l1.1,0.5c0.7,0,1.4,0,2.1,0.1l9.4-21.7L168.3,312.8z"/>
	<path d="M189.8,338.3l-9.6-4.2l8.7-20l-2.9-1.3l-9.8,22.4l11.7,5.1c0.3,0,0.6,0,1,0L189.8,338.3z"/>
	<path d="M188.5,321.6l-1.1,2.4l9.6,4.2l-5.3,12.2c1.1,0,2.2,0,3.4,0c0,0,0,0,0.1,0L201,327L188.5,321.6z"/>
	<path d="M201.6,340.4l7.6-17.5l-2.9-1.3l-8.2,18.7c0.5,0,1.1,0,1.7,0H201.6z"/>
	<path d="M208.8,330.4l-1.1,2.4l9.6,4.2l-1.5,3.4c1.2,0,2.3,0,3.5,0l2-4.5L208.8,330.4z"/>
	<path d="M122.1,262.2c0,3.3-0.1,6.6-0.2,9.9l3.7-8.4L122.1,262.2z"/>
	<path d="M134.6,283.7l-9.6-4.2l8.7-20l-2.9-1.3l-9,20.8c0,0.6,0,1.3-0.1,1.9l11.8,5.1L134.6,283.7z"/>
	<polygon points="145.7,272.5 133.3,267.1 132.2,269.5 141.8,273.7 133.1,293.7 136,294.9 	"/>
	<polygon points="154.8,292.6 145.2,288.4 153.9,268.4 151,267.1 141.3,289.6 153.8,295 	"/>
	<polygon points="166,281.3 153.5,275.9 152.5,278.3 162.1,282.5 153.4,302.5 156.2,303.7 	"/>
	<path d="M255.7,312.7l-2.9-1.3l-9.8,22.4l12.2,5.3c0.1,0,0.2,0,0.4,0l1-2.3l-9.6-4.2L255.7,312.7z"/>
	<path d="M255.3,320.2l-1.1,2.4l9.6,4.2l-5.3,12.2c1.2-0.1,2.4-0.1,3.5-0.2l5.7-13.2L255.3,320.2z"/>
	<path d="M273.1,320.2l-8,18.3c1.2-0.1,2.4-0.2,3.5-0.2l7.3-16.8L273.1,320.2z"/>
	<path d="M287,334l-11.5-5l-1.1,2.4l9.6,4.2l-0.7,1.7c1.3-0.1,2.5-0.2,3.6-0.3l0.4-0.8C287.2,335.4,287.1,334.7,287,334z"/>
	<polygon points="175.5,301.6 166,297.4 174.7,277.4 171.8,276.2 162,298.6 174.5,304 	"/>
	<polygon points="186.7,290.3 174.2,284.9 173.2,287.3 182.8,291.5 174.1,311.5 177,312.7 	"/>
	<polygon points="195.8,310.4 186.2,306.2 194.9,286.2 192,285 182.3,307.4 194.7,312.8 	"/>
	<polygon points="207,299.1 194.5,293.7 193.4,296.1 203,300.3 194.3,320.3 197.2,321.6 	"/>
	<polygon points="216,319.2 206.4,315 215.1,295 212.2,293.7 202.5,316.2 214.9,321.6 	"/>
	<polygon points="227.2,307.9 214.7,302.5 213.6,304.9 223.2,309.1 214.5,329.1 217.4,330.3 	"/>
	<polygon points="236.2,328 226.7,323.8 235.4,303.8 232.5,302.6 222.7,325 235.2,330.4 	"/>
	<polygon points="233.9,313.7 243.5,317.9 234.8,337.9 237.7,339.1 247.4,316.7 234.9,311.3 	"/>
	<path d="M131.2,235.7l-9.2-4c0,1,0,1.9,0,2.9l5.2,2.3l-5.2,11.9c0,2.6,0,5.3,0,8L131.2,235.7z"/>
	<polygon points="140.3,255.8 130.7,251.6 139.4,231.6 136.5,230.4 126.8,252.8 139.3,258.2 	"/>
	<polygon points="151.5,244.5 139,239.1 138,241.5 147.5,245.7 138.8,265.7 141.7,266.9 	"/>
	<polygon points="242.1,300 232.5,295.9 241.2,275.9 238.3,274.6 228.6,297 241,302.5 	"/>
	<polygon points="253.3,288.8 240.8,283.4 239.7,285.8 249.3,290 240.6,310 243.5,311.2 	"/>
	<polygon points="262.4,308.9 252.8,304.7 261.5,284.7 258.6,283.4 248.8,305.9 261.3,311.3 	"/>
	<polygon points="273.5,297.6 261.1,292.2 260,294.6 269.6,298.8 260.9,318.8 263.8,320 	"/>
	<polygon points="282.5,317.6 273,313.5 281.7,293.5 278.8,292.2 269,314.6 281.5,320.1 	"/>
	<path d="M280.2,303.4l4.3,1.9c-0.1-1-0.1-2-0.2-3l-3.1-1.3L280.2,303.4z"/>
	<path d="M285.9,324.2c-0.2-2.1-0.4-4.3-0.6-6.6l-4.3,9.9l2.9,1.3L285.9,324.2z"/>
	<polygon points="161,264.8 151.5,260.6 160.1,240.6 157.3,239.4 147.5,261.8 160,267.2 	"/>
	<polygon points="172.2,253.5 159.7,248.1 158.7,250.5 168.3,254.7 159.6,274.7 162.5,276 	"/>
	<polygon points="181.3,273.6 171.7,269.4 180.4,249.4 177.5,248.2 167.8,270.6 180.2,276 	"/>
	<polygon points="192.5,262.3 180,256.9 178.9,259.4 188.5,263.5 179.8,283.5 182.7,284.8 	"/>
	<polygon points="201.5,282.4 191.9,278.2 200.6,258.2 197.7,257 187.9,279.4 200.4,284.8 	"/>
	<polygon points="212.6,271.1 200.2,265.7 199.1,268.1 208.7,272.3 200,292.3 202.9,293.5 	"/>
	<polygon points="221.7,291.2 212.2,287 220.9,267 218,265.8 208.2,288.2 220.7,293.6 	"/>
	<polygon points="232.9,279.9 220.4,274.5 219.4,276.9 229,281.1 220.3,301.1 223.2,302.4 	"/>
	<path d="M122.3,193.7l-1.2,2.9c0.1,2.4,0.2,4.8,0.3,7.3l3.9-8.9L122.3,193.7z"/>
	<path d="M126,219.1l-4.3-1.9c0,1,0,1.9,0.1,2.9l3.2,1.4L126,219.1z"/>
	<polygon points="137.2,207.8 124.7,202.4 123.7,204.8 133.3,209 124.6,229 127.5,230.3 	"/>
	<polygon points="146.2,227.9 136.6,223.7 145.3,203.7 142.4,202.4 132.7,224.9 145.2,230.3 	"/>
	<polygon points="157.4,216.6 144.9,211.2 143.9,213.6 153.4,217.8 144.7,237.8 147.6,239 	"/>
	<polygon points="166.5,236.7 156.9,232.5 165.6,212.5 162.7,211.3 153,233.7 165.4,239.1 	"/>
	<polygon points="177.7,225.4 165.2,220 164.1,222.4 173.7,226.6 165,246.6 167.9,247.8 	"/>
	<polygon points="268.3,280.9 258.7,276.8 267.4,256.8 264.5,255.5 254.7,277.9 267.2,283.4 	"/>
	<polygon points="267,264.3 265.9,266.7 275.5,270.9 266.8,290.9 269.7,292.1 279.4,269.7 	"/>
	<path d="M283.6,287.6l-4.7-2l4.3-10c-0.1-2.5-0.1-5-0.1-7.6l-8.1,18.7l8.7,3.8C283.7,289.6,283.7,288.6,283.6,287.6z"/>
	<polygon points="187.2,245.7 177.6,241.5 186.3,221.5 183.4,220.3 173.7,242.7 186.1,248.1 	"/>
	<polygon points="198.4,234.4 185.9,229 184.8,231.4 194.4,235.6 185.7,255.6 188.6,256.9 	"/>
	<polygon points="207.5,254.5 197.9,250.3 206.6,230.3 203.7,229.1 193.9,251.5 206.4,256.9 	"/>
	<polygon points="218.6,243.3 206.2,237.8 205.1,240.3 214.7,244.4 206,264.4 208.9,265.7 	"/>
	<polygon points="227.6,263.3 218.1,259.1 226.8,239.1 223.9,237.9 214.1,260.3 226.6,265.7 	"/>
	<polygon points="238.8,252 226.3,246.6 225.3,249 234.9,253.2 226.2,273.2 229.1,274.4 	"/>
	<polygon points="247.9,272.1 238.3,267.9 247,247.9 244.1,246.7 234.4,269.1 246.8,274.5 	"/>
	<polygon points="259.1,260.8 246.6,255.4 245.5,257.8 255.1,262 246.4,282 249.3,283.3 	"/>
	<path d="M119.5,169.6c0,0.1,0,0.2,0,0.3c0.2,2.4,0.3,4.9,0.5,7.5l2.7-6.3L119.5,169.6z"/>
	<path d="M131.8,191.1l-9.6-4.2l8.7-20l-2.9-1.3l-7.7,17.7c0.1,1.9,0.2,3.8,0.3,5.8l10.1,4.4L131.8,191.1z"/>
	<polygon points="143,179.9 130.5,174.5 129.5,176.9 139.1,181.1 130.4,201 133.3,202.3 	"/>
	<polygon points="152,199.9 142.4,195.7 151.1,175.8 148.2,174.5 138.5,196.9 151,202.3 	"/>
	<polygon points="163.2,188.7 150.7,183.2 149.7,185.7 159.2,189.8 150.5,209.8 153.4,211.1 	"/>
	<polygon points="172.3,208.7 162.7,204.6 171.4,184.6 168.5,183.3 158.8,205.7 171.2,211.1 	"/>
	<polygon points="183.5,197.5 171,192.1 169.9,194.5 179.5,198.6 170.8,218.6 173.7,219.9 	"/>
	<polygon points="49.9,131.7 49.9,131.7 49.9,131.8 	"/>
	<polygon points="274.1,253 264.5,248.8 273.2,228.8 270.3,227.6 260.5,250 273,255.4 	"/>
	<path d="M283,246.9c0-2.1,0-4.1,0-6.1l-10.2-4.5l-1.1,2.4l9.6,4.2l-8.7,20l2.9,1.3L283,246.9z"/>
	<path d="M283,253.8l-2.2,5l2.2,1C283,257.8,283,255.8,283,253.8z"/>
	<polygon points="193,217.7 183.4,213.6 192.1,193.6 189.2,192.3 179.5,214.7 191.9,220.2 	"/>
	<polygon points="204.2,206.5 191.7,201.1 190.6,203.5 200.2,207.7 191.5,227.6 194.4,228.9 	"/>
	<polygon points="213.3,226.5 203.7,222.4 212.4,202.4 209.5,201.1 199.7,223.5 212.2,229 	"/>
	<polygon points="224.4,215.3 212,209.9 210.9,212.3 220.5,216.5 211.8,236.5 214.7,237.7 	"/>
	<polygon points="233.4,235.3 223.9,231.2 232.6,211.2 229.7,209.9 219.9,232.3 232.4,237.7 	"/>
	<polygon points="244.6,224.1 232.1,218.6 231.1,221.1 240.7,225.2 232,245.2 234.9,246.5 	"/>
	<polygon points="253.7,244.1 244.1,240 252.8,220 249.9,218.7 240.2,241.1 252.6,246.6 	"/>
	<polygon points="264.9,232.9 252.4,227.5 251.3,229.9 260.9,234.1 252.2,254 255.1,255.3 	"/>
	<path d="M113.7,129l-0.6,1.3c0.5,1,1,2.5,1.5,4.4l1.9-4.5L113.7,129z"/>
	<path d="M116.1,137.7l-0.5,1.2c0.1,0.5,0.2,1.1,0.3,1.6l8.7,3.8l-6.2,14.2c0.2,2,0.4,4.2,0.6,6.5l9.5-21.8L116.1,137.7z"/>
	<polygon points="137.7,163.2 128.1,159 136.8,139 133.9,137.8 124.2,160.2 136.6,165.6 	"/>
	<polygon points="148.9,152 136.4,146.5 135.3,149 144.9,153.1 136.2,173.1 139.1,174.4 	"/>
	<polygon points="157.9,172 148.3,167.8 157,147.8 154.1,146.6 144.3,169 156.8,174.4 	"/>
	<polygon points="169,160.7 156.6,155.3 155.5,157.7 165.1,161.9 156.4,181.9 159.3,183.1 	"/>
	<polygon points="178.1,180.8 168.6,176.6 177.3,156.6 174.4,155.4 164.6,177.8 177.1,183.2 	"/>
	<polygon points="189.3,169.5 176.8,164.1 175.8,166.5 185.4,170.7 176.7,190.7 179.6,192 	"/>
	<polygon points="47.5,107.9 44.3,106.5 45.6,112.3 	"/>
	<polygon points="47.8,122.1 55.7,103.8 52.9,102.5 46.6,116.9 	"/>
	<polygon points="56.6,127.9 48.2,124.3 48.9,127.5 55.6,130.4 	"/>
	<polygon points="54.3,113.7 63.9,117.9 55.2,137.9 56.8,138.6 58.4,138.2 67.8,116.7 55.3,111.3 	"/>
	<polygon points="67.2,132.6 75.9,112.6 73,111.3 63.3,133.7 68.8,136.1 73.3,135.2 	"/>
	<polygon points="84.8,132.9 88,125.5 75.5,120 74.5,122.5 84,126.6 81,133.7 	"/>
	<polygon points="91.8,131.5 96.2,121.4 93.3,120.1 88,132.2 	"/>
	<polygon points="94.9,130.9 98.6,130.1 95.8,128.9 	"/>
	<polygon points="279.9,225.1 270.3,220.9 279,200.9 276.1,199.6 266.4,222.1 278.9,227.5 	"/>
	<path d="M277.6,210.8l5.9,2.6c0-1,0.1-1.9,0.1-2.9l-5-2.2L277.6,210.8z"/>
	<path d="M283.1,232.2c0-2.8,0.1-5.5,0.1-8.2l-4.8,11l2.9,1.3L283.1,232.2z"/>
	<polygon points="198.8,189.8 189.3,185.6 198,165.6 195.1,164.4 185.3,186.8 197.8,192.2 	"/>
	<polygon points="210,178.6 197.5,173.1 196.5,175.6 206.1,179.7 197.4,199.7 200.3,201 	"/>
	<polygon points="219.1,198.6 209.5,194.4 218.2,174.5 215.3,173.2 205.6,195.6 218.1,201 	"/>
	<polygon points="230.3,187.4 217.8,181.9 216.8,184.4 226.3,188.5 217.6,208.5 220.5,209.8 	"/>
	<polygon points="239.3,207.4 229.7,203.2 238.4,183.2 235.5,182 225.8,204.4 238.2,209.8 	"/>
	<polygon points="250.5,196.1 238,190.7 236.9,193.1 246.5,197.3 237.8,217.3 240.7,218.6 	"/>
	<polygon points="259.6,216.2 250,212 258.7,192 255.8,190.8 246,213.2 258.5,218.6 	"/>
	<polygon points="258.3,199.5 257.2,202 266.8,206.1 258.1,226.1 261,227.4 270.7,205 	"/>
	<path d="M121.8,128.4l1.1-2.4l-8.7-3.8c-0.4,0.9-0.7,1.7-1,2.5L121.8,128.4z"/>
	<path d="M109.3,123l2.9,1.3c1.2-3,3-7.5,5.5-12.7l4.2-9.7l-2.9-1.3L109.3,123z"/>
	<polygon points="120.5,111.8 130.1,115.9 121.4,135.9 124.3,137.2 134,114.8 121.6,109.3 	"/>
	<polygon points="129.6,131.8 142.1,137.3 143.1,134.8 133.6,130.7 142.3,110.7 139.4,109.4 	"/>
	<polygon points="140.8,120.6 150.4,124.8 141.7,144.7 144.6,146 154.3,123.6 141.8,118.2 	"/>
	<polygon points="149.8,140.6 162.3,146 163.3,143.6 153.7,139.4 162.4,119.4 159.5,118.2 	"/>
	<polygon points="161,129.4 170.5,133.5 161.8,153.5 164.7,154.8 174.5,132.4 162,126.9 	"/>
	<polygon points="170.1,149.4 182.5,154.8 183.6,152.4 174,148.3 182.7,128.3 179.8,127 	"/>
	<polygon points="181.2,138.2 190.8,142.3 182.1,162.3 185,163.6 194.8,141.2 182.3,135.7 	"/>
	<polygon points="41.8,90.8 40.8,90.3 41.2,92.2 	"/>
	<polygon points="43.3,101.8 53,79.5 52.5,79.3 48.5,80.5 49,80.7 42.1,96.6 	"/>
	<polygon points="61,102 62.1,99.6 52.5,95.4 60.5,76.9 56.6,78.1 48.6,96.6 	"/>
	<polygon points="69.3,89.5 60.6,109.5 63.5,110.7 73.3,88.3 60.8,82.9 59.7,85.3 	"/>
	<polygon points="81.2,110.8 82.3,108.3 72.7,104.2 81.4,84.2 78.5,82.9 68.7,105.4 	"/>
	<polygon points="79.9,94.1 89.5,98.3 80.8,118.3 83.7,119.5 93.4,97.1 81,91.7 	"/>
	<polygon points="101.5,119.6 102.5,117.2 92.9,113 101.6,93 98.7,91.7 89,114.2 	"/>
	<polygon points="100.2,102.9 109.7,107.1 101.1,127.1 103.9,128.3 113.7,105.9 101.2,100.5 	"/>
	<path d="M284.1,196.1l-8.3-3.6l8.7-20l-2.9-1.3l-9.8,22.4L284,199C284,198,284.1,197.1,284.1,196.1z"/>
	<path d="M283,182.4l1.7,0.8c0.1-1,0.1-1.9,0.2-2.8l-0.9-0.4L283,182.4z"/>
	<polygon points="190.8,158.4 203.2,163.9 204.3,161.4 194.7,157.3 203.4,137.3 200.5,136 	"/>
	<polygon points="201.9,147.2 211.5,151.4 202.8,171.3 205.7,172.6 215.5,150.2 203,144.8 	"/>
	<polygon points="211,167.2 223.5,172.7 224.6,170.2 215,166.1 223.7,146.1 220.8,144.8 	"/>
	<polygon points="222.2,156 231.8,160.2 223.1,180.2 226,181.4 235.7,159 223.3,153.6 	"/>
	<polygon points="231.2,176 243.7,181.4 244.7,179 235.2,174.9 243.9,154.9 241,153.6 	"/>
	<polygon points="252,168.9 243.3,188.9 246.2,190.2 255.9,167.8 243.4,162.3 242.4,164.8 	"/>
	<polygon points="265,187.8 255.4,183.7 264.1,163.7 261.2,162.4 251.5,184.8 263.9,190.3 	"/>
	<polygon points="276.2,176.6 263.7,171.2 262.6,173.6 272.2,177.8 263.5,197.7 266.4,199 	"/>
	<path d="M127.7,100.5l1.1-2.4l-2.4-1c-0.4,0.8-0.9,1.5-1.3,2.3L127.7,100.5z"/>
	<path d="M115.2,95.1l9,3.9c0.4-0.8,0.9-1.5,1.3-2.3l-6.4-2.8l8.7-20l-2.9-1.3L115.2,95.1z"/>
	<path d="M126.4,83.8l5.8,2.5c0.5-0.7,1-1.5,1.6-2.2l-6.3-2.7L126.4,83.8z"/>
	<path d="M136,88l-8.7,20l2.9,1.3l9.8-22.4l-5.4-2.3c-0.5,0.7-1.1,1.5-1.6,2.2L136,88z"/>
	<polygon points="135.5,103.9 147.9,109.3 149,106.9 139.4,102.7 148.1,82.7 145.2,81.5 	"/>
	<polygon points="146.6,92.7 156.2,96.8 147.5,116.8 150.4,118.1 160.2,95.7 147.7,90.2 	"/>
	<polygon points="155.6,112.7 168.1,118.1 169.2,115.7 159.6,111.5 168.3,91.5 165.4,90.3 	"/>
	<polygon points="166.8,101.4 176.4,105.6 167.7,125.6 170.6,126.8 180.3,104.4 167.9,99 	"/>
	<polygon points="175.9,121.5 188.4,126.9 189.4,124.5 179.9,120.3 188.6,100.3 185.7,99.1 	"/>
	<polygon points="187.1,110.2 196.7,114.4 188,134.4 190.9,135.7 200.6,113.2 188.1,107.8 	"/>
	<polygon points="69.4,82.8 73.6,73.1 69.6,74.2 66.5,81.6 	"/>
	<polygon points="88.1,80.4 78.5,76.3 80.8,70.9 76.9,72.1 74.6,77.4 87.1,82.8 	"/>
	<polygon points="86.6,90.3 89.5,91.6 99.3,69.2 94.2,67 90.3,68.1 95.3,70.3 	"/>
	<polygon points="107.3,91.7 108.4,89.2 98.8,85.1 107.5,65.1 104.8,63.9 104.5,63.9 94.8,86.2 	"/>
	<polygon points="106,75 115.6,79.2 106.9,99.1 109.8,100.4 119.5,78 107.1,72.6 	"/>
	<path d="M277.7,165.8l8,3.5c0.1-1,0.1-1.9,0.2-2.8l-4.3-1.9l5.8-13.4c0.4-2.8,0.7-5.2,1.1-7.3l-1.1-0.5L277.7,165.8z"/>
	<polygon points="196.6,130.5 209.1,135.9 210.1,133.5 200.6,129.3 209.3,109.3 206.4,108.1 	"/>
	<polygon points="207.8,119.3 217.4,123.4 208.7,143.4 211.6,144.7 221.3,122.2 208.8,116.8 	"/>
	<polygon points="216.9,139.3 229.4,144.7 230.4,142.3 220.8,138.1 229.5,118.2 226.6,116.9 	"/>
	<polygon points="228.1,128.1 237.6,132.2 228.9,152.2 231.8,153.5 241.6,131.1 229.1,125.6 	"/>
	<polygon points="237.1,148.1 249.5,153.5 250.6,151.1 241,146.9 249.7,126.9 246.8,125.7 	"/>
	<polygon points="248.2,136.8 257.8,141 249.1,161 252,162.3 261.8,139.8 249.3,134.4 	"/>
	<polygon points="269.8,162.3 270.9,159.9 261.3,155.7 270,135.7 267.1,134.5 257.3,156.9 	"/>
	<polygon points="268.5,145.7 278.1,149.8 269.4,169.8 272.3,171.1 282,148.7 269.6,143.2 	"/>
	<polygon points="133.5,72.6 134.5,70.1 125,66 129,56.8 125,57.9 121,67.1 	"/>
	<path d="M133.1,80l2.8,1.2c0.1-0.1,0.1-0.2,0.2-0.3l9.6-22.1l-9.7-4.2l-3.8,1.1l0,0.1l9.6,4.2L133.1,80z"/>
	<path d="M142.1,74.1c1.9-1.9,3.8-3.7,5.8-5.4l6-13.9l-2.9-1.3L142.1,74.1z"/>
	<path d="M154.8,78.9l-9.6-4.2l1.8-4.2c-1.9,1.7-3.8,3.5-5.6,5.5l12.3,5.3L154.8,78.9z"/>
	<path d="M153.5,62.3l-1.1,2.4l0.5,0.2c0.9-0.6,1.8-1.2,2.8-1.7L153.5,62.3z"/>
	<path d="M156.8,63.7c-1,0.5-1.9,1.1-2.8,1.7l8.1,3.5l-8.7,20l2.9,1.3l9.2-21.2c-1.1-0.9-2.1-1.8-3.1-2.8L156.8,63.7z"/>
	<path d="M173.9,90.1l1.1-2.4l-9.6-4.2l4.7-10.8c-0.8-0.7-1.7-1.4-2.5-2.1l-6.1,14L173.9,90.1z"/>
	<path d="M173.5,97.6l2.9,1.3l7.7-17.8c-0.9-0.3-1.9-0.7-2.9-1.2L173.5,97.6z"/>
	<path d="M194.2,99l1.1-2.4l-9.6-4.2l4.1-9.5c-0.8-0.2-1.9-0.5-3.1-0.9l-5,11.5L194.2,99z"/>
	<path d="M200.2,84.5c-0.9,0-1.8-0.1-2.7-0.2l5,2.2l-8.7,20l2.9,1.3l9.8-22.4l-2.1-0.9c-1,0.1-2,0.1-3,0.1
		C200.9,84.5,200.6,84.5,200.2,84.5z"/>
	<polygon points="114.2,61.3 113.9,61.2 110,62.3 113.1,63.7 	"/>
	<polygon points="117.5,60.1 112.7,71.2 115.6,72.5 121.5,59 	"/>
	<path d="M291.1,120.2c0.6,1.6,1.2,2.9,1.7,4.1l3.4-7.7l-2.9-1.3L291.1,120.2z"/>
	<path d="M289.2,140.3c0.2-1,0.4-1.8,0.6-2.6l-2.3-1l4.8-11c-0.4-1.1-1-2.5-1.6-4.2l-7.1,16.3L289.2,140.3z"/>
	<polygon points="294.7,126.6 299.5,128.7 307.8,130.4 308.2,129.6 295.7,124.1 	"/>
	<polygon points="313.5,124.2 310.6,130.9 313.7,131.5 316.4,125.5 	"/>
	<polygon points="333.7,133 332.6,135.4 335.8,136 336.6,134.2 	"/>
	<path d="M214.9,108l1.1-2.4l-9.6-4.2l8.2-18.8c-1,0.3-1.6,0.5-1.6,0.5l-0.5,0.1v-0.1c-0.6,0.1-1.1,0.2-1.7,0.4l-8.3,19.1L214.9,108
		z"/>
	<polygon points="213.6,91.3 223.2,95.5 214.5,115.5 217.4,116.7 227.1,94.3 214.6,88.9 	"/>
	<polygon points="222.7,111.4 235.2,116.8 236.2,114.4 226.6,110.2 235.3,90.2 232.4,88.9 	"/>
	<polygon points="233.9,100.1 243.4,104.3 234.7,124.3 237.6,125.5 247.4,103.1 234.9,97.7 	"/>
	<polygon points="242.9,120.1 255.3,125.6 256.4,123.1 246.8,119 255.5,99 252.6,97.7 	"/>
	<polygon points="254,108.9 263.6,113.1 254.9,133 257.8,134.3 267.6,111.9 255.1,106.5 	"/>
	<polygon points="263.1,128.9 275.6,134.4 276.7,131.9 267.1,127.8 275.8,107.8 272.9,106.5 	"/>
	<polygon points="275.4,115.3 274.3,117.7 283.9,121.9 275.2,141.9 278.1,143.1 287.8,120.7 	"/>
	<path d="M154.6,49.2l-2.8,0.8l2.8,1.2C154.5,50.5,154.6,49.8,154.6,49.2z"/>
	<path d="M226.6,78.5c-1.1,0.5-2.2,0.9-3.4,1.4l-3.3,7.5l2.9,1.3l4.6-10.5C227.1,78.3,226.9,78.4,226.6,78.5z"/>
	<polygon points="141.8,53.4 141.9,52.9 141.3,53.1 	"/>
	<polygon points="309.6,118.7 322.1,124.1 323.2,121.7 313.6,117.5 322.3,97.5 319.4,96.3 	"/>
	<polygon points="320.8,107.5 330.4,111.6 321.7,131.6 324.6,132.9 334.3,110.5 321.9,105 	"/>
	<polygon points="333.9,126.3 342.6,106.4 339.7,105.1 329.9,127.5 342.4,132.9 343.4,130.5 	"/>
	<polygon points="342.1,113.8 341.1,116.3 350.7,120.4 343.2,137.5 346.4,138.1 354.6,119.3 	"/>
	<polygon points="354,135.1 355.1,132.6 358.7,116.6 350.1,136.3 354,138 354.5,135.3 	"/>
	<path d="M241.1,88.9l1.1-2.4l-9.6-4.2l4.5-10.4c-1.7,1.3-3.3,2.5-5,3.6l-3.5,7.9L241.1,88.9z"/>
	<polygon points="240.6,96.4 243.5,97.6 253.3,75.2 240.8,69.8 239.8,72.2 249.3,76.4 	"/>
	<path d="M261.3,97.7l1.1-2.4l-9.6-4.2l7.8-18c-0.8-0.8-1.6-1.5-2.5-2.3l-9.3,21.5L261.3,97.7z"/>
	<path d="M258.6,69.9c0.8,0.7,1.7,1.5,2.5,2.3l0.4-1L258.6,69.9L258.6,69.9z"/>
	<path d="M269.6,85.2l-8.7,20l2.9,1.3l8.5-19.4c-1.2-1.8-2.5-3.5-3.9-5.2l-7.3-3.2L260,81L269.6,85.2z"/>
	<path d="M272.7,86l0.8-1.9l-3.3-1.4C271.1,83.7,271.9,84.8,272.7,86z"/>
	<path d="M274,89.6l-5,11.5l12.5,5.4l1-2.4c0,0,0-0.1,0-0.1l-9.5-4.1l3.1-7.1C275.4,91.7,274.7,90.6,274,89.6z"/>
	<path d="M274.5,88.5c0.7,1.1,1.4,2.1,2.1,3.2l5.1-11.8l-2.9-1.3L274.5,88.5z"/>
	<path d="M281.1,113.9l2.9,1.3l1.9-4.4c-0.6-1.2-1.2-2.5-1.8-3.7L281.1,113.9z"/>
	<path d="M280.2,89.8l9.6,4.2l-5.2,12c0.6,1.3,1.2,2.5,1.8,3.7l7.3-16.9l-12.5-5.4L280.2,89.8z"/>
	<polygon points="289.3,109.9 301.8,115.3 302.8,112.8 293.2,108.7 301.9,88.7 299,87.4 	"/>
	<polygon points="300.5,98.6 310,102.8 301.3,122.8 304.2,124 314,101.6 301.5,96.2 	"/>
	<polygon points="307.6,87.3 308.7,84.9 299.1,80.7 305.8,65.4 302.7,64.5 295.1,81.9 	"/>
	<polygon points="307.4,68.2 306.3,70.7 315.9,74.8 307.2,94.8 310.1,96.1 319.8,73.7 	"/>
	<polygon points="327.9,96.2 328.9,93.7 319.4,89.6 327.1,71.7 324.1,70.8 315.4,90.7 	"/>
	<polygon points="336.2,83.7 327.5,103.6 330.4,104.9 340.1,82.5 327.6,77.1 326.6,79.5 	"/>
	<polygon points="349.1,102.5 339.5,98.3 348.2,78.3 345.4,77.1 345.3,77.1 335.6,99.5 348.1,104.9 	"/>
	<polygon points="360.3,91.3 347.8,85.8 346.8,88.3 356.3,92.4 347.6,112.4 350.5,113.7 	"/>
	<polygon points="360.7,107.5 359.8,107.2 361.7,102.8 365.2,86.8 355.8,108.3 360.1,110.2 	"/>
	<path d="M248.8,62.9c0.9,0.5,1.8,1,2.7,1.6l5.8-13.4l-3-0.9L248.8,62.9z"/>
	<path d="M246.4,68.4l2.9,1.3l1.8-4.2c-0.9-0.6-1.8-1.1-2.7-1.6L246.4,68.4z"/>
	<polygon points="267,69.7 268,67.2 258.5,63.1 263,52.8 259.9,51.9 254.5,64.2 	"/>
	<polygon points="275.3,57.2 266.6,77.2 269.5,78.4 278.6,57.4 269.8,54.8 	"/>
	<polygon points="287.3,78.5 288.3,76.1 278.7,71.9 284.3,59.1 281.3,58.2 274.8,73.1 	"/>
	<polygon points="286,61.8 295.5,66 286.8,86 289.7,87.2 299.5,64.8 290.5,60.9 286.8,59.8 	"/>
	<polygon points="336.3,77 337.2,74.7 334.2,73.8 333.4,75.7 	"/>
	<polygon points="358.6,81 355.6,80.1 353.6,84.5 356.5,85.8 	"/>
</g>
</svg>
