<?xml version="1.0" encoding="utf-8"?>
<!-- Generator: Adobe Illustrator 25.3.0, SVG Export Plug-In . SVG Version: 6.00 Build 0)  -->
<svg version="1.1" id="Layer_1" xmlns="http://www.w3.org/2000/svg" xmlns:xlink="http://www.w3.org/1999/xlink" x="0px" y="0px"
	 viewBox="0 0 750.2000122 400.1000061" style="enable-background:new 0 0 750.2000122 400.1000061;" xml:space="preserve">
<g>
	<path d="M154.6000366,49.1999817l-115.4000244,34l12.4000244,56.4000244l59.3999634-12
		c2.5-6.5999756,19.6000366-52.0999756,46.6000366-65.2999878c0.1999512-0.1000366,0.3999634-0.2000122,0.5999756-0.3000488
		C154.5,57.6000061,154.4000244,51.8999939,154.6000366,49.1999817z"/>
	<path d="M592.000061,48.1999817c-1.2000732-0.0999756-3.4000854-0.2999878-6.2000732-0.5
		c1.5999756,1.1000366,3.7000122,2.2000122,6.4000244,3.6000366c27.2000122,13.2999878,44.2999878,68.7000122,46.5,76.2999878
		l59.5,12l12.4000244-56.4000244L592.000061,48.1999817z"/>
	<path d="M384,83.1999817l12.3999634,56.4000244l59.3000488-12c2.2999878-7.5999756,19.4000244-63,46.6000366-76.2999878
		c2.7999878-1.4000244,5-2.6000366,6.7000122-3.7000122c-2.2000122,0.0999756-4,0.2000122-5.6000366,0.3999634L384,83.1999817z"/>
	<path d="M246.6000366,61.8000183c0.2999878,0.2000122,0.5999756,0.2999878,0.8999634,0.5
		c27,13.2000122,44.1000366,58.7000122,46.5,65.2999878h0.1000366h0.0999756l59.4000244,12L366,83.1999817L250.2000122,49.0000305
		C250.2000122,51.5000305,249.7000122,56.8999939,246.6000366,61.8000183z"/>
</g>
</svg>
