<?xml version="1.0" encoding="utf-8"?>
<!-- Generator: Adobe Illustrator 25.3.0, SVG Export Plug-In . SVG Version: 6.00 Build 0)  -->
<svg version="1.1" id="Layer_1" xmlns="http://www.w3.org/2000/svg" xmlns:xlink="http://www.w3.org/1999/xlink" x="0px" y="0px"
	 viewBox="0 0 750.2 400.1" style="enable-background:new 0 0 750.2 400.1;" xml:space="preserve">

<g>
	<path class="st0" d="M618.9,177.5c-7.2-0.6-14.4-1-21.6-1.2l1.5,9c7.1-0.6,14.2-1,21.4-1.2C619.8,181.9,619.3,179.7,618.9,177.5z"
		/>
	<path class="st0" d="M352,240.2c-6.8,3.1-13.5,6.2-20.3,9.2l0.8,4.7c6.8-2.8,13.5-5.7,20.3-8.6C352.5,243.7,352.3,242,352,240.2z"
		/>
	<path class="st0" d="M620.8,187.6c-0.2-1-0.4-1.9-0.6-2.9c0,0,0.1,0,0.1,0c0-0.2-0.1-0.4-0.1-0.6c-7.1,0.2-14.2,0.6-21.4,1.2l0.4,2
		c0,0-0.1,0-0.1,0l0.1,0.3C606.4,187.4,613.6,187.4,620.8,187.6z"/>
	<path class="st0" d="M401.9,217c-0.5,2.9-1,5.9-1.5,8.8c6.6-1.8,13.2-3.7,19.9-5.5l1.8-10.4c-6,2-12,4.1-18,6.1
		C403.4,216.4,402.6,216.7,401.9,217z"/>
	<path class="st0" d="M115.2,277.7c5.5,0.6,11,1.1,16.5,1.4l1-6c-5.7-0.3-11.4-0.7-17.1-1.3C115.5,273.8,115.3,275.8,115.2,277.7z"
		/>
	<path class="st0" d="M118.9,245.3c6,1.2,12.1,2.1,18.1,2.9l1.1-6.3c-6.2,0-12.4-0.2-18.6-0.6C119.3,242.7,119.1,244,118.9,245.3z"
		/>
	<path class="st0" d="M406,195.1c6.6-2.2,13.2-4.5,19.8-6.6l0.4-2.5c-6.7,2.8-13.4,5.6-20.1,8.4C406.1,194.6,406,194.9,406,195.1z"
		/>
	<path class="st0" d="M610.8,138.7c-6.7-0.1-13.3,0-20,0.2l1.5,8.7c6.7-0.8,13.4-1.4,20-1.8C611.8,143.4,611.3,141,610.8,138.7z"/>
	<path class="st0" d="M408.3,183.2c-0.5,2.3-0.9,4.7-1.4,7.1c6.9-4,13.8-7.9,20.6-11.7l0.1-0.8c-6.2,1.7-12.5,3.4-18.7,5.2
		C408.7,183.1,408.5,183.1,408.3,183.2z"/>
	<path class="st0" d="M337.2,216.9c3.5-0.9,6.9-1.9,10.4-2.8c-0.6-3.4-1.2-6.7-1.9-10.1c-6.9,2.2-13.9,4.4-20.8,6.5l1.3,7.4
		c0,0-0.1,0-0.1,0l0.4,1.8c3.5-0.9,7.1-1.9,10.5-2.8C337.1,216.9,337.1,216.9,337.2,216.9z"/>
	<path class="st0" d="M629.8,237.1c-7.2,0.3-14.4,0.8-21.6,1.6l1.3,7.5c7.1-0.9,14.3-1.6,21.4-2.1
		C630.6,241.8,630.2,239.4,629.8,237.1z"/>
	<path class="st0" d="M136.2,253.4l0.7-4.2c-3.8,0.7-7.7,1.5-11.8,2.6C128.8,252.4,132.5,253,136.2,253.4z"/>
	<path class="st0" d="M335.7,272.4l1.7,10c4-0.8,8-1.7,12.2-2.7c2.3-0.8,4.6-1.5,6.9-2.3c-0.3-3.6-0.6-7.6-1.1-11.9
		C348.8,267.8,342.3,270.1,335.7,272.4z"/>
	<path class="st0" d="M413.8,257.7l2.4-14c-6.6,2.3-13.2,4.7-19.7,7c-0.7,4.7-1.2,9.2-1.7,13.5C401.1,262,407.5,259.8,413.8,257.7z"
		/>
	<path class="st0" d="M624.2,204.7c-0.4,0-0.8-0.1-1.2-0.1c0.4,0,0.8-0.1,1.2-0.1c-0.5-2.7-1-5.3-1.5-8c-5.6,0.1-11.2,0.2-16.8,0.6
		c-1.6,0.1-3.2,0.2-4.8,0.3l2.7,15.3c7.3-0.4,14.6-0.7,21.9-0.7C625.1,209.6,624.6,207.1,624.2,204.7z"/>
	<path class="st0" d="M398,240.8c6.8-3,13.5-5.9,20.3-8.8l0.4-2.4c-6.7,2.3-13.4,4.7-20,7.1C398.4,238,398.2,239.4,398,240.8z"/>
	<path class="st0" d="M627.5,223.1c-7.3-0.1-14.7,0.1-22,0.5l2.6,15.1c7.2-0.8,14.4-1.3,21.6-1.7
		C629.1,232.5,628.3,227.8,627.5,223.1z"/>
	<path class="st0" d="M354.8,260.7C354.8,260.7,354.9,260.7,354.8,260.7c-0.2-1.6-0.4-3.2-0.6-4.8c-6.6,2.9-13.3,5.7-19.9,8.6
		l1.3,7.2c0,0,0,0-0.1,0l0.1,0.7c6.6-2.3,13.1-4.6,19.7-6.9C355.2,263.9,355,262.4,354.8,260.7z"/>
	<path class="st0" d="M354.3,255.8c-0.2-1.1-0.4-2.2-0.5-3.4c-6.8,2.4-13.6,4.7-20.3,6.9l0.9,5.1C341,261.6,347.7,258.7,354.3,255.8
		z"/>
	<path class="st0" d="M396.5,250.7c6.6-2.6,13.2-5.1,19.8-7.6l1.6-9.2c-6.7,2.5-13.4,5.1-20.1,7.6
		C397.4,244.6,396.9,247.7,396.5,250.7z"/>
	<path class="st0" d="M622.6,196.1c-0.5-2.4-0.9-4.8-1.4-7.1c-7.2,0-14.4,0.3-21.5,0.8l1.3,7.5c1.6-0.1,3.2-0.2,4.8-0.3
		C611.4,196.6,617,196.3,622.6,196.1z"/>
	<path class="st0" d="M409.6,281.8l1.1-6.4c-3.8,1.4-7.5,2.7-11.2,4.1C402.9,280.3,406.3,281.1,409.6,281.8z"/>
	<path class="st0" d="M634.1,269.8c-1.8,0.3-3.8,0.7-5.7,1.1c1.9-0.2,3.9-0.3,5.8-0.5C634.2,270.2,634.2,270,634.1,269.8z"/>
	<path class="st0" d="M612.3,260.1c-0.1,0-0.3,0.1-0.4,0.1l0.1,0.6c3.5-0.7,7.1-1.3,10.6-1.9C619.2,259.3,615.8,259.7,612.3,260.1z"
		/>
	<path class="st0" d="M633.6,263.6c-7,0.3-13.9,0.9-20.8,1.6l0.8,4.5c6.8-0.9,13.6-1.7,20.4-2.2
		C633.9,266.2,633.7,264.9,633.6,263.6z"/>
	<path class="st0" d="M138.7,141.1c5.5,1.4,10.9,2.6,16.4,3.6l1.4-8.3c-5.4-0.8-10.8-1.9-16.1-3.1
		C139.9,135.8,139.3,138.4,138.7,141.1z"/>
	<path class="st0" d="M329,123c-2.3,0.4-8.8,1.4-18.9,2.6l1.8,10.5c6.2-1.7,12.5-3.6,18.7-5.5C330.1,127.9,329.5,125.3,329,123z"/>
	<path class="st0" d="M134,163.3c6,0.1,11.9,0,17.9-0.2l0.6-3.6c-5.8-0.4-11.6-0.9-17.4-1.7C134.8,159.5,134.4,161.4,134,163.3z"/>
	<path class="st0" d="M131.9,173.2c5.7,2,11.5,3.8,17.2,5.3l1.2-6.3c-5.9-0.7-11.7-1.6-17.6-2.7C132.4,170.7,132.2,172,131.9,173.2z
		"/>
	<path class="st0" d="M420.4,125.7c-0.6,2.9-1.3,6-2.1,9.4c5.9-2,11.8-4,17.8-5.9l0.6-3.5c-5.1-0.5-9.1-1-11.9-1.4
		C423.3,124.8,421.8,125.3,420.4,125.7z"/>
	<path class="st0" d="M334.3,147.4c-6.5,1.8-13,3.6-19.5,5.3l2.7,15.5c6.7-1.9,13.3-3.9,20-5.8C336.4,157.1,335.3,152.1,334.3,147.4
		z"/>
	<path class="st0" d="M420.8,123.8c-0.1,0.3-0.1,0.6-0.2,0.8c0.5-0.2,1.1-0.4,1.6-0.6C421.7,123.9,421.2,123.9,420.8,123.8z"/>
	<path class="st0" d="M124.3,213.2c-0.1,0.7-0.3,1.5-0.4,2.2c3.4,0.6,6.7,1,10.1,1.5C130.7,215.7,127.5,214.5,124.3,213.2z"/>
	<path class="st0" d="M433.8,142.4v-0.2c-0.3,0.1-0.7,0.2-1,0.3C433.2,142.4,433.5,142.4,433.8,142.4z"/>
	<path class="st0" d="M411.3,168.2c6.4-2.4,12.8-4.8,19.2-7.2l2.6-14.9c-6.1,1.8-12.3,3.7-18.4,5.6
		C413.7,156.9,412.5,162.5,411.3,168.2z"/>
	<path class="st0" d="M340,174.8c-0.4,0.1-0.7,0.2-1.1,0.3c-0.7,0.4-1.4,0.8-2.2,1.2c-3.9,1-7.7,1.9-11.6,2.9
		c-1.8,0.5-3.6,1-5.5,1.5l2.8,15.8c6.9-1.9,13.8-3.8,20.7-5.8C342.1,185.3,341,180,340,174.8z"/>
	<path class="st0" d="M127.7,194.5c-1,5.1-1.9,10.2-2.9,15.3c6.1,1.5,12.1,2.8,18.2,3.8l2.9-16c-3.9-0.8-7.7-1.7-11.6-2.7
		C132.1,194.8,129.9,194.7,127.7,194.5z"/>
	<path class="st0" d="M608.7,129c-0.5-2.2-0.9-4.2-1.3-6c-2.3,0.4-8.8,1.4-18.9,2.6l0.6,3.5C595.6,128.9,602.1,128.8,608.7,129z"/>
</g>
</svg>
