<?xml version="1.0" encoding="utf-8"?>
<!-- Generator: Adobe Illustrator 25.3.0, SVG Export Plug-In . SVG Version: 6.00 Build 0)  -->
<svg version="1.1" id="Layer_1" xmlns="http://www.w3.org/2000/svg" xmlns:xlink="http://www.w3.org/1999/xlink" x="0px" y="0px"
	 viewBox="0 0 750.2 400.1" style="enable-background:new 0 0 750.2 400.1;" xml:space="preserve">
<path d="M111,127.6c2.5-6.6,19.6-52.1,46.6-65.3c0.2-0.1,0.4-0.2,0.6-0.3c-3.7-4.4-3.8-10.1-3.6-12.8l-115.4,34l12.4,56.4L111,127.6
	z"/>
<path d="M592,48.2c-1.2-0.1-3.4-0.3-6.2-0.5c1.6,1.1,3.7,2.2,6.4,3.6c27.2,13.3,44.3,68.7,46.5,76.3l59.5,12l12.4-56.4L592,48.2z"/>
<path d="M384,83.2l12.4,56.4l59.3-12c2.3-7.6,19.4-63,46.6-76.3c2.8-1.4,5-2.6,6.7-3.7c-2.2,0.1-4,0.2-5.6,0.4L384,83.2z"/>
<path d="M250.2,49c0,2.5-0.5,7.9-3.6,12.8c0.3,0.2,0.6,0.3,0.9,0.5c27,13.2,44.1,58.7,46.5,65.3h0.1h0.1l59.4,12L366,83.2L250.2,49z
	"/>
<path d="M247.1,63.2c-0.4-0.2-0.7-0.4-1.1-0.5c0,0,0,0.1-0.1,0.1c-4.8,6.8-13.3,13-19.3,15.7c-5.7,2.5-13.6,4.5-13.7,4.6l-0.5,0.1
	v-0.1c-3.7,0.9-7.5,1.4-11.1,1.4c-0.4,0-0.7,0-1.1,0c-2.8-0.1-5.6-0.5-8.2-1.1h0.1l-0.5-0.1c-0.1,0-7.2-1.4-13.5-4.9
	c-5.5-3.1-13.8-10.2-19.2-15.6c0,0,0,0,0-0.1c-0.3,0.1-0.6,0.3-0.9,0.4c-15.8,7.7-28.2,26.8-36.2,42.3h161.4
	C275.3,89.9,262.9,70.9,247.1,63.2z"/>
<path d="M118.1,155.3H287c0.2-1.4,0.3-2.7,0.5-3.9H117.7C117.8,152.6,118,153.9,118.1,155.3z"/>
</svg>
