<?xml version="1.0" encoding="utf-8"?>
<!-- Generator: Adobe Illustrator 25.3.0, SVG Export Plug-In . SVG Version: 6.00 Build 0)  -->
<svg version="1.1" id="Layer_1" xmlns="http://www.w3.org/2000/svg" xmlns:xlink="http://www.w3.org/1999/xlink" x="0px" y="0px"
	 viewBox="0 0 750.2 400.1" style="enable-background:new 0 0 750.2 400.1;" xml:space="preserve">
<polygon points="197,244.4 197,217.9 196.8,217.9 196.8,217.9 196.8,217.8 174.5,244.5 163.4,244.5 196.9,284.7 196.9,244.4 "/>
<polygon points="197,159.5 197,132.9 196.8,132.9 196.8,132.9 196.8,132.9 174.5,159.6 163.4,159.6 196.9,199.8 196.9,159.5 "/>
<path d="M117.8,336.9c3.2,0.3,7.2,0.6,11.9,1V329h-10.9C118.4,331.7,118.1,334.4,117.8,336.9z"/>
<path d="M154.5,339.4c2.8,0.1,5.8,0.3,8.8,0.4V329h-0.1L154.5,339.4z"/>
<path d="M196.8,302.3L196.8,302.3L174.5,329h-11.1l9.3,11.1c7.2,0.2,14.7,0.3,22.5,0.4c0.5,0,1,0,1.8,0v-11.7h0.1v-26.5H196.8
	L196.8,302.3z"/>
<polygon points="166.8,302.3 166.8,284.7 166.5,284.7 151.9,302.3 152.1,302.3 129.9,329 152.2,329 152.2,302.3 152.3,302.3 
	174.5,329 174.5,302.3 "/>
<path d="M121.6,284.7c-0.2,5.5-0.4,11-0.7,16.3l1.1,1.3v-17.6H121.6z"/>
<path d="M136.9,302.3v-17.6h0.2l14.7,17.6v-17.6h11.4v-40.2h-0.1l-33.5,40.2h7L122,302.3h-1.1c-0.3,5-0.6,9.9-1,14.7l10,12v-26.6
	H136.9z"/>
<polygon points="167,284.7 181.7,302.3 181.7,284.7 "/>
<polygon points="196.6,302.2 196.8,302.2 196.8,284.7 196.6,284.7 196.4,284.7 181.7,302.3 196.6,302.3 "/>
<path d="M122.2,244.5c0,10.3,0,20.7-0.3,30.9l7.8,9.3v-40.2H122.2z"/>
<path d="M271.4,302.3v-17.6h12.2c-0.2-7.5-0.4-15.1-0.5-22.7l-19,22.7h-7.4L271.4,302.3z"/>
<path d="M263.9,329h-22.3v-26.6h0.1L263.9,329v-26.6h-7.4v-17.6h-0.2l-14.7,17.6h0L219.3,329h11.1l-9.5,11.4
	c3.3-0.1,6.5-0.1,9.6-0.2V329h0.1l9.1,10.9c8.9-0.3,17.2-0.8,24.4-1.2V329h22.1v-2.1c-0.7-7-1.3-14.6-1.8-22.5L263.9,329z"/>
<path d="M283.6,287.6l-12.3,14.7h12.9C284,297.5,283.8,292.6,283.6,287.6z"/>
<path d="M226.6,302.3v-17.6h0.2l14.7,17.6v-17.6h-11v-40.2h0.1l33.5,40.2v-40.2H283c0-7.9,0.1-15.7,0.3-23.3l-19.4,23.3h-22.3v-26.6
	h0.1l22.2,26.6v-26.6h-7.4V200l-14.9,17.9h0l-22.2,26.6h11.1l-33.5,40.2h0.1l14.7,17.6v-17.6h14.7l-14.7,17.6h-14.6l22.2,26.6v-26.6
	H226.6z"/>
<path d="M283.8,202.9l-12.5,15h12C283.5,212.7,283.7,207.7,283.8,202.9z"/>
<path d="M121.2,200c0.2,5.6,0.4,11.5,0.6,17.6l0.2,0.3V200H121.2z"/>
<path d="M136.9,217.9V200L122,217.9h-0.2c0.1,5.6,0.2,11.4,0.3,17.3l7.8,9.3v-26.6H136.9z"/>
<polygon points="151.9,200 136.9,200 151.9,217.9 "/>
<polygon points="166.8,217.9 166.8,200 151.9,217.9 152.1,217.9 129.9,244.5 152.2,244.5 152.2,217.9 152.3,217.9 174.5,244.5 
	174.5,217.9 "/>
<polygon points="181.7,200 166.8,200 181.7,217.9 "/>
<polygon points="196.6,217.7 196.6,200 181.7,217.9 196.6,217.9 "/>
<polygon points="196.8,200 211.7,217.9 211.7,200 "/>
<polygon points="226.6,217.9 226.6,200 211.7,217.9 197.1,217.9 219.3,244.5 219.3,217.9 "/>
<polygon points="241.5,200 226.6,200 241.5,217.9 "/>
<polygon points="271.4,200 256.5,200 271.4,217.9 "/>
<path d="M118.6,159.6c0.3,3.2,0.6,6.6,0.9,10.4c0.4,5.7,0.8,12.1,1.2,19l9,10.8v-40.2H118.6z"/>
<polygon points="163.3,159.6 163.2,159.6 129.7,199.8 163.3,199.8 "/>
<path d="M285.3,174.3l-21.2,25.5H284C284.3,190.5,284.8,181.9,285.3,174.3z"/>
<polygon points="166.8,132.9 166.8,115.3 166.5,115.3 151.9,132.9 152.1,132.9 129.9,159.6 152.2,159.6 152.2,132.9 152.3,132.9 
	174.5,159.6 174.5,132.9 "/>
<path d="M112.1,115.3c-0.1,1.9-0.2,3.7-0.3,5.3l10.3,12.3v-17.6H112.1z"/>
<path d="M136.9,132.9v-17.6h0.2l14.7,17.6v-17.6h11.4V75.1h-0.1l-33.5,40.2h7L122,132.9h-7.9c0.8,2.4,1.6,5.7,2.5,10.6l13.3,16
	v-26.6H136.9z"/>
<polygon points="167,115.3 181.7,132.9 181.7,115.3 "/>
<polygon points="196.6,132.8 196.8,132.8 196.8,115.3 196.6,115.3 196.4,115.3 181.7,132.9 196.6,132.9 "/>
<path d="M116.6,75.1c-1.2,6.9-2.1,14.2-2.8,21.1l16,19.1V75.1H116.6z"/>
<path d="M192.1,83.3l0,0.1l-0.5-0.1c-0.1,0-7.2-1.4-13.5-4.9c-1.5-0.8-3.2-2-4.9-3.3h-9.8l33.5,40.2V84.2
	C195.3,84,193.7,83.7,192.1,83.3z"/>
<path d="M292.3,115.3c-0.6-8.2-1.5-19.2-3-30.3l-25.2,30.3h-7.4l14.7,17.6v-17.6h14.7l-14.7,17.6h14.7l-22.2,26.6h-22.3v-26.6h0.1
	l22.2,26.6v-26.6h-7.4v-17.6h-0.2l-14.7,17.6h0l-22.2,26.6h11.1l-33.5,40.2h33.6v-40.2h0.1l33.5,40.2v-40.2h22.1v-26.6h0.1v0
	l3.6,4.3c0.4-1.8,0.8-3.3,1.2-4.4h-4.8v-17.5H292.3z"/>
<path d="M129.9,56.4l-10,2.9c-0.3,0.9-0.5,1.9-0.7,2.9l10.7,12.8V56.4z"/>
<path d="M154.7,49.1l-1.5,0.4l1.4,1.7C154.6,50.4,154.6,49.7,154.7,49.1z"/>
<polygon points="152.2,49.9 150.5,50.3 129.9,75.1 152.2,75.1 "/>
<path d="M250.2,49c0.1,1.7-0.2,4.8-1.3,8.1l15,18V53L250.2,49z"/>
<path d="M226.6,132.9v-17.6h0.2l14.7,17.6v-17.6h-11V76.5c-0.8,0.4-1.5,0.9-2.2,1.2l-31.4,37.7h0.1l14.7,17.6v-17.6h14.7l-14.7,17.6
	h-14.6l22.2,26.6v-26.6H226.6z"/>
<path d="M286.2,75.1v-8.6c-0.6-2.6-1.2-5.1-1.8-7.5l-5.7-1.7l-14.8,17.7h-22.3v-7.2c-3.2,3.2-6.9,6-10.3,8.1l32.8,39.4V75.1H286.2z"
	/>
<path d="M296.4,105.9h0.1V91l-5.1,3.8c0.4,3.9,0.8,7.6,1.1,11.1c0,0,0,0.1,0,0.1h3.9V105.9z"/>
<polygon points="327.1,71.7 326.1,72.4 326.1,72.5 330,72.5 "/>
<polygon points="326.1,83.7 296.5,106 296.6,106 296.6,106 296.6,106.2 325.9,106.2 325.9,106.1 361,106.1 362.4,100 326.1,72.6 "/>
<path d="M295.1,62.2l-7.6,5.7c0.5,2.6,1,5.3,1.5,8.1h7.6v7.7h29.5l-27-20.3L295.1,62.2z"/>
<path d="M291.3,61.1l-5.8-1.7c0.2,0.6,0.3,1.1,0.4,1.7H291.3z"/>
<path d="M291.1,91h5.5l-6.1-4.6C290.7,87.9,290.9,89.4,291.1,91z"/>
<polygon points="326.1,134 326.1,128.5 320.3,132.9 "/>
<polygon points="353.6,139.6 359.1,114.8 331.9,135.2 "/>
<path d="M293.7,120.9h2.9l-3.1-2.3C293.6,119.4,293.6,120.2,293.7,120.9z"/>
<path d="M296.6,120.9l-2.8,2.1c0.1,2.2,0.2,3.8,0.2,4.6l0.1-0.1l0.1,0l0.1,0l4.5,0.9h27.3l-29.5-22.2V120.9z"/>
<path d="M109.1,106.2h2.7c0-0.1,0-0.1,0-0.2c0.1-0.8,0.1-1.5,0.2-2.3l-3,2.3h0.1v0V106.2z"/>
<path d="M89.6,76h19.5v7.7h5.2c0.8-5.6,1.7-11.1,2.7-16.3l-6.9-5.2l-4.2,1.2L89.6,75.8V76z"/>
<path d="M118.8,59.7l-5.8,1.7h5.4C118.5,60.8,118.6,60.3,118.8,59.7z"/>
<polygon points="89.6,68.3 75.3,72.5 89.6,72.5 "/>
<polygon points="89.6,91 109.1,91 89.6,76.3 "/>
<polygon points="89.6,105.9 89.6,106 108.9,106 108.9,105.9 109.1,105.9 109.1,91 89.6,105.6 "/>
<polygon points="45.1,81.5 45.1,83.7 40.2,87.4 44.3,106 44.4,106.2 45,106.2 45,106.1 89.6,106.1 53.5,79 "/>
<polygon points="39.3,83.2 39.4,83.7 45.1,83.7 42.9,82.1 "/>
<path d="M109.1,120.9l-12.8,9.6l14.1-2.8c0.1-2.1,0.4-9.7,1.2-19.5l-2.5-1.9V120.9z"/>
<polygon points="89.6,106.1 50.8,135.3 51.7,139.5 89.6,131.9 89.6,120.9 109.1,120.9 89.6,106.2 "/>
<path d="M463.3,61.4l-19.1,14.4V76h16.1C461.2,71.1,462.2,66.2,463.3,61.4z"/>
<path d="M463.4,60.9l-1.1-0.9l-3.6,1.1h4.7C463.4,61,463.4,61,463.4,60.9z"/>
<polygon points="444.2,65.4 420,72.5 444.2,72.5 "/>
<path d="M458.6,87.1l-14.4-10.9V91h13.9C458.3,89.7,458.5,88.4,458.6,87.1z"/>
<path d="M444.2,105.9v0.1h12.4c0,0,0-0.1,0-0.1c0.3-3.2,0.6-6.7,1-10.3l-13.4,10.1V105.9z"/>
<polygon points="399.7,78.5 399.7,83.7 386.3,93.8 389,106 389.1,106.2 399.6,106.2 399.6,106.1 444.2,106.1 405.3,76.9 "/>
<polygon points="384,83.2 384.1,83.7 399.7,83.7 394.7,80 "/>
<polygon points="394,128.5 399.7,128.5 392.8,123.3 "/>
<polygon points="396.4,139.5 399.7,138.9 399.7,128.5 394.8,132.2 "/>
<path d="M455.4,127.7c0-0.1,0-0.3,0-0.5l-0.8,0.6L455.4,127.7z"/>
<path d="M444.2,106.1l-43.1,32.5l43.1-8.7v-9h11.4c0.1-1.7,0.2-3.7,0.3-5.8l-11.7-8.8V106.1z"/>
<path d="M611.9,338.9v15.5c12.5-4.5,19.9-8.6,20-8.7l0,0c-0.3-2.2-0.6-4.5-0.8-6.8H611.9z"/>
<path d="M578.3,338.9v24.3c6-1,11.6-2.3,16.8-3.6L578.3,338.9L578.3,338.9z"/>
<path d="M544.9,311.4L544.9,311.4h-0.2v27.4h0.1v27c0.8,0,1.7,0,2.5,0c3.2,0,6.3-0.1,9.4-0.3l21.5-26.7h-11.1L544.9,311.4
	L544.9,311.4z"/>
<polygon points="589.8,311.4 575.1,293.2 574.8,293.2 574.8,311.4 567.1,311.4 567.1,338.9 589.4,311.4 589.4,311.4 589.4,338.9 
	611.8,338.9 589.5,311.4 "/>
<path d="M628.2,293.2h-8.6v18.2l8.9-11C628.4,298,628.3,295.6,628.2,293.2z"/>
<path d="M629,311.4h-9.4l-14.7-18.2h7l-33.5-41.5h-0.1v41.5h11.4v18.2l14.7-18.2h0.2v18.2h7.1v27.5l17.6-21.8
	C629.2,315.2,629.1,313.3,629,311.4z"/>
<polygon points="559.9,293.2 559.9,311.4 574.6,293.2 "/>
<polygon points="559.9,311.4 545.2,293.2 545,293.2 544.9,293.2 544.9,311.3 545,311.3 545,311.4 "/>
<path d="M627.6,251.6h-15.7v41.5l15.8-19.6C627.6,266.3,627.6,258.9,627.6,251.6z"/>
<polygon points="567.1,251.6 544.9,224 544.9,224.1 544.8,224.1 544.6,224.1 544.6,251.5 544.7,251.5 544.7,293.2 578.2,251.6 "/>
<path d="M466.3,293.2h3.9v18.2l14.7-18.2h-7.4l-10.9-13.5C466.6,284.2,466.5,288.7,466.3,293.2z"/>
<path d="M465.5,311.4h4.7l-4.4-5.5C465.7,307.7,465.6,309.6,465.5,311.4z"/>
<path d="M500.1,311.4l-14.7-18.2h-0.2v18.2h-7.4v27.5l22.2-27.5H500.1l-0.1,27.5h-22.3l-12.9-16c-0.4,5.6-0.9,11-1.5,16h14.2v13.7
	c5,1.9,11,3.9,17.8,5.8l15.7-19.4h0.1v23.2c6.7,1.3,13.8,2.4,21.3,3.1l-21.2-26.3h11.1L500.1,311.4L500.1,311.4z"/>
<path d="M544.7,293.2l-33.5-41.5h11.1l-22.2-27.5h0l-14.9-18.5v18.5h-7.4v27.5l22.2-27.5h0.1v27.5h-22.3l-10.9-13.5
	c0.1,4.5,0.1,9,0.1,13.5h10.6v41.5l33.5-41.5h0.1v41.5h-11v18.2l14.7-18.2h0.2v18.2h7.3v27.5l22.2-27.5h-14.6l-14.7-18.2h14.7v18.2
	l14.7-18.2H544.7z"/>
<path d="M466.6,224.1h3.7l-3.8-4.7C466.5,221,466.5,222.5,466.6,224.1z"/>
<path d="M628.5,205.6h-8.9v18.5l8.6-10.7C628.3,210.8,628.4,208.2,628.5,205.6z"/>
<path d="M611.8,224.1v27.5l16.1-19.9c0-2.6,0.1-5.1,0.1-7.6h-8.3l-14.9-18.5v18.5H611.8z"/>
<polygon points="589.8,205.6 589.8,224.1 604.7,205.6 "/>
<polygon points="589.4,224.1 589.4,251.6 611.8,251.6 589.5,224.1 589.8,224.1 574.8,205.6 574.8,224.1 567.1,224.1 567.1,251.6 
	589.4,224.1 "/>
<polygon points="559.9,224.1 574.8,205.6 559.9,205.6 "/>
<polygon points="545,224 545,224.1 559.9,224.1 545,205.6 "/>
<polygon points="529.9,205.6 529.9,224.1 544.9,205.6 "/>
<polygon points="522.3,224.1 522.3,251.6 544.6,224.1 529.9,224.1 515,205.6 515,224.1 "/>
<polygon points="500.1,205.6 500.1,224.1 515,205.6 "/>
<polygon points="470.3,224.1 485.2,205.6 470.3,205.6 "/>
<path d="M630.3,170c0.2-2.2,0.3-4.2,0.5-6.1h-18.9v41.5l17.5-21.7C629.7,178.6,630,174,630.3,170z"/>
<path d="M634.1,136.4v3.2c0.2-0.9,0.4-1.8,0.6-2.6L634.1,136.4L634.1,136.4z"/>
<polygon points="578.4,163.9 578.3,163.9 578.3,205.4 611.9,205.4 "/>
<polygon points="544.9,136.4 544.8,136.4 544.6,136.4 544.6,163.8 544.7,163.8 544.7,205.4 578.2,163.9 567.1,163.9 544.9,136.3 "/>
<path d="M466.1,205.4h11.5l-12.1-15C465.7,195.1,465.9,200.2,466.1,205.4z"/>
<polygon points="589.8,136.4 575.1,118.2 574.8,118.2 574.8,136.4 567.1,136.4 567.1,163.9 589.4,136.4 589.4,136.4 589.4,163.9 
	611.8,163.9 589.5,136.4 "/>
<polygon points="619.6,118.2 619.6,136.4 634.3,118.2 "/>
<polygon points="578.3,76.6 578.3,118.2 589.8,118.2 589.8,136.4 604.4,118.2 604.7,118.2 604.7,136.4 611.8,136.4 611.8,163.9 
	634,136.4 619.6,136.4 604.9,118.2 611.9,118.2 578.4,76.6 "/>
<polygon points="559.9,118.2 559.9,136.4 574.6,118.2 "/>
<polygon points="559.9,136.4 545.2,118.2 545,118.2 544.9,118.2 544.9,136.2 545,136.2 545,136.4 "/>
<path d="M611.9,76.6v41.5L634.7,90c-0.5-4.3-1.2-8.8-2-13.4H611.9z"/>
<polygon points="567.1,76.6 544.9,49 544.9,49.1 544.8,49.1 544.6,49.1 544.6,76.5 544.7,76.5 544.7,118.2 578.2,76.6 "/>
<path d="M456.8,118.2h13.5v18.2l14.7-18.2h-7.4l-18.8-23.4C457.7,103.9,457.1,112.1,456.8,118.2z"/>
<path d="M456.3,128.2L456.3,128.2l0.3,0c0,0,0,0.1,0,0.1c0.7,0.9,1.9,3,3.2,8.1h10.5l-13.6-16.8
	C456.4,124.4,456.4,127.5,456.3,128.2z"/>
<path d="M522.3,163.9l-22.2-27.5h0l-14.7-18.2h-0.2v18.2h-7.4v27.5l22.2-27.5h0.1v27.5h-22.3l-16.5-20.5c0.9,5,1.8,11.7,2.5,20.5
	h13.8v41.5l33.5-41.5h0.1v41.5h33.6l-33.5-41.5H522.3z"/>
<polygon points="611.8,54 611.8,76.6 626.5,58.3 "/>
<path d="M589.8,48v1.1l0.8-1C590.3,48,590.1,48,589.8,48z"/>
<path d="M589.4,49.1v27.5h22.3L589.4,49.1h0.3l-0.9-1.1c-3.3-0.2-8.2-0.5-14-0.8v1.9h-7.7v27.5L589.4,49.1L589.4,49.1z"/>
<path d="M559.9,46.6v2.5l2-2.4C561.2,46.6,560.6,46.6,559.9,46.6z"/>
<path d="M557.9,46.6c-4-0.1-8.1-0.1-12.2-0.1c-0.2,0-0.5,0-0.7,0V49v0.1h14.9L557.9,46.6z"/>
<path d="M529.9,46.6v2.4l2-2.5C531.3,46.6,530.6,46.6,529.9,46.6z"/>
<path d="M529.9,49.1l-1.9-2.4c-4.7,0.2-9.1,0.3-13,0.5v1.8h7.3v27.5l22.2-27.5H529.9z"/>
<polygon points="500.1,48.9 500.1,49.1 500.3,48.8 "/>
<path d="M515,118.2v18.2h7.3v27.5l22.2-27.5h-14.6l-14.7-18.2h14.7v18.2l14.7-18.2h0.1l-33.5-41.5h11.1l-22.2-27.5h0l-0.1-0.1
	l-22.3,6.6v21.1l22.2-27.5h0.1v27.5h-22.3l-13.1-16.3c-1.3,5.3-2.4,10.8-3.4,16.3h16.3v41.5L511,76.6h0.1v41.5h-11v18.2l14.7-18.2
	H515z"/>
<path d="M651.1,105.9h0.1V91L637,101.7c0.1,1.4,0.3,2.8,0.4,4.2c0,0,0,0.1,0,0.1h13.7V105.9z"/>
<polygon points="684.4,75.4 680.7,74.3 680.7,83.7 651.1,106 651.2,106 651.2,106 651.2,106.2 680.6,106.2 680.6,106.1 705.7,106.1 
	708.5,93.5 "/>
<path d="M646.9,64.3l-13.6,10.2c0.1,0.5,0.2,1,0.3,1.5h17.6v7.7h29.5l-20.6-15.5L646.9,64.3z"/>
<path d="M631.7,61.1h4.3l-5.9-1.7c0.6,2.2,1.1,4.5,1.6,6.8V61.1z"/>
<path d="M635.8,91h15.4l-17.3-13C634.7,82.4,635.3,86.7,635.8,91z"/>
<polygon points="680.7,136 680.7,128.5 672.9,134.4 "/>
<polygon points="698.3,139.6 701.8,123.7 684.5,136.8 "/>
<polygon points="651.2,120.9 641.6,128.1 651.2,130.1 651.2,128.5 680.7,128.5 651.2,106.3 "/>
<path d="M638.3,120.9h12.9l-13.5-10.2C638,114.7,638.2,118.2,638.3,120.9z"/>
</svg>
