<?xml version="1.0" encoding="utf-8"?>
<!-- Generator: Adobe Illustrator 25.3.0, SVG Export Plug-In . SVG Version: 6.00 Build 0)  -->
<svg version="1.1" id="Layer_1" xmlns="http://www.w3.org/2000/svg" xmlns:xlink="http://www.w3.org/1999/xlink" x="0px" y="0px"
	 viewBox="0 0 750.2 400.1" style="enable-background:new 0 0 750.2 400.1;" xml:space="preserve">
<g>
	<path d="M118.8,161.4c0.2,2.4,0.5,5,0.7,7.8h166.2c0.2-2.8,0.4-5.4,0.7-7.8H118.8z"/>
	<path d="M121.9,223.9c0.1,2.6,0.1,5.2,0.1,7.8h161.1c0-2.6,0.1-5.2,0.1-7.8H121.9z"/>
	<path d="M303.2,64.6l-2.4-0.7L289,115.1c0.6,1.4,1.2,2.7,1.7,3.9L303.2,64.6z"/>
	<polygon points="323.8,133.6 337.4,74.8 335,74 321.4,133.1 	"/>
	<path d="M117.2,112.7l-11.4-49.2l-2.4,0.7l12.1,52.3C116,115.3,116.6,114,117.2,112.7z"/>
	<polygon points="85.3,132.8 71.6,73.7 69.2,74.4 82.8,133.3 	"/>
	<path d="M460.1,114.4l-11.6-50.2l-2.4,0.7l12.5,53.9C459,117.5,459.5,116,460.1,114.4z"/>
	<polygon points="427.8,133.2 414.2,74.3 411.8,75 425.4,133.7 	"/>
	<path d="M647.6,64.6l-2.4-0.7L633.8,113c0.6,1.5,1.1,3,1.6,4.3L647.6,64.6z"/>
	<polygon points="679.4,74 665.8,133.1 668.2,133.6 681.8,74.7 	"/>
</g>
</svg>
