<?xml version="1.0" encoding="utf-8"?>
<!-- Generator: Adobe Illustrator 25.3.0, SVG Export Plug-In . SVG Version: 6.00 Build 0)  -->
<svg version="1.1" id="Layer_1" xmlns="http://www.w3.org/2000/svg" xmlns:xlink="http://www.w3.org/1999/xlink" x="0px" y="0px"
	 viewBox="0 0 750.2 400.1" style="enable-background:new 0 0 750.2 400.1;" xml:space="preserve">
<path d="M630.3,170c0.1-0.9,0.1-1.8,0.2-2.6H464.2c0.1,0.9,0.1,1.7,0.2,2.6c1,13.2,1.9,33.3,2.4,55.9h161.1
	C628.4,203.3,629.3,183.2,630.3,170z"/>
<path d="M467.1,249.4c0.1,34.4-1,71.1-4.5,96.9c7.2,3.4,43.2,19.6,84.9,19.6c48.6,0,84.3-19.9,84.7-20.1
	c-3.6-25.9-4.7-62.2-4.6-96.4H467.1z"/>
<path d="M285.6,170c0.1-0.9,0.1-1.8,0.2-2.6H119.3c0.1,0.8,0.1,1.7,0.2,2.5c1.1,14.9,2,34.6,2.4,56h161.3
	C283.6,204.6,284.5,184.8,285.6,170z"/>
<path d="M195.1,340.4c1,0,2.6,0,4.8,0h3.5h2.1c2.2,0,3.8,0,4.8,0c33.9-0.1,63.3-2.3,77.1-3.5c-3.2-23.7-4.4-56-4.4-87.5H122.1
	c0,31.5-1.2,63.8-4.4,87.4C131.5,338,160.9,340.2,195.1,340.4z"/>
</svg>
