<?xml version="1.0" encoding="utf-8"?>
<!-- Generator: Adobe Illustrator 25.3.0, SVG Export Plug-In . SVG Version: 6.00 Build 0)  -->
<svg version="1.1" id="Layer_1" xmlns="http://www.w3.org/2000/svg" xmlns:xlink="http://www.w3.org/1999/xlink" x="0px" y="0px"
	 viewBox="0 0 750.2 400.1" style="enable-background:new 0 0 750.2 400.1;" xml:space="preserve">
<path d="M130.3,181.7l17.9,2.7l0.7-3.8l-17.8-2.7C130.8,179.1,130.5,180.4,130.3,181.7z"/>
<path d="M139.5,234l0.7-3.8l-18.4-2.7c-0.2,1.3-0.4,2.6-0.6,3.8L139.5,234z"/>
<path d="M408.6,181.9l17.9,2.7l0.7-3.8l-17.8-2.7C409.1,179.4,408.8,180.6,408.6,181.9z"/>
<path d="M418.5,230.4l-18.4-2.7c-0.2,1.3-0.4,2.6-0.6,3.9l18.4,2.7L418.5,230.4z"/>
<path d="M598,180.4l0.7,3.8l21-3.1c-0.3-1.3-0.5-2.6-0.8-3.8L598,180.4z"/>
<path d="M628.1,226.8l-21.5,3.2l0.7,3.8l21.5-3.2C628.6,229.4,628.3,228.1,628.1,226.8z"/>
<path d="M320.4,184.6l21-3.1c-0.3-1.3-0.5-2.6-0.8-3.8l-20.9,3.1L320.4,184.6z"/>
<path d="M349.9,227.2l-21.5,3.2l0.7,3.8l21.4-3.2C350.3,229.8,350.1,228.5,349.9,227.2z"/>
</svg>
