<?xml version="1.0" encoding="utf-8"?>
<!-- Generator: Adobe Illustrator 25.3.0, SVG Export Plug-In . SVG Version: 6.00 Build 0)  -->
<svg version="1.1" id="Layer_1" xmlns="http://www.w3.org/2000/svg" xmlns:xlink="http://www.w3.org/1999/xlink" x="0px" y="0px"
	 viewBox="0 0 750.2 400.1" style="enable-background:new 0 0 750.2 400.1;" xml:space="preserve">
<g>
	<path d="M543.5,89.7l-38.7-38.7c-0.7,0.3-1.3,0.7-2.1,1c-0.1,0-0.1,0.1-0.2,0.1l40.1,40.1l0.8,0.8l43.6-43.6
		c-0.7-0.4-1.4-0.9-2-1.3L543.5,89.7z"/>
	<path d="M543.7,119.7l-55.6-55.6c-0.5,0.6-1,1.2-1.5,1.8l56.3,56.3l0.8,0.8l61-61c-0.5-0.6-1.1-1.1-1.6-1.7L543.7,119.7z"/>
	<path d="M543.8,149.7l-67.9-67.9c-0.4,0.7-0.8,1.4-1.2,2.2l68.2,68.2l0.8,0.8l73.6-73.6c-0.4-0.7-0.8-1.4-1.3-2.1L543.8,149.7z"/>
	<path d="M543.9,182.7L465.2,104c-0.3,0.8-0.7,1.6-1,2.4l78.8,78.8l0.8,0.8l84.5-84.5c-0.3-0.8-0.7-1.6-1-2.3L543.9,182.7z"/>
	<path d="M544,212.6L457.4,126c-0.3,1-0.5,1.8-0.7,2.2c0.2,0.3,0.5,0.7,0.8,1.3l85.7,85.7l0.8,0.8l92.5-92.5
		c-0.2-0.8-0.5-1.6-0.8-2.5L544,212.6z"/>
	<path d="M544.1,242.6l-80.4-80.4c0.1,1.2,0.2,2.4,0.3,3.7l79.2,79.2l0.8,0.8l87.1-87.1c0.1-1.3,0.3-2.6,0.4-3.8L544.1,242.6z"/>
	<path d="M544.3,272.6l-78.5-78.5c0.1,1.1,0.1,2.3,0.1,3.5l77.5,77.5l0.8,0.8l84.8-84.8c0.1-1.2,0.1-2.4,0.2-3.5L544.3,272.6z"/>
	<path d="M544.3,301.6L466.8,224c0,1.1,0,2.3,0.1,3.4l76.7,76.7l0.8,0.8l83.7-83.7c0-1.2,0.1-2.3,0.1-3.4L544.3,301.6z"/>
	<path d="M544.5,331.6l-77.4-77.4c0,1.1,0,2.2,0,3.3l76.5,76.5l0.8,0.8l83.1-83.1c0-1.1,0-2.2,0-3.4L544.5,331.6z"/>
	<path d="M544.6,361.5l-77.8-77.8c0,1.1-0.1,2.2-0.1,3.3l77.1,77.1l0.8,0.8l83.3-83.3c0-1.1,0-2.2-0.1-3.3L544.6,361.5z"/>
	<path d="M465.5,315.6l46.7,46.7c1.4,0.3,2.7,0.5,4.1,0.8l-50.6-50.6C465.6,313.5,465.5,314.6,465.5,315.6z"/>
	<path d="M572,364.2c1.3-0.2,2.6-0.4,3.9-0.6l53.1-53.1c-0.1-1.1-0.1-2.1-0.2-3.2L572,364.2z"/>
	<path d="M613.2,354.1c1.9-0.7,3.7-1.4,5.4-2.1l12.7-12.7c-0.1-1-0.2-2-0.3-3L613.2,354.1z"/>
	<path d="M463.3,340.9c-0.1,1-0.2,2-0.4,3l4.6,4.6c1.6,0.7,3.5,1.5,5.7,2.4L463.3,340.9z"/>
	<path d="M542.6,62.3l0.8,0.8L560,46.5c-1.1,0-2.2-0.1-3.3-0.1l-13.3,13.3l-13.2-13.2c-1.1,0-2.2,0.1-3.2,0.1L542.6,62.3z"/>
	<path d="M495.8,56.6c-0.6,0.5-1.2,1-1.8,1.5l48.7,48.7l0.8,0.8l52.9-52.9c-0.7-0.5-1.3-0.9-2-1.3l-50.9,50.9L495.8,56.6z"/>
	<path d="M481.7,72.5c-0.5,0.7-0.9,1.3-1.3,2l62.4,62.4l0.8,0.8l67.6-67.6c-0.5-0.6-0.9-1.3-1.4-1.9l-66.2,66.2L481.7,72.5z"/>
	<path d="M470.9,91.5c-0.4,0.8-0.7,1.5-1.1,2.3l73.2,73.2l0.8,0.8l78.8-78.8c-0.4-0.7-0.7-1.5-1.1-2.2l-77.6,77.6L470.9,91.5z"/>
	<path d="M461.2,114.6c-0.3,0.9-0.6,1.7-0.9,2.5l82.8,82.8l0.8,0.8l88.6-88.6c-0.3-0.8-0.6-1.6-0.9-2.4l-87.7,87.7L461.2,114.6z"/>
	<path d="M461.6,144.9c0.2,1.2,0.4,2.5,0.6,3.9l81,81l0.8,0.8l89.8-89.8c0.3-1.6,0.6-3,0.9-4.3L544,227.3L461.6,144.9z"/>
	<path d="M465,178.1c0.1,1.2,0.1,2.3,0.2,3.6l78.1,78.1l0.8,0.8l85.8-85.8c0.1-1.2,0.2-2.4,0.3-3.6l-86.1,86.1L465,178.1z"/>
	<path d="M466.4,211.4c0,1.1,0.1,2.3,0.1,3.4l76.9,76.9l0.8,0.8l84.1-84.1c0-1.2,0.1-2.3,0.1-3.5l-84.2,84.2L466.4,211.4z"/>
	<path d="M467,237.9c0,1.1,0,2.3,0,3.4l76.5,76.5l0.8,0.8l83.4-83.4c0-1.1,0-2.3,0.1-3.4l-83.4,83.4L467,237.9z"/>
	<path d="M467,267.8c0,1.1,0,2.2,0,3.3l76.6,76.6l0.8,0.8l83.2-83.2c0-1.1,0-2.2,0-3.3l-83.2,83.2L467,267.8z"/>
	<path d="M557.5,365.6l70.8-70.8c0-1.1-0.1-2.2-0.1-3.2L554,365.8C555.2,365.7,556.4,365.7,557.5,365.6z"/>
	<path d="M466.3,300.2l64.9,64.9c1.2,0.1,2.4,0.2,3.7,0.3L466.4,297C466.3,298.1,466.3,299.2,466.3,300.2z"/>
	<path d="M629.6,320.3l-41,41c1.5-0.3,3-0.7,4.4-1l36.9-36.9C629.8,322.4,629.7,321.3,629.6,320.3z"/>
	<path d="M464.5,328.4l29.6,29.6c1.5,0.4,3,0.9,4.6,1.3l-33.9-33.9C464.7,326.3,464.6,327.4,464.5,328.4z"/>
	<path d="M543.4,77.8L574.2,47c-1,0-2.1-0.1-3.2-0.1l-27.6,27.6l-27.3-27.3c-1.1,0.1-2.2,0.1-3.2,0.2l29.7,29.7L543.4,77.8z"/>
	<path d="M202.5,131.2L260.6,73c-0.6-0.6-1.1-1.1-1.7-1.6l-56.4,56.4l-56.4-56.4c-0.6,0.5-1.2,1.1-1.7,1.6l57.3,57.3L202.5,131.2z"
		/>
	<path d="M202.6,161.2l71.5-71.5c-0.4-0.7-0.9-1.3-1.3-2l-70.1,70.1l-70.2-70.2c-0.5,0.7-0.9,1.3-1.3,2l70.7,70.7L202.6,161.2z"/>
	<path d="M202.7,191.1l82.2-82.2c-0.4-0.7-0.7-1.5-1.1-2.2l-81.1,81.1l-81.4-81.4c-0.4,0.8-0.7,1.5-1.1,2.2l81.7,81.7L202.7,191.1z"
		/>
	<path d="M202.8,224.1l87.1-87.1c0.5-1.9,0.9-3.4,1.3-4.7l-88.4,88.4l-89.3-89.3c0.4,1.2,0.9,2.8,1.4,4.8l87,87L202.8,224.1z"/>
	<path d="M203,254.1l82.5-82.5c0-0.5,0.1-1.1,0.1-1.6c0.1-0.7,0.1-1.4,0.2-2L203,250.8l-83.7-83.7c0.1,0.9,0.1,1.9,0.2,2.8
		c0,0.3,0,0.5,0.1,0.8l82.6,82.6L203,254.1z"/>
	<path d="M203.1,284.1l80.7-80.7c0-1.2,0.1-2.3,0.1-3.5l-80.9,80.9l-82-82c0,1.2,0.1,2.3,0.1,3.5l81,81L203.1,284.1z"/>
	<path d="M203.2,314.1l79.9-79.9c0-1.1,0-2.3,0-3.4l-79.9,79.9L122,229.5c0,1.1,0,2.3,0,3.4l80.4,80.4L203.2,314.1z"/>
	<path d="M203.4,340.4h2.1c0.2,0,0.3,0,0.4,0l77.1-77.1c0-1.1,0-2.2,0-3.3l-79.7,79.7l-81.2-81.2c0,1.1,0,2.2,0,3.3l78.6,78.6H203.4
		z"/>
	<path d="M283.8,292.6c0-1.1-0.1-2.1-0.1-3.2L233.1,340c1.2,0,2.3-0.1,3.5-0.1L283.8,292.6z"/>
	<path d="M173.8,340l-52.3-52.3c0,1.1-0.1,2.2-0.1,3.2l49,49C171.5,340,172.6,340,173.8,340z"/>
	<path d="M285.6,320.9c-0.1-1-0.2-2-0.3-3.1l-20.8,20.8c1.2-0.1,2.4-0.2,3.6-0.2L285.6,320.9z"/>
	<path d="M142.5,338.6L119.9,316c-0.1,1-0.2,2.1-0.3,3.1l19.3,19.3C140.1,338.5,141.3,338.5,142.5,338.6z"/>
	<path d="M181,79.8l20.5,20.5l0.8,0.8L224,79.5c-1.7,0.7-3.5,1.2-5.1,1.8l-16.6,16.6l-16-16C184.8,81.4,182.9,80.7,181,79.8z"/>
	<path d="M202.5,145.9l65.1-65.1c-0.5-0.6-1-1.2-1.5-1.8l-63.6,63.6L138.9,79c-0.5,0.6-1,1.2-1.5,1.8l64.2,64.2L202.5,145.9z"/>
	<path d="M202.6,175.9l77.1-77.1c-0.4-0.7-0.8-1.4-1.2-2.1l-75.8,75.8l-75.9-75.9c-0.4,0.7-0.8,1.4-1.2,2.1l76.3,76.3L202.6,175.9z"
		/>
	<path d="M202.7,205.8l86.8-86.8c-0.3-0.7-0.7-1.5-1-2.3l-85.8,85.8l-86.1-86.1c-0.4,0.8-0.7,1.6-1,2.3l86.3,86.3L202.7,205.8z"/>
	<path d="M202.8,238.8l84.2-84.2c0.2-1.3,0.3-2.6,0.5-3.8l-84.7,84.7l-85.3-85.3c0.2,1.2,0.3,2.5,0.5,3.8l84,84L202.8,238.8z"/>
	<path d="M203,268.8l81.6-81.6c0.1-1.2,0.1-2.4,0.2-3.5L203,265.4l-82.6-82.6c0.1,1.2,0.1,2.3,0.2,3.5l81.6,81.6L203,268.8z"/>
	<path d="M203.1,298.8l80.3-80.3c0-1.2,0.1-2.3,0.1-3.4l-80.4,80.4L121.6,214c0,1.1,0.1,2.3,0.1,3.4l80.5,80.5L203.1,298.8z"/>
	<path d="M203.2,330.7L283,251c0-1.1,0-2.2,0-3.3l-79.8,79.8l-81.1-81.1c0,1.1,0,2.2,0,3.3l80.2,80.2L203.2,330.7z"/>
	<path d="M190.3,340.4L121.9,272c0,1.1,0,2.2-0.1,3.3l65,65C188,340.3,189.1,340.3,190.3,340.4z"/>
	<path d="M219.7,340.3l63.6-63.6c0-1.1-0.1-2.2-0.1-3.3l-66.9,66.9C217.4,340.3,218.6,340.3,219.7,340.3z"/>
	<path d="M284.5,305.6c-0.1-1-0.1-2.1-0.2-3.2l-37,37c1.2-0.1,2.4-0.1,3.5-0.2L284.5,305.6z"/>
	<path d="M159.6,339.5l-38.7-38.7c-0.1,1.1-0.1,2.1-0.2,3.2l35.4,35.4C157.2,339.4,158.4,339.5,159.6,339.5z"/>
	<path d="M127.8,337.6l-9.1-9.1c-0.1,1-0.2,2-0.3,3l5.8,5.8C125.3,337.4,126.6,337.5,127.8,337.6z"/>
	<path d="M286.9,333.3c-0.1-1-0.2-2-0.4-3l-7.3,7.3c1.3-0.1,2.5-0.2,3.6-0.3L286.9,333.3z"/>
	<path d="M202.4,115.9l49.8-49.8c-0.7-0.5-1.4-0.9-2.1-1.3l-47.7,47.7l-47.6-47.6c-0.7,0.4-1.4,0.8-2,1.3l48.9,48.9L202.4,115.9z"/>
</g>
</svg>
