<?xml version="1.0" encoding="utf-8"?>
<!-- Generator: Adobe Illustrator 25.3.0, SVG Export Plug-In . SVG Version: 6.00 Build 0)  -->
<svg version="1.1" id="Layer_1" xmlns="http://www.w3.org/2000/svg" xmlns:xlink="http://www.w3.org/1999/xlink" x="0px" y="0px"
	 viewBox="0 0 750.2 400.1" style="enable-background:new 0 0 750.2 400.1;" xml:space="preserve">
<g>
	<path d="M293.2,128.3l-0.2,0c0-0.4-1.7-44.1-8.7-69.3L250.2,49c0.1,2.7-0.5,8.7-4.1,13.8c-4.8,6.8-13.3,13-19.3,15.7
		c-5.7,2.5-13.6,4.5-13.7,4.6l-0.5,0.1l0-0.1c-3.7,0.9-7.5,1.4-11.1,1.4c-0.4,0-0.7,0-1.1,0c-2.8-0.1-5.6-0.5-8.2-1.1l0,0.1
		l-0.5-0.1c-0.1,0-7.2-1.4-13.5-4.9c-5.5-3.1-13.8-10.2-19.2-15.6c-4.4-4.5-4.6-10.7-4.3-13.7l-34.7,10.3
		c-6.6,24.1-8.4,64.7-8.6,68.7l0.8,0.6c1.1,1.6,2.9,5.8,4.7,16.8l76.6,14.2l9.8,1.5l85-15.8C290.2,133.7,292.2,129.7,293.2,128.3z"
		/>
	<path d="M285.5,59.4c6.4,23.7,8.3,62.8,8.5,68.3l0.1-0.1l0.1,0l0.1,0l59.4,12l12.4-56.4L285.5,59.4z"/>
	<path d="M110.4,127.7c0.2-5.2,2.1-44.3,8.4-68L39.3,83.2l12.4,56.4L110.4,127.7z"/>
	<path d="M463.7,59.6L384,83.2l12.4,56.4l59-11.9C455.5,122.6,456.6,88.3,463.7,59.6z"/>
	<path d="M630.1,59.4c7.2,28.6,8.3,62.9,8.4,68.2l0.2-0.2c0,0.1,0,0.1,0.1,0.2l0,0l59.5,12l12.4-56.4L630.1,59.4z"/>
</g>
</svg>
