<?xml version="1.0" encoding="utf-8"?>
<!-- Generator: Adobe Illustrator 25.3.0, SVG Export Plug-In . SVG Version: 6.00 Build 0)  -->
<svg version="1.1" id="Layer_1" xmlns="http://www.w3.org/2000/svg" xmlns:xlink="http://www.w3.org/1999/xlink" x="0px" y="0px"
	 viewBox="0 0 750.2 400.1" style="enable-background:new 0 0 750.2 400.1;" xml:space="preserve">
<path d="M125.7,216.6l-1.9-0.7c-0.1,0.5-0.2,0.9-0.2,1.4l2,0.7l16.8,0.2l0.2-1.4L125.7,216.6z"/>
<path d="M150.2,173l0.2-1.4l-17-0.2l-1-0.3c-0.1,0.4-0.2,0.9-0.3,1.3l1,0.3L150.2,173z"/>
<path d="M403.6,216.6l-1.5-0.5c-0.1,0.5-0.2,0.9-0.2,1.4l1.5,0.5l17.3,0.2l0.2-1.4L403.6,216.6z"/>
<path d="M428.5,173l0.2-1.4l-17.5-0.2l-0.5-0.2c-0.1,0.4-0.2,0.9-0.3,1.3l0.6,0.2L428.5,173z"/>
<path d="M348,216.6l-22,0.3l0.2,1.4l22-0.3C348.2,217.5,348.1,217.1,348,216.6z"/>
<path d="M339.3,171.4l-21.2,0.3l0.2,1.4l21.2-0.3C339.5,172.3,339.4,171.9,339.3,171.4z"/>
<path d="M626.3,216.6l-22,0.3l0.2,1.4l22-0.3l0,0C626.5,217.5,626.4,217.1,626.3,216.6L626.3,216.6z"/>
<path d="M617.7,171.4l-21.2,0.3l0.2,1.4l21.2-0.3C617.9,172.3,617.8,171.9,617.7,171.4z"/>
</svg>
