<?xml version="1.0" encoding="utf-8"?>
<!-- Generator: Adobe Illustrator 25.3.0, SVG Export Plug-In . SVG Version: 6.00 Build 0)  -->
<svg version="1.1" id="Layer_1" xmlns="http://www.w3.org/2000/svg" xmlns:xlink="http://www.w3.org/1999/xlink" x="0px" y="0px"
	 viewBox="0 0 750.2 400.1" style="enable-background:new 0 0 750.2 400.1;" xml:space="preserve">
<path d="M281.8,102.7H123.2c-0.7,1.3-1.3,2.6-2,3.8h162.5C283.2,105.3,282.5,104,281.8,102.7z"/>
<path d="M117.8,152.6c0.2,1.2,0.3,2.5,0.4,3.8h168.6c0.1-1.3,0.3-2.6,0.4-3.8H117.8z"/>
<path d="M289,115.1c0.6,1.4,1.2,2.7,1.7,3.9l12.5-54.4l-2.4-0.7L289,115.1z"/>
<polygon points="321.4,133.1 323.8,133.6 337.4,74.8 335,74 "/>
<path d="M115.5,116.5c0.5-1.2,1.1-2.5,1.7-3.8l-11.4-49.2l-2.4,0.7L115.5,116.5z"/>
<polygon points="71.6,73.7 69.2,74.4 82.8,133.3 85.3,132.8 "/>
<path d="M460.1,114.4l-11.6-50.2l-2.4,0.7l12.5,53.9C459,117.5,459.5,116,460.1,114.4z"/>
<polygon points="425.4,133.7 427.8,133.2 414.2,74.3 411.8,75 "/>
<path d="M635.4,117.3l12.2-52.7l-2.4-0.7L633.8,113C634.4,114.5,634.9,116,635.4,117.3z"/>
</svg>
