<?xml version="1.0" encoding="utf-8"?>
<!-- Generator: Adobe Illustrator 25.3.0, SVG Export Plug-In . SVG Version: 6.00 Build 0)  -->
<svg version="1.1" id="Layer_1" xmlns="http://www.w3.org/2000/svg" xmlns:xlink="http://www.w3.org/1999/xlink" x="0px" y="0px"
	 viewBox="0 0 750.2 400.1" style="enable-background:new 0 0 750.2 400.1;" xml:space="preserve">
<g>
	<path d="M400,228.4c-3.2,19.2-5.7,36.9-6.4,49.6c5.5,1.4,10.8,2.7,16,3.8l8.8-50.4L400,228.4z"/>
	<path d="M408.9,180.4c-1,4.8-1.9,9.6-2.8,14.5l18.2,2.9l2.5-14.6L408.9,180.4z"/>
	<path d="M412.9,160.4c-0.3,1.3-0.6,2.7-0.8,4l17.4,2.8l0.7-4L412.9,160.4z"/>
	<path d="M356.5,278c-0.7-12.7-3.2-30.4-6.4-49.5l-21.4,3.4l8.8,50.5C343.6,281.1,349.9,279.7,356.5,278z"/>
	<path d="M344,195c-0.9-4.9-1.9-9.7-2.8-14.5l-20.9,3.4l2.5,14.6L344,195z"/>
	<path d="M316.8,163.8l0.7,4l20.5-3.3c-0.3-1.4-0.6-2.7-0.8-4L316.8,163.8z"/>
	<path d="M634.8,278c-0.7-12.7-3.2-30.3-6.4-49.3l-21.4,3.4l8.8,50.3C621.9,281.1,628.3,279.7,634.8,278z"/>
	<path d="M622.4,195.2c-0.9-4.9-1.9-9.7-2.8-14.5l-20.9,3.4l2.5,14.6L622.4,195.2z"/>
	<path d="M595.1,164l0.7,4l20.5-3.3c-0.3-1.4-0.6-2.7-0.8-4L595.1,164z"/>
	<path d="M121.5,229c-3.2,18.9-5.6,36.4-6.3,49c5.5,1.4,10.8,2.7,16,3.8l8.7-49.9L121.5,229z"/>
	<path d="M130.4,180.9c-0.9,4.8-1.9,9.6-2.8,14.5l18.2,2.9l2.5-14.6L130.4,180.9z"/>
	<path d="M134.5,161c-0.3,1.3-0.6,2.7-0.8,4l17.4,2.8l0.7-4L134.5,161z"/>
</g>
</svg>
