<?xml version="1.0" encoding="utf-8"?>
<!-- Generator: Adobe Illustrator 25.3.0, SVG Export Plug-In . SVG Version: 6.00 Build 0)  -->
<svg version="1.1" id="Layer_1" xmlns="http://www.w3.org/2000/svg" xmlns:xlink="http://www.w3.org/1999/xlink" x="0px" y="0px"
	 viewBox="0 0 750.2 400.1" style="enable-background:new 0 0 750.2 400.1;" xml:space="preserve">
<g>
	<path d="M140.5,132.7l16.6,0l0-0.3l-16.6,0C140.6,132.5,140.5,132.6,140.5,132.7z"/>
	<path d="M131.9,277.9l-16.7,0c0,0,0,0,0,0.1c0.1,0,0.3,0.1,0.4,0.1l16.3,0L131.9,277.9z"/>
	<path d="M133.6,268.1l-17.6,0c0,0.1,0,0.1,0,0.2l17.6,0L133.6,268.1z"/>
	<path d="M135.3,258.6l0-0.2l-18.2,0c0,0.1,0,0.1,0,0.2L135.3,258.6z"/>
	<path d="M137,248.8l0-0.2l-18.6,0c0,0.1,0,0.1,0,0.2L137,248.8z"/>
	<path d="M138.7,239l0-0.2l-18.8,0c0,0.1,0,0.1,0,0.2L138.7,239z"/>
	<path d="M140.4,229.2l0-0.2l-18.9,0c0,0.1,0,0.1,0,0.2L140.4,229.2z"/>
	<path d="M142.1,219.4l0-0.2l-18.9,0c0,0.1,0,0.1,0,0.2L142.1,219.4z"/>
	<path d="M143.7,210.1l0-0.2l-18.9,0c0,0.1,0,0.1,0,0.2L143.7,210.1z"/>
	<path d="M145.4,200.4l0-0.3l-18.7,0c0,0.1,0,0.1,0,0.2L145.4,200.4z"/>
	<path d="M147.1,190.6l0-0.3l-18.6,0c0,0.1,0,0.1,0,0.2L147.1,190.6z"/>
	<path d="M148.8,180.8l0-0.3l-18.4,0c0,0.1,0,0.1,0,0.2L148.8,180.8z"/>
	<path d="M150.5,171l0-0.3l-18.1,0c0,0.1,0,0.1,0,0.2L150.5,171z"/>
	<path d="M152.2,161.2l0-0.3l-17.8,0c0,0.1,0,0.1,0,0.2L152.2,161.2z"/>
	<path d="M153.9,151.4l0-0.3l-17.4,0c0,0.1,0,0.2,0,0.2L153.9,151.4z"/>
	<path d="M155.6,141.6l0-0.3l-17,0c0,0.1,0,0.2-0.1,0.2L155.6,141.6z"/>
	<path d="M156.4,136.9l-16.8,0c-0.1,0.3-0.1,0.5-0.2,0.8l16.9,0L156.4,136.9z"/>
	<path d="M158,128l0.2-0.9l-16.4,0c-0.1,0.3-0.1,0.5-0.2,0.8L158,128z"/>
	<path d="M132.8,272.6l-17.2,0c0,0.2,0,0.5-0.1,0.7l17.2,0L132.8,272.6z"/>
	<path d="M134.5,262.8l-17.9,0c0,0.2-0.1,0.5-0.1,0.7l17.9,0L134.5,262.8z"/>
	<path d="M124.4,253.8l-0.9-0.7l-5.7,0c0,0.2-0.1,0.5-0.1,0.7L124.4,253.8z"/>
	<polygon points="137.5,234.3 139.5,234.3 139.6,233.5 136.5,233.5 	"/>
	<polygon points="141.3,223.7 124.9,223.7 125.8,224.5 141.2,224.5 	"/>
	<path d="M142.8,215.2l0.1-0.8l-18.9,0c0,0.2-0.1,0.5-0.1,0.7L142.8,215.2z"/>
	<path d="M144.7,204.6l-18.8,0c0,0.2-0.1,0.5-0.1,0.7l18.8,0L144.7,204.6z"/>
	<path d="M127.7,194.8c0,0.3-0.1,0.5-0.1,0.8l18.7,0l0.1-0.8L127.7,194.8z"/>
	<path d="M147.9,185.9l0.1-0.9l-18.5,0c0,0.3-0.1,0.5-0.1,0.8L147.9,185.9z"/>
	<path d="M136.5,175.2l-5,0c-0.1,0.3-0.1,0.5-0.2,0.8l6.1,0L136.5,175.2z"/>
	<polygon points="153,156.5 153.2,155.6 147.5,155.6 148.6,156.5 	"/>
	<path d="M154.9,145.8l-17.2,0c-0.1,0.3-0.1,0.5-0.2,0.8l17.2,0L154.9,145.8z"/>
	<path d="M435.5,132.7l0-0.3l-16.6,0c0,0.1,0,0.2-0.1,0.3L435.5,132.7z"/>
	<path d="M311.3,132.6l19.8,0c0,0,0-0.1,0-0.1L311.3,132.6L311.3,132.6z"/>
	<path d="M410.2,277.9l-16.7,0c0,0,0,0.1,0,0.1c0.2,0.1,0.4,0.1,0.7,0.2l16,0L410.2,277.9z"/>
	<path d="M356,278.1c0.2,0,0.3-0.1,0.5-0.1c0,0,0-0.1,0-0.1l-19.8,0l0,0.1L356,278.1z"/>
	<path d="M355.7,268.1l-20.7,0l0,0.1l20.7,0C355.7,268.3,355.7,268.2,355.7,268.1z"/>
	<path d="M394.3,268.1c0,0.1,0,0.2,0,0.3l17.6,0l0.1-0.3L394.3,268.1z"/>
	<path d="M412.7,258.6l0.9,0l0.1-0.3l-1,0l-17.2,0c0,0.1,0,0.2,0,0.3L412.7,258.6z"/>
	<path d="M354.5,258.4l-21.3,0l0,0.1l21.3,0C354.6,258.5,354.6,258.4,354.5,258.4z"/>
	<path d="M412.7,248.5l-15.9,0c0,0.1,0,0.2,0,0.3l15.9,0l2.6,0l0.1-0.3L412.7,248.5z"/>
	<path d="M353.2,248.8c0-0.1,0-0.1,0-0.2l-21.7,0l0,0.1L353.2,248.8z"/>
	<path d="M412.7,238.7l-14.4,0c0,0.1,0,0.2,0,0.3l14.4,0l4.3,0l0.1-0.3L412.7,238.7z"/>
	<path d="M351.8,239c0-0.1,0-0.1,0-0.2l-21.9,0l0,0.1L351.8,239z"/>
	<path d="M412.7,228.9l-12.8,0c0,0.1,0,0.2-0.1,0.3l12.9,0l6,0l0.1-0.3L412.7,228.9z"/>
	<path d="M350.2,229.2c0-0.1,0-0.1,0-0.2l-22,0l0,0.1L350.2,229.2z"/>
	<path d="M348.5,219.4c0-0.1,0-0.1,0-0.2l-22,0l0,0.1L348.5,219.4z"/>
	<path d="M412.7,219.1l-11.1,0c0,0.1,0,0.2-0.1,0.3l11.2,0l7.7,0l0.1-0.3L412.7,219.1z"/>
	<path d="M422.1,209.9l-9.4,0l-9.5,0c0,0.1,0,0.2-0.1,0.3l9.5,0l9.4,0L422.1,209.9z"/>
	<path d="M324.8,210l0,0.1l22,0c0-0.1,0-0.1,0-0.2L324.8,210z"/>
	<path d="M345,200.3c0-0.1,0-0.1,0-0.2l-21.9,0l0,0.1L345,200.3z"/>
	<path d="M412.7,200.1l-7.6,0c0,0.1,0,0.2-0.1,0.3l7.7,0l11.1,0l0.1-0.3L412.7,200.1z"/>
	<path d="M343.1,190.5c0-0.1,0-0.1,0-0.2l-21.7,0l0,0.1L343.1,190.5z"/>
	<path d="M412.7,190.3l-5.8,0c0,0.1,0,0.2-0.1,0.3l5.8,0l12.8,0l0.1-0.3L412.7,190.3z"/>
	<path d="M412.7,180.5l-3.8,0c0,0.1,0,0.2-0.1,0.3l3.9,0l14.5,0l0.1-0.3L412.7,180.5z"/>
	<path d="M341.2,180.6l-21.5,0l0,0.1l21.5,0C341.2,180.7,341.2,180.6,341.2,180.6z"/>
	<path d="M339.2,170.8l-21.2,0l0,0.1l21.2,0C339.2,170.9,339.2,170.8,339.2,170.8z"/>
	<path d="M412.7,170.7l-1.9,0c0,0.1,0,0.2-0.1,0.3l1.9,0l16.2,0l0.1-0.3L412.7,170.7z"/>
	<path d="M412.8,160.9c0,0.1,0,0.2-0.1,0.3l17.8,0l0.1-0.3L412.8,160.9z"/>
	<path d="M337.2,161.2c0,0,0-0.1,0-0.1l-20.9,0l0,0.1L337.2,161.2z"/>
	<path d="M414.9,151.1c0,0.1,0,0.2-0.1,0.3l17.4,0l0.1-0.3L414.9,151.1z"/>
	<path d="M335.2,151.4c0,0,0-0.1,0-0.1l-20.6,0l0,0.1L335.2,151.4z"/>
	<path d="M417,141.3c0,0.1,0,0.2-0.1,0.3l17,0l0-0.3L417,141.3z"/>
	<path d="M333.1,141.6c0,0,0-0.1,0-0.1l-20.2,0l0,0.1L333.1,141.6z"/>
	<polygon points="312.1,137.1 312.2,137.6 313.1,137.6 324.3,137.6 323.7,137.1 313.1,137.1 	"/>
	<path d="M427.2,136.9l-9.3,0c-0.1,0.3-0.1,0.7-0.2,1l10.6,0L427.2,136.9z"/>
	<polygon points="310.5,127.8 312.6,127.8 312.1,127.3 310.4,127.3 	"/>
	<path d="M356.1,273.4c0-0.2,0-0.5-0.1-0.7l-9.8,0l-10.6,0l0.1,0.6l10.5,0L356.1,273.4z"/>
	<path d="M334,262.9l0.1,0.6l12.2,0l8.9,0c0-0.2-0.1-0.5-0.1-0.7l-8.8,0L334,262.9z"/>
	<polygon points="412.7,262.7 404.1,262.7 405.3,263.7 412.7,263.7 412.7,263.7 412.9,262.7 	"/>
	<path d="M412.7,252.9l-16.5,0c0,0.3-0.1,0.6-0.1,0.9l16.6,0l1.7,0l0.2-1L412.7,252.9z"/>
	<path d="M332.3,253.1l0.1,0.6l13.9,0l7.6,0c0-0.2-0.1-0.5-0.1-0.7l-7.5,0L332.3,253.1z"/>
	<path d="M412.7,243.1l-15.1,0c0,0.3-0.1,0.6-0.1,0.9l15.2,0l3.4,0l0.2-1L412.7,243.1z"/>
	<polygon points="345.4,244 344.6,243.3 330.6,243.4 330.7,244 	"/>
	<polygon points="332.9,233.6 328.9,233.6 329,234.2 333.7,234.2 	"/>
	<path d="M412.7,233.4l-13.5,0c-0.1,0.3-0.1,0.6-0.2,1l13.7,0l5.1,0l0.2-1L412.7,233.4z"/>
	<path d="M419.5,224.6l0.2-1l-7,0l-11.9,0c-0.1,0.3-0.1,0.6-0.2,1l12.1,0L419.5,224.6z"/>
	<path d="M416.9,215.3l-1.2-1l-3.1,0l-10.3,0c-0.1,0.3-0.1,0.6-0.2,1l10.4,0L416.9,215.3z"/>
	<path d="M346.5,214.4l0.8,0.7l0.4,0c0-0.2-0.1-0.5-0.1-0.7L346.5,214.4z"/>
	<path d="M335.6,205.3l10.3,0c0-0.2-0.1-0.5-0.1-0.7l-10.9,0L335.6,205.3z"/>
	<path d="M405.3,205.5l-1.1-0.9c-0.1,0.3-0.1,0.6-0.2,0.9L405.3,205.5z"/>
	<path d="M344,194.9l-20.7,0.1l0.7,0.6l20.2,0.1C344.1,195.3,344,195.1,344,194.9z"/>
	<polygon points="416.3,185.9 426.2,185.9 426.4,185 415.1,184.9 	"/>
	<path d="M342.1,185.1l-21.6,0.1l0.1,0.5l21.6,0.1C342.2,185.5,342.1,185.3,342.1,185.1z"/>
	<path d="M412.7,175.1l-2.8,0c-0.1,0.3-0.1,0.7-0.2,1l3,0l15.3,0l0.2-0.9L412.7,175.1z"/>
	<path d="M318.9,175.9l21.4,0.1c0-0.2-0.1-0.4-0.1-0.6l-21.3,0.1L318.9,175.9z"/>
	<path d="M317.1,165.6l0.1,0.5l21.1,0.1c0-0.2-0.1-0.4-0.1-0.6L317.1,165.6z"/>
	<path d="M412.7,165.4l-0.8,0c-0.1,0.3-0.1,0.7-0.2,1l1,0l17,0l0.2-0.9L412.7,165.4z"/>
	<path d="M413.9,155.6c-0.1,0.3-0.1,0.7-0.2,1l17.6,0l0.2-0.9L413.9,155.6z"/>
	<path d="M336.2,156.4c0-0.2-0.1-0.4-0.1-0.6l-20.7,0.1l0.1,0.5L336.2,156.4z"/>
	<path d="M334,146l-20.3,0.1l0.1,0.5l20.4,0.1C334.1,146.4,334.1,146.2,334,146z"/>
	<path d="M416,145.8c-0.1,0.3-0.1,0.7-0.2,1l17.2,0l0.2-0.9L416,145.8z"/>
	<path d="M589.7,132.5l0,0.2l19.8,0c0-0.1,0-0.2-0.1-0.2L589.7,132.5z"/>
	<path d="M615,277.9l0,0.2l19.1,0c0.2-0.1,0.4-0.1,0.7-0.2c0,0,0-0.1,0-0.1L615,277.9z"/>
	<path d="M613.3,268.1l0,0.2l20.7,0c0-0.1,0-0.2,0-0.3L613.3,268.1z"/>
	<path d="M611.6,258.6l21.3,0c0-0.1,0-0.2,0-0.3l-21.3,0L611.6,258.6z"/>
	<path d="M609.9,248.5l0,0.2l21.7,0c0-0.1,0-0.2,0-0.3L609.9,248.5z"/>
	<path d="M608.2,238.8l0,0.2l21.9,0c0-0.1,0-0.2,0-0.3L608.2,238.8z"/>
	<path d="M606.5,229l0,0.2l22,0c0-0.1,0-0.2,0-0.3L606.5,229z"/>
	<path d="M604.8,219.2l0,0.2l22,0c0-0.1,0-0.2,0-0.3L604.8,219.2z"/>
	<path d="M603.1,209.9l0,0.2l22,0c0-0.1,0-0.2,0-0.3L603.1,209.9z"/>
	<path d="M601.4,200.1l0,0.2l21.9,0c0-0.1,0-0.2-0.1-0.3L601.4,200.1z"/>
	<path d="M599.7,190.3l0,0.2l21.7,0c0-0.1,0-0.2-0.1-0.3L599.7,190.3z"/>
	<path d="M598,180.6l0,0.2l21.5,0c0-0.1,0-0.2-0.1-0.3L598,180.6z"/>
	<path d="M596.3,170.8l0,0.2l21.2,0c0-0.1,0-0.2-0.1-0.3L596.3,170.8z"/>
	<path d="M594.6,161l0,0.2l20.9,0c0-0.1,0-0.2-0.1-0.2L594.6,161z"/>
	<path d="M592.9,151.2l0,0.2l20.6,0c0-0.1,0-0.2-0.1-0.2L592.9,151.2z"/>
	<path d="M611.4,141.6c0-0.1,0-0.2-0.1-0.2l-20.2,0l0,0.2L611.4,141.6z"/>
	<path d="M596.2,137l0.9,0.7l13.5,0c-0.1-0.3-0.1-0.5-0.2-0.8L596.2,137z"/>
	<path d="M608.2,127.1l-19.5,0.1l0.1,0.7l19.6,0.1C608.4,127.7,608.3,127.4,608.2,127.1z"/>
	<path d="M615.8,282.4L615.8,282.4c0,0,0.1,0,0.1,0L615.8,282.4z"/>
	<polygon points="617.8,272.6 614.1,272.6 614.2,273.4 618.8,273.4 	"/>
	<path d="M631.9,253.9l0.4,0c0-0.3-0.1-0.6-0.1-0.9l-1.4,0L631.9,253.9z"/>
	<path d="M619.1,243.2l1,0.9l10.7,0c0-0.3-0.1-0.6-0.1-0.9L619.1,243.2z"/>
	<path d="M607.5,233.5l1,0.8l20.9,0.1c0-0.3-0.1-0.6-0.1-0.9L607.5,233.5z"/>
	<path d="M627.6,223.6l-22,0.1l0.1,0.8l22.1,0.1C627.7,224.2,627.6,223.9,627.6,223.6z"/>
	<path d="M603.9,214.4l0.1,0.8l22,0.1c-0.1-0.3-0.1-0.6-0.2-0.9L603.9,214.4z"/>
	<path d="M624.1,204.6l-21.9,0.1l0.1,0.8l22,0.1C624.3,205.2,624.2,204.9,624.1,204.6z"/>
	<path d="M600.5,194.8l0.1,0.8l21.8,0.1c-0.1-0.3-0.1-0.6-0.2-0.9L600.5,194.8z"/>
	<polygon points="619.1,185 598.8,185.1 598.9,185.8 620.2,185.9 	"/>
	<polygon points="607.5,175.2 597.1,175.3 597.2,176 608.5,176 	"/>
	<polygon points="595.9,165.5 595.4,165.5 595.5,166.2 596.8,166.2 	"/>
	<path d="M606.9,145.9l1,0.8l4.7,0c-0.1-0.3-0.1-0.6-0.2-0.8L606.9,145.9z"/>
</g>
</svg>
