<?xml version="1.0" encoding="utf-8"?>
<!-- Generator: Adobe Illustrator 25.3.0, SVG Export Plug-In . SVG Version: 6.00 Build 0)  -->
<svg version="1.1" id="Layer_1" xmlns="http://www.w3.org/2000/svg" xmlns:xlink="http://www.w3.org/1999/xlink" x="0px" y="0px"
	 viewBox="0 0 750.2 400.1" style="enable-background:new 0 0 750.2 400.1;" xml:space="preserve">

<g>
	<path class="st0" d="M465.6,189.1c0.2,4.5,0.4,9.3,0.6,14.3c22,6.9,43.9,15.3,65.5,23.6c16.3,9.7,32.7,19.6,49,29
		c10.6,4.1,21.1,7.9,31.6,11.3c5.1,3,10.3,6,15.5,8.8c0-1.2,0-2.5-0.1-3.8c-1.1-0.5-2.2-0.9-3.3-1.4c1.1,0.3,2.2,0.6,3.3,0.9
		c-0.1-4.9-0.1-9.7-0.1-14.6c-11-3.5-22-7.6-33.1-12.1c-3.1,2.8-6.3,5.5-9.5,8.2c-20.2-12.3-40.2-25.4-60.2-38.1
		C505.1,205.9,485.4,196.8,465.6,189.1z"/>
	<path class="st0" d="M395.6,135.8l0.8,3.8l9.4-1.9c-1.2-0.3-2.4-0.7-3.7-1C399.9,136.4,397.8,136.1,395.6,135.8z"/>
	<path class="st0" d="M500.9,187c1.6,0.6,3.2,1.2,4.8,1.8c-3.8-2.9-7.5-5.8-11.3-8.6c11.5,5.1,23,10.4,34.4,15.8
		c-21.6-12.7-43.1-25-64.5-35.4c-0.3-0.1-0.6-0.2-0.9-0.3c0.2,2.3,0.5,4.8,0.7,7.5C476.4,173.7,488.7,180.2,500.9,187z"/>
	<path class="st0" d="M627.8,232.6c0-2.4,0.1-4.7,0.1-7c-2.6-0.8-5.1-1.6-7.7-2.5c-32.8-11.2-65.9-27.2-99.1-42.4
		c-5.4-2.1-10.7-4.1-16.1-6.1c10.7,8.3,21.6,16.8,32.5,25.5c6.5,3,12.9,6.1,19.3,9c6.2,2.4,12.5,4.8,18.7,7.1
		C593,222.6,610.5,228.4,627.8,232.6z"/>
	<path class="st0" d="M467,236.3c24.2,9.7,48.2,21.2,72.1,32.6c30.1,14.4,60,28.5,89.8,38.6c-0.2-4.7-0.4-9.5-0.6-14.4
		c-0.1-4-0.3-8.1-0.3-12.2c-44.7-15.9-89.7-40.8-135-61.6c15.1,8.6,30.2,17.7,45.3,26.9c-23.9-12.6-47.8-25.3-71.8-36
		c0.1,3.4,0.2,6.8,0.3,10.3c1,0,2.1-0.1,3.1-0.1c20.8,9.6,41.6,20.6,62.4,31.7c-21.7-10.9-43.6-21.6-65.5-30.9
		C466.8,226.2,466.9,231.2,467,236.3z"/>
	<path class="st0" d="M631.1,346.3C631.1,346.3,631.1,346.3,631.1,346.3c-0.1,0-0.1,0-0.1,0C631,346.3,631.1,346.3,631.1,346.3z"/>
	<path class="st0" d="M629.5,332.6c-16.5-6.2-33-13.5-49.6-21.5c5.4,1.2,10.8,2.4,16.2,3.4c-31.9-14.4-63.9-31.6-96.1-47.2
		c-3.9-1.9-7.8-3.8-11.8-5.6c-7-3.3-14.1-6.5-21.1-9.5c0,4.2,0,8.4,0,12.6c0,2,0,4-0.1,6v0.1c0,3.2-0.1,6.4-0.2,9.5
		c14.1,6.5,28.2,13.5,42.3,20.7c3.3-0.5,6.7-1.1,9.9-1.6c21.7,13.2,43.5,26.8,65.3,39.6c3,1.5,6,3,9.1,4.5
		c-12.9-7.6-25.8-15.6-38.7-23.7c20.8,11.6,41.7,22.9,62.5,32.6c7-2.7,11.7-5,13.8-6.2c-1.9,0.2-3.7,0.5-5.6,0.7
		c-31.6-14.1-63.2-32.1-94.8-49.7c-4-2.4-8.1-4.8-12.1-7.2c28.6,14.9,57,30.3,85.4,43.4c9.1,4.5,18.2,8.8,27.2,12.8
		c0,0,0.1-0.1,0.1-0.1c0.6-0.3,1-0.5,1-0.5c-0.6-4-1-8.3-1.5-12.7C630.3,332.9,629.9,332.8,629.5,332.6z"/>
	<path class="st0" d="M518.3,322c13.1,8.3,26.2,16.8,39.4,25.1c-30.4-17.2-60.8-35.1-91.2-50.3c-0.1,3.8-0.3,7.6-0.5,11.3
		c4,2.1,8,4.2,12.1,6.3c2.1,0.1,4.2,0.2,6.3,0.4c29.2,15.7,58.3,33.2,87.4,49.5c4.5-0.6,8.9-1.3,13.1-2.2
		c-19.1-11.3-38.1-23.3-57.2-35.1C524.4,325.3,521.4,323.7,518.3,322z"/>
	<path class="st0" d="M531,354c-17.6-9.4-35.3-18.8-53-27.5c-4.3-1.8-8.6-3.5-12.9-5.1c-0.3,4.1-0.6,8.1-1,11.9
		c16.9,9.2,33.7,19.2,50.6,29.5c9.6,1.8,20,3,30.9,3.1c-10.7-5.8-21.4-11.6-32.1-17.3C519.4,350.4,525.2,352.2,531,354z"/>
	<path class="st0" d="M587.1,103.7c-13.7-4.5-27.5-9.6-41.4-14.8c4.5,0.4,9.1,0.8,13.6,1.1c-23.5-8.7-47.1-18.3-70.9-26.2
		c-5.9,6.7-11,15-15.4,23.4c4.3,1.4,8.5,2.9,12.8,4.4c2.9-1.2,5.7-2.3,8.5-3.5c18.1,8.6,36.3,18.1,54.5,27.5c2.5,1,5.1,2.1,7.6,3.1
		c-10.8-5.7-21.5-11.6-32.3-17.3c35.7,16,71.2,32.9,106.7,42.7c0.8,0.2,1.5,0.3,2.3,0.5c1.9-11.2,3.8-15,4.8-16.3
		c-0.4-1.4-1.8-6.1-4.1-12.5C618.4,113,602.7,108.8,587.1,103.7z M583.4,118.1c-26.3-10.7-52.7-23.3-79.1-34.5
		c-3.4-1.6-6.7-3.1-10.1-4.6c23.9,8.8,47.6,19.1,71.3,28.4c7.6,3.3,15.1,6.5,22.7,9.5C586.6,117.3,585,117.7,583.4,118.1z"/>
	<path class="st0" d="M626.8,109.3c1.8,0.7,3.6,1.3,5.5,1.9c-0.1-0.3-0.2-0.6-0.4-0.9C630.2,109.9,628.5,109.6,626.8,109.3z"/>
	<path class="st0" d="M659.3,113.5c-8.8-0.4-17.6-1.5-26.4-3.1c0.1,0.4,0.3,0.8,0.4,1.1c0.4,0.1,0.8,0.3,1.2,0.4
		c7.8,2.6,15.6,4.8,23.4,6.6c-7.7-0.4-15.3-1.4-23-2.7c2,5.7,3.3,10,3.8,11.7l59.5,12l1.2-5.3c-4.8,0.6-9.6,0.9-14.4,1.1
		c-6-1.3-12.1-2.9-18.1-4.7c11.6-0.8,23.2-2.9,34.7-6.5l3.3-15C689.8,113,674.6,114.2,659.3,113.5z"/>
	<path class="st0" d="M472.1,86.8c4.4-8.4,9.5-16.7,15.3-23.4c-2.8-0.9-5.5-1.8-8.3-2.7c-3.1-1-6.3-1.9-9.4-2.8l-52.5,15.5
		c2.2,0.4,4.5,0.8,6.7,1.3C440,77.3,456.1,81.5,472.1,86.8z"/>
	<path class="st0" d="M512.3,54.5c36.9,12.3,73.4,26.6,109.4,32.6c-1.7-3.3-3.5-6.5-5.4-9.7c-5.9-2.2-11.8-4.6-17.7-7.1
		c-17-7.2-33.9-15.6-50.7-24.1c-0.6,0-1.3,0-1.9,0c-3.4,0-6.7,0-10,0.1c3.3,2.5,6.7,5,10.1,7.5c-6.5-2.4-13-4.8-19.5-7.2
		c-5.8,0.2-11,0.5-15.4,0.7c-1.8,1.4-4.3,2.8-7.3,4.3C506.5,52.6,509.4,53.6,512.3,54.5z"/>
	<path class="st0" d="M614.5,91.8c3.5,0.9,7.1,1.7,10.6,2.5c-1.1-2.4-2.3-4.8-3.5-7.2c-1.7,1.2-3.4,2.3-5.2,3.4
		C615.8,91,615.2,91.4,614.5,91.8z"/>
	<path class="st0" d="M687.8,92.6c-11.9-0.1-23.7-1.7-35.5-4.3c-6.1-1.3-12.1-2.9-18.2-4.8c-4.7-1.4-9.3-3-13.9-4.6
		c-0.9-0.3-1.8-0.7-2.7-1c3.3,5.4,6.2,11.1,8.7,16.6c13,2.7,25.9,4.4,38.8,4.6c11,0.2,21.9-0.7,32.8-2.9c3.5-0.7,7-1.5,10.4-2.5
		l0.5-2.5C701.8,92.2,694.8,92.7,687.8,92.6z"/>
	<path class="st0" d="M509,47.6c-2.2,0.1-4,0.2-5.6,0.4l-6,1.8c1.6,0.5,3.2,1,4.9,1.5C505.1,49.9,507.3,48.7,509,47.6z"/>
	<path class="st0" d="M463,109.8c0.4-0.1,0.7-0.1,1.1-0.2c27.6,10.2,55.2,23.6,82.7,36.6c3.5,1.8,7,3.6,10.5,5.4
		c19.7,8.5,39.3,16.5,58.9,22.7c1.3-0.7,2.5-1.3,3.7-2c-6.6-3.2-13.3-6.7-19.9-10.2c10.1,3.8,20.1,7.2,30.1,10.1
		c0.1-0.7,0.1-1.5,0.2-2.2c0.2-3.2,0.5-6.1,0.7-8.8c-1.6-0.5-3.2-1-4.7-1.5c-20.5-5.4-41-13-61.7-21.4c-2.7,1.2-5.4,2.4-8.1,3.6
		c-18.6-9.7-37.2-19.8-55.7-29c-2.6-1.1-5.2-2.1-7.8-3.1c11,5.6,22,11.5,33,17.5c-19.9-9.2-39.8-18.2-59.8-25.5
		C465,104.6,463.9,107.2,463,109.8z"/>
	<path class="st0" d="M461.8,110c1-2.7,2.2-5.6,3.4-8.5c-16.4-6-32.8-10.8-49.2-13.7c-10.5-1.5-20.9-2.3-31.4-2.1l0.3,1.5
		c5.1,0.6,10.2,1.4,15.3,2.5c-5-0.3-9.9-0.5-14.9-0.4l1.2,5.5c24.1,1.1,48.1,7.2,72.1,15.8C459.7,110.3,460.7,110.1,461.8,110z"/>
	<path class="st0" d="M539.3,175.7c29.9,12.6,59.6,24.9,89.1,32.7c0.1-4.1,0.3-8.1,0.4-11.9c-2.9-0.6-5.7-1.3-8.6-2
		c-4.3-3.1-8.6-6.3-12.8-9.5c-7.6-2.6-15.2-5.4-22.8-8.3c-2.9-1-5.8-2-8.8-3c-0.6-0.4-1.1-0.8-1.7-1.2c-28.5-11.6-57.2-24.9-86-36.2
		c5,0.6,10,1.3,14.9,2c-14.8-6-29.6-11.6-44.5-16.3c-1,3-1.6,5.1-1.8,6c0.8,1,2,3.2,3.3,8.8c13.8,5.7,27.7,12.3,41.6,19.2
		C514.2,162.5,526.7,169.1,539.3,175.7z"/>
	<path class="st0" d="M432.8,117.5c-9.1-1.8-18.2-3.1-27.4-3.9c2.8,0.7,5.6,1.4,8.4,2.2c-7.7-1.2-15.4-2.1-23.2-2.5l2.6,11.8
		c10.5,1,21,2.8,31.5,5.3c-0.8,0.3-1.7,0.6-2.5,0.9c2.2,0.6,4.4,1.1,6.5,1.8l2.3-0.5c-3-2.5-6-4.9-8.9-7.3c-1-0.8-2.1-1.6-3.1-2.5
		c7.9,2.1,15.7,4.6,23.6,7.4l13.1-2.7c0.3-1.1,0.9-3,1.8-5.7C449.3,120.1,441.1,118.6,432.8,117.5z"/>
	<path class="st0" d="M258.5,189c8.9-4.8,17.8-9.3,26.7-13.7c0.1-1.8,0.2-3.6,0.4-5.3c0-0.7,0.1-1.3,0.2-1.9
		c-18.4,9-36.8,19.1-55.3,29.5c11.5-5.1,22.9-10.2,34.4-15.1c-3.7,2.7-7.5,5.5-11.3,8.3C255.3,190.2,256.9,189.6,258.5,189z"/>
	<path class="st0" d="M139.2,223.6c-5.8,1.9-11.5,3.6-17.3,5.2c0,2,0.1,4,0.1,6.1c20.5-4.1,41.1-10.5,61.9-17.9
		c6.2-2.2,12.4-4.5,18.7-6.8c6.4-2.9,12.9-5.7,19.3-8.7c10.9-8.3,21.7-16.5,32.5-24.4c-5.4,1.9-10.8,3.9-16.1,5.9
		C205.1,197.5,172,212.9,139.2,223.6z"/>
	<path class="st0" d="M250.3,298.4c11-5.5,22.1-10.8,33.2-15.8c-0.2-5-0.3-10-0.3-15c-0.1-4.1-0.1-8.1-0.1-12.2
		c-3.9,1.7-7.8,3.4-11.8,5.2c-3.9,1.8-7.8,3.6-11.8,5.4c-32.2,15-64.3,31.5-96.1,45.3c5.4-1,10.8-2.1,16.2-3.3
		c-16.6,7.6-33.1,14.6-49.6,20.6c-3.9,1.4-7.8,2.7-11.6,4c-0.2,1.5-0.4,2.9-0.5,4.3c4.6,0.4,10.9,0.9,18.5,1.4
		c6.4-2.8,12.9-5.8,19.3-8.8c28.4-12.5,56.8-27.3,85.4-41.6c-4,2.3-8.1,4.6-12.1,6.9c-28.9,15.4-57.7,31-86.5,43.9
		c5.3,0.3,11.1,0.6,17.3,0.9c15-7.3,30.1-15.1,45.1-23.1c-12.9,7.7-25.8,15.4-38.7,22.7c3-1.4,6-2.8,9.1-4.3
		c21.8-12.2,43.5-25.3,65.3-37.9C243.6,297.4,247,297.9,250.3,298.4z"/>
	<path class="st0" d="M120.5,307.7c33-9.8,66.3-24.8,99.8-40.1C241.1,258,262,248.4,283,240c0-4.8,0.1-9.5,0.2-14.1
		c-18.7,7.9-37.4,16.8-55.9,25.7c18.6-9.6,37.3-19,56-27.5c0.1-2.9,0.1-5.7,0.2-8.5c-20.8,9.3-41.5,19.8-62.2,30.3
		c15.1-8.8,30.3-17.5,45.3-25.7c-48.7,21.4-97,47.3-144.9,62.2c-0.2,4.3-0.3,8.6-0.5,12.9C121,299.5,120.8,303.7,120.5,307.7z"/>
	<path class="st0" d="M121.7,279.5c8.5-4.3,16.9-8.8,25.3-13.6c10.5-3.2,21-6.9,31.6-10.8c16.4-9,32.7-18.4,49-27.7
		c18.5-6.8,37.1-13.6,55.9-19.6c0.1-4.5,0.3-8.8,0.5-13c-16.6,6.5-33.1,13.9-49.6,21.3c-20,12.2-40,24.7-60.2,36.5
		c-3.2-2.5-6.4-5.2-9.5-7.8c-14.3,5.5-28.6,10.5-42.8,14.4c0,4.6-0.1,9.1-0.2,13.6c4.4-1,8.8-2.1,13.1-3.4
		c-4.4,1.8-8.8,3.5-13.2,5.1C121.8,276.2,121.8,277.8,121.7,279.5z"/>
	<path class="st0" d="M231.9,323.1c-9.7,5.8-19.4,11.6-29.1,17.3h0.6h1.7c12-7.4,24-14.8,36-22C238.1,319.9,235,321.5,231.9,323.1z"
		/>
	<path class="st0" d="M281.5,311.1c1.1-0.6,2.2-1.1,3.3-1.7c-0.2-3.5-0.5-7.2-0.6-10.9c-26.2,13-52.4,27.6-78.6,41.9
		c2.2,0,3.8,0,4.8,0c3.9,0,7.7-0.1,11.4-0.1c17.8-9.8,35.6-19.7,53.5-28.9C277.3,311.3,279.4,311.2,281.5,311.1z"/>
	<path class="st0" d="M281.4,322.6c-11.5,5.4-23,11.1-34.4,16.9c13.1-0.6,24.3-1.3,32.7-2c2.4-1.3,4.9-2.6,7.3-3.9
		c-0.5-4-0.9-8.2-1.3-12.6C284.2,321.6,282.8,322.1,281.4,322.6z"/>
	<path class="st0" d="M154.6,49.2l-29.3,8.6c9.8-0.2,19.7-1.1,29.7-2.5C154.5,52.8,154.5,50.6,154.6,49.2z"/>
	<path class="st0" d="M101.5,123.4c4.1-0.9,8.2-1.9,12.4-3c0.4-1,0.8-2,1.3-3.1c-5,0.6-10.1,1-15.1,1.3c-15.9,0.7-31.8-0.6-47.6-4.6
		c-2.3-0.6-4.7-1.3-7-2l3,13.7c10.7,3.9,21.4,6.6,32.2,8.1l30.3-6.1c0.4-1,1-2.8,2-5.2C109.2,122.9,105.3,123.2,101.5,123.4z"/>
	<path class="st0" d="M235.2,106.9c-10.7,5.5-21.5,11.1-32.3,16.6c2.5-1,5-2,7.6-3c18.2-9,36.3-18.1,54.5-26.3
		c2.8,1.1,5.7,2.2,8.5,3.4c1.5-0.5,3-1,4.5-1.5c-4.6-7.7-10.1-15.6-16.5-22c-20.6,6.9-41.1,14.7-61.4,22c4.5-0.3,9-0.6,13.6-1
		c-13.8,5-27.6,9.9-41.4,14.2c-19.5,6.1-38.9,10.9-58.2,13.2c-1.2,2.9-1.9,5-2.2,5.9c1.2,1.5,3.5,6.3,5.6,21.8
		c3.7-0.7,7.4-1.4,11.1-2.2C164,138.5,199.6,122.2,235.2,106.9z M193.9,112.7c23.6-8.9,47.4-18.7,71.3-27.2
		c-3.4,1.4-6.7,2.9-10.1,4.4c-26.4,10.7-52.8,22.9-79.1,33.1c-1.6-0.4-3.2-0.8-4.8-1.2C178.8,118.9,186.3,115.9,193.9,112.7z"/>
	<path class="st0" d="M51.6,139.6l6.7-1.4c-2.4-0.3-4.8-0.7-7.2-1.1L51.6,139.6z"/>
	<path class="st0" d="M115.1,120c3.3-0.9,6.5-1.9,9.8-2.9c2.6-0.8,5.2-1.7,7.8-2.6c-5.5,1.1-10.9,1.9-16.4,2.6
		C115.9,118.1,115.5,119.1,115.1,120z"/>
	<path class="st0" d="M278.9,95.7c18.8-6.3,37.6-11.4,56.5-14.3c5.2-1,10.4-1.9,15.7-2.6L298,63.1c-2.6,0.7-5.2,1.3-7.9,2.1
		c-3.3,0.9-6.6,1.9-9.9,2.8c-5.9,1.8-11.8,3.7-17.7,5.6C268.9,80.1,274.4,87.9,278.9,95.7z"/>
	<path class="st0" d="M94.4,104.8c9.3-0.2,18.6-1.1,28-2.5c2.5-4.6,5.3-9.4,8.5-14.1c-1.8,0.6-3.7,1.2-5.5,1.7
		c-6.1,1.8-12.1,3.3-18.2,4.6c-11.8,2.5-23.7,3.9-35.5,4.1C61.8,98.7,52,97.9,42.1,96l0.2,1c6.4,2.2,12.9,3.9,19.4,5.1
		C72.5,104.2,83.4,105,94.4,104.8z"/>
	<path class="st0" d="M270.5,55l-20.3-6c0,2.5-0.5,7.9-3.6,12.8c0.2,0.1,0.3,0.2,0.6,0.3C255,59.6,262.7,57.2,270.5,55z"/>
	<path class="st0" d="M132.2,87.8c-3.3,4.8-6.2,9.7-8.7,14.4c7.1-1.1,14.2-2.6,21.3-4.3c-0.6-0.4-1.3-0.8-1.9-1.2
		c-1.7-1.1-3.5-2.2-5.2-3.3c16-2.6,32.1-6.7,48.2-11.5c-2.4-0.8-5.2-1.9-7.9-3.4c-2.2-1.2-4.8-3.1-7.5-5.2c-3.2,1.4-6.4,2.7-9.6,4.1
		c-7.2,3-14.4,5.7-21.7,8.2C136.9,86.2,134.6,87,132.2,87.8z"/>
	<path class="st0" d="M143.3,176.9c19.6-6,39.2-13.6,58.9-21.8c3.5-1.7,7-3.4,10.5-5.2c25.3-11.5,50.7-23.3,76.1-32.7
		c-0.9-2.2-2-4.5-3.2-7.1c-17.4,6.4-34.8,14-52.1,21.7c11-5.8,22-11.4,33-16.8c-2.6,1-5.2,2-7.8,3c-18.5,8.9-37.1,18.5-55.7,27.8
		c-2.7-1.1-5.4-2.3-8.1-3.4c-20.7,8-41.2,15.4-61.7,20.5c-4.6,1.4-9.2,2.7-13.8,3.9c0.1,1,0.2,2,0.2,3.1c0.2,2.3,0.3,4.7,0.5,7.3
		c13.1-3.1,26.2-7.3,39.4-12c-6.6,3.4-13.2,6.7-19.9,9.8C140.8,175.6,142,176.2,143.3,176.9z"/>
	<path class="st0" d="M286.5,109.8c1.2,2.5,2.3,4.9,3.2,7.1c1.9-0.7,3.8-1.4,5.7-2.1c1.8,0.3,3.6,0.6,5.4,0.9
		c20.4-7.1,40.8-12.3,61.3-14.4l1.3-5.9c-1.4,0.1-2.7,0.1-4.1,0.2c1.4-0.3,2.8-0.5,4.2-0.8l0.6-2.9c-6.9,0.3-13.8,0.9-20.6,1.9
		C324.4,97.1,305.4,102.8,286.5,109.8z"/>
	<path class="st0" d="M354,118.6c-9.2,0.7-18.3,2-27.4,3.7c-8.5,1.1-17,2.7-25.5,4.4c-1.4,0.4-2.9,0.9-4.3,1.3l24.6,5
		c6.3-2.1,12.7-3.9,19-5.6c-1,0.8-2.1,1.6-3.1,2.4c-2.2,1.7-4.4,3.4-6.6,5.1l5,1c0.5-0.1,1-0.3,1.5-0.4c-0.8-0.3-1.7-0.6-2.5-0.9
		c6.9-1.6,13.9-2.9,20.8-3.8l2.6-11.8c-4.2,0.4-8.3,0.9-12.4,1.6C348.4,120,351.2,119.3,354,118.6z"/>
	<path class="st0" d="M271.3,140.5c-28.9,10.8-57.5,23.6-86,34.6c-0.6,0.4-1.1,0.7-1.7,1.1c-2.9,1-5.8,1.9-8.8,2.9
		c-7.6,2.8-15.2,5.5-22.8,8c-4.3,3.1-8.5,6.1-12.8,9.1c-6,1.4-12.1,2.7-18.1,3.7c0.1,3.7,0.3,7.6,0.4,11.5c2.8-0.5,5.6-1.1,8.5-1.7
		c29.8-7.5,59.8-19.4,90.1-31.6c12.6-6.3,25.1-12.7,37.7-18.7c10.1-4.9,20.3-9.5,30.4-13.8c1.5-9.5,3.1-14,4.2-16.1
		c-12,3.9-24.1,8.3-36,13C261.3,141.8,266.3,141.1,271.3,140.5z"/>
</g>
</svg>
