<?xml version="1.0" encoding="utf-8"?>
<!-- Generator: Adobe Illustrator 25.3.0, SVG Export Plug-In . SVG Version: 6.00 Build 0)  -->
<svg version="1.1" id="Layer_1" xmlns="http://www.w3.org/2000/svg" xmlns:xlink="http://www.w3.org/1999/xlink" x="0px" y="0px"
	 viewBox="0 0 750.2000122 400.1000061" style="enable-background:new 0 0 750.2000122 400.1000061;" xml:space="preserve">
<path d="M140.4500732,53.368927l4.2180786,18.156189c4.0070801-3.7792358,8.3250732-6.9729004,12.9318848-9.2250977
	c0.1999512-0.1000366,0.3999634-0.2000122,0.5999756-0.3000488c-3.7000122-4.3999634-3.7999878-10.0999756-3.5999756-12.7999878
	L140.4500732,53.368927z"/>
<path d="M592.000061,48.1999817c-1.2000732-0.0999756-3.4000854-0.2999878-6.2000732-0.5
	c1.5999756,1.1000366,3.7000122,2.2000122,6.4000244,3.6000366c5.2592163,2.5715942,10.1389771,6.7213745,14.6083374,11.7910156
	l2.2874146-9.8459473L592.000061,48.1999817z"/>
<path d="M484.2653809,53.6410217l2.4558105,10.5706177c4.730957-5.5792236,9.9368286-10.152832,15.5788574-12.9116211
	c2.7999268-1.4000244,5-2.6000366,6.7000122-3.7000122c-2.2000122,0.0999756-4,0.2000122-5.6000366,0.3999634
	L484.2653809,53.6410217z"/>
<path d="M264.1484375,53.1194763l-13.9484253-4.1194458c0,2.5-0.5,7.8999634-3.6000366,12.7999878
	c0.3000488,0.2000122,0.6000366,0.2999878,0.9000244,0.5c4.4315796,2.1665649,8.5944214,5.2069702,12.4713745,8.7989502
	L264.1484375,53.1194763z"/>
</svg>
