<?xml version="1.0" encoding="utf-8"?>
<!-- Generator: Adobe Illustrator 25.3.0, SVG Export Plug-In . SVG Version: 6.00 Build 0)  -->
<svg version="1.1" id="Layer_1" xmlns="http://www.w3.org/2000/svg" xmlns:xlink="http://www.w3.org/1999/xlink" x="0px" y="0px"
	 viewBox="0 0 750.2000122 400.1000061" style="enable-background:new 0 0 750.2000122 400.1000061;" xml:space="preserve">
<path d="M112.1307983,114.5298157c-0.5025635,7.1244507-0.7301636,12.2303467-0.7828369,13.5036621l0.7852783,0.5644531
	c1.7053223,2.4434814,5.1274414,11.0563965,7.4172363,41.4337158c0.1564941,2.0765991,0.307312,4.2738037,0.4544067,6.5339966
	C129.6661987,147.57901,115.3787231,120.1852722,112.1307983,114.5298157z"/>
<path d="M293.0512085,128.344696c-0.0056763-0.1539917-0.2161865-5.5744629-0.7822876-13.6314087
	c-3.4985352,6.1478882-17.8526611,34.1812744-7.2081909,63.4589233c0.1791382-2.8494873,0.366272-5.5692139,0.5600586-8.140564
	c2.3779297-31.5600586,5.9794922-39.6298218,7.6079102-41.6935425L293.0512085,128.344696z"/>
<path d="M294.0758667,127.6227722l0.0830078-0.0276489l0.1289062,0.0258789l53.7688599,10.8357544l-54.8804932-24.9155273
	c0.5135498,7.1132812,0.7617798,12.3813477,0.8372192,14.1329956L294.0758667,127.6227722z"/>
<path d="M111.2067871,113.596344l-55.2912598,25.1019897l54.4557495-10.9741821
	C110.4441528,126.025116,110.6912231,120.7469177,111.2067871,113.596344z"/>
<path d="M455.9827271,114.4372864c-0.3666992-0.6353149-0.5802002-0.9728394-0.5802002-0.9728394l-56.1763916,25.5038452
	l56.1373291-11.3128052C455.4046021,125.9839172,455.5526123,121.1596375,455.9827271,114.4372864z"/>
<path d="M637.6083374,128.3339539c-0.0021362-0.1403809-0.0982666-5.421936-0.6139526-13.5736084
	c-3.5388794,6.2334595-17.743042,34.1047974-7.2398682,63.2466431c0.1759644-2.8707886,0.3566895-5.5426025,0.5401001-7.9758301
	c2.3798828-31.578186,5.9858398-39.6430664,7.6147461-41.7019653L637.6083374,128.3339539z"/>
<path d="M456.8727417,116.0392761c-0.4100342,6.8081055-0.517334,11.3646851-0.5333252,12.1628418l0.0574951,0.0629272
	l0.1958008-0.0761719c-0.0068359,0.0238647-0.015625,0.053894-0.0222168,0.0761719
	c1.6044922,1.9594727,5.2607422,9.8706055,7.6645508,41.7661133c0.1066895,1.4153442,0.2124023,2.918335,0.3168945,4.4855347
	C472.2999268,148.3282166,461.0652466,123.8413391,456.8727417,116.0392761z"/>
<path d="M638.7477417,127.4020691c0.0195312,0.06604,0.0410156,0.1378174,0.0585938,0.197937l0.03125-0.0107422
	l54.0061646,10.8833618l-54.9388428-24.9420776c0.4698486,7.1079712,0.6299438,12.2470703,0.6751099,14.0548706
	L638.7477417,127.4020691z"/>
</svg>
