<?xml version="1.0" encoding="utf-8"?>
<!-- Generator: Adobe Illustrator 25.3.0, SVG Export Plug-In . SVG Version: 6.00 Build 0)  -->
<svg version="1.1" id="Layer_1" xmlns="http://www.w3.org/2000/svg" xmlns:xlink="http://www.w3.org/1999/xlink" x="0px" y="0px"
	 viewBox="0 0 750.2000122 400.1000061" style="enable-background:new 0 0 750.2000122 400.1000061;" xml:space="preserve">
<g>
	<path d="M226.6000366,78.5000305c-1.5891113,0.6969604-3.3474121,1.352478-5.0618286,1.9414062h45.8043213
		c-5.8916626-7.2550659-12.6755981-13.5414429-20.2424927-17.2414551c-0.3999634-0.1999512-0.7000122-0.3999634-1.0999756-0.5
		c0,0,0,0.1000366-0.1000366,0.1000366C241.1000366,69.6000061,232.6000366,75.8000183,226.6000366,78.5000305z"/>
	<path d="M178.1000366,78.3999939c-5.5-3.0999756-13.8000488-10.2000122-19.2000122-15.5999756c0,0,0,0,0-0.1000366
		c-0.2999878,0.1000366-0.6000366,0.3000488-0.9000244,0.4000244c-7.6018066,3.7171021-14.4138794,10.0439453-20.3244019,17.3414307
		h44.6959229C180.965332,79.8595886,179.5137939,79.1854553,178.1000366,78.3999939z"/>
	<path d="M120.0999756,178.7435608c0.6865234,11.1289673,1.2501831,24.1913452,1.6071777,38.1984863h161.6884766
		c0.3582153-14.010437,0.9227905-27.0748291,1.6104126-38.1984863H120.0999756z"/>
	<path d="M282.979187,245.9084167H122.1209106c0.0374146,12.7489014-0.1235352,25.6904907-0.5299683,38.1984863h161.914978
		C283.1008301,271.5971985,282.9407959,258.6556702,282.979187,245.9084167z"/>
	<path d="M117.7000122,336.8000183c13.7999878,1.2000122,43.2000122,3.3999634,77.4000244,3.5999756c1,0,2.5999756,0,4.7999878,0
		h3.5H205.5c2.2000122,0,3.8000488,0,4.8000488,0c33.8999634-0.0999756,63.2999878-2.2999878,77.0999756-3.5
		c-1.0162964-7.453064-1.8295898-15.7785645-2.4703369-24.6603394H120.1634521
		C119.5238037,321.084137,118.7125244,329.3747253,117.7000122,336.8000183z"/>
	<path d="M285.6904297,110.4122009H119.3621826c-4.2574463,8.9315796-6.8236084,15.9785767-7.4621582,17.7878418
		c1.1559448,1.4449463,3.3557129,6.0274658,5.3927612,20.4105835h170.5222778
		c2.0349121-14.3482666,4.2305298-18.8674927,5.3850098-20.3106079
		C292.5591431,126.4839783,289.9765625,119.3913879,285.6904297,110.4122009z"/>
	<path d="M305.6000366,65.3000183l-13.4000244,57.7000122C293,125.1000061,293.6000366,126.6999817,294,127.6000061h0.0999756
		h0.000061h0.0999756l24.7000122,5l13.7000122-59.2999878L305.6000366,65.3000183z"/>
	<path d="M87.9000244,132.3000183L111,127.6000061c0.5-1.2000122,1.5-3.7999878,2.9000244-7.4000244l-12.8000488-55.2999878l-27,8
		L87.9000244,132.3000183z"/>
	<path d="M443.7999878,65.6000061l-27,8l13.5999756,59.0999756l25.2999878-5.0999756
		c0.2999878-0.9000244,0.7000122-2.4000244,1.4000244-4.4000244L443.7999878,65.6000061z"/>
	<path d="M677,73.3000183l-27-8l-13.0999756,56.5c0.9000244,2.7000122,1.5,4.7000122,1.7999878,5.7999878l24.5999756,5
		L677,73.3000183z"/>
	<path d="M130.1537476,56.4025574l5.7643433,24.8117676c6.2321167-7.9489746,13.5016479-14.9150391,21.6819458-18.9143066
		c0.1999512-0.1000366,0.3999634-0.2000122,0.5999756-0.3000488c-3.7000122-4.3999634-3.7999878-10.0999756-3.5999756-12.7999878
		L130.1537476,56.4025574z"/>
	<path d="M619.3909912,56.2832947l-27.3909302-8.083313c-1.2000732-0.0999756-3.4000854-0.2999878-6.2000732-0.5
		c1.5999756,1.1000366,3.7000122,2.2000122,6.4000244,3.6000366c8.7739258,4.2902222,16.4949951,12.9631958,23.0059814,22.9971313
		L619.3909912,56.2832947z"/>
	<path d="M503.4000244,47.9999695L473.9694824,56.6763l4.4207153,19.0285034
		c6.6991577-10.6261597,14.7280273-19.9151611,23.9098511-24.4047852c2.7999268-1.4000244,5-2.6000366,6.7000122-3.7000122
		C506.8000488,47.6999817,505.000061,47.8000183,503.4000244,47.9999695z"/>
	<path d="M269.5209351,81.651825l5.8581543-25.2155151l-25.1790771-7.4362793c0,2.5-0.5,7.8999634-3.6000366,12.7999878
		c0.3000488,0.2000122,0.6000366,0.2999878,0.9000244,0.5C255.8302002,66.3725891,263.2164307,73.5211487,269.5209351,81.651825z"/>
</g>
</svg>
