<?xml version="1.0" encoding="utf-8"?>
<!-- Generator: Adobe Illustrator 25.3.0, SVG Export Plug-In . SVG Version: 6.00 Build 0)  -->
<svg version="1.1" id="Layer_1" xmlns="http://www.w3.org/2000/svg" xmlns:xlink="http://www.w3.org/1999/xlink" x="0px" y="0px"
	 viewBox="0 0 750.2 400.1" style="enable-background:new 0 0 750.2 400.1;" xml:space="preserve">
<path d="M117.5,149.8l84.1,11.4l-8.1-1.5l-76.6-14.2C117,146.8,117.2,148.2,117.5,149.8z"/>
<path d="M288.3,145.4l-85,15.8l84.4-11.4C287.9,148.2,288.1,146.7,288.3,145.4z"/>
<path d="M294.3,128.6c-0.6,0.5-4.9,5.2-7.7,41.5c-3.1,41.1-4.5,119.8,1.7,166h7.1c-0.4-7.5-5.4-93.6-2.7-152.5
	c1.7-36,8.5-42.1,8.8-42.3l0.2-0.2l49.4,10.2l2.4-10.7L294.3,128.6z"/>
<path d="M118.6,170.1c-2.7-35.9-7-40.9-7.7-41.5l-59,11.9l2.4,10.8l49.4-10.2l0.2,0.2c0.3,0.2,7.1,6.3,8.8,42.3
	c2.7,58.9-2.3,145-2.7,152.5h6.7l0.1,0.2C123.1,290.2,121.7,211.2,118.6,170.1z"/>
<path d="M631.3,170.1c-2.8,36.5-4.9,125.4,1.7,175.2c4-2.1,6.7-7.9,7.1-8.7c-0.2-3.8-5.5-92.6-2.7-152.9c1.7-36,8.5-42.1,8.8-42.3
	l0.2-0.2l49.4,10.2l2.4-10.7L639,128.6C638.3,129.1,634,133.9,631.3,170.1z"/>
<path d="M455.6,128.6l-59,11.9l2.4,10.8l49.4-10.2l0.2,0.2c0.3,0.2,7.1,6.3,8.8,42.3c2.8,60.4-2.5,149.5-2.7,153
	c0.3,0.9,2.8,7.8,6.5,9.1c0,0,0.2,0.1,0.4,0.2c6.7-49.6,4.5-139.1,1.7-175.7C460.5,134.2,456.3,129.2,455.6,128.6z"/>
</svg>
