<?xml version="1.0" encoding="utf-8"?>
<!-- Generator: Adobe Illustrator 25.3.0, SVG Export Plug-In . SVG Version: 6.00 Build 0)  -->
<svg version="1.1" id="Layer_1" xmlns="http://www.w3.org/2000/svg" xmlns:xlink="http://www.w3.org/1999/xlink" x="0px" y="0px"
	 viewBox="0 0 750.2 400.1" style="enable-background:new 0 0 750.2 400.1;" xml:space="preserve">
<path d="M466.9,229.7h161c0.4-22.7,1.3-43.2,2.3-57.2H464.6C465.6,186.5,466.5,207,466.9,229.7z"/>
<path d="M462.6,346.3c7.2,3.4,43.2,19.6,84.9,19.6c48.6,0,84.3-19.9,84.7-20.1c-1.6-11.5-2.7-25-3.4-39.5H466
	C465.3,321,464.2,334.7,462.6,346.3z"/>
<path d="M119.7,172.5c0.9,12.8,1.6,28.9,2.1,46.3h161.6c0.4-17.5,1.2-33.5,2.1-46.3H119.7z"/>
<path d="M117.7,336.8c13.8,1.2,43.2,3.4,77.4,3.6c1,0,2.6,0,4.8,0h3.5h2.1c2.2,0,3.8,0,4.8,0c33.9-0.1,63.3-2.3,77.1-3.5
	c-1.2-9.1-2.2-19.5-2.9-30.6h-164C119.9,317.4,118.9,327.7,117.7,336.8z"/>
<path d="M140.5,53.4l4.2,18.2c4-3.8,8.3-7,12.9-9.2c0.2-0.1,0.4-0.2,0.6-0.3c-3.7-4.4-3.8-10.1-3.6-12.8L140.5,53.4z"/>
<path d="M592,48.2c-1.2-0.1-3.4-0.3-6.2-0.5c1.6,1.1,3.7,2.2,6.4,3.6c5.3,2.6,10.1,6.7,14.6,11.8l2.3-9.8L592,48.2z"/>
<path d="M484.3,53.6l2.5,10.6c4.7-5.6,9.9-10.2,15.6-12.9c2.8-1.4,5-2.6,6.7-3.7c-2.2,0.1-4,0.2-5.6,0.4L484.3,53.6z"/>
<path d="M250.2,49c0,2.5-0.5,7.9-3.6,12.8c0.3,0.2,0.6,0.3,0.9,0.5c4.4,2.2,8.6,5.2,12.5,8.8l4.2-18L250.2,49z"/>
</svg>
