<?xml version="1.0" encoding="utf-8"?>
<!-- Generator: Adobe Illustrator 25.3.0, SVG Export Plug-In . SVG Version: 6.00 Build 0)  -->
<svg version="1.1" id="Layer_1" xmlns="http://www.w3.org/2000/svg" xmlns:xlink="http://www.w3.org/1999/xlink" x="0px" y="0px"
	 viewBox="0 0 750.2 400.1" style="enable-background:new 0 0 750.2 400.1;" xml:space="preserve">
<polygon points="146.6,151.2 143.3,151.2 142.9,152.9 "/>
<path d="M283.7,206.5l-1.6-3.3l1.2-0.6l0.5,0.3c0.1-1.4,0.1-2.8,0.2-4.1l-0.5-0.3l-3,1.4l-1.2-2.4h-2.4l6.7,13.5
	C283.6,209.5,283.7,208,283.7,206.5z"/>
<path d="M287.5,151.1c0.1-0.5,0.1-1,0.2-1.4l-34.5-0.1v1.5H287.5z"/>
<polygon points="253.2,197.5 253.2,197.5 253.2,197.5 "/>
<path d="M283,236.8c0-1.6,0-3.2,0.1-4.7l-17-34.5h-2.4L283,236.8z"/>
<polygon points="252.8,193.4 250.8,197.4 252.8,197.4 "/>
<polygon points="258.4,217.4 271.4,243.8 273.8,243.8 258.4,212.5 253.2,223.2 253.2,228 "/>
<polygon points="237.9,254.1 216.1,257.3 217,259.4 239.3,256.1 245.4,243.9 243,243.9 "/>
<polygon points="212,248.2 229.4,245.7 230.3,243.9 226.9,243.9 211.1,246.2 210.1,243.9 209.1,243.9 209.1,250.7 221,277.4 
	252.8,283.3 252.8,279.5 250.9,279.2 244.7,273.1 252.8,271.9 252.8,269.7 252.8,269.8 240.1,271.6 247.1,278.5 235.7,276.4 
	231.9,275.7 223.6,274.2 217,259.4 216.1,257.3 "/>
<polygon points="129,104.7 120.7,100.3 120.7,102.7 124.4,104.7 "/>
<polygon points="44.8,108.2 49.6,80.1 47.3,80.8 43.6,102.6 "/>
<polygon points="76.5,104.8 76.5,102.6 47,118.1 47.5,120.3 76.8,104.8 "/>
<polygon points="158.3,104.7 150.4,58.5 148.2,58.5 156.1,104.7 "/>
<path d="M162.3,66l2.6,14.9V68.4C164,67.6,163.1,66.8,162.3,66z"/>
<polygon points="121.3,59 120.7,59.1 120.7,62.6 122,63.3 "/>
<polygon points="62.5,89.8 65,75.6 62.7,76.3 59.7,93.8 76.5,85 76.5,82.5 "/>
<polygon points="135.8,58.5 133.6,58.5 139,89.8 120.7,80.2 120.7,82.7 141.8,93.8 "/>
<polygon points="275.6,57.7 275.2,56.4 271.9,55.4 272.4,57.1 271.4,58.3 275.1,58.3 "/>
<polygon points="298,128.4 310.2,130.8 308.6,128.4 "/>
<path d="M291.7,131.3c0.6-1.5,1.1-2.4,1.5-2.9l-40-0.1v2.9L291.7,131.3z"/>
<polygon points="235.3,104.7 239,104.7 252.8,86.9 252.8,82.3 "/>
<polygon points="253.6,58.3 254.2,57.6 253.2,54.1 253.2,58.3 "/>
<path d="M217.6,104.7l35.2-45.3v-0.9h-2.9l-1.2,1.5l-1.1,0.1c-0.5,0.9-1,1.8-1.6,2.6c-0.3,0.4-0.6,0.9-1,1.3l0.6-0.1l-14,17.9
	l-2.4,0.3l1.2,1.3l-16,20.5l-5.4-5.7v5.3l1.1,1.1H217.6z"/>
<path d="M209,115.7v-4.7l-12.7,16.3l-21.5-22.6H169l7.3,42.4l-11.5-6v10h-0.2l0.3,0.7v-0.8h3.6l-2.5-5.6l9.7,5.6H209v-1.6l-26.2-0.1
	L209,115.7z M178.2,145.9l-6.7-39.3l22.5,23.7L180.2,148L178.2,145.9z"/>
<polygon points="214.4,197.4 224,197.4 241.8,188.9 237.6,197.4 240,197.4 252.8,171.4 252.8,166.6 244.4,183.5 218.4,196 
	227.6,152.4 252.8,152.5 252.8,151.2 209.1,151.2 209.1,152.4 223.8,152.4 "/>
<polygon points="350.8,110 360.5,81.5 357.7,80.7 350,103.4 334.7,80.2 306.8,80.1 315.9,68.4 313,67.5 300.9,83 333.1,83.1 "/>
<path d="M292.5,104.8c0.1,0.8,0.1,1.6,0.2,2.3l27.4,0.1l19.4,29.5l4,0.8l-21.9-33.3l-24.6,0v0.6H292.5z"/>
<path d="M291.7,107.1c-0.1-0.8-0.1-1.5-0.2-2.3h-31.9l-1.8,2.3L291.7,107.1z"/>
<polygon points="351.3,78.8 348.5,78 348.2,78.8 347.5,77.7 343.1,76.4 349,85.4 "/>
<polygon points="322.9,70.4 322.4,71 324.9,71 "/>
<path d="M122.2,252.5c0,2.6,0,5.2,0,7.8l8.9-16.4h-4.2L122.2,252.5z"/>
<polygon points="160,190.5 163.1,197.4 164.8,197.4 164.8,201.2 183.8,243.8 187.8,243.8 167.1,197.5 164.9,197.5 164.9,192.5 
	160.3,182.2 152,197.4 156.2,197.4 "/>
<polygon points="213,290.1 209.1,289.4 209.1,290.1 "/>
<polygon points="209,293.1 209,290.2 204.6,290.2 205.6,292.5 "/>
<path d="M284.6,307c-0.1-1.2-0.2-2.5-0.2-3.8l-31.2-5.7v3.7L284.6,307z"/>
<path d="M112.2,113.5c-0.1,0.8-0.1,1.6-0.2,2.3l0.3,0.2l8.2,8.6v-6.7L112.2,113.5z"/>
<path d="M53.4,139.2l4.2-0.9l-3.6-3.8l23.6-12.4l9.8,10.3l4.2-0.9L81,120.3l19.8-10.4l10.3,5.4c0.1-0.8,0.1-1.5,0.2-2.3l-10.5-5.5
	l-50.3,26.4l0.6,2.9L53.4,139.2z"/>
<polygon points="209,243.8 209,241.4 207.6,238.4 209,238.2 209,234.1 206.3,235.4 191.8,203.2 193,197.5 185.3,197.5 206,243.8 "/>
<path d="M119.3,323.9c-0.1,1.3-0.2,2.5-0.4,3.7l1.7-0.2v-3.7L119.3,323.9z"/>
<polygon points="154.2,290.1 158.1,290.1 156.3,286.1 "/>
<polygon points="209,330 173.1,323.4 164.8,304.9 164.8,313.9 170.5,326.7 205.3,333.1 201.6,336.5 207.1,336.5 209,334.8 "/>
<polygon points="153,243.9 128,290.1 132.2,290.1 157.2,243.9 "/>
<polygon points="183.4,290.2 179.4,290.2 188,309.6 209,313.4 209,309.7 190.6,306.3 "/>
<path d="M241.7,339.8c1.9-0.1,3.9-0.2,5.7-0.2l3.3-3h-5.5L241.7,339.8z"/>
<polygon points="162.7,243.9 158.6,243.9 164.9,257.8 164.9,248.8 "/>
<polygon points="260.4,322.9 253.2,329.4 253.2,334.4 268.4,320.6 253.2,317.8 253.2,321.6 "/>
<path d="M127.2,337.7c1.7,0.1,3.5,0.3,5.4,0.4l-1.5-1.5h-5.1L127.2,337.7z"/>
<polygon points="164.8,332.1 164.8,335.8 168.3,336.5 185.2,336.5 185.7,335.9 "/>
<path d="M154,151.2l-6.7,12.4l-17.2,8.2l4.3-20.6h-3.7l-5.1,24.2l-5,1.4v2.4l21-6l-18.5,24.3h2.9l10.1-13.3l-7.2,13.3h4.2l25-46.2
	H154z M143.8,170.1l-4.3,1.2l4.9-2.3L143.8,170.1z"/>
<polygon points="159.6,140.9 150.2,136 148,146.4 159.6,140.9 "/>
<polygon points="174,163.3 174.4,163.5 176.9,151.7 175.7,151.1 168.5,151.1 "/>
<polygon points="146.6,151.2 154,151.2 156.6,146.4 "/>
<polygon points="146.9,134.2 122.5,121.4 137.5,137.1 134.5,151.2 143.3,151.2 "/>
<path d="M121.3,203.6c0.1,1.9,0.1,3.9,0.2,5.8l1.2-0.6l6.2-11.5h-2.9L121.3,203.6z"/>
<path d="M120.5,151.2v-0.1h-2.9c0.7,5.1,1.3,11.4,1.9,19c0.2,2.2,0.3,4.5,0.5,6.9l0.6-0.2v-25.6H120.5z"/>
<polygon points="120.7,151.2 130.8,151.2 133.5,138.2 120.5,124.6 120.5,151.1 120.7,151.1 "/>
<path d="M258.4,155.2l8.6,17.5l17.7-8.5l1.3,0.7c0.4-4.7,0.8-8.8,1.3-12.4l-34.5-0.1v14.1L258.4,155.2z"/>
<path d="M201.4,84.5c-0.4,0-0.7,0-1.1,0c-1.7,0-3.3-0.2-4.9-0.5l13.6,14.3V83.7C206.5,84.2,203.9,84.5,201.4,84.5z"/>
<polygon points="219.3,234.6 220.1,232.8 215.3,235.1 "/>
<polygon points="189.3,197.5 198.8,152.4 180.5,152.3 176.9,169.7 "/>
<polygon points="209,234.1 222.7,227.5 237.6,197.4 224,197.4 213.3,202.5 214.4,197.4 209.1,197.4 209.1,152.4 202.5,152.4 
	193,197.5 209,197.5 "/>
<path d="M209,104.8v6.2l3.3-4.2l-2.1-2.2h-1.1v-1.1l-19.8-20.8c-2.6-0.7-7.1-2.1-11.2-4.4c-3.7-2.1-8.7-6-13.2-10l5.4,31.7l4.5,4.7
	H209z"/>
<path d="M249.8,53.1c-0.3,1.6-0.7,3.5-1.5,5.3h1.6L251,57L249.8,53.1z"/>
<path d="M285.6,170c0-0.3,0.1-0.7,0.1-1l-1.1-0.6l-15.9,7.6l10.6,21.5h4.7C284.5,187.3,285,178,285.6,170z"/>
<polygon points="265.6,281.9 265.3,279.8 272.1,273.1 262.7,271.7 258.4,263.2 254.2,271.7 252.8,271.9 252.8,279.5 "/>
<path d="M264.1,269.8l12.7,1.8l-9.2,8.9l0.3,1.7l6,1.1l9.3-9.1c0-1.8-0.1-3.7-0.1-5.6l-15.5-2.3l-9.2-18.6l-5.6,11.4v10.4l5.6-11.4
	L264.1,269.8z"/>
<path d="M269,264.6l14.1,2c0-3.2-0.1-6.5-0.1-9.7l-5.5-0.8l-6.1-12.4h-12.7L269,264.6z"/>
<path d="M283.5,285.2c-0.1-2.6-0.2-5.3-0.2-7.9l-6.8,6.6L283.5,285.2z"/>
<polygon points="252.8,243.9 252.8,254.4 258.1,243.8 253.2,243.8 253.2,228 245.4,243.9 "/>
<polygon points="226.9,243.9 228,243.7 250.8,197.4 240,197.4 220.7,236.5 209,238.2 209,241.4 210.1,243.9 "/>
<polygon points="258.4,182 266.1,197.5 276.9,197.5 258.4,160.1 252.8,171.4 252.8,193.4 "/>
<path d="M283,254.7c0-3.7,0-7.3,0-11h-9.2l5.1,10.4L283,254.7z"/>
<polygon points="243,243.9 253.2,223.2 253.2,197.5 230.3,243.9 "/>
<polygon points="253.2,197.5 263.7,197.5 258.4,186.9 "/>
<polygon points="123,58.5 133.6,58.5 133.1,55.5 "/>
<path d="M119.3,61.8c-1.2,4.9-2.3,10.4-3.2,16l4.6,2.4V62.6L119.3,61.8z"/>
<path d="M115.2,77.3c0.9-5.6,2-11.1,3.2-16l-1.9-1l-40,11.8v10.3l24.3-12.8L115.2,77.3z"/>
<path d="M112.5,98.4l-11.8-6.2l-23.9,12.6h35.1C112.1,102.8,112.3,100.6,112.5,98.4z"/>
<path d="M120.7,104.7v-2l-7.2-3.8c-0.2,2-0.4,4-0.6,5.9h7.6v-0.1H120.7z"/>
<polygon points="162,136.5 163.9,140.7 164.8,141.2 164.8,104.7 158.3,104.7 161.6,124.3 124.4,104.7 120.7,104.7 120.7,104.8 
	120.5,104.8 120.5,117.9 160.6,139 "/>
<polygon points="164.9,104.8 169,104.8 164.9,81 "/>
<path d="M154.6,52l-4.6,4.5l0.3,2h5.7C155.1,56.2,154.7,53.9,154.6,52z"/>
<polygon points="156.1,104.7 129,104.7 158.8,120.3 "/>
<polygon points="147.7,55.7 148.1,55.3 154.4,49.2 135.1,54.9 135.8,58.5 148.2,58.5 "/>
<path d="M115.8,80.1c-0.8,5.5-1.5,11.2-2.1,16.6l7,3.7V82.7L115.8,80.1z"/>
<path d="M112.7,96.1c0.6-5.4,1.3-11,2.1-16.5l-14.1-7.4L76.5,85v17.6l24.3-12.8L112.7,96.1z"/>
<path d="M297,62.8l-0.9-0.3l-7.8,10c1.9,10.4,3.2,21.9,4.1,31.7l4.6,0V62.8z"/>
<path d="M291.4,104.2c-0.8-9.5-2.1-20.5-3.9-30.7l-23.8,30.6L291.4,104.2z"/>
<polygon points="235.3,104.7 217.6,104.7 209,115.7 209,149.5 253.2,149.5 253.2,131.2 214.8,131.1 "/>
<polygon points="253.2,54.1 253.2,49.9 251.8,49.4 "/>
<polygon points="252.8,82.3 271.4,58.3 253.6,58.3 252.8,59.4 "/>
<path d="M293.2,61.7l-7.7-2.3c0.8,2.9,1.5,6.1,2.2,9.3L293.2,61.7z"/>
<path d="M252.8,86.9v17.8H239l-18.3,23.5l32.5,0.1v-23.5h6.4l27.3-35.1c-0.7-3.8-1.6-7.4-2.5-10.7l-2.4-0.7h-6.9L252.8,86.9z"/>
<path d="M164.9,339.9c3.5,0.1,7,0.2,10.7,0.3l2.2-2l-9.5-1.7h-3.4V339.9z"/>
<polygon points="155,320.3 147.3,334.7 131,336.4 131.2,336.6 164.8,336.6 164.8,335.8 161.7,335.2 "/>
<path d="M145,331.3l10.4-19.2l8.9,19.9l0.5,0.1v-18.2l-8.7-19.5l-16.9,31.1l-18.6,2v9h-2.7c0,0.2,0,0.3-0.1,0.5
	c0.9,0.1,1.9,0.2,2.9,0.3v-0.6h5.4l-2.9-3L145,331.3z"/>
<path d="M180.9,340.3c4.6,0.1,9.4,0.2,14.2,0.2c0.5,0,1.2,0,2,0l4.5-4.1h-16.4L180.9,340.3z"/>
<path d="M154.2,290.1h-22l-9.2,17l-2.4,0.3c0,0.1,0,0.3,0,0.4v16l16.3-1.7L154.2,290.1z"/>
<polygon points="158.1,290.1 164.8,304.9 164.8,290.1 "/>
<polygon points="164.9,290.2 179.4,290.2 164.9,257.8 "/>
<polygon points="157.2,243.9 158.6,243.9 158,242.4 "/>
<path d="M253.2,321.6l-44.2-8.1V330l4.3,0.8l-4.3,3.9v1.7h-1.9l-4.5,4.1l0.8,0l2.1,0c1.5,0,2.7,0,3.6,0v-3.9h36.2l7.9-7.1V321.6z"/>
<polygon points="158.2,151.2 164.6,151.2 161.7,144.7 "/>
<polygon points="167.1,197.5 185.3,197.5 164.9,151.9 164.9,192.5 "/>
<path d="M133.2,197.4l-11.4,21c0.2,8.2,0.3,16.8,0.4,25.5h4.7l25.2-46.5H133.2z"/>
<path d="M213,290.1l40.2,7.4v-7.3h30.6c0-0.4,0-0.9,0-1.3l-30.9-5.7v6.8H213z"/>
<polygon points="209.1,289.4 209.1,250.7 206,243.8 187.8,243.8 208.1,289.2 "/>
<path d="M120.8,303.4l7.2-13.3h-6.6C121.3,294.6,121.1,299,120.8,303.4z"/>
<polygon points="162.7,243.9 164.8,243.9 164.8,201.2 163.1,197.4 156.2,197.4 131,243.9 153,243.9 158.3,234.1 "/>
<polygon points="164.9,248.8 183.4,290.2 204.6,290.2 183.8,243.8 164.9,243.8 "/>
<polygon points="209,309.7 253.2,317.8 253.2,301.2 209,293.1 "/>
<path d="M252.8,336.6v2.7c14.9-0.7,27-1.7,34.6-2.4c0,0,0,0,0,0c0-0.1,0-0.3-0.1-0.5h-34.2v-2.1l-2.4,2.2H252.8z"/>
<path d="M121.2,200.1l2-2.6h-2.1C121.1,198.3,121.2,199.2,121.2,200.1z"/>
<path d="M120.7,188v-8.9l-0.5,0.1C120.3,182.1,120.5,185,120.7,188z"/>
<polygon points="573.8,151.2 570.5,151.2 574.2,152.9 "/>
<path d="M462.3,151.1h1.6v-1.5l-1.8,0C462.2,150,462.3,150.5,462.3,151.1z"/>
<path d="M465.7,197.4h0.5l-0.5-1.1C465.7,196.7,465.7,197,465.7,197.4z"/>
<polygon points="479.2,254.1 474.1,243.9 471.7,243.9 477.8,256.1 500.1,259.4 501,257.3 "/>
<path d="M507,243.9l-1,2.3l-15.8-2.3h-3.4l0.9,1.8l17.4,2.5l-4.1,9.1l-0.9,2l-6.6,14.8l-8.3,1.5l-3.8,0.7l-11.4,2.1l7-6.9l-10.2-1.5
	c0,0.7,0,1.4,0,2.2l5.6,0.8l-5.7,5.5c0,1.4-0.1,2.8-0.1,4.2l29.4-5.4l12-26.7v-6.8H507z"/>
<polygon points="592.7,104.7 596.4,102.7 596.4,100.3 588.1,104.7 "/>
<polygon points="640.2,104.8 677.2,124.3 668,70.6 665.7,69.9 674.4,120.3 640.6,102.6 640.6,104.8 "/>
<polygon points="568.9,58.5 566.7,58.5 558.8,104.7 561,104.7 "/>
<polygon points="553,63.9 552.2,68.3 552.2,81 555.3,63.1 554.9,62.7 552.2,60.2 552.2,63.2 "/>
<path d="M547.3,58.3h3.1l-12.2-11.9c-1,0-2,0-3,0.1l0.5,0.5l-4.1-0.4c-9.2,0.2-17.5,0.7-23.5,1v0.1l31.8,3.4L547.3,58.3z"/>
<polygon points="598.1,58.3 599.5,50.3 597.4,49.7 596.5,54.8 596.5,58.3 "/>
<polygon points="612.4,54.2 609.5,53.3 599.8,58.3 604.5,58.3 "/>
<polygon points="595.9,58.5 595.1,63.3 596.4,62.6 596.4,58.5 "/>
<polygon points="652.6,66 650.3,65.3 654.5,89.8 640.6,82.5 640.6,85 657.4,93.8 "/>
<polygon points="596.4,82.7 596.4,80.2 578.1,89.8 583.5,58.5 581.3,58.5 575.3,93.8 "/>
<polygon points="408.5,128.4 401.9,138.4 405.9,137.6 410.1,131.3 437.4,131.3 452.1,128.3 "/>
<path d="M456.6,128.3c0.4,0.5,0.9,1.4,1.5,2.9l5.8,0v-2.9L456.6,128.3z"/>
<polygon points="478.1,104.7 481.8,104.7 464.3,82.3 464.3,86.9 "/>
<path d="M506.9,104.7l1.1-1.1v-5.3l-5.4,5.7l-16-20.5l1.2-1.3l-2.4-0.3l-14-17.9l36.5,3.9v-3.7L468.3,60l-1.1-1.4l-2.4,0.7
	c-0.1,0.2-0.1,0.4-0.2,0.6l34.8,44.8H506.9z"/>
<path d="M552.3,151.2v-10l-11.5,6l7.3-42.4h-5.8l-21.5,22.6l-12.7-16.3v4.7l26.2,33.7l-26.2,0.1v1.6h33.2l9.7-5.6l-2.5,5.6h3.6v0.8
	l0.3-0.7H552.3z M536.9,148l-13.8-17.7l22.5-23.7l-6.7,39.3L536.9,148z"/>
<path d="M475.3,188.9l17.8,8.5h9.6l-9.5-45l14.8,0v-1.2h-43.7v1.3l25.2,0l9.2,43.6l-26-12.5l-8.4-17v4.1c0,0.3,0,0.6,0.1,0.9
	l12.7,25.8h2.4L475.3,188.9z"/>
<polygon points="410.3,80.1 394.2,80.1 384.2,83.1 416.2,83 410.3,75.4 407.3,76.3 "/>
<path d="M390.3,112.1l0.9,4l5.8-8.8l59.5-0.1c0.1-0.7,0.1-1.5,0.2-2.3h-36.6v-0.6l-24.6,0L390.3,112.1z"/>
<path d="M457.5,107.1l1.8,0l-1.6-2C457.6,105.7,457.6,106.4,457.5,107.1z"/>
<polygon points="586.1,243.9 596.4,263 596.4,255.3 590.2,243.9 "/>
<polygon points="552.3,197.4 554,197.4 557.1,190.5 560.9,197.4 565.1,197.4 556.8,182.2 552.2,192.5 552.2,197.5 550,197.5 
	529.3,243.8 533.3,243.8 552.3,201.2 "/>
<polygon points="508,290.1 508,289.4 504.1,290.1 "/>
<polygon points="512.5,290.2 508.1,290.2 508.1,293.1 511.5,292.5 "/>
<path d="M639.5,122.1l17.3,9.1l7.5,1.5L638.2,119c0.1,1.6,0.1,3,0.2,4.2L639.5,122.1z"/>
<polygon points="699.6,133.7 694.7,138.8 698.3,139.6 "/>
<path d="M604.7,116l11.6-6.1l19.8,10.4l-28.6,30.1l0.1,0.6h4.3l25.5-26.8c-0.1-1.5-0.1-3.5-0.3-5.7l-20.9-11l-19.8,10.4v6.7
	L604.7,116z"/>
<polygon points="690.2,137.9 692.5,138.4 688.2,113.5 708.8,91.8 710.4,84.9 687.4,109 682.4,79.6 707.9,82.3 688.3,76.5 
	681.8,75.8 681.5,74.5 679.2,73.9 "/>
<polygon points="510.8,235.4 508.1,234.1 508.1,238.2 509.5,238.4 508.1,241.4 508.1,243.8 511.1,243.8 531.8,197.5 524.1,197.5 
	525.2,203.2 "/>
<path d="M628.1,290.2h-3.8l3.8,0.4C628.1,290.5,628.1,290.4,628.1,290.2z"/>
<path d="M628.8,307.1L628.8,307.1l-32.2-3.4v3.7l30.8,3.3l-6.4,15.7l-24.4-2.6v3.7l16.6,1.8l-6.8,7.2h5.1l9.5-10l-4.1,10h3.4l9-21.9
	C629,312.1,628.9,309.6,628.8,307.1z"/>
<polygon points="560.7,286.1 558.9,290.1 562.9,290.1 "/>
<polygon points="546.6,326.7 552.3,313.9 552.3,304.9 544,323.4 508.1,330 508.1,334.8 510,336.5 515.5,336.5 511.8,333.1 "/>
<path d="M588.7,354.9l1.3,5.9c1.2-0.3,2.4-0.6,3.6-0.9l-0.8-3.9l3.7-3.9v-5.3L588.7,354.9z"/>
<polygon points="564.1,243.9 559.9,243.9 584.9,290.1 589.1,290.1 "/>
<polygon points="537.7,290.2 533.7,290.2 526.5,306.3 508.1,309.7 508.1,313.4 529.1,309.6 "/>
<path d="M488,356.2c2.6,0.8,5.3,1.6,8.1,2.4l-24.3-22h-5.5L488,356.2z"/>
<polygon points="552.2,248.8 552.2,257.8 558.4,243.9 554.4,243.9 "/>
<path d="M463.8,334.3L463.8,334.3l0.1-0.9C463.9,333.7,463.9,334,463.8,334.3z"/>
<path d="M574.8,348.3l3.2,15c1.2-0.2,2.4-0.4,3.6-0.6l-2.8-13.2l12.2-12.8h-5.1L574.8,348.3z"/>
<path d="M556.1,365.6l7.5-4.3l6.5,3.1c2.2-0.3,4.4-0.6,6.6-0.9l-13.2-6.3l-11.2,6.5v2.1C553.5,365.8,554.8,365.7,556.1,365.6z"/>
<polygon points="531.3,335.9 531.9,336.5 548.8,336.5 552.3,335.8 552.3,332.1 "/>
<path d="M627.9,225.2c0-1.2,0.1-2.4,0.1-3.7l-18.3-24h-2.9L627.9,225.2z"/>
<path d="M628.6,201.5c0-0.8,0.1-1.6,0.1-2.3l-5.6-1.6h-8.2L628.6,201.5z"/>
<path d="M586.3,151.2h-3.7l4.3,20.6l-17.2-8.2l-6.7-12.4h-4.2l25,46.2h4.2l-7.2-13.3l10.1,13.3h2.9l-18.5-24.3l21,6v-2.4l-5-1.4
	L586.3,151.2z M573.3,170.1l-0.6-1.1l4.9,2.3L573.3,170.1z"/>
<path d="M602.8,213l-6.3-3v10.8l12.5,23h4.2l-15.9-29.4l10.4,5l18.6,24.4h1.4c0-0.6,0-1.3,0-1.9l-31.1-40.9v3.8L602.8,213z"/>
<polygon points="569.1,146.4 566.8,136 557.5,140.9 557.5,140.9 "/>
<polygon points="540.2,151.7 542.7,163.5 543.1,163.3 548.6,151.1 541.4,151.1 "/>
<polygon points="560.5,146.4 563.1,151.2 570.5,151.2 "/>
<polygon points="579.6,137.1 594.6,121.4 570.2,134.2 573.8,151.2 582.6,151.2 "/>
<polygon points="596.5,209.9 596.5,204.7 591,197.4 588.1,197.4 594.3,208.9 "/>
<polygon points="596.5,151.2 596.4,151.2 596.4,176.8 614.1,181.9 607.6,151.1 596.5,151.1 "/>
<polygon points="596.4,151.1 596.5,151.1 596.5,124.6 583.6,138.2 586.3,151.2 596.4,151.2 "/>
<path d="M626.9,269.1l0.8,0.1c0-2.2,0-4.5-0.1-6.7l-5.8-2.8L626.9,269.1z"/>
<path d="M618.1,183l11.2,3.2c0.3-6.1,0.7-11.6,1-16.2c0.6-7.6,1.2-13.9,1.9-19h-20.2l-0.5,0.5L618.1,183z"/>
<path d="M618.8,254.2l8.8,4.2c0-4.3,0-8.6,0-12.8l-1.4-1.8h-13.1L618.8,254.2z"/>
<path d="M462.5,152.5c0.5,3.8,0.9,8.2,1.4,13.3l0.4,0.8v-14.1L462.5,152.5z"/>
<polygon points="508,67.9 508,98.3 534.2,70.7 "/>
<polygon points="501.8,235.1 497,232.8 497.8,234.6 "/>
<polygon points="540.2,169.7 536.6,152.3 518.3,152.4 527.8,197.5 "/>
<polygon points="502.7,197.4 503.8,202.5 493.1,197.4 479.5,197.4 494.4,227.5 508.1,234.1 508.1,197.5 524.1,197.5 514.5,152.4 
	508,152.4 508,197.4 "/>
<path d="M508,103.6v1.1h-1.1l-2.1,2.2l3.3,4.2v-6.2h34.2l4.5-4.7l5.5-31.9v-5.1l-4.9-4.8h-39.2V47.8l-0.9-0.1
	c-1.5,0.1-2.8,0.2-3.9,0.3l-35.7,10.5H508v5.7l34,3.6L508,103.6z"/>
<path d="M466.9,243.9h4.9l-5-10.1C466.8,237.1,466.8,240.5,466.9,243.9z"/>
<polygon points="508.1,241.4 508.1,238.2 496.4,236.5 477.1,197.4 466.2,197.4 489.1,243.7 490.2,243.9 507,243.9 "/>
<path d="M465.9,201.6c0.3,8.4,0.6,17.6,0.8,27.2l7.5,15.1h12.7L465.9,201.6z"/>
<polygon points="599.8,58.3 598.1,58.3 597.9,59.3 "/>
<path d="M596.5,54.8v-5.3l-4.4-1.3c-1.4-0.1-3.7-0.3-6.8-0.4l-1.8,10.8h12.4L596.5,54.8z"/>
<path d="M596.4,80.2l19.9-10.5l16.7,8.8c-1.1-6.5-2.4-13.1-4-19.4l0,0l-2.4-0.7h-22.2l-8,4.2V80.2z"/>
<path d="M637.3,61.5l0.3,1.8l-7.4-3.9l-0.1,0c1.6,6.4,2.9,13.1,4,19.7l6.5,3.4v-20L637.3,61.5z"/>
<path d="M637.2,104.8h3l-3.2-1.7C637.1,103.7,637.2,104.3,637.2,104.8z"/>
<path d="M596.5,104.7v0.1h39.7c-0.1-0.7-0.1-1.5-0.2-2.2l-19.7-10.4l-19.9,10.5v2H596.5z"/>
<polygon points="555.1,136.5 556.5,139 596.5,117.9 596.5,104.8 596.4,104.8 596.4,104.7 592.7,104.7 555.5,124.3 558.8,104.7 
	552.3,104.7 552.3,141.2 553.2,140.7 "/>
<polygon points="552.2,104.8 552.2,81 548.1,104.8 "/>
<polygon points="552.2,58.3 550.4,58.3 552.2,60.2 "/>
<path d="M556.9,46.5c-1.5,0-3-0.1-4.5-0.1v12h14.4l0.3-2L556.9,46.5z"/>
<polygon points="558.3,120.3 588.1,104.7 561,104.7 "/>
<path d="M583.1,48l-0.5-0.5c-6-0.3-14-0.7-22.6-1l8.9,8.7l0.4,0.4l-0.5,2.8h12.4L583.1,48z"/>
<path d="M616.3,89.8l19.5,10.2c-0.6-5.9-1.4-12.3-2.4-18.9l-17.1-9l-19.9,10.5v17.6L616.3,89.8z"/>
<path d="M634.5,81.7c1,6.6,1.8,13,2.3,18.9l3.8,2V85L634.5,81.7z"/>
<polygon points="427.1,70.4 420.1,72.5 420.1,104.2 453.4,104.2 "/>
<polygon points="499.5,104.7 481.8,104.7 502.3,131.1 463.9,131.2 463.9,149.5 508.1,149.5 508.1,115.7 "/>
<path d="M463.7,59.6l-13.9,4.1L460.2,77C461.2,71.2,462.3,65.3,463.7,59.6z"/>
<path d="M464.3,61.6C463,67,461.9,72.5,461,78l3.3,4.2V61.6z"/>
<path d="M459.6,80.9l-12.7-16.3l-16.8,5l26.7,34.3C457.4,96.9,458.3,89,459.6,80.9z"/>
<path d="M478.1,104.7h-13.8V86.9l-3.9-5c-1.2,8.1-2.1,16-2.7,22.9h6.2v23.5l32.5-0.1L478.1,104.7z"/>
<polygon points="551.4,349.2 549.3,365.3 552.2,363.7 552.2,336.5 548.8,336.5 539.3,338.2 "/>
<polygon points="569.8,334.7 562,320.3 555.4,335.2 552.3,335.8 552.3,336.6 585.9,336.6 586.1,336.4 "/>
<polygon points="596.5,336.5 596.5,327.5 577.9,325.5 561.1,294.4 552.3,313.9 552.3,332.1 552.8,332 561.7,312.1 572.1,331.3 
	593.8,333.6 591,336.6 596.4,336.6 596.4,346.8 606.3,336.5 "/>
<path d="M538,356.8l-1.2,8.7c2.8,0.2,5.7,0.3,8.6,0.3l2-15.3l-15.6-14.1h-16.4L538,356.8z"/>
<path d="M596.4,352.2v7.1c10.1-2.7,18.4-5.8,24.4-8.3l-10,0l5.9-14.5h-5.4L596.4,352.2z"/>
<polygon points="584.9,290.1 562.9,290.1 580.2,322.1 596.5,323.8 596.5,307.4 594.1,307.1 "/>
<polygon points="552.3,290.1 552.3,304.9 558.9,290.1 "/>
<polygon points="552.2,290.2 552.2,257.8 537.7,290.2 "/>
<polygon points="558.4,243.9 559.9,243.9 559.1,242.4 "/>
<path d="M508.1,334.8l-4.3-3.9l4.3-0.8v-16.6l-43.2,8c-0.2,2.8-0.4,5.6-0.7,8.3l7.6,6.8H508v24.9c7.8,1.7,16.3,3.1,25.2,3.8l0.9-7
	L510,336.5h-1.9V334.8z"/>
<polygon points="552.5,151.2 558.9,151.2 555.4,144.7 "/>
<polygon points="552.2,192.5 552.2,151.9 531.8,197.5 550,197.5 "/>
<path d="M596.5,220.7l-12.6-23.3h-18.9l25.2,46.5h6.2v11.4l16.2,30l15.4,1.6c-0.1-4.6-0.2-9.3-0.3-14l-3.1-0.3L609,243.8h-12.5
	V220.7z"/>
<path d="M466.2,297.1l37.9-7h-37.7C466.4,292.4,466.3,294.8,466.2,297.1z"/>
<polygon points="508,250.7 508,289.4 508.9,289.2 529.3,243.8 511.1,243.8 "/>
<polygon points="589.1,290.1 596.4,303.7 596.5,303.7 596.5,290.2 624.3,290.2 610.3,288.7 596.4,263 596.4,290.1 "/>
<polygon points="564.1,243.9 586.1,243.9 560.9,197.4 554,197.4 552.3,201.2 552.3,243.9 554.4,243.9 558.8,234.1 "/>
<polygon points="552.2,248.8 552.2,243.8 533.3,243.8 512.5,290.2 533.7,290.2 "/>
<path d="M466.1,300.8c-0.2,5.7-0.5,11.4-0.9,16.8l43-7.9v-16.6L466.1,300.8z"/>
<path d="M463.9,336.5h-0.3c-0.4,3.4-0.7,6.7-1.2,9.8c0.5,0.2,1.1,0.5,1.8,0.9v-10.6h2.1l-2.4-2.2V336.5z"/>
<path d="M593.9,197.4l2.7,3.5v-3.4h10.4l-4.5-6l20.7,6h5.7c0.1-3.1,0.3-6.1,0.4-9l-32.8-9.4v18.2H593.9z"/>
<path d="M615.3,348.4l11.3,0c3.4-1.6,5.3-2.6,5.3-2.7l0,0c-0.4-3-0.8-6-1.1-9.3h-10.7L615.3,348.4z"/>
<polygon points="609.8,197.5 614.8,197.5 608.3,195.7 "/>
</svg>
