<?xml version="1.0" encoding="utf-8"?>
<!-- Generator: Adobe Illustrator 25.3.0, SVG Export Plug-In . SVG Version: 6.00 Build 0)  -->
<svg version="1.1" id="Layer_1" xmlns="http://www.w3.org/2000/svg" xmlns:xlink="http://www.w3.org/1999/xlink" x="0px" y="0px"
	 viewBox="0 0 750.2 400.1" style="enable-background:new 0 0 750.2 400.1;" xml:space="preserve">
<g>
	<path d="M305.6,65.3L292.2,123c0.8,2.1,1.4,3.7,1.8,4.6h0.1h0.1l24.7,5l13.7-59.3L305.6,65.3z"/>
	<path d="M87.9,132.3l23.1-4.7c0.5-1.2,1.5-3.8,2.9-7.4l-12.8-55.3l-27,8L87.9,132.3z"/>
	<path d="M285.5,110.1h-166c-4.3,9.1-7,16.3-7.6,18.1c1.2,1.4,3.4,6,5.4,20.5h170.5c2-14.4,4.2-19,5.4-20.4
		C292.6,126.5,289.9,119.2,285.5,110.1z"/>
	<path d="M430.4,132.7l25.3-5.1c0.3-0.9,0.7-2.4,1.4-4.4l-13.3-57.6l-27,8L430.4,132.7z"/>
	<path d="M636.9,121.8c0.9,2.7,1.5,4.7,1.8,5.8l24.6,5l13.7-59.3l-27-8L636.9,121.8z"/>
</g>
</svg>
