<?xml version="1.0" encoding="utf-8"?>
<!-- Generator: Adobe Illustrator 25.3.0, SVG Export Plug-In . SVG Version: 6.00 Build 0)  -->
<svg version="1.1" id="Layer_1" xmlns="http://www.w3.org/2000/svg" xmlns:xlink="http://www.w3.org/1999/xlink" x="0px" y="0px"
	 viewBox="0 0 750.2000122 400.1000061" style="enable-background:new 0 0 750.2000122 400.1000061;" xml:space="preserve">
<path d="M120.9003906,300.3825378H284.194397c-0.0673828-1.2723389-0.1343994-2.545105-0.1957397-3.8328247H121.0969238
	C121.0354614,297.837616,120.9679565,299.1101379,120.9003906,300.3825378z"/>
<path d="M283.1118164,231.1899109H121.9896851c0.0184326,1.2747192,0.0366211,2.5493774,0.0513916,3.8327637h161.0189209
	C283.0748901,233.7391663,283.0932617,232.4647522,283.1118164,231.1899109z"/>
<path d="M281.8060303,102.7083435H123.2411499c-0.6880493,1.2932129-1.3470459,2.5689087-1.9768066,3.8198853h162.5214233
	C283.1550293,105.2771301,282.4949341,104.0011902,281.8060303,102.7083435z"/>
<path d="M289.000061,115.1000061c0.5999756,1.4000244,1.2000122,2.7000122,1.7000122,3.9000244l12.499939-54.4000244
	l-2.3999634-0.7000122L289.000061,115.1000061z"/>
<polygon points="337.3999634,74.8000183 335,74.0000305 321.3999634,133.1000061 323.7999878,133.6000061 "/>
<path d="M115.5,116.5000305c0.5-1.2000122,1.0999756-2.5,1.7000122-3.8000488l-11.4000244-49.2000122l-2.4000244,0.7000122
	L115.5,116.5000305z"/>
<polygon points="85.2999878,132.8000183 71.5999756,73.6999817 69.2000122,74.3999939 82.7999878,133.3000183 "/>
<path d="M460.1000366,114.3999939L448.5,64.1999817l-2.3999634,0.7000122l12.5,53.9000244
	C459,117.5000305,459.5,116.0000305,460.1000366,114.3999939z"/>
<polygon points="425.3999634,133.6999817 427.7999878,133.1999817 414.2000122,74.3000183 411.7999878,75.0000305 "/>
<path d="M635.4000244,117.3000183l12.2000122-52.7000122l-2.4000244-0.7000122l-11.4000244,49.1000366
	C634.4000244,114.5000305,634.9000244,116.0000305,635.4000244,117.3000183z"/>
<path d="M117.8000031,152.5999908c0.1999969,1.1999969,0.3000031,2.5,0.4000015,3.8000031h168.6000061
	c0.1000061-1.3000031,0.2999878-2.6000061,0.3999939-3.8000031H117.8000031z"/>
</svg>
