<?xml version="1.0" encoding="utf-8"?>
<!-- Generator: Adobe Illustrator 25.3.0, SVG Export Plug-In . SVG Version: 6.00 Build 0)  -->
<svg version="1.1" id="Layer_1" xmlns="http://www.w3.org/2000/svg" xmlns:xlink="http://www.w3.org/1999/xlink" x="0px" y="0px"
	 viewBox="0 0 750.2 400.1" style="enable-background:new 0 0 750.2 400.1;" xml:space="preserve">
<path d="M121.8,219.9h161.5c0.4-17.6,1.1-33.9,2.1-46.8H119.7C120.6,186.1,121.4,202.3,121.8,219.9z"/>
<path d="M294,127.6h0.1h0.1l24.7,5l13.7-59.3l-27-8L292.2,123C293,125.1,293.6,126.7,294,127.6z"/>
<path d="M111,127.6c0.5-1.2,1.5-3.8,2.9-7.4l-12.8-55.3l-27,8l13.8,59.4L111,127.6z"/>
<path d="M455.7,127.6c0.3-0.9,0.7-2.4,1.4-4.4l-13.3-57.6l-27,8l13.6,59.1L455.7,127.6z"/>
<path d="M650,65.3l-13.1,56.5c0.9,2.7,1.5,4.7,1.8,5.8l24.6,5L677,73.3L650,65.3z"/>
</svg>
