<?xml version="1.0" encoding="utf-8"?>
<!-- Generator: Adobe Illustrator 25.3.0, SVG Export Plug-In . SVG Version: 6.00 Build 0)  -->
<svg version="1.1" id="Layer_1" xmlns="http://www.w3.org/2000/svg" xmlns:xlink="http://www.w3.org/1999/xlink" x="0px" y="0px"
	 viewBox="0 0 750.2 400.1" style="enable-background:new 0 0 750.2 400.1;" xml:space="preserve">
<g>
	<path d="M205.5,340.5c2.2,0,3.8,0,4.8,0c33.9-0.1,63.3-2.3,77.1-3.5c0,0,0,0,0,0c-1-7.6-1.9-16.2-2.5-25.3l-81.8,12.8l-82.8-13.1
		c-0.7,9.2-1.5,17.9-2.5,25.6c13.8,1.2,43.2,3.4,77.4,3.6c1,0,2.6,0,4.8,0l3.5,0L205.5,340.5z"/>
	<path d="M283.7,289c-0.4-9.9-0.6-20.1-0.7-30.3l-79.9,12.5l-81-12.8c-0.1,10.2-0.3,20.4-0.7,30.3l81.6,12.9L283.7,289z"/>
	<path d="M203.1,217.9L121.4,205c0.3,7.1,0.5,14.6,0.6,22.2l81.1,12.9l80.1-12.6c0.1-7.6,0.3-15.1,0.6-22.2L203.1,217.9z"/>
	<path d="M117.7,151.1c0.5,4,1,8.6,1.5,14.1l84,13.3l82.9-13c0.5-5.4,1-10.1,1.5-14l-84.3,13.2L117.7,151.1z"/>
	<path d="M203.1,111.4l-89.5-14.2c-0.2,1.8-0.4,3.7-0.5,5.4l90,14.3l88.2-13.9c-0.2-1.8-0.3-3.6-0.5-5.4L203.1,111.4z"/>
	<path d="M632,345.7L632,345.7c-1.3-10.1-2.3-21.7-3-34.2l-82.5,13l-80.9-12.8c-0.7,12.7-1.7,24.5-3.1,34.6
		c7.2,3.4,43.2,19.6,84.9,19.6C595.9,365.9,631.6,345.9,632,345.7z"/>
	<path d="M628.1,288.8c-0.3-10-0.4-20.2-0.4-30.4l-81.2,12.7l-79.6-12.6c0,10.1-0.2,20.4-0.4,30.4l80,12.7L628.1,288.8z"/>
	<path d="M546.5,217.9L466,205.2c0.2,7,0.4,14.5,0.6,22.2l79.8,12.6l81.4-12.8c0.1-7.7,0.4-15.2,0.6-22.2L546.5,217.9z"/>
	<path d="M462.4,151.3c0.5,4,1,8.6,1.5,14.1l82.6,13.1l84.2-13.3c0.5-5.4,1-10.1,1.5-14l-85.7,13.5L462.4,151.3z"/>
	<path d="M458.4,97.4c-0.2,1.9-0.4,3.7-0.5,5.4l88.6,14l89.6-14.1c-0.2-1.7-0.3-3.6-0.5-5.4l-89.1,14L458.4,97.4z"/>
</g>
</svg>
