<?xml version="1.0" encoding="utf-8"?>
<!-- Generator: Adobe Illustrator 25.3.0, SVG Export Plug-In . SVG Version: 6.00 Build 0)  -->
<svg version="1.1" id="Layer_1" xmlns="http://www.w3.org/2000/svg" xmlns:xlink="http://www.w3.org/1999/xlink" x="0px" y="0px"
	 viewBox="0 0 750.2000122 400.1000061" style="enable-background:new 0 0 750.2000122 400.1000061;" xml:space="preserve">
<g>
	<path d="M477.6160889,208.8867493V184.322113l-12.699646-6.8146362c0.4515381,7.2240601,0.8710938,15.7798462,1.2196655,25.2191162
		L477.6160889,208.8867493z"/>
	<path d="M477.6160889,227.5220032l-10.9127197-5.8557739c0.1855469,7.9633179,0.3143921,16.2816772,0.3687134,24.7625732
		l10.5440063,5.6578979V227.5220032z"/>
	<path d="M477.6160889,285.6513367v-14.0823364l-10.5562744-5.6644897
		c-0.0653076,8.1554565-0.2102051,16.3187256-0.4487305,24.3238525l11.0050049,5.9052734V285.6513367z"/>
	<path d="M477.6160889,338.5394592v-23.7705688l-11.736084-6.2976074
		c-0.4266357,8.3016357-0.9786377,16.2597656-1.673645,23.6665649l11.8340454,6.3501587
		C476.567627,338.5051575,477.0819092,338.5222473,477.6160889,338.5394592z"/>
	<path d="M614.7160645,208.8867493l13.8925781-7.4547119c0.3604126-9.5027466,0.7937622-18.0668335,1.2578125-25.239563
		l-15.1503906,8.1296387V208.8867493z"/>
	<path d="M614.7160645,227.5220032v24.5646973l12.9282227-6.9372559c0.0575562-8.4945068,0.1904297-16.8170166,0.3809814-24.769165
		L614.7160645,227.5220032z"/>
	<path d="M627.6515503,264.6278381l-12.9354858,6.9411621v14.0823364v10.4822998l13.3817749-7.1806641
		C627.8591919,280.9370422,627.715271,272.7742615,627.6515503,264.6278381z"/>
	<path d="M614.7160645,314.7688904v23.7705688c0.5342407-0.0172119,1.0484619-0.0343018,1.5757446-0.0514526l14.2062988-7.6231079
		c-0.6940308-7.4265137-1.243103-15.3877563-1.6688843-23.6691284L614.7160645,314.7688904z"/>
	<path d="M132.8638916,207.8866882V183.322052l-12.9140625-6.9296265c0.4904175,7.5593872,0.9256592,16.0732422,1.274292,25.2484131
		L132.8638916,207.8866882z"/>
	<path d="M132.8638916,226.5219421l-11.0708618-5.9406128c0.1820068,8.0365601,0.296814,16.3377075,0.3254395,24.7393799
		l10.7454224,5.7659302V226.5219421z"/>
	<path d="M132.8638916,284.6512756v-14.0823364l-10.8380127-5.8156738
		c-0.1068726,8.1845703-0.3056641,16.3153076-0.6080322,24.2384033l11.4460449,6.1419067V284.6512756z"/>
	<path d="M132.8638916,337.5393982v-23.7705688l-12.3540649-6.6291504
		c-0.5291138,8.3340454-1.2049561,16.2244263-2.0408325,23.4694824l12.8191528,6.8787842
		C131.8154297,337.5050964,132.3296509,337.5221863,132.8638916,337.5393982z"/>
	<path d="M272.7444458,207.8866882l11.1248169-5.9695435c0.3469849-9.1693115,0.7803345-17.682312,1.269165-25.2456665
		l-12.3939819,6.6505737V207.8866882z"/>
	<path d="M272.7444458,226.5219421v24.5646973l10.236145-5.4926758c0.0274658-8.3997803,0.1414795-16.7002563,0.3224487-24.7377319
		L272.7444458,226.5219421z"/>
	<path d="M283.0766602,265.0246887l-10.3322144,5.5442505v14.0823364v10.4822998l10.9441528-5.8726196
		C283.3847046,281.3398132,283.1848145,273.2096863,283.0766602,265.0246887z"/>
	<path d="M284.6002808,307.4070129l-11.855835,6.3618164v23.7705688c0.5341797-0.0172119,1.0484619-0.0343018,1.5756836-0.0514526
		l12.3294067-6.6159668C285.8106079,323.6308289,285.1317139,315.742157,284.6002808,307.4070129z"/>
</g>
</svg>
