<?xml version="1.0" encoding="utf-8"?>
<!-- Generator: Adobe Illustrator 25.3.0, SVG Export Plug-In . SVG Version: 6.00 Build 0)  -->
<svg version="1.1" id="Layer_1" xmlns="http://www.w3.org/2000/svg" xmlns:xlink="http://www.w3.org/1999/xlink" x="0px" y="0px"
	 viewBox="0 0 750.2 400.1" style="enable-background:new 0 0 750.2 400.1;" xml:space="preserve">
<g>
	<path d="M144,156.4c-0.3,0.1-0.6,0.1-0.9,0.2c-1.1,0.4-2.5,0.9-2.3,2c0.3,1.3,1.8,0.9,2.9,0.8c3-0.3,5.9,0.1,8.7,1.1l0.6-3.7
		c-1-0.1-1.9-0.1-2.9-0.2C148,156.5,146,155.9,144,156.4z"/>
	<path d="M152.9,125.6c1,0.4,2.2,0.5,3.3,0.3c0.4-0.1,0.9-0.1,1.3-0.2c-2.9-0.3-5.5-0.6-7.6-0.9C150.9,125,151.9,125.3,152.9,125.6z
		"/>
	<path d="M148.1,145.5c2-0.3,4-0.7,6.1-0.8c0.3,0,0.6,0,0.9,0l2.6-15.2c-0.4-0.7-1.4-1-2.2-1.2c-3.3-0.8-6.8-1-10.2-1.1
		c-1.3,0-2.3-0.4-3.3-0.9c-1,4.7-2.3,10.2-3.6,16.4c0.8,0.4,1.6,0.8,2.4,1.3C142.9,145.6,145.4,146,148.1,145.5z"/>
	<path d="M320.7,158.9c-1.8,0.2-3.2,0.9-4.5,1.8l2.3,13.3c3.4-0.3,6.9,0,10.4,0.9c1.9,0.5,3.7,1.2,5.2,2.5c2,1.7,4.3,2.2,6.8,1.9
		c-1.3-6.5-2.6-12.8-3.8-18.8c-1.8-0.4-3.6-0.7-5.4-1C328,159,324.4,158.5,320.7,158.9z"/>
	<path d="M315.1,143c-0.2,1-0.8,1.5-1.6,2l1.1,6.2c2-0.6,4.1-0.9,6.3-1.2c2.4-0.3,4.8-0.4,7.3-0.6c1.8-0.1,4.4,0.5,7,1.5
		c-2.3-10.9-4.4-20.3-6-27.3c-1-0.1-2-0.1-3-0.1c-1.4,0.2-3.3,0.5-5.5,0.8c-0.9,0.2-1.7,0.5-2.6,0.8c-2,0.7-3.8,0.6-5.7,0.3
		c-0.7,0.1-1.5,0.2-2.2,0.3l2.3,13.1C314,139.8,315.5,141,315.1,143z"/>
	<path d="M350.5,231c-2.2-13.3-4.8-27.4-7.4-41c-0.7,0.4-1.5,0.8-2.3,1.3c-1.9,1.1-3.7,2.3-5.5,3.4c-0.5,0.3-1,1-1.7,0.7
		c-0.7-0.3-0.3-1.1-0.4-1.7c-3.7-1-8,0.1-10.6,2.8l4.5,25.7c5.7,4.1,12.4,6.6,19.5,8.6C347.9,231,349.2,231.1,350.5,231z"/>
	<path d="M127.1,201.6c0.6,0.2,0.6,0.8,0.7,1.2c0.3,2.3,1.5,3.2,4,3.1c1.1-0.1,1.9,0.2,2.7,0.8c1,0.9,2.3,1.3,3.8,1
		c1.5-0.3,2.8,0,4.1,0.6c0.5,0.2,1.1,0.4,1.6,0.6l1.7-10c-2.5-0.7-5.1-1.3-7.7-1.9c-3.4-0.8-6.9-1.7-10.2-2.8
		c-0.5,2.4-0.9,4.9-1.4,7.3C126.6,201.5,126.8,201.5,127.1,201.6z"/>
	<path d="M127.4,208.9c-0.7-0.6-1.3-1.2-2-1.7c-0.1,0.7-0.2,1.3-0.4,2C125.8,209,126.6,208.9,127.4,208.9z"/>
	<path d="M125.9,270.3c2.5-0.9,5-1.3,7.5-1.4l2.4-14c-0.7-0.2-1.3-0.4-2-0.6c-1.9-0.5-3.9-0.5-5.9-0.4c-1.1,0.1-2.1-0.2-2.5-1.1
		c-1.4-2.7-4.1-3.7-7-4.5c-1.2,8-2.1,15.4-2.7,21.9C119,271.5,122.3,271.6,125.9,270.3z"/>
	<path d="M341.1,279c-0.7-0.7-1.3-1.6-0.5-2.5c0.9-0.9,1.9-0.8,3-0.3c1.7,0.9,3.4,0.9,5-0.3c1.6-1.2,3.3-1,5.1-0.3
		c0.6,0.2,1.1,0.5,1.6,0.9c0.4,0.4,0.8,0.7,1.2,0.9c-0.4-6.9-1.3-15.1-2.6-24.2c-7-1.8-13.8-4.1-20.9-5.6c-0.5-0.1-1.1-0.2-1.6-0.3
		l6.1,35.1c2-0.4,3.9-0.8,5.9-1.3C342.5,280.5,341.8,279.8,341.1,279z"/>
	<path d="M345.9,232.8c-0.9,1.4,0,2.4,1.3,3.1c1.7,0.9,3.2,2,4.6,3.1c-0.4-2.2-0.7-4.5-1.1-6.8c-0.3-0.1-0.7-0.3-1.1-0.4
		C348.2,231.5,346.7,231.4,345.9,232.8z"/>
	<path d="M346.1,245.8c0.8,0.4,1.7,0.6,2.7,0.7c1.5,0.1,2.9,0.3,4.3,0.7c-0.2-1.5-0.4-3-0.7-4.5c-1.9,0.5-3.9,0.9-5.9,1
		c-0.5,0-1.1,0.3-1.2,0.9C345.1,245.1,345.5,245.5,346.1,245.8z"/>
	<path d="M130.9,249.7c1.9,0.4,3.8,0.8,5.7,1.1l2.2-12.5c0-0.1,0-0.2-0.1-0.3c-0.1-0.6,0.1-1.1,0.4-1.5l1.3-7.6
		c-0.3-0.1-0.6-0.3-1-0.4c-3.4-1.3-7.1-1.3-10.7-0.9c-3.8,0.4-4.2,1-4,4.4c0.1,1.2-0.1,2.6-1.6,2.8c-0.9,0.2-1.8,0.4-2.7,0.6
		c-0.4,2.7-0.9,5.4-1.2,8C122.3,246.5,126.2,248.6,130.9,249.7z"/>
	<path d="M149.1,179.2c-2.5,0.6-4.8,1.5-7.1,2.6c2,1.3,4,2.6,6,3.9L149.1,179.2z"/>
	<path d="M144.1,165.1c2.8,0.7,5.3,0.3,7.6-1.2l0-0.1C149.1,163.5,146.5,163.9,144.1,165.1z"/>
	<path d="M414.1,255.5l2.6-15.1c-1.8-0.2-3.6-0.5-5.4-1c-1.9-0.5-3.7-1.2-5.2-2.5c-2.1-1.8-4.6-2.3-7.3-1.8c-1,6-1.9,11.9-2.6,17.4
		c4.2,0.6,8.2,1.7,12.4,2.3C410.5,255.1,412.3,255.3,414.1,255.5z"/>
	<path d="M401,222.3c1.4-0.8,2.7-1.7,4.1-2.5c0.5-0.3,1-1,1.7-0.7c0.7,0.3,0.3,1.1,0.4,1.7c4,1.1,8.8-0.4,11.3-3.5
		c0.6-0.8,1.2-1.6,1.9-2.4c0.2-0.3,0.5-0.6,0.9-0.7l2.2-12.8c-0.7-0.5-1.4-1-2-1.5c-0.9-0.8-1.7-1.6-2.5-2.4
		c-3.4-3.7-7.4-6.5-11.8-8.7C405.1,199.8,402.9,211.2,401,222.3z"/>
	<path d="M618.8,276.5c-1.4-0.2-2.8-0.5-4.2-0.8l1.2,6.7c1.7-0.3,3.4-0.7,5.1-1.1C620.1,279.7,619.5,278.1,618.8,276.5z"/>
	<path d="M412.5,265c-0.1,0-0.2,0-0.3,0c-4.2,0.3-13.3-3.8-15.5-6.9c-0.3-0.4-0.6-0.9-1-1.3c-1,8-1.8,15.2-2.1,21.2
		c5.5,1.4,10.8,2.7,16,3.8L412.5,265z"/>
	<path d="M624.2,213.1c-2-1.3-4.2-1.4-6.5-1.7c-1.3-0.1-2.3-0.1-3.2,0.8c-0.3,0.3-0.7,0.7-1.3,0.5c-0.6-0.2-0.6-0.8-0.7-1.2
		c-0.3-2.3-1.5-3.2-4-3.1c-1.1,0.1-1.9-0.2-2.7-0.8c-0.9-0.8-2-1.2-3.3-1.1l2,11.3c5.6,1.4,11.2,3,16.2,5.7c3,1.7,5.8,3.6,7.9,6.1
		c-0.9-5.4-1.9-10.9-2.9-16.5C625.4,213.6,624.6,213.4,624.2,213.1z"/>
	<path d="M617.7,205c-1.6,0.1-3.2,0.3-4.8,0.5c2.6,2.4,5.5,4.6,9.3,5.5c0.9,0.2,1.8,0.7,2.7,1.1c0.2,0.1,0.5,0.2,0.7,0.3
		c-0.5-2.6-0.9-5.1-1.4-7.7C622,204.7,619.9,204.8,617.7,205z"/>
	<path d="M607.5,123.6c0,0-0.1,0-0.1,0c-0.7,0-1.3-0.1-1.9-0.3c-0.9,0.1-2.1,0.3-3.4,0.5c2,1.5,4,2.9,6.3,3.9
		C608.1,126.3,607.7,124.9,607.5,123.6z"/>
	<path d="M612.3,160.4c1.1-0.1,2.1,0.2,2.5,1.1c0.3,0.6,0.7,1.1,1.1,1.5c-1.3-6.4-2.6-12.6-3.8-18.2c-5.3,1.3-10.9,0.7-16.4,0
		c-1.4-0.2-2.7-0.5-4-0.6l2.1,12.3c4.3,1,8.4,2.4,12.6,3.5C608.4,160.5,610.3,160.5,612.3,160.4z"/>
	<path d="M589.5,131.3c0.2,0,0.5,0,0.7,0c1.8-0.2,3.2-1.3,3.4-3c0.2-1.5-1.1-2.1-2.4-2.6c-0.4-0.1-0.7-0.2-1.1-0.3
		c-0.5,0.1-1.1,0.1-1.6,0.2L589.5,131.3z"/>
	<path d="M421.8,144.8c1.4-0.1,2-1,1.3-2c-0.2-0.4-0.6-0.7-0.9-1c-1.5-1.2-2.9-2.5-4.4-3.7c-0.4,1.7-0.8,3.6-1.2,5.4
		c0.8,0.3,1.6,0.5,2.3,0.8C419.8,144.5,420.7,144.8,421.8,144.8z"/>
	<path d="M429,133.2c1.9,1.1,3.8,2.2,5.9,3.1l1.8-10.5c-8.4-0.9-13.9-1.7-15.9-1.9c-0.3,1.5-0.7,3-1,4.7c0.4,0.1,0.7,0.2,1.1,0.3
		C423.9,129.9,426.3,131.7,429,133.2z"/>
	<path d="M428.9,148.6c-1.2,0.5-2.6,0.1-3.5-0.6c-2.8-1.8-5.9-2.5-9.2-2.9c-1.5,6.9-3.1,14.5-4.7,22.5c3.5,0.7,7,1.3,10.6,1.6
		c1.4,0.1,2.8,0.6,4.1,1.1c0.9,0.3,1.8,0.5,2.7,0.5l4-22.7C431.6,148,430.3,148.1,428.9,148.6z"/>
	<path d="M625.3,247.9c-0.3,0.7,0.4,1,1,1.2c1.7,0.6,2.8,2,4.6,2.6c-1.2,0.4-2.3-0.2-3.5-0.3c-1.1-0.1-2.5-0.5-3,0.6
		c-0.5,1.1,1,1.3,1.7,1.9c0.2,0.2,0.5,0.3,0.7,0.5c2.5,1.5,4,3.4,4.1,6.1c0.1,1.1,0.4,2.2,0.8,3.2c0.5,1.3,1.2,1.9,2.1,2
		c-0.6-5.4-1.4-11.3-2.3-17.6c-1.4-0.3-2.9-0.5-4.4-0.6C626.4,247.3,625.6,247.2,625.3,247.9z"/>
	<path d="M413.7,175.5c3.1,1.5,6.1,3,9.7,3.7c1.7,0.3,2.8,1.4,3.6,2.7l1.1-6.4c-4.2-0.2-8.3-0.2-12.5-0.2
		C414.9,175.2,414.3,175.4,413.7,175.5z"/>
	<path d="M617.1,179.6c0.7-0.1,1.4-0.3,2.1-0.5c-0.8-3.9-1.5-7.7-2.3-11.4c-2.2-1.3-4.8-2.3-7.5-3c-4.7-1.1-9.6-1.6-14.5-2.1
		l1.8,10.3c0.4,0,0.9,0.1,1.3,0.2c1.9,0.4,3.3,1.6,3.5,3.2c0.2,1.6-1.1,2.3-2.5,2.9c-0.4,0.2-0.8,0.3-1.2,0.5l0.9,5
		c0.6,0.4,1.3,0.7,2,1c3.4,1.3,7.1,1.3,10.7,0.9c3.8-0.4,4.2-1,4-4.4C615.5,181.2,615.7,179.9,617.1,179.6z"/>
</g>
</svg>
