<?xml version="1.0" encoding="utf-8"?>
<!-- Generator: Adobe Illustrator 25.3.0, SVG Export Plug-In . SVG Version: 6.00 Build 0)  -->
<svg version="1.1" id="Layer_1" xmlns="http://www.w3.org/2000/svg" xmlns:xlink="http://www.w3.org/1999/xlink" x="0px" y="0px"
	 viewBox="0 0 750.2000122 400.1000061" style="enable-background:new 0 0 750.2000122 400.1000061;" xml:space="preserve">
<path d="M203.05896,160.0102844c0.0545044,0.0378418,0.111145,0.072876,0.1654053,0.1109619
	c-0.0502319-0.0404663-0.1047974-0.0783081-0.1555176-0.1184692
	C203.0656128,160.0053406,203.0621948,160.0077209,203.05896,160.0102844z"/>
<path d="M203.072998,159.9995422c0.0494385,0.0415039,0.102356,0.079834,0.1513672,0.1217041
	c2.6665039-2.2422485,6.0401611-3.9877319,9.9274292-5.3255005c-0.7171021,0.21875-1.4208984,0.4512939-2.1043091,0.704895
	C207.9978027,156.745697,205.3049927,158.2323303,203.072998,159.9995422z"/>
<path d="M195.0901489,155.5006409c-0.7477417-0.2774658-1.5193481-0.5303955-2.307373-0.7661743
	c3.6998901,1.3717651,7.1525269,3.1086426,10.2719727,5.2730103c0.0032349-0.0026855,0.0066528-0.005249,0.0098877-0.0079346
	C200.8326416,158.2323303,198.1398315,156.745697,195.0901489,155.5006409z"/>
<path d="M203.2025757,119.0844421c-15.8515625-18.7890625-61.0957031-13.1282959-90.2717896-14.6105347
	c-1.0788574,12.1585693-1.5076904,21.7443848-1.5828247,23.5595703l0.7852783,0.5644531
	c1.3076172,1.8736572,3.6243896,7.3879395,5.6663208,23.5476685c15.9962769-1.8143921,37.994873-3.4119873,56.5130005-1.3806763
	c4.2420044,0.4014282,8.3704224,1.0703735,12.3019409,2.0665283c3.0443115,0.7283936,5.8872681,1.6124878,8.475647,2.6691895
	c3.0354004,1.1266479,5.725647,2.605835,7.9786987,4.4955444c2.2530518-1.8897095,4.9432373-3.3688965,7.9786377-4.4955444
	c19.484375-7.9545288,53.6115723-5.9894409,76.336853-3.4628906c2.1420898-16.897522,4.5840454-22.102478,5.8443604-23.699646
	l-0.1774902,0.0065918c-0.0078735-0.2125854-0.4055176-10.4573364-1.5915527-23.8295898
	C262.4238892,105.749054,218.9746704,100.38974,203.2025757,119.0844421z"/>
<path d="M143.2196045,52.495636l-16.0985718,4.7494507c7.8878784,4.2085571,24.5123901,13.4207764,31.2891235,19.7739868
	C155.161377,68.2724304,149.0379639,59.5293274,143.2196045,52.495636z"/>
<path d="M250.4570312,77.0190735c6.4391479-6.0366821,21.7631226-14.651001,30.0413208-19.1051025l-15.53479-4.5826416
	C259.3545532,60.216095,253.5786743,68.6146545,250.4570312,77.0190735z"/>
</svg>
