<?xml version="1.0" encoding="utf-8"?>
<!-- Generator: Adobe Illustrator 25.3.0, SVG Export Plug-In . SVG Version: 6.00 Build 0)  -->
<svg version="1.1" id="Layer_1" xmlns="http://www.w3.org/2000/svg" xmlns:xlink="http://www.w3.org/1999/xlink" x="0px" y="0px"
	 viewBox="0 0 750.2 400.1" style="enable-background:new 0 0 750.2 400.1;" xml:space="preserve">
<path d="M284.4,59.1L250.2,49c0.1,2.7-0.5,8.7-4.1,13.8c-4.8,6.8-13.3,13-19.3,15.7c-5.7,2.5-13.6,4.5-13.7,4.6l-0.5,0.1l0-0.1
	c-3.7,0.9-7.5,1.4-11.1,1.4c-0.4,0-0.7,0-1.1,0c-2.8-0.1-5.6-0.5-8.2-1.1l0,0.1l-0.5-0.1c-0.1,0-7.2-1.4-13.5-4.9
	c-5.5-3.1-13.8-10.2-19.2-15.6c-4.4-4.5-4.6-10.7-4.3-13.7l-34.7,10.3c-3.6,13.3-5.8,31.6-7.1,46.1h178.7
	C290.3,90.9,288.1,72.4,284.4,59.1z"/>
<path d="M118.2,155.3H287c0.2-1.4,0.3-2.7,0.5-3.9H117.7C117.9,152.6,118,153.9,118.2,155.3z"/>
<path d="M285.5,59.4c6.4,23.7,8.3,62.8,8.5,68.3l0.1-0.1l0.1,0l0.1,0l59.4,12l12.4-56.4L285.5,59.4z"/>
<path d="M110.4,127.7c0.2-5.2,2.1-44.3,8.4-68L39.3,83.2l12.4,56.4L110.4,127.7z"/>
<path d="M396.4,139.5l59-11.9c0.1-5.1,1.2-39.4,8.4-68L384,83.2L396.4,139.5z"/>
<path d="M630.1,59.4c7.2,28.6,8.3,62.9,8.4,68.2l0.2-0.2c0,0.1,0,0.1,0.1,0.2l0,0l59.5,12l12.4-56.4L630.1,59.4z"/>
</svg>
