<?xml version="1.0" encoding="utf-8"?>
<!-- Generator: Adobe Illustrator 25.3.0, SVG Export Plug-In . SVG Version: 6.00 Build 0)  -->
<svg version="1.1" id="Layer_1" xmlns="http://www.w3.org/2000/svg" xmlns:xlink="http://www.w3.org/1999/xlink" x="0px" y="0px"
	 viewBox="0 0 750.2 400.1" style="enable-background:new 0 0 750.2 400.1;" xml:space="preserve">
<path d="M291,99.3c-1.3-13.4-3.4-28.7-6.6-40.2L250.2,49c0.1,2.7-0.5,8.7-4.1,13.8c-4.8,6.8-13.3,13-19.3,15.7
	c-5.7,2.5-13.6,4.5-13.7,4.6l-0.5,0.1l0-0.1c-3.7,0.9-7.5,1.4-11.1,1.4c-0.4,0-0.7,0-1.1,0c-2.8-0.1-5.6-0.5-8.2-1.1l0,0.1l-0.5-0.1
	c-0.1,0-7.2-1.4-13.5-4.9c-5.5-3.1-13.8-10.2-19.2-15.6c-4.4-4.5-4.6-10.7-4.3-13.7l-34.7,10.3c-3.1,11.4-5.1,26.4-6.5,39.5
	l89.7,14.2L291,99.3z"/>
</svg>
