<?xml version="1.0" encoding="utf-8"?>
<!-- Generator: Adobe Illustrator 25.3.0, SVG Export Plug-In . SVG Version: 6.00 Build 0)  -->
<svg version="1.1" id="Layer_1" xmlns="http://www.w3.org/2000/svg" xmlns:xlink="http://www.w3.org/1999/xlink" x="0px" y="0px"
	 viewBox="0 0 750.2 400.1" style="enable-background:new 0 0 750.2 400.1;" xml:space="preserve">
<g>
	<path d="M171.5,188.5c1.3,0.8,4.4,2.2,7.6,2.2c5.9,0,7.8-3.8,7.7-6.6c-0.1-4.8-4.4-6.8-8.8-6.8h-2.6v-3.5h2.6
		c3.4,0,7.6-1.7,7.6-5.8c0-2.7-1.7-5.1-6-5.1c-2.7,0-5.3,1.2-6.8,2.3l-1.2-3.4c1.8-1.3,5.2-2.6,8.9-2.6c6.7,0,9.8,4,9.8,8.1
		c0,3.5-2.1,6.5-6.3,8v0.1c4.2,0.8,7.6,4,7.6,8.8c0,5.5-4.2,10.2-12.4,10.2c-3.8,0-7.2-1.2-8.9-2.3L171.5,188.5z"/>
	<path d="M197.3,193.8V191l3.6-3.5c8.7-8.3,12.6-12.7,12.7-17.8c0-3.5-1.7-6.7-6.8-6.7c-3.1,0-5.7,1.6-7.2,2.9l-1.5-3.3
		c2.4-2,5.7-3.5,9.6-3.5c7.3,0,10.4,5,10.4,9.9c0,6.3-4.6,11.4-11.7,18.3l-2.7,2.5v0.1H219v3.8L197.3,193.8L197.3,193.8z"/>
</g>
</svg>
