<?xml version="1.0" encoding="utf-8"?>
<!-- Generator: Adobe Illustrator 25.3.0, SVG Export Plug-In . SVG Version: 6.00 Build 0)  -->
<svg version="1.1" id="Layer_1" xmlns="http://www.w3.org/2000/svg" xmlns:xlink="http://www.w3.org/1999/xlink" x="0px" y="0px"
	 viewBox="0 0 750.2 400.1" style="enable-background:new 0 0 750.2 400.1;" xml:space="preserve">
<path d="M119.7,172.5c0.9,12.8,1.7,28.9,2.1,46.3h161.5c0.4-17.5,1.2-33.5,2.1-46.3H119.7z"/>
<path d="M119.8,59.8c-1.3,4.7-2.4,10.1-3.3,15.7L159.1,63c-0.1-0.1-0.1-0.1-0.2-0.2c-4.2-4.2-4.5-10.1-4.3-13.2L119.8,59.8z"/>
<path d="M287.3,72c-0.8-4.6-1.8-9-2.9-13L250.2,49c0.1,2.3-0.4,6.9-2.7,11.4L287.3,72z"/>
<path d="M117.8,336.9c13.8,1.2,43.2,3.4,77.4,3.6c1,0,2.6,0,4.8,0l3.5,0l2.1,0c2.2,0,3.8,0,4.8,0c33.9-0.1,63.3-2.3,77.1-3.5
	c0,0,0,0,0,0c-1.2-9.1-2.2-19.5-2.9-30.6H120.6C120,317.4,119,327.8,117.8,336.9z"/>
<path d="M466.7,229.7h161.2c0.4-22.7,1.3-43.2,2.3-57.2H464.4C465.4,186.5,466.3,207,466.7,229.7z"/>
<path d="M462.4,346.3c7.2,3.4,43.2,19.6,84.9,19.6c48.6,0,84.3-19.9,84.7-20.1l0,0c-1.5-11.4-2.6-25-3.3-39.4H465.8
	C465.1,321,464,334.7,462.4,346.3z"/>
</svg>
