<?xml version="1.0" encoding="utf-8"?>
<!-- Generator: Adobe Illustrator 25.3.0, SVG Export Plug-In . SVG Version: 6.00 Build 0)  -->
<svg version="1.1" id="Layer_1" xmlns="http://www.w3.org/2000/svg" xmlns:xlink="http://www.w3.org/1999/xlink" x="0px" y="0px"
	 viewBox="0 0 750.2000122 400.1000061" style="enable-background:new 0 0 750.2000122 400.1000061;" xml:space="preserve">
<g>
	<path d="M120.1449585,178.7435608c0.6908569,11.1218262,1.2585449,24.1868896,1.6194458,38.1984863h161.6422729
		c0.3609619-14.0114746,0.928772-27.0765381,1.6196289-38.1984863H120.1449585z"/>
	<path d="M119.9108276,59.3722229c-1.6989136,6.2221069-3.0784302,13.5527954-4.1964111,21.0692139h66.6499634
		c-1.3977051-0.5839233-2.8392944-1.2612305-4.2445679-2.0528564c-5.5439453-3.121582-13.8466797-10.215332-19.1835938-15.609375
		c-4.4074707-4.4564819-4.5712891-10.7472534-4.28125-13.6572876L119.9108276,59.3722229z"/>
	<path d="M226.7555542,78.4085999c-1.6404419,0.736084-3.4719238,1.4234619-5.2503052,2.0328369h67.1682129
		c-1.1367798-7.6419678-2.5462646-15.0906982-4.2843628-21.3797607l-34.2330322-10.0985107
		c0.0821533,2.6936035-0.5101318,8.6542969-4.1270752,13.7554932
		C241.2174683,69.5003967,232.6911011,75.7450256,226.7555542,78.4085999z"/>
	<path d="M282.9851074,245.9084167H122.185791c0.0403442,12.746521-0.1182251,25.6880493-0.5220337,38.1984863H283.506958
		C283.1031494,271.5965271,282.9447021,258.6550598,282.9851074,245.9084167z"/>
	<path d="M117.7692261,336.9361877c13.7514648,1.2160645,43.2485352,3.4250488,77.3632812,3.5627441
		c0.9951172,0.0126953,2.5615234,0.0200195,4.7783203,0.0205078l3.4814453-0.0019531l2.0585938,0.0019531
		c2.2158203-0.0004883,3.7832031-0.0078125,4.7744141-0.0205078c33.9321289-0.1369629,63.2915039-2.3227539,77.1381836-3.5427246
		c0.0117188-0.0141602,0.0234375-0.029541,0.0351562-0.0439453c-1.0167847-7.4572144-1.8300171-15.7869263-2.4703979-24.6726074
		h-164.68573C119.6015015,321.134613,118.7873535,329.4727478,117.7692261,336.9361877z"/>
	<path d="M293.0512085,128.344696c-0.0066528-0.1800537-0.2928467-7.5557861-1.100708-17.9324951H112.4362793
		c-0.7194214,9.2456055-1.0259399,16.1140137-1.0883179,17.6212769l0.7852783,0.5644531
		c1.2073364,1.7299805,3.2750244,6.5636597,5.1923828,20.0126953h170.5177002
		c2.0229492-14.1978149,4.2143555-18.7884521,5.385376-20.272583L293.0512085,128.344696z"/>
	<path d="M305.6000366,65.3000183L293.5,117.6999817c0.2999878,5,0.5,8.6000366,0.5,10l0.1000366-0.0999756h0.0999756h0.1000366
		l24.5999756,5l13.7000122-59.2999878L305.6000366,65.3000183z"/>
	<path d="M87.7999878,132.3000183l22.5-4.5c0.0999756-2,0.4000244-8.9000244,1.0999756-18L101,64.8999939l-26.9000244,8
		L87.7999878,132.3000183z"/>
	<path d="M416.6999512,73.5000305l13.7000122,59.1999512l25-5c0-1.3999634,0.1000366-5,0.4000244-10l-12.1000366-52.1999512
		L416.6999512,73.5000305z"/>
	<path d="M647.0999756,64.3999939l-9.7999878,42.4000244c0.9000244,10.5999756,1.0999756,18.5,1.0999756,20.7999878
		l0.2000122-0.2000122c0,0.1000366,0,0.1000366,0.0999756,0.2000122l21.5999756,4.4000244l13.8000488-59.6000366
		L647.0999756,64.3999939z"/>
</g>
</svg>
