<?xml version="1.0" encoding="utf-8"?>
<!-- Generator: Adobe Illustrator 25.3.0, SVG Export Plug-In . SVG Version: 6.00 Build 0)  -->
<svg version="1.1" id="Layer_1" xmlns="http://www.w3.org/2000/svg" xmlns:xlink="http://www.w3.org/1999/xlink" x="0px" y="0px"
	 viewBox="0 0 750.2 400.1" style="enable-background:new 0 0 750.2 400.1;" xml:space="preserve">
<g>
	<path d="M436.6,125.8c-8.4-0.9-13.9-1.7-15.9-1.9c-4.9,22-14.6,67.3-21,106.1h18.8L436.6,125.8z"/>
	<path d="M607.3,123c-2.3,0.4-8.8,1.4-18.9,2.6L606.6,230h22C622.1,190.7,612.2,144.7,607.3,123z"/>
	<path d="M150,173.1c-14.8,17.6-21,42.8-21,42.8s7.9-62.7,29.3-90.2c-8.4-0.9-13.9-1.7-15.9-1.9c-4.9,22.1-14.7,67.4-21.2,106.2
		h18.9L150,173.1z"/>
	<path d="M329,123c-2.3,0.4-8.8,1.4-18.9,2.6l0.1,0.3c0.2-0.1,0.3-0.2,0.3-0.2c21.4,27.5,29.3,90.2,29.3,90.2s-6.3-25.7-21.5-43.3
		l10,57.4h22C343.8,190.7,333.9,144.7,329,123z"/>
</g>
</svg>
