<?xml version="1.0" encoding="utf-8"?>
<!-- Generator: Adobe Illustrator 25.3.0, SVG Export Plug-In . SVG Version: 6.00 Build 0)  -->
<svg version="1.1" id="Layer_1" xmlns="http://www.w3.org/2000/svg" xmlns:xlink="http://www.w3.org/1999/xlink" x="0px" y="0px"
	 viewBox="0 0 750.2 400.1" style="enable-background:new 0 0 750.2 400.1;" xml:space="preserve">
<g>
	<path d="M201.3,102l0-0.8l-0.9-0.2l-69.6-18.8l67.7,20.6l-1.2,51.9l0,1.4l1.6,0.6l85.6,31.8c0.1-2.4,0.2-4.7,0.4-6.9l-82.4-28.3
		L201.3,102z"/>
	<path d="M117.4,70.5l90.4,25.9l1.2,51.1l0,0.8l0.9,0.3l75.5,24.6c0-0.1,0-0.1,0-0.2l-73.6-26.3l1.2-51.9l0-1.5l-1.7-0.6l-92.4-29.4
		C118.4,65.7,117.9,68,117.4,70.5z"/>
	<path d="M149.1,214.8l1.6,0.6l132.3,48.2c0-2.5,0-5.1-0.1-7.6l-128.6-44l-1.2-51.2l0-0.8l-0.9-0.2l-34.7-9.3
		c0.1,0.4,0.1,0.8,0.2,1.3l32.6,9.9l-1.2,51.9L149.1,214.8z"/>
	<path d="M159.7,155.2l1.2,51.1l0,0.8l0.9,0.3L273.4,244l-109.6-38.5l1.2-51.9l0-1.5l-1.7-0.6L115,136.3c0.4,1.8,0.9,3.9,1.4,6.5
		L159.7,155.2z"/>
	<path d="M261.3,83.4l-0.7-31.4l-3.7-1.1l-0.8,33.9l0,1.4l1.6,0.6L291,99.2c-0.2-1.9-0.4-3.8-0.6-5.8L261.3,83.4z"/>
	<path d="M267.9,78.5l0.9,0.3l20.6,6.7c-0.1-0.7-0.2-1.3-0.3-2l-18.4-6.6l0.5-21.8l-3.9-1.2l0.5,23.7L267.9,78.5z"/>
	<path d="M121.8,280.1l155.5,57.7c3.9-0.3,7.3-0.6,10-0.8c0,0,0,0,0,0c-0.1-1-0.3-2.1-0.4-3.2l-165.1-58.6
		C121.9,276.8,121.8,278.4,121.8,280.1z"/>
	<path d="M286,325.2C286,325.2,286,325.2,286,325.2l-163.9-59.7c0,0.8,0,1.6,0,2.4L286,325.2z"/>
	<path d="M227.6,130.2L226.4,79l0-0.4c-0.9,0.4-1.9,0.8-2.9,1.2l0.1,0l-1.2,51.9l0,1.4l1.6,0.6l62.9,23.3c0.2-2.2,0.5-4.2,0.7-6.1
		L227.6,130.2z"/>
	<path d="M156.5,59.3l-0.6-0.2L156.5,59.3C156.5,59.3,156.5,59.3,156.5,59.3z"/>
	<path d="M234.1,125.3l0.9,0.3l53.8,17.5c0-0.3,0.1-0.6,0.1-0.8L237,123.7l1.2-51.9l0-0.8c-1.7,1.4-3.5,2.7-5.2,3.9l1.1,49.6
		L234.1,125.3z"/>
	<path d="M154.6,50.9c0-0.7,0-1.3,0.1-1.8l-3.2,0.9L154.6,50.9z"/>
	<path d="M178.3,137.8l0-0.8l-0.9-0.2L111.8,119c0,0,0,0.1,0,0.1l63.6,19.4l-1.2,51.9l0,1.4l1.6,0.6l107.3,39c0-2.3,0.1-4.7,0.1-7
		L179.5,189L178.3,137.8z"/>
	<path d="M184.8,132.1l1.2,51.1l0,0.8l0.9,0.3l96.6,31.7c0-0.1,0-0.2,0-0.3l-94.6-33.2l1.2-51.9l0-1.5l-1.7-0.6l-75.4-24
		c-0.2,2.4-0.4,4.7-0.6,6.8L184.8,132.1z"/>
	<path d="M130.5,246.3l-1.2-51.2l0-0.8l-0.9-0.2l-7.5-2c0,0.7,0.1,1.5,0.1,2.2l5.5,1.7l-1.2,51.9l0,1.4l1.6,0.6l157.8,58.5
		c-0.2-2.4-0.3-4.9-0.4-7.3L130.5,246.3z"/>
	<path d="M135.8,189.4l1.2,51.1l0,0.8l0.8,0.3l146,51c0-0.1,0-0.3,0-0.4l-143.9-52.4l1.2-51.9l0-1.5l-1.7-0.6l-19.1-6.1
		c0.1,1.7,0.2,3.5,0.3,5.3L135.8,189.4z"/>
	<path d="M119.9,316.4c-0.1,1.8-0.3,3.5-0.4,5.2l49.7,18.4c5.9,0.2,12.1,0.3,18.5,0.4L119.9,316.4z"/>
	<path d="M120.5,309.1l89.8,31.4c0.7,0,1.4,0,2.1,0l-91.8-33.4C120.5,307.7,120.5,308.4,120.5,309.1z"/>
	<path d="M543.8,100.9l-0.9,0.2l0,0.8l-1.2,51.2l-76.8,26.4c0.1,2.1,0.2,4.4,0.4,6.7l80-29.7l1.6-0.6l0-1.4l-1.2-51.9l67.7-20.6
		L543.8,100.9z"/>
	<path d="M532.8,92.8l-1.7,0.6l0,1.5l1.2,51.9L464.3,171c0,0.1,0,0.2,0,0.4l69.9-22.8l0.9-0.3l0-0.8l1.2-51.1l95-27.2
		c-0.5-2.4-1-4.8-1.6-7.2L532.8,92.8z"/>
	<path d="M591.9,159.7L591,160l0,0.8l-1.2,51.2l-122.8,42c0,2.5,0,5,0,7.5l126.5-46l1.6-0.6l0-1.4l-1.2-51.9l38.6-11.8
		c0-0.4,0.1-0.7,0.1-1.1L591.9,159.7z"/>
	<path d="M580.9,151.6l-1.7,0.6l0,1.5l1.2,51.9L470.8,244l111.6-36.6l0.9-0.3l0-0.8l1.2-51.1l49.4-14.1c0.5-2.8,1.1-5,1.6-6.8
		L580.9,151.6z"/>
	<path d="M488,86.2l0-1.4l-0.7-32.2l-3.8,1.1l-0.7,29.6l-23.7,8.1c-0.2,1.9-0.4,3.8-0.6,5.6l28-10.4L488,86.2z"/>
	<path d="M473.4,76.9l-12.9,4.6c-0.1,0.7-0.2,1.5-0.3,2.2l15.3-5l0.9-0.3l0-0.8l0.5-21.9l-3.8,1.1L473.4,76.9z"/>
	<path d="M627.8,278.1c0-1.6-0.1-3.3-0.1-4.9l-163.6,58.1c-0.2,2.7-0.5,5.3-0.8,7.8L627.8,278.1z"/>
	<path d="M628.1,209.4l0,1.5l0.1,2.3c0-1.3,0.1-2.6,0.1-3.8L628.1,209.4z"/>
	<path d="M464.8,322.8l162.8-56.9c0-0.8,0-1.7,0-2.5l-162.8,59.3C464.8,322.7,464.8,322.8,464.8,322.8z"/>
	<path d="M632,345.7c0-0.1,0-0.1,0-0.2l-45.2,16.1C614.1,355.7,631.7,345.9,632,345.7L632,345.7z"/>
	<path d="M552.4,365.8l78.7-27.5c-0.1-0.6-0.1-1.2-0.2-1.8l-80.5,29.3C551.1,365.8,551.8,365.8,552.4,365.8z"/>
	<path d="M520.2,133.6l1.6-0.6l0-1.4l-1.2-51.9l67.7-20.6l-69.6,18.8l-0.9,0.2l0,0.8l-1.2,51.2L462.1,149c0.3,1.8,0.5,3.8,0.8,6
		L520.2,133.6z"/>
	<path d="M506,70.4l0,1.5l1.2,51.9l-46.5,16.6c0.1,0.3,0.1,0.6,0.2,1l48.3-15.8l0.9-0.3l0-0.8l1.2-51.1l84.4-24.2l-3.5-1
		c-2.4-0.2-7.3-0.5-13.8-0.8l-70.6,22.5L506,70.4z"/>
	<path d="M569.9,191.8l0-1.4l-1.2-51.9l67.7-20.6l-69.6,18.8l-0.9,0.2l0,0.8l-1.2,51.2l-98.1,33.6c0.1,2.3,0.1,4.5,0.1,6.9l101.6-37
		L569.9,191.8z"/>
	<path d="M555.8,128.6l-1.7,0.6l0,1.5l1.2,51.9l-89,31.2c0,0.2,0,0.3,0,0.5l90.9-29.8l0.9-0.3l0-0.8l1.2-51.1l77.4-22.2
		c-0.2-2.2-0.4-4.5-0.6-7L555.8,128.6z"/>
	<path d="M617.3,249.6l1.6-0.6l0-1.4l-1.2-51.9l11.4-3.5c0-0.7,0.1-1.3,0.1-2l-13.3,3.6l-0.9,0.2l0,0.8l-1.2,51.2l-147.5,52.4
		c-0.1,2.4-0.2,4.8-0.3,7.2L617.3,249.6z"/>
	<path d="M607.1,241.3l0-0.8l1.2-51.1l21.2-6.1c0.1-1.9,0.2-3.7,0.3-5.4l-25,8l-1.7,0.6l0,1.5l1.2,51.9L466.4,290c0,0.2,0,0.3,0,0.5
		l139.9-48.9L607.1,241.3z"/>
	<path d="M629.5,319.8c-0.1-1.7-0.2-3.4-0.3-5.2L501.5,360c3.9,1,8.1,1.9,12.4,2.7L629.5,319.8z"/>
	<path d="M628.7,305.2l-140.3,51.1c0.1,0,0.1,0,0.2,0.1l140.2-49C628.7,306.6,628.7,305.9,628.7,305.2z"/>
</g>
</svg>
