<?xml version="1.0" encoding="utf-8"?>
<!-- Generator: Adobe Illustrator 25.2.1, SVG Export Plug-In . SVG Version: 6.00 Build 0)  -->
<svg version="1.1" id="Layer_1" xmlns="http://www.w3.org/2000/svg" xmlns:xlink="http://www.w3.org/1999/xlink" x="0px" y="0px"
	 viewBox="0 0 750.2 400.1" style="enable-background:new 0 0 750.2 400.1;" xml:space="preserve">
<path d="M237.3,43.2c-0.2-1.4-0.1-2.2-0.1-2.5c0,0,0,0,0,0l0,0c0.6,0.4,1.3,0.8,2,1.2c0.8,6.5-0.7,10.3-8.1,15.9
	c-8.4,6.3-17.8,7.5-15.8,23.6c-0.9,0.2-1.6,0.4-2,0.5c0,0,0,0,0,0c-0.4-2.3-1.5-11.6,3.8-16.3c0,0,3.6-3.4,10.4-7.9
	C234.4,53.2,237.7,46.9,237.3,43.2z M173.8,57.6c8.5,6.4,18.1,7.5,15.7,24.3c0.8,0.2,1.4,0.4,1.8,0.4c0,0,0,0,0,0
	c0.4-2.2,1.7-11.9-3.5-16.7c0,0-3.6-3.5-10.5-7.9c-6.9-4.5-10.2-10.8-9.8-14.5c0.2-1.4,0.1-2.2,0.1-2.5c0,0,0,0,0,0l0,0
	c-0.6,0.4-1.3,0.7-1.9,1.1C165.3,47.5,166.6,52.2,173.8,57.6z M545.6,34.5C545.6,34.5,545.6,34.5,545.6,34.5
	c-26.3,0-40.2,8.6-44.8,12.1l0.1,0.5l0,0c0.1,0,0.1,0,0.2,0c14.7-8,29.7-10.7,43.4-10.6c22.7,0.1,41.3,7.7,47.2,10.4l0,0
	c0,0,0,0,0,0C587.1,43.5,572.4,34.5,545.6,34.5z M168.7,42C168.7,42,168.7,42,168.7,42S168.7,42,168.7,42c4.3-1.9,16.3-6.5,34.3-6.5
	c12.9,0,25.1,3.7,33.3,6.9c0,0,0,0,0,0c0,0,0,0,0,0c-0.1-1,0-1.6,0-2c-12.2-4.1-23.8-6.2-35-6.2c-11.2,0-22,2.1-32.6,6.3
	C168.7,40.8,168.7,41.3,168.7,42z"/>
</svg>
