<?xml version="1.0" encoding="utf-8"?>
<!-- Generator: Adobe Illustrator 25.3.0, SVG Export Plug-In . SVG Version: 6.00 Build 0)  -->
<svg version="1.1" id="Layer_1" xmlns="http://www.w3.org/2000/svg" xmlns:xlink="http://www.w3.org/1999/xlink" x="0px" y="0px"
	 viewBox="0 0 750.2000122 400.1000061" style="enable-background:new 0 0 750.2000122 400.1000061;" xml:space="preserve">
<path d="M203.072998,159.9995422c0.0494385,0.0415039,0.102356,0.079834,0.1513672,0.1217041
	c2.6665039-2.2422485,6.0401611-3.9877319,9.9274292-5.3255005c-0.7171021,0.21875-1.4208984,0.4512939-2.1043091,0.704895
	C207.9978027,156.745697,205.3049927,158.2323303,203.072998,159.9995422z"/>
<path d="M203.05896,160.0102844c0.0545044,0.0378418,0.111145,0.072876,0.1654053,0.1109619
	c-0.0502319-0.0404663-0.1047974-0.0783081-0.1555176-0.1184692
	C203.0656128,160.0053406,203.0621948,160.0077209,203.05896,160.0102844z"/>
<path d="M195.0901489,155.5006409c-0.7477417-0.2774658-1.5193481-0.5303955-2.307373-0.7661743
	c3.6998901,1.3717651,7.1525269,3.1086426,10.2719727,5.2730103c0.0032349-0.0026855,0.0066528-0.005249,0.0098877-0.0079346
	C200.8326416,158.2323303,198.1398315,156.745697,195.0901489,155.5006409z"/>
<path d="M203.2498779,119.033844l-0.0754395,0.2369385l-0.1043701-0.3276978
	c-14.3529663-16.7342529-52.239563-13.878479-80.8922729-14.2044678c-5.9464722,11.5132446-9.5089111,21.28302-10.277771,23.4614258
	c1.2459106,1.5574341,3.7045288,6.7574463,5.8649902,23.9494629c15.9991455-1.81604,38.0161133-3.4173584,56.5475464-1.3845825
	c4.2420044,0.4014282,8.3704224,1.0703735,12.3019409,2.0665283c3.0443115,0.7283936,5.8872681,1.6124878,8.475647,2.6691895
	c3.0354004,1.1266479,5.725647,2.605835,7.9786987,4.4955444c2.2530518-1.8897095,4.9432373-3.3688965,7.9786377-4.4955444
	c19.4768066-7.951416,53.5847778-5.9909058,76.3101196-3.4658203c2.1549683-17.0697632,4.6008301-22.1828003,5.8424683-23.7348022
	c-0.7716675-2.1862793-4.3572998-12.019104-10.3426514-23.5866089
	C254.4705811,104.9485168,217.5610352,102.1677551,203.2498779,119.033844z"/>
<path d="M203.1744385,119.2707825l0.0754395-0.2369385l11.6264648-36.5136108
	c-1.1891479,0.3416748-1.9459839,0.5494385-1.9763184,0.5797729l-0.5,0.0999756v-0.0999756
	c-3.7000122,0.9000244-7.5,1.4000244-11.0999756,1.4000244c-0.4000244,0-0.7000122,0-1.1000366,0
	c-2.7999878-0.1000366-5.5999756-0.5-8.2000122-1.1000366h0.1000366l-0.3709717-0.0741577l11.3410034,35.6172485
	L203.1744385,119.2707825z"/>
</svg>
