<?xml version="1.0" encoding="utf-8"?>
<!-- Generator: Adobe Illustrator 25.3.0, SVG Export Plug-In . SVG Version: 6.00 Build 0)  -->
<svg version="1.1" id="Layer_1" xmlns="http://www.w3.org/2000/svg" xmlns:xlink="http://www.w3.org/1999/xlink" x="0px" y="0px"
	 viewBox="0 0 750.20001 400.10001" style="enable-background:new 0 0 750.20001 400.10001;" xml:space="preserve">
<path class="st0" d="M501.55011,29.08261c0,0,15.46637-3.151,44.45569-3.151c28.98938,0,44.28497,2.83588,44.28497,2.83588
	c0.00049,0.02106-0.00079,0.0434-0.00043,0.06451c0.14679,0.04523,1.31421,0.40643,2.59009,0.82715
	c-1.15662-2.47424-2.26562-4.03522-3.59155-4.75049c-1.51794-0.53101-3.43085-1.12225-3.61206-1.1781
	c-0.00031-0.01892,0.00085-0.03894,0.00043-0.0578c0,0-13.70593-2.54114-39.68237-2.54114
	c-25.97638,0-39.83533,2.82349-39.83533,2.82349s-2.05286,0.63123-3.64691,1.18884c-1.33136,0.7182-2.44415,2.29047-3.60583,4.78241
	C500.28577,29.47153,501.55011,29.08261,501.55011,29.08261z"/>
<g>
	<path class="st0" d="M220.56744,55.70969c0.00677-0.05438,0.01703-0.10547,0.02368-0.15997
		c18.31299-2.61615,20.11163-6.70392,22.89124-12.09973c2.86877-5.56866,4.92609-12.12189,6.00397-15.97955
		c-1.07489-1.64069-2.20239-2.79828-3.34961-3.16144c0,0-2.14886,9.32007-5.92944,16.65875
		c-2.39996,4.65881-3.95294,8.18823-19.76465,10.44708c-0.00574,0.04706-0.01459,0.09113-0.02045,0.13812l-8.16779,2.12067
		c0,0-0.31177,1.87-0.81897,4.40717L220.56744,55.70969z"/>
</g>
<g>
	<path class="st0" d="M161.87958,43.88535c2.77966,5.39581,4.57825,9.48358,22.8913,12.09973l10.82605,2.56146
		c-0.75226-2.6142-1.13074-4.87292-1.13074-4.87292l-9.54681-2.25879c-15.81177-2.25885-17.36469-5.78827-19.76471-10.44708
		c-3.78052-7.33868-5.92938-16.65875-5.92938-16.65875c-1.17712,0.37262-2.33295,1.58667-3.43298,3.29572
		C156.84491,31.41452,158.93372,38.16696,161.87958,43.88535z"/>
</g>
<path class="st0" d="M202.92163,25.55515c23.75385,0,37.72961,1.92731,40.94049,2.42462
	c0.46698-1.58429,0.74445-3.00946,0.7193-4.11877c0,0-14.38892-2.54114-41.65979-2.54114
	c-27.27075,0-41.82031,2.82349-41.82031,2.82349s0.17877,1.63519,0.71179,4.10834
	C165.02942,27.70291,179.13446,25.55515,202.92163,25.55515z"/>
</svg>
