<?xml version="1.0" encoding="utf-8"?>
<!-- Generator: Adobe Illustrator 25.3.0, SVG Export Plug-In . SVG Version: 6.00 Build 0)  -->
<svg version="1.1" id="Layer_1" xmlns="http://www.w3.org/2000/svg" xmlns:xlink="http://www.w3.org/1999/xlink" x="0px" y="0px"
	 viewBox="0 0 750.2000122 400.1000061" style="enable-background:new 0 0 750.2000122 400.1000061;" xml:space="preserve">
<g>
	<path d="M476.6000977,55.6001282c-20.6000977,7-38.6000977,14.5-52.1999512,21.7998047
		c-11.5,6.2001953-19.8000488,17-22.9001465,29.6000977c-10.6999512,45-11,117-9.3999023,169.5
		c1.3000488,41.5,3.8999023,77.7001953,5.1999512,94.3999023h38.2000732l0.2338257,0.0595093l12.0661011-199.859314v-0.1000977
		l-1.3000488-21.5l0.1999512-0.1999512c6.2000732-4.8000488,8.5-15.1000977,11.2000732-26.9001465
		c4.0999756-18.0998535,9.2000732-40.5998535,30.5-54.7998047c7.8167725-3.9558105,16.842041-19.0088501,16.842041-19.0088501
		l-15.6235352,3.0117798L476.6000977,55.6001282z"/>
	<path d="M190.3811035,75.2051086c-4.4007568-0.524231-8.8981934-1.1316528-11.3618164-1.5887451
		c-0.0263672-0.0048828-0.0560913-0.0102539-0.0817871-0.0150757c-0.1564331-0.0293579-0.3052368-0.0581055-0.4438477-0.0861206
		l-2.6870728-0.6634521l-4.6974487-1.15979c-0.9418945-0.2802734-1.8779297-0.5771484-2.809082-0.8918457l-0.1000977-0.1000977
		l-9.5998535-3.8000488v0.0001831l-0.0001221-0.0001831l-0.0090332,0.0834961
		c-1.9691162-0.9560547-3.6835938-1.9580078-5.3952637-3.0039062L153,64.3000793
		c-26.5999756,13.5-32.3000488,38.3000488-36.8000488,58.0998535c-2.6999512,12-5.0999756,22.3000488-11.3999023,27.4001465
		l-0.4732666,6.8284302h94.6582031V86.3208923V75.697113c-0.2012939,0.0292358-0.3834229,0.0601807-0.5663452,0.0910034
		C196.1154785,75.7452698,193.2460327,75.5125427,190.3811035,75.2051086z"/>
	<path d="M288.4000244,122.6001282c-3.2999268-14.3000488-7.0999756-31-18.7999268-44.3000488l-0.0751953-0.0617676
		L267.5,76.0000305l-0.6282959-0.5224609c-2.3817139-2.4108887-5.1018066-4.7331543-8.2716064-6.8774414l-5.9222412-3.9147949
		l-0.1412354,0.0942383l-5.2365723,2.6203613l-9.0136719,3.4741211l-5.1412354,1.4865112l-2.5028076,0.7236938
		c-4.7969971,1.1102295-13.3573608,2.2427368-18.9335938,2.6963501l-2.3484497,0.3400269h-2.0734253v19.2927246v61.2151489
		h92.9864502l-0.4732056-6.8283691C293.5,144.8999329,291.1000977,134.5000305,288.4000244,122.6001282z"/>
	<path d="M694.5,107.0000305c-3-12.6999512-11.2999878-23.5-22.9000244-29.6000977
		c-0.7866211-0.4207764-1.5872803-0.8419189-2.3998413-1.2633667c-0.3027954-0.1570435-0.6155396-0.31427-0.921936-0.4714355
		c-0.5158691-0.2645874-1.0296021-0.5291138-1.555603-0.7938843c-0.381958-0.1922607-0.774292-0.3846436-1.1615601-0.5770264
		c-0.4589233-0.2279663-0.9147949-0.4559326-1.3811646-0.684021c-0.4476929-0.2189331-0.9057617-0.4380493-1.3602905-0.6571045
		c-0.4151001-0.2000732-0.8270874-0.4000854-1.2478027-0.6001587c-0.5026245-0.2390747-1.0151978-0.4782104-1.5258789-0.7173462
		c-0.3839111-0.1797485-0.7651367-0.3594971-1.1535645-0.5392456c-0.5531006-0.2560425-1.1155396-0.5120239-1.6777344-0.7680054
		c-0.3532715-0.1608887-0.7044678-0.3217163-1.0612793-0.4825439c-0.6034546-0.2720337-1.2158203-0.5440063-1.8294678-0.815979
		c-0.3255615-0.1442871-0.6495972-0.2886963-0.9780273-0.4329224c-0.6512451-0.2861328-1.3109131-0.5720215-1.9733276-0.8580322
		c-0.2975464-0.128479-0.5941772-0.256958-0.8939819-0.385376c-0.7008667-0.3002319-1.40979-0.6003418-2.1228027-0.9003906
		c-0.2693481-0.1133423-0.5383301-0.2266846-0.8093872-0.3399658c-0.7455444-0.3116455-1.4986572-0.6230469-2.2572021-0.9343872
		c-0.2454834-0.100769-0.4910889-0.2015381-0.737915-0.3022461c-0.7956543-0.324646-1.5988159-0.6491089-2.4085693-0.9733887
		c-0.2108154-0.0844116-0.4221802-0.1688232-0.6339722-0.2532349c-0.8476562-0.3378296-1.7027588-0.6754761-2.5655518-1.0127563
		c-0.1795044-0.0701904-0.3598633-0.1402588-0.539978-0.2104492c-0.9017944-0.3511353-1.8109131-0.7020264-2.7289429-1.0525513
		c-0.1383667-0.0528564-0.2776489-0.1056519-0.4163818-0.1584473c-0.9612427-0.3659668-1.9301758-0.7315063-2.9089966-1.0966187
		c-0.0958862-0.0357666-0.192627-0.0714722-0.2886963-0.1072388c-1.0213623-0.380249-2.0510864-0.7600708-3.0913086-1.1394043
		c-0.0515747-0.0187988-0.1036377-0.0375366-0.1552734-0.0563354c-1.0841064-0.3948975-2.1773071-0.7891846-3.2816772-1.1828613
		l-0.0244751-0.0566406l-1.0084229-0.3096313c-0.5335693-0.1889648-1.060791-0.3782959-1.598999-0.5669556
		c-0.0401001,0.008606-0.0947266,0.0240479-0.1375732,0.0338135l-10.2734985-3.1542969l-19.5293579-2.9176636
		c0,0,4.161499,15.2589111,16.8441162,22.322998c1.2654419,0.704834,2.4226074,1.5947876,3.4306641,2.6347046
		c0.0899658,0.0939331,0.1757812,0.1898804,0.2648926,0.2841797c0.6547241,0.6920166,1.2838135,1.3959351,1.8944092,2.1084595
		c0.1589355,0.1858521,0.3196411,0.3708496,0.475708,0.5579834c0.6787109,0.8125,1.3383179,1.633606,1.9640503,2.4690552
		c0.0005493,0.0006714,0.0010376,0.0014648,0.0015869,0.0021362c1.869873,2.4974976,3.4940186,5.0958862,4.9438477,7.7479248
		c2.8157349,5.1513672,4.9298096,10.519043,6.6049805,15.8369751c0.0076904,0.0245361,0.015625,0.0490723,0.0233154,0.0736084
		c0.3059692,0.9742432,0.5978394,1.946167,0.8773804,2.914978c0.013916,0.0482178,0.0278931,0.0964966,0.041748,0.1446533
		c0.2734985,0.9519653,0.5356445,1.9000854,0.7872314,2.8433228c0.0162354,0.0610352,0.0324097,0.1218872,0.048584,0.1828613
		c0.2479858,0.9338989,0.4868164,1.8626709,0.7167969,2.784729c0.0164185,0.0657349,0.0324097,0.1311646,0.0487671,0.1968384
		c0.2284546,0.9197998,0.4498901,1.8331909,0.6640015,2.737793c0.0140991,0.0596313,0.027832,0.1187134,0.0419312,0.1782837
		c0.2144165,0.9084473,0.4234619,1.8092041,0.6270142,2.6988525c0.0133667,0.0584717,0.0264282,0.1160278,0.0397339,0.1743774
		c0.2036743,0.8914795,0.4033813,1.774231,0.5996704,2.6434326c2.7000122,11.9001465,5,22.1000977,11.2000122,26.9001465
		l0.2000122,0.0998535l0.4000244,21c0.4000244,0.1000977,0.9000244,0.5,0.9000244,0.9001465l13.7000122,199.5h38.2999878
		c1.2999878-16.7001953,4-52.8000488,5.2000122-94.4001465C705.5999756,224.0000305,705.2000122,152.0000305,694.5,107.0000305z"/>
	<path d="M115.3000488,122.3999329c4.5999756-20,10.3000488-45,37.1999512-58.6999512
		c-7.942749-6.067749-6.1748657-13.4146118-6.1748657-13.4146118l-15.6883545,5.3988037
		c-0.1553955-0.0206909-0.2620239-0.0966797-0.4368286-0.1841431l0.1000977,0.3000488
		c-20.6000977,7.0998535-37.9000244,14.3999023-51.4000244,21.5998535C67.3000488,83.5000305,59,94.3000793,56,107.0000305
		c-10.6999512,45-11,117-9.4000244,169.5c1.3000488,41.5,3.9000244,77.7001953,5.2000732,94.3999023H90l0.2334595,0.0632935
		l12.0665894-199.8630981c0-0.2001953,0.0999756-0.4001465,0.2999268-0.6000977l1.4000244-21v-0.1999512
		C110.1999512,144.5000305,112.5,134.1999817,115.3000488,122.3999329z"/>
	<path d="M326.1000977,77.3999329c-0.8441772-0.4498291-1.7037964-0.9000244-2.5774536-1.3505249
		c-0.3364868-0.1734619-0.6849365-0.347168-1.0256958-0.520752c-0.5410156-0.2755127-1.078186-0.5509644-1.630127-0.8266602
		c-0.4752808-0.2374878-0.9643555-0.4751587-1.4476318-0.7127686c-0.4277954-0.2102661-0.8496704-0.4204712-1.2836914-0.6307983
		c-0.5782471-0.2802734-1.1707764-0.5606689-1.7600708-0.8410645c-0.3508911-0.1669312-0.6959229-0.3338013-1.0506592-0.5007935
		c-0.6514282-0.3065186-1.3167725-0.6131592-1.9812622-0.9198608c-0.3049316-0.140686-0.6046143-0.2813721-0.9122314-0.4220581
		c-0.7269897-0.3325195-1.4678345-0.6651001-2.210022-0.9976196c-0.2515869-0.1126709-0.4987183-0.2253418-0.7520142-0.3380737
		c-0.8045044-0.3579102-1.6224976-0.7158203-2.444458-1.0736694c-0.1986694-0.0864868-0.3939209-0.1730347-0.5936279-0.2595215
		c-0.8685303-0.3762207-1.7503052-0.7521973-2.6379395-1.1281738c-0.1611938-0.0682983-0.3197021-0.1366577-0.4815063-0.204895
		c-0.9328003-0.3935547-1.8788452-0.7868652-2.8323975-1.1801147c-0.119873-0.0494385-0.237854-0.0988159-0.3580322-0.1482544
		c-0.9915771-0.4077759-1.9961548-0.8153076-3.0097656-1.2225952c-0.086731-0.0348511-0.1721802-0.0697021-0.2590942-0.1045532
		c-1.0419922-0.4178467-2.0967407-0.8354492-3.1617432-1.2526855c-0.0627441-0.0246582-0.1248169-0.0492554-0.1876831-0.0738525
		c-1.0979614-0.4296265-2.2088623-0.8588257-3.3309326-1.2877197c-0.0269165-0.0103149-0.0535278-0.0206299-0.0804443-0.0308838
		c-1.1456909-0.4376831-2.3043213-0.8748169-3.4748535-1.3115234c-0.0084839-0.0031738-0.0167847-0.0062866-0.0252075-0.0094604
		c-3.5517578-1.3248901-7.2175293-2.6450806-10.9931641-3.9591064l-0.0617676-0.2918701l-1.5873413-0.5462646L274,55.0000305
		c-0.1383667-0.0184326-0.2998047-0.0287476-0.4606323-0.0390625c-0.1477661-0.0094604-0.3087158-0.0115356-0.4759521-0.0119629
		l-13.5518799-4.6636353c0,0,1.7678833,7.3468628-6.1748657,13.4146118
		c0.2769165,0.0648804,0.5436401,0.1248169,0.8153687,0.1871338c-0.2519531,0.1377563-0.4960327,0.2750854-0.7520142,0.4129639
		c25.7000732,13.8999023,31.2999268,38.3000488,35.7999268,58.0998535
		c2.7000732,11.9001465,5.1000977,22.1000977,11.3000488,26.9001465l0.1999512,0.0998535l1.4001465,20.7001953
		c0.1999512,0.1000977,0.2999268,0.2998047,0.3999023,0.5l0.1000977,0.1000977
		c0.0998535,0.0998535,0.0998535,0.199707,0.0998535,0.3999023l12,199.8000488H353
		c1.3000488-16.6999512,4-52.8000488,5.1999512-94.4001465c1.8000488-52.5,1.4001465-124.5-9.2999268-169.5
		C345.9000244,94.3000793,337.6000977,83.5000305,326.1000977,77.3999329z"/>
</g>
</svg>
