<?xml version="1.0" encoding="utf-8"?>
<!-- Generator: Adobe Illustrator 25.3.0, SVG Export Plug-In . SVG Version: 6.00 Build 0)  -->
<svg version="1.1" id="Layer_1" xmlns="http://www.w3.org/2000/svg" xmlns:xlink="http://www.w3.org/1999/xlink" x="0px" y="0px"
	 viewBox="0 0 750.2000122 400.1000061" style="enable-background:new 0 0 750.2000122 400.1000061;" xml:space="preserve">
<path d="M459.5559692,63.0461731l14.9981689,17.4248657c0.7689819-0.9907837,1.5744629-1.9664917,2.4220581-2.9243774
	l-9.4815674-11.0217285L459.5559692,63.0461731z"/>
<path d="M121.8999634,58.7752991c-1.0811768,0.3929443-2.1553345,0.7861938-3.2160645,1.1800537l15.4377441,17.9356079
	c0.8150635-0.9366455,1.6734009-1.854248,2.5671997-2.7561035l-13.3233643-15.4876709L121.8999634,58.7752991z"/>
<path d="M269.5692139,76.8696594c0.8572998,0.9448853,1.6779785,1.9055176,2.4568481,2.8834839l16.375061-19.0246582
	c-1.2341309-0.4660034-2.4830322-0.9313965-3.7451782-1.3962402L269.5692139,76.8696594z"/>
<path d="M639.7075806,62.9388733l0.0024414-0.0028076c-0.2536011-0.0997314-0.5119629-0.1992798-0.7669067-0.2989502
	c-0.1795044-0.0701904-0.3598633-0.1402588-0.539978-0.2104492c-0.7955933-0.3098145-1.5953369-0.6194458-2.4035645-0.928772
	l-0.0010986,0.0012817l-0.1547241,0.1798706l-17.3822632,20.2058716c0.7629395,1.0566406,1.4837036,2.1303101,2.170105,3.2165527
	l18.6315308-21.6461792L639.7075806,62.9388733z"/>
</svg>
