<?xml version="1.0" encoding="utf-8"?>
<!-- Generator: Adobe Illustrator 25.3.0, SVG Export Plug-In . SVG Version: 6.00 Build 0)  -->
<svg version="1.1" id="Layer_1" xmlns="http://www.w3.org/2000/svg" xmlns:xlink="http://www.w3.org/1999/xlink" x="0px" y="0px"
	 viewBox="0 0 750.2000122 400.1000061" style="enable-background:new 0 0 750.2000122 400.1000061;" xml:space="preserve">
<path d="M544.6772461,44.6383247c6.1997681,0,11.6525879,0.032959,16.3150024,0.0808105
	c12.1983643,0.4020386,25.3841553,1.4815712,39.026062,4.5779991c-5.2706299-14.8705406-7.2529907-22.5131798-10.7294312-24.3884907
	c-1.5179443-0.5310097-3.4308472-1.1222496-3.6120605-1.1781006c-0.0003052-0.0189209,0.0008545-0.0389404,0.0004272-0.0578003
	c0,0-13.7059326-2.5411396-39.682373-2.5411396c-25.9763794,0-39.8353271,2.8234901-39.8353271,2.8234901
	s-2.0528564,0.6312294-3.6469116,1.1888409c-3.4764404,1.8753109-5.4588013,9.5179386-10.7294312,24.3884907
	c0,0,16.4880371-3.7344398,41.5565796-4.7818604C536.7005005,44.6811066,540.4718018,44.6383247,544.6772461,44.6383247z"/>
<path d="M220.442627,51.414814c-0.0057373,0.0470581-0.0145874,0.0911293-0.0204468,0.1381187l-8.1677856,2.1206703
	c0,0-2.2587891,13.5529213-4.5176392,17.2235069c0,2.2587891,0,3.1059036,0,3.388237h4.6057129l0.0587769-0.0650024
	c1.6317749-0.2185135,6.1837769-0.9351196,6.8605957-1.0526123c2.9396362-0.0045776,14.3529053-2.0735474,18.3529053-3.6705933
	c5.5-2.0830688,10.4117432-4.0151367,15.8117065-7.7646484c5.2999878-3.7495689,4.4765015-10.5256996,4.3764648-11.0117798
	c0,0-5.5544434-24.4770508-11.6661987-26.4117393c0,0-2.1488647,9.3200722-5.9294434,16.6587486
	C237.807312,45.626545,236.2543335,49.1559639,220.442627,51.414814z"/>
<path d="M151.9355469,61.7324944c5.3999634,3.7495079,10.3117065,5.6815834,15.8117065,7.7646523
	c4,1.5970535,15.413269,3.6660233,18.3529053,3.6705933c0.8000488,0.1388474,7.0310059,1.1176071,7.4309692,1.1176071h4.6056519
	c0,0-0.2823486-5.6470871-0.2823486-10.1647263c-2.2587891-3.6705284-3.3882446-10.4470215-3.3882446-10.4470215
	l-9.546814-2.2587891c-15.8117676-2.2588501-17.3646851-5.788269-19.7647095-10.4470787
	c-3.7805176-7.3386803-5.9293823-16.6587505-5.9293823-16.6587505
	c-6.1117554,1.9346905-11.6661987,26.4117374-11.6661987,26.4117374
	C147.4590454,51.2068062,146.6355591,57.9829254,151.9355469,61.7324944z"/>
<path d="M203.5014801,44.2618637c24.0101318,0,32.5646515,0.7529411,32.5646515,0.7529411s8.6510315-15.1649895,8.5152893-21.15382
	c0,0-14.388916-2.5411396-41.65979-2.5411396c-27.270752,0-41.8203125,2.8234901-41.8203125,2.8234901
	s1.5531921,14.2832508,9.2708282,22.3773479C170.3721466,46.5206757,179.4912872,44.2618637,203.5014801,44.2618637z"/>
<path d="M209.6394043,54.9091339c0,0-2.5522461-1.2609901-6.968689-1.2607994
	c-1.4793701,0.000061-3.1687012,0.1416016-5.0402832,0.5194702c0,9.5999794,8.4705811,16.6824303,8.4705811,16.6824303
	L209.6394043,54.9091339z"/>
</svg>
