<?xml version="1.0" encoding="utf-8"?>
<!-- Generator: Adobe Illustrator 25.3.0, SVG Export Plug-In . SVG Version: 6.00 Build 0)  -->
<svg version="1.1" id="Layer_1" xmlns="http://www.w3.org/2000/svg" xmlns:xlink="http://www.w3.org/1999/xlink" x="0px" y="0px"
	 viewBox="0 0 750.2000122 400.1000061" style="enable-background:new 0 0 750.2000122 400.1000061;" xml:space="preserve">
<g>
	<path d="M452.2694702,177.1550598l2.5285645,176.4128418c0.03302,0.0018921,0.060791,0.0037842,0.0941772,0.0056763
		c3.4277954,0.1781006,7.0548096,0.7897339,10.8851929,1.6832886
		C459.1455688,316.9795837,455.2711792,252.9582214,452.2694702,177.1550598z"/>
	<path d="M628.097229,353.5763855c1.7163086-0.2525635,3.414917-0.4414062,5.0942993-0.5359497
		c1.7959595-0.1072388,3.2989502-0.2070312,4.5548706-0.2995605l1.7802734-162.5687866
		C637.1976929,259.3036804,633.9238281,317.5097351,628.097229,353.5763855z"/>
	<path d="M452.2632446,176.7204895l-0.4741821-33.0834351c-1.2783203,2.3212891-2.7835083,4.2835083-4.6366577,5.7667236
		l1.2810669,19.6948242l-0.0436401,183.9018555c0.1000977-0.0003662,0.300415,0.0986328,0.6004639,0.0974121
		c0.8912354,0.0953979,2.5722046,0.2854614,5.8077393,0.4700317l-2.5285645-176.4128418L452.2632446,176.7204895z"/>
	<path d="M637.7463989,352.7408752c3.777832-0.2783203,5.3165894-0.4910889,5.8413696-0.6433105l-0.4559937-159.4995117
		l0.1958618-1.0007935c1.0107422-21.7042847,1.1099854-21.9046631,1.3091431-22.1054077l-0.4859619-20.8983154
		c-1.0237427-0.7894897-1.9365845-1.7346802-2.7746582-2.7926025l-1.6374512,25.0084229l-0.1789551,16.3432617l-0.0330811,3.0194702
		L637.7463989,352.7408752z"/>
	
		<rect x="110.705246" y="142.178833" transform="matrix(0.9999915 -0.0041121 0.0041121 0.9999915 -0.6846137 0.4566446)" width="0.0000305" height="49.0699043"/>
	<path d="M110.8080444,191.7110291l0.6715698,163.2866821c1.4041748,0.0819702,3.0093384,0.1757812,4.8165894,0.2687988
		c1.8166504,0.0963135,3.8210449,0.1987915,5.9688721,0.307251
		C116.8654785,316.8860168,113.4869385,258.995697,110.8080444,191.7110291z"/>
	<path d="M284.1311646,354.8571472c3.9143677-0.2336426,7.3167114-0.4411621,10.0239258-0.6072998l-0.5891724-143.2540283
		C291.5021362,269.7029724,288.6965942,320.0287781,284.1311646,354.8571472z"/>
	<path d="M294.1550903,354.2498474c1.4571533-0.0894775,2.7167969-0.1671753,3.7377319-0.2301636
		c1.1995239-0.1050415,2.0994873-0.1087646,2.5991211-0.2108765l-0.2391968-106.7999878
		c0.0998535-0.0004272,0.1999512-0.0007935,0.300354,0.098877v-0.000061l-0.0189209-4.6000366l-0.0001831-0.1073608
		l-0.0091553-7.0447388v-0.0001221l-0.0838623-64.1480103c-0.0016479-0.3999023,0.1970825-0.7008057,0.5961304-0.9023438
		l-1.4829712-20.1940308c-2.6866455-2.0720215-4.6685791-5.1479492-6.2752686-8.9047241l0.2728882,66.3486938l0.0141602,3.4408569
		L294.1550903,354.2498474z"/>
	<path d="M110.8061523,191.2485046l-0.2017822-49.069458c-1.5497437,3.6242676-3.4638062,6.6236572-6.048645,8.7338867
		l-1.3168945,20.2055054c0.1999512-0.0007935,0.300293,0.098877,0.5007935,0.197937
		c0.0891724,0.0884399,0.1513062,0.2018433,0.2011719,0.321106c0.0623779,0.149353,0.1013794,0.3108521,0.1020508,0.4776611
		l0.4147339,76.4989624l0.300354,0.098877l0.5355225,105.8985596c0.5-0.0020142,1.4003906,0.0943604,2.6008911,0.1895142
		c0.9963379,0.0456543,2.1918335,0.1152954,3.5852661,0.1966553l-0.6715698-163.2866821L110.8061523,191.2485046z"/>
	<path d="M668.3764038,369.3958435c-2.960083-40.7133179-15.6513672-214.9575195-16.4207764-220.1898193
		c-0.5067139-3.4456177-7.0228271-6.291626-12.3905029-8.0721436c1.4106445,2.8391113,3.105896,5.1856079,5.2830811,6.8568726
		l0.2004395,0.0990601l0.4863892,20.9981689c0.4004517,0.0984497,0.9020386,0.4962769,0.9036865,0.8964233l14.5204468,199.4419556
		L668.3764038,369.3958435z"/>
	<path d="M450.96875,143.4523621c-4.1078491,1.7476196-7.8519897,4.0264893-8.2107544,6.6140747
		c-0.7282715,5.25177-12.0405273,180.4564819-14.6283569,220.6173706l8.0327148-0.03302l0.2340698,0.0585327l11.2440186-199.9072266
		l-0.0004272-0.1000977l-1.3884277-21.4945068l0.1990967-0.2007446
		C448.258728,147.5950623,449.7241211,145.7029724,450.96875,143.4523621z"/>
	<path d="M102.1433716,172.223053c-0.0008545-0.2001953,0.0983276-0.4005127,0.2974243-0.6013184l1.3136597-21.0055542
		l-0.0007935-0.1999512c2.8764038-2.2459717,4.8977661-5.6903687,6.5200806-9.9107666
		c-5.482605,1.8011475-12.6201172,4.817627-13.1225586,8.4412231
		c-0.744873,5.3717651-12.5632935,188.5576172-14.7921143,223.1593018l8.262146-0.0339966l0.2918701-0.19104L102.1433716,172.223053
		z"/>
	<path d="M323.5776978,371.1140442c-2.9181519-40.1378174-15.6712036-215.2442017-16.442627-220.4898071
		c-0.5031128-3.4213257-6.9310303-6.2512817-12.2766113-8.0341797c1.442688,2.9126587,3.1748657,5.3148804,5.3934937,7.0180054
		l0.2003784,0.098999l1.4852905,20.6942749c0.2003784,0.0992432,0.3011475,0.298584,0.4019165,0.4983521l0.1005249,0.0996704
		c0.1002808,0.0994263,0.100708,0.1992798,0.1015015,0.3994751l12.8216553,199.7490234L323.5776978,371.1140442z"/>
</g>
</svg>
