<?xml version="1.0" encoding="utf-8"?>
<!-- Generator: Adobe Illustrator 25.3.0, SVG Export Plug-In . SVG Version: 6.00 Build 0)  -->
<svg version="1.1" id="Layer_1" xmlns="http://www.w3.org/2000/svg" xmlns:xlink="http://www.w3.org/1999/xlink" x="0px" y="0px"
	 viewBox="0 0 750.2000122 400.1000061" style="enable-background:new 0 0 750.2000122 400.1000061;" xml:space="preserve">
<path d="M190.3811035,75.2051086c-4.4007568-0.524231-8.8981934-1.1316528-11.3618164-1.5887451
	c-0.0263672-0.0048828-0.0560913-0.0102539-0.0817871-0.0150757c-0.1564331-0.0293579-0.3052368-0.0581055-0.4438477-0.0861206
	l-2.6870728-0.6634521l-4.6974487-1.15979c-0.9418945-0.2802734-1.8779297-0.5771484-2.809082-0.8918457l-0.1000977-0.1000977
	l-9.5998535-3.8000488v0.0001831l-0.0001221-0.0001831l-0.0090332,0.0834961
	c-1.9691162-0.9560547-3.6835938-1.9580078-5.3952637-3.0039062L153,64.3000793
	c-21.0365601,10.6764526-28.9981689,28.4194336-33.635498,45.1682739h79.6204834V86.3208923V75.697113
	c-0.2012939,0.0292358-0.3834229,0.0601807-0.5663452,0.0910034
	C196.1154785,75.7452698,193.2460327,75.5125427,190.3811035,75.2051086z"/>
<path d="M269.5249023,78.2383118L267.5,76.0000305l-0.6282959-0.5224609
	c-2.3817139-2.4108887-5.1018066-4.7331543-8.2716064-6.8774414l-5.9222412-3.9147949l-0.1412354,0.0942383l-5.2365723,2.6203613
	l-9.0136719,3.4741211l-5.1412354,1.4865112l-2.5028076,0.7236938c-4.7969971,1.1102295-13.3573608,2.2427368-18.9335938,2.6963501
	l-2.3484497,0.3400269h-2.0734253v19.2927246v14.0549927h77.8668823
	c-2.9885254-10.7249146-7.3043823-21.7908325-15.5536499-31.1682739L269.5249023,78.2383118z"/>
</svg>
