<?xml version="1.0" encoding="utf-8"?>
<!-- Generator: Adobe Illustrator 25.3.0, SVG Export Plug-In . SVG Version: 6.00 Build 0)  -->
<svg version="1.1" id="Layer_1" xmlns="http://www.w3.org/2000/svg" xmlns:xlink="http://www.w3.org/1999/xlink" x="0px" y="0px"
	 viewBox="0 0 750.2000122 400.1000061" style="enable-background:new 0 0 750.2000122 400.1000061;" xml:space="preserve">
<path d="M119.1834717,110.1284485h79.8015137v-2.90271h-78.980896
	C119.7183838,108.1961975,119.4460449,109.1637878,119.1834717,110.1284485z"/>
<path d="M207.2868652,110.1284485h78.0480957c-0.2645264-0.965271-0.5408325-1.9326782-0.828064-2.90271h-77.2200317V110.1284485z"
	/>
<path d="M198.9849854,149.0787048h-93.3782349c-0.2644653,0.2463989-0.5272217,0.4951172-0.8067017,0.7213745l-0.1511841,2.1813354
	h94.3361206V149.0787048z"/>
<path d="M207.2868652,149.0787048v2.90271h92.6644287l-0.1511841-2.1812744
	c-0.2891846-0.2249146-0.5616455-0.4736938-0.8348389-0.7214355H207.2868652z"/>
<path d="M633.8999634,122.1999817c0.1204834,0.5310059,0.239563,1.0542603,0.3588257,1.578125l63.5609741-0.059021
	c-0.1393433-0.8384399-0.2799683-1.6740112-0.4244385-2.5004883l-63.703125,0.0625
	C633.7615967,121.5879822,633.8312988,121.8959656,633.8999634,122.1999817z"/>
<path d="M701.6323853,154.2897644c-0.0765381-0.843811-0.1549683-1.6845703-0.2349243-2.522644l-56.0471802,0.0730591
	l0.0480347,2.5202637L701.6323853,154.2897644z"/>
<path d="M52.6746826,123.7730408l62.3135376-0.0578613c0.1037598-0.4376831,0.2069092-0.8731079,0.3118286-1.3152466
	c0.090271-0.3925171,0.1819458-0.7902222,0.2732544-1.1864624l-62.4754639,0.0613403
	C52.9538574,122.1007385,52.8134766,122.9350891,52.6746826,123.7730408z"/>
<path d="M103.6797485,154.3034973l0.1682129-2.522644l-54.7371826,0.0713501
	c-0.0794067,0.8374023-0.1575317,1.677063-0.2335205,2.5202026L103.6797485,154.3034973z"/>
<path d="M398.1741333,123.7762756l59.4232178-0.0551758c0.100708-0.4396362,0.2010498-0.8770752,0.3026733-1.321167
	c0.0884399-0.3905029,0.1781616-0.7857056,0.2677002-1.1801758l-59.5704956,0.0584717
	C398.4532471,122.1041565,398.3128662,122.938324,398.1741333,123.7762756z"/>
<path d="M446.7908936,154.3108826l-0.1524658-2.5219727l-52.0280762,0.0678711
	c-0.0794067,0.8374023-0.1574707,1.6768799-0.2334595,2.5199585L446.7908936,154.3108826z"/>
<path d="M351.7939453,121.2102966l-62.8508301,0.0616455c0.0857544,0.3765259,0.1719971,0.7546387,0.2568359,1.1279907
	c0.1045532,0.4608154,0.2081909,0.9140015,0.3120728,1.3695068l62.7063599-0.0582275
	C352.0789795,122.8726501,351.9384766,122.0368347,351.7939453,121.2102966z"/>
<path d="M355.7957764,151.756073l-54.9316406,0.0716553l0.1705322,2.5205078l54.9959717-0.0690918
	C355.9541016,153.4352112,355.8757935,152.5942078,355.7957764,151.756073z"/>
</svg>
