<?xml version="1.0" encoding="utf-8"?>
<!-- Generator: Adobe Illustrator 25.3.0, SVG Export Plug-In . SVG Version: 6.00 Build 0)  -->
<svg version="1.1" id="Layer_1" xmlns="http://www.w3.org/2000/svg" xmlns:xlink="http://www.w3.org/1999/xlink" x="0px" y="0px"
	 viewBox="0 0 750.2 400.1" style="enable-background:new 0 0 750.2 400.1;" xml:space="preserve">
<g>
	<polygon points="138.4,224.9 230.8,225.1 266,225 266,224.8 230.8,224.7 138.4,224.8 	"/>
	<polygon points="138.4,215.6 230.8,215.8 266,215.7 266,215.5 230.8,215.4 138.4,215.5 	"/>
	<polygon points="138.4,205.8 230.8,206 266,205.9 266,205.7 230.8,205.6 138.4,205.7 	"/>
	<polygon points="138.4,196.1 138.4,196.2 230.8,196.3 266,196.2 266,196 230.8,195.9 	"/>
	<polygon points="138.4,186.3 230.8,186.5 266,186.4 266,186.2 230.8,186.1 138.4,186.2 	"/>
	<polygon points="138.4,176.5 138.4,176.6 230.8,176.7 266,176.6 266,176.4 230.8,176.3 	"/>
	<polygon points="235.1,220.9 233.9,219.9 230.8,219.9 164.7,220.1 165.5,220.8 230.8,220.9 	"/>
	<polygon points="257.8,211.1 266,211.1 266,210.2 256.7,210.2 	"/>
	<polygon points="223.4,211.1 222.3,210.2 164.5,210.3 153.1,210.3 153.8,211 164.5,211 	"/>
	<polygon points="246.1,201.3 266,201.2 266,200.5 244.9,200.4 	"/>
	<polygon points="211.7,201.3 210.6,200.4 164.5,200.5 141.4,200.6 142.1,201.1 164.5,201.2 	"/>
	<polygon points="164.5,190.7 138.4,190.8 138.4,191.3 164.5,191.4 200,191.5 199,190.7 	"/>
	<polygon points="234.5,191.6 266,191.5 266,190.7 233.3,190.6 	"/>
	<polygon points="164.5,181 138.4,181.1 138.4,181.5 164.5,181.6 188.4,181.7 187.4,180.9 	"/>
	<polygon points="221.6,180.9 222.8,181.9 230.8,181.9 266,181.8 266,181 230.8,180.9 	"/>
	<polygon points="210,171.1 211.1,172 230.8,172 266,171.9 266,171.1 230.8,171 	"/>
	<polygon points="176.7,171.9 175.8,171.2 164.5,171.2 138.4,171.3 138.4,171.8 164.5,171.9 	"/>
</g>
</svg>
