<?xml version="1.0" encoding="utf-8"?>
<!-- Generator: Adobe Illustrator 25.3.0, SVG Export Plug-In . SVG Version: 6.00 Build 0)  -->
<svg version="1.1" id="Layer_1" xmlns="http://www.w3.org/2000/svg" xmlns:xlink="http://www.w3.org/1999/xlink" x="0px" y="0px"
	 viewBox="0 0 750.2 400.1" style="enable-background:new 0 0 750.2 400.1;" xml:space="preserve">
<g>
	<path d="M172.2,226.5h23.2c1.4-2.2,3.3-1.8,5.1,0h30.2c3-3.3,6.2-3.2,10.4-3.2c4.2,0,5.5-3.4,7.9-5.8c-2.2-0.5-4.5-0.9-6.6-1.6
		c-0.5-0.1-0.9-0.3-1.4-0.5s-0.9-0.4-1.4-0.6c-0.6-0.2-1.2-0.2-1.8-0.4c-0.8-0.2-1.3-0.6-2.2-0.3c-0.5,0.1-1.1,0.5-1.6,0.4
		c-0.6-0.1-0.9-0.7-1.6-0.9c-1-0.2-3.6,1.4-4.3,0.2c-0.4-0.8,0.3-1.4,1.1-1.8c-3-0.5-6-0.5-7.6,0.9c-4.5,3.6-5.5,16.7-15.7,5.9
		c-3.2-3.4-5.4-6.2-9-6c-0.3,0.4-0.7,0.8-1,1.2c-0.8,0.9-1.6,1.8-2.5,2.6c-0.7,0.6-2.2,2.1-3.2,1.2c-0.1-0.1-0.2-0.2-0.3-0.3
		c-0.7,0.8-1.4,1.5-2.3,2c-1.9,1.1-4.2,0-6.7-0.2C175.7,219,173.8,222.7,172.2,226.5z"/>
	<path d="M246.8,212.9c0.1,0,0.1,0,0.2,0c1.4,0.2,2.9,0.3,4.3,0.2c-0.9-0.2-1.9-0.4-2.8-0.5C247.8,212.7,247.3,212.8,246.8,212.9z"
		/>
	<path d="M138.4,183.5c2.2,1,4,3,3,5.9c-0.5,1.6-1.6,2.3-3,2.7v4.5c0.3-0.2,0.7-0.4,1-0.6c0.9-0.6,1.9-0.9,2.7-1.6
		c0.8-0.7,1.2-2.1,2.5-2.2c2.7-0.2,3.5,3.9,4.5,4.1c0.5,0.1,1,0.1,1.4,0.1c0.5,0,0.9-0.1,1.4-0.2c0.7,0.1,1.5-0.2,2.1-0.7
		c1.2-0.9,2.4-1.3,3.7-1.5c0.4-0.1,0.8-0.1,1.3-0.1c1.3-0.1,2.4,0.2,3.8-0.2c1.2-0.4,2.4-1.1,3.5-1.8c1.1-0.8,2-1.7,3.1-2.5
		c0.9-0.6,1.6-1.7,2.6-2.2c0.5-0.3,1-0.4,1.5-0.7c0.8-0.6,1.2-1.4,1.6-2.2c0.4-0.8,1.5-1.8,1.4-2.7c-0.1-1.6-2.2-1.2-3.1-1.1
		c-1.1,0.2-2.2,0.3-3.3,0.4c-1,0.1-1.9,0.4-2.9,0.6c-6,0.9-18.4,0-22.6-5.2c-1.8-2-2.3-4.4-3.8-6.3h-2.4V183.5z"/>
	<path d="M177.9,192.3l12.8-2.6c-0.2-0.2-0.3-0.3-0.5-0.5l-11.4,2.3C178.6,191.8,178.2,192,177.9,192.3z"/>
	<path d="M158.3,195.6c0,0.2-0.1,0.4-0.1,0.6l2.1-0.4c-0.1-0.2-0.1-0.4-0.2-0.5L158.3,195.6z"/>
	<path d="M187.1,187.6c-0.2,0-0.4,0-0.7,0l-5.6,1.1c-0.2,0.2-0.3,0.4-0.5,0.7l7.9-1.6C187.9,187.7,187.6,187.6,187.1,187.6
		L187.1,187.6z"/>
	<path d="M159.3,200.2c0.4,0,0.8,0.1,1.2,0.2h0.1l4.7-1c1-0.5,2.2-0.9,3.4-1.2l-9.8,2C159,200.2,159.1,200.2,159.3,200.2z"/>
	<path d="M242.9,178.1c0.1,0.9,0.3,1.8,0.7,2.6l-17.6,3.6c-0.7,0.3-1.4,0.6-2,1l19.9-4c0.2,0.3,0.4,0.5,0.6,0.7
		c0.3,0.3,0.7,0.5,1.1,0.7l-26.8,5.4c-1.8,0.7-3.6,1.2-5.6,1.4c-0.8,0.1-1.6,0.2-2.4,0.2l-42,8.5c1.3-0.2,2.6-0.3,3.9-0.3l73.9-14.9
		c0.7,0.1,1.3,0,1.8-0.4l7.3-1.5c0.5-0.2,1-0.4,1.5-0.5c0.7-0.2,1.6-0.5,2.5-0.9l-10.7,2.2c0.5-0.6,0.8-1.4,1.3-2l6.6-1.3
		c0.7,0.2,1.5,0.3,2.1,0.5c2.3,0.4,4.5,0.1,6.4-1.4c0.2-0.2,0.4-0.4,0.6-0.6v-7.2h-19.5C244.1,171.6,242.6,174.3,242.9,178.1z"/>
	<path d="M168.8,198.2c0,0-0.1,0-0.1,0L168.8,198.2z"/>
	<path d="M199,190.3c-0.1,0-0.2-0.1-0.3-0.1c-0.2,0-0.5,0.1-0.7,0.3L199,190.3z"/>
	<path d="M153.2,199.3c-0.5,0.1-1.2,0-1.8,0l-1.5,0.3c-0.4,0.3-0.6,0.6-0.7,0.7l43.7-8.8c-0.2-0.1-0.4-0.2-0.7-0.4l-22.8,4.5
		c-0.3,0.2-0.7,0.3-1.1,0.4c-0.3,0-0.5,0-0.8,0l-3.4,0.7c-0.3,0.3-0.6,0.5-1,0.5c-0.1,0-0.4-0.1-0.8-0.2l-7.8,1.6
		C154.1,198.9,153.7,199.1,153.2,199.3z"/>
	<path d="M206.4,195.1l-25.1,5.1c0.4,0.1,0.8,0.2,1.2,0.4l22.4-4.5C205.3,195.7,205.8,195.4,206.4,195.1z"/>
	<path d="M246.9,186.9l-36.8,7.4c0.7,0,1.4,0.1,2.1,0.2l33.8-6.8C246.3,187.5,246.6,187.2,246.9,186.9z"/>
	<path d="M178.2,199l71.6-14.4c0.4-0.3,0.8-0.6,1.2-0.8l-73.8,14.9C177.6,198.8,177.9,198.9,178.2,199z"/>
	<path d="M237.9,194c0.5-0.3,0.9-0.6,1.4-0.9l-17.8,3.6c0.5,0.1,1.1,0.2,1.6,0.3L237.9,194z"/>
	<path d="M202.1,198.9c0.2-0.2,0.4-0.5,0.6-0.7l-16.1,3.3c0.6,0.1,1.2,0.2,1.8,0.2L202.1,198.9z"/>
	<path d="M243.4,189.9l-27.2,5.5c0.4,0.1,0.8,0.2,1.2,0.3l25-5C242.8,190.5,243.1,190.2,243.4,189.9z"/>
	<path d="M139.1,224.8l-0.7,0.1v0.6l1.1-0.2C139.4,225.1,139.3,225,139.1,224.8z"/>
</g>
</svg>
