<?xml version="1.0" encoding="utf-8"?>
<!-- Generator: Adobe Illustrator 25.3.0, SVG Export Plug-In . SVG Version: 6.00 Build 0)  -->
<svg version="1.1" id="Layer_1" xmlns="http://www.w3.org/2000/svg" xmlns:xlink="http://www.w3.org/1999/xlink" x="0px" y="0px"
	 viewBox="0 0 750.2 400.1" style="enable-background:new 0 0 750.2 400.1;" xml:space="preserve">
<g>
	<polygon points="201.9,190.2 202.7,191.1 223.9,169.9 220.5,169.9 202.7,187.7 184.9,169.9 181.6,169.9 	"/>
	<polygon points="202.8,220.8 151.9,169.9 148.6,169.9 202,223.3 202.8,224.1 257.1,169.9 253.7,169.9 	"/>
	<polygon points="230.6,226.5 266,191.1 266,187.8 227.3,226.5 	"/>
	<polygon points="178.7,226.5 138.4,186.2 138.4,189.5 175.4,226.5 	"/>
	<polygon points="257.3,226.5 260.7,226.5 266,221.2 266,217.8 	"/>
	<polygon points="148.9,226.5 138.4,216 138.4,219.4 145.5,226.5 	"/>
	<polygon points="201.8,175.1 202.6,175.9 208.6,169.9 205.2,169.9 202.6,172.5 200,169.9 196.6,169.9 	"/>
	<polygon points="202.8,202.4 170.3,169.9 167,169.9 202,204.9 202.7,205.8 238.6,169.9 235.3,169.9 	"/>
	<polygon points="211.8,226.5 215.1,226.5 266,175.6 266,172.3 	"/>
	<polygon points="190.5,226.5 193.8,226.5 138.4,171.1 138.4,174.4 	"/>
	<polygon points="241.9,226.5 245.3,226.5 266,205.8 266,202.5 	"/>
	<polygon points="164.1,226.5 138.4,200.8 138.4,204.1 160.8,226.5 	"/>
</g>
</svg>
