<?xml version="1.0" encoding="utf-8"?>
<!-- Generator: Adobe Illustrator 25.3.0, SVG Export Plug-In . SVG Version: 6.00 Build 0)  -->
<svg version="1.1" id="Layer_1" xmlns="http://www.w3.org/2000/svg" xmlns:xlink="http://www.w3.org/1999/xlink" x="0px" y="0px"
	 viewBox="0 0 750.2 400.1" style="enable-background:new 0 0 750.2 400.1;" xml:space="preserve">
<g>
	<path d="M247.7,178.7c3-1.9,6.3-2,9.6-1.4c3,0.6,5.9,0.5,8.7-0.5v-6.9h-12.7c0.1,1.1,0.5,2,1.7,2.3c1.4,0.4,2.1-0.6,2.9-1.6
		c-0.4,3.6-3.4,5.6-6.7,4.3c-1.8-0.7-3.4-1.7-5-2.8c-1.2-0.8-2.4-1.5-3.6-2.2h-25.8c0.8,1.2,1.2,2.7,1.1,4.4
		c-0.1,1.9-0.6,3.8-1.4,5.5c-1.6,3.2-4,4.2-7.3,3.2c-3.4-1-6.3-2.9-9.3-4.9c-4.1-2.7-8.5-3.9-13.1-2.3c-9.2,3.1-17.8,1.1-26.4-2.8
		c-2.1-1-4.2-2-6.3-3.1h-4.2c1.4,4.2,4.4,6.9,8.6,8.4c5,1.8,10.1,2.9,15.4,2.3c1.7-0.2,3.3-0.1,5-0.1c0.7,0,1.3,0.2,1.7,0.9
		c0.4,0.8,0,1.4-0.5,1.9c-0.7,0.8-1.3,1.7-1.7,2.7c3.9,1.3,7.7,2.8,10.5,6.3c0.7,0.9,1.2,2,1.5,3.2c0.3,1.6-0.3,2.5-1.8,2.8
		c-1.3,0.2-2.6-0.2-3.9-0.5c-1.8-0.5-3.5-0.9-5.4-0.9c-2,0-3.2,1-3.4,2.9c-0.2,1.4,0.5,2.3,2.5,2.9c2,0.6,4.1,1,6.1,1.4
		c1.3,0.3,2.5,0.9,3.4,2c2.1,2.3,1.4,4.9-1.5,5.6c-1.8,0.5-3.6,0.4-5.5,0.2c-4-0.6-7.9-1.3-11.8-2c0-0.2,0-0.3,0-0.4
		c0.6-0.5,1.4-0.8,1.2-1.7c-0.2-1-1.1-1.2-1.9-1.3c-1-0.2-1.9,0.2-2.8,0.6c-1.4,0.6-2.7,0.5-3.7-0.6c-3.2-3.7-7.3-3.8-11.5-3.7
		c-1.1,0-2.2,0.1-3.3,0.4c-1.6,0.4-3,0.1-4.5-0.8c-1.4-0.8-2.8-1.5-4.2-2.1v8.4c0.3-0.1,0.5-0.3,0.8-0.4c1.3-0.8,2.5-0.7,3.8,0
		c2.4,1.4,4.6,3,5,6.3c0.4,2.8,2.7,3.3,4.8,3.7c0.8,0.2,1.6,0.3,2.1,1.2c0.3,0.4,0.7,0.7,1.1,0.7c2.8,0.1,4.8,2,7.1,3.4
		c2,1.2,4.1,2.3,6.4,2.9h3c0.7-1.3,1.4-2.7,2.3-3.9c1.8-2.3,4.1-3.1,6.8-2.6c0.9,0.2,1.8,0.5,2.6,0.8c2,0.8,3.8,0.6,5.4-0.9
		c0.2-0.2,0.6-0.5,0.8-0.4c2,1,3-0.7,4.3-1.6c0.5-0.3,0.8-0.8,1.3-1.2c1.5-1.4,2.5-1.4,4.2-0.3c1.6,1.1,2.8,2.7,3.9,4.3
		c1.3,1.8,2.5,3.7,4.2,5.1c0.3,0.3,0.6,0.5,0.9,0.7h4.7c0.5-0.4,0.9-0.8,1.4-1.4c1-1.3,2-2.6,2.9-4c1.9-3,4.4-4,7.6-3.2
		c0.6,0.2,1.2,0.3,1.8,0.4c1,0,2-0.3,2.9-0.8c2.7-1.3,5.2-1.1,7.6,0.7c0.4,0.3,0.9,0.7,1.5,0.7c0.3-1.4,1.3-1.8,2.5-1.9
		c2.5-0.1,4.9,0.6,7.1,1.6c2.6,1.2,5.1,1,7.6-0.1c2.3-1.1,4.7-1.2,7.1-0.2c0.9,0.3,1.7,0.2,2.1-0.6V216c-0.3-0.4-1-0.5-1.5-0.6
		c-1.2-0.1-2.3,0-3.5-0.2c-0.6-0.1-1.4-0.3-1.4-1c0-0.9,0.9-0.9,1.5-0.9c0.9,0.1,1.6-0.3,2-1.1c0.7-1.3,1.7-1.8,2.9-1.9v-22.6
		c-2.5,2.3-5.4,2.1-8.5,0.9c-0.8-0.3-1.5-0.6-2.3-0.8c-2.1-0.7-3.9-0.1-5.2,1.9c-0.8,1.2-1.7,2.2-3.3,1.8c-1.6-0.4-2.5-1.6-2.9-3.2
		C242.9,184.7,244.6,180.7,247.7,178.7z"/>
	<path d="M246,226.5h1.6C247.1,226.3,246.5,226.2,246,226.5z"/>
	<path d="M144.2,188.1c1.8-0.2,3-1.2,3.5-3.1c0.5-1.9-0.2-3.4-1.5-4.6c-1.4-1.2-3-1.9-4.8-1.8c-1,0-2,0.2-3,0.4v7.8
		c0.7,0.5,1.3,0.9,2,1.3C141.7,188.4,142.9,188.3,144.2,188.1z"/>
</g>
</svg>
