<?xml version="1.0" encoding="utf-8"?>
<!-- Generator: Adobe Illustrator 25.3.0, SVG Export Plug-In . SVG Version: 6.00 Build 0)  -->
<svg version="1.1" id="Layer_1" xmlns="http://www.w3.org/2000/svg" xmlns:xlink="http://www.w3.org/1999/xlink" x="0px" y="0px"
	 viewBox="0 0 750.2 400.1" style="enable-background:new 0 0 750.2 400.1;" xml:space="preserve">

<g>
	<path class="st0" d="M264.9,182.5c-3.7,2.7-7.5,5.5-11.3,8.3c1.7-0.6,3.3-1.2,4.9-1.8c2.5-1.3,5-2.7,7.5-4v-6.8
		c-11.8,6.2-23.6,12.8-35.5,19.4C242,192.5,253.4,187.4,264.9,182.5z"/>
	<path class="st0" d="M254.4,177c-5.4,1.9-10.8,3.9-16.1,5.9c-33.2,14.6-66.3,30-99.1,40.7c-0.3,0.1-0.5,0.2-0.8,0.3v2.6h16.4
		c9.7-2.9,19.4-6.1,29.1-9.6c6.2-2.2,12.4-4.5,18.7-6.8c6.4-2.9,12.9-5.7,19.3-8.7C232.8,193.1,243.6,184.9,254.4,177z"/>
	<path class="st0" d="M266,226.5v-2.8c-2,0.9-4,1.9-6,2.8H266z"/>
	<path class="st0" d="M255.1,226.5c3.6-2,7.3-4,10.9-6v-0.1c-4.5,2-9.1,4-13.6,6.1H255.1z"/>
	<path class="st0" d="M234.5,216.1c-5.7,3.5-11.3,6.9-17,10.4h12.6c11.9-4.4,23.8-8.7,35.8-12.8v-11.4
		C255.5,206.7,245,211.4,234.5,216.1z"/>
	<path class="st0" d="M164.3,169.9h-14.2c-3.5,1.7-6.9,3.4-10.4,5c1.1,0.7,2.3,1.3,3.6,2C150.3,174.8,157.3,172.4,164.3,169.9z"/>
	<path class="st0" d="M145.5,169.9h-7.1v2.2C140.8,171.4,143.2,170.7,145.5,169.9z"/>
	<path class="st0" d="M185.3,175.1c-0.6,0.4-1.1,0.7-1.7,1.1c-2.9,1-5.8,1.9-8.8,2.9c-7.6,2.8-15.2,5.5-22.8,8
		c-4.3,3.1-8.5,6.1-12.8,9.1c-0.3,0.1-0.5,0.1-0.8,0.2v11.2c27-7.5,54.2-18.3,81.7-29.4c5.5-2.8,11-5.5,16.5-8.3h-38.2
		C194.1,171.7,189.7,173.4,185.3,175.1z"/>
</g>
</svg>
