<?xml version="1.0" encoding="utf-8"?>
<!-- Generator: Adobe Illustrator 25.3.0, SVG Export Plug-In . SVG Version: 6.00 Build 0)  -->
<svg version="1.1" id="Layer_1" xmlns="http://www.w3.org/2000/svg" xmlns:xlink="http://www.w3.org/1999/xlink" x="0px" y="0px"
	 viewBox="0 0 750.2 400.1" style="enable-background:new 0 0 750.2 400.1;" xml:space="preserve">
<g>
	<polygon points="266,181.6 266,175.1 250.8,169.9 234.4,169.9 	"/>
	<polygon points="149.1,213.6 149.1,214.8 150.7,215.4 181.2,226.5 196.7,226.5 154.3,212 153.3,169.9 150.1,169.9 	"/>
	<polygon points="160,169.9 160.9,206.3 160.9,207.1 161.8,207.4 220,226.5 223.6,226.5 163.8,205.5 164.6,169.9 	"/>
	<polygon points="174.2,190.4 174.2,191.8 175.8,192.4 266,225.2 266,218.5 179.5,189 179.1,169.9 174.7,169.9 	"/>
	<polygon points="185.7,169.9 186,183.2 186,184 186.9,184.3 266,210.3 266,209.6 188.9,182.5 189.2,169.9 	"/>
	<polygon points="140.2,226.5 141.1,187.9 141.1,186.4 139.4,185.8 138.4,185.5 138.4,226.5 	"/>
</g>
</svg>
