<?xml version="1.0" encoding="utf-8"?>
<!-- Generator: Adobe Illustrator 25.3.0, SVG Export Plug-In . SVG Version: 6.00 Build 0)  -->
<svg version="1.1" id="Layer_1" xmlns="http://www.w3.org/2000/svg" xmlns:xlink="http://www.w3.org/1999/xlink" x="0px" y="0px"
	 viewBox="0 0 750.2 400.1" style="enable-background:new 0 0 750.2 400.1;" xml:space="preserve">
<polygon points="266,226.5 266,226.5 266,226.5 "/>
<path d="M237.7,204.6l-27.9-7.3l-18.1,16.1l-27.9-7.3l-18.1,16.1l-7.3-1.9v2.9l12.7,3.3h25.7l-7.7-2l12.3-10.9l18.8,4.9l-9,8h25.8
	l6.6-5.9l22.5,5.9h6.9l12.8-11.4v-7l-4.8-1.3l4.8-4.3v-11.4l-10.2-2.7L237.7,204.6z M234,220.6l-18.8-4.9l12.3-10.9l18.8,4.9
	L234,220.6z"/>
<path d="M265.3,178.8l-17.3-5l4.8-3.9h-28.9l-2.2,1.8l-6.2-1.8h-26.2l-10.9,9l-25.6-7.4l-14.4,11.9v4.6l9,2.6l-9,7.4v4L156,207
	l17.7-14.6l25.6,7.4l17.7-14.6l25.6,7.4l17.7-14.6l5.7,1.7v-1.4L265.3,178.8z M178.7,193l-17.3-5l12-9.8l17.3,5L178.7,193z
	 M222,185.9l-17.3-5l12-9.8l17.3,5L222,185.9z"/>
</svg>
