<?xml version="1.0" encoding="utf-8"?>
<!-- Generator: Adobe Illustrator 25.3.0, SVG Export Plug-In . SVG Version: 6.00 Build 0)  -->
<svg version="1.1" id="Layer_1" xmlns="http://www.w3.org/2000/svg" xmlns:xlink="http://www.w3.org/1999/xlink" x="0px" y="0px"
	 viewBox="0 0 750.2 400.1" style="enable-background:new 0 0 750.2 400.1;" xml:space="preserve">
<g>
	<path d="M394.4,267.7c-0.4,3.7-0.7,7.2-0.9,10.4c5.5,1.4,10.8,2.7,16,3.8l5.1-29.1L394.4,267.7z"/>
	<path d="M405.6,197.1c-0.4,1.9-0.7,3.7-1.1,5.6l10.7,13.8l2.5-17.7L405.6,197.1z"/>
	<path d="M415.2,216.6l0.3,0L400,228c-0.7,4.4-1.5,8.8-2.1,13l14,2l3.7-26.4l0.1,0l4.3,5.5l1.8-10.5L415.2,216.6z"/>
	<path d="M429.7,166.2l-21.1,15.6c-1,5-2,10.1-3,15.2l18.2,2.6L429.7,166.2z"/>
	<path d="M427.2,132.5l-9.9,7.3c-1.2,5.4-2.4,11.3-3.8,17.6l10.1,1.4l3.7-26.4l0.1,0l6.6,8.5l2.7-15.3c-0.2,0-0.4,0-0.6-0.1
		l-9.1,6.8L427.2,132.5z"/>
	<path d="M420.8,123.8c0,0.2-0.1,0.3-0.1,0.5l6.3,8.1l1.1-7.7C424.5,124.3,422,124,420.8,123.8z"/>
	<path d="M115.2,278c5.5,1.4,10.8,2.7,16,3.8l6.4-36.8l-20.8,15.3C116.1,266.9,115.5,272.8,115.2,278z"/>
	<path d="M127,198.4c-0.9,4.6-1.7,9.3-2.6,13.9l3.3,4.3l2.5-17.7L127,198.4z"/>
	<path d="M127.8,216.6l0.3,0l-5,3.7c-1.3,7.5-2.5,14.9-3.6,22l5.1,0.7l3.7-26.4l0.1,0l11.7,15.2l4.8-27.8L127.8,216.6z"/>
	<path d="M144.1,200.6l5.6-39.8l-0.1,0l-17.7,13.1c-1.6,7.9-3.2,16.1-4.8,24.3L144.1,200.6z"/>
	<path d="M149.9,124.8l-9.1,6.7c-0.1,0.5-0.2,1-0.3,1.5l13.6,17.7l4.3-25C155.1,125.4,152.3,125.1,149.9,124.8z"/>
	<path d="M134.9,158.7l1.3,0.2l2.5-18.1C137.6,146.3,136.3,152.3,134.9,158.7z"/>
	<path d="M354.5,257.8L337,244.9l-0.1,0l5.1,36.6c4.7-1,9.5-2.2,14.5-3.4C356.1,272.2,355.4,265.3,354.5,257.8z"/>
	<path d="M344.7,198.8l-0.2,0l2.5,17.7l0.8-1C346.8,210,345.8,204.4,344.7,198.8z"/>
	<path d="M329.8,238.4l16.8-21.8l0.1,0l3.7,26.4l2-0.3c-1.2-8-2.6-16.4-4.2-25.1l-1.4-1.1l0.3,0l-20.6-15.2l2.5,17.7l-2.5,0.3
		L329.8,238.4z"/>
	<polygon points="323.9,204.7 326.5,201.4 323.4,201.8 	"/>
	<path d="M325.1,160.8l5.6,39.8l14-2c-1.8-9.3-3.6-18.6-5.4-27.5l-14.1-10.4L325.1,160.8z"/>
	<path d="M315.6,157.3l16.3-21.1c-0.6-2.6-1.1-5.1-1.6-7.4l-6.7-4.9c-2.1,0.3-4.7,0.7-7.8,1.1l1.4,10.1l-5.3,0.7L315.6,157.3z"/>
	<path d="M631.8,250.3l-7.4-5.4l-0.1,0l4.8,34.5c1.9-0.5,3.8-0.9,5.7-1.4C634.4,270.3,633.3,260.8,631.8,250.3z"/>
	<path d="M607.1,220.4l3.7,26.4l17-22.1c-0.9-5-1.7-10-2.7-15.1l-11.2-8.3l2.5,17.7L607.1,220.4z"/>
	<polygon points="613.9,201.4 601.9,203 603.9,214.3 	"/>
	<path d="M623.3,199.9c-2.4-12.6-4.9-25.1-7.3-36.6l-3.3-2.5l-0.1,0l5.6,39.8L623.3,199.9z"/>
	<path d="M595.3,136.3l3.7,26.4l13.3-17.3c-1.9-8.8-3.6-16.5-4.9-22.4c-0.9,0.1-2.3,0.4-4.3,0.7l1.6,11.3L595.3,136.3z"/>
	<path d="M588.5,125.6l1.3,7.7l6.7-8.7C594.1,124.9,591.4,125.3,588.5,125.6z"/>
</g>
</svg>
