<?xml version="1.0" encoding="utf-8"?>
<!-- Generator: Adobe Illustrator 25.3.0, SVG Export Plug-In . SVG Version: 6.00 Build 0)  -->
<svg version="1.1" id="Layer_1" xmlns="http://www.w3.org/2000/svg" xmlns:xlink="http://www.w3.org/1999/xlink" x="0px" y="0px"
	 viewBox="0 0 750.2000122 400.1000061" style="enable-background:new 0 0 750.2000122 400.1000061;" xml:space="preserve">

<path class="st0" d="M294.5163574,138.8222961c-0.776062-3.4403076-1.3789673-7.949646-1.5824585-13.8876953
	c-0.0733032-2.1528931-0.1509399-4.4520874-0.2366333-6.8466187c-2.6436157,4.0424194-24.4069824,39.3615723-2.0874634,74.4351196
	c1.1536865,1.8129272,2.3737183,3.3338623,3.647644,4.6022339L294.5163574,138.8222961z"/>
<path class="st0" d="M111.635376,117.2303162c-0.0982056,2.7042236-0.18573,5.2957764-0.2679443,7.7042847
	c-0.19104,5.5739746-0.7330322,9.8945923-1.4406128,13.2493896l0.2512207,56.574585
	c1.0443726-1.1288452,2.0534058-2.4209595,3.0134277-3.9295654
	C134.3953247,157.5086975,115.8130493,123.9668884,111.635376,117.2303162z"/>
<path class="st0" d="M453.8466797,117.7130432c-0.0910034,2.4456177-0.1720581,4.8002319-0.2473145,7.010376l-0.0410156,1.2109375
	c-0.2344971,6.8608398-1.0049438,11.8318481-1.9619141,15.434021l0.4991455,56.208313
	c1.4486084-1.3540039,2.8324585-3.0141602,4.130249-5.0535889c23.7175903-37.2705078-2.3463745-74.8233643-2.3463745-74.8233643
	L453.8466797,117.7130432z"/>
<path class="st0" d="M635.7737427,192.5231018c0.9835815,1.5455933,2.0181885,2.866272,3.0901489,4.0136108l0.4992065-56.2131958
	c-0.8345337-3.503479-1.4909668-8.161438-1.7039185-14.3891602l-0.0410156-1.2109375
	c-0.0639648-1.8793945-0.1309204-3.8700562-0.2036133-5.9349976
	C633.4136353,125.1925964,614.4213867,158.9693298,635.7737427,192.5231018z"/>
<path class="st0" d="M451.2004395,138.7297058c0.6721191-3.2515869,1.1932373-7.4310913,1.3776855-12.8283691l0.0410156-1.2114258
	c0.0719604-2.1123657,0.1472778-4.3122559,0.2300415-6.5723877l-55.9088135,22.6723633l1.8919067,8.4921875L451.2004395,138.7297058
	z"/>
<path class="st0" d="M54.0019531,149.1271057l54.9484863-11.0723267c0.7010498-3.2972412,1.246521-7.5827637,1.4365845-13.1536865
	c0.093811-2.7399902,0.1947632-5.7218018,0.3102417-8.8355103L51.9526367,139.88797L54.0019531,149.1271057z"/>
<path class="st0" d="M293.7241821,124.5710144c0.1954956,5.7297974,0.7676392,10.095459,1.4976807,13.4286499l56.1132812,11.3070068
	l1.6143188-7.2781982l-59.4553223-24.1105957C293.5771484,120.2437439,293.6524048,122.4750671,293.7241821,124.5710144z"/>
<path class="st0" d="M638.4812012,117.8461609c0.0852051,2.3296509,0.1627197,4.5933838,0.2364502,6.7583618l0.0410156,1.2114258
	c0.1760254,5.1508789,0.6603394,9.1833496,1.2880859,12.3690186l55.7023926,11.2242432l1.7039185-7.6484985L638.4812012,117.8461609
	z"/>
</svg>
