<?xml version="1.0" encoding="utf-8"?>
<!-- Generator: Adobe Illustrator 25.3.0, SVG Export Plug-In . SVG Version: 6.00 Build 0)  -->
<svg version="1.1" id="Layer_1" xmlns="http://www.w3.org/2000/svg" xmlns:xlink="http://www.w3.org/1999/xlink" x="0px" y="0px"
	 viewBox="0 0 750.2 400.1" style="enable-background:new 0 0 750.2 400.1;" xml:space="preserve">
<g>
	<path d="M286.3,354c2.9-0.2,5.5-0.3,7.6-0.4c-67.4-47.8-116.6-201.9-178.7-280.8c-0.3,1.8-0.6,3.7-0.8,5.7
		C174.3,154.7,222.3,301.2,286.3,354z"/>
	<path d="M269.5,354.9c2.1-0.1,4.1-0.2,6-0.3C216.2,296.2,170.1,160.7,113.3,88c-0.2,2-0.3,4.1-0.5,6.1
		C167.8,164.9,212.8,294.2,269.5,354.9z"/>
	<path d="M255.3,355.6c1.8-0.1,3.5-0.2,5.2-0.3c-52.9-63.2-96.2-183.2-148.3-251.1c-0.1,2.2-0.2,4.3-0.3,6.4
		C162.3,176.8,204.5,291.5,255.3,355.6z"/>
	<path d="M242.4,356.2c1.6-0.1,3.2-0.1,4.8-0.2c-47.5-64.8-87.9-171.4-135.7-234.9c0,1.3-0.1,2.6-0.1,3.9c0,0.9-0.1,1.8-0.1,2.6
		C157.4,189.4,196.8,291.3,242.4,356.2z"/>
	<path d="M230.6,356.7c1.5-0.1,3-0.1,4.4-0.2C192,291.7,154.2,196.3,110.2,137c-0.4,2-0.8,3.7-1.3,5.1
		C151.8,199.8,188.9,291.9,230.6,356.7z"/>
	<path d="M223.6,357c-40.1-65.1-76.3-153.4-118.1-208.4c-0.5,0.5-0.8,0.8-1.1,0.9l0,4.5c40.8,53.4,76.1,138.6,115,203.2
		C220.7,357.1,222.1,357,223.6,357z"/>
	<path d="M208.6,357.4c1.3,0,2.7-0.1,4.1-0.1c-36.4-62.5-69.9-141.2-108.2-192.4l0,6.8C141.2,221.4,173.7,296.3,208.6,357.4z"/>
	<path d="M198,357.4c1.4,0,2.8,0,4,0c0,0,0,0,0,0C169.5,299,138.8,230,104.4,182.8l0,6.8C137.4,235.3,166.9,300.7,198,357.4z"/>
	<path d="M187.6,357.2c1.4,0,2.7,0.1,4,0.1c-28.8-53.6-56.5-113.5-87.1-156.6l0,6.9C133.6,249.1,160.2,305.6,187.6,357.2z"/>
	<path d="M177.3,356.9c1.3,0,2.6,0.1,3.9,0.1c-25.3-48.1-50-99.4-76.8-138.3l0,6.9C129.9,262.8,153.4,311,177.3,356.9z"/>
	<path d="M167.1,356.5c1.3,0.1,2.6,0.1,3.9,0.2c-21.8-42.1-43.4-85.5-66.6-119.8l0,6.9C126.2,276.3,146.6,316.7,167.1,356.5z"/>
	<path d="M156.9,356c1.3,0.1,2.6,0.1,3.9,0.2c-18.4-35.8-36.9-71.6-56.4-101.2l0,7C122.6,289.7,139.8,322.7,156.9,356z"/>
	<path d="M146.7,355.5c1.3,0.1,2.6,0.1,3.9,0.2c-15.1-29.2-30.3-57.8-46.2-82.4l0,7C119,303,132.9,328.9,146.7,355.5z"/>
	<path d="M136.4,355c1.3,0.1,2.6,0.1,4,0.2c-11.8-22.4-23.6-44.1-35.9-63.5l0,7C115.3,316.1,125.9,335.2,136.4,355z"/>
	<path d="M125.9,354.4c1.3,0.1,2.7,0.1,4.1,0.2c-8.4-15.6-16.8-30.6-25.5-44.5l0,7.1C111.7,329,118.8,341.5,125.9,354.4z"/>
	<path d="M115,353.8c0.1,0,0.3,0,0.4,0c1.2,0.1,2.4,0.1,3.8,0.2c-4.9-8.7-9.8-17.3-14.7-25.4l0,7.1C108,341.6,111.5,347.7,115,353.8
		z"/>
	<path d="M104.5,347.3l0,6c0.5,0,1.4,0.1,2.6,0.2c0.3,0,0.7,0,1,0.1C106.9,351.4,105.7,349.3,104.5,347.3z"/>
	<path d="M273.1,55.4c5.7,9.3,11.4,18.2,17.3,26.4c-0.3-3-0.7-5.9-1.2-8.5c-3.6-5.2-7.2-10.6-10.7-16.2L273.1,55.4z"/>
	<path d="M259.8,51.3c10.5,18.4,21.1,35.6,32.2,50.5c-0.1-2.5-0.3-5-0.5-7.4c-9.1-12.5-18-26.6-26.7-41.5L259.8,51.3z"/>
	<path d="M292.8,120.6c-0.1-2.3-0.2-4.7-0.3-7.1C278.5,95,265.1,72.8,252,49l-0.4-0.1c0,0.2,0,0.5,0,0.8c0,1.2-0.2,2.9-0.6,4.7
		C264.4,78.9,278.3,101.8,292.8,120.6z"/>
	<path d="M248.1,61c-0.3,0.5-0.7,1.1-1.1,1.6c-0.4,0.5-0.8,1-1.2,1.5c15.8,29.1,32,56,49.2,77c-0.7-2.3-1.2-5.1-1.7-8.8
		C277.7,112.5,262.7,87.7,248.1,61z"/>
	<path d="M239.3,70.9c19.4,36.1,39.2,69.6,60.7,93.2l0-6.6c-20.5-22.9-39.5-54.6-58.1-89C241,69.4,240.2,70.2,239.3,70.9z"/>
	<path d="M231.9,76.2c21.7,41,43.8,79.3,68,105l0-6.5c-23.2-24.9-44.4-61.3-65.2-100.4C233.8,75,232.9,75.7,231.9,76.2z"/>
	<path d="M223.9,80.1c24.2,46.3,48.7,90.4,76.1,118.2l0-6.5c-26.1-27-49.7-68.7-72.9-113C226,79.3,224.9,79.7,223.9,80.1z"/>
	<path d="M299.9,215.2l0-6.5c-29.4-29.1-55.5-77.1-81.3-126.9c-1.3,0.4-2.4,0.7-3.3,1C242.2,134.8,269.3,185.3,299.9,215.2z"/>
	<path d="M206.3,84.6c29.8,57.7,59.5,115.6,93.6,147.5l0-6.4c-32.8-31.1-61.5-86.1-90.1-141.6C208.6,84.3,207.4,84.5,206.3,84.6z"/>
	<path d="M196.3,84.5c33,63.7,65.5,130.3,103.6,164.2l0-6.4c-36.5-33.2-67.9-96.2-99.6-157.5C198.9,84.8,197.6,84.7,196.3,84.5z"/>
	<path d="M299.9,259.1c-40.8-35.3-75.1-108.3-110.4-175.8c-1.2-0.3-2.8-0.7-4.6-1.4c36.8,69.9,72.4,147.3,115,183.5L299.9,259.1z"/>
	<path d="M299.8,281.9l0-6.3c-45.9-37.8-83.6-123.7-123.3-197.5c-1.9-1.2-4.1-2.8-6.4-4.6C212.2,149.9,251.4,242.9,299.8,281.9z"/>
	<path d="M299.8,298.3l0-6.3c-56.3-43.9-100.1-161-150.1-242l-3.7,1.1C197.5,132.7,242,254.2,299.8,298.3z"/>
	<path d="M299.8,308.4C239.6,264,193.8,135.1,140,53l-3.8,1.2c55.3,82.3,101.9,215.9,163.7,260.4L299.8,308.4z"/>
	<path d="M299.8,330.8l0-6.2c-64.4-44.6-112.1-186.4-170-268.5l-4,1.2C185.4,139.1,233.8,286.1,299.8,330.8z"/>
	<path d="M299.8,346.9l0-6.1c-68.6-44.6-118.2-200.5-180.6-281.2c-0.8,1.2-1.4,2.5-2,4.2C180.4,144.5,230.3,302.9,299.8,346.9z"/>
	<path d="M457.6,354.2c2.2,0.3,4.4,0.7,6.7,1.2C528.2,304.8,576,160.3,635.1,82.3c-0.2-2-0.5-3.9-0.8-5.8
		C573.3,156.8,524.4,307.9,457.6,354.2z"/>
	<path d="M473.4,357.8c1.7,0.5,3.3,1,5.1,1.6c57.7-57.5,103-187.7,158-261.2c-0.1-2.1-0.3-4.2-0.4-6.2
		C579.5,167.1,533.3,302.5,473.4,357.8z"/>
	<path d="M486.2,361.9c1.5,0.5,3,1,4.6,1.4c52.6-61,95.4-178.8,146.5-248.4c-0.1-2.1-0.2-4.3-0.3-6.5
		C584.4,179.5,540.7,302,486.2,361.9z"/>
	<path d="M497.9,365.5c1.4,0.4,2.9,0.8,4.3,1.2c48-62.5,88.4-169.1,135.8-234.9c-0.2-1.8-0.3-3.7-0.4-5.9l0-0.5
		C588.9,192.7,547.6,303.4,497.9,365.5z"/>
	<path d="M509.1,368.5c1.4,0.3,2.8,0.7,4.2,1c44.4-63.7,83-162.1,127.7-223.9c-0.5-1.2-1.1-2.8-1.6-4.7
		C593.9,204.2,554.7,305.3,509.1,368.5z"/>
	<path d="M520,370.7c1.4,0.2,2.7,0.4,4.1,0.7c40.9-63.4,77.2-153,119-210.9l0-6.8C599.9,213,562.5,306.7,520,370.7z"/>
	<path d="M530.8,372.2c1.4,0.1,2.7,0.2,4.1,0.3c36.7-60.8,70.3-140.2,108.2-194.1l0-6.9C603.8,227.1,569.1,310.3,530.8,372.2z"/>
	<path d="M541.6,372.8c0.7,0,1.3,0,2,0c0.5,0,1.1,0,1.6,0c0.2,0,0.4,0,0.6,0c32.7-57.1,63.3-126.7,97.4-176.3l0-6.9
		C607.6,240.9,575.9,314.1,541.6,372.8z"/>
	<path d="M643.1,214.7l0-6.9c-31.6,46.8-60.3,110.4-90.6,164.8c1.4-0.1,2.8-0.2,4.2-0.4C585.5,319.7,613,259.6,643.1,214.7z"/>
	<path d="M643.1,232.9l0-7c-27.6,41.9-53.1,96.2-79.5,145.4c1.4-0.2,2.9-0.4,4.3-0.7C592.8,323.7,617,272.8,643.1,232.9z"/>
	<path d="M643.1,251.3l0-7c-23.6,36.6-45.7,82-68.2,124.9c1.5-0.3,2.9-0.7,4.4-1.1C600.3,327.7,621,285.7,643.1,251.3z"/>
	<path d="M643.1,269.7l0-7c-19.5,30.9-38,67.5-56.7,103.6c1.5-0.4,3-0.9,4.5-1.3C608,331.7,625.1,298.3,643.1,269.7z"/>
	<path d="M643,288.2l0-7.1c-15.4,24.8-30.1,53-44.8,81.5c1.5-0.5,3.1-1,4.6-1.5C616,335.6,629.3,310.5,643,288.2z"/>
	<path d="M643,306.7l0-7.1c-11.2,18.4-22.1,38.5-32.8,59.1c1.5-0.5,3.1-0.9,4.6-1.3C624,339.8,633.4,322.6,643,306.7z"/>
	<path d="M643,325.4l0-7.1c-7.1,11.9-14.1,24.4-21,37.3c1.5-0.3,2.9-0.6,4.4-0.8C631.9,344.7,637.4,334.8,643,325.4z"/>
	<path d="M643,344.1l0-7.2c-3.3,5.6-6.5,11.3-9.8,17.1c1.7-0.1,3-0.2,4.2-0.3C639.3,350.5,641.1,347.3,643,344.1z"/>
	<path d="M462.1,60c-1.4,1.8-2.5,4.8-3.5,8.5c2.3-3.2,4.6-6.6,6.9-10l-3.2,0.9C462.3,59.6,462.2,59.8,462.1,60z"/>
	<path d="M455.4,90.8c8.4-11,16.6-23.3,24.6-36.6l-5.3,1.6c-6,9.7-12.2,18.8-18.5,27.1C455.9,85.5,455.6,88.1,455.4,90.8z"/>
	<path d="M493.2,50.2l-5,1.5c-10.9,18.9-22.1,36.3-33.7,51.1c-0.1,2.4-0.3,4.8-0.4,7.2C467.7,93,480.6,72.5,493.2,50.2z"/>
	<path d="M453.4,128.4c18.1-21.7,35-49.9,51.5-80.4c-1.5,0.1-2.9,0.2-4,0.3l-0.1,0c-15.2,27.6-30.7,53.1-47.1,73.1
		c0,1.2-0.1,2.3-0.1,3.4l0,1.2C453.5,126.8,453.5,127.6,453.4,128.4z"/>
	<path d="M515.5,47.3c-1.4,0.1-2.7,0.2-4,0.2c-19.2,36-38.7,69.5-59.9,93.7c-1.3,4.9-2.9,7.3-4,8.5l0,2.6
		C471.8,126.5,493.9,88.2,515.5,47.3z"/>
	<path d="M447.6,162.8l0,6.5c28.2-28.7,53.4-74.6,78.2-122.5c-1.3,0.1-2.6,0.1-3.9,0.2C498.3,92.2,474.3,135.2,447.6,162.8z"/>
	<path d="M532.1,46.6c-26.9,52-53.9,102.8-84.5,133.2l0,6.5c32.1-31.3,60.3-85.2,88.4-139.7C534.7,46.5,533.4,46.6,532.1,46.6z"/>
	<path d="M447.6,196.6l0,6.4c36-33.6,67-96,98.3-156.6c-0.4,0-0.7,0-1.1,0c-0.9,0-1.8,0-2.7,0C512.1,104.8,482.1,163.9,447.6,196.6z
		"/>
	<path d="M447.6,213.4l0,6.4c39.9-35.6,73.6-107,108.3-173.3c-1.3,0-2.5,0-3.8-0.1C518.7,110.7,486,178.5,447.6,213.4z"/>
	<path d="M565.8,46.8c-1.2,0-2.5-0.1-3.8-0.1c-36.7,69.5-72.1,146.7-114.4,183.4l0,6.3C491.5,199.2,527.8,118.2,565.8,46.8z"/>
	<path d="M575.9,47.2c-1.2-0.1-2.5-0.1-3.9-0.2c-40.1,74.2-78.1,161.5-124.4,199.6l0,6.3C495.5,214.3,534.4,123.1,575.9,47.2z"/>
	<path d="M586.2,47.7c-1.2-0.1-2.5-0.1-4-0.2c-43.8,78.2-84.1,176.2-134.6,215.5l0,6.3C499.7,229.6,541,127.3,586.2,47.7z"/>
	<path d="M596.3,49l-2.5-0.8l0,0l-0.3-0.1c0,0-0.3,0-0.8,0c-47.6,81.3-90.3,191.1-145,231.3l0,6.2C503.8,245.2,547.3,131.2,596.3,49
		z"/>
	<path d="M605.9,51.9l-3.7-1.1c-51.2,83.3-96,204.3-154.5,244.9l0,6.2C507.7,261.2,553.2,135.7,605.9,51.9z"/>
	<path d="M615.8,54.9l-3.8-1.2c-55.1,84.4-101.8,217.4-164.3,258.1l0,6.1C511.8,277.3,559.2,139.4,615.8,54.9z"/>
	<path d="M626.2,58l-4-1.2C563,141.1,514.4,287.3,447.7,327.8l0,6.1C516,293.6,565.3,141.9,626.2,58z"/>
	<path d="M447.7,343.8l0,6.1c71.1-38.9,121.4-198.9,184.9-282.6c-0.5-1.8-1-3.4-1.5-4.8C568.1,145.9,518.1,304.1,447.7,343.8z"/>
	<path d="M454.8,85.9c0.3-2.7,0.6-5.4,1-7.9c-2-5-3.8-10-5.4-14.9l-3.9,1.2C448.9,71.4,451.7,78.6,454.8,85.9z"/>
	<path d="M456.8,61.2c0.5,1.6,1,3.2,1.5,4.7c0.7-2.4,1.6-4.4,2.6-5.9c0,0,0-0.1,0-0.1L456.8,61.2z"/>
	<path d="M399.2,150.9l1.5,6.8l2-0.4C401.6,155.2,400.4,153.1,399.2,150.9z"/>
	<path d="M395,132.1c4.5,8,8.9,16.1,13.4,24.1l3.5-0.7c-6.5-11.7-13-23.5-19.5-35.2L395,132.1z"/>
	<path d="M417.5,154.4l3.5-0.7c-12.3-22.3-24.8-44.6-35.9-66.3l2.9,13.1C397.4,118.4,407.5,136.4,417.5,154.4z"/>
	<path d="M426.6,152.6l3.5-0.7c-13.3-24-26.6-47.9-37.9-71l-3.5,1.1C400.2,105,413.4,128.8,426.6,152.6z"/>
	<path d="M435.7,150.9l3.5-0.7c-13.5-24.4-26.8-48.7-37.8-72.1l-3.5,1.1C409,102.4,422.3,126.6,435.7,150.9z"/>
	<path d="M407.1,76.4c10.8,23.5,24.1,48,37.7,72.7l2.4-0.5c0.2-0.3,0.5-0.6,0.7-0.9c-13.6-24.6-26.7-49.1-37.2-72.4L407.1,76.4z"/>
	<path d="M450.6,141.1c0.4-1.5,0.8-3.2,1.1-5.2C440,114.2,429,92.8,420.2,72.4l-3.6,1.1C426.1,95.2,438,118,450.6,141.1z"/>
	<path d="M452.6,125.7l0-1.1c0.1-1.9,0.1-4,0.2-6c-8.7-16.9-16.6-33.4-23-49.2l-3.7,1.1C433.5,88.3,442.6,106.8,452.6,125.7z"/>
	<path d="M453.3,106.8c0.1-2.5,0.3-5,0.4-7.6c-5.3-11.2-10-22.2-14-32.9l-3.8,1.2C440.9,80.2,446.8,93.4,453.3,106.8z"/>
	<path d="M114.9,68.5c0.5-2.3,0.8-4,1.3-5.5c-0.4-0.9-0.7-1.8-1.1-2.6l-3.7,1.1c1.1,2.6,2.2,5.2,3.4,7.8
		C114.8,69,114.9,68.8,114.9,68.5z"/>
	<path d="M113.1,80c-2.7-5.6-5.2-11.2-7.6-16.7l-3.6,1.1c3.3,7.3,6.8,14.8,10.6,22.3C112.6,84.4,112.9,82.2,113.1,80z"/>
	<path d="M111.6,97.8C106,87.1,100.8,76.5,96,66.2l-3.6,1.1c5.7,12.2,12,24.7,18.7,37.3C111.3,102.3,111.4,100,111.6,97.8z"/>
	<path d="M110.7,115.4C102.2,99.7,94,84.1,86.7,69L83.2,70c8.3,17,17.6,34.5,27.3,52.1C110.6,120,110.6,117.7,110.7,115.4z"/>
	<path d="M109.9,132.3c-11.3-20.4-22.5-40.8-32.3-60.6l-3.5,1c10.7,21.2,22.7,43.1,34.9,65C109.3,136.2,109.6,134.4,109.9,132.3z"/>
	<path d="M106.7,145.1c0,0,0-0.1,0.1-0.2c-13.1-23.6-26.4-47.4-38.2-70.4l-3.4,1c12.3,23.8,26.1,48.2,39.5,72.6
		C105.2,147.5,105.9,146.6,106.7,145.1z"/>
	<path d="M95.7,150.3l3.5-0.7C85.9,125.4,72.1,101,59.6,77.2l-3.4,1C68.7,102,82.5,126.3,95.7,150.3z"/>
	<path d="M90.1,151.5c-13-23.8-26.8-48-39.4-71.6l-3.4,1c12.6,23.6,26.3,47.6,39.2,71.3L90.1,151.5z"/>
	<path d="M77.4,154.1l3.5-0.7C68.2,129.9,54.7,106,42,82.5l-2.6,0.8l0.6,2.8C52.3,108.7,65.3,131.6,77.4,154.1z"/>
	<path d="M68.2,155.9l3.5-0.7c-8.8-16.5-18.2-33.3-27.5-50.1l2.6,11.6C54.1,129.9,61.3,143,68.2,155.9z"/>
	<path d="M58.9,157.8l3.6-0.7c-3.7-7.1-7.5-14.2-11.4-21.3l2.7,12.3C55.5,151.3,57.2,154.6,58.9,157.8z"/>
	<path d="M290.8,78.1c0.5,3.9,0.9,8.1,1.3,12.4c9.2,20.2,20.2,41.3,31.9,62.7l4.4,0.9C314.1,128,300.8,102.3,290.8,78.1z"/>
	<path d="M312.5,150.9l4.4,0.9c-8.4-15.3-16.5-30.5-23.9-45.4c0.1,2.9,0.3,5.8,0.4,8.6C299.4,126.8,305.9,138.8,312.5,150.9z"/>
	<path d="M295.2,137.7c2,3.6,3.9,7.2,5.9,10.9l4.4,0.9c-3.9-7.1-7.8-14.2-11.6-21.3C294.2,132,294.6,135.1,295.2,137.7z"/>
	<path d="M355.4,80.1c1.9,6.6,4.2,13.4,6.8,20.3l1.7-7.5c-1.3-3.8-2.5-7.6-3.5-11.4L355.4,80.1z"/>
	<path d="M358.3,117.7l1.4-6.3c-4.9-11.6-9.1-22.9-12.2-33.7l-4.9-1.5C346.5,89.4,351.9,103.3,358.3,117.7z"/>
	<path d="M354.9,133l1.3-5.7c-8.9-18.6-16.4-36.6-21.5-53.6l-4.9-1.5C335.7,91.4,344.5,111.9,354.9,133z"/>
	<path d="M351.8,147.2l1.2-5.3c-12.9-25.1-24-49.5-31.1-72l-4.9-1.5C324.8,93,337.4,119.7,351.8,147.2z"/>
	<path d="M304.3,64.5c9.4,29,25.3,60.8,43,93.4l2.1,0.4l0.6-2.7c-16.8-31.3-31.8-61.8-40.8-89.6L304.3,64.5z"/>
	<path d="M291.6,60.7c9.9,29.5,26.3,61.9,44.2,95l4.4,0.9c-17.8-32.9-34-65.1-43.7-94.4L291.6,60.7z"/>
	<path d="M695.6,78.9l-4.8-1.4c4.1,10.3,8.8,20.8,14,31.6l1.3-5.8C702.2,94.9,698.7,86.8,695.6,78.9z"/>
	<path d="M708.1,82.7l-4.8-1.5c1.5,4,3.2,8,4.9,12l1.5-6.6C709.2,85.3,708.7,84,708.1,82.7z"/>
	<path d="M639.4,134.1c1.1,8.9,3.3,12.8,4.7,14.4l3.7,0.7C645,144.1,642.2,139.1,639.4,134.1z"/>
	<path d="M638.6,121.3c5.3,9.7,10.7,19.4,16.1,29.2l4.3,0.8c-7-12.6-14-25.2-20.7-37.6C638.4,116.3,638.5,118.8,638.6,121.3z"/>
	<path d="M637.7,100.6c9,17.1,18.7,34.5,28.3,52l4.3,0.8c-11.5-20.7-23-41.4-33.2-61.5C637.3,94.7,637.5,97.7,637.7,100.6z"/>
	<path d="M632.5,59.8l-2.2-0.7c2.1,3.1,3.6,8.6,4.7,15.3c12.2,25.9,27.1,53,42.2,80.1l4.3,0.8C663.5,122.8,645.6,90.2,632.5,59.8z"
		/>
	<path d="M645,63.6l-4.8-1.4c12.8,30,30.4,62.2,48.3,94.6l4.3,0.8C675,125.4,657.6,93.4,645,63.6z"/>
	<path d="M657.5,67.4l-4.8-1.4c11.3,27,26.6,55.8,42.7,84.9l1.1-5C681.8,118.9,667.9,92.4,657.5,67.4z"/>
	<path d="M670,71.2l-4.8-1.4c8.9,21.7,20.6,44.6,33.1,67.9l1.1-5.2C688.3,111.5,678.1,90.8,670,71.2z"/>
	<path d="M682.6,75l-4.8-1.4c6.6,16.3,14.7,33.2,23.6,50.5l1.2-5.4C695.1,103.7,688.2,89,682.6,75z"/>
</g>
</svg>
