<?xml version="1.0" encoding="utf-8"?>
<!-- Generator: Adobe Illustrator 25.3.0, SVG Export Plug-In . SVG Version: 6.00 Build 0)  -->
<svg version="1.1" id="Layer_1" xmlns="http://www.w3.org/2000/svg" xmlns:xlink="http://www.w3.org/1999/xlink" x="0px" y="0px"
	 viewBox="0 0 750.2 400.1" style="enable-background:new 0 0 750.2 400.1;" xml:space="preserve">
<g>
	<path d="M412.3,265.7l-17.4-3.7c-0.7,5.9-1.2,11.2-1.5,15.9c0.5,0.1,1,0.2,1.5,0.4l14.6,3.1L412.3,265.7z"/>
	<path d="M615.8,282.4c6.1-1.3,12.5-2.7,19.1-4.4c-0.3-4.5-0.7-9.6-1.4-15.2l-20.3,4.3L615.8,282.4z"/>
	<path d="M133.9,266.2l-17.3-3.7c-0.7,5.7-1.2,10.9-1.4,15.5c5.5,1.4,10.8,2.7,16,3.8L133.9,266.2z"/>
	<path d="M337.4,282.3l9.5-2c3.1-0.7,6.3-1.5,9.5-2.3c-0.3-4.6-0.8-9.9-1.5-15.7l-20.4,4.3L337.4,282.3z"/>
</g>
</svg>
