<?xml version="1.0" encoding="utf-8"?>
<!-- Generator: Adobe Illustrator 25.3.0, SVG Export Plug-In . SVG Version: 6.00 Build 0)  -->
<svg version="1.1" id="Layer_1" xmlns="http://www.w3.org/2000/svg" xmlns:xlink="http://www.w3.org/1999/xlink" x="0px" y="0px"
	 viewBox="0 0 750.2 400.1" style="enable-background:new 0 0 750.2 400.1;" xml:space="preserve">
<g>
	<path d="M202.5,131.2l60-60c-0.6-0.5-1.3-1-1.9-1.4l-58.1,58.1l-58.2-58.2c-0.7,0.5-1.3,0.9-1.9,1.4l59.3,59.3L202.5,131.2z"/>
	<path d="M202.6,161.2l73.7-73.7c-0.4-0.7-0.8-1.4-1.3-2.1l-72.4,72.4L129.8,85c-0.4,0.7-0.9,1.4-1.3,2.1l73.2,73.2L202.6,161.2z"/>
	<path d="M202.7,191.1l82.3-82.3c-0.2-0.8-0.5-1.7-0.8-2.6l-81.6,81.6l-82.2-82.2c-0.3,0.9-0.5,1.7-0.8,2.6l82.2,82.2L202.7,191.1z"
		/>
	<path d="M202.8,224.1l88.9-88.9c-0.3-0.8-0.6-1.6-0.9-2.5l-88,88L114,131.9c-0.3,0.9-0.5,1.7-0.8,2.5l88.8,88.8L202.8,224.1z"/>
	<polygon points="203,254.1 300.2,156.8 300.2,153.5 203,250.8 104.7,152.5 104.7,155.8 202.1,253.3 	"/>
	<polygon points="203.1,284.1 300.2,186.9 300.2,183.6 203.1,280.7 104.7,182.3 104.7,185.7 202.2,283.2 	"/>
	<polygon points="203.2,314.1 300.2,217.1 300.2,213.7 203.2,310.7 104.7,212.2 104.7,215.6 202.4,313.2 	"/>
	<polygon points="203.3,343 300.2,246.2 300.2,242.8 203.3,339.7 104.7,241.1 104.7,244.5 202.5,342.2 	"/>
	<path d="M191.2,357.4L104.7,271l0,3.3l83,83C188.9,357.4,190.1,357.4,191.2,357.4z"/>
	<path d="M219.2,357.3l81-81l0-3.3l-84.4,84.4C216.8,357.3,218,357.3,219.2,357.3z"/>
	<path d="M160.2,356.3l-55.4-55.4l0,3.3l51.9,51.9C157.8,356.2,159,356.2,160.2,356.3z"/>
	<path d="M300.1,306.4l0-3.3L247,356.2c1.2-0.1,2.3-0.1,3.5-0.2L300.1,306.4z"/>
	<path d="M128.8,354.7l-24-24l0,3.3l20.5,20.5C126.4,354.6,127.6,354.7,128.8,354.7z"/>
	<path d="M300.1,336.6l0-3.3l-21.3,21.3c1.2-0.1,2.4-0.1,3.5-0.2L300.1,336.6z"/>
	<path d="M187.2,82.7c-1.5-0.5-3.3-1.1-5.2-1.9l19.5,19.5l0.8,0.8l20.5-20.5c-1.8,0.6-3.5,1.2-4.9,1.6l-15.6,15.6L187.2,82.7z"/>
	<path d="M202.5,145.9l67.5-67.5c-0.5-0.6-1-1.2-1.6-1.8l-65.9,65.9l-66.1-66.1c-0.5,0.6-1.1,1.2-1.6,1.8l66.8,66.8L202.5,145.9z"/>
	<path d="M202.6,175.9l78.5-78.5c-0.3-0.7-0.6-1.4-0.9-2.1c0-0.1-0.1-0.2-0.1-0.2l-77.5,77.5l-77.9-77.9c-0.1,0.2-0.2,0.4-0.3,0.6
		c-0.2,0.6-0.5,1.1-0.7,1.7l78.1,78.1L202.6,175.9z"/>
	<path d="M202.7,205.8l85.3-85.3c-0.2-0.9-0.4-1.8-0.6-2.7l-84.7,84.7l-85.4-85.4c-0.2,0.9-0.4,1.8-0.6,2.7l85.1,85.1L202.7,205.8z"
		/>
	<path d="M202.8,238.8l93.7-93.7c-0.4-0.6-0.8-1.3-1.3-2.1l-92.5,92.5l-93.2-93.2c-0.4,0.8-0.8,1.5-1.2,2.1L202,238L202.8,238.8z"/>
	<polygon points="203,268.8 300.2,171.5 300.2,168.2 203,265.4 104.7,167.2 104.7,170.5 202.1,267.9 	"/>
	<polygon points="203.1,298.8 300.2,201.6 300.2,198.3 203.1,295.4 104.7,197 104.7,200.4 202.2,297.9 	"/>
	<polygon points="203.2,330.7 300.2,233.8 300.2,230.4 203.2,327.4 104.7,228.9 104.7,232.2 202.4,329.9 	"/>
	<polygon points="203.3,356.7 300.1,259.9 300.1,256.5 203.3,353.4 104.7,254.8 104.7,258.1 202.5,355.9 	"/>
	<path d="M233.3,356.8l66.8-66.8l0-3.3l-70.3,70.3C231,356.9,232.2,356.8,233.3,356.8z"/>
	<path d="M177.1,357l-72.3-72.3l0,3.3l68.8,68.8C174.7,356.9,175.9,357,177.1,357z"/>
	<path d="M143,355.5c0.9,0,1.9,0.1,2.9,0.1l-41.1-41.1l0,3.3l37.6,37.6C142.5,355.5,142.7,355.5,143,355.5z"/>
	<path d="M300.1,320.1l0-3.3l-38.7,38.7c1.2-0.1,2.4-0.1,3.5-0.2L300.1,320.1z"/>
	<path d="M293.2,353.7c1.4-0.1,2.5-0.1,3.6-0.2l3.3-3.3l0-3.3L293.2,353.7z"/>
	<path d="M114.3,353.9l-9.5-9.5l0,3.3l6,6C111.8,353.8,113,353.9,114.3,353.9z"/>
	<path d="M202.4,115.9l50.4-50.4c-0.4-0.2-0.9-0.4-1.3-0.6l-1.2-0.3l-48,48l-48-48l-1.3,0.4c-0.4,0.2-0.8,0.3-1.2,0.5l49.6,49.6
		L202.4,115.9z"/>
	<polygon points="543.5,89.7 509,55.2 506.9,56.5 542.7,92.2 543.5,93.1 582.1,54.5 580.1,53.1 	"/>
	<path d="M543.7,119.7l-52.9-52.9c-0.7,0.5-1.3,0.9-2,1.4l54,54l0.8,0.8L600,66.7c-0.7-0.4-1.3-0.9-2-1.3L543.7,119.7z"/>
	<path d="M543.8,149.7l-68.2-68.2c-0.5,0.6-0.9,1.3-1.4,1.9l68.8,68.8l0.8,0.8l71.6-71.6c-0.5-0.6-1-1.3-1.5-1.9L543.8,149.7z"/>
	<path d="M543.9,182.7L464.2,103c-0.3,0.8-0.6,1.7-0.9,2.5l79.7,79.7l0.8,0.8l82.9-82.9c-0.3-0.8-0.6-1.6-0.9-2.4L543.9,182.7z"/>
	<path d="M544,212.6l-85.9-85.9c-0.1,0.4-0.2,0.8-0.3,1.3c-0.1,0.5-0.2,1-0.4,1.5l85.7,85.7l0.8,0.8l88.9-88.9
		c-0.2-0.9-0.4-1.8-0.6-2.8L544,212.6z"/>
	<path d="M544.1,242.6l-94.9-94.9c-0.6,0.8-1.1,1.5-1.4,1.9v0l95.5,95.5l0.8,0.8l97.9-97.9c-0.4-0.5-0.9-1.2-1.4-2L544.1,242.6z"/>
	<polygon points="544.3,272.6 447.8,176.1 447.8,179.5 543.4,275.1 544.3,275.9 643.3,176.9 643.3,173.5 	"/>
	<polygon points="544.3,301.6 447.8,205 447.8,208.4 543.5,304.1 544.3,304.9 643.3,206 643.3,202.6 	"/>
	<polygon points="544.5,331.6 447.8,234.9 447.8,238.2 543.6,334.1 544.5,334.9 643.3,236.1 643.3,232.8 	"/>
	<polygon points="544.6,361.5 447.8,264.8 447.8,268.1 543.8,364 544.6,364.9 643.2,266.2 643.2,262.9 	"/>
	<path d="M564.9,371.3c1.4-0.2,2.7-0.4,4-0.7l74.2-74.2l0-3.3L564.9,371.3z"/>
	<path d="M447.8,298l73,73c1.3,0.2,2.6,0.4,4,0.6l-77-77L447.8,298z"/>
	<path d="M483.4,361.1l-35.6-35.6l0,3.3l30.7,30.7C480.1,360,481.8,360.6,483.4,361.1z"/>
	<path d="M607.5,359.8c1.6-0.5,3.2-1,4.8-1.5l30.8-30.8l0-3.3L607.5,359.8z"/>
	<path d="M542.6,62.3l0.8,0.8l16.3-16.3c-1.1,0-2.2-0.1-3.3-0.1l-13.1,13.1l-13-13c-1.1,0-2.2,0.1-3.3,0.1L542.6,62.3z"/>
	<polygon points="500,60.9 498,62.2 542.7,106.9 543.5,107.8 590.8,60.5 588.8,59.1 543.5,104.4 	"/>
	<path d="M482.6,73.4c-0.6,0.5-1.1,1.1-1.7,1.7l61.9,61.9l0.8,0.8l64.5-64.5c-0.6-0.5-1.1-1.1-1.7-1.6l-62.8,62.8L482.6,73.4z"/>
	<path d="M469.8,90.4c-0.4,0.7-0.8,1.5-1.1,2.2l74.3,74.3l0.8,0.8l77.4-77.4c-0.4-0.7-0.8-1.4-1.2-2.1l-76.2,76.2L469.8,90.4z"/>
	<path d="M460.9,114.3c-0.2,0.9-0.4,1.8-0.7,2.7l82.9,82.9l0.8,0.8l86.3-86.3c-0.2-0.9-0.5-1.8-0.7-2.7l-85.6,85.6L460.9,114.3z"/>
	<path d="M454.7,138c-0.3,0.8-0.7,1.6-1.1,2.3l89.6,89.6l0.8,0.8l92.4-92.4c-0.3-0.8-0.6-1.6-1-2.4L544,227.3L454.7,138z"/>
	<polygon points="447.8,160.9 447.8,164.3 543.3,259.8 544.1,260.6 643.3,161.4 643.3,158.1 544.1,257.3 	"/>
	<polygon points="447.8,192.8 447.8,196.2 543.4,291.8 544.3,292.6 643.3,193.6 643.3,190.2 544.3,289.3 	"/>
	<polygon points="447.8,218.7 447.8,222.1 543.5,317.8 544.3,318.6 643.3,219.7 643.3,216.3 544.3,315.3 	"/>
	<polygon points="447.8,248.6 447.8,251.9 543.6,347.7 544.5,348.6 643.2,249.8 643.3,246.5 544.5,345.2 	"/>
	<path d="M550.3,372.8l92.9-92.9l0-3.3l-96.4,96.4C548,372.9,549.2,372.9,550.3,372.8z"/>
	<path d="M447.8,281.8l91.1,91.1c1.1,0,2.3,0.1,3.4,0.1l-94.5-94.5L447.8,281.8z"/>
	<path d="M507.8,368.3l-60-60l0,3.3l55.5,55.5C504.8,367.5,506.3,367.9,507.8,368.3z"/>
	<path d="M643.2,306.7l-60.8,60.8c1.6-0.4,3.1-0.8,4.6-1.3l56.2-56.2L643.2,306.7z"/>
	<path d="M464.1,355.5l-16.3-16.3l0,3.3l12.1,12.1C461.3,354.9,462.7,355.2,464.1,355.5z"/>
	<path d="M643.2,337.8L626,355c1.3-0.2,2.6-0.4,3.9-0.5l13.3-13.3L643.2,337.8z"/>
	<path d="M543.4,77.8L573,48.2l-1.4-1c-0.3,0-0.6,0-0.9,0l-27.3,27.3l-25.2-25.2l-2,1.3l26.4,26.4L543.4,77.8z"/>
</g>
</svg>
