<?xml version="1.0" encoding="utf-8"?>
<!-- Generator: Adobe Illustrator 25.3.0, SVG Export Plug-In . SVG Version: 6.00 Build 0)  -->
<svg version="1.1" id="Layer_1" xmlns="http://www.w3.org/2000/svg" xmlns:xlink="http://www.w3.org/1999/xlink" x="0px" y="0px"
	 viewBox="0 0 750.2 400.1" style="enable-background:new 0 0 750.2 400.1;" xml:space="preserve">
<g>
	<path d="M130.8,256.3c0,0.4,0.4,0.8,0.9,0.8h34.4c0.5,0,0.9-0.4,0.9-0.8v-0.4h36.5c0.4,0,0.7-0.3,0.7-0.6V255h36v0.3
		c0,0.3,0.3,0.6,0.7,0.6h34.6v0.4c0,0.4,0.4,0.8,0.9,0.8h23.6l0-5.8h-23.6c-0.5,0-0.9,0.4-0.9,0.8v0.4h-34.6c-0.4,0-0.7,0.3-0.7,0.6
		v0.5h-36v-0.5c0-0.3-0.3-0.6-0.7-0.6h-36.5v-0.4c0-0.4-0.4-0.8-0.9-0.8h-34.4c-0.5,0-0.9,0.4-0.9,0.8v0.4h-26.1l0,3.4h26.1V256.3z"
		/>
	<path d="M276.6,248.6h23.6l0-5.8h-23.6c-0.5,0-0.9,0.4-0.9,0.8v0.4h-34.6c-0.4,0-0.7,0.3-0.7,0.6v0.5h-36v-0.5
		c0-0.3-0.3-0.6-0.7-0.6h-36.5v-0.4c0-0.4-0.4-0.8-0.9-0.8h-34.4c-0.5,0-0.9,0.4-0.9,0.8v0.4h-26.1l0,3.4h26.1v0.4
		c0,0.4,0.4,0.8,0.9,0.8h34.4c0.5,0,0.9-0.4,0.9-0.8v-0.4h36.5c0.4,0,0.7-0.3,0.7-0.6v-0.3h36v0.3c0,0.3,0.3,0.6,0.7,0.6h34.6v0.4
		C275.7,248.2,276.1,248.6,276.6,248.6z"/>
	<path d="M276.6,240.1h23.6l0-5.8h-23.6c-0.5,0-0.9,0.4-0.9,0.8v0.4h-34.6c-0.4,0-0.7,0.3-0.7,0.6v0.5h-36v-0.5
		c0-0.3-0.3-0.6-0.7-0.6h-36.5v-0.4c0-0.4-0.4-0.8-0.9-0.8h-34.4c-0.5,0-0.9,0.4-0.9,0.8v0.4h-26.1l0,3.4h26.1v0.4
		c0,0.4,0.4,0.8,0.9,0.8h34.4c0.5,0,0.9-0.4,0.9-0.8v-0.4h36.5c0.4,0,0.7-0.3,0.7-0.6V238h36v0.3c0,0.3,0.3,0.6,0.7,0.6h34.6v0.4
		C275.7,239.7,276.1,240.1,276.6,240.1z"/>
	<path d="M166.2,225.8h-34.4c-0.5,0-0.9,0.4-0.9,0.8v0.4h-26.1l0,3.4h26.1v0.4c0,0.4,0.4,0.8,0.9,0.8h34.4c0.5,0,0.9-0.4,0.9-0.8
		v-0.4h36.5c0.4,0,0.7-0.3,0.7-0.6v-0.3h36v0.3c0,0.3,0.3,0.6,0.7,0.6h34.6v0.4c0,0.4,0.4,0.8,0.9,0.8h23.6l0-5.8h-23.6
		c-0.5,0-0.9,0.4-0.9,0.8v0.4h-34.6c-0.4,0-0.7,0.3-0.7,0.6v0.5h-36v-0.5c0-0.3-0.3-0.6-0.7-0.6h-36.5v-0.4
		C167.1,226.2,166.7,225.8,166.2,225.8z"/>
	<path d="M166.2,217.3h-34.4c-0.5,0-0.9,0.4-0.9,0.8v0.4h-26.1l0,3.4h26.1v0.4c0,0.4,0.4,0.8,0.9,0.8h34.4c0.5,0,0.9-0.4,0.9-0.8
		v-0.4h36.5c0.4,0,0.7-0.3,0.7-0.6V221h36v0.3c0,0.3,0.3,0.6,0.7,0.6h34.6v0.4c0,0.4,0.4,0.8,0.9,0.8h23.6l0-5.8h-23.6
		c-0.5,0-0.9,0.4-0.9,0.8v0.4h-34.6c-0.4,0-0.7,0.3-0.7,0.6v0.5h-36v-0.5c0-0.3-0.3-0.6-0.7-0.6h-36.5v-0.4
		C167.1,217.7,166.7,217.3,166.2,217.3z"/>
	<path d="M130.8,213.4v0.4c0,0.4,0.4,0.8,0.9,0.8h34.4c0.5,0,0.9-0.4,0.9-0.8v-0.4h36.5c0.4,0,0.7-0.3,0.7-0.6v-0.3h36v0.3
		c0,0.3,0.3,0.6,0.7,0.6h34.6v0.4c0,0.4,0.4,0.8,0.9,0.8h23.6l0-5.8h-23.6c-0.5,0-0.9,0.4-0.9,0.8v0.4h-34.6c-0.4,0-0.7,0.3-0.7,0.6
		v0.5h-36v-0.5c0-0.3-0.3-0.6-0.7-0.6h-36.5v-0.4c0-0.4-0.4-0.8-0.9-0.8h-34.4c-0.5,0-0.9,0.4-0.9,0.8v0.4h-26.1l0,3.4H130.8z"/>
	<path d="M277.2,295c-0.4,0-0.7,0.3-0.7,0.6v0.5h-36v-0.5c0-0.3-0.3-0.6-0.7-0.6h-36.5v-0.4c0-0.4-0.4-0.8-0.9-0.8h-34.4
		c-0.5,0-0.9,0.4-0.9,0.8v0.4h-34.4c-0.4,0-0.7,0.3-0.7,0.6v0.5h-27.1l0,1.4h27.1v0.3c0,0.3,0.3,0.6,0.7,0.6H167v0.4
		c0,0.4,0.4,0.8,0.9,0.8h34.4c0.5,0,0.9-0.4,0.9-0.8v-0.4h36.5c0.4,0,0.7-0.3,0.7-0.6v-0.3h36v0.3c0,0.3,0.3,0.6,0.7,0.6h22.9l0-3.4
		H277.2z"/>
	<path d="M277.2,289.9h22.9l0-3.4h-22.9c-0.4,0-0.7,0.3-0.7,0.6v0.5h-36v-0.5c0-0.3-0.3-0.6-0.7-0.6h-36.5v-0.4
		c0-0.4-0.4-0.8-0.9-0.8h-34.4c-0.5,0-0.9,0.4-0.9,0.8v0.4h-34.4c-0.4,0-0.7,0.3-0.7,0.6v0.5h-27.1l0,1.4h27.1v0.3
		c0,0.3,0.3,0.6,0.7,0.6H167v0.4c0,0.4,0.4,0.8,0.9,0.8h34.4c0.5,0,0.9-0.4,0.9-0.8v-0.4h36.5c0.4,0,0.7-0.3,0.7-0.6V289h36v0.3
		C276.5,289.6,276.8,289.9,277.2,289.9z"/>
	<path d="M277.2,281.4h22.9l0-3.4h-22.9c-0.4,0-0.7,0.3-0.7,0.6v0.5h-36v-0.5c0-0.3-0.3-0.6-0.7-0.6h-36.5v-0.4
		c0-0.4-0.4-0.8-0.9-0.8h-34.4c-0.5,0-0.9,0.4-0.9,0.8v0.4h-34.4c-0.4,0-0.7,0.3-0.7,0.6v0.5h-27.1l0,1.4h27.1v0.3
		c0,0.3,0.3,0.6,0.7,0.6H167v0.4c0,0.4,0.4,0.8,0.9,0.8h34.4c0.5,0,0.9-0.4,0.9-0.8v-0.4h36.5c0.4,0,0.7-0.3,0.7-0.6v-0.3h36v0.3
		C276.5,281.1,276.8,281.4,277.2,281.4z"/>
	<path d="M202.3,268.3h-34.4c-0.5,0-0.9,0.4-0.9,0.8v0.4h-34.4c-0.4,0-0.7,0.3-0.7,0.6v0.5h-27.1l0,1.4h27.1v0.3
		c0,0.3,0.3,0.6,0.7,0.6H167v0.4c0,0.4,0.4,0.8,0.9,0.8h34.4c0.5,0,0.9-0.4,0.9-0.8v-0.4h36.5c0.4,0,0.7-0.3,0.7-0.6v-0.3h36v0.3
		c0,0.3,0.3,0.6,0.7,0.6h22.9l0-3.4h-22.9c-0.4,0-0.7,0.3-0.7,0.6v0.5h-36v-0.5c0-0.3-0.3-0.6-0.7-0.6h-36.5v-0.4
		C203.2,268.7,202.8,268.3,202.3,268.3z"/>
	<path d="M276.5,261.7v0.5h-36v-0.5c0-0.3-0.3-0.6-0.7-0.6h-36.5v-0.4c0-0.4-0.4-0.8-0.9-0.8h-34.4c-0.5,0-0.9,0.4-0.9,0.8v0.4
		h-34.4c-0.4,0-0.7,0.3-0.7,0.6v0.5h-27.1l0,1.4h27.1v0.3c0,0.3,0.3,0.6,0.7,0.6H167v0.4c0,0.4,0.4,0.8,0.9,0.8h34.4
		c0.5,0,0.9-0.4,0.9-0.8v-0.4h36.5c0.4,0,0.7-0.3,0.7-0.6v-0.3h36v0.3c0,0.3,0.3,0.6,0.7,0.6h22.9l0-3.4h-22.9
		C276.8,261.1,276.5,261.3,276.5,261.7z"/>
	<path d="M132.8,339.8v-0.3h35.8v0.3c0,0.3,0.3,0.6,0.7,0.6h34.4v0.4c0,0.4,0.4,0.8,0.9,0.8h34.4c0.5,0,0.9-0.4,0.9-0.8v-0.4h36.5
		c0.4,0,0.7-0.3,0.7-0.6v-0.3h22.8l0-1.4h-22.8v-0.5c0-0.3-0.3-0.6-0.7-0.6H240v-0.4c0-0.4-0.4-0.8-0.9-0.8h-34.4
		c-0.5,0-0.9,0.4-0.9,0.8v0.4h-34.4c-0.4,0-0.7,0.3-0.7,0.6v0.5h-35.8v-0.5c0-0.3-0.3-0.6-0.7-0.6h-27.3l0,3.4H132
		C132.4,340.5,132.8,340.2,132.8,339.8z"/>
	<path d="M204.6,333.2h34.4c0.5,0,0.9-0.4,0.9-0.8V332h36.5c0.4,0,0.7-0.3,0.7-0.6v-0.3h22.8l0-1.4h-22.8v-0.5
		c0-0.3-0.3-0.6-0.7-0.6H240v-0.4c0-0.4-0.4-0.8-0.9-0.8h-34.4c-0.5,0-0.9,0.4-0.9,0.8v0.4h-34.4c-0.4,0-0.7,0.3-0.7,0.6v0.5h-35.8
		v-0.5c0-0.3-0.3-0.6-0.7-0.6h-27.3l0,3.4H132c0.4,0,0.7-0.3,0.7-0.6v-0.3h35.8v0.3c0,0.3,0.3,0.6,0.7,0.6h34.4v0.4
		C203.7,332.8,204.1,333.2,204.6,333.2z"/>
	<path d="M204.6,324.7h34.4c0.5,0,0.9-0.4,0.9-0.8v-0.4h36.5c0.4,0,0.7-0.3,0.7-0.6v-0.3h22.8l0-1.4h-22.8v-0.5
		c0-0.3-0.3-0.6-0.7-0.6H240v-0.4c0-0.4-0.4-0.8-0.9-0.8h-34.4c-0.5,0-0.9,0.4-0.9,0.8v0.4h-34.4c-0.4,0-0.7,0.3-0.7,0.6v0.5h-35.8
		v-0.5c0-0.3-0.3-0.6-0.7-0.6h-27.3l0,3.4H132c0.4,0,0.7-0.3,0.7-0.6v-0.3h35.8v0.3c0,0.3,0.3,0.6,0.7,0.6h34.4v0.4
		C203.7,324.3,204.1,324.7,204.6,324.7z"/>
	<path d="M132,311.6h-27.3l0,3.4H132c0.4,0,0.7-0.3,0.7-0.6v-0.3h35.8v0.3c0,0.3,0.3,0.6,0.7,0.6h34.4v0.4c0,0.4,0.4,0.8,0.9,0.8
		h34.4c0.5,0,0.9-0.4,0.9-0.8V315h36.5c0.4,0,0.7-0.3,0.7-0.6v-0.3h22.9l0-1.4h-22.9v-0.5c0-0.3-0.3-0.6-0.7-0.6H240v-0.4
		c0-0.4-0.4-0.8-0.9-0.8h-34.4c-0.5,0-0.9,0.4-0.9,0.8v0.4h-34.4c-0.4,0-0.7,0.3-0.7,0.6v0.5h-35.8v-0.5
		C132.8,311.9,132.4,311.6,132,311.6z"/>
	<path d="M132,303.1h-27.3l0,3.4H132c0.4,0,0.7-0.3,0.7-0.6v-0.3h35.8v0.3c0,0.3,0.3,0.6,0.7,0.6h34.4v0.4c0,0.4,0.4,0.8,0.9,0.8
		h34.4c0.5,0,0.9-0.4,0.9-0.8v-0.4h36.5c0.4,0,0.7-0.3,0.7-0.6v-0.3h22.9l0-1.4h-22.9v-0.5c0-0.3-0.3-0.6-0.7-0.6H240v-0.4
		c0-0.4-0.4-0.8-0.9-0.8h-34.4c-0.5,0-0.9,0.4-0.9,0.8v0.4h-34.4c-0.4,0-0.7,0.3-0.7,0.6v0.5h-35.8v-0.5
		C132.8,303.4,132.4,303.1,132,303.1z"/>
	<path d="M133.2,352.5h-28.4l0,0.9c0.5,0,1.4,0.1,2.6,0.2c2,0.1,4.8,0.3,8.4,0.5c7,0.4,16.7,0.9,27.2,1.5c9.2,0.5,19,0.9,28.3,1.3
		c0.1-0.1,0.1-0.2,0.1-0.3v-0.3h32.1v0.3c0,0.3,0.3,0.6,0.7,0.6h20.9c24.4-0.9,55.3-2.6,68.7-3.4h-18.9v-0.4c0-0.4-0.4-0.8-0.9-0.8
		h-34.4c-0.5,0-0.9,0.4-0.9,0.8v0.4h-34.4c-0.4,0-0.7,0.3-0.7,0.6v0.5h-32.1v-0.5c0-0.3-0.3-0.6-0.7-0.6h-36.5v-0.4
		C134.1,352.8,133.7,352.5,133.2,352.5z"/>
	<path d="M274.9,344.8c0-0.4-0.4-0.8-0.9-0.8h-34.4c-0.5,0-0.9,0.4-0.9,0.8v0.4h-34.9c-0.4,0-0.7,0.3-0.7,0.6v0.5h-31.6v-0.5
		c0-0.3-0.3-0.6-0.7-0.6h-36.5v-0.4c0-0.4-0.4-0.8-0.9-0.8h-28.4l0,5.8h28.4c0.5,0,0.9-0.4,0.9-0.8v-0.4h36.5c0.4,0,0.7-0.3,0.7-0.6
		v-0.3H203v0.3c0,0.3,0.3,0.6,0.7,0.6h34.9v0.4c0,0.4,0.4,0.8,0.9,0.8H274c0.5,0,0.9-0.4,0.9-0.8v-0.4h25.2l0-3.4h-25.2V344.8z"/>
	<path d="M167.1,78.9v-0.4h10.2c-1.5-0.9-3.2-2.1-5-3.4h-5.1v-0.4c0-0.4-0.4-0.8-0.9-0.8h-27.3c-1.9,1.8-3.7,3.7-5.3,5.8h32.6
		C166.7,79.7,167.1,79.4,167.1,78.9z"/>
	<path d="M241.1,78.5H270c-1-1.2-2-2.3-3.1-3.4h-25.8c-0.4,0-0.7,0.3-0.7,0.6v0.5h-7.9c-0.8,0.5-1.6,1-2.4,1.4h10.3v0.3
		C240.4,78.2,240.7,78.5,241.1,78.5z"/>
	<path d="M166.9,70.9c-2.1-1.8-4.2-3.6-6.1-5.4h-9c-3.6,1.5-6.9,3.5-9.8,5.8h24.1C166.5,71.2,166.8,71.1,166.9,70.9z"/>
	<path d="M260.9,70c-1.8-1.2-3.6-2.4-5.6-3.4h-11.1c-1.1,1.1-2.2,2.3-3.4,3.3c0.1,0,0.2,0.1,0.3,0.1H260.9z"/>
	<path d="M277.2,121h10.9c-0.2-1.1-0.5-2.2-0.8-3.4h-10.2c-0.4,0-0.7,0.3-0.7,0.6v0.5h-36v-0.5c0-0.3-0.3-0.6-0.7-0.6h-36.5v-0.4
		c0-0.4-0.4-0.8-0.9-0.8h-34.4c-0.5,0-0.9,0.4-0.9,0.8v0.4h-34.4c-0.4,0-0.7,0.3-0.7,0.6v0.5H117c-0.1,0.5-0.2,0.9-0.3,1.4h15.2v0.3
		c0,0.3,0.3,0.6,0.7,0.6H167v0.4c0,0.4,0.4,0.8,0.9,0.8h34.4c0.5,0,0.9-0.4,0.9-0.8V121h36.5c0.4,0,0.7-0.3,0.7-0.6v-0.3h36v0.3
		C276.5,120.8,276.8,121,277.2,121z"/>
	<path d="M277.2,112.6h8.9c-0.3-1.1-0.6-2.2-0.9-3.4h-8c-0.4,0-0.7,0.3-0.7,0.6v0.5h-36v-0.5c0-0.3-0.3-0.6-0.7-0.6h-36.5v-0.4
		c0-0.4-0.4-0.8-0.9-0.8h-34.4c-0.5,0-0.9,0.4-0.9,0.8v0.4h-34.4c-0.4,0-0.7,0.3-0.7,0.6v0.5h-12.7c-0.1,0.5-0.3,0.9-0.4,1.4h13.1
		v0.3c0,0.3,0.3,0.6,0.7,0.6H167v0.4c0,0.4,0.4,0.8,0.9,0.8h34.4c0.5,0,0.9-0.4,0.9-0.8v-0.4h36.5c0.4,0,0.7-0.3,0.7-0.6v-0.3h36
		v0.3C276.5,112.3,276.8,112.6,277.2,112.6z"/>
	<path d="M131.8,103.2v0.3c0,0.3,0.3,0.6,0.7,0.6H167v0.4c0,0.4,0.4,0.8,0.9,0.8h34.4c0.5,0,0.9-0.4,0.9-0.8v-0.4h36.5
		c0.4,0,0.7-0.3,0.7-0.6v-0.3h36v0.3c0,0.3,0.3,0.6,0.7,0.6h6.4c-0.4-1.1-0.8-2.3-1.2-3.4h-5.2c-0.4,0-0.7,0.3-0.7,0.6v0.5h-36v-0.5
		c0-0.3-0.3-0.6-0.7-0.6h-36.5v-0.4c0-0.4-0.4-0.8-0.9-0.8h-34.4c-0.5,0-0.9,0.4-0.9,0.8v0.4h-34.4c-0.4,0-0.7,0.3-0.7,0.6v0.5h-10
		c-0.2,0.5-0.3,0.9-0.5,1.4H131.8z"/>
	<path d="M131.8,94.7V95c0,0.3,0.3,0.6,0.7,0.6H167V96c0,0.4,0.4,0.8,0.9,0.8h34.4c0.5,0,0.9-0.4,0.9-0.8v-0.4h36.5
		c0.4,0,0.7-0.3,0.7-0.6v-0.3h36V95c0,0.3,0.3,0.6,0.7,0.6h3.1c0-0.1-0.1-0.2-0.1-0.3c-0.4-1-0.9-2-1.4-3h-1.6
		c-0.4,0-0.7,0.3-0.7,0.6v0.5h-36v-0.5c0-0.3-0.3-0.6-0.7-0.6h-36.5v-0.4c0-0.4-0.4-0.8-0.9-0.8h-34.4c-0.5,0-0.9,0.4-0.9,0.8v0.4
		h-34.4c-0.4,0-0.7,0.3-0.7,0.6v0.5h-6.6c-0.2,0.5-0.4,0.9-0.6,1.4H131.8z"/>
	<path d="M131.8,86.2v0.3c0,0.3,0.3,0.6,0.7,0.6H167v0.4c0,0.4,0.4,0.8,0.9,0.8h34.4c0.5,0,0.9-0.4,0.9-0.8v-0.4h36.5
		c0.4,0,0.7-0.3,0.7-0.6v-0.3h35c-0.3-0.5-0.6-0.9-0.9-1.4h-34.2v-0.5c0-0.3-0.3-0.6-0.7-0.6h-27.4c-3.5,0.8-7.1,1.3-10.7,1.3
		c-0.4,0-0.7,0-1.1,0c-2.9-0.1-5.7-0.5-8.4-1.1l0,0.1l-0.5-0.1c0,0-2.2-0.4-5.2-1.4h-18.6c-0.5,0-0.9,0.4-0.9,0.8v0.4h-34.4
		c-0.4,0-0.7,0.3-0.7,0.6v0.5h-1.9c-0.3,0.5-0.6,0.9-0.9,1.4H131.8z"/>
	<path d="M279.3,160.9v-0.5c0-0.3-0.3-0.6-0.7-0.6h-36.5v-0.4c0-0.4-0.4-0.8-0.9-0.8h-34.4c-0.5,0-0.9,0.4-0.9,0.8v0.4h-34.4
		c-0.4,0-0.7,0.3-0.7,0.6v0.5h-35.8v-0.5c0-0.3-0.3-0.6-0.7-0.6h-29.5l0,3.4h29.5c0.4,0,0.7-0.3,0.7-0.6v-0.3h35.8v0.3
		c0,0.3,0.3,0.6,0.7,0.6h34.4v0.4c0,0.4,0.4,0.8,0.9,0.8h34.4c0.5,0,0.9-0.4,0.9-0.8v-0.4h36.5c0.4,0,0.7-0.3,0.7-0.6v-0.3h20.9
		l0-1.4H279.3z"/>
	<path d="M279.3,152.4v-0.5c0-0.3-0.3-0.6-0.7-0.6h-36.5v-0.4c0-0.4-0.4-0.8-0.9-0.8h-34.4c-0.5,0-0.9,0.4-0.9,0.8v0.4h-34.4
		c-0.4,0-0.7,0.3-0.7,0.6v0.5h-35.8v-0.5c0-0.3-0.3-0.6-0.7-0.6h-29.5l0,3.4h29.5c0.4,0,0.7-0.3,0.7-0.6v-0.3h35.8v0.3
		c0,0.3,0.3,0.6,0.7,0.6h34.4v0.4c0,0.4,0.4,0.8,0.9,0.8h34.4c0.5,0,0.9-0.4,0.9-0.8v-0.4h36.5c0.4,0,0.7-0.3,0.7-0.6v-0.3h20.9
		l0-1.4H279.3z"/>
	<path d="M279.3,143.9v-0.5c0-0.3-0.3-0.6-0.7-0.6h-36.5v-0.4c0-0.4-0.4-0.8-0.9-0.8h-34.4c-0.5,0-0.9,0.4-0.9,0.8v0.4h-34.4
		c-0.4,0-0.7,0.3-0.7,0.6v0.5h-35.8v-0.5c0-0.3-0.3-0.6-0.7-0.6h-24.8c-0.7,1.3-1.4,2.4-2.1,3.4h26.9c0.4,0,0.7-0.3,0.7-0.6v-0.3
		h35.8v0.3c0,0.3,0.3,0.6,0.7,0.6h34.4v0.4c0,0.4,0.4,0.8,0.9,0.8h34.4c0.5,0,0.9-0.4,0.9-0.8v-0.4h36.5c0.4,0,0.7-0.3,0.7-0.6v-0.3
		h17.3c-0.3-0.4-0.6-0.9-0.9-1.4H279.3z"/>
	<path d="M279.3,135.4v-0.5c0-0.3-0.3-0.6-0.7-0.6h-36.5v-0.4c0-0.4-0.4-0.8-0.9-0.8h-34.4c-0.5,0-0.9,0.4-0.9,0.8v0.4h-34.4
		c-0.4,0-0.7,0.3-0.7,0.6v0.5h-35.8v-0.5c0-0.3-0.3-0.6-0.7-0.6h-20.9c-0.4,1.2-0.9,2.3-1.3,3.4h22.3c0.4,0,0.7-0.3,0.7-0.6v-0.3
		h35.8v0.3c0,0.3,0.3,0.6,0.7,0.6h34.4v0.4c0,0.4,0.4,0.8,0.9,0.8h34.4c0.5,0,0.9-0.4,0.9-0.8v-0.4h36.5c0.4,0,0.7-0.3,0.7-0.6v-0.3
		h13c-0.2-0.4-0.4-0.9-0.5-1.4H279.3z"/>
	<path d="M279.3,126.4c0-0.3-0.3-0.6-0.7-0.6h-36.5v-0.4c0-0.4-0.4-0.8-0.9-0.8h-34.4c-0.5,0-0.9,0.4-0.9,0.8v0.4h-34.4
		c-0.4,0-0.7,0.3-0.7,0.6v0.5h-35.8v-0.5c0-0.3-0.3-0.6-0.7-0.6h-18.7c-0.1,0.7-0.3,1.3-0.4,1.9c-0.1,0.5-0.2,1-0.4,1.5h19.4
		c0.4,0,0.7-0.3,0.7-0.6v-0.3h35.8v0.3c0,0.3,0.3,0.6,0.7,0.6h34.4v0.4c0,0.4,0.4,0.8,0.9,0.8h34.4c0.5,0,0.9-0.4,0.9-0.8v-0.4h36.5
		c0.4,0,0.7-0.3,0.7-0.6v-0.3h10.3c0-0.2-0.1-0.4-0.2-0.6c-0.1-0.2-0.1-0.5-0.2-0.8h-10V126.4z"/>
	<path d="M239.5,206.4H274c0.5,0,0.9-0.4,0.9-0.8v-0.4h25.3l0-3.4h-25.3v-0.4c0-0.4-0.4-0.8-0.9-0.8h-34.4c-0.5,0-0.9,0.4-0.9,0.8
		v0.4h-34.4c-0.4,0-0.7,0.3-0.7,0.6v0.5h-32.1v-0.5c0-0.3-0.3-0.6-0.7-0.6h-36.5v-0.4c0-0.4-0.4-0.8-0.9-0.8h-28.5l0,5.8h28.5
		c0.5,0,0.9-0.4,0.9-0.8v-0.4h36.5c0.4,0,0.7-0.3,0.7-0.6v-0.3h32.1v0.3c0,0.3,0.3,0.6,0.7,0.6h34.4v0.4
		C238.6,206,239,206.4,239.5,206.4z"/>
	<path d="M239.5,197.9H274c0.5,0,0.9-0.4,0.9-0.8v-0.4h25.3l0-3.4h-25.3v-0.4c0-0.4-0.4-0.8-0.9-0.8h-34.4c-0.5,0-0.9,0.4-0.9,0.8
		v0.4h-34.4c-0.4,0-0.7,0.3-0.7,0.6v0.5h-32.1v-0.5c0-0.3-0.3-0.6-0.7-0.6h-36.5v-0.4c0-0.4-0.4-0.8-0.9-0.8h-28.5l0,5.8h28.5
		c0.5,0,0.9-0.4,0.9-0.8v-0.4h36.5c0.4,0,0.7-0.3,0.7-0.6v-0.3h32.1v0.3c0,0.3,0.3,0.6,0.7,0.6h34.4v0.4
		C238.6,197.6,239,197.9,239.5,197.9z"/>
	<path d="M133.2,183.6h-28.5l0,5.8h28.5c0.5,0,0.9-0.4,0.9-0.8v-0.4h36.5c0.4,0,0.7-0.3,0.7-0.6v-0.3h32.1v0.3
		c0,0.3,0.3,0.6,0.7,0.6h34.4v0.4c0,0.4,0.4,0.8,0.9,0.8H274c0.5,0,0.9-0.4,0.9-0.8v-0.4h25.3l0-3.4h-25.3v-0.4
		c0-0.4-0.4-0.8-0.9-0.8h-34.4c-0.5,0-0.9,0.4-0.9,0.8v0.4h-34.4c-0.4,0-0.7,0.3-0.7,0.6v0.5h-32.1v-0.5c0-0.3-0.3-0.6-0.7-0.6
		h-36.5v-0.4C134.1,184,133.7,183.6,133.2,183.6z"/>
	<path d="M133.2,175.1h-28.5l0,5.8h28.5c0.5,0,0.9-0.4,0.9-0.8v-0.4h36.5c0.4,0,0.7-0.3,0.7-0.6v-0.3h32.1v0.3
		c0,0.3,0.3,0.6,0.7,0.6h34.4v0.4c0,0.4,0.4,0.8,0.9,0.8H274c0.5,0,0.9-0.4,0.9-0.8v-0.4h25.3l0-3.4h-25.3v-0.4
		c0-0.4-0.4-0.8-0.9-0.8h-34.4c-0.5,0-0.9,0.4-0.9,0.8v0.4h-34.4c-0.4,0-0.7,0.3-0.7,0.6v0.5h-32.1V177c0-0.3-0.3-0.6-0.7-0.6h-36.5
		v-0.4C134.1,175.5,133.7,175.1,133.2,175.1z"/>
	<path d="M133.2,166.7h-28.5l0,5.8h28.5c0.5,0,0.9-0.4,0.9-0.8v-0.4h36.5c0.4,0,0.7-0.3,0.7-0.6v-0.3H203v0.3c0,0.3,0.3,0.6,0.7,0.6
		h34.9v0.4c0,0.4,0.4,0.8,0.9,0.8H274c0.5,0,0.9-0.4,0.9-0.8v-0.4h25.4l0-3.4h-25.4v-0.4c0-0.4-0.4-0.8-0.9-0.8h-34.4
		c-0.5,0-0.9,0.4-0.9,0.8v0.4h-34.9c-0.4,0-0.7,0.3-0.7,0.6v0.5h-31.6v-0.5c0-0.3-0.3-0.6-0.7-0.6h-36.5v-0.4
		C134.1,167,133.7,166.7,133.2,166.7z"/>
	<path d="M582.7,257.1h34.4c0.5,0,0.9-0.4,0.9-0.8v-0.4h25.1l0-3.4h-25.1v-0.4c0-0.4-0.4-0.8-0.9-0.8h-34.4c-0.5,0-0.9,0.4-0.9,0.8
		v0.4h-36.5c-0.4,0-0.7,0.3-0.7,0.6v0.5h-36v-0.5c0-0.3-0.3-0.6-0.7-0.6h-34.6v-0.4c0-0.4-0.4-0.8-0.9-0.8h-24.6l0,5.8h24.6
		c0.5,0,0.9-0.4,0.9-0.8v-0.4h34.6c0.4,0,0.7-0.3,0.7-0.6V255h36v0.3c0,0.3,0.3,0.6,0.7,0.6h36.5v0.4
		C581.8,256.7,582.2,257.1,582.7,257.1z"/>
	<path d="M582.7,248.6h34.4c0.5,0,0.9-0.4,0.9-0.8v-0.4h25.1l0-3.4h-25.1v-0.4c0-0.4-0.4-0.8-0.9-0.8h-34.4c-0.5,0-0.9,0.4-0.9,0.8
		v0.4h-36.5c-0.4,0-0.7,0.3-0.7,0.6v0.5h-36v-0.5c0-0.3-0.3-0.6-0.7-0.6h-34.6v-0.4c0-0.4-0.4-0.8-0.9-0.8h-24.6l0,5.8h24.6
		c0.5,0,0.9-0.4,0.9-0.8v-0.4h34.6c0.4,0,0.7-0.3,0.7-0.6v-0.3h36v0.3c0,0.3,0.3,0.6,0.7,0.6h36.5v0.4
		C581.8,248.2,582.2,248.6,582.7,248.6z"/>
	<path d="M472.4,240.1c0.5,0,0.9-0.4,0.9-0.8v-0.4h34.6c0.4,0,0.7-0.3,0.7-0.6V238h36v0.3c0,0.3,0.3,0.6,0.7,0.6h36.5v0.4
		c0,0.4,0.4,0.8,0.9,0.8h34.4c0.5,0,0.9-0.4,0.9-0.8v-0.4h25.1l0-3.4h-25.1v-0.4c0-0.4-0.4-0.8-0.9-0.8h-34.4
		c-0.5,0-0.9,0.4-0.9,0.8v0.4h-36.5c-0.4,0-0.7,0.3-0.7,0.6v0.5h-36v-0.5c0-0.3-0.3-0.6-0.7-0.6h-34.6v-0.4c0-0.4-0.4-0.8-0.9-0.8
		h-24.6l0,5.8H472.4z"/>
	<path d="M472.4,231.6c0.5,0,0.9-0.4,0.9-0.8v-0.4h34.6c0.4,0,0.7-0.3,0.7-0.6v-0.3h36v0.3c0,0.3,0.3,0.6,0.7,0.6h36.5v0.4
		c0,0.4,0.4,0.8,0.9,0.8h34.4c0.5,0,0.9-0.4,0.9-0.8v-0.4h25.1l0-3.4h-25.2v-0.4c0-0.4-0.4-0.8-0.9-0.8h-34.4
		c-0.5,0-0.9,0.4-0.9,0.8v0.4h-36.5c-0.4,0-0.7,0.3-0.7,0.6v0.5h-36v-0.5c0-0.3-0.3-0.6-0.7-0.6h-34.6v-0.4c0-0.4-0.4-0.8-0.9-0.8
		h-24.6l0,5.8H472.4z"/>
	<path d="M472.4,217.3h-24.6l0,5.8h24.6c0.5,0,0.9-0.4,0.9-0.8v-0.4h34.6c0.4,0,0.7-0.3,0.7-0.6V221h36v0.3c0,0.3,0.3,0.6,0.7,0.6
		h36.5v0.4c0,0.4,0.4,0.8,0.9,0.8h34.4c0.5,0,0.9-0.4,0.9-0.8v-0.4h25.2l0-3.4h-25.2v-0.4c0-0.4-0.4-0.8-0.9-0.8h-34.4
		c-0.5,0-0.9,0.4-0.9,0.8v0.4h-36.5c-0.4,0-0.7,0.3-0.7,0.6v0.5h-36v-0.5c0-0.3-0.3-0.6-0.7-0.6h-34.6v-0.4
		C473.3,217.7,472.9,217.3,472.4,217.3z"/>
	<path d="M472.4,214.6c0.5,0,0.9-0.4,0.9-0.8v-0.4h34.6c0.4,0,0.7-0.3,0.7-0.6v-0.3h36v0.3c0,0.3,0.3,0.6,0.7,0.6h36.5v0.4
		c0,0.4,0.4,0.8,0.9,0.8h34.4c0.5,0,0.9-0.4,0.9-0.8v-0.4h25.2l0-3.4h-25.2v-0.4c0-0.4-0.4-0.8-0.9-0.8h-34.4
		c-0.5,0-0.9,0.4-0.9,0.8v0.4h-36.5c-0.4,0-0.7,0.3-0.7,0.6v0.5h-36v-0.5c0-0.3-0.3-0.6-0.7-0.6h-34.6v-0.4c0-0.4-0.4-0.8-0.9-0.8
		h-24.6l0,5.8H472.4z"/>
	<path d="M472.5,297.8v-0.3h36v0.3c0,0.3,0.3,0.6,0.7,0.6h36.5v0.4c0,0.4,0.4,0.8,0.9,0.8h34.4c0.5,0,0.9-0.4,0.9-0.8v-0.4h34.4
		c0.4,0,0.7-0.3,0.7-0.6v-0.3h26.1l0-1.4h-26.1v-0.5c0-0.3-0.3-0.6-0.7-0.6H582v-0.4c0-0.4-0.4-0.8-0.9-0.8h-34.4
		c-0.5,0-0.9,0.4-0.9,0.8v0.4h-36.5c-0.4,0-0.7,0.3-0.7,0.6v0.5h-36v-0.5c0-0.3-0.3-0.6-0.7-0.6h-23.9l0,3.4h23.9
		C472.2,298.4,472.5,298.1,472.5,297.8z"/>
	<path d="M546.6,291.1h34.4c0.5,0,0.9-0.4,0.9-0.8v-0.4h34.4c0.4,0,0.7-0.3,0.7-0.6V289h26.1l0-1.4h-26.1v-0.5
		c0-0.3-0.3-0.6-0.7-0.6H582v-0.4c0-0.4-0.4-0.8-0.9-0.8h-34.4c-0.5,0-0.9,0.4-0.9,0.8v0.4h-36.5c-0.4,0-0.7,0.3-0.7,0.6v0.5h-36
		v-0.5c0-0.3-0.3-0.6-0.7-0.6h-23.9l0,3.4h23.9c0.4,0,0.7-0.3,0.7-0.6V289h36v0.3c0,0.3,0.3,0.6,0.7,0.6h36.5v0.4
		C545.7,290.7,546.1,291.1,546.6,291.1z"/>
	<path d="M546.6,282.6h34.4c0.5,0,0.9-0.4,0.9-0.8v-0.4h34.4c0.4,0,0.7-0.3,0.7-0.6v-0.3h26.1l0-1.4h-26.1v-0.5
		c0-0.3-0.3-0.6-0.7-0.6H582v-0.4c0-0.4-0.4-0.8-0.9-0.8h-34.4c-0.5,0-0.9,0.4-0.9,0.8v0.4h-36.5c-0.4,0-0.7,0.3-0.7,0.6v0.5h-36
		v-0.5c0-0.3-0.3-0.6-0.7-0.6h-23.9l0,3.4h23.9c0.4,0,0.7-0.3,0.7-0.6v-0.3h36v0.3c0,0.3,0.3,0.6,0.7,0.6h36.5v0.4
		C545.7,282.3,546.1,282.6,546.6,282.6z"/>
	<path d="M617.1,270.7v-0.5c0-0.3-0.3-0.6-0.7-0.6H582v-0.4c0-0.4-0.4-0.8-0.9-0.8h-34.4c-0.5,0-0.9,0.4-0.9,0.8v0.4h-36.5
		c-0.4,0-0.7,0.3-0.7,0.6v0.5h-36v-0.5c0-0.3-0.3-0.6-0.7-0.6h-23.9l0,3.4h23.9c0.4,0,0.7-0.3,0.7-0.6v-0.3h36v0.3
		c0,0.3,0.3,0.6,0.7,0.6h36.5v0.4c0,0.4,0.4,0.8,0.9,0.8h34.4c0.5,0,0.9-0.4,0.9-0.8v-0.4h34.4c0.4,0,0.7-0.3,0.7-0.6v-0.3h26.1
		l0-1.4H617.1z"/>
	<path d="M471.8,264.4c0.4,0,0.7-0.3,0.7-0.6v-0.3h36v0.3c0,0.3,0.3,0.6,0.7,0.6h36.5v0.4c0,0.4,0.4,0.8,0.9,0.8h34.4
		c0.5,0,0.9-0.4,0.9-0.8v-0.4h34.4c0.4,0,0.7-0.3,0.7-0.6v-0.3h26.1l0-1.4h-26.1v-0.5c0-0.3-0.3-0.6-0.7-0.6H582v-0.4
		c0-0.4-0.4-0.8-0.9-0.8h-34.4c-0.5,0-0.9,0.4-0.9,0.8v0.4h-36.5c-0.4,0-0.7,0.3-0.7,0.6v0.5h-36v-0.5c0-0.3-0.3-0.6-0.7-0.6h-23.9
		l0,3.4H471.8z"/>
	<path d="M616.9,337.1c-0.4,0-0.7,0.3-0.7,0.6v0.5h-35.8v-0.5c0-0.3-0.3-0.6-0.7-0.6h-34.4v-0.4c0-0.4-0.4-0.8-0.9-0.8h-34.4
		c-0.5,0-0.9,0.4-0.9,0.8v0.4h-36.5c-0.4,0-0.7,0.3-0.7,0.6v0.5h-23.9l0,1.4h23.9v0.3c0,0.3,0.3,0.6,0.7,0.6H509v0.4
		c0,0.4,0.4,0.8,0.9,0.8h34.4c0.5,0,0.9-0.4,0.9-0.8v-0.4h34.4c0.4,0,0.7-0.3,0.7-0.6v-0.3h35.8v0.3c0,0.3,0.3,0.6,0.7,0.6h26.3
		l0-3.4H616.9z"/>
	<path d="M616.9,332h26.3l0-3.4h-26.3c-0.4,0-0.7,0.3-0.7,0.6v0.5h-35.8v-0.5c0-0.3-0.3-0.6-0.7-0.6h-34.4v-0.4
		c0-0.4-0.4-0.8-0.9-0.8h-34.4c-0.5,0-0.9,0.4-0.9,0.8v0.4h-36.5c-0.4,0-0.7,0.3-0.7,0.6v0.5h-23.9l0,1.4h23.9v0.3
		c0,0.3,0.3,0.6,0.7,0.6H509v0.4c0,0.4,0.4,0.8,0.9,0.8h34.4c0.5,0,0.9-0.4,0.9-0.8V332h34.4c0.4,0,0.7-0.3,0.7-0.6v-0.3h35.8v0.3
		C616.2,331.7,616.5,332,616.9,332z"/>
	<path d="M471.7,322.6v0.3c0,0.3,0.3,0.6,0.7,0.6H509v0.4c0,0.4,0.4,0.8,0.9,0.8h34.4c0.5,0,0.9-0.4,0.9-0.8v-0.4h34.4
		c0.4,0,0.7-0.3,0.7-0.6v-0.3h35.8v0.3c0,0.3,0.3,0.6,0.7,0.6h26.3l0-3.4h-26.3c-0.4,0-0.7,0.3-0.7,0.6v0.5h-35.8v-0.5
		c0-0.3-0.3-0.6-0.7-0.6h-34.4v-0.4c0-0.4-0.4-0.8-0.9-0.8h-34.4c-0.5,0-0.9,0.4-0.9,0.8v0.4h-36.5c-0.4,0-0.7,0.3-0.7,0.6v0.5
		h-23.9l0,1.4H471.7z"/>
	<path d="M544.3,310.4h-34.4c-0.5,0-0.9,0.4-0.9,0.8v0.4h-36.5c-0.4,0-0.7,0.3-0.7,0.6v0.5h-23.9l0,1.4h23.9v0.3
		c0,0.3,0.3,0.6,0.7,0.6H509v0.4c0,0.4,0.4,0.8,0.9,0.8h34.4c0.5,0,0.9-0.4,0.9-0.8V315h34.4c0.4,0,0.7-0.3,0.7-0.6v-0.3h35.8v0.3
		c0,0.3,0.3,0.6,0.7,0.6h26.3l0-3.4h-26.3c-0.4,0-0.7,0.3-0.7,0.6v0.5h-35.8v-0.5c0-0.3-0.3-0.6-0.7-0.6h-34.4v-0.4
		C545.3,310.8,544.9,310.4,544.3,310.4z"/>
	<path d="M616.2,303.7v0.5h-35.8v-0.5c0-0.3-0.3-0.6-0.7-0.6h-34.4v-0.4c0-0.4-0.4-0.8-0.9-0.8h-34.4c-0.5,0-0.9,0.4-0.9,0.8v0.4
		h-36.5c-0.4,0-0.7,0.3-0.7,0.6v0.5h-23.9l0,1.4h23.9v0.3c0,0.3,0.3,0.6,0.7,0.6H509v0.4c0,0.4,0.4,0.8,0.9,0.8h34.4
		c0.5,0,0.9-0.4,0.9-0.8v-0.4h34.4c0.4,0,0.7-0.3,0.7-0.6v-0.3h35.8v0.3c0,0.3,0.3,0.6,0.7,0.6h26.3l0-3.4h-26.3
		C616.5,303.1,616.2,303.4,616.2,303.7z"/>
	<path d="M545.4,373c5.6-0.1,11-0.5,16.1-1.2h-16v-0.5c0-0.3-0.3-0.6-0.7-0.6h-25.9c7.8,1.4,16.1,2.3,24.9,2.3
		C544.3,373,544.8,373,545.4,373z"/>
	<path d="M509.4,361h-26.4c3,1,6.2,2,9.4,3c3.1,1,6.2,1.9,9.5,2.8h7.5c0.5,0,0.9-0.4,0.9-0.8v-0.4h34.4c0.4,0,0.7-0.3,0.7-0.6v-0.3
		h32.1v0.3c0,0.3,0.3,0.6,0.7,0.6h11c1.8-0.5,3.6-1.1,5.4-1.7c1.8-0.6,3.7-1.2,5.4-1.7h-21.8c-0.4,0-0.7,0.3-0.7,0.6v0.5h-32.1v-0.5
		c0-0.3-0.3-0.6-0.7-0.6h-34.4v-0.4C510.4,361.3,510,361,509.4,361z"/>
	<path d="M509.4,352.5H475c-0.5,0-0.9,0.4-0.9,0.8v0.4h-24.3c1,0.1,2.5,0.2,4.5,0.3c5,0.3,10.3,1.4,16.1,3.1h3.7v0.4
		c0,0.4,0.4,0.8,0.9,0.8h34.4c0.5,0,0.9-0.4,0.9-0.8v-0.4h34.4c0.4,0,0.7-0.3,0.7-0.6v-0.3h32.1v0.3c0,0.3,0.3,0.6,0.7,0.6h36.5v0.4
		c0,0,0,0.1,0,0.1c6.2-1.8,12.2-3.1,17.8-3.4c7.2-0.4,9.7-0.7,10.4-0.9l0-0.8h-27.4c-0.5,0-0.9,0.4-0.9,0.8v0.4h-36.5
		c-0.4,0-0.7,0.3-0.7,0.6v0.5h-32.1v-0.5c0-0.3-0.3-0.6-0.7-0.6h-34.4v-0.4C510.4,352.8,510,352.5,509.4,352.5z"/>
	<path d="M509.4,344H475c-0.5,0-0.9,0.4-0.9,0.8v0.4h-26.2l0,3.4h26.2v0.4c0,0.4,0.4,0.8,0.9,0.8h34.4c0.5,0,0.9-0.4,0.9-0.8v-0.4
		h34.9c0.4,0,0.7-0.3,0.7-0.6v-0.3h31.6v0.3c0,0.3,0.3,0.6,0.7,0.6h36.5v0.4c0,0.4,0.4,0.8,0.9,0.8h27.4l0-5.8h-27.4
		c-0.5,0-0.9,0.4-0.9,0.8v0.4h-36.5c-0.4,0-0.7,0.3-0.7,0.6v0.5H546v-0.5c0-0.3-0.3-0.6-0.7-0.6h-34.9v-0.4
		C510.4,344.4,510,344,509.4,344z"/>
	<path d="M582.7,79.7h31.4c-1.6-2-3.3-3.9-5.2-5.8h-26.2c-0.5,0-0.9,0.4-0.9,0.8v0.4h-36.5c-0.4,0-0.7,0.3-0.7,0.6v0.5h-36v-0.5
		c0-0.3-0.3-0.6-0.7-0.6h-27c-1.1,1.1-2.1,2.2-3,3.4h30c0.4,0,0.7-0.3,0.7-0.6v-0.3h36v0.3c0,0.3,0.3,0.6,0.7,0.6h36.5v0.4
		C581.8,79.4,582.2,79.7,582.7,79.7z"/>
	<path d="M582.7,71.2H606c-2.4-2.1-5-4-7.9-5.8h-15.3c-0.5,0-0.9,0.4-0.9,0.8v0.4h-36.5c-0.4,0-0.7,0.3-0.7,0.6v0.5h-36v-0.5
		c0-0.3-0.3-0.6-0.7-0.6H491c-1.6,1.1-3.1,2.2-4.6,3.4h21.4c0.4,0,0.7-0.3,0.7-0.6v-0.3h36v0.3c0,0.3,0.3,0.6,0.7,0.6h36.5v0.4
		C581.8,70.9,582.2,71.2,582.7,71.2z"/>
	<path d="M582.7,62.7H594l-8.4-5.8h-2.9c-0.5,0-0.9,0.4-0.9,0.8v0.4h-36.5c-0.4,0-0.7,0.3-0.7,0.6v0.5h-36v-0.5
		c0-0.3-0.3-0.6-0.7-0.6h-3.5l-5.3,3.4h8.8c0.4,0,0.7-0.3,0.7-0.6v-0.3h36v0.3c0,0.3,0.3,0.6,0.7,0.6h36.5V62
		C581.8,62.4,582.2,62.7,582.7,62.7z"/>
	<path d="M544.6,52.2v0.3c0,0.3,0.3,0.6,0.7,0.6h34.8l-4.9-3.4h-29.9c-0.4,0-0.7,0.3-0.7,0.6v0.5h-28.7l-2.2,1.4H544.6z"/>
	<path d="M546.6,122.2h34.4c0.5,0,0.9-0.4,0.9-0.8V121h34.4c0.4,0,0.7-0.3,0.7-0.6v-0.3h14.4c-0.1-0.5-0.2-0.9-0.3-1.4h-14.1v-0.5
		c0-0.3-0.3-0.6-0.7-0.6H582v-0.4c0-0.4-0.4-0.8-0.9-0.8h-34.4c-0.5,0-0.9,0.4-0.9,0.8v0.4h-36.5c-0.4,0-0.7,0.3-0.7,0.6v0.5h-36
		v-0.5c0-0.3-0.3-0.6-0.7-0.6H460c-0.3,1.2-0.5,2.3-0.7,3.4h12.5c0.4,0,0.7-0.3,0.7-0.6v-0.3h36v0.3c0,0.3,0.3,0.6,0.7,0.6h36.5v0.4
		C545.7,121.9,546.1,122.2,546.6,122.2z"/>
	<path d="M546.6,113.8h34.4c0.5,0,0.9-0.4,0.9-0.8v-0.4h34.4c0.4,0,0.7-0.3,0.7-0.6v-0.3h12.3c-0.1-0.5-0.2-0.9-0.4-1.4h-11.9v-0.5
		c0-0.3-0.3-0.6-0.7-0.6H582v-0.4c0-0.4-0.4-0.8-0.9-0.8h-34.4c-0.5,0-0.9,0.4-0.9,0.8v0.4h-36.5c-0.4,0-0.7,0.3-0.7,0.6v0.5h-36
		v-0.5c0-0.3-0.3-0.6-0.7-0.6h-9.5c-0.3,1.1-0.7,2.3-0.9,3.4h10.5c0.4,0,0.7-0.3,0.7-0.6v-0.3h36v0.3c0,0.3,0.3,0.6,0.7,0.6h36.5
		v0.4C545.7,113.4,546.1,113.8,546.6,113.8z"/>
	<path d="M617.1,101.8v-0.5c0-0.3-0.3-0.6-0.7-0.6H582v-0.4c0-0.4-0.4-0.8-0.9-0.8h-34.4c-0.5,0-0.9,0.4-0.9,0.8v0.4h-36.5
		c-0.4,0-0.7,0.3-0.7,0.6v0.5h-36v-0.5c0-0.3-0.3-0.6-0.7-0.6h-6.7c-0.4,1.1-0.9,2.3-1.2,3.4h7.9c0.4,0,0.7-0.3,0.7-0.6v-0.3h36v0.3
		c0,0.3,0.3,0.6,0.7,0.6h36.5v0.4c0,0.4,0.4,0.8,0.9,0.8h34.4c0.5,0,0.9-0.4,0.9-0.8v-0.4h34.4c0.4,0,0.7-0.3,0.7-0.6v-0.3h9.7
		c-0.2-0.5-0.3-0.9-0.5-1.4H617.1z"/>
	<path d="M471.8,92.2h-2.9c-0.6,1.1-1.1,2.3-1.6,3.4h4.5c0.4,0,0.7-0.3,0.7-0.6v-0.3h36V95c0,0.3,0.3,0.6,0.7,0.6h36.5V96
		c0,0.4,0.4,0.8,0.9,0.8h34.4c0.5,0,0.9-0.4,0.9-0.8v-0.4h34.4c0.4,0,0.7-0.3,0.7-0.6v-0.3h6.2c-0.2-0.5-0.4-0.9-0.7-1.4h-5.6v-0.5
		c0-0.3-0.3-0.6-0.7-0.6H582v-0.4c0-0.4-0.4-0.8-0.9-0.8h-34.4c-0.5,0-0.9,0.4-0.9,0.8v0.4h-36.5c-0.4,0-0.7,0.3-0.7,0.6v0.5h-36
		v-0.5C472.5,92.5,472.2,92.2,471.8,92.2z"/>
	<path d="M471.8,87.1c0.4,0,0.7-0.3,0.7-0.6v-0.3h36v0.3c0,0.3,0.3,0.6,0.7,0.6h36.5v0.4c0,0.4,0.4,0.8,0.9,0.8h34.4
		c0.5,0,0.9-0.4,0.9-0.8v-0.4h34.4c0.4,0,0.7-0.3,0.7-0.6v-0.3h1.6c-0.3-0.5-0.6-0.9-0.9-1.4h-0.7v-0.5c0-0.3-0.3-0.6-0.7-0.6H582
		v-0.4c0-0.4-0.4-0.8-0.9-0.8h-34.4c-0.5,0-0.9,0.4-0.9,0.8v0.4h-36.5c-0.4,0-0.7,0.3-0.7,0.6v0.5h-35.3
		C472.6,85.6,472.2,86.3,471.8,87.1L471.8,87.1z"/>
	<path d="M469.6,162.2v0.3c0,0.3,0.3,0.6,0.7,0.6h36.5v0.4c0,0.4,0.4,0.8,0.9,0.8h34.4c0.5,0,0.9-0.4,0.9-0.8v-0.4h34.4
		c0.4,0,0.7-0.3,0.7-0.6v-0.3h35.8v0.3c0,0.3,0.3,0.6,0.7,0.6h28.5l0-3.4h-28.5c-0.4,0-0.7,0.3-0.7,0.6v0.5h-35.8v-0.5
		c0-0.3-0.3-0.6-0.7-0.6h-34.4v-0.4c0-0.4-0.4-0.8-0.9-0.8h-34.4c-0.5,0-0.9,0.4-0.9,0.8v0.4h-36.5c-0.4,0-0.7,0.3-0.7,0.6v0.5
		h-21.8l0,1.4H469.6z"/>
	<path d="M469.6,153.8v0.3c0,0.3,0.3,0.6,0.7,0.6h36.5v0.4c0,0.4,0.4,0.8,0.9,0.8h34.4c0.5,0,0.9-0.4,0.9-0.8v-0.4h34.4
		c0.4,0,0.7-0.3,0.7-0.6v-0.3h35.8v0.3c0,0.3,0.3,0.6,0.7,0.6h28.6l0-3.4h-28.6c-0.4,0-0.7,0.3-0.7,0.6v0.5h-35.8v-0.5
		c0-0.3-0.3-0.6-0.7-0.6h-34.4v-0.4c0-0.4-0.4-0.8-0.9-0.8h-34.4c-0.5,0-0.9,0.4-0.9,0.8v0.4h-36.5c-0.4,0-0.7,0.3-0.7,0.6v0.5
		h-21.8l0,1.4H469.6z"/>
	<path d="M469.6,145.3v0.3c0,0.3,0.3,0.6,0.7,0.6h36.5v0.4c0,0.4,0.4,0.8,0.9,0.8h34.4c0.5,0,0.9-0.4,0.9-0.8v-0.4h34.4
		c0.4,0,0.7-0.3,0.7-0.6v-0.3h35.8v0.3c0,0.3,0.3,0.6,0.7,0.6h25.9c-0.6-1-1.3-2.1-2.1-3.4h-23.9c-0.4,0-0.7,0.3-0.7,0.6v0.5h-35.8
		v-0.5c0-0.3-0.3-0.6-0.7-0.6h-34.4v-0.4c0-0.4-0.4-0.8-0.9-0.8h-34.4c-0.5,0-0.9,0.4-0.9,0.8v0.4h-36.5c-0.4,0-0.7,0.3-0.7,0.6v0.5
		h-17.9c-0.3,0.5-0.6,0.9-0.8,1.4H469.6z"/>
	<path d="M469.6,136.8v0.3c0,0.3,0.3,0.6,0.7,0.6h36.5v0.4c0,0.4,0.4,0.8,0.9,0.8h34.4c0.5,0,0.9-0.4,0.9-0.8v-0.4h34.4
		c0.4,0,0.7-0.3,0.7-0.6v-0.3h35.8v0.3c0,0.3,0.3,0.6,0.7,0.6h21.4c-0.4-1.1-0.9-2.2-1.3-3.4h-20.1c-0.4,0-0.7,0.3-0.7,0.6v0.5
		h-35.8v-0.5c0-0.3-0.3-0.6-0.7-0.6h-34.4v-0.4c0-0.4-0.4-0.8-0.9-0.8h-34.4c-0.5,0-0.9,0.4-0.9,0.8v0.4h-36.5
		c-0.4,0-0.7,0.3-0.7,0.6v0.5h-13.9c-0.2,0.5-0.4,0.9-0.5,1.4H469.6z"/>
	<path d="M469.6,128.3v0.3c0,0.3,0.3,0.6,0.7,0.6h36.5v0.4c0,0.4,0.4,0.8,0.9,0.8h34.4c0.5,0,0.9-0.4,0.9-0.8v-0.4h34.4
		c0.4,0,0.7-0.3,0.7-0.6v-0.3h35.8v0.3c0,0.3,0.3,0.6,0.7,0.6h18.6c-0.1-0.4-0.2-0.8-0.3-1.2c-0.1-0.7-0.3-1.4-0.5-2.2h-17.9
		c-0.4,0-0.7,0.3-0.7,0.6v0.5h-35.8v-0.5c0-0.3-0.3-0.6-0.7-0.6h-34.4v-0.4c0-0.4-0.4-0.8-0.9-0.8h-34.4c-0.5,0-0.9,0.4-0.9,0.8v0.4
		h-36.5c-0.4,0-0.7,0.3-0.7,0.6v0.5h-11.5c-0.1,0.4-0.2,0.7-0.2,1.1c0,0.1-0.1,0.2-0.1,0.3H469.6z"/>
	<path d="M615.8,206.4h27.5l0-5.8h-27.5c-0.5,0-0.9,0.4-0.9,0.8v0.4h-36.5c-0.4,0-0.7,0.3-0.7,0.6v0.5h-32.1v-0.5
		c0-0.3-0.3-0.6-0.7-0.6h-34.4v-0.4c0-0.4-0.4-0.8-0.9-0.8H475c-0.5,0-0.9,0.4-0.9,0.8v0.4h-26.3l0,3.4h26.3v0.4
		c0,0.4,0.4,0.8,0.9,0.8h34.4c0.5,0,0.9-0.4,0.9-0.8v-0.4h34.4c0.4,0,0.7-0.3,0.7-0.6v-0.3h32.1v0.3c0,0.3,0.3,0.6,0.7,0.6h36.5v0.4
		C614.8,206,615.3,206.4,615.8,206.4z"/>
	<path d="M474.1,196.7v0.4c0,0.4,0.4,0.8,0.9,0.8h34.4c0.5,0,0.9-0.4,0.9-0.8v-0.4h34.4c0.4,0,0.7-0.3,0.7-0.6v-0.3h32.1v0.3
		c0,0.3,0.3,0.6,0.7,0.6h36.5v0.4c0,0.4,0.4,0.8,0.9,0.8h27.5l0-5.8h-27.5c-0.5,0-0.9,0.4-0.9,0.8v0.4h-36.5c-0.4,0-0.7,0.3-0.7,0.6
		v0.5h-32.1v-0.5c0-0.3-0.3-0.6-0.7-0.6h-34.4v-0.4c0-0.4-0.4-0.8-0.9-0.8H475c-0.5,0-0.9,0.4-0.9,0.8v0.4h-26.3l0,3.4H474.1z"/>
	<path d="M509.4,183.6H475c-0.5,0-0.9,0.4-0.9,0.8v0.4h-26.3l0,3.4h26.3v0.4c0,0.4,0.4,0.8,0.9,0.8h34.4c0.5,0,0.9-0.4,0.9-0.8v-0.4
		h34.4c0.4,0,0.7-0.3,0.7-0.6v-0.3h32.1v0.3c0,0.3,0.3,0.6,0.7,0.6h36.5v0.4c0,0.4,0.4,0.8,0.9,0.8h27.5l0-5.8h-27.5
		c-0.5,0-0.9,0.4-0.9,0.8v0.4h-36.5c-0.4,0-0.7,0.3-0.7,0.6v0.5h-32.1v-0.5c0-0.3-0.3-0.6-0.7-0.6h-34.4v-0.4
		C510.4,184,510,183.6,509.4,183.6z"/>
	<path d="M509.4,175.1H475c-0.5,0-0.9,0.4-0.9,0.8v0.4h-26.3l0,3.4h26.3v0.4c0,0.4,0.4,0.8,0.9,0.8h34.4c0.5,0,0.9-0.4,0.9-0.8v-0.4
		h34.4c0.4,0,0.7-0.3,0.7-0.6v-0.3h32.1v0.3c0,0.3,0.3,0.6,0.7,0.6h36.5v0.4c0,0.4,0.4,0.8,0.9,0.8h27.5l0-5.8h-27.6
		c-0.5,0-0.9,0.4-0.9,0.8v0.4h-36.5c-0.4,0-0.7,0.3-0.7,0.6v0.5h-32.1V177c0-0.3-0.3-0.6-0.7-0.6h-34.4v-0.4
		C510.4,175.5,510,175.1,509.4,175.1z"/>
	<path d="M509.4,166.7H475c-0.5,0-0.9,0.4-0.9,0.8v0.4h-26.3l0,3.4h26.3v0.4c0,0.4,0.4,0.8,0.9,0.8h34.4c0.5,0,0.9-0.4,0.9-0.8v-0.4
		h34.9c0.4,0,0.7-0.3,0.7-0.6v-0.3h31.6v0.3c0,0.3,0.3,0.6,0.7,0.6h36.5v0.4c0,0.4,0.4,0.8,0.9,0.8h27.6l0-5.8h-27.6
		c-0.5,0-0.9,0.4-0.9,0.8v0.4h-36.5c-0.4,0-0.7,0.3-0.7,0.6v0.5H546v-0.5c0-0.3-0.3-0.6-0.7-0.6h-34.9v-0.4
		C510.4,167,510,166.7,509.4,166.7z"/>
</g>
</svg>
