<?xml version="1.0" encoding="utf-8"?>
<!-- Generator: Adobe Illustrator 25.3.0, SVG Export Plug-In . SVG Version: 6.00 Build 0)  -->
<svg version="1.1" id="Layer_1" xmlns="http://www.w3.org/2000/svg" xmlns:xlink="http://www.w3.org/1999/xlink" x="0px" y="0px"
	 viewBox="0 0 750.2 400.1" style="enable-background:new 0 0 750.2 400.1;" xml:space="preserve">
<g>
	<polygon points="197,244.4 197,217.9 196.8,217.9 196.8,217.9 196.8,217.8 174.5,244.5 163.4,244.5 196.9,284.7 196.9,244.4 	"/>
	<path d="M107.6,302.3L107.6,302.3l-2.8,3.3l0,33.7l12.4,14.8c3.6,0.2,7.9,0.4,12.6,0.7V329h-22.1V302.3z"/>
	<path d="M141.2,355.4c0.6,0,1.2,0.1,1.8,0.1c6.6,0.3,13.5,0.7,20.3,1V329h-0.1L141.2,355.4z"/>
	<path d="M196.8,302.3L196.8,302.3L174.5,329h-11.1l23.6,28.4c3.5,0.1,6.9,0.2,9.9,0.2v-28.7h0.1v-26.5H196.8L196.8,302.3z"/>
	<path d="M276.2,354.7c9.5-0.5,17.2-1,21.3-1.2c0.1,0,0.2,0,0.3,0V329h-0.1L276.2,354.7z"/>
	<polygon points="166.8,302.3 166.8,284.7 166.5,284.7 151.9,302.3 152.1,302.3 129.9,329 152.2,329 152.2,302.3 152.3,302.3 
		174.5,329 174.5,302.3 	"/>
	<polygon points="107.3,284.7 122,302.3 122,284.7 	"/>
	<polygon points="136.9,302.3 136.9,284.7 137.2,284.7 151.9,302.3 151.9,284.7 163.3,284.7 163.3,244.5 163.2,244.5 129.7,284.7 
		136.7,284.7 122,302.3 107.7,302.3 129.9,329 129.9,302.3 	"/>
	<polygon points="167,284.7 181.7,302.3 181.7,284.7 	"/>
	<polygon points="196.6,302.2 196.8,302.2 196.8,284.7 196.6,284.7 196.4,284.7 181.7,302.3 196.6,302.3 	"/>
	<polygon points="107.6,244.5 107.6,217.9 107.5,217.9 104.7,221.2 104.7,254.7 129.7,284.7 129.7,244.5 	"/>
	<path d="M271.4,302.3v-17.6h14.7L271.4,302.3h14.7L263.9,329h-22.3v-26.6h0.1l22.2,26.6v-26.6h-7.4v-17.6h-0.2l-14.7,17.6h0
		L219.3,329h11.1l-23.8,28.6c6.6-0.1,15-0.3,23.9-0.7V329h0.1l22.4,26.9c3.8-0.2,7.5-0.4,11.1-0.6V329h22.1v-26.6h0.1l13.8,16.5
		l0-16.7h-13.8v-17.5h11.4v-40.2h-0.1l-33.5,40.2h-7.4L271.4,302.3z"/>
	<polygon points="286.3,200 271.4,217.9 286.1,217.9 263.9,244.5 241.6,244.5 241.6,217.9 241.7,217.9 263.9,244.5 263.9,217.9 
		256.5,217.9 256.5,200 241.5,217.9 241.5,217.9 219.3,244.5 230.4,244.5 196.9,284.7 197,284.7 211.7,302.3 211.7,284.7 
		226.4,284.7 211.7,302.3 197.1,302.3 219.3,329 219.3,302.3 226.6,302.3 226.6,284.7 226.8,284.7 241.5,302.3 241.5,284.7 
		230.5,284.7 230.5,244.5 230.6,244.5 264.1,284.7 264.1,244.5 286.2,244.5 286.2,217.9 286.3,217.9 286.3,217.9 300.2,234.5 
		300.2,217.7 286.3,217.7 	"/>
	<polygon points="107.1,200 122,217.9 122,200 	"/>
	<polygon points="136.9,217.9 136.9,200 122,217.9 107.7,217.9 129.9,244.5 129.9,217.9 	"/>
	<polygon points="151.9,200 136.9,200 151.9,217.9 	"/>
	<polygon points="166.8,217.9 166.8,200 151.9,217.9 152.1,217.9 129.9,244.5 152.2,244.5 152.2,217.9 152.3,217.9 174.5,244.5 
		174.5,217.9 	"/>
	<polygon points="181.7,200 166.8,200 181.7,217.9 	"/>
	<polygon points="196.6,217.7 196.6,200 181.7,217.9 196.6,217.9 	"/>
	<polygon points="196.8,200 211.7,217.9 211.7,200 	"/>
	<polygon points="226.6,217.9 226.6,200 211.7,217.9 197.1,217.9 219.3,244.5 219.3,217.9 	"/>
	<polygon points="241.5,200 226.6,200 241.5,217.9 	"/>
	<polygon points="271.4,200 256.5,200 271.4,217.9 	"/>
	<path d="M129.7,159.6h-22.1v-13.8c-1.4,2.1-2.5,3.4-2.9,3.9l0,20.2l25,30V159.6z"/>
	<polygon points="163.3,159.6 163.2,159.6 129.7,199.8 163.3,199.8 	"/>
	<polygon points="196.9,199.8 196.9,159.5 197,159.5 197,132.9 196.8,132.9 196.8,132.9 196.8,132.9 174.5,159.6 163.4,159.6 	"/>
	<polygon points="297.7,159.6 297.6,159.6 264.1,199.8 297.7,199.8 	"/>
	<polygon points="129.9,159.6 152.2,159.6 152.2,132.9 152.3,132.9 174.5,159.6 174.5,132.9 166.8,132.9 166.8,115.3 166.5,115.3 
		151.9,132.9 152.1,132.9 	"/>
	<path d="M117.8,115.3c-0.9,3.7-1.6,7.1-2.2,9.9l6.4,7.7v-17.6H117.8z"/>
	<path d="M136.7,115.3L122,132.9h-8.4c-0.6,1.8-1.2,3.4-1.9,5l18.1,21.7v-26.6h7.1v-17.6h0.2l14.7,17.6v-17.6h11.4V75.1h-0.1
		l-33.5,40.2H136.7z"/>
	<polygon points="167,115.3 181.7,132.9 181.7,115.3 	"/>
	<polygon points="196.6,132.8 196.8,132.8 196.8,115.3 196.6,115.3 196.4,115.3 181.7,132.9 196.6,132.9 	"/>
	<path d="M124.4,95.2c-1.4,3.2-2.6,6.3-3.6,9.4l8.9,10.7V85.2C127.7,88.5,125.9,91.8,124.4,95.2z"/>
	<path d="M192.2,83.9L192.2,83.9l-0.5,0c0,0-7.3-1.4-13.9-5.1c-1.6-0.9-3.5-2.2-5.5-3.7h-8.9l33.5,40.2V84.7
		C195.3,84.5,193.7,84.3,192.2,83.9z"/>
	<path d="M230.5,159.6L230.5,159.6l33.6,40.2v-40.2h22.1v-26.6h0.1v0l10.9,13.1c-1.9-2.9-4.4-7.3-6.3-13.2h-4.6v-17.5h0.5
		c-1.5-6-3.5-12.8-6.4-19.6l-16.3,19.6h-7.4l14.7,17.6v-17.6h14.7l-14.7,17.6h14.7l-22.2,26.6h-22.3v-26.6h0.1l22.2,26.6v-26.6h-7.4
		v-17.6h-0.2l-14.7,17.6h0l-22.2,26.6H230.5l-33.6,40.2h33.6V159.6z"/>
	<path d="M152.2,75.1v-9.8c-5.7,2.4-10.5,5.8-14.5,9.8H152.2z"/>
	<path d="M266.9,75.1c-0.5-0.5-1.1-1.1-1.7-1.6l-1.3,1.6h-22.3v-5.9c-3.1,2.9-6.5,5.5-9.8,7.4l32.3,38.7V75.1H266.9z"/>
	<path d="M226.6,132.9v-17.6h0.2l14.7,17.6v-17.6h-11V77.4c-1,0.6-2,1-2.9,1.5c-0.2,0.1-0.3,0.1-0.5,0.2l-30.2,36.3h0.1l14.7,17.6
		v-17.6h14.7l-14.7,17.6h-14.6l22.2,26.6v-26.6H226.6z"/>
	<path d="M258.1,68.2l5.8,6.9v-2.8C262.1,70.8,260.2,69.5,258.1,68.2z"/>
	<path d="M634.1,311.4v27.5h-22.1v19.5c7.3-2.2,14.2-3.9,20.8-4.2c0.1,0,0.3,0,0.4,0l10-12.4l0-19.2L634.1,311.4L634.1,311.4z"/>
	<path d="M578.3,338.9v29.6c5.7-1.4,11.2-3,16.4-4.7c1-0.3,2.1-0.7,3.1-1L578.3,338.9L578.3,338.9z"/>
	<path d="M544.9,311.4L544.9,311.4h-0.2v27.4h0.1V373c0.2,0,0.4,0,0.6,0c1.9,0,3.7-0.1,5.6-0.2l27.3-33.9h-11.1L544.9,311.4
		L544.9,311.4z"/>
	<path d="M447.9,353.5c0.1,0,0.3,0.1,0.6,0.1c0.9,0.1,2.6,0.3,5.9,0.5c0.7,0,1.3,0.1,2,0.2l-8.5-10.5L447.9,353.5z"/>
	<polygon points="589.8,311.4 575.1,293.2 574.8,293.2 574.8,311.4 567.1,311.4 567.1,338.9 589.4,311.4 589.4,311.4 589.4,338.9 
		611.8,338.9 589.5,311.4 	"/>
	<polygon points="619.6,293.2 619.6,311.4 634.3,293.2 	"/>
	<polygon points="578.3,251.6 578.3,293.2 589.8,293.2 589.8,311.4 604.4,293.2 604.7,293.2 604.7,311.4 611.8,311.4 611.8,338.9 
		634,311.4 619.6,311.4 604.9,293.2 611.9,293.2 578.4,251.6 	"/>
	<polygon points="559.9,293.2 559.9,311.4 574.6,293.2 	"/>
	<polygon points="559.9,311.4 545.2,293.2 545,293.2 544.9,293.2 544.9,311.3 545,311.3 545,311.4 	"/>
	<polygon points="634.1,224.1 634.1,251.6 611.9,251.6 611.9,293.2 643.2,254.4 643.3,235.4 634.2,224.1 	"/>
	<polygon points="567.1,251.6 544.9,224 544.9,224.1 544.8,224.1 544.6,224.1 544.6,251.5 544.7,251.5 544.7,293.2 578.2,251.6 	"/>
	<path d="M500.1,311.4l-14.7-18.2h-0.2v18.2h-7.4v27.5l22.2-27.5H500.1l-0.1,27.5h-22.3l-22.2-27.5h14.7l-14.7-18.2h14.7v18.2
		l14.7-18.2h-7.4l-29.7-36.9l0,36.9h7.5v18.1h-7.5l0,9.4l7.5-9.3h0.1v27.5h22.1v20.3c4.3,1.4,8.9,2.9,13.6,4.3l19.9-24.6h0.1v30.2
		c8.5,2,17.7,3.4,27.5,3.8l-27.4-34h11.1L500.1,311.4L500.1,311.4z"/>
	<polygon points="544.7,293.2 511.2,251.6 522.3,251.6 500.1,224.1 500.1,224.1 485.2,205.6 485.2,224.1 477.7,224.1 477.7,251.6 
		499.9,224.1 500,224.1 500,251.6 477.7,251.6 455.5,224.1 470.3,224.1 455.3,205.6 455.3,224 447.8,224 447.8,233.4 455.3,224.1 
		455.3,224.1 455.4,224.1 455.4,251.6 477.5,251.6 477.5,293.2 511,251.6 511.1,251.6 511.1,293.2 500.1,293.2 500.1,311.4 
		514.8,293.2 515,293.2 515,311.4 522.3,311.4 522.3,338.9 544.6,311.4 529.9,311.4 515.3,293.2 529.9,293.2 529.9,311.4 
		544.6,293.2 	"/>
	<polygon points="619.6,205.6 619.6,224.1 634.5,205.6 	"/>
	<polygon points="611.8,224.1 611.8,251.6 634,224.1 619.6,224.1 604.7,205.6 604.7,224.1 	"/>
	<polygon points="589.8,205.6 589.8,224.1 604.7,205.6 	"/>
	<polygon points="589.4,224.1 589.4,251.6 611.8,251.6 589.5,224.1 589.8,224.1 574.8,205.6 574.8,224.1 567.1,224.1 567.1,251.6 
		589.4,224.1 	"/>
	<polygon points="559.9,224.1 574.8,205.6 559.9,205.6 	"/>
	<polygon points="545,224 545,224.1 559.9,224.1 545,205.6 	"/>
	<polygon points="529.9,205.6 529.9,224.1 544.9,205.6 	"/>
	<polygon points="522.3,224.1 522.3,251.6 544.6,224.1 529.9,224.1 515,205.6 515,224.1 	"/>
	<polygon points="500.1,205.6 500.1,224.1 515,205.6 	"/>
	<polygon points="470.3,205.6 470.3,224.1 485.2,205.6 	"/>
	<path d="M634.2,136.4L634.2,136.4l-0.1,27.5h-22.1v41.5l31.4-38.9l0-16.8c-0.9-1.1-3.4-4.2-5.9-9.3L634.2,136.4z"/>
	<polygon points="578.3,163.9 578.3,205.4 611.9,205.4 578.4,163.9 	"/>
	<polygon points="567.1,163.9 544.9,136.3 544.9,136.4 544.8,136.4 544.6,136.4 544.6,163.8 544.7,163.8 544.7,205.4 578.2,163.9 	
		"/>
	<polygon points="447.8,168.5 447.8,205.4 477.5,205.4 	"/>
	<polygon points="589.4,136.4 589.4,163.9 611.8,163.9 589.5,136.4 589.8,136.4 575.1,118.2 574.8,118.2 574.8,136.4 567.1,136.4 
		567.1,163.9 589.4,136.4 	"/>
	<path d="M631,118.2h-11.4v18.2l12.1-15C631.5,120.3,631.3,119.2,631,118.2z"/>
	<polygon points="604.7,118.2 604.7,136.4 611.8,136.4 611.8,163.9 634,136.4 619.6,136.4 604.9,118.2 611.9,118.2 578.4,76.6 
		578.3,76.6 578.3,118.2 589.8,118.2 589.8,136.4 604.4,118.2 	"/>
	<polygon points="559.9,118.2 559.9,136.4 574.6,118.2 	"/>
	<polygon points="559.9,136.4 545.2,118.2 545,118.2 544.9,118.2 544.9,136.2 545,136.2 545,136.4 	"/>
	<path d="M624.5,97.3c-3-6.9-7-13.9-12.6-20.2v41l14-17.3C625.5,99.7,625,98.5,624.5,97.3z"/>
	<polygon points="567.1,76.6 544.9,49 544.9,49.1 544.8,49.1 544.6,49.1 544.6,76.5 544.7,76.5 544.7,118.2 578.2,76.6 	"/>
	<path d="M477.5,118.2l-13-16.1c-2.1,5.7-3.6,11.3-4.6,16.1h10.3v18.2l14.7-18.2H477.5z"/>
	<path d="M511.1,163.9v41.5h33.6L511.1,163.9h11.2l-22.2-27.5h0l-14.7-18.2h-0.2v18.2h-7.4v27.5l22.2-27.5h0.1v27.5h-22.3
		l-22.2-27.5h14.7L459,122.4c-0.4,2.1-0.8,3.9-1.2,5.6c-0.7,3.1-1.6,5.9-2.5,8.4l0,0v0h0.1v27.5h22.1v41.5L511.1,163.9L511.1,163.9z
		"/>
	<path d="M596.7,64.6L596.7,64.6l-7.3-5v17.1h22C607.4,72.1,602.6,68,596.7,64.6z"/>
	<polygon points="574.3,49.1 567.1,49.1 567.1,76.6 584,55.8 	"/>
	<path d="M559.9,46.8v2.3l1.8-2.3C561.1,46.8,560.5,46.8,559.9,46.8z"/>
	<path d="M558,46.7c-4.2-0.1-8.6-0.2-13-0.2c0,0,0,0,0,0V49v0.1h14.9L558,46.7z"/>
	<path d="M529.9,46.8v2.3l1.9-2.3C531.2,46.7,530.6,46.8,529.9,46.8z"/>
	<path d="M529.9,49.1l-1.8-2.2c-2.2,0.1-4.4,0.1-6.4,0.2l-3.2,2h3.8v27.5l22.2-27.5H529.9z"/>
	<path d="M511.1,76.6v41.5h-11v18.2l14.7-18.2h0.2v18.2h7.3v27.5l22.2-27.5h-14.6l-14.7-18.2h14.7v18.2l14.7-18.2h0.1L511.1,76.6
		h11.2l-16-19.8l-6.4,4.1v15.7h-20.5c-0.7,0.7-1.3,1.5-2,2.3v39.3L511.1,76.6L511.1,76.6z"/>
	<polygon points="327.1,71.7 326.1,72.4 326.1,72.5 329.9,72.5 	"/>
	<polygon points="326.1,83.7 296.5,106 296.6,106 296.6,106 296.6,106.2 325.9,106.2 325.9,106.1 360.7,106.1 362.1,99.8 
		326.1,72.6 	"/>
	<polygon points="295.3,62.1 277.1,75.8 277.1,76 296.6,76 296.6,83.7 326.1,83.7 298.7,63.1 	"/>
	<path d="M251.8,64c5.3,2.1,9.9,5,13.8,8.5h11.5V61.1h15.1l-31.7-9.6l-11.4,8.6c-0.4,0.9-1,1.8-1.6,2.6L251.8,64L251.8,64z"/>
	<path d="M277.1,87c0.8,1.3,1.5,2.7,2.2,4h17.3l-19.5-14.7V87z"/>
	<path d="M285.2,105.9c0,0,0,0.1,0,0.1h11.2v-0.1h0.1V91l-13.1,9.9C284.1,102.5,284.7,104.2,285.2,105.9z"/>
	<path d="M326.1,128.5L300,148.2c0.2,0.3,0.4,0.5,0.5,0.6l10.3,2h15.3v3l23.2,4.6l0.2-1l-23.5-17.7v-0.1h27.3l5.4-24.7l-32.7,24.6
		V128.5z"/>
	<path d="M289.1,120.9h7.5l-9.1-6.8C288.1,116.5,288.6,118.8,289.1,120.9z"/>
	<path d="M296.6,120.9l-6.5,4.9c0.1,0.6,0.2,1.1,0.4,1.7c0.7,3.1,1.6,5.9,2.5,8.4h3.6v-7.3h29.5l-29.5-22.2V120.9z"/>
	<path d="M109.1,106.2h10c0-0.1,0-0.1,0.1-0.2c1.1-3.4,2.3-7,3.8-10.5L109,106h0.1v0V106.2z"/>
	<path d="M138.6,72.5h0.1c4.1-3.6,8.9-6.5,14.5-8.7l-0.6,0.2l4.4-1.3c-0.7-1-1.2-2-1.7-2.9L138.6,72.5L138.6,72.5z"/>
	<path d="M138.6,72.7C138.6,72.6,138.6,72.6,138.6,72.7L138.6,72.7L138.6,72.7z"/>
	<path d="M89.6,76h19.5v7.7h20c1.1-1.6,2.2-3.2,3.3-4.6l-22.6-17l-3.4,1L89.6,75.8V76z"/>
	<polygon points="138.6,53.4 112,61.4 138.6,61.4 	"/>
	<polygon points="89.6,68.2 75.4,72.5 89.6,72.5 	"/>
	<polygon points="89.6,91 109.1,91 89.6,76.3 	"/>
	<polygon points="89.6,105.9 89.6,106 108.9,106 108.9,105.9 109.1,105.9 109.1,91 89.6,105.6 	"/>
	<polygon points="45.1,81.7 45.1,83.7 40.4,87.2 44.5,106 44.5,106.2 45,106.2 45,106.1 89.6,106.1 53.7,79.1 	"/>
	<polygon points="39.6,83.4 39.6,83.7 45.1,83.7 43.2,82.3 	"/>
	<polygon points="55.9,158.5 66.9,156.3 53.2,145.9 	"/>
	<path d="M89.6,136.1v-0.2h19.5v-7.3h4.4c0.1-0.3,0.1-0.6,0.2-0.9c0.8-3.7,1.9-9.1,3.5-15.2l-8.2-6.1v14.6l-19.5,14.7v-14.7h19.5
		l-19.5-14.7v-0.1l-38.7,29.1l1,4.5h37.7v11h4.7l9.4-1.9c0.2-0.3,0.6-0.7,1.1-1.4L89.6,136.1z"/>
	<path d="M444.2,76h19.5v7.7h9c2.2-3.3,4.8-6.5,7.8-9.6l-16.8-12.6v-0.1h29.5V50.2l-8,2.4l-16.8,5.1l-4.7,3.6v-0.2l-19.5,14.7V76z"
		/>
	<polygon points="461.9,59.8 457.4,61.1 463.7,61.1 	"/>
	<polygon points="444.2,65.1 419.8,72.5 444.2,72.5 	"/>
	<polygon points="444.2,91 463.7,91 444.2,76.3 	"/>
	<path d="M444.2,105.9v0.1h18c0,0,0-0.1,0-0.1c0.5-1.4,0.9-2.8,1.5-4.2V91l-19.5,14.7V105.9z"/>
	<polygon points="399.7,78.6 399.7,83.7 386.4,93.7 389.2,106 389.2,106.2 399.6,106.2 399.6,106.1 444.2,106.1 405.4,76.9 	"/>
	<polygon points="384.1,83.4 384.2,83.7 399.7,83.7 394.9,80.1 	"/>
	<polygon points="394.2,128.5 399.7,128.5 393.1,123.5 	"/>
	<path d="M451.8,141.8l-7.5-5.7v-0.2h10.3c0.9-2.4,1.8-5.1,2.4-8.1c0.1-0.6,0.3-1.3,0.4-2l-13.1,9.9v-14.7h14.1
		c0.2-1.1,0.5-2.3,0.8-3.5l-14.9-11.2v-0.1l-44.5,33.5v-11.1l-4.7,3.6l4.2,18.7h0.5v2.5l1,4.4l18.2-3.5l-19.1-14.4v-0.1h44.5v9.6
		l2.9-0.6c0.2-0.2,0.4-0.5,0.6-0.8c0.7-0.9,1.7-2.3,2.8-4.2C451,143.2,451.4,142.5,451.8,141.8z"/>
	<polygon points="684.6,75.5 680.7,74.4 680.7,83.7 651.1,106 651.2,106 651.2,106 651.2,106.2 680.6,106.2 680.6,106.1 
		705.6,106.1 708.4,93.5 	"/>
	<polygon points="647,64.2 631.7,75.8 631.7,76 651.2,76 651.2,83.7 680.7,83.7 660,68.1 	"/>
	<path d="M631.7,72.5V61.1h4.9l-24.6-7.4l-14,10.5c4.1,2.5,7.7,5.3,10.9,8.3H631.7z"/>
	<polygon points="631.7,91 651.2,91 631.7,76.3 	"/>
	<polygon points="631.7,105.9 631.7,106 651.1,106 651.1,105.9 651.2,105.9 651.2,91 631.7,105.6 	"/>
	<path d="M628.9,106.1h2.8l-3.7-2.8C628.3,104.3,628.6,105.2,628.9,106.1z"/>
	<polygon points="680.7,128.5 652.2,150 656.6,150.8 680.7,150.8 680.7,155.3 694.1,157.7 695.6,151 680.7,139.8 680.7,139.7 
		698.1,139.7 701.6,123.9 680.7,139.6 	"/>
	<path d="M631.7,106.1l-2.2,1.7c1.4,4.8,2.5,9.2,3.3,13.1h18.4l-19.5-14.7V106.1z"/>
	<path d="M651.2,120.9l-15.7,11.8c0.3,1.1,0.7,2.1,1.1,3.1h14.6v-7.3h29.5l-29.5-22.2V120.9z"/>
	<path d="M640.5,143.8c1.1,1.8,2.2,3.5,3,4.5c0.2,0.3,4.1,0.7,4.3,0.9l1.8,0.3l-10.2-7.7C639.8,142.6,640.1,143.2,640.5,143.8z"/>
	<path d="M587.2,47.8c-3.2-0.2-7-0.3-10.8-0.5l-1.5,1.1l12.3,8.4V47.8z"/>
</g>
</svg>
