<?xml version="1.0" encoding="utf-8"?>
<!-- Generator: Adobe Illustrator 25.3.0, SVG Export Plug-In . SVG Version: 6.00 Build 0)  -->
<svg version="1.1" id="Layer_1" xmlns="http://www.w3.org/2000/svg" xmlns:xlink="http://www.w3.org/1999/xlink" x="0px" y="0px"
	 viewBox="0 0 750.2 400.1" style="enable-background:new 0 0 750.2 400.1;" xml:space="preserve">
<g>
	<path d="M136.4,269.3c35.1,1.2,84.4,13.2,98.6-0.6c14.2-13.8-1.5-15,38.9-15c12.7,0,20.8-3,26-7l0-18.6
		c-24.8,10.2-64.2,8.9-77.6,19.1c-11.9,9.1-86.7,6.7-117.9,9.1l0,17.2C111.7,270.9,121.7,268.8,136.4,269.3z"/>
	<path d="M204,314c40.4,4.8,52.7-19.2,71.2-30.6c10.2-6.3,18.9-5.8,24.7-4.2l0-11.6c-10.6,0.9-25.1,3.8-32.9,8
		c-12.3,6.6-41.1,22.8-87.7,18c-40.7-4.2-49.5-15.2-74.9-0.3l0,15.5c2.7-1.1,6-2.3,9.8-3.8C138.9,295.4,163.6,309.2,204,314z"/>
	<path d="M300,165.5c-20.5-1-119.3,20.9-135.3,13.2c-11.5-5.6-36.8-2.4-60.3-2.6l0,19.5c2.4-0.2,5-0.5,7.8-1c42-7.4,25.9-3.3,43,7.7
		c17.2,11,66.4-9.8,102.7-17.4c21.1-4.4,33.5-2.4,42,0L300,165.5z"/>
	<path d="M299.9,196.3c-35.2-15.8-39-2-82,10.7c-44.9,13.3-76.1,2.7-89.5-1.5c-6-1.9-15.4-2.5-24.1-2.4l0,9.5
		c4.7-0.8,10.6-0.6,17.4,2c20.3,7.8,36.8,29,75.6,16.9c38.8-12.2,60.5-30.3,86.5-25.4c7,1.3,12.2,2.3,15.9,3L299.9,196.3z"/>
	<path d="M242.3,271.5c-2.2,3.4,37.1-5.1,57.5-10.7l0-7.1C276.2,265.3,244.8,267.6,242.3,271.5z"/>
	<path d="M130,332.2c12.3,0.6,62.3,15.6,96.6,16.2s29.4-12.6,45.9-33.5c9-11.5,19.6-15.2,27.4-16.3l0-10.1c-2.6-0.7-5.8-0.9-9.6,0
		c-15.8,3.6-37,26.4-55.5,39.5c-18.5,13.2-51.4-1.2-94.5-4.2c-21.7-1.5-30.2-0.9-35.8,2.8l0,26.7c0.5,0,1.4,0.1,2.6,0.2
		c1.1,0.1,2.6,0.2,4.3,0.2C122.3,345.8,120.7,331.7,130,332.2z"/>
	<path d="M178.6,354.7c-35.6-3-45.7-11-41.8-0.6c0.1,0.3,0.4,0.6,0.8,0.9c1.7,0.1,3.4,0.2,5.1,0.3c19.9,1,42.8,2,56.9,2.1
		C193.1,356.3,186.2,355.4,178.6,354.7z"/>
	<path d="M299.8,333.7l0-15.8c-3.3,2-7.9,5.9-13,11.7c-7.5,8.4-12.6,17.4-14.6,25.2c5.6-0.3,10.7-0.6,14.9-0.8
		C291.5,347.4,296.2,340.1,299.8,333.7z"/>
	<path d="M145.6,239.4c-1.8-2.1-29.1,0.4-41.2-6.3l0,10.5C128.1,244.6,147.3,241.4,145.6,239.4z"/>
	<path d="M296.8,145.5c-1.4-2.8-2.8-7.4-3.5-15.1c-23.4,2.6-65.5,6.5-67.1,1.6c-1.5-4.6,39.2-27.8,65.1-41.9
		c-0.6-7.3-1.4-14.2-2.5-19.9c-14.4,9.9-54.8,36.9-75,41.5c-24.8,5.6-40.7,22.6-66.6,24.8c-15.2,1.3-28.1-2-36.2-5
		c-0.7,7-2.1,11.3-3.4,14c-1.3,2.6-2.6,3.6-3.2,4l0,4.1c10.4-2,17.1-4,40.4-0.1c33.9,5.6,58.7,1.1,77.9-2.3
		c10.8-1.9,47.3-1,77.2,0.2l0-1.9C299.4,149.2,298.1,148.2,296.8,145.5z"/>
	<path d="M151.6,95.9c-12.8,0-26.4-1.4-38.8-2.5c-0.5,6.8-0.8,13.7-1.1,20.1c16.2,3.4,24.6,3.2,36.4,0.4
		c19.2-4.5,37.3-16.9,53.1-23.7c15.8-6.8,53.1-21.5,53.1-21.5s19.2-3.7,27.8-10.7l-30.6-9.2c0,0.2,0,0.5,0,0.8c0,2.8-0.9,8-4.5,13
		c-4.9,6.9-13.5,13.3-19.7,16.1c-5.9,2.6-14,4.7-14,4.7l-0.5,0.1l0-0.1c-3.8,0.9-7.6,1.5-11.4,1.5c-0.4,0-0.7,0-1.1,0
		c-2.9-0.1-5.7-0.5-8.4-1.1l0,0.1l-0.5-0.1c0,0-1.3-0.3-3.4-0.8C176.4,90.4,164.1,95.9,151.6,95.9z"/>
	<path d="M117.8,62c-0.7,1.7-1.3,3.8-2,6.7c-0.9,4.2-1.6,9.3-2.2,14.7c14.8-0.6,32.7-9.8,46.7-18.2c-0.3-0.3-0.6-0.5-1-0.8l-0.1-0.1
		l-0.1-0.2c-0.5-0.5-0.9-0.9-1.3-1.3c-2.5-2.5-3.5-5.2-4-7.7C141.8,58.4,127.7,62.6,117.8,62z"/>
	<path d="M292.7,119.2c-0.1-3.2-0.2-6.5-0.4-10c-13.7,3.3-17.6,3.5-17.6,6.9C274.7,117.9,282.8,119,292.7,119.2z"/>
	<path d="M642.8,148.7c-7.5,4.1-18.9,9.1-41.2,8.3c-35.1-1.2-84.4-13.2-98.6,0.6c-14.2,13.8,1.5,15-38.9,15
		c-6.7,0-12.1,0.8-16.5,2.2l0,20.2c24.4-6.8,56.3-6.9,68.1-15.9c13.4-10.2,106.7-5.9,127.5-10.2l0-19.9
		C643.1,149,642.9,148.9,642.8,148.7z"/>
	<path d="M471,150.8c12.3-6.6,41.1-22.8,87.7-18c43,4.4,50.4,16.5,79.2-2.4c-0.1-1.4-0.2-2.9-0.3-4.5l0-1.2
		c-0.1-2.7-0.2-5.6-0.3-8.6c-3.4,1.3-7.8,3-13.5,5.3c-24.7,9.6-49.3-4.2-89.7-9s-52.7,19.2-71.2,30.6c-5.1,3.1-9.8,4.6-13.9,5
		c-0.5,0.7-0.9,1.3-1.3,1.7l0,7.9C456.2,156.2,465.4,153.8,471,150.8z"/>
	<path d="M573.3,247.7c13.1,6.3,43.9,1.4,69.7,2.9l0-19.7c-4.7-0.5-10.4-0.3-17.3,0.9c-42,7.4-25.9,3.3-43-7.7
		c-17.2-11-66.4,9.8-102.7,17.4c-14.3,3-24.6,3-32.5,2l0,16.9C479.6,257.4,559.1,240.8,573.3,247.7z"/>
	<path d="M643.1,210.1c-5.2,3.1-14.3,6.4-26.9,1.5c-20.3-7.8-36.8-29-75.6-16.9C501.7,206.9,480,225,454,220.2
		c-2.3-0.4-4.5-0.8-6.4-1.2l0,14.9c26.8,9.3,33.7-3.1,72.4-14.5c44.9-13.3,76.1-2.7,89.5,1.5c8.3,2.6,23,2.9,33.6,1.8L643.1,210.1z"
		/>
	<path d="M495.7,155c1.9-2.9-27,3-48.1,8.2l0,5.5C469.4,160.5,493.5,158.3,495.7,155z"/>
	<path d="M503.2,98.5c18.5-13.2,51.4,1.2,94.5,4.2c25.8,1.8,33,0.6,38.7-5.1c-0.7-10.3-1.7-20.4-3.3-28c-18.2,6-14.3,25.2-25.1,24.7
		c-12.3-0.6-62.3-15.6-96.6-16.2c-34.2-0.6-29.4,12.6-45.9,33.5c-3.8,4.8-7.9,8.3-11.9,10.7c0,0.8-0.1,1.6-0.1,2.3l0,1.2
		c-0.1,4.1-0.5,7.6-0.9,10.4C467.7,129.9,486.6,110.3,503.2,98.5z"/>
	<path d="M472,56.6c2.9,1.6,6.3,2.6,10.1,2.5c19.9-0.6,41.8,9.6,77.4,12.6c35.6,3,45.7,11,41.8,0.6c-1.4-3.6-22.6-9.6-52.7-10.2
		c-21.5-0.4-24.2-7.2-37.3-14.6c-4.2,0.3-7.7,0.5-10.2,0.7l-1.6,0.2L472,56.6z"/>
	<path d="M455.3,91.9c9.5-12.4,13.6-25.2,10.6-33.5l-3.5,1.1c-0.1,0.2-0.2,0.4-0.3,0.5C458.5,64.8,456.5,77.7,455.3,91.9z"/>
	<path d="M592.4,187c2.1,2.4,37-1.2,45.2,9.6c2.2,2.8,4,3.3,5.5,2.4l0-15.7C615.3,180.9,590.5,184.7,592.4,187z"/>
	<path d="M593.2,273c-33.9-5.6-58.7-1.1-77.9,2.3c-9.7,1.7-39.9,1.1-67.6,0.1l0,20.4c23.8-2.6,62.7-6,64.2-1.3
		c1.5,4.6-38.3,27.3-64.2,41.4l0,17.4c0.1,0,0.3,0.1,0.6,0.1c0.8,0.1,2.2,0.2,4.7,0.4c16.7-11.3,52.6-34.8,71.3-39
		c24.8-5.6,40.7-22.6,66.6-24.8c26-2.3,45.2,9,45.2,9l6.9-0.6l0-26.9C625.7,273.4,622.7,277.9,593.2,273z"/>
	<path d="M589.8,312.5c-19.2,4.5-37.3,16.9-53.1,23.7c-15.8,6.8-53.1,21.5-53.1,21.5s-2.5,0.5-6.1,1.4c4.7,1.5,9.6,3.1,14.8,4.7
		c7.3,2.3,15.1,4.5,23.5,6.2c20.2-16.5,44.8-39.4,70.6-39.4c19.5,0,40.5,3.3,56.6,3.5l0-17.2C614.7,309.6,605.1,308.9,589.8,312.5z"
		/>
	<path d="M575.1,362.8c-6.4,4-11,6.8-14,8.8c12.3-1.6,23.3-4.7,33.4-7.9c14.2-4.5,26.5-9.1,38-9.7c7.2-0.4,9.7-0.7,10.4-0.9l0-3.9
		C627.4,334,595.9,349.8,575.1,362.8z"/>
	<path d="M463.3,310.2c0-1.6-6.8-2.6-15.7-3l0,9.4C459.8,313.8,463.3,313.5,463.3,310.2z"/>
	<path d="M459.5,62.7c0.5-1.1,0.9-2,1.5-2.8l-1.5,0.5C459.5,61.1,459.5,61.9,459.5,62.7z"/>
	<path d="M435.6,95.6c2.9,15.8,10.4,28.2,15.9,41.7c0.5-3,1-6.8,1.1-11.5l0-1.2c0.4-12.5,1-28,2.5-41c-2.6-1.8-7.2-8.8-12.6-18.1
		l-16.2,5C430.8,80,434.4,89,435.6,95.6z"/>
	<path d="M432.6,151.5c-5-15.8-13.9-31-18.9-44.3c-2.7-7.2-6.9-18.9-10.7-29.5l-18.8,5.8l1.9,8.4c14.3,18.8,30.8,40.6,31.2,62.7
		L432.6,151.5z"/>
	<path d="M103.3,127.2c-1,8.3-0.7,15.3,0.3,21.5l0.1,0l0,0l0.2-0.1c0.1-0.1,0.4-0.2,0.6-0.5c0.5-0.5,1.3-1.4,2.1-3.1
		c1.6-3.2,3.3-9.2,3.7-20.2c0.6-16.5,1.3-41.2,4.6-56.4c0.9-4.2,1.3-6.4,2.7-8.9l-2.1,0.6C114.4,78.5,106.7,99,103.3,127.2z"/>
	<path d="M69,149.8c0,2.1,0,4.1,0,5.9l17.2-3.5c-7.2-18.6,3.9-47.9,7-85.3l-11.2,3.4C77.5,91.4,69.4,124.8,69,149.8z"/>
	<path d="M54.2,149.9c3-13.2,6.8-28.6,8.4-48c1-11.4,2.4-20.2,3.6-26.7l-9.8,2.9c-1.8,9-3.2,20.9-3.5,34.7c-0.2,8.3-1.3,13.8-3,18.2
		L54.2,149.9z"/>
	<path d="M293.7,124.6c0.4,10.9,2.1,16.9,3.7,20.2c0.8,1.6,1.6,2.5,2.1,3.1c0.3,0.3,0.5,0.4,0.6,0.5l0.2,0.1l0,0l10.1,2.1
		c-2.2-5-3.9-9.6-4.8-13.5c-2.6-11.6-7.7-21.2-12.7-30.8C293.3,112.7,293.5,119.1,293.7,124.6z"/>
	<path d="M321.5,74.9c0-1.7,0-3.4,0.1-5.1l-19.6-6c0.4,2.5,0.9,5,1.5,7.7c4.5,19.2,16.9,37.3,23.7,53.1c3.3,7.8,8.6,20.8,13.1,32
		l9.1,1.9l4.7-21.3C338.7,118.7,321.5,97.2,321.5,74.9z"/>
	<path d="M353.7,86.2c3.8,6.1,6.6,10.6,8.6,13.6l2.8-12.6c-0.4-1.5-0.8-3-1.2-4.6l-15-4.6C350.5,80.9,352.1,83.6,353.7,86.2z"/>
	<path d="M638.1,108c0.8-9,0.1-16.5-1.6-23C637.2,92.3,637.7,100.3,638.1,108z"/>
	<path d="M652.6,83.8c9.5,14.5,2.5,36.8-3.5,65.6l12.3,2.3c4.9-18.7,10.1-40.9,11.2-58.8c0.6-9.9-0.1-16.6-1.9-21.5l-35.1-10.6
		C641.6,68.5,647.8,76.4,652.6,83.8z"/>
	<path d="M691.3,77.6c-3.2,16.5-10.8,35.7-14.3,63.5c-0.6,4.9-1.3,9.2-2,13.2l9,1.7c1.3-7.3,2.4-15.9,3-25.4
		c1.7-26.4,11.8-23.9,21.8-47.6L691.3,77.6z"/>
</g>
</svg>
