<?xml version="1.0" encoding="utf-8"?>
<!-- Generator: Adobe Illustrator 25.3.0, SVG Export Plug-In . SVG Version: 6.00 Build 0)  -->
<svg version="1.1" id="Layer_1" xmlns="http://www.w3.org/2000/svg" xmlns:xlink="http://www.w3.org/1999/xlink" x="0px" y="0px"
	 viewBox="0 0 750.2 400.1" style="enable-background:new 0 0 750.2 400.1;" xml:space="preserve">
<g>
	<path d="M299.8,353.2l0-43.9l-96.7,15.2l-98.7-15.6l0,44.4c0.5,0,1.4,0.1,2.6,0.2c2,0.1,4.8,0.3,8.4,0.5c7,0.4,16.7,0.9,27.2,1.5
		c21.1,1.1,45.6,2.1,59.3,2.1c24.1,0,81.2-3.3,95.1-4.1C298.4,353.3,299.3,353.2,299.8,353.2z"/>
	<polygon points="299.8,286.4 299.9,256 203.1,271.2 104.4,255.6 104.4,286 203.1,301.7 	"/>
	<polygon points="299.9,224.9 299.9,202.7 203.1,217.9 104.4,202.3 104.4,224.4 203.1,240.1 	"/>
	<path d="M104.4,162.9l98.7,15.6l96.8-15.2l0-13.7c0,0-0.1,0-0.1-0.1l-96.8,15.2l-98.2-15.6c-0.2,0.2-0.4,0.3-0.5,0.4L104.4,162.9z"
		/>
	<path d="M112.3,102.5l90.8,14.4l88.9-14c-0.1-1.8-0.2-3.6-0.3-5.4l-88.6,13.9l-90.5-14.3C112.5,98.9,112.4,100.7,112.3,102.5z"/>
	<path d="M632.5,354c7.2-0.4,9.7-0.7,10.4-0.9l0-43.8l-96.6,15.2l-98.8-15.7l0,44.5c0.1,0,0.3,0.1,0.6,0.1c0.9,0.1,2.6,0.3,5.9,0.5
		c10.7,0.6,23.3,5.4,38.1,10c14.8,4.6,31.8,9,51.3,9c0.5,0,1.1,0,1.6,0c19-0.2,35.1-4.6,49.3-9.1C608.8,359.3,621.1,354.7,632.5,354
		z"/>
	<polygon points="643,286.5 643.1,256 546.5,271.2 447.6,255.6 447.7,286 546.5,301.7 	"/>
	<polygon points="643.1,224.9 643.1,202.8 546.5,217.9 447.6,202.3 447.6,224.4 546.5,240.1 	"/>
	<path d="M447.6,162.8l98.9,15.7l96.7-15.2l0-13.8l-96.7,15.2l-98.3-15.6c-0.2,0.2-0.4,0.4-0.5,0.6L447.6,162.8z"/>
	<path d="M546.5,111.4l-91.6-14.5c-0.1,1.8-0.2,3.6-0.3,5.5l91.9,14.6l90.3-14.2c-0.1-1.8-0.2-3.6-0.3-5.4L546.5,111.4z"/>
</g>
</svg>
