<?xml version="1.0" encoding="utf-8"?>
<!-- Generator: Adobe Illustrator 25.3.0, SVG Export Plug-In . SVG Version: 6.00 Build 0)  -->
<svg version="1.1" id="Layer_1" xmlns="http://www.w3.org/2000/svg" xmlns:xlink="http://www.w3.org/1999/xlink" x="0px" y="0px"
	 viewBox="0 0 750.2 400.1" style="enable-background:new 0 0 750.2 400.1;" xml:space="preserve">
<g>
	<path d="M300.1,149.8c0,0-7.5-8-10.6-22.1c-1.5-7-3.8-19.9-9.3-32.4c-5.5-12.5-14.3-24.7-28.7-30.3l-4.7-1.3
		c-5,6.6-13.2,12.6-19.1,15.3c-5.9,2.6-14,4.7-14,4.7l-0.5,0.1l0-0.1c-3.8,0.9-7.6,1.5-11.4,1.5c-0.4,0-0.7,0-1.1,0
		c-2.9-0.1-5.7-0.5-8.4-1.1l0,0.1l-0.5-0.1c0,0-7.3-1.4-13.9-5.1c-4.7-2.7-11.6-8.3-17-13.4c-0.4-0.3-0.7-0.6-1.1-0.9l-0.1-0.1
		l-0.1-0.2c-0.3-0.3-0.6-0.6-0.9-0.8l-5.6,1.6c-14.4,5.7-23.2,17.8-28.7,30.3c-5.5,12.5-7.8,25.4-9.3,32.4
		c-2.8,13-9.3,20.7-10.4,21.9l0,7h195.6l0-6.7L300.1,149.8L300.1,149.8z"/>
	<path d="M251.6,48.8l0,0.3c0,2.8-0.7,8.6-4.2,13.6l4.4,1.3l0,0c14.8,5.8,23.7,18.2,29.3,30.9c5.6,12.7,7.9,25.6,9.4,32.6
		c2.6,12.2,8.6,19.7,10,21.3l48.8,9.7l16.4-75.1L251.6,48.8z"/>
	<path d="M103.7,148.9c1.4-1.6,7.4-9,10.1-21.2c1.5-7,4-19.9,9.4-32.6c6.1-14.5,15.3-25.4,30.1-31.2l-0.6,0.2l4.4-1.3
		c-3.5-5-3.3-10.8-3.4-13.6c0-0.3-0.1-0.1-0.1-0.3l-114,34.5l16.4,75.1L103.7,148.9z"/>
	<path d="M511.9,47.5c-2.1,0.1-4.1,0.2-5.8,0.4c-1.9,0.1-3.5,0.2-4.8,0.3c-1.1,0.1-1.6,0.1-1.9,0.2l0,0l-0.1,0c0,0,0,0-0.1,0
		l-14,4.3L384.1,83.4l16.6,74.4l46.4-8.9c0.2-0.2,0.4-0.5,0.6-0.8c0.7-0.9,1.7-2.3,2.8-4.2c2.2-3.7,4.8-9.1,6.3-16.1
		c1.5-7,3.5-18.7,8.7-30.9c5.2-12.1,13.7-24.6,28.2-33.1l26-16.6C516.9,47.3,514.3,47.4,511.9,47.5L511.9,47.5z"/>
	<path d="M593.8,48.2l-0.3,0c-4-0.3-12.4-0.7-20.4-1l24.2,16.6c14.5,8.5,23,21,28.2,33.1c5.2,12.1,7.2,23.9,8.7,30.9
		c1.5,7,4.1,12.4,6.3,16.1c1.1,1.8,2.2,3.5,3,4.5c0.2,0.3,4.1,0.7,4.3,0.9l46.3,8.5l16.6-74.4L593.8,48.2z"/>
</g>
</svg>
