<?xml version="1.0" encoding="utf-8"?>
<!-- Generator: Adobe Illustrator 25.3.0, SVG Export Plug-In . SVG Version: 6.00 Build 0)  -->
<svg version="1.1" id="Layer_1" xmlns="http://www.w3.org/2000/svg" xmlns:xlink="http://www.w3.org/1999/xlink" x="0px" y="0px"
	 viewBox="0 0 750.2 400.1" style="enable-background:new 0 0 750.2 400.1;" xml:space="preserve">
<path d="M223.4,357.1l-17.8-3.2l-3.3,3.7c0,0,0,0,0,0C207.9,357.6,215.2,357.4,223.4,357.1z"/>
<path d="M299.4,345.2l-37-6.7l-15.9,17.7c4.9-0.2,9.8-0.5,14.6-0.7l6.9-7.6l25,4.6l-1.3,1.4c2.3-0.1,4.3-0.2,5.7-0.3
	c1.2-0.1,2.1-0.1,2.6-0.2l0-8.8L299.4,345.2z"/>
<path d="M298.1,312.8l1.9,0.4l0-24.2L286,304l-34.7-6.9l-19.5,20.6l-34.7-6.9l-19.5,20.6l-34.7-6.9l-19.5,20.6l-18.8-3.7l0,7.1
	l16.1,3.2l-2.1,2.2c4.6,0.3,10.1,0.6,16.1,0.9l0.9-0.9l6.6,1.3c0.2,0,0.5,0,0.7,0c10.2,0.5,21.1,1,31.3,1.4l15.6-16.5l34.7,6.9
	l19.5-20.6l34.7,6.9L298.1,312.8z M161.8,352.2l-23.5-4.6l13.2-14l23.5,4.6L161.8,352.2z M216,338.4l-23.5-4.6l13.1-14l23.5,4.6
	L216,338.4z M246.7,320l13.2-14l23.5,4.6l-13.2,14L246.7,320z"/>
<path d="M300.1,281.7l0-5.9l-12.5-2.7l12.5-12.6l0-6.3l-11.2-2.4l-19,19.1l-32.4-7l-19,19.1l-32.4-7l-19,19.1l-32.4-7l-19,19.1
	l-10.9-2.3l0,5.8l11.9,2.6l-11.9,12l0,7l10.6,2.3l19-19.1l32.4,7l19-19.1l32.4,7l19-19.1l32.4,7l19-19.1L300.1,281.7z M155.2,314.2
	l-21.9-4.7l12.9-12.9l21.9,4.7L155.2,314.2z M206.7,302l-21.9-4.7l12.9-12.9l21.9,4.7L206.7,302z M258.1,289.9l-21.9-4.7l12.9-12.9
	L271,277L258.1,289.9z"/>
<path d="M300.2,239.7l-5.4,5.1l-20.4-4.8l12.6-11.9l13.2,3.1l0-4.4l-27.8-6.6l-18.6,17.6l-30.1-7.2l-18.6,17.6l-30.1-7.2l-18.6,17.6
	l-30.1-7.2l-18.6,17.6l-2.9-0.7l0,4.4l7.7,1.8l-7.7,7.3l0,10.1l9.7,2.3l18.6-17.6l30.1,7.2l18.6-17.6l30.1,7.2l18.6-17.6l30.1,7.2
	l18.6-17.6l20.9,5L300.2,239.7z M148.6,276.2l-20.4-4.8l12.6-11.9l20.4,4.8L148.6,276.2z M197.3,265.7l-20.4-4.8l12.6-11.9l20.4,4.8
	L197.3,265.7z M246.1,255.3l-20.4-4.8l12.6-11.9l20.4,4.8L246.1,255.3z"/>
<path d="M131.7,238.2l27.9,7.3l18.1-16.1l27.9,7.3l18.1-16.1l27.9,7.3l18.1-16.1l27.9,7.3l2.6-2.3l0-35.5l-16.5,14.6l-27.9-7.3
	l-18.1,16.1l-27.9-7.3l-18.1,16.1l-27.9-7.3l-18.1,16.1l-27.9-7.3l-13.2,11.7l0,8.5l3.6,0.9l-3.6,3.2l0,12.8l8.9,2.3L131.7,238.2z
	 M273.5,196l18.8,4.9L280,211.8l-18.8-4.9L273.5,196z M227.5,204.8l18.8,4.9L234,220.6l-18.8-4.9L227.5,204.8z M181.5,213.6
	l18.8,4.9L188,229.4l-18.8-4.9L181.5,213.6z M135.4,222.4l18.8,4.9L142,238.2l-18.8-4.9L135.4,222.4z"/>
<path d="M265,164.5l-25.6-7.4l-17.7,14.6l-25.6-7.4l-17.7,14.6l-25.6-7.4l-17.7,14.6l-25.6-7.4l-4.8,4l0,29.4l8,2.3l17.7-14.6
	L156,207l17.7-14.6l25.6,7.4l17.7-14.6l25.6,7.4l17.7-14.6l25.6,7.4l14.4-11.8l0-4.6l-9-2.6l9-7.4l0-4.2l-17.6-5.1L265,164.5z
	 M135.4,200.2l-17.3-5l12-9.8l17.3,5L135.4,200.2z M178.7,193l-17.3-5l12-9.8l17.3,5L178.7,193z M222,185.9l-17.3-5l12-9.8l17.3,5
	L222,185.9z M265.3,178.8l-17.3-5l12-9.8l17.3,5L265.3,178.8z"/>
<polygon points="249.6,145.5 250.5,145.8 251.7,144.9 250.8,144.5 "/>
<polygon points="204.7,138.2 182.3,130.9 166.2,143.1 181.1,147.9 170.6,155.8 193,163.1 209,150.9 194.2,146.1 "/>
<polygon points="247.4,132.1 246.4,131.8 245.2,132.7 246.2,133 "/>
<path d="M293.2,138.7l-0.9,0.6l1.4,0.4C293.5,139.5,293.3,139.1,293.2,138.7z"/>
<polygon points="292.3,139.4 291.4,139.1 290.2,140 291.1,140.3 "/>
<polygon points="285.8,127.3 286.8,127.6 288,126.7 287,126.4 "/>
<polygon points="209,150.9 210,151.2 211.2,150.3 210.2,150 "/>
<polygon points="247.4,132.1 262.2,136.9 251.7,144.9 274.1,152.1 290.2,140 275.4,135.2 285.8,127.3 263.4,120 "/>
<polygon points="127.9,161.9 128.8,162.2 130,161.2 129.1,160.9 "/>
<path d="M123.5,149.1l-15-4.9c-1.8,3-3.4,4.8-3.8,5.4l0,22l7.1,2.3l16.1-12.1l-14.8-4.8L123.5,149.1z"/>
<polygon points="125.7,148.5 124.7,148.2 123.5,149.1 124.5,149.4 "/>
<polygon points="206.8,137.6 205.9,137.3 204.7,138.2 205.6,138.5 "/>
<polygon points="168.4,156.4 169.4,156.7 170.6,155.8 169.6,155.5 "/>
<polygon points="166.2,143.1 165.3,142.8 164.1,143.7 165,144 "/>
<polygon points="164.1,143.7 141.7,136.4 125.7,148.5 140.5,153.3 130,161.2 152.4,168.5 168.4,156.4 153.6,151.6 "/>
<polygon points="245.2,132.7 222.9,125.5 206.8,137.6 221.6,142.4 211.2,150.3 233.5,157.6 249.6,145.5 234.8,140.6 "/>
<path d="M289.4,127.1c-0.1-0.4-0.2-0.9-0.3-1.3l-1.2,0.9L289.4,127.1z"/>
<path d="M168.5,97.7l-16.8,11.5l-21-7.7l-11.2,7.7c-0.2,0.8-0.5,1.6-0.7,2.4l0.6-0.4l14.2,5.2l-11.4,7.8l-5.9-2.2
	c-0.5,2.1-0.8,4.1-1.2,5.7c-0.3,1.4-0.7,2.7-1,4l13.7-9.4l21,7.7l16.8-11.5l21,7.7l16.8-11.5l21,7.7l16.8-11.5l21,7.7l16.8-11.5
	l6,2.2c-0.6-2.2-1.3-4.5-2.2-6.8l-9.4,6.4l-14.2-5.2l11.4-7.8l11.4,4.2c-0.6-1.6-1.3-3.2-2-4.9c-0.9-1.9-1.8-3.9-2.8-5.8l-12.1,8.3
	l-21-7.7l-16.8,11.5l-21-7.7l-16.8,11.5L168.5,97.7z M160.1,120.4l-14.2-5.2l11.4-7.8l14.2,5.2L160.1,120.4z M232.9,99.7l14.2,5.2
	l-11.4,7.8l-14.2-5.2L232.9,99.7z M209.3,108.8l-11.4,7.8l-14.2-5.2l11.4-7.8L209.3,108.8z"/>
<path d="M129.8,85.1l15.4,6.5l16.4-10l18.8,7.9l9.6-5.9c-2.5-0.6-7.5-2.1-12.1-4.7c-0.6-0.3-1.1-0.7-1.7-1.1l-2.9-1.2l0.6-0.3
	c-3.1-2.2-6.5-5-9.8-7.9l-9.3-3.9l-0.1,0l-16.2,9.9C135.1,77.6,132.2,81.2,129.8,85.1z M149.1,71.9l12.7,5.3L150.7,84l-12.7-5.3
	L149.1,71.9z"/>
<path d="M227.6,78.8c-5.9,2.6-14,4.7-14,4.7l-0.5,0.1l0-0.1c-1.4,0.4-2.8,0.6-4.3,0.9l6.7,2.8l16.4-10l18.8,7.9l16.3-10
	c-0.9-0.9-1.8-1.7-2.7-2.5l-8.1,4.9l-12.7-5.3l10.4-6.3c-0.8-0.4-1.6-0.7-2.4-1l-1.8-0.5l-5.9,3.6l-0.6-0.3
	C238.3,72.6,232.3,76.7,227.6,78.8z"/>
<path d="M538.5,353.9l-37,6.7l-19.9-22.2l-33.7,6.1l0,8.8c0.1,0,0.3,0.1,0.6,0.1c0.7,0.1,1.9,0.2,3.9,0.3l-1.3-1.5l25-4.6l13.4,15
	l-0.4,0.1c1.1,0.4,2.3,0.7,3.4,1.1c5.1,1.6,10.4,3.1,16,4.5l-0.6-0.6l25-4.6l8.7,9.7c0.7,0,1.4,0,2.2,0c0.5,0,1.1,0,1.6,0
	c3.3,0,6.6-0.2,9.8-0.5L538.5,353.9z"/>
<path d="M623.2,352l19.9-4l0-7.1l-22.7,4.4L601,324.7l-34.7,6.9l-19.5-20.6l-34.7,6.9l-19.5-20.6L458,304l-10.2-10.8l0,21.7
	l17.5,18.6l34.7-6.9l19.5,20.6l34.7-6.9l19.5,20.6l34.7-6.9l4,4.2c4.8-1.4,9.3-2.6,13.7-3.4L623.2,352z M473.9,324.6l-13.2-14
	l23.5-4.6l13.2,14L473.9,324.6z M528,338.4l-13.1-14l23.5-4.6l13.1,14L528,338.4z M582.2,352.2l-13.2-14l23.5-4.6l13.2,14
	L582.2,352.2z"/>
<path d="M558.2,303.4l19,19.1l32.4-7l19,19.1l14.5-3.1l0-5.9l-2.9,0.6l-12.9-12.9l15.8-3.4l0-5.8l-14.8,3.1l-19-19.1l-32.4,7
	L558,276l-32.4,7l-19-19.1l-32.4,7l-19-19.1l-7.3,1.6l0,11.1l8.6,8.6l-8.6,1.9l0,5.9l7.5-1.6l19,19.1l32.4-7l19,19.1L558.2,303.4z
	 M597.9,296.5l12.9,12.9l-21.9,4.7L576,301.2L597.9,296.5z M485.9,289.9L473.1,277l21.9-4.7l12.9,12.9L485.9,289.9z M546.4,284.4
	l12.9,12.9l-21.9,4.7l-12.9-12.9L546.4,284.4z"/>
<path d="M483.4,263.1l30.1-7.2l18.6,17.6l30.1-7.2l18.6,17.6l30.1-7.2l18.6,17.6l13.6-3.2l0-5.5l-11.6-11l11.7-2.8l0-4.4l-6.9,1.6
	l-18.6-17.6l-30.1,7.2l-18.6-17.6l-30.1,7.2l-18.6-17.6l-30.1,7.2l-18.6-17.6l-23.8,5.7l0,4.4l9.3-2.2l12.6,11.9l-20.4,4.8l-1.4-1.4
	l0,6.1l17-4L483.4,263.1z M603.2,259.4l12.6,11.9l-20.4,4.8l-12.6-11.9L603.2,259.4z M554.5,249l12.6,11.9l-20.4,4.8l-12.6-11.9
	L554.5,249z M505.8,238.5l12.6,11.9l-20.4,4.8l-12.6-11.9L505.8,238.5z"/>
<path d="M492.4,227.9l27.9-7.3l18.1,16.1l27.9-7.3l18.1,16.1l27.9-7.3l18.1,16.1l12.8-3.3l0-8.2l-7.5-6.6l7.5-2l0-3.9L626.2,215
	l-27.9,7.3l-18.1-16.1l-27.9,7.3l-18.1-16.1l-27.9,7.3l-18.1-16.1l-27.9,7.3l-12.5-11.1l0,33.9l26.5-6.9L492.4,227.9z M608.6,222.4
	l12.3,10.9l-18.8,4.9l-12.3-10.9L608.6,222.4z M562.6,213.6l12.3,10.9l-18.8,4.9l-12.3-10.9L562.6,213.6z M516.6,204.8l12.3,10.9
	l-18.8,4.9l-12.3-10.9L516.6,204.8z M451.7,200.9l18.8-4.9l12.3,10.9l-18.8,4.9L451.7,200.9z"/>
<path d="M447.8,177.1l10.4,8.6l25.6-7.4l17.7,14.6l25.6-7.4l17.7,14.6l25.6-7.4L588,207l25.6-7.4l17.7,14.6l11.9-3.5l0-10.5
	l-3.4-2.8l3.4-1l0-10.8l-8.8-7.2l-25.6,7.4l-17.7-14.6l-25.6,7.4l-17.7-14.6l-25.6,7.4l-17.7-14.6l-25.6,7.4l-17.7-14.6l-13.6,3.9
	l0,8.7l5,4.1l-5,1.4L447.8,177.1z M614,185.3l12,9.8l-17.3,5l-12-9.8L614,185.3z M570.7,178.2l12,9.8l-17.3,5l-12-9.8L570.7,178.2z
	 M527.4,171l12,9.8l-17.3,5l-12-9.8L527.4,171z M484.1,163.9l12,9.8l-17.3,5l-12-9.8L484.1,163.9z"/>
<polygon points="498.8,132.7 497.6,131.8 496.7,132.1 497.9,133 "/>
<path d="M458,127.4l0.2-0.1l-0.2-0.1C458,127.2,458,127.3,458,127.4z"/>
<polygon points="492.3,144.9 481.8,136.9 496.7,132.1 480.6,120 458.2,127.3 468.7,135.2 453.9,140 469.9,152.1 "/>
<path d="M453.8,139.9c0,0,0,0.1-0.1,0.1L453.8,139.9L453.8,139.9z"/>
<polygon points="492.3,144.9 493.5,145.8 494.4,145.5 493.2,144.5 "/>
<polygon points="573.4,155.8 574.7,156.7 575.6,156.4 574.4,155.5 "/>
<polygon points="579.9,143.7 578.7,142.8 577.8,143.1 579,144 "/>
<polygon points="614,161.2 615.2,162.2 616.2,161.9 615,160.9 "/>
<polygon points="575.6,156.4 591.6,168.5 614,161.2 603.6,153.3 618.4,148.5 602.3,136.4 579.9,143.7 590.4,151.6 "/>
<polygon points="620.5,149.1 619.3,148.2 618.4,148.5 619.6,149.4 "/>
<polygon points="494.4,145.5 510.5,157.6 532.9,150.3 522.4,142.4 537.2,137.6 521.2,125.5 498.8,132.7 509.3,140.6 "/>
<polygon points="532.9,150.3 534.1,151.2 535,150.9 533.8,150 "/>
<polygon points="539.4,138.2 538.2,137.3 537.2,137.6 538.4,138.5 "/>
<polygon points="535,150.9 551.1,163.1 573.4,155.8 563,147.9 577.8,143.1 561.7,130.9 539.4,138.2 549.8,146.1 "/>
<path d="M616.2,161.9l16.1,12.1l11.1-3.6l0-20.7c-0.7-0.9-2.5-3.1-4.5-6.5l-18.4,6L631,157L616.2,161.9z"/>
<path d="M481.7,118.6l21-7.7l16.8,11.5l21-7.7l16.8,11.5l21-7.7l16.8,11.5l21-7.7l16.8,11.5l1.5-0.5c-0.5-1.7-1-3.4-1.4-5.3
	c-0.5-2.1-0.9-4.6-1.5-7.4l-9.8,3.6l-11.4-7.8l14.2-5.2l5.6,3.9c-0.2-0.8-0.4-1.6-0.6-2.4l-16.3-11.2l-21,7.7l-16.8-11.5l-21,7.7
	l-16.8-11.5l-21,7.7l-16.8-11.5l-21,7.7l-9.5-6.5c-1,2-2,4-2.9,6c-0.2,0.4-0.4,0.9-0.5,1.3l7.3-2.7l11.4,7.8l-14.2,5.2l-6.6-4.5
	c-0.4,1.2-0.8,2.3-1.1,3.5l2.2-0.8L481.7,118.6z M586.8,107.4l11.4,7.8l-14.2,5.2l-11.4-7.8L586.8,107.4z M549,103.5l11.4,7.8
	l-14.2,5.2l-11.4-7.8L549,103.5z M511.1,99.7l11.4,7.8l-14.2,5.2l-11.4-7.8L511.1,99.7z"/>
<path d="M494.3,64.6c-1.1,0.6-2.1,1.3-3.1,2l9.4,5.7l-12.7,5.3L482,74c-0.9,0.8-1.7,1.7-2.5,2.6l13.9,8.5l18.8-7.9l16.4,10l18.8-7.9
	l16.4,10l18.8-7.9l16.4,10l18.3-7.7c-2.5-3.7-5.4-7.2-8.9-10.5l-2.6,1.1l-16.4-10l-18.8,7.9l-16.4-10l-18.8,7.9l-16.4-10L500.3,68
	l-5.8-3.6L494.3,64.6L494.3,64.6z M594.9,71.9l11.1,6.8L593.3,84l-11.1-6.8L594.9,71.9z M559.8,69.8l11.1,6.8l-12.7,5.3l-11.1-6.8
	L559.8,69.8z M524.6,67.7l11.1,6.8L523,79.7L511.9,73L524.6,67.7z"/>
<path d="M548.9,46.6c-1.3,0-2.6,0-3.9,0c-2.4,0-4.7,0-7,0.1l-0.2,0.1l-0.2-0.1c-3.3,0-6.6,0.1-9.8,0.2l9.8,5.2L548.9,46.6z"/>
<path d="M570,52.5l5.5-2.7l-3.9-2.7c-0.4,0-0.8,0-1.3-0.1l-0.1,0.1l-0.2-0.1c-3.4-0.1-7.1-0.3-10.9-0.4L570,52.5z"/>
</svg>
