<?xml version="1.0" encoding="utf-8"?>
<!-- Generator: Adobe Illustrator 25.3.0, SVG Export Plug-In . SVG Version: 6.00 Build 0)  -->
<svg version="1.1" id="Layer_1" xmlns="http://www.w3.org/2000/svg" xmlns:xlink="http://www.w3.org/1999/xlink" x="0px" y="0px"
	 viewBox="0 0 750.2 400.1" style="enable-background:new 0 0 750.2 400.1;" xml:space="preserve">
<g>
	<path d="M351.7,238.6c-0.2-1.1-0.4-2.2-0.5-3.3l-21.2,4.5l0.6,3.3L351.7,238.6z"/>
	<path d="M350.3,230.2c-0.2-1.1-0.4-2.2-0.6-3.3l-21.3,4.5l0.6,3.3L350.3,230.2z"/>
	<path d="M348.9,221.8c-0.2-1.1-0.4-2.2-0.6-3.3l-21.3,4.5l0.6,3.3L348.9,221.8z"/>
	<path d="M347.4,213.4c-0.2-1.1-0.4-2.2-0.6-3.3l-21.2,4.5l0.6,3.3L347.4,213.4z"/>
	<path d="M345.9,205.1c-0.2-1.1-0.4-2.2-0.6-3.3l-21.1,4.5l0.6,3.3L345.9,205.1z"/>
	<path d="M344.3,196.8c-0.2-1.1-0.4-2.2-0.6-3.3l-21,4.4l0.6,3.3L344.3,196.8z"/>
	<path d="M337.1,280.4l0.3,2c6.1-1.3,12.5-2.7,19.1-4.4c0-0.5-0.1-1.1-0.1-1.7L337.1,280.4z"/>
	<path d="M356.2,273.6c-0.1-1.9-0.3-3.8-0.5-5.8l-20,4.2l1,5.7L356.2,273.6z"/>
	<path d="M355.3,265.1c-0.2-1.9-0.4-3.8-0.7-5.8l-20.5,4.3l1,5.7L355.3,265.1z"/>
	<path d="M333.7,261l20.6-4.4c-0.2-1.9-0.5-3.8-0.8-5.7l-20.8,4.4L333.7,261z"/>
	<path d="M353.2,248.3c-0.3-1.9-0.6-3.8-0.9-5.7l-21.1,4.5l1,5.7L353.2,248.3z"/>
	<path d="M333.6,144.1l-19.6,4.1l0.6,3.3l19.7-4.2C334.1,146.3,333.9,145.2,333.6,144.1z"/>
	<path d="M332.5,139.1c-0.2-1.1-0.5-2.2-0.7-3.3l-19.2,4.1l0.6,3.3L332.5,139.1z"/>
	<path d="M330.7,130.9c-0.3-1.1-0.5-2.2-0.7-3.3l-18.8,4l0.6,3.3L330.7,130.9z"/>
	<path d="M310.1,125.6l0.2,0.9l10.9-2.3C318.2,124.6,314.5,125.1,310.1,125.6z"/>
	<path d="M342.6,187.8c-0.1-0.5-0.2-0.9-0.3-1.4l-20.9,4.4l0.2,1.4L342.6,187.8z"/>
	<path d="M341,179.5c-0.1-0.5-0.2-0.9-0.3-1.4l-20.7,4.4l0.2,1.4L341,179.5z"/>
	<path d="M339,169.8l-20.4,4.3l0.2,1.4l20.5-4.3C339.2,170.7,339.1,170.2,339,169.8z"/>
	<path d="M337.3,161.5l-20.2,4.3l0.2,1.4l20.2-4.3C337.5,162.4,337.4,161.9,337.3,161.5z"/>
	<path d="M335.6,153.2l-19.9,4.2l0.2,1.4l19.9-4.2C335.7,154.1,335.6,153.6,335.6,153.2z"/>
	<path d="M608.5,240.6l0.6,3.3l21.1-4.5c-0.2-1.1-0.4-2.2-0.5-3.3L608.5,240.6z"/>
	<path d="M607,232.2l0.6,3.3l21.2-4.5c-0.2-1.1-0.4-2.2-0.6-3.3L607,232.2z"/>
	<path d="M605.6,223.9l0.6,3.3l21.3-4.5c-0.2-1.1-0.4-2.2-0.6-3.3L605.6,223.9z"/>
	<path d="M604.1,215.5l0.6,3.3l21.2-4.5c-0.2-1.1-0.4-2.2-0.6-3.3L604.1,215.5z"/>
	<path d="M602.7,207.1l0.6,3.3l21.2-4.5c-0.2-1.1-0.4-2.2-0.6-3.3L602.7,207.1z"/>
	<path d="M601.8,202.1l21.1-4.5c-0.2-1.1-0.4-2.2-0.6-3.3l-21,4.4L601.8,202.1z"/>
	<path d="M615.6,281.5l0.2,0.9c6.1-1.3,12.5-2.7,19.1-4.4c0-0.2,0-0.5,0-0.7l-18.6,3.9C615.9,281.3,615.7,281.4,615.6,281.5z"/>
	<path d="M614.4,272.9c-0.1,0-0.2,0.1-0.3,0.1l1,5.5c0.2,0,0.3,0.1,0.5,0l19-4c-0.1-1.9-0.3-3.8-0.5-5.8L614.4,272.9z"/>
	<path d="M612.7,264.6l1,5.7c0.1,0,0.1,0,0.2,0l19.9-4.2c-0.2-1.9-0.4-3.8-0.7-5.8L612.7,264.6z"/>
	<path d="M612.2,261.9l20.6-4.3c-0.2-1.9-0.5-3.8-0.8-5.8l-20.8,4.4L612.2,261.9z"/>
	<path d="M609.8,247.9l1,5.7l20.9-4.4c-0.3-1.9-0.6-3.8-0.8-5.7L609.8,247.9z"/>
	<path d="M593.1,152.5l19.7-4.2c-0.2-1.1-0.5-2.2-0.7-3.3l-19.6,4.1L593.1,152.5z"/>
	<path d="M591.7,144.1l19.4-4.1c-0.2-1.1-0.5-2.2-0.7-3.3l-19.3,4.1L591.7,144.1z"/>
	<path d="M590.2,135.8l19-4c-0.3-1.1-0.5-2.2-0.7-3.3l-18.9,4L590.2,135.8z"/>
	<path d="M588.5,125.6l0.3,1.8l18.7-3.9c0-0.2-0.1-0.3-0.1-0.5C605,123.4,598.5,124.4,588.5,125.6z"/>
	<path d="M600.2,193.1l20.9-4.4c-0.1-0.5-0.2-0.9-0.3-1.4l-20.9,4.4L600.2,193.1z"/>
	<path d="M598.8,184.8l20.7-4.4c-0.1-0.5-0.2-0.9-0.3-1.4l-20.7,4.4L598.8,184.8z"/>
	<path d="M597.3,176.4l20.5-4.3c-0.1-0.5-0.2-0.9-0.3-1.4l-20.5,4.3L597.3,176.4z"/>
	<path d="M595.8,168l20.3-4.3c-0.1-0.5-0.2-0.9-0.3-1.4l-20.2,4.3L595.8,168z"/>
	<path d="M594.4,159.7l20-4.2c-0.1-0.5-0.2-0.9-0.3-1.4l-19.9,4.2L594.4,159.7z"/>
	<path d="M401.3,237.2l0.1-0.4l15.4,3.3l0.6-3.3l-15.3-3.2l0.1-0.4c0.1-0.4-0.2-0.9-0.7-1l-2-0.4c-0.3,1.9-0.6,3.8-0.9,5.7l1.7,0.4
		C400.7,237.9,401.2,237.6,401.3,237.2z"/>
	<path d="M403,228.9l0.1-0.4l15.1,3.2l0.6-3.3l-15-3.2l0.1-0.4c0.1-0.4-0.2-0.9-0.7-1l-2.4-0.5c-0.3,1.9-0.7,3.8-1,5.7l2.1,0.5
		C402.5,229.6,403,229.3,403,228.9z"/>
	<path d="M420.3,220l-14.7-3.1l0.1-0.4c0.1-0.4-0.2-0.9-0.7-1l-2.6-0.6c-0.3,1.9-0.7,3.8-1,5.7l2.5,0.5c0.5,0.1,1-0.2,1.1-0.6
		l0.1-0.4l14.8,3.1L420.3,220z"/>
	<path d="M402.8,212.3l2.7,0.6c0.5,0.1,1-0.2,1.1-0.6l0.1-0.4l14.5,3.1l0.6-3.3l-14.4-3l0.1-0.4c0.1-0.4-0.2-0.9-0.7-1l-2.9-0.6
		C403.5,208.5,403.1,210.4,402.8,212.3z"/>
	<path d="M423.2,203.3l-14.1-3l0.1-0.4c0.1-0.4-0.2-0.9-0.7-1l-3.1-0.6c-0.4,1.9-0.7,3.8-1.1,5.7l2.9,0.6c0.5,0.1,1-0.2,1.1-0.6
		l0.1-0.4l14.2,3L423.2,203.3z"/>
	<path d="M424.7,194.9l-13.8-2.9l0.1-0.4c0.1-0.4-0.2-0.9-0.7-1L407,190c-0.4,1.9-0.7,3.8-1.1,5.7l3.1,0.7c0.5,0.1,1-0.2,1.1-0.6
		l0.1-0.4l13.9,2.9L424.7,194.9z"/>
	<path d="M409.6,281.8l0.7-4.3l-16.1-3.4c-0.2,0-0.3,0-0.5,0c-0.1,1.3-0.2,2.6-0.3,3.9C399,279.4,404.4,280.7,409.6,281.8z"/>
	<path d="M394.8,271.5l16,3.4l1-5.7l-15.8-3.3c-0.5-0.1-1,0.2-1.1,0.6l-0.1,0.4l-0.4-0.1c-0.1,1.2-0.2,2.3-0.3,3.4l0,0l0,0.2
		c0,0.2,0,0.3,0,0.5C394.1,271.1,394.4,271.4,394.8,271.5z"/>
	<path d="M395.8,262.2c-0.1,0.4,0.2,0.9,0.7,1l15.7,3.3l1-5.7l-15.5-3.3c-0.5-0.1-1,0.2-1.1,0.6l-0.1,0.4l-1.1-0.2
		c-0.1,1.1-0.3,2.3-0.4,3.4l0.9,0.2L395.8,262.2z"/>
	<path d="M413.7,258.1l1-5.7l-15.2-3.2c-0.5-0.1-1,0.2-1.1,0.6l-0.1,0.4l-1.8-0.4c-0.2,1.1-0.3,2.3-0.5,3.4l1.5,0.3l-0.1,0.4
		c-0.1,0.4,0.2,0.9,0.7,1L413.7,258.1z"/>
	<path d="M400.1,246.5l15.1,3.2l1-5.7l-14.9-3.1c-0.5-0.1-1,0.2-1.1,0.6l-0.1,0.4l-2.3-0.5c-0.2,1.1-0.3,2.2-0.5,3.4l2.1,0.4
		l-0.1,0.4C399.2,246,399.6,246.4,400.1,246.5z"/>
	<path d="M424.6,144.1l-0.1,0.5l-7.9-1.7c-0.1,0.4-0.2,0.9-0.3,1.4l7.9,1.7l-0.1,0.3c-0.1,0.3,0.2,0.7,0.6,0.8l8,1.7l0.6-3.3
		l-7.9-1.7C425.1,143.6,424.7,143.8,424.6,144.1z"/>
	<path d="M426.5,138.7l7.7,1.6l0.6-3.3l-7.6-1.6c-0.4-0.1-0.8,0.1-0.8,0.5l-0.1,0.5l-7.8-1.7c-0.1,0.4-0.2,0.9-0.3,1.4l7.8,1.7
		l-0.1,0.3C425.8,138.2,426.1,138.6,426.5,138.7z"/>
	<path d="M428.1,127.5L428,128l-7.7-1.6c-0.1,0.4-0.2,0.9-0.3,1.4l7.8,1.6l-0.1,0.3c-0.1,0.3,0.2,0.7,0.6,0.8l7.4,1.6l0.6-3.3
		L429,127C428.6,127,428.2,127.2,428.1,127.5z"/>
	<path d="M407.7,186.4l7.6,1.6c0.4,0.1,0.8-0.1,0.8-0.5l0.1-0.3l9.5,2l0.2-1.4l-9.4-2l0.1-0.5c0.1-0.3-0.2-0.7-0.6-0.8l-7.6-1.6
		C408.1,184.1,407.9,185.2,407.7,186.4z"/>
	<path d="M418.2,177.6l0.1-0.5c0.1-0.3-0.2-0.7-0.6-0.8l-7.7-1.6c-0.2,1.1-0.4,2.2-0.7,3.3l7.7,1.6c0.4,0.1,0.8-0.1,0.8-0.5l0.1-0.3
		l9.2,1.9l0.2-1.4L418.2,177.6z"/>
	<path d="M420.1,168.8c0.1-0.3-0.2-0.7-0.6-0.8l-7.8-1.6c-0.2,1.1-0.5,2.2-0.7,3.3l7.8,1.6c0.4,0.1,0.8-0.1,0.8-0.5l0.1-0.3l8.9,1.9
		l0.2-1.4l-8.8-1.9L420.1,168.8z"/>
	<path d="M421.8,160.5c0.1-0.3-0.2-0.7-0.6-0.8l-7.8-1.7c-0.2,1.1-0.5,2.2-0.7,3.3l7.8,1.7c0.4,0.1,0.8-0.1,0.8-0.5l0.1-0.3l8.6,1.8
		l0.2-1.4l-8.5-1.8L421.8,160.5z"/>
	<path d="M423.5,152.7l0.1-0.5c0.1-0.3-0.2-0.7-0.6-0.8l-7.8-1.7c-0.2,1.1-0.5,2.2-0.7,3.3l7.8,1.7c0.4,0.1,0.8-0.1,0.8-0.5l0.1-0.3
		l8.3,1.8l0.2-1.4L423.5,152.7z"/>
	<path d="M138.4,240.8l-18.1-3.8c-0.2,1.1-0.4,2.2-0.5,3.3l18.1,3.8L138.4,240.8z"/>
	<path d="M139.8,232.4l-18.2-3.9c-0.2,1.1-0.4,2.2-0.6,3.3l18.2,3.8L139.8,232.4z"/>
	<path d="M141.3,224.1l-18.2-3.9c-0.2,1.1-0.4,2.2-0.6,3.3l18.2,3.9L141.3,224.1z"/>
	<path d="M142.7,215.7l-18.2-3.8c-0.2,1.1-0.4,2.2-0.6,3.3l18.2,3.9L142.7,215.7z"/>
	<path d="M144.2,207.3l-18.1-3.8c-0.2,1.1-0.4,2.2-0.6,3.3l18.2,3.8L144.2,207.3z"/>
	<path d="M145.6,199l-18-3.8c-0.2,1.1-0.4,2.2-0.6,3.3l18.1,3.8L145.6,199z"/>
	<path d="M129.8,281.2l-11.6-2.5c4.1,1,8.2,2,12.2,2.8C130.3,281.4,130.1,281.3,129.8,281.2z"/>
	<path d="M131.4,278l0.1-0.4l0.4,0.1l0.6-3.3l-0.3-0.1l0.1-0.4c0.1-0.4-0.2-0.9-0.7-1l-15.7-3.3c-0.2,2-0.4,4-0.5,5.8l15,3.2
		C130.9,278.7,131.3,278.4,131.4,278z"/>
	<path d="M133.2,269.7l0.1-0.4l0.1,0l0.6-3.3l0,0l0.1-0.4l0,0c0.1-0.4-0.2-0.8-0.7-1l-16.5-3.5c-0.2,2-0.5,3.9-0.7,5.8l16,3.4
		C132.6,270.4,133.1,270.1,133.2,269.7z"/>
	<path d="M135.1,256.3l-17.2-3.6c-0.3,2-0.5,3.9-0.8,5.8l16.8,3.5c0.3,0.1,0.6,0,0.8-0.2l0.9-5.1
		C135.5,256.5,135.3,256.4,135.1,256.3z"/>
	<path d="M136.1,253.6l1-5.5c-0.1,0-0.2-0.1-0.3-0.1l-17.7-3.7c-0.3,1.9-0.6,3.9-0.8,5.7l17.4,3.7
		C135.8,253.7,136,253.7,136.1,253.6z"/>
	<path d="M154.3,149.4l-16.6-3.5c-0.2,1.1-0.5,2.2-0.7,3.3l16.7,3.5L154.3,149.4z"/>
	<path d="M155.7,141l-16.3-3.4c-0.2,1.1-0.5,2.2-0.7,3.3l16.4,3.5L155.7,141z"/>
	<path d="M157.2,132.6l-15.9-3.4c-0.2,1.1-0.5,2.2-0.7,3.3l16,3.4L157.2,132.6z"/>
	<path d="M158.4,125.8c-8.4-0.9-13.9-1.7-15.9-1.9c0,0.2-0.1,0.3-0.1,0.5l15.7,3.3L158.4,125.8z"/>
	<path d="M146.6,193.3l0.2-1.4l-17.9-3.8c-0.1,0.5-0.2,0.9-0.3,1.4L146.6,193.3z"/>
	<path d="M148.1,184.9l0.2-1.4l-17.7-3.7c-0.1,0.5-0.2,0.9-0.3,1.4L148.1,184.9z"/>
	<path d="M149.8,175.2l-17.5-3.7c-0.1,0.5-0.2,0.9-0.3,1.4l17.5,3.7L149.8,175.2z"/>
	<path d="M151,168.2l0.2-1.4l-17.2-3.6c-0.1,0.5-0.2,0.9-0.3,1.4L151,168.2z"/>
	<path d="M152.7,158.5l-16.9-3.6c-0.1,0.5-0.2,0.9-0.3,1.4l17,3.6L152.7,158.5z"/>
</g>
</svg>
