<?xml version="1.0" encoding="utf-8"?>
<!-- Generator: Adobe Illustrator 25.3.0, SVG Export Plug-In . SVG Version: 6.00 Build 0)  -->
<svg version="1.1" id="Layer_1" xmlns="http://www.w3.org/2000/svg" xmlns:xlink="http://www.w3.org/1999/xlink" x="0px" y="0px"
	 viewBox="0 0 750.2000122 400.1000061" style="enable-background:new 0 0 750.2000122 400.1000061;" xml:space="preserve">

<path class="st0" d="M393.9266357,127.2623596l4.9056396,22.0197144l52.3681641-10.5523682
	c0.6721191-3.2515869,1.1932373-7.4310913,1.3776855-12.8283691l0.0410156-1.2114258
	c0.1992188-5.8482666,0.4255371-12.3668823,0.7619019-18.9829712c-1.4208984,3.0254517-2.8189697,6.1923218-4.1835938,9.5245361
	C429.2314453,119.4865417,408.1420288,124.1177673,393.9266357,127.2623596z"/>
<path class="st0" d="M54.0019531,149.1271057l54.9484863-11.0723267c0.7010498-3.2972412,1.246521-7.5827637,1.4365845-13.1536865
	c0.1921997-5.6130371,0.4109497-12.1876831,0.7393799-19.0101318c-1.796875,2.9591675-3.5625,6.0578613-5.2694702,9.3405151
	c-20.6129761,4.3929443-42.4312134,9.1885376-56.6376343,12.333313L54.0019531,149.1271057z"/>
<path class="st0" d="M299.1152954,115.2314758c-1.9977417-3.8417358-4.071228-7.4511719-6.1876831-10.8511353
	c0.3613892,7.2443848,0.5932617,14.2539673,0.7965698,20.1906738c0.1954956,5.7297974,0.7676392,10.095459,1.4976807,13.4286499
	l56.1132812,11.3070068l4.8035278-21.6564331C341.9438477,124.5074768,319.9186401,119.6650085,299.1152954,115.2314758z"/>
<path class="st0" d="M700.6442261,127.436676c-14.2159424-3.1459351-35.7247925-7.8717041-56.05896-12.2052002
	c-2.2349243-5.4573364-4.5563965-10.4904175-6.9287109-15.137085c0.5113525,8.5068359,0.8081055,17.0814209,1.0610962,24.5101318
	l0.0410156,1.2114258c0.1760254,5.1508789,0.6603394,9.1833496,1.2880859,12.3690186l55.7023926,11.2242432L700.6442261,127.436676z
	"/>
</svg>
