<?xml version="1.0" encoding="utf-8"?>
<!-- Generator: Adobe Illustrator 25.3.0, SVG Export Plug-In . SVG Version: 6.00 Build 0)  -->
<svg version="1.1" id="Layer_1" xmlns="http://www.w3.org/2000/svg" xmlns:xlink="http://www.w3.org/1999/xlink" x="0px" y="0px"
	 viewBox="0 0 750.2 400.1" style="enable-background:new 0 0 750.2 400.1;" xml:space="preserve">
<g>
	<path d="M300.1,353.3l0-44.1l-97,15.2l-98.4-15.6l0,44.5c0.5,0,1.4,0.1,2.6,0.2c2,0.1,4.8,0.3,8.4,0.5c7,0.4,16.7,0.9,27.2,1.5
		c21.1,1.1,45.6,2.1,59.3,2.1c24.1,0,81.2-3.3,95.1-4.1C298.7,353.4,299.6,353.4,300.1,353.3z"/>
	<polygon points="300.1,286.4 300.1,256 203.1,271.2 104.7,255.6 104.7,286.1 203.1,301.7 	"/>
	<polygon points="300.2,224.8 300.2,202.7 203.1,217.9 104.7,202.3 104.7,224.5 203.1,240.1 	"/>
	<path d="M104.7,162.9l98.4,15.6l97.1-15.3l0-13.3l-0.1-0.1l-0.1-0.1c0,0-0.1-0.1-0.3-0.3l-96.7,15.2l-98-15.5
		c-0.2,0.2-0.3,0.4-0.4,0.5L104.7,162.9z"/>
	<path d="M203.1,111.4L123,98.7c-0.7,1.7-1.3,3.5-1.9,5.2l82.1,13l80.5-12.7c-0.6-1.7-1.2-3.4-1.9-5.2L203.1,111.4z"/>
	<path d="M632.7,354.2c7.2-0.4,9.7-0.7,10.4-0.9l0-44l-96.7,15.2l-98.6-15.6l0,44.6c0.1,0,0.3,0.1,0.6,0.1c0.9,0.1,2.6,0.3,5.9,0.5
		c10.7,0.6,23.3,5.4,38.1,10c14.8,4.6,31.8,9,51.3,9c0.5,0,1.1,0,1.6,0c19-0.2,35.1-4.6,49.3-9.1
		C608.9,359.4,621.3,354.8,632.7,354.2z"/>
	<polygon points="643.2,286.4 643.2,256 546.5,271.2 447.8,255.6 447.8,286 546.5,301.7 	"/>
	<polygon points="643.3,224.8 643.3,202.7 546.5,217.9 447.8,202.3 447.8,224.4 546.5,240.1 	"/>
	<path d="M447.8,162.9l98.7,15.6l96.9-15.2l0-13.5c-0.1-0.1-0.1-0.1-0.2-0.2l-96.7,15.2l-98.3-15.6c-0.1,0.2-0.3,0.3-0.4,0.5
		L447.8,162.9z"/>
	<path d="M546.5,111.4l-80.5-12.8c-0.7,1.7-1.4,3.5-2,5.2l82.5,13.1l80.7-12.7c-0.6-1.7-1.2-3.4-1.9-5.2L546.5,111.4z"/>
</g>
</svg>
