<?xml version="1.0" encoding="utf-8"?>
<!-- Generator: Adobe Illustrator 25.3.0, SVG Export Plug-In . SVG Version: 6.00 Build 0)  -->
<svg version="1.1" id="Layer_1" xmlns="http://www.w3.org/2000/svg" xmlns:xlink="http://www.w3.org/1999/xlink" x="0px" y="0px"
	 viewBox="0 0 750.2000122 400.1000061" style="enable-background:new 0 0 750.2000122 400.1000061;" xml:space="preserve">

<polygon class="st0" points="132.8638916,295.1335754 104.4468994,280.3999329 104.454834,299.0245667 132.8638916,313.7688293 "/>
<path class="st0" d="M132.8638916,337.5393982c-0.5342407-0.0172119-1.0484619-0.0343018-1.5757446-0.0514526l-26.822876-13.9371948
	l0.0126343,29.6828613c0.4974365,0.0296021,1.3870239,0.0823364,2.6196289,0.1544189
	c1.9800415,0.1158447,4.8395996,0.281311,8.3572998,0.4798584c4.7745361,0.2694702,10.7634888,0.6000366,17.4090576,0.9500732
	V337.5393982z"/>
<polygon class="st0" points="299.8391113,281.1803284 272.7444458,295.1335754 272.7444458,313.7688293 299.8206787,299.8127136 "/>
<path class="st0" d="M274.3201294,337.4879456c-0.5272217,0.0171509-1.0415039,0.0342407-1.5756836,0.0514526v17.1605835
	c10.9225464-0.5861816,19.9095459-1.1089478,24.3936768-1.3745117c1.237915-0.0733032,2.1312256-0.1269531,2.6297607-0.1569824
	l0.0285034-28.8257446L274.3201294,337.4879456z"/>
<polygon class="st0" points="477.6160889,296.1336365 447.6487427,279.4578552 447.6567383,298.1115417 477.6160889,314.7688904 "/>
<path class="st0" d="M477.6160889,338.5394592c-0.5341797-0.0172119-1.0484619-0.0343018-1.5756836-0.0514526
	l-28.3731079-15.7599487l0.0131226,30.5725098c0.140625,0.0273438,0.3378906,0.0595703,0.6201172,0.0957031
	c0.9135742,0.1181641,2.6474609,0.2749023,5.8588867,0.4550781c7.000061,0.3969116,14.7889404,2.5596313,23.456665,5.2849121
	V338.5394592z"/>
<polygon class="st0" points="643.041748,280.667572 614.7160645,296.1336365 614.7160645,314.7688904 643.0231934,299.3171082 "/>
<path class="st0" d="M616.2918091,338.4880066c-0.5272827,0.0171509-1.0415039,0.0342407-1.5757446,0.0514526v18.890564
	c6.2398682-1.7670898,12.1419678-3.0610962,17.8305664-3.3814087c7.2255859-0.4023438,9.6679688-0.7324219,10.4230957-0.8779297
	l0.0290527-29.2563477L616.2918091,338.4880066z"/>
</svg>
