<?xml version="1.0" encoding="utf-8"?>
<!-- Generator: Adobe Illustrator 25.3.0, SVG Export Plug-In . SVG Version: 6.00 Build 0)  -->
<svg version="1.1" id="Layer_1" xmlns="http://www.w3.org/2000/svg" xmlns:xlink="http://www.w3.org/1999/xlink" x="0px" y="0px"
	 viewBox="0 0 750.2 400.1" style="enable-background:new 0 0 750.2 400.1;" xml:space="preserve">
<g>
	<path d="M336.2,156.4c-0.4-2.1-0.9-4.2-1.3-6.2c-7.9-6.4-15.9-12.7-23.8-18.9l1,6C320.2,143.5,328.2,149.9,336.2,156.4z"/>
	<path d="M403.8,206.4c-0.3,1.5-0.6,3-0.8,4.5c5.5,4.5,11,8.9,16.6,13.3l0.8-4.5C414.9,215.3,409.4,210.9,403.8,206.4z"/>
	<path d="M339.6,172.6c-0.4-2.1-0.8-4.2-1.3-6.2c-8.2-6.6-16.3-13.1-24.5-19.4l1,6C323.1,159.4,331.3,165.9,339.6,172.6z"/>
	<path d="M401.7,218.2c-0.3,1.5-0.5,3-0.8,4.5c5.5,4.5,11.1,8.9,16.6,13.4l0.8-4.5C412.8,227.1,407.2,222.7,401.7,218.2z"/>
	<path d="M342.8,188.7c-0.4-2.1-0.8-4.1-1.2-6.1c-8.3-6.7-16.7-13.4-25-19.9l1,6C326,175.2,334.4,181.9,342.8,188.7z"/>
	<path d="M399.7,230.1c-0.3,1.5-0.5,3.1-0.7,4.6c5.5,4.5,11,8.9,16.5,13.3l0.8-4.5C410.7,239,405.2,234.6,399.7,230.1z"/>
	<path d="M345.8,204.7c-0.4-2-0.8-4.1-1.1-6.1c-8.5-6.9-16.9-13.6-25.4-20.2l1,6C328.8,191,337.3,197.8,345.8,204.7z"/>
	<path d="M397.8,242c-0.2,1.6-0.5,3.1-0.7,4.6c5.4,4.4,10.9,8.8,16.3,13.2l0.8-4.5C408.7,250.9,403.2,246.5,397.8,242z"/>
	<path d="M348.7,220.5c-0.4-2-0.7-4-1.1-6c-8.5-6.9-17.1-13.8-25.6-20.4l1,6C331.6,206.8,340.2,213.6,348.7,220.5z"/>
	<path d="M396,254.1c-0.2,1.6-0.4,3.1-0.6,4.7c5.3,4.3,10.6,8.7,15.9,12.9l0.8-4.5C406.7,262.9,401.4,258.5,396,254.1z"/>
	<path d="M351.3,236.2c-0.3-2-0.6-4-1-6c-8.5-6.9-17.1-13.8-25.6-20.5l1,6C334.3,222.5,342.8,229.3,351.3,236.2z"/>
	<path d="M394.5,266.4c-0.2,1.6-0.3,3.2-0.5,4.8c4,3.3,8.1,6.6,12.1,9.8c1.2,0.3,2.3,0.5,3.4,0.8l0.5-2.7
		C404.9,274.8,399.7,270.6,394.5,266.4z"/>
	<path d="M156.2,138l0.9-5.4c-5.5-0.8-10.9-1.3-16.3-1.5c-0.4,1.8-0.8,3.6-1.2,5.6C145.1,136.8,150.7,137.3,156.2,138z"/>
	<path d="M327.5,225.5l1,6c8.4,6.6,16.7,13.3,25.1,20.1c-0.3-1.9-0.5-3.9-0.8-5.9C344.4,238.9,335.9,232.1,327.5,225.5z"/>
	<path d="M153.8,152.2l0.9-5.4c-5.7-0.7-11.4-1-17-1c-0.4,1.8-0.8,3.7-1.2,5.6C142.2,151.3,148,151.6,153.8,152.2z"/>
	<path d="M330.2,241.2l1,6c8.1,6.4,16.1,12.9,24.2,19.4c-0.2-1.8-0.4-3.7-0.6-5.7C346.6,254.3,338.4,247.7,330.2,241.2z"/>
	<path d="M334,262.9c6.6,5.2,13.1,10.5,19.7,15.8c0.9-0.2,1.8-0.5,2.8-0.7c0-0.8-0.1-1.6-0.2-2.4c-7.8-6.3-15.6-12.6-23.3-18.7
		L334,262.9z"/>
	<path d="M151.3,166.5l1-5.5c-5.9-0.6-11.8-0.7-17.7-0.5c-0.4,1.9-0.8,3.8-1.2,5.7C139.3,165.9,145.3,166,151.3,166.5z"/>
	<path d="M148.8,180.9l1-5.5c-6.1-0.4-12.2-0.4-18.2,0.1c-0.4,1.9-0.8,3.8-1.2,5.7C136.5,180.6,142.6,180.6,148.8,180.9z"/>
	<path d="M335.7,272.6l1,6c1.3,1,2.6,2.1,3.9,3.1c1.7-0.4,3.4-0.7,5.1-1.1C342.4,277.9,339.1,275.2,335.7,272.6z"/>
	<path d="M146.3,195.4l1-5.6c-6.3-0.2-12.5,0-18.7,0.7c-0.4,1.9-0.7,3.9-1.1,5.8C133.6,195.5,139.9,195.2,146.3,195.4z"/>
	<path d="M143.7,210l1-5.6c-6.4,0-12.7,0.4-19.1,1.3c-0.4,2-0.7,3.9-1.1,5.9C130.9,210.6,137.3,210.1,143.7,210z"/>
	<path d="M141.1,224.8l1-5.7c-6.5,0.2-12.9,0.8-19.3,2c-0.3,2-0.7,4-1,5.9C128.2,225.8,134.7,225,141.1,224.8z"/>
	<path d="M138.6,239.7l1-5.7c-6.5,0.4-12.9,1.2-19.3,2.7c-0.3,2-0.6,4-0.9,6C125.7,241.1,132.1,240.1,138.6,239.7z"/>
	<path d="M135.9,254.7l1-5.8c-6.4,0.6-12.7,1.7-19,3.3c-0.3,2-0.5,4-0.8,6C123.4,256.5,129.6,255.3,135.9,254.7z"/>
	<path d="M133.3,269.8l1-5.8c-6.1,0.8-12.2,2-18.3,3.8c-0.2,2.1-0.4,4-0.5,5.9C121.4,271.9,127.3,270.7,133.3,269.8z"/>
	<path d="M125.3,280.5c2,0.5,4,0.9,5.9,1.3l0.4-2.5C129.5,279.6,127.4,280,125.3,280.5z"/>
	<path d="M595.2,124.8c-2,0.3-4.3,0.5-6.8,0.8l0.8,4.6c6.6,0.3,13.1,0.2,19.5-0.5c-0.4-2-0.8-3.8-1.2-5.5
		C603.5,124.6,599.4,124.8,595.2,124.8z"/>
	<path d="M590.8,139.3l1,5.6c6.8,0.3,13.5,0,20.1-0.8c-0.4-1.9-0.8-3.7-1.2-5.5C604.2,139.4,597.5,139.6,590.8,139.3z"/>
	<path d="M593.4,154l1,5.6c6.9,0.2,13.8-0.1,20.6-1c-0.4-1.9-0.8-3.7-1.2-5.5C607.1,154,600.3,154.3,593.4,154z"/>
	<path d="M596,168.7l1,5.6c7.1,0.2,14.1-0.3,21.1-1.3c-0.4-1.9-0.8-3.7-1.1-5.5C610,168.5,603,168.9,596,168.7z"/>
	<path d="M598.5,183.4l1,5.6c7.2,0.1,14.3-0.4,21.4-1.5c-0.4-1.8-0.7-3.7-1.1-5.5C612.8,183.1,605.7,183.6,598.5,183.4z"/>
	<path d="M601.1,198.1l1,5.6c7.3,0,14.5-0.5,21.6-1.8c-0.3-1.8-0.7-3.7-1-5.5C615.5,197.6,608.3,198.2,601.1,198.1z"/>
	<path d="M436.3,128l0.4-2.3c-1.4-0.1-2.7-0.3-4-0.4C433.9,126.2,435.1,127.1,436.3,128z"/>
	<path d="M603.6,212.8l1,5.6c7.3,0,14.5-0.7,21.7-2c-0.3-1.8-0.7-3.7-1-5.5C618.1,212.2,610.9,212.8,603.6,212.8z"/>
	<path d="M420.7,124.5c-0.3,1.4-0.6,2.9-1,4.4c4.8,3.8,9.7,7.5,14.5,11.2l0.8-4.6C430.2,131.9,425.5,128.2,420.7,124.5z"/>
	<path d="M606.2,227.5l1,5.6c7.3-0.1,14.5-0.8,21.6-2.2c-0.3-1.8-0.6-3.7-0.9-5.5C620.7,226.7,613.5,227.4,606.2,227.5z"/>
	<path d="M418.1,136.1c-0.3,1.4-0.6,2.9-1,4.4c5,3.9,10,7.8,15,11.6l0.8-4.6C428,143.7,423.1,139.9,418.1,136.1z"/>
	<path d="M415.6,147.6c-0.3,1.5-0.6,2.9-0.9,4.4c5.1,4.1,10.2,8,15.4,12l0.8-4.6C425.8,155.6,420.7,151.6,415.6,147.6z"/>
	<path d="M608.7,242.1l1,5.6c7.2-0.1,14.3-0.9,21.4-2.3c-0.3-1.8-0.6-3.7-0.8-5.5C623.1,241.2,616,242,608.7,242.1z"/>
	<path d="M611.3,256.8l1,5.6c7-0.2,13.9-1,20.8-2.4c-0.2-1.8-0.5-3.7-0.7-5.6C625.4,255.8,618.4,256.6,611.3,256.8z"/>
	<path d="M428,176l0.8-4.6c-5.2-4-10.4-8.1-15.6-12.2c-0.3,1.5-0.6,2.9-0.9,4.4C417.5,167.9,422.7,172,428,176z"/>
	<path d="M425.9,188l0.8-4.6c-5.3-4.1-10.6-8.3-15.9-12.5c-0.3,1.5-0.6,3-0.9,4.5C415.2,179.6,420.6,183.8,425.9,188z"/>
	<path d="M613.8,271.4l1,5.6c6.6-0.3,13.2-1,19.8-2.4c-0.1-1.8-0.3-3.7-0.5-5.6C627.4,270.4,620.6,271.1,613.8,271.4z"/>
	<path d="M408.4,182.5c-0.3,1.5-0.6,3-0.9,4.5c5.4,4.4,10.8,8.7,16.3,12.9l0.8-4.6C419.2,191.1,413.8,186.9,408.4,182.5z"/>
	<path d="M332.6,139.4c-0.5-2.2-0.9-4.3-1.4-6.3c-3.7-3-7.4-5.9-11-8.8c-1.7,0.2-3.6,0.5-5.6,0.7
		C320.6,129.8,326.6,134.6,332.6,139.4z"/>
	<path d="M406.1,194.2c-0.3,1.5-0.6,3-0.9,4.5c5.5,4.4,11,8.8,16.4,13.1l0.8-4.6C417.1,203,411.6,198.6,406.1,194.2z"/>
</g>
</svg>
