<?xml version="1.0" encoding="utf-8"?>
<!-- Generator: Adobe Illustrator 25.3.0, SVG Export Plug-In . SVG Version: 6.00 Build 0)  -->
<svg version="1.1" id="Layer_1" xmlns="http://www.w3.org/2000/svg" xmlns:xlink="http://www.w3.org/1999/xlink" x="0px" y="0px"
	 viewBox="0 0 750.2 400.1" style="enable-background:new 0 0 750.2 400.1;" xml:space="preserve">
<path d="M178.6,77.5c4,2.3,8.3,3.6,10.9,4.3c2.4-16.7-7.2-17.8-15.7-24.3c-7.2-5.4-8.5-10.1-8-15.8c-4.2,2.5-9.3,5.6-10,6.2
	c-0.1,0.7-1.5,8.7,3.8,14.1C164.9,67.4,173.1,74.5,178.6,77.5z M200.4,83.5c3.9,0.1,7.9-0.4,12-1.4c-0.2-1-0.5-3.1-0.4-5.6
	c-2.8,0.6-5.6,1-8.2,1.2c-3.5,0.2-7.2-0.3-11-1.2c0.1,2.7-0.3,5-0.5,6C194.9,83,197.6,83.4,200.4,83.5z M231.1,57.8
	c-8.4,6.3-17.8,7.5-15.8,23.6c2.8-0.8,7.4-2.2,11-3.8c5.8-2.6,14.2-8.7,18.9-15.4c4.3-6,4-13.3,3.9-14.2c-0.6-0.6-5.7-3.7-9.9-6.2
	C239.9,48.4,238.5,52.2,231.1,57.8z M199.9,39.4c14.1-0.3,27.3,2.9,35.5,8.3c0.8-1.8,1.1-3.3,1-4.4c-0.2-1.6-0.2-2.5-0.1-3
	c-24.3-8.3-46.5-8.2-67.6,0.1c0.1,0.5,0.1,1.4-0.1,2.9c-0.1,1.1,0.2,2.7,1,4.5C176.5,42.7,187.2,39.7,199.9,39.4z M227.6,57.7
	c-6.8,4.4-10.4,7.9-10.4,7.9c-5.2,4.7-4.1,14-3.8,16.3c0.4-0.1,1.1-0.3,2-0.5c-2-16.1,7.4-17.2,15.8-23.6c7.4-5.6,8.8-9.4,8.1-15.9
	c-0.7-0.4-1.4-0.8-2-1.2c0,0.4,0,1.1,0.1,2.5C237.7,46.9,234.4,53.2,227.6,57.7z M173.8,57.6c8.5,6.4,18.1,7.5,15.7,24.3
	c0.8,0.2,1.4,0.4,1.8,0.4c0.4-2.2,1.7-11.9-3.5-16.7c0,0-3.6-3.5-10.5-7.9c-6.9-4.5-10.2-10.8-9.8-14.5c0.2-1.4,0.1-2.2,0.1-2.5
	c-0.6,0.4-1.3,0.7-1.9,1.1C165.3,47.5,166.6,52.2,173.8,57.6z M592.2,47.2c-4.1-3.1-18.8-12.6-46.5-12.6s-41.7,9.6-45.5,12.6
	c5.4-0.4,25.3-1.8,45.6-1.8C566,45.4,586.5,46.8,592.2,47.2z M250.8,365.2c9.5-0.4,17.8-0.9,24.6-1.5c-7.4,1.9-15.3,4.6-24,7.3
	c-14.2,4.5-30.3,8.8-49.3,9.1c-0.5,0-1.1,0-1.6,0c-19.5,0-36.5-4.4-51.3-9c-10-3.1-19-6.3-27.1-8.2c6.9,0.7,15.8,1.4,26.9,2.1
	c14.8,4.6,31.9,9.1,51.6,9.1c0.5,0,1.1,0,1.6,0C220.8,373.8,236.8,369.6,250.8,365.2z M300,360.3v-6c-6.8,0.4-71.6,4.3-97.7,4.3
	c-26.2,0-91.1-3.8-97.5-4.2v5.4c0.2,0,0.6,0.1,1,0.2c1,0.2,2.4,0.4,4.3,0.6c3.9,0.5,9.7,1.2,17.6,1.9c15.8,1.4,39.7,2.8,72.5,2.8
	c57.4,0,91.1-3.9,98.6-4.8C299.3,360.4,299.7,360.4,300,360.3z M632.8,355.2c-11.2,0.6-23.5,5.2-37.8,9.7
	c-14.2,4.5-30.5,8.9-49.6,9.1c-0.5,0-1.1,0-1.6,0c-19.6,0-36.8-4.5-51.6-9.1c-14.8-4.6-27.4-9.3-37.9-9.9c-3.9-0.2-5.6-0.4-6.4-0.5
	v6.1c0.1,0,0.3,0.1,0.6,0.1c0.9,0.1,2.6,0.3,5.9,0.5c10.7,0.6,23.3,5.4,38.1,10c14.8,4.6,31.8,9,51.3,9c0.5,0,1.1,0,1.6,0
	c19-0.2,35.1-4.6,49.3-9.1s26.5-9.1,38-9.7c7.2-0.4,9.7-0.7,10.4-0.9v-6.1c-0.2,0-0.6,0.1-1.1,0.2
	C640.6,354.6,637.9,354.9,632.8,355.2z M33.9,85l16.2,75.4l4.5-1.2L37.9,83.6L33.9,85z M378.6,85l16.1,74.8l4.5-1.1l-16.6-75.1
	L378.6,85z M371.5,85l-16.2,75.4l-4.6-1.2l16.8-75.6L371.5,85z M716,85l-16.1,74.8l-4.5-1.1l16.7-75.1L716,85z M148.9,371
	c-10-3.1-19-6.3-27.1-8.2c6.9,0.7,15.8,1.4,26.9,2.1c14.8,4.6,31.9,9.1,51.6,9.1c0.5,0,1.1,0,1.6,0c18.7-0.2,34.7-4.4,48.7-8.8
	c9.5-0.4,17.8-0.9,24.6-1.5c-7.4,1.9-15.3,4.6-24,7.3c-14.2,4.5-30.3,8.8-49.3,9.1c-0.5,0-1.1,0-1.6,0
	C180.7,380,163.7,375.6,148.9,371z M298.5,360.3c0.5-0.1,0.9-0.1,1.2-0.2v-6c-6.8,0.4-71.6,4.3-97.7,4.3c-26.2,0-91.1-3.8-97.5-4.2
	v5.4c0.2,0,0.6,0.1,1,0.2c1,0.2,2.4,0.4,4.3,0.6c3.9,0.5,9.7,1.2,17.6,1.9c15.8,1.4,39.7,2.8,72.5,2.8
	C257.3,365.2,291,361.3,298.5,360.3z M545.2,379.9c19-0.2,35.1-4.6,49.3-9.1s26.5-9.1,38-9.7c7.2-0.4,9.7-0.7,10.4-0.9v-6.1
	c-0.2,0-0.6,0.1-1.1,0.2c-1.5,0.2-4.2,0.4-9.3,0.7c-11.2,0.6-23.5,5.2-37.8,9.7c-14.2,4.5-30.5,8.9-49.6,9.1c-0.5,0-1.1,0-1.6,0
	c-19.6,0-36.8-4.5-51.6-9.1c-14.8-4.6-27.4-9.3-37.9-9.9c-3.9-0.2-5.6-0.4-6.4-0.5v6.1c0.1,0,0.3,0.1,0.6,0.1
	c0.9,0.1,2.6,0.3,5.9,0.5c10.7,0.6,23.3,5.4,38.1,10c14.8,4.6,31.8,9,51.3,9C544.1,379.9,544.7,379.9,545.2,379.9z M178.6,77.5
	c4,2.3,8.3,3.6,10.9,4.3c2.4-16.7-7.2-17.8-15.7-24.3c-7.2-5.4-8.5-10.1-8-15.8c-4.2,2.5-9.3,5.6-10,6.2c-0.1,0.7-1.5,8.7,3.8,14.1
	C164.9,67.4,173.1,74.5,178.6,77.5z M200.4,83.5c3.9,0.1,7.9-0.4,12-1.4c-0.2-1-0.5-3.1-0.4-5.6c-2.8,0.6-5.6,1-8.2,1.2
	c-3.5,0.2-7.2-0.3-11-1.2c0.1,2.7-0.3,5-0.5,6C194.9,83,197.6,83.4,200.4,83.5z M231.1,57.8c-8.4,6.3-17.8,7.5-15.8,23.6
	c2.8-0.8,7.4-2.2,11-3.8c5.8-2.6,14.2-8.7,18.9-15.4c4.3-6,4-13.3,3.9-14.2c-0.6-0.6-5.7-3.7-9.9-6.2
	C239.9,48.4,238.5,52.2,231.1,57.8z M199.9,39.4c14.1-0.3,27.3,2.9,35.5,8.3c0.8-1.8,1.1-3.3,1-4.4c-0.2-1.6-0.2-2.5-0.1-3
	c-24.3-8.3-46.5-8.2-67.6,0.1c0.1,0.5,0.1,1.4-0.1,2.9c-0.1,1.1,0.2,2.7,1,4.5C176.5,42.7,187.2,39.7,199.9,39.4z M227.6,57.7
	c-6.8,4.4-10.4,7.9-10.4,7.9c-5.2,4.7-4.1,14-3.8,16.3c0.4-0.1,1.1-0.3,2-0.5c-2-16.1,7.4-17.2,15.8-23.6c7.4-5.6,8.8-9.4,8.1-15.9
	c-0.7-0.4-1.4-0.8-2-1.2c0,0.4,0,1.1,0.1,2.5C237.7,46.9,234.4,53.2,227.6,57.7z M173.8,57.6c8.5,6.4,18.1,7.5,15.7,24.3
	c0.8,0.2,1.4,0.4,1.8,0.4c0.4-2.2,1.7-11.9-3.5-16.7c0,0-3.6-3.5-10.5-7.9c-6.9-4.5-10.2-10.8-9.8-14.5c0.2-1.4,0.1-2.2,0.1-2.5
	c-0.6,0.4-1.3,0.7-1.9,1.1C165.3,47.5,166.6,52.2,173.8,57.6z M592.2,47.2c-4.1-3.1-18.8-12.6-46.5-12.6s-41.7,9.6-45.5,12.6
	c5.4-0.4,25.3-1.8,45.6-1.8C566,45.4,586.5,46.8,592.2,47.2z M33.9,85l16.2,75.4l4.5-1.2L37.9,83.6L33.9,85z M378.6,85l16.1,74.8
	l4.5-1.1l-16.6-75.1L378.6,85z M371.5,85l-16.2,75.4l-4.6-1.2l16.8-75.6L371.5,85z M716,85l-16.1,74.8l-4.5-1.1l16.7-75.1L716,85z
	 M104.5,353.2c0.5,0,1.4,0.1,2.6,0.2c2,0.1,4.8,0.3,8.4,0.5c7,0.4,16.7,0.9,27.2,1.5c21.1,1.1,45.6,2.1,59.3,2.1
	c24.1,0,81.2-3.3,95.1-4.1c1.2-0.1,2.1-0.1,2.6-0.2l0.2-203.6c-0.5-0.3-1.9-1.3-3.2-4c-1.7-3.4-3.4-9.6-3.8-20.6
	c-0.6-16.5-1.3-41.2-4.5-56.2c-1-4.7-2.1-7.6-3.5-9.8l-33.3-10.1c0,0.2,0,0.5,0,0.8c0,2.8-0.9,8-4.5,13
	c-4.9,6.9-13.5,13.3-19.7,16.1c-5.9,2.6-14,4.7-14,4.7l-0.5,0.1v-0.1c-3.8,0.9-7.6,1.5-11.4,1.5c-0.4,0-0.7,0-1.1,0
	c-2.9-0.1-5.7-0.5-8.4-1.1V84l-0.5-0.1c0,0-7.3-1.4-13.9-5.1c-4.7-2.7-11.6-8.3-17-13.4c-0.4-0.3-0.7-0.6-1.1-0.9l-0.1-0.1l-0.1-0.2
	c-0.5-0.5-0.9-0.9-1.3-1.3c-3.7-3.8-4.2-8-4.2-11.3c0-1.1-0.1-1.9,0-2.5l-34.4,10.4c-1.5,2.2-2.4,4.7-3.4,9.4
	c-1.1,5-1.9,11.1-2.5,17.6c-1.2,13-1.7,27.6-2.1,38.6s-2.1,17.2-3.8,20.6c-1.3,2.6-2.6,3.6-3.2,4L104.5,353.2z M637.7,125.9v-1.2
	c-0.7-21.5-1.8-56.8-8.3-65.5c-0.1-0.1-0.1-0.2-0.2-0.4l-35.3-10.7l0,0l-0.3-0.1c0,0-1.5-0.1-4.2-0.2c-2.7-0.2-6.3-0.3-10.9-0.6
	c-9.1-0.5-21.3-0.9-33.5-0.9c-18.3,0-36.2,1.3-43.9,1.8l-1.6,0.2l-36.9,11.1c-0.1,0.2-0.2,0.4-0.3,0.5c-6.5,8.7-7.8,43.3-8.5,64.7
	v1.2c-0.5,16-4,21.8-6,23.7l0.1,203.6c0.1,0,0.3,0.1,0.6,0.1c0.9,0.1,2.6,0.3,5.9,0.5c10.7,0.6,23.3,5.4,38.1,10
	c14.8,4.6,31.8,9,51.3,9c0.5,0,1.1,0,1.6,0c19-0.2,35.1-4.6,49.3-9.1s26.5-9.1,38-9.7c7.2-0.4,9.7-0.7,10.4-0.9l0.2-204
	C641.2,146.8,638.2,140.8,637.7,125.9z M452.6,124.7c0.8-22.6,1.9-55.2,8.4-64.8l-76.8,23.5l16.6,74.4l46.5-9.1
	c1.8-2.1,4.8-7.8,5.3-22.7V124.7z M103.9,148.6c0.1-0.1,0.4-0.2,0.6-0.5c0.5-0.5,1.3-1.4,2.1-3.1c1.6-3.2,3.3-9.2,3.7-20.2
	c0.6-16.5,1.3-41.2,4.6-56.4c0.9-4.2,1.3-6.4,2.7-8.9L39.4,83.3l16.7,75.1L103.9,148.6L103.9,148.6L103.9,148.6z M300.2,148.3
	c-0.1-0.1-0.4-0.2-0.6-0.5c-0.5-0.5-1.3-1.4-2.1-3.1c-1.6-3.2-3.3-9.2-3.7-20.2c-0.6-16.5-1.3-41.2-4.6-56.4
	c-0.9-4.2-1.8-6.8-3.1-9.2L366,83.3l-16.7,75.1L300.2,148.3L300.2,148.3L300.2,148.3z M638.7,124.6c-0.8-22.6-1.9-55.8-8.4-65.4
	l80.1,24.2l-16.6,74.4l-49.8-9.2c-1.8-2.1-4.8-7.8-5.3-22.7V124.6z"/>
</svg>
