<?xml version="1.0" encoding="utf-8"?>
<!-- Generator: Adobe Illustrator 25.3.0, SVG Export Plug-In . SVG Version: 6.00 Build 0)  -->
<svg version="1.1" id="Layer_1" xmlns="http://www.w3.org/2000/svg" xmlns:xlink="http://www.w3.org/1999/xlink" x="0px" y="0px"
	 viewBox="0 0 750.2 400.1" style="enable-background:new 0 0 750.2 400.1;" xml:space="preserve">
<g>
	<path d="M142.5,216.8l7.6-43.8l-17-0.2l-1-0.3c-2.8,13.9-5.7,28.9-8.4,43.5l1.9,0.7L142.5,216.8z"/>
	<path d="M420.9,216.8l7.6-43.8l-17.5-0.2l-0.6-0.2c-2.8,13.9-5.7,28.9-8.3,43.5l1.5,0.5L420.9,216.8z"/>
	<path d="M339.6,172.8l-21.2,0.3l7.6,43.8l22-0.3C345.4,201.9,342.5,186.8,339.6,172.8z"/>
	<path d="M617.9,172.8l-21.2,0.3l7.6,43.8l22-0.3l0,0C623.7,201.9,620.8,186.8,617.9,172.8z"/>
</g>
</svg>
