<?xml version="1.0" encoding="utf-8"?>
<!-- Generator: Adobe Illustrator 25.3.0, SVG Export Plug-In . SVG Version: 6.00 Build 0)  -->
<svg version="1.1" id="Layer_1" xmlns="http://www.w3.org/2000/svg" xmlns:xlink="http://www.w3.org/1999/xlink" x="0px" y="0px"
	 viewBox="0 0 750.2 400.1" style="enable-background:new 0 0 750.2 400.1;" xml:space="preserve">
<g>
	<path d="M142.5,123.8c-1.7,7.7-4,18.2-6.6,30.3l17.1,2.6l5.4-31C149.9,124.9,144.5,124.1,142.5,123.8z"/>
	<path d="M119.7,240.3c-2.3,14.5-3.9,27.7-4.5,37.7c5.5,1.4,10.8,2.7,16,3.8l6.7-38.7L119.7,240.3z"/>
	<path d="M420.8,123.8c-1.7,7.8-4.1,18.4-6.6,30.6l17.1,2.6l5.4-31.3C428.3,124.9,422.8,124.1,420.8,123.8z"/>
	<path d="M398,240.5c-2.2,14.4-3.9,27.5-4.5,37.5c5.5,1.4,10.8,2.7,16,3.8l6.7-38.4L398,240.5z"/>
	<path d="M329,123c-2.3,0.4-8.8,1.4-18.9,2.6l5.4,30.9l20.1-3.1C333,141.2,330.7,130.6,329,123z"/>
	<path d="M356.5,278c-0.6-10.2-2.3-23.6-4.6-38.5l-21.3,3.3l6.9,39.6C343.6,281.1,349.9,279.7,356.5,278z"/>
	<path d="M607.3,123c-2.3,0.4-8.8,1.4-18.9,2.6l5.4,30.8l20.1-3.1C611.3,141.2,609,130.6,607.3,123z"/>
	<path d="M634.8,278c-0.6-10.2-2.3-23.7-4.6-38.5l-21.3,3.3l6.9,39.7C621.9,281.1,628.3,279.7,634.8,278z"/>
</g>
</svg>
