<?xml version="1.0" encoding="utf-8"?>
<!-- Generator: Adobe Illustrator 25.3.0, SVG Export Plug-In . SVG Version: 6.00 Build 0)  -->
<svg version="1.1" id="Layer_1" xmlns="http://www.w3.org/2000/svg" xmlns:xlink="http://www.w3.org/1999/xlink" x="0px" y="0px"
	 viewBox="0 0 750.2 400.1" style="enable-background:new 0 0 750.2 400.1;" xml:space="preserve">
<g>
	<path d="M230.8,138.4l62.1-0.1c0-0.1-0.1-0.1-0.1-0.2l-62.1-0.1l-119.2,0.2c0,0,0,0,0,0L230.8,138.4z"/>
	<path d="M230.8,128.6l58.9-0.1c0-0.1,0-0.1,0-0.2l-58.8-0.1l-115.9,0.1c0,0,0,0,0,0L230.8,128.6z"/>
	<path d="M230.8,118.8l56.8-0.1c0-0.1,0-0.1,0-0.2l-56.7-0.1L117,118.6c0,0,0,0,0,0L230.8,118.8z"/>
	<path d="M230.8,109l54.3-0.1c0-0.1,0-0.1-0.1-0.2l-54.2-0.1l-111.3,0.1c0,0,0,0,0,0.1L230.8,109z"/>
	<path d="M230.8,99.2l51-0.1c0-0.1-0.1-0.1-0.1-0.2l-50.9-0.1l-108,0.1c0,0,0,0,0,0.1L230.8,99.2z"/>
	<path d="M230.8,89.4l46.5-0.1c0-0.1-0.1-0.1-0.1-0.2l-46.4-0.1l-103.5,0.1c0,0,0,0,0,0.1L230.8,89.4z"/>
	<path d="M179.3,79.6c-0.1-0.1-0.3-0.1-0.4-0.2l-45.1,0.1c0,0-0.1,0.1-0.1,0.1L179.3,79.6z"/>
	<path d="M230.8,79.7l40.1-0.1c-0.1-0.1-0.1-0.2-0.2-0.2l-39.9-0.1l-4.3,0c-0.3,0.1-0.5,0.2-0.8,0.3L230.8,79.7z"/>
	<path d="M241.3,69.5c-0.1,0.1-0.2,0.2-0.4,0.3l19.7,0c-0.1-0.1-0.3-0.2-0.4-0.3L241.3,69.5z"/>
	<path d="M165.7,69.8c-0.1-0.1-0.1-0.1-0.2-0.2l-21.2,0c-0.1,0-0.1,0.1-0.2,0.1L165.7,69.8z"/>
	<polygon points="230.8,352 104.8,352.2 104.8,352.2 230.8,352.3 300.1,352.3 300.1,352.1 	"/>
	<polygon points="230.8,342.6 300.1,342.5 300.1,342.3 230.8,342.2 104.8,342.4 104.8,342.4 	"/>
	<polygon points="230.8,332.4 104.8,332.6 104.8,332.6 230.8,332.8 300.1,332.7 300.1,332.5 	"/>
	<polygon points="230.8,322.6 104.7,322.8 104.7,322.8 230.8,323 300.1,322.9 300.1,322.7 	"/>
	<polygon points="230.8,312.9 104.7,313 104.7,313 230.8,313.2 300.1,313.1 300.1,312.9 	"/>
	<polygon points="230.8,303.4 300.1,303.3 300.1,303.2 230.8,303.1 104.7,303.2 104.7,303.3 	"/>
	<polygon points="230.8,293.6 300.1,293.5 300.1,293.4 230.8,293.3 104.7,293.4 104.7,293.5 	"/>
	<polygon points="230.8,283.8 300.1,283.8 300.1,283.6 230.8,283.5 104.7,283.7 104.7,283.7 	"/>
	<polygon points="230.8,274.1 300.1,274 300.1,273.8 230.8,273.7 104.7,273.9 104.7,273.9 	"/>
	<polygon points="230.8,264.3 300.1,264.2 300.1,264 230.8,263.9 104.7,264.1 104.7,264.1 	"/>
	<polygon points="230.8,254.5 300.1,254.4 300.1,254.2 230.8,254.1 104.7,254.3 104.7,254.3 	"/>
	<polygon points="230.8,244.4 104.7,244.5 104.7,244.5 230.8,244.7 300.2,244.6 300.2,244.4 	"/>
	<polygon points="230.8,234.9 300.2,234.8 300.2,234.7 230.8,234.6 104.7,234.7 104.7,234.7 	"/>
	<polygon points="230.8,225.1 300.2,225 300.2,224.9 230.8,224.8 104.7,224.9 104.7,225 	"/>
	<polygon points="230.8,215.8 300.2,215.7 300.2,215.6 230.8,215.5 104.7,215.6 104.7,215.7 	"/>
	<polygon points="230.8,206 300.2,206 300.2,205.8 230.8,205.7 104.7,205.9 104.7,205.9 	"/>
	<polygon points="230.8,196.3 300.2,196.2 300.2,196 230.8,195.9 104.7,196.1 104.7,196.1 	"/>
	<polygon points="230.8,186.5 300.2,186.4 300.2,186.2 230.8,186.1 104.7,186.3 104.7,186.3 	"/>
	<polygon points="230.8,176.7 300.2,176.6 300.2,176.4 230.8,176.3 104.7,176.5 104.7,176.5 	"/>
	<polygon points="230.8,166.9 300.2,166.8 300.2,166.6 230.8,166.6 104.7,166.7 104.7,166.7 	"/>
	<polygon points="230.8,156.8 104.7,156.9 104.7,157 230.8,157.1 300.2,157 300.2,156.9 	"/>
	<path d="M230.8,147l-124.2,0.2c0,0,0,0,0,0l124.2,0.2l67.2-0.1c0-0.1-0.1-0.1-0.1-0.2L230.8,147z"/>
	<polygon points="176.1,142.6 177,143.4 230.8,143.5 246.5,143.5 245.4,142.5 230.8,142.5 	"/>
	<path d="M131.3,143.2l11.2,0l-0.7-0.6l-10.6,0l-22,0.2c0,0.1-0.1,0.1-0.1,0.2L131.3,143.2z"/>
	<path d="M295.1,142.6l-13.3,0l0.9,0.8l12.8,0C295.4,143.1,295.3,142.9,295.1,142.6z"/>
	<polygon points="234.9,133.7 233.7,132.7 230.8,132.7 164.5,132.9 165.3,133.5 230.8,133.7 	"/>
	<path d="M130.8,133.4l-0.6-0.5l-16.6,0.1c0,0.1-0.1,0.2-0.1,0.2L130.8,133.4z"/>
	<path d="M290.9,132.8l-20.7-0.1l1,0.8l20-0.1C291.1,133.3,291,133.1,290.9,132.8z"/>
	<path d="M288.5,123l-30.1-0.1l1,0.9l29.2-0.1C288.6,123.5,288.6,123.3,288.5,123z"/>
	<path d="M119,123.6l-0.4-0.3l-2.7,0c0,0.1,0,0.2-0.1,0.3L119,123.6z"/>
	<polygon points="152.8,123.1 153.6,123.7 164.5,123.8 223.2,123.9 222,122.9 164.5,123.1 	"/>
	<path d="M247.9,114.1l38.6-0.1c-0.1-0.2-0.1-0.5-0.2-0.7l-39.5-0.1L247.9,114.1z"/>
	<polygon points="141.2,113.3 141.9,113.9 164.5,114 211.5,114.1 210.4,113.2 164.5,113.3 	"/>
	<polygon points="199.8,104.3 198.8,103.4 164.5,103.5 131.3,103.6 129.6,103.6 130.2,104.1 131.3,104.1 164.5,104.2 	"/>
	<path d="M283.4,103.5l-48.3-0.1l1.2,1l47.4-0.1C283.5,104,283.5,103.7,283.4,103.5z"/>
	<path d="M131.3,94.3l33.2,0.1l23.6,0.1l-1-0.8l-22.7,0.1l-33.2,0.1l-6.2,0c-0.1,0.1-0.1,0.3-0.2,0.4L131.3,94.3z"/>
	<path d="M223.4,93.6l1.2,1l6.2,0l49-0.1c-0.1-0.3-0.2-0.5-0.4-0.8l-48.6-0.1L223.4,93.6z"/>
	<path d="M274.5,84.7c-0.2-0.3-0.3-0.5-0.5-0.8l-43.2-0.1l-18.8,0c-0.1,0-0.1,0-0.2,0l1.1,0.9l17.9,0L274.5,84.7z"/>
	<path d="M131.3,84.5l33.2,0.1l11.9,0l-0.9-0.7l-11.1,0L131.3,84l-0.8,0c-0.1,0.2-0.2,0.3-0.3,0.5L131.3,84.5z"/>
	<path d="M164.5,74.8l0.2,0l-0.8-0.7l-25.3,0.1c-0.2,0.2-0.4,0.4-0.6,0.5L164.5,74.8z"/>
	<path d="M234.4,75l32.3-0.1c-0.3-0.3-0.6-0.6-0.9-0.8l-30-0.1C235.3,74.3,234.8,74.7,234.4,75z"/>
	<path d="M249.1,64.2l-2.8,0c-0.3,0.3-0.5,0.6-0.8,0.9l6.6,0c-0.2-0.1-0.4-0.2-0.6-0.2L249.1,64.2z"/>
	<path d="M153,65L153,65c-0.1,0-0.1,0-0.1,0L153,65z"/>
	<path d="M187.1,357.3l-0.9-0.8l-19,0C174.2,356.9,181,357.2,187.1,357.3z"/>
	<path d="M230.8,356.4l-9.4,0l0.8,0.7c5.7-0.2,11.8-0.4,18-0.7L230.8,356.4z"/>
	<polygon points="209.8,346.7 210.9,347.6 230.8,347.7 280.2,347.5 279.3,346.8 230.8,346.7 	"/>
	<polygon points="131.3,346.9 105.5,347.1 105.7,347.2 131.3,347.4 164.5,347.5 175.4,347.5 174.6,346.8 164.5,346.8 	"/>
	<polygon points="198.2,337 199.2,337.8 230.8,337.9 268.6,337.8 267.6,337 230.8,336.9 	"/>
	<polygon points="104.8,337.3 104.8,337.4 131.3,337.6 163.7,337.7 162.9,337 131.3,337.1 	"/>
	<polygon points="131.3,327.8 152,327.9 151.3,327.3 131.3,327.3 104.7,327.5 104.7,327.6 	"/>
	<polygon points="257,328 255.9,327.1 230.8,327.1 186.6,327.2 187.5,328 230.8,328.1 	"/>
	<polygon points="300.1,327.3 297.2,327.3 292.4,327.2 293.2,327.9 297.2,327.9 300.1,327.9 	"/>
	<polygon points="174.9,317.4 175.8,318.2 230.8,318.3 245.4,318.3 244.2,317.3 230.8,317.3 	"/>
	<polygon points="300.1,318.1 300.1,317.5 297.2,317.5 280.7,317.4 281.6,318.2 297.2,318.1 	"/>
	<polygon points="131.3,318.1 140.3,318.1 139.7,317.5 131.3,317.6 104.7,317.8 104.7,317.9 	"/>
	<polygon points="128.6,308.3 128.1,307.8 104.7,308 104.7,308.1 	"/>
	<polygon points="300.1,308.4 300.1,307.7 297.2,307.7 269,307.6 270,308.4 297.2,308.4 	"/>
	<polygon points="233.7,308.5 232.5,307.5 230.8,307.5 164.5,307.7 163.3,307.7 164.1,308.4 164.5,308.4 230.8,308.5 	"/>
	<polygon points="116.9,298.4 116.5,298.1 104.7,298.2 104.7,298.3 	"/>
	<polygon points="300.1,298.6 300.1,297.9 297.2,297.9 257.3,297.8 258.4,298.7 297.2,298.6 	"/>
	<polygon points="151.7,297.9 152.4,298.5 164.5,298.6 222,298.7 220.9,297.8 164.5,297.9 	"/>
	<polygon points="245.6,288 246.7,288.9 297.2,288.8 300.1,288.8 300.1,288.1 297.2,288.1 	"/>
	<polygon points="105.1,288.5 105,288.4 104.7,288.4 104.7,288.5 	"/>
	<polygon points="140.1,288.2 140.7,288.7 164.5,288.8 210.3,288.9 209.3,288 164.5,288.1 	"/>
	<polygon points="198.6,279.1 197.6,278.2 164.5,278.3 131.3,278.4 128.4,278.4 129,278.9 131.3,278.9 164.5,279 	"/>
	<polygon points="300.1,279 300.1,278.3 297.2,278.3 233.9,278.2 235.1,279.2 297.2,279 	"/>
	<polygon points="131.3,269.1 164.5,269.2 186.9,269.3 186,268.5 164.5,268.5 131.3,268.6 116.9,268.7 117.2,269 	"/>
	<polygon points="222.2,268.4 223.4,269.4 230.8,269.4 292.7,269.2 291.8,268.5 230.8,268.4 	"/>
	<polygon points="131.3,258.8 105.3,259 105.5,259.1 131.3,259.3 164.5,259.4 175.2,259.5 174.4,258.7 164.5,258.8 	"/>
	<polygon points="210.6,258.6 211.7,259.6 230.8,259.6 281,259.5 280.1,258.7 230.8,258.6 	"/>
	<polygon points="104.7,249.3 104.7,249.4 131.3,249.6 163.5,249.6 162.7,249 131.3,249.1 	"/>
	<polygon points="199,248.9 200,249.7 230.8,249.8 269.4,249.7 268.4,248.9 230.8,248.8 	"/>
	<polygon points="257.8,240 256.7,239.1 230.8,239 187.4,239.1 188.3,239.9 230.8,240 	"/>
	<polygon points="300.2,239.2 297.2,239.2 291.2,239.2 292,239.9 297.2,239.9 300.2,239.9 	"/>
	<polygon points="131.3,239.8 151.8,239.8 151.1,239.2 131.3,239.3 104.7,239.5 104.7,239.6 	"/>
	<polygon points="131.3,230 140.1,230 139.5,229.5 131.3,229.5 104.7,229.7 104.7,229.8 	"/>
	<polygon points="300.2,230.1 300.2,229.4 297.2,229.4 279.5,229.3 280.4,230.1 297.2,230.1 	"/>
	<polygon points="246.1,230.2 245,229.3 230.8,229.2 175.7,229.4 176.6,230.1 230.8,230.2 	"/>
	<polygon points="300.2,220.8 300.2,220.1 297.2,220.1 268.4,220 269.4,220.8 297.2,220.8 	"/>
	<polygon points="129,220.7 128.5,220.2 104.7,220.4 104.7,220.5 	"/>
	<polygon points="235.1,220.9 233.9,219.9 230.8,219.9 164.7,220.1 165.5,220.8 230.8,220.9 	"/>
	<polygon points="223.4,211.1 222.3,210.2 164.5,210.3 153.1,210.3 153.8,211 164.5,211 	"/>
	<polygon points="117.2,210.8 116.9,210.5 104.7,210.6 104.7,210.7 	"/>
	<polygon points="300.2,211 300.2,210.3 297.2,210.3 256.7,210.2 257.7,211.1 297.2,211 	"/>
	<polygon points="211.7,201.3 210.6,200.4 164.5,200.5 141.4,200.6 142.1,201.1 164.5,201.2 	"/>
	<polygon points="105.5,200.9 105.3,200.8 104.7,200.8 104.7,200.9 	"/>
	<polygon points="300.2,201.2 300.2,200.5 297.2,200.5 245,200.4 246.1,201.3 297.2,201.2 	"/>
	<polygon points="200,191.5 199,190.7 164.5,190.7 131.3,190.8 129.8,190.8 130.4,191.3 131.3,191.3 164.5,191.4 	"/>
	<polygon points="300.2,191.4 300.2,190.7 297.2,190.7 233.3,190.6 234.5,191.6 297.2,191.4 	"/>
	<polygon points="292,181.6 291.2,180.9 230.8,180.8 221.6,180.8 222.8,181.8 230.8,181.8 	"/>
	<polygon points="131.3,181 118.2,181.1 118.6,181.4 131.3,181.5 164.5,181.6 188.3,181.7 187.4,180.9 164.5,181 	"/>
	<polygon points="280.4,171.9 279.5,171.1 230.8,171 210,171.1 211.1,172 230.8,172 	"/>
	<polygon points="131.3,171.3 106.7,171.4 106.8,171.6 131.3,171.8 164.5,171.8 176.6,171.9 175.7,171.1 164.5,171.2 	"/>
	<polygon points="164.5,162.1 164.9,162.1 164.1,161.4 131.3,161.5 104.7,161.7 104.7,161.8 131.3,162 	"/>
	<polygon points="198.4,161.3 199.4,162.2 230.8,162.2 268.8,162.1 267.8,161.3 230.8,161.2 	"/>
	<polygon points="186.7,151.5 187.7,152.3 230.8,152.4 257.2,152.4 256.1,151.5 230.8,151.4 	"/>
	<polygon points="104.7,151.9 104.7,152 131.3,152.2 153.2,152.2 152.5,151.6 131.3,151.7 	"/>
	<polygon points="292.6,151.6 293.4,152.3 297.2,152.3 300.2,152.3 300.2,151.6 297.2,151.6 	"/>
	<path d="M512.8,138.4l123.6-0.2c0,0,0,0,0,0L512.8,138l-58.2,0.1c0,0.1-0.1,0.1-0.1,0.2L512.8,138.4z"/>
	<path d="M512.8,128.6l120.4-0.2c0,0,0,0,0,0l-120.4-0.2l-55.1,0.1c0,0.1,0,0.1,0,0.2L512.8,128.6z"/>
	<path d="M512.8,118.8l118.3-0.2c0,0,0,0,0,0l-118.3-0.2l-53,0.1c0,0.1,0,0.1,0,0.2L512.8,118.8z"/>
	<path d="M512.8,108.7l-50.5,0.1c0,0.1,0,0.1-0.1,0.2l50.5,0.1l115.8-0.1c0,0,0,0,0,0L512.8,108.7z"/>
	<path d="M512.8,99.2l112.4-0.1c0,0,0,0,0-0.1l-112.4-0.1l-47,0.1c0,0.1-0.1,0.1-0.1,0.2L512.8,99.2z"/>
	<path d="M512.8,89.4l107.7-0.1c0,0,0,0,0-0.1l-107.7-0.1l-42.3,0.1c0,0.1-0.1,0.2-0.1,0.2L512.8,89.4z"/>
	<path d="M512.8,79.3l-35.7,0c-0.1,0.1-0.1,0.2-0.2,0.2l35.9,0L614,79.5c0,0,0-0.1-0.1-0.1L512.8,79.3z"/>
	<path d="M512.8,69.9l91.4-0.1c0,0-0.1-0.1-0.1-0.1l-91.2-0.1l-25.8,0c-0.1,0.1-0.2,0.2-0.3,0.3L512.8,69.9z"/>
	<polygon points="512.8,60.1 590.1,60 589.9,59.8 512.8,59.7 501.8,59.8 501.3,60.1 	"/>
	<polygon points="576,50.2 575.7,50 517.1,50 516.6,50.3 	"/>
	<path d="M524.6,371.6c0.8,0.1,1.5,0.2,2.3,0.3l34.1,0c0.5-0.1,1.1-0.1,1.6-0.2L524.6,371.6z"/>
	<path d="M512.8,361.8l-27.1,0c0.3,0.1,0.6,0.2,0.8,0.3l26.3,0l87.8-0.1c0.1,0,0.2-0.1,0.4-0.1L512.8,361.8z"/>
	<polygon points="512.8,352 447.9,352.1 447.9,352.3 512.8,352.3 643.1,352.2 643.1,352.2 	"/>
	<polygon points="512.8,342.2 447.9,342.3 447.9,342.5 512.8,342.6 643.2,342.4 643.2,342.4 	"/>
	<polygon points="512.8,332.4 447.8,332.5 447.8,332.7 512.8,332.8 643.2,332.6 643.2,332.6 	"/>
	<polygon points="512.8,322.6 447.8,322.7 447.8,322.9 512.8,323 643.2,322.8 643.2,322.8 	"/>
	<polygon points="512.8,312.9 447.8,312.9 447.8,313.1 512.8,313.2 643.2,313 643.2,313 	"/>
	<polygon points="512.8,303.1 447.8,303.2 447.8,303.3 512.8,303.4 643.2,303.2 643.2,303.2 	"/>
	<polygon points="512.8,293.3 447.8,293.4 447.8,293.5 512.8,293.6 643.2,293.5 643.2,293.5 	"/>
	<polygon points="643.2,283.7 512.8,283.5 447.8,283.6 447.8,283.8 512.8,283.8 643.2,283.7 	"/>
	<polygon points="512.8,273.7 447.8,273.8 447.8,274 512.8,274.1 643.2,273.9 643.2,273.9 	"/>
	<polygon points="512.8,263.9 447.8,264 447.8,264.2 512.8,264.3 643.2,264.1 643.2,264.1 	"/>
	<polygon points="512.8,254.1 447.8,254.2 447.8,254.4 512.8,254.5 643.2,254.3 643.2,254.3 	"/>
	<polygon points="512.8,244.7 643.3,244.5 643.3,244.5 512.8,244.4 447.8,244.4 447.8,244.6 	"/>
	<polygon points="512.8,234.9 643.3,234.7 643.3,234.7 512.8,234.6 447.8,234.7 447.8,234.8 	"/>
	<polygon points="512.8,225.1 643.3,225 643.3,225 512.8,224.8 447.8,224.9 447.8,225 	"/>
	<polygon points="512.8,215.5 447.8,215.6 447.8,215.7 512.8,215.8 643.3,215.7 643.3,215.7 	"/>
	<polygon points="512.8,205.7 447.8,205.8 447.8,206 512.8,206 643.3,205.9 643.3,205.9 	"/>
	<polygon points="512.8,195.9 447.8,196 447.8,196.2 512.8,196.3 643.3,196.1 643.3,196.1 	"/>
	<polygon points="512.8,186.1 447.8,186.2 447.8,186.4 512.8,186.5 643.3,186.3 643.3,186.3 	"/>
	<polygon points="512.8,176.3 447.8,176.4 447.8,176.6 512.8,176.7 643.3,176.5 643.3,176.5 	"/>
	<polygon points="512.8,166.6 447.8,166.6 447.8,166.8 512.8,166.9 643.3,166.7 643.3,166.7 	"/>
	<polygon points="512.8,156.8 447.8,156.9 447.8,157 512.8,157.1 643.3,156.9 643.3,156.9 	"/>
	<path d="M512.8,147.3l128.6-0.2c0,0,0,0,0,0L512.8,147l-63.2,0.1c0,0.1-0.1,0.1-0.1,0.2L512.8,147.3z"/>
	<path d="M638.8,143c0,0,0-0.1-0.1-0.1l-26.4-0.2l-10.6,0l-0.7,0.6l11.2,0L638.8,143z"/>
	<polygon points="566.7,143.4 567.6,142.6 512.8,142.5 498.3,142.5 497.1,143.5 512.8,143.5 	"/>
	<path d="M461.8,142.6l-9.4,0c-0.1,0.2-0.3,0.5-0.4,0.7l8.9,0L461.8,142.6z"/>
	<polygon points="578.4,133.5 579.2,132.9 512.8,132.7 510,132.7 508.8,133.7 512.8,133.7 	"/>
	<path d="M473.5,132.8l-16.9,0c-0.1,0.2-0.2,0.5-0.2,0.7l16.2,0L473.5,132.8z"/>
	<path d="M634.5,133.1l-21.1-0.2l-0.6,0.5l21.7-0.2C634.6,133.2,634.5,133.2,634.5,133.1z"/>
	<path d="M632.2,123.3l-7.2-0.1l-0.4,0.3l7.6-0.1C632.2,123.4,632.2,123.4,632.2,123.3z"/>
	<polygon points="590.1,123.7 590.8,123.1 579.2,123.1 521.6,122.9 520.5,123.9 579.2,123.8 	"/>
	<path d="M485.2,123l-26.3,0.1c-0.1,0.2-0.1,0.5-0.2,0.7l25.4,0.1L485.2,123z"/>
	<polygon points="533.3,113.2 532.2,114.1 579.2,114 601.8,113.9 602.5,113.3 579.2,113.3 	"/>
	<path d="M460.9,114l34.9,0.1l1.1-0.9l-35.8,0.1C461.1,113.5,461,113.8,460.9,114z"/>
	<polygon points="612.4,103.6 579.2,103.5 544.9,103.4 543.9,104.3 579.2,104.2 612.4,104.1 613.5,104.1 614.1,103.6 	"/>
	<path d="M463.8,104.2l43.6,0.1l1.2-1l-44.5,0.1C464,103.7,463.9,104,463.8,104.2z"/>
	<path d="M556.5,93.7l-1,0.8l23.6-0.1l33.2-0.1l10.7-0.1c-0.1-0.1-0.1-0.2-0.2-0.3l-10.6-0.1l-33.2-0.1L556.5,93.7z"/>
	<path d="M512.8,94.6l6.2,0l1.2-1l-7.4,0l-44.7,0.1c-0.1,0.3-0.3,0.5-0.4,0.8L512.8,94.6z"/>
	<path d="M530.8,84.7l1.1-0.9l-19.1,0l-39.1,0.1c-0.2,0.3-0.4,0.5-0.5,0.8l39.6,0.1L530.8,84.7z"/>
	<path d="M612.4,84.5l5.2,0c-0.1-0.1-0.2-0.3-0.3-0.4l-4.9,0l-33.2-0.1l-11.1,0l-0.9,0.7l11.9,0L612.4,84.5z"/>
	<path d="M542.5,74.9l1-0.9L512.8,74L482,74c-0.3,0.3-0.6,0.6-0.9,0.9l31.7,0.1L542.5,74.9z"/>
	<path d="M579.8,74.1l-0.8,0.7l0.2,0l30.5-0.1c-0.2-0.2-0.3-0.3-0.5-0.5L579.8,74.1z"/>
	<path d="M554.2,65.1l1-0.8l-42.3-0.1l-18,0l-0.6,0.4l0,0c-0.3,0.2-0.6,0.4-0.9,0.6l19.5,0.1L554.2,65.1z"/>
	<path d="M590.7,65l6.7,0c-0.2-0.1-0.4-0.3-0.6-0.4l0,0l-0.3-0.2l-5,0L590.7,65z"/>
	<polygon points="565.9,55.3 566.8,54.5 512.8,54.4 510.2,54.4 508.6,55.4 512.8,55.4 	"/>
	<path d="M579.2,366.4l-33.4-0.1l-1,0.9l34.4-0.1l4.9,0c0.8-0.2,1.5-0.4,2.3-0.6L579.2,366.4z"/>
	<path d="M503.7,367.2l5.7,0l1.2-1l-10.4,0C501.3,366.6,502.5,366.9,503.7,367.2z"/>
	<path d="M521,357.4l1.2-1l-9.4,0l-44.3,0.1c1,0.3,1.9,0.5,2.9,0.8l41.4,0.1L521,357.4z"/>
	<path d="M612.4,356.7l-33.2-0.1l-21.7-0.1l-0.9,0.8l22.7-0.1l33.2-0.1l4,0c0.5-0.1,1.1-0.3,1.6-0.4L612.4,356.7z"/>
	<polygon points="532.7,347.6 533.8,346.7 512.8,346.7 464.3,346.8 463.4,347.5 512.8,347.7 	"/>
	<polygon points="612.4,346.9 579.2,346.8 569.1,346.8 568.2,347.5 579.2,347.5 612.4,347.4 638,347.2 638.1,347.1 	"/>
	<polygon points="612.4,337.1 580.7,337 579.9,337.7 612.4,337.6 643.2,337.4 643.2,337.4 	"/>
	<polygon points="544.4,337.8 545.5,337 512.8,336.9 476,337 475,337.8 512.8,337.9 	"/>
	<polygon points="612.4,327.3 592.4,327.3 591.6,327.9 612.4,327.8 643.2,327.6 643.2,327.6 	"/>
	<polygon points="447.8,327.9 450.4,327.9 451.3,327.2 447.8,327.3 	"/>
	<polygon points="556.1,328 557.1,327.2 512.8,327.1 487.7,327.1 486.7,328 512.8,328.1 	"/>
	<polygon points="567.8,318.2 568.7,317.4 512.8,317.3 499.4,317.3 498.3,318.3 512.8,318.3 	"/>
	<polygon points="612.4,317.6 604,317.5 603.3,318.1 612.4,318.1 643.2,317.8 643.2,317.8 	"/>
	<polygon points="447.8,318.2 462.1,318.2 463,317.4 447.8,317.5 	"/>
	<polygon points="447.8,308.4 473.7,308.4 474.7,307.6 447.8,307.7 	"/>
	<polygon points="512.8,308.5 579.2,308.4 579.5,308.4 580.4,307.7 579.2,307.7 512.8,307.5 511.1,307.5 509.9,308.5 	"/>
	<polygon points="615.6,307.8 615,308.3 643.2,308 643.2,308 	"/>
	<polygon points="627.1,298.1 626.8,298.4 643.2,298.3 643.2,298.2 	"/>
	<polygon points="591.3,298.5 592,297.9 579.2,297.9 522.8,297.8 521.6,298.7 579.2,298.6 	"/>
	<polygon points="447.8,298.6 485.3,298.7 486.4,297.8 447.8,297.9 	"/>
	<polygon points="447.8,288.8 496.9,288.9 498.1,288 447.8,288.1 	"/>
	<polygon points="638.7,288.4 638.6,288.5 643.2,288.5 643.2,288.4 	"/>
	<polygon points="603,288.7 603.6,288.2 579.2,288.1 534.4,288 533.3,288.9 579.2,288.8 	"/>
	<polygon points="612.4,278.4 579.2,278.3 546,278.2 545,279.1 579.2,279 612.4,278.9 614.7,278.9 615.2,278.4 	"/>
	<polygon points="509.8,278.2 447.8,278.3 447.8,279 508.6,279.2 	"/>
	<polygon points="520.2,269.4 521.4,268.4 512.8,268.4 451.8,268.5 451,269.2 512.8,269.4 	"/>
	<polygon points="612.4,268.6 579.2,268.5 557.7,268.5 556.7,269.3 579.2,269.2 612.4,269.1 626.4,269 626.8,268.7 	"/>
	<polygon points="612.4,258.8 579.2,258.8 569.3,258.7 568.4,259.5 579.2,259.4 612.4,259.3 638.2,259.1 638.3,259 	"/>
	<polygon points="463.5,258.7 462.6,259.5 512.8,259.6 531.9,259.6 533,258.6 512.8,258.6 	"/>
	<polygon points="612.4,249.1 580.9,249 580.1,249.6 612.4,249.6 643.2,249.3 643.2,249.3 	"/>
	<polygon points="543.7,249.7 544.7,248.9 512.8,248.8 475.2,248.9 474.3,249.7 512.8,249.8 	"/>
	<polygon points="612.4,239.3 592.6,239.2 591.8,239.8 612.4,239.8 643.3,239.5 643.3,239.5 	"/>
	<polygon points="452.5,239.2 447.8,239.2 447.8,239.9 451.6,239.9 	"/>
	<polygon points="555.4,239.9 556.3,239.1 512.8,239 486.9,239.1 485.9,240 512.8,240 	"/>
	<polygon points="464.2,229.3 447.8,229.4 447.8,230.1 463.3,230.1 	"/>
	<polygon points="567.1,230.1 567.9,229.4 512.8,229.2 498.6,229.3 497.5,230.2 512.8,230.2 	"/>
	<polygon points="643.3,229.8 643.3,229.7 612.4,229.5 604.2,229.5 603.5,230 612.4,230 	"/>
	<polygon points="578.2,220.8 579,220.1 512.8,219.9 509.8,219.9 508.6,220.9 512.8,220.9 	"/>
	<polygon points="475.3,220 447.8,220.1 447.8,220.8 474.3,220.8 	"/>
	<polygon points="643.3,220.4 615.2,220.2 614.7,220.7 643.3,220.5 	"/>
	<polygon points="447.8,211 485.9,211.1 487,210.2 447.8,210.3 	"/>
	<polygon points="521.4,210.2 520.2,211.1 579.2,211 589.9,211 590.6,210.3 579.2,210.3 	"/>
	<polygon points="626.8,210.5 626.4,210.8 643.3,210.7 643.3,210.6 	"/>
	<polygon points="643.3,200.9 643.3,200.8 638.3,200.8 638.2,200.9 	"/>
	<polygon points="533,200.4 531.9,201.3 579.2,201.2 601.6,201.1 602.2,200.6 579.2,200.5 	"/>
	<polygon points="447.8,201.2 497.6,201.3 498.7,200.4 447.8,200.5 	"/>
	<polygon points="612.4,190.8 579.2,190.7 544.7,190.7 543.6,191.5 579.2,191.4 612.4,191.3 613.3,191.3 613.9,190.8 	"/>
	<polygon points="447.8,191.4 509.2,191.6 510.4,190.6 447.8,190.7 	"/>
	<polygon points="612.4,181.5 625.1,181.4 625.4,181.1 612.4,181 579.2,181 556.3,180.9 555.3,181.7 579.2,181.6 	"/>
	<polygon points="452.5,180.9 451.6,181.6 512.8,181.8 520.9,181.8 522,180.8 512.8,180.8 	"/>
	<polygon points="612.4,171.8 636.8,171.6 637,171.4 612.4,171.3 579.2,171.2 567.9,171.1 567,171.9 579.2,171.8 	"/>
	<polygon points="464.2,171.1 463.2,171.9 512.8,172 532.6,172 533.7,171.1 512.8,171 	"/>
	<polygon points="544.3,162.2 545.3,161.3 512.8,161.2 475.9,161.3 474.9,162.1 512.8,162.2 	"/>
	<polygon points="643.3,161.7 612.4,161.5 579.6,161.4 578.7,162.1 579.2,162.1 612.4,162 643.3,161.7 	"/>
	<polygon points="447.8,152.3 450.3,152.3 451.1,151.6 447.8,151.6 	"/>
	<polygon points="487.6,151.5 486.5,152.4 512.8,152.4 556,152.3 556.9,151.5 512.8,151.4 	"/>
	<polygon points="612.4,151.7 591.2,151.6 590.4,152.2 612.4,152.2 643.3,152 643.3,151.9 	"/>
</g>
</svg>
