<?xml version="1.0" encoding="utf-8"?>
<!-- Generator: Adobe Illustrator 25.3.0, SVG Export Plug-In . SVG Version: 6.00 Build 0)  -->
<svg version="1.1" id="Layer_1" xmlns="http://www.w3.org/2000/svg" xmlns:xlink="http://www.w3.org/1999/xlink" x="0px" y="0px"
	 viewBox="0 0 750.2 400.1" style="enable-background:new 0 0 750.2 400.1;" xml:space="preserve">
<path d="M139.3,138.1l16.5,2.3l2.6-14.7c-8.4-0.9-13.9-1.7-15.9-1.9C141.6,127.9,140.5,132.7,139.3,138.1z"/>
<path d="M417.7,137.9l16.5,2.3l2.5-14.5c-8.4-0.9-13.9-1.7-15.9-1.9C419.9,127.8,418.9,132.6,417.7,137.9z"/>
<path d="M329,123c-2.3,0.4-8.8,1.4-18.9,2.6l2.5,14.4l19.5-2.8C330.9,131.8,329.9,127,329,123z"/>
<path d="M607.3,123c-2.3,0.4-8.8,1.4-18.9,2.6L591,140l19.5-2.8C609.3,131.8,608.2,127,607.3,123z"/>
</svg>
