<?xml version="1.0" encoding="utf-8"?>
<!-- Generator: Adobe Illustrator 25.3.0, SVG Export Plug-In . SVG Version: 6.00 Build 0)  -->
<svg version="1.1" id="Layer_1" xmlns="http://www.w3.org/2000/svg" xmlns:xlink="http://www.w3.org/1999/xlink" x="0px" y="0px"
	 viewBox="0 0 750.2 400.1" style="enable-background:new 0 0 750.2 400.1;" xml:space="preserve">
<g>
	<path d="M300.1,149.8c0,0-7.5-8-10.6-22.1c-0.2-0.8-0.4-1.8-0.6-2.8c-4.4-1.9-9-1.9-13.7,0.2c-2.7,1.2-5.2,0.1-7.7-0.8
		c-4-1.5-7.6-4-11.1-6.4c-2.2-1.5-4.6-2.8-6.9-4.1c-2.8-1.5-5.5-1.4-8.3,0c-1.6,0.8-3.2,1.4-5,1.1c-2.3-0.4-4.1-2.8-3.9-5.2
		c0-0.7,0.4-1.2,0.8-1.7c0.3-0.3,0.7-0.5,1-0.7c2.9-1.7,2.9-4.1,0-6c-0.8-0.6-1.7-0.9-2.7-1.2c-2.5-0.6-5-0.7-7.6-0.7
		c-0.9,0-1.8,0-2.5,0.9c1.8,1,2.9,2.8,2.5,4c-0.3,1-2.1,1.5-4,1.2c-0.9-0.1-1.8-0.4-2.5-1c-1.7,1.8-3.9,2.4-6.3,2.5
		c-1.9,0-3.8,0.2-5.8,0.3c-1.5,0.1-2.7,0.8-3.9,1.6c-0.9,0.6-1.8,1.3-2.8,1.6c-0.3,0.1-0.7,0.2-1-0.1c-0.3-0.4-0.2-0.8,0-1.2
		c0.5-1.2,1.5-1.8,2.6-2.1c1.9-0.5,3.7-1.3,5.5-2.3c1.5-0.8,3.1-0.6,4.6-0.6c0.6,0,1.6,0.3,1.8-0.7c0.2-1.1-0.6-1.7-1.5-1.9
		c-2.2-0.7-4.4-0.5-6.6-0.7c-2.3-0.3-4.7-0.4-6.7-1.7c-0.8-0.5-1.5-1.1-1.9-2c-0.3-0.6-0.4-1.3,0.1-1.8c0.5-0.6,1.1-0.4,1.7-0.1
		c4,2.6,8.6,3,13.1,3.6c0,0,0.1,0,0.2,0c-1.4-2.3-3.5-3.9-5.2-6c-2.4-2.9-5.3-5.3-8.2-7.6c-0.3-0.2-0.6-0.4-0.9-0.7
		c-1.4-0.2-2.7-0.4-4-0.8l0,0.1l-0.5-0.1c0,0-0.6-0.1-1.6-0.4c-0.6,0.5-1,1.2-1.4,2.3c-1.1,3.3-3.1,4.3-6.2,3.1
		c-1.5-0.6-2.9-1.6-4.2-2.5c-1.1-0.7-2.1-1.5-3.3-2.1c-2.2-1.3-4.5-1.6-6.9-0.7c-2.9,1.1-5.8,2.1-8.7,3.1c-1.8,0.6-3.7,0.9-5.5,1.1
		c-2.7,0.2-4.9-0.7-6.5-3.1c-2.3-3.3-5.6-4.6-9.2-5c-1.5-0.2-3-0.2-4.5-0.1c-1.5,1.9-2.9,4-4.2,6c0.2,0.1,0.4,0.1,0.6,0.2
		c2.1-0.5,4.1-1,6.2-1.4c2.6-0.5,4.6,0.7,6.3,2.6c0.5,0.5,0.9,1.2,0.4,1.9c-0.4,0.7-1.1,0.6-1.7,0.5c-1.6-0.3-3.1-1-4.7-0.2
		c2.3,1.6,4.6,2.7,7.4,2.3c0.8-0.1,1.6,0,2.4,0.3c0.9,0.3,1.5,1,1.4,2.1c0,1.1-0.8,1.4-1.6,1.6c-1.7,0.5-3.4,0.5-5.1,0.8
		c-1.1,0.1-2.5,0.1-2.8,1.5c-0.4,1.5,0.9,2.2,1.8,2.8c3.2,2.1,6.5,3,10.1,1.5c0.8-0.4,1.7-0.6,2.7-0.5c0.9,0.1,1.5-0.3,1.9-1.3
		c1-3,3-4.3,5.9-3.2c3.8,1.4,6.9,3.9,8.1,8.4c0.1,0.5,0.4,1,0.6,1.5c1.5,0.9,3,1.7,4.5,2.7c1.4,0.9,2.8,1,4.3,0.9
		c0.3-0.3,0.6-0.6,0.8-1c1.7-2.8,3.7-2.9,6.6-1.7c1.5,0.6,1.7,2.1,1.6,3.5c-0.2,4.5,1.7,7.8,4.8,10.6c0.8-1.1,1.8-1.3,3-1.3
		c4.1,0,7.8,1.6,11.3,3.6c6.9,3.9,14.1,6.7,21.8,7.8c0.3,0,0.5,0,0.8,0.1c4.9,1.7,9.9,1.5,14.9,0.3c3.1-0.8,6.2-0.3,9.2,0.4
		c3.5,0.9,7,1.7,10.5,2.6c1.9,0.5,3.8,1,5.6,2.1c0.5,0.3,1,0.6,1.4,0.9c1.3,1.1,2.7,2.4,2.4,4.4c-0.3,1.9-2,2.4-3.6,2.9
		c-0.8,0.3-1.7,0.3-2.4,0.9c0,0.2,0,0.4,0,0.6c0.1,0.1,0.1,0.2,0,0.3c-0.1,2.1-0.6,4-1.6,5.7c-0.8,1.3-1.8,2.3-3.3,2.7
		c-2.2,0.5-2.8,0.1-3.3-2.1c-0.9-3.9-2.9-5.4-7.6-5.9c-3.4-0.4-6.8-0.1-10.1-0.9c-0.3-0.1-0.6-0.1-0.9-0.3
		c-3.8-1.9-7.9-3.1-12.1-3.5c-0.8-0.1-1.6-0.6-2.4-0.9c-0.8-0.7-1.6-1.3-2.3-2.2c-2.4-3.2-5.7-5-9.2-6.3c-0.7-0.3-1.5-0.8-2.1,0.1
		c-0.5,0.8,0.1,1.5,0.6,2.1c0.8,0.9,1.7,1.9,2.5,2.8c0.1,0.1,0.2,0.3,0.2,0.4l0.1,0c2.7,2.2,5.7,4.2,6.8,8.1
		c0.4,1.2,1.5,1.6,2.6,1.7c0.9,0.1,1.8-0.1,2.7,0.2c1.4,0.5,1.6,1.2,0.5,2.3c-0.3,0.3-0.6,0.6-0.9,0.9c-1,0.9-1.8,0.8-2.6-0.3
		c-0.9-1.3-2.1-1.6-3.5-2c-1.9-0.5-3.6-1.4-5.7-0.7c-0.6,0.2-1.3-0.3-2-0.7c-4.9-3.5-9.9-6.9-14.3-11.1c-2.1-2-4.4-1.7-6.8-0.7
		c-0.4,0.2-0.8,0.5-0.8,1.1c0.1,0.5,0.5,0.7,0.9,0.8c0.6,0.2,1.3,0.3,2,0.3c1.3-0.2,2.5,0.2,3.4,1.4c4.1,1.9,7,5.4,9.9,8.9
		c0.1,0.1,0.2,0.2,0.3,0.2c0.1,0,0.2,0.1,0.3,0.1c0.2,0.2,0.5,0.4,0.7,0.6l0,0c1.8,1.8,3.6,3.4,6.2,3.8c0.7,0.1,1.8,0.6,1.5,1.4
		c-0.3,0.9-1.2,0-1.8-0.2c-2.1-1.1-4.3-2-6-3.8c-1.6-0.5-2.8-1.7-4.2-2.6c-0.8-0.5-1.7-1.2-2.4-0.2c-0.7,1,0,2,0.8,2.6
		c1.4,1,2.4,2.3,3.5,3.5c2.9,3,6.4,4.9,10.4,5c3.4,0.1,6.9-0.3,10.3-0.5c2.6-0.1,5.2-0.2,7.7-0.6c1.3-0.2,2.4,0.3,3.4,1.1
		c1.5,1.1,3.1,1.5,5,1.1c2.3-0.5,4.5,0,6.6,1.2c2,1.1,3,2.8,3.2,5.2c0,0.6,0.2,1.2,0.2,1.8c0.1,1.4,0.3,2.7,1.8,3.1
		c1.4,0.4,2.1-0.6,2.9-1.6c0,0,0-0.1,0.1-0.1c0,0,0.1,0,0.1,0c-0.1,0-0.1,0.1-0.2,0.1c-0.4,3.6-3.4,5.6-6.7,4.3
		c-1.8-0.7-3.4-1.7-5-2.8c-3.5-2.3-7.2-4.3-11-5.8c-1,1-2.2,1.1-3.4,0.6c-1.9-0.8-3.8-1-5.8-0.7c-1.1,0.2-2.3,0-3.2-0.8
		c-2.4-2-4.9-1.9-7.4-0.5c-3.1,1.8-6.2,1.7-9.4,0.4c-2.5-1-4.9-2.2-7.3-3.3c-2.7-1.2-4.4-3.6-5.9-6.2c-0.9-1.7-2.1-3-3.7-4
		c-1.5-0.8-2.5-2.3-2.9-4c-0.6-2.7-2.1-4-4.5-4.7c-2.6-0.8-5.2-1.8-7.7-2.9c-3.8-0.7-7.7-1.5-11.5-2.2c-0.8-0.2-1.4-0.6-1.6-1.6
		c-0.1-1,0.3-1.7,1-2.2c0.8-0.6,1.7-0.7,2.6-1c1.9-0.7,2.2-1.8,1.1-3.6c-0.9-1.4-2.1-2.3-3.6-2.8c-3.1-1.1-6.2-1.1-9.3-0.3
		c-1.4,0.4-2.2,1.3-2.1,2.9c0,0.7,0,1.4,0,2.1c0,0.8-0.3,1.4-0.8,1.8c-0.2,0.2-0.5,0.4-0.8,0.2c-0.4-0.2-0.3-0.5-0.2-0.8
		c0.1-0.4,0.1-0.9,0.1-1.3c0-1.5-0.9-2-2.1-1.4c-0.3,0.2-0.6,0.4-0.9,0.6c-0.6,0.4-1.1,0.6-1.2-0.5c-0.1-1.2-1.1-1.5-2-1.7
		c-2.7-0.8-5.5-1-8.3-1.1c-1.6-0.1-2.8-1-4.1-1.9c-0.5-0.3-0.6-1-0.7-1.6c-0.1-0.7,0.1-1,0.7-0.7c3.4,1.3,7,1,10.3,2.5
		c0.8,0.4,1.8,0.5,2.7,0.3c0.6-0.2,1.4-0.1,1.6-1c0.1-0.8-0.5-1.2-1-1.5c-1.2-0.9-2.5-1.7-3.8-2.5c-0.9-0.5-1.3-1-0.4-2.1
		c1-1.3,1.2-2.8,0.2-4.2c-0.5-0.7-0.4-1,0.3-1.4c0.8-0.5,1.3-1.2,1.1-2.3c-0.2-1.1-1-0.9-1.6-1.1c-1.9-0.5-3.6-1.5-5.3-2.4
		c-1.4-0.7-2.8-1.3-4.3-1.4c0.1,1.1,1,1.6,1.7,2.1c0.5,0.4,1.2,0.8,0.6,1.7c-0.6,0.7-1.3,1.2-2.1,0.5c-0.4-0.3-0.8-0.9-1-1.4
		c-1.3-2.4-5-4.2-7.6-3.5c-0.8,0.2-1.4,0.7-1.7,1.4c-0.1,0.4-0.3,0.9-0.4,1.3c-0.2,1.2-0.3,2.4-0.5,3.5c-0.2,1-0.5,1.6-1.1,2.1
		c-1.4,5.5-2.3,10.3-3.1,13.8c-0.4,1.9-0.9,3.7-1.5,5.4c0.6,1.6,1.1,3.2,1.6,4.8c4.7,0.9,9.1,2.7,13.5,4.7c0.8,0.4,1.5,0.9,2.2,1.5
		c1.8,1.5,3.8,1.9,6,1.5c1.6-0.3,3.3-0.7,5-0.8c4.5-0.2,8,1.8,10.8,5.3c2.2,2.8,1.6,5.1-1.7,6.4c-1.7,0.6-3.4,0.2-5.1,0
		c-2.4,0.8-4.9,0.4-7.4,0.2c-1.7-0.1-3.3-0.7-5-0.2c-0.2,0.1-0.5,0.1-0.7,0.2c-0.9,0.4-2.1,0.9-1.9,2c0.2,1.3,1.5,0.9,2.3,0.8
		c2.5-0.4,5,0.1,7.3,1.2c6.8,3.1,13.7,5.6,20.7,8c2.4,0.8,4.9,1.6,7.4,1.3c0.7-0.1,1.5-0.1,1.8-0.7c0.5-1.5,1.5-1.1,2.5-1
		c3.1,0.5,6.2,0.8,9.2,0c2.5-0.7,4.3-2.2,5.1-5c0.8-2.8,1.5-3,4-1.7c4.6,2.4,9.3,4.6,14.5,5.2c2.1,0.2,4.3,0.3,6.4,0.5
		c3.7,0.3,6.1,3.2,6,7.2c-0.1,1.9-0.6,3.8-1.4,5.5c-1.6,3.2-4,4.2-7.3,3.2c-3.4-1-6.3-2.9-9.3-4.9c-4.1-2.7-8.5-3.9-13.1-2.3
		c-9.2,3.1-17.8,1.1-26.4-2.8c-3.8-1.7-7.4-3.7-11.1-5.7c0.9,5.8,4.2,9.2,9.2,11c5,1.8,10.1,2.9,15.4,2.3c1.7-0.2,3.3-0.1,5-0.1
		c0.7,0,1.3,0.2,1.7,0.9c0.4,0.8,0,1.4-0.5,1.9c-0.7,0.8-1.3,1.7-1.7,2.7c3.9,1.3,7.7,2.8,10.5,6.3c0.7,0.9,1.2,2,1.5,3.2
		c0.3,1.6-0.3,2.5-1.8,2.8c-1.3,0.2-2.6-0.2-3.9-0.5c-1.8-0.5-3.5-0.9-5.4-0.9c-2,0-3.2,1-3.4,2.9c-0.2,1.4,0.5,2.3,2.5,2.9
		c2,0.6,4.1,1,6.1,1.4c1.3,0.3,2.5,0.9,3.4,2c2.1,2.3,1.4,4.9-1.5,5.6c-1.8,0.5-3.6,0.4-5.5,0.2c-4-0.6-7.9-1.3-11.8-2
		c0-0.2,0-0.3,0-0.4c0.6-0.5,1.4-0.8,1.2-1.7c-0.2-1-1.1-1.2-1.9-1.3c-1-0.2-1.9,0.2-2.8,0.6c-1.4,0.6-2.7,0.5-3.7-0.6
		c-3.2-3.7-7.3-3.8-11.5-3.7c-1.1,0-2.2,0.1-3.3,0.4c-1.6,0.4-3,0.1-4.5-0.8c-4.4-2.7-9.3-4-14.2-5.4c-5.2-1.5-10.4-3.1-15-6.2
		c-3-2-5.7-4.4-7.4-7.8c-0.2-0.5-0.5-0.8-1-0.9c-0.2-0.1-0.4-0.2-0.6-0.2l0,26.7c3.7,1.4,7.6,1.3,11.5,0.8c1.3-0.1,2.6-0.3,3.9-0.5
		c-2.2-2.4-4.5-4.6-7.6-5.5c-0.8-0.2-1.5-0.7-2.2-1.1c-0.4-0.2-1-0.4-0.7-1c0.3-0.5,0.9-0.3,1.2-0.1c1.6,1.3,3.5,1.4,5.3,1.7
		c1,0.1,1.9,0.1,2.6-0.8c0.2-0.3,0.6-0.7,1-0.5c0.5,0.2,0.5,0.8,0.5,1.2c0.2,2.3,1.2,3.2,3.3,3.1c0.9-0.1,1.6,0.2,2.2,0.8
		c0.8,0.9,1.9,1.3,3.1,1c1.2-0.3,2.3,0,3.4,0.6c2.4,1.4,4.9,1.4,7.3,0c1.3-0.8,2.5-0.7,3.8,0c2.4,1.4,4.6,3,5,6.3
		c0.4,2.8,2.7,3.3,4.8,3.7c0.8,0.2,1.6,0.3,2.1,1.2c0.3,0.4,0.7,0.7,1.1,0.7c2.8,0.1,4.8,2,7.1,3.4c2.8,1.7,5.8,3.1,9.1,3.4
		c0.8-1.5,1.6-3,2.6-4.4c1.8-2.3,4.1-3.1,6.8-2.6c0.9,0.2,1.8,0.5,2.6,0.8c2,0.8,3.8,0.6,5.4-0.9c0.2-0.2,0.6-0.5,0.8-0.4
		c2,1,3-0.7,4.3-1.6c0.5-0.3,0.8-0.8,1.3-1.2c1.5-1.4,2.5-1.4,4.2-0.3c1.6,1.1,2.8,2.7,3.9,4.3c1.3,1.8,2.5,3.7,4.2,5.1
		c2.6,2.3,4.8,2.1,7-0.7c1-1.3,2-2.6,2.9-4c1.9-3,4.4-4,7.6-3.2c0.6,0.2,1.2,0.3,1.8,0.4c1,0,2-0.3,2.9-0.8c2.7-1.3,5.2-1.1,7.6,0.7
		c0.4,0.3,0.9,0.7,1.5,0.7c0.3-1.4,1.3-1.8,2.5-1.9c2.5-0.1,4.9,0.6,7.1,1.6c2.6,1.2,5.1,1,7.6-0.1c2.3-1.1,4.7-1.2,7.1-0.2
		c1.1,0.4,2,0.1,2.3-1.2c0.3-1.4-0.9-1.6-1.7-1.7c-1.2-0.1-2.3,0-3.5-0.2c-0.6-0.1-1.4-0.3-1.4-1c0-0.9,0.9-0.9,1.5-0.9
		c0.9,0.1,1.6-0.3,2-1.1c0.9-1.8,2.5-2.1,4.2-1.9c3.2,0.3,5.9,1.9,8.2,4.3c0.7,0.8,1.4,1.6,2,2.4c5.3,7.2,12.6,11,20.5,13.6
		c0.6,0.2,1.2,0.3,1.8,0.4l0-42.7c-1.9-0.1-3.8,0.9-6.6,2.9c-1.5,1.1-3,2.3-4.5,3.4c-0.4,0.3-0.8,1-1.4,0.7
		c-0.5-0.3-0.3-1.1-0.3-1.7c-3.3-1.1-7.2,0.4-9.2,3.5c-0.5,0.8-1,1.6-1.6,2.4c-0.3,0.4-0.8,1-1.4,0.6c-0.6-0.4-0.2-1-0.1-1.5
		c0.5-2,1-4.1,1.6-6.3c-1.2,0.5-2,0.4-2.3-1.2c-0.1-0.9-1-0.9-1.8-0.9c-0.9,0-1.8,0.2-2.7,0.1c-1.4-0.1-1.7-0.7-1-2
		c0.3-0.6,1.1-1.3,0.3-2c-0.7-0.6-1.5,0-2,0.6c-2.7,3.1-5.9,3-9.3,1.7c-0.8-0.3-1.5-0.6-2.3-0.8c-2.1-0.7-3.9-0.1-5.2,1.9
		c-0.8,1.2-1.7,2.2-3.3,1.8c-1.6-0.4-2.5-1.6-2.9-3.2c-0.9-3.6,0.8-7.6,3.9-9.6c3-1.9,6.3-2,9.6-1.4c3.8,0.7,7.4,0.4,10.9-1.4
		c5-2.5,10-2.9,15.3-1.1c1.6,0.5,3,1.2,4.2,2.5c2,2,4.3,2.4,6.9,1.5c0.8-0.3,1.7-0.5,2.4-1c0.8-0.5,1.7-0.9,2.5-1.2l0-10.1
		c-0.1,0-0.1-0.1-0.2-0.1c-0.6-0.6-0.3-1.3-0.1-2c0.1-0.2,0.1-0.3,0.2-0.5l0-1.7c-4.7-0.4-9.3-1.9-13.9-2.8
		c-2.9-0.5-5.9-1.1-8.9-0.7c-2.1,0.3-3.5,1.6-4.8,3.1c-0.8,0.9-1.3,0.8-2,0c-1-1-2-2-2.6-3.4c-1-2.2-0.7-4.1,1.2-5.6
		c2.5-2,5.4-2.6,8.4-3.1c2-0.3,3.9-0.4,5.9-0.6c3.4-0.3,10.8,3.8,12.6,6.9c0.4,0.7,0.8,1.5,1.5,2c0.9,0.7,1.7,1,2.7,0.4l0-8.8
		L300.1,149.8L300.1,149.8z"/>
	<path d="M272,102.3c-2.5-2-5.1-4-7.2-6.5c-1.5-1.9-3.4-2.7-5.7-2.5c-0.4,0-0.7,0-1.1,0.1c-3.6,0.9-7,0.9-10.1-1.8
		c-1-0.9-2.5-0.9-3.8-1.2c3.5,9,10.2,13.7,18.7,15.8c2,0.5,4.2,0.2,6.2,0.1c2.1-0.1,4,0.4,5.8,1.7c1.6,1.2,3.4,1.9,5.3,2.3
		c0.8,0.1,1.5,0.5,2.1,0.9c1,0.6,2,1,3.2,1.1c0.2,0,0.4,0,0.6,0.1c-0.3-1.3-0.7-2.7-1.1-4.1C280.4,107.6,276.1,105.5,272,102.3z"/>
	<path d="M151.6,65.6c-2.8,1.2-5.3,2.7-7.7,4.3c-0.3,0.2-0.5,0.4-0.8,0.6c-1.1,0.8-2.1,1.6-3,2.4c1.8,6.2,5.3,8,11.6,6
		c1.9-0.6,3.7-1.1,5.6-1.5c0.6-0.1,1.2-0.3,1.7,0.2c2.3,2.6,5.5,3.2,8.5,3.9c4.3,1,8.4,0.1,12.4-1.7c-0.7-0.3-1.4-0.7-2.1-1.1
		c-2.9-1.6-6.5-4.3-10.2-7.4c-2.4,0.5-4.8,0.1-7-1c-1.9-1-3.7-2.3-5.5-3.4C153.7,66.2,152.6,65.7,151.6,65.6z"/>
	<path d="M239.9,75.1c2.3-0.2,4.6-0.5,7-0.4c1.4,0.1,2.7,0.4,3.9,1.2c1.1,0.7,1.6,1.8,1.3,3.2c-0.3,1-0.6,2.1-0.9,3.1
		c-0.5,1.7,0,2.6,1.6,2.9c0.6,0.1,1.2,0.2,1.8,0.1c2.6-0.4,4.9,0.5,7,2.1c1.5,1.1,3,2.2,4.5,3.3c2.9,2.1,6.1,3.3,9.6,3.1
		c1.3-0.1,2.6,0,3.8,0.1c-5.6-12-14.2-23.5-28-28.9l-4.7-1.3c-3.2,4.2-7.6,8.1-11.9,11.1C236.5,75,238.2,75.3,239.9,75.1z"/>
	<path d="M120,312.4c1.2,0.5,2.5,1.2,3.3-0.8c0.2-0.6,0.8-0.3,1.2-0.1c0.5,0.2,0.9,0.1,1.2-0.3c0.3-0.5,0.1-0.9-0.1-1.4
		c-1-1.7-2.9-2.2-4.3-3.3c-1.4-1-2.9-1.8-4.3-2.7c-0.3-0.2-0.7-0.4-0.5-0.9c0.1-0.3,0.5-0.3,0.8-0.2c3.9,0.4,7.8,0.8,10.2,5
		c1.4,2.4,3.9,2.4,6.3,2.4c0.6-1.1,1.7-1.7,2.6-2.5c0.6-0.5,1.1-0.1,1.7-0.1c0.7,0.1,1.7,0.8,1.7-0.9c0-0.5,0.6-0.3,0.9-0.3
		c1.5,0.2,2.8,0.8,4,1.9c1.6,1.5,2.7,3.4,4,5.1c1.3,1.7,2.5,3.4,4.3,4.6c1.9,1.3,3.6,1.2,5.3-0.4c1.1-1,1.9-2.2,2.7-3.3
		c0.6-0.9,1.3-1.8,1.9-2.8c1.7-2.4,4-3.2,6.7-2.7c2.7,0.5,5.3,1.2,7.7,2.4c2.7,1.3,5.1,1,7.3-1.2c1.9-1.9,4.3-2,6.6-1.6
		c4,0.7,8.1,0.8,12.1,1.4c3.4,0.5,6.7,1.5,9.9,2.7c7.5,2.8,14.9,2.2,22.3,0c5.1-1.6,10.2-3.3,15.7-2.8c3.4,0.3,6.8,0.6,10.2,0.9
		c2.3,0.2,4,1.4,5.1,3.6c2.3,4.3,5.6,6.5,11.7,4c2.1-0.8,4.1-1.8,5.8-3.5c-0.9-0.7-1.8-1.4-2.7-2.1c-1.3-1-2.7-1.7-4.3-2.1
		c-1.5-0.3-2.6-0.1-3.5,1.5c-0.8,1.4-2,1.6-3.4,0.4c-1.8-1.6-3.9-2.7-6.2-3.4c-1.5-0.4-2.9-0.6-4.2,0.4c-0.7,0.6-1.4,0.3-1.9-0.2
		c-0.6-0.6-1.2-1.3-1.7-2c-1-1.3-2.1-2.3-3.8-2.5c-1.3-0.2-2.1-1.1-2.5-2.4c-0.6-2.2-2.4-3.6-3.1-5.7c-0.3-1-1.6-1.3-2.5-1.6
		c-3.6-0.9-7-2.1-10.7-2.6c-3.7-0.5-6.4-2.8-8.6-5.9c-0.2-0.2-0.3-0.5-0.4-0.7c-2.4-3.7-3.7-3.9-6.7-0.7c-1,1.1-2.1,2-3.6,2.3
		c-0.8,0.2-1.6,0.7-1.9,1.5c-0.6,2.2-2,3.6-3.8,4.6c-2.4,3.1-4.3,3.6-7.8,2.2c-1.1-0.5-2.2-1.1-3.2-1.8c-1.3-0.9-2.7-1.6-4.3-1.8
		c-0.3,0-0.8,0-1-0.3c-2.3-1.9-4.8-1.2-7.2-0.9c-0.4,0.1-0.8,0.1-1.1,0.5c-0.9,1.2-2,1-3,0.5c-2.3-1.2-4.6-1.4-7-0.1
		c-0.6,0.3-1.3,0.5-1.9,0c-2.3-1.8-4.7-1.4-7.1-0.4c-0.5,0.2-1,0.4-1.4,0.5c-0.8,0.1-1.4-0.3-1.8-1c-0.4-0.7,0.1-1.2,0.6-1.7
		c0.7-0.7,1.6-1.1,2.5-1.5c0.2-0.5,0-1.1,0-1.6c0-2.1,0.7-3.8,2.5-4.9c1.1-0.6,2.2-1.2,3.2-1.9c1.6-1.1,1.7-2.5,0.4-3.9
		c-0.4-0.5-0.9-0.9-1.4-1.2c-2.3-1.2-4.4-2.6-6.4-4.5c-0.9-0.9-2.1-0.9-3.3-1c-2.1,0-4.2,0.3-6.2-0.5c-1.1-0.4-1.8-1.1-2.3-2.2
		c-1-2.6-2.6-4.3-5.5-4.4c-3-0.1-5.6-1.3-8-3.2c-4.3-0.9-8.3-2.7-12.5-4.1c-1.6-0.5-3.2-0.5-4.8-0.4c-0.9,0.1-1.7-0.2-2.1-1.1
		c-1.3-3-3.8-3.9-6.4-4.7c-2-0.6-4.1-1.1-6.1-2c-0.4-0.2-0.9-0.3-1.3-0.3l0,7.6c0,0,0,0,0.1,0c1.4,0.7,0.9,2.5,1.6,3.7
		c0.2,0.4-0.2,0.6-0.6,0.8c-0.3,0.2-0.7,0.4-1.1,0.6l0,10.2c0.3-0.1,0.7-0.2,1-0.2c1-0.3,2-0.1,2.9,0.6c3.2,2.2,6.5,2.7,10.2,1.1
		c4.9-2.1,10.1-1.5,15.2-0.7c1.4,0.2,2.8,0.6,4.2,0.7c1.7,0,2.7,0.9,3.6,2.3c0.4,0.7,0.9,1.3,1.6,1.7c2.5,1.4,5,2.9,6.4,5.8
		c1.2,0.9,2.7,1.3,3.7,2.5c0.6,0.7,1.3,1.4,1,2.4c-0.3,1.1-1.2,1.2-2.1,1.3c-2.4,0.3-4.6,0-6.8-1.2c-0.9-0.5-1.8-1.1-2.7-1.6
		c-1.5-0.2-2.9-0.6-4.4-0.4c-1.5,0.2-2.6,1.3-2.8,3c-0.2,1.5,0.9,2.1,1.9,2.6c2.2,0.9,4.5,1.2,6.8,1.7c1.6,0.4,2.9,1.3,3.9,2.7
		c1.3,2,0.6,4.1-1.6,4.7c-3.4,0.9-6.9,0.4-10.3-0.3c-2.6-0.5-5.1-1.3-7.8-1.3c-0.7,0-1.2-0.5-1.7-1c-1.7-1.5-3.4-3.1-5.7-3.7
		c-0.4-0.1-1-0.3-0.8-0.9c0.2-0.6,0.6-1.2,1.4-1.1c0.6,0.1,1.2,0.3,1.7,0.7c0.3,0.2,0.7,0.7,1,0.7c2-0.1,2.9,1.5,4,2.8
		c0.3,0.4,0.6,0.7,1,0.9c0.8,0.5,1.8,0.8,2.4,0.1c0.5-0.7-0.4-1.3-0.9-1.8c-3.5-3.5-7-7-12.1-7.5c-2.6-0.2-5,0.7-7.5,1
		c-2.3,0.2-4.5,0.5-6.8,0.8l0,17.4c2.9,0.1,5.5,1.3,7.8,3.3C114.8,309.6,117.3,311.3,120,312.4z"/>
	<path d="M109.6,274.4c-1.2-1.2-2.8-1.4-4.3-2c-0.2-0.1-0.4-0.2-0.6-0.3l0,3.8C106.4,276.1,108,275.7,109.6,274.4z"/>
	<path d="M231.1,355.8c-0.3,0.4-0.3,0.8-0.2,1.1c1.9-0.1,3.8-0.2,5.7-0.2c-1-0.4-2-0.9-3-1.2C232.7,355.2,231.7,354.7,231.1,355.8z"
		/>
	<path d="M104.7,323.7l0,1.8c0.2-0.1,0.3-0.2,0.5-0.3C105.3,324.6,105,324.2,104.7,323.7z"/>
	<path d="M263.1,350.9c-1.4-1-2.8-0.9-4.1,0.2c0,0-0.1,0.1-0.1,0.1c-3.3,3.5-5.9,2.1-7.8-1.8c-1.1-2.2-2.1-4.5-3.8-6.3
		c-2.1-2-3.9-2.4-6.4-0.9c-1.4,0.8-2.7,1.8-3.9,2.8c-1.8,1.5-1.7,4.6,0.8,5.2c0.9,0.2,1.9,0.6,2.6,1.4c0.3,0.3,0.5,0.7,0.4,1.2
		c-0.2,0.5-0.6,0.6-1,0.5c-0.6-0.1-1.2-0.2-1.8-0.4c-0.7-0.2-1.4-0.6-2.2-0.7c-2.3-0.2-4.4-0.9-6-2.6c-0.2-0.2-0.4-0.3-0.7-0.4
		c-3.5-0.6-6.8-2.4-10.4-2.5c-1.2,0-2.3-0.2-3.4-0.8c-0.6-0.3-1.2-0.8-1.1-1.6c0.1-0.7,0.7-1,1.3-1.3c1.7-0.7,3.6-0.9,5.4-0.8
		c1.3,0,2.7,0,3.9-0.3c2.3-0.6,3.3-2.8,2.4-5.2c-0.7-1.9-2.2-3.1-4-3.7c-3-1.1-6.1-0.9-9.2-1c-3.8,0-7.6,0.2-11.3,1.3
		c-2.1,0.6-3.6,1.9-4.4,4.1c-0.7,1.6-1.3,3.3-2.4,4.7c-1.1,1.3-2.8,1.7-4.1,1.1c-1.2-0.6-1.3-1.6-0.3-2.5c0.8-0.7,1.7-0.9,2.7-1.2
		c2.3-0.8,3-2.3,2.3-4.8c-0.6-1.9-1.6-3.4-3.3-4.3c-0.7-0.4-1.3-0.8-1.8-1.5c-1.2-1.5-1-3.5,0.6-4.7c1.2-0.9,2.6-1,3.9-1.1
		c2.1-0.2,4.2-0.3,6.2-0.5c2.5-0.2,4-1.6,4.3-4.4c-3.9-0.3-7.6-1.8-11.5-2c-3.7-0.2-7.6-0.3-10.3,3.4c-1.3,1.8-2.9,2-4.8,1.2
		c-0.6-0.3-1.3-0.5-1.9-0.6c-1.5-0.2-2.6,0.7-2.6,2.4c0,1.1,0.1,2.2,0.2,3.3c0.3,3.2-0.7,4.8-3.6,5.5c-2,0.5-3.9,0.3-5.9,0.2
		c-1,0-2-0.2-2.9,0.1c-2,0.8-3.9,0.3-5.7-0.6c-2.9-1.4-5.7-2.9-8.9-3.3c-1.7-0.3-2.8-1.7-3.6-3.2c-0.7-1.4-1.4-2.9-2.2-4.3
		c-1.4-2.4-3.4-2.4-4.9,0c-0.5,0.8-0.9,1.7-1.2,2.6c-0.6,1.6-1.1,3.1-1.8,4.7c-2,5.1-4.8,7-9.9,6.4c-5-0.6-9.7,0-14.3,1.9
		c-1.9,0.8-3.8,1.1-5.7,1.1l0,16.3c0.5,0,1.4,0.1,2.6,0.2c2,0.1,4.8,0.3,8.4,0.5c0.4,0,0.8,0,1.2,0.1c0-0.1,0.1-0.1,0.1-0.2
		c0.4-1.1,0.2-2.1-0.5-3c-1-1.2-2.3-1.9-3.7-2.6c-1.7-0.9-3.6-1.6-5.1-2.8c-0.5-0.4-1.5-0.8-1.1-1.7c0.4-0.8,1.3-0.4,1.9-0.1
		c1.9,1,4,1.4,5.8,2.3c3,1.5,6.2,2.1,9.5,1.3c3-0.7,5.9-0.2,8.7,1.3c2.7,1.4,5.6,2.3,7.7,4.8c0.6,0.8,1.6,1.1,2.6,0.4
		c0.8-0.6,1.6-0.4,2.3,0.2c0.6,0.6,1.3,1.1,1.9,1.6c11.5,0.6,23.8,1.1,34.5,1.5c-0.6-0.7-1-1.5-1.5-2.5c-0.7-1.6-1.8-3-3.3-4
		c-2.9-2-5.9-2.2-8.9-0.1c-2.5,1.7-5.3,2.6-8.3,3.1c-2.9,0.5-5.5,0-7.1-3c-0.4-0.6-0.8-1.3-1.5-1.6c-2.4-1-4.3-2.7-6.3-4.5
		c-1.2-1.1-2.6-1.4-3.9-0.3c-1.8,1.4-3.6,0.2-5.4,0c-0.7-0.1-0.4-0.8,0-1c0.9-0.6,1.5-1.4,2.1-2.3c0.4-0.6,0.9-0.8,1.6-0.8
		c1.8-0.1,3.4,0.3,5.1,0.9c2.7,1,5.4,2.1,8.2,3.2c1.4,0.6,2.6,0.3,3.6-0.8c1.2-1.4,2.6-2.1,4.5-1.9c0.7,0.1,1.5-0.1,2.3-0.2
		c0.6-0.1,1.2-0.2,1.2-1c0-0.7-0.3-1.2-0.8-1.4c-0.7-0.4-1.5-0.7-2.2-1.1c-0.9-0.4-1.6-1-1.5-2.2c0-1.2,1-1.6,1.8-1.9
		c1.5-0.6,2.9-0.2,4.2,0.8c2.6,1.9,5.1,3.7,8.1,4.7c1.3,0.4,2.2,1.5,3,2.7c3.8,5.4,9.2,8.1,14.7,10.7c1.9,0.9,3.9,1.6,6,1.9
		c2.1,0.3,3.8-0.4,5.1-2.3c3.1-4.5,5.9-5.3,11.5-3.4c2.6,0.9,5.1,2.1,7.7,3.1c1.3,0.5,2.6,0.7,4-0.1c1.1-0.6,2.4-0.4,3.3,0.3
		c2.7,2,5.7,2.8,8.8,3.2c0.6,0.1,1.2,0.3,1.7,0.6c0.4,0.2,0.8,0.4,0.8,0.9c10.4-0.5,21.1-1,30.6-1.5c-1.3-0.6-2.6-1.2-3.9-1.8
		C265.5,352.5,264.3,351.8,263.1,350.9z"/>
	<path d="M275.4,245.1c-1.2-0.1-2.3-0.6-3.3-1.1c-1.5-0.6-3-0.7-4.5-0.2c-1,0.4-1.3,1-0.4,1.9c0.4,0.4,1.1,0.8,0.7,1.6
		c-0.4,0.7-1.1,0.7-1.8,0.7c-1.4-0.1-2.3-0.9-3.2-2c-1.8-2.4-2.5-2.5-5.2-1.2c-3.3,1.6-6.7,3.1-10,4.7c-2.3,2.4-3.6,5.4-4.7,8.6
		c-1.8,4.8-4.5,6.4-9.3,5.6c-1.7-0.3-3.4-0.8-5-1.8c-1.6,1.3-3.3,1.3-5,0.5c-4.2-1.8-8.6-2.7-13.1-3.4c-2.5-0.4-5.1-0.9-7.7-0.2
		c-0.7,0.2-1.3,0.5-1.3,1.5c0.1,1.6,1.7,3.1,3.2,2.6c1.6-0.5,3.3-0.7,4.9-0.9c2.3-0.2,4.2,0.5,5.7,2.4c1.2,1.6,2.8,2.5,4.8,2.3
		c1.5-0.2,2.5,0.6,3.1,2c0.8,1.9,2.4,3.1,3.7,4.4c1.1,1.2,1.9,2.6,2.4,4.1c1.4,0.9,2.7,0.7,3.9-0.5c0.8-0.8,1.7-0.9,2.5,0
		c1,1.1,2.4,1.3,3.6,2.1c-2.1,0-4.1-0.4-6.1,0.1c-0.4,0.1-0.9,0.2-1.3,0.3c-0.9,0.3-1.5,0.9-1.6,2c-0.1,1,0.7,1.5,1.5,1.9
		c2.4,1.1,4.9,1.4,7.4,1.4c2.5,0,5-0.1,7.5-0.1c1.1,0,2.2,0.1,3.3,0.4c3.3,1,6.6,1.8,10,1.9c1.6,0.1,2.9,0.9,3.5,2.5
		c1.2,3.6,3.8,5,7,5.4c3.2,0.5,6.3,1.6,9.5,2c0.9,0.1,1.8,0.1,2.7,0.2c1.5,0.2,2.8,0.8,4.2,1.6c2.7,1.6,5.7,2.6,8.7,3.2
		c0.4,0.1,1,0.1,1.2-0.4c0.3-0.6-0.1-1-0.4-1.4c-0.8-1.2-0.7-1.6,0.6-2c0.5-0.2,1.1-0.2,1.7-0.1c0.5,0.1,1,0.2,1.5,0.3l0-14.4
		c-2.6-0.8-4.5-2.5-6.2-4.7c-0.5-0.7-1.1-1.6-0.4-2.5c0.7-0.9,1.6-0.8,2.5-0.3c1.4,0.9,2.8,0.9,4.1-0.3c0,0,0,0,0,0l0-24.1
		c-4.3-1.5-8.5-3.1-12.8-4.2C283.4,246.6,279.4,245.6,275.4,245.1z"/>
	<path d="M292.1,343.6c-1,0.8-2,1.6-3,2.5c-0.8,0.8-1.6,0.8-2.5,0.4c-1.5-0.6-3-0.9-4.6-1c-2.8-0.1-5.6-0.6-8.5-0.9
		c-3-0.3-6-0.7-8.9,0.3c-0.9,0.3-1.5,0.9-1.5,2c-0.1,1.2,0.7,1.4,1.5,1.7c3.1,1.3,6.3,1.3,9.6,1.2c2.6-0.1,5.2-0.5,7.7,0.1
		c3.7,0.9,7.2,2.1,11,2.1c1.1,0,2.2,0.6,2.8,1.5c0.6,0,1.2-0.1,1.7-0.1c1.2-0.1,2.1-0.1,2.6-0.2l0-9.4c-1.1-0.1-2.3-0.4-3.4-1.1
		C295.1,342,293.5,342.5,292.1,343.6z"/>
	<path d="M291.6,322.6c-0.6,0.6-1.1,1.3-2,1.4c-1.2,0.1-1.9-0.7-1.3-1.9c0.3-0.7,0.8-1.3-0.1-1.9c-0.9-0.5-1.6-0.5-2.3,0.3
		c-0.6,0.7-1,1.6-1.4,2.5c-0.5,1.2-1.3,2.1-2.5,2.3c-0.8,0.2-1.6,0.6-2.3,1.2c-2.5,2.5-6.3,1.8-8-1.4c-1.4-2.8-4-4.3-6.7-3.6
		c-2.5,0.6-5,1.3-7.6,1.2c-1.6-0.1-2.6,2.2-1.6,3.4c1.7,2,3.5,4,5.9,5.1c1,0.5,2.1,0.7,3.3,0.3c5.2-1.8,10.3-1.1,15.4,0.8
		c3.5,1.3,6.7,3.3,9.8,5.5c1.8,1.3,4,1.8,6.1,1.3c1.3-0.3,2.7-0.7,4-1.2l0-4.3c-0.1,0-0.2,0-0.3,0c-0.3,0-0.7,0.1-0.8-0.3
		c-0.2-0.4,0.2-0.5,0.4-0.8c0.2-0.2,0.5-0.5,0.7-0.7l0-11.9C296.3,318.5,294.5,319.2,291.6,322.6z"/>
	<path d="M110,166.4c0.2-0.7-0.3-1-0.8-1.2c-1.4-0.6-2.3-2-3.8-2.6c1-0.4,1.9,0.2,2.8,0.3c0.9,0.1,2,0.5,2.5-0.6
		c0.4-1.1-0.8-1.3-1.3-1.9c-0.2-0.2-0.4-0.3-0.6-0.5c-2-1.5-3.3-3.4-3.4-6.1c0-1.1-0.3-2.2-0.6-3.2c0-0.1-0.1-0.2-0.1-0.3l0,15.9
		c1.2,0.4,2.5,0.6,3.9,0.7C109.1,167,109.8,167.1,110,166.4z"/>
	<path d="M297.3,244.5c-0.1,0.6,0.3,1,0.7,1.3c0.7,0.4,1.4,0.6,2.1,0.7l0-3.1c-0.6,0.1-1.2,0.2-1.9,0.2
		C297.9,243.6,297.4,243.9,297.3,244.5z"/>
	<path d="M297.9,232.8c-0.7,1.4,0,2.4,1.1,3.1c0.4,0.3,0.8,0.6,1.2,0.9l0-5.1C299.3,231.6,298.4,231.7,297.9,232.8z"/>
	<path d="M110.7,227.4c0.5-0.1,1.2-0.2,1.4-0.8c0.2-0.7-0.4-1.1-0.9-1.4c-1-0.7-2.1-1.4-3.1-2c-1.3-0.8-2.6-1.7-3.3-3.2
		c0-0.1,0-0.1-0.1-0.2l0,6.5c0.9,0.2,1.7,0.5,2.6,0.8C108.4,227.4,109.5,227.7,110.7,227.4z"/>
	<path d="M105.6,216.2c0.8-0.5,1.6-0.9,2.3-1.5c1-0.9,0.9-2.3-0.3-2.6c-1-0.3-1.9-0.6-2.9-1l0,6
		C104.9,216.8,105.2,216.5,105.6,216.2z"/>
	<path d="M288.1,311.8c1.6-0.2,3.2-0.3,4.8-0.1c1.9-0.5,3.9-1,5.1-2.9c-0.5-0.2-1-0.5-1.4-0.5c-2.1,0.1-4-0.7-5.9-1.5
		c-1-0.4-2-0.6-3.1-0.5c-1.7,0.2-2.7,1.4-2.5,3C285.3,311.1,286.4,312,288.1,311.8z"/>
	<path d="M226.5,319.1c-4.7-0.8-9.4-0.5-14.1-0.5c-0.3,0.2-0.9-0.1-1,0.5c0,0.5,0.4,0.7,0.8,0.9c2.8,1.7,5.7,2.2,8.7,0.8
		c2.6-1.1,5.2-1,7.9-0.1c2.5,0.9,5,2.1,7.8,2.1c-0.6-1.1-1.5-1.9-2.7-2.1C231.4,320.1,229,319.5,226.5,319.1z"/>
	<path d="M182,242.2c4.5,3.1,9.3,5.1,14.8,4.3c3.5-0.5,6.9-2,10.4-2.2c2.1-0.1,4.3-1.1,6.3,0.1c2.2,1.3,4.7,1.8,7,2.6
		c0.6,0.2,1.6,0.1,1.5,1.2c-0.1,1.1-1,1.3-1.8,1.2c-1.7-0.1-3.3-0.7-4.7-1.6c-2.8-1.8-7.9-1.4-10.5,0.8c-0.7,0.6-1.4,1.3-0.4,2.2
		c1.2-0.2,2.3-0.1,3.5,0.1c6.6,1.6,12.9,0,19.2-2.1c2.8-1,5.5-2.2,7.9-4.1c0-0.5,0-1.1,0.3-1.6c1.5-2.5,3.4-4.6,6.1-5.5
		c1.2-0.4,2.2-0.4,3.3,0.4c2.1,1.6,4.4,1.6,6.6,0.3c1.9-1.1,3.9-1.4,6-0.9c7.7,1.6,15.5,1.7,23.3,1.8c0.5,0,1-0.2,1.5-0.3
		c-2.5-1.5-5-3-7.9-3.7c-1.9-0.5-2.9-2.3-3.5-4.2c-0.4-1.2-0.6-2.4-0.9-3.6c-0.3,0.1-0.6,0-0.8,0.3c-1.6,1.9-3.8,2.5-6.1,2.7
		c-0.6,0.2-1.2,0.2-1.9,0.2c-1.4,0-2.9,0-4.1-0.9c-1.4,0.7-2.6,0.5-3.9-0.4c-1.7-1.2-3.7-2.1-5.6-2.8c-0.5-0.2-1.1-0.3-1.6,0
		c-0.3,0.3-0.6,0.6-0.9,0.9c-2.2,2.8-4.8,4.1-8.3,3.4c-4.4-0.9-7.9,0.7-10.7,4.5c-1.1,1.5-2.4,2.8-3.9,3.9c-1.7,1.3-3.5,1.9-5.6,1.6
		c-1.2,1-2.7,1.2-4.2,1.1c-1.3-0.1-2.6-0.2-3.9-0.6c-3.8-1.1-7.6-1.4-11.5-0.7C192.1,241.6,187.1,242.6,182,242.2z"/>
	<path d="M111.9,241.2c2.6,4.4,6.4,7.1,11,8.4c5.7,1.7,11.7,2,17.6,2.7c0.6,0,1.2,0.1,1.8,0c4.9-0.5,6.3-2.6,6.2-7.7
		c0-2.7-1.3-3.9-3.8-4.1c-2.2-0.2-4.3,0.2-6.5,0.5c-2,0.3-4,0.7-6.1,0.2c-1.6-0.4-2.7-1.6-2.8-3.2c-0.2-1.6,0.9-2.3,2-2.9
		c0.4-0.2,0.7-0.4,1.1-0.6c1-0.7,1.3-1.6,0.8-2.8c-0.7-1.6-1.9-2.6-3.3-3.2c-2.8-1.3-5.8-1.3-8.7-0.9c-3.1,0.4-3.4,1-3.3,4.4
		c0.1,1.2-0.1,2.6-1.3,2.8c-2.2,0.5-4.4,1.5-6.7,1.1c-0.5-0.1-1-0.1-1-0.7c-0.1-0.5,0.2-0.9,0.7-1.2c0.3-0.2,0.6-0.3,1-0.4
		c0.8-0.3,1.4-1,1.4-2c0-1-0.7-1.4-1.5-1.7c-1.9-0.7-3.8-0.9-5.7-0.9l0,3.9c0.1,0,0.1,0.1,0.2,0.1
		C107.9,235.2,110,238.1,111.9,241.2z"/>
	<path d="M176.4,252.7c-1.8-2-3.6-1.8-5.5,0.2c-2.3,2.5-4.5,5.1-6.7,7.7c3.2,2.2,6.3,2.3,9.4-0.3c0.6-0.5,1.3-1,2.1-1.4
		c1.5-0.8,2.2-0.3,2.3,1.4c0,0.7,0,1.4,0,2.1c0,0.5-0.1,1,0.4,1.3c0.5,0.3,0.9-0.1,1.2-0.4c1.5-1.5,3.3-1.9,5.2-1.8
		c1.8,0.1,3.5,0.2,5.3,0.3c0.7,0,1.4,0.2,2.1-0.3C186.6,259.2,180.7,257.6,176.4,252.7z"/>
	<path d="M181.8,242.2c0.1,0.1,0.1,0.1,0.2,0c0,0-0.1,0-0.1,0L181.8,242.2z"/>
	<path d="M140.4,188.1c1.3,0.3,2.5,0.2,3.8,0c1.8-0.2,3-1.2,3.5-3.1c0.5-1.9-0.2-3.4-1.5-4.6c-1.4-1.2-3-1.9-4.8-1.8
		c-3.4,0.1-6.5,1.5-9.4,3.2C134.7,184,137.4,186.3,140.4,188.1z"/>
	<path d="M133.7,165.1c2.3,0.7,4.5,0.3,6.4-1.3C137.8,163.5,135.7,163.9,133.7,165.1z"/>
	<path d="M141.3,106.8c0.4-1.2-1-1.4-1.8-1.7c-1.4-0.7-3.1-0.9-4-2.4c-0.9-0.2-1.8-0.4-2.7-0.4c-0.8,0-1.8-0.3-2.1,0.9
		c2.7,1.3,5.4,2.6,8.2,3.9C139.7,107.3,140.9,108,141.3,106.8z"/>
	<path d="M201.4,232c-0.7-1.3-1.4-2.5-2.4-3.5c-1.5-1.4-2.9-1.2-4.1,0.5c-0.7,1-1.1,2-1.4,3.2C195.5,233.7,200,233.5,201.4,232z"/>
	<path d="M178.6,273c-2.9,0.7-5.3,2.7-4.5,7.2c3-1.2,6-2.2,9.2-1.2c2.5,0.8,4.8,2.1,7.2,3.1c0.8,0,1.6,0,2.4,0
		c2.3,0,4.6,0.3,6.8-0.3c1.7-0.4,3-2.1,2.7-3.4c-0.5-2.4-4.2-6.2-6.6-6.5C190,271.1,184.3,271.6,178.6,273z"/>
	<path d="M636.2,218.1c-0.2,0.3-0.6,0.7-1,0.5c-0.5-0.2-0.5-0.8-0.5-1.3c-0.2-2.3-1.2-3.3-3.3-3.2c-0.9,0.1-1.6-0.2-2.2-0.9
		c-0.8-0.9-1.9-1.3-3.1-1c-1.2,0.3-2.3,0-3.4-0.6c-2.4-1.4-4.9-1.4-7.3,0c-1.3,0.8-2.5,0.7-3.8,0c-2.4-1.4-4.6-3.1-5-6.5
		c-0.4-2.9-2.7-3.4-4.8-3.9c-0.8-0.2-1.6-0.4-2.1-1.2c-0.3-0.4-0.7-0.7-1.1-0.8c-2.8-0.1-4.8-2.1-7.1-3.5c-2.8-1.8-5.8-3.2-9.1-3.5
		c-0.8,1.6-1.6,3.1-2.6,4.5c-1.8,2.4-4.1,3.2-6.8,2.6c-0.9-0.2-1.8-0.5-2.6-0.8c-2-0.8-3.8-0.6-5.4,0.9c-0.2,0.2-0.6,0.5-0.8,0.5
		c-2-1.1-3,0.8-4.3,1.7c-0.5,0.3-0.8,0.8-1.3,1.2c-1.5,1.4-2.5,1.5-4.2,0.3c-1.6-1.1-2.8-2.8-3.9-4.4c-1.3-1.9-2.5-3.8-4.2-5.3
		c-2.6-2.4-4.8-2.2-7,0.7c-1,1.3-2,2.7-2.9,4.2c-1.9,3.1-4.4,4.2-7.6,3.3c-0.6-0.2-1.2-0.3-1.8-0.4c-1,0-2,0.4-2.9,0.8
		c-2.7,1.4-5.2,1.2-7.6-0.7c-0.4-0.3-0.9-0.7-1.5-0.7c-0.3,1.5-1.3,1.9-2.5,2c-2.5,0.1-4.9-0.7-7.1-1.7c-2.6-1.2-5.1-1.1-7.6,0.1
		c-2.3,1.1-4.7,1.3-7.1,0.3c-1.1-0.5-2-0.1-2.3,1.2c-0.3,1.5,0.9,1.6,1.7,1.7c1.2,0.1,2.3,0,3.5,0.2c0.6,0.1,1.4,0.3,1.4,1
		c0,0.9-0.9,1-1.5,0.9c-0.9-0.1-1.6,0.3-2,1.2c-0.9,1.8-2.5,2.2-4.2,2c-3.2-0.3-5.9-1.9-8.2-4.4c-0.7-0.8-1.4-1.6-2-2.5
		c-5.3-7.4-12.6-11.3-20.5-14.1c-2.8-1-5.1-0.3-7,2.3c-0.6,0.9-1.2,1.6-1.8,2.2l0,35.6c0.3,0.2,0.5,0.4,0.8,0.6
		c5.3,4.1,7.3,4.1,12.8,0c1.5-1.1,3-2.3,4.5-3.5c0.4-0.3,0.8-1.1,1.4-0.7c0.5,0.3,0.3,1.1,0.3,1.7c3.3,1.2,7.2-0.4,9.2-3.7
		c0.5-0.8,1-1.7,1.6-2.5c0.3-0.5,0.8-1.1,1.4-0.7c0.6,0.4,0.2,1,0.1,1.5c-0.5,2.1-1,4.2-1.6,6.5c1.2-0.5,2-0.4,2.3,1.2
		c0.1,0.9,1,1,1.8,0.9c0.9,0,1.8-0.2,2.7-0.2c1.4,0.1,1.7,0.8,1,2.1c-0.3,0.6-1.1,1.3-0.3,2c0.7,0.7,1.5,0,2-0.6
		c2.7-3.2,5.9-3.1,9.3-1.8c0.8,0.3,1.5,0.6,2.3,0.8c2.1,0.7,3.9,0.2,5.2-2c0.8-1.3,1.7-2.3,3.3-1.8c1.6,0.5,2.5,1.7,2.9,3.3
		c0.9,3.7-0.8,7.9-3.9,9.9c-3,2-6.3,2.1-9.6,1.4c-3.8-0.7-7.4-0.4-10.9,1.4c-5,2.5-10,3-15.3,1.2c-1.6-0.6-3-1.3-4.2-2.6
		c-2-2.1-4.3-2.5-6.9-1.6c-0.8,0.3-1.7,0.6-2.4,1c-3,1.8-6.2,2.7-9.5,3.4l0,9.4c0.2,0,0.4,0,0.5,0c1.7,0.1,3.3-0.2,4.9-1
		c0.5-0.3,1.2-0.5,1.7,0c0.6,0.6,0.3,1.3,0.1,2c-0.2,0.7-0.8,1.3-0.7,2.2c4.9,0.3,9.6,2,14.5,2.9c2.9,0.6,5.9,1.1,8.9,0.7
		c2.1-0.3,3.5-1.6,4.8-3.2c0.8-0.9,1.3-0.8,2,0c1,1.1,2,2.1,2.6,3.5c1,2.3,0.7,4.3-1.2,5.8c-2.5,2.1-5.4,2.7-8.4,3.2
		c-2,0.3-3.9,0.4-5.9,0.6c-3.4,0.3-10.8-3.9-12.6-7.2c-0.4-0.8-0.8-1.5-1.5-2.1c-0.9-0.8-1.9-1-2.9-0.2c-1,0.8-1.6,2.3-3.1,2.2
		c-1.4-0.1-2.5-1.1-3.6-2l0,26.9c1.8,1.3,3.9,2,6.4,1.9c3.2-0.1,5.9,2.1,8.5,3.9c5.5,3.8,11.2,4.5,17.1,1.7c2.7-1.3,5.2-0.2,7.7,0.8
		c4,1.5,7.6,4.1,11.1,6.6c2.2,1.6,4.6,2.9,6.9,4.2c2.8,1.6,5.5,1.5,8.3,0c1.6-0.9,3.2-1.4,5-1.1c2.3,0.4,4.1,2.8,3.9,5.4
		c0,0.7-0.4,1.3-0.8,1.7c-0.3,0.3-0.7,0.5-1,0.7c-2.9,1.8-2.9,4.2,0,6.2c0.8,0.6,1.7,1,2.7,1.2c2.5,0.6,5,0.8,7.6,0.7
		c0.9,0,1.8,0,2.5-0.9c-1.8-1-2.9-2.9-2.5-4.2c0.3-1,2.1-1.6,4-1.2c0.9,0.2,1.8,0.4,2.5,1c1.7-1.9,3.9-2.5,6.3-2.5
		c1.9,0,3.8-0.2,5.8-0.3c1.5-0.1,2.7-0.8,3.9-1.7c0.9-0.7,1.8-1.3,2.8-1.6c0.3-0.1,0.7-0.2,1,0.1c0.3,0.4,0.2,0.9,0,1.3
		c-0.5,1.2-1.5,1.8-2.6,2.1c-1.9,0.6-3.7,1.4-5.5,2.4c-1.5,0.8-3.1,0.6-4.6,0.6c-0.6,0-1.6-0.3-1.8,0.7c-0.2,1.2,0.6,1.7,1.5,2
		c2.2,0.7,4.4,0.5,6.6,0.8c2.3,0.3,4.7,0.4,6.7,1.8c0.8,0.5,1.5,1.1,1.9,2.1c0.3,0.7,0.4,1.3-0.1,1.9c-0.5,0.6-1.1,0.4-1.7,0.1
		c-4-2.7-8.6-3.1-13.1-3.8c0,0-0.1,0-0.2,0c1.4,2.4,3.5,4.1,5.2,6.2c2.4,3,5.3,5.5,8.2,7.8c1.1,0.9,2.2,1.6,3.5,2.1
		c2.6,0.9,3.9,0.2,4.9-2.6c1.1-3.4,3.1-4.4,6.2-3.2c1.5,0.6,2.9,1.7,4.2,2.6c1.1,0.8,2.1,1.5,3.3,2.2c2.2,1.3,4.5,1.7,6.9,0.7
		c2.9-1.1,5.8-2.2,8.7-3.2c1.8-0.6,3.7-0.9,5.5-1.1c2.7-0.2,4.9,0.8,6.5,3.2c2.3,3.4,5.6,4.7,9.2,5.2c2.2,0.3,4.4,0.3,6.5-0.2
		c1.4-0.3,2.6,0,3.7,1.2c1.5,1.7,3.3,2.7,5.6,2.5c0.9-0.1,1.9,0.2,2.9,0.4c1,0.2,1.8,0.9,2,2.1c0.3,1.7,1.2,2.6,2.4,3.2
		c1.9-0.2,2.9-0.3,3.3-0.4l0-17.4c-2.5,0.3-5,1.1-7.4,1.9c-3.6,1.2-7.1,1.6-10.8,0.5c-2.1,0.5-4.1,1-6.2,1.5
		c-2.6,0.6-4.6-0.7-6.3-2.7c-0.5-0.5-0.9-1.2-0.4-2c0.4-0.7,1.1-0.6,1.7-0.5c1.6,0.3,3.1,1.1,4.7,0.2c-2.3-1.6-4.6-2.8-7.4-2.4
		c-0.8,0.1-1.6,0-2.4-0.3c-0.9-0.4-1.5-1.1-1.4-2.2c0-1.1,0.8-1.5,1.6-1.7c1.7-0.5,3.4-0.5,5.1-0.8c1.1-0.1,2.5-0.1,2.8-1.5
		c0.4-1.5-0.9-2.3-1.8-2.9c-3.2-2.2-6.5-3.1-10.1-1.5c-0.8,0.4-1.7,0.6-2.7,0.5c-0.9-0.1-1.5,0.3-1.9,1.3c-1,3.1-3,4.4-5.9,3.3
		c-3.8-1.5-6.9-4.1-8.1-8.7c-0.1-0.5-0.4-1-0.6-1.6c-1.5-0.9-3-1.7-4.5-2.7c-1.4-0.9-2.8-1-4.3-1c-0.3,0.3-0.6,0.6-0.8,1
		c-1.7,2.9-3.7,3-6.6,1.7c-1.5-0.7-1.7-2.1-1.6-3.7c0.2-4.6-1.7-8.1-4.8-10.9c-0.8,1.1-1.8,1.4-3,1.3c-4.1,0-7.8-1.6-11.3-3.7
		c-6.9-4-14.1-6.9-21.8-8c-0.3,0-0.5,0-0.8-0.1c-4.9-1.7-9.9-1.6-14.9-0.3c-3.1,0.8-6.2,0.4-9.2-0.4c-3.5-0.9-7-1.8-10.5-2.7
		c-1.9-0.5-3.8-1.1-5.6-2.1c-0.5-0.3-1-0.6-1.4-1c-1.3-1.2-2.7-2.5-2.4-4.6c0.3-2,2-2.4,3.6-3c0.8-0.3,1.7-0.3,2.4-1
		c0-0.2,0-0.4,0-0.6c-0.1-0.1-0.1-0.2,0-0.3c0.1-2.1,0.6-4.1,1.6-5.9c0.8-1.4,1.8-2.4,3.3-2.8c2.2-0.5,2.8-0.1,3.3,2.2
		c0.9,4.1,2.9,5.6,7.6,6.2c3.4,0.4,6.8,0.1,10.1,1c0.3,0.1,0.6,0.1,0.9,0.3c3.8,2,7.9,3.2,12.1,3.6c0.8,0.1,1.6,0.6,2.4,1
		c0.8,0.7,1.6,1.4,2.3,2.2c2.4,3.3,5.7,5.1,9.2,6.5c0.7,0.3,1.5,0.8,2.1-0.1c0.5-0.8-0.1-1.6-0.6-2.2c-0.8-1-1.7-2-2.5-2.9
		c-0.1-0.1-0.2-0.3-0.2-0.4l-0.1,0c-2.7-2.3-5.7-4.4-6.8-8.4c-0.4-1.3-1.5-1.6-2.6-1.7c-0.9-0.1-1.8,0.1-2.7-0.2
		c-1.4-0.5-1.6-1.2-0.5-2.3c0.3-0.3,0.6-0.6,0.9-0.9c1-1,1.8-0.9,2.6,0.3c0.9,1.4,2.1,1.6,3.5,2c1.9,0.5,3.6,1.5,5.7,0.7
		c0.6-0.2,1.3,0.3,2,0.7c4.9,3.6,9.9,7.1,14.3,11.4c2.1,2.1,4.4,1.8,6.8,0.7c0.4-0.2,0.8-0.5,0.8-1.1c-0.1-0.5-0.5-0.7-0.9-0.8
		c-0.6-0.2-1.3-0.4-2-0.3c-1.3,0.2-2.5-0.2-3.4-1.4c-4.1-2-7-5.6-9.9-9.2c-0.1-0.1-0.2-0.2-0.3-0.2c-0.1,0-0.2-0.1-0.3-0.1
		c-0.2-0.2-0.5-0.4-0.7-0.6l0,0c-1.8-1.8-3.6-3.5-6.2-3.9c-0.7-0.1-1.8-0.6-1.5-1.5c0.3-1,1.2,0,1.8,0.2c2.1,1.1,4.3,2,6,3.9
		c1.6,0.6,2.8,1.8,4.2,2.7c0.8,0.5,1.7,1.3,2.4,0.2c0.7-1.1,0-2.1-0.8-2.7c-1.4-1-2.4-2.4-3.5-3.7c-2.9-3.1-6.4-5.1-10.4-5.2
		c-3.4-0.1-6.9,0.3-10.3,0.5c-2.6,0.1-5.2,0.2-7.7,0.6c-1.3,0.2-2.4-0.4-3.4-1.1c-1.5-1.2-3.1-1.5-5-1.1c-2.3,0.5-4.5,0-6.6-1.2
		c-2-1.1-3-2.9-3.2-5.3c0-0.6-0.2-1.2-0.2-1.8c-0.1-1.4-0.3-2.7-1.8-3.2c-1.4-0.5-2.1,0.7-2.9,1.6c0,0,0,0.1-0.1,0.1
		c0,0-0.1,0-0.1,0c0.1,0,0.1-0.1,0.2-0.1c0.4-3.7,3.4-5.7,6.7-4.5c1.8,0.7,3.4,1.8,5,2.9c3.5,2.4,7.2,4.4,11,6c1-1,2.2-1.1,3.4-0.6
		c1.9,0.8,3.8,1.1,5.8,0.8c1.1-0.2,2.3,0,3.2,0.8c2.4,2.1,4.9,2,7.4,0.5c3.1-1.9,6.2-1.8,9.4-0.4c2.5,1.1,4.9,2.3,7.3,3.4
		c2.7,1.3,4.4,3.7,5.9,6.4c0.9,1.7,2.1,3.1,3.7,4.1c1.5,0.9,2.5,2.4,2.9,4.2c0.6,2.8,2.1,4.2,4.5,4.9c2.6,0.8,5.2,1.8,7.7,3
		c3.8,0.8,7.7,1.5,11.5,2.3c0.8,0.2,1.4,0.6,1.6,1.6c0.1,1-0.3,1.7-1,2.3c-0.8,0.6-1.7,0.7-2.6,1c-1.9,0.7-2.2,1.9-1.1,3.7
		c0.9,1.5,2.1,2.4,3.6,2.9c3.1,1.1,6.2,1.1,9.3,0.3c1.4-0.4,2.2-1.4,2.1-3c0-0.7,0-1.5,0-2.2c0-0.8,0.3-1.4,0.8-1.9
		c0.2-0.2,0.5-0.4,0.8-0.2c0.4,0.2,0.3,0.5,0.2,0.9c-0.1,0.4-0.1,0.9-0.1,1.3c0,1.5,0.9,2.1,2.1,1.4c0.3-0.2,0.6-0.4,0.9-0.6
		c0.6-0.4,1.1-0.7,1.2,0.5c0.1,1.2,1.1,1.5,2,1.8c2.7,0.8,5.5,1,8.3,1.2c1.6,0.1,2.8,1.1,4.1,1.9c0.5,0.3,0.6,1,0.7,1.6
		c0.1,0.7-0.1,1-0.7,0.7c-3.4-1.3-7-1.1-10.3-2.6c-0.8-0.4-1.8-0.6-2.7-0.3c-0.6,0.2-1.4,0.1-1.6,1c-0.1,0.8,0.5,1.2,1,1.6
		c1.2,0.9,2.5,1.8,3.8,2.6c0.9,0.6,1.3,1,0.4,2.1c-1,1.3-1.2,2.9-0.2,4.3c0.5,0.7,0.4,1-0.3,1.4c-0.8,0.5-1.3,1.2-1.1,2.3
		c0.2,1.1,1,1,1.6,1.2c1.9,0.6,3.6,1.6,5.3,2.5c1.4,0.7,2.8,1.3,4.3,1.5c-0.1-1.2-1-1.6-1.7-2.2c-0.5-0.4-1.2-0.9-0.6-1.7
		c0.6-0.7,1.3-1.2,2.1-0.5c0.4,0.4,0.8,0.9,1,1.4c1.3,2.5,5,4.3,7.6,3.7c1.3-0.3,1.9-1.3,2.1-2.6c0.2-1.3,0.3-2.6,0.5-3.8
		c0.4-2.3,1.8-3.1,3.8-3c1.3,0.1,2.5,0.4,3.5,1l0-15.6c-1.5-3-2.4-6.2-3.5-9.4c-4.7-0.9-9.1-2.8-13.5-4.9c-0.8-0.4-1.5-0.9-2.2-1.5
		c-1.8-1.6-3.8-2-6-1.5c-1.6,0.3-3.3,0.7-5,0.8c-4.5,0.2-8-1.9-10.8-5.5c-2.2-2.9-1.6-5.3,1.7-6.6c1.7-0.7,3.4-0.2,5.1,0
		c2.4-0.9,4.9-0.4,7.4-0.2c1.7,0.1,3.3,0.7,5,0.2c0.2-0.1,0.5-0.1,0.7-0.2c0.9-0.4,2.1-0.9,1.9-2.1c-0.2-1.3-1.5-0.9-2.3-0.8
		c-2.5,0.4-5-0.1-7.3-1.2c-6.8-3.2-13.7-5.8-20.7-8.3c-2.4-0.9-4.9-1.6-7.4-1.4c-0.7,0.1-1.5,0.1-1.8,0.8c-0.5,1.5-1.5,1.2-2.5,1
		c-3.1-0.5-6.2-0.8-9.2,0c-2.5,0.7-4.3,2.3-5.1,5.2c-0.8,2.9-1.5,3.1-4,1.7c-4.6-2.5-9.3-4.8-14.5-5.4c-2.1-0.2-4.3-0.3-6.4-0.5
		c-3.7-0.3-6.1-3.3-6-7.4c0.1-2,0.6-3.9,1.4-5.6c1.6-3.3,4-4.3,7.3-3.3c3.4,1,6.3,3,9.3,5.1c4.1,2.8,8.5,4,13.1,2.4
		c9.2-3.3,17.8-1.1,26.4,2.9c3.8,1.8,7.4,3.9,11.1,5.8c-0.9-6-4.2-9.5-9.2-11.4c-5-1.9-10.1-3-15.4-2.4c-1.7,0.2-3.3,0.1-5,0.1
		c-0.7,0-1.3-0.2-1.7-0.9c-0.4-0.8,0-1.4,0.5-2c0.7-0.9,1.3-1.7,1.7-2.8c-3.9-1.4-7.7-2.9-10.5-6.5c-0.7-1-1.2-2.1-1.5-3.3
		c-0.3-1.6,0.3-2.6,1.8-2.9c1.3-0.2,2.6,0.2,3.9,0.5c1.8,0.5,3.5,1,5.4,0.9c2,0,3.2-1.1,3.4-3c0.2-1.4-0.5-2.4-2.5-3
		c-2-0.6-4.1-1-6.1-1.5c-1.3-0.3-2.5-1-3.4-2.1c-2.1-2.4-1.4-5,1.5-5.8c1.8-0.5,3.6-0.4,5.5-0.2c4,0.6,7.9,1.4,11.8,2.1
		c0,0.2,0,0.3,0,0.4c-0.6,0.5-1.4,0.8-1.2,1.8c0.2,1,1.1,1.2,1.9,1.4c1,0.2,1.9-0.2,2.8-0.6c1.4-0.7,2.7-0.5,3.7,0.7
		c3.2,3.8,7.3,3.9,11.5,3.8c1.1,0,2.2-0.1,3.3-0.4c1.6-0.4,3-0.1,4.5,0.9c4.4,2.7,9.3,4.1,14.2,5.5c5.2,1.5,10.4,3.2,15,6.4
		c0.7,0.5,1.3,1,2,1.5l0-12.8c-1.4-0.8-2.9-0.9-4.4-1.1C637.8,217.1,636.9,217.1,636.2,218.1z"/>
	<path d="M634.9,211.1c2.2,2.5,4.5,4.7,7.6,5.7c0.3,0.1,0.5,0.2,0.8,0.3l0-6.8c-1.5,0-2.9,0.1-4.4,0.3
		C637.5,210.7,636.2,210.9,634.9,211.1z"/>
	<path d="M603.3,345.4c-1.9,0.6-3.7,1.1-5.6,1.5c-0.6,0.1-1.2,0.4-1.7-0.2c-2.3-2.7-5.5-3.3-8.5-4.1c-4.3-1-8.5-0.1-12.5,1.8
		c-3.3,1.5-6.5,3.1-10.1,3.7c-1.8,1.1-3.9,1.5-5.9,2c-0.7,0.2-1.3-0.2-1.9-0.6c-3.5-2-7.3-3.2-11-4.9c-0.3-0.1-0.6-0.1-0.9-0.2
		c-2.2,2.6-4.9,3.9-8,4.2c-2,0.2-4.1,0.2-6.1-0.2c-2-0.3-3.8-0.2-5.4,1.5c-0.6,0.7-1.4,0.7-2.3,0.6c-2.8-0.4-5.5-1.5-8.4-1.2
		c-2.3,0.2-4.6,0.5-7,0.4c-1.4-0.1-2.7-0.4-3.9-1.2c-1.1-0.7-1.6-1.8-1.3-3.3c0.3-1.1,0.6-2.1,0.9-3.2c0.5-1.8,0-2.7-1.6-3
		c-0.6-0.1-1.2-0.2-1.8-0.1c-2.6,0.5-4.9-0.5-7-2.2c-1.5-1.1-3-2.3-4.5-3.5c-2.9-2.2-6.1-3.4-9.6-3.2c-4.9,0.2-9.5-0.8-13.9-2.9
		c-2-0.9-4-1.6-6-2.3c-2.8-1-5.5-1.1-8.3,0.2c-1,0.5-2.1,0.8-3.2,1.1l0,17.7c3.5-1.7,6.6-0.9,9.5,2c2.5,2.5,5,5.1,7.9,7.1
		c2.7,1.9,5.6,3.2,8.9,2.3c0.9-0.2,1.8-0.5,2.5-1.1c1.4-1.1,2.4-0.9,3.2,0.7c0.2,0.4,0.5,0.7,0.7,1.1c3.1-0.2,5.4,1.6,7.6,3.6
		c1.6,1.4,3,3,4.4,4.6c14.8,4.6,31.7,9,51.1,9c0.5,0,1.1,0,1.6,0c0.6,0,1.3,0,1.9,0c0.4-0.1,0.8-0.2,1.3-0.3c1-0.2,2-0.6,2.6-1.7
		c-2.7-2.6-5.8-3.1-9.3-2.7c-4.5,0.6-9,0-13.4-1.1c-2-0.5-3.8-1.7-4.5-4.1c-0.5-1.7,0-2.6,1.6-2.8c1.7-0.3,3.5,0.1,5.1,0.6
		c10.7,3.1,21.5,5.9,31.7,10.5c0.2,0.1,0.4,0.2,0.7,0.2c3-0.4,6-1,8.8-1.6c0-0.1,0.1-0.1,0.1-0.2c1.6-1.9,2.8-2.3,4.6-1.4
		c0.2,0.1,0.4,0.2,0.6,0.4c3.3-0.8,6.6-1.7,9.7-2.6c-0.9-0.8-1.8-1.8-2.6-2.8c-0.9-1.1-1.5-2.4-1.7-3.9c-0.4-2.9,0.7-5.1,3.3-6
		c2.9-1,5.7-0.8,8.4,0.7c1.9,1,3.7,2.3,5.5,3.5c3.5,2.2,5.3,2.1,8.5-0.7c2.1-1.8,4.1-3.7,6.7-4.5c0-0.1,0-0.1,0-0.2
		C613.4,345.4,609.9,343.3,603.3,345.4z"/>
	<path d="M458.9,315.7c8.9-2.5,16.9-0.5,24.2,5.5c2.5,2.1,5.1,4.1,7.2,6.8c1.5,2,3.4,2.8,5.7,2.5c0.4,0,0.7,0,1.1-0.1
		c3.6-0.9,7-0.9,10.1,1.8c1,0.9,2.5,1,3.8,1.2c-3.5-9.3-10.2-14.1-18.7-16.3c-2-0.5-4.2-0.2-6.2-0.1c-2.1,0.1-4-0.4-5.8-1.7
		c-1.6-1.2-3.4-2-5.3-2.4c-0.8-0.1-1.5-0.5-2.1-0.9c-1-0.7-2-1-3.2-1.1c-0.8,0-1.5-0.3-2.1-0.8c-1.4-1.3-3.1-1.6-4.8-1.6
		c-1.5,0-3.1,0.1-4.5-0.6c-3.3-1.7-6.8-2-10.3-1.9l0,10.8c0.5-0.1,1-0.2,1.5-0.1C452.6,316.9,455.8,316.6,458.9,315.7z"/>
	<path d="M636.1,147.6c-4.9,2.2-10.1,1.6-15.2,0.7c-1.4-0.2-2.8-0.7-4.2-0.7c-1.7,0-2.7-0.9-3.6-2.3c-0.4-0.7-0.9-1.3-1.6-1.8
		c-2.5-1.4-5-3-6.4-6c-1.2-0.9-2.7-1.4-3.7-2.6c-0.6-0.7-1.3-1.4-1-2.5c0.3-1.1,1.2-1.3,2.1-1.4c2.4-0.3,4.6,0,6.8,1.3
		c0.9,0.5,1.8,1.1,2.7,1.6c1.5,0.2,2.9,0.6,4.4,0.4c1.5-0.2,2.6-1.3,2.8-3.1c0.2-1.6-0.9-2.2-1.9-2.6c-2.2-1-4.5-1.2-6.8-1.8
		c-1.6-0.4-2.9-1.3-3.9-2.8c-1.3-2-0.6-4.3,1.6-4.9c3.4-1,6.9-0.4,10.3,0.3c2.6,0.5,5.1,1.3,7.8,1.4c0.7,0,1.2,0.6,1.7,1
		c1.4,1.3,2.9,2.7,4.6,3.5c-0.8-3.9-1.8-8.8-3.3-14.2c-0.7-0.6-1.3-1.4-1.8-2.3c-1.4-2.5-3.9-2.4-6.3-2.5c-0.6,1.2-1.7,1.8-2.6,2.6
		c-0.6,0.5-1.1,0.1-1.7,0.1c-0.7-0.1-1.7-0.8-1.7,0.9c0,0.5-0.6,0.4-0.9,0.3c-1.5-0.2-2.8-0.8-4-2c-1.6-1.6-2.7-3.5-4-5.3
		c-1.3-1.8-2.5-3.5-4.3-4.8c-1.9-1.4-3.6-1.2-5.3,0.4c-1.1,1-1.9,2.2-2.7,3.5c-0.6,1-1.3,1.9-1.9,2.9c-1.7,2.5-4,3.3-6.7,2.8
		c-2.7-0.5-5.3-1.3-7.7-2.5c-2.7-1.3-5.1-1-7.3,1.2c-1.9,1.9-4.3,2.1-6.6,1.7c-4-0.7-8.1-0.9-12.1-1.4c-3.4-0.5-6.7-1.6-9.9-2.8
		c-7.5-2.9-14.9-2.3-22.3,0c-5.1,1.6-10.2,3.4-15.7,2.9c-3.4-0.3-6.8-0.6-10.2-1c-2.3-0.2-4-1.4-5.1-3.7c-2.3-4.5-5.6-6.7-11.7-4.2
		c-2.1,0.9-4.1,1.9-5.8,3.6c0.9,0.7,1.8,1.5,2.7,2.2c1.3,1,2.7,1.8,4.3,2.2c1.5,0.3,2.6,0.1,3.5-1.5c0.8-1.5,2-1.7,3.4-0.4
		c1.8,1.7,3.9,2.8,6.2,3.5c1.5,0.5,2.9,0.7,4.2-0.5c0.7-0.6,1.4-0.4,1.9,0.2c0.6,0.6,1.2,1.4,1.7,2.1c1,1.4,2.1,2.4,3.8,2.6
		c1.3,0.2,2.1,1.1,2.5,2.4c0.6,2.3,2.4,3.7,3.1,5.9c0.3,1.1,1.6,1.4,2.5,1.7c3.6,0.9,7,2.2,10.7,2.7c3.7,0.5,6.4,2.9,8.6,6.1
		c0.2,0.2,0.3,0.5,0.4,0.7c2.4,3.9,3.7,4,6.7,0.8c1-1.1,2.1-2.1,3.6-2.4c0.8-0.2,1.6-0.7,1.9-1.6c0.6-2.3,2-3.7,3.8-4.8
		c2.4-3.2,4.3-3.7,7.8-2.3c1.1,0.5,2.2,1.1,3.2,1.8c1.3,0.9,2.7,1.7,4.3,1.9c0.3,0,0.8,0,1,0.3c2.3,1.9,4.8,1.3,7.2,1
		c0.4-0.1,0.8-0.1,1.1-0.5c0.9-1.2,2-1.1,3-0.5c2.3,1.2,4.6,1.5,7,0.1c0.6-0.3,1.3-0.5,1.9,0c2.3,1.9,4.7,1.4,7.1,0.4
		c0.5-0.2,1-0.4,1.4-0.5c0.8-0.1,1.4,0.3,1.8,1c0.4,0.7-0.1,1.3-0.6,1.7c-0.7,0.7-1.6,1.1-2.5,1.6c-0.2,0.6,0,1.1,0,1.7
		c0,2.2-0.7,3.9-2.5,5c-1.1,0.6-2.2,1.2-3.2,2c-1.6,1.1-1.7,2.6-0.4,4.1c0.4,0.5,0.9,1,1.4,1.3c2.3,1.3,4.4,2.7,6.4,4.6
		c0.9,0.9,2.1,1,3.3,1c2.1,0,4.2-0.3,6.2,0.5c1.1,0.4,1.8,1.1,2.3,2.3c1,2.7,2.6,4.5,5.5,4.5c3,0.1,5.6,1.3,8,3.3
		c4.3,0.9,8.3,2.8,12.5,4.2c1.6,0.5,3.2,0.5,4.8,0.4c0.9-0.1,1.7,0.2,2.1,1.1c1.3,3.1,3.8,4.1,6.4,4.9c0.1,0,0.3,0.1,0.4,0.1l0-20.9
		c-0.4-0.5-1.3-1.6-2.3-3.1C639.5,146.5,637.8,146.8,636.1,147.6z"/>
	<path d="M626.4,123.6c-0.3-0.4-0.6-0.7-1-1c-0.8-0.5-1.8-0.9-2.4-0.1c-0.5,0.7,0.4,1.4,0.9,1.9c3.1,3.1,6.1,6.3,10.3,7.4
		c-0.4-1.2-0.7-2.5-1-3.8c0,0,0-0.1,0-0.1c0,0,0,0,0,0c-0.6-0.1-1.2-0.4-1.7-0.8c-0.3-0.3-0.7-0.7-1-0.7
		C628.4,126.6,627.5,124.9,626.4,123.6z"/>
	<path d="M574.9,60.4c0.7,1.7,1.8,3.1,3.3,4.1c2.9,2.1,5.9,2.3,8.9,0.2c1.8-1.3,3.8-2.1,5.9-2.7l-21.3-14.8c-0.7,0-1.4-0.1-2.1-0.1
		c-0.4,0.8-1,1.3-2,1.7c-1.9,0.7-2.7,2.7-2.1,4.7C569.6,54.1,573,55.9,574.9,60.4z"/>
	<path d="M494.3,64.6c-0.2,0.1-0.3,0.2-0.5,0.3c0.8,0,1.5-0.3,2.3-0.9c0,0,0.1-0.1,0.1-0.1c3.3-3.6,5.9-2.2,7.8,1.8
		c1.1,2.3,2.1,4.7,3.8,6.5c2.1,2.1,3.9,2.5,6.4,1c1.4-0.8,2.7-1.9,3.9-2.9c1.8-1.5,1.7-4.7-0.8-5.4c-0.9-0.2-1.9-0.6-2.6-1.4
		c-0.3-0.3-0.5-0.7-0.4-1.2c0.2-0.5,0.6-0.6,1-0.6c0.6,0.1,1.2,0.2,1.8,0.4c0.7,0.2,1.4,0.7,2.2,0.7c2.3,0.2,4.4,0.9,6,2.7
		c0.2,0.2,0.4,0.3,0.7,0.4c3.5,0.6,6.8,2.5,10.4,2.6c1.2,0,2.3,0.2,3.4,0.8c0.6,0.3,1.2,0.8,1.1,1.7c-0.1,0.8-0.7,1.1-1.3,1.3
		c-1.7,0.7-3.6,0.9-5.4,0.9c-1.3,0-2.7,0-3.9,0.3c-2.3,0.6-3.3,2.9-2.4,5.4c0.7,2,2.2,3.2,4,3.9c3,1.2,6.1,1,9.2,1
		c3.8,0,7.6-0.3,11.3-1.4c2.1-0.6,3.6-2,4.4-4.2c0.7-1.7,1.3-3.5,2.4-4.9c1.1-1.4,2.8-1.8,4.1-1.1c1.2,0.6,1.3,1.7,0.3,2.6
		c-0.8,0.7-1.7,0.9-2.7,1.2c-2.3,0.8-3,2.3-2.3,4.9c0.6,2,1.6,3.5,3.3,4.5c0.7,0.4,1.3,0.9,1.8,1.5c1.2,1.6,1,3.7-0.6,4.8
		c-1.2,0.9-2.6,1-3.9,1.1c-2.1,0.2-4.2,0.3-6.2,0.5c-2.5,0.2-4,1.6-4.3,4.5c3.9,0.3,7.6,1.9,11.5,2.1c3.7,0.2,7.6,0.3,10.3-3.5
		c1.3-1.8,2.9-2,4.8-1.2c0.6,0.3,1.3,0.5,1.9,0.6c1.5,0.2,2.6-0.8,2.6-2.5c0-1.1-0.1-2.3-0.2-3.4c-0.3-3.3,0.7-5,3.6-5.7
		c2-0.5,3.9-0.3,5.9-0.2c1,0,2,0.2,2.9-0.1c2-0.8,3.9-0.3,5.7,0.6c2.9,1.5,5.7,3,8.9,3.4c1.7,0.3,2.8,1.7,3.6,3.4
		c0.7,1.5,1.4,3,2.2,4.4c1.4,2.5,3.4,2.5,4.9,0c0.5-0.8,0.9-1.8,1.2-2.7c0.6-1.5,1.1-3,1.6-4.4c-3-5.1-6.7-10.2-11.3-14.7
		c-2.1-0.8-4.3-1.7-6.4-2.6c-1.4-0.6-2.6-0.4-3.6,0.9c-1.2,1.4-2.6,2.2-4.5,2c-0.7-0.1-1.5,0.1-2.3,0.2c-0.6,0.1-1.2,0.2-1.2,1
		c0,0.7,0.3,1.2,0.8,1.5c0.7,0.4,1.5,0.7,2.2,1.1c0.9,0.4,1.6,1.1,1.5,2.3c0,1.3-1,1.6-1.8,2c-1.5,0.6-2.9,0.2-4.2-0.8
		c-2.6-1.9-5.1-3.8-8.1-4.9c-1.3-0.5-2.2-1.6-3-2.7c-3.8-5.6-9.2-8.3-14.7-11c-1.9-0.9-3.9-1.6-6-1.9c-2.1-0.3-3.8,0.5-5.1,2.3
		c-3.1,4.7-5.9,5.5-11.5,3.5c-2.6-0.9-5.1-2.1-7.7-3.2c-1.3-0.6-2.6-0.7-4,0.1c-1.1,0.6-2.4,0.4-3.3-0.3c-2.7-2-5.7-2.9-8.8-3.3
		c-0.6-0.1-1.2-0.3-1.7-0.6c-0.4-0.2-0.9-0.5-0.7-1.1c0.2-0.7,0.7-0.8,1.2-0.7c0.6,0.1,1.3,0.3,1.9,0.6c1.1,0.4,2.3,1,3.4,1.4
		c0.8,0.3,1.8,0.7,2.5-0.4c0.7-1.2-0.2-1.9-0.8-2.6c-1.7-2-3.6-3.8-5.5-5.6c-0.3-0.3-0.5-0.6-0.8-0.9L494.3,64.6L494.3,64.6z"/>
	<path d="M479.6,173.6c1.2,0.2,2.3,0.7,3.3,1.1c1.5,0.6,3,0.7,4.5,0.2c1-0.4,1.3-1,0.4-2c-0.4-0.5-1.1-0.9-0.7-1.7
		c0.4-0.8,1.1-0.8,1.8-0.7c1.4,0.1,2.3,1,3.2,2.1c1.8,2.5,2.5,2.6,5.2,1.2c3.3-1.7,6.7-3.2,10-4.9c2.3-2.5,3.6-5.6,4.7-8.9
		c1.8-5,4.5-6.6,9.3-5.8c1.7,0.3,3.4,0.9,5,1.8c1.6-1.4,3.3-1.3,5-0.5c4.2,1.9,8.6,2.8,13.1,3.5c2.5,0.4,5.1,0.9,7.7,0.2
		c0.7-0.2,1.3-0.5,1.3-1.6c-0.1-1.7-1.7-3.2-3.2-2.7c-1.6,0.5-3.3,0.7-4.9,0.9c-2.3,0.2-4.2-0.5-5.7-2.5c-1.2-1.6-2.8-2.6-4.8-2.4
		c-1.5,0.2-2.5-0.6-3.1-2.1c-0.8-2-2.4-3.2-3.7-4.6c-1.1-1.2-1.9-2.7-2.4-4.3c-1.4-0.9-2.7-0.8-3.9,0.5c-0.8,0.9-1.7,1-2.5,0
		c-1-1.2-2.4-1.4-3.6-2.1c2.1,0,4.1,0.4,6.1-0.1c0.4-0.1,0.9-0.2,1.3-0.3c0.9-0.3,1.5-1,1.6-2c0.1-1.1-0.7-1.6-1.5-1.9
		c-2.4-1.2-4.9-1.5-7.4-1.5c-2.5,0-5,0.1-7.5,0.1c-1.1,0-2.2-0.1-3.3-0.4c-3.3-1.1-6.6-1.9-10-2c-1.6-0.1-2.9-0.9-3.5-2.6
		c-1.2-3.7-3.8-5.1-7-5.6c-3.2-0.5-6.3-1.7-9.5-2.1c-0.9-0.1-1.8-0.1-2.7-0.2c-1.5-0.2-2.8-0.8-4.2-1.6c-2.3-1.4-4.9-2.4-7.5-3
		c-1.2,5-2,9.3-2.8,12.7c-0.5,2.2-1.1,4.3-1.7,6.2c2,0.9,3.6,2.5,4.9,4.4c0.5,0.8,1.1,1.6,0.4,2.6c-0.7,0.9-1.6,0.8-2.5,0.3
		c-1.4-0.9-2.8-0.9-4.1,0.3c-0.8,0.8-1.7,1-2.5,0.9c-2,3.6-3.8,5.9-4.6,6.9l0,14.9c6.7,1.8,13.2,4.8,19.9,6.6
		C471.6,172.1,475.6,173.1,479.6,173.6z"/>
	<path d="M485.2,71c1.8,0.1,3.5,0,5.3-0.6c0.9-0.3,1.5-0.9,1.5-2.1c0.1-1-0.5-1.4-1.2-1.6C488.9,68.1,487,69.5,485.2,71z"/>
	<path d="M469.2,95.7c0.6-0.8,1-1.7,1.4-2.6c0.5-1.3,1.3-2.1,2.5-2.4c0.8-0.2,1.6-0.6,2.3-1.3c2.5-2.6,6.3-1.9,8,1.5
		c1.4,2.9,4,4.4,6.7,3.8c2.5-0.6,5-1.4,7.6-1.2c1.6,0.1,2.6-2.2,1.6-3.6c-1.7-2.1-3.5-4.1-5.9-5.3c-1-0.5-2.1-0.7-3.3-0.3
		c-5.2,1.8-10.3,1.1-15.3-0.8c-0.2-0.1-0.4-0.2-0.5-0.2c-3,4.2-5.3,8.6-7.3,13C467.8,96.5,468.5,96.5,469.2,95.7z"/>
	<path d="M449.2,348.2c-0.4-0.5-0.9-0.8-1.4-1l0,6.3c0.1,0,0.3,0.1,0.6,0.1c0.9,0.1,2.6,0.3,5.9,0.5c0.3,0,0.7,0.1,1,0.1
		c-0.4-0.4-0.8-0.8-1.2-1.1C452.4,351.5,450.7,349.9,449.2,348.2z"/>
	<path d="M454.1,187.2c1.2,0.4,2.4,0.5,3.1-0.9c0.7-1.5,0-2.5-1.1-3.2c-2.3-1.6-4.2-3.7-6.1-5.9c-0.4-0.5-0.9-0.9-1.5-1.1
		c-0.2-0.1-0.5-0.2-0.7-0.4l0,7.2c1.1,0.8,2.3,1.6,3.4,2.5C452.1,186.2,453,186.8,454.1,187.2z"/>
	<path d="M449,175c0.8,0.5,1.5,1.6,2.6,1.2c1.7-0.6,3.4-1,5.2-1.1c0.4,0,0.9-0.3,1-0.9c0.1-0.6-0.3-1.1-0.7-1.3
		c-0.7-0.4-1.4-0.7-2.2-0.7c-2.6-0.2-4.9-1.1-7-2.4l0,4.7C448.2,174.2,448.6,174.8,449,175z"/>
	<path d="M642.9,192.8c-0.1,0.5,0.1,0.8,0.4,1.1l0-1.6C643.1,192.4,643,192.6,642.9,192.8z"/>
	<path d="M466.9,104.7c-1.1,0.2-2.2,0.2-3.3,0.2c-0.5,1.4-0.9,2.7-1.3,4.1c0.7,0.2,1.3,0.5,2,0.8c1,0.4,2,0.7,3.1,0.6
		c1.7-0.2,2.7-1.4,2.5-3.1C469.7,105.4,468.6,104.4,466.9,104.7z"/>
	<path d="M534.1,95.3c-2.6,1.2-5.2,1.1-7.9,0.1c-2.5-0.9-5-2.2-7.8-2.2c0.6,1.1,1.5,1.9,2.7,2.2c2.4,0.6,4.8,1.2,7.3,1.6
		c4.7,0.8,9.4,0.5,14.1,0.5c0.3-0.2,0.9,0.1,1-0.5c0-0.5-0.4-0.7-0.8-0.9C540,94.4,537.1,94,534.1,95.3z"/>
	<path d="M573,176.6c-4.5-3.2-9.3-5.3-14.8-4.5c-3.5,0.5-6.9,2.1-10.4,2.3c-2.1,0.1-4.3,1.1-6.3-0.1c-2.2-1.3-4.7-1.8-7-2.7
		c-0.6-0.2-1.6-0.1-1.5-1.3c0.1-1.2,1-1.3,1.8-1.3c1.7,0.1,3.3,0.7,4.7,1.7c2.8,1.8,7.9,1.5,10.5-0.8c0.7-0.6,1.4-1.3,0.4-2.3
		c-1.2,0.2-2.3,0.1-3.5-0.2c-6.6-1.7-12.9,0-19.2,2.2c-2.8,1-5.5,2.3-7.9,4.3c0,0.6,0,1.1-0.3,1.6c-1.5,2.6-3.4,4.7-6.1,5.7
		c-1.2,0.4-2.2,0.4-3.3-0.4c-2.1-1.6-4.4-1.7-6.6-0.3c-1.9,1.2-3.9,1.4-6,1c-7.7-1.6-15.5-1.7-23.3-1.8c-0.5,0-1,0.2-1.5,0.3
		c2.5,1.5,5,3.1,7.9,3.8c1.9,0.5,2.9,2.3,3.5,4.3c0.4,1.2,0.6,2.5,0.9,3.7c0.3-0.1,0.6,0,0.8-0.3c1.6-1.9,3.8-2.6,6.1-2.8
		c0.6-0.2,1.2-0.3,1.9-0.2c1.4,0,2.9,0,4.1,1c1.4-0.7,2.6-0.6,3.9,0.4c1.7,1.3,3.7,2.1,5.6,2.9c0.5,0.2,1.1,0.4,1.6,0
		c0.3-0.3,0.6-0.6,0.9-0.9c2.2-2.8,4.8-4.3,8.3-3.5c4.4,1,7.9-0.8,10.7-4.7c1.1-1.5,2.4-2.9,3.9-4c1.7-1.3,3.5-2,5.6-1.7
		c1.2-1.1,2.7-1.2,4.2-1.2c1.3,0.1,2.6,0.2,3.9,0.6c3.8,1.1,7.6,1.4,11.5,0.7C562.9,177.2,567.9,176.2,573,176.6z"/>
	<path d="M632.1,168.9c-5.7-1.7-11.7-2.1-17.6-2.8c-0.6,0-1.2-0.1-1.8,0c-4.9,0.5-6.3,2.6-6.2,8c0,2.8,1.3,4,3.8,4.2
		c2.2,0.2,4.3-0.3,6.5-0.5c2-0.3,4-0.7,6.1-0.2c1.6,0.4,2.7,1.7,2.8,3.3c0.2,1.7-0.9,2.4-2,3c-0.4,0.2-0.7,0.4-1.1,0.6
		c-1,0.7-1.3,1.7-0.8,2.9c0.7,1.6,1.9,2.6,3.3,3.3c2.8,1.3,5.8,1.3,8.7,0.9c3.1-0.4,3.4-1.1,3.3-4.5c-0.1-1.3,0.1-2.6,1.3-2.9
		c1.6-0.4,3.3-1,4.9-1.2l0-5.1c-0.1-0.1-0.1-0.2-0.2-0.4C640.5,173.1,636.7,170.3,632.1,168.9z"/>
	<path d="M643.3,188.3l0-1.7c-0.1,0.3-0.2,0.5-0.2,0.9C643.1,187.9,643.2,188.1,643.3,188.3z"/>
	<path d="M578.6,165.8c1.8,2.1,3.6,1.9,5.5-0.2c2.3-2.6,4.5-5.3,6.7-8c-3.2-2.2-6.3-2.4-9.4,0.3c-0.6,0.6-1.3,1-2.1,1.4
		c-1.5,0.8-2.2,0.3-2.3-1.5c0-0.7,0-1.5,0-2.2c0-0.5,0.1-1.1-0.4-1.4c-0.5-0.3-0.9,0.1-1.2,0.4c-1.5,1.6-3.3,1.9-5.2,1.8
		c-1.8-0.1-3.5-0.2-5.3-0.3c-0.7,0-1.4-0.2-2.1,0.3C568.4,159,574.3,160.7,578.6,165.8z"/>
	<path d="M573.2,176.6c-0.1-0.1-0.1-0.1-0.2,0c0,0,0.1,0,0.1,0L573.2,176.6z"/>
	<path d="M556.4,340.6c-1.8-0.8-2.6-0.4-3.5,1.5c-0.2,0.5-0.6,1-1,1.5c3.3,1,6.5,2.1,9.8,3.1c0,0,0,0,0,0
		C560.8,343.8,558.9,341.8,556.4,340.6z"/>
	<path d="M614.6,232.6c-1.3-0.3-2.5-0.2-3.8,0c-1.8,0.3-3,1.3-3.5,3.2c-0.5,2,0.2,3.5,1.5,4.7c1.4,1.2,3,2,4.8,1.9
		c3.4-0.1,6.5-1.5,9.4-3.3C620.4,236.8,617.6,234.4,614.6,232.6z"/>
	<path d="M621.3,256.4c-2.3-0.7-4.5-0.3-6.4,1.4C617.2,258,619.3,257.6,621.3,256.4z"/>
	<path d="M643.2,324.6l0-4.5c-0.6,0.6-1.1,1.3-1.3,2.2C642.1,323.3,642.5,324.1,643.2,324.6z"/>
	<path d="M613.7,316.6c-0.4,1.3,1,1.4,1.8,1.8c1.4,0.7,3.1,0.9,4,2.5c0.9,0.2,1.8,0.4,2.7,0.5c0.8,0,1.8,0.3,2.1-1
		c-2.7-1.3-5.4-2.7-8.2-4C615.4,316,614.1,315.3,613.7,316.6z"/>
	<path d="M553.6,187.2c0.7,1.3,1.4,2.6,2.4,3.6c1.5,1.4,2.9,1.3,4.1-0.5c0.7-1,1.1-2.1,1.4-3.3C559.5,185.4,555,185.6,553.6,187.2z"
		/>
	<path d="M571.8,138.6c-2.5-0.8-4.8-2.1-7.2-3.2c-0.8,0-1.6,0-2.4,0c-2.3,0-4.6-0.3-6.8,0.3c-1.7,0.5-3,2.1-2.7,3.5
		c0.5,2.5,4.2,6.4,6.6,6.7c5.8,0.8,11.5,0.3,17.2-1.1c2.9-0.7,5.3-2.8,4.5-7.4C578,138.6,574.9,139.6,571.8,138.6z"/>
	<path d="M335.8,113.7c-3.4-1.1-4.4-3.1-3.2-6.2c0.6-1.5,1.7-2.9,2.6-4.2c0.8-1.1,1.5-2.1,2.2-3.3c1.3-2.2,1.7-4.5,0.7-6.9
		c-1.1-2.9-2.2-5.8-3.2-8.7c-0.6-1.8-0.9-3.7-1.1-5.5c-0.2-1.8,0.3-3.4,1.3-4.8l-6.1-1.9c-0.4,0.4-0.9,0.6-1.6,0.6
		c-1.1,0-1.4-0.8-1.7-1.6l-7.2-2.2c-0.6,2-0.5,4,0.4,6.1c0.4,0.8,0.6,1.7,0.5,2.7c-0.1,0.9,0.3,1.5,1.3,1.9c3.1,1,4.4,3,3.3,5.9
		c-1.5,3.8-4.1,6.9-8.7,8.1c-0.5,0.1-1,0.4-1.6,0.6c-0.9,1.5-1.7,3-2.7,4.5c-0.9,1.4-1,2.8-1,4.3c0.3,0.3,0.6,0.6,1,0.8
		c2.9,1.7,3,3.7,1.7,6.6c-0.7,1.5-2.1,1.7-3.7,1.6c-4.6-0.2-8.1,1.7-10.9,4.8c1.1,0.8,1.4,1.8,1.3,3c0,4.1-1.6,7.8-3.7,11.3
		c-1,1.7-1.9,3.4-2.8,5.1c2.8,7,6.3,11.3,7.3,12.5l21,4.2c0.1-1.4,0.2-2.7,0.1-4.1c0-0.9,0-1.8-0.9-2.5c-1,1.8-2.9,2.9-4.2,2.5
		c-1-0.3-1.6-2.1-1.2-4c0.2-0.9,0.4-1.8,1-2.5c-1.9-1.7-2.5-3.9-2.5-6.3c0-1.9-0.2-3.8-0.3-5.8c-0.1-1.5-0.8-2.7-1.7-3.9
		c-0.7-0.9-1.3-1.8-1.6-2.8c-0.1-0.3-0.2-0.7,0.1-1c0.4-0.3,0.9-0.2,1.3,0c1.2,0.5,1.8,1.5,2.1,2.6c0.6,1.9,1.4,3.7,2.4,5.5
		c0.8,1.5,0.6,3.1,0.6,4.6c0,0.6-0.3,1.6,0.7,1.8c1.2,0.2,1.7-0.6,2-1.5c0.7-2.2,0.5-4.4,0.8-6.6c0.3-2.3,0.4-4.7,1.8-6.7
		c0.5-0.8,1.1-1.5,2.1-1.9c0.7-0.3,1.3-0.4,1.9,0.1c0.6,0.5,0.4,1.1,0.1,1.7c-2.7,4-3.1,8.6-3.8,13.1c0,0,0,0.1,0,0.2
		c2.4-1.4,4.1-3.5,6.2-5.2c3-2.4,5.5-5.3,7.8-8.2c0.9-1.1,1.6-2.2,2.1-3.5C339.4,116,338.6,114.6,335.8,113.7z"/>
	<path d="M262.6,63.5c0.1-1.7,0.7-3.3,0.2-5c-0.1-0.2-0.1-0.5-0.2-0.7c-0.4-0.9-0.9-2.1-2.1-1.9c-1.3,0.2-0.9,1.5-0.8,2.3
		c0.4,2.5-0.1,5-1.2,7.3c-0.2,0.5-0.4,1-0.6,1.4c1.7,1,3.2,2,4.7,3.1C262.1,67.9,262.5,65.7,262.6,63.5z"/>
	<path d="M295.4,70.1c0.8,0.1,1.2-0.5,1.6-1c0.9-1.2,1.8-2.5,2.6-3.8c0.6-0.9,1-1.3,2.1-0.4c1.2,1,2.7,1.2,4.1,0.3l-10-3
		c-0.2,1.2-0.6,2.4-1.1,3.6c-0.4,0.8-0.6,1.8-0.3,2.7C294.5,69.1,294.5,69.9,295.4,70.1z"/>
	<path d="M282,87.7c0.2-0.8,0.6-1.4,1.6-1.6c1-0.1,1.7,0.3,2.3,1c0.6,0.8,0.7,1.7,1,2.6c0.7,1.9,1.9,2.2,3.7,1.1
		c1.5-0.9,2.4-2.1,2.9-3.6c1.1-3.1,1.1-6.2,0.3-9.3c-0.4-1.4-1.4-2.2-3-2.1c-0.7,0-1.5,0-2.2,0c-0.8,0-1.4-0.3-1.9-0.8
		c-0.2-0.2-0.4-0.5-0.2-0.8c0.2-0.4,0.5-0.3,0.9-0.2c0.4,0.1,0.9,0.1,1.3,0.1c1.5,0,2.1-0.9,1.4-2.1c-0.2-0.3-0.4-0.6-0.6-0.9
		c-0.4-0.6-0.7-1.1,0.5-1.2c1.2-0.1,1.5-1.1,1.8-2c0.6-2.1,0.9-4.3,1.1-6.5l-17.4-5.3c-1.5,1.7-1.8,3.7-1.4,5.8
		c0.3,1.6,0.7,3.3,0.8,5c0.2,4.2-1.6,7.5-4.8,10.2c4.5,5.1,7.9,11,10.6,17C281.1,92,281.6,89.8,282,87.7z"/>
	<path d="M309.7,66.5c0,0,0.1,0,0.1,0l-2.1-0.6C308.1,66.4,308.8,66.6,309.7,66.5z"/>
	<path d="M357,97.3c-2.9,0.4-5.1-0.7-6-3.3c-1-2.9-0.8-5.7,0.7-8.4c1-1.9,2.3-3.6,3.4-5.4l-12.2-3.7c0,0,0,0.1,0,0.1
		c0.6,1.9,1.1,3.7,1.5,5.6c0.1,0.6,0.4,1.2-0.2,1.7c-2.7,2.3-3.3,5.5-4.1,8.5c-1,4.3-0.1,8.5,1.8,12.5c1.5,3.3,3.1,6.5,3.7,10.1
		c1.1,1.8,1.5,3.9,2,5.9c0.2,0.7-0.2,1.3-0.6,1.9c-2,3.5-3.2,7.3-4.9,11c-0.1,0.3-0.1,0.6-0.2,0.9c2.6,2.2,3.9,4.9,4.2,8
		c0.2,2,0.2,4.1-0.2,6.1c-0.3,2-0.2,3.8,1.5,5.4c0.7,0.6,0.7,1.4,0.6,2.3c-0.1,0.6-0.2,1.2-0.3,1.7l1.6,0.3l14.2-65.2
		c-0.8,0.8-1.6,1.6-2.6,2.3C359.8,96.5,358.5,97,357,97.3z"/>
	<path d="M344.3,118.2c-2.9,1-4.9,2.8-6.1,5.3c-0.8,1.8-0.4,2.6,1.5,3.5c0.5,0.2,1,0.6,1.5,1C342.2,124.7,343.3,121.5,344.3,118.2
		C344.3,118.2,344.3,118.2,344.3,118.2z"/>
	<path d="M253.9,58.6c-0.7,2.3-0.3,4.5,1.4,6.4C255.6,62.8,255.1,60.6,253.9,58.6z"/>
	<path d="M123.1,95c0.3-0.8,0.7-1.6,1-2.3c-0.1-1-0.4-1.9-0.8-2.9c-0.2-0.5-0.4-1-0.5-1.4c-0.1-0.8,0.3-1.4,1-1.8
		c0.7-0.4,1.3,0.1,1.7,0.6c0.3,0.3,0.6,0.7,0.8,1.1c6-11.1,14.5-19.5,26.8-24.4l-0.6,0.2l4.4-1.3c-3.5-5-3.3-10.8-3.4-13.6
		c0-0.3-0.1-0.1-0.1-0.3l-7,2.1c0.1,2.7-0.3,5.4-0.8,8c-0.2,1.4-0.7,2.8-0.7,4.2c0,1.7-0.9,2.7-2.3,3.6c-0.7,0.4-1.3,0.9-1.8,1.6
		c-1.4,2.5-3,5-6,6.4c-0.9,1.2-1.4,2.7-2.6,3.7c-0.7,0.6-1.4,1.3-2.5,1c-1.1-0.3-1.3-1.2-1.4-2.1c-0.3-2.4,0-4.6,1.3-6.8
		c0.5-0.9,1.1-1.8,1.6-2.7c0.2-1.5,0.6-2.9,0.4-4.4c-0.2-1.5-1.3-2.6-3.1-2.8c-1.6-0.2-2.2,0.9-2.6,1.9c-1,2.2-1.2,4.5-1.8,6.8
		c-0.4,1.6-1.3,2.9-2.8,3.9c-2,1.3-4.3,0.6-4.9-1.6c-1-3.4-0.4-6.9,0.3-10.3c0.1-0.6,0.3-1.1,0.4-1.7l-10.8,3.3c0,0,0,0,0,0
		c-0.1,0.7-0.8,1.7,0.9,1.7c0.5,0,0.4,0.6,0.3,0.9c-0.2,1.5-0.8,2.8-2,4c-1.6,1.6-3.5,2.7-5.3,4c-1.8,1.3-3.5,2.5-4.8,4.3
		c-1.4,1.9-1.2,3.6,0.4,5.3c1,1.1,2.2,1.9,3.5,2.7c1,0.6,1.9,1.3,2.9,1.9c2.5,1.7,3.3,4,2.8,6.7c-0.5,2.7-1.3,5.3-2.5,7.7
		c-1.3,2.7-1,5.1,1.2,7.3c1.9,1.9,2.1,4.3,1.7,6.6c-0.7,4-0.9,8.1-1.4,12.1c-0.5,3.4-1.6,6.7-2.8,9.9c-1.5,3.9-2,7.7-1.9,11.6l4-0.8
		c1.4-1.6,7.4-9,10.1-21.2C115.3,120.7,117.7,107.8,123.1,95z"/>
	<path d="M62,101.8c2.1-2.9,2.3-5.9,0.2-8.9c-1.8-2.5-2.7-5.3-3.2-8.3c-0.5-2.9,0-5.5,3.1-7.1c0.7-0.4,1.4-0.8,1.7-1.5
		c0,0,0,0,0-0.1l-11.4,3.5c-1.7,4.1-2.6,8.5-3,13c-0.2,2.1-0.5,4.2-0.7,6.4c-0.1,1.2-0.6,2.1-1.7,2.8c-1,0.7-2,1.4-2.9,2.2l1.6,7.4
		c0.3,0.3,0.5,0.7,0.7,1.2c0.7,1.9,2.7,2.7,4.7,2.1c0.6-4.1,2.4-7.6,6.9-9.5C59.6,104.4,61,103.3,62,101.8z"/>
	<path d="M93.9,109.5c-1.8-1.3-2-2.9-1.2-4.8c0.3-0.6,0.5-1.3,0.6-1.9c0.2-1.5-0.8-2.6-2.5-2.6c-1.1,0-2.3,0.1-3.4,0.2
		c-3.3,0.3-5-0.7-5.7-3.6c-0.5-2-0.3-3.9-0.2-5.9c0-1,0.2-2-0.1-2.9c-0.8-2-0.3-3.9,0.6-5.7c1.5-2.9,3-5.7,3.4-8.9
		c0.3-1.7,1.7-2.8,3.4-3.6c1.5-0.7,3-1.4,4.4-2.2c0.4-0.3,0.8-0.5,1.1-0.8l-24.1,7.3c-0.5,1.1-0.9,2.3-1.4,3.4
		c-0.6,1.4-0.4,2.6,0.9,3.6c1.4,1.2,2.2,2.6,2,4.5c-0.1,0.7,0.1,1.5,0.2,2.3c0.1,0.6,0.2,1.2,1,1.2c0.7,0,1.2-0.3,1.5-0.8
		c0.4-0.7,0.7-1.5,1.1-2.2c0.4-0.9,1.1-1.6,2.3-1.5c1.3,0,1.6,1,2,1.8c0.6,1.5,0.2,2.9-0.8,4.2c-1.9,2.6-3.8,5.1-4.9,8.1
		c-0.5,1.3-1.6,2.2-2.7,3c-5.6,3.8-8.3,9.2-11,14.7c-0.9,1.9-1.6,3.9-1.9,6c-0.3,2.1,0.5,3.8,2.3,5.1c4.7,3.1,5.5,5.9,3.5,11.5
		c-0.9,2.6-2.1,5.1-3.2,7.7c-0.6,1.3-0.7,2.6,0.1,4c0.6,1.1,0.4,2.4-0.3,3.3c-1,1.3-1.7,2.7-2.2,4.2l2.5-0.5c0.4-1,1.1-1.9,2-2.8
		c0.2-0.2,0.3-0.4,0.4-0.7c0.6-3.5,2.5-6.8,2.6-10.4c0-1.2,0.2-2.3,0.8-3.4c0.3-0.6,0.8-1.2,1.7-1.1c0.8,0.1,1.1,0.7,1.3,1.3
		c0.7,1.7,0.9,3.6,0.9,5.4c0,1.3,0,2.7,0.3,3.9c0.6,2.3,2.9,3.3,5.4,2.4c2-0.7,3.2-2.2,3.9-4c1.2-3,1-6.1,1-9.2
		c0-3.8-0.3-7.6-1.4-11.3c-0.6-2.1-2-3.6-4.2-4.4c-1.7-0.7-3.5-1.3-4.9-2.4c-1.4-1.1-1.8-2.8-1.1-4.1c0.6-1.2,1.7-1.3,2.6-0.3
		c0.7,0.8,0.9,1.7,1.2,2.7c0.8,2.3,2.3,3,4.9,2.3c2-0.6,3.5-1.6,4.5-3.3c0.4-0.7,0.9-1.3,1.5-1.8c1.6-1.2,3.7-1,4.8,0.6
		c0.9,1.2,1,2.6,1.1,3.9c0.2,2.1,0.3,4.2,0.5,6.2c0.2,2.5,1.6,4,4.5,4.3c0.3-3.9,1.9-7.6,2.1-11.5C97.6,116,97.8,112.2,93.9,109.5z"
		/>
	<path d="M56.7,156c-0.5-0.3-1-0.3-1.4-0.1l0.6,2.6l1.3-0.3C57.5,157.5,57.7,156.6,56.7,156z"/>
	<path d="M95.2,137.4c-0.2-0.3,0.1-0.9-0.5-1c-0.5,0-0.7,0.4-0.9,0.8c-1.8,2.8-2.2,5.7-0.9,8.7c0.7,1.7,1,3.3,0.8,5l1.1-0.2
		C95.4,146.3,95.2,141.8,95.2,137.4z"/>
	<path d="M457.3,125.4c-1.1-0.8-1.4-1.8-1.3-3c0-4.1,1.6-7.8,3.7-11.3c0.8-1.4,1.6-2.9,2.4-4.3c1-3.2,2.2-6.5,3.6-9.9
		c0.3-0.7,0.6-1.4,1-2.1c0.5-1.8,0.8-3.6,1.1-5.5c0-0.3,0-0.5,0.1-0.8c1.7-4.9,1.6-9.9,0.3-14.9c-0.8-3.1-0.4-6.2,0.4-9.2
		c0.6-2.4,1.2-4.9,1.8-7.3l-18.6,5.7c-1,1.7-2,3.4-2.9,5c-1.6,2.8-1.5,5.5,0,8.3c0.9,1.6,1.4,3.2,1.1,5c-0.4,2.3-2.8,4.1-5.4,3.9
		c-0.7,0-1.3-0.4-1.7-0.8c-0.3-0.3-0.5-0.7-0.7-1c-1.8-2.9-4.2-2.9-6.2,0c-0.6,0.8-1,1.7-1.2,2.7c-0.6,2.5-0.8,5-0.7,7.6
		c0,0.9,0,1.8,0.9,2.5c1-1.8,2.9-2.9,4.2-2.5c1,0.3,1.6,2.1,1.2,4c-0.2,0.9-0.4,1.8-1,2.5c1.9,1.7,2.5,3.9,2.5,6.3
		c0,1.9,0.2,3.8,0.3,5.8c0.1,1.5,0.8,2.7,1.7,3.9c0.7,0.9,1.3,1.8,1.6,2.8c0.1,0.3,0.2,0.7-0.1,1c-0.4,0.3-0.9,0.2-1.3,0
		c-1.2-0.5-1.8-1.5-2.1-2.6c-0.6-1.9-1.4-3.7-2.4-5.5c-0.8-1.5-0.6-3.1-0.6-4.6c0-0.6,0.3-1.6-0.7-1.8c-1.2-0.2-1.7,0.6-2,1.5
		c-0.7,2.2-0.5,4.4-0.8,6.6c-0.3,2.3-0.4,4.7-1.8,6.7c-0.5,0.8-1.1,1.5-2.1,1.9c-0.7,0.3-1.3,0.4-1.9-0.1c-0.6-0.5-0.4-1.1-0.1-1.7
		c2.7-4,3.1-8.6,3.8-13.1c0,0,0-0.1,0-0.2c-2.4,1.4-4.1,3.5-6.2,5.2c-3,2.4-5.5,5.3-7.8,8.2c-0.9,1.1-1.6,2.2-2.1,3.5
		c-0.9,2.6-0.2,3.9,2.6,4.9c3.4,1.1,4.4,3.1,3.2,6.2c-0.6,1.5-1.7,2.9-2.6,4.2c-0.8,1.1-1.5,2.1-2.2,3.3c-1.3,2.2-1.7,4.5-0.7,6.9
		c0.6,1.6,1.3,3.3,1.9,4.9l16-3.1c1.3-1.1,2.9-2,4.9-2.5c0.5-0.1,1-0.4,1.6-0.6c0.9-1.5,1.7-3,2.7-4.5c0.9-1.4,1-2.8,1-4.3
		c-0.3-0.3-0.6-0.6-1-0.8c-2.9-1.7-3-3.7-1.7-6.6c0.7-1.5,2.1-1.7,3.7-1.6C450.9,130.4,454.4,128.5,457.3,125.4z"/>
	<path d="M514,50.8c-0.3-0.8-0.6-1.5-1-2.3c-0.2-0.3-0.3-0.7-0.5-1.1c-0.2,0-0.5,0-0.7,0l0,0c-2.1,0.1-4.1,0.2-5.8,0.4
		c-1.9,0.1-3.5,0.2-4.8,0.3c-1.1,0.1-1.6,0.1-1.9,0.2l0,0l-0.1,0c0,0,0,0-0.1,0l-10.7,3.3c0.3,0.2,0.7,0.3,1,0.5
		c1.4,0.8,2.4,1.8,2.8,3.3c0.5,2.2,0.1,2.8-2.2,3.3c-4.1,0.9-5.6,2.9-6.2,7.6c-0.2,1.6-0.2,3.2-0.3,4.8c3-2.7,6.3-5.1,10.1-7.4
		L514,50.8z"/>
	<path d="M409.9,127.3c-1.1-1.8-1.5-3.9-2-5.9c-0.2-0.7,0.2-1.3,0.6-1.9c2-3.5,3.2-7.3,4.9-11c0.1-0.3,0.1-0.6,0.2-0.9
		c-2.6-2.2-3.9-4.9-4.2-8c-0.2-2-0.2-4.1,0.2-6.1c0.3-2,0.2-3.8-1.5-5.4c-0.7-0.6-0.7-1.4-0.6-2.3c0.4-2.8,1.5-5.5,1.2-8.4
		c0-0.5-0.1-1-0.2-1.5l-24.4,7.4l5.6,25c0.3-1.3,0.3-2.7,0-4.2c-0.6-4.5,0-9,1.1-13.4c0.5-2,1.7-3.8,4.1-4.5c1.7-0.5,2.6,0,2.8,1.6
		c0.3,1.7-0.1,3.5-0.6,5.1c-2,7-3.9,14-6.3,20.9l7,31.3c0.2,0,0.4-0.1,0.6-0.1c2.9-0.4,5.1,0.7,6,3.3c1,2.9,0.8,5.7-0.7,8.4
		c-0.1,0.1-0.2,0.3-0.2,0.4l10.1-1.9c0.8-1.7,1.2-3.5,1.7-5.4c1-4.3,0.1-8.5-1.8-12.5C412.1,134.1,410.5,130.8,409.9,127.3z"/>
	<path d="M425,71c-0.2,0.7-0.3,1.5-0.5,2.2c3.1-1.2,5.7-2.7,7.8-4.5L425,71z"/>
	<path d="M411.3,124.1c2.9-1,4.9-2.8,6.1-5.3c0.8-1.8,0.4-2.6-1.5-3.5c-0.5-0.2-1-0.6-1.5-1C413.3,117.6,412.3,120.9,411.3,124.1
		C411.3,124.1,411.3,124.1,411.3,124.1z"/>
	<path d="M651.1,66.2c0-0.3,0-0.5,0.1-0.8l-4.9-1.5c-0.1,0.3-0.2,0.7-0.3,1.1c-0.2,1.3-1.1,2.1-2.4,2.5c-2.3,0.6-3.7,2.4-5.9,3.1
		c-1.1,0.3-1.4,1.6-1.7,2.5c-0.9,3.6-2.2,7-2.7,10.7c-0.5,3.7-2.9,6.4-6.1,8.6c-0.2,0.2-0.5,0.3-0.7,0.4c-0.9,0.5-1.5,1-2,1.5
		c0.4,0.8,0.8,1.7,1.1,2.5c0.7,1.6,1.3,3.2,1.9,4.7c0.3,0.5,0.5,1,0.7,1.6c0.2,0.8,0.7,1.6,1.6,1.9c2.3,0.6,3.7,2,4.8,3.8
		c3.2,2.4,3.7,4.3,2.3,7.8c-0.5,1.1-1.1,2.2-1.8,3.2c-0.7,1-1.3,2.1-1.6,3.2c0.4,1.7,0.7,3.3,1,4.7c1.5,7,4.1,12.4,6.3,16.1
		c1.1,1.8,2.2,3.5,3,4.5c0.2,0.3,4.1,0.7,4.3,0.9l2.3,0.4c0-0.6,0-1.2,0.1-1.8c0.5-2.7,1.3-5.3,2.5-7.7c1.3-2.7,1-5.1-1.2-7.3
		c-1.9-1.9-2.1-4.3-1.7-6.6c0.7-4,0.9-8.1,1.4-12.1c0.5-3.4,1.6-6.7,2.8-9.9c2.9-7.5,2.3-14.9,0-22.3
		C652.3,76.8,650.5,71.7,651.1,66.2z"/>
	<path d="M693.5,140.5c-2.1,2.9-2.3,5.9-0.2,8.9c0.8,1.1,1.4,2.2,1.8,3.4l3.6-16c-0.4,0.2-0.7,0.4-1.1,0.5
		C696,138,694.6,139,693.5,140.5z"/>
	<path d="M697.1,120.1c0.3-2.1-0.5-3.8-2.3-5.1c-4.7-3.1-5.5-5.9-3.5-11.5c0.9-2.6,2.1-5.1,3.2-7.7c0.6-1.3,0.7-2.6-0.1-4
		c-0.6-1.1-0.4-2.4,0.3-3.3c2-2.7,2.9-5.7,3.3-8.8c0-0.1,0-0.1,0-0.2l-2-0.6c0,0.1-0.1,0.3-0.1,0.4c-0.2,0.7-0.7,1.4-0.7,2.2
		c-0.2,2.3-0.9,4.4-2.7,6c-0.2,0.2-0.3,0.4-0.4,0.7c-0.6,3.5-2.5,6.8-2.6,10.4c0,1.2-0.2,2.3-0.8,3.4c-0.3,0.6-0.8,1.2-1.7,1.1
		c-0.8-0.1-1.1-0.7-1.3-1.3c-0.7-1.7-0.9-3.6-0.9-5.4c0-1.3,0-2.7-0.3-3.9c-0.6-2.3-2.9-3.3-5.4-2.4c-2,0.7-3.2,2.2-3.9,4
		c-1.2,3-1,6.1-1,9.2c0,3.8,0.3,7.6,1.4,11.3c0.6,2.1,2,3.6,4.2,4.4c1.7,0.7,3.5,1.3,4.9,2.4c1.4,1.1,1.8,2.8,1.1,4.1
		c-0.6,1.2-1.7,1.3-2.6,0.3c-0.7-0.8-0.9-1.7-1.2-2.7c-0.8-2.3-2.3-3-4.9-2.3c-2,0.6-3.5,1.6-4.5,3.3c-0.4,0.7-0.9,1.3-1.5,1.8
		c-1.6,1.2-3.7,1-4.8-0.6c-0.9-1.2-1-2.6-1.1-3.9c-0.2-2.1-0.3-4.2-0.5-6.2c-0.2-2.5-1.6-4-4.5-4.3c-0.3,3.9-1.9,7.6-2.1,11.5
		c-0.2,3.7-0.3,7.6,3.5,10.3c1.8,1.3,2,2.9,1.2,4.8c-0.3,0.6-0.5,1.3-0.6,1.9c-0.2,1.5,0.8,2.6,2.5,2.6c1.1,0,2.3-0.1,3.4-0.2
		c3.3-0.3,5,0.7,5.7,3.6c0.5,2,0.3,3.9,0.2,5.9c0,0.9-0.1,1.7,0.1,2.6l1.4,0.3c0.1-0.9,0.5-1.7,1-2.4c1.9-2.6,3.8-5.1,4.9-8.1
		c0.5-1.3,1.6-2.2,2.7-3c5.6-3.8,8.3-9.2,11-14.7C696.1,124.2,696.8,122.2,697.1,120.1z"/>
	<path d="M699.9,80.2c0,0.1-0.1,0.2-0.1,0.2c-0.4,1.1-1,2.3-1.4,3.4c-0.3,0.8-0.7,1.8,0.4,2.5c1.2,0.7,1.9-0.2,2.6-0.8
		c1.4-1.2,2.7-2.4,4-3.7L699.9,80.2z"/>
	<path d="M687.8,80.4c1.5,1.8,4.7,1.7,5.4-0.8c0.1-0.4,0.3-0.9,0.5-1.3l-9.3-2.8c0.1,0.3,0.3,0.6,0.5,1
		C685.7,77.8,686.7,79.1,687.8,80.4z"/>
	<path d="M682.6,153.3c-0.7,0-1.2,0.3-1.5,0.8c-0.2,0.4-0.4,0.7-0.6,1.1l3.3,0.6c-0.1-0.4-0.1-0.9-0.2-1.3
		C683.5,154,683.4,153.4,682.6,153.3z"/>
	<path d="M617.2,81.7c1.2-1,1.4-2.4,2.1-3.6c0,2.1-0.4,4.1,0.1,6.1c0.1,0.4,0.2,0.9,0.3,1.3c0.3,0.9,1,1.5,2,1.6
		c1.1,0.1,1.6-0.7,1.9-1.5c1.2-2.4,1.5-4.9,1.5-7.4c0-2.5-0.1-5-0.1-7.5c0-1.1,0.1-2.2,0.4-3.3c1-3,1.7-6,1.9-9.1l-10.1-3
		c-0.2,1.5,0.7,2.5,2.8,3.4c2.2,0.9,3.1,1.9,2.3,3.8c-1.6,3.9-1.6,8-2.5,11.9c0,0.2-0.1,0.4-0.3,0.7c-1.3-1.8-3-1.8-4.3-0.2
		c-0.6,0.7-1,1.5-1.6,2.2c-0.1,0.1-0.2,0.2-0.4,0.3c1.2,1.4,2.4,2.9,3.5,4.4C617.1,81.8,617.2,81.7,617.2,81.7z"/>
	<path d="M585.1,50.2c0.5-0.4,0.9-1.1,1.7-0.7c0.8,0.4,0.8,1.1,0.7,1.8c-0.1,1.4-1,2.3-2.1,3.2c-0.3,0.2-0.5,0.4-0.7,0.6l12.7,8.7
		c1.9,1.1,3.7,2.3,5.4,3.5c-1.2-1.5-1.2-3.3-0.9-5.2c0.5-2.8,1.9-5.3,3.1-7.9c0.4-0.8,0.8-1.6,1-2.4l-12.2-3.7l-0.3,0
		c-2.3-0.2-6.3-0.4-10.8-0.6c0,0.7,0.1,1.5,0.4,2.2C583.5,50.8,584.2,51.1,585.1,50.2z"/>
	<path d="M660.3,105c0.2,0.3-0.1,0.9,0.5,1c0.5,0,0.7-0.4,0.9-0.8c1.8-2.8,2.2-5.7,0.9-8.7c-1.2-2.6-1.1-5.2-0.1-7.9
		c0.9-2.5,2.2-5,2.2-7.8c-1.1,0.6-1.9,1.5-2.2,2.7c-0.6,2.4-1.2,4.8-1.6,7.3C660.1,95.5,660.4,100.2,660.3,105z"/>
	<path d="M578,47.4c-1.6-0.1-3.3-0.1-4.9-0.2l4.7,3.2C577.9,49.3,577.9,48.3,578,47.4z"/>
</g>
</svg>
