<?xml version="1.0" encoding="utf-8"?>
<!-- Generator: Adobe Illustrator 25.3.0, SVG Export Plug-In . SVG Version: 6.00 Build 0)  -->
<svg version="1.1" id="Layer_1" xmlns="http://www.w3.org/2000/svg" xmlns:xlink="http://www.w3.org/1999/xlink" x="0px" y="0px"
	 viewBox="0 0 750.2 400.1" style="enable-background:new 0 0 750.2 400.1;" xml:space="preserve">
<g>
	<path d="M174.4,252.6c-3.2-2.5-6.4-5.2-9.5-7.8c-20.2,7.8-40.4,14.5-60.4,18.7v12.9c10.2-1.8,20.4-4.1,30.6-6.9
		c-10.2,4.1-20.4,7.9-30.6,11v20.7c3.4-1.6,6.8-3.2,10.2-4.8c0.7,0.3,1.4,0.6,2.1,0.9c-4.1,1.7-8.2,3.4-12.3,5v9.8
		c38.3-9.2,76.9-26.7,115.9-44.5c26.4-12,52.9-24.2,79.6-34.1v-14.4v-10.6c-26.3,10.8-52.5,24.1-78.7,37.4
		c15.1-8.8,30.3-17.5,45.3-25.7c-53.6,23.5-106.8,52.6-159.5,66.4c13.4-6.1,26.7-13.1,40-20.6c10.5-3.2,21-6.9,31.6-10.8
		c16.4-9,32.7-18.4,49-27.7c23.8-8.8,47.9-17.6,72.2-24.5v-14c-21.9,7.9-43.6,17.5-65.3,27.3C214.6,228.2,194.6,240.8,174.4,252.6z"
		/>
	<path d="M230.5,197.6c11.5-5.1,22.9-10.2,34.4-15.1c-3.7,2.7-7.5,5.5-11.3,8.3c1.6-0.6,3.2-1.2,4.8-1.8
		c13.8-7.4,27.6-14.4,41.4-20.6v-6.2c-1.7,0.5-3.3,0.9-4.9,1.4C273.6,173.6,252.1,185.4,230.5,197.6z"/>
	<path d="M351.9,146.8c-10,1.4-19.9,3.5-29.8,6l14.5,3c4.7-1,9.3-1.9,14-2.7l2.5-11.1c-2.8,0.7-5.5,1.5-8.3,2.3
		C347.1,145.1,349.5,145.9,351.9,146.8z"/>
	<path d="M115.8,236c22.5-4,45.2-11,68.2-19.1c6.2-2.2,12.4-4.5,18.7-6.8c6.4-2.9,12.9-5.7,19.3-8.7c10.9-8.3,21.7-16.5,32.5-24.4
		c-5.4,1.9-10.8,3.9-16.1,5.9c-33.2,14.6-66.2,30-99.1,40.6c-8.1,2.6-16.2,5-24.2,7c-3.5,1.3-7,2.5-10.6,3.6v8.1v0.9
		c0.7-0.4,1.4-0.9,2.2-1.3C109.6,239.9,112.7,238,115.8,236z"/>
	<path d="M271.2,260.6c-3.9,1.8-7.8,3.6-11.8,5.4c-32.2,15-64.3,31.5-96.1,45.3c5.4-1,10.8-2.1,16.2-3.3
		c-16.6,7.6-33.1,14.6-49.6,20.6c-8.5,3.1-16.9,5.8-25.4,8.2v14v2.5c0.5,0,1.4,0.1,2.6,0.2c2,0.1,4.8,0.3,8.4,0.5
		c3.2,0.2,6.9,0.4,11,0.6c26-10.8,52.1-24.2,78.3-38.1c-12.9,7.7-25.8,15.4-38.7,22.7c3-1.4,6-2.8,9.1-4.3
		c21.8-12.2,43.5-25.3,65.3-37.9c3.3,0.5,6.6,1,9.9,1.6c16.5-8.1,33-16,49.6-23v-9.3v-1.1v-4.8v-12.8c-0.9,0.7-1.8,1.3-2.7,2
		C288.5,253,279.9,256.7,271.2,260.6z"/>
	<path d="M241.1,318.4c-3.1,1.6-6.2,3.2-9.2,4.7c-19,11.3-38.1,22.8-57.2,33.7c5.7,0.2,11.1,0.4,16,0.5
		c28.1-15.2,56.3-31.3,84.5-45.8c2.1-0.1,4.2-0.2,6.3-0.4c6.1-3.1,12.2-6.2,18.4-9.1v-11c-32.7,15.2-65.4,33.8-98,51.4
		C214.9,334.4,228,326.3,241.1,318.4z"/>
	<path d="M228.4,349c5.8-1.7,11.6-3.4,17.5-5.2c-8.6,4.4-17.1,8.8-25.7,13.3c8.3-0.3,17.7-0.7,27-1.1c17.5-10.2,35.1-20.1,52.6-29.1
		v-11.1c-6.1,2.2-12.3,4.5-18.4,6.9C263.7,331,246,340,228.4,349z"/>
	<path d="M153.7,51.4c0-1.1-0.1-1.9,0-2.5l-29.6,9c10-0.1,20-1,30-2.4C153.7,54,153.7,52.6,153.7,51.4z"/>
	<path d="M111.5,121c4.5-1.2,8.9-2.5,13.4-3.9c2.6-0.8,5.2-1.7,7.8-2.6c-7,1.4-14,2.4-21,3.2C111.6,118.8,111.5,119.9,111.5,121z"/>
	<path d="M292.1,91.5c14.4-4.3,28.8-7.9,43.3-10.1c5.2-1.1,10.5-1.9,15.7-2.6l-52.3-15.9c-2.9,0.7-5.8,1.5-8.7,2.3
		c-0.5,0.1-1,0.3-1.5,0.4c0.2,0.8,0.4,1.6,0.6,2.6C290.5,74.7,291.5,82.9,292.1,91.5z"/>
	<path d="M235.2,106.9c-10.7,5.5-21.5,11.1-32.3,16.6c2.5-1,5-2,7.6-3c18.2-9,36.3-18.1,54.5-26.3c2.8,1.1,5.7,2.2,8.5,3.4
		c5.9-2,11.8-4,17.8-5.8c-0.7-8.5-1.6-16.6-2.9-23c-0.2-1-0.4-2-0.7-2.9c-2.5,0.7-5,1.4-7.5,2.2c-26.9,8-53.6,18.5-80.1,27.9
		c4.5-0.3,9-0.6,13.6-1c-13.8,5-27.6,9.9-41.4,14.2c-20.4,6.4-40.7,11.4-60.9,13.5c0,0.8-0.1,1.6-0.1,2.3c-0.4,11-2.1,17.2-3.8,20.6
		c-0.4,0.8-0.8,1.4-1.2,2c2.7-0.3,5.3-0.7,8-1.1c-3.2,1-6.4,2-9.6,2.9c-0.1,0.1-0.3,0.2-0.3,0.2v2.5c8-1,16.1-2.4,24.2-4.2
		C164,138.5,199.6,122.2,235.2,106.9z"/>
	<path d="M106.7,145.1c1.6-3.2,3.3-9.2,3.7-20.2c0-0.7,0-1.5,0.1-2.2c-3,0.3-6,0.5-8.9,0.7c3-0.7,6-1.4,9-2.2c0-1.1,0.1-2.3,0.1-3.5
		c-3.5,0.3-7,0.6-10.5,0.8c-15.9,0.7-31.8-0.6-47.6-4.6c-2.3-0.6-4.5-1.2-6.8-1.9l3.1,13.8c14.5,5.3,29,8.2,43.7,9.2
		c-6,1.8-12,3.3-18.1,4.5c-7.7-0.2-15.4-0.9-23.1-2.3l2,9c17.2,3.2,34.4,3.4,51.7,1.4C105.5,147.1,106.1,146.3,106.7,145.1z"/>
	<path d="M143,96.6c-1.7-1.1-3.5-2.2-5.2-3.3c15.7-2.5,31.5-6.5,47.4-11.3c-2.3-0.8-5.1-1.9-7.7-3.4c-2.2-1.2-4.8-3.1-7.5-5.2
		c-3,1.3-6,2.6-9,3.8c-7.2,3-14.4,5.7-21.7,8.2c-4.6,1.6-9.3,3.1-13.9,4.4c-4.1,1.2-8.3,2.3-12.5,3.3c-0.3,3.5-0.5,7-0.6,10.5
		c10.9-1.2,21.7-3.2,32.7-5.9C144.2,97.4,143.6,97,143,96.6z"/>
	<path d="M94.4,104.8c5.6-0.1,11.2-0.5,16.8-1.1c0.2-3.5,0.4-6.9,0.6-10.4c-1.6,0.4-3.1,0.7-4.7,1c-11.8,2.5-23.7,3.9-35.5,4.1
		c-9.8,0.1-19.6-0.7-29.4-2.6l0.2,1.1c6.4,2.2,12.8,3.8,19.1,5.1C72.5,104.2,83.4,105,94.4,104.8z"/>
	<path d="M271.2,54.8l-19.7-6c0,0.2,0,0.5,0,0.8c0,2.7-0.8,7.5-4,12.4C255.4,59.4,263.3,57,271.2,54.8z"/>
	<path d="M139.5,174.9c1.2,0.7,2.5,1.3,3.7,1.9c19.6-6,39.2-13.6,58.9-21.8c3.5-1.7,7-3.4,10.5-5.2c26.6-12.1,53.2-24.5,79.9-34.1
		c-0.1-2.6-0.2-5.3-0.3-8.1c-19.7,6.9-39.3,15.4-58.9,24.1c11-5.8,22-11.4,33-16.8c-2.6,1-5.2,2-7.8,3
		c-18.5,8.9-37.1,18.5-55.7,27.8c-2.7-1.1-5.4-2.3-8.1-3.4c-20.7,8-41.2,15.4-61.7,20.5c-9.6,2.9-19.1,5.4-28.7,7.3v10.2
		c18.3-3.2,36.6-8.6,55-15.3C152.8,168.5,146.2,171.8,139.5,174.9z"/>
	<path d="M293.1,107.4c0.1,2.8,0.2,5.5,0.3,8.1c0.7-0.2,1.3-0.5,2-0.7c1.8,0.3,3.6,0.6,5.4,0.9c20.4-7.1,40.8-12.3,61.2-14.4
		l1.3-5.9c-1.3,0.1-2.7,0.1-4,0.2c1.4-0.3,2.8-0.5,4.2-0.8l0.6-2.9c-6.9,0.3-13.7,0.9-20.6,1.9C326.6,96.7,309.8,101.5,293.1,107.4z
		"/>
	<path d="M220.1,178.2c12.6-6.3,25.1-12.7,37.7-18.7s25.2-11.8,37.7-16.9c-1-3-1.9-7.3-2.4-13.3c-12.3,4-24.6,8.4-36.8,13.2
		c4.9-0.7,9.9-1.3,14.9-2c-28.9,10.8-57.5,23.6-86,34.6c-0.6,0.4-1.1,0.7-1.7,1.1c-2.9,1-5.8,1.9-8.8,2.9c-7.6,2.8-15.2,5.5-22.8,8
		c-4.3,3.1-8.5,6.1-12.8,9.1c-11.7,2.8-23.3,4.8-34.8,6v11.7c8.5-0.9,17-2.4,25.6-4.2C159.8,202.3,189.9,190.4,220.1,178.2z"/>
	<path d="M354,118.6c-9.2,0.7-18.3,2-27.4,3.7c-8.5,1.1-17,2.7-25.5,4.4c-2.4,0.7-4.8,1.5-7.1,2.2c0.5,6.1,1.4,10.4,2.4,13.3
		c14.7-5.9,29.3-11,44-14.7c-1,0.8-2.1,1.6-3.1,2.4c-3.6,2.8-7.3,5.6-11,8.6c3.6-1,7.3-2,10.9-2.9c-0.8-0.3-1.7-0.6-2.5-0.9
		c6.9-1.6,13.8-2.8,20.7-3.8l2.6-11.8c-4.1,0.4-8.3,0.9-12.4,1.6C348.4,120,351.2,119.3,354,118.6z"/>
	<path d="M585,253.4c-20.2-12.3-40.2-25.4-60.2-38.1c-25.6-12.1-51.3-23.9-77.2-32.7v15.5c28.3,7.6,56.4,18.3,84.1,29
		c16.3,9.7,32.7,19.6,49,29c10.6,4.1,21.1,7.9,31.6,11.3c10.2,6,20.4,11.7,30.7,16.9v-5.8c-6.2-2.3-12.4-4.8-18.7-7.4
		c6.2,1.8,12.5,3.4,18.7,4.8V262c-16.1-4.3-32.3-10.1-48.5-16.6C591.4,248,588.2,250.7,585,253.4z"/>
	<path d="M414.7,140.3c-4.2-1.3-8.4-2.5-12.6-3.6c-2.1-0.3-4.2-0.6-6.3-0.8l2.5,11.3c1.9,0.5,3.9,1,5.8,1.5c7,1.1,14,2.5,21.1,4.2
		L440,150c-10.8-2.9-21.7-5.3-32.5-7C409.9,142.1,412.3,141.2,414.7,140.3z"/>
	<path d="M505.7,188.8c-3.8-2.9-7.5-5.8-11.3-8.6c11.5,5.1,23,10.4,34.4,15.8c-21.6-12.7-43.1-25-64.5-35.4
		c-3.7-1.1-7.4-2.2-11.1-3.3c-1.9-1.4-3.8-2.7-5.7-4.1v6.9c17.7,7.7,35.5,17,53.3,26.9C502.5,187.6,504.1,188.2,505.7,188.8z"/>
	<path d="M521.1,180.7c-5.4-2.1-10.7-4.1-16.1-6.1c10.7,8.3,21.6,16.8,32.5,25.5c6.5,3,12.9,6.1,19.3,9c6.2,2.4,12.5,4.8,18.7,7.1
		c22.7,8.4,45.2,15.6,67.6,19.8v-5.9c-7.6-2-15.2-4.3-22.9-6.9C587.4,211.9,554.3,195.9,521.1,180.7z"/>
	<path d="M579.9,311.2c5.4,1.2,10.8,2.4,16.2,3.4c-31.9-14.4-63.9-31.6-96.1-47.2c-3.9-1.9-7.8-3.8-11.8-5.6
		c-8.6-4.1-17.3-8-26-11.6c-4.6-3.6-9.2-7.1-13.8-10.5c-0.3-0.1-0.5-0.2-0.8-0.3v17c0.8,0.3,1.7,0.7,2.5,1c-0.8,0.1-1.7,0.3-2.5,0.4
		v1.7v2.6v9.9c20.6,8.5,41.1,18.6,61.5,29.1c3.3-0.5,6.7-1.1,9.9-1.6c21.7,13.2,43.5,26.8,65.3,39.6c3,1.5,6,3,9.1,4.5
		c-12.9-7.6-25.8-15.6-38.7-23.7c22.8,12.7,45.6,25,68.4,35.4c3.2-0.7,6.3-1.1,9.4-1.3c7.2-0.4,9.7-0.7,10.4-0.9v-1.9v-13.8
		c-4.5-1.5-9-3.1-13.4-4.8C613,326.4,596.5,319.1,579.9,311.2z"/>
	<path d="M538.2,246.3c-30.1-15.9-60.3-31.9-90.6-44v11.4v15.2c30.7,10.9,61.2,25.6,91.5,40c34.9,16.6,69.6,33,103.9,43.1v-12
		c-0.1,0-0.2-0.1-0.3-0.1c0.1,0,0.2-0.1,0.3-0.1v-13.7c-49.6-15.2-99.7-43.5-150.2-66.6C507.9,228,523,237.2,538.2,246.3z"/>
	<path d="M518.3,322c13.1,8.3,26.2,16.8,39.4,25.1c-36.6-20.7-73.2-42.5-110-59.3v11.3c10.1,4.8,20.2,9.9,30.3,15.3
		c2.1,0.1,4.2,0.2,6.3,0.4c31.6,16.9,63.1,36,94.6,53.5c3.8-1,7.5-2,11.1-3.1c-20.8-12.2-41.6-25.3-62.4-38.2
		C524.4,325.3,521.4,323.7,518.3,322z"/>
	<path d="M447.7,332.2c0.5,0.2,1,0.5,1.5,0.7c-0.5-0.5-1-0.9-1.5-1.4V332.2z"/>
	<path d="M531,354c-17.6-9.4-35.3-18.8-53-27.5c-10-4.1-20-8-30.1-11.5c-0.1,0-0.2-0.1-0.2-0.1v9.8c27.4,14,54.8,30.6,82.2,47.5
		c4.4,0.5,9,0.7,13.7,0.7c0.5,0,1.1,0,1.6,0c4.1-0.1,8.1-0.3,12-0.7c-14.5-7.8-29.1-15.7-43.7-23.5C519.4,350.4,525.2,352.2,531,354
		z"/>
	<path d="M659.3,113.5c-7-0.3-14-1.1-21.1-2.2c0,0.6,0.1,1.2,0.1,1.9c6.5,2.1,13.1,3.9,19.6,5.4c-6.5-0.4-13-1.1-19.5-2.1
		c0.1,2.8,0.2,5.6,0.3,8.1v1.2c0.4,11.6,2.3,17.6,4,20.7c8.7,1.6,17.4,2.7,26,3.2c3.4,0.9,6.8,1.6,10.2,2.3c2.1,0.1,4.2,0.1,6.3,0.2
		c-13.5-1.8-26.9-5.2-40.2-9.7c17.4,2.9,34.7,3.6,51.9,1.3l2.1-9.5c-4.7,0.6-9.4,0.9-14.1,1c-6-1.3-12.1-2.9-18.1-4.7
		c11.6-0.8,23.1-2.9,34.5-6.4l3.3-15C689.6,113,674.5,114.2,659.3,113.5z"/>
	<path d="M455.3,81.7c1.2-9.7,3-17.7,5.7-21.8l-44,13.5c2.3,0.4,4.7,0.9,7,1.3C434.4,76.4,444.9,78.8,455.3,81.7z"/>
	<path d="M637.2,112.8c0-0.6,0-1.1-0.1-1.7c-3.5-0.5-6.9-1.2-10.4-1.9c2.6,0.9,5.2,1.8,7.8,2.7C635.4,112.3,636.3,112.5,637.2,112.8
		z"/>
	<path d="M485.9,91.5c2.9-1.2,5.7-2.3,8.5-3.5c18.1,8.6,36.3,18.1,54.5,27.5c2.5,1,5.1,2.1,7.6,3.1c-10.8-5.7-21.5-11.6-32.3-17.3
		c35.7,16,71.2,32.9,106.7,42.7c3.5,0.8,7,1.6,10.5,2.2c-1.7-3.5-3.3-9.6-3.7-20.3v-1.2c-0.1-2.6-0.2-5.5-0.3-8.4
		c-16.7-2.6-33.4-7.2-50.2-12.6c-13.7-4.5-27.5-9.6-41.4-14.8c4.5,0.4,9.1,0.8,13.6,1.1c-26.5-9.8-53.2-20.8-80.1-29.1
		c-3.3-1-6.6-2-9.9-3c-0.2-0.1-0.4-0.1-0.7-0.2l-6.2,1.9c-0.1,0.2-0.2,0.4-0.3,0.5c-2.8,3.7-4.6,12-5.8,21.9
		C466.2,84.7,476,88,485.9,91.5z"/>
	<path d="M621.6,87.1c-1.7,1.2-3.4,2.3-5.2,3.5c-0.6,0.4-1.3,0.8-1.9,1.2c7.3,1.9,14.6,3.4,21.8,4.6c-0.3-4.3-0.6-8.5-1.1-12.6
		c-0.4-0.1-0.8-0.2-1.2-0.4c-4.7-1.4-9.3-3-13.9-4.6c-7.2-2.6-14.5-5.5-21.7-8.6c-16.9-7.2-33.7-15.5-50.5-24c-1,0-2.1,0-3.1,0
		c-3,0-6,0-8.9,0.1c3.3,2.5,6.6,4.9,9.9,7.4c-6.4-2.4-12.9-4.8-19.3-7.1C515.4,47,506,47.7,500.9,48l-1.6,0.2l-3.3,1
		c5.4,1.7,10.8,3.4,16.2,5.2C549.2,66.8,585.6,81.1,621.6,87.1z"/>
	<path d="M687.8,92.6c-11.9-0.1-23.7-1.7-35.5-4.3c-5.3-1.2-10.6-2.5-15.9-4.1c0.4,4,0.8,8.2,1.1,12.4c9.2,1.5,18.4,2.4,27.6,2.5
		c11,0.2,21.9-0.7,32.8-2.9c3.4-0.7,6.9-1.5,10.3-2.5l0.6-2.5C701.7,92.2,694.8,92.7,687.8,92.6z"/>
	<path d="M694,157.3l0.2-0.8c-0.3,0-0.5,0-0.8,0C693.6,156.8,693.8,157,694,157.3z"/>
	<path d="M564.6,138.4c-2.7,1.2-5.4,2.4-8.1,3.6c-18.6-9.7-37.2-19.8-55.7-29c-2.6-1.1-5.2-2.1-7.8-3.1c11,5.6,22,11.5,33,17.5
		c-23.7-11-47.4-21.6-71.2-29.5c-0.2,3.7-0.5,7.4-0.6,11.1c1.5,0.5,3,1,4.4,1.6c1.8-0.3,3.6-0.6,5.4-0.9
		c27.6,10.2,55.2,23.6,82.7,36.6c3.5,1.8,7,3.6,10.5,5.4c19.7,8.5,39.3,16.5,58.9,22.7c1.3-0.7,2.5-1.3,3.7-2
		c-6.6-3.2-13.3-6.7-19.9-10.2c14.4,5.4,28.8,10.1,43.1,13.5v-10.9c-5.6-1.4-11.2-3.1-16.8-4.9C605.8,154.4,585.3,146.8,564.6,138.4
		z"/>
	<path d="M453.9,97.5c-12.6-4.2-25.2-7.5-37.9-9.8c-10.4-1.5-20.9-2.3-31.3-2.1l0.3,1.5c5.1,0.6,10.1,1.4,15.2,2.4
		c-4.9-0.3-9.8-0.5-14.7-0.4l1.2,5.5c22.2,1,44.4,6.3,66.6,13.9C453.4,104.9,453.6,101.2,453.9,97.5z"/>
	<path d="M422.2,131.3c3.6,0.9,7.3,1.9,10.9,3c-3.7-3.1-7.4-6.1-11-9c-1-0.8-2.1-1.6-3.1-2.5c11,2.9,22,6.6,33,10.9
		c0.3-2.3,0.5-4.9,0.6-7.9v-1.2c0-1.2,0.1-2.5,0.1-3.8c-6.6-1.4-13.3-2.5-20-3.5c-9.1-1.8-18.2-3.1-27.4-3.9
		c2.8,0.7,5.6,1.4,8.4,2.2c-7.6-1.2-15.3-2.1-23-2.4l2.6,11.8c10.4,1,20.9,2.8,31.3,5.2C423.9,130.7,423.1,131,422.2,131.3z"/>
	<path d="M607.4,185.1c-7.6-2.6-15.2-5.4-22.8-8.3c-2.9-1-5.8-2-8.8-3c-0.6-0.4-1.1-0.8-1.7-1.2c-28.5-11.6-57.2-24.9-86-36.2
		c5,0.6,10,1.3,14.9,2c-14.9-6-29.8-11.7-44.7-16.4c-1.5-0.3-3.1-0.6-4.6-1c0,1.2-0.1,2.4-0.1,3.6v1.2c-0.1,3.1-0.3,5.8-0.6,8.2
		c16.2,6.4,32.4,13.9,48.7,22.1c12.6,6.3,25.1,12.9,37.7,19.5c30.3,12.7,60.3,25.2,90.1,33c4.6,1,9.2,1.9,13.7,2.7v-12.1
		c-7.6-1.2-15.3-2.8-22.9-4.7C615.9,191.5,611.6,188.3,607.4,185.1z"/>
</g>
</svg>
