<?xml version="1.0" encoding="utf-8"?>
<!-- Generator: Adobe Illustrator 25.3.0, SVG Export Plug-In . SVG Version: 6.00 Build 0)  -->
<svg version="1.1" id="Layer_1" xmlns="http://www.w3.org/2000/svg" xmlns:xlink="http://www.w3.org/1999/xlink" x="0px" y="0px"
	 viewBox="0 0 750.2000122 400.1000061" style="enable-background:new 0 0 750.2000122 400.1000061;" xml:space="preserve">
<style type="text/css">
	.st0{fill:none;stroke:#000000;stroke-width:0;stroke-linecap:round;stroke-linejoin:round;}
</style>
<g>
	<path d="M432.453064,142.5073547l18.7095337-3.7700195c-0.463501,2.2977295-1.0009766,4.1345215-1.555481,5.5907593
		c1.3637085-3.5043335,2.6558838-9.2044678,2.9710083-18.4267578l0.0410156-1.2114258
		c0.1797485-5.2767334,0.3818359-11.1003418,0.6665039-17.0476685l-9.7506714-42.4241333l-26.946167,8.2393188
		L432.453064,142.5073547z"/>
	<polygon points="92.0172119,151.0960388 92.019165,151.1045837 103.7509155,148.7286072 103.7556152,148.7264099 
		103.8251953,148.6874084 103.7999878,148.6999817 	"/>
	<path d="M108.8725586,138.405304c0.7380371-3.3425903,1.3175049-7.7307129,1.5144653-13.5042114
		c0.1661987-4.8536377,0.3521729-10.4290771,0.6112671-16.2579346l-10.149353-43.9221191l-26.87854,8.1185303l15.9248657,69.0549316
		l19.0541992-3.8395386C108.9242554,138.174408,108.8981934,138.2884827,108.8725586,138.405304z"/>
	<path d="M106.5326538,145.3357239c0.045166-0.0870972,0.0899048-0.1685181,0.1353149-0.2600098
		c0.1085205-0.2185059,0.2177124-0.4522095,0.3270264-0.6967163c-0.0984497,0.2176514-0.1969604,0.4248657-0.2949829,0.6209717
		C106.644104,145.1187439,106.5884399,145.2246399,106.5326538,145.3357239z"/>
	<path d="M305.5772705,64.9255676l-12.0953979,52.659668c0.0877075,2.4441528,0.1671753,4.791687,0.2423096,6.9857788
		c0.3731079,10.9356689,2.1124878,16.9404297,3.7190552,20.1746216c0.6863403,1.3825684,1.3456421,2.2570801,1.8653564,2.8052368
		c-0.4915161-0.5917358-1.1486206-1.4310303-1.8085327-2.7508545c-0.7606812-1.5689087-1.5423584-3.7584839-2.1978149-6.7841797
		l21.3258057,4.2972412l15.9022827-69.1962891L305.5772705,64.9255676z"/>
	<path d="M657.9588013,141.794281l16.3027954-69.3477783l-26.9758911-8.1451416l-9.3978271,39.894104
		c0.3746338,7.1316528,0.6174316,14.1743164,0.8297729,20.4090576l0.0410156,1.2114258
		c0.3807373,11.1416626,2.1871948,17.1485596,3.8234253,20.3448486c-0.8746338-1.7143555-1.7903442-4.2629395-2.5115967-7.9710693
		L657.9588013,141.794281z"/>
	<path d="M643.6460571,147.9159851c0.157959,0.2184448,0.3120117,0.4205933,0.4558716,0.5896606l11.7667236,2.1796265
		l0.0025024-0.0107422l-11.7711182-2.1745605C643.9564209,148.3323669,643.8031006,148.1322327,643.6460571,147.9159851z"/>
	<path d="M299.7954102,271.8999939h0.0046387l0.0999756-122.5c-0.5-0.2999878-1.8999634-1.2999878-3.2000122-4
		c-1.1989136-2.3977661-2.3955688-6.1981812-3.1384888-12.0827026v4.3477783v216.2028198l4.0335693-0.2105713
		C299.1521606,353.3661194,300,353.1999817,300,353.1999817L299.7954102,271.8999939z"/>
	<path d="M110.8845215,137.6650696v-6.4556274c-0.7022095,7.1624146-2.0419922,11.6055298-3.3845215,14.2905273
		c-1.2999878,2.6000366-2.5999756,3.6000366-3.2000122,4l0.1000366,203.7000122c0.0999756,0,0.1999512,0,0.2999878,0v0.1000366
		c0,0,0.5305786,0.1165161,1.5144653,0.3240967l4.6700439,0.2437744V137.6650696z"/>
	<path d="M453.4835205,128.6298523l-0.00354,0.0007935c-0.7894897,13.9390259-3.99823,19.1817017-5.8799438,20.9693604
		l0.0999756,203.5999756c0,0,0.1000366,0,0.2000122,0v0.1000366c0.1000366,0,0.2999878,0.0999756,0.6000366,0.0999756
		c0,0,1.7799072,0.9077759,4.9834595,2.369751V128.6298523z"/>
	<path d="M643.3000488,271.8000183h-0.2000122l0.0999756-122.9000244c-1.857666-2.229187-4.5749512-7.5758667-5.3533936-20.1833496
		l-0.3799438-0.086853v9.0352783v217.9844971c3.6703491-1.5683594,5.7333984-2.5495605,5.7333984-2.5495605L643.3000488,271.8000183
		z"/>
	<path d="M432.453064,142.5073547l-33.6521606,6.7810669l1.8991089,8.5115967l46.5-9.1000366
		c0.6947021-0.8104858,1.567627-2.1670532,2.4071045-4.3718872c0.5545044-1.4562378,1.09198-3.2930298,1.555481-5.5907593
		L432.453064,142.5073547z"/>
	<path d="M104.5999756,148.1000061c0.4650879-0.4650879,1.1899414-1.2852173,1.9326782-2.7642822
		c0.0557861-0.111084,0.1114502-0.21698,0.1673584-0.3357544c0.0980225-0.196106,0.1965332-0.4033203,0.2949829-0.6209717
		c0.6557617-1.4491577,1.3121948-3.397644,1.8775635-5.9736938c0.0256348-0.1168213,0.0516968-0.230896,0.0769043-0.3503418
		l-19.0541992,3.8395386l-35.8588257,7.225708l2.0635376,9.2797852l35.9172363-7.3039551l11.7827759-2.3960571l0.0252075-0.0125732
		L104,148.6000061C104.0999756,148.4999695,104.4000244,148.3999939,104.5999756,148.1000061z"/>
	<path d="M297.500061,144.8000183c0.6599121,1.3198242,1.3170166,2.1591187,1.8085327,2.7508545
		c0.1043701,0.1256104,0.2039185,0.2440796,0.2914429,0.3491211c0.2999878,0.2999878,0.5,0.4000244,0.6000366,0.5
		l0.2000122,0.1000366l49,10l2.0253296-9.1751709l-34.7973633-7.0117798l-21.3258057-4.2972412
		C295.9577026,141.0415344,296.7393799,143.2311096,297.500061,144.8000183z"/>
	<path d="M657.9588013,141.794281l-17.8883057-3.6045532c0.7212524,3.7081299,1.6369629,6.2567139,2.5115967,7.9710693
		c0.3693848,0.7241211,0.7287598,1.2935791,1.0639648,1.755188c0.1570435,0.2162476,0.3103638,0.4163818,0.4539795,0.5839844
		l11.7711182,2.1745605l38.0288696,7.0254517l1.8521729-8.2901611L657.9588013,141.794281z"/>
	<line class="st0" x1="643.2999878" y1="161.6999817" x2="643.2999878" y2="166.6000061"/>
</g>
</svg>
