<?xml version="1.0" encoding="utf-8"?>
<!-- Generator: Adobe Illustrator 25.3.0, SVG Export Plug-In . SVG Version: 6.00 Build 0)  -->
<svg version="1.1" id="Layer_1" xmlns="http://www.w3.org/2000/svg" xmlns:xlink="http://www.w3.org/1999/xlink" x="0px" y="0px"
	 viewBox="0 0 750.2000122 400.1000061" style="enable-background:new 0 0 750.2000122 400.1000061;" xml:space="preserve">
<g>
	<path d="M300.1373901,149.865509l-0.0610352-0.0648804c-0.0361328-0.039856-7.503418-7.9760742-10.5715332-22.1268311
		c-1.137207-5.2527466-2.6965332-13.7710571-5.7175903-22.9706421
		c-28.5055542,0.3076172-66.0687866-2.7208862-80.5373535,14.3306885l-0.0754395,0.2369385l-0.1043701-0.3276978
		c-14.5852051-17.0049438-53.4746094-13.7797852-82.2780151-14.2221069
		c-3.0172119,9.192627-4.5753174,17.7034912-5.711853,22.9528198c-2.8190918,13.0024414-9.3376465,20.7388916-10.4074707,21.9429932
		l0.0018311,4.2138062c14.7862549-2.1184692,45.2374878-5.7421875,69.6380005-3.0656738
		c4.2420044,0.4014282,8.3704224,1.0703735,12.3019409,2.0665283c3.0443115,0.7283936,5.8872681,1.6124878,8.475647,2.6691895
		c3.0354004,1.1266479,5.725647,2.605835,7.9786987,4.4955444c2.2530518-1.8897095,4.9432373-3.3688965,7.9786377-4.4955444
		c23.6925049-9.6724854,69.0370483-4.6760254,89.2004395-1.8424072l0.0037231-3.7373047L300.1373901,149.865509z"/>
	<path d="M203.2243652,160.1212463c2.6665039-2.2422485,6.0401611-3.9877319,9.9274292-5.3255005
		c-0.7171021,0.21875-1.4208984,0.4512939-2.1043091,0.704895c-3.0496826,1.2450562-5.7424927,2.7316895-7.9744873,4.4989014
		C203.1224365,160.0410461,203.175354,160.0793762,203.2243652,160.1212463z"/>
	<path d="M203.0547485,160.0074768c0.0032349-0.0026855,0.0066528-0.005249,0.0098877-0.0079346
		c-2.2319946-1.7672119-4.9248047-3.2538452-7.9744873-4.4989014c-0.7477417-0.2774658-1.5193481-0.5303955-2.307373-0.7661743
		C196.482666,156.1062317,199.9353027,157.8431091,203.0547485,160.0074768z"/>
	<path d="M203.05896,160.0102844c0.0545044,0.0378418,0.111145,0.072876,0.1654053,0.1109619
		c-0.0502319-0.0404663-0.1047974-0.0783081-0.1555176-0.1184692
		C203.0656128,160.0053406,203.0621948,160.0077209,203.05896,160.0102844z"/>
	<path d="M203.2498779,119.033844l11.4018555-35.8083496c-0.6641846,0.177124-1.0681763,0.2783203-1.071228,0.2793579
		l-0.5026855,0.124939l-0.0124512-0.0597534c-3.7580566,0.942627-7.5652466,1.4649658-11.3775024,1.4660034
		c-0.3684082,0-0.7366943-0.0047607-1.1046143-0.0142212c-2.8934326-0.0754395-5.6916504-0.4794312-8.40979-1.1422119
		l-0.0211182,0.0962524l-0.2300415-0.0431519l11.1477661,35.010376l0.1043701,0.3276978L203.2498779,119.033844z"/>
</g>
</svg>
