<?xml version="1.0" encoding="utf-8"?>
<!-- Generator: Adobe Illustrator 25.3.0, SVG Export Plug-In . SVG Version: 6.00 Build 0)  -->
<svg version="1.1" id="Layer_1" xmlns="http://www.w3.org/2000/svg" xmlns:xlink="http://www.w3.org/1999/xlink" x="0px" y="0px"
	 viewBox="0 0 750.2 400.1" style="enable-background:new 0 0 750.2 400.1;" xml:space="preserve">
<style type="text/css">
	.st0{fill:none;}
	.st1{fill:none;stroke:#000000;stroke-width:0;stroke-linecap:round;stroke-linejoin:round;}
</style>
<g>
	<path class="st0" d="M122.8,261c0.1-0.1,0.3-0.1,0.4-0.2c-0.1,0-0.3-0.1-0.4-0.1C122.8,260.7,122.8,260.8,122.8,261z"/>
	<polygon class="st0" points="151.3,130.4 151.3,130.4 151.3,130.4 	"/>
	<path class="st0" d="M345,261.5c0.3,0.1,0.5,0.4,0.7,1.2c0,0.9-1.1,1.7-0.6,2.7h0c0.4,0.1,0.8,0.1,1.2,0.2c2.3,0,4.2-0.4,3.5-2.7h0
		c-1.4,0-2.7-0.1-4.1-0.1C345.5,261.9,345.2,261.6,345,261.5z"/>
	<path class="st0" d="M400.1,276.8c0.3,0,0.5,0,0.8,0c0.9,0.1,1.4-0.1,1.4-0.9c0-0.6-0.4-1.4,0.6-1.9c-0.3-1.3-1.7-1.8-2.6-1.2
		c-1.5,0.9-4.8,0.8-4.4,3.1c0.1,0.2,0.2,0.5,0.3,0.8C397.4,276.7,398.8,276.8,400.1,276.8z"/>
	<path class="st0" d="M418.5,146.3c-0.1,0-0.1,0-0.2,0C418.4,146.3,418.4,146.3,418.5,146.3z"/>
	<path class="st0" d="M406.7,265.6c1-0.7,3.2,0.8,3.2-1.4c0-2.8-2.6-1.3-4-1.5c-1.2-0.2-3.2-0.7-3.1,1.4
		C403,266.7,405.5,264.8,406.7,265.6z"/>
	<path class="st0" d="M331.2,165.8c-0.2,0-0.5-0.1-0.7-0.1c0,0.1,0.1,0.3,0.1,0.4c0.1,0.3,0.2,0.7,0.3,1c-0.8,0.1-1.8-0.2-2.4,0.8
		c1.2,0.1,2.4,1.8,3.2-0.3c1-0.6,0.6-1.4,0.4-2.1C331.8,165.6,331.5,165.7,331.2,165.8z"/>
	<path class="st0" d="M324.1,160c-0.1,0-0.3,0.1-0.5,0.3c0.2,0.2,0.4,0.4,0.6,0.6c0.5,0.3,0.5-0.1,0.5-0.3
		C324.6,160.3,324.3,160.2,324.1,160z"/>
	<path class="st0" d="M344.8,261.5c0.1,0,0.1,0,0.2,0C344.9,261.5,344.8,261.5,344.8,261.5z"/>
	<path d="M133.9,265.6c0.1,0,0.1,0,0.2,0l1.5-8.5c-2.4,0-4.7,0-7.1-0.1c-3-0.1-3.9,0.7-3.7,2.8c1.8,0.4,3.9,0.5,4.5,2.5
		c-1.2,0.5-1.4-0.2-1.8-0.7c-0.3-0.4-0.7-0.7-1.4-0.5c-4.8,1.7-5.9,1.9-9.4,0.9c-0.1,1.2-0.3,2.4-0.4,3.5c0.7,0,1.4,0,2.2,0
		C123.6,265.5,128.7,265.4,133.9,265.6z"/>
	<path d="M131.1,270.9c-0.7,0-1.4-0.1-2.1-0.1c-2.7-0.4-5.3,0.9-8.1,0.3c-0.9,0.7-3.5-0.4-3,1.7c0.4,1.9,2.4,1.2,3.8,1.3
		c3.2,0.1,6.5-0.4,9.4,1.2c0-1,0.8-1.1,1.6-1.1l0.5-2.7c-0.2,0-0.4-0.1-0.6-0.1C131.9,271.2,131.5,271,131.1,270.9z"/>
	<path d="M331.4,133.8c-6.6,0-13.2,0-19.8,0.1l0.5,2.6c1.5,0,3.1-0.1,4.6-0.1c0.9,0,1.2,0.5,1.1,1.1c-0.5,2.1,1.2,2.1,3.1,2
		c2.5-0.1,5.1,0.2,7.6,0c3.4-0.3,3.9,0.9,3.1,3.1c-1.7-0.5-3.4-0.1-5.1-0.2c-0.6,0-1.5-0.1-1.5,0.4c0.2,4.1-3.7,2.2-5.9,2.3
		c-1.9,0.1-5.3,1.3-4.9-2.2c0-0.4-0.5-0.4-1.1-0.5l1,5.6c4.7,0,9.5,0,14.2,0c0.1-1.5,0.1-3.1,2.9-2.8c0.2,0,0.5-0.7,0.8-1.1
		c-0.1-0.5-0.2-0.9-0.3-1.4c0.6-0.2,1.2-0.3,1.6-0.3C332.6,139.3,332,136.5,331.4,133.8z"/>
	<path d="M155.3,139.5c0.3-0.2,0.5-0.4,0.8-0.5l1.3-7.3c-2-0.1-3.9-0.7-5.9-0.8c0,0,0,0,0-0.1c0-0.1-0.1-0.3-0.1-0.4l0,0
		c-1.8,0.9-5.5,0.2-4.9,3.3c3.4-0.4,4.1,0.9,3.4,3.2c0.4,0.9,0.4,1.8,0.1,2.7C151.7,139.6,153.5,139.5,155.3,139.5z"/>
	<path d="M152.2,142c-4.6-0.3-9.2,0.7-13.8,0.3c-0.4,1.8-0.8,3.7-1.2,5.6c1.7,0,3.4-0.2,5-0.9c0.9-1.3,1.9-1.9,4-1.9
		c2.9,0.1,5.8,0.1,8.7,0.1l0.5-2.9C154.4,142.2,153.3,142.1,152.2,142z"/>
	<path d="M341.9,184.3c-6.3,0-12.6,0-18.9,0c-0.8,0-1.8,0-1.7-0.9c0.2-1.5-0.5-1.8-1.5-1.9l2,11.3c7.2,0,14.5,0,21.7-0.1
		C343,189.9,342.5,187.1,341.9,184.3z"/>
	<path d="M348.2,217.9C348.2,217.9,348.2,217.9,348.2,217.9c-2.4,0.5-1.7-1.1-1.9-2c-0.2-1.1,0.6-2.3-0.6-3.4c-6.8,0-13.7,0-20.5,0
		l0.5,2.7c3.9,0,7.7,0,11.6,0c1.4,0,1.8,0.4,1.8,1.4c-0.1,1.1-0.6,1.4-1.9,1.3c-2.9-0.1-5.8,0-8.7,0c-0.8,0-1.5,0-2.3,0l0.5,2.8
		c7.3,0,14.7,0,22,0C348.6,219.8,348.4,218.9,348.2,217.9z"/>
	<path d="M331.3,159.7c-0.2,0-0.3-0.4-0.4-0.6c-0.6,0.1-1.2,0.1-1.7,0.2c-0.8,0.2-1.6,0.2-2.3-0.3c-1.6-0.2-3.1,0.6-4.6,0
		c-1.5,0-2.9,1.6-4.6,0.2c-0.3,0-0.7-0.1-1-0.1c-0.2,0.1-0.4,0.1-0.6,0.2l0.4,2.3c2.4-0.1,4.8-0.1,7.1,0.3c0.4,0,0.7-0.1,1.1-0.1
		c1.3-0.1,2.5-0.3,3.8,0.1c0.6,0,1.2,0,1.8,0c0.6-0.3,1.1-0.3,1.7,0c0.7,0,1.4,0,2,0.1c1.3-1.1,2.2-1.3,3.3-0.7
		c-0.1-0.7-0.3-1.4-0.4-2.1c-1.6,0-3.3-0.1-4.9-0.1C331.9,159.4,331.8,159.7,331.3,159.7z M324.2,160.9c-0.2-0.1-0.4-0.4-0.6-0.6
		c0.2-0.1,0.5-0.3,0.5-0.3c0.2,0.1,0.5,0.3,0.6,0.5C324.7,160.7,324.7,161.1,324.2,160.9z"/>
	<path d="M338.6,173c-0.9,0-1.8,0-2.6,0c-1.4-1.1-0.8-2.5-0.3-3.7c0.5-1.1,0.6-1.9-1.1-2.3c-1.7-3.1-5.1-2.3-8.3-2.2
		c-3.1,0-6.2,0-9.3-0.1l0.5,2.7c0.4,0,0.8,0,1.1,0c2.7-0.1,3.4,0.5,2.7,2.4c1.5,1,3.3,0.2,5,0.4c1.2,0.1,2.2,0,2.2,1.4
		c0,1.3-0.8,1.5-2.1,1.4c-2.6,0-5.2,0-7.9,0l0.5,2.8c0.6-0.1,1.2,0,1.8,0c6.5,0,13,0,19.5,0c-0.3-1.5-0.6-3-0.9-4.4
		C339,171.8,338.8,172.4,338.6,173z M331.7,167.6c-0.9,2.2-2,0.4-3.2,0.3c0.7-1,1.7-0.7,2.4-0.8c-0.1-0.3-0.2-0.7-0.3-1
		c0-0.1-0.1-0.3-0.1-0.4c0.2,0,0.5,0.1,0.7,0.1c0.3-0.1,0.6-0.3,0.9-0.4C332.3,166.2,332.7,167,331.7,167.6z"/>
	<path d="M333.8,150.6c-6.4,0-12.9,0-19.3,0l0.5,2.9c0.9,0,1.7,0,2.6,0c1.8,0,4.2-0.6,3.8,2.1c-0.1,0.9,1.1,0.8,1.8,0.8
		c4.4,0,8.7,0,13.1,0c-0.4-1.9-0.8-3.8-1.2-5.7C334.6,150.6,334.2,150.6,333.8,150.6z"/>
	<path d="M350.2,229.2c-0.2-0.9-0.3-1.9-0.5-2.8c-7.3,0-14.7,0-22-0.1l0.5,2.9c6.3,0,12.6,0,18.9-0.1
		C348.1,229.2,349.1,229.2,350.2,229.2z"/>
	<path d="M126.6,226.4c-1.1-0.1-1.9,0.2-1.8,1.2c0.1,0.8,0.1,1.7,1.6,1.7c4.2,0,8.5,0,12.7,0.1c0.4,0,0.8,0,1.3,0l0.6-3.5
		C136.1,226.1,131.4,226.8,126.6,226.4z"/>
	<path d="M331.6,248.8c7.2,0,14.4,0,21.7,0c-0.3-1.8-0.5-3.6-0.8-5.5c-7.3,0-14.5,0-21.8,0L331.6,248.8z"/>
	<path d="M344.7,198.4c-0.2-1-0.4-2-0.6-3c-7.3,0-14.5,0-21.8,0l0.5,2.9c3.7,0,7.4,0,11.1,0C337.5,198.4,341.1,198.4,344.7,198.4z"
		/>
	<path d="M342,236.2c-1.9-0.3-4.3-0.7-5.4,1.4c5,0,10,0,15,0c-0.1-0.9-0.3-1.8-0.4-2.7c-4.4,0-8.9,0-13.3,0c-0.8,0-1.7-0.1-2.1,0.6
		c4.6,0.4,9.4-0.3,14,0.8C347.1,236.5,344.6,236.6,342,236.2z"/>
	<path d="M134,206.8c1.1,0,2.2,0,3.2,0c0.6-0.2,1.1-0.3,1.6,0c1.1,0,2.1,0,3.2,0c0.4,0,0.7,0,1.1,0c0.4,0,0.8,0,1.1,0l0.5-2.9
		c-3.8,0-7.7,0-11.5,0c-2.4,0-4.8,0-7.2,0c-0.2,1-0.4,1.9-0.5,2.9C128.3,206.8,131.1,206.8,134,206.8z"/>
	<path d="M139.3,235.3l0.1-0.3c0,0,0,0-0.1,0C139.3,235.1,139.3,235.2,139.3,235.3z"/>
	<path d="M333.4,236.1c-0.1-0.4-0.2-0.7-0.4-1.1c-0.5-0.1-1-0.1-1.4-0.2c-0.4,0-0.8,0-1.2,0c-0.4,0-0.8,0-1.3,0l0.5,2.6
		c1.3,0,2.7,0,4,0C333.6,237.1,333.5,236.6,333.4,236.1z"/>
	<path d="M136.5,251.6c-2.8,0-5.7,0-8.5,0c-0.6,0.3-1.4,0-2.1,0.1c-2.6,0-5.3,0-7.9,0c-0.1,0.9-0.3,1.9-0.4,2.8c6.1,0,12.2,0,18.3,0
		L136.5,251.6z"/>
	<path d="M146.7,192.8l1-5.5c-1.4,0.1-2.9,0.1-4.3,0.1c-4.7-0.2-9.5,0-14.2,0c-0.4,1.8-0.7,3.6-1.1,5.5
		C134.3,192.9,140.5,192.8,146.7,192.8z"/>
	<path d="M152.6,158.9l0.5-2.8c-2.2,0-4.5,0-6.7,0c-1.2,0-2.4,0-3.5-0.1c-2.5,0.1-4.9,0.1-7.4,0.1c-0.2,0.9-0.4,1.9-0.6,2.9
		C140.8,158.9,146.7,158.8,152.6,158.9z"/>
	<path d="M135.7,200.5c3.1,1,6.3,0.7,9.6,0.5l0.5-2.8c-2.5,0-5.1,0.1-7.6,0.1C138.9,200.2,137.7,200.7,135.7,200.5z"/>
	<path d="M128,251.5c0.3-0.2,0.6-0.5,0.6-1.2c0-1.7-1.2-1.6-2.6-1.6c-2.5,0-5,0-7.5,0c-0.1,1-0.3,1.9-0.4,2.9c2.6,0,5.3,0,7.9,0
		C126.6,251.6,127.4,251.8,128,251.5z"/>
	<path d="M130.6,208.7c-1.9,0.1-3.1,0.5-4.1,0.7c-0.9,0.2-1.3,0.2-1.5-0.1c-0.2,1-0.4,2-0.5,3c1.5,0,2.9,0,4.4-0.1
		C127.9,210.9,128.7,209.8,130.6,208.7z"/>
	<path d="M129.1,223.5c2.7,0,3.5-0.7,3.2-2.6c-3.2,0-6.3,0-9.5,0c-0.2,0.9-0.3,1.7-0.5,2.6C124.7,223.5,126.9,223.5,129.1,223.5z"/>
	<path d="M336.8,252.2c-1.4-1.1-3.1-0.8-4.7-0.6l0.5,2.6c0.3,0.1,0.7,0.1,1,0.2c0.7,0.2,1.6,0,2.4-0.1
		C336.4,253.7,335.4,252.7,336.8,252.2z"/>
	<path d="M339.4,261.7c0.1-0.5,0.3-1.4-0.4-1.4c-1.4,0-2-0.4-2.3-0.9c-0.1-0.2-0.2-0.3-0.2-0.5c0-0.1-0.1-0.2-0.1-0.3
		c-0.2-0.5-0.3-1.1-0.5-1.6c-0.2,0-0.3,0.1-0.5,0.2c0.5,1.5,1.4,3.2-1.8,2.7l0.5,2.8c0.9,0,1.7-0.1,2.6-0.1
		C337.5,262.4,339,263,339.4,261.7z"/>
	<path d="M338.7,253.6c0.1,0.8,0.9,0.7,1.5,0.7c4.6,0,9.2,0.1,13.8,0.1c-0.1-0.9-0.3-1.9-0.4-2.8c-4.2,0-8.5,0-12.7,0
		C339.5,251.8,338.6,252.4,338.7,253.6z"/>
	<path d="M146.7,164.7c-4.3,0.1-8.7,0.1-13,0.1c-0.2,0.9-0.4,1.9-0.6,2.8c5.6,0,11.1,0,16.7,0C150.5,165.5,149.8,164.6,146.7,164.7z
		"/>
	<path d="M141,130.6c-0.2,1-0.5,2.1-0.7,3.2c1.3,0.1,2.5,0.1,3.7-0.6C144.3,131,142.6,130.6,141,130.6z"/>
	<path d="M119.6,260.4c0.2,0.5,0.3,1,1,1.1c0.5-0.7,1.2-0.8,2.1-0.5c0,0,0,0,0,0c1.8,0.8,0.9-0.6,1.2-1
		C122.5,260.1,121,259.8,119.6,260.4z M122.8,261c0-0.1,0-0.2,0.1-0.4c0.1,0,0.3,0.1,0.4,0.1C123.1,260.8,122.9,260.9,122.8,261z"/>
	<path d="M120.6,261.6L120.6,261.6C120.6,261.5,120.6,261.5,120.6,261.6C120.6,261.6,120.6,261.6,120.6,261.6L120.6,261.6z"/>
	<path d="M323.9,204.9l0.3,1.8c0.9,0,1.8,0,2.8,0C326.3,205.4,325.1,205.2,323.9,204.9z"/>
	<path d="M331.5,203.9c4.7-0.1,9.5,0,14.2,0.1c-0.2-1-0.4-2-0.6-3c-3.1,0.2-6.3,0.5-9.2-0.8c-1.7,1.3-3.9,0.5-5.8,0.7
		c-2.3,0.2-4.6,0.1-6.9-0.3l0.6,3.3C326.5,203.6,329.1,204,331.5,203.9z"/>
	<path d="M314.9,125.5c4.9,0.2,9.7,0.1,14.6,0c-0.2-0.9-0.4-1.7-0.6-2.5c-2.3,0.4-8.8,1.4-18.9,2.6l0.4,2.5c0.3,0,0.6,0,0.9,0
		C311.2,126.1,312.1,125.3,314.9,125.5z"/>
	<path d="M345.4,260.4c-2.7-0.4-2.6,0.7-3,2.2c0.5-0.1,1-0.5,1.5-0.7c0.2-0.1,0.3-0.2,0.4-0.2c0.1,0,0.1-0.1,0.2-0.1
		c0.1,0,0.1,0,0.2,0s0.1,0,0.2,0c0.3,0.1,0.5,0.4,0.7,1.2c1.4,0,2.7,0.1,4.1,0.1c1.5,0,2.9,0,4.4,0c0.3,0,0.6,0,1,0
		c-0.1-0.9-0.2-1.8-0.3-2.8C351.6,259.9,348.5,260.8,345.4,260.4z"/>
	<path d="M344.2,265.5c-0.3,0.1-0.6,0.1-0.8,0.1c-1.7-0.1-2.4,0.7-2.3,1.8c0.1,1.3,1.6,0.7,2.4,0.7c1.4,0.1,2.9,0,4.4,0
		c-1.7-0.6-1.1-1.8-1.6-2.6c-0.4-0.1-0.8-0.1-1.2-0.2C344.8,265.4,344.5,265.4,344.2,265.5z"/>
	<path d="M338.5,267.2c0.2-1.2-0.6-1.6-1.9-1.8c-0.4,0-0.9,0.1-1.3,0.1l0,0h0c-0.1,0.3-0.3,0.6-0.4,1c-0.1,0-0.2-0.1-0.2-0.1
		l0.3,1.9c0.3,0,0.6,0,0.8,0C336.7,267.9,338.3,268.6,338.5,267.2z"/>
	<polygon points="151.4,130.3 151.3,130.4 151.3,130.4 	"/>
	<path d="M121.4,261.8c-0.3-0.1-0.5-0.1-0.8-0.2C120.8,261.9,120.9,262.2,121.4,261.8z"/>
	<path d="M120.7,261.6C120.7,261.6,120.7,261.6,120.7,261.6C120.7,261.5,120.6,261.6,120.7,261.6L120.7,261.6
		C120.6,261.6,120.7,261.6,120.7,261.6z"/>
	<path d="M350.2,229.2c-1,0-2.1,0-3.1,0c-6.3,0-12.6,0-18.9,0.1l0.5,3c7.3,0,14.7,0,22,0C350.5,231.2,350.3,230.2,350.2,229.2z"/>
	<path d="M338.7,253.6c-0.1-1.2,0.8-1.8,2.2-2.1c-1.6-0.7-2.8,0.1-4.1,0.7c-1.4,0.4-0.4,1.5-0.9,2.1c0,0.9-0.1,1.8-0.1,2.7v0
		c0.3,0.5,0.4,1,0.5,1.6c0,0.1,0.1,0.2,0.1,0.3c0.1,0.2,0.1,0.3,0.2,0.5c0.4,0.5,1,0.9,2.3,0.9c0.6,0,0.5,0.9,0.4,1.4
		c-0.4,1.3-1.9,0.7-2.8,1c0.5,0.9,0.5,1.8,0.1,2.7c1.3,0.2,2.1,0.6,1.9,1.8c-0.3,1.4-1.8,0.7-2.7,1.1c6.6,0.7,13.3,0.1,19.9,0.2
		c-0.1-1-0.2-2.1-0.3-3.2c-0.7,0-1.4-0.1-2.3,0c1.6-0.7,0.1-1.8,1-2.5c-1.5,0-2.9,0-4.4,0h0c0.7,2.4-1.2,2.7-3.5,2.7
		c0.5,0.8-0.1,2.1,1.6,2.6c-1.5,0-2.9,0.1-4.4,0c-0.8-0.1-2.3,0.6-2.4-0.7c-0.1-1.1,0.6-1.9,2.3-1.8c0.3,0,0.6,0,0.8-0.1
		c0.3-0.1,0.6-0.1,0.8-0.2h0c-0.5-1,0.6-1.8,0.6-2.7c-0.2-0.8-0.4-1.1-0.7-1.2c-0.1,0-0.1,0-0.2,0s-0.1,0-0.2,0
		c-0.1,0-0.1,0-0.2,0.1c-0.1,0.1-0.3,0.1-0.4,0.2c-0.5,0.3-1,0.6-1.5,0.7c0.3-1.5,0.2-2.6,3-2.2c3.1,0.5,6.2-0.5,9.3-0.4
		c-0.2-1.8-0.5-3.7-0.7-5.5c-4.6,0-9.2-0.1-13.8-0.1C339.6,254.4,338.8,254.4,338.7,253.6z"/>
	<path d="M336,274.3l0.4,2.4c3.9-0.1,8,0.9,11.7-1c0.3-0.2,1.1,0.1,1.6,0.4c2.5,1,4.6,0.9,6.6-0.4c0-0.5-0.1-1.1-0.1-1.6
		c0,0-0.1,0-0.1,0.1c-1.9,0.8-2.4,0.4-2.8-1c-0.1-0.5,0.3-1.7-0.9-1.3c-0.8,0.3-2.8-0.7-2.7,1.1c0,0.7-0.8,1.1-1.7,1.1
		C344,274,340,274.9,336,274.3z"/>
	<path d="M129.1,223.5c-2.2,0-4.5,0-6.7,0c-0.7,3.9-1.3,7.7-1.9,11.5c6.3,0,12.5,0,18.8,0c0,0,0,0,0.1,0l1-5.7c-0.4,0-0.8,0-1.3,0
		c-4.2,0-8.5-0.1-12.7-0.1c-1.5,0-1.5-0.9-1.6-1.7c-0.1-1,0.7-1.2,1.8-1.2c4.8,0.4,9.6-0.3,14.4-0.6l0.9-5c-3.2,0-6.3,0-9.5,0
		C132.6,222.8,131.8,223.5,129.1,223.5z"/>
	<path d="M335.3,265.5L335.3,265.5c-0.3,0-0.6,0-0.9-0.1l0.2,0.9c0.1,0,0.2,0.1,0.2,0.1C335,266.1,335.2,265.8,335.3,265.5z"/>
	<path d="M151.3,130.4L151.3,130.4C151.4,130.3,151.3,130.4,151.3,130.4C151.3,130.4,151.3,130.4,151.3,130.4
		c0.1,0.1,0.1,0.3,0.1,0.4c0,0,0,0.1,0,0.1c2,0,3.9,0.7,5.9,0.8l1-5.8c-0.8-0.1-1.6-0.2-2.3-0.3c-2.2,0-4.4,0.5-6.6,0.1
		c-1.6-0.3-3-0.2-3.1,1.6c-0.1,1-1.1,1-2.1,1c-1.2,0-1.2-0.6-1.2-1.3c0-0.6,0.2-1.4-0.9-1.4c-0.4,1.6-0.7,3.3-1.1,5.1
		c1.6,0.1,3.3,0.5,3,2.6c0.8,0.1,1.4,1.1,2.4,0.5C145.8,130.5,149.5,131.3,151.3,130.4z"/>
	<path d="M346.2,206.7c-0.2-0.9-0.3-1.8-0.5-2.7c-4.7-0.1-9.5-0.2-14.2-0.1c-2.5,0-5-0.3-7.8,0.1l0.2,0.9c1.2,0.2,2.3,0.5,3.1,1.8
		c-0.9,0-1.9,0-2.8,0l0,0.2c1.9-0.1,3.8-0.1,5.7-0.2C335.4,206.7,340.8,206.9,346.2,206.7z"/>
	<path d="M348.6,271.3c-0.1,0.1-0.2,0.2-0.4,0.3c0.1,0,0.2,0.1,0.2,0.1c0.1-0.1,0.2-0.2,0.3-0.3
		C348.7,271.4,348.6,271.3,348.6,271.3z"/>
	<path d="M345.7,271.6c-0.1,0-0.2,0-0.2,0.1c0.1,0,0.1,0.1,0.2,0.1c0.1,0,0.2,0,0.2-0.1C345.9,271.7,345.8,271.7,345.7,271.6z"/>
	<path d="M612.3,150.6c0.3,0,0.7,0,1,0c-0.4-1.9-0.8-3.7-1.2-5.5c-2.9-0.5-5.9,0.1-8.9,0.1c-2.3,0-5.1-1.5-6.8,1.2
		c-0.3,0.4-1.1-0.3-1.5-0.8c-1-1.1-1.9-2-3.2-1l0.5,3.1c5.2,0,10.3,0,15.5,0c1.1,0,2.2,0,1.9,1.3
		C609.4,150.9,610.9,150.6,612.3,150.6z"/>
	<path d="M607.3,123c-2.1,0.4-7.9,1.3-16.8,2.4c5.8,0,11.5,0,17.3,0C607.7,124.5,607.5,123.8,607.3,123z"/>
	<path d="M599.4,136.4c2.1-0.1,4.3,0.1,6.5,0.1c0.4,0,0.8,0,1.1,0c0.8-0.3,1.6-0.3,2.4,0.1c0.3,0,0.7,0,1,0
		c-0.7-3.1-1.3-5.9-1.9-8.5c-0.5-0.1-1-0.1-1.8-0.1c-3.8,0.3-7.6,0.1-11.5,0.1c-2.1,0-4.2,0-6.3,0l0.5,2.8c4.9,0,9.8-0.1,14.7-0.1
		c0.1,0,0.2,0,0.3,0c1.8,0.3,4.8-0.2,4.7,1.6c-0.1,1.8-3,0.7-4.6,1.1c-2.7,0.7-5.8,0.5-8.1,0c-2.4-0.5-4.5,0.1-6.6,0.1l1.5,8.8
		c1,0.1,1.9,0.3,2.6-0.6c1-1.5,1-1.6-1.3-2.4c-1.5-0.6-0.6-1.5-0.8-2.3C594.2,135.6,596.9,136.6,599.4,136.4z"/>
	<path d="M435.3,133.6l0.5-2.7c-0.7,0-1.3,0-2,0c-1.9,0-3.8,1.3-5.7,0.1c-0.2,0.8-0.5,1.7-0.7,2.5
		C430.1,133.5,432.7,133.6,435.3,133.6z"/>
	<path d="M394.9,262.7c0.7,0,1.3,0,2,0c1.4,0,2.4,0.1,2.4,1.6c0,1.5-1.3,1.2-2.4,1.2c-0.8,0-1.5,0-2.3,0c-0.2,1.9-0.4,3.8-0.6,5.6
		c0.7,0,1.4,0,2.1-0.1c2.3,0,4.5,0.1,6.8,0.4c2.7,0.3,5.6-0.8,8.2,0.7c0,0,0.1,0,0.1,0l2.1-12.1c-6,0-12.1,0-18.1,0
		C395.1,260.9,395,261.8,394.9,262.7z M405.9,262.7c1.4,0.2,4-1.3,4,1.5c0,2.2-2.2,0.7-3.2,1.4c-1.1-0.8-3.7,1.1-3.8-1.5
		C402.7,262,404.8,262.6,405.9,262.7z"/>
	<path d="M616.9,274.1c-1.2,0.2-2,0.1-2.6-0.1l0.5,2.8C616.1,276.4,617.2,275.9,616.9,274.1z"/>
	<path d="M629,266.2c0.8,0.2,0.9-0.5,1.3-0.6c1.2-0.1,2.5-0.5,3.4-0.1c-0.2-1.8-0.4-3.7-0.7-5.6c-1.3,0-2.7,0-4,0
		c-2.7,0-5.5-0.3-8,0.9c-0.9,1.3-1.9,1.9-4,1.9c-1.6,0-3.1-0.1-4.7-0.1l0.6,3.2C618.3,265.8,623.7,264.5,629,266.2z"/>
	<path d="M613.3,268.3c0-0.1,0-0.1,0-0.2c0,0,0,0-0.1,0L613.3,268.3z"/>
	<path d="M402.3,215.1c-0.3,1.9-0.7,3.7-1,5.5c0.3,0,0.6,0,0.9,0c2.1,0,4.2,0,6.3,0c1.3,0,1.6,0.5,1.5,1.3c-0.1,0.7,0.1,1.6-1.3,1.4
		c-2-0.2-2.3,0.5-2.2,1.9c0.1,1.5,1.5,1,2.5,1.1c1.8,0.1,3.7,0,5.6,0c1.5,0,2.8,0,2.6-1.7c-0.2-1.3,1-1.2,2.1-1.2c0.2,0,0.4,0,0.6,0
		l1.5-8.5C414.9,215.1,408.6,215.1,402.3,215.1z"/>
	<path d="M406.5,192.2c0.3,0.3,1,0.3,1.6,0.3c1,0,1.7,0.1,1.8-1.1c0.1-3.5,3.4-1.2,5.2-1.6c2.4-0.5,1.6,1.1,1.8,2.1
		c0.2,1.1-0.6,2.3,0.6,3.4c2.4,0,4.7,0,7.1,0l0.5-2.8c-0.7-0.1-1-0.6-1-1.4c0-0.9,0.5-1.3,1.4-1.3l0.5-2.8c-6.2,0-12.3,0-18.5,0
		C407.2,188.7,406.9,190.5,406.5,192.2z"/>
	<path d="M602.6,190.7c-0.3-1.4-1.8-0.9-2.8-0.9c-0.1,0-0.2,0-0.2,0l0.5,2.8c0,0,0,0,0,0C602,192.6,603,192.3,602.6,190.7z"/>
	<path d="M413.5,236.2c-0.1,1.8-1.6,1.2-2.6,1.3c-4.1,0-8.3,0-12.4,0.1c-0.3,1.8-0.6,3.7-0.8,5.5c5.5-0.1,11-0.1,16.4-0.1
		c0-0.5,0.2-1.1,0-1.6c-1-2.2,0.2-3.5,3.2-3.7l1-5.7c-6.3,0-12.6,0-18.9,0c-0.2,0.9-0.3,1.8-0.5,2.8c4,0,7.9,0,11.9,0
		C412.2,234.7,413.5,234.4,413.5,236.2z"/>
	<path d="M415.3,248.7l0.4-2.5c-5.7,0.1-11.4-0.1-17-0.1c-0.5,0-1.1,0-1.6,0c-0.1,0.9-0.3,1.7-0.4,2.6c1.7,0,3.4-0.1,5.1-0.2
		C406.4,248.3,410.8,248.6,415.3,248.7z"/>
	<path d="M413.8,257.2l1-5.6c-5.2,0-10.4,0-15.6,0c-1,0-1.9,0-2.9,0c-0.3,1.9-0.5,3.7-0.7,5.5C401.7,257.2,407.8,257.2,413.8,257.2z
		"/>
	<path d="M615.3,181.8c1.5,0.2,3,0.2,4.5,0.2c-0.2-1.2-0.5-2.4-0.7-3.6c-4.3,0-8.7-0.1-13-0.1c-2.8,0-5.6,0-8.5,0l0.5,3
		C603.9,181.3,609.6,181.2,615.3,181.8z"/>
	<path d="M409.2,178.6c-0.2,0.9-0.4,1.9-0.6,2.8c6.1,0,12.2,0,18.4,0l0.5-2.9c-3.8,0-7.5,0-11.3,0
		C413.9,178.6,411.5,178.6,409.2,178.6z"/>
	<path d="M413.2,159c-0.4,1.8-0.8,3.6-1.1,5.5c6,0,11.9,0,17.9,0l1-5.5C425,159,419.1,159,413.2,159z"/>
	<path d="M402.8,212.3c4.5,0,9.1,0,13.6,0c1.7,0,3.5,0,5.2,0l0.5-3c-6.3,0-12.6,0-18.9,0C403.1,210.4,402.9,211.3,402.8,212.3z"/>
	<path d="M402.3,275.9c0,0.8-0.5,1.1-1.4,0.9c-0.3,0-0.5,0-0.8,0c0.3,0,0.5,0,0.8,0c-0.3,0-0.5,0-0.8,0c-1.3,0-2.7-0.1-4-0.1
		c-0.1-0.3-0.2-0.6-0.3-0.8c-0.4-0.9-1.1-1.5-2.1-1.7c-0.1,1.3-0.2,2.6-0.3,3.8c2.2,0.6,4.3,1.1,6.4,1.6c0.8,0,1.5,0.2,2,0.5
		c1.8,0.4,3.6,0.8,5.4,1.2c0-0.1,0-0.1,0-0.2c0.4-0.9,1.5-1.2,2.6-1.5l0-0.1c0-1.4,0.5-2.9-2.7-2.8c-1.6,0.1-0.5-1.7-0.9-2.5
		c-1.2,0-2.3-0.1-3.5-0.1C401.8,274.5,402.3,275.3,402.3,275.9z"/>
	<path d="M409.6,281.8l0.1-0.4c-0.2,0.1-0.4,0.2-0.6,0.3C409.2,281.7,409.4,281.7,409.6,281.8z"/>
	<path d="M403.8,206.8c2.1-0.1,3-0.8,2.8-2.8c-0.7-0.2-1.5-0.3-2.2-0.3C404.2,204.7,404,205.7,403.8,206.8z"/>
	<path d="M421.3,171.5c1.9,0.3,4.3,0.7,5.4-1.4c-5.2,0-10.5,0-15.7,0c-0.2,0.9-0.4,1.8-0.5,2.7c5,0,10,0,15,0c0.8,0,1.7,0.1,2.1-0.6
		c-4.6-0.4-9.4,0.3-14-0.8C416.2,171.2,418.7,171.2,421.3,171.5z"/>
	<path d="M621.2,201c-0.4,0-0.7,0-1.1,0c-2.6-0.1-5.3-0.1-7.9-0.2c-3.4,0.4-6.8,0.5-10.2-0.1c-0.1,0-0.3,0-0.4-0.1l0.6,3.3
		c7.3,0,14.6,0,21.9,0c-0.2-1-0.4-1.9-0.5-2.9C622.7,201,622,201,621.2,201z"/>
	<path d="M617.4,170c-0.2,0-0.4,0-0.6,0c-3,0-5.9,0-8.9,0c-1.4,0.2-2.9,0.3-4.3,0c-0.4,0-0.9,0-1.3,0c-0.5,0-1,0-1.4,0
		c-1.5,0-3.1,0-4.6,0l0.5,2.8c7.1,0,14.2,0,21.3,0C617.8,171.8,617.6,170.9,617.4,170z"/>
	<path d="M593.3,153.4l0.5,2.8c6.9,0,13.8,0,20.7,0c-0.2-1-0.4-1.9-0.6-2.9c-4.6,0-9.2,0-13.8,0
		C597.8,153.4,595.6,153.4,593.3,153.4z"/>
	<path d="M604,214.9l0.8,4.7c0,0,0.1-0.1,0.1-0.1c4.9,1.8,10,0.6,15,0.8c2.4,0.1,4.7,0.1,7.1,0.1c-0.3-1.8-0.6-3.7-1-5.5
		c-6.9,0-13.8,0-20.7,0C604.9,214.9,604.4,214.9,604,214.9z"/>
	<path d="M609.9,248.9l0.5,2.8c2.2,0,4.3,0,6.5,0c1.2,0,2.4,0,3.5,0.1c3.9-0.2,7.7-0.1,11.6,0.1c-0.1-1-0.3-2-0.4-3.1
		C624.4,248.9,617.1,249,609.9,248.9z"/>
	<path d="M613.2,209.4c3.9,0.2,7.9,0,11.8,0c0-0.2-0.1-0.4-0.1-0.6c0,0,0,0,0,0c-0.1-0.7-0.3-1.4-0.4-2.1c-3.4-0.3-6.8,0.3-10.2,0.1
		c-3.9-0.2-7.8-0.2-11.7-0.2l1,5.6c2.1,0,4.2,0,6.3,0C609.2,210,610.3,209.3,613.2,209.4z"/>
	<path d="M632.8,274c-0.3,0.2-0.6,0.4-0.9,0.7c0.9,0.4,2.9-0.6,2.4,1.4c-0.1,0.5,0.1,0.6,0.4,0.7c-0.1-0.9-0.1-1.8-0.2-2.7
		c-0.3,0-0.6,0-0.9,0C633.4,274,633.1,274,632.8,274z"/>
	<path d="M426.5,155.5c1.5,1.2,3.3,0.7,4.9,0.6l0.4-2.4c-0.7-0.1-1.4-0.2-2.1-0.4c-0.7-0.2-1.6,0-2.4,0.1
		C426.8,154.1,427.9,155.1,426.5,155.5z"/>
	<path d="M423.9,146.1c-0.1,0.5-0.3,1.4,0.4,1.4c1.9,0,2.4,0.8,2.7,1.7c0.2,0.5,0.3,1.1,0.5,1.6c0.2,0,0.3-0.1,0.5-0.2
		c-0.5-1.5-1.5-3.4,2.3-2.6c0.4,0,0.8,0,1.3,0c0.5,0,0.9,0,1.4,0l0.5-2.9c-0.2,0-0.4-0.1-0.6-0.1c-2,0.1-4,0.1-6.1,0.2
		C425.7,145.4,424.2,144.8,423.9,146.1z"/>
	<path d="M424.5,154.1c-0.1-0.8-0.9-0.7-1.5-0.7c-2.9,0-5.7,0-8.6-0.1c-0.2,0.9-0.4,1.9-0.6,2.8c2.8,0,5.7,0,8.5,0
		C423.8,155.9,424.6,155.3,424.5,154.1z"/>
	<path d="M616.6,243.1c4.7-0.1,9.4-0.1,14.1-0.1c-0.1-0.9-0.3-1.9-0.4-2.8c-5.6,0-11.2,0-16.8,0
		C612.8,242.3,613.4,243.2,616.6,243.1z"/>
	<path d="M623.9,277.2c2.8,0.1,0.9-1.5,0.7-2.5c0-0.2,0.4-0.4,0.6-0.6c-2,0-4-0.7-5.9,0.5C618.8,277.6,622.2,277.2,623.9,277.2z"/>
	<path d="M608,231.9c-0.4,0-0.8,0-1,0.1l0.5,2.7c0.2,0,0.4,0,0.7,0c1.4,0,1.8-0.5,1.6-1.5C610.1,232.1,609.3,231.9,608,231.9z"/>
	<path d="M413.3,204c-0.3,2.2,0.8,2.8,3.6,2.7c1.9,0,3.8-0.2,5.7-0.2l0.5-2.8c-3,0-6.1-0.1-9.1-0.1
		C413.8,203.7,413.5,203.9,413.3,204z"/>
	<path d="M413.1,201.2c-2.8,0-5.5,0-8.3,0c0,0.2-0.1,0.3-0.1,0.5C407.5,202.2,410.3,202.1,413.1,201.2z"/>
	<path d="M420.8,145.2c-0.5,0.1-1,0.5-1.5,0.7c-0.3,0.2-0.6,0.3-0.8,0.3c-0.1,0-0.1,0-0.2,0c-0.3-0.1-0.5-0.4-0.7-1.2
		c-0.5,0-0.9,0-1.4,0c-0.2,0.7-0.3,1.5-0.5,2.2c0.7,0,1.4,0,2.2,0.1C420.6,147.9,420.5,146.7,420.8,145.2z"/>
	<path d="M419.9,142.2c1.7,0.1,2.4-0.7,2.3-1.8c-0.1-1.3-1.6-0.7-2.4-0.7c-0.8-0.1-1.6-0.1-2.4-0.1c-0.2,0.8-0.3,1.6-0.5,2.4
		c0,0.1,0.1,0.2,0.1,0.3c0.4,0.1,0.8,0.1,1.2,0.2c0.3,0,0.6-0.1,0.8-0.2C419.3,142.2,419.6,142.2,419.9,142.2z"/>
	<path d="M424.7,140.6c-0.2,1.2,0.6,1.6,1.9,1.8c0.4,0,0.9-0.1,1.3-0.1l0,0h0c0.1-0.3,0.3-0.6,0.4-1c2.8,1.3,3.5-1.5,5.6-1.7
		c-1.3,0-2.5,0-3.8,0c-0.5,0-1.1-0.1-1.6-0.1c-0.4,0-0.8,0-1.1,0C426.6,139.9,425,139.2,424.7,140.6z"/>
	<path d="M415.6,239.6c0.2,0.2,0.5,0.3,0.7,0.4c0.1-0.1,0.2-0.3,0.3-0.5c-0.3-0.1-0.5-0.2-0.8-0.4
		C415.8,239.3,415.5,239.6,415.6,239.6z"/>
	<path d="M409.2,178.6c2.3,0,4.7,0,7,0c3.8,0,7.5,0,11.3,0l0.5-3c-6.1,0-12.1,0-18.2,0C409.6,176.6,409.4,177.6,409.2,178.6z"/>
	<path d="M424.5,154.1c0.1,1.2-0.8,1.8-2.2,2.1c1.6,0.7,2.8-0.1,4.1-0.7c1.4-0.4,0.4-1.5,0.9-2.1c0-0.9,0.1-1.8,0.1-2.7v0
		c-0.3-0.5-0.4-1-0.5-1.6c-0.3-0.9-0.7-1.7-2.7-1.7c-0.6,0-0.5-0.9-0.4-1.4c0.4-1.3,1.9-0.7,2.8-1c-0.5-0.9-0.5-1.8-0.1-2.7
		c-1.3-0.2-2.1-0.6-1.9-1.8c0.3-1.4,1.8-0.7,2.7-1.1c-3.3-0.4-6.7-0.4-10-0.3c0,0.2-0.1,0.3-0.1,0.5c0.8,0,1.6,0,2.4,0.1
		c0.8,0.1,2.3-0.6,2.4,0.7c0.1,1.1-0.6,1.9-2.3,1.8c-0.3,0-0.6,0-0.8,0.1c-0.3,0.1-0.6,0.1-0.8,0.2h0c0.5,1-0.6,1.8-0.6,2.7
		c0.2,0.8,0.4,1.1,0.7,1.2c0.1,0,0.1,0,0.2,0c0.2,0,0.5-0.2,0.8-0.3c0.5-0.3,1-0.6,1.5-0.7c-0.3,1.5-0.2,2.6-3,2.2
		c-0.7-0.1-1.4-0.1-2.2-0.1c-0.4,2-0.9,4-1.3,6.1c2.9,0,5.7,0,8.6,0.1C423.7,153.4,424.5,153.3,424.5,154.1z"/>
	<path d="M416.8,142.3c0.1,0,0.1,0,0.2,0c-0.1-0.1-0.1-0.2-0.1-0.3C416.8,142.1,416.8,142.2,416.8,142.3z"/>
	<path d="M427.5,133.5c0.2-0.8,0.5-1.7,0.7-2.5c-2.9,0.3-6-0.3-8.9,0c-0.2,0.9-0.4,1.8-0.6,2.7C421.6,133.4,424.5,133.1,427.5,133.5
		z"/>
	<path d="M399.9,279.6c0.7,0.2,1.3,0.3,2,0.5C401.4,279.8,400.8,279.6,399.9,279.6z"/>
	<path d="M615.3,181.8c-5.7-0.6-11.4-0.5-17.1-0.4l0.9,5.4c0.4,0.2,1,0.2,1.6,0.2c6.7,0,13.4-0.1,20.1-0.1c-0.3-1.7-0.6-3.3-1-4.9
		C618.3,182,616.8,182,615.3,181.8z"/>
	<path d="M617.9,172.8c-7.1,0-14.2,0-21.3,0l0.5,2.7c0.8,0.1,1.6,0,2.3,0.3c2.3,0.8,6.3-1.1,6.7,2.6c4.3,0,8.7,0.1,13,0.1
		C618.7,176.5,618.3,174.6,617.9,172.8z"/>
	<path d="M432.7,144.9c0.2,0,0.4,0.1,0.6,0.1l0.2-1C432.8,144,432.7,144.4,432.7,144.9z"/>
	<path d="M428.4,141.3c-0.1,0.3-0.3,0.6-0.4,1h0c2-0.2,3.6,1.8,5.8,0.8l0.6-3.7c-0.1,0-0.3,0-0.4,0.2
		C431.9,139.8,431.1,142.6,428.4,141.3z"/>
	<path d="M634.3,276c0.5-1.9-1.5-1-2.4-1.4c-2.1-1.4-4.5-0.3-6.7-0.5c-0.2,0.2-0.6,0.4-0.6,0.6c0.1,1,2.1,2.6-0.7,2.5
		c-1.6,0-5.1,0.3-4.6-2.7c-0.8-0.1-1.4-1.1-2.4-0.5c0.3,1.8-0.8,2.3-2.1,2.6l1,5.5c0.7-0.2,1.1-0.6,1.2-1.6c0.1-1,1.1-1,2.1-1
		c1.2,0,1.2,0.6,1.2,1.3c0,0.2,0,0.4,0,0.6c4.8-1,9.6-2.2,14.6-3.5c0-0.4-0.1-0.8-0.1-1.2C634.4,276.7,634.2,276.5,634.3,276z"/>
	<path d="M394.1,271c-0.1,1.1-0.2,2.1-0.3,3.1c0.9,0.3,1.7,0.8,2.1,1.7c-0.4-2.2,2.9-2.2,4.4-3.1c1-0.6,2.4-0.1,2.6,1.2
		c1.2,0,2.3,0.1,3.5,0.1c0.7-0.2,1.8,0,1.9-0.8c0.1-0.8-1-0.8-1.5-1.2c-1.1-0.8-2.7,0.1-3.7-0.8c-2.3-0.4-4.5-0.4-6.8-0.4
		C395.5,271,394.8,271,394.1,271z"/>
	<path d="M395.9,275.9c0,0.2,0.1,0.5,0.3,0.8C396,276.4,396,276.2,395.9,275.9z"/>
	<path d="M411.2,272.1c0,0.2,0,0.3,0,0.5L411.2,272.1C411.2,272.1,411.2,272.1,411.2,272.1z"/>
	<path d="M413.1,201.2c-2.8,0.9-5.6,1-8.4,0.5c-0.1,0.7-0.3,1.3-0.4,2c0.7,0,1.5,0.1,2.2,0.3c2.3,0,4.5,0,6.8,0
		c0.2-0.1,0.5-0.4,0.7-0.4c3,0,6.1,0.1,9.1,0.1l0.5-2.8C420.1,201,416.6,201,413.1,201.2z"/>
	<path d="M407.3,281.1c0,0,0,0.1,0,0.2c0.6,0.1,1.1,0.3,1.7,0.4c0.2-0.1,0.4-0.2,0.6-0.3l0.3-1.8
		C408.9,279.9,407.8,280.2,407.3,281.1z"/>
	<path class="st1" d="M400.9,276.8c-0.3,0-0.5,0-0.8,0"/>
</g>
</svg>
