<?xml version="1.0" encoding="utf-8"?>
<!-- Generator: Adobe Illustrator 25.3.0, SVG Export Plug-In . SVG Version: 6.00 Build 0)  -->
<svg version="1.1" id="Layer_1" xmlns="http://www.w3.org/2000/svg" xmlns:xlink="http://www.w3.org/1999/xlink" x="0px" y="0px"
	 viewBox="0 0 750.2 400.1" style="enable-background:new 0 0 750.2 400.1;" xml:space="preserve">
<g>
	<path d="M356.5,277.6c-0.1-2-0.3-4.2-0.5-6.4c-6.8,0-13.6,0.1-20.5,0.2l1.1,6.5C343.2,277.7,349.8,277.6,356.5,277.6z"/>
	<path d="M394,271.7c-0.2,2.2-0.4,4.3-0.5,6.3c0.3,0.1,0.5,0.1,0.7,0.2c5.3,0.2,10.5,0.4,15.8,0.6l1.1-6.6
		C405.5,272,399.7,271.8,394,271.7z"/>
	<path d="M397.1,246.1c-0.3,2.2-0.6,4.4-0.9,6.5c6.1,0.1,12.2,0.3,18.3,0.4l1.1-6.6C409.5,246.3,403.3,246.2,397.1,246.1z"/>
	<path d="M353.7,252.3c-0.3-2.1-0.6-4.3-0.9-6.4c-7.2,0-14.5,0.1-21.7,0.1l1.1,6.5C339.4,252.3,346.6,252.3,353.7,252.3z"/>
	<path d="M134.2,264.9l1.6-9c-6.2,0.6-12.3,1.1-18.5,1.7c-0.4,3.3-0.8,6.4-1.1,9.3C122.1,266.2,128.2,265.5,134.2,264.9z"/>
	<path d="M611.7,258.9l1.7,9.7c7,0.9,14,1.8,21,2.8c-0.3-3.2-0.7-6.6-1.1-10.2C626,260.4,618.9,259.7,611.7,258.9z"/>
	<path d="M394.6,265.3c5.9,0.2,11.8,0.3,17.7,0.6l1.1-6.6c-6-0.2-12-0.4-18.1-0.5C395.1,261.1,394.9,263.2,394.6,265.3z"/>
	<path d="M354.6,258.4c-7.1,0-14.2,0.1-21.3,0.2l1.1,6.5c7-0.1,13.9-0.2,20.9-0.2C355.1,262.8,354.8,260.6,354.6,258.4z"/>
	<path d="M615.8,282.4c3.6-0.7,7.3-1.6,11-2.4c-3.9-0.6-7.8-1.2-11.7-1.8L615.8,282.4z"/>
	<path d="M132.7,273.6c-5.8,0.8-11.6,1.6-17.3,2.4c0,0.7-0.1,1.4-0.1,2c5.5,1.4,10.8,2.7,16,3.8L132.7,273.6z"/>
	<path d="M605.1,221.3l1.6,9.2c7.4,0.2,14.8,0.5,22.1,0.8c-0.5-3.2-1.1-6.4-1.6-9.7C619.8,221.5,612.5,221.4,605.1,221.3z"/>
	<path d="M349.7,226.3c-0.4-2.1-0.7-4.3-1.1-6.4c-7.3,0-14.7,0-22,0l1.1,6.5C335,226.3,342.4,226.3,349.7,226.3z"/>
	<path d="M401.4,219.9c-0.4,2.2-0.8,4.4-1.1,6.5c6.3,0,12.6,0.1,18.9,0.1l1.1-6.6C414,219.9,407.7,219.9,401.4,219.9z"/>
	<path d="M140.3,229.5l1.5-8.5c-6.3,0.1-12.6,0.1-19,0.2c-0.5,3-1,6-1.5,8.9C127.7,229.9,134,229.7,140.3,229.5z"/>
	<path d="M350.7,232.5c-7.3,0-14.7,0-22,0.1l1.1,6.5c7.3-0.1,14.6-0.1,21.9-0.1C351.4,236.8,351.1,234.7,350.7,232.5z"/>
	<path d="M138.9,237.7c-6.3,0.3-12.6,0.6-18.9,1c-0.5,3.1-0.9,6.1-1.4,9.1c6.3-0.5,12.5-0.9,18.8-1.3L138.9,237.7z"/>
	<path d="M609.9,248.7c7.3,0.6,14.6,1.2,21.9,1.8c-0.5-3.2-0.9-6.5-1.5-9.9c-7.4-0.4-14.7-0.9-22.1-1.3L609.9,248.7z"/>
	<path d="M398.2,239.2c6.2,0.1,12.5,0.2,18.7,0.3l1.1-6.6c-6.3-0.1-12.5-0.1-18.8-0.2C398.9,234.9,398.5,237,398.2,239.2z"/>
	<path d="M424.9,193.8c-6.2,0.1-12.5,0.2-18.7,0.3c-0.4,2.2-0.8,4.4-1.3,6.6c6.3-0.1,12.5-0.1,18.8-0.2L424.9,193.8z"/>
	<path d="M146.1,196.2l1.5-8.4c-6.1-0.4-12.2-0.8-18.3-1.2c-0.6,2.9-1.1,5.8-1.7,8.7C133.8,195.7,139.9,195.9,146.1,196.2z"/>
	<path d="M598.9,185.8l1.6,9c7.2-0.4,14.4-0.8,21.6-1.2c-0.6-3.2-1.2-6.3-1.8-9.4C613.1,184.7,606,185.2,598.9,185.8z"/>
	<path d="M345.1,200.9c-0.4-2.2-0.8-4.3-1.2-6.5c-7.3,0-14.5-0.1-21.8-0.2l1.1,6.5C330.5,200.9,337.8,200.9,345.1,200.9z"/>
	<path d="M144.7,204.2c-6.2-0.2-12.5-0.3-18.7-0.5c-0.5,2.9-1.1,5.9-1.6,8.8c6.3,0.1,12.6,0.1,18.9,0.2L144.7,204.2z"/>
	<path d="M346.3,207.1c-7.3,0-14.7,0-22-0.1l1.1,6.5c7.3,0,14.7,0,22,0C347.1,211.4,346.7,209.3,346.3,207.1z"/>
	<path d="M403.7,207c-0.4,2.2-0.8,4.4-1.2,6.5c6.3,0,12.6,0,18.9,0l1.2-6.6C416.3,206.9,410,206.9,403.7,207z"/>
	<path d="M623.8,202.6c-7.3,0.2-14.5,0.5-21.8,0.7l1.6,9c7.3-0.1,14.6-0.1,22-0.2C625,209,624.4,205.8,623.8,202.6z"/>
	<path d="M340,174.9c-0.4-2.2-0.9-4.3-1.3-6.5c-7.1-0.1-14.1-0.2-21.2-0.4l1.1,6.6C325.8,174.7,332.9,174.9,340,174.9z"/>
	<path d="M411.4,167.6c-0.4,2.2-0.9,4.4-1.4,6.6c6.1-0.2,12.2-0.4,18.3-0.7l1.2-6.8C423.5,167.1,417.5,167.4,411.4,167.6z"/>
	<path d="M592.6,149.6l1.6,9c6.7-0.9,13.5-1.9,20.2-2.9c-0.7-3.3-1.4-6.4-2-9.5C605.8,147.4,599.2,148.5,592.6,149.6z"/>
	<path d="M152,162.5l1.5-8.4c-5.7-0.8-11.3-1.6-17-2.5c-0.6,2.8-1.2,5.7-1.8,8.7C140.4,161.1,146.2,161.8,152,162.5z"/>
	<path d="M341.3,181.1c-7.2-0.1-14.4-0.2-21.5-0.3l1.1,6.5c7.2,0.1,14.5,0.2,21.7,0.2C342.1,185.4,341.7,183.3,341.3,181.1z"/>
	<path d="M150.6,170.5c-5.9-0.6-11.8-1.2-17.7-1.9c-0.6,2.9-1.2,5.8-1.8,8.7c6,0.5,12,1.1,18,1.6L150.6,170.5z"/>
	<path d="M597.3,176.2c7-0.7,14-1.4,20.9-2.1c-0.6-3.2-1.3-6.3-1.9-9.4c-6.9,0.9-13.7,1.7-20.6,2.5L597.3,176.2z"/>
	<path d="M407.5,187.1c6.2-0.1,12.4-0.3,18.6-0.4l1.2-6.7c-6.1,0.2-12.3,0.4-18.4,0.5C408.4,182.7,408,184.9,407.5,187.1z"/>
	<path d="M417.1,140.6c-0.5,2.2-1,4.4-1.5,6.8c5.8-0.3,11.6-0.8,17.5-1.2l1.2-6.9C428.6,139.8,422.9,140.2,417.1,140.6z"/>
	<path d="M334.6,148.8c-0.5-2.2-0.9-4.4-1.4-6.5c-6.8-0.2-13.6-0.5-20.3-0.8l1.2,6.6C320.9,148.4,327.8,148.7,334.6,148.8z"/>
	<path d="M157.9,128.4l0.5-2.6c-8.4-0.9-13.9-1.7-15.9-1.9c-0.1,0.4-0.2,0.8-0.3,1.2C147.5,126.2,152.7,127.3,157.9,128.4z"/>
	<path d="M335.9,155.1c-6.9-0.1-13.9-0.3-20.8-0.6l1.1,6.6c7,0.2,14,0.4,21,0.5C336.8,159.3,336.4,157.2,335.9,155.1z"/>
	<path d="M412.9,160.5c6-0.3,11.9-0.6,17.9-0.9l1.2-6.8c-5.9,0.4-11.8,0.8-17.7,1.1C413.9,156,413.4,158.2,412.9,160.5z"/>
	<path d="M156.5,136.6c-5.4-1-10.8-2-16.1-3.1c-0.6,2.8-1.2,5.7-1.9,8.8c5.5,1,11,1.9,16.6,2.8L156.5,136.6z"/>
	<path d="M610.2,136.1c-0.8-3.5-1.5-6.7-2.1-9.6c-6.3,1.4-12.5,2.8-18.8,4.2l1.6,9.2C597.4,138.7,603.8,137.4,610.2,136.1z"/>
	<path d="M435.6,131.8l1.1-6.1c-1.5-0.2-2.9-0.3-4.3-0.5c-4.1,0.4-8.1,0.9-12.2,1.2c-0.5,2.1-1,4.4-1.5,6.9
		C424.4,132.9,430,132.4,435.6,131.8z"/>
	<path d="M330.3,128.8c-6.6-0.3-13.2-0.6-19.8-1.1l1.2,6.7c6.7,0.4,13.4,0.7,20.1,1C331.2,133,330.7,130.8,330.3,128.8z"/>
</g>
</svg>
