<?xml version="1.0" encoding="utf-8"?>
<!-- Generator: Adobe Illustrator 25.3.0, SVG Export Plug-In . SVG Version: 6.00 Build 0)  -->
<svg version="1.1" id="Layer_1" xmlns="http://www.w3.org/2000/svg" xmlns:xlink="http://www.w3.org/1999/xlink" x="0px" y="0px"
	 viewBox="0 0 750.2 400.1" style="enable-background:new 0 0 750.2 400.1;" xml:space="preserve">
<g>
	<path d="M141.1,158l12.2-3.3l5-28.9c-2.4-0.3-4.6-0.5-6.6-0.7L141.1,158z"/>
	<path d="M329,123c-0.2,0-0.3,0.1-0.5,0.1L329,123C329,123.1,329,123,329,123z"/>
	<path d="M319.2,124.5c-2.6,0.4-5.6,0.7-9.1,1.1l4.9,28.3l15,4.1L319.2,124.5z"/>
	<path d="M415.9,146.6l15.8,8.5l5.1-29.2c-8.4-0.9-13.9-1.7-15.9-1.9C419.5,129.9,417.8,137.6,415.9,146.6z"/>
	<path d="M607.3,123c-2.3,0.4-8.8,1.4-18.9,2.6l5.3,30.5l18.6-10C610.4,137,608.7,129.1,607.3,123z"/>
</g>
</svg>
