<?xml version="1.0" encoding="utf-8"?>
<!-- Generator: Adobe Illustrator 25.3.0, SVG Export Plug-In . SVG Version: 6.00 Build 0)  -->
<svg version="1.1" id="Layer_1" xmlns="http://www.w3.org/2000/svg" xmlns:xlink="http://www.w3.org/1999/xlink" x="0px" y="0px"
	 viewBox="0 0 750.2 400.1" style="enable-background:new 0 0 750.2 400.1;" xml:space="preserve">
<g>
	<path d="M291.8,98.8c-0.5-8.9-1.3-17.7-2.5-25.1c-0.9-0.8-1.7-1.5-2.6-2.3c-6-5-12.1-9.9-18-14.9c-0.8-0.7-1.3-1.6-2-2.4
		c0.1-0.2,0.3-0.4,0.4-0.6l-15.5-4.7c0,0.1,0,0.2,0,0.4c10.9,8.7,21.8,17.5,32.6,26.4c2,1.6,3.8,3.6,5.1,5.9
		c0.9,1.5,0.9,3.8,0.8,5.7c0,1.4-1.1,1.8-2.3,0.9c-0.6-0.5-1.1-1-1.7-1.5c-11.8-10.5-23.6-21-35.5-31.4c-0.3,1.2-0.8,2.5-1.4,3.8
		c2.3,1.8,4.6,3.7,6.9,5.6C268.4,75.4,280.2,87.1,291.8,98.8z"/>
	<path d="M122.3,68.4c-0.8,0.2-1.5,0.6-2.2,1c-1.6,1-3.3,2.1-4.9,3.1c-0.4,2.1-0.7,4.2-1,6.5c3.1-2.6,6.5-4.8,10.3-6
		c12.2-3.8,24.4-6.8,37-6.9c-0.3-0.3-0.7-0.6-1-1c-0.4-0.3-0.7-0.6-1.1-0.9l-0.1-0.1l-0.1-0.2c-0.5-0.5-0.9-0.9-1.3-1.3
		c-0.8-0.8-1.4-1.6-1.9-2.4c-3.2,0.2-6.5,0.6-9.6,1.3C138.3,63.4,130.3,66.1,122.3,68.4z"/>
	<path d="M292.6,114.5c-0.1-2.4-0.2-4.8-0.3-7.3c-6.9-6.9-13.9-13.8-20.5-21.1c-7.8-8.6-16.3-16.1-25.3-22.7c-0.9,1.2-1.9,2.3-3,3.5
		c4.3,3,8.4,6.3,12.1,10C268,89.3,280.3,101.9,292.6,114.5z"/>
	<path d="M281.8,134.1c-0.7-0.8-1.2-1.8-1.8-2.7c0.2-0.3,0.4-0.6,0.6-0.8c1.8,1,3.7,1.7,5.3,2.9c3.1,2.3,6.1,4.9,9.2,7.3
		c-0.4-1.6-0.8-3.4-1.2-5.5c-6.7-6.1-13.5-12.2-20.2-18.4c-5.7-5.2-11.4-10.6-17-15.9c-5.5-5.2-11.1-10.4-16.6-15.7
		c-1.5-1.4-1.4-2.9-0.2-4.6c1.2-1.8,2.4-1.6,3.8-0.7c1.6,1.1,3.2,2.1,4.6,3.4c3.1,2.9,6.1,5.9,9.1,8.9
		c11.8,11.8,23.7,23.6,35.4,35.5c0.1,0.2,0.3,0.3,0.4,0.5c-0.1-1.1-0.1-2.1-0.2-3.3c0-0.9-0.1-1.8-0.1-2.7c-0.9-0.7-1.8-1.5-2.6-2.4
		c-14.1-14.4-28-29.1-42.3-43.4c-2.4-2.4-4.9-4.6-7.4-6.7c-1.6,1.4-3.2,2.7-4.8,3.9c-0.1,0.4-0.3,0.8-0.7,1.3
		c-0.6,0.7-1.2,0.7-1.7,0.4c-2.1,1.4-4.1,2.5-6,3.3c-2.5,1.1-5.4,2.1-7.9,2.9c10.1,5.8,19.2,13.3,28.4,20.5
		c6,4.6,11.6,9.7,17.3,14.7c1.7,1.5,2.9,3.6,4.1,5.6c0.4,0.7,0.6,2.3,0.2,2.9c-0.4,0.5-1.8,0.6-2.6,0.3c-5.1-1.6-9.4-4.6-12.9-8.9
		c-2.2-2.7-4.1-5.8-6.4-8.4c-2.9-3.4-5.8-7-9.3-9.5c-8.4-6.2-17.1-11.3-26.1-15.2c-2.9,0.7-5.8,1.1-8.8,1.3
		c9.9,3.5,19.2,8.5,28.3,14.4c2.1,1.3,3.9,3.2,5.7,5c0.7,0.6,1,1.6,1.5,2.4c-0.1,0.2-0.2,0.4-0.3,0.5c-0.7-0.2-1.5-0.2-2.2-0.6
		c-1.6-0.9-3.1-1.9-4.6-3c-11.6-9-24.6-14.4-37.9-19.4c-0.7-0.1-1.4-0.3-2.1-0.4l0,0.1l-0.5-0.1c0,0-0.5-0.1-1.4-0.3
		c-0.7,0-1.5,0-2.2,0c-0.1,0.4-0.2,0.8-0.3,1.3c1.8,1,3.4,2.2,5.3,3c5.7,2.5,11.5,4.7,17.1,7.4c17.9,8.5,33.5,20.5,45.3,37.7
		c1.5,2.1,3.1,4.1,4.5,6.2c13.1,18.7,24.6,38.3,30.1,61.3c0.7,3,1.7,5.8,2.6,8.7c2.9,9.1,5.6,18.3,7.5,27.7l0-18.6
		c-1-4-2.1-8-3.2-12c-0.9-3.1-1.5-6.4-2.1-9.6c-0.1-0.7,0-1.5,0.4-2.6c0.5,0.6,1.1,1.1,1.5,1.8c0.9,1.7,1.9,3.5,2.6,5.3
		c0.3,0.7,0.5,1.4,0.8,2.1l0-10c-1.5-3.2-2.9-6.4-4.3-9.7c-0.3-0.6-0.6-1.4-0.5-2.1c0-0.7,0.3-1.9,0.7-2c0.6-0.2,1.5,0.1,2.1,0.6
		c0.6,0.4,1,1.2,1.3,1.9c0.2,0.4,0.4,0.7,0.6,1.1l0-9.1c-5.4-7.9-11.1-15.5-16.6-23.3c-2-2.9-3.7-6-5.4-9.1c-0.4-0.7,0.1-2,0.2-3
		c0.8,0.4,1.9,0.5,2.5,1.2c3.1,3.9,6.1,7.9,9.1,11.8c3.4,4.5,6.8,9,10.3,13.4l0-9c-1.4-1.9-2.9-3.8-4.3-5.7
		C291.3,144.5,286.4,139.5,281.8,134.1z M292.7,172.2c1.4,2.2,1.5,4.7,0.1,6.8c-0.6,0.9-2,1.4-3.2,1.5c-0.6,0.1-1.5-1-1.9-1.8
		c-2.2-4.7-4.2-9.6-6.3-14.4c-4.3-9.9-9.4-19.3-16.5-27.2c-1.4-1.6-2.6-3.5-3.9-5.3c-0.5-0.7-0.8-1.6-1.3-2.9
		c1.1,0.2,1.7,0.2,2.1,0.4c3.6,1.9,7.1,3.9,9.4,7.8C278.3,148.8,285.5,160.5,292.7,172.2z"/>
	<path d="M144.8,73.1c-6.4,0.5-12.8,1.3-18.9,3.9c-2.2,1-4.4,2.3-6.4,3.7c-0.8,0.6-1.3,1.7-2.3,3.1c1.6,0.1,2.4,0.3,3.2,0.2
		c3-0.4,6.1-0.6,9-1.4c16.3-4.8,32.8-5.2,49.4-3.3c-0.4-0.2-0.8-0.4-1.2-0.7c-2.3-1.3-5.2-3.3-8.1-5.7
		C161.4,72.4,153.1,72.4,144.8,73.1z"/>
	<path d="M282.9,298.9c-3.8,3.4-8,6.4-12.4,8.9c-12.4,7.1-24.5,14.9-38.2,18.8c-0.6,0.2-1.1,0.6-1.6,0.9c-5.4,3-10.9,5.9-16.2,9
		c-1.9,1.1-2.8-0.2-3.5-1.6c-1-1.8,0.7-2,1.5-2.4c9.1-4.1,18.1-8.4,27.2-12.3c17-7.4,32.2-18.1,46.1-30.8
		c6.7-6.1,10.5-14.3,11.1-24.1c0.7-11.9-0.2-23.7-3.1-35.2c-3.6-14.5-8-28.8-12.1-43.2c-3.1-10.8-7.8-20.7-13.8-29.8
		c-6.3-9.4-13-18.5-19.5-27.8c-5.8-8.3-13.1-14.6-21.3-19.8c-12.9-8.1-26.4-14.8-40.5-20.1c-6.7-2.5-13.6-3.9-20.7-3.8
		c-12.6,0.1-25.1,0.4-37.7,0.9c-5.3,0.2-10.4,1.1-15.2,2.7c-0.2,2.3-0.4,4.6-0.5,6.9c6.8-2.8,13.9-4.3,21.3-4.5
		c9.2-0.2,18.4,0,27.5,0.3c4.6,0.2,9.3,0.6,13.9,1.6c17.7,3.8,34,11.6,49.5,21.4c11.3,7.2,20.8,16.8,28.3,28.4
		c4.6,7.2,8.7,14.7,13.2,22c6.6,10.6,11,22.2,14.4,34.3c2.9,10.5,5,21.1,2.5,32.1c-0.4,1.6-0.5,3.3-0.6,5
		c-0.5,7.2-0.8,14.5-1.3,21.7c-0.7,8.6-4,15.9-9.6,22c-2,2.1-4.3,3.4-7.1,3.3c-1.8-0.1-3-1.2-2.5-3.1c0.5-2.1,1.2-4.5,2.5-6
		c3.7-4.2,6.2-9,8-14.4c1.8-5.4,3.5-10.9,5.4-16.4c2.7-7.9,3.1-16.1,1.6-24.2c-2.5-13.4-6.9-26.3-11.5-39
		c-2.8-7.7-5.7-15.4-10.2-22.2c-12.5-19.1-27.8-34.9-46.5-46.5c-9.9-6.1-20.2-11.6-31.8-12.9c-2.9-0.3-5.9-0.7-8.8-0.9
		c-8.4-0.7-16.8-1.8-25.2-1.7c-11.9,0.1-23,3.3-33.5,8.5c-0.1,1.9-0.2,3.8-0.3,5.6c7.9-3.9,16.1-6.8,24.7-8.3
		c6.3-1.1,12.8-0.5,19.3-0.7c15.9-0.7,30.8,3.3,45.2,10.3c14.4,7,27.6,16,38.2,28.8c18,21.7,27.9,47.7,34.1,75.7
		c0.8,3.4,0.7,7.1,1,10.7c-2.8,0.3-4-0.8-4.7-3.6c-1-4.2-1.9-8.4-3-12.6c-0.4-1.5-1.1-2.9-1.7-4.4c-0.3,0.1-0.6,0.1-0.9,0.2
		c-0.2,1.1-0.5,2.3-0.4,3.4c0.3,5.2,0.5,10.5,1.1,15.6c1.3,10.1-0.2,19.4-4.6,28.4c-5.1,10.4-12.4,18.1-21.9,23.5
		c-12.4,7.1-25.6,12.3-38.8,17.2c-13.1,4.9-25.5,11.2-37.1,19.3c-7.5,5.2-14.8,10.6-22.4,15.7c-3.6,2.4-7.4,4.4-11.2,6.4
		c-0.8,0.4-1.7,0.6-2.6,0.9c-0.1-0.2-0.3-0.5-0.4-0.7c1.6-1.6,3.1-3.3,4.9-4.6c10.8-8,21.4-16.2,32.4-23.7c13-8.8,26.4-17,41.5-20.9
		c10.2-2.6,20-6.5,29.4-11.5c2.8-1.5,5.3-3.4,7.9-5.3c0.6-0.5,0.9-1.6,1.3-2.4c-0.8-0.3-1.8-1-2.5-0.8c-3.5,0.9-7,1.9-10.4,3.2
		c-4.7,1.8-9.2,4.2-13.9,5.8c-3.1,1-6.4,1.3-9.6,1.6c-1.1,0.1-2.5-0.6-3.4-1.4c-1.5-1.3-1.3-2.6,0.5-3.6c1.8-0.9,3.7-1.7,5.6-2.4
		c8.1-2.7,16.1-5.3,24.2-7.9c3.7-1.1,7.4-1.6,11,0.6c0.7,0.5,2.1,0.3,2.9-0.1c1.3-0.7,2.5-1.7,3.5-2.8c3.7-3.9,5.2-9.1,6.3-14.4
		c2-9.9,1.6-19.8,0.5-29.8c-2.7-23.5-11.5-44.1-25.5-62.1c-1.6-2.1-3.8-3.8-5.9-5.3c-0.9-0.7-2.4-0.5-3.6-0.7
		c0.4,1.2,0.6,2.6,1.3,3.6c2.3,3.2,5,6.1,7.2,9.5c3.5,5.6,6.8,11.3,10,17.1c10.4,18.2,13.7,38.1,11.4,59.3c-0.4,3.9-1.2,7.8-2,11.6
		c-0.2,0.9-0.8,1.7-1.2,2.5c-0.3-0.1-0.5-0.1-0.8-0.2c-0.1-1.8-0.4-3.6-0.3-5.4c0.3-4.9,0.9-9.8,1.2-14.6c0.5-8.8,1.3-17.9-2-26.2
		c-4.3-10.8-9.4-21.3-14.2-31.9c-0.1-0.3-0.3-0.6-0.5-0.8c-5.5-6.4-10.8-13.1-16.6-19.1c-5.4-5.6-11.6-10.2-18.5-13.5
		c-3.4-1.6-4-2.9-2.9-6.7c0.2-0.7,0.4-1.4,0.7-2c1-2,0.6-3.9-0.6-5.6c-2.9-4-6.5-6.7-11.4-6.9c-2.4-0.1-4.7-0.1-7.1,0
		c-1,0-2,0.4-3,0.6c0.1,2.8,1.6,3.8,3.5,4.3c2.1,0.5,4.2,0.7,6.3,1.1c3.7,0.8,5,2.6,4.3,5.8c-0.5,2.1-2.2,2.2-5.8,1
		c-2.4-0.8-4.9-1.2-7.4-1.4c-2.6-0.1-5.2,0.1-7.7,0.5c-2,0.3-2.4-0.6-2-2.4c0.5-2.3,1.2-4.5,1.6-6.8c0.6-3.4-0.5-5-3.6-4.6
		c-4.4,0.6-8.9,1.3-13.2,2.8c-17.7,6.2-31.9,18.1-45.2,31.3l0,37.6c0.4-1.4,0.8-2.8,1.3-4.2c1.4-4.2,3.5-8.4,6.2-11.9
		c4.2-5.6,9-10.6,13.7-15.7c1.1-1.2,2.8-2,4.4-2.6c1.4-0.6,2.1,0.3,1.5,1.8c-0.5,1.2-1.2,2.4-1.9,3.5c-2.8,4.5-5.8,8.9-8.5,13.4
		c-5.7,9.5-10.9,19.3-14,30.2c-0.5,1.8-1.5,3.5-2.6,5.2l0,19.8c1.4-4,2.9-7.9,4.3-11.9c3.7-10,7-20.2,11.1-29.9
		c4.6-10.9,11.3-20.2,20.9-26.6c5-3.4,10-7,15.2-10c13.5-7.8,27.2-9,41-0.4c1.9,1.2,3.8,2.2,5.7,3.3c19.3,11.7,32.8,28.8,39.7,51.7
		c4.1,13.7,4.5,27.6-0.4,41.4c-1.3,3.8-3.5,6.5-6.7,8.7c-7,4.9-14.7,7.7-22.8,9.6c-4.5,1-8.9,2.4-13.5,2.8
		c-6.6,0.6-11.2,3.8-13.6,10.5c-0.4,1-0.2,2.3-0.3,3.4c1-0.1,2-0.2,2.9-0.4c1.6-0.4,3.6-1.7,4.5,0.6c0.8,2.2-1.3,3.1-2.8,3.9
		c-4.2,2.4-8.4,4.8-12.5,7.2c-1.6,1-3.1,1.6-4.6-0.1c-1.3-1.6-1-3.7,0.5-5.6c2.1-2.7,4-5.5,6-8.3c3.1-4.3,5.9-8.9,9.3-12.9
		c3-3.7,7-5.3,11.6-4.3c1.4,0.3,2.8,0.4,4.2,0.3c11.2-1.2,21.7-4.8,31-12c1.9-1.4,3.3-3.9,4.2-6.3c2.5-6.3,0.3-12-2.6-17.6
		c-2.3-4.4-4.5-8.9-6.2-13.5c-4.7-12.2-9.4-24.4-18.6-33.6c-5.6-5.7-11.6-10.8-18.3-14.8c-2.3-1.4-4.6-3-6.8-4.6
		c-0.6-0.5-1.1-1.3-1.6-1.9c0.1-0.2,0.2-0.4,0.3-0.6c1.1,0.2,2.2,0.3,3.2,0.7c8.2,3.2,16.2,7,22.5,13.7
		c12.2,13.1,22.4,27.6,25.6,46.6c0.3,1.6,1.1,3.1,1.7,4.6c0.3-0.1,0.5-0.1,0.8-0.2c1.2-2,1.4-4.4,1-6.6c-0.8-4.8-1.5-9.8-3.2-14.2
		c-9.2-23.6-24.2-41-46.7-49.9c-6.3-2.5-12.5-3-19-0.3c-12.3,4.9-24.3,10-35,18.5c-5.4,4.3-9.5,9.7-12.1,16.3
		c-2.2,5.5-4.1,11-5.7,16.7c-4.3,15.5-8.4,31.1-14.2,46l0,15.3c2-2,2.5-4.9,3.5-7.6c6-16.3,11-32.8,13.7-50.1
		c1.1-7.2,4.5-12.8,8.3-18.3c0.4-0.5,1.3-1.1,1.8-0.9c0.7,0.2,1.6,1,1.9,1.7c0.3,0.8,0,1.9-0.4,2.7c-2.4,5.8-5.3,11.4-7.1,17.4
		c-4.2,14.1-7.9,28.3-11.6,42.5c-0.3,1.1,0.4,2.4,0.7,3.7c1-0.6,2.1-1.2,3-2c0.6-0.5,0.8-1.5,1.1-2.3c0.8-2.6,1.7-5.2,2.2-7.8
		c3.1-15.3,8.3-29.7,15.1-43.4c2-4.2,4.9-8.1,6.1-12.6c1.2-4.4,4.1-6.2,6.9-8.4c2.7-2.2,5.6-4.2,8.5-6.2c5.4-3.9,11.4-6.1,17.6-7.6
		c1-0.2,2-0.2,3-0.3c0,0.2,0.1,0.4,0.1,0.7c-0.7,0.3-1.5,0.6-2.2,0.8c-6.1,1.7-11.3,5-16,9.6c-6.8,6.6-12.5,14.1-16.7,22.9
		c-1.4,3-3,5.9-4.7,8.7c-5.6,9.4-8.9,19.8-11.2,30.5c-0.2,0.8,0.3,2.2,0.8,2.6c0.6,0.4,2.1,0.1,2.5-0.5c1.3-1.6,2.5-3.4,3.3-5.4
		c2.4-5.5,4.9-11,6.8-16.8c3.2-9.7,8-18.3,13.1-26.7c5.9-9.6,13.9-16.2,23.6-20.3c2-0.9,4.3-1.4,6.5-1.2c3,0.2,6.1,0.8,8.8,2.1
		c8.2,4,15,10,20.6,17.6c1.2,1.7,2.6,3.5,2,6.2c-1.7-1-3.1-2.3-4.5-3.6c-3.9-3.6-7.5-7.5-11.6-10.9c-8.2-6.7-16.9-7.6-25.9-1.8
		c-13.4,8.7-22.2,21.5-27.2,37.4c-2.9,9.3-5.2,18.8-7.8,28.2c-3.6,13-9.5,24.3-19.7,32.7c-3.2,2.6-5.7,6.2-8.2,9.7
		c-2.2,3.1-4.3,6.3-6.4,9.4l0,7.4c1.2-1.5,2.5-3,3.7-4.5c1.6-2,2.7-4.6,4.3-6.8c1.9-2.8,3.8-5.7,6.1-8.2c5.9-6.4,12-12.6,17.9-19
		c1.1-1.2,2-2.8,2.7-4.3c5.1-11.1,8.4-22.9,11.3-34.7c3.5-14.3,8.7-27.5,17.5-38.9c4.7-6,10.8-8.3,17.7-8.2c3.9,0,7.6,1.4,10.5,4.4
		c5.9,6.2,11.8,12.4,17.9,18.4c7.3,7.2,13.3,15.6,18.9,24.3c3,4.7,3.9,10.1,1.8,15.6c-0.3,0.9-1.6,1.3-2.4,1.9c-0.3-1-0.9-2-0.8-2.9
		c0.5-3.6-0.1-6.9-1.9-9.9c-1.8-2.9-3.6-5.9-5.8-8.5c-7.9-9.5-15.9-18.8-24-28.1c-3.2-3.7-7.2-6.1-11.6-7.8
		c-6.9-2.5-13.4-0.2-18.1,5.9c-6.7,8.8-10.4,19-13,29.8c-2.4,10.3-5.1,20.5-7.8,30.7c-2.1,7.7-6,14.1-11.4,19.5
		c-3.5,3.5-6.9,7.3-10.4,10.9c-1,1.1-2.2,1.9-3.2,3c-1.9,2-4.2,3.7-5.5,6.1c-3.9,7-9.1,12.7-14.2,18.6l0,6.4
		c0.1-0.1,0.1-0.1,0.2-0.2c3.2-3.6,6.7-6.9,9.3-10.9c4.8-7.3,9.9-14,16.1-19.8c3.6-3.4,7.3-6.6,10.6-10.3
		c6.9-7.6,13.3-15.7,15.8-26.3c1.9-7.7,3.2-15.5,5-23.2c1.2-5.3,2.7-10.5,4.2-15.7c0.5-1.6,1.4-2.8,3.1-2c1.8,0.8,1.8,2.3,1.3,4
		c-0.4,1.6-1,3.2-1.3,4.9c-1.1,5.9-3.3,11.4-3.3,17.7c0,12.2-3.4,23.1-11,32.3c-1.6,1.9-2.7,4.3-4.2,6.2c-2.5,3.1-5.1,6-7.8,8.8
		c-1.7,1.8-3.8,3.1-5.5,4.9c-4.4,4.4-8.6,8.8-12.9,13.3c-0.6,0.6-0.9,1.5-1.4,2.2c0.1,0.2,0.3,0.4,0.4,0.6c0.9-0.4,1.9-0.6,2.6-1.3
		c2.8-2.4,5.6-5,8.4-7.5c0.8-0.7,1.8-1.4,2.8-1.7c1.7-0.4,2.6,0.8,1.6,2.4c-1.1,1.8-2.4,3.5-3.9,4.8c-2.8,2.5-5.9,4.6-8.8,7
		c-0.9,0.7-1.6,1.7-2.4,2.6c0.1,0.2,0.2,0.4,0.3,0.6c0.9-0.2,1.9-0.2,2.6-0.6c3.6-1.8,7.5-3.3,10.7-5.8c9.1-7.1,17.9-14.5,26.7-22
		c5.4-4.6,10.1-10.1,12.3-17.3c1.3-4.2,2.3-8.5,2.8-12.9c1.4-11.1,1.4-22.2-2.2-32.9c-1.9-5.7-0.5-10.6,2.7-15.1c2.2-3,5-2.6,7,0.5
		c0.5,0.9,1.1,1.7,1.6,2.6c4.4,7.4,8.7,14.7,13.1,22.1c0.8,1.4,2,2.6,2.9,3.9c1.1,1.5,2.2,3.1,3,4.7c1,1.9,0.3,3.1-1.6,2.8
		c-1.4-0.2-2.9-1.1-4.1-2.1c-4.1-3.9-6.5-9.1-9-14.2c-1.4-2.9-2.9-5.8-4.6-8.5c-1-1.7-2.4-3.5-4.5-2.7c-2.2,0.9-1.8,3.3-1.5,5.3
		c0.6,3.4,1.5,6.7,2,10.1c0.8,6,1.6,11.9,2,17.9c0.7,11.2-3.4,20.6-9.9,28.9c-7.5,9.7-16.9,17-26.1,24.6c-7.7,6.3-15.2,13-22.9,19.5
		c-3.3,2.8-6.4,5.7-9.9,8.1c-4.7,3.3-8.7,7.3-12.6,11.5l0,7c5-4.9,9.9-9.8,14.9-14.6c14.3-13.8,30.6-24.5,46-36.7
		c0.1-0.1,0.2-0.2,0.4-0.3c0.8,0,1.7-0.4,2.3,0c0.5,0.4,1,1.7,0.8,2.2c-0.6,1.4-1.5,3-2.6,3.9c-4.1,3-8.4,5.7-12.6,8.6
		c-2.7,1.9-5.3,4.1-8.1,5.8c-10.5,6.2-19.2,14.9-27.5,24.1c-4.4,4.9-8.5,10.1-13,15c0.5,0,1.3,0.1,2.2,0.1c1.2,0.1,2.6,0.2,4.4,0.3
		c1.9-1.5,3.8-3,5.9-4.3c16.1-10.2,32.8-19.3,48-31.2c6-4.7,12.5-8.7,19.6-11.3c1-0.4,2.1-0.5,3.2-0.7c0.1,0.3,0.2,0.6,0.3,0.9
		c-2.2,1.7-4.3,3.5-6.6,5.1c-12.4,8.4-24.7,17.1-37.5,25c-8.3,5.1-16.2,11-23.9,17c2.5,0.1,5.3,0.3,8.2,0.4c2.2-1.6,4.5-3.1,6.7-4.7
		c3.8-2.6,7.5-5.5,11.4-8c6-3.9,12.1-7.7,17.8-11.3c1.9,0.1,3.6,0.6,4.9,0.1c5.8-2.2,11.5-4.6,17.1-7.1c8.9-4.1,17.7-8.4,26.6-12.5
		c1.3-0.6,2.9-0.7,4.4-1c0.1,0.3,0.2,0.6,0.4,0.9c-1.5,1.1-2.8,2.4-4.4,3.2c-6.9,3.6-13.9,7.1-20.9,10.5
		c-10.4,5.1-20.9,9.8-31.2,15.2c-6.9,3.6-13.4,7.8-20.1,11.9c-1.6,1-3.3,2-4.9,3.1c2.1,0.1,4.2,0.2,6.3,0.3c0.5,0,1,0,1.5,0.1
		c8.1-5.2,16.6-9.4,25.4-13.2c7.9-3.4,15.7-7.1,23.6-10.6c12.9-5.8,25-13.2,36.1-22.5c7.6-6.3,15.4-12.2,23.1-18.4
		c2.1-1.7,3.8-2.2,5.8-0.3c2.5,2.4,5.1,2,7.8,0.3c0.9-0.6,1.8-1.1,2.6-1.8c12-9.7,18.5-22.6,19.2-39c0.2-4.4,0.3-8.8,0.5-13.3
		c0-1.1,0.2-2.1,0.4-3.2c0.2,0,0.4-0.1,0.6-0.1c0.4,1,0.9,2.1,1.2,3.1c2.1,7.9,2.6,16,2,24.2c-0.9,12.7-5.6,23.4-15.3,30.8
		c-10.6,8-21.6,15.5-32.4,23.2c-1.3,0.9-2.8,1.4-4.3,1.9c-0.8,0.3-1.8,0-2.7,0c7.2-7.1,15-13,21.3-20.9c-1.7,0.2-3.2,0.6-4.4,1.5
		c-5.9,4.2-11.8,8.3-17.5,12.8c-10.1,8-20.6,15-31.9,20.8c-6.2,3.2-12.4,6.5-18.6,9.8c-9.5,5.1-19.1,10.2-28.5,15.6
		c3.8,0.2,7.6,0.3,11.3,0.5c11.3-6.5,22.6-13,33.9-19.5c0.7-0.4,1.3-0.7,2-0.9c1.5-0.4,2.4,0.6,2.4,2.2c0,1.9-1.3,2.4-2.6,2.9
		c-10.7,4.2-20.7,9.6-30.5,15.6c3.5,0.1,7,0.3,10.2,0.4c0.4-0.2,0.8-0.5,1.2-0.7c12.8-8.2,26.6-14.1,40.2-20.3c1.5-0.7,2.5,0,3,1.5
		c0.4,1.4,0.5,2.7-1.3,3.5c-4.9,2.3-9.6,4.9-14.4,7.4c-5.7,3-11.4,5.9-17,9c2,0,3.8,0,5.4,0c1.3,0,2.7,0,4.3,0
		c1.1-0.5,2.1-0.9,3.2-1.4c4.1-1.7,8.1-3.8,12.3-4.9c6.4-1.7,13-2.8,19.6-4c1-0.2,2.1,0.2,3.1,0.4c0.1,0.3,0.2,0.6,0.2,1
		c-1.4,0.8-2.8,1.8-4.3,2.4c-5.3,2-10.5,4.1-15.8,6.1c5.4-0.2,11.2-0.4,17-0.7c14.9-5.9,29.5-12.7,43.4-21.4c2-1.2,4.2-2.1,6.3-3
		c0.9-0.4,1.9-0.3,2.9-0.5c0.1,0.2,0.2,0.4,0.4,0.7c-0.7,0.9-1.3,1.9-2.1,2.6c-2.7,2-5.3,4.1-8.2,5.8c-9.5,5.5-19.1,10.5-29,15.2
		c3.7-0.2,7.3-0.4,10.8-0.5c5-3.2,10.1-6.2,15.1-9.6c4.5-3,9.4-4.7,14.4-6c0.9-0.2,1.8-0.1,2.7-0.2c0.1,0.3,0.3,0.6,0.4,0.9
		c-1.9,1.8-3.6,3.9-5.7,5.4c-4.1,3.1-8.4,6-12.7,8.7c7.5-0.4,13.5-0.8,16.9-1c1.2-0.1,2.1-0.1,2.6-0.2l0-0.9c0,0-0.1,0-0.1,0
		c0-0.9-0.2-2,0.1-2.7l0-37c-6.6,6.6-13.6,12.5-21.4,17.4c-9.8,6.2-20.2,10.7-31.4,12.7c-1.6,0.3-3.3-0.2-4.9-0.6
		c-0.6-0.2-1.2-1.2-1.4-1.9c-0.1-0.4,0.9-1.2,1.5-1.5c9.3-4.7,18.7-9.3,28.1-13.9c1.5-0.8,3.2-1.5,4.5-2.6
		c8.3-6.6,16.8-13.1,25-19.9l0-7.9c-2.4,2.8-4.8,5.5-7.4,7.9c-13.7,12.8-29.7,21.5-45.9,30c-3.7,1.9-7.5,3.8-11.3,5.7
		c-1-1.7-1.7-3.1-2.6-4.6c1.2-0.6,2.3-1.1,3.5-1.6c10.6-5.2,21.3-10.1,31.7-15.6c11.2-5.9,20.7-14.6,28.2-25.3
		c1.4-2,2.7-4.1,3.9-6.2l0-11.1C296.9,283.1,291.2,291.6,282.9,298.9z M122.6,151.2c-2.7,2.8-5.3,5.6-8.1,8.3
		c-1.3,1.3-2.8,2.4-4.2,3.5c-0.9,0.7-2,1.1-2.9-0.3c-0.8-1.3-1.7-2.5-0.5-4.1c7.8-9.7,15.5-19.6,26.6-25c6.5-3.2,13.2-6,19.9-8.8
		c1.3-0.6,2.9-0.8,4.3-0.7c0.8,0.1,1.6,1.1,2,1.5c-0.3,3.2-1.5,4.8-3.5,5.7c-3.8,1.6-7.5,3.4-11.4,4.8
		C136.5,139.1,129.1,144.3,122.6,151.2z M186.9,140c-0.5,0.2-1.2,0.1-2,0.2c-1.2-0.2-2.7-0.4-4.2-0.6c-11.9-2-22.8,0.7-33,7.7
		c-1.4,1-2.9,2-4.5,2.6c-2.5,1.1-3.6,0.1-3.1-2.8c0.2-1.1,1-2.2,1.7-3.2c0.5-0.7,1.3-1,1.9-1.6c5-4.9,10.8-7,17.5-7.5
		c7.5-0.5,15-1.1,22.5,0.4c1.2,0.3,2.5,0.6,3.6,1.2c0.7,0.4,1,1.4,1.5,2.1C188.3,139,187.6,139.6,186.9,140z M172.8,161.3
		c-3.6,1.2-7.3,2.2-10.8,3.6c-9.5,3.8-17.7,9.5-23.9,18.4c-0.3,0.4-0.6,0.7-1,1.2c-3.9-2.2-3.9-2.3-1.1-5.8
		c9.5-11.5,21.4-17.7,35.2-20.1c1.6-0.3,3.3,0,4.9,0c0.1,0.3,0.1,0.7,0.2,1C175.2,160.2,174,160.9,172.8,161.3z M175.2,246.2
		c-0.2,8.2-2.8,15.6-7.6,21.9c-5.3,7-11.5,13.2-18.4,18.4c-1.9,1.4-3.6,2.9-6.8,3.2c0.7-1.6,1-2.9,1.7-3.7c3-3.5,6-6.9,9.1-10.2
		c4-4.2,8.2-7.9,11.5-12.9c3.4-5.1,5-10.4,5.2-16.5c0.2-5.1,0.6-10.3,1-15.4c0.2-2.4,0.2-5,2.7-7.4c0.4,1.6,0.8,2.7,0.8,3.7
		C174.8,233.5,175.3,239.9,175.2,246.2z M189.9,231.4c0.3-0.1,0.5-0.1,0.8-0.2c0.4,0.7,0.9,1.4,1.3,2.1c0.8,1.8,1.7,3.6,2.4,5.4
		c1.5,4.3,4.5,6.9,8.2,8.7c4.8,2.3,9.3,1.2,12.3-3.1c2.7-3.9,2.4-8.8-0.9-13c-8-10.3-16.1-20.5-24.2-30.8c-2-2.6-4.3-4.7-7.5-5.1
		c-1.9-0.2-3.5,0.3-4.7,1.9c-0.8,1-1.7,2.2-2.7,2.7c-0.9,0.4-2.3,0.2-3.2-0.3c-0.3-0.2-0.3-2.1,0.1-2.8c3-5.8,10.1-10.1,17.3-5.2
		c4.4,3,7.9,7,11.2,11.2c7.1,9.1,14.2,18.3,21.3,27.4c4.8,6.1,3.7,14.5-2.7,19.3c-5.8,4.3-12.2,5.9-19.2,4.6c-3.6-0.7-5.6-3.7-6.7-7
		c-1.4-4.1-2.1-8.5-3-12.8C189.5,233.5,189.8,232.4,189.9,231.4z M261.3,267.7c-3.2,5.8-7.4,10.7-12.5,14.5
		c-15.4,11.3-32,20.1-48.7,28.8c-6.3,3.3-12.4,6.8-18.6,10.2c-1.3,0.7-2.7,1.2-4.1,1.9c-0.2-0.3-0.4-0.6-0.6-1
		c1.4-1.4,2.7-3,4.3-4.1c5.7-3.9,11.3-8,17.2-11.4c7.9-4.6,16-8.6,24-13.1c6.4-3.6,12.8-7.1,18.9-11.1
		c16.5-10.7,24.9-27.4,28.2-47.4c0.1-0.6,0.1-1.1,0.2-1.7c0-0.1,0.2-0.3,0.3-0.5c0.5,0.3,1.1,0.7,1.6,1c0.6,0.3,1.2,0.5,2,0.8
		c-0.1,0.6-0.1,1.3-0.2,1.9C270.4,247.3,266.8,257.9,261.3,267.7z"/>
	<path d="M153.9,54.9c-0.2-1.3-0.3-2.5-0.3-3.6c0,0,0,0,0,0c-3.5,0.8-6.9,1.5-10.4,2.3c-8.6,1.8-16.9,4.4-25.1,7.6
		c-0.7,1.5-1.3,3.2-1.9,5.6C128.4,61.3,141.1,57.9,153.9,54.9z"/>
	<path d="M287.6,67.4c0.2,0.2,0.4,0.3,0.7,0.5c-0.6-2.6-1.2-4.7-1.9-6.4c-1.9-1.4-3.8-2.7-5.8-3.9c0,0,0,0,0,0l-10.8-3.3
		c1.6,0.9,3.2,1.9,4.7,3.1C278.7,60.7,283.1,64.1,287.6,67.4z"/>
	<path d="M232.4,145.8c7.4,7.7,13.1,16.6,16.9,27.1c2.7,7.5,6.3,14.5,9.6,21.7c0.6,1.3,1.6,2.3,2.4,3.5c0.2-0.1,0.5-0.3,0.7-0.4
		c-0.3-1.5-0.4-3.1-0.9-4.5c-2.6-7.5-5-15.2-8.2-22.4c-9-20.6-22-37.4-40.1-49.4c-19.8-13.1-41.8-15.6-64.3-15.6
		c-4.8,0-9.6,1-14.3,1.7c-2.2,0.4-4.4,1.1-6.3,2.1c-5.5,2.7-10.9,5.6-16.3,8.3c-0.1,2.2-0.2,4.4-0.2,6.4c3.6-2,7.2-4,10.8-5.9
		c5.1-2.6,10.3-4.8,15.5-7.1c0.9-0.4,2-0.4,3-0.6c0.1,0.2,0.2,0.5,0.2,0.7c-1.3,0.9-2.5,1.8-3.8,2.6c-8.7,5.2-17.5,10.1-26,15.6
		c-0.2,3-0.6,5.6-1,7.8c2.4-2.4,5-4.7,7.7-6.5c10.6-7.1,21.9-12.7,34-16.3c6.5-2,13.1-4.2,19.9-2.9c6.7,1.3,13.5,2.7,20,5.1
		C207.6,122.5,220.5,133.4,232.4,145.8z"/>
	<path d="M109.8,280.6c5.3-7.7,10.6-15.3,15.8-23c1.2-1.7,2.1-3.7,3.1-5.6c0.7-1.5-0.1-4.7-1.5-5.3c-2-0.8-2.3,1.3-3.2,2.5
		c-0.2,0.3-0.3,0.6-0.4,0.9c-2.8,5.1-5.4,10.3-8.4,15.3c-3.3,5.6-6.9,11-10.3,16.6c-0.2,0.3-0.3,0.6-0.5,0.9l0,2.9
		C106.6,284.5,108.3,282.7,109.8,280.6z"/>
	<path d="M119.5,313.5c-0.2-0.3-0.4-0.5-0.6-0.8c-0.9,0.4-1.8,0.8-2.6,1.3c-4.3,2.9-8.2,6.3-11.8,10l0,6.3
		c4.5-4.6,8.9-9.3,13.3-13.9C118.6,315.6,119,314.5,119.5,313.5z"/>
	<path d="M203.2,130.8c-0.1,0.3-0.2,0.5-0.3,0.8c0.5,0.8,0.8,1.8,1.4,2.3c3.9,3.1,7.8,6.2,11.8,9.1c0.7,0.5,1.7,0.7,2.5,0.6
		c0.6-0.1,1.4-0.7,1.6-1.2c0.2-0.4-0.1-1.5-0.5-1.9c-4-4-8.2-7.6-13.5-9.3C205.3,131,204.2,131,203.2,130.8z"/>
	<path d="M621.7,226.9c-0.4,0.5-1.3,1.1-1.8,0.9c-0.7-0.2-1.6-1-1.9-1.7c-0.3-0.8,0-1.9,0.4-2.7c2.4-5.8,5.3-11.4,7.1-17.4
		c4.2-14.1,7.9-28.3,11.6-42.5c0.3-1.1-0.4-2.4-0.7-3.7c-1,0.6-2.1,1.2-3,2c-0.6,0.5-0.8,1.5-1.1,2.3c-0.8,2.6-1.7,5.2-2.2,7.8
		c-3.1,15.3-8.3,29.7-15.1,43.4c-2,4.2-4.9,8.1-6.1,12.6c-1.2,4.4-4.1,6.2-6.9,8.4c-2.7,2.2-5.6,4.2-8.5,6.2
		c-5.4,3.9-11.4,6.1-17.6,7.6c-1,0.2-2,0.2-3,0.3c0-0.2-0.1-0.4-0.1-0.7c0.7-0.3,1.5-0.6,2.2-0.8c6.1-1.7,11.3-5,16-9.6
		c6.8-6.6,12.5-14.1,16.7-22.9c1.4-3,3-5.9,4.7-8.7c5.6-9.4,8.9-19.8,11.2-30.5c0.2-0.8-0.3-2.2-0.8-2.6c-0.6-0.4-2.1-0.1-2.5,0.5
		c-1.3,1.6-2.5,3.4-3.3,5.4c-2.4,5.5-4.9,11-6.8,16.8c-3.2,9.7-8,18.3-13.1,26.7c-5.9,9.6-13.9,16.2-23.6,20.3
		c-2,0.9-4.3,1.4-6.5,1.2c-3-0.2-6.1-0.8-8.8-2.1c-8.2-4-15-10-20.6-17.6c-1.2-1.7-2.6-3.5-2-6.2c1.7,1,3.1,2.3,4.5,3.6
		c3.9,3.6,7.5,7.5,11.6,10.9c8.2,6.7,16.9,7.6,25.9,1.8c13.4-8.7,22.2-21.5,27.2-37.4c2.9-9.3,5.2-18.8,7.8-28.2
		c3.6-13,9.5-24.3,19.7-32.7c2-1.7,3.8-3.8,5.5-6c-0.2-1.8-0.3-3.7-0.4-5.9l0-1c-1.4,2-2.9,4.1-4.5,5.9c-5.9,6.4-12,12.6-17.9,19
		c-1.1,1.2-2,2.8-2.7,4.3c-5.1,11.1-8.4,22.9-11.3,34.7c-3.5,14.3-8.7,27.5-17.5,38.9c-4.7,6-10.8,8.3-17.7,8.2
		c-3.9,0-7.6-1.4-10.5-4.4c-5.9-6.2-11.8-12.4-17.9-18.4c-7.3-7.2-13.3-15.6-18.9-24.3c-3-4.7-3.9-10.1-1.8-15.6
		c0.3-0.9,1.6-1.3,2.4-1.9c0.3,1,0.9,2,0.8,2.9c-0.5,3.6,0.1,6.9,1.9,9.9c1.8,2.9,3.6,5.9,5.8,8.5c7.9,9.5,15.9,18.8,24,28.1
		c3.2,3.7,7.2,6.1,11.6,7.8c6.9,2.5,13.4,0.2,18.1-5.9c6.7-8.8,10.4-19,13-29.8c2.4-10.3,5.1-20.5,7.8-30.7
		c2.1-7.7,6-14.1,11.4-19.5c3.5-3.5,6.9-7.3,10.4-10.9c1-1.1,2.2-1.9,3.2-3c1.9-2,4.2-3.7,5.5-6.1c1.3-2.3,2.8-4.5,4.3-6.7
		c-0.1-2-0.2-4.2-0.3-6.3c-4.6,6.9-9.6,13.3-15.5,18.9c-3.6,3.4-7.3,6.6-10.6,10.3c-6.9,7.6-13.3,15.7-15.8,26.3
		c-1.9,7.7-3.2,15.5-5,23.2c-1.2,5.3-2.7,10.5-4.2,15.7c-0.5,1.6-1.4,2.8-3.1,2c-1.8-0.8-1.8-2.3-1.3-4c0.4-1.6,1-3.2,1.3-4.9
		c1.1-5.9,3.3-11.4,3.3-17.7c0-12.2,3.4-23.1,11-32.3c1.6-1.9,2.7-4.3,4.2-6.2c2.5-3.1,5.1-6,7.8-8.8c1.7-1.8,3.8-3.1,5.5-4.9
		c4.4-4.4,8.6-8.8,12.9-13.3c0.6-0.6,0.9-1.5,1.4-2.2c-0.1-0.2-0.3-0.4-0.4-0.6c-0.9,0.4-1.9,0.6-2.6,1.3c-2.8,2.4-5.6,5-8.4,7.5
		c-0.8,0.7-1.8,1.4-2.8,1.7c-1.7,0.4-2.6-0.8-1.6-2.4c1.1-1.8,2.4-3.5,3.9-4.8c2.8-2.5,5.9-4.6,8.8-7c0.9-0.7,1.6-1.7,2.4-2.6
		c-0.1-0.2-0.2-0.4-0.3-0.6c-0.9,0.2-1.9,0.2-2.6,0.6c-3.6,1.8-7.5,3.3-10.7,5.8c-9.1,7.1-17.9,14.5-26.7,22
		c-5.4,4.6-10.1,10.1-12.3,17.3c-1.3,4.2-2.3,8.5-2.8,12.9c-1.4,11.1-1.4,22.2,2.2,32.9c1.9,5.7,0.5,10.6-2.7,15.1
		c-2.2,3-5,2.6-7-0.5c-0.5-0.9-1.1-1.7-1.6-2.6c-4.4-7.4-8.7-14.7-13.1-22.1c-0.8-1.4-2-2.6-2.9-3.9c-1.1-1.5-2.2-3.1-3-4.7
		c-1-1.9-0.3-3.1,1.6-2.8c1.4,0.2,2.9,1.1,4.1,2.1c4.1,3.9,6.5,9.1,9,14.2c1.4,2.9,2.9,5.8,4.6,8.5c1,1.7,2.4,3.5,4.5,2.7
		c2.2-0.9,1.8-3.3,1.5-5.3c-0.6-3.4-1.5-6.7-2-10.1c-0.8-6-1.6-11.9-2-17.9c-0.7-11.2,3.4-20.6,9.9-28.9c7.5-9.7,16.9-17,26.1-24.6
		c7.7-6.3,15.2-13,22.9-19.5c3.3-2.8,6.4-5.7,9.9-8.1c0.4-0.3,0.7-0.5,1.1-0.8c-0.2-2-0.4-3.9-0.6-5.8c-0.9,0.9-1.8,1.8-2.7,2.6
		c-14.3,13.8-30.6,24.5-46,36.7c-0.1,0.1-0.2,0.2-0.4,0.3c-0.8,0-1.7,0.4-2.3,0c-0.5-0.4-1-1.7-0.8-2.2c0.6-1.4,1.5-3,2.6-3.9
		c4.1-3,8.4-5.7,12.6-8.6c2.7-1.9,5.3-4.1,8.1-5.8c10.5-6.2,19.2-14.9,27.5-24.1c0.2-0.2,0.3-0.4,0.5-0.5c-0.5-3.4-1.2-6.6-1.9-9.2
		c-15.5,9.7-31.4,18.5-46,29.9c-6,4.7-12.5,8.7-19.6,11.3c-1,0.4-2.1,0.5-3.2,0.7c-0.1-0.3-0.2-0.6-0.3-0.9c2.2-1.7,4.3-3.5,6.6-5.1
		c12.4-8.4,24.7-17.1,37.5-25c8-4.9,15.5-10.5,22.9-16.2c-0.3-0.6-0.7-1.2-1-1.7c-0.1-0.1-0.1-0.2-0.2-0.4l-3.4-1
		c-3.1,2.2-6.3,4.3-9.4,6.5c-3.8,2.6-7.5,5.5-11.4,8c-6,3.9-12.1,7.7-17.8,11.3c-1.9-0.1-3.6-0.6-4.9-0.1
		c-5.8,2.2-11.5,4.6-17.1,7.1c-8.9,4.1-17.7,8.4-26.6,12.5c-1.3,0.6-2.9,0.7-4.4,1c-0.1-0.3-0.2-0.6-0.4-0.9
		c1.5-1.1,2.8-2.4,4.4-3.2c6.9-3.6,13.9-7.1,20.9-10.5c10.4-5.1,20.9-9.8,31.2-15.2c6.9-3.6,13.4-7.8,20.1-11.9c3.2-2,6.4-4,9.5-6.3
		l-5.8-1.7c-10,7.3-20.8,12.9-32,17.7c-7.9,3.4-15.7,7.1-23.6,10.6c-12.9,5.8-25,13.2-36.1,22.5c-7.6,6.3-15.4,12.2-23.1,18.4
		c-2.1,1.7-3.8,2.2-5.8,0.3c-2.5-2.4-5.1-2-7.8-0.3c-0.9,0.6-1.8,1.1-2.6,1.8c-12,9.7-18.5,22.6-19.2,39c-0.2,4.4-0.3,8.8-0.5,13.3
		c0,1.1-0.2,2.1-0.4,3.2c-0.2,0-0.4,0.1-0.6,0.1c-0.4-1-0.9-2.1-1.2-3.1c-2.1-7.9-2.6-16-2-24.2c0.9-12.7,5.6-23.4,15.3-30.8
		c10.6-8,21.6-15.5,32.4-23.2c1.3-0.9,2.8-1.4,4.3-1.9c0.8-0.3,1.8,0,2.7,0c-7.2,7.1-15,13-21.3,20.9c1.7-0.2,3.2-0.6,4.4-1.5
		c5.9-4.2,11.8-8.3,17.5-12.8c10.1-8,20.6-15,31.9-20.8c6.2-3.2,12.4-6.5,18.6-9.8c9.6-5.2,19.2-10.3,28.7-15.8
		c3.3-1.9,6.2-4.5,9.2-7.1l-5.6-1.7c-1.3,0.6-2.5,1.2-3.7,1.9c-15.1,8.6-30.2,17.4-45.3,26.1c-0.7,0.4-1.3,0.7-2,0.9
		c-1.5,0.4-2.4-0.6-2.4-2.2c0-1.9,1.3-2.4,2.6-2.9c16.1-6.3,30.7-15.5,45.2-25c-0.6,0-1.5-0.1-2.4-0.2c-1.8-0.1-4-0.2-6.7-0.4
		c-5.7,3.3-11.4,6.7-17,10.3C552.7,66.1,539,72,525.3,78.2c-1.5,0.7-2.5,0-3-1.5c-0.4-1.4-0.5-2.7,1.3-3.5c4.9-2.3,9.6-4.9,14.4-7.4
		c6-3.1,12-6.2,18-9.5c4.1-2.2,8.1-4.7,12.1-7.1c0.8-0.5,1.4-1.2,2.2-1.8c-0.1-0.2-0.1-0.3-0.2-0.5c-0.2,0-0.4,0-0.6,0
		c-1,0.2-2,0.4-2.9,0.8c-8.1,3.5-16.2,7-24.3,10.5c-4.1,1.7-8.1,3.8-12.3,4.9c-6.4,1.7-13,2.8-19.6,4c-1,0.2-2.1-0.2-3.1-0.4
		c-0.1-0.3-0.2-0.6-0.2-1c1.4-0.8,2.8-1.8,4.3-2.4c9.5-3.7,19.1-7.3,28.7-11c0.6-0.2,1.3-0.2,1.9-0.2c1.6-0.1,3.5,0.5,4.9-0.2
		c3.6-1.7,7.1-3.6,10.5-5.5c-4.1-0.1-8.3-0.2-12.5-0.2c-1,0-2,0-2.9,0c-6.8,2.4-13.5,4.7-20.2,7.2c-19,6.9-37.5,14.8-54.9,25.8
		c-2,1.2-4.2,2.1-6.3,3c-0.9,0.4-1.9,0.3-2.9,0.5c-0.1-0.2-0.2-0.4-0.4-0.7c0.7-0.9,1.3-1.9,2.1-2.6c2.7-2,5.3-4.1,8.2-5.8
		c16.3-9.5,33.1-17.6,50.3-24.7c0.7-0.3,1.4-0.5,2.1-0.7c2.7-0.7,5.4-1,8-1.8c-8.3,0.3-15.9,0.7-21.4,1.1
		c-6.1,2.7-12.1,5.8-17.8,9.4c-6.1,3.9-12.3,7.5-18.2,11.5c-4.1,2.8-8.6,4.4-13.2,5.6c-1.2,7.1-2.1,15.7-2.6,24.4
		c5.7-5.4,11.8-10.3,18.4-14.5c9.8-6.2,20.2-10.7,31.4-12.7c1.6-0.3,3.3,0.2,4.9,0.6c0.6,0.2,1.2,1.2,1.4,1.9
		c0.1,0.4-0.9,1.2-1.5,1.5c-9.3,4.7-18.7,9.3-28.1,13.9c-1.5,0.8-3.2,1.5-4.5,2.6c-7.6,6-15.2,11.8-22.6,17.9
		c-0.1,2.6-0.2,5.1-0.3,7.5c1.7-1.9,3.5-3.8,5.4-5.5c13.7-12.8,29.7-21.5,45.9-30c3.7-1.9,7.5-3.8,11.3-5.7c1,1.7,1.7,3.1,2.6,4.6
		c-1.2,0.6-2.3,1.1-3.5,1.6c-10.6,5.2-21.3,10.1-31.7,15.6c-11.2,5.9-20.7,14.6-28.2,25.3c-0.7,1.1-1.5,2.2-2.1,3.3
		c-0.3,6.5-1,11.2-2,14.7c2.9-9.9,8.7-18.6,17.2-26.1c3.8-3.4,8-6.4,12.4-8.9c12.4-7.1,24.5-14.9,38.2-18.8c0.6-0.2,1.1-0.6,1.6-0.9
		c5.4-3,10.9-5.9,16.2-9c1.9-1.1,2.8,0.2,3.5,1.6c1,1.8-0.7,2-1.5,2.4c-9.1,4.1-18.1,8.4-27.2,12.3c-17,7.4-32.2,18.1-46.1,30.8
		c-6.7,6.1-10.5,14.3-11.1,24.1c-0.7,11.9,0.2,23.7,3.1,35.2c3.6,14.5,8,28.8,12.1,43.2c3.1,10.8,7.8,20.7,13.8,29.8
		c6.3,9.4,13,18.5,19.5,27.8c5.8,8.3,13.1,14.6,21.3,19.8c12.9,8.1,26.4,14.8,40.5,20.1c6.7,2.5,13.6,3.9,20.7,3.8
		c12.6-0.1,25.1-0.4,37.7-0.9c7-0.3,13.6-1.7,19.7-4.6l0-6.9c-7.9,4-16.4,6.1-25.4,6.3c-9.2,0.2-18.4,0-27.5-0.3
		c-4.6-0.2-9.3-0.6-13.9-1.6c-17.7-3.8-34-11.6-49.5-21.4c-11.3-7.2-20.8-16.8-28.3-28.4c-4.6-7.2-8.7-14.7-13.2-22
		c-6.6-10.6-11-22.2-14.4-34.3c-2.9-10.5-5-21.1-2.5-32.1c0.4-1.6,0.5-3.3,0.6-5c0.5-7.2,0.8-14.5,1.3-21.7c0.7-8.6,4-15.9,9.6-22
		c2-2.1,4.3-3.4,7.1-3.3c1.8,0.1,3,1.2,2.5,3.1c-0.5,2.1-1.2,4.5-2.5,6c-3.7,4.2-6.2,9-8,14.4c-1.8,5.4-3.5,10.9-5.4,16.4
		c-2.7,7.9-3.1,16.1-1.6,24.2c2.5,13.4,6.9,26.3,11.5,39c2.8,7.7,5.7,15.4,10.2,22.2c12.5,19.1,27.8,34.9,46.5,46.5
		c9.9,6.1,20.2,11.6,31.8,12.9c2.9,0.3,5.9,0.7,8.8,0.9c8.4,0.7,16.8,1.8,25.2,1.7c13.3-0.1,25.5-4,37-10.4l0-5.5
		c-8.9,4.8-18.2,8.3-28,10c-6.3,1.1-12.8,0.5-19.3,0.7c-15.9,0.7-30.8-3.3-45.2-10.3c-14.4-7-27.6-16-38.2-28.8
		c-18-21.7-27.9-47.7-34.1-75.7c-0.8-3.4-0.7-7.1-1-10.7c2.8-0.3,4,0.8,4.7,3.6c1,4.2,1.9,8.4,3,12.6c0.4,1.5,1.1,2.9,1.7,4.4
		c0.3-0.1,0.6-0.1,0.9-0.2c0.2-1.1,0.5-2.3,0.4-3.4c-0.3-5.2-0.5-10.5-1.1-15.6c-1.3-10.1,0.2-19.4,4.6-28.4
		c5.1-10.4,12.4-18.1,21.9-23.5c12.4-7.1,25.6-12.3,38.8-17.2c13.1-4.9,25.5-11.2,37.1-19.3c7.5-5.2,14.8-10.6,22.4-15.7
		c3.6-2.4,7.4-4.4,11.2-6.4c0.8-0.4,1.7-0.6,2.6-0.9c0.1,0.2,0.3,0.5,0.4,0.7c-1.6,1.6-3.1,3.3-4.9,4.6c-10.8,8-21.4,16.2-32.4,23.7
		c-13,8.8-26.4,17-41.5,20.9c-10.2,2.6-20,6.5-29.4,11.5c-2.8,1.5-5.3,3.4-7.9,5.3c-0.6,0.5-0.9,1.6-1.3,2.4c0.8,0.3,1.8,1,2.5,0.8
		c3.5-0.9,7-1.9,10.4-3.2c4.7-1.8,9.2-4.2,13.9-5.8c3.1-1,6.4-1.3,9.6-1.6c1.1-0.1,2.5,0.6,3.4,1.4c1.5,1.3,1.3,2.6-0.5,3.6
		c-1.8,0.9-3.7,1.7-5.6,2.4c-8.1,2.7-16.1,5.3-24.2,7.9c-3.7,1.1-7.4,1.6-11-0.6c-0.7-0.5-2.1-0.3-2.9,0.1c-1.3,0.7-2.5,1.7-3.5,2.8
		c-3.7,3.9-5.2,9.1-6.3,14.4c-2,9.9-1.6,19.8-0.5,29.8c2.7,23.5,11.5,44.1,25.5,62.1c1.6,2.1,3.8,3.8,5.9,5.3
		c0.9,0.7,2.4,0.5,3.6,0.7c-0.4-1.2-0.6-2.6-1.3-3.6c-2.3-3.2-5-6.1-7.2-9.5c-3.5-5.6-6.8-11.3-10-17.1
		c-10.4-18.2-13.7-38.1-11.4-59.3c0.4-3.9,1.2-7.8,2-11.6c0.2-0.9,0.8-1.7,1.2-2.5c0.3,0.1,0.5,0.1,0.8,0.2c0.1,1.8,0.4,3.6,0.3,5.4
		c-0.3,4.9-0.9,9.8-1.2,14.6c-0.5,8.8-1.3,17.9,2,26.2c4.3,10.8,9.4,21.3,14.2,31.9c0.1,0.3,0.3,0.6,0.5,0.8
		c5.5,6.4,10.8,13.1,16.6,19.1c5.4,5.6,11.6,10.2,18.5,13.5c3.4,1.6,4,2.9,2.9,6.7c-0.2,0.7-0.4,1.4-0.7,2c-1,2-0.6,3.9,0.6,5.6
		c2.9,4,6.5,6.7,11.4,6.9c2.4,0.1,4.7,0.1,7.1,0c1,0,2-0.4,3-0.6c-0.1-2.8-1.6-3.8-3.5-4.3c-2.1-0.5-4.2-0.7-6.3-1.1
		c-3.7-0.8-5-2.6-4.3-5.8c0.5-2.1,2.2-2.2,5.8-1c2.4,0.8,4.9,1.2,7.4,1.4c2.6,0.1,5.2-0.1,7.7-0.5c2-0.3,2.4,0.6,2,2.4
		c-0.5,2.3-1.2,4.5-1.6,6.8c-0.6,3.4,0.5,5,3.6,4.6c4.4-0.6,8.9-1.3,13.2-2.8c15.9-5.6,28.9-15.7,41.1-27.3l0-9.6
		c-7.3,9-14.7,18-25.1,23.1c-6.5,3.2-13.2,6-19.9,8.8c-1.3,0.6-2.9,0.8-4.3,0.7c-0.8-0.1-1.6-1.1-2-1.5c0.3-3.2,1.5-4.8,3.5-5.7
		c3.8-1.6,7.5-3.4,11.4-4.8c8.6-3.2,15.9-8.4,22.4-15.2c2.7-2.8,5.3-5.6,8.1-8.3c1.3-1.3,2.8-2.4,4.2-3.5c0.6-0.4,1.2-0.8,1.8-0.6
		l0-14.4c-1,1.9-2.1,3.7-3.3,5.3c-4.2,5.6-9,10.6-13.7,15.7c-1.1,1.2-2.8,2-4.4,2.6c-1.4,0.6-2.1-0.3-1.5-1.8
		c0.5-1.2,1.2-2.4,1.9-3.5c2.8-4.5,5.8-8.9,8.5-13.4c4.9-8.1,9.4-16.5,12.5-25.6l0-18.4c-0.1,0.2-0.2,0.5-0.3,0.7
		c-3.7,10-7,20.2-11.1,29.9c-4.6,10.9-11.3,20.2-20.9,26.6c-5,3.4-10,7-15.2,10c-13.5,7.8-27.2,9-41,0.4c-1.9-1.2-3.8-2.2-5.7-3.3
		c-19.3-11.7-32.8-28.8-39.7-51.7c-4.1-13.7-4.5-27.6,0.4-41.4c1.3-3.8,3.5-6.5,6.7-8.7c7-4.9,14.7-7.7,22.8-9.6
		c4.5-1,8.9-2.4,13.5-2.8c6.6-0.6,11.2-3.8,13.6-10.5c0.4-1,0.2-2.3,0.3-3.4c-1,0.1-2,0.2-2.9,0.4c-1.6,0.4-3.6,1.7-4.5-0.6
		c-0.8-2.2,1.3-3.1,2.8-3.9c4.2-2.4,8.4-4.8,12.5-7.2c1.6-1,3.1-1.6,4.6,0.1c1.3,1.6,1,3.7-0.5,5.6c-2.1,2.7-4,5.5-6,8.3
		c-3.1,4.3-5.9,8.9-9.3,12.9c-3,3.7-7,5.3-11.6,4.3c-1.4-0.3-2.8-0.4-4.2-0.3c-11.2,1.2-21.7,4.8-31,12c-1.9,1.4-3.3,3.9-4.2,6.3
		c-2.5,6.3-0.3,12,2.6,17.6c2.3,4.4,4.5,8.9,6.2,13.5c4.7,12.2,9.4,24.4,18.6,33.6c5.6,5.7,11.6,10.8,18.3,14.8
		c2.3,1.4,4.6,3,6.8,4.6c0.6,0.5,1.1,1.3,1.6,1.9c-0.1,0.2-0.2,0.4-0.3,0.6c-1.1-0.2-2.2-0.3-3.2-0.7c-8.2-3.2-16.2-7-22.5-13.7
		c-12.2-13.1-22.4-27.6-25.6-46.6c-0.3-1.6-1.1-3.1-1.7-4.6c-0.3,0.1-0.5,0.1-0.8,0.2c-1.2,2-1.4,4.4-1,6.6
		c0.8,4.8,1.5,9.8,3.2,14.2c9.2,23.6,24.2,41,46.7,49.9c6.3,2.5,12.5,3,19,0.3c12.3-4.9,24.3-10,35-18.5c5.4-4.3,9.5-9.7,12.1-16.3
		c2.2-5.5,4.1-11,5.7-16.7c3.2-11.7,6.3-23.4,10.2-34.9l0-17.4c-5.7,15.8-10.6,31.9-13.1,48.7C628.9,215.8,625.5,221.4,621.7,226.9z
		 M529.4,120.9c-6.4,3.6-12.8,7.1-18.9,11.1c-16.5,10.7-24.9,27.4-28.2,47.4c-0.1,0.6-0.1,1.1-0.2,1.7c0,0.1-0.2,0.3-0.3,0.5
		c-0.5-0.3-1.1-0.7-1.6-1c-0.6-0.3-1.2-0.5-2-0.8c0.1-0.6,0.1-1.3,0.2-1.9c2.9-10.9,6.5-21.5,12-31.3c3.2-5.8,7.4-10.7,12.5-14.5
		c15.4-11.3,32-20.1,48.7-28.8c6.3-3.3,12.4-6.8,18.6-10.2c1.3-0.7,2.7-1.2,4.1-1.9c0.2,0.3,0.4,0.6,0.6,1c-1.4,1.4-2.7,3-4.3,4.1
		c-5.7,3.9-11.3,8-17.2,11.4C545.5,112.4,537.4,116.4,529.4,120.9z M564.7,274.3c0.5-0.2,1.2-0.1,2-0.2c1.2,0.2,2.7,0.4,4.2,0.6
		c11.9,2,22.8-0.7,33-7.7c1.4-1,2.9-2,4.5-2.6c2.5-1.1,3.6-0.1,3.1,2.8c-0.2,1.1-1,2.2-1.7,3.2c-0.5,0.7-1.3,1-1.9,1.6
		c-5,4.9-10.8,7-17.5,7.5c-7.5,0.5-15,1.1-22.5-0.4c-1.2-0.3-2.5-0.6-3.6-1.2c-0.7-0.4-1-1.4-1.5-2.1
		C563.4,275.3,564,274.6,564.7,274.3z M576.4,168.1c0.2-8.2,2.8-15.6,7.6-21.9c5.3-7,11.5-13.2,18.4-18.4c1.9-1.4,3.6-2.9,6.8-3.2
		c-0.7,1.6-1,2.9-1.7,3.7c-3,3.5-6,6.9-9.1,10.2c-4,4.2-8.2,7.9-11.5,12.9c-3.4,5.1-5,10.4-5.2,16.5c-0.2,5.1-0.6,10.3-1,15.4
		c-0.2,2.4-0.2,5-2.7,7.4c-0.4-1.6-0.8-2.7-0.8-3.7C576.9,180.7,576.3,174.4,576.4,168.1z M533,164.6c5.8-4.3,12.2-5.9,19.2-4.6
		c3.6,0.7,5.6,3.7,6.7,7c1.4,4.1,2.1,8.5,3,12.8c0.2,0.9-0.1,2-0.2,3c-0.3,0.1-0.5,0.1-0.8,0.2c-0.4-0.7-0.9-1.4-1.3-2.1
		c-0.8-1.8-1.7-3.6-2.4-5.4c-1.5-4.3-4.5-6.9-8.2-8.7c-4.8-2.3-9.3-1.2-12.3,3.1c-2.7,3.9-2.4,8.8,0.9,13
		c8,10.3,16.1,20.5,24.2,30.8c2,2.6,4.3,4.7,7.5,5.1c1.9,0.2,3.5-0.3,4.7-1.9c0.8-1,1.7-2.2,2.7-2.7c0.9-0.4,2.3-0.2,3.2,0.3
		c0.3,0.2,0.3,2.1-0.1,2.8c-3,5.8-10.1,10.1-17.3,5.2c-4.4-3-7.9-7-11.2-11.2c-7.1-9.1-14.2-18.3-21.3-27.4
		C525.5,177.8,526.5,169.4,533,164.6z M615.6,235.6c-9.5,11.5-21.4,17.7-35.2,20.1c-1.6,0.3-3.3,0-4.9,0c-0.1-0.3-0.1-0.7-0.2-1
		c1.2-0.6,2.3-1.2,3.6-1.7c3.6-1.2,7.3-2.2,10.8-3.6c9.5-3.8,17.7-9.5,23.9-18.4c0.3-0.4,0.6-0.7,1-1.2
		C618.4,232,618.4,232.1,615.6,235.6z"/>
	<path d="M458.7,68.6c8.3-6.4,17.2-11.7,26.6-16.1l-22.9,6.9c-0.1,0.2-0.2,0.4-0.3,0.5c-1.4,1.9-2.6,4.9-3.5,8.8
		C458.6,68.7,458.7,68.7,458.7,68.6z"/>
	<path d="M627.1,341.2c-14.6,4.5-29.3,8-44.8,6.6c-16.7-1.5-32.7-5.7-47.7-13.7c-11.1-5.9-20.8-14.1-30.8-21.8
		c-6-4.6-11.6-9.7-17.3-14.7c-1.7-1.5-2.9-3.6-4.1-5.6c-0.4-0.7-0.6-2.3-0.2-2.9c0.4-0.5,1.8-0.6,2.6-0.3c5.1,1.6,9.4,4.6,12.9,8.9
		c2.2,2.7,4.1,5.8,6.4,8.4c2.9,3.4,5.8,7,9.3,9.5c28.3,20.9,59.7,28.4,93.5,25.6c6.4-0.5,12.8-1.3,18.9-3.9c2.2-1,4.4-2.3,6.4-3.7
		c0.8-0.6,1.3-1.7,2.3-3.1c-1.6-0.1-2.4-0.3-3.2-0.2c-3,0.4-6.1,0.6-9,1.4c-18.2,5.3-36.5,5.3-55,2.6c-17.2-2.5-32.6-9.6-47.2-19.2
		c-2.1-1.3-3.9-3.2-5.7-5c-0.7-0.6-1-1.6-1.5-2.4c0.1-0.2,0.2-0.4,0.3-0.5c0.7,0.2,1.5,0.2,2.2,0.6c1.6,0.9,3.1,1.9,4.6,3
		c11.8,9.2,25.3,14.6,38.9,19.8c1.6,0.6,3.5,0.3,5.2,0.4c0.1-0.4,0.2-0.8,0.3-1.3c-1.8-1-3.4-2.2-5.3-3c-5.7-2.5-11.5-4.7-17.1-7.4
		c-17.9-8.5-33.5-20.5-45.3-37.7c-1.5-2.1-3.1-4.1-4.5-6.2c-13.1-18.7-24.6-38.3-30.1-61.3c-0.7-3-1.7-5.8-2.6-8.7
		c-3.9-12.3-7.4-24.8-9.2-37.7c-1.3-9.1-0.8-17.5,1.3-25.2c-1.2,4.2-2.7,6.3-3.7,7.4l0,27.1c1.9,10.6,4.3,21,7.4,31.3
		c0.9,3.1,1.5,6.4,2.1,9.6c0.1,0.7,0,1.5-0.4,2.6c-0.5-0.6-1.1-1.1-1.5-1.8c-0.9-1.7-1.9-3.5-2.6-5.3c-1.8-4.5-3.4-9-4.9-13.5
		l0,13.3c3.1,5.8,5.8,11.7,8.4,17.8c0.3,0.6,0.6,1.4,0.5,2.1c0,0.7-0.3,1.9-0.7,2c-0.6,0.2-1.5-0.1-2.1-0.6c-0.6-0.4-1-1.2-1.3-1.9
		c-1.6-2.7-3.1-5.4-4.7-8.1l0,10.1c6.6,10,13.8,19.5,20.6,29.3c2,2.9,3.7,6,5.4,9.1c0.4,0.7-0.1,2-0.2,3c-0.8-0.4-1.9-0.5-2.5-1.2
		c-3.1-3.9-6.1-7.9-9.1-11.8c-4.8-6.2-9.5-12.4-14.3-18.7l0,8.8c2.8,3.7,5.5,7.5,8.3,11.2c4.3,5.6,9.3,10.6,13.9,16
		c0.7,0.8,1.2,1.8,1.8,2.7c-0.2,0.3-0.4,0.6-0.6,0.8c-1.8-1-3.7-1.7-5.3-2.9c-3.8-2.8-7.4-6-11.1-8.8c-1.2-0.9-2.7-1.3-4-1.9
		c-0.2,0.3-0.4,0.7-0.7,1c1.3,1.5,2.5,3.2,4,4.5c8,7.3,16,14.5,24,21.8c5.7,5.2,11.4,10.6,17,15.9c5.5,5.2,11.1,10.4,16.6,15.7
		c1.5,1.4,1.4,2.9,0.2,4.6c-1.2,1.8-2.4,1.6-3.8,0.7c-1.6-1.1-3.2-2.1-4.6-3.4c-3.1-2.9-6.1-5.9-9.1-8.9
		c-11.8-11.8-23.7-23.6-35.4-35.5c-3.8-3.9-7.6-7.8-11.3-11.7l0,36.8c0.5,0.5,0.9,1,1.4,1.5c1.6,1.8,2.8,4.1,3.9,6.4
		c0.3,0.6-0.2,1.7-0.4,2.6c-0.6-0.3-1.4-0.5-1.9-1c-1-1.1-2-2.2-3.1-3.3l0,8.3c5.4,5.9,11.2,11.5,17.3,16.7c6,5,12.1,9.9,18,14.9
		c0.8,0.7,1.3,1.6,2,2.4c-0.2,0.2-0.3,0.4-0.5,0.7c-0.8-0.3-1.7-0.4-2.4-0.8c-1.6-0.9-3.2-2-4.8-3.1c-4.5-3.3-8.8-6.8-13.3-10.1
		c-3.4-2.5-7.1-4-11.2-5c1,1.6,2,3,3.3,4c4.9,3.7,9.8,7.6,15,10.8c0.5,0.3,1,0.6,1.5,0.9c6.1,1.8,12.6,4,19.6,6.2
		c3.2,1,6.4,2,9.8,2.9c-11.6-9.2-23.1-18.6-34.6-28c-2-1.6-3.8-3.6-5.1-5.9c-0.9-1.5-0.9-3.8-0.8-5.7c0-1.4,1.1-1.8,2.3-0.9
		c0.6,0.5,1.1,1,1.7,1.5c13.7,12.2,27.5,24.4,41.3,36.6c2.5,2.2,5.2,3.9,8,5.4c5.4,1.1,11.1,2,17,2.5c-12.9-5.4-25.1-12.7-36.1-22.5
		c-15.4-13.6-29.9-28.4-44.4-43c-0.7-0.7-1.5-1.5-1.8-2.4c-0.3-0.8-0.5-2.2-0.1-2.8c0.4-0.6,1.8-1,2.5-0.7c1.4,0.6,2.8,1.5,3.9,2.6
		c8.1,8.2,16.4,16.3,24.2,24.8c16.6,18.1,35.9,31.6,57.5,41.4c2.2,1,4.5,1.8,6.8,2.3c1.3,0.3,2.6,0.6,4,0.9
		c6.4-0.2,12.5-0.9,18.3-1.9c-1.2-0.3-2.4-0.5-3.6-0.9c-1.7-0.5-3.5-0.6-5.3-0.7c-9.9-0.6-19-3.8-27.7-8.7
		c-6.9-3.9-13.8-7.9-20.4-12.3c-4.8-3.2-9.4-6.8-13.5-10.9c-14.1-14-27.9-28.3-41.8-42.6c-1.2-1.2-2.2-2.6-3.1-4.1
		c-0.5-0.8-0.4-1.9-0.6-2.9c1,0,2.2-0.3,2.9,0.2c2.8,2,5.6,3.9,8,6.4c14.1,14.4,28,29.1,42.3,43.4c4.8,4.8,10.1,8.9,15.5,12.8
		c4,2.9,8.5,4.9,12.8,7.2c0.6,0.3,1.4-0.1,2.2-0.1c-0.2-0.8-0.1-1.8-0.6-2.4c-0.6-0.8-1.4-1.4-2.3-1.9c-2.1-1.3-4.4-2.3-6.5-3.7
		c-2.5-1.8-5-3.7-7.3-5.8c-1.2-1.1-2.5-2.9-1-4.6c1.4-1.6,2.5,0.4,3.5,1.2c11.5,9.9,24.3,17,38.3,21.8c10,3.4,20.2,5,30.6,2.6
		c2-0.5,4-0.9,6.1-1.4c13.1-4.1,24.6-8.3,35.2-9.4c4.3-1.6,8.5-3.3,12.6-5.2l0-5.4c-1.5,0.8-3.1,1.6-4.6,2.4
		c-14.6,7.2-30.3,11-45.9,14.5c-1.9,0.4-4-0.1-6-0.6c-1.2-0.3-2.7-1-2.3-2.9c0.4-1.8,1.6-2.5,3.4-2.6c5.9-0.4,11.9-0.5,17.6-1.7
		c8.1-1.8,16-4.5,24-6.8c0.8-0.2,1.5-0.6,2.2-1c3.8-2.4,7.6-4.8,11.5-7.3l0-7.2c-1.2,0.9-2.3,1.8-3.4,2.8
		C635.9,336.8,631.8,339.7,627.1,341.2z M459,242.1c-1.4-2.2-1.5-4.7-0.1-6.8c0.6-0.9,2-1.4,3.2-1.5c0.6-0.1,1.5,1,1.9,1.8
		c2.2,4.7,4.2,9.6,6.3,14.4c4.3,9.9,9.4,19.3,16.5,27.2c1.4,1.6,2.6,3.5,3.9,5.3c0.5,0.7,0.8,1.6,1.3,2.9c-1.1-0.2-1.7-0.2-2.1-0.4
		c-3.6-1.9-7.1-3.9-9.4-7.8C473.4,265.5,466.1,253.8,459,242.1z M579.2,356.9c-0.3,1.1-1.7,2.5-2.7,2.5c-4,0-8.1,0.1-11.9-0.8
		c-11.7-2.8-22.3-8.9-32.9-14.9c-1.5-0.8-2.6-2.4-3.8-3.6c0.1-0.3,0.3-0.6,0.4-0.9c1.3,0.3,2.7,0.4,3.9,0.9
		c5.2,2.1,10.3,4.7,15.6,6.3c8.8,2.7,17.8,4.7,26.7,7c0.7,0.2,1.5,0.2,2.2,0.4C578.4,354.1,579.6,355.3,579.2,356.9z"/>
	<path d="M633.8,283.3c-10.6,7.1-21.9,12.7-34,16.3c-6.5,2-13.1,4.2-19.9,2.9c-6.7-1.3-13.5-2.7-20-5.1c-15.9-5.7-28.8-16.6-40.7-29
		c-7.4-7.7-13.1-16.6-16.9-27.1c-2.7-7.5-6.3-14.5-9.6-21.7c-0.6-1.3-1.6-2.3-2.4-3.5c-0.2,0.1-0.5,0.3-0.7,0.4
		c0.3,1.5,0.4,3.1,0.9,4.5c2.6,7.5,5,15.2,8.2,22.4c9,20.6,22,37.4,40.1,49.4c19.8,13.1,41.8,15.6,64.3,15.6c4.8,0,9.6-1,14.3-1.7
		c2.2-0.4,4.4-1.1,6.3-2.1c6.5-3.2,12.9-6.6,19.3-9.8l0-6.4c-4.5,2.5-9,5.1-13.6,7.4c-5.1,2.6-10.3,4.8-15.5,7.1
		c-0.9,0.4-2,0.4-3,0.6c-0.1-0.2-0.2-0.5-0.2-0.7c1.3-0.9,2.5-1.8,3.8-2.6c8.8-5.3,17.8-10.2,26.4-15.8c0.7-0.5,1.4-1,2.1-1.5l0-7.6
		c-0.2,0.3-0.5,0.5-0.7,0.8C639.7,278.8,636.9,281.3,633.8,283.3z"/>
	<path d="M623,162.3c-0.7,1.5,0.1,4.7,1.5,5.3c2,0.8,2.3-1.3,3.2-2.5c0.2-0.3,0.3-0.6,0.4-0.9c2.8-5.1,5.4-10.3,8.4-15.3
		c1.2-2,2.4-4,3.6-6c-0.4-1.4-0.9-3-1.2-5c-4.3,6.2-8.6,12.4-12.8,18.7C624.9,158.4,624,160.3,623,162.3z"/>
	<path d="M632.1,100.8c0.2,0.3,0.4,0.5,0.6,0.8c0.9-0.4,1.8-0.8,2.6-1.3c0.4-0.3,0.8-0.6,1.2-0.9c-0.1-1.4-0.2-2.7-0.3-4.1
		c-0.8,0.9-1.6,1.7-2.5,2.6C633.1,98.6,632.7,99.8,632.1,100.8z"/>
	<path d="M548.5,283.4c0.1-0.3,0.2-0.5,0.3-0.8c-0.5-0.8-0.8-1.8-1.4-2.3c-3.9-3.1-7.8-6.2-11.8-9.1c-0.7-0.5-1.7-0.7-2.5-0.6
		c-0.6,0.1-1.4,0.7-1.6,1.2c-0.2,0.4,0.1,1.5,0.5,1.9c4,4,8.2,7.6,13.5,9.3C546.3,283.3,547.4,283.3,548.5,283.4z"/>
	<path d="M449.4,336.7c-0.6-0.5-1.1-1-1.7-1.5l0,4c0.6,0.5,1.6,0.3,2.5,0.5C449.9,338.7,449.9,337.3,449.4,336.7z"/>
	<path d="M447.7,353.3c0.1,0,0.3,0.1,0.6,0.1c0.7,0.1,1.9,0.2,3.9,0.3c-1.6-0.9-3.2-1.6-4.6-1.9L447.7,353.3z"/>
	<path d="M117.6,59.7l-3.7,1.1c0.7,0.9,1.5,1.8,2.2,2.8C116.5,62.1,116.9,60.9,117.6,59.7z"/>
	<path d="M114.8,69c-1.9-2.3-3.8-4.6-5.7-6.8l-4.8,1.5c3.1,4.1,6.2,8.3,9.3,12.5C114,73.6,114.4,71.2,114.8,69z"/>
	<path d="M112,91.9c0.2-2.9,0.5-5.8,0.8-8.6c-2.4-3.5-4.7-7-7.1-10.5c-1.8-2.7-4-5.1-5.6-7.9l-5.5,1.7c3.8,5.2,7.6,10.4,11.2,15.7
		C107.9,85.5,110,88.7,112,91.9z"/>
	<path d="M82.4,112.4c5.7,12.8,13,24.7,22.2,35.7c0.5-0.5,1.3-1.4,2.1-3c1.2-2.4,2.5-6.4,3.2-12.8c-2.3-4.3-4.6-8.6-6.8-12.9
		c-3.3-6.3-6.8-12.4-10.2-18.6c-0.7-1.3-1.2-2.7-1.9-4.1c0.3-0.2,0.6-0.4,1-0.6c1.4,1.4,3,2.7,4.1,4.3c3.9,5.7,8,11.3,11.4,17.2
		c1,1.7,2,3.5,2.9,5.2c0.2-6.5,0.5-14,0.9-21.6c-3.4-6.7-7.2-13.2-11.6-19.4c-3.2-4.6-6.5-9.1-9.7-13.7l-5,1.5
		c3.4,5.1,6.9,10.2,10.8,15.1c4.7,6,8.7,12.5,11.3,19.6c0.4,1,0.5,2.1,0.7,3.2c-0.3,0.1-0.6,0.2-0.9,0.3c-1.7-2.2-3.5-4.3-5.1-6.6
		C95,90.8,88,80.8,81.4,70.6l-5.3,1.6c2.5,3.9,4.9,7.8,7.2,11.5c-0.1,1.9-0.6,3.6-0.1,4.9c2.2,5.8,4.6,11.5,7.1,17.1
		c4.1,8.9,8.4,17.7,12.5,26.6c0.6,1.3,0.7,2.9,1,4.4c-0.3,0.1-0.6,0.2-0.9,0.4c-1.1-1.5-2.4-2.8-3.2-4.4
		c-3.6-6.9-7.1-13.9-10.5-20.9c-5.1-10.4-9.8-20.9-15.2-31.2c-1.2-2.2-2.4-4.4-3.7-6.6l-4.8,1.5c2.3,4.4,4.4,8.9,6.3,13.4
		C75.2,96.7,78.9,104.5,82.4,112.4z"/>
	<path d="M73.6,105.8c-5.1-9.4-10.1-18.9-15.5-28.2l-6,1.8c8.2,14.4,16.6,28.7,24.8,43.1c0.4,0.7,0.7,1.3,0.9,2
		c0.4,1.5-0.6,2.4-2.2,2.4c-1.9,0-2.4-1.3-2.9-2.6c-6.1-15.6-14.9-29.8-24.2-43.9l-5,1.5c4.5,7.9,9.1,15.7,14,23.3
		c8.2,12.8,14.1,26.6,20.3,40.2c0.7,1.5,0,2.5-1.5,3c-1.4,0.4-2.7,0.5-3.5-1.3c-2.3-4.9-4.9-9.6-7.4-14.4c-3.1-6-6.2-12-9.5-18
		c-2.2-4.1-4.7-8.1-7.1-12.1c-0.5-0.8-1.2-1.4-1.8-2.2c-0.2,0.1-0.4,0.2-0.6,0.3c0.3,1.2,0.5,2.4,0.9,3.5c3.5,8.1,7,16.2,10.5,24.3
		c1.7,4.1,3.8,8.1,4.9,12.3c1.4,5.1,2.3,10.2,3.3,15.4l10.3-2.1c1.6-0.9,2.9-1.6,4.3-2.4c0.2,0.5,0.4,1,0.7,1.4l6.1-1.2
		c0-0.2-0.1-0.3-0.1-0.4c-0.2-0.6-0.6-1.1-0.9-1.6c-3-5.4-5.9-10.9-9-16.2c-1.1-1.9,0.2-2.8,1.6-3.5c1.8-1,2,0.7,2.4,1.5
		c3,6.5,6,13.1,9,19.6l8.6-1.7c-5.9-8.1-11.2-16.5-15.7-25.3C80.2,118.1,76.9,111.9,73.6,105.8z"/>
	<path d="M52,129c-0.1-1.6,0.5-3.5-0.2-4.9C50,120.4,48,116.7,46,113l9,40.5c0.6,1.6,1.2,3.1,1.8,4.7l5.4-1.1
		c-3.4-8.7-6.7-17.5-10-26.3C52,130.3,52,129.6,52,129z"/>
	<path d="M360.3,81.6c-0.1,1-0.4,1.9-0.6,2.9c-0.3,1.2-1,2.7-2.9,2.3c-1.8-0.4-2.5-1.6-2.6-3.4c-0.1-1.2-0.1-2.4-0.2-3.6l-6.2-1.9
		c0.2,3.6,0.1,7.2-0.2,10.8c-1.5,16.7-5.7,32.7-13.7,47.7c-3.1,5.9-6.9,11.3-10.9,16.7l23,4.7c1.5-2,3-4,4.5-6
		c0.2-0.3,0.4-0.6,0.7-1l2.7-12c-0.2,0.3-0.4,0.6-0.6,0.9c-1.3,2.1-2.3,4.4-3.7,6.5c-1.8,2.5-3.7,5-5.8,7.3c-1.1,1.2-2.9,2.5-4.6,1
		c-1.6-1.4,0.4-2.5,1.2-3.5c6.6-7.6,11.9-15.9,16.2-24.6l8.9-40.3c-0.1-1-0.3-1.9-0.5-2.9L360.3,81.6z M358.3,106.3
		c-2.8,11.7-8.9,22.3-14.9,32.9c-0.8,1.5-2.4,2.6-3.6,3.8c-0.3-0.1-0.6-0.3-0.9-0.4c0.3-1.3,0.4-2.7,0.9-3.9
		c2.1-5.2,4.7-10.3,6.3-15.6c2.7-8.8,4.7-17.8,7-26.7c0.2-0.7,0.2-1.5,0.4-2.2c0.3-1.6,1.5-2.8,3.1-2.4c1.1,0.3,2.5,1.7,2.5,2.7
		C359.2,98.3,359.3,102.4,358.3,106.3z"/>
	<path d="M328.4,85.3c0-4.5-0.1-9-0.2-13.5l-5.9-1.8c-0.1,3.6-0.2,7.2-0.3,10.7c-0.2,4.6-0.6,9.3-1.6,13.9
		c-3.8,17.7-11.6,34-21.4,49.5c-0.4,0.6-0.7,1.1-1.1,1.7c0.6,1,1.2,1.7,1.6,2.1c0.3,0.3,0.5,0.4,0.6,0.5l0.2,0.1l0,0l2.6,0.5
		c0.5-0.8,1.1-1.6,1.6-2.4c8.1-12.9,14.8-26.4,20.1-40.5C327.1,99.3,328.5,92.3,328.4,85.3z"/>
	<path d="M335.5,74c0.5,9.8-0.2,19.7-1.6,29.6c-2.5,17.2-9.6,32.6-19.2,47.2c-0.1,0.1-0.2,0.3-0.3,0.4l4.5,0.9
		c15.8-23.5,22.7-49.1,22.4-76.4L335.5,74z"/>
	<path d="M291.6,85.4c0.3,0.1,0.6,0.1,0.9,0.2c3.4,0.6,5-0.5,4.6-3.6c-0.6-4.4-1.3-8.9-2.8-13.2c-1-2.9-2.2-5.7-3.5-8.4l-4.7-1.4
		c1.3,2.4,2.2,5,3.1,9.2C290.2,73.1,291,79.1,291.6,85.4z"/>
	<path d="M302,120.3c-2.3,4.7-4.8,9.2-7.5,13.5c0.3,2.4,0.7,4.4,1.2,6c2.2-3,4.3-6,6.2-9.1c6.1-9.9,11.6-20.2,12.9-31.8
		c0.3-2.9,0.7-5.9,0.9-8.8c0.6-7.2,1.5-14.4,1.7-21.6l-5.1-1.6c0,2.7-0.1,5.4,0.1,8.2C313,91,309,105.9,302,120.3z"/>
	<path d="M330.6,107c-0.4-0.1-0.8-0.2-1.3-0.3c-1,1.8-2.2,3.4-3,5.3c-2.5,5.7-4.7,11.5-7.4,17.1c-3.5,7.3-7.5,14.2-12.2,20.6
		l4.2,0.8c8.9-11.7,14.3-25,19.4-38.3C330.8,110.6,330.5,108.8,330.6,107z"/>
	<path d="M295.2,95.8c0-1-0.4-2-0.6-3c-1,0-1.8,0.3-2.4,0.6c0.4,5.4,0.7,10.8,0.9,16c1.2-1.9,2-4.1,2-6.5
		C295.3,100.6,295.3,98.2,295.2,95.8z"/>
	<path d="M302.3,90.9c-1.3,6.7-2.7,13.5-5.1,20c-1.1,3-2.3,5.8-3.7,8.6c0.1,1.7,0.1,3.5,0.2,5.1c0.1,1.9,0.2,3.6,0.3,5.2
		c11.8-19.2,14.1-40.3,14.1-61.9c0-0.7,0-1.4-0.1-2.2l-11.8-3.6c1.2,2.9,2.2,5.9,3.1,9C301.4,77.5,303.6,84.1,302.3,90.9z"/>
	<path d="M384.4,84.5c0.3-0.5,0.7-1,1-1.5l-1.2,0.4L384.4,84.5z"/>
	<path d="M697.5,79.4l-4.9-1.5c4,9.3,7.9,18.6,11.9,27.9c0.2,0.5,0.5,1,0.7,1.6l1.6-7.2c-1.8-3.9-3.6-7.9-5.4-11.8
		C700,85.4,698.7,82.4,697.5,79.4z"/>
	<path d="M451.7,134.7c0.1,0,0.1,0,0.2,0.1c0.3-2.3,0.6-5,0.7-8.2c0,0,0,0,0,0c-2-1-3.9-0.6-5.6,0.6c-4,2.9-6.7,6.5-6.9,11.4
		c-0.1,2.4-0.1,4.7,0,7.1c0,1,0.4,2,0.6,3c2.8-0.1,3.8-1.6,4.3-3.5c0.5-2.1,0.7-4.2,1.1-6.3C446.7,135.3,448.6,133.9,451.7,134.7z"
		/>
	<path d="M681.8,92.4c-2.5-6.7-5.1-13.4-7.9-20l-11.6-3.5c0.6,2.1,1.1,4.3,1.5,6.5c0.3,1.6-0.2,3.3-0.6,4.9
		c-0.2,0.6-1.2,1.2-1.9,1.4c-0.4,0.1-1.2-0.9-1.5-1.5c-2.3-4.7-4.7-9.4-7-14.1l-5.6-1.7c2.1,3.8,4.2,7.7,6.2,11.6
		c1.9,3.7,3.8,7.5,5.7,11.3c-1.7,1-3.1,1.7-4.6,2.6c-0.6-1.2-1.1-2.3-1.6-3.5c-3.9-7.9-7.6-15.9-11.5-23.8l-7.3-2.2
		c5.5,9.5,10.9,19.1,13.8,29.7c0.2,0.6,0.6,1.1,0.9,1.6c3,5.4,5.9,10.9,9,16.2c1.1,1.9-0.2,2.8-1.6,3.5c-1.8,1-2-0.7-2.4-1.5
		c-4.1-9.1-8.4-18.1-12.3-27.2c-2.3-5.4-5-10.5-7.9-15.5c0.8,3,1.5,6.6,2,10.4c0.1,0.1,0.1,0.2,0.2,0.3c0.9,1.3,1.4,2.8,1.9,4.3
		c0.3,0.8,0,1.8,0,2.7c-0.5-0.5-0.9-1-1.4-1.5c0.4,3.3,0.7,6.7,0.9,10.2c5.5,7.6,10.4,15.5,14.6,23.8c3.2,6.2,6.5,12.4,9.8,18.6
		c3.2,5.9,6.4,11.8,9.6,17.7l7.7,1.4c-6.9-12-13.8-23.9-20.7-35.9c-0.4-0.7-0.7-1.3-0.9-2c-0.4-1.5,0.6-2.4,2.2-2.4
		c1.9,0,2.4,1.3,2.9,2.6c5.3,13.6,12.7,26.2,20.7,38.5l7,1.3c-4-7-8.1-14-12.5-20.8c-8.2-12.8-14.1-26.6-20.3-40.2
		c-0.7-1.5,0-2.5,1.5-3c1.4-0.4,2.7-0.5,3.5,1.3c2.3,4.9,4.9,9.6,7.4,14.4c3.1,6,6.2,12,9.5,18c2.2,4.1,4.7,8.1,7.1,12.1
		c0.5,0.8,1.2,1.4,1.8,2.2c0.2-0.1,0.4-0.2,0.6-0.3c-0.3-1.2-0.5-2.4-0.9-3.5c-3.5-8.1-7-16.2-10.5-24.3c-1.7-4.1-3.8-8.1-4.9-12.3
		c-1.7-6.4-2.8-13-4-19.6c-0.2-1,0.2-2.1,0.4-3.1c0.3-0.1,0.6-0.2,1-0.2c0.8,1.4,1.8,2.8,2.4,4.3c3.7,9.5,7.3,19.1,11,28.7
		c0.2,0.6,0.2,1.3,0.2,1.9c0.1,1.6-0.5,3.5,0.2,4.9c2.5,5.1,5.2,10.2,8,15.1c0.9,1.5,2.3,2.8,3.6,4.1c0.5,0.5,1.5,0.7,2.7,1.2
		c-0.3-0.9-0.3-1.3-0.5-1.6C692.2,121.7,687.2,107,681.8,92.4z"/>
	<path d="M456.3,75.2c0.4-2.3,0.8-4.4,1.3-6.4c-2.4,1.7-4.7,3.3-7.1,5c-8.3,5.8-14.6,13.1-19.8,21.3c-8.1,12.9-14.8,26.4-20.1,40.5
		c-2.5,6.7-3.9,13.6-3.8,20.7c0,0.1,0,0.2,0,0.2l6.8-1.3c0.3-2.8,0.6-5.5,1.2-8.2c3.8-17.7,11.6-34,21.4-49.5
		C441.5,89,448.3,81.5,456.3,75.2z"/>
	<path d="M691.3,86.4c-1.3-3.4-2.6-6.7-4.1-10l-7.2-2.2c2.2,4.8,4.2,9.5,6.2,14.4c0.3,0.7,0.5,1.4,0.7,2.1c0.8,3.4,1.2,7,2.6,10.3
		c3.6,8.8,7.4,17.7,11.1,26.5l2.7-12.2c-1.2-3.1-2.5-6.1-4-9.1C696.1,99.8,693.8,93,691.3,86.4z"/>
	<path d="M423.3,74.4c1-1.3,2.1-2.7,3.2-4l-12.2,3.7c-2.6,2.7-5.1,5.4-7.7,8.1c-1.4,1.5-2.9,1.4-4.6,0.2c-1.8-1.2-1.6-2.4-0.7-3.8
		c0.2-0.2,0.3-0.5,0.5-0.7l-10.1,3.1c-2.2,2.6-4.2,5.3-6.2,8l1.2,5.3c1.5-2.1,3.2-4.2,5-6.1c1.1-1.2,2.9-2.5,4.6-1
		c1.6,1.4-0.4,2.5-1.2,3.5c-2.5,2.9-4.9,6-7.1,9.1l1.5,6.8c0.8-1.4,1.6-2.9,2.4-4.3c0.8-1.5,2.4-2.6,3.6-3.8
		c0.3,0.1,0.6,0.3,0.9,0.4c-0.3,1.3-0.4,2.7-0.9,3.9c-1.4,3.6-3.1,7.1-4.5,10.6l2.4,10.9c2.1-6.6,4.8-13,8.1-19.3
		C407.3,94.2,415.6,84.5,423.3,74.4z"/>
	<path d="M637.8,102.9c0.2,3.9,0.4,7.8,0.5,11.6c2.6,5.1,5.2,10.2,7.7,15.4c3.4,6.9,6.7,13.9,10,20.9l7,1.3
		c-3.3-7.6-6.9-15.2-10.3-22.8C648.6,120,643.7,111.2,637.8,102.9z"/>
	<path d="M454.4,90.1c0.2-2.1,0.4-4.1,0.6-6.1c-8.3,8.1-15.6,17-21.7,26.8c-6.1,9.9-11.6,20.2-12.9,31.8c-0.3,2.9-0.7,5.9-0.9,8.8
		c-0.1,0.9-0.1,1.7-0.2,2.6l4.1-0.8c1.3-11,4.8-21.7,9.8-32C438.8,109.9,445.5,99.3,454.4,90.1z"/>
	<path d="M638.6,122.5c0,0.7,0,1.4,0.1,2.1l0,1.2c0.1,4.1,0.5,7.5,0.9,10.3c0.9,1.6,1.7,3.2,2.6,4.8c0.7,1.3,1.2,2.7,1.9,4.1
		c-0.3,0.2-0.6,0.4-1,0.6c-0.5-0.5-1-1-1.5-1.5c0.8,2.2,1.7,3.6,2.4,4.4l6.7,1.2c-1.8-4.7-3.8-9.3-5.9-13.9
		C642.8,131.3,640.7,126.9,638.6,122.5z"/>
	<path d="M704.6,81.6c1.4,3.5,2.7,7,3.8,10.5c0,0.1,0.1,0.1,0.1,0.2l2-9L704.6,81.6z"/>
	<path d="M416.3,112.5c8.5-17.9,20.5-33.5,37.7-45.3c1.8-1.2,3.5-2.5,5.2-3.8c0.5-1.4,1.1-2.6,1.8-3.5l-20.7,6.3
		c-0.8,0.8-1.6,1.5-2.5,2.3c-2.7,2.2-5.8,4.1-8.4,6.4c-3.4,2.9-7,5.8-9.5,9.3c-12.4,16.8-20.1,34.7-23.7,53.6l3.5,15.6
		c0.3-5.1,0.8-10.2,1.5-15.3c2.5-17.2,9.6-32.6,19.2-47.2c1.3-2.1,3.2-3.9,5-5.7c0.6-0.7,1.6-1,2.4-1.5c0.2,0.1,0.4,0.2,0.5,0.3
		c-0.2,0.7-0.2,1.5-0.6,2.2c-0.9,1.6-1.9,3.1-3,4.6c-9.2,11.8-14.6,25.3-19.8,38.9c-0.6,1.6-0.3,3.5-0.4,5.2
		c0.4,0.1,0.8,0.2,1.3,0.3c1-1.8,2.2-3.4,3-5.3C411.4,123.9,413.6,118.1,416.3,112.5z"/>
	<path d="M454,95.3c-4.1,4.3-7.9,9-11.3,14.2c-8.9,13.5-12.9,27.9-14.6,42.9l4.7-0.9c0-0.3,0.1-0.5,0.1-0.8c1.3-6.7,2.7-13.5,5.1-20
		c3.5-9.7,8.9-18.3,15.5-26.3C453.6,101.3,453.8,98.3,454,95.3z"/>
	<path d="M695.4,144.2c0.1,1.2,0.3,2.4,0.7,3.5l1.1-4.8C696.1,142.2,695.2,142.7,695.4,144.2z"/>
	<path d="M452.8,119.5c0.1-1.6,0.1-3.1,0.2-4.8c-0.2,0.4-0.3,0.9-0.5,1.3c-0.3,1-0.3,2.1-0.5,3.1
		C452.3,119.3,452.5,119.4,452.8,119.5z"/>
</g>
</svg>
