<?xml version="1.0" encoding="utf-8"?>
<!-- Generator: Adobe Illustrator 25.3.0, SVG Export Plug-In . SVG Version: 6.00 Build 0)  -->
<svg version="1.1" id="Layer_1" xmlns="http://www.w3.org/2000/svg" xmlns:xlink="http://www.w3.org/1999/xlink" x="0px" y="0px"
	 viewBox="0 0 750.2 400.1" style="enable-background:new 0 0 750.2 400.1;" xml:space="preserve">
<path d="M283.1,102.7H121.5c-0.4,1.3-0.9,2.6-1.3,3.8h164.2C284,105.3,283.6,104,283.1,102.7z"/>
<rect x="104.7" y="152.6" width="195.6" height="3.8"/>
<path d="M288.3,117.4c0.5,2.1,0.9,4,1.2,5.7l13.8-58.7l-2.4-0.7L288.3,117.4z"/>
<polygon points="316.8,152 319.2,152.5 337.4,74.8 335.1,74.1 "/>
<path d="M115.9,117.8c0.4-1.7,0.8-3.5,1.3-5.3l-11.3-49.2l-2.4,0.7L115.9,117.8z"/>
<polygon points="89.7,151.7 71.7,73.6 69.3,74.4 87.2,152.2 "/>
<path d="M644.8,63.6l-2.3-0.7l-11.7,49.6c0.5,1.8,0.9,3.6,1.3,5.3L644.8,63.6z"/>
<polygon points="679.1,73.9 676.7,73.2 658.4,151.2 660.8,151.6 "/>
<path d="M448.5,63.8l-2.4,0.7l12.6,54.6c0.4-1.7,0.8-3.6,1.3-5.5L448.5,63.8z"/>
<polygon points="429.7,152.2 432.2,151.7 414.3,74.2 411.9,74.9 "/>
</svg>
