<?xml version="1.0" encoding="utf-8"?>
<!-- Generator: Adobe Illustrator 25.3.0, SVG Export Plug-In . SVG Version: 6.00 Build 0)  -->
<svg version="1.1" id="Layer_1" xmlns="http://www.w3.org/2000/svg" xmlns:xlink="http://www.w3.org/1999/xlink" x="0px" y="0px"
	 viewBox="0 0 750.2 400.1" style="enable-background:new 0 0 750.2 400.1;" xml:space="preserve">
<g>
	<path d="M598.8,185l22.2,3.3c-0.5-2.4-0.9-4.8-1.4-7.2l-22-3L598.8,185z"/>
	<path d="M413.5,157.8l17.2,2.5l0.8-4.8l-16.8-2.3l-0.1-1.1C414.3,154,413.9,155.9,413.5,157.8z"/>
	<path d="M431.2,147.5l0,0.8l1.5,0.2l4-22.7c-2.5-0.3-4.8-0.5-6.8-0.8L431.2,147.5z"/>
	<path d="M596.1,169.5l21.7,2.8c0-0.1,0-0.2-0.1-0.3L596,169L596.1,169.5z"/>
	<path d="M348.5,219.5l-22.6-3l0.9,5.2l22.6,3.3C349.1,223.1,348.8,221.3,348.5,219.5z"/>
	<path d="M399.3,232l18.4,2.6l1-5.7l-18.5-2.5C400,228.4,399.6,230.2,399.3,232z"/>
	<path d="M612.3,262.7l21.4,3.1c-0.3-2.5-0.6-5.1-0.9-7.8l-21.8-3L612.3,262.7z"/>
	<path d="M138,144.1l16.8,2l0.1-0.6l-16.8-1.8C138.1,143.9,138.1,144,138,144.1z"/>
	<polygon points="319.7,153.6 319.8,152.2 315.3,151.6 314.6,151.5 318.5,173.9 	"/>
	<path d="M346.8,209.7l-22.5-3.1l0.4,2.5l22.5,2.9C347,211.2,346.9,210.4,346.8,209.7z"/>
	<path d="M156.2,138.1l1.1-6.4l-16.1-2c-0.5,2.1-0.9,4.3-1.4,6.6L156.2,138.1z"/>
	<path d="M420.3,219.9l-18.5-2.6c-0.1,0.6-0.2,1.1-0.3,1.7l18.5,2.4L420.3,219.9z"/>
	<path d="M124,214.6l18.5,2.2l0.4-2.1l-18.5-2C124.2,213.4,124.1,214,124,214.6z"/>
	<path d="M144.1,208l0.9-5l-18.4-2.3c-0.3,1.8-0.7,3.5-1,5.3L144.1,208z"/>
	<path d="M592,145.7l1.1,6.1l21.2,3.1c-0.5-2.2-0.9-4.3-1.4-6.4L592,145.7z"/>
	<path d="M611.1,140.3c-0.1-0.4-0.2-0.8-0.3-1.2l-20.6-2.9l0.3,1.4L611.1,140.3z"/>
	<path d="M405.9,195.7c-0.3,1.7-0.6,3.4-1,5l18.3,2.6l0.9-5.2L405.9,195.7z"/>
	<path d="M343.3,191.2l0,0.6l0.2,0C343.4,191.6,343.3,191.4,343.3,191.2z"/>
	<path d="M311.7,134.4l20.4,2.5c-0.2-0.8-0.3-1.5-0.5-2.2l-20.2-2.2L311.7,134.4z"/>
	<path d="M606.6,229.7l22.6,3.2c-0.4-2.4-0.8-4.8-1.2-7.3l-22.6-3L606.6,229.7z"/>
	<path d="M603.8,214l22.5,2.9c0-0.1,0-0.2-0.1-0.3l-22.6-3.1L603.8,214z"/>
	<path d="M425.7,188.8l-18-2.5c-0.1,0.7-0.3,1.5-0.4,2.2l18.1,2.3L425.7,188.8z"/>
	<path d="M330,127.6c-0.4-1.6-0.7-3.2-1-4.6c-2.2,0.4-8.3,1.4-17.8,2.5L330,127.6z"/>
	<path d="M129.7,184.6l18.1,2.2l0.2-1.3l-18.1-1.9C129.8,183.9,129.7,184.3,129.7,184.6z"/>
	<path d="M333.6,260.4l1,5.5l21.2,3.1c-0.2-1.8-0.4-3.7-0.6-5.6L333.6,260.4z"/>
	<path d="M394.3,268.9c-0.2,2-0.4,3.9-0.5,5.7l16.6,2.4l1-5.7L394.3,268.9z"/>
	<path d="M412.9,262.3l-17.7-2.5c-0.1,0.6-0.1,1.1-0.2,1.7l17.6,2.4L412.9,262.3z"/>
	<path d="M331.9,250.6l0.4,2.2l21.9,3c-0.1-0.7-0.2-1.3-0.3-2L331.9,250.6z"/>
	<path d="M149.2,178.4l1-5.8l-17.7-2.2c-0.4,2-0.8,4-1.2,6L149.2,178.4z"/>
	<path d="M122.1,245.9l2,34.3c2.4,0.6,4.8,1.1,7.2,1.6l2.8-15.9l1.2-21.6l0.1-1.5l-4.4-0.6l-11.3-1.4c-0.2,1.6-0.5,3.1-0.7,4.6
		L122.1,245.9z"/>
</g>
</svg>
