<?xml version="1.0" encoding="utf-8"?>
<!-- Generator: Adobe Illustrator 25.3.0, SVG Export Plug-In . SVG Version: 6.00 Build 0)  -->
<svg version="1.1" id="Layer_1" xmlns="http://www.w3.org/2000/svg" xmlns:xlink="http://www.w3.org/1999/xlink" x="0px" y="0px"
	 viewBox="0 0 750.2000122 400.1000061" style="enable-background:new 0 0 750.2000122 400.1000061;" xml:space="preserve">

<path class="st0" d="M142.355896,341.0530701c-15.3604126-16.3288574-28.0715942-85.835144-31.7924805-170.9472046
	c3.7208862,85.1120605,9.1557007,152.4293213,21.7914429,170.9472046c3.5529785,5.2069702,6.5860596,9.9307251,9.1481934,14.2110596
	c0.394043,0.0199585,0.7868042,0.039856,1.1833496,0.0598145c4.0027466,0.2012939,8.1303101,0.4025879,12.2849731,0.5966187
	C151.8058472,351.611908,147.6515503,346.6825867,142.355896,341.0530701z"/>
<path class="st0" d="M263.7474365,355.1733093c2.5507812-4.2566528,5.5651245-8.949585,9.0933228-14.1202393
	c12.319519-18.0544434,17.7937622-82.4996948,21.5084839-164.5944824l0.0014038-0.3251343
	c-4.0455933,82.3493042-16.5148926,148.9781494-31.5108643,164.9196167
	c-5.263855,5.5957642-9.3989258,10.4989014-12.557312,14.7891235
	C254.8573608,355.624054,259.388916,355.3978577,263.7474365,355.1733093z"/>
<path class="st0" d="M468.6616211,356.4894714c3.1583252,0.8508301,6.4464722,1.8511963,9.8722534,2.93573
	c-12.3424072-25.2617188-22.4072876-90.1903076-26.5076904-169.6669312l0.0258179,2.9059448
	C455.2737427,268.289032,459.8712158,328.9964905,468.6616211,356.4894714z"/>
<path class="st0" d="M624.2772827,355.1167297c6.9368286-22.9004517,11.2093506-66.9478149,14.2681274-122.7213745
	l0.1188354-13.3829956c-4.7012329,63.9685669-13.3603516,115.1919556-23.7259521,138.3563232
	C618.1343994,356.4682312,621.2415771,355.6972961,624.2772827,355.1167297z"/>
</svg>
