<?xml version="1.0" encoding="utf-8"?>
<!-- Generator: Adobe Illustrator 25.3.0, SVG Export Plug-In . SVG Version: 6.00 Build 0)  -->
<svg version="1.1" id="Layer_1" xmlns="http://www.w3.org/2000/svg" xmlns:xlink="http://www.w3.org/1999/xlink" x="0px" y="0px"
	 viewBox="0 0 750.2 400.1" style="enable-background:new 0 0 750.2 400.1;" xml:space="preserve">
<path d="M284.9,58.9l-33.3-10.1c0,0.2,0,0.5,0,0.8c0,2.8-0.9,8-4.5,13c-4.9,6.9-13.5,13.3-19.7,16.1c-5.9,2.6-14,4.7-14,4.7
	l-0.5,0.1l0-0.1c-3.8,0.9-7.6,1.5-11.4,1.5c-0.4,0-0.7,0-1.1,0c-2.9-0.1-5.7-0.5-8.4-1.1l0,0.1l-0.5-0.1c0,0-7.3-1.4-13.9-5.1
	c-4.7-2.7-11.6-8.3-17-13.4c-0.4-0.3-0.7-0.6-1.1-0.9l-0.1-0.1l-0.1-0.2c-0.5-0.5-0.9-0.9-1.3-1.3c-3.7-3.8-4.2-8-4.2-11.3
	c0-1.1-0.1-1.9,0-2.5l-34.4,10.4c-1.5,2.2-2.4,4.7-3.4,9.4c-1.1,5-1.9,11.1-2.5,17.6c-0.6,6.2-1,12.8-1.3,19.1h180
	c-0.6-13-1.7-26.9-3.8-36.7C287.4,64,286.3,61.1,284.9,58.9z"/>
<rect x="104.4" y="151.4" width="195.6" height="3.9"/>
<path d="M400.7,157.7l46.5-9.1c1.8-2.1,4.8-7.8,5.3-22.7l0-1.2c0.8-22.6,1.9-55.2,8.4-64.8l-76.8,23.5L400.7,157.7z"/>
<path d="M103.8,148.7L103.8,148.7l0.2-0.1c0.1-0.1,0.4-0.2,0.6-0.5c0.5-0.5,1.3-1.4,2.1-3.1c1.6-3.2,3.3-9.2,3.7-20.2
	c0.6-16.5,1.3-41.2,4.6-56.4c0.9-4.2,1.3-6.4,2.7-8.9L39.4,83.3l16.7,75.1L103.8,148.7z"/>
<path d="M286.1,59c1.3,2.4,2.2,5,3.1,9.2c3.2,15.2,4,39.9,4.6,56.4c0.4,10.9,2.1,16.9,3.7,20.2c0.8,1.6,1.6,2.5,2.1,3.1
	c0.3,0.3,0.5,0.4,0.6,0.5l0.2,0.1l0,0l49,10L366,83.3L286.1,59z"/>
<path d="M630.4,59.2c6.4,9.6,7.6,42.8,8.4,65.4l0,1.2c0.5,14.9,3.5,20.6,5.3,22.7l49.8,9.2l16.6-74.4L630.4,59.2z"/>
</svg>
