<?xml version="1.0" encoding="utf-8"?>
<!-- Generator: Adobe Illustrator 25.3.0, SVG Export Plug-In . SVG Version: 6.00 Build 0)  -->
<svg version="1.1" id="Layer_1" xmlns="http://www.w3.org/2000/svg" xmlns:xlink="http://www.w3.org/1999/xlink" x="0px" y="0px"
	 viewBox="0 0 750.2 400.1" style="enable-background:new 0 0 750.2 400.1;" xml:space="preserve">
<g>
	<path d="M286.5,354.1c2.9-0.2,5.5-0.3,7.6-0.4c-63.1-44.4-110.2-182-166.8-264.4c-0.7,1.3-1.4,2.6-2,4
		C180.3,172.5,226.3,304.7,286.5,354.1z"/>
	<path d="M269.7,355c2.1-0.1,4.1-0.2,6-0.3c-56.2-55.1-100.5-179.5-153.3-254.5c-0.6,1.5-1.1,3.1-1.6,4.6
		C172.2,177.4,215.6,297.4,269.7,355z"/>
	<path d="M255.4,355.8c1.8-0.1,3.5-0.2,5.2-0.3c-50.9-60.6-92.7-173.7-142.2-242.8c-0.5,1.8-0.9,3.5-1.3,5.1
		C165.4,184.9,206.3,293.9,255.4,355.8z"/>
	<path d="M242.6,356.4c1.6-0.1,3.2-0.1,4.8-0.2c-46.3-63.1-85.8-165.8-132-229.8c-0.1,0.5-0.2,0.9-0.3,1.4c-0.3,1.3-0.6,2.6-1,3.8
		C159.1,193.7,197.8,292.8,242.6,356.4z"/>
	<path d="M230.7,356.9c1.5-0.1,3-0.1,4.5-0.2c-42.7-64.2-80.2-158.5-123.7-217.9c-0.7,1.5-1.4,2.8-2,4
		C152.1,200.5,189.1,292.3,230.7,356.9z"/>
	<path d="M223.7,357.1c-40.1-65.1-76.3-153.5-118.2-208.5c-0.4,0.5-0.7,0.8-0.8,1l0,4.7c40.7,53.5,76,138.5,114.8,202.9
		C220.8,357.2,222.2,357.2,223.7,357.1z"/>
	<path d="M208.6,357.5c1.3,0,2.7,0,4.1-0.1c-36.3-62.4-69.8-141-108.1-192.2l0,6.8C141.4,221.8,173.8,296.6,208.6,357.5z"/>
	<path d="M198.1,357.6c1.4,0,2.8,0,4,0c-32.4-58.3-63.1-127.2-97.4-174.4l0,6.8C137.6,235.7,167.1,301,198.1,357.6z"/>
	<path d="M187.7,357.3c1.4,0,2.7,0.1,4,0.1c-28.8-53.5-56.4-113.2-86.9-156.4l0,6.9C133.8,249.5,160.3,305.9,187.7,357.3z"/>
	<path d="M177.4,357c1.3,0,2.6,0.1,3.9,0.1c-25.2-48-49.8-99.2-76.6-138l0,6.9C130.1,263.2,153.5,311.3,177.4,357z"/>
	<path d="M167.2,356.6c1.3,0.1,2.6,0.1,3.9,0.2c-21.8-42-43.3-85.2-66.4-119.5l0,7C126.4,276.7,146.7,317,167.2,356.6z"/>
	<path d="M157,356.2c1.3,0.1,2.6,0.1,3.9,0.2c-18.4-35.7-36.8-71.3-56.2-100.9l0,7C122.8,290.1,139.9,323,157,356.2z"/>
	<path d="M146.8,355.7c1.3,0.1,2.6,0.1,3.9,0.2c-15-29-30.2-57.5-46-82.1l0,7C119.2,303.4,133,329.2,146.8,355.7z"/>
	<path d="M136.5,355.1c1.3,0.1,2.6,0.1,4,0.2c-11.7-22.3-23.5-43.9-35.7-63.2l0,7C115.5,316.5,126.1,335.5,136.5,355.1z"/>
	<path d="M125.9,354.6c1.3,0.1,2.7,0.1,4.1,0.2c-8.3-15.4-16.7-30.4-25.2-44.2l0,7.1C111.9,329.3,119,341.8,125.9,354.6z"/>
	<path d="M115.1,354c0.2,0,0.4,0,0.6,0c1.1,0.1,2.3,0.1,3.5,0.2c-4.8-8.6-9.6-17-14.5-25.1l0,7.1C108.2,342,111.7,347.9,115.1,354z"
		/>
	<path d="M108.2,353.6c-1.1-2-2.3-3.9-3.5-5.9l0,5.7c0.5,0,1.4,0.1,2.6,0.2C107.6,353.6,107.9,353.6,108.2,353.6z"/>
	<path d="M259,68.7c8.7,15.2,17.6,29.5,26.7,42.3c-1.2-4.3-2.6-8.8-4.5-13.4c-4.8-7.2-9.6-14.7-14.3-22.5
		C264.6,72.8,261.9,70.6,259,68.7z"/>
	<path d="M246.8,63.6c-0.2,0.3-0.5,0.6-0.7,0.9c15.2,27.9,30.7,53.8,47.1,74.3c-1.4-3.1-2.8-6.8-3.7-11.1c0-0.2-0.1-0.4-0.1-0.5
		c-13.6-18-26.6-39.6-39.3-62.6L246.8,63.6z"/>
	<path d="M239.4,71.2c19.4,36.2,39.3,69.6,60.8,93.3l0-6.6c-20.6-22.9-39.6-54.6-58.2-89.1C241.2,69.6,240.3,70.4,239.4,71.2z"/>
	<path d="M232,76.5c21.7,41.1,43.9,79.4,68.2,105.1l0-6.5c-23.2-24.9-44.5-61.3-65.3-100.4C234,75.3,233,75.9,232,76.5z"/>
	<path d="M224,80.3c24.2,46.4,48.8,90.5,76.2,118.3l0-6.5c-26.2-27-49.8-68.7-73.1-113.1C226.1,79.5,225.1,79.9,224,80.3z"/>
	<path d="M300.2,215.5l0-6.5c-29.4-29.1-55.6-77.1-81.5-127c-1.3,0.4-2.4,0.7-3.3,1C242.3,135.1,269.5,185.7,300.2,215.5z"/>
	<path d="M206.3,84.8c29.8,57.8,59.6,115.7,93.8,147.6l0-6.4c-32.9-31.1-61.6-86.1-90.3-141.7C208.7,84.5,207.5,84.6,206.3,84.8z"/>
	<path d="M196.3,84.7C229.4,148.5,262,215.2,300.2,249l0-6.4c-36.6-33.1-68.1-96.2-99.8-157.7C199,85,197.6,84.9,196.3,84.7z"/>
	<path d="M300.1,259.3C259.2,224.1,224.8,151,189.5,83.4c-1.2-0.3-2.8-0.8-4.6-1.4c36.9,70,72.5,147.6,115.2,183.6L300.1,259.3z"/>
	<path d="M300.1,282.1l0-6.3C254.1,238.2,216.3,152,176.5,78c-2-1.2-4.2-2.8-6.5-4.6C212.2,150,251.5,243.2,300.1,282.1z"/>
	<path d="M300.1,298.5l0-6.3c-53.4-41.4-95.5-148.6-142.2-228.7l-3.6,1C202.4,145.6,245.3,256.9,300.1,298.5z"/>
	<path d="M300.1,308.6C243,266.8,198.9,149.1,148.8,66.9c-1.1,0.6-2.2,1.2-3.2,1.8c51.4,82.8,96.1,204.3,154.5,246.1L300.1,308.6z"
		/>
	<path d="M300.1,331l0-6.2c-60.4-41.6-106.2-168.9-159.4-252.4c-1,0.8-1.9,1.7-2.8,2.6C192.2,158.8,238.5,289.6,300.1,331z"/>
	<path d="M300.1,347.1l0-6.1C236.7,300,189.5,164.1,133.6,79.7c-0.9,1.1-1.7,2.2-2.4,3.3C188,167.6,235.6,306.5,300.1,347.1z"/>
	<path d="M622.5,93.1C566.8,176.1,520,311.2,457.4,354.3c2.2,0.3,4.5,0.7,6.8,1.2c60-47.5,105.8-178,160.2-258.3
		C623.9,95.8,623.2,94.4,622.5,93.1z"/>
	<path d="M473.3,357.9c1.7,0.5,3.4,1,5.1,1.6c55-54.7,98.7-175.6,150.3-250.4c-0.5-1.5-1-3.1-1.5-4.7
		C574.6,181.1,530.1,305.5,473.3,357.9z"/>
	<path d="M486.1,362c1.5,0.5,3,1,4.6,1.5c50.8-58.8,92.5-170.7,141.3-241c-0.3-1.6-0.7-3.4-1.2-5.2
		C580.9,189.1,538.5,304.5,486.1,362z"/>
	<path d="M497.8,365.6c1.4,0.4,2.9,0.8,4.3,1.2c47.1-61.3,86.9-165.2,133.2-231.3c-0.5-1.5-1.1-3-1.5-4.7
		C586.7,198.5,546.2,305.1,497.8,365.6z"/>
	<path d="M509,368.6c1.4,0.3,2.8,0.7,4.2,1C557.6,306,596,207.9,640.6,146.1c-0.7-1.1-1.5-2.3-2.2-3.7
		C593.2,205.8,554.3,305.9,509,368.6z"/>
	<path d="M519.9,370.9c1.4,0.2,2.7,0.5,4.1,0.7c40.9-63.5,77.4-153.3,119.3-211.3l0-6.8C600,212.8,562.5,306.7,519.9,370.9z"/>
	<path d="M530.7,372.3c1.4,0.1,2.7,0.2,4.1,0.3c36.8-60.9,70.4-140.5,108.4-194.5l0-6.9C603.8,226.8,569.1,310.3,530.7,372.3z"/>
	<path d="M541.5,373c0.7,0,1.5,0,2.2,0c0.5,0,1.1,0,1.6,0c0.1,0,0.2,0,0.3,0c32.8-57.3,63.5-127,97.6-176.7l0-6.9
		C607.7,240.7,575.9,314.2,541.5,373z"/>
	<path d="M643.3,214.4l0-6.9c-31.7,46.8-60.5,110.7-90.9,165.2c1.4-0.1,2.8-0.2,4.2-0.4C585.5,319.7,613.1,259.5,643.3,214.4z"/>
	<path d="M643.3,232.7l0-7c-27.7,42-53.3,96.5-79.8,145.8c1.4-0.2,2.9-0.4,4.3-0.7C592.7,323.8,617.1,272.7,643.3,232.7z"/>
	<path d="M643.2,251l0-7c-23.7,36.7-45.9,82.3-68.5,125.4c1.5-0.3,2.9-0.7,4.4-1C600.2,327.8,621.1,285.6,643.2,251z"/>
	<path d="M643.2,269.4l0-7c-19.6,31-38.2,67.9-57,104.1c1.5-0.4,3-0.9,4.5-1.3C608,331.7,625.2,298.1,643.2,269.4z"/>
	<path d="M643.2,287.9l0-7.1c-15.5,24.9-30.3,53.3-45.1,82c1.5-0.5,3.1-1,4.6-1.5C616,335.7,629.3,310.4,643.2,287.9z"/>
	<path d="M643.2,306.4l0-7.1c-11.3,18.5-22.3,38.8-33.2,59.7c1.5-0.5,3.1-0.9,4.6-1.4C624,339.8,633.5,322.5,643.2,306.4z"/>
	<path d="M643.2,325.1l0-7.1c-7.2,12-14.3,24.8-21.3,37.8c1.5-0.3,2.9-0.6,4.4-0.9C631.9,344.7,637.5,334.7,643.2,325.1z"/>
	<path d="M643.2,343.8l0-7.2c-3.4,5.7-6.7,11.6-10,17.5c1.6-0.1,3-0.2,4.2-0.3C639.3,350.5,641.2,347.1,643.2,343.8z"/>
	<path d="M496.6,63.1l-2.4,1.5l0,0c-1.4,0.9-2.8,1.8-4.2,2.7c-9.2,15.9-18.7,30.8-28.4,43.8c-1,3.6-1.8,6.9-2.4,9.9
		C472.2,104.4,484.5,84.5,496.6,63.1z"/>
	<path d="M512.6,52.9l-6,3.8c-16.6,30.6-33.6,58.9-51.7,80.6c-2.7,6.6-6,10.8-7.2,12.2l0,2.5C470.8,127.5,491.9,91.6,512.6,52.9z"/>
	<path d="M447.8,162.6l0,6.5c28.1-28.7,53.2-74.4,78-122.2c-1.3,0-2.6,0.1-3.9,0.1C498.3,92.2,474.3,135,447.8,162.6z"/>
	<path d="M532,46.7c-26.8,51.9-53.8,102.5-84.3,132.9l0,6.5c32-31.3,60.1-85.1,88.1-139.4C534.6,46.7,533.3,46.7,532,46.7z"/>
	<path d="M447.8,196.5l0,6.4c35.9-33.6,66.8-95.8,98.1-156.3c-0.3,0-0.6,0-0.9,0c-1,0-2,0-2.9,0
		C512.1,104.8,482.2,163.7,447.8,196.5z"/>
	<path d="M447.8,213.2l0,6.4c39.8-35.6,73.5-106.8,108-173c-1.3,0-2.5,0-3.8-0.1C518.7,110.7,486.1,178.4,447.8,213.2z"/>
	<path d="M565.8,47c-1.3,0-2.5-0.1-3.8-0.1c-36.6,69.4-71.9,146.4-114.1,183.1l0,6.3C491.5,199,527.8,118.2,565.8,47z"/>
	<path d="M571.9,47.4c-40,74.1-77.9,161-124.1,199.1l0,6.3c47.4-38.3,85.9-128.1,126.9-203.4L571.9,47.4z"/>
	<path d="M447.8,263l0,6.3c50.5-38.7,90.8-136.2,134.5-214.6l-2.9-2C536.8,129.8,497.1,224.4,447.8,263z"/>
	<path d="M587,57.9c-45.3,80-86.8,182.7-139.2,221.4l0,6.2c53.6-38.8,95.7-144.6,142.1-225.6L587,57.9z"/>
	<path d="M597.8,65.2c-0.3-0.2-0.7-0.4-1-0.6l0,0l-2-1.4c-48.1,82.4-91.3,193.6-146.9,232.3l0,6.2
		C504.7,263.1,548.5,148.4,597.8,65.2z"/>
	<path d="M447.8,311.7l0,6.1c60.1-38.3,105.6-162.1,157.7-247c-0.9-0.8-1.9-1.6-2.9-2.3C551.6,152.8,506.7,273.2,447.8,311.7z"/>
	<path d="M612.7,77.9c-0.8-1-1.7-1.9-2.6-2.9c-53.8,85.6-100.2,214.8-162.2,252.7l0,6.1C511,296.4,557.8,164,612.7,77.9z"/>
	<path d="M447.9,343.7l0,6.1c65.8-36.2,113.9-176.3,171.1-263.2c-0.7-1.2-1.5-2.3-2.3-3.5C560.3,169.6,512.7,306.9,447.9,343.7z"/>
	<path d="M278.5,57c10.4,30,27.3,62.9,45.6,96.5l4.4,0.9c-18.2-33.4-34.9-66.1-45.1-95.9L278.5,57z"/>
	<path d="M270.7,54.6l-4.8-1.5c10.8,30.6,28.2,64,46.9,98.1l4.3,0.9C298.5,118.2,281.3,85,270.7,54.6z"/>
	<path d="M260.9,68.9c2.3,1.6,4.5,3.4,6.5,5.4c-3.5-8-6.6-15.8-9.4-23.4l-4.8-1.5C255.5,55.7,258.1,62.2,260.9,68.9z"/>
	<path d="M301.3,149l4.4,0.9c-6-10.8-11.8-21.6-17.4-32.3c0.9,3.9,1.6,7.4,2.1,10c0.2,1,0.4,1.9,0.7,2.8
		C294.5,136.5,297.9,142.7,301.3,149z"/>
	<path d="M247.4,62.7C247.4,62.7,247.4,62.7,247.4,62.7l4.4,1.3l0,0c0.1,0.1,0.3,0.1,0.4,0.2c-0.8-2-1.7-3.9-2.4-5.9
		C249.2,59.7,248.4,61.2,247.4,62.7z"/>
	<path d="M355.5,80.3c1.9,6.4,4.1,13,6.6,19.8l1.6-7.6c-1.2-3.6-2.3-7.2-3.3-10.7L355.5,80.3z"/>
	<path d="M358.2,117.5l1.4-6.4c-4.8-11.4-8.9-22.5-12.1-33.2l-4.9-1.5C346.6,89.5,351.9,103.3,358.2,117.5z"/>
	<path d="M354.9,132.9l1.2-5.7c-8.8-18.5-16.2-36.3-21.4-53.2l-4.9-1.5C335.8,91.6,344.5,111.9,354.9,132.9z"/>
	<path d="M351.8,147.2l1.2-5.4c-12.8-25-23.9-49.2-30.9-71.7l-4.9-1.5C324.9,93.2,337.4,119.8,351.8,147.2z"/>
	<path d="M304.4,64.8c9.5,28.9,25.3,60.7,42.9,93.3l2,0.4l0.6-2.8c-16.7-31.2-31.7-61.6-40.7-89.4L304.4,64.8z"/>
	<path d="M291.7,61c9.9,29.5,26.3,61.8,44.2,94.8l4.4,0.9c-17.8-32.9-34-65-43.7-94.2L291.7,61z"/>
	<path d="M150.2,65.1c-1.7-4.7-3.3-9.3-4.7-13.8l-4,1.2c1.6,4.7,3.3,9.6,5.1,14.5C147.8,66.3,149,65.7,150.2,65.1z"/>
	<path d="M141.2,70.5c-2.2-5.4-4.3-10.8-6.1-16.1l-3.9,1.2c2.1,5.7,4.4,11.6,6.9,17.5C139.1,72.2,140.1,71.3,141.2,70.5z"/>
	<path d="M133.5,77.8c-3.1-6.9-5.9-13.7-8.5-20.3l-3.8,1.1c2.9,7.4,6.2,14.9,9.7,22.5C131.7,80,132.5,78.9,133.5,77.8z"/>
	<path d="M127.1,87c-4.3-9-8.3-17.9-11.9-26.5l-3.7,1.1c4.1,9.6,8.6,19.4,13.5,29.4C125.6,89.6,126.3,88.3,127.1,87z"/>
	<path d="M120.3,102.3c0.5-1.5,1.1-3,1.7-4.5c-6-11.7-11.5-23.2-16.5-34.5l-3.6,1.1C107.4,76.8,113.6,89.5,120.3,102.3z"/>
	<path d="M118,109.9c-7.9-14.8-15.3-29.4-21.9-43.6l-3.6,1.1c7.2,15.4,15.5,31.3,24.1,47.4C117,113.2,117.5,111.6,118,109.9z"/>
	<path d="M113.7,127.7c0.3-1.4,0.6-3,1-4.8c-10-18.2-19.6-36.3-28-53.8l-3.5,1.1c9.2,18.8,19.6,38.2,30.4,57.8
		C113.7,127.8,113.7,127.7,113.7,127.7z"/>
	<path d="M111.5,135.2c-11.9-21.4-23.6-42.7-33.8-63.4l-3.5,1c10.9,21.7,23.2,44,35.6,66.3C110.4,138,110.9,136.7,111.5,135.2z"/>
	<path d="M106.7,144.8c-13.1-23.6-26.3-47.2-38.1-70.2l-3.4,1c12.2,23.7,25.9,48,39.3,72.2C105.1,147.1,105.8,146.1,106.7,144.8z"/>
	<path d="M95.8,150.5l3.5-0.7C86,125.5,72.1,101.1,59.7,77.3l-3.4,1C68.8,102.1,82.6,126.4,95.8,150.5z"/>
	<path d="M90.2,151.6c-13-23.8-26.8-48-39.3-71.6l-3.4,1c12.6,23.6,26.3,47.6,39.2,71.3L90.2,151.6z"/>
	<path d="M77.5,154.1l3.5-0.7C68.3,130,54.7,106.1,42,82.6l-2.5,0.7l0.7,3.1C52.5,109,65.4,131.8,77.5,154.1z"/>
	<path d="M68.3,156l3.5-0.7c-8.8-16.5-18.2-33.3-27.4-50l2.5,11.5C54.1,129.9,61.4,143,68.3,156z"/>
	<path d="M59,157.9l3.6-0.7c-3.8-7.1-7.6-14.3-11.6-21.6l2.6,12.1C55.4,151.1,57.2,154.5,59,157.9z"/>
	<path d="M156.8,62.8l0.2-0.1c-0.2-0.3-0.4-0.6-0.6-0.9C156.6,62.2,156.7,62.5,156.8,62.8z"/>
	<path d="M153.6,48.8l-1.1,0.3c0.4,1.5,0.9,3.1,1.4,4.6c-0.2-1.9-0.2-3.5-0.2-4.7C153.7,48.8,153.6,49,153.6,48.8z"/>
	<path d="M462.9,103.9c0.6-1.6,1.2-3.2,1.8-4.9c-5.6-12.3-10.4-24.2-14.3-35.8l-3.9,1.2C450.9,77.1,456.5,90.4,462.9,103.9z"/>
	<path d="M468.1,91.5c0.7-1.5,1.5-2.9,2.4-4.3c-3.7-9.3-7-18.4-9.6-27.2l-4.1,1.2C459.9,71.1,463.7,81.2,468.1,91.5z"/>
	<path d="M477.9,77c-2.4-6.9-4.4-13.7-6-20.3l-4.2,1.3c2,7.4,4.4,14.9,7.2,22.7C475.8,79.4,476.8,78.2,477.9,77z"/>
	<path d="M483.2,71.5c1.1-1,2.3-2,3.6-3c-1.4-5.2-2.6-10.3-3.6-15.2l-4.4,1.3C480,60.1,481.4,65.8,483.2,71.5z"/>
	<path d="M497.1,61.6c-0.8-4.1-1.5-8.1-2-12l-4.6,1.4c0.6,4.3,1.5,8.7,2.5,13.2c0.2-0.1,0.5-0.3,0.7-0.5L497.1,61.6z"/>
	<path d="M508.4,54.4c-0.2-2.3-0.4-4.5-0.6-6.7c-0.6,0-1.2,0.1-1.8,0.1c-1.2,0.1-2.2,0.1-3.2,0.2c0.2,3,0.6,6.1,1.1,9.2L508.4,54.4z
		"/>
	<path d="M516,47.3c0,0.7,0,1.5,0.1,2.2l3.7-2.4C518.5,47.2,517.2,47.3,516,47.3z"/>
	<path d="M399.2,150.9l1.5,6.9l2-0.4C401.5,155.2,400.4,153,399.2,150.9z"/>
	<path d="M395,132c4.5,8.1,9,16.1,13.4,24.2l3.5-0.7c-6.5-11.8-13.1-23.5-19.5-35.3L395,132z"/>
	<path d="M417.5,154.5l3.5-0.7c-12.4-22.3-24.9-44.6-36-66.4l2.9,13.1C397.4,118.4,407.5,136.5,417.5,154.5z"/>
	<path d="M426.7,152.7l3.5-0.7c-13.3-24-26.6-48-38-71.1l-3.5,1.1C400.2,105,413.4,128.9,426.7,152.7z"/>
	<path d="M435.8,151l3.5-0.7c-13.6-24.5-26.8-48.8-37.9-72.2l-3.5,1.1C409.1,102.5,422.3,126.7,435.8,151z"/>
	<path d="M407.1,76.4c10.9,23.5,24.1,48.1,37.8,72.8l2.2-0.4c0.2-0.2,0.4-0.5,0.6-0.8c0.1-0.1,0.2-0.2,0.2-0.3
		c-13.6-24.7-26.7-49.1-37.3-72.4L407.1,76.4z"/>
	<path d="M451.4,142.5c0.6-1.1,1.2-2.3,1.9-3.7c-12.3-22.7-23.9-45.1-33-66.4l-3.6,1.1C426.3,95.7,438.5,118.9,451.4,142.5z"/>
	<path d="M455.8,131.9c0.4-1.3,0.8-2.7,1.1-4.1c0.1-0.3,0.1-0.6,0.2-0.9c-10.3-19.7-19.8-39-27.2-57.4l-3.7,1.1
		C434.3,90.3,444.6,110.9,455.8,131.9z"/>
	<path d="M459,118.1c0.4-1.7,0.8-3.5,1.3-5.4c-7.9-15.9-14.9-31.4-20.4-46.3l-3.8,1.2C442.3,83.8,450.1,100.8,459,118.1z"/>
	<path d="M695.6,78.8l-4.8-1.4c4.1,10.4,8.9,21,14.1,31.9l1.3-5.8C702.3,95.1,698.7,86.9,695.6,78.8z"/>
	<path d="M708.1,82.6l-4.8-1.4c1.6,4.1,3.3,8.2,5.1,12.3l1.5-6.5C709.3,85.5,708.7,84.1,708.1,82.6z"/>
	<path d="M573.2,47.1C573.2,47.1,573.1,47.1,573.2,47.1L573.2,47.1C573.2,47.2,573.2,47.2,573.2,47.1z"/>
	<path d="M584.1,47.6c-1.3-0.1-2.7-0.1-4.2-0.2c1,2.1,2,4.3,3,6.4l6,4.1C587.2,54.5,585.6,51.1,584.1,47.6z"/>
	<path d="M634.2,127.8c0.7,3.3,1.7,6.2,2.7,8.7c2.1,3.8,4.3,7.7,6.4,11.5c0.1,0.1,0.1,0.2,0.2,0.2c0.2,0.3,4.1,0.7,4.3,0.9l0,0
		c-4.9-8.8-9.8-17.6-14.6-26.4C633.5,124.6,633.9,126.3,634.2,127.8z"/>
	<path d="M595.2,48.6l-1.4-0.4l-0.3,0c-0.7-0.1-1.7-0.1-2.7-0.2c2.5,5.5,5.1,11,7.8,16.5c2.2,1.3,4.2,2.8,6.1,4.3
		C601.4,62,598.2,55.3,595.2,48.6z"/>
	<path d="M607.6,52.4l-4.7-1.4c5,11.2,10.6,22.7,16.5,34.3c2.4,3.8,4.4,7.7,6.1,11.6c0.1,0.2,0.1,0.3,0.2,0.5
		c9.2,17.5,19.2,35.3,29,53.1l4.3,0.8C640.4,117.6,621.6,83.9,607.6,52.4z"/>
	<path d="M620.1,56.1l-4.8-1.4c13.6,31.2,32.2,64.5,50.7,97.9l4.3,0.8C651.9,120.2,633.6,87.1,620.1,56.1z"/>
	<path d="M632.6,59.9l-4.8-1.4C641,89,659,121.8,677.3,154.6l4.3,0.8C663.5,122.8,645.6,90.3,632.6,59.9z"/>
	<path d="M645,63.6l-4.8-1.4c12.8,30,30.3,62.2,48.3,94.5l4.3,0.8C675,125.4,657.6,93.4,645,63.6z"/>
	<path d="M657.5,67.4l-4.8-1.4c11.3,27.1,26.7,56,42.8,85.2l1.1-5C681.9,119.1,667.9,92.5,657.5,67.4z"/>
	<path d="M670,71.2l-4.8-1.4c9,21.8,20.6,44.8,33.3,68.2l1.1-5.2C688.4,111.6,678.1,90.9,670,71.2z"/>
	<path d="M682.5,74.9l-4.8-1.4c6.6,16.3,14.8,33.4,23.8,50.8l1.2-5.4C695.1,103.8,688.3,89.1,682.5,74.9z"/>
</g>
</svg>
