<?xml version="1.0" encoding="utf-8"?>
<!-- Generator: Adobe Illustrator 25.3.0, SVG Export Plug-In . SVG Version: 6.00 Build 0)  -->
<svg version="1.1" id="Layer_1" xmlns="http://www.w3.org/2000/svg" xmlns:xlink="http://www.w3.org/1999/xlink" x="0px" y="0px"
	 viewBox="0 0 750.2 400.1" style="enable-background:new 0 0 750.2 400.1;" xml:space="preserve">
<path d="M110,148.7l91.6,12.4l-13.2-2.4l-80.1-14.8c-0.2,0.6-0.5,1.2-0.7,1.7c-1.3,2.6-2.6,3.6-3.2,4l0.1,203.7
	c0.5,0,1.4,0.1,2.6,0.2c1,0.1,2.3,0.1,3.8,0.2L110,148.7z"/>
<path d="M203.3,161.1l91.2-12.3l-0.9,204.7c1.4-0.1,2.6-0.2,3.6-0.2c1.2-0.1,2.1-0.1,2.6-0.2l0.2-203.6c-0.5-0.3-1.9-1.3-3.2-4
	c-0.2-0.5-0.5-1-0.7-1.6L203.3,161.1z"/>
<path d="M448.3,353.4c0.8,0.1,2.4,0.3,5.2,0.4l-1.9-212.4c-1.3,4.8-2.9,7.2-4,8.3l0.1,203.6C447.8,353.3,448,353.4,448.3,353.4z"/>
<path d="M643,353.2l0.2-204c-1.2-1.4-2.7-4-3.8-8.8l-1.9,213.4C641,353.5,642.4,353.3,643,353.2z"/>
<path d="M400.7,157.7l46.5-9.1c1.1-1.3,2.8-4.2,4-9.9l-52.4,10.6L400.7,157.7z"/>
<path d="M54,149.1l2.1,9.3l47.7-9.7l0,0l0.2-0.1c0.1-0.1,0.4-0.2,0.6-0.5c0.5-0.5,1.3-1.4,2.1-3.1c0.8-1.6,1.6-3.8,2.3-7L54,149.1z"
	/>
<path d="M295.2,138c0.7,3,1.5,5.2,2.2,6.7c0.8,1.6,1.6,2.5,2.1,3.1c0.3,0.3,0.5,0.4,0.6,0.5l0.2,0.1l0,0l49,10l2-9.1L295.2,138z"/>
<path d="M644.1,148.5l49.8,9.2l1.9-8.3L640,138.2C641.2,144.2,642.9,147.1,644.1,148.5z"/>
</svg>
