<?xml version="1.0" encoding="utf-8"?>
<!-- Generator: Adobe Illustrator 25.3.0, SVG Export Plug-In . SVG Version: 6.00 Build 0)  -->
<svg version="1.1" id="Layer_1" xmlns="http://www.w3.org/2000/svg" xmlns:xlink="http://www.w3.org/1999/xlink" x="0px" y="0px"
	 viewBox="0 0 750.2 400.1" style="enable-background:new 0 0 750.2 400.1;" xml:space="preserve">
<g>
	<path d="M344.7,198.7c-0.3-1.4-0.5-2.7-0.8-4.1l-0.1,4.3h0.1L344.7,198.7z"/>
	<path d="M349,235.3c-0.1,0-0.3,0-0.4,0l-0.1,0c-0.1,0-0.4,0-0.4,0l-0.5-0.6c0,0-0.2,0-0.3,0l-0.8,0.7c-0.1,0-0.3,0-0.3,0l-0.6-0.5
		c0,0-0.2,0-0.4,0l-1.1,0.2l0,0l0,0l-0.2,7.7h0.1l1.1-0.2c0.1,0,0.3,0,0.4,0l0.6,0.5c0,0,0.2,0,0.3,0l1.2-0.2c0.1,0,0.3,0,0.3,0
		l0.5-0.1c0,0,0.3,0.1,0.4,0l0.1,0c0.1,0,0.3,0,0.4,0l1,0.4c0.1,0,0.4-0.6,0.4-0.7v-0.2c0,0,0.3-0.1,0.4,0l1.4,0.5
		c-0.4-2.5-0.8-5-1.2-7.5l-0.4,0c-0.1,0-0.4,0-0.4,0v0.2c0,0-0.3,0.1-0.4,0L349,235.3z"/>
	<path d="M331.4,156.8c-0.2,0-0.5,0-0.5,0.1v0.3v0.4l0,0l-0.8-0.4c-0.1-0.1-0.4-1.3-0.5-1.2l-2.2,1.1l-0.2,0l-1.5-1
		c-0.1-0.1-0.4-0.1-0.6,0l-0.6,0.2c-0.1,0-0.4,0-0.6,0l-3.4,0.4c-0.2-0.1-0.6,0-0.6,0v0.3c0,0.1-0.5,0.1-0.6,0l-1.5-0.7
		c-0.1-0.1-0.5-0.1-0.6,0l-0.2,0.1c-0.1,0.1-0.6,0-0.6,0l-0.7-0.9c0,0-0.2-0.1-0.4-0.1l2.2,12.6c0.2,0,0.4,0,0.5,0l1.5,0.7
		c0.1,0.1,0.6-0.9,0.6-1v-0.3c0-0.1,0.5-0.1,0.6,0l3.1,1.2c0.1,0,0.4,0,0.6,0l0.6-0.2c0.2,0,0.5,0,0.6,0l1.3,0.8
		c0.1,0.1,0.5,0.1,0.6,0l1.9-1c0.1-0.1,0.5-0.1,0.6,0l0.3,0.1c0.2,0.1,0.6,0,0.6,0v-0.3v-0.1c0-0.1,0.3-0.1,0.5-0.1l1.1,0.2l0.4,0.1
		l0.3-0.1c0-0.1,0.4-0.1,0.6,0l2,0.5c0.2,0,0.5,0,0.6,0l1.3-0.7c0.1-0.1,0.5-0.1,0.6,0c0,0,0.1,0,0.2,0c-0.7-3.7-1.5-7.2-2.2-10.7
		c-0.2-0.3-0.4-0.8-0.5-0.8l-2-0.5c-0.2-0.1-0.6,0-0.6,0l0.1,0.3c-0.1,0-0.1,0-0.1,0.1l0.3,0.7l0,0L331.4,156.8z"/>
	<path d="M324.5,123.9l0.6-0.2c0.2,0,0.5,0,0.6,0l1.3,0.8c0.1,0.1,0.5,0.1,0.6,0l1.6-0.8c-0.1-0.3-0.1-0.5-0.2-0.8
		c-1,0.2-2.7,0.5-5.2,0.8l0.1,0C324,123.9,324.3,123.9,324.5,123.9z"/>
	<path d="M311.2,131.7l0-6.2c-0.4,0-0.7,0.1-1.1,0.1L311.2,131.7z"/>
	<path d="M353.9,264.6l-0.4,0.1c-0.1,0-0.3,0-0.4,0l-2.2,0.2c-0.1,0-0.4,0-0.4,0v0.2c0,0-0.3,0.1-0.4,0l-1-0.4c-0.1,0-0.3,0-0.4,0
		l-0.1,0c-0.1,0-0.4,0-0.4,0l-0.5-0.6c0,0-0.2,0-0.3,0l-0.8,0.7c-0.1,0-0.3,0-0.3,0l-0.6-0.5c0,0-0.2,0-0.4,0l-1.1,0.2l0,0l0,0
		l-0.1,2.9l-1.1-0.1c-0.2,0-0.5,0-0.5,0.1l-0.3,0.7l-0.1,0l-2.2-0.9c-0.2-0.1-0.6,0-0.6,0l-0.1,1.1c0,0.1-0.5,0.1-0.6,0
		c-0.1-0.1-0.5-0.1-0.6,0l-1.3,0.7c-0.1,0-0.5-0.9-0.7-0.9l-1-0.2l2.1,11.8l0.9-0.5c0.1-0.1,0.5-0.1,0.6,0c0.1,0.1,0.6,0,0.6,0
		l0.1,0c0-0.1,0.5-0.1,0.6,0l1.7,0.7c0.2,0.1,0.6,0,0.6,0l0.2-0.5c0-0.1,0.3-0.1,0.5-0.1l1.2,0.2l0,1.8c1.9-0.4,3.8-0.9,5.8-1.3
		l-0.7-0.3c-0.1,0-0.3,0-0.4,0l-0.1,0c-0.1,0-0.4,0-0.4,0l-0.5-0.6c0,0-0.2,0-0.3,0l-0.8,0.7c-0.1,0-0.3,0-0.3,0l-0.6-0.5
		c0,0-0.2,0-0.4,0l-0.6,0.1l0-6.9l0.4-0.1c0.1,0,0.3,0,0.4,0l0.6,0.5c0,0,0.2,0,0.3,0l1.2-0.2c0.1,0,0.3,0,0.3,0l0.5-0.1
		c0,0,0.3,0.1,0.4,0l0.1,0c0.1,0,0.3,0,0.4,0l1,0.4c0.1,0,0.4-0.6,0.4-0.7v-0.2c0,0,0.3-0.1,0.4,0l2.1,0.8c0.1,0,0.3,0,0.4,0
		l0.4-0.1c0.1,0,0.3,0,0.4,0l0.8,0.6c0.1,0,0.3,0,0.4,0l0.6-0.3c-0.2-2.4-0.5-4.9-0.7-7.6l0,0l-0.1,0l-1-0.7
		C354.2,264.5,354,264.5,353.9,264.6z"/>
	<path d="M331.4,201.7c-0.2,0-0.5,0-0.5,0.1v0.7l0,0l-0.8-0.4c-0.1-0.1-0.4-1.3-0.5-1.2l-2.2,1.1l-0.2,0l-1.5-1
		c-0.1-0.1-0.4-0.1-0.6,0l-0.6,0.2c-0.1,0-0.4,0-0.6,0l-0.6,0.1l2.1,11.8c0.1,0,0.3,0,0.3,0l1.3,0.8c0.1,0.1,0.5,0.1,0.6,0l1.9-1
		c0.1-0.1,0.5-0.1,0.6,0l0.3,0.1c0.2,0.1,0.6,0,0.6,0v-0.4c0-0.1,0.3-0.1,0.5-0.1l1.1,0.2l0.4,0.1l0.3-0.1c0-0.1,0.4-0.1,0.6,0
		l2,0.5c0.2,0,0.5,0,0.6,0l1.3-0.7c0.1-0.1,0.5-0.1,0.6,0c0.1,0.1,0.6,0,0.6,0l0.1,0c0-0.1,0.5-0.1,0.6,0l1.7,0.7
		c0.2,0.1,0.6,0,0.6,0l0.2-0.5c0,0,0.3-0.1,0.5-0.1l1,0.1l0,1.1h0.1l1.1-0.2c0.1,0,0.3,0,0.4,0l0.6,0.5c0,0,0.2,0,0.3,0l1.2-0.2
		c0,0,0,0,0,0c-0.5-2.5-0.9-5.1-1.4-7.6l-0.5-0.5c0,0-0.2,0-0.4,0l-0.6,0.1l0-5l-0.1,0l0,0l-1.7-0.2c-0.2,0-0.5,0-0.5,0.1l-0.3,0.7
		l-0.1,0l-2.2-0.9c-0.2-0.1-0.6,0-0.6,0l-0.1,1.1c0,0.1-0.5,0.1-0.6,0c-0.1-0.1-0.5-0.1-0.6,0l-1.3,0.7c-0.1,0-0.5-0.9-0.7-0.9
		l-2-0.5c-0.2-0.1-0.6,0-0.6,0l0.4,1.1l-0.1,0L331.4,201.7z"/>
	<path d="M331.4,246.2c-0.1,0-0.2,0-0.3,0l1.9,11.1l0.3-0.1c0-0.1,0.4-0.1,0.6,0l2,0.5c0.2,0,0.5,0,0.6,0l1.3-0.7
		c0.1-0.1,0.5-0.1,0.6,0c0.1,0.1,0.6,0,0.6,0l0.1,0c0-0.1,0.5-0.1,0.6,0l1.7,0.7c0.2,0.1,0.6,0,0.6,0l0.2-0.5c0-0.1,0.3-0.1,0.5-0.1
		l1,0.1l0,0.6h0.1l1.1-0.2c0.1,0,0.3,0,0.4,0l0.6,0.5c0,0,0.2,0,0.3,0l1.2-0.2c0.1,0,0.3,0,0.3,0l0.5-0.1c0,0,0.3,0.1,0.4,0l0.1,0
		c0.1,0,0.3,0,0.4,0l1,0.4c0.1,0,0.4-0.6,0.4-0.7v-0.2c0,0,0.3-0.1,0.4,0l2.1,0.8c0.1,0,0.3,0,0.4,0l0.4-0.1c0.1,0,0.3,0,0.4,0
		l0.3,0.2c-0.3-2.6-0.7-5.3-1.1-8c-0.1,0-0.3,0-0.4,0l-2.2,0.2c-0.1,0-0.4,0-0.4,0v0.2c0,0-0.3,0.1-0.4,0l-1-0.4c-0.1,0-0.3,0-0.4,0
		l-0.1,0c-0.1,0-0.4,0-0.4,0l-0.5-0.6c0,0-0.2,0-0.3,0l-0.8,0.7c-0.1,0-0.3,0-0.3,0l-0.6-0.5c0,0-0.2,0-0.4,0l-0.6,0.1l0-4.5l-0.1,0
		l0,0l-1.7-0.2c-0.2,0-0.5,0-0.5,0.1l-0.3,0.7l-0.1,0l-2.2-0.9c-0.2-0.1-0.6,0-0.6,0l-0.1,1.1c0,0.1-0.5,0.1-0.6,0
		c-0.1-0.1-0.5-0.1-0.6,0l-1.3,0.7c-0.1,0-0.5-0.9-0.7-0.9l-2-0.5c-0.2-0.1-0.6,0-0.6,0l0.4,1.1l-0.1,0L331.4,246.2z"/>
	<path d="M331.4,179.4c-0.2,0-0.5,0-0.5,0.1v0.7l0,0l-0.8-0.4c-0.1-0.1-0.4-1.3-0.5-1.2l-2.2,1.1l-0.2,0l-1.5-1
		c-0.1-0.1-0.4-0.1-0.6,0l-0.6,0.2c-0.1,0-0.4,0-0.6,0l-3.4,0.4c-0.2-0.1-0.6,0-0.6,0v0.3c0,0-0.2,0.1-0.4,0.1l1.8,10.3l2.6,1
		c0.1,0,0.4,0,0.6,0l0.6-0.2c0.2,0,0.5,0,0.6,0l1.3,0.8c0.1,0.1,0.5,0.1,0.6,0l1.9-1c0.1-0.1,0.5-0.1,0.6,0l0.3,0.1
		c0.2,0.1,0.6,0,0.6,0v-0.4c0-0.1,0.3-0.1,0.5-0.1l1.1,0.2l0.4,0.1l0.3-0.1c0-0.1,0.4-0.1,0.6,0l2,0.5c0.2,0,0.5,0,0.6,0l1.3-0.7
		c0.1-0.1,0.5-0.1,0.6,0c0.1,0.1,0.6,0,0.6,0l0.1,0c0-0.1,0.5-0.1,0.6,0l1.7,0.7c0.2,0.1,0.6,0,0.6,0l0.2-0.5c0-0.1,0.3-0.1,0.5-0.1
		l0.2,0c-0.8-3.9-1.5-7.8-2.3-11.6l-1-0.4c-0.2-0.1-0.6,0-0.6,0l-0.1,1.1c0,0.1-0.5,0.1-0.6,0c-0.1-0.1-0.5-0.1-0.6,0l-1.3,0.7
		c-0.1,0-0.5-0.9-0.7-0.9l-2-0.5c-0.2-0.1-0.6,0-0.6,0l0.4,1.1l-0.1,0L331.4,179.4z"/>
	<path d="M331.4,223.9c-0.2,0-0.5,0-0.5,0.1v0.7l0,0l-0.8-0.4c-0.1-0.1-0.4-1.3-0.5-1.2l-2.2,1.1l0,0l1.9,11.1l0.3-0.1
		c0.1-0.1,0.5-0.1,0.6,0l0.3,0.1c0.2,0.1,0.6,0,0.6,0v-0.4c0-0.1,0.3-0.1,0.5-0.1l1.1,0.2l0.4,0.1l0.3-0.1c0-0.1,0.4-0.1,0.6,0
		l2,0.5c0.2,0,0.5,0,0.6,0l1.3-0.7c0.1-0.1,0.5-0.1,0.6,0c0.1,0.1,0.6,0,0.6,0l0.1,0c0-0.1,0.5-0.1,0.6,0l1.7,0.7
		c0.2,0.1,0.6,0,0.6,0l0.2-0.5c0-0.1,0.3-0.1,0.5-0.1l1.7,0.2h0.1l0-6.7l0.4-0.1c0.1,0,0.3,0,0.4,0l0.6,0.5c0,0,0.2,0,0.3,0l1.2-0.2
		c0.1,0,0.3,0,0.3,0l0.5-0.1c0,0,0.3,0.1,0.4,0l0.1,0c0.1,0,0.3,0,0.4,0l0.9,0.4c-0.4-2.6-0.9-5.3-1.4-8c0,0-0.1,0-0.1,0l-0.1,0
		c-0.1,0-0.4,0-0.4,0l-0.5-0.6c0,0-0.2,0-0.3,0l-0.8,0.7c-0.1,0-0.3,0-0.3,0l-0.6-0.5c0,0-0.2,0-0.4,0l-1.1,0.2l0,0l0,0l-0.1,2.4
		l-1.1-0.1c-0.2,0-0.5,0-0.5,0.1l-0.3,0.7l-0.1,0l-2.2-0.9c-0.2-0.1-0.6,0-0.6,0l-0.1,1.1c0,0.1-0.5,0.1-0.6,0
		c-0.1-0.1-0.5-0.1-0.6,0l-1.3,0.7c-0.1,0-0.5-0.9-0.7-0.9l-2-0.5c-0.2-0.1-0.6,0-0.6,0l0.4,1.1l-0.1,0L331.4,223.9z"/>
	<path d="M313.7,146l1.8-0.3c0.2,0,0.5,0,0.5,0l0.7-0.2c0.1,0.1,0.5,0.1,0.6,0l0.2-0.1c0.1,0,0.5,0,0.6,0l1.5,0.7
		c0.1,0.1,0.6-0.9,0.6-1v-0.3c0-0.1,0.5-0.1,0.6,0l3.1,1.2c0.1,0,0.4,0,0.6,0l0.6-0.2c0.2,0,0.5,0,0.6,0l1.3,0.8
		c0.1,0.1,0.5,0.1,0.6,0l1.9-1c0.1-0.1,0.5-0.1,0.6,0l0.3,0.1c0.2,0.1,0.6,0,0.6,0v-0.4c0-0.1,0.3-0.1,0.5-0.1l1.1,0.2l0.4,0.1
		l0.3-0.1c0-0.1,0.4-0.1,0.6-0.1c-0.8-3.9-1.6-7.5-2.4-10.9l-0.2,0c-0.2,0-0.5,0-0.5,0.1v0.7l0,0L330,135c-0.1-0.1-0.4-1.3-0.5-1.2
		l-2.2,1.1l-0.2,0l-1.5-1c-0.1-0.1-0.4-0.1-0.6,0l-0.6,0.2c-0.1,0-0.4,0-0.6,0l-3.4,0.4c-0.2-0.1-0.6,0-0.6,0v0.3
		c0,0.1-0.5,0.1-0.6,0l-1.5-0.7c-0.1-0.1-0.5-0.1-0.6,0l-0.2,0.1c-0.1,0.1-0.6,0-0.6,0l-0.7-0.9c0-0.1-0.3-0.1-0.5,0l-1.3,1
		c-0.2,0-0.5,0-0.5,0l-0.8-0.8c-0.1-0.1-0.3-0.1-0.5,0l-0.5,0.1L313.7,146z"/>
	<path d="M132.4,176.2c0.1,0,0.4,0.1,0.6,0l2-0.5c0.2-0.1,0.6,0,0.6,0l0.3,0.1l0.4-0.1l1.1-0.2c0.2,0,0.5,0,0.5,0.1v0.4
		c0,0.1,0.5,0.1,0.6,0l0.3-0.1c0.1-0.1,0.5-0.1,0.6,0l1.9,1c0.1,0.1,0.5,0.1,0.6,0l1.3-0.8c0.1-0.1,0.4-0.1,0.6,0l0.6,0.2
		c0.1,0,0.4,0,0.6,0l3.1-1.2c0.2-0.1,0.6,0,0.6,0v0.3c0,0.1,0.5,1.1,0.6,1l0.1-0.1l2.1-12.1c-0.2,0-0.4,0-0.5,0l-1.5,0.7
		c-0.1,0.1-0.6,0-0.6,0v-0.3c0-0.1-0.5-0.1-0.6,0l-3.4-0.4c-0.1,0-0.4,0-0.6,0l-0.6-0.2c-0.2,0-0.5,0-0.6,0l-1.5,1l-0.2,0l-2.2-1.1
		c-0.1-0.1-0.4,1.2-0.5,1.2l-0.8,0.4l0,0v-0.7c0-0.1-0.3-0.1-0.5-0.1l-2.2,0.2l-0.1,0l0.4-1.1c0-0.1-0.4-0.1-0.6,0l-1.3,0.3
		c-0.8,3.7-1.6,7.5-2.3,11.4L132.4,176.2z"/>
	<path d="M136.4,153.5l1.1-0.2c0.2,0,0.5,0,0.5,0.1v0.1v0.3c0,0.1,0.5,0.1,0.6,0l0.3-0.1c0.1-0.1,0.5-0.1,0.6,0l1.9,1
		c0.1,0.1,0.5,0.1,0.6,0l1.3-0.8c0.1-0.1,0.4-0.1,0.6,0l0.6,0.2c0.1,0,0.4,0,0.6,0l3.1-1.2c0.2-0.1,0.6,0,0.6,0v0.3
		c0,0.1,0.5,1.1,0.6,1l1.5-0.7c0.1-0.1,0.5-0.1,0.6,0l0.2,0.1c0.1,0.1,0.6,0,0.6,0l0.7,0.2c0,0,0.3-0.1,0.5,0l2.1-11.9l0,0
		c-0.1,0-0.3,0.1-0.5,0l-1.3-1c-0.2,0-0.5,0-0.5,0l-0.7,0.9c-0.1,0.1-0.5,0.1-0.6,0l-0.2-0.1c-0.1,0-0.5,0-0.6,0l-1.5,0.7
		c-0.1,0.1-0.6,0-0.6,0v-0.3c0-0.1-0.5-0.1-0.6,0l-3.4-0.4c-0.1,0-0.4,0-0.6,0l-0.6-0.2c-0.2,0-0.5,0-0.6,0l-1.5,1l-0.2,0l-2.2-1.1
		c-0.1-0.1-0.4,1.2-0.5,1.2l-0.6,0.3c-0.7,3.4-1.5,7-2.3,10.7L136.4,153.5z"/>
	<path d="M122.7,228.6c0.1,0,0.3,0,0.3,0l0.6-0.5c0,0,0.2,0,0.4,0l1.1,0.2h0.1l-0.2-7.7l0,0l0,0l-1.1-0.2c-0.1,0-0.3,0-0.4,0
		l-0.4,0.4c-0.5,2.6-0.9,5.2-1.3,7.7L122.7,228.6z"/>
	<path d="M127.5,198.3l1.7-0.7c0.2-0.1,0.6,0,0.6,0l0.1,0c0,0.1,0.5,0.1,0.6,0c0.1-0.1,0.5-0.1,0.6,0l1.3,0.7c0.1,0,0.4,0.1,0.6,0
		l2-0.5c0.2-0.1,0.6,0,0.6,0l0.3,0.1l0.4-0.1l1.1-0.2c0.2,0,0.5,0,0.5,0.1v0.4c0,0.1,0.5,0.1,0.6,0l0.3-0.1c0.1-0.1,0.5-0.1,0.6,0
		l1.9,1c0.1,0.1,0.5,0.1,0.6,0l1.3-0.8c0.1-0.1,0.4-0.1,0.6,0l0.6,0.2c0.1,0,0.4,0,0.6,0l0.7-0.3l2-11.5l-2.7-0.3
		c-0.1,0-0.4,0-0.6,0l-0.6-0.2c-0.2,0-0.5,0-0.6,0l-1.5,1l-0.2,0l-2.2-1.1c-0.1-0.1-0.4,1.2-0.5,1.2l-0.8,0.4l0,0v-0.7
		c0-0.1-0.3-0.1-0.5-0.1l-2.2,0.2l-0.1,0l0.4-1.1c0-0.1-0.4-0.1-0.6,0l-2,0.5c-0.2,0-0.6,1-0.7,0.9l-1.3-0.7c-0.1-0.1-0.5-0.1-0.6,0
		c-0.1,0.1-0.6,0-0.6,0l-0.1-1.1c0,0-0.2-0.1-0.3-0.1c-0.8,4.2-1.6,8.4-2.4,12.6C127.2,198.3,127.4,198.3,127.5,198.3z"/>
	<path d="M124.3,213.4l0,6.7h0.1l1.7-0.2c0.2,0,0.5,0,0.5,0.1l0.2,0.5c0,0.1,0.5,0.1,0.6,0l1.7-0.7c0.2-0.1,0.6,0,0.6,0l0.1,0
		c0,0.1,0.5,0.1,0.6,0c0.1-0.1,0.5-0.1,0.6,0l1.3,0.7c0.1,0,0.4,0.1,0.6,0l2-0.5c0.2-0.1,0.6,0,0.6,0l0.3,0.1l0.4-0.1l1.1-0.2
		c0.2,0,0.5,0,0.5,0.1v0.4c0,0.1,0.5,0.1,0.6,0l0.3-0.1c0.1-0.1,0.5-0.1,0.6,0l1.9,1c0.1,0,0.2,0,0.3,0l2.2-12.9l-0.1,0
		c-0.2,0-0.5,0-0.6,0l-1.5,1l-0.2,0l-2.2-1.1c-0.1-0.1-0.4,1.2-0.5,1.2l-0.8,0.4l0,0v-0.7c0-0.1-0.3-0.1-0.5-0.1l-2.2,0.2l-0.1,0
		l0.4-1.1c0-0.1-0.4-0.1-0.6,0l-2,0.5c-0.2,0-0.6,1-0.7,0.9l-1.3-0.7c-0.1-0.1-0.5-0.1-0.6,0c-0.1,0.1-0.6,0-0.6,0l-0.1-1.1
		c0-0.1-0.5-0.1-0.6,0l-2.2,0.9l-0.1,0l-0.3-0.7c0-0.1-0.3-0.1-0.5-0.1l-0.9,0.1C124.9,209.9,124.6,211.6,124.3,213.4L124.3,213.4z"
		/>
	<path d="M142.5,123.8c-0.5,2.4-1.1,5.1-1.8,8l0.6,0.3c0.1,0.1,0.5,0.1,0.6,0l1.3-0.8c0.1-0.1,0.4-0.1,0.6,0l0.6,0.2
		c0.1,0,0.4,0,0.6,0l3.1-1.2c0.2-0.1,0.6,0,0.6,0v0.3c0,0.1,0.5,1.1,0.6,1l1.5-0.7c0.1-0.1,0.5-0.1,0.6,0l0.2,0.1
		c0.1,0.1,0.6,0,0.6,0l0.7,0.2c0-0.1,0.3-0.1,0.5,0l1.8,0.3c0.2,0,0.5,0,0.5,0l0.8-0.8c0.1-0.1,0.3-0.1,0.5,0l0.3,0.1l0.8-4.8
		C149.9,124.9,144.5,124.1,142.5,123.8z"/>
	<path d="M123.4,279.1l-0.6,0.5c0,0-0.2,0-0.3,0l-0.8-0.7c-0.1,0-0.3,0-0.3,0l-0.3,0.4c3.5,0.8,6.9,1.6,10.2,2.3l0.9-5.3l-1-0.6
		c-0.1-0.1-0.5-0.1-0.6,0c-0.1,0.1-0.6,0-0.6,0l-0.1-1.1c0-0.1-0.5-0.1-0.6,0l-2.2,0.9l-0.1,0l-0.3-0.7c0-0.1-0.3-0.1-0.5-0.1
		l-1.7,0.2l0,0l-0.1,0l0,4.2l-0.6-0.1C123.6,279.1,123.4,279.1,123.4,279.1z"/>
	<path d="M118,257.2c0.1,0,0.4,0,0.4,0v0.2c0,0,0.3,0.7,0.4,0.7l1-0.4c0.1,0,0.3,0,0.4,0l0.1,0c0.1,0,0.4,0,0.4,0l0.5,0.1
		c0,0,0.2,0,0.3,0l1.2,0.2c0.1,0,0.3,0,0.3,0l0.6-0.5c0,0,0.2,0,0.4,0l0.4,0.1l0,6.9l-0.6-0.1c-0.1,0-0.3,0-0.4,0l-0.6,0.5
		c0,0-0.2,0-0.3,0l-0.8-0.7c-0.1,0-0.3,0-0.3,0l-0.5,0.6c0,0-0.3,0.1-0.4,0l-0.1,0c-0.1,0-0.3,0-0.4,0l-1,0.4c-0.1,0-0.4,0-0.4,0
		V265c0,0-0.3-0.1-0.4,0l-1.8-0.2c-0.3,2.8-0.6,5.6-0.8,8.1c0.1,0,0.3,0,0.3,0l2.1-0.8c0.1,0,0.4,0,0.4,0v0.2c0,0,0.3,0.7,0.4,0.7
		l1-0.4c0.1,0,0.3,0,0.4,0l0.1,0c0.1,0,0.4,0,0.4,0l0.5,0.1c0,0,0.2,0,0.3,0l1.2,0.2c0.1,0,0.3,0,0.3,0l0.6-0.5c0,0,0.2,0,0.4,0
		l1.1,0.2h0.1l0-0.2h0l-0.2-7.6l1.2-0.2c0.2,0,0.5,0,0.5,0.1l0.2,0.5c0,0.1,0.5,0.1,0.6,0l1.7-0.7c0.2-0.1,0.6,0,0.6,0l0.1,0
		c0,0.1,0.5,0.1,0.6,0c0.1-0.1,0.5-0.1,0.6,0l1.3,0.7c0.1,0,0.4,0.1,0.6,0l1.2-0.3l1.9-11l-0.7,0.1l-0.1,0l0.4-1.1
		c0-0.1-0.4-0.1-0.6,0l-2,0.5c-0.2,0-0.6,1-0.7,0.9l-1.3-0.7c-0.1-0.1-0.5-0.1-0.6,0c-0.1,0.1-0.6,0-0.6,0l-0.1-1.1
		c0-0.1-0.5-0.1-0.6,0l-2.2,0.9l-0.1,0l-0.3-0.7c0-0.1-0.3-0.1-0.5-0.1l-1.1,0.1l-0.1-2.9l0,0l0,0l-1.1-0.2c-0.1,0-0.3,0-0.4,0
		l-0.6,0.5c0,0-0.2,0-0.3,0l-0.8-0.7c-0.1,0-0.3,0-0.3,0l-0.5,0.6c0,0-0.3,0.1-0.4,0l-0.1,0c-0.1,0-0.3,0-0.4,0l-1,0.4
		c-0.1,0-0.4,0-0.4,0v-0.2c0,0-0.2-0.1-0.3,0c-0.3,2.5-0.7,4.9-1,7.2L118,257.2z"/>
	<path d="M135.1,230.6l-2,0.5c-0.2,0-0.6,1-0.7,0.9l-1.3-0.7c-0.1-0.1-0.5-0.1-0.6,0c-0.1,0.1-0.6,0-0.6,0l-0.1-1.1
		c0-0.1-0.5-0.1-0.6,0L127,231l-0.1,0l-0.3-0.7c0-0.1-0.3-0.1-0.5-0.1l-1.7,0.2l0,0l-0.1,0l0,4.5l-0.6-0.1c-0.1,0-0.3,0-0.4,0
		l-0.6,0.5c0,0-0.2,0-0.3,0l-0.8-0.7c-0.1,0-0.3,0-0.3,0l-0.5,0.6c0,0-0.3,0-0.4,0c-0.4,2.6-0.8,5.2-1.2,7.7l0.5-0.2
		c0.1,0,0.3,0,0.4,0l0.1,0c0.1,0,0.4,0,0.4,0l0.5,0.1c0,0,0.2,0,0.3,0l1.2,0.2c0.1,0,0.3,0,0.3,0l0.6-0.5c0,0,0.2,0,0.4,0l1.1,0.2
		h0.1l0-0.6l1-0.1c0.2,0,0.5,0,0.5,0.1l0.2,0.5c0,0.1,0.5,0.1,0.6,0l1.7-0.7c0.2-0.1,0.6,0,0.6,0l0.1,0c0,0.1,0.5,0.1,0.6,0
		c0.1-0.1,0.5-0.1,0.6,0l1.3,0.7c0.1,0,0.4,0.1,0.6,0l2-0.5c0.2-0.1,0.6,0,0.6,0l0.3,0.1l0.4-0.1l1.1-0.2c0.2,0,0.5,0,0.5,0.1v0.4
		c0,0,0,0,0,0l2.1-11.8l-0.6-0.3c-0.1-0.1-0.4,1.2-0.5,1.2l-0.8,0.4l0,0v-0.7c0-0.1-0.3-0.1-0.5-0.1l-2.2,0.2l-0.1,0l0.4-1.1
		C135.7,230.6,135.3,230.6,135.1,230.6z"/>
	<path d="M615.1,268.4c-0.2,0-0.5,0-0.5,0.1v0.7l0,0l-0.8-0.4c-0.1-0.1-0.4-1.2-0.5-1.2l2,11.6l1.1,0.1l0.4,0.1l0.3-0.1
		c0-0.1,0.4-0.1,0.6,0l2,0.5c0.2,0,0.5,0,0.6,0l1.3-0.7c0.1-0.1,0.5-0.1,0.6,0c0.1,0.1,0.6,0,0.6,0l0.1,0c0-0.1,0.5-0.1,0.6,0
		l1.7,0.7c0.2,0.1,0.6,0,0.6,0l0.2-0.5c0-0.1,0.3-0.1,0.5-0.1l1.2,0.2l0,0.5c0.7-0.2,1.3-0.3,2-0.5l-0.4-0.4c0,0-0.2,0-0.4,0
		l-0.6,0.1l0-6.9l0.4-0.1c0.1,0,0.3,0,0.4,0l0.6,0.5c0,0,0.2,0,0.3,0l1.2-0.2c0.1,0,0.3,0,0.3,0l0.5-0.1c0,0,0.3,0.1,0.4,0l0.1,0
		c0.1,0,0.3,0,0.4,0l1,0.4c0.1,0,0.4-0.6,0.4-0.7v-0.2c0,0,0,0,0.1,0c-0.2-2.1-0.4-4.4-0.7-6.7l-1-0.4c-0.1,0-0.3,0-0.4,0l-0.1,0
		c-0.1,0-0.4,0-0.4,0l-0.5-0.6c0,0-0.2,0-0.3,0l-0.8,0.7c-0.1,0-0.3,0-0.3,0l-0.6-0.5c0,0-0.2,0-0.4,0l-1.1,0.2l0,0l0,0l-0.1,2.9
		l-1.1-0.1c-0.2,0-0.5,0-0.5,0.1l-0.3,0.7l-0.1,0l-2.2-0.9c-0.2-0.1-0.6,0-0.6,0l-0.1,1.1c0,0.1-0.5,0.1-0.6,0
		c-0.1-0.1-0.5-0.1-0.6,0l-1.3,0.7c-0.1,0-0.5-0.9-0.7-0.9l-2-0.5c-0.2-0.1-0.6,0-0.6,0l0.4,1.1l-0.1,0L615.1,268.4z"/>
	<path d="M615.1,246.2c-0.2,0-0.5,0-0.5,0.1v0.7l0,0l-0.8-0.4c-0.1-0.1-0.4-1.3-0.5-1.2l-2.2,1.1l-0.2,0l-1.5-1c0,0,0,0,0,0
		l2.2,12.8l1.6-0.8c0.1-0.1,0.5-0.1,0.6,0l0.3,0.1c0.2,0.1,0.6,0,0.6,0v-0.4c0-0.1,0.3-0.1,0.5-0.1l1.1,0.2l0.4,0.1l0.3-0.1
		c0-0.1,0.4-0.1,0.6,0l2,0.5c0.2,0,0.5,0,0.6,0l1.3-0.7c0.1-0.1,0.5-0.1,0.6,0c0.1,0.1,0.6,0,0.6,0l0.1,0c0-0.1,0.5-0.1,0.6,0
		l1.7,0.7c0.2,0.1,0.6,0,0.6,0l0.2-0.5c0-0.1,0.3-0.1,0.5-0.1l1,0.1l0,0.6h0.1l1.1-0.2c0.1,0,0.3,0,0.4,0l0.6,0.5c0,0,0.2,0,0.3,0
		l1.2-0.2c0.1,0,0.3,0,0.3,0l0.5-0.1c0,0,0.3,0.1,0.4,0l0.1,0c0.1,0,0.2,0,0.3,0c-0.3-2.4-0.7-5-1-7.6l-0.4-0.5c0,0-0.2,0-0.3,0
		l-0.8,0.7c-0.1,0-0.3,0-0.3,0l-0.6-0.5c0,0-0.2,0-0.4,0l-0.6,0.1l0-4.5l-0.1,0l0,0l-1.7-0.2c-0.2,0-0.5,0-0.5,0.1l-0.3,0.7l-0.1,0
		l-2.2-0.9c-0.2-0.1-0.6,0-0.6,0l-0.1,1.1c0,0.1-0.5,0.1-0.6,0c-0.1-0.1-0.5-0.1-0.6,0l-1.3,0.7c-0.1,0-0.5-0.9-0.7-0.9l-2-0.5
		c-0.2-0.1-0.6,0-0.6,0l0.4,1.1l-0.1,0L615.1,246.2z"/>
	<path d="M631,278.8l-0.4,0.3c0.2-0.1,0.5-0.1,0.8-0.2l-0.1-0.1C631.3,278.8,631.1,278.7,631,278.8z"/>
	<path d="M590,134.7l1.6,0.6c0.2,0.1,0.6,0,0.6,0l0.2-0.5c0-0.1,0.3-0.1,0.5-0.1l0.8,0.1l-0.3,10.3l-0.5-0.1c-0.2,0-0.5,0-0.5,0.1
		l-0.3,0.7l-0.1,0l-0.2-0.1l3.8,21.9c0.1,0,0.1,0,0.1,0l0.8,0.8c0.1,0,0.3,0.1,0.5,0l1.8-0.3c0.2,0,0.5,0,0.5,0l0.7-0.2
		c0.1,0.1,0.5,0.1,0.6,0l0.2-0.1c0.1,0,0.5,0,0.6,0l1.5,0.7c0.1,0.1,0.6-0.9,0.6-1v-0.3c0-0.1,0.5-0.1,0.6,0l3.1,1.2
		c0.1,0,0.4,0,0.6,0l0.6-0.2c0.2,0,0.5,0,0.6,0l1.3,0.8c0.1,0.1,0.5,0.1,0.6,0l1.9-1c0.1-0.1,0.5-0.1,0.6,0l0.3,0.1
		c0.2,0.1,0.6,0,0.6,0v-0.3v-0.1c0-0.1,0.3-0.1,0.5-0.1l1.1,0.2l0.4,0.1l0.3-0.1c-0.8-3.9-1.6-7.7-2.3-11.3c0,0-0.1,0-0.1,0v0.3v0.4
		l0,0l-0.8-0.4c-0.1-0.1-0.4-1.3-0.5-1.2l-2.2,1.1l-0.2,0l-1.5-1c-0.1-0.1-0.4-0.1-0.6,0l-0.6,0.2c-0.1,0-0.4,0-0.6,0l-3.4,0.4
		c-0.2-0.1-0.6,0-0.6,0v0.3c0,0.1-0.5,0.1-0.6,0l-1.5-0.7c-0.1-0.1-0.5-0.1-0.6,0l-0.2,0.1c-0.1,0.1-0.6,0-0.6,0l-0.7-0.9
		c0-0.1-0.3-0.1-0.5,0l-1.3,1c-0.2,0-0.5,0-0.5,0l-0.8-0.8c-0.1-0.1-0.3-0.1-0.5,0l-0.8,0.1l0-10.1l0,0l0-0.3l-0.1,0l0,0l-0.3,0
		l0.9-0.2c0.2,0,0.5,0,0.5,0l0.8,0.8c0.1,0,0.3,0.1,0.5,0l1.8-0.3c0.2,0,0.5,0,0.5,0l0.7-0.2c0.1,0.1,0.5,0.1,0.6,0l0.2-0.1
		c0.1,0,0.5,0,0.6,0l1.5,0.7c0.1,0.1,0.6-0.9,0.6-1v-0.3c0-0.1,0.5-0.1,0.6,0l3.1,1.2c0.1,0,0.4,0,0.6,0l0.6-0.2c0.2,0,0.5,0,0.6,0
		l1.3,0.8c0.1,0.1,0.5,0.1,0.6,0l1.1-0.6c-0.9-4.3-1.8-8.3-2.6-12l-0.4-0.3c-0.1-0.1-0.4-0.1-0.6,0l-0.6,0.2c-0.1,0-0.4,0-0.6,0
		l-3.4,0.4c-0.2-0.1-0.6,0-0.6,0v0.3c0,0.1-0.5,0.1-0.6,0l-1.5-0.7c-0.1-0.1-0.5-0.1-0.6,0l-0.2,0.1c-0.1,0.1-0.6,0-0.6,0l-0.7-0.9
		c0-0.1-0.3-0.1-0.5,0l-1.3,1c-0.2,0-0.5,0-0.5,0l-0.8-0.8c-0.1-0.1-0.3-0.1-0.5,0l-0.8,0.1l0-8.7c-1.9,0.3-4.1,0.5-6.4,0.8
		L590,134.7z"/>
	<path d="M615.1,223.9c-0.2,0-0.5,0-0.5,0.1v0.7l0,0l-0.8-0.4c-0.1-0.1-0.4-1.3-0.5-1.2l-2.2,1.1l-0.2,0l-1.5-1
		c-0.1-0.1-0.4-0.1-0.6,0l-0.6,0.2c-0.1,0-0.4,0-0.6,0l-2.1,0.2l2.1,11.8l0,0c0.1,0,0.4,0,0.6,0l0.6-0.2c0.2,0,0.5,0,0.6,0l1.3,0.8
		c0.1,0.1,0.5,0.1,0.6,0l1.9-1c0.1-0.1,0.5-0.1,0.6,0l0.3,0.1c0.2,0.1,0.6,0,0.6,0v-0.4c0-0.1,0.3-0.1,0.5-0.1l1.1,0.2l0.4,0.1
		l0.3-0.1c0-0.1,0.4-0.1,0.6,0l2,0.5c0.2,0,0.5,0,0.6,0l1.3-0.7c0.1-0.1,0.5-0.1,0.6,0c0.1,0.1,0.6,0,0.6,0l0.1,0
		c0-0.1,0.5-0.1,0.6,0l1.7,0.7c0.2,0.1,0.6,0,0.6,0l0.2-0.5c0-0.1,0.3-0.1,0.5-0.1l1.7,0.2h0.1l0-6.7c-0.3-1.8-0.6-3.5-0.9-5.3
		l-0.9-0.1c-0.2,0-0.5,0-0.5,0.1l-0.3,0.7l-0.1,0l-2.2-0.9c-0.2-0.1-0.6,0-0.6,0l-0.1,1.1c0,0.1-0.5,0.1-0.6,0
		c-0.1-0.1-0.5-0.1-0.6,0l-1.3,0.7c-0.1,0-0.5-0.9-0.7-0.9l-2-0.5c-0.2-0.1-0.6,0-0.6,0l0.4,1.1l-0.1,0L615.1,223.9z"/>
	<path d="M615.1,179.4c-0.2,0-0.5,0-0.5,0.1v0.7l0,0l-0.8-0.4c-0.1-0.1-0.4-1.3-0.5-1.2l-2.2,1.1l-0.2,0l-1.5-1
		c-0.1-0.1-0.4-0.1-0.6,0l-0.6,0.2c-0.1,0-0.4,0-0.6,0l-3.4,0.4c-0.2-0.1-0.6,0-0.6,0v0.3c0,0.1-0.5,0.1-0.6,0l-1.5-0.7
		c-0.1-0.1-0.5-0.1-0.6,0l-0.2,0.1c-0.1,0.1-0.6,0-0.6,0l-0.7-0.9c0-0.1-0.3-0.1-0.5,0l-1.1,0.9l2,11.6l0.6-0.2
		c0.1,0.1,0.5,0.1,0.6,0l0.2-0.1c0.1,0,0.5,0,0.6,0l1.5,0.7c0.1,0.1,0.6-0.9,0.6-1v-0.3c0-0.1,0.5-0.1,0.6,0l3.1,1.2
		c0.1,0,0.4,0,0.6,0l0.6-0.2c0.2,0,0.5,0,0.6,0l1.3,0.8c0.1,0.1,0.5,0.1,0.6,0l1.9-1c0.1-0.1,0.5-0.1,0.6,0l0.3,0.1
		c0.2,0.1,0.6,0,0.6,0v-0.4c0-0.1,0.3-0.1,0.5-0.1l1.1,0.2l0.4,0.1l0.3-0.1c0-0.1,0.4-0.1,0.6,0l2,0.5c0.2,0,0.5,0,0.6,0l1.2-0.7
		c-0.7-3.8-1.5-7.5-2.2-11.2l-1.7-0.4c-0.2-0.1-0.6,0-0.6,0l0.4,1.1l-0.1,0L615.1,179.4z"/>
	<path d="M615.1,201.7c-0.2,0-0.5,0-0.5,0.1v0.7l0,0l-0.8-0.4c-0.1-0.1-0.4-1.3-0.5-1.2L611,202l-0.2,0l-1.5-1
		c-0.1-0.1-0.4-0.1-0.6,0l-0.6,0.2c-0.1,0-0.4,0-0.6,0l-3.4,0.4c-0.2-0.1-0.6,0-0.6,0v0.3c0,0.1-0.5,0.1-0.6,0l-1.3-0.6l2,11.5
		c0.1-0.2,0.2-0.4,0.2-0.4V212c0-0.1,0.5-0.1,0.6,0l3.1,1.2c0.1,0,0.4,0,0.6,0l0.6-0.2c0.2,0,0.5,0,0.6,0l1.3,0.8
		c0.1,0.1,0.5,0.1,0.6,0l1.9-1c0.1-0.1,0.5-0.1,0.6,0l0.3,0.1c0.2,0.1,0.6,0,0.6,0v-0.4c0-0.1,0.3-0.1,0.5-0.1l1.1,0.2l0.4,0.1
		l0.3-0.1c0-0.1,0.4-0.1,0.6,0l2,0.5c0.2,0,0.5,0,0.6,0l1.3-0.7c0.1-0.1,0.5-0.1,0.6,0c0.1,0.1,0.6,0,0.6,0l0.1,0
		c0-0.1,0.5-0.1,0.6,0l1.7,0.7c0.1,0,0.4,0,0.5,0c-0.8-4.2-1.5-8.4-2.3-12.6c-0.2,0-0.5,0-0.5,0l-0.1,1.1c0,0.1-0.5,0.1-0.6,0
		c-0.1-0.1-0.5-0.1-0.6,0l-1.3,0.7c-0.1,0-0.5-0.9-0.7-0.9l-2-0.5c-0.2-0.1-0.6,0-0.6,0l0.4,1.1l-0.1,0L615.1,201.7z"/>
	<path d="M603.5,123.6c-0.2,0-0.5,0.1-0.7,0.1l0.4,0.2C603.3,123.9,603.4,123.8,603.5,123.6z"/>
	<path d="M627.7,235.1L627.7,235.1l-0.2,7.7h0.1l1.1-0.2c0.1,0,0.3,0,0.4,0l0.6,0.5c0,0,0.2,0,0.3,0l0.8-0.1c-0.4-2.6-0.8-5.3-1.2-8
		l-0.2-0.2c0,0-0.2,0-0.4,0L627.7,235.1L627.7,235.1z"/>
	<path d="M607.3,123c-0.3,0.1-0.8,0.1-1.3,0.2l1.5,0.6C607.4,123.6,607.4,123.3,607.3,123z"/>
	<path d="M414.2,253.6c-0.1,0.1-0.6,0-0.6,0l-0.1-1.1c0-0.1-0.5-0.1-0.6,0l-2.2,0.9l-0.1,0l-0.3-0.7c0-0.1-0.3-0.1-0.5-0.1l-1.1,0.1
		l-0.1-2.9l0,0l0,0l-1.1-0.2c-0.1,0-0.3,0-0.4,0l-0.6,0.5c0,0-0.2,0-0.3,0l-0.8-0.7c-0.1,0-0.3,0-0.3,0l-0.5,0.6c0,0-0.3,0.1-0.4,0
		l-0.1,0c-0.1,0-0.3,0-0.4,0l-1,0.4c-0.1,0-0.4,0-0.4,0v-0.2c0,0-0.3-0.1-0.4,0l-2.2-0.2c-0.1,0-0.3,0-0.4,0l-0.4-0.1
		c-0.1,0-0.3,0-0.4,0l-1,0.7l-0.1,0l-0.8-0.4c-0.4,2.6-0.7,5.1-1,7.6c0.1,0,0.3,0,0.4,0l1.3,0.6c0.1,0,0.3,0,0.4,0l0.8-0.6
		c0.1,0,0.3,0,0.4,0l0.4,0.1c0.1,0,0.3,0,0.4,0l2.1-0.8c0.1,0,0.4,0,0.4,0v0.2c0,0,0.3,0.7,0.4,0.7l1-0.4c0.1,0,0.3,0,0.4,0l0.1,0
		c0.1,0,0.4,0,0.4,0l0.5,0.1c0,0,0.2,0,0.3,0l1.2,0.2c0.1,0,0.3,0,0.3,0l0.6-0.5c0,0,0.2,0,0.4,0l0.4,0.1l0,6.9l-0.6-0.1
		c-0.1,0-0.3,0-0.4,0l-0.6,0.5c0,0-0.2,0-0.3,0l-0.8-0.7c-0.1,0-0.3,0-0.3,0l-0.5,0.6c0,0-0.3,0.1-0.4,0l-0.1,0c-0.1,0-0.3,0-0.4,0
		l-1,0.4c-0.1,0-0.4,0-0.4,0V265c0,0-0.3-0.1-0.4,0l-2.2-0.2c-0.1,0-0.3,0-0.4,0l-0.4-0.1c-0.1,0-0.3,0-0.4,0l-1,0.7l-0.1,0
		l-1.4-0.7c-0.1,0-0.3,0.8-0.3,0.8l-0.6,0.2l0,0v-0.2v-0.2c0,0-0.2-0.1-0.3,0c-0.3,2.6-0.5,5.1-0.7,7.5l0.7-0.1c0.1,0,0.3,0,0.3,0
		v0.1v0.2c0,0,0.3,0.1,0.4,0l0.2-0.1c0.1,0,0.3,0,0.4,0l1.3,0.6c0.1,0,0.3,0,0.4,0l0.8-0.6c0.1,0,0.3,0,0.4,0l0.4,0.1
		c0.1,0,0.3,0,0.4,0l2.1-0.8c0.1,0,0.4,0,0.4,0v0.2c0,0,0.3,0.7,0.4,0.7l1-0.4c0.1,0,0.3,0,0.4,0l0.1,0c0.1,0,0.4,0,0.4,0l0.5,0.1
		c0,0,0.2,0,0.3,0l1.2,0.2c0.1,0,0.3,0,0.3,0l0.6-0.5c0,0,0.2,0,0.4,0l1.1,0.2h0.1l0-0.2h0l-0.2-7.6l1.2-0.2c0.2,0,0.5,0,0.5,0.1
		l0.2,0.5c0,0.1,0.5,0.1,0.6,0l1.4-0.5l1.9-10.9C414.4,253.6,414.3,253.6,414.2,253.6z"/>
	<path d="M410.3,175.5l0.2,0.5c0,0.1,0.5,0.1,0.6,0l1.7-0.7c0.2-0.1,0.6,0,0.6,0l0.1,0c0,0.1,0.5,0.1,0.6,0c0.1-0.1,0.5-0.1,0.6,0
		l1.3,0.7c0.1,0,0.4,0.1,0.6,0l2-0.5c0.2-0.1,0.6,0,0.6,0l0.3,0.1l0.4-0.1l1.1-0.2c0.2,0,0.5,0,0.5,0.1v0.4c0,0.1,0.5,0.1,0.6,0
		l0.3-0.1c0.1-0.1,0.5-0.1,0.6,0l1.9,1c0.1,0.1,0.5,0.1,0.6,0l1.3-0.8c0.1-0.1,0.4-0.1,0.6,0l0.4,0.1l2.1-11.9l-1.3-0.1
		c-0.1,0-0.4,0-0.6,0l-0.6-0.2c-0.2,0-0.5,0-0.6,0l-1.5,1l-0.2,0l-2.2-1.1c-0.1-0.1-0.4,1.2-0.5,1.2l-0.8,0.4l0,0v-0.7
		c0-0.1-0.3-0.1-0.5-0.1l-2.2,0.2l-0.1,0l0.4-1.1c0-0.1-0.4-0.1-0.6,0l-2,0.5c-0.2,0-0.6,1-0.7,0.9l-1.3-0.7c-0.1-0.1-0.5-0.1-0.6,0
		c-0.1,0.1-0.6,0-0.6,0l-0.1-1.1c0-0.1-0.5-0.1-0.6,0l-0.6,0.2c-0.8,3.8-1.6,7.7-2.4,11.7C410.1,175.4,410.3,175.4,410.3,175.5z"/>
	<path d="M416.8,231.1c-0.2,0-0.6,1-0.7,0.9l-1.3-0.7c-0.1-0.1-0.5-0.1-0.6,0c-0.1,0.1-0.6,0-0.6,0l-0.1-1.1c0-0.1-0.5-0.1-0.6,0
		l-2.2,0.9l-0.1,0l-0.3-0.7c0-0.1-0.3-0.1-0.5-0.1l-1.7,0.2l0,0l-0.1,0l0,4.5l-0.6-0.1c-0.1,0-0.3,0-0.4,0l-0.6,0.5c0,0-0.2,0-0.3,0
		l-0.8-0.7c-0.1,0-0.3,0-0.3,0l-0.5,0.6c0,0-0.3,0.1-0.4,0l-0.1,0c-0.1,0-0.3,0-0.4,0l-1,0.4c-0.1,0-0.4,0-0.4,0v-0.2
		c0,0-0.3-0.1-0.4,0l-2.2-0.2c-0.1,0-0.3,0-0.4,0l-0.4-0.1c-0.5,2.9-0.9,5.7-1.3,8.5c0,0,0.1,0,0.1,0l0.8-0.6c0.1,0,0.3,0,0.4,0
		l0.4,0.1c0.1,0,0.3,0,0.4,0l2.1-0.8c0.1,0,0.4,0,0.4,0v0.2c0,0,0.3,0.7,0.4,0.7l1-0.4c0.1,0,0.3,0,0.4,0l0.1,0c0.1,0,0.4,0,0.4,0
		l0.5,0.1c0,0,0.2,0,0.3,0l1.2,0.2c0.1,0,0.3,0,0.3,0l0.6-0.5c0,0,0.2,0,0.4,0l1.1,0.2h0.1l0-0.6l1-0.1c0.2,0,0.5,0,0.5,0.1l0.2,0.5
		c0,0.1,0.5,0.1,0.6,0l1.7-0.7c0.2-0.1,0.6,0,0.6,0l0.1,0c0,0.1,0.5,0.1,0.6,0c0.1-0.1,0.5-0.1,0.6,0l1.3,0.7c0,0,0.1,0,0.2,0
		l2.1-12.3L416.8,231.1z"/>
	<path d="M418.8,186.1l-2,0.5c-0.2,0-0.6,1-0.7,0.9l-1.3-0.7c-0.1-0.1-0.5-0.1-0.6,0c-0.1,0.1-0.6,0-0.6,0l-0.1-1.1
		c0-0.1-0.5-0.1-0.6,0l-2.2,0.9l-0.1,0l-0.3-0.7c0,0-0.3-0.1-0.5-0.1l-1.7,0.2l0,0l-0.1,0l0,5l-0.6-0.1c-0.1,0-0.3,0-0.4,0l-0.3,0.3
		c-0.5,2.6-1,5.2-1.5,7.8l1.1,0.2c0.1,0,0.3,0,0.3,0l0.6-0.5c0,0,0.2,0,0.4,0l1.1,0.2h0.1l0-1.1l1-0.1c0.2,0,0.5,0,0.5,0.1l0.2,0.5
		c0,0.1,0.5,0.1,0.6,0l1.7-0.7c0.2-0.1,0.6,0,0.6,0l0.1,0c0,0.1,0.5,0.1,0.6,0c0.1-0.1,0.5-0.1,0.6,0l1.3,0.7c0.1,0,0.4,0.1,0.6,0
		l2-0.5c0.2-0.1,0.6,0,0.6,0l0.3,0.1l0.4-0.1l1.1-0.2c0.2,0,0.5,0,0.5,0.1v0.4c0,0.1,0.5,0.1,0.6,0l0.3-0.1c0.1-0.1,0.5-0.1,0.6,0
		l0.9,0.4l2-11.8l-0.6,0.4l-0.2,0l-2.2-1.1c-0.1-0.1-0.4,1.2-0.5,1.2l-0.8,0.4l0,0v-0.7c0-0.1-0.3-0.1-0.5-0.1l-2.2,0.2l-0.1,0
		l0.4-1.1C419.4,186.1,419,186.1,418.8,186.1z"/>
	<path d="M414.8,153.2l1.3,0.7c0.1,0,0.4,0.1,0.6,0l2-0.5c0.2-0.1,0.6,0,0.6,0l0.3,0.1l0.4-0.1l1.1-0.2c0.2,0,0.5,0,0.5,0.1v0.1v0.3
		c0,0.1,0.5,0.1,0.6,0l0.3-0.1c0.1-0.1,0.5-0.1,0.6,0l1.9,1c0.1,0.1,0.5,0.1,0.6,0l1.3-0.8c0.1-0.1,0.4-0.1,0.6,0l0.6,0.2
		c0.1,0,0.4,0,0.6,0l3.1-1.2c0,0,0.1,0,0.1,0l1.9-10.7l-0.5,0.2c-0.1,0.1-0.6,0-0.6,0v-0.3c0-0.1-0.5-0.1-0.6,0l-3.4-0.4
		c-0.1,0-0.4,0-0.6,0l-0.6-0.2c-0.2,0-0.5,0-0.6,0l-1.5,1l-0.2,0l-2.2-1.1c-0.1-0.1-0.4,1.2-0.5,1.2l-0.8,0.4l0,0v-0.4v-0.3
		c0-0.1-0.3-0.1-0.5-0.1l-2.2,0.2l0,0l0.3-0.7c0,0,0,0-0.1-0.1l0.1-0.3c0-0.1-0.4-0.1-0.6,0l-1.9,0.5c-0.8,3.6-1.6,7.4-2.4,11.4
		C414.6,153.2,414.8,153.2,414.8,153.2z"/>
	<path d="M419.3,130.9C419.3,130.9,419.3,130.9,419.3,130.9l0.4,0.1l0.4-0.1l1.1-0.2c0.2,0,0.5,0,0.5,0.1v0.4c0,0.1,0.5,0.1,0.6,0
		l0.3-0.1c0.1-0.1,0.5-0.1,0.6,0l1.9,1c0.1,0.1,0.5,0.1,0.6,0l1.3-0.8c0.1-0.1,0.4-0.1,0.6,0l0.6,0.2c0.1,0,0.4,0,0.6,0l3.1-1.2
		c0.2-0.1,0.6,0,0.6,0v0.3c0,0.1,0.5,1.1,0.6,1l1.5-0.7c0.1-0.1,0.5-0.1,0.6,0l0.2,0.1c0.1,0,0.3,0,0.4,0l0.9-5.2
		c-8.4-0.9-13.9-1.7-15.9-1.9C420.4,126,419.8,128.3,419.3,130.9z"/>
	<path d="M408.8,184.2L408.8,184.2l0-3.2c-0.2,1-0.4,2.1-0.6,3.1L408.8,184.2z"/>
	<path d="M402.5,214l1-0.4c0.1,0,0.3,0,0.4,0l0.1,0c0.1,0,0.4,0,0.4,0l0.5,0.1c0,0,0.2,0,0.3,0l1.2,0.2c0.1,0,0.3,0,0.3,0l0.6-0.5
		c0,0,0.2,0,0.4,0l0.4,0.1l0,6.7h0.1l1.7-0.2c0.2,0,0.5,0,0.5,0.1l0.2,0.5c0,0.1,0.5,0.1,0.6,0l1.7-0.7c0.2-0.1,0.6,0,0.6,0l0.1,0
		c0,0.1,0.5,0.1,0.6,0c0.1-0.1,0.5-0.1,0.6,0l1.3,0.7c0.1,0,0.4,0.1,0.6,0l2-0.5c0.2-0.1,0.6,0,0.6,0l0.3,0.1l0.4-0.1l0.2,0
		l1.8-10.3l-0.3,0.1l0,0v-0.7c0-0.1-0.3-0.1-0.5-0.1l-2.2,0.2l-0.1,0l0.4-1.1c0-0.1-0.4-0.1-0.6,0l-2,0.5c-0.2,0-0.6,1-0.7,0.9
		l-1.3-0.7c-0.1-0.1-0.5-0.1-0.6,0c-0.1,0.1-0.6,0-0.6,0l-0.1-1.1c0-0.1-0.5-0.1-0.6,0l-2.2,0.9l-0.1,0l-0.3-0.7
		c0-0.1-0.3-0.1-0.5-0.1l-1.1,0.1l-0.1-2.4l0,0l0,0l-1.1-0.2c-0.1,0-0.3,0-0.4,0l-0.6,0.5c0,0-0.2,0-0.3,0l-0.8-0.7
		c-0.1,0-0.3,0-0.3,0l-0.5,0.6c0,0-0.3,0.1-0.4,0l-0.1,0c0,0-0.1,0-0.1,0C403.4,208.7,402.9,211.4,402.5,214
		C402.5,214,402.5,214,402.5,214z"/>
	<path d="M410.7,275.5l-0.3-0.7c0-0.1-0.3-0.1-0.5-0.1l-1.7,0.2l0,0l-0.1,0l0,4.2l-0.6-0.1c-0.1,0-0.3,0-0.4,0l-0.6,0.5
		c0,0-0.2,0-0.3,0l-0.8-0.7c-0.1,0-0.3,0-0.3,0l-0.5,0.6c0,0-0.3,0.1-0.4,0l-0.1,0c-0.1,0-0.3,0-0.4,0l-1,0.4c-0.1,0-0.4,0-0.4,0
		v-0.2c0,0-0.3-0.1-0.4,0l-1.5-0.2c3.1,0.7,6.2,1.5,9.3,2.1L410.7,275.5z"/>
	<path d="M402.5,228.7l1-0.4c0.1,0,0.3,0,0.4,0l0.1,0c0.1,0,0.4,0,0.4,0l0.5,0.1c0,0,0.2,0,0.3,0l1.2,0.2c0.1,0,0.3,0,0.3,0l0.6-0.5
		c0,0,0.2,0,0.4,0l1.1,0.2h0.1l-0.2-7.7l0,0l0,0l-1.1-0.2c-0.1,0-0.3,0-0.4,0l-0.6,0.5c0,0-0.2,0-0.3,0l-0.8-0.7c-0.1,0-0.3,0-0.3,0
		l-0.5,0.6c0,0-0.3,0.1-0.4,0l-0.1,0c-0.1,0-0.3,0-0.4,0l-1,0.4c-0.1,0-0.4,0-0.4,0V221c0,0-0.3-0.1-0.4,0l-0.6-0.1
		c-0.4,2.6-0.9,5.1-1.3,7.6l1.7-0.7c0.1,0,0.4,0,0.4,0v0.2C402.1,228.1,402.4,228.7,402.5,228.7z"/>
</g>
</svg>
