<?xml version="1.0" encoding="utf-8"?>
<!-- Generator: Adobe Illustrator 25.3.0, SVG Export Plug-In . SVG Version: 6.00 Build 0)  -->
<svg version="1.1" id="Layer_1" xmlns="http://www.w3.org/2000/svg" xmlns:xlink="http://www.w3.org/1999/xlink" x="0px" y="0px"
	 viewBox="0 0 750.2 400.1" style="enable-background:new 0 0 750.2 400.1;" xml:space="preserve">
<g>
	<path d="M412.4,265.5l-17.5-2.3c-0.6,5.4-1.1,10.4-1.3,14.8c5.5,1.4,10.8,2.7,16,3.8L412.4,265.5z"/>
	<path d="M615.8,282.4c6.1-1.3,12.5-2.7,19.1-4.4c-0.2-4.2-0.7-8.9-1.3-14l-20.5,2.7L615.8,282.4z"/>
	<path d="M625.5,211.8l-21.5,2.8l3.8,21.6l21.5-2.8C628.1,226.4,626.8,219.1,625.5,211.8z"/>
	<path d="M421.5,213.4L403,211c-1.3,7.3-2.6,14.6-3.8,21.6l18.4,2.4L421.5,213.4z"/>
	<path d="M428.2,174.8l2.4-13.5l-17.3-2.3c-0.9,4.3-1.8,8.8-2.8,13.5L428.2,174.8z"/>
	<path d="M618.1,173.3c-0.9-4.6-1.9-9.1-2.8-13.4l-20.4,2.6l2.4,13.5L618.1,173.3z"/>
	<path d="M337.4,282.4c6.1-1.3,12.5-2.7,19.1-4.4c-0.2-4.1-0.7-8.6-1.2-13.6l-20.5,2.7L337.4,282.4z"/>
	<path d="M134.1,265.1l-17.5-2.3c-0.6,5.6-1.1,10.7-1.4,15.2c5.5,1.4,10.8,2.7,16,3.8L134.1,265.1z"/>
	<path d="M329.4,236.6l21.5-2.8c-1.1-7-2.4-14.3-3.7-21.6l-21.5,2.8L329.4,236.6z"/>
	<path d="M121,232.3l18.4,2.4l3.8-21.6l-18.4-2.4C123.4,218,122.1,225.2,121,232.3z"/>
	<path d="M339.8,173.6c-0.9-4.6-1.9-9.1-2.8-13.4l-20.4,2.6l2.4,13.5L339.8,173.6z"/>
	<path d="M149.9,174.5l2.4-13.5l-17.3-2.3c-0.9,4.3-1.8,8.8-2.8,13.5L149.9,174.5z"/>
</g>
</svg>
