<?xml version="1.0" encoding="utf-8"?>
<!-- Generator: Adobe Illustrator 25.3.0, SVG Export Plug-In . SVG Version: 6.00 Build 0)  -->
<svg version="1.1" id="Layer_1" xmlns="http://www.w3.org/2000/svg" xmlns:xlink="http://www.w3.org/1999/xlink" x="0px" y="0px"
	 viewBox="0 0 750.2000122 400.1000061" style="enable-background:new 0 0 750.2000122 400.1000061;" xml:space="preserve">

<polygon class="st0" points="298.8314819,302.8622131 297.7116089,303.1365662 279.1680908,307.6780701 279.1680908,302.8622131 
	260.2210083,307.502533 260.2210083,302.8622131 240.6831055,307.6471863 240.6831055,302.8622131 221.736084,307.502533 
	221.736084,302.8622131 202.1350708,307.6626892 202.0726929,307.6471863 182.53479,302.8622131 182.53479,307.502533 
	163.5877075,302.8622131 163.5877075,307.6471863 144.0498047,302.8622131 144.0498047,307.502533 125.1027222,302.8622131 
	125.1027222,307.6780701 106.1954346,303.0474548 105.4393921,302.8622131 105.4393921,307.4928284 104.458374,307.252533 
	104.4609985,313.5224915 106.1954346,313.9472351 106.1954346,309.3166809 125.1027222,313.9472351 125.1027222,309.1314392 
	144.0498047,313.771698 144.7667847,313.9472351 144.7667847,309.3069763 163.5877075,313.9164124 163.7138062,313.9472351 
	163.7138062,309.162262 182.53479,313.771698 183.251709,313.9472351 183.251709,309.3069763 202.0726929,313.9164124 
	202.0726929,313.9472351 202.1350708,313.9318542 202.1981812,313.9472351 202.1981812,313.9164124 221.019104,309.3069763 
	221.019104,313.9472351 221.736084,313.771698 240.5570068,309.162262 240.5570068,313.9472351 240.6831055,313.9164124 
	259.5040894,309.3069763 259.5040894,313.9472351 260.2210083,313.771698 279.1680908,309.1314392 279.1680908,313.9472351 
	297.7116089,309.4057312 297.7116089,313.9472351 299.8071899,313.4340515 299.8134155,307.1632385 298.8314819,307.403717 "/>
</svg>
