<?xml version="1.0" encoding="utf-8"?>
<!-- Generator: Adobe Illustrator 25.3.0, SVG Export Plug-In . SVG Version: 6.00 Build 0)  -->
<svg version="1.1" id="Layer_1" xmlns="http://www.w3.org/2000/svg" xmlns:xlink="http://www.w3.org/1999/xlink" x="0px" y="0px"
	 viewBox="0 0 750.2000122 400.1000061" style="enable-background:new 0 0 750.2000122 400.1000061;" xml:space="preserve">
<style type="text/css">
	.st0{fill:none;}
</style>
<g>
	<path class="st0" d="M174.312561,150.7649231c4.3325195,0.4752197,8.4725952,1.1502686,12.3019409,2.0665283
		C182.6829834,151.8352966,178.5545654,151.1663513,174.312561,150.7649231z"/>
	<path d="M203.0700684,118.9430847l-11.1477661-35.010376l-0.2438354-0.0457153
		c-0.0279541-0.0073242-7.2790527-1.3604126-13.8614502-5.0647583c-4.7271729-2.6653442-11.5848389-8.2727051-17.0175781-13.4219971
		c-0.3618164-0.3001709-0.7253418-0.5993042-1.0855713-0.9001465l-0.1014404-0.0848389l-0.0899658-0.2418823
		c-0.2910156-0.2838745-0.5736084-0.5637207-0.8531494-0.8423462l-5.5651855,1.5812378
		c-14.4343262,5.6636353-23.1794434,17.8027954-28.7033691,30.3311768
		c-1.3980103,3.1709595-2.5864868,6.3630371-3.6087036,9.4775391
		C149.595459,105.1632996,188.4848633,101.9381409,203.0700684,118.9430847z"/>
	<path d="M283.7872314,104.7031555c-1.0209351-3.1088257-2.2077026-6.2948608-3.6029663-9.4597168
		c-5.5241699-12.5283813-14.2695312-24.6676025-28.7043457-30.3311768l-4.7263184-1.3428955
		c-4.9926758,6.611084-13.152832,12.579895-19.1430664,15.2732544c-4.607666,2.0666504-10.5692749,3.7457886-12.9588013,4.3828735
		l-11.4018555,35.8083496C217.7184448,101.9822693,255.2816772,105.0107727,283.7872314,104.7031555z"/>
	<path d="M186.614502,152.8314514c-3.8293457-0.9162598-7.9694214-1.5913086-12.3019409-2.0665283
		c-24.4005127-2.6765137-54.8517456,0.9472046-69.6380005,3.0656738l0.0047607,11.1186523
		c18.8631592-4.7305908,63.1908569-17.6693726,88.1034546-10.2147827c0.7880249,0.2357788,1.5596313,0.4887085,2.307373,0.7661743
		C192.50177,154.4439392,189.6588135,153.559845,186.614502,152.8314514z"/>
	<path d="M211.0474854,155.5006409c-3.0354004,1.1266479-5.7255859,2.605835-7.9786377,4.4955444
		c-2.2530518-1.8897095-4.9432983-3.3688965-7.9786987-4.4955444c3.0496826,1.2450562,5.7424927,2.7316895,7.9744873,4.4989014
		c-0.0032349,0.0026855-0.0066528,0.005249-0.0098877,0.0079346c-0.0462036,0.0388184-0.0956421,0.074585-0.1414795,0.1137695
		c0.0470581-0.0379028,0.0982056-0.0733032,0.1456909-0.1109619c0.0032349-0.0025635,0.0066528-0.0049438,0.0098877-0.0075073
		c0.0507202,0.0401611,0.1052856,0.0780029,0.1555176,0.1184692c-0.0490112-0.0418701-0.1019287-0.0802002-0.1513672-0.1217041
		C205.3049927,158.2323303,207.9978027,156.745697,211.0474854,155.5006409z"/>
	<path d="M211.0474854,155.5006409c0.6834106-0.2536011,1.387207-0.486145,2.1043091-0.704895
		c24.3529053-7.4274902,67.5356445,4.8744507,87.0852661,9.8450928l0.0108643-10.982605
		C280.0845337,150.8246155,234.7399902,145.8281555,211.0474854,155.5006409z"/>
	<path d="M365.6851196,83.3762512L251.5679321,48.8352356l0.0039062,0.269043
		c-0.0029297,2.828125-0.6508789,8.590332-4.1982422,13.6303711l4.4223633,1.2568359l0.0224609,0.0087891
		c14.7773438,5.793457,23.6777344,18.1953125,29.2553711,30.8510742
		c5.5800781,12.6582031,7.8637695,25.6181641,9.3813477,32.6166992c2.6420898,12.2006836,8.6289062,19.703125,10.0307617,21.3300781
		l48.8227539,9.684082L365.6851196,83.3762512z"/>
	<path d="M103.6622314,148.8821106c1.4020996-1.6268311,7.4284668-9.0253906,10.0705566-21.2259521
		c1.5175781-6.9985962,3.9769897-19.8822632,9.3813477-32.6166382
		c6.1480103-14.4866943,15.3482056-25.4368896,30.1255493-31.2307739l-0.6364136,0.1794434l4.4226074-1.2565918
		c-3.5473633-5.0401611-3.34729-10.7990112-3.3502197-13.6271362c0-0.2650146-0.0941162-0.0571289-0.0841064-0.2692261
		L39.5621338,83.3763733l16.3764648,75.1057129L103.6622314,148.8821106z"/>
	<path d="M511.8814087,47.4870911c-2.1225586,0.1254883-4.0664062,0.2490234-5.8115234,0.3642578
		c-1.8642578,0.1147461-3.4882812,0.2216797-4.8115234,0.3134766c-1.0961914,0.0756836-1.6240234,0.140625-1.8725586,0.1904297
		l-0.0366211,0.003418l-0.0581055,0.0175781c-0.0205078,0.0053711-0.0371094,0.0107422-0.0512695,0.015625l-14.0205078,4.2749023
		L384.1323853,83.3762512l16.5644531,74.3530273l46.4306641-8.9267578c0.1757812-0.2114258,0.3754883-0.4555664,0.6210938-0.7724609
		c0.7314453-0.9433594,1.7421875-2.3496094,2.847168-4.1918945c2.2109375-3.684082,4.8007812-9.1098633,6.3066406-16.0610352
		c1.5166016-6.9946289,3.4770508-18.737793,8.6801758-30.8564453c5.199707-12.1147461,13.6577148-24.628418,28.1645508-33.1479492
		l26.0253906-16.6352539c-2.8364258,0.1210938-5.496582,0.2514648-7.9306641,0.3818359L511.8814087,47.4870911z"/>
	<path d="M593.7788696,48.2117004l-0.262207-0.046875c-3.9609375-0.2739258-12.4428711-0.6884766-20.3964844-1.0273438
		l24.2368164,16.6352539c14.5068359,8.5195312,22.9648438,21.0332031,28.1645508,33.1479492
		c5.203125,12.1186523,7.1635742,23.8618164,8.6801758,30.8564453c1.5058594,6.9511719,4.0957031,12.3769531,6.3066406,16.0610352
		c1.1049805,1.8422852,2.2329102,3.512207,2.9643555,4.4555664c0.2456055,0.3168945,4.1303711,0.706543,4.3061523,0.9179688
		l46.2993164,8.5175781l16.5649414-74.3530273L593.7788696,48.2117004z"/>
</g>
</svg>
