<?xml version="1.0" encoding="utf-8"?>
<!-- Generator: Adobe Illustrator 25.3.0, SVG Export Plug-In . SVG Version: 6.00 Build 0)  -->
<svg version="1.1" id="Layer_1" xmlns="http://www.w3.org/2000/svg" xmlns:xlink="http://www.w3.org/1999/xlink" x="0px" y="0px"
	 viewBox="0 0 750.2 400.1" style="enable-background:new 0 0 750.2 400.1;" xml:space="preserve">
<g>
	<path d="M128.1,264.3l-3-0.9l-4.8,15.9c1,0.2,2.1,0.5,3.1,0.7L128.1,264.3z"/>
	<polygon points="132.3,275.6 132.7,273 128.6,271.8 127.8,274.3 	"/>
	<path d="M116,268c-0.1,0.9-0.2,1.8-0.3,2.7l0.8,0.2l-1.1,3.8c-0.1,1.1-0.2,2.2-0.2,3.3c0.8,0.2,1.6,0.4,2.4,0.6l2.8-9.3L116,268z"
		/>
	<path d="M119.7,240c-1.2,7.4-2.2,14.4-2.9,20.9l6-20L119.7,240z"/>
	<polygon points="134.2,259.7 124.2,256.7 130.5,235.8 127.4,234.9 120.4,258.3 133.5,262.2 	"/>
	<polygon points="137.1,247.9 137.6,245.3 130.9,243.3 130.2,245.8 	"/>
	<polygon points="136.7,231.3 126.7,228.3 133,207.4 130,206.5 123,229.9 136,233.8 	"/>
	<polygon points="136.5,241.3 138.2,241.8 140.8,226.9 	"/>
	<polygon points="141.9,220.2 142.4,217.6 133.5,214.9 132.7,217.4 	"/>
	<path d="M124.5,212.2c-0.4,2.3-0.8,4.7-1.3,7l2-6.8L124.5,212.2z"/>
	<polygon points="336.7,278.3 337.4,275.9 336.2,275.6 	"/>
	<path d="M342,269.9l-3.7,12.3c1.2-0.2,2.3-0.5,3.5-0.7l3.2-10.6L342,269.9z"/>
	<path d="M344.7,280.8c1.7-0.4,3.4-0.8,5.2-1.2l-4.4-1.3L344.7,280.8z"/>
	<path d="M139.2,202.8l-10-3l6.2-20.9l-3-0.9l-4.1,13.7c-0.6,3.3-1.3,6.7-1.9,10l12,3.6L139.2,202.8z"/>
	<polygon points="145.1,192 138.9,212.9 141.9,213.8 144.6,204.6 147.2,189.8 135.9,186.4 135.1,189 	"/>
	<polygon points="330.9,244.8 331.4,247.7 336.1,249.1 333.3,258.5 334.5,265.4 339.8,247.5 	"/>
	<polygon points="351.2,266.3 341.2,263.3 347.4,242.4 344.4,241.5 337.4,264.9 350.4,268.8 	"/>
	<path d="M347.1,252.4l6.9,2.1c-0.1-1-0.3-1.9-0.4-2.9l-5.8-1.7L347.1,252.4z"/>
	<path d="M350.9,276.3l3,0.9l2-6.6c-0.2-2.6-0.5-5.3-0.9-8.1L350.9,276.3z"/>
	<path d="M136.7,150.2c-0.9,4.4-1.9,9.1-2.9,13.9l4.1-13.6L136.7,150.2z"/>
	<path d="M141.7,174.4l-9.4-2.8c-0.2,0.9-0.4,1.7-0.5,2.6l9.1,2.7L141.7,174.4z"/>
	<polygon points="141.4,184.4 144.4,185.3 151.4,161.9 138.4,158 137.6,160.5 147.6,163.5 	"/>
	<polygon points="149,179.4 149,179.4 149.1,179.3 	"/>
	<polygon points="325.8,206.7 324.8,210 326,216.9 328.8,207.7 	"/>
	<polygon points="332.6,231.5 328.3,230.3 328.9,233.2 331.8,234.1 	"/>
	<polygon points="329.3,215.1 328.5,217.7 338.5,220.7 332.3,241.5 335.3,242.5 342.3,219 	"/>
	<path d="M351.5,237.2l-7.8-2.3l4.8-15.9c-0.3-1.9-0.7-3.8-1-5.7l-0.5-0.2l-7,23.4l12.1,3.6C351.8,239.1,351.6,238.2,351.5,237.2z"
		/>
	<path d="M143.7,145.6l-5.6-1.7c-0.2,0.9-0.4,1.7-0.6,2.6l5.4,1.6L143.7,145.6z"/>
	<path d="M149.6,134.7l-6.2,20.9l3,0.9l7-23.4l-12.2-3.6c-0.2,0.8-0.4,1.7-0.6,2.6L149.6,134.7z"/>
	<polygon points="151.1,150.6 153.9,151.4 158.1,127.2 158.1,127.1 	"/>
	<polygon points="320.1,183 321.3,190 323.2,183.9 	"/>
	<polygon points="334.6,202.7 324.6,199.7 330.8,178.8 327.8,177.9 322.4,196.1 323.5,202.1 333.8,205.3 	"/>
	<path d="M343.6,192.8c-0.2-1-0.4-2-0.6-3l-11.7-3.5l-0.8,2.5l10,3l-6.2,20.9l3,0.9L343.6,192.8z"/>
	<path d="M346.1,206.2l-0.4-0.1l0.3-0.9c-0.4-2.3-0.8-4.5-1.3-6.8l-2.8,9.3l4.8,1.4C346.5,208.1,346.3,207.1,346.1,206.2z"/>
	<path d="M145.9,127.2l3,0.9l1-3.3c-1.2-0.1-2.2-0.3-3.2-0.4L145.9,127.2z"/>
	<polygon points="314.8,152.2 315.3,155.1 321.9,157.1 317.9,170.3 319.1,177.3 325.7,155.5 	"/>
	<polygon points="337.1,174.3 327.1,171.3 333.3,150.4 330.3,149.5 323.3,172.9 336.3,176.8 	"/>
	<path d="M341.2,180.6c-0.4-2.2-0.9-4.4-1.3-6.6l-3.1,10.3l3,0.9L341.2,180.6z"/>
	<path d="M333,160.4l4.3,1.3c-0.2-1-0.4-2-0.6-2.9l-2.9-0.9L333,160.4z"/>
	<polygon points="318.3,139.5 312.2,137.7 312.7,140.6 317.6,142 	"/>
	<path d="M310.1,125.6l0.5,3.1l1-3.3C311.1,125.5,310.6,125.6,310.1,125.6z"/>
	<path d="M314.3,125.6l10,3l-6.2,20.9l3,0.9l7-23.4l-8.6-2.6c-1.5,0.2-3.2,0.4-5,0.7L314.3,125.6z"/>
	<path d="M334.2,147c-0.2-1-0.4-2-0.6-3l-4.1-1.2l2.2-7.5c-0.5-2.2-1-4.4-1.4-6.3l-4.6,15.4L334.2,147z"/>
	<path d="M400.7,267.4l-3-0.9l-3.5,11.7c1,0.3,2,0.5,3.1,0.8L400.7,267.4z"/>
	<polygon points="400.4,277.4 409.8,280.2 410.3,277.6 401.2,274.8 	"/>
	<path d="M406.2,265.4l0.8-2.5l-10-3l6.2-20.9l-3-0.9l-3.7,12.3c-0.6,4.1-1.1,8-1.5,11.7L406.2,265.4z"/>
	<polygon points="403.7,246.4 403,249 413,252 406.7,272.8 409.7,273.7 412.7,264 415.1,249.8 	"/>
	<path d="M408.6,236.9l0.8-2.5l-9.9-3c-0.1,0.9-0.3,1.8-0.4,2.6L408.6,236.9z"/>
	<path d="M405.6,210.5l-2.4-0.7c-1.3,7.1-2.5,14.1-3.7,20.9L405.6,210.5z"/>
	<polygon points="419.1,221.9 406.1,218 405.3,220.5 415.3,223.5 409.1,244.4 412.1,245.3 	"/>
	<polygon points="416.7,239.3 416.9,239.4 417.4,237 	"/>
	<polygon points="617.6,273.9 614.6,273 614.3,274 615.5,280.9 	"/>
	<path d="M617.9,282c0.4-0.1,0.8-0.2,1.2-0.3l-1-0.3L617.9,282z"/>
	<path d="M411.9,205.9l-7.5-2.3c-0.2,0.9-0.3,1.7-0.5,2.6l7.3,2.2L411.9,205.9z"/>
	<polygon points="411.6,216 414.6,216.9 421.6,193.4 408.6,189.5 407.9,192.1 417.9,195.1 	"/>
	<polygon points="419.3,210.9 421.8,211.7 425.5,190.1 	"/>
	<polygon points="610.1,249.8 611.1,255.5 612.6,250.6 	"/>
	<polygon points="623.9,269.4 613.9,266.4 620.1,245.5 617.1,244.6 612.1,261.4 613.4,269 623.1,271.9 	"/>
	<path d="M632.7,256.6l-12-3.6l-0.8,2.5l10,3l-6.2,20.9l2.5,0.7c0.2,0,0.4-0.1,0.6-0.2l6.2-20.9
		C632.9,258.3,632.8,257.4,632.7,256.6z"/>
	<path d="M634.6,275.4c-0.2-2.9-0.5-6-0.9-9.4l-2.5,8.4L634.6,275.4z"/>
	<path d="M414.3,177.5l-4.6-1.4c-0.2,0.9-0.3,1.7-0.5,2.6l4.4,1.3L414.3,177.5z"/>
	<path d="M412.1,164.2l8.1,2.4l-6.2,20.9l3,0.9l7-23.4l-11.4-3.4C412.5,162.5,412.3,163.3,412.1,164.2z"/>
	<polygon points="421.7,182.5 426.6,183.9 427,181.3 425.5,180.8 429.4,167.8 430.8,159.7 428.7,159 	"/>
	<polygon points="604.7,219.1 605.2,222 611.2,223.8 607.6,235.7 608.8,242.7 615,222.1 	"/>
	<polygon points="626.3,240.9 616.3,237.9 622.6,217 619.5,216.1 612.5,239.6 625.6,243.5 	"/>
	<path d="M622.3,227.1l6.2,1.9c-0.2-1-0.3-1.9-0.5-2.9l-4.9-1.5L622.3,227.1z"/>
	<path d="M631.1,245.2c-0.4-2.4-0.7-4.8-1.1-7.3l-3.9,13l3,0.9L631.1,245.2z"/>
	<path d="M416,151.6l0.8-2.5l-1.4-0.4c-0.2,0.9-0.4,1.7-0.6,2.6L416,151.6z"/>
	<path d="M418,136.8l4.8,1.4l-6.2,20.9l3,0.9l7-23.4l-8-2.4C418.4,135,418.2,135.9,418,136.8z"/>
	<polygon points="424.2,154 431.4,156.2 431.9,153.6 428,152.4 434.2,131.5 431.2,130.6 	"/>
	<polygon points="434,141.5 434,141.4 433.9,141.5 	"/>
	<polygon points="607.7,206.2 602.2,204.5 602.7,207.5 607,208.7 	"/>
	<polygon points="600.9,181.4 599.2,187.3 600.4,194.2 604,182.3 	"/>
	<polygon points="604.4,189.8 603.7,192.3 613.7,195.3 607.4,216.2 610.5,217.1 617.5,193.7 	"/>
	<path d="M625.4,211.5l-6.6-2l3.9-12.9c-0.4-2.2-0.9-4.5-1.3-6.7l-6.3,21.2l10.9,3.3C625.8,213.4,625.6,212.5,625.4,211.5z"/>
	<path d="M420.8,123.8c-0.5,2-1,4.3-1.5,6.7l2.2,0.7l2.1-7C422.4,124,421.4,123.9,420.8,123.8z"/>
	<path d="M436.3,128.2l0.4-2.5c-4.2-0.4-7.6-0.9-10.3-1.2l-0.2,0.6L436.3,128.2z"/>
	<polygon points="594,157.2 594.5,160.2 594.5,160.2 594.5,160.3 595.7,167.3 598.3,158.5 	"/>
	<polygon points="609.8,177.4 599.7,174.4 606,153.5 603,152.6 596.8,173.3 597.3,176.4 609,179.9 	"/>
	<path d="M617.6,171.2c-0.5-2.5-1-4.9-1.5-7.3l-9.6-2.9l-0.8,2.5l10,3l-6.2,20.9l3,0.9L617.6,171.2z"/>
	<path d="M618.7,176.7l-1.7,5.7l3,0.9C619.6,181,619.2,178.8,618.7,176.7z"/>
	<polygon points="589.1,129.4 597,131.7 592.3,147.6 593.3,153.4 593.8,153.5 600.8,130.1 588.6,126.5 	"/>
	<path d="M598.4,147.6l13,3.9l0.8-2.5l-10-3l5.9-19.6c-0.1-0.5-0.2-1-0.3-1.5l-2.3-0.7L598.4,147.6z"/>
	<path d="M615,159.9l0.2-0.6c-0.5-2.2-0.9-4.4-1.4-6.5L612,159L615,159.9z"/>
	<path d="M608.2,135.1l1.9,0.6c-0.2-1-0.4-2-0.6-3l-0.5-0.2L608.2,135.1z"/>
	<path d="M596.2,125.1l0.1-0.5c-0.4,0.1-0.8,0.1-1.2,0.2L596.2,125.1z"/>
</g>
</svg>
