<?xml version="1.0" encoding="utf-8"?>
<!-- Generator: Adobe Illustrator 25.3.0, SVG Export Plug-In . SVG Version: 6.00 Build 0)  -->
<svg version="1.1" id="Layer_1" xmlns="http://www.w3.org/2000/svg" xmlns:xlink="http://www.w3.org/1999/xlink" x="0px" y="0px"
	 viewBox="0 0 750.2 400.1" style="enable-background:new 0 0 750.2 400.1;" xml:space="preserve">
<g>
	<path d="M201.3,102l0-0.8l-0.9-0.2l-68.8-18.5c0,0,0,0,0,0l66.9,20.4l-1.2,51.9l0,1.4l1.6,0.6l101.4,37.6l0-7.4l-97.7-33.6
		L201.3,102z"/>
	<path d="M207.8,96.4l1.2,51.1l0,0.8l0.9,0.3l81.9,26.7l-79.9-28.5l1.2-51.9l0-1.5l-1.7-0.6l-68.8-21.9c-2.1,1.6-4,3.3-5.7,5.1
		L207.8,96.4z"/>
	<path d="M149.1,214.8l1.6,0.6l149.4,54.4l0-8L154.4,212l-1.2-51.2l0-0.8l-0.9-0.2l-45.8-12.3c-0.2,0.2-0.3,0.5-0.5,0.7l44.4,13.5
		l-1.2,51.9L149.1,214.8z"/>
	<path d="M159.7,155.2l1.2,51.1l0,0.8l0.9,0.3L273.4,244l-109.6-38.5l1.2-51.9l0-1.5l-1.7-0.6l-50.5-16.1c-0.8,2-1.6,3.9-2.4,5.5
		L159.7,155.2z"/>
	<path d="M261.3,83.4L261,70.1c-1.4-1-2.9-2-4.5-2.8l-0.4,17.6l0,1.4l1.6,0.6l22.4,8.3c-0.9-2.1-2-4.3-3.1-6.4L261.3,83.4z"/>
	<path d="M267.9,77.7l0,0.8l0.9,0.3l2.1,0.7c-0.9-1.2-1.9-2.3-3-3.4L267.9,77.7z"/>
	<polygon points="300.1,338.4 105.4,269.3 104.7,240.8 104.7,273.8 300.1,346.2 	"/>
	<polygon points="116,209.4 114.2,208.8 104.7,205.8 104.7,210.7 110.7,212.4 111.9,263.5 111.9,264.3 112.7,264.6 287.4,325.6 
		114.8,262.8 115.9,210.9 	"/>
	<path d="M139.7,355.3l-34.9-12.4l0,5.5l15.8,5.9C126.1,354.6,132.6,354.9,139.7,355.3z"/>
	<path d="M104.8,333.4l0,2l60.4,21.1c1.1,0,2.2,0.1,3.3,0.1L104.8,333.4z"/>
	<path d="M227.6,130.2l-1.2-50.9c-0.9,0.4-1.9,0.7-2.8,1.1l-1.2,51.2l0,1.4l1.6,0.6l76.3,28.3l0-6.7L227.6,130.2z"/>
	<path d="M238.1,72.2c-1.7,1.4-3.4,2.6-5.1,3.7l1.1,48.6l0,0.8l0.9,0.3l62.1,20.3c-0.2-0.3-0.3-0.5-0.5-0.8L237,123.7L238.1,72.2z"
		/>
	<path d="M178.3,137.8l0-0.8l-0.9-0.2l-60.7-16.4c0,0.1,0,0.2-0.1,0.3l58.9,18l-1.2,51.9l0,1.4l1.6,0.6l124.3,45.3l0-7.4L179.5,189
		L178.3,137.8z"/>
	<path d="M184.8,132.1l1.2,51.1l0,0.8l0.9,0.3L298.5,221l-109.6-38.5l1.2-51.9l0-1.5l-1.7-0.6l-68.2-21.7c-0.7,2.1-1.2,4.2-1.8,6.2
		L184.8,132.1z"/>
	<polygon points="130.5,246.3 129.3,195 129.3,194.2 128.3,193.9 104.7,187.6 104.7,189.2 126.5,195.8 125.3,247.7 125.2,249.1 
		126.8,249.6 300.1,313.9 300.1,306.5 	"/>
	<polygon points="135.8,189.4 137,240.5 137,241.3 137.8,241.6 300.1,298.3 300.1,298.1 139.9,239.8 141,187.9 141.1,186.4 
		139.3,185.8 104.7,174.8 104.7,180.5 	"/>
	<path d="M104.7,311l0,5.1L216,357.4c5.4-0.1,11.4-0.4,17.6-0.6L104.7,311z"/>
	<path d="M104.7,303.6l149.3,52.2c0.1,0,0.2,0,0.3,0l-149.7-54.5L104.7,303.6z"/>
	<polygon points="543.8,100.9 542.9,101.2 542.8,102 541.6,153.2 447.8,185.5 447.8,192.8 545.3,156.7 546.9,156.1 546.8,154.7 
		545.6,102.8 613.3,82.2 	"/>
	<path d="M531.1,93.4l0,1.5l1.2,51.9l-79.9,28.5l81.9-26.7l0.9-0.3l0-0.8l1.2-51.1l73.9-21.2c-1.7-1.8-3.6-3.6-5.7-5.2l-71.7,22.8
		L531.1,93.4z"/>
	<path d="M640.9,146.5l-49,13.2L591,160l0,0.8l-1.2,51.2l-141.9,48.5l0,7.9l145.6-53l1.6-0.6l0-1.4l-1.2-51.9l47.6-14.5
		C641.2,146.9,641.1,146.7,640.9,146.5z"/>
	<path d="M580.9,151.6l-1.7,0.6l0,1.5l1.2,51.9L470.8,244l111.6-36.6l0.9-0.3l0-0.8l1.2-51.1l52.8-15.1c-0.8-1.7-1.6-3.6-2.3-5.6
		L580.9,151.6z"/>
	<path d="M488,86.2l0-1.4l-0.4-15.8c-1.6,1.3-3.2,2.6-4.6,3.9l-0.2,10.4l-11.1,3.8c-1.3,2.1-2.4,4.2-3.4,6.3l18.2-6.8L488,86.2z"/>
	<polygon points="642.4,272.7 643.2,272.3 643.3,241.2 642.7,218.8 643.3,218.7 643.3,216.3 640.9,216.9 639.9,217.2 639.9,218 
		638.7,269.3 447.8,337 447.9,344.8 	"/>
	<polygon points="631.4,264.6 632.2,264.3 632.2,263.5 633.4,212.4 643.3,209.6 643.3,204.6 629.9,208.8 628.1,209.4 628.2,210.9 
		629.4,262.8 456.8,325.6 	"/>
	<path d="M643.2,341.6l-86.8,30.8c14.3-1.4,26.9-4.9,38.3-8.5c6.8-2.1,13.1-4.3,19.1-6l29.3-10.9L643.2,341.6z"/>
	<path d="M643.2,334.1l0-2l-110.9,40.4c0.3,0,0.6,0.1,0.9,0.1L643.2,334.1z"/>
	<polygon points="520.2,133.6 521.8,133.1 521.8,131.7 520.5,79.8 588.2,59.2 518.7,77.9 517.8,78.2 517.7,79 516.5,130.2 
		447.8,153.9 447.8,160.5 	"/>
	<path d="M509.2,125.6l0.9-0.3l0-0.8l1.2-51.1l69.5-19.9l-6.8-4.7l-66.2,21.1l-1.7,0.6l0,1.5l1.2,51.9l-55.2,19.7
		c-0.2,0.3-0.4,0.6-0.6,1L509.2,125.6z"/>
	<path d="M569.9,191.8l0-1.4l-1.2-51.9l62.7-19.1c0-0.1,0-0.1,0-0.2l-64.5,17.4l-0.9,0.2l0,0.8l-1.2,51.2l-116.9,40l0,7.3
		l120.5-43.8L569.9,191.8z"/>
	<path d="M555.8,128.6l-1.7,0.6l0,1.5l1.2,51.9l-107.5,37.7v0l109.5-35.9l0.9-0.3l0-0.8l1.2-51.1l70.2-20.1c-0.5-2-1.2-4.2-1.9-6.3
		L555.8,128.6z"/>
	<polygon points="617.3,249.6 618.9,249.1 618.8,247.7 617.6,195.8 643.3,188 643.3,186.5 615.8,193.9 614.8,194.2 614.8,195 
		613.6,246.3 447.8,305.1 447.8,312.5 	"/>
	<polygon points="607.1,241.3 607.1,240.5 608.3,189.4 643.3,179.4 643.3,173.6 604.8,185.8 603.1,186.4 603.1,187.9 604.3,239.8 
		447.8,296.7 447.8,297 606.3,241.6 	"/>
	<path d="M643.2,309.6l-151.9,54c0.4,0.1,0.8,0.3,1.2,0.4c3.2,1,6.5,2,10,2.9l140.7-52.2L643.2,309.6z"/>
	<polygon points="643.2,302.3 643.2,299.9 480.6,359.1 	"/>
</g>
</svg>
