<?xml version="1.0" encoding="utf-8"?>
<!-- Generator: Adobe Illustrator 25.3.0, SVG Export Plug-In . SVG Version: 6.00 Build 0)  -->
<svg version="1.1" id="Layer_1" xmlns="http://www.w3.org/2000/svg" xmlns:xlink="http://www.w3.org/1999/xlink" x="0px" y="0px"
	 viewBox="0 0 750.2 400.1" style="enable-background:new 0 0 750.2 400.1;" xml:space="preserve">
<polygon points="104.4,172.5 104.4,218.8 299.9,218.8 299.9,172.5 "/>
<path d="M115.9,68.7c-0.5,2.3-0.9,4.7-1.3,7.4l43.8-12.9c-0.2-0.2-0.4-0.3-0.5-0.5c-3.7-3.8-4.2-8-4.2-11.3c0-0.6,0-1,0-1.5
	l-34.9,10.2C117.6,62.2,116.8,64.6,115.9,68.7z"/>
<path d="M289.1,72.6c-0.2-1.3-0.5-2.6-0.7-3.8c-1-4.7-2.1-7.6-3.5-9.8l-33.3-10.1c0,0.2,0,0.5,0,0.8c0,2.5-0.7,6.6-3.2,11
	L289.1,72.6z"/>
<path d="M104.5,306.3l0,47c0.5,0,1.4,0.1,2.6,0.2c2,0.1,4.8,0.3,8.4,0.5c7,0.4,16.7,0.9,27.2,1.5c21.1,1.1,45.6,2.1,59.3,2.1
	c24.1,0,81.2-3.3,95.1-4.1c1.2-0.1,2.1-0.1,2.6-0.2l0-46.9H104.5z"/>
<polygon points="447.6,229.7 643.1,229.7 643.1,172.5 447.6,172.5 "/>
<path d="M447.7,306.3l0,47c0.1,0,0.3,0.1,0.6,0.1c0.9,0.1,2.6,0.3,5.9,0.5c10.7,0.6,23.3,5.4,38.1,10c14.8,4.6,31.8,9,51.3,9
	c0.5,0,1.1,0,1.6,0c19-0.2,35.1-4.6,49.3-9.1c14.2-4.5,26.5-9.1,38-9.7c7.2-0.4,9.7-0.7,10.4-0.9l0-46.9H447.7z"/>
</svg>
