<?xml version="1.0" encoding="utf-8"?>
<!-- Generator: Adobe Illustrator 25.3.0, SVG Export Plug-In . SVG Version: 6.00 Build 0)  -->
<svg version="1.1" id="Layer_1" xmlns="http://www.w3.org/2000/svg" xmlns:xlink="http://www.w3.org/1999/xlink" x="0px" y="0px"
	 viewBox="0 0 750.2 400.1" style="enable-background:new 0 0 750.2 400.1;" xml:space="preserve">
<g>
	<path d="M104.7,149.2h194.8c-0.7-0.5-1.7-1.6-2.8-3.7c-1.7-3.4-3.4-9.6-3.8-20.6c-0.2-4.4-0.3-9.5-0.5-14.7H111.9
		c-0.2,5.3-0.4,10.3-0.5,14.7c-0.4,11-2.1,17.2-3.8,20.6C106.5,147.7,105.4,148.7,104.7,149.2z"/>
	<path d="M434.4,151.1l12.8-2.5c1.8-2.1,4.8-7.8,5.3-22.7l0-1.2c0.2-5.3,0.4-11.1,0.7-17l-9.8-42.4l-26.9,8.2L434.4,151.1z"/>
	<path d="M92,151.1l11.7-2.4l0,0l0.2-0.1c0.1-0.1,0.4-0.2,0.6-0.5c0.5-0.5,1.3-1.4,2.1-3.1c1.6-3.2,3.3-9.2,3.7-20.2
		c0.2-4.9,0.4-10.4,0.6-16.3l-10.1-43.9L74,72.8L92,151.1z"/>
	<path d="M293.5,117.6c0.1,2.4,0.2,4.8,0.2,7c0.4,10.9,2.1,16.9,3.7,20.2c0.8,1.6,1.6,2.5,2.1,3.1c0.3,0.3,0.5,0.4,0.6,0.5l0.2,0.1
		l0,0l14.2,2.9l18-78.2l-27-8.2L293.5,117.6z"/>
	<path d="M655.9,150.7l18.4-78.2l-27-8.1l-9.4,39.9c0.4,7.1,0.6,14.2,0.8,20.4l0,1.2c0.5,14.9,3.5,20.6,5.3,22.7L655.9,150.7z"/>
</g>
</svg>
