<?xml version="1.0" encoding="utf-8"?>
<!-- Generator: Adobe Illustrator 25.3.0, SVG Export Plug-In . SVG Version: 6.00 Build 0)  -->
<svg version="1.1" id="Layer_1" xmlns="http://www.w3.org/2000/svg" xmlns:xlink="http://www.w3.org/1999/xlink" x="0px" y="0px"
	 viewBox="0 0 750.2000122 400.1000061" style="enable-background:new 0 0 750.2000122 400.1000061;" xml:space="preserve">
<g>
	<path d="M297.1381226,353.32547c1.237915-0.0733032,2.1312256-0.1269531,2.6297607-0.1569824l0.201416-203.6387329
		c-0.5490723-0.3145752-1.8719482-1.3053589-3.2147217-4.0179443c-0.7816772-1.5762329-1.5732422-3.7418213-2.2382202-6.6895142
		l-0.2589111,58.3030396l-0.694458,156.4100342C294.9504395,353.4545593,296.1557007,353.3836365,297.1381226,353.32547z"/>
	<path d="M107.5466919,145.5118103c-1.2965698,2.6192017-2.5744629,3.6329956-3.1554565,3.9830322l0.0866699,203.7387695
		c0.4974365,0.0296021,1.3870239,0.0823364,2.6196289,0.1544189c1.0318604,0.0603638,2.3075562,0.1345215,3.7858276,0.2194824
		l-0.7053223-158.848938l-0.2512207-56.574585C109.2347412,141.4653015,108.3842773,143.8227844,107.5466919,145.5118103z"/>
	<path d="M451.5964355,141.3683777c-1.2767944,4.8057251-2.8862305,7.1715088-4.003418,8.303772l0.0874023,203.628418
		c0.140625,0.0273438,0.3378906,0.0595703,0.6201172,0.0957031c0.8455811,0.109375,2.4101562,0.2520142,5.1824951,0.4155273
		l-1.3874512-156.2351074L451.5964355,141.3683777z"/>
	<path d="M638.8638916,196.5367126l-1.3960571,157.199585c3.506958-0.256958,4.9539795-0.460022,5.5018921-0.5656128
		l0.2026367-203.9980469c-1.1574097-1.3806763-2.6549072-4.0032349-3.8092651-8.8491211L638.8638916,196.5367126z"/>
	<path d="M400.7141724,157.7291565l46.5206909-9.1381226c1.1420898-1.3421021,2.7878418-4.1640625,3.9655762-9.8613281
		l-52.3681641,10.5523682L400.7141724,157.7291565z"/>
	<path d="M56.0560303,158.38797l47.6948853-9.6593628l0.0046997-0.0021973l0.1558228-0.0874023
		c0.1435547-0.0889282,0.3632202-0.244873,0.6374512-0.5030518c0.5482178-0.5162964,1.315979-1.4424438,2.1190796-3.0602417
		c0.788147-1.5866089,1.6074219-3.8457642,2.2824707-7.0209351l-54.9484863,11.0723267L56.0560303,158.38797z"/>
	<path d="M297.4432373,144.745636c0.8031006,1.6177979,1.5708618,2.5439453,2.1190796,3.0602417
		c0.274231,0.2581787,0.4938965,0.4141235,0.6374512,0.5030518l0.1558228,0.0874023l0.0046997,0.0021973l48.9605713,9.9894409
		l2.0142822-9.0812988l-56.1132812-11.3070068C295.8851318,141.0280457,296.6784668,143.2060242,297.4432373,144.745636z"/>
	<path d="M644.1019287,148.5056458l49.7936401,9.2235107l1.8535767-8.3199463l-55.7023926-11.2242432
		C641.2293091,144.1860657,642.9300537,147.1286316,644.1019287,148.5056458z"/>
</g>
</svg>
