<?xml version="1.0" encoding="utf-8"?>
<!-- Generator: Adobe Illustrator 25.3.0, SVG Export Plug-In . SVG Version: 6.00 Build 0)  -->
<svg version="1.1" id="Layer_1" xmlns="http://www.w3.org/2000/svg" xmlns:xlink="http://www.w3.org/1999/xlink" x="0px" y="0px"
	 viewBox="0 0 750.2000122 400.1000061" style="enable-background:new 0 0 750.2000122 400.1000061;" xml:space="preserve">
<rect x="104.4546204" y="296.5497131" width="195.3673706" height="3.8328259"/>
<rect x="104.4268188" y="231.2649841" width="195.4597778" height="3.7576914"/>
<path d="M292.2235718,106.5282288c-0.0599976-1.2663574-0.1241455-2.5394287-0.1923218-3.8198853H112.2686768
	c-0.0679932,1.2792969-0.1328735,2.5546875-0.1928101,3.8198853H292.2235718z"/>
<rect x="104.3933716" y="152.6280823" width="195.5709839" height="3.8198864"/>
<path d="M448.5162354,63.6949768l-2.3931885,0.7317505l7.7089844,33.5128784
	c0.1861572-2.8188477,0.3973389-5.6152344,0.6425171-8.3440552L448.5162354,63.6949768z"/>
<polygon points="429.6392212,152.0473938 432.1313477,151.5578308 414.3063354,74.155304 411.8867188,74.8951721 "/>
<path d="M111.515686,98.6907043c0.1732178-2.8669434,0.3720093-5.7290039,0.6008301-8.5491943l-6.1903076-26.9540405
	l-2.3961792,0.7237549L111.515686,98.6907043z"/>
<polygon points="87.1708984,152.0864563 89.6450195,151.5854187 71.6914673,73.5279236 69.2739868,74.2580872 "/>
<path d="M292.6333008,98.9737244c0.1796265,3.0337524,0.3327026,6.0558472,0.4656372,9.0187378l10.2561646-43.7421875
	l-2.3977661-0.7286987L292.6333008,98.9737244z"/>
<polygon points="316.8927002,151.771637 319.3077393,152.2643738 337.4938354,74.6252136 335.1051025,73.8992615 "/>
<path d="M636.696106,87.4341736c0.2451782,2.5764771,0.4592896,5.2207642,0.6489258,7.8952637l7.4591064-31.7774048
	l-2.3140869-0.6987305L636.696106,87.4341736z"/>
<polygon points="679.0513306,73.8927307 676.6615601,73.1711731 658.4050293,151.1550598 660.8303223,151.6043396 "/>
</svg>
