<?xml version="1.0" encoding="utf-8"?>
<!-- Generator: Adobe Illustrator 25.3.0, SVG Export Plug-In . SVG Version: 6.00 Build 0)  -->
<svg version="1.1" id="Layer_1" xmlns="http://www.w3.org/2000/svg" xmlns:xlink="http://www.w3.org/1999/xlink" x="0px" y="0px"
	 viewBox="0 0 750.2 400.1" style="enable-background:new 0 0 750.2 400.1;" xml:space="preserve">
<g>
	<polygon points="104.4,169.2 299.9,169.2 300,161.4 104.4,161.4 	"/>
	<polygon points="104.4,231.7 299.9,231.7 299.9,223.9 104.4,223.9 	"/>
	<path d="M446.1,64.4l7.7,33.5c0.2-2.8,0.4-5.6,0.6-8.3l-6-25.9L446.1,64.4z"/>
	<polygon points="411.9,74.9 429.6,152 432.1,151.6 414.3,74.2 	"/>
	<path d="M112.1,90.1l-6.2-27l-2.4,0.7l8,34.8C111.7,95.8,111.9,93,112.1,90.1z"/>
	<polygon points="69.3,74.3 87.2,152.1 89.6,151.6 71.7,73.5 	"/>
	<path d="M292.6,99c0.2,3,0.3,6.1,0.5,9l10.3-43.7l-2.4-0.7L292.6,99z"/>
	<polygon points="316.9,151.8 319.3,152.3 337.5,74.6 335.1,73.9 	"/>
	<path d="M636.7,87.4c0.2,2.6,0.5,5.2,0.6,7.9l7.5-31.8l-2.3-0.7L636.7,87.4z"/>
	<polygon points="676.7,73.2 658.4,151.2 660.8,151.6 679.1,73.9 	"/>
</g>
</svg>
