<?xml version="1.0" encoding="utf-8"?>
<!-- Generator: Adobe Illustrator 25.3.0, SVG Export Plug-In . SVG Version: 6.00 Build 0)  -->
<svg version="1.1" id="Layer_1" xmlns="http://www.w3.org/2000/svg" xmlns:xlink="http://www.w3.org/1999/xlink" x="0px" y="0px"
	 viewBox="0 0 750.2 400.1" style="enable-background:new 0 0 750.2 400.1;" xml:space="preserve">
<g>
	<polygon points="300,163.1 300,150.9 281.1,155.2 	"/>
	<polygon points="299.9,245.5 299.9,232.5 281.1,239.3 	"/>
	<polygon points="299.8,308.8 281.1,317.1 299.8,320.2 	"/>
	<polygon points="104.4,150.9 104.4,163.2 123.4,155.2 	"/>
	<polygon points="104.4,245.5 123.4,239.3 104.4,232.4 	"/>
	<polygon points="104.5,308.7 104.5,320.2 123.4,317.1 	"/>
	<polygon points="643.2,162.9 643.2,151 624.7,155.2 	"/>
	<polygon points="643.1,232.6 624.7,239.3 643.1,245.3 	"/>
	<polygon points="643,309 624.7,317.1 643,320.1 	"/>
	<polygon points="447.6,150.8 447.6,163.3 467,155.2 	"/>
	<polygon points="447.6,245.7 467,239.3 447.6,232.3 	"/>
	<polygon points="447.7,308.6 447.7,320.3 467,317.1 	"/>
</g>
</svg>
