<?xml version="1.0" encoding="utf-8"?>
<!-- Generator: Adobe Illustrator 25.3.0, SVG Export Plug-In . SVG Version: 6.00 Build 0)  -->
<svg version="1.1" id="Layer_1" xmlns="http://www.w3.org/2000/svg" xmlns:xlink="http://www.w3.org/1999/xlink" x="0px" y="0px"
	 viewBox="0 0 750.2000122 400.1000061" style="enable-background:new 0 0 750.2000122 400.1000061;" xml:space="preserve">
<g>
	<path d="M398.8322754,149.282074l52.3681641-10.5523682c0.6721191-3.2515869,1.1932373-7.4310913,1.3776855-12.8283691
		l0.0410156-1.2114258c0.7692871-22.5865479,1.9289551-55.1608887,8.3660889-64.8075562l-76.8357544,23.4940186
		L398.8322754,149.282074z"/>
	<path d="M54.0019531,149.1271057l54.9484863-11.0723267c0.7010498-3.2972412,1.246521-7.5827637,1.4365845-13.1536865
		c0.564209-16.4762573,1.3330688-41.1837769,4.5500488-56.3880005c0.8874512-4.1730347,1.3382568-6.4373779,2.6717529-8.8543091
		L39.3972168,83.2822571L54.0019531,149.1271057z"/>
	<path d="M293.7241821,124.5710144c0.1954956,5.7297974,0.7676392,10.095459,1.4976807,13.4286499l56.1132812,11.3070068
		l14.6445312-66.0244141l-79.9005737-24.2822876c1.3334961,2.4169312,2.2075806,5.0100098,3.0950317,9.1830444
		C292.3911133,83.3872375,293.1599731,108.0947571,293.7241821,124.5710144z"/>
	<path d="M638.758667,125.8159485c0.1760254,5.1508789,0.6603394,9.1833496,1.2880859,12.3690186l55.7023926,11.2242432
		l14.7110596-66.0328369l-80.1086426-24.1881714c6.4371338,9.6466675,7.5968018,42.8297729,8.3660889,65.4163208
		L638.758667,125.8159485z"/>
</g>
</svg>
