<?xml version="1.0" encoding="utf-8"?>
<!-- Generator: Adobe Illustrator 25.3.0, SVG Export Plug-In . SVG Version: 6.00 Build 0)  -->
<svg version="1.1" id="Layer_1" xmlns="http://www.w3.org/2000/svg" xmlns:xlink="http://www.w3.org/1999/xlink" x="0px" y="0px"
	 viewBox="0 0 750.2000122 400.1000061" style="enable-background:new 0 0 750.2000122 400.1000061;" xml:space="preserve">
<path d="M284.1000366,141.3000183c-0.2684326-0.5830078-0.529541-1.1726685-0.7863159-1.7664185
	c-3.9110718,14.208252-5.0200195,33.6356812,7.2960815,52.989502c1.1536865,1.8129272,2.3737183,3.3338623,3.647644,4.6022339
	l0.175415-39.5032349C291.2556152,153.9720764,287.4862061,148.6664124,284.1000366,141.3000183z"/>
<path d="M113.1914673,190.82901c11.4922485-18.0592651,11.2965088-36.1846924,8.0413208-50.0722656
	c-0.1115112,0.2472534-0.2191162,0.4978638-0.3327637,0.7432861c-3.5975342,7.7661743-7.583374,13.2418823-10.8835449,16.8710938
	l0.1615601,36.3874512C111.2224121,193.6297302,112.2314453,192.337616,113.1914673,190.82901z"/>
<path d="M456.2258301,192.5231018c12.0482788-18.9330444,11.2481689-37.9354858,7.5463257-52.0545044
	c-0.1244507,0.2767944-0.2450562,0.5568848-0.3721924,0.8314209c-3.9112549,8.508606-8.3399658,14.2852783-11.8007812,17.8813477
	l0.3422241,38.5394897C453.4464111,196.3426819,454.881958,194.6348572,456.2258301,192.5231018z"/>
<path d="M627.545105,143.2834167c-3.0686646,13.7755127-3.0361328,31.5379028,8.2286377,49.2396851
	c1.0308838,1.6199341,2.116394,2.9992065,3.2440796,4.1824341l0.3245239-36.5397339
	C636.026062,156.9737244,631.5820312,151.5304871,627.545105,143.2834167z"/>
</svg>
