<?xml version="1.0" encoding="utf-8"?>
<!-- Generator: Adobe Illustrator 25.3.0, SVG Export Plug-In . SVG Version: 6.00 Build 0)  -->
<svg version="1.1" id="Layer_1" xmlns="http://www.w3.org/2000/svg" xmlns:xlink="http://www.w3.org/1999/xlink" x="0px" y="0px"
	 viewBox="0 0 750.2 400.1" style="enable-background:new 0 0 750.2 400.1;" xml:space="preserve">
<g>
	<path d="M128.5,62.6c0.5-0.4,1-0.8,1.5-1.2c3.6-2.9,7.3-5.8,10.9-8.7l-13.1,4l0.1,1.1C128.1,59.5,128.3,61.1,128.5,62.6z"/>
	<path d="M129.3,71.6c8.5-6.7,16.9-13.4,25.4-20.1c0-0.7-0.1-1.3-0.1-1.9c-0.3-0.6-0.4-0.9-0.4-0.9l-12.6,3.9
		c-4.4,3.5-8.7,6.9-13.1,10.4C128.8,65.9,129.1,68.8,129.3,71.6z"/>
	<path d="M129.9,80.4c8.6-6.8,17.2-13.6,25.8-20.4c-0.5-3.1-0.8-5.9-1-8.1c-8.5,6.8-16.9,13.5-25.3,20.2
		C129.6,74.9,129.8,77.7,129.9,80.4z"/>
	<path d="M130.2,89.5c8.9-7.1,18-14.3,27.2-21.6c-0.6-2.5-1.1-4.9-1.5-7.1c-8.6,6.8-17.3,13.6-25.9,20.5
		C130.1,84.1,130.2,86.9,130.2,89.5z"/>
	<path d="M130.1,99c9.9-7.8,19.7-15.6,29.5-23.4c-0.7-2.1-1.3-4.2-1.8-6.2c-9.2,7.3-18.3,14.6-27.5,21.9
		C130.2,93.9,130.2,96.5,130.1,99z"/>
	<path d="M129.4,108.9c11-8.7,22-17.4,33-26.1c-0.8-1.8-1.5-3.6-2.1-5.3c-10.1,8-20.2,16-30.3,24C129.8,104,129.6,106.4,129.4,108.9
		z"/>
	<path d="M129,112.1c-0.3,2.5-0.7,5-1.2,7.3c12.6-10,25.2-20,37.8-29.9c-0.4-0.7-0.7-1.3-1.1-2c-0.4-0.9-0.9-1.7-1.3-2.6
		c-8.9,7.1-18,14.3-27.1,21.6C133.7,108.3,131.4,110.2,129,112.1z"/>
	<path d="M167,91.9c-13.5,10.7-26.9,21.3-40.1,31.8c-0.6,2.5-1.3,5-2,7.4c14.9-11.8,29.8-23.5,44.6-35.3
		C168.6,94.6,167.8,93.3,167,91.9z"/>
	<path d="M171.5,98.5c-16.3,13-32.5,25.9-48.8,38.8c-0.6,1.4-1.2,2.8-1.8,4.2c-0.5,1.2-1.1,2.2-1.6,3.3
		c18.3-14.5,36.5-28.9,54.7-43.4C173.2,100.5,172.3,99.5,171.5,98.5z"/>
	<path d="M251.6,48.7c-0.5-0.1-0.9-0.1-0.9-0.1c0,0.4-0.2,0.8-0.4,1.3c0,0.1,0,0.2,0,0.3c0.6-0.5,1.2-0.9,1.7-1.4L251.6,48.7z"/>
	<path d="M176.7,104c-21.1,16.8-42.4,33.8-63.7,50.7c-3.7,4.9-7.1,7.7-8.8,8.8l0,2.5c25.1-19.8,50.2-39.7,75.3-59.7
		C178.5,105.6,177.6,104.8,176.7,104z"/>
	<path d="M257.2,50.4c-2.5,2-5,4-7.5,5.9c-0.2,1.3-0.4,2.6-0.6,4c3.8-3,7.5-6,11.3-9L257.2,50.4z"/>
	<path d="M183.3,109c-20.7,16.4-41.3,32.7-61.5,48.8c-5.8,4.6-11.7,9.3-17.6,14l0,3.6c27.2-21.6,54.4-43.2,81.8-64.9
		C185.1,110,184.2,109.5,183.3,109z"/>
	<path d="M191.5,112.5c-29.1,23.1-58.1,46.1-87.3,69.3l0,2.9c30-23.8,60-47.6,90.1-71.5C193.4,113,192.5,112.7,191.5,112.5z"/>
	<path d="M266.3,53.1c-6.3,5-12.5,10-18.8,14.9c-0.3,1.2-0.6,2.5-1,3.7c7.5-5.9,15-11.9,22.5-17.8L266.3,53.1z"/>
	<path d="M203.5,113.9h-1.3c-2.2,1.8-4.5,3.6-6.7,5.4c-21.4,17.4-43,33.9-64,50.8c-9.2,7.4-18.3,14.6-27.3,21.7l0,2
		c33.4-26.7,67.3-53.2,101.2-80C204.8,113.9,204.1,113.9,203.5,113.9z"/>
	<path d="M277.3,56.7l0-0.3l-1.8-0.5c-10.7,8.6-21.5,17-32.2,25.5c-0.5,1.2-1,2.4-1.5,3.6c2.7-2.2,5.4-4.3,8.1-6.5
		C258.4,71.6,267.8,64.1,277.3,56.7z"/>
	<path d="M276.1,67c0.1-0.6,0.1-1.2,0.2-1.8C261.6,76.7,247,88.3,232.3,100c-3.8,4.4-8.1,7.8-12.8,10.2
		c-28.2,22.5-56.4,44.9-84.4,66.9c-10.3,8.1-20.6,16.3-31,24.5l0,1.7c20.9-16.6,42-33.3,63.6-50.4C204.7,123.6,239.7,95.8,276.1,67z
		"/>
	<path d="M275.3,77.1c0-0.4,0.1-0.9,0.1-1.3c-57.2,45.5-113.8,90.3-171.1,135.8l0,1.2c22.8-18,45.6-36,68.2-54.2
		C205.8,131.7,241.1,104.2,275.3,77.1z"/>
	<path d="M274.9,86c-57,45.3-113.6,90.2-170.6,135.4l0,0.6c56.6-44.9,113.5-90.1,170.6-135.3C274.9,86.5,274.9,86.3,274.9,86z"/>
	<path d="M261.6,106.3c-49.9,39.4-103.5,82.2-156.2,124.1c4.4-3.5,8.8-7,13.3-10.4c24.2-18.7,47.7-38.3,71.7-56.9
		c28.7-22.2,56.5-44.7,84.5-67.1c0-0.1,0-0.1,0-0.2C270.5,99.3,266.2,102.7,261.6,106.3z"/>
	<path d="M285.5,353.8c8.9-0.3,14.4-0.5,14.4-0.5l0-10.9C295.1,346.2,290.3,350,285.5,353.8z"/>
	<path d="M299.8,332.8c-9,7.1-18.1,14.3-27.1,21.4c4.5-0.1,8.6-0.3,12.2-0.4c5-3.9,9.9-7.9,14.9-11.8L299.8,332.8z"/>
	<path d="M299.8,323.5c-13.1,10.4-26.1,20.7-39.3,31.1c4.1-0.1,8-0.2,11.6-0.4c9.2-7.4,18.4-14.7,27.7-22L299.8,323.5z"/>
	<path d="M299.8,314.1c-4.8,3.8-9.6,7.7-14.5,11.5c-12.1,9.6-24.4,19.4-36.9,29.3c3.7-0.1,7.4-0.2,10.9-0.3
		c13.5-10.7,27.1-21.4,40.6-32.2L299.8,314.1z"/>
	<path d="M299.8,304.8c-21.2,16.9-42.5,33.7-63.6,50.5c3.4-0.1,6.7-0.2,10-0.3c17.8-14.2,35.8-28.4,53.7-42.6L299.8,304.8z"/>
	<path d="M299.8,295.5c-25.1,19.9-50.4,40-75.7,60.1c3-0.1,6.1-0.1,9.1-0.2c22.2-17.6,44.4-35.2,66.6-52.9L299.8,295.5z"/>
	<path d="M299.8,292.5l0-6.3c-29.4,23.3-58.8,46.6-87.8,69.6c2.7-0.1,5.5-0.1,8.3-0.2c17.8-14,35.7-28.2,54.2-42.9
		C282.8,306,291.2,299.3,299.8,292.5z"/>
	<path d="M299.7,282.6l0-5.7c0,0,0,0-0.1,0.1c-26.7,21-53.1,41.9-79.7,63.2c-6.7,5.3-13.3,10.6-19.9,15.9c0.1,0,0.2,0,0.3,0
		c2.3,0,4.6-0.1,6.9-0.1c10.1-8,20.3-16.1,30.6-24.3C258.9,315,279.4,298.7,299.7,282.6z"/>
	<path d="M299.7,272l0-4.4c-37.2,29.5-74.1,58.8-111.5,88.5c2.1,0,4.3,0,6.4,0c35.3-28.1,70.1-56.1,105.1-83.6L299.7,272z"/>
	<path d="M299.7,258.3c-24.4,19.3-48.7,38.5-73.1,58c-16.6,13.3-33.3,26.4-50,39.7c1.7,0,3.5,0,5.2,0.1c1.8-1.4,3.5-2.8,5.3-4.1
		c37-28.9,74.8-59.1,112.6-89.3L299.7,258.3z"/>
	<path d="M299.7,252.6l0-3.6c-44.5,35.3-89.4,70.9-134.6,106.8c1.4,0,2.9,0.1,4.3,0.1c40.1-31.8,80.4-63.7,119.2-94.5
		C292.3,258.5,296,255.5,299.7,252.6z"/>
	<path d="M299.7,239.7c-48.6,38.5-97,77-146,115.8c1.2,0,2.4,0.1,3.6,0.1c48.1-38.2,94.9-75.4,142.4-113L299.7,239.7z"/>
	<path d="M279,249c7-5.6,13.9-11.1,20.7-16.5l0-2c-45.9,36.6-92.6,72.9-139,110.1c-5.8,4.6-11.9,9.5-18.2,14.5
		c0.9,0,1.7,0.1,2.6,0.1c23.2-18.4,46.4-36.4,69.9-55.4C236.5,282.4,258,265.9,279,249z"/>
	<path d="M299.7,222.7l0-1.7c-18.8,14.9-37.6,29.8-57,45.2c-38.1,30.2-74,58.7-111.5,88.5c0.7,0,1.3,0.1,2,0.1
		c47.5-37.6,95.1-75.7,142.1-112.8C283.5,235.6,291.6,229.2,299.7,222.7z"/>
	<path d="M299.8,211.6c-20.6,16.2-41.2,32.6-61.7,49c-38.3,30.8-79.2,62.6-118.1,93.6c0.5,0,1,0,1.5,0.1
		c59.7-47.5,118.6-94.2,178.3-141.5L299.8,211.6z"/>
	<path d="M299.8,202.2c-63.3,50.2-127,100.8-190.9,151.4c0.3,0,0.6,0,0.9,0c63.6-50.5,126.6-100.5,190.1-150.8L299.8,202.2z"/>
	<path d="M299.8,193L299.8,193c-2.6,2-5.3,4.1-7.9,6.2c-24.2,18.7-47.7,38.3-71.7,56.9c-39.4,30.5-77,61.4-115.8,91.9l0,0.1
		c14.6-11.5,28.9-22.9,44.6-35.2C197.2,274.7,248.8,233.5,299.8,193z"/>
	<path d="M618.5,67.8c0.3-3.3,0.7-6.7,1.1-10.1l0.2-1.5l0.1-0.4l-26-7.9l-0.3-0.1c0,0-0.2,0-0.5,0c5.8,4.6,11.6,9.1,17.3,13.7
		C613.1,63.6,615.8,65.7,618.5,67.8z"/>
	<path d="M618.5,68.2c-8.6-6.8-17.2-13.6-25.8-20.5c-0.1,0-0.2,0-0.3,0l-0.1,0.7c-1.2,0-3.6,1.9-5.5,3.5c-0.1,0.1-0.2,0.1-0.3,0.2
		c10.4,8.3,20.9,16.5,31.3,24.8C617.9,74.1,618.2,71.2,618.5,68.2z"/>
	<path d="M617.7,77.4c-10.5-8.3-21-16.7-31.5-25.1c-0.8,0.7-1.7,1.3-2.5,1.9c-1,0.9-2.1,1.7-3.1,2.5c12.3,9.8,24.6,19.5,36.8,29.2
		C617.4,83.2,617.6,80.3,617.7,77.4z"/>
	<path d="M617.3,95.3c-0.1-2.7-0.1-5.5,0-8.4c-12.5-9.9-25-19.8-37.4-29.6c-1.8,1.4-3.6,2.7-5.5,4c13.8,10.9,27.4,21.7,40.7,32.2
		C615.8,94.1,616.6,94.7,617.3,95.3z"/>
	<path d="M617.4,97c-14.7-11.7-29.5-23.4-44.2-35c-1.8,1.2-3.7,2.2-5.6,3.2c16.7,13.2,33.4,26.5,50.2,39.8
		C617.6,102.4,617.5,99.7,617.4,97z"/>
	<path d="M618.1,107.5c-17.4-13.8-34.8-27.6-52.2-41.4c-1.9,0.9-3.8,1.7-5.8,2.4c19.7,15.6,39.4,31.2,59,46.8
		C618.6,112.7,618.3,110.2,618.1,107.5z"/>
	<path d="M619.6,118.6c-5.2-4.1-10.3-8.2-15.4-12.3c-15.9-12.7-31.4-25-46.8-37.1c-2.1,0.6-4.2,1.1-6.4,1.4
		c23.3,18.4,46.8,37.1,70.3,55.7C620.7,123.9,620.1,121.3,619.6,118.6z"/>
	<path d="M625.7,139.2c-1.1-2.6-2.1-5.3-3-8.1c-18.1-14.4-36.4-28.8-55-43.6c-7-5.5-13.9-11-20.8-16.5c-0.5,0-0.9,0-1.4,0
		c-2.1,0-4.2-0.2-6.3-0.5c3.5,2.8,7,5.6,10.5,8.4C575,99.3,600.3,119.2,625.7,139.2z"/>
	<path d="M629.1,146.3c-32.6-25.6-65-51.6-97.8-77.7c-7.4-2.5-15.2-7-23.5-14.4c-1.4-1.3-5.4-4.8-8-5.6l0.1-0.6h-0.4l-0.3,0.1
		c46.2,36.6,91.4,72.5,137.1,108.7C634,154.2,631.5,150.7,629.1,146.3z"/>
	<path d="M516.9,67.2c-7.6-5.9-15-11.8-22.3-17.7l-3.9,1.2c22.1,17.5,44,34.7,65.8,52.1c28.9,23.2,57.8,46,86.8,68.9l0-4.2
		C600.9,133.7,558.4,99.5,516.9,67.2z"/>
	<path d="M485.4,52.2l-3.2,1c54.2,43,107.8,85.5,161,127.7l0-3.6c-8.4-6.6-16.6-13.2-24.7-19.6C575.2,123.3,530.1,87.7,485.4,52.2z"
		/>
	<path d="M473.7,55.8c56.9,45.1,113.1,89.7,169.5,134.4l0-2.9C587.5,143.2,533,99.9,476.4,55L473.7,55.8z"/>
	<path d="M544.8,119.3c-24.9-20.2-49.5-39.2-74.1-58.7c0.1,0.8,0.2,1.6,0.3,2.4c6.7,5.3,13.3,10.6,19.5,15.5
		c51,40.9,102.4,80.7,152.7,121l0-2.1c-11.3-8.9-22.7-18-34.3-27.3C587.8,153.2,566.3,136.7,544.8,119.3z"/>
	<path d="M471.8,71.3c0.1,0.6,0.1,1.2,0.1,1.8c33.6,26.7,66.2,52.6,100.6,79.8c24,19.1,47.4,37.6,70.6,56l0-1.7
		c-12.7-10.1-25.4-20.2-38-30.1C561,142.3,516.4,106.6,471.8,71.3z"/>
	<path d="M472.6,83c31.8,25.2,64.4,50.6,95.3,75.5c24.9,20.1,50.2,39.9,75.3,59.7l0-1.1C585.9,171.7,529.5,127,472.5,81.7
		C472.5,82.1,472.5,82.6,472.6,83z"/>
	<path d="M472.7,92.4c57.1,45.2,113.9,90.4,170.4,135.2l0-0.6c-57-45.2-113.5-90-170.4-135.2C472.7,92,472.7,92.2,472.7,92.4z"/>
	<path d="M643.1,236.9L643.1,236.9c-0.5-0.4-1.1-0.9-1.6-1.3C642,236.1,642.6,236.5,643.1,236.9z"/>
	<path d="M621.6,220c4.4,3.4,8.9,6.9,13.3,10.4c-52.7-41.9-106.3-84.7-156.2-124.1c-2.1-1.7-4.2-3.3-6.2-4.9c0,0.1,0,0.2,0,0.3
		c25.6,20.5,51.2,41.1,77.5,61.5C573.9,181.7,597.5,201.3,621.6,220z"/>
	<path d="M447.7,348.1l0,5c0,0,0.1,0,0.2,0v0.1c0.1,0,0.3,0.1,0.6,0.1c0,0,5,2.5,13.3,6c-0.7-0.5-1.4-1.1-2-1.6
		C455.7,354.5,451.7,351.3,447.7,348.1z"/>
	<path d="M447.7,347.7c5,4,10,8,15,11.9c5.8,2.4,13.2,5.2,21.6,7.8c-12.2-9.7-24.4-19.3-36.6-29L447.7,347.7z"/>
	<path d="M447.7,337.9c12.4,9.9,24.8,19.8,37.3,29.7c5.4,1.7,11.2,3.3,17.2,4.7c-18.3-14.5-36.5-28.9-54.6-43.3L447.7,337.9z"/>
	<path d="M447.7,319.8l0,8.4c18.8,15,37.7,29.9,56.6,44.7c4.4,1,9,1.9,13.7,2.6c-21.3-16.9-42.5-33.7-62.9-49.9
		C452.6,323.7,450.1,321.7,447.7,319.8z"/>
	<path d="M447.7,318.1c24.4,19.4,48.7,38.7,72.9,57.9c3.7,0.5,7.5,1,11.2,1.3c-28-22.2-56-44.5-84.2-66.8L447.7,318.1z"/>
	<path d="M447.7,308.1c29.2,23.1,58.3,46.2,87.3,69.3c2.9,0.2,5.8,0.3,8.8,0.3c0.1,0,0.3,0,0.4,0c-32.4-25.7-64.5-51.2-96.5-76.6
		L447.7,308.1z"/>
	<path d="M447.7,298.2c6.1,4.9,12.2,9.7,18.2,14.5c28.1,22.5,55.1,43.6,82,64.9c2.5-0.1,5-0.2,7.5-0.4
		c-35.3-28-71.5-56.7-107.7-85.4L447.7,298.2z"/>
	<path d="M447.7,282.4l0,5.8c18,14.3,36.2,28.7,54.8,43.4c19.3,15.3,38.1,30.2,57,45.3c2.1-0.2,4.1-0.5,6.2-0.7
		c-15-11.9-30.1-23.8-45.3-36C496.1,320.7,472,301.6,447.7,282.4z"/>
	<path d="M447.7,278c40.7,32.1,81.3,64.7,122.5,97.5c1.8-0.3,3.6-0.6,5.3-0.9c-43.1-34.1-85.3-67.7-127.8-101.4L447.7,278z"/>
	<path d="M447.7,263.8l0,4.4c35.4,28.3,70.9,56.6,105.6,83.7c9.3,7.3,18.3,14.5,27.3,21.7c1.4-0.3,2.9-0.6,4.3-0.9
		c-23.9-18.9-47.6-37.5-71.2-56.4C491.7,298.7,469.7,281.3,447.7,263.8z"/>
	<path d="M447.7,258.2c1.3,1.1,2.7,2.1,4,3.2c45.1,35.9,92.3,73.1,138.7,110c1.1-0.3,2.3-0.6,3.4-0.9
		c-49.1-39-97.8-77.6-146.1-115.9L447.7,258.2z"/>
	<path d="M447.6,248.2c50.5,40.1,100.4,79.6,152.1,120.7c0.9-0.3,1.8-0.5,2.8-0.8c-52-41.2-103.4-82-154.8-122.8L447.6,248.2z"/>
	<path d="M447.6,236.1l0,2c4.5,3.6,9.1,7.2,13.7,10.9c21.1,16.9,42.6,33.4,64,50.8c28.1,22.8,55.9,44.2,83.6,66.3
		c0.7-0.2,1.3-0.4,2-0.6c-10.7-8.5-21.6-17.1-31.3-24.9C535.6,305.3,491.3,270.8,447.6,236.1z"/>
	<path d="M447.6,226.6l0,1.7c5.8,4.6,11.6,9.2,17.3,13.7c50.5,39.9,101.7,80.9,152.7,121.2c0.5-0.2,1-0.3,1.5-0.5
		c-41.2-32.6-80.2-63.6-121.6-96.5C480.7,252.8,464.1,239.6,447.6,226.6z"/>
	<path d="M447.6,217.1l0,1.2c59.7,47.3,118.7,94.1,178.6,141.7c0.3-0.1,0.7-0.3,1-0.4c-40.9-32.8-84.4-66.4-125-99.1
		C484.2,246,465.9,231.5,447.6,217.1z"/>
	<path d="M447.6,208.4c62.2,49.3,124,98.4,186.4,148c0.1-0.2,0.2-0.3,0.3-0.5c-62.5-49.4-124.8-99-186.8-148.1L447.6,208.4z"/>
	<path d="M448.5,199.1c-0.3-0.2-0.6-0.5-0.9-0.7l0,0.1c48.7,38.7,97.8,77.9,143.8,114.2c16.6,13.1,31.6,25,47.1,37.2
		c0,0,0-0.1,0.1-0.1c-39.8-31.1-78.2-62.8-118.4-93.9C496.2,237.4,472.7,217.8,448.5,199.1z"/>
</g>
</svg>
