<?xml version="1.0" encoding="utf-8"?>
<!-- Generator: Adobe Illustrator 25.3.0, SVG Export Plug-In . SVG Version: 6.00 Build 0)  -->
<svg version="1.1" id="Layer_1" xmlns="http://www.w3.org/2000/svg" xmlns:xlink="http://www.w3.org/1999/xlink" x="0px" y="0px"
	 viewBox="0 0 750.2 400.1" style="enable-background:new 0 0 750.2 400.1;" xml:space="preserve">
<g>
	<path d="M130.1,98.5c-0.1,1.9-0.2,3.7-0.3,5.5c2.2-0.6,4.5-1.1,6.8-1.5c6.3-1.1,12.8-0.5,19.3-0.7c6.8-0.3,13.5,0.3,20,1.6
		c-1.6-1.5-3-3.1-4.5-4.9c-0.2,0-0.4,0-0.5,0c-8.4-0.7-16.8-1.8-25.2-1.7C140.3,96.6,135.1,97.3,130.1,98.5z"/>
	<path d="M276.5,63c-2.6-2.1-5.2-4.3-7.8-6.4c-0.8-0.7-1.3-1.6-2-2.4c0.2-0.2,0.3-0.4,0.5-0.7c0.8,0.3,1.7,0.4,2.4,0.8
		c1.6,0.9,3.2,2,4.8,3.1c0.9,0.7,1.8,1.3,2.6,2c0.1-0.5,0.1-1.1,0.2-1.6l0.2-1.3l-25.7-7.7c-0.4-0.1-0.7-0.1-0.8-0.1
		c8.4,6.7,16.8,13.4,25.1,20.3C276.1,66.9,276.3,65,276.5,63z"/>
	<path d="M130.2,91.9c1.2-0.1,2.5-0.2,3.8-0.2c9.2-0.2,18.4,0,27.5,0.3c1.9,0.1,3.9,0.2,5.8,0.4c-1-1.6-1.9-3.2-2.8-5
		c-0.3-0.6-0.6-1.2-0.9-1.8c-11.2,0.1-22.3,0.4-33.5,0.8C130.2,88.3,130.2,90.1,130.2,91.9z"/>
	<path d="M274.9,96.4c-0.1-2.3-0.1-4.6-0.1-7c-1-1.1-2.1-2.2-3.1-3.3c-7.3-8-15.1-15-23.4-21.3c-0.3,1.6-0.7,3.2-1.2,4.8
		c3,2.3,5.8,4.7,8.5,7.3C262.1,83.4,268.5,89.9,274.9,96.4z"/>
	<path d="M275,82.1c0.1-1.7,0.2-3.5,0.3-5.3c-8.4-7.5-16.9-15-25.3-22.4c-0.1,1.4-0.3,3-0.6,4.5c2.3,1.8,4.5,3.6,6.7,5.5
		C262.6,70.2,268.8,76.1,275,82.1z"/>
	<path d="M129.6,75.6c0.2,2.3,0.3,4.6,0.4,6.9c10.1-2.9,20.3-4.2,30.5-4.2c-0.7-1.9-1.3-3.8-1.9-5.7c-4.6,0-9.2,0.2-13.9,0.5
		C139.7,73.5,134.6,74.1,129.6,75.6z"/>
	<path d="M299.6,352.3c0-1-0.2-2.2,0.2-2.9c0,0,0,0,0-0.1l-0.1-36.8c-6.6,6.6-13.6,12.5-21.4,17.4c-9.8,6.2-20.2,10.7-31.4,12.7
		c-1.6,0.3-3.3-0.2-4.9-0.6c-0.6-0.2-1.2-1.2-1.4-1.9c-0.1-0.4,0.9-1.2,1.5-1.5c9.3-4.7,18.7-9.3,28.1-13.9c1.5-0.8,3.2-1.5,4.5-2.6
		c8.3-6.6,16.8-13.1,25-19.9l0-7.9c-2.3,2.8-4.8,5.4-7.4,7.8c-13.7,12.8-29.7,21.5-45.9,30c-3.7,1.9-7.5,3.8-11.3,5.7
		c-1-1.7-1.7-3.1-2.6-4.6c1.2-0.6,2.3-1.1,3.5-1.6c10.6-5.2,21.3-10.1,31.7-15.6c11.2-5.9,20.7-14.6,28.2-25.3c1.4-2,2.6-4,3.8-6
		l0-10.9c-3,9.5-8.6,17.8-16.8,25.1c-3.8,3.4-8,6.4-12.4,8.9c-12.4,7.1-24.5,14.9-38.2,18.8c-0.6,0.2-1.1,0.6-1.6,0.9
		c-5.4,3-10.9,5.9-16.2,9c-1.9,1.1-2.8-0.2-3.5-1.6c-1-1.8,0.7-2,1.5-2.4c9.1-4.1,18.1-8.4,27.2-12.3c17-7.4,32.2-18.1,46.1-30.8
		c6.7-6.1,10.5-14.3,11.1-24.1c0.7-11.9-0.2-23.7-3.1-35.2c-3.6-14.5-8-28.8-12.1-43.2c-3.1-10.8-7.8-20.7-13.8-29.8
		c-6.3-9.4-13-18.5-19.5-27.8c-5.8-8.3-13.1-14.6-21.3-19.8c-1.1-0.7-2.2-1.3-3.3-2c-1.9,1.3-3.9,2.4-6,3.3c2.3,1.3,4.5,2.7,6.8,4.1
		c11.3,7.2,20.8,16.8,28.3,28.4c4.6,7.2,8.7,14.7,13.2,22c6.6,10.6,11,22.2,14.4,34.3c2.9,10.5,5,21.1,2.5,32.1
		c-0.4,1.6-0.5,3.3-0.6,5c-0.5,7.2-0.8,14.5-1.3,21.7c-0.7,8.6-4,15.9-9.6,22c-2,2.1-4.3,3.4-7.1,3.3c-1.8-0.1-3-1.2-2.5-3.1
		c0.5-2.1,1.2-4.5,2.5-6c3.7-4.2,6.2-9,8-14.4c1.8-5.4,3.5-10.9,5.4-16.4c2.7-7.9,3.1-16.1,1.6-24.2c-2.5-13.4-6.9-26.3-11.5-39
		c-2.8-7.7-5.7-15.4-10.2-22.2c-12.3-18.7-27.3-34.4-45.6-45.9c-2.5,0.6-5.1,1-7.8,1.1c13,6.8,24.8,15.2,34.6,27
		c18,21.7,27.9,47.7,34.1,75.7c0.8,3.4,0.7,7.1,1,10.7c-2.8,0.3-4-0.8-4.7-3.6c-1-4.2-1.9-8.4-3-12.6c-0.4-1.5-1.1-2.9-1.7-4.4
		c-0.3,0.1-0.6,0.1-0.9,0.2c-0.2,1.1-0.5,2.3-0.4,3.4c0.3,5.2,0.5,10.5,1.1,15.6c1.3,10.1-0.2,19.4-4.6,28.4
		c-5.1,10.4-12.4,18.1-21.9,23.5c-12.4,7.1-25.6,12.3-38.8,17.2c-13.1,4.9-25.5,11.2-37.1,19.3c-7.5,5.2-14.8,10.6-22.4,15.7
		c-3.6,2.4-7.4,4.4-11.2,6.4c-0.8,0.4-1.7,0.6-2.6,0.9c-0.1-0.2-0.3-0.5-0.4-0.7c1.6-1.6,3.1-3.3,4.9-4.6
		c10.8-8,21.4-16.2,32.4-23.7c13-8.8,26.4-17,41.5-20.9c10.2-2.6,20-6.5,29.4-11.5c2.8-1.5,5.3-3.4,7.9-5.3c0.6-0.5,0.9-1.6,1.3-2.4
		c-0.8-0.3-1.8-1-2.5-0.8c-3.5,0.9-7,1.9-10.4,3.2c-4.7,1.8-9.2,4.2-13.9,5.8c-3.1,1-6.4,1.3-9.6,1.6c-1.1,0.1-2.5-0.6-3.4-1.4
		c-1.5-1.3-1.3-2.6,0.5-3.6c1.8-0.9,3.7-1.7,5.6-2.4c8.1-2.7,16.1-5.3,24.2-7.9c3.7-1.1,7.4-1.6,11,0.6c0.7,0.5,2.1,0.3,2.9-0.1
		c1.3-0.7,2.5-1.7,3.5-2.8c3.7-3.9,5.2-9.1,6.3-14.4c2-9.9,1.6-19.8,0.5-29.8c-2.7-23.5-11.5-44.1-25.5-62.1
		c-1.6-2.1-3.8-3.8-5.9-5.3c-0.9-0.7-2.4-0.5-3.6-0.7c0.4,1.2,0.6,2.6,1.3,3.6c2.3,3.2,5,6.1,7.2,9.5c3.5,5.6,6.8,11.3,10,17.1
		c10.4,18.2,13.7,38.1,11.4,59.3c-0.4,3.9-1.2,7.8-2,11.6c-0.2,0.9-0.8,1.7-1.2,2.5c-0.3-0.1-0.5-0.1-0.8-0.2
		c-0.1-1.8-0.4-3.6-0.3-5.4c0.3-4.9,0.9-9.8,1.2-14.6c0.5-8.8,1.3-17.9-2-26.2c-4.3-10.8-9.4-21.3-14.2-31.9
		c-0.1-0.3-0.3-0.6-0.5-0.8c-5.5-6.4-10.8-13.1-16.6-19.1c-5.4-5.6-11.6-10.2-18.5-13.5c-3.4-1.6-4-2.9-2.9-6.7
		c0.2-0.7,0.4-1.4,0.7-2c1-2,0.6-3.9-0.6-5.6c-2.9-4-6.5-6.7-11.4-6.9c-2.4-0.1-4.7-0.1-7.1,0c-1,0-2,0.4-3,0.6
		c0.1,2.8,1.6,3.8,3.5,4.3c2.1,0.5,4.2,0.7,6.3,1.1c3.7,0.8,5,2.6,4.3,5.8c-0.5,2.1-2.2,2.2-5.8,1c-2.4-0.8-4.9-1.2-7.4-1.4
		c-2.6-0.1-5.2,0.1-7.7,0.5c-2,0.3-2.4-0.6-2-2.4c0.5-2.3,1.2-4.5,1.6-6.8c0.6-3.4-0.5-5-3.6-4.6c-4.4,0.6-8.9,1.3-13.2,2.8
		c-9.4,3.3-17.8,8.2-25.6,14.1c-0.9,2.7-2,5.2-3.1,7.7c-0.4,0.8-0.7,1.5-1.1,2.2c4.1-4.1,8.6-7.6,13.8-10.2c6.5-3.2,13.2-6,19.9-8.8
		c1.3-0.6,2.9-0.8,4.3-0.7c0.8,0.1,1.6,1.1,2,1.5c-0.3,3.2-1.5,4.8-3.5,5.7c-3.8,1.6-7.5,3.4-11.4,4.8c-8.6,3.2-15.9,8.4-22.4,15.2
		c-2.7,2.8-5.3,5.6-8.1,8.3c-1.3,1.3-2.8,2.4-4.2,3.5c-0.9,0.7-2,1.1-2.9-0.3c-0.2-0.4-0.5-0.7-0.7-1.1c-1.1,0.9-2,1.6-2.6,2.1
		l0,25.7c0.5-1.6,1-3.2,1.5-4.8c1.4-4.2,3.5-8.4,6.2-11.9c4.2-5.6,9-10.6,13.7-15.7c1.1-1.2,2.8-2,4.4-2.6c1.4-0.6,2.1,0.3,1.5,1.8
		c-0.5,1.2-1.2,2.4-1.9,3.5c-2.8,4.5-5.8,8.9-8.5,13.4c-5.7,9.5-10.9,19.3-14,30.2c-0.6,1.9-1.7,3.7-2.8,5.4l0,20
		c1.5-4.1,3-8.3,4.5-12.4c3.7-10,7-20.2,11.1-29.9c4.6-10.9,11.3-20.2,20.9-26.6c5-3.4,10-7,15.2-10c13.5-7.8,27.2-9,41-0.4
		c1.9,1.2,3.8,2.2,5.7,3.3c19.3,11.7,32.8,28.8,39.7,51.7c4.1,13.7,4.5,27.6-0.4,41.4c-1.3,3.8-3.5,6.5-6.7,8.7
		c-7,4.9-14.7,7.7-22.8,9.6c-4.5,1-8.9,2.4-13.5,2.8c-6.6,0.6-11.2,3.8-13.6,10.5c-0.4,1-0.2,2.3-0.3,3.4c1-0.1,2-0.2,2.9-0.4
		c1.6-0.4,3.6-1.7,4.5,0.6c0.8,2.2-1.3,3.1-2.8,3.9c-4.2,2.4-8.4,4.8-12.5,7.2c-1.6,1-3.1,1.6-4.6-0.1c-1.3-1.6-1-3.7,0.5-5.6
		c2.1-2.7,4-5.5,6-8.3c3.1-4.3,5.9-8.9,9.3-12.9c3-3.7,7-5.3,11.6-4.3c1.4,0.3,2.8,0.4,4.2,0.3c11.2-1.2,21.7-4.8,31-12
		c1.9-1.4,3.3-3.9,4.2-6.3c2.5-6.3,0.3-12-2.6-17.6c-2.3-4.4-4.5-8.9-6.2-13.5c-4.7-12.2-9.4-24.4-18.6-33.6
		c-5.6-5.7-11.6-10.8-18.3-14.8c-2.3-1.4-4.6-3-6.8-4.6c-0.6-0.5-1.1-1.3-1.6-1.9c0.1-0.2,0.2-0.4,0.3-0.6c1.1,0.2,2.2,0.3,3.2,0.7
		c8.2,3.2,16.2,7,22.5,13.7c12.2,13.1,22.4,27.6,25.6,46.6c0.3,1.6,1.1,3.1,1.7,4.6c0.3-0.1,0.5-0.1,0.8-0.2c1.2-2,1.4-4.4,1-6.6
		c-0.8-4.8-1.5-9.8-3.2-14.2c-9.2-23.6-24.2-41-46.7-49.9c-6.3-2.5-12.5-3-19-0.3c-12.3,4.9-24.3,10-35,18.5
		c-5.4,4.3-9.5,9.7-12.1,16.3c-2.2,5.5-4.1,11-5.7,16.7c-4.3,15.7-8.5,31.4-14.4,46.5l0,15c2.2-2,2.7-5,3.7-7.8
		c6-16.3,11-32.8,13.7-50.1c1.1-7.2,4.5-12.8,8.3-18.3c0.4-0.5,1.3-1.1,1.8-0.9c0.7,0.2,1.6,1,1.9,1.7c0.3,0.8,0,1.9-0.4,2.7
		c-2.4,5.8-5.3,11.4-7.1,17.4c-4.2,14.1-7.9,28.3-11.6,42.5c-0.3,1.1,0.4,2.4,0.7,3.7c1-0.6,2.1-1.2,3-2c0.6-0.5,0.8-1.5,1.1-2.3
		c0.8-2.6,1.7-5.2,2.2-7.8c3.1-15.3,8.3-29.7,15.1-43.4c2-4.2,4.9-8.1,6.1-12.6c1.2-4.4,4.1-6.2,6.9-8.4c2.7-2.2,5.6-4.2,8.5-6.2
		c5.4-3.9,11.4-6.1,17.6-7.6c1-0.2,2-0.2,3-0.3c0,0.2,0.1,0.4,0.1,0.7c-0.7,0.3-1.5,0.6-2.2,0.8c-6.1,1.7-11.3,5-16,9.6
		c-6.8,6.6-12.5,14.1-16.7,22.9c-1.4,3-3,5.9-4.7,8.7c-5.6,9.4-8.9,19.8-11.2,30.5c-0.2,0.8,0.3,2.2,0.8,2.6
		c0.6,0.4,2.1,0.1,2.5-0.5c1.3-1.6,2.5-3.4,3.3-5.4c2.4-5.5,4.9-11,6.8-16.8c3.2-9.7,8-18.3,13.1-26.7c5.9-9.6,13.9-16.2,23.6-20.3
		c2-0.9,4.3-1.4,6.5-1.2c3,0.2,6.1,0.8,8.8,2.1c8.2,4,15,10,20.6,17.6c1.2,1.7,2.6,3.5,2,6.2c-1.7-1-3.1-2.3-4.5-3.6
		c-3.9-3.6-7.5-7.5-11.6-10.9c-8.2-6.7-16.9-7.6-25.9-1.8c-13.4,8.7-22.2,21.5-27.2,37.4c-2.9,9.3-5.2,18.8-7.8,28.2
		c-3.6,13-9.5,24.3-19.7,32.7c-3.2,2.6-5.7,6.2-8.2,9.7c-2.3,3.2-4.5,6.4-6.6,9.7l0,7.3c1.3-1.6,2.6-3.1,3.9-4.7
		c1.6-2,2.7-4.6,4.3-6.8c1.9-2.8,3.8-5.7,6.1-8.2c5.9-6.4,12-12.6,17.9-19c1.1-1.2,2-2.8,2.7-4.3c5.1-11.1,8.4-22.9,11.3-34.7
		c3.5-14.3,8.7-27.5,17.5-38.9c4.7-6,10.8-8.3,17.7-8.2c3.9,0,7.6,1.4,10.5,4.4c5.9,6.2,11.8,12.4,17.9,18.4
		c7.3,7.2,13.3,15.6,18.9,24.3c3,4.7,3.9,10.1,1.8,15.6c-0.3,0.9-1.6,1.3-2.4,1.9c-0.3-1-0.9-2-0.8-2.9c0.5-3.6-0.1-6.9-1.9-9.9
		c-1.8-2.9-3.6-5.9-5.8-8.5c-7.9-9.5-15.9-18.8-24-28.1c-3.2-3.7-7.2-6.1-11.6-7.8c-6.9-2.5-13.4-0.2-18.1,5.9
		c-6.7,8.8-10.4,19-13,29.8c-2.4,10.3-5.1,20.5-7.8,30.7c-2.1,7.7-6,14.1-11.4,19.5c-3.5,3.5-6.9,7.3-10.4,10.9
		c-1,1.1-2.2,1.9-3.2,3c-1.9,2-4.2,3.7-5.5,6.1c-4,7.1-9.2,12.8-14.4,18.8l0,6.4c0.1-0.1,0.2-0.3,0.4-0.4c3.2-3.6,6.7-6.9,9.3-10.9
		c4.8-7.3,9.9-14,16.1-19.8c3.6-3.4,7.3-6.6,10.6-10.3c6.9-7.6,13.3-15.7,15.8-26.3c1.9-7.7,3.2-15.5,5-23.2
		c1.2-5.3,2.7-10.5,4.2-15.7c0.5-1.6,1.4-2.8,3.1-2c1.8,0.8,1.8,2.3,1.3,4c-0.4,1.6-1,3.2-1.3,4.9c-1.1,5.9-3.3,11.4-3.3,17.7
		c0,12.2-3.4,23.1-11,32.3c-1.6,1.9-2.7,4.3-4.2,6.2c-2.5,3.1-5.1,6-7.8,8.8c-1.7,1.8-3.8,3.1-5.5,4.9c-4.4,4.4-8.6,8.8-12.9,13.3
		c-0.6,0.6-0.9,1.5-1.4,2.2c0.1,0.2,0.3,0.4,0.4,0.6c0.9-0.4,1.9-0.6,2.6-1.3c2.8-2.4,5.6-5,8.4-7.5c0.8-0.7,1.8-1.4,2.8-1.7
		c1.7-0.4,2.6,0.8,1.6,2.4c-1.1,1.8-2.4,3.5-3.9,4.8c-2.8,2.5-5.9,4.6-8.8,7c-0.9,0.7-1.6,1.7-2.4,2.6c0.1,0.2,0.2,0.4,0.3,0.6
		c0.9-0.2,1.9-0.2,2.6-0.6c3.6-1.8,7.5-3.3,10.7-5.8c9.1-7.1,17.9-14.5,26.7-22c5.4-4.6,10.1-10.1,12.3-17.3
		c1.3-4.2,2.3-8.5,2.8-12.9c1.4-11.1,1.4-22.2-2.2-32.9c-1.9-5.7-0.5-10.6,2.7-15.1c2.2-3,5-2.6,7,0.5c0.5,0.9,1.1,1.7,1.6,2.6
		c4.4,7.4,8.7,14.7,13.1,22.1c0.8,1.4,2,2.6,2.9,3.9c1.1,1.5,2.2,3.1,3,4.7c1,1.9,0.3,3.1-1.6,2.8c-1.4-0.2-2.9-1.1-4.1-2.1
		c-4.1-3.9-6.5-9.1-9-14.2c-1.4-2.9-2.9-5.8-4.6-8.5c-1-1.7-2.4-3.5-4.5-2.7c-2.2,0.9-1.8,3.3-1.5,5.3c0.6,3.4,1.5,6.7,2,10.1
		c0.8,6,1.6,11.9,2,17.9c0.7,11.2-3.4,20.6-9.9,28.9c-7.5,9.7-16.9,17-26.1,24.6c-7.7,6.3-15.2,13-22.9,19.5
		c-3.3,2.8-6.4,5.7-9.9,8.1c-4.8,3.3-8.9,7.4-12.8,11.7l0,7c5-4.9,10-9.9,15.1-14.8c14.3-13.8,30.6-24.5,46-36.7
		c0.1-0.1,0.2-0.2,0.4-0.3c0.8,0,1.7-0.4,2.3,0c0.5,0.4,1,1.7,0.8,2.2c-0.6,1.4-1.5,3-2.6,3.9c-4.1,3-8.4,5.7-12.6,8.6
		c-2.7,1.9-5.3,4.1-8.1,5.8c-10.5,6.2-19.2,14.9-27.5,24.1c-4.4,5-8.6,10.2-13.2,15.1c0.6,0,2.9,0.2,6.6,0.4c2-1.5,3.9-3.1,6-4.4
		c16.1-10.2,32.8-19.3,48-31.2c6-4.7,12.5-8.7,19.6-11.3c1-0.4,2.1-0.5,3.2-0.7c0.1,0.3,0.2,0.6,0.3,0.9c-2.2,1.7-4.3,3.5-6.6,5.1
		c-12.4,8.4-24.7,17.1-37.5,25c-8.3,5.2-16.2,11-24,17.1c2.6,0.1,5.3,0.2,8.3,0.4c2.2-1.5,4.5-3.1,6.7-4.7c3.8-2.6,7.5-5.5,11.4-8
		c6-3.9,12.1-7.7,17.8-11.3c1.9,0.1,3.6,0.6,4.9,0.1c5.8-2.2,11.5-4.6,17.1-7.1c8.9-4.1,17.7-8.4,26.6-12.5c1.3-0.6,2.9-0.7,4.4-1
		c0.1,0.3,0.2,0.6,0.4,0.9c-1.5,1.1-2.8,2.4-4.4,3.2c-6.9,3.6-13.9,7.1-20.9,10.5c-10.4,5.1-20.9,9.8-31.2,15.2
		c-6.9,3.6-13.4,7.8-20.1,11.9c-1.6,1-3.2,2-4.7,3c2.6,0.1,5.2,0.2,8,0.3c8-5.1,16.4-9.3,25.1-13c7.9-3.4,15.7-7.1,23.6-10.6
		c12.9-5.8,25-13.2,36.1-22.5c7.6-6.3,15.4-12.2,23.1-18.4c2.1-1.7,3.8-2.2,5.8-0.3c2.5,2.4,5.1,2,7.8,0.3c0.9-0.6,1.8-1.1,2.6-1.8
		c12-9.7,18.5-22.6,19.2-39c0.2-4.4,0.3-8.8,0.5-13.3c0-1.1,0.2-2.1,0.4-3.2c0.2,0,0.4-0.1,0.6-0.1c0.4,1,0.9,2.1,1.2,3.1
		c2.1,7.9,2.6,16,2,24.2c-0.9,12.7-5.6,23.4-15.3,30.8c-10.6,8-21.6,15.5-32.4,23.2c-1.3,0.9-2.8,1.4-4.3,1.9c-0.8,0.3-1.8,0-2.7,0
		c7.2-7.1,15-13,21.3-20.9c-1.7,0.2-3.2,0.6-4.4,1.5c-5.9,4.2-11.8,8.3-17.5,12.8c-10.1,8-20.6,15-31.9,20.8
		c-6.2,3.2-12.4,6.5-18.6,9.8c-9.3,5-18.6,9.9-27.7,15.2c3.9,0.1,7.8,0.2,11.7,0.3c10.9-6.3,21.8-12.6,32.7-18.9
		c0.7-0.4,1.3-0.7,2-0.9c1.5-0.4,2.4,0.6,2.4,2.2c0,1.9-1.3,2.4-2.6,2.9c-10.2,4-19.8,9.1-29.2,14.8c3.6,0,7.1,0.1,10.6,0.1
		c12.7-8.1,26.2-13.9,39.7-20c1.5-0.7,2.5,0,3,1.5c0.4,1.4,0.5,2.7-1.3,3.5c-4.9,2.3-9.6,4.9-14.4,7.4c-4.8,2.5-9.7,5-14.5,7.6
		c0.4,0,0.9,0,1.3,0c3.1,0,6.3-0.1,9.5-0.2c3.9-1.7,7.8-3.6,11.8-4.7c6.4-1.7,13-2.8,19.6-4c1-0.2,2.1,0.2,3.1,0.4
		c0.1,0.3,0.2,0.6,0.2,1c-1.4,0.8-2.8,1.8-4.3,2.4c-4,1.5-8,3.1-12,4.6c5.4-0.1,10.9-0.3,16.1-0.4c13.9-5.6,27.5-12.1,40.4-20.2
		c2-1.2,4.2-2.1,6.3-3c0.9-0.4,1.9-0.3,2.9-0.5c0.1,0.2,0.2,0.4,0.4,0.7c-0.7,0.9-1.3,1.9-2.1,2.6c-2.7,2-5.3,4.1-8.2,5.8
		c-8.9,5.2-17.9,9.9-27.1,14.3c3.4-0.1,6.8-0.2,10-0.3c4.7-2.9,9.4-5.8,14-8.9c4.5-3,9.4-4.7,14.4-6c0.9-0.2,1.8-0.1,2.7-0.2
		c0.1,0.3,0.3,0.6,0.4,0.9c-1.9,1.8-3.6,3.9-5.7,5.4c-3.9,3-8,5.8-12.2,8.3c11.6-0.4,19.2-0.7,19.2-0.7l0-1.1
		C299.8,352.2,299.7,352.2,299.6,352.3z M186.9,140c-0.5,0.2-1.2,0.1-2,0.2c-1.2-0.2-2.7-0.4-4.2-0.6c-11.9-2-22.8,0.7-33,7.7
		c-1.4,1-2.9,2-4.5,2.6c-2.5,1.1-3.6,0.1-3.1-2.8c0.2-1.1,1-2.2,1.7-3.2c0.5-0.7,1.3-1,1.9-1.6c5-4.9,10.8-7,17.5-7.5
		c7.5-0.5,15-1.1,22.5,0.4c1.2,0.3,2.5,0.6,3.6,1.2c0.7,0.4,1,1.4,1.5,2.1C188.3,139,187.6,139.6,186.9,140z M172.8,161.3
		c-3.6,1.2-7.3,2.2-10.8,3.6c-9.5,3.8-17.7,9.5-23.9,18.4c-0.3,0.4-0.6,0.7-1,1.2c-3.9-2.2-3.9-2.3-1.1-5.8
		c9.5-11.5,21.4-17.7,35.2-20.1c1.6-0.3,3.3,0,4.9,0c0.1,0.3,0.1,0.7,0.2,1C175.2,160.2,174,160.9,172.8,161.3z M175.2,246.2
		c-0.2,8.2-2.8,15.6-7.6,21.9c-5.3,7-11.5,13.2-18.4,18.4c-1.9,1.4-3.6,2.9-6.8,3.2c0.7-1.6,1-2.9,1.7-3.7c3-3.5,6-6.9,9.1-10.2
		c4-4.2,8.2-7.9,11.5-12.9c3.4-5.1,5-10.4,5.2-16.5c0.2-5.1,0.6-10.3,1-15.4c0.2-2.4,0.2-5,2.7-7.4c0.4,1.6,0.8,2.7,0.8,3.7
		C174.8,233.5,175.3,239.9,175.2,246.2z M189.9,231.4c0.3-0.1,0.5-0.1,0.8-0.2c0.4,0.7,0.9,1.4,1.3,2.1c0.8,1.8,1.7,3.6,2.4,5.4
		c1.5,4.3,4.5,6.9,8.2,8.7c4.8,2.3,9.3,1.2,12.3-3.1c2.7-3.9,2.4-8.8-0.9-13c-8-10.3-16.1-20.5-24.2-30.8c-2-2.6-4.3-4.7-7.5-5.1
		c-1.9-0.2-3.5,0.3-4.7,1.9c-0.8,1-1.7,2.2-2.7,2.7c-0.9,0.4-2.3,0.2-3.2-0.3c-0.3-0.2-0.3-2.1,0.1-2.8c3-5.8,10.1-10.1,17.3-5.2
		c4.4,3,7.9,7,11.2,11.2c7.1,9.1,14.2,18.3,21.3,27.4c4.8,6.1,3.7,14.5-2.7,19.3c-5.8,4.3-12.2,5.9-19.2,4.6c-3.6-0.7-5.6-3.7-6.7-7
		c-1.4-4.1-2.1-8.5-3-12.8C189.5,233.5,189.8,232.4,189.9,231.4z M261.3,267.7c-3.2,5.8-7.4,10.7-12.5,14.5
		c-15.4,11.3-32,20.1-48.7,28.8c-6.3,3.3-12.4,6.8-18.6,10.2c-1.3,0.7-2.7,1.2-4.1,1.9c-0.2-0.3-0.4-0.6-0.6-1
		c1.4-1.4,2.7-3,4.3-4.1c5.7-3.9,11.3-8,17.2-11.4c7.9-4.6,16-8.6,24-13.1c6.4-3.6,12.8-7.1,18.9-11.1
		c16.5-10.7,24.9-27.4,28.2-47.4c0.1-0.6,0.1-1.1,0.2-1.7c0-0.1,0.2-0.3,0.3-0.5c0.5,0.3,1.1,0.7,1.6,1c0.6,0.3,1.2,0.5,2,0.8
		c-0.1,0.6-0.1,1.3-0.2,1.9C270.4,247.3,266.8,257.9,261.3,267.7z"/>
	<path d="M299.8,162.9c-1.3-1.1-3.2-2.8-5.4-5.3c1.8,2.3,3.6,4.7,5.4,7L299.8,162.9z"/>
	<path d="M128.4,62c8.7-3,17.6-5.3,26.6-7.3c-0.1-1.3-0.2-2.5-0.3-3.6c-3.8,0.8-7.6,1.7-11.4,2.5c-5.2,1.1-10.3,2.5-15.4,4.1l0,0.2
		C128.1,59.3,128.2,60.7,128.4,62z"/>
	<path d="M257.2,92.3c6.2,6.2,12.5,12.4,18.7,18.6c-0.3-2.1-0.5-4.2-0.6-6.4c-9.1-9.4-18.1-18.8-27.3-28.1c-0.7-0.7-1.5-1.4-2.2-2.1
		c-0.6,1.9-1.3,3.8-2,5.7c1.5,1,3.1,2.1,4.4,3.3C251.3,86.3,254.3,89.3,257.2,92.3z"/>
	<path d="M128.9,66.4c0.2,1.8,0.3,3.5,0.5,5.2c9.1-2.6,18.3-4.7,27.7-5.3c-0.5-2.1-0.9-4.1-1.2-6c-3.2,0.2-6.3,0.6-9.4,1.3
		C140.5,62.9,134.7,64.7,128.9,66.4z"/>
	<path d="M255.2,132.8c1.5,2.1,3.1,4.1,4.5,6.2c13.1,18.7,24.6,38.3,30.1,61.3c0.7,3,1.7,5.8,2.6,8.7c2.8,8.9,5.4,17.8,7.3,27
		l0-18.5c-1-3.8-2-7.6-3.1-11.4c-0.9-3.1-1.5-6.4-2.1-9.6c-0.1-0.7,0-1.5,0.4-2.6c0.5,0.6,1.1,1.1,1.5,1.8c0.9,1.7,1.9,3.5,2.6,5.3
		c0.2,0.6,0.4,1.1,0.7,1.7l0-9.9c-1.4-3.1-2.8-6.2-4.1-9.3c-0.3-0.6-0.6-1.4-0.5-2.1c0-0.7,0.3-1.9,0.7-2c0.6-0.2,1.5,0.1,2.1,0.6
		c0.6,0.4,1,1.2,1.3,1.9c0.2,0.3,0.3,0.5,0.5,0.8l0-9c-5.4-7.8-11-15.4-16.4-23.1c-2-2.9-3.7-6-5.4-9.1c-0.4-0.7,0.1-2,0.2-3
		c0.8,0.4,1.9,0.5,2.5,1.2c3.1,3.9,6.1,7.9,9.1,11.8c0.1,0.1,0.2,0.2,0.3,0.3c-2-2.9-4-6.4-5.9-10.5c-1.3-2.8-2.4-5.6-3.4-8.7
		c-0.3-0.4-0.5-0.8-0.8-1.2c0.1-0.1,0.2-0.2,0.3-0.4c-1.1-3.4-2-7-2.7-10.7c-1.3-1.2-2.5-2.3-3.8-3.5c-5.7-5.2-11.4-10.6-17-15.9
		c-5.2-4.9-10.4-9.8-15.5-14.7c-0.1,0.3-0.3,0.5-0.4,0.8c-1.1,2.3-2.4,4.5-3.7,6.5c3.6,2.8,7.2,5.7,10.9,8.4
		c6,4.6,11.6,9.7,17.3,14.7c1.7,1.5,2.9,3.6,4.1,5.6c0.4,0.7,0.6,2.3,0.2,2.9c-0.4,0.5-1.8,0.6-2.6,0.3c-5.1-1.6-9.4-4.6-12.9-8.9
		c-2.2-2.7-4.1-5.8-6.4-8.4c-2.9-3.4-5.8-7-9.3-9.5c-1-0.8-2.1-1.5-3.1-2.3c-0.8,1.2-1.7,2.3-2.6,3.3c1.7,1.3,3.3,2.9,4.9,4.4
		c0.7,0.6,1,1.6,1.5,2.4c-0.1,0.2-0.2,0.4-0.3,0.5c-0.7-0.2-1.5-0.2-2.2-0.6c-1.6-0.9-3.1-1.9-4.6-3c-0.5-0.4-1.1-0.8-1.7-1.2
		c-0.9,1-1.9,1.9-2.9,2.7C237.9,112.4,247.3,121.4,255.2,132.8z M261.8,129.3c3.6,1.9,7.1,3.9,9.4,7.8c7.1,11.8,14.3,23.4,21.5,35.1
		c1.4,2.2,1.5,4.7,0.1,6.8c-0.6,0.9-2,1.4-3.2,1.5c-0.6,0.1-1.5-1-1.9-1.8c-2.2-4.7-4.2-9.6-6.3-14.4c-4.3-9.9-9.4-19.3-16.5-27.2
		c-1.4-1.6-2.6-3.5-3.9-5.3c-0.5-0.7-0.8-1.6-1.3-2.9C260.7,129.1,261.3,129,261.8,129.3z"/>
	<path d="M171.7,111.7c6.7,1.3,13.5,2.7,20,5.1c15.9,5.7,28.8,16.6,40.7,29c7.4,7.7,13.1,16.6,16.9,27.1c2.7,7.5,6.3,14.5,9.6,21.7
		c0.6,1.3,1.6,2.3,2.4,3.5c0.2-0.1,0.5-0.3,0.7-0.4c-0.3-1.5-0.4-3.1-0.9-4.5c-2.6-7.5-5-15.2-8.2-22.4c-9-20.6-22-37.4-40.1-49.4
		c-4.8-3.2-9.7-5.7-14.7-7.8c-5.1-0.5-10-2-14.4-4.5c-11.4-2.6-23.2-3.3-35.2-3.3c-4.8,0-9.6,1-14.3,1.7c-1.7,0.3-3.3,0.8-4.9,1.4
		c-0.2,2.2-0.5,4.3-0.8,6.4c3.1-1.4,6.1-2.7,9.2-4.1c0.9-0.4,2-0.4,3-0.6c0.1,0.2,0.2,0.5,0.2,0.7c-1.3,0.9-2.5,1.8-3.8,2.6
		c-3.1,1.8-6.2,3.7-9.3,5.5c-0.4,2.1-0.8,4.1-1.3,6.1c8.1-4.6,16.5-8.3,25.4-11C158.3,112.6,164.9,110.4,171.7,111.7z"/>
	<path d="M109.8,280.6c5.3-7.7,10.6-15.3,15.8-23c1.2-1.7,2.1-3.7,3.1-5.6c0.7-1.5-0.1-4.7-1.5-5.3c-2-0.8-2.3,1.3-3.2,2.5
		c-0.2,0.3-0.3,0.6-0.4,0.9c-2.8,5.1-5.4,10.3-8.4,15.3c-3.3,5.6-6.9,11-10.3,16.6c-0.3,0.4-0.5,0.9-0.7,1.4l0,2.5
		C106.5,284.6,108.3,282.8,109.8,280.6z"/>
	<path d="M119.5,313.5c-0.2-0.3-0.4-0.5-0.6-0.8c-0.9,0.4-1.8,0.8-2.6,1.3c-4.3,3-8.3,6.4-12,10.2l0,6.3c4.5-4.7,9-9.4,13.5-14.1
		C118.6,315.6,119,314.5,119.5,313.5z"/>
	<path d="M203.2,130.8c-0.1,0.3-0.2,0.5-0.3,0.8c0.5,0.8,0.8,1.8,1.4,2.3c3.9,3.1,7.8,6.2,11.8,9.1c0.7,0.5,1.7,0.7,2.5,0.6
		c0.6-0.1,1.4-0.7,1.6-1.2c0.2-0.4-0.1-1.5-0.5-1.9c-4-4-8.2-7.6-13.5-9.3C205.3,131,204.2,131,203.2,130.8z"/>
	<path d="M582.7,197.3c1.1-5.9,3.3-11.4,3.3-17.7c0-12.2,3.4-23.1,11-32.3c1.6-1.9,2.7-4.3,4.2-6.2c2.5-3.1,5.1-6,7.8-8.8
		c1.7-1.8,3.8-3.1,5.5-4.9c1.9-1.9,3.9-3.9,5.8-5.9c-0.2-1.1-0.5-2.3-0.7-3.4c-0.7,0.7-1.5,1.3-2.2,2c-0.8,0.7-1.8,1.4-2.8,1.7
		c-1.7,0.4-2.6-0.8-1.6-2.4c1.1-1.8,2.4-3.5,3.9-4.8c0.6-0.6,1.3-1.1,1.9-1.6c-0.2-1.5-0.4-3.1-0.6-4.6c-1.3,0.7-2.6,1.5-3.8,2.4
		c-9.1,7.1-17.9,14.5-26.7,22c-5.4,4.6-10.1,10.1-12.3,17.3c-1.3,4.2-2.3,8.5-2.8,12.9c-1.4,11.1-1.4,22.2,2.2,32.9
		c1.9,5.7,0.5,10.6-2.7,15.1c-2.2,3-5,2.6-7-0.5c-0.5-0.9-1.1-1.7-1.6-2.6c-4.4-7.4-8.7-14.7-13.1-22.1c-0.8-1.4-2-2.6-2.9-3.9
		c-1.1-1.5-2.2-3.1-3-4.7c-1-1.9-0.3-3.1,1.6-2.8c1.4,0.2,2.9,1.1,4.1,2.1c4.1,3.9,6.5,9.1,9,14.2c1.4,2.9,2.9,5.8,4.6,8.5
		c1,1.7,2.4,3.5,4.5,2.7c2.2-0.9,1.8-3.3,1.5-5.3c-0.6-3.4-1.5-6.7-2-10.1c-0.8-6-1.6-11.9-2-17.9c-0.7-11.2,3.4-20.6,9.9-28.9
		c7.5-9.7,16.9-17,26.1-24.6c5.4-4.4,10.6-8.9,15.9-13.5c-0.1-1.7-0.2-3.3-0.2-5c-10.2,8.2-20.9,15.6-31.1,23.7
		c-0.1,0.1-0.2,0.2-0.4,0.3c-0.8,0-1.7,0.4-2.3,0c-0.5-0.4-1-1.7-0.8-2.2c0.6-1.4,1.5-3,2.6-3.9c4.1-3,8.4-5.7,12.6-8.6
		c2.7-1.9,5.3-4.1,8.1-5.8c3.9-2.3,7.6-5,11.1-7.9c0-2.4,0-4.8,0.1-7.3c-9.6,7.1-19.1,14.4-28.9,21.1c-13,8.8-26.4,17-41.5,20.9
		c-10.2,2.6-20,6.5-29.4,11.5c-2.8,1.5-5.3,3.4-7.9,5.3c-0.6,0.5-0.9,1.6-1.3,2.4c0.8,0.3,1.8,1,2.5,0.8c3.5-0.9,7-1.9,10.4-3.2
		c4.7-1.8,9.2-4.2,13.9-5.8c3.1-1,6.4-1.3,9.6-1.6c1.1-0.1,2.5,0.6,3.4,1.4c1.5,1.3,1.3,2.6-0.5,3.6c-1.8,0.9-3.7,1.7-5.6,2.4
		c-8.1,2.7-16.1,5.3-24.2,7.9c-3.7,1.1-7.4,1.6-11-0.6c-0.7-0.5-2.1-0.3-2.9,0.1c-1.3,0.7-2.5,1.7-3.5,2.8
		c-3.7,3.9-5.2,9.1-6.3,14.4c-2,9.9-1.6,19.8-0.5,29.8c2.7,23.5,11.5,44.1,25.5,62.1c1.6,2.1,3.8,3.8,5.9,5.3
		c0.9,0.7,2.4,0.5,3.6,0.7c-0.4-1.2-0.6-2.6-1.3-3.6c-2.3-3.2-5-6.1-7.2-9.5c-3.5-5.6-6.8-11.3-10-17.1
		c-10.4-18.2-13.7-38.1-11.4-59.3c0.4-3.9,1.2-7.8,2-11.6c0.2-0.9,0.8-1.7,1.2-2.5c0.3,0.1,0.5,0.1,0.8,0.2c0.1,1.8,0.4,3.6,0.3,5.4
		c-0.3,4.9-0.9,9.8-1.2,14.6c-0.5,8.8-1.3,17.9,2,26.2c4.3,10.8,9.4,21.3,14.2,31.9c0.1,0.3,0.3,0.6,0.5,0.8
		c5.5,6.4,10.8,13.1,16.6,19.1c5.4,5.6,11.6,10.2,18.5,13.5c3.4,1.6,4,2.9,2.9,6.7c-0.2,0.7-0.4,1.4-0.7,2c-1,2-0.6,3.9,0.6,5.6
		c2.9,4,6.5,6.7,11.4,6.9c2.4,0.1,4.7,0.1,7.1,0c1,0,2-0.4,3-0.6c-0.1-2.8-1.6-3.8-3.5-4.3c-2.1-0.5-4.2-0.7-6.3-1.1
		c-3.7-0.8-5-2.6-4.3-5.8c0.5-2.1,2.2-2.2,5.8-1c2.4,0.8,4.9,1.2,7.4,1.4c2.6,0.1,5.2-0.1,7.7-0.5c2-0.3,2.4,0.6,2,2.4
		c-0.5,2.3-1.2,4.5-1.6,6.8c-0.6,3.4,0.5,5,3.6,4.6c4.4-0.6,8.9-1.3,13.2-2.8c15.9-5.6,28.9-15.8,41.1-27.3l0-9.7
		c-7.3,9.1-14.7,18.1-25.1,23.2c-6.5,3.2-13.2,6-19.9,8.8c-1.3,0.6-2.9,0.8-4.3,0.7c-0.8-0.1-1.6-1.1-2-1.5c0.3-3.2,1.5-4.8,3.5-5.7
		c3.8-1.6,7.5-3.4,11.4-4.8c8.6-3.2,15.9-8.4,22.4-15.2c2.7-2.8,5.3-5.6,8.1-8.3c1.3-1.3,2.8-2.4,4.2-3.5c0.6-0.5,1.2-0.8,1.9-0.6
		l0-14.5c-1,1.9-2.1,3.7-3.4,5.4c-4.2,5.6-9,10.6-13.7,15.7c-1.1,1.2-2.8,2-4.4,2.6c-1.4,0.6-2.1-0.3-1.5-1.8
		c0.5-1.2,1.2-2.4,1.9-3.5c2.8-4.5,5.8-8.9,8.5-13.4c4.9-8.2,9.4-16.6,12.6-25.7l0-18.4c-0.1,0.3-0.2,0.5-0.3,0.8
		c-3.7,10-7,20.2-11.1,29.9c-4.6,10.9-11.3,20.2-20.9,26.6c-5,3.4-10,7-15.2,10c-13.5,7.8-27.2,9-41,0.4c-1.9-1.2-3.8-2.2-5.7-3.3
		c-19.3-11.7-32.8-28.8-39.7-51.7c-4.1-13.7-4.5-27.6,0.4-41.4c1.3-3.8,3.5-6.5,6.7-8.7c7-4.9,14.7-7.7,22.8-9.6
		c4.5-1,8.9-2.4,13.5-2.8c6.6-0.6,11.2-3.8,13.6-10.5c0.4-1,0.2-2.3,0.3-3.4c-1,0.1-2,0.2-2.9,0.4c-1.6,0.4-3.6,1.7-4.5-0.6
		c-0.8-2.2,1.3-3.1,2.8-3.9c4.2-2.4,8.4-4.8,12.5-7.2c1.6-1,3.1-1.6,4.6,0.1c1.3,1.6,1,3.7-0.5,5.6c-2.1,2.7-4,5.5-6,8.3
		c-3.1,4.3-5.9,8.9-9.3,12.9c-3,3.7-7,5.3-11.6,4.3c-1.4-0.3-2.8-0.4-4.2-0.3c-11.2,1.2-21.7,4.8-31,12c-1.9,1.4-3.3,3.9-4.2,6.3
		c-2.5,6.3-0.3,12,2.6,17.6c2.3,4.4,4.5,8.9,6.2,13.5c4.7,12.2,9.4,24.4,18.6,33.6c5.6,5.7,11.6,10.8,18.3,14.8
		c2.3,1.4,4.6,3,6.8,4.6c0.6,0.5,1.1,1.3,1.6,1.9c-0.1,0.2-0.2,0.4-0.3,0.6c-1.1-0.2-2.2-0.3-3.2-0.7c-8.2-3.2-16.2-7-22.5-13.7
		c-12.2-13.1-22.4-27.6-25.6-46.6c-0.3-1.6-1.1-3.1-1.7-4.6c-0.3,0.1-0.5,0.1-0.8,0.2c-1.2,2-1.4,4.4-1,6.6
		c0.8,4.8,1.5,9.8,3.2,14.2c9.2,23.6,24.2,41,46.7,49.9c6.3,2.5,12.5,3,19,0.3c12.3-4.9,24.3-10,35-18.5c5.4-4.3,9.5-9.7,12.1-16.3
		c2.2-5.5,4.1-11,5.7-16.7c3.2-11.7,6.4-23.5,10.2-35l0-14c-0.3-0.2-0.6-0.4-1-0.7c-5.3,14.9-9.8,30.2-12.2,46
		c-1.1,7.2-4.5,12.8-8.3,18.3c-0.4,0.5-1.3,1.1-1.8,0.9c-0.7-0.2-1.6-1-1.9-1.7c-0.3-0.8,0-1.9,0.4-2.7c2.4-5.8,5.3-11.4,7.1-17.4
		c4.2-14.1,7.9-28.3,11.6-42.5c0.3-1.1-0.4-2.4-0.7-3.7c-1,0.6-2.1,1.2-3,2c-0.6,0.5-0.8,1.5-1.1,2.3c-0.8,2.6-1.7,5.2-2.2,7.8
		c-3.1,15.3-8.3,29.7-15.1,43.4c-2,4.2-4.9,8.1-6.1,12.6c-1.2,4.4-4.1,6.2-6.9,8.4c-2.7,2.2-5.6,4.2-8.5,6.2
		c-5.4,3.9-11.4,6.1-17.6,7.6c-1,0.2-2,0.2-3,0.3c0-0.2-0.1-0.4-0.1-0.7c0.7-0.3,1.5-0.6,2.2-0.8c6.1-1.7,11.3-5,16-9.6
		c6.8-6.6,12.5-14.1,16.7-22.9c1.4-3,3-5.9,4.7-8.7c5.6-9.4,8.9-19.8,11.2-30.5c0.2-0.8-0.3-2.2-0.8-2.6c-0.6-0.4-2.1-0.1-2.5,0.5
		c-1.3,1.6-2.5,3.4-3.3,5.4c-2.4,5.5-4.9,11-6.8,16.8c-3.2,9.7-8,18.3-13.1,26.7c-5.9,9.6-13.9,16.2-23.6,20.3
		c-2,0.9-4.3,1.4-6.5,1.2c-3-0.2-6.1-0.8-8.8-2.1c-8.2-4-15-10-20.6-17.6c-1.2-1.7-2.6-3.5-2-6.2c1.7,1,3.1,2.3,4.5,3.6
		c3.9,3.6,7.5,7.5,11.6,10.9c8.2,6.7,16.9,7.6,25.9,1.8c13.4-8.7,22.2-21.5,27.2-37.4c2.9-9.3,5.2-18.8,7.8-28.2
		c3-10.6,7.4-20.1,14.5-27.8c-0.2-0.5-0.5-1-0.7-1.5c-0.4-0.8-0.7-1.6-1.1-2.4c-3.4,3.6-6.9,7.3-10.3,10.9c-1.1,1.2-2,2.8-2.7,4.3
		c-5.1,11.1-8.4,22.9-11.3,34.7c-3.5,14.3-8.7,27.5-17.5,38.9c-4.7,6-10.8,8.3-17.7,8.2c-3.9,0-7.6-1.4-10.5-4.4
		c-5.9-6.2-11.8-12.4-17.9-18.4c-7.3-7.2-13.3-15.6-18.9-24.3c-3-4.7-3.9-10.1-1.8-15.6c0.3-0.9,1.6-1.3,2.4-1.9
		c0.3,1,0.9,2,0.8,2.9c-0.5,3.6,0.1,6.9,1.9,9.9c1.8,2.9,3.6,5.9,5.8,8.5c7.9,9.5,15.9,18.8,24,28.1c3.2,3.7,7.2,6.1,11.6,7.8
		c6.9,2.5,13.4,0.2,18.1-5.9c6.7-8.8,10.4-19,13-29.8c2.4-10.3,5.1-20.5,7.8-30.7c2.1-7.7,6-14.1,11.4-19.5c3.2-3.2,6.3-6.6,9.4-9.9
		c-0.5-1.4-0.9-2.9-1.4-4.4c-0.1,0.1-0.2,0.2-0.3,0.3c-3.6,3.4-7.3,6.6-10.6,10.3c-6.9,7.6-13.3,15.7-15.8,26.3
		c-1.9,7.7-3.2,15.5-5,23.2c-1.2,5.3-2.7,10.5-4.2,15.7c-0.5,1.6-1.4,2.8-3.1,2c-1.8-0.8-1.8-2.3-1.3-4
		C581.9,200.6,582.4,199,582.7,197.3z M564.7,274.3c0.5-0.2,1.2-0.1,2-0.2c1.2,0.2,2.7,0.4,4.2,0.6c11.9,2,22.8-0.7,33-7.7
		c1.4-1,2.9-2,4.5-2.6c2.5-1.1,3.6-0.1,3.1,2.8c-0.2,1.1-1,2.2-1.7,3.2c-0.5,0.7-1.3,1-1.9,1.6c-5,4.9-10.8,7-17.5,7.5
		c-7.5,0.5-15,1.1-22.5-0.4c-1.2-0.3-2.5-0.6-3.6-1.2c-0.7-0.4-1-1.4-1.5-2.1C563.4,275.3,564,274.6,564.7,274.3z M578.8,253
		c3.6-1.2,7.3-2.2,10.8-3.6c9.5-3.8,17.7-9.5,23.9-18.4c0.3-0.4,0.6-0.7,1-1.2c3.9,2.2,3.9,2.3,1.1,5.8
		c-9.5,11.5-21.4,17.7-35.2,20.1c-1.6,0.3-3.3,0-4.9,0c-0.1-0.3-0.1-0.7-0.2-1C576.4,254.1,577.6,253.4,578.8,253z M580,217.4
		c-3,5.8-10.1,10.1-17.3,5.2c-4.4-3-7.9-7-11.2-11.2c-7.1-9.1-14.2-18.3-21.3-27.4c-4.8-6.1-3.7-14.5,2.7-19.3
		c5.8-4.3,12.2-5.9,19.2-4.6c3.6,0.7,5.6,3.7,6.7,7c1.4,4.1,2.1,8.5,3,12.8c0.2,0.9-0.1,2-0.2,3c-0.3,0.1-0.5,0.1-0.8,0.2
		c-0.4-0.7-0.9-1.4-1.3-2.1c-0.8-1.8-1.7-3.6-2.4-5.4c-1.5-4.3-4.5-6.9-8.2-8.7c-4.8-2.3-9.3-1.2-12.3,3.1c-2.7,3.9-2.4,8.8,0.9,13
		c8,10.3,16.1,20.5,24.2,30.8c2,2.6,4.3,4.7,7.5,5.1c1.9,0.2,3.5-0.3,4.7-1.9c0.8-1,1.7-2.2,2.7-2.7c0.9-0.4,2.3-0.2,3.2,0.3
		C580.5,214.7,580.4,216.6,580,217.4z M580.7,183.3c-0.2,2.4-0.2,5-2.7,7.4c-0.4-1.6-0.8-2.7-0.8-3.7c-0.3-6.3-0.9-12.7-0.8-19
		c0.2-8.2,2.8-15.6,7.6-21.9c5.3-7,11.5-13.2,18.4-18.4c1.9-1.4,3.6-2.9,6.8-3.2c-0.7,1.6-1,2.9-1.7,3.7c-3,3.5-6,6.9-9.1,10.2
		c-4,4.2-8.2,7.9-11.5,12.9c-3.4,5.1-5,10.4-5.2,16.5C581.4,173.1,581.1,178.2,580.7,183.3z"/>
	<path d="M474.6,122.9c10.6-8,21.6-15.5,32.4-23.2c1.3-0.9,2.8-1.4,4.3-1.9c0.8-0.3,1.8,0,2.7,0c-7.2,7.1-15,13-21.3,20.9
		c1.7-0.2,3.2-0.6,4.4-1.5c5.9-4.2,11.8-8.3,17.5-12.8c10.1-8,20.6-15,31.9-20.8c6.2-3.2,12.4-6.5,18.6-9.8
		c9.6-5.2,19.2-10.3,28.7-15.8c3.4-2,6.4-4.7,9.5-7.3l-5.5-1.7c-1.4,0.6-2.8,1.3-4.2,2.1c-15.1,8.6-30.2,17.4-45.3,26.1
		c-0.7,0.4-1.3,0.7-2,0.9c-1.5,0.4-2.4-0.6-2.4-2.2c0-1.9,1.3-2.4,2.6-2.9c2.3-0.9,4.5-1.8,6.7-2.8c-2.5,0.5-5,0.7-7.7,0.7
		c-1.3,0-2.6-0.1-4-0.2c-5.4,2.5-10.8,5-16.2,7.4c-1.5,0.7-2.5,0-3-1.5c-0.4-1.4-0.5-2.7,1.3-3.5c2.9-1.4,5.8-2.9,8.6-4.4
		c-3.1-1-6.3-2.3-9.5-4.1c-4.1,0.9-8.2,1.6-12.3,2.4c-1,0.2-2.1-0.2-3.1-0.4c-0.1-0.3-0.2-0.6-0.2-1c1.4-0.8,2.8-1.8,4.3-2.4
		c1.9-0.7,3.7-1.4,5.6-2.1c-1.7-1.2-3.5-2.4-5.2-3.8c-13.5,5.3-26.8,11.3-39.5,18.7c0.2,3,0.3,5.8,0.4,8.7c0.2-0.1,0.4-0.3,0.6-0.4
		c9.8-6.2,20.2-10.7,31.4-12.7c1.6-0.3,3.3,0.2,4.9,0.6c0.6,0.2,1.2,1.2,1.4,1.9c0.1,0.4-0.9,1.2-1.5,1.5
		c-9.3,4.7-18.7,9.3-28.1,13.9c-1.5,0.8-3.2,1.5-4.5,2.6c-1.4,1.1-2.7,2.2-4.1,3.2c0,2-0.1,4-0.2,5.9c10.3-7.4,21.5-13.4,32.7-19.3
		c3.7-1.9,7.5-3.8,11.3-5.7c1,1.7,1.7,3.1,2.6,4.6c-1.2,0.6-2.3,1.1-3.5,1.6c-10.6,5.2-21.3,10.1-31.7,15.6
		c-4.2,2.2-8.1,4.8-11.7,7.7c-0.2,2.5-0.5,4.9-0.8,7.2c3.1-2.5,6.4-4.8,9.8-6.7c12.4-7.1,24.5-14.9,38.2-18.8
		c0.6-0.2,1.1-0.6,1.6-0.9c5.4-3,10.9-5.9,16.2-9c1.9-1.1,2.8,0.2,3.5,1.6c1,1.8-0.7,2-1.5,2.4c-9.1,4.1-18.1,8.4-27.2,12.3
		c-15.3,6.6-29.1,16-41.9,27c-0.6,2.9-1.3,5.8-2.1,8.5C469.7,127.2,472,124.9,474.6,122.9z"/>
	<path d="M471.8,71.4c11.6-6.5,23.4-12.4,35.4-17.7c-1.2-1-3.2-2.7-5-3.9c-4.6,2.2-9.1,4.7-13.4,7.4c-5.7,3.7-11.6,7.1-17.2,10.9
		C471.6,69.2,471.7,70.3,471.8,71.4z"/>
	<path d="M470.7,60.4c5.2-3.2,10.6-6.1,16.2-8.6c0.1,0,0.2-0.1,0.3-0.1l-16.8,5.1l0.1,0.9C470.5,58.6,470.6,59.5,470.7,60.4z"/>
	<path d="M595.8,312.6c-15.9,0.7-30.8-3.3-45.2-10.3c-14.4-7-27.6-16-38.2-28.8c-18-21.7-27.9-47.7-34.1-75.7
		c-0.8-3.4-0.7-7.1-1-10.7c2.8-0.3,4,0.8,4.7,3.6c1,4.2,1.9,8.4,3,12.6c0.4,1.5,1.1,2.9,1.7,4.4c0.3-0.1,0.6-0.1,0.9-0.2
		c0.2-1.1,0.5-2.3,0.4-3.4c-0.3-5.2-0.5-10.5-1.1-15.6c-1.3-10.1,0.2-19.4,4.6-28.4c5.1-10.4,12.4-18.1,21.9-23.5
		c12.4-7.1,25.6-12.3,38.8-17.2c13.1-4.9,25.5-11.2,37.1-19.3c7.5-5.2,14.8-10.6,22.4-15.7c1.9-1.3,3.9-2.5,6-3.6
		c0.1-1.9,0.2-3.8,0.3-5.7c-10.8,6.6-21.5,13.2-31.6,21.1c-6,4.7-12.5,8.7-19.6,11.3c-1,0.4-2.1,0.5-3.2,0.7
		c-0.1-0.3-0.2-0.6-0.3-0.9c2.2-1.7,4.3-3.5,6.6-5.1c12.4-8.4,24.7-17.1,37.5-25c3.7-2.3,7.4-4.8,10.9-7.3c0.2-2.4,0.5-4.9,0.7-7.4
		c-0.9,0.6-1.8,1.3-2.7,1.9c-3.8,2.6-7.5,5.5-11.4,8c-6,3.9-12.1,7.7-17.8,11.3c-1.9-0.1-3.6-0.6-4.9-0.1
		c-5.8,2.2-11.5,4.6-17.1,7.1c-8.9,4.1-17.7,8.4-26.6,12.5c-1.3,0.6-2.9,0.7-4.4,1c-0.1-0.3-0.2-0.6-0.4-0.9
		c1.5-1.1,2.8-2.4,4.4-3.2c6.9-3.6,13.9-7.1,20.9-10.5c10.4-5.1,20.9-9.8,31.2-15.2c6.9-3.6,13.4-7.8,20.1-11.9c3.2-2,6.4-4,9.5-6.3
		l0.1-0.3l-5.5-1.7c-10,7.4-21,13.1-32.3,18c-7.9,3.4-15.7,7.1-23.6,10.6c-12.9,5.8-25,13.2-36.1,22.5c-7.6,6.3-15.4,12.2-23.1,18.4
		c-2.1,1.7-3.8,2.2-5.8,0.3c-2.5-2.4-5.1-2-7.8-0.3c-0.9,0.6-1.8,1.1-2.6,1.8c-12,9.7-18.5,22.6-19.2,39c-0.2,4.4-0.3,8.8-0.5,13.3
		c0,1.1-0.2,2.1-0.4,3.2c-0.2,0-0.4,0.1-0.6,0.1c-0.4-1-0.9-2.1-1.2-3.1c-2.1-7.9-2.6-16-2-24.2c0.1-2,0.4-3.9,0.7-5.8
		c-1.9,3.2-3.8,5.9-5.6,8.1c0,9.5,1,19,3.3,28.2c3.6,14.5,8,28.8,12.1,43.2c3.1,10.8,7.8,20.7,13.8,29.8c6.3,9.4,13,18.5,19.5,27.8
		c5.8,8.3,13.1,14.6,21.3,19.8c12.9,8.1,26.4,14.8,40.5,20.1c6.7,2.5,13.6,3.9,20.7,3.8c12.6-0.1,25.1-0.4,37.7-0.9
		c7.1-0.3,13.8-1.7,20-4.7l0-6.9c-8,4-16.6,6.2-25.6,6.4c-9.2,0.2-18.4,0-27.5-0.3c-4.6-0.2-9.3-0.6-13.9-1.6
		c-17.7-3.8-34-11.6-49.5-21.4c-11.3-7.2-20.8-16.8-28.3-28.4c-4.6-7.2-8.7-14.7-13.2-22c-6.6-10.6-11-22.2-14.4-34.3
		c-2.9-10.5-5-21.1-2.5-32.1c0.4-1.6,0.5-3.3,0.6-5c0.5-7.2,0.8-14.5,1.3-21.7c0.7-8.6,4-15.9,9.6-22c2-2.1,4.3-3.4,7.1-3.3
		c1.8,0.1,3,1.2,2.5,3.1c-0.5,2.1-1.2,4.5-2.5,6c-3.7,4.2-6.2,9-8,14.4c-1.8,5.4-3.5,10.9-5.4,16.4c-2.7,7.9-3.1,16.1-1.6,24.2
		c2.5,13.4,6.9,26.3,11.5,39c2.8,7.7,5.7,15.4,10.2,22.2c12.5,19.1,27.8,34.9,46.5,46.5c9.9,6.1,20.2,11.6,31.8,12.9
		c2.9,0.3,5.9,0.7,8.8,0.9c8.4,0.7,16.8,1.8,25.2,1.7c13.3-0.1,25.7-4.1,37.3-10.5l0-5.5c-8.9,4.9-18.3,8.4-28.3,10.1
		C608.7,312.9,602.2,312.3,595.8,312.6z M478.3,177.9c2.9-10.9,6.5-21.5,12-31.3c3.2-5.8,7.4-10.7,12.5-14.5
		c15.4-11.3,32-20.1,48.7-28.8c6.3-3.3,12.4-6.8,18.6-10.2c1.3-0.7,2.7-1.2,4.1-1.9c0.2,0.3,0.4,0.6,0.6,1c-1.4,1.4-2.7,3-4.3,4.1
		c-5.7,3.9-11.3,8-17.2,11.4c-7.9,4.6-16,8.6-24,13.1c-6.4,3.6-12.8,7.1-18.9,11.1c-16.5,10.7-24.9,27.4-28.2,47.4
		c-0.1,0.6-0.1,1.1-0.2,1.7c0,0.1-0.2,0.3-0.3,0.5c-0.5-0.3-1.1-0.7-1.6-1c-0.6-0.3-1.2-0.5-2-0.8
		C478.1,179.1,478.2,178.5,478.3,177.9z"/>
	<path d="M627.1,341.2c-14.6,4.5-29.3,8-44.8,6.6c-16.7-1.5-32.7-5.7-47.7-13.7c-11.1-5.9-20.8-14.1-30.8-21.8
		c-6-4.6-11.6-9.7-17.3-14.7c-1.7-1.5-2.9-3.6-4.1-5.6c-0.4-0.7-0.6-2.3-0.2-2.9c0.4-0.5,1.8-0.6,2.6-0.3c5.1,1.6,9.4,4.6,12.9,8.9
		c2.2,2.7,4.1,5.8,6.4,8.4c2.9,3.4,5.8,7,9.3,9.5c28.3,20.9,59.7,28.4,93.5,25.6c6.4-0.5,12.8-1.3,18.9-3.9c2.2-1,4.4-2.3,6.4-3.7
		c0.8-0.6,1.3-1.7,2.3-3.1c-1.6-0.1-2.4-0.3-3.2-0.2c-3,0.4-6.1,0.6-9,1.4c-18.2,5.3-36.5,5.3-55,2.6c-17.2-2.5-32.6-9.6-47.2-19.2
		c-2.1-1.3-3.9-3.2-5.7-5c-0.7-0.6-1-1.6-1.5-2.4c0.1-0.2,0.2-0.4,0.3-0.5c0.7,0.2,1.5,0.2,2.2,0.6c1.6,0.9,3.1,1.9,4.6,3
		c11.8,9.2,25.3,14.6,38.9,19.8c1.6,0.6,3.5,0.3,5.2,0.4c0.1-0.4,0.2-0.8,0.3-1.3c-1.8-1-3.4-2.2-5.3-3c-5.7-2.5-11.5-4.7-17.1-7.4
		c-17.9-8.5-33.5-20.5-45.3-37.7c-1.5-2.1-3.1-4.1-4.5-6.2c-13.1-18.7-24.6-38.3-30.1-61.3c-0.7-3-1.7-5.8-2.6-8.7
		c-3.9-12.3-7.4-24.8-9.2-37.7c-0.3-2.1-0.5-4.2-0.6-6.2c-0.7,0.6-1.3,1.1-1.8,1.5l0,14c1.9,10.6,4.3,21,7.4,31.3
		c0.9,3.1,1.5,6.4,2.1,9.6c0.1,0.7,0,1.5-0.4,2.6c-0.5-0.6-1.1-1.1-1.5-1.8c-0.9-1.7-1.9-3.5-2.6-5.3c-1.8-4.5-3.4-9-4.9-13.5
		l0,13.3c3.1,5.8,5.8,11.7,8.4,17.8c0.3,0.6,0.6,1.4,0.5,2.1c0,0.7-0.3,1.9-0.7,2c-0.6,0.2-1.5-0.1-2.1-0.6c-0.6-0.4-1-1.2-1.3-1.9
		c-1.6-2.7-3.1-5.4-4.7-8.1l0,10.1c6.6,10,13.8,19.5,20.6,29.3c2,2.9,3.7,6,5.4,9.1c0.4,0.7-0.1,2-0.2,3c-0.8-0.4-1.9-0.5-2.5-1.2
		c-3.1-3.9-6.1-7.9-9.1-11.8c-4.8-6.2-9.5-12.4-14.3-18.6l0,8.8c2.8,3.7,5.5,7.5,8.3,11.2c4.3,5.6,9.3,10.6,13.9,16
		c0.7,0.8,1.2,1.8,1.8,2.7c-0.2,0.3-0.4,0.6-0.6,0.8c-1.8-1-3.7-1.7-5.3-2.9c-3.8-2.8-7.4-6-11.1-8.8c-1.2-0.9-2.7-1.3-4-1.9
		c-0.2,0.3-0.4,0.7-0.7,1c1.3,1.5,2.5,3.2,4,4.5c8,7.3,16,14.5,24,21.8c5.7,5.2,11.4,10.6,17,15.9c5.5,5.2,11.1,10.4,16.6,15.7
		c1.5,1.4,1.4,2.9,0.2,4.6c-1.2,1.8-2.4,1.6-3.8,0.7c-1.6-1.1-3.2-2.1-4.6-3.4c-3.1-2.9-6.1-5.9-9.1-8.9
		c-11.8-11.8-23.7-23.6-35.4-35.5c-3.8-3.9-7.6-7.8-11.3-11.7l0,36.8c0.5,0.5,0.9,1,1.4,1.5c1.6,1.8,2.8,4.1,3.9,6.4
		c0.3,0.6-0.2,1.7-0.4,2.6c-0.6-0.3-1.4-0.5-1.9-1c-1-1.1-2-2.1-3-3.2l0,8.3c5.4,5.9,11.1,11.5,17.2,16.6c6,5,12.1,9.9,18,14.9
		c0.8,0.7,1.3,1.6,2,2.4c-0.2,0.2-0.3,0.4-0.5,0.7c-0.8-0.3-1.7-0.4-2.4-0.8c-1.6-0.9-3.2-2-4.8-3.1c-4.5-3.3-8.8-6.8-13.3-10.1
		c-3.4-2.5-7.1-4-11.2-5c1,1.6,2,3,3.3,4c4.9,3.7,9.8,7.6,15,10.8c7.4,4.5,14.7,9,22.2,13.4c6.2,1.7,12.7,3.3,19.5,4.5
		c-2.9-2-5.7-4-8.5-6.2c-12.4-9.8-24.6-19.8-36.8-29.8c-2-1.6-3.8-3.6-5.1-5.9c-0.9-1.5-0.9-3.8-0.8-5.7c0-1.4,1.1-1.8,2.3-0.9
		c0.6,0.5,1.1,1,1.7,1.5c13.7,12.2,27.5,24.4,41.3,36.6c5.2,4.6,11.3,7.2,17.4,9.9c2.2,1,4.3,1.9,6.5,2.9c4.4,0.4,8.8,0.6,13.2,0.6
		c0.9,0,1.9,0,2.9,0c-18.7-5.6-35.9-14.4-51.1-27.9c-15.4-13.6-29.9-28.4-44.4-43c-0.7-0.7-1.5-1.5-1.8-2.4
		c-0.3-0.8-0.5-2.2-0.1-2.8c0.4-0.6,1.8-1,2.5-0.7c1.4,0.6,2.8,1.5,3.9,2.6c8.1,8.2,16.4,16.3,24.2,24.8
		c16.6,18.1,35.9,31.6,57.5,41.4c2.2,1,4.5,1.8,6.8,2.3c6,1.3,11.9,2.8,17.7,4.8c9.1-1,18.1-2.7,26.6-4.8c-8.5,0.8-17,0.6-25.6-1.9
		c-1.7-0.5-3.5-0.6-5.3-0.7c-9.9-0.6-19-3.8-27.7-8.7c-6.9-3.9-13.8-7.9-20.4-12.3c-4.8-3.2-9.4-6.8-13.5-10.9
		c-14.1-14-27.9-28.3-41.8-42.6c-1.2-1.2-2.2-2.6-3.1-4.1c-0.5-0.8-0.4-1.9-0.6-2.9c1,0,2.2-0.3,2.9,0.2c2.8,2,5.6,3.9,8,6.4
		c14.1,14.4,28,29.1,42.3,43.4c4.8,4.8,10.1,8.9,15.5,12.8c4,2.9,8.5,4.9,12.8,7.2c0.6,0.3,1.4-0.1,2.2-0.1
		c-0.2-0.8-0.1-1.8-0.6-2.4c-0.6-0.8-1.4-1.4-2.3-1.9c-2.1-1.3-4.4-2.3-6.5-3.7c-2.5-1.8-5-3.7-7.3-5.8c-1.2-1.1-2.5-2.9-1-4.6
		c1.4-1.6,2.5,0.4,3.5,1.2c11.5,9.9,24.3,17,38.3,21.8c10,3.4,20.2,5,30.6,2.6c6.4-1.5,12.9-2.9,19.3-4.3
		c12.1-2.5,23.6-6.7,34.8-11.8l0-5.4c-1.6,0.9-3.2,1.7-4.8,2.5c-14.6,7.2-30.3,11-45.9,14.5c-1.9,0.4-4-0.1-6-0.6
		c-1.2-0.3-2.7-1-2.3-2.9c0.4-1.8,1.6-2.5,3.4-2.6c5.9-0.4,11.9-0.5,17.6-1.7c8.1-1.8,16-4.5,24-6.8c0.8-0.2,1.5-0.6,2.2-1
		c3.9-2.5,7.8-4.9,11.7-7.4l0-7.2c-1.3,0.9-2.5,1.9-3.6,3C635.9,336.8,631.8,339.7,627.1,341.2z M459,242.1
		c-1.4-2.2-1.5-4.7-0.1-6.8c0.6-0.9,2-1.4,3.2-1.5c0.6-0.1,1.5,1,1.9,1.8c2.2,4.7,4.2,9.6,6.3,14.4c4.3,9.9,9.4,19.3,16.5,27.2
		c1.4,1.6,2.6,3.5,3.9,5.3c0.5,0.7,0.8,1.6,1.3,2.9c-1.1-0.2-1.7-0.2-2.1-0.4c-3.6-1.9-7.1-3.9-9.4-7.8
		C473.4,265.5,466.1,253.8,459,242.1z M579.2,356.9c-0.3,1.1-1.7,2.5-2.7,2.5c-4,0-8.1,0.1-11.9-0.8c-11.7-2.8-22.3-8.9-32.9-14.9
		c-1.5-0.8-2.6-2.4-3.8-3.6c0.1-0.3,0.3-0.6,0.4-0.9c1.3,0.3,2.7,0.4,3.9,0.9c5.2,2.1,10.3,4.7,15.6,6.3c8.8,2.7,17.8,4.7,26.7,7
		c0.7,0.2,1.5,0.2,2.2,0.4C578.4,354.1,579.6,355.3,579.2,356.9z"/>
	<path d="M640.9,284.4c0.8-0.5,1.6-1.1,2.4-1.7l0-7.7c-0.3,0.3-0.6,0.7-1,1.1c-2.6,2.7-5.5,5.2-8.5,7.3c-10.6,7.1-21.9,12.7-34,16.3
		c-6.5,2-13.1,4.2-19.9,2.9c-6.7-1.3-13.5-2.7-20-5.1c-15.9-5.7-28.8-16.6-40.7-29c-7.4-7.7-13.1-16.6-16.9-27.1
		c-2.7-7.5-6.3-14.5-9.6-21.7c-0.6-1.3-1.6-2.3-2.4-3.5c-0.2,0.1-0.5,0.3-0.7,0.4c0.3,1.5,0.4,3.1,0.9,4.5c2.6,7.5,5,15.2,8.2,22.4
		c9,20.6,22,37.4,40.1,49.4c19.8,13.1,41.8,15.6,64.3,15.6c4.8,0,9.6-1,14.3-1.7c2.2-0.4,4.4-1.1,6.3-2.1c6.6-3.2,13-6.7,19.6-9.9
		l0-6.4c-4.6,2.5-9.2,5.2-13.9,7.6c-5.1,2.6-10.3,4.8-15.5,7.1c-0.9,0.4-2,0.4-3,0.6c-0.1-0.2-0.2-0.5-0.2-0.7
		c1.3-0.9,2.5-1.8,3.8-2.6C623.3,295,632.3,290,640.9,284.4z"/>
	<path d="M623,162.3c-0.7,1.5,0.1,4.7,1.5,5.3c2,0.8,2.3-1.3,3.2-2.5c0.2-0.3,0.3-0.6,0.4-0.9c1.9-3.5,3.8-7,5.7-10.5
		c-0.9-1.3-1.9-2.7-2.8-4.2c-1.6,2.4-3.3,4.8-4.9,7.2C624.9,158.4,624,160.3,623,162.3z"/>
	<path d="M533,270.6c-0.6,0.1-1.4,0.7-1.6,1.2c-0.2,0.4,0.1,1.5,0.5,1.9c4,4,8.2,7.6,13.5,9.3c1,0.3,2.1,0.3,3.1,0.5
		c0.1-0.3,0.2-0.5,0.3-0.8c-0.5-0.8-0.8-1.8-1.4-2.3c-3.9-3.1-7.8-6.2-11.8-9.1C534.9,270.7,533.8,270.5,533,270.6z"/>
	<path d="M449.4,336.7c-0.5-0.5-1.1-1-1.7-1.5l0,4c0.6,0.5,1.6,0.3,2.4,0.5C449.9,338.7,449.9,337.3,449.4,336.7z"/>
	<path d="M447.7,353.1c0,0,0.1,0,0.2,0v0.1c0.1,0,0.3,0.1,0.6,0.1c0,0,3.4,1.7,9.3,4.3c-3.3-2.7-7.3-5.1-10.1-5.8L447.7,353.1z"/>
</g>
</svg>
