<?xml version="1.0" encoding="utf-8"?>
<!-- Generator: Adobe Illustrator 25.3.0, SVG Export Plug-In . SVG Version: 6.00 Build 0)  -->
<svg version="1.1" id="Layer_1" xmlns="http://www.w3.org/2000/svg" xmlns:xlink="http://www.w3.org/1999/xlink" x="0px" y="0px"
	 viewBox="0 0 750.2 400.1" style="enable-background:new 0 0 750.2 400.1;" xml:space="preserve">
<g>
	<path d="M282.8,138.3c0-0.1-0.1-0.1-0.1-0.2l-51.9-0.1l-108.5,0.1c0,0,0,0,0,0.1l108.5,0.1L282.8,138.3z"/>
	<path d="M279.4,128.5c0-0.1,0-0.1-0.1-0.2l-48.5-0.1l-105.1,0.1c0,0,0,0,0,0.1l105.1,0.1L279.4,128.5z"/>
	<path d="M277.1,118.7c0-0.1,0-0.1,0-0.2l-46.2-0.1L128,118.6c0,0,0,0.1,0,0.1l102.9,0.1L277.1,118.7z"/>
	<path d="M275.7,109c0-0.1,0-0.1,0-0.2l-44.8-0.1l-8.6,0c-0.2,0.1-0.4,0.2-0.6,0.3l9.2,0L275.7,109z"/>
	<path d="M129.4,108.9l54,0.1c-0.1-0.1-0.3-0.1-0.4-0.2L129.4,108.9C129.4,108.8,129.4,108.9,129.4,108.9z"/>
	<path d="M275,98.9l-41.7-0.1c-0.1,0.1-0.2,0.2-0.3,0.3l42-0.1C275,99.1,275,99,275,98.9z"/>
	<path d="M130.1,99.1l42,0.1c-0.1-0.1-0.1-0.1-0.2-0.2L130.1,99.1C130.1,99,130.1,99.1,130.1,99.1z"/>
	<path d="M274.8,89.2l-35.2,0c-0.1,0.1-0.1,0.2-0.2,0.3l35.3,0C274.8,89.3,274.8,89.2,274.8,89.2z"/>
	<path d="M130.2,89.3l35.3,0c0-0.1-0.1-0.1-0.1-0.2L130.2,89.3C130.2,89.3,130.2,89.3,130.2,89.3z"/>
	<path d="M129.9,79.5l31.2,0c0-0.1,0-0.1-0.1-0.2L129.9,79.5C129.9,79.5,129.9,79.5,129.9,79.5z"/>
	<path d="M275.1,79.4l-31.1,0c0,0.1-0.1,0.2-0.1,0.3l31.2,0C275.1,79.5,275.1,79.4,275.1,79.4z"/>
	<path d="M129.2,69.7l28.7,0c0-0.1,0-0.1,0-0.2L129.2,69.7C129.2,69.7,129.2,69.7,129.2,69.7z"/>
	<path d="M275.8,69.6l-28.7,0c0,0.1-0.1,0.2-0.1,0.3l28.7,0C275.8,69.7,275.8,69.7,275.8,69.6z"/>
	<path d="M155.7,60c0,0,0-0.1,0-0.1l-27.6,0c0,0,0,0.1,0,0.1L155.7,60z"/>
	<path d="M276.8,59.8l-27.6,0c0,0.1,0,0.2,0,0.3l27.6,0C276.8,60,276.8,59.9,276.8,59.8z"/>
	<path d="M255.9,50l-5.6,0c0,0.1,0,0.2,0,0.3l6.5,0L255.9,50z"/>
	<path d="M154.6,50.1l-4.9,0l-0.4,0.1l5.3,0C154.6,50.2,154.6,50.1,154.6,50.1z"/>
	<polygon points="230.8,352 104.3,352.2 104.3,352.2 230.8,352.3 299.9,352.3 299.9,352.1 	"/>
	<polygon points="299.9,342.5 299.9,342.3 230.8,342.2 104.3,342.4 104.3,342.4 230.8,342.6 	"/>
	<polygon points="299.8,332.7 299.8,332.5 230.8,332.4 104.3,332.6 104.3,332.6 230.8,332.8 	"/>
	<polygon points="299.8,322.9 299.8,322.7 230.8,322.6 104.3,322.8 104.3,322.8 230.8,323 	"/>
	<polygon points="299.8,313.1 299.8,312.9 230.8,312.9 104.3,313 104.3,313 230.8,313.2 	"/>
	<polygon points="299.8,303.3 299.8,303.2 230.8,303.1 104.3,303.2 104.3,303.3 230.8,303.4 	"/>
	<polygon points="299.8,293.5 299.8,293.4 230.8,293.3 104.3,293.4 104.3,293.5 230.8,293.6 	"/>
	<polygon points="299.7,283.8 299.7,283.6 230.8,283.5 104.3,283.7 104.3,283.7 230.8,283.8 	"/>
	<polygon points="299.7,274 299.7,273.8 230.8,273.7 104.3,273.9 104.3,273.9 230.8,274.1 	"/>
	<polygon points="299.7,264.2 299.7,264 230.8,263.9 104.3,264.1 104.3,264.1 230.8,264.3 	"/>
	<polygon points="299.7,254.4 299.7,254.2 230.8,254.1 104.2,254.3 104.2,254.3 230.8,254.5 	"/>
	<polygon points="299.7,244.6 299.7,244.4 230.8,244.4 104.2,244.5 104.2,244.5 230.8,244.7 	"/>
	<polygon points="299.7,234.8 299.7,234.7 230.8,234.6 104.2,234.7 104.2,234.7 230.8,234.9 	"/>
	<polygon points="299.7,225 299.7,224.9 230.8,224.8 104.2,224.9 104.2,225 230.8,225.1 	"/>
	<polygon points="299.8,215.7 299.8,215.6 230.8,215.5 104.2,215.7 104.2,215.7 230.8,215.8 	"/>
	<polygon points="299.8,206 299.8,205.8 230.8,205.7 104.2,205.9 104.2,205.9 230.8,206 	"/>
	<polygon points="299.8,196.2 299.8,196 230.8,195.9 104.2,196.1 104.2,196.1 230.8,196.3 	"/>
	<polygon points="299.8,186.4 299.8,186.2 230.8,186.1 104.2,186.3 104.2,186.3 230.8,186.5 	"/>
	<polygon points="299.8,176.6 299.8,176.4 230.8,176.3 104.2,176.5 104.2,176.5 230.8,176.7 	"/>
	<polygon points="299.8,166.8 299.8,166.6 230.8,166.6 104.2,166.7 104.2,166.7 230.8,166.9 	"/>
	<path d="M293.9,157c0-0.1-0.1-0.1-0.1-0.2l-62.9-0.1l-119.5,0.2c0,0,0,0,0,0l119.6,0.2L293.9,157z"/>
	<path d="M287.2,147.3c0-0.1-0.1-0.1-0.1-0.2l-56.2-0.1L118,147.1c0,0,0,0,0,0.1l112.9,0.1L287.2,147.3z"/>
	<path d="M282.8,143.4l2.3,0c-0.1-0.2-0.2-0.5-0.4-0.7l-2.9,0L282.8,143.4z"/>
	<polygon points="176.1,142.6 177,143.4 230.8,143.5 246.5,143.5 245.4,142.5 230.8,142.5 	"/>
	<path d="M142.5,143.3l-0.7-0.6l-10.6,0l-11,0.1c-0.1,0.1-0.1,0.2-0.2,0.3l11.2,0.1L142.5,143.3z"/>
	<path d="M271.1,133.6l9.9,0c-0.1-0.3-0.2-0.5-0.3-0.8l-10.6,0L271.1,133.6z"/>
	<polygon points="164.5,132.9 165.3,133.5 230.8,133.7 234.9,133.7 233.7,132.7 230.8,132.7 	"/>
	<path d="M130.2,133l-5.9,0c0,0.1-0.1,0.3-0.1,0.4l6.6,0.1L130.2,133z"/>
	<polygon points="152.8,123.1 153.6,123.7 164.5,123.8 223.2,123.9 222,122.9 164.5,123.1 	"/>
	<path d="M259.5,123.8l18.7,0c-0.1-0.3-0.1-0.5-0.2-0.8l-19.5-0.1L259.5,123.8z"/>
	<path d="M247.9,114.1l28.5-0.1c0-0.3-0.1-0.5-0.1-0.8l-29.5-0.1L247.9,114.1z"/>
	<path d="M141.2,113.3l0.7,0.6l22.6,0.1l47,0.1l-1.1-0.9c-2.3,0.4-4.6,0.7-7,0.7H202h-0.3c-2.4,0-4.8-0.3-7.1-0.7l-30.1,0.1
		L141.2,113.3z"/>
	<path d="M236.3,104.3l39-0.1c0-0.3,0-0.5-0.1-0.8l-40.2-0.1L236.3,104.3z"/>
	<path d="M131.3,103.6l-1.5,0c0,0.1,0,0.1,0,0.2l0.4,0.3l1.1,0l33.2,0.1l12.4,0c-0.3-0.2-0.6-0.5-0.8-0.7l-11.6,0L131.3,103.6z"/>
	<path d="M274.8,93.7l-37.7-0.1c-0.2,0.3-0.4,0.7-0.7,1l38.4-0.1C274.8,94.2,274.8,93.9,274.8,93.7z"/>
	<path d="M131.3,93.8l-1.1,0c0,0.2,0,0.3,0,0.5l1.1,0l33.2,0.1l4.1,0c-0.2-0.2-0.3-0.5-0.5-0.7l-3.6,0L131.3,93.8z"/>
	<path d="M274.9,83.9l-32.7-0.1c-0.1,0.3-0.3,0.6-0.4,1l33.1-0.1C274.9,84.4,274.9,84.1,274.9,83.9z"/>
	<path d="M130.1,84c0,0.2,0,0.3,0,0.5l1.2,0l31.9,0.1c-0.1-0.2-0.2-0.4-0.3-0.7L131.3,84L130.1,84z"/>
	<path d="M269.6,74.1L245.9,74c-0.1,0.3-0.2,0.6-0.3,0.9l25-0.1L269.6,74.1z"/>
	<path d="M129.5,74.2c0,0.2,0,0.3,0,0.5l1.7,0l28.1,0.1c-0.1-0.2-0.1-0.4-0.2-0.7l-27.8,0.1L129.5,74.2z"/>
	<path d="M152.3,64.4l-21,0.1l-2.6,0c0,0.2,0,0.3,0,0.5l2.6,0L153,65L152.3,64.4z"/>
	<path d="M257.9,64.3l-9.5,0c-0.1,0.3-0.1,0.6-0.2,0.9l10.7,0L257.9,64.3z"/>
	<polygon points="140.6,54.6 134.8,54.6 133.1,55.2 141.3,55.2 	"/>
	<polygon points="209.8,346.7 210.9,347.6 230.8,347.7 280.2,347.5 279.3,346.8 230.8,346.7 	"/>
	<polygon points="131.3,346.9 105.5,347.1 105.7,347.2 131.3,347.4 164.5,347.5 175.4,347.5 174.6,346.8 164.5,346.8 	"/>
	<polygon points="163.7,337.7 162.9,337 131.3,337.1 104.3,337.3 104.3,337.4 131.3,337.6 	"/>
	<polygon points="198.2,337 199.2,337.8 230.8,337.9 268.6,337.8 267.6,337 230.8,336.9 	"/>
	<polygon points="292.4,327.2 293.2,327.9 297.2,327.9 299.8,327.9 299.8,327.3 297.2,327.3 	"/>
	<polygon points="186.6,327.2 187.5,328 230.8,328.1 257,328 255.9,327.1 230.8,327.1 	"/>
	<polygon points="152,327.9 151.3,327.3 131.3,327.3 104.3,327.5 104.3,327.6 131.3,327.8 	"/>
	<polygon points="280.7,317.4 281.6,318.2 297.2,318.1 299.8,318.1 299.8,317.5 297.2,317.5 	"/>
	<polygon points="140.3,318.1 139.7,317.5 131.3,317.6 104.3,317.8 104.3,317.9 131.3,318.1 	"/>
	<polygon points="174.9,317.4 175.8,318.2 230.8,318.3 245.4,318.3 244.2,317.3 230.8,317.3 	"/>
	<polygon points="164.5,307.7 163.3,307.7 164.1,308.4 164.5,308.4 230.8,308.5 233.7,308.5 232.5,307.5 230.8,307.5 	"/>
	<polygon points="128.1,307.8 104.3,308 104.3,308.1 128.6,308.3 	"/>
	<polygon points="269,307.6 270,308.4 297.2,308.4 299.8,308.4 299.8,307.7 297.2,307.7 	"/>
	<polygon points="151.7,297.9 152.4,298.5 164.5,298.6 222,298.7 220.9,297.8 164.5,297.9 	"/>
	<polygon points="257.3,297.8 258.4,298.7 297.2,298.6 299.8,298.6 299.8,297.9 297.2,297.9 	"/>
	<polygon points="116.5,298.1 104.3,298.2 104.3,298.3 116.9,298.4 	"/>
	<polygon points="245.6,288 246.7,288.9 297.2,288.8 299.7,288.8 299.7,288.1 297.2,288.1 	"/>
	<polygon points="140.1,288.2 140.7,288.7 164.5,288.8 210.3,288.9 209.3,288 164.5,288.1 	"/>
	<polygon points="105,288.4 104.3,288.4 104.3,288.5 105.1,288.5 	"/>
	<polygon points="131.3,278.4 128.4,278.4 129,278.9 131.3,278.9 164.5,279 198.6,279.1 197.6,278.2 164.5,278.3 	"/>
	<polygon points="297.2,278.3 233.9,278.2 235.1,279.2 297.2,279 299.7,279 299.7,278.3 	"/>
	<polygon points="222.2,268.4 223.4,269.4 230.8,269.4 292.7,269.2 291.8,268.5 230.8,268.4 	"/>
	<polygon points="131.3,268.6 116.9,268.7 117.2,269 131.3,269.1 164.5,269.2 186.9,269.3 186,268.5 164.5,268.5 	"/>
	<polygon points="210.6,258.6 211.7,259.6 230.8,259.6 281,259.5 280.1,258.7 230.8,258.6 	"/>
	<polygon points="131.3,258.8 105.3,259 105.5,259.1 131.3,259.3 164.5,259.4 175.2,259.5 174.4,258.7 164.5,258.8 	"/>
	<polygon points="199,248.9 200,249.7 230.8,249.8 269.4,249.7 268.4,248.9 230.8,248.8 	"/>
	<polygon points="163.5,249.6 162.7,249 131.3,249.1 104.2,249.3 104.2,249.4 131.3,249.6 	"/>
	<polygon points="151.8,239.8 151.1,239.2 131.3,239.3 104.2,239.5 104.2,239.6 131.3,239.8 	"/>
	<polygon points="291.2,239.2 292,239.9 297.2,239.9 299.7,239.9 299.7,239.2 297.2,239.2 	"/>
	<polygon points="187.4,239.1 188.3,239.9 230.8,240 257.8,240 256.7,239.1 230.8,239 	"/>
	<polygon points="175.7,229.4 176.6,230.1 230.8,230.2 246.1,230.2 245,229.3 230.8,229.2 	"/>
	<polygon points="140.1,230 139.5,229.5 131.3,229.5 104.2,229.7 104.2,229.8 131.3,230 	"/>
	<polygon points="279.5,229.3 280.4,230.1 297.2,230.1 299.7,230.1 299.7,229.4 297.2,229.4 	"/>
	<polygon points="269.4,220.8 297.2,220.8 299.7,220.8 299.7,220.1 297.2,220.1 268.4,220 	"/>
	<polygon points="164.7,220.1 165.5,220.8 230.8,220.9 235.1,220.9 233.9,219.9 230.8,219.9 	"/>
	<polygon points="128.5,220.2 104.2,220.4 104.2,220.5 129,220.7 	"/>
	<polygon points="153.1,210.3 153.8,211 164.5,211 223.4,211.1 222.3,210.2 164.5,210.3 	"/>
	<polygon points="116.9,210.5 104.2,210.6 104.2,210.7 117.2,210.8 	"/>
	<polygon points="256.7,210.2 257.7,211.1 297.2,211 299.8,211 299.8,210.3 297.2,210.3 	"/>
	<polygon points="297.2,200.5 245,200.4 246.1,201.3 297.2,201.2 299.8,201.2 299.8,200.5 	"/>
	<polygon points="141.4,200.6 142.1,201.1 164.5,201.2 211.7,201.3 210.6,200.4 164.5,200.5 	"/>
	<polygon points="105.3,200.8 104.2,200.8 104.2,200.9 105.5,200.9 	"/>
	<polygon points="234.5,191.6 297.2,191.4 299.8,191.4 299.8,190.7 297.2,190.7 233.3,190.6 	"/>
	<polygon points="131.3,190.8 129.8,190.8 130.4,191.3 131.3,191.3 164.5,191.4 200,191.5 199,190.7 164.5,190.7 	"/>
	<polygon points="221.6,180.8 222.8,181.8 230.8,181.8 292,181.6 291.2,180.9 230.8,180.8 	"/>
	<polygon points="131.3,181 118.2,181.1 118.6,181.4 131.3,181.5 164.5,181.6 188.3,181.7 187.4,180.9 164.5,181 	"/>
	<polygon points="131.3,171.3 106.7,171.4 106.8,171.6 131.3,171.8 164.5,171.8 176.6,171.9 175.7,171.1 164.5,171.2 	"/>
	<polygon points="210,171.1 211.1,172 230.8,172 280.4,171.9 279.5,171.1 230.8,171 	"/>
	<polygon points="198.4,161.3 199.4,162.2 230.8,162.2 268.8,162.1 267.8,161.3 230.8,161.2 	"/>
	<path d="M164.5,162.1l0.5,0l-0.8-0.7l-32.8,0.1l-24.6,0.2c0,0-0.1,0.1-0.1,0.1l24.7,0.2L164.5,162.1z"/>
	<path d="M153.2,152.2l-0.7-0.6l-21.2,0.1l-16.2,0.1c-0.1,0.1-0.1,0.2-0.2,0.3l16.3,0.1L153.2,152.2z"/>
	<polygon points="186.7,151.5 187.7,152.3 230.8,152.4 257.2,152.4 256.1,151.5 230.8,151.4 	"/>
	<path d="M625.3,138.2C625.3,138.2,625.3,138.2,625.3,138.2L512.8,138l-48,0.1c0,0.1-0.1,0.1-0.1,0.2l48.1,0.1L625.3,138.2z"/>
	<path d="M621.9,128.4C621.9,128.4,621.9,128.4,621.9,128.4l-109-0.2l-44.7,0.1c0,0.1,0,0.2-0.1,0.2l44.7,0.1L621.9,128.4z"/>
	<path d="M619.6,118.7C619.6,118.6,619.6,118.6,619.6,118.7l-106.8-0.2l-42.4,0.1c0,0.1,0,0.2,0,0.2l42.4,0.1L619.6,118.7z"/>
	<path d="M618.2,108.8l-105.3-0.1l-41,0.1c0,0.1,0,0.2,0,0.2l41,0.1L618.2,108.8C618.2,108.9,618.2,108.8,618.2,108.8z"/>
	<path d="M617.5,99l-104.6-0.1l-40.3,0.1c0,0.1,0,0.2,0,0.2l40.3,0.1L617.5,99C617.5,99.1,617.5,99,617.5,99z"/>
	<path d="M472.7,89.2c0,0.1,0,0.2,0,0.2l40.1,0.1l104.5-0.1c0,0,0,0,0-0.1l-104.5-0.1L472.7,89.2z"/>
	<path d="M472.4,79.4c0,0.1,0,0.2,0,0.2l40.4,0.1l104.8-0.1c0,0,0,0,0-0.1l-104.8-0.1L472.4,79.4z"/>
	<path d="M471.7,69.6c0,0.1,0,0.2,0,0.2l41.1,0.1l22.9,0c-0.4-0.1-0.8-0.2-1.2-0.3l-21.7,0L471.7,69.6z"/>
	<path d="M618.3,69.7l-61.9-0.1c-0.3,0.1-0.7,0.2-1,0.2L618.3,69.7C618.3,69.7,618.3,69.7,618.3,69.7z"/>
	<path d="M619.3,59.9l-42.9-0.1c-0.1,0.1-0.2,0.1-0.3,0.2L619.3,59.9C619.3,59.9,619.3,59.9,619.3,59.9z"/>
	<path d="M512.8,60.1l2.3,0c-0.2-0.1-0.3-0.2-0.5-0.3l-1.9,0l-42.2,0.1c0,0.1,0,0.2,0,0.2L512.8,60.1z"/>
	<path d="M601,50.1l-12,0c-0.1,0-0.1,0.1-0.2,0.1l12.6,0L601,50.1z"/>
	<path d="M502.5,50l-9.6,0l-1,0.3l11,0C502.8,50.2,502.7,50.1,502.5,50z"/>
	<path d="M498.8,371.6c0.4,0.1,0.8,0.2,1.2,0.3l12.8,0l75.7-0.1c0.2,0,0.4-0.1,0.6-0.1l-76.3-0.1L498.8,371.6z"/>
	<path d="M468.3,361.8c0.2,0.1,0.4,0.2,0.6,0.2l44,0.1l108.2-0.1c0.1,0,0.1,0,0.2-0.1l-108.4-0.1L468.3,361.8z"/>
	<polygon points="447.7,352.1 447.7,352.3 512.8,352.3 643.2,352.2 643.2,352.2 512.8,352 	"/>
	<polygon points="447.7,342.3 447.7,342.5 512.8,342.6 643.2,342.4 643.2,342.4 512.8,342.2 	"/>
	<polygon points="447.7,332.5 447.7,332.7 512.8,332.8 643.2,332.6 643.2,332.6 512.8,332.4 	"/>
	<polygon points="447.7,322.7 447.7,322.9 512.8,323 643.2,322.8 643.2,322.8 512.8,322.6 	"/>
	<polygon points="447.7,312.9 447.7,313.1 512.8,313.2 643.2,313 643.2,313 512.8,312.9 	"/>
	<polygon points="447.7,303.2 447.7,303.3 512.8,303.4 643.3,303.2 643.3,303.2 512.8,303.1 	"/>
	<polygon points="447.7,293.4 447.7,293.5 512.8,293.6 643.3,293.5 643.3,293.5 512.8,293.3 	"/>
	<polygon points="447.7,283.6 447.7,283.8 512.8,283.8 643.3,283.7 643.3,283.7 512.8,283.5 	"/>
	<polygon points="512.8,273.7 447.7,273.8 447.7,274 512.8,274.1 643.3,273.9 643.3,273.9 	"/>
	<polygon points="643.1,264.1 643.1,264.1 512.8,263.9 447.7,264 447.7,264.2 512.8,264.3 	"/>
	<polygon points="643.1,254.3 643.1,254.3 512.8,254.1 447.6,254.2 447.6,254.4 512.8,254.5 	"/>
	<polygon points="643.1,244.5 643.1,244.5 512.8,244.4 447.6,244.4 447.6,244.6 512.8,244.7 	"/>
	<polygon points="643.1,234.7 643.1,234.7 512.8,234.6 447.6,234.7 447.6,234.8 512.8,234.9 	"/>
	<polygon points="643.1,225 643.1,225 512.8,224.8 447.6,224.9 447.6,225 512.8,225.1 	"/>
	<polygon points="643.2,215.7 643.2,215.7 512.8,215.5 447.6,215.6 447.6,215.7 512.8,215.8 	"/>
	<polygon points="643.2,205.9 643.2,205.9 512.8,205.7 447.6,205.8 447.6,206 512.8,206 	"/>
	<polygon points="643.2,196.1 643.2,196.1 512.8,195.9 447.6,196 447.6,196.2 512.8,196.3 	"/>
	<polygon points="643.2,186.3 643.2,186.3 512.8,186.1 447.6,186.2 447.6,186.4 512.8,186.5 	"/>
	<polygon points="643.2,176.5 643.2,176.5 512.8,176.3 447.6,176.4 447.6,176.6 512.8,176.7 	"/>
	<polygon points="643.2,166.7 643.2,166.7 512.8,166.6 447.6,166.6 447.6,166.8 512.8,166.9 	"/>
	<path d="M636.3,157C636.3,156.9,636.3,156.9,636.3,157l-123.5-0.2l-59.1,0.1c-0.1,0.1-0.1,0.1-0.2,0.2l59.3,0.1L636.3,157z"/>
	<path d="M629.6,147.2C629.6,147.2,629.6,147.1,629.6,147.2L512.8,147l-52.4,0.1c0,0.1-0.1,0.1-0.1,0.2l52.5,0.1L629.6,147.2z"/>
	<path d="M601.8,142.7l-0.7,0.6l11.2,0l15.1-0.1c0-0.1-0.1-0.2-0.1-0.3l-15-0.1L601.8,142.7z"/>
	<polygon points="498.3,142.5 497.1,143.5 512.8,143.5 566.7,143.4 567.6,142.6 512.8,142.5 	"/>
	<path d="M612.9,133.4l10.6-0.1c0-0.1-0.1-0.2-0.1-0.3l-9.9-0.1L612.9,133.4z"/>
	<path d="M473.5,132.8l-6.7,0c-0.1,0.3-0.2,0.5-0.3,0.8l6,0L473.5,132.8z"/>
	<polygon points="510,132.7 508.8,133.7 512.8,133.7 578.4,133.5 579.2,132.9 512.8,132.7 	"/>
	<polygon points="520.5,123.9 579.2,123.8 590.1,123.7 590.8,123.1 579.2,123.1 521.6,122.9 	"/>
	<path d="M485.2,123l-15.7,0c-0.1,0.3-0.1,0.5-0.2,0.8l14.8,0L485.2,123z"/>
	<polygon points="532.2,114.1 579.2,114 601.8,113.9 602.5,113.3 579.2,113.3 533.3,113.2 	"/>
	<path d="M471.2,114l24.6,0.1l1.1-0.9l-25.6,0.1C471.3,113.5,471.2,113.8,471.2,114z"/>
	<polygon points="544.9,103.4 543.9,104.3 579.2,104.2 612.4,104.1 613.5,104.1 614.1,103.6 612.4,103.6 579.2,103.5 	"/>
	<path d="M472.3,104.2l35.2,0.1l1.2-1l-36.3,0.1C472.3,103.7,472.3,104,472.3,104.2z"/>
	<path d="M472.7,93.6c0,0.3,0,0.5,0,0.8l40.1,0.1l6.2,0l1.2-1l-7.4,0L472.7,93.6z"/>
	<path d="M579.2,93.7l-22.7-0.1l-1,0.8l23.6-0.1l33.2-0.1l5,0c0-0.1,0-0.3,0-0.4l-4.9,0L579.2,93.7z"/>
	<path d="M472.6,83.9c0,0.3,0,0.5,0,0.8l40.2,0.1l17.9,0l1.1-0.9l-19.1,0L472.6,83.9z"/>
	<path d="M617.4,84.1l-5,0l-33.2-0.1l-11.1,0l-0.9,0.7l11.9,0l33.2-0.1l5,0C617.4,84.3,617.4,84.2,617.4,84.1z"/>
	<path d="M617.9,74.7c0-0.1,0-0.3,0-0.4l-5.6,0l-32.6-0.1l-0.8,0.7l0.2,0l33.2-0.1L617.9,74.7z"/>
	<polygon points="474.1,74.1 473.1,74.9 512.8,75 542.5,74.9 543.5,74 512.8,74 	"/>
	<path d="M590.7,65l21.7-0.1l6.4,0c0-0.1,0-0.3,0-0.4l-6.4,0l-21-0.1L590.7,65z"/>
	<path d="M485.8,64.3l-1,0.9l28.1,0.1l10.6,0c-0.6-0.3-1.2-0.6-1.8-1l-8.8,0L485.8,64.3z"/>
	<path d="M496.4,55.4l12.9,0c-0.4-0.3-0.8-0.7-1.2-1l-10.6,0L496.4,55.4z"/>
	<polygon points="617.7,55.1 616.2,54.7 612.4,54.7 603,54.6 602.4,55.2 612.4,55.2 	"/>
	<path d="M533.1,377l26-0.1c2.2-0.2,4.4-0.5,6.6-0.8l-31.4-0.1L533.1,377z"/>
	<path d="M545.8,366.3l-1,0.9l34.4-0.1l26.9-0.1c0.6-0.2,1.1-0.4,1.7-0.5l-28.6-0.1L545.8,366.3z"/>
	<path d="M510.6,366.2l-29.8,0.1c0.9,0.3,1.8,0.6,2.7,0.9l26,0.1L510.6,366.2z"/>
	<polygon points="579.2,356.6 557.5,356.6 556.5,357.4 579.2,357.3 612.4,357.2 626.2,357.1 626.6,356.8 612.4,356.7 	"/>
	<path d="M521,357.4l1.2-1l-9.4,0l-57.3,0.1c0.5,0.2,1.1,0.5,1.7,0.7l55.7,0.1L521,357.4z"/>
	<polygon points="638,347.2 638.1,347.1 612.4,346.9 579.2,346.8 569.1,346.8 568.2,347.5 579.2,347.5 612.4,347.4 	"/>
	<polygon points="532.7,347.6 533.8,346.7 512.8,346.7 464.3,346.8 463.4,347.5 512.8,347.7 	"/>
	<polygon points="580.7,337 579.9,337.7 612.4,337.6 643.2,337.4 643.2,337.4 612.4,337.1 	"/>
	<polygon points="544.4,337.8 545.5,337 512.8,336.9 476,337 475,337.8 512.8,337.9 	"/>
	<polygon points="451.3,327.2 447.7,327.3 447.7,327.9 450.4,327.9 	"/>
	<polygon points="592.4,327.3 591.6,327.9 612.4,327.8 643.2,327.6 643.2,327.6 612.4,327.3 	"/>
	<polygon points="556.1,328 557.1,327.2 512.8,327.1 487.7,327.1 486.7,328 512.8,328.1 	"/>
	<polygon points="567.8,318.2 568.7,317.4 512.8,317.3 499.4,317.3 498.3,318.3 512.8,318.3 	"/>
	<polygon points="463,317.4 447.7,317.5 447.7,318.2 462.1,318.2 	"/>
	<polygon points="604,317.5 603.3,318.1 612.4,318.1 643.2,317.8 643.2,317.8 612.4,317.6 	"/>
	<polygon points="474.7,307.6 447.7,307.7 447.7,308.4 473.7,308.4 	"/>
	<polygon points="615,308.3 643.3,308 643.3,308 615.6,307.8 	"/>
	<polygon points="579.5,308.4 580.4,307.7 579.2,307.7 512.8,307.5 511.1,307.5 509.9,308.5 512.8,308.5 579.2,308.4 	"/>
	<polygon points="486.4,297.8 447.7,297.9 447.7,298.6 485.3,298.7 	"/>
	<polygon points="626.8,298.4 643.3,298.3 643.3,298.2 627.1,298.1 	"/>
	<polygon points="592,297.9 579.2,297.9 522.8,297.8 521.6,298.7 579.2,298.6 591.3,298.5 	"/>
	<polygon points="638.6,288.5 643.3,288.5 643.3,288.4 638.7,288.4 	"/>
	<polygon points="498.1,288 447.7,288.1 447.7,288.8 496.9,288.9 	"/>
	<polygon points="603.6,288.2 579.2,288.1 534.4,288 533.3,288.9 579.2,288.8 603,288.7 	"/>
	<polygon points="509.8,278.2 447.7,278.3 447.7,279 508.6,279.2 	"/>
	<polygon points="614.7,278.9 615.2,278.4 612.4,278.4 579.2,278.3 546,278.2 545,279.1 579.2,279 612.4,278.9 	"/>
	<polygon points="557.7,268.5 556.7,269.3 579.2,269.2 612.4,269.1 626.4,269 626.8,268.7 612.4,268.6 579.2,268.5 	"/>
	<polygon points="451.8,268.5 451,269.2 512.8,269.4 520.2,269.4 521.4,268.4 512.8,268.4 	"/>
	<polygon points="463.5,258.7 462.6,259.5 512.8,259.6 531.9,259.6 533,258.6 512.8,258.6 	"/>
	<polygon points="569.3,258.7 568.4,259.5 579.2,259.4 612.4,259.3 638.2,259.1 638.3,259 612.4,258.8 579.2,258.8 	"/>
	<polygon points="580.1,249.6 612.4,249.6 643.1,249.3 643.1,249.3 612.4,249.1 580.9,249 	"/>
	<polygon points="475.2,248.9 474.3,249.7 512.8,249.8 543.7,249.7 544.7,248.9 512.8,248.8 	"/>
	<polygon points="486.9,239.1 485.9,240 512.8,240 555.4,239.9 556.3,239.1 512.8,239 	"/>
	<polygon points="452.5,239.2 447.6,239.2 447.6,239.9 451.6,239.9 	"/>
	<polygon points="591.8,239.8 612.4,239.8 643.1,239.5 643.1,239.5 612.4,239.3 592.6,239.2 	"/>
	<polygon points="603.5,230 612.4,230 643.1,229.8 643.1,229.7 612.4,229.5 604.2,229.5 	"/>
	<polygon points="498.6,229.3 497.5,230.2 512.8,230.2 567.1,230.1 567.9,229.4 512.8,229.2 	"/>
	<polygon points="464.2,229.3 447.6,229.4 447.6,230.1 463.3,230.1 	"/>
	<polygon points="475.3,220 447.6,220.1 447.6,220.8 474.3,220.8 	"/>
	<polygon points="643.1,220.5 643.1,220.4 615.2,220.2 614.7,220.7 	"/>
	<polygon points="509.8,219.9 508.6,220.9 512.8,220.9 578.2,220.8 579,220.1 512.8,219.9 	"/>
	<polygon points="487,210.2 447.6,210.3 447.6,211 485.9,211.1 	"/>
	<polygon points="520.2,211.1 579.2,211 589.9,211 590.6,210.3 579.2,210.3 521.4,210.2 	"/>
	<polygon points="643.2,210.7 643.2,210.6 626.8,210.5 626.4,210.8 	"/>
	<polygon points="643.2,200.9 643.2,200.8 638.3,200.8 638.2,200.9 	"/>
	<polygon points="531.9,201.3 579.2,201.2 601.6,201.1 602.2,200.6 579.2,200.5 533,200.4 	"/>
	<polygon points="498.7,200.4 447.6,200.5 447.6,201.2 497.6,201.3 	"/>
	<polygon points="544.7,190.7 543.6,191.5 579.2,191.4 612.4,191.3 613.3,191.3 613.9,190.8 612.4,190.8 579.2,190.7 	"/>
	<polygon points="510.4,190.6 447.6,190.7 447.6,191.4 509.2,191.6 	"/>
	<polygon points="452.5,180.9 451.6,181.6 512.8,181.8 520.9,181.8 522,180.8 512.8,180.8 	"/>
	<polygon points="556.3,180.9 555.3,181.7 579.2,181.6 612.4,181.5 625.1,181.4 625.4,181.1 612.4,181 579.2,181 	"/>
	<polygon points="464.2,171.1 463.2,171.9 512.8,172 532.6,172 533.7,171.1 512.8,171 	"/>
	<polygon points="567.9,171.1 567,171.9 579.2,171.8 612.4,171.8 636.8,171.6 637,171.4 612.4,171.3 579.2,171.2 	"/>
	<path d="M579.6,161.4l-0.8,0.7l0.5,0l33.2-0.1l28.7-0.2c0,0-0.1,0-0.1-0.1l-28.7-0.2L579.6,161.4z"/>
	<polygon points="475.9,161.3 474.9,162.1 512.8,162.2 544.3,162.2 545.3,161.3 512.8,161.2 	"/>
	<path d="M591.2,151.6l-0.7,0.6l21.9-0.1l20.2-0.2c0-0.1-0.1-0.1-0.1-0.2l-20.1-0.2L591.2,151.6z"/>
	<polygon points="487.6,151.5 486.5,152.4 512.8,152.4 556,152.3 556.9,151.5 512.8,151.4 	"/>
</g>
</svg>
