<?xml version="1.0" encoding="utf-8"?>
<!-- Generator: Adobe Illustrator 25.3.0, SVG Export Plug-In . SVG Version: 6.00 Build 0)  -->
<svg version="1.1" id="Layer_1" xmlns="http://www.w3.org/2000/svg" xmlns:xlink="http://www.w3.org/1999/xlink" x="0px" y="0px"
	 viewBox="0 0 750.2 400.1" style="enable-background:new 0 0 750.2 400.1;" xml:space="preserve">
<g>
	<path d="M201.6,113.9c-1.1,0-2.2-0.1-3.3-0.2l-1,41l0,1.4l1.6,0.6l100.9,37.5l0-7.4l-97.3-33.5L201.6,113.9z"/>
	<path d="M168,93.5c-0.3-0.5-0.6-1-0.9-1.6l-36.2-9.8L168,93.5z"/>
	<path d="M212.6,112.7c-1.4,0.4-2.9,0.6-4.4,0.8l0.8,34l0,0.8l0.9,0.3l81.9,26.7l-79.9-28.5L212.6,112.7z"/>
	<path d="M162.6,83.4c-1-2.3-2-4.7-2.8-7l-31-9.9c0.2,2.5,0.5,5,0.6,7.4L162.6,83.4z"/>
	<path d="M154.4,212l-1.2-51.2l0-0.8l-0.9-0.2l-35.9-9.7c-0.2,0.3-0.4,0.7-0.6,1l34.7,10.6l-1.2,51.9l0,1.4l1.6,0.6l149,54.2l0-7.9
		L154.4,212z"/>
	<path d="M159.7,155.2l1.2,51.1l0,0.8l0.9,0.3L273.4,244l-109.6-38.5l1.2-51.9l0-1.5l-1.7-0.6l-41-13.1c-0.4,1-0.8,2-1.3,3
		c-0.4,0.8-0.7,1.5-1.1,2.2L159.7,155.2z"/>
	<path d="M274.8,88.1l-13.5-4.6l-0.7-32l-3.7-1.1l-0.8,34.6l0,1.4l1.6,0.6l17.1,6.3C274.8,91.5,274.8,89.8,274.8,88.1z"/>
	<path d="M267.3,53.4l0.5,24.3l0,0.8l0.9,0.3l6.3,2.1c0-0.8,0.1-1.5,0.1-2.3l-4.4-1.6l0.5-22.3L267.3,53.4z"/>
	<polygon points="299.9,338.3 105.4,269.3 104.2,220 104.3,273.6 299.9,346.1 	"/>
	<polygon points="116,209.4 114.2,208.8 104.2,205.7 104.2,210.5 110.7,212.4 111.9,263.5 111.9,264.3 112.7,264.6 287.4,325.6 
		114.8,262.8 115.9,210.9 	"/>
	<path d="M104.3,342.8l0,5.5l16,5.9c5.2,0.2,11.5,0.5,18.4,0.8L104.3,342.8z"/>
	<path d="M166.1,355.8l-61.8-22.5l0,2l58.6,20.5C164,355.8,165,355.8,166.1,355.8z"/>
	<path d="M227,105.3c-1.3,1.1-2.7,2.1-4.1,3l-0.5,23.4l0,1.4l1.6,0.6l73.7,27.4c-2.1-2-4.9-5.1-7.8-9.4l-62.3-21.4L227,105.3z"/>
	<path d="M154.7,51c0-0.5,0-0.9-0.1-1.4c-0.3-0.6-0.4-0.9-0.4-0.9l-3.6,1.1L154.7,51z"/>
	<path d="M237.7,92.6c-1.3,2.2-2.7,4.2-4.2,6l0.6,25.9l0,0.8l0.9,0.3l49.3,16.1c-0.1-0.1-0.1-0.2-0.2-0.4c-0.1-0.3-0.3-0.6-0.4-0.8
		L237,123.7L237.7,92.6z"/>
	<path d="M178.3,137.8l0-0.8l-0.9-0.2l-50.3-13.6c0,0.2-0.1,0.4-0.1,0.6l48.5,14.8l-1.2,51.9l0,1.4l1.6,0.6l123.9,45.1l0-7.4
		L179.5,189L178.3,137.8z"/>
	<path d="M184.8,132.1l1.2,51.1l0,0.8l0.9,0.3L298.5,221l-109.6-38.5l1.2-51.9l0-1.5l-1.7-0.6l-59-18.8c-0.2,2.1-0.5,4.2-0.8,6.2
		L184.8,132.1z"/>
	<polygon points="130.5,246.3 129.3,195 129.3,194.2 128.3,193.9 104.2,187.4 104.2,189 126.5,195.8 125.3,247.7 125.2,249.1 
		126.8,249.6 299.8,313.8 299.8,306.4 	"/>
	<polygon points="135.8,189.4 137,240.5 137,241.3 137.8,241.6 299.8,298.2 299.8,298 139.9,239.8 141,187.9 141.1,186.4 
		139.3,185.8 104.2,174.6 104.2,180.3 	"/>
	<path d="M104.3,310.8l0,5.1l107.5,39.9c5.9-0.1,12-0.2,18.1-0.4L104.3,310.8z"/>
	<path d="M104.3,303.5l147.1,51.4c0.2,0,0.3,0,0.5,0l-147.5-53.7L104.3,303.5z"/>
	<polygon points="545.3,156.7 546.9,156.1 546.8,154.7 545.6,102.8 613.3,82.2 543.8,100.9 542.9,101.2 542.8,102 541.6,153.2 
		447.6,185.6 447.6,192.9 	"/>
	<path d="M532.8,92.8l-1.7,0.6l0,1.5l1.2,51.9l-79.9,28.5l81.9-26.7l0.9-0.3l0-0.8l1.2-51.1L618,73c0.2-2.4,0.4-4.9,0.7-7.5
		L532.8,92.8z"/>
	<path d="M630.8,149.2l-38.9,10.5L591,160l0,0.8l-1.2,51.2l-142.1,48.6l0,7.9l145.7-53l1.6-0.6l0-1.4l-1.2-51.9l37.6-11.5
		C631.2,149.8,631,149.5,630.8,149.2z"/>
	<path d="M579.2,152.2l0,1.5l1.2,51.9L470.8,244l111.6-36.6l0.9-0.3l0-0.8l1.2-51.1l42.9-12.3c-0.2-0.5-0.5-1-0.7-1.6
		c-0.6-1.2-1.1-2.5-1.6-3.7l-44.1,14L579.2,152.2z"/>
	<path d="M488,86.2l0-1.4l-0.8-33.2l-3.7,1.1l-0.7,30.6l-10.1,3.5c0,1.7,0.1,3.4,0,5l13.7-5.1L488,86.2z"/>
	<path d="M472.4,79.7l3-1l0.9-0.3l0-0.8l0.5-22.8l-3.9,1.2l0.5,20.9l-1.1,0.4C472.3,78.1,472.4,78.9,472.4,79.7z"/>
	<polygon points="642.4,272.7 643.3,272.3 643.3,271.7 643.1,271.7 643.1,235.8 642.7,218.8 643.1,218.7 643.2,216.3 640.9,216.9 
		639.9,217.2 639.9,218 638.7,269.3 447.7,337.1 447.7,344.9 	"/>
	<polygon points="631.4,264.6 632.2,264.3 632.2,263.5 633.4,212.4 643.2,209.6 643.2,204.6 629.9,208.8 628.1,209.4 628.2,210.9 
		629.4,262.8 456.8,325.6 	"/>
	<path d="M643.2,341.5l-101.8,36.1c0.8,0,1.6,0,2.3,0c6.7,0,13.5-0.5,20.2-1.3l79.2-29.4L643.2,341.5z"/>
	<path d="M643.2,334.1l0-2l-121.1,44.1c0.2,0,0.3,0,0.5,0.1L643.2,334.1z"/>
	<path d="M520.2,133.6l1.6-0.6l0-1.4l-1.2-51.9l29.9-9.1c-1.6,0.2-3.3,0.3-4.9,0.3c-0.3,0-0.7,0-1,0l-25.8,7l-0.9,0.2l0,0.8
		l-1.2,51.2l-58,19.9c-2.4,3.8-4.8,6.7-6.9,8.9L520.2,133.6z"/>
	<path d="M588.2,59.2l-18.8,5.1c-1,0.5-2,1.1-3,1.6L588.2,59.2z"/>
	<path d="M593.6,47.8c0,0-0.5,0-1.3-0.1l-0.1,0.7c-1.1,0-3.4,1.7-5.2,3.3l10-2.9l-3-0.9L593.6,47.8z"/>
	<path d="M506,70.4l0,1.5l1.2,51.9L464.4,139c-0.2,0.5-0.4,0.9-0.6,1.4l45.3-14.8l0.9-0.3l0-0.8l1.2-51.1l18.6-5.3
		c-2.2-0.8-4.5-1.9-6.8-3.1l-15.3,4.9L506,70.4z"/>
	<path d="M569.9,191.8l0-1.4l-1.2-51.9l51.8-15.8c0-0.2-0.1-0.4-0.1-0.5l-53.5,14.4l-0.9,0.2l0,0.8l-1.2,51.2l-117,40l0,7.3
		l120.6-43.9L569.9,191.8z"/>
	<path d="M555.8,128.6l-1.7,0.6l0,1.5l1.2,51.9l-107.6,37.8v0l109.6-36l0.9-0.3l0-0.8l1.2-51.1L619,115c-0.3-2.1-0.6-4.2-0.8-6.3
		L555.8,128.6z"/>
	<polygon points="617.3,249.6 618.9,249.1 618.8,247.7 617.6,195.8 643.2,188 643.2,186.5 615.8,193.9 614.8,194.2 614.8,195 
		613.6,246.3 447.7,305.2 447.7,312.5 	"/>
	<polygon points="607.1,241.3 607.1,240.5 608.3,189.4 643.2,179.4 643.2,173.6 604.8,185.8 603.1,186.4 603.1,187.9 604.3,239.8 
		447.7,296.8 447.7,297 606.3,241.6 	"/>
	<path d="M643.2,314.7l0-5.1l-161,57.2c3.6,1.2,7.4,2.3,11.3,3.4L643.2,314.7z"/>
	<polygon points="643.3,302.3 643.3,299.9 480.6,359.1 	"/>
</g>
</svg>
