<?xml version="1.0" encoding="utf-8"?>
<!-- Generator: Adobe Illustrator 25.3.0, SVG Export Plug-In . SVG Version: 6.00 Build 0)  -->
<svg version="1.1" id="Layer_1" xmlns="http://www.w3.org/2000/svg" xmlns:xlink="http://www.w3.org/1999/xlink" x="0px" y="0px"
	 viewBox="0 0 750.2 400.1" style="enable-background:new 0 0 750.2 400.1;" xml:space="preserve">
<g>
	<path d="M165,355.8c7.7,0.2,15.5,0.3,23.1,0.3c9.3-1.6,18.6-1.7,27.9-0.3c7.8-0.2,15.8-0.3,23.5-0.5
		C214.7,345.9,189.8,346.1,165,355.8z"/>
	<path d="M106.8,353.5c2.6,0.1,7.4,0.4,13.7,0.7c54.8-33.7,109.5-33.8,164.3-0.4c7-0.2,12-0.4,14.1-0.5
		C234.9,312,170.9,312.1,106.8,353.5z"/>
	<path d="M133.8,354.8c4.5,0.2,9.3,0.4,14.3,0.5c36.2-18.2,72.5-18.4,108.7-0.6c5.1-0.2,10-0.3,14.6-0.4
		C225.5,328.4,179.6,328.6,133.8,354.8z"/>
	<path d="M104.3,318.7l0,8.9c65.2-31.8,130.4-32.1,195.5-0.9l0-8.8C234.6,289.9,169.5,290.2,104.3,318.7z"/>
	<path d="M104.3,336.3l0,9.4c65.2-39.1,130.4-39.5,195.6-1.1l0-9.3C234.7,300.8,169.5,301.1,104.3,336.3z"/>
	<path d="M299.7,292.1l0-8.3c-65.2-17.1-130.3-16.9-195.5,0.5l0,8.3C169.4,272.7,234.6,272.5,299.7,292.1z"/>
	<path d="M299.8,308.6l0-8.5c-65.2-22-130.3-21.8-195.5,0.7l0,8.6C169.4,284.1,234.6,283.8,299.8,308.6z"/>
	<path d="M299.7,260.2l0-8c-65.2-8.7-130.3-8.6-195.5,0.3l0,8C169.4,249.6,234.6,249.5,299.7,260.2z"/>
	<path d="M299.7,275.9l0-3.9l0-4.2c-65.1-12.7-130.3-12.6-195.4,0.4l0,8.1C169.4,261.2,234.6,261,299.7,275.9z"/>
	<path d="M299.7,228.4l0-7.8c-65.2-1-130.3-1-195.5,0l0,7.9C169.4,225.6,234.6,225.6,299.7,228.4z"/>
	<path d="M299.7,243.8l0-7.9c-65.2-4.7-130.3-4.6-195.5,0.1l0,7.9C169.4,237.3,234.6,237.2,299.7,243.8z"/>
	<path d="M299.8,197.6l0-7.9c-65.2,6.4-130.4,6.3-195.6-0.2l0,7.9C169.4,202.1,234.6,202.1,299.8,197.6z"/>
	<path d="M299.8,213l0-7.8c-65.2,2.7-130.4,2.7-195.5-0.1l0,7.9C169.4,213.8,234.6,213.8,299.8,213z"/>
	<path d="M299.8,165.7l0-2.8c-1.1-0.9-2.7-2.3-4.4-4.2c-61.8,13.3-123.6,13.2-185.4-0.2c-2.4,2.7-4.5,4.3-5.7,5.1l0,1.7
		C169.4,178.1,234.6,178.3,299.8,165.7z"/>
	<path d="M299.8,181.3l0-7.9c-65.2,10.5-130.4,10.4-195.6-0.3l0,8C169.4,189.7,234.6,189.8,299.8,181.3z"/>
	<path d="M282.7,138c-0.9-2.3-1.8-4.6-2.5-7c-51.7,15.7-103.4,15.6-155.1-0.3c-0.8,2.4-1.6,4.8-2.5,7.1
		C175.9,152.8,229.3,152.9,282.7,138z"/>
	<path d="M289.8,151.5c-1.3-2-2.7-4.3-4-6.8c-55.4,14.2-110.9,14.2-166.3-0.2c-1.3,2.6-2.7,4.8-4,6.9
		C173.6,165.1,231.7,165.2,289.8,151.5z"/>
	<path d="M275.7,108.8c-0.3-2.5-0.5-5.1-0.6-7.8c-48.4,21.2-96.7,21-145.1-0.4c-0.1,2.7-0.3,5.3-0.6,7.8
		C178.2,128,226.9,128.1,275.7,108.8z"/>
	<path d="M278.1,123.3c-0.5-2.4-1-4.8-1.4-7.4c-49.4,18-98.8,17.8-148.1-0.3c-0.4,2.5-0.9,5-1.4,7.4
		C177.4,140,227.7,140.1,278.1,123.3z"/>
	<path d="M276.1,67c-11.4,7.6-22.7,13.4-34.1,17.5c-0.4,0.9-0.8,1.8-1.2,2.7c-1,2.1-2.1,4-3.2,5.8c12.6-3.6,25.2-9.1,37.8-16.7
		C275.5,73.3,275.8,70.1,276.1,67z"/>
	<path d="M167.4,92.6c-1-1.6-2-3.4-2.9-5.2c-0.6-1.1-1.1-2.3-1.6-3.4c-11.4-4.2-22.7-10.1-34.1-17.8c0.3,3.2,0.6,6.4,0.8,9.5
		C142.2,83.2,154.8,88.9,167.4,92.6z"/>
	<path d="M183.8,109.2c-3.7-2.1-7.2-5-10.4-8.5c-14.4-3.2-28.9-8.7-43.3-16.6c0.1,2.9,0.1,5.7,0.1,8.5
		C148.1,101.4,165.9,106.9,183.8,109.2z"/>
	<path d="M274.9,84.7c-14.5,7.8-29,13.2-43.4,16.3c-3.2,3.5-6.7,6.3-10.5,8.4c17.9-2.2,35.9-7.6,53.8-16.3
		C274.8,90.4,274.8,87.6,274.9,84.7z"/>
	<path d="M260,51.2l-8.4-2.5c-0.1,0-0.1,0-0.1,0c-0.3,0.2-0.6,0.4-0.9,0.6c-0.1,0.2-0.2,0.4-0.2,0.6c-0.1,2.4-0.3,5.2-0.8,8.2
		C253,56.1,256.5,53.7,260,51.2z"/>
	<path d="M155.3,57.4c-0.4-3.1-0.7-5.8-0.7-7.8c-0.3-0.6-0.4-0.9-0.4-0.9l-8.1,2.5C149.1,53.4,152.2,55.5,155.3,57.4z"/>
	<path d="M245.5,75.3c10.5-4.6,21.1-10.9,31.6-18.9l-8.8-2.6c-6.8,5.1-13.6,9.4-20.4,12.9C247.2,69.4,246.4,72.4,245.5,75.3z"/>
	<path d="M156.9,65.9c-6.4-3.4-12.7-7.4-19.1-12.1l-8.8,2.7c10.1,7.7,20.2,13.8,30.3,18.3C158.3,71.7,157.5,68.7,156.9,65.9z"/>
	<path d="M495.8,370.8c32.2-18.9,64.4-18.9,96.6,0c3.3-0.9,6.6-1.8,9.7-2.7c-38.7-24.5-77.3-24.5-116-0.1
		C489.3,369,492.5,369.9,495.8,370.8z"/>
	<path d="M505.6,373.2c3.8,0.8,7.7,1.6,11.7,2.2c17.8-7.2,35.6-7.3,53.4,0c4-0.6,7.9-1.4,11.8-2.2
		C556.9,359.8,531.3,359.8,505.6,373.2z"/>
	<path d="M449.9,354c1.6,0.8,4.7,2.2,8.9,4c57.2-38.6,114.3-38.4,171.5,0.5c3.8-1.5,6.9-2.8,9.1-3.8
		C576.2,311.8,513.1,311.5,449.9,354z"/>
	<path d="M467.3,361.5c2.8,1.1,5.8,2.2,9.1,3.3c45.3-29.8,90.6-29.7,135.8,0.2c3.3-1.1,6.4-2.2,9.3-3.2
		C570.1,327.1,518.7,327,467.3,361.5z"/>
	<path d="M447.7,317.3l0,9.3c65.2-32.9,130.4-32.5,195.5,1.4l0-9.5C578.1,288.2,512.9,287.8,447.7,317.3z"/>
	<path d="M447.7,335.8l0,9.8c65.2-40.5,130.3-39.9,195.5,1.7l0-10C578,299.9,512.9,299.3,447.7,335.8z"/>
	<path d="M447.7,281.4l0,8.7c65.2-20.7,130.4-20.4,195.6,0.9l0-8.8C578.1,263.5,512.9,263.3,447.7,281.4z"/>
	<path d="M447.7,298.6l0,9c65.2-26.2,130.4-25.8,195.6,1.1l0-9.1C578.1,275.6,512.9,275.3,447.7,298.6z"/>
	<path d="M447.6,247.9l0,8.4c65.2-11.3,130.3-11.2,195.5,0.5l0-8.5C578,238.9,512.8,238.8,447.6,247.9z"/>
	<path d="M447.7,264.4l0,8.5c65.2-15.8,130.4-15.5,195.6,0.7l0-1.9h-0.2l0-6.7C578,251.2,512.8,251,447.7,264.4z"/>
	<path d="M447.6,214.4l0,8.3c65.2-3,130.3-3,195.5,0.1l0-8.4C578,213.4,512.8,213.4,447.6,214.4z"/>
	<path d="M447.6,230.7l0,8.3c65.2-7,130.3-6.9,195.5,0.3l0-8.4C578,225.8,512.8,225.7,447.6,230.7z"/>
	<path d="M447.6,181.7l0,8.3c65.2,4.8,130.4,4.7,195.6-0.2l0-8.4C578,188.4,512.8,188.5,447.6,181.7z"/>
	<path d="M643.2,206.3l0-8.4c-65.2,2.9-130.4,3-195.5,0.1l0,8.3C512.8,207.2,578,207.2,643.2,206.3z"/>
	<path d="M458.5,150.2c-1.8,2.9-3.7,5.3-5.3,7.2c61.1,11.7,122.2,11.6,183.3-0.3c-1.7-1.9-3.5-4.3-5.3-7.2
		C573.7,162.3,516.1,162.4,458.5,150.2z"/>
	<path d="M447.6,164.4l0,8.4c65.2,9,130.4,8.9,195.6-0.4l0-8.5C578,175.4,512.8,175.6,447.6,164.4z"/>
	<path d="M621.6,127.5c-0.7-2.5-1.3-5-1.8-7.6c-49.9,15.7-99.8,15.9-149.7,0.5c-0.5,2.6-1.1,5.1-1.8,7.6
		C519.4,142.4,570.5,142.2,621.6,127.5z"/>
	<path d="M466,135.1c-0.8,2.1-1.6,4.2-2.6,6.2c-0.2,0.4-0.4,0.8-0.6,1.2c54.7,12.8,109.4,12.7,164.2-0.4c-0.1-0.3-0.3-0.5-0.4-0.8
		c-1-2.1-1.9-4.3-2.7-6.6C571.3,148.5,518.6,148.7,466,135.1z"/>
	<path d="M472.6,96.4c48.2,20,96.5,19.7,144.7-0.8c-0.1-2.8-0.1-5.6,0-8.6c-48.2,22.7-96.4,23-144.7,0.9
		C472.7,90.8,472.7,93.6,472.6,96.4z"/>
	<path d="M618.5,111.5c-0.3-2.6-0.6-5.3-0.8-8c-48.5,18.7-97,18.9-145.5,0.7c-0.2,2.7-0.5,5.4-0.8,8
		C520.5,128.9,569.5,128.7,618.5,111.5z"/>
	<path d="M619.4,59.6c0.1-0.6,0.1-1.2,0.2-1.9l0.2-1.5l0.1-0.4l-6.2-1.9c-45.9,31-91.7,31.4-137.6,1.1l-5.8,1.8l0.1,0.9
		c0.1,1,0.3,2.1,0.4,3.1C520.3,92.5,569.8,92.1,619.4,59.6z"/>
	<path d="M617.7,78.4c0.2-3,0.4-6.2,0.7-9.4c-48.9,28.7-97.8,29.1-146.7,1.1c0.3,3.1,0.5,6.2,0.7,9.2
		C520.8,104.1,569.2,103.8,617.7,78.4z"/>
	<path d="M558,69.1c15.2-2.3,30.5-8.4,45.7-18.3l-9.4-2.8c-3.1,1.9-6.1,3.6-9.2,5.1c-0.5,0.4-0.9,0.7-1.4,1
		C576.3,60.4,567.7,66.3,558,69.1z"/>
	<path d="M510.5,56.5c-4.9-2-9.8-4.5-14.8-7.3l-9.4,2.8c16.4,10.3,32.9,16.3,49.3,17.8C527.8,68,519.4,63.8,510.5,56.5z"/>
</g>
</svg>
