<?xml version="1.0" encoding="utf-8"?>
<!-- Generator: Adobe Illustrator 25.3.0, SVG Export Plug-In . SVG Version: 6.00 Build 0)  -->
<svg version="1.1" id="Layer_1" xmlns="http://www.w3.org/2000/svg" xmlns:xlink="http://www.w3.org/1999/xlink" x="0px" y="0px"
	 viewBox="0 0 750.2 400.1" style="enable-background:new 0 0 750.2 400.1;" xml:space="preserve">
<g>
	<path d="M130.8,256.3c0,0.4,0.4,0.8,0.9,0.8h34.4c0.5,0,0.9-0.4,0.9-0.8v-0.4h36.5c0.4,0,0.7-0.3,0.7-0.6V255h36v0.3
		c0,0.3,0.3,0.6,0.7,0.6h34.6v0.4c0,0.4,0.4,0.8,0.9,0.8h23.1l0-5.8h-23.1c-0.5,0-0.9,0.4-0.9,0.8v0.4h-34.6c-0.4,0-0.7,0.3-0.7,0.6
		v0.5h-36v-0.5c0-0.3-0.3-0.6-0.7-0.6h-36.5v-0.4c0-0.4-0.4-0.8-0.9-0.8h-34.4c-0.5,0-0.9,0.4-0.9,0.8v0.4h-26.6l0,3.4h26.6V256.3z"
		/>
	<path d="M276.6,248.6h23.1l0-5.8h-23.1c-0.5,0-0.9,0.4-0.9,0.8v0.4h-34.6c-0.4,0-0.7,0.3-0.7,0.6v0.5h-36v-0.5
		c0-0.3-0.3-0.6-0.7-0.6h-36.5v-0.4c0-0.4-0.4-0.8-0.9-0.8h-34.4c-0.5,0-0.9,0.4-0.9,0.8v0.4h-26.6l0,3.4h26.6v0.4
		c0,0.4,0.4,0.8,0.9,0.8h34.4c0.5,0,0.9-0.4,0.9-0.8v-0.4h36.5c0.4,0,0.7-0.3,0.7-0.6v-0.3h36v0.3c0,0.3,0.3,0.6,0.7,0.6h34.6v0.4
		C275.7,248.2,276.1,248.6,276.6,248.6z"/>
	<path d="M276.6,240.1h23.1l0-5.8h-23.1c-0.5,0-0.9,0.4-0.9,0.8v0.4h-34.6c-0.4,0-0.7,0.3-0.7,0.6v0.5h-36v-0.5
		c0-0.3-0.3-0.6-0.7-0.6h-36.5v-0.4c0-0.4-0.4-0.8-0.9-0.8h-34.4c-0.5,0-0.9,0.4-0.9,0.8v0.4h-26.6l0,3.4h26.6v0.4
		c0,0.4,0.4,0.8,0.9,0.8h34.4c0.5,0,0.9-0.4,0.9-0.8v-0.4h36.5c0.4,0,0.7-0.3,0.7-0.6V238h36v0.3c0,0.3,0.3,0.6,0.7,0.6h34.6v0.4
		C275.7,239.7,276.1,240.1,276.6,240.1z"/>
	<path d="M166.2,225.8h-34.4c-0.5,0-0.9,0.4-0.9,0.8v0.4h-26.6l0,3.4h26.6v0.4c0,0.4,0.4,0.8,0.9,0.8h34.4c0.5,0,0.9-0.4,0.9-0.8
		v-0.4h36.5c0.4,0,0.7-0.3,0.7-0.6v-0.3h36v0.3c0,0.3,0.3,0.6,0.7,0.6h34.6v0.4c0,0.4,0.4,0.8,0.9,0.8h23.1l0-5.8h-23.2
		c-0.5,0-0.9,0.4-0.9,0.8v0.4h-34.6c-0.4,0-0.7,0.3-0.7,0.6v0.5h-36v-0.5c0-0.3-0.3-0.6-0.7-0.6h-36.5v-0.4
		C167.1,226.2,166.7,225.8,166.2,225.8z"/>
	<path d="M166.2,217.3h-34.4c-0.5,0-0.9,0.4-0.9,0.8v0.4h-26.6l0,3.4h26.6v0.4c0,0.4,0.4,0.8,0.9,0.8h34.4c0.5,0,0.9-0.4,0.9-0.8
		v-0.4h36.5c0.4,0,0.7-0.3,0.7-0.6V221h36v0.3c0,0.3,0.3,0.6,0.7,0.6h34.6v0.4c0,0.4,0.4,0.8,0.9,0.8h23.2l0-5.8h-23.2
		c-0.5,0-0.9,0.4-0.9,0.8v0.4h-34.6c-0.4,0-0.7,0.3-0.7,0.6v0.5h-36v-0.5c0-0.3-0.3-0.6-0.7-0.6h-36.5v-0.4
		C167.1,217.7,166.7,217.3,166.2,217.3z"/>
	<path d="M130.8,213.4v0.4c0,0.4,0.4,0.8,0.9,0.8h34.4c0.5,0,0.9-0.4,0.9-0.8v-0.4h36.5c0.4,0,0.7-0.3,0.7-0.6v-0.3h36v0.3
		c0,0.3,0.3,0.6,0.7,0.6h34.6v0.4c0,0.4,0.4,0.8,0.9,0.8h23.2l0-5.8h-23.2c-0.5,0-0.9,0.4-0.9,0.8v0.4h-34.6c-0.4,0-0.7,0.3-0.7,0.6
		v0.5h-36v-0.5c0-0.3-0.3-0.6-0.7-0.6h-36.5v-0.4c0-0.4-0.4-0.8-0.9-0.8h-34.4c-0.5,0-0.9,0.4-0.9,0.8v0.4h-26.6l0,3.4H130.8z"/>
	<path d="M277.2,295c-0.4,0-0.7,0.3-0.7,0.6v0.5h-36v-0.5c0-0.3-0.3-0.6-0.7-0.6h-36.5v-0.4c0-0.4-0.4-0.8-0.9-0.8h-34.4
		c-0.5,0-0.9,0.4-0.9,0.8v0.4h-34.4c-0.4,0-0.7,0.3-0.7,0.6v0.5h-27.6l0,1.4h27.6v0.3c0,0.3,0.3,0.6,0.7,0.6H167v0.4
		c0,0.4,0.4,0.8,0.9,0.8h34.4c0.5,0,0.9-0.4,0.9-0.8v-0.4h36.5c0.4,0,0.7-0.3,0.7-0.6v-0.3h36v0.3c0,0.3,0.3,0.6,0.7,0.6h22.6l0-3.4
		H277.2z"/>
	<path d="M277.2,289.9h22.5l0-3.4h-22.5c-0.4,0-0.7,0.3-0.7,0.6v0.5h-36v-0.5c0-0.3-0.3-0.6-0.7-0.6h-36.5v-0.4
		c0-0.4-0.4-0.8-0.9-0.8h-34.4c-0.5,0-0.9,0.4-0.9,0.8v0.4h-34.4c-0.4,0-0.7,0.3-0.7,0.6v0.5h-27.6l0,1.4h27.6v0.3
		c0,0.3,0.3,0.6,0.7,0.6H167v0.4c0,0.4,0.4,0.8,0.9,0.8h34.4c0.5,0,0.9-0.4,0.9-0.8v-0.4h36.5c0.4,0,0.7-0.3,0.7-0.6V289h36v0.3
		C276.5,289.6,276.8,289.9,277.2,289.9z"/>
	<path d="M277.2,281.4h22.5l0-3.4h-22.5c-0.4,0-0.7,0.3-0.7,0.6v0.5h-36v-0.5c0-0.3-0.3-0.6-0.7-0.6h-36.5v-0.4
		c0-0.4-0.4-0.8-0.9-0.8h-34.4c-0.5,0-0.9,0.4-0.9,0.8v0.4h-34.4c-0.4,0-0.7,0.3-0.7,0.6v0.5h-27.6l0,1.4h27.6v0.3
		c0,0.3,0.3,0.6,0.7,0.6H167v0.4c0,0.4,0.4,0.8,0.9,0.8h34.4c0.5,0,0.9-0.4,0.9-0.8v-0.4h36.5c0.4,0,0.7-0.3,0.7-0.6v-0.3h36v0.3
		C276.5,281.1,276.8,281.4,277.2,281.4z"/>
	<path d="M202.3,268.3h-34.4c-0.5,0-0.9,0.4-0.9,0.8v0.4h-34.4c-0.4,0-0.7,0.3-0.7,0.6v0.5h-27.6l0,1.4h27.6v0.3
		c0,0.3,0.3,0.6,0.7,0.6H167v0.4c0,0.4,0.4,0.8,0.9,0.8h34.4c0.5,0,0.9-0.4,0.9-0.8v-0.4h36.5c0.4,0,0.7-0.3,0.7-0.6v-0.3h36v0.3
		c0,0.3,0.3,0.6,0.7,0.6h22.5l0-0.9l0-2.5h-22.5c-0.4,0-0.7,0.3-0.7,0.6v0.5h-36v-0.5c0-0.3-0.3-0.6-0.7-0.6h-36.5v-0.4
		C203.2,268.7,202.8,268.3,202.3,268.3z"/>
	<path d="M276.5,261.7v0.5h-36v-0.5c0-0.3-0.3-0.6-0.7-0.6h-36.5v-0.4c0-0.4-0.4-0.8-0.9-0.8h-34.4c-0.5,0-0.9,0.4-0.9,0.8v0.4
		h-34.4c-0.4,0-0.7,0.3-0.7,0.6v0.5h-27.6l0,1.4h27.6v0.3c0,0.3,0.3,0.6,0.7,0.6H167v0.4c0,0.4,0.4,0.8,0.9,0.8h34.4
		c0.5,0,0.9-0.4,0.9-0.8v-0.4h36.5c0.4,0,0.7-0.3,0.7-0.6v-0.3h36v0.3c0,0.3,0.3,0.6,0.7,0.6h22.5l0-3.4h-22.5
		C276.8,261.1,276.5,261.3,276.5,261.7z"/>
	<path d="M132.8,339.8v-0.3h35.8v0.3c0,0.3,0.3,0.6,0.7,0.6h34.4v0.4c0,0.4,0.4,0.8,0.9,0.8h34.4c0.5,0,0.9-0.4,0.9-0.8v-0.4h36.5
		c0.4,0,0.7-0.3,0.7-0.6v-0.3h22.6l0-1.4h-22.6v-0.5c0-0.3-0.3-0.6-0.7-0.6H240v-0.4c0-0.4-0.4-0.8-0.9-0.8h-34.4
		c-0.5,0-0.9,0.4-0.9,0.8v0.4h-34.4c-0.4,0-0.7,0.3-0.7,0.6v0.5h-35.8v-0.5c0-0.3-0.3-0.6-0.7-0.6h-27.8l0,3.4H132
		C132.4,340.5,132.8,340.2,132.8,339.8z"/>
	<path d="M204.6,333.2h34.4c0.5,0,0.9-0.4,0.9-0.8V332h36.5c0.4,0,0.7-0.3,0.7-0.6v-0.3h22.6l0-1.4h-22.6v-0.5
		c0-0.3-0.3-0.6-0.7-0.6H240v-0.4c0-0.4-0.4-0.8-0.9-0.8h-34.4c-0.5,0-0.9,0.4-0.9,0.8v0.4h-34.4c-0.4,0-0.7,0.3-0.7,0.6v0.5h-35.8
		v-0.5c0-0.3-0.3-0.6-0.7-0.6h-27.8l0,3.4H132c0.4,0,0.7-0.3,0.7-0.6v-0.3h35.8v0.3c0,0.3,0.3,0.6,0.7,0.6h34.4v0.4
		C203.7,332.8,204.1,333.2,204.6,333.2z"/>
	<path d="M204.6,324.7h34.4c0.5,0,0.9-0.4,0.9-0.8v-0.4h36.5c0.4,0,0.7-0.3,0.7-0.6v-0.3h22.6l0-1.4h-22.6v-0.5
		c0-0.3-0.3-0.6-0.7-0.6H240v-0.4c0-0.4-0.4-0.8-0.9-0.8h-34.4c-0.5,0-0.9,0.4-0.9,0.8v0.4h-34.4c-0.4,0-0.7,0.3-0.7,0.6v0.5h-35.8
		v-0.5c0-0.3-0.3-0.6-0.7-0.6h-27.8l0,3.4H132c0.4,0,0.7-0.3,0.7-0.6v-0.3h35.8v0.3c0,0.3,0.3,0.6,0.7,0.6h34.4v0.4
		C203.7,324.3,204.1,324.7,204.6,324.7z"/>
	<path d="M132,311.6h-27.8l0,3.4H132c0.4,0,0.7-0.3,0.7-0.6v-0.3h35.8v0.3c0,0.3,0.3,0.6,0.7,0.6h34.4v0.4c0,0.4,0.4,0.8,0.9,0.8
		h34.4c0.5,0,0.9-0.4,0.9-0.8V315h36.5c0.4,0,0.7-0.3,0.7-0.6v-0.3h22.6l0-1.4h-22.6v-0.5c0-0.3-0.3-0.6-0.7-0.6H240v-0.4
		c0-0.4-0.4-0.8-0.9-0.8h-34.4c-0.5,0-0.9,0.4-0.9,0.8v0.4h-34.4c-0.4,0-0.7,0.3-0.7,0.6v0.5h-35.8v-0.5
		C132.8,311.9,132.4,311.6,132,311.6z"/>
	<path d="M132,303.1h-27.8l0,3.4H132c0.4,0,0.7-0.3,0.7-0.6v-0.3h35.8v0.3c0,0.3,0.3,0.6,0.7,0.6h34.4v0.4c0,0.4,0.4,0.8,0.9,0.8
		h34.4c0.5,0,0.9-0.4,0.9-0.8v-0.4h36.5c0.4,0,0.7-0.3,0.7-0.6v-0.3h22.5l0-1.4h-22.5v-0.5c0-0.3-0.3-0.6-0.7-0.6H240v-0.4
		c0-0.4-0.4-0.8-0.9-0.8h-34.4c-0.5,0-0.9,0.4-0.9,0.8v0.4h-34.4c-0.4,0-0.7,0.3-0.7,0.6v0.5h-35.8v-0.5
		C132.8,303.4,132.4,303.1,132,303.1z"/>
	<path d="M133.2,352.5h-28.9l0,0.8c0.1,0,0.2,0,0.3,0v0.1c0,0,55.5,3.2,95.8,2.6c31.3-0.4,69.9-1.7,88.4-2.3h-14v-0.4
		c0-0.4-0.4-0.8-0.9-0.8h-34.4c-0.5,0-0.9,0.4-0.9,0.8v0.4h-34.4c-0.4,0-0.7,0.3-0.7,0.6v0.5h-32.1v-0.5c0-0.3-0.3-0.6-0.7-0.6
		h-36.5v-0.4C134.1,352.8,133.7,352.5,133.2,352.5z"/>
	<path d="M274.9,344.8c0-0.4-0.4-0.8-0.9-0.8h-34.4c-0.5,0-0.9,0.4-0.9,0.8v0.4h-34.9c-0.4,0-0.7,0.3-0.7,0.6v0.5h-31.6v-0.5
		c0-0.3-0.3-0.6-0.7-0.6h-36.5v-0.4c0-0.4-0.4-0.8-0.9-0.8h-28.9l0,5.8h28.9c0.5,0,0.9-0.4,0.9-0.8v-0.4h36.5c0.4,0,0.7-0.3,0.7-0.6
		v-0.3H203v0.3c0,0.3,0.3,0.6,0.7,0.6h34.9v0.4c0,0.4,0.4,0.8,0.9,0.8H274c0.5,0,0.9-0.4,0.9-0.8v-0.4h25l0-3.4h-25V344.8z"/>
	<path d="M244.3,78.5h30.8c0.1-1.1,0.1-2.2,0.2-3.4h-29.9C245.1,76.3,244.8,77.4,244.3,78.5z"/>
	<path d="M130.8,78.9c0,0.4,0.4,0.8,0.9,0.8h29.3c-0.8-1.9-1.4-3.9-2-5.8h-27.3c-0.5,0-0.9,0.4-0.9,0.8v0.4h-1.2
		c0.1,1.1,0.2,2.3,0.2,3.4h1V78.9z"/>
	<path d="M275.7,66.2v0.4h-27.8c-0.3,1.1-0.5,2.2-0.8,3.4h28.6v0.4c0,0.1,0,0.2,0.1,0.3c0.1-1.7,0.3-3.5,0.5-5.2
		C275.9,65.6,275.7,65.9,275.7,66.2z"/>
	<path d="M131.8,71.2h26.5c-0.6-2-1.1-3.9-1.5-5.8h-25c-0.5,0-0.9,0.4-0.9,0.8v0.4h-2c0.1,1.1,0.2,2.3,0.3,3.4h1.6v0.4
		C130.8,70.9,131.2,71.2,131.8,71.2z"/>
	<path d="M276.6,57c-0.5,0-0.9,0.4-0.9,0.8v0.4h-26.1c-0.2,1.1-0.4,2.2-0.6,3.4h26.7v0.4c0,0.4,0.4,0.7,0.9,0.8
		c0.2-1.7,0.4-3.3,0.6-5l0.1-0.7H276.6z"/>
	<path d="M130.8,61.5V62c0,0.4,0.4,0.8,0.9,0.8h24.5c-0.4-2.1-0.7-4-1-5.8h-23.5c-0.5,0-0.9,0.4-0.9,0.8v0.4h-2.9
		c0.1,1.1,0.3,2.3,0.4,3.4H130.8z"/>
	<path d="M154.6,49.6c-0.3-0.6-0.4-0.9-0.4-0.9l-18.1,5.6h18.8C154.7,52.5,154.6,50.9,154.6,49.6z"/>
	<path d="M250.1,53.1h16l-11.3-3.4h-4.5c0,0.1-0.1,0.1-0.1,0.2C250.3,50.9,250.2,52,250.1,53.1z"/>
	<path d="M277.2,121h0.4c-0.2-1.1-0.4-2.2-0.6-3.3c-0.3,0.1-0.5,0.3-0.5,0.6v0.5h-36v-0.5c0-0.3-0.3-0.6-0.7-0.6h-36.5v-0.4
		c0-0.4-0.4-0.8-0.9-0.8h-34.4c-0.5,0-0.9,0.4-0.9,0.8v0.4h-34.4c-0.4,0-0.7,0.3-0.7,0.6v0.5h-3.9c-0.1,0.5-0.2,0.9-0.3,1.4h4.2v0.3
		c0,0.3,0.3,0.6,0.7,0.6H167v0.4c0,0.4,0.4,0.8,0.9,0.8h34.4c0.5,0,0.9-0.4,0.9-0.8V121h36.5c0.4,0,0.7-0.3,0.7-0.6v-0.3h36v0.3
		C276.5,120.8,276.8,121,277.2,121z"/>
	<path d="M240.5,111.9v-0.3H276c-0.1-0.5-0.1-0.9-0.2-1.4h-35.4v-0.5c0-0.3-0.3-0.6-0.7-0.6h-18.4c-2.6,1.5-5.3,2.6-8.2,3.4h26.6
		C240.2,112.6,240.5,112.3,240.5,111.9z"/>
	<path d="M167.9,113.8h30.6c-6-0.5-11.6-2.5-16.7-5.8h-13.9c-0.5,0-0.9,0.4-0.9,0.8v0.4h-34.4c-0.4,0-0.7,0.3-0.7,0.6v0.5h-2.6
		c-0.1,0.5-0.1,0.9-0.2,1.4h2.8v0.3c0,0.3,0.3,0.6,0.7,0.6H167v0.4C167,113.4,167.4,113.8,167.9,113.8z"/>
	<path d="M240.5,103.5v-0.3h34.7c0-0.5-0.1-0.9-0.1-1.4h-34.6v-0.5c0-0.3-0.3-0.6-0.7-0.6h-8c-1.1,1.2-2.2,2.3-3.4,3.4h11.4
		C240.2,104.1,240.5,103.8,240.5,103.5z"/>
	<path d="M131.8,103.2v0.3c0,0.3,0.3,0.6,0.7,0.6H167v0.4c0,0.4,0.4,0.8,0.9,0.8h10.2c-2-1.7-3.9-3.6-5.8-5.8h-4.5
		c-0.5,0-0.9,0.4-0.9,0.8v0.4h-34.4c-0.4,0-0.7,0.3-0.7,0.6v0.5h-1.9c0,0.5-0.1,0.9-0.1,1.4H131.8z"/>
	<path d="M240.5,95v-0.3h34.3c0-0.5,0-0.9,0-1.4h-34.3v-0.5c0-0.3-0.3-0.6-0.7-0.6h-1.9c-0.7,1.2-1.4,2.3-2.2,3.4h4
		C240.2,95.6,240.5,95.3,240.5,95z"/>
	<path d="M131.8,94.7V95c0,0.3,0.3,0.6,0.7,0.6H167V96c0,0.4,0.4,0.8,0.9,0.8h2.4c-1.1-1.5-2.2-3.2-3.3-5v0.4h-34.4
		c-0.4,0-0.7,0.3-0.7,0.6v0.5h-1.6c0,0.5,0,0.9,0,1.4H131.8z"/>
	<path d="M131.8,84.3v0.5h-1.7c0,0.5,0,0.9,0,1.4h1.7v0.3c0,0.3,0.3,0.6,0.7,0.6h31.8c-0.6-1.1-1.1-2.3-1.6-3.4h-30.2
		C132.2,83.7,131.8,84,131.8,84.3z"/>
	<path d="M241.1,86.2h33.7c0-0.5,0-0.9,0-1.4h-33.1C241.6,85.3,241.3,85.8,241.1,86.2z"/>
	<path d="M279.3,160.9v-0.5c0-0.3-0.3-0.6-0.7-0.6h-36.5v-0.4c0-0.4-0.4-0.8-0.9-0.8h-34.4c-0.5,0-0.9,0.4-0.9,0.8v0.4h-34.4
		c-0.4,0-0.7,0.3-0.7,0.6v0.5h-35.8v-0.5c0-0.3-0.3-0.6-0.7-0.6h-25.4c-1.5,1.5-2.8,2.7-3.8,3.4h29.3c0.4,0,0.7-0.3,0.7-0.6v-0.3
		h35.8v0.3c0,0.3,0.3,0.6,0.7,0.6h34.4v0.4c0,0.4,0.4,0.8,0.9,0.8h34.4c0.5,0,0.9-0.4,0.9-0.8v-0.4h36.5c0.4,0,0.7-0.3,0.7-0.6v-0.3
		H299c-0.5-0.4-1-0.9-1.5-1.4H279.3z"/>
	<path d="M279.3,152.4v-0.5c0-0.3-0.3-0.6-0.7-0.6h-36.5v-0.4c0-0.4-0.4-0.8-0.9-0.8h-34.4c-0.5,0-0.9,0.4-0.9,0.8v0.4h-34.4
		c-0.4,0-0.7,0.3-0.7,0.6v0.5h-35.8v-0.5c0-0.3-0.3-0.6-0.7-0.6h-18.7c-0.8,1.2-1.6,2.4-2.4,3.4h21.1c0.4,0,0.7-0.3,0.7-0.6v-0.3
		h35.8v0.3c0,0.3,0.3,0.6,0.7,0.6h34.4v0.4c0,0.4,0.4,0.8,0.9,0.8h34.4c0.5,0,0.9-0.4,0.9-0.8v-0.4h36.5c0.4,0,0.7-0.3,0.7-0.6v-0.3
		h12c-0.3-0.4-0.7-0.9-1-1.4H279.3z"/>
	<path d="M279.3,143.9v-0.5c0-0.3-0.3-0.6-0.7-0.6h-36.5v-0.4c0-0.4-0.4-0.8-0.9-0.8h-34.4c-0.5,0-0.9,0.4-0.9,0.8v0.4h-34.4
		c-0.4,0-0.7,0.3-0.7,0.6v0.5h-35.8v-0.5c0-0.3-0.3-0.6-0.7-0.6h-13.9c-0.6,1.2-1.1,2.3-1.7,3.4h15.6c0.4,0,0.7-0.3,0.7-0.6v-0.3
		h35.8v0.3c0,0.3,0.3,0.6,0.7,0.6h34.4v0.4c0,0.4,0.4,0.8,0.9,0.8h34.4c0.5,0,0.9-0.4,0.9-0.8v-0.4h36.5c0.4,0,0.7-0.3,0.7-0.6v-0.3
		h6.7c-0.2-0.5-0.5-0.9-0.7-1.4H279.3z"/>
	<path d="M279.3,135.4v-0.5c0-0.3-0.3-0.6-0.7-0.6h-36.5v-0.4c0-0.4-0.4-0.8-0.9-0.8h-34.4c-0.5,0-0.9,0.4-0.9,0.8v0.4h-34.4
		c-0.4,0-0.7,0.3-0.7,0.6v0.5h-35.8v-0.5c0-0.3-0.3-0.6-0.7-0.6h-10.3c-0.4,1.1-0.8,2.3-1.3,3.4h11.6c0.4,0,0.7-0.3,0.7-0.6v-0.3
		h35.8v0.3c0,0.3,0.3,0.6,0.7,0.6h34.4v0.4c0,0.4,0.4,0.8,0.9,0.8h34.4c0.5,0,0.9-0.4,0.9-0.8v-0.4h36.5c0.4,0,0.7-0.3,0.7-0.6v-0.3
		h2.8c-0.2-0.5-0.4-0.9-0.5-1.4H279.3z"/>
	<path d="M278.6,125.8h-36.5v-0.4c0-0.4-0.4-0.8-0.9-0.8h-34.4c-0.5,0-0.9,0.4-0.9,0.8v0.4h-34.4c-0.4,0-0.7,0.3-0.7,0.6v0.5h-35.8
		v-0.5c0-0.3-0.3-0.6-0.7-0.6h-7.7c-0.3,1.1-0.6,2.3-0.9,3.4h8.7c0.4,0,0.7-0.3,0.7-0.6v-0.3h35.8v0.3c0,0.3,0.3,0.6,0.7,0.6h34.4
		v0.4c0,0.4,0.4,0.8,0.9,0.8h34.4c0.5,0,0.9-0.4,0.9-0.8v-0.4h36.5c0.4,0,0.7-0.3,0.7-0.6v-0.2C279.1,127.5,278.9,126.6,278.6,125.8
		C278.7,125.8,278.6,125.8,278.6,125.8z"/>
	<path d="M239.5,206.4H274c0.5,0,0.9-0.4,0.9-0.8v-0.4h24.9l0-3.4h-24.9v-0.4c0-0.4-0.4-0.8-0.9-0.8h-34.4c-0.5,0-0.9,0.4-0.9,0.8
		v0.4h-34.4c-0.4,0-0.7,0.3-0.7,0.6v0.5h-32.1v-0.5c0-0.3-0.3-0.6-0.7-0.6h-36.5v-0.4c0-0.4-0.4-0.8-0.9-0.8h-29l0,5.8h29
		c0.5,0,0.9-0.4,0.9-0.8v-0.4h36.5c0.4,0,0.7-0.3,0.7-0.6v-0.3h32.1v0.3c0,0.3,0.3,0.6,0.7,0.6h34.4v0.4
		C238.6,206,239,206.4,239.5,206.4z"/>
	<path d="M239.5,197.9H274c0.5,0,0.9-0.4,0.9-0.8v-0.4h24.9l0-3.4h-24.9v-0.4c0-0.4-0.4-0.8-0.9-0.8h-34.4c-0.5,0-0.9,0.4-0.9,0.8
		v0.4h-34.4c-0.4,0-0.7,0.3-0.7,0.6v0.5h-32.1v-0.5c0-0.3-0.3-0.6-0.7-0.6h-36.5v-0.4c0-0.4-0.4-0.8-0.9-0.8h-29l0,5.8h29
		c0.5,0,0.9-0.4,0.9-0.8v-0.4h36.5c0.4,0,0.7-0.3,0.7-0.6v-0.3h32.1v0.3c0,0.3,0.3,0.6,0.7,0.6h34.4v0.4
		C238.6,197.6,239,197.9,239.5,197.9z"/>
	<path d="M133.2,183.6h-29l0,5.8h29c0.5,0,0.9-0.4,0.9-0.8v-0.4h36.5c0.4,0,0.7-0.3,0.7-0.6v-0.3h32.1v0.3c0,0.3,0.3,0.6,0.7,0.6
		h34.4v0.4c0,0.4,0.4,0.8,0.9,0.8H274c0.5,0,0.9-0.4,0.9-0.8v-0.4h24.9l0-3.4h-24.9v-0.4c0-0.4-0.4-0.8-0.9-0.8h-34.4
		c-0.5,0-0.9,0.4-0.9,0.8v0.4h-34.4c-0.4,0-0.7,0.3-0.7,0.6v0.5h-32.1v-0.5c0-0.3-0.3-0.6-0.7-0.6h-36.5v-0.4
		C134.1,184,133.7,183.6,133.2,183.6z"/>
	<path d="M133.2,175.1h-29l0,5.8h29c0.5,0,0.9-0.4,0.9-0.8v-0.4h36.5c0.4,0,0.7-0.3,0.7-0.6v-0.3h32.1v0.3c0,0.3,0.3,0.6,0.7,0.6
		h34.4v0.4c0,0.4,0.4,0.8,0.9,0.8H274c0.5,0,0.9-0.4,0.9-0.8v-0.4h24.9l0-3.4h-24.9v-0.4c0-0.4-0.4-0.8-0.9-0.8h-34.4
		c-0.5,0-0.9,0.4-0.9,0.8v0.4h-34.4c-0.4,0-0.7,0.3-0.7,0.6v0.5h-32.1V177c0-0.3-0.3-0.6-0.7-0.6h-36.5v-0.4
		C134.1,175.5,133.7,175.1,133.2,175.1z"/>
	<path d="M133.2,166.7h-29l0,5.8h29c0.5,0,0.9-0.4,0.9-0.8v-0.4h36.5c0.4,0,0.7-0.3,0.7-0.6v-0.3H203v0.3c0,0.3,0.3,0.6,0.7,0.6
		h34.9v0.4c0,0.4,0.4,0.8,0.9,0.8H274c0.5,0,0.9-0.4,0.9-0.8v-0.4h24.9l0-3.4h-24.9v-0.4c0-0.4-0.4-0.8-0.9-0.8h-34.4
		c-0.5,0-0.9,0.4-0.9,0.8v0.4h-34.9c-0.4,0-0.7,0.3-0.7,0.6v0.5h-31.6v-0.5c0-0.3-0.3-0.6-0.7-0.6h-36.5v-0.4
		C134.1,167,133.7,166.7,133.2,166.7z"/>
	<path d="M582.7,257.1h34.4c0.5,0,0.9-0.4,0.9-0.8v-0.4h25l0-3.4h-25v-0.4c0-0.4-0.4-0.8-0.9-0.8h-34.4c-0.5,0-0.9,0.4-0.9,0.8v0.4
		h-36.5c-0.4,0-0.7,0.3-0.7,0.6v0.5h-36v-0.5c0-0.3-0.3-0.6-0.7-0.6h-34.6v-0.4c0-0.4-0.4-0.8-0.9-0.8h-24.7l0,5.8h24.7
		c0.5,0,0.9-0.4,0.9-0.8v-0.4h34.6c0.4,0,0.7-0.3,0.7-0.6V255h36v0.3c0,0.3,0.3,0.6,0.7,0.6h36.5v0.4
		C581.8,256.7,582.2,257.1,582.7,257.1z"/>
	<path d="M582.7,248.6h34.4c0.5,0,0.9-0.4,0.9-0.8v-0.4h25l0-3.4h-25v-0.4c0-0.4-0.4-0.8-0.9-0.8h-34.4c-0.5,0-0.9,0.4-0.9,0.8v0.4
		h-36.5c-0.4,0-0.7,0.3-0.7,0.6v0.5h-36v-0.5c0-0.3-0.3-0.6-0.7-0.6h-34.6v-0.4c0-0.4-0.4-0.8-0.9-0.8h-24.7l0,5.8h24.7
		c0.5,0,0.9-0.4,0.9-0.8v-0.4h34.6c0.4,0,0.7-0.3,0.7-0.6v-0.3h36v0.3c0,0.3,0.3,0.6,0.7,0.6h36.5v0.4
		C581.8,248.2,582.2,248.6,582.7,248.6z"/>
	<path d="M472.4,240.1c0.5,0,0.9-0.4,0.9-0.8v-0.4h34.6c0.4,0,0.7-0.3,0.7-0.6V238h36v0.3c0,0.3,0.3,0.6,0.7,0.6h36.5v0.4
		c0,0.4,0.4,0.8,0.9,0.8h34.4c0.5,0,0.9-0.4,0.9-0.8v-0.4h25l0-3.4h-25v-0.4c0-0.4-0.4-0.8-0.9-0.8h-34.4c-0.5,0-0.9,0.4-0.9,0.8
		v0.4h-36.5c-0.4,0-0.7,0.3-0.7,0.6v0.5h-36v-0.5c0-0.3-0.3-0.6-0.7-0.6h-34.6v-0.4c0-0.4-0.4-0.8-0.9-0.8h-24.7l0,5.8H472.4z"/>
	<path d="M472.4,231.6c0.5,0,0.9-0.4,0.9-0.8v-0.4h34.6c0.4,0,0.7-0.3,0.7-0.6v-0.3h36v0.3c0,0.3,0.3,0.6,0.7,0.6h36.5v0.4
		c0,0.4,0.4,0.8,0.9,0.8h34.4c0.5,0,0.9-0.4,0.9-0.8v-0.4h25l0-3.4h-25v-0.4c0-0.4-0.4-0.8-0.9-0.8h-34.4c-0.5,0-0.9,0.4-0.9,0.8
		v0.4h-36.5c-0.4,0-0.7,0.3-0.7,0.6v0.5h-36v-0.5c0-0.3-0.3-0.6-0.7-0.6h-34.6v-0.4c0-0.4-0.4-0.8-0.9-0.8h-24.7l0,5.8H472.4z"/>
	<path d="M472.4,217.3h-24.7l0,5.8h24.7c0.5,0,0.9-0.4,0.9-0.8v-0.4h34.6c0.4,0,0.7-0.3,0.7-0.6V221h36v0.3c0,0.3,0.3,0.6,0.7,0.6
		h36.5v0.4c0,0.4,0.4,0.8,0.9,0.8h34.4c0.5,0,0.9-0.4,0.9-0.8v-0.4h25l0-3.4h-25v-0.4c0-0.4-0.4-0.8-0.9-0.8h-34.4
		c-0.5,0-0.9,0.4-0.9,0.8v0.4h-36.5c-0.4,0-0.7,0.3-0.7,0.6v0.5h-36v-0.5c0-0.3-0.3-0.6-0.7-0.6h-34.6v-0.4
		C473.3,217.7,472.9,217.3,472.4,217.3z"/>
	<path d="M472.4,214.6c0.5,0,0.9-0.4,0.9-0.8v-0.4h34.6c0.4,0,0.7-0.3,0.7-0.6v-0.3h36v0.3c0,0.3,0.3,0.6,0.7,0.6h36.5v0.4
		c0,0.4,0.4,0.8,0.9,0.8h34.4c0.5,0,0.9-0.4,0.9-0.8v-0.4h25l0-3.4h-25v-0.4c0-0.4-0.4-0.8-0.9-0.8h-34.4c-0.5,0-0.9,0.4-0.9,0.8
		v0.4h-36.5c-0.4,0-0.7,0.3-0.7,0.6v0.5h-36v-0.5c0-0.3-0.3-0.6-0.7-0.6h-34.6v-0.4c0-0.4-0.4-0.8-0.9-0.8h-24.7l0,5.8H472.4z"/>
	<path d="M472.5,297.8v-0.3h36v0.3c0,0.3,0.3,0.6,0.7,0.6h36.5v0.4c0,0.4,0.4,0.8,0.9,0.8h34.4c0.5,0,0.9-0.4,0.9-0.8v-0.4h34.4
		c0.4,0,0.7-0.3,0.7-0.6v-0.3h26.2l0-1.4h-26.2v-0.5c0-0.3-0.3-0.6-0.7-0.6H582v-0.4c0-0.4-0.4-0.8-0.9-0.8h-34.4
		c-0.5,0-0.9,0.4-0.9,0.8v0.4h-36.5c-0.4,0-0.7,0.3-0.7,0.6v0.5h-36v-0.5c0-0.3-0.3-0.6-0.7-0.6h-24.1l0,3.4h24.1
		C472.2,298.4,472.5,298.1,472.5,297.8z"/>
	<path d="M546.6,291.1h34.4c0.5,0,0.9-0.4,0.9-0.8v-0.4h34.4c0.4,0,0.7-0.3,0.7-0.6V289h26.2l0-1.4h-26.2v-0.5
		c0-0.3-0.3-0.6-0.7-0.6H582v-0.4c0-0.4-0.4-0.8-0.9-0.8h-34.4c-0.5,0-0.9,0.4-0.9,0.8v0.4h-36.5c-0.4,0-0.7,0.3-0.7,0.6v0.5h-36
		v-0.5c0-0.3-0.3-0.6-0.7-0.6h-24.1l0,3.4h24.1c0.4,0,0.7-0.3,0.7-0.6V289h36v0.3c0,0.3,0.3,0.6,0.7,0.6h36.5v0.4
		C545.7,290.7,546.1,291.1,546.6,291.1z"/>
	<path d="M546.6,282.6h34.4c0.5,0,0.9-0.4,0.9-0.8v-0.4h34.4c0.4,0,0.7-0.3,0.7-0.6v-0.3h26.2l0-1.4h-26.2v-0.5
		c0-0.3-0.3-0.6-0.7-0.6H582v-0.4c0-0.4-0.4-0.8-0.9-0.8h-34.4c-0.5,0-0.9,0.4-0.9,0.8v0.4h-36.5c-0.4,0-0.7,0.3-0.7,0.6v0.5h-36
		v-0.5c0-0.3-0.3-0.6-0.7-0.6h-24.1l0,3.4h24.1c0.4,0,0.7-0.3,0.7-0.6v-0.3h36v0.3c0,0.3,0.3,0.6,0.7,0.6h36.5v0.4
		C545.7,282.3,546.1,282.6,546.6,282.6z"/>
	<path d="M643.1,271.7l0-1h-26v-0.5c0-0.3-0.3-0.6-0.7-0.6H582v-0.4c0-0.4-0.4-0.8-0.9-0.8h-34.4c-0.5,0-0.9,0.4-0.9,0.8v0.4h-36.5
		c-0.4,0-0.7,0.3-0.7,0.6v0.5h-36v-0.5c0-0.3-0.3-0.6-0.7-0.6h-24.1l0,3.4h24.1c0.4,0,0.7-0.3,0.7-0.6v-0.3h36v0.3
		c0,0.3,0.3,0.6,0.7,0.6h36.5v0.4c0,0.4,0.4,0.8,0.9,0.8h34.4c0.5,0,0.9-0.4,0.9-0.8v-0.4h34.4c0.4,0,0.7-0.3,0.7-0.6v-0.3h26.2
		l0-0.4H643.1z"/>
	<path d="M471.8,264.4c0.4,0,0.7-0.3,0.7-0.6v-0.3h36v0.3c0,0.3,0.3,0.6,0.7,0.6h36.5v0.4c0,0.4,0.4,0.8,0.9,0.8h34.4
		c0.5,0,0.9-0.4,0.9-0.8v-0.4h34.4c0.4,0,0.7-0.3,0.7-0.6v-0.3h26l0-1.4h-26v-0.5c0-0.3-0.3-0.6-0.7-0.6H582v-0.4
		c0-0.4-0.4-0.8-0.9-0.8h-34.4c-0.5,0-0.9,0.4-0.9,0.8v0.4h-36.5c-0.4,0-0.7,0.3-0.7,0.6v0.5h-36v-0.5c0-0.3-0.3-0.6-0.7-0.6h-24.1
		l0,3.4H471.8z"/>
	<path d="M616.9,337.1c-0.4,0-0.7,0.3-0.7,0.6v0.5h-35.8v-0.5c0-0.3-0.3-0.6-0.7-0.6h-34.4v-0.4c0-0.4-0.4-0.8-0.9-0.8h-34.4
		c-0.5,0-0.9,0.4-0.9,0.8v0.4h-36.5c-0.4,0-0.7,0.3-0.7,0.6v0.5h-24l0,1.4h24v0.3c0,0.3,0.3,0.6,0.7,0.6H509v0.4
		c0,0.4,0.4,0.8,0.9,0.8h34.4c0.5,0,0.9-0.4,0.9-0.8v-0.4h34.4c0.4,0,0.7-0.3,0.7-0.6v-0.3h35.8v0.3c0,0.3,0.3,0.6,0.7,0.6h26.3
		l0-3.4H616.9z"/>
	<path d="M616.9,332h26.3l0-3.4h-26.3c-0.4,0-0.7,0.3-0.7,0.6v0.5h-35.8v-0.5c0-0.3-0.3-0.6-0.7-0.6h-34.4v-0.4
		c0-0.4-0.4-0.8-0.9-0.8h-34.4c-0.5,0-0.9,0.4-0.9,0.8v0.4h-36.5c-0.4,0-0.7,0.3-0.7,0.6v0.5h-24l0,1.4h24v0.3
		c0,0.3,0.3,0.6,0.7,0.6H509v0.4c0,0.4,0.4,0.8,0.9,0.8h34.4c0.5,0,0.9-0.4,0.9-0.8V332h34.4c0.4,0,0.7-0.3,0.7-0.6v-0.3h35.8v0.3
		C616.2,331.7,616.5,332,616.9,332z"/>
	<path d="M471.7,322.6v0.3c0,0.3,0.3,0.6,0.7,0.6H509v0.4c0,0.4,0.4,0.8,0.9,0.8h34.4c0.5,0,0.9-0.4,0.9-0.8v-0.4h34.4
		c0.4,0,0.7-0.3,0.7-0.6v-0.3h35.8v0.3c0,0.3,0.3,0.6,0.7,0.6h26.3l0-3.4h-26.3c-0.4,0-0.7,0.3-0.7,0.6v0.5h-35.8v-0.5
		c0-0.3-0.3-0.6-0.7-0.6h-34.4v-0.4c0-0.4-0.4-0.8-0.9-0.8h-34.4c-0.5,0-0.9,0.4-0.9,0.8v0.4h-36.5c-0.4,0-0.7,0.3-0.7,0.6v0.5h-24
		l0,1.4H471.7z"/>
	<path d="M544.3,310.4h-34.4c-0.5,0-0.9,0.4-0.9,0.8v0.4h-36.5c-0.4,0-0.7,0.3-0.7,0.6v0.5h-24l0,1.4h24v0.3c0,0.3,0.3,0.6,0.7,0.6
		H509v0.4c0,0.4,0.4,0.8,0.9,0.8h34.4c0.5,0,0.9-0.4,0.9-0.8V315h34.4c0.4,0,0.7-0.3,0.7-0.6v-0.3h35.8v0.3c0,0.3,0.3,0.6,0.7,0.6
		h26.3l0-3.4h-26.3c-0.4,0-0.7,0.3-0.7,0.6v0.5h-35.8v-0.5c0-0.3-0.3-0.6-0.7-0.6h-34.4v-0.4C545.3,310.8,544.9,310.4,544.3,310.4z"
		/>
	<path d="M616.2,303.7v0.5h-35.8v-0.5c0-0.3-0.3-0.6-0.7-0.6h-34.4v-0.4c0-0.4-0.4-0.8-0.9-0.8h-34.4c-0.5,0-0.9,0.4-0.9,0.8v0.4
		h-36.5c-0.4,0-0.7,0.3-0.7,0.6v0.5h-24l0,1.4h24v0.3c0,0.3,0.3,0.6,0.7,0.6H509v0.4c0,0.4,0.4,0.8,0.9,0.8h34.4
		c0.5,0,0.9-0.4,0.9-0.8v-0.4h34.4c0.4,0,0.7-0.3,0.7-0.6v-0.3h35.8v0.3c0,0.3,0.3,0.6,0.7,0.6h26.4l0-3.4h-26.4
		C616.5,303.1,616.2,303.4,616.2,303.7z"/>
	<path d="M578.3,370.7c-0.4,0-0.7,0.3-0.7,0.6v0.5h-32.1v-0.5c0-0.3-0.3-0.6-0.7-0.6h-34.4v-0.4c0-0.4-0.4-0.8-0.9-0.8h-18.5
		c6.1,1.8,12.6,3.4,19.4,4.7V374h34.4c0.4,0,0.7-0.3,0.7-0.6v-0.3h32.1v0.3c0,0.3,0.3,0.6,0.7,0.6h0c5.1-1,10.1-2.1,14.9-3.4H578.3z
		"/>
	<path d="M615.8,361c-0.5,0-0.9,0.4-0.9,0.8v0.4h-36.5c-0.4,0-0.7,0.3-0.7,0.6v0.5h-32.1v-0.5c0-0.3-0.3-0.6-0.7-0.6h-34.4v-0.4
		c0-0.4-0.4-0.8-0.9-0.8H475c-0.5,0-0.9,0.4-0.9,0.8v0.4h-5c3.9,1.5,8.3,3.1,13,4.6h27.3c0.5,0,0.9-0.4,0.9-0.8v-0.4h34.4
		c0.4,0,0.7-0.3,0.7-0.6v-0.3h32.1v0.3c0,0.3,0.3,0.6,0.7,0.6h32.3c4.8-1.6,9.2-3.1,13.2-4.6H615.8z"/>
	<path d="M509.4,352.5H475c-0.5,0-0.9,0.4-0.9,0.8v0.4h-24.8c1.2,0.6,3.7,1.8,7.3,3.4h17.4v0.4c0,0.4,0.4,0.8,0.9,0.8h34.4
		c0.5,0,0.9-0.4,0.9-0.8v-0.4h34.4c0.4,0,0.7-0.3,0.7-0.6v-0.3h32.1v0.3c0,0.3,0.3,0.6,0.7,0.6h36.5v0.4c0,0.4,0.4,0.8,0.9,0.8h15.1
		c7.7-3.1,12.3-5.3,12.3-5.3l0-0.5h-27.4c-0.5,0-0.9,0.4-0.9,0.8v0.4h-36.5c-0.4,0-0.7,0.3-0.7,0.6v0.5h-32.1v-0.5
		c0-0.3-0.3-0.6-0.7-0.6h-34.4v-0.4C510.4,352.8,510,352.5,509.4,352.5z"/>
	<path d="M509.4,344H475c-0.5,0-0.9,0.4-0.9,0.8v0.4h-26.4l0,3.4h26.4v0.4c0,0.4,0.4,0.8,0.9,0.8h34.4c0.5,0,0.9-0.4,0.9-0.8v-0.4
		h34.9c0.4,0,0.7-0.3,0.7-0.6v-0.3h31.6v0.3c0,0.3,0.3,0.6,0.7,0.6h36.5v0.4c0,0.4,0.4,0.8,0.9,0.8h27.4l0-5.8h-27.4
		c-0.5,0-0.9,0.4-0.9,0.8v0.4h-36.5c-0.4,0-0.7,0.3-0.7,0.6v0.5H546v-0.5c0-0.3-0.3-0.6-0.7-0.6h-34.9v-0.4
		C510.4,344.4,510,344,509.4,344z"/>
	<path d="M473.3,78.9v-0.4h34.6c0.4,0,0.7-0.3,0.7-0.6v-0.3h36v0.3c0,0.3,0.3,0.6,0.7,0.6h36.5v0.4c0,0.4,0.4,0.8,0.9,0.8h34.4
		c0.2,0,0.3,0,0.4-0.1c0.1-1.8,0.2-3.5,0.3-5.3c-0.2-0.2-0.4-0.3-0.7-0.3h-34.4c-0.5,0-0.9,0.4-0.9,0.8v0.4h-36.5
		c-0.4,0-0.7,0.3-0.7,0.6v0.5h-36v-0.5c0-0.3-0.3-0.6-0.7-0.6h-34.6v-0.4c0-0.4-0.4-0.8-0.9-0.8H472c0.1,2,0.3,3.9,0.4,5.8
		C472.9,79.7,473.3,79.3,473.3,78.9z"/>
	<path d="M618.1,66.6v-0.4c0-0.4-0.4-0.8-0.9-0.8h-34.4c-0.5,0-0.9,0.4-0.9,0.8v0.4h-17.2c-3.2,1.5-6.6,2.6-10.2,3.4h27.3v0.4
		c0,0.4,0.4,0.8,0.9,0.8h34.4c0.5,0,0.9-0.4,0.9-0.8V70h0.2c0.1-1.1,0.2-2.2,0.3-3.4H618.1z"/>
	<path d="M472.4,71.2c0.5,0,0.9-0.4,0.9-0.8V70h34.6c0.4,0,0.7-0.3,0.7-0.6v-0.3h24.5c-1.3-0.4-2.7-0.9-4-1.4h-20.5v-0.5
		c0-0.3-0.3-0.6-0.7-0.6h-34.6v-0.4c0-0.4-0.4-0.8-0.9-0.8h-1.1c0.2,2,0.4,3.9,0.5,5.8H472.4z"/>
	<path d="M473.3,61.9v-0.4h34.6c0.4,0,0.7-0.3,0.7-0.6v-0.3h7.4c-0.6-0.4-1.3-0.9-1.9-1.4h-5.5v-0.5c0-0.3-0.3-0.6-0.7-0.6h-34.6
		v-0.4c0-0.4-0.4-0.8-0.9-0.8h-2.1l0.1,0.7c0.2,1.7,0.4,3.4,0.6,5h1.4C472.9,62.7,473.3,62.4,473.3,61.9z"/>
	<path d="M582.7,62.7h34.4c0.5,0,0.9-0.4,0.9-0.8v-0.4h1c0.1-1.1,0.3-2.2,0.4-3.4h-1.4v-0.4c0-0.4-0.4-0.8-0.9-0.8h-34.4
		c-0.5,0-0.9,0.4-0.9,0.8v0.4h-3.1c-1.6,1.2-3.2,2.3-4.8,3.4h7.9V62C581.8,62.4,582.2,62.7,582.7,62.7z"/>
	<path d="M502,49.7h-8.1l-11.2,3.4h23.8C505.3,52,503.6,50.6,502,49.7z"/>
	<path d="M583.7,54.2C583.7,54.2,583.7,54.2,583.7,54.2l31.1,0.1l-19-5.8h-4c-1.3,0.3-3.4,2-5.1,3.4
		C585.7,52.7,584.7,53.5,583.7,54.2z"/>
	<path d="M546.6,122.2h34.4c0.5,0,0.9-0.4,0.9-0.8V121h34.4c0.4,0,0.7-0.3,0.7-0.6v-0.3h2.8c-0.1-0.5-0.2-0.9-0.3-1.4h-2.5v-0.5
		c0-0.3-0.3-0.6-0.7-0.6H582v-0.4c0-0.4-0.4-0.8-0.9-0.8h-34.4c-0.5,0-0.9,0.4-0.9,0.8v0.4h-36.5c-0.4,0-0.7,0.3-0.7,0.6v0.5h-36
		v-0.5c0-0.3-0.3-0.6-0.7-0.6h-1.1c-0.2,1.1-0.4,2.3-0.7,3.4h1.8c0.4,0,0.7-0.3,0.7-0.6v-0.3h36v0.3c0,0.3,0.3,0.6,0.7,0.6h36.5v0.4
		C545.7,121.9,546.1,122.2,546.6,122.2z"/>
	<path d="M546.6,113.8h34.4c0.5,0,0.9-0.4,0.9-0.8v-0.4h34.4c0.4,0,0.7-0.3,0.7-0.6v-0.3h1.4c-0.1-0.5-0.1-0.9-0.2-1.4h-1.2v-0.5
		c0-0.3-0.3-0.6-0.7-0.6H582v-0.4c0-0.4-0.4-0.8-0.9-0.8h-34.4c-0.5,0-0.9,0.4-0.9,0.8v0.4h-36.5c-0.4,0-0.7,0.3-0.7,0.6v0.5h-36
		v-0.5c0-0.3-0.3-0.6-0.7-0.6c-0.1,1.1-0.3,2.3-0.4,3.4h0.4c0.4,0,0.7-0.3,0.7-0.6v-0.3h36v0.3c0,0.3,0.3,0.6,0.7,0.6h36.5v0.4
		C545.7,113.4,546.1,113.8,546.6,113.8z"/>
	<path d="M617.1,101.8v-0.5c0-0.3-0.3-0.6-0.7-0.6H582v-0.4c0-0.4-0.4-0.8-0.9-0.8h-34.4c-0.5,0-0.9,0.4-0.9,0.8v0.4h-36.5
		c-0.4,0-0.7,0.3-0.7,0.6v0.5h-36v-0.5c0,0,0-0.1,0-0.1c0,0.9-0.1,1.8-0.2,2.7c0.1-0.1,0.2-0.3,0.2-0.4v-0.3h36v0.3
		c0,0.3,0.3,0.6,0.7,0.6h36.5v0.4c0,0.4,0.4,0.8,0.9,0.8h34.4c0.5,0,0.9-0.4,0.9-0.8v-0.4h34.4c0.4,0,0.7-0.3,0.7-0.6v-0.3h0.6
		c0-0.5-0.1-0.9-0.1-1.4H617.1z"/>
	<path d="M617.1,93.3v-0.5c0-0.3-0.3-0.6-0.7-0.6H582v-0.4c0-0.4-0.4-0.8-0.9-0.8h-34.4c-0.5,0-0.9,0.4-0.9,0.8v0.4h-36.5
		c-0.4,0-0.7,0.3-0.7,0.6v0.5h-35.8c0,0.5,0,0.9,0,1.4h35.8V95c0,0.3,0.3,0.6,0.7,0.6h36.5V96c0,0.4,0.4,0.8,0.9,0.8h34.4
		c0.5,0,0.9-0.4,0.9-0.8v-0.4h34.4c0.4,0,0.7-0.3,0.7-0.6v-0.3h0.2c0-0.5,0-0.9,0-1.4H617.1z"/>
	<path d="M617.1,84.8v-0.5c0-0.3-0.3-0.6-0.7-0.6H582v-0.4c0-0.4-0.4-0.8-0.9-0.8h-34.4c-0.5,0-0.9,0.4-0.9,0.8v0.4h-36.5
		c-0.4,0-0.7,0.3-0.7,0.6v0.5h-35.9c0,0.5,0,0.9,0,1.4h35.8v0.3c0,0.3,0.3,0.6,0.7,0.6h36.5v0.4c0,0.4,0.4,0.8,0.9,0.8h34.4
		c0.5,0,0.9-0.4,0.9-0.8v-0.4h34.4c0.4,0,0.7-0.3,0.7-0.6v-0.3h0.3c0-0.5,0-0.9,0-1.4H617.1z"/>
	<path d="M469.6,162.2v0.3c0,0.3,0.3,0.6,0.7,0.6h36.5v0.4c0,0.4,0.4,0.8,0.9,0.8h34.4c0.5,0,0.9-0.4,0.9-0.8v-0.4h34.4
		c0.4,0,0.7-0.3,0.7-0.6v-0.3h35.8v0.3c0,0.3,0.3,0.6,0.7,0.6h28.1c-1-0.6-2.4-1.8-4-3.4h-24.1c-0.4,0-0.7,0.3-0.7,0.6v0.5h-35.8
		v-0.5c0-0.3-0.3-0.6-0.7-0.6h-34.4v-0.4c0-0.4-0.4-0.8-0.9-0.8h-34.4c-0.5,0-0.9,0.4-0.9,0.8v0.4h-36.5c-0.4,0-0.7,0.3-0.7,0.6v0.5
		h-19.7c-0.6,0.5-1.1,1-1.6,1.4H469.6z"/>
	<path d="M469.6,153.8v0.3c0,0.3,0.3,0.6,0.7,0.6h36.5v0.4c0,0.4,0.4,0.8,0.9,0.8h34.4c0.5,0,0.9-0.4,0.9-0.8v-0.4h34.4
		c0.4,0,0.7-0.3,0.7-0.6v-0.3h35.8v0.3c0,0.3,0.3,0.6,0.7,0.6h19.7c-0.8-1-1.6-2.2-2.4-3.4h-17.3c-0.4,0-0.7,0.3-0.7,0.6v0.5h-35.8
		v-0.5c0-0.3-0.3-0.6-0.7-0.6h-34.4v-0.4c0-0.4-0.4-0.8-0.9-0.8h-34.4c-0.5,0-0.9,0.4-0.9,0.8v0.4h-36.5c-0.4,0-0.7,0.3-0.7,0.6v0.5
		h-12.5c-0.3,0.5-0.7,0.9-1,1.4H469.6z"/>
	<path d="M469.6,145.3v0.3c0,0.3,0.3,0.6,0.7,0.6h36.5v0.4c0,0.4,0.4,0.8,0.9,0.8h34.4c0.5,0,0.9-0.4,0.9-0.8v-0.4h34.4
		c0.4,0,0.7-0.3,0.7-0.6v-0.3h35.8v0.3c0,0.3,0.3,0.6,0.7,0.6H629c-0.6-1.1-1.2-2.2-1.7-3.4h-12.5c-0.4,0-0.7,0.3-0.7,0.6v0.5h-35.8
		v-0.5c0-0.3-0.3-0.6-0.7-0.6h-34.4v-0.4c0-0.4-0.4-0.8-0.9-0.8h-34.4c-0.5,0-0.9,0.4-0.9,0.8v0.4h-36.5c-0.4,0-0.7,0.3-0.7,0.6v0.5
		h-7.5c-0.2,0.5-0.5,0.9-0.7,1.4H469.6z"/>
	<path d="M469.6,136.8v0.3c0,0.3,0.3,0.6,0.7,0.6h36.5v0.4c0,0.4,0.4,0.8,0.9,0.8h34.4c0.5,0,0.9-0.4,0.9-0.8v-0.4h34.4
		c0.4,0,0.7-0.3,0.7-0.6v-0.3h35.8v0.3c0,0.3,0.3,0.6,0.7,0.6H625c-0.4-1.1-0.9-2.2-1.3-3.4h-9c-0.4,0-0.7,0.3-0.7,0.6v0.5h-35.8
		v-0.5c0-0.3-0.3-0.6-0.7-0.6h-34.4v-0.4c0-0.4-0.4-0.8-0.9-0.8h-34.4c-0.5,0-0.9,0.4-0.9,0.8v0.4h-36.5c-0.4,0-0.7,0.3-0.7,0.6v0.5
		h-3.7c-0.2,0.5-0.4,0.9-0.5,1.4H469.6z"/>
	<path d="M469.6,128.3v0.3c0,0.3,0.3,0.6,0.7,0.6h36.5v0.4c0,0.4,0.4,0.8,0.9,0.8h34.4c0.5,0,0.9-0.4,0.9-0.8v-0.4h34.4
		c0.4,0,0.7-0.3,0.7-0.6v-0.3h35.8v0.3c0,0.3,0.3,0.6,0.7,0.6h7.3c-0.3-1.1-0.6-2.2-0.9-3.4h-6.4c-0.4,0-0.7,0.3-0.7,0.6v0.5h-35.8
		v-0.5c0-0.3-0.3-0.6-0.7-0.6h-34.4v-0.4c0-0.4-0.4-0.8-0.9-0.8h-34.4c-0.5,0-0.9,0.4-0.9,0.8v0.4h-36.5c-0.4,0-0.7,0.3-0.7,0.6v0.5
		h-1c-0.1,0.5-0.3,0.9-0.4,1.4H469.6z"/>
	<path d="M615.8,206.4h27.4l0-5.8h-27.4c-0.5,0-0.9,0.4-0.9,0.8v0.4h-36.5c-0.4,0-0.7,0.3-0.7,0.6v0.5h-32.1v-0.5
		c0-0.3-0.3-0.6-0.7-0.6h-34.4v-0.4c0-0.4-0.4-0.8-0.9-0.8H475c-0.5,0-0.9,0.4-0.9,0.8v0.4h-26.5l0,3.4h26.5v0.4
		c0,0.4,0.4,0.8,0.9,0.8h34.4c0.5,0,0.9-0.4,0.9-0.8v-0.4h34.4c0.4,0,0.7-0.3,0.7-0.6v-0.3h32.1v0.3c0,0.3,0.3,0.6,0.7,0.6h36.5v0.4
		C614.8,206,615.3,206.4,615.8,206.4z"/>
	<path d="M474.1,196.7v0.4c0,0.4,0.4,0.8,0.9,0.8h34.4c0.5,0,0.9-0.4,0.9-0.8v-0.4h34.4c0.4,0,0.7-0.3,0.7-0.6v-0.3h32.1v0.3
		c0,0.3,0.3,0.6,0.7,0.6h36.5v0.4c0,0.4,0.4,0.8,0.9,0.8h27.4l0-5.8h-27.4c-0.5,0-0.9,0.4-0.9,0.8v0.4h-36.5c-0.4,0-0.7,0.3-0.7,0.6
		v0.5h-32.1v-0.5c0-0.3-0.3-0.6-0.7-0.6h-34.4v-0.4c0-0.4-0.4-0.8-0.9-0.8H475c-0.5,0-0.9,0.4-0.9,0.8v0.4h-26.5l0,3.4H474.1z"/>
	<path d="M509.4,183.6H475c-0.5,0-0.9,0.4-0.9,0.8v0.4h-26.5l0,3.4h26.5v0.4c0,0.4,0.4,0.8,0.9,0.8h34.4c0.5,0,0.9-0.4,0.9-0.8v-0.4
		h34.4c0.4,0,0.7-0.3,0.7-0.6v-0.3h32.1v0.3c0,0.3,0.3,0.6,0.7,0.6h36.5v0.4c0,0.4,0.4,0.8,0.9,0.8h27.4l0-5.8h-27.4
		c-0.5,0-0.9,0.4-0.9,0.8v0.4h-36.5c-0.4,0-0.7,0.3-0.7,0.6v0.5h-32.1v-0.5c0-0.3-0.3-0.6-0.7-0.6h-34.4v-0.4
		C510.4,184,510,183.6,509.4,183.6z"/>
	<path d="M509.4,175.1H475c-0.5,0-0.9,0.4-0.9,0.8v0.4h-26.5l0,3.4h26.5v0.4c0,0.4,0.4,0.8,0.9,0.8h34.4c0.5,0,0.9-0.4,0.9-0.8v-0.4
		h34.4c0.4,0,0.7-0.3,0.7-0.6v-0.3h32.1v0.3c0,0.3,0.3,0.6,0.7,0.6h36.5v0.4c0,0.4,0.4,0.8,0.9,0.8h27.4l0-5.8h-27.4
		c-0.5,0-0.9,0.4-0.9,0.8v0.4h-36.5c-0.4,0-0.7,0.3-0.7,0.6v0.5h-32.1V177c0-0.3-0.3-0.6-0.7-0.6h-34.4v-0.4
		C510.4,175.5,510,175.1,509.4,175.1z"/>
	<path d="M509.4,166.7H475c-0.5,0-0.9,0.4-0.9,0.8v0.4h-26.5l0,3.4h26.5v0.4c0,0.4,0.4,0.8,0.9,0.8h34.4c0.5,0,0.9-0.4,0.9-0.8v-0.4
		h34.9c0.4,0,0.7-0.3,0.7-0.6v-0.3h31.6v0.3c0,0.3,0.3,0.6,0.7,0.6h36.5v0.4c0,0.4,0.4,0.8,0.9,0.8h27.4l0-5.8h-27.4
		c-0.5,0-0.9,0.4-0.9,0.8v0.4h-36.5c-0.4,0-0.7,0.3-0.7,0.6v0.5H546v-0.5c0-0.3-0.3-0.6-0.7-0.6h-34.9v-0.4
		C510.4,167,510,166.7,509.4,166.7z"/>
</g>
</svg>
