<?xml version="1.0" encoding="utf-8"?>
<!-- Generator: Adobe Illustrator 25.3.0, SVG Export Plug-In . SVG Version: 6.00 Build 0)  -->
<svg version="1.1" id="Layer_1" xmlns="http://www.w3.org/2000/svg" xmlns:xlink="http://www.w3.org/1999/xlink" x="0px" y="0px"
	 viewBox="0 0 750.2 400.1" style="enable-background:new 0 0 750.2 400.1;" xml:space="preserve">
<path d="M262.4,338.5L247.6,355c4.9-0.1,9.7-0.3,14.3-0.4l6-6.7l25,4.6l-1.1,1.2c5.1-0.2,8-0.3,8-0.3l0-8.6l-0.5,0.5L262.4,338.5z"
	/>
<path d="M205.6,353.9l-1.8,2.1c3.9-0.1,7.9-0.1,11.9-0.2L205.6,353.9z"/>
<path d="M298.1,312.8l1.7,0.3l-0.1-23.7L286,304l-34.7-6.9l-19.5,20.6l-34.7-6.9l-19.5,20.6l-34.7-6.9l-19.5,20.6l-19.2-3.8l0,7.1
	l16.5,3.3l-2,2.2c4.6,0.2,10.1,0.5,16.2,0.7l0.7-0.7l4.5,0.9c10.7,0.4,22.9,0.8,35,0.9l14.7-15.6l34.7,6.9l19.5-20.6l34.7,6.9
	L298.1,312.8z M161.8,352.2l-23.5-4.6l13.2-14l23.5,4.6L161.8,352.2z M216,338.4l-23.5-4.6l13.1-14l23.5,4.6L216,338.4z M246.7,320
	l13.2-14l23.5,4.6l-13.2,14L246.7,320z"/>
<path d="M299.7,281.6l0-5.9l-12.1-2.6l12.1-12.1l0-6.8l-10.8-2.3l-19,19.1l-32.4-7l-19,19.1l-32.4-7l-19,19.1l-32.4-7l-19,19.1
	l-11.3-2.4l0,5.8l12.4,2.7l-12.4,12.4l0,6.5l11.1,2.4l19-19.1l32.4,7l19-19.1l32.4,7l19-19.1l32.4,7l19-19.1L299.7,281.6z
	 M155.2,314.2l-21.9-4.7l12.9-12.9l21.9,4.7L155.2,314.2z M206.7,302l-21.9-4.7l12.9-12.9l21.9,4.7L206.7,302z M258.1,289.9
	l-21.9-4.7l12.9-12.9L271,277L258.1,289.9z"/>
<path d="M299.7,240.1l-4.9,4.7l-20.4-4.8l12.6-11.9l12.8,3l0-4.4l-27.3-6.5l-18.6,17.6l-30.1-7.2l-18.6,17.6l-30.1-7.2l-18.6,17.6
	l-30.1-7.2l-18.6,17.6l-3.4-0.8l0,4.4l8.2,1.9l-8.2,7.8l0,9.6l10.2,2.4l18.6-17.6l30.1,7.2l18.6-17.6l30.1,7.2l18.6-17.6l30.1,7.2
	l18.6-17.6l20.5,4.9L299.7,240.1z M148.6,276.2l-20.4-4.8l12.6-11.9l20.4,4.8L148.6,276.2z M197.3,265.7l-20.4-4.8l12.6-11.9
	l20.4,4.8L197.3,265.7z M246.1,255.3l-20.4-4.8l12.6-11.9l20.4,4.8L246.1,255.3z"/>
<path d="M131.7,238.2l27.9,7.3l18.1-16.1l27.9,7.3l18.1-16.1l27.9,7.3l18.1-16.1l27.9,7.3l2.1-1.9l0-35.5l-16,14.2l-27.9-7.3
	l-18.1,16.1l-27.9-7.3l-18.1,16.1l-27.9-7.3l-18.1,16.1l-27.9-7.3l-13.6,12.1l0,7.9l4,1.1l-4,3.6l0,12.2l9.3,2.4L131.7,238.2z
	 M273.5,196l18.8,4.9L280,211.8l-18.8-4.9L273.5,196z M227.5,204.8l18.8,4.9L234,220.6l-18.8-4.9L227.5,204.8z M181.5,213.6
	l18.8,4.9L188,229.4l-18.8-4.9L181.5,213.6z M135.4,222.4l18.8,4.9L142,238.2l-18.8-4.9L135.4,222.4z"/>
<path d="M265,164.5l-25.6-7.4l-17.7,14.6l-25.6-7.4l-17.7,14.6l-25.6-7.4l-17.7,14.6l-25.6-7.4l-5.3,4.4l0,28.9l8.5,2.5l17.7-14.6
	L156,207l17.7-14.6l25.6,7.4l17.7-14.6l25.6,7.4l17.7-14.6l25.6,7.4l13.9-11.5l0-5.1l-8.5-2.5l6.6-5.4c-2.1-1.9-4.8-4.9-7.7-9.1
	l-7.5-2.2L265,164.5z M135.4,200.2l-17.3-5l12-9.8l17.3,5L135.4,200.2z M178.7,193l-17.3-5l12-9.8l17.3,5L178.7,193z M222,185.9
	l-17.3-5l12-9.8l17.3,5L222,185.9z M265.3,178.8l-17.3-5l12-9.8l17.3,5L265.3,178.8z"/>
<polygon points="245.2,132.7 222.9,125.5 206.8,137.6 221.6,142.4 211.2,150.3 233.5,157.6 249.6,145.5 234.8,140.6 "/>
<polygon points="209,150.9 210,151.2 211.2,150.3 210.2,150 "/>
<path d="M247.4,132.1l14.8,4.8l-10.5,7.9l22.4,7.3l11.1-8.4c-0.4-0.8-0.8-1.6-1.2-2.4c-0.6-1.2-1.1-2.5-1.6-3.8l-7.1-2.3l4.9-3.7
	c-0.7-2.1-1.3-4.3-1.9-6.6l-15-4.9L247.4,132.1z"/>
<polygon points="249.6,145.5 250.5,145.8 251.7,144.9 250.8,144.5 "/>
<polygon points="166.2,143.1 165.3,142.8 164.1,143.7 165,144 "/>
<polygon points="206.8,137.6 205.9,137.3 204.7,138.2 205.6,138.5 "/>
<polygon points="168.4,156.4 169.4,156.7 170.6,155.8 169.6,155.5 "/>
<polygon points="204.7,138.2 182.3,130.9 166.2,143.1 181.1,147.9 170.6,155.8 193,163.1 209,150.9 194.2,146.1 "/>
<polygon points="164.1,143.7 141.7,136.4 125.7,148.5 140.5,153.3 130,161.2 152.4,168.5 168.4,156.4 153.6,151.6 "/>
<path d="M123.5,149.1l-5.6-1.8c-5.5,9.7-11.3,14.7-13.7,16.3l0,7.9l7.6,2.5l16.1-12.1l-14.8-4.8L123.5,149.1z"/>
<polygon points="125.7,148.5 124.7,148.2 123.5,149.1 124.5,149.4 "/>
<polygon points="247.4,132.1 246.4,131.8 245.2,132.7 246.2,133 "/>
<polygon points="127.9,161.9 128.8,162.2 130,161.2 129.1,160.9 "/>
<path d="M133.6,116.4l-5.9,4.1c-0.2,0.8-0.3,1.5-0.5,2.3l0.6-0.4l21,7.7l16.8-11.5l21,7.7l16.8-11.5l21,7.7l16.8-11.5l21,7.7
	l13.4-9.2c-0.1-0.6-0.1-1.2-0.2-1.8l-1.9,1.3l-14.2-5.2l11.4-7.8l4.1,1.5c-0.1-2-0.1-4.1-0.1-6.2l-9.6,6.6l-21-7.7l-8.8,6.1
	c-1.1,1.5-2.2,2.9-3.4,4.3l1-0.7l14.2,5.2l-11.4,7.8l-12.6-4.6c-5.9,3.8-12.5,5.7-19.6,5.8H202h-0.2l-3.9,2.7l-14.2-5.2l1.8-1.2
	c-5-2.5-9.6-6.3-13.6-11.2l-3.4-1.2l-16.8,11.5l-21-7.7l-0.7,0.5c-0.3,4.4-0.7,8.6-1.3,12.6L133.6,116.4z M157.2,107.4l14.2,5.2
	l-11.4,7.8l-14.2-5.2L157.2,107.4z"/>
<path d="M254.6,65.5l12.7,5.3l-11.1,6.8l-10.1-4.2c-0.9,2.9-1.9,5.7-3,8.6l7.6,3.2l16.4-10l8.2,3.4c0.2-4.4,0.6-9,1.1-13.7L260.1,58
	l-11.9,7.3c-0.4,1.6-0.7,3.2-1.2,4.8L254.6,65.5z"/>
<path d="M145.2,91.5l16.4-10l0.3,0.1c-0.5-1.2-0.9-2.4-1.4-3.6l-9.7,5.9l-12.7-5.3l11.1-6.8l10.8,4.5c-1.3-3.9-2.4-7.6-3.1-11.1
	l-2.1-0.9l-16.4,10l-9-3.8c0.4,5.1,0.7,9.9,0.9,14.5L145.2,91.5z"/>
<polygon points="141.6,53 143.6,52 141,52.7 "/>
<path d="M558.3,376.1l-19.9-22.2l-37,6.7l-19.9-22.2l-33.9,6.2l0,8.5c0,0,0.1,0,0.2,0v0.1c0.1,0,0.3,0.1,0.6,0.1
	c0,0,2.1,1.1,5.9,2.8l-3.3-3.7l25-4.6l13.4,15l-12.4,2.3c5.2,1.8,10.9,3.6,17,5.3l1.9-0.3l1,1.1c5.5,1.4,11.4,2.8,17.4,3.8l-6.4-7.1
	l25-4.6l12.9,14.4c17.1-0.3,34.6-3.6,50-7.7l-0.6-0.6L558.3,376.1z"/>
<path d="M623.2,352l20-4l0-7.1l-22.7,4.5L601,324.7l-34.7,6.9l-19.5-20.6l-34.7,6.9l-19.5-20.6L458,304l-10.4-11l0,21.7l17.7,18.7
	l34.7-6.9l19.5,20.6l34.7-6.9l19.5,20.6l34.7-6.9l8.7,9.3c4.7-1.6,8.9-3.2,12.5-4.6L623.2,352z M473.9,324.6l-13.2-14l23.5-4.6
	l13.2,14L473.9,324.6z M528,338.4l-13.1-14l23.5-4.6l13.1,14L528,338.4z M582.2,352.2l-13.2-14l23.5-4.6l13.2,14L582.2,352.2z"/>
<path d="M558.2,303.4l19,19.1l32.4-7l19,19.1l14.5-3.1l0-5.9l-3,0.6l-12.9-12.9l15.9-3.4l0-5.8l-14.8,3.2l-19-19.1l-32.4,7L558,276
	l-32.4,7l-19-19.1l-32.4,7l-19-19.1l-7.5,1.6l0,10.9l8.8,8.8l-8.7,1.9l0,5.9l7.7-1.7l19,19.1l32.4-7l19,19.1L558.2,303.4z
	 M597.9,296.5l12.9,12.9l-21.9,4.7L576,301.2L597.9,296.5z M485.9,289.9L473.1,277l21.9-4.7l12.9,12.9L485.9,289.9z M546.4,284.4
	l12.9,12.9l-21.9,4.7l-12.9-12.9L546.4,284.4z"/>
<path d="M483.4,263.1l30.1-7.2l18.6,17.6l30.1-7.2l18.6,17.6l30.1-7.2l18.6,17.6l13.7-3.3l0-5.4l-11.7-11.1l11.7-2.8l0-0.2h-0.2
	l0-4.1l-6.7,1.6l-18.6-17.6l-30.1,7.2l-18.6-17.6l-30.1,7.2l-18.6-17.6l-30.1,7.2l-18.6-17.6l-24,5.7l0,4.4l9.4-2.2l12.6,11.9
	l-20.4,4.8l-1.6-1.5l0,6.3l17.2-4.1L483.4,263.1z M603.2,259.4l12.6,11.9l-20.4,4.8l-12.6-11.9L603.2,259.4z M554.5,249l12.6,11.9
	l-20.4,4.8l-12.6-11.9L554.5,249z M505.8,238.5l12.6,11.9l-20.4,4.8l-12.6-11.9L505.8,238.5z"/>
<path d="M492.4,227.9l27.9-7.3l18.1,16.1l27.9-7.3l18.1,16.1l27.9-7.3l18.1,16.1l12.7-3.3l0-8.4l-7.4-6.5l7.4-1.9l0-4.1l-17-15.1
	l-27.9,7.3l-18.1-16.1l-27.9,7.3l-18.1-16.1l-27.9,7.3l-18.1-16.1l-27.9,7.3l-12.7-11.2l0,34.1l26.7-7L492.4,227.9z M608.6,222.4
	l12.3,10.9l-18.8,4.9l-12.3-10.9L608.6,222.4z M562.6,213.6l12.3,10.9l-18.8,4.9l-12.3-10.9L562.6,213.6z M516.6,204.8l12.3,10.9
	l-18.8,4.9l-12.3-10.9L516.6,204.8z M451.7,200.9l18.8-4.9l12.3,10.9l-18.8,4.9L451.7,200.9z"/>
<path d="M447.6,176.9l10.6,8.7l25.6-7.4l17.7,14.6l25.6-7.4l17.7,14.6l25.6-7.4L588,207l25.6-7.4l17.7,14.6l11.8-3.4l0-10.6
	l-3.2-2.6l3.2-0.9l0-11l-8.7-7.1l-25.6,7.4l-17.7-14.6l-25.6,7.4l-17.7-14.6l-25.6,7.4l-17.7-14.6l-25.6,7.4l-17.7-14.6l-3.2,0.9
	c-4,6.2-7.9,9.9-10.3,11.7l4.9,4l-5.2,1.5L447.6,176.9z M614,185.3l12,9.8l-17.3,5l-12-9.8L614,185.3z M570.7,178.2l12,9.8l-17.3,5
	l-12-9.8L570.7,178.2z M527.4,171l12,9.8l-17.3,5l-12-9.8L527.4,171z M484.1,163.9l12,9.8l-17.3,5l-12-9.8L484.1,163.9z"/>
<polygon points="620.5,149.1 619.3,148.2 618.4,148.5 619.6,149.4 "/>
<polygon points="575.6,156.4 591.6,168.5 614,161.2 603.6,153.3 618.4,148.5 602.3,136.4 579.9,143.7 590.4,151.6 "/>
<path d="M616.2,161.9l16.1,12.1l11-3.6l0-7.1c-2.5-1.6-8.5-6.7-14.1-17l-8.6,2.8L631,157L616.2,161.9z"/>
<polygon points="492.3,144.9 493.5,145.8 494.4,145.5 493.2,144.5 "/>
<polygon points="573.4,155.8 574.7,156.7 575.6,156.4 574.4,155.5 "/>
<polygon points="614,161.2 615.2,162.2 616.2,161.9 615,160.9 "/>
<polygon points="532.9,150.3 534.1,151.2 535,150.9 533.8,150 "/>
<path d="M463.4,141.3c-0.7,1.5-1.4,2.9-2.1,4.3l8.7,6.5l22.4-7.3l-10.5-7.9l14.8-4.8L480.6,120l-11.2,3.6c-0.8,3.4-1.8,6.7-2.9,9.9
	l2.2,1.6l-3.1,1C464.9,137.9,464.2,139.6,463.4,141.3z"/>
<polygon points="579.9,143.7 578.7,142.8 577.8,143.1 579,144 "/>
<polygon points="539.4,138.2 538.2,137.3 537.2,137.6 538.4,138.5 "/>
<polygon points="494.4,145.5 510.5,157.6 532.9,150.3 522.4,142.4 537.2,137.6 521.2,125.5 498.8,132.7 509.3,140.6 "/>
<polygon points="498.8,132.7 497.6,131.8 496.7,132.1 497.9,133 "/>
<polygon points="535,150.9 551.1,163.1 573.4,155.8 563,147.9 577.8,143.1 561.7,130.9 539.4,138.2 549.8,146.1 "/>
<path d="M473.2,95.9l11.4,7.8l-12.7,4.7c-0.1,1.1-0.2,2.2-0.4,3.3l10.1,6.9l21-7.7l16.8,11.5l21-7.7l16.8,11.5l21-7.7l16.8,11.5
	l21-7.7l4.8,3.3c-0.2-0.8-0.4-1.5-0.6-2.3l-10.1-6.9l8.3-3c-0.4-2.8-0.7-5.8-0.9-8.8l-4.4-3l-21,7.7l-16.8-11.5l-21,7.7l-16.8-11.5
	l-21,7.7l-16.8-11.5l-21,7.7l-6.1-4.2c0,0.9,0,1.7,0,2.5L473.2,95.9z M586.8,107.4l11.4,7.8l-14.2,5.2l-11.4-7.8L586.8,107.4z
	 M549,103.5l11.4,7.8l-14.2,5.2l-11.4-7.8L549,103.5z M511.1,99.7l11.4,7.8l-14.2,5.2l-11.4-7.8L511.1,99.7z"/>
<path d="M477,75.1l16.4,10l18.8-7.9l16.4,10l18.8-7.9l16.4,10l18.8-7.9l16.4,10l18.6-7.8c0-1.4,0.1-2.8,0.2-4.2l-0.3-0.2l0.3-0.1
	c0.2-3.3,0.4-6.7,0.7-10.1l-12.6,5.3l-16.4-10l-18.8,7.9l-7.9-4.8c-5.3,2.2-11.1,3.5-17.2,3.5c-3.1,0-6.2-0.3-9.5-1.1l-0.6,0.2
	l-1-0.6c-5.6-1.5-11.5-4.2-17.7-8.4L500.3,68l-16.4-10l-12.9,5.4c0.5,4.7,0.9,9.3,1.2,13.7L477,75.1z M594.9,71.9l11.1,6.8L593.3,84
	l-11.1-6.8L594.9,71.9z M559.8,69.8l11.1,6.8l-12.7,5.3l-11.1-6.8L559.8,69.8z M524.6,67.7l11.1,6.8L523,79.7L511.9,73L524.6,67.7z
	 M489.5,65.5l11.1,6.8l-12.7,5.3l-11.1-6.8L489.5,65.5z"/>
<path d="M605.6,51.5l-11.7-3.6l-0.3-0.1c0,0-0.4,0-1.1-0.1l10,5.3L605.6,51.5z"/>
<path d="M499.8,48.6l0.1-0.6h-0.4l-0.7,0.2l4.8,2.6C502.3,49.8,500.9,48.9,499.8,48.6z"/>
</svg>
