<?xml version="1.0" encoding="utf-8"?>
<!-- Generator: Adobe Illustrator 25.3.0, SVG Export Plug-In . SVG Version: 6.00 Build 0)  -->
<svg version="1.1" id="Layer_1" xmlns="http://www.w3.org/2000/svg" xmlns:xlink="http://www.w3.org/1999/xlink" x="0px" y="0px"
	 viewBox="0 0 750.2 400.1" style="enable-background:new 0 0 750.2 400.1;" xml:space="preserve">
<g>
	<polygon points="197,244.4 197,217.9 196.8,217.9 196.8,217.9 196.8,217.8 174.5,244.5 163.4,244.5 196.9,284.7 196.9,244.4 	"/>
	<path d="M107.6,302.3L107.6,302.3l-3.3,3.8l0,32.5l12.8,15.3c3.6,0.2,7.9,0.4,12.6,0.6V329h-22.1V302.3z"/>
	<path d="M141.4,355.1c6.9,0.2,14.3,0.5,21.9,0.7V329h-0.1L141.4,355.1z"/>
	<path d="M196.8,302.3L196.8,302.3L174.5,329h-11.1l22.6,27.1c3.7,0,7.4,0,10.9,0v-27.2h0.1v-26.5H196.8L196.8,302.3z"/>
	<path d="M276.6,354.1c9.9-0.3,17.5-0.6,21-0.7V329h-0.1L276.6,354.1z"/>
	<polygon points="166.8,302.3 166.8,284.7 166.5,284.7 151.9,302.3 152.1,302.3 129.9,329 152.2,329 152.2,302.3 152.3,302.3 
		174.5,329 174.5,302.3 	"/>
	<polygon points="107.3,284.7 122,302.3 122,284.7 	"/>
	<polygon points="136.9,302.3 136.9,284.7 137.2,284.7 151.9,302.3 151.9,284.7 163.3,284.7 163.3,244.5 163.2,244.5 129.7,284.7 
		136.7,284.7 122,302.3 107.7,302.3 129.9,329 129.9,302.3 	"/>
	<polygon points="167,284.7 181.7,302.3 181.7,284.7 	"/>
	<polygon points="196.6,302.2 196.8,302.2 196.8,284.7 196.6,284.7 196.4,284.7 181.7,302.3 196.6,302.3 	"/>
	<polygon points="107.6,244.5 107.6,217.9 107.5,217.9 104.2,221.7 104.2,254.2 129.7,284.7 129.7,244.5 	"/>
	<path d="M286.3,302.2v-17.5h11.4v-40.2h-0.1l-33.5,40.2h-7.4l14.7,17.6v-17.6h14.7l-14.7,17.6h14.7L263.9,329h-22.3v-26.6h0.1
		l22.2,26.6v-26.6h-7.4v-17.6h-0.2l-14.7,17.6h0L219.3,329h11.1L208,355.9c7.4-0.1,15-0.3,22.5-0.5V329h0.1l21.6,25.9
		c4.1-0.1,8.1-0.2,11.9-0.4V329h22.1v-26.6h0.1l13.5,16.2l0-16.3H286.3z"/>
	<polygon points="226.6,302.3 226.6,284.7 226.8,284.7 241.5,302.3 241.5,284.7 230.5,284.7 230.5,244.5 230.6,244.5 264.1,284.7 
		264.1,244.5 286.2,244.5 286.2,217.9 286.3,217.9 286.3,217.9 299.7,234 299.7,217.7 286.3,217.7 286.3,200 271.4,217.9 
		286.1,217.9 263.9,244.5 241.6,244.5 241.6,217.9 241.7,217.9 263.9,244.5 263.9,217.9 256.5,217.9 256.5,200 241.5,217.9 
		241.5,217.9 219.3,244.5 230.4,244.5 196.9,284.7 197,284.7 211.7,302.3 211.7,284.7 226.4,284.7 211.7,302.3 197.1,302.3 
		219.3,329 219.3,302.3 	"/>
	<polygon points="107.1,200 122,217.9 122,200 	"/>
	<polygon points="136.9,217.9 136.9,200 122,217.9 107.7,217.9 129.9,244.5 129.9,217.9 	"/>
	<polygon points="151.9,200 136.9,200 151.9,217.9 	"/>
	<polygon points="166.8,217.9 166.8,200 151.9,217.9 152.1,217.9 129.9,244.5 152.2,244.5 152.2,217.9 152.3,217.9 174.5,244.5 
		174.5,217.9 	"/>
	<polygon points="181.7,200 166.8,200 181.7,217.9 	"/>
	<polygon points="196.6,217.7 196.6,200 181.7,217.9 196.6,217.9 	"/>
	<polygon points="196.8,200 211.7,217.9 211.7,200 	"/>
	<polygon points="226.6,217.9 226.6,200 211.7,217.9 197.1,217.9 219.3,244.5 219.3,217.9 	"/>
	<polygon points="241.5,200 226.6,200 241.5,217.9 	"/>
	<polygon points="271.4,200 256.5,200 271.4,217.9 	"/>
	<path d="M129.7,159.6h-20.8c-2,2-3.6,3.3-4.7,4l0,5.6l25.5,30.6V159.6z"/>
	<polygon points="163.3,159.6 163.2,159.6 129.7,199.8 163.3,199.8 	"/>
	<polygon points="196.9,199.8 196.9,159.5 197,159.5 197,132.9 196.8,132.9 196.8,132.9 196.8,132.9 174.5,159.6 163.4,159.6 	"/>
	<path d="M297.7,161c-0.2-0.2-0.5-0.5-0.7-0.7l-32.9,39.5h33.6V161z"/>
	<polygon points="129.9,159.6 152.2,159.6 152.2,132.9 152.3,132.9 174.5,159.6 174.5,132.9 166.8,132.9 166.8,115.3 166.5,115.3 
		151.9,132.9 152.1,132.9 	"/>
	<path d="M129.9,132.9h7.1v-17.6h0.2l14.7,17.6v-17.6h11.4V84.9c-1-2.2-1.9-4.4-2.7-6.6l-30.9,37h7l-11,13.2
		c-1.3,4.6-2.9,8.9-4.8,12.9c-0.8,1.6-1.5,3.1-2.3,4.6l11.3,13.5V132.9z"/>
	<polygon points="181.7,115.3 167,115.3 181.7,132.9 	"/>
	<polygon points="196.6,132.8 196.8,132.8 196.8,115.3 196.6,115.3 196.4,115.3 181.7,132.9 196.6,132.9 	"/>
	<path d="M129.7,75.1L129.7,75.1c-0.1,0.4,0,0.8,0,1.2V75.1z"/>
	<path d="M128.7,114.2l1,1.2v-9.9C129.4,108.4,129.1,111.3,128.7,114.2z"/>
	<path d="M195.2,113.3l1.7,2v-1.8C196.3,113.5,195.8,113.4,195.2,113.3z"/>
	<path d="M278.4,124.6l-7,8.4h9.4C279.9,130.3,279.1,127.5,278.4,124.6z"/>
	<path d="M271.4,132.9v-17.6h5.2c-0.7-4.2-1.1-8.6-1.4-13.2l-11,13.2h-7.4L271.4,132.9z"/>
	<path d="M230.5,159.6L230.5,159.6l33.6,40.2v-40.2h22.1v-14.1c-0.7-1.3-1.4-2.7-2.1-4.2c-0.6-1.3-1.2-2.6-1.7-3.9l-18.5,22.2h-22.3
		v-26.6h0.1l22.2,26.6v-26.6h-7.4v-17.6h-0.2l-14.7,17.6h0l-22.2,26.6H230.5l-33.6,40.2h33.6V159.6z"/>
	<path d="M129.6,74.8l0.3,0.4v-19l-2.1,0.6l0.1,1.1C128.6,63.8,129.2,69.4,129.6,74.8z"/>
	<path d="M154.6,49.6c-0.3-0.6-0.4-0.9-0.4-0.9l-1.4,0.4l1.9,2.2C154.6,50.7,154.6,50.1,154.6,49.6z"/>
	<polygon points="152.2,49.3 151.1,49.6 129.9,75.1 152.2,75.1 	"/>
	<path d="M226.6,132.9v-17.6h0.2l14.7,17.6v-17.6h-11V102c-7.5,7.8-16.6,11.8-27,11.9H202h-0.3c-1.2,0-2.3-0.1-3.5-0.2l-1.3,1.6h0.1
		l14.7,17.6v-17.6h14.7l-14.7,17.6h-14.6l22.2,26.6v-26.6H226.6z"/>
	<path d="M251.6,48.7c-0.5-0.1-0.9-0.1-0.9-0.1c0,0.4-0.2,0.8-0.4,1.3c-0.1,2.3-0.3,5.1-0.8,8l14.4,17.2V52.4L251.6,48.7z"/>
	<path d="M264.1,75.1h11.3c0.3-5,0.8-10.2,1.5-15.6l-13,15.6h-18.4c-1.3,4.1-2.9,8.2-4.8,12c0,0,0,0.1-0.1,0.1l23.4,28.1V75.1z"/>
	<path d="M634.2,311.4L634.2,311.4l-0.1,27.5h-22.1v26.2c6.7-2.2,12.6-4.4,17.4-6.3l13.9-17.2l0-19L634.2,311.4z"/>
	<path d="M578.3,338.9V374c8.3-1.6,16.3-3.7,23.7-5.8L578.3,338.9L578.3,338.9z"/>
	<path d="M544.9,311.4L544.9,311.4h-0.2v27.4h0.1v38.9c0.8,0,1.5,0,2.3,0l31.2-38.7h-11.1L544.9,311.4L544.9,311.4z"/>
	<path d="M447.7,353.1c0,0,0.1,0,0.2,0v0.1c0.1,0,0.3,0.1,0.6,0.1c0,0,4.2,2.1,11.3,5.1l-12.1-15L447.7,353.1z"/>
	<polygon points="589.8,311.4 575.1,293.2 574.8,293.2 574.8,311.4 567.1,311.4 567.1,338.9 589.4,311.4 589.4,311.4 589.4,338.9 
		611.8,338.9 589.5,311.4 	"/>
	<polygon points="619.6,293.2 619.6,311.4 634.3,293.2 	"/>
	<polygon points="619.6,311.4 604.9,293.2 611.9,293.2 578.4,251.6 578.3,251.6 578.3,293.2 589.8,293.2 589.8,311.4 604.4,293.2 
		604.7,293.2 604.7,311.4 611.8,311.4 611.8,338.9 634,311.4 	"/>
	<polygon points="559.9,293.2 559.9,311.4 574.6,293.2 	"/>
	<polygon points="559.9,311.4 545.2,293.2 545,293.2 544.9,293.2 544.9,311.3 545,311.3 545,311.4 	"/>
	<polygon points="643.1,235.2 634.2,224.1 634.1,224.1 634.1,251.6 611.9,251.6 611.9,293.2 643.1,254.5 	"/>
	<polygon points="567.1,251.6 544.9,224 544.9,224.1 544.8,224.1 544.6,224.1 544.6,251.5 544.7,251.5 544.7,293.2 578.2,251.6 	"/>
	<path d="M500.1,311.4l-14.7-18.2h-0.2v18.2h-7.4v27.5l22.2-27.5H500.1l-0.1,27.5h-22.3l-22.2-27.5h14.7l-14.7-18.2h14.7v18.2
		l14.7-18.2h-7.4l-29.9-37.1l0,37.1h7.7v18.1h-7.7l0,9.6l7.6-9.5h0.1v27.5h22.1v26.3c3.1,1.1,6.3,2.1,9.7,3.2l23.8-29.5h0.1v35.4
		c10.1,2,20.7,3.3,31.4,3.3l-31.3-38.8h11.1L500.1,311.4L500.1,311.4z"/>
	<polygon points="544.7,293.2 511.2,251.6 522.3,251.6 500.1,224.1 500.1,224.1 485.2,205.6 485.2,224.1 477.7,224.1 477.7,251.6 
		499.9,224.1 500,224.1 500,251.6 477.7,251.6 455.5,224.1 470.3,224.1 455.3,205.6 455.3,224 447.6,224 447.6,233.6 455.3,224.1 
		455.3,224.1 455.4,224.1 455.4,251.6 477.5,251.6 477.5,293.2 511,251.6 511.1,251.6 511.1,293.2 500.1,293.2 500.1,311.4 
		514.8,293.2 515,293.2 515,311.4 522.3,311.4 522.3,338.9 544.6,311.4 529.9,311.4 515.3,293.2 529.9,293.2 529.9,311.4 
		544.6,293.2 	"/>
	<polygon points="619.6,205.6 619.6,224.1 634.5,205.6 	"/>
	<polygon points="611.8,224.1 611.8,251.6 634,224.1 619.6,224.1 604.7,205.6 604.7,224.1 	"/>
	<polygon points="589.8,205.6 589.8,224.1 604.7,205.6 	"/>
	<polygon points="589.4,224.1 589.4,251.6 611.8,251.6 589.5,224.1 589.8,224.1 574.8,205.6 574.8,224.1 567.1,224.1 567.1,251.6 
		589.4,224.1 	"/>
	<polygon points="559.9,224.1 574.8,205.6 559.9,205.6 	"/>
	<polygon points="545,224 545,224.1 559.9,224.1 545,205.6 	"/>
	<polygon points="529.9,205.6 529.9,224.1 544.9,205.6 	"/>
	<polygon points="522.3,224.1 522.3,251.6 544.6,224.1 529.9,224.1 515,205.6 515,224.1 	"/>
	<polygon points="500.1,205.6 500.1,224.1 515,205.6 	"/>
	<polygon points="470.3,205.6 470.3,224.1 485.2,205.6 	"/>
	<path d="M611.9,205.4l31.3-38.7l0-3.4c-1.8-1.1-5.3-4-9.1-9.2v9.8h-22.1V205.4z"/>
	<polygon points="578.3,163.9 578.3,205.4 611.9,205.4 578.4,163.9 	"/>
	<polygon points="567.1,163.9 544.9,136.3 544.9,136.4 544.8,136.4 544.6,136.4 544.6,163.8 544.7,163.8 544.7,205.4 578.2,163.9 	
		"/>
	<polygon points="447.6,168.3 447.6,205.4 477.5,205.4 	"/>
	<polygon points="589.4,136.4 589.4,163.9 611.8,163.9 589.5,136.4 589.8,136.4 575.1,118.2 574.8,118.2 574.8,136.4 567.1,136.4 
		567.1,163.9 589.4,136.4 	"/>
	<path d="M619.6,118.7v17.7l3.4-4.2C621.6,127.9,620.5,123.4,619.6,118.7z"/>
	<path d="M604.7,118.2v18.2h7.1v27.5l16.1-20c-0.4-0.8-0.8-1.7-1.3-2.6c-0.7-1.6-1.4-3.3-2.1-4.9h-4.9l-14.7-18.2h7l-33.5-41.5h-0.1
		v41.5h11.4v18.2l14.7-18.2H604.7z"/>
	<polygon points="559.9,118.2 559.9,136.4 574.6,118.2 	"/>
	<polygon points="559.9,136.4 545.2,118.2 545,118.2 544.9,118.2 544.9,136.2 545,136.2 545,136.4 	"/>
	<path d="M617.8,76.6h-5.8v41.5l6.4-7.9C617.2,100.2,617,89.1,617.8,76.6z"/>
	<path d="M567.1,76.6l-6.7-8.3c-4.7,1.7-9.7,2.7-15,2.7c-0.2,0-0.4,0-0.7,0c-0.1,0-0.1,0-0.2,0v5.5h0.1v41.7l33.5-41.5H567.1z"/>
	<path d="M470.3,119.6v16.8l14.7-18.2h-7.4l-5.9-7.3C471.3,113.8,470.8,116.8,470.3,119.6z"/>
	<path d="M465.5,136.4h4.8l-3.3-4.1C466.5,133.7,466,135,465.5,136.4z"/>
	<path d="M511.1,163.9v41.5h33.6L511.1,163.9h11.2l-22.2-27.5h0l-14.7-18.2h-0.2v18.2h-7.4v27.5l22.2-27.5h0.1v27.5h-22.3
		l-15.8-19.6c-2.1,4.2-4.4,7.6-6.5,10.4v9.2h22.1v41.5L511.1,163.9L511.1,163.9z"/>
	<path d="M619.6,57.7l0.2-1.5l0.1-0.4l-8.1-2.5v23.3l6.7-8.3C618.8,64.9,619.1,61.3,619.6,57.7z"/>
	<path d="M586.7,51.9c-1,0.8-2,1.6-3,2.3c-5,4.2-10.5,8.2-16.6,11.3v11.2L587.8,51C587.4,51.3,587.1,51.6,586.7,51.9z"/>
	<path d="M589.9,49.5c-0.1,0.1-0.3,0.2-0.4,0.3v26.9h22.3L589.9,49.5z"/>
	<path d="M522.3,64.6v12l7-8.7C527.1,67,524.7,65.9,522.3,64.6z"/>
	<path d="M500.1,48.7v0.4l0.2-0.3C500.3,48.8,500.2,48.7,500.1,48.7z"/>
	<path d="M515,118.2v18.2h7.3v27.5l22.2-27.5h-14.6l-14.7-18.2h14.7v18.2l14.7-18.2h0.1l-33.5-41.5h11.1l-22.2-27.5h0l-0.8-1
		l-21.6,6.5v22.1l22.2-27.5h0.1v27.5h-22.3l-6.1-7.6c0.2,2.6,0.4,5.1,0.6,7.6h5.3v41.5L511,76.6h0.1v41.5h-11v18.2l14.7-18.2H515z"
		/>
</g>
</svg>
