<?xml version="1.0" encoding="utf-8"?>
<!-- Generator: Adobe Illustrator 25.3.0, SVG Export Plug-In . SVG Version: 6.00 Build 0)  -->
<svg version="1.1" id="Layer_1" xmlns="http://www.w3.org/2000/svg" xmlns:xlink="http://www.w3.org/1999/xlink" x="0px" y="0px"
	 viewBox="0 0 750.2000122 400.1000061" style="enable-background:new 0 0 750.2000122 400.1000061;" xml:space="preserve">
<g>
	<path d="M299.7000122,272.0000305l0.1000366-109.1000366c-1.2990112-1.0554199-3.196167-2.7838135-5.3671875-5.2778931
		l-0.869812,195.9048462c4.0305176-0.1414185,6.3369751-0.2269287,6.3369751-0.2269287L299.7000122,272.0000305z"/>
	<path d="M110.8839722,353.7377625l-0.8674927-195.3666382c-2.4790649,2.7261963-4.5725098,4.4138794-5.8164673,5.2288818
		l0.0999756,189.7000122c0.1000366,0,0.2000122,0,0.3000488,0v0.0999756
		C104.6000366,353.3999939,106.8927002,353.532196,110.8839722,353.7377625z"/>
	<path d="M451.5991821,159.181366c-1.5828247,1.6446533-2.963562,2.8341064-3.9991455,3.6186523l0.0999756,190.2999878
		c0,0,0.1000366,0,0.2000122,0v0.1000366c0.1000366,0,0.2999878,0.0999756,0.6000366,0.0999756
		c0,0,1.7266235,0.8809814,4.8434448,2.3060303L451.5991821,159.181366z"/>
	<path d="M643.2000122,163.3000183c-0.9007568-0.559082-2.2462158-1.5831299-3.857666-3.1342163l-1.7346191,195.3233643
		c3.5809326-1.5327148,5.5923462-2.4891357,5.5923462-2.4891357l0.0999756-81.2999878h-0.2000122L643.2000122,163.3000183z"/>
</g>
</svg>
