<?xml version="1.0" encoding="utf-8"?>
<!-- Generator: Adobe Illustrator 25.3.0, SVG Export Plug-In . SVG Version: 6.00 Build 0)  -->
<svg version="1.1" id="Layer_1" xmlns="http://www.w3.org/2000/svg" xmlns:xlink="http://www.w3.org/1999/xlink" x="0px" y="0px"
	 viewBox="0 0 750.2 400.1" style="enable-background:new 0 0 750.2 400.1;" xml:space="preserve">
<g>
	<path d="M168.2,232.5l-4.4,0.9c-2,0-4.3-0.3-6.8-0.1c-1.7,0.1-4.3,1.1-6.3,2.7l-20.7,4.2c-0.4,0.3-0.8,0.5-1.2,0.8l21.1-4.3
		c-0.6,0.6-1.1,1.3-1.4,2l-21,4.2c0,0.2,0,0.4,0.1,0.6l20.8-4.2c-0.1,0.5-0.2,1-0.1,1.6l-20.1,4.1c0.1,0.2,0.3,0.4,0.4,0.5l19.8-4
		c0.1,0.5,0.3,1,0.6,1.5c0,0,0.1,0.1,0.1,0.1l-5.9,1.2c0.9-0.1,1.7-0.1,2.5,0.1l3.8-0.8c0.4,0.5,1,1,1.6,1.4l-3.4,0.7
		c0.1,0.2,0.2,0.3,0.3,0.5l3.8-0.8c1,0.5,2.1,0.9,3.3,1.1l-6.6,1.3c0,0.2,0,0.4,0.1,0.6l8.2-1.6c2.4,0.3,4.8,0.1,6.1-0.1
		c2.7-0.5,5-1.5,7.3-2.6l12.8-2.6c-0.3-0.1-0.6-0.3-0.9-0.4l-9.5,1.9c2-0.9,4.2-1.6,6.7-1.8c0.9-0.1,1.8-0.1,2.8-0.1
		c-1.3-0.1-2.7-0.4-4.2-0.9l1.8-0.4c-0.3-0.1-0.5-0.3-0.8-0.4l-2.1,0.4c-0.9-0.3-1.8-0.7-2.7-1.2l2.4-0.5c-0.3-0.1-0.6-0.3-0.8-0.4
		l-2.4,0.5c-0.8-0.4-1.5-0.8-2.2-1.3l2.3-0.5c-0.2-0.1-0.4-0.3-0.7-0.5l-2.3,0.5c-0.6-0.4-1.1-0.8-1.6-1.2l2.5-0.5
		c-0.2-0.2-0.4-0.3-0.5-0.5l-2.5,0.5c-0.6-0.5-1.2-1-1.7-1.4l2.6-0.5C168.6,232.8,168.4,232.6,168.2,232.5z"/>
	<path d="M171.7,227.7c1.3,0,2.7,0,4-0.3c6.3-1,12.2,2,18.3,3.1c0.2-0.6,0.3-1.2,0.5-1.9c1.7-5.6,5.1-3.9,7.7-0.1
		c0.5,0.8,1,1.4,1.5,2l12.1-0.5c2.8,2.9,3.6,4.7,3.2,5.8c0.3,0,0.6,0,0.9,0c4.6-0.2,7.4-4.9,10-8.3c3.3-4.3,6.7-4.2,11.3-4.2
		c4.2,0,5.5-3.4,7.9-5.8c-2.2-0.5-4.5-0.9-6.6-1.6c-0.5-0.1-0.9-0.3-1.4-0.5c-0.5-0.2-0.9-0.4-1.4-0.6c-0.6-0.2-1.2-0.2-1.8-0.4
		c-0.8-0.2-1.3-0.6-2.2-0.3c-0.5,0.1-1.1,0.5-1.6,0.4c-0.6-0.1-0.9-0.7-1.6-0.9c-1-0.2-3.6,1.4-4.3,0.2c-0.4-0.8,0.3-1.4,1.1-1.8
		c-3-0.5-6-0.5-7.6,0.9c-4.5,3.6-5.5,16.7-15.7,5.9c-3.2-3.4-5.4-6.2-9-6c-0.3,0.4-0.7,0.8-1,1.2c-0.8,0.9-1.6,1.8-2.5,2.6
		c-0.7,0.6-2.2,2.1-3.2,1.2c-0.1-0.1-0.2-0.2-0.3-0.3c-0.7,0.8-1.4,1.5-2.3,2c-1.9,1.1-4.2,0-6.7-0.2
		C175.1,219,173.5,223.5,171.7,227.7z"/>
	<path d="M246.8,212.9c0.1,0,0.1,0,0.2,0c1.4,0.2,2.9,0.3,4.3,0.2c-0.9-0.2-1.9-0.4-2.8-0.5C247.8,212.7,247.3,212.8,246.8,212.9z"
		/>
	<path d="M257.2,167.6c-6.6-0.9-15.1,2-14.4,10.5c0.1,0.9,0.3,1.8,0.7,2.6l-17.6,3.6c-0.7,0.3-1.4,0.6-2,1l19.9-4
		c0.2,0.3,0.4,0.5,0.6,0.7c0.3,0.3,0.7,0.5,1.1,0.7l-26.8,5.4c-1.8,0.7-3.6,1.2-5.6,1.4c-0.8,0.1-1.6,0.2-2.4,0.2l-51.9,10.5
		c0.1,0,0.2,0,0.4,0c0.4,0,0.8,0.1,1.2,0.2c0,0,0.1,0,0.1,0l4.7-1c2-1.1,4.8-1.6,7.4-1.5l73.9-14.9c0.7,0.1,1.3,0,1.8-0.4l7.3-1.5
		c0.5-0.2,1-0.4,1.5-0.5c0.7-0.2,1.6-0.5,2.5-0.9l-10.7,2.2c0.5-0.6,0.8-1.4,1.3-2l6.6-1.3c0.7,0.2,1.5,0.3,2.1,0.5
		c2.3,0.4,4.5,0.1,6.4-1.4c0.7-0.6,1.2-1.4,1.8-2.1c1-1,3-1.8,2.3,0.5c-0.3,0.9-2.1,2.4-0.5,2.9c1.5,0.5,3.2-0.6,4.7-0.6
		c2.2,0,0.6,1.6,1.8,2.3c0.5,0.3,1.3-0.5,1.7-0.8c0.2-0.1,0.9-0.9,1.1-0.4c0.1,0.2-0.5,0.7-0.6,0.9c-0.3,0.3-0.5,0.6-0.6,1.1
		c-0.2,0.9-0.1,1.9-0.3,2.8c-0.2,1.4-0.9,3.1-0.6,4.5c1.8,0,2.9-4.5,4.2-5.6c0.8-0.7,1.7-1.2,2.5-1.9c0.7-0.6,1.7-1,2.6-1.3
		c1.1-0.3,1.9-0.1,3,0.2c0.1,0,0.1,0,0.2,0.1c0.4-2.2,3.3-4.2,4.9-5.6c1.8-1.5,3.7-3.4,5.9-5.1l0-6.4c-0.2-0.1-0.3-0.3-0.5-0.4
		c-2.8,1.7-5.7,3.5-8.7,2.7c-1.6-0.4-2.9-2-4.5-2.6c-2.4-0.9-5.4-1.1-7.9-1.1c-7.6-0.2-11.4,5.7-18.6,6.1
		C258.8,167.6,258,167.6,257.2,167.6z"/>
	<path d="M143.2,80.3c-0.6-0.4-1-0.8-1.2-1.3c-0.4,0.2-0.8,0.4-1.3,0.5c-1.3,0.5-2.5,0.6-3.7,1.2c-1.5,0.8-3.1,1.5-4.8,1.9
		c-0.7-0.1-1.4,0-2.2,0c0.1,1.5,0.1,3,0.1,4.4c1.2,1.2,2.3,2.5,3.9,3c1.8,0.6,3.8,0.2,5.7-0.2c4.2-1,7.8-3.3,11.7-5
		c1.4-0.6,3.2-1.5,4.8-1.4c2.7,0.1,5.2,1.5,7.5,2.7c-0.8-1.7-1.6-3.4-2.3-5.2c-1.3,0.6-2.7,1.1-4.2,1.5
		C154.4,83,146.5,82.7,143.2,80.3z"/>
	<path d="M246.3,83.6c0.6-0.2,1.2-0.3,1.8-0.4c2.4-0.8,5-0.5,6.8,1.4c3.8,3.4,7.8,5.7,12.1,7.5c0.5,0.2,0.9,0.5,1.4,0.7
		c2.3,1,4.4,1.6,6.4,1.9c-0.1-4.4,0-8.9,0.2-13.7c-1.8-0.2-3.7-0.3-5.5,0c-0.7,0.1-1.4,0.2-2,0.3c-5,0.7-9.9-0.4-14.3-3.3
		c-0.5-0.3-1-0.6-1.5-0.8c-1.5-0.7-3.5-1.8-5.2-2c-0.3,0-0.6,0-0.9,0c-1,3.2-2.2,6.3-3.6,9.3c0.3,0.1,0.6,0.1,1,0.1
		C244,84.3,245.2,83.9,246.3,83.6z"/>
	<path d="M111,282.2c1.1-1,2.1-2.2,3.2-3.1c-2.3-0.1-4.4-1.1-6.5-2.1c-0.3,0-0.6,0.1-0.9,0.1c-1.1,0.2-1.8,0.5-2.5,1l0,2.5
		c1.1,0.5,2.9,0.7,3.6,1C108.9,281.9,110,282.1,111,282.2z"/>
	<path d="M155.3,289.6c1.8-0.2,5-1.3,2.8-3.5c-0.4-0.4-0.8-0.7-1.3-1c-1.1-0.7-2.2-1.1-3.4-1.3c0.4,0.7,0.7,1.4,0.7,2
		c-0.2-0.3-0.5-0.6-0.9-0.9c-1.5-0.5-4.6-0.7-5.7-1.8c-1.1-1-1.3-3.4-2.9-5c0.2,0.1,0.4,0.1,0.7,0.2c-1-1.2-2.2-2.5-3.5-3.3
		c0,0-0.1,0-0.1,0l-0.2,0c-1.5,0.3-2.9,0.2-4.4,0c-0.6,0-1.2-0.1-1.9-0.1c-5.7-0.2-9.9,0.3-13.4,1.6c-0.8,0.3-1.5,0.6-2.2,1
		c0.5,0.1,1,0.2,1.6,0.4c2.9,0.9,4.4,3.5,7.2,3c2.1-0.4,3.3-2.4,5-3.5c2.4,0.2,4.6,1.1,7.1,3.1c3.2,2.6,5,5,8.8,6.6
		c0.8,0.4,2,0.7,3,0.9c-1.5,0.3-3.5,0-5.1-0.3c0,0,0.1,0.1,0.1,0.1c0.4,0.2,0.8,0.5,1.2,0.7C150.6,289.5,153.1,289.9,155.3,289.6z"
		/>
	<path d="M105.3,265.6c-0.5-0.5-0.6-1.2-0.8-1.8c-0.1-0.3-0.1-0.5-0.2-0.7l0,4c0.6-0.3,1.2-0.6,1.8-0.8
		C105.8,266.1,105.5,265.9,105.3,265.6z"/>
	<path d="M285.6,301.3c1.2-0.8,0.5-2.6,2.4-2.9c2.9-0.5,5.6,0.8,8,2.4c0.5,0.4,1.2,0.9,1.8,1.5c-0.2,0.2-0.4,0.4-0.7,0.5l1-0.2
		c0.5,0.4,1,0.7,1.5,0.8c0,0,0.1,0,0.1,0l0-1.2l0-0.6l0-3.2c-1.3-0.4-2.1-2.5-1.6-3.8c0.3-0.8,0.9-1.3,1.6-1.6l0-7.3
		c-0.3-0.1-0.7-0.2-1-0.4c-0.1-0.1-0.2-0.2-0.3-0.3c0-0.1-0.1-0.2-0.1-0.2c-1.2-0.7-3.2-0.7-4.8-0.6c-0.4,0-0.9,0-1.2,0
		c-1.9,0-3.6,0-5.5-0.4c-1.1-0.2-2.3-0.3-3.6-0.3c-2.6-0.1-5.6-0.2-8-2c-0.7-0.6-1.1-1.3-1.5-2.1c-0.4-0.7-0.8-1.4-1.4-1.9
		c-1.5-1.1-3.5-0.9-5.1-0.7c-0.5,0-1,0.1-1.4,0.1c-1.6,0-3.1-0.2-4.6-0.5c-1.2-0.2-2.3-0.4-3.4-0.5c-2.4-0.1-4.8,0.3-7.1,0.7
		c-1.6,0.3-3.2,0.5-4.8,0.6c-1,0.1-6.2,0.1-7.8-1.4c-0.4-0.3-0.5-0.7-0.5-1.1c0-1.4,0.2-2.6,0.6-3.5c-0.8,0-1.4-0.2-2-0.6
		c0-0.1,0-0.3,0-0.5l-0.5,0.1c-0.5-0.4-1-0.9-1.5-1.3c0,0-0.1-0.1-0.1-0.1l0.7-0.2c-0.1-0.2-0.2-0.4-0.3-0.5l-0.9,0.2
		c-0.4-0.4-0.8-1-1.2-1.5l0.4-0.1c-0.2-0.2-0.3-0.3-0.5-0.5l-0.3,0.1c-0.5-0.5-0.9-1.1-1.4-1.4l0,0c-0.2-0.1-0.3-0.3-0.5-0.4
		c0,0,0,0-0.1-0.1l-0.2,0c-0.3-0.1-0.6-0.2-0.9-0.1c-0.5,0.1-0.9,0.3-1.1,0.5l-10.2,2.1c-0.7-0.4-1.4-0.7-2.1-0.9
		c-0.4-0.1-0.9-0.2-1.3-0.2l14.6-2.9c-0.1-0.2-0.2-0.4-0.4-0.5l-16.5,3.3c-1.3-0.1-2.6-0.4-3.9-0.8l17.8-3.6c-1,0.1-2,0.4-3.1,0
		l-15.8,3.2c-0.9-0.3-1.7-0.7-2.5-1.3l16.1-3.3c-0.2-0.2-0.4-0.3-0.5-0.5l-16.1,3.3c-0.6-0.5-1.3-1-1.9-1.3l16.1-3.2
		c-0.2-0.1-0.5-0.2-0.7-0.2c-0.2,0-0.3-0.1-0.5-0.1l-7.6,1.5c-0.5,0.2-1,0.4-1.5,0.3l-6.7,1.3c-3-1.3-6.5-1.2-9.8-0.8
		c-3.1,0.3-5.9-0.5-8.4,2.3c-1.8,2-2,1.4-2-1.3c0.1-6-3.8-1.9-6,0c-3.2,2.7-6.7,1.7-10.1,0l2.2-0.4c0.2-0.2,0.4-0.5,0.6-0.7
		l-3.6,0.7c-0.8-0.4-1.6-0.8-2.3-1.2l7.6-1.5c0.1-0.2,0.3-0.4,0.5-0.7l-8.8,1.8c-0.1,0-0.1-0.1-0.2-0.1c-0.9-0.5-1.8-0.8-2.6-1.1
		l13-2.6c0.2-0.2,0.3-0.5,0.5-0.7l-14.7,3c-0.3-0.1-0.6-0.2-0.9-0.2c-1.3-0.3-2.6-0.4-3.9-0.4l21.1-4.3c0.4-0.3,0.7-0.6,1.1-0.8
		l-37.4,7.5c-0.2,0-0.3-0.1-0.5-0.1c-0.6-0.1-1.2-0.3-1.8-0.4c-0.8-0.1-1.5-0.2-2.3-0.3l81.5-16.4c0.2,0,0.4-0.1,0.6-0.1l6.2-1.3
		c-0.3-0.1-0.6-0.1-0.9-0.1c-0.4,0-0.7,0-1.1-0.1l-73,14.7c-1.9,1-4.6,1.4-7.3,1.5l-19.4,3.9c1.1,0.2,2.3-0.5,3.4-0.5
		c0.5,0,1,0,1.5,0.1l7.1-1.4c0.6,0.5,1.3,0.9,2,1.4l-4.4,0.9c0.4,0.1,0.9,0.2,1.3,0.3l3.8-0.8c0.7,0.4,1.3,0.8,2,1.2l-2.2,0.4
		c0.5,0.1,1.1,0.2,1.6,0.3l1.3-0.3c3.2,1.6,6.3,2.8,8.4,3c1.1,0.1,2.3,0,3.5-0.1c1.8-0.1,3.3,1.2,4.4,2.7c0.9,1.2,0.9,2.5,2.5,2.8
		c1.1,0.2,2.4,0.4,3.4,0.3c2.8-0.3,6-1.5,8.2,0.5c2,1.6,4.4,2.3,6.6,3.5c0.4,0.2,0.8,0.5,1.2,0.8c1,0.7,1.7,2.4,0.8,3.2
		c-0.4,0.5-0.9,0.9-1.4,1.3c-0.5,0.4-1.1,0.8-1.6,1.1c-0.8,0.5-1.6,0.9-2.2,1.7c-0.9,1.4-1.2,3.3-0.6,4.9c0.1,0.2,0.2,0.4,0.3,0.7
		c0.1-0.1,0.3-0.2,0.4-0.2c2.5-1.5,3-4.1,5.2-5.9c1-0.8,2-1.6,3.1-2.2c0-1.5-0.8-3,0.3-4.5c0.5-0.7,1.1-1.4,1.6-1.9
		c0.8-0.8,1.7-1.1,2.8-1.5c0.4-0.2,0.9-0.3,1.3-0.5c2.2-0.7,4.7-1.1,6.7-1.5c3.2-0.6,6.3-1.1,9.6-1c1,0,1.5,0.5,2.3,1.1
		c0.9,0.7,2.2,0.7,3,1.6c0.3,0.4,0.5,0.9,0.7,1.3c0.2,0.4,0.5,0.7,0.9,1.1c0.8,0.9,0.6,1.8-0.1,2.6c-0.4,0.4-0.7,0.9-1.2,1.2
		c-0.5,0.4-1.4,0.6-2,0.7c-0.6,0.2-1.2,0.3-1.8,0.4c-1.1,0.1-2.2,0.1-3.3,0.2c-0.8,0.1-1.9,0.2-2.9,0.5c0.5,0.2,1,0.5,1.6,1
		c1.3,1,1.8,2.6,3.7,3c2.6,0.6,3-2,5-2.5c2.1-0.5,7.6,2.9,9,4.7c0.7,0.9,0.8,1.7,0.5,2.4c0.7-0.1,1.3-0.5,2-1.4c1-1.2,0.7-2.9,1.7-4
		c0.9-1.2,2.2-0.9,3.3-1.9c2.2-2.1,3.2-4.9,5.7-4.4c0.5,0.1,1,0.3,1.7,0.7c3.4,4.6,7.3,7.8,13.1,7.3c0.6,0.1,1.2,0.1,1.8,0.2
		c1.8,0.2,3.6,0.4,5.4,0.7c1.7,0.3,4.7,0.3,5.9,1.7c0.5,0.6,0.5,1.6,0.9,2.2c0.5,0.6,1.3,0.8,1.6,1.1c0.9,1.1,1,2.8,2.3,3.6
		c1.1,0.8,2.4,0.3,3.6,0.7c1.8,0.7,2.7,2.6,4.2,3.6c2.2,1.4,1.6,0,3.3-0.9c1.6-0.9,4.5,0.4,6.4,0.6
		C281,299.2,283.4,302.7,285.6,301.3z"/>
	<path d="M105,183.3c0.1,0,0.3,0,0.4,0.1c1,0.2,1.9,0.4,2.8,1c1.7,1.1,2.2,3.7,4,4.4c0.5,0.2,1.1,0.3,1.7,0.3c0.3-0.1,0.7-0.1,1-0.2
		c0.8,0,1.6-0.1,2.4-0.2c0.1,0,0.2,0,0.3,0c0.3,0,0.7,0,1.2,0c1-0.2,2-0.4,2.7-0.7c4.7-1.4,9.1-5.8,14.2-5.3
		c3.1,0.3,6.9,2.6,5.5,6.6c-0.6,1.8-1.9,2.5-3.6,2.8c-2.1,0.4-3.9,0.7-5.9,1.5c-0.1,0-0.2,0.1-0.3,0.1c-1.2,0.5-1.5,0.8-1.5,1.4
		c0,0,0,0.1,0,0.1c0,0,0,0,0,0c0,0.1,0,0.2,0,0.3c0.1,0.4,0.2,1,0.2,1.8c-1,0.4-1.9,1.6-2.9,1.8c-1.2,0.3-2.2-0.6-3.3,0.3
		c-1,0.8-1.3,2.2-0.1,2.8c1.3,0.7,4.1-1.1,5.4-1.5c1.5-0.5,3-0.6,4.4-1.2c2-0.9,3.7-2.6,5.6-3.7c0.9-0.6,1.9-0.9,2.7-1.6
		c0.8-0.7,1.2-2.1,2.5-2.2c2.7-0.2,3.5,3.9,4.5,4.1c0.5,0.1,1,0.1,1.4,0.1c0.5,0,0.9-0.1,1.4-0.2c0.7,0.1,1.5-0.2,2.1-0.7
		c1.2-0.9,2.4-1.3,3.7-1.5c0.4-0.1,0.8-0.1,1.3-0.1c1.3-0.1,2.4,0.2,3.8-0.2c1.2-0.4,2.4-1.1,3.5-1.8c1.1-0.8,2-1.7,3.1-2.5
		c0.9-0.6,1.6-1.7,2.6-2.2c0.5-0.3,1-0.4,1.5-0.7c0.8-0.6,1.2-1.4,1.6-2.2c0.4-0.8,1.5-1.8,1.4-2.7c-0.1-1.6-2.2-1.2-3.1-1.1
		c-1.1,0.2-2.2,0.3-3.3,0.4c-1,0.1-1.9,0.4-2.9,0.6c-6,0.9-18.4,0-22.6-5.2c-2.3-2.9-2.3-6.9-6.6-8.4c-0.5-0.2-1-0.3-1.4-0.3
		c-2-0.3-4.8,0.6-6.5,1.8c-1.3,0.9-3.3,1.2-4.8,1.2c-1.7-0.1-3.4-1.1-5.1-1.3c-0.6-0.1-1.4-0.2-2.1-0.2c-0.4,0.1-0.7,0.3-1.1,0.3
		c-0.9,0.1-1.5-0.5-1.8-1.4c-0.4-1.3-0.8-2.5-1.4-3.7c-0.3-0.6-0.7-1-1.1-1.5c-0.3-0.4-0.8-1.6-0.9-2.2c-0.2-1.2-0.4-0.6,0.4-1.7
		c0.8-1.2,2.7-2.5,4-3c1.8-0.7,3.4,0.1,5.1,0.3c1.9,0.2,3.4-0.5,5.3-0.5c1.4,0,3,0.9,4.3,1.5c2.7,1.3,5.7,3.1,8.7,3
		c1.8-0.1,3.4-0.9,4.8-2.2c2.4-2.5-0.4-5-2.3-6.5c-1.6-1.2-3.4-2.2-5.3-2.6c-3.3-0.8-6.7-0.1-9.8,1.1c-1.4,0.5-2.9,0.6-4.4,0.5
		c-1.9-0.2-2.8-1.7-4.5-2.1c-0.1,0-0.2-0.1-0.4-0.1c-5.4,9.1-10.8,13.8-13.2,15.4l0,19.4c0.4,0,0.8,0.1,1.2,0.2
		C105.3,183.2,105.2,183.2,105,183.3z"/>
	<path d="M282.5,214.7c-1-0.3-1.9-0.4-2.9-0.4c0,0,0,0-0.1,0c-0.4,0-0.8-0.1-1.1-0.1c-0.3-0.1-0.6-0.1-1-0.1c-1.2,0-2.6,1.3-3.6,2.3
		c1.1,2,1.1,4.5,3.9,6.5c1.5,1.1,3.9,0.8,5.6,1.4c2.2,0.8,3.4,1.9,5.8,2c1.8,0.1,2.8-0.6,3.9-1.2l6.7-1.4l0-0.6l-4.5,0.9
		c-0.2-0.1-0.5-0.1-0.7-0.2c-1-0.2-1.9-0.5-2.6-0.9l7.9-1.6c-0.1-0.1-0.3-0.2-0.5-0.3c-0.1-0.1-0.2-0.1-0.3-0.1l-7.8,1.6
		c-0.7-0.5-1.4-1-1.9-1.7c-0.4-0.5-0.8-1.1-1.1-1.5C286.5,216.9,285.5,215.6,282.5,214.7z"/>
	<path d="M261.1,56.9c2.3-0.2,3.4-0.7,3.7-1.4l5.6-1.1l-1.2-0.4l-4.4,0.9c-0.1-0.5-0.4-1-0.9-1.6l1.7-0.3l-1.2-0.4l-1,0.2
		c-0.3-0.3-0.5-0.5-0.9-0.8l-1.3-0.4l-1.2-0.4l-8.6-2.6c-0.5-0.1-0.9-0.1-0.9-0.1c0,0.4-0.2,0.8-0.4,1.3c0,0.5,0,0.9-0.1,1.4
		C254.2,54.5,258.2,57.2,261.1,56.9z"/>
	<path d="M298.8,337.3c-2.3-0.1-4.6,0.3-7,0.7c-4.1,0.7-8.4,1.4-12.8-0.3c-0.5-0.2-0.3-1.9-0.3-1.9c0.2-0.7,0.7-1.1,1.1-1.3
		c1.3-0.8,3-1.1,4.7-1.3c2.6-0.3,5.2-0.3,7.7-0.2c1.2,0,2.5,0,3.7,0c0.6,0,1.3-0.1,1.9-0.1c0.6,0,1.3-0.1,2-0.1l0-2
		c-1.9-0.1-3.8,0.1-5.5,0.7c-2.3,1-4.5,1.1-6.6,0.7l12.1-2.4l0-0.6l-13.5,2.7c-1-0.3-2-0.7-3-1.1l16.4-3.3l0-0.6l-17.4,3.5
		c-0.3-0.1-0.6-0.2-0.9-0.3c-0.8-0.3-1.7-0.5-2.5-0.8l20.9-4.2l0-0.6l-22,4.4c0.1,0,0.1,0.1,0.2,0.1c-0.7-0.2-1.5-0.9-2-1.3
		c0,0-0.1-0.1-0.1-0.1l23.9-4.8l0-0.6l-24.3,4.9c-0.3-0.3-0.6-0.7-0.8-1.1c-0.1-0.2-0.2-0.3-0.4-0.5l25.5-5.1l0-0.6l-25.9,5.2
		c-0.3-0.5-0.7-0.9-1-1.4l26.9-5.4c-0.5-0.1-0.9-0.2-1.4-0.3l-25.9,5.2c-0.2-0.2-0.3-0.4-0.5-0.7c-0.3-0.3-0.5-0.6-0.7-0.9l22.1-4.5
		c-1.3-0.1-2.5,0-3.8,0.2l-5.9,1.2c-1.4,0.4-2.7,0.7-4.1,0.8l-8.8,1.8c-0.9-0.9-1.4-0.7-3.3-1.5c-1-0.4-1.5-0.9-2-1.4l4.3-0.9
		c0,0-0.1-0.1-0.1-0.1c-0.1-0.1-0.1-0.3-0.2-0.4l-4.4,0.9c-0.2-0.3-0.5-0.7-0.7-1.1l5-1c0.1-0.2,0.2-0.4,0.3-0.6l-5.6,1.1
		c0,0,0,0,0,0c-0.1-0.2-0.3-0.4-0.4-0.6c-0.2-0.3-0.4-0.6-0.7-0.9l14.2-2.9c0.6-0.3,1.3-0.6,1.9-0.7c0.9-0.2,1.7-0.3,2.5-0.2
		l18.3-3.7l0-0.6l-37.3,7.5c-0.5-0.6-1.1-1.1-1.9-1.3l25.3-5.1c-0.5-0.1-0.9-0.2-1.4-0.3l-25.4,5.1c-1.6-0.1-3,0.3-4.4,0.9l-7.1,1.4
		c0.1,0.2,0.4,0.3,0.9,0.4l4-0.8c-0.5,0.2-0.9,0.4-1.4,0.6c-0.7,0.3-1.5,0.6-2.3,0.8c-4.2,0.9-8.9-2.1-13.4-1.3
		c-2.8,0.5-4.8,2.5-7.8,2.6c-1.6,0-4.1-0.6-5.5-1.5c-0.7-0.4-1.3-1.2-1.9-1.7l58.5-11.8c-0.2-0.2-0.3-0.3-0.5-0.5l-58.7,11.8
		c-0.4-0.1-0.8-0.1-1.4,0c-0.3,0.1-0.5,0.2-0.7,0.4l-4.7,1c0.8,0.1,1.7,0.1,2.5,0.1l1.7-0.3c-0.5,1-0.3,2.5-1,3.5
		c-0.8,1.2-2.9,1.8-4.2,2.1c-2.7,0.8-10.6,0.4-10.9,4.7c-0.2,2.9,3.4,3.6,4.9,4.9c1.4,1.1,3.1,4,2.3,5.9c-0.8,1.8-2.7,1.8-4.1,2.7
		c-1.7,1.1-2,2.7-0.2,3.3c1.5,0.5,3,0,4.1-1.2c2.1-2.4,1.9-6.6,4.2-8.7c2.6-2.3,7.8-3,11.4-3.7c3.5-0.7,18.1-3.8,17.3,5.4
		c-0.3,3.5-6.3,3.1-8.7,3.7c-1.4,0.4-7,1.9-3.8,4.1c0.8,0.5,1.9,0.7,3,0.7c1.7,0,3.6-0.2,4.9,0c1.9,0.3,3.7,0.9,5.6,0.9
		c1.8,0,2.3,0.2,3.7,1.3c1.6,1.2,2.7,1.2,4.7,1.1c1.7-0.1,3,0.7,4.6,0.8c2.2,0.2,2.6-1.2,0.7-2.4c-1.5-1-4-0.4-4.7-2.3
		c-0.9-2.6,2.2-4.6,3.7-6.1c1.1-1.1,2.8-1.9,4.3-2c1.6-0.1,2.8,0.7,4,1.7c1.8,1.6,2.9,3.6,4.3,5.6c1.1,1.7,2.7,3.5,4.8,3.2
		c2.6-0.4,3.5-4,6.2-3.8c1.2,0.1,2.8,1.3,3.9,1.7c2.1,0.8,4.2,1.4,6.4,2.1c0.5,0.2,1,0.4,1.5,0.6c1.4,0.6,2.8,1.4,4.5,2.4
		c1.1,0.7,2.1,1.6,3.2,2.6c0.1,0,0.2,0.1,0.3,0.2c1,0.9,1.7,1.6,2.5,2.1l0-14.2C299.5,337.4,299.1,337.3,298.8,337.3z"/>
	<path d="M129,354.6c5.1,0.2,10.7,0.4,16.6,0.6c-2.6-1-6-2.1-7.8-2.2C134.4,352.8,132,354.3,129,354.6z"/>
	<path d="M119.6,353c-0.8-0.1-1.5-0.6-2.3-0.8c-0.8-0.2-2.2-0.7-3-0.3c-1,0.5-0.3,1.1,0.2,1.5c0.3,0.2,0.6,0.4,0.9,0.6
		c3.1,0.2,6.7,0.3,10.7,0.5c-1.7-0.3-3.3-0.9-4.9-1.3C120.7,352.9,120.3,353,119.6,353z"/>
	<path d="M130.2,95.6c0,0.2,0,0.4,0,0.6l1.6-0.3c-0.2-0.2-0.4-0.3-0.7-0.5L130.2,95.6z"/>
	<path d="M130.1,98.3l2.2-0.4c0.1-0.2,0.2-0.4,0.2-0.6l-2.3,0.5C130.1,97.9,130.1,98.1,130.1,98.3z"/>
	<path d="M140.2,103.3l11.1-2.2c-0.2-0.2-0.5-0.3-0.7-0.4l-10.2,2.1C140.3,102.9,140.2,103.1,140.2,103.3z"/>
	<path d="M141.3,100.1c-0.3,0.2-0.5,0.5-0.6,0.7l7.3-1.5c-0.4-0.1-0.7-0.3-1.1-0.4L141.3,100.1z"/>
	<path d="M129.5,107.8l24-4.8c-0.2-0.2-0.3-0.3-0.5-0.5l-23.5,4.7C129.5,107.4,129.5,107.6,129.5,107.8z"/>
	<path d="M170.7,106.3c-2.4-0.1-3.3,0.4-3.6,0.9l4.3-0.9C171.3,106.3,171,106.3,170.7,106.3z"/>
	<path d="M125.7,129.4l-0.3,0.1c-0.1,0.2-0.1,0.4-0.2,0.6l2-0.4C126.7,129.6,126.2,129.5,125.7,129.4z"/>
	<path d="M161,125.2c0.7,0.6,1.6,0.8,2.3,1.3l-31.1,6.3c0.1,0.1,0.3,0.2,0.3,0.3c0.1,0.1,0.1,0.1,0.2,0.2l31.1-6.3
		c0.1,0.1,0.2,0.3,0.3,0.5c0.1,0.3,0.3,0.6,0.4,0.9l-16,3.2c0.4,0.1,0.7,0.2,1,0.4l15.2-3.1c0.1,0.5,0.2,1,0.1,1.5
		c0,0.1,0,0.1-0.1,0.2l-14,2.8c0.1,0.2,0.1,0.4,0.1,0.6l13.7-2.8c-0.3,0.6-0.8,1.2-0.9,1.9l-12,2.4c0.1,0.2,0.1,0.4,0,0.6l11.9-2.4
		c0,0.5,0,1.2,0.1,1.8l-13,2.6c0,0.1,0,0.1,0.1,0.2c0.1,0.1,0.1,0.2,0.2,0.3l12.7-2.6c0,0.4,0,0.7,0,1c0,0.2,0,0.4,0.1,0.6l-8.7,1.7
		c0.8,0,1.6,0.1,2.3,0.1l6.5-1.3c0.2,0.7,0.7,1.2,1.2,1.5l-0.9,0.2c0.4,0,0.7,0,1.1,0c0.7,0.4,1.5,0.7,2.3,0.9
		c2.4,0.7,5,0.9,7.4,1.7c1.7,0.5,2.3,1.2,2.9,2.9c0.5,1.2,1.1,2.5,1.9,3.4c0.6,0.7,1.2,1.1,2.1,1.4c1.1,0.3,1.7,0.7,2.5,1.6
		c1.6,1.7,2.8,3.7,4.6,5.2c2.3,1.9,5.2,2.5,8,3.3c3.3,0.9,6.7,2.2,10.1,1.3c3.5-0.9,5.1-3.9,9.2-3c1.4,0.3,2.1,1.4,3.9,1.5
		c1.7,0.1,3.2-0.8,4.8-0.8c1.5,0,2.8,0.8,4.3,0.7c1.6-0.1,2.2-0.5,2.1-1.2c0.1,0,0.3,0.1,0.4,0.1l20.8-4.2c-0.4-0.1-0.7-0.2-1-0.4
		l-20.3,4.1c-0.2-0.4-0.7-0.9-1.2-1.5l19.2-3.9c-0.3-0.1-0.6-0.3-0.8-0.4l-18.9,3.8c0,0-0.1-0.1-0.1-0.1c-0.5-0.5-1.1-0.9-1.7-1.3
		l19.3-3.9c-0.1-0.2-0.1-0.4-0.1-0.6l-19.9,4c-1-0.5-2-0.9-3.1-1.1l26.3-5.3c-0.1-0.2-0.2-0.4-0.3-0.5l-27.5,5.6
		c-0.2,0-0.3,0-0.5-0.1c-3,0.4-6.1,0.8-9.1,1.5c-1.4,0.3-3.1,0.3-4.9-0.1l41.1-8.3c-0.1-0.2-0.3-0.3-0.4-0.5l-42,8.5
		c-1.1-0.3-2.1-0.7-3.1-1.1l37.7-7.6c-0.6-0.1-1.1-0.2-1.6-0.3l-36.9,7.4c-0.7-0.4-1.4-0.8-2-1.2c0,0-0.1-0.1-0.1-0.1l35.1-7.1
		c-0.3-0.1-0.7-0.3-1-0.4l-34.7,7c-0.2-0.2-0.5-0.5-0.7-0.7c-0.2-0.3-0.5-0.5-0.7-0.8l5.2-1c0,0,0.1,0,0.1,0.1
		c0.1,0.1,0.3,0.1,0.4,0.2c-0.1-0.1-0.2-0.2-0.4-0.3l28.3-5.7c-0.2-0.2-0.3-0.3-0.4-0.5l-8.8,1.8c0,0,0,0,0,0
		c-0.5-0.6-1-0.9-1.6-0.9l29.3-5.9c7.7-0.7,22.9-2.8,16.2-9.2c-3.1-2.9-9.2-3.1-12.5-3.4c-5-0.4-10.6-1.9-15.1-1
		c-1.1,0.2-2.1,0.5-3,0.8c-0.9,0.3-1.8,0.6-2.7,0.8c-3.8,1.7-7.9,1.1-11.9,0.7c-1.4-0.1-2.7-0.2-4-0.3c-4-0.3-8.1-0.9-12.2-2
		c-7-2-15.1-6.1-21.5-5c-1.4,0.2-2.3,1.1-3.1,2.1l-8.5,1.7c-0.1-0.1-0.2-0.2-0.2-0.3c-0.2-0.4-0.4-0.8-0.5-1.2l8.4-1.7
		c-0.2-0.2-0.4-0.3-0.5-0.5l-8.1,1.6c-0.1-0.6-0.2-1.1-0.3-1.7l7-1.4c-0.1-0.2-0.3-0.3-0.4-0.5l-6.7,1.4c-0.2-0.7-0.4-1.5-0.9-2.1
		l6.3-1.3c-0.1-0.2-0.2-0.4-0.2-0.5l-6.4,1.3c-0.5-0.7-0.7-0.9-0.9-1.6l6.9-1.4c0-0.2-0.1-0.4-0.1-0.6l-7,1.4c0,0,0-0.1,0-0.1
		c-0.1-0.6,0.1-1.1,0.2-1.6l6.7-1.3c0-0.2,0-0.4-0.1-0.6l-6.7,1.3c0-0.1-0.1-0.2-0.2-0.3c-0.4-0.6-1.3-0.8-1.9-0.7
		c-1.4,0.1-2.6,0.9-4,0.5l12.2-2.5c-0.1-0.2-0.2-0.4-0.4-0.5l-7.2,1.4c0,0.1,0,0.1-0.2,0l-5.4,1.1c-0.9-0.4-1.7-0.7-2.6-1.1l6.2-1.2
		c-0.2-0.1-0.4-0.3-0.7-0.5l-6.5,1.3c-0.8-0.3-1.5-0.8-2.2-1.3l6-1.2c-1.1-0.1-2.4,0.1-3.7,0.2l-2.9,0.6c-0.6-0.5-1.2-0.9-1.8-1.3
		l1.4-0.3c-0.1-0.2-0.2-0.4-0.3-0.5l-1.9,0.4c-0.5-0.3-1.1-0.5-1.7-0.6c-2.3-0.3-5,0.1-6.8,1.8c-0.2,0.2-0.3,0.3-0.5,0.5l-14.6,2.9
		c0,0.2,0,0.4-0.1,0.6l14.2-2.9c-0.3,0.5-0.5,1.1-0.8,1.7c0,0.1-0.1,0.1-0.1,0.2l-13.5,2.7c0,0.2-0.1,0.4-0.1,0.6l13.3-2.7
		c-0.3,0.6-0.4,1.2-0.2,1.8l-13.3,2.7c0,0.2-0.1,0.4-0.1,0.6l13.6-2.7c0.1,0.1,0.2,0.3,0.3,0.4c0.5,0.6,1,0.7,1.6,0.8l-15.8,3.2
		c0,0.2-0.1,0.4-0.1,0.6l18.5-3.7c0.8,0.2,1.6,0.4,2.5,0.2c1.2-0.2,2.1-0.6,3.3,0c0.2,0.1,0.3,0.2,0.4,0.3l-25,5
		c0,0.2-0.1,0.4-0.1,0.6l25.8-5.2c0.5,0.4,1,0.9,1.5,1.4l-27.7,5.6c0,0.2-0.1,0.4-0.1,0.6l28.3-5.7c0.4,0.5,0.9,1,1.3,1.5l-30,6
		c0,0.2-0.1,0.4-0.1,0.6l30.5-6.2c0,0,0,0,0,0c0.5,0.7,1,1.3,1.3,2l-28.8,5.8c0.3,0.1,0.6,0.3,0.9,0.4l28.2-5.7
		c0.3,0.5,0.5,1.1,0.7,1.6l-27,5.4c0.2,0.2,0.2,0.4,0.2,0.5l27-5.4c0.2,0.4,0.3,0.8,0.5,1.2c0.1,0.1,0.2,0.3,0.2,0.4l-35.9,7.2
		c0,0,0,0.1,0,0.1c0.9,0,1.7,0,2.6,0L161,125.2z"/>
	<path d="M131.8,138l6.4-1.3c0.2-0.1,0.4-0.2,0.5-0.4c0.2-0.1,0.3-0.3,0.4-0.4l-6.9,1.4C132.1,137.5,132,137.7,131.8,138z"/>
	<path d="M141.2,133.1l-8.1,1.6c0,0.2-0.1,0.4-0.1,0.6l7.4-1.5C140.6,133.7,140.8,133.4,141.2,133.1z"/>
	<path d="M127.9,143.4l1.9-0.4c0.2-0.2,0.4-0.4,0.5-0.7l-1.9,0.4C128.2,143,128,143.2,127.9,143.4z"/>
	<path d="M151.2,135.8l-0.5,0.1C150.5,137,150.8,136.2,151.2,135.8z"/>
	<path d="M131.4,139.8l-0.9,0.2c-0.2,0.2-0.3,0.5-0.5,0.7l1.1-0.2C131.2,140.2,131.3,140,131.4,139.8z"/>
	<path d="M262.5,139c0-0.2,0.1-0.4,0.1-0.6l-17.6,3.6c0.3,0.1,0.6,0.3,0.9,0.4L262.5,139z"/>
	<path d="M262.5,136l-22,4.4c0.4,0.1,0.9,0.2,1.4,0.3l20.7-4.2C262.6,136.4,262.6,136.2,262.5,136z"/>
	<path d="M260.4,144.1c0.2-0.2,0.4-0.4,0.5-0.7l-8.5,1.7c0.4,0.1,0.8,0.2,1.2,0.3L260.4,144.1z"/>
	<path d="M261.9,141.4C261.9,141.4,261.9,141.3,261.9,141.4c0.1-0.3,0.2-0.5,0.2-0.6l-13.7,2.8c0.3,0.1,0.6,0.3,0.9,0.4L261.9,141.4
		z"/>
	<path d="M256.3,158.1l-16.8,3.4c0.3,0.1,0.6,0.3,1,0.4l15.9-3.2C256.3,158.5,256.3,158.3,256.3,158.1z"/>
	<path d="M236.4,160.4l19.3-3.9c-0.1-0.2-0.3-0.3-0.4-0.5l-20,4C235.6,160.1,236,160.3,236.4,160.4z"/>
	<path d="M254.7,163.7c0.1-0.2,0.3-0.4,0.4-0.7l-8.6,1.7c0.3,0.1,0.7,0.3,1,0.4L254.7,163.7z"/>
	<path d="M256.1,160.5l-13.1,2.6c0.3,0.1,0.6,0.3,0.9,0.4l12-2.4C256,160.9,256,160.7,256.1,160.5z"/>
	<path d="M265.2,252.9l-9.3,1.9c-0.2,0.2-0.4,0.4-0.5,0.7l11.1-2.2c-0.2-0.1-0.4-0.1-0.6-0.2C265.6,253,265.4,252.9,265.2,252.9z"/>
	<path d="M246.4,261.8l34.7-7c-0.3-0.2-0.7-0.3-1-0.4l-32.9,6.6C247,261.3,246.7,261.5,246.4,261.8z"/>
	<path d="M252.1,258.3l18.7-3.8c-0.4-0.1-0.8-0.2-1.2-0.4l-16.1,3.3C253,257.7,252.6,258,252.1,258.3z"/>
	<path d="M291.9,257.3c-0.3-0.2-0.6-0.3-1-0.4l-4.5,0.9c0.4,0.1,0.8,0.2,1.2,0.3L291.9,257.3z"/>
	<path d="M244.6,266.2c0,0.2,0,0.4-0.1,0.6l38.4-7.8c0-0.2,0-0.4,0-0.6L244.6,266.2C244.6,266.2,244.6,266.2,244.6,266.2z"/>
	<path d="M245,264.4l39.6-8c-0.3-0.1-0.6-0.2-1-0.4l-38.5,7.8C245.1,263.9,245.1,264.2,245,264.4z"/>
	<path d="M286.9,262.9c-0.2-0.2-0.4-0.3-0.6-0.5l-41.2,8.3c0.1,0.2,0.2,0.4,0.3,0.5L286.9,262.9z"/>
	<path d="M284.6,261.1c-0.2-0.2-0.4-0.3-0.5-0.5l-39.6,8c0,0.2,0,0.4,0.1,0.6L284.6,261.1z"/>
	<path d="M291.8,266.6c-0.2-0.1-0.4-0.3-0.7-0.5l-29.9,6c0.3,0.1,0.6,0.3,0.8,0.4L291.8,266.6z"/>
	<path d="M248.7,273l40.6-8.2c-0.2-0.2-0.4-0.3-0.6-0.5l-41.5,8.4c0.3,0.1,0.5,0.2,0.9,0.2C248.2,272.9,248.4,272.9,248.7,273z"/>
	<path d="M276.5,274.2l21.2-4.3c-0.2-0.2-0.4-0.3-0.5-0.5l-21.9,4.4C275.7,274,276.1,274.1,276.5,274.2
		C276.5,274.2,276.5,274.2,276.5,274.2z"/>
	<path d="M265.7,274l29.8-6c-0.3-0.2-0.6-0.3-0.8-0.4l-30.5,6.2c0.3,0.1,0.7,0.2,1,0.3C265.4,274,265.6,274,265.7,274z"/>
	<path d="M299.7,274.2l0-0.6l-10,2c0.3,0.1,0.7,0.3,1,0.4L299.7,274.2z"/>
	<path d="M299.6,271.9c-0.2-0.2-0.3-0.3-0.5-0.5l-13.7,2.8c0.4,0.1,0.8,0.2,1.2,0.4L299.6,271.9z"/>
	<path d="M299.7,278.4l0-0.6l-2.3,0.5c0.4,0.1,0.8,0.2,1.2,0.4L299.7,278.4z"/>
	<path d="M299.7,276.1l0-0.6l-6.7,1.4c0.4,0.1,0.7,0.3,1.1,0.4L299.7,276.1z"/>
	<path d="M262.7,58.2l5.2-1.1c0.1,0,0.1-0.1,0.2-0.1c1.7-0.9,3.4-1.3,5.3-1.2c0.2,0,0.3,0,0.5,0.1l1.2-0.2l-1.2-0.4l-11.6,2.3
		C262.4,57.9,262.5,58.1,262.7,58.2z"/>
	<path d="M177.9,192.3l12.8-2.6c-0.2-0.2-0.3-0.3-0.5-0.5l-11.4,2.3C178.6,191.8,178.2,192,177.9,192.3z"/>
	<path d="M158.3,195.6c0,0.2-0.1,0.4-0.1,0.6l2.1-0.4c-0.1-0.2-0.1-0.4-0.2-0.5L158.3,195.6z"/>
	<path d="M187.1,187.6c-0.2,0-0.4,0-0.7,0l-5.6,1.1c-0.2,0.2-0.3,0.4-0.5,0.7l7.9-1.6c-0.3-0.1-0.6-0.2-1-0.2
		C187.2,187.6,187.1,187.6,187.1,187.6z"/>
	<path d="M198,190.5l1-0.2c-0.1,0-0.2-0.1-0.3-0.1C198.5,190.2,198.2,190.4,198,190.5z"/>
	<path d="M153.2,199.3c-0.5,0.1-1.2,0-1.8,0l-1.5,0.3c-0.4,0.3-0.6,0.6-0.7,0.7l43.7-8.8c-0.3-0.1-0.5-0.2-0.7-0.4c0,0,0,0-0.1,0
		l-22.7,4.6c-0.3,0.2-0.7,0.3-1.1,0.4c-0.3,0-0.5,0-0.8,0l-3.4,0.7c-0.3,0.3-0.6,0.5-1,0.5c-0.1,0-0.4-0.1-0.8-0.2l-7.8,1.6
		C154.1,198.9,153.7,199.2,153.2,199.3z"/>
	<path d="M206.4,195.1l-25.1,5.1c0.4,0.1,0.8,0.2,1.2,0.4l22.4-4.5C205.3,195.7,205.8,195.4,206.4,195.1z"/>
	<path d="M246.9,186.9l-36.8,7.4c0.7,0,1.4,0.1,2.1,0.2l33.8-6.8C246.3,187.5,246.6,187.2,246.9,186.9z"/>
	<path d="M178.2,199l71.6-14.4c0.4-0.3,0.8-0.6,1.2-0.8l-73.8,14.9C177.6,198.8,177.9,198.9,178.2,199z"/>
	<path d="M237.9,194c0.5-0.3,0.9-0.6,1.4-0.9l-17.8,3.6c0.5,0.1,1.1,0.2,1.6,0.3L237.9,194z"/>
	<path d="M202.1,198.9c0.2-0.2,0.4-0.5,0.6-0.7l-16.1,3.3c0.6,0.1,1.2,0.2,1.8,0.2L202.1,198.9z"/>
	<path d="M243.4,189.9l-27.2,5.5c0.4,0.1,0.8,0.2,1.2,0.3l25-5C242.8,190.5,243.1,190.2,243.4,189.9z"/>
	<path d="M241.8,91.6l-4,0.8c-0.1,0.2-0.3,0.5-0.4,0.7l5.2-1.1C242.3,91.8,242.1,91.7,241.8,91.6z"/>
	<path d="M239.2,89.9c-0.1,0.1-0.1,0.3-0.2,0.4l0.6-0.1C239.5,90.1,239.3,90,239.2,89.9z"/>
	<path d="M249.5,94.8c-0.2-0.1-0.4-0.1-0.6-0.2l-14.7,3c-0.2,0.2-0.3,0.5-0.5,0.7L250,95C249.9,95,249.7,94.9,249.5,94.8z"/>
	<path d="M245,93.1l-8.7,1.8c-0.2,0.2-0.3,0.5-0.5,0.7l10.1-2C245.6,93.4,245.3,93.2,245,93.1z"/>
	<path d="M267.1,95.9c-0.2-0.1-0.3-0.1-0.5-0.2l-37.3,7.5c-0.3,0.3-0.6,0.5-0.9,0.8l39.1-7.9C267.4,96.1,267.2,96,267.1,95.9z"/>
	<path d="M261.1,94.9c-0.7,0.1-1.4,0.2-2,0.3c-1.1,0.2-2.2,0.4-3.4,0.4l-23.7,4.8c-0.2,0.2-0.4,0.5-0.6,0.7l31.5-6.4
		C262.3,94.7,261.7,94.8,261.1,94.9z"/>
	<path d="M275,99.9c0-0.2,0-0.4,0-0.6l-31.6,6.4c0.4,0.1,0.7,0.2,1,0.4L275,99.9z"/>
	<path d="M226,107.4l5.5-1.1c0.3-0.2,0.5-0.3,0.8-0.5c0.2-0.1,0.4-0.3,0.6-0.4l-7.8,1.6c0.1,0.1,0.3,0.1,0.4,0.2
		C225.6,107.3,225.8,107.4,226,107.4z"/>
	<path d="M272.3,97.5l-33.3,6.7c0.1,0,0.1,0,0.2,0c0.3,0.1,0.6,0.2,1,0.3l33.7-6.8c-0.1,0-0.3-0.1-0.4-0.1
		C273.1,97.5,272.7,97.5,272.3,97.5z"/>
	<path d="M251.4,109.3l23.9-4.8c0-0.2,0-0.4,0-0.6l-24.8,5C250.8,109,251.1,109.2,251.4,109.3z"/>
	<path d="M247.9,107.7l27.2-5.5c0-0.2,0-0.4,0-0.6l-28.1,5.7C247.3,107.4,247.6,107.5,247.9,107.7z"/>
	<path d="M257.9,112.1c0.2,0.1,0.5,0.2,0.7,0.3l17.1-3.4c0-0.2,0-0.4-0.1-0.6l-18.1,3.6C257.7,112,257.8,112.1,257.9,112.1z"/>
	<path d="M254.1,110.6c0.2,0.1,0.3,0.1,0.5,0.2l20.9-4.2c0-0.2,0-0.4-0.1-0.6l-21.7,4.4C253.8,110.5,254,110.6,254.1,110.6z"/>
	<path d="M262.3,113.3c0.5,0.1,1.1,0.2,1.7,0.3l6-1.2c0,0,0.1,0,0.1,0c0.9-0.5,1.9-0.8,2.9-1.1L262.3,113.3z"/>
	<path d="M128.2,60.5l16.8-3.4c-0.4-0.1-0.8-0.3-1.1-0.4l-15.7,3.2C128.2,60.1,128.2,60.3,128.2,60.5z"/>
	<path d="M127.9,58.2l10.5-2.1c-1,0-2.1,0-3.1,0l-7.5,1.5l0,0.3C127.9,58,127.9,58.1,127.9,58.2z"/>
	<path d="M128.7,65.1l22.6-4.6c-0.2-0.2-0.4-0.3-0.6-0.5l-22.1,4.4C128.7,64.7,128.7,64.9,128.7,65.1z"/>
	<path d="M128.5,62.8l20.1-4c-0.3-0.1-0.6-0.3-0.8-0.4l-19.3,3.9C128.4,62.4,128.4,62.6,128.5,62.8z"/>
	<path d="M129.2,69.5l1.2-0.3c1.4-0.9,2.7-1,4-0.8l20.3-4.1c-0.1-0.2-0.2-0.4-0.3-0.5l-25.3,5.1C129.1,69.1,129.1,69.3,129.2,69.5z"
		/>
	<path d="M128.9,67.2l24.3-4.9c-0.2-0.2-0.3-0.3-0.5-0.5l-23.9,4.8C128.9,66.8,128.9,67,128.9,67.2z"/>
	<path d="M155.3,68.3L141,71.2c0.3,0.1,0.6,0.3,0.9,0.4l13.1-2.7C155.2,68.7,155.2,68.5,155.3,68.3z"/>
	<path d="M138.5,69.9l16.9-3.4c0-0.1,0-0.3-0.1-0.4c0,0,0-0.1,0-0.1l-17.6,3.6C137.9,69.6,138.2,69.8,138.5,69.9z"/>
	<path d="M147.4,72.8c1.6,0,3.4-0.3,4.9-1L147.4,72.8z"/>
	<path d="M291.1,217.8l-2.2,0.4c-0.1,0.2-0.2,0.4-0.1,0.6l4-0.8c-0.2,0-0.4-0.1-0.6-0.1C291.9,217.9,291.5,217.8,291.1,217.8z"/>
	<path d="M264.9,227.7l-9.9,2c-1.2,0.7-2.7,1-4.1,0.8l-9.4,1.9c-0.2,0.2-0.3,0.4-0.5,0.7l26.7-5.4c-0.2,0-0.4,0-0.6,0
		C266.3,227.7,265.6,227.7,264.9,227.7z"/>
	<path d="M244.7,230l3.1-0.6c-0.3-0.1-0.6-0.2-0.9-0.2C246.1,229.2,245.4,229.6,244.7,230z"/>
	<path d="M296.4,219.6c-0.3-0.1-0.5-0.3-0.8-0.4l-6.2,1.3c0.1,0.2,0.2,0.4,0.2,0.5L296.4,219.6z"/>
	<path d="M299.7,225.4l-60.6,12.2c0.2,0.2,0.4,0.3,0.8,0.4l59.8-12.1L299.7,225.4z"/>
	<path d="M239.4,235.8l45.1-9.1c-1.2,0.1-2.4,0.1-3.4,0.3c-1.2,0.2-2.5,0.4-3.8,0.5l-37.5,7.6C239.7,235.3,239.5,235.5,239.4,235.8z
		"/>
	<path d="M269.3,236.3c0.1,0.1,0.2,0.2,0.3,0.2l4.2-0.8c-0.1-0.2-0.3-0.3-0.5-0.5l-4.3,0.9C269.1,236.2,269.2,236.2,269.3,236.3z"/>
	<path d="M256.1,239.1c0.3-0.2,0.6-0.4,0.9-0.6l-7.7,1.5c0.1,0.2,0.4,0.3,0.7,0.4l5.5-1.1C255.8,239.3,255.9,239.2,256.1,239.1z"/>
	<path d="M299.7,229.9l-16,3.2c0.8,0,1.5,0.1,2.3,0.1l13.7-2.8L299.7,229.9z"/>
	<path d="M267.5,234.6l4.6-0.9c0-0.3,0.3-0.5,0.6-0.7l-5.8,1.2C267.1,234.3,267.3,234.4,267.5,234.6z"/>
	<path d="M248.7,238.4l12.8-2.6c0.4-0.2,0.9-0.6,1.4-0.9l-14.6,3C248.5,238,248.6,238.2,248.7,238.4z"/>
	<path d="M299.7,227.5l-23,4.6c0.5,0.1,1,0.2,1.4,0.3l21.6-4.4L299.7,227.5z"/>
	<path d="M299.7,234.5l-1.3,0.3c0.4,0.1,0.8,0.1,1.3,0.2L299.7,234.5z"/>
	<path d="M299.7,232.2l-8,1.6c0.6,0.1,1.2,0.1,1.8,0.2l6.2-1.2L299.7,232.2z"/>
	<path d="M141,313.6l9-1.8c-0.3-0.2-0.5-0.3-0.8-0.4l-7.4,1.5C141.5,313.1,141.2,313.4,141,313.6z"/>
	<path d="M171.7,311.4c-0.2,0.2-0.4,0.5-0.6,0.7l9.5-1.9c-0.6-0.1-1.1-0.2-1.7-0.2L171.7,311.4z"/>
	<path d="M167.8,317.4l50.8-10.3c-0.6-0.1-1.1-0.2-1.7-0.2l-48.8,9.8C168.1,317,168,317.2,167.8,317.4z"/>
	<path d="M158,319.4c-0.2-0.2-0.4-0.3-0.5-0.5l-4.9,1c0.1-0.4,0.1-0.8-0.3-1.1c-0.1-0.2-0.5-0.3-0.9-0.4l4.6-0.9
		c-0.1-0.1-0.1-0.1-0.2-0.2c-0.1-0.1-0.2-0.2-0.3-0.3l-5.7,1.1c-0.6-0.1-1.2-0.2-1.5-0.4c-0.4-0.2-0.9-0.5-1.3-0.8l7.1-1.4
		c-0.2-0.2-0.3-0.3-0.5-0.5l-7.3,1.5c-0.9-0.6-1.7-1-2.8-1.2l8.7-1.7c-0.2-0.2-0.4-0.3-0.5-0.5l-11.9,2.4c-2,0.3-4.1,0.5-5.7-0.4
		c-1.6-0.9-2.6-2.8-4.3-3.7c-3-1.7-6.7-1.1-10-1.3c0,0.1,0.1,0.1,0.1,0.2c0.8,0.8,1.8,1.3,2.9,1.7l0.2,0.1c1.4,0.6,2.8,1.1,4.1,1.9
		c0.1,0.1,0.3,0.2,0.4,0.3c0.3,0.2,0.5,0.3,0.8,0.4c0.1,0,0.2,0.1,0.4,0.1c0.2,0,0.3,0,0.5,0.1c0.5,0.2,1,0.7,1.3,1.1
		c0.1,0.1,0.2,0.2,0.3,0.4c0.3,0.3,0.5,0.8,0.5,1.1c0,0.2-0.2,0.6-0.6,0.8c-0.4,0.2-0.8,0.1-1.1-0.1l0.9-0.2
		c-0.4-0.1-0.7-0.1-1.1-0.2c-0.1,0-0.3,0-0.4,0c-0.1,0-0.2,0-0.2,0c-0.1,0-0.2,0-0.3,0l-3.1,0.6c-0.5,0.2-1,0.5-1.4,0.9l4.4-0.9
		c0,0.1,0,0.2,0,0.3c0,0.5,0,1.1-1,1.3c-1,0.2-2.1-0.2-2.9-0.5l-0.2-0.1c-1.3-0.5-2.6-1-4.4-1.9c-0.9-0.4-1.8-1-2.6-1.5
		c-1.8-1.1-3.7-2.2-5.8-2.5c-2.2-0.3-4.4,0.1-6.5,0.5c-0.3,0.1-0.6,0.1-0.9,0.1l0,9.5c3.1,1.2,2.7,4.2,4.6,6.7
		c0.8,1,1.9,3.1,2.9,3.7c1.7,1,3.7-0.4,5.3-0.8c1.4-0.3,2.4-0.1,3.4,0.2l-11.5,2.3c-0.4,0.3-0.8,0.6-1.2,0.8l13.6-2.8
		c0.8,0.4,1.6,0.8,2.6,1.1c0.1,0,0.2,0,0.2,0.1l-20,4l0,0.6l38.3-7.7c0.1-0.2,0.1-0.4,0.2-0.6l-11.1,2.2c0.3-0.3,0.5-0.8,0.7-1.6
		c0-0.1,0-0.2,0-0.3l10.8-2.2c0.1-0.2,0.1-0.4,0.2-0.6l-11,2.2c0-0.6-0.1-1.1-0.3-1.7l11.8-2.4c0.1-0.2,0.2-0.4,0.2-0.6l-12.2,2.5
		c-0.1-0.3-0.2-0.6-0.3-0.9c-0.1-0.2-0.2-0.5-0.3-0.7l13.9-2.8c0.2-0.3,0.5-0.6,0.8-0.8l-14.9,3c-0.2-0.6-0.4-1.1-0.5-1.6l13-2.6
		c1.2,0.5,2.4,0.8,3.6,0.7c0.9-0.1,3.7-1.1,4.8-2.4L158,319.4z"/>
	<path d="M169.3,314.7l16.7-3.4c-0.4-0.1-0.9-0.2-1.3-0.3l-15,3C169.6,314.3,169.4,314.5,169.3,314.7z"/>
	<path d="M192.5,309.5c-0.3,0.3-0.5,0.5-0.8,0.8l17.8-3.6c-1.3,0.1-2.6,0.2-3.8,0.2L192.5,309.5z"/>
	<path d="M150.6,325.5l45.4-9.2c0,0,0.1-0.1,0.1-0.1c0.6-0.4,1.4-0.7,2.1-0.9l-48,9.7C150.3,325.2,150.4,325.4,150.6,325.5z"/>
	<path d="M233.2,308.9c-1,0.1-2.1,0.1-3.2,0l-25.8,5.2c0.8,0.1,1.7,0.1,2.5,0.1L233.2,308.9z"/>
	<path d="M242.7,307l32.5-6.6c-0.3,0-0.6-0.1-1-0.1c-0.4,0-0.7,0-1.1-0.1l-26.9,5.4C245.1,306.1,243.9,306.6,242.7,307z"/>
	<path d="M159.8,320.7l-12.2,2.5c0.4,0.1,0.7,0.2,1,0.4l12-2.4C160.4,321,160.1,320.9,159.8,320.7z"/>
	<path d="M165.9,320.1l58.8-11.9c-0.5-0.1-1-0.2-1.5-0.3l-56.6,11.4C166.3,319.6,166.1,319.9,165.9,320.1z"/>
	<path d="M255.6,302l6.6-1.3c-1.9,0.2-3.9,0.5-5.7,1C256.2,301.8,255.9,301.9,255.6,302z"/>
	<path d="M184.2,322.8l-31.4,6.3c0.1,0.2,0.3,0.4,0.4,0.5l31-6.2C184.2,323.2,184.2,323,184.2,322.8z"/>
	<path d="M231.4,313.3c1.5-0.2,3-0.3,4.5-0.3l44.5-9c-0.1-0.2-0.3-0.3-0.4-0.5L231.4,313.3z"/>
	<path d="M151.8,327.6l33.4-6.7c0.1-0.1,0.2-0.1,0.3-0.2c0.6-0.3,1.2-0.3,1.8-0.2l6.3-1.3c0.2-0.2,0.4-0.5,0.5-0.7l-42.6,8.6
		C151.6,327.2,151.7,327.4,151.8,327.6z"/>
	<path d="M141,336.1l-36.7,7.4l0,0.6l36.3-7.3C140.7,336.5,140.9,336.3,141,336.1z"/>
	<path d="M299.8,304l-6.2,1.3c-0.6,0.3-1.2,0.7-1.8,1l8.1-1.6L299.8,304z"/>
	<path d="M160.8,332.1c0.4,0.1,0.8,0.2,1.3,0.3l23-4.6c0-0.2,0-0.4-0.1-0.6L160.8,332.1z"/>
	<path d="M142.1,333.5l-37.8,7.6l0,0.6l37.6-7.6C141.9,333.9,142,333.7,142.1,333.5z"/>
	<path d="M184.5,324.9l-29.7,6c0.3,0.2,0.6,0.3,0.8,0.4l29-5.9C184.6,325.3,184.5,325.1,184.5,324.9z"/>
	<path d="M282.1,305.8c-0.2-0.1-0.4-0.3-0.5-0.5l-39.3,7.9c0.7,0.1,1.4,0.1,2.1,0.2L282.1,305.8z"/>
	<path d="M299.8,309.3l0-0.6l-15.2,3.1c0.2,0.1,0.4,0.3,0.6,0.5L299.8,309.3C299.8,309.3,299.8,309.3,299.8,309.3z"/>
	<path d="M122.8,342l-18.5,3.7l0,0.1c0.7,0,1.3,0.1,1.9,0.1l13.6-2.7C120.8,342.8,121.8,342.4,122.8,342z"/>
	<path d="M137.2,339.7c0.1-0.1,0.3-0.1,0.4-0.2c0.4-0.2,0.7-0.4,1-0.7l-9.8,2c1.2-0.1,2.4-0.1,3.6-0.1L137.2,339.7z"/>
	<path d="M166.4,333.8l18.2-3.7c0.1-0.2,0.2-0.4,0.3-0.6l-19.6,4C165.6,333.6,166,333.7,166.4,333.8z"/>
	<path d="M267.5,319.4c0.3,0.1,0.7,0.3,1,0.4l7.3-1.5c-0.2-0.1-0.5-0.2-0.8-0.4c0,0-0.1,0-0.1,0L267.5,319.4z"/>
	<path d="M294.7,314.5c0.2-0.2,0.3-0.5,0.5-0.7l-7.6,1.5c0.3,0.2,0.6,0.3,1,0.4L294.7,314.5z"/>
	<path d="M299.3,310.6l-13.3,2.7c0.1,0.2,0.2,0.3,0.4,0.5l12.5-2.5C299.1,311.1,299.2,310.9,299.3,310.6z"/>
	<path d="M127.5,215.7l-23.3,4.7l0,0.6l24.4-4.9C128.3,215.9,127.9,215.8,127.5,215.7z"/>
	<path d="M118.3,215.2l-5.9,1.2c-1.3,0.3-2.6,0.6-3.9,0.8c-0.2,0-0.4,0.1-0.6,0.1l-3.6,0.7l0,0.6l18.4-3.7
		C121.1,214.9,119.7,215,118.3,215.2z"/>
	<path d="M134,219l-29.8,6l0,0.6l30.4-6.1C134.5,219.3,134.2,219.2,134,219z"/>
	<path d="M131.2,217.2l-27,5.4l0,0.6l27.8-5.6C131.7,217.5,131.5,217.4,131.2,217.2z"/>
	<path d="M137.8,222.9l-33.6,6.8l0,0.6l34-6.9C138.1,223.3,138,223.1,137.8,222.9z"/>
	<path d="M136.2,220.9l-32,6.5l0,0.6l32.4-6.5C136.5,221.2,136.4,221,136.2,220.9z"/>
	<path d="M108.4,234l32.9-6.6c-0.2-0.2-0.3-0.3-0.5-0.5l-32.8,6.6C108.1,233.6,108.3,233.8,108.4,234z"/>
	<path d="M104.8,231.7c0.3,0.1,0.6,0.3,0.9,0.4l33.9-6.8c-0.1-0.2-0.2-0.3-0.4-0.5L104.8,231.7z"/>
	<path d="M108.3,238.6l6.3-1.3c0-0.2,0-0.4,0-0.6l-7,1.4C107.9,238.3,108.1,238.5,108.3,238.6z"/>
	<path d="M128.5,234.6l32.7-6.6c-0.3-0.1-0.7-0.3-1-0.4l-32.7,6.6C127.8,234.3,128.1,234.4,128.5,234.6z"/>
	<path d="M121.2,233.7l22.6-4.5c-0.3-0.1-0.5-0.3-0.8-0.4l-38.7,7.8l0,0.6l13-2.6C118.3,234.1,119.7,233.8,121.2,233.7z"/>
	<polygon points="104.2,243.7 104.2,243.7 104.2,243.7 	"/>
	<path d="M131.3,237.6c0.1,0.2,0.1,0.4,0.1,0.6l35.1-7.1c-0.2-0.2-0.4-0.3-0.6-0.5L131.3,237.6z"/>
	<path d="M105.7,243.4l8.9-1.8c0.2-0.2,0.3-0.4,0.4-0.7l-9.1,1.8C105.7,243,105.6,243.2,105.7,243.4z"/>
	<path d="M108.5,240.5l6.4-1.3c0-0.2-0.1-0.4-0.1-0.6l-6.1,1.2C108.7,240,108.6,240.2,108.5,240.5z"/>
	<path d="M129.9,235.5c0.2,0.2,0.3,0.3,0.5,0.5l33.4-6.7c-0.3-0.2-0.5-0.3-0.8-0.4L129.9,235.5z"/>
	<path d="M107.8,247l-3.6,0.7l0,0.6l4-0.8C108.1,247.4,108,247.2,107.8,247z"/>
	<path d="M105.9,245.1l-1.6,0.3l0,0.6l2.2-0.4C106.2,245.4,106.1,245.2,105.9,245.1z"/>
	<path d="M132.1,246.6c2-0.1,4.3-0.7,6.6-1.3L132.1,246.6z"/>
	<path d="M111.2,250.9l-6.9,1.4l0,0.6l7.4-1.5C111.5,251.2,111.3,251,111.2,250.9z"/>
	<path d="M109.7,249.2c-0.1-0.1-0.2-0.2-0.3-0.3l-5.2,1l0,0.6l5.6-1.1C109.8,249.3,109.7,249.2,109.7,249.2z"/>
	<path d="M111,256.2l6.2-1.3c-0.3-0.1-0.6-0.3-0.9-0.4l-6.9,1.4C109.9,256,110.5,256.1,111,256.2z"/>
	<path d="M114,253.2c-0.2-0.1-0.4-0.3-0.7-0.5l-9.1,1.8l0,0.3c0.2,0,0.3,0.1,0.5,0.1L114,253.2z"/>
	<path d="M131,256.8c-0.8,0-1.4-0.1-2-0.1c-0.2,0-0.5,0-0.7,0l-11.4,2.3c0.1,0.2,0.2,0.3,0.4,0.5L131,256.8z"/>
	<path d="M147.9,253.4l43.8-8.8c-0.5-0.1-1-0.2-1.5-0.3l-42,8.5C148.1,253,148,253.2,147.9,253.4z"/>
	<path d="M206.7,241.5l9-1.8c-1.4-0.1-3.4,0.4-4.5,0.6C209.6,240.6,208.1,241,206.7,241.5z"/>
	<path d="M122,256.2c-0.5-0.1-1-0.2-1.5-0.3l-6,1.2c0.3,0.1,0.6,0.3,0.8,0.4L122,256.2z"/>
	<path d="M148.5,250.3c0,0.2,0,0.4,0,0.6l38.2-7.7c-0.3-0.1-0.7-0.2-1-0.4L148.5,250.3z"/>
	<path d="M225.2,241.9l-6.3,1.3c0.3,0.1,0.6,0.3,0.9,0.4l5.9-1.2c0,0,0,0,0,0C225.7,242.1,225.5,242,225.2,241.9z"/>
	<path d="M176,251.8c0.4,0,0.9,0.1,1.3,0.3l29.7-6c0.1-0.2,0.2-0.4,0.4-0.7L176,251.8z"/>
	<path d="M211.8,249.7c-0.4-0.1-0.8-0.2-1.2-0.4l-29,5.9c0.2,0.2,0.4,0.3,0.7,0.5L211.8,249.7z"/>
	<path d="M208,248.1c-0.2-0.2-0.4-0.3-0.6-0.5l-28.2,5.7c0.2,0.2,0.4,0.3,0.6,0.5L208,248.1z"/>
	<path d="M231,249.9l-41.1,8.3c0.4,0.1,0.7,0.2,1.1,0.4l40.3-8.1C231.2,250.2,231.1,250,231,249.9z"/>
	<path d="M218.5,250.6c-0.7,0-1.5,0-2.4-0.1l-30.8,6.2c0.4,0.1,0.8,0.2,1.2,0.4L218.5,250.6z"/>
	<path d="M220.7,250.2l8.1-1.6c-0.5-0.1-1-0.2-1.5-0.3l-4.9,1C221.9,249.6,221.3,249.9,220.7,250.2z"/>
	<path d="M229.8,255.4l-3.6,0.7C227.6,256.3,228.8,256.3,229.8,255.4z"/>
	<path d="M197.5,260.1l8.5-1.7c-0.1-0.2-0.3-0.4-0.3-0.5l-9.6,1.9C196.5,259.9,197,260,197.5,260.1z"/>
	<path d="M231.1,252.9c0-0.1,0-0.1,0.1-0.2l-12.3,2.5c0.7,0.1,1.4,0.1,2,0.2l10-2C231,253.2,231.1,253.1,231.1,252.9z"/>
	<path d="M591.4,182.5l4.4-0.9c2,0,4.3,0.3,6.8,0.1c1.7-0.1,4.3-1.1,6.3-2.7l20.7-4.2c0.4-0.3,0.8-0.5,1.2-0.8l-21.1,4.3
		c0.6-0.6,1.1-1.3,1.4-2l21-4.2c0-0.2,0-0.4-0.1-0.6l-20.8,4.2c0.1-0.5,0.2-1,0.1-1.6l20.1-4.1c-0.1-0.2-0.3-0.4-0.4-0.5l-19.8,4
		c-0.1-0.5-0.3-1-0.6-1.5c0,0-0.1-0.1-0.1-0.1l5.9-1.2c-0.9,0.1-1.7,0.1-2.5-0.1l-3.8,0.8c-0.4-0.5-1-1-1.6-1.4l3.4-0.7
		c-0.1-0.2-0.2-0.3-0.3-0.5l-3.8,0.8c-1-0.5-2.1-0.9-3.3-1.1l6.6-1.3c0-0.2,0-0.4-0.1-0.6l-8.2,1.6c-2.4-0.3-4.8-0.1-6.1,0.1
		c-2.7,0.5-5,1.5-7.3,2.6l-12.8,2.6c0.3,0.1,0.6,0.3,0.9,0.4l9.5-1.9c-2,0.9-4.2,1.6-6.7,1.8c-0.9,0.1-1.8,0.1-2.8,0.1
		c1.3,0.1,2.7,0.4,4.2,0.9l-1.8,0.4c0.3,0.1,0.5,0.3,0.8,0.4l2.1-0.4c0.9,0.3,1.8,0.7,2.7,1.2l-2.4,0.5c0.3,0.1,0.6,0.3,0.8,0.4
		l2.4-0.5c0.8,0.4,1.5,0.8,2.2,1.3l-2.3,0.5c0.2,0.1,0.4,0.3,0.7,0.5l2.3-0.5c0.6,0.4,1.1,0.8,1.6,1.2l-2.5,0.5
		c0.2,0.2,0.4,0.3,0.5,0.5l2.5-0.5c0.6,0.5,1.2,1,1.7,1.4l-2.6,0.5C591,182.2,591.2,182.3,591.4,182.5z"/>
	<path d="M587.9,187.3c-1.3,0-2.7,0-4,0.3c-6.3,1-12.2-2-18.3-3.1c-0.2,0.6-0.3,1.2-0.5,1.9c-1.7,5.6-5.1,3.9-7.7,0.1
		c-0.5-0.8-1-1.4-1.5-2l-12.1,0.5c-2.8-2.9-3.6-4.7-3.2-5.8c-0.3,0-0.6,0-0.9,0c-4.6,0.2-7.4,4.9-10,8.3c-3.3,4.3-6.7,4.2-11.3,4.2
		c-4.2,0-5.5,3.4-7.9,5.8c2.2,0.5,4.5,0.9,6.6,1.6c0.5,0.1,0.9,0.3,1.4,0.5c0.5,0.2,0.9,0.4,1.4,0.6c0.6,0.2,1.2,0.2,1.8,0.4
		c0.8,0.2,1.3,0.6,2.2,0.3c0.5-0.1,1.1-0.5,1.6-0.4c0.6,0.1,0.9,0.7,1.6,0.9c1,0.2,3.6-1.4,4.3-0.2c0.4,0.8-0.3,1.4-1.1,1.8
		c3,0.5,6,0.5,7.6-0.9c4.5-3.6,5.5-16.7,15.7-5.9c3.2,3.4,5.4,6.2,9,6c0.3-0.4,0.7-0.8,1-1.2c0.8-0.9,1.6-1.8,2.5-2.6
		c0.7-0.6,2.2-2.1,3.2-1.2c0.1,0.1,0.2,0.2,0.3,0.3c0.7-0.8,1.4-1.5,2.3-2c1.9-1.1,4.2,0,6.7,0.2C584.4,196,586.1,191.5,587.9,187.3
		z"/>
	<path d="M512.8,202c-0.1,0-0.1,0-0.2,0c-1.4-0.2-2.9-0.3-4.3-0.2c0.9,0.2,1.9,0.4,2.8,0.5C511.7,202.3,512.3,202.2,512.8,202z"/>
	<path d="M469,249.8c1.6,0.4,2.9,2,4.5,2.6c2.4,0.9,5.4,1.1,7.9,1.1c7.6,0.2,11.4-5.7,18.6-6.1c0.8,0,1.5-0.1,2.3-0.1
		c6.6,0.9,15.1-2,14.4-10.5c-0.1-0.9-0.3-1.8-0.7-2.6l17.6-3.6c0.7-0.3,1.4-0.6,2-1l-19.9,4c-0.2-0.3-0.4-0.5-0.6-0.7
		c-0.3-0.3-0.7-0.5-1.1-0.7l26.8-5.4c1.8-0.7,3.6-1.2,5.6-1.4c0.8-0.1,1.6-0.2,2.4-0.2l51.9-10.5c-0.1,0-0.2,0-0.4,0
		c-0.4,0-0.8-0.1-1.2-0.2c0,0-0.1,0-0.1,0l-4.7,1c-2,1.1-4.8,1.6-7.4,1.5L513,231.9c-0.7-0.1-1.3,0-1.8,0.4l-7.3,1.5
		c-0.5,0.2-1,0.4-1.5,0.5c-0.7,0.2-1.6,0.5-2.5,0.9l10.7-2.2c-0.5,0.6-0.8,1.4-1.3,2l-6.6,1.3c-0.7-0.2-1.5-0.3-2.1-0.5
		c-2.3-0.4-4.5-0.1-6.4,1.4c-0.7,0.6-1.2,1.4-1.8,2.1c-1,1-3,1.8-2.3-0.5c0.3-0.9,2.1-2.4,0.5-2.9c-1.5-0.5-3.2,0.6-4.7,0.6
		c-2.2,0-0.6-1.6-1.8-2.3c-0.5-0.3-1.3,0.5-1.7,0.8c-0.2,0.1-0.9,0.9-1.1,0.4c-0.1-0.2,0.5-0.7,0.6-0.9c0.3-0.3,0.5-0.6,0.6-1.1
		c0.2-0.9,0.1-1.9,0.3-2.8c0.2-1.4,0.9-3.1,0.6-4.5c-1.8,0-2.9,4.5-4.2,5.6c-0.8,0.7-1.7,1.2-2.5,1.9c-0.7,0.6-1.7,1-2.6,1.3
		c-1.1,0.3-1.9,0.1-3-0.2c-0.1,0-0.1,0-0.2-0.1c-0.4,2.2-3.3,4.2-4.9,5.6c-4.5,3.8-10.3,10.2-18.1,10.1l0,7c2.8-0.7,6-2,7.4-2.4
		C459.5,254,464.1,248.5,469,249.8z"/>
	<path d="M634.3,330.4c-0.5-0.2-2.1-0.9-3.9-1.4c-1.6-1.5-2.8-3.3-5-4c-1.8-0.6-3.8-0.2-5.7,0.2c-4.2,1-7.8,3.3-11.7,5
		c-1.4,0.6-3.2,1.5-4.8,1.4c-6.5-0.3-11.7-7.5-16.9-3.7c-1.7,1.3-0.7,5-3.2,5.9c-3.3,1.1-7.2-1.9-10.6-4.1c-3.2-2-8-6.6-12.7-10.2
		l9.8-2c-1.1,0-2.2,0-3.3,0.1l-7.2,1.5c-0.6-0.5-1.3-0.9-1.9-1.3l2.2-0.4c-0.2-0.1-0.4-0.3-0.6-0.5l-2.3,0.5
		c-0.8-0.5-1.5-0.9-2.3-1.3l11-2.2c0.5-0.3,0.9-0.6,1.4-0.9l-13.3,2.7c-1.3-0.6-2.5-0.9-3.6-0.8c-6.2,0.5-4,3.3,0,6.1l-28,5.6
		c0.1,0.2,0.3,0.3,0.4,0.5l28.2-5.7c0.7,0.5,1.4,0.9,2.1,1.3l-29,5.8c0.1,0.2,0.3,0.3,0.4,0.5l29.3-5.9c0.7,0.4,1.5,0.9,2.2,1.3
		l-30.4,6.1c0.1,0.2,0.2,0.3,0.3,0.5l30.8-6.2c0.8,0.5,1.6,0.9,2.3,1.3l-32.1,6.5c0.1,0.1,0.2,0.3,0.3,0.4c-1.4-0.5-3-0.3-4.4-0.8
		c-1.1-0.4-2-0.9-2.8-1.3c-0.9-0.4-1.8-0.7-3-0.7c-1.1,0.4-2.3,0.7-3.5,1c-0.6,0.2-1.2,0.3-1.8,0.4c-2.4,0.8-5,0.5-6.8-1.4
		c-3.8-3.4-7.8-5.7-12.1-7.5c-0.5-0.2-0.9-0.5-1.4-0.7c-13.6-6.2-21.4,2.8-33.2,2.1c-0.9,0.9-2.1,2-3.3,1.8c-0.3,0-0.5-0.1-0.7-0.2
		c-0.2-0.1-0.5-0.2-0.7-0.2c-0.6,0-1.3,0.3-1.9,0.6l-0.2,0.1c-0.9,0.5-2,1-2.9,1c-0.2,0-0.4,0-0.6-0.1l0,1.3
		c0.5,0.7,1.2,1.6,2.2,2.6c7.1,7.3,12.6-0.9,18.4-0.8c7.5,0.2,14.3,4.7,21.8,3.4c0.7-0.1,1.4-0.2,2-0.3c5-0.7,9.9,0.4,14.3,3.3
		c0.5,0.3,1,0.6,1.5,0.8c1.5,0.7,3.5,1.8,5.2,2c1.7,0.2,3.4-0.8,5.1-0.6c6,0.8-3.8,8.2,4.4,9.7c5.2,1,8.7-1.5,13.6-1.3
		c1.9,0.1,4.2,0.6,6.1,0.4c1.5-0.1,1.4-0.7,2.3-1.7c1.5-1.5,4.7-1.2,6.6-1.2c2.6,0,5.1-0.5,7.6-1.5c0.6-0.2,3.7-2.8,5.6-4.4
		c0.2,0.1,0.4,0.1,0.6,0.2l6.7-1.4c-0.3-0.1-0.8-0.2-1.4-0.3l-0.2,0c1.1-0.5,1.8-1.6,1.6-3.3c1.1-0.3,2.1-0.5,3.2-0.3
		c3.7,1,5.4,3.5,6.8,5.7c-0.3-0.1-0.5-0.1-0.7-0.2c0,0,0,0,0,0l-8.3,1.7c0.2,0.1,0.4,0.1,0.7,0.2c0.2,0,0.3,0.1,0.5,0.2l8-1.6
		c0.3,0.4,0.6,0.8,0.9,1.2c0.2-0.1,0.4-0.2,0.7-0.3c1.1-0.5,2.2-1,3.4-1.4c2.2-0.8,4.3-2,6.4-3.1c2.8-1.6,5.7-3.2,8.9-3.9
		c2.9-0.7,10.9-0.3,14.1,2c0.6,0.4,1,0.8,1.2,1.3c0.4-0.2,0.8-0.4,1.3-0.5c1.3-0.5,2.5-0.6,3.7-1.2c1.5-0.8,3.1-1.5,4.8-1.9
		c1.9,0.2,4.5-0.4,5.8-0.1c2.5,0.5,3,3,4.1,5c0.4,0.6,0.6,1.3,0.8,2l-1.9,0.4c-0.5,0.3-1,0.5-1.5,0.9l3.7-0.7
		c0.3,0.6,0.6,1.1,1.1,1.5l-7.1,1.4c-0.2,0.2-0.5,0.5-0.7,0.7l8.6-1.7c0.1,0,0.2,0.1,0.3,0.1c0.7,0.2,1,0.3,1.2,0.6
		c0.1,0.2,0.2,0.4,0.2,0.7l-12.8,2.6c-1.4,0.9-2.7,1-4,0.8l-20.3,4.1c0.1,0.2,0.2,0.4,0.3,0.5l37-7.5c0.1,0.7,0.4,1.2,0.7,1.6
		l-36.5,7.4c0.2,0.2,0.3,0.3,0.5,0.5l36.4-7.3l0-0.6l0-1.8l0-0.6l0-1.7l0-0.6l0-10c-0.2,0-0.4,0.1-0.6,0.1
		C639.9,331,636.9,331.3,634.3,330.4z"/>
	<path d="M449.2,323.9c-0.6,0.1-1.1,0.3-1.6,0.5l0,1.4c0.2-0.2,0.4-0.4,0.7-0.6C448.7,324.8,449,324.3,449.2,323.9z"/>
	<path d="M610.3,127.8c-0.8-0.4-2-0.7-3-0.9c1.5-0.3,3.5,0,5.1,0.3c0,0-0.1-0.1-0.1-0.1c-0.4-0.2-0.8-0.5-1.2-0.7
		c-2.1-1-4.6-1.4-6.8-1.1c-1.8,0.2-5,1.3-2.8,3.5c0.4,0.4,0.8,0.7,1.3,1c1.1,0.7,2.2,1.1,3.4,1.3c-0.4-0.7-0.7-1.4-0.7-2
		c0.2,0.3,0.5,0.6,0.9,0.9c1.5,0.5,4.6,0.7,5.7,1.8c1.1,1,1.3,3.4,2.9,5c-0.2-0.1-0.4-0.1-0.7-0.2c1,1.2,2.2,2.5,3.5,3.3
		c0,0,0.1,0,0.1,0l0.2,0c1.5-0.3,2.9-0.2,4.4,0c0.6,0,1.2,0.1,1.9,0.1c0.6,0,1.1,0,1.7,0c-0.4-0.9-0.8-1.8-1.2-2.7
		c-1.9-0.4-3.8-1.3-5.9-2.9C615.8,131.8,614,129.5,610.3,127.8z"/>
	<path d="M476.4,131.3c2.6,0.1,5.6,0.2,8,2c0.7,0.6,1.1,1.3,1.5,2.1c0.4,0.7,0.8,1.4,1.4,1.9c1.5,1.1,3.5,0.9,5.1,0.7
		c0.5,0,1-0.1,1.4-0.1c1.6,0,3.1,0.2,4.6,0.5c1.2,0.2,2.3,0.4,3.4,0.5c2.4,0.1,4.8-0.3,7.1-0.7c1.6-0.3,3.2-0.5,4.8-0.6
		c1-0.1,6.2-0.1,7.8,1.4c0.4,0.3,0.5,0.7,0.5,1.1c0,1.4-0.2,2.6-0.6,3.5c0.8,0,1.4,0.2,2,0.6c0,0.1,0,0.3,0,0.5l0.5-0.1
		c0.5,0.4,1,0.9,1.5,1.3c0,0,0.1,0.1,0.1,0.1l-0.7,0.2c0.1,0.2,0.2,0.4,0.3,0.5l0.9-0.2c0.4,0.4,0.8,1,1.2,1.5l-0.4,0.1
		c0.2,0.2,0.3,0.3,0.5,0.5l0.3-0.1c0.5,0.5,0.9,1.1,1.4,1.4l0,0c0.2,0.1,0.3,0.3,0.5,0.4c0,0,0,0,0.1,0.1l0.2,0
		c0.3,0.1,0.6,0.2,0.9,0.1c0.5-0.1,0.9-0.3,1.1-0.5l10.2-2.1c0.7,0.4,1.4,0.7,2.1,0.9c0.4,0.1,0.9,0.2,1.3,0.2l-14.6,2.9
		c0.1,0.2,0.2,0.4,0.4,0.5l16.5-3.3c1.3,0.1,2.6,0.4,3.9,0.8l-17.8,3.6c1-0.1,2-0.4,3.1,0l15.8-3.2c0.9,0.3,1.7,0.7,2.5,1.3
		l-16.1,3.3c0.2,0.2,0.4,0.3,0.5,0.5l16.1-3.3c0.6,0.5,1.3,1,1.9,1.3l-16.1,3.2c0.2,0.1,0.5,0.2,0.7,0.2c0.2,0,0.3,0.1,0.5,0.1
		l7.6-1.5c0.5-0.2,1-0.4,1.5-0.3l6.7-1.3c3,1.3,6.5,1.2,9.8,0.8c3.1-0.3,5.9,0.5,8.4-2.3c1.8-2,2-1.4,2,1.3c-0.1,6,3.8,1.9,6,0
		c3.2-2.7,6.7-1.7,10.1,0l-2.2,0.4c-0.2,0.2-0.4,0.5-0.6,0.7l3.6-0.7c0.8,0.4,1.6,0.8,2.3,1.2l-7.6,1.5c-0.1,0.2-0.3,0.4-0.5,0.7
		l8.8-1.8c0.1,0,0.1,0.1,0.2,0.1c0.9,0.5,1.8,0.8,2.6,1.1l-13,2.6c-0.2,0.2-0.3,0.5-0.5,0.7l14.7-3c0.3,0.1,0.6,0.2,0.9,0.2
		c1.3,0.3,2.6,0.4,3.9,0.4l-21.1,4.3c-0.4,0.3-0.7,0.6-1.1,0.8l37.4-7.5c0.2,0,0.3,0.1,0.5,0.1c0.6,0.1,1.2,0.3,1.8,0.4
		c0.8,0.1,1.5,0.2,2.3,0.3l-81.5,16.4c-0.2,0-0.4,0.1-0.6,0.1l-6.2,1.3c0.3,0.1,0.6,0.1,0.9,0.1c0.4,0,0.7,0,1.1,0.1l73-14.7
		c1.9-1,4.6-1.4,7.3-1.5l13.7-2.8c-0.1-0.2-0.3-0.3-0.4-0.5l-5.9,1.2c-0.6-0.5-1.3-0.9-2-1.4l4.4-0.9c-0.4-0.1-0.9-0.2-1.3-0.3
		l-3.8,0.8c-0.7-0.4-1.3-0.8-2-1.2l2.2-0.4c-0.5-0.1-1.1-0.2-1.6-0.3l-1.3,0.3c-3.2-1.6-6.3-2.8-8.4-3c-1.1-0.1-2.3,0-3.5,0.1
		c-1.8,0.1-3.3-1.2-4.4-2.7c-0.9-1.2-0.9-2.5-2.5-2.8c-1.1-0.2-2.4-0.4-3.4-0.3c-2.8,0.3-6,1.5-8.2-0.5c-2-1.6-4.4-2.3-6.6-3.5
		c-0.4-0.2-0.8-0.5-1.2-0.8c-1-0.7-1.7-2.4-0.8-3.2c0.4-0.5,0.9-0.9,1.4-1.3c0.5-0.4,1.1-0.8,1.6-1.1c0.8-0.5,1.6-0.9,2.2-1.7
		c0.9-1.4,1.2-3.3,0.6-4.9c-0.1-0.2-0.2-0.4-0.3-0.7c-0.1,0.1-0.3,0.2-0.4,0.2c-2.5,1.5-3,4.1-5.2,5.9c-1,0.8-2,1.6-3.1,2.2
		c0,1.5,0.8,3-0.3,4.5c-0.5,0.7-1.1,1.4-1.6,1.9c-0.8,0.8-1.7,1.1-2.8,1.5c-0.4,0.2-0.9,0.3-1.3,0.5c-2.2,0.7-4.7,1.1-6.7,1.5
		c-3.2,0.6-6.3,1.1-9.6,1c-1,0-1.5-0.5-2.3-1.1c-0.9-0.7-2.2-0.7-3-1.6c-0.3-0.4-0.5-0.9-0.7-1.3c-0.2-0.4-0.5-0.7-0.9-1.1
		c-0.8-0.9-0.6-1.8,0.1-2.6c0.4-0.4,0.7-0.9,1.2-1.2c0.5-0.4,1.4-0.6,2-0.7c0.6-0.2,1.2-0.3,1.8-0.4c1.1-0.1,2.2-0.1,3.3-0.2
		c0.8-0.1,1.9-0.2,2.9-0.5c-0.5-0.2-1-0.5-1.6-1c-1.3-1-1.8-2.6-3.7-3c-2.6-0.6-3,2-5,2.5c-2.1,0.5-7.6-2.9-9-4.7
		c-0.7-0.9-0.8-1.7-0.5-2.4c-0.7,0.1-1.3,0.5-2,1.4c-1,1.2-0.7,2.9-1.7,4c-0.9,1.2-2.2,0.9-3.3,1.9c-2.2,2.1-3.2,4.9-5.7,4.4
		c-0.5-0.1-1-0.3-1.7-0.7c-3.4-4.6-7.3-7.8-13.1-7.3c-0.6-0.1-1.2-0.1-1.8-0.2c-1.8-0.2-3.6-0.4-5.4-0.7c-1.7-0.3-4.7-0.3-5.9-1.7
		c-0.5-0.6-0.5-1.6-0.9-2.2c-0.5-0.6-1.3-0.8-1.6-1.1c-0.9-1.1-1-2.8-2.3-3.6c-1.1-0.8-2.4-0.3-3.6-0.7c-1.8-0.7-2.7-2.6-4.2-3.6
		c-2.2-1.4-1.6,0-3.3,0.9c-1.6,0.9-4.5-0.4-6.4-0.6c-1.9-0.2-4.2-3.7-6.4-2.2c-1.2,0.8-0.5,2.6-2.4,2.9c-0.3,0-0.6,0.1-0.8,0.1
		c-0.8,4.9-1.9,9.6-3.3,13.9c1.8,0,3.4,0,5.3,0.4C473.8,131.2,475.1,131.3,476.4,131.3z"/>
	<path d="M612.3,92c-0.9,0.1-3.7,1.1-4.8,2.4l-5.9,1.2c0.2,0.2,0.4,0.3,0.5,0.5l4.9-1c-0.1,0.4-0.1,0.8,0.3,1.1
		c0.1,0.2,0.5,0.3,0.9,0.4l-4.6,0.9c0.1,0.1,0.1,0.1,0.2,0.2c0.1,0.1,0.2,0.2,0.3,0.3l5.7-1.1c0.6,0.1,1.2,0.2,1.5,0.4
		c0.4,0.2,0.9,0.5,1.3,0.8l-7.1,1.4c0.2,0.2,0.3,0.3,0.5,0.5l7.3-1.5c0.9,0.6,1.7,1,2.8,1.2l-8.7,1.7c0.2,0.2,0.4,0.3,0.5,0.5
		l9.6-1.9c0-0.2,0-0.4,0-0.6c0-0.6-0.1-1.2-0.1-1.8c0-0.2,0-0.4,0-0.6c0-0.6,0-1.1,0-1.7c0-0.2,0-0.4,0-0.6c0-0.4,0-0.9,0-1.4
		c-0.2-0.1-0.4-0.2-0.5-0.3l0.5-0.1c0-0.2,0-0.4,0-0.6l-1.4,0.3C614.7,92.2,613.5,91.8,612.3,92z"/>
	<path d="M637.3,264.5c1.9,0.2,2.8,1.7,4.5,2.1c0.4,0.1,0.8,0.2,1.3,0.3l0-7.7c-1.5,0.3-3-0.3-4.6-0.5c-1.9-0.2-3.4,0.5-5.3,0.5
		c-1.4,0-3-0.9-4.3-1.5c-2.7-1.3-5.7-3.1-8.7-3c-1.8,0.1-3.4,0.9-4.8,2.2c-2.4,2.5,0.4,5,2.3,6.5c1.6,1.2,3.4,2.2,5.3,2.6
		c3.3,0.8,6.7,0.1,9.8-1.1C634.3,264.5,635.8,264.4,637.3,264.5z"/>
	<path d="M643.1,226.2c-0.3,0-0.6,0.1-0.9,0.1c-0.1,0-0.2,0-0.3,0c-0.3,0-0.7,0-1.2,0c-1,0.2-2,0.4-2.7,0.7
		c-4.7,1.4-9.1,5.8-14.2,5.3c-3.1-0.3-6.9-2.6-5.5-6.6c0.6-1.8,1.9-2.5,3.6-2.8c2.1-0.4,3.9-0.7,5.9-1.5c0.1,0,0.2-0.1,0.3-0.1
		c1.2-0.5,1.5-0.8,1.5-1.4c0,0,0-0.1,0-0.1c0,0,0,0,0,0c0-0.1,0-0.2,0-0.3c-0.1-0.4-0.2-1-0.2-1.8c1-0.4,1.9-1.6,2.9-1.8
		c1.2-0.3,2.2,0.6,3.3-0.3c1-0.8,1.3-2.2,0.1-2.8c-1.3-0.7-4.1,1.1-5.4,1.5c-1.5,0.5-3,0.6-4.4,1.2c-2,0.9-3.7,2.6-5.6,3.7
		c-0.9,0.6-1.9,0.9-2.7,1.6c-0.8,0.7-1.2,2.1-2.5,2.2c-2.7,0.2-3.5-3.9-4.5-4.1c-0.5-0.1-1-0.1-1.4-0.1c-0.5,0-0.9,0.1-1.4,0.2
		c-0.7-0.1-1.5,0.2-2.1,0.7c-1.2,0.9-2.4,1.3-3.7,1.5c-0.4,0.1-0.8,0.1-1.3,0.1c-1.3,0.1-2.4-0.2-3.8,0.2c-1.2,0.4-2.4,1.1-3.5,1.8
		c-1.1,0.8-2,1.7-3.1,2.5c-0.9,0.6-1.6,1.7-2.6,2.2c-0.5,0.3-1,0.4-1.5,0.7c-0.8,0.6-1.2,1.4-1.6,2.2c-0.4,0.8-1.5,1.8-1.4,2.7
		c0.1,1.6,2.2,1.2,3.1,1.1c1.1-0.2,2.2-0.3,3.3-0.4c1-0.1,1.9-0.4,2.9-0.6c6-0.9,18.4,0,22.6,5.2c2.3,2.9,2.3,6.9,6.6,8.4
		c0.5,0.2,1,0.3,1.4,0.3c2,0.3,4.8-0.6,6.5-1.8c1.3-0.9,3.3-1.2,4.8-1.2c1.7,0.1,3.4,1.1,5.1,1.3c0.6,0.1,1.4,0.2,2.1,0.2
		c0.4-0.1,0.7-0.3,1.1-0.3c0.1,0,0.1,0,0.2,0L643.1,226.2z"/>
	<path d="M640.9,307.7c-0.4-0.1-0.9-0.1-1.4-0.1c0,0,0,0,0,0l0,0c-0.2,0-0.3,0-0.5,0.1l-7,1.4c0.1,0,0.3,0.1,0.4,0.1
		c0.2,0.1,0.5,0.1,0.7,0.2l5.2-1.1c0,0.1,0,0.2,0,0.4c0,0.6,0.3,1,0.8,1.2l-3.4,0.7c0.2,0.1,0.4,0.3,0.6,0.5l3.9-0.8
		c0.3,0.1,0.6,0.1,0.8,0.2c0.6,0.2,1.1,0.6,1.6,1l-5.7,1.1c0,0.2-0.1,0.5-0.3,0.6l6.5-1.3l0-0.6l0-3.9
		C642.5,307.8,641.7,307.8,640.9,307.7z"/>
	<path d="M637.1,321.9c-1.3,0-5.3-1.3-4.3,1.4c0.5,1.2,3.8,3,5.1,3c1.7,0.1,3.6-0.6,5.4-1.3l0-4.9c-0.1,0-0.2,0.1-0.3,0.1
		C641.1,320.9,639,321.8,637.1,321.9z"/>
	<path d="M643.3,301.8l0-3.1c-0.3,0-0.6,0.1-1.1,0.6C640.1,301,641.9,301,643.3,301.8z"/>
	<path d="M449.2,183.2c-0.2-0.2-0.5-0.3-0.7-0.5l12.6-2.5c-0.5-0.1-1-0.2-1.5-0.3l-11.7,2.4c-0.1,0-0.1-0.1-0.2-0.1l0,0.2l0,0.6v0.1
		C448.1,183.1,448.7,183.2,449.2,183.2z"/>
	<path d="M477,200.3c1,0.3,1.9,0.4,2.9,0.4c0,0,0,0,0.1,0c0.4,0,0.8,0.1,1.1,0.1c0.3,0.1,0.6,0.1,1,0.1c1.2,0,2.6-1.3,3.6-2.3
		c-1.1-2-1.1-4.5-3.9-6.5c-1.5-1.1-3.9-0.8-5.6-1.4c-2.2-0.8-3.4-1.9-5.8-2c-1.8-0.1-2.8,0.6-3.9,1.2l-8.8,1.8
		c0.2,0.2,0.3,0.3,0.5,0.5l6.2-1.2c0.2,0.1,0.5,0.1,0.7,0.2c1,0.2,1.9,0.5,2.6,0.9l-7.9,1.6c0.1,0.1,0.3,0.2,0.5,0.3
		c0.1,0.1,0.2,0.1,0.3,0.1l7.8-1.6c0.7,0.5,1.4,1,1.9,1.7c0.4,0.5,0.8,1.1,1.1,1.5C473.1,198,474.1,199.4,477,200.3z"/>
	<path d="M448.7,283.6c-0.3-0.2-0.7-0.4-1-0.6l0,6.3c0.6,0.3,1.2,0.6,1.8,0.7C455,291.4,451.3,285.2,448.7,283.6z"/>
	<path d="M448.7,268.3c0-0.1-0.1-0.1-0.1-0.2c-0.3,0.3-0.6,0.6-0.9,0.9l0,4.3c1.5-0.8,3.3-1.1,5-1.4
		C451,270.7,449.4,269.3,448.7,268.3z"/>
	<path d="M498.5,358.1c-2.3,0.2-3.4,0.7-3.7,1.4l-21.3,4.3c0.3,0.1,0.7,0.3,1.1,0.4l20.2-4.1c0.1,0.5,0.4,1,0.9,1.6l-17.9,3.6
		c0.4,0.1,0.7,0.2,1.1,0.4l17.3-3.5c0.4,0.4,0.9,0.8,1.5,1.3l-15.8,3.2c0.4,0.1,0.8,0.2,1.1,0.4l15.3-3.1c0.6,0.5,1.3,0.9,2,1.4
		l-13.8,2.8c0.4,0.1,0.8,0.2,1.2,0.4l13.4-2.7c3.7,2.4,7.9,4.5,8.8,5.2c1.3,1,2,2.3,2.6,3.6c5,0.9,10.1,1.7,15.3,2.3
		c-2.2-0.8-4.5-2.5-6.7-3.8C515.2,369.4,504.5,357.5,498.5,358.1z"/>
	<path d="M572,368c1.7-0.9,2.6-2,0.8-3.4c-0.4,0.3-0.9,0.6-1.3,0.9c-1.9,1.2-4,1.9-6.1,2.6c-1.6,0.6-3,1.6-4.4,2.5
		c-0.9,0.6-2,1-2.9,1.6c-0.6,0.4-1.1,0.7-1.7,0.9c-0.4,0.1-0.7,0.3-1,0.6c-0.4,0.3-0.7,0.5-1.2,0.6c-0.9,0.4-1.9,0.7-2.9,0.6
		c-6.5-0.3-11.5-7.5-16.8-3.7c-1.7,1.3-0.7,5-3.2,5.8c-0.1,0-0.2,0.1-0.3,0.1c4.2,0.4,8.5,0.6,12.8,0.6c11.4,0,23-1.4,34.2-3.6
		c0.3-0.8,0.2-1.8-0.8-3C575.8,369.2,574,368.3,572,368z"/>
	<path d="M480.6,77.3c0.5,0.2,0.3,1.9,0.3,1.9c-0.2,0.7-0.7,1.1-1.1,1.3c-1.3,0.8-3,1.1-4.7,1.3c-0.9,0.1-1.7,0.2-2.6,0.2
		c0,0.3,0,0.6,0,0.9c0,0.2,0,0.3,0,0.5l0.6-0.1c1,0.3,2,0.7,3,1.1l-3.6,0.7c0,0.2,0,0.4,0,0.6l4.6-0.9c0.3,0.1,0.6,0.2,0.9,0.3
		c0.8,0.3,1.7,0.5,2.5,0.8l-8,1.6c0,0.2,0,0.4,0,0.6l9.1-1.8c-0.1,0-0.1-0.1-0.2-0.1c0.7,0.2,1.5,0.9,2,1.3c0,0,0.1,0.1,0.1,0.1
		l-10.9,2.2c0,0.2,0,0.4,0,0.6l11.4-2.3c0.3,0.3,0.6,0.7,0.8,1.1c0.1,0.2,0.2,0.3,0.4,0.5L472.7,92c0,0.2,0,0.4,0,0.6l13-2.6
		c0.3,0.5,0.7,0.9,1,1.4l-14,2.8c0,0.2,0,0.4,0,0.6l14.4-2.9c0.2,0.2,0.3,0.4,0.5,0.7c0.3,0.3,0.5,0.6,0.7,0.9l-15.7,3.2
		c0,0.2,0,0.4,0,0.6l3.2-0.7c1.4-0.4,2.7-0.7,4.1-0.8l8.8-1.8c0.9,0.9,1.4,0.7,3.3,1.5c1,0.4,1.5,0.9,2,1.4l-4.3,0.9
		c0,0,0.1,0.1,0.1,0.1c0.1,0.1,0.1,0.3,0.2,0.4l4.4-0.9c0.2,0.3,0.5,0.7,0.7,1.1l-5,1c-0.1,0.2-0.2,0.4-0.3,0.6l5.6-1.1c0,0,0,0,0,0
		c0.1,0.2,0.3,0.4,0.4,0.6c0.2,0.3,0.4,0.6,0.7,0.9l-14.2,2.9c-0.6,0.3-1.3,0.6-1.9,0.7c-0.9,0.2-1.7,0.3-2.5,0.2l-5.9,1.2
		c0,0.2,0,0.4-0.1,0.6l25-5c0.5,0.6,1.1,1.1,1.9,1.3l-25.3,5.1c0.5,0.1,0.9,0.2,1.4,0.3l25.4-5.1c1.6,0.1,3-0.3,4.4-0.9l7.1-1.4
		c-0.1-0.2-0.4-0.3-0.9-0.4l-4,0.8c0.5-0.2,0.9-0.4,1.4-0.6c0.7-0.3,1.5-0.6,2.3-0.8c4.2-0.9,8.9,2.1,13.4,1.3
		c2.8-0.5,4.8-2.5,7.8-2.6c1.6,0,4.1,0.6,5.5,1.5c0.7,0.4,1.3,1.2,1.9,1.7L480.9,113c0.2,0.2,0.3,0.3,0.5,0.5l58.7-11.8
		c0.4,0.1,0.8,0.1,1.4,0c0.3-0.1,0.5-0.2,0.7-0.4l4.7-1c-0.8-0.1-1.7-0.1-2.5-0.1l-1.7,0.3c0.5-1,0.3-2.5,1-3.5
		c0.8-1.2,2.9-1.8,4.2-2.1c2.7-0.8,10.6-0.4,10.9-4.7c0.2-2.9-3.4-3.6-4.9-4.9c-1.4-1.1-3.1-4-2.3-5.9c0.8-1.8,2.7-1.8,4.1-2.7
		c1.7-1.1,2-2.7,0.2-3.3c-1.5-0.5-3,0-4.1,1.2c-2.1,2.4-1.9,6.6-4.2,8.7c-2.6,2.3-7.8,3-11.4,3.7c-3.5,0.7-18.1,3.8-17.3-5.4
		c0.3-3.5,6.3-3.1,8.7-3.7c1.4-0.4,7-1.9,3.8-4.1c-0.8-0.5-1.9-0.7-3-0.7c-1.7,0-3.6,0.2-4.9,0c-1.9-0.3-3.7-0.9-5.6-0.9
		c-1.8,0-2.3-0.2-3.7-1.3c-1.6-1.2-2.7-1.2-4.7-1.1c-1.7,0.1-3-0.7-4.6-0.8c-2.2-0.2-2.6,1.2-0.7,2.4c1.5,1,4,0.4,4.7,2.3
		c0.9,2.6-2.2,4.6-3.7,6.1c-1.1,1.1-2.8,1.9-4.3,2c-1.6,0.1-2.8-0.7-4-1.7c-1.8-1.6-2.9-3.6-4.3-5.6c-1.1-1.7-2.7-3.5-4.8-3.2
		c-2.6,0.4-3.5,4-6.2,3.8c-1.2-0.1-2.8-1.3-3.9-1.7c-2-0.7-4.1-1.4-6.1-2c0.1,1.7,0.3,3.4,0.4,5.1C474.9,76.1,477.7,76.2,480.6,77.3
		z"/>
	<path d="M601.2,55.2c1.1,0.5,1.9,1.3,3,1.9c2.1,1.1,1.6-1.1,3-1c2.1,0.2,2.6,1.9,4.6,2.7c1.7,0.7,4.9,1.9,7.4,2.6
		c0.1-1.2,0.3-2.5,0.4-3.8l0.2-1.5l0.1-0.4l-26-7.9l-0.3-0.1c0,0-0.5,0-1.3-0.1l-0.1,0.7c-1,0-2.7,1.3-4.4,2.6
		c1.5,0.1,3,0.3,4.5,0.6C595.4,52.2,598.4,54.1,601.2,55.2z"/>
	<path d="M510.1,56.2c-0.8-0.6-1.5-1.3-2.3-2c-0.2-0.2-0.4-0.4-0.6-0.6c-1.2,0.6-2.5,1.3-2.6,3.2c0.9,0.5,1.8,0.8,2.5,0.8
		C508.4,57.8,509.4,57.2,510.1,56.2z"/>
	<path d="M628.5,319.6l14.7-3l0-0.6l-15.4,3.1C628,319.3,628.3,319.5,628.5,319.6z"/>
	<path d="M637.4,320.2l5.9-1.2l0-0.6l-7,1.4C636.6,319.9,637,320,637.4,320.2z"/>
	<path d="M627.1,317.7l16.1-3.2l0-0.6l-16,3.2C627.2,317.2,627.1,317.5,627.1,317.7z"/>
	<path d="M619.4,311.6l-11.1,2.2c0.2,0.2,0.5,0.3,0.7,0.4l10.2-2.1C619.3,312,619.3,311.8,619.4,311.6z"/>
	<path d="M618.2,314.8c0.3-0.2,0.5-0.5,0.6-0.7l-7.3,1.5c0.4,0.1,0.7,0.3,1.1,0.4L618.2,314.8z"/>
	<path d="M640.5,302.7l-4.5,0.9c0.4,0.1,0.7,0.2,1.1,0.3c0,0,0,0,0.1,0l4.6-0.9C641.3,303,640.9,302.9,640.5,302.7z"/>
	<path d="M636,306l-29.9,6c0.2,0.2,0.3,0.3,0.5,0.5l30.8-6.2C637,306.2,636.5,306.1,636,306z"/>
	<path d="M641.4,305.5l1.8-0.4l0-0.6l-2.9,0.6C640.7,305.2,641.1,305.4,641.4,305.5z"/>
	<path d="M588.8,308.7c2.4,0.1,3.3-0.4,3.6-0.9l-4.3,0.9C588.3,308.7,588.6,308.7,588.8,308.7z"/>
	<path d="M642.7,283.2l-10.3,2.1c0.5,0.1,1,0.2,1.5,0.3l9.4-1.9l0-0.4C643.1,283.2,642.9,283.2,642.7,283.2z"/>
	<path d="M641.9,286.2c0.1,0,0.2,0,0.3,0.1l1.2-0.2l0-0.6l-2.8,0.6C640.9,286,641.4,286.1,641.9,286.2z"/>
	<path d="M632.4,282.9l-33.9,6.8c-0.7-0.6-1.6-0.8-2.3-1.3l31.1-6.3c-0.1-0.1-0.3-0.2-0.3-0.3c-0.1-0.1-0.1-0.1-0.2-0.2l-31.1,6.3
		c-0.1-0.1-0.2-0.3-0.3-0.5c-0.1-0.3-0.3-0.6-0.4-0.9l16-3.2c-0.4-0.1-0.7-0.2-1-0.4l-15.2,3.1c-0.1-0.5-0.2-1-0.1-1.5
		c0-0.1,0-0.1,0.1-0.2l14-2.8c-0.1-0.2-0.1-0.4-0.1-0.6l-13.7,2.8c0.3-0.6,0.8-1.2,0.9-1.9l12-2.4c-0.1-0.2-0.1-0.4,0-0.6l-11.9,2.4
		c0-0.5,0-1.2-0.1-1.8l13-2.6c0-0.1,0-0.1-0.1-0.2c-0.1-0.1-0.1-0.2-0.2-0.3l-12.7,2.6c0-0.4,0-0.7,0-1c0-0.2,0-0.4-0.1-0.6l8.7-1.7
		c-0.8,0-1.6-0.1-2.3-0.1l-6.5,1.3c-0.2-0.7-0.7-1.2-1.2-1.5l0.9-0.2c-0.4,0-0.7,0-1.1,0c-0.7-0.4-1.5-0.7-2.3-0.9
		c-2.4-0.7-5-0.9-7.4-1.7c-1.7-0.5-2.3-1.2-2.9-2.9c-0.5-1.2-1.1-2.5-1.9-3.4c-0.6-0.7-1.2-1.1-2.1-1.4c-1.1-0.3-1.7-0.7-2.5-1.6
		c-1.6-1.7-2.8-3.7-4.6-5.2c-2.3-1.9-5.2-2.5-8-3.3c-3.3-0.9-6.7-2.2-10.1-1.3c-3.5,0.9-5.1,3.9-9.2,3c-1.4-0.3-2.1-1.4-3.9-1.5
		c-1.7-0.1-3.2,0.8-4.8,0.8c-1.5,0-2.8-0.8-4.3-0.7c-1.6,0.1-2.2,0.5-2.1,1.2c-0.1,0-0.3-0.1-0.4-0.1l-20.8,4.2
		c0.4,0.1,0.7,0.2,1,0.4l20.3-4.1c0.2,0.4,0.7,0.9,1.2,1.5l-19.2,3.9c0.3,0.1,0.6,0.3,0.8,0.4l18.9-3.8c0,0,0.1,0.1,0.1,0.1
		c0.5,0.5,1.1,0.9,1.7,1.3l-19.3,3.9c0.1,0.2,0.1,0.4,0.1,0.6l19.9-4c1,0.5,2,0.9,3.1,1.1l-26.3,5.3c0.1,0.2,0.2,0.4,0.3,0.5
		l27.5-5.6c0.2,0,0.3,0,0.5,0.1c3-0.4,6.1-0.8,9.1-1.5c1.4-0.3,3.1-0.3,4.9,0.1l-41.1,8.3c0.1,0.2,0.3,0.3,0.4,0.5l42-8.5
		c1.1,0.3,2.1,0.7,3.1,1.1l-37.7,7.6c0.6,0.1,1.1,0.2,1.6,0.3l36.9-7.4c0.7,0.4,1.4,0.8,2,1.2c0,0,0.1,0.1,0.1,0.1l-35.1,7.1
		c0.3,0.1,0.7,0.3,1,0.4l34.7-7c0.2,0.2,0.5,0.5,0.7,0.7c0.2,0.3,0.5,0.5,0.7,0.8l-5.2,1c0,0-0.1,0-0.1-0.1
		c-0.1-0.1-0.3-0.1-0.4-0.2c0.1,0.1,0.2,0.2,0.4,0.3l-28.3,5.7c0.2,0.2,0.3,0.3,0.4,0.5l8.8-1.8c0,0,0,0,0,0c0.5,0.6,1,0.9,1.6,0.9
		l-29.3,5.9c-7.7,0.7-22.9,2.8-16.2,9.2c3.1,2.9,9.2,3.1,12.5,3.4c5,0.4,10.6,1.9,15.1,1c1.1-0.2,2.1-0.5,3-0.8
		c0.9-0.3,1.8-0.6,2.7-0.9c3.8-1.7,7.9-1.1,11.9-0.7c1.4,0.1,2.7,0.2,4,0.3c4,0.3,8.1,0.9,12.2,2c7,2,15.1,6.1,21.5,5
		c1.4-0.2,2.3-1.1,3.1-2.1l8.5-1.7c0.1,0.1,0.2,0.2,0.2,0.3c0.2,0.4,0.4,0.8,0.5,1.2l-8.4,1.7c0.2,0.2,0.4,0.3,0.5,0.5l8.1-1.6
		c0.1,0.6,0.2,1.1,0.3,1.7l-7,1.4c0.1,0.2,0.3,0.3,0.4,0.5l6.7-1.4c0.2,0.7,0.4,1.5,0.9,2.1l-6.3,1.3c0.1,0.2,0.2,0.4,0.2,0.5
		l6.4-1.3c0.5,0.7,0.7,0.9,0.9,1.6l-6.9,1.4c0,0.2,0.1,0.4,0.1,0.6l7-1.4c0,0,0,0.1,0,0.1c0.1,0.6-0.1,1.1-0.2,1.6l-6.7,1.3
		c0,0.2,0,0.4,0.1,0.6l6.7-1.3c0,0.1,0.1,0.2,0.2,0.3c0.4,0.6,1.3,0.8,1.9,0.7c1.4-0.1,2.6-0.9,4-0.5l-12.2,2.5
		c0.1,0.2,0.2,0.4,0.4,0.5l7.2-1.4c0-0.1,0-0.1,0.2,0l5.4-1.1c0.9,0.4,1.7,0.7,2.6,1.1l-6.2,1.2c0.2,0.1,0.4,0.3,0.7,0.5l6.5-1.3
		c0.8,0.3,1.5,0.8,2.2,1.3l-6,1.2c1.1,0.1,2.4-0.1,3.7-0.2l2.9-0.6c0.6,0.5,1.2,0.9,1.8,1.3l-1.4,0.3c0.1,0.2,0.2,0.4,0.3,0.5
		l1.9-0.4c0.5,0.3,1.1,0.5,1.7,0.6c2.3,0.3,5-0.1,6.8-1.8c0.2-0.2,0.3-0.3,0.5-0.5l17.1-3.5c-0.2-0.2-0.3-0.3-0.3-0.5l-16.4,3.3
		c0.3-0.5,0.5-1.1,0.8-1.7c0-0.1,0.1-0.1,0.1-0.2l20.3-4.1c-0.4-0.1-0.7-0.3-1.1-0.4l-18.8,3.8c0.3-0.6,0.4-1.2,0.2-1.8l14.6-2.9
		c-0.1-0.2-0.1-0.4-0.2-0.6l-14.6,3c-0.1-0.1-0.2-0.3-0.3-0.4c-0.5-0.6-1-0.7-1.6-0.8l16.7-3.4c0.2-0.3,0.5-0.5,0.8-0.7l-20.1,4
		c-0.8-0.2-1.6-0.4-2.5-0.2c-1.2,0.2-2.1,0.6-3.3,0c-0.2-0.1-0.3-0.2-0.4-0.3l28.9-5.8c0.1-0.2,0.2-0.4,0.3-0.6l-29.9,6
		c-0.5-0.4-1-0.9-1.5-1.4l31.1-6.3c-0.1-0.2-0.2-0.3-0.3-0.5l-31.2,6.3c-0.4-0.5-0.9-1-1.3-1.5l31.1-6.3c-0.1-0.1-0.1-0.1-0.2-0.2
		c-0.1-0.1-0.2-0.2-0.4-0.3l-30.9,6.2c0,0,0,0,0,0c-0.5-0.7-1-1.3-1.3-2l28.8-5.8c-0.3-0.1-0.6-0.3-0.9-0.4l-28.2,5.7
		c-0.3-0.5-0.5-1.1-0.7-1.6l27-5.4c-0.2-0.2-0.2-0.4-0.2-0.5l-27,5.4c-0.2-0.4-0.3-0.8-0.5-1.2c-0.1-0.1-0.2-0.3-0.2-0.4l36.5-7.4
		C634.5,282.9,633.4,283,632.4,282.9z"/>
	<path d="M627.7,277l-6.4,1.3c-0.2,0.1-0.4,0.2-0.5,0.4c-0.2,0.1-0.3,0.3-0.4,0.4l6.9-1.4C627.5,277.5,627.6,277.2,627.7,277z"/>
	<path d="M618.4,281.8l8.1-1.6c0-0.2,0.1-0.4,0.1-0.6l-7.4,1.5C619,281.3,618.8,281.6,618.4,281.8z"/>
	<path d="M631.7,271.5l-1.9,0.4c-0.2,0.2-0.4,0.4-0.5,0.7l1.9-0.4C631.4,272,631.6,271.7,631.7,271.5z"/>
	<path d="M608.4,279.2l0.5-0.1C609.1,278,608.7,278.8,608.4,279.2z"/>
	<path d="M628.2,275.2l0.9-0.2c0.2-0.2,0.3-0.5,0.5-0.7l-1.1,0.2C628.4,274.8,628.3,275,628.2,275.2z"/>
	<path d="M497,276.6l17.6-3.6c-0.3-0.1-0.6-0.3-0.9-0.4l-16.7,3.4C497.1,276.2,497,276.4,497,276.6z"/>
	<path d="M497.1,278.9l22-4.4c-0.4-0.1-0.9-0.2-1.4-0.3l-20.7,4.2C497,278.6,497,278.8,497.1,278.9z"/>
	<path d="M498.7,271.6l8.5-1.7c-0.4-0.1-0.8-0.2-1.2-0.3l-6.8,1.4C499,271.1,498.8,271.4,498.7,271.6z"/>
	<path d="M497.7,273.7c-0.1,0.2-0.1,0.4-0.2,0.5l13.7-2.8c-0.3-0.1-0.6-0.3-0.9-0.4L497.7,273.7
		C497.7,273.6,497.7,273.6,497.7,273.7z"/>
	<path d="M503.3,256.8l16.8-3.4c-0.3-0.1-0.6-0.3-1-0.4l-15.9,3.2C503.3,256.4,503.3,256.6,503.3,256.8z"/>
	<path d="M524.4,254.9c-0.4-0.1-0.7-0.2-1.1-0.4l-19.3,3.9c0.1,0.2,0.3,0.3,0.4,0.5L524.4,254.9z"/>
	<path d="M504.8,251.3c-0.1,0.2-0.3,0.4-0.4,0.7l8.6-1.7c-0.3-0.1-0.7-0.3-1-0.4L504.8,251.3z"/>
	<path d="M503.5,254.5l13.1-2.6c-0.3-0.1-0.6-0.3-0.9-0.4l-12,2.4C503.6,254.1,503.6,254.3,503.5,254.5z"/>
	<path d="M494.4,162.1l9.3-1.9c0.2-0.2,0.4-0.4,0.5-0.7l-11.1,2.2c0.2,0.1,0.4,0.1,0.6,0.2C493.9,162,494.2,162,494.4,162.1z"/>
	<path d="M513.2,153.2l-34.7,7c0.3,0.2,0.7,0.3,1,0.4l32.9-6.6C512.6,153.7,512.9,153.4,513.2,153.2z"/>
	<path d="M507.5,156.7l-18.7,3.8c0.4,0.1,0.8,0.2,1.2,0.4l16.1-3.3C506.6,157.2,507,156.9,507.5,156.7z"/>
	<path d="M473.2,157.2c-0.4-0.1-0.8-0.2-1.2-0.3l-4.3,0.9c0.3,0.2,0.6,0.3,1,0.4L473.2,157.2z"/>
	<path d="M515,148.7C515,148.7,515,148.7,515,148.7c0-0.2,0-0.4,0.1-0.6l-38.4,7.8c0,0.2,0,0.4,0,0.6L515,148.7z"/>
	<path d="M514.4,151.2c0.1-0.2,0.2-0.4,0.2-0.6l-39.6,8c0.3,0.1,0.6,0.2,1,0.4L514.4,151.2z"/>
	<path d="M514.5,144.2c-0.1-0.2-0.2-0.4-0.3-0.5l-41.5,8.4c0.2,0.2,0.4,0.3,0.6,0.5L514.5,144.2z"/>
	<path d="M475,153.9c0.2,0.2,0.4,0.3,0.5,0.5l39.6-8c0-0.2,0-0.4-0.1-0.6L475,153.9z"/>
	<path d="M467.7,148.4c0.2,0.1,0.4,0.3,0.7,0.5l29.9-6c-0.3-0.1-0.6-0.3-0.8-0.4L467.7,148.4z"/>
	<path d="M512.4,142.3c-0.3-0.1-0.5-0.2-0.9-0.2c-0.2,0-0.4,0-0.7-0.1l-40.6,8.2c0.2,0.2,0.4,0.3,0.6,0.5L512.4,142.3z"/>
	<path d="M484.2,141.1c-0.4-0.1-0.8-0.2-1.2-0.3c0,0,0,0,0,0l-21.2,4.3c0.2,0.2,0.4,0.3,0.5,0.5L484.2,141.1z"/>
	<path d="M493.9,140.9l-29.8,6c0.3,0.2,0.6,0.3,0.8,0.4l30.5-6.2c-0.3-0.1-0.7-0.2-1-0.3C494.2,140.9,494,140.9,493.9,140.9z"/>
	<path d="M468.8,139l-4.8,1c-0.1,0.2-0.2,0.4-0.3,0.7l6.1-1.2C469.5,139.2,469.2,139.1,468.8,139z"/>
	<path d="M473,140.5l-10.2,2.1c-0.1,0.2-0.2,0.4-0.3,0.7l11.6-2.3C473.7,140.7,473.4,140.6,473,140.5z"/>
	<path d="M465.5,137.8l-0.6,0.1c-0.1,0.2-0.2,0.4-0.3,0.6l2-0.4C466.2,138,465.9,137.9,465.5,137.8z"/>
	<path d="M500.9,372.1c0.4,0.1,0.9,0.2,1.3,0.3l3.3-0.7c-0.2-0.1-0.4-0.3-0.6-0.5L500.9,372.1z"/>
	<path d="M506.4,373.4c0.5,0.1,0.9,0.2,1.4,0.3l1.6-0.3c-0.3-0.2-0.6-0.3-0.9-0.4L506.4,373.4z"/>
	<path d="M502.5,367.1l-11.5,2.3c0.4,0.1,0.8,0.2,1.2,0.3l10.5-2.1C502.6,367.5,502.5,367.3,502.5,367.1z"/>
	<path d="M503.4,369.3l-7.6,1.5c0.4,0.1,0.8,0.2,1.3,0.3l6.6-1.3C503.6,369.6,503.5,369.5,503.4,369.3z"/>
	<path d="M481,357.6l-15.6,3.1c0.3,0.1,0.7,0.3,1,0.4L482,358C481.7,357.9,481.4,357.7,481,357.6z"/>
	<path d="M496.9,356.8l-5.2,1.1c-0.1,0-0.1,0.1-0.2,0.1c-1.7,0.9-3.4,1.3-5.3,1.2c-0.2,0-0.3,0-0.5-0.1l-16.3,3.3
		c0.3,0.1,0.7,0.3,1,0.4l26.9-5.4C497.2,357.1,497.1,356.9,496.9,356.8z"/>
	<path d="M475.8,354.4l-17.2,3.5c0.3,0.1,0.6,0.3,0.9,0.4l17-3.4C476.3,354.7,476,354.6,475.8,354.4z"/>
	<path d="M478.6,356.2l-16.2,3.3c0.3,0.1,0.6,0.3,1,0.4l16-3.2C479.1,356.5,478.8,356.4,478.6,356.2z"/>
	<path d="M470.6,350.8l-19.2,3.9c0.3,0.1,0.6,0.3,0.9,0.4l19-3.8C471.1,351.1,470.9,351,470.6,350.8z"/>
	<path d="M473.3,352.7l-18.3,3.7c0.3,0.1,0.6,0.3,0.9,0.4l18-3.6C473.7,353,473.5,352.8,473.3,352.7z"/>
	<path d="M462.2,350.4c-0.5,0.3-1.1,0.6-1.6,0.9l7.7-1.6c-0.4-0.1-0.8-0.3-1.2-0.3L462.2,350.4z"/>
	<path d="M581.7,222.7l-12.8,2.6c0.2,0.2,0.3,0.3,0.5,0.5l11.4-2.3C581,223.2,581.3,222.9,581.7,222.7z"/>
	<path d="M601.3,219.3c0-0.2,0.1-0.4,0.1-0.6l-2.1,0.4c0.1,0.2,0.1,0.4,0.2,0.5L601.3,219.3z"/>
	<path d="M572.5,227.3c0.2,0,0.4,0,0.7,0l5.6-1.1c0.2-0.2,0.3-0.4,0.5-0.7l-7.9,1.6c0.3,0.1,0.6,0.2,1,0.2
		C572.4,227.3,572.4,227.3,572.5,227.3z"/>
	<path d="M560.5,224.7c0.1,0,0.2,0.1,0.3,0.1c0.2,0,0.5-0.1,0.7-0.3L560.5,224.7z"/>
	<path d="M567.4,223.8C567.4,223.8,567.4,223.9,567.4,223.8l22.8-4.5c0.3-0.2,0.7-0.3,1.1-0.4c0.3,0,0.5,0,0.8,0l3.4-0.7
		c0.3-0.3,0.6-0.5,1-0.5c0.1,0,0.4,0.1,0.8,0.2l7.8-1.6c0.4-0.3,0.8-0.5,1.3-0.7c0.5-0.1,1.2,0,1.8,0l1.5-0.3
		c0.4-0.3,0.6-0.6,0.7-0.7l-43.7,8.8C566.9,223.5,567.1,223.6,567.4,223.8z"/>
	<path d="M553.2,219.8l25.1-5.1c-0.4-0.1-0.8-0.2-1.2-0.4l-22.4,4.5C554.3,219.3,553.7,219.6,553.2,219.8z"/>
	<path d="M512.7,228l36.8-7.4c-0.7,0-1.4-0.1-2.1-0.2l-33.8,6.8C513.3,227.5,513,227.8,512.7,228z"/>
	<path d="M581.3,215.9l-71.6,14.4c-0.4,0.3-0.8,0.6-1.2,0.8l73.8-14.9C582,216.2,581.7,216.1,581.3,215.9z"/>
	<path d="M521.7,221c-0.5,0.3-0.9,0.6-1.4,0.9l17.8-3.6c-0.5-0.1-1.1-0.2-1.6-0.3L521.7,221z"/>
	<path d="M557.5,216.1c-0.2,0.2-0.4,0.5-0.6,0.7l16.1-3.3c-0.6-0.1-1.2-0.2-1.8-0.2L557.5,216.1z"/>
	<path d="M516.2,225l27.2-5.5c-0.4-0.1-0.8-0.2-1.2-0.3l-25,5C516.8,224.5,516.5,224.8,516.2,225z"/>
	<path d="M577.1,342.9c0.4,0.1,0.8,0.2,1.1,0.4l7.9-1.6c-0.2-0.2-0.4-0.3-0.6-0.5L577.1,342.9z"/>
	<path d="M584.9,343.7l-1.8,0.4C583.7,344,584.4,343.9,584.9,343.7z"/>
	<path d="M575,338.6l-7.4,1.5c0.4,0.1,0.9,0.2,1.3,0.3l7.7-1.6C576.1,338.8,575.5,338.7,575,338.6z"/>
	<path d="M577,320.2l-5.2,1c0.4,0.1,0.8,0.2,1.2,0.3l4.2-0.8C577.2,320.5,577.1,320.4,577,320.2z"/>
	<path d="M576.3,322.7c0.3,0,0.5,0,0.7-0.1L576.3,322.7z"/>
	<path d="M565,320.5c0.6,0,1.1,0,1.7,0.1l8.7-1.8c-0.1,0-0.1-0.1-0.2-0.1c-0.3-0.1-0.5-0.2-0.8-0.3l-10.3,2.1
		C564.5,320.5,564.8,320.5,565,320.5z"/>
	<path d="M534.7,320c-0.2-0.2-0.3-0.3-0.5-0.5L517,323c0.3,0.1,0.6,0.3,0.9,0.4L534.7,320z"/>
	<path d="M538.4,321.6c-0.5-0.1-0.9-0.2-1.4-0.3l-17.1,3.4c0.2,0.2,0.4,0.3,0.6,0.5L538.4,321.6z"/>
	<path d="M510.7,320.3l23.4-4.7c0.4-0.3,0.8-0.6,1.2-0.8l-25.7,5.2c0.2,0.1,0.4,0.1,0.5,0.2C510.3,320.2,510.5,320.3,510.7,320.3z"
		/>
	<path d="M573.3,307.1l-1.4,0.3c-0.5,0.2-1,0.5-1.4,0.9l3.1-0.6C573.6,307.3,573.5,307.2,573.3,307.1z"/>
	<path d="M533.3,318.1c-0.1-0.2-0.1-0.4-0.1-0.6l-19.5,3.9c0.3,0.1,0.6,0.3,0.9,0.4L533.3,318.1z"/>
	<path d="M562.9,311.7c-0.8,0.1-1.9,0.3-2.9,0.4l-1.9,0.4c-1.1,0.3-2.2,0.6-3,1.2l16.9-3.4c0.3-0.2,0.6-0.5,0.9-0.8l-5.6,1.1
		C565.8,311.3,564.4,311.4,562.9,311.7z"/>
	<path d="M493,319.2l43.6-8.8c-0.1-0.2-0.2-0.4-0.3-0.5l-44.2,8.9c0.1,0.1,0.3,0.1,0.4,0.2C492.7,319.1,492.8,319.2,493,319.2z"/>
	<path d="M500.5,319.8c1.1-0.2,2.2-0.4,3.4-0.4l33.2-6.7c0-0.2,0.1-0.4,0-0.6l-40.4,8.2c0.6,0,1.2-0.1,1.8-0.2
		C499.1,320,499.8,319.9,500.5,319.8z"/>
	<path d="M482.4,316.1l33.8-6.8c-0.4-0.1-0.7-0.2-1-0.4l-35.2,7.1C480.7,316.2,481.6,316,482.4,316.1z"/>
	<path d="M533.6,307.5l-5.5,1.1c-0.3,0.2-0.5,0.3-0.8,0.5c-0.2,0.1-0.4,0.3-0.6,0.4l7.8-1.6c-0.1-0.1-0.3-0.1-0.4-0.2
		C533.9,307.7,533.8,307.6,533.6,307.5z"/>
	<path d="M487.3,317.5l33.3-6.7c-0.1,0-0.1,0-0.2,0c-0.3-0.1-0.6-0.2-1-0.3l-33.7,6.8c0.1,0,0.3,0.1,0.4,0.1
		C486.5,317.4,486.9,317.5,487.3,317.5z"/>
	<path d="M509.1,306.1c-0.3-0.1-0.6-0.3-0.9-0.4l-41.8,8.4c0.4,0.1,0.9,0.2,1.3,0.3L509.1,306.1z"/>
	<path d="M477.4,314.8l35.1-7.1c-0.3-0.1-0.6-0.3-0.9-0.4l-35.7,7.2C476.4,314.5,476.9,314.6,477.4,314.8
		C477.4,314.8,477.4,314.8,477.4,314.8z"/>
	<path d="M501.7,302.8c-0.2-0.1-0.5-0.2-0.7-0.3l-53.3,10.7l0,0.6l54.3-11C501.9,302.9,501.8,302.9,501.7,302.8z"/>
	<path d="M505,304.1l-56.1,11.3c0.6,0.1,1.4,0,2.1-0.2c0.9-0.2,1.7-0.4,2.3-0.5c2.4-0.4,4.7-0.9,7-1.1l45.5-9.2
		c-0.1-0.1-0.3-0.1-0.4-0.2C505.3,304.3,505.1,304.2,505,304.1z"/>
	<path d="M475.4,303.7c-0.3-0.1-0.7-0.2-1-0.4l-20,4c0.1,0.2,0.2,0.4,0.3,0.5L475.4,303.7z"/>
	<path d="M489.5,302.6c-0.9,0.5-1.9,0.8-2.9,1.1l10.7-2.2c-0.5-0.1-1.1-0.2-1.7-0.3L489.5,302.6
		C489.5,302.6,489.5,302.6,489.5,302.6z"/>
	<path d="M479.6,304.6l-25,5c0,0,0,0.1,0,0.1c-0.1,0.2-0.1,0.4-0.2,0.5l28.2-5.7C481.6,304.7,480.6,304.7,479.6,304.6z"/>
	<path d="M448.3,304.5l19.5-3.9c-0.3-0.1-0.7-0.3-1.1-0.4l-19,3.8l0,0.5c0.1,0,0.2,0,0.3,0C448,304.5,448.1,304.5,448.3,304.5z"/>
	<path d="M470.7,301.7l-18.7,3.8c0.3,0.1,0.5,0.3,0.8,0.4l18.9-3.8c-0.2-0.1-0.4-0.2-0.6-0.2C471,301.8,470.9,301.8,470.7,301.7z"/>
	<path d="M448.8,299.7l6.8-1.4c-0.2-0.1-0.5-0.3-0.7-0.4l-7.2,1.4l0,0.2C448.3,299.6,448.8,299.6,448.8,299.7
		C448.8,299.7,448.8,299.7,448.8,299.7z"/>
	<path d="M458.3,299.6l-10.7,2.2l0,0.6l12.1-2.4C459.3,299.8,458.8,299.7,458.3,299.6z"/>
	<path d="M450.5,294.3l-2.8,0.6l0,0.6l3.3-0.7C450.8,294.6,450.6,294.4,450.5,294.3z"/>
	<path d="M452.6,296.2l-4.9,1l0,0.6l5.5-1.1C453,296.5,452.8,296.4,452.6,296.2z"/>
	<path d="M448.3,292.4l-0.6,0.1l0,0.6l1.3-0.3C448.8,292.7,448.5,292.5,448.3,292.4z"/>
	<path d="M615.7,358.2l27.5-5.5l0-0.6l-28.6,5.8C615,358,615.4,358.1,615.7,358.2z"/>
	<path d="M624.2,358.8l10.4-2.1c1-0.4,1.9-0.8,2.7-1.1l-16.2,3.3C622.2,358.9,623.2,358.9,624.2,358.8z"/>
	<path d="M608.9,354.9l34.3-6.9l0-0.6l-35,7.1C608.4,354.6,608.7,354.8,608.9,354.9z"/>
	<path d="M611.9,356.7l31.3-6.3l0-0.6l-32.2,6.5C611.3,356.4,611.6,356.5,611.9,356.7z"/>
	<path d="M604.3,346.7l14.2-2.9c-0.3-0.1-0.6-0.3-0.9-0.4l-13.1,2.7C604.4,346.2,604.4,346.4,604.3,346.7z"/>
	<path d="M621.1,345l-16.9,3.4c0,0.1,0,0.3,0.1,0.4c0,0,0,0.1,0,0.1l17.6-3.6C621.7,345.3,621.4,345.2,621.1,345z"/>
	<path d="M612.2,342.2c-1.6,0-3.4,0.3-4.9,1L612.2,342.2z"/>
	<path d="M468.5,197.2l2.2-0.4c0.1-0.2,0.2-0.4,0.1-0.6l-4,0.8c0.2,0,0.4,0.1,0.6,0.1C467.7,197,468.1,197.1,468.5,197.2z"/>
	<path d="M494.7,187.2l9.9-2c1.2-0.7,2.7-1,4.1-0.8l9.4-1.9c0.2-0.2,0.3-0.4,0.5-0.7l-26.7,5.4c0.2,0,0.4,0,0.6,0
		C493.3,187.2,494,187.2,494.7,187.2z"/>
	<path d="M514.9,184.9l-3.1,0.6c0.3,0.1,0.6,0.2,0.9,0.2C513.5,185.7,514.2,185.3,514.9,184.9z"/>
	<path d="M463.2,195.3c0.3,0.1,0.5,0.3,0.8,0.4l6.2-1.3c-0.1-0.2-0.2-0.4-0.2-0.5L463.2,195.3z"/>
	<path d="M520.4,177.4c-0.2-0.2-0.4-0.3-0.8-0.4l-64.1,12.9c0.3,0.1,0.5,0.3,0.7,0.4L520.4,177.4z"/>
	<path d="M520.2,179.2l-45.1,9.1c1.2-0.1,2.4-0.1,3.4-0.3c1.2-0.2,2.5-0.4,3.8-0.5l37.5-7.6C519.9,179.6,520.1,179.4,520.2,179.2z"
		/>
	<path d="M490.3,178.6c-0.1-0.1-0.2-0.2-0.3-0.2l-4.2,0.8c0.1,0.2,0.3,0.3,0.5,0.5l4.3-0.9C490.4,178.8,490.4,178.7,490.3,178.6z"/>
	<path d="M503.5,175.9c-0.3,0.2-0.6,0.4-0.9,0.6l7.7-1.5c-0.1-0.2-0.4-0.3-0.7-0.4l-5.5,1.1C503.8,175.7,503.6,175.8,503.5,175.9z"
		/>
	<path d="M473.6,181.7l-25.9,5.2l0,0.6l28.3-5.7C475.1,181.8,474.3,181.8,473.6,181.7z"/>
	<path d="M492,180.3l-4.6,0.9c0,0.3-0.3,0.5-0.6,0.7l5.8-1.2C492.5,180.7,492.2,180.5,492,180.3z"/>
	<path d="M510.9,176.6l-12.8,2.6c-0.4,0.2-0.9,0.6-1.4,0.9l14.6-3C511.1,176.9,511,176.8,510.9,176.6z"/>
	<path d="M452.7,188.9l30.1-6.1c-0.5-0.1-1-0.2-1.4-0.3l-30,6.1C451.8,188.6,452.3,188.8,452.7,188.9z"/>
	<path d="M466,180.9l-18.4,3.7l0,0.6l20.2-4.1C467.2,181.1,466.6,181,466,180.9z"/>
	<path d="M449.3,177.7l-1.7,0.3l0,0.6l3.1-0.6C450.2,178,449.7,177.9,449.3,177.7z"/>
	<path d="M454.9,179l-7.3,1.5l0,0.6l8.7-1.8C455.9,179.2,455.4,179.1,454.9,179z"/>
	<path d="M610.4,103.6l7.2-1.5c0-0.2,0-0.4,0-0.6l-8,1.6C609.8,103.3,610.1,103.4,610.4,103.6z"/>
	<path d="M587.9,103.6c0.2-0.2,0.4-0.5,0.6-0.7l-9.5,1.9c0.6,0.1,1.1,0.2,1.7,0.2L587.9,103.6z"/>
	<path d="M591.8,97.6l-50.8,10.3c0.6,0.1,1.1,0.2,1.7,0.2l48.8-9.8C591.5,98,591.6,97.8,591.8,97.6z"/>
	<path d="M590.3,100.2l-16.7,3.4c0.4,0.1,0.9,0.2,1.3,0.3l15-3C590,100.7,590.1,100.4,590.3,100.2z"/>
	<path d="M567.1,105.5c0.3-0.3,0.5-0.5,0.8-0.8l-17.8,3.6c1.3-0.1,2.6-0.2,3.8-0.2L567.1,105.5z"/>
	<path d="M609,89.4l-45.4,9.2c0,0-0.1,0.1-0.1,0.1c-0.6,0.4-1.4,0.7-2.1,0.9l48-9.7C609.3,89.8,609.1,89.6,609,89.4z"/>
	<path d="M526.4,106.1c1-0.1,2.1-0.1,3.2,0l25.8-5.2c-0.8-0.1-1.7-0.1-2.5-0.1L526.4,106.1z"/>
	<path d="M516.9,108l-32.5,6.6c0.3,0,0.6,0.1,1,0.1c0.4,0,0.7,0,1.1,0.1l26.9-5.4C514.5,108.9,515.7,108.4,516.9,108z"/>
	<path d="M615.4,88.7l2-0.4c0-0.2,0-0.4,0-0.6l-1.7,0.3C615.5,88.3,615.5,88.5,615.4,88.7z"/>
	<path d="M599,93.8c0.3,0.1,0.5,0.3,0.8,0.4l12.2-2.5c-0.4-0.1-0.7-0.2-1-0.4L599,93.8z"/>
	<path d="M593.7,94.9l-58.8,11.9c0.5,0.1,1,0.2,1.5,0.3l56.6-11.4C593.2,95.3,593.5,95.1,593.7,94.9z"/>
	<path d="M504,113l-6.6,1.3c1.9-0.2,3.9-0.5,5.7-1C503.4,113.2,503.7,113.1,504,113z"/>
	<path d="M613.4,91.5l3.9-0.8c0-0.2,0-0.4,0-0.6l-3.1,0.6C614,91,613.7,91.3,613.4,91.5z"/>
	<path d="M617.5,83.1l-0.5,0.1c-0.1,0.2-0.1,0.4-0.2,0.6l0.6-0.1C617.4,83.5,617.5,83.3,617.5,83.1z"/>
	<path d="M606.7,85.8c-0.1-0.2-0.3-0.4-0.4-0.5l-31,6.2c0,0.2,0,0.4,0,0.6L606.7,85.8z"/>
	<path d="M528.2,101.7c-1.5,0.2-3,0.3-4.5,0.3l-44.5,9c0.1,0.2,0.3,0.3,0.4,0.5L528.2,101.7z"/>
	<path d="M607.7,87.4l-33.4,6.7c-0.1,0.1-0.2,0.1-0.3,0.2c-0.6,0.3-1.2,0.3-1.8,0.2l-6.3,1.3c-0.2,0.2-0.4,0.5-0.5,0.7l42.6-8.6
		C608,87.7,607.9,87.5,607.7,87.4z"/>
	<path d="M616.2,86.3l1.2-0.2c0-0.2,0-0.4,0-0.6l-1.1,0.2C616.3,85.9,616.2,86.1,616.2,86.3z"/>
	<path d="M598.8,82.9c-0.4-0.1-0.8-0.2-1.3-0.3l-23,4.6c0,0.2,0,0.4,0.1,0.6L598.8,82.9z"/>
	<path d="M617.5,81.5C617.5,81.4,617.5,81.4,617.5,81.5C617.5,81.4,617.5,81.4,617.5,81.5L617.5,81.5z"/>
	<path d="M575,89.5c0,0.2,0.1,0.4,0.1,0.6l29.7-6c-0.3-0.2-0.6-0.3-0.8-0.4L575,89.5z"/>
	<path d="M477.5,109.1c0.2,0.1,0.4,0.3,0.5,0.5l39.3-7.9c-0.7-0.1-1.4-0.1-2.1-0.2L477.5,109.1z"/>
	<path d="M472.3,103.7l2.7-0.6c-0.2-0.1-0.4-0.3-0.6-0.5l-2.1,0.4C472.3,103.3,472.3,103.5,472.3,103.7z"/>
	<path d="M593.2,81.1L575,84.8c-0.1,0.2-0.2,0.4-0.3,0.6l19.6-4C593.9,81.4,593.6,81.2,593.2,81.1z"/>
	<path d="M492.1,95.5c-0.3-0.1-0.7-0.3-1-0.4l-7.3,1.5c0.2,0.1,0.5,0.2,0.8,0.4c0,0,0.1,0,0.1,0L492.1,95.5z"/>
	<path d="M472.5,101.3c0,0.2,0,0.4,0,0.6l1.1-0.2c-0.1-0.2-0.2-0.3-0.4-0.5L472.5,101.3z"/>
	<path d="M643.2,196.5l-12.2,2.5c0.4,0.1,0.7,0.3,1.1,0.4l11.1-2.2L643.2,196.5z"/>
	<path d="M643.2,198.8l-6.2,1.3c1.5,0,2.9-0.1,4.3-0.3l1.9-0.4L643.2,198.8z"/>
	<path d="M643.2,191.8l-18.2,3.7c0.2,0.2,0.4,0.3,0.6,0.5l17.6-3.6L643.2,191.8z"/>
	<path d="M643.2,194.2l-15.6,3.1c0.3,0.2,0.5,0.3,0.8,0.4l14.8-3L643.2,194.2z"/>
	<path d="M643.2,187.1l-21.8,4.4c0.1,0.2,0.2,0.3,0.4,0.5l21.4-4.3L643.2,187.1z"/>
	<path d="M643.2,189.5l-20.3,4.1c0.1,0.2,0.3,0.3,0.4,0.5l19.8-4L643.2,189.5z"/>
	<path d="M643.2,182.6l-24.8,5c0.2,0.2,0.3,0.3,0.5,0.5l24.4-4.9L643.2,182.6z"/>
	<path d="M643.2,185l-23.1,4.7c0.1,0.2,0.2,0.3,0.4,0.5l22.8-4.6L643.2,185z"/>
	<path d="M632.1,180.8c-0.3-0.1-0.7-0.2-1-0.4l-32.7,6.6c0.3,0.1,0.7,0.3,1,0.4L632.1,180.8z"/>
	<path d="M616.6,186.3l26.6-5.4l0-0.6l-0.9,0.2c-1.1,0.3-2.5,0.6-4,0.8l-22.6,4.5C616.1,185.9,616.3,186.1,616.6,186.3z"/>
	<path d="M628.3,177.3c-0.1-0.2-0.1-0.4-0.1-0.6l-35.1,7.1c0.2,0.2,0.4,0.3,0.6,0.5L628.3,177.3z"/>
	<path d="M629.7,179.4c-0.2-0.2-0.3-0.3-0.5-0.5l-33.4,6.7c0.3,0.2,0.5,0.3,0.8,0.4L629.7,179.4z"/>
	<path d="M627.5,168.3c-2,0.1-4.3,0.7-6.6,1.3L627.5,168.3z"/>
	<path d="M630.6,158.2c0.2,0,0.5,0,0.7,0l5.2-1.1c-0.1-0.2-0.3-0.3-0.4-0.5l-7.5,1.5C629.4,158.2,630.1,158.2,630.6,158.2z"/>
	<path d="M611.7,161.6l-43.8,8.8c0.5,0.1,1,0.2,1.5,0.3l42-8.5C611.5,162,611.6,161.8,611.7,161.6z"/>
	<path d="M552.9,173.5l-9,1.8c1.4,0.1,3.4-0.4,4.5-0.6C550,174.4,551.5,173.9,552.9,173.5z"/>
	<path d="M637.9,158.7l-0.3,0.1c0.2,0,0.3,0.1,0.5,0.1C638,158.8,637.9,158.7,637.9,158.7z"/>
	<path d="M611,164.7c0-0.2,0-0.4,0-0.6l-38.2,7.7c0.3,0.1,0.7,0.2,1,0.4L611,164.7z"/>
	<path d="M534.4,173.1l6.3-1.3c-0.3-0.1-0.6-0.3-0.9-0.4l-5.9,1.2c0,0,0,0,0,0C533.9,172.9,534.1,173,534.4,173.1z"/>
	<path d="M583.6,163.2c-0.4,0-0.9-0.1-1.3-0.3l-29.7,6c-0.1,0.2-0.2,0.4-0.4,0.7L583.6,163.2z"/>
	<path d="M547.8,165.3c0.4,0.1,0.8,0.2,1.2,0.4l29-5.9c-0.2-0.2-0.4-0.3-0.7-0.5L547.8,165.3z"/>
	<path d="M551.6,166.9c0.2,0.2,0.4,0.3,0.6,0.5l28.2-5.7c-0.2-0.2-0.4-0.3-0.6-0.5L551.6,166.9z"/>
	<path d="M528.6,165.1l41.1-8.3c-0.4-0.1-0.7-0.2-1.1-0.4l-40.3,8.1C528.4,164.8,528.5,164.9,528.6,165.1z"/>
	<path d="M541.1,164.4c0.7,0,1.5,0,2.4,0.1l30.8-6.2c-0.4-0.1-0.8-0.2-1.2-0.4L541.1,164.4z"/>
	<path d="M538.9,164.8l-8.1,1.6c0.5,0.1,1,0.2,1.5,0.3l4.9-1C537.7,165.4,538.3,165.1,538.9,164.8z"/>
	<path d="M529.8,159.6l3.6-0.7C532,158.7,530.7,158.7,529.8,159.6z"/>
	<path d="M562.1,154.8l-8.5,1.7c0.1,0.2,0.3,0.4,0.3,0.5l9.6-1.9C563,155.1,562.6,155,562.1,154.8z"/>
	<path d="M528.4,162c0,0.1,0,0.1-0.1,0.2l12.3-2.5c-0.7-0.1-1.4-0.1-2-0.2l-10,2C528.5,161.7,528.5,161.9,528.4,162z"/>
</g>
</svg>
