<?xml version="1.0" encoding="utf-8"?>
<!-- Generator: Adobe Illustrator 25.3.0, SVG Export Plug-In . SVG Version: 6.00 Build 0)  -->
<svg version="1.1" id="Layer_1" xmlns="http://www.w3.org/2000/svg" xmlns:xlink="http://www.w3.org/1999/xlink" x="0px" y="0px"
	 viewBox="0 0 750.2 400.1" style="enable-background:new 0 0 750.2 400.1;" xml:space="preserve">
<g>
	<path d="M203.3,161.1l83-15.4c-0.8-1.4-1.5-2.9-2.2-4.5c-9.3-20.2-11.6-46.8-7-83.6l0.2-1.3l-25.7-7.7c-0.5-0.1-0.9-0.1-0.9-0.1
		c0,0.4-0.2,0.8-0.4,1.3c-0.3,9.4-3.4,24.7-9.6,37.2c-8.6,17.5-21.5,26.7-37.2,26.8H202h-0.3c-15.6,0-28.5-9.2-37.2-26.5
		c-7.4-14.6-9.7-30.5-9.9-37.8c-0.3-0.6-0.4-0.9-0.4-0.9l-26.4,8.1l0.1,1.1c4.6,36.8,2.4,63.3-7,83.6c-0.7,1.5-1.4,2.9-2.2,4.3
		l69.6,12.9L203.3,161.1z"/>
</g>
</svg>
