<?xml version="1.0" encoding="utf-8"?>
<!-- Generator: Adobe Illustrator 25.3.0, SVG Export Plug-In . SVG Version: 6.00 Build 0)  -->
<svg version="1.1" id="Layer_1" xmlns="http://www.w3.org/2000/svg" xmlns:xlink="http://www.w3.org/1999/xlink" x="0px" y="0px"
	 viewBox="0 0 750.2 400.1" style="enable-background:new 0 0 750.2 400.1;" xml:space="preserve">
<g>
	<path d="M286.1,353.8c3-0.1,5.7-0.2,7.8-0.3C232,309.7,185.4,176.2,130.2,93.6c0,2.3-0.1,4.5-0.2,6.7
		C182.9,179.9,227.8,305.6,286.1,353.8z"/>
	<path d="M269,354.3c2.1-0.1,4.2-0.1,6.1-0.2c-53.5-53-96.2-168.6-145.9-243.9c-0.2,2-0.5,3.9-0.8,5.8
		C176.4,188.9,218,299.3,269,354.3z"/>
	<path d="M254.6,354.8c1.8-0.1,3.6-0.1,5.3-0.2c-47.7-57.4-87.5-160.7-133.2-229.9c-0.4,1.7-0.9,3.3-1.3,4.9
		C169.8,196.8,208.7,296.3,254.6,354.8z"/>
	<path d="M241.7,355.1c1.6,0,3.2-0.1,4.8-0.1c-43.4-59.7-81-154-123.7-218c-0.6,1.4-1.2,2.9-1.8,4.2
		C162.8,203.4,199.6,294.8,241.7,355.1z"/>
	<path d="M229.8,355.4c1.5,0,3-0.1,4.5-0.1c-40.2-61-76-148.5-116.5-207.7c-0.7,1.3-1.5,2.5-2.2,3.6
		C155.4,208.8,190.5,294.1,229.8,355.4z"/>
	<path d="M218.5,355.7c1.4,0,2.8-0.1,4.2-0.1c-37.9-61.8-72.2-144-111.3-198.9c-1,1.2-1.9,2.2-2.7,3
		C147.4,213,181.3,293.6,218.5,355.7z"/>
	<path d="M207.7,355.9c1.4,0,2.7,0,4.1-0.1c-36.1-62.4-69.5-140.4-107.6-191.1l0,6.8C140.8,220.7,173.1,295,207.7,355.9z"/>
	<path d="M197.3,356c1.1,0,2.1,0,3.1,0c0.3,0,0.5,0,0.8,0c-32.3-58.2-62.8-126.6-97-173.5l0,6.8C137,234.7,166.4,299.6,197.3,356z"
		/>
	<path d="M187,356.1c1.3,0,2.6,0,3.9,0c-28.6-53.4-56.2-112.8-86.7-155.6l0,6.9C133.2,248.5,159.7,304.7,187,356.1z"/>
	<path d="M176.9,356c1.3,0,2.6,0,3.9,0c-25.1-47.9-49.8-99-76.5-137.6l0,6.9C129.6,262.3,153,310.3,176.9,356z"/>
	<path d="M166.8,355.8c1.3,0,2.6,0.1,3.8,0.1c-21.8-42-43.3-85.2-66.4-119.3l0,6.9C126,275.9,146.3,316.2,166.8,355.8z"/>
	<path d="M156.7,355.6c1.3,0,2.6,0.1,3.9,0.1c-18.4-35.7-36.8-71.4-56.3-100.9l0,7C122.4,289.4,139.6,322.3,156.7,355.6z"/>
	<path d="M104.3,273l0,7c14.5,22.7,28.5,48.6,42.3,75.2c1.3,0,2.6,0.1,3.9,0.1C135.4,326.2,120.2,297.6,104.3,273z"/>
	<path d="M104.3,291.4l0,7c10.9,17.4,21.5,36.6,32.1,56.4c1.3,0.1,2.6,0.1,3.9,0.1C128.5,332.6,116.6,310.8,104.3,291.4z"/>
	<path d="M129.9,354.6c-8.4-15.7-16.9-30.8-25.6-44.8l0,7.1c7.3,11.9,14.5,24.5,21.6,37.5C127.2,354.5,128.5,354.6,129.9,354.6z"/>
	<path d="M104.3,328.4l0,7.1c3.6,6,7.2,12.2,10.8,18.5c1.3,0.1,2.7,0.1,4.2,0.2C114.3,345.3,109.3,336.6,104.3,328.4z"/>
	<path d="M108.2,353.6c-1.3-2.2-2.6-4.5-3.9-6.6l0,6.3c0.1,0,0.2,0,0.3,0v0.1C104.6,353.4,105.9,353.5,108.2,353.6z"/>
	<path d="M277.1,57.7l0.2-1.3l-4.3-1.3c1.2,2,2.5,4,3.7,6C276.8,60,277,58.8,277.1,57.7z"/>
	<path d="M275.2,77.2c0.1-2.1,0.3-4.2,0.5-6.3c-3.7-5.9-7.4-12-11-18.3l-5-1.5C264.8,60.2,270,68.9,275.2,77.2z"/>
	<path d="M274.8,95c0-2.3,0-4.6,0-7c-7.8-12.3-15.4-25.4-23-39.2l-0.2-0.1c-0.5-0.1-0.9-0.1-0.9-0.1c0,0.4-0.2,0.8-0.4,1.3
		c0,0.9-0.1,1.9-0.2,3C258.2,67.7,266.4,81.9,274.8,95z"/>
	<path d="M276.6,116c-0.4-2.8-0.8-5.7-1.1-8.6c-9.1-13.9-18-29.2-26.7-45.1c-0.3,1.7-0.7,3.4-1.1,5.2
		C257.2,84.7,266.8,101.1,276.6,116z"/>
	<path d="M243.9,79.6c17.8,32.7,36.1,62.6,55.9,84.4l0-1.1c-3.2-2.6-10-9.2-15.7-21.6c-1.2-2.5-2.2-5.1-3.2-7.9
		c-12.2-17.3-23.9-37.2-35.4-58.2C245,76.7,244.5,78.1,243.9,79.6z"/>
	<path d="M299.8,181.1l0-6.5c-20.8-22.4-40-53.9-58.7-88.4c-0.1,0.3-0.3,0.6-0.4,0.9c-0.5,1-1,1.9-1.5,2.8
		C258.5,125.6,278.3,158.3,299.8,181.1z"/>
	<path d="M299.8,198.2l0-6.5c-22.8-23.6-43.6-58.4-63.9-96.2c-0.7,1.1-1.5,2.1-2.3,3.1C254.6,137.8,276.1,174,299.8,198.2z"/>
	<path d="M299.8,215.1l0-6.5c-25.1-25-47.9-63.8-70.1-105.7c-0.9,0.8-1.7,1.6-2.6,2.4C250,148.9,273.6,189.5,299.8,215.1z"/>
	<path d="M299.7,231.9l0-6.4c-27.9-26.6-52.8-70.3-77.3-117c-1,0.6-2,1.1-3,1.6C244.9,158.8,270.7,204.7,299.7,231.9z"/>
	<path d="M299.7,248.6l0-6.4c-31-28.2-58.4-78.1-85.3-130c-1.1,0.3-2.2,0.6-3.4,0.9C239,167.3,267.4,219.7,299.7,248.6z"/>
	<path d="M299.7,265.3l0-6.3c-34.6-30-64.6-87.2-94.5-145.1c-0.6,0-1.2,0.1-1.7,0.1H202h-0.3c-0.1,0-0.1,0-0.2,0
		C232.5,174.1,263.6,234.5,299.7,265.3z"/>
	<path d="M299.7,281.8l0-6.3c-38.7-31.9-71.5-98-104.7-162.2c-1.5-0.3-2.9-0.6-4.4-1.1C225.3,179,259.3,249.1,299.7,281.8z"/>
	<path d="M158.3,71.6c-1.2-4.2-2.1-8.2-2.7-11.7c-2-3.3-3.9-6.6-5.9-9.8l-3.7,1.1C150.2,57.7,154.3,64.6,158.3,71.6z"/>
	<path d="M299.8,298.3l0-6.3c-43.7-34.1-79.9-112.4-117.3-183.6c-2.3-1.4-4.5-3.1-6.6-5.1C215.6,177.7,253.4,262.9,299.8,298.3z"/>
	<path d="M299.8,314.6l0-6.2C239.6,264,193.8,135.2,140,53.1l-3.8,1.2C191.5,136.5,238,270.1,299.8,314.6z"/>
	<path d="M299.8,330.8l0-6.2c-64.4-44.6-112.1-186.3-170-268.5l-2,0.6l0.1,1.1c0.1,1,0.2,1.9,0.4,2.9
		C186.8,143.2,234.8,286.8,299.8,330.8z"/>
	<path d="M299.9,347l0-6.2C235,298.7,187.2,157.4,129.5,73.7c0.2,2.6,0.4,5.1,0.5,7.6C187.3,165.6,235.1,306,299.9,347z"/>
	<path d="M454.6,356.2c1.6,0.7,3.4,1.5,5.5,2.4c59.6-42.9,105-168.9,157.9-251.6c-0.2-2.1-0.3-4.1-0.5-6.3
		C563.2,185.5,516.7,316.4,454.6,356.2z"/>
	<path d="M468.7,362c1.6,0.6,3.3,1.3,5.1,1.9c54.2-49.5,97.1-164.6,146.5-242.1c-0.4-1.8-0.7-3.6-1-5.4
		C568.6,195.8,524.8,314.7,468.7,362z"/>
	<path d="M481.7,366.6c1.5,0.5,3.1,1,4.8,1.5c49.8-54.2,90.7-161,137.4-233.6c-0.5-1.5-1.1-3-1.5-4.6
		C574.7,204.3,533.1,314,481.7,366.6z"/>
	<path d="M494,370.3c1.5,0.4,3,0.8,4.5,1.2c46.4-57.7,85.5-158.1,130.2-226.1c-0.7-1.3-1.3-2.6-2-4
		C581.3,211.2,541.6,313.8,494,370.3z"/>
	<path d="M505.6,373.2c1.4,0.3,2.9,0.6,4.3,0.9c43.7-60.5,81.4-155.7,124.6-219.4c-0.8-1-1.6-2.2-2.4-3.4
		C588.5,216.7,550.3,313.7,505.6,373.2z"/>
	<path d="M516.9,375.4c1.4,0.2,2.8,0.4,4.2,0.6c41.7-62.9,78.4-154.3,120.7-213.7c-0.8-0.6-1.9-1.5-3-2.7
		C596.3,220.7,559.3,313.4,516.9,375.4z"/>
	<path d="M527.9,376.9c1.4,0.1,2.8,0.3,4.2,0.4c37.9-61.4,72.2-143.5,111.1-198.8l0-6.9C602.8,228.4,567.4,314.5,527.9,376.9z"/>
	<path d="M538.8,377.6c1.4,0,2.8,0.1,4.1,0.1c33.8-58.1,65.2-130.2,100.2-181.2l0-6.9C606.7,242.3,574.1,318.2,538.8,377.6z"/>
	<path d="M549.7,377.6c1.4-0.1,2.8-0.1,4.2-0.2c29.9-53.7,58.2-116.3,89.3-162.7l0-6.9C610.6,255.9,581,322.1,549.7,377.6z"/>
	<path d="M560.6,376.8c1.4-0.2,2.8-0.3,4.2-0.5c26-48.4,51.1-101.9,78.3-143.4l0-7C614.5,269.3,588.1,326.2,560.6,376.8z"/>
	<path d="M643.1,244.2c-24.7,38.3-47.8,86.3-71.5,131.1c1.4-0.2,2.8-0.5,4.2-0.7c22.2-42.4,44-87,67.2-123.3L643.1,244.2z"/>
	<path d="M643.1,262.6c-20.8,32.9-40.4,72.3-60.3,110.6c1.4-0.3,2.9-0.6,4.3-1c18.4-35.6,36.7-71.9,56-102.5L643.1,262.6z"/>
	<path d="M643.3,287.8l0-7.1c-16.8,27.1-33,58.4-49.1,89.7c1.5-0.4,3-0.8,4.4-1.2C613.3,340.8,628,312.6,643.3,287.8z"/>
	<path d="M643.3,306.3l0-7.1c-12.8,20.9-25.1,44.2-37.4,67.8c1.6-0.5,3.1-1,4.6-1.4C621.2,345,632.1,324.8,643.3,306.3z"/>
	<path d="M643.2,325l0-7.1c-8.6,14.3-16.9,29.6-25.2,45.2c1.7-0.6,3.3-1.2,4.8-1.7C629.5,348.8,636.3,336.6,643.2,325z"/>
	<path d="M643.2,336.5c-4.1,7-8.3,14.3-12.3,21.7c1.9-0.8,3.7-1.5,5.2-2.1c2.4-4.2,4.7-8.4,7.1-12.4L643.2,336.5z"/>
	<path d="M471.5,67.7c2.9-4.5,5.8-9.1,8.7-13.9l-5.3,1.6c-1.3,2.1-2.6,4.2-4,6.3C471.1,63.7,471.3,65.7,471.5,67.7z"/>
	<path d="M472.3,77.8c0.1,2.2,0.2,4.4,0.3,6.5c7.1-10.8,14-22.4,20.9-34.5l-5,1.5C483.2,60.5,477.8,69.4,472.3,77.8z"/>
	<path d="M472.7,95.5c-0.1,2.5-0.2,5-0.3,7.4c10.6-15.8,21-33.6,31.1-52.2c-1-0.7-2.1-1.4-3-1.8C491.4,65.4,482.2,81.2,472.7,95.5z"
		/>
	<path d="M470.8,116.3c-0.6,3.4-1.2,6.7-2.1,9.8c14.4-20.2,28.2-44.2,41.8-69.5c-0.9-0.7-1.8-1.5-2.7-2.3
		C495.8,76.7,483.6,97.9,470.8,116.3z"/>
	<path d="M457.9,151.2c-4.1,6.2-8,9.9-10.3,11.6l0,6.5c25.2-25.7,48-65,70.3-107.3c-0.9-0.6-1.9-1.3-2.8-2
		C496.7,94.6,478,126.9,457.9,151.2z"/>
	<path d="M447.6,179.8l0,6.5c28.2-27.5,53.3-72.5,78.1-119.9c-1-0.5-2-1-3-1.5C498.9,110.2,474.6,153,447.6,179.8z"/>
	<path d="M447.6,196.6l0,6.4c31.4-29.4,59.1-80.7,86.5-133.6c-1.1-0.3-2.2-0.6-3.3-1C504.4,119.2,477.8,168,447.6,196.6z"/>
	<path d="M447.6,213.4l0,6.4c35-31.3,65.3-90.1,95.6-148.8c-1.2-0.1-2.4-0.2-3.6-0.4C510.5,127.1,481.2,182.9,447.6,213.4z"/>
	<path d="M447.6,230.1l0,6.3c39.1-33.2,72.3-101.2,105.9-166.2c-1.3,0.3-2.7,0.4-4.1,0.6C517.1,133.4,485.1,197.6,447.6,230.1z"/>
	<path d="M447.6,246.6l0,6.3c44-35.5,80.3-115.2,118.1-186.8c-1.6,0.8-3.3,1.5-4.9,2.1C524.7,137.2,489.6,212.1,447.6,246.6z"/>
	<path d="M447.7,263.1l0,6.3C497.9,231,538.1,134.2,581.5,56c-2.1,1.7-4.4,3.4-6.7,4.9C533.9,136.6,495.2,226,447.7,263.1z"/>
	<path d="M447.7,279.4l0,6.2c56.2-40.5,99.8-154.7,148.8-237l-2.6-0.8l-0.3-0.1c0,0-0.3,0-0.8,0
		C545.2,129.1,502.4,239.1,447.7,279.4z"/>
	<path d="M447.7,295.7l0,6.2c60.1-40.7,105.7-166.4,158.4-250.3l-3.7-1.1C551.1,133.8,506.3,255,447.7,295.7z"/>
	<path d="M447.7,311.8l0,6.1C511.8,277.3,559.3,139.1,616,54.6l-3.8-1.2C557,137.8,510.3,271.1,447.7,311.8z"/>
	<path d="M447.7,327.8l0,6.1C513.1,295.3,561,154.8,618.4,69.2c0.2-2.7,0.5-5.4,0.8-8.2C561.3,145.9,513.3,288,447.7,327.8z"/>
	<path d="M447.7,343.7l0,6.1C513,314,560.8,176.1,617.3,89c0-2.4,0.1-4.8,0.2-7.3C560.8,168.3,513,306.9,447.7,343.7z"/>
</g>
</svg>
