<?xml version="1.0" encoding="utf-8"?>
<!-- Generator: Adobe Illustrator 25.3.0, SVG Export Plug-In . SVG Version: 6.00 Build 0)  -->
<svg version="1.1" id="Layer_1" xmlns="http://www.w3.org/2000/svg" xmlns:xlink="http://www.w3.org/1999/xlink" x="0px" y="0px"
	 viewBox="0 0 750.2 400.1" style="enable-background:new 0 0 750.2 400.1;" xml:space="preserve">
<path d="M299.7,272l0.1-109.1c-1.3-1.1-3.2-2.8-5.4-5.3l-0.9,195.9c4-0.1,6.3-0.2,6.3-0.2L299.7,272z"/>
<path d="M110.9,353.7L110,158.4c-2.5,2.7-4.6,4.4-5.8,5.2l0.1,189.7c0.1,0,0.2,0,0.3,0v0.1C104.6,353.4,106.9,353.5,110.9,353.7z"/>
<path d="M188.4,158.7l-69.6-12.9c-0.7,1.4-1.5,2.6-2.2,3.8l85,11.5L188.4,158.7z"/>
<path d="M288.5,149.6c-0.7-1.2-1.5-2.5-2.2-3.8l-83,15.4L288.5,149.6z"/>
<path d="M451.6,159.2c-1.6,1.6-3,2.8-4,3.6l0.1,190.3c0,0,0.1,0,0.2,0v0.1c0.1,0,0.3,0.1,0.6,0.1c0,0,1.7,0.9,4.8,2.3L451.6,159.2z"
	/>
<path d="M643.2,163.3c-0.9-0.6-2.2-1.6-3.9-3.1l-1.7,195.3c3.6-1.5,5.6-2.5,5.6-2.5l0.1-81.3h-0.2L643.2,163.3z"/>
</svg>
