<?xml version="1.0" encoding="utf-8"?>
<!-- Generator: Adobe Illustrator 25.3.0, SVG Export Plug-In . SVG Version: 6.00 Build 0)  -->
<svg version="1.1" id="Layer_1" xmlns="http://www.w3.org/2000/svg" xmlns:xlink="http://www.w3.org/1999/xlink" x="0px" y="0px"
	 viewBox="0 0 750.2 400.1" style="enable-background:new 0 0 750.2 400.1;" xml:space="preserve">
<g>
	<path d="M299.8,163l0-0.1c-2-1.6-5.4-4.8-9-9.9l-9.7,2.2L299.8,163z"/>
	<polygon points="299.7,245.4 299.7,232.5 281.1,239.3 	"/>
	<polygon points="299.8,308.9 281.1,317.1 299.8,320.2 	"/>
	<path d="M105.3,162.8l18.1-7.6l-9.2-2.1C110.7,158,107.4,161.2,105.3,162.8z"/>
	<polygon points="104.2,232.3 104.2,245.6 123.4,239.3 	"/>
	<polygon points="104.3,308.7 104.3,320.3 123.4,317.1 	"/>
	<path d="M642,162.5c-2.1-1.6-5.2-4.5-8.6-9.3l-8.8,2L642,162.5z"/>
	<polygon points="643.1,245.4 643.1,232.6 624.7,239.3 	"/>
	<polygon points="643.3,308.9 624.7,317.1 643.2,320.2 	"/>
	<path d="M447.6,162.8l0,0.5l19.4-8.1l-10.2-2.3C453.1,158.1,449.7,161.2,447.6,162.8z"/>
	<polygon points="447.6,232.3 447.6,245.7 467,239.3 	"/>
	<polygon points="447.7,308.6 447.7,320.3 467,317.1 	"/>
</g>
</svg>
