<?xml version="1.0" encoding="utf-8"?>
<!-- Generator: Adobe Illustrator 25.3.0, SVG Export Plug-In . SVG Version: 6.00 Build 0)  -->
<svg version="1.1" id="Layer_1" xmlns="http://www.w3.org/2000/svg" xmlns:xlink="http://www.w3.org/1999/xlink" x="0px" y="0px"
	 viewBox="0 0 750.2000122 400.1000061" style="enable-background:new 0 0 750.2000122 400.1000061;" xml:space="preserve">
<polygon points="132.8638916,295.1335754 104.2615356,280.3038025 104.2713623,298.9293518 132.8638916,313.7688293 "/>
<path d="M132.8638916,354.7463684v-17.2069702c-0.5342407-0.0172119-1.0484619-0.0343018-1.5757446-0.0514526l-27.0039062-14.03125
	l0.0157471,29.8433228c0.1000366,0,0.2000122,0,0.3000488,0v0.0999756
	C104.6000366,353.3999939,116.305481,354.0746765,132.8638916,354.7463684z"/>
<polygon points="299.7227173,281.2402039 272.7444458,295.1335754 272.7444458,313.7688293 299.7684937,299.8395691 "/>
<path d="M272.7444458,337.5393982v16.6821899c16.0713501-0.510376,27.1555786-0.9215698,27.1555786-0.9215698l-0.0712891-28.973999
	l-25.508606,13.1619263C273.7929077,337.5050964,273.2786255,337.5221863,272.7444458,337.5393982z"/>
<path d="M477.6160889,338.5394592c-0.5341797-0.0172119-1.0484619-0.0343018-1.5756836-0.0514526l-28.3563232-15.7506104
	l0.0159302,30.3626099c0,0,0.1000366,0,0.2000122,0v0.1000366c0.1000366,0,0.2999878,0.0999756,0.6000366,0.0999756
	c0,0,11.6317749,5.9354248,29.1160278,11.951416V338.5394592z"/>
<polygon points="477.6160889,296.1336365 447.6613159,279.4648743 447.6711426,298.1195374 477.6160889,314.7688904 "/>
<polygon points="643.2891846,280.5325012 614.7160645,296.1336365 614.7160645,314.7688904 643.2662354,299.1844177 "/>
<path d="M643.2000732,353.0000305l0.0359497-29.2151489l-26.9442139,14.703125
	c-0.5272827,0.0171509-1.0415039,0.0342407-1.5757446,0.0514526v25.6782227
	C631.7639771,358.4423523,643.2000732,353.0000305,643.2000732,353.0000305z"/>
</svg>
