<?xml version="1.0" encoding="utf-8"?>
<!-- Generator: Adobe Illustrator 25.3.0, SVG Export Plug-In . SVG Version: 6.00 Build 0)  -->
<svg version="1.1" id="Layer_1" xmlns="http://www.w3.org/2000/svg" xmlns:xlink="http://www.w3.org/1999/xlink" x="0px" y="0px"
	 viewBox="0 0 750.2000122 400.1000061" style="enable-background:new 0 0 750.2000122 400.1000061;" xml:space="preserve">
<g>
	<path d="M110.5634155,170.1058655l-0.487854,1.5823975l-0.059082-13.3171387
		c-2.4790649,2.7261963-4.5725098,4.4138794-5.8164673,5.2288818l0.0999756,189.7000122c0.1000366,0,0.2000122,0,0.3000488,0
		v0.0999756c0,0,15.8652954,0.9145508,36.788147,1.6741943c-2.5383301-4.2306519-5.5322266-8.8901367-9.0333252-14.0211182
		C119.7191162,322.5351868,114.2843018,255.217926,110.5634155,170.1058655z"/>
	<path d="M272.8407593,341.0530701c-3.3411865,4.8966064-6.2166748,9.3602295-8.6791992,13.4354248
		c20.5759888-0.6259155,35.7384644-1.1884766,35.7384644-1.1884766l-0.2000122-81.2999878l0.1000366-109.1000366
		c-1.2990112-1.0554199-3.196167-2.7838135-5.3671875-5.2778931l-0.0822144,18.5113525l-0.0014038,0.3251343
		C290.6345215,258.5533752,285.1602783,322.9986267,272.8407593,341.0530701z"/>
	<path d="M638.8416138,216.5478821c1.0641479-14.8742676,1.9163818-30.4151001,2.5259399-46.4419556
		c-3.4749756,91.3702393-8.4456787,164.8928833-19.3796387,191.5522461
		c12.946228-4.7258301,21.2121582-8.6581421,21.2121582-8.6581421l0.0999756-81.2999878h-0.2000122l0.0999756-108.4000244
		c-0.9007568-0.559082-2.2462158-1.5831299-3.857666-3.1342163L638.8416138,216.5478821z"/>
	<path d="M451.1450806,170.1058655c0.2036133,5.3546143,0.435791,10.6517334,0.6922607,15.8917847l-0.2381592-26.8162842
		c-1.5828247,1.6446533-2.963562,2.8341064-3.9991455,3.6186523l0.0999756,190.2999878c0,0,0.1000366,0,0.2000122,0v0.1000366
		c0.1000366,0,0.2999878,0.0999756,0.6000366,0.0999756c0,0,8.7835693,4.4818115,22.5552979,9.6033936
		C459.7506104,337.3512878,454.6757202,262.9411926,451.1450806,170.1058655z"/>
</g>
</svg>
