<?xml version="1.0" encoding="utf-8"?>
<!-- Generator: Adobe Illustrator 25.3.0, SVG Export Plug-In . SVG Version: 6.00 Build 0)  -->
<svg version="1.1" id="Layer_1" xmlns="http://www.w3.org/2000/svg" xmlns:xlink="http://www.w3.org/1999/xlink" x="0px" y="0px"
	 viewBox="0 0 750.2 400.1" style="enable-background:new 0 0 750.2 400.1;" xml:space="preserve">
<g>
	<path d="M104.3,345.9l0,7.4c0.1,0,0.2,0,0.3,0v0.1c0,0,0.3,0,0.7,0l2.6-6L104.3,345.9z"/>
	<path d="M116.1,343.4l-2.9-1.3l-5,11.5c1,0.1,2.1,0.1,3.4,0.2L116.1,343.4z"/>
	<path d="M115.7,350.9l-1.1,2.4l1.6,0.7c2.2,0.1,4.7,0.2,7.4,0.3L115.7,350.9z"/>
	<path d="M136.8,352.4l-2.9-1.3l-1.6,3.6c1.1,0,2.2,0.1,3.4,0.1L136.8,352.4z"/>
	<polygon points="104.3,315.4 104.3,318.3 109.8,320.7 104.3,333.4 104.3,341.3 113.8,319.6 	"/>
	<polygon points="122.9,339.6 113.3,335.4 122,315.5 119.1,314.2 109.3,336.6 121.8,342 	"/>
	<polygon points="134,328.4 121.6,322.9 120.5,325.4 130.1,329.5 121.4,349.5 124.3,350.8 	"/>
	<polygon points="143.6,348.6 134,344.5 142.7,324.5 139.8,323.2 130,345.6 142.5,351 	"/>
	<path d="M142.3,331.9l-1.1,2.4l9.6,4.2l-7.2,16.6c1.1,0,2.2,0.1,3.4,0.1l7.8-17.9L142.3,331.9z"/>
	<path d="M154.3,353.3l8.7-20l-2.9-1.3l-9.8,22.4l2.3,1c2.3,0.1,4.7,0.1,7.1,0.2L154.3,353.3z"/>
	<path d="M162.5,340.8l-1.1,2.4l9.6,4.2l-3.7,8.5c1.1,0,2.3,0,3.4,0.1l4.2-9.7L162.5,340.8z"/>
	<path d="M180.2,340.8l-6.6,15.1c1.1,0,2.3,0,3.4,0l6.1-13.9L180.2,340.8z"/>
	<path d="M182.7,349.5l-1.1,2.4l9.4,4.1c1.2,0,2.4,0,3.6,0l0.5-1.1L182.7,349.5z"/>
	<path d="M201.2,356l2.2-5.1l-2.9-1.3l-2.8,6.4c0.9,0,1.8,0,2.7,0C200.7,356,200.9,356,201.2,356z"/>
	<polygon points="104.6,277.4 104.3,278.3 104.3,286.2 107.5,278.7 	"/>
	<polygon points="108.4,302.8 104.3,301 104.3,303.9 107.3,305.3 	"/>
	<polygon points="119.6,291.6 107.1,286.2 106,288.6 115.6,292.8 106.9,312.8 109.8,314 	"/>
	<polygon points="128.7,311.7 119.1,307.5 127.8,287.5 124.9,286.2 115.1,308.7 127.6,314.1 	"/>
	<polygon points="139.8,300.4 127.4,295 126.3,297.4 135.9,301.6 127.2,321.6 130.1,322.8 	"/>
	<path d="M220.9,351.8l8.7-20l-2.9-1.3l-9.8,22.4l6.1,2.7c2.1,0,4.2-0.1,6.3-0.1L220.9,351.8z"/>
	<path d="M229.1,339.3l-1.1,2.4l9.6,4.2l-4.1,9.5c1.2,0,2.3-0.1,3.5-0.1l4.6-10.6L229.1,339.3z"/>
	<path d="M249.8,340.6l-2.9-1.3l-6.9,15.9c1.2,0,2.3-0.1,3.5-0.1L249.8,340.6z"/>
	<path d="M249.4,348.1l-1.1,2.4l9.6,4.2l0,0c1.2,0,2.3-0.1,3.5-0.1l0.5-1.1L249.4,348.1z"/>
	<path d="M267.1,348.1l-2.8,6.4c1.2,0,2.3-0.1,3.5-0.1l2.2-5L267.1,348.1z"/>
	<polygon points="149.4,320.7 139.8,316.5 148.5,296.5 145.6,295.3 135.8,317.7 148.3,323.1 	"/>
	<polygon points="160.5,309.4 148.1,304 147,306.4 156.6,310.6 147.9,330.6 150.8,331.8 	"/>
	<polygon points="169.6,329.5 160.1,325.3 168.8,305.3 165.9,304.1 156.1,326.5 168.6,331.9 	"/>
	<polygon points="180.8,318.2 168.3,312.8 167.3,315.2 176.9,319.4 168.2,339.4 171.1,340.7 	"/>
	<polygon points="189.8,338.3 180.2,334.1 188.9,314.1 186,312.8 176.3,335.3 188.8,340.7 	"/>
	<polygon points="201,327 188.5,321.6 187.5,324 197,328.2 188.3,348.2 191.2,349.4 	"/>
	<polygon points="210.1,347.1 200.5,342.9 209.2,322.9 206.3,321.7 196.6,344.1 209,349.5 	"/>
	<path d="M208.8,330.4l-1.1,2.4l9.6,4.2l-8.2,18.9c1.2,0,2.3,0,3.5-0.1l8.7-20L208.8,330.4z"/>
	<polygon points="104.2,254.5 104.2,257.3 105.3,254.9 	"/>
	<polygon points="114.4,275 104.8,270.8 113.5,250.8 110.6,249.6 104.3,264.2 104.3,273.5 113.3,277.4 	"/>
	<polygon points="125.6,263.7 113.1,258.3 112,260.7 121.6,264.9 112.9,284.9 115.8,286.1 	"/>
	<polygon points="134.6,283.7 125,279.6 133.7,259.6 130.8,258.3 121,280.7 133.5,286.2 	"/>
	<polygon points="145.7,272.5 133.3,267.1 132.2,269.5 141.8,273.7 133.1,293.7 136,294.9 	"/>
	<polygon points="154.8,292.6 145.2,288.4 153.9,268.4 151,267.1 141.3,289.6 153.8,295 	"/>
	<polygon points="166,281.3 153.5,275.9 152.5,278.3 162.1,282.5 153.4,302.5 156.2,303.7 	"/>
	<polygon points="256.6,336.8 247,332.7 255.7,312.7 252.8,311.4 243.1,333.8 255.5,339.3 	"/>
	<polygon points="267.8,325.6 255.3,320.2 254.2,322.6 263.8,326.7 255.1,346.7 258,348 	"/>
	<polygon points="267.3,341.5 276,321.5 273.1,320.2 263.3,342.6 275.8,348.1 276.9,345.6 	"/>
	<path d="M275.6,329l-1.1,2.4l9.6,4.2l-8.1,18.6c1.2,0,2.4-0.1,3.5-0.1l8.5-19.6L275.6,329z"/>
	<path d="M287.5,350.2l8.7-20l-2.9-1.3l-9.8,22.4l5.2,2.3c2.4-0.1,4.5-0.2,6.1-0.2L287.5,350.2z"/>
	<polygon points="294.7,340.2 299.9,342.4 299.9,339.5 295.7,337.7 	"/>
	<polygon points="175.5,301.6 166,297.4 174.7,277.4 171.8,276.2 162,298.6 174.5,304 	"/>
	<polygon points="186.7,290.3 174.2,284.9 173.2,287.3 182.8,291.5 174.1,311.5 177,312.7 	"/>
	<polygon points="195.8,310.4 186.2,306.2 194.9,286.2 192,285 182.3,307.4 194.7,312.8 	"/>
	<polygon points="207,299.1 194.5,293.7 193.4,296.1 203,300.3 194.3,320.3 197.2,321.6 	"/>
	<polygon points="216,319.2 206.4,315 215.1,295 212.2,293.7 202.5,316.2 214.9,321.6 	"/>
	<polygon points="227.2,307.9 214.7,302.5 213.6,304.9 223.2,309.1 214.5,329.1 217.4,330.3 	"/>
	<polygon points="236.2,328 226.7,323.8 235.4,303.8 232.5,302.6 222.7,325 235.2,330.4 	"/>
	<polygon points="247.4,316.7 234.9,311.3 233.9,313.7 243.5,317.9 234.8,337.9 237.7,339.1 	"/>
	<polygon points="104.2,224 104.2,226.9 107.1,228.1 104.2,234.7 104.2,242.6 111.1,226.9 	"/>
	<polygon points="120.1,247 110.5,242.8 119.2,222.8 116.3,221.5 106.5,244 119,249.4 	"/>
	<polygon points="131.2,235.7 118.8,230.3 117.7,232.7 127.3,236.9 118.6,256.9 121.5,258.1 	"/>
	<polygon points="140.3,255.8 130.7,251.6 139.4,231.6 136.5,230.4 126.8,252.8 139.3,258.2 	"/>
	<polygon points="151.5,244.5 139,239.1 138,241.5 147.5,245.7 138.8,265.7 141.7,266.9 	"/>
	<polygon points="242.1,300 232.5,295.9 241.2,275.9 238.3,274.6 228.6,297 241,302.5 	"/>
	<polygon points="253.3,288.8 240.8,283.4 239.7,285.8 249.3,290 240.6,310 243.5,311.2 	"/>
	<polygon points="262.4,308.9 252.8,304.7 261.5,284.7 258.6,283.4 248.8,305.9 261.3,311.3 	"/>
	<polygon points="273.5,297.6 261.1,292.2 260,294.6 269.6,298.8 260.9,318.8 263.8,320 	"/>
	<polygon points="282.5,317.6 273,313.5 281.7,293.5 278.8,292.2 269,314.6 281.5,320.1 	"/>
	<polygon points="281.2,301 280.2,303.4 289.8,307.6 281.1,327.5 284,328.8 293.7,306.4 	"/>
	<polygon points="299.8,325.1 293.2,322.3 299.8,307.2 299.8,301.4 299,301 289.3,323.4 299.8,328 	"/>
	<polygon points="161,264.8 151.5,260.6 160.1,240.6 157.3,239.4 147.5,261.8 160,267.2 	"/>
	<polygon points="172.2,253.5 159.7,248.1 158.7,250.5 168.3,254.7 159.6,274.7 162.5,276 	"/>
	<polygon points="181.3,273.6 171.7,269.4 180.4,249.4 177.5,248.2 167.8,270.6 180.2,276 	"/>
	<polygon points="192.5,262.3 180,256.9 178.9,259.4 188.5,263.5 179.8,283.5 182.7,284.8 	"/>
	<polygon points="201.5,282.4 191.9,278.2 200.6,258.2 197.7,257 187.9,279.4 200.4,284.8 	"/>
	<polygon points="212.6,271.1 200.2,265.7 199.1,268.1 208.7,272.3 200,292.3 202.9,293.5 	"/>
	<polygon points="221.7,291.2 212.2,287 220.9,267 218,265.8 208.2,288.2 220.7,293.6 	"/>
	<polygon points="232.9,279.9 220.4,274.5 219.4,276.9 229,281.1 220.3,301.1 223.2,302.4 	"/>
	<polygon points="105.8,210.3 104.2,209.6 104.2,212.5 104.7,212.7 	"/>
	<polygon points="104.2,185.8 104.2,187.7 104.9,186.1 	"/>
	<polygon points="116.9,199 104.5,193.6 104.2,194.2 104.2,196.4 113,200.2 104.3,220.2 107.2,221.4 	"/>
	<polygon points="126,219.1 116.5,214.9 125.2,194.9 122.3,193.7 112.5,216.1 125,221.5 	"/>
	<polygon points="137.2,207.8 124.7,202.4 123.7,204.8 133.3,209 124.6,229 127.5,230.3 	"/>
	<polygon points="146.2,227.9 136.6,223.7 145.3,203.7 142.4,202.4 132.7,224.9 145.2,230.3 	"/>
	<polygon points="157.4,216.6 144.9,211.2 143.9,213.6 153.4,217.8 144.7,237.8 147.6,239 	"/>
	<polygon points="166.5,236.7 156.9,232.5 165.6,212.5 162.7,211.3 153,233.7 165.4,239.1 	"/>
	<polygon points="177.7,225.4 165.2,220 164.1,222.4 173.7,226.6 165,246.6 167.9,247.8 	"/>
	<polygon points="268.3,280.9 258.7,276.8 267.4,256.8 264.5,255.5 254.7,277.9 267.2,283.4 	"/>
	<polygon points="267,264.3 265.9,266.7 275.5,270.9 266.8,290.9 269.7,292.1 279.4,269.7 	"/>
	<polygon points="288.5,289.8 278.9,285.6 287.6,265.6 284.7,264.3 275,286.8 287.5,292.2 	"/>
	<polygon points="299.7,278.5 287.2,273.1 286.2,275.5 295.7,279.7 287,299.7 289.9,300.9 	"/>
	<polygon points="299.8,294.6 299.1,294.4 299.8,292.9 299.7,285 295.2,295.5 299.8,297.5 	"/>
	<polygon points="187.2,245.7 177.6,241.5 186.3,221.5 183.4,220.3 173.7,242.7 186.1,248.1 	"/>
	<polygon points="198.4,234.4 185.9,229 184.8,231.4 194.4,235.6 185.7,255.6 188.6,256.9 	"/>
	<polygon points="207.5,254.5 197.9,250.3 206.6,230.3 203.7,229.1 193.9,251.5 206.4,256.9 	"/>
	<polygon points="218.6,243.3 206.2,237.8 205.1,240.3 214.7,244.4 206,264.4 208.9,265.7 	"/>
	<polygon points="227.6,263.3 218.1,259.1 226.8,239.1 223.9,237.9 214.1,260.3 226.6,265.7 	"/>
	<polygon points="238.8,252 226.3,246.6 225.3,249 234.9,253.2 226.2,273.2 229.1,274.4 	"/>
	<polygon points="247.9,272.1 238.3,267.9 247,247.9 244.1,246.7 234.4,269.1 246.8,274.5 	"/>
	<polygon points="259.1,260.8 246.6,255.4 245.5,257.8 255.1,262 246.4,282 249.3,283.3 	"/>
	<path d="M105.2,162.9l-1,2.3l0,7.9l6.5-14.9l-0.4-0.2C108.3,160.3,106.5,161.9,105.2,162.9z"/>
	<polygon points="111.6,182.3 104.2,179.1 104.2,182 110.5,184.7 	"/>
	<polygon points="122.8,171.1 110.3,165.6 109.2,168.1 118.8,172.2 110.1,192.2 113,193.5 	"/>
	<polygon points="131.8,191.1 122.3,187 131,167 128.1,165.7 118.3,188.1 130.8,193.6 	"/>
	<polygon points="143,179.9 130.5,174.5 129.5,176.9 139.1,181.1 130.4,201 133.3,202.3 	"/>
	<polygon points="152,199.9 142.4,195.7 151.1,175.8 148.2,174.5 138.5,196.9 151,202.3 	"/>
	<polygon points="163.2,188.7 150.7,183.2 149.7,185.7 159.2,189.8 150.5,209.8 153.4,211.1 	"/>
	<polygon points="172.3,208.7 162.7,204.6 171.4,184.6 168.5,183.3 158.8,205.7 171.2,211.1 	"/>
	<polygon points="183.5,197.5 171,192.1 169.9,194.5 179.5,198.6 170.8,218.6 173.7,219.9 	"/>
	<polygon points="274.1,253 264.5,248.8 273.2,228.8 270.3,227.6 260.5,250 273,255.4 	"/>
	<polygon points="272.8,236.3 271.7,238.7 281.3,242.9 272.6,262.9 275.5,264.2 285.2,241.7 	"/>
	<polygon points="294.3,261.8 284.7,257.6 293.4,237.6 290.5,236.4 280.8,258.8 293.3,264.2 	"/>
	<polygon points="292,247.6 299.7,250.9 299.7,248 293,245.1 	"/>
	<polygon points="292.9,271.7 295.7,273 299.7,263.9 299.7,255.9 	"/>
	<polygon points="193,217.7 183.4,213.6 192.1,193.6 189.2,192.3 179.5,214.7 191.9,220.2 	"/>
	<polygon points="204.2,206.5 191.7,201.1 190.6,203.5 200.2,207.7 191.5,227.6 194.4,228.9 	"/>
	<polygon points="213.3,226.5 203.7,222.4 212.4,202.4 209.5,201.1 199.7,223.5 212.2,229 	"/>
	<polygon points="224.4,215.3 212,209.9 210.9,212.3 220.5,216.5 211.8,236.5 214.7,237.7 	"/>
	<polygon points="233.4,235.3 223.9,231.2 232.6,211.2 229.7,209.9 219.9,232.3 232.4,237.7 	"/>
	<polygon points="244.6,224.1 232.1,218.6 231.1,221.1 240.7,225.2 232,245.2 234.9,246.5 	"/>
	<polygon points="253.7,244.1 244.1,240 252.8,220 249.9,218.7 240.2,241.1 252.6,246.6 	"/>
	<polygon points="264.9,232.9 252.4,227.5 251.3,229.9 260.9,234.1 252.2,254 255.1,255.3 	"/>
	<path d="M117.4,154.4l-3.1-1.4c-0.5,0.8-1.1,1.5-1.6,2.2l3.7,1.6L117.4,154.4z"/>
	<path d="M128.6,143.1l-7.1-3.1c-0.2,0.5-0.4,1-0.6,1.4c-0.2,0.3-0.3,0.6-0.5,1l4.2,1.8l-8.7,20l2.9,1.3L128.6,143.1z"/>
	<polygon points="137.7,163.2 128.1,159 136.8,139 133.9,137.8 124.2,160.2 136.6,165.6 	"/>
	<polygon points="148.9,152 136.4,146.5 135.3,149 144.9,153.1 136.2,173.1 139.1,174.4 	"/>
	<polygon points="157.9,172 148.3,167.8 157,147.8 154.1,146.6 144.3,169 156.8,174.4 	"/>
	<polygon points="169,160.7 156.6,155.3 155.5,157.7 165.1,161.9 156.4,181.9 159.3,183.1 	"/>
	<polygon points="178.1,180.8 168.6,176.6 177.3,156.6 174.4,155.4 164.6,177.8 177.1,183.2 	"/>
	<polygon points="189.3,169.5 176.8,164.1 175.8,166.5 185.4,170.7 176.7,190.7 179.6,192 	"/>
	<polygon points="279.9,225.1 270.3,220.9 279,200.9 276.1,199.6 266.4,222.1 278.9,227.5 	"/>
	<polygon points="291.1,213.8 278.6,208.4 277.6,210.8 287.1,215 278.4,235 281.3,236.2 	"/>
	<polygon points="299.7,234.9 299.7,233.7 290.6,229.7 299.3,209.7 296.4,208.5 286.6,230.9 299.1,236.3 	"/>
	<polygon points="297.8,219.6 299.7,220.5 299.7,217.6 298.9,217.2 	"/>
	<polygon points="299.7,241.4 298.7,243.8 299.7,244.2 	"/>
	<polygon points="198.8,189.8 189.3,185.6 198,165.6 195.1,164.4 185.3,186.8 197.8,192.2 	"/>
	<polygon points="210,178.6 197.5,173.1 196.5,175.6 206.1,179.7 197.4,199.7 200.3,201 	"/>
	<polygon points="219.1,198.6 209.5,194.4 218.2,174.5 215.3,173.2 205.6,195.6 218.1,201 	"/>
	<polygon points="230.3,187.4 217.8,181.9 216.8,184.4 226.3,188.5 217.6,208.5 220.5,209.8 	"/>
	<polygon points="239.3,207.4 229.7,203.2 238.4,183.2 235.5,182 225.8,204.4 238.2,209.8 	"/>
	<polygon points="250.5,196.1 238,190.7 236.9,193.1 246.5,197.3 237.8,217.3 240.7,218.6 	"/>
	<polygon points="259.6,216.2 250,212 258.7,192 255.8,190.8 246,213.2 258.5,218.6 	"/>
	<polygon points="258.3,199.5 257.2,202 266.8,206.1 258.1,226.1 261,227.4 270.7,205 	"/>
	<path d="M134,114.8l-5.1-2.2c-0.1,0.9-0.2,1.8-0.4,2.7l1.6,0.7l-2.9,6.8c-1.1,4.9-2.5,9.5-4.2,13.9l1.3,0.6L134,114.8z"/>
	<polygon points="129.6,131.8 142.1,137.3 143.1,134.8 133.6,130.7 142.3,110.7 139.4,109.4 	"/>
	<polygon points="140.8,120.6 150.4,124.8 141.7,144.7 144.6,146 154.3,123.6 141.8,118.2 	"/>
	<polygon points="149.8,140.6 162.3,146 163.3,143.6 153.7,139.4 162.4,119.4 159.5,118.2 	"/>
	<polygon points="161,129.4 170.5,133.5 161.8,153.5 164.7,154.8 174.5,132.4 162,126.9 	"/>
	<polygon points="170.1,149.4 182.5,154.8 183.6,152.4 174,148.3 182.7,128.3 179.8,127 	"/>
	<polygon points="181.2,138.2 190.8,142.3 182.1,162.3 185,163.6 194.8,141.2 182.3,135.7 	"/>
	<polygon points="285.4,196.7 275.8,192.5 284.5,172.5 281.6,171.3 271.8,193.7 284.3,199.1 	"/>
	<polygon points="296.5,185.4 284.1,180 283,182.4 292.6,186.6 283.9,206.6 286.8,207.9 	"/>
	<polygon points="299.8,203 296,201.3 299.8,192.8 299.8,184.8 292.1,202.5 299.8,205.8 	"/>
	<polygon points="190.8,158.4 203.2,163.9 204.3,161.4 194.7,157.3 203.4,137.3 200.5,136 	"/>
	<polygon points="201.9,147.2 211.5,151.4 202.8,171.3 205.7,172.6 215.5,150.2 203,144.8 	"/>
	<polygon points="211,167.2 223.5,172.7 224.6,170.2 215,166.1 223.7,146.1 220.8,144.8 	"/>
	<polygon points="222.2,156 231.8,160.2 223.1,180.2 226,181.4 235.7,159 223.3,153.6 	"/>
	<polygon points="231.2,176 243.7,181.4 244.7,179 235.2,174.9 243.9,154.9 241,153.6 	"/>
	<polygon points="252,168.9 243.3,188.9 246.2,190.2 255.9,167.8 243.4,162.3 242.4,164.8 	"/>
	<polygon points="265,187.8 255.4,183.7 264.1,163.7 261.2,162.4 251.5,184.8 263.9,190.3 	"/>
	<polygon points="263.7,171.2 262.6,173.6 272.2,177.8 263.5,197.7 266.4,199 276.2,176.6 	"/>
	<path d="M130.1,85.5L136,88l-6,13.9c-0.1,2.4-0.3,4.8-0.6,7.1l0.8,0.3l9.8-22.4l-9.9-4.3C130.1,83.5,130.1,84.5,130.1,85.5z"/>
	<polygon points="149,106.9 139.4,102.7 148.1,82.7 145.2,81.5 135.5,103.9 147.9,109.3 	"/>
	<polygon points="146.6,92.7 156.2,96.8 147.5,116.8 150.4,118.1 160.2,95.7 147.7,90.2 	"/>
	<path d="M168.1,118.1l1.1-2.4l-9.6-4.2l8.1-18.5c-0.5-0.8-1-1.6-1.4-2.4l-0.8-0.4l-9.8,22.4L168.1,118.1z"/>
	<path d="M174.5,101.9l-6.6-2.9l-1.1,2.4l9.6,4.2l-8.7,20l2.9,1.3l8.9-20.5C177.8,105,176.1,103.6,174.5,101.9z"/>
	<path d="M188.4,126.9l1.1-2.4l-9.6-4.2l4.7-10.7c-0.9-0.5-1.8-1-2.7-1.6l-5.9,13.5L188.4,126.9z"/>
	<path d="M188,134.4l2.9,1.3l9.5-21.8c-2.4-0.1-4.8-0.4-7-0.9l3.4,1.5L188,134.4z"/>
	<path d="M290.2,171.2l1.1-2.4l-9.6-4.2l6.7-15.4c-0.7-1.1-1.3-2.2-2-3.4l-8.7,19.9L290.2,171.2z"/>
	<path d="M288.9,154.5l4.7,2c-1-1.3-2.1-2.7-3.2-4.3l-0.4-0.2L288.9,154.5z"/>
	<path d="M299.8,163.4l0-0.5c-0.6-0.5-1.4-1.2-2.3-2.1l-7.8,17.8l2.9,1.3L299.8,163.4z"/>
	<polygon points="299.8,175.4 299.8,170.3 297.9,174.6 	"/>
	<path d="M209.1,135.9l1.1-2.4l-9.6-4.2l6.8-15.7c-1.2,0.1-2.3,0.2-3.5,0.2l-7.2,16.6L209.1,135.9z"/>
	<polygon points="207.8,119.3 217.4,123.4 208.7,143.4 211.6,144.7 221.3,122.2 208.8,116.8 	"/>
	<polygon points="216.9,139.3 229.4,144.7 230.4,142.3 220.8,138.1 229.5,118.2 226.6,116.9 	"/>
	<polygon points="228.1,128.1 237.6,132.2 228.9,152.2 231.8,153.5 241.6,131.1 229.1,125.6 	"/>
	<polygon points="237.1,148.1 249.5,153.5 250.6,151.1 241,146.9 249.7,126.9 246.8,125.7 	"/>
	<polygon points="248.2,136.8 257.8,141 249.1,161 252,162.3 261.8,139.8 249.3,134.4 	"/>
	<polygon points="257.3,156.9 269.8,162.3 270.9,159.9 261.3,155.7 270,135.7 267.1,134.5 	"/>
	<polygon points="268.5,145.7 278.1,149.8 269.4,169.8 272.3,171.1 282,148.7 269.6,143.2 	"/>
	<path d="M134.5,70.1l-5.5-2.4c0.1,1,0.2,2,0.3,3l4.2,1.8L134.5,70.1z"/>
	<path d="M127.8,56.8l0.1,1.1c0,0.3,0.1,0.7,0.1,1l1.1-2.5L127.8,56.8z"/>
	<polygon points="132.4,55.4 132.2,55.9 141.8,60.1 133.1,80 136,81.3 145.7,58.9 135.5,54.4 	"/>
	<polygon points="141.3,75.9 153.7,81.4 154.8,78.9 145.2,74.8 153.9,54.8 151,53.5 	"/>
	<path d="M152.4,64.7l4.6,2c-0.3-1.1-0.5-2.2-0.7-3.2l-2.9-1.2L152.4,64.7z"/>
	<path d="M159.4,74.9l-6.1,13.9l2.9,1.3l4.7-10.8C160.4,77.8,159.9,76.4,159.4,74.9z"/>
	<path d="M163.7,85.7c-0.5-1-0.9-2-1.4-3l-0.9,2L163.7,85.7z"/>
	<path d="M214.5,115.5l2.9,1.3l3.1-7c-1.4,0.7-2.8,1.4-4.3,1.9L214.5,115.5z"/>
	<path d="M235.2,116.8l1.1-2.4l-9.6-4.2l3.3-7.6c-1.7,1.7-3.6,3.3-5.5,4.6l-1.8,4.2L235.2,116.8z"/>
	<polygon points="233.9,100.1 243.4,104.3 234.7,124.3 237.6,125.5 247.4,103.1 234.9,97.7 	"/>
	<polygon points="242.9,120.1 255.3,125.6 256.4,123.1 246.8,119 255.5,99 252.6,97.7 	"/>
	<polygon points="254,108.9 263.6,113.1 254.9,133 257.8,134.3 267.6,111.9 255.1,106.5 	"/>
	<path d="M263.1,128.9l12.5,5.4l1.1-2.4l-9.6-4.2l8.5-19.6c0-0.2,0-0.3,0-0.5l-2.7-1.2L263.1,128.9z"/>
	<path d="M278.1,143.1l3.5-8c-0.5-1.5-1-2.9-1.5-4.4l-4.9,11.2L278.1,143.1z"/>
	<path d="M274.3,117.7l2.9,1.2c-0.2-1-0.4-2.1-0.5-3.1l-1.3-0.5L274.3,117.7z"/>
	<path d="M154.7,51.3c0-0.6-0.1-1.2-0.1-1.7c-0.3-0.6-0.4-0.9-0.4-0.9l-3.2,1L154.7,51.3z"/>
	<polygon points="141.8,53.4 142.2,52.4 140.6,52.9 	"/>
	<path d="M242.1,86.4l-0.9-0.4c-0.2,0.4-0.3,0.7-0.5,1.1c-0.2,0.5-0.5,0.9-0.7,1.3l1,0.5L242.1,86.4z"/>
	<path d="M245.6,74.8l3.7,1.6l-8.7,20l2.9,1.3l9.8-22.4l-6.9-3C246.2,73.1,245.9,73.9,245.6,74.8z"/>
	<polygon points="248.8,92.3 261.3,97.7 262.4,95.3 252.8,91.1 261.5,71.1 258.6,69.8 	"/>
	<polygon points="260,81 269.6,85.2 260.9,105.2 263.8,106.4 273.6,84 261.1,78.6 	"/>
	<path d="M269,101l6.2,2.7c-0.1-1-0.1-2-0.2-3l-2.1-0.9l1.9-4.3c-0.1-2.6-0.1-5.2,0-7.9L269,101z"/>
	<path d="M248.6,63.3c-0.4,1.8-0.8,3.6-1.3,5.5l2,0.8l8.3-19.1l-3-0.9L248.6,63.3z"/>
	<polygon points="267,69.7 268,67.2 258.5,63.1 263.2,52.2 260.2,51.3 254.5,64.2 	"/>
	<path d="M266.6,77.2l2.9,1.3l7.1-16.4c0.2-1.4,0.3-2.9,0.5-4.4l0.2-1.3l-11.6-3.5l0,0.1l9.6,4.2L266.6,77.2z"/>
	<path d="M275.5,73.4c0.1-0.8,0.1-1.6,0.2-2.4l-0.9,2.1L275.5,73.4z"/>
	<polygon points="642.6,347.5 643.2,348.9 643.2,347.2 	"/>
	<path d="M634.4,343.4l4.9,11.4c1.3-0.5,2.2-1,2.9-1.3l-4.9-11.3L634.4,343.4z"/>
	<path d="M626.3,357.5l9.6-4.2l-1.1-2.4l-12.5,5.4l2,4.5c1-0.4,2-0.8,3-1.1L626.3,357.5z"/>
	<path d="M613.7,352.4l4.6,10.6c1-0.4,2-0.7,3-1.1l-4.7-10.8L613.7,352.4z"/>
	<path d="M605.6,366.5l9.6-4.2l-1.1-2.4l-12.5,5.4l1.2,2.7c1-0.3,2-0.6,3-0.9L605.6,366.5z"/>
	<path d="M593.4,361.2l3.7,8.4c1-0.3,2.1-0.6,3.1-0.9l-3.8-8.8L593.4,361.2z"/>
	<path d="M594.5,370.3l-0.7-1.6l-9.3,4.1C587.9,372,591.3,371.2,594.5,370.3z"/>
	<path d="M573.2,370l2,4.6c1.1-0.2,2.1-0.4,3.2-0.6l-2.3-5.3L573.2,370z"/>
	<polygon points="643.2,326.5 640.7,320.7 643.2,319.6 643.2,316.7 636.8,319.6 643.2,334.4 	"/>
	<polygon points="631.4,314.2 628.5,315.5 637.2,335.4 627.7,339.6 628.7,342 641.2,336.6 	"/>
	<polygon points="629.1,349.5 620.4,329.5 630,325.4 629,322.9 616.5,328.4 626.2,350.8 	"/>
	<path d="M526.8,359.7l7.7,17.7c1.2,0.1,2.3,0.1,3.5,0.2l-8.3-19.1L526.8,359.7z"/>
	<path d="M518.7,373.8l9.6-4.2l-1.1-2.4l-12.5,5.4l1.1,2.6c1.2,0.2,2.5,0.4,3.7,0.6L518.7,373.8z"/>
	<path d="M506.5,368.5l2.3,5.3c1.2,0.3,2.5,0.5,3.8,0.7l-3.2-7.3L506.5,368.5z"/>
	<polygon points="610.7,323.2 607.8,324.5 616.5,344.5 607,348.6 608,351 620.5,345.6 	"/>
	<polygon points="608.4,358.5 599.7,338.5 609.3,334.4 608.3,331.9 595.8,337.4 605.5,359.8 	"/>
	<polygon points="590.5,332 587.6,333.3 596.3,353.3 586.7,357.4 587.7,359.9 600.2,354.4 	"/>
	<polygon points="589,343.2 588,340.8 575.5,346.2 585.3,368.6 588.2,367.3 579.5,347.4 	"/>
	<polygon points="570.3,340.8 567.4,342.1 576.1,362 566.5,366.2 567.6,368.6 580,363.2 	"/>
	<path d="M568.9,352l-1.1-2.4l-12.5,5.4l9.3,21.3c1.1-0.1,2.2-0.3,3.2-0.4l-8.6-19.7L568.9,352z"/>
	<polygon points="555.8,370.9 546.2,375 547.3,377.5 559.8,372 550,349.6 547.1,350.9 	"/>
	<path d="M548.6,360.8l-1.1-2.4l-12.5,5.4l6,13.9c0.9,0,1.8,0,2.7,0c0.3,0,0.5,0,0.8,0l-5.5-12.7L548.6,360.8z"/>
	<polygon points="643.3,278.6 643,278.7 643.3,279.3 	"/>
	<polygon points="643.2,305.3 643.3,305.2 643.3,302.3 642.1,302.8 	"/>
	<polygon points="643.2,312.9 643.3,312 634.9,292.8 643.3,289.1 643.3,286.2 631,291.6 640.7,314 	"/>
	<polygon points="625.6,286.2 622.7,287.5 631.4,307.5 621.9,311.7 622.9,314.1 635.4,308.7 	"/>
	<polygon points="623.3,321.6 614.6,301.6 624.2,297.4 623.2,295 610.7,300.4 620.4,322.8 	"/>
	<polygon points="523.9,330.5 521,331.8 529.7,351.8 520.1,355.9 521.1,358.4 533.6,352.9 	"/>
	<polygon points="521.6,365.8 512.9,345.8 522.4,341.7 521.4,339.3 508.9,344.7 518.7,367.1 	"/>
	<polygon points="500.7,340.6 509.4,360.6 499.8,364.7 500.9,367.2 513.4,361.7 503.6,339.3 	"/>
	<path d="M492.6,354.7l9.6-4.2l-1.1-2.4l-12.5,5.4l7.6,17.4c1.3,0.3,2.6,0.7,3.9,1L492.6,354.7z"/>
	<path d="M480.5,349.4l8.5,19.5c1.3,0.4,2.6,0.8,3.9,1.1l-9.5-21.9L480.5,349.4z"/>
	<path d="M472.5,363.4l9.5-4.2l-1.1-2.4l-12.1,5.2C470,362.5,471.2,363,472.5,363.4z"/>
	<path d="M463.2,356.9l-2.9,1.3l0.2,0.6c1.3,0.5,2.7,1.1,4.2,1.7L463.2,356.9z"/>
	<polygon points="604.9,295.3 602,296.5 610.7,316.5 601.1,320.7 602.2,323.1 614.7,317.7 	"/>
	<polygon points="602.6,330.6 593.9,310.6 603.5,306.4 602.5,304 590,309.4 599.7,331.8 	"/>
	<polygon points="584.7,304.1 581.8,305.3 590.5,325.3 580.9,329.5 581.9,331.9 594.4,326.5 	"/>
	<polygon points="582.4,339.4 573.7,319.4 583.2,315.2 582.2,312.8 569.7,318.2 579.5,340.7 	"/>
	<polygon points="564.5,312.8 561.6,314.1 570.3,334.1 560.7,338.3 561.8,340.7 574.2,335.3 	"/>
	<polygon points="562.2,348.2 553.5,328.2 563.1,324 562,321.6 549.5,327 559.3,349.4 	"/>
	<polygon points="541.3,322.9 550,342.9 540.4,347.1 541.5,349.5 554,344.1 544.2,321.7 	"/>
	<polygon points="541.9,357 533.2,337 542.8,332.8 541.7,330.4 529.3,335.8 539,358.2 	"/>
	<polygon points="637,250.8 643.1,264.8 643.1,256.9 639.9,249.6 	"/>
	<polygon points="643.3,271.9 636.1,275 637.2,277.4 643.3,274.7 	"/>
	<polygon points="637.6,284.9 628.9,264.9 638.5,260.7 637.4,258.3 625,263.7 634.7,286.1 	"/>
	<polygon points="619.7,258.3 616.8,259.6 625.5,279.6 616,283.7 617,286.2 629.5,280.7 	"/>
	<polygon points="617.4,293.7 608.7,273.7 618.3,269.5 617.3,267.1 604.8,272.5 614.5,294.9 	"/>
	<polygon points="599.5,267.1 596.6,268.4 605.3,288.4 595.7,292.6 596.8,295 609.2,289.6 	"/>
	<polygon points="597.2,302.5 588.5,282.5 598.1,278.3 597,275.9 584.5,281.3 594.3,303.7 	"/>
	<polygon points="497.7,311.4 494.8,312.7 503.5,332.7 493.9,336.8 495,339.3 507.5,333.8 	"/>
	<polygon points="495.4,346.7 486.7,326.7 496.3,322.6 495.2,320.2 482.8,325.6 492.5,348 	"/>
	<polygon points="473.7,345.6 474.7,348.1 487.2,342.6 477.4,320.2 474.5,321.5 483.2,341.5 	"/>
	<polygon points="475.1,355.6 466.4,335.6 476,331.4 475,329 462.5,334.4 472.2,356.8 	"/>
	<path d="M457.3,329l-2.9,1.3l8.7,20l-9.6,4.2l0.7,1.6c0.4,0.2,0.8,0.3,1.2,0.5l11.7-5.1L457.3,329z"/>
	<path d="M448.5,353.3c0,0,0.7,0.4,2.1,1l-2.9-6.7l0,5.5c0,0,0.1,0,0.2,0v0.1C448,353.2,448.2,353.3,448.5,353.3z"/>
	<polygon points="455.8,340.2 454.8,337.7 447.7,340.8 447.7,343.7 	"/>
	<polygon points="578.8,276.2 575.9,277.4 584.6,297.4 575,301.6 576,304 588.5,298.6 	"/>
	<polygon points="576.5,311.5 567.8,291.5 577.3,287.3 576.3,284.9 563.8,290.3 573.6,312.7 	"/>
	<polygon points="558.5,285 555.6,286.2 564.3,306.2 554.7,310.4 555.8,312.8 568.3,307.4 	"/>
	<polygon points="556.2,320.3 547.5,300.3 557.1,296.1 556,293.7 543.5,299.1 553.3,321.6 	"/>
	<polygon points="538.3,293.7 535.4,295 544.1,315 534.5,319.2 535.6,321.6 548.1,316.2 	"/>
	<polygon points="536,329.1 527.3,309.1 536.9,304.9 535.8,302.5 523.4,307.9 533.1,330.3 	"/>
	<polygon points="518.1,302.6 515.2,303.8 523.9,323.8 514.3,328 515.3,330.4 527.8,325 	"/>
	<polygon points="515.7,337.9 507.1,317.9 516.6,313.7 515.6,311.3 503.1,316.7 512.9,339.1 	"/>
	<polygon points="639.5,226.9 643.1,235.4 643.1,225.3 	"/>
	<polygon points="643.1,242 634.2,221.5 631.4,222.8 640,242.8 630.5,247 631.5,249.4 643.1,244.3 	"/>
	<polygon points="631.9,256.9 623.2,236.9 632.8,232.7 631.8,230.3 619.3,235.7 629,258.1 	"/>
	<polygon points="614,230.4 611.1,231.6 619.8,251.6 610.2,255.8 611.3,258.2 623.7,252.8 	"/>
	<polygon points="611.7,265.7 603,245.7 612.6,241.5 611.5,239.1 599,244.5 608.8,266.9 	"/>
	<polygon points="512.2,274.6 509.3,275.9 518,295.9 508.4,300 509.5,302.5 522,297 	"/>
	<polygon points="509.9,310 501.2,290 510.8,285.8 509.7,283.4 497.3,288.8 507,311.2 	"/>
	<polygon points="491.9,283.4 489.1,284.7 497.7,304.7 488.2,308.9 489.2,311.3 501.7,305.9 	"/>
	<polygon points="489.6,318.8 480.9,298.8 490.5,294.6 489.5,292.2 477,297.6 486.7,320 	"/>
	<polygon points="468,317.6 469,320.1 481.5,314.6 471.8,292.2 468.9,293.5 477.6,313.5 	"/>
	<polygon points="469.5,327.5 460.8,307.6 470.3,303.4 469.3,301 456.8,306.4 466.6,328.8 	"/>
	<polygon points="451.5,301 448.6,302.3 457.3,322.3 447.7,326.4 448.8,328.9 461.3,323.4 	"/>
	<polygon points="447.7,337 449.2,336.4 447.7,332.9 	"/>
	<polygon points="449,309.8 447.7,310.4 447.7,313.2 450.1,312.2 	"/>
	<polygon points="593.3,239.4 590.4,240.6 599.1,260.6 589.5,264.8 590.5,267.2 603,261.8 	"/>
	<polygon points="591,274.7 582.3,254.7 591.9,250.5 590.8,248.1 578.3,253.5 588.1,276 	"/>
	<polygon points="573,248.2 570.1,249.4 578.8,269.4 569.2,273.6 570.3,276 582.8,270.6 	"/>
	<polygon points="570.7,283.5 562,263.5 571.6,259.4 570.5,256.9 558.1,262.3 567.8,284.8 	"/>
	<polygon points="552.8,257 549.9,258.2 558.6,278.2 549.1,282.4 550.1,284.8 562.6,279.4 	"/>
	<polygon points="550.5,292.3 541.8,272.3 551.4,268.1 550.4,265.7 537.9,271.1 547.6,293.5 	"/>
	<polygon points="532.6,265.8 529.7,267 538.4,287 528.8,291.2 529.8,293.6 542.3,288.2 	"/>
	<polygon points="530.3,301.1 521.6,281.1 531.1,276.9 530.1,274.5 517.6,279.9 527.4,302.4 	"/>
	<polygon points="643.2,213.1 637.5,200.2 643.2,197.7 643.2,194.9 633.6,199 643.1,221 	"/>
	<polygon points="628.3,193.7 625.4,194.9 634.1,214.9 624.5,219.1 625.5,221.5 638,216.1 	"/>
	<polygon points="626,229 617.3,209 626.8,204.8 625.8,202.4 613.3,207.8 623.1,230.3 	"/>
	<polygon points="608.1,202.4 605.2,203.7 613.9,223.7 604.3,227.9 605.4,230.3 617.8,224.9 	"/>
	<polygon points="605.8,237.8 597.1,217.8 606.7,213.6 605.6,211.2 593.1,216.6 602.9,239 	"/>
	<polygon points="587.8,211.3 584.9,212.5 593.6,232.5 584,236.7 585.1,239.1 597.6,233.7 	"/>
	<polygon points="585.5,246.6 576.8,226.6 586.4,222.4 585.3,220 572.9,225.4 582.6,247.8 	"/>
	<polygon points="482.3,280.9 483.3,283.4 495.8,277.9 486,255.5 483.2,256.8 491.8,276.8 	"/>
	<polygon points="483.7,290.9 475,270.9 484.6,266.7 483.6,264.3 471.1,269.7 480.8,292.1 	"/>
	<polygon points="465.8,264.3 462.9,265.6 471.6,285.6 462,289.8 463.1,292.2 475.5,286.8 	"/>
	<polygon points="463.5,299.7 454.8,279.7 464.4,275.5 463.3,273.1 450.8,278.5 460.6,300.9 	"/>
	<polygon points="447.7,277.8 447.7,285.8 451.4,294.4 447.7,296 447.7,298.9 455.4,295.5 	"/>
	<polygon points="567.1,220.3 564.2,221.5 572.9,241.5 563.3,245.7 564.4,248.1 576.9,242.7 	"/>
	<polygon points="564.8,255.6 556.1,235.6 565.7,231.4 564.6,229 552.2,234.4 561.9,256.9 	"/>
	<polygon points="546.8,229.1 544,230.3 552.6,250.3 543.1,254.5 544.1,256.9 556.6,251.5 	"/>
	<polygon points="544.5,264.4 535.8,244.4 545.4,240.3 544.4,237.8 531.9,243.3 541.6,265.7 	"/>
	<polygon points="526.7,237.9 523.8,239.1 532.5,259.1 522.9,263.3 523.9,265.7 536.4,260.3 	"/>
	<polygon points="524.4,273.2 515.7,253.2 525.2,249 524.2,246.6 511.7,252 521.5,274.4 	"/>
	<polygon points="506.4,246.7 503.5,247.9 512.2,267.9 502.6,272.1 503.7,274.5 516.2,269.1 	"/>
	<polygon points="504.1,282 495.4,262 505,257.8 503.9,255.4 491.4,260.8 501.2,283.3 	"/>
	<polygon points="643.2,180.5 638.9,182.3 640,184.7 643.2,183.4 	"/>
	<path d="M643.2,165.9l0-2.6c-0.4-0.3-1-0.7-1.7-1.2L643.2,165.9z"/>
	<polygon points="640.4,192.2 631.7,172.2 641.3,168.1 640.2,165.6 627.8,171.1 637.5,193.5 	"/>
	<polygon points="622.5,165.7 619.6,167 628.3,187 618.7,191.1 619.7,193.6 632.2,188.1 	"/>
	<polygon points="620.2,201 611.5,181.1 621,176.9 620,174.5 607.5,179.9 617.3,202.3 	"/>
	<polygon points="602.3,174.5 599.4,175.8 608.1,195.7 598.5,199.9 599.6,202.3 612,196.9 	"/>
	<polygon points="600,209.8 591.3,189.8 600.9,185.7 599.8,183.2 587.3,188.7 597.1,211.1 	"/>
	<polygon points="582,183.3 579.1,184.6 587.8,204.6 578.2,208.7 579.3,211.1 591.8,205.7 	"/>
	<polygon points="579.7,218.6 571,198.6 580.6,194.5 579.5,192.1 567.1,197.5 576.8,219.9 	"/>
	<polygon points="476.5,253 477.5,255.4 490,250 480.2,227.6 477.4,228.8 486,248.8 	"/>
	<polygon points="477.9,262.9 469.2,242.9 478.8,238.7 477.8,236.3 465.3,241.7 475,264.2 	"/>
	<polygon points="460,236.4 457.1,237.6 465.8,257.6 456.2,261.8 457.3,264.2 469.7,258.8 	"/>
	<polygon points="457.7,271.7 449,251.7 458.6,247.6 457.5,245.1 447.6,249.4 447.6,256.6 454.8,273 	"/>
	<polygon points="447.7,263.2 447.7,268.4 449.6,267.6 	"/>
	<polygon points="561.3,192.3 558.4,193.6 567.1,213.6 557.5,217.7 558.6,220.2 571.1,214.7 	"/>
	<polygon points="559,227.6 550.3,207.7 559.9,203.5 558.8,201.1 546.4,206.5 556.1,228.9 	"/>
	<polygon points="541,201.1 538.1,202.4 546.8,222.4 537.3,226.5 538.3,229 550.8,223.5 	"/>
	<polygon points="538.7,236.5 530,216.5 539.6,212.3 538.6,209.9 526.1,215.3 535.8,237.7 	"/>
	<polygon points="520.9,209.9 518,211.2 526.7,231.2 517.1,235.3 518.1,237.7 530.6,232.3 	"/>
	<polygon points="518.6,245.2 509.9,225.2 519.4,221.1 518.4,218.6 505.9,224.1 515.7,246.5 	"/>
	<polygon points="500.6,218.7 497.7,220 506.4,240 496.8,244.1 497.9,246.6 510.3,241.1 	"/>
	<polygon points="498.3,254 489.6,234.1 499.2,229.9 498.1,227.5 485.6,232.9 495.4,255.3 	"/>
	<path d="M634,154l-0.9,0.4l1.1,2.4l1.5-0.7C635.1,155.5,634.6,154.8,634,154z"/>
	<path d="M634.6,164.3l-8.7-20l1.8-0.8c-0.4-0.7-0.7-1.5-1.1-2.2c0-0.1,0-0.1-0.1-0.2l-4.6,2l9.8,22.4L634.6,164.3z"/>
	<polygon points="616.6,137.8 613.7,139 622.4,159 612.8,163.2 613.9,165.6 626.4,160.2 	"/>
	<polygon points="614.3,173.1 605.6,153.1 615.2,149 614.1,146.5 601.7,152 611.4,174.4 	"/>
	<polygon points="596.4,146.6 593.5,147.8 602.2,167.8 592.6,172 593.7,174.4 606.2,169 	"/>
	<polygon points="594.1,181.9 585.4,161.9 595,157.7 594,155.3 581.5,160.7 591.2,183.1 	"/>
	<polygon points="576.2,155.4 573.3,156.6 582,176.6 572.4,180.8 573.4,183.2 585.9,177.8 	"/>
	<polygon points="573.9,190.7 565.2,170.7 574.7,166.5 573.7,164.1 561.2,169.5 571,192 	"/>
	<polygon points="474.4,199.6 471.5,200.9 480.2,220.9 470.6,225.1 471.7,227.5 484.1,222.1 	"/>
	<polygon points="472.1,235 463.4,215 473,210.8 471.9,208.4 459.4,213.8 469.2,236.2 	"/>
	<polygon points="454.1,208.5 451.2,209.7 459.9,229.7 450.3,233.9 451.4,236.3 463.9,230.9 	"/>
	<polygon points="451.6,217.2 447.6,218.9 447.6,221.8 452.7,219.6 	"/>
	<polygon points="451.8,243.8 447.6,234.2 447.6,242.1 448.9,245 	"/>
	<polygon points="555.5,164.4 552.6,165.6 561.3,185.6 551.7,189.8 552.7,192.2 565.2,186.8 	"/>
	<polygon points="553.1,199.7 544.5,179.7 554,175.6 553,173.1 540.5,178.6 550.3,201 	"/>
	<polygon points="535.2,173.2 532.3,174.5 541,194.4 531.4,198.6 532.5,201 544.9,195.6 	"/>
	<polygon points="532.9,208.5 524.2,188.5 533.8,184.4 532.7,181.9 520.2,187.4 530,209.8 	"/>
	<polygon points="515,182 512.1,183.2 520.8,203.2 511.2,207.4 512.3,209.8 524.8,204.4 	"/>
	<polygon points="512.7,217.3 504,197.3 513.6,193.1 512.5,190.7 500.1,196.1 509.8,218.6 	"/>
	<polygon points="491,216.2 492,218.6 504.5,213.2 494.7,190.8 491.9,192 500.5,212 	"/>
	<polygon points="492.4,226.1 483.7,206.1 493.3,202 492.3,199.5 479.8,205 489.5,227.4 	"/>
	<path d="M621,125.2c-0.9-3.6-1.6-7.5-2.2-11.5l-2.3,1L621,125.2z"/>
	<polygon points="607.4,134.8 608.4,137.3 620.9,131.8 611.2,109.4 608.3,110.7 617,130.7 	"/>
	<polygon points="606,146 608.9,144.7 600.2,124.8 609.7,120.6 608.7,118.2 596.2,123.6 	"/>
	<polygon points="588.1,119.4 596.8,139.4 587.2,143.6 588.3,146 600.7,140.6 591,118.2 	"/>
	<polygon points="585.8,154.8 588.7,153.5 580,133.5 589.6,129.4 588.5,126.9 576,132.4 	"/>
	<polygon points="567.8,128.3 576.5,148.3 566.9,152.4 568,154.8 580.5,149.4 570.7,127 	"/>
	<polygon points="565.5,163.6 568.4,162.3 559.7,142.3 569.3,138.2 568.2,135.7 555.8,141.2 	"/>
	<polygon points="468.9,171.3 466.1,172.5 474.7,192.5 465.2,196.7 466.2,199.1 478.7,193.7 	"/>
	<polygon points="466.6,206.6 457.9,186.6 467.5,182.4 466.5,180 454,185.4 463.7,207.9 	"/>
	<polygon points="448.7,180.1 447.6,180.5 447.6,185.5 454.5,201.3 447.6,204.3 447.6,207.2 458.4,202.5 	"/>
	<polygon points="547.1,137.3 555.8,157.3 546.2,161.4 547.3,163.9 559.8,158.4 550,136 	"/>
	<polygon points="544.8,172.6 547.7,171.3 539,151.4 548.6,147.2 547.5,144.8 535.1,150.2 	"/>
	<polygon points="526.8,146.1 535.5,166.1 526,170.2 527,172.7 539.5,167.2 529.7,144.8 	"/>
	<polygon points="524.5,181.4 527.4,180.2 518.7,160.2 528.3,156 527.3,153.6 514.8,159 	"/>
	<polygon points="506.7,154.9 515.4,174.9 505.8,179 506.8,181.4 519.3,176 509.6,153.6 	"/>
	<polygon points="504.4,190.2 507.3,188.9 498.6,168.9 508.1,164.8 507.1,162.3 494.6,167.8 	"/>
	<polygon points="486.4,163.7 495.1,183.7 485.5,187.8 486.6,190.3 499,184.8 489.3,162.4 	"/>
	<polygon points="487,197.7 478.3,177.8 487.9,173.6 486.8,171.2 474.3,176.6 484.1,199 	"/>
	<path d="M617.7,103.1c-0.2-2.8-0.3-5.7-0.4-8.7l-2.8-6.4l2.8-1.2c0-1,0-1.9,0.1-2.9l-6.8,3L617.7,103.1z"/>
	<polygon points="602.4,82.7 611.1,102.7 601.5,106.9 602.6,109.3 615.1,103.9 605.3,81.5 	"/>
	<polygon points="603,116.8 594.3,96.8 603.9,92.7 602.8,90.2 590.4,95.7 600.1,118.1 	"/>
	<polygon points="582.2,91.5 590.9,111.5 581.4,115.7 582.4,118.1 594.9,112.7 585.1,90.3 	"/>
	<polygon points="579.9,126.8 582.8,125.6 574.1,105.6 583.7,101.4 582.7,99 570.2,104.4 	"/>
	<polygon points="561.1,124.5 562.1,126.9 574.6,121.5 564.9,99.1 562,100.3 570.7,120.3 	"/>
	<polygon points="559.7,135.7 562.6,134.4 553.9,114.4 563.4,110.2 562.4,107.8 549.9,113.2 	"/>
	<path d="M462.2,143.7c-0.4,0.9-0.9,1.7-1.3,2.5l8,18.4l-9.6,4.2l1.1,2.4l12.5-5.4l-9.8-22.4L462.2,143.7z"/>
	<path d="M460.8,178.7l-8.7-20l9.6-4.2l-1.1-2.4l-4.8,2.1c-2.3,3-4.4,5.3-6.2,6.9l8.2,18.9L460.8,178.7z"/>
	<polygon points="448.6,173.4 447.6,173.8 447.6,176.7 452.6,174.6 447.6,163.1 447.6,171 	"/>
	<polygon points="541.3,109.3 550,129.3 540.4,133.5 541.4,135.9 553.9,130.5 544.2,108.1 	"/>
	<polygon points="539,144.7 541.8,143.4 533.2,123.4 542.7,119.3 541.7,116.8 529.2,122.2 	"/>
	<polygon points="521,118.2 529.7,138.1 520.1,142.3 521.2,144.7 533.6,139.3 523.9,116.9 	"/>
	<polygon points="518.7,153.5 521.6,152.2 512.9,132.2 522.5,128.1 521.4,125.6 508.9,131.1 	"/>
	<polygon points="500.8,126.9 509.5,146.9 499.9,151.1 501,153.5 513.5,148.1 503.7,125.7 	"/>
	<polygon points="498.5,162.3 501.4,161 492.7,141 502.3,136.8 501.2,134.4 488.8,139.8 	"/>
	<polygon points="480.6,135.7 489.2,155.7 479.7,159.9 480.7,162.3 493.2,156.9 483.4,134.5 	"/>
	<polygon points="481.1,169.8 472.4,149.8 482,145.7 481,143.2 468.5,148.7 478.2,171.1 	"/>
	<path d="M617,72.6l1.1-0.5c0.1-1,0.2-2,0.3-3l-2.4,1L617,72.6z"/>
	<polygon points="614.6,81.3 617.5,80 608.8,60.1 618.3,55.9 618.1,55.2 615.2,54.4 604.8,58.9 	"/>
	<polygon points="596.6,54.8 605.3,74.8 595.7,78.9 596.8,81.4 609.3,75.9 599.5,53.5 	"/>
	<polygon points="594.3,90.1 597.2,88.9 588.5,68.9 598.1,64.7 597,62.3 584.6,67.7 	"/>
	<polygon points="576.4,63.6 585.1,83.6 575.5,87.7 576.6,90.1 589.1,84.7 579.3,62.3 	"/>
	<polygon points="577.9,73.5 576.8,71.1 564.4,76.5 574.1,98.9 577,97.6 568.3,77.6 	"/>
	<polygon points="556.2,72.4 564.9,92.4 555.3,96.5 556.3,99 568.8,93.5 559.1,71.1 	"/>
	<polygon points="556.8,106.4 548.1,86.5 557.6,82.3 556.6,79.9 544.1,85.3 553.9,107.7 	"/>
	<path d="M467,137.8l-1.1-2.6c-0.5,1.3-1,2.5-1.5,3.7L467,137.8z"/>
	<polygon points="535.5,81.4 544.2,101.4 534.6,105.5 535.6,108 548.1,102.5 538.4,80.1 	"/>
	<polygon points="533.2,116.7 536,115.5 527.4,95.5 536.9,91.3 535.9,88.9 523.4,94.3 	"/>
	<polygon points="515.2,90.2 523.9,110.2 514.3,114.4 515.4,116.8 527.8,111.4 518.1,88.9 	"/>
	<polygon points="512.9,125.5 515.8,124.3 507.1,104.3 516.7,100.1 515.6,97.7 503.1,103.1 	"/>
	<polygon points="495,99 503.7,119 494.1,123.1 495.2,125.6 507.7,120.1 497.9,97.7 	"/>
	<polygon points="492.7,134.3 495.6,133 486.9,113.1 496.5,108.9 495.4,106.5 483,111.9 	"/>
	<polygon points="474.7,107.8 483.4,127.8 473.9,131.9 474.9,134.4 487.4,128.9 477.6,106.5 	"/>
	<path d="M475.3,141.9l-6.7-15.3c-0.4,1.6-0.9,3.2-1.4,4.7l5.2,11.8L475.3,141.9z"/>
	<path d="M470.1,120.4l6.1-2.7l-1.1-2.4l-4.5,1.9C470.5,118.3,470.3,119.3,470.1,120.4z"/>
	<polygon points="589.8,51 590.9,53.5 599.7,49.6 595.7,48.5 	"/>
	<path d="M591.3,60.9l-4.1-9.5c-0.2,0.1-0.3,0.3-0.5,0.4c-0.7,0.6-1.4,1.1-2.1,1.6l3.8,8.7L591.3,60.9z"/>
	<path d="M583.1,56.8l-0.7-1.6c-1.8,1.5-3.7,3-5.7,4.4L583.1,56.8z"/>
	<path d="M571,69.8l-2.2-5.2c-0.9,0.5-1.9,1-2.8,1.4l2.2,5L571,69.8z"/>
	<path d="M551.6,70.5c-0.4,0.1-0.9,0.1-1.3,0.2l0.1,0.3L551.6,70.5z"/>
	<path d="M550.9,78.5l-3.3-7.6c-0.7,0-1.4,0.1-2,0.1c-0.5,0-0.9,0-1.4,0l3.8,8.8L550.9,78.5z"/>
	<path d="M538.7,73.3l-9.6,4.2l1.1,2.4l12.5-5.4l-1.6-3.7c-1.2-0.1-2.4-0.3-3.7-0.6L538.7,73.3z"/>
	<path d="M527.7,88.6l2.9-1.3l-8.7-20L525,66c-1-0.5-2-1-3-1.6l-4.1,1.8L527.7,88.6z"/>
	<polygon points="610,52.8 608.3,52.3 608.8,53.4 	"/>
	<polygon points="508.4,86.4 509.5,88.9 521.9,83.4 512.2,61 509.3,62.3 518,82.3 	"/>
	<polygon points="507,97.6 509.9,96.4 501.2,76.4 510.8,72.2 509.7,69.8 497.2,75.2 	"/>
	<polygon points="489,71.1 497.7,91.1 488.1,95.3 489.2,97.7 501.7,92.3 491.9,69.8 	"/>
	<polygon points="489.6,105.2 480.9,85.2 490.5,81 489.4,78.6 477,84 486.7,106.4 	"/>
	<path d="M472.7,88.7l4.8,11.1l-5.1,2.2c-0.1,1-0.1,2-0.2,3l9.3-4l-9.1-20.9C472.6,83.1,472.7,85.9,472.7,88.7z"/>
	<path d="M511.7,57.4c-0.8-0.6-1.5-1.2-2.3-1.9l-6.7,2.9l1.1,2.4L511.7,57.4z"/>
	<polygon points="504.1,68.4 495.7,49.1 492.7,50 501.2,69.6 	"/>
	<polygon points="492.1,63.1 482.5,67.2 483.5,69.7 496,64.2 490.2,50.8 487.1,51.7 	"/>
	<polygon points="483.9,77.2 475.3,57.2 484.8,53 484.6,52.5 471.5,56.4 481.1,78.4 	"/>
	<path d="M475.7,73.1l-4.8-11.1c0.5,4.4,0.9,8.6,1.2,12.7L475.7,73.1z"/>
</g>
</svg>
