<?xml version="1.0" encoding="utf-8"?>
<!-- Generator: Adobe Illustrator 25.3.0, SVG Export Plug-In . SVG Version: 6.00 Build 0)  -->
<svg version="1.1" id="Layer_1" xmlns="http://www.w3.org/2000/svg" xmlns:xlink="http://www.w3.org/1999/xlink" x="0px" y="0px"
	 viewBox="0 0 750.2000122 400.1000061" style="enable-background:new 0 0 750.2000122 400.1000061;" xml:space="preserve">
<path d="M299.7000122,162.8999939c-1.2999878-1.1000366-3.2000122-2.7999878-5.4000244-5.2999878v3.3999634H110v-2.7000122
	c-2.5,2.7000122-4.5999756,4.4000244-5.7999878,5.2000122l0.0999756,189.7000122c0.1000366,0,0.2000122,0,0.2999878,0v0.0999756
	c0,0.1000366,2.3000488,0.2000122,6.3000488,0.4000244l-0.1000366-12.7999878h182.8000488L293.5,353.5000305
	c4-0.1000366,6.2999878-0.2000122,6.2999878-0.2000122l-0.2000122-81.3000488L299.7000122,162.8999939z M293.6000366,319.3999939
	v3.8999634L293.5,337.0999451H110.7999878l-0.0999756-13.7999878v-3.8999634l-0.1000366-13.7999878h183.1000366
	L293.6000366,319.3999939z M293.7999878,284.1999817v3.9000244l-0.0999756,13.5h-183l-0.1000366-13.5v-3.9000244L110.5,270.3999939
	h183.4000244L293.7999878,284.1999817z M293.9000244,249.1000061v3.8999634l-0.1000366,13.5H110.5l-0.0999756-13.5v-3.8999634
	l-0.1000366-13.7999878H294L293.9000244,249.1000061z M294.1000366,213.8999939v3.9000244l-0.1000366,13.5H110.2999878v-13.5
	v-3.9000244l-0.0999756-13.7999878h184L294.1000366,213.8999939z M294.2999878,178.8000183v3.8999634l-0.0999756,13.5h-184
	l-0.1000366-13.5v-3.8999634L110,164.9999695h184.4000244L294.2999878,178.8000183z"/>
<path d="M643.0999146,271.6999817l0.1000977-108.3999634c-1.2000122-0.8000488-3.2999878-2.4000244-5.7000122-5
	l-0.9000244,197.5999756c4.2000122-1.7999878,6.5999756-2.8999634,6.5999756-2.8999634l0.0999756-81.3000488H643.0999146z"/>
<path d="M447.6000366,162.8000183l0.0999756,190.2999878c0,0,0.1000366,0,0.2000122,0v0.0999756
	c0.1000366,0,0.2999878,0.1000366,0.6000366,0.1000366c0,0,1.8999634,1,5.3999634,2.5999756L453,157.6000061
	C450.7999878,160.1000061,448.9000244,161.8000183,447.6000366,162.8000183z"/>
</svg>
