<?xml version="1.0" encoding="utf-8"?>
<!-- Generator: Adobe Illustrator 25.3.0, SVG Export Plug-In . SVG Version: 6.00 Build 0)  -->
<svg version="1.1" id="Layer_1" xmlns="http://www.w3.org/2000/svg" xmlns:xlink="http://www.w3.org/1999/xlink" x="0px" y="0px"
	 viewBox="0 0 750.2000122 400.1000061" style="enable-background:new 0 0 750.2000122 400.1000061;" xml:space="preserve">
<g>
	<path d="M112.1999512,114.8998566c-0.0998535,3.2001953-0.0998535,6.6000977-0.1999512,10.1000977
		c-0.3999023,11.7001953-2.3000488,17.8000488-3.8999023,20.8000488c-0.6721802,1.3441772-1.4560547,2.4639282-2.3095703,3.2786865
		h75.9638672c0.6903687-11.2842407,0.980896-25.2623291-0.2340088-38.861084h-69.243103
		C112.2463989,111.7819366,112.2226562,113.3338776,112.1999512,114.8998566z"/>
	<path d="M220.0551147,110.2176056h-31.2173462c1.770752,13.6665039,2.0908203,27.6074829,1.9005127,38.861084h27.4064941
		C217.956604,137.8269196,218.2792969,123.8868561,220.0551147,110.2176056z"/>
	<path d="M298.9835815,149.0786896c-0.7729492-0.8061523-1.4801025-1.812561-2.1835327-3.0787354
		c-1.5-3-3.4000244-9.1000977-3.9000244-20.8000488c-0.0999756-3.5998535-0.2000732-6.8999023-0.2000732-10.0998535
		c-0.0233765-1.6385498-0.0475464-3.2556763-0.079895-4.8824463h-65.2598877
		c-1.2145996,13.5988159-0.9245605,27.5767822-0.2340088,38.861084H298.9835815z"/>
</g>
</svg>
