<?xml version="1.0" encoding="utf-8"?>
<!-- Generator: Adobe Illustrator 25.3.0, SVG Export Plug-In . SVG Version: 6.00 Build 0)  -->
<svg version="1.1" id="Layer_1" xmlns="http://www.w3.org/2000/svg" xmlns:xlink="http://www.w3.org/1999/xlink" x="0px" y="0px"
	 viewBox="0 0 750.2000122 400.1000061" style="enable-background:new 0 0 750.2000122 400.1000061;" xml:space="preserve">
<path d="M112.2788696,110.1284332h69.2331543c-0.0870972-0.9701538-0.1833496-1.9376221-0.2862549-2.90271H112.347168
	C112.3198853,108.2033234,112.2980347,109.1683502,112.2788696,110.1284332z"/>
<path d="M227.3679199,110.1284332h65.2505493c-0.0192871-0.9616089-0.0415039-1.927002-0.0690918-2.90271h-64.8969116
	C227.5495605,108.1906281,227.4550171,109.1584625,227.3679199,110.1284332z"/>
<path d="M188.8260498,110.1284332h31.2409668c0.1264038-0.9694824,0.2608643-1.9371338,0.4022827-2.90271h-32.0427856
	C188.5675049,108.1911163,188.6999512,109.1590729,188.8260498,110.1284332z"/>
<path d="M300.1355591,151.9813995L300,149.9999542c-0.355896-0.2669067-0.6904907-0.5813599-1.0164185-0.9212646h-71.8574219
	c0.0604858,0.9888916,0.1237793,1.9572754,0.1896973,2.90271H300.1355591z"/>
<path d="M218.1447754,149.0786896h-27.4064941c-0.0167236,0.9891968-0.0371704,1.9571533-0.0611572,2.90271h27.5284424
	C218.1817627,151.0355377,218.1613159,150.0681915,218.1447754,149.0786896z"/>
<path d="M105.7905273,149.0786896c-0.2894897,0.2763062-0.5866089,0.5186768-0.8905029,0.7213135l-0.1511841,2.1813965h76.8163452
	c0.0657959-0.944458,0.1287842-1.9147949,0.189209-2.90271H105.7905273z"/>
</svg>
