<?xml version="1.0" encoding="utf-8"?>
<!-- Generator: Adobe Illustrator 25.3.0, SVG Export Plug-In . SVG Version: 6.00 Build 0)  -->
<svg version="1.1" id="Layer_1" xmlns="http://www.w3.org/2000/svg" xmlns:xlink="http://www.w3.org/1999/xlink" x="0px" y="0px"
	 viewBox="0 0 750.2000122 400.1000061" style="enable-background:new 0 0 750.2000122 400.1000061;" xml:space="preserve">
<path d="M110.8845215,190.6236877c2.4039917,67.3476562,5.5475464,125.288147,10.7953491,163.9979858
	c1.8572998,0.1015625,3.8228149,0.2080078,5.8834229,0.3196411c-7.9755859-38.8441772-14.0518799-97.6708984-16.678772-164.7803955
	V190.6236877z"/>
<path d="M293.5615234,207.2187805c-2.3060303,47.1799927-6.3270874,89.5599976-11.4871826,122.7849121
	c0.0581665,0.0636597,0.0938721,0.1019287,0.0985107,0.1068726l0.1337891,0.1425781l-1.1412964,5.4265747
	c-1.1276855,6.8533936-2.3053589,13.2803345-3.5279541,19.2366333c2.0579224-0.1119995,4.027771-0.2203979,5.8823242-0.3233643
	c4.7174072-34.8134155,7.7340088-85.1714478,10.0418091-143.9332275V207.2187805z"/>
<path d="M465.1693726,355.5749817c2.3294678,0.5582886,4.736084,1.2208862,7.2191162,1.9563599
	c-9.6341553-37.9970703-17.0633545-103.9405518-19.9900513-180.494812l0.0044556,0.4337158
	C455.0915527,253.2511902,458.7005005,317.2644348,465.1693726,355.5749817z"/>
<path d="M639.6504517,188.2418518c-3.1481323,70.6303711-10.1412964,131.2136841-19.0953979,167.5545654
	c2.3647461-0.5477295,4.6862793-0.9957275,6.9707642-1.3143921c5.9614868-36.0524902,9.4690552-94.1867065,12.0791626-163.2226562
	L639.6504517,188.2418518z"/>
</svg>
