<?xml version="1.0" encoding="utf-8"?>
<!-- Generator: Adobe Illustrator 25.3.0, SVG Export Plug-In . SVG Version: 6.00 Build 0)  -->
<svg version="1.1" id="Layer_1" xmlns="http://www.w3.org/2000/svg" xmlns:xlink="http://www.w3.org/1999/xlink" x="0px" y="0px"
	 viewBox="0 0 750.2000122 400.1000061" style="enable-background:new 0 0 750.2000122 400.1000061;" xml:space="preserve">
<g>
	<path d="M300.1001587,353.6000671l0.1999512-106.8000488c0.0999756,0,0.1999512,0,0.3000488,0.0998535v-4.5998535
		l0.1999512-71.3000488c0-0.3999023,0.1999512-0.6999512,0.5999756-0.8999023l-0.0999756-1.1000977l-1.3001099-19
		c-1.1999512-0.8999023-2.1999512-2.1999512-3.1999512-4c-1.1022339-2.2044678-2.4185181-6.0934448-3.2385254-12.6375732
		v220.6638794c1.5418701-0.0882568,2.87146-0.164856,3.9385376-0.2262573
		C298.7000122,353.7001648,299.6001587,353.7001648,300.1001587,353.6000671z"/>
	<path d="M110.8845215,136.6626282c-0.7843628,4.4779053-1.8360596,7.3590088-2.7844238,9.1373901
		c-0.9001465,1.8000488-2,3.1999512-3.2000732,4L103.5,169.9999695l-0.0716553,0.0829468l0.1716309,0.0171509
		c0.2000732,0,0.3000488,0.0998535,0.5,0.1999512c0.2000732,0.1999512,0.3000488,0.5,0.3000488,0.8000488l0.0999756,76.5
		l0.3000488,0.0998535l0.0999756,105.9001465c0.5,0,1.4000244,0.1000977,2.5999756,0.1999512
		c0.9467773,0.0473633,2.0791626,0.1175537,3.3845215,0.1990967V136.6626282z"/>
	<path d="M452.0083008,138.8611755c-0.706665,3.1387329-1.5412598,5.3006592-2.3083496,6.7388916
		c-0.5998535,1.0998535-0.7999268,1.7998047-1,2.1999512c-0.1999512,0.3999023-0.1999512,0.5998535-0.5,0.8999023
		l0.2000732,21.1999512l-0.7999268,183.3000488c0.0999756,0,0.2999268,0.1000977,0.5999756,0.1000977
		c0.9000244,0.0998535,2.5999756,0.3000488,5.9000244,0.5c0.0346069,0.0019531,0.0703125,0.0062866,0.1049194,0.0083008
		L452.0083008,138.8611755z"/>
	<path d="M643.000061,193.6000671l0.2000122-1c1-18.9001465,1.2000122-21.5,1.2999878-22c0,0,0,0,0-0.1000977c0,0,0,0,0-0.1000977
		v-0.2998047h0.2999878c0.0999756-0.1000977,0.2999878-0.1000977,0.4000244-0.2001953l1.9000244-21.3999023
		c0.0999146,0.1999512-0.0001221,0-0.1000977-0.3999023s-0.4000244-1-1-2.2001953
		c-1.1535034-2.3070068-2.5410767-6.4597168-3.3491211-13.5701904l-2.7542114,39.5678101l-2.7388306,181.807373
		c3.6270142-0.2557373,5.1266479-0.4575195,5.6422119-0.6047974L643.000061,193.6000671z"/>
</g>
</svg>
