<?xml version="1.0" encoding="utf-8"?>
<!-- Generator: Adobe Illustrator 25.3.0, SVG Export Plug-In . SVG Version: 6.00 Build 0)  -->
<svg version="1.1" id="Layer_1" xmlns="http://www.w3.org/2000/svg" xmlns:xlink="http://www.w3.org/1999/xlink" x="0px" y="0px"
	 viewBox="0 0 750.20001 400.10001" style="enable-background:new 0 0 750.20001 400.10001;" xml:space="preserve">
<g>
	<path d="M111,62.9c-0.3,1.1-0.6,2.3-1,3.8c-1,4.5-2.1,16.3-2.7,23.4l-0.2,2.3c-0.8,8.8-0.9,15.4-1,22.4c0,3.2-0.1,6.5-0.2,10.1
		c-0.3,9-1.5,14.5-2.7,18l0.7,6.3l0.2-0.10001c1.1-0.7,2.1-2,3-3.8c1.5-3,3.3-8.89999,3.7-20.4c0.1-3.6,0.2-6.9,0.2-10.1
		c0.1-7,0.2-13.6,1-22.4l0.2-2.3c0.6-7.1,1.7-18.9,2.7-23.4c0.6-2.5,1.1-4.4,1.6-5.9C114.6,61.5,112.8,62.2,111,62.9z"/>
</g>
<g>
	<path d="M453,63.6c-0.29999,1.1-0.60001,2.3-1,3.8c-1,4.5-2.5,15.6-3.10001,22.7l-0.20001,2.3c-0.79999,8.8-0.89999,15.4-1,22.4
		c0,3.2-0.10001,6.5-0.20001,10.1c-0.29999,9-1.5,14.5-2.70001,18l0.70001,6.3l0.20001-0.10001c1.10001-0.7,2.10001-2,3-3.8
		c1.5-3,3.29999-8.89999,3.70001-20.4c0.10001-3.6,0.20001-6.9,0.20001-10.1c0.10001-7,0.20001-13.6,1-22.4l0.20001-2.3
		c0.60001-7.1,2.10001-17,3.10001-21.5c0.60001-2.5,2-5.6,2.60001-7.1C457.70001,62.2,454.79999,62.9,453,63.6z"/>
</g>
<g>
	<path d="M642.90002,64.1c0.29999,1.1,0.59998,2.3,1,3.8c1,4.5,2.5,15.6,3.09998,22.7l0.20001,2.3c0.79999,8.8,0.90002,15.4,1,22.4
		c0,3.2,0.09998,6.5,0.20001,10.1c0.29999,9,1.5,14.5,2.70001,18l-0.70001,6.3l-0.20001-0.10001c-1.09998-0.7-2.09998-2-3-3.8
		c-1.5-3-3.29999-8.89999-3.70001-20.4c-0.09998-3.6-0.20001-6.9-0.20001-10.1c-0.09998-7-0.20001-13.6-1-22.4l-0.20001-2.3
		C641.5,83.5,640,73.6,639,69.1c-0.59998-2.5-2-5.6-2.59998-7.1C638.20001,62.7,641,63.4,642.90002,64.1z"/>
</g>
<g>
	<path d="M294.20001,62.9c0.29999,1.1,0.60001,2.3,1,3.8c1,4.5,2.10001,16.3,2.70001,23.4l0.20001,2.3
		c0.79999,8.8,0.89999,15.4,1,22.4c0,3.2,0.10001,6.5,0.20001,10.1c0.29999,9,1.5,14.5,2.70001,18l-0.70001,6.3l-0.20001-0.10001
		c-1.10001-0.7-2.10001-2-3-3.8c-1.5-3-3.29999-8.89999-3.70001-20.4c-0.10001-3.6-0.20001-6.9-0.20001-10.1
		c-0.10001-7-0.20001-13.6-1-22.4L293,90.1c-0.60001-7.1-1.70001-18.9-2.70001-23.4c-0.60001-2.5-1.10001-4.4-1.60001-5.9
		C290.5,61.5,292.29999,62.2,294.20001,62.9z"/>
</g>
</svg>
