<?xml version="1.0" encoding="utf-8"?>
<!-- Generator: Adobe Illustrator 25.3.0, SVG Export Plug-In . SVG Version: 6.00 Build 0)  -->
<svg version="1.1" id="Layer_1" xmlns="http://www.w3.org/2000/svg" xmlns:xlink="http://www.w3.org/1999/xlink" x="0px" y="0px"
	 viewBox="0 0 750.2000122 400.1000061" style="enable-background:new 0 0 750.2000122 400.1000061;" xml:space="preserve">
<g>
	<path d="M153.5999756,64.3000183l-0.4000244-0.1999512c-0.0999756-0.1000977-0.1999512-0.1000977-0.2999268-0.2001953
		L152.5,63.6999207c-2.1999512-1.1999512-4.0999756-2.3999023-5.8999023-3.5
		c-1.8000488-1.0998535-3.4001465-2.0998535-4.8000488-2.8999023c-3.7958984-2.0244751-6.3583984-2.4844971-7.9674072-2.434021
		l-2.3729858,0.7335815c-0.119873,0.071228-0.2640381,0.114502-0.4143066,0.1280518l-4.6555786,1.43927
		c-2.9015503,1.0256348-5.7373047,2.0547485-8.5018311,3.0869751c-0.5742188,1.8100586-1.2246094,3.8417969-1.7879639,6.8461914
		c-0.4907837,2.1593628-0.9813232,6.1035767-1.4366455,10.3856201l40.3134766-12.4625244
		C154.5162964,64.7840271,154.0449829,64.5503235,153.5999756,64.3000183z"/>
	<path d="M273.5029297,54.9578552c-1.5872803-0.0932007-4.2509155,0.2710571-8.3029785,2.3421631
		c-1.3999023,0.8000488-3,1.6999512-4.7999268,2.8999023c-2,1.3000488-4.4000244,2.6999512-7,4.1000977l-1.3909912,0.7068481
		l38.168457,11.7994385c-0.4418945-3.9562378-0.9199219-7.5475464-1.3774414-9.6063843
		c-0.7000732-3.1999512-1.3000488-5.3000488-2.1000977-7l-0.0163574-0.114502
		c-4.1135254-1.5354004-8.3701172-3.0649414-12.7835693-4.5854492l0.0789795-0.3949585L273.5029297,54.9578552z"/>
</g>
</svg>
