<?xml version="1.0" encoding="utf-8"?>
<!-- Generator: Adobe Illustrator 25.3.0, SVG Export Plug-In . SVG Version: 6.00 Build 0)  -->
<svg version="1.1" id="Layer_1" xmlns="http://www.w3.org/2000/svg" xmlns:xlink="http://www.w3.org/1999/xlink" x="0px" y="0px"
	 viewBox="0 0 750.2 400.1" style="enable-background:new 0 0 750.2 400.1;" xml:space="preserve">
<g>
	<polygon points="196.8,217.9 196.8,217.8 181.4,236.2 197,236.2 197,217.9 	"/>
	<polygon points="196.9,199.8 196.9,160.6 164.2,160.6 	"/>
	<polygon points="241.6,217.9 241.6,217.9 241.6,217.9 	"/>
	<polygon points="241.6,217.9 226.3,236.2 241.6,236.2 	"/>
	<polygon points="244.3,221 244.3,214.7 241.6,217.9 241.7,217.9 	"/>
	<polygon points="174.5,217.9 166.8,217.9 166.8,200 159.9,208.3 159.9,227 167.6,236.2 174.5,236.2 	"/>
	<polygon points="181.7,200 166.8,200 181.7,217.9 	"/>
	<polygon points="196.6,217.7 196.6,200 181.7,217.9 196.6,217.9 	"/>
	<polygon points="196.8,200 211.7,217.9 211.7,200 	"/>
	<polygon points="226.6,217.9 226.6,200 211.7,217.9 197.1,217.9 212.4,236.2 219.3,236.2 219.3,217.9 	"/>
	<polygon points="241.5,200 226.6,200 241.5,217.9 	"/>
	<polygon points="163.3,199.8 163.3,160.6 162.4,160.6 159.9,163.6 159.9,199.8 	"/>
	<polygon points="230.6,160.6 229.6,160.6 197,199.7 230.6,199.7 	"/>
	<polygon points="231.6,160.6 244.3,175.8 244.3,160.6 	"/>
</g>
</svg>
