<?xml version="1.0" encoding="utf-8"?>
<!-- Generator: Adobe Illustrator 25.3.0, SVG Export Plug-In . SVG Version: 6.00 Build 0)  -->
<svg version="1.1" id="Layer_1" xmlns="http://www.w3.org/2000/svg" xmlns:xlink="http://www.w3.org/1999/xlink" x="0px" y="0px"
	 viewBox="0 0 750.2 400.1" style="enable-background:new 0 0 750.2 400.1;" xml:space="preserve">
<g>
	<path d="M166.3,234.3h-6.4v1.9h44.5v-0.1c0-0.3-0.3-0.6-0.7-0.6h-36.5v-0.4C167.2,234.7,166.8,234.3,166.3,234.3z"/>
	<path d="M240.4,236.1L240.4,236.1l3.9,0.1v-0.7h-3.2C240.7,235.5,240.4,235.8,240.4,236.1z"/>
	<path d="M166.2,225.8h-6.3v5.8h6.3c0.5,0,0.9-0.4,0.9-0.8v-0.4h36.5c0.4,0,0.7-0.3,0.7-0.6v-0.3h36v0.3c0,0.3,0.3,0.6,0.7,0.6h3.3
		V227H241c-0.4,0-0.7,0.3-0.7,0.6v0.5h-36v-0.5c0-0.3-0.3-0.6-0.7-0.6h-36.5v-0.4C167.1,226.2,166.7,225.8,166.2,225.8z"/>
	<path d="M166.2,217.3h-6.3v5.8h6.4c0.5,0,0.9-0.4,0.9-0.8v-0.4h36.5c0.4,0,0.7-0.3,0.7-0.6V221h36v0.3c0,0.3,0.3,0.6,0.7,0.6h3.2
		v-3.4h-3.2c-0.4,0-0.7,0.3-0.7,0.6v0.5h-36v-0.5c0-0.3-0.3-0.6-0.7-0.6h-36.5v-0.4C167.1,217.7,166.7,217.3,166.2,217.3z"/>
	<path d="M166.1,208.8h-6.2v5.8h6.2c0.5,0,0.9-0.4,0.9-0.8v-0.4h36.5c0.4,0,0.7-0.3,0.7-0.6v-0.3h36v0.3c0,0.3,0.3,0.6,0.7,0.6h3.4
		V210h-3.4c-0.4,0-0.7,0.3-0.7,0.6v0.5h-36v-0.5c0-0.3-0.3-0.6-0.7-0.6H167v-0.4C167,209.2,166.6,208.8,166.1,208.8z"/>
	<path d="M170.8,160.6v0.3h-10.9v1.4h10.9v0.3c0,0.3,0.3,0.6,0.7,0.6h34.4v0.4c0,0.4,0.4,0.8,0.9,0.8h34.4c0.5,0,0.9-0.4,0.9-0.8
		v-0.4h2.2v-2.6H170.8z"/>
	<path d="M170.8,201.8h-10.9v3.4h10.9c0.4,0,0.7-0.3,0.7-0.6v-0.3h32.1v0.3c0,0.3,0.3,0.6,0.7,0.6h34.4v0.4
		c-0.1,0.4,0.3,0.8,0.8,0.8h4.8v-5.8h-4.7c-0.5,0-0.9,0.4-0.9,0.8v0.4h-34.4c-0.4,0-0.7,0.3-0.7,0.6v0.5h-32.1v-0.5
		C171.5,202.1,171.2,201.8,170.8,201.8z"/>
	<path d="M170.8,193.3h-10.9v3.4h11c0.4,0,0.7-0.3,0.7-0.6v-0.3h32.1v0.3c0,0.3,0.3,0.6,0.7,0.6h34.4v0.4c-0.2,0.5,0.2,0.8,0.7,0.8
		h4.8v-5.8h-4.7c-0.5,0-0.9,0.4-0.9,0.8v0.4h-34.4c-0.4,0-0.7,0.3-0.7,0.6v0.5h-32.1v-0.5C171.5,193.6,171.2,193.3,170.8,193.3z"/>
	<path d="M170.8,184.8h-10.9v3.4h10.6c0.4,0,0.7-0.3,0.7-0.6v-0.3h32.1v0.3c0,0.3,0.3,0.6,0.7,0.6h34.4v0.4c0,0.4,0.4,0.8,0.9,0.8h5
		v-5.8h-4.7c-0.5,0-0.9,0.4-0.9,0.8v0.4h-34.4c-0.4,0-0.7,0.3-0.7,0.6v0.5h-32.1v-0.5C171.5,185.1,171.2,184.8,170.8,184.8z"/>
	<path d="M170.8,176.4h-10.9v3.3h10.7c0.4,0,0.7-0.3,0.7-0.6v-0.3h32.1v0.3c0,0.3,0.3,0.6,0.7,0.6h34.4v0.4c0,0.4,0.4,0.8,0.9,0.8
		h4.9v-5.8h-4.7c-0.5,0-0.9,0.4-0.9,0.8v0.4h-34.4c-0.4,0-0.7,0.3-0.7,0.6v0.5h-32.1V177C171.5,176.7,171.2,176.4,170.8,176.4z"/>
	<path d="M170.9,167.9h-11v3.4h10.8c0.4,0,0.7-0.3,0.7-0.6v-0.3H203v0.3c0,0.3,0.3,0.6,0.7,0.6h34.9v0.4c0,0.4,0.4,0.8,0.9,0.8h4.8
		v-5.8h-4.6c-0.5,0-0.9,0.4-0.9,0.8v0.4h-34.9c-0.4,0-0.7,0.3-0.7,0.6v0.5h-31.6v-0.5C171.6,168.2,171.3,167.9,170.9,167.9z"/>
</g>
</svg>
