<?xml version="1.0" encoding="utf-8"?>
<!-- Generator: Adobe Illustrator 25.3.0, SVG Export Plug-In . SVG Version: 6.00 Build 0)  -->
<svg version="1.1" id="Layer_1" xmlns="http://www.w3.org/2000/svg" xmlns:xlink="http://www.w3.org/1999/xlink" x="0px" y="0px"
	 viewBox="0 0 750.2 400.1" style="enable-background:new 0 0 750.2 400.1;" xml:space="preserve">
<g>
	<path d="M231.8,166.9c-1.9-0.8-3.8-1-5.8-0.7c-1.1,0.2-2.3,0-3.2-0.8c-2.4-2-4.9-1.9-7.4-0.5c-3.1,1.8-6.2,1.7-9.4,0.4
		c-2.5-1-4.9-2.2-7.3-3.3c-0.8-0.4-1.5-0.8-2.2-1.4h-36.6v7.5c0.4,0.1,0.7,0.3,1.1,0.4c2.4,0.8,4.9,1.6,7.4,1.3
		c0.7-0.1,1.5-0.1,1.8-0.7c0.5-1.5,1.5-1.1,2.5-1c3.1,0.5,6.2,0.8,9.2,0c2.5-0.7,4.3-2.2,5.1-5c0.8-2.8,1.5-3,4-1.7
		c4.6,2.4,9.3,4.6,14.5,5.2c2.1,0.2,4.3,0.3,6.4,0.5c3.7,0.3,6.1,3.2,6,7.2c-0.1,1.9-0.6,3.8-1.4,5.5c-1.6,3.2-4,4.2-7.3,3.2
		c-3.4-1-6.3-2.9-9.3-4.9c-4.1-2.7-8.5-3.9-13.1-2.3c-9.2,3.1-17.8,1.1-26.4-2.8c-0.2-0.1-0.3-0.2-0.5-0.2v6c4.6,1.5,9.2,2.4,14,1.8
		c1.7-0.2,3.3-0.1,5-0.1c0.7,0,1.3,0.2,1.7,0.9c0.4,0.8,0,1.4-0.5,1.9c-0.7,0.8-1.3,1.7-1.7,2.7c3.9,1.3,7.7,2.8,10.5,6.3
		c0.7,0.9,1.2,2,1.5,3.2c0.3,1.6-0.3,2.5-1.8,2.8c-1.3,0.2-2.6-0.2-3.9-0.5c-1.8-0.5-3.5-0.9-5.4-0.9c-2,0-3.2,1-3.4,2.9
		c-0.2,1.4,0.5,2.3,2.5,2.9c2,0.6,4.1,1,6.1,1.4c1.3,0.3,2.5,0.9,3.4,2c2.1,2.3,1.4,4.9-1.5,5.6c-1.8,0.5-3.6,0.4-5.5,0.2
		c-4-0.6-7.9-1.3-11.8-2c0-0.2,0-0.3,0-0.4c0.6-0.5,1.4-0.8,1.2-1.7c-0.2-1-1.1-1.2-1.9-1.3c-1-0.2-1.9,0.2-2.8,0.6
		c-1.4,0.6-2.7,0.5-3.7-0.6c-0.6-0.7-1.3-1.3-2-1.8v16.8c1.1,0.6,2.1,1.4,3.2,2.1c2.8,1.7,5.8,3.1,9.1,3.4c0.8-1.5,1.6-3,2.6-4.4
		c1.8-2.3,4.1-3.1,6.8-2.6c0.9,0.2,1.8,0.5,2.6,0.8c2,0.8,3.8,0.6,5.4-0.9c0.2-0.2,0.6-0.5,0.8-0.4c2,1,3-0.7,4.3-1.6
		c0.5-0.3,0.8-0.8,1.3-1.2c1.5-1.4,2.5-1.4,4.2-0.3c1.6,1.1,2.8,2.7,3.9,4.3c1.3,1.8,2.5,3.7,4.2,5.1c2.6,2.3,4.8,2.1,7-0.7
		c1-1.3,2-2.6,2.9-4c1.9-3,4.4-4,7.6-3.2c0.6,0.2,1.2,0.3,1.8,0.4c1,0,2-0.3,2.9-0.8c2.7-1.3,5.2-1.1,7.6,0.7
		c0.4,0.3,0.9,0.7,1.5,0.7c0.3-1.4,1.3-1.8,2.5-1.9c0.7,0,1.5,0,2.2,0.1v-27.5c-0.2-0.4-0.4-0.8-0.5-1.3c-0.5-1.8-0.2-3.8,0.5-5.5
		v-11.9c-2.9-1.8-6-3.4-9.1-4.6C234.2,167.3,233,167.4,231.8,166.9z"/>
	<path d="M239.6,160.6c1.1,0.5,2.3,0.6,3.6,0.3c0.4-0.1,0.7-0.1,1.1-0.2v-0.1H239.6z"/>
	<path d="M236.8,230.8c-4.4-0.9-7.9,0.7-10.7,4.5c-0.2,0.3-0.5,0.6-0.7,0.9h18.9v-7.9C242.3,230.5,239.9,231.4,236.8,230.8z"/>
	<path d="M194.9,229c-0.7,1-1.1,2-1.4,3.2c2,1.5,6.5,1.3,7.9-0.2c-0.7-1.3-1.4-2.5-2.4-3.5C197.5,227.1,196.1,227.3,194.9,229z"/>
</g>
</svg>
