<?xml version="1.0" encoding="utf-8"?>
<!-- Generator: Adobe Illustrator 25.3.0, SVG Export Plug-In . SVG Version: 6.00 Build 0)  -->
<svg version="1.1" id="Layer_1" xmlns="http://www.w3.org/2000/svg" xmlns:xlink="http://www.w3.org/1999/xlink" x="0px" y="0px"
	 viewBox="0 0 750.2 400.1" style="enable-background:new 0 0 750.2 400.1;" xml:space="preserve">
<polygon points="241.8,188.9 237.6,197.4 240,197.4 244.3,188.7 244.3,183.5 218.4,196 225.9,160.6 222.1,160.6 214.4,197.4 
	224,197.4 "/>
<polygon points="164.9,192.5 160.3,182.2 159.9,182.9 159.9,190.7 160,190.5 163.1,197.4 164.8,197.4 164.8,201.2 180.4,236.2 
	184.4,236.2 167.1,197.5 164.9,197.5 "/>
<polygon points="209,236.2 209,234.1 206.3,235.4 191.8,203.2 193,197.5 189.3,197.5 185.3,197.5 202.6,236.2 "/>
<polygon points="174.4,163.5 175,160.6 172.8,160.6 174,163.3 "/>
<polygon points="215.3,235.1 219.3,234.6 220.1,232.8 "/>
<polygon points="178.8,160.6 176.9,169.7 189.3,197.5 197.1,160.6 "/>
<polygon points="209,234.1 222.7,227.5 237.6,197.4 224,197.4 213.3,202.5 214.4,197.4 209.1,197.4 209.1,160.6 200.8,160.6 
	193,197.5 209,197.5 "/>
<polygon points="231.7,236.2 244.3,210.6 244.3,197.4 240,197.4 220.8,236.2 "/>
<polygon points="244.3,236.2 244.3,215.5 234.1,236.2 "/>
<polygon points="167.1,197.5 185.3,197.5 168.8,160.6 164.9,160.6 164.9,192.5 "/>
<polygon points="159.9,197.4 159.9,236.2 164.8,236.2 164.8,201.2 163.1,197.4 "/>
</svg>
