<?xml version="1.0" encoding="utf-8"?>
<!-- Generator: Adobe Illustrator 25.3.0, SVG Export Plug-In . SVG Version: 6.00 Build 0)  -->
<svg version="1.1" id="Layer_1" xmlns="http://www.w3.org/2000/svg" xmlns:xlink="http://www.w3.org/1999/xlink" x="0px" y="0px"
	 viewBox="0 0 750.2 400.1" style="enable-background:new 0 0 750.2 400.1;" xml:space="preserve">
<g>
	<path d="M242.7,178.8c0.2,2.5-1.1,3.2-3.4,2.8c0.4,1.6,0.1,2.6-1.9,2.7c-8,0.5-15.9,0.5-23.8,0.1c-0.2,0-0.3,0-0.5-0.1
		c-0.2,0-0.3,0-0.5,0c-0.6,0-1.1,0.1-1.7,0.1c-0.6,0.5-1.2,0.3-1.8,0.2c-0.7,1.2-0.1,2.5-0.3,3.7c-0.1,0.8,0.5,2-1.2,1.9
		c-1.1,0-1.8-0.3-1.6-1.5c0.2-1.1-0.5-1.3-1.5-1.4c-1.1,0-1.5,0.4-1.3,1.4c0.2,1.3-0.6,1.5-1.7,1.5c-0.9,0-1.8,0-2.7-0.1
		c-2.4-0.1-4.9-0.4-7.3,0c-1.2,0.2-2.3,1.7-3.5-0.1c-1,0.2-1.9,0.3-2.9,0c-0.9,0-1.8,0.1-2.7,0.1c0,0.9,2.5,0.6,1.1,2.4
		c-0.3,0.3,0.8,0.3,1.3,0.3c6.7,0,13.4,0.1,20.1,0.1c11.1,0,22.3,0,33.4,0.1c2,0,4,0,6,0v-14.2C243.8,178.8,243.1,178.9,242.7,178.8
		z"/>
	<path d="M170.9,215.2c-3.7,0-7.3,0-11,0v2.8c3.5,0,7.1,0,10.6,0c0.9,0,2.2-0.5,2.1,1.2c-0.1,2.6,1.8,1.5,2.9,1.5
		c1.1,0,3,0.9,2.7-1.6c-0.1-1.1,0.6-1.1,1.4-1.1c0.8,0,1.5,0,1.4,1.1c-0.3,2,1,1.7,2.2,1.7c10.6,0,21.2,0,31.8,0
		c9.8,0,19.5,0,29.3,0v-5.6C219.9,215.3,195.3,215.2,170.9,215.2z"/>
	<path d="M226,209.4c-2.1,0.5-4.1,0.5-6.2,0c-0.7,0-1.4,0-2.1,0c-0.3,0.2-0.5,0.3-0.8,0c-0.7,0.1-1.3,0.1-2,0.2
		c-1.1,0.5-2.2,2.4-3.5,0.3c-0.1,0-0.2,0.1-0.3,0.2c0.9,1.6-0.4,1.2-1.1,1.4c0.2,0.2,0.4,0.4,0.6,0.7c2.9,0.1,5.8,0.3,8.7,0.3
		c8.4,0,16.7,0,25,0v-2.7c-4.2,0-8.4-0.1-12.6-0.4C229.8,209.4,227.9,209.4,226,209.4z"/>
	<path d="M214.6,160.6c0,0.3,0,0.7-0.1,1c0.4,0.1,0.7,0.1,1.1,0.2c5.3-0.5,10.7-0.2,16-0.2c0.9,0.4,2.5-0.2,2.3,1.8
		s-1.7,1.3-2.7,1.3c-3.7,0.1-7.3,0-11,0c0.1,2,0.9,2.8,2.7,2.7c2-0.1,4,0.1,6,0.1c0.5,0,1.1,0,1.6-0.1c4.6,0,9.2,0,13.8,0.1v-6.9
		H214.6z"/>
	<path d="M233.9,174.1c0,1.1,0.2,1.8,1.5,1.6c1.1-0.1,1.4,0.5,1.3,1.5c-0.1,1.2,0.6,1.4,1.5,1.3c1.4-0.1,2.8-0.1,4.3-0.1
		c-0.1-1.5,0.2-2.4,1.8-2.6v-2.9c-2.8,0-5.7,0-8.5,0C235,172.9,233.9,172.5,233.9,174.1z"/>
	<path d="M242.7,178.6c0,0,0,0-0.1-0.1C242.6,178.6,242.7,178.6,242.7,178.6z"/>
	<path d="M212.8,195.2c-1.4-0.1-3,0.3-4.5,0.2c-9.1,0.1-18.2,0.1-27.3,0.2c-0.1,0.9-0.2,1.8-0.3,2.7c6.7,1.3,13.4-0.1,20.1,0
		c8.8,0.1,17.5-0.2,26.3,0.1c4.2,0.2,8.3-0.3,12.5-0.1c1.6,0.2,3.1,0.2,4.7,0.2v-3c-1.6,0-3.3,0-4.9,0
		C230.5,195.1,221.7,195.9,212.8,195.2z"/>
	<path d="M164.3,206.9c0.4-0.1,0.9-0.1,1.3-0.2c0.3,0,0.6,0,0.9,0c2.1-0.3,4.2-0.1,6.3,0c1,0.1,1.9,0.1,2.9,0.2
		c0.5-0.4,0.9-0.5,1.3,0c0.9-0.1,1.8-0.1,2.6-0.2c3.9-0.4,7.8-0.4,11.7,0c1-0.4,2,0,3.1,0.1c4.4-0.7,8.9-0.3,13.3-0.2
		c1.5,0,3-0.6,4.4,0.3c0.3,0,0.6,0,0.9,0c0.2,0,0.4-0.1,0.5-0.1c0.6-0.2,1.2-0.4,1.9,0c1.9,0,3.9-0.1,5.8-0.1c1-0.2,2.1-0.6,3.1,0.1
		c3.1,0.1,6.1,0.2,9.2,0.2c-0.8-2-3.1-2.1-4.5-3.2c-0.3,0-0.6,0-0.9,0c-0.7,0.2-1.5,0.3-2.2,0.5c0-0.2,0-0.4,0.1-0.6
		c0-0.9,0-1.8-0.1-2.7c-0.9,0-1.9,0-2.8,0c-0.3,0.9,0.9,2.5-0.9,2.8c-2.8,0.5-1.5-1.7-1.7-2.8c-2.5-0.8-2.6,1.4-3.2,2.8
		c-17.9,0-35.8,0.1-53.7,0.1c-1.2,0-2.5,0-3.7,0v2.7c0.8,0.1,1.7,0.2,2.5,0.3C163,206.9,163.7,206.9,164.3,206.9z"/>
	<path d="M180.7,180.5c-0.1,0.9,0.4,1.1,1.1,1.1c3,0,6,0,9,0c0.8,0,1.2-0.3,1.2-1.1c0-0.6,0.2-1.7-0.6-1.6c-3,0.3-2.4-1.8-2.3-3.4
		c0.2-2-0.7-2.4-2.5-2.3c-6.6,0.1-13.3,0-20,0c-2.2,0-4.5-0.1-6.7-0.1v5.6c6.2,0,12.4,0,18.6,0C179.8,178.7,181,178.6,180.7,180.5z"
		/>
	<path d="M162.4,199.3c1.4-1,3.1-0.9,4.7-0.9c2.8-0.1,5.5,0.6,8.3,0c-0.1-0.9-0.2-1.8-0.3-2.7c-5.1,0-10.1,0-15.2,0v3
		c0.4,0.2,0.7,0.4,1.1,0.8C161.5,200,162.1,199.5,162.4,199.3z"/>
	<path d="M201.3,178.7c0.6,0,1.3,0,1.9,0c1.4,0,3.1-0.5,2.8,2c-0.1,0.8,0.5,0.8,1.1,0.8c2,0,4,0,6,0c1.1,0,1.4-0.5,1.4-1.5
		c0-1.1-0.5-1.4-1.5-1.4c-1.7,0-3.5,0-5.2,0c-0.8,0-1.8,0.4-1.9-1.2c0-1.5,0.7-1.6,1.8-1.6c4.2,0,8.5,0.6,12.6-0.2
		c3.2-0.6,2,4.3,5,3.2c0.3-0.1,0.4,0.7,0.3,1.2c-0.1,1,0.2,1.4,1.3,1.5c1.3,0,1.6-0.5,1.5-1.6c-0.1-1,0.4-1.2,1.3-1.3
		c3.2-0.4,1-2.8,1.4-4.3c0.5-1.6-1-1.3-1.9-1.3c-4.9,0-9.8,0-14.8,0s-10,0-15,0c-0.7,0.1-1.5-0.3-1.8,1.1
		C196.9,177.9,197.5,178.7,201.3,178.7z"/>
	<path d="M163.7,190.1c-1.1,0.2-2.1,0.3-3.2,0.5c0.5,0.7,0.9,1.5,1.4,2.2c4.6,0,9.3-0.1,13.9-0.2c0.8,0,1.9,0.5,2.4-0.7
		c0.1-0.3,0.8-0.1,0.6-0.7c-0.1-0.4-0.5-0.4-0.8-0.5c-0.5-0.1-1.7,1.3-1.6-0.6C172.1,189.7,167.9,190.1,163.7,190.1z"/>
	<path d="M205.8,167.5c0.3-0.9,0.5-1.8,0.7-2.6c-2,0-4,0-6.1,0c0,0.9,0.1,1.7,0.1,2.6C202.3,167.5,204,167.5,205.8,167.5z"/>
	<path d="M164.8,211c-0.2,0.1-1.8,0.2-0.4,1.1c2.4,0.1,4.7,0.5,7.5,0.1c-1.7-1.2-3.8-1.1-4.7-2.8c-0.3,0.6-0.9,0.2-1.3,0.3
		C166.6,211.2,165.4,210.8,164.8,211z"/>
	<path d="M220.3,167.2c-0.8-1.1-0.9-2.9-2.9-2.4c-0.2,1,0.7,1.7,0.8,2.6C218.9,167.3,219.6,167.8,220.3,167.2z"/>
	<path d="M175.9,201c2.5,0,5,0,7.6,0C181,200,178.4,200,175.9,201z"/>
	<path d="M236.7,205.7c-1.1,0.3-1.1-0.8-1.4-1.6c-0.5-0.1-0.9-0.1-1.4-0.2c-0.3,1.1,1.4,1.5,1,2.6c1.1,0,2.2,0,3.3,0
		c0.1-0.8,0-1.7,0.6-2.4c-0.7-0.4-1.4-0.2-2.2-0.2C236.6,204.6,237.4,205.5,236.7,205.7z"/>
	<path d="M239.5,206.5c-0.3,0-0.5,0-0.8,0C239,206.9,239.2,207,239.5,206.5z"/>
	<path d="M209.7,211.4c0-0.1-0.1-0.1-0.1-0.2C209.6,211.3,209.6,211.4,209.7,211.4L209.7,211.4z"/>
	<path d="M234.5,226.2c-4.2,0-8.3,0-12.5,0c-0.6,0-1.1,0-1.7,0c-10.9,0-21.9,0-32.8,0c1.2-1,2.6-0.5,3.9-0.5c4.7-0.1,9.5,0,14.7,0
		c-1.1-1.7-2.1-2-3.5-2c-7,0-14.1,0-21.1,0c-7.2,0-14.4-0.1-21.6-0.1v8.6c4.7-0.1,9.4-0.1,14.1-0.1c14,0,27.9,0,41.9,0
		c9.5,0,18.9,0,28.4,0v-5.9c-2.3,0-4.7,0-7,0C236.4,226.5,235.4,226.5,234.5,226.2z"/>
	<path d="M240.5,234.4c-24.9,0-49.8,0-74.7,0.1c-1,0-2.2-1-3.2,0.2c-0.3,0-0.6,0-0.9,0c-0.6,0.3-1.2,0.3-1.8-0.1v1.6h84.4v-1.5
		C243.1,234.2,241.7,234.4,240.5,234.4z"/>
	<path d="M239.3,204.2c0.9,1.3,2.4,0.3,3.5,0.9c-0.5,1.5-2.3,0.1-2.8,1.4c1.4,0,2.9,0.1,4.3,0.1v-2.7
		C242.6,203.9,241,203.7,239.3,204.2z"/>
</g>
</svg>
