<?xml version="1.0" encoding="utf-8"?>
<!-- Generator: Adobe Illustrator 25.3.0, SVG Export Plug-In . SVG Version: 6.00 Build 0)  -->
<svg version="1.1" id="Layer_1" xmlns="http://www.w3.org/2000/svg" xmlns:xlink="http://www.w3.org/1999/xlink" x="0px" y="0px"
	 viewBox="0 0 750.2 400.1" style="enable-background:new 0 0 750.2 400.1;" xml:space="preserve">
<style type="text/css">
	.st0{fill:none;}
</style>
<g>
	<path class="st0" d="M172.7,164c-0.2,0.1-0.4,0.3-0.6,0.5c0.7-0.1,1.4-0.2,1.9-0.3C173.5,164.1,173.1,164.1,172.7,164z"/>
	<path class="st0" d="M167.9,167.1c0.2,0.6,0.7,0.3,1.4-0.2c-0.5,0-0.9,0-1.4,0C167.9,166.9,167.9,167,167.9,167.1z"/>
	<path class="st0" d="M163,172c0.3-0.4-1.1-0.2-2.3,0.1c0.4,0,1,0.1,1.6,0.2C162.6,172.2,162.8,172.1,163,172z"/>
	<path d="M159.9,235.5v0.7h5.8C164,236.1,162.3,235.8,159.9,235.5z"/>
	<path d="M244.2,235.9v-0.5c-6.2,0.1-11.5,0.1-11.5,0.1C236.8,235.8,241,235.8,244.2,235.9z"/>
	<path d="M193,234.8c-2.5-0.1-5.7-0.1-6.1,0.3c0,0,1.8,1.3,6.8,0.2c5-1,12.3,0.8,14.4-0.8c2.1-1.6-4-2.1-4-2.1s2.4,0.4,2.6,1.3
		s-1.4,0.1-4.4-0.5c0,0,1.6,0.5,2,1.2c0,0-1.4-0.9-8.3-1c0,0,1.8,0.1,2.1,0.6S195.5,234.9,193,234.8z"/>
	<path d="M159.9,225.5L159.9,225.5c0.3,0,0.5,0,0.5,0C160.2,225.5,160.1,225.5,159.9,225.5z"/>
	<path d="M244.2,206.8v-0.3c-3.5,0-5.9,0.1-5.9,0.1C240.3,206.7,242.3,206.8,244.2,206.8z"/>
	<path d="M217.4,216.1l0.2,0.1c0,0,2.6,0.3,5.2-0.6c0,0-0.5,0.6-1.1,0.9c0.9-0.3,3.4-1.2,5.4-1.3c0,0-2.7-0.8-5.8-0.8
		c-3.1-0.1-6.9-0.3-9.2,0.2C212,214.5,221.6,214.3,217.4,216.1z"/>
	<path d="M221.6,216.5c-0.2,0.1-0.4,0.1-0.4,0.1C221.4,216.6,221.5,216.5,221.6,216.5z"/>
	<path d="M207.7,216.2c0.5-0.2,1.1-1.3,1.1-1.3c-2.7,1.6-4.6,0.6-4.6,0.6c0.8-2.2,3.6-3,3.6-3c-2.5,0-4.4,2.1-4.4,2.1
		c1.1-1.9,2.8-2.9,2.8-2.9c-2.1,0.6-4.8,4.9-5.3,3.3c-0.5-1.6,2.1-3.2,2.1-3.2c-2,0.8-3.2,1.9-3.2,1.9c0.2-1.2,1-2.4,1-2.4
		s-3.5,3.8-0.2,5s14.4,0.4,14.4,0.4C211.6,216.8,207.7,216.2,207.7,216.2z"/>
	<path d="M162.7,228c-1,0-1.9-0.1-2.8-0.2v0.4C161.6,228.1,162.7,228,162.7,228z"/>
	<path d="M221.9,211.1c-0.3,0-0.6,0.1-0.9,0.1C220.9,211.2,221.3,211.2,221.9,211.1z"/>
	<path d="M221.8,207.8c1.1-0.6,5.5-0.3,5.5-0.3c-4-0.3-6.5-1.3-15.3-1.1c-8.7,0.1-22.7,0.3-22.7,0.3c9.4,0.4,18.8,0.1,17.8,1.9
		c-1,1.8-5.3,2.1-5.3,2.1c3.7,0.3,8.7-1,8.7-1c-2.2,1-5.1,1.6-5.1,1.6s1.1,0,6.2-0.8s11.3-2.8,10.5-1.3c-0.8,1.6-6,2.3-6,2.3
		c4.8-0.3,9.5-2.3,9.5-2.3c-1.3,1.4-2.7,1.9-3.6,2.1c3.3-0.4,4.8-2.1,4.8-2.1c0.7-0.3,1.9-0.3,3.1-0.4c0.4-0.1,0.8-0.1,1.3-0.2
		C227.1,208.1,221.8,207.8,221.8,207.8z"/>
	<path d="M242,217c0.9,0.3,1.6,0.4,2.2,0.4v-1c-0.6,0-1.2,0-1.8,0c-1.8,0.1-3.9-0.1-3.7-0.7c0.2-0.6,1.5-0.6,1.5-0.6
		c-4.9,0.1-5.9,1-5.9,1c0.3-0.7,1.4-1.2,1.4-1.2c-2.1,0.6-3.3,1.3-3.1,0.5c0.2-0.8,1.9-1.3,1.9-1.3s-4.3,0.5-2.8,2.1
		C233.2,217.9,238.4,216,242,217z"/>
	<path d="M228.2,231.4c-0.2,0.1-0.4,0.1-0.4,0.1C228,231.5,228.1,231.4,228.2,231.4z"/>
	<path d="M223.9,231l0.2,0.1c0,0,2.6,0.3,5.2-0.6c0,0-0.5,0.6-1.1,0.9c0.9-0.3,3.4-1.2,5.4-1.3c0,0-2.7-0.8-5.8-0.8
		c-1.9,0-4.1-0.1-6-0.1c0.1,0.1,0.1,0.2,0.1,0.4C224.2,229.6,226.4,229.9,223.9,231z"/>
	<path d="M232.5,224.6c2.3-0.3,7-0.2,11.7,0v-0.7c-1.8-0.3-3-0.9-2.8-1.7c0.3-0.9,1.6-1.4,2.8-1.7v-0.5c-3-0.1-6.7,0.5-9.7,1.5
		c-3.8,1.2-9.7,1.5-9.7,1.5c0.7-1.9,7.5-3.2,7.5-3.2c-6.4,0.6-10,2.9-9.8,2.3c0.2-0.6,1.1-1,1.1-1s-3.9,0.6-3.1,2
		S229,225,232.5,224.6z"/>
	<path d="M187.9,218.7c4.8-1.3-0.2-5-0.2-5s1.1,1.2,1.4,2.4c0,0-1.6-1.2-4.4-1.9c0,0,3.7,1.6,3,3.2c-0.7,1.6-4.5-2.8-7.4-3.3
		c0,0,2.4,1,4,2.9c0,0-2.7-2.1-6.1-2.1c0,0,4,0.8,5.1,3c0,0-2.7,1-6.5-0.6c0,0,0.9,1,1.6,1.3c0,0-5.5,0.6-10.6,0.8
		C167.6,219.1,183.2,219.9,187.9,218.7z"/>
	<path d="M181.6,213.3c0,0-4.2-0.6-7.2-1.6c0,0,7.1,1.4,12.3,1c0,0-6.1-0.3-7.5-2.1c-1.4-1.8,11.8-1.5,25-1.9c0,0-19.7-0.1-32-0.3
		c-5.5-0.1-9.3,0.1-12.3,0.3v1.9c2.8,0.2,8.3,1.3,13,1.8C180,213.3,181.6,213.3,181.6,213.3z"/>
	<path d="M159.9,212.3v0.5c2,0.4,4.3,0.7,6.6,0.8C166.5,213.5,162.4,213.1,159.9,212.3z"/>
	<path d="M164.8,205.7c2.1-1.6-4-2.1-4-2.1s2.4,0.4,2.6,1.3c0.2,0.8-1.1,0.2-3.5-0.3v0.2c0.5,0.2,1,0.5,1.2,0.9c0,0-0.3-0.2-1.2-0.4
		v1.2C162,206.4,163.9,206.3,164.8,205.7z"/>
	<path d="M196.2,221.1c5-1,12.3,0.8,14.4-0.8c2.1-1.6-4-2.1-4-2.1s2.4,0.4,2.6,1.3c0.3,0.8-1.4,0.1-4.4-0.5c0,0,1.6,0.5,2,1.2
		c0,0-1.4-0.9-8.3-1c0,0,1.8,0.1,2.1,0.6s-2.7,0.8-5.2,0.7c-2.5-0.1-5.7-0.1-6.1,0.3C189.4,220.9,191.2,222.1,196.2,221.1z"/>
	<path d="M164.4,223.9l0.2-0.1c-5.9-1.8,7.5-1.6,7.5-1.6c-3.1-0.5-8.1-0.3-12.3-0.2v1.8C162.4,224.1,164.4,223.9,164.4,223.9z"/>
	<path d="M235.7,210.3c-0.9-0.3-1.5-0.9-1.5-0.9c3.7,0.9,7.4,0.6,7.4,0.6l0.2-0.1c-3.3-1-0.6-1.4,2.5-1.5V208c-2.6,0-5.4,0.1-8,0.1
		c-1.9,0-3.7,0.2-5.1,0.4c-0.5,0.1-0.9,0.1-1.3,0.2c-1.1,0.2-1.8,0.3-1.8,0.3C230.8,209,234.4,209.9,235.7,210.3z"/>
	<path d="M235.7,210.3c0.2,0.1,0.3,0.1,0.5,0.1C236.1,210.4,236,210.3,235.7,210.3z"/>
	<path d="M243.8,230.9c0,0-0.2,0-0.5,0.1c0.1,0,0.2,0,0.3,0.1C243.7,231,243.7,231,243.8,230.9z"/>
	<path d="M244.2,233.1v-0.9c-2.3,0.4-7.5,0.6-10.8,0.5C233.4,232.7,238.1,233,244.2,233.1z"/>
	<path d="M178.1,229.6c9.1,0.2,21.8,0.2,26.8,0.9c5,0.7,15.7,0.7,16.9-0.8c0.1-0.1,0.1-0.2,0.1-0.3c0-0.1,0-0.2-0.1-0.4
		c-0.6-1-4.4-1.6-4.4-1.6s1.3,0.5,1.5,1.1c0.2,0.6-4.8-1.9-13.8-3c0,0,9.6,1.9,10.6,3.8c0,0-8.2-0.7-13.6-2.1
		c-5.4-1.5-12.3-2.5-16.9-2c0,0,6.3,0.4,7.1,2.3c0.8,1.9-10.6,2.2-15.8,0.7c-5.3-1.5-9.5-1.9-9.5-1.9s5,1,5.3,1.7
		c0.4,0.7-7.6,0.7-11.9,0.4C160.4,228.4,169,229.4,178.1,229.6z"/>
	<path d="M243.6,231.1c-0.8,0.4-2.9,0.7-2.9,0.7c0.7,0,2.3-0.2,3.5-0.5v-1.2c-0.2,0-0.4,0-0.6,0.1c-3.9,0.3-8.3,0.1-8.3,0.1
		c2,0.8,6.2,0.5,6.2,0.5l-1.4,0.6c1-0.1,2.4-0.3,3.1-0.4c0.3,0,0.5-0.1,0.5-0.1C243.7,231,243.7,231,243.6,231.1z"/>
	<path d="M237.8,175.1c2.2,0.1,4.4,0.2,6.4,0.2V175C240.5,175.1,237.8,175.1,237.8,175.1z"/>
	<path d="M187.5,204.3c5-0.8,11.3-2.8,10.5-1.3c-0.8,1.6-6,2.3-6,2.3c4.8-0.3,9.5-2.3,9.5-2.3c-1.3,1.4-2.7,1.9-3.6,2.1
		c3.3-0.4,4.8-2.1,4.8-2.1c1.7-0.6,6.7-0.3,6.7-0.3c-4-0.6-11.6-0.9-11.6-0.9c1.1-0.6,5.5-0.3,5.5-0.3c-4-0.3-6.5-1.3-15.3-1.1
		c-8.7,0.1-22.7,0.3-22.7,0.3c9.4,0.4,18.8,0.1,17.8,1.9c-1,1.8-5.3,2.1-5.3,2.1c3.7,0.3,8.7-1,8.7-1c-2.2,1-5.1,1.6-5.1,1.6
		S182.5,205.2,187.5,204.3z"/>
	<path d="M197.9,205.1c-0.3,0-0.6,0.1-0.9,0.1C196.9,205.2,197.3,205.2,197.9,205.1z"/>
	<path d="M216.9,184.6l0.2,0.1c0,0,2.6,0.3,5.2-0.6c0,0-0.5,0.6-1.1,0.9c0.9-0.3,3.4-1.2,5.4-1.3c0,0-2.7-0.8-5.8-0.8
		c-3.1-0.1-6.9-0.3-9.2,0.2C211.5,183,221.1,182.8,216.9,184.6z"/>
	<path d="M221.1,185c-0.2,0.1-0.4,0.1-0.4,0.1C220.9,185.1,221,185,221.1,185z"/>
	<path d="M207.2,184.6c0.5-0.2,1.1-1.3,1.1-1.3c-2.7,1.6-4.6,0.6-4.6,0.6c0.8-2.2,3.6-3,3.6-3c-2.5,0-4.4,2.1-4.4,2.1
		c1.1-1.9,2.8-2.9,2.8-2.9c-2.1,0.6-4.8,4.9-5.3,3.3c-0.5-1.6,2.1-3.2,2.1-3.2c-2,0.8-3.2,1.9-3.2,1.9c0.2-1.2,1-2.4,1-2.4
		s-3.5,3.8-0.2,5s14.4,0.4,14.4,0.4C211.1,185.3,207.2,184.6,207.2,184.6z"/>
	<path d="M162.2,196.4c-0.8,0-1.6-0.1-2.3-0.1v0.3C161.3,196.5,162.2,196.4,162.2,196.4z"/>
	<path d="M221.3,176.3c1.1-0.6,5.5-0.3,5.5-0.3c-4-0.3-6.5-1.3-15.3-1.1c-8.7,0.1-22.7,0.3-22.7,0.3c9.4,0.4,18.8,0.1,17.8,1.9
		s-5.3,2.1-5.3,2.1c3.7,0.3,8.7-1,8.7-1c-2.2,1-5.1,1.6-5.1,1.6s1.1,0,6.2-0.8c5-0.8,11.3-2.8,10.5-1.3c-0.8,1.6-6,2.3-6,2.3
		c4.8-0.3,9.5-2.3,9.5-2.3c-1.3,1.4-2.7,1.9-3.6,2.1c3.3-0.4,4.8-2.1,4.8-2.1c0.7-0.3,1.9-0.3,3.1-0.4c0.4-0.1,0.8-0.1,1.3-0.2
		C226.6,176.5,221.3,176.3,221.3,176.3z"/>
	<path d="M221.4,179.6c-0.3,0-0.6,0.1-0.9,0.1C220.4,179.7,220.8,179.7,221.4,179.6z"/>
	<path d="M241.5,185.5c1.2,0.3,2,0.4,2.7,0.4v-1c-0.7,0-1.5,0-2.3,0c-1.8,0.1-3.9-0.1-3.7-0.7c0.2-0.6,1.5-0.6,1.5-0.6
		c-4.9,0.1-5.9,1-5.9,1c0.3-0.7,1.4-1.2,1.4-1.2c-2.1,0.6-3.3,1.3-3.1,0.5c0.2-0.8,1.9-1.3,1.9-1.3s-4.3,0.5-2.8,2.1
		S237.9,184.4,241.5,185.5z"/>
	<path d="M223.5,199.5l0.2,0.1c0,0,2.6,0.3,5.2-0.6c0,0-0.5,0.6-1.1,0.9c0.9-0.3,3.4-1.2,5.4-1.3c0,0-2.7-0.8-5.8-0.8
		c-1.9,0-4.1-0.1-6-0.1c0.1,0.1,0.1,0.2,0.1,0.4C223.7,198,225.9,198.4,223.5,199.5z"/>
	<path d="M227.7,199.8c-0.2,0.1-0.4,0.1-0.4,0.1C227.5,199.9,227.6,199.9,227.7,199.8z"/>
	<path d="M232,193c2.4-0.3,7.3-0.2,12.2,0.1v-0.7c-2.1-0.3-3.6-1-3.3-1.8c0.4-1.1,2-1.5,3.3-1.8v-0.4c-3.1-0.2-7,0.4-10.2,1.4
		c-3.8,1.2-9.7,1.5-9.7,1.5c0.7-1.9,7.5-3.2,7.5-3.2c-6.4,0.6-10,2.9-9.8,2.3c0.2-0.6,1.1-1,1.1-1s-3.9,0.6-3.1,2
		C220.8,192.9,228.5,193.5,232,193z"/>
	<path d="M187.4,187.2c4.8-1.3-0.2-5-0.2-5s1.1,1.2,1.4,2.4c0,0-1.6-1.2-4.4-1.9c0,0,3.7,1.6,3,3.2c-0.7,1.6-4.5-2.8-7.4-3.3
		c0,0,2.4,1,4,2.9c0,0-2.7-2.1-6.1-2.1c0,0,4,0.8,5.1,3c0,0-2.7,1-6.5-0.6c0,0,0.9,1,1.6,1.3c0,0-5.5,0.6-10.6,0.8
		C167.1,187.6,182.7,188.4,187.4,187.2z"/>
	<path d="M159.9,180.9v0.4c1.9,0.3,4,0.6,6.1,0.7C166,182,162.4,181.7,159.9,180.9z"/>
	<path d="M181.1,181.8c0,0-4.2-0.6-7.2-1.6c0,0,7.1,1.4,12.3,1c0,0-6.1-0.3-7.5-2.1c-1.4-1.8,11.8-1.5,25-1.9c0,0-19.7-0.1-32-0.3
		c-5.2-0.1-8.9,0.1-11.8,0.3v1.9c2.9,0.3,8.1,1.2,12.5,1.8C179.5,181.8,181.1,181.8,181.1,181.8z"/>
	<path d="M160.7,172.1C160.6,172.1,160.6,172.1,160.7,172.1c0.2,0.1,0.6,0.2,1,0.3c0.2,0,0.4-0.1,0.6-0.1
		C161.6,172.2,161,172.1,160.7,172.1z"/>
	<path d="M164.3,174.1c1.2-0.9-0.1-1.4-1.6-1.7c-0.3,0-0.6,0.1-0.9,0.1c0.5,0.2,1,0.5,1.2,0.8c0.2,0.7-0.9,0.3-3-0.2v0.3
		c0.3,0.2,0.5,0.4,0.7,0.6c0,0-0.2-0.1-0.7-0.3v1.1C161.8,174.9,163.4,174.8,164.3,174.1z"/>
	<path d="M195.7,189.5c5-1,12.3,0.8,14.4-0.8c2.1-1.6-4-2.1-4-2.1s2.4,0.4,2.6,1.3c0.3,0.8-1.4,0.1-4.4-0.5c0,0,1.6,0.5,2,1.2
		c0,0-1.4-0.9-8.3-1c0,0,1.8,0.1,2.1,0.6c0.3,0.6-2.7,0.8-5.2,0.7c-2.5-0.1-5.7-0.1-6.1,0.3C188.9,189.3,190.7,190.6,195.7,189.5z"
		/>
	<path d="M163.9,192.4l0.2-0.1c-5.9-1.8,7.5-1.6,7.5-1.6c-3-0.4-7.7-0.3-11.8-0.2v1.8C162.2,192.5,163.9,192.4,163.9,192.4z"/>
	<path d="M235.2,178.7c0.2,0.1,0.3,0.1,0.5,0.1C235.7,178.9,235.5,178.8,235.2,178.7z"/>
	<path d="M235.2,178.7c-0.9-0.3-1.5-0.9-1.5-0.9c3.7,0.9,7.4,0.6,7.4,0.6l0.2-0.1c-3.5-1.1-0.2-1.4,3-1.6v-0.3c-2.7,0-5.8,0-8.5,0.1
		c-1.9,0-3.7,0.2-5.1,0.4c-0.5,0.1-0.9,0.1-1.3,0.2c-1.1,0.2-1.8,0.3-1.8,0.3C230.3,177.5,233.9,178.4,235.2,178.7z"/>
	<path d="M240.5,202.1c-5.3-1.2-9.5-1.4-9.5-1.4s5,0.7,5.3,1.4c0.4,0.6-7.5,1-11.9,0.9c0,0,8.6,0.6,17.6,0.4c0.7,0,1.4,0,2.1-0.1
		v-0.7C242.8,202.5,241.6,202.3,240.5,202.1z"/>
	<path d="M204.4,199c5,0.7,15.7,0.7,16.9-0.8c0.1-0.1,0.1-0.2,0.1-0.3c0-0.1,0-0.2-0.1-0.4c-0.6-1-4.4-1.6-4.4-1.6s1.3,0.5,1.5,1.1
		c0.2,0.6-4.8-1.9-13.8-3c0,0,9.6,1.9,10.6,3.8c0,0-8.2-0.7-13.6-2.1c-5.4-1.5-12.3-2.5-16.9-2c0,0,6.3,0.4,7.1,2.3
		c0.8,1.9-10.6,2.2-15.8,0.7c-5.3-1.5-9.5-1.9-9.5-1.9s5,1,5.3,1.7c0.4,0.7-7.6,0.7-11.9,0.4c0,0,8.6,1.1,17.6,1.2
		C186.7,198.2,199.4,198.3,204.4,199z"/>
	<path d="M241,199.2l-1.4,0.6c1.4-0.1,3.6-0.5,3.6-0.5c-0.5,0.5-3.1,0.8-3.1,0.8c0.8,0,2.7-0.2,3.9-0.6c0,0,0,0,0.1,0v-1.1
		c-0.3,0-0.7,0.1-1.1,0.1c-3.9,0.3-8.3,0.1-8.3,0.1C236.8,199.6,241,199.2,241,199.2z"/>
	<path d="M159.9,165.7v0.8c2.2,0.1,4.4,0.2,6.3,0.3c0-0.3,0-0.6,0.1-0.8C164.3,166.1,161.8,166.1,159.9,165.7z"/>
	<path d="M167.8,166.8c0.5,0,0.9,0,1.4,0c0.7-0.6,1.5-1.5,2.4-2.2c-1,0.2-2.1,0.5-3.3,0.9c0,0-0.1,0-0.1,0
		C168,165.9,167.8,166.3,167.8,166.8z"/>
	<path d="M162.3,162c-0.7-0.2-1.5-0.2-2.4-0.3v0.6C161.1,162.1,162.3,162,162.3,162z"/>
	<path d="M172.1,164.5c-0.6,0.5-1.2,1.2-1.7,2.1c0,0,0.4-0.4,1.1-0.9c-0.1-0.1-0.1-0.1-0.1-0.2c0.2-0.4,1.9-0.9,3-1.2
		c-0.1,0-0.2,0-0.4-0.1C173.5,164.3,172.8,164.4,172.1,164.5z"/>
	<path d="M171.4,166.8c4.7,0,8.3-0.4,8.3-0.4c-2.3,0.1-5.9-0.1-7.6-0.5C171.9,166.2,171.6,166.5,171.4,166.8z"/>
	<path d="M164.6,171.7c-0.1-0.7-1.2-1-4.7-0.7v1.2c0.2-0.1,0.5-0.1,0.7-0.2c0,0,0,0,0,0c0,0,0.1,0,0.1,0c1.2-0.3,2.6-0.5,2.3-0.1
		c-0.1,0.2-0.4,0.3-0.7,0.3c-0.2,0-0.4,0.1-0.6,0.1c-0.3,0-0.6,0.1-0.6,0.1s0.3,0,0.7,0c0.3,0,0.6,0,0.9-0.1
		C163.7,172.3,164.7,172.1,164.6,171.7z"/>
	<path d="M167.7,168.5c3.4,1.3,14.4,0.4,14.4,0.4c-3.6-0.1-7.5-0.8-7.5-0.8c0.5-0.2,1.1-1.3,1.1-1.3c-2.7,1.6-4.6,0.6-4.6,0.6
		c0.1-0.2,0.2-0.4,0.3-0.6c0.2-0.4,0.5-0.7,0.8-0.9c1.1-1,2.5-1.4,2.5-1.4c-1.3,0-2.5,0.6-3.3,1.2c-0.7,0.5-1.1,0.9-1.1,0.9
		c0.5-0.9,1.2-1.6,1.7-2.1c0.2-0.2,0.5-0.4,0.6-0.5c-0.1,0-0.1,0-0.2,0c-0.3,0.2-0.6,0.4-0.9,0.6c-0.9,0.7-1.7,1.6-2.4,2.2
		c-0.7,0.6-1.2,0.8-1.4,0.2c0-0.1,0-0.2,0-0.3c0-0.4,0.1-0.9,0.4-1.3c0.6-0.9,1.8-1.6,1.8-1.6c-2,0.8-3.2,1.9-3.2,1.9
		c0.2-1.2,1-2.4,1-2.4s-1.1,1.2-1.5,2.4c-0.1,0.3-0.1,0.6-0.1,0.8C166.3,167.4,166.6,168.1,167.7,168.5z"/>
	<path d="M243.5,172c0,0,0.3,0,0.7,0v-0.6c-0.2,0.1-0.4,0.3-0.9,0.5L243.5,172z"/>
	<path d="M241.2,170c0.1,0.1,0.1,0.2,0.1,0.4c1.3,0.1,2.5,0.2,3,0.5V170C243.2,170,242.1,170,241.2,170z"/>
	<path d="M242,162.9c0.2-0.6,1.1-1,1.1-1s-3.9,0.6-3.1,2c0.4,0.7,2.1,1.2,4.3,1.4v-3.1C242.7,162.8,241.9,163.1,242,162.9z"/>
	<path d="M220.1,160.7c0.3,0.6-2.7,0.8-5.2,0.7c-2.5-0.1-5.7-0.1-6.1,0.3c0,0,1.8,1.3,6.8,0.2c5-1,12.3,0.8,14.4-0.8
		c0.4-0.3,0.5-0.6,0.4-0.8h-1.7c0.1,0.5-0.6,0.3-2,0h-1.1c0.3,0.2,0.6,0.4,0.8,0.7c0,0-0.6-0.4-2.8-0.7h-3.8
		C219.8,160.5,220,160.6,220.1,160.7z"/>
	<path d="M178,165.1c0.2,0.1,0.3,0.1,0.5,0.1C178.5,165.2,178.3,165.2,178,165.1z"/>
	<path d="M174,164.2c0.1,0,0.2,0,0.4,0.1c1.6,0.3,3,0.6,3.7,0.8c-0.9-0.3-1.5-0.9-1.5-0.9c3.7,0.9,7.4,0.6,7.4,0.6l0.2-0.1
		c-5.9-1.8,7.5-1.6,7.5-1.6c-3.3-0.5-8.6-0.3-13-0.2c-4.3,0.1-8.2,0.8-8.2,0.8c0.7,0,1.4,0.1,2.1,0.2c0.1,0,0.1,0,0.2,0
		C173.1,164.1,173.5,164.1,174,164.2z"/>
	<path d="M236.8,168.4c0,0,1.3,0.5,1.5,1.1c0.2,0.6-4.8-1.9-13.8-3c0,0,9.6,1.9,10.6,3.8c0,0-8.2-0.7-13.6-2.1
		c-5.4-1.5-12.3-2.5-16.9-2c0,0,6.3,0.4,7.1,2.3c0.8,1.9-10.6,2.2-15.8,0.7s-9.5-1.9-9.5-1.9s5,1,5.3,1.7c0.4,0.7-7.6,0.7-11.9,0.4
		c0,0,8.6,1.1,17.6,1.2c9.1,0.2,21.8,0.2,26.8,0.9c5,0.7,15.7,0.7,16.9-0.8c0.1-0.1,0.1-0.2,0.1-0.3c0-0.1,0-0.2-0.1-0.4
		C240.6,169,236.8,168.4,236.8,168.4z"/>
</g>
</svg>
