<?xml version="1.0" encoding="utf-8"?>
<!-- Generator: Adobe Illustrator 25.3.0, SVG Export Plug-In . SVG Version: 6.00 Build 0)  -->
<svg version="1.1" id="Layer_1" xmlns="http://www.w3.org/2000/svg" xmlns:xlink="http://www.w3.org/1999/xlink" x="0px" y="0px"
	 viewBox="0 0 750.2 400.1" style="enable-background:new 0 0 750.2 400.1;" xml:space="preserve">
<g>
	<path d="M159.9,220v6.7c28.1-0.6,56.2-0.6,84.4,0V220C216.2,219.8,188,219.8,159.9,220z"/>
	<path d="M159.9,233.2v3h84.4v-3C216.2,232.3,188,232.3,159.9,233.2z"/>
	<path d="M159.9,193.5v6.7c28.1,0.9,56.3,0.9,84.4,0.1v-6.8C216.2,194.8,188,194.7,159.9,193.5z"/>
	<path d="M159.9,206.7v6.7c28.1,0.2,56.3,0.2,84.4,0v-6.7C216.2,207.3,188,207.2,159.9,206.7z"/>
	<path d="M159.9,166.3v6.8c28.1,2.4,56.3,2.5,84.4,0.2v-6.8C216.2,169.2,188,169.2,159.9,166.3z"/>
	<path d="M159.9,179.6v6.8c28.1,1.6,56.3,1.7,84.4,0.1v-6.7C216.2,181.7,188,181.6,159.9,179.6z"/>
	<path d="M231.7,160.6h-57.6C193.3,162.1,212.5,162.1,231.7,160.6z"/>
</g>
</svg>
