<?xml version="1.0" encoding="utf-8"?>
<!-- Generator: Adobe Illustrator 25.3.0, SVG Export Plug-In . SVG Version: 6.00 Build 0)  -->
<svg version="1.1" id="Layer_1" xmlns="http://www.w3.org/2000/svg" xmlns:xlink="http://www.w3.org/1999/xlink" x="0px" y="0px"
	 viewBox="0 0 750.2 400.1" style="enable-background:new 0 0 750.2 400.1;" xml:space="preserve">
<g>
	<path d="M161.8,162.5c-0.6-0.1-1.3-0.1-1.9-0.2v0.4C160.3,162.6,160.9,162.5,161.8,162.5z"/>
	<path d="M244,166.9c0.1,0,0.2-0.1,0.3-0.1v-6.2h-8.6c0.2,0.3,0.5,0.6,1,0.8c1.4,0.8,1.4,1.7,1.4,2.7c-0.9,0.2,0.2,1.4-1.1,1.4
		c-0.5,0-1.1-0.1-1.6-0.1c-0.7-0.4-0.9-0.9-0.4-1.5c-0.4-0.7-1-1.4-2.1-1c-0.8,0.3,0,0.9,0.1,1.3l-0.1,0.1c-0.7,0-1.1,0.3-1.3,0.8
		c-1.6-0.1-1.2-3.1-3.8-1.3c-0.6-1.1,1.4-1.2,1-2.3c-0.2-0.5,1-1.1,2-0.4c0.9,0.6,1.1,0.4,1.5-0.4c0,0,0-0.1,0-0.1h-4.6
		c-1.3,1.8-2.1,3.8-2.8,6.1c1.2-0.7,2.2-1.6,2.6-0.1c0,0.2,0.2,0.4,0.2,0.5c0.1-0.1,0.2-0.2,0.3-0.2c1.8-1.5,2.7,0.3,3.1,0.8
		c0.8,1.2-1.2,1-1.9,1.5c1.8,0.3,1.8,0.3,2.6,2.1c0.4-0.7,1.4-1.2,0.9-2.1c-0.4-1,0.7-0.5,1.2-0.6c3.1,1.5,1,2.9-0.1,4.4
		c-0.4,0.2-0.7,0.4-1.1,0.6c-0.6,0-1.2,0-1.8,0c0.1,0.6-0.2,1-1.1,0.9c-0.6-0.1-0.8-0.3-0.9-0.9c0-1.2-0.5-2-2.4-0.8
		c-1.3,0.8-2.4,2-4.7,2c2.4,0.5,2.8,1.1,2,2.8c-0.3,0.6-1.3,2.3-0.5,2.4c2,0.3,3.4,1.6,5.6,1.5c0.5,0,1.3,0,1.5,0.5
		c0.1,0.6-1,0.3-1.3,0.7c1.2-0.1,2.9,0.6,2.5-1.3c-0.1-0.7,1-0.4,1.6-0.3c1,0.7,1.6,1.8,3.1,2.1c-0.4,0.3-0.1,1.7-1.6,0.6
		c-0.6-0.4-1.2,0.3-1.7,0.6c-0.2,0.1-0.4,0.3,0,0.4c0.1,0,0.2-0.1,0.4-0.2c1.1,0.2,2.2,0.9,3.5,0.2c0.4-0.1,0.7-0.3,0.7-0.7
		c2-0.3,2.4-1.3,2.2-2.6c0.1-0.2,0.2-0.3,0.4-0.5c0.6,1.3,1.8-0.4,2.6,0.4c-0.3,0.6-0.5,1.2-0.8,1.9c-1.2,0.8,0.6,1.3,0.3,2.1
		c-0.7,0.3-1.9,0.3-1.9,1.1c0,0.7,1.1,0.7,1.8,0.9c0.7,0.2,1.4,0.4,2.1,0.6v-19.1C243.8,168.2,242.3,167.7,244,166.9z"/>
	<path d="M161.5,214.5c0.3,0.1,0.6,0.2,1,0.2C162,214.4,161.7,214.4,161.5,214.5z"/>
	<path d="M227.8,227.3c-0.1-0.3-0.3-0.6-0.8-0.3c-1.6,1-3,0.1-4.5-0.2h-0.1c-1.3-0.9-0.9-2.9-3.5-2.9c0.3-0.5,0.5-0.9,1.5-0.7
		c1.2,0.3,1.5-0.4,1.8-1c0.6-1.2-1.3-0.8-1.4-0.8c-1.5,0.3-1.1-0.7-1.5-1.2c-1.6,0.8-2.1,1.9-2.3,3.4c-1.8-1.7-2.2-3.7-0.7-4
		c0.9-0.2,1.1-0.5,1.5-0.9c-1.3,0.3-2-1.3-3.2-0.6c-0.6,0.4-1,0.6-1.7,0.3c-0.8-0.3,0.7-1.3-0.7-1.5c0.6-0.3,0.6-1.1,1.6-1.2
		c0.7,0,1.5,0.4,2.5-0.7c-5.3,0.8-9.7-3.8-14.6,0c0.3,0.4,0.8,0.9,1.5,1.7c-1.2,0.1-2.1,0.1-3.1,0.2c1.1,0.4,3.5,0.1,1.4,1.7
		c-0.1,0.1-0.2,0.8,0.3,0.6c1.8-1,1.2,0.6,1.8,0.9c0.8,0.3,0,1.6,1.6,1.4c0.4,1.6-1,2.5-2.4,3.3c-1.7,0-2.9,0.1-2.5-1.9
		c0.2-0.9,2.5-1,1.2-1.7c-1.6-0.8-1.8-1.9-2.4-3c-0.5-1.1-1.9-0.4-2.7-0.7c-0.2-0.1-1.2,0.2-1.2,0.8c-0.1,1.2,1.4,0.4,1.9,0.9
		c0.2,0.2,0.6,0.3,1,0.5c-1.5,0.7-2.7,0.1-3.7-0.2c-2-0.5-2.7,0-2.9,1.4c0.6,0.2,1.5,0.1,1.7,0.9c-0.5,0-0.9,0.1-1.2,0.1
		c-1.7,0.1-3.7-0.6-4.3,1.5c-0.2,0.8-2,1-2.7,0.3c-1.1-1.1-1.5-0.5-2.4,0.1c-0.7,0.5-1.6,0.8-2.4,1.2c-0.8,0-1.2-0.5-1.7-0.8
		c-4.8-2.3-6.7-7.6-13.7-7.7c-0.8,0,0.4-1.7-1.5-1.2c-0.6,0.3-1.4,0.4-1.7-0.1c-0.1-0.2,0-0.4,0.3-0.5c-0.7-0.2-1.4-0.6-2-1v12
		c0.5,0.2,1,0.4,1.7,0.4c3.2-0.1,6.2,0.3,8.6,2.3c1.6,1.3,3.7,2.3,4.9,3.9c-0.1,0.4-0.1,0.8,0.4,1l0.1,0.1c-0.6,2.4-2.6,0.9-4,0.8
		c-2-1.1-3.9-0.6-6.5,0c2.5,0.6,4.4,0,5.9,0.9c0,0.3-0.1,0.7-0.2,1.1h18c2.6-0.8,2.6-1.7,0.3-3.2c-0.3-0.2-0.6-0.8-0.5-0.9
		c1.6-1.3-0.1-0.9-0.9-0.9c-0.7,0-1.6,0.3-2-0.5c2.7,0.1,5.5,0.3,7-2.3c-2.4,0.4-2.7-1.9-4.8-1.8c0.9-0.7,2.4-0.8,3.2-0.6
		c1.5,0.4,2.3,0.6,3.1-0.7c0.4-0.6,2-0.1,1.7,0.6c-0.7,2.1,1.4,1.4,2.6,1.6c0.4,0.5-1.4,0.7-0.5,1.1c0.7,0.3,1.9,0.3,2.2-0.7
		c0.9-0.2,2.7-0.6,2.4,0.3c-0.5,1.8,1,0.3,1.2,0.6c-0.2,1.4-2.5,2.5-0.6,4.2c0.7,0.6-1.4,0.1-1.6,1c-0.1,0.4-0.9,0.1-1.1-0.5
		c-0.3-0.8-1-1-2-0.8c-1.5,0.3-2.1,1.4-2.9,2.2c-0.3,0.3,0,1.2-1.2,0.7c-0.3-0.1-0.9-0.9-1.2,0c-0.1,0.2-0.1,0.4-0.1,0.6h35.7
		c-0.2-0.1-0.4-0.1-0.8-0.1c-1.1,0-1.2-0.2-0.4-1.1c0.8-0.8,1.6-0.5,2.4-0.8c-0.2-0.8-2-1-1.4-2c0.7-0.1,1.1-1.6,2.2-0.3
		c0.4,0.5-0.6,1.6,0.9,1.4c1-0.2,2.5-0.3,2.7-1.5c0,0,0-0.1,0-0.1C231.9,230.5,228.3,230.2,227.8,227.3z"/>
	<path d="M162.6,207c-0.1-0.3,0.3-0.7,0.5-1c0.9,0.1,1.8,0.3,2.8,0.4c0.5,0.5-0.1,0.5-0.5,0.7c-2.2,0.9,1.1,1.8,0.1,2.8
		c-0.4,0.4,0.3,0.5,0.8,0.6c3,0.2,4.3,1.6,4.4,3.7c2-0.9,5-0.7,5.5-3.1c0.4,0.1,0.8,0.2,1,0.4c1,0.9,2,0.3,2.2-0.2
		c0.4-0.7,0.1-1.6-1.5-1.4c-0.1-0.3-0.1-0.6-0.2-0.8c0.1-0.3,0.2-0.6,0.7-0.4c0.1,0.1,0.3,0.2,0.4,0.2c0-0.1,0-0.2,0-0.3
		c-0.8-1.7-0.2-3.4-0.5-5.1c1,1.2,3,2.1,2.8,3.8c0,0.3-0.1,0.6,0,0.9c0.2,0.6,0.4,1,1.6,0.7c0.6-0.2,1.3,0.3,1.5-0.6
		c0.3-1.4,2-1.8,3.6-2.2c0,0.5-0.3,1.1,0.7,1.2c0.8,0,0.5-0.6,0.6-1c0.1-0.3,0-0.7-0.1-1.1c0.8-0.2,0.9-2.1,2.4-0.5
		c0.9,0.6,3,0.2,2.5,2.2c1.1-1.2,1.8-2.2,3.5-1.9c0.9,0.2,1.3,1.3,2.6,0c1-1,1.3-1.6,0.5-2.6c-2.9-2.8-7.1-4.5-9.9-7.4
		c-1.2-1.3-2.8-2.7-4.9-3c-2.3-0.3-1.8-1.7-2.6-2.5c-0.3-0.4-0.8-0.7-1.2-1c-3.1-2.1-6.3-4-8.8-6.5c-0.3-0.3-1-0.8-1.3-0.8
		c-2.3,0.4-3.4-1.1-4.8-1.6c-1.9,2.2,1.7,4,0.3,6.2c-0.1,0.2,0.8,0.6,0,0.8c-0.9,0.2-0.7-0.4-0.8-0.8c-0.1-0.7,0.3-1.8-1.5-1.5
		c-0.6,0.1-2.3,3.2-1.9,3.5c0.5,0.4,1.1,1.9,1.9,0.1c0.2-0.3,0.8-0.4,1.3-0.2c0.1,0.1,0.2,0.5,0.1,0.6c-2.7,1.8,0.7,2.3,1.3,3.3
		c0.9,0.5,1.8,0.7,2.9,0.7c-0.4,1.2,1,2.5-0.3,3.8c-0.6-1.3-4.1-2.7-5.7-2.2c0.2,1,3.3,1.6,0.6,2.9c-1-0.1-1.8,0.2-1.5,0.9
		c0.2,0.4,1.4,0.5,2.2,0.2c1.6,0,0.9,0.6,0.5,1.1c-2.1,1-4.1,2.4-6.5,1.2v9C162.1,209.5,163.3,209.1,162.6,207z"/>
	<path d="M244.3,226.8v-2.4C242.7,225,242.8,225.4,244.3,226.8z"/>
	<path d="M235.7,227.8c1.6,0.6,2.2,1.8,3.8,1.8c1.1,1,2.2,2,3.4,3.1c-0.4,0-0.9-0.1-0.8,0.3c0,0.2,0.4,0.2,0.7,0.1
		c0.8-0.3,1.2-0.2,1.4,0.5c-1.1-0.1-2.1,0.6-3.3,0.3c-0.2,0-0.3,0-0.5-0.1c0,0.1,0.1,0.2,0.1,0.3c-0.4,0.3-0.7,0.8-1.4,0.5
		c-1.4-0.7-4,0-3.3,0.8c0.2,0.3,0.4,0.5,0.5,0.8h8v-9c-1.3-0.1-2,0.9-3.1,1C239.6,227.6,238.1,226.9,235.7,227.8z"/>
	<path d="M191.5,167.5c-0.1,0.1-0.1,0.2-0.2,0.3c0.2,0,0.4,0,0.6,0c0.9-0.3,1.7,0.1,2.6,0.2c0.4,0,1-0.4,1.2,0.2
		c0.1,0.3,0,0.6-0.2,0.8c-0.4,0.4-1.1,0.5-1.5,0.1c-0.8-0.5-1.3-0.8-2,0.1c-0.2,0.3-0.9,0.6,0,0.7c1,0.1,1.3,1.7,2.5,0.9
		c0.9-0.5,1.7-0.5,2.4-0.2c1.1,0.6,1.9,1.2,3-0.2c1.3-1.7-1.1-1.3-1.7-1.8c-0.5-0.5-2.1-1.1-1.5-1.3c1.7-0.6,3.2-1.7,4.7-2.1
		c2.4-0.6,5-0.6,6.9-2.7c-3,0.4-5.6-0.1-8.2-0.2c0.3-1,1.4-1.3,2.4-1.7h-5.9c-0.3,1.2-1.7,1.5-3.6,1.4c-0.6,0-1.4-0.1-1.6,0.7
		c-0.2,0.7,0.4,0.9,0.8,1.3C194.1,165.5,194,166.2,191.5,167.5z"/>
	<path d="M189.3,174.8c0.7-0.3,1.5-0.6,2,0.1c1.2,1.6,2.8,0.7,4.4,0.4c-0.6-0.1-1.2-0.2-1.8-0.3c2-0.2,4-0.3,5.9-0.2
		c1.7,0,2.3-0.7,2.3-1.9c-0.1-1.3-1.4-0.9-2.4-1c-2.9-0.1-6,1.2-8.5-0.9c-2.1,0.9-4.4-0.1-6.5,0.5c-0.1,0-0.1,0.3-0.2,0.6
		c2.1,0.1,4.1,0.1,6.1,0.2C187.1,172.2,189.6,173.9,189.3,174.8z"/>
	<path d="M183,182.3c2.2,1.8,3.4,0.1,4.5-0.4c0.9-0.4,1.4-1.5,1.4-2.6c0.1-2.9-3.1-1.1-4.4-1.9c-1.1-0.7-2.4,0.1-3.2,0.9
		c-0.8,0.8-1,1.8-2.7,2.1C180.3,181,182.2,181.6,183,182.3z"/>
	<path d="M209.2,202.1c0.2,0.7,1.4,2.2,1.8,1.7c0.9-1,2-0.9,3.2-1c0.8-0.1,1-0.6,1.1-1.1c-0.5-2.3-3,0-4.2-1
		C210.8,200.5,208.9,201.2,209.2,202.1z"/>
	<path d="M167,230.4c0.6,0.1,0.6-0.1,0.5-0.5c-0.2-0.8-1.4-1.2-1.9-0.9c-1.3,0.6-3.3,0.5-3.8,1.8c-0.4,1.1,1.6,1.2,2.2,2.1
		c0.2-1.2,0.5-2.3,2.2-2.7C166.4,230.1,166.7,230.3,167,230.4z"/>
	<path d="M164.2,193.7c0.1-1.8-2.7-2-3.3-3.4c-0.1-0.3-1-0.2-1,0c0,0.2,0,0.3,0,0.5v2.8c0,0,0.1,0,0.1,0
		C161.4,194.4,162.9,192,164.2,193.7z"/>
	<path d="M209.1,208.9c-0.2,0-0.4-0.2-0.4-0.1c-0.3,0.1-0.1,0.3,0,0.5c-0.2,0-0.4,0.1-0.5,0.1c-0.8,0.2-1.8-1.4-2.5,0
		c-0.6,1.3,0.8,1.6,2,1.8c0.5,0.1,1.1,0.1,1.7,0.2c0.3,0.1,0.3,0,0.2-0.2C209.2,210.5,210.7,209.5,209.1,208.9z"/>
	<path d="M162.7,161.5c0.6-0.1,1.2-0.7,1.4-0.9h-3.6c-0.2,0.1-0.4,0.1-0.6,0.2v0.6C160.9,161.6,161.8,161.5,162.7,161.5z"/>
	<path d="M187.3,176.4c0.5-0.8,3.1,0.1,2.1-1.6c-2.1,0.2-4.2-0.5-6.2,0.3c0.9,0.8,2.8,0.6,2.8,0.7
		C185.6,177.1,187,176.8,187.3,176.4z"/>
	<path d="M184.7,220.8c0.2,0.4,0.9,1.5,1.5,1c1.4-1.2,3.5-0.2,4.9-1.1c-1.7-0.2-3.5-0.3-5.2-0.5
		C185.3,220.2,184.4,220.2,184.7,220.8z"/>
	<path d="M221.7,215.8c0.2-1.1,0.8-2.4-0.4-3.2c-0.5-0.3-1.4,0.5-2.2,1C220.2,214.2,221.6,214.6,221.7,215.8z"/>
	<path d="M232.7,201.4c-1.6-1.1-3.6-0.4-5.5-0.3C228.9,202.6,230.9,200.6,232.7,201.4z"/>
	<path d="M161.1,176.2c-0.1,0.8,1,0.8,1.7,0.9c0.7,0.1,1.1-0.4,0.9-0.9c-0.2-0.6-0.3-1.3-1.2-1.6C161.7,175,161.2,175.5,161.1,176.2
		z"/>
	<path d="M209.9,207.1c0.1,0.8,0.3,1.5,1.5,1.7c0.6,0.1,1-0.2,0.9-0.7c-0.2-0.7-0.3-1.5-1.4-1.7
		C210.2,206.4,209.8,206.6,209.9,207.1z"/>
	<path d="M215.5,165.2c1.4,0,2.6,0,3.8,0C218.2,165.3,216.6,163,215.5,165.2z"/>
	<path d="M162.5,213.2c1.3,0.5,2.6,0.1,4.2-0.3C162.9,212.3,162.9,212.3,162.5,213.2z"/>
	<path d="M194.5,209.4c-1.1-0.1-2.3-0.6-3,0.3c-0.2,0.3-0.4,1.5,0.9,1.6C194.3,211.5,193.6,210,194.5,209.4z"/>
	<path d="M179.9,177.7c-2.2-0.8-3.7-0.2-5.1-0.2C176.3,178,177.7,178,179.9,177.7z"/>
	<path d="M209.2,195.4c0.6-0.2,1.4-0.2,1.5-0.8c0-0.1,0-0.3-0.1-0.4c-0.9-0.4-1.1,0.4-1.7,0.5c-0.8,0.2-1.6,0.5-2.8,0.9
		C207.5,195.7,208.3,195.8,209.2,195.4z"/>
	<path d="M191.7,177.7c2.3,1.5,2.4-1,4.8-0.7C194,176.2,193.1,177.2,191.7,177.7z"/>
	<path d="M204.4,211c-0.8,0.2-1.7,0.4-1.8,1.1c0,0.2,0.7,0.5,1,0.8c0.6-0.5,1.1-0.9,1.6-1.3C205.2,211.1,204.8,210.9,204.4,211z"/>
	<path d="M215.1,195.4c-0.9,0-1.7,0-2.7,0C213.5,196.6,213.5,196.6,215.1,195.4z"/>
	<path d="M227.4,167.1c-0.7,0.6-0.9,1.1-0.3,1.7c0.1,0,0.5,0,0.5,0C228.1,168.2,228.2,167.7,227.4,167.1z"/>
	<path d="M162.5,164.8c-0.6-0.1-0.8,0.3-0.8,0.7c0,0.2,0.3,0.5,0.5,0.8c0.4-0.5,0.7-0.7,0.9-1C163.3,164.9,162.7,164.8,162.5,164.8z
		"/>
	<path d="M191.8,215.7c0.1,0.2,0.5,0.4,0.9,0.4c0.4,0.1,0.8-0.1,0.7-0.4c-0.2-0.4-0.6-0.6-1.1-0.6
		C191.9,215.2,191.6,215.4,191.8,215.7z"/>
	<path d="M165.4,163.8c-0.3,0-0.8-0.5-0.8,0.2c0.5,0,1.1,0,2.2-0.1C165.9,163.9,165.6,163.8,165.4,163.8z"/>
	<path d="M190.8,217.7c0.1,0,0,0.1-0.1,0.2c0.1,0,0.2,0.1,0.2,0.1c0.1,0,0.2-0.1,0.4-0.2C191.1,217.7,191,217.7,190.8,217.7z"/>
	<polygon points="231.4,202.2 231.2,202.1 231.2,202.2 	"/>
	<path d="M192,226.9c0.1,0,0.3-0.1,0.4-0.2c-0.2-0.1-0.3-0.2-0.4-0.2s-0.3,0.1-0.4,0.2C191.8,226.7,191.9,226.9,192,226.9z"/>
	<path d="M198.1,176c0,0,0.1-0.1,0.2-0.1c-0.1-0.1-0.3-0.1-0.4-0.2c0,0-0.1,0.1-0.2,0.1C197.8,175.9,198,175.9,198.1,176z"/>
	<path d="M234.6,231.7c0.1,0,0.4,0,0.1-0.3C234.7,231.5,234.6,231.6,234.6,231.7z"/>
	<path d="M216.2,200.6c0.1,0.2,0.2,0.1,0.2,0.1c0-0.1,0-0.1,0-0.2c-0.1,0-0.2,0-0.3,0C216.1,200.6,216.1,200.6,216.2,200.6z"/>
	<path d="M205.3,212.9c0.1,0,0.1,0,0.2,0c0.1,0,0.1,0,0.1-0.1c-0.1,0-0.1,0-0.2,0C205.4,212.8,205.4,212.9,205.3,212.9z"/>
	<polygon points="241.3,182.7 241.4,182.6 241.3,182.6 	"/>
</g>
</svg>
