<?xml version="1.0" encoding="utf-8"?>
<!-- Generator: Adobe Illustrator 25.3.0, SVG Export Plug-In . SVG Version: 6.00 Build 0)  -->
<svg version="1.1" id="Layer_1" xmlns="http://www.w3.org/2000/svg" xmlns:xlink="http://www.w3.org/1999/xlink" x="0px" y="0px"
	 viewBox="0 0 750.2 400.1" style="enable-background:new 0 0 750.2 400.1;" xml:space="preserve">
<g>
	<polygon points="222.6,165.5 278.7,186.3 278.7,179.5 238,165.5 	"/>
	<polygon points="278.7,170.6 264.4,165.5 261.8,165.5 278.7,171 	"/>
	<polygon points="149.1,213.6 149.1,214.8 150.7,215.4 169.4,222.2 184.1,222.2 154.3,212 153.2,165.5 150.2,165.5 	"/>
	<polygon points="159.9,165.5 160.9,206.3 160.9,207.1 161.8,207.4 206.9,222.2 211.3,222.2 163.8,205.5 164.7,165.5 	"/>
	<polygon points="174.2,190.4 174.2,191.8 175.8,192.4 257.8,222.2 276.8,222.2 179.5,189 178.9,165.5 174.8,165.5 	"/>
	<polygon points="185.6,165.5 186,183.2 186,184 186.9,184.3 278.7,214.4 278.7,214 188.9,182.5 189.3,165.5 	"/>
	<polygon points="125.9,222.2 129.9,222.2 129.3,195.1 129.3,194.3 128.4,194.1 125.6,193.4 125.6,195.7 126.5,196 	"/>
	<polygon points="136.6,222.2 140.3,222.2 141.1,187.9 141.1,186.4 139.4,185.8 125.6,181.4 125.6,186.4 135.8,189.4 	"/>
</g>
</svg>
