<?xml version="1.0" encoding="utf-8"?>
<!-- Generator: Adobe Illustrator 25.3.0, SVG Export Plug-In . SVG Version: 6.00 Build 0)  -->
<svg version="1.1" id="Layer_1" xmlns="http://www.w3.org/2000/svg" xmlns:xlink="http://www.w3.org/1999/xlink" x="0px" y="0px"
	 viewBox="0 0 750.2 400.1" style="enable-background:new 0 0 750.2 400.1;" xml:space="preserve">
<g>
	<path d="M164.7,178.7c-8.1-3.9-22.9-3.5-39.1-3.1v16.7c25.1-4,14.7,0.3,29.7,10c17.2,11,66.4-9.8,102.7-17.4
		c8.1-1.7,14.9-2.4,20.7-2.6v-15C242.3,172.3,177.4,184.9,164.7,178.7z"/>
	<path d="M217.9,207.1c-44.9,13.3-76.1,2.7-89.5-1.5c-0.8-0.3-1.8-0.5-2.8-0.7v11.5c3.6,1.7,7.2,3.7,10.8,5.8h86.4
		c22.1-9.2,38.3-17.9,55.9-16.6v-15.9C260.4,187.2,250.3,197.4,217.9,207.1z"/>
</g>
</svg>
