<?xml version="1.0" encoding="utf-8"?>
<!-- Generator: Adobe Illustrator 25.3.0, SVG Export Plug-In . SVG Version: 6.00 Build 0)  -->
<svg version="1.1" id="Layer_1" xmlns="http://www.w3.org/2000/svg" xmlns:xlink="http://www.w3.org/1999/xlink" x="0px" y="0px"
	 viewBox="0 0 750.2 400.1" style="enable-background:new 0 0 750.2 400.1;" xml:space="preserve">
<g>
	<path d="M166.2,217.3h-34.4c-0.5,0-0.9,0.4-0.9,0.8v0.4h-5.3v3.4h5.4v0.3h36.2v-0.3h36.5c0.4,0,0.7-0.3,0.7-0.6V221h36v0.3
		c0,0.3,0.3,0.6,0.7,0.6h34.6v0.3h3v-4.9h-2.1c-0.5,0-0.9,0.4-0.9,0.8v0.4h-34.6c-0.4,0-0.7,0.3-0.7,0.6v0.5h-36v-0.5
		c0-0.3-0.3-0.6-0.7-0.6h-36.5v-0.4C167.1,217.7,166.7,217.3,166.2,217.3z"/>
	<path d="M166.1,208.8h-34.4c-0.5,0-0.9,0.4-0.9,0.8v0.4h-5.2v3.4h5.2v0.4c0,0.4,0.4,0.8,0.9,0.8h34.4c0.5,0,0.9-0.4,0.9-0.8v-0.4
		h36.5c0.4,0,0.7-0.3,0.7-0.6v-0.3h36v0.3c0,0.3,0.3,0.6,0.7,0.6h34.6v0.4c0,0.4,0.4,0.8,0.9,0.8h2.3v-5.8h-2.3
		c-0.5,0-0.9,0.4-0.9,0.8v0.4h-34.6c-0.4,0-0.7,0.3-0.7,0.6v0.5h-36v-0.5c0-0.3-0.3-0.6-0.7-0.6H167v-0.4
		C167,209.2,166.6,208.8,166.1,208.8z"/>
	<path d="M133.4,200.6h-7.8v5.8h7.8c0.5,0,0.9-0.4,0.9-0.8v-0.4h36.5c0.4,0,0.7-0.3,0.7-0.6v-0.3h32.1v0.3c0,0.3,0.3,0.6,0.7,0.6
		h34.4v0.4c-0.1,0.4,0.3,0.8,0.8,0.8H274c0.5,0,0.9-0.4,0.9-0.8v-0.4h3.8v-3.4h-3.8v-0.4c0-0.4-0.4-0.8-0.9-0.8h-34.4
		c-0.5,0-0.9,0.4-0.9,0.8v0.4h-34.4c-0.4,0-0.7,0.3-0.7,0.6v0.5h-32.1v-0.5c0-0.3-0.3-0.6-0.7-0.6h-36.5v-0.4
		C134.3,201,133.9,200.6,133.4,200.6z"/>
	<path d="M133.4,192.1h-7.8v5.8h7.9c0.5,0,0.9-0.4,0.9-0.8v-0.4h36.5c0.4,0,0.7-0.3,0.7-0.6v-0.3h32.1v0.3c0,0.3,0.3,0.6,0.7,0.6
		h34.4v0.4c-0.2,0.5,0.2,0.8,0.7,0.8H274c0.5,0,0.9-0.4,0.9-0.8v-0.4h3.8v-3.4h-3.8v-0.4c0-0.4-0.4-0.8-0.9-0.8h-34.4
		c-0.5,0-0.9,0.4-0.9,0.8v0.4h-34.4c-0.4,0-0.7,0.3-0.7,0.6v0.5h-32.1v-0.5c0-0.3-0.3-0.6-0.7-0.6h-36.5v-0.4
		C134.3,192.5,133.9,192.1,133.4,192.1z"/>
	<path d="M133.2,183.6h-7.6v5.8h7.5c0.5,0,0.9-0.4,0.9-0.8v-0.4h36.5c0.4,0,0.7-0.3,0.7-0.6v-0.3h32.1v0.3c0,0.3,0.3,0.6,0.7,0.6
		h34.4v0.4c0,0.4,0.4,0.8,0.9,0.8H274c0.5,0,0.9-0.4,0.9-0.8v-0.4h3.8v-3.4h-3.8v-0.4c0-0.4-0.4-0.8-0.9-0.8h-34.4
		c-0.5,0-0.9,0.4-0.9,0.8v0.4h-34.4c-0.4,0-0.7,0.3-0.7,0.6v0.5h-32.1v-0.5c0-0.3-0.3-0.6-0.7-0.6h-36.5v-0.4
		C134.1,184,133.7,183.6,133.2,183.6z"/>
	<path d="M133.2,175.1h-7.6v5.8h7.6c0.5,0,0.9-0.4,0.9-0.8v-0.4h36.5c0.4,0,0.7-0.3,0.7-0.6v-0.3h32.1v0.3c0,0.3,0.3,0.6,0.7,0.6
		h34.4v0.4c0,0.4,0.4,0.8,0.9,0.8H274c0.5,0,0.9-0.4,0.9-0.8v-0.4h3.8v-3.4h-3.8v-0.4c0-0.4-0.4-0.8-0.9-0.8h-34.4
		c-0.5,0-0.9,0.4-0.9,0.8v0.4h-34.4c-0.4,0-0.7,0.3-0.7,0.6v0.5h-32.1V177c0-0.3-0.3-0.6-0.7-0.6h-36.5V176
		C134.1,175.5,133.7,175.1,133.2,175.1z"/>
	<path d="M275,167.5c0-0.4-0.4-0.8-0.9-0.8h-34.4c-0.5,0-0.9,0.4-0.9,0.8v0.4h-34.9c-0.4,0-0.7,0.3-0.7,0.6v0.5h-31.6v-0.5
		c0-0.3-0.3-0.6-0.7-0.6h-36.5v-0.4c-0.3-0.5-0.7-0.8-1.2-0.8h-7.6v5.8h7.7c0.5,0,0.9-0.4,0.9-0.8v-0.4h36.5c0.4,0,0.7-0.3,0.7-0.6
		v-0.3H203v0.3c0,0.3,0.3,0.6,0.7,0.6h34.9v0.4c0,0.4,0.4,0.8,0.9,0.8H274c0.5,0,0.9-0.4,0.9-0.8v-0.4h3.8v-3.4H275V167.5z"/>
</g>
</svg>
