<?xml version="1.0" encoding="utf-8"?>
<!-- Generator: Adobe Illustrator 25.3.0, SVG Export Plug-In . SVG Version: 6.00 Build 0)  -->
<svg version="1.1" id="Layer_1" xmlns="http://www.w3.org/2000/svg" xmlns:xlink="http://www.w3.org/1999/xlink" x="0px" y="0px"
	 viewBox="0 0 750.2 400.1" style="enable-background:new 0 0 750.2 400.1;" xml:space="preserve">
<g>
	<path d="M125.6,220.4v1.8h153.1v-1.9C227.7,219.7,176.6,219.7,125.6,220.4z"/>
	<path d="M125.6,191.4v7.4c51,2.8,102.1,2.9,153.1,0.1v-7.4C227.7,195.5,176.6,195.4,125.6,191.4z"/>
	<path d="M125.6,205.8v7.3c51.1,0.5,102.1,0.5,153.1,0v-7.3C227.7,207.5,176.6,207.5,125.6,205.8z"/>
	<path d="M125.6,169c51,7.9,102,8,153.1,0.3v-3.8h-24.8c-33.8,4-67.6,4-101.5,0h-26.9V169z"/>
	<path d="M125.6,176.1v7.4c51,5.3,102,5.5,153.1,0.2v-7.4C227.7,182.8,176.6,182.7,125.6,176.1z"/>
</g>
</svg>
