<?xml version="1.0" encoding="utf-8"?>
<!-- Generator: Adobe Illustrator 25.3.0, SVG Export Plug-In . SVG Version: 6.00 Build 0)  -->
<svg version="1.1" id="Layer_1" xmlns="http://www.w3.org/2000/svg" xmlns:xlink="http://www.w3.org/1999/xlink" x="0px" y="0px"
	 viewBox="0 0 750.2 400.1" style="enable-background:new 0 0 750.2 400.1;" xml:space="preserve">
<g>
	<path d="M125.6,167.6c0.9-0.7,1.8-1.4,2.7-2.1h-2.7V167.6z"/>
	<path d="M137.4,165.5c-1.9,1.5-3.8,3.1-5.8,4.6c-2,1.6-4,3.2-6,4.8v2.1c4.8-3.8,9.6-7.6,14.4-11.5H137.4z"/>
	<path d="M125.6,184.6v1.7c8.7-6.9,17.5-13.8,26.3-20.8h-2.1c-4.9,3.8-9.7,7.7-14.6,11.5C132,179.5,128.8,182,125.6,184.6z"/>
	<path d="M125.6,195.8c12.7-10.1,25.5-20.2,38.2-30.3h-1.5c-12.2,9.7-24.5,19.4-36.7,29.1V195.8z"/>
	<path d="M125.6,204.5v0.6c16.6-13.2,33.3-26.4,49.9-39.6h-0.8C158.4,178.5,142,191.5,125.6,204.5z"/>
	<path d="M125.6,214.3v0.2c20.7-16.2,41-33,61.6-49h-0.3C166.6,181.7,146.1,198,125.6,214.3z"/>
	<path d="M278.7,219.5v-0.6c-1.4,1.1-2.7,2.2-4.1,3.3h0.8C276.5,221.3,277.6,220.4,278.7,219.5z"/>
	<path d="M263,222.2c5.2-4.2,10.5-8.3,15.7-12.5v-0.3c-5.4,4.3-10.8,8.6-16.1,12.9H263z"/>
</g>
</svg>
