<?xml version="1.0" encoding="utf-8"?>
<!-- Generator: Adobe Illustrator 25.3.0, SVG Export Plug-In . SVG Version: 6.00 Build 0)  -->
<svg version="1.1" id="Layer_1" xmlns="http://www.w3.org/2000/svg" xmlns:xlink="http://www.w3.org/1999/xlink" x="0px" y="0px"
	 viewBox="0 0 750.2 400.1" style="enable-background:new 0 0 750.2 400.1;" xml:space="preserve">
<g>
	<path d="M171.7,165.5h-3.9c9.9,18.6,19.6,37.8,29.4,56.7h3.8C191.3,203.4,181.6,184.2,171.7,165.5z"/>
	<path d="M161.6,165.5h-4c10,18.4,19.9,37.6,29.7,56.7h3.8C181.4,203.2,171.6,184,161.6,165.5z"/>
	<path d="M151.2,165.5h-4c10.2,18.1,20.3,37.3,30.3,56.7h3.8C171.3,202.9,161.3,183.7,151.2,165.5z"/>
	<path d="M140.4,165.5h-4.1c10.6,17.8,20.9,37,31.2,56.7h3.7C161.1,202.6,150.8,183.4,140.4,165.5z"/>
	<path d="M129.2,165.5h-3.6v1.1c10.8,17.1,21.3,36,31.7,55.6h3.8C150.7,202.3,140.1,183.1,129.2,165.5z"/>
	<path d="M125.6,177.9v7.1c7.3,11.7,14.4,24.2,21.5,37.2h4C142.7,206.7,134.2,191.7,125.6,177.9z"/>
	<path d="M125.6,196.3v7.2c3.7,6.1,7.4,12.3,11,18.7h4.1C135.7,213.3,130.7,204.6,125.6,196.3z"/>
	<path d="M125.6,215.3v6.9h4.1C128.4,219.9,127,217.5,125.6,215.3z"/>
	<path d="M278.7,173.1v-7c-0.1-0.2-0.3-0.4-0.4-0.6h-5C275.1,168.1,276.9,170.6,278.7,173.1z"/>
	<path d="M278.7,190.8V184c-4.4-5.8-8.7-12.1-12.9-18.5h-4.5C267,174.5,272.8,183,278.7,190.8z"/>
	<path d="M278.7,208.5v-6.8c-8.4-10.9-16.5-23.1-24.5-36.2H250C259.3,181.2,268.8,195.8,278.7,208.5z"/>
	<path d="M275.7,222.2h3v-2.8c-12.3-15.5-24.1-33.9-35.6-53.9H239C250.9,186.4,263,205.9,275.7,222.2z"/>
	<path d="M262.6,222.2h4.8c-12-16.8-23.6-36.1-34.9-56.7h-4C239.7,185.9,251,205.2,262.6,222.2z"/>
	<path d="M250.6,222.2h4.5c-11.2-17.3-22.1-36.6-32.9-56.7h-4C228.9,185.5,239.6,204.8,250.6,222.2z"/>
	<path d="M239.2,222.2h4.3c-10.7-17.7-21.1-36.9-31.5-56.7h-3.9C218.4,185.1,228.7,204.4,239.2,222.2z"/>
	<path d="M228.5,222.2h4.1c-10.3-18-20.4-37.2-30.5-56.7h-3.8C208.2,184.9,218.2,204.1,228.5,222.2z"/>
	<path d="M218,222.2h3.9c-10.1-18.3-20-37.5-29.9-56.7h-3.7C198.2,184.6,208,203.8,218,222.2z"/>
	<path d="M182.2,165.5h-3.8c9.8,18.9,19.6,38.1,29.4,56.7h3.8C201.7,203.7,192,184.4,182.2,165.5z"/>
</g>
</svg>
