<?xml version="1.0" encoding="utf-8"?>
<!-- Generator: Adobe Illustrator 25.3.0, SVG Export Plug-In . SVG Version: 6.00 Build 0)  -->
<svg version="1.1" id="Layer_1" xmlns="http://www.w3.org/2000/svg" xmlns:xlink="http://www.w3.org/1999/xlink" x="0px" y="0px"
	 viewBox="0 0 750.2 400.1" style="enable-background:new 0 0 750.2 400.1;" xml:space="preserve">
<g>
	<path d="M270.7,183.5c0.3-2.2-1.2-1.9-2.6-1.9c-6.8,0-13.7,0-20.5,0c-1.1,0-2.3,0.3-2.3-1.6c0.1-2-1.7-0.9-2.6-1.2
		c0.2,2.5-1.1,3.2-3.4,2.8c0.4,1.6,0.1,2.6-1.9,2.7c-8,0.5-15.9,0.5-23.8,0.1c-0.2,0-0.3,0-0.5-0.1c-0.2,0-0.3,0-0.5,0
		c-0.6,0-1.1,0.1-1.7,0.1c-0.6,0.5-1.2,0.3-1.8,0.2c-0.7,1.2-0.1,2.5-0.3,3.7c-0.1,0.8,0.5,2-1.2,1.9c-1.1,0-1.8-0.3-1.6-1.5
		c0.2-1.1-0.5-1.3-1.5-1.4c-1.1,0-1.5,0.4-1.3,1.4c0.2,1.3-0.6,1.5-1.7,1.5c-0.9,0-1.8,0-2.7-0.1c-2.4-0.1-4.9-0.4-7.3,0
		c-1.2,0.2-2.3,1.7-3.5-0.1c-1,0.2-1.9,0.3-2.9,0c-0.9,0-1.8,0.1-2.7,0.1c0,0.9,2.5,0.6,1.1,2.4c-0.3,0.3,0.8,0.3,1.3,0.3
		c6.7,0,13.4,0.1,20.1,0.1c11.1,0,22.3,0,33.4,0.1c2.2,0,4.4,0,6.6,0c11.2,0,22.5-0.1,33.8-0.1v-8.5c-2.2,0-4.5,0-6.7,0
		C271.3,184.4,270.6,184.4,270.7,183.5z"/>
	<path d="M259.6,212.1V212c-0.7-0.7-0.2-1.5-0.4-2.3c-0.1-0.1-0.3-0.2-0.5-0.2c-9,0.4-18,0.4-27-0.1c-1.9,0-3.8,0-5.7,0
		c-2.1,0.5-4.1,0.5-6.2,0c-0.7,0-1.4,0-2.1,0c-0.3,0.2-0.5,0.3-0.8,0c-0.7,0.1-1.3,0.1-2,0.2c-1.1,0.5-2.2,2.4-3.5,0.3
		c-0.1,0-0.2,0.1-0.3,0.2c0.9,1.6-0.4,1.2-1.1,1.4c0.2,0.2,0.4,0.4,0.6,0.7c2.9,0.1,5.8,0.3,8.7,0.3c10,0,19.9,0,29.9,0
		c1.5,0,2.4,0.4,1.9,1.9c-0.5,1.6-2,0.8-3,0.8c-25.7,0.1-51.5,0-77.2,0c-8.1,0-16.2,0-24.4,0c-1.5,0-2.3,0.2-2,1.9
		c0.3,1.4,1.4,0.9,2.2,0.9c7.9,0,15.9,0,23.8,0c0.9,0,2.2-0.5,2.1,1.2c-0.1,2.6,1.8,1.5,2.9,1.5c1.1,0,3,0.9,2.7-1.6
		c-0.1-1.1,0.6-1.1,1.4-1.1c0.8,0,1.5,0,1.4,1.1c-0.3,2,1,1.7,2.2,1.7c10.6,0,21.2,0,31.8,0c21.3,0,42.4,0,63.7,0V218
		c-0.7,0-1.4,0-2.1,0c-2.3,0-4.5,0-6.8,0c-1.1,0-1.7-0.2-1.6-1.5c-0.4-1.1,0.2-1.3,1.1-1.3c3.1,0,6.3,0,9.4,0v-2.8
		c-6.1,0-12.1,0.1-18.2,0.1C260.2,212.5,259.9,212.2,259.6,212.1z"/>
	<path d="M278.7,165.7v-0.2h-58.4c0.3,1.4,1.1,2,2.6,1.9c2-0.1,4,0.1,6,0.1c0.5,0,1.1,0,1.6-0.1c8.8,0,17.5,0.1,26.3,0.1
		c3.9-0.1,7.7,0,11.6-0.2c2.1-0.1,2.7,0.5,2.1,2.4c1.2,1,2.6,0.2,3.9,0.4c0.9,0.1,1.7,0,1.7,1.4c0,1.3-0.6,1.5-1.7,1.4
		c-3.6,0-7.1,0-10.7,0c-9.3,0-18.6,0-27.9,0c-0.8,0-1.9-0.4-1.9,1.2c0,1.1,0.2,1.8,1.5,1.6c1.1-0.1,1.4,0.5,1.3,1.5
		c-0.1,1.2,0.6,1.4,1.5,1.3c1.4-0.1,2.8-0.1,4.3-0.1c-0.1-1.7,0.3-2.7,2.6-2.6c5.9,0.2,11.9,0.1,17.8,0.1c1.1,0,2.3-0.2,2.1,1.6
		c-0.2,1.3,0.7,1.2,1.5,1.2c0.9,0,1.4-0.2,1.3-1.2c-0.3-2,1.2-1.6,2.3-1.6c2.9,0,5.7,0,8.6,0V168c-0.7,1.4-1.5-0.1-2.3-0.2
		c0.4-0.9,1.2-0.6,1.8-0.7c-0.1-0.3-0.2-0.7-0.2-1c0-0.1,0-0.3-0.1-0.4c0.2,0,0.4,0.1,0.6,0.1C278.6,165.8,278.6,165.7,278.7,165.7z
		"/>
	<path d="M242.7,178.6c0,0,0,0-0.1-0.1C242.6,178.6,242.7,178.6,242.7,178.6z"/>
	<path d="M239.4,195.5c-8.9-0.4-17.7,0.4-26.6-0.3c-1.4-0.1-3,0.3-4.5,0.2c-9.1,0.1-18.2,0.1-27.3,0.2c-0.1,0.9-0.2,1.8-0.3,2.7
		c6.7,1.3,13.4-0.1,20.1,0c8.8,0.1,17.5-0.2,26.3,0.1c4.2,0.2,8.3-0.3,12.5-0.1c4.7,0.6,9.4-0.2,14.1,0c8.3,0,16.7,0,25,0v-2.9
		c-9.4,0-18.8,0-28.3,0.1C246.7,195.5,243,195.5,239.4,195.5z"/>
	<path d="M127.2,206.8c0.8,0,1.7,0,2.5,0c0.3,0,0.6,0,0.8,0c2.1,0.1,4.2,0.1,6.2,0.2c2.7-0.4,5.4-0.5,8.1,0.1c2,0.4,3.9-1.2,6-0.4
		c1.6,0.1,3.2,0.2,4.8,0.4c2.2-0.8,4.5-0.6,6.8-0.2c0.6,0,1.3,0,1.9,0c0.4-0.1,0.9-0.1,1.3-0.2c0.3,0,0.6,0,0.9,0
		c2.1-0.3,4.2-0.1,6.3,0c1,0.1,1.9,0.1,2.9,0.2c0.5-0.4,0.9-0.5,1.3,0c0.9-0.1,1.8-0.1,2.6-0.2c3.9-0.4,7.8-0.4,11.7,0
		c1-0.4,2,0,3.1,0.1c4.4-0.7,8.9-0.3,13.3-0.2c1.5,0,3-0.6,4.4,0.3c0.3,0,0.6,0,0.9,0c0.2,0,0.4-0.1,0.5-0.1c0.6-0.2,1.2-0.4,1.9,0
		c1.9,0,3.9-0.1,5.8-0.1c1-0.2,2.1-0.6,3.1,0.1c3.1,0.1,6.1,0.2,9.2,0.2c-0.8-2-3.1-2.1-4.5-3.2c-0.3,0-0.6,0-0.9,0
		c-0.7,0.2-1.5,0.3-2.2,0.5c0-0.2,0-0.4,0.1-0.6c0-0.9,0-1.8-0.1-2.7c-0.9,0-1.9,0-2.8,0c-0.3,0.9,0.9,2.5-0.9,2.8
		c-2.8,0.5-1.5-1.7-1.7-2.8c-2.5-0.8-2.6,1.4-3.2,2.8c-17.9,0-35.8,0.1-53.7,0.1c-12.7,0-25.3,0-38,0v2.9c0.1,0,0.2,0,0.3,0
		C126.3,206.6,126.8,206.5,127.2,206.8z"/>
	<path d="M144.6,191c-0.4,0-1,0.3-1.1-0.4c0-0.3,0-0.8,0.2-0.9c0.3-0.2,0.7,0,0.9,0.4c0.2,0,0.4,0.1,0.6,0.1
		c0.9-0.2,1.7-0.5,2.6-0.7c0.6-1.4,0.3-2.1-1.3-2.1c-0.7,0-1.4,0.4-2-0.2c-0.5,0.1-1,0.1-1.5,0.2c-0.2,0.3-0.5,0.9-0.5,0.9
		c-3.8-1.8-7.9-0.6-11.8-0.8c-1.7-0.1-3.4-0.1-5.1-0.1v5.6c5.5-0.1,11-0.1,16.6-0.2C143.4,192.8,144.9,193.1,144.6,191z"/>
	<path d="M146.1,175.9c2.6,0,5.3,0.1,7.9,0c0.9,0,1.7,0,1.5,1.3c-0.3,1.8,1,1.5,2,1.5c7,0,14,0,21,0c1.3,0,2.5-0.1,2.2,1.8
		c-0.1,0.9,0.4,1.1,1.1,1.1c3,0,6,0,9,0c0.8,0,1.2-0.3,1.2-1.1c0-0.6,0.2-1.7-0.6-1.6c-3,0.3-2.4-1.8-2.3-3.4c0.2-2-0.7-2.4-2.5-2.3
		c-6.6,0.1-13.3,0-20,0c-6.7-0.1-13.6-0.1-20.5-0.1c-1.1,0-1.9,0.1-1.9,1.6C144.2,176.3,145.2,175.9,146.1,175.9z"/>
	<path d="M135.1,201c7,0.4,14,0.1,20.9,0.2c0.2,0,0.4,0,0.7,0c0.2,0,0.3,0,0.5-0.1c-1.1-0.8-2.2-1.6-3.4-2.4
		c2.4,0.1,5.1-1.4,7.2,0.8c0.5,0.5,1.1,0,1.4-0.2c1.4-1,3.1-0.9,4.7-0.9c2.8-0.1,5.5,0.6,8.3,0c-0.1-0.9-0.2-1.8-0.3-2.7
		c-12.2,0-24.4,0-36.6,0c0.6,2.1-0.2,2.8-2.5,2.7c-3.1-0.2-6.3,0-9.4,0c0.5,1.4,0,2-1,2.1v0.3C128.7,201.7,132,200.7,135.1,201z"/>
	<path d="M201.3,178.7c0.6,0,1.3,0,1.9,0c1.4,0,3.1-0.5,2.8,2c-0.1,0.8,0.5,0.8,1.1,0.8c2,0,4,0,6,0c1.1,0,1.4-0.5,1.4-1.5
		c0-1.1-0.5-1.4-1.5-1.4c-1.7,0-3.5,0-5.2,0c-0.8,0-1.8,0.4-1.9-1.2c0-1.5,0.7-1.6,1.8-1.6c4.2,0,8.5,0.6,12.6-0.2
		c3.2-0.6,2,4.3,5,3.2c0.3-0.1,0.4,0.7,0.3,1.2c-0.1,1,0.2,1.4,1.3,1.5c1.3,0,1.6-0.5,1.5-1.6c-0.1-1,0.4-1.2,1.3-1.3
		c3.2-0.4,1-2.8,1.4-4.3c0.5-1.6-1-1.3-1.9-1.3c-4.9,0-9.8,0-14.8,0s-10,0-15,0c-0.7,0.1-1.5-0.3-1.8,1.1
		C196.9,177.9,197.5,178.7,201.3,178.7z"/>
	<path d="M135.7,165.5h-10.1v2.2c3.4,0,6.7,0,10.1,0C136,166.7,136,166,135.7,165.5z"/>
	<path d="M163.7,190.1c-1.1,0.2-2.1,0.3-3.2,0.5c0.5,0.7,0.9,1.5,1.4,2.2c4.6,0,9.3-0.1,13.9-0.2c0.8,0,1.9,0.5,2.4-0.7
		c0.1-0.3,0.8-0.1,0.6-0.7c-0.1-0.4-0.5-0.4-0.8-0.5c-0.5-0.1-1.7,1.3-1.6-0.6C172.1,189.7,167.9,190.1,163.7,190.1z"/>
	<path d="M205.8,167.5c0.2-0.7,0.4-1.4,0.6-2h-5.9c0,0.7,0.1,1.3,0.1,2C202.3,167.5,204,167.5,205.8,167.5z"/>
	<path d="M164.8,211c-0.2,0.1-1.8,0.2-0.4,1.1c2.4,0.1,4.7,0.5,7.5,0.1c-1.7-1.2-3.8-1.1-4.7-2.8c-0.3,0.6-0.9,0.2-1.3,0.3
		C166.6,211.2,165.4,210.8,164.8,211z"/>
	<path d="M140,175.9c1,0,1.5-0.2,1.5-1.3c0-1.2-0.4-1.6-1.6-1.5c-1.1,0-1.4,0.5-1.3,1.5C138.4,175.7,139,175.9,140,175.9z"/>
	<path d="M220.3,167.2c-0.4-0.5-0.6-1.2-0.9-1.7h-1.9c0.2,0.7,0.7,1.2,0.8,1.9C218.9,167.3,219.6,167.8,220.3,167.2z"/>
	<path d="M175.9,201c2.5,0,5,0,7.6,0C181,200,178.4,200,175.9,201z"/>
	<path d="M236.7,205.7c-1.1,0.3-1.1-0.8-1.4-1.6c-0.5-0.1-0.9-0.1-1.4-0.2c-0.3,1.1,1.4,1.5,1,2.6c1.1,0,2.2,0,3.3,0
		c0.1-0.8,0-1.7,0.6-2.4c-0.7-0.4-1.4-0.2-2.2-0.2C236.6,204.6,237.4,205.5,236.7,205.7z"/>
	<path d="M239.5,206.5c-0.3,0-0.5,0-0.8,0C239,206.9,239.2,207,239.5,206.5z"/>
	<path d="M209.7,211.4c0-0.1-0.1-0.1-0.1-0.2C209.6,211.3,209.6,211.4,209.7,211.4L209.7,211.4z"/>
	<path d="M145.9,220.8c-6.7,0-13.5,0.1-20.3,0.1v1.3h21.8c0-0.2,0-0.4,0-0.6C147.4,220.8,146.6,220.8,145.9,220.8z"/>
	<path d="M277.5,200.9c-2,0.2-4.2,0.1-6.2-0.5c-2.5,1.1-5,0.2-7.5,0.5c-1,0.1-2,0-3,0c-1.4,0-2.7,0.1-4.1,0.1c0.1,2.5-1.3,3-3.5,2.9
		c-2.4-0.2-4.8,0.5-7.2-0.1c-0.2,0.3-0.4,0.5-0.7,0.1c-2,0.1-4-0.3-6,0.3c0.9,1.3,2.4,0.3,3.5,0.9c-0.5,1.5-2.3,0.1-2.8,1.4
		c3.6,0.1,7.2,0.1,10.8,0.2c2.8-0.2,5.6-0.3,8.4,0.1c2.3,0,4.6,0,6.9,0c0.5,0.5,1.2,0.3,1.8,0.3c3.2,0,6.3-0.2,9.5-0.3
		c0.4,0,0.9,0,1.3,0v-5.9C278.3,200.9,277.9,200.8,277.5,200.9z"/>
</g>
</svg>
