<?xml version="1.0" encoding="utf-8"?>
<!-- Generator: Adobe Illustrator 25.3.0, SVG Export Plug-In . SVG Version: 6.00 Build 0)  -->
<svg version="1.1" id="Layer_1" xmlns="http://www.w3.org/2000/svg" xmlns:xlink="http://www.w3.org/1999/xlink" x="0px" y="0px"
	 viewBox="0 0 750.2 400.1" style="enable-background:new 0 0 750.2 400.1;" xml:space="preserve">
<g>
	<path d="M147,112.7c-2.1,0.9-4.2,1.8-6.3,2.8c-0.3,1.4-0.6,2.9-1,4.5c4.9-2.1,9.7-4.2,14.6-6.4C151.4,113.2,149,112.9,147,112.7z"
		/>
	<path d="M156.1,120.7l0.7-4.2c-6,2.6-12.1,5.3-18.1,7.9c-0.3,1.4-0.6,2.8-0.9,4.3C143.9,126.1,150,123.4,156.1,120.7z"/>
	<path d="M155.2,126c-6.2,2.7-12.3,5.4-18.5,8c-0.2,1.1-0.5,2.2-0.7,3.4c6.2-2.7,12.4-5.4,18.6-8.1L155.2,126z"/>
	<path d="M153.2,137.9l0.5-2.7c-6.3,2.7-12.5,5.5-18.8,8.2c-0.2,0.9-0.4,1.8-0.5,2.7C140.6,143.4,146.9,140.6,153.2,137.9z"/>
	<path d="M132.6,154.8c6.4-2.8,12.7-5.5,19.1-8.3l0.3-1.9c-6.4,2.8-12.7,5.5-19.1,8.3C132.8,153.5,132.7,154.1,132.6,154.8z"/>
	<path d="M150.2,155.2l0.3-1.5c-6.5,2.8-12.9,5.6-19.3,8.4c-0.1,0.5-0.2,1-0.3,1.5c2.7-1.2,5.4-2.3,8.1-3.5
		C142.7,158.5,146.4,156.8,150.2,155.2z"/>
	<path d="M142,166.8c2.2-1,4.5-2,6.7-3l0.2-1c-6.5,2.8-13,5.7-19.6,8.5c-0.1,0.4-0.1,0.7-0.2,1.1C133.4,170.6,137.7,168.7,142,166.8
		z"/>
	<path d="M147.2,172.5l0.1-0.6c-6.6,2.9-13.2,5.7-19.8,8.6c0,0.2-0.1,0.4-0.1,0.6C134,178.3,140.6,175.4,147.2,172.5z"/>
	<path d="M145.7,181.1l0-0.2c-6.6,2.9-13.3,5.8-19.9,8.7c0,0.1,0,0.1,0,0.2C132.4,186.9,139.1,184,145.7,181.1z"/>
	<path d="M606.5,112.5c-0.1-0.5-0.2-0.9-0.3-1.4c-2,0.4-6.7,1.1-13.8,2.1c-0.3,0.1-0.6,0.3-1,0.4l0.9,5
		C597.1,116.6,601.8,114.5,606.5,112.5z"/>
	<path d="M607.1,115.3c-4.8,2.1-9.5,4.2-14.3,6.2l0.8,4.6c4.8-2.1,9.6-4.2,14.4-6.2C607.7,118.2,607.4,116.7,607.1,115.3z"/>
	<path d="M608.8,123.3c-4.8,2.1-9.7,4.2-14.5,6.3l0.7,3.8c4.9-2.1,9.8-4.3,14.6-6.4C609.3,125.7,609,124.5,608.8,123.3z"/>
	<path d="M611.1,134.4c-0.2-1.2-0.5-2.4-0.7-3.5c-4.9,2.2-9.8,4.3-14.7,6.5l0.6,3.5C601.2,138.7,606.1,136.5,611.1,134.4z"/>
	<path d="M612,138.8c-5,2.2-10,4.4-15,6.5l0.5,2.9c5-2.2,10-4.4,15-6.6C612.4,140.6,612.2,139.7,612,138.8z"/>
	<path d="M614.1,148.9c-0.2-0.8-0.3-1.5-0.5-2.3c-5.1,2.2-10.1,4.4-15.2,6.6l0.4,2.3C603.9,153.3,609,151.1,614.1,148.9z"/>
	<path d="M615.5,156.1c-0.1-0.5-0.2-1.1-0.3-1.6c-5.1,2.2-10.2,4.5-15.3,6.7l0.3,1.6C605.2,160.6,610.4,158.3,615.5,156.1z"/>
	<path d="M617,163.6c-0.1-0.4-0.2-0.8-0.3-1.3c-5.1,2.2-10.2,4.4-15.2,6.6c-0.1,0-0.2,0.1-0.3,0.1l0.2,1.3
		C606.6,168.1,611.8,165.9,617,163.6z"/>
	<path d="M618.4,171.1c-0.1-0.3-0.1-0.7-0.2-1c-5.2,2.3-10.4,4.6-15.7,6.8l0.2,1C608,175.6,613.2,173.4,618.4,171.1z"/>
	<path d="M619.9,178.4c0-0.2-0.1-0.3-0.1-0.5c-5.3,2.3-10.5,4.6-15.8,6.9l0.1,0.5C609.3,183,614.6,180.7,619.9,178.4z"/>
	<path d="M621.3,185.8c0-0.1,0-0.1,0-0.2c-5.3,2.3-10.6,4.6-15.9,7l0,0.2C610.7,190.5,616,188.1,621.3,185.8z"/>
</g>
</svg>
