<?xml version="1.0" encoding="utf-8"?>
<!-- Generator: Adobe Illustrator 25.3.0, SVG Export Plug-In . SVG Version: 6.00 Build 0)  -->
<svg version="1.1" id="Layer_1" xmlns="http://www.w3.org/2000/svg" xmlns:xlink="http://www.w3.org/1999/xlink" x="0px" y="0px"
	 viewBox="0 0 750.2 400.1" style="enable-background:new 0 0 750.2 400.1;" xml:space="preserve">
<path d="M351.2,254.6L351.2,254.6L351.2,254.6l0.1,0l0,0l2.1-0.8c-0.3-2-0.6-4.1-0.9-6.2l-1.9,0.7l-0.1,0l-16.3-2l1.1,6.3
	L351.2,254.6z"/>
<path d="M117.3,254.6L117.3,254.6l0.1,0l0,0l16-2l1.1-6.3l-16.4,2l-0.1,0l-2.3-0.8c-0.3,2.1-0.6,4.1-0.9,6.2L117.3,254.6
	L117.3,254.6z"/>
<path d="M629.8,254.7L629.8,254.7l0.1,0l0,0l3-1.1c-0.3-2-0.6-4.1-0.9-6.2l-2.8,1.1l-0.1,0l-14.3-1.8l1.1,6.3L629.8,254.7
	L629.8,254.7z"/>
<path d="M397.7,254.6L397.7,254.6L397.7,254.6l0.1,0l0,0l13-1.6l1.1-6.3l-13.4,1.7l-0.1,0l-3.1-1.2c-0.3,2.1-0.6,4.1-0.9,6.2
	L397.7,254.6z"/>
</svg>
