<?xml version="1.0" encoding="utf-8"?>
<!-- Generator: Adobe Illustrator 25.3.0, SVG Export Plug-In . SVG Version: 6.00 Build 0)  -->
<svg version="1.1" id="Layer_1" xmlns="http://www.w3.org/2000/svg" xmlns:xlink="http://www.w3.org/1999/xlink" x="0px" y="0px"
	 viewBox="0 0 750.2000122 400.1000061" style="enable-background:new 0 0 750.2000122 400.1000061;" xml:space="preserve">
<g>
	<polygon points="643.3430176,166.5984802 643.3478394,161.7063293 643.3447266,161.7026062 	"/>
	<path d="M141.484436,73.4433289h17.0848389c-1.098999-2.6747437-1.9730835-5.3069458-2.6486816-7.7987671l-1.8911133,0.5372925
		C149.3598022,68.0220032,145.2033081,70.4289856,141.484436,73.4433289z"/>
	<path d="M250.9718628,66.3537292l-2.1310425-0.6044312c-0.6633911,2.4667969-1.5184326,5.0615845-2.5916748,7.6940308h16.550415
		C259.1911011,70.4162292,255.2483521,68.0412292,250.9718628,66.3537292z"/>
	<path d="M251.5734253,49.3591003l-0.3299561,0.1072998c-0.0546265,2.4840088-0.5007935,9.1384888-1.8330688,15.0980835
		l2.4470215,0.9411621c12.7568359,4.9985352,19.7647095,13.3646851,27.8370361,29.1439819
		c5.5424805,10.8340454,7.2548828,22.3964844,8.8085938,29.8476562c0.2158203,1.0385742,0.4160156,1.9975586,0.6035156,2.8647461
		c2.5673828,11.8549805,8.390625,19.300293,9.8095703,20.9794922l50.0088501,9.5546875l16.1728516-74.175293L251.5734253,49.3591003
		z"/>
	<path d="M115.4869995,127.2257996l0.4541016-2.1254883c1.5117188-7.1064453,4.0410156-19,8.9560547-30.5800781
		c6.6132812-15.5854492,14.0193481-22.614624,25.6898804-28.0734253l5.0823364-2.2587891l-0.4737549-1.4563599
		c-1.3706055-6.0641479-1.6524048-10.977417-1.7032471-13.1689453c-0.0014648-0.06073,0.0089111-0.1186523,0.0117188-0.1784668
		L40.1486206,83.7209167l16.1738281,74.1738281l49.3149414-9.7929688
		C107.4586792,145.9572449,113.0036011,138.6921082,115.4869995,127.2257996z"/>
	<path d="M510.3527222,48.099823l0.0263672-0.0214844c-1.5332031,0.0932617-2.9609375,0.1850586-4.2763672,0.2719727
		c-1.8652344,0.1147461-3.4882812,0.2216797-4.8105469,0.3134766c-1.1367188,0.078125-1.6103516,0.1420898-1.8076172,0.1816406
		l-0.0996094,0.0244141l-14.0205078,4.2753906l-100.6435547,30.574707l16.3583984,73.4267578l47.8522949-9.3366699
		c0.1445312-0.1757812,0.3066406-0.3764648,0.4960938-0.621582c0.6621094-0.8540039,1.6884766-2.2661133,2.8144531-4.1430664
		c1.9990234-3.3310547,4.7050781-8.7949219,6.2470703-15.909668c0.2177734-1.0078125,0.4462891-2.1142578,0.6914062-3.3066406
		c1.4960938-7.269043,3.5449219-17.2246094,8.0175781-27.6411133c6.3671875-14.8339844,17.1240234-25.5300293,29.5830078-32.8464355
		l24.4404297-15.6225586c-2.1435547,0.0966797-7.4606934,0.1982422-9.3532715,0.2998047L510.3527222,48.099823z"/>
	<path d="M593.6339722,48.6906433l-0.2050781-0.0336914c-3.3271484-0.2275391-13.6297607-0.5932617-21.7000732-0.9448242
		l22.7988281,15.6484375c12.4287109,7.2973633,23.2912598,18.5288086,29.6584473,33.362793
		c4.4726562,10.4165039,6.5668945,20.0265503,8.0629883,27.2955933c0.2451172,1.1923828,0.4736328,2.2988281,0.6914062,3.3066406
		c1.5419922,7.1147461,4.2480469,12.5786133,6.2470703,15.909668c1.0029297,1.6713867,2.0996094,3.3237305,2.8808594,4.3408203
		c0.3154297,0.1240234,3.2530518,0.6575317,3.9776611,0.7727661c1.2275391,0.1943359,1.6904297,0.2783203,1.9189453,0.3886719
		l45.7304688,8.4125977l16.3583984-73.4291992L593.6339722,48.6906433z"/>
</g>
</svg>
