<?xml version="1.0" encoding="utf-8"?>
<!-- Generator: Adobe Illustrator 25.3.0, SVG Export Plug-In . SVG Version: 6.00 Build 0)  -->
<svg version="1.1" id="Layer_1" xmlns="http://www.w3.org/2000/svg" xmlns:xlink="http://www.w3.org/1999/xlink" x="0px" y="0px"
	 viewBox="0 0 750.2 400.1" style="enable-background:new 0 0 750.2 400.1;" xml:space="preserve">
<polygon points="105.2,172.5 105.2,218.8 299.7,218.8 299.7,172.5 "/>
<path d="M105.2,306.3V353c5.1,1.1,57.3,12,95.3,11.5c40.5-0.6,93.8-10.6,99-11.6v-46.6H105.2z"/>
<polygon points="448.3,229.7 642.8,229.7 642.8,172.5 448.3,172.5 "/>
<path d="M448.3,306.3V353c0.1,0,0.1,0,0.2,0l0.2,0.1c0.4,0.2,30,15.2,65.4,21.5h59.7c34.8-6.1,65.6-20.1,68.8-21.6v-46.7H448.3z"/>
<path d="M251.2,49.5c-0.1,2.5-0.5,9.1-1.8,15.1l2.4,0.9c3.1,1.2,5.9,2.6,8.4,4.3l3.9-16.7l-12.6-3.8L251.2,49.5z"/>
<path d="M140.4,53.3l3.8,16.5c2-1.2,4.1-2.3,6.3-3.4l5.1-2.3l-0.5-1.5c-1.4-6.1-1.7-11-1.7-13.2c0-0.1,0-0.1,0-0.2L140.4,53.3z"/>
<path d="M487.9,69.4c2.8-2.2,5.8-4.2,8.9-6l24.4-15.6c-2.1,0.1-7.5,0.2-9.4,0.3l-1.5,0.1l0,0c-1.5,0.1-3,0.2-4.3,0.3
	c-1.9,0.1-3.5,0.2-4.8,0.3c-1.1,0.1-1.6,0.1-1.8,0.2h-0.1l-14,4.3l-1.1,0.3L487.9,69.4z"/>
<path d="M594.5,63.4c3.7,2.1,7.2,4.6,10.5,7.5l4.1-17.5l-15.4-4.6h-0.2c-3.3-0.2-13.6-0.6-21.7-0.9L594.5,63.4z"/>
<path d="M448.3,340.3v12.8c0.1,0,0.1,0,0.2,0l0.2,0.1c0.5,0.2,48.2,24.4,95.1,24.4c45.1,0,94.6-22.5,98.9-24.5l0-12.8H448.3z"/>
</svg>
