<?xml version="1.0" encoding="utf-8"?>
<!-- Generator: Adobe Illustrator 25.3.0, SVG Export Plug-In . SVG Version: 6.00 Build 0)  -->
<svg version="1.1" id="Layer_1" xmlns="http://www.w3.org/2000/svg" xmlns:xlink="http://www.w3.org/1999/xlink" x="0px" y="0px"
	 viewBox="0 0 750.2 400.1" style="enable-background:new 0 0 750.2 400.1;" xml:space="preserve">
<g>
	<path d="M115.9,246.5c-2.6,16.8-4.5,31.6-5.1,42c5.4,0.9,10.7,1.7,16,2.3l7.2-41.5L115.9,246.5z"/>
	<path d="M133.6,149.8l17.1,2.6l6.5-37.6l-15.8-2.4C139.3,121.6,136.6,134.7,133.6,149.8z"/>
	<path d="M127.8,179.2c-2.4,12.3-4.7,25.1-6.9,37.6l18.2,2.8l6.5-37.6L127.8,179.2z"/>
	<path d="M410.9,252.3l-16-2.5c-2.3,15.1-4,28.3-4.6,37.9l14.1,2.2L410.9,252.3z"/>
	<path d="M412.4,153.1l15.2,2.3l6.5-37.6l-14-2.1C418.1,125.3,415.3,138.3,412.4,153.1z"/>
	<path d="M406.7,182.5c-2.4,12.4-4.7,25.2-6.9,37.6l16.2,2.5l6.5-37.6L406.7,182.5z"/>
	<path d="M357.4,287.8c-0.6-9.7-2.3-22.9-4.6-37.9l-17.5,2.7l6.6,37.6L357.4,287.8z"/>
	<path d="M311.7,118l6.6,37.6l17-2.6c-3-14.7-5.7-27.8-7.7-37.5L311.7,118z"/>
	<path d="M347.9,220.1c-2.2-12.4-4.5-25.2-6.9-37.6l-17.6,2.7l6.6,37.6L347.9,220.1z"/>
	<path d="M622.4,289.6l14.6-2.2c-0.7-9.7-2.4-22.9-4.6-37.9l-16.6,2.5L622.4,289.6z"/>
	<path d="M592.1,117.5l6.6,37.6l16.1-2.5c-3-14.8-5.7-27.8-7.7-37.5L592.1,117.5z"/>
	<path d="M604,184.6l6.6,37.6l16.9-2.6c-2.2-12.4-4.5-25.2-6.9-37.6L604,184.6z"/>
</g>
</svg>
