<?xml version="1.0" encoding="utf-8"?>
<!-- Generator: Adobe Illustrator 25.3.0, SVG Export Plug-In . SVG Version: 6.00 Build 0)  -->
<svg version="1.1" id="Layer_1" xmlns="http://www.w3.org/2000/svg" xmlns:xlink="http://www.w3.org/1999/xlink" x="0px" y="0px"
	 viewBox="0 0 750.2 400.1" style="enable-background:new 0 0 750.2 400.1;" xml:space="preserve">
<g>
	<polygon points="643.3,166.6 643.3,161.7 643.3,161.7 	"/>
	<path d="M288,128c-0.2-0.9-0.4-1.8-0.6-2.9c-1.1-5.2-2.5-12.2-5-19.7H121.9c-2.6,8-4.2,15.5-5.3,20.6l-0.5,2.2
		c-2.7,12.4-8.8,20.2-10.6,22.3c-0.1,0.1-0.2,0.2-0.4,0.4l0,0.5h194.6l0-0.2c-0.4-0.1-0.9-0.4-1.2-0.7
		C296.8,148.3,290.7,140.6,288,128z"/>
</g>
</svg>
