<?xml version="1.0" encoding="utf-8"?>
<!-- Generator: Adobe Illustrator 25.3.0, SVG Export Plug-In . SVG Version: 6.00 Build 0)  -->
<svg version="1.1" id="Layer_1" xmlns="http://www.w3.org/2000/svg" xmlns:xlink="http://www.w3.org/1999/xlink" x="0px" y="0px"
	 viewBox="0 0 750.2 400.1" style="enable-background:new 0 0 750.2 400.1;" xml:space="preserve">
<style type="text/css">
	.st0{fill:none;stroke:#000000;stroke-width:0;stroke-linecap:round;stroke-linejoin:round;}
</style>
<g>
	<path d="M392.2,269.3c-0.7,5.2-1.2,10-1.5,14.3l3.2,4.1l-1.4-10l1.4,10l1.2,1.6c3.1,0.5,6.2,0.9,9.2,1.2l6-34.6L392.2,269.3z"/>
	<path d="M404,196.9c-0.3,1.4-0.5,2.7-0.8,4.1l12,15.6l2.5-17.7L404,196.9z"/>
	<path d="M415.2,216.6l0.3,0l-17.2,12.8c-0.7,3.9-1.3,7.7-1.9,11.5l15.6,2.2l3.7-26.4l0.1,0l1.1,1.4l0.5-3.1L415.2,216.6z"/>
	<path d="M425.2,169.5l-18.7,13.8c-0.8,4.4-1.7,8.9-2.5,13.4l16.1,2.3L425.2,169.5z"/>
	<path d="M427,132.5l0.3,0l-12.6,9.3c-1,4.9-2,10.1-3.1,15.4l12.1,1.7l3.7-26.4l0.1,0l3.3,4.3l1.4-8.3L427,132.5z"/>
	<path d="M434.4,115.7l0.4-2.1c-7.3-0.7-12-1.4-13.9-1.7c-0.6,2.9-1.3,6.3-2.1,9.9l8.2,10.6l2.4-17.4L434.4,115.7z"/>
	<path d="M113.5,262.8c-1.4,10-2.3,18.8-2.7,25.7c2.3,0.4,4.5,0.7,6.7,1.1l1-6.8l9.5,1.3l6.3-36.6L113.5,262.8z"/>
	<path d="M124.3,198c-0.7,3.8-1.4,7.6-2.1,11.3l5.6,7.2l2.5-17.7L124.3,198z"/>
	<path d="M127.8,216.6l0.3,0l-8.2,6c-1.1,6.6-2.2,13-3.2,19.3l7.8,1.1l3.7-26.4l0.1,0l9.3,12l3.8-22.2L127.8,216.6z"/>
	<path d="M124.3,197.8l18.1,2.5l6.8-39.3l-20.9,15.4C127,183.5,125.6,190.6,124.3,197.8z"/>
	<path d="M136.6,134.9c-1.5,7.2-3.1,15.1-4.7,23.4l4.4,0.6l3.7-26.4l0.1,0l11.5,14.9l4.7-27.3l-16.7,12.3l0.3,0L136.6,134.9z"/>
	<path d="M155.8,117l0.4-3.2c-7.8-0.9-12.9-1.6-14.9-1.9c-1.1,5-2.4,11.1-3.8,18l1.9,2.5L142,115L155.8,117z"/>
	<path d="M345.3,290.3l-3.9-2.9l0.6,3.3C343.1,290.6,344.2,290.4,345.3,290.3z"/>
	<line class="st0" x1="394" y1="289.1" x2="393.8" y2="287.7"/>
	<line class="st0" x1="392.4" y1="277.7" x2="393.8" y2="287.7"/>
	<path d="M336.9,244.9l5.6,39.8l13.8-1.9l0.8,5.8c0.1,0,0.2,0,0.3,0c-0.5-8.1-1.7-18.8-3.5-31.1L337,244.9L336.9,244.9z"/>
	<path d="M345.9,209l1.1,7.6l0.2-0.3C346.8,213.8,346.4,211.4,345.9,209z"/>
	<path d="M346.5,216.6l0.1,0l3.7,26.4l1.4-0.2c-1.3-8.2-2.8-16.9-4.3-25.7l-0.6-0.5l0.3,0l-20.6-15.2l0.5,3.7l5.3,30.2L346.5,216.6z
		"/>
	<polygon points="326.4,201.5 326.5,201.4 326.3,201.4 	"/>
	<path d="M325.1,160.8l5.6,39.8l13.4-1.9c-1.7-9.4-3.5-18.8-5.3-27.9l-13.6-10L325.1,160.8z"/>
	<path d="M318.1,154.2l13.8-18c-0.5-2.6-1-5-1.5-7.4L315,117.5l-0.3,0l2.4,17.4l-2.4,0.3L318.1,154.2z"/>
	<path d="M327.6,115.7c-0.4-1.6-0.7-3.2-1-4.6c-1.4,0.3-4.2,0.7-8.3,1.3l0.6,4.5L327.6,115.7z"/>
	<polygon points="314.4,117.6 311.7,118 312.2,120.5 	"/>
	<path d="M625.9,285.2l-0.3,0l0.7,4.8c1.7-0.2,3.5-0.5,5.2-0.7L625.9,285.2z"/>
	<path d="M624.3,244.9l5.6,39.8l6.8-1c-0.8-8.9-2.2-20.2-4.1-32.8l-8.2-6L624.3,244.9z"/>
	<polygon points="625.4,285.3 621.8,285.8 622.4,289.2 	"/>
	<path d="M614.1,242.4l14.1-18.3c-0.8-4.6-1.6-9.2-2.5-13.9l-11.9-8.8l2.5,17.7l-6.2,0.9L614.1,242.4z"/>
	<polygon points="608.2,208.8 613.9,201.4 607.1,202.3 	"/>
	<path d="M612.5,160.8l5.6,39.8l5.8-0.8c-2.2-12.2-4.6-24.3-6.8-35.7l-4.4-3.3L612.5,160.8z"/>
	<path d="M613.1,144.3c-1.7-8.3-3.2-15.8-4.6-22.3l-6.1-4.5l-0.3,0l2.4,17.4l-9.1,1.3l4.4,25.2L613.1,144.3z"/>
	<path d="M607.4,116.8c-0.4-2-0.8-4-1.2-5.7c-0.2,0-0.4,0.1-0.6,0.1l0.8,5.7L607.4,116.8z"/>
	<polygon points="601.9,117.6 592.4,118.9 594,127.9 	"/>
</g>
</svg>
