<?xml version="1.0" encoding="utf-8"?>
<!-- Generator: Adobe Illustrator 25.3.0, SVG Export Plug-In . SVG Version: 6.00 Build 0)  -->
<svg version="1.1" id="Layer_1" xmlns="http://www.w3.org/2000/svg" xmlns:xlink="http://www.w3.org/1999/xlink" x="0px" y="0px"
	 viewBox="0 0 750.2 400.1" style="enable-background:new 0 0 750.2 400.1;" xml:space="preserve">
<path d="M262,117.2c0.1,4.4,0.4,8.5,1.3,11.1c1,3.3,5.2,10,5.2,10c0.2,0.3,0.1,0.8-0.2,1l-5.7,4.1c-0.1,0.1-0.3,0.1-0.5,0.1
	c-0.1,0-0.1,0-0.2,0c-0.2-0.1-0.4-0.2-0.5-0.4c-0.2-0.4-4.3-9.6-5.1-15.3c-0.2-1.7-0.1-4.8,0-8.5c0-0.6,0-1.3,0.1-2
	c-6.6,0.2-13.6,0.3-21,0.3v119.5h-0.7l15,50.4c4.6,0.9,44.2,8.3,90.8,3.3l-31.2-177.3C298,114.9,281.9,116.4,262,117.2z
	 M318.5,183.4l0.1,0.8l0.1,0.8l-7,1.3l-9.4-56.9l6.5-0.6l0.1,0.8l0.1,0.8l-4.8,0.5l8.9,53.7L318.5,183.4z M310.9,113.4L342,290.7
	c5.1-0.6,10.2-1.3,15.4-2.2c-2.3-39.3-23-141.3-30.8-177.4C324.5,111.5,319.1,112.4,310.9,113.4z M326.3,109.6
	c-1.1-5.2-1.9-8.8-2.3-10.4l-1.3-0.2c-3.2,0.2-11.7,0.8-22.9,1.4c-10.5,0.5-23.9,1.1-37.8,1.5c0,1.8,0,4-0.1,6.7c0,0.6,0,1.2,0,1.8
	c0,1.7-0.1,3.5,0,5.2c30.2-1.2,51.7-4.1,60.7-5.5C324.3,109.9,325.5,109.7,326.3,109.6z M141.4,111.9
	c-7.9,36.8-28.3,137.6-30.6,176.6c5.4,0.9,10.7,1.7,16,2.3l30.5-176.9C148.9,113,143.4,112.2,141.4,111.9z M213.4,119.6
	c0.1,3.7,0.2,6.8,0,8.5c-0.9,6-6.7,9.1-6.9,9.2c-0.1,0.1-0.2,0.1-0.4,0.1s-0.4-0.1-0.6-0.2l-4.3-4.4c-0.2-0.2-0.2-0.4-0.2-0.7
	s0.2-0.5,0.4-0.6c0,0,3.7-1.9,4.7-4.9c0.9-2.3,1.2-5.7,1.4-9.3c-20.4-0.7-37.2-2.1-48.8-3.3l-30.4,177c46.4,5,85.7-2.4,90.3-3.3
	l15.3-51.4V117.8c-7.2,0-14-0.1-20.5-0.3C213.3,118.2,213.4,118.9,213.4,119.6z M165.8,130l-9.3,56.1l-7-1.3l0.1-0.8l0.1-0.8l5.4,1
	l8.9-53.7l-4.8-0.5l0.1-0.8l0.1-0.8l6.5,0.6L165.8,130z M213.3,110.7c0,1.7,0,3.5,0,5.2c6.9,0.2,14.1,0.3,21.7,0.3
	c7.5,0,14.6-0.1,21.4-0.3c0-1.7,0.1-3.6,0-5.4c-0.1-3.5-0.3-6.8-1.1-8.4c-7.2,0.2-14.3,0.3-21.2,0.3c-6.4,0-13-0.1-19.7-0.3
	C213.6,103.7,213.3,107,213.3,110.7z M207.6,115.7c0-1.7,0-3.4,0-5c0-0.9,0-1.8,0-2.7c0-2.5,0-4.5,0-6.1c-14.3-0.4-28.3-1-39.2-1.6
	c-11.1-0.6-19.6-1.2-22.9-1.4l-1.3,0.2c-0.4,1.7-1.3,5.6-2.5,11.2c0.9,0.1,2.4,0.3,4.4,0.6C155.7,112.2,177.6,114.7,207.6,115.7z
	 M223.9,101.2L223.9,101.2L223.9,101.2z M203.1,132.3l3.1,3.3c1.3-0.9,5-3.6,5.6-7.8c0.2-1.5,0.1-4.6,0-8.2
	c-0.3-10.1-0.3-18,2.4-19.6c0.6-0.3,1.5-0.6,2.8,0.2l-0.4,0.7l0,0l6.2,0.3c-4.3-4.4-7.9-4.8-9.7-4.6c-1.9,0.2-3.1,1-3.5,1.8
	c-0.6,0.9-0.5,5.4-0.5,9.7c0.1,6.5,0.2,14.6-1.5,19C206.8,129.7,204.4,131.5,203.1,132.3z M252.7,100c1.3-0.7,2.2-0.5,2.8-0.2
	c2.8,1.6,2.7,9.5,2.4,19.6c-0.1,3.6-0.2,6.7,0,8.2c0.6,4.5,3.6,11.5,4.6,14l4.3-3.1c-1.1-1.8-4.1-6.9-5-9.7
	c-1.7-4.4-1.5-13.1-1.4-20.2c0.1-4.7,0.2-9.5-0.4-10.4c-0.5-0.8-1.6-1.6-3.5-1.8c-1.8-0.2-5.4,0.2-9.7,4.6l6.2-0.3L252.7,100z
	 M514.9,117.8v119.5h-0.7l15,50.4c4.7,0.9,44.7,8.4,91.8,3.1l-31.2-177.3C573.9,115.4,547.9,117.7,514.9,117.8z M606.2,111.1
	c-2.1,0.4-7.1,1.2-14.8,2.2l31.2,177.3c4.8-0.6,9.6-1.3,14.5-2.1C634.7,249.2,614,147.2,606.2,111.1z M420.9,111.9
	c-7.9,36.8-28.3,137.6-30.6,176.6c4.7,0.8,9.4,1.5,14,2l30.5-176.9C427.5,112.9,422.8,112.2,420.9,111.9z M405.8,290.7
	c47.3,5.4,87.6-2.2,92.3-3.1l15.3-51.4V117.8c-33.9,0-61-2.2-77.1-3.9L405.8,290.7z M514.6,116.2c44.4,0,76.2-4.2,87.6-6
	c1.6-0.3,2.9-0.5,3.7-0.6c-1.1-5.2-1.9-8.8-2.3-10.4l-1.3-0.2c-3.2,0.2-11.7,0.8-22.9,1.4c-17.7,0.9-43.4,2-65.7,2
	c-22.4-0.1-48.1-1.1-65.7-2c-11.1-0.6-19.6-1.2-22.9-1.4l-1.3,0.2c-0.4,1.7-1.3,5.6-2.5,11.2c0.9,0.1,2.4,0.3,4.4,0.6
	C438,112.6,470.7,116.2,514.6,116.2z"/>
</svg>
