<?xml version="1.0" encoding="utf-8"?>
<!-- Generator: Adobe Illustrator 25.3.0, SVG Export Plug-In . SVG Version: 6.00 Build 0)  -->
<svg version="1.1" id="Layer_1" xmlns="http://www.w3.org/2000/svg" xmlns:xlink="http://www.w3.org/1999/xlink" x="0px" y="0px"
	 viewBox="0 0 750.2 400.1" style="enable-background:new 0 0 750.2 400.1;" xml:space="preserve">
<g>
	<path d="M351,238.7c-0.2-1.1-0.4-2.2-0.5-3.3l-17.6,3.7l0.6,3.3L351,238.7z"/>
	<path d="M349.7,230.3c-0.2-1.1-0.4-2.2-0.6-3.3l-17.6,3.7l0.6,3.3L349.7,230.3z"/>
	<path d="M348.2,221.9c-0.2-1.1-0.4-2.2-0.6-3.3l-17.7,3.7l0.6,3.3L348.2,221.9z"/>
	<path d="M346.8,213.6c-0.2-1.1-0.4-2.2-0.6-3.3l-17.6,3.7l0.6,3.3L346.8,213.6z"/>
	<path d="M345.3,205.2c-0.2-1.1-0.4-2.2-0.6-3.3l-17.6,3.7l0.6,3.3L345.3,205.2z"/>
	<path d="M343.7,196.9c-0.2-1.1-0.4-2.2-0.6-3.3l-17.5,3.7l0.6,3.3L343.7,196.9z"/>
	<path d="M356.9,282.1c-0.2-1.8-0.4-3.8-0.6-5.8l-16.3,3.4l1,5.7L356.9,282.1z"/>
	<path d="M356,273.7c-0.2-1.9-0.4-3.8-0.7-5.8l-16.7,3.5l1,5.7L356,273.7z"/>
	<path d="M355,265.2c-0.2-1.9-0.5-3.8-0.8-5.7l-17.1,3.6l1,5.7L355,265.2z"/>
	<path d="M336.7,260.4l17.1-3.6c-0.3-1.9-0.6-3.8-0.8-5.7l-17.3,3.7L336.7,260.4z"/>
	<path d="M352.6,248.4c-0.3-1.9-0.6-3.8-0.9-5.7l-17.5,3.7l1,5.7L352.6,248.4z"/>
	<path d="M342,290.7c5.1-0.6,10.2-1.3,15.4-2.2c-0.1-0.9-0.1-1.8-0.2-2.8l-15.5,3.3L342,290.7z"/>
	<path d="M333.5,144.2l-16.6,3.5l0.6,3.3l16.7-3.5C333.9,146.4,333.7,145.2,333.5,144.2z"/>
	<path d="M332.5,139.2c-0.2-1.1-0.5-2.2-0.7-3.3l-16.4,3.5l0.6,3.3L332.5,139.2z"/>
	<path d="M314.6,134.3l16.2-3.4c-0.2-1.1-0.5-2.2-0.7-3.3l-16.1,3.4L314.6,134.3z"/>
	<path d="M313.1,125.9l15.9-3.4c-0.2-1.1-0.5-2.2-0.7-3.3l-15.8,3.3L313.1,125.9z"/>
	<path d="M327.3,114.2c-0.2-1.1-0.5-2.1-0.7-3.1c-0.9,0.2-2.3,0.4-4.3,0.7l-11.3,2.4l0.6,3.3L327.3,114.2z"/>
	<path d="M342.1,187.9c-0.1-0.5-0.2-0.9-0.3-1.4l-17.4,3.7l0.2,1.4L342.1,187.9z"/>
	<path d="M340.2,178.2l-17.3,3.7l0.2,1.4l17.3-3.7C340.4,179.1,340.3,178.7,340.2,178.2z"/>
	<path d="M338.6,169.9l-17.2,3.6l0.2,1.4l17.2-3.6C338.8,170.8,338.7,170.3,338.6,169.9z"/>
	<path d="M337,161.6l-17,3.6l0.2,1.4l17-3.6C337.2,162.5,337.1,162,337,161.6z"/>
	<path d="M335.3,153.2l-16.8,3.6l0.2,1.4l16.8-3.6C335.5,154.1,335.4,153.7,335.3,153.2z"/>
	<path d="M613.6,239.5l0.6,3.3l16.6-3.5c-0.2-1.1-0.4-2.2-0.5-3.3L613.6,239.5z"/>
	<path d="M612.1,231.1l0.6,3.3l16.7-3.5c-0.2-1.1-0.4-2.2-0.6-3.3L612.1,231.1z"/>
	<path d="M610.7,222.8l0.6,3.3l16.7-3.5c-0.2-1.1-0.4-2.2-0.6-3.3L610.7,222.8z"/>
	<path d="M609.2,214.4l0.6,3.3l16.7-3.5c-0.2-1.1-0.4-2.2-0.6-3.3L609.2,214.4z"/>
	<path d="M607.7,206.1l0.6,3.3l16.7-3.5c-0.2-1.1-0.4-2.2-0.6-3.3L607.7,206.1z"/>
	<path d="M606.8,201l16.6-3.5c-0.2-1.1-0.4-2.2-0.6-3.3l-16.6,3.5L606.8,201z"/>
	<path d="M620.8,280.2l1,5.7l14.9-3.1c-0.2-1.8-0.4-3.8-0.6-5.8L620.8,280.2z"/>
	<path d="M619.3,271.9l1,5.7l15.5-3.3c-0.2-1.9-0.4-3.8-0.7-5.8L619.3,271.9z"/>
	<path d="M617.8,263.5l1,5.7l15.9-3.4c-0.2-1.9-0.5-3.8-0.8-5.7L617.8,263.5z"/>
	<path d="M617.4,260.9l16.2-3.4c-0.3-1.9-0.6-3.8-0.8-5.7l-16.4,3.5L617.4,260.9z"/>
	<path d="M614.9,246.8l1,5.7l16.4-3.5c-0.3-1.9-0.6-3.8-0.9-5.7L614.9,246.8z"/>
	<path d="M622.6,290.6c4.8-0.6,9.6-1.3,14.5-2.1c0-0.7-0.1-1.4-0.1-2.1l-14.6,3.1L622.6,290.6z"/>
	<path d="M598.1,151.5l15.8-3.3c-0.2-1.1-0.4-2.2-0.7-3.3l-15.7,3.3L598.1,151.5z"/>
	<path d="M596.6,143.1l15.6-3.3c-0.2-1.1-0.5-2.2-0.7-3.3l-15.5,3.3L596.6,143.1z"/>
	<path d="M595.2,134.7l15.3-3.2c-0.2-1.1-0.5-2.2-0.7-3.3l-15.2,3.2L595.2,134.7z"/>
	<path d="M593.7,126.4l15.1-3.2c-0.2-1.1-0.5-2.2-0.7-3.3l-15,3.2L593.7,126.4z"/>
	<path d="M607,114.9c-0.2-1.2-0.5-2.3-0.7-3.3l-14.7,3.1l0.6,3.3L607,114.9z"/>
	<path d="M605.3,192.1l16.5-3.5c-0.1-0.5-0.2-0.9-0.3-1.4l-16.5,3.5L605.3,192.1z"/>
	<path d="M603.8,183.7l16.4-3.5c-0.1-0.5-0.2-0.9-0.3-1.4l-16.4,3.5L603.8,183.7z"/>
	<path d="M602.3,175.3l16.3-3.4c-0.1-0.5-0.2-0.9-0.3-1.4l-16.3,3.4L602.3,175.3z"/>
	<path d="M600.8,167l16.1-3.4c-0.1-0.5-0.2-0.9-0.3-1.4l-16.1,3.4L600.8,167z"/>
	<path d="M599.4,158.6l16-3.4c-0.1-0.5-0.2-0.9-0.3-1.4l-15.9,3.4L599.4,158.6z"/>
	<path d="M401.3,237.2l0.1-0.4l11.8,2.5l0.6-3.3l-11.6-2.5l0.1-0.4c0.1-0.4-0.2-0.9-0.7-1l-3.6-0.8c-0.3,1.9-0.6,3.8-0.9,5.7
		l3.3,0.7C400.7,237.9,401.2,237.6,401.3,237.2z"/>
	<path d="M403,228.9l0.1-0.4l11.4,2.4l0.6-3.3l-11.3-2.4l0.1-0.4c0.1-0.4-0.2-0.9-0.7-1l-3.9-0.8c-0.3,1.9-0.7,3.8-1,5.7l3.7,0.8
		C402.5,229.6,403,229.3,403,228.9z"/>
	<path d="M416.6,219.2l-11-2.3l0.1-0.4c0.1-0.4-0.2-0.9-0.7-1l-4.2-0.9c-0.3,1.9-0.7,3.8-1,5.7l4,0.8c0.5,0.1,1-0.2,1.1-0.6l0.1-0.4
		l11.1,2.4L416.6,219.2z"/>
	<path d="M407.3,208.6l0.1-0.4c0.1-0.4-0.2-0.9-0.7-1l-4.4-0.9c-0.3,1.9-0.7,3.8-1,5.7l4.3,0.9c0.5,0.1,1-0.2,1.1-0.6l0.1-0.4
		l10.8,2.3l0.6-3.3L407.3,208.6z"/>
	<path d="M409.1,200.3l0.1-0.4c0.1-0.4-0.2-0.9-0.7-1l-4.7-1c-0.3,1.9-0.7,3.8-1,5.7l4.5,1c0.5,0.1,1-0.2,1.1-0.6l0.1-0.4l10.5,2.2
		l0.6-3.3L409.1,200.3z"/>
	<path d="M420.9,194.1l-10.1-2.1l0.1-0.4c0.1-0.4-0.2-0.9-0.7-1l-4.9-1c-0.4,1.9-0.7,3.8-1.1,5.7l4.7,1c0.5,0.1,1-0.2,1.1-0.6
		l0.1-0.4l10.2,2.2L420.9,194.1z"/>
	<path d="M406.7,276.7l-12.4-2.6c-0.5-0.1-1,0.2-1.1,0.6l-0.1,0.4l-1.6-0.3c-0.1,1.2-0.3,2.3-0.4,3.4l1.2,0.3l-0.1,0.4
		c-0.1,0.4,0.2,0.9,0.7,1l12.6,2.7L406.7,276.7z"/>
	<path d="M394.2,270.1l-0.1,0.4c-0.1,0.4,0.2,0.9,0.7,1l12.3,2.6l1-5.7l-12.1-2.6c-0.5-0.1-1,0.2-1.1,0.6l-0.1,0.4l-2.3-0.5
		c-0.1,1.1-0.3,2.3-0.4,3.4L394.2,270.1z"/>
	<path d="M395.8,262.2c-0.1,0.4,0.2,0.9,0.7,1l12,2.5l1-5.7l-11.8-2.5c-0.5-0.1-1,0.2-1.1,0.6l-0.1,0.4l-2.9-0.6
		c-0.2,1.1-0.3,2.3-0.5,3.4l2.7,0.6L395.8,262.2z"/>
	<path d="M410,257.3l1-5.7l-11.5-2.4c-0.5-0.1-1,0.2-1.1,0.6l-0.1,0.4l-3.4-0.7c-0.2,1.1-0.3,2.2-0.5,3.4l3.2,0.7l-0.1,0.4
		c-0.1,0.4,0.2,0.9,0.7,1L410,257.3z"/>
	<path d="M400.1,246.5l11.4,2.4l1-5.7l-11.2-2.4c-0.5-0.1-1,0.2-1.1,0.6l-0.1,0.4l-3.8-0.8c-0.2,1.1-0.4,2.2-0.5,3.3l3.7,0.8
		l-0.1,0.4C399.2,246,399.6,246.4,400.1,246.5z"/>
	<path d="M405.1,285.9l-11.4-2.4c-0.4-0.1-0.8,0.1-0.8,0.5l-0.1,0.5l-2.2-0.5c0,0.5-0.1,0.9-0.1,1.4l2,0.4l-0.1,0.3
		c-0.1,0.3,0.2,0.7,0.6,0.8l11.5,2.4L405.1,285.9z"/>
	<path d="M424.6,144.1l-0.1,0.5l-10-2.1c-0.1,0.5-0.2,0.9-0.3,1.4l10,2.1l-0.1,0.3c-0.1,0.3,0.2,0.7,0.6,0.8l4.2,0.9l0.6-3.3l-4-0.9
		C425.1,143.6,424.7,143.8,424.6,144.1z"/>
	<path d="M426.5,138.7l3.8,0.8l0.6-3.3l-3.7-0.8c-0.4-0.1-0.8,0.1-0.8,0.5l-0.1,0.5l-10-2.1c-0.1,0.5-0.2,0.9-0.3,1.4l10,2.1
		l-0.1,0.3C425.8,138.2,426.1,138.6,426.5,138.7z"/>
	<path d="M428.1,127.5L428,128l-10.1-2.1c-0.1,0.4-0.2,0.9-0.3,1.4l10.1,2.1l-0.1,0.3c-0.1,0.3,0.2,0.7,0.6,0.8l3.5,0.7l0.6-3.3
		L429,127C428.6,127,428.2,127.2,428.1,127.5z"/>
	<path d="M429.9,119.2l-0.1,0.5l-10.1-2.1c-0.1,0.4-0.2,0.9-0.3,1.4l10.1,2.1l-0.1,0.3c-0.1,0.3,0.2,0.7,0.6,0.8l3.2,0.7l0.6-3.3
		l-3.1-0.7C430.3,118.7,429.9,118.9,429.9,119.2z"/>
	<path d="M431.2,113.2c0.1,0.2,0.3,0.5,0.6,0.5l2.9,0.6l0.1-0.8C433.5,113.5,432.3,113.4,431.2,113.2z"/>
	<path d="M406,186l9.3,2c0.4,0.1,0.8-0.1,0.8-0.5l0.1-0.3l5.7,1.2l0.2-1.4l-5.7-1.2l0.1-0.5c0.1-0.3-0.2-0.7-0.6-0.8l-9.4-2
		C406.4,183.8,406.2,184.9,406,186z"/>
	<path d="M418.2,177.6l0.1-0.5c0.1-0.3-0.2-0.7-0.6-0.8l-9.5-2c-0.2,1.1-0.4,2.2-0.6,3.3l9.4,2c0.4,0.1,0.8-0.1,0.8-0.5l0.1-0.3
		l5.4,1.1l0.2-1.4L418.2,177.6z"/>
	<path d="M420.1,168.8c0.1-0.3-0.2-0.7-0.6-0.8l-9.6-2c-0.2,1.1-0.4,2.2-0.6,3.3l9.6,2c0.4,0.1,0.8-0.1,0.8-0.5l0.1-0.3l5.1,1.1
		l0.2-1.4l-5.1-1.1L420.1,168.8z"/>
	<path d="M421.8,160.5c0.1-0.3-0.2-0.7-0.6-0.8l-9.8-2.1c-0.2,1.1-0.4,2.2-0.7,3.3l9.7,2.1c0.4,0.1,0.8-0.1,0.8-0.5l0.1-0.3l4.8,1
		l0.2-1.4l-4.7-1L421.8,160.5z"/>
	<path d="M423.5,152.7l0.1-0.5c0.1-0.3-0.2-0.7-0.6-0.8l-9.8-2.1c-0.2,1.1-0.4,2.2-0.7,3.3l9.8,2.1c0.4,0.1,0.8-0.1,0.8-0.5l0.1-0.3
		l4.5,0.9l0.2-1.4L423.5,152.7z"/>
	<path d="M135.5,240.2l-18-3.8c-0.2,1.1-0.4,2.2-0.5,3.3l18,3.8L135.5,240.2z"/>
	<path d="M137,231.8l-18-3.8c-0.2,1.1-0.4,2.2-0.6,3.3l18,3.8L137,231.8z"/>
	<path d="M138.4,223.4l-18-3.8c-0.2,1.1-0.4,2.2-0.6,3.3l18,3.8L138.4,223.4z"/>
	<path d="M139.9,215.1l-18-3.8c-0.2,1.1-0.4,2.2-0.6,3.3l18,3.8L139.9,215.1z"/>
	<path d="M141.3,206.7l-17.9-3.8c-0.2,1.1-0.4,2.2-0.6,3.3l18,3.8L141.3,206.7z"/>
	<path d="M142.7,198.3l-17.9-3.8c-0.2,1.1-0.4,2.2-0.6,3.3l17.9,3.8L142.7,198.3z"/>
	<path d="M128.5,280.9l-16.7-3.5c-0.2,2-0.4,4-0.6,5.8l16.3,3.4L128.5,280.9z"/>
	<path d="M129.9,272.6l-17.2-3.6c-0.2,2-0.5,3.9-0.7,5.8l16.9,3.6L129.9,272.6z"/>
	<path d="M131.4,264.2l-17.5-3.7c-0.3,2-0.5,3.9-0.8,5.8l17.3,3.7L131.4,264.2z"/>
	<path d="M132.8,255.8l-17.8-3.8c-0.3,1.9-0.6,3.9-0.8,5.7l17.6,3.7L132.8,255.8z"/>
	<path d="M134.3,247.5l-17.9-3.8c-0.3,1.9-0.6,3.8-0.9,5.7l17.8,3.8L134.3,247.5z"/>
	<path d="M126.9,290.1l-16-3.4c0,0.6-0.1,1.2-0.1,1.7c5.4,0.9,10.7,1.7,16,2.3L126.9,290.1z"/>
	<path d="M151.3,148.7l-16.8-3.6c-0.2,1.1-0.4,2.2-0.7,3.3l16.9,3.6L151.3,148.7z"/>
	<path d="M152.7,140.4l-16.6-3.5c-0.2,1.1-0.4,2.2-0.7,3.3l16.7,3.5L152.7,140.4z"/>
	<path d="M154.2,132l-16.3-3.4c-0.2,1.1-0.5,2.2-0.7,3.3l16.4,3.5L154.2,132z"/>
	<path d="M155.6,123.6l-16-3.4c-0.2,1.1-0.5,2.2-0.7,3.3L155,127L155.6,123.6z"/>
	<path d="M156.5,118.6l0.6-3.3l-15.7-3.3c-0.2,1.1-0.5,2.2-0.7,3.3L156.5,118.6z"/>
	<path d="M143.7,192.7l0.2-1.4l-17.8-3.8c-0.1,0.5-0.2,0.9-0.3,1.4L143.7,192.7z"/>
	<path d="M145.2,184.3l0.2-1.4l-17.6-3.7c-0.1,0.5-0.2,0.9-0.3,1.4L145.2,184.3z"/>
	<path d="M146.8,174.6l-17.4-3.7c-0.1,0.5-0.2,0.9-0.3,1.4l17.5,3.7L146.8,174.6z"/>
	<path d="M148,167.6l0.2-1.4l-17.3-3.6c-0.1,0.5-0.2,0.9-0.3,1.4L148,167.6z"/>
	<path d="M149.7,157.9l-17.1-3.6c-0.1,0.5-0.2,0.9-0.3,1.4l17.1,3.6L149.7,157.9z"/>
</g>
</svg>
