<?xml version="1.0" encoding="utf-8"?>
<!-- Generator: Adobe Illustrator 25.3.0, SVG Export Plug-In . SVG Version: 6.00 Build 0)  -->
<svg version="1.1" id="Layer_1" xmlns="http://www.w3.org/2000/svg" xmlns:xlink="http://www.w3.org/1999/xlink" x="0px" y="0px"
	 viewBox="0 0 750.2 400.1" style="enable-background:new 0 0 750.2 400.1;" xml:space="preserve">
<g>
	<polygon points="643.3,166.6 643.3,161.7 643.3,161.7 	"/>
	<path d="M166,362.6c24.1-10.2,48.3-10.5,72.4-0.7c4.5-0.5,8.9-1,13.1-1.5c-32.8-16.4-65.6-16.1-98.4,0.7
		C157.3,361.7,161.7,362.2,166,362.6z"/>
	<path d="M181.4,363.9c6.6,0.4,13.1,0.6,19.2,0.5c7.1-0.1,14.6-0.5,22.2-1.1C209,359.9,195.2,360.1,181.4,363.9z"/>
	<path d="M107.1,353.4c2.3,0.5,6.2,1.3,11.3,2.2c56.2-35.5,112.4-35.6,168.6-0.4c5.5-0.9,9.6-1.7,11.6-2.1
		C234.7,312.1,170.9,312.2,107.1,353.4z"/>
	<path d="M129.2,357.5c3.5,0.6,7.4,1.2,11.4,1.8c41.3-23.6,82.5-23.8,123.8-0.6c4.1-0.6,8-1.2,11.6-1.7
		C227,327.5,178.1,327.7,129.2,357.5z"/>
	<path d="M105.2,318.2l0,8.9c64.8-31.3,129.6-31.5,194.3-0.6l0-8.8C234.8,290,170,290.2,105.2,318.2z"/>
	<path d="M105.3,335.8l0,9.3c64.8-38.5,129.5-38.7,194.3-0.7l0-9.3C234.8,300.9,170,301.2,105.3,335.8z"/>
	<path d="M299.6,292.1l0-8.2c-64.8-17-129.6-16.9-194.4,0.3l0,8.3C170,272.8,234.8,272.6,299.6,292.1z"/>
	<path d="M299.6,308.5l0-8.5c-64.8-21.9-129.6-21.7-194.4,0.4l0,8.5C170,284.1,234.8,283.9,299.6,308.5z"/>
	<path d="M299.6,260.2l0-8c-64.8-8.6-129.6-8.6-194.4,0.2l0,8C170,249.6,234.8,249.6,299.6,260.2z"/>
	<path d="M299.6,275.9l0-8.1c-64.8-12.6-129.6-12.5-194.4,0.2l0,8.1C170,261.2,234.8,261.1,299.6,275.9z"/>
	<path d="M299.7,228.4l0-7.8c-64.8-1-129.7-1-194.5,0l0,7.9C170,225.6,234.9,225.6,299.7,228.4z"/>
	<path d="M299.7,243.8l0-7.9c-64.8-4.6-129.6-4.6-194.5,0.1l0,7.9C170,237.3,234.8,237.3,299.7,243.8z"/>
	<path d="M299.7,197.6l0-7.9c-64.8,6.4-129.7,6.3-194.5-0.1l0,7.9C170,202.1,234.9,202.1,299.7,197.6z"/>
	<path d="M299.7,213l0-7.8c-64.8,2.7-129.7,2.7-194.5,0l0,7.9C170,213.8,234.9,213.8,299.7,213z"/>
	<path d="M299.7,165.8l0-8.1c-64.9,14.6-129.7,14.5-194.6-0.3l0,8.1C170,178.1,234.9,178.2,299.7,165.8z"/>
	<path d="M299.7,181.4l0-7.9c-64.8,10.5-129.7,10.4-194.5-0.2l0,8C170,189.8,234.9,189.8,299.7,181.4z"/>
	<path d="M290.3,135.8c-0.8-2.2-1.6-4.7-2.2-7.4c-57.3,19.2-114.6,19-171.9-0.6l-0.1,0.3c-0.6,2.6-1.3,4.9-2.1,7.1
		C172.8,153.5,231.6,153.7,290.3,135.8z"/>
	<path d="M297.8,149.5c-1.1-1.4-2.8-3.7-4.5-6.9c-60.8,17-121.5,16.9-182.3-0.4c-1.6,3.1-3.3,5.4-4.4,6.9
		C170.4,165.8,234.1,165.9,297.8,149.5z"/>
	<path d="M282.6,105.9c-0.8-2.3-1.6-4.7-2.6-7.1c-51.8,24.2-103.6,24-155.4-0.7c-1,2.4-1.8,4.8-2.6,7.2
		C175.5,129,229,129.2,282.6,105.9z"/>
	<path d="M286.4,120.4c-0.5-2.3-1.1-4.8-1.8-7.5c-54.9,22.1-109.8,21.9-164.7-0.6c-0.7,2.7-1.3,5.2-1.9,7.5
		C174.1,140.9,230.3,141.1,286.4,120.4z"/>
	<path d="M174.1,94.4c-3.5-2.7-6.7-5.9-9.4-9.7c-7.9-2.8-15.8-6.4-23.7-10.9c-1.9,1.6-3.7,3.4-5.4,5.3
		C148.5,86.2,161.3,91.3,174.1,94.4z"/>
	<path d="M230.2,94.8c13-2.9,25.9-7.9,38.9-15c-1.6-2-3.4-3.8-5.2-5.4c-8.1,4.5-16.1,8.1-24.2,10.8C237,89,233.8,92.2,230.2,94.8z"
		/>
	<path d="M277,92.1c-1.2-2.3-2.4-4.5-3.7-6.5c-47.3,24.8-94.7,24.6-142-0.7c-1.3,2-2.6,4.2-3.7,6.5
		C177.4,116.6,227.2,116.8,277,92.1z"/>
	<path d="M257.2,69.4c-2-1.2-4.1-2.2-6.3-3.1l-1.8-0.5c-0.2,0.1-0.3,0.2-0.5,0.2c-0.8,2.9-1.9,6-3.3,9.2
		C249.4,73.6,253.3,71.6,257.2,69.4z"/>
	<path d="M155.9,65.6l-1.9,0.5c-2.1,0.8-4.1,1.8-6,2.8c3.7,2.1,7.3,3.9,11,5.6C157.7,71.5,156.7,68.5,155.9,65.6z"/>
	<path d="M496.1,370.6c32-18.7,64-18.6,96,0c3.3-0.9,6.6-1.8,9.8-2.7c-38.5-24.2-76.9-24.3-115.4-0.1
		C489.6,368.8,492.8,369.7,496.1,370.6z"/>
	<path d="M506,373c3.8,0.8,7.8,1.6,11.8,2.3c17.5-7,35.1-7,52.6,0c4-0.6,8-1.4,11.9-2.2C556.8,359.9,531.4,359.9,506,373z"/>
	<path d="M450.1,353.8c1.7,0.8,4.7,2.2,8.9,4c57-38.4,114-38.2,171,0.5c3.8-1.5,7-2.8,9.2-3.8C576.2,311.8,513.1,311.6,450.1,353.8z
		"/>
	<path d="M467.6,361.3c2.8,1.1,5.8,2.2,9.1,3.3c45.1-29.5,90.2-29.5,135.3,0.2c3.3-1.1,6.4-2.2,9.3-3.2
		C570,327.2,518.8,327,467.6,361.3z"/>
	<path d="M448.3,317l0,9.3c64.8-32.5,129.6-32,194.3,1.4l0-9.4C577.9,288.3,513.1,287.9,448.3,317z"/>
	<path d="M448.3,335.4l0,9.8c64.8-39.9,129.5-39.4,194.3,1.7l0-9.9C577.9,300,513.1,299.5,448.3,335.4z"/>
	<path d="M448.3,281.2l0,8.7c64.8-20.4,129.6-20.1,194.4,0.9l0-8.8C577.9,263.6,513.1,263.3,448.3,281.2z"/>
	<path d="M448.3,298.3l0,8.9c64.8-25.8,129.6-25.5,194.4,1.1l0-9.1C577.9,275.7,513.1,275.4,448.3,298.3z"/>
	<path d="M448.3,247.8l0,8.4c64.8-11.2,129.6-11,194.4,0.5l0-8.5C577.9,238.9,513.1,238.8,448.3,247.8z"/>
	<path d="M448.3,264.3l0,8.5c64.8-15.5,129.6-15.3,194.4,0.7l0-8.6C577.9,251.2,513.1,251,448.3,264.3z"/>
	<path d="M448.3,214.4l0,8.3c64.8-3,129.6-2.9,194.5,0.1l0-8.4C578,213.4,513.1,213.4,448.3,214.4z"/>
	<path d="M448.3,230.6l0,8.3c64.8-6.9,129.6-6.8,194.5,0.3l0-8.4C577.9,225.8,513.1,225.7,448.3,230.6z"/>
	<path d="M448.3,181.8l0,8.3c64.8,4.7,129.7,4.6,194.5-0.2l0-8.4C578,188.4,513.1,188.5,448.3,181.8z"/>
	<path d="M642.8,206.3l0-8.4c-64.8,2.9-129.7,2.9-194.5,0.1l0,8.3C513.1,207.2,578,207.2,642.8,206.3z"/>
	<path d="M450.5,148.5c-0.3,0.4-0.5,0.7-0.8,1.1c-0.3,0.3-0.5,0.6-0.7,0.8c-0.2,0.3-0.5,0.5-0.8,0.6l0,5.5
		c64.9,13.1,129.7,12.9,194.6-0.6l0-5.1c-0.6-0.2-1-0.5-1.4-0.9c-0.4-0.5-0.9-1.2-1.4-1.9C576.9,162.9,513.7,163.1,450.5,148.5z"/>
	<path d="M448.3,164.5l0,8.4c64.8,8.9,129.7,8.7,194.5-0.4l0-8.5C578,175.4,513.1,175.5,448.3,164.5z"/>
	<path d="M459.9,125.5c57,17.8,114,17.5,171.1-0.8c-0.5-2.4-1.1-5.1-1.7-8c-55.9,19.8-111.8,20.1-167.6,0.9
		c-0.6,2.7-1.1,5.1-1.6,7.3C460,125.2,460,125.3,459.9,125.5z"/>
	<path d="M458.1,133c-0.9,2.9-1.9,5.4-3,7.6c60.2,15.4,120.3,15.2,180.5-0.7c-1-2.2-2-4.8-2.9-7.7
		C574.6,149.2,516.3,149.5,458.1,133z"/>
	<path d="M621.4,93.9c-1.2-2.4-2.5-4.7-3.8-6.9c-48.2,22.8-96.4,23.1-144.6,1c-1.3,2.2-2.6,4.5-3.7,6.9
		C519.9,116.9,570.6,116.6,621.4,93.9z"/>
	<path d="M627,108.4c-0.8-2.5-1.6-5-2.6-7.6c-52.7,22.2-105.4,22.5-158.1,1c-1,2.6-1.8,5.1-2.5,7.5
		C518.2,129.9,572.6,129.6,627,108.4z"/>
	<path d="M601.8,69.7c-1.8-1.4-3.7-2.7-5.7-3.8c-0.1,0-0.1-0.1-0.1-0.1l-1.2-0.8c-33.2,16.3-66.4,16.6-99.6,0.8l-0.1,0
		c-2.4,1.4-4.7,3-6.9,4.8C526,89.2,563.9,88.9,601.8,69.7z"/>
	<path d="M613.1,80.7c-1.7-2.1-3.4-4.1-5.3-5.9c-41.8,21-83.5,21.3-125.3,0.9c-1.8,1.9-3.5,3.8-5.2,6
		C522.5,103.3,567.8,103,613.1,80.7z"/>
	<path d="M574,50.8l-2.3-1.6c-0.5-0.4-0.9-0.9-1-1.6c-2.7-0.1-5.3-0.2-7.9-0.3c-12.4,3.5-24.7,3.5-37.1,0.1c-1.1,0-2.3,0.1-3.4,0.1
		c-0.1,0.7-0.5,1.3-1.1,1.7l-4.1,2.6C536,58.8,555,58.5,574,50.8z"/>
	<path d="M587.4,60l-6.8-4.7c-23.5,10.4-47,10.7-70.5,1l-7.2,4.6C531,73.6,559.2,73.3,587.4,60z"/>
</g>
</svg>
