<?xml version="1.0" encoding="utf-8"?>
<!-- Generator: Adobe Illustrator 25.3.0, SVG Export Plug-In . SVG Version: 6.00 Build 0)  -->
<svg version="1.1" id="Layer_1" xmlns="http://www.w3.org/2000/svg" xmlns:xlink="http://www.w3.org/1999/xlink" x="0px" y="0px"
	 viewBox="0 0 750.2 400.1" style="enable-background:new 0 0 750.2 400.1;" xml:space="preserve">
<g>
	<path d="M398.4,228.1c-4.1,24.2-7.3,46.3-8.1,60.4c4.7,0.8,9.4,1.5,14,2l10.3-59.8L398.4,228.1z"/>
	<path d="M407.1,180.1c-0.9,4.8-1.8,9.7-2.7,14.5l16,2.6l2.5-14.6L407.1,180.1z"/>
	<path d="M411,160.1c-0.3,1.3-0.5,2.7-0.8,4l15.4,2.5l0.7-4L411,160.1z"/>
	<path d="M357.4,288.5c-0.8-14-4-35.9-8-59.9l-17.8,2.9l10.4,59.2C347.1,290.1,352.2,289.4,357.4,288.5z"/>
	<path d="M343.4,195.1c-0.9-4.9-1.8-9.7-2.7-14.5l-17.5,2.8l2.6,14.6L343.4,195.1z"/>
	<path d="M319.7,163.4l0.7,4l17.2-2.8c-0.3-1.3-0.5-2.7-0.8-4L319.7,163.4z"/>
	<path d="M637.1,288.5c-0.9-14-4-35.9-8.1-59.9l-16.8,2.7l10.4,59.3C627.4,290,632.2,289.3,637.1,288.5z"/>
	<path d="M623,195.1c-0.9-4.9-1.8-9.7-2.7-14.5l-16.6,2.7l2.6,14.6L623,195.1z"/>
	<path d="M600.2,163.2l0.7,4l16.3-2.6c-0.3-1.3-0.5-2.7-0.8-4L600.2,163.2z"/>
	<path d="M118.8,228.5c-4.1,24.1-7.2,46-8,60c5.4,0.9,10.7,1.7,16,2.3l10.2-59.3L118.8,228.5z"/>
	<path d="M127.5,180.5c-0.9,4.8-1.8,9.7-2.7,14.5l18,2.9l2.5-14.6L127.5,180.5z"/>
	<path d="M131.4,160.5c-0.3,1.3-0.5,2.7-0.8,4l17.5,2.8l0.7-4L131.4,160.5z"/>
</g>
</svg>
