<?xml version="1.0" encoding="utf-8"?>
<!-- Generator: Adobe Illustrator 25.3.0, SVG Export Plug-In . SVG Version: 6.00 Build 0)  -->
<svg version="1.1" id="Layer_1" xmlns="http://www.w3.org/2000/svg" xmlns:xlink="http://www.w3.org/1999/xlink" x="0px" y="0px"
	 viewBox="0 0 750.2 400.1" style="enable-background:new 0 0 750.2 400.1;" xml:space="preserve">
<g>
	<path d="M606.2,111.1c-2.1,0.4-7.1,1.2-14.8,2.2L612,230h17.3C621.8,186.1,611.3,134.6,606.2,111.1z"/>
	<path d="M326.6,111.1c-2.1,0.4-7.5,1.3-15.7,2.3L331.3,230h18.3C342.2,186.1,331.6,134.6,326.6,111.1z"/>
	<path d="M157.3,113.9c-8.4-0.9-13.9-1.7-15.9-2c-5.1,23.9-15.5,74.7-22.8,118.1h18.7L157.3,113.9z"/>
	<path d="M434.8,113.6c-7.3-0.7-12-1.4-13.9-1.7c-5.2,23.9-15.5,74.7-22.8,118.1h16.7L434.8,113.6z"/>
</g>
</svg>
