<?xml version="1.0" encoding="utf-8"?>
<!-- Generator: Adobe Illustrator 25.3.0, SVG Export Plug-In . SVG Version: 6.00 Build 0)  -->
<svg version="1.1" id="Layer_1" xmlns="http://www.w3.org/2000/svg" xmlns:xlink="http://www.w3.org/1999/xlink" x="0px" y="0px"
	 viewBox="0 0 750.2 400.1" style="enable-background:new 0 0 750.2 400.1;" xml:space="preserve">
<g>
	<polygon points="643.3,166.6 643.3,161.7 643.3,161.7 	"/>
	<path d="M294.3,144.3c-2.3-3.9-4.8-9.3-6.3-16.3c-0.2-0.9-0.4-1.8-0.6-2.9c-1.5-7.3-3.8-18.4-8.6-29.2C272.2,81,262.9,71,251,66.4
		l-2.1-0.6c-1.4,5.4-3.8,11.4-7.4,17c-8.5,13.2-21.6,20.2-38,20.3l-1.9,0c-16.2,0-29.3-6.9-37.9-19.9c-3.9-5.8-6.3-12-7.7-17.5
		l-1.9,0.5C141,71.3,131.9,80.8,125.4,96c-4.8,11.3-7.3,23-8.8,30l-0.5,2.2c-1.5,6.8-3.9,12.1-6.2,16l83.5,15.5l9.9,1.5L294.3,144.3
		z"/>
	<path d="M251.6,49.4l-0.3,0.1c-0.1,2.5-0.5,9.1-1.8,15.1l2.4,0.9c12.8,5,19.8,13.4,27.8,29.1c5.5,10.8,7.3,22.4,8.8,29.8
		c0.2,1,0.4,2,0.6,2.9c1.1,5,2.8,9.3,4.5,12.6v-2.3l57.3,11.5l14.3-65.5L251.6,49.4z"/>
	<path d="M54.4,149l56.5-11.4v2.4c1.7-3.4,3.5-7.7,4.6-12.9l0.5-2.1c1.5-7.1,4-19,9-30.6c6.6-15.6,14-22.6,25.7-28.1l5.1-2.3
		l-0.5-1.5c-1.4-6.1-1.7-11-1.7-13.2c0-0.1,0-0.1,0-0.2L40.1,83.7L54.4,149z"/>
	<path d="M399.3,149.2l55.6-11.2c1.4-3,2.7-6.6,3.6-10.9c0.2-1,0.4-2.1,0.7-3.3c1.5-7.3,3.5-17.2,8-27.6
		c6.4-14.8,17.1-25.5,29.6-32.8l24.4-15.6c-2.1,0.1-7.5,0.2-9.4,0.3l-1.5,0.1l0,0c-1.5,0.1-3,0.2-4.3,0.3c-1.9,0.1-3.5,0.2-4.8,0.3
		c-1.1,0.1-1.6,0.1-1.8,0.2l-0.1,0l-14,4.3L384.7,83.7L399.3,149.2z"/>
	<path d="M624.2,96.7c4.5,10.4,6.6,20,8.1,27.3c0.2,1.2,0.5,2.3,0.7,3.3c1.1,5.2,2.9,9.5,4.5,12.8v-2.4l58,11.7l14.6-65.6l-116.4-35
		l-0.2,0c-3.3-0.2-13.6-0.6-21.7-0.9l22.8,15.6C607,70.7,617.8,81.9,624.2,96.7z"/>
</g>
</svg>
