<?xml version="1.0" encoding="utf-8"?>
<!-- Generator: Adobe Illustrator 25.3.0, SVG Export Plug-In . SVG Version: 6.00 Build 0)  -->
<svg version="1.1" id="Layer_1" xmlns="http://www.w3.org/2000/svg" xmlns:xlink="http://www.w3.org/1999/xlink" x="0px" y="0px"
	 viewBox="0 0 750.2 400.1" style="enable-background:new 0 0 750.2 400.1;" xml:space="preserve">
<path d="M299.8,151.2c-0.4-0.1-0.9-0.4-1.2-0.7c-0.8-0.9-2.5-3-4.3-6.1l-91,16.9l90.3-12.2v204.9l1.1-0.1c2.5-0.4,4.1-0.8,4.9-0.9
	L299.8,151.2z"/>
<path d="M110,144.2c-1.9,3.2-3.6,5.4-4.4,6.3c-0.1,0.1-0.2,0.2-0.4,0.4l0.1,202.1c0.6,0.1,1.9,0.4,3.8,0.8l1.8,0.1v-205l90.7,12.3
	l-8.1-1.5L110,144.2z"/>
<path d="M453.5,143.8c-0.3,0.5-0.5,0.9-0.7,1.3c-1,1.6-2,3.1-3,4.4c-0.3,0.3-0.5,0.6-0.7,0.8c-0.2,0.3-0.5,0.5-0.8,0.6l0.1,202
	c0.1,0,0.1,0,0.2,0l0.2,0.1c0,0,0.4,0.2,1.2,0.6l3.6,0.2V143.8z"/>
<path d="M642.8,150.8c-0.6-0.2-1-0.5-1.4-0.9c-0.9-1.1-2.1-2.9-3.1-4.7c-0.3-0.5-0.6-1-0.9-1.6v210.3l3.7-0.2
	c0.7-0.3,1.2-0.5,1.5-0.7L642.8,150.8z"/>
<path d="M293.6,137.7v2.3c2.3,4.5,4.5,7.4,5.4,8.4l50,9.6l1.9-8.7L293.6,137.7z"/>
<path d="M54.4,149l1.9,8.8l49.3-9.8c1-1.2,3.1-3.9,5.2-8v-2.4L54.4,149z"/>
<path d="M399.3,149.2l1.8,8l47.9-9.3c0.1-0.2,0.3-0.4,0.5-0.6c0.7-0.9,1.7-2.3,2.8-4.1c0.8-1.3,1.7-3.1,2.6-5.1L399.3,149.2z"/>
<path d="M637.5,140.1c0.6,1.2,1.2,2.2,1.7,3.1c1,1.7,2.1,3.3,2.9,4.3c0.3,0.1,3.3,0.7,4,0.8c1.2,0.2,1.7,0.3,1.9,0.4l45.7,8.4
	l1.7-7.8l-58-11.7V140.1z"/>
</svg>
