<?xml version="1.0" encoding="utf-8"?>
<!-- Generator: Adobe Illustrator 25.3.0, SVG Export Plug-In . SVG Version: 6.00 Build 0)  -->
<svg version="1.1" id="Layer_1" xmlns="http://www.w3.org/2000/svg" xmlns:xlink="http://www.w3.org/1999/xlink" x="0px" y="0px"
	 viewBox="0 0 750.2 400.1" style="enable-background:new 0 0 750.2 400.1;" xml:space="preserve">
<style type="text/css">
	.st0{fill:none;}
</style>
<g>
	<rect x="110.9" y="270.4" class="st0" width="182.7" height="13.8"/>
	<rect x="110.9" y="305.5" class="st0" width="182.7" height="13.8"/>
	<rect x="110.9" y="165" class="st0" width="182.7" height="13.8"/>
	<rect x="110.9" y="323.3" class="st0" width="182.7" height="13.8"/>
	<rect x="110.9" y="217.8" class="st0" width="182.7" height="13.5"/>
	<rect x="110.9" y="235.2" class="st0" width="182.7" height="13.8"/>
	<rect x="110.9" y="253" class="st0" width="182.7" height="13.5"/>
	<rect x="110.9" y="288.1" class="st0" width="182.7" height="13.5"/>
	<rect x="110.9" y="200.1" class="st0" width="182.7" height="13.8"/>
	<rect x="110.9" y="182.7" class="st0" width="182.7" height="13.5"/>
	<polygon points="643.3,161.7 643.3,161.7 643.3,166.6 	"/>
	<path d="M299.8,151.2c-0.4-0.1-0.9-0.4-1.2-0.7c-0.9-1.1-2.9-3.6-5-7.4v18.1H110.9v-18.5c-2.2,4.1-4.4,6.8-5.3,7.9
		c-0.1,0.1-0.2,0.2-0.4,0.4l0.1,202.1c0.6,0.1,1.9,0.4,3.8,0.8l1.8,0.1V341h182.7v12.9l1.1-0.1c2.5-0.4,4.1-0.8,4.9-0.9L299.8,151.2
		z M110.9,182.7v-3.9V165h182.7v13.8v3.9v13.5H110.9V182.7z M110.9,217.8v-3.9v-13.8h182.7v13.8v3.9v13.5H110.9V217.8z M110.9,253
		v-3.9v-13.8h182.7v13.8v3.9v13.5H110.9V253z M110.9,288.1v-3.9v-13.8h182.7v13.8v3.9v13.5H110.9V288.1z M110.9,337.1v-13.8v-3.9
		v-13.8h182.7v13.8v3.9v13.8H110.9z"/>
	<path d="M456.5,137.7L456.5,137.7c-1.3,3.1-2.6,5.6-3.7,7.5c-1,1.6-2,3.1-3,4.4c-0.3,0.3-0.5,0.6-0.7,0.8c-0.2,0.3-0.5,0.5-0.8,0.6
		l0.1,202c0.1,0,0.1,0,0.2,0l0.2,0.1c0.1,0.1,2.9,1.5,7.8,3.6V137.7z"/>
	<path d="M642.8,150.8c-0.6-0.2-1-0.5-1.4-0.9c-0.9-1.1-2.1-2.9-3.1-4.7c-1.2-2-2.6-4.7-3.9-8v216.7l7.1-0.4
		c0.5-0.2,0.8-0.4,1.1-0.5L642.8,150.8z"/>
	<path d="M293.6,140c2.3,4.5,4.5,7.4,5.4,8.4l50,9.6l1.9-8.7l-57.3-11.5V140z"/>
	<path d="M110.9,140.1v-2.4L54.4,149l1.9,8.8l49.3-9.8C106.6,146.9,108.8,144.2,110.9,140.1z"/>
	<path d="M449.4,147.2c0.7-0.9,1.7-2.3,2.8-4.1c0.8-1.3,1.7-3.1,2.6-5.1l-55.6,11.2l1.8,8l47.9-9.3
		C449.1,147.6,449.2,147.4,449.4,147.2z"/>
	<path d="M648,148.7l45.7,8.4l1.7-7.8l-59.3-12.1c1,2.4,2.1,4.4,3.1,6c1,1.7,2.1,3.3,2.9,4.3c0.3,0.1,3.3,0.7,4,0.8
		C647.3,148.5,647.7,148.6,648,148.7z"/>
</g>
</svg>
