<?xml version="1.0" encoding="utf-8"?>
<!-- Generator: Adobe Illustrator 25.3.0, SVG Export Plug-In . SVG Version: 6.00 Build 0)  -->
<svg version="1.1" id="Layer_1" xmlns="http://www.w3.org/2000/svg" xmlns:xlink="http://www.w3.org/1999/xlink" x="0px" y="0px"
	 viewBox="0 0 750.2 400.1" style="enable-background:new 0 0 750.2 400.1;" xml:space="preserve">
<path d="M138.3,126.5l16.4,2.5l0.6-3.8l-16.2-2.5C138.8,124,138.6,125.3,138.3,126.5z"/>
<path d="M129.2,171.8c-0.2,1.2-0.5,2.5-0.7,3.8l17.7,2.7l0.6-3.8L129.2,171.8z"/>
<path d="M417.8,126.8l14.4,2.2l0.6-3.8l-14.3-2.2C418.3,124.3,418,125.5,417.8,126.8z"/>
<path d="M408.7,172c-0.2,1.2-0.5,2.5-0.7,3.8l15.7,2.4l0.6-3.8L408.7,172z"/>
<path d="M329,122.4l-16.1,2.5l0.7,3.8l16.2-2.5C329.5,124.9,329.3,123.6,329,122.4z"/>
<path d="M339.6,175.2c-0.2-1.3-0.5-2.5-0.7-3.8l-17.4,2.7l0.7,3.8L339.6,175.2z"/>
<path d="M608.6,122.5l-15.2,2.3l0.7,3.8l15.3-2.4C609.2,125,608.9,123.7,608.6,122.5z"/>
<path d="M619.3,175.3c-0.2-1.3-0.5-2.5-0.7-3.8l-16.4,2.5l0.7,3.8L619.3,175.3z"/>
</svg>
