<?xml version="1.0" encoding="utf-8"?>
<!-- Generator: Adobe Illustrator 25.3.0, SVG Export Plug-In . SVG Version: 6.00 Build 0)  -->
<svg version="1.1" id="Layer_1" xmlns="http://www.w3.org/2000/svg" xmlns:xlink="http://www.w3.org/1999/xlink" x="0px" y="0px"
	 viewBox="0 0 750.2 400.1" style="enable-background:new 0 0 750.2 400.1;" xml:space="preserve">
<g>
	<path d="M338.7,271.7c3.6-2.3,7.3-4.5,11.3-6.6c1.5-0.8,3.1-1.5,4.8-2.1c-2-14.6-4.8-31.7-7.9-49.4c-2.1-1.1-4.7-1.8-8-1.3
		c-5,0.9-4.2,3.3-3.5,5.3c1.3,3.4,3.6,6.7,4.6,10.1c1.8,6,3.6,11.9,4.5,17.9c0.9,6.5-1.8,12.3-7.2,17.7L338.7,271.7z"/>
	<path d="M343.1,277.3c-0.8,1-0.4,2.3-0.6,3.4c2.2-0.1,4.5-0.2,6.7-0.4c2.4-0.3,5.3-0.9,7.5-0.7c-0.3-3.1-0.7-6.4-1.1-10
		C350.1,271.4,345.9,273.9,343.1,277.3z"/>
	<path d="M601.6,171.1l1.7,9.8c0.5,0.3,0.9,0.7,1.3,1c4.7,3.5,9.3,7.1,14,10.6c1.5,1.1,3,2.3,4.5,3.4c-0.8-4.1-1.5-8.3-2.3-12.4
		c-0.1-0.1-0.2-0.1-0.3-0.2C614.5,179.2,608.1,175.1,601.6,171.1z"/>
	<path d="M398.5,270.7c3.1-0.5,6.3-0.9,9.4-1.4l1-5.7c-1.3,0.1-2.5,0.3-3.8,0.4c-4.1,0.4-8.3,0.9-12.4,1.3c-0.3,2.2-0.6,4.3-0.8,6.4
		C394.1,271.4,396.3,271,398.5,270.7z"/>
	<path d="M342.5,189.9c-0.3-1.7-0.6-3.4-1-5.1c-6.3-0.4-12.3,0-17.9,1.1l0.9,5.1C329.8,189.7,336,189.2,342.5,189.9z"/>
	<path d="M433.7,114.9c0.3,0.1,0.6,0.2,0.8,0.2l0.3-1.6c-4.7-0.4-8.3-0.9-10.7-1.2C427.3,113.2,430.5,114.1,433.7,114.9z"/>
	<path d="M333.4,143.6c-0.3-1.4-0.6-2.7-0.8-4.1c-5.8-0.4-11.5-0.6-17.2-0.6l0.8,4.7C321.9,143.3,327.6,143.3,333.4,143.6z"/>
	<path d="M322.1,158.6c0.2,0.3,0.3,0.7,0.5,1c-1.2,0.2-2.3,0.5-3.4,0.7l0.6,3.6c0.3,0,0.5-0.1,0.8-0.1c2.3-0.2,4.6-0.2,6.9-0.3
		c0.1,0.2,0.1,0.4,0.2,0.7c-1.7,0.3-3.3,0.6-5.1,0.8c-0.9,0.1-1.7,0.2-2.6,0.4l0.9,5.4c1.7-0.4,3.5-0.7,5.3-1.1
		c3.8-0.7,8-1.2,12.1-1.3c-1.3-6.9-2.7-13.5-3.9-19.8c-5.7-0.1-11.4,0.1-17.2,0.8l1.6,9C319.9,158.6,321,158.6,322.1,158.6z"/>
	<path d="M410.9,252c-5.4,1.2-10.9,2-16.7,2.4c-0.3,2.1-0.6,4.2-0.9,6.2c5.5-0.4,11-0.8,16.4-1.4L410.9,252z"/>
	<path d="M405.2,285.2l1.4-7.9c-4.7,0.4-9.5,0.6-14.2,0.7c-0.4,0-0.8,0-1.2,0c-0.3,3.3-0.6,6.3-0.8,9.1
		C395.4,286.5,400.3,285.9,405.2,285.2z"/>
	<path d="M331.5,134.6c-0.3-1.2-0.5-2.4-0.7-3.6c-4.1-0.4-8.3-0.7-12.5-0.8c-1.5,0-3,0-4.5,0l0.7,4
		C320.2,134.1,325.9,134.3,331.5,134.6z"/>
	<path d="M611.9,229.6l7,39.8c2.9-5.9,3.5-12.1,1.4-18.7C618,243.6,615.2,236.6,611.9,229.6z"/>
	<path d="M157.1,114.9l0.2-1c-4.6-0.5-8.3-1-11.1-1.3c-1.9,0.6-3.6,1.2-5.4,1.9c-0.3,1.4-0.6,2.9-0.9,4.5c3.1-0.3,5.9-0.9,8.5-1.7
		C151.3,116.4,154.2,115.7,157.1,114.9z"/>
	<path d="M607.5,204.9c10,11.7,18.2,23.6,23.5,35.8c-1.6-10.1-3.5-20.7-5.4-31.5c-7.4-5.4-14.1-11-20.3-16.7L607.5,204.9z"/>
	<path d="M595.5,136.7l0.8,4.7c0.9,0.3,1.9,0.6,2.8,1c2.7,0.9,6.1,1.3,9.2,1.9c0.5-0.3,1-0.7,1.5-1c-3.1-1.5-5.8-3.2-9.2-4.5
		C598.9,138,597.2,137.4,595.5,136.7z"/>
	<path d="M404.4,290.1c-0.5,0.1-1,0.2-1.5,0.3c0.5,0.1,1,0.1,1.5,0.2L404.4,290.1z"/>
	<path d="M140,171.5c2-0.6,5.2-1.9,5.9-1.6c0.6,0.2,1.1,0.5,1.6,0.7l2.8-16.5c-4.8,2.1-9.6,4.3-14.4,6.4c-2.2,1-3.1,2.8-4.4,4.2
		c-0.5,0.5-0.9,1.1-1.3,1.6c-0.9,4.7-1.9,9.6-2.8,14.5c3.8-2.9,7.5-5.7,11.3-8.6C139.1,172,139.5,171.7,140,171.5z"/>
	<path d="M132.2,258.9c0.1-0.1,0.1-0.1,0.2-0.2l3.6-21c-1.6,2.2-3.2,4.4-4.8,6.6c-5.6,7.6-11.2,15.2-18.2,22.5
		c-0.6,4.6-1.1,9-1.5,12.9C120.6,273.3,126.7,266.2,132.2,258.9z"/>
	<path d="M130.5,223.2c0.8-1,1.7-2.1,3.4-2.7c1.4-0.5,3.6-1.1,5.3-1.2l6.9-40.1c-0.9,1-1.9,1.9-3.1,2.8c-5.9,4.5-12,8.9-18.2,13.4
		c-0.7,4-1.5,8-2.2,11.9c1.5-1.6,3.1-3.2,4.6-4.8c1.6-1.7,3.9-3.2,6.5-4.6c1.5-0.8,4.1-1.2,6.2-1.7c-0.2,1.1,0.2,2.3-0.7,3.3
		c-6.8,7.4-13.3,14.9-19.2,22.5c-1.3,7.7-2.6,15.2-3.7,22.3c3.6-4.8,6.7-9.7,9.4-14.7C126.8,227.5,128.7,225.3,130.5,223.2z"/>
	<path d="M605.9,113.5c-2-0.4-4-0.8-5.9-1.4c-2.3,0.3-5.2,0.8-8.6,1.2l0.4,2.5c2.8,1.2,5.5,2.5,8.3,3.7c2.7,1.2,5.1,2.6,7.1,4.1
		c1.1,0.8,1,1.9,1.4,2.9c-2.2,0-5,0.3-6.6-0.2c-3-0.9-6-1.8-8.9-2.8l1.2,6.6c5.8,2.6,11.7,5.2,17.5,7.9c-1.9-9.5-3.7-17.8-5.1-24.3
		C606.4,113.6,606.2,113.6,605.9,113.5z"/>
	<path d="M344.9,203.3c-0.4-2.2-0.8-4.4-1.2-6.6c-2.3-0.6-4.9-1.1-7.9-1.2c-4.1-0.2-7.4,0.2-10.2,1.6l1.4,8.2
		c0.9-0.6,1.8-1.3,2.8-1.9C334.5,200.5,340.5,200.7,344.9,203.3z"/>
	<path d="M433.4,121.4c-4.4-1.5-9-3-13.6-4.5c-0.3,1.6-0.7,3.3-1.1,5c4.7,1.4,9.3,2.9,13.8,4.4L433.4,121.4z"/>
	<path d="M341.5,287.7l0.5,3c5.1-0.6,10.2-1.3,15.4-2.2c-0.1-1.5-0.2-3.1-0.3-4.7c-1.2,0.4-2.7,0.7-4,1.1
		C349.2,285.8,345.3,286.8,341.5,287.7z"/>
	<path d="M425.5,167.6l1.4-7.9c-4.1-2.1-8.3-4.1-12.6-6c-0.6-0.3-1.2-0.5-1.9-0.8c-0.6,2.8-1.1,5.8-1.7,8.7
		C415.9,163.4,420.8,165.4,425.5,167.6z"/>
	<path d="M400.5,216.2c5.1,2.8,10.1,5.7,15.2,8.5l1.8-10.3c-5.1-2.6-10.1-5.2-15.2-7.8C401.6,209.8,401,213,400.5,216.2z"/>
	<path d="M621.7,285.4l0.9,5.2c4.6-0.6,9.2-1.3,13.9-2c0.2-0.1,0.4-0.2,0.5-0.4c-0.3-4.9-0.9-10.8-1.7-17.4
		C633.3,276,628.9,280.9,621.7,285.4z"/>
	<path d="M599.9,161.3c6.2,3.6,12.5,7.1,18.8,10.7c-0.7-3.4-1.3-6.7-1.9-9.9c-6.1-3.6-12.3-7.3-18.6-10.9L599.9,161.3z"/>
	<path d="M316.1,119.3c0.2,2.8,3.7,3.8,8,4.3c1.7,0.2,3.5,0.3,5.3,0.4c-0.4-1.9-0.8-3.6-1.1-5.3c-1.7,0-3.5,0-5.2,0
		C320.8,118.8,318.5,119.1,316.1,119.3z"/>
	<path d="M407.2,179.4c-0.5,2.4-0.9,4.9-1.4,7.4c0.9,0.5,1.7,1,2.6,1.5c2.9,1.7,6,3.5,4.7,6.2c-3-0.8-5.6-1.7-8.2-2.7
		c-0.4,2.4-0.9,4.7-1.3,7.1c1.7,0.8,3.4,1.5,5.1,2.3c3.5,1.5,6.9,3.1,10.2,4.7L422,188C417.7,185,412.8,182.1,407.2,179.4z"/>
	<path d="M322.6,179.9c5.5-1,11.4-1.5,17.7-1.6c-0.2-1.3-0.5-2.6-0.7-3.8c-5.8,0.3-11.6,1.1-17.5,2.4L322.6,179.9z"/>
	<path d="M412.5,242.9l1.2-7.2c-1-1.5-2.8-3-5.3-4.4c-3.2-1.8-6.4-3.6-9.7-5.4c-1.3,7.8-2.6,15.5-3.7,22.7c6-0.2,11.3-1.7,15.5-4.3
		C411.3,243.9,412,243.4,412.5,242.9z"/>
	<path d="M408.4,173.3c5.1,2.5,10.1,5.1,14.7,7.7l1.4-8.4c-4.6-2.4-9.5-4.6-14.8-6.7C409.4,168.3,408.9,170.8,408.4,173.3z"/>
	<path d="M319.1,112.3c2.7,0.2,5.3,0.5,8,0.7c-0.1-0.7-0.3-1.3-0.4-1.9C325.3,111.3,322.7,111.8,319.1,112.3z"/>
	<path d="M430.7,137.1l1.2-7c-4.5-1.7-9.1-3.4-13.9-4.9c-0.4,2.1-0.9,4.4-1.4,6.7C421.5,133.5,426.2,135.3,430.7,137.1z"/>
	<path d="M151.7,146.3l1.7-9.7c-1.9,0.8-3.7,1.6-5.5,2.5c-4.7,2.2-9.2,4.5-13.6,6.8c-0.7,3.5-1.4,7.1-2.2,10.8
		C138.5,153.1,145,149.7,151.7,146.3z"/>
	<path d="M154.7,128.8l1.2-6.9c-6.3,1.5-12.2,3.2-17.7,5.1c-0.5,2.4-1,4.9-1.6,7.6C142.2,132.5,148.2,130.5,154.7,128.8z"/>
	<path d="M127.8,284.7l1.2-7c-5.7,3.5-11.3,7.1-16.8,10.7c-0.1,0.1-0.3,0.2-0.4,0.3c2.7,0.4,5.4,0.9,8.1,1.2
		C122.6,288.2,125.2,286.5,127.8,284.7z"/>
	<path d="M419.4,143.7c1.4-0.1,3.1-0.7,3.8-1.2c0.5-0.4-0.1-1.5-1-1.9c-2.2-0.9-4.4-1.9-6.7-2.8c-0.4,1.8-0.7,3.6-1.1,5.5
		C415.9,143.6,417.8,143.8,419.4,143.7z"/>
</g>
</svg>
