<?xml version="1.0" encoding="utf-8"?>
<!-- Generator: Adobe Illustrator 25.3.0, SVG Export Plug-In . SVG Version: 6.00 Build 0)  -->
<svg version="1.1" id="Layer_1" xmlns="http://www.w3.org/2000/svg" xmlns:xlink="http://www.w3.org/1999/xlink" x="0px" y="0px"
	 viewBox="0 0 750.2000122 400.1000061" style="enable-background:new 0 0 750.2000122 400.1000061;" xml:space="preserve">
<path d="M249.4104004,64.5644836l2.4470215,0.9411621c12.7568359,4.9985352,19.7647095,13.3646851,27.8370361,29.1439819
	c5.5424805,10.8340454,7.2548828,22.3964844,8.8085938,29.8476562c0.2158203,1.0385742,0.4160156,1.9975586,0.6035156,2.8647461
	c1.0922852,5.0435181,2.7739868,9.2798462,4.4549561,12.6226807v-2.3196411l57.2589111,11.5379028l4.7277832-21.6835327
	c-14.2108765-3.1453857-35.9209595-7.9165649-56.4329224-12.2879639
	c-17.1240234-32.9307861-39.7036743-49.2839966-48.9056396-54.9326782
	C249.9876099,61.7170715,249.7244263,63.1596985,249.4104004,64.5644836z"/>
<path d="M54.3934326,149.0482483l56.4910889-11.3831787v2.4115601c1.7420044-3.3770142,3.4831543-7.6826172,4.602478-12.8508301
	l0.4541016-2.1254883c1.5117188-7.1064453,4.0410156-19,8.9560547-30.5800781
	c6.6132812-15.5854492,14.0193481-22.614624,25.6898804-28.0734253l5.0823364-2.2587891l-0.4737549-1.4563599
	c-0.1854858-0.8207397-0.3494873-1.6181641-0.4972534-2.3928833c-9.2408447,5.6837769-31.7555542,22.0352783-48.8414307,54.8927002
	c-20.3862305,4.3446045-41.9557495,9.0840454-56.1705933,12.2299194L54.3934326,149.0482483z"/>
<path d="M399.3059082,149.186615l55.5775146-11.1990356c1.3511353-2.9669189,2.6859131-6.6077271,3.6057739-10.8518677
	c0.2177734-1.0078125,0.4462891-2.1142578,0.6914062-3.3066406c1.4960938-7.269043,3.5449219-17.2246094,8.0175781-27.6411133
	c6.3671875-14.8339844,17.1240234-25.5300293,29.5830078-32.8464355l24.4404297-15.6225586
	c-0.6689453,0.0301514-1.6469727,0.0608521-2.7334595,0.0917969c-13.6881104,4.3528442-49.8625488,19.9797363-69.2907104,67.4207153
	c-19.7457275,4.2081299-40.5913086,8.7844238-54.7991943,11.9265747L399.3059082,149.186615z"/>
<path d="M594.5276489,63.3605652c12.4287109,7.2973633,23.2912598,18.5288086,29.6584473,33.362793
	c4.4726562,10.4165039,6.5668945,20.0265503,8.0629883,27.2955933c0.2451172,1.1923828,0.4736328,2.2988281,0.6914062,3.3066406
	c0.8259277,3.810791,1.9870605,7.1296997,3.1933594,9.9191895l59.3008423,12.0985718l4.895752-21.9760742
	c-14.2175293-3.145752-35.5576172-7.8334961-55.7451782-12.1358032
	c-19.5373535-47.7074585-57.9494019-63.2414551-72.2180786-67.4919434c-0.2123413-0.0091553-0.428894-0.0182495-0.6383667-0.0274048
	L594.5276489,63.3605652z"/>
</svg>
