<?xml version="1.0" encoding="utf-8"?>
<!-- Generator: Adobe Illustrator 25.3.0, SVG Export Plug-In . SVG Version: 6.00 Build 0)  -->
<svg version="1.1" id="Layer_1" xmlns="http://www.w3.org/2000/svg" xmlns:xlink="http://www.w3.org/1999/xlink" x="0px" y="0px"
	 viewBox="0 0 750.2 400.1" style="enable-background:new 0 0 750.2 400.1;" xml:space="preserve">
<g>
	<path d="M147.8,169.1l-2.4-56.6c-1.9-0.3-3.2-0.5-4-0.6c-5.1,23.9-15.5,74.7-22.8,118.1h18.7L147.8,169.1z"/>
	<path d="M606.2,111.1c-2.1,0.4-7.1,1.2-14.8,2.2L611.9,230h17.3C621.8,186.1,611.3,134.6,606.2,111.1z"/>
	<path d="M326.6,111.1c-0.5,0.1-1.3,0.2-2.2,0.4l-3.4,59.8l10.3,58.7h18.3C342.2,186.1,331.7,134.6,326.6,111.1z"/>
	<path d="M434.8,113.6c-7.3-0.7-12-1.4-13.9-1.7c-5.1,23.9-15.5,74.7-22.8,118.1h16.6L434.8,113.6z"/>
</g>
</svg>
