<?xml version="1.0" encoding="utf-8"?>
<!-- Generator: Adobe Illustrator 25.3.0, SVG Export Plug-In . SVG Version: 6.00 Build 0)  -->
<svg version="1.1" id="Layer_1" xmlns="http://www.w3.org/2000/svg" xmlns:xlink="http://www.w3.org/1999/xlink" x="0px" y="0px"
	 viewBox="0 0 750.2000122 400.1000061" style="enable-background:new 0 0 750.2000122 400.1000061;" xml:space="preserve">
<path d="M132.8638916,358.1245422v-20.585144c-0.5342407-0.0172119-1.0484619-0.0343018-1.5757446-0.0514526l-26.0405884-13.5307007
	l0.0123901,29.0263672C107.4229736,353.4463196,118.2315063,355.7186584,132.8638916,358.1245422z"/>
<polygon points="132.8638916,295.1335754 105.2290649,280.8055115 105.2370605,299.4305115 132.8638916,313.7688293 "/>
<path d="M299.5499878,352.9084167l0.0282593-28.453125l-25.2581177,13.0326538
	c-0.5272217,0.0171509-1.0415039,0.0342407-1.5756836,0.0514526v19.9220581
	C287.036377,355.2710876,297.4115601,353.3177795,299.5499878,352.9084167z"/>
<polygon points="299.6210327,281.292572 272.7444458,295.1335754 272.7444458,313.7688293 299.6025391,299.9250793 "/>
<polygon points="477.6160889,296.1336365 448.3253174,279.8343811 448.333313,298.4877014 477.6160889,314.7688904 "/>
<path d="M477.6160889,338.5394592c-0.5341797-0.0172119-1.0484619-0.0343018-1.5756836-0.0514526l-27.6965942-15.3841553
	l0.0128174,29.9246826c0.0566406,0.0078125,0.1171875,0.0166016,0.1826172,0.0244141l0.1640625,0.0507812
	c0.2327271,0.1192017,11.7416382,5.9375,28.9127808,11.8600464V338.5394592z"/>
<polygon points="642.7181396,280.8442688 614.7160645,296.1336365 614.7160645,314.7688904 642.699646,299.4936829 "/>
<path d="M642.6466675,353.0050964l0.0286255-28.9142456l-26.3834839,14.3971558
	c-0.5272827,0.0171509-1.0415039,0.0342407-1.5757446,0.0514526v25.4140015
	C630.0289917,358.7651672,640.782959,353.8699646,642.6466675,353.0050964z"/>
</svg>
