<?xml version="1.0" encoding="utf-8"?>
<!-- Generator: Adobe Illustrator 25.3.0, SVG Export Plug-In . SVG Version: 6.00 Build 0)  -->
<svg version="1.1" id="Layer_1" xmlns="http://www.w3.org/2000/svg" xmlns:xlink="http://www.w3.org/1999/xlink" x="0px" y="0px"
	 viewBox="0 0 750.2 400.1" style="enable-background:new 0 0 750.2 400.1;" xml:space="preserve">
<g>
	<path d="M606.2,111.1c-2.1,0.4-7.1,1.2-14.8,2.2l11.9,67.4l0.1-1.3l11,50.6h14.8C621.8,186.1,611.3,134.6,606.2,111.1z"/>
	<path d="M423,179.4l0.2,1.7l11.6-67.5c-7.3-0.7-12-1.4-13.9-1.7c-5.1,23.9-15.5,74.7-22.8,118.1H412L423,179.4z"/>
	<path d="M145.9,179.5v0.5l11.4-66.1c-8.4-0.9-13.9-1.7-15.9-2c-5.1,23.9-15.5,74.7-22.8,118.1h16.3L145.9,179.5z"/>
	<path d="M326.7,111c-2.2,0.5-7.6,1.4-15.8,2.4l13,73.8l9.4,42.8h16.5C342.4,186.1,331.8,134.5,326.7,111z"/>
</g>
</svg>
