<?xml version="1.0" encoding="utf-8"?>
<!-- Generator: Adobe Illustrator 25.3.0, SVG Export Plug-In . SVG Version: 6.00 Build 0)  -->
<svg version="1.1" id="Layer_1" xmlns="http://www.w3.org/2000/svg" xmlns:xlink="http://www.w3.org/1999/xlink" x="0px" y="0px"
	 viewBox="0 0 750.2 400.1" style="enable-background:new 0 0 750.2 400.1;" xml:space="preserve">
<g>
	<polygon points="643.3,166.6 643.3,161.7 643.3,161.7 	"/>
	<path d="M287.6,355c2.6-0.4,4.9-0.8,6.7-1.2c-62.9-44-110-180.9-166.3-263.5c-0.7,1.3-1.3,2.7-2,4.1
		C181.1,174.3,227.2,306.6,287.6,355z"/>
	<path d="M272.1,357.6c2-0.3,3.8-0.6,5.7-0.9c-56.8-53.8-101.4-179.2-154.5-255.2c-0.6,1.6-1.1,3.1-1.6,4.6
		C173.5,179.9,217.2,301.3,272.1,357.6z"/>
	<path d="M258.4,359.5c1.7-0.2,3.4-0.5,5-0.7c-51.8-59.3-94.1-174.3-144.1-244.8c-0.5,1.8-0.9,3.5-1.3,5.1
		C166.9,187.7,208.3,298.8,258.4,359.5z"/>
	<path d="M246,361.1c1.6-0.2,3.1-0.4,4.7-0.6c-47.4-62.2-87.5-167.3-134.3-232.9l-0.1,0.6c-0.3,1.6-0.7,3.1-1.2,4.5
		C160.8,196.6,200,298.3,246,361.1z"/>
	<path d="M234.3,362.4c1.5-0.1,2.9-0.3,4.4-0.5c-43.9-63.8-82.1-160.9-126.5-222.1c-0.7,1.5-1.4,2.8-2.1,4
		C153.8,203.3,191.5,298.1,234.3,362.4z"/>
	<path d="M223.2,363.4c1.4-0.1,2.8-0.2,4.2-0.3c-41.4-65.2-78.3-156.6-121.1-213.4c-0.3,0.3-0.5,0.6-0.7,0.9
		c-0.1,0.1-0.2,0.2-0.4,0.4l0,4.1C146.9,210.2,183,298.5,223.2,363.4z"/>
	<path d="M212.4,364.1c1.4-0.1,2.7-0.1,4.1-0.2c-37.6-63.1-72-144.9-111.3-197.9l0,6.8C143,224.3,176.3,302.3,212.4,364.1z"/>
	<path d="M201.9,364.5c1.3,0,2.7-0.1,4-0.1C172.2,305,140.7,233,105.2,183.8l0,6.8C139.2,238.3,169.6,306.7,201.9,364.5z"/>
	<path d="M191.5,364.4c1.3,0,2.7,0.1,4,0.1c-30-54.9-58.6-117.7-90.3-162.7l0,6.9C135.4,252.1,162.9,311.4,191.5,364.4z"/>
	<path d="M181,363.9c1.3,0.1,2.7,0.2,4,0.2c-26.3-49.6-51.9-103.7-79.8-144.3l0,6.9C131.6,265.7,156,316.5,181,363.9z"/>
	<path d="M170.6,363.1c1.3,0.1,2.7,0.2,4,0.4c-22.8-43.7-45.2-89.4-69.3-125.4l0,7C127.9,279.1,149.1,321.7,170.6,363.1z"/>
	<path d="M160,362c1.3,0.2,2.7,0.3,4,0.5c-19.3-37.4-38.5-75.1-58.8-106.2l0,7C124.1,292.3,142.1,327.2,160,362z"/>
	<path d="M149.4,360.6c1.4,0.2,2.7,0.4,4.1,0.5c-15.8-30.6-31.6-60.7-48.2-86.6l0,7C120.4,305.4,134.9,332.7,149.4,360.6z"/>
	<path d="M138.5,359c1.4,0.2,2.8,0.4,4.2,0.6c-12.3-23.5-24.7-46.3-37.5-66.7l0,7C116.6,318.2,127.6,338.3,138.5,359z"/>
	<path d="M127.3,357.2c1.4,0.2,2.8,0.5,4.3,0.7c-8.7-16.2-17.4-32-26.4-46.5l0,7.1C112.7,330.7,120.1,343.7,127.3,357.2z"/>
	<path d="M115.7,355.1c1.4,0.3,2.9,0.5,4.5,0.8c-4.9-8.9-9.9-17.6-15-26l0,7.1C108.8,342.9,112.3,348.9,115.7,355.1z"/>
	<path d="M105.3,348.6l0,4.4c0.5,0.1,1.5,0.3,3,0.6C107.2,351.9,106.2,350.2,105.3,348.6z"/>
	<path d="M260.8,71.9c7.3,12.5,14.6,24.4,22.2,35.3c-1.1-3.7-2.5-7.5-4.2-11.3C274.2,85.4,268.1,77.3,260.8,71.9z"/>
	<path d="M248.1,68.2c13.5,24.5,27.3,47.4,41.7,66.3c-0.7-2-1.3-4.2-1.8-6.5c-0.2-0.9-0.4-1.8-0.6-2.9c-0.1-0.3-0.1-0.6-0.2-0.9
		c-12.4-16.9-24.4-36.7-36.1-57.8c-0.1,0-0.1,0-0.2-0.1l-2.1-0.6C248.6,66.6,248.4,67.4,248.1,68.2z"/>
	<path d="M243.6,79c17.9,32.9,36.3,63,56.1,84.9l0-6.6c-19.1-21.4-36.9-50.4-54.2-82.1C244.9,76.5,244.3,77.7,243.6,79z"/>
	<path d="M299.7,181l0-6.5c-21.1-22.7-40.5-54.9-59.5-90c-0.7,1-1.5,2.1-2.3,3C257.6,124.1,277.8,157.7,299.7,181z"/>
	<path d="M299.7,198.1l0-6.5c-23.5-24.4-44.9-60.6-65.8-99.8c-0.9,0.8-1.8,1.5-2.7,2.3C252.9,135,275.2,173.1,299.7,198.1z"/>
	<path d="M299.7,215l0-6.5c-26.3-26.1-49.9-67.3-73.1-111.4c-1,0.6-2,1.1-3,1.6C247.7,144.8,272.3,188.2,299.7,215z"/>
	<path d="M215.1,101.7c26.8,51.7,53.9,101.4,84.6,130.1l0-6.4c-29.4-28-55.5-75.2-81.2-124.7C217.3,101.1,216.2,101.5,215.1,101.7z"
		/>
	<path d="M205.8,103c29.7,57.6,59.5,114.8,93.8,145.6l0-6.4c-32.9-30-61.6-84.2-90.2-139.5C208.3,102.9,207,103,205.8,103z"/>
	<path d="M299.6,265.2l0-6.3c-36.7-31.9-68.3-94.4-100-155.8c-1.3,0-2.7-0.1-3.9-0.3C228.7,166.6,261.3,232.6,299.6,265.2z"/>
	<path d="M299.6,281.7l0-6.3c-41-33.9-75.5-106.2-110.7-173.9c-1.6-0.4-3.1-0.9-4.6-1.5C221.1,170.2,256.8,247,299.6,281.7z"/>
	<path d="M299.6,298.1l0-6.3c-46.3-36.3-84.2-122-124-196.4c-2.7-1.9-5.3-4.1-7.5-6.6C210.6,166.3,250.3,260.3,299.6,298.1z"/>
	<path d="M155.9,65.6l-0.9,0.2c0.7,1.1,1.3,2.2,2,3.4C156.6,68,156.2,66.8,155.9,65.6z"/>
	<path d="M299.6,308.2c-56.5-41.9-100.4-158.1-150.1-240c-1.1,0.6-2.2,1.2-3.2,1.8c50.9,82.5,95.4,202.5,153.3,244.4L299.6,308.2z"
		/>
	<path d="M299.6,330.7l0-6.2c-59.9-41.8-105.4-167.6-158.2-251c-1,0.8-1.9,1.6-2.9,2.5C192.4,159.7,238.5,289.1,299.6,330.7z"/>
	<path d="M299.6,346.8l0-6.1C236.7,299.5,189.8,165,134.3,80.8c-0.8,1.1-1.6,2.2-2.4,3.3C188.3,168.5,235.6,306,299.6,346.8z"/>
	<path d="M623.2,97.9c-0.5-1.2-1-2.3-1.6-3.5C565.5,178.8,518.4,315.1,454.9,356c1.6,0.7,3.4,1.5,5.5,2.4
		c61.6-44.6,108-177.6,163.1-259.8C623.4,98.4,623.3,98.1,623.2,97.9z"/>
	<path d="M468.9,361.8c1.6,0.6,3.3,1.2,5.1,1.9c56.7-52.1,101.2-176.2,153.7-253.1c-0.4-1.6-0.9-3.1-1.5-4.8
		C572.7,184.7,527.5,312.2,468.9,361.8z"/>
	<path d="M481.9,366.4c1.5,0.5,3.1,1,4.7,1.5c52.2-57,94.6-171.7,144.2-243.9c-0.3-1.6-0.7-3.4-1.1-5.3
		C579,192.7,535.9,311,481.9,366.4z"/>
	<path d="M494.2,370.1c1.5,0.4,3,0.8,4.5,1.2C547,311,587.4,204.7,634.4,136.9c-0.6-1.4-1.1-3-1.6-4.6
		C584.9,201.8,543.8,311,494.2,370.1z"/>
	<path d="M505.8,373c1.4,0.3,2.9,0.6,4.3,0.9c45.4-62.9,84.3-163.2,129.6-226.6c-0.5-0.7-0.9-1.4-1.4-2.2c-0.3-0.5-0.6-1-0.9-1.5
		C591.6,208.7,552.2,311,505.8,373z"/>
	<path d="M517.1,375.2c1.4,0.2,2.8,0.4,4.2,0.6c41.9-63.4,78.9-155.6,121.6-214.9l0-6.9C598.7,214.8,560.7,311.2,517.1,375.2z"/>
	<path d="M528.1,376.6c1.4,0.1,2.8,0.3,4.2,0.4c37.7-61.2,71.9-142.8,110.6-198.1l0-6.9C602.6,228.9,567.3,314.5,528.1,376.6z"/>
	<path d="M538.9,377.4c1.4,0,2.8,0.1,4.1,0.1c33.6-57.8,64.9-129.5,99.7-180.5l0-6.9C606.5,242.7,574.1,318.2,538.9,377.4z"/>
	<path d="M554,377.1c29.7-53.4,57.9-115.6,88.8-161.9l0-6.9c-32.4,48.1-61.8,113.9-93,169.1C551.2,377.3,552.6,377.2,554,377.1z"/>
	<path d="M642.8,233.4l0-7c-28.5,43.3-54.7,99.8-82,150.1c1.4-0.2,2.8-0.3,4.2-0.5C590.8,327.9,615.8,274.8,642.8,233.4z"/>
	<path d="M576,374.2c22-42.1,43.7-86.4,66.7-122.5l0-7c-24.6,38.1-47.5,85.8-71,130.2C573.2,374.8,574.6,374.5,576,374.2z"/>
	<path d="M642.7,270.2l0-7.1c-20.6,32.7-40.1,71.7-59.8,109.7c1.5-0.3,2.9-0.6,4.3-1C605.5,336.6,623.7,300.7,642.7,270.2z"/>
	<path d="M642.7,288.7l0-7.1c-16.6,26.8-32.5,57.7-48.4,88.5c1.5-0.4,3-0.8,4.4-1.2C613.2,340.9,627.7,313.2,642.7,288.7z"/>
	<path d="M642.7,307.3l0-7.1c-12.5,20.6-24.6,43.4-36.7,66.6c1.6-0.5,3.1-1,4.6-1.4C621.1,345.1,631.8,325.4,642.7,307.3z"/>
	<path d="M642.7,325.9l0-7.1c-8.3,13.9-16.4,28.7-24.5,44c1.7-0.6,3.3-1.2,4.8-1.7C629.5,348.9,636,337.1,642.7,325.9z"/>
	<path d="M642.7,344.6l0-7.2c-3.9,6.6-7.8,13.5-11.6,20.4c2-0.8,3.7-1.5,5.2-2.1C638.4,352,640.5,348.3,642.7,344.6z"/>
	<path d="M495,65.9c-2.4,1.4-4.7,3-6.9,4.7c-7.8,13.2-15.7,25.6-23.8,36.8c-1.2,3.8-2.1,7.4-2.9,10.7C473,102.9,484.1,85.1,495,65.9
		z"/>
	<path d="M452.7,145.1c-1,1.6-2,3.1-3,4.4c-0.3,0.3-0.5,0.6-0.7,0.8c-0.2,0.3-0.5,0.5-0.8,0.6l0,0.5c22.3-23.9,42.8-58.5,62.8-95.9
		l-6,3.8c-15.2,27.9-30.7,53.7-47.2,74.3C456.3,138.6,454.3,142.5,452.7,145.1z"/>
	<path d="M520.6,49.6c-23,43.9-46.4,85.4-72.3,112.5l0,6.5C476,140,501,94.7,525.5,47.4c-1.1,0-2.2,0.1-3.3,0.1
		c-0.1,0.7-0.5,1.3-1.1,1.7L520.6,49.6z"/>
	<path d="M531.8,47.2c-26.6,51.4-53.3,101.5-83.5,131.8l0,6.5c31.7-31.3,59.6-84.5,87.3-138.4C534.4,47.2,533.1,47.2,531.8,47.2z"/>
	<path d="M448.3,196l0,6.4c35.5-33.6,66.3-95.3,97.3-155.4c-0.2,0-0.4,0-0.6,0h0c-1,0-2.1,0-3.2,0C512,104.8,482.3,163.2,448.3,196z
		"/>
	<path d="M555.6,47.2c-1.3,0-2.5,0-3.8-0.1c-33,63.6-65.5,130.7-103.5,165.7l0,6.4C487.8,183.5,521.2,112.9,555.6,47.2z"/>
	<path d="M565.5,47.4c-1.3,0-2.6-0.1-3.8-0.1c-36.4,69-71.5,145.4-113.4,182.2l0,6.4C491.7,198.4,527.8,118.3,565.5,47.4z"/>
	<path d="M574,50.8l-2.3-1.6c-0.2-0.1-0.4-0.3-0.5-0.5c-39.6,73.5-77.2,159.3-122.9,197.4l0,6.3C495.1,214.1,533.4,125.5,574,50.8z"
		/>
	<path d="M448.3,262.6l0,6.3c49.9-38.7,90-135,133.2-212.9l-2.9-2C536.4,130.7,497.1,224,448.3,262.6z"/>
	<path d="M448.3,278.9l0,6.2c53.1-38.9,94.9-143.4,140.9-224l-2.9-2C541.4,138.8,500.2,240.1,448.3,278.9z"/>
	<path d="M597,66.5c-0.3-0.2-0.6-0.4-0.9-0.6c-0.1,0-0.1-0.1-0.1-0.1l-1.9-1.3c-47.7,82-90.6,191.9-145.7,230.7l0,6.2
		C504.7,262.6,548.2,149.3,597,66.5z"/>
	<path d="M601.9,69.8c-50.6,84-95.2,202.9-153.5,241.6l0,6.1c59.6-38.5,104.8-160.8,156.4-245.4C603.8,71.3,602.9,70.6,601.9,69.8z"
		/>
	<path d="M609.2,76.3c-53.3,85.4-99.4,213-160.9,251.1l0,6.1C510.9,295.8,557.5,165,611.8,79.2C611,78.2,610.1,77.3,609.2,76.3z"/>
	<path d="M448.4,343.4l0,6.1C513.6,313,561.4,174.6,618.1,87.9c-0.7-1.2-1.5-2.3-2.3-3.5C560,170.8,512.6,306.4,448.4,343.4z"/>
	<path d="M278.7,57.6c10.4,29.8,27.1,62.3,45.2,95.5l4.3,0.8c-18-33-34.5-65.4-44.7-94.9L278.7,57.6z"/>
	<path d="M270.9,55.2l-4.8-1.5c10.8,30.3,28,63.5,46.5,97.2l4.3,0.8C298.5,118.2,281.5,85.3,270.9,55.2z"/>
	<path d="M261.8,70.9c2.5,1.9,4.8,4,7,6.6c-4-8.9-7.5-17.6-10.6-26.1l-4.8-1.5C255.9,56.8,258.7,63.8,261.8,70.9z"/>
	<path d="M301.2,148.8l4.3,0.8c-6.7-12.1-13.2-24.2-19.3-36.1c1,4.1,1.6,7.9,2.3,11c0.1,0.5,0.2,0.9,0.3,1.4
		C292.8,133.5,297,141.1,301.2,148.8z"/>
	<path d="M249.4,64.6l2.4,0.9c0.4,0.2,0.8,0.3,1.1,0.5c-0.9-2.1-1.8-4.3-2.7-6.4C250.1,61.3,249.8,62.9,249.4,64.6z"/>
	<path d="M355.6,80.9c1.7,6,3.8,12.1,6.1,18.3l1.7-7.6c-1-3.1-2-6.2-2.8-9.2L355.6,80.9z"/>
	<path d="M357.9,116.7l1.4-6.4c-4.6-10.9-8.5-21.6-11.6-31.9l-4.9-1.5C346.7,89.7,351.8,103,357.9,116.7z"/>
	<path d="M354.5,132.2l1.3-5.7c-8.5-18-15.8-35.4-20.8-51.8l-4.9-1.5C335.9,91.8,344.4,111.6,354.5,132.2z"/>
	<path d="M351.4,146.5l1.2-5.4c-12.6-24.5-23.4-48.3-30.4-70.4l-4.9-1.5C325.1,93.4,337.3,119.5,351.4,146.5z"/>
	<path d="M304.6,65.4c9.4,28.6,25.1,60,42.4,92.1l1.9,0.4l0.6-2.9c-16.5-30.7-31.2-60.7-40.1-88.1L304.6,65.4z"/>
	<path d="M291.9,61.6c9.9,29.2,26.1,61.1,43.8,93.8l4.3,0.8C322.4,123.7,306.5,92,296.7,63L291.9,61.6z"/>
	<path d="M150.6,66.4L150.6,66.4c-1.8-5-3.4-9.9-5-14.7l-4,1.2c1.6,5,3.5,10.1,5.5,15.2C148.2,67.6,149.4,67,150.6,66.4z"/>
	<path d="M141.6,71.6c-2.3-5.7-4.5-11.2-6.4-16.7l-3.9,1.2c2.2,5.9,4.6,11.9,7.2,18C139.5,73.2,140.6,72.4,141.6,71.6z"/>
	<path d="M133.9,78.9c-3.2-7.1-6.1-14.1-8.8-20.9l-3.8,1.1c3,7.6,6.4,15.3,10,23.2C132.2,81.1,133.1,80,133.9,78.9z"/>
	<path d="M127.7,88.5c-4.5-9.3-8.7-18.5-12.4-27.5l-3.7,1.1c4.2,10,9,20.2,14.1,30.5C126.4,91.1,127.1,89.8,127.7,88.5z"/>
	<path d="M121.3,104.2c0.5-1.5,1-3,1.6-4.6c-6.2-12.2-12-24.1-17.2-35.8l-3.6,1.1C107.8,77.8,114.3,90.9,121.3,104.2z"/>
	<path d="M119,111.9c-8.2-15.3-16-30.5-22.8-45.2l-3.6,1.1c7.5,16,16.1,32.4,25.1,49.1C118.2,115.3,118.6,113.6,119,111.9z"/>
	<path d="M115.5,127.2l0.5-2.1c0,0,0-0.1,0-0.1c-10.3-18.8-20.3-37.4-29-55.5l-3.5,1.1c9.4,19.3,20.2,39.3,31.3,59.4
		C115.1,129.1,115.3,128.2,115.5,127.2z"/>
	<path d="M112.4,136.9c-12.1-21.8-24.1-43.5-34.5-64.6l-3.5,1c11.1,22,23.6,44.6,36.2,67.3C111.2,139.5,111.8,138.2,112.4,136.9z"/>
	<path d="M105.6,148.1c0.4-0.5,1-1.2,1.7-2.2C94.1,122.1,80.7,98.2,68.8,75l-3.4,1c12.2,23.7,26,48,39.3,72.2L105.6,148.1z"/>
	<path d="M95.6,150.1l3.5-0.7c-13.2-23.9-26.9-48.1-39.2-71.7l-3.4,1C68.9,102.3,82.5,126.3,95.6,150.1z"/>
	<path d="M90,151.2c-12.9-23.6-26.4-47.4-38.9-70.8l-3.4,1c12.5,23.3,26,47.1,38.8,70.5L90,151.2z"/>
	<path d="M77.3,153.7l3.5-0.7c-12.6-23.2-26-46.8-38.5-70l-2.1,0.6l0.9,4.4C53,109.9,65.5,132,77.3,153.7z"/>
	<path d="M68,155.6l3.5-0.7c-8.5-15.9-17.5-32-26.4-48l2.5,11.5C54.6,130.8,61.5,143.3,68,155.6z"/>
	<path d="M58.7,157.4l3.6-0.7c-3.4-6.5-6.9-13-10.5-19.6l2.7,12.2C55.9,152,57.3,154.7,58.7,157.4z"/>
	<path d="M152.6,49.6c0.3,1.2,0.7,2.5,1.1,3.7c-0.1-1.6-0.2-2.9-0.2-3.8c0-0.1,0-0.1,0-0.2L152.6,49.6z"/>
	<path d="M446.6,64.9c4.6,13.1,10.4,26.7,17.1,40.7c0.5-1.6,1.1-3.3,1.7-5c-5.8-12.7-10.8-25-14.9-36.9L446.6,64.9z"/>
	<path d="M457,61.8c3.2,10.1,7.1,20.5,11.7,31.2c0.7-1.5,1.5-3,2.4-4.4c-3.9-9.6-7.3-19-10-28L457,61.8z"/>
	<path d="M475.4,82.1c1-1.3,1.9-2.5,3-3.7c-2.5-7.3-4.7-14.3-6.4-21.2l-4.2,1.3C469.8,66.2,472.4,74,475.4,82.1z"/>
	<path d="M483.3,53.8l-4.4,1.3c1.3,5.8,2.8,11.8,4.7,17.9c1.1-1.1,2.3-2.1,3.5-3C485.6,64.5,484.3,59.1,483.3,53.8z"/>
	<path d="M495.2,50.2l-4.6,1.4c0.7,4.5,1.6,9.2,2.8,13.9c1.1-0.7,2.3-1.5,3.5-2.2l0.6-0.4C496.4,58.6,495.7,54.3,495.2,50.2z"/>
	<path d="M507.9,48.2c-0.6,0-1.2,0.1-1.8,0.1c-1.2,0.1-2.2,0.1-3.2,0.2c0.3,3.3,0.7,6.7,1.2,10.1l4.4-2.8
		C508.2,53.3,508,50.7,507.9,48.2z"/>
	<path d="M516,47.9c0,1,0.1,2.1,0.1,3.1l5-3.2c0,0,0,0,0-0.1C519.9,47.8,517.9,47.8,516,47.9z"/>
	<path d="M400,152.4l1.1,4.7l1.4-0.3C401.7,155.4,400.8,153.9,400,152.4z"/>
	<path d="M393.2,121.9l2.6,11.7c4.1,7.4,8.2,14.8,12.3,22.2l3.5-0.7C405.5,144,399.3,132.9,393.2,121.9z"/>
	<path d="M417.3,154l3.5-0.7c-11.9-21.5-24-43.1-34.8-64.1l2.9,13C398,119.3,407.7,136.7,417.3,154z"/>
	<path d="M426.4,152.2l3.5-0.7c-13.1-23.7-26.2-47.3-37.4-70.1l-3.5,1.1C400.3,105.2,413.3,128.7,426.4,152.2z"/>
	<path d="M435.5,150.4l3.5-0.7c-13.4-24.1-26.4-48.1-37.4-71.2l-3.5,1.1C409.1,102.6,422.2,126.5,435.5,150.4z"/>
	<path d="M407.3,76.8c10.7,23.2,23.8,47.4,37.3,71.8l3.5-0.7c-13.6-24.6-26.6-48.9-37.2-72.2L407.3,76.8z"/>
	<path d="M451.9,143.5c0.1-0.2,0.2-0.3,0.3-0.5c0.5-0.9,1.1-1.9,1.7-3c-12.5-23-24.2-45.6-33.5-67.1l-3.6,1.1
		C426.6,96.3,439,119.8,451.9,143.5z"/>
	<path d="M456.7,133.5c0.5-1.5,1-3,1.4-4.7c-10.6-20.2-20.4-40-28-58.8l-3.7,1.1C434.7,91.1,445.2,112.1,456.7,133.5z"/>
	<path d="M460,120.1c0.4-1.7,0.8-3.5,1.2-5.4C453,98.2,445.7,82.2,440,66.9l-3.8,1.2C442.6,84.8,450.8,102.2,460,120.1z"/>
	<path d="M695.8,79.4L691,78c4,9.9,8.5,20.1,13.5,30.5l1.3-5.8C702.2,94.8,698.8,87,695.8,79.4z"/>
	<path d="M708.4,83.2l-4.8-1.4c1.4,3.6,2.9,7.3,4.5,11l1.5-6.6C709.1,85.2,708.7,84.2,708.4,83.2z"/>
	<path d="M574.3,49.5c-0.3-0.6-0.5-1.1-0.8-1.7c-0.6,0-1.2-0.1-1.8-0.1L574.3,49.5z"/>
	<path d="M584.3,48.2c-1.3-0.1-2.7-0.1-4.2-0.2c1.2,2.7,2.5,5.4,3.8,8.1l6,4.1C588.1,56.2,586.2,52.2,584.3,48.2z"/>
	<path d="M631.2,119.3c0.4,1.7,0.7,3.3,1,4.7c0.2,1.2,0.5,2.3,0.7,3.3c0.3,1.4,0.6,2.7,1,3.9c3.1,5.5,6.1,11.1,9.2,16.6
		c1,0.2,2.4,0.5,2.9,0.5c0.7,0.1,1.1,0.2,1.4,0.2C642,138.8,636.6,129,631.2,119.3z"/>
	<path d="M595.5,49.2l-1.9-0.6l-0.2,0c-0.6,0-1.4-0.1-2.4-0.1c2.7,6,5.6,12,8.6,18.1c2.3,1.6,4.5,3.3,6.6,5.2
		C602.4,64.2,598.8,56.7,595.5,49.2z"/>
	<path d="M607.9,53l-4.7-1.4c14,31.4,32.7,64.9,51.3,98.4l4.3,0.8C640.3,117.5,621.7,84.2,607.9,53z"/>
	<path d="M620.4,56.7l-4.8-1.4c13.5,30.8,31.8,63.8,50.1,96.7l4.3,0.8C651.8,120,633.7,87.3,620.4,56.7z"/>
	<path d="M632.8,60.5L628,59c13.1,30.3,30.9,62.6,48.9,95l4.3,0.8C663.4,122.6,645.7,90.5,632.8,60.5z"/>
	<path d="M645.3,64.2l-4.8-1.4c12.7,29.7,30,61.4,47.7,93.3l4.3,0.8C674.9,125.2,657.8,93.7,645.3,64.2z"/>
	<path d="M657.8,68l-4.8-1.4c11.2,26.7,26.4,55.2,42.2,83.9l1.1-5C681.8,118.9,668.1,92.7,657.8,68z"/>
	<path d="M670.3,71.7l-4.8-1.4c8.9,21.4,20.3,44,32.6,66.9l1.1-5.2C688.3,111.4,678.2,91.1,670.3,71.7z"/>
	<path d="M682.8,75.5l-4.8-1.4c6.5,15.9,14.4,32.5,23.2,49.5l1.2-5.4C695,103.6,688.4,89.3,682.8,75.5z"/>
</g>
</svg>
