<?xml version="1.0" encoding="utf-8"?>
<!-- Generator: Adobe Illustrator 25.3.0, SVG Export Plug-In . SVG Version: 6.00 Build 0)  -->
<svg version="1.1" id="Layer_1" xmlns="http://www.w3.org/2000/svg" xmlns:xlink="http://www.w3.org/1999/xlink" x="0px" y="0px"
	 viewBox="0 0 750.2 400.1" style="enable-background:new 0 0 750.2 400.1;" xml:space="preserve">
<g>
	<polygon points="643.3,166.6 643.3,161.7 643.3,161.7 	"/>
	<path d="M136.4,269.3c35.1,1.2,84.4,13.2,98.6-0.6c14.2-13.8-1.5-15,38.9-15c12.5,0,20.6-2.9,25.8-6.9l0-18.7
		c-24.8,10.1-64.1,8.9-77.3,19c-11.8,9-85.5,6.8-117.1,9l0,17C112.4,270.7,122.2,268.9,136.4,269.3z"/>
	<path d="M204,314c40.4,4.8,52.7-19.2,71.2-30.6c10-6.2,18.6-5.8,24.4-4.2l0-11.5c-10.5,0.9-25,3.8-32.7,8
		c-12.3,6.6-41.1,22.8-87.7,18c-40.3-4.1-49.3-15-74.1-0.8l0,15.7c2.6-1,5.5-2.2,9-3.5C138.9,295.4,163.6,309.2,204,314z"/>
	<path d="M299.7,165.5c-21-0.9-119.1,20.9-135,13.2c-11.4-5.5-36.2-2.5-59.5-2.6l0,19.4c2.2-0.2,4.5-0.5,7-0.9
		c42-7.4,25.9-3.3,43,7.7c17.2,11,66.4-9.8,102.7-17.4c20.9-4.4,33.3-2.4,41.8-0.1L299.7,165.5z"/>
	<path d="M299.7,196.3c-35-15.6-38.9-1.9-81.8,10.8c-44.9,13.3-76.1,2.7-89.5-1.5c-5.8-1.8-14.8-2.5-23.3-2.4l0,9.4
		c4.6-0.7,10.2-0.3,16.6,2.2c20.3,7.8,36.8,29,75.6,16.9c38.8-12.2,60.5-30.3,86.5-25.4c6.9,1.3,12,2.2,15.7,2.9L299.7,196.3z"/>
	<path d="M242.3,271.5c-2.2,3.4,36.8-5.1,57.3-10.6l0-7.1C276,265.3,244.8,267.7,242.3,271.5z"/>
	<path d="M130,332.2c12.3,0.6,62.3,15.6,96.6,16.2s29.4-12.6,45.9-33.5c8.9-11.3,19.4-15.1,27.2-16.2l0-10.2
		c-2.6-0.7-5.7-0.8-9.4,0.1c-15.8,3.6-37,26.4-55.5,39.5c-18.5,13.2-51.4-1.2-94.5-4.2c-20.7-1.4-29.4-0.9-35,2.3l0,26.9
		c0.8,0.2,2.7,0.6,5.4,1.1C122.4,346.4,120.5,331.7,130,332.2z"/>
	<path d="M178.6,354.7c-35.6-3-45.7-11-41.8-0.6c1,2.6,12.2,6.4,29.7,8.6c6.5,0.7,13.1,1.2,19.5,1.5c1.2,0,2.4,0.1,3.6,0.1
		c1.4,0,2.6,0.1,3.8,0.2c2.4,0,4.8,0.1,7.1,0c8.3-0.1,17.1-0.6,26-1.4C213.4,360.1,198,356.4,178.6,354.7z"/>
	<path d="M299.6,334.1l0-16.1c-3.3,2-7.7,5.9-12.8,11.5c-8.5,9.5-13.8,19.6-15.3,28.1c5.5-0.8,10.5-1.6,14.6-2.4
		C290.7,348.5,295.7,340.8,299.6,334.1z"/>
	<path d="M145.6,239.4c-1.8-2.1-28,0.3-40.4-5.9l0,10.1C128.5,244.5,147.3,241.4,145.6,239.4z"/>
	<path d="M288.7,130.9c-23.9,2.5-61.1,5.7-62.6,1.1c-1.3-4,28.2-21.4,53-35.3c-0.1-0.3-0.2-0.6-0.4-0.9c-2.3-5.2-5-9.8-7.9-13.8
		c-18.2,11.7-42.8,26.3-57.1,29.6c-24.8,5.6-40.7,22.6-66.6,24.8c-12.9,1.1-24.1-1.1-32.1-3.6c-3,9.7-7.8,15.8-9.4,17.6
		c-0.1,0.1-0.2,0.2-0.4,0.4l0,2.5c10-1.9,16.9-3.7,39.6,0.1c33.9,5.6,58.7,1.1,77.9-2.3c10.8-1.9,47.1-1,77,0.2l0-0.2
		c-0.4-0.1-0.9-0.4-1.2-0.7C296.9,148.5,291.7,141.8,288.7,130.9z"/>
	<path d="M246.9,71.7c4.5-1.8,7.4-2.9,7.4-2.9s0.4-0.1,1.2-0.2c-1.5-0.8-3-1.5-4.6-2.1l-2.1-0.6C248.3,67.7,247.7,69.7,246.9,71.7z"
		/>
	<path d="M119.2,114.9c11.7,1.9,19.2,1.3,29-1c12.1-2.8,23.7-8.8,34.5-14.5c-4.3-1.8-8.2-4.4-11.7-7.6c-6.4,2.5-12.9,4-19.4,4
		c-8.4,0-17.1-0.6-25.5-1.3c-0.2,0.5-0.4,1-0.7,1.5C122.7,102.5,120.7,109.1,119.2,114.9z"/>
	<path d="M156.5,67.5c-0.2-0.6-0.4-1.2-0.5-1.9l-1.9,0.5c-6.5,2.6-12,6.2-16.7,11C144,74.4,150.5,71,156.5,67.5z"/>
	<path d="M286.1,118.9c-0.5-2.4-1.2-5-1.9-7.7c-7.2,1.7-9.4,2.4-9.4,5C274.7,117.5,279.4,118.4,286.1,118.9z"/>
	<path d="M464.1,172.7c-6.4,0-11.6,0.7-15.8,2l0,20.3c24.3-6.7,55.8-6.8,67.4-15.7c13.4-10.2,105.8-6,127.1-10.1l0-18.4
		c-0.6-0.2-1-0.5-1.4-0.9c-0.1-0.1-0.1-0.2-0.2-0.3c-7.5,3.9-18.9,8.2-39.7,7.5c-35.1-1.2-84.4-13.2-98.6,0.6
		C488.8,171.5,504.5,172.7,464.1,172.7z"/>
	<path d="M471,150.8c12.3-6.6,41.1-22.8,87.7-18c40.5,4.2,49.4,15.1,74.4,0.6c-0.5-1.6-1-3.3-1.4-5.1c-0.2-0.9-0.4-1.9-0.6-2.9
		l-0.1-0.4c-0.4-1.8-0.8-3.8-1.3-5.9c-1.8,0.7-3.8,1.5-6,2.3c-24.7,9.6-49.3-4.2-89.7-9s-52.7,19.2-71.2,30.6
		c-4.2,2.6-8.1,4-11.7,4.7c-0.5,0.7-0.9,1.3-1.4,1.9c-0.3,0.3-0.5,0.6-0.7,0.8c-0.2,0.3-0.5,0.5-0.8,0.6l0,6.4
		C456.7,156,465.6,153.7,471,150.8z"/>
	<path d="M573.3,247.7c13,6.3,43.6,1.5,69.4,2.9l0-19.7c-4.7-0.5-10.3-0.3-16.9,0.9c-42,7.4-25.9,3.3-43-7.7
		c-17.2-11-66.4,9.8-102.7,17.4c-13.9,2.9-24.1,3-31.8,2.1l0,16.8C480.7,257.2,559.2,240.9,573.3,247.7z"/>
	<path d="M642.8,210.3c-5.2,3.1-14.3,6.1-26.6,1.4c-20.3-7.8-36.8-29-75.6-16.9C501.7,206.9,480,225,454,220.2
		c-2.1-0.4-4-0.7-5.7-1.1l0,15c26.2,8.8,33.4-3.4,71.8-14.8c44.9-13.3,76.1-2.7,89.5,1.5c8.2,2.6,22.7,2.9,33.2,1.8L642.8,210.3z"/>
	<path d="M448.3,163l0,5.4c21.7-8,45.3-10.2,47.4-13.5C497.6,152,469.3,157.8,448.3,163z"/>
	<path d="M459.3,128.3c-0.4,1.9-0.9,3.7-1.5,5.4c14.1-8.1,30.6-24.7,45.3-35.3c18.5-13.2,51.4,1.2,94.5,4.2
		c13.3,0.9,21.7,1,27.4,0.2c-0.6-1.6-1.2-3.3-1.9-4.9c-1.8-4.2-3.9-8.2-6.3-11.8c-2.2,4.7-4.1,8.4-8.9,8.2
		c-12.3-0.6-62.3-15.6-96.6-16.2c-34.2-0.6-29.4,12.6-45.9,33.5c-1.1,1.4-2.3,2.8-3.5,4c-0.8,3.4-1.5,6.6-2.1,9.4
		C459.8,126.2,459.6,127.3,459.3,128.3z"/>
	<path d="M517.5,51.5l-15.3,9.8c15.2,3,33,8.4,57.1,10.4c35.6,3,45.7,11,41.8,0.6c-1.4-3.6-22.6-9.6-52.7-10.2
		C531,61.8,525.9,57.2,517.5,51.5z"/>
	<path d="M637.6,196.6c2,2.6,3.7,3.2,5.2,2.6l0-15.8c-27.7-2.3-52.3,1.4-50.4,3.6C594.5,189.4,629.4,185.8,637.6,196.6z"/>
	<path d="M593.2,273c-33.9-5.6-58.7-1.1-77.9,2.3c-9.6,1.7-39.4,1.1-66.9,0.1l0,20.3c23.9-2.5,62-5.9,63.5-1.2
		c1.5,4.5-37.6,26.9-63.5,41.1l0,17.5c0.1,0,0.1,0,0.2,0l0.2,0.1c0.1,0,1.2,0.6,3.1,1.5c16.1-11,53.4-35.5,72.5-39.8
		c24.8-5.6,40.7-22.6,66.6-24.8c26-2.3,45.2,9,45.2,9l6.6-0.6l0-26.9C625.6,273.4,622.5,277.9,593.2,273z"/>
	<path d="M589.8,312.5c-19.2,4.5-37.3,16.9-53.1,23.7c-15.8,6.8-53.1,21.5-53.1,21.5s-7.2,1.4-14.8,4.1c11.1,4.2,25.8,9.1,42,12.3
		c21.1-16.4,47.7-43.5,75.6-43.5c19.3,0,40.3,3.2,56.2,3.5l0-17.2C614.6,309.6,605,308.9,589.8,312.5z"/>
	<path d="M642.7,348.9c-15.7-14.7-46.9,1-67.5,13.9c-23.7,14.8-22.6,13.9-10.2,13.1c10.3-0.7,31.4-9.2,47.3-11.1
		c16.6-5.5,28.4-10.9,30.4-11.8L642.7,348.9z"/>
	<path d="M463.3,310.2c0-1.5-6.5-2.5-15-2.9l0,9.3C459.9,313.8,463.3,313.4,463.3,310.2z"/>
	<path d="M280.8,70.3c-0.4-4.3-0.4-8.3-0.1-12.2l-14.9-4.5c-0.3,4-0.9,8.7-1.9,14.4c-0.2,1.3-0.4,2.7-0.6,4
		c6.3,5.1,11.1,12.3,16.4,22.6c5.5,10.8,7.3,22.4,8.8,29.8c0.2,1,0.4,2,0.6,2.9c2.6,11.9,8.4,19.3,9.8,21l11.6,2.2
		c-2.3-5.1-4-9.7-4.9-13.6C300,112.1,283.1,96.3,280.8,70.3z"/>
	<path d="M321.5,74.9c0-1.4,0-2.9,0.1-4.3L302,64.6c0.3,2.2,0.8,4.4,1.4,6.8c4.5,19.2,16.9,37.3,23.7,53.1
		c3.3,7.7,8.5,20.5,12.9,31.7l8.9,1.7l4.6-21.3C338.4,118.2,321.5,97,321.5,74.9z"/>
	<path d="M353.7,86.2c3.5,5.6,6.1,9.8,8.1,12.8l2.9-13.4c-0.2-0.7-0.4-1.4-0.6-2.2L349.4,79C350.8,81.5,352.3,83.9,353.7,86.2z"/>
	<path d="M148,51.1c0.1,2.7,0.1,5.5,0,8.6c-0.1,2.7-0.3,5.5-0.5,8.3c1-0.5,2-1,3.1-1.5l5.1-2.3l-0.5-1.5c-1.4-6.1-1.7-11-1.7-13.2
		c0-0.1,0-0.1,0-0.2L148,51.1z"/>
	<path d="M103.3,127.2c-1,8.1-0.7,15.1,0.3,21.3l2-0.4c1.8-2.1,7.4-9.4,9.8-20.9l0.5-2.1c1.5-6.9,3.9-18.4,8.6-29.7
		c2.4-18.2,6-29.3,6.9-39.3l-15.9,4.8C114.2,79,106.6,99.3,103.3,127.2z"/>
	<path d="M69,149.8c0,2,0,3.8,0,5.5l17.1-3.4c-6.9-18.5,3.9-47.5,7.1-84.3L82,71.1C77.4,92.1,69.4,125.1,69,149.8z"/>
	<path d="M54.4,149c3-13,6.6-28.1,8.2-47.1c0.9-11,2.3-19.6,3.5-26l-9.8,3c-1.7,8.9-3.1,20.6-3.3,34c-0.2,7.8-1.2,13.1-2.7,17.4
		L54.4,149z"/>
	<path d="M497.2,63.1l13.4-8.6c-0.4-2.2-0.7-4.4-0.9-6.4c-1.3,0.1-2.5,0.2-3.6,0.2c-1.9,0.1-3.5,0.2-4.8,0.3
		c-1.1,0.1-1.6,0.1-1.8,0.2l-0.1,0l-3.7,1.1C496.2,54.2,496.7,58.6,497.2,63.1z"/>
	<path d="M516.8,50.5l4.4-2.8c-1.1,0-3.1,0.1-4.9,0.2C516.4,48.8,516.6,49.6,516.8,50.5z"/>
	<path d="M435.6,95.6c3.2,17.4,12,30.7,17.5,46c1.9-3.4,4.1-8.3,5.4-14.5c0.2-1,0.4-2.1,0.7-3.3c1.5-7.3,3.5-17.2,8-27.6
		c2.2-5,4.8-9.6,7.9-13.7c-0.2-6.4,0.1-15.8,0.7-26.5l-16.3,5c0,12.6-0.7,22.4-3.1,23.1c-2.1,0.6-7.3-7-13.6-18L426.6,71
		C431,80.3,434.4,89.1,435.6,95.6z"/>
	<path d="M432.4,151c-5-15.7-13.8-30.6-18.8-43.9c-2.7-7.1-6.8-18.5-10.5-29l-18.4,5.6l2,9c14,18.4,29.9,39.7,30.4,61.3L432.4,151z"
		/>
	<path d="M579.7,53.2c0-1.6,0.1-3.3,0.2-5.1c-2.7-0.1-5.5-0.2-8.1-0.3L579.7,53.2z"/>
	<path d="M624.2,96.7c4.5,10.4,6.6,20,8.1,27.3c0.2,1.2,0.5,2.3,0.7,3.3c0.3,1.3,0.6,2.6,1,3.8c1.2-5.4,2.4-11.1,3.4-17.1
		c4.7-28.9-6.1-43.9-16.5-57.1l-18.2-5.5c2.9,6.1,7.2,15.2,10.4,27.5C617.5,84.1,621.3,90,624.2,96.7z"/>
	<path d="M593.1,62.4l1.4,1c0.8,0.5,1.6,0.9,2.3,1.4c-0.5-4.3-1.3-9.9-2.3-15.8l-1-0.3l-0.2,0c-0.7,0-1.7-0.1-2.8-0.2
		C591.6,53.7,592.4,58.4,593.1,62.4z"/>
	<path d="M652.6,83.8c9.4,14.5,2.6,36.5-3.4,65.2l12.3,2.3c4.8-18.6,10-40.6,11.1-58.4c0.6-9.5-0.1-16.1-1.7-20.9l-34.8-10.5
		C641.9,69,647.9,76.6,652.6,83.8z"/>
	<path d="M691.2,78c-3.3,16.4-10.7,35.5-14.2,63c-0.6,4.7-1.3,8.9-1.9,12.7l9.1,1.7c1.3-7.2,2.3-15.6,2.9-24.9
		c1.6-26.2,11.7-24,21.6-47.2L691.2,78z"/>
</g>
</svg>
