<?xml version="1.0" encoding="utf-8"?>
<!-- Generator: Adobe Illustrator 25.3.0, SVG Export Plug-In . SVG Version: 6.00 Build 0)  -->
<svg version="1.1" id="Layer_1" xmlns="http://www.w3.org/2000/svg" xmlns:xlink="http://www.w3.org/1999/xlink" x="0px" y="0px"
	 viewBox="0 0 750.2 400.1" style="enable-background:new 0 0 750.2 400.1;" xml:space="preserve">
<g>
	<path d="M157.3,113.9c-8.4-0.9-13.9-1.7-15.9-2c-3.7,17.1-10,48-16,80.1l18.1,2.1L157.3,113.9z"/>
	<path d="M434.8,113.6c-7.3-0.7-12-1.4-13.9-1.7c-3.7,17.1-10.1,48.2-16.1,80.4l16.1,1.9L434.8,113.6z"/>
	<path d="M326.6,111.1c-2.1,0.4-7.5,1.3-15.7,2.3l14.5,82.8l17.8-2.1C337,160.8,330.3,128.4,326.6,111.1z"/>
	<path d="M606.2,111.1c-2.1,0.4-7.1,1.2-14.8,2.2l14.6,83l16.9-2C616.7,160.9,609.9,128.4,606.2,111.1z"/>
</g>
</svg>
