<?xml version="1.0" encoding="utf-8"?>
<!-- Generator: Adobe Illustrator 25.3.0, SVG Export Plug-In . SVG Version: 6.00 Build 0)  -->
<svg version="1.1" id="Layer_1" xmlns="http://www.w3.org/2000/svg" xmlns:xlink="http://www.w3.org/1999/xlink" x="0px" y="0px"
	 viewBox="0 0 750.2000122 400.1000061" style="enable-background:new 0 0 750.2000122 400.1000061;" xml:space="preserve">
<g>
	<polygon points="643.3447266,161.7026062 643.3430176,166.5984802 643.3478394,161.7063293 	"/>
	<polygon points="132.8638916,183.322052 105.1812134,168.9267883 105.1917114,193.5250549 132.8638916,207.8866882 	"/>
	<polygon points="132.8638916,226.5219421 105.199707,212.1781311 105.2102051,236.7577209 132.8638916,251.0866394 	"/>
	<polygon points="132.8638916,284.6512756 132.8638916,270.5689392 105.2185669,256.2445374 105.2290649,280.8055115 
		132.8638916,295.1335754 	"/>
	<path d="M132.8638916,337.5393982v-23.7705688l-27.6268311-14.3383179l0.010498,24.5267334l26.0405884,13.5307007
		C131.8154297,337.5050964,132.3296509,337.5221863,132.8638916,337.5393982z"/>
	<polygon points="272.7444458,207.8866882 299.7077026,193.9889221 299.7321167,169.3869324 272.7444458,183.322052 	"/>
	<polygon points="272.7444458,251.0866394 299.6647949,237.2306824 299.689209,212.6454773 272.7444458,226.5219421 	"/>
	<polygon points="299.6454468,256.723175 272.7444458,270.5689392 272.7444458,284.6512756 272.7444458,295.1335754 
		299.6210327,281.292572 	"/>
	<path d="M299.5782471,324.4552917l0.024292-24.5302124l-26.8580933,13.84375v23.7705688
		c0.5341797-0.0172119,1.0484619-0.0343018,1.5756836-0.0514526L299.5782471,324.4552917z"/>
	<polygon points="477.6160889,184.322113 448.2774658,168.0370178 448.2879639,192.5801697 477.6160889,208.8867493 	"/>
	<polygon points="477.6160889,227.5220032 448.2959595,211.2068176 448.3064575,235.7685242 477.6160889,252.0867004 	"/>
	<polygon points="477.6160889,285.6513367 477.6160889,271.5690002 448.3148193,255.2552185 448.3253174,279.8343811 
		477.6160889,296.1336365 	"/>
	<path d="M477.6160889,338.5394592v-23.7705688l-29.2827759-16.281189l0.010498,24.6161499l27.6965942,15.3841553
		C476.567627,338.5051575,477.0819092,338.5222473,477.6160889,338.5394592z"/>
	<polygon points="614.7160645,208.8867493 642.8045654,193.5542297 642.8289185,168.9847107 614.7160645,184.322113 	"/>
	<polygon points="614.7160645,252.0867004 642.7617798,236.7710266 642.7861328,212.1956482 614.7160645,227.5220032 	"/>
	<polygon points="642.7424927,256.2638245 614.7160645,271.5690002 614.7160645,285.6513367 614.7160645,296.1336365 
		642.7181396,280.8442688 	"/>
	<path d="M642.675293,324.0908508l0.024353-24.597168l-27.9835815,15.2752075v23.7705688
		c0.5342407-0.0172119,1.0484619-0.0343018,1.5757446-0.0514526L642.675293,324.0908508z"/>
</g>
</svg>
