<?xml version="1.0" encoding="utf-8"?>
<!-- Generator: Adobe Illustrator 25.3.0, SVG Export Plug-In . SVG Version: 6.00 Build 0)  -->
<svg version="1.1" id="Layer_1" xmlns="http://www.w3.org/2000/svg" xmlns:xlink="http://www.w3.org/1999/xlink" x="0px" y="0px"
	 viewBox="0 0 750.2 400.1" style="enable-background:new 0 0 750.2 400.1;" xml:space="preserve">
<style type="text/css">
	.st0{fill:none;}
</style>
<g>
	<path class="st0" d="M332.4,180c-0.4-0.3-0.8-0.6-1.2-0.9c-0.6-0.2-1.2-0.4-1.9-0.1c0.5,0.1,1,0.2,1.5,0.3
		C331.1,179.6,330.8,180.1,332.4,180z"/>
	<path class="st0" d="M338.3,179.1c-2-0.2-3.2-0.4-4.9-0.6C334.4,179.5,336,179.3,338.3,179.1z"/>
	<path class="st0" d="M419,136c0.1,0.1,0.1,0.1,0.1,0.2C419.1,136.1,419,136,419,136z"/>
	<path class="st0" d="M418.7,135.8c0.1,0.1,0.2,0.1,0.3,0.2C418.9,135.9,418.8,135.8,418.7,135.8z"/>
	<path class="st0" d="M619.4,246.6c-1,0-1.3,0.4-1.8,0.6c-1.9,1,1.1,2.2-1.7,3.4c6.5-0.7,4.2-2.4,4.8-3.7
		C620.7,246.9,619.8,246.6,619.4,246.6z"/>
	<path class="st0" d="M124.9,222.5c0.2,0.2,0.3,0.4,0.4,0.7C125.2,222.9,125,222.7,124.9,222.5z"/>
	<path class="st0" d="M124.4,221.8c0.2,0.2,0.3,0.4,0.5,0.7C124.7,222.2,124.6,222,124.4,221.8z"/>
	<path class="st0" d="M346.3,223.4C346.4,223.4,346.4,223.4,346.3,223.4L346.3,223.4z"/>
	<path class="st0" d="M407.1,228.2c0,0.7,1,0.8,2.5,0.5c-0.1-0.6-0.1-1.2-0.2-1.8c0,0-0.1,0-0.1,0
		C406.6,226.8,407.2,227.6,407.1,228.2z"/>
	<path class="st0" d="M621.9,283.4C621.9,283.4,621.9,283.4,621.9,283.4C621.9,283.4,621.9,283.4,621.9,283.4z"/>
	<path class="st0" d="M143.8,153.4c-0.1,0-0.1,0.1-0.1,0.1C143.7,153.5,143.7,153.4,143.8,153.4z"/>
	<path class="st0" d="M622,256.1c-0.7,0.5-1.2,1.1-3.1,1.1c1.1,0.7,1.5,0.6,9.6-0.8C626.3,256.3,624.4,255.5,622,256.1
		c-0.4-0.6-0.9-1.2-2.1-1.4C621.1,254.9,621.6,255.5,622,256.1z"/>
	<path class="st0" d="M630.4,270.1c-0.3-0.1-0.5-0.1-0.8-0.1C629.9,270,630.2,270.1,630.4,270.1z"/>
	<path class="st0" d="M609.9,162.4c0.1,0,0.1-0.1,0.1-0.1C610,162.3,609.9,162.3,609.9,162.4z"/>
	<path class="st0" d="M419.4,133.7c0.5-0.1,0.8-0.1,1.2,0C420.3,133.6,419.9,133.6,419.4,133.7z"/>
	<path class="st0" d="M603,159.2L603,159.2c0.4,0.1,0.7,0.3,1.1,0.4c0,0,0,0,0,0C603.7,159.5,603.4,159.4,603,159.2z"/>
	<path class="st0" d="M604.3,155.8c1.1-0.1,2.5-0.1,2.1-0.8c0.3-0.8-2.2-0.7-2.8-1.2c-0.6,0.4-1.4,0.8-1.6,1.3
		C601.8,155.7,603,155.9,604.3,155.8z"/>
	<path class="st0" d="M419.4,133.7c-0.3,0-0.7,0.1-1.1,0.2C418.8,133.8,419.1,133.7,419.4,133.7z"/>
	<path class="st0" d="M610.9,206.9c0.2,0,0.3,0,0.5,0C611.2,206.9,611.1,206.9,610.9,206.9z"/>
	<path class="st0" d="M421.5,133.8c-0.1,0-0.1,0-0.1,0C421.4,133.8,421.4,133.8,421.5,133.8z"/>
	<path class="st0" d="M630.6,272.1c-0.1,0-0.3,0-0.4,0.1C630.3,272.2,630.4,272.2,630.6,272.1z"/>
	<path class="st0" d="M612.4,209.1c-0.6-0.5-1.2-1.1-1.8-1.6C611.2,208.1,611.8,208.6,612.4,209.1c0.1,0.1,0.1,0.2,0.1,0.4
		c0.7-0.1,1.5-0.3,2.2-0.4c0-0.3,0.1-0.6,0.1-0.9c1.2,0,2.3-0.1,3.5-0.2c-1.1,0.1-2.3,0.2-3.5,0.2
		C613,208.2,612.4,208.5,612.4,209.1z"/>
	<path class="st0" d="M624.5,281.7c1.5-0.1,3.2-0.1,2.3-0.9c-1.8,0-3.5,0.1-5.9,0.1C622.6,281.3,623.6,281.5,624.5,281.7z"/>
	<path class="st0" d="M630.9,271.1c-0.3,0-0.6,0-1,0C630.2,271.1,630.6,271.1,630.9,271.1z"/>
	<path class="st0" d="M429.9,116.9L429.9,116.9c-0.3-0.3-0.8-0.3-1.2,0c0,0,0,0,0,0c0,0,0,0,0,0
		C429.2,116.9,429.6,116.9,429.9,116.9C430,116.9,429.9,116.9,429.9,116.9z"/>
	<path class="st0" d="M615.8,207.5c-0.4-0.1-0.8-0.2-1.2-0.3l0,0c-0.3,0-0.6,0-0.9,0.1C614.1,207.7,614.8,207.8,615.8,207.5z"/>
	<polygon class="st0" points="416.4,177.7 416,177.6 416.1,177.8 	"/>
	<path class="st0" d="M625,276.2c-3.5,1-3.7,1.5,0.8,1.9c3.2,0,5.4,0.8,7.5,1.8c2.1-1.7,1-2.9-1.5-4.1
		C629.5,276,627.3,275.6,625,276.2z"/>
	<path class="st0" d="M422.3,139.1c1.6,0.2,3.1,0.4,4.7,0.5C425.8,139,424.2,138.9,422.3,139.1z"/>
	<path class="st0" d="M399.7,224.5c-0.2,0.1-0.4,0.1-0.6,0.1C399.3,224.6,399.5,224.6,399.7,224.5z"/>
	<path class="st0" d="M400.6,245.6c1.9,1.5,4.6,1.3,9-0.6c-1.7-0.2-3,0.2-4.4,0.4l0,0C403.6,245.6,402.1,245.6,400.6,245.6z"/>
	<path d="M333.7,145.1c0-0.2-0.1-0.5-0.1-0.7C333.4,144.6,333.3,144.9,333.7,145.1z"/>
	<path d="M155.3,125.6l2-11.7c-8.4-0.9-13.9-1.7-15.9-2c-0.5,2.5-1.1,5.4-1.8,8.4c4.5,1.7,10.3,2.7,14.2,4.6
		C154.2,125.2,154.7,125.4,155.3,125.6z"/>
	<path d="M148.5,165l0.5-3.1c-5.6-2-11.1-3.9-16.7-5.9c-0.4,2.2-0.9,4.3-1.3,6.6c0.9,0.2,2.5,0,5.3-0.5c3.2-0.6,3.6,0.9,6.2,1
		c1.9,0-0.5,0.6-0.3,1l0.1,0c0,0,0.1,0,0.1,0C145,163.6,146.5,164.6,148.5,165z"/>
	<path d="M152.1,128.2c-1.3,0.5-2,0.7-4.1,0.3c-1.8-0.4-9.4,1.9-10.1,3.2c-0.3,0.6-0.5,0.9-0.9,0.8c-1.2,6-2.6,12.5-3.9,19.4
		c1,0,2-0.1,2.7,0.3c2.4,1.2,4.6,1.9,7.4,0.1c0.5-0.3,1.5,0.2,2.1,0.5c0.4,0.2,1,0.4,0.1,0.6c-0.2,0-0.7-0.2-1.1-0.3c0,0,0,0,0,0
		c-0.2,0.1-0.4,0.2-0.6,0.3c-0.1,0-0.1,0.1-0.1,0.1c-0.2,0.2,0,0.4,1.2,0.5c1.7-0.2,3.9-0.1,5.6-0.3l0.2-1.2
		c-2.7-0.2-5.1-0.6-7.5-1.1c-0.5-0.1-1.1-0.1-1.6-0.2c-1.8-0.4-4.6,0.1-5.5-1c2.3-0.1,3.8-1.3,6.6-0.7c1.4-1,3.6-1.3,6.1-0.6
		c0.8,0.2,1.7,0.3,2.5,0.4l3-17.4c-0.1-0.1-0.2-0.1-0.3-0.2c-1.5-1-1.2-2.1,0.1-3c0.1-0.1,0.5-0.2,0.8-0.3l0.1-0.8
		C153.7,127.3,152.8,127.9,152.1,128.2z"/>
	<path d="M315.4,139.3c0.5,0,1.1,0,1.8,0.1c4.9,0.3,6,2,8.3,3.3c1.6,0.9-1.9,0.7-1.7,1.3c3.2,1.4,3.9,0.2,4.9-0.7
		c2-0.5,3.9-0.8,4.6,0.1c-2.7-13.1-5-24.3-6.7-32.3c-2.1,0.4-7.5,1.3-15.7,2.3L315.4,139.3z"/>
	<path d="M621.9,283.4C621.9,283.4,621.9,283.4,621.9,283.4c0-0.1,0-0.1,0-0.1s0,0-0.1-0.1c-0.1-0.1-0.3-0.1-0.6-0.2l0.1,0.6
		c0,0,0,0,0,0C621.7,283.6,621.8,283.5,621.9,283.4z"/>
	<path d="M620.7,269.9c0,0,2.1,1.2,3.4,0.6c0.3-0.2,0.7-0.3,1-0.4c1.6-0.5,3.1-0.5,4.6-0.2c0.3,0,0.5,0.1,0.8,0.1
		c0.5,0.1,1,0.2,1.4,0.3l0,0c0,0,0,0,0,0c1.3-0.2,2.4-0.2,3.4-0.1c-0.8-6.2-1.7-12.9-2.8-20.1c-1.4,0.4-2.4,1-4.1,1
		c-2.5,0.1-5.2-0.6-4.4-1.1c3.7-1.8-0.7-3.1-1.7-4.5c-0.7-0.9-4.8-1.2-7.7-0.8l1.8,10.1c0.2-0.1,0.5-0.1,0.7-0.1
		c1.3-0.2,2.2-0.2,2.9-0.1c1.2,0.2,1.7,0.8,2.1,1.4c2.4-0.7,4.3,0.2,6.6,0.3c-8.1,1.5-8.5,1.5-9.6,0.8c-0.6-0.2-1.4-0.3-2.2-0.5
		l2,11.2C620,268.5,621.7,269,620.7,269.9z M615.9,250.7c2.8-1.2-0.2-2.4,1.7-3.4c0.5-0.3,0.8-0.6,1.8-0.6c0.4,0,1.3,0.3,1.3,0.4
		C620,248.2,622.4,249.9,615.9,250.7z"/>
	<path d="M617.4,217.3c3.4,1.2,6.8,2.3,10.2,3.5c-0.6-3.5-1.2-7-1.9-10.6c-0.6,0-1.1-0.1-1.7-0.2c-1.2-0.2-2-0.3-2.5-0.7
		c-0.3-0.2-2.4-0.2-0.9-0.7c0.5-0.2,1.4-0.2,2.2-0.2c1.1,0-0.3,1.1,2,0.7c-1-0.3,0.1-0.7,0.5-1c0-0.2-0.1-0.3-0.1-0.5
		c-0.1,0-0.2-0.1-0.3-0.1c-1.1-0.3-2.2-0.6-3.7-0.2c-1,0.3-2,0.4-3.1,0.5c-1.1,0.1-2.3,0.2-3.5,0.2c0,0.3-0.1,0.6-0.1,0.9
		c0,0,0,0,0,0c0.4,0.2,0.7,0.3,1.1,0.5c3.6,1.7,1.7,2.5-3.4,2.5c-1.6,0-2.7,0.4-3.4,0.8l0.2,1.3c0.6,0.1,1.2,0.3,1.7,0.4
		C613.6,215.3,615.5,216.3,617.4,217.3z"/>
	<path d="M635.9,275.3c-0.3-0.4-0.3-0.8-0.1-1.2c0-0.4-0.1-0.9-0.2-1.3c-1.4-0.5-2.9-0.8-5-0.6c0,0,0,0,0,0l0,0c0,0,0,0,0,0
		c-0.1,0-0.3,0-0.4,0.1c-0.5,0.1-0.7-0.1-0.7-0.3c0,0,0-0.1,0-0.1c-0.2-0.5,1.6-0.4,1.8-0.7c-0.1,0-0.3,0-0.4,0c-0.3,0-0.6,0-1,0
		c-0.8-0.1-1.6-0.1-1.7,0.5c-0.1,0.5-0.2,0.9,1.6,1.2c3.3,0.5,4,1.2,3.2,2.1c-0.3,0.3-0.7,0.6-1.2,0.9h0c2.5,1.2,3.6,2.4,1.5,4.1
		c-2.1-1-4.3-1.8-7.5-1.8c-0.4,0.5,0.2,1,0.7,1.5c0.4,0.4,0.7,0.8,0.3,1.2h0c1,0.9-0.8,0.9-2.3,0.9c0.6,0.8,1.3,1.5,1.6,2.3
		c0.1,0.5,0,1.2-1.9,1.3c-0.8,0.1-1.7,0-2.5-0.1l0.4,2.3c1.5-0.2,2.9-0.4,2.6-1.4c2.3,1.2,0.1,1.8-0.9,2.4c-0.2,0.2-0.4,0.3-0.4,0.5
		c1.1,0.3,3,0.4,3.3,0.9c3.5-0.5,6.9-1,10.5-1.6C636.9,284.7,636.5,280.2,635.9,275.3z"/>
	<path d="M593.1,123.1c0.8-0.2,2-0.2,3.3-0.2c1.6,0.1,1.3,0.9,2.4,0.8c8.5-0.5,8.3,1.8,9.1,3.8c0.6,0.3,1.3,0.4,1.9,0.3
		c-1.4-6.5-2.6-12.2-3.6-16.8c-2.1,0.4-7.1,1.2-14.8,2.2L593.1,123.1z"/>
	<path d="M593.5,125.1C593.5,125.1,593.5,125.1,593.5,125.1l0.9,5.5c1-0.5,1.7-0.9,1.5-1.6c-0.2-0.6-0.6-1.4,2.3-1.3
		C597.5,126.6,597.4,125.5,593.5,125.1z"/>
	<path d="M596.7,143.5C596.7,143.5,596.7,143.5,596.7,143.5C596.7,143.5,596.7,143.5,596.7,143.5L596.7,143.5z"/>
	<path d="M620,179.2c-0.6-3.3-1.2-6.5-1.9-9.7c-0.7-0.1-1.6-0.2-2.7-0.5c-0.4-0.1-1.6,0-2,0.2c-1.1,0.4-5.6,0.7-6.2,0.3
		c-0.5-0.4-1.7-1.3-0.2-1.3c3.5,0.1,5.4-0.7,7.4-1.3c0.7-0.2,1.4-0.5,2.1-0.6h0c-0.1-0.1-0.2-0.1-0.2-0.2c0.1-0.1,0.2-0.2,0.3-0.3
		c-2.2-0.1-2.3-1.1-4.1-1.4c-1.3-1,0.7-2.3-2.5-3.1c0,0.2,0,0.6-0.1,0.8c0,0.1-0.1,0.1-0.1,0.1c-0.1,0.1-0.2,0.1-0.4,0.1
		c-0.3,0-0.7-0.1-1.2-0.3c-1.6-0.7-4.3-1.3-4.1-2.5c0,0,0,0,0,0c-0.4-0.1-0.7-0.3-1.1-0.4c0,0,0,0,0,0c-1.4,0.1-2.4,0-3.1,0
		c-0.1,0-0.3,0-0.4-0.1l2.4,13.4c5.5,2,11,4,16.6,6.1C618.9,178.8,619.5,179,620,179.2z"/>
	<path d="M599.5,156.9c0.7-1,2.9-1.3,5-1c3.1,0.4,4.5-0.4,4.4-1c-0.4-2.9,2.6-2.2,6.2-1.1c-0.1-0.5-0.2-1-0.3-1.5
		c-1.2-0.1-2.2-0.2-2.2-0.9c0-0.5,0.8-0.7,1.9-0.8c-0.2-1.1-0.4-2.1-0.6-3.1c-1-0.2-2.3-0.6-3.4-0.9c-1.4-0.4-1.4-0.8-2.4-0.8
		c-1.8,0.2-3.6,0.4-5.5,0.6c0.7,0.6,2.6,1.4-0.3,1.7c-1.7,0.2-3.4,0.2-4.6,0l1.6,9.3C599.2,157.2,599.4,157.1,599.5,156.9z
		 M602,155.1c0.2-0.5,1.1-0.9,1.6-1.3c0.6,0.5,3.1,0.4,2.8,1.2c0.4,0.7-1.1,0.7-2.1,0.8C603,155.9,601.8,155.7,602,155.1z"/>
	<path d="M425.5,136.9c1.1,0.7-0.1,0.8-1.6,0.9c0,0,0,0,0,0c0.3,0.2,0.3,0.3-1.2,0.4c-0.2,0-0.5,0-0.8,0c-1.4,0.1-1.9,0.3-1.8,0.8
		c0,0,0.1,0,0.2,0c0.4,0,1.4,0,2,0c0,0,0,0,0,0c1.9-0.2,3.5,0,4.7,0.5c1.9-0.2,1.2-1,2.1-1.5c0.7,0.1,0.9,0.5,1.3,0.7l1.5-8.7
		c-0.9,0.7-1.7,1.5-4.1,0.9c-2.6-0.6-4.3-2-3.9-3.5c0.1-0.4,0-0.9,0-1.3c-3,0-4.9,0.4-6.3,1c-0.3,1.3-0.6,2.7-0.8,4.1
		c0.1,0,0.1,0,0.1,0.1c1.3,0.7,1.5,1,4.7,0.9c4.1-0.2,4,1.1,1.2,2.1c-0.3,0.3,0.5,0.8-1,0.8c-0.6,0-1.6-0.2-1.8-0.4
		c-0.6-0.6,1.1-0.6,1.9-0.8c0,0,0,0,0,0c-0.1-0.1-0.3-0.1-0.4-0.1c-0.1,0-0.1,0-0.1,0c-0.2-0.1-0.5-0.1-0.7-0.1c-0.4,0-0.8,0-1.2,0
		c-0.3,0-0.7,0.1-1.1,0.2c-1.8,0.3-2.3,0.6-1,1.3c0.4,0.2,0.9,0.4,1.2,0.6c0.1,0.1,0.2,0.1,0.3,0.2c0.1,0.1,0.1,0.1,0.1,0.2
		c0,0,0,0,0,0c0,0.2-0.2,0.5-1.1,0.7c0.2,0.1,0.2,0.3,0.3,0.4c1.3-0.1,2.6-0.2,3.9-0.3C423.1,136.5,424.3,136.2,425.5,136.9z"/>
	<path d="M427.8,122.9c-0.7,0.7,1,0.7,2.4,0.8c1,0.1,2,0.2,2.8,0.3l0.3-1.9c-0.8-0.1-1.6-0.3-2.6-0.3
		C428.5,121.8,428.2,122.5,427.8,122.9z"/>
	<path d="M340.7,237.5c-2-0.7-3.6-1.3,0.7-1.8c6.1-0.8,6.3-1.7,1.3-3.3c-0.6-0.2-1.3-0.8-1-0.9c3.1-1.3-0.2-0.9-1.7-0.9
		c-1.4,0-3.2,0.3-4-0.5c-1.6-0.6-3.3-1.3-4.9-1.9l0.7,4c1.8,0.2,3.7-0.1,5.4,0.4c2.6,0.8,2.2,1.3-0.6,1.8c-0.5,0.8-0.7,1.5-3.2,1.8
		c-0.3,0-0.6,0.1-0.9,0.1l0.3,1.5c0.4,0,0.7,0,1,0.1c0.5,0.1,0.6,0.5,0.8,0.7c0.2,0.1,0.4,0.1,0.6,0.1
		C334.1,236.5,338.8,237.9,340.7,237.5z"/>
	<path d="M407.6,253.8c-2.3-0.7,0.8-2.3-3.1-2.7c2.1-0.6,4.2-1.5,6.8-1.5l0.5-3c-0.2,0-0.4-0.1-0.7-0.1c0.5-0.3,0.7-0.6,0.9-1
		l0.8-4.9c-1.9-0.3-0.8-0.9-1.3-1.6c-0.7-0.9,0.7-0.8,1.7-0.8l0.1-0.3c-0.5,0-0.9-0.1-0.7-0.4c0.3,0,0.5,0,0.8,0l0.6-3.6
		c-1.4-0.1-2.9-0.5-4.4-1.1c1.9,0.3,3.3,0.2,4.6,0l0.5-2.8c-0.1,0-0.3,0.1-0.4,0.1c-1.2,0.4-1.7,0.2-1.3-0.3c0.4-0.5,0.3-0.8,0-1
		c-0.6-0.3-1.9-0.4-3.3-0.4c0,0,0,0,0,0c-1.5,0.4-2.6,0.2-2.5-0.5c0-0.6-0.5-1.4,2.3-1.3c0,0-0.1,0-0.1,0c-2.6-0.9-1.8-2.9-7-2.9
		c-0.7,0-1.2,0.1-1.7,0.3c-0.3,0.1-0.6,0.2-0.9,0.3c-0.2,0.1-0.4,0.1-0.6,0.1c0,0,0,0-0.1,0c-0.9,5.4-1.8,10.7-2.6,15.9
		c1.5-0.4,2.9-0.4,4,1.1c0.6,0.8,5.5,1.2,0.7,2.4c-0.5,0.1,0.6,0.3,1.7,0.6c0.9,0.2,1.9,0.5,2.4,0.8c1.4-0.2,2.7-0.6,4.4-0.4
		c-4.3,1.9-7.1,2.1-9,0.6c-1.9,0.2-3.6,0.6-5-0.1c-0.3,2-0.6,3.9-0.9,5.8c2.1,0.5,4.4,0.9,7,1.1c1,0.1,2.3,0.4,1.6,0.7
		c-4.1,1.7,2.4,1.1,2.7,1.8c0.5-0.2,1-0.4,1.5-0.6C407.6,254.2,407.9,253.9,407.6,253.8z"/>
	<path d="M329.7,189.4c-0.7-0.4-1.5-0.7-2.4-1c-1.1-0.4-2.3-0.8-3.4-1.1l3.8,21.6c0.4,0,0.8,0,1.4-0.1c1.2-0.2,2.6,0.3,3-0.6
		c0.6-1.4,4-1.8,7.2-2.2c0.3-1,0.5-2,0.9-3.4c1.8,0.9,0.7,1.8,1.5,2.5c1.3-0.2,1.7-1.5,3.4-1c-0.6-3.3-1.2-6.6-1.8-9.9
		c-2.2-1.1-5-2-8.4-2.3C330.3,191.6,331.3,190.2,329.7,189.4z"/>
	<path d="M134,219.9c-1.6,0.6-3,0.6-3.6-0.4c-0.4-0.8-0.2-2.1-3.9-1.5c-4.5,0.7,0.7,1.4,0.5,2.2c0,0.1-0.2,0.3-0.3,0.5
		c-1.6,0-3.1-1-4.6-0.2c-1.1,0.6,2.1,0.5,2.1,1.1c0.1,0.1,0.2,0.2,0.2,0.3c0.2,0.2,0.3,0.4,0.5,0.7c0.2,0.2,0.3,0.4,0.4,0.7
		c0.6,1.2,0.2,2.3-4.4,2.9c3.7,2.1,9.6,3.3,13.8,5.2c0.7,0.3,1.6,0.6,2.3,0.5l2.2-12.7C137.6,219.5,135.3,219.3,134,219.9z"/>
	<path d="M341.5,288l0.2,0.9c1-0.2,2.1-0.3,3.2-0.4C343.9,288.2,342.7,288.1,341.5,288z"/>
	<path d="M614.6,207.2C614.6,207.2,614.6,207.2,614.6,207.2L614.6,207.2c0.4,0.1,0.8,0.2,1.2,0.3c-1,0.3-1.7,0.2-2.1-0.2
		c-0.6-0.1-1.2-0.2-1.8-0.3c0,0,0,0,0,0c-0.4,0.2-0.9,0.4-1.3,0.6c0.6,0.5,1.2,1.1,1.8,1.6c0-0.6,0.6-1,2.4-1c1.2,0,2.3-0.1,3.5-0.2
		s2.2-0.3,3.1-0.5c1.5-0.4,2.6-0.2,3.7,0.2c0.1,0,0.2,0.1,0.3,0.1c-0.2-1.4-0.5-2.7-0.7-4.1c-2.9,0-5.5,0.2-7.7,0
		c-4.4-0.5-4.7,0.3-4.3,1.5c0,0,0,0,0,0C615.6,205.5,615.3,206.3,614.6,207.2z"/>
	<path d="M624.6,203.6c-0.1-0.5-0.2-1.1-0.3-1.6C622.7,202.3,620.8,202.7,624.6,203.6z"/>
	<path d="M624.9,209.1c-2.3,0.4-0.8-0.7-2-0.7c-0.7,0-1.7,0-2.2,0.2c-1.5,0.5,0.7,0.4,0.9,0.7c0.5,0.4,1.2,0.6,2.5,0.7
		c0.5,0.1,1.1,0.1,1.7,0.2c-0.1-0.7-0.2-1.3-0.4-2C625,208.5,623.9,208.8,624.9,209.1z"/>
	<path d="M346.5,220.7C346.5,220.7,346.4,220.7,346.5,220.7L346.5,220.7C346.5,220.7,346.5,220.7,346.5,220.7z"/>
	<path d="M347.8,219.3c-0.8,0.3-1.2,0.7-1.3,1.3c0.5,0.1,1,0.1,1.6,0.2C348,220.3,347.9,219.8,347.8,219.3z"/>
	<path d="M330.1,223l0.9,5.2c1.6,0.6,3.3,1.3,4.9,1.9c5.1,0.1,10.2,0.3,13.4-1.7c0-0.2-0.1-0.3-0.1-0.5c-4,0.1-4.8-1.9-8.8-1.8
		c1.9-0.7,4.9-0.8,6.5-0.6c0.7,0.1,1.3,0.2,1.9,0.2c-0.1-0.4-0.1-0.9-0.2-1.3c-2.5-0.1-5.7,0.3-6.2-1.3c-0.1-0.1-0.1-0.2-0.2-0.3
		c0.3,0,0.6,0.1,0.8,0.1c0.8-0.3,1.3-0.9,2.9-0.5c0,0,0,0,0,0h0c0.2,0.1,0.5,0.1,0.7,0.2c0.7,0,1.2,0.1,1.7,0.3
		c-0.1-0.4-0.1-0.8-0.2-1.1c-0.3,0-0.5,0-0.8,0c-3.4,0.1-7.3-0.6-8.7,1.5c-0.5,0.8-4,1-5.4,0.3C331.9,222.7,331,222.8,330.1,223z"/>
	<path d="M336.6,234.4c-1.7-0.3-2.7-1-4.7-1.2l0.6,3.2c0.3,0,0.6,0,0.9-0.1C335.9,235.9,336.1,235.2,336.6,234.4z"/>
	<path d="M333.7,237.9c-0.3-0.1-0.6-0.1-1-0.1l0.3,2c2.1,0,4.1,0,6.2,0c-1.7-0.4-4-0.3-4.7-1.1C334.3,238.4,334.2,238,333.7,237.9z"
		/>
	<path d="M399.7,224.5c0.3-0.1,0.6-0.2,0.9-0.3c0.5-0.2,1-0.3,1.7-0.3c0.6-0.5,1.1-0.9,3-0.7c2.4,0.3,3-0.4,3.6-1
		c1.1-1.2-2.6-0.8-2.7-0.8c-3,0.3-2.2-0.7-3.1-1.2c-1.8,0.4-2.9,1-3.7,1.7c-0.2,0.9-0.3,1.8-0.5,2.8c0,0,0,0,0.1,0
		C399.3,224.6,399.5,224.6,399.7,224.5z"/>
	<path d="M413.3,177c-0.6,0.6-2.5,2.3-1,2.4c3.8,0.3,6.7,1.5,10.8,1.4l0.5-3.1c-0.4,0-0.9-0.1-1.4-0.1c0.5,0,1-0.1,1.4-0.1l0.6-3.7
		c-0.5-0.1-0.8-0.4-0.8-0.8c-0.1-1.2-1-2-4.7-0.8c-2.6,0.8-4.9,2-9.5,2C414.1,174.7,415.1,175.4,413.3,177z M416.4,177.7l-0.2,0.1
		l-0.1-0.1L416.4,177.7z"/>
	<path d="M428.7,116.9C428.7,116.9,428.8,116.9,428.7,116.9C428.8,116.9,428.8,116.9,428.7,116.9L428.7,116.9z"/>
	<path d="M424,127.5c-0.4,1.4,1.3,2.8,3.9,3.5c2.4,0.6,3.2-0.2,4.1-0.9l1.1-6.1c-0.8-0.1-1.8-0.2-2.8-0.3c-1.4-0.1-3.2-0.1-2.4-0.8
		c0.4-0.4,0.7-1.1,3-1.1c1,0,1.8,0.2,2.6,0.3l0.6-3.2c-2-0.4-2.7,0.4-3.9,0.7l-0.2,0.1c0,0,0.2-0.1,0.2-0.1l0,0
		c0.7-0.7,1.4-1.3,2.1-2c-0.3-0.1-0.7-0.2-1-0.3c-0.3-0.1-0.7-0.3-1-0.4c-0.4,0-0.8,0-1.2,0c0.3,1.5-3.8,1.5-5.9,2
		c-1.6,0.3,0-1-1.6-1.4c-0.6,0.1-1.1,0.3-1.7,0.4c-0.1,0.6-0.3,1.3-0.4,2c0.1,0,0.1,0,0.1,0.1c0,0.2-0.1,0.3-0.2,0.4
		c-0.3,1.3-0.6,2.7-0.8,4c1.5,0.5,3.6,0.3,6.8-0.7c1.4,0.9,3.8,1.9-1.1,2.5C424,126.6,424.1,127,424,127.5z"/>
	<path d="M615.8,209.6c-0.3-0.2-0.7-0.3-1.1-0.5c0,0,0,0,0,0c-0.7,0.1-1.5,0.3-2.2,0.4c-0.8,0.4-1.5,0.8-2.9,1.5
		c-0.3-0.6-0.7-1.1-1.2-1.5l0.6,3.3c0.7-0.4,1.8-0.7,3.4-0.8C617.5,212,619.3,211.3,615.8,209.6z"/>
	<path d="M610.9,214.5c-0.5-0.1-1.1-0.2-1.7-0.4l0.8,4.4c2.6,0,5.1-0.4,7.5-1.3C615.5,216.3,613.6,215.3,610.9,214.5z"/>
	<path d="M356.7,280.2c-0.1,0.1-0.4,0.2-1,0.2c-3.9,0.4-8.4,0.2-12.6,0.3c-0.1-1.4-2.1-3.1,3.4-4c-2.3,0.2-4.5,0.5-6.8,0.8l1,5.6
		c5.6-0.3,10.7-1.3,16.2-1.8C356.8,281,356.8,280.6,356.7,280.2z"/>
	<path d="M356.7,280.1c0-0.4-0.1-0.9-0.1-1.3c-0.5,0-1,0.1-1.5,0.1C354.4,279.3,356.4,279.8,356.7,280.1z"/>
	<path d="M340.7,283.4l0.2,1.1c1.4-0.2,2.9-0.4,4.8-0.2C344.2,283.6,342.5,283.5,340.7,283.4z"/>
	<path d="M421.9,141.1c-0.6,0.4,1,0.7,2.2,0.8c2.4,0.3,4.4,0.2,5.9-0.1l0.5-2.9c-0.4-0.2-0.7-0.6-1.3-0.7c-0.8,0.5-0.1,1.3-2.1,1.5
		c-1.6-0.2-3.1-0.4-4.7-0.5c0,0,0,0,0,0c-0.6,0-1.5,0-2,0c-0.1,0-0.2,0-0.2,0c-0.1-0.5,0.4-0.7,1.8-0.8c0.3,0,0.5,0,0.8,0
		c1.5-0.1,1.5-0.2,1.2-0.4c0,0,0,0,0,0c0,0,0,0,0,0c-0.6-0.2-1.2-0.5-1.7-0.7c-1.3,0.1-2.6,0.2-3.9,0.3c0,0,0,0,0,0
		c-0.7-0.1-1.9,0.4-2.8,0.5c-0.1,0.7-0.3,1.4-0.4,2.1c1.1,0,2.3-0.1,3.4-0.1C420.2,139.8,424.5,139.2,421.9,141.1z"/>
	<path d="M425.3,168.5c-0.5,0.1-1,0.1-1.4,0.3c0.5,0,0.9,0.1,1.3,0.1L425.3,168.5z"/>
	<path d="M420.9,166.6c0.2-0.1,0.4-0.2,0.6-0.2c1.8-0.7,3.2-0.7,4.2-0.4l0.4-2.5c-0.9-0.7-2-1.2-5-0.2c-1.1-1.1,2.8-1.2,2-2.3
		c-0.4-0.5,1.6-1,3.6-0.6l0.3-1.8c-1.2-0.2-2-0.6-2.6-0.5c-5.1,2.2-7.3,4.8-9.2,8c2.5-0.7,4.4-1.6,5.2-0.1
		C420.5,166.2,420.8,166.4,420.9,166.6z"/>
	<path d="M333.1,172.1c2,0,4,0.1,6,0.1c-0.1-0.3-0.1-0.5-0.2-0.8c-1.9-0.1-3.7-0.1-5.5,0.2C333.2,171.5,333.3,171.8,333.1,172.1z"/>
	<path d="M609.6,211c1.3-0.7,2.1-1.1,2.9-1.5c0-0.1,0-0.2-0.1-0.4c-0.6-0.5-1.2-1.1-1.8-1.6c-0.2-0.2-0.7-0.4-0.5-0.5
		c0.1-0.1,0.2-0.1,0.4-0.1c0.1,0,0.3,0,0.5,0s0.3,0,0.5,0c0.2,0,0.3,0.1,0.5,0.1l0,0c0,0,0,0,0,0c0.6,0.1,1.2,0.2,1.8,0.3
		c0.3-0.1,0.6-0.1,0.9-0.1c0,0,0,0,0,0c0.7-0.9,1.1-1.7-2-2c0,0,0,0,0,0c-2,0.5-3.7,0.7-5,0.4l0.7,3.9
		C608.9,209.9,609.3,210.4,609.6,211z"/>
	<path d="M322.6,180.2l0.1,0.4c3,0.5,6.2,1,7.7,1.7c4.2,1.8,6.6,0.1,8.9-0.4c0.6-0.1,1.1-0.4,1.6-0.6c-0.2-1.2-0.5-2.5-0.7-3.7
		c-2-0.3-5.1,0.2-6.8-0.3c-2.2-0.7-4.9,0.1-6.4,0.9C325.6,178.9,325,179.8,322.6,180.2z M338.3,179.1c-2.3,0.2-3.9,0.4-4.9-0.6
		C335.1,178.7,336.3,178.8,338.3,179.1z M331.3,179.1c0.4,0.3,0.8,0.6,1.2,0.9c-1.6,0.1-1.4-0.4-1.6-0.7c-0.5-0.1-1-0.2-1.5-0.3
		C330.1,178.7,330.7,178.8,331.3,179.1z"/>
	<path d="M409.5,226.8C409.5,226.8,409.5,226.8,409.5,226.8c0,0-0.2,0-0.2,0c0,0,0.1,0,0.1,0C409.4,226.8,409.5,226.8,409.5,226.8z"
		/>
	<path d="M409.7,232.9c1.5,0.5,3,0.9,4.4,1.1l0.2-1C413,233.2,411.5,233.2,409.7,232.9z"/>
	<path d="M409.7,228.6c1.4,0.1,2.7,0.1,3.3,0.4c0.3,0.2,0.4,0.5,0,1c-0.4,0.5,0.1,0.6,1.3,0.3c0.1,0,0.3-0.1,0.4-0.1l0.5-2.7
		c-1.9,0-3.8-0.4-5.7-0.6C409.6,227.4,409.6,228,409.7,228.6C409.7,228.6,409.7,228.6,409.7,228.6z"/>
	<path d="M354.4,260.8c0-0.3-0.1-0.6-0.1-0.8c-1.4,0.3-2.9,0.4-4.5,0.7C351.4,260.9,352.9,260.8,354.4,260.8z"/>
	<path d="M595.7,137.5l0,0.2c0.7-0.1,1.4-0.1,2.1-0.2C597,137.5,596.3,137.5,595.7,137.5z"/>
	<path d="M419.1,136.2c0-0.1-0.1-0.1-0.1-0.2c-0.1-0.1-0.2-0.1-0.3-0.2c-0.4-0.2-0.9-0.4-1.2-0.6c-1.3-0.7-0.8-1,1-1.3
		c0.4-0.1,0.7-0.1,1.1-0.2c0.5-0.1,0.8-0.1,1.2,0c0.2,0,0.4,0.1,0.7,0.1c0,0,0.1,0,0.1,0c0.1,0,0.3,0.1,0.4,0.1c0,0,0,0,0,0h0
		c0.3,0.1,0.6,0.2,1,0.4c2.8-1,2.9-2.3-1.2-2.1c-3.2,0.1-3.4-0.2-4.7-0.9c0,0-0.1,0-0.1-0.1c-0.4,1.8-0.8,3.8-1.2,5.7
		c0.8,0,1.6,0,2.4,0C418.9,136.7,419.2,136.4,419.1,136.2C419.1,136.2,419.1,136.2,419.1,136.2z"/>
	<path d="M620.2,191.1c0.8,0.1,1.5,0.3,2.2,0.4c-0.2-0.8-0.3-1.7-0.5-2.5c-0.6,0.4-1.3,0.9-2.3,1.1
		C618.7,190.4,619.2,191,620.2,191.1z"/>
	<path d="M598.8,123.8c-1.1,0.1-0.8-0.7-2.4-0.8c-1.2,0-2.5-0.1-3.3,0.2l0.4,2c0,0,0,0,0,0c3.9,0.3,4,1.5,4.7,2.6
		c3.4,1.4,6.6,1,9.7-0.1C607.1,125.5,607.3,123.2,598.8,123.8z"/>
	<path d="M400.6,245.6c1.5,0,3.1-0.1,4.6-0.1l0,0c-0.4-0.3-1.4-0.6-2.4-0.8c-1.2-0.3-2.2-0.5-1.7-0.6c4.8-1.2-0.1-1.6-0.7-2.4
		c-1.1-1.5-2.5-1.5-4-1.1c-0.3,1.7-0.5,3.4-0.8,5C397,246.2,398.7,245.9,400.6,245.6z"/>
	<path d="M131.9,198.7c3.6,0.8,7.2-0.1,10.8-0.1l0.4-2.4c-2.6,0.1-5.2,0.2-7.8,0.7c0.7,0.2,2.3,0.4,2.3,0.5
		C137,198.5,133.3,198,131.9,198.7z"/>
	<path d="M619.7,197.9L619.7,197.9L619.7,197.9C619.7,197.9,619.7,198,619.7,197.9c1.6,0.4,2.8,0.4,3.9,0.2
		c-0.1-0.8-0.3-1.6-0.4-2.4c-0.4-0.1-0.7-0.2-0.8-0.4c0.3,0,0.5,0,0.7,0c0-0.1,0-0.2-0.1-0.3c-2,0.1-4,0.2-6,0.5
		C619.2,196.3,622.9,196.7,619.7,197.9z"/>
	<path d="M594.9,133.2l0.3,1.6c2.3,0.4,4.8,1,5.7-0.1C601.6,133.8,597.4,133.4,594.9,133.2z"/>
	<path d="M614.5,167c-2,0.7-3.9,1.5-7.4,1.3c-1.6,0-0.4,0.9,0.2,1.3c0.6,0.4,5.2,0,6.2-0.3c0.5-0.2,1.6-0.3,2-0.2
		c1.2,0.3,2,0.5,2.7,0.5c-0.2-1.1-0.4-2.2-0.6-3.2c-0.3,0-0.6,0-0.9,0h0C615.8,166.5,615.1,166.7,614.5,167z"/>
	<path d="M323.9,144c-2.1,0.9-4.8,0.6-7.5,0.6l0.2,1.2c0.3,0,0.6-0.1,0.9-0.1c1.9-0.4,3.1-0.2,4,0.3c2.1,1.2,5.2,0.9,6.4,0.1
		c1.1-0.7,3.7-1.8,0.8-2.8C327.8,144.2,327.1,145.4,323.9,144z"/>
	<path d="M345,272.7c-0.4,0.1-2.3-0.1-2.6-0.3c-1.5-1-2.7-1.1-3.7-0.9l0.3,1.8c1.7,0.4,3.1,0.9,4,0.7c3.9-0.9,8-0.7,12.7-0.9
		C351.7,272.5,348.6,271.6,345,272.7z"/>
	<path d="M607.9,145.7c-0.9-2.7-7.9-1.1-11.1-2.2c0,0.2,0,0.3,0,0.5l0.4,2.3c1.7,0,3.5,0,5.2,0C604.3,146.1,606.1,145.9,607.9,145.7
		z"/>
	<path d="M596.7,143.5L596.7,143.5C596.7,143.5,596.7,143.5,596.7,143.5c0.1,0,0.1,0,0.1,0.1c0,0,0,0,0,0
		C596.9,143.5,596.8,143.5,596.7,143.5z"/>
	<path d="M143.7,153.5c0,0,0.1-0.1,0.1-0.1c0.1-0.1,0.3-0.2,0.6-0.3c0,0,0,0,0,0l0,0c0.3-0.1,0.7-0.2,1-0.3
		c-0.6-0.3-1.6-0.8-2.1-0.5c-2.8,1.8-5,1.1-7.4-0.1c-0.7-0.3-1.7-0.3-2.7-0.3c-0.1,0.4-0.2,0.8-0.2,1.2c0.8,0.2,1.2,0.4,0.7,0.8
		c-1.4,1.1,0.2,0.8,2.1,1c3.9,0.4,6-0.8,9.1-1C143.7,153.9,143.5,153.7,143.7,153.5z"/>
	<path d="M604.2,159.6c2.5-0.4,2.1,1.4,4.7,0.9c2.7-0.2,6.7-0.2,6.8-1.4c0.1-1.2-4.1-0.6-6.1-1c-0.4-0.1-1.1,0-1.7-0.1
		c-0.9,0.8-3.6,0.5-4.8,1.1C603.8,159.2,604.5,159.2,604.2,159.6z"/>
	<path d="M142.3,200.7c-2.1-0.1-4.3-0.2-6.6,0.3c2.4,0.1,4.3,0.2,6.2,0.2c0,0.1,0,0.2,0,0.2c-2.4,0.1-4.8,0.1-8.2,0.2
		c3,0.3,5.7,0.5,8.4,0.6L142.3,200.7z"/>
	<path d="M121,222.4c-0.4,0-0.7,0-1.1,0c-0.2,1-0.4,2.1-0.5,3.1c0.5,0.2,1,0.4,1.4,0.6C119.9,224.8,123.4,223.6,121,222.4z"/>
	<path d="M603,159.2C603,159.2,603,159.2,603,159.2L603,159.2C603,159.2,603,159.2,603,159.2C603,159.2,603,159.2,603,159.2
		c1.3-0.6,4-0.4,4.9-1.2c-2.5-0.7-5.1-1.3-8.4-1.1c-0.1,0.1-0.2,0.2-0.3,0.3l0.3,1.8c0.1,0,0.3,0,0.4,0.1
		C600.6,159.3,601.6,159.3,603,159.2z"/>
	<path d="M336.1,175.8c-0.8,1.3,2,1,2.5,0.6c0.2-0.2,0.7-0.3,1.2-0.3c-0.1-0.4-0.2-0.9-0.2-1.3c-3-0.1-6.1-0.3-9.1,0.3
		C332.3,175.9,336.2,175.7,336.1,175.8z"/>
	<path d="M333.5,220.8c0.4,0.4,1.9,1.5,3,1c2.9-1.2,7.1-0.2,9.8-1.1c-3.5-0.2-7-0.3-10.5-0.5C334.8,220.2,332.9,220.2,333.5,220.8z"
		/>
	<path d="M346.4,220.7C346.4,220.7,346.4,220.7,346.4,220.7C346.4,220.7,346.4,220.7,346.4,220.7
		C346.5,220.7,346.4,220.7,346.4,220.7z"/>
	<path d="M617.4,165.9c-0.1-0.7-0.3-1.5-0.4-2.2c-1.8-0.1-3.5-0.3-4.4,0.8c1.8,0.3,2,1.2,4.1,1.4C617,165.9,617.2,165.9,617.4,165.9
		z"/>
	<path d="M402.8,213.5c2.1,0.7,4.9,1.1,5.2,2.3c0.3-1.1,1.6-2.4-0.8-3.2C406.2,212.2,404.3,213,402.8,213.5z"/>
	<path d="M419,201.1c0.2,0.1,0.4,0.2,0.7,0.3l0-0.3C419.5,201,419.2,201.1,419,201.1z"/>
	<path d="M630.9,239.9c-0.2,0-0.4,0-0.5,0c-2.1-0.7-2.8-0.4-3.3,0.1c-0.9,0.9,2,0.7,2.6,1.1c0.4-0.1,0.8-0.2,1.3-0.2
		C631,240.6,630.9,240.2,630.9,239.9z"/>
	<path d="M125.3,223.1c-0.1-0.2-0.3-0.4-0.4-0.7c-0.2-0.2-0.3-0.4-0.5-0.7c-0.1-0.1-0.2-0.2-0.2-0.3c-1.1,0.3-2.1,0.6-3.2,0.9
		c2.5,1.2-1,2.4-0.2,3.6c0,0,0,0,0,0c0,0,0,0,0,0C125.5,225.4,125.9,224.3,125.3,223.1z"/>
	<path d="M139.1,172.8c-2.6-0.8-4.3-3-8.6-0.7C133.4,172.3,135.7,173.4,139.1,172.8z"/>
	<path d="M130.5,172.1C130.5,172.1,130.4,172.1,130.5,172.1L130.5,172.1C130.5,172.1,130.5,172.1,130.5,172.1z"/>
	<path d="M340.1,202.7c-0.3,1.3-0.6,2.3-0.9,3.4c0,0.5-0.6,1.1,1.3,1.2c1.7,0,1.1-0.6,1.2-1c0.1-0.3-0.1-0.7-0.2-1.1
		C340.9,204.5,342,203.6,340.1,202.7z"/>
	<path d="M335.2,238.8c3-0.1,6.1,0.4,8.9-0.3c0-0.3,0-0.6,0-0.9c-1.1,0-2.2,0-3.3,0C338.8,237.9,334.1,236.5,335.2,238.8z"/>
	<path d="M143,191.9c0.3-0.1,0.6-0.2,0.9-0.3l0.1-0.8c0,0,0,0-0.1,0c-0.7-0.3-1.9-0.4-2.4,0c-1.3,1.1-4.3,0.3-7.5,1.2
		C137.9,192.1,140.5,192.4,143,191.9z"/>
	<path d="M414.8,141.2c-0.1,0.4-0.2,0.8-0.2,1.2c1.1-0.3,2.2-0.6,3.2-0.8C416.8,141.3,415.8,141.2,414.8,141.2z"/>
	<path d="M322.2,177.8c0.5,0,1.1-0.1,1.7-0.1c-0.6-0.1-1.2-0.2-1.7-0.2L322.2,177.8z"/>
	<path d="M350.2,236.8c0.1-0.1-0.4-0.5-0.7-0.5c-3-0.3-3.8,0.8-5.4,1.3c0,0.3,0,0.6,0,0.9C347.3,238.5,349,237.7,350.2,236.8z"/>
	<path d="M432,117.6c-0.7,0.7-1.4,1.3-2.1,2l0,0l0,0c0,0,0,0,0,0c1.2-0.3,1.9-1.1,3.9-0.7l0.4-2.5c-0.1-0.1-0.1-0.1-0.2-0.2
		C434.2,116.8,433.5,117.3,432,117.6z"/>
	<path d="M407.5,254.5c-0.5,0.2-1,0.4-1.5,0.6c0.7,0.8,2.4,1.1,4.2,1.3l0.2-1.3C409.5,254.8,408.6,254.6,407.5,254.5z"/>
	<path d="M430,116.9L430,116.9C429.9,116.9,430,116.9,430,116.9c0.3,0.1,0.7,0.3,1,0.4c0.3,0.1,0.7,0.2,1,0.3
		c1.5-0.3,2.2-0.8,2.1-1.4c-1.6-0.1-3.2,0-4.6-0.2c-1.5-0.2-3-0.4-3.5,0.2c-0.3,0.4,1.6,0.6,2.8,0.8
		C429.2,116.6,429.6,116.5,430,116.9z"/>
	<path d="M428.8,116.9C428.7,116.9,428.7,116.9,428.8,116.9L428.8,116.9C428.8,116.9,428.8,116.9,428.8,116.9z"/>
	<path d="M139.4,164.4c0.6,0.8,1.5,1.8,3.9,2.3c0.6,0.1,1.9-0.2,2.6-0.4c1.1-0.4-0.4-0.6-0.8-0.9c-0.7-0.5-3.1-0.4-2.8-1.2
		c0,0,0,0-0.1,0c-0.1,0-0.1,0-0.1,0C141.1,164,139,163.9,139.4,164.4z"/>
	<path d="M625.2,247c2.8,0.1,4.4-0.1,5-0.9c0.1-0.2-0.8-0.7-1-0.7C627,245.6,626.6,246.4,625.2,247z"/>
	<path d="M604.2,159.6C604.2,159.6,604.2,159.6,604.2,159.6c-0.1,0-0.1,0-0.1,0c0,0,0,0,0,0c0,0,0,0,0,0c-0.2,1.2,2.5,1.9,4.1,2.5
		c0.5,0.2,0.9,0.3,1.2,0.3c0.2,0,0.3,0,0.4-0.1c0.1,0,0.1-0.1,0.1-0.1c0.1-0.2,0.1-0.6,0.1-0.8c0,0,0,0,0,0
		c-0.4-0.3-0.8-0.6-1.2-0.9C606.4,161,606.7,159.3,604.2,159.6z"/>
	<path d="M127.8,256.4c-2.5-0.3-4.5-0.3-6.4,0.1C123.7,258,125.6,257.5,127.8,256.4z"/>
	<path d="M138.9,202.8c-2.6,0-5.2,0-7.8,0c0,0.1,0,0.2,0,0.3c2.6,0.1,5.2,0.1,7.8,0.2C138.8,203.1,138.9,203,138.9,202.8z"/>
	<path d="M624,200.6c-1.6-0.2-3.1-0.7-4.8-0.2c1.3,0.6,3,1,5,1.1C624.1,201.2,624.1,200.9,624,200.6z"/>
	<path d="M424.4,149.4c-0.8,0.6-1.1,1.2,0.5,1.8c2-0.5,1.8-1.1,0.9-1.7C425.5,149.3,424.7,149.2,424.4,149.4z"/>
	<path d="M418.8,168.7c0.2,0.1,1,0.1,1.1,0c1-0.6,1.1-1.1-0.5-1.7C417.9,167.6,417.5,168.1,418.8,168.7z"/>
	<path d="M417.7,150.2c0-0.4-0.7-0.6-1.8-0.7c-1.3,0-1.6,0.4-1.4,0.7c0.2,0.4-0.3,1,1.5,0.9C417.5,151.1,417.7,150.6,417.7,150.2z"
		/>
	<path d="M422.4,148.6c0.2-0.4-0.5-0.7-1.4-0.8c-0.3-0.1-0.9,0.1-1.5,0.2c0.8,0.5,1.2,0.7,1.7,0.9
		C421.3,148.9,422.3,148.7,422.4,148.6z"/>
	<path d="M333.3,241c0.3,0,0.5-0.1,0.8-0.2c-0.3,0-0.6-0.1-0.9-0.1L333.3,241z"/>
	<path d="M130.5,172.1C130.5,172.1,130.4,172.1,130.5,172.1C130.4,172.1,130.4,172.1,130.5,172.1
		C130.4,172.1,130.4,172.1,130.5,172.1z"/>
	<path d="M129.1,172.3c0.4,0.1,0.8,0,1.3-0.2c-0.4,0-0.8-0.1-1.2-0.1C129.2,172.1,129.1,172.2,129.1,172.3z"/>
	<path d="M346.9,217.8c-0.3-0.1-0.6-0.1-0.9-0.1c-0.1,0-0.2,0.1-0.3,0.2c0.2,0,0.3,0.1,0.5,0.1C346.4,217.9,346.6,217.9,346.9,217.8
		z"/>
	<path d="M600.3,137.9c-0.3,0-0.7,0.1-1,0.1c0.1,0.1,0.3,0.2,0.4,0.1c0.4,0,0.7-0.1,1-0.1C600.6,138,600.4,137.9,600.3,137.9z"/>
	<path d="M347.5,226.7c0.3,0.1,0.5,0.2,0.8,0.2c0.3,0,0.5-0.1,0.8-0.2c0,0,0,0,0,0c-0.3-0.1-0.5-0.2-0.8-0.2
		C348,226.5,347.7,226.6,347.5,226.7z"/>
	<path d="M348.1,277.4c0.1,0,0.3-0.1,0.3-0.1c0-0.1-0.2-0.1-0.2-0.2C348.2,277.1,348.2,277.2,348.1,277.4z"/>
	<path d="M611,219c-0.1,0,0,0.1,0.1,0.2c0.2,0,0.4,0,0.5-0.1c0.1,0,0-0.1-0.1-0.2C611.3,219,611.1,219,611,219z"/>
	<polygon points="622.9,199.3 622.5,199.3 622.7,199.5 	"/>
	<path d="M422.5,150.5c-0.1-0.1-0.2-0.1-0.3-0.2c-0.3,0.1-0.6,0.1-0.9,0.2c0.1,0.1,0.3,0.2,0.4,0.1
		C421.9,150.6,422.2,150.5,422.5,150.5z"/>
	<path d="M351.4,256.7c0.1,0,0.2-0.1,0.4-0.1c-0.3-0.1-0.6-0.1-0.9-0.1c-0.1,0-0.2,0.1-0.4,0.1C350.8,256.6,351.1,256.6,351.4,256.7
		z"/>
	<path d="M619.7,197.9c-0.1,0.1-0.2,0.1-0.2,0.2C619.5,198.1,619.6,198,619.7,197.9C619.7,198,619.7,197.9,619.7,197.9L619.7,197.9z
		"/>
	<path d="M136,150.1c0.9,1.1,3.8,0.6,5.5,1c0.5,0.1,1.1,0.1,1.6,0.2c2.3-0.7,1.4-1.3-0.5-1.9C139.8,148.8,138.3,150,136,150.1z"/>
	<path d="M144.4,153.1c0.4,0.1,1,0.3,1.1,0.3c0.8-0.2,0.2-0.4-0.1-0.6C145,152.9,144.7,153,144.4,153.1L144.4,153.1z"/>
	<path d="M624.2,285.4c1.9-0.1,2-0.8,1.9-1.3c-0.2-0.8-1-1.5-1.6-2.3c-1-0.2-1.9-0.4-3.6-0.8c2.4-0.1,4.1-0.1,5.9-0.1h0
		c0.4-0.4,0.1-0.8-0.3-1.2c-0.5-0.5-1.2-1-0.7-1.5c-4.4-0.4-4.3-0.9-0.8-1.9c2.3-0.6,4.5-0.2,6.8-0.4h0c0.6-0.3,1-0.6,1.2-0.9
		c0.8-0.9,0-1.7-3.2-2.1c-1.8-0.3-1.7-0.7-1.6-1.2c0.2-0.6,0.9-0.6,1.7-0.5c0.3,0,0.7,0,1,0c0.2,0,0.3,0,0.4,0c0,0,0,0,0,0
		c0.2-0.2,0.4-0.4,0.6-0.6l0,0c-0.5-0.1-1-0.2-1.4-0.3c-0.3-0.1-0.5-0.1-0.8-0.1c-1.5-0.3-3-0.3-4.6,0.2c-0.3,0.1-0.7,0.2-1,0.4
		c-1.3,0.6-3.5-0.6-3.4-0.6c1-0.9-0.7-1.4-2-2l2.7,15.1c0.3,0,0.5,0.1,0.6,0.2c0,0,0,0,0.1,0.1s0,0,0,0.1c0,0,0,0,0,0.1
		c-0.1,0.1-0.2,0.2-0.5,0.3c0,0,0,0,0,0l0.3,1.6C622.5,285.4,623.4,285.4,624.2,285.4z"/>
	<path d="M622,256.1c-0.4-0.6-0.9-1.2-2.1-1.4c-0.7-0.1-1.6-0.1-2.9,0.1c-0.2,0-0.5,0.1-0.7,0.1l0.3,1.8c0.8,0.1,1.7,0.2,2.2,0.5
		C620.8,257.2,621.3,256.6,622,256.1z"/>
	<path d="M622.6,290.6c0,0,0.1,0,0.1,0c0.1,0,0.3,0,0.4-0.1c-0.2-0.1-0.4-0.1-0.6-0.2L622.6,290.6z"/>
	<path d="M623.8,288.7c1-0.7,3.2-1.2,0.9-2.4c0.3,1-1.1,1.2-2.6,1.4l0.3,1.8c0.3-0.1,0.6-0.2,0.9-0.3v0
		C623.4,289,623.5,288.8,623.8,288.7z"/>
	<path d="M635.9,275.3c0-0.4-0.1-0.8-0.1-1.2C635.6,274.5,635.6,274.9,635.9,275.3z"/>
	<path d="M630.2,272.2c0.1,0,0.2,0,0.4-0.1c0,0,0,0,0,0l0,0c-0.4-0.1-0.7-0.2-1.1-0.3c0,0,0,0.1,0,0.1
		C629.5,272.1,629.7,272.2,630.2,272.2z"/>
	<path d="M604.2,159.7C604.2,159.6,604.2,159.6,604.2,159.7c0.3-0.4-0.4-0.4-1.1-0.5c-0.1,0-0.1,0-0.2,0c0,0,0.1,0,0.1,0
		C603.4,159.4,603.7,159.5,604.2,159.7C604.1,159.6,604.2,159.7,604.2,159.7z"/>
	<path d="M421.9,133.9c-0.8,0.2-2.5,0.2-1.9,0.8c0.2,0.2,1.2,0.4,1.8,0.4c1.5,0,0.8-0.5,1-0.8C422.5,134.2,422.2,134,421.9,133.9
		L421.9,133.9z"/>
	<path d="M425.5,136.9c-1.2-0.7-2.4-0.4-3.3,0.1c0.6,0.2,1.2,0.5,1.7,0.7c0,0,0,0,0,0C425.4,137.8,426.6,137.6,425.5,136.9z"/>
	<path d="M423.7,177.8l0-0.3c-0.5,0.1-0.9,0.1-1.4,0.1C422.8,177.7,423.3,177.7,423.7,177.8z"/>
	<polygon points="429.9,119.6 429.7,119.6 430,119.6 429.9,119.6 	"/>
	<path d="M611.9,207c-0.2,0-0.3-0.1-0.5-0.1c-0.2,0-0.3,0-0.5,0c-0.2,0-0.3,0-0.5,0c-0.1,0-0.3,0.1-0.4,0.1
		c-0.1,0.1,0.3,0.3,0.5,0.5C611,207.3,611.5,207.2,611.9,207L611.9,207z"/>
	<path d="M137.6,130.1c0.8-0.2,1.5-0.5,2.4-0.7c-0.7-0.2-1.5-0.2-2.2-0.3C137.7,129.5,137.6,129.8,137.6,130.1z"/>
	<polygon points="634.7,271.6 634.4,271.6 634.5,271.7 	"/>
	<path d="M346,222.3c-0.8,0.4-1,0.8,0.2,1.1l0,0c0,0,0,0,0,0c0,0,0.1,0,0.1-0.1l0.1,0c0.1,0,0.2-0.1,0.2-0.1c0-0.2,0.1-0.5,0.1-0.7
		C346.5,222.5,346.2,222.4,346,222.3L346,222.3z"/>
	<path d="M346.3,223.4c-0.1,0-0.1,0.1-0.1,0.1c0,0,0,0,0,0c0.2,0,0.5,0,0.7,0c-0.1,0-0.2-0.1-0.3-0.1
		C346.6,223.3,346.5,223.3,346.3,223.4C346.4,223.4,346.4,223.4,346.3,223.4z"/>
</g>
</svg>
