<?xml version="1.0" encoding="utf-8"?>
<!-- Generator: Adobe Illustrator 25.3.0, SVG Export Plug-In . SVG Version: 6.00 Build 0)  -->
<svg version="1.1" id="Layer_1" xmlns="http://www.w3.org/2000/svg" xmlns:xlink="http://www.w3.org/1999/xlink" x="0px" y="0px"
	 viewBox="0 0 750.2 400.1" style="enable-background:new 0 0 750.2 400.1;" xml:space="preserve">
<g>
	<path d="M130.8,256.3c0,0.4,0.4,0.8,0.9,0.8h34.4c0.5,0,0.9-0.4,0.9-0.8v-0.4h36.5c0.4,0,0.7-0.3,0.7-0.6V255h36v0.3
		c0,0.3,0.3,0.6,0.7,0.6h34.6v0.4c0,0.4,0.4,0.8,0.9,0.8h23.1l0-5.8h-23.1c-0.5,0-0.9,0.4-0.9,0.8v0.4h-34.6c-0.4,0-0.7,0.3-0.7,0.6
		v0.5h-36v-0.5c0-0.3-0.3-0.6-0.7-0.6h-36.5v-0.4c0-0.4-0.4-0.8-0.9-0.8h-34.4c-0.5,0-0.9,0.4-0.9,0.8v0.4h-25.6l0,3.4h25.6V256.3z"
		/>
	<path d="M276.6,248.6h23.1l0-5.8h-23.1c-0.5,0-0.9,0.4-0.9,0.8v0.4h-34.6c-0.4,0-0.7,0.3-0.7,0.6v0.5h-36v-0.5
		c0-0.3-0.3-0.6-0.7-0.6h-36.5v-0.4c0-0.4-0.4-0.8-0.9-0.8h-34.4c-0.5,0-0.9,0.4-0.9,0.8v0.4h-25.6l0,3.4h25.6v0.4
		c0,0.4,0.4,0.8,0.9,0.8h34.4c0.5,0,0.9-0.4,0.9-0.8v-0.4h36.5c0.4,0,0.7-0.3,0.7-0.6v-0.3h36v0.3c0,0.3,0.3,0.6,0.7,0.6h34.6v0.4
		C275.7,248.2,276.1,248.6,276.6,248.6z"/>
	<path d="M276.6,240.1h23.1l0-5.8h-23.1c-0.5,0-0.9,0.4-0.9,0.8v0.4h-34.6c-0.4,0-0.7,0.3-0.7,0.6v0.5h-36v-0.5
		c0-0.3-0.3-0.6-0.7-0.6h-36.5v-0.4c0-0.4-0.4-0.8-0.9-0.8h-34.4c-0.5,0-0.9,0.4-0.9,0.8v0.4h-25.6l0,3.4h25.6v0.4
		c0,0.4,0.4,0.8,0.9,0.8h34.4c0.5,0,0.9-0.4,0.9-0.8v-0.4h36.5c0.4,0,0.7-0.3,0.7-0.6V238h36v0.3c0,0.3,0.3,0.6,0.7,0.6h34.6v0.4
		C275.7,239.7,276.1,240.1,276.6,240.1z"/>
	<path d="M166.2,225.8h-34.4c-0.5,0-0.9,0.4-0.9,0.8v0.4h-25.6l0,3.4h25.6v0.4c0,0.4,0.4,0.8,0.9,0.8h34.4c0.5,0,0.9-0.4,0.9-0.8
		v-0.4h36.5c0.4,0,0.7-0.3,0.7-0.6v-0.3h36v0.3c0,0.3,0.3,0.6,0.7,0.6h34.6v0.4c0,0.4,0.4,0.8,0.9,0.8h23.1l0-5.8h-23.1
		c-0.5,0-0.9,0.4-0.9,0.8v0.4h-34.6c-0.4,0-0.7,0.3-0.7,0.6v0.5h-36v-0.5c0-0.3-0.3-0.6-0.7-0.6h-36.5v-0.4
		C167.1,226.2,166.7,225.8,166.2,225.8z"/>
	<path d="M166.2,217.3h-34.4c-0.5,0-0.9,0.4-0.9,0.8v0.4h-25.6l0,3.4h25.6v0.4c0,0.4,0.4,0.8,0.9,0.8h34.4c0.5,0,0.9-0.4,0.9-0.8
		v-0.4h36.5c0.4,0,0.7-0.3,0.7-0.6V221h36v0.3c0,0.3,0.3,0.6,0.7,0.6h34.6v0.4c0,0.4,0.4,0.8,0.9,0.8h23.1l0-5.8h-23.1
		c-0.5,0-0.9,0.4-0.9,0.8v0.4h-34.6c-0.4,0-0.7,0.3-0.7,0.6v0.5h-36v-0.5c0-0.3-0.3-0.6-0.7-0.6h-36.5v-0.4
		C167.1,217.7,166.7,217.3,166.2,217.3z"/>
	<path d="M130.8,213.4v0.4c0,0.4,0.4,0.8,0.9,0.8h34.4c0.5,0,0.9-0.4,0.9-0.8v-0.4h36.5c0.4,0,0.7-0.3,0.7-0.6v-0.3h36v0.3
		c0,0.3,0.3,0.6,0.7,0.6h34.6v0.4c0,0.4,0.4,0.8,0.9,0.8h23.1l0-5.8h-23.1c-0.5,0-0.9,0.4-0.9,0.8v0.4h-34.6c-0.4,0-0.7,0.3-0.7,0.6
		v0.5h-36v-0.5c0-0.3-0.3-0.6-0.7-0.6h-36.5v-0.4c0-0.4-0.4-0.8-0.9-0.8h-34.4c-0.5,0-0.9,0.4-0.9,0.8v0.4h-25.6l0,3.4H130.8z"/>
	<path d="M277.2,295c-0.4,0-0.7,0.3-0.7,0.6v0.5h-36v-0.5c0-0.3-0.3-0.6-0.7-0.6h-36.5v-0.4c0-0.4-0.4-0.8-0.9-0.8h-34.4
		c-0.5,0-0.9,0.4-0.9,0.8v0.4h-34.4c-0.4,0-0.7,0.3-0.7,0.6v0.5h-26.6l0,1.4h26.6v0.3c0,0.3,0.3,0.6,0.7,0.6H167v0.4
		c0,0.4,0.4,0.8,0.9,0.8h34.4c0.5,0,0.9-0.4,0.9-0.8v-0.4h36.5c0.4,0,0.7-0.3,0.7-0.6v-0.3h36v0.3c0,0.3,0.3,0.6,0.7,0.6h22.4l0-3.4
		H277.2z"/>
	<path d="M277.2,289.9h22.4l0-3.4h-22.4c-0.4,0-0.7,0.3-0.7,0.6v0.5h-36v-0.5c0-0.3-0.3-0.6-0.7-0.6h-36.5v-0.4
		c0-0.4-0.4-0.8-0.9-0.8h-34.4c-0.5,0-0.9,0.4-0.9,0.8v0.4h-34.4c-0.4,0-0.7,0.3-0.7,0.6v0.5h-26.6l0,1.4h26.6v0.3
		c0,0.3,0.3,0.6,0.7,0.6H167v0.4c0,0.4,0.4,0.8,0.9,0.8h34.4c0.5,0,0.9-0.4,0.9-0.8v-0.4h36.5c0.4,0,0.7-0.3,0.7-0.6V289h36v0.3
		C276.5,289.6,276.8,289.9,277.2,289.9z"/>
	<path d="M277.2,281.4h22.4l0-3.4h-22.4c-0.4,0-0.7,0.3-0.7,0.6v0.5h-36v-0.5c0-0.3-0.3-0.6-0.7-0.6h-36.5v-0.4
		c0-0.4-0.4-0.8-0.9-0.8h-34.4c-0.5,0-0.9,0.4-0.9,0.8v0.4h-34.4c-0.4,0-0.7,0.3-0.7,0.6v0.5h-26.6l0,1.4h26.6v0.3
		c0,0.3,0.3,0.6,0.7,0.6H167v0.4c0,0.4,0.4,0.8,0.9,0.8h34.4c0.5,0,0.9-0.4,0.9-0.8v-0.4h36.5c0.4,0,0.7-0.3,0.7-0.6v-0.3h36v0.3
		C276.5,281.1,276.8,281.4,277.2,281.4z"/>
	<path d="M202.3,268.3h-34.4c-0.5,0-0.9,0.4-0.9,0.8v0.4h-34.4c-0.4,0-0.7,0.3-0.7,0.6v0.5h-26.6l0,1.4h26.6v0.3
		c0,0.3,0.3,0.6,0.7,0.6H167v0.4c0,0.4,0.4,0.8,0.9,0.8h34.4c0.5,0,0.9-0.4,0.9-0.8v-0.4h36.5c0.4,0,0.7-0.3,0.7-0.6v-0.3h36v0.3
		c0,0.3,0.3,0.6,0.7,0.6h22.4l0-3.4h-22.4c-0.4,0-0.7,0.3-0.7,0.6v0.5h-36v-0.5c0-0.3-0.3-0.6-0.7-0.6h-36.5v-0.4
		C203.2,268.7,202.8,268.3,202.3,268.3z"/>
	<path d="M276.5,261.7v0.5h-36v-0.5c0-0.3-0.3-0.6-0.7-0.6h-36.5v-0.4c0-0.4-0.4-0.8-0.9-0.8h-34.4c-0.5,0-0.9,0.4-0.9,0.8v0.4
		h-34.4c-0.4,0-0.7,0.3-0.7,0.6v0.5h-26.6l0,1.4h26.6v0.3c0,0.3,0.3,0.6,0.7,0.6H167v0.4c0,0.4,0.4,0.8,0.9,0.8h34.4
		c0.5,0,0.9-0.4,0.9-0.8v-0.4h36.5c0.4,0,0.7-0.3,0.7-0.6v-0.3h36v0.3c0,0.3,0.3,0.6,0.7,0.6h22.4l0-3.4h-22.4
		C276.8,261.1,276.5,261.3,276.5,261.7z"/>
	<path d="M132.8,339.8v-0.3h35.8v0.3c0,0.3,0.3,0.6,0.7,0.6h34.4v0.4c0,0.4,0.4,0.8,0.9,0.8h34.4c0.5,0,0.9-0.4,0.9-0.8v-0.4h36.5
		c0.4,0,0.7-0.3,0.7-0.6v-0.3h22.3l0-1.4h-22.3v-0.5c0-0.3-0.3-0.6-0.7-0.6H240v-0.4c0-0.4-0.4-0.8-0.9-0.8h-34.4
		c-0.5,0-0.9,0.4-0.9,0.8v0.4h-34.4c-0.4,0-0.7,0.3-0.7,0.6v0.5h-35.8v-0.5c0-0.3-0.3-0.6-0.7-0.6h-26.8l0,3.4H132
		C132.4,340.5,132.8,340.2,132.8,339.8z"/>
	<path d="M204.6,333.2h34.4c0.5,0,0.9-0.4,0.9-0.8V332h36.5c0.4,0,0.7-0.3,0.7-0.6v-0.3h22.3l0-1.4h-22.3v-0.5
		c0-0.3-0.3-0.6-0.7-0.6H240v-0.4c0-0.4-0.4-0.8-0.9-0.8h-34.4c-0.5,0-0.9,0.4-0.9,0.8v0.4h-34.4c-0.4,0-0.7,0.3-0.7,0.6v0.5h-35.8
		v-0.5c0-0.3-0.3-0.6-0.7-0.6h-26.8l0,3.4H132c0.4,0,0.7-0.3,0.7-0.6v-0.3h35.8v0.3c0,0.3,0.3,0.6,0.7,0.6h34.4v0.4
		C203.7,332.8,204.1,333.2,204.6,333.2z"/>
	<path d="M204.6,324.7h34.4c0.5,0,0.9-0.4,0.9-0.8v-0.4h36.5c0.4,0,0.7-0.3,0.7-0.6v-0.3h22.3l0-1.4h-22.3v-0.5
		c0-0.3-0.3-0.6-0.7-0.6H240v-0.4c0-0.4-0.4-0.8-0.9-0.8h-34.4c-0.5,0-0.9,0.4-0.9,0.8v0.4h-34.4c-0.4,0-0.7,0.3-0.7,0.6v0.5h-35.8
		v-0.5c0-0.3-0.3-0.6-0.7-0.6h-26.8l0,3.4H132c0.4,0,0.7-0.3,0.7-0.6v-0.3h35.8v0.3c0,0.3,0.3,0.6,0.7,0.6h34.4v0.4
		C203.7,324.3,204.1,324.7,204.6,324.7z"/>
	<path d="M132,311.6h-26.8l0,3.4H132c0.4,0,0.7-0.3,0.7-0.6v-0.3h35.8v0.3c0,0.3,0.3,0.6,0.7,0.6h34.4v0.4c0,0.4,0.4,0.8,0.9,0.8
		h34.4c0.5,0,0.9-0.4,0.9-0.8V315h36.5c0.4,0,0.7-0.3,0.7-0.6v-0.3h22.4l0-1.4h-22.4v-0.5c0-0.3-0.3-0.6-0.7-0.6H240v-0.4
		c0-0.4-0.4-0.8-0.9-0.8h-34.4c-0.5,0-0.9,0.4-0.9,0.8v0.4h-34.4c-0.4,0-0.7,0.3-0.7,0.6v0.5h-35.8v-0.5
		C132.8,311.9,132.4,311.6,132,311.6z"/>
	<path d="M132,303.1h-26.8l0,3.4H132c0.4,0,0.7-0.3,0.7-0.6v-0.3h35.8v0.3c0,0.3,0.3,0.6,0.7,0.6h34.4v0.4c0,0.4,0.4,0.8,0.9,0.8
		h34.4c0.5,0,0.9-0.4,0.9-0.8v-0.4h36.5c0.4,0,0.7-0.3,0.7-0.6v-0.3h22.4l0-1.4h-22.4v-0.5c0-0.3-0.3-0.6-0.7-0.6H240v-0.4
		c0-0.4-0.4-0.8-0.9-0.8h-34.4c-0.5,0-0.9,0.4-0.9,0.8v0.4h-34.4c-0.4,0-0.7,0.3-0.7,0.6v0.5h-35.8v-0.5
		C132.8,303.4,132.4,303.1,132,303.1z"/>
	<path d="M203.5,362.8v0.5h-30.6c9.5,0.8,18.9,1.3,27.7,1.2c11.4-0.2,23.8-1.1,35.9-2.3h-32.2C203.8,362.2,203.5,362.4,203.5,362.8z
		"/>
	<path d="M170.6,362.2h-8.9c3.2,0.4,6.4,0.7,9.6,1v-0.4C171.4,362.4,171,362.2,170.6,362.2z"/>
	<path d="M238.6,361.8v0.2c2.9-0.3,5.7-0.6,8.6-1h-7.6C239,361,238.6,361.3,238.6,361.8z"/>
	<path d="M133.2,352.5h-27.9l0,0.5c2.2,0.5,13.3,2.8,28.2,5.2c0.4-0.1,0.6-0.4,0.6-0.7v-0.4h36.5c0.4,0,0.7-0.3,0.7-0.6v-0.3h32.1
		v0.3c0,0.3,0.3,0.6,0.7,0.6h34.4v0.4c0,0.4,0.4,0.8,0.9,0.8h27.8c2.6-0.4,5.2-0.8,7.6-1.1v-0.1h0.4c8.7-1.4,15.8-2.6,20.1-3.4
		h-20.5v-0.4c0-0.4-0.4-0.8-0.9-0.8h-34.4c-0.5,0-0.9,0.4-0.9,0.8v0.4h-34.4c-0.4,0-0.7,0.3-0.7,0.6v0.5h-32.1v-0.5
		c0-0.3-0.3-0.6-0.7-0.6h-36.5v-0.4C134.1,352.8,133.7,352.5,133.2,352.5z"/>
	<path d="M274.9,344.8c0-0.4-0.4-0.8-0.9-0.8h-34.4c-0.5,0-0.9,0.4-0.9,0.8v0.4h-34.9c-0.4,0-0.7,0.3-0.7,0.6v0.5h-31.6v-0.5
		c0-0.3-0.3-0.6-0.7-0.6h-36.5v-0.4c0-0.4-0.4-0.8-0.9-0.8h-27.9l0,5.8h27.9c0.5,0,0.9-0.4,0.9-0.8v-0.4h36.5c0.4,0,0.7-0.3,0.7-0.6
		v-0.3H203v0.3c0,0.3,0.3,0.6,0.7,0.6h34.9v0.4c0,0.4,0.4,0.8,0.9,0.8H274c0.5,0,0.9-0.4,0.9-0.8v-0.4h24.7l0-3.4h-24.7V344.8z"/>
	<path d="M158.8,73.9h-17.9c-2.1,1.7-4,3.7-5.8,5.8h26.5C160.5,77.8,159.6,75.8,158.8,73.9z"/>
	<path d="M243.9,78.5H268c-1.1-1.2-2.2-2.3-3.3-3.4h-19.2C245,76.3,244.5,77.4,243.9,78.5z"/>
	<path d="M247.5,70h10.6c-2.1-1.3-4.2-2.4-6.5-3.4h-3.1C248.3,67.8,247.9,68.9,247.5,70z"/>
	<path d="M155.9,65.6l-1.9,0.5c-3.5,1.4-6.6,3-9.6,5h13.2C157,69.3,156.4,67.4,155.9,65.6z"/>
	<path d="M277.2,121h9.3c-0.2-1.1-0.5-2.2-0.8-3.4h-8.6c-0.4,0-0.7,0.3-0.7,0.6v0.5h-36v-0.5c0-0.3-0.3-0.6-0.7-0.6h-36.5v-0.4
		c0-0.4-0.4-0.8-0.9-0.8h-34.4c-0.5,0-0.9,0.4-0.9,0.8v0.4h-34.4c-0.4,0-0.7,0.3-0.7,0.6v0.5h-13.6c-0.1,0.5-0.2,0.9-0.3,1.4h13.9
		v0.3c0,0.3,0.3,0.6,0.7,0.6H167v0.4c0,0.4,0.4,0.8,0.9,0.8h34.4c0.5,0,0.9-0.4,0.9-0.8V121h36.5c0.4,0,0.7-0.3,0.7-0.6v-0.3h36v0.3
		C276.5,120.8,276.8,121,277.2,121z"/>
	<path d="M277.2,112.6h7.3c-0.3-1.1-0.6-2.2-0.9-3.4h-6.4c-0.4,0-0.7,0.3-0.7,0.6v0.5h-36v-0.5c0-0.3-0.3-0.6-0.7-0.6h-36.5v-0.4
		c0-0.4-0.4-0.8-0.9-0.8h-34.4c-0.5,0-0.9,0.4-0.9,0.8v0.4h-34.4c-0.4,0-0.7,0.3-0.7,0.6v0.5h-11.4c-0.1,0.5-0.3,0.9-0.4,1.4h11.8
		v0.3c0,0.3,0.3,0.6,0.7,0.6H167v0.4c0,0.4,0.4,0.8,0.9,0.8h34.4c0.5,0,0.9-0.4,0.9-0.8v-0.4h36.5c0.4,0,0.7-0.3,0.7-0.6v-0.3h36
		v0.3C276.5,112.3,276.8,112.6,277.2,112.6z"/>
	<path d="M131.8,103.2v0.3c0,0.3,0.3,0.6,0.7,0.6H167v0.4c0,0.4,0.4,0.8,0.9,0.8h34.4c0.5,0,0.9-0.4,0.9-0.8v-0.4h36.5
		c0.4,0,0.7-0.3,0.7-0.6v-0.3h36v0.3c0,0.3,0.3,0.6,0.7,0.6h4.8c-0.4-1.1-0.8-2.3-1.2-3.4h-3.6c-0.4,0-0.7,0.3-0.7,0.6v0.5h-36v-0.5
		c0-0.3-0.3-0.6-0.7-0.6h-21.1c-4.7,1.5-9.8,2.4-15.2,2.4l-1.9,0c-6.8,0-13.1-1.2-18.7-3.6h-15c-0.5,0-0.9,0.4-0.9,0.8v0.4h-34.4
		c-0.4,0-0.7,0.3-0.7,0.6v0.5h-8.7c-0.2,0.5-0.3,0.9-0.5,1.4H131.8z"/>
	<path d="M131.8,94.7V95c0,0.3,0.3,0.6,0.7,0.6H167V96c0,0.4,0.4,0.8,0.9,0.8h9.7c-2.7-1.6-5.2-3.6-7.5-5.8h-2.3
		c-0.5,0-0.9,0.4-0.9,0.8v0.4h-34.4c-0.4,0-0.7,0.3-0.7,0.6v0.5h-5.2c-0.2,0.5-0.4,0.9-0.6,1.4H131.8z"/>
	<path d="M277.2,95.6h1.5c-0.5-1.2-1-2.3-1.6-3.4c-0.3,0.1-0.6,0.3-0.6,0.6v0.5h-36v-0.5c0-0.3-0.3-0.6-0.7-0.6h-6.4
		c-1.4,1.2-2.8,2.4-4.3,3.4h10.7c0.4,0,0.7-0.3,0.7-0.6v-0.3h36V95C276.5,95.3,276.8,95.6,277.2,95.6z"/>
	<path d="M167.5,88.2c-0.2-0.2-0.4-0.4-0.6-0.7C167,87.9,167.2,88.1,167.5,88.2z"/>
	<path d="M240.5,84.3c0-0.1,0-0.1,0-0.1c-0.7,1-1.4,2-2.2,2.9h1.5c0.4,0,0.7-0.3,0.7-0.6v-0.3h33.2c-0.3-0.5-0.6-0.9-0.9-1.4h-32.3
		V84.3z"/>
	<path d="M131.8,86.2v0.3c0,0.3,0.3,0.6,0.7,0.6h34c-0.9-1.1-1.7-2.2-2.5-3.4h-31.5c-0.4,0-0.7,0.3-0.7,0.6v0.5h-0.5
		c-0.3,0.5-0.6,0.9-0.9,1.4H131.8z"/>
	<path d="M279.3,160.9v-0.5c0-0.3-0.3-0.6-0.7-0.6h-36.5v-0.4c0-0.4-0.4-0.8-0.9-0.8h-34.4c-0.5,0-0.9,0.4-0.9,0.8v0.4h-34.4
		c-0.4,0-0.7,0.3-0.7,0.6v0.5h-35.8v-0.5c0-0.3-0.3-0.6-0.7-0.6h-29l0,3.4h29c0.4,0,0.7-0.3,0.7-0.6v-0.3h35.8v0.3
		c0,0.3,0.3,0.6,0.7,0.6h34.4v0.4c0,0.4,0.4,0.8,0.9,0.8h34.4c0.5,0,0.9-0.4,0.9-0.8v-0.4h36.5c0.4,0,0.7-0.3,0.7-0.6v-0.3h20.4
		l0-1.4H279.3z"/>
	<path d="M279.3,152.4v-0.5c0-0.3-0.3-0.6-0.7-0.6h-36.5v-0.4c0-0.4-0.4-0.8-0.9-0.8h-34.4c-0.5,0-0.9,0.4-0.9,0.8v0.4h-34.4
		c-0.4,0-0.7,0.3-0.7,0.6v0.5h-35.8v-0.5c0-0.3-0.3-0.6-0.7-0.6h-29l0,3.4h29c0.4,0,0.7-0.3,0.7-0.6v-0.3h35.8v0.3
		c0,0.3,0.3,0.6,0.7,0.6h34.4v0.4c0,0.4,0.4,0.8,0.9,0.8h34.4c0.5,0,0.9-0.4,0.9-0.8v-0.4h36.5c0.4,0,0.7-0.3,0.7-0.6v-0.3h20.4
		l0-1.4H279.3z"/>
	<path d="M279.3,143.9v-0.5c0-0.3-0.3-0.6-0.7-0.6h-36.5v-0.4c0-0.4-0.4-0.8-0.9-0.8h-34.4c-0.5,0-0.9,0.4-0.9,0.8v0.4h-34.4
		c-0.4,0-0.7,0.3-0.7,0.6v0.5h-35.8v-0.5c0-0.3-0.3-0.6-0.7-0.6h-23.4c-0.7,1.3-1.4,2.4-2,3.4h25.4c0.4,0,0.7-0.3,0.7-0.6v-0.3h35.8
		v0.3c0,0.3,0.3,0.6,0.7,0.6h34.4v0.4c0,0.4,0.4,0.8,0.9,0.8h34.4c0.5,0,0.9-0.4,0.9-0.8v-0.4h36.5c0.4,0,0.7-0.3,0.7-0.6v-0.3h15.5
		c-0.3-0.4-0.5-0.9-0.8-1.4H279.3z"/>
	<path d="M279.3,135.4v-0.5c0-0.3-0.3-0.6-0.7-0.6h-36.5v-0.4c0-0.4-0.4-0.8-0.9-0.8h-34.4c-0.5,0-0.9,0.4-0.9,0.8v0.4h-34.4
		c-0.4,0-0.7,0.3-0.7,0.6v0.5h-35.8v-0.5c0-0.3-0.3-0.6-0.7-0.6h-19.7c-0.4,1.2-0.8,2.3-1.3,3.4h21c0.4,0,0.7-0.3,0.7-0.6v-0.3h35.8
		v0.3c0,0.3,0.3,0.6,0.7,0.6h34.4v0.4c0,0.4,0.4,0.8,0.9,0.8h34.4c0.5,0,0.9-0.4,0.9-0.8v-0.4h36.5c0.4,0,0.7-0.3,0.7-0.6v-0.3h11.3
		c-0.2-0.4-0.3-0.9-0.5-1.4H279.3z"/>
	<path d="M279.3,126.4c0-0.3-0.3-0.6-0.7-0.6h-36.5v-0.4c0-0.4-0.4-0.8-0.9-0.8h-34.4c-0.5,0-0.9,0.4-0.9,0.8v0.4h-34.4
		c-0.4,0-0.7,0.3-0.7,0.6v0.5h-35.8v-0.5c0-0.3-0.3-0.6-0.7-0.6h-17.5c0,0.1,0,0.2-0.1,0.2l-0.5,2.2c-0.1,0.3-0.2,0.7-0.2,1h18.2
		c0.4,0,0.7-0.3,0.7-0.6v-0.3h35.8v0.3c0,0.3,0.3,0.6,0.7,0.6h34.4v0.4c0,0.4,0.4,0.8,0.9,0.8h34.4c0.5,0,0.9-0.4,0.9-0.8v-0.4h36.5
		c0.4,0,0.7-0.3,0.7-0.6v-0.3h8.7c0-0.1,0-0.2-0.1-0.3c-0.1-0.3-0.2-0.7-0.2-1.1h-8.4V126.4z"/>
	<path d="M239.5,206.4H274c0.5,0,0.9-0.4,0.9-0.8v-0.4h24.8l0-3.4h-24.8v-0.4c0-0.4-0.4-0.8-0.9-0.8h-34.4c-0.5,0-0.9,0.4-0.9,0.8
		v0.4h-34.4c-0.4,0-0.7,0.3-0.7,0.6v0.5h-32.1v-0.5c0-0.3-0.3-0.6-0.7-0.6h-36.5v-0.4c0-0.4-0.4-0.8-0.9-0.8h-28l0,5.8h28
		c0.5,0,0.9-0.4,0.9-0.8v-0.4h36.5c0.4,0,0.7-0.3,0.7-0.6v-0.3h32.1v0.3c0,0.3,0.3,0.6,0.7,0.6h34.4v0.4
		C238.6,206,239,206.4,239.5,206.4z"/>
	<path d="M239.5,197.9H274c0.5,0,0.9-0.4,0.9-0.8v-0.4h24.8l0-3.4h-24.8v-0.4c0-0.4-0.4-0.8-0.9-0.8h-34.4c-0.5,0-0.9,0.4-0.9,0.8
		v0.4h-34.4c-0.4,0-0.7,0.3-0.7,0.6v0.5h-32.1v-0.5c0-0.3-0.3-0.6-0.7-0.6h-36.5v-0.4c0-0.4-0.4-0.8-0.9-0.8h-28l0,5.8h28
		c0.5,0,0.9-0.4,0.9-0.8v-0.4h36.5c0.4,0,0.7-0.3,0.7-0.6v-0.3h32.1v0.3c0,0.3,0.3,0.6,0.7,0.6h34.4v0.4
		C238.6,197.6,239,197.9,239.5,197.9z"/>
	<path d="M133.2,183.6h-28l0,5.8h28c0.5,0,0.9-0.4,0.9-0.8v-0.4h36.5c0.4,0,0.7-0.3,0.7-0.6v-0.3h32.1v0.3c0,0.3,0.3,0.6,0.7,0.6
		h34.4v0.4c0,0.4,0.4,0.8,0.9,0.8H274c0.5,0,0.9-0.4,0.9-0.8v-0.4h24.8l0-3.4h-24.8v-0.4c0-0.4-0.4-0.8-0.9-0.8h-34.4
		c-0.5,0-0.9,0.4-0.9,0.8v0.4h-34.4c-0.4,0-0.7,0.3-0.7,0.6v0.5h-32.1v-0.5c0-0.3-0.3-0.6-0.7-0.6h-36.5v-0.4
		C134.1,184,133.7,183.6,133.2,183.6z"/>
	<path d="M133.2,175.1h-28l0,5.8h28c0.5,0,0.9-0.4,0.9-0.8v-0.4h36.5c0.4,0,0.7-0.3,0.7-0.6v-0.3h32.1v0.3c0,0.3,0.3,0.6,0.7,0.6
		h34.4v0.4c0,0.4,0.4,0.8,0.9,0.8H274c0.5,0,0.9-0.4,0.9-0.8v-0.4h24.8l0-3.4h-24.8v-0.4c0-0.4-0.4-0.8-0.9-0.8h-34.4
		c-0.5,0-0.9,0.4-0.9,0.8v0.4h-34.4c-0.4,0-0.7,0.3-0.7,0.6v0.5h-32.1V177c0-0.3-0.3-0.6-0.7-0.6h-36.5v-0.4
		C134.1,175.5,133.7,175.1,133.2,175.1z"/>
	<path d="M133.2,166.7h-28l0,5.8h28c0.5,0,0.9-0.4,0.9-0.8v-0.4h36.5c0.4,0,0.7-0.3,0.7-0.6v-0.3H203v0.3c0,0.3,0.3,0.6,0.7,0.6
		h34.9v0.4c0,0.4,0.4,0.8,0.9,0.8H274c0.5,0,0.9-0.4,0.9-0.8v-0.4h24.9l0-3.4h-24.9v-0.4c0-0.4-0.4-0.8-0.9-0.8h-34.4
		c-0.5,0-0.9,0.4-0.9,0.8v0.4h-34.9c-0.4,0-0.7,0.3-0.7,0.6v0.5h-31.6v-0.5c0-0.3-0.3-0.6-0.7-0.6h-36.5v-0.4
		C134.1,167,133.7,166.7,133.2,166.7z"/>
	<path d="M582.7,257.1h34.4c0.5,0,0.9-0.4,0.9-0.8v-0.4h24.6l0-3.4h-24.6v-0.4c0-0.4-0.4-0.8-0.9-0.8h-34.4c-0.5,0-0.9,0.4-0.9,0.8
		v0.4h-36.5c-0.4,0-0.7,0.3-0.7,0.6v0.5h-36v-0.5c0-0.3-0.3-0.6-0.7-0.6h-34.6v-0.4c0-0.4-0.4-0.8-0.9-0.8h-24.1l0,5.8h24.1
		c0.5,0,0.9-0.4,0.9-0.8v-0.4h34.6c0.4,0,0.7-0.3,0.7-0.6V255h36v0.3c0,0.3,0.3,0.6,0.7,0.6h36.5v0.4
		C581.8,256.7,582.2,257.1,582.7,257.1z"/>
	<path d="M582.7,248.6h34.4c0.5,0,0.9-0.4,0.9-0.8v-0.4h24.6l0-3.4h-24.6v-0.4c0-0.4-0.4-0.8-0.9-0.8h-34.4c-0.5,0-0.9,0.4-0.9,0.8
		v0.4h-36.5c-0.4,0-0.7,0.3-0.7,0.6v0.5h-36v-0.5c0-0.3-0.3-0.6-0.7-0.6h-34.6v-0.4c0-0.4-0.4-0.8-0.9-0.8h-24.1l0,5.8h24.1
		c0.5,0,0.9-0.4,0.9-0.8v-0.4h34.6c0.4,0,0.7-0.3,0.7-0.6v-0.3h36v0.3c0,0.3,0.3,0.6,0.7,0.6h36.5v0.4
		C581.8,248.2,582.2,248.6,582.7,248.6z"/>
	<path d="M472.4,240.1c0.5,0,0.9-0.4,0.9-0.8v-0.4h34.6c0.4,0,0.7-0.3,0.7-0.6V238h36v0.3c0,0.3,0.3,0.6,0.7,0.6h36.5v0.4
		c0,0.4,0.4,0.8,0.9,0.8h34.4c0.5,0,0.9-0.4,0.9-0.8v-0.4h24.6l0-3.4h-24.6v-0.4c0-0.4-0.4-0.8-0.9-0.8h-34.4
		c-0.5,0-0.9,0.4-0.9,0.8v0.4h-36.5c-0.4,0-0.7,0.3-0.7,0.6v0.5h-36v-0.5c0-0.3-0.3-0.6-0.7-0.6h-34.6v-0.4c0-0.4-0.4-0.8-0.9-0.8
		h-24.1l0,5.8H472.4z"/>
	<path d="M472.4,231.6c0.5,0,0.9-0.4,0.9-0.8v-0.4h34.6c0.4,0,0.7-0.3,0.7-0.6v-0.3h36v0.3c0,0.3,0.3,0.6,0.7,0.6h36.5v0.4
		c0,0.4,0.4,0.8,0.9,0.8h34.4c0.5,0,0.9-0.4,0.9-0.8v-0.4h24.6l0-3.4h-24.7v-0.4c0-0.4-0.4-0.8-0.9-0.8h-34.4
		c-0.5,0-0.9,0.4-0.9,0.8v0.4h-36.5c-0.4,0-0.7,0.3-0.7,0.6v0.5h-36v-0.5c0-0.3-0.3-0.6-0.7-0.6h-34.6v-0.4c0-0.4-0.4-0.8-0.9-0.8
		h-24.1l0,5.8H472.4z"/>
	<path d="M472.4,217.3h-24.1l0,5.8h24.1c0.5,0,0.9-0.4,0.9-0.8v-0.4h34.6c0.4,0,0.7-0.3,0.7-0.6V221h36v0.3c0,0.3,0.3,0.6,0.7,0.6
		h36.5v0.4c0,0.4,0.4,0.8,0.9,0.8h34.4c0.5,0,0.9-0.4,0.9-0.8v-0.4h24.7l0-3.4h-24.7v-0.4c0-0.4-0.4-0.8-0.9-0.8h-34.4
		c-0.5,0-0.9,0.4-0.9,0.8v0.4h-36.5c-0.4,0-0.7,0.3-0.7,0.6v0.5h-36v-0.5c0-0.3-0.3-0.6-0.7-0.6h-34.6v-0.4
		C473.3,217.7,472.9,217.3,472.4,217.3z"/>
	<path d="M472.4,214.6c0.5,0,0.9-0.4,0.9-0.8v-0.4h34.6c0.4,0,0.7-0.3,0.7-0.6v-0.3h36v0.3c0,0.3,0.3,0.6,0.7,0.6h36.5v0.4
		c0,0.4,0.4,0.8,0.9,0.8h34.4c0.5,0,0.9-0.4,0.9-0.8v-0.4h24.7l0-3.4h-24.7v-0.4c0-0.4-0.4-0.8-0.9-0.8h-34.4
		c-0.5,0-0.9,0.4-0.9,0.8v0.4h-36.5c-0.4,0-0.7,0.3-0.7,0.6v0.5h-36v-0.5c0-0.3-0.3-0.6-0.7-0.6h-34.6v-0.4c0-0.4-0.4-0.8-0.9-0.8
		h-24.1l0,5.8H472.4z"/>
	<path d="M472.5,297.8v-0.3h36v0.3c0,0.3,0.3,0.6,0.7,0.6h36.5v0.4c0,0.4,0.4,0.8,0.9,0.8h34.4c0.5,0,0.9-0.4,0.9-0.8v-0.4h34.4
		c0.4,0,0.7-0.3,0.7-0.6v-0.3h25.6l0-1.4h-25.6v-0.5c0-0.3-0.3-0.6-0.7-0.6H582v-0.4c0-0.4-0.4-0.8-0.9-0.8h-34.4
		c-0.5,0-0.9,0.4-0.9,0.8v0.4h-36.5c-0.4,0-0.7,0.3-0.7,0.6v0.5h-36v-0.5c0-0.3-0.3-0.6-0.7-0.6h-23.4l0,3.4h23.4
		C472.2,298.4,472.5,298.1,472.5,297.8z"/>
	<path d="M546.6,291.1h34.4c0.5,0,0.9-0.4,0.9-0.8v-0.4h34.4c0.4,0,0.7-0.3,0.7-0.6V289h25.6l0-1.4h-25.6v-0.5
		c0-0.3-0.3-0.6-0.7-0.6H582v-0.4c0-0.4-0.4-0.8-0.9-0.8h-34.4c-0.5,0-0.9,0.4-0.9,0.8v0.4h-36.5c-0.4,0-0.7,0.3-0.7,0.6v0.5h-36
		v-0.5c0-0.3-0.3-0.6-0.7-0.6h-23.4l0,3.4h23.4c0.4,0,0.7-0.3,0.7-0.6V289h36v0.3c0,0.3,0.3,0.6,0.7,0.6h36.5v0.4
		C545.7,290.7,546.1,291.1,546.6,291.1z"/>
	<path d="M546.6,282.6h34.4c0.5,0,0.9-0.4,0.9-0.8v-0.4h34.4c0.4,0,0.7-0.3,0.7-0.6v-0.3h25.6l0-1.4h-25.6v-0.5
		c0-0.3-0.3-0.6-0.7-0.6H582v-0.4c0-0.4-0.4-0.8-0.9-0.8h-34.4c-0.5,0-0.9,0.4-0.9,0.8v0.4h-36.5c-0.4,0-0.7,0.3-0.7,0.6v0.5h-36
		v-0.5c0-0.3-0.3-0.6-0.7-0.6h-23.4l0,3.4h23.4c0.4,0,0.7-0.3,0.7-0.6v-0.3h36v0.3c0,0.3,0.3,0.6,0.7,0.6h36.5v0.4
		C545.7,282.3,546.1,282.6,546.6,282.6z"/>
	<path d="M617.1,270.7v-0.5c0-0.3-0.3-0.6-0.7-0.6H582v-0.4c0-0.4-0.4-0.8-0.9-0.8h-34.4c-0.5,0-0.9,0.4-0.9,0.8v0.4h-36.5
		c-0.4,0-0.7,0.3-0.7,0.6v0.5h-36v-0.5c0-0.3-0.3-0.6-0.7-0.6h-23.4l0,3.4h23.4c0.4,0,0.7-0.3,0.7-0.6v-0.3h36v0.3
		c0,0.3,0.3,0.6,0.7,0.6h36.5v0.4c0,0.4,0.4,0.8,0.9,0.8h34.4c0.5,0,0.9-0.4,0.9-0.8v-0.4h34.4c0.4,0,0.7-0.3,0.7-0.6v-0.3h25.6
		l0-1.4H617.1z"/>
	<path d="M471.8,264.4c0.4,0,0.7-0.3,0.7-0.6v-0.3h36v0.3c0,0.3,0.3,0.6,0.7,0.6h36.5v0.4c0,0.4,0.4,0.8,0.9,0.8h34.4
		c0.5,0,0.9-0.4,0.9-0.8v-0.4h34.4c0.4,0,0.7-0.3,0.7-0.6v-0.3h25.6l0-1.4h-25.6v-0.5c0-0.3-0.3-0.6-0.7-0.6H582v-0.4
		c0-0.4-0.4-0.8-0.9-0.8h-34.4c-0.5,0-0.9,0.4-0.9,0.8v0.4h-36.5c-0.4,0-0.7,0.3-0.7,0.6v0.5h-36v-0.5c0-0.3-0.3-0.6-0.7-0.6h-23.4
		l0,3.4H471.8z"/>
	<path d="M616.9,337.1c-0.4,0-0.7,0.3-0.7,0.6v0.5h-35.8v-0.5c0-0.3-0.3-0.6-0.7-0.6h-34.4v-0.4c0-0.4-0.4-0.8-0.9-0.8h-34.4
		c-0.5,0-0.9,0.4-0.9,0.8v0.4h-36.5c-0.4,0-0.7,0.3-0.7,0.6v0.5h-23.4l0,1.4h23.4v0.3c0,0.3,0.3,0.6,0.7,0.6H509v0.4
		c0,0.4,0.4,0.8,0.9,0.8h34.4c0.5,0,0.9-0.4,0.9-0.8v-0.4h34.4c0.4,0,0.7-0.3,0.7-0.6v-0.3h35.8v0.3c0,0.3,0.3,0.6,0.7,0.6h25.8
		l0-3.4H616.9z"/>
	<path d="M616.9,332h25.8l0-3.4h-25.8c-0.4,0-0.7,0.3-0.7,0.6v0.5h-35.8v-0.5c0-0.3-0.3-0.6-0.7-0.6h-34.4v-0.4
		c0-0.4-0.4-0.8-0.9-0.8h-34.4c-0.5,0-0.9,0.4-0.9,0.8v0.4h-36.5c-0.4,0-0.7,0.3-0.7,0.6v0.5h-23.4l0,1.4h23.4v0.3
		c0,0.3,0.3,0.6,0.7,0.6H509v0.4c0,0.4,0.4,0.8,0.9,0.8h34.4c0.5,0,0.9-0.4,0.9-0.8V332h34.4c0.4,0,0.7-0.3,0.7-0.6v-0.3h35.8v0.3
		C616.2,331.7,616.5,332,616.9,332z"/>
	<path d="M471.7,322.6v0.3c0,0.3,0.3,0.6,0.7,0.6H509v0.4c0,0.4,0.4,0.8,0.9,0.8h34.4c0.5,0,0.9-0.4,0.9-0.8v-0.4h34.4
		c0.4,0,0.7-0.3,0.7-0.6v-0.3h35.8v0.3c0,0.3,0.3,0.6,0.7,0.6h25.8l0-3.4h-25.8c-0.4,0-0.7,0.3-0.7,0.6v0.5h-35.8v-0.5
		c0-0.3-0.3-0.6-0.7-0.6h-34.4v-0.4c0-0.4-0.4-0.8-0.9-0.8h-34.4c-0.5,0-0.9,0.4-0.9,0.8v0.4h-36.5c-0.4,0-0.7,0.3-0.7,0.6v0.5
		h-23.4l0,1.4H471.7z"/>
	<path d="M544.3,310.4h-34.4c-0.5,0-0.9,0.4-0.9,0.8v0.4h-36.5c-0.4,0-0.7,0.3-0.7,0.6v0.5h-23.4l0,1.4h23.4v0.3
		c0,0.3,0.3,0.6,0.7,0.6H509v0.4c0,0.4,0.4,0.8,0.9,0.8h34.4c0.5,0,0.9-0.4,0.9-0.8V315h34.4c0.4,0,0.7-0.3,0.7-0.6v-0.3h35.8v0.3
		c0,0.3,0.3,0.6,0.7,0.6h25.8l0-3.4h-25.8c-0.4,0-0.7,0.3-0.7,0.6v0.5h-35.8v-0.5c0-0.3-0.3-0.6-0.7-0.6h-34.4v-0.4
		C545.3,310.8,544.9,310.4,544.3,310.4z"/>
	<path d="M616.2,303.7v0.5h-35.8v-0.5c0-0.3-0.3-0.6-0.7-0.6h-34.4v-0.4c0-0.4-0.4-0.8-0.9-0.8h-34.4c-0.5,0-0.9,0.4-0.9,0.8v0.4
		h-36.5c-0.4,0-0.7,0.3-0.7,0.6v0.5h-23.4l0,1.4h23.4v0.3c0,0.3,0.3,0.6,0.7,0.6H509v0.4c0,0.4,0.4,0.8,0.9,0.8h34.4
		c0.5,0,0.9-0.4,0.9-0.8v-0.4h34.4c0.4,0,0.7-0.3,0.7-0.6v-0.3h35.8v0.3c0,0.3,0.3,0.6,0.7,0.6h25.8l0-3.4h-25.8
		C616.5,303.1,616.2,303.4,616.2,303.7z"/>
	<path d="M578.3,370.7c-0.4,0-0.7,0.3-0.7,0.6v0.5h-32.1v-0.5c0-0.3-0.3-0.6-0.7-0.6h-34.4v-0.4c0-0.4-0.4-0.8-0.9-0.8h-17.6
		c6,1.7,12.4,3.3,19,4.6h33.9c0.4,0,0.7-0.3,0.7-0.6v-0.3h32.1v0.3c0,0.2,0.1,0.4,0.3,0.5c4.9-1,9.7-2.1,14.3-3.2H578.3z"/>
	<path d="M615.8,361c-0.5,0-0.9,0.4-0.9,0.8v0.4h-36.5c-0.4,0-0.7,0.3-0.7,0.6v0.5h-32.1v-0.5c0-0.3-0.3-0.6-0.7-0.6h-34.4v-0.4
		c0-0.4-0.4-0.8-0.9-0.8H475c-0.5,0-0.9,0.4-0.9,0.8v0.4h-4.2c4,1.5,8.4,3.1,13.1,4.6h26.4c0.5,0,0.9-0.4,0.9-0.8v-0.4h34.4
		c0.4,0,0.7-0.3,0.7-0.6v-0.3h32.1v0.3c0,0.3,0.3,0.6,0.7,0.6h31.5c4.8-1.6,9.3-3.1,13.3-4.6H615.8z"/>
	<path d="M509.4,352.5H475c-0.5,0-0.9,0.4-0.9,0.8v0.4h-24.2c1.4,0.7,3.9,1.9,7.4,3.4h16.8v0.4c0,0.4,0.4,0.8,0.9,0.8h34.4
		c0.5,0,0.9-0.4,0.9-0.8v-0.4h34.4c0.4,0,0.7-0.3,0.7-0.6v-0.3h32.1v0.3c0,0.3,0.3,0.6,0.7,0.6h36.5v0.4c0,0.4,0.4,0.8,0.9,0.8h14.4
		c6.8-2.7,11.3-4.7,12.4-5.3l0-0.5h-26.9c-0.5,0-0.9,0.4-0.9,0.8v0.4h-36.5c-0.4,0-0.7,0.3-0.7,0.6v0.5h-32.1v-0.5
		c0-0.3-0.3-0.6-0.7-0.6h-34.4v-0.4C510.4,352.8,510,352.5,509.4,352.5z"/>
	<path d="M509.4,344H475c-0.5,0-0.9,0.4-0.9,0.8v0.4h-25.7l0,3.4h25.7v0.4c0,0.4,0.4,0.8,0.9,0.8h34.4c0.5,0,0.9-0.4,0.9-0.8v-0.4
		h34.9c0.4,0,0.7-0.3,0.7-0.6v-0.3h31.6v0.3c0,0.3,0.3,0.6,0.7,0.6h36.5v0.4c0,0.4,0.4,0.8,0.9,0.8h26.9l0-5.8h-26.9
		c-0.5,0-0.9,0.4-0.9,0.8v0.4h-36.5c-0.4,0-0.7,0.3-0.7,0.6v0.5H546v-0.5c0-0.3-0.3-0.6-0.7-0.6h-34.9v-0.4
		C510.4,344.4,510,344,509.4,344z"/>
	<path d="M582.7,79.7h29.5c-1.7-2.1-3.5-4-5.5-5.8h-24c-0.5,0-0.9,0.4-0.9,0.8v0.4h-36.5c-0.4,0-0.7,0.3-0.7,0.6v0.5h-36v-0.5
		c0-0.3-0.3-0.6-0.7-0.6h-24.8c-1.1,1.1-2.2,2.2-3.2,3.4h28c0.4,0,0.7-0.3,0.7-0.6v-0.3h36v0.3c0,0.3,0.3,0.6,0.7,0.6h36.5v0.4
		C581.8,79.4,582.2,79.7,582.7,79.7z"/>
	<path d="M582.7,71.2h20.9c-2.4-2-4.9-3.7-7.6-5.3c-0.1,0-0.1-0.1-0.1-0.1l-0.6-0.4h-12.6c-0.5,0-0.9,0.4-0.9,0.8v0.4h-36.5
		c-0.4,0-0.7,0.3-0.7,0.6v0.5h-36v-0.5c0-0.3-0.3-0.6-0.7-0.6h-14c-1.7,1.1-3.3,2.2-4.9,3.4h18.9c0.4,0,0.7-0.3,0.7-0.6v-0.3h36v0.3
		c0,0.3,0.3,0.6,0.7,0.6h36.5v0.4C581.8,70.9,582.2,71.2,582.7,71.2z"/>
	<path d="M582.7,62.7h8.7L583,57h-0.3c-0.5,0-0.9,0.4-0.9,0.8v0.4h-36.5c-0.4,0-0.7,0.3-0.7,0.6v0.5h-36v-0.5c0-0.3-0.3-0.6-0.7-0.6
		h-0.7l-5.3,3.4h6c0.4,0,0.7-0.3,0.7-0.6v-0.3h36v0.3c0,0.3,0.3,0.6,0.7,0.6h36.5V62C581.8,62.4,582.2,62.7,582.7,62.7z"/>
	<path d="M544.6,52.2v0.3c0,0.3,0.3,0.6,0.7,0.6h32l-4.9-3.4h-27.1c-0.4,0-0.7,0.3-0.7,0.6v0.5h-25.9l-2.2,1.4H544.6z"/>
	<path d="M546.6,122.2h34.4c0.5,0,0.9-0.4,0.9-0.8V121h34.4c0.4,0,0.7-0.3,0.7-0.6v-0.3H630c-0.1-0.5-0.2-0.9-0.3-1.4h-12.6v-0.5
		c0-0.3-0.3-0.6-0.7-0.6H582v-0.4c0-0.4-0.4-0.8-0.9-0.8h-34.4c-0.5,0-0.9,0.4-0.9,0.8v0.4h-36.5c-0.4,0-0.7,0.3-0.7,0.6v0.5h-36
		v-0.5c0-0.3-0.3-0.6-0.7-0.6h-10.1c-0.3,1.2-0.5,2.3-0.8,3.4h10.9c0.4,0,0.7-0.3,0.7-0.6v-0.3h36v0.3c0,0.3,0.3,0.6,0.7,0.6h36.5
		v0.4C545.7,121.9,546.1,122.2,546.6,122.2z"/>
	<path d="M546.6,113.8h34.4c0.5,0,0.9-0.4,0.9-0.8v-0.4h34.4c0.4,0,0.7-0.3,0.7-0.6v-0.3H628c-0.1-0.5-0.3-0.9-0.4-1.4h-10.5v-0.5
		c0-0.3-0.3-0.6-0.7-0.6H582v-0.4c0-0.4-0.4-0.8-0.9-0.8h-34.4c-0.5,0-0.9,0.4-0.9,0.8v0.4h-36.5c-0.4,0-0.7,0.3-0.7,0.6v0.5h-36
		v-0.5c0-0.3-0.3-0.6-0.7-0.6h-7.9c-0.3,1.1-0.7,2.3-1,3.4h8.9c0.4,0,0.7-0.3,0.7-0.6v-0.3h36v0.3c0,0.3,0.3,0.6,0.7,0.6h36.5v0.4
		C545.7,113.4,546.1,113.8,546.6,113.8z"/>
	<path d="M617.1,101.8v-0.5c0-0.3-0.3-0.6-0.7-0.6H582v-0.4c0-0.4-0.4-0.8-0.9-0.8h-34.4c-0.5,0-0.9,0.4-0.9,0.8v0.4h-36.5
		c-0.4,0-0.7,0.3-0.7,0.6v0.5h-36v-0.5c0-0.3-0.3-0.6-0.7-0.6h-5c-0.4,1.1-0.9,2.3-1.3,3.4h6.3c0.4,0,0.7-0.3,0.7-0.6v-0.3h36v0.3
		c0,0.3,0.3,0.6,0.7,0.6h36.5v0.4c0,0.4,0.4,0.8,0.9,0.8h34.4c0.5,0,0.9-0.4,0.9-0.8v-0.4h34.4c0.4,0,0.7-0.3,0.7-0.6v-0.3h8.2
		c-0.2-0.5-0.3-0.9-0.5-1.4H617.1z"/>
	<path d="M471.8,95.6c0.4,0,0.7-0.3,0.7-0.6v-0.3h36V95c0,0.3,0.3,0.6,0.7,0.6h36.5V96c0,0.4,0.4,0.8,0.9,0.8h34.4
		c0.5,0,0.9-0.4,0.9-0.8v-0.4h34.4c0.4,0,0.7-0.3,0.7-0.6v-0.3h4.7c-0.2-0.5-0.5-0.9-0.7-1.4h-4v-0.5c0-0.3-0.3-0.6-0.7-0.6H582
		v-0.4c0-0.4-0.4-0.8-0.9-0.8h-34.4c-0.5,0-0.9,0.4-0.9,0.8v0.4h-36.5c-0.4,0-0.7,0.3-0.7,0.6v0.5h-36v-0.5c0-0.3-0.3-0.6-0.7-0.6
		h-1.2c-0.6,1.1-1.1,2.2-1.7,3.4H471.8z"/>
	<path d="M508.5,86.5c0,0.3,0.3,0.6,0.7,0.6h36.5v0.4c0,0.4,0.4,0.8,0.9,0.8h34.4c0.5,0,0.9-0.4,0.9-0.8v-0.4h34.4
		c0.4,0,0.7-0.3,0.7-0.6v-0.1c-0.6-0.9-1.2-1.8-1.8-2.6H582v-0.4c0-0.4-0.4-0.8-0.9-0.8h-34.4c-0.5,0-0.9,0.4-0.9,0.8v0.4h-36.5
		c-0.4,0-0.7,0.3-0.7,0.6v0.5H475c-0.3,0.5-0.6,0.9-0.9,1.4h34.4V86.5z"/>
	<path d="M469.6,162.2v0.3c0,0.3,0.3,0.6,0.7,0.6h36.5v0.4c0,0.4,0.4,0.8,0.9,0.8h34.4c0.5,0,0.9-0.4,0.9-0.8v-0.4h34.4
		c0.4,0,0.7-0.3,0.7-0.6v-0.3h35.8v0.3c0,0.3,0.3,0.6,0.7,0.6h28l0-3.4h-28c-0.4,0-0.7,0.3-0.7,0.6v0.5h-35.8v-0.5
		c0-0.3-0.3-0.6-0.7-0.6h-34.4v-0.4c0-0.4-0.4-0.8-0.9-0.8h-34.4c-0.5,0-0.9,0.4-0.9,0.8v0.4h-36.5c-0.4,0-0.7,0.3-0.7,0.6v0.5
		h-21.3l0,1.4H469.6z"/>
	<path d="M469.6,153.8v0.3c0,0.3,0.3,0.6,0.7,0.6h36.5v0.4c0,0.4,0.4,0.8,0.9,0.8h34.4c0.5,0,0.9-0.4,0.9-0.8v-0.4h34.4
		c0.4,0,0.7-0.3,0.7-0.6v-0.3h35.8v0.3c0,0.3,0.3,0.6,0.7,0.6h28.1l0-3.4h-28.1c-0.4,0-0.7,0.3-0.7,0.6v0.5h-35.8v-0.5
		c0-0.3-0.3-0.6-0.7-0.6h-34.4v-0.4c0-0.4-0.4-0.8-0.9-0.8h-34.4c-0.5,0-0.9,0.4-0.9,0.8v0.4h-36.5c-0.4,0-0.7,0.3-0.7,0.6v0.5
		h-21.3l0,1.4H469.6z"/>
	<path d="M469.6,145.3v0.3c0,0.3,0.3,0.6,0.7,0.6h36.5v0.4c0,0.4,0.4,0.8,0.9,0.8h34.4c0.5,0,0.9-0.4,0.9-0.8v-0.4h34.4
		c0.4,0,0.7-0.3,0.7-0.6v-0.3h35.8v0.3c0,0.3,0.3,0.6,0.7,0.6H639c-0.2-0.3-0.4-0.7-0.6-1c-0.4-0.7-0.9-1.5-1.3-2.4h-22.2
		c-0.4,0-0.7,0.3-0.7,0.6v0.5h-35.8v-0.5c0-0.3-0.3-0.6-0.7-0.6h-34.4v-0.4c0-0.4-0.4-0.8-0.9-0.8h-34.4c-0.5,0-0.9,0.4-0.9,0.8v0.4
		h-36.5c-0.4,0-0.7,0.3-0.7,0.6v0.5h-16.1c-0.2,0.4-0.5,0.9-0.7,1.2c0,0-0.1,0.1-0.1,0.1H469.6z"/>
	<path d="M469.6,136.8v0.3c0,0.3,0.3,0.6,0.7,0.6h36.5v0.4c0,0.4,0.4,0.8,0.9,0.8h34.4c0.5,0,0.9-0.4,0.9-0.8v-0.4h34.4
		c0.4,0,0.7-0.3,0.7-0.6v-0.3h35.8v0.3c0,0.3,0.3,0.6,0.7,0.6h19.9c-0.4-1.1-0.9-2.2-1.3-3.4h-18.6c-0.4,0-0.7,0.3-0.7,0.6v0.5
		h-35.8v-0.5c0-0.3-0.3-0.6-0.7-0.6h-34.4v-0.4c0-0.4-0.4-0.8-0.9-0.8h-34.4c-0.5,0-0.9,0.4-0.9,0.8v0.4h-36.5
		c-0.4,0-0.7,0.3-0.7,0.6v0.5h-12.3c-0.2,0.5-0.3,0.9-0.5,1.4H469.6z"/>
	<path d="M469.6,128.3v0.3c0,0.3,0.3,0.6,0.7,0.6h36.5v0.4c0,0.4,0.4,0.8,0.9,0.8h34.4c0.5,0,0.9-0.4,0.9-0.8v-0.4h34.4
		c0.4,0,0.7-0.3,0.7-0.6v-0.3h35.8v0.3c0,0.3,0.3,0.6,0.7,0.6H632c-0.1-0.3-0.1-0.6-0.2-0.9c-0.2-0.8-0.3-1.6-0.5-2.5h-16.4
		c-0.4,0-0.7,0.3-0.7,0.6v0.5h-35.8v-0.5c0-0.3-0.3-0.6-0.7-0.6h-34.4v-0.4c0-0.4-0.4-0.8-0.9-0.8h-34.4c-0.5,0-0.9,0.4-0.9,0.8v0.4
		h-36.5c-0.4,0-0.7,0.3-0.7,0.6v0.5h-10c-0.1,0.5-0.2,0.9-0.3,1.4H469.6z"/>
	<path d="M615.8,206.4h27l0-5.8h-27c-0.5,0-0.9,0.4-0.9,0.8v0.4h-36.5c-0.4,0-0.7,0.3-0.7,0.6v0.5h-32.1v-0.5c0-0.3-0.3-0.6-0.7-0.6
		h-34.4v-0.4c0-0.4-0.4-0.8-0.9-0.8H475c-0.5,0-0.9,0.4-0.9,0.8v0.4h-25.8l0,3.4h25.8v0.4c0,0.4,0.4,0.8,0.9,0.8h34.4
		c0.5,0,0.9-0.4,0.9-0.8v-0.4h34.4c0.4,0,0.7-0.3,0.7-0.6v-0.3h32.1v0.3c0,0.3,0.3,0.6,0.7,0.6h36.5v0.4
		C614.8,206,615.3,206.4,615.8,206.4z"/>
	<path d="M474.1,196.7v0.4c0,0.4,0.4,0.8,0.9,0.8h34.4c0.5,0,0.9-0.4,0.9-0.8v-0.4h34.4c0.4,0,0.7-0.3,0.7-0.6v-0.3h32.1v0.3
		c0,0.3,0.3,0.6,0.7,0.6h36.5v0.4c0,0.4,0.4,0.8,0.9,0.8h27l0-5.8h-27c-0.5,0-0.9,0.4-0.9,0.8v0.4h-36.5c-0.4,0-0.7,0.3-0.7,0.6v0.5
		h-32.1v-0.5c0-0.3-0.3-0.6-0.7-0.6h-34.4v-0.4c0-0.4-0.4-0.8-0.9-0.8H475c-0.5,0-0.9,0.4-0.9,0.8v0.4h-25.8l0,3.4H474.1z"/>
	<path d="M509.4,183.6H475c-0.5,0-0.9,0.4-0.9,0.8v0.4h-25.8l0,3.4h25.8v0.4c0,0.4,0.4,0.8,0.9,0.8h34.4c0.5,0,0.9-0.4,0.9-0.8v-0.4
		h34.4c0.4,0,0.7-0.3,0.7-0.6v-0.3h32.1v0.3c0,0.3,0.3,0.6,0.7,0.6h36.5v0.4c0,0.4,0.4,0.8,0.9,0.8h27l0-5.8h-27
		c-0.5,0-0.9,0.4-0.9,0.8v0.4h-36.5c-0.4,0-0.7,0.3-0.7,0.6v0.5h-32.1v-0.5c0-0.3-0.3-0.6-0.7-0.6h-34.4v-0.4
		C510.4,184,510,183.6,509.4,183.6z"/>
	<path d="M509.4,175.1H475c-0.5,0-0.9,0.4-0.9,0.8v0.4h-25.8l0,3.4h25.8v0.4c0,0.4,0.4,0.8,0.9,0.8h34.4c0.5,0,0.9-0.4,0.9-0.8v-0.4
		h34.4c0.4,0,0.7-0.3,0.7-0.6v-0.3h32.1v0.3c0,0.3,0.3,0.6,0.7,0.6h36.5v0.4c0,0.4,0.4,0.8,0.9,0.8h27l0-5.8h-27.1
		c-0.5,0-0.9,0.4-0.9,0.8v0.4h-36.5c-0.4,0-0.7,0.3-0.7,0.6v0.5h-32.1V177c0-0.3-0.3-0.6-0.7-0.6h-34.4v-0.4
		C510.4,175.5,510,175.1,509.4,175.1z"/>
	<path d="M509.4,166.7H475c-0.5,0-0.9,0.4-0.9,0.8v0.4h-25.8l0,3.4h25.8v0.4c0,0.4,0.4,0.8,0.9,0.8h34.4c0.5,0,0.9-0.4,0.9-0.8v-0.4
		h34.9c0.4,0,0.7-0.3,0.7-0.6v-0.3h31.6v0.3c0,0.3,0.3,0.6,0.7,0.6h36.5v0.4c0,0.4,0.4,0.8,0.9,0.8h27.1l0-5.8h-27.1
		c-0.5,0-0.9,0.4-0.9,0.8v0.4h-36.5c-0.4,0-0.7,0.3-0.7,0.6v0.5H546v-0.5c0-0.3-0.3-0.6-0.7-0.6h-34.9v-0.4
		C510.4,167,510,166.7,509.4,166.7z"/>
	<polygon points="643.3,161.7 643.3,161.7 643.3,166.6 	"/>
</g>
</svg>
