<?xml version="1.0" encoding="utf-8"?>
<!-- Generator: Adobe Illustrator 25.3.0, SVG Export Plug-In . SVG Version: 6.00 Build 0)  -->
<svg version="1.1" id="Layer_1" xmlns="http://www.w3.org/2000/svg" xmlns:xlink="http://www.w3.org/1999/xlink" x="0px" y="0px"
	 viewBox="0 0 750.2 400.1" style="enable-background:new 0 0 750.2 400.1;" xml:space="preserve">
<g>
	<polygon points="127,289.5 127.5,286.9 121.8,285.2 128.1,264.3 125.1,263.4 118,286.8 	"/>
	<polygon points="127.8,274.3 129.6,274.8 130,272.2 128.6,271.8 	"/>
	<path d="M113,267.1c-0.1,0.9-0.2,1.8-0.3,2.7l3.9,1.2l-5.3,17.6c1.1,0.2,2.1,0.3,3.1,0.5l5.9-19.8L113,267.1z"/>
	<path d="M122.8,240.9l-5.7-1.7c-0.1,0.9-0.3,1.8-0.4,2.6l2.4,0.7l-5,16.6c-0.2,1.5-0.4,3-0.6,4.5l2.4,0.7L122.8,240.9z"/>
	<polygon points="132.3,259.1 124.2,256.7 130.5,235.8 127.4,234.9 120.4,258.3 131.8,261.7 	"/>
	<polygon points="134.3,247.1 134.8,244.5 130.9,243.3 130.2,245.8 	"/>
	<polygon points="136.7,231.3 126.7,228.3 133,207.4 130,206.5 123,229.9 136,233.8 	"/>
	<polygon points="139.1,219.3 139.6,216.7 133.5,214.9 132.7,217.4 	"/>
	<path d="M125.2,212.4l-3.4-1c-0.2,0.9-0.3,1.8-0.5,2.6l0.1,0l-0.2,0.8c-1.2,7.1-2.4,14.1-3.6,20.8l0.6,0.2L125.2,212.4z"/>
	<polygon points="342,269.9 339.7,277.5 340.9,284.5 345,270.8 	"/>
	<path d="M356.9,281.7l-11.4-3.4l-0.8,2.5l10,3l-1.6,5.4c1.1-0.2,2.3-0.4,3.5-0.6l0.7-2.3C357.2,284.9,357,283.3,356.9,281.7z"/>
	<polygon points="139.2,202.8 129.2,199.8 135.4,179 132.4,178.1 125.4,201.5 138.4,205.4 	"/>
	<polygon points="138.9,212.9 140.2,213.2 142.1,202.2 	"/>
	<polygon points="143.9,191.6 144.4,189 135.9,186.4 135.1,189 	"/>
	<path d="M126.9,183.8c-0.5,2.4-0.9,4.8-1.4,7.3l2.1-7L126.9,183.8z"/>
	<polygon points="334.1,245.8 334.6,248.7 336.1,249.1 335.2,252 336.4,258.9 339.8,247.5 	"/>
	<polygon points="351.2,266.3 341.2,263.3 347.4,242.4 344.4,241.5 337.4,264.7 337.5,264.9 350.4,268.8 	"/>
	<path d="M355.7,271.1c-0.3-2.5-0.6-5-1-7.7l-3.9,12.9l3,0.9L355.7,271.1z"/>
	<path d="M347.1,252.4l6.3,1.9c-0.1-1-0.3-1.9-0.4-2.9l-5.1-1.5L347.1,252.4z"/>
	<path d="M141.7,174.4l-10-3l6.2-20.9l-3-0.9l-3.8,12.7c-0.7,3.6-1.4,7.3-2.2,11l12,3.6L141.7,174.4z"/>
	<polygon points="137.6,160.5 147.6,163.5 141.4,184.4 144.4,185.3 145.8,180.7 149.1,161.2 138.4,158 	"/>
	<polygon points="327.9,210.6 328.8,207.7 327.4,207.2 	"/>
	<polygon points="332,233.5 332.6,231.5 331.6,231.2 	"/>
	<polygon points="329.3,215.1 328.9,216.3 329.2,217.9 338.5,220.7 333,239.3 333.4,241.9 335.3,242.5 342.3,219 	"/>
	<path d="M350.8,237l-7.1-2.1l4.3-14.5c-0.4-2.3-0.8-4.6-1.2-6.9l-6.9,23l11.4,3.4C351.1,238.9,350.9,237.9,350.8,237z"/>
	<path d="M139.9,121.7l-0.6-0.2c-0.5,2.1-0.9,4.4-1.4,6.8L139.9,121.7z"/>
	<path d="M143.7,145.6l-8.7-2.6c-0.2,0.9-0.4,1.7-0.5,2.6l8.5,2.5L143.7,145.6z"/>
	<polygon points="139.6,131.7 149.6,134.7 143.4,155.6 146.4,156.5 153.4,133.1 140.4,129.2 	"/>
	<polygon points="327.8,177.9 324.3,189.7 325.5,196.7 330.8,178.8 	"/>
	<polygon points="334.6,202.7 326.1,200.2 326.6,203.1 333.8,205.3 	"/>
	<path d="M343.2,194c-0.3-1.5-0.5-2.9-0.8-4.4l-11.1-3.3l-0.8,2.5l10,3l-6.2,20.9l3,0.9L343.2,194z"/>
	<path d="M344.3,199.7l-2.4,8l4,1.2C345.4,205.8,344.8,202.8,344.3,199.7z"/>
	<path d="M146.2,117.2l-5.5-1.7c-0.2,0.8-0.4,1.7-0.6,2.6l5.3,1.6L146.2,117.2z"/>
	<path d="M145.9,127.2l3,0.9l4.4-14.6c-1.1-0.1-2.2-0.3-3.2-0.4L145.9,127.2z"/>
	<path d="M155.8,122.8l1.5-8.9c-0.4,0-0.8-0.1-1.3-0.1l-2.5,8.4L155.8,122.8z"/>
	<polygon points="317.9,153.1 318.4,156 321.9,157.1 319.8,164.1 321,171 325.7,155.5 	"/>
	<polygon points="337.1,174.3 327.1,171.3 333.3,150.4 330.3,149.5 323.3,172.9 336.3,176.8 	"/>
	<path d="M333,160.4l4,1.2c-0.2-1-0.4-2-0.6-2.9l-2.6-0.8L333,160.4z"/>
	<path d="M340.9,181.7c-0.4-2.3-0.9-4.5-1.3-6.7l-2.8,9.4l3,0.9L340.9,181.7z"/>
	<polygon points="314.6,115.6 311.5,114.7 311.3,115.6 312.5,122.5 	"/>
	<polygon points="318.3,139.5 315.3,138.6 315.8,141.5 317.6,142 	"/>
	<polygon points="315.1,123.1 314.3,125.6 324.3,128.6 318.1,149.5 321.1,150.4 328.1,127 	"/>
	<path d="M334.1,147c-0.2-1-0.4-2-0.6-2.9l-4-1.2l2.2-7.4c-0.5-2.2-0.9-4.4-1.3-6.5l-4.7,15.6L334.1,147z"/>
	<path d="M320.5,112.1c-1.1,0.2-2.3,0.3-3.7,0.5l3.2,1L320.5,112.1z"/>
	<path d="M323.3,111.7l-2.8,9.4l3,0.9l3.2-10.6c0-0.1,0-0.2-0.1-0.3C325.9,111.2,324.8,111.4,323.3,111.7z"/>
	<path d="M393,272.4l-1.2-0.4c-0.3,2.4-0.5,4.7-0.8,6.9L393,272.4z"/>
	<path d="M394.5,288.2l6.2-20.9l-3-0.9l-6.6,22.2c3.2,0.5,6.3,1,9.4,1.4L394.5,288.2z"/>
	<polygon points="406.3,279.1 406.7,276.5 401.2,274.8 400.4,277.4 	"/>
	<path d="M407,262.8l-10-3l6.2-20.9l-3-0.9l-7,23.3c0,0,0,0.1,0,0.1l13,3.9L407,262.8z"/>
	<polygon points="407.3,273 408.2,267.8 406.7,272.8 	"/>
	<polygon points="411,251.4 411.5,248.8 403.7,246.4 403,249 	"/>
	<path d="M409.4,234.4l-10-3l6.2-20.9l-3-0.9l-2.3,7.7c-1,5.5-1.9,11-2.8,16.3l11.1,3.3L409.4,234.4z"/>
	<polygon points="415.3,223.5 409.1,244.4 412.1,245.3 416.3,221 406.1,218 405.3,220.5 	"/>
	<path d="M637,286.6c-0.2-2.2-0.4-4.6-0.6-7.1l-0.5-0.1l-2.9,9.8c1.1-0.2,2.3-0.3,3.5-0.5L637,286.6z"/>
	<path d="M621.1,282.3l0.5,2.9l5.7,1.7l-0.9,3.2c1.1-0.2,2.3-0.3,3.4-0.5l1.3-4.3L621.1,282.3z"/>
	<path d="M408.1,182.1l-1.3-0.4c-0.8,4.3-1.6,8.6-2.4,13L408.1,182.1z"/>
	<path d="M411.9,205.9l-9.1-2.7c-0.2,0.9-0.3,1.7-0.5,2.6l8.8,2.6L411.9,205.9z"/>
	<polygon points="411.6,216 414.6,216.9 420.2,198.3 421.1,193.3 408.6,189.5 407.9,192.1 417.9,195.1 	"/>
	<polygon points="623.9,269.4 618.6,267.8 619.1,270.7 623.1,271.9 	"/>
	<polygon points="617.1,244.6 615.5,250.1 616.7,257 620.1,245.5 	"/>
	<path d="M633.5,257.2c0-0.1,0-0.3-0.1-0.4l-12.9-3.8l-0.8,2.5l10,3l-6.2,20.9l3,0.9L633.5,257.2z"/>
	<path d="M635.6,272.9l-0.6-0.2l0.4-1.3c-0.3-2.5-0.6-5-1-7.7l-3.2,10.6l4.7,1.4C635.8,274.8,635.7,273.9,635.6,272.9z"/>
	<path d="M414.3,177.5l-6.3-1.9c-0.2,0.9-0.3,1.7-0.5,2.6l6.1,1.8L414.3,177.5z"/>
	<path d="M410.3,163.4c0,0.1,0,0.1,0,0.2l10,3l-6.2,20.9l3,0.9l7-23.4l-13-3.9L410.3,163.4z"/>
	<polygon points="422.9,182.8 424.6,172.9 421.7,182.5 	"/>
	<polygon points="610.3,220.7 610.8,223.6 611.2,223.8 611,224.6 612.2,231.5 615,222.1 	"/>
	<polygon points="626.3,240.9 616.3,237.9 622.6,217 619.5,216.1 613.2,237.3 613.7,239.9 625.6,243.5 	"/>
	<path d="M631.5,243.7c-0.4-2.4-0.8-4.7-1.2-7.2l-4.3,14.4l3,0.9L631.5,243.7z"/>
	<path d="M622.3,227.1l6.8,2c-0.2-1-0.3-1.9-0.5-2.9l-5.5-1.7L622.3,227.1z"/>
	<path d="M413.4,148c-0.2,0.9-0.3,1.7-0.5,2.6l3.2,0.9l0.8-2.5L413.4,148z"/>
	<path d="M415.8,136.1l6.9,2.1l-6.2,20.9l3,0.9l7-23.4l-10.2-3.1C416.2,134.4,416,135.2,415.8,136.1z"/>
	<polygon points="424.2,154 427.6,155.1 428.1,152.4 428,152.4 428.3,151.3 431.8,130.8 431.2,130.6 	"/>
	<polygon points="603.7,183.2 604,182.3 603.5,182.2 	"/>
	<polygon points="604.9,189.9 605.4,192.8 613.7,195.3 608.7,211.9 609.6,216.9 610.5,217.1 617.5,193.7 	"/>
	<path d="M626.1,211.7l-7.3-2.2l4.3-14.2c-0.4-2.3-0.8-4.5-1.3-6.8l-6.8,22.6l11.6,3.5C626.4,213.6,626.2,212.6,626.1,211.7z"/>
	<path d="M418.6,130.3l3,0.9l5.5-18.4c-1.2-0.1-2.3-0.3-3.2-0.4L418.6,130.3z"/>
	<path d="M432.5,127.1l0.5-2.6l-2.9-0.9l3-10.2c-1.1-0.1-2.2-0.2-3.2-0.3l-3.6,12.1L432.5,127.1z"/>
	<polygon points="600,162.4 601.3,169.3 606,153.5 603,152.6 	"/>
	<polygon points="609.8,177.4 602.3,175.1 602.8,178.1 609,179.9 	"/>
	<path d="M605.7,163.5l10,3l-6.2,20.9l3,0.9l5.6-18.8c-0.3-1.8-0.7-3.5-1-5.3l-10.6-3.2L605.7,163.5z"/>
	<path d="M620.8,183.5c-0.5-2.8-1.1-5.6-1.6-8.4l-2.2,7.3L620.8,183.5z"/>
	<polygon points="594.5,131 597,131.7 595.5,136.8 596.7,143.7 600.8,130.1 594,128.1 	"/>
	<polygon points="598.4,147.6 611.5,151.5 612.2,148.9 602.2,146 608.5,125.1 605.4,124.2 	"/>
	<path d="M615,159.9l0.8-2.6c-0.4-2.2-0.9-4.4-1.3-6.6L612,159L615,159.9z"/>
	<path d="M608.2,135.1l3.3,1c-0.2-1-0.4-2-0.6-2.9l-1.9-0.6L608.2,135.1z"/>
	<polygon points="593.5,114.2 591.4,113.6 592,116.5 592.7,116.7 	"/>
	<path d="M593.3,124l0,0.3l2.9,0.9l3.9-13c-1,0.2-2.2,0.3-3.4,0.5L593.3,124z"/>
	<path d="M608.4,121.4c-0.2-1-0.4-2-0.6-3l-3.1-0.9l1.7-5.7c-0.1-0.2-0.1-0.5-0.2-0.7c-0.7,0.1-1.7,0.3-3.1,0.5l-2.2,7.5
		L608.4,121.4z"/>
</g>
</svg>
