<?xml version="1.0" encoding="utf-8"?>
<!-- Generator: Adobe Illustrator 25.3.0, SVG Export Plug-In . SVG Version: 6.00 Build 0)  -->
<svg version="1.1" id="Layer_1" xmlns="http://www.w3.org/2000/svg" xmlns:xlink="http://www.w3.org/1999/xlink" x="0px" y="0px"
	 viewBox="0 0 750.2000122 400.1000061" style="enable-background:new 0 0 750.2000122 400.1000061;" xml:space="preserve">
<rect x="105.2366028" y="296.5497131" width="194.3674011" height="3.8328259"/>
<rect x="105.2086182" y="231.0254211" width="194.4603577" height="3.9972546"/>
<path d="M121.5689087,106.5282288h161.1997681c-0.397644-1.260376-0.8238525-2.5352783-1.2789307-3.8198853h-71.9042969
	c-1.9868164,0.2393799-4.0272827,0.3703613-6.1223755,0.3831787l-1.8867188,0.0087891
	c-2.2018433,0-4.3410034-0.138916-6.4252319-0.3919678h-72.3112183
	C122.3911133,103.9917297,121.9663696,105.2680359,121.5689087,106.5282288z"/>
<rect x="105.1750183" y="152.6280823" width="194.5718079" height="3.8198864"/>
<path d="M287.6477051,120.2072449c0.3028564,1.5375366,0.5822144,2.9802856,0.8553467,4.2900391
	c0.1189575,0.5725708,0.2322388,1.1148071,0.3422241,1.6369629l14.338562-61.1535645l-2.3986816-0.7260742L287.6477051,120.2072449z
	"/>
<polygon points="316.8916626,151.7759094 319.3137207,152.238678 337.3319092,75.3166809 334.942749,74.5934753 "/>
<path d="M116.7344971,121.4198303c0.3754883-1.7084351,0.8008423-3.5740967,1.2875366-5.5646973l-11.9651489-52.0985718
	l-2.395752,0.725708L116.7344971,121.4198303z"/>
<polygon points="87.1010132,151.7827454 89.5772705,151.2909851 71.8287354,74.1246643 69.4116821,74.856781 "/>
<path d="M448.6547852,64.2973328l-2.3942261,0.727356l13.2069092,57.4135132
	c0.3685913-1.7805176,0.7763062-3.7055664,1.2425537-5.7374268L448.6547852,64.2973328z"/>
<polygon points="429.5350342,151.594574 432.027832,151.1081848 414.430481,74.6944275 412.0097656,75.4297791 "/>
<path d="M644.6867676,64.0522156l-2.3151245-0.6965942l-12.1549683,51.5673218
	c0.4742432,1.902832,0.8812256,3.7042236,1.2553101,5.4269409L644.6867676,64.0522156z"/>
<polygon points="678.9418945,74.3594666 676.5517578,73.6402893 658.5166016,150.6786194 660.942688,151.1249084 "/>
</svg>
