<?xml version="1.0" encoding="utf-8"?>
<!-- Generator: Adobe Illustrator 25.3.0, SVG Export Plug-In . SVG Version: 6.00 Build 0)  -->
<svg version="1.1" id="Layer_1" xmlns="http://www.w3.org/2000/svg" xmlns:xlink="http://www.w3.org/1999/xlink" x="0px" y="0px"
	 viewBox="0 0 750.2000122 400.1000061" style="enable-background:new 0 0 750.2000122 400.1000061;" xml:space="preserve">
<g>
	<polygon points="643.3478394,161.7063293 643.3447266,161.7026062 643.3430176,166.5984802 	"/>
	<path d="M299.7501831,151.1787415c-0.4460449-0.1383667-0.8525391-0.3936768-1.1582031-0.7488403
		c-0.9093018-1.0556641-2.9171753-3.5805664-5.0304565-7.447937v210.8859253l1.1264648-0.0587769
		c2.4581909-0.4442749,4.135437-0.7615967,4.8619995-0.9006958L299.7501831,151.1787415z"/>
	<path d="M110.8845215,142.5645447c-2.2172241,4.125061-4.3726196,6.8408203-5.3286743,7.9498291
		c-0.1135864,0.131897-0.2445068,0.2457886-0.3823853,0.350647l0.0864868,202.1185913
		c0.6113281,0.1307983,1.9185791,0.4071045,3.8018188,0.7891235l1.8227539,0.0951538V142.5645447z"/>
	<path d="M456.4838257,137.6650696l-0.0467529,0.0093994c-1.246582,3.0603027-2.5756836,5.5806885-3.6976318,7.4497681
		c-0.9619141,1.6040039-1.9765625,3.097168-3.0146484,4.4370117c-0.2675781,0.3447266-0.484375,0.6103516-0.6757812,0.840332
		c-0.2145996,0.2584839-0.4830322,0.4624023-0.7788086,0.6150513l0.0864258,202.0119019
		c0.0566406,0.0078125,0.1171875,0.0166016,0.1826172,0.0244141l0.1640625,0.0507812
		c0.1138306,0.0582886,2.9295654,1.4817505,7.7805176,3.6120605V137.6650696z"/>
	<path d="M642.8469849,150.7552795c-0.5848389-0.2022705-0.9970703-0.4735718-1.350708-0.9293823
		c-0.8525391-1.1005859-2.0527344-2.9018555-3.1318359-4.7011719c-1.1825562-1.9703369-2.5946045-4.6682739-3.8980103-7.9572144
		v216.7003784l7.1037598-0.3707886c0.4829102-0.2182007,0.8494873-0.3866577,1.0764771-0.4920044L642.8469849,150.7552795z"/>
	<path d="M293.5615234,139.9847107c2.2702637,4.5145874,4.5393677,7.3920288,5.3546143,8.3568115l50.0088501,9.5546875
		l1.8954468-8.6932373l-57.2589111-11.5379028V139.9847107z"/>
	<path d="M54.3934326,149.0482483l1.9290161,8.8464966l49.3149414-9.7929688
		c1.0003662-1.1779175,3.1243286-3.9098511,5.2471313-8.0251465v-2.4115601L54.3934326,149.0482483z"/>
	<path d="M401.0792847,157.146698l47.8522949-9.3366699c0.1445312-0.1757812,0.3066406-0.3764648,0.4960938-0.621582
		c0.6621094-0.8540039,1.6884766-2.2661133,2.8144531-4.1430664c0.8065796-1.3439941,1.727478-3.0510254,2.6412964-5.0578003
		l-55.5775146,11.1990356L401.0792847,157.146698z"/>
	<path d="M639.187561,143.23526c1.0029297,1.6713867,2.0996094,3.3237305,2.8808594,4.3408203
		c0.3154297,0.1240234,3.2530518,0.6575317,3.9776611,0.7727661c1.2275391,0.1943359,1.6904297,0.2783203,1.9189453,0.3886719
		l45.7304688,8.4125977l1.7391968-7.8067627l-59.3008423-12.0985718
		C637.1797485,139.6632996,638.2592773,141.688385,639.187561,143.23526z"/>
</g>
</svg>
