<?xml version="1.0" encoding="utf-8"?>
<!-- Generator: Adobe Illustrator 25.3.0, SVG Export Plug-In . SVG Version: 6.00 Build 0)  -->
<svg version="1.1" id="Layer_1" xmlns="http://www.w3.org/2000/svg" xmlns:xlink="http://www.w3.org/1999/xlink" x="0px" y="0px"
	 viewBox="0 0 750.2 400.1" style="enable-background:new 0 0 750.2 400.1;" xml:space="preserve">
<path d="M119.1,227.2c-4.2,24.6-7.4,47.1-8.3,61.3c5.4,0.9,10.7,1.7,16,2.3l10.4-60.2L119.1,227.2z"/>
<path d="M398.6,226.7c-4.2,24.8-7.5,47.4-8.3,61.8c4.7,0.8,9.4,1.5,14,2l10.5-60.8L398.6,226.7z"/>
<path d="M357.4,288.5c-0.8-14.4-4.1-37.2-8.4-62l-17.7,3.3l10.7,61C347.1,290.1,352.2,289.4,357.4,288.5z"/>
<path d="M637.1,288.5c-0.9-14.5-4.2-37.4-8.5-62.4l-16.8,3.1l10.8,61.4C627.4,290,632.2,289.3,637.1,288.5z"/>
</svg>
