<?xml version="1.0" encoding="utf-8"?>
<!-- Generator: Adobe Illustrator 25.3.0, SVG Export Plug-In . SVG Version: 6.00 Build 0)  -->
<svg version="1.1" id="Layer_1" xmlns="http://www.w3.org/2000/svg" xmlns:xlink="http://www.w3.org/1999/xlink" x="0px" y="0px"
	 viewBox="0 0 750.2 400.1" style="enable-background:new 0 0 750.2 400.1;" xml:space="preserve">
<g>
	<path d="M319.9,165l15.4-11.7c-1.7-8.5-3.3-16.5-4.8-23.6L315.7,141L319.9,165z"/>
	<path d="M343.4,195c-1.5-8-3-16-4.5-23.8l-15.7,12l4.2,24L343.4,195z"/>
	<path d="M346.8,213.9l-16.1,12.3l4.2,24l16-12.2C349.7,230.2,348.3,222.1,346.8,213.9z"/>
	<path d="M353.8,256.5l-15.7,12l3.9,22.2c1-0.1,2.1-0.3,3.1-0.4l11.7-8.9C356.2,274.3,355.1,265.8,353.8,256.5z"/>
	<path d="M600.2,163.1l14.5-11.1c-1.7-8.6-3.3-16.5-4.8-23.6l-13.9,10.6L600.2,163.1z"/>
	<path d="M622.8,193.8c-1.5-8-3-16-4.5-23.8l-14.9,11.3l4.2,24L622.8,193.8z"/>
	<path d="M630.4,236.8c-0.6-3.6-1.2-7.3-1.8-11c-0.9-4.3-1.7-8.6-2.5-13l-15.1,11.5l4.2,24L630.4,236.8z"/>
	<path d="M622.6,290.6l13.8-10.5c-0.7-7.2-1.8-15.6-3.2-24.8l-14.9,11.3L622.6,290.6z"/>
	<path d="M417.2,129.6c-1.5,7.1-3.1,15-4.8,23.6l13.8,10.5l4.1-24.1L417.2,129.6z"/>
	<path d="M408.9,171.1c-1.5,7.7-3,15.7-4.5,23.8l14.5,11.1l4.1-24.1L408.9,171.1z"/>
	<path d="M415.6,225l-14.7-11.2c-1.5,8.2-2.8,16.3-4.1,24.1l14.7,11.2L415.6,225z"/>
	<path d="M393.9,256.4c-1.3,9.3-2.4,17.8-3.1,24.9l11.9,9c0.5,0.1,1.1,0.1,1.6,0.2l4-23.2L393.9,256.4z"/>
	<path d="M137.8,128.8c-1.5,7.1-3.1,15-4.8,23.6l15.6,11.9l4.1-24.1L137.8,128.8z"/>
	<path d="M129.5,170.3c-1.5,7.7-3,15.7-4.5,23.8l16.3,12.5l4.1-24.1L129.5,170.3z"/>
	<path d="M138,225.7l-16.5-12.6c-1.5,8.2-2.8,16.3-4.1,24.1l16.5,12.6L138,225.7z"/>
	<path d="M114.5,255.6c-1.3,9.3-2.4,17.7-3.1,24.9l13.2,10.1c0.7,0.1,1.5,0.2,2.2,0.3l3.9-22.8L114.5,255.6z"/>
</g>
</svg>
