<?xml version="1.0" encoding="utf-8"?>
<!-- Generator: Adobe Illustrator 25.3.0, SVG Export Plug-In . SVG Version: 6.00 Build 0)  -->
<svg version="1.1" id="Layer_1" xmlns="http://www.w3.org/2000/svg" xmlns:xlink="http://www.w3.org/1999/xlink" x="0px" y="0px"
	 viewBox="0 0 750.2 400.1" style="enable-background:new 0 0 750.2 400.1;" xml:space="preserve">
<g>
	<path d="M319,112.3c-0.9,0.1-1.9,0.3-2.9,0.4l-4.3,5.5l0.5,2.7L319,112.3z"/>
	<path d="M330.2,128.1c-0.2-0.9-0.4-1.8-0.6-2.6l-13.6,17.4l0.5,2.7L330.2,128.1z"/>
	<path d="M155.9,121.9l-7-9c-1.1-0.1-2-0.3-2.9-0.4l9.4,12.1L155.9,121.9z"/>
	<path d="M151.7,146.3l-13.8-17.7c-0.2,0.9-0.4,1.7-0.5,2.6l13.9,17.8L151.7,146.3z"/>
	<path d="M335.1,151.9c-0.2-0.9-0.4-1.8-0.5-2.7l-14.2,18.1l0.5,2.7L335.1,151.9z"/>
	<path d="M339.8,176c-0.2-0.9-0.3-1.8-0.5-2.7L324.7,192l0.5,2.7L339.8,176z"/>
	<path d="M147.5,170.8l-14.4-18.5c-0.2,0.9-0.4,1.8-0.5,2.7l14.5,18.6L147.5,170.8z"/>
	<path d="M344.2,199.4c-0.2-0.9-0.3-1.8-0.5-2.7l-14.9,19l0.5,2.7L344.2,199.4z"/>
	<path d="M143.4,194.5l-14.9-19.1c-0.2,0.9-0.3,1.8-0.5,2.7l14.9,19.1L143.4,194.5z"/>
	<path d="M139.2,218.9L124,199.4c-0.2,0.9-0.3,1.8-0.5,2.7l15.2,19.5L139.2,218.9z"/>
	<path d="M348.6,223.9c-0.2-0.9-0.3-1.8-0.5-2.7l-14.9,19.1l0.5,2.7L348.6,223.9z"/>
	<path d="M352.6,248.8c-0.1-0.9-0.3-1.9-0.4-2.8l-14.7,18.9l0.5,2.7L352.6,248.8z"/>
	<path d="M135,243.4l-15.3-19.6c-0.2,0.9-0.3,1.8-0.5,2.7l15.3,19.6L135,243.4z"/>
	<path d="M355.8,271.5l-14,17.9l0.2,1.3c0.5-0.1,1-0.1,1.6-0.2l12.6-16.1C356,273.4,355.9,272.5,355.8,271.5z"/>
	<path d="M130.8,267.8l-15.1-19.4c-0.1,0.9-0.3,1.9-0.4,2.8l15.1,19.3L130.8,267.8z"/>
	<path d="M124.4,290.5L112,274.7c-0.1,1-0.2,2-0.3,2.9l9.7,12.5C122.4,290.3,123.4,290.4,124.4,290.5z"/>
	<path d="M327.6,115.9c-0.2-0.9-0.4-1.8-0.6-2.6l-13.2,16.9l0.5,2.7L327.6,115.9z"/>
	<path d="M332.6,139.7c-0.2-0.9-0.4-1.8-0.5-2.7l-13.9,17.8l0.5,2.7L332.6,139.7z"/>
	<path d="M153.8,133.9l-13.5-17.3c-0.2,0.9-0.4,1.7-0.6,2.6l13.5,17.4L153.8,133.9z"/>
	<path d="M149.6,158.4l-14.1-18.1c-0.2,0.9-0.4,1.8-0.5,2.7l14.2,18.2L149.6,158.4z"/>
	<path d="M337.4,163.6c-0.2-0.9-0.4-1.8-0.5-2.7l-14.4,18.4l0.5,2.7L337.4,163.6z"/>
	<path d="M342.3,189.4c-0.2-0.9-0.3-1.8-0.5-2.7l-14.8,18.9l0.5,2.7L342.3,189.4z"/>
	<path d="M145.1,184.5l-14.7-18.9c-0.2,0.9-0.3,1.8-0.5,2.7l14.8,18.9L145.1,184.5z"/>
	<path d="M141.5,205.7l-15.1-19.3c-0.2,0.9-0.3,1.8-0.5,2.7l15.1,19.3L141.5,205.7z"/>
	<path d="M346.2,210.5c-0.2-0.9-0.3-1.8-0.5-2.7l-14.9,19.1l0.5,2.7L346.2,210.5z"/>
	<path d="M137.3,230.1L122,210.5c-0.2,0.9-0.3,1.8-0.5,2.7l15.3,19.6L137.3,230.1z"/>
	<path d="M350.5,235.1c-0.2-0.9-0.3-1.8-0.5-2.8l-14.9,19.1l0.5,2.7L350.5,235.1z"/>
	<path d="M354.3,260.3c-0.1-0.9-0.3-1.9-0.4-2.8L339.4,276l0.5,2.7L354.3,260.3z"/>
	<path d="M133,254.6L117.8,235c-0.2,0.9-0.3,1.8-0.5,2.8l15.3,19.6L133,254.6z"/>
	<path d="M357.3,286.6c-0.1-1-0.1-2-0.2-3l-4.5,5.7c1-0.2,2-0.3,3-0.5L357.3,286.6z"/>
	<path d="M128.8,279L113.9,260c-0.1,1-0.3,1.9-0.4,2.8l14.8,19L128.8,279z"/>
	<path d="M110.9,286.9c0,0.5-0.1,1.1-0.1,1.6c0.5,0.1,1,0.2,1.5,0.2L110.9,286.9z"/>
	<path d="M419,120.8l11.9,15.3l0.5-2.7l-11.8-15.2C419.4,119,419.2,119.9,419,120.8z"/>
	<path d="M594,128.2l0.5,2.7l12.5-16c-0.2-0.9-0.4-1.8-0.6-2.6L594,128.2z"/>
	<path d="M414.1,144.4l12.6,16.1l0.5-2.7l-12.5-16C414.5,142.6,414.3,143.5,414.1,144.4z"/>
	<path d="M598.3,152.8l0.5,2.7l13.1-16.8c-0.2-0.9-0.4-1.8-0.5-2.6L598.3,152.8z"/>
	<path d="M409.4,168.2l13.1,16.8l0.5-2.7l-13-16.7C409.8,166.4,409.6,167.3,409.4,168.2z"/>
	<path d="M602.7,177.3l0.5,2.7l13.6-17.5c-0.2-0.9-0.4-1.8-0.5-2.7L602.7,177.3z"/>
	<path d="M405,191.4l13.4,17.2l0.5-2.7l-13.4-17.2C405.3,189.6,405.1,190.5,405,191.4z"/>
	<path d="M606.8,201l0.5,2.7l14-17.9c-0.2-0.9-0.3-1.8-0.5-2.7L606.8,201z"/>
	<path d="M400.6,215.6l13.6,17.5l0.5-2.7l-13.6-17.4C400.9,213.8,400.7,214.7,400.6,215.6z"/>
	<path d="M611.2,225.6l0.5,2.7l14.1-18.1c-0.2-0.9-0.3-1.8-0.5-2.7L611.2,225.6z"/>
	<path d="M615.5,250.2l0.5,2.7l14.1-18c-0.2-0.9-0.3-1.8-0.5-2.8L615.5,250.2z"/>
	<path d="M396.4,240.2l13.6,17.4l0.5-2.7l-13.6-17.4C396.7,238.3,396.6,239.3,396.4,240.2z"/>
	<path d="M392.7,265.3l13.1,16.7l0.5-2.7l-13.1-16.8C393,263.4,392.8,264.3,392.7,265.3z"/>
	<path d="M619.8,274.7l0.5,2.7l13.6-17.5c-0.1-0.9-0.3-1.9-0.4-2.8L619.8,274.7z"/>
	<path d="M632.8,289.2c1-0.2,2-0.3,3-0.5l1.2-1.6c-0.1-1-0.1-2-0.2-3L632.8,289.2z"/>
	<path d="M424.3,112.4l8.8,11.2l0.5-2.7l-6.3-8.1C426.1,112.6,425.1,112.5,424.3,112.4z"/>
	<path d="M596.8,112.6c-0.9,0.1-1.9,0.3-2.9,0.4l-2.1,2.6l0.5,2.7L596.8,112.6z"/>
	<path d="M416.6,132.4l12.3,15.7l0.5-2.7l-12.2-15.6C417,130.6,416.8,131.5,416.6,132.4z"/>
	<path d="M596.6,142.9l12.8-16.5c-0.2-0.9-0.4-1.8-0.6-2.6l-12.8,16.4L596.6,142.9z"/>
	<path d="M411.8,156.1l12.8,16.4l0.5-2.7l-12.8-16.4C412.2,154.3,412,155.2,411.8,156.1z"/>
	<path d="M600.9,167.5l13.4-17.2c-0.2-0.9-0.4-1.8-0.5-2.7l-13.4,17.1L600.9,167.5z"/>
	<path d="M406.8,181.6l13.3,17l0.5-2.7l-13.3-17C407.2,179.8,407,180.7,406.8,181.6z"/>
	<path d="M605.5,193.7l13.8-17.7c-0.2-0.9-0.3-1.8-0.5-2.7l-13.8,17.7L605.5,193.7z"/>
	<path d="M609.3,214.9l14.1-18c-0.2-0.9-0.3-1.8-0.5-2.7l-14.1,18L609.3,214.9z"/>
	<path d="M402.9,202.5l13.6,17.4l0.5-2.7l-13.5-17.3C403.3,200.7,403.1,201.6,402.9,202.5z"/>
	<path d="M398.6,226.8l13.6,17.5l0.5-2.7l-13.6-17.5C398.9,225,398.8,225.9,398.6,226.8z"/>
	<path d="M613.6,239.5l14.2-18.1c-0.2-0.9-0.3-1.8-0.5-2.7l-14.2,18.1L613.6,239.5z"/>
	<path d="M394.6,251.6l13.4,17.2l0.5-2.7l-13.5-17.2C394.9,249.7,394.8,250.7,394.6,251.6z"/>
	<path d="M617.9,264.1l13.9-17.9c-0.1-0.9-0.3-1.8-0.4-2.8l-14,17.9L617.9,264.1z"/>
	<path d="M635.1,268.8l-13.3,17.1l0.5,2.7l13.2-16.9C635.4,270.7,635.2,269.8,635.1,268.8z"/>
	<path d="M391.3,277.1l10.2,13c1,0.1,1.9,0.2,2.9,0.3l0,0l-12.7-16.3C391.5,275.2,391.4,276.2,391.3,277.1z"/>
</g>
</svg>
