<?xml version="1.0" encoding="utf-8"?>
<!-- Generator: Adobe Illustrator 25.3.0, SVG Export Plug-In . SVG Version: 6.00 Build 0)  -->
<svg version="1.1" id="Layer_1" xmlns="http://www.w3.org/2000/svg" xmlns:xlink="http://www.w3.org/1999/xlink" x="0px" y="0px"
	 viewBox="0 0 750.2 400.1" style="enable-background:new 0 0 750.2 400.1;" xml:space="preserve">
<g>
	<path d="M139.7,120c-0.3,1.2-0.5,2.5-0.8,3.8l16.3,2.4l0.7-3.8L139.7,120z"/>
	<path d="M132.6,154.5c-0.3,1.3-0.5,2.5-0.8,3.8l17.3,2.5l0.7-3.8L132.6,154.5z"/>
	<path d="M125.9,189c-0.2,1.3-0.5,2.6-0.7,3.8l18,2.6l0.7-3.8L125.9,189z"/>
	<path d="M119.7,223.6c-0.2,1.3-0.4,2.6-0.7,3.8l18.2,2.7l0.7-3.8L119.7,223.6z"/>
	<path d="M114.2,258.3c-0.2,1.3-0.4,2.6-0.5,3.9l17.7,2.6l0.7-3.8L114.2,258.3z"/>
	<path d="M419,120.6c-0.3,1.2-0.5,2.5-0.8,3.8l14.3,2.1l0.7-3.8L419,120.6z"/>
	<path d="M412,155.1c-0.3,1.3-0.5,2.5-0.8,3.8l15.4,2.3l0.7-3.8L412,155.1z"/>
	<path d="M405.3,189.7c-0.2,1.3-0.5,2.6-0.7,3.8l16,2.3l0.7-3.8L405.3,189.7z"/>
	<path d="M399.1,224.3c-0.2,1.3-0.4,2.6-0.7,3.8l16.2,2.4l0.7-3.8L399.1,224.3z"/>
	<path d="M393.6,259c-0.2,1.3-0.4,2.6-0.5,3.9l15.6,2.3l0.7-3.8L393.6,259z"/>
	<path d="M312.8,124.1l0.7,3.8l16.2-2.4c-0.3-1.3-0.5-2.6-0.8-3.8L312.8,124.1z"/>
	<path d="M336.7,160.1c-0.3-1.3-0.5-2.6-0.8-3.8l-17.1,2.5l0.7,3.8L336.7,160.1z"/>
	<path d="M343.3,194.6c-0.2-1.3-0.5-2.6-0.7-3.8l-17.7,2.6l0.7,3.8L343.3,194.6z"/>
	<path d="M349.5,229.3c-0.2-1.3-0.4-2.6-0.7-3.8L331,228l0.7,3.8L349.5,229.3z"/>
	<path d="M354.8,264c-0.2-1.3-0.3-2.6-0.5-3.9l-17.2,2.5l0.7,3.8L354.8,264z"/>
	<path d="M593.3,124.1l0.7,3.8l15.3-2.2c-0.3-1.3-0.5-2.6-0.8-3.8L593.3,124.1z"/>
	<path d="M616.3,160.2c-0.3-1.3-0.5-2.6-0.8-3.8l-16.2,2.4l0.7,3.8L616.3,160.2z"/>
	<path d="M623,194.7c-0.2-1.3-0.5-2.6-0.7-3.8l-16.8,2.5l0.7,3.8L623,194.7z"/>
	<path d="M629.1,229.3c-0.2-1.3-0.4-2.6-0.7-3.8l-16.9,2.5l0.7,3.8L629.1,229.3z"/>
	<path d="M634.5,264c-0.2-1.3-0.3-2.6-0.5-3.9l-16.3,2.4l0.7,3.8L634.5,264z"/>
</g>
</svg>
