<?xml version="1.0" encoding="utf-8"?>
<!-- Generator: Adobe Illustrator 25.3.0, SVG Export Plug-In . SVG Version: 6.00 Build 0)  -->
<svg version="1.1" id="Layer_1" xmlns="http://www.w3.org/2000/svg" xmlns:xlink="http://www.w3.org/1999/xlink" x="0px" y="0px"
	 viewBox="0 0 750.2 400.1" style="enable-background:new 0 0 750.2 400.1;" xml:space="preserve">
<g>
	<path d="M144,156.4c-0.3,0.1-0.6,0.1-0.9,0.2c-1.1,0.4-2.5,0.9-2.3,2c0.3,1.3,1.8,0.9,2.9,0.8c2-0.2,3.9-0.1,5.8,0.3l0.5-3
		C147.9,156.5,146,155.9,144,156.4z"/>
	<path d="M320.7,158.9c-0.6,0.1-1.2,0.2-1.8,0.4l2.6,14.7c2.5,0,4.9,0.4,7.4,1.1c1.9,0.5,3.7,1.2,5.2,2.5c1.9,1.5,4,2.1,6.3,1.9
		c-1.2-6.5-2.5-12.8-3.7-18.9c-1.7-0.3-3.4-0.7-5.1-0.9C328,159,324.4,158.5,320.7,158.9z"/>
	<path d="M349.8,231c-2.2-13.2-4.7-27.1-7.3-40.8c-0.6,0.3-1.2,0.6-1.8,1c-1.9,1.1-3.7,2.3-5.5,3.4c-0.5,0.3-1,1-1.7,0.7
		c-0.7-0.3-0.3-1.1-0.4-1.7c-2.6-0.7-5.5-0.3-7.9,0.9l5.2,29.8c4.9,2.8,10.4,4.8,16.1,6.4C347.6,231,348.7,231.1,349.8,231z"/>
	<path d="M125.8,202.1c0.3-0.3,0.7-0.7,1.3-0.5c0.6,0.2,0.6,0.8,0.7,1.2c0.3,2.3,1.5,3.2,4,3.1c1.1-0.1,1.9,0.2,2.7,0.8
		c1,0.9,2.3,1.3,3.8,1c1-0.2,2-0.1,2.9,0.2l1.7-9.7c-1.6-0.4-3.2-0.8-4.8-1.1c-4.4-1-8.7-2.1-12.9-3.7c-0.6,3.2-1.2,6.4-1.8,9.6
		C124.3,203,125.1,202.8,125.8,202.1z"/>
	<path d="M127.4,208.9c-1.4-1.3-2.9-2.5-4.5-3.5c-0.2,1.3-0.5,2.7-0.7,4c0.1,0,0.3,0,0.4,0C124.2,209.2,125.8,209,127.4,208.9z"/>
	<path d="M320.8,150c2.4-0.3,4.8-0.4,7.3-0.6c1.7-0.1,4.2,0.5,6.8,1.5c-2-10.1-3.9-19.4-5.6-27.2c-3.7-0.4-7.4,0.1-11.2,1.5
		c-1.7,0.6-3.4,0.6-5,0.4l4.4,25C318.5,150.3,319.7,150.1,320.8,150z"/>
	<path d="M140.7,144c2.2,1.5,4.7,1.9,7.4,1.5c1.3-0.2,2.5-0.4,3.8-0.6l2.9-16.7c-3.1-0.7-6.3-0.9-9.5-1c-2-0.1-3.5-1-5.1-1.9
		c-0.6-0.3-0.8-1-0.9-1.6c-0.1-0.7,0.1-1,0.9-0.7c4.1,1.3,8.6,1,12.7,2.5c0.7,0.3,1.5,0.4,2.3,0.4l0.6-3.3c-1.1-0.6-2.2-1.2-3.4-1.8
		c-1.1-0.5-1.6-1-0.5-2.1c1.3-1.3,1.5-2.8,0.2-4.2c-0.6-0.7-0.5-1,0.3-1.4c-5.6-0.7-9.4-1.2-11-1.4c-1.6,7.5-3.8,17.8-6.2,29.6
		c0.9,0.3,1.9,0.7,2.8,1C139,142.9,139.9,143.5,140.7,144z"/>
	<path d="M326.5,111.1C326.6,111.1,326.6,111.1,326.5,111.1C326.6,111.1,326.6,111.1,326.5,111.1
		C326.6,111.1,326.6,111.1,326.5,111.1z"/>
	<path d="M112.2,273.3c-0.1,0.8-0.2,1.5-0.3,2.3c0.9-0.3,1.7-0.6,2.6-1.2C113.8,273.9,113,273.6,112.2,273.3z"/>
	<path d="M126.8,290.8l0.9-5.4c-0.5-0.1-1.1-0.2-1.6-0.2c-3.1-0.2-6.1,0.7-9.2,1c-2,0.1-4,0.3-5.9,0.5c0,0.6-0.1,1.2-0.1,1.8
		C116.2,289.4,121.5,290.2,126.8,290.8z"/>
	<path d="M125.9,270.3c1.5-0.5,3.1-0.9,4.6-1.1l2.6-15c-1.7-0.3-3.4-0.3-5.2-0.2c-1.1,0.1-2.1-0.2-2.5-1.1c-1.5-3-4.6-3.9-7.8-4.7
		c-0.6-0.2-1.2-0.3-1.9-0.4c-1.2,7.6-2.2,14.7-3,21.2c0.2,0.1,0.4,0.2,0.6,0.3C117.3,271.5,121.4,271.9,125.9,270.3z"/>
	<path d="M341.1,279c-0.7-0.7-1.3-1.6-0.5-2.5c0.9-0.9,1.9-0.8,3-0.3c1.7,0.9,3.4,0.9,5-0.3c1.6-1.2,3.3-1,5.1-0.3
		c0.6,0.2,1.1,0.5,1.6,0.9c0.4,0.4,0.8,0.7,1.2,0.9c-0.8-7.1-1.8-15.4-3.2-24.4c-6.3-1.6-12.4-3.7-18.8-5.1l7.5,42.7
		c5.1-0.6,10.2-1.3,15.4-2.2c-0.1-1.2-0.2-2.4-0.3-3.6c-2.8-0.2-5.5-0.4-8.3-1.1C345.6,283,343.1,281.3,341.1,279z"/>
	<path d="M346.1,245.8c0.8,0.4,1.7,0.6,2.7,0.7c1.2,0.1,2.4,0.3,3.6,0.5c-0.2-1.4-0.4-2.8-0.7-4.2c-1.7,0.4-3.5,0.8-5.3,0.8
		c-0.5,0-1.1,0.3-1.2,0.9C345.1,245.1,345.5,245.5,346.1,245.8z"/>
	<path d="M345.9,232.8c-0.9,1.4,0,2.4,1.3,3.1c1.4,0.7,2.6,1.6,3.8,2.5c-0.3-2.1-0.7-4.3-1.1-6.4c-0.1,0-0.2-0.1-0.3-0.1
		C348.2,231.5,346.7,231.4,345.9,232.8z"/>
	<path d="M130.9,249.7c1,0.2,1.9,0.4,2.9,0.6l3.8-22.3c-2.9-0.7-5.9-0.7-8.9-0.3c-3.8,0.4-4.2,1-4,4.4c0.1,1.2-0.1,2.6-1.6,2.8
		c-1.8,0.4-3.7,0.9-5.6,1.1c-0.3,1.6-0.5,3.1-0.8,4.7c0.2,0.2,0.3,0.4,0.5,0.6C120.6,245.6,125.2,248.3,130.9,249.7z"/>
	<path d="M145.2,183.9l0.7-3.8c-1.3,0.5-2.6,1-3.9,1.7C143,182.5,144.1,183.2,145.2,183.9z"/>
	<path d="M148.5,165.2l0.2-1.4c-1.6,0.2-3.1,0.6-4.6,1.3C145.6,165.4,147.1,165.5,148.5,165.2z"/>
	<path d="M410.4,255l2.6-15.3c-0.6-0.1-1.1-0.2-1.7-0.4c-1.9-0.5-3.7-1.2-5.2-2.5c-2.5-2-5.3-2.4-8.5-1.5c-0.1,0-0.3,0.1-0.4,0.1
		c-0.9,5.8-1.8,11.4-2.6,16.8c4.7,0.6,9.4,1.8,14.1,2.5C409.2,254.9,409.8,255,410.4,255z"/>
	<path d="M617.7,205c-1.6,0.1-3.2,0.3-4.8,0.5c2.6,2.4,5.5,4.6,9.3,5.5c0.9,0.2,1.8,0.7,2.7,1.1c0.4,0.2,1.3,0.4,0.9,1
		c-0.3,0.5-1.1,0.3-1.5,0.1c-2-1.3-4.2-1.4-6.5-1.7c-1.3-0.1-2.3-0.1-3.2,0.8c-0.3,0.3-0.7,0.7-1.3,0.5c-0.6-0.2-0.6-0.8-0.7-1.2
		c-0.3-2.3-1.5-3.2-4-3.1c-0.1,0-0.3,0-0.4,0l1.9,10.9c3.7,1.1,7.3,2.4,10.7,4.2c3.4,1.9,6.5,4.1,8.6,7.1c-1.4-8.4-3-17.2-4.6-25.9
		C622.5,204.6,620.1,204.8,617.7,205z"/>
	<path d="M396.7,258.1c-0.5-0.7-1-1.5-1.9-2c-0.3-0.2-0.5-0.3-0.8-0.4c-1.6,10.8-2.8,20.4-3.4,28.2c0.1,0,0.1,0,0.2,0
		c4-0.1,7.2,2,10.4,3.7c1.1,0.6,2.2,1.1,3.3,1.6l4.2-24.6C404.3,263.5,398.4,260.5,396.7,258.1z"/>
	<path d="M626,289.3c-2.3-2.2-3.7-4.8-4.9-7.5l1.6,8.8c1.3-0.2,2.6-0.4,3.9-0.5C626.4,289.8,626.2,289.5,626,289.3z"/>
	<path d="M407.2,220.7c3.2,0.9,6.8,0.1,9.4-1.8l3.5-20.5c-0.4-0.4-0.8-0.8-1.1-1.2c-3.8-4.2-8.3-7.2-13.4-9.5
		c-2.2,11.8-4.4,23.8-6.4,35.4c0.1-0.1,0.2-0.1,0.4-0.2c1.9-1.1,3.7-2.3,5.5-3.4c0.5-0.3,1-1,1.7-0.7
		C407.5,219.4,407.2,220.2,407.2,220.7z"/>
	<path d="M591.4,113.3l0.6,3.5c0.2,0,0.4,0.1,0.6,0.1c3.2,0.5,6.3,1.3,9.6,1.3c0.9,0,1.5,0.5,2.1,1c1.4,1,2.7,2,4.2,2.7
		c-0.9-4.1-1.6-7.7-2.3-10.9C604.1,111.5,599.1,112.3,591.4,113.3z"/>
	<path d="M612.3,160.4c1.1-0.1,2.1,0.2,2.5,1.1c0.6,1.1,1.3,1.9,2.2,2.5c-1.3-6.8-2.6-13.3-3.9-19.5c-5.3,1.5-10.7,1.1-16.2,0.5
		l2.3,13c2.4,0.7,4.8,1.4,7.2,2.1C608.4,160.5,610.3,160.5,612.3,160.4z"/>
	<path d="M602.4,120.8c-0.4-0.4-0.8-0.7-1.3-0.9c-1-0.5-2.2-0.8-2.9-0.1c-0.6,0.7,0.5,1.3,1.1,1.8c3.2,2.6,6.5,5.3,10.6,6.6
		c-0.3-1.3-0.5-2.5-0.8-3.7c-0.2-0.1-0.3-0.2-0.5-0.3c-0.4-0.2-0.8-0.7-1.3-0.7C604.9,123.7,603.7,122.2,602.4,120.8z"/>
	<path d="M425.4,148c-3-2-6.5-2.6-10.1-3.1c-0.4-0.1-0.8-0.2-1.2-0.3c-1.4,7.1-2.9,14.6-4.5,22.5c4.1,0.8,8.2,1.6,12.4,2
		c1.1,0.1,2.1,0.4,3.1,0.7l3.7-21.3C427.6,149.1,426.3,148.7,425.4,148z"/>
	<path d="M419.6,118c-0.6,3-1.3,6.3-2,9.8c1.1,0.3,2.2,0.7,3.3,1c3,1,5.5,2.8,8.1,4.3c0.7,0.4,1.5,0.8,2.2,1.2l2.3-13.2
		c-1.5-0.9-3.3-1.4-5.3-1.6C425.3,119.3,422.5,118.6,419.6,118z"/>
	<path d="M422.1,141.7c-2.1-1.8-4.1-3.6-6.4-5.2c-0.4,2-0.8,4.1-1.3,6.3c1.5,0.5,2.9,1,4.4,1.4c0.9,0.3,1.9,0.6,2.9,0.6
		c1.4-0.1,2-1,1.3-2C422.8,142.4,422.5,142,422.1,141.7z"/>
	<path d="M627.4,251.4c-1.1-0.1-2.5-0.5-3,0.6c-0.5,1.1,1,1.3,1.7,1.9c0.2,0.2,0.5,0.3,0.7,0.5c2.5,1.5,4,3.4,4.1,6.1
		c0.1,1.1,0.4,2.2,0.8,3.2c0.6,1.7,1.7,2.3,3,1.8c-0.7-5.4-1.6-11.2-2.5-17.2c-1.6-0.5-3.4-0.7-5.1-0.8c-0.7-0.1-1.5-0.1-1.8,0.5
		c-0.3,0.7,0.4,1,1,1.2c1.7,0.6,2.8,2,4.6,2.6C629.6,252.1,628.5,251.5,627.4,251.4z"/>
	<path d="M413.7,175.5c3.1,1.5,6.1,3,9.7,3.7c0,0,0.1,0,0.1,0l0.7-3.9c-2.9-0.1-5.7-0.1-8.6-0.1
		C414.9,175.2,414.3,175.4,413.7,175.5z"/>
	<path d="M617.1,179.6c1-0.2,1.9-0.4,2.9-0.6c-0.7-3.6-1.4-7.1-2-10.6c-2.5-1.7-5.3-2.9-8.5-3.6c-3-0.7-6.1-1.2-9.2-1.5l4.2,23.6
		c2.4,0.3,4.8,0.3,7.2,0c3.8-0.4,4.2-1,4-4.4C615.5,181.2,615.7,179.9,617.1,179.6z"/>
</g>
</svg>
