<?xml version="1.0" encoding="utf-8"?>
<!-- Generator: Adobe Illustrator 25.3.0, SVG Export Plug-In . SVG Version: 6.00 Build 0)  -->
<svg version="1.1" id="Layer_1" xmlns="http://www.w3.org/2000/svg" xmlns:xlink="http://www.w3.org/1999/xlink" x="0px" y="0px"
	 viewBox="0 0 750.2 400.1" style="enable-background:new 0 0 750.2 400.1;" xml:space="preserve">
<g>
	<path d="M170.4,95.1v-2.8l3.6-3.5c8.7-8.3,12.6-12.7,12.7-17.8c0-3.5-1.7-6.7-6.8-6.7c-3.1,0-5.7,1.6-7.2,2.9l-1.5-3.3
		c2.4-2,5.7-3.5,9.6-3.5c7.3,0,10.4,5,10.4,9.9c0,6.3-4.6,11.4-11.7,18.3l-2.7,2.5v0.1h15.3v3.8H170.4z"/>
	<path d="M196.8,86.5c0-4.3,2.6-7.3,6.8-9.1l-0.1-0.2c-3.8-1.8-5.4-4.7-5.4-7.7c0-5.4,4.6-9.1,10.5-9.1c6.6,0,9.9,4.1,9.9,8.4
		c0,2.9-1.4,6-5.6,8V77c4.2,1.7,6.9,4.7,6.9,8.8c0,5.9-5.1,9.9-11.6,9.9C201.1,95.7,196.8,91.5,196.8,86.5z M215.2,86.3
		c0-4.1-2.9-6.1-7.5-7.4c-4,1.2-6.1,3.8-6.1,7c-0.2,3.5,2.5,6.5,6.8,6.5C212.5,92.3,215.2,89.8,215.2,86.3z M202.5,69.2
		c0,3.4,2.6,5.2,6.5,6.3c2.9-1,5.2-3.1,5.2-6.2c0-2.7-1.6-5.6-5.8-5.6C204.6,63.8,202.5,66.3,202.5,69.2z"/>
</g>
</svg>
