<?xml version="1.0" encoding="utf-8"?>
<!-- Generator: Adobe Illustrator 25.3.0, SVG Export Plug-In . SVG Version: 6.00 Build 0)  -->
<svg version="1.1" id="Layer_1" xmlns="http://www.w3.org/2000/svg" xmlns:xlink="http://www.w3.org/1999/xlink" x="0px" y="0px"
	 viewBox="0 0 750.2 400.1" style="enable-background:new 0 0 750.2 400.1;" xml:space="preserve">
<g>
	<polygon points="643.3,161.7 643.3,161.7 643.3,166.6 	"/>
	<path d="M173,93.6l-40.2-10.9c0,0,0,0,0,0.1l43.9,13.4C175.4,95.4,174.2,94.5,173,93.6z"/>
	<path d="M201.3,103.1c-1,0-1.9,0-2.8-0.1l-1.2,51.7l0,1.4l1.6,0.6l100.9,37.4l0-7.4l-97.2-33.4L201.3,103.1z"/>
	<path d="M164.2,83.9c-0.2-0.2-0.3-0.5-0.5-0.7c-1.5-2.2-2.7-4.5-3.8-6.7l-15.7-5c-2.1,1.5-4.1,3.1-6,5L164.2,83.9z"/>
	<path d="M212.9,102.2c-1.6,0.3-3.2,0.5-4.9,0.7l1,44.7l0,0.8l0.9,0.3l81.9,26.7l-79.9-28.5L212.9,102.2z"/>
	<path d="M149.1,214.8l1.6,0.6l148.9,54.2l0-7.9L154.4,212l-1.2-51.2l0-0.8l-0.9-0.2l-44.5-12c-0.2,0.3-0.4,0.5-0.5,0.7l43.2,13.2
		l-1.2,51.9L149.1,214.8z"/>
	<path d="M159.7,155.2l1.2,51.1l0,0.8l0.9,0.3L273.4,244l-109.6-38.5l1.2-51.9l0-1.5l-1.7-0.6l-49.3-15.7c-0.8,2-1.6,3.8-2.4,5.5
		L159.7,155.2z"/>
	<path d="M261.3,83.4l-0.3-11.4c-1.5-1.1-3-2.1-4.6-3l-0.4,15.8l0,1.4l1.6,0.6l20.4,7.6c-1-2.2-2.1-4.4-3.3-6.4L261.3,83.4z"/>
	<path d="M268,78.5c0-0.1-0.1-0.1-0.1-0.1l0,0.1L268,78.5z"/>
	<polygon points="299.6,338.2 105.4,269.3 105.2,262.7 105.2,274 299.6,346 	"/>
	<polygon points="116,209.4 114.2,208.8 105.2,206 105.2,210.8 110.7,212.4 111.9,263.5 111.9,264.3 112.7,264.6 287.4,325.6 
		114.8,262.8 115.9,210.9 	"/>
	<path d="M157.6,361.7l-52.4-18.6l0,5.5l24.1,8.9C137.6,358.9,147.4,360.4,157.6,361.7z"/>
	<path d="M189.6,364.4l-84.4-30.7l0,2l82.1,28.7C188.1,364.3,188.9,364.3,189.6,364.4z"/>
	<path d="M227.6,130.2L226.8,97c-1.2,0.7-2.4,1.4-3.7,1.9l-0.8,32.7l0,1.4l1.6,0.6l75.8,28.1l0-6.7L227.6,130.2z"/>
	<path d="M237.8,87.7c-1.4,1.6-2.9,3.1-4.4,4.5l0.7,32.3l0,0.8l0.9,0.3l59.8,19.5c-0.2-0.3-0.3-0.6-0.5-0.9L237,123.7L237.8,87.7z"
		/>
	<path d="M178.3,137.8l0-0.8l-0.9-0.2l-59.5-16.1c0,0.1,0,0.2-0.1,0.3l57.7,17.6l-1.2,51.9l0,1.4l1.6,0.6l123.8,45.1l0-7.4
		L179.5,189L178.3,137.8z"/>
	<path d="M184.8,132.1l1.2,51.1l0,0.8l0.9,0.3L298.5,221l-109.6-38.5l1.2-51.9l0-1.5l-1.7-0.6l-67-21.3c-0.7,2.1-1.2,4.2-1.8,6.2
		L184.8,132.1z"/>
	<polygon points="130.5,246.3 129.3,195 129.3,194.2 128.3,193.9 105.2,187.7 105.2,189.3 126.5,195.8 125.3,247.7 125.2,249.1 
		126.8,249.6 299.6,313.7 299.6,306.3 	"/>
	<polygon points="135.8,189.4 137,240.5 137,241.3 137.8,241.6 299.6,298.1 299.6,297.9 139.9,239.8 141,187.9 141.1,186.4 
		139.3,185.8 105.2,175 105.2,180.6 	"/>
	<path d="M105.2,311.2l0,5.1l125.3,46.5c5.2-0.5,10.4-1,15.4-1.6L105.2,311.2z"/>
	<path d="M105.2,303.8l157.7,55.1c0,0,0,0,0,0l-157.7-57.4L105.2,303.8z"/>
	<polygon points="543.8,100.9 542.9,101.2 542.8,102 541.6,153.2 448.3,185.3 448.3,192.7 545.3,156.7 546.9,156.1 546.8,154.7 
		545.6,102.8 613.3,82.2 	"/>
	<path d="M531.1,93.4l0,1.5l1.2,51.9l-79.9,28.5l81.9-26.7l0.9-0.3l0-0.8l1.2-51.1l72.3-20.7c-1.8-1.8-3.7-3.6-5.8-5.1l-70,22.3
		L531.1,93.4z"/>
	<path d="M591,160l0,0.8l-1.2,51.2l-141.4,48.4l0,7.9l145.1-52.8l1.6-0.6l0-1.4l-1.2-51.9l46.1-14.1c-0.1-0.2-0.3-0.4-0.4-0.6
		l-47.6,12.8L591,160z"/>
	<path d="M580.9,151.6l-1.7,0.6l0,1.5l1.2,51.9L470.8,244l111.6-36.6l0.9-0.3l0-0.8l1.2-51.1l51.5-14.7c-0.8-1.6-1.5-3.5-2.3-5.6
		L580.9,151.6z"/>
	<path d="M488,86.2l0-1.4L487.6,71c-1.6,1.3-3.2,2.7-4.7,4.2l-0.2,8.2l-8.8,3c-1.3,2-2.5,4.1-3.7,6.4l16.1-6L488,86.2z"/>
	<polygon points="642.4,272.7 642.7,272.5 642.8,220.5 642.7,218.8 642.8,218.8 642.8,216.4 640.9,216.9 639.9,217.2 639.9,218 
		638.7,269.3 448.3,336.9 448.4,344.6 	"/>
	<polygon points="631.4,264.6 632.2,264.3 632.2,263.5 633.4,212.4 642.8,209.7 642.8,204.7 629.9,208.8 628.1,209.4 628.2,210.9 
		629.4,262.8 456.8,325.6 	"/>
	<path d="M642.7,341.7L542,377.5c0.6,0,1.2,0,1.8,0c7,0,14.1-0.5,21.2-1.5l77.7-28.8L642.7,341.7z"/>
	<path d="M642.7,334.2l0-2L522.6,376c0.2,0,0.3,0,0.5,0.1L642.7,334.2z"/>
	<polygon points="520.2,133.6 521.8,133.1 521.8,131.7 520.5,79.8 586.9,59.6 586.8,59.6 518.7,77.9 517.8,78.2 517.7,79 
		516.5,130.2 448.3,153.7 448.3,160.3 	"/>
	<path d="M509.2,125.6l0.9-0.3l0-0.8l1.2-51.1L578.7,54l-6.8-4.7l-64.2,20.5l-1.7,0.6l0,1.5l1.2,51.9l-53.1,19
		c-0.2,0.3-0.4,0.7-0.5,1L509.2,125.6z"/>
	<path d="M569.9,191.8l0-1.4l-1.2-51.9l61.3-18.7c0-0.1,0-0.1,0-0.2l-63.2,17l-0.9,0.2l0,0.8l-1.2,51.2l-116.4,39.8l0,7.3l120-43.7
		L569.9,191.8z"/>
	<path d="M555.8,128.6l-1.7,0.6l0,1.5l1.2,51.9l-107,37.5v0.1l109-35.7l0.9-0.3l0-0.8l1.2-51.1l68.9-19.7c-0.5-2-1.2-4.1-1.9-6.3
		L555.8,128.6z"/>
	<polygon points="617.3,249.6 618.9,249.1 618.8,247.7 617.6,195.8 642.8,188.1 642.8,186.6 615.8,193.9 614.8,194.2 614.8,195 
		613.6,246.3 448.3,305 448.3,312.3 	"/>
	<polygon points="607.1,241.3 607.1,240.5 608.3,189.4 642.8,179.5 642.8,173.7 604.8,185.8 603.1,186.4 603.1,187.9 604.3,239.8 
		448.3,296.6 448.3,296.8 606.3,241.6 	"/>
	<path d="M642.7,314.9l0-5.1l-160.1,56.8c3.6,1.2,7.4,2.3,11.3,3.4L642.7,314.9z"/>
	<polygon points="642.7,302.5 642.7,300.1 480.6,359.1 	"/>
</g>
</svg>
