<?xml version="1.0" encoding="utf-8"?>
<!-- Generator: Adobe Illustrator 25.3.0, SVG Export Plug-In . SVG Version: 6.00 Build 0)  -->
<svg version="1.1" id="Layer_1" xmlns="http://www.w3.org/2000/svg" xmlns:xlink="http://www.w3.org/1999/xlink" x="0px" y="0px"
	 viewBox="0 0 750.2 400.1" style="enable-background:new 0 0 750.2 400.1;" xml:space="preserve">
<g>
	<polygon points="643.3,166.6 643.3,161.7 643.3,161.7 	"/>
	<path d="M288,128c-0.2-0.9-0.4-1.8-0.6-2.9c-1.5-7.3-3.8-18.4-8.6-29.2C272.2,81,262.9,71,251,66.4l-2.1-0.6
		c-1.4,5.4-3.8,11.4-7.4,17c-8.5,13.2-21.6,20.2-38,20.3l-1.9,0c-16.2,0-29.3-6.9-37.9-19.9c-3.9-5.8-6.3-12-7.7-17.5l-1.9,0.5
		C141,71.3,131.9,80.8,125.4,96c-4.8,11.3-7.3,23-8.8,30l-0.5,2.2c-2.7,12.4-8.8,20.2-10.6,22.3c-0.1,0.1-0.2,0.2-0.4,0.4l0,5.8
		h194.6l0-5.4c-0.4-0.1-0.9-0.4-1.2-0.7C296.8,148.3,290.7,140.6,288,128z"/>
	<path d="M251.6,49.4l-0.3,0.1c-0.1,2.5-0.5,9.1-1.8,15.1l2.4,0.9c12.8,5,19.8,13.4,27.8,29.1c5.5,10.8,7.3,22.4,8.8,29.8
		c0.2,1,0.4,2,0.6,2.9c2.6,11.9,8.4,19.3,9.8,21l50,9.6l16.2-74.2L251.6,49.4z"/>
	<path d="M105.6,148.1c1.8-2.1,7.4-9.4,9.8-20.9l0.5-2.1c1.5-7.1,4-19,9-30.6c6.6-15.6,14-22.6,25.7-28.1l5.1-2.3l-0.5-1.5
		c-1.4-6.1-1.7-11-1.7-13.2c0-0.1,0-0.1,0-0.2L40.1,83.7l16.2,74.2L105.6,148.1z"/>
	<path d="M510.4,48.1L510.4,48.1c-1.5,0.1-2.9,0.2-4.2,0.3c-1.9,0.1-3.5,0.2-4.8,0.3c-1.1,0.1-1.6,0.1-1.8,0.2l-0.1,0l-14,4.3
		L384.7,83.7l16.4,73.4l47.9-9.3c0.1-0.2,0.3-0.4,0.5-0.6c0.7-0.9,1.7-2.3,2.8-4.1c2-3.3,4.7-8.8,6.2-15.9c0.2-1,0.4-2.1,0.7-3.3
		c1.5-7.3,3.5-17.2,8-27.6c6.4-14.8,17.1-25.5,29.6-32.8l24.4-15.6c-2.1,0.1-7.5,0.2-9.4,0.3L510.4,48.1z"/>
	<path d="M593.6,48.7l-0.2,0c-3.3-0.2-13.6-0.6-21.7-0.9l22.8,15.6c12.4,7.3,23.3,18.5,29.7,33.4c4.5,10.4,6.6,20,8.1,27.3
		c0.2,1.2,0.5,2.3,0.7,3.3c1.5,7.1,4.2,12.6,6.2,15.9c1,1.7,2.1,3.3,2.9,4.3c0.3,0.1,3.3,0.7,4,0.8c1.2,0.2,1.7,0.3,1.9,0.4
		l45.7,8.4l16.4-73.4L593.6,48.7z"/>
</g>
</svg>
