<?xml version="1.0" encoding="utf-8"?>
<!-- Generator: Adobe Illustrator 25.3.0, SVG Export Plug-In . SVG Version: 6.00 Build 0)  -->
<svg version="1.1" id="Layer_1" xmlns="http://www.w3.org/2000/svg" xmlns:xlink="http://www.w3.org/1999/xlink" x="0px" y="0px"
	 viewBox="0 0 750.2 400.1" style="enable-background:new 0 0 750.2 400.1;" xml:space="preserve">
<g>
	<path d="M354.4,260.9c-0.3-2.3-0.7-4.7-1-7.1l-2.1,0.8l0,0l-0.1,0l-0.1,0l0,0l-15.8-2l1.3,7.1l15.6,1.9l0,0l0.1,0l0.1,0l0,0
		L354.4,260.9z"/>
	<path d="M350.5,248.4L350.5,248.4l2-0.7c-0.3-2.1-0.7-4.2-1-6.4l-1.6,0.6l-16.8-2l1.1,6.5L350.5,248.4z"/>
	<path d="M328.5,213.7l3.3,19.1l17.1,1.9l0,0l0.1,0l0.1,0l0,0l1.2-0.5c-1-6.1-2.1-12.3-3.2-18.6l-0.4,0.1L328.5,213.7z"/>
	<path d="M353.3,270.8l-15.1-1.8l3.8,21.8c5.1-0.6,10.2-1.3,15.4-2.2c-0.3-5.2-0.9-11.5-1.8-18.6L353.3,270.8z"/>
	<path d="M116.4,261.7L116.4,261.7L116.4,261.7l15.8-1.9l1.2-7.1l-16,2l0,0l-0.1,0l-0.1,0l0,0l-2.4-0.9c-0.4,2.4-0.7,4.8-1,7.1
		L116.4,261.7L116.4,261.7L116.4,261.7z"/>
	<path d="M118.1,248.4l16.4-2l1.1-6.5l-16.9,2.1l-1.9-0.7c-0.3,2.1-0.7,4.3-1,6.4L118.1,248.4L118.1,248.4z"/>
	<path d="M119.5,234.6L119.5,234.6L119.5,234.6l0.1,0.1l0,0l17.2-1.9l3.3-19l-18.3,2l-0.7-0.2c-1.1,6.3-2.2,12.5-3.2,18.6
		L119.5,234.6z"/>
	<path d="M130.6,268.9l-15.3,1.9l-2.7-1c-0.9,7.2-1.5,13.5-1.8,18.7c5.4,0.9,10.7,1.7,16,2.3L130.6,268.9z"/>
	<path d="M633,253.5l-3,1.1l0,0l-0.1,0l-0.1,0l0,0l-13.9-1.7l1.3,7.1l13.6,1.7l0,0l0.1,0l0.1,0l0,0l3.1-1.1
		C633.7,258.3,633.3,255.9,633,253.5z"/>
	<path d="M629.2,248.4l2.8-1.1c-0.3-2.1-0.7-4.2-1-6.3l-2.5,0.9l-14.8-1.8l1.1,6.5L629.2,248.4L629.2,248.4z"/>
	<path d="M612.4,232.9l15.2,1.7l0,0l0.1,0l0.1,0l0,0l2.1-0.8c-1-6-2.1-12.3-3.2-18.5l-1.2,0.4l-16.3-1.8L612.4,232.9z"/>
	<path d="M618.8,269.2l3.8,21.4c4.8-0.6,9.6-1.3,14.5-2.1c-0.3-5.3-1-11.7-1.9-19l-3.3,1.2L618.8,269.2z"/>
	<path d="M396.7,261.7L396.7,261.7L396.7,261.7l12.8-1.6l1.2-7.1l-13,1.6l0,0l-0.1,0l-0.1,0l0,0l-3.3-1.2c-0.4,2.4-0.7,4.8-1,7.1
		L396.7,261.7L396.7,261.7L396.7,261.7z"/>
	<path d="M398.4,248.4L398.4,248.4l13.5-1.6l1.1-6.5l-13.9,1.7l-2.8-1c-0.3,2.1-0.7,4.3-1,6.4L398.4,248.4z"/>
	<path d="M397.5,233.7l2.4,0.9l0,0l0.1,0l0.1,0l0,0l14.2-1.5l3.3-19l-15.3,1.7l-1.5-0.5C399.6,221.4,398.5,227.6,397.5,233.7z"/>
	<path d="M408,269.3l-12.3,1.5l-3.5-1.3c-0.9,7.3-1.6,13.7-1.9,19.1c4.7,0.8,9.4,1.5,14,2L408,269.3z"/>
</g>
</svg>
