<?xml version="1.0" encoding="utf-8"?>
<!-- Generator: Adobe Illustrator 25.3.0, SVG Export Plug-In . SVG Version: 6.00 Build 0)  -->
<svg version="1.1" id="Layer_1" xmlns="http://www.w3.org/2000/svg" xmlns:xlink="http://www.w3.org/1999/xlink" x="0px" y="0px"
	 viewBox="0 0 750.2 400.1" style="enable-background:new 0 0 750.2 400.1;" xml:space="preserve">
<g>
	<path d="M139.6,216.8l7.6-43.8l-18-0.2l-0.1,0c-2.7,14.2-5.5,29.1-8.1,43.6l0.8,0.3L139.6,216.8z"/>
	<path d="M417,216.8l7.6-43.8l-16-0.2c-2.8,14.2-5.6,29.2-8.1,43.8l0.2,0.1L417,216.8z"/>
	<path d="M339.2,172.8l-17.8,0.2l7.7,43.8l18.3-0.2C344.7,202,341.9,187,339.2,172.8z"/>
	<path d="M618.8,172.8l-16.9,0.2l7.7,43.8l16.7-0.2l0.6-0.2C624.3,201.9,621.5,187,618.8,172.8z"/>
</g>
</svg>
