<?xml version="1.0" encoding="utf-8"?>
<!-- Generator: Adobe Illustrator 25.3.0, SVG Export Plug-In . SVG Version: 6.00 Build 0)  -->
<svg version="1.1" id="Layer_1" xmlns="http://www.w3.org/2000/svg" xmlns:xlink="http://www.w3.org/1999/xlink" x="0px" y="0px"
	 viewBox="0 0 750.2 400.1" style="enable-background:new 0 0 750.2 400.1;" xml:space="preserve">
<g>
	<path d="M326.6,111.1c-2.1,0.4-7.5,1.3-15.7,2.3l3,17.3c18.8,29.4,25.8,85.2,25.8,85.2s-5.2-21.4-17.6-38.5l9.2,52.6h18.3
		C342.2,186.1,331.7,134.6,326.6,111.1z"/>
	<path d="M146.2,178.1c-12.1,17-17.2,37.8-17.2,37.8s6.9-54.5,25.2-84.1l3.1-17.9c-8.4-0.9-13.9-1.7-15.9-2
		c-5.1,23.9-15.5,74.7-22.8,118.1h18.7L146.2,178.1z"/>
	<path d="M434.8,113.6c-7.3-0.7-12-1.4-13.9-1.7c-5.1,23.9-15.5,74.7-22.8,118.1h16.6L434.8,113.6z"/>
	<path d="M606.2,111.1c-2.1,0.4-7.1,1.2-14.8,2.2L611.9,230h17.3C621.8,186.1,611.3,134.6,606.2,111.1z"/>
</g>
</svg>
