<?xml version="1.0" encoding="utf-8"?>
<!-- Generator: Adobe Illustrator 25.3.0, SVG Export Plug-In . SVG Version: 6.00 Build 0)  -->
<svg version="1.1" id="Layer_1" xmlns="http://www.w3.org/2000/svg" xmlns:xlink="http://www.w3.org/1999/xlink" x="0px" y="0px"
	 viewBox="0 0 120 105" style="enable-background:new 0 0 120 105;" xml:space="preserve">
<style type="text/css">
	.st0{fill:#004A98;}
	.st1{fill:#FFFFFF;}
	.st2{fill:none;stroke:#FFFFFF;stroke-width:0.2439;}
	.st3{fill:#FFC629;}
	.st4{fill:#FFFFFF;stroke:#004A98;stroke-width:0.02195;}
	.st5{fill:#DEDFF0;}
	.st6{fill:#004A98;stroke:#FFFFFF;stroke-width:1.2196;}
	.st7{fill:#004A98;stroke:#004A98;stroke-width:0.7318;}
</style>
<g>
	<path class="st0" d="M101.9,31.2v-0.9h3.1c0,0,0.4,3.1,3,5.5h-7.1c0,0,0.4-1.7-1-1.7s-1,1.2-1,1.2s-0.2,0.6,1.4,0.8
		s9.3,0.6,9.3,7.3s-7.7,6.7-8,6.7s-4.5,0.2-6.2-2.6l-1.4,1h-5.3c0,0,3.2-5.1,3.8-7.8h4.4c0,0-0.8,4,3,4c0,0,2.7,0.1,2.7-2.5
		c0-1.8-3.1-2.4-3.1-2.4s-5.6-0.3-5.6-5s4.8-4.3,4.8-4.3S99.8,30.6,101.9,31.2z"/>
	<ellipse class="st0" cx="64.8" cy="50.7" rx="42.9" ry="29.8"/>
	<ellipse class="st1" cx="64.6" cy="50.7" rx="41.5" ry="28.1"/>
	<ellipse class="st0" cx="64.6" cy="50.7" rx="40.5" ry="27.2"/>
	<path class="st0" d="M89.6,21.9c-7.3-2.8-15.7-4.4-24.7-4.4c-9.4,0-18.2,1.7-25.7,4.8l2.7,8.2c6.5-2.9,14.4-4.6,23-4.6
		c8.2,0,15.8,1.6,22.1,4.2L89.6,21.9z"/>
	<path class="st2" d="M88.7,22.1C80.1,19.4,73.8,18,64.9,18c-9.4,0-17.4,1.8-24.9,4.5l2.3,7.2c6.5-2.9,14.1-4.5,22.7-4.5
		c8.2,0,15.4,1.4,21.7,4.1L88.7,22.1z"/>
	<path class="st0" d="M54.3,79.5c0,0-0.6,1.2,0.4,1.6c1,0.5,1.6,1,2,1.2c0.3,0.1,2.5,0.7,3.8-0.1c1.3-0.8,2.3-1.9,2.3-1.9L54.3,79.5
		z"/>
	<path class="st1" d="M82.6,48.4l0.1-12.9c0-1,1.5-1.1,1.5-1.1v-3.5c-2.3,0.1-6.9,0.4-6.9,0.4v3.2h1c1,0,0.9,0.7,0.9,0.7v4.2
		l-3.5-8.3h-8v3.3h1.1c0,0,0.7,0,0.7,0.9v9.1v0.3c0,0,0,0.6-1,0.7c-1,0.1-1.5,0.3-1.5-0.6l0,0V31.1H52.6v3.4c0,0,0.3,0,0.7,0
		s0.4,0.4,0.4,0.4v3.9l-3,0.3v-3.3c0-1.3,1.2-1.4,1.2-1.4v-3.3h-8.6v3.4c0,0,0.5,0,1.2,0s0.6,0.5,0.6,0.5v11.5v3.3
		c0,0,0.2,0.9-1.3,1.2v3.5l0,0l8.1-2.1V49c-1.2,0.5-1.2-0.5-1.2-0.5v-5l3-0.6v4.8c0,0,0.3,0.9-1.3,1.2v3.5l8.6-1.9l0,0
		c6.8-1.5,6.7-1.6,13.4-2l0,0v-3.3C73,45.7,73,44.5,73,44.5l0,0v-5.8l4.2,9.8L82.6,48.4L82.6,48.4z"/>
	<path class="st1" d="M88.9,30.5c0,0,6.1-0.5,6.1,7c0,7.2-5.7,7-6.1,7s-5.6,0-5.6-6.6C83.2,31.3,87.3,30.5,88.9,30.5z"/>
	<path class="st1" d="M102.4,30.3v-0.9h3.1c0,0,0.4,3.1,3,5.5h-7.1c0,0,0.4-1.7-1-1.7s-1,1.2-1,1.2s-0.2,0.6,1.4,0.8
		s9.3,0.6,9.3,7.3s-7.7,6.7-8,6.7s-4.5,0.2-6.2-2.6l-1.2,1h-5.3c0,0,3.2-5.1,3.8-7.8h4.4c0,0-0.8,4,3,4c0,0,2.7,0.1,2.7-2.5
		c0-1.8-3.1-2.4-3.1-2.4s-5.6-0.3-5.6-5s4.8-4.3,4.8-4.3S100.4,29.6,102.4,30.3z"/>
	<path class="st1" d="M63.7,25.2c0,0,3.3-0.2,3.3,3.2c0,2.6-2.6,3-3.3,3c-1.8,0-3.4-0.8-3.4-3.1C60.3,25.1,63.7,25.2,63.7,25.2z"/>
	<path class="st0" d="M83.2,47.8l0.1-12.9c0-1,1.5-1.1,1.5-1.1v-3.5c-2.3,0.1-6.9,0.4-6.9,0.4v3.2h1c1,0,0.9,0.7,0.9,0.7v4.2
		l-3.5-8.3h-8v3.3h1.1c0,0,0.7,0,0.7,0.9v9.1v0.3c0,0,0,0.6-1,0.7c-1,0.1-1.5,0.3-1.5-0.6l0,0V30.5H53.2v3.4c0,0,0.3,0,0.7,0
		s0.4,0.4,0.4,0.4v4.2l-3,0.3v-3.3c0-1.3,1.2-1.4,1.2-1.4v-3.3H44v3.4c0,0,0.5,0,1.2,0s0.6,0.5,0.6,0.5v11.5v3.3
		c0,0,0.2,0.9-1.3,1.2v3.5l0,0l8.1-2.1v-3.4c-1.2,0.5-1.2-0.5-1.2-0.5v-5l3-0.6v4.8c0,0,0.3,0.9-1.3,1.2v3.5l8.6-2.1l0,0
		c6.8-1.5,6.7-1.6,13.4-2l0,0v-3.3c-1.5,0.4-1.5-0.8-1.5-0.8l0,0v-5.8l4.2,9.8L83.2,47.8L83.2,47.8z"/>
	<path class="st0" d="M89.5,29.8c0,0,6.1-0.5,6.1,7c0,7.2-5.7,7-6.1,7s-5.6,0-5.6-6.6S88,29.8,89.5,29.8z"/>
	<path class="st1" d="M61.7,33.9c0,0,0.9-0.2,0.9,0.7s0,11.1,0,11.1s0,0.6-1.1,0.7c-1.1,0.1-1.5,0.4-1.5-0.6V35.2c0,0,0-1,1-1.2
		C61,34,60.1,34.2,61.7,33.9z"/>
	<path class="st0" d="M60.9,34.7c0,0,0.9-0.2,0.9,0.7s0,11.1,0,11.1s0,0.2-1.1,0.3S59.5,47,59.5,46v-9.8c0,0-0.4-1.1,0.6-1.3
		C60.2,34.9,59.3,35,60.9,34.7z"/>
	<path class="st0" d="M103.1,29.6v-0.9h3.1c0,0,0.4,3.1,3,5.5H102c0,0,0.4-1.7-1-1.7s-1,1.2-1,1.2s-0.2,0.6,1.4,0.8s9.3,0.6,9.3,7.3
		s-7.7,6.7-8,6.7s-4.5,0.2-6.2-2.6l-1.2,1H90c0,0,3.2-5.1,3.8-7.8h4.4c0,0-0.8,4,3,4c0,0,2.7,0.1,2.7-2.5c0-1.8-3.1-2.4-3.1-2.4
		s-5.6-0.3-5.6-5s4.8-4.3,4.8-4.3S101,29,103.1,29.6z"/>
	<path class="st1" d="M46.7,77.7c0,0,0.4-2.2-1.7-2.2c0,0-1,0.2-1.4,0.3c0,0-1.7-0.9-3.4,0.1s-1.7,2.4-1.1,3.3c0,0-2.1,1.1-0.9,2.7
		c0,0-1.1,2.1-0.4,3c0.7,1,2.7,2.8,4.2,2.1c0,0,1.3-0.6,1.6-1.3c0,0,1.1,1.1,2.6,0.1c0,0,0.7,0.6,2.2-0.3c0,0,4.4-2.1,0.4-4.9l0.5-1
		l-0.8-1.1C48.4,78.6,47.5,77.2,46.7,77.7z"/>
	<path class="st0" d="M47.1,77.4c0,0,0.1-1.9-1.8-2.1c0,0-0.7,0-1.6,0.2c0,0-0.6-0.5-2.1-0.5c-1.4,0-4,1.6-3.1,3.9
		c0,0-1.9,1.3-0.7,3.1c0,0-1.4,2.1-0.1,3.6c1.2,1.6,4.4,3.1,5.9,0.3c0,0,1.5,1.5,2.7-0.4c0,0-1.5,1.2-2.8-0.4c0,0-0.7,1.6-2.3,1.6
		s-2.5-1.3-3-2.1c-0.5-0.8-0.1-2.5,0.4-2.9c0,0-1.7-0.7,1.1-2.5c0,0-1.3-1.9,0.5-2.8s2.7-0.8,3.2-0.2c0,0,1.2-0.5,1.6-0.5
		c0.4,0,1.2,0.2,1.2,1.2c0,0,0.4,1-1.1,1.4L43.7,79c0,0-0.5,0.9,0.2,0.5c0.7-0.3,1.6-0.8,2.1-1c0.4-0.2,1.3-0.8,1.7-0.5
		s0.6,0.3-0.3,0.8c-1,0.5-3.9,2.1-3.9,2.1v1c0,0,3.3-2.3,4.6-2.9c0,0,0.8-0.3,0.1-1.1C47.5,77.2,47.1,77.4,47.1,77.4z"/>
	<polygon class="st0" points="46.5,81.2 46,80.9 48.8,79.3 	"/>
	<path class="st0" d="M49.1,79.7l-1.3,1.1l0.3,0.2c0,0,0.3-0.3,0.6,0.1s1.2,0.6,1.2,2.1c0,1.4-1.4,2.4-2.1,2.5c0,0,3-0.2,3-2.5
		s-2.1-2.7-2.1-2.7L49.1,79.7z"/>
	<path class="st0" d="M18.4,41.9L9.3,27.6l0.5-0.4c0,0,4.2,3.9,10.1,3.9h14.6c0,0,8.7-0.2,8.7,8.4c0,0,0.5,5.9-4.4,8.2
		c0,0,1,0.5,1.1,1.6s0.4,2.3,1.1,2.3c0.7,0,1.7-1.9,1.5-3.3l2.8-0.8c0,0,0.2,1,0.2,2.3s-0.4,6.8-6.6,8c0,0-2.5,0.4-3.8-1.8
		s-2.2-3.9-2.2-3.9s-0.4-1.1-2-1.1c-1.6,0-2,1.2-2,1.2v7.4c0,0,0.2,1.3,1.5,0.9v3c0,0-5.2,4.1-9.9,10l-0.2-6.3c0,0,2.9-2,2.9-4.4
		c0-2.5-0.1-25-0.1-25S20.4,38.1,18.4,41.9z"/>
	<path class="st1" d="M19.2,41.1l-9.1-14.3l0.5-0.4c0,0,4.2,3.9,10.1,3.9h14.6c0,0,8.7-0.2,8.7,8.4c0,0,0.5,5.9-4.4,8.2
		c0,0,1,0.5,1.1,1.6s0.4,2.3,1.1,2.3c0.7,0,1.7-1.9,1.5-3.3l2.8-0.8c0,0,0.2,1,0.2,2.3s-0.4,6.8-6.6,8c0,0-2.5,0.4-3.8-1.8
		s-2.2-3.9-2.2-3.9s-0.4-1.1-2-1.1c-1.6,0-2,1.2-2,1.2v7.4c0,0,0.2,1.3,1.5,0.9v3c0,0-5.2,4.1-9.9,10l-0.2-6.3c0,0,2.9-2,2.9-4.4
		c0-2.5-0.1-25-0.1-25S21.2,37.3,19.2,41.1z"/>
	<path class="st0" d="M19.9,40.4l-9.1-14.3l0.5-0.4c0,0,4.2,3.9,10.1,3.9H36c0,0,8.7-0.2,8.7,8.4c0,0,0.5,5.9-4.4,8.2
		c0,0,1,0.5,1.1,1.6s0.4,2.3,1.1,2.3c0.7,0,1.7-1.9,1.5-3.3l2.8-0.8c0,0,0.2,1,0.2,2.3s-0.4,6.8-6.6,8c0,0-2.5,0.4-3.8-1.8
		s-2.2-3.9-2.2-3.9s-0.4-1.1-2-1.1c-1.6,0-2,1.2-2,1.2v7.4c0,0,0.2,1.3,1.5,0.9v3c0,0-5.2,4.1-9.9,10l-0.2-6.5c0,0,2.9-2,2.9-4.4
		c0-2.5-0.1-25-0.1-25S21.9,36.6,19.9,40.4z"/>
	<path class="st0" d="M64.8,24.6c0,0,3.3-0.2,3.3,3.2c0,2.6-2.6,3-3.3,3c-1.8,0-3.4-0.8-3.4-3.1C61.4,24.5,64.8,24.6,64.8,24.6z"/>
	<path class="st3" d="M45.2,53.2v-2.1c1.6-0.1,1.2-1.6,1.2-1.6l0.1-14.8c0-1.6-1.7-1.3-1.7-1.3v-1.9h7.1v1.9c0,0-1.2,0.2-1.2,1.7
		s0,4.5,0,4.5s2.4-0.1,4.5-0.5v-4.8c0,0,0.2-1-0.7-1H54v-1.8h7.2v1.8c0,0-1.8,0.1-1.8,1.8c0,1.6,0,10.9,0,10.9s-0.2,1.5,1.1,1.2
		l0.6-0.1v2l-7,1.8V49c0,0,1.1-0.2,1.1-1.5s0-6,0-6l-4.5,1v6c0,0,0,1.3,1.2,1v1.9L45.2,53.2z M82.5,47l0.2-12.4
		c0-1.4,1.5-1.4,1.5-1.4v-2.1l-5.5,0.2v1.9h0.7c1.2,0,1.2,1.2,1.2,1.2v6.4h-0.5l-4.2-9.6h-6.6v2h0.6c0,0,1.2,0.2,1.2,1.4
		c0,1.3,0,1.2,0,9.3c0,1.6-0.9,1.4-2.6,1.8c-1.6,0.3-1.4-1.6-1.4-1.6V31.5H62v1.8c0,0,1.4-0.2,1.4,1.2s0,11.1,0,11.1
		s0.2,1.4-1.4,1.5v1.8c0,0,7-1.5,12.6-1.8v-1.8c0,0-1.6,0.2-1.6-1.6V36l0.6-0.2l4.9,11.1L82.5,47z M84.7,36.7c0,6.6,4.6,6.4,4.6,6.4
		c1.2,0,5.6-0.1,5.6-6.4S90,30.6,90,30.6S84.7,30.2,84.7,36.7z M100,29.7c-1.4,0-4.1,0.4-4.1,3.4s1.5,3.4,5.3,4.5
		c3.8,1,3.3,2.9,3.3,2.9s0.1,3.3-3.3,3.3c-4.6,0-4-4-4-4h-3c-1.1,3.5-3,6.2-3,6.2h3.9l1.4-1.3c1.1,1.8,2.7,3,6.4,3c3.8,0,7-2.1,7-6
		s-2.9-5.1-4.1-5.6s-5.2-1.1-5.2-1.1s-1.4,0-1.4-1.3c0-2,1.8-1.9,1.8-1.9c1.6,0,1.7,1.8,1.7,1.8h4.8c-1.8-2.4-2-4.2-2-4.2h-1.8
		l-0.1,1.3C102.2,30.1,101.4,29.7,100,29.7z M25.6,60.5c0,3.7-2.8,5.3-2.8,5.3v3.8c2.7-3.4,8.3-8.2,8.3-8.2v-1.8
		c-1.4,0-1.4-1.6-1.4-1.6v-8c0,0,1-1.4,2.8-1.4c2.1,0,2.7,1.2,2.7,1.2s1.8,3.4,2.7,4.5s2.7,2.1,6-0.3c3.2-2.4,2.7-7.1,2.7-7.1
		l-1.7,0.5c0,1-0.7,3.4-2.3,3.4c-1.5,0-1.6-1.9-1.9-3.1c-0.3-1.2-1.8-1-1.8-1v-0.6c0,0,5.4-1.4,5.4-8.1c0-7.5-7.6-7.6-7.6-7.6H22
		c-5.9,0.3-9.3-2.8-9.3-2.8l7.2,11.3c2.4-3.6,5.4-3.8,5.4-3.8S25.6,56.8,25.6,60.5z M62.1,27.6c0,2.2,1.9,2.5,2.7,2.5
		c0.8,0,2.6-0.4,2.6-2.6s-2.6-2.2-2.6-2.2S62.1,25.4,62.1,27.6z"/>
	<path class="st0" d="M48.4,74.6c0,0-0.3,0.8,0.3,1.4c0.5,0.6,1.2,1,1.8,2.1s1,1.2,1.7,1.4c0.7,0.1,1.4,0.4,2.1,0.1L48.4,74.6z"/>
	<path class="st0" d="M29.9,34.6V45c0,0,8-0.4,8-6.3C37.9,32.9,29.9,34.6,29.9,34.6z"/>
	<path class="st1" d="M30.7,35.2v9c0,0,6.4-0.6,6.4-5.6C37.1,34.2,30.7,35.2,30.7,35.2z"/>
	<path class="st0" d="M30.6,35.9v9c0,0,6.4-0.6,6.4-5.6C37,34.9,30.6,35.9,30.6,35.9z"/>
	<path class="st0" d="M89.9,31.9c0,0,2-0.2,2,4.8c0,4.8-1.1,5.2-2.3,5.2c-1.6,0-2-2.9-2-5.1C87.7,34.6,87.9,32.1,89.9,31.9z"/>
	<path class="st4" d="M89.9,32.5c0,0,1.3-0.3,1.3,4.2c0,4-0.7,4.4-1.6,4.4s-1.2-2.1-1.2-4.3C88.4,34.6,88.3,32.5,89.9,32.5z"/>
	<path class="st0" d="M89.4,33.2c0,0,1.3-0.3,1.3,4.2c0,4-0.7,4.4-1.6,4.4s-1.2-2.1-1.2-4.3S87.8,33.2,89.4,33.2z"/>
	<path class="st0" d="M69.3,49.1c0,0-0.1-0.5-1.5-0.6s-3.4-0.6-3.4-3.4c0-2.7,1.1-6,3.1-6.6c0,0,0.8-0.1,1.8,0.3
		c1,0.5,3.2,1.8,4,4.7c0,0,0.5,1.4,0.3,1.8c-0.2,0.3-0.2,0.5,0,0.8s1.7,1.6,1.7,1.6l-4.9,2.5"/>
	<path class="st0" d="M76.7,48.4L76.5,47c0,0,1.4,0.8,2.8-1c1.4-1.7,5.1-7.4,8.1-7.4c0,0,1.8,0.2,2.2,1.1c0.3,0.9,1,2.3,0.7,4.2
		s-1.3,6.4-8.2,7.7L76.7,48.4z"/>
	<path class="st0" d="M43.7,55.5c0,0-0.9-5,0.4-5.8c0,0,0.6-0.4,1.5,0.6s3.1,3.7,3.1,3.7L43.7,55.5z"/>
	<path class="st0" d="M55.3,79.3c0,0,0.3,1,2.5,1c2.1,0,3.3-0.8,3.3-1.9c0-1.2-1.2-1.6-1.8-1.6s-3.4,0.9-4.4,1.6"/>
	<path class="st5" d="M59.8,77.9c0,0-1.1-0.4-3.7,0.6c0,0-0.8,0.5,0.1,0.8c0.9,0.3,4.1,0.2,4.4-1c0,0-0.1-0.2-0.3-0.1
		s-1.2,0.4-1.9,0.4L59.8,77.9z"/>
	<path class="st5" d="M51.1,69.5c0,0-1.4,0.1-2.8-2.6c-1.4-2.7-3.4-8.9-4.1-12.4c0,0-0.3-2.5-0.1-4.2c0,0,0.5-1.2,1-0.4
		s4.8,7.2,8.5,10.7c0,0,3,2.3,3.1,6.2l0.3,0.1c0,0,0.1-1.2,0.2-1.7c0.1-0.5,0.8-1.7-0.4-2.7l-1.3-1c0,0,0.4-1,2.2-1
		c0,0-0.8-5.9,1.2-9c0,0,1-0.8,1,0.1c0.1,0.8,1,2.7,1.3,3.1c0.3,0.4,2.3,2.1,2.1,3.4c0,0,0.7-0.7,0.6-1.4c0,0,0.1-0.2,0.5-0.2
		c0.3,0,1.4,0.1,2.1-0.6l-0.7-0.2c0,0,1.6-1.6,2.1-2.3s2.1-3.8,6-5.4c0,0-1.8-0.3-3.2,0.8c0,0-0.4,0.2-0.7-0.2c-0.3-0.4-0.8-1-1.4-1
		c-0.7-0.1-3.2,0.1-3.1-2.6c0.1-2.7,0.9-6.3,2.5-6.3c0,0,1.5,0.3,2.3,1s2.7,2.8,2.7,5.5l-0.4,0.2l1.2,1.8l-0.3,0.3
		c0,0,1.8-0.1,3.1,0.6c0,0-0.5,0.4,0.3,0.5s1.4,0.1,2.1-0.8c0.8-0.8,2-2.4,2.7-3.6c0.7-1.2,2.9-4.9,6.2-4.9c2.4,0,1.8,3.2,1.8,3.2
		s0.5,7-8.3,8.6c0,0,1.6,1,2.3,3.5c0,0,0.3-0.5,0.1-1c0,0-0.4-0.4-0.1-0.6c0.3-0.2,0.3-0.3,0.8-0.4c0.4-0.1,1.2,0.3,1.5-0.3
		c0.3-0.5,0.3-0.5,0.9-0.5c0.6,0.1,2,0.2,2.7-0.5c0,0,0.5-0.3,1.3-0.3s3.4,0,3.4,0s4.7,0.4,4.7,4.4s-0.1,4.7-0.8,6.5
		c-0.7,1.8-1.2,3.5-3.2,4.7c0,0-0.8,0.5-1.5,1c-0.8,0.5-1.8,1.3-2.3,1.6c-0.5,0.3-1.5,1-2.2,1.2c-0.7,0.1-1.4,0.3-2,1s-2.9,3-4.1,3
		s-2.3-0.5-2.9-1.2c0,0,1.6-0.2,2.2-0.8c0,0,0.4-0.2,0.4,0.5c0,0,0.7-0.6,0.1-1c0,0-0.3,0-0.8,0.2s-1.2,0.4-1.6,0.4
		c-0.3,0-1-0.1-0.7-1.1s2.3-3.3,1.7-9.6c0,0-0.6,7.1-2.9,9.5s-3.1,3.1-5.7,3.8c-2.6,0.8-4.3,1.9-5,2.2c-0.7,0.3-2.3,0.8-3.1,1.1
		c-0.8,0.3-1.4,0.8-1.8,1c-0.4,0.2-2.5,2.3-4.5,2.3s-1.8-0.6-2.5-1c-0.7-0.3-1.7-0.6-0.3-1.6c0,0,0.3,1,2.5,1c2.1,0,3.3-0.8,3.3-1.9
		c0-1.2-1.2-1.6-1.8-1.6s-3.4,0.9-4.4,1.6c0,0-0.5,0.5-1.7,0.5s-1.2-0.1-1.6-0.8c-0.4-0.6-1.1-1.9-2.1-2.7c0,0-0.4-0.2-0.3-0.6
		c0.1-0.4,0.5-1.4,0.4-3.5c0,0-0.1-1.3,1.1-1.2c1.2,0.1,4.6,0.2,5.5-2.3l-0.8,0.7c0,0-0.5,0.2-0.8-0.1c-0.3-0.3-1-0.5-1-0.5
		s-0.7-1.8-2.2-2.4c0,0-0.1-1.5-1.3-2.3c0,0,0.3-1-1.7-2.4c0,0-0.2-1.6-1.5-2.7c0,0,0.3-1.6-0.9-2.8c0,0,0.1-0.8-0.5-1.7
		c-0.5-0.9-0.7-2.3-0.7-2.3s-0.2,1,0.1,3.1s1.8,6.5,2.3,7.6c0.4,1.1,1.6,4,2.5,5.2C50.5,68.5,51.1,69.5,51.1,69.5z"/>
	<g>
		<path class="st0" d="M61,77.2c0,0,0.6,0.5,0.6,1.6c0,0,0.4,0.3,0.4,0.1c0.1-0.3-0.2-1.2-0.8-1.7C61.3,77.1,60.9,77,61,77.2z"/>
		<path class="st0" d="M61.9,76.8c0,0,1,0.7,0.8,1.6l-0.3-0.1c0,0-0.1-0.8-0.7-1.3L61.9,76.8z"/>
		<path class="st0" d="M54.4,74.9c0,0-0.3-0.8-0.3-1.6c0-0.8,0.5-1.7,1.1-2.2c0,0-1.9,0.6-1.9,2.1C53.3,74.6,54.4,74.9,54.4,74.9z"
			/>
		<path class="st0" d="M52.7,73.7c0,0,0.7,1.5,1.4,1.7C54,75.4,51.8,76,52.7,73.7z"/>
		<path class="st0" d="M58,71.5c0,0,1.6,0.2,1.6,1.5s-1,1.2-1.1,1.2c-0.2,0-0.4-0.2-0.5-0.6s-0.1-0.4-0.4-0.4
			c-0.3,0-1.1,0.3-1.8,0.9c0,0-0.6,0.2-0.5-0.4C55.6,73.2,56.5,71.5,58,71.5z"/>
		<path class="st0" d="M64.7,65.5c0,0,1-0.7,1.6-2.2c0.6-1.5,1.5-1.8,2.8-1.5c0,0-1.6,0.3-1.6,1c0,0,0.9-0.1,0.9,0.2
			c0.1,0.3-0.1,0.3-0.4,0.5c-0.4,0.2-1.7,1-2.2,1.4C65.3,65.4,64.7,65.5,64.7,65.5z"/>
		<path class="st0" d="M67.4,67.4c0,0-0.5-0.2,0-0.3s2.6-0.3,3.5-1.8c0,0,0,1-0.7,1.6C69.6,67.4,69.1,67.5,67.4,67.4z"/>
		<path class="st0" d="M65.7,65.9c0,0,1-0.6,1.7-1.4c0.7-0.8,0.9-0.8,1.4-0.8s0.9,0.4,0.9,0.8s-0.4,1-1,1.3c0,0,0.7-1.4-0.4-1.4
			s-1.4,1.1-0.7,0.9c0,0,0.2-0.2,0.4-0.2s0,1.1-1,1.1S65.7,65.9,65.7,65.9z"/>
		<path class="st0" d="M82.3,62.4c0,0,0.7,5.3-1.5,7.7c0,0,2.4-0.4,2.4-4.6C83.1,62.6,82.3,62.4,82.3,62.4z"/>
		<path class="st0" d="M78.6,50.5c0,0,2.1-3.6,3-5.2c0.9-1.6,3-5.3,6.3-5.1c0,0-0.4,0.3-0.7,0.5c-0.4,0.2-2.8,1.7-3.9,3.5
			c-1.1,1.7-0.3,2.1,0,2.4c0.3,0.3,0.7,0.7,0.5,1.1c-0.2,0.4-0.5,0.4-0.7,0.7s-0.2,0.3-0.2,0.5C82.8,49,83,51.2,78.6,50.5z"/>
	</g>
	<path class="st0" d="M58.5,60.6c0,0-1-4,0.3-7.9c0,0,0.9-1,0.8,0c-0.1,1-0.6,6.4,1.5,6.9c0,0,0.6,0.2,0.2,0.5
		c-0.4,0.3-0.8,0.7-1.5,0.7C59,60.7,58.5,60.6,58.5,60.6z"/>
	<g>
		<polygon class="st6" points="42.4,23.5 43.7,27.7 49.4,25.8 49.1,25 45.9,26.1 44.8,22.7 		"/>
		<polygon class="st6" points="60,23.8 60,19.5 66.4,19.5 66.4,20.3 62.5,20.3 62.5,21.2 65.8,21.2 65.8,22 62.5,22 62.5,22.9 
			66.6,22.9 66.6,23.8 		"/>
		<polygon class="st6" points="51.2,25.3 50.5,21.1 56.8,20 56.9,20.8 53,21.5 53.2,22.3 56.5,21.7 56.6,22.5 53.3,23.1 53.5,24 
			57.6,23.3 57.7,24.1 		"/>
		<path class="st6" d="M69.2,23.8l0.4-4.3l3.7,0.3c0,0,4.2,0.5,3.8,2.7c0,0-0.1,2.3-4.2,1.7L69.2,23.8z M72,20.6l-0.3,2.5
			c0,0,2.6,0.6,2.7-1C74.4,22.1,74.8,20.7,72,20.6z"/>
		<path class="st6" d="M84.6,23.4l2.1,0.1c0,0-2.1-2.2-5.1-2.2c0,0-1.7,0.1-1.7,1c0,0.8,1.2,1.2,1.8,1.5c0.5,0.3,1.9,1,1.9,1
			s1,0.6-0.1,0.6c-1,0-2-0.7-2.3-1.2L78.9,24c0,0,1.9,2.7,5.9,2.7c1.8,0,1.6-1,1.6-1s0.5-0.9-1.8-1.8l-1.8-0.8c0,0-0.5-0.3-0.1-0.5
			C82.9,22.3,84.2,22.8,84.6,23.4z"/>
	</g>
	<g>
		<polygon class="st7" points="42.4,23.5 43.7,27.7 49.4,25.8 49.1,25 45.9,26.1 44.8,22.7 		"/>
		<polygon class="st7" points="60,23.8 60,19.5 66.4,19.5 66.4,20.3 62.5,20.3 62.5,21.2 65.8,21.2 65.8,22 62.5,22 62.5,22.9 
			66.6,22.9 66.6,23.8 		"/>
		<polygon class="st7" points="51.2,25.3 50.5,21.1 56.8,20 56.9,20.8 53,21.5 53.2,22.3 56.5,21.7 56.6,22.5 53.3,23.1 53.5,24 
			57.6,23.3 57.7,24.1 		"/>
		<path class="st7" d="M69.2,23.8l0.4-4.3l3.7,0.3c0,0,4.2,0.5,3.8,2.7c0,0-0.1,2.3-4.2,1.7L69.2,23.8z M72,20.6l-0.3,2.5
			c0,0,2.6,0.6,2.7-1C74.4,22.1,74.8,20.7,72,20.6z"/>
		<path class="st7" d="M84.6,23.4l2.1,0.1c0,0-2.1-2.2-5.1-2.2c0,0-1.7,0.1-1.7,1c0,0.8,1.2,1.2,1.8,1.5c0.5,0.3,1.9,1,1.9,1
			s1,0.6-0.1,0.6c-1,0-2-0.7-2.3-1.2L78.9,24c0,0,1.9,2.7,5.9,2.7c1.8,0,1.6-1,1.6-1s0.5-0.9-1.8-1.8l-1.8-0.8c0,0-0.5-0.3-0.1-0.5
			C82.9,22.3,84.2,22.8,84.6,23.4z"/>
	</g>
	<g>
		<polygon class="st3" points="42.4,23.5 43.7,27.7 49.4,25.8 49.1,25 45.9,26.1 44.8,22.7 		"/>
		<polygon class="st3" points="60,23.8 60,19.5 66.4,19.5 66.4,20.3 62.5,20.3 62.5,21.2 65.8,21.2 65.8,22 62.5,22 62.5,22.9 
			66.6,22.9 66.6,23.8 		"/>
		<polygon class="st3" points="51.2,25.3 50.5,21.1 56.8,20 56.9,20.8 53,21.5 53.2,22.3 56.5,21.7 56.6,22.5 53.3,23.1 53.5,24 
			57.6,23.3 57.7,24.1 		"/>
		<path class="st3" d="M69.2,23.8l0.4-4.3l3.7,0.3c0,0,4.2,0.5,3.8,2.7c0,0-0.1,2.3-4.2,1.7L69.2,23.8z M72,20.6l-0.3,2.5
			c0,0,2.6,0.6,2.7-1C74.4,22.1,74.8,20.7,72,20.6z"/>
		<path class="st3" d="M84.6,23.4l2.1,0.1c0,0-2.1-2.2-5.1-2.2c0,0-1.7,0.1-1.7,1c0,0.8,1.2,1.2,1.8,1.5c0.5,0.3,1.9,1,1.9,1
			s1,0.6-0.1,0.6c-1,0-2-0.7-2.3-1.2L78.9,24c0,0,1.9,2.7,5.9,2.7c1.8,0,1.6-1,1.6-1s0.5-0.9-1.8-1.8l-1.8-0.8c0,0-0.5-0.3-0.1-0.5
			C82.9,22.3,84.2,22.8,84.6,23.4z"/>
	</g>
	<path class="st0" d="M46.4,46.1l0.5-0.2c0,0,0.2,1,0.2,2.3c0,0.6-0.1,1.9-0.7,3.4L46,50.8C46,50.8,46.8,49,46.4,46.1"/>
	<path class="st0" d="M93.8,41.1c0,0-0.4,0.8-1.4,1.3l0,0c0.6-1.3,1.1-2.3,1.3-3.3h0.9c0,0-0.1,0.3-0.3,0.8h-0.2
		C94.2,39.9,94.1,40.5,93.8,41.1z"/>
</g>
</svg>
