<?xml version="1.0" encoding="utf-8"?>
<!-- Generator: Adobe Illustrator 25.3.0, SVG Export Plug-In . SVG Version: 6.00 Build 0)  -->
<svg version="1.1" id="Layer_1" xmlns="http://www.w3.org/2000/svg" xmlns:xlink="http://www.w3.org/1999/xlink" x="0px" y="0px"
	 viewBox="0 0 750.2 400.1" style="enable-background:new 0 0 750.2 400.1;" xml:space="preserve">
<path d="M163.9,53.1c-0.3-2.4-0.4-4.1-0.4-4.9c6.4,2.1,45.4,14.6,77.8-0.5c0,0.8-0.1,2.7-0.4,5.3C216,60.5,188.8,60.6,163.9,53.1z
	 M248.8,48.9l-6.5-1.1c-0.1,2.6-0.7,13-5,23.5c-6.4,15.6-18.1,23.9-33.8,24l-1.5,0c-0.1,0-0.2,0-0.3,0c-36,0-38.9-41.3-39.1-47
	l-6.5,1.2c0.4,18,10.4,51.1,45.6,51.1c0.1,0,0.2,0,0.3,0l1.5,0C238.9,100.4,248.6,67,248.8,48.9z M592.2,47.2
	c-4.1-3.1-18.8-5.7-46.5-5.7c-27.7,0-41.7,2.6-45.5,5.7c5.4-0.4,25.3-1.8,45.6-1.8C566,45.4,586.5,46.8,592.2,47.2z"/>
</svg>
