<?xml version="1.0" encoding="utf-8"?>
<!-- Generator: Adobe Illustrator 25.3.0, SVG Export Plug-In . SVG Version: 6.00 Build 0)  -->
<svg version="1.1" id="Layer_1" xmlns="http://www.w3.org/2000/svg" xmlns:xlink="http://www.w3.org/1999/xlink" x="0px" y="0px"
	 viewBox="0 0 120 105" style="enable-background:new 0 0 120 105;" xml:space="preserve">
<style type="text/css">
	.st0{fill:#FFFFFF;}
	.st1{fill:#CE0E2D;}
</style>
<g>
	<path class="st0" d="M31.7,12.5v29.1c0,15.3,1,29.9,12.5,41.1C50,88.3,60,92.5,60,92.5s10-4.2,15.8-9.8
		c11.5-11.2,12.5-25.8,12.5-41.1V12.5H31.7z"/>
	<path class="st1" d="M33.7,22.6v19.1c0,14.9,0.8,29,11.9,39.7c5.5,5.4,14.4,9.1,14.4,9.1s8.9-3.7,14.4-9.1
		c11.1-10.8,11.9-24.9,11.9-39.7V22.6H33.7z"/>
	<g>
		<path class="st1" d="M80.5,17.1h0.2c0.9,0,1.8,0,2.6,0c0.1,0,0.2,0,0.4,0c0.3,0,0.5-0.2,0.6-0.5c0-0.3-0.2-0.5-0.5-0.6
			c-0.1,0-0.2,0-0.3,0c-0.9,0-1.9,0-2.8,0c-0.1,0-0.1,0-0.2,0V17.1z M78.4,14.4c0,0,3.8,0,5.6,0c0.5,0,1.1,0.1,1.5,0.5
			c0.4,0.3,0.7,0.7,0.7,1.3c0.1,0.6,0,1.2-0.5,1.7c-0.2,0.2-0.4,0.4-0.7,0.5c0.4,0.8,0.8,1.5,1.3,2.3h-2.3c-0.4-0.7-0.7-1.4-1.1-2.1
			h-2.5v2.1h-2.1V14.4z"/>
		<polygon class="st1" points="42,20.7 39.9,20.7 39.9,18.3 35.7,18.3 35.7,20.7 33.6,20.7 33.6,14.4 35.7,14.4 35.7,16.7 
			39.9,16.7 39.9,14.4 42,14.4 		"/>
		<polygon class="st1" points="61.7,19 66.1,19 66.1,20.7 59.6,20.7 59.6,14.4 61.7,14.4 		"/>
		<polygon class="st1" points="54,19 58.4,19 58.4,20.7 52,20.7 52,14.4 54,14.4 		"/>
		<polygon class="st1" points="77.4,14.4 74.3,14.4 71.1,16.8 71.1,14.4 69.1,14.4 69.1,20.7 71.1,20.7 71.1,19 71.6,18.7 
			74.3,20.7 77.4,20.7 73.1,17.5 		"/>
		<path class="st1" d="M51.1,14.4H49c0,1,0,2.2,0,3.3c0,0.6-0.4,1.1-1,1.4c-0.6,0.2-1.2,0.2-1.7,0.1c-0.8-0.1-1.4-0.6-1.3-1.7
			c0-1,0-3.1,0-3.1l-2.1,0c0,1.2-0.1,2.4,0,3.6c0.1,1.2,0.7,2,1.8,2.4c0.6,0.2,1.2,0.3,1.8,0.4c0.8,0,1.6,0,2.3-0.2
			c0.7-0.2,1.4-0.6,1.8-1.2c0.3-0.5,0.4-1.1,0.4-1.7c0-0.2,0-0.4,0-0.6V14.4z"/>
	</g>
	<g>
		<path class="st0" d="M61.6,41.9c0.1-1.6-1.8-3.5-1.8-3.5s-1.8,1.9-1.8,3.5c0,0-2.3-0.7-4.7-0.2c0,0,4.7,2.2,6.5,7.2
			c1.8-5,6.5-7.2,6.5-7.2C63.9,41.2,61.6,41.9,61.6,41.9"/>
		<path class="st0" d="M61.6,29.8c0.1-1.6-1.8-3.5-1.8-3.5s-1.8,1.9-1.8,3.5c0,0-2.3-0.7-4.7-0.2c0,0,4.7,2.2,6.5,7.2
			c1.8-5,6.5-7.2,6.5-7.2C63.9,29.1,61.6,29.8,61.6,29.8"/>
		<path class="st0" d="M47.9,33.6c-0.5-1.3-2.7-2-2.7-2s0,0,0,0.1c0,0.1,0,0.1-0.1,0.2c-0.5,1.8,0.2,3.7,1.7,4.8l3.2,2.6
			c-1.7-4.9,1.4-7.5,1.4-7.5C49.4,32.2,47.9,33.6,47.9,33.6"/>
		<path class="st0" d="M47.3,44.6h7.1c0,0-4.8-1.6-8.6-5.6L47.3,44.6z"/>
		<path class="st0" d="M72.1,33.6c0.5-1.3,2.7-2,2.7-2s0,0,0,0.1c0,0.1,0,0.1,0.1,0.2c0.5,1.8-0.2,3.7-1.7,4.8l-3.2,2.6
			c1.7-4.9-1.4-7.5-1.4-7.5C70.6,32.2,72.1,33.6,72.1,33.6"/>
		<path class="st0" d="M72.7,44.6h-7.1c0,0,4.8-1.6,8.6-5.6L72.7,44.6z"/>
		<path class="st0" d="M52.2,33.6c1.3,1.4,3,2.6,4.7,3.5c0.7,0.4,0.6,1.4-0.1,1.7C55.2,39.4,52.9,39.1,52.2,33.6"/>
		<path class="st0" d="M67.4,33.6c-1.3,1.4-3,2.6-4.7,3.5c-0.7,0.4-0.6,1.4,0.1,1.7C64.4,39.4,66.8,39.1,67.4,33.6"/>
	</g>
	<g>
		<path class="st0" d="M61.3,62.4c0.1-1.2-1.4-2.7-1.4-2.7s-1.4,1.5-1.4,2.7c0,0-1.8-0.5-3.7-0.2c0,0,3.6,1.7,5,5.5
			c1.4-3.9,5-5.5,5-5.5C63,61.9,61.3,62.4,61.3,62.4"/>
		<path class="st0" d="M61.3,53.1c0.1-1.2-1.4-2.7-1.4-2.7s-1.4,1.5-1.4,2.7c0,0-1.8-0.5-3.7-0.2c0,0,3.6,1.7,5,5.5
			c1.4-3.9,5-5.5,5-5.5C63,52.6,61.3,53.1,61.3,53.1"/>
		<path class="st0" d="M50.7,56c-0.4-1-2.1-1.6-2.1-1.6s0,0,0,0.1c0,0,0,0.1,0,0.1c-0.4,1.4,0.2,2.8,1.3,3.7l2.5,2
			c-1.3-3.8,1.1-5.8,1.1-5.8C51.9,55,50.7,56,50.7,56"/>
		<path class="st0" d="M50.2,64.5h5.4c0,0-3.7-1.2-6.6-4.3L50.2,64.5z"/>
		<path class="st0" d="M69.3,56c0.4-1,2.1-1.6,2.1-1.6s0,0,0,0.1c0,0,0,0.1,0,0.1c0.4,1.4-0.2,2.8-1.3,3.7l-2.5,2
			c1.3-3.8-1.1-5.8-1.1-5.8C68.1,55,69.3,56,69.3,56"/>
		<path class="st0" d="M69.8,64.5h-5.4c0,0,3.7-1.2,6.6-4.3L69.8,64.5z"/>
		<path class="st0" d="M54,56c1,1.1,2.3,2,3.6,2.7c0.5,0.3,0.5,1.1-0.1,1.3C56.3,60.5,54.5,60.2,54,56"/>
		<path class="st0" d="M65.7,56c-1,1.1-2.3,2-3.6,2.7c-0.5,0.3-0.5,1.1,0.1,1.3C63.4,60.5,65.2,60.2,65.7,56"/>
	</g>
	<g>
		<path class="st0" d="M61.2,80.4c0-1.1-1.3-2.5-1.3-2.5s-1.3,1.4-1.3,2.5c0,0-1.6-0.5-3.4-0.1c0,0,3.3,1.5,4.6,5.1
			c1.3-3.6,4.6-5.1,4.6-5.1C62.8,79.9,61.2,80.4,61.2,80.4"/>
		<path class="st0" d="M61.2,71.8c0-1.1-1.3-2.5-1.3-2.5s-1.3,1.4-1.3,2.5c0,0-1.6-0.5-3.4-0.1c0,0,3.3,1.5,4.6,5.1
			c1.3-3.6,4.6-5.1,4.6-5.1C62.8,71.4,61.2,71.8,61.2,71.8"/>
		<path class="st0" d="M51.4,74.5c-0.4-0.9-1.9-1.5-1.9-1.5s0,0,0,0.1c0,0,0,0.1,0,0.1c-0.3,1.3,0.2,2.6,1.2,3.4l2.3,1.8
			c-1.2-3.5,1-5.4,1-5.4C52.5,73.5,51.4,74.5,51.4,74.5"/>
		<path class="st0" d="M68.6,74.5c0.4-0.9,1.9-1.5,1.9-1.5s0,0,0,0.1c0,0,0,0.1,0,0.1c0.3,1.3-0.2,2.6-1.2,3.4L67,78.5
			c1.2-3.5-1-5.4-1-5.4C67.5,73.5,68.6,74.5,68.6,74.5"/>
		<path class="st0" d="M54.5,74.5c0.9,1,2.1,1.9,3.3,2.5c0.5,0.3,0.5,1-0.1,1.2C56.6,78.6,54.9,78.3,54.5,74.5"/>
		<path class="st0" d="M65.3,74.5c-0.9,1-2.1,1.9-3.3,2.5c-0.5,0.3-0.5,1,0.1,1.2C63.1,78.6,64.8,78.3,65.3,74.5"/>
	</g>
</g>
</svg>
