<?xml version="1.0" encoding="utf-8"?>
<!-- Generator: Adobe Illustrator 25.3.0, SVG Export Plug-In . SVG Version: 6.00 Build 0)  -->
<svg version="1.1" id="Layer_1" xmlns="http://www.w3.org/2000/svg" xmlns:xlink="http://www.w3.org/1999/xlink" x="0px" y="0px"
	 viewBox="0 0 750.2 400.1" style="enable-background:new 0 0 750.2 400.1;" xml:space="preserve">
<polygon points="270.5,222.2 278.7,222.2 278.7,221.9 272.4,220.4 "/>
<path d="M237.7,204.6l-27.9-7.3l-18.1,16.1l-27.9-7.3l-18.1,16.1h26.1l9.7-8.6l18.8,4.9l-4.2,3.7h25.8l1.8-1.6l6.1,1.6H258
	l11.7-10.4l9,2.4v-2.8l-17.5-4.6l12.3-10.9l5.2,1.4v-2.8l-22.9-6L237.7,204.6z M234,220.6l-18.8-4.9l12.3-10.9l18.8,4.9L234,220.6z"
	/>
<polygon points="125.6,222.2 145.7,222.2 125.6,216.9 "/>
<path d="M277.3,169l-12,9.8l-17.3-5l10.2-8.3h-28.9l-7.5,6.2l-21.4-6.2h-5.6l-16.2,13.4l-25.6-7.4l-17.7,14.6l-9.5-2.8v5.9l4.5-3.7
	l17.3,5l-12,9.8l-9.8-3v6l4.7-3.9L156,207l17.7-14.6l25.6,7.4l17.7-14.6l25.6,7.4l17.7-14.6l18.4,5.4v-17.9h-13.5L277.3,169z
	 M178.7,193l-17.3-5l12-9.8l17.3,5L178.7,193z M222,185.9l-17.3-5l12-9.8l17.3,5L222,185.9z"/>
<polygon points="152.4,168.5 156.4,165.5 143.2,165.5 "/>
</svg>
