<?xml version="1.0" encoding="utf-8"?>
<!-- Generator: Adobe Illustrator 25.3.0, SVG Export Plug-In . SVG Version: 6.00 Build 0)  -->
<svg version="1.1" id="Layer_1" xmlns="http://www.w3.org/2000/svg" xmlns:xlink="http://www.w3.org/1999/xlink" x="0px" y="0px"
	 viewBox="0 0 750.2000122 400.1000061" style="enable-background:new 0 0 750.2000122 400.1000061;" xml:space="preserve">
<path d="M220.0248413,110.4443054c1.7648926-13.7119141,4.9862061-27.1633911,10.6174927-37.3601074
	c0.0119629-0.0214844,0.0251465-0.0412598,0.0369873-0.0629883C225.713623,74.158905,220.5422363,74.8945007,215,75.3000183
	l-11,8.5998535c-0.1999512,0.1000977-0.3999023,0.2001953-0.5999756,0.2001953s-0.5-0.1000977-0.5999756-0.2001953L192,75.3000183
	c-4.7446289-0.3310547-9.2088623-0.916748-13.5063477-1.7849121c5.5402222,10.2319336,8.7014771,23.6660156,10.4268799,37.3338013
	l14.1989136,2.2495728L220.0248413,110.4443054z"/>
<path d="M291.6999512,92.8000183L291.5,90.4999695c-0.5999756-7-1.6999512-18.8000488-2.6999512-23.3000488
	c-0.7000732-3.1999512-1.3000488-5.3000488-2.1000977-7l-0.0163574-0.114502
	c-4.1135254-1.5354004-8.3701172-3.0649414-12.7835693-4.5854492l0.0999756-0.5c-1.5-0.1999512-4.3000488,0-8.8000488,2.3000488
	c-1.3999023,0.8000488-3,1.6999512-4.7999268,2.8999023c-2,1.3000488-4.4000244,2.6999512-7,4.1000977l-6.0999756,3.0998535
	l-9.0136719,3.4741211c-6.3056641,9.713501-9.458374,23.7958374-10.840271,38.4051514l64.7417603-10.1645508
	C292.0629883,97.1185608,291.9050293,95.0298157,291.6999512,92.8000183z"/>
<path d="M171.1091309,71.691864c-0.9418945-0.2802734-1.8779297-0.5771484-2.809082-0.8918457l-9.6000977-3.9001465
	c-1.7999268-0.8999023-3.5-1.6999512-5.0999756-2.5998535l-0.4000244-0.1999512
	c-0.0999756-0.1000977-0.1999512-0.1000977-0.2999268-0.2001953L152.5,63.6999207
	c-2.1999512-1.1999512-4.0999756-2.3999023-5.8999023-3.5c-1.8000488-1.0998535-3.4001465-2.0998535-4.8000488-2.8999023
	c-7.5-4-10.1999512-1.9001465-10.1999512-1.8000488c-0.2000732,0.1999512-0.6000977,0.3000488-0.9001465,0.1999512
	c-0.1999512,0-0.2999268-0.0998535-0.5-0.1999512l0.1000977,0.3000488
	c-4.284668,1.4768066-8.4176025,2.9624023-12.4121094,4.4538574c-0.5742188,1.8100586-1.2246094,3.8417969-1.7879639,6.8461914
	c-1,4.3999023-2,16.1999512-2.6999512,23.1999512l-0.2000732,2.3000488
	c-0.1983643,2.1818848-0.3532104,4.2271729-0.4761353,6.1766968l68.7451172,10.8915405
	C180.1434326,95.3254089,177.1260376,81.4568176,171.1091309,71.691864z"/>
</svg>
