<?xml version="1.0" encoding="utf-8"?>
<!-- Generator: Adobe Illustrator 25.3.0, SVG Export Plug-In . SVG Version: 6.00 Build 0)  -->
<svg version="1.1" id="Layer_1" xmlns="http://www.w3.org/2000/svg" xmlns:xlink="http://www.w3.org/1999/xlink" x="0px" y="0px"
	 viewBox="0 0 750.2000122 400.1000061" style="enable-background:new 0 0 750.2000122 400.1000061;" xml:space="preserve">
<path d="M230.642334,73.0841675c0.0119629-0.0214844,0.0251465-0.0412598,0.0369873-0.0629883
	C225.713623,74.1588745,220.5422363,74.8944702,215,75.2999878l-11,8.5998535
	c-0.1999512,0.1000977-0.3999023,0.2001953-0.5999756,0.2001953s-0.5-0.1000977-0.5999756-0.2001953L192,75.2999878
	c-4.7446289-0.3310547-9.2088623-0.916748-13.5063477-1.7849121c4.8079224,8.8794556,7.8220215,20.1713867,9.663208,31.9338989
	h32.5821533C222.6130981,93.5029907,225.6973267,82.038147,230.642334,73.0841675z"/>
<path d="M291.5,90.499939c-0.5999756-7-1.6999512-18.8000488-2.6999512-23.3000488
	c-0.7000732-3.1999512-1.3000488-5.3000488-2.1000977-7l-0.0163574-0.114502
	c-4.1135254-1.5354004-8.3701172-3.0649414-12.7835693-4.5854492l0.0999756-0.5c-1.5-0.1999512-4.3000488,0-8.8000488,2.3000488
	c-1.3999023,0.8000488-3,1.6999512-4.7999268,2.8999023c-2,1.3000488-4.4000244,2.6999512-7,4.1000977l-6.0999756,3.0998535
	l-9.0136719,3.4741211c-5.7525635,8.8615112-8.8824463,21.3585815-10.4365234,34.5750122h64.6410522
	c-0.1339722-3.8686523-0.3587036-7.9486694-0.7909546-12.6489868L291.5,90.499939z"/>
<path d="M171.1091309,71.6918335c-0.9418945-0.2802734-1.8779297-0.5771484-2.809082-0.8918457l-9.6000977-3.9001465
	c-1.7999268-0.8999023-3.5-1.6999512-5.0999756-2.5998535l-0.4000244-0.1999512
	C153.0999756,63.999939,153,63.999939,152.9000244,63.8998413L152.5,63.6998901
	c-2.1999512-1.1999512-4.0999756-2.3999023-5.8999023-3.5c-1.8000488-1.0998535-3.4001465-2.0998535-4.8000488-2.8999023
	c-7.5-4-10.1999512-1.9001465-10.1999512-1.8000488c-0.2000732,0.1999512-0.6000977,0.3000488-0.9001465,0.1999512
	c-0.1999512,0-0.2999268-0.0998535-0.5-0.1999512l0.1000977,0.3000488
	c-4.284668,1.4768066-8.4176025,2.9624023-12.4121094,4.4538574c-0.5742188,1.8100586-1.2246094,3.8417969-1.7879639,6.8461914
	c-1,4.3999023-2,16.1999512-2.6999512,23.1999512l-0.2000732,2.3000488
	c-0.4368896,4.8063965-0.6616211,8.9477539-0.7949829,12.848938h68.621582
	C179.5192871,92.6345215,176.5335693,80.4951782,171.1091309,71.6918335z"/>
<path d="M218.1901855,151.3754883H190.692688c-0.0317993,1.3494873-0.0709229,2.6484985-0.114624,3.9028931h27.7259521
	C218.2605591,154.0244141,218.2218018,152.7245483,218.1901855,151.3754883z"/>
<path d="M181.6063843,151.3754883h-76.8155518l-0.2705078,3.9028931h76.7992554
	C181.4188843,154.026123,181.5148926,152.7225952,181.6063843,151.3754883z"/>
<path d="M227.5614014,155.2783813h72.7998047l-0.2670898-3.9028931h-72.8205566
	C227.3651733,152.7245483,227.4619751,154.0244141,227.5614014,155.2783813z"/>
<path d="M142.6999969,55.4999847c1.5,0.7999992,3.1000061,1.7999992,4.8999939,2.9000015
	c2.8999939,1.7999992,6.3999939,3.9000015,10.5,6l9.6000061,4.0999985c0.5,0.1999969,1.1000061,0.4000015,1.6000061,0.5
	c-0.1000061-0.0999985-0.1999969-0.3000031-0.3000031-0.4000015c-1.8999939-2.5-4.1000061-4.7000008-6.6000061-6.4000015
	L162,61.8999825l0.3000031-0.4000015c0.1000061-0.0999985,1.3000031-1.7999992,3.3000031-1.7999992
	c1.5,0,2.8999939,0.7999992,4.3000031,2.5999985c2.6999969,2.4000015,5,5.3000031,7.1000061,8.5999985
	c0.1000061,0.0999985,0.1000061,0.3000031,0.1999969,0.4000015c3.8000031,0.9000015,7.8000031,1.5,12,1.9000015
	c-3.3000031-2.6999969-7-5.5-10.8999939-8.4000015c-4-3-8.1999969-6.0999985-12.1999969-9.2999992h-0.1000061
	c-0.1999969-0.2000008-0.3999939-0.4000015-0.5-0.5c-12.1999969-9.8999977-22.8999939-20.8999977-24.8999939-33.9000015
	c-14.3000031,14.5-10.6000061,28.6000023-9.1999969,32.4000015C133,52.5999832,136.6000061,52.1999855,142.6999969,55.4999847z"/>
<path d="M242.6000061,53.8999863c-0.5,0.4000015-0.8999939,0.7999992-1.3999939,1.0999985
	c-4.1000061,3.2999992-8.3000031,6.5-12.3999939,9.5c-3.8999939,2.9000015-7.6000061,5.6999969-10.8999939,8.4000015
	c5-0.5,9.6999969-1.3000031,14.3000031-2.4000015l0,0c2-3.1999969,4.3000031-6,7-8.2999992
	c1.3000031-1.7000008,2.6999969-2.5,4.1999969-2.5c2,0,3.3000031,1.7999992,3.3000031,1.7999992l0.3000031,0.4000015
	l-0.3999939,0.2999992c-2.1999969,1.5-4.1999969,3.3999977-6,5.6000023l7.1999969-2.9000015
	c4.6999969-2.2000008,8.5000153-4.5999985,11.6999969-6.5c1.8999939-1.0999985,3.5-2.0999985,4.8999939-2.9000015
	c6.2000122-3.2999992,9.7000122-2.9000015,11.3999939-2.2000008c1.3999939-3.7999992,5.2000122-17.7999992-9.2000122-32.4000015
	C264.5,33.4999847,254.3000031,44.1999855,242.6000061,53.8999863z"/>
<path d="M487.2999878,59.299984c1,1.0999985,2,4,3.8999939,9.3999977c4.5,12.6999969,11.8999939,33.8000031,25.6999817,45.1999969
	c9.7000122,4.8000031,29.0999756,5.3000031,33.5999756,5.3000031c3.7000122,0,24-0.4000015,34-5.3000031
	c13.7999878-11.3000031,21.2999878-32.5,25.7000122-45.1999969c1.9000244-5.4000015,2.9000244-8.2000008,3.9000244-9.4000015
	c2.7000122-3.0999985,6-4.2999992,7.7999878-4.7999992l0.0999756-0.2999992c0.2000122,0.0999985,0.2999878,0.0999985,0.5,0.2000008
	c0.4000244-1.5999985,1.0999756-5.5999985,0.5-10.7999992c-0.9000244-7.2999992-4.0999756-13.7999992-9.5-19.3999996
	c0.7000122,3.2999992,0.2000122,6.6000004-1.5,9.6999989c-4.7999878,8.6000023-18.2000122,14.5-34.0999756,14.8999977
	c-9.7999878,0.2999992-20.5999756,0.0999985-32,0c-9.0999756-0.0999985-18.4000244-0.2000008-27.2000122-0.0999985
	c-0.2000122,0-0.4000244,0-0.5999756,0c-18.1000061,0-31.2000122-10.5999985-32-16.2000008
	c-0.5-3.1000004-0.2000122-5.7000008,0.3999939-7.7000008c-15,14.5-9.6000061,27.0999985-8.2999878,29.7000008
	C480.1000061,54.5999832,484.1000061,55.5999832,487.2999878,59.299984z"/>
<path d="M202.8999939,21.8999844c27.6999969,0,59.8999939,3.3999996,60.2000122,3.3999996v0.2000008
	c0.7999878-2.2000008,1.2999878-4.5,1.3999939-6.7999992l-0.7000122-0.3999996c0,0.2999992,0.1000061,0.5,0.2000122,0.6000004
	c-0.6000061-0.6000004-6.7999878-3.2999992-65.3999939-3.2999992c-48.6000061,0-55.1999969,2.1999989-56.1000061,3l-0.1999969,0.5
	c0.1999969,1.7999992,0.5,3.5,1,5.2000008C150.5,23.799984,178.8000031,21.8999844,202.8999939,21.8999844z"/>
</svg>
