<?xml version="1.0" encoding="utf-8"?>
<!-- Generator: Adobe Illustrator 25.3.0, SVG Export Plug-In . SVG Version: 6.00 Build 0)  -->
<svg version="1.1" id="Layer_1" xmlns="http://www.w3.org/2000/svg" xmlns:xlink="http://www.w3.org/1999/xlink" x="0px" y="0px"
	 viewBox="0 0 750.2 400.1" style="enable-background:new 0 0 750.2 400.1;" xml:space="preserve">
<g>
	<path d="M288,128c-0.2-0.9-0.4-1.8-0.6-2.9c-1.1-5.1-2.5-12.2-5-19.7h-72.1v43.7v1.5h-1.5h-13.7h-1.5v-1.5v-43.7h-71.8
		c-2.6,8-4.2,15.5-5.3,20.6l-0.5,2.2c-2.7,12.4-8.8,20.2-10.6,22.3c-0.1,0.1-0.2,0.2-0.4,0.4v0.5h194.6v-0.2
		c-0.4-0.1-0.9-0.4-1.2-0.7C296.8,148.3,290.7,140.6,288,128z"/>
</g>
</svg>
