<?xml version="1.0" encoding="utf-8"?>
<!-- Generator: Adobe Illustrator 25.3.0, SVG Export Plug-In . SVG Version: 6.00 Build 0)  -->
<svg version="1.1" id="Layer_1" xmlns="http://www.w3.org/2000/svg" xmlns:xlink="http://www.w3.org/1999/xlink" x="0px" y="0px"
	 viewBox="0 0 750.2 400.1" style="enable-background:new 0 0 750.2 400.1;" xml:space="preserve">
<g>
	<path d="M257.5,68.2c2.1,1.2,4.1,2.5,5.9,4l7.1-17.1l-14.8-4.5l3.9,6.9l0.3,0.5l-0.1,0.6L257.5,68.2z"/>
	<path d="M146.8,68.3l-2.3-9.7l-0.1-0.6l0.3-0.5l3.8-6.8L134.6,55l6.7,16.9C143,70.6,144.8,69.4,146.8,68.3z"/>
	<path d="M490.6,51.7l-5.3,1.6l-9.2,2.8l6.9,17.6c4.2-4,8.8-7.4,13.8-10.3l23.9-15.3c-15.8,1.2-26.8,3-27,3L490.6,51.7z"/>
	<path d="M617.5,55.9l-21-6.3l0,0c-0.1,0-9.9-1.1-24.7-1.8l22.8,15.6c5.4,3.2,10.6,7.1,15.2,11.8l5-12.2L617.5,55.9z"/>
</g>
</svg>
