<?xml version="1.0" encoding="utf-8"?>
<!-- Generator: Adobe Illustrator 25.3.0, SVG Export Plug-In . SVG Version: 6.00 Build 0)  -->
<svg version="1.1" id="Layer_1" xmlns="http://www.w3.org/2000/svg" xmlns:xlink="http://www.w3.org/1999/xlink" x="0px" y="0px"
	 viewBox="0 0 750.2 400.1" style="enable-background:new 0 0 750.2 400.1;" xml:space="preserve">
<g>
	<path d="M297.4,149.1c-2.4-3.3-7.1-10.4-9.4-21.1c-0.2-0.9-0.4-1.8-0.6-2.9c-0.8-4-1.9-9.2-3.5-14.9h-73.5v38.9H297.4z"/>
	<path d="M193.7,149.1v-38.9h-73.3c-1.8,6.2-3,11.8-3.8,15.8l-0.5,2.2c-2.3,10.5-7,17.6-9.5,20.9H193.7z"/>
	<path d="M290.2,131.8c2.9,9.2,7.4,15,8.6,16.5l15.5,3l16.3-69.7l1.8-7.8l-26.8-8.1l-6.8,29.2L290.2,131.8z"/>
	<path d="M92,150.8l13.6-2.7c1.8-2.1,7.2-9.2,9.7-20.4l-14.4-62.5l-26.8,8.2L92,150.8z"/>
	<path d="M443.7,65.9l-27,8.1l17.6,76.6l14.6-2.8c0.1-0.2,0.3-0.4,0.5-0.6c0.7-0.9,1.7-2.3,2.8-4.1c1.8-3.1,4.2-8,5.8-14.4
		L443.7,65.9z"/>
	<path d="M639.2,143.3c1,1.7,2.1,3.3,2.9,4.3c0.3,0.1,3.3,0.7,4,0.8c1.2,0.2,1.7,0.3,1.9,0.4l8,1.5L674.1,73l-27-8.1l-9.3,39.5
		l-5.1,21.8c0.1,0.4,0.2,0.8,0.3,1.2C634.5,134.5,637.2,140,639.2,143.3z"/>
</g>
</svg>
