<?xml version="1.0" encoding="utf-8"?>
<!-- Generator: Adobe Illustrator 25.3.0, SVG Export Plug-In . SVG Version: 6.00 Build 0)  -->
<svg version="1.1" id="Layer_1" xmlns="http://www.w3.org/2000/svg" xmlns:xlink="http://www.w3.org/1999/xlink" x="0px" y="0px"
	 viewBox="0 0 750.2 400.1" style="enable-background:new 0 0 750.2 400.1;" xml:space="preserve">
<style type="text/css">
	.st0{fill:none;}
</style>
<g>
	<line class="st0" x1="643.3" y1="161.7" x2="643.3" y2="166.6"/>
	<path d="M132.4,341c-12.4-18-17.8-82.2-21.5-164.1v-34.4c-2.2,4.1-4.4,6.8-5.3,7.9c-0.1,0.1-0.2,0.2-0.4,0.4v36.7l5.4-17.4
		l-5.4,17.4l0.1,165.4c1.2,0.3,5,1.1,10.6,2.1c6.9,0.4,16.2,0.9,26.4,1.4C139.6,351.9,136.3,346.7,132.4,341z"/>
	<path d="M299.5,353l0.2-166.3l-2.5-8.2l2.5,8.1v-35.4c-0.4-0.1-0.9-0.4-1.2-0.7c-0.9-1.1-2.9-3.6-5-7.4v47.4c0.4-6.2,0.7-12.6,1-19
		c-3.7,84.4-9.1,151.1-21.7,169.6c-3.9,5.6-7.1,10.7-9.8,15.3c9.7-0.5,18.7-1,25.4-1.4C294.3,354,298.3,353.2,299.5,353z"/>
	<path d="M474.6,359.3c-10.3-28.4-15.1-100.2-18.5-189l0.1-0.3c0.1,2.9,0.2,5.6,0.3,8.4v-40.7c-1.2,3.1-2.6,5.6-3.7,7.4
		c-1,1.6-2,3.1-3,4.4c-0.3,0.3-0.5,0.6-0.7,0.8c-0.2,0.3-0.5,0.5-0.8,0.6V199l-0.1,0.4l0.1,153.6c0.1,0,0.1,0,0.2,0l0.2,0.1
		c0.1,0,1.4,0.7,3.7,1.8c0.6,0,1.2,0.1,1.9,0.1C460.4,355.3,467.1,357.1,474.6,359.3z"/>
	<path d="M638.5,354.8c2.1-0.9,3.5-1.6,4.1-1.8l0.2-155.2v-47.1c-0.6-0.2-1-0.5-1.4-0.9c-0.9-1.1-2.1-2.9-3.1-4.7
		c-1.2-2-2.6-4.7-3.9-8v53c0.3-6.6,0.6-13.3,0.9-20l0.1,0.3c-3.3,87.3-8.1,158.3-18.1,187.5c5.4-1.5,10.6-2.5,15.5-2.8
		C635.2,355.1,637.1,354.9,638.5,354.8z"/>
	<path d="M293.6,140c2.3,4.5,4.5,7.4,5.4,8.4l50,9.6l1.9-8.7l-57.3-11.5V140z"/>
	<path d="M110.8,140.1v-2.4L54.4,149l1.9,8.9l49.3-9.8C106.6,146.9,108.7,144.2,110.8,140.1z"/>
	<path d="M449.4,147.2c0.7-0.9,1.7-2.3,2.8-4.1c0.8-1.3,1.7-3.1,2.6-5.1l-55.6,11.2l1.8,8l47.9-9.3
		C449.1,147.6,449.2,147.4,449.4,147.2z"/>
	<path d="M636.1,137.2c1,2.4,2.1,4.4,3.1,6c1,1.7,2.1,3.3,2.9,4.3c0.3,0.1,3.3,0.7,4,0.8c1.2,0.2,1.7,0.3,1.9,0.4l45.7,8.4l1.7-7.8
		L636.1,137.2z"/>
</g>
</svg>
