<?xml version="1.0" encoding="utf-8"?>
<!-- Generator: Adobe Illustrator 25.3.0, SVG Export Plug-In . SVG Version: 6.00 Build 0)  -->
<svg version="1.1" id="Layer_1" xmlns="http://www.w3.org/2000/svg" xmlns:xlink="http://www.w3.org/1999/xlink" x="0px" y="0px"
	 viewBox="0 0 750.2 400.1" style="enable-background:new 0 0 750.2 400.1;" xml:space="preserve">
<g>
	<path d="M299.6,290L299.6,290l0.1-138.8c-0.4-0.1-0.9-0.4-1.2-0.7c-0.9-1.1-2.8-3.6-4.9-7.5v210.8l6.4-0.3l-0.4-55.2V290z"/>
	<path d="M105.5,150.5c-0.1,0.1-0.2,0.2-0.4,0.4l0.1,139.1l0,0l-0.2,8.3l-0.2,55.2l6.1,0.3V142.4
		C108.6,146.6,106.5,149.4,105.5,150.5z"/>
	<path d="M456.5,138.1c-1.2,2.8-2.4,5.1-3.5,6.9c-1,1.6-2,3.1-3,4.4c-0.3,0.3-0.5,0.6-0.7,0.8c-0.2,0.3-0.5,0.5-0.8,0.6l0.1,139.2
		l0,0l-0.1,8.3l-0.6,55.2c0.1,0,0.3,0.1,0.6,0.1c0.9,0.1,2.6,0.3,5.9,0.5c0.7,0,1.4,0.1,2.1,0.2V138.1z"/>
	<path d="M643.2,298.3V290h-0.1l0.1-139.4c-0.9,0-1.4-0.3-1.7-0.8c-0.9-1.1-2.1-2.9-3.1-4.7c-1.2-2-2.6-4.7-3.9-8v216.8l8.5-0.4h0.1
		L643.2,298.3z"/>
</g>
</svg>
