<?xml version="1.0" encoding="utf-8"?>
<!-- Generator: Adobe Illustrator 25.3.0, SVG Export Plug-In . SVG Version: 6.00 Build 0)  -->
<svg version="1.1" id="Layer_1" xmlns="http://www.w3.org/2000/svg" xmlns:xlink="http://www.w3.org/1999/xlink" x="0px" y="0px"
	 viewBox="0 0 240.8999939 34" style="enable-background:new 0 0 240.8999939 34;" xml:space="preserve">
<style type="text/css">
	.st0{fill:#0075A9;}
	.st1{fill:#454C50;}
	.st2{fill:#005D83;}
	.st3{fill:#111C4E;}
	.st4{fill:#0065A1;}
	.st5{fill:#0082CA;}
	.st6{fill:#1D1D1B;}
	.st7{font-family:'Arial-BoldMT';}
	.st8{font-size:4.268455px;}
	.st9{fill:#FFFFFF;}
	.st10{font-size:6.3584905px;}
	.st11{font-size:5.2659283px;}
</style>
<path class="st0" d="M105.8229523,4.735374h29.5317993c0.4408722,0,0.4408722,1.6926179,0.4408722,3.3849511v18.5997314
	c0,1.695179,0,1.695179-0.4408722,1.695179h-29.5317993c-0.4416122,0-0.4416122,0-0.4416122-1.695179V8.1203251
	C105.38134,6.4279919,105.38134,4.735374,105.8229523,4.735374z"/>
<path class="st1" d="M70.3412094,4.735374h29.5317993c0.4408722,0,0.4408722,1.6926179,0.4408722,3.3849511v18.5997314
	c0,1.695179,0,1.695179-0.4408722,1.695179H70.3412094c-0.4416122,0-0.4416122,0-0.4416122-1.695179V8.1203251
	C69.8995972,6.4279919,69.8995972,4.735374,70.3412094,4.735374z"/>
<path class="st2" d="M36.3276787,4.735374h29.5318031c0.4408646,0,0.4408646,1.6926179,0.4408646,3.3849511v18.5997314
	c0,1.695179,0,1.695179-0.4408646,1.695179H36.3276787c-0.4416084,0-0.4416084,0-0.4416084-1.695179V8.1203251
	C35.8860703,6.4279919,35.8860703,4.735374,36.3276787,4.735374z"/>
<path class="st3" d="M209.8459778,4.579783h29.5317993c0.4408722,0,0.4408722,1.6926179,0.4408722,3.3849511v18.5997314
	c0,1.695179,0,1.695179-0.4408722,1.695179h-29.5317993c-0.4416046,0-0.4416046,0-0.4416046-1.695179V7.9647341
	C209.4043732,6.2724009,209.4043732,4.579783,209.8459778,4.579783z"/>
<path class="st4" d="M174.3642426,4.579783h29.5317993c0.4408722,0,0.4408722,1.6926179,0.4408722,3.3849511v18.5997314
	c0,1.695179,0,1.695179-0.4408722,1.695179h-29.5317993c-0.4416199,0-0.4416199,0-0.4416199-1.695179V7.9647341
	C173.9226227,6.2724009,173.9226227,4.579783,174.3642426,4.579783z"/>
<path class="st5" d="M140.350708,4.579783h29.5317993c0.4408722,0,0.4408722,1.6926179,0.4408722,3.3849511v18.5997314
	c0,1.695179,0,1.695179-0.4408722,1.695179H140.350708c-0.4416046,0-0.4416046,0-0.4416046-1.695179V7.9647341
	C139.9091034,6.2724009,139.9091034,4.579783,140.350708,4.579783z"/>
<g>
	<path class="st6" d="M30.5099754,6.1028924c0.0244026,0.5671368,0.0243988,1.2911148,0.0243988,1.8035698v18.5997314
		c0,0.0381413,0,0.0760956-0.0000057,0.1138H3.2828615c-0.0000069-0.037693-0.0000072-0.0756702-0.0000072-0.1138V7.9064622
		c0-0.512455-0.0000019-1.2365055,0.0244422-1.8035698H30.5099754 M31.6748848,4.5215116H2.1430843
		c-0.44161,0-0.44161,1.6926212-0.44161,3.3849506v18.5997314c0,1.695179,0,1.695179,0.44161,1.695179h29.5318012
		c0.4408684,0,0.4408684,0,0.4408684-1.695179V7.9064622C32.1157532,6.2141328,32.1157532,4.5215116,31.6748848,4.5215116
		L31.6748848,4.5215116z"/>
</g>
<text transform="matrix(1 0 0 1 9.1333857 18.6697197)" class="st6 st7 st8">WHITE</text>
<text transform="matrix(1 0 0 1 215.8804626 19.3025322)" class="st9 st7 st10">2766C</text>
<text transform="matrix(1 0 0 1 111.8570175 20.2175713)" class="st9 st7 st10">7690C</text>
<text transform="matrix(1 0 0 1 180.0367126 19.3025322)" class="st9 st7 st10">641C</text>
<text transform="matrix(1 0 0 1 76.0132675 20.2175713)" class="st9 st7 st10">7690C</text>
<text transform="matrix(1 0 0 1 142.636322 15.6882744)"><tspan x="0" y="0" class="st9 st7 st11">PROCESS</tspan><tspan x="0" y="6.3193359" class="st9 st7 st11">BLUE C</tspan></text>
<text transform="matrix(1 0 0 1 40.3941269 20.2175713)" class="st9 st7 st10">634C</text>
</svg>
