<?xml version="1.0" encoding="utf-8"?>
<!-- Generator: Adobe Illustrator 25.3.0, SVG Export Plug-In . SVG Version: 6.00 Build 0)  -->
<svg version="1.1" id="Layer_1" xmlns="http://www.w3.org/2000/svg" xmlns:xlink="http://www.w3.org/1999/xlink" x="0px" y="0px"
	 viewBox="0 0 200 100" style="enable-background:new 0 0 200 100;" xml:space="preserve">
<style type="text/css">
	.st0{fill:#FFDA00;}
	.st1{fill:#FFB71B;}
	.st2{fill:#00263A;}
</style>
<g>
	<polygon class="st0" points="56.2,0 89.5,0 56.2,23.5 	"/>
	<polygon class="st1" points="89.5,0 122.8,0 122.8,23.5 	"/>
	<g>
		<path class="st2" d="M54.9,91.9c0.3,0.4,0.7,0.7,1.2,1.1c0.5,0.4,1,0.7,1.6,0.9c0.6,0.3,1.2,0.5,2,0.7c0.7,0.2,1.5,0.3,2.4,0.3
			c0.9,0,1.8-0.1,2.7-0.4c0.8-0.3,1.5-0.7,2.1-1.1c0.6-0.5,1.1-1.1,1.4-1.7c0.4-0.7,0.5-1.4,0.5-2.2c0-0.9-0.1-1.7-0.4-2.3
			c-0.3-0.6-0.7-1.2-1.2-1.6c-0.5-0.4-1.1-0.8-1.7-1.1c-0.6-0.3-1.3-0.5-1.9-0.6c-1.1-0.2-2-0.6-2.6-0.9c-0.6-0.4-0.9-0.9-0.9-1.5
			c0-0.2,0.1-0.4,0.2-0.6c0.1-0.2,0.3-0.4,0.5-0.5c0.2-0.1,0.5-0.3,0.7-0.4c0.3-0.1,0.5-0.1,0.8-0.1c0.4,0,0.8,0.1,1.2,0.2
			c0.4,0.1,0.7,0.2,1,0.4c0.3,0.2,0.6,0.3,0.9,0.5c0.3,0.2,0.5,0.4,0.7,0.5l2.3-2.5c-0.2-0.2-0.4-0.4-0.7-0.6
			c-0.3-0.3-0.7-0.5-1.2-0.8c-0.5-0.3-1.1-0.5-1.8-0.7c-0.7-0.2-1.5-0.3-2.4-0.3c-1.1,0-2,0.1-2.8,0.4c-0.8,0.3-1.5,0.7-2,1.2
			c-0.5,0.5-0.9,1.1-1.2,1.7c-0.3,0.7-0.4,1.3-0.4,2.1c0,0.7,0.1,1.3,0.3,1.8c0.2,0.5,0.5,1,1,1.4c0.4,0.4,0.9,0.8,1.5,1.1
			c0.6,0.3,1.2,0.5,1.9,0.7c1.4,0.4,2.4,0.7,3,1.1c0.6,0.4,0.9,0.9,0.9,1.5c0,0.3-0.1,0.6-0.2,0.8c-0.1,0.2-0.3,0.4-0.6,0.6
			c-0.2,0.2-0.5,0.3-0.8,0.4c-0.3,0.1-0.6,0.1-0.9,0.1c-0.5,0-1-0.1-1.4-0.2c-0.4-0.1-0.9-0.3-1.2-0.5c-0.4-0.2-0.7-0.4-1-0.7
			c-0.3-0.3-0.6-0.5-0.8-0.8L54.9,91.9z M75.6,91.3c-0.4-0.2-0.7-0.4-0.9-0.8c-0.2-0.3-0.4-0.7-0.6-1.1c-0.1-0.4-0.2-0.8-0.2-1.2
			c0-0.4,0.1-0.8,0.2-1.2c0.1-0.4,0.3-0.7,0.6-1.1c0.2-0.3,0.6-0.6,0.9-0.7c0.4-0.2,0.8-0.3,1.3-0.3c0.5,0,0.9,0.1,1.3,0.3
			c0.4,0.2,0.7,0.4,0.9,0.7c0.3,0.3,0.4,0.7,0.6,1.1c0.1,0.4,0.2,0.8,0.2,1.2c0,0.4-0.1,0.8-0.2,1.2c-0.1,0.4-0.3,0.8-0.6,1.1
			c-0.3,0.3-0.6,0.6-0.9,0.8c-0.4,0.2-0.8,0.3-1.3,0.3C76.4,91.5,76,91.4,75.6,91.3 M70.7,90.8c0.3,0.8,0.8,1.5,1.4,2.1
			c0.6,0.6,1.3,1.1,2.1,1.4c0.8,0.4,1.7,0.5,2.7,0.5c1,0,1.9-0.2,2.7-0.5c0.8-0.4,1.5-0.8,2.1-1.4c0.6-0.6,1-1.3,1.4-2.1
			c0.3-0.8,0.5-1.7,0.5-2.6c0-0.9-0.2-1.8-0.5-2.6c-0.3-0.8-0.8-1.5-1.4-2.1c-0.6-0.6-1.3-1.1-2.1-1.4c-0.8-0.3-1.7-0.5-2.7-0.5
			c-1,0-1.9,0.2-2.7,0.5c-0.8,0.3-1.5,0.8-2.1,1.4c-0.6,0.6-1,1.3-1.4,2.1c-0.3,0.8-0.5,1.7-0.5,2.6C70.2,89.1,70.4,90,70.7,90.8
			 M94.1,90.3c-0.3,0.3-0.6,0.6-1.1,0.8c-0.4,0.3-1,0.4-1.6,0.4c-0.5,0-0.9-0.1-1.2-0.3c-0.4-0.2-0.7-0.4-0.9-0.8
			c-0.3-0.3-0.4-0.7-0.6-1.1c-0.1-0.4-0.2-0.8-0.2-1.2c0-0.4,0.1-0.9,0.2-1.3c0.1-0.4,0.3-0.7,0.6-1c0.3-0.3,0.6-0.5,0.9-0.7
			c0.4-0.2,0.8-0.3,1.2-0.3c0.7,0,1.2,0.1,1.6,0.4c0.4,0.2,0.7,0.5,1,0.8l2.3-2.5c-0.6-0.6-1.3-1.1-2.1-1.5
			c-0.8-0.4-1.8-0.6-2.9-0.6c-1,0-1.9,0.2-2.7,0.5c-0.8,0.3-1.5,0.8-2.1,1.4c-0.6,0.6-1.1,1.3-1.4,2.1c-0.3,0.8-0.5,1.7-0.5,2.6
			c0,1,0.2,1.9,0.5,2.7c0.3,0.8,0.8,1.5,1.4,2.1c0.6,0.6,1.3,1,2.1,1.4c0.8,0.3,1.7,0.5,2.7,0.5c1.1,0,2.1-0.2,3-0.6
			c0.8-0.4,1.5-0.9,2-1.4L94.1,90.3z M98.1,80.2h4.1v-3.4h-4.1V80.2z M98.2,94.4h3.8V82h-3.8V94.4z M114.5,90.7
			c-0.3,0.2-0.7,0.5-1.3,0.8c-0.6,0.3-1.4,0.4-2.4,0.4c-1,0-1.8-0.3-2.4-0.8c-0.6-0.5-0.9-1.1-0.9-1.8h8.8v-0.6c0-1-0.1-2-0.4-2.9
			c-0.3-0.9-0.7-1.6-1.2-2.2c-0.5-0.6-1.2-1.1-1.9-1.5c-0.8-0.4-1.6-0.5-2.6-0.5c-1,0-1.9,0.2-2.7,0.5c-0.8,0.4-1.5,0.8-2,1.4
			c-0.5,0.6-1,1.3-1.3,2.1c-0.3,0.8-0.4,1.6-0.4,2.5c0,1,0.2,1.9,0.5,2.7c0.3,0.8,0.8,1.5,1.3,2.1c0.6,0.6,1.3,1,2.1,1.4
			c0.8,0.3,1.8,0.5,2.8,0.5c0.8,0,1.5-0.1,2.1-0.2c0.6-0.1,1.1-0.3,1.6-0.5c0.4-0.2,0.8-0.4,1.1-0.6c0.3-0.2,0.5-0.3,0.6-0.4
			L114.5,90.7z M107.5,86.9c0-0.3,0.1-0.5,0.2-0.8c0.1-0.3,0.3-0.5,0.5-0.8c0.2-0.2,0.5-0.4,0.8-0.6c0.3-0.1,0.7-0.2,1.2-0.2
			c0.4,0,0.8,0.1,1.1,0.2c0.3,0.1,0.6,0.3,0.8,0.6c0.2,0.2,0.4,0.5,0.5,0.8c0.1,0.3,0.2,0.5,0.2,0.8H107.5z M119.4,89.7
			c0,0.8,0.1,1.5,0.2,2.1c0.2,0.6,0.4,1.2,0.8,1.6c0.4,0.4,0.9,0.8,1.5,1.1c0.6,0.3,1.3,0.4,2.2,0.4c1.4,0,2.7-0.5,3.9-1.4l-1.5-2.3
			c-0.2,0.2-0.5,0.3-0.8,0.5c-0.3,0.1-0.6,0.2-1,0.2c-0.5,0-0.9-0.2-1.1-0.5c-0.2-0.3-0.4-0.8-0.4-1.4V85l3.2,0v-3h-3.2v-3.7h-3.8
			V82h-2v3h2V89.7z M128.1,99c0.5,0.3,1,0.6,1.5,0.8c0.5,0.2,1.2,0.3,1.8,0.3c0.9,0,1.6-0.2,2.1-0.5c0.6-0.3,1.1-0.8,1.5-1.3
			c0.4-0.5,0.7-1.1,1-1.8c0.3-0.7,0.5-1.4,0.8-2l5.1-12.3h-4l-2.8,7.8L132,82h-4.3l5.6,12.2l-0.4,1c-0.2,0.6-0.5,1.1-0.8,1.3
			c-0.3,0.3-0.6,0.4-1,0.4c-0.3,0-0.6-0.1-0.8-0.2c-0.3-0.1-0.5-0.3-0.7-0.4L128.1,99z"/>
		<path class="st2" d="M56.2,71h6.6c1.1,0,2-0.1,2.9-0.3c0.9-0.2,1.6-0.5,2.2-0.9c0.6-0.4,1-0.9,1.4-1.6c0.3-0.6,0.5-1.4,0.5-2.3
			c0-0.7-0.1-1.3-0.4-1.8c-0.3-0.5-0.6-0.9-0.9-1.3c-0.4-0.3-0.8-0.6-1.2-0.8c-0.4-0.2-0.8-0.3-1.1-0.4c0.2-0.1,0.5-0.2,0.8-0.3
			c0.3-0.2,0.6-0.4,0.9-0.7c0.3-0.3,0.5-0.7,0.7-1.1c0.2-0.4,0.3-0.9,0.3-1.5c0-0.6-0.1-1.2-0.3-1.7c-0.2-0.6-0.6-1-1-1.5
			c-0.5-0.4-1.1-0.8-1.8-1c-0.8-0.3-1.7-0.4-2.8-0.4h-6.6C56.2,53.4,56.2,71,56.2,71z M60.1,60.4v-4h2.3c0.3,0,0.6,0,0.9,0.1
			c0.3,0.1,0.5,0.2,0.8,0.3c0.2,0.1,0.4,0.4,0.6,0.6c0.1,0.3,0.2,0.6,0.2,1c0,0.4-0.1,0.7-0.2,0.9c-0.1,0.3-0.3,0.5-0.5,0.6
			c-0.2,0.1-0.5,0.3-0.8,0.3c-0.3,0.1-0.6,0.1-0.9,0.1C62.4,60.4,60.1,60.4,60.1,60.4z M60.1,67.9v-4.6h2.6c0.3,0,0.6,0,1,0.1
			c0.4,0.1,0.7,0.2,1,0.3c0.3,0.2,0.5,0.4,0.7,0.7c0.2,0.3,0.3,0.7,0.3,1.2c0,0.5-0.1,0.9-0.3,1.2c-0.2,0.3-0.5,0.5-0.8,0.7
			c-0.3,0.2-0.6,0.3-1,0.3c-0.4,0-0.7,0.1-0.9,0.1L60.1,67.9L60.1,67.9z M71.5,66.3c0,1.7,0.4,2.9,1.2,3.7c0.8,0.8,2,1.3,3.4,1.3
			c0.7,0,1.4-0.2,2.1-0.5c0.7-0.3,1.2-0.7,1.6-1.2l0.1,1.3h3.6V58.6h-3.8v6.7c0,0.4-0.1,0.7-0.2,1c-0.1,0.3-0.3,0.6-0.5,0.9
			c-0.2,0.2-0.5,0.4-0.8,0.6c-0.3,0.1-0.6,0.2-1,0.2c-0.7,0-1.2-0.2-1.5-0.6c-0.3-0.4-0.5-1-0.5-1.7v-7.1h-3.8V66.3z M85.8,56.8h4.1
			v-3.4h-4.1V56.8z M85.9,71h3.8V58.6h-3.8V71z M92.1,71h3.8V53.4h-3.8V71z M106.7,71h3.5V53.4h-3.8v5.4c-0.4-0.1-0.7-0.2-1-0.3
			c-0.3-0.1-0.8-0.1-1.4-0.1c-0.7,0-1.5,0.1-2.3,0.4c-0.8,0.3-1.5,0.7-2.1,1.2c-0.6,0.5-1.1,1.2-1.5,2.1c-0.4,0.8-0.6,1.8-0.6,2.9
			c0,1,0.1,1.9,0.4,2.7c0.3,0.8,0.7,1.5,1.1,2c0.5,0.6,1.1,1,1.7,1.3c0.7,0.3,1.4,0.4,2.1,0.4c0.8,0,1.5-0.2,2.1-0.5
			c0.6-0.3,1.1-0.7,1.5-1.1L106.7,71z M106.5,65.4c0,0.4,0,0.7-0.1,1c-0.1,0.3-0.2,0.6-0.4,0.9c-0.2,0.2-0.5,0.4-0.8,0.6
			c-0.3,0.1-0.7,0.2-1.1,0.2c-0.9,0-1.5-0.3-2-0.9c-0.4-0.6-0.7-1.3-0.7-2.2c0-1,0.3-1.9,0.8-2.5c0.5-0.7,1.3-1,2.3-1
			c0.5,0,0.8,0,1.1,0.1c0.3,0.1,0.6,0.2,0.9,0.3V65.4z M112.5,56.8h4.1v-3.4h-4.1V56.8z M112.6,71h3.8V58.6h-3.8V71z M118.8,71h3.8
			v-6.6c0-0.4,0.1-0.7,0.2-1c0.1-0.3,0.3-0.6,0.5-0.9c0.2-0.2,0.5-0.4,0.8-0.6c0.3-0.1,0.7-0.2,1.1-0.2c0.6,0,1.1,0.2,1.4,0.6
			c0.3,0.4,0.5,0.9,0.5,1.6V71h3.8v-7.6c0-1.7-0.4-2.9-1.3-3.7c-0.8-0.8-2-1.3-3.4-1.3c-0.7,0-1.4,0.1-2.1,0.4
			c-0.7,0.3-1.2,0.7-1.6,1.2l-0.1-1.3h-3.6V71z M133.6,75.2c0.7,0.5,1.4,0.8,2.3,1c0.8,0.2,1.8,0.3,2.9,0.3c2,0,3.5-0.5,4.6-1.5
			c1.1-1,1.7-2.5,1.7-4.5V59.3c-0.7-0.3-1.6-0.5-2.5-0.7c-0.9-0.2-1.9-0.3-2.9-0.3c-1.1,0-2,0.2-2.9,0.5c-0.9,0.3-1.6,0.8-2.2,1.4
			c-0.6,0.6-1.1,1.3-1.5,2.1c-0.3,0.8-0.5,1.7-0.5,2.7c0,0.9,0.1,1.7,0.4,2.4c0.3,0.7,0.6,1.3,1.1,1.9c0.5,0.5,1.1,0.9,1.8,1.2
			c0.7,0.3,1.5,0.4,2.4,0.4c1.3,0,2.4-0.3,3.2-1v0.9c0,0.9-0.2,1.6-0.7,2.1c-0.5,0.5-1.2,0.7-2,0.7c-0.7,0-1.3-0.1-1.8-0.3
			c-0.6-0.2-1.1-0.4-1.6-0.7L133.6,75.2z M141.3,65.5c0,0.8-0.2,1.4-0.6,1.8c-0.4,0.4-1,0.6-1.8,0.6c-0.8,0-1.5-0.3-1.9-0.8
			c-0.4-0.5-0.6-1.2-0.6-2.1c0-0.5,0.1-0.9,0.2-1.3c0.1-0.4,0.3-0.8,0.6-1.1c0.3-0.3,0.6-0.6,1-0.7c0.4-0.2,0.9-0.3,1.4-0.3
			c0.4,0,0.7,0,1,0.1c0.2,0,0.5,0.1,0.7,0.2V65.5z"/>
		<path class="st2" d="M56.2,47.5h12.4V44h-8.4V29.9h-4C56.2,29.9,56.2,47.5,56.2,47.5z M80.2,43.8c-0.3,0.2-0.7,0.5-1.3,0.8
			c-0.6,0.3-1.4,0.4-2.4,0.4c-1,0-1.8-0.3-2.4-0.8c-0.6-0.5-0.9-1.1-0.9-1.8H82v-0.6c0-1-0.1-2-0.4-2.9c-0.3-0.9-0.7-1.6-1.2-2.2
			c-0.5-0.6-1.2-1.1-1.9-1.5c-0.8-0.4-1.6-0.5-2.6-0.5c-1,0-1.9,0.2-2.7,0.5c-0.8,0.4-1.5,0.8-2,1.4c-0.5,0.6-1,1.3-1.3,2.1
			c-0.3,0.8-0.4,1.6-0.4,2.5c0,1,0.2,1.9,0.5,2.7c0.3,0.8,0.8,1.5,1.3,2.1c0.6,0.6,1.3,1,2.1,1.4c0.8,0.3,1.8,0.5,2.8,0.5
			c0.8,0,1.5-0.1,2.1-0.2c0.6-0.1,1.1-0.3,1.6-0.5c0.4-0.2,0.8-0.4,1.1-0.6c0.3-0.2,0.5-0.3,0.6-0.4L80.2,43.8z M73.2,40
			c0-0.3,0.1-0.5,0.2-0.8c0.1-0.3,0.3-0.5,0.5-0.8c0.2-0.2,0.5-0.4,0.8-0.6c0.3-0.1,0.7-0.2,1.2-0.2c0.4,0,0.8,0.1,1.1,0.2
			c0.3,0.1,0.6,0.3,0.8,0.6c0.2,0.2,0.4,0.5,0.5,0.8c0.1,0.3,0.2,0.5,0.2,0.8H73.2z M94.3,43.8C94,44,93.6,44.2,93,44.5
			c-0.6,0.3-1.4,0.4-2.4,0.4c-1,0-1.8-0.3-2.4-0.8c-0.6-0.5-0.9-1.1-0.9-1.8h8.8v-0.6c0-1-0.1-2-0.4-2.9c-0.3-0.9-0.7-1.6-1.2-2.2
			c-0.5-0.6-1.2-1.1-1.9-1.5c-0.8-0.4-1.6-0.5-2.6-0.5c-1,0-1.9,0.2-2.7,0.5c-0.8,0.4-1.5,0.8-2,1.4c-0.5,0.6-1,1.3-1.3,2.1
			c-0.3,0.8-0.4,1.6-0.4,2.5c0,1,0.2,1.9,0.5,2.7c0.3,0.8,0.8,1.5,1.3,2.1c0.6,0.6,1.3,1,2.1,1.4c0.8,0.3,1.8,0.5,2.8,0.5
			c0.8,0,1.5-0.1,2.1-0.2c0.6-0.1,1.1-0.3,1.6-0.5c0.4-0.2,0.8-0.4,1.1-0.6c0.3-0.2,0.5-0.3,0.6-0.4L94.3,43.8z M87.3,40
			c0-0.3,0.1-0.5,0.2-0.8c0.1-0.3,0.3-0.5,0.5-0.8c0.2-0.2,0.5-0.4,0.8-0.6c0.3-0.1,0.7-0.2,1.2-0.2c0.4,0,0.8,0.1,1.1,0.2
			c0.3,0.1,0.6,0.3,0.8,0.6c0.2,0.2,0.4,0.5,0.5,0.8c0.1,0.3,0.2,0.5,0.2,0.8H87.3z M106.9,47.5h3.5V29.9h-3.8v5.4
			c-0.4-0.1-0.7-0.2-1-0.3c-0.3-0.1-0.8-0.1-1.4-0.1c-0.7,0-1.5,0.1-2.3,0.4c-0.8,0.3-1.5,0.7-2.1,1.2c-0.6,0.5-1.1,1.2-1.5,2.1
			c-0.4,0.8-0.6,1.8-0.6,2.9c0,1,0.1,1.9,0.4,2.7c0.3,0.8,0.7,1.5,1.1,2c0.5,0.6,1.1,1,1.7,1.3c0.7,0.3,1.4,0.4,2.1,0.4
			c0.8,0,1.5-0.2,2.1-0.5c0.6-0.3,1.1-0.7,1.5-1.1L106.9,47.5z M106.6,41.9c0,0.4,0,0.7-0.1,1c-0.1,0.3-0.2,0.6-0.4,0.9
			c-0.2,0.2-0.5,0.4-0.8,0.6c-0.3,0.1-0.7,0.2-1.1,0.2c-0.9,0-1.5-0.3-2-0.9c-0.4-0.6-0.7-1.3-0.7-2.2c0-1,0.3-1.9,0.8-2.5
			c0.5-0.7,1.3-1,2.3-1c0.5,0,0.8,0,1.1,0.1c0.3,0.1,0.6,0.2,0.9,0.3V41.9z M112.1,46.1c0.6,0.6,1.4,1.1,2.4,1.4
			c1,0.3,2,0.4,3.1,0.4c0.7,0,1.4-0.1,2-0.2c0.7-0.2,1.2-0.4,1.8-0.7c0.5-0.3,0.9-0.7,1.2-1.2c0.3-0.5,0.5-1.1,0.5-1.8
			c0-1-0.3-1.8-0.9-2.5c-0.6-0.6-1.5-1.1-2.8-1.5c-0.9-0.2-1.7-0.5-2.2-0.7c-0.5-0.2-0.8-0.5-0.8-0.9c0-0.3,0.1-0.5,0.4-0.7
			c0.3-0.2,0.7-0.3,1.3-0.3c0.6,0,1.2,0.1,1.8,0.3c0.5,0.2,1,0.4,1.4,0.7l1.6-2.5c-0.7-0.5-1.4-0.8-2.2-1c-0.8-0.2-1.7-0.4-2.8-0.4
			c-0.7,0-1.4,0.1-2.1,0.3c-0.6,0.2-1.2,0.4-1.7,0.8c-0.5,0.3-0.8,0.7-1.1,1.2c-0.3,0.5-0.4,1-0.4,1.6c0,0.6,0.1,1.1,0.3,1.5
			c0.2,0.4,0.5,0.8,0.9,1.1c0.4,0.3,0.8,0.5,1.2,0.8c0.5,0.2,0.9,0.4,1.4,0.5c0.6,0.2,1.1,0.3,1.4,0.4c0.4,0.1,0.7,0.2,0.9,0.4
			c0.2,0.1,0.4,0.2,0.4,0.4c0.1,0.1,0.1,0.3,0.1,0.4c0,0.4-0.2,0.7-0.6,0.8c-0.4,0.1-0.8,0.2-1.4,0.2c-0.6,0-1.3-0.1-1.9-0.4
			c-0.7-0.2-1.2-0.6-1.6-0.9L112.1,46.1z"/>
	</g>
</g>
</svg>
