<?xml version="1.0" encoding="utf-8"?>
<!-- Generator: Adobe Illustrator 25.3.0, SVG Export Plug-In . SVG Version: 6.00 Build 0)  -->
<svg version="1.1" id="Layer_1" xmlns="http://www.w3.org/2000/svg" xmlns:xlink="http://www.w3.org/1999/xlink" x="0px" y="0px"
	 viewBox="0 0 750.2 400.1" style="enable-background:new 0 0 750.2 400.1;" xml:space="preserve">

<g>
	<path class="st0" d="M264.9,182.5c-3.7,2.7-7.5,5.5-11.3,8.3c1.7-0.6,3.3-1.2,4.9-1.8c6.7-3.6,13.5-7.1,20.2-10.5v-6.9
		c-16,8.1-32.1,16.9-48.2,26C242,192.5,253.4,187.4,264.9,182.5z"/>
	<path class="st0" d="M238.3,182.9c-31.8,14-63.5,28.7-94.9,39.3h25.1c5.1-1.7,10.3-3.5,15.4-5.3c6.2-2.2,12.4-4.5,18.7-6.8
		c6.4-2.9,12.9-5.7,19.3-8.7c10.9-8.3,21.7-16.5,32.5-24.4C249,178.9,243.6,180.9,238.3,182.9z"/>
	<path class="st0" d="M278.7,222.2v-4.5c-3.2,1.5-6.4,3-9.6,4.5H278.7z"/>
	<path class="st0" d="M262.9,222.2c1.2-0.7,2.4-1.3,3.6-2c-1.5,0.7-3,1.3-4.5,2H262.9z"/>
	<path class="st0" d="M234.5,216.1c-3.3,2-6.6,4.1-10,6.1h17.4c12.2-4.4,24.5-8.8,36.8-12.8V197
		C263.9,202.9,249.2,209.5,234.5,216.1z"/>
	<path class="st0" d="M176.2,165.5h-17.4c-6.3,3.3-12.7,6.4-19.1,9.4c1.1,0.7,2.3,1.3,3.6,2C154.3,173.5,165.2,169.7,176.2,165.5z"
		/>
	<path class="st0" d="M125.6,175.8c10.9-2.8,21.9-6.4,32.9-10.3h-32.9V175.8z"/>
	<path class="st0" d="M185.3,175.1c-0.6,0.4-1.1,0.7-1.7,1.1c-2.9,1-5.8,1.9-8.8,2.9c-7.6,2.8-15.2,5.5-22.8,8
		c-4.3,3.1-8.5,6.1-12.8,9.1c-4.5,1.1-9.1,2.1-13.6,2.9v11.5c1.5-0.3,2.9-0.6,4.4-0.8c29.8-7.5,59.8-19.4,90.1-31.6
		c8.5-4.2,16.9-8.5,25.4-12.7h-36.2C201.3,168.8,193.3,172,185.3,175.1z"/>
</g>
</svg>
