<?xml version="1.0" encoding="utf-8"?>
<!-- Generator: Adobe Illustrator 25.3.0, SVG Export Plug-In . SVG Version: 6.00 Build 0)  -->
<svg version="1.1" id="Layer_1" xmlns="http://www.w3.org/2000/svg" xmlns:xlink="http://www.w3.org/1999/xlink" x="0px" y="0px"
	 viewBox="0 0 200 100" style="enable-background:new 0 0 200 100;" xml:space="preserve">
<style type="text/css">
	.st0{fill:#1D1D1B;}
</style>
<g>
	<path class="st0" d="M126.5,64.6c-3.8,0-6.6,2.7-6.6,6.4s2.8,6.5,6.6,6.5c3.8,0,6.6-2.8,6.6-6.5C133.2,67.3,130.3,64.6,126.5,64.6z
		 M126.6,74.6c-1.8,0-3.4-1.6-3.4-3.6c0-2.1,1.5-3.6,3.4-3.6c1.8,0,3.3,1.5,3.3,3.6C129.9,73,128.4,74.6,126.6,74.6z"/>
	<polygon class="st0" points="144.4,64.7 140.6,64.7 138.3,68.2 136,64.7 132.3,64.7 136.4,70.9 132,77.3 135.8,77.3 138.3,73.4 
		140.9,77.3 144.8,77.3 140.4,70.7 	"/>
	<polygon class="st0" points="163.9,64.7 163.9,72.3 158.3,64.7 155.5,64.7 155.5,77.3 158.5,77.3 158.5,69.7 164,77.3 166.8,77.3 
		166.8,64.7 	"/>
	<polygon class="st0" points="144.9,67.3 153.5,67.3 153.5,64.7 146.6,64.7 	"/>
	<polygon class="st0" points="147,77.3 153.5,77.3 153.5,74.6 145.2,74.6 	"/>
	<polygon class="st0" points="143.3,69.6 142.6,70.7 143.6,72.2 153.5,72.2 153.5,69.6 	"/>
	<path class="st0" d="M166.4,36c0-1-0.8-1.7-1.7-1.7h-8.8L161,25c0.5-0.8,0.2-1.9-0.7-2.4c-0.8-0.5-1.9-0.2-2.4,0.7l-6.1,11H134
		l-6.1-11c-0.5-0.8-1.5-1.1-2.4-0.7c-0.8,0.5-1.1,1.5-0.7,2.4l5.2,9.3h-7.8c-1,0-1.7,0.8-1.7,1.7s0.8,1.7,1.7,1.7h9.8l9.4,17
		c0.3,0.6,0.9,0.9,1.5,0.9s1.2-0.3,1.5-0.9l9.4-17h10.7C165.6,37.8,166.4,37,166.4,36z M143,50.3l-7-12.6h13.9L143,50.3z"/>
</g>
</svg>
