<?xml version="1.0" encoding="utf-8"?>
<!-- Generator: Adobe Illustrator 25.3.0, SVG Export Plug-In . SVG Version: 6.00 Build 0)  -->
<svg version="1.1" id="Layer_1" xmlns="http://www.w3.org/2000/svg" xmlns:xlink="http://www.w3.org/1999/xlink" x="0px" y="0px"
	 viewBox="0 0 750.2 400.1" style="enable-background:new 0 0 750.2 400.1;" xml:space="preserve">
<g>
	<path d="M331.5,134.6c-0.3-1.2-0.5-2.4-0.8-3.6c-4.1-0.4-8.3-0.7-12.4-0.8c-2.5-0.1-4.9,0-7.4,0l0.7,4
		C318.3,134.1,324.9,134.2,331.5,134.6z"/>
	<path d="M398.5,270.7c4.4-0.6,8.9-1.3,13.3-1.9l1-5.5c-2.5,0.3-5.1,0.6-7.7,0.8c-3.5,0.3-7,0.7-10.4,1.1c-0.2,2.2-0.4,4.2-0.6,6.2
		C395.5,271.1,397,270.9,398.5,270.7z"/>
	<path d="M607.5,123.8c-0.1-0.3-0.1-0.5-0.2-0.8c-0.2,0-0.5,0.1-0.7,0.1c0.2,0.2,0.4,0.3,0.7,0.5
		C607.3,123.6,607.4,123.7,607.5,123.8z"/>
	<path d="M602.1,126.3c-1.8-0.6-3.6-1.1-5.5-1.7c-2.4,0.3-5.1,0.7-8.1,1l0.3,2c0.2,0.1,0.3,0.1,0.5,0.2c7.1,3.2,14.2,6.3,21.2,9.5
		c-0.9-4-1.7-7.6-2.4-10.8C606,126.5,603.5,126.8,602.1,126.3z"/>
	<path d="M590,134.5l0.9,5c2.7,1,5.5,1.9,8.3,2.8c2.7,0.9,6.1,1.3,9.2,1.9c0.5-0.3,1-0.7,1.5-1c-3.1-1.5-5.8-3.2-9.2-4.5
		C597.1,137.3,593.6,135.9,590,134.5z"/>
	<path d="M343,190c-0.3-1.7-0.7-3.5-1-5.2c-7.6-0.5-14.8,0.1-21.3,1.7l0.9,5.2C327.6,189.9,335.1,189,343,190z"/>
	<path d="M414.9,251c-6,1.6-12.3,2.7-18.9,3.3c-0.3,2.1-0.6,4.2-0.8,6.3c6.2-0.4,12.4-1,18.4-1.8L414.9,251z"/>
	<path d="M345.7,203.7c-0.4-2.3-0.9-4.6-1.3-6.9c-2.5-0.7-5.3-1.2-8.5-1.4c-4.4-0.2-7.9,0.3-10.9,1.9c-0.7,0.4-1.4,0.8-2.1,1.2
		l1.6,9c1.4-1.4,3.2-2.8,5.4-4.1C334.7,200.4,341.1,200.7,345.7,203.7z"/>
	<path d="M132.2,258.9c1.2-1.6,2.6-3.3,3.9-4.9l3.8-22.1c-2.7,4.1-5.7,8.2-8.7,12.3c-4.6,6.2-9.2,12.5-14.6,18.6
		c-0.6,5.1-1,9.8-1.3,14C122.3,271.2,127.5,265.1,132.2,258.9z"/>
	<path d="M130.5,223.2c0.8-1,1.7-2.1,3.4-2.7c1.9-0.7,5.1-1.4,6.9-1.1c0.4,0.1,0.9,0.2,1.3,0.4l7.8-44.9c-2.2,2.5-4.1,5-6.9,7.2
		c-4.8,3.7-9.9,7.3-14.9,11c-0.7,3.6-1.4,7.2-2,10.8c0.4-0.4,0.8-0.8,1.2-1.2c1.6-1.7,3.9-3.2,6.5-4.6c1.5-0.8,4.1-1.2,6.2-1.7
		c-0.2,1.1,0.2,2.3-0.7,3.3c-5.4,6-10.7,12-15.6,18.1c-1.3,7.4-2.5,14.7-3.6,21.7c2.1-3.2,4.1-6.4,5.8-9.6
		C126.8,227.5,128.7,225.3,130.5,223.2z"/>
	<path d="M140,171.5c2-0.6,5.2-1.9,5.9-1.6c1.8,0.6,2.9,1.6,4.3,2.8l3.5-20c-6,2.6-11.8,5.2-17.7,7.8c-0.6,0.3-1.1,0.6-1.6,1
		c-1.1,5.4-2.3,10.9-3.4,16.7c2.6-2,5.2-3.9,7.8-5.9C139.1,172,139.5,171.7,140,171.5z"/>
	<path d="M595.7,167.5l2.1,11.8c1.2,0,2.7,0.3,3.7,0.6c1.3,0.4,2.2,1.2,3.1,1.9c4.7,3.5,9.3,7.1,14,10.6c1.3,0.9,2.5,1.9,3.8,2.9
		c-0.8-4.2-1.6-8.3-2.4-12.4C612.3,177.7,604.1,172.6,595.7,167.5z"/>
	<path d="M329,123c-0.9,0.1-2.3,0.4-4.4,0.7c1.5,0.2,3.1,0.3,4.6,0.4C329.1,123.7,329.1,123.4,329,123z"/>
	<path d="M334.5,265.8l1.3,7.6c4.5-2.9,9.1-5.7,14.1-8.4c1.6-0.9,3.3-1.6,5.2-2.2c-1.6-14.1-4.4-31.2-7.5-48.8
		c-2.2-1.3-5-2.4-8.8-1.7c-5,0.9-4.2,3.3-3.5,5.3c1.3,3.4,3.6,6.7,4.6,10.1c1.8,6,3.6,11.9,4.5,17.9
		C345.5,253.1,341.6,259.8,334.5,265.8z"/>
	<path d="M599.1,186.5l2,11.7c1.1,0.9,2.1,1.9,3,2.8c11,12.2,20,24.7,25.9,37.5c-1.5-9.5-3.2-19.6-5.1-29.8
		C615.2,201.6,606.7,194.2,599.1,186.5z"/>
	<path d="M322.1,158.6c0.2,0.3,0.3,0.7,0.5,1c-2.1,0.4-4.2,0.9-6.3,1.3l0.6,3.4c1.2-0.1,2.5-0.3,3.7-0.4c2.3-0.2,4.6-0.2,6.9-0.3
		c0.1,0.2,0.1,0.4,0.2,0.7c-1.7,0.3-3.3,0.6-5.1,0.8c-1.9,0.2-3.7,0.5-5.5,0.8l1,5.6c2.7-0.6,5.4-1.1,8.1-1.7
		c3.9-0.7,8.3-1.2,12.5-1.3c-1.4-7-2.8-13.6-4.1-19.8c-6.7-0.2-13.4,0.2-20.2,1.2l1.5,8.6C317.9,158.5,320,158.6,322.1,158.6z"/>
	<path d="M410.4,276.9c-5.5,0.6-11.2,0.8-16.9,1c0,0,0,0,0,0c5.5,1.4,10.8,2.7,16,3.8L410.4,276.9z"/>
	<path d="M343.1,277.3c-0.8,1-0.4,2.3-0.6,3.4c1.1-0.1,2.3-0.1,3.5-0.2c3.4-0.8,7-1.6,10.5-2.5c-0.2-2.6-0.4-5.4-0.7-8.4
		C350.2,271.3,346,273.8,343.1,277.3z"/>
	<path d="M330.5,242.5c0.6-6.2-0.1-12.3-3.2-18.3L330.5,242.5z"/>
	<path d="M410.1,174.1c5.8,2.9,11.4,5.9,16.6,9l1.5-8.6c-5.2-2.8-10.7-5.5-16.6-7.9C411.1,169.1,410.6,171.6,410.1,174.1z"/>
	<path d="M312.4,138.9l0.8,4.8c6.7-0.4,13.5-0.5,20.2-0.1c-0.3-1.4-0.6-2.7-0.9-4.1c0,0,0,0-0.1,0C325.7,139,319,138.8,312.4,138.9z
		"/>
	<path d="M592.4,148l1.7,10c7.8,4.5,15.7,9,23.6,13.4c-0.7-3.4-1.4-6.8-2.1-10c-6.4-3.8-12.9-7.6-19.5-11.4
		C594.9,149.4,593.6,148.7,592.4,148z"/>
	<path d="M611.4,257.5l3.2,18.5c6.3-7.8,8.6-16.1,5.6-25.2c-3.9-12.1-9.2-24.1-16.3-35.9l5.2,30.1c0.2,0.6,0.4,1.2,0.6,1.8
		C611,250.5,611.5,254,611.4,257.5z"/>
	<path d="M629.5,279.3c1.7-0.4,3.5-0.9,5.3-1.3c-0.1-1.6-0.2-3.4-0.4-5.2C633.3,275,631.7,277.2,629.5,279.3z"/>
	<path d="M432.1,151.9C432.1,151.9,432.2,151.9,432.1,151.9l0.6-3.4c-1.2,0-2.5-0.1-3.6-0.2C430.1,149.5,430.5,150.9,432.1,151.9z"
		/>
	<path d="M319.7,180.4c6.5-1.4,13.5-2.1,21-2.2c-0.3-1.3-0.5-2.6-0.8-3.8c-6.8,0.3-13.8,1.3-20.8,3.1L319.7,180.4z"/>
	<path d="M408.5,231.3c-2.7-1.5-5.5-3-8.2-4.6c-1.3,7.5-2.4,14.9-3.4,21.8c5.3-0.4,10-1.8,13.8-4.2
		C416.8,240.4,416,235.5,408.5,231.3z"/>
	<path d="M421,216.3c-5.7-3-11.5-5.9-17.3-8.9c-0.6,3.2-1.2,6.4-1.7,9.6c5.7,3.2,11.5,6.4,17.2,9.6L421,216.3z"/>
	<path d="M436.7,125.8c-3.6-0.4-6.6-0.7-9-1c2.9,1,5.9,1.9,8.7,3L436.7,125.8z"/>
	<path d="M422.5,207.6l3-17c-4.7-3.7-10.1-7.1-16.5-10.3c-0.5,2.5-1,4.9-1.5,7.5c0.3,0.2,0.7,0.4,1,0.6c2.9,1.7,6,3.5,4.7,6.2
		c-2.4-0.6-4.5-1.4-6.6-2.1c-0.5,2.4-0.9,4.8-1.4,7.2c1.2,0.5,2.4,1.1,3.6,1.6C413.5,203.1,418.1,205.3,422.5,207.6z"/>
	<path d="M412.6,162.2c5.9,2.2,11.4,4.6,16.6,7.1l1.4-7.8c-5.3-2.7-10.6-5.3-16.1-7.8C413.8,156.4,413.2,159.3,412.6,162.2z"/>
	<path d="M434.5,138.6l1.2-7.1c-4.9-2-10-3.9-15.3-5.6c-0.5,2.1-1,4.3-1.5,6.7C424.2,134.5,429.4,136.5,434.5,138.6z"/>
	<path d="M158,128l0.4-2.3c-5-0.5-8.9-1-11.7-1.4c-1.6,0.5-3.1,0.9-4.6,1.4c-0.5,2.3-1.1,4.8-1.6,7.4
		C145.8,131.3,151.7,129.5,158,128z"/>
	<path d="M155.1,144.7l1.6-9.5c-3,1.3-6,2.6-8.8,3.9c-3.4,1.6-6.6,3.2-9.8,4.8c-0.7,3.4-1.5,7-2.3,10.8
		C142,151.2,148.5,147.9,155.1,144.7z"/>
	<path d="M131.2,281.8l1-6c-2.5,1.5-5,3-7.4,4.6C127,280.8,129.1,281.3,131.2,281.8z"/>
	<path d="M422.2,140.6c-1.5-0.7-3.1-1.3-4.6-1.9c-0.3,1.6-0.7,3.3-1.1,5c1,0.1,2,0.1,3,0.1c1.4-0.1,3.1-0.7,3.8-1.2
		C423.7,142,423.1,141,422.2,140.6z"/>
</g>
</svg>
