<?xml version="1.0" encoding="utf-8"?>
<!-- Generator: Adobe Illustrator 25.3.0, SVG Export Plug-In . SVG Version: 6.00 Build 0)  -->
<svg version="1.1" id="Layer_1" xmlns="http://www.w3.org/2000/svg" xmlns:xlink="http://www.w3.org/1999/xlink" x="0px" y="0px"
	 viewBox="0 0 400 140" style="enable-background:new 0 0 400 140;" xml:space="preserve">
<style type="text/css">
	.st0{fill:#FFFFFF;}
</style>
<g>
	<path class="st0" d="M223.8457,102.91206h-20.44467V64.2515h19.39877c8.70491,0,13.58415,3.94364,13.58415,10.26789
		c0,3.31236-1.74178,6.50684-4.99344,8.24477c4.06544,1.57439,6.21411,4.81831,6.21411,8.76192
		C237.60463,98.61476,232.38327,102.91206,223.8457,102.91206 M221.86812,73.59149h-7.43085v5.3393h7.43085
		c2.03445,0,3.48354-0.86705,3.48354-2.72671C225.35165,74.34446,223.90257,73.59149,221.86812,73.59149 M222.91402,87.46455
		h-8.47675v6.09991h8.47675c2.03445,0,3.48724-1.10665,3.48724-3.01192C226.40126,88.62827,224.94847,87.46455,222.91402,87.46455"
		/>
	<path class="st0" d="M258.21204,73.18648l3.89041,13.99098h-7.78062L258.21204,73.18648z M251.76627,64.24958l-13.75916,38.65676
		h12.0211l1.96994-7.13809h12.48112l1.98526,7.13809h12.23767l-13.69418-38.65676H251.76627z"/>
	<path class="st0" d="M304.29422,76.59047c-2.25522-3.17545-5.65891-4.33154-9.01315-4.33154
		c-2.8255,0-4.55963,1.03821-4.55963,2.77235c0,2.31219,3.51395,2.82939,7.33197,3.41124
		c8.37415,1.32722,15.25372,3.75729,15.25372,11.83471c0,7.39289-5.83368,13.22277-16.81284,13.22277
		c-8.89499,0-15.76691-3.81433-18.88162-10.45045l8.4881-4.21745c2.48337,4.39237,6.52585,5.94398,10.74728,5.94398
		c3.57477,0,5.77286-1.14469,5.77286-3.05376c0-2.71911-4.39621-3.00812-7.45383-3.52532
		c-7.62488-1.21313-15.30292-3.92461-15.30292-12.35951c0-7.56402,6.12265-12.18456,15.5882-12.18456
		c6.18347,0,12.99829,1.96611,17.09784,8.25995L304.29422,76.59047z"/>
	<polygon class="st0" points="317.31525,64.24958 317.31525,102.90634 348.37372,102.90634 348.37372,93.15186 328.29044,93.15186 
		328.29044,87.2383 345.23233,87.2383 345.23233,78.64368 328.29044,78.64368 328.29044,73.9965 347.78787,73.9965 
		347.78787,64.24958 	"/>
	<polygon class="st0" points="105.32592,64.25338 105.32592,79.46509 86.16667,79.46509 86.16667,64.25338 79.37831,64.25338 
		79.37831,102.91014 86.16667,102.91014 86.16667,85.5536 105.32592,85.5536 105.32592,102.91014 112.17857,102.91014 
		112.17857,64.25338 	"/>
	<rect x="118.38548" y="64.26136" class="st0" width="6.73497" height="38.65676"/>
	<path class="st0" d="M155.87672,102.91244l-7.78087-14.79719h-9.75081v14.79719h-6.79184V64.25187h17.35643
		c8.53378,0,13.53076,4.70802,13.53076,11.67119c0,5.51046-3.48726,9.28675-7.72354,10.91441l8.76178,16.07497H155.87672z
		 M148.73486,70.17683h-10.38982v12.24543h10.50378c3.95496,0,6.61705-2.37683,6.61705-6.09988
		C155.46588,72.43958,152.68216,70.17683,148.73486,70.17683"/>
	<polygon class="st0" points="168.54959,64.25338 168.54959,102.91014 197.29207,102.91014 197.29207,96.98899 175.34909,96.98899 
		175.34909,85.49656 193.91878,85.49656 193.91878,79.5792 175.34909,79.5792 175.34909,70.17836 196.70644,70.17836 
		196.70644,64.25338 	"/>
	<polygon class="st0" points="51.62627,36.5 51.62627,56.70117 51.62627,76.90611 71.82724,76.90611 71.82724,56.70117 
		92.02843,56.70117 92.02843,36.5 	"/>
</g>
</svg>
