<?xml version="1.0" encoding="utf-8"?>
<!-- Generator: Adobe Illustrator 25.3.0, SVG Export Plug-In . SVG Version: 6.00 Build 0)  -->
<svg version="1.1" id="Layer_1" xmlns="http://www.w3.org/2000/svg" xmlns:xlink="http://www.w3.org/1999/xlink" x="0px" y="0px"
	 viewBox="0 0 170 120" style="enable-background:new 0 0 170 120;" xml:space="preserve">
<style type="text/css">
	.st0{fill:#1F1646;}
	.st1{fill:#FFFFFF;}
</style>
<g>
	<path class="st0" d="M137.12491,67.13802c-0.17488-0.51598-0.25462-1.09731-0.25462-1.41929
		c0-0.57059,0.47575-1.42096,0.94148-2.17786l-0.00368,0.00637c0,0,1.95705-3.3013,3.19978-5.39706
		c-0.65839,0.52638-1.27357,1.00081-1.80933,1.39416c-0.5029,0.36957-0.9234,0.65905-1.25041,0.86076
		c-0.5009,0.30892-0.71567,0.37225-0.88387,0.37225c0,0-0.04623-0.00202-0.04959-0.00202
		c-0.57764-0.04423-1.24405-0.44428-1.78416-1.07151c-0.33505-0.38933-0.73914-1.0008-0.97935-1.86557
		c-0.80515,0.78772-1.78384,1.71381-2.77927,2.48476c-1.52217,1.17839-2.76221,1.75134-3.79184,1.75134
		c-0.69321,0-1.31342-0.28547-1.7463-0.80346c-0.39301-0.47075-0.60946-1.10267-0.60946-1.77949
		c0-0.43958,0.06634-0.86443,0.16721-1.27252c-0.6001,0.62788-1.27357,1.32581-1.96912,1.88267
		c-0.89495,0.71667-1.66723,1.0648-2.36147,1.0648c-0.86814,0-1.64816-0.45467-2.19697-1.27991
		c-0.44462-0.66943-0.71032-1.557-0.71032-2.37352c0-1.92991,0.83965-3.66483,1.54394-4.78056
		c0.86611-1.3717,2.01939-2.5893,3.16425-3.34084c0.00101-0.00066,0.00234-0.00132,0.00336-0.002
		c0.55149-0.35448,1.0648-0.42718,1.66622-0.42718c0.05428,0,0.15111-0.00672,0.2533-0.01409
		c0.17122-0.01171,0.38397-0.02681,0.60611-0.02681c0.39436,0,0.70228,0.04892,0.94083,0.14977
		c0.40509,0.17055,0.62789,0.49389,0.62789,0.91036c0,0.05362-0.00401,0.10891-0.01138,0.1645l0.00067-0.00535
		c-0.03987,0.31797-0.24828,0.70127-0.63761,1.17169c-0.27776,0.33573-0.5907,0.64363-0.79039,0.81183
		c-0.03954,0.04491-0.29787,0.33807-0.29787,0.33807c-0.74918,0.85273-1.05946,1.20553-2.21739,2.0368
		c-0.00068,0.00068-0.00134,0.001-0.00201,0.00135c-0.43055,0.30556-0.87014,0.64465-1.16801,1.05208
		c-0.29315,0.40071-0.42953,0.83796-0.42953,1.37674c0,0.00333,0,0.00635,0,0.00971c0.22114-0.062,0.61349-0.2178,1.19112-0.54782
		c0.75823-0.43321,1.54795-1.00449,2.22308-1.60793l3.21049-2.88583l-0.00133,0.00101
		c0.08978-0.08108,0.22513-0.20707,0.39636-0.36688c0.54178-0.50527,1.44878-1.35062,2.30083-2.06193
		c1.45883-1.21859,1.96609-1.38277,2.26997-1.38277c0.35181,0,0.61449,0.15647,0.80315,0.47812
		c0.19768,0.33741,0.31963,0.88186,0.38362,1.71348c0.00302,0.03751,0.0047,0.07672,0.0047,0.11692
		c0,0.42787-0.18295,0.85976-0.55919,1.32047c-0.28448,0.34811-0.63362,0.65336-0.88824,0.87615l-0.03654,0.03217l0.00539-0.00503
		c-0.48181,0.4366-1.29533,1.28125-2.00229,2.2241c-0.7693,1.0256-1.19279,1.88167-1.19279,2.41039
		c0,0.10588,0.01842,0.18428,0.04958,0.21008c0.01776,0.0144,0.09213,0.06131,0.31898,0.06131
		c0.22214,0,0.7867-0.12632,2.07166-0.97165c0.80177-0.52805,1.62567-1.16634,2.20898-1.63038
		c0.23422-0.8058,0.65738-1.64547,1.26016-2.49784c0.53139-0.75219,1.18608-1.49501,1.94598-2.20767
		c0.62657-0.58768,1.31075-1.13651,1.92624-1.54493c0.63358-0.42085,1.10602-0.63963,1.40387-0.65035
		c0.00537-0.00033,0.01039-0.00033,0.01575-0.00033c0.47946,0,0.96194,0.45132,1.20688,0.72037
		c0.1893,0.20808,0.62988,0.74316,0.62988,1.21391c0,0.39068-0.21341,0.87046-0.67212,1.51041
		c-0.34209,0.47712-0.81851,1.03734-1.41592,1.66489c-1.08089,1.13484-2.23918,2.15944-2.76286,2.57892
		c-0.20439,0.3039-0.34778,0.64632-0.42821,1.02393c0.53006-0.14944,1.08725-0.42653,1.688-0.83865
		c0.73915-0.50692,1.43135-1.13482,2.13466-1.78784c0.00031-0.00034,0.00064-0.00068,0.00099-0.00102
		c1.10971-1.02358,2.06293-1.93794,2.9039-2.74475c2.08908-2.00396,2.83792-2.70088,3.35927-2.78331l-0.00938,0.00169
		c0.04556-0.00838,0.09213-0.0124,0.13838-0.0124c0.29384,0,0.70796,0.16116,1.01219,0.92877
		c0.14474,0.36522,0.24594,0.83429,0.24594,1.14052c0,0.4436-0.17859,0.99747-0.54581,1.69404
		c-0.29585,0.56154-0.66174,1.11036-0.85841,1.40522c-0.00032,0.00067-0.00067,0.001-0.00101,0.00167
		c0,0-1.64745,2.44891-3.06206,4.55171c2.13229-1.89205,4.86667-4.3185,4.86667-4.3185
		c0.08209-0.07305,0.18694-0.1116,0.29352-0.1116c0.04588,0,0.09245,0.00705,0.13736,0.02179
		c0.14943,0.04892,0.26169,0.17322,0.29485,0.32701l0.25967,1.20018c0.00668,0.03115,0.01004,0.06265,0.01004,0.09381
		c0,0.10891-0.04021,0.21511-0.11491,0.2972l-9.7625,10.73549c-0.05695,0.06232-0.14172,0.16585-0.23988,0.28545
		c-0.66409,0.81017-1.26082,1.48095-1.83911,1.48095C137.93742,68.2953,137.44623,68.08456,137.12491,67.13802 M121.52544,57.08572
		c-0.00034-0.00068-0.00034-0.00102-0.00066-0.00167C121.52511,57.0847,121.52511,57.08504,121.52544,57.08572 M73.23237,67.13801
		c-0.1749-0.51565-0.25465-1.09731-0.25465-1.41929c0-0.57227,0.4761-1.4223,0.9415-2.17786l-0.00369,0.00637
		c0,0,1.95808-3.30263,3.20045-5.39806c-0.65839,0.52635-1.27421,1.00147-1.80996,1.39516
		c-0.50292,0.36957-0.92375,0.65905-1.25043,0.86076c-0.50091,0.30892-0.71567,0.37225-0.88387,0.37225
		c0,0-0.04826-0.00201-0.05026-0.00201c-0.60577-0.04624-1.29566-0.47477-1.84817-1.14856
		c-0.34778-0.42385-0.76023-1.08994-0.97534-2.02809c-0.83462,0.77498-1.92723,1.70309-3.12304,2.49414
		c-1.66521,1.10234-3.11969,1.66122-4.32253,1.66122c-0.06333,0-0.12665-0.00169-0.18898-0.00472l0.00168,0.00035
		c-1.09429-0.04892-2.20232-0.36823-3.11902-0.89861c-0.85306-0.49321-1.52384-1.15427-1.96777-1.93227
		c-0.90768,0.75154-1.87296,1.46451-2.70758,1.99861c-1.25076,0.80045-2.16412,1.18943-2.79134,1.18943
		c-0.63761,0-1.16399-0.23117-1.52216-0.66876c-0.31228-0.38164-0.47712-0.89762-0.47712-1.49234
		c0-0.56423,0.196-1.34523,0.58434-2.33131c-0.83798,0.67412-1.71381,1.37841-1.71381,1.37841
		c-0.00066,0.00068-0.00234,0.00168-0.00301,0.00235l-0.12967,0.10287c-0.36085,0.28645-1.03263,0.81953-1.69235,1.27252
		c-1.15294,0.7914-1.61563,0.89293-1.88971,0.89293c-0.87281,0-1.82034-1.1087-2.08974-1.44843
		c-0.5143-0.64833-0.8842-1.34425-1.07082-1.99794c-0.04391,0.12733-0.09283,0.2513-0.14777,0.37259
		c-0.32265,0.71332-0.85103,1.35897-1.66355,2.03176l0.00503-0.00435c-0.34913,0.29785-1.66087,1.34122-3.88965,2.26798
		c-1.11003,0.46137-2.28407,0.82489-3.4906,1.08089c-1.43436,0.30422-2.92904,0.45868-4.44181,0.45868
		c-0.13536,0-0.27976-0.00134-0.44127-0.00435c-0.00066,0-0.001,0-0.00134,0c-1.3888-0.02983-2.83489-0.26134-4.55003-0.72875
		c-0.001-0.00034-0.00168-0.00066-0.00269-0.001c-0.40106-0.1119-0.78-0.33304-1.12645-0.65738
		c-0.30054-0.28145-0.56959-0.63326-0.79911-1.04537c-0.41848-0.75018-0.66809-1.64312-0.66809-2.38827
		c0-0.66307,0.22784-1.41058,0.65872-2.16211c0.48315-0.84266,1.20117-1.6669,2.1343-2.44992
		c1.05911-0.88857,2.37787-1.70576,3.91946-2.42915c1.13584-0.53273,2.39666-1.01589,3.76702-1.44407
		c-2.2375-0.20205-3.89234-0.59205-5.02382-1.18075c-0.67982-0.3538-1.18508-0.79239-1.50104-1.30369
		c-0.28245-0.45601-0.41948-0.96294-0.41948-1.54963c0-0.91168,0.33773-1.90009,0.97635-2.85835
		c0.67546-1.01319,1.68298-1.97245,2.91363-2.77459c2.06562-1.34591,5.81688-2.95014,11.95811-2.95014l0.24023-0.001
		l0.36421-0.00134c0.63425,0,1.57273,0.01608,2.39462,0.15411c1.08224,0.18194,1.72889,0.53541,1.97682,1.08057
		c0.02313,0.05092,0.03653,0.10588,0.0392,0.16182l0.06502,1.36233L45.321,40.85166c0.01775,0.33372,0.02848,0.58534,0.02848,0.8095
		c0,0.6041-0.08142,1.08154-0.4798,1.4491c-0.34109,0.31529-0.87014,0.50058-1.63876,0.74784l0.00637-0.00235
		c-1.2129,0.41078-2.36615,1.02961-3.20847,1.4816c-0.71769,0.38499-1.10804,0.59004-1.38915,0.64198
		c-0.0392,0.00804-0.07974,0.01206-0.12062,0.01206c-0.36018,0-0.76325-0.3297-0.76325-0.77063
		c0-0.25229,0.12431-0.6041,1.0256-1.45983c0.13368-0.12699,0.27542-0.25598,0.41815-0.38263
		c-1.3362,0.05059-2.62817,0.20204-3.85213,0.45333c-1.31476,0.27004-2.52229,0.64632-3.58843,1.11908
		c-1.13583,0.50326-1.816,0.9854-2.1869,1.30136c-0.52135,0.44428-0.6356,0.7341-0.6356,0.80815v0.00167l-0.00167-0.00938
		l0.01072,0.0613c0.01609,0.09785,0.02111,0.11594,0.05428,0.14945c0.05461,0.05529,0.21177,0.16486,0.64767,0.27911
		c1.05809,0.27674,3.15588,0.41713,6.23536,0.41713c0.88354,0,1.8666-0.01171,2.92168-0.03485c0.00268,0,0.00703,0,0.00972,0
		h0.03719l0.06834-0.00032c0.5247,0,0.95323,0.03551,1.31108,0.10855c0.31126,0.06333,0.55418,0.15313,0.74281,0.27407
		c0.29418,0.1883,0.45601,0.46304,0.45601,0.7733c0,0.44429-0.26737,0.98776-0.49185,1.36535
		c-0.27676,0.46572-0.60009,0.86914-0.86745,1.08256c-0.17323,0.1481-0.53744,0.37292-1.66288,0.63461
		c-0.64833,0.15043-1.30303,0.25664-1.63573,0.30624l0.00603-0.00068c-4.46192,0.73209-7.25628,2.09241-8.81495,3.10461
		c-1.05139,0.68317-1.66489,1.28627-1.99457,1.67192c-0.44261,0.51833-0.56089,0.86074-0.56089,0.98171
		c0,0.05529,0.11258,0.18127,0.4225,0.30089c0.29485,0.1139,0.85942,0.25732,1.87597,0.29518
		c0.00268,0,0.00537,0.00033,0.00771,0.00033c0.23888,0.01307,0.49219,0.01976,0.75253,0.01976
		c1.38947,0,3.68794-0.197,6.748-1.13617c1.62904-0.4979,3.15788-1.43135,4.63615-2.33432
		c0.58533-0.35751,1.19045-0.72708,1.79657-1.06649c0.06701-0.03786,0.14172-0.05663,0.21611-0.05663
		c0.07237,0,0.14441,0.01777,0.21008,0.05329c0.13335,0.07203,0.2208,0.2074,0.23117,0.35851
		c0.01408,0.20472,0.02514,0.39101,0.03317,0.56358c0.24527-0.52337,0.60312-1.05208,1.07185-1.58315
		c0.8172-0.92543,1.98453-1.85787,3.37601-2.69686c1.2665-0.76358,2.66838-1.42498,4.0545-1.91282
		c1.38311-0.48683,2.62649-0.75756,3.59581-0.78269c0.002,0,0.00166,0,0.00402,0l0.06667-0.00067
		c0.94184,0,1.54494,0.41816,1.88536,0.76896c0.36219,0.37358,0.60577,0.86811,0.60577,1.23066
		c0,0.33137-0.22047,0.62857-0.6557,0.88453c0.04824,0.04926,0.09247,0.1012,0.13335,0.15549
		c0.22046,0.29416,0.32768,0.65401,0.32768,1.10065c0,0.62455-0.57629,1.3449-1.30571,2.25693
		c-0.67513,0.84467-1.51577,1.89573-1.51577,2.57555c0,0.10891,0.03283,0.17525,0.11291,0.22919
		c0.10085,0.068,0.26468,0.10688,0.44997,0.10688c0.34746,0,0.78068-0.14173,1.31978-0.43221
		c0.127-0.43693,0.50862-0.80883,0.77632-1.07018l0.08879-0.0871c0.00369-0.00337,0.01006-0.00972,0.01374-0.01308
		c0,0,6.66625-6.11341,6.91084-6.33789c0.06533-0.5803,0.27172-1.11406,0.58868-1.51847
		c0.42149-0.53809,1.0045-0.82223,1.686-0.82223c0.4416,0,0.93882,0.04659,1.27689,0.39236
		c0.27877,0.28479,0.37257,0.68687,0.42786,1.20285c0.04993,0.4761,0.15714,0.9348,0.27039,1.42063
		c0.17122,0.73376,0.34846,1.49267,0.34846,2.3886c0,2.40468-1.58884,4.23409-3.26779,5.4959
		c1.16398-0.17022,2.09241-0.87115,3.22757-1.72855l0.04491-0.03351l-0.00268,0.00169l1.94599-1.492
		c0.05831-0.04458,0.12566-0.07338,0.19601-0.08511c0.18998-0.62119,0.4912-1.26115,0.90062-1.91315
		c0.51766-0.82391,1.19314-1.6468,2.008-2.44625c0.6624-0.65034,1.40253-1.26448,2.0837-1.72921
		c0.69087-0.47176,1.20184-0.71668,1.51913-0.72807c0.00503-0.00033,0.01039-0.00033,0.01574-0.00033
		c0.47948,0,0.96194,0.45132,1.20687,0.72036c0.18931,0.20808,0.6299,0.74316,0.6299,1.21391
		c0,0.39068-0.21342,0.87046-0.67212,1.51041c-0.34208,0.47712-0.81852,1.03734-1.41593,1.66489
		c-1.08088,1.13485-2.23917,2.15944-2.76286,2.57892c-0.20439,0.3039-0.34779,0.64632-0.42821,1.02393
		c0.53006-0.14944,1.08725-0.42653,1.688-0.83865c0.73948-0.50727,1.43136-1.13516,2.1343-1.78784
		c0.00034-0.00033,0.00068-0.00068,0.001-0.00101c1.11005-1.02391,2.06361-1.93862,2.90493-2.74577
		c2.08839-2.00294,2.83723-2.69986,3.35858-2.78229l-0.00937,0.00169c0.04556-0.00838,0.09214-0.0124,0.13837-0.0124
		c0.29384,0,0.70797,0.16116,1.01219,0.92877c0.14474,0.36521,0.24594,0.83429,0.24594,1.14052
		c0,0.4436-0.17859,0.99747-0.54581,1.69404c-0.29585,0.56154-0.66173,1.11036-0.8584,1.40522
		c-0.00034,0.00066-0.00068,0.001-0.00101,0.00166c0,0-1.64746,2.44892-3.06207,4.55172
		c2.13229-1.89206,4.86668-4.3185,4.86668-4.3185c0.08208-0.07304,0.18696-0.11159,0.29351-0.11159
		c0.0459,0,0.09248,0.00705,0.13737,0.02179c0.14942,0.04892,0.26167,0.17355,0.29485,0.32701l0.25933,1.20018
		c0.00671,0.03115,0.01005,0.06232,0.01005,0.09347c0,0.10889-0.04019,0.21544-0.11492,0.29753l-9.76248,10.73549
		c-0.05696,0.06232-0.14173,0.16585-0.2399,0.28579c-0.66408,0.81017-1.26048,1.48061-1.83878,1.48061
		C74.04486,68.29529,73.55334,68.08455,73.23237,67.13801 M45.30725,58.02754c-0.00034-0.00034-0.00066-0.00034-0.001-0.00068
		C45.30691,58.02754,45.30725,58.02754,45.30725,58.02754 M45.30088,58.02151c0.00303-0.00034,0.00637-0.00068,0.0104-0.00134
		l0.10822-0.02011c0.52402-0.09348,1.57509-0.28111,6.56807-5.20606c-1.14923,0.39267-2.15506,0.78736-3.00243,1.17973
		c-1.06479,0.49285-1.91248,0.99644-2.51926,1.49668c-1.09597,0.90365-1.26651,1.66288-1.27388,2.28909
		C45.23219,57.93674,45.28345,58.00308,45.30088,58.02151 M61.19721,56.27085c0.34041,0.30154,0.62956,0.66107,0.88755,1.00618
		c0.71869-0.45668,1.20553-0.82391,1.50474-1.23034c0.31059-0.42149,0.45165-0.9254,0.50022-1.78951
		c-0.07269-0.50795-0.16014-1.09964-0.27508-1.79423c-0.77732,0.72876-2.69583,2.52732-3.47183,3.25473
		C60.63868,55.84332,60.92179,56.02693,61.19721,56.27085 M104.42058,61.66624c-0.79844-0.00469-2.32931-0.12094-3.60886-0.84601
		c-1.25613-0.71166-1.9202-1.82168-1.9202-3.20983l-0.00067-0.12029l-0.00034-0.11323c0-0.48618,0.04021-0.89964,0.56155-1.79623
		c0.43559-0.7492,1.21658-1.86023,2.64358-3.75666c-0.38431-0.0402-0.80846-0.10386-1.19446-0.21609
		c-1.15159-0.33471-1.39349-0.95961-1.39349-1.42465c0-0.27274,0.10554-0.67012,0.60745-1.01254
		c0.28211-0.19232,0.66474-0.35416,1.169-0.49421c0.86343-0.23957,1.92757-0.36957,2.78262-0.47443
		c0.47176-0.05798,0.92074-0.11259,1.17202-0.16888c0.27274-0.26636,0.54313-0.54044,0.82826-0.82959
		c0.93178-0.94417,1.89506-1.92052,2.99806-2.67542c1.28461-0.87917,2.55747-1.30637,3.89067-1.30637
		c0.14742,0,0.28545,0.0737,0.36754,0.19635c0.04926,0.07371,0.07472,0.15949,0.07472,0.24591
		c0,0.05697-0.01105,0.11427-0.03351,0.16853c-0.22919,0.55621-0.44864,0.96731-2.44991,3.33447
		c1.18877-0.20036,2.26395-0.44462,3.20881-0.72807c1.05743-0.31731,1.95168-0.68385,2.65865-1.08927
		c1.24272-0.71366,1.57108-1.36199,1.57108-1.60525l-0.00066-0.02009l-0.00069-0.00804
		c-0.02008-0.44764-0.72169-1.20486-3.22153-1.20486c-0.31528,0-0.65504,0.0124-1.00885,0.03687l0.00803-0.00069
		c-0.36018,0.03151-3.52878,0.34478-8.31806,2.00331c0.03854,0.09079,0.06199,0.19466,0.06199,0.31293
		c0,0.22314-0.08743,0.64029-0.67279,0.92809c-0.29686,0.14576-0.63692,0.21913-0.8698,0.25533l0.00302-0.00068
		c-1.59117,0.25665-2.26263,0.48348-3.48123,0.8956c-0.28041,0.09482-0.5984,0.20203-0.95825,0.31998
		c-0.00166,0.00067-0.06767,0.02277-0.06767,0.02277c-0.30089,0.10087-0.67547,0.22683-1.07686,0.22683
		c-0.49924,0-0.78806-0.20607-0.94218-0.37894c-0.20639-0.23119-0.31093-0.54748-0.31093-0.93917
		c0-0.43422,0.63526-1.73893,1.58044-2.98968c0.00033-0.00034,0.00067-0.00101,0.00102-0.00135l-0.00102,0.00135
		c0.6671-0.88958,1.67529-2.23414,2.92033-2.70992c1.56706-0.59774,3.85548-1.21859,6.27826-1.70308
		C110.82614,38.28077,113.12194,38,114.73959,38c2.60538,0,4.56042,0.47444,5.81084,1.40959
		c0.53843,0.40274,0.94318,0.88889,1.20318,1.44507c0.22316,0.47747,0.33639,0.99714,0.33639,1.54427
		c0,1.24339-0.49955,2.36884-1.48495,3.34518c-0.80748,0.79977-1.96576,1.51679-3.44302,2.13196
		c-2.64023,1.09898-5.84939,1.69168-7.97329,2.08404c-0.18998,0.03517-0.37495,0.06901-0.55151,0.10218
		c0.02747,0.00402,0.05495,0.00805,0.08275,0.01207c1.52786,0.22348,3.83706,0.56121,5.72642,1.17805
		c1.07889,0.35247,1.8924,0.74783,2.48712,1.20853c0.75287,0.58399,1.13483,1.26884,1.13483,2.03579
		c0,0.58802-0.29352,1.28896-0.84834,2.0264c-0.58402,0.776-1.42567,1.53992-2.43452,2.20971
		c-1.77712,1.18039-4.92865,2.64491-9.84892,2.91933c-0.17089,0.00937-0.34343,0.01406-0.51331,0.01406
		C104.42226,61.66624,104.42159,61.66624,104.42058,61.66624 M104.45944,54.21227c-0.00067,0.00068-0.00067,0.00068-0.00167,0.00168
		l-0.09013,0.09684c-0.34678,0.37024-0.92677,0.99042-0.92677,1.45078c0,0.12598,0.02816,0.31897,0.27141,0.53943
		c0.19231,0.17457,0.4761,0.32871,0.84433,0.45835c0.67178,0.23722,1.50774,0.34345,2.03914,0.34377
		c1.27254-0.01474,3.02655-0.47544,4.57919-1.20285c0.72372-0.33907,1.33284-0.70395,1.76171-1.05508
		c0.42987-0.35213,0.58232-0.61749,0.58232-0.73778c0-0.26537-0.66205-0.83463-3.14346-1.2836
		c-1.68533-0.3049-3.4685-0.42552-4.23376-0.44429C105.9119,52.62983,104.45944,54.21227,104.45944,54.21227 M137.02171,60.77601
		c-0.00066,0-0.00166-0.00034-0.00235-0.00034c0.00134,0,0.00304,0.00034,0.00304,0.00034S137.02205,60.77601,137.02171,60.77601
		 M73.12917,60.776c-0.00102,0-0.00168-0.00034-0.00268-0.00034c0.00166,0,0.00334,0.00034,0.00334,0.00034
		S73.1295,60.776,73.12917,60.776"/>
	<g>
		<path class="st1" d="M35.34371,58.12937c-3.27583,1.00522-5.87042,1.23233-7.65432,1.13516
			c-1.75132-0.06497-2.72434-0.45431-2.72434-1.03799c0-1.16764,3.43806-4.83243,11.74103-6.19479
			c0.64865-0.09717,2.59469-0.42154,3.0811-0.84336c0.45403-0.35648,1.20022-1.52412,1.20022-2.10818
			c0-0.74582-1.84887-0.71333-2.17315-0.71333c-10.41115,0.22692-10.21652-0.71362-10.31398-1.23261
			c-0.19434-1.13516,4.24875-4.28104,11.93565-4.21636c-0.61617,0.48651-2.23783,1.84887-2.23783,2.3029
			c0,0.19462,0.22682,0.35676,0.35676,0.32428c0.55119-0.09717,2.43255-1.39447,4.54073-2.10818
			c1.81601-0.58368,1.88098-0.71362,1.78381-2.56211l-0.06497-1.36236c-0.48651-1.07019-3.53522-0.97302-4.57322-0.97302
			c-10.70294,0-15.40581,4.96255-15.40581,8.14083c0,1.81639,1.5245,3.50303,8.88665,3.72985v0.09745
			c-9.5353,2.36758-12.42178,6.51888-12.42178,8.69202c0,1.2973,0.87547,3.27582,2.27032,3.66516
			c1.42705,0.38896,2.91897,0.68085,4.44318,0.71333c6.64881,0.12965,10.86546-2.75683,11.96813-3.69736
			c1.88098-1.55699,2.04321-2.85428,1.88098-5.18929C39.72221,55.89125,37.67909,57.41575,35.34371,58.12937z"/>
		<path class="st1" d="M149.54005,54.30209l-7.20038,6.3895l-0.06459-0.06506l4.79994-7.13532
			c0.45403-0.68113,1.32988-2.01063,1.32988-2.8539c0-0.45403-0.32437-1.71922-0.87585-1.62176
			c-0.61617,0.09726-2.69186,2.33509-6.03236,5.4162c-1.36227,1.26519-2.91898,2.65966-4.63818,2.85428
			c0.03258-0.68113,0.2272-1.32978,0.61626-1.88126c1.07047-0.84298,4.73526-4.21636,4.73526-5.44868
			c0-0.45403-0.90796-1.49202-1.39447-1.49202c-0.8045,0.02887-5.2392,3.26382-6.15421,6.70702
			c-1.15688,0.92425-3.556,2.79617-4.67848,2.79617c-0.519,0-0.81079-0.19463-0.81079-0.71371
			c0-1.45943,2.30281-4.02164,3.34052-4.96208c0.519-0.45441,1.39484-1.20022,1.32977-1.97852
			c-0.12965-1.68664-0.48651-1.78381-0.74582-1.78381c-0.81078,0-3.98944,3.0811-4.67029,3.69727l-3.21123,2.88658
			c-1.52412,1.36227-3.30793,2.3028-3.89199,2.3028c-0.22682,0-0.25931-0.32437-0.25931-0.48651
			c0-1.36236,0.77831-2.07569,1.78381-2.78931c1.26481-0.90805,1.45953-1.19984,2.46503-2.335
			c0.35648-0.29217,1.23232-1.20022,1.29729-1.71922c0.12965-0.97293-1.5245-0.68114-1.97843-0.68114
			c-0.55157,0-0.97301,0.06497-1.42704,0.35686c-2.07598,1.36227-4.50854,4.60561-4.50854,7.75149
			c0,1.39475,0.87585,3.21114,2.46503,3.21114c1.78381,0,3.95696-2.91896,5.22187-4.02202l0.06496,0.06506
			c-0.32437,0.84327-0.68113,1.75132-0.68113,2.72425c0,1.13516,0.71362,2.14067,1.91346,2.14067
			c2.12894,0,5.06831-2.92802,6.86115-4.7002c0.25398,2.12809,1.66054,3.34222,2.51201,3.4029
			c0.38934,0.03249,2.75682-1.71884,5.41649-3.95695l0.06468,0.06497l-4.34602,7.32994
			c-0.25931,0.42154-0.87584,1.42704-0.87584,1.94604c0,0.55148,0.29216,2.14066,0.97301,2.14066
			c0.519,0,1.42734-1.26481,1.75171-1.62167l9.76241-10.73552L149.54005,54.30209z"/>
		<path class="st1" d="M78.44717,60.69158l-0.06468-0.06506l4.79994-7.13533c0.45403-0.68113,1.32988-2.01063,1.32988-2.8539
			c0-0.45403-0.32438-1.71922-0.87585-1.62177c-0.61617,0.09726-2.69176,2.3351-6.03265,5.4162
			c-1.36198,1.26519-2.91897,2.65966-4.6378,2.85428c0.03249-0.68113,0.2272-1.32978,0.61617-1.88126
			c1.07047-0.84299,4.73535-4.21636,4.73535-5.44868c0-0.45403-0.90805-1.49202-1.39456-1.49202
			c-0.86061,0.03086-5.87727,3.7309-6.2912,7.43026l-0.1629-0.61921l-1.94604,1.49202
			c-1.58909,1.20013-2.854,2.17315-4.92997,1.81629c2.07598-1.26481,4.21664-3.24334,4.21664-5.903
			c0-1.42695-0.48679-2.52962-0.61645-3.76233c-0.09717-0.90796-0.29189-1.19984-1.26481-1.19984
			c-1.16774,0-1.78391,1.0377-1.84888,2.10818l-7.03777,6.45419c-0.25769,0.25731-0.76782,0.70638-0.77573,1.12525
			c-0.60988,0.35066-1.20146,0.59359-1.72179,0.59359c-0.51871,0-1.00522-0.22682-1.00522-0.7784
			c0-1.52412,2.82151-3.79443,2.82151-4.83242c0-0.71371-0.32428-1.07019-0.94044-1.32988
			c0.29179-0.09717,1.13516-0.42144,1.13516-0.81079c0-0.38905-0.61616-1.58918-2.10818-1.5567
			c-3.76233,0.09717-12.19496,4.24884-12.0653,8.30297c0.06497,1.68635,1.94595,3.82702,2.85428,3.82702
			c0.74582,0,2.82151-1.68664,3.43768-2.17315l2.98403-2.40007l0.06497,0.06506c-0.42183,0.87547-1.20013,2.5946-1.20013,3.63268
			c0,0.94044,0.48641,1.71874,1.55698,1.71875c1.16021,0,3.78243-1.8484,5.66017-3.46549
			c0.80983,1.97624,2.96374,3.02013,4.94531,3.10873c2.52467,0.12613,5.92853-2.6589,7.93354-4.6319
			c0.16386,2.29052,1.65635,3.59581,2.5422,3.65888c0.38906,0.03249,2.75683-1.71884,5.41621-3.95695l0.06497,0.06497
			l-4.34592,7.32995c-0.25968,0.42154-0.87585,1.42704-0.87585,1.94604c0,0.55148,0.29179,2.14066,0.97301,2.14066
			c0.51891,0,1.42696-1.26481,1.75133-1.62167l9.76241-10.73552l-0.25931-1.20013L78.44717,60.69158z M45.398,58.45374
			c-0.48642,0.09717-0.61645-0.48651-0.64865-0.64865c0-1.58957,0.94054-3.56771,8.65954-5.93548l0.06497,0.06497
			C47.05187,58.42126,46.04675,58.32371,45.398,58.45374z M61.97117,57.86969c-0.61617-0.84327-1.3295-1.84849-2.52962-1.91346
			l4.67029-4.3785c0.19472,1.10268,0.32437,1.97853,0.42183,2.65966C64.4362,56.11836,63.91721,56.66994,61.97117,57.86969z"/>
		<path class="st1" d="M107.37714,50.31292l0.64864-0.58397c3.79482-0.74591,13.62191-2.07569,13.62191-7.33004
			c0-1.75132-1.3294-3.95667-6.90812-3.95667c-3.37299,0-9.43813,1.26481-12.5843,2.46503
			c-1.10268,0.42144-2.04321,1.65377-2.72434,2.56211c-1.00551,1.32988-1.49202,2.49723-1.49202,2.72434
			c0,0.55148,0.25969,0.87585,0.81088,0.87585c0.35676,0,0.71362-0.13004,1.00551-0.2272
			c1.88136-0.61617,2.49752-0.90796,4.50815-1.23233c0.42183-0.06497,1.16764-0.25959,1.16764-0.74611
			c0-0.2593-0.25931-0.38905-0.45403-0.48651c4.92998-1.78381,8.36803-2.20535,9.11385-2.27032
			c3.76234-0.2594,4.67029,0.87585,4.70287,1.58909c0.06497,0.87585-1.65424,3.0812-8.98419,4.0867
			c2.69214-3.14579,2.91896-3.56762,3.14616-4.11881c-3.24333,0-5.384,2.72434-7.49218,4.76746
			c-0.97302,0.29218-5.51366,0.35686-5.51366,1.75171c0,1.10267,2.0757,1.19984,2.98403,1.26481
			c-3.76234,4.96217-3.6002,5.12431-3.6002,6.1623c0,2.95155,3.24334,3.72985,5.57834,3.60019
			c8.7248-0.48651,12.71395-4.86501,12.71395-6.71387C117.62605,51.38311,109.67995,50.73446,107.37714,50.31292z
			 M106.59874,57.54542c-1.03799,0-3.6001-0.38896-3.6001-1.78381c0-0.68123,0.71362-1.39456,1.13516-1.84849l1.81629-1.97852
			c1.32988,0,8.01118,0.48651,8.01118,2.17286C113.96127,55.40475,109.48522,57.51293,106.59874,57.54542z"/>
	</g>
	<g>
		<g>
			<polygon class="st1" points="55.30396,79.84391 56.68404,79.84391 57.57523,75.1579 56.19515,75.1579 			"/>
			<path class="st1" d="M57.18227,73.11669c-0.42183,0-0.78573,0.31637-0.79545,0.78573c0,0.41211,0.2875,0.67075,0.67075,0.67075
				c0.44097,0,0.8145-0.28741,0.8145-0.7763C57.87208,73.38477,57.58467,73.11669,57.18227,73.11669z"/>
			<path class="st1" d="M66.85094,75.05235c-0.62292,0-1.11143,0.27807-1.49468,0.70933l-0.01943-0.00972L65.85448,73.04H64.4744
				l-1.28396,6.80391h1.3798l0.40268-2.14667c0.18195-0.94882,0.67085-1.53317,1.14993-1.53317
				c0.34476,0,0.47917,0.22044,0.47917,0.527c0,0.2011-0.02886,0.40239-0.06706,0.58472l-0.47946,2.56812h1.38008l0.50794-2.68338
				c0.04792-0.26836,0.08612-0.62293,0.08612-0.84337C68.02963,75.51237,67.57932,75.05235,66.85094,75.05235z"/>
			<path class="st1" d="M40.15442,73.27959c-0.92939,0-1.75361,0.34505-2.35739,0.92006
				c-0.75697,0.7281-1.18813,1.88764-1.18813,3.05672c0,1.50468,0.93882,2.69281,2.61612,2.69281
				c0.96759,0,1.78209-0.34476,2.38587-0.92949c0.7382-0.72838,1.14993-1.86859,1.14993-3.04729
				C42.76082,74.42942,41.8602,73.27959,40.15442,73.27959z M40.50889,78.32979c-0.29684,0.28751-0.68008,0.46946-1.08286,0.46946
				c-0.9392,0-1.35093-0.68047-1.35093-1.59081c0-0.77602,0.28751-1.78219,0.80479-2.29013
				c0.29722-0.30694,0.68047-0.48889,1.11172-0.48889c1.01551,0,1.30301,0.7764,1.30301,1.58118
				C41.29462,76.75813,41.01683,77.82194,40.50889,78.32979z"/>
			<g>
				<g>
					<path class="st1" d="M27.90821,75.05235c-2.30957,0-3.35394,1.68664-3.35394,3.26772c0,0.9774,0.57501,1.6291,1.41828,1.6291
						c0.54614,0,1.14021-0.25864,1.57147-1.03503h0.02877c-0.02877,0.33543-0.05763,0.6517-0.06697,0.92977h1.27453
						c-0.01943-0.58463,0.06697-1.50468,0.18195-2.10847l0.49823-2.45293C29.06785,75.1579,28.46407,75.05235,27.90821,75.05235z
						 M27.68777,77.21815c-0.21082,1.14983-0.71876,1.61958-1.13087,1.61958c-0.38325,0-0.5652-0.31628-0.5652-0.7763
						c0-0.87214,0.6517-1.96443,1.54289-1.96443c0.13404,0,0.26807,0.01915,0.37362,0.0382L27.68777,77.21815z"/>
				</g>
			</g>
			<g>
				<g>
					<path class="st1" d="M23.88352,73.76838c-0.46936-0.33533-1.14021-0.43154-1.71512-0.43154
						c-0.62293,0-1.27453,0.06735-1.68673,0.17252l-1.19775,6.33454h1.35122l0.44059-2.32862
						c0.14375,0.01915,0.33542,0.0382,0.56558,0.0382c0.78573,0,1.53326-0.18195,2.06026-0.59406
						c0.50795-0.39296,0.88157-1.00617,0.88157-1.82096C24.58313,74.51553,24.31478,74.06522,23.88352,73.76838z M21.81392,76.44176
						c-0.23025,0-0.38363-0.01905-0.52738-0.04791l0.36419-1.90679c0.11527-0.02877,0.29722-0.04792,0.55586-0.04792
						c0.53671,0,0.98702,0.2011,0.98702,0.82394C23.19362,75.90543,22.64748,76.44176,21.81392,76.44176z"/>
				</g>
			</g>
			<g>
				<path class="st1" d="M32.36377,77.21815c-0.2011,0.50795-0.30656,0.81451-0.41183,1.09229h-0.01943
					c-0.0382-0.29694-0.08612-0.63226-0.15309-1.11143l-0.2875-2.04111h-1.45677l0.92977,4.24512
					c0.01905,0.10555,0.01905,0.1628-0.02886,0.22987c-0.17252,0.31628-0.44088,0.59435-0.75725,0.8145
					c-0.26798,0.19196-0.57491,0.30694-0.79507,0.37391L29.6904,82c0.30656-0.04792,0.95825-0.27808,1.5043-0.79545
					c0.62293-0.58463,1.17879-1.43733,1.80162-2.6831l1.67692-3.36356h-1.45648L32.36377,77.21815z"/>
			</g>
			<path class="st1" d="M50.62786,76.20227h0.99646l0.20139-1.04437h-0.99674l0.24931-1.31311l-1.40866,0.32599l-0.19157,0.98712
				h-0.60378l-0.19167,1.04437h0.59406l-0.36419,1.86859c-0.06707,0.35476-0.09584,0.61349-0.09584,0.87214
				c0,0.58463,0.39296,1.00617,1.21728,1.00617c0.29684,0,0.64188-0.0382,0.8145-0.10527l0.1628-1.08286
				c-0.1246,0.01915-0.25864,0.01915-0.38334,0.01915c-0.29713,0-0.39296-0.1629-0.39296-0.39306
				c0-0.1628,0.03849-0.40239,0.07669-0.59406L50.62786,76.20227z"/>
			<path class="st1" d="M55.1605,75.05235c-0.64227,0-1.16936,0.44088-1.49497,1.06381h-0.02887
				c0.02887-0.326,0.05763-0.64198,0.08612-0.95826h-1.19775c-0.04792,0.4024-0.10527,1.18813-0.23959,1.89736l-0.5271,2.78864
				l1.38008,0.00001l0.32571-1.74428c0.17252-0.91967,0.58463-1.70579,1.4662-1.70579c0.07669,0,0.15347,0,0.22044,0.00972
				l0.26846-1.3415C55.33273,75.05235,55.24662,75.05235,55.1605,75.05235z"/>
			<path class="st1" d="M46.35397,77.32362c-0.18195,0.93892-0.66103,1.50449-1.13049,1.50449
				c-0.35486,0-0.46975-0.23959-0.46975-0.54614c0-0.17262,0.02877-0.40277,0.06697-0.61349l0.46984-2.51057h-1.38018
				l-0.48851,2.61613c-0.06735,0.32561-0.09574,0.60368-0.09574,0.86242c0,0.89119,0.45031,1.31273,1.19775,1.31273
				c0.56529,0,1.14021-0.25864,1.61938-0.87185h0.01905l-0.08612,0.76658h1.21689c0.06735-0.42182,0.13442-0.92977,0.24931-1.52383
				l0.60378-3.16217h-1.38008L46.35397,77.32362z"/>
			<path class="st1" d="M71.23982,73.84479l-1.40895,0.326l-0.19167,0.98711h-0.60378l-0.19157,1.04437h0.59435l-0.36419,1.8686
				c-0.06697,0.35476-0.09583,0.61349-0.09583,0.87213c0,0.58463,0.39305,1.00617,1.2169,1.00617
				c0.29722,0,0.64198-0.0382,0.8145-0.10526l0.16319-1.08286c-0.1246,0.01915-0.25893,0.01915-0.38362,0.01915
				c-0.29684,0-0.39268-0.1629-0.39268-0.39306c0-0.1628,0.0382-0.40239,0.07668-0.59406l0.31599-1.5908h0.99683l0.20129-1.04437
				l-0.99674-0.00001L71.23982,73.84479z"/>
			<path class="st1" d="M57.98706,78.13821c0.00972,0.91034,0.57492,1.66721,1.5044,1.66721
				c0.55586,0,0.97769-0.22044,1.34188-0.6899h0.01915l-0.07678,0.39306c-0.19167,0.93882-0.70933,1.24576-1.39923,1.24576
				c-0.39268,0-0.96788-0.10555-1.22661-0.25903l-0.31628,1.05437c0.31628,0.18195,0.90091,0.29684,1.52383,0.29684
				c0.62283,0,1.30339-0.1246,1.81134-0.527c0.5652-0.45031,0.82384-1.21689,0.98702-2.07931l0.70895-3.86189
				c-0.4888-0.21111-1.07314-0.326-1.73455-0.326C59.08907,75.05235,57.98706,76.58552,57.98706,78.13821z M61.13018,77.44794
				c-0.14375,0.79545-0.60378,1.29368-1.05409,1.29368c-0.42145,0-0.63255-0.34476-0.63255-0.81451
				c0-0.8909,0.59435-1.82067,1.428-1.82067c0.19167,0,0.39296,0.03849,0.49823,0.0864L61.13018,77.44794z"/>
			<path class="st1" d="M128.7533,75.05236c-1.69645,0-2.73139,1.48525-2.73139,2.91325c0,1.217,0.69019,1.97414,2.03178,1.97414
				c0.51727,0,1.19775-0.0864,1.7439-0.36419l-0.09575-0.99674c-0.37361,0.18224-0.80487,0.29713-1.31282,0.29713
				c-0.40268,0-0.71867-0.1246-0.90091-0.36419c-0.09583-0.13404-0.14375-0.34505-0.14375-0.47908
				c1.8783,0.04791,3.03793-0.38334,3.03793-1.58118C130.38229,75.57935,129.70183,75.05236,128.7533,75.05236z M127.47867,77.0265
				c0.09584-0.44098,0.45975-0.96797,1.10201-0.96797c0.31628,0,0.50795,0.1628,0.50795,0.40239
				C129.08862,76.88275,128.55191,77.03622,127.47867,77.0265z"/>
			<path class="st1" d="M136.65854,74.46763c0.55586,0,0.97769,0.11527,1.16936,0.21111l0.37354-1.12144
				c-0.18196-0.11489-0.70934-0.27769-1.40857-0.27769c-0.91034,0-1.70578,0.22044-2.37654,0.6899
				c-0.97769,0.6516-1.62938,1.78248-1.62938,3.22953c0,1.70578,1.14992,2.74072,2.85571,2.74072
				c0.77629,0,1.36093-0.1246,1.70569-0.27807l-0.11488-1.11172c-0.32562,0.13441-0.77592,0.21111-1.22662,0.21111
				c-1.1402-0.00001-1.71512-0.69019-1.71512-1.71551c0-0.90062,0.34476-1.63872,0.89119-2.07932
				C135.57559,74.64025,136.10268,74.46763,136.65854,74.46763z"/>
			<path class="st1" d="M124.14388,75.05236c-0.62283,0-1.11134,0.27807-1.49468,0.70933l-0.01944-0.00972l0.51766-2.71195h-1.38008
				l-1.28396,6.8039h1.37979l0.40278-2.14667c0.18185-0.94882,0.67075-1.53317,1.14983-1.53317
				c0.34486,0,0.47918,0.22044,0.47918,0.527c0,0.2011-0.02877,0.40239-0.06707,0.58472l-0.47908,2.56812h1.3798l0.50785-2.68338
				c0.04791-0.26836,0.08611-0.62292,0.08611-0.84337C125.32257,75.51238,124.87226,75.05236,124.14388,75.05236z"/>
			<path class="st1" d="M149.51787,76.20229h0.99683l0.20139-1.04437h-0.99683l0.2493-1.31311l-1.40884,0.32599l-0.19168,0.98712
				h-0.60378l-0.19167,1.04437h0.59435l-0.3642,1.86859c-0.06697,0.35476-0.09583,0.61349-0.09583,0.87214
				c0,0.58463,0.39267,1.00617,1.21689,1.00617c0.29723,0,0.64198-0.0382,0.81461-0.10527l0.1628-1.08286
				c-0.12431,0.01915-0.25864,0.01915-0.38333,0.01915c-0.29684,0-0.39268-0.1629-0.39268-0.39306
				c0-0.1628,0.03821-0.4024,0.07678-0.59406L149.51787,76.20229z"/>
			<polygon class="st1" points="120.99133,73.38477 116.19034,73.38477 115.95084,74.59233 117.65654,74.59233 116.66951,79.84392 
				118.04959,79.84392 119.03662,74.59233 120.76155,74.59233 			"/>
			<path class="st1" d="M140.93243,75.05236c-1.66748,0-2.79836,1.33216-2.79836,2.96117c0,1.15965,0.79544,1.93566,1.98357,1.93566
				c1.62929,0,2.79837-1.25548,2.79837-2.9706C142.91602,75.91478,142.18753,75.05236,140.93243,75.05236z M140.30922,78.8951
				c-0.47908,0-0.74715-0.36419-0.74715-0.91034c-0.00972-0.72839,0.39267-1.88774,1.18813-1.88774
				c0.55586,0,0.73781,0.45975,0.73781,0.89129C141.48801,77.79309,141.06647,78.8951,140.30922,78.8951z"/>
			<path class="st1" d="M145.74248,76.05853c0.41211,0,0.73819,0.11489,0.93921,0.21072l0.32599-0.97731
				c-0.23016-0.13403-0.66142-0.23959-1.20757-0.23959c-1.20746,0-2.06026,0.64198-2.06026,1.60995
				c0,0.58463,0.45041,0.9773,0.99655,1.24566c0.43115,0.21082,0.58463,0.37401,0.58463,0.60378
				c0,0.22987-0.20139,0.42182-0.59406,0.42182c-0.4507,0-0.95827-0.19196-1.22662-0.32599l-0.33542,0.96797
				c0.27779,0.21082,0.84337,0.36419,1.43744,0.36419c1.23595,0.00001,2.14665-0.57491,2.14665-1.64844
				c0-0.6517-0.5368-1.02522-1.04475-1.28396c-0.38324-0.18224-0.57491-0.34504-0.57491-0.53671
				C145.12936,76.22134,145.37866,76.05853,145.74248,76.05853z"/>
			<path class="st1" d="M92.74258,75.05235c-0.56558,0-1.12144,0.27808-1.50478,0.78574h-0.01905l0.08611-0.68018h-1.23604
				c-0.05763,0.47908-0.17252,1.2551-0.27808,1.81096l-0.90062,4.77251h1.37036l0.38334-1.98386h0.01906
				c0.1629,0.09583,0.48889,0.19167,0.87213,0.19167c1.6291,0,2.71196-1.49506,2.71196-3.12407
				C94.24698,75.86685,93.75809,75.05235,92.74258,75.05235z M91.48711,78.90481c-0.26836,0-0.47908-0.08641-0.63255-0.23016
				l0.17252-1.00617c0.17262-0.92006,0.6517-1.5044,1.16898-1.5044c0.45069,0,0.60378,0.39268,0.60378,0.76659
				C92.79984,77.85072,92.22492,78.90481,91.48711,78.90481z"/>
			<g>
				<g>
					<path class="st1" d="M76.64421,75.05235c-1.66759,0-2.79836,1.33216-2.79836,2.96117
						c0,1.15964,0.79545,1.93565,1.98386,1.93565c1.62901,0,2.79808-1.25547,2.79808-2.9706
						C78.62778,75.91477,77.89931,75.05235,76.64421,75.05235z M76.02138,78.89509c-0.47918,0-0.74754-0.3642-0.74754-0.91034
						c-0.00971-0.72839,0.39268-1.88774,1.18813-1.88774c0.55586,0,0.73811,0.45974,0.73811,0.89129
						C77.20007,77.79308,76.77824,78.89509,76.02138,78.89509z"/>
				</g>
			</g>
			<path class="st1" d="M87.4146,76.05853c-0.54615-0.30656-0.9392-0.53643-0.9392-0.91034
				c0-0.35448,0.33571-0.68056,0.97768-0.68056c0.53643-0.00934,0.99646,0.17262,1.20756,0.2875l0.43117-1.14992
				c-0.27808-0.15309-0.73811-0.32561-1.52383-0.32561c-1.40857,0-2.54906,0.79536-2.54906,2.09875
				c0,0.84299,0.6517,1.3416,1.34159,1.71513c0.59435,0.30656,0.87214,0.54614,0.87214,0.91033
				c0,0.50795-0.48889,0.75726-1.02532,0.75726c-0.59435,0-1.1405-0.18224-1.52383-0.41211l-0.46003,1.13078
				c0.30656,0.22987,0.94892,0.46002,1.84954,0.46002c1.43743,0,2.62584-0.7381,2.62584-2.17543
				C88.69884,76.99763,88.20061,76.47063,87.4146,76.05853z"/>
			<path class="st1" d="M112.02228,75.15791c-0.20139-0.07678-0.45031-0.10555-0.64198-0.10555
				c-1.77304,0-2.95145,1.49497-2.95145,3.12407c0,1.1405,0.66103,1.77276,1.45648,1.77276
				c0.54614,0,1.12106-0.23959,1.53316-0.86242h0.01915l-0.06706,0.75716h1.26481c0.01943-0.55586,0.10555-1.21719,0.22054-1.82096
				l0.94882-4.98295h-1.38008L112.02228,75.15791z M111.5814,77.52473c-0.18195,0.89119-0.67085,1.31302-1.06352,1.31302
				c-0.40268,0-0.6517-0.31628-0.6517-0.88186c0-0.90062,0.58434-1.85887,1.40856-1.85887c0.22987,0,0.44098,0.0764,0.54615,0.1629
				L111.5814,77.52473z"/>
			<g>
				<path class="st1" d="M80.94669,76.11616h-0.02886c0.02886-0.32599,0.05734-0.64198,0.08611-0.95825H79.8061
					c-0.04792,0.40239-0.10517,1.18813-0.23949,1.89736l-0.52709,2.78864h1.38008l0.32571-1.74427
					c0.17252-0.91968,0.58463-1.70579,1.46619-1.70579c0.07669,0,0.15347,0,0.22044,0.00971l0.26836-1.3415
					c-0.0864-0.00971-0.17252-0.00971-0.25893-0.00971C81.79939,75.05235,81.27229,75.49323,80.94669,76.11616z"/>
			</g>
			<path class="st1" d="M103.11048,78.32008c0,0.9774,0.575,1.6291,1.41828,1.6291c0.54614,0,1.14021-0.25864,1.57175-1.03503
				h0.02849c-0.02849,0.33542-0.05726,0.6517-0.06697,0.92976l1.27453,0.00001c-0.01905-0.58463,0.06697-1.50469,0.18195-2.10847
				l0.49851-2.45294c-0.39296-0.1246-0.99674-0.23016-1.5526-0.23016C104.15485,75.05235,103.11048,76.73899,103.11048,78.32008z
				 M106.24426,77.21817c-0.2111,1.14983-0.71905,1.61957-1.13078,1.61957c-0.38334,0-0.56557-0.31627-0.56557-0.7763
				c0-0.87214,0.6517-1.96442,1.54288-1.96442c0.13403,0,0.26845,0.01914,0.37362,0.0382L106.24426,77.21817z"/>
			<path class="st1" d="M101.06975,75.05235c-1.69645,0-2.73139,1.48525-2.73139,2.91325c0,1.21699,0.69018,1.97414,2.03178,1.97414
				c0.51728,0,1.19775-0.0864,1.74389-0.3642l-0.09583-0.99674c-0.37353,0.18224-0.80479,0.29713-1.31273,0.29713
				c-0.40239,0-0.71867-0.1246-0.90091-0.36419c-0.09583-0.13403-0.14375-0.34505-0.14375-0.47908
				c1.8783,0.04792,3.03795-0.38334,3.03795-1.58118C102.69875,75.57935,102.01819,75.05235,101.06975,75.05235z M99.79512,77.0265
				c0.09584-0.44097,0.46003-0.96797,1.10201-0.96797c0.31627,0,0.50794,0.1628,0.50794,0.4024
				C101.40508,76.88274,100.86836,77.03622,99.79512,77.0265z"/>
			<path class="st1" d="M96.55617,76.11616H96.5274c0.02877-0.32599,0.05763-0.64198,0.0864-0.95825h-1.19784
				c-0.04792,0.40239-0.10555,1.18813-0.23949,1.89736l-0.52709,2.78864h1.37979l0.326-1.74427
				c0.17223-0.91967,0.58434-1.70579,1.46581-1.70579c0.07678,0,0.15347,0,0.22044,0.00972l0.26845-1.3415
				c-0.08611-0.00972-0.17262-0.00972-0.25864-0.00972C97.40925,75.05235,96.88216,75.49323,96.55617,76.11616z"/>
		</g>
	</g>
</g>
</svg>
