<?xml version="1.0" encoding="utf-8"?>
<!-- Generator: Adobe Illustrator 25.3.0, SVG Export Plug-In . SVG Version: 6.00 Build 0)  -->
<svg version="1.1" id="Layer_1" xmlns="http://www.w3.org/2000/svg" xmlns:xlink="http://www.w3.org/1999/xlink" x="0px" y="0px"
	 viewBox="0 0 200 100" style="enable-background:new 0 0 200 100;" xml:space="preserve">
<g>
	<path d="M139.9,43.9c0,1.7-0.9,2.6-2.2,2.6c-1.4,0-2.2-0.9-2.2-2.6v-6.6h-1.8v6.6c0,2.8,1.6,4.2,3.9,4.2c2.4,0,4-1.4,4-4.3v-6.5
		h-1.8V43.9z"/>
	<path d="M147.1,39.7c-1.1,0-1.7,0.6-2.2,1.3v-1.2h-1.7v8.1h1.7V43c0-1.1,0.6-1.8,1.5-1.8c0.9,0,1.4,0.6,1.4,1.7v4.9h1.7v-5.4
		C149.6,40.8,148.6,39.7,147.1,39.7z"/>
	<rect x="151.2" y="37" width="1.8" height="1.7"/>
	<rect x="151.3" y="39.8" width="1.7" height="8.1"/>
	<polygon points="161.3,39.8 159.5,39.8 157.6,45.7 155.8,39.8 154,39.8 156.8,48 158.4,48 	"/>
	<path d="M165.4,46.6c-1,0-1.9-0.7-2-2.1h5c0-0.2,0-0.5,0-0.6c0-2.4-1.2-4.2-3.3-4.2c-2,0-3.4,1.7-3.4,4.2V44c0,2.5,1.6,4.1,3.7,4.1
		c1.2,0,2.1-0.5,2.8-1.2l-0.9-1.1C166.7,46.3,166.2,46.6,165.4,46.6z M165.1,41.1c1,0,1.6,0.9,1.7,2.2h-3.4
		C163.5,42,164.2,41.1,165.1,41.1z"/>
	<path d="M171.4,44.4c0-1.8,0.9-2.8,2.3-2.8h0.1v-1.9c-1.2-0.1-2,0.7-2.4,1.7v-1.6h-1.7v8.1h1.7V44.4z"/>
	<path d="M178,43.2c-0.9-0.4-1.6-0.7-1.6-1.2v0c0-0.4,0.4-0.8,1-0.8c0.6,0,1.3,0.3,1.9,0.7l0.7-1.3c-0.8-0.5-1.7-0.9-2.6-0.9
		c-1.5,0-2.7,0.9-2.7,2.4v0c0,1.3,1,1.9,2.2,2.4c1,0.4,1.6,0.7,1.6,1.2v0c0,0.5-0.4,0.9-1.1,0.9c-0.7,0-1.5-0.4-2.2-0.9l-0.8,1.2
		c0.9,0.8,2,1.1,3,1.1c1.6,0,2.8-0.9,2.8-2.4v0C180.2,44.3,179.2,43.8,178,43.2z"/>
	<rect x="181.5" y="37" width="1.8" height="1.7"/>
	<rect x="181.5" y="39.8" width="1.7" height="8.1"/>
	<path d="M187.2,37.7h-1.7v2.2h-0.9v1.5h0.9V46c0,1.6,0.9,2.1,2.1,2.1c0.6,0,1-0.1,1.4-0.4v-1.4c-0.3,0.2-0.6,0.2-0.9,0.2
		c-0.5,0-0.9-0.3-0.9-0.9v-4.3h1.8v-1.5h-1.8V37.7z"/>
	<path d="M195.2,39.8l-1.7,5.9l-1.9-5.9h-1.8l2.9,8.1c-0.2,0.7-0.5,0.9-1,0.9c-0.3,0-0.7-0.1-0.9-0.3l-0.5,1.3
		c0.5,0.3,1,0.4,1.6,0.4c1.2,0,1.8-0.6,2.4-2.2l2.7-8.2H195.2z"/>
	<path d="M138.2,61.9c-1.7,0-2.9-1.5-2.9-3.8V58c0-2.3,1.3-3.8,2.9-3.8c1,0,1.7,0.5,2.3,1l1.1-1.4c-0.9-0.8-1.9-1.3-3.3-1.3
		c-2.8,0-4.8,2.2-4.8,5.4v0.1c0,3.3,1.9,5.4,4.7,5.4c1.5,0,2.6-0.5,3.5-1.5l-1-1.2C139.9,61.4,139.2,61.9,138.2,61.9z"/>
	<path d="M145.7,55.1c-2,0-3.4,1.7-3.4,4.2v0.1c0,2.5,1.6,4.1,3.7,4.1c1.2,0,2.1-0.5,2.8-1.2l-0.9-1.1c-0.5,0.5-1.1,0.9-1.9,0.9
		c-1,0-1.9-0.7-2-2.1h5c0-0.2,0-0.5,0-0.6C149,57,147.9,55.1,145.7,55.1z M143.9,58.8c0.1-1.4,0.8-2.2,1.7-2.2c1,0,1.6,0.9,1.7,2.2
		H143.9z"/>
	<path d="M154.1,55.1c-1.1,0-1.7,0.6-2.2,1.3v-1.2h-1.7v8.1h1.7v-4.9c0-1.1,0.6-1.8,1.5-1.8c0.9,0,1.4,0.6,1.4,1.7v4.9h1.7V58
		C156.6,56.2,155.7,55.1,154.1,55.1z"/>
	<path d="M160.4,53.1h-1.7v2.2h-0.9v1.5h0.9v4.6c0,1.6,0.9,2.1,2.1,2.1c0.6,0,1-0.1,1.4-0.4v-1.4c-0.3,0.2-0.6,0.2-0.9,0.2
		c-0.5,0-0.9-0.3-0.9-0.9v-4.3h1.8v-1.5h-1.8V53.1z"/>
	<path d="M165.3,56.9v-1.6h-1.7v8.1h1.7v-3.6c0-1.8,0.9-2.8,2.3-2.8h0.1v-1.9C166.5,55.1,165.7,55.8,165.3,56.9z"/>
	<path d="M171.7,55.1c-2,0-3.4,1.7-3.4,4.2v0.1c0,2.5,1.6,4.1,3.7,4.1c1.2,0,2.1-0.5,2.8-1.2l-0.9-1.1c-0.5,0.5-1.1,0.9-1.9,0.9
		c-1,0-1.9-0.7-2-2.1h5c0-0.2,0-0.5,0-0.6C175,57,173.9,55.1,171.7,55.1z M169.9,58.8c0.1-1.4,0.8-2.2,1.7-2.2c1,0,1.6,0.9,1.7,2.2
		H169.9z"/>
	<path d="M55.6,37.3h-3.3v10.6h3.3c3,0,5-2.2,5-5.3v-0.1C60.6,39.4,58.6,37.3,55.6,37.3z M58.8,42.6c0,2.3-1.3,3.7-3.2,3.7h-1.5
		v-7.5h1.5C57.5,38.9,58.8,40.3,58.8,42.6L58.8,42.6z"/>
	<path d="M65.5,39.7c-2.1,0-3.7,1.8-3.7,4.1V44c0,2.4,1.6,4.1,3.7,4.1c2.1,0,3.7-1.7,3.7-4.1v-0.1C69.2,41.4,67.6,39.7,65.5,39.7z
		 M67.5,43.9c0,1.5-0.8,2.6-2,2.6c-1.2,0-2-1.1-2-2.6v-0.1c0-1.5,0.8-2.6,2-2.6C66.6,41.2,67.5,42.3,67.5,43.9L67.5,43.9z"/>
	<path d="M76.8,47.9v-5.4c0-1.7-0.9-2.8-2.5-2.8c-1.1,0-1.7,0.6-2.2,1.3v-1.2h-1.7v8.1h1.7V43c0-1.1,0.6-1.8,1.5-1.8
		c0.9,0,1.4,0.6,1.4,1.7v4.9H76.8z"/>
	<path d="M81.7,46.5c-1.2,0-2-1-2-2.6v-0.1c0-1.5,0.8-2.6,1.9-2.6c0.7,0,1.2,0.4,1.6,0.8l1-1.3c-0.7-0.7-1.4-1.1-2.6-1.1
		c-2.1,0-3.7,1.7-3.7,4.1V44c0,2.4,1.5,4.1,3.6,4.1c1.2,0,2-0.5,2.7-1.2l-0.9-1.1C82.9,46.2,82.4,46.5,81.7,46.5z"/>
	<path d="M87.5,48.1c1,0,1.8-0.5,2.2-1.1v1h1.7v-5c0-1-0.3-1.8-0.8-2.3c-0.5-0.5-1.3-0.8-2.4-0.8c-1.1,0-1.9,0.3-2.7,0.6l0.5,1.4
		c0.5-0.2,1.2-0.5,1.9-0.5c1.1,0,1.7,0.6,1.7,1.6v0.3c-0.5-0.2-1.1-0.3-1.9-0.3c-1.7,0-2.9,0.9-2.9,2.6v0.1
		C85,47.2,86.2,48.1,87.5,48.1z M86.7,45.5c0-0.9,0.6-1.4,1.6-1.4c0.6,0,1.1,0.1,1.5,0.3v0.8c0,0.9-0.8,1.6-1.7,1.6
		C87.3,46.8,86.7,46.3,86.7,45.5L86.7,45.5z"/>
	<path d="M95.6,46.6c-0.7,0-1.5-0.4-2.2-0.9l-0.8,1.2c0.9,0.8,2,1.1,3,1.1c1.6,0,2.8-0.9,2.8-2.4v0c0-1.3-0.9-1.8-2.2-2.4
		c-0.9-0.4-1.6-0.7-1.6-1.2v0c0-0.4,0.4-0.8,1-0.8c0.6,0,1.3,0.3,1.9,0.7l0.7-1.3c-0.8-0.5-1.7-0.9-2.6-0.9c-1.5,0-2.7,0.9-2.7,2.4
		v0c0,1.3,1,1.9,2.2,2.4c1,0.4,1.6,0.7,1.6,1.2v0C96.7,46.3,96.3,46.6,95.6,46.6z"/>
	<path d="M101.8,37.7h-1.7v2.2h-0.9v1.5h0.9V46c0,1.6,0.9,2.1,2.1,2.1c0.6,0,1-0.1,1.4-0.4v-1.4c-0.3,0.2-0.6,0.2-0.9,0.2
		c-0.5,0-0.9-0.3-0.9-0.9v-4.3h1.8v-1.5h-1.8V37.7z"/>
	<path d="M107.9,39.7c-2,0-3.4,1.7-3.4,4.2V44c0,2.5,1.6,4.1,3.7,4.1c1.2,0,2.1-0.5,2.8-1.2l-0.9-1.1c-0.5,0.5-1.1,0.9-1.9,0.9
		c-1,0-1.9-0.7-2-2.1h5c0-0.2,0-0.5,0-0.6C111.2,41.5,110.1,39.7,107.9,39.7z M106.2,43.3c0.1-1.4,0.8-2.2,1.7-2.2
		c1,0,1.6,0.9,1.7,2.2H106.2z"/>
	<path d="M114.2,41.4v-1.6h-1.7v8.1h1.7v-3.6c0-1.8,0.9-2.8,2.3-2.8h0.1v-1.9C115.4,39.7,114.6,40.4,114.2,41.4z"/>
	<path d="M56.7,61.9c-1.7,0-2.9-1.5-2.9-3.8V58c0-2.3,1.3-3.8,2.9-3.8c1,0,1.7,0.5,2.3,1l1.1-1.4c-0.9-0.8-1.9-1.3-3.3-1.3
		c-2.8,0-4.8,2.2-4.8,5.4v0.1c0,3.3,1.9,5.4,4.7,5.4c1.5,0,2.6-0.5,3.5-1.5l-1-1.2C58.4,61.4,57.7,61.9,56.7,61.9z"/>
	<path d="M64.4,55.1c-2.1,0-3.7,1.8-3.7,4.1v0.1c0,2.4,1.6,4.1,3.7,4.1c2.1,0,3.7-1.7,3.7-4.1v-0.1C68.1,56.9,66.6,55.1,64.4,55.1z
		 M66.4,59.4c0,1.5-0.8,2.6-2,2.6c-1.2,0-2-1.1-2-2.6v-0.1c0-1.5,0.8-2.6,2-2.6C65.6,56.7,66.4,57.8,66.4,59.4L66.4,59.4z"/>
	<rect x="69.6" y="52.4" width="1.7" height="11"/>
	<rect x="73.3" y="52.4" width="1.7" height="11"/>
	<path d="M79.9,55.1c-2,0-3.4,1.7-3.4,4.2v0.1c0,2.5,1.6,4.1,3.7,4.1c1.2,0,2.1-0.5,2.8-1.2l-0.9-1.1c-0.5,0.5-1.1,0.9-1.9,0.9
		c-1,0-1.9-0.7-2-2.1h5c0-0.2,0-0.5,0-0.6C83.2,57,82.1,55.1,79.9,55.1z M78.2,58.8c0.1-1.4,0.8-2.2,1.7-2.2c1,0,1.6,0.9,1.7,2.2
		H78.2z"/>
	<path d="M89.9,56.5c-0.5-0.7-1.2-1.4-2.4-1.4c-1.6,0-3.1,1.3-3.1,3.8V59c0,2.5,1.5,3.8,3.1,3.8c1.2,0,1.9-0.6,2.4-1.4v0.8
		c0,1.4-0.8,2.1-2.2,2.1c-0.9,0-1.7-0.3-2.4-0.7l-0.6,1.4c0.9,0.5,1.9,0.8,3.1,0.8c1.3,0,2.3-0.3,2.9-1c0.6-0.6,0.9-1.5,0.9-2.7
		v-6.8h-1.7V56.5z M89.9,59c0,1.4-0.9,2.3-1.9,2.3c-1,0-1.9-0.9-1.9-2.3v0c0-1.4,0.8-2.3,1.9-2.3C89,56.7,89.9,57.5,89.9,59L89.9,59
		z"/>
	<path d="M96.2,55.1c-2,0-3.4,1.7-3.4,4.2v0.1c0,2.5,1.6,4.1,3.7,4.1c1.2,0,2.1-0.5,2.8-1.2l-0.9-1.1c-0.5,0.5-1.1,0.9-1.9,0.9
		c-1,0-1.9-0.7-2-2.1h5c0-0.2,0-0.5,0-0.6C99.6,57,98.4,55.1,96.2,55.1z M94.5,58.8c0.1-1.4,0.8-2.2,1.7-2.2c1,0,1.6,0.9,1.7,2.2
		H94.5z"/>
	<path d="M3,70.9h41.3V29.7H3V70.9z M8.3,51.5h1.5c0,0,0,0,0,0h11.2V54h-9.7c0,0,0,0,0,0H8.7C8.5,53.2,8.3,52.3,8.3,51.5z M9.3,56.1
		h2l0,0h9.5v2.4h-8l0,0h-2.4C10.1,57.7,9.7,56.9,9.3,56.1z M23.7,34.8c8.6,0,15.5,6.9,15.5,15.5c0,8.6-7,15.5-15.5,15.5
		c-4.6,0-8.8-2-11.6-5.2h2.2c0,0,0,0,0,0h6.6V63c0.9,0.2,1.8,0.3,2.8,0.3c7.2,0,13-5.8,13-13c0-7.2-5.8-13-13-13
		c-1,0-1.9,0.1-2.8,0.3v2.5h-5.3c0,0,0,0,0,0H12C14.9,36.8,19.1,34.8,23.7,34.8z M10.5,42.2h1.9c0,0,0,0,0,0h8.5v2.4H12c0,0,0,0,0,0
		H9.3C9.6,43.8,10,43,10.5,42.2z M8.6,46.8h2.6c0,0,0,0,0,0h9.7v2.6H10.7c0,0,0,0,0,0H8.2C8.3,48.5,8.4,47.6,8.6,46.8z"/>
	<rect x="124.7" y="34.8" width="1" height="31"/>
</g>
</svg>
