<?xml version="1.0" encoding="utf-8"?>
<!-- Generator: Adobe Illustrator 25.3.0, SVG Export Plug-In . SVG Version: 6.00 Build 0)  -->
<svg version="1.1" id="Layer_1" xmlns="http://www.w3.org/2000/svg" xmlns:xlink="http://www.w3.org/1999/xlink" x="0px" y="0px"
	 viewBox="0 0 750.2 400.1" style="enable-background:new 0 0 750.2 400.1;" xml:space="preserve">
<path d="M149.2,178.6l0.7-3.8l-17.6-2.7c-0.3,1.2-0.5,2.5-0.8,3.7L149.2,178.6z"/>
<path d="M122.9,221.2c-0.2,1.3-0.4,2.5-0.7,3.8l18.4,2.8l0.7-3.8L122.9,221.2z"/>
<path d="M427,181.7l0.7-3.8l-17.7-2.7c-0.3,1.2-0.5,2.5-0.8,3.7L427,181.7z"/>
<path d="M400.7,224.3c-0.2,1.3-0.4,2.5-0.6,3.8l18.4,2.8l0.7-3.8L400.7,224.3z"/>
<path d="M340,174.9l-20.8,3.2l0.7,3.8l20.9-3.2C340.5,177.4,340.3,176.1,340,174.9z"/>
<path d="M349.9,227.7c-0.2-1.2-0.4-2.5-0.6-3.8l-21.5,3.3l0.7,3.8L349.9,227.7z"/>
<path d="M618.3,174.6l-20.8,3.2l0.7,3.8l20.9-3.2C618.8,177.1,618.6,175.9,618.3,174.6z"/>
<path d="M606.1,227l0.7,3.8l21.5-3.3c-0.2-1.3-0.4-2.5-0.6-3.8L606.1,227z"/>
</svg>
