<?xml version="1.0" encoding="utf-8"?>
<!-- Generator: Adobe Illustrator 25.3.0, SVG Export Plug-In . SVG Version: 6.00 Build 0)  -->
<svg version="1.1" id="Layer_1" xmlns="http://www.w3.org/2000/svg" xmlns:xlink="http://www.w3.org/1999/xlink" x="0px" y="0px"
	 viewBox="0 0 750.2 400.1" style="enable-background:new 0 0 750.2 400.1;" xml:space="preserve">
<path d="M130.4,181l17.7,3.7l10.2-58.9c-8.4-0.9-13.9-1.7-15.9-1.9C139.6,136.8,135,157.9,130.4,181z"/>
<path d="M121.4,230l18.2,3.8l0.7-3.8l-18.2-3.8C121.8,227.4,121.6,228.7,121.4,230z"/>
<path d="M408.7,181.2l17.7,3.7l10.3-59.1c-8.4-0.9-13.9-1.7-15.9-1.9C417.9,136.9,413.3,158,408.7,181.2z"/>
<path d="M399.7,230.2l18.2,3.8l0.7-3.8l-18.2-3.8C400.1,227.6,399.9,228.9,399.7,230.2z"/>
<path d="M329,123c-2.3,0.4-8.8,1.4-18.9,2.6l10.7,61.4l20.8-4.3C336.8,158.5,332,136.3,329,123z"/>
<path d="M350.6,231.7c-0.2-1.3-0.4-2.6-0.6-3.9l-21.3,4.4l0.7,3.8L350.6,231.7z"/>
<path d="M607.3,123c-2.3,0.4-8.8,1.4-18.9,2.6l10,57.6l20.7-4.3C614.6,156.2,610.1,135.6,607.3,123z"/>
<path d="M628.3,228c-0.2-1.3-0.4-2.6-0.7-3.8l-21.3,4.4l0.7,3.8L628.3,228z"/>
</svg>
