<?xml version="1.0" encoding="utf-8"?>
<!-- Generator: Adobe Illustrator 25.3.0, SVG Export Plug-In . SVG Version: 6.00 Build 0)  -->
<svg version="1.1" id="Layer_1" xmlns="http://www.w3.org/2000/svg" xmlns:xlink="http://www.w3.org/1999/xlink" x="0px" y="0px"
	 viewBox="0 0 750.2 400.1" style="enable-background:new 0 0 750.2 400.1;" xml:space="preserve">
<path d="M157.7,129.5l0.7-3.8c-8.4-0.9-13.9-1.7-15.9-1.9c-0.2,1-0.5,2.1-0.7,3.3L157.7,129.5z"/>
<path d="M132.2,172.2c-0.3,1.2-0.5,2.5-0.8,3.7l17.8,2.7l0.7-3.8L132.2,172.2z"/>
<path d="M436,129.6l0.7-3.8l-1.5-0.2c-7.6-0.8-12.5-1.5-14.3-1.8c-0.2,1.1-0.5,2.2-0.7,3.3L436,129.6z"/>
<path d="M410.5,172.3c-0.3,1.2-0.5,2.5-0.8,3.7l17.8,2.7l0.7-3.8L410.5,172.3z"/>
<path d="M329,123c-2.3,0.4-8.8,1.4-18.9,2.6l0.6,3.5l19-2.9C329.4,125.1,329.2,124,329,123z"/>
<path d="M340.1,175.1c-0.3-1.3-0.5-2.5-0.8-3.7l-20.7,3.2l0.7,3.8L340.1,175.1z"/>
<path d="M589.1,129.4l19-2.9c-0.3-1.2-0.5-2.4-0.8-3.5c-2.2,0.4-8.6,1.4-18.4,2.6l-0.4,0.1L589.1,129.4z"/>
<path d="M618.5,175.4c-0.3-1.3-0.5-2.5-0.8-3.7l-20.7,3.2l0.7,3.8L618.5,175.4z"/>
</svg>
