<?xml version="1.0" encoding="utf-8"?>
<!-- Generator: Adobe Illustrator 25.3.0, SVG Export Plug-In . SVG Version: 6.00 Build 0)  -->
<svg version="1.1" id="Layer_1" xmlns="http://www.w3.org/2000/svg" xmlns:xlink="http://www.w3.org/1999/xlink" x="0px" y="0px"
	 viewBox="0 0 750.2 400.1" style="enable-background:new 0 0 750.2 400.1;" xml:space="preserve">
<path d="M405.4,198.4c-1.6,8.5-3.2,17-4.6,25.3l18.4,3l4.4-25.3L405.4,198.4z"/>
<path d="M411.2,168.7c-0.5,2.4-1,4.8-1.5,7.3l17.7,2.9l1.3-7.3L411.2,168.7z"/>
<path d="M349.3,223.7c-1.4-8.3-3-16.8-4.6-25.3l-21.3,3.4l4.4,25.3L349.3,223.7z"/>
<path d="M340.3,176.2c-0.5-2.5-1-4.9-1.5-7.3l-20.6,3.3l1.3,7.3L340.3,176.2z"/>
<path d="M627.6,223.9c-1.4-8.3-3-16.8-4.6-25.3l-21.3,3.4l4.4,25.3L627.6,223.9z"/>
<path d="M618.7,176.3c-0.5-2.5-1-4.9-1.5-7.3l-20.6,3.3l1.3,7.3L618.7,176.3z"/>
<path d="M126.9,198.9c-1.6,8.5-3.2,17-4.6,25.3l18.4,3l4.4-25.3L126.9,198.9z"/>
<path d="M132.8,169.3c-0.5,2.4-1,4.8-1.5,7.3l17.7,2.9l1.3-7.3L132.8,169.3z"/>
</svg>
