<?xml version="1.0" encoding="utf-8"?>
<!-- Generator: Adobe Illustrator 25.3.0, SVG Export Plug-In . SVG Version: 6.00 Build 0)  -->
<svg version="1.1" id="Layer_1" xmlns="http://www.w3.org/2000/svg" xmlns:xlink="http://www.w3.org/1999/xlink" x="0px" y="0px"
	 viewBox="0 0 750.2 400.1" style="enable-background:new 0 0 750.2 400.1;" xml:space="preserve">
<path d="M158.4,125.8c-8.4-0.9-13.9-1.7-15.9-1.9c-3.2,14.2-8.4,38.1-13.4,63.7l18.6-0.6L158.4,125.8z"/>
<path d="M436.7,125.8c-8.4-0.9-13.9-1.7-15.9-1.9c-3.2,14.2-8.4,38.2-13.4,63.7L426,187L436.7,125.8z"/>
<path d="M329,123c-2.3,0.4-8.8,1.4-18.9,2.6l10.7,61.3l21.8,0.7C337.4,161.5,332.2,137.1,329,123z"/>
<path d="M607.3,123c-2.3,0.4-8.8,1.4-18.9,2.6l10.7,61.3l21.8,0.7C615.8,161.5,610.5,137.1,607.3,123z"/>
</svg>
