<?xml version="1.0" encoding="utf-8"?>
<!-- Generator: Adobe Illustrator 25.3.0, SVG Export Plug-In . SVG Version: 6.00 Build 0)  -->
<svg version="1.1" id="Layer_1" xmlns="http://www.w3.org/2000/svg" xmlns:xlink="http://www.w3.org/1999/xlink" x="0px" y="0px"
	 viewBox="0 0 750.2 400.1" style="enable-background:new 0 0 750.2 400.1;" xml:space="preserve">
<style type="text/css">
	.st0{fill:none;}
</style>
<g>
	<polygon class="st0" points="343.3,240.5 343.5,240.5 343.4,240.4 	"/>
	<polygon class="st0" points="338.5,202.6 334.8,197.1 333.8,199.9 	"/>
	<polygon class="st0" points="339.9,207.7 332.4,203.4 331.3,206.4 	"/>
	<path d="M345.9,208.5l-9.7-14.8l-1.3,3.4l3.6,5.5l-4.7-2.7l-1.3,3.5l7.5,4.3l-8.6-1.3l-0.8,2.1l13.1,1.9l3.3,5l0.2-0.4
		C346.6,212.8,346.3,210.7,345.9,208.5z"/>
	<polygon points="322.4,172.9 321.7,174.8 322.2,177.9 333.1,194.5 334.4,191.1 	"/>
	<polygon points="325.2,195 326,199.7 330.2,202.1 331.5,198.6 	"/>
	<polygon points="327.1,205.8 327.5,208.1 327.9,208.1 328.7,206 	"/>
	<polygon points="329,216.5 329.4,218.8 339.3,220.2 331,228.3 331.5,230.8 343.9,218.7 	"/>
	<path d="M355.1,265.8l-3.2-0.6l-3.5,3.1l2.7,0.5l-11,10l0.7,4.3l14.9-13.5C355.4,268.4,355.2,267.1,355.1,265.8z"/>
	<path d="M396,243c-0.7,4.5-1.4,8.8-2,13l1.3,10.1l-2.5-1.5c-0.2,1.3-0.3,2.7-0.5,3.9l7.7,4.4L396,243z"/>
	<polygon points="334.2,246.3 334.7,248.9 341,242.7 338.7,242 	"/>
	<path d="M343.3,240.5L343.3,240.5l0.2,0.1l7.9,2.5l-0.1,2l0.8,0.5c-0.2-1.5-0.5-3.1-0.7-4.7l-5.3-3l1.4-1.4l-6.4,3.4L343.3,240.5z"
		/>
	<polygon points="338.4,262.8 338.1,266.4 345.6,267.8 349.1,264.7 	"/>
	<path d="M349.8,231.1l-3.6,3.5l3.8-2C350,232.1,349.9,231.6,349.8,231.1z"/>
	<path d="M337,161.8c-0.5-2.6-1-5.1-1.5-7.6l-3.7-5.7l-1.3,3.4L337,161.8z"/>
	<polygon points="311.7,118 313,125.2 316.7,130.8 318,127.5 	"/>
	<polygon points="319.7,130.1 318.4,133.4 328.8,149.2 330,145.9 	"/>
	<path d="M155.5,116.1l-1.1-2.6c-0.9-0.1-1.8-0.2-2.6-0.3v3h-0.2l0.3,0.7v-0.8H155.5z"/>
	<polygon points="149.2,160.7 150.4,154.2 147.3,147.3 139,162.5 143.2,162.5 146.9,155.6 	"/>
	<polygon points="140.9,209 140,209 115,255.2 119.2,255.2 139.4,217.8 	"/>
	<path d="M140.1,117.9c-0.8,3.8-1.7,8-2.6,12.6l7.7-14.2H141L140.1,117.9z"/>
	<polygon points="156.9,116.1 155.5,116.1 156.5,118.4 	"/>
	<path d="M142.4,112l-1.1,0.5c-0.2,1.2-0.5,2.4-0.8,3.7h0.5l2.2-4.1C142.9,112.1,142.6,112.1,142.4,112z"/>
	<path d="M127.2,288.7l-1,1.9l-0.6,0.1c0.4,0,0.8,0.1,1.2,0.1L127.2,288.7z"/>
	<path d="M129.1,277.4l3.8-22.2h-13.8l-6.1,11.3c-1.1,8.5-1.9,16-2.2,22c0.1,0,0.1,0,0.2,0l12.9-1.4L129.1,277.4z"/>
	<path d="M147.1,112.7l-1.9,3.6h6.4l-1.4-3.2C149,112.9,148,112.8,147.1,112.7z"/>
	<polygon points="155.4,124.9 151.9,117 151.9,145.5 	"/>
	<path d="M126.6,185.4l12.4-22.9h-8C129.6,169.9,128.1,177.6,126.6,185.4z"/>
	<path d="M114.5,256.1l0.5-0.9h-0.4C114.6,255.5,114.5,255.8,114.5,256.1z"/>
	<path d="M148.9,162.5h-5.7l-18.8,34.7c-0.7,3.9-1.4,7.9-2.2,11.8H140l1.3-2.4L148.9,162.5z"/>
	<polygon points="616,162.6 616,162.6 616,162.6 	"/>
	<polygon points="615.6,158.5 613.7,162.5 615.6,162.5 	"/>
	<path d="M620.1,179.9l-4.1,8.4v4.9l4.8-9.8C620.6,182.2,620.4,181,620.1,179.9z"/>
	<polygon points="615.6,234.9 612.9,235.3 613.2,237.4 615.6,237 615.6,234.7 	"/>
	<polygon points="614.5,244.4 615.1,248.3 615.6,248.3 615.6,244.6 	"/>
	<path d="M612,138.9l-4.8,9.7l-8.9,4.3l0.7,3.8l5.6-2.7l-4.2,8.5h2.4l9.9-20.1C612.5,141.2,612.3,140.1,612,138.9z"/>
	<path d="M592.1,117.5l15.4,0c-0.1-0.4-0.2-0.9-0.3-1.3h-15.4L592.1,117.5z"/>
	<path d="M618.4,266.8l16.8,3.1c-0.2-1.3-0.3-2.5-0.5-3.8l-17-3.1L618.4,266.8z"/>
	<path d="M326.6,112l0.2,0.2c-0.1-0.4-0.2-0.7-0.2-1.1c-0.6,0.1-1.4,0.3-2.5,0.4l-6.1,15.9l-1.3,3.4l-1.9,4.8l0.9,4.9l2.7-7.1
		l1.3-3.4L326.6,112z"/>
	<path d="M427.1,158.1l-11.4,3.3l4.4-20.8l-4.2-4.5c-0.3,1.4-0.6,2.9-0.9,4.4l1.2,1.2l-4.4,20.8l-1.2,0.4c-0.2,0.8-0.3,1.7-0.5,2.5
		l16.7-4.8L427.1,158.1z"/>
	<path d="M434.1,117.8l-4.5-4.7c-2.3-0.3-4.3-0.5-5.7-0.7l9.5,10L434.1,117.8z"/>
	<path d="M622.1,287.8l1.1,0.2l-0.9,0.8l0.3,1.8c1.3-0.2,2.5-0.3,3.8-0.5l4.8-4.4l-9.8-1.8L622.1,287.8z"/>
	<path d="M330.5,151.8l1.3-3.4l1.7-4.4c-0.3-1.6-0.6-3.1-0.9-4.6l-2.5,6.5l-1.3,3.4l-7.9,20.7l0.9,4.9l0.7-1.9L330.5,151.8z"/>
	<path d="M407.8,176.7c-0.2,0.8-0.3,1.7-0.5,2.5l17-4.9l0.4-2.5L407.8,176.7z"/>
	<polygon points="339.1,251.5 334.9,250.1 335.4,253.3 336.1,253.5 335.9,256.1 338,268 338.1,266.4 338.4,262.8 	"/>
	<path d="M402.7,207.9l-0.8,0.2c-0.1,0.3-0.1,0.7-0.2,1L402.7,207.9z"/>
	<path d="M347.9,219.8c-0.3-1.6-0.6-3.2-0.9-4.9l-0.2,0.4l-5.2,13.4l-9.7,5.1l0.4,2.2l11.5-6.1L347.9,219.8z"/>
	<path d="M354.7,262.8c-0.1-0.8-0.2-1.7-0.4-2.6l-5.2,4.5l-3.5,3.1l-6.6,5.7l0.4,2.5l8.9-7.7l3.5-3.1L354.7,262.8z"/>
	<path d="M391.5,275.1c-0.1,0.9-0.2,1.7-0.3,2.5l15.3,0.1l0.4-2.5L391.5,275.1z"/>
	<path d="M404.3,195l17.3-5l0.4-2.5l-17.3,5C404.6,193.3,404.5,194.1,404.3,195z"/>
	<path d="M341.9,290.2l0.1,0.5c1-0.1,2.1-0.2,3.1-0.4l11.7-10.1c-0.1-0.9-0.2-1.7-0.3-2.6L341.9,290.2z"/>
	<polygon points="418.8,206.6 397.4,234.7 409,263.1 410,257.3 400.6,234.2 417.9,211.4 	"/>
	<path d="M332.4,203.4l1.3-3.5l1.1-2.8l1.3-3.4l4.7-12.3c-0.3-1.6-0.6-3.2-0.9-4.7l-5.5,14.4l-1.3,3.4l-1.6,4.1l-1.3,3.5l-1.5,3.9
		l-0.8,2.1l-0.3,0.7l0.9,4.9l2-5.2l0.8-2.1L332.4,203.4z"/>
	<path d="M353.5,254.3c-0.1-0.8-0.2-1.7-0.4-2.5l-2.4,2.1l0.6-8.8l0.1-2l-7.9-2.5l-0.2-0.1l-2.2-0.7l6.4-3.4l2.9-1.5
		c-0.1-0.7-0.2-1.5-0.4-2.3l-3.8,2l-11.6,6.1l4,1.3l2.3,0.7l7.4,2.3l-0.9,14.4L353.5,254.3z"/>
	<polygon points="600.2,163 600.4,162.5 600.1,162.5 	"/>
	<path d="M628.1,244.9l3.1-3c-0.2-1.4-0.5-2.9-0.7-4.3l-5-0.7l-4.2-8.6l-4.2,8.6l-1.4,0.2v7.6l12.8,2.4L628.1,244.9z"/>
	<path d="M626.9,234.9l3.2,0.5c-0.4-2.2-0.7-4.4-1.1-6.6l-7.8-15.8l-5.6,11.4v10.4l5.6-11.4L626.9,234.9z"/>
	<path d="M630.7,247.4l1.4,0.3c-0.2-1-0.3-2.1-0.5-3.2l-1.2,1.2L630.7,247.4z"/>
	<path d="M625.5,208.8h-3.9l6.2,12.5C627,217.2,626.3,213,625.5,208.8z"/>
	<polygon points="608.2,208.9 608.2,209 615.6,209 615.6,219.5 620.9,208.8 616,208.8 616,193.1 	"/>
	<polygon points="602.8,162.5 600.8,166.6 603.6,182.8 613.7,162.5 	"/>
	<path d="M615.6,156.8v1.7l0.2-0.5C615.8,157.6,615.7,157.2,615.6,156.8z"/>
	<polygon points="604.3,186.4 607.6,205.3 616,188.3 616,162.6 	"/>
	<path d="M616.6,161.5l-0.6,1.1h0.8C616.7,162.2,616.6,161.9,616.6,161.5z"/>
	<path d="M591.4,113.3l0.2,1.3l15.3,0c-0.3-1.2-0.5-2.4-0.8-3.5C604.1,111.5,599.1,112.3,591.4,113.3z"/>
	<path d="M615.6,248.3v2.7l0.8,4.3h16.9c-0.2-1.3-0.4-2.5-0.6-3.8L615.6,248.3z"/>
</g>
</svg>
