<?xml version="1.0" encoding="utf-8"?>
<!-- Generator: Adobe Illustrator 25.3.0, SVG Export Plug-In . SVG Version: 6.00 Build 0)  -->
<svg version="1.1" id="Layer_1" xmlns="http://www.w3.org/2000/svg" xmlns:xlink="http://www.w3.org/1999/xlink" x="0px" y="0px"
	 viewBox="0 0 750.2 400.1" style="enable-background:new 0 0 750.2 400.1;" xml:space="preserve">
<style type="text/css">
	.st0{fill:#0D0D0D;}
</style>
<g>
	<path class="st0" d="M400.2,217.9c-0.5,2.8-1,5.6-1.5,8.4c5.8-1.6,11.6-3.2,17.5-4.8l1.7-10.1c-4.6,1.6-9.2,3.1-13.9,4.7
		C402.8,216.6,401.5,217.2,400.2,217.9z"/>
	<path class="st0" d="M604,184.9c5.6-0.4,11.3-0.7,17-0.8c-0.4-2.2-0.8-4.3-1.2-6.5c-5.7-0.5-11.5-0.9-17.2-1.1L604,184.9z"/>
	<path class="st0" d="M111.8,277.3c5.7,0.7,11.4,1.3,17.1,1.6l1-6c-5-0.3-10-0.7-14.9-1.2c-0.9,0.3-1.8,0.6-2.6,0.9
		C112.1,274.2,111.9,275.7,111.8,277.3z"/>
	<path class="st0" d="M335.4,252.9c5.6-2.3,11.2-4.7,16.8-7.1c-0.3-1.8-0.6-3.5-0.8-5.3c-5.6,2.6-11.2,5.1-16.8,7.6L335.4,252.9z"/>
	<path class="st0" d="M604.4,187.4c5.7-0.1,11.4,0,17.2,0.2c-0.2-1-0.4-2-0.6-3c-5.6,0.5-11.2,1.1-16.8,1.9L604.4,187.4z"/>
	<path class="st0" d="M116.2,244.8c6,1.2,12,2.3,18,3.1l1-6c-6.1,0-12.3-0.3-18.5-0.7C116.6,242.4,116.4,243.6,116.2,244.8z"/>
	<path class="st0" d="M422,187.7c-5.9,2.5-11.8,5-17.7,7.5c0,0.2-0.1,0.3-0.1,0.5c5.8-2,11.6-3.9,17.5-5.9L422,187.7z"/>
	<path class="st0" d="M612,138.7c-5.4-0.1-10.7-0.1-16.1,0l1.5,8.3c5.4-0.6,10.7-1,16.1-1.3C612.9,143.4,612.5,141,612,138.7z"/>
	<path class="st0" d="M329.2,217.6c2.7-0.2,5.3-0.5,8-0.7c3.2-0.9,6.5-1.8,9.8-2.7c-0.6-3.4-1.2-6.7-1.8-10.1
		c-5.8,1.9-11.5,3.7-17.3,5.5L329.2,217.6z"/>
	<path class="st0" d="M423.2,181l0.4-2.1c-4.9,1.3-9.7,2.7-14.6,4c-0.8,0.3-1.7,0.6-2.5,0.8c-0.5,2.5-0.9,5-1.4,7.5
		C411.1,187.8,417.1,184.4,423.2,181z"/>
	<path class="st0" d="M613.4,238.2l1.3,7.4c5.6-0.6,11.2-1.2,16.9-1.5c-0.4-2.3-0.7-4.7-1.1-7C624.7,237.2,619,237.6,613.4,238.2z"
		/>
	<path class="st0" d="M133.3,253l0.6-3.2c-2.9,0.6-5.8,1.2-8.8,2C127.8,252.3,130.6,252.7,133.3,253z"/>
	<path class="st0" d="M329.4,219c2.6-0.7,5.1-1.4,7.7-2c-2.7,0.2-5.3,0.5-8,0.7L329.4,219z"/>
	<path class="st0" d="M340.6,282.7c5.3-1.7,10.6-3.5,15.9-5.3c-0.4-3.6-0.9-7.6-1.4-11.7c-5.5,1.9-11,3.9-16.4,5.8L340.6,282.7z"/>
	<path class="st0" d="M394.7,251.4c-0.7,4.7-1.4,9.2-1.9,13.5c5.6-2,11.3-3.9,17-5.8l2.4-14C406.3,247.2,400.5,249.3,394.7,251.4z"
		/>
	<path class="st0" d="M626.1,212c-0.4-2.4-0.9-4.8-1.3-7.3c-0.6-0.1-1.2-0.1-1.8-0.2c0.6-0.1,1.2-0.1,1.8-0.2c-0.5-2.7-1-5.3-1.5-8
		c-5.7,0.1-11.4,0.2-17.1,0.6l2.7,15.4C614.6,212.1,620.3,212,626.1,212z"/>
	<path class="st0" d="M353.7,256.1c-5.5,2.4-11,4.8-16.5,7.1l1.2,6.9c5.4-3.1,10.7-6.2,16-9.2C354.2,259.3,354,257.7,353.7,256.1z"
		/>
	<path class="st0" d="M604.3,186.5c5.6-0.8,11.2-1.4,16.8-1.9c0-0.2-0.1-0.4-0.1-0.6c-5.7,0.1-11.3,0.4-17,0.8L604.3,186.5z"/>
	<path class="st0" d="M396.2,241.5c6-2.6,11.9-5.2,17.9-7.8l0.5-2.8c-5.9,2.1-11.8,4.1-17.7,6.2
		C396.7,238.6,396.4,240.1,396.2,241.5z"/>
	<path class="st0" d="M338.4,270.1l0.2,1.3c5.5-1.9,11-3.8,16.4-5.8c-0.2-1.6-0.4-3.2-0.6-4.8C349.1,264,343.7,267,338.4,270.1z"/>
	<path class="st0" d="M353.2,252.6c-5.6,2-11.3,3.9-16.9,5.8l0.9,4.9c5.5-2.4,11-4.7,16.5-7.1C353.6,254.9,353.4,253.8,353.2,252.6z
		"/>
	<path class="st0" d="M628.1,223.1c-5.8-0.1-11.5,0-17.3,0.2l2.6,14.8c5.7-0.5,11.3-0.9,17-1.2C629.7,232.5,628.9,227.8,628.1,223.1
		z"/>
	<path class="st0" d="M128,283.7c-5.6-0.1-11.2-0.4-16.8-0.9c-0.2,2-0.3,3.9-0.4,5.7c5.4,0.9,10.7,1.7,16,2.3L128,283.7z"/>
	<path class="st0" d="M390.7,282.7c-0.2,2.1-0.3,4-0.4,5.8c4.7,0.8,9.4,1.5,14,2l2.4-13.6C401.3,278.8,396,280.7,390.7,282.7z"/>
	<path class="st0" d="M604.8,189.5l1.3,7.5c5.7-0.4,11.4-0.7,17.1-0.9c-0.4-2.4-0.9-4.7-1.3-7.1C616.2,189,610.5,189.2,604.8,189.5z
		"/>
	<path class="st0" d="M114.9,271.7c-0.8-0.1-1.7-0.2-2.5-0.3c0,0.4-0.1,0.8-0.1,1.2C113.2,272.3,114.1,272,114.9,271.7z"/>
	<path class="st0" d="M394.7,251.4c5.8-2.3,11.7-4.5,17.5-6.8l1.6-9.3c-5.9,2.2-11.8,4.5-17.7,6.8
		C395.6,245.3,395.1,248.4,394.7,251.4z"/>
	<path class="st0" d="M618,264.7l0.8,4.3c5.4-0.7,10.8-1.2,16.1-1.6c-0.2-1.3-0.3-2.6-0.5-3.9C629,263.8,623.5,264.2,618,264.7z"/>
	<path class="st0" d="M617.1,259.6l0.1,0.3c1.8-0.3,3.6-0.6,5.4-0.9C620.8,259.1,619,259.3,617.1,259.6z"/>
	<path class="st0" d="M635.3,270.3c0-0.2-0.1-0.5-0.1-0.7c-2.3,0.4-4.5,0.8-6.8,1.3C630.7,270.7,633,270.5,635.3,270.3z"/>
	<path class="st0" d="M637.1,288.5c0-0.2,0-0.5-0.1-0.8c-4.9,0.2-9.9,0.5-14.8,0.9l0.3,2C627.4,290,632.2,289.3,637.1,288.5z"/>
	<path class="st0" d="M157.3,113.9c-8.4-0.9-13.9-1.7-15.9-2c-0.5,2.3-1,4.9-1.6,7.7c5.2,1.9,10.4,3.6,15.7,5.2L157.3,113.9z"/>
	<path class="st0" d="M153.5,135.9c-5.5-0.9-11-2.1-16.4-3.4c-0.5,2.5-1,5.1-1.6,7.8c5.5,1.5,11.1,2.8,16.6,3.8L153.5,135.9z"/>
	<path class="st0" d="M329,122.3c-0.8,0.2-1.5,0.5-2.3,0.7c-2.1-0.4-4.2-0.8-6.3-1.2c2.7-0.8,5.3-1.6,8-2.4
		c-0.6-3.1-1.2-5.9-1.8-8.4c-2.1,0.4-7.5,1.3-15.7,2.3l3.9,22c5.3-1.5,10.7-3.1,16-4.7C330.1,127.7,329.5,124.9,329,122.3z"/>
	<path class="st0" d="M148.8,163.1l0.7-3.9c-5.3-0.4-10.5-0.9-15.8-1.7c-0.5-0.1-1.1-0.2-1.6-0.2c-0.4,1.9-0.8,3.9-1.2,5.9
		C136.9,163.4,142.9,163.3,148.8,163.1z"/>
	<path class="st0" d="M129.1,172.3c5.7,2.1,11.4,3.9,17.2,5.5l1-5.9c-5.8-0.8-11.7-1.7-17.5-2.9C129.6,170,129.3,171.1,129.1,172.3z
		"/>
	<path class="st0" d="M415.9,135.9c5.3-1.8,10.7-3.6,16-5.3l1.6-9c-5.2,1.7-10.4,3.4-15.6,5.1C417.2,129.6,416.5,132.7,415.9,135.9z
		"/>
	<path class="st0" d="M433.9,118.7c-5.2,1.9-10.5,3.8-15.7,5.8c-0.1,0.4-0.2,0.8-0.3,1.3c5.3-2.1,10.5-4.1,15.8-6.1L433.9,118.7z"/>
	<path class="st0" d="M337.2,162.5c-1-5.2-2-10.2-3-15.1c-5.5,1.6-11,3.1-16.5,4.5l2.7,15.4C326,165.8,331.6,164.1,337.2,162.5z"/>
	<path class="st0" d="M121.7,212.2c-0.2,0.9-0.3,1.8-0.5,2.8c4.3,0.7,8.5,1.4,12.8,1.9C129.9,215.4,125.8,213.9,121.7,212.2z"/>
	<path class="st0" d="M143,196.9c-2.9-0.6-5.8-1.3-8.7-2.1c-3.1-0.2-6.2-0.4-9.4-0.6c-0.9,4.9-1.8,9.9-2.7,14.8c6,1.6,12,2.9,18,4
		L143,196.9z"/>
	<path class="st0" d="M610,129c-0.8-3.7-1.5-7.2-2.2-10.3c-3-0.2-6.1-0.4-9.1-0.5c-2.2,0-4.3,0-6.5,0l1.9,10.8
		C599.4,128.9,604.7,128.9,610,129z"/>
	<path class="st0" d="M336.7,176.3c-3.9,1-7.7,1.9-11.6,2.9c-0.9,0.2-1.7,0.5-2.6,0.7l2.8,15.9c5.8-1.6,11.5-3.2,17.3-4.9
		c-1-5.4-2-10.7-3-15.9c-0.2,0.1-0.4,0.1-0.7,0.2C338.2,175.5,337.5,175.9,336.7,176.3z"/>
	<path class="st0" d="M409.3,169c5.7-2.2,11.4-4.3,17.1-6.4l2.6-15.2c-5.5,1.7-11,3.3-16.4,5C411.5,157.7,410.4,163.3,409.3,169z"/>
</g>
</svg>
