<?xml version="1.0" encoding="utf-8"?>
<!-- Generator: Adobe Illustrator 25.3.0, SVG Export Plug-In . SVG Version: 6.00 Build 0)  -->
<svg version="1.1" id="Layer_1" xmlns="http://www.w3.org/2000/svg" xmlns:xlink="http://www.w3.org/1999/xlink" x="0px" y="0px"
	 viewBox="0 0 750.2 400.1" style="enable-background:new 0 0 750.2 400.1;" xml:space="preserve">
<g>
	<path d="M391.9,271.6c-0.3,2.3-0.5,4.4-0.7,6.5c5.1,0.2,10.1,0.3,15.2,0.6l1.1-6.5C402.3,271.9,397.1,271.7,391.9,271.6z"/>
	<path d="M356.5,277.6c-0.2-2.1-0.5-4.2-0.7-6.4c-5.7,0-11.4,0.1-17.1,0.1l1.1,6.5C345.3,277.6,350.9,277.6,356.5,277.6z"/>
	<path d="M390.3,288.5c4.7,0.8,9.4,1.5,14,2l1-5.6c-4.9-0.2-9.8-0.4-14.7-0.6C390.5,285.8,390.4,287.2,390.3,288.5z"/>
	<path d="M357.1,283.7c-5.4,0-10.8,0.1-16.2,0.2l1.1,6.4c1.1,0,2.2,0,3.4-0.1c4-0.5,8-1.1,12.1-1.8
		C357.3,287,357.2,285.4,357.1,283.7z"/>
	<path d="M353.2,252.3c-0.3-2.1-0.6-4.3-1-6.4c-6,0-12,0-18,0.1l1.1,6.5C341.2,252.3,347.2,252.3,353.2,252.3z"/>
	<path d="M395.5,246.1c-0.3,2.2-0.7,4.4-1,6.5c5.4,0.1,10.9,0.2,16.3,0.4l1.1-6.6C406.4,246.3,401,246.2,395.5,246.1z"/>
	<path d="M131.2,265.2l1.6-9c-6.2,0.6-12.4,1.2-18.6,1.8c-0.5,3.3-0.9,6.4-1.3,9.4C119,266.6,125.1,265.9,131.2,265.2z"/>
	<path d="M617.1,259.5l1.7,9.9c5.5,0.7,11.1,1.5,16.6,2.2c-0.4-3.3-0.8-6.7-1.3-10.3C628.5,260.7,622.8,260.1,617.1,259.5z"/>
	<path d="M354.1,258.4c-5.9,0-11.8,0.1-17.7,0.1l1.1,6.5c5.8-0.1,11.6-0.1,17.5-0.1C354.7,262.8,354.4,260.6,354.1,258.4z"/>
	<path d="M392.7,265.3c5.3,0.1,10.6,0.3,15.9,0.5l1.1-6.5c-5.4-0.2-10.7-0.3-16.1-0.4C393.3,261,393,263.2,392.7,265.3z"/>
	<path d="M111.8,276.5c-0.4,3.5-0.7,6.8-0.9,9.7c5.7-1,11.4-1.9,17.1-2.9l1.6-9.4C123.7,274.8,117.8,275.6,111.8,276.5z"/>
	<path d="M622.4,289.3c1.4,0.3,2.7,0.5,4.1,0.8c3.5-0.5,7.1-1,10.7-1.6c-0.1-2.1-0.3-4.4-0.5-6.9c-5.3-0.9-10.7-1.8-16-2.6
		L622.4,289.3z"/>
	<path d="M610.4,221.4l1.6,9.3c5.8,0.2,11.6,0.4,17.4,0.6c-0.5-3.2-1.1-6.4-1.7-9.7C622,221.5,616.2,221.4,610.4,221.4z"/>
	<path d="M349,226.3c-0.4-2.1-0.7-4.3-1.1-6.4c-6.1,0-12.2,0-18.3,0l1.1,6.5C336.8,226.3,342.9,226.3,349,226.3z"/>
	<path d="M399.8,219.9c-0.4,2.2-0.8,4.4-1.1,6.5c5.5,0,11.1,0.1,16.6,0.1l1.1-6.6C410.9,219.9,405.4,219.9,399.8,219.9z"/>
	<path d="M137.4,229.6l1.5-8.6c-6.2,0.1-12.5,0.1-18.7,0.2c-0.5,3-1,6-1.5,9C124.8,230,131.1,229.8,137.4,229.6z"/>
	<path d="M615.3,249.2c5.7,0.5,11.5,0.9,17.2,1.4c-0.5-3.2-1-6.6-1.6-9.9c-5.8-0.3-11.6-0.7-17.4-1L615.3,249.2z"/>
	<path d="M350,232.5c-6.1,0-12.2,0-18.2,0.1l1.1,6.5c6.1,0,12.1-0.1,18.2-0.1C350.7,236.8,350.4,234.7,350,232.5z"/>
	<path d="M135.9,237.9c-6.3,0.3-12.5,0.6-18.8,1c-0.5,3.1-1,6.2-1.4,9.2c6.2-0.5,12.5-0.9,18.7-1.3L135.9,237.9z"/>
	<path d="M396.6,239.2c5.5,0.1,11,0.2,16.5,0.2l1.1-6.6c-5.5-0.1-11.1-0.1-16.6-0.2C397.3,234.8,396.9,237,396.6,239.2z"/>
	<path d="M143.1,196.1l1.5-8.4c-6.1-0.4-12.1-0.8-18.2-1.2c-0.6,2.9-1.1,5.8-1.6,8.8C130.9,195.5,137,195.8,143.1,196.1z"/>
	<path d="M421,193.9c-5.5,0.1-11,0.2-16.5,0.3c-0.4,2.2-0.8,4.4-1.2,6.6c5.5-0.1,11-0.1,16.6-0.2L421,193.9z"/>
	<path d="M604.1,185.4l1.6,9.1c5.7-0.3,11.4-0.6,17.1-0.9c-0.6-3.2-1.2-6.3-1.8-9.5C615.3,184.5,609.7,185,604.1,185.4z"/>
	<path d="M344.5,200.9c-0.4-2.2-0.8-4.3-1.2-6.5c-6.1,0-12.1-0.1-18.2-0.1l1.1,6.5C332.3,200.9,338.4,200.9,344.5,200.9z"/>
	<path d="M624.4,202.6c-5.7,0.2-11.5,0.4-17.2,0.6l1.6,9.2c5.8-0.1,11.5-0.1,17.3-0.2C625.6,209,625,205.8,624.4,202.6z"/>
	<path d="M141.7,204.1c-6.2-0.2-12.3-0.3-18.5-0.5c-0.5,3-1.1,5.9-1.6,8.9c6.2,0.1,12.4,0.1,18.6,0.2L141.7,204.1z"/>
	<path d="M402.1,207c-0.4,2.2-0.8,4.4-1.2,6.5c5.5,0,11.1,0,16.6,0l1.1-6.6C413.2,206.9,407.6,207,402.1,207z"/>
	<path d="M345.6,207.1c-6.1,0-12.2,0-18.3,0l1.1,6.5c6.1,0,12.2,0,18.3,0C346.4,211.4,346,209.3,345.6,207.1z"/>
	<path d="M339.6,174.9c-0.4-2.2-0.8-4.3-1.3-6.5c-5.9-0.1-11.9-0.2-17.8-0.4l1.1,6.5C327.6,174.8,333.6,174.9,339.6,174.9z"/>
	<path d="M149,162.2l1.5-8.5c-5.7-0.8-11.4-1.7-17.1-2.6c-0.6,2.9-1.2,5.8-1.8,8.8C137.3,160.7,143.2,161.5,149,162.2z"/>
	<path d="M409.5,167.7c-0.4,2.2-0.9,4.4-1.3,6.6c5.4-0.2,10.8-0.3,16.2-0.6l1.2-6.7C420.2,167.3,414.9,167.5,409.5,167.7z"/>
	<path d="M597.6,148.8l1.6,9.2c5.4-0.8,10.8-1.6,16.1-2.4c-0.6-3.2-1.3-6.4-1.9-9.5C608.2,147,602.9,147.9,597.6,148.8z"/>
	<path d="M602.4,175.7c5.5-0.5,11.1-1.1,16.6-1.7c-0.6-3.2-1.2-6.3-1.8-9.4c-5.5,0.7-10.9,1.4-16.4,2L602.4,175.7z"/>
	<path d="M147.6,170.2c-5.9-0.6-11.8-1.3-17.7-1.9c-0.6,2.9-1.1,5.8-1.7,8.8c6,0.5,12,1.1,17.9,1.6L147.6,170.2z"/>
	<path d="M340.8,181.1c-6-0.1-12-0.1-18-0.2l1.1,6.5c6,0.1,12.1,0.1,18.1,0.2C341.6,185.4,341.2,183.3,340.8,181.1z"/>
	<path d="M405.8,187.2c5.5-0.1,10.9-0.2,16.4-0.4l1.2-6.7c-5.4,0.2-10.9,0.3-16.3,0.5C406.6,182.8,406.2,185,405.8,187.2z"/>
	<path d="M413.5,147.5c5.2-0.3,10.4-0.6,15.6-1l1.2-6.9c-5.1,0.4-10.3,0.8-15.4,1.2C414.4,143,414,145.2,413.5,147.5z"/>
	<path d="M591.4,113.3l1.3,7.3c4.9-1.2,9.8-2.4,14.8-3.7c-0.4-2.1-0.9-4-1.2-5.8C604.1,111.5,599.1,112.3,591.4,113.3z"/>
	<path d="M334.4,148.8c-0.4-2.2-0.9-4.4-1.3-6.5c-5.8-0.2-11.5-0.4-17.3-0.7l1.2,6.6C322.8,148.5,328.6,148.7,334.4,148.8z"/>
	<path d="M154.9,127.8l1.5-8.8c-5.2-1.2-10.5-2.5-15.7-3.8c-0.6,2.8-1.2,5.8-1.9,9.1C144.2,125.5,149.5,126.6,154.9,127.8z"/>
	<path d="M153.5,136c-5.5-1-11-2.1-16.5-3.2c-0.6,2.8-1.2,5.8-1.8,8.9c5.6,1,11.2,2,16.8,2.9L153.5,136z"/>
	<path d="M595.9,138.9c5.2-1,10.3-2,15.5-3.1c-0.7-3.4-1.4-6.6-2-9.6c-5,1.2-10.1,2.3-15.1,3.4L595.9,138.9z"/>
	<path d="M335.7,155c-5.9-0.1-11.7-0.3-17.6-0.5l1.2,6.6c5.9,0.2,11.8,0.3,17.7,0.4C336.5,159.4,336.1,157.2,335.7,155z"/>
	<path d="M410.9,160.6c5.3-0.2,10.6-0.5,15.9-0.8l1.2-6.8c-5.3,0.3-10.5,0.6-15.8,0.9C411.8,156.1,411.4,158.3,410.9,160.6z"/>
	<path d="M329,122.5c-0.5-2.3-1-4.5-1.4-6.6c-5.5-0.3-11-0.7-16.5-1.1l1.2,6.7C317.9,121.9,323.5,122.3,329,122.5z"/>
	<path d="M419.1,120.2c4.9-0.5,9.9-1,14.8-1.6l0.8-4.9c-3.7-0.4-6.7-0.7-9-1c-1.7,0.2-3.5,0.4-5.2,0.6
		C420.2,115.3,419.7,117.7,419.1,120.2z"/>
	<path d="M416.4,133.6c5.1-0.4,10.2-0.8,15.2-1.3l1.2-7c-5,0.5-10,1-15,1.5C417.3,128.9,416.8,131.2,416.4,133.6z"/>
	<path d="M330.3,128.8c-5.6-0.2-11.3-0.5-16.9-0.9l1.2,6.7c5.7,0.3,11.4,0.6,17.1,0.8C331.2,133.1,330.8,130.9,330.3,128.8z"/>
</g>
</svg>
