<?xml version="1.0" encoding="utf-8"?>
<!-- Generator: Adobe Illustrator 25.3.0, SVG Export Plug-In . SVG Version: 6.00 Build 0)  -->
<svg version="1.1" id="Layer_1" xmlns="http://www.w3.org/2000/svg" xmlns:xlink="http://www.w3.org/1999/xlink" x="0px" y="0px"
	 viewBox="0 0 750.2 400.1" style="enable-background:new 0 0 750.2 400.1;" xml:space="preserve">
<style type="text/css">
	.st0{fill:none;}
</style>
<g>
	<path class="st0" d="M412.6,227.1c-3.1,0-6.2,0-9.3,0c0,3.2,0,6.3,0,9.3c3.2,0,6.2,0,9.3,0C412.6,233.3,412.6,230.2,412.6,227.1z"
		/>
	<path class="st0" d="M134.8,217.7c-3.2,0-6.3,0-9.4,0c0,3.1,0,6.3,0,9.4c0,0,0,0,0,0c0,0,0,0,0,0c3.1,0,6.3,0,9.4,0
		C134.8,224,134.8,220.9,134.8,217.7z"/>
	<path d="M352.9,283.9c-4.1,0-8.1,0-12.1,0l1.2,6.8c5.1-0.6,10.2-1.3,15.4-2.2c-0.4-6.3-1.2-14.3-2.4-23.4c-0.7,0-1.3,0-2,0
		C352.9,271.4,352.9,277.6,352.9,283.9z"/>
	<path d="M343.4,255.6c3.4,0,6.8,0,10.2,0c-1.7-11.7-3.8-24.7-6.2-38c-1.4,0-2.7,0-4.1,0c0-3.2,0-6.3,0-9.4c-3.1,0-6.1,0-9.4,0
		c0,3.1,0,6.2,0,9.4c-1.6,0-3.2,0-4.8,0l4.7,26.7c0-5.7,0-11.4,0-17.1c3.2,0,6.3,0,9.5,0C343.4,236.7,343.4,246.1,343.4,255.6
		c-2.6,0-5.1,0-7.6-0.1l1.7,9.6c1.9,0,3.9,0,5.9,0C343.4,261.8,343.4,258.7,343.4,255.6z"/>
	<path d="M343.4,208.1C343.4,208.2,343.4,208.2,343.4,208.1C343.4,208.2,343.4,208.2,343.4,208.1L343.4,208.1z"/>
	<path d="M115.9,255.6C115.9,255.6,115.9,255.6,115.9,255.6C115.9,255.5,115.9,255.5,115.9,255.6L115.9,255.6z"/>
	<path d="M125.3,227.2C125.3,227.2,125.3,227.2,125.3,227.2C125.4,227.1,125.4,227.1,125.3,227.2L125.3,227.2z"/>
	<path d="M142.7,198.6l1.6-9.4c-3.3,0-6.4,0-9.5,0c0,0,0,0,0,0c0,0,0,0,0,0c0,3.1,0,6.1,0,9.4C137.4,198.6,140,198.6,142.7,198.6z"
		/>
	<path d="M136.1,236.6c-0.4,0-0.9,0-1.3,0c0-3.2,0-6.3,0-9.4c0,0,0,0,0,0c0,0,0,0,0,0c-3.1,0-6.3,0-9.4,0c0,6.2,0,12.5,0,18.9
		c-3.2,0-6.3,0-9.4,0c0,0.3-0.1,0.6-0.1,1c0,2.8,0,5.7,0,8.5c5.6,0,11.3,0,17,0L136.1,236.6z"/>
	<path d="M144.4,188.9l1.6-9.2c-0.5,0-1,0-1.6,0C144.4,182.8,144.4,185.8,144.4,188.9z"/>
	<path d="M155.8,122.8c-0.6,0-1.2,0-1.9,0c0-3.1,0-6.1,0-9.3c-6.5-0.7-10.8-1.4-12.5-1.6c-1.6,7.6-3.8,18-6.3,30
		c5.8,0,11.5,0,17.3,0L155.8,122.8z"/>
	<path d="M320.9,170.3c1.2,0,2.3,0,3.5,0c0-3.2,0-6.3,0-9.6c3.3,0,6.4,0,9.5,0c0-3.1,0-6.2,0-9.4c0.4,0,0.7,0,1,0
		c-0.7-3.3-1.3-6.5-1.9-9.5c-5.8,0-11.5,0-17.1,0L320.9,170.3z"/>
	<path d="M333.9,160.7C333.9,160.7,333.9,160.7,333.9,160.7C333.9,160.8,333.9,160.8,333.9,160.7L333.9,160.7z"/>
	<path d="M324.5,113.3C324.5,113.3,324.4,113.3,324.5,113.3L324.5,113.3C324.5,113.4,324.5,113.4,324.5,113.3z"/>
	<path d="M326.6,111.1c-0.5,0.1-1.2,0.2-2.1,0.4c0,0.6,0,1.2,0,1.9c0.9,0,1.7,0,2.6,0C326.9,112.6,326.8,111.8,326.6,111.1z"/>
	<path d="M338.7,170.2c-0.6-3.2-1.2-6.3-1.8-9.4c-1,0-1.9,0-2.9,0c0,3.1,0,6.2,0,9.4C335.5,170.2,337.1,170.2,338.7,170.2z"/>
	<path d="M324.5,189.1c-0.1,0-0.2,0-0.3,0l1.7,9.7c2.6,0,5.3,0,8,0c0-3.2,0-6.3,0-9.6c2.8,0,5.6,0,8.4,0c-0.6-3.2-1.2-6.4-1.8-9.5
		c-5.3,0-10.6,0-16,0C324.5,182.9,324.5,185.9,324.5,189.1z"/>
	<path d="M333.9,160.8C333.9,160.8,333.9,160.8,333.9,160.8L333.9,160.8C333.9,160.8,333.9,160.8,333.9,160.8z"/>
	<path d="M115.9,284C115.9,284,115.8,284,115.9,284C115.8,284,115.8,284,115.9,284L115.9,284z"/>
	<path d="M115.8,284c0-3.1,0-6.2,0-9.5c-1.3,0-2.5,0-3.8,0c-0.4,3.4-0.7,6.6-0.9,9.5C112.7,284,114.3,284,115.8,284z"/>
	<path d="M324.4,113.3C324.4,113.4,324.4,113.4,324.4,113.3C324.4,113.4,324.5,113.4,324.4,113.3L324.4,113.3z"/>
	<path d="M310.9,113.4l3.3,19c0.2,0,0.4,0,0.7,0c0-3.2,0-6.2,0-9.5c3.2,0,6.3,0,9.5,0c0-3.3,0-6.4,0-9.5
		C319.9,113.4,315.5,113.4,310.9,113.4C310.9,113.4,310.9,113.4,310.9,113.4z"/>
	<path d="M115.9,284C115.9,284,115.9,284,115.9,284L115.9,284C115.8,284,115.9,284,115.9,284z"/>
	<path d="M126.8,290.8l4.4-25.7c-1.9,0-3.9,0-6,0c0,6.4,0,12.6,0,19c-3.2,0-6.3,0-9.4,0c0,1.8,0,3.5,0,5.3
		C119.5,289.9,123.2,290.4,126.8,290.8z"/>
	<path d="M125.3,227.1C125.3,227.1,125.3,227.1,125.3,227.1L125.3,227.1C125.3,227.1,125.3,227.1,125.3,227.1z"/>
	<path d="M125.3,217.7C125.3,217.7,125.3,217.6,125.3,217.7c-1.5,0-3.1,0-4.6,0c-0.6,3.2-1.1,6.3-1.6,9.5c2.1,0,4.2,0,6.2,0
		C125.3,224,125.3,220.8,125.3,217.7C125.3,217.7,125.3,217.7,125.3,217.7z"/>
	<path d="M343.4,208.1C343.4,208.1,343.4,208.1,343.4,208.1L343.4,208.1C343.4,208.2,343.4,208.2,343.4,208.1z"/>
	<path d="M344.1,198.6c-0.2,0-0.4,0-0.6,0c0,3.3,0,6.4,0,9.5c0.8,0,1.6,0,2.4,0C345.2,205,344.7,201.8,344.1,198.6z"/>
	<path d="M115.8,255.6C115.9,255.6,115.9,255.6,115.8,255.6L115.8,255.6C115.8,255.6,115.8,255.6,115.8,255.6z"/>
	<path d="M113.3,264.9c0.9,0,1.7,0,2.6,0c0-3.2,0-6.3,0-9.3c-0.4,0-0.9,0-1.3,0C114.1,258.8,113.6,261.9,113.3,264.9z"/>
	<path d="M400.2,290c0-2,0-3.9,0-5.9c-2.2,0-4.4,0-6.5,0c0,1.6,0,3.3,0,4.9C395.9,289.4,398,289.7,400.2,290z"/>
	<path d="M134.8,189.2c0-3.1,0-6.2,0-9.3c-2.4,0-4.8,0-7.2,0c-0.6,3.1-1.2,6.2-1.8,9.4C128.9,189.2,131.8,189.2,134.8,189.2
		C134.8,189.2,134.8,189.2,134.8,189.2C134.8,189.2,134.8,189.2,134.8,189.2z"/>
	<path d="M135,170.2c3.2,0,6.2,0,9.4,0c0-3.2,0-6.2,0-9.4c1.7,0,3.3,0,4.9,0l1.6-9.5c-5.3,0-10.6,0-15.9,0
		C135,157.7,135,164,135,170.2z"/>
	<path d="M125.4,217.7c3.1,0,6.2,0,9.4,0c0,3.3,0,6.4,0,9.4c0,0,0,0,0,0c0,0,0,0,0,0c1,0,2,0,2.9,0l3.3-19c-5.2,0-10.4,0-15.7,0
		C125.3,211.5,125.3,214.5,125.4,217.7C125.3,217.6,125.3,217.7,125.4,217.7C125.3,217.7,125.3,217.7,125.4,217.7z"/>
	<path d="M414.7,141.8c2.4,0,4.9,0,7.4,0c0-6.3,0-12.5,0-18.8c3.7,0,7.4,0,11.1,0l1.6-9.3c-7.3-0.7-12-1.4-13.9-1.7
		C419.3,119.5,417.1,129.8,414.7,141.8z"/>
	<path d="M412.7,179.7C412.7,179.7,412.7,179.7,412.7,179.7L412.7,179.7C412.7,179.7,412.7,179.7,412.7,179.7z"/>
	<path d="M422.2,186.7l6.1-35.5c-5.2,0-10.4,0-15.5,0c0,0.2-0.1,0.4-0.1,0.6c0,2.9,0,5.8,0,8.8c-0.6,0-1.2,0-1.7,0
		c-0.6,3.1-1.2,6.3-1.9,9.6c1.2,0,2.4,0,3.7,0c0,3.2,0,6.4,0,9.5c3.1,0,6.2,0,9.5,0C422.2,182.1,422.2,184.4,422.2,186.7z"/>
	<path d="M623.7,198.7c-0.8,0-1.6,0-2.4,0c0,3.2,0,6.3,0,9.4c-4.5,0-8.8,0-13.2,0l1.7,9.7c3.8,0,7.6,0,11.5,0c0,3.1,0,6.2,0,9.3
		c2.5,0,4.9,0,7.5,0C627.2,217.8,625.5,208.2,623.7,198.7z"/>
	<path d="M598.1,151.4c1.4,0,2.8,0,4.2,0c0,3.1,0,6.2,0,9.3c-0.8,0-1.7,0-2.5,0l2.6,14.5c0-4.8,0-9.7,0-14.5c3.1,0,6.1,0,9.4,0
		c0-3.2,0-6.2,0-9.4c1,0,1.9,0,2.9,0c-1.4-6.8-2.7-13.2-3.9-19.1c-5.3,0-10.6,0-15.9,0L598.1,151.4z"/>
	<path d="M621.3,227.1C621.3,227.1,621.2,227.1,621.3,227.1L621.3,227.1C621.3,227.1,621.3,227.1,621.3,227.1z"/>
	<path d="M621.2,227.1C621.2,227.1,621.2,227.1,621.2,227.1C621.2,227.2,621.3,227.2,621.2,227.1L621.2,227.1z"/>
	<path d="M621.3,255.6C621.3,255.6,621.2,255.6,621.3,255.6C621.2,255.6,621.2,255.6,621.3,255.6c-1.6,0-3.2,0-4.8,0l6.2,35.1
		c4.8-0.6,9.6-1.3,14.5-2.1c-0.4-6.4-1.3-14.4-2.5-23.6c-4.4,0-8.9,0-13.3,0C621.3,261.8,621.3,258.7,621.3,255.6z"/>
	<path d="M621.3,246.1c0-6.3,0-12.6,0-18.9c-3.3,0-6.5,0-9.8,0l3.3,19C616.9,246.1,619.1,246.1,621.3,246.1
		C621.2,246.1,621.2,246.1,621.3,246.1C621.2,246.1,621.3,246.1,621.3,246.1z"/>
	<path d="M592.8,121.4l0.3,1.4c3,0,6.1,0,9.3,0c0-3.2,0-6.3,0-9.5c1.5,0,2.9,0,4.3,0c-0.2-0.8-0.3-1.5-0.5-2.2
		c-2,0.4-6.5,1.1-13.4,2C592.8,115.9,592.8,118.6,592.8,121.4z"/>
	<path d="M403.2,284C403.2,284,403.2,284,403.2,284C403.2,284,403.2,284,403.2,284C403.2,284,403.2,284,403.2,284z"/>
	<path d="M404.3,290.5l1.1-6.5c-0.7,0-1.5,0-2.2,0c0,2.1,0,4.2,0,6.3C403.6,290.4,403.9,290.5,404.3,290.5z"/>
	<path d="M393.7,284C393.7,284,393.7,284,393.7,284C393.7,284,393.7,284,393.7,284L393.7,284z"/>
	<path d="M408.7,265.1l6.6-38c-0.8,0-1.7,0-2.5,0c0-3.1,0-6.3-0.1-9.4c-4.1,0-8.3,0-12.4,0c-1.7,9.8-3.3,19.4-4.7,28.5
		c2.6,0,5.1,0,7.6,0c0,3.2,0,6.2,0,9.4c-3,0-6,0-9,0c-1,6.8-1.8,13.2-2.5,19c0.7,0,1.4,0,2.2,0c0,3.3,0,6.3,0,9.4c3.1,0,6.3,0,9.4,0
		c0-6.2,0-12.5,0-18.9C405,265.1,406.8,265.1,408.7,265.1z M403.3,227.1c3.1,0,6.2,0,9.3,0c0,3.1,0,6.1,0,9.3c-3.1,0-6.2,0-9.3,0
		C403.3,233.5,403.3,230.4,403.3,227.1z"/>
	<path d="M412.6,217.6C412.6,217.6,412.6,217.7,412.6,217.6C412.7,217.7,412.7,217.7,412.6,217.6L412.6,217.6z"/>
	<path d="M403.2,284C403.2,284,403.2,284,403.2,284C403.2,284,403.2,284,403.2,284C403.2,284,403.2,284,403.2,284z"/>
	<path d="M412.6,179.8c-1.8,0-3.6,0-5.5,0c-0.6,3.1-1.2,6.2-1.8,9.4c2.4,0,4.8,0,7.2,0C412.6,185.9,412.6,182.8,412.6,179.8z"/>
	<path d="M412.6,179.7C412.6,179.7,412.6,179.7,412.6,179.7C412.7,179.8,412.7,179.8,412.6,179.7L412.6,179.7z"/>
	<path d="M412.7,217.6C412.7,217.6,412.7,217.6,412.7,217.6L412.7,217.6C412.7,217.7,412.7,217.6,412.7,217.6z"/>
	<path d="M420.1,198.7c-2.5,0-4.9,0-7.4,0c0,6.4,0,12.7,0,18.9c1.4,0,2.8,0,4.2,0L420.1,198.7z"/>
	<path d="M393.7,284C393.7,284,393.7,284,393.7,284C393.7,284,393.7,284,393.7,284C393.7,284,393.7,284,393.7,284z"/>
	<path d="M390.3,288.5c1.1,0.2,2.3,0.4,3.4,0.6c0-1.7,0-3.3,0-4.9c0,0,0-0.1,0-0.1c-1,0-2,0-3.1,0
		C390.5,285.6,390.4,287.1,390.3,288.5z"/>
	<path d="M621.3,255.6c4,0,8,0,12,0c-0.8-5.4-1.7-11-2.6-16.9c0,2.5,0,4.9,0,7.4c-3.3,0-6.3,0-9.4,0c0,0,0,0,0,0c0,0,0,0,0,0
		C621.2,249.3,621.2,252.4,621.3,255.6C621.2,255.6,621.2,255.6,621.3,255.6C621.2,255.6,621.3,255.6,621.3,255.6z"/>
	<path d="M611.9,179.8c2.8,0,5.5,0,8.2,0c-0.6-3.2-1.2-6.4-1.8-9.5c-2.1,0-4.3,0-6.4,0C611.9,173.5,611.9,176.6,611.9,179.8z"/>
</g>
</svg>
