<?xml version="1.0" encoding="utf-8"?>
<!-- Generator: Adobe Illustrator 25.3.0, SVG Export Plug-In . SVG Version: 6.00 Build 0)  -->
<svg version="1.1" id="Layer_1" xmlns="http://www.w3.org/2000/svg" xmlns:xlink="http://www.w3.org/1999/xlink" x="0px" y="0px"
	 viewBox="0 0 750.2 400.1" style="enable-background:new 0 0 750.2 400.1;" xml:space="preserve">
<style type="text/css">
	.st0{fill:none;}
</style>
<g>
	<path class="st0" d="M630.8,282.9c-0.2,0.3-0.4,0.7-0.6,1c0.2-0.1,0.5-0.3,0.7-0.4C630.8,283.3,630.8,283.1,630.8,282.9z"/>
	<path class="st0" d="M631.1,285c-0.2,0.1-0.3,0.2-0.5,0.2c-0.5,0.3-1,0.6-1.5,0.9c-0.4,0.8-0.7,1.6-0.9,2.5c0,0.1,0,0.2-0.1,0.3
		c1-0.6,2.1-1.2,3.3-1.8c0-0.3-0.1-0.6-0.1-0.9C631.2,285.8,631.1,285.4,631.1,285z"/>
	<path class="st0" d="M401.4,282.1c0.1,0,0.2,0,0.3-0.1c0,0,0,0-0.1,0c-0.5-0.4-1.3-0.7-2.2-0.8
		C399.8,281.7,400.5,281.9,401.4,282.1z"/>
	<path class="st0" d="M399.2,281.1c-0.6-0.3-1.3-0.6-1.9-0.9C397.4,280.8,398.3,281,399.2,281.1z"/>
	<path class="st0" d="M396.5,280.2c0.2,0,0.4,0,0.6,0c0,0-0.1,0-0.1,0C396.9,280.2,396.7,280.2,396.5,280.2z"/>
	<path class="st0" d="M138.7,212.5c-1.6-2-3.1-4-4.7-6c-1.5,0-3.1,0-4.6,0c1.3,1.6,2.6,3.2,3.9,4.9c0.2,0,0.3,0.1,0.5,0.1
		C135.4,211.8,137,212.1,138.7,212.5z"/>
	<path class="st0" d="M145.2,121.6c0.5-0.2,1-0.3,1.5-0.5c1-0.3,2-0.7,3-1.1c0.3-0.1,0.6-0.3,0.9-0.5c-1.1-0.2-1.8,0-2.7,0.1
		c-1.3,0.2-2.6,0.4-3.9,0.6C144.4,120.7,144.8,121.2,145.2,121.6z"/>
	<path d="M131.9,258.8c0.2-1.3,0.2-2.6,0.1-3.8c-4.2,1.8-8.5,3.5-12.9,5.1c-1.8,0.6-3.6,1.3-5.5,1.9c-0.1,1.1-0.3,2.1-0.4,3.1
		c3.9-1.2,7.7-2.5,11.5-3.8C127.1,260.5,129.5,259.6,131.9,258.8z"/>
	<path d="M145.5,180.5c-1.1,0.1-2.2,0.1-3.3,0.1c-4.8-0.2-9.6-0.5-14.4-0.8c0,0,0,0-0.1,0c0,0.2-0.1,0.4-0.1,0.6
		c0.4,0,0.9,0.1,1.3,0.1c5.1,0.5,10.2,1,15.3,1.5c0.4,0,0.9,0.1,1.3,0.1l0.3-1.7C145.7,180.5,145.6,180.5,145.5,180.5z"/>
	<path d="M143.6,174.4c1.1,0.8,2,1.7,2.8,2.6l0.2-1.2c-3.1-2.5-6.6-4.9-10.4-7.1c-0.3-0.2-0.7-0.3-1-0.4c-0.1,0-0.1,0.1-0.2,0.1
		c0.5,0.4,0.9,0.7,1.4,1.1C138.8,171,141.3,172.7,143.6,174.4z"/>
	<path d="M635.1,269c-0.2-1.8-0.5-3.6-0.7-5.5c-2.4,3.4-4.8,6.8-8,10c-2.3,2.2-4.1,4.5-5.6,6.9l0.2,1.2c1.1-0.9,2.2-1.8,3.2-2.7
		C628.2,275.7,631.8,272.4,635.1,269z"/>
	<path d="M423.8,154.4c-2.8-0.1-5.5-0.4-8.1-1c-1.2-0.3-2.4-0.6-2.8-1.4c0.1-0.1,0.2-0.3,0.4-0.5c1-0.7,0.7-1.4-0.2-2
		c-0.3,1.6-0.7,3.3-1,5c1.6,0.3,3.2,0.5,4.8,0.7c3.5,0.4,7.1,0.5,10.6,0.4l0.2-1.2C426.4,154.4,425.1,154.4,423.8,154.4z"/>
	<path d="M354.7,262.7c-4.4-0.4-8.8-0.9-13.2-1.2c-1.5-0.1-3.1-0.2-4.6-0.2l0.1,0.6c1.6,0.1,3.2,0.2,4.9,0.4
		c-1.2,0.1-2.4,0.1-3.6,0.1c-0.4,0-0.8,0-1.2,0l0.4,2.1c1.8,0.2,3.5,0.5,5.3,0.7c0.2,0,0.3,0.1,0.6,0.3c-1.9-0.2-3.9-0.3-5.8-0.5
		l0.2,1c6.1,0.6,12,1.5,17.8,2.6C355.2,266.7,354.9,264.7,354.7,262.7z"/>
	<path d="M342,191.4c0,0.2,0.3,0.5,0.5,0.7c0.1,0,0.3,0,0.4,0c-0.2-1.1-0.4-2.2-0.6-3.3c0,0,0,0,0,0C342,189.6,342,190.5,342,191.4z
		"/>
	<path d="M153.2,137.6c-0.3,0.1-0.7,0.3-1,0.4c-1.6,0.6-3.1,1.3-4.6,2c-3.4-2.6-6.9-5.2-10.4-7.8c-0.2,0.9-0.4,1.8-0.6,2.8
		c1.1,0.8,2.2,1.6,3.3,2.3c-1.4,0.6-2.8,1.2-4.2,1.8c-0.1,0.3-0.1,0.6-0.2,1c1.7-0.7,3.4-1.5,5.1-2.2c3.7,2.7,7.2,5.5,10.6,8.3
		c0.2,0.1,0.3,0.3,0.5,0.4l0.5-3c-1-0.8-2.1-1.6-3.1-2.4c1.2-0.5,2.5-1,3.8-1.5L153.2,137.6z"/>
	<path d="M140,145c1.7-0.8,3.4-1.5,5.1-2.3c-0.2-0.2-0.5-0.4-0.7-0.6c-0.2-0.2-0.3-0.4-0.5-0.6c-3.3,1.4-6.5,2.9-9.7,4.4
		c-0.1,0.6-0.3,1.3-0.4,1.9c1.9-0.9,3.8-1.8,5.7-2.7C139.8,145.1,139.9,145.1,140,145z"/>
	<path d="M422.2,116c-0.7-0.1-1.4-0.2-2.1-0.4c-0.2,0.9-0.4,1.8-0.6,2.8c1.5,0.1,2.9,0.2,4.4,0.4c1.6,0.2,3.2,0.3,4.8,0.5
		c1,0.1,1.9,0.3,2.9,0.4c0.7,0.2,1.4,0.3,2.1,0.5l0.9-5c-0.2,0-0.3,0.1-0.5,0.1c-0.7-0.5-1.3-1.2-1.6-1.8c0.8,0.3,1.5,0.6,2.3,0.9
		l0.1-0.7c-2.7-0.3-5.1-0.5-7.1-0.8C425.9,113.9,424,115,422.2,116z"/>
	<path d="M404.4,289.9c-1,0.1-2,0.2-3,0.3c1,0.1,1.9,0.2,2.9,0.3L404.4,289.9z"/>
	<path d="M157,115.8l0.3-1.9c-0.6-0.1-1.1-0.1-1.6-0.2C156.1,114.4,156.5,115.1,157,115.8z"/>
	<path d="M409.9,165.9c-0.2,1.2-0.5,2.3-0.7,3.5c2.3,2.9,4.5,5.8,6.8,8.7c0.8,1,1.6,1.9,2.3,2.9c-2-1.1-4-2.1-6-3.2
		c-1.4-0.7-2.9-1.5-4.3-2.2c0,0.2-0.1,0.5-0.1,0.7c0.1,0,0.1,0.1,0.2,0.1c3.7,1.9,7.3,3.7,11,5.6c0,0,0,0,0.1,0
		c1.1,1.3,2.1,2.7,3.2,4l0.2-1.4c0-0.1-0.1-0.1-0.1-0.2c-0.4-0.6-1-1.1-1-2c0.6,0.4,1,0.7,1.3,1l0.3-1.5c-1.7-2-3.4-3.9-5.1-5.9
		C414.9,172.8,412.4,169.4,409.9,165.9z"/>
	<path d="M420.3,114.8c1.4-0.8,2.7-1.6,4.1-2.4c-1.6-0.2-2.7-0.4-3.4-0.5C420.7,112.8,420.5,113.8,420.3,114.8z"/>
	<path d="M324.7,125.6c-0.4-0.1-0.9-0.2-1.3-0.3c-3.6-0.9-7.2-1.7-10.9-2.5l0.6,3.6c0.5,0,1,0.1,1.5,0.1c0.4,0.1,0.8,0.2,1.2,0.4
		c4.2,1.3,7.9,3,10.8,5c0.5,0.4,1.1,0.7,1.7,1c0.9,0.4,1.9,0.6,3,0.7c-0.4-2.1-0.9-4.2-1.3-6.2c-0.6-0.2-1.2-0.4-1.8-0.6
		c0.6,0,1.1,0,1.7,0c-0.1-0.3-0.1-0.7-0.2-1c-1.1,0-2.3,0-3.4,0.1C325.7,125.6,325.2,125.6,324.7,125.6z"/>
	<path d="M337.5,240.6c4.4-1,8.9-1.9,13.4-2.7c-0.1-0.7-0.2-1.5-0.4-2.2c-3.5,0.7-7,1.4-10.5,2.1c-2.4,0.5-4.7,1-7.1,1.5l0.4,2.2
		c0.7-0.1,1.3-0.3,1.9-0.4C336,240.9,336.8,240.7,337.5,240.6z"/>
	<path d="M313.9,130.4l1.8,10.2c1.1,1.2,2.2,2.5,3.3,3.7c0.4,0.4,1,0.8,1.5,1.2v-6.8c-0.4-0.4-0.9-0.9-1.2-1.3
		C317.5,135.1,315.7,132.7,313.9,130.4z"/>
	<path d="M418.9,141.7c-1.3-0.5-2.6-1.1-3.8-1.7c-0.1,0.3-0.1,0.5-0.2,0.8c1.2,0.5,2.4,1,3.6,1.5c2.8,1.2,5.5,2.3,8.5,3.4
		c0.7,0.3,1.5,0.5,2.2,0.7l0.1-0.7c-0.7-0.2-1.5-0.5-2.2-0.7C424.3,144,421.6,142.9,418.9,141.7z"/>
	<path d="M414.3,155.9c-0.1-0.3-0.3-0.6-1.1-0.6c-0.5,0.1-0.9,0.3-1.3,0.5c-0.2,0.8-0.3,1.5-0.5,2.3c0.2,0,0.4-0.1,0.7-0.1
		c0.3,0.4,0.5,0.7,0.6,1c0.4,1.2,0.7,2.4,1.1,3.6c0.8,2.6,3.4,4.5,8,5.7c0.6,0.1,1.2,0.3,1.8,0.4c0.6,0.1,1.1,0.2,1.7,0.4l0.1-0.4
		c-0.8-0.2-1.6-0.4-2.4-0.6c-4.5-1.1-7.2-3-8-5.6c-0.5-1.6-0.5-3.2-0.5-4.8C414.4,157.1,414.4,156.5,414.3,155.9z"/>
	<path d="M318.1,154.6l0.5,2.7c3.2,0.8,6.4,1.6,9.7,2.4c0,0,0,0,0,0c-0.4,1.5-0.5,2.9-0.4,4.5c0.1,2.5,0.3,5,0.7,7.5
		c0.5,3.5,0.6,7-0.2,10.5c-0.3,1.4-0.9,2.8-2,4.1c-0.4,0.5-1,1.1-1.6,1.6c-0.1,0.1-0.2,0.1-0.3,0.2c-0.1,0.1-0.3,0.1-0.4,0.2
		l0.3,1.7c0.7-0.4,1.3-0.9,1.8-1.3c1.1-1,1.8-2.2,2.3-3.3c1.7-4,1.7-8,1.2-12c-0.4-3.2-0.8-6.4-0.8-9.6c0-1.3,0.2-2.5,0.5-3.8
		c0.2,0.1,0.5,0.1,0.7,0.2c1.9,0.5,3.4,1.1,4.1,2.2h3c-0.3-1.3-0.5-2.5-0.8-3.8c-0.4-0.1-0.9-0.2-1.3-0.2c-1.6-0.3-3.2-0.6-4.8-0.9
		c0.9-1.9,2.1-3.7,3.7-5.6c0.3-0.3,0.6-0.7,1-1c-0.1-0.5-0.2-1-0.3-1.5c-0.3,0.3-0.6,0.6-0.9,0.9c-2,2.2-3.5,4.5-4.4,6.9
		C325.5,156.3,321.8,155.5,318.1,154.6z"/>
	<path d="M424.2,129.3c-1.5,0.4-3.1,0.8-4.6,1.2c-0.1,0-0.2,0-0.2,0.1c2.6,0.2,5.1,0.4,7.7,0.6c1.3,0.1,2.5,0.2,3.8,0.4
		c-1.1,0.9-2,1.9-2.7,2.9c-0.6,0.8-1.1,1.7-1.3,2.5c-0.4,1.4,1,2.3,3.5,2.4l1.6-9.3c-0.4,0-0.8,0-1.2-0.1
		C428.6,129.7,426.4,129.5,424.2,129.3z"/>
	<path d="M412,193.7c2.7,1.2,5.4,2.3,8.4,3.3l0.2-1.2c-0.6-0.2-1.1-0.3-1.6-0.5c-3.2-1-6-2.3-8.8-3.6c-1.6-0.8-3.2-1.5-4.8-2.2
		c-0.1,0.4-0.1,0.8-0.2,1.2c0,0,0.1,0,0.1,0C407.5,191.7,409.7,192.7,412,193.7z"/>
	<path d="M406,217.9c-0.6-0.2-1.1-0.5-1.8-0.8c1.5-0.2,2.5,0.1,3.5,0.3c3,0.6,6,1.3,8.9,2l0.2-1c-2.7-0.7-5.5-1.5-8.3-2.1
		c-2.6-0.6-5.1-1.2-7.7-1.8c-0.3,1.9-0.7,3.7-1,5.6c0.4,0.2,0.8,0.4,1.3,0.6c0.7,0.3,0.9,0.8,0.5,1.2c-1.1,1-0.5,2,0.5,2.9
		c0.5,0.4,0.9,0.8,1.4,1.2c3.9,0.5,7.8,1.1,11.6,1.8l1.1-6.4c-1.1-0.4-2.3-0.8-3.4-1.2C410.5,219.5,408.3,218.7,406,217.9z"/>
	<path d="M421.3,147.6c1.1,0.6,2.3,1.2,3.5,1.7c1.1,0.5,2.3,0.9,3.5,1.4l0.2-1c-0.2-0.1-0.5-0.2-0.7-0.2c-2.7-1-5-2.2-7.3-3.4
		c-1.7-0.9-3.3-1.9-4.9-2.8c-0.4-0.2-0.8-0.5-1.2-0.7c-0.1,0.5-0.2,0.9-0.3,1.4c0.5,0.2,1,0.5,1.5,0.7
		C417.6,145.6,419.4,146.6,421.3,147.6z"/>
	<path d="M628.2,223.6c-0.1-0.5-0.2-1.1-0.3-1.6c-0.4,0.1-0.9,0.3-1.3,0.4c-2.7,0.7-5.5,1.1-8.4,1.2c-0.1,0-0.2,0-0.3,0
		c2.5-2.6,5-5.2,7.3-7.8c0.5-0.5,0.9-1,1.3-1.5c-0.8-4.4-1.6-8.8-2.4-13.2c-0.6,0-1.3,0-1.9,0c0.1-0.4,0.3-0.7,0.4-1.1
		c0.4,0,0.9,0,1.3,0c-1.3-7.1-2.7-14.2-4-21.2c0,0.8,0,1.7,0,2.5c-0.2,5.6-1.8,11.1-3.3,16.7c-0.2,0.8-0.5,1.7-0.7,2.5
		c0.1,0,0.3,0,0.4,0c1.4-0.1,2.8-0.2,4.2-0.3c-0.1,0.4-0.3,0.7-0.4,1.1c-1.5,0.1-3.1,0.2-4.6,0.4c-0.7,2.6-1.4,5.2-2.2,7.8
		c-0.3,1-0.6,1.9-0.9,2.9c-0.7,0-1.4,0.1-2,0.2c-0.5,0.1-1,0.2-1.5,0.4l0.8,4.4c0.5-0.5,1-1,1.6-1.5c-0.2,0.4-0.3,0.9-0.5,1.3
		c-0.2,0.7-0.5,1.3-0.8,2l1.8,10.3c1.1-1,2.2-2.1,3.3-3.1C619.7,225.8,624,224.9,628.2,223.6z"/>
	<path d="M627.1,230.1c0.5,0.1,1.2,0.2,1.8,0.2c0.1,0,0.3,0,0.4,0c-0.2-1.5-0.5-3-0.8-4.4c-0.4,0.2-0.7,0.4-1.1,0.6
		c-0.7,0.5-1.4,0.9-1.9,1.5C624.7,228.8,625.4,229.7,627.1,230.1z"/>
	<path d="M602.3,124.2c3.3,5.2,6.2,10.6,8.5,15.9c-0.9-0.2-1.7-0.4-2.6-0.6c-2.9-0.7-5.7-1.6-8.4-2.4c1.8,1.9,3.5,3.7,5.1,5.6
		c1.9,0.6,3.9,1.2,5.9,1.8c0.6,0.2,1.3,0.4,1.9,0.5c0.4,1.2,0.9,2.4,1.3,3.6c-1.9-9.4-3.7-18-5.2-25.3c-4.5-3.1-9-6.3-13.2-9.5
		C598,117.2,600.1,120.7,602.3,124.2z"/>
	<path d="M406.2,228.1c2.7,1.8,5.3,3.7,7.9,5.5l0.9-5c-2.2-0.4-4.5-0.7-6.7-1c-0.4,0-0.7-0.1-1.1-0.1c0.2-0.2,0.3-0.4,0.4-0.7
		c-1.3-0.3-2.5-0.2-3.7-0.1c-1.6,0.2-3.2,0.4-4.8,0.6c-0.2,0-0.4,0.1-0.6,0.1c-0.2,1.2-0.4,2.5-0.6,3.7c2.3-0.8,4.5-1.6,6.7-2.4
		C405.2,228.6,405.7,228.3,406.2,228.1z"/>
	<path d="M636.9,285.1c-0.5,0.2-0.9,0.3-1.4,0.5c-0.3-0.4-0.5-0.8-0.8-1.2c-0.1-0.2-0.3-0.4-0.4-0.6c0.8-0.3,1.6-0.5,2.5-0.7
		c-0.1-0.8-0.1-1.6-0.2-2.4c-1.2,0.4-2.3,0.9-3.3,1.5c-0.3-0.4-0.6-0.8-0.9-1.2c0,0,0,0-0.1-0.1c0.5-0.6,1-1.3,1.5-1.9
		c0.8-0.9,1.5-1.8,2.3-2.7c-0.2-1.9-0.4-3.9-0.7-5.9c-0.9,0.8-1.9,1.7-2.8,2.5c-3.6,3.2-7.4,6.3-11.1,9.5c-0.1,0.1-0.1,0.1-0.2,0.2
		l1.4,8.1c2.7-0.3,5.4-0.7,8.1-1.1c0.3-0.2,0.6-0.4,0.9-0.5c0,0.1,0,0.3,0.1,0.4c1.8-0.3,3.6-0.5,5.5-0.8c0-0.2,0-0.4,0-0.5
		c-0.3-0.4-0.6-0.9-0.9-1.3c0.3-0.1,0.5-0.2,0.8-0.3C636.9,286,636.9,285.5,636.9,285.1z M630.8,282.9c0,0.2,0.1,0.4,0.1,0.6
		c-0.2,0.1-0.5,0.3-0.7,0.4C630.3,283.6,630.5,283.3,630.8,282.9z M628.1,288.9c0-0.1,0-0.2,0.1-0.3c0.2-0.8,0.6-1.7,0.9-2.5
		c0.5-0.3,1-0.6,1.5-0.9c0.2-0.1,0.3-0.2,0.5-0.2c0.1,0.4,0.1,0.8,0.2,1.2c0,0.3,0.1,0.6,0.1,0.9C630.1,287.7,629,288.2,628.1,288.9
		z"/>
	<path d="M132.8,254.7c0,0.3,0.1,0.5,0.1,0.8l0.2-0.9C133,254.6,132.9,254.6,132.8,254.7z"/>
	<path d="M126.8,290.8l1.6-9.1c-0.7,0.3-1.5,0.6-2.2,0.9c-0.8,0.3-1.6,0.6-2.8,0.5c-0.1-0.2-0.3-0.4-0.2-0.6
		c0.3-0.4,0.6-0.9,1.1-1.2c1.4-1.2,2.9-2.3,4.7-3.3l0.4-2.2c-0.3,0.1-0.6,0.3-1,0.4c-0.7,0.3-1.4,0.7-2,1.1c-3.8,2.3-7.6,4.7-11.3,7
		c-0.8,0.5-1.6,1.1-2.3,1.7c-0.6,0.1-1.3,0.2-1.9,0.3c0,0.4-0.1,0.7-0.1,1.1c0.1,0,0.2,0,0.4-0.1c-0.1,0.1-0.3,0.3-0.4,0.4
		c0,0.2,0,0.5,0,0.7c1.4,0.2,2.8,0.5,4.1,0.7c1.4-0.2,2.8-0.4,4.2-0.7c0.8-0.1,1.5-0.3,2.2-0.5c-0.7,0.6-1.4,1.2-2.1,1.8
		C121.8,290.2,124.3,290.5,126.8,290.8z"/>
	<path d="M116.6,274.2c0.4-0.5,0.6-1,0.8-1.6c0.2-0.7-0.6-1.2-2-1.3c-0.5,0-1.1,0-1.7,0c-0.4,0.1-0.9,0.1-1.3,0.2
		c-0.3,2.7-0.6,5.2-0.8,7.6c0.8-0.7,1.6-1.3,2.3-2C115,276.1,115.8,275.2,116.6,274.2z"/>
	<path d="M630.2,235.7c0-0.2-0.1-0.4-0.1-0.5c-2.3,0.3-4.6,0.6-6.9,0.7c-3,0.2-6.1,0.2-9.1-0.1c-0.4,0-0.8-0.1-1.2-0.2l0.2,1
		c1.7,0.1,3.5,0.2,5.2,0.2c3.7-0.1,7.4-0.4,11-0.9C629.6,235.8,629.9,235.8,630.2,235.7z"/>
	<path d="M141.4,111.9c-0.2,1.1-0.5,2.3-0.8,3.6c0.6,0.2,1.1,0.4,1.6,0.7c0.4,0.2,0.8,0.4,1.2,0.7c0.7,0.5,1.3,1,2,1.5
		c0,0,0.1,0.1,0.2,0.1c-1,0.2-1.9,0.3-2.9,0.5c-0.7-0.8-1.5-1.5-2.3-2.3c-0.3,1.6-0.7,3.2-1,4.9c0.5,0.5,0.9,1,1.4,1.4
		c-0.6,0.2-1.2,0.4-1.8,0.5c-0.1,0.3-0.1,0.6-0.2,0.8c0.1,0.1,0.3,0.2,0.4,0.4c0.8-0.2,1.7-0.5,2.5-0.7c2.9,3,5.8,6,8.8,9
		c-2.3,0.9-4.5,1.8-6.7,2.8c0.1,0.2,0.2,0.5,0.3,0.7c2.3-1,4.7-1.9,7.1-2.9c0.8,0.8,1.6,1.6,2.4,2.4l0.8-4.7
		c-2.7-2.9-5.4-5.8-8.1-8.6c2.5-0.7,4.9-1.5,7.4-2.3c0.8,0.2,1.6,0.5,2.4,0.8l0.9-4.9c-1.7,0.4-3.3,0.7-5,1.1
		c-0.3-0.1-0.6-0.2-1-0.2c-1.3-0.4-2.6-0.7-3.9-1.1c0.5,0.7,0.9,1.4,1.3,2c0,0-0.1,0-0.1,0c-0.5,0.1-0.9,0.2-1.4,0.3
		c0.1-0.1,0.1-0.3,0.1-0.4c-0.2-1-0.4-2-0.7-3c-0.2-0.6-0.5-1.2-0.7-1.7c0-0.2-0.1-0.3-0.1-0.5c0-0.1,0-0.1,0-0.1
		C143.6,112.2,142.2,112,141.4,111.9z M148,119.7c0.8-0.1,1.6-0.4,2.7-0.1c-0.3,0.2-0.5,0.4-0.9,0.5c-1,0.4-2,0.7-3,1.1
		c-0.5,0.2-1,0.3-1.5,0.5c-0.4-0.4-0.8-0.8-1.2-1.3C145.3,120.1,146.6,119.9,148,119.7z"/>
	<path d="M357,282.7c-0.1-1-0.2-2.1-0.3-3.1c-2.3,0.1-4.5,0.2-6.8,0.3c-3.2,0.1-6.5,0.2-9.7,0.4l0.6,3.2c4.9-0.2,9.9-0.4,14.8-0.6
		C356,282.8,356.5,282.8,357,282.7z"/>
	<path d="M607,114.9c-1-1.1-2-2.2-3.1-3.4c-1.9,0.3-4.6,0.7-8,1.2c4.1,3.1,8.2,6.2,12.6,9.2C608,119.4,607.5,117,607,114.9z"/>
	<path d="M311,113.9c5.4,0.8,11,1.3,16.6,1.6c-0.1-0.4-0.2-0.9-0.3-1.3c-4.4-0.2-8.9-0.6-13.2-1.2c-1,0.1-2.1,0.3-3.2,0.4L311,113.9
		z"/>
	<path d="M345,251.8c2.9,0.8,5.8,1.7,8.5,2.6c0-0.3-0.1-0.7-0.1-1c-0.5-0.2-1-0.3-1.6-0.5c-2-0.6-3.9-1.1-5.9-1.6
		c2.1-1.2,4.3-2.5,6.6-3.6c-0.2-1-0.3-2.1-0.5-3.2c-3.9,1.8-7.6,3.6-11.2,5.5c-2-0.5-4.1-1-6.2-1.4l0.1,0.7c1.7,0.4,3.4,0.8,5.1,1.2
		c-1.1,0.6-2.3,1.2-3.4,1.8c-0.4,0.2-0.7,0.4-1.1,0.6l0.7,4.1c0.2-0.1,0.3-0.2,0.5-0.3c2.2-1.2,4.3-2.5,6.4-3.8
		C343.6,252.6,344.3,252.2,345,251.8z"/>
	<path d="M406.9,275.4C406.9,275.4,406.9,275.4,406.9,275.4c-0.4-0.9-1-1.8-1.7-2.5c-1.9-1.9-3.8-3.7-6.1-5.5c-2-1.5-4-3.1-6.1-4.6
		c-0.2,1.1-0.3,2.2-0.4,3.3c0.3,0.3,0.5,0.6,0.8,1c0.3,0.4,0.5,0.9,0.5,1.4c0.1,0.7-0.6,1-1.7,0.9c-0.2,1.8-0.4,3.5-0.6,5.1
		c0.1,0,0.2,0,0.3,0.1c3,0.7,6,1.3,9,1.9c0.3,0.1,0.7,0.1,1,0.2c-2.3,0.3-4.6,0.6-7,0.8c-1.2-0.5-2.4-0.9-3.6-1.4
		c-0.2,1.6-0.3,3.2-0.5,4.7c1-0.1,2-0.2,3-0.3c1.8,0.7,3.5,1.4,5.2,2.1c-2.6,0.6-5.2,1.2-7.8,1.9c0,0,0,0-0.1,0
		c-0.2,0-0.5,0-0.7,0.1c-0.1,0.8-0.1,1.6-0.2,2.4c1.6-0.4,3.2-0.8,4.8-1.2c3-0.3,6.1-0.7,9-1c0.3,0.1,0.6,0.3,1,0.4l0.7-4
		c-0.4,0.1-0.9,0.2-1.3,0.3c-1.4-0.6-2.8-1.1-4.2-1.7c2-0.3,3.9-0.5,5.9-0.8L406.9,275.4z M396.5,280.2c0.2,0,0.4,0,0.5-0.1
		c0,0,0.1,0,0.1,0C396.9,280.2,396.7,280.2,396.5,280.2z M397.3,280.3c0.6,0.3,1.3,0.6,1.9,0.9C398.3,281,397.4,280.8,397.3,280.3z
		 M401.6,282C401.7,282,401.7,282,401.6,282c-0.1,0-0.2,0.1-0.3,0.1c-0.8-0.2-1.6-0.4-1.9-0.9C400.3,281.3,401.1,281.6,401.6,282z"
		/>
	<path d="M340.7,283.5l1,6c1,0.3,2.1,0.6,3.2,0.9c4.1-0.5,8.3-1.1,12.5-1.8c0-0.7-0.1-1.5-0.1-2.3c-1.7-0.2-3.5-0.4-5.2-0.6
		C348.1,285.1,344.4,284.4,340.7,283.5z"/>
	<path d="M618.4,170.6c-0.4-2-0.8-4-1.2-6c-1.8-3.5-3.7-7-5.9-10.4c-2.2-3.4-4.6-6.8-7.8-10c-1.1-1.1-2.3-2.2-3.5-3.2
		c0.3,0.1,0.6,0.2,0.9,0.3c-1.2-1.5-2.5-3-3.9-4.5c-0.3-0.4-0.7-0.7-1-1.1c-0.2-0.1-0.5-0.2-0.7-0.3l0.8,4.6
		c4.2,2.8,7.3,5.9,9.9,9.2c3.8,4.7,6.7,9.5,9.2,14.4C616.4,166,617.5,168.3,618.4,170.6z"/>
	<path d="M133.6,242.5c-5.2-4.6-10-9.3-14.7-14.1c0,0.3-0.1,0.5-0.1,0.8c4.5,4.6,9.2,9.1,14.1,13.6c0.6,0.5,1.1,1,1.7,1.5
		c0.1,0.1,0.2,0.2,0.3,0.3l0.2-0.9C134.5,243.3,134,242.9,133.6,242.5z"/>
	<path d="M417.4,129.4c0.6-0.1,1.1-0.3,1.7-0.4c-0.3,0-0.6,0-0.9,0c-0.3,0-0.6,0-0.9,0c0,0.2-0.1,0.3-0.1,0.5
		C417.3,129.4,417.3,129.4,417.4,129.4z"/>
	<path d="M412.1,198.1c-2.1-0.7-4.3-1.4-6.5-2.1c-0.5-0.1-0.9-0.2-1.4-0.4c-0.2,0.9-0.3,1.9-0.5,2.8c2.7,0.3,5.2,0.7,7.6,1.4
		c2.7,0.8,5.4,1.7,8.1,2.4c0,0,0,0,0.1,0l0.3-1.7C417.2,199.9,414.6,199,412.1,198.1z"/>
	<path d="M329.9,221.9l0.3,2c0,0,0,0,0,0c3.9-1.5,7.8-2.9,11.7-4.3c1.8-0.7,3.6-1.4,5.4-2.1c-0.3-1.9-0.7-3.8-1-5.6
		c-0.3,0.2-0.6,0.3-0.9,0.5c-1.4,0.7-2.7,1.5-3.9,2.4c-0.7,0.5-1.4,1-1.5,1.6c-0.3,1.2-1.7,2-3.3,2.7
		C334.5,219.9,332.2,220.9,329.9,221.9z"/>
	<path d="M332.1,207.1c-0.4,0.1-1,0.1-1.3,0.3c-1.1,0.5-2.1,0.9-3.1,1.4l0.4,2.5c0.7-0.6,1.5-1.2,2.2-1.8c0.7-0.6,1.3-1.2,1.9-1.8
		C332.5,207.6,332.6,207.4,332.1,207.1z"/>
	<path d="M348.4,222.7c0-0.2-0.1-0.3-0.1-0.5c-2.8,1.1-5.6,2.2-8.5,3.3c-2.9,1-5.8,2-8.7,3l0.1,0.5c3.2-1.1,6.4-2.1,9.5-3.3
		C343.3,224.7,345.8,223.7,348.4,222.7z"/>
	<path d="M133.6,211.9c1.5,0.3,3,0.6,4.4,0.9c0.4,0.1,0.7,0.2,1.1,0.2c0.3,0.4,0.6,0.7,0.9,1.1l1.1-6.2c-0.1,0-0.2,0-0.2-0.1
		c-0.9-0.3-1.9-0.6-2.7-1c-0.2-0.1-0.5-0.2-0.7-0.3c1.3,0,2.6-0.1,3.9-0.2l0.2-1c-0.7,0.1-1.5,0.2-2.3,0.2c-1.1,0.1-2.3,0.1-3.4,0.2
		c-0.4-0.2-0.8-0.4-1.2-0.6c-1-0.5-1.9-1-2.9-1.5c0.6,0.7,1.1,1.4,1.7,2.2c-0.2,0-0.4,0-0.7,0c-1.3,0-2.6,0.1-3.9,0.1
		c-0.1-0.2-0.3-0.4-0.4-0.5c-1.2-1.5-2.3-3-3.4-4.4c0,0-0.1,0-0.1,0c-0.4-0.1-0.8-0.2-1.2-0.3c-0.3,1.6-0.6,3.2-0.9,4.8
		c0.2,0.2,0.3,0.5,0.5,0.7c-0.2,0-0.4,0-0.7,0c0,0.1-0.1,0.3-0.1,0.4c0.4,0,0.7,0,1.1,0c0.5,0.7,1.1,1.4,1.6,2.2
		c0.4,0.5,0.7,1.1,1.1,1.6c-0.1,0-0.2,0-0.3,0c-1.4-0.1-2.8-0.2-4.2,0c0,0.1-0.1,0.3-0.1,0.4c1-0.1,2.1-0.1,3.1-0.1
		c0.6,0,1.2,0,1.7,0.1c1.8,2.5,3.5,5,5.3,7.5c0.6,0.9,1.3,1.7,2.1,2.5c1.2,1.1,2.6,1.5,4.4,1.3l0.6-3.3
		C137.3,216.6,135.5,214.2,133.6,211.9z M133.2,211.4c-1.3-1.6-2.6-3.2-3.9-4.9c1.5,0,3.1,0,4.6,0c1.6,2,3.1,4,4.7,6
		c-1.7-0.3-3.3-0.7-5-1C133.5,211.4,133.4,211.4,133.2,211.4z"/>
</g>
</svg>
