<?xml version="1.0" encoding="utf-8"?>
<!-- Generator: Adobe Illustrator 25.3.0, SVG Export Plug-In . SVG Version: 6.00 Build 0)  -->
<svg version="1.1" id="Layer_1" xmlns="http://www.w3.org/2000/svg" xmlns:xlink="http://www.w3.org/1999/xlink" x="0px" y="0px"
	 viewBox="0 0 750.2 400.1" style="enable-background:new 0 0 750.2 400.1;" xml:space="preserve">
<g>
	<path d="M402.4,205.3c-0.3,1.5-0.5,3-0.8,4.5c4.9,3.9,9.7,7.9,14.6,11.7l0.8-4.5C412.1,213.1,407.3,209.2,402.4,205.3z"/>
	<path d="M335.9,156.1c-0.4-2.1-0.8-4.1-1.2-6.2c-6.7-5.4-13.5-10.8-20.2-16l1.1,6C322.3,145.2,329.1,150.6,335.9,156.1z"/>
	<path d="M400.3,217.1c-0.3,1.5-0.5,3-0.8,4.5c4.9,4,9.7,7.9,14.6,11.8l0.8-4.5C410.1,225,405.2,221,400.3,217.1z"/>
	<path d="M339.1,172.2c-0.4-2.1-0.8-4.1-1.2-6.1c-6.9-5.5-13.7-11-20.6-16.4l1.1,6C325.2,161.1,332.1,166.6,339.1,172.2z"/>
	<path d="M342.1,188.2c-0.4-2-0.8-4.1-1.2-6.1c-7-5.6-14-11.2-20.9-16.7l1.1,6C328.1,176.9,335.1,182.5,342.1,188.2z"/>
	<path d="M398.3,228.9c-0.3,1.5-0.5,3-0.8,4.5c4.9,4,9.7,7.9,14.6,11.8l0.8-4.5C408,236.8,403.1,232.9,398.3,228.9z"/>
	<path d="M396.3,240.8c-0.2,1.5-0.5,3.1-0.7,4.6c4.8,3.9,9.6,7.9,14.5,11.7l0.8-4.5C406,248.7,401.2,244.8,396.3,240.8z"/>
	<path d="M345.1,204.1c-0.4-2-0.7-4-1.1-6.1c-7.1-5.7-14.1-11.4-21.2-16.9l1.1,6C330.9,192.7,338,198.3,345.1,204.1z"/>
	<path d="M347.9,219.9c-0.3-2-0.7-4-1.1-6c-7.1-5.8-14.2-11.5-21.3-17l1.1,6C333.7,208.4,340.8,214.1,347.9,219.9z"/>
	<path d="M394.5,252.8c-0.2,1.6-0.5,3.1-0.7,4.6c4.7,3.9,9.5,7.7,14.2,11.6l0.8-4.5C404,260.6,399.2,256.7,394.5,252.8z"/>
	<path d="M392.7,265c-0.2,1.6-0.4,3.2-0.6,4.7c4.6,3.8,9.2,7.5,13.8,11.3l0.8-4.5C402.1,272.6,397.4,268.8,392.7,265z"/>
	<path d="M349.5,229.6c-7.1-5.8-14.2-11.4-21.3-17l1.1,6c7.1,5.6,14.1,11.3,21.2,17C350.2,233.6,349.9,231.6,349.5,229.6z"/>
	<path d="M155.6,123.5l0.9-5.4c-5.4-0.8-10.8-1.4-16.2-1.6c-0.4,1.8-0.8,3.6-1.2,5.6C144.7,122.2,150.2,122.7,155.6,123.5z"/>
	<path d="M391.3,277.2c-0.2,1.7-0.3,3.2-0.5,4.8c3.3,2.7,6.6,5.4,9.8,8c1.2,0.2,2.5,0.3,3.7,0.4l0.4-2.3
		C400.2,284.6,395.7,280.9,391.3,277.2z"/>
	<path d="M153.2,137.6l0.9-5.4c-5.6-0.7-11.2-1.1-16.8-1.1c-0.4,1.8-0.8,3.7-1.2,5.6C141.8,136.6,147.5,137,153.2,137.6z"/>
	<path d="M353,251.1c-0.3-1.9-0.6-3.9-0.9-5.9c-7-5.7-14-11.3-21-16.9l1.1,6C339.1,239.8,346,245.4,353,251.1z"/>
	<path d="M333.8,244l1.1,6c6.8,5.4,13.5,10.8,20.3,16.3c-0.2-1.9-0.5-3.8-0.8-5.8C347.5,255,340.7,249.4,333.8,244z"/>
	<path d="M150.7,151.9l0.9-5.5c-5.8-0.6-11.6-0.8-17.3-0.6c-0.4,1.9-0.8,3.7-1.1,5.7C139,151.2,144.9,151.4,150.7,151.9z"/>
	<path d="M148.3,166.3l0.9-5.5c-6-0.4-11.9-0.5-17.8-0.1c-0.4,1.9-0.7,3.8-1.1,5.7C136.2,165.9,142.2,165.9,148.3,166.3z"/>
	<path d="M336.6,259.7l1.1,6c6.4,5.1,12.8,10.3,19.2,15.5c-0.2-1.8-0.4-3.7-0.6-5.6C349.7,270.2,343.1,265,336.6,259.7z"/>
	<path d="M339.3,275.5l1.1,6c3.4,2.7,6.7,5.4,10.1,8.1c1.8-0.3,3.6-0.5,5.4-0.8C350.3,284.3,344.8,279.9,339.3,275.5z"/>
	<path d="M145.8,180.8l1-5.6c-6.1-0.3-12.2-0.1-18.3,0.5c-0.4,1.9-0.7,3.8-1.1,5.8C133.4,180.8,139.6,180.6,145.8,180.8z"/>
	<path d="M143.3,195.4l1-5.6c-6.3-0.1-12.5,0.3-18.6,1.1c-0.4,1.9-0.7,3.9-1.1,5.8C130.7,195.8,137,195.3,143.3,195.4z"/>
	<path d="M140.7,210.1l1-5.6c-6.4,0.1-12.7,0.7-18.9,1.8c-0.4,2-0.7,3.9-1.1,5.9C128,210.9,134.3,210.3,140.7,210.1z"/>
	<path d="M138.2,224.9l1-5.7c-6.4,0.3-12.8,1.1-19.1,2.5c-0.3,2-0.7,4-1,6C125.3,226.2,131.7,225.3,138.2,224.9z"/>
	<path d="M135.6,239.9l1-5.7c-6.4,0.5-12.8,1.6-19.2,3.2c-0.3,2-0.7,4-1,6C122.8,241.6,129.1,240.5,135.6,239.9z"/>
	<path d="M133,255l1-5.8c-6.4,0.7-12.7,2-19,3.8c-0.3,2-0.6,4.1-0.9,6C120.3,257.2,126.6,255.8,133,255z"/>
	<path d="M130.3,270.3l1-5.9c-6.2,0.9-12.4,2.4-18.6,4.4c-0.3,2.1-0.5,4.1-0.7,6C118.1,272.8,124.2,271.3,130.3,270.3z"/>
	<path d="M128.7,279.8c-5.9,1.1-11.8,2.7-17.6,4.7c-0.1,1.4-0.2,2.7-0.3,4c1.3,0.2,2.5,0.4,3.8,0.6c4.3-1.4,8.7-2.6,13.1-3.4
		L128.7,279.8z"/>
	<path d="M591.4,113.3l0.4,2.4c5.1,0.1,10.2-0.1,15.2-0.6c-0.3-1.4-0.6-2.7-0.9-4C604.1,111.5,599.1,112.3,591.4,113.3z"/>
	<path d="M593.4,124.8l1,5.6c5.3,0.1,10.5-0.2,15.7-0.8c-0.4-1.9-0.8-3.8-1.2-5.5C603.8,124.6,598.6,124.8,593.4,124.8z"/>
	<path d="M596,139.4l1,5.6c5.4,0,10.8-0.3,16.1-1c-0.4-1.9-0.8-3.7-1.1-5.5C606.7,139.2,601.3,139.5,596,139.4z"/>
	<path d="M598.6,154.1l1,5.6c5.5,0,11-0.4,16.4-1.2c-0.4-1.9-0.7-3.7-1.1-5.5C609.5,153.7,604,154.1,598.6,154.1z"/>
	<path d="M601.2,168.8l1,5.6c5.6-0.1,11.1-0.6,16.7-1.4c-0.4-1.9-0.7-3.7-1.1-5.5C612.2,168.3,606.7,168.7,601.2,168.8z"/>
	<path d="M603.7,183.4l1,5.6c5.7-0.1,11.3-0.7,16.9-1.6c-0.3-1.9-0.7-3.7-1.1-5.5C615,182.8,609.4,183.3,603.7,183.4z"/>
	<path d="M432.8,125.4l0.8-4.6c-3.8-2.8-7.6-5.7-11.3-8.7c-0.5-0.1-1-0.1-1.3-0.2c-0.3,1.2-0.5,2.4-0.8,3.7
		C424.3,118.9,428.6,122.2,432.8,125.4z"/>
	<path d="M606.3,198.1l1,5.6c5.7-0.2,11.4-0.8,17-1.8c-0.3-1.8-0.7-3.7-1-5.5C617.6,197.3,612,197.9,606.3,198.1z"/>
	<path d="M608.9,212.7l1,5.6c5.7-0.3,11.4-0.9,17-2c-0.3-1.8-0.7-3.7-1-5.5C620.3,211.8,614.6,212.4,608.9,212.7z"/>
	<path d="M430.7,137.4l0.8-4.6c-4.3-3.3-8.6-6.6-12.9-9.9c-0.3,1.4-0.6,2.9-0.9,4.5C422,130.7,426.4,134.1,430.7,137.4z"/>
	<path d="M428.6,149.4l0.8-4.6c-4.4-3.4-8.8-6.8-13.3-10.3c-0.3,1.5-0.6,2.9-0.9,4.5C419.7,142.5,424.2,146,428.6,149.4z"/>
	<path d="M611.5,227.3l1,5.6c5.7-0.3,11.3-1,16.9-2.1c-0.3-1.8-0.6-3.7-0.9-5.5C622.8,226.3,617.2,227,611.5,227.3z"/>
	<path d="M614,241.9l1,5.6c5.6-0.4,11.2-1.1,16.7-2.2c-0.3-1.8-0.6-3.7-0.9-5.5C625.3,240.8,619.7,241.6,614,241.9z"/>
	<path d="M426.6,161.4l0.8-4.6c-4.5-3.5-9-7-13.6-10.6c-0.3,1.5-0.6,3-0.9,4.5C417.4,154.3,422,157.8,426.6,161.4z"/>
	<path d="M424.5,173.3l0.8-4.6c-4.6-3.6-9.2-7.2-13.8-10.9c-0.3,1.5-0.6,3-0.9,4.5C415.2,166,419.9,169.7,424.5,173.3z"/>
	<path d="M616.6,256.5l1,5.6c5.5-0.4,10.9-1.2,16.3-2.3c-0.3-1.8-0.5-3.7-0.8-5.6C627.6,255.4,622.1,256.1,616.6,256.5z"/>
	<path d="M619.2,271.1l1,5.6c5.2-0.4,10.5-1.2,15.6-2.3c-0.2-1.8-0.4-3.7-0.7-5.6C629.8,269.9,624.5,270.7,619.2,271.1z"/>
	<path d="M422.4,185.3l0.8-4.6c-4.7-3.7-9.4-7.4-14.1-11.1c-0.3,1.5-0.6,3-0.9,4.5C413,177.8,417.7,181.6,422.4,185.3z"/>
	<path d="M406.9,181.3c-0.3,1.5-0.6,3-0.9,4.5c4.8,3.8,9.6,7.7,14.3,11.4l0.8-4.6C416.4,188.9,411.7,185.1,406.9,181.3z"/>
	<path d="M622.6,290.6c4.8-0.6,9.6-1.3,14.5-2.1c-0.1-1.6-0.2-3.3-0.4-5.1c-5,1.1-10,1.8-15,2.3L622.6,290.6z"/>
	<path d="M329.2,123.1c-0.5-2.2-0.9-4.3-1.3-6.2c-2.1-1.7-4.1-3.3-6.2-5c-1.6,0.2-3.4,0.5-5.5,0.8
		C320.4,116.2,324.8,119.6,329.2,123.1z"/>
	<path d="M332.5,139.4c-0.4-2.1-0.9-4.2-1.3-6.2c-6.5-5.3-13.1-10.4-19.6-15.5l1.1,6C319.3,128.8,325.9,134,332.5,139.4z"/>
	<path d="M404.7,193c-0.3,1.5-0.6,3-0.8,4.5c4.8,3.9,9.7,7.8,14.5,11.6l0.8-4.6C414.3,200.8,409.5,196.9,404.7,193z"/>
</g>
</svg>
