<?xml version="1.0" encoding="utf-8"?>
<!-- Generator: Adobe Illustrator 25.3.0, SVG Export Plug-In . SVG Version: 6.00 Build 0)  -->
<svg version="1.1" id="Layer_1" xmlns="http://www.w3.org/2000/svg" xmlns:xlink="http://www.w3.org/1999/xlink" x="0px" y="0px"
	 viewBox="0 0 750.2 400.1" style="enable-background:new 0 0 750.2 400.1;" xml:space="preserve">
<g>
	<path d="M327.2,134.9l-1.5-1c-0.1-0.1-0.4-0.1-0.6,0l-0.6,0.2c-0.1,0-0.4,0-0.6,0l-3.4,0.4c-0.2-0.1-0.6,0-0.6,0v0.3
		c0,0.1-0.5,0.1-0.6,0l-1.5-0.7c-0.1-0.1-0.5-0.1-0.6,0l-0.2,0.1c-0.1,0.1-0.6,0-0.6,0l-0.7-0.9c0-0.1-0.3-0.1-0.5,0l-0.7,0.6
		l2.1,11.8l0.1,0c0.1,0.1,0.5,0.1,0.6,0l0.2-0.1c0.1,0,0.5,0,0.6,0l1.5,0.7c0.1,0.1,0.6-0.9,0.6-1v-0.3c0-0.1,0.5-0.1,0.6,0l3.1,1.2
		c0.1,0,0.4,0,0.6,0l0.6-0.2c0.2,0,0.5,0,0.6,0l1.3,0.8c0.1,0.1,0.5,0.1,0.6,0l1.9-1c0.1-0.1,0.5-0.1,0.6,0l0.3,0.1
		c0.2,0.1,0.6,0,0.6,0v-0.4c0-0.1,0.3-0.1,0.5-0.1l1.1,0.2l0.4,0.1l0.3-0.1c0-0.1,0.2-0.1,0.4-0.1c-0.8-3.8-1.5-7.4-2.2-10.9l-0.2,0
		c-0.2,0-0.5,0-0.5,0.1v0.7l0,0L330,135c-0.1-0.1-0.4-1.3-0.5-1.2l-2.2,1.1L327.2,134.9z"/>
	<path d="M353.4,264.7c-0.1,0-0.3,0-0.4,0l-2.2,0.2c-0.1,0-0.4,0-0.4,0v0.2c0,0-0.3,0.1-0.4,0l-1-0.4c-0.1,0-0.3,0-0.4,0l-0.1,0
		c-0.1,0-0.4,0-0.4,0l-0.5-0.6c0,0-0.2,0-0.3,0l-0.8,0.7c-0.1,0-0.3,0-0.3,0l-0.6-0.5c0,0-0.2,0-0.4,0l-1.1,0.2l0,0l0,0l-0.1,2.9
		l-1.1-0.1c-0.2,0-0.5,0-0.5,0.1l-0.3,0.7l-0.1,0l-2.2-0.9c-0.2-0.1-0.6,0-0.6,0l-0.1,1.1c0,0.1-0.5,0.1-0.6,0c-0.1,0-0.2,0-0.4,0
		l1.9,10.9l1.5,0.6c0.2,0.1,0.6,0,0.6,0l0.2-0.5c0-0.1,0.3-0.1,0.5-0.1l1.2,0.2l-0.2,7.6h0l0,0.2h0.1l1.1-0.2c0.1,0,0.3,0,0.4,0
		l0.6,0.5c0,0,0.2,0,0.3,0l1.2-0.2c0.1,0,0.3,0,0.3,0l0.5-0.1c0,0,0.3,0.1,0.4,0l0.1,0c0.1,0,0.3,0,0.4,0l1,0.4
		c0.1,0,0.4-0.6,0.4-0.7v-0.2c0,0,0.3-0.1,0.4,0l2.1,0.8c0.1,0,0.3,0,0.4,0l0.4-0.1c0.1,0,0.3,0,0.4,0l0.8,0.6c0.1,0,0.3,0,0.4,0
		l1.3-0.6c0.1,0,0.3,0,0.4,0l0.2,0.1c0,0,0,0,0,0c-0.2-2.5-0.4-5.2-0.7-8.2l-1.3,0.7l-0.1,0l-1-0.7c-0.1,0-0.3,0-0.4,0l-0.4,0.1
		c-0.1,0-0.3,0-0.4,0l-2.2,0.2c-0.1,0-0.4,0-0.4,0v0.2c0,0-0.3,0.1-0.4,0l-1-0.4c-0.1,0-0.3,0-0.4,0l-0.1,0c-0.1,0-0.4,0-0.4,0
		l-0.5-0.6c0,0-0.2,0-0.3,0l-0.8,0.7c-0.1,0-0.3,0-0.3,0l-0.6-0.5c0,0-0.2,0-0.4,0l-0.6,0.1l0-6.9l0.4-0.1c0.1,0,0.3,0,0.4,0
		l0.6,0.5c0,0,0.2,0,0.3,0l1.2-0.2c0.1,0,0.3,0,0.3,0l0.5-0.1c0,0,0.3,0.1,0.4,0l0.1,0c0.1,0,0.3,0,0.4,0l1,0.4
		c0.1,0,0.4-0.6,0.4-0.7v-0.2c0,0,0.3-0.1,0.4,0l2.1,0.8c0.1,0,0.3,0,0.4,0l0.4-0.1c0.1,0,0.3,0,0.4,0l0.8,0.6c0.1,0,0.3,0,0.4,0
		l0.5-0.2c-0.3-2.5-0.6-5.1-1-7.8l-0.7-0.5c-0.1,0-0.3,0-0.4,0L353.4,264.7z"/>
	<path d="M342.3,244.9l-0.3,0.7l-0.1,0l-2.2-0.9c-0.2-0.1-0.6,0-0.6,0l-0.1,1.1c0,0.1-0.5,0.1-0.6,0c-0.1-0.1-0.5-0.1-0.6,0
		l-1.3,0.7c-0.1,0-0.5-0.9-0.7-0.9l-1.8-0.4l2.2,12.3c0.1,0,0.3,0,0.3,0l1.3-0.7c0.1-0.1,0.5-0.1,0.6,0c0.1,0.1,0.6,0,0.6,0l0.1,0
		c0-0.1,0.5-0.1,0.6,0l1.7,0.7c0.2,0.1,0.6,0,0.6,0l0.2-0.5c0-0.1,0.3-0.1,0.5-0.1l1,0.1l0,0.6h0.1l1.1-0.2c0.1,0,0.3,0,0.4,0
		l0.6,0.5c0,0,0.2,0,0.3,0l1.2-0.2c0.1,0,0.3,0,0.3,0l0.5-0.1c0,0,0.3,0.1,0.4,0l0.1,0c0.1,0,0.3,0,0.4,0l1,0.4
		c0.1,0,0.4-0.6,0.4-0.7v-0.2c0,0,0.3-0.1,0.4,0l2.1,0.8c0.1,0,0.3,0,0.4,0l0.4-0.1c0,0,0.1,0,0.1,0c-0.4-2.5-0.7-5.1-1.1-7.8
		l-2,0.2c-0.1,0-0.4,0-0.4,0v0.2c0,0-0.3,0.1-0.4,0l-1-0.4c-0.1,0-0.3,0-0.4,0l-0.1,0c-0.1,0-0.4,0-0.4,0l-0.5-0.6c0,0-0.2,0-0.3,0
		l-0.8,0.7c-0.1,0-0.3,0-0.3,0l-0.6-0.5c0,0-0.2,0-0.4,0l-0.6,0.1l0-4.5l-0.1,0l0,0l-1.7-0.2C342.6,244.9,342.3,244.9,342.3,244.9z"
		/>
	<path d="M313.1,123.7c0.1,0,0.3,0.1,0.5,0l1.8-0.3c0.2,0,0.5,0,0.5,0l0.7-0.2c0.1,0.1,0.5,0.1,0.6,0l0.2-0.1c0.1,0,0.5,0,0.6,0
		l1.5,0.7c0.1,0.1,0.6-0.9,0.6-1v-0.3c0-0.1,0.5-0.1,0.6,0l3.1,1.2c0.1,0,0.4,0,0.6,0l0.6-0.2c0.2,0,0.5,0,0.6,0l1.3,0.8
		c0.1,0.1,0.5,0.1,0.6,0l1.7-0.9c-0.9-4.2-1.7-7.9-2.4-11.2l-1.2-0.8c-0.1-0.1-0.4-0.1-0.6,0l-0.6,0.2c-0.1,0-0.4,0-0.6,0l-3.4,0.4
		c-0.1,0-0.1,0-0.2,0c-0.1,0-0.2,0-0.4,0.1c0,0,0,0,0,0v0.3c0,0.1-0.5,0.1-0.6,0l-0.4-0.2c-2.3,0.3-4.9,0.7-8,1.1l1.7,9.9
		L313.1,123.7z"/>
	<path d="M331.4,201.7c-0.2,0-0.5,0-0.5,0.1v0.7l0,0l-0.8-0.4c-0.1-0.1-0.4-1.3-0.5-1.2l-2.2,1.1l-0.2,0l-0.8-0.6l2.1,12l1-0.5
		c0.1-0.1,0.5-0.1,0.6,0l0.3,0.1c0.2,0.1,0.6,0,0.6,0v-0.4c0-0.1,0.3-0.1,0.5-0.1l1.1,0.2l0.4,0.1l0.3-0.1c0-0.1,0.4-0.1,0.6,0
		l2,0.5c0.2,0,0.5,0,0.6,0l1.3-0.7c0.1-0.1,0.5-0.1,0.6,0c0.1,0.1,0.6,0,0.6,0l0.1,0c0-0.1,0.5-0.1,0.6,0l1.7,0.7
		c0.2,0.1,0.6,0,0.6,0l0.2-0.5c0,0,0.3-0.1,0.5-0.1l1,0.1l0,1.1h0.1l1.1-0.2c0.1,0,0.3,0,0.4,0l0.6,0.5c0,0,0.2,0,0.3,0l0.5-0.1
		c-0.5-2.7-1-5.5-1.5-8.3c0,0-0.1,0-0.1,0l-0.6,0.1l0-3.9c-0.1-0.4-0.1-0.8-0.2-1.1l-1.6-0.2c-0.2,0-0.5,0-0.5,0.1l-0.3,0.7l-0.1,0
		l-2.2-0.9c-0.2-0.1-0.6,0-0.6,0l-0.1,1.1c0,0.1-0.5,0.1-0.6,0c-0.1-0.1-0.5-0.1-0.6,0l-1.3,0.7c-0.1,0-0.5-0.9-0.7-0.9l-2-0.5
		c-0.2-0.1-0.6,0-0.6,0l0.4,1.1l-0.1,0L331.4,201.7z"/>
	<path d="M343.9,198.8l0.2,0c-0.1-0.5-0.2-0.9-0.3-1.4L343.9,198.8L343.9,198.8z"/>
	<path d="M348.6,235.3l-0.1,0c-0.1,0-0.4,0-0.4,0l-0.5-0.6c0,0-0.2,0-0.3,0l-0.8,0.7c-0.1,0-0.3,0-0.3,0l-0.6-0.5c0,0-0.2,0-0.4,0
		l-1.1,0.2l0,0l0,0l-0.2,7.7h0.1l1.1-0.2c0.1,0,0.3,0,0.4,0l0.6,0.5c0,0,0.2,0,0.3,0l1.2-0.2c0.1,0,0.3,0,0.3,0l0.5-0.1
		c0,0,0.3,0.1,0.4,0l0.1,0c0.1,0,0.3,0,0.4,0l1,0.4c0.1,0,0.4-0.6,0.4-0.7v-0.2c0,0,0.3-0.1,0.4,0l0.7,0.3c-0.4-2.4-0.8-4.8-1.2-7.2
		c-0.1,0-0.1,0-0.1,0v0.2c0,0-0.3,0.1-0.4,0l-1-0.4C348.9,235.3,348.7,235.3,348.6,235.3z"/>
	<path d="M344.5,289.6l-1.7-0.2c-0.2,0-0.5,0-0.5,0.1l-0.3,0.7l-0.1,0l0,0l0.1,0.5c0.9-0.1,1.8-0.2,2.6-0.3l0-0.8L344.5,289.6
		L344.5,289.6z"/>
	<path d="M331.4,156.8c-0.2,0-0.5,0-0.5,0.1v0.3v0.4l0,0l-0.8-0.4c-0.1-0.1-0.4-1.3-0.5-1.2l-2.2,1.1l-0.2,0l-1.5-1
		c-0.1-0.1-0.4-0.1-0.6,0l-0.6,0.2c-0.1,0-0.4,0-0.6,0l-3.4,0.4c-0.2-0.1-0.6,0-0.6,0v0.3c0,0.1-0.5,0.1-0.6,0l-0.8-0.3l1.9,10.8
		c0.1,0,0.3,0,0.4,0l3.1,1.2c0.1,0,0.4,0,0.6,0l0.6-0.2c0.2,0,0.5,0,0.6,0l1.3,0.8c0.1,0.1,0.5,0.1,0.6,0l1.9-1
		c0.1-0.1,0.5-0.1,0.6,0l0.3,0.1c0.2,0.1,0.6,0,0.6,0v-0.3v-0.1c0-0.1,0.3-0.1,0.5-0.1l1.1,0.2l0.4,0.1l0.3-0.1c0-0.1,0.4-0.1,0.6,0
		l2,0.5c0.2,0,0.5,0,0.6,0l1.3-0.7c0.1,0,0.3,0,0.4,0c-0.8-3.8-1.5-7.6-2.2-11.3c0,0-0.1-0.1-0.1-0.1l-2-0.5c-0.2-0.1-0.6,0-0.6,0
		l0.1,0.3c-0.1,0-0.1,0-0.1,0.1l0.3,0.7l0,0L331.4,156.8z"/>
	<path d="M331.4,223.9c-0.2,0-0.5,0-0.5,0.1v0.7l0,0l-0.5-0.2l1.8,10.4l0.4,0.1l0.4,0.1l0.3-0.1c0-0.1,0.4-0.1,0.6,0l2,0.5
		c0.2,0,0.5,0,0.6,0l1.3-0.7c0.1-0.1,0.5-0.1,0.6,0c0.1,0.1,0.6,0,0.6,0l0.1,0c0-0.1,0.5-0.1,0.6,0l1.7,0.7c0.2,0.1,0.6,0,0.6,0
		l0.2-0.5c0-0.1,0.3-0.1,0.5-0.1l1.7,0.2h0.1l0-6.7l0.4-0.1c0.1,0,0.3,0,0.4,0l0.6,0.5c0,0,0.2,0,0.3,0l1.2-0.2c0.1,0,0.3,0,0.3,0
		l0.5-0.1c0,0,0.3,0.1,0.4,0l0.1,0c0.1,0,0.3,0,0.4,0l0.1,0.1c-0.4-2.6-0.9-5.1-1.3-7.7l-0.3-0.4c0,0-0.2,0-0.3,0l-0.8,0.7
		c-0.1,0-0.3,0-0.3,0l-0.6-0.5c0,0-0.2,0-0.4,0l-1.1,0.2l0,0l0,0l-0.1,2.4l-1.1-0.1c-0.2,0-0.5,0-0.5,0.1l-0.3,0.7l-0.1,0l-2.2-0.9
		c-0.2-0.1-0.6,0-0.6,0l-0.1,1.1c0,0.1-0.5,0.1-0.6,0c-0.1-0.1-0.5-0.1-0.6,0l-1.3,0.7c-0.1,0-0.5-0.9-0.7-0.9l-2-0.5
		c-0.2-0.1-0.6,0-0.6,0l0.4,1.1l-0.1,0L331.4,223.9z"/>
	<path d="M331.4,179.4c-0.2,0-0.5,0-0.5,0.1v0.7l0,0l-0.8-0.4c-0.1-0.1-0.4-1.3-0.5-1.2l-2.2,1.1l-0.2,0l-1.5-1
		c-0.1-0.1-0.4-0.1-0.6,0l-0.6,0.2c-0.1,0-0.4,0-0.6,0l-1.5,0.2l2.1,11.9l0.6-0.2c0.2,0,0.5,0,0.6,0l1.3,0.8c0.1,0.1,0.5,0.1,0.6,0
		l1.9-1c0.1-0.1,0.5-0.1,0.6,0l0.3,0.1c0.2,0.1,0.6,0,0.6,0v-0.4c0-0.1,0.3-0.1,0.5-0.1l1.1,0.2l0.4,0.1l0.3-0.1
		c0-0.1,0.4-0.1,0.6,0l2,0.5c0.2,0,0.5,0,0.6,0l1.3-0.7c0.1-0.1,0.5-0.1,0.6,0c0.1,0.1,0.6,0,0.6,0l0.1,0c0-0.1,0.5-0.1,0.6,0
		l1.7,0.7c0.2,0.1,0.6,0,0.6,0l0.2-0.5c0,0,0.1,0,0.2-0.1c-0.7-4-1.5-7.9-2.2-11.8l-0.5-0.2c-0.2-0.1-0.6,0-0.6,0l-0.1,1.1
		c0,0.1-0.5,0.1-0.6,0c-0.1-0.1-0.5-0.1-0.6,0l-1.3,0.7c-0.1,0-0.5-0.9-0.7-0.9l-2-0.5c-0.2-0.1-0.6,0-0.6,0l0.4,1.1l-0.1,0
		L331.4,179.4z"/>
	<path d="M129.2,175.4c0.2-0.1,0.6,0,0.6,0l0.1,0c0,0.1,0.5,0.1,0.6,0c0.1-0.1,0.5-0.1,0.6,0l1.3,0.7c0.1,0,0.4,0.1,0.6,0l2-0.5
		c0.2-0.1,0.6,0,0.6,0l0.3,0.1l0.4-0.1l1.1-0.2c0.2,0,0.5,0,0.5,0.1v0.4c0,0.1,0.5,0.1,0.6,0l0.3-0.1c0.1-0.1,0.5-0.1,0.6,0l1.9,1
		c0.1,0.1,0.5,0.1,0.6,0l1.3-0.8c0.1-0.1,0.4-0.1,0.6,0l0.6,0.2c0.1,0,0.4,0,0.6,0l1.6-0.6l1.9-11.1c0,0-0.1,0-0.1,0l-3.4-0.4
		c-0.1,0-0.4,0-0.6,0l-0.6-0.2c-0.2,0-0.5,0-0.6,0l-1.5,1l-0.2,0l-2.2-1.1c-0.1-0.1-0.4,1.2-0.5,1.2l-0.8,0.4l0,0v-0.7
		c0-0.1-0.3-0.1-0.5-0.1l-2.2,0.2l-0.1,0l0.4-1.1c0-0.1-0.4-0.1-0.6,0l-2,0.5c-0.2,0-0.6,1-0.7,0.9l-1.3-0.7c-0.1,0-0.4-0.1-0.5,0
		c-0.7,3.6-1.4,7.3-2.2,11.1L129.2,175.4z"/>
	<path d="M119.8,228.2c0.1,0,0.3,0,0.4,0l0.1,0c0.1,0,0.4,0,0.4,0l0.5,0.1c0,0,0.2,0,0.3,0l1.2,0.2c0.1,0,0.3,0,0.3,0l0.6-0.5
		c0,0,0.2,0,0.4,0l1.1,0.2h0.1l-0.2-7.7l0,0l0,0l-1.1-0.2c-0.1,0-0.3,0-0.4,0l-0.6,0.5c0,0-0.2,0-0.3,0l-0.8-0.7c-0.1,0-0.3,0-0.3,0
		l-0.5,0.6c0,0-0.3,0.1-0.4,0l-0.1,0c0,0-0.1,0-0.1,0c-0.5,2.7-0.9,5.3-1.4,8L119.8,228.2z"/>
	<path d="M148.4,119.8l-3.4-0.4c-0.1,0-0.4,0-0.6,0l-0.6-0.2c-0.2,0-0.5,0-0.6,0l-1.5,1l-0.2,0l-1.8-0.9c-0.7,3.5-1.5,7.3-2.4,11.4
		l0.1,0c0.2,0,0.5,0,0.5,0.1v0.4c0,0.1,0.5,0.1,0.6,0l0.3-0.1c0.1-0.1,0.5-0.1,0.6,0l1.9,1c0.1,0.1,0.5,0.1,0.6,0l1.3-0.8
		c0.1-0.1,0.4-0.1,0.6,0l0.6,0.2c0.1,0,0.4,0,0.6,0l3.1-1.2c0.2-0.1,0.6,0,0.6,0v0.3c0,0.1,0.5,1.1,0.6,1l1.5-0.7
		c0.1-0.1,0.5-0.1,0.6,0l0.2,0.1c0.1,0.1,0.6,0,0.6,0l0.7,0.2c0-0.1,0.3-0.1,0.5,0l0.8,0.1l2.1-12.5c0,0,0,0-0.1,0l-0.8,0.8
		c-0.1,0-0.3,0.1-0.5,0l-1.3-1c-0.2,0-0.5,0-0.5,0l-0.7,0.9c-0.1,0.1-0.5,0.1-0.6,0l-0.2-0.1c-0.1,0-0.5,0-0.6,0l-1.5,0.7
		c-0.1,0.1-0.6,0-0.6,0v-0.3C149,119.7,148.6,119.7,148.4,119.8z"/>
	<path d="M133.1,253.4c-0.2,0-0.6,1-0.7,0.9l-1.3-0.7c-0.1-0.1-0.5-0.1-0.6,0c-0.1,0.1-0.6,0-0.6,0l-0.1-1.1c0-0.1-0.5-0.1-0.6,0
		l-2.2,0.9l-0.1,0l-0.3-0.7c0-0.1-0.3-0.1-0.5-0.1l-1.1,0.1l-0.1-2.9l0,0l0,0l-1.1-0.2c-0.1,0-0.3,0-0.4,0l-0.6,0.5c0,0-0.2,0-0.3,0
		l-0.8-0.7c-0.1,0-0.3,0-0.3,0l-0.5,0.6c0,0-0.3,0.1-0.4,0l-0.1,0c-0.1,0-0.3,0-0.4,0l-1,0.4c-0.1,0-0.4,0-0.4,0v-0.2
		c0,0-0.3-0.1-0.4,0l-2.2-0.2c-0.1,0-0.3,0-0.4,0l-0.1,0c-0.4,2.8-0.8,5.6-1.2,8.2l0.5-0.4c0.1,0,0.3,0,0.4,0l0.4,0.1
		c0.1,0,0.3,0,0.4,0l2.1-0.8c0.1,0,0.4,0,0.4,0v0.2c0,0,0.3,0.7,0.4,0.7l1-0.4c0.1,0,0.3,0,0.4,0l0.1,0c0.1,0,0.4,0,0.4,0l0.5,0.1
		c0,0,0.2,0,0.3,0l1.2,0.2c0.1,0,0.3,0,0.3,0l0.6-0.5c0,0,0.2,0,0.4,0l0.4,0.1l0,6.9l-0.6-0.1c-0.1,0-0.3,0-0.4,0l-0.6,0.5
		c0,0-0.2,0-0.3,0l-0.8-0.7c-0.1,0-0.3,0-0.3,0l-0.5,0.6c0,0-0.3,0.1-0.4,0l-0.1,0c-0.1,0-0.3,0-0.4,0l-1,0.4c-0.1,0-0.4,0-0.4,0
		V265c0,0-0.3-0.1-0.4,0l-2.2-0.2c-0.1,0-0.3,0-0.4,0l-0.4-0.1c-0.1,0-0.3,0-0.4,0l-1,0.7l-0.1,0l-0.4-0.2c-0.4,2.7-0.7,5.2-1,7.7
		l1.2,0.6c0.1,0,0.3,0,0.4,0l0.8-0.6c0.1,0,0.3,0,0.4,0l0.4,0.1c0.1,0,0.3,0,0.4,0l2.1-0.8c0.1,0,0.4,0,0.4,0v0.2
		c0,0,0.3,0.7,0.4,0.7l1-0.4c0.1,0,0.3,0,0.4,0l0.1,0c0.1,0,0.4,0,0.4,0l0.5,0.1c0,0,0.2,0,0.3,0l1.2,0.2c0.1,0,0.3,0,0.3,0l0.6-0.5
		c0,0,0.2,0,0.4,0l1.1,0.2h0.1l0-0.2h0l-0.2-7.6l1.2-0.2c0.2,0,0.5,0,0.5,0.1l0.2,0.5c0,0.1,0.5,0.1,0.6,0l1.7-0.7
		c0.2-0.1,0.6,0,0.6,0l0.1,0c0,0.1,0.5,0.1,0.6,0c0.1-0.1,0.5-0.1,0.6,0l0.2,0.1l1.9-11.2L133.1,253.4z"/>
	<path d="M125.1,198.9L125.1,198.9l0-1.1l1-0.1c0.2,0,0.5,0,0.5,0.1l0.2,0.5c0,0.1,0.5,0.1,0.6,0l1.7-0.7c0.2-0.1,0.6,0,0.6,0l0.1,0
		c0,0.1,0.5,0.1,0.6,0c0.1-0.1,0.5-0.1,0.6,0l1.3,0.7c0.1,0,0.4,0.1,0.6,0l2-0.5c0.2-0.1,0.6,0,0.6,0l0.3,0.1l0.4-0.1l1.1-0.2
		c0.2,0,0.5,0,0.5,0.1v0.4c0,0.1,0.5,0.1,0.6,0l0.3-0.1c0.1-0.1,0.5-0.1,0.6,0l1.9,1c0.1,0.1,0.5,0.1,0.6,0l0.7-0.5l2.1-12.2
		c-0.1,0-0.2,0-0.3,0l-0.6-0.2c-0.2,0-0.5,0-0.6,0l-1.5,1l-0.2,0l-2.2-1.1c-0.1-0.1-0.4,1.2-0.5,1.2l-0.8,0.4l0,0v-0.7
		c0-0.1-0.3-0.1-0.5-0.1l-2.2,0.2l-0.1,0l0.4-1.1c0-0.1-0.4-0.1-0.6,0l-2,0.5c-0.2,0-0.6,1-0.7,0.9l-1.3-0.7c-0.1-0.1-0.5-0.1-0.6,0
		c-0.1,0.1-0.6,0-0.6,0l-0.1-1.1c0-0.1-0.5-0.1-0.6,0l-2.2,0.9l-0.1,0l-0.3-0.7c0,0,0,0-0.1,0c-0.8,4.3-1.6,8.6-2.4,12.9
		L125.1,198.9z"/>
	<path d="M121.5,213.7l1.2,0.2c0.1,0,0.3,0,0.3,0l0.6-0.5c0,0,0.2,0,0.4,0l0.4,0.1l0,6.7h0.1l1.7-0.2c0.2,0,0.5,0,0.5,0.1l0.2,0.5
		c0,0.1,0.5,0.1,0.6,0l1.7-0.7c0.2-0.1,0.6,0,0.6,0l0.1,0c0,0.1,0.5,0.1,0.6,0c0.1-0.1,0.5-0.1,0.6,0l1.3,0.7c0.1,0,0.4,0.1,0.6,0
		l2-0.5c0.2-0.1,0.6,0,0.6,0l0.3,0.1l0.4-0.1l1.1-0.2c0.2,0,0.5,0,0.5,0.1v0.4c0,0.1,0.5,0.1,0.6,0l0.3-0.1c0,0,0,0,0.1,0l1.9-11.3
		l-1.4-0.7c-0.1-0.1-0.4,1.2-0.5,1.2l-0.8,0.4l0,0v-0.7c0-0.1-0.3-0.1-0.5-0.1l-2.2,0.2l-0.1,0l0.4-1.1c0-0.1-0.4-0.1-0.6,0l-2,0.5
		c-0.2,0-0.6,1-0.7,0.9l-1.3-0.7c-0.1-0.1-0.5-0.1-0.6,0c-0.1,0.1-0.6,0-0.6,0l-0.1-1.1c0-0.1-0.5-0.1-0.6,0l-2.2,0.9l-0.1,0
		l-0.3-0.7c0-0.1-0.3-0.1-0.5-0.1l-1.1,0.1l-0.1-2.4l0,0l0,0l-1.1-0.2c-0.1,0-0.3,0-0.4,0l-0.6,0.5c0,0,0,0-0.1,0
		C122.3,208.7,121.9,211.2,121.5,213.7C121.4,213.7,121.5,213.7,121.5,213.7z"/>
	<path d="M129.2,274.7l-2.2,0.9l-0.1,0l-0.3-0.7c0-0.1-0.3-0.1-0.5-0.1l-1.7,0.2l0,0l-0.1,0l0,4.2l-0.6-0.1c-0.1,0-0.3,0-0.4,0
		l-0.6,0.5c0,0-0.2,0-0.3,0l-0.8-0.7c-0.1,0-0.3,0-0.3,0l-0.5,0.6c0,0-0.3,0.1-0.4,0l-0.1,0c-0.1,0-0.3,0-0.4,0l-1,0.4
		c-0.1,0-0.4,0-0.4,0v-0.2c0,0-0.3-0.1-0.4,0l-2.2-0.2c-0.1,0-0.3,0-0.4,0l-0.4-0.1c-0.1,0-0.3,0-0.4,0l-1,0.7l-0.1,0l-1.4-0.7
		c-0.1,0-0.3,0.8-0.3,0.8l-0.4,0.2c-0.2,2.4-0.4,4.6-0.6,6.7l0,0c0.1,0,0.3,0,0.3,0v0.3c0,0,0.3,0.1,0.4,0l0.2-0.1
		c0.1,0,0.3,0,0.4,0l1.3,0.6c0.1,0,0.3,0,0.4,0l0.8-0.6c0.1,0,0.3,0,0.4,0l0.4,0.1c0.1,0,0.3,0,0.4,0l2.1-0.8c0.1,0,0.4,0,0.4,0v0.2
		c0,0,0.3,0.7,0.4,0.7l1-0.4c0.1,0,0.3,0,0.4,0l0.1,0c0.1,0,0.4,0,0.4,0l0.5,0.1c0,0,0.2,0,0.3,0l1.2,0.2c0.1,0,0.3,0,0.3,0l0.6-0.5
		c0,0,0.2,0,0.4,0l1.1,0.2h0.1l0-0.3l1-0.1c0.2,0,0.5,0,0.5,0.1l0.2,0.5c0,0.1,0.3,0.1,0.5,0l2.2-12.6
		C129.4,274.6,129.3,274.7,129.2,274.7z"/>
	<path d="M135.1,230.6l-2,0.5c-0.2,0-0.6,1-0.7,0.9l-1.3-0.7c-0.1-0.1-0.5-0.1-0.6,0c-0.1,0.1-0.6,0-0.6,0l-0.1-1.1
		c0-0.1-0.5-0.1-0.6,0L127,231l-0.1,0l-0.3-0.7c0-0.1-0.3-0.1-0.5-0.1l-1.7,0.2l0,0l-0.1,0l0,4.5l-0.6-0.1c-0.1,0-0.3,0-0.4,0
		l-0.6,0.5c0,0-0.2,0-0.3,0l-0.8-0.7c-0.1,0-0.3,0-0.3,0l-0.5,0.6c0,0-0.3,0.1-0.4,0l-0.1,0c-0.1,0-0.3,0-0.4,0l-1,0.4
		c-0.1,0-0.4,0-0.4,0v-0.2c0,0-0.3-0.1-0.4,0l-0.4,0c-0.4,2.5-0.8,5.1-1.2,7.5l1.5-0.6c0.1,0,0.4,0,0.4,0v0.2c0,0,0.3,0.7,0.4,0.7
		l1-0.4c0.1,0,0.3,0,0.4,0l0.1,0c0.1,0,0.4,0,0.4,0l0.5,0.1c0,0,0.2,0,0.3,0l1.2,0.2c0.1,0,0.3,0,0.3,0l0.6-0.5c0,0,0.2,0,0.4,0
		l1.1,0.2h0.1l0-0.6l1-0.1c0.2,0,0.5,0,0.5,0.1l0.2,0.5c0,0.1,0.5,0.1,0.6,0l1.7-0.7c0.2-0.1,0.6,0,0.6,0l0.1,0c0,0.1,0.5,0.1,0.6,0
		c0.1-0.1,0.5-0.1,0.6,0l1.3,0.7c0.1,0,0.4,0.1,0.6,0l2-0.5c0,0,0.1,0,0.1,0l1.9-10.8l-1.6,0.2l-0.1,0l0.4-1.1
		C135.7,230.6,135.3,230.6,135.1,230.6z"/>
	<path d="M133,153.9l2-0.5c0.2-0.1,0.6,0,0.6,0l0.3,0.1l0.4-0.1l1.1-0.2c0.2,0,0.5,0,0.5,0.1v0.1v0.3c0,0.1,0.5,0.1,0.6,0l0.3-0.1
		c0.1-0.1,0.5-0.1,0.6,0l1.9,1c0.1,0.1,0.5,0.1,0.6,0l1.3-0.8c0.1-0.1,0.4-0.1,0.6,0l0.6,0.2c0.1,0,0.4,0,0.6,0l3.1-1.2
		c0.2-0.1,0.6,0,0.6,0v0.3c0,0.1,0.5,1.1,0.6,1l1-0.4l2.1-11.9c-0.1,0-0.4,0.1-0.6,0l-0.2-0.1c-0.1,0-0.5,0-0.6,0l-1.5,0.7
		c-0.1,0.1-0.6,0-0.6,0v-0.3c0-0.1-0.5-0.1-0.6,0l-3.4-0.4c-0.1,0-0.4,0-0.6,0l-0.6-0.2c-0.2,0-0.5,0-0.6,0l-1.5,1l-0.2,0l-2.2-1.1
		c-0.1-0.1-0.4,1.2-0.5,1.2l-0.8,0.4l0,0v-0.4v-0.3c0-0.1-0.3-0.1-0.5-0.1l-2.2,0.2l0,0l0.3-0.7c0,0,0,0-0.1-0.1l0.1-0.3
		c0-0.1-0.2-0.1-0.4-0.1c-0.8,4.1-1.7,8.3-2.6,12.7C132.8,154,132.9,154,133,153.9z"/>
	<path d="M615.1,246.2c-0.1,0-0.2,0-0.3,0l1.9,11.1l0.3-0.1c0-0.1,0.4-0.1,0.6,0l2,0.5c0.2,0,0.5,0,0.6,0l1.3-0.7
		c0.1-0.1,0.5-0.1,0.6,0c0.1,0.1,0.6,0,0.6,0l0.1,0c0-0.1,0.5-0.1,0.6,0l1.7,0.7c0.2,0.1,0.6,0,0.6,0l0.2-0.5c0-0.1,0.3-0.1,0.5-0.1
		l1,0.1l0,0.6h0.1l1.1-0.2c0.1,0,0.3,0,0.4,0l0.6,0.5c0,0,0.2,0,0.3,0l1.2-0.2c0.1,0,0.3,0,0.3,0l0.5-0.1c0,0,0.3,0.1,0.4,0l0.1,0
		c0.1,0,0.3,0,0.4,0l0.8,0.3c-0.4-2.6-0.8-5.2-1.2-7.9c-0.1,0-0.1,0-0.1,0l-0.1,0c-0.1,0-0.4,0-0.4,0l-0.5-0.6c0,0-0.2,0-0.3,0
		l-0.8,0.7c-0.1,0-0.3,0-0.3,0l-0.6-0.5c0,0-0.2,0-0.4,0l-0.6,0.1l0-4.5l-0.1,0l0,0l-1.7-0.2c-0.2,0-0.5,0-0.5,0.1l-0.3,0.7l-0.1,0
		l-2.2-0.9c-0.2-0.1-0.6,0-0.6,0l-0.1,1.1c0,0.1-0.5,0.1-0.6,0c-0.1-0.1-0.5-0.1-0.6,0l-1.3,0.7c-0.1,0-0.5-0.9-0.7-0.9l-2-0.5
		c-0.2-0.1-0.6,0-0.6,0l0.4,1.1l-0.1,0L615.1,246.2z"/>
	<path d="M615.1,179.4c-0.2,0-0.5,0-0.5,0.1v0.7l0,0l-0.8-0.4c-0.1-0.1-0.4-1.3-0.5-1.2l-2.2,1.1l-0.2,0l-1.5-1
		c-0.1-0.1-0.4-0.1-0.6,0l-0.6,0.2c-0.1,0-0.4,0-0.6,0l-3.4,0.4c-0.2-0.1-0.6,0-0.6,0v0.3c0,0.1-0.3,0.1-0.5,0.1l1.8,10.3l2.7,1.1
		c0.1,0,0.4,0,0.6,0l0.6-0.2c0.2,0,0.5,0,0.6,0l1.3,0.8c0.1,0.1,0.5,0.1,0.6,0l1.9-1c0.1-0.1,0.5-0.1,0.6,0l0.3,0.1
		c0.2,0.1,0.6,0,0.6,0v-0.4c0-0.1,0.3-0.1,0.5-0.1l1.1,0.2l0.4,0.1l0.3-0.1c0-0.1,0.4-0.1,0.6,0l2,0.5c0.2,0,0.5,0,0.6,0l1.3-0.7
		c0.1-0.1,0.5-0.1,0.6,0c-0.6-3.4-1.3-6.8-1.9-10.2c-0.1-0.2-0.4-0.9-0.6-0.9l-2-0.5c-0.2-0.1-0.6,0-0.6,0l0.4,1.1l-0.1,0
		L615.1,179.4z"/>
	<path d="M627.7,235.1L627.7,235.1l-0.2,7.7h0.1l1.1-0.2c0.1,0,0.3,0,0.4,0l0.6,0.5c0,0,0.2,0,0.3,0l1.2-0.2c0.1,0,0.1,0,0.2,0
		c-0.4-2.5-0.8-5-1.2-7.6c-0.1,0-0.3,0-0.3,0l-0.6-0.5c0,0-0.2,0-0.4,0L627.7,235.1L627.7,235.1z"/>
	<path d="M615.1,201.7c-0.2,0-0.5,0-0.5,0.1v0.7l0,0l-0.8-0.4c-0.1-0.1-0.4-1.3-0.5-1.2L611,202l-0.2,0l-1.5-1
		c-0.1-0.1-0.4-0.1-0.6,0l-0.6,0.2c-0.1,0-0.4,0-0.6,0l-0.7,0.1l2.1,11.8c0.2,0,0.4,0,0.4,0l1.3,0.8c0.1,0.1,0.5,0.1,0.6,0l1.9-1
		c0.1-0.1,0.5-0.1,0.6,0l0.3,0.1c0.2,0.1,0.6,0,0.6,0v-0.4c0-0.1,0.3-0.1,0.5-0.1l1.1,0.2l0.4,0.1l0.3-0.1c0-0.1,0.4-0.1,0.6,0
		l2,0.5c0.2,0,0.5,0,0.6,0l1.3-0.7c0.1-0.1,0.5-0.1,0.6,0c0.1,0.1,0.6,0,0.6,0l0.1,0c0-0.1,0.5-0.1,0.6,0l1.7,0.7
		c0.2,0.1,0.6,0,0.6,0l0.2-0.5c0,0,0.1,0,0.2-0.1c-0.7-3.9-1.4-7.8-2.1-11.8l-0.6-0.2c-0.2-0.1-0.6,0-0.6,0l-0.1,1.1
		c0,0.1-0.5,0.1-0.6,0c-0.1-0.1-0.5-0.1-0.6,0l-1.3,0.7c-0.1,0-0.5-0.9-0.7-0.9l-2-0.5c-0.2-0.1-0.6,0-0.6,0l0.4,1.1l-0.1,0
		L615.1,201.7z"/>
	<path d="M615.1,223.9c-0.2,0-0.5,0-0.5,0.1v0.7l0,0l-0.8-0.4c-0.1-0.1-0.4-1.3-0.5-1.2l-2.2,1.1l-0.1,0l2,11.1l0.3-0.2
		c0.1-0.1,0.5-0.1,0.6,0l0.3,0.1c0.2,0.1,0.6,0,0.6,0v-0.4c0-0.1,0.3-0.1,0.5-0.1l1.1,0.2l0.4,0.1l0.3-0.1c0-0.1,0.4-0.1,0.6,0
		l2,0.5c0.2,0,0.5,0,0.6,0l1.3-0.7c0.1-0.1,0.5-0.1,0.6,0c0.1,0.1,0.6,0,0.6,0l0.1,0c0-0.1,0.5-0.1,0.6,0l1.7,0.7
		c0.2,0.1,0.6,0,0.6,0l0.2-0.5c0-0.1,0.3-0.1,0.5-0.1l1.7,0.2h0.1l0-6.7l0.4-0.1c0.1,0,0.1,0,0.2,0c-0.4-2.3-0.8-4.7-1.2-7l0,1.9
		l-1.1-0.1c-0.2,0-0.5,0-0.5,0.1l-0.3,0.7l-0.1,0l-2.2-0.9c-0.2-0.1-0.6,0-0.6,0l-0.1,1.1c0,0.1-0.5,0.1-0.6,0
		c-0.1-0.1-0.5-0.1-0.6,0l-1.3,0.7c-0.1,0-0.5-0.9-0.7-0.9l-2-0.5c-0.2-0.1-0.6,0-0.6,0l0.4,1.1l-0.1,0L615.1,223.9z"/>
	<path d="M632.3,264.7l-0.1,0c-0.1,0-0.4,0-0.4,0l-0.5-0.6c0,0-0.2,0-0.3,0l-0.8,0.7c-0.1,0-0.3,0-0.3,0l-0.6-0.5c0,0-0.2,0-0.4,0
		l-1.1,0.2l0,0l0,0l-0.1,2.9l-1.1-0.1c-0.2,0-0.5,0-0.5,0.1l-0.3,0.7l-0.1,0l-2.2-0.9c-0.2-0.1-0.6,0-0.6,0l-0.1,1.1
		c0,0.1-0.5,0.1-0.6,0c-0.1-0.1-0.5-0.1-0.6,0l-1.3,0.7c-0.1,0-0.5-0.9-0.7-0.9l-1-0.2l2.1,11.8l0.8-0.5c0.1-0.1,0.5-0.1,0.6,0
		c0.1,0.1,0.6,0,0.6,0l0.1,0c0-0.1,0.5-0.1,0.6,0l1.7,0.7c0.2,0.1,0.6,0,0.6,0l0.2-0.5c0-0.1,0.3-0.1,0.5-0.1l1.2,0.2l-0.2,7.6h0
		l0,0.2h0.1l1.1-0.2c0.1,0,0.3,0,0.4,0l0.6,0.5c0,0,0.2,0,0.3,0l1.2-0.2c0.1,0,0.3,0,0.3,0l0.5-0.1c0,0,0.3,0.1,0.4,0l0.1,0
		c0.1,0,0.3,0,0.4,0l1,0.4c0.1,0,0.4-0.6,0.4-0.7v-0.2c0,0,0.3-0.1,0.4,0l2.1,0.8c0.1,0,0.2,0,0.3,0c-0.2-2.5-0.4-5.2-0.7-8.1
		l-1.8,0.2c-0.1,0-0.4,0-0.4,0v0.2c0,0-0.3,0.1-0.4,0l-1-0.4c-0.1,0-0.3,0-0.4,0l-0.1,0c-0.1,0-0.4,0-0.4,0l-0.5-0.6
		c0,0-0.2,0-0.3,0l-0.8,0.7c-0.1,0-0.3,0-0.3,0l-0.6-0.5c0,0-0.2,0-0.4,0l-0.6,0.1l0-6.9l0.4-0.1c0.1,0,0.3,0,0.4,0l0.6,0.5
		c0,0,0.2,0,0.3,0l1.2-0.2c0.1,0,0.3,0,0.3,0l0.5-0.1c0,0,0.3,0.1,0.4,0l0.1,0c0.1,0,0.3,0,0.4,0l1,0.4c0.1,0,0.4-0.6,0.4-0.7v-0.2
		c0,0,0.3-0.1,0.4,0l0.8,0.3c-0.3-2.3-0.6-4.7-0.9-7.2l-0.1,0c-0.1,0-0.4,0-0.4,0v0.2c0,0-0.3,0.1-0.4,0l-1-0.4
		C632.6,264.6,632.4,264.6,632.3,264.7z"/>
	<path d="M613.2,156l-2.2,1.1l-0.2,0l-1.5-1c-0.1-0.1-0.4-0.1-0.6,0l-0.6,0.2c-0.1,0-0.4,0-0.6,0l-3.4,0.4c-0.2-0.1-0.6,0-0.6,0v0.3
		c0,0.1-0.5,0.1-0.6,0l-1.5-0.7c-0.1-0.1-0.5-0.1-0.6,0l-0.2,0.1c-0.1,0.1-0.6,0-0.6,0l-0.7-0.9c0-0.1-0.3-0.1-0.5,0l0,0l2.2,12.6
		l0.1,0c0.1,0,0.5,0,0.6,0l1.5,0.7c0.1,0.1,0.6-0.9,0.6-1v-0.3c0-0.1,0.5-0.1,0.6,0l3.1,1.2c0.1,0,0.4,0,0.6,0l0.6-0.2
		c0.2,0,0.5,0,0.6,0l1.3,0.8c0.1,0.1,0.5,0.1,0.6,0l1.9-1c0.1-0.1,0.5-0.1,0.6,0l0.3,0.1c0.2,0.1,0.6,0,0.6,0v-0.3v-0.1
		c0-0.1,0.3-0.1,0.5-0.1l1.1,0.2l0.4,0.1l0.3-0.1c0-0.1,0.4-0.1,0.6,0l0.3,0.1c-0.7-3.8-1.5-7.6-2.2-11.3l-0.6-0.1
		c-0.2,0-0.5,0-0.5,0.1v0.3v0.4l0,0l-0.8-0.4C613.6,157.2,613.3,156,613.2,156z"/>
	<path d="M628.2,289.6l-1.7-0.2c-0.2,0-0.5,0-0.5,0.1l-0.3,0.7l-0.1,0l-2.2-0.9c-0.2-0.1-0.6,0-0.6,0l-0.1,1.1c0,0-0.1,0-0.1,0.1
		l0,0.1c1.9-0.2,3.8-0.5,5.7-0.8l0-0.2L628.2,289.6L628.2,289.6z"/>
	<path d="M608.2,134.1c-0.1,0-0.4,0-0.6,0l-3.4,0.4c-0.2-0.1-0.6,0-0.6,0v0.3c0,0.1-0.5,0.1-0.6,0l-1.5-0.7c-0.1-0.1-0.5-0.1-0.6,0
		l-0.2,0.1c-0.1,0.1-0.6,0-0.6,0l-0.7-0.9c0-0.1-0.3-0.1-0.5,0l-1.3,1c-0.2,0-0.5,0-0.5,0l-0.8-0.8c-0.1-0.1-0.3-0.1-0.5,0l-0.7,0.1
		l2.2,12.5c0,0,0.1,0,0.1,0l1.8-0.3c0.2,0,0.5,0,0.5,0l0.7-0.2c0.1,0.1,0.5,0.1,0.6,0l0.2-0.1c0.1,0,0.5,0,0.6,0l1.5,0.7
		c0.1,0.1,0.6-0.9,0.6-1v-0.3c0-0.1,0.5-0.1,0.6,0l3.1,1.2c0.1,0,0.4,0,0.6,0l0.6-0.2c0.2,0,0.5,0,0.6,0l1.3,0.8
		c0.1,0.1,0.5,0.1,0.6,0l1.9-1c0,0,0.1,0,0.2,0c-0.8-3.8-1.5-7.5-2.2-11l-0.2,0.1l-0.2,0l-1.5-1c-0.1-0.1-0.4-0.1-0.6,0L608.2,134.1
		z"/>
	<path d="M593.6,122.9l-0.5-0.1l1.8,10.2l0-10l-0.1,0l0,0l-0.3,0l0.9-0.2c0.2,0,0.5,0,0.5,0l0.8,0.8c0.1,0,0.3,0.1,0.5,0l1.8-0.3
		c0.2,0,0.5,0,0.5,0l0.7-0.2c0.1,0.1,0.5,0.1,0.6,0l0.2-0.1c0.1,0,0.5,0,0.6,0l1.5,0.7c0.1,0.1,0.6-0.9,0.6-1v-0.3
		c0-0.1,0.5-0.1,0.6,0l3.1,1.2c0.1,0,0.4,0,0.6,0l0.6-0.2c0,0,0,0,0.1,0c-0.9-4.4-1.8-8.3-2.5-11.7l-2.2,0.2c-0.2-0.1-0.6,0-0.6,0
		v0.3c0,0.1-0.5,0.1-0.6,0l-1.4-0.6c-2.1,0.3-4.6,0.7-7.7,1.1L593.6,122.9z"/>
	<path d="M418.8,186.1l-2,0.5c-0.2,0-0.6,1-0.7,0.9l-1.3-0.7c-0.1-0.1-0.5-0.1-0.6,0c-0.1,0.1-0.6,0-0.6,0l-0.1-1.1
		c0-0.1-0.5-0.1-0.6,0l-2.2,0.9l-0.1,0l-0.3-0.7c0,0-0.3-0.1-0.5-0.1l-1.7,0.2l0,0l-0.1,0l0,5l-0.6-0.1c-0.1,0-0.3,0-0.4,0l-0.6,0.5
		c0,0-0.2,0-0.3,0l-0.8-0.7c-0.1,0-0.2,0-0.2,0c-0.5,2.7-1,5.4-1.5,8.1c0.1,0,0.2,0,0.3,0l0.1,0c0.1,0,0.4,0,0.4,0l0.5,0.1
		c0,0,0.2,0,0.3,0l1.2,0.2c0.1,0,0.3,0,0.3,0l0.6-0.5c0,0,0.2,0,0.4,0l1.1,0.2h0.1l0-1.1l1-0.1c0.2,0,0.5,0,0.5,0.1l0.2,0.5
		c0,0.1,0.5,0.1,0.6,0l1.7-0.7c0.2-0.1,0.6,0,0.6,0l0.1,0c0,0.1,0.5,0.1,0.6,0c0.1-0.1,0.5-0.1,0.6,0l1.3,0.7c0.1,0,0.4,0.1,0.6,0
		l2-0.5c0.2-0.1,0.6,0,0.6,0l0.3,0.1l0.4-0.1l0.2,0l1.8-10.3l-0.2,0.1l0,0v-0.7c0-0.1-0.3-0.1-0.5-0.1l-2.2,0.2l-0.1,0l0.4-1.1
		C419.4,186.1,419,186.1,418.8,186.1z"/>
	<path d="M405,279l-0.5,0.6c0,0-0.3,0.1-0.4,0l-0.1,0c-0.1,0-0.3,0-0.4,0l-1,0.4c-0.1,0-0.4,0-0.4,0v-0.2c0,0-0.3-0.1-0.4,0
		l-2.2-0.2c-0.1,0-0.3,0-0.4,0l-0.4-0.1c-0.1,0-0.3,0-0.4,0l-1,0.7l-0.1,0l-1.4-0.7c-0.1,0-0.3,0.8-0.3,0.8l-0.6,0.2l0,0V280
		c0,0-0.2-0.1-0.3,0l-1.4,0.2l-0.1,0l0.3-0.7c0,0-0.2-0.1-0.4,0l-1.3,0.3c-0.1,0-0.4,0.7-0.4,0.6l-0.3-0.2c-0.2,2.4-0.4,4.7-0.6,6.8
		c0,0,0,0,0,0l0.8,0.5c0.1,0,0.3,0,0.4,0l1.3-0.3c0.1,0,0.4,0,0.4,0l0.2,0.1l0.3-0.1l0.7-0.1c0.1,0,0.3,0,0.3,0v0.3
		c0,0,0.3,0.1,0.4,0l0.2-0.1c0.1,0,0.3,0,0.4,0l1.3,0.6c0.1,0,0.3,0,0.4,0l0.8-0.6c0.1,0,0.3,0,0.4,0l0.4,0.1c0.1,0,0.3,0,0.4,0
		l2.1-0.8c0.1,0,0.4,0,0.4,0v0.2c0,0,0.3,0.7,0.4,0.7l1-0.4c0.1,0,0.3,0,0.4,0l0.1,0c0.1,0,0.4,0,0.4,0l0.5,0.1c0,0,0,0,0,0l1.3-7.6
		l-0.8-0.7C405.2,279,405,279,405,279z"/>
	<path d="M408,175.6h0.1l1.7-0.2c0.2,0,0.5,0,0.5,0.1l0.2,0.5c0,0.1,0.5,0.1,0.6,0l1.7-0.7c0.2-0.1,0.6,0,0.6,0l0.1,0
		c0,0.1,0.5,0.1,0.6,0c0.1-0.1,0.5-0.1,0.6,0l1.3,0.7c0.1,0,0.4,0.1,0.6,0l2-0.5c0.2-0.1,0.6,0,0.6,0l0.3,0.1l0.4-0.1l1.1-0.2
		c0.2,0,0.5,0,0.5,0.1v0.4c0,0.1,0.5,0.1,0.6,0l0.3-0.1c0.1-0.1,0.5-0.1,0.6,0l0.8,0.4l2-11.7l-0.5,0.3l-0.2,0l-2.2-1.1
		c-0.1-0.1-0.4,1.2-0.5,1.2l-0.8,0.4l0,0v-0.7c0-0.1-0.3-0.1-0.5-0.1l-2.2,0.2l-0.1,0l0.4-1.1c0-0.1-0.4-0.1-0.6,0l-2,0.5
		c-0.2,0-0.6,1-0.7,0.9l-1.3-0.7c-0.1-0.1-0.5-0.1-0.6,0c-0.1,0.1-0.6,0-0.6,0l-0.1-1.1c0-0.1-0.5-0.1-0.6,0l-2.2,0.9l-0.1,0
		l-0.3-0.7c0,0,0,0,0,0c-0.8,3.9-1.5,7.9-2.3,11.9L408,175.6z"/>
	<path d="M401,213.4l0.7-0.3c0.1,0,0.4,0,0.4,0v0.2c0,0,0.3,0.7,0.4,0.7l1-0.4c0.1,0,0.3,0,0.4,0l0.1,0c0.1,0,0.4,0,0.4,0l0.5,0.1
		c0,0,0.2,0,0.3,0l1.2,0.2c0.1,0,0.3,0,0.3,0l0.6-0.5c0,0,0.2,0,0.4,0l0.4,0.1l0,6.7h0.1l1.7-0.2c0.2,0,0.5,0,0.5,0.1l0.2,0.5
		c0,0.1,0.5,0.1,0.6,0l1.7-0.7c0.2-0.1,0.6,0,0.6,0l0.1,0c0,0.1,0.5,0.1,0.6,0c0.1-0.1,0.5-0.1,0.6,0l1.3,0.7c0,0,0.1,0,0.2,0
		l2.1-12.3l-1.7,0.4c-0.2,0-0.6,1-0.7,0.9l-1.3-0.7c-0.1-0.1-0.5-0.1-0.6,0c-0.1,0.1-0.6,0-0.6,0l-0.1-1.1c0-0.1-0.5-0.1-0.6,0
		l-2.2,0.9l-0.1,0l-0.3-0.7c0-0.1-0.3-0.1-0.5-0.1l-1.1,0.1l-0.1-2.4l0,0l0,0l-1.1-0.2c-0.1,0-0.3,0-0.4,0l-0.6,0.5c0,0-0.2,0-0.3,0
		l-0.8-0.7c-0.1,0-0.3,0-0.3,0l-0.5,0.6c0,0-0.3,0.1-0.4,0l-0.1,0c-0.1,0-0.3,0-0.4,0l-1,0.4c-0.1,0-0.4,0-0.4,0v0
		C401.8,208.8,401.4,211.1,401,213.4z"/>
	<path d="M410.7,253.3L410.7,253.3l-0.4-0.7c0-0.1-0.3-0.1-0.5-0.1l-1.1,0.1l-0.1-2.9l0,0l0,0l-1.1-0.2c-0.1,0-0.3,0-0.4,0l-0.6,0.5
		c0,0-0.2,0-0.3,0l-0.8-0.7c-0.1,0-0.3,0-0.3,0l-0.5,0.6c0,0-0.3,0.1-0.4,0l-0.1,0c-0.1,0-0.3,0-0.4,0l-1,0.4c-0.1,0-0.4,0-0.4,0
		v-0.2c0,0-0.3-0.1-0.4,0l-2.2-0.2c-0.1,0-0.3,0-0.4,0l-0.4-0.1c-0.1,0-0.3,0-0.4,0l-1,0.7l-0.1,0l-1.4-0.7c-0.1,0-0.3,0.8-0.3,0.8
		l-0.6,0.2l0,0v-0.5c0,0-0.1,0-0.1,0c-0.4,2.5-0.7,4.9-1.1,7.3l0.1,0l0.7-0.1c0.1,0,0.3,0,0.3,0v0.3c0,0,0.3,0.1,0.4,0l0.2-0.1
		c0.1,0,0.3,0,0.4,0l1.3,0.6c0.1,0,0.3,0,0.4,0l0.8-0.6c0.1,0,0.3,0,0.4,0l0.4,0.1c0.1,0,0.3,0,0.4,0l2.1-0.8c0.1,0,0.4,0,0.4,0v0.2
		c0,0,0.3,0.7,0.4,0.7l1-0.4c0.1,0,0.3,0,0.4,0l0.1,0c0.1,0,0.4,0,0.4,0l0.5,0.1c0,0,0.2,0,0.3,0l1.2,0.2c0.1,0,0.3,0,0.3,0l0.6-0.5
		c0,0,0.2,0,0.4,0l0.4,0.1l0,6.9l-0.6-0.1c-0.1,0-0.3,0-0.4,0l-0.6,0.5c0,0-0.2,0-0.3,0l-0.8-0.7c-0.1,0-0.3,0-0.3,0l-0.5,0.6
		c0,0-0.3,0.1-0.4,0l-0.1,0c-0.1,0-0.3,0-0.4,0l-1,0.4c-0.1,0-0.4,0-0.4,0V265c0,0-0.3-0.1-0.4,0l-2.2-0.2c-0.1,0-0.3,0-0.4,0
		l-0.4-0.1c-0.1,0-0.3,0-0.4,0l-1,0.7l-0.1,0l-1.4-0.7c-0.1,0-0.3,0.8-0.3,0.8l-0.6,0.2l0,0v-0.2v-0.2c0,0-0.2-0.1-0.3,0l-1.4,0.2
		l0,0l0.2-0.5c0,0,0,0-0.1,0l0.1-0.2c0,0-0.2-0.1-0.4,0l-0.2,0.1c-0.4,2.9-0.7,5.6-1,8.3l1.2-0.3c0.1,0,0.4,0,0.4,0l0.2,0.1l0.3-0.1
		l0.7-0.1c0.1,0,0.3,0,0.3,0v0.1v0.2c0,0,0.3,0.1,0.4,0l0.2-0.1c0.1,0,0.3,0,0.4,0l1.3,0.6c0.1,0,0.3,0,0.4,0l0.8-0.6
		c0.1,0,0.3,0,0.4,0l0.4,0.1c0.1,0,0.3,0,0.4,0l2.1-0.8c0.1,0,0.4,0,0.4,0v0.2c0,0,0.3,0.7,0.4,0.7l1-0.4c0.1,0,0.3,0,0.4,0l0.1,0
		c0.1,0,0.4,0,0.4,0l0.5,0.1c0,0,0.2,0,0.3,0l1.2,0.2c0.1,0,0.3,0,0.3,0l0.6-0.5c0,0,0.1,0,0.2,0l1.2-6.9l0-0.7l0.1,0L410.7,253.3z"
		/>
	<path d="M414.2,231.3c-0.1,0.1-0.6,0-0.6,0l-0.1-1.1c0-0.1-0.5-0.1-0.6,0l-2.2,0.9l-0.1,0l-0.3-0.7c0-0.1-0.3-0.1-0.5-0.1l-1.7,0.2
		l0,0l-0.1,0l0,4.5l-0.6-0.1c-0.1,0-0.3,0-0.4,0l-0.6,0.5c0,0-0.2,0-0.3,0l-0.8-0.7c-0.1,0-0.3,0-0.3,0l-0.5,0.6c0,0-0.3,0.1-0.4,0
		l-0.1,0c-0.1,0-0.3,0-0.4,0l-1,0.4c-0.1,0-0.4,0-0.4,0v-0.2c0,0-0.3-0.1-0.4,0l-2.2-0.2c-0.1,0-0.3,0-0.4,0l-0.4-0.1
		c-0.1,0-0.3,0-0.4,0l-1,0.7l-0.1,0l-0.2-0.1c-0.4,2.5-0.8,4.9-1.2,7.3l1.2,0.6c0.1,0,0.3,0,0.4,0l0.8-0.6c0.1,0,0.3,0,0.4,0
		l0.4,0.1c0.1,0,0.3,0,0.4,0l2.1-0.8c0.1,0,0.4,0,0.4,0v0.2c0,0,0.3,0.7,0.4,0.7l1-0.4c0.1,0,0.3,0,0.4,0l0.1,0c0.1,0,0.4,0,0.4,0
		l0.5,0.1c0,0,0.2,0,0.3,0l1.2,0.2c0.1,0,0.3,0,0.3,0l0.6-0.5c0,0,0.2,0,0.4,0l1.1,0.2h0.1l0-0.6l1-0.1c0.2,0,0.5,0,0.5,0.1l0.2,0.5
		c0,0.1,0.5,0.1,0.6,0l1.4-0.6l1.9-10.9C414.4,231.3,414.3,231.3,414.2,231.3z"/>
	<path d="M401.8,220.9l-2.1-0.2c-0.5,2.6-0.9,5.3-1.3,7.9l0.1,0c0.1,0,0.3,0,0.4,0l0.4,0.1c0.1,0,0.3,0,0.4,0l2.1-0.8
		c0.1,0,0.4,0,0.4,0v0.2c0,0,0.3,0.7,0.4,0.7l1-0.4c0.1,0,0.3,0,0.4,0l0.1,0c0.1,0,0.4,0,0.4,0l0.5,0.1c0,0,0.2,0,0.3,0l1.2,0.2
		c0.1,0,0.3,0,0.3,0l0.6-0.5c0,0,0.2,0,0.4,0l1.1,0.2h0.1l-0.2-7.7l0,0l0,0l-1.1-0.2c-0.1,0-0.3,0-0.4,0l-0.6,0.5c0,0-0.2,0-0.3,0
		l-0.8-0.7c-0.1,0-0.3,0-0.3,0l-0.5,0.6c0,0-0.3,0.1-0.4,0l-0.1,0c-0.1,0-0.3,0-0.4,0l-1,0.4c-0.1,0-0.4,0-0.4,0V221
		C402.2,220.9,401.9,220.9,401.8,220.9z"/>
	<path d="M412.9,153.1c0.2-0.1,0.6,0,0.6,0l0.1,0c0,0.1,0.5,0.1,0.6,0c0.1-0.1,0.5-0.1,0.6,0l1.3,0.7c0.1,0,0.4,0.1,0.6,0l2-0.5
		c0.2-0.1,0.6,0,0.6,0l0.3,0.1l0.4-0.1l1.1-0.2c0.2,0,0.5,0,0.5,0.1v0.1v0.3c0,0.1,0.5,0.1,0.6,0l0.3-0.1c0.1-0.1,0.5-0.1,0.6,0
		l1.9,1c0.1,0.1,0.5,0.1,0.6,0l1.3-0.8c0.1-0.1,0.4-0.1,0.6,0l0.3,0.1l2.1-12.2l-1.2-0.1c-0.1,0-0.4,0-0.6,0l-0.6-0.2
		c-0.2,0-0.5,0-0.6,0l-1.5,1l-0.2,0l-2.2-1.1c-0.1-0.1-0.4,1.2-0.5,1.2l-0.8,0.4l0,0v-0.4v-0.3c0-0.1-0.3-0.1-0.5-0.1l-2.2,0.2l0,0
		l0.3-0.7c0,0,0,0-0.1-0.1l0.1-0.3c0-0.1-0.4-0.1-0.6,0l-2,0.5c-0.2,0-0.6,1-0.7,0.9l-1.3-0.7c0,0-0.1,0-0.2,0
		c-0.7,3.6-1.5,7.4-2.3,11.4L412.9,153.1z"/>
	<path d="M432.7,120.1v-0.3c0-0.1-0.5-0.1-0.6,0l-3.4-0.4c-0.1,0-0.4,0-0.6,0l-0.6-0.2c-0.2,0-0.5,0-0.6,0l-1.5,1l-0.2,0l-2.2-1.1
		c-0.1-0.1-0.4,1.2-0.5,1.2l-0.8,0.4l0,0V120c0-0.1-0.3-0.1-0.5-0.1l-2.1,0.2c-0.7,3.4-1.5,7.1-2.3,11.1l1.9-0.5
		c0.2-0.1,0.6,0,0.6,0l0.3,0.1l0.4-0.1l1.1-0.2c0.2,0,0.5,0,0.5,0.1v0.4c0,0.1,0.5,0.1,0.6,0l0.3-0.1c0.1-0.1,0.5-0.1,0.6,0l1.9,1
		c0.1,0.1,0.5,0.1,0.6,0l1.3-0.8c0.1-0.1,0.4-0.1,0.6,0l0.6,0.2c0.1,0,0.4,0,0.6,0l3.1-1.2c0,0,0,0,0.1,0l1.8-10.3l-0.3,0.1
		C433.2,120.2,432.7,120.2,432.7,120.1z"/>
	<path d="M419.4,119.1C419.4,119.1,419.4,119.1,419.4,119.1C419.4,119.1,419.4,119.1,419.4,119.1L419.4,119.1z"/>
	<path d="M408.6,176.5L408.6,176.5l-0.7-0.1c-0.5,2.7-1,5.5-1.6,8.2l0.1,0c0.1,0,0.3,0,0.3,0l0.6-0.5c0,0,0.2,0,0.4,0l1.1,0.2h0.1
		L408.6,176.5L408.6,176.5z"/>
</g>
</svg>
