<?xml version="1.0" encoding="utf-8"?>
<!-- Generator: Adobe Illustrator 25.3.0, SVG Export Plug-In . SVG Version: 6.00 Build 0)  -->
<svg version="1.1" id="Layer_1" xmlns="http://www.w3.org/2000/svg" xmlns:xlink="http://www.w3.org/1999/xlink" x="0px" y="0px"
	 viewBox="0 0 750.2 400.1" style="enable-background:new 0 0 750.2 400.1;" xml:space="preserve">
<g>
	<path d="M124.1,198.6c6-1,12.4-1.9,19-2.7l3.5-20.6c-7.5,1-13.7,2.3-18.9,3.8C126.6,185.5,125.4,192,124.1,198.6z"/>
	<path d="M335,151.7c-6.2,0.3-11.9,0.7-17.2,1.2l4.8,27.4c1.4-0.3,2.7-0.7,4-1.1c3-0.9,7.5-1.7,13.4-2.3
		C338.3,168.2,336.6,159.7,335,151.7z"/>
	<path d="M601.5,170.8c5.9-0.1,11.5-0.2,16.8-0.3c-1-5.4-2.1-10.6-3.1-15.6c-5,0.5-10.4,0.9-16.3,1.2L601.5,170.8z"/>
	<path d="M412.6,152.1c-1.3,6.7-2.7,13.8-4.1,21.1c5.2-0.1,10.6-0.3,16.1-0.4l3.5-20.1C422.9,152.5,417.7,152.3,412.6,152.1z"/>
	<path d="M416.6,132.1c4.9,0.1,9.8,0.2,14.9,0.4l2.8-16.3c-4.6-0.4-9.3-0.7-14.1-1.1C419.2,120,418,125.8,416.6,132.1z"/>
	<path d="M149.8,157.6l1.6-9.5c-6.4,0.2-12.2,0.1-17.5-0.3c-0.7,3.5-1.4,7-2.1,10.7C137.5,158.3,143.6,158,149.8,157.6z"/>
	<path d="M611.7,137.2c-1.2-5.8-2.3-11.2-3.3-16c-0.6,0.1-1.2,0.2-1.8,0.3c-4.5,0.7-8.9,1.2-13.4,1.7l2.9,16.2
		C601,138.8,606.2,138.1,611.7,137.2z"/>
	<path d="M314.7,135.2c5.4-0.5,10.9-0.9,16.7-1.3c-1.7-8.5-3.3-15.9-4.6-21.7c-4.8,0.2-9.4,0.5-13.9,0.9c-0.7,0.1-1.4,0.2-2.1,0.3
		L314.7,135.2z"/>
	<path d="M116.9,240.5c-1,6.3-1.9,12.5-2.8,18.2c0.8,0.4,1.5,0.8,2.2,1.2c1.4,0.8,6.9,1.1,15.7,1l3.2-18.4
		C128.2,241.9,122.2,241.2,116.9,240.5z"/>
	<path d="M349.6,229.7c-5.9,0.6-11.9,1.3-17.9,2l3.2,18.5c6-0.3,12-0.6,17.8-0.9C351.7,242.9,350.7,236.4,349.6,229.7z"/>
	<path d="M411.9,246.6l4-23.4c-5.5,0.4-11.1,0.9-16.9,1.4c-1.3,7.8-2.6,15.3-3.7,22.5C401,247,406.5,246.8,411.9,246.6z"/>
	<path d="M612.2,231.8l3.3,18.6c5.7,0,11.4,0,17,0c-0.9-6.2-2-12.7-3.1-19.4C624,231.1,618.3,231.4,612.2,231.8z"/>
	<path d="M421.3,192c-5.4,0.3-10.9,0.8-16.7,1.3c-1.3,6.9-2.6,13.9-3.8,20.8c5.7-0.3,11.3-0.5,16.8-0.7L421.3,192z"/>
	<path d="M628.1,223.2c-0.5-3.1-1.1-6.1-1.6-9.2c-5.3,0.2-11.1,0.2-17.4-0.1l1.6,9.2C616.5,223.2,622.3,223.2,628.1,223.2z"/>
	<path d="M347.6,218.3c-1-5.7-2-11.4-3.1-17.1c-6.1,0.9-12,1.9-17.7,2.8l2.9,16.4c2.7-0.3,5.5-0.7,8.3-1
		C341.2,219,344.4,218.6,347.6,218.3z"/>
	<path d="M139.3,218.2c-7.5-0.5-13.5-1-18.5-1.3c-0.7,4-1.4,8-2.1,12c6.4,1.2,12.5,2.2,18.2,3.1L139.3,218.2z"/>
	<path d="M147.8,169.1l1-5.7c-6.4,0.6-12.6,1.2-18.3,1.8c-0.5,2.3-0.9,4.6-1.4,7C135.2,171,141.5,170,147.8,169.1z"/>
	<path d="M150.7,138c0.8-0.1,1.6-0.2,2.5-0.3l2.3-13.2c-5.9,1.1-11.7,1.8-17.2,2.4c-0.8,3.6-1.6,7.5-2.4,11.6
		C140.3,138.6,145.3,138.5,150.7,138z"/>
	<path d="M603.6,182.6l1.3,7.3c6.2,0.4,12.2,1,17.5,1.7c-0.6-3-1.1-6-1.7-9C614.8,182.6,609.1,182.6,603.6,182.6z"/>
	<path d="M357.4,288.5c-0.3-4.4-0.7-9.5-1.4-15.3c-5.8,0.4-11.4,0.7-16.9,1.1l2.9,16.4C347.1,290.1,352.2,289.4,357.4,288.5z"/>
	<path d="M126.8,290.8l2.7-15.8c-5.9-0.1-11.8-0.2-17.5-0.3c-0.6,5.1-1,9.8-1.2,13.7C116.2,289.4,121.5,290.2,126.8,290.8z"/>
	<path d="M407.7,270.8c-5.4,0.2-10.6,0.3-15.8,0.5c-0.8,6.5-1.3,12.3-1.6,17.1c4.7,0.8,9.4,1.5,14,2L407.7,270.8z"/>
	<path d="M622.6,290.6c4.8-0.6,9.6-1.3,14.5-2.1c-0.3-4.5-0.8-9.9-1.5-15.9c-5.6,0.4-10.8,0.8-15.9,1.2L622.6,290.6z"/>
</g>
</svg>
