<?xml version="1.0" encoding="utf-8"?>
<!-- Generator: Adobe Illustrator 25.3.0, SVG Export Plug-In . SVG Version: 6.00 Build 0)  -->
<svg version="1.1" id="Layer_1" xmlns="http://www.w3.org/2000/svg" xmlns:xlink="http://www.w3.org/1999/xlink" x="0px" y="0px"
	 viewBox="0 0 750.2 400.1" style="enable-background:new 0 0 750.2 400.1;" xml:space="preserve">
<style type="text/css">
	.st0{fill:none;}
	.st1{fill:none;stroke:#000000;stroke-width:0;stroke-linecap:round;stroke-linejoin:round;}
</style>
<g>
	<path class="st0" d="M345,261.5c0.3,0.1,0.5,0.4,0.7,1.2c0,0.9-1.1,1.7-0.6,2.7h0c0.4,0.1,0.8,0.1,1.2,0.2c2.3,0,4.2-0.4,3.5-2.7h0
		c-1.4,0-2.7-0.1-4.1-0.1C345.5,261.9,345.2,261.6,345,261.5z"/>
	<path class="st0" d="M418.5,146.3c-0.1,0-0.1,0-0.2,0C418.4,146.3,418.4,146.3,418.5,146.3z"/>
	<polygon class="st0" points="151.3,130.4 151.3,130.4 151.3,130.4 	"/>
	<path class="st0" d="M122.8,261c0.1-0.1,0.3-0.1,0.4-0.2c-0.1,0-0.3-0.1-0.4-0.1C122.8,260.7,122.8,260.8,122.8,261z"/>
	<path class="st0" d="M324.1,160c-0.1,0-0.3,0.1-0.5,0.3c0.2,0.2,0.4,0.4,0.6,0.6c0.5,0.3,0.5-0.1,0.5-0.3
		C324.6,160.3,324.3,160.2,324.1,160z"/>
	<path class="st0" d="M344.8,261.5c0.1,0,0.1,0,0.2,0C344.9,261.5,344.8,261.5,344.8,261.5z"/>
	<path class="st0" d="M400.1,276.8c0.3,0,0.5,0,0.8,0c0.9,0.1,1.4-0.1,1.4-0.9c0-0.6-0.4-1.4,0.6-1.9c-0.3-1.3-1.7-1.8-2.6-1.2
		c-1.5,0.9-4.8,0.8-4.4,3.1c0.1,0.2,0.2,0.5,0.3,0.8C397.4,276.7,398.8,276.8,400.1,276.8z"/>
	<path class="st0" d="M331.2,165.8c-0.2,0-0.5-0.1-0.7-0.1c0,0.1,0.1,0.3,0.1,0.4c0.1,0.3,0.2,0.7,0.3,1c-0.8,0.1-1.8-0.2-2.4,0.8
		c1.2,0.1,2.4,1.8,3.2-0.3c1-0.6,0.6-1.4,0.4-2.1C331.8,165.6,331.5,165.7,331.2,165.8z"/>
	<path d="M120.9,271.1c-0.9,0.7-3.5-0.4-3,1.7c0.4,1.9,2.4,1.2,3.8,1.3c2.7,0,5.4-0.3,8,0.6l0.6-3.8c-0.4,0-0.9,0-1.3-0.1
		C126.2,270.4,123.6,271.7,120.9,271.1z"/>
	<path d="M131.2,265.5l1.5-8.4c-1.4,0-2.8,0-4.2-0.1c-3-0.1-3.9,0.7-3.7,2.8c1.8,0.4,3.9,0.5,4.5,2.5c-1.2,0.5-1.4-0.2-1.8-0.7
		c-0.3-0.4-0.7-0.7-1.4-0.5c-5.4,1.9-6,1.9-10.7,0.5c-0.1,0-0.2,0-0.3,0l0.1,0c0,0-0.1,0-0.1,0c0,0,0,0,0,0
		c-0.5,0.4-0.9,0.7-1.5,0.8c-0.1,1.1-0.3,2.1-0.4,3.1c1.8,0,3.5,0,5.3,0C122.7,265.5,126.9,265.4,131.2,265.5z"/>
	<path d="M341,285.1l1,5.6c5.1-0.6,10.2-1.3,15.4-2.2c-0.1-1.1-0.1-2.2-0.2-3.4c-0.4,0-0.8,0-1.2,0c-1.8-0.1-3.5-0.7-2.7-2.6
		c-2.9,0-5.8-0.1-8.6-0.1c-0.8,0-2-0.2-1.8,0.7C343.3,285,342.3,285.2,341,285.1z"/>
	<path d="M142.3,147c0.9-1.3,1.9-1.9,4-1.9c1.9,0.1,3.8,0.1,5.6,0.1l0.5-3.1c-0.1,0-0.2,0-0.2,0c-5.7-0.4-11.4,1.2-17.1-0.2
		c-0.4,2-0.8,4-1.2,6.1c0.1,0,0.2,0,0.3,0C137,147.9,139.8,148.2,142.3,147z"/>
	<path d="M331.2,145.1c0.2,0,0.5-0.7,0.8-1.1c-0.1-0.5-0.2-0.9-0.3-1.4c0.6-0.2,1.1-0.3,1.5-0.3c-0.6-2.9-1.2-5.8-1.7-8.5
		c-5.6,0-11.3,0-16.9,0.1l0.4,2.6c0.6,0,1.1,0,1.7,0c0.9,0,1.2,0.5,1.1,1.1c-0.5,2.1,1.2,2.1,3.1,2c2.5-0.1,5.1,0.2,7.6,0
		c3.4-0.3,3.9,0.9,3.1,3.1c-1.7-0.5-3.4-0.1-5.1-0.2c-0.6,0-1.5-0.1-1.5,0.4c0.2,4.1-3.7,2.2-5.9,2.3c-0.7,0.1-1.7,0.3-2.6,0.3
		l0.5,2.6c3.8,0,7.5,0,11.3,0C328.3,146.4,328.3,144.8,331.2,145.1z"/>
	<path d="M152.9,139.5l1.4-8.4c-0.9-0.2-1.9-0.3-2.8-0.3c0,0,0,0,0-0.1c0-0.1-0.1-0.3-0.1-0.4l0,0c-1.8,0.9-5.5,0.2-4.9,3.3
		c3.4-0.4,4.1,0.9,3.4,3.2c0.4,0.9,0.4,1.8,0.1,2.7C150.9,139.6,151.9,139.6,152.9,139.5z"/>
	<path d="M341.4,184.3c-6,0-12,0-18,0l1.5,8.5c6.1,0,12.1,0,18.2,0C342.4,189.9,341.9,187.1,341.4,184.3z"/>
	<path d="M347.5,218c-1.6,0.1-1.1-1.3-1.2-2.1c-0.2-1.1,0.6-2.3-0.6-3.4c-5.8,0-11.6,0-17.5,0l0.5,2.8c2.9,0,5.7,0,8.6,0
		c1.4,0,1.8,0.4,1.8,1.4c-0.1,1.1-0.6,1.4-1.9,1.3c-2.6-0.1-5.3,0-7.9,0l0.5,2.8c6.1,0,12.2,0,18.3,0
		C347.9,219.9,347.7,218.9,347.5,218z"/>
	<path d="M331.3,159.7c-0.2,0-0.3-0.4-0.4-0.6c-0.6,0.1-1.2,0.1-1.7,0.2c-0.8,0.2-1.6,0.2-2.3-0.3c-1.6-0.2-3.1,0.6-4.6,0
		c-1,0-2,0.7-3.1,0.7l0.3,1.8c1.4,0,2.8,0.1,4.2,0.4c0.4,0,0.7-0.1,1.1-0.1c1.3-0.1,2.5-0.3,3.8,0.1c0.6,0,1.2,0,1.8,0
		c0.6-0.3,1.1-0.3,1.7,0c0.7,0,1.4,0,2,0.1c1.2-1,2-1.3,3-0.9c-0.1-0.6-0.2-1.3-0.4-1.9c-1.5,0-3.1-0.1-4.6-0.1
		C331.9,159.4,331.8,159.7,331.3,159.7z M324.2,160.9c-0.2-0.1-0.4-0.4-0.6-0.6c0.2-0.1,0.5-0.3,0.5-0.3c0.2,0.1,0.5,0.3,0.6,0.5
		C324.7,160.7,324.7,161.1,324.2,160.9z"/>
	<path d="M338.6,173c-0.9,0-1.8,0-2.6,0c-1.4-1.1-0.8-2.5-0.3-3.7c0.5-1.1,0.6-1.9-1.1-2.3c-1.7-3.1-5.1-2.3-8.3-2.2
		c-2.1,0-4.2,0-6.4-0.1l0.5,2.7c1.1,0.3,1.3,1,0.8,2.3c1.5,1,3.3,0.2,5,0.4c1.2,0.1,2.2,0,2.2,1.4c0,1.3-0.8,1.5-2.1,1.4
		c-1.6,0-3.2,0-4.9,0l0.5,2.8c6,0,11.9,0,17.9,0c-0.3-1.3-0.5-2.6-0.8-4C338.8,172.2,338.7,172.6,338.6,173z M331.7,167.6
		c-0.9,2.2-2,0.4-3.2,0.3c0.7-1,1.7-0.7,2.4-0.8c-0.1-0.3-0.2-0.7-0.3-1c0-0.1-0.1-0.3-0.1-0.4c0.2,0,0.5,0.1,0.7,0.1
		c0.3-0.1,0.6-0.3,0.9-0.4C332.3,166.2,332.7,167,331.7,167.6z"/>
	<path d="M333.8,150.6c-5.4,0-10.9,0-16.3,0l0.5,2.9c1.7-0.1,3.8-0.4,3.4,2.1c-0.1,0.9,1.1,0.8,1.8,0.8c4.3,0,8.5,0,12.8,0
		c-0.4-1.9-0.8-3.8-1.1-5.7C334.4,150.6,334.1,150.6,333.8,150.6z"/>
	<path d="M349.5,229.2c-0.2-0.9-0.3-1.9-0.5-2.8c-6.1,0-12.2,0-18.3,0l0.5,2.9c5.3,0,10.6,0,15.8-0.1
		C347.9,229.2,348.7,229.2,349.5,229.2z"/>
	<path d="M126.6,226.4c-1.1-0.1-1.9,0.2-1.8,1.2c0.1,0.8,0.1,1.7,1.6,1.7c3.7,0,7.3,0,11,0l0.6-3.2
		C134.2,226.4,130.4,226.7,126.6,226.4z"/>
	<path d="M334.6,248.8c6,0,12,0,18,0c-0.3-1.8-0.6-3.6-0.9-5.5c-6,0-12.1,0-18.1,0L334.6,248.8z"/>
	<path d="M344,198.4c-0.2-1-0.4-2-0.5-3c-6.1,0-12.1,0-18.2,0l0.5,2.9c2.7,0,5.4,0,8.1,0C337.3,198.4,340.7,198.4,344,198.4z"/>
	<path d="M342,236.2c-1.9-0.3-4.3-0.7-5.4,1.4c4.8,0,9.5,0,14.3,0c-0.1-0.9-0.3-1.8-0.4-2.7c-4.2,0-8.4,0-12.6,0
		c-0.8,0-1.7-0.1-2.1,0.6c4.6,0.4,9.4-0.3,14,0.8C347.1,236.5,344.6,236.6,342,236.2z"/>
	<path d="M311,114.1c5.4,0,10.8-0.1,16.2-0.1c-0.2-1-0.4-1.9-0.6-2.8c-0.2,0-0.4,0-0.6,0c-2.4,0.4-7.6,1.3-15.1,2.2L311,114.1z"/>
	<path d="M156.7,117.2c-1,0-2,0-3-0.1c-2.6-0.3-1,1.4-1.7,2.1c-0.4-1.1-0.4-2.5-2.6-2.3c-3.3,0.3-3.3-0.9-1.9-2.6
		c-2.2,0-4.3-0.1-6.5-0.1c0,0.2-0.1,0.4-0.2,0.5c-0.5,2.5-1.1,5.2-1.7,8.1c5.6,0,11.1,0,16.7,0L156.7,117.2z"/>
	<path d="M134,206.8c1.1,0,2.2,0,3.2,0c0.6-0.2,1.1-0.3,1.6,0c0.8,0,1.6,0,2.4,0l0.5-2.9c-2.9,0-5.7,0-8.6,0c-3.4,0-6.7,0-10.1,0
		c-0.2,1-0.4,1.9-0.5,2.9C126.4,206.8,130.2,206.8,134,206.8z"/>
	<path d="M333.4,236.1c-0.1-0.4-0.2-0.7-0.4-1.1c-0.3,0-0.6-0.1-0.9-0.1l0.4,2.6c0.3,0,0.6,0,0.9,0
		C333.6,237.1,333.5,236.6,333.4,236.1z"/>
	<path d="M133.6,251.6c-1.9,0-3.7,0-5.6,0c-0.6,0.3-1.4,0-2.1,0.1c-3.6,0-7.2,0-10.8,0c-0.1,0.9-0.3,1.8-0.4,2.8
		c6.1,0,12.2,0,18.3,0L133.6,251.6z"/>
	<path d="M143.7,192.8l0.9-5.4c-0.4,0-0.9,0-1.3,0c-5.7-0.3-11.4,0-17.1,0c-0.3,1.8-0.7,3.7-1,5.5c0.5,0,0.9,0,1.4,0
		C132.3,192.9,138,192.8,143.7,192.8z"/>
	<path d="M149.5,158.9l0.5-2.7c-1.2,0-2.4,0-3.6,0c-1.2,0-2.4,0-3.5-0.1c-3.5,0.2-7,0.1-10.6,0c-0.2,1-0.4,2-0.6,3
		C137.7,158.9,143.6,158.8,149.5,158.9z"/>
	<path d="M135.7,200.5c2.1,0.7,4.3,0.8,6.5,0.7l0.5-2.9c-1.5,0-3.1,0.1-4.6,0.1C138.9,200.2,137.7,200.7,135.7,200.5z"/>
	<path d="M127.3,288c-5.5,0-11,0-16.4-0.1c0,0.2,0,0.4,0,0.6c5.2,0.9,10.3,1.6,15.3,2.2c0.2,0,0.4,0,0.7,0L127.3,288z"/>
	<path d="M125.9,251.6c0.7,0,1.5,0.2,2.1-0.1c0.3-0.2,0.6-0.5,0.6-1.2c0-1.7-1.2-1.6-2.6-1.6c-3.4,0-6.9,0-10.3,0
		c-0.1,1-0.3,1.9-0.4,2.9C118.7,251.6,122.3,251.6,125.9,251.6z"/>
	<path d="M123.9,200c-0.1,0.3-0.1,0.7-0.2,1c0.2,0,0.3,0,0.5,0C124.4,200.6,124.3,200.2,123.9,200z"/>
	<path d="M130.6,208.7c-1.9,0.1-3.1,0.5-4.1,0.7c-1.3,0.3-1.6,0.3-1.7-0.6c-0.8,0.9-1.7,1.1-2.7,1.1c-0.1,0.8-0.3,1.7-0.4,2.5
		c2.4,0,4.8-0.1,7.1-0.1C127.9,210.9,128.7,209.8,130.6,208.7z"/>
	<path d="M124.8,208.7C124.8,208.7,124.8,208.8,124.8,208.7C124.8,208.8,124.8,208.8,124.8,208.7L124.8,208.7z"/>
	<path d="M129.1,223.5c2.7,0,3.5-0.7,3.2-2.6c-4.1,0-8.1,0-12.2,0c-0.2,0.9-0.3,1.7-0.5,2.6C122.8,223.5,126,223.5,129.1,223.5z"/>
	<path d="M129,173.1c0.9,0,1.8,0,2.8,0c0.6-1.9-0.1-2.6-2.2-2.7C129.3,171.2,129.1,172.1,129,173.1z"/>
	<path d="M336.8,252.2c-0.5-0.4-1.1-0.6-1.7-0.7l0.5,2.8c0.1,0,0.2,0,0.3,0C336.4,253.7,335.4,252.7,336.8,252.2z"/>
	<path d="M339.4,261.7c0.1-0.5,0.3-1.4-0.4-1.4c-1.4,0-2-0.4-2.3-0.9c-0.1-0.2-0.2-0.3-0.2-0.5c0-0.1-0.1-0.2-0.1-0.2l0.7,3.9
		C338,262.5,339.1,262.8,339.4,261.7z"/>
	<path d="M338.7,253.6c0.1,0.8,0.9,0.7,1.5,0.7c4.4,0,8.8,0.1,13.2,0.1c-0.1-0.9-0.3-1.9-0.4-2.8c-4.1,0-8.1,0-12.2,0
		C339.5,251.8,338.6,252.4,338.7,253.6z"/>
	<path d="M148.5,164.8c-0.5-0.1-1.1-0.1-1.9-0.1c-5.4,0.1-10.7,0.1-16.1,0.1c-0.2,0.9-0.4,1.9-0.6,2.9c6,0,12,0,18,0L148.5,164.8z"
		/>
	<path d="M121.2,215.4c0,0-0.1,0-0.1,0c-0.1,0.8-0.3,1.6-0.4,2.4C121.5,217.4,121.7,216.7,121.2,215.4z"/>
	<path d="M128.6,177.1c0-0.4-0.1-0.6-0.3-0.8c-0.1,0.8-0.3,1.5-0.4,2.3C128.4,178.3,128.7,177.9,128.6,177.1z"/>
	<path d="M139.4,130.5c-2.8-0.1-0.9,1.5-0.7,2.5c0,0.2-0.4,0.4-0.6,0.6c2,0,4,0.7,5.9-0.5C144.5,130.2,141,130.6,139.4,130.5z"/>
	<path d="M119.6,260.4c0.2,0.5,0.3,1,1,1.1c0.5-0.7,1.2-0.8,2.1-0.5c0,0,0,0,0,0c1.8,0.8,0.9-0.6,1.2-1
		C122.5,260.1,121,259.8,119.6,260.4z M122.8,261c0-0.1,0-0.2,0.1-0.4c0.1,0,0.3,0.1,0.4,0.1C123.1,260.8,122.9,260.9,122.8,261z"/>
	<path d="M120.6,261.6L120.6,261.6C120.6,261.5,120.6,261.5,120.6,261.6C120.6,261.6,120.6,261.6,120.6,261.6L120.6,261.6z"/>
	<path d="M331.5,203.9c4.5-0.1,9,0,13.5,0.1c-0.2-1-0.4-2-0.5-3c-2.9,0.2-5.9,0.4-8.6-0.8c-1.7,1.3-3.9,0.5-5.8,0.7
		c-1.3,0.1-2.5,0.1-3.8,0.1l0.5,2.8C328.4,203.8,330,204,331.5,203.9z"/>
	<path d="M312.5,122.7l0.5,2.9c0.5-0.1,1.1-0.1,1.9-0.1c4.9,0.2,9.8,0.1,14.7,0c-0.2-1-0.4-2-0.6-2.9c-1.5,0-3,0-4.5,0.1
		c-3,0.2-3.6-0.8-3.2-2.7c-2.4,0.1-4.9-0.5-7.3,0C314.6,121.7,314.1,122.5,312.5,122.7z"/>
	<path d="M345.4,260.4c-2.7-0.4-2.6,0.7-3,2.2c0.5-0.1,1-0.5,1.5-0.7c0.2-0.1,0.3-0.2,0.4-0.2c0.1,0,0.1-0.1,0.2-0.1
		c0.1,0,0.1,0,0.2,0s0.1,0,0.2,0c0.3,0.1,0.5,0.4,0.7,1.2c1.4,0,2.7,0.1,4.1,0.1c1.5,0,2.9,0,4.4,0c0.2,0,0.4,0,0.5,0
		c-0.1-0.9-0.3-1.8-0.4-2.8C351.3,260,348.3,260.8,345.4,260.4z"/>
	<path d="M344.2,265.5c-0.3,0.1-0.6,0.1-0.8,0.1c-1.7-0.1-2.4,0.7-2.3,1.8c0.1,1.3,1.6,0.7,2.4,0.7c1.4,0.1,2.9,0,4.4,0
		c-1.7-0.6-1.1-1.8-1.6-2.6c-0.4-0.1-0.8-0.1-1.2-0.2C344.8,265.4,344.5,265.4,344.2,265.5z"/>
	<path d="M338.5,267.2c0.2-0.8-0.2-1.3-0.9-1.6l0.4,2.3C338.3,267.8,338.4,267.6,338.5,267.2z"/>
	<polygon points="151.4,130.3 151.3,130.4 151.3,130.4 	"/>
	<path d="M124.8,208.7C124.8,208.7,124.8,208.7,124.8,208.7c0.1,0,0.1,0,0.1-0.1C124.9,208.7,124.8,208.7,124.8,208.7z"/>
	<path d="M125.1,208.5c0,0.1-0.1,0.1-0.1,0.2c0,0,0.1,0,0.1,0C125.1,208.6,125,208.5,125.1,208.5z"/>
	<path d="M121.4,261.8c-0.3-0.1-0.5-0.1-0.8-0.2C120.8,261.9,120.9,262.2,121.4,261.8z"/>
	<path d="M120.7,261.6C120.7,261.6,120.7,261.6,120.7,261.6C120.7,261.5,120.6,261.6,120.7,261.6L120.7,261.6
		C120.6,261.6,120.7,261.6,120.7,261.6z"/>
	<path d="M114.7,261.3c0.1,0.1,0.2,0.1,0.3,0.2c0-0.1,0-0.1-0.1-0.1C114.9,261.3,114.8,261.3,114.7,261.3z"/>
	<path d="M115.1,261.5C115.1,261.5,115,261.5,115.1,261.5C115,261.5,115,261.6,115.1,261.5C115,261.6,115,261.6,115.1,261.5
		C115,261.6,115.1,261.5,115.1,261.5z"/>
	<path d="M349.5,229.2c-0.8,0-1.6,0-2.4,0c-5.3,0-10.6,0-15.8,0.1l0.5,3c6.1,0,12.2,0,18.2,0C349.8,231.2,349.6,230.2,349.5,229.2z"
		/>
	<path d="M338.7,253.6c-0.1-1.2,0.8-1.8,2.2-2.1c-1.6-0.7-2.8,0.1-4.1,0.7c-1.4,0.4-0.4,1.5-0.9,2.1c0,0.5,0,1,0,1.4l0.5,2.9
		c0,0.1,0.1,0.2,0.1,0.2c0.1,0.2,0.1,0.3,0.2,0.5c0.4,0.5,1,0.9,2.3,0.9c0.6,0,0.5,0.9,0.4,1.4c-0.3,1.1-1.4,0.8-2.3,0.9l0.5,3
		c0.7,0.3,1.1,0.7,0.9,1.6c-0.1,0.4-0.3,0.6-0.5,0.7l0.1,0.5c5.8,0.4,11.5-0.1,17.3,0c-0.1-1-0.3-2.1-0.4-3.2c-0.6,0-1.2,0-1.9,0
		c1.6-0.7,0.1-1.8,1-2.5c-1.5,0-2.9,0-4.4,0h0c0.7,2.4-1.2,2.7-3.5,2.7c0.5,0.8-0.1,2.1,1.6,2.6c-1.5,0-2.9,0.1-4.4,0
		c-0.8-0.1-2.3,0.6-2.4-0.7c-0.1-1.1,0.6-1.9,2.3-1.8c0.3,0,0.6,0,0.8-0.1c0.3-0.1,0.6-0.1,0.8-0.2h0c-0.5-1,0.6-1.8,0.6-2.7
		c-0.2-0.8-0.4-1.1-0.7-1.2c-0.1,0-0.1,0-0.2,0s-0.1,0-0.2,0c-0.1,0-0.1,0-0.2,0.1c-0.1,0.1-0.3,0.1-0.4,0.2c-0.5,0.3-1,0.6-1.5,0.7
		c0.3-1.5,0.2-2.6,3-2.2c2.9,0.5,5.9-0.4,8.9-0.4c-0.3-1.8-0.5-3.7-0.8-5.5c-4.4,0-8.8-0.1-13.2-0.1
		C339.6,254.4,338.8,254.4,338.7,253.6z"/>
	<path d="M339.6,276.8c2.9,0.1,5.8,0.3,8.6-1.1c0.3-0.2,1.1,0.1,1.6,0.4c2.4,1,4.6,0.9,6.6-0.4c-0.1-0.5-0.1-1.1-0.2-1.6
		c0,0,0,0,0,0c-1.9,0.8-2.4,0.4-2.8-1c-0.1-0.5,0.3-1.7-0.9-1.3c-0.8,0.3-2.8-0.7-2.7,1.1c0,0.7-0.8,1.1-1.7,1.1
		c-3,0-5.9,0.4-8.9,0.4L339.6,276.8z"/>
	<path d="M129.1,223.5c-3.1,0-6.3,0-9.4,0c-0.7,3.9-1.3,7.7-1.9,11.5c6.2,0,12.4,0,18.7,0l1-5.7c-3.7,0-7.3,0-11,0
		c-1.5,0-1.5-0.9-1.6-1.7c-0.1-1,0.7-1.2,1.8-1.2c3.8,0.3,7.6-0.1,11.4-0.4l0.9-5.2c-2.2,0-4.3,0-6.5,0
		C132.6,222.8,131.8,223.5,129.1,223.5z"/>
	<path d="M151.3,130.4L151.3,130.4C151.4,130.3,151.3,130.4,151.3,130.4C151.3,130.4,151.3,130.4,151.3,130.4
		c0.1,0.1,0.1,0.3,0.1,0.4c0,0,0,0.1,0,0.1c0.9,0,1.9,0.2,2.8,0.3l1-5.6c-1.9,0.1-3.9,0.4-5.8,0.1c-1.6-0.3-3-0.2-3.1,1.6
		c-0.1,1-1.1,1-2.1,1c-1.2,0-1.2-0.6-1.2-1.3c0-0.6,0.3-1.4-1-1.4c-1.2,0-2.3,0-3.5-0.1c-0.5,2.6-1.1,5.4-1.7,8.2c0.4,0,0.8,0,1.2,0
		c0.2-0.2,0.6-0.4,0.6-0.6c-0.1-1-2.1-2.6,0.7-2.5c1.6,0,5.1-0.3,4.6,2.7c0.8,0.1,1.4,1.1,2.4,0.5
		C145.8,130.5,149.5,131.3,151.3,130.4z"/>
	<path d="M345.6,206.8c-0.2-0.9-0.3-1.8-0.5-2.7c-4.5-0.1-9-0.2-13.5-0.1c-1.6,0-3.1-0.1-4.8-0.1l0.5,3c0.9,0,1.8-0.1,2.7-0.1
		C335.2,206.7,340.4,206.9,345.6,206.8z"/>
	<path d="M348.6,271.3c-0.1,0.1-0.2,0.2-0.4,0.3c0.1,0,0.2,0.1,0.2,0.1c0.1-0.1,0.2-0.2,0.3-0.3
		C348.7,271.4,348.6,271.3,348.6,271.3z"/>
	<path d="M345.7,271.6c-0.1,0-0.2,0-0.2,0.1c0.1,0,0.1,0.1,0.2,0.1c0.1,0,0.2,0,0.2-0.1C345.9,271.7,345.8,271.7,345.7,271.6z"/>
	<path d="M591.4,113.3l0.2,0.9c5.1,0,10.2,0,15.3,0c-0.2-1.1-0.4-2.1-0.7-3C604.1,111.5,599.1,112.3,591.4,113.3z"/>
	<path d="M431.4,133.5l0.4-2.4c-1.2,0.3-2.4,0.6-3.6-0.2c-0.2,0.8-0.5,1.7-0.7,2.5C428.8,133.5,430.1,133.5,431.4,133.5z"/>
	<path d="M420.4,114.2c4.2,0,8.4,0,12.7,0c0.8,0,1.3,0.1,1.6,0.4l0.2-0.9c-7.3-0.7-12-1.4-13.9-1.7
		C420.7,112.6,420.6,113.4,420.4,114.2z"/>
	<path d="M599.4,136.4c2.1-0.1,4.3,0.1,6.5,0.1c0.4,0,0.8,0,1.1,0c0.8-0.3,1.6-0.3,2.4,0.1c0.6,0,1.3,0,1.9,0.1c0.1,0,0.2,0,0.3,0
		c-0.2-1.1-0.5-2.2-0.7-3.3c-0.9-0.5-1.1-1.5-1.1-2.5c0.3-1.8,0-3.1-3.1-2.8c-3.8,0.3-7.6,0.1-11.5,0.1c-0.4,0-0.8,0-1.2,0l0.5,2.8
		c3.2,0,6.4,0,9.6-0.1c0.1,0,0.2,0,0.3,0c1.8,0.3,4.8-0.2,4.7,1.6c-0.1,1.8-3,0.7-4.6,1.1c-2.7,0.7-5.8,0.5-8.1,0
		c-0.5-0.1-1.1-0.2-1.6-0.2l0.5,3C596.7,136.3,598.1,136.5,599.4,136.4z"/>
	<path d="M612.3,150.6c0.7,0,1.4,0,2.1,0c-0.4-1.8-0.7-3.5-1.1-5.2c-3.3-0.9-6.7-0.2-10-0.2c-2,0-4.5-1.2-6.2,0.5l0.4,2.1
		c3.5,0,6.9,0,10.4,0c1.1,0,2.2,0,1.9,1.3C609.4,150.9,610.9,150.6,612.3,150.6z"/>
	<path d="M593.5,125.4c5.2,0,10.5,0,15.7,0c-0.2-0.9-0.4-1.8-0.6-2.7c-5.2,0-10.4,0-15.6,0L593.5,125.4z"/>
	<path d="M432.9,124.4l1.3-7.6c-0.3,0.1-0.8,0.2-1.4,0.2c-2.9,0-5.8,0-8.7,0c0,0,0,0,0,0c-1.5,0-2.9,0-4.4,0
		c-0.5,2.6-1.1,5.4-1.8,8.4c0.2,0,0.4,0,0.6,0c0.8,0,2,0.2,1.8-0.7c-0.7-2.7,1.8-1.9,3.4-2c2.1,0,4.3,0,6.4-0.1c1,0,1.5,0.3,1.3,1.1
		C432,124,432.5,124.2,432.9,124.4z"/>
	<path d="M629,266.2c0.8,0.2,0.9-0.5,1.3-0.6c1.8-0.2,4.2-1,4.4,1.5c0,0.3,0.1,0.5,0.3,0.7c-0.3-2.5-0.7-5.2-1.1-7.9
		c-1.6,0-3.3,0-4.9,0c-2.7,0-5.5-0.3-8,0.9c-0.8,1.1-1.7,1.8-3.3,1.9l0.5,2.9C621.8,265.3,625.4,265.1,629,266.2z"/>
	<path d="M393.1,262.7c1.3,0,2.6,0,3.8,0c1.4,0,2.4,0.1,2.4,1.6c0,1.5-1.3,1.2-2.4,1.2c-1.4,0-2.8,0-4.2,0c-0.3,2-0.5,3.9-0.7,5.7
		c1.4-0.1,2.8-0.1,4.2-0.1c2.3,0,4.5,0.1,6.8,0.4c1.5,0.1,3.1-0.1,4.6-0.1l1-5.8c-0.7,0-1.4-0.2-1.9,0.1c-1.1-0.8-3.7,1.1-3.8-1.5
		c-0.1-2.1,1.9-1.5,3.1-1.4c0.9,0.1,2.3-0.4,3.2-0.1l0.5-2.7c-5.4,0-10.8,0-16.1,0C393.3,260.9,393.2,261.8,393.1,262.7z"/>
	<path d="M400.7,215.1c-0.3,1.8-0.6,3.7-1,5.5c0.8,0,1.7,0.1,2.4,0.1c2.1,0,4.2,0,6.3,0c1.3,0,1.6,0.5,1.5,1.3
		c-0.1,0.7,0.1,1.6-1.3,1.4c-2-0.2-2.3,0.5-2.2,1.9c0.1,1.5,1.5,1,2.5,1.1c1.8,0.1,3.7,0,5.6,0c0.3,0,0.6,0,0.9,0l1.9-11.3
		C411.8,215.1,406.2,215.1,400.7,215.1z"/>
	<path d="M406.4,191.5c-0.2,1.1,0.8,1,1.8,1c1,0,1.7,0.1,1.8-1.1c0.1-3.5,3.4-1.2,5.2-1.6c2.4-0.5,1.6,1.1,1.8,2.1
		c0.2,1.1-0.6,2.3,0.6,3.4c1.1,0,2.1,0,3.2,0l1.4-8.3c-5.2,0-10.4,0-15.7,0c-0.2,0-0.4,0-0.7,0c-0.2,1-0.4,1.9-0.5,2.9
		C406.1,189.9,406.6,190.3,406.4,191.5z"/>
	<path d="M411.5,248.6l0.4-2.3c-4.4,0-8.8-0.1-13.2-0.1c-1.1,0-2.2,0-3.3,0c-0.1,0.9-0.3,1.7-0.4,2.6c2.3,0,4.5,0,6.8-0.2
		C405.1,248.4,408.3,248.5,411.5,248.6z"/>
	<path d="M413.5,236.2c-0.1,1.8-1.6,1.2-2.6,1.3c-4.7,0-9.3,0-14,0.1c-0.3,1.9-0.6,3.7-0.9,5.5c5.5-0.1,11-0.1,16.5-0.2l1.9-11
		c-5.5,0-11.1,0-16.6,0c-0.2,0.9-0.3,1.8-0.5,2.8c4.5,0,9,0,13.5,0C412.2,234.7,413.5,234.4,413.5,236.2z"/>
	<path d="M410,257.2l1-5.6c-3.9,0-7.8,0-11.8,0c-1.5,0-3.1,0-4.6,0c-0.3,1.9-0.5,3.7-0.8,5.5C399.2,257.2,404.6,257.2,410,257.2z"/>
	<path d="M407.4,178.6c-0.2,0.9-0.4,1.9-0.5,2.8c5.4,0,10.8,0,16.2,0l0.5-2.9c-2.5,0-4.9,0-7.4,0
		C413.3,178.6,410.3,178.6,407.4,178.6z"/>
	<path d="M620.6,182c-0.2-1.2-0.5-2.4-0.7-3.6c-4.6,0-9.2-0.1-13.8-0.1c-1.1,0-2.2,0-3.3,0l0.5,3c4,0,7.9,0.1,11.9,0.5
		C617,182,618.8,182,620.6,182z"/>
	<path d="M411.2,159c-0.4,1.8-0.7,3.7-1.1,5.5c5.3,0,10.6,0,15.9,0l1-5.5C421.7,159,416.5,159,411.2,159z"/>
	<path d="M401.2,212.3c5.1,0,10.2,0,15.2,0c0.5,0,0.9,0,1.4,0l0.5-3c-5.5,0-11.1,0-16.6,0C401.5,210.4,401.3,211.3,401.2,212.3z"/>
	<path d="M402.3,275.9c0,0.8-0.5,1.1-1.4,0.9c-0.3,0-0.5,0-0.8,0c0.3,0,0.5,0,0.8,0c-0.3,0-0.5,0-0.8,0c-1.3,0-2.7-0.1-4-0.1
		c-0.1-0.3-0.2-0.6-0.3-0.8c-0.7-1.5-2.2-2-4.2-2c-0.2,2.1-0.4,4-0.6,5.9c2.7-0.1,5.3-0.2,8-0.3c2.8-0.1,4.2,0.6,3.8,3.1
		c-4-0.6-8-0.6-12-0.4c-0.1,1-0.2,1.9-0.2,2.8c4.9,0,9.8,0,14.7,0l1.5-8.6c-0.7-0.4,0-1.7-0.4-2.4c-1.2,0-2.3-0.1-3.5-0.1
		C401.8,274.5,402.3,275.3,402.3,275.9z"/>
	<path d="M402.2,206.8c0.2,0,0.4,0,0.6,0c2.9,0.1,4.1-0.5,3.8-2.8c-1.3-0.3-2.5-0.4-3.8-0.4C402.5,204.7,402.3,205.7,402.2,206.8z"
		/>
	<path d="M408.5,172.8c5.4,0,10.7,0,16.1,0l0.1-0.7c-3.7-0.1-7.5,0.2-11.1-0.6c2.6-0.2,5.1-0.3,7.7,0.1c1.1,0.2,2.4,0.4,3.5,0.1
		l0.3-1.5c-5.3,0-10.7,0-16,0C408.9,171,408.7,171.9,408.5,172.8z"/>
	<path d="M622.6,290.6c4.8-0.6,9.6-1.3,14.5-2.1c-0.1-1.1-0.2-2.3-0.2-3.5c-5.1,0-10.2,0-15.2,0L622.6,290.6z"/>
	<path d="M621.2,201c-0.4,0-0.7,0-1.1,0c-2.6-0.1-5.3-0.1-7.9-0.2c-1.8,0.2-3.6,0.3-5.3,0.3l0.5,2.8c5.8,0,11.5,0,17.3,0
		c-0.2-1-0.4-1.9-0.5-2.9C623.1,201,622.2,201,621.2,201z"/>
	<path d="M618.2,170c-0.5,0-1,0-1.5,0c-3,0-5.9,0-8.9,0c-1.4,0.2-2.9,0.3-4.3,0c-0.4,0-0.9,0-1.3,0c-0.3,0-0.6,0-0.9,0l0.5,2.8
		c5.6,0,11.3,0,16.9,0C618.6,171.8,618.4,170.9,618.2,170z"/>
	<path d="M598.4,153.4l0.5,2.8c5.5,0,11,0,16.6,0c-0.2-1-0.4-1.9-0.6-2.9c-5,0-9.9,0-14.9,0C599.6,153.4,599,153.4,598.4,153.4z"/>
	<path d="M610.3,220.6c3.2,0.1,6.5-0.3,9.7-0.2c2.6,0.1,5.1,0.1,7.7,0.1c-0.3-1.8-0.6-3.7-1-5.5c-5.8,0-11.6,0-17.3,0L610.3,220.6z"
		/>
	<path d="M615.3,248.9l0.5,2.7c0.4,0,0.7,0,1.1,0c1.2,0,2.4,0,3.5,0.1c4.1-0.2,8.2-0.1,12.4,0.1c-0.2-1-0.3-2.1-0.5-3.1
		C626.6,248.9,620.9,248.9,615.3,248.9z"/>
	<path d="M625.3,207.6c-0.1-0.3-0.1-0.6-0.2-0.8c-3.6-0.5-7.3,0.2-10.9,0.1c-2.2-0.1-4.3-0.2-6.5-0.2l1,5.6c0.4,0,0.7,0,1.1,0
		c-0.7-2.3,0.4-2.9,3.3-2.8c4,0.2,7.9,0,11.9,0C624.7,208.5,624.8,207.9,625.3,207.6z"/>
	<path d="M632.8,274c-0.3,0.2-0.6,0.4-0.9,0.7c0.9,0.4,2.9-0.6,2.4,1.4c-0.2,0.9,0.7,0.8,1.4,0.8c0.1,0,0.3,0,0.4,0
		c-0.1-0.9-0.2-1.8-0.3-2.8c-0.7,0-1.4,0-2.1,0C633.4,274,633.1,274,632.8,274z"/>
	<path d="M426.5,155.5c0.3,0.3,0.7,0.4,1,0.5l0.5-2.7c-0.2,0-0.4,0-0.6,0.1C426.8,154.1,427.9,155.1,426.5,155.5z"/>
	<path d="M423.9,146.1c-0.1,0.5-0.3,1.4,0.4,1.4c1.9,0,2.4,0.8,2.7,1.7c0.2,0.5,0.3,1.1,0.5,1.6c0.2,0,0.3-0.1,0.5-0.2
		c-0.4-1.3-1.2-2.9,1-2.8l0.5-2.8c-0.9,0-1.8,0.1-2.7,0.1C425.7,145.4,424.2,144.8,423.9,146.1z"/>
	<path d="M424.5,154.1c-0.1-0.8-0.9-0.7-1.5-0.7c-3.6,0-7.1,0-10.7-0.1c-0.2,0.9-0.4,1.9-0.6,2.8c3.5,0,7.1,0,10.6,0
		C423.8,155.9,424.6,155.3,424.5,154.1z"/>
	<path d="M614.2,242.8c0.5,0.2,1.3,0.3,2.4,0.3c4.9-0.1,9.9-0.1,14.8-0.1c-0.1-0.9-0.3-1.9-0.5-2.8c-5.7,0-11.5,0-17.2,0
		L614.2,242.8z"/>
	<path d="M624.6,274.7c0-0.2,0.4-0.4,0.6-0.6c-1.8,0-3.7-0.5-5.4,0.2l0.4,2.4c1,0.6,2.7,0.5,3.7,0.5
		C626.7,277.3,624.7,275.7,624.6,274.7z"/>
	<path d="M413.3,204c-0.3,2.2,0.8,2.8,3.6,2.7c0.6,0,1.2,0,1.8-0.1l0.5-2.9c-1.7,0-3.5-0.1-5.2-0.1
		C413.8,203.7,413.5,203.9,413.3,204z"/>
	<path d="M413.1,201.2c-3.3,0-6.6,0-9.9,0c0,0,0,0.1,0,0.1C406.5,202.3,409.8,202.2,413.1,201.2z"/>
	<path d="M417.9,147.4c2.7,0.4,2.6-0.7,3-2.2c-0.5,0.1-1,0.5-1.5,0.7c-0.3,0.2-0.6,0.3-0.8,0.3c-0.1,0-0.1,0-0.2,0
		c-0.3-0.1-0.5-0.4-0.7-1.2c-1.2,0-2.4-0.1-3.6-0.1c-0.2,0.8-0.3,1.6-0.5,2.4C415,147.3,416.4,147.2,417.9,147.4z"/>
	<path d="M419.9,142.2c1.7,0.1,2.4-0.7,2.3-1.8c-0.1-1.3-1.6-0.7-2.4-0.7c-1.4-0.1-2.9,0-4.4,0c1.7,0.6,1.1,1.8,1.6,2.6
		c0.4,0.1,0.8,0.1,1.2,0.2c0.3,0,0.6-0.1,0.8-0.2C419.3,142.2,419.6,142.2,419.9,142.2z"/>
	<path d="M424.7,140.6c-0.2,1.2,0.6,1.6,1.9,1.8c0.4,0,0.9-0.1,1.3-0.1l0,0h0c0.1-0.3,0.3-0.6,0.4-1c0.6,0.3,1.1,0.4,1.6,0.3l0.4-2
		c0,0-0.1,0-0.1,0c-0.5,0-1.1-0.1-1.6-0.1c-0.4,0-0.8,0-1.1,0C426.6,139.9,425,139.2,424.7,140.6z"/>
	<path d="M407.4,178.6c2.9,0,5.9,0,8.8,0c2.5,0,4.9,0,7.4,0l0.5-3c-5.4,0-10.8,0-16.1,0C407.8,176.6,407.6,177.6,407.4,178.6z"/>
	<path d="M424.5,154.1c0.1,1.2-0.8,1.8-2.2,2.1c1.6,0.7,2.8-0.1,4.1-0.7c1.4-0.4,0.4-1.5,0.9-2.1c0-0.9,0.1-1.8,0.1-2.7v0
		c-0.3-0.5-0.4-1-0.5-1.6c-0.3-0.9-0.7-1.7-2.7-1.7c-0.6,0-0.5-0.9-0.4-1.4c0.4-1.3,1.9-0.7,2.8-1c-0.5-0.9-0.5-1.8-0.1-2.7
		c-1.3-0.2-2.1-0.6-1.9-1.8c0.3-1.4,1.8-0.7,2.7-1.1c-4.1-0.5-8.2-0.4-12.3-0.3c-0.2,1.1-0.5,2.2-0.7,3.4c0.7-0.2,1.5-0.3,2.5-0.3
		c-0.5-0.8,0.1-2.1-1.6-2.6c1.5,0,2.9-0.1,4.4,0c0.8,0.1,2.3-0.6,2.4,0.7c0.1,1.1-0.6,1.9-2.3,1.8c-0.3,0-0.6,0-0.8,0.1
		c-0.3,0.1-0.6,0.1-0.8,0.2h0c0.5,1-0.6,1.8-0.6,2.7c0.2,0.8,0.4,1.1,0.7,1.2c0.1,0,0.1,0,0.2,0c0.2,0,0.5-0.2,0.8-0.3
		c0.5-0.3,1-0.6,1.5-0.7c-0.3,1.5-0.2,2.6-3,2.2c-1.4-0.2-2.9-0.1-4.3,0c-0.4,1.9-0.8,3.9-1.2,5.9c3.6,0,7.1,0,10.7,0.1
		C423.7,153.4,424.5,153.3,424.5,154.1z"/>
	<path d="M427.5,133.5c0.2-0.8,0.5-1.7,0.7-2.5c-3.8,0.3-7.7-0.7-11.3,0.4c-0.2,0.8-0.3,1.6-0.5,2.3
		C420,133.6,423.7,132.9,427.5,133.5z"/>
	<path d="M402.8,282.7c0.4-2.5-1-3.2-3.8-3.1c-2.7,0.1-5.3,0.2-8,0.3c-0.1,0.8-0.2,1.6-0.2,2.4C394.8,282.1,398.8,282,402.8,282.7z"
		/>
	<path d="M618.8,172.8c-5.6,0-11.3,0-16.9,0l0.6,3.2c1.8,0,3.4,0.1,3.7,2.4c4.6,0,9.2,0.1,13.8,0.1
		C619.5,176.5,619.1,174.6,618.8,172.8z"/>
	<path d="M615.3,181.8c-4-0.4-7.9-0.5-11.9-0.5l1,5.7c5.7,0,11.4-0.1,17.1-0.1c-0.3-1.7-0.6-3.3-0.9-4.9
		C618.8,182,617,182,615.3,181.8z"/>
	<path d="M428.4,141.3c-0.1,0.3-0.3,0.6-0.4,1h0c0.6-0.1,1.3,0.1,1.9,0.4l0.2-1C429.5,141.7,429,141.6,428.4,141.3z"/>
	<path d="M634.3,276c0.5-1.9-1.5-1-2.4-1.4c-2.1-1.4-4.5-0.3-6.7-0.5c-0.2,0.2-0.6,0.4-0.6,0.6c0.1,1,2.1,2.6-0.7,2.5
		c-1,0-2.7,0.1-3.7-0.5l1,5.5c0,0,0,0,0.1,0c5.1-0.1,10.3,0.8,15.4-0.3c-0.2-1.7-0.3-3.4-0.5-5.2c-0.1,0-0.3,0-0.4,0
		C635,276.8,634.1,276.9,634.3,276z"/>
	<path d="M392,271.1c-0.1,1-0.2,1.9-0.3,2.8c2,0,3.5,0.4,4.2,2c-0.4-2.2,2.9-2.2,4.4-3.1c1-0.6,2.4-0.1,2.6,1.2
		c1.2,0,2.3,0.1,3.5,0.1c0.2-0.1,0.5-0.1,0.8-0.1l0.3-1.5c-0.3-0.1-0.5-0.2-0.7-0.3c-1.1-0.8-2.7,0.1-3.7-0.8
		c-2.3-0.4-4.5-0.4-6.8-0.4C394.8,271,393.4,271.1,392,271.1z"/>
	<path d="M395.9,275.9c0,0.2,0.1,0.5,0.3,0.8C396,276.4,396,276.2,395.9,275.9z"/>
	<path d="M403.2,201.3c-0.1,0.8-0.3,1.6-0.4,2.4c1.3,0,2.6,0.1,3.8,0.4c2.3,0,4.5,0,6.8,0c0.2-0.1,0.5-0.4,0.7-0.4
		c1.7,0,3.5,0,5.2,0.1l0.5-2.8c-2.2,0-4.4,0.1-6.6,0.2C409.8,202.2,406.5,202.3,403.2,201.3z"/>
	<path d="M417.5,136.2c0.1,0,0.2,0,0.2-0.1c-0.1,0-0.1-0.1-0.2-0.1c-0.1,0-0.2,0-0.2,0.1C417.4,136.1,417.5,136.1,417.5,136.2z"/>
	<path class="st1" d="M400.9,276.8c-0.3,0-0.5,0-0.8,0"/>
</g>
</svg>
